0, 0, Header, 1, 6, 96
1, 0, Start_track
1, 0, Copyright_t, "Copyright  1994-2002 Mozart Music Software"
1, 0, Text_t, "Piano Solo\015\012"
1, 0, Text_t, "<composer>\015\012"
1, 0, Sequencer_specific, 16, 68, 87, 77, 90, 86, 82, 83, 78, 32, 55, 46, 48, 46, 55, 46, 48
1, 0, Time_signature, 4, 2, 24, 8
1, 0, Tempo, 120000
1, 0, Key_signature, 1, "major"
1, 336, Tempo, 833333
1, 7249, Tempo, 833333
1, 36482, End_track
2, 0, Start_track
2, 0, Program_c, 0, 0
2, 0, Control_c, 0, 7, 127
2, 0, Control_c, 0, 10, 64
2, 336, Note_on_c, 0, 74, 75
2, 351, Note_on_c, 0, 74, 0
2, 352, Note_on_c, 0, 71, 75
2, 367, Note_on_c, 0, 71, 0
2, 368, Note_on_c, 0, 67, 75
2, 383, Note_on_c, 0, 67, 0
2, 384, Note_on_c, 0, 79, 75
2, 429, Note_on_c, 0, 79, 0
2, 432, Note_on_c, 0, 74, 75
2, 477, Note_on_c, 0, 74, 0
2, 480, Note_on_c, 0, 74, 75
2, 525, Note_on_c, 0, 74, 0
2, 528, Note_on_c, 0, 74, 75
2, 573, Note_on_c, 0, 74, 0
2, 576, Note_on_c, 0, 72, 75
2, 588, Note_on_c, 0, 72, 0
2, 588, Note_on_c, 0, 71, 75
2, 600, Note_on_c, 0, 71, 0
2, 600, Note_on_c, 0, 72, 75
2, 612, Note_on_c, 0, 72, 0
2, 612, Note_on_c, 0, 74, 75
2, 624, Note_on_c, 0, 74, 0
2, 624, Note_on_c, 0, 76, 75
2, 717, Note_on_c, 0, 76, 0
2, 720, Note_on_c, 0, 69, 75
2, 743, Note_on_c, 0, 69, 0
2, 744, Note_on_c, 0, 72, 75
2, 767, Note_on_c, 0, 72, 0
2, 768, Note_on_c, 0, 72, 75
2, 791, Note_on_c, 0, 72, 0
2, 792, Note_on_c, 0, 71, 75
2, 815, Note_on_c, 0, 71, 0
2, 816, Note_on_c, 0, 76, 75
2, 839, Note_on_c, 0, 76, 0
2, 840, Note_on_c, 0, 74, 75
2, 863, Note_on_c, 0, 74, 0
2, 864, Note_on_c, 0, 72, 75
2, 887, Note_on_c, 0, 72, 0
2, 888, Note_on_c, 0, 71, 75
2, 911, Note_on_c, 0, 71, 0
2, 912, Note_on_c, 0, 69, 75
2, 935, Note_on_c, 0, 69, 0
2, 936, Note_on_c, 0, 67, 75
2, 959, Note_on_c, 0, 67, 0
2, 960, Note_on_c, 0, 66, 75
2, 975, Note_on_c, 0, 66, 0
2, 976, Note_on_c, 0, 67, 75
2, 991, Note_on_c, 0, 67, 0
2, 992, Note_on_c, 0, 69, 75
2, 1007, Note_on_c, 0, 69, 0
2, 1008, Note_on_c, 0, 67, 75
2, 1053, Note_on_c, 0, 67, 0
2, 1104, Note_on_c, 0, 62, 75
2, 1119, Note_on_c, 0, 62, 0
2, 1120, Note_on_c, 0, 59, 75
2, 1135, Note_on_c, 0, 59, 0
2, 1136, Note_on_c, 0, 55, 75
2, 1151, Note_on_c, 0, 55, 0
2, 1152, Note_on_c, 0, 67, 75
2, 1197, Note_on_c, 0, 67, 0
2, 1200, Note_on_c, 0, 67, 75
2, 1245, Note_on_c, 0, 67, 0
2, 1248, Note_on_c, 0, 67, 75
2, 1293, Note_on_c, 0, 67, 0
2, 1296, Note_on_c, 0, 67, 75
2, 1341, Note_on_c, 0, 67, 0
2, 1344, Note_on_c, 0, 66, 75
2, 1356, Note_on_c, 0, 66, 0
2, 1356, Note_on_c, 0, 64, 75
2, 1368, Note_on_c, 0, 64, 0
2, 1368, Note_on_c, 0, 66, 75
2, 1380, Note_on_c, 0, 66, 0
2, 1380, Note_on_c, 0, 67, 75
2, 1392, Note_on_c, 0, 67, 0
2, 1392, Note_on_c, 0, 69, 75
2, 1404, Note_on_c, 0, 69, 0
2, 1404, Note_on_c, 0, 67, 75
2, 1416, Note_on_c, 0, 67, 0
2, 1416, Note_on_c, 0, 69, 75
2, 1428, Note_on_c, 0, 69, 0
2, 1428, Note_on_c, 0, 71, 75
2, 1440, Note_on_c, 0, 71, 0
2, 1440, Note_on_c, 0, 72, 75
2, 1529, Note_on_c, 0, 72, 0
2, 1536, Note_on_c, 0, 71, 75
2, 1551, Note_on_c, 0, 71, 0
2, 1552, Note_on_c, 0, 69, 75
2, 1567, Note_on_c, 0, 69, 0
2, 1568, Note_on_c, 0, 67, 76
2, 1583, Note_on_c, 0, 67, 0
2, 1584, Note_on_c, 0, 74, 76
2, 1599, Note_on_c, 0, 74, 0
2, 1600, Note_on_c, 0, 72, 77
2, 1615, Note_on_c, 0, 72, 0
2, 1616, Note_on_c, 0, 71, 77
2, 1631, Note_on_c, 0, 71, 0
2, 1632, Note_on_c, 0, 79, 78
2, 1647, Note_on_c, 0, 79, 0
2, 1648, Note_on_c, 0, 78, 78
2, 1663, Note_on_c, 0, 78, 0
2, 1664, Note_on_c, 0, 76, 79
2, 1679, Note_on_c, 0, 76, 0
2, 1680, Note_on_c, 0, 74, 79
2, 1695, Note_on_c, 0, 74, 0
2, 1696, Note_on_c, 0, 72, 80
2, 1711, Note_on_c, 0, 72, 0
2, 1712, Note_on_c, 0, 71, 80
2, 1727, Note_on_c, 0, 71, 0
2, 1728, Note_on_c, 0, 72, 81
2, 1736, Note_on_c, 0, 72, 0
2, 1736, Note_on_c, 0, 71, 80
2, 1744, Note_on_c, 0, 71, 0
2, 1744, Note_on_c, 0, 72, 80
2, 1752, Note_on_c, 0, 72, 0
2, 1752, Note_on_c, 0, 71, 80
2, 1760, Note_on_c, 0, 71, 0
2, 1760, Note_on_c, 0, 69, 80
2, 1768, Note_on_c, 0, 69, 0
2, 1768, Note_on_c, 0, 71, 79
2, 1776, Note_on_c, 0, 71, 0
2, 1776, Note_on_c, 0, 69, 79
2, 1821, Note_on_c, 0, 69, 0
2, 1872, Note_on_c, 0, 81, 75
2, 1872, Note_on_c, 0, 78, 75
2, 1906, Note_on_c, 0, 81, 0
2, 1906, Note_on_c, 0, 78, 0
2, 1908, Note_on_c, 0, 81, 75
2, 1908, Note_on_c, 0, 78, 75
2, 1920, Note_on_c, 0, 81, 0
2, 1920, Note_on_c, 0, 78, 0
2, 1920, Note_on_c, 0, 81, 75
2, 1920, Note_on_c, 0, 78, 75
2, 1954, Note_on_c, 0, 81, 0
2, 1954, Note_on_c, 0, 78, 0
2, 1956, Note_on_c, 0, 79, 75
2, 1956, Note_on_c, 0, 76, 75
2, 1968, Note_on_c, 0, 79, 0
2, 1968, Note_on_c, 0, 76, 0
2, 1968, Note_on_c, 0, 78, 75
2, 1968, Note_on_c, 0, 74, 75
2, 2002, Note_on_c, 0, 78, 0
2, 2002, Note_on_c, 0, 74, 0
2, 2004, Note_on_c, 0, 78, 75
2, 2004, Note_on_c, 0, 69, 75
2, 2016, Note_on_c, 0, 78, 0
2, 2016, Note_on_c, 0, 69, 0
2, 2016, Note_on_c, 0, 78, 75
2, 2016, Note_on_c, 0, 69, 75
2, 2050, Note_on_c, 0, 78, 0
2, 2050, Note_on_c, 0, 69, 0
2, 2052, Note_on_c, 0, 76, 75
2, 2052, Note_on_c, 0, 67, 75
2, 2064, Note_on_c, 0, 76, 0
2, 2064, Note_on_c, 0, 67, 0
2, 2064, Note_on_c, 0, 74, 75
2, 2064, Note_on_c, 0, 66, 75
2, 2098, Note_on_c, 0, 74, 0
2, 2098, Note_on_c, 0, 66, 0
2, 2100, Note_on_c, 0, 81, 75
2, 2100, Note_on_c, 0, 78, 75
2, 2112, Note_on_c, 0, 81, 0
2, 2112, Note_on_c, 0, 78, 0
2, 2112, Note_on_c, 0, 81, 75
2, 2112, Note_on_c, 0, 78, 75
2, 2146, Note_on_c, 0, 81, 0
2, 2146, Note_on_c, 0, 78, 0
2, 2148, Note_on_c, 0, 79, 75
2, 2148, Note_on_c, 0, 76, 75
2, 2160, Note_on_c, 0, 79, 0
2, 2160, Note_on_c, 0, 76, 0
2, 2160, Note_on_c, 0, 78, 75
2, 2160, Note_on_c, 0, 74, 75
2, 2194, Note_on_c, 0, 78, 0
2, 2194, Note_on_c, 0, 74, 0
2, 2196, Note_on_c, 0, 78, 75
2, 2196, Note_on_c, 0, 69, 75
2, 2208, Note_on_c, 0, 78, 0
2, 2208, Note_on_c, 0, 69, 0
2, 2208, Note_on_c, 0, 78, 75
2, 2208, Note_on_c, 0, 69, 75
2, 2242, Note_on_c, 0, 78, 0
2, 2242, Note_on_c, 0, 69, 0
2, 2244, Note_on_c, 0, 76, 75
2, 2244, Note_on_c, 0, 67, 75
2, 2256, Note_on_c, 0, 76, 0
2, 2256, Note_on_c, 0, 67, 0
2, 2256, Note_on_c, 0, 74, 75
2, 2290, Note_on_c, 0, 74, 0
2, 2292, Note_on_c, 0, 74, 75
2, 2304, Note_on_c, 0, 74, 0
2, 2304, Note_on_c, 0, 75, 75
2, 2328, Note_on_c, 0, 75, 0
2, 2328, Note_on_c, 0, 76, 73
2, 2351, Note_on_c, 0, 76, 0
2, 2352, Note_on_c, 0, 76, 72
2, 2362, Note_on_c, 0, 76, 0
2, 2376, Note_on_c, 0, 76, 71
2, 2386, Note_on_c, 0, 76, 0
2, 2400, Note_on_c, 0, 76, 70
2, 2489, Note_on_c, 0, 76, 0
2, 2496, Note_on_c, 0, 61, 72
2, 2502, Note_on_c, 0, 61, 0
2, 2502, Note_on_c, 0, 64, 72
2, 2508, Note_on_c, 0, 64, 0
2, 2508, Note_on_c, 0, 67, 72
2, 2514, Note_on_c, 0, 67, 0
2, 2514, Note_on_c, 0, 69, 72
2, 2520, Note_on_c, 0, 69, 0
2, 2520, Note_on_c, 0, 73, 72
2, 2526, Note_on_c, 0, 73, 0
2, 2526, Note_on_c, 0, 76, 72
2, 2532, Note_on_c, 0, 76, 0
2, 2532, Note_on_c, 0, 79, 72
2, 2604, Note_on_c, 0, 79, 0
2, 2604, Note_on_c, 0, 78, 75
2, 2616, Note_on_c, 0, 78, 0
2, 2616, Note_on_c, 0, 76, 75
2, 2628, Note_on_c, 0, 76, 0
2, 2628, Note_on_c, 0, 74, 75
2, 2640, Note_on_c, 0, 74, 0
2, 2640, Note_on_c, 0, 73, 75
2, 2652, Note_on_c, 0, 73, 0
2, 2652, Note_on_c, 0, 71, 75
2, 2664, Note_on_c, 0, 71, 0
2, 2664, Note_on_c, 0, 69, 75
2, 2676, Note_on_c, 0, 69, 0
2, 2676, Note_on_c, 0, 67, 75
2, 2688, Note_on_c, 0, 67, 0
2, 2688, Note_on_c, 0, 66, 75
2, 2700, Note_on_c, 0, 66, 0
2, 2700, Note_on_c, 0, 69, 75
2, 2712, Note_on_c, 0, 69, 0
2, 2712, Note_on_c, 0, 71, 75
2, 2724, Note_on_c, 0, 71, 0
2, 2724, Note_on_c, 0, 73, 75
2, 2736, Note_on_c, 0, 73, 0
2, 2736, Note_on_c, 0, 74, 75
2, 2748, Note_on_c, 0, 74, 0
2, 2748, Note_on_c, 0, 76, 75
2, 2760, Note_on_c, 0, 76, 0
2, 2760, Note_on_c, 0, 78, 75
2, 2772, Note_on_c, 0, 78, 0
2, 2772, Note_on_c, 0, 79, 75
2, 2784, Note_on_c, 0, 79, 0
2, 2784, Note_on_c, 0, 81, 75
2, 2914, Note_on_c, 0, 81, 0
2, 2916, Note_on_c, 0, 82, 78
2, 2928, Note_on_c, 0, 82, 0
2, 2928, Note_on_c, 0, 83, 78
2, 2962, Note_on_c, 0, 83, 0
2, 2964, Note_on_c, 0, 85, 79
2, 2976, Note_on_c, 0, 85, 0
2, 2976, Note_on_c, 0, 86, 80
2, 3010, Note_on_c, 0, 86, 0
2, 3012, Note_on_c, 0, 74, 81
2, 3024, Note_on_c, 0, 74, 0
2, 3024, Note_on_c, 0, 78, 81
2, 3058, Note_on_c, 0, 78, 0
2, 3060, Note_on_c, 0, 81, 81
2, 3072, Note_on_c, 0, 81, 0
2, 3072, Note_on_c, 0, 79, 81
2, 3084, Note_on_c, 0, 79, 0
2, 3084, Note_on_c, 0, 78, 81
2, 3096, Note_on_c, 0, 78, 0
2, 3096, Note_on_c, 0, 76, 81
2, 3108, Note_on_c, 0, 76, 0
2, 3108, Note_on_c, 0, 78, 81
2, 3120, Note_on_c, 0, 78, 0
2, 3120, Note_on_c, 0, 76, 81
2, 3165, Note_on_c, 0, 76, 0
2, 3168, Note_on_c, 0, 81, 81
2, 3235, Note_on_c, 0, 81, 0
2, 3240, Note_on_c, 0, 69, 75
2, 3263, Note_on_c, 0, 69, 0
2, 3264, Note_on_c, 0, 68, 75
2, 3276, Note_on_c, 0, 68, 0
2, 3276, Note_on_c, 0, 66, 75
2, 3288, Note_on_c, 0, 66, 0
2, 3288, Note_on_c, 0, 68, 75
2, 3300, Note_on_c, 0, 68, 0
2, 3300, Note_on_c, 0, 69, 75
2, 3312, Note_on_c, 0, 69, 0
2, 3312, Note_on_c, 0, 71, 75
2, 3324, Note_on_c, 0, 71, 0
2, 3324, Note_on_c, 0, 69, 75
2, 3336, Note_on_c, 0, 69, 0
2, 3336, Note_on_c, 0, 71, 75
2, 3348, Note_on_c, 0, 71, 0
2, 3348, Note_on_c, 0, 73, 75
2, 3360, Note_on_c, 0, 73, 0
2, 3360, Note_on_c, 0, 74, 75
2, 3427, Note_on_c, 0, 74, 0
2, 3432, Note_on_c, 0, 62, 75
2, 3455, Note_on_c, 0, 62, 0
2, 3456, Note_on_c, 0, 61, 75
2, 3468, Note_on_c, 0, 61, 0
2, 3468, Note_on_c, 0, 59, 75
2, 3480, Note_on_c, 0, 59, 0
2, 3480, Note_on_c, 0, 61, 75
2, 3492, Note_on_c, 0, 61, 0
2, 3492, Note_on_c, 0, 62, 75
2, 3504, Note_on_c, 0, 62, 0
2, 3504, Note_on_c, 0, 64, 75
2, 3516, Note_on_c, 0, 64, 0
2, 3516, Note_on_c, 0, 62, 75
2, 3528, Note_on_c, 0, 62, 0
2, 3528, Note_on_c, 0, 64, 75
2, 3540, Note_on_c, 0, 64, 0
2, 3540, Note_on_c, 0, 66, 75
2, 3552, Note_on_c, 0, 66, 0
2, 3552, Note_on_c, 0, 67, 75
2, 3619, Note_on_c, 0, 67, 0
2, 3624, Note_on_c, 0, 55, 75
2, 3647, Note_on_c, 0, 55, 0
2, 3648, Note_on_c, 0, 54, 75
2, 3671, Note_on_c, 0, 54, 0
2, 3672, Note_on_c, 0, 61, 91
2, 3720, Note_on_c, 0, 61, 0
2, 3720, Note_on_c, 0, 62, 75
2, 3743, Note_on_c, 0, 62, 0
2, 3744, Note_on_c, 0, 55, 75
2, 3767, Note_on_c, 0, 55, 0
2, 3768, Note_on_c, 0, 61, 91
2, 3816, Note_on_c, 0, 61, 0
2, 3816, Note_on_c, 0, 62, 75
2, 3839, Note_on_c, 0, 62, 0
2, 3840, Note_on_c, 0, 57, 75
2, 3863, Note_on_c, 0, 57, 0
2, 3864, Note_on_c, 0, 61, 91
2, 3912, Note_on_c, 0, 61, 0
2, 3912, Note_on_c, 0, 62, 75
2, 3935, Note_on_c, 0, 62, 0
2, 3936, Note_on_c, 0, 59, 75
2, 3959, Note_on_c, 0, 59, 0
2, 3960, Note_on_c, 0, 64, 75
2, 3972, Note_on_c, 0, 64, 0
2, 3972, Note_on_c, 0, 66, 75
2, 3984, Note_on_c, 0, 66, 0
2, 3984, Note_on_c, 0, 67, 75
2, 4007, Note_on_c, 0, 67, 0
2, 4008, Note_on_c, 0, 64, 75
2, 4031, Note_on_c, 0, 64, 0
2, 4032, Note_on_c, 0, 62, 75
2, 4077, Note_on_c, 0, 62, 0
2, 4080, Note_on_c, 0, 61, 75
2, 4125, Note_on_c, 0, 61, 0
2, 4128, Note_on_c, 0, 71, 91
2, 4148, Note_on_c, 0, 71, 0
2, 4148, Note_on_c, 0, 69, 75
2, 4158, Note_on_c, 0, 69, 0
2, 4158, Note_on_c, 0, 71, 75
2, 4168, Note_on_c, 0, 71, 0
2, 4168, Note_on_c, 0, 69, 75
2, 4178, Note_on_c, 0, 69, 0
2, 4178, Note_on_c, 0, 71, 75
2, 4188, Note_on_c, 0, 71, 0
2, 4188, Note_on_c, 0, 69, 75
2, 4198, Note_on_c, 0, 69, 0
2, 4198, Note_on_c, 0, 71, 75
2, 4207, Note_on_c, 0, 71, 0
2, 4207, Note_on_c, 0, 69, 75
2, 4216, Note_on_c, 0, 69, 0
2, 4216, Note_on_c, 0, 71, 75
2, 4225, Note_on_c, 0, 71, 0
2, 4225, Note_on_c, 0, 69, 75
2, 4235, Note_on_c, 0, 69, 0
2, 4235, Note_on_c, 0, 68, 75
2, 4245, Note_on_c, 0, 68, 0
2, 4245, Note_on_c, 0, 69, 75
2, 4255, Note_on_c, 0, 69, 0
2, 4255, Note_on_c, 0, 68, 75
2, 4265, Note_on_c, 0, 68, 0
2, 4265, Note_on_c, 0, 69, 75
2, 4275, Note_on_c, 0, 69, 0
2, 4275, Note_on_c, 0, 68, 75
2, 4285, Note_on_c, 0, 68, 0
2, 4285, Note_on_c, 0, 69, 75
2, 4294, Note_on_c, 0, 69, 0
2, 4294, Note_on_c, 0, 68, 75
2, 4303, Note_on_c, 0, 68, 0
2, 4303, Note_on_c, 0, 69, 75
2, 4312, Note_on_c, 0, 69, 0
2, 4312, Note_on_c, 0, 68, 75
2, 4321, Note_on_c, 0, 68, 0
2, 4321, Note_on_c, 0, 69, 75
2, 4331, Note_on_c, 0, 69, 0
2, 4331, Note_on_c, 0, 67, 75
2, 4341, Note_on_c, 0, 67, 0
2, 4341, Note_on_c, 0, 69, 75
2, 4351, Note_on_c, 0, 69, 0
2, 4351, Note_on_c, 0, 67, 75
2, 4361, Note_on_c, 0, 67, 0
2, 4361, Note_on_c, 0, 69, 75
2, 4371, Note_on_c, 0, 69, 0
2, 4371, Note_on_c, 0, 67, 75
2, 4381, Note_on_c, 0, 67, 0
2, 4381, Note_on_c, 0, 69, 75
2, 4390, Note_on_c, 0, 69, 0
2, 4390, Note_on_c, 0, 67, 75
2, 4399, Note_on_c, 0, 67, 0
2, 4399, Note_on_c, 0, 69, 75
2, 4408, Note_on_c, 0, 69, 0
2, 4408, Note_on_c, 0, 67, 75
2, 4417, Note_on_c, 0, 67, 0
2, 4417, Note_on_c, 0, 66, 75
2, 4427, Note_on_c, 0, 66, 0
2, 4427, Note_on_c, 0, 67, 75
2, 4437, Note_on_c, 0, 67, 0
2, 4437, Note_on_c, 0, 66, 75
2, 4447, Note_on_c, 0, 66, 0
2, 4447, Note_on_c, 0, 67, 75
2, 4457, Note_on_c, 0, 67, 0
2, 4457, Note_on_c, 0, 66, 75
2, 4467, Note_on_c, 0, 66, 0
2, 4467, Note_on_c, 0, 67, 75
2, 4477, Note_on_c, 0, 67, 0
2, 4477, Note_on_c, 0, 66, 75
2, 4486, Note_on_c, 0, 66, 0
2, 4486, Note_on_c, 0, 67, 75
2, 4495, Note_on_c, 0, 67, 0
2, 4495, Note_on_c, 0, 66, 75
2, 4504, Note_on_c, 0, 66, 0
2, 4504, Note_on_c, 0, 67, 75
2, 4513, Note_on_c, 0, 67, 0
2, 4513, Note_on_c, 0, 65, 75
2, 4523, Note_on_c, 0, 65, 0
2, 4523, Note_on_c, 0, 67, 75
2, 4533, Note_on_c, 0, 67, 0
2, 4533, Note_on_c, 0, 65, 75
2, 4543, Note_on_c, 0, 65, 0
2, 4543, Note_on_c, 0, 67, 75
2, 4553, Note_on_c, 0, 67, 0
2, 4553, Note_on_c, 0, 65, 75
2, 4563, Note_on_c, 0, 65, 0
2, 4563, Note_on_c, 0, 67, 75
2, 4573, Note_on_c, 0, 67, 0
2, 4573, Note_on_c, 0, 65, 75
2, 4582, Note_on_c, 0, 65, 0
2, 4582, Note_on_c, 0, 67, 75
2, 4591, Note_on_c, 0, 67, 0
2, 4591, Note_on_c, 0, 64, 75
2, 4600, Note_on_c, 0, 64, 0
2, 4600, Note_on_c, 0, 65, 75
2, 4609, Note_on_c, 0, 65, 0
2, 4609, Note_on_c, 0, 64, 75
2, 4654, Note_on_c, 0, 64, 0
2, 4657, Note_on_c, 0, 69, 75
2, 4702, Note_on_c, 0, 69, 0
2, 4705, Note_on_c, 0, 67, 75
2, 4715, Note_on_c, 0, 67, 0
2, 4715, Note_on_c, 0, 65, 75
2, 4725, Note_on_c, 0, 65, 0
2, 4725, Note_on_c, 0, 67, 75
2, 4735, Note_on_c, 0, 67, 0
2, 4735, Note_on_c, 0, 65, 75
2, 4745, Note_on_c, 0, 65, 0
2, 4745, Note_on_c, 0, 67, 75
2, 4755, Note_on_c, 0, 67, 0
2, 4755, Note_on_c, 0, 65, 75
2, 4765, Note_on_c, 0, 65, 0
2, 4765, Note_on_c, 0, 67, 75
2, 4774, Note_on_c, 0, 67, 0
2, 4774, Note_on_c, 0, 65, 75
2, 4783, Note_on_c, 0, 65, 0
2, 4783, Note_on_c, 0, 64, 75
2, 4792, Note_on_c, 0, 64, 0
2, 4792, Note_on_c, 0, 65, 75
2, 4801, Note_on_c, 0, 65, 0
2, 4801, Note_on_c, 0, 64, 75
2, 4846, Note_on_c, 0, 64, 0
2, 4885, Note_on_c, 0, 74, 75
2, 4897, Note_on_c, 0, 74, 0
2, 4897, Note_on_c, 0, 69, 75
2, 4942, Note_on_c, 0, 69, 0
2, 4945, Note_on_c, 0, 73, 75
2, 4953, Note_on_c, 0, 73, 0
2, 4953, Note_on_c, 0, 71, 75
2, 4961, Note_on_c, 0, 71, 0
2, 4961, Note_on_c, 0, 73, 75
2, 4969, Note_on_c, 0, 73, 0
2, 4969, Note_on_c, 0, 71, 75
2, 4977, Note_on_c, 0, 71, 0
2, 4977, Note_on_c, 0, 69, 75
2, 4985, Note_on_c, 0, 69, 0
2, 4985, Note_on_c, 0, 71, 75
2, 4993, Note_on_c, 0, 71, 0
2, 4993, Note_on_c, 0, 69, 75
2, 5000, Note_on_c, 0, 69, 0
2, 5009, Note_on_c, 0, 81, 75
2, 5024, Note_on_c, 0, 81, 0
2, 5025, Note_on_c, 0, 79, 75
2, 5040, Note_on_c, 0, 79, 0
2, 5041, Note_on_c, 0, 78, 75
2, 5056, Note_on_c, 0, 78, 0
2, 5057, Note_on_c, 0, 76, 75
2, 5072, Note_on_c, 0, 76, 0
2, 5073, Note_on_c, 0, 74, 75
2, 5088, Note_on_c, 0, 74, 0
2, 5089, Note_on_c, 0, 69, 75
2, 5134, Note_on_c, 0, 69, 0
2, 5137, Note_on_c, 0, 73, 75
2, 5145, Note_on_c, 0, 73, 0
2, 5145, Note_on_c, 0, 71, 75
2, 5153, Note_on_c, 0, 71, 0
2, 5153, Note_on_c, 0, 73, 75
2, 5161, Note_on_c, 0, 73, 0
2, 5161, Note_on_c, 0, 71, 75
2, 5169, Note_on_c, 0, 71, 0
2, 5169, Note_on_c, 0, 69, 75
2, 5177, Note_on_c, 0, 69, 0
2, 5177, Note_on_c, 0, 71, 75
2, 5185, Note_on_c, 0, 71, 0
2, 5185, Note_on_c, 0, 69, 75
2, 5192, Note_on_c, 0, 69, 0
2, 5201, Note_on_c, 0, 81, 75
2, 5216, Note_on_c, 0, 81, 0
2, 5217, Note_on_c, 0, 79, 75
2, 5232, Note_on_c, 0, 79, 0
2, 5233, Note_on_c, 0, 78, 75
2, 5248, Note_on_c, 0, 78, 0
2, 5249, Note_on_c, 0, 76, 75
2, 5264, Note_on_c, 0, 76, 0
2, 5265, Note_on_c, 0, 74, 75
2, 5280, Note_on_c, 0, 74, 0
2, 5281, Note_on_c, 0, 71, 75
2, 5288, Note_on_c, 0, 71, 0
2, 5297, Note_on_c, 0, 83, 75
2, 5312, Note_on_c, 0, 83, 0
2, 5313, Note_on_c, 0, 81, 75
2, 5328, Note_on_c, 0, 81, 0
2, 5329, Note_on_c, 0, 79, 75
2, 5344, Note_on_c, 0, 79, 0
2, 5345, Note_on_c, 0, 78, 75
2, 5360, Note_on_c, 0, 78, 0
2, 5361, Note_on_c, 0, 76, 75
2, 5376, Note_on_c, 0, 76, 0
2, 5377, Note_on_c, 0, 78, 75
2, 5392, Note_on_c, 0, 78, 0
2, 5393, Note_on_c, 0, 79, 75
2, 5408, Note_on_c, 0, 79, 0
2, 5409, Note_on_c, 0, 81, 75
2, 5424, Note_on_c, 0, 81, 0
2, 5425, Note_on_c, 0, 74, 75
2, 5440, Note_on_c, 0, 74, 0
2, 5441, Note_on_c, 0, 79, 75
2, 5456, Note_on_c, 0, 79, 0
2, 5457, Note_on_c, 0, 76, 75
2, 5472, Note_on_c, 0, 76, 0
2, 5473, Note_on_c, 0, 78, 75
2, 5483, Note_on_c, 0, 78, 0
2, 5483, Note_on_c, 0, 76, 75
2, 5493, Note_on_c, 0, 76, 0
2, 5493, Note_on_c, 0, 78, 75
2, 5503, Note_on_c, 0, 78, 0
2, 5503, Note_on_c, 0, 76, 75
2, 5513, Note_on_c, 0, 76, 0
2, 5513, Note_on_c, 0, 78, 75
2, 5523, Note_on_c, 0, 78, 0
2, 5523, Note_on_c, 0, 76, 75
2, 5533, Note_on_c, 0, 76, 0
2, 5533, Note_on_c, 0, 78, 75
2, 5542, Note_on_c, 0, 78, 0
2, 5542, Note_on_c, 0, 76, 75
2, 5551, Note_on_c, 0, 76, 0
2, 5551, Note_on_c, 0, 74, 75
2, 5560, Note_on_c, 0, 74, 0
2, 5560, Note_on_c, 0, 76, 75
2, 5569, Note_on_c, 0, 76, 0
2, 5569, Note_on_c, 0, 74, 75
2, 5658, Note_on_c, 0, 74, 0
2, 5665, Note_on_c, 0, 81, 70
2, 5732, Note_on_c, 0, 81, 0
2, 5737, Note_on_c, 0, 79, 70
2, 5745, Note_on_c, 0, 79, 0
2, 5745, Note_on_c, 0, 77, 70
2, 5753, Note_on_c, 0, 77, 0
2, 5753, Note_on_c, 0, 76, 70
2, 5761, Note_on_c, 0, 76, 0
2, 5761, Note_on_c, 0, 79, 70
2, 5769, Note_on_c, 0, 79, 0
2, 5769, Note_on_c, 0, 77, 70
2, 5777, Note_on_c, 0, 77, 0
2, 5777, Note_on_c, 0, 79, 70
2, 5785, Note_on_c, 0, 79, 0
2, 5785, Note_on_c, 0, 77, 70
2, 5793, Note_on_c, 0, 77, 0
2, 5793, Note_on_c, 0, 76, 70
2, 5801, Note_on_c, 0, 76, 0
2, 5801, Note_on_c, 0, 77, 70
2, 5809, Note_on_c, 0, 77, 0
2, 5809, Note_on_c, 0, 76, 70
2, 5854, Note_on_c, 0, 76, 0
2, 5857, Note_on_c, 0, 81, 66
2, 5924, Note_on_c, 0, 81, 0
2, 5929, Note_on_c, 0, 79, 66
2, 5937, Note_on_c, 0, 79, 0
2, 5937, Note_on_c, 0, 77, 66
2, 5945, Note_on_c, 0, 77, 0
2, 5945, Note_on_c, 0, 76, 66
2, 5953, Note_on_c, 0, 76, 0
2, 5953, Note_on_c, 0, 79, 66
2, 5961, Note_on_c, 0, 79, 0
2, 5961, Note_on_c, 0, 77, 66
2, 5969, Note_on_c, 0, 77, 0
2, 5969, Note_on_c, 0, 79, 66
2, 5977, Note_on_c, 0, 79, 0
2, 5977, Note_on_c, 0, 77, 66
2, 5985, Note_on_c, 0, 77, 0
2, 5985, Note_on_c, 0, 76, 66
2, 5993, Note_on_c, 0, 76, 0
2, 5993, Note_on_c, 0, 77, 66
2, 6001, Note_on_c, 0, 77, 0
2, 6001, Note_on_c, 0, 76, 66
2, 6046, Note_on_c, 0, 76, 0
2, 6049, Note_on_c, 0, 81, 70
2, 6116, Note_on_c, 0, 81, 0
2, 6121, Note_on_c, 0, 79, 70
2, 6129, Note_on_c, 0, 79, 0
2, 6129, Note_on_c, 0, 77, 70
2, 6137, Note_on_c, 0, 77, 0
2, 6137, Note_on_c, 0, 76, 70
2, 6145, Note_on_c, 0, 76, 0
2, 6145, Note_on_c, 0, 77, 70
2, 6190, Note_on_c, 0, 77, 0
2, 6193, Note_on_c, 0, 74, 70
2, 6227, Note_on_c, 0, 74, 0
2, 6229, Note_on_c, 0, 76, 70
2, 6241, Note_on_c, 0, 76, 0
2, 6241, Note_on_c, 0, 77, 71
2, 6275, Note_on_c, 0, 77, 0
2, 6277, Note_on_c, 0, 76, 72
2, 6289, Note_on_c, 0, 76, 0
2, 6289, Note_on_c, 0, 77, 72
2, 6323, Note_on_c, 0, 77, 0
2, 6325, Note_on_c, 0, 79, 73
2, 6337, Note_on_c, 0, 79, 0
2, 6337, Note_on_c, 0, 81, 73
2, 6382, Note_on_c, 0, 81, 0
2, 6421, Note_on_c, 0, 74, 75
2, 6433, Note_on_c, 0, 74, 0
2, 6433, Note_on_c, 0, 69, 75
2, 6478, Note_on_c, 0, 69, 0
2, 6481, Note_on_c, 0, 73, 75
2, 6489, Note_on_c, 0, 73, 0
2, 6489, Note_on_c, 0, 71, 75
2, 6497, Note_on_c, 0, 71, 0
2, 6497, Note_on_c, 0, 73, 75
2, 6505, Note_on_c, 0, 73, 0
2, 6505, Note_on_c, 0, 71, 75
2, 6513, Note_on_c, 0, 71, 0
2, 6513, Note_on_c, 0, 69, 75
2, 6521, Note_on_c, 0, 69, 0
2, 6521, Note_on_c, 0, 71, 75
2, 6529, Note_on_c, 0, 71, 0
2, 6529, Note_on_c, 0, 69, 75
2, 6536, Note_on_c, 0, 69, 0
2, 6545, Note_on_c, 0, 81, 75
2, 6560, Note_on_c, 0, 81, 0
2, 6561, Note_on_c, 0, 79, 75
2, 6576, Note_on_c, 0, 79, 0
2, 6577, Note_on_c, 0, 78, 75
2, 6592, Note_on_c, 0, 78, 0
2, 6593, Note_on_c, 0, 76, 75
2, 6608, Note_on_c, 0, 76, 0
2, 6609, Note_on_c, 0, 74, 75
2, 6624, Note_on_c, 0, 74, 0
2, 6625, Note_on_c, 0, 69, 75
2, 6670, Note_on_c, 0, 69, 0
2, 6673, Note_on_c, 0, 73, 75
2, 6681, Note_on_c, 0, 73, 0
2, 6681, Note_on_c, 0, 71, 75
2, 6689, Note_on_c, 0, 71, 0
2, 6689, Note_on_c, 0, 73, 75
2, 6697, Note_on_c, 0, 73, 0
2, 6697, Note_on_c, 0, 71, 75
2, 6705, Note_on_c, 0, 71, 0
2, 6705, Note_on_c, 0, 69, 75
2, 6713, Note_on_c, 0, 69, 0
2, 6713, Note_on_c, 0, 71, 75
2, 6721, Note_on_c, 0, 71, 0
2, 6721, Note_on_c, 0, 69, 75
2, 6728, Note_on_c, 0, 69, 0
2, 6737, Note_on_c, 0, 81, 75
2, 6752, Note_on_c, 0, 81, 0
2, 6753, Note_on_c, 0, 79, 75
2, 6768, Note_on_c, 0, 79, 0
2, 6769, Note_on_c, 0, 78, 75
2, 6784, Note_on_c, 0, 78, 0
2, 6785, Note_on_c, 0, 76, 75
2, 6800, Note_on_c, 0, 76, 0
2, 6801, Note_on_c, 0, 74, 75
2, 6816, Note_on_c, 0, 74, 0
2, 6817, Note_on_c, 0, 71, 75
2, 6824, Note_on_c, 0, 71, 0
2, 6833, Note_on_c, 0, 83, 75
2, 6848, Note_on_c, 0, 83, 0
2, 6849, Note_on_c, 0, 81, 75
2, 6864, Note_on_c, 0, 81, 0
2, 6865, Note_on_c, 0, 79, 75
2, 6880, Note_on_c, 0, 79, 0
2, 6881, Note_on_c, 0, 78, 75
2, 6896, Note_on_c, 0, 78, 0
2, 6897, Note_on_c, 0, 76, 75
2, 6912, Note_on_c, 0, 76, 0
2, 6913, Note_on_c, 0, 78, 75
2, 6928, Note_on_c, 0, 78, 0
2, 6929, Note_on_c, 0, 81, 75
2, 6944, Note_on_c, 0, 81, 0
2, 6945, Note_on_c, 0, 86, 75
2, 6960, Note_on_c, 0, 86, 0
2, 6961, Note_on_c, 0, 74, 75
2, 6976, Note_on_c, 0, 74, 0
2, 6977, Note_on_c, 0, 79, 75
2, 6992, Note_on_c, 0, 79, 0
2, 6993, Note_on_c, 0, 76, 75
2, 7008, Note_on_c, 0, 76, 0
2, 7009, Note_on_c, 0, 78, 75
2, 7019, Note_on_c, 0, 78, 0
2, 7019, Note_on_c, 0, 76, 75
2, 7029, Note_on_c, 0, 76, 0
2, 7029, Note_on_c, 0, 78, 75
2, 7039, Note_on_c, 0, 78, 0
2, 7039, Note_on_c, 0, 76, 75
2, 7049, Note_on_c, 0, 76, 0
2, 7049, Note_on_c, 0, 78, 75
2, 7059, Note_on_c, 0, 78, 0
2, 7059, Note_on_c, 0, 76, 75
2, 7069, Note_on_c, 0, 76, 0
2, 7069, Note_on_c, 0, 78, 75
2, 7078, Note_on_c, 0, 78, 0
2, 7078, Note_on_c, 0, 76, 75
2, 7087, Note_on_c, 0, 76, 0
2, 7087, Note_on_c, 0, 74, 75
2, 7096, Note_on_c, 0, 74, 0
2, 7096, Note_on_c, 0, 76, 75
2, 7105, Note_on_c, 0, 76, 0
2, 7105, Note_on_c, 0, 74, 75
2, 7194, Note_on_c, 0, 74, 0
2, 7249, Note_on_c, 0, 74, 75
2, 7264, Note_on_c, 0, 74, 0
2, 7265, Note_on_c, 0, 71, 75
2, 7280, Note_on_c, 0, 71, 0
2, 7281, Note_on_c, 0, 67, 75
2, 7296, Note_on_c, 0, 67, 0
2, 7297, Note_on_c, 0, 79, 75
2, 7342, Note_on_c, 0, 79, 0
2, 7345, Note_on_c, 0, 74, 75
2, 7390, Note_on_c, 0, 74, 0
2, 7393, Note_on_c, 0, 74, 75
2, 7438, Note_on_c, 0, 74, 0
2, 7441, Note_on_c, 0, 74, 75
2, 7486, Note_on_c, 0, 74, 0
2, 7489, Note_on_c, 0, 72, 75
2, 7501, Note_on_c, 0, 72, 0
2, 7501, Note_on_c, 0, 71, 75
2, 7513, Note_on_c, 0, 71, 0
2, 7513, Note_on_c, 0, 72, 75
2, 7525, Note_on_c, 0, 72, 0
2, 7525, Note_on_c, 0, 74, 75
2, 7537, Note_on_c, 0, 74, 0
2, 7537, Note_on_c, 0, 76, 75
2, 7630, Note_on_c, 0, 76, 0
2, 7633, Note_on_c, 0, 69, 75
2, 7656, Note_on_c, 0, 69, 0
2, 7657, Note_on_c, 0, 72, 75
2, 7680, Note_on_c, 0, 72, 0
2, 7681, Note_on_c, 0, 72, 75
2, 7704, Note_on_c, 0, 72, 0
2, 7705, Note_on_c, 0, 71, 75
2, 7728, Note_on_c, 0, 71, 0
2, 7729, Note_on_c, 0, 76, 75
2, 7752, Note_on_c, 0, 76, 0
2, 7753, Note_on_c, 0, 74, 75
2, 7776, Note_on_c, 0, 74, 0
2, 7777, Note_on_c, 0, 72, 75
2, 7800, Note_on_c, 0, 72, 0
2, 7801, Note_on_c, 0, 71, 75
2, 7824, Note_on_c, 0, 71, 0
2, 7825, Note_on_c, 0, 69, 75
2, 7848, Note_on_c, 0, 69, 0
2, 7849, Note_on_c, 0, 67, 75
2, 7872, Note_on_c, 0, 67, 0
2, 7873, Note_on_c, 0, 66, 75
2, 7888, Note_on_c, 0, 66, 0
2, 7889, Note_on_c, 0, 67, 75
2, 7904, Note_on_c, 0, 67, 0
2, 7905, Note_on_c, 0, 69, 75
2, 7920, Note_on_c, 0, 69, 0
2, 7921, Note_on_c, 0, 67, 75
2, 7966, Note_on_c, 0, 67, 0
2, 8017, Note_on_c, 0, 62, 75
2, 8032, Note_on_c, 0, 62, 0
2, 8033, Note_on_c, 0, 59, 75
2, 8048, Note_on_c, 0, 59, 0
2, 8049, Note_on_c, 0, 55, 75
2, 8064, Note_on_c, 0, 55, 0
2, 8065, Note_on_c, 0, 67, 75
2, 8110, Note_on_c, 0, 67, 0
2, 8113, Note_on_c, 0, 67, 75
2, 8158, Note_on_c, 0, 67, 0
2, 8161, Note_on_c, 0, 67, 75
2, 8206, Note_on_c, 0, 67, 0
2, 8209, Note_on_c, 0, 67, 75
2, 8254, Note_on_c, 0, 67, 0
2, 8257, Note_on_c, 0, 66, 75
2, 8269, Note_on_c, 0, 66, 0
2, 8269, Note_on_c, 0, 64, 75
2, 8281, Note_on_c, 0, 64, 0
2, 8281, Note_on_c, 0, 66, 75
2, 8293, Note_on_c, 0, 66, 0
2, 8293, Note_on_c, 0, 67, 75
2, 8305, Note_on_c, 0, 67, 0
2, 8305, Note_on_c, 0, 69, 75
2, 8317, Note_on_c, 0, 69, 0
2, 8317, Note_on_c, 0, 67, 75
2, 8329, Note_on_c, 0, 67, 0
2, 8329, Note_on_c, 0, 69, 75
2, 8341, Note_on_c, 0, 69, 0
2, 8341, Note_on_c, 0, 71, 75
2, 8353, Note_on_c, 0, 71, 0
2, 8353, Note_on_c, 0, 72, 75
2, 8442, Note_on_c, 0, 72, 0
2, 8449, Note_on_c, 0, 71, 75
2, 8464, Note_on_c, 0, 71, 0
2, 8465, Note_on_c, 0, 69, 75
2, 8480, Note_on_c, 0, 69, 0
2, 8481, Note_on_c, 0, 67, 76
2, 8496, Note_on_c, 0, 67, 0
2, 8497, Note_on_c, 0, 74, 76
2, 8512, Note_on_c, 0, 74, 0
2, 8513, Note_on_c, 0, 72, 77
2, 8528, Note_on_c, 0, 72, 0
2, 8529, Note_on_c, 0, 71, 77
2, 8544, Note_on_c, 0, 71, 0
2, 8545, Note_on_c, 0, 79, 78
2, 8560, Note_on_c, 0, 79, 0
2, 8561, Note_on_c, 0, 78, 78
2, 8576, Note_on_c, 0, 78, 0
2, 8577, Note_on_c, 0, 76, 79
2, 8592, Note_on_c, 0, 76, 0
2, 8593, Note_on_c, 0, 74, 79
2, 8608, Note_on_c, 0, 74, 0
2, 8609, Note_on_c, 0, 72, 80
2, 8624, Note_on_c, 0, 72, 0
2, 8625, Note_on_c, 0, 71, 80
2, 8640, Note_on_c, 0, 71, 0
2, 8641, Note_on_c, 0, 72, 81
2, 8649, Note_on_c, 0, 72, 0
2, 8649, Note_on_c, 0, 71, 80
2, 8657, Note_on_c, 0, 71, 0
2, 8657, Note_on_c, 0, 72, 80
2, 8665, Note_on_c, 0, 72, 0
2, 8665, Note_on_c, 0, 71, 80
2, 8673, Note_on_c, 0, 71, 0
2, 8673, Note_on_c, 0, 69, 80
2, 8681, Note_on_c, 0, 69, 0
2, 8681, Note_on_c, 0, 71, 79
2, 8689, Note_on_c, 0, 71, 0
2, 8689, Note_on_c, 0, 69, 79
2, 8734, Note_on_c, 0, 69, 0
2, 8785, Note_on_c, 0, 81, 75
2, 8785, Note_on_c, 0, 78, 75
2, 8819, Note_on_c, 0, 81, 0
2, 8819, Note_on_c, 0, 78, 0
2, 8821, Note_on_c, 0, 81, 75
2, 8821, Note_on_c, 0, 78, 75
2, 8833, Note_on_c, 0, 81, 0
2, 8833, Note_on_c, 0, 78, 0
2, 8833, Note_on_c, 0, 81, 75
2, 8833, Note_on_c, 0, 78, 75
2, 8867, Note_on_c, 0, 81, 0
2, 8867, Note_on_c, 0, 78, 0
2, 8869, Note_on_c, 0, 79, 75
2, 8869, Note_on_c, 0, 76, 75
2, 8881, Note_on_c, 0, 79, 0
2, 8881, Note_on_c, 0, 76, 0
2, 8881, Note_on_c, 0, 78, 75
2, 8881, Note_on_c, 0, 74, 75
2, 8915, Note_on_c, 0, 78, 0
2, 8915, Note_on_c, 0, 74, 0
2, 8917, Note_on_c, 0, 78, 75
2, 8917, Note_on_c, 0, 69, 75
2, 8929, Note_on_c, 0, 78, 0
2, 8929, Note_on_c, 0, 69, 0
2, 8929, Note_on_c, 0, 78, 75
2, 8929, Note_on_c, 0, 69, 75
2, 8963, Note_on_c, 0, 78, 0
2, 8963, Note_on_c, 0, 69, 0
2, 8965, Note_on_c, 0, 76, 75
2, 8965, Note_on_c, 0, 67, 75
2, 8977, Note_on_c, 0, 76, 0
2, 8977, Note_on_c, 0, 67, 0
2, 8977, Note_on_c, 0, 74, 75
2, 8977, Note_on_c, 0, 66, 75
2, 9011, Note_on_c, 0, 74, 0
2, 9011, Note_on_c, 0, 66, 0
2, 9013, Note_on_c, 0, 81, 75
2, 9013, Note_on_c, 0, 78, 75
2, 9025, Note_on_c, 0, 81, 0
2, 9025, Note_on_c, 0, 78, 0
2, 9025, Note_on_c, 0, 81, 75
2, 9025, Note_on_c, 0, 78, 75
2, 9059, Note_on_c, 0, 81, 0
2, 9059, Note_on_c, 0, 78, 0
2, 9061, Note_on_c, 0, 79, 75
2, 9061, Note_on_c, 0, 76, 75
2, 9073, Note_on_c, 0, 79, 0
2, 9073, Note_on_c, 0, 76, 0
2, 9073, Note_on_c, 0, 78, 75
2, 9073, Note_on_c, 0, 74, 75
2, 9107, Note_on_c, 0, 78, 0
2, 9107, Note_on_c, 0, 74, 0
2, 9109, Note_on_c, 0, 78, 75
2, 9109, Note_on_c, 0, 69, 75
2, 9121, Note_on_c, 0, 78, 0
2, 9121, Note_on_c, 0, 69, 0
2, 9121, Note_on_c, 0, 78, 75
2, 9121, Note_on_c, 0, 69, 75
2, 9155, Note_on_c, 0, 78, 0
2, 9155, Note_on_c, 0, 69, 0
2, 9157, Note_on_c, 0, 76, 75
2, 9157, Note_on_c, 0, 67, 75
2, 9169, Note_on_c, 0, 76, 0
2, 9169, Note_on_c, 0, 67, 0
2, 9169, Note_on_c, 0, 74, 75
2, 9203, Note_on_c, 0, 74, 0
2, 9205, Note_on_c, 0, 74, 75
2, 9217, Note_on_c, 0, 74, 0
2, 9217, Note_on_c, 0, 75, 75
2, 9241, Note_on_c, 0, 75, 0
2, 9241, Note_on_c, 0, 76, 73
2, 9264, Note_on_c, 0, 76, 0
2, 9265, Note_on_c, 0, 76, 72
2, 9275, Note_on_c, 0, 76, 0
2, 9289, Note_on_c, 0, 76, 71
2, 9299, Note_on_c, 0, 76, 0
2, 9313, Note_on_c, 0, 76, 70
2, 9402, Note_on_c, 0, 76, 0
2, 9409, Note_on_c, 0, 61, 72
2, 9415, Note_on_c, 0, 61, 0
2, 9415, Note_on_c, 0, 64, 72
2, 9421, Note_on_c, 0, 64, 0
2, 9421, Note_on_c, 0, 67, 72
2, 9427, Note_on_c, 0, 67, 0
2, 9427, Note_on_c, 0, 69, 72
2, 9433, Note_on_c, 0, 69, 0
2, 9433, Note_on_c, 0, 73, 72
2, 9439, Note_on_c, 0, 73, 0
2, 9439, Note_on_c, 0, 76, 72
2, 9445, Note_on_c, 0, 76, 0
2, 9445, Note_on_c, 0, 79, 72
2, 9517, Note_on_c, 0, 79, 0
2, 9517, Note_on_c, 0, 78, 75
2, 9529, Note_on_c, 0, 78, 0
2, 9529, Note_on_c, 0, 76, 75
2, 9541, Note_on_c, 0, 76, 0
2, 9541, Note_on_c, 0, 74, 75
2, 9553, Note_on_c, 0, 74, 0
2, 9553, Note_on_c, 0, 73, 75
2, 9565, Note_on_c, 0, 73, 0
2, 9565, Note_on_c, 0, 71, 75
2, 9577, Note_on_c, 0, 71, 0
2, 9577, Note_on_c, 0, 69, 75
2, 9589, Note_on_c, 0, 69, 0
2, 9589, Note_on_c, 0, 67, 75
2, 9601, Note_on_c, 0, 67, 0
2, 9601, Note_on_c, 0, 66, 75
2, 9613, Note_on_c, 0, 66, 0
2, 9613, Note_on_c, 0, 69, 75
2, 9625, Note_on_c, 0, 69, 0
2, 9625, Note_on_c, 0, 71, 75
2, 9637, Note_on_c, 0, 71, 0
2, 9637, Note_on_c, 0, 73, 75
2, 9649, Note_on_c, 0, 73, 0
2, 9649, Note_on_c, 0, 74, 75
2, 9661, Note_on_c, 0, 74, 0
2, 9661, Note_on_c, 0, 76, 75
2, 9673, Note_on_c, 0, 76, 0
2, 9673, Note_on_c, 0, 78, 75
2, 9685, Note_on_c, 0, 78, 0
2, 9685, Note_on_c, 0, 79, 75
2, 9697, Note_on_c, 0, 79, 0
2, 9697, Note_on_c, 0, 81, 75
2, 9827, Note_on_c, 0, 81, 0
2, 9829, Note_on_c, 0, 82, 78
2, 9841, Note_on_c, 0, 82, 0
2, 9841, Note_on_c, 0, 83, 78
2, 9875, Note_on_c, 0, 83, 0
2, 9877, Note_on_c, 0, 85, 79
2, 9889, Note_on_c, 0, 85, 0
2, 9889, Note_on_c, 0, 86, 80
2, 9923, Note_on_c, 0, 86, 0
2, 9925, Note_on_c, 0, 74, 81
2, 9937, Note_on_c, 0, 74, 0
2, 9937, Note_on_c, 0, 78, 81
2, 9971, Note_on_c, 0, 78, 0
2, 9973, Note_on_c, 0, 81, 81
2, 9985, Note_on_c, 0, 81, 0
2, 9985, Note_on_c, 0, 79, 81
2, 9997, Note_on_c, 0, 79, 0
2, 9997, Note_on_c, 0, 78, 81
2, 10009, Note_on_c, 0, 78, 0
2, 10009, Note_on_c, 0, 76, 81
2, 10021, Note_on_c, 0, 76, 0
2, 10021, Note_on_c, 0, 78, 81
2, 10033, Note_on_c, 0, 78, 0
2, 10033, Note_on_c, 0, 76, 81
2, 10078, Note_on_c, 0, 76, 0
2, 10081, Note_on_c, 0, 81, 81
2, 10148, Note_on_c, 0, 81, 0
2, 10153, Note_on_c, 0, 69, 75
2, 10176, Note_on_c, 0, 69, 0
2, 10177, Note_on_c, 0, 68, 75
2, 10189, Note_on_c, 0, 68, 0
2, 10189, Note_on_c, 0, 66, 75
2, 10201, Note_on_c, 0, 66, 0
2, 10201, Note_on_c, 0, 68, 75
2, 10213, Note_on_c, 0, 68, 0
2, 10213, Note_on_c, 0, 69, 75
2, 10225, Note_on_c, 0, 69, 0
2, 10225, Note_on_c, 0, 71, 75
2, 10237, Note_on_c, 0, 71, 0
2, 10237, Note_on_c, 0, 69, 75
2, 10249, Note_on_c, 0, 69, 0
2, 10249, Note_on_c, 0, 71, 75
2, 10261, Note_on_c, 0, 71, 0
2, 10261, Note_on_c, 0, 73, 75
2, 10273, Note_on_c, 0, 73, 0
2, 10273, Note_on_c, 0, 74, 75
2, 10340, Note_on_c, 0, 74, 0
2, 10345, Note_on_c, 0, 62, 75
2, 10368, Note_on_c, 0, 62, 0
2, 10369, Note_on_c, 0, 61, 75
2, 10381, Note_on_c, 0, 61, 0
2, 10381, Note_on_c, 0, 59, 75
2, 10393, Note_on_c, 0, 59, 0
2, 10393, Note_on_c, 0, 61, 75
2, 10405, Note_on_c, 0, 61, 0
2, 10405, Note_on_c, 0, 62, 75
2, 10417, Note_on_c, 0, 62, 0
2, 10417, Note_on_c, 0, 64, 75
2, 10429, Note_on_c, 0, 64, 0
2, 10429, Note_on_c, 0, 62, 75
2, 10441, Note_on_c, 0, 62, 0
2, 10441, Note_on_c, 0, 64, 75
2, 10453, Note_on_c, 0, 64, 0
2, 10453, Note_on_c, 0, 66, 75
2, 10465, Note_on_c, 0, 66, 0
2, 10465, Note_on_c, 0, 67, 75
2, 10532, Note_on_c, 0, 67, 0
2, 10537, Note_on_c, 0, 55, 75
2, 10560, Note_on_c, 0, 55, 0
2, 10561, Note_on_c, 0, 54, 75
2, 10584, Note_on_c, 0, 54, 0
2, 10585, Note_on_c, 0, 61, 91
2, 10633, Note_on_c, 0, 61, 0
2, 10633, Note_on_c, 0, 62, 75
2, 10656, Note_on_c, 0, 62, 0
2, 10657, Note_on_c, 0, 55, 75
2, 10680, Note_on_c, 0, 55, 0
2, 10681, Note_on_c, 0, 61, 91
2, 10729, Note_on_c, 0, 61, 0
2, 10729, Note_on_c, 0, 62, 75
2, 10752, Note_on_c, 0, 62, 0
2, 10753, Note_on_c, 0, 57, 75
2, 10776, Note_on_c, 0, 57, 0
2, 10777, Note_on_c, 0, 61, 91
2, 10825, Note_on_c, 0, 61, 0
2, 10825, Note_on_c, 0, 62, 75
2, 10848, Note_on_c, 0, 62, 0
2, 10849, Note_on_c, 0, 59, 75
2, 10872, Note_on_c, 0, 59, 0
2, 10873, Note_on_c, 0, 64, 75
2, 10885, Note_on_c, 0, 64, 0
2, 10885, Note_on_c, 0, 66, 75
2, 10897, Note_on_c, 0, 66, 0
2, 10897, Note_on_c, 0, 67, 75
2, 10920, Note_on_c, 0, 67, 0
2, 10921, Note_on_c, 0, 64, 75
2, 10944, Note_on_c, 0, 64, 0
2, 10945, Note_on_c, 0, 62, 75
2, 10990, Note_on_c, 0, 62, 0
2, 10993, Note_on_c, 0, 61, 75
2, 11038, Note_on_c, 0, 61, 0
2, 11041, Note_on_c, 0, 71, 91
2, 11061, Note_on_c, 0, 71, 0
2, 11061, Note_on_c, 0, 69, 75
2, 11071, Note_on_c, 0, 69, 0
2, 11071, Note_on_c, 0, 71, 75
2, 11081, Note_on_c, 0, 71, 0
2, 11081, Note_on_c, 0, 69, 75
2, 11091, Note_on_c, 0, 69, 0
2, 11091, Note_on_c, 0, 71, 75
2, 11101, Note_on_c, 0, 71, 0
2, 11101, Note_on_c, 0, 69, 75
2, 11111, Note_on_c, 0, 69, 0
2, 11111, Note_on_c, 0, 71, 75
2, 11120, Note_on_c, 0, 71, 0
2, 11120, Note_on_c, 0, 69, 75
2, 11129, Note_on_c, 0, 69, 0
2, 11129, Note_on_c, 0, 71, 75
2, 11138, Note_on_c, 0, 71, 0
2, 11138, Note_on_c, 0, 69, 75
2, 11148, Note_on_c, 0, 69, 0
2, 11148, Note_on_c, 0, 68, 75
2, 11158, Note_on_c, 0, 68, 0
2, 11158, Note_on_c, 0, 69, 75
2, 11168, Note_on_c, 0, 69, 0
2, 11168, Note_on_c, 0, 68, 75
2, 11178, Note_on_c, 0, 68, 0
2, 11178, Note_on_c, 0, 69, 75
2, 11188, Note_on_c, 0, 69, 0
2, 11188, Note_on_c, 0, 68, 75
2, 11198, Note_on_c, 0, 68, 0
2, 11198, Note_on_c, 0, 69, 75
2, 11207, Note_on_c, 0, 69, 0
2, 11207, Note_on_c, 0, 68, 75
2, 11216, Note_on_c, 0, 68, 0
2, 11216, Note_on_c, 0, 69, 75
2, 11225, Note_on_c, 0, 69, 0
2, 11225, Note_on_c, 0, 68, 75
2, 11234, Note_on_c, 0, 68, 0
2, 11234, Note_on_c, 0, 69, 75
2, 11244, Note_on_c, 0, 69, 0
2, 11244, Note_on_c, 0, 67, 75
2, 11254, Note_on_c, 0, 67, 0
2, 11254, Note_on_c, 0, 69, 75
2, 11264, Note_on_c, 0, 69, 0
2, 11264, Note_on_c, 0, 67, 75
2, 11274, Note_on_c, 0, 67, 0
2, 11274, Note_on_c, 0, 69, 75
2, 11284, Note_on_c, 0, 69, 0
2, 11284, Note_on_c, 0, 67, 75
2, 11294, Note_on_c, 0, 67, 0
2, 11294, Note_on_c, 0, 69, 75
2, 11303, Note_on_c, 0, 69, 0
2, 11303, Note_on_c, 0, 67, 75
2, 11312, Note_on_c, 0, 67, 0
2, 11312, Note_on_c, 0, 69, 75
2, 11321, Note_on_c, 0, 69, 0
2, 11321, Note_on_c, 0, 67, 75
2, 11330, Note_on_c, 0, 67, 0
2, 11330, Note_on_c, 0, 66, 75
2, 11340, Note_on_c, 0, 66, 0
2, 11340, Note_on_c, 0, 67, 75
2, 11350, Note_on_c, 0, 67, 0
2, 11350, Note_on_c, 0, 66, 75
2, 11360, Note_on_c, 0, 66, 0
2, 11360, Note_on_c, 0, 67, 75
2, 11370, Note_on_c, 0, 67, 0
2, 11370, Note_on_c, 0, 66, 75
2, 11380, Note_on_c, 0, 66, 0
2, 11380, Note_on_c, 0, 67, 75
2, 11390, Note_on_c, 0, 67, 0
2, 11390, Note_on_c, 0, 66, 75
2, 11399, Note_on_c, 0, 66, 0
2, 11399, Note_on_c, 0, 67, 75
2, 11408, Note_on_c, 0, 67, 0
2, 11408, Note_on_c, 0, 66, 75
2, 11417, Note_on_c, 0, 66, 0
2, 11417, Note_on_c, 0, 67, 75
2, 11426, Note_on_c, 0, 67, 0
2, 11426, Note_on_c, 0, 65, 75
2, 11436, Note_on_c, 0, 65, 0
2, 11436, Note_on_c, 0, 67, 75
2, 11446, Note_on_c, 0, 67, 0
2, 11446, Note_on_c, 0, 65, 75
2, 11456, Note_on_c, 0, 65, 0
2, 11456, Note_on_c, 0, 67, 75
2, 11466, Note_on_c, 0, 67, 0
2, 11466, Note_on_c, 0, 65, 75
2, 11476, Note_on_c, 0, 65, 0
2, 11476, Note_on_c, 0, 67, 75
2, 11486, Note_on_c, 0, 67, 0
2, 11486, Note_on_c, 0, 65, 75
2, 11495, Note_on_c, 0, 65, 0
2, 11495, Note_on_c, 0, 67, 75
2, 11504, Note_on_c, 0, 67, 0
2, 11504, Note_on_c, 0, 64, 75
2, 11513, Note_on_c, 0, 64, 0
2, 11513, Note_on_c, 0, 65, 75
2, 11522, Note_on_c, 0, 65, 0
2, 11522, Note_on_c, 0, 64, 75
2, 11567, Note_on_c, 0, 64, 0
2, 11570, Note_on_c, 0, 69, 75
2, 11615, Note_on_c, 0, 69, 0
2, 11618, Note_on_c, 0, 67, 75
2, 11628, Note_on_c, 0, 67, 0
2, 11628, Note_on_c, 0, 65, 75
2, 11638, Note_on_c, 0, 65, 0
2, 11638, Note_on_c, 0, 67, 75
2, 11648, Note_on_c, 0, 67, 0
2, 11648, Note_on_c, 0, 65, 75
2, 11658, Note_on_c, 0, 65, 0
2, 11658, Note_on_c, 0, 67, 75
2, 11668, Note_on_c, 0, 67, 0
2, 11668, Note_on_c, 0, 65, 75
2, 11678, Note_on_c, 0, 65, 0
2, 11678, Note_on_c, 0, 67, 75
2, 11687, Note_on_c, 0, 67, 0
2, 11687, Note_on_c, 0, 65, 75
2, 11696, Note_on_c, 0, 65, 0
2, 11696, Note_on_c, 0, 64, 75
2, 11705, Note_on_c, 0, 64, 0
2, 11705, Note_on_c, 0, 65, 75
2, 11714, Note_on_c, 0, 65, 0
2, 11714, Note_on_c, 0, 64, 75
2, 11759, Note_on_c, 0, 64, 0
2, 11798, Note_on_c, 0, 74, 75
2, 11810, Note_on_c, 0, 74, 0
2, 11810, Note_on_c, 0, 69, 75
2, 11855, Note_on_c, 0, 69, 0
2, 11858, Note_on_c, 0, 73, 75
2, 11866, Note_on_c, 0, 73, 0
2, 11866, Note_on_c, 0, 71, 75
2, 11874, Note_on_c, 0, 71, 0
2, 11874, Note_on_c, 0, 73, 75
2, 11882, Note_on_c, 0, 73, 0
2, 11882, Note_on_c, 0, 71, 75
2, 11890, Note_on_c, 0, 71, 0
2, 11890, Note_on_c, 0, 69, 75
2, 11898, Note_on_c, 0, 69, 0
2, 11898, Note_on_c, 0, 71, 75
2, 11906, Note_on_c, 0, 71, 0
2, 11906, Note_on_c, 0, 69, 75
2, 11913, Note_on_c, 0, 69, 0
2, 11922, Note_on_c, 0, 81, 75
2, 11937, Note_on_c, 0, 81, 0
2, 11938, Note_on_c, 0, 79, 75
2, 11953, Note_on_c, 0, 79, 0
2, 11954, Note_on_c, 0, 78, 75
2, 11969, Note_on_c, 0, 78, 0
2, 11970, Note_on_c, 0, 76, 75
2, 11985, Note_on_c, 0, 76, 0
2, 11986, Note_on_c, 0, 74, 75
2, 12001, Note_on_c, 0, 74, 0
2, 12002, Note_on_c, 0, 69, 75
2, 12047, Note_on_c, 0, 69, 0
2, 12050, Note_on_c, 0, 73, 75
2, 12058, Note_on_c, 0, 73, 0
2, 12058, Note_on_c, 0, 71, 75
2, 12066, Note_on_c, 0, 71, 0
2, 12066, Note_on_c, 0, 73, 75
2, 12074, Note_on_c, 0, 73, 0
2, 12074, Note_on_c, 0, 71, 75
2, 12082, Note_on_c, 0, 71, 0
2, 12082, Note_on_c, 0, 69, 75
2, 12090, Note_on_c, 0, 69, 0
2, 12090, Note_on_c, 0, 71, 75
2, 12098, Note_on_c, 0, 71, 0
2, 12098, Note_on_c, 0, 69, 75
2, 12105, Note_on_c, 0, 69, 0
2, 12114, Note_on_c, 0, 81, 75
2, 12129, Note_on_c, 0, 81, 0
2, 12130, Note_on_c, 0, 79, 75
2, 12145, Note_on_c, 0, 79, 0
2, 12146, Note_on_c, 0, 78, 75
2, 12161, Note_on_c, 0, 78, 0
2, 12162, Note_on_c, 0, 76, 75
2, 12177, Note_on_c, 0, 76, 0
2, 12178, Note_on_c, 0, 74, 75
2, 12193, Note_on_c, 0, 74, 0
2, 12194, Note_on_c, 0, 71, 75
2, 12201, Note_on_c, 0, 71, 0
2, 12210, Note_on_c, 0, 83, 75
2, 12225, Note_on_c, 0, 83, 0
2, 12226, Note_on_c, 0, 81, 75
2, 12241, Note_on_c, 0, 81, 0
2, 12242, Note_on_c, 0, 79, 75
2, 12257, Note_on_c, 0, 79, 0
2, 12258, Note_on_c, 0, 78, 75
2, 12273, Note_on_c, 0, 78, 0
2, 12274, Note_on_c, 0, 76, 75
2, 12289, Note_on_c, 0, 76, 0
2, 12290, Note_on_c, 0, 78, 75
2, 12305, Note_on_c, 0, 78, 0
2, 12306, Note_on_c, 0, 79, 75
2, 12321, Note_on_c, 0, 79, 0
2, 12322, Note_on_c, 0, 81, 75
2, 12337, Note_on_c, 0, 81, 0
2, 12338, Note_on_c, 0, 74, 75
2, 12353, Note_on_c, 0, 74, 0
2, 12354, Note_on_c, 0, 79, 75
2, 12369, Note_on_c, 0, 79, 0
2, 12370, Note_on_c, 0, 76, 75
2, 12385, Note_on_c, 0, 76, 0
2, 12386, Note_on_c, 0, 78, 75
2, 12396, Note_on_c, 0, 78, 0
2, 12396, Note_on_c, 0, 76, 75
2, 12406, Note_on_c, 0, 76, 0
2, 12406, Note_on_c, 0, 78, 75
2, 12416, Note_on_c, 0, 78, 0
2, 12416, Note_on_c, 0, 76, 75
2, 12426, Note_on_c, 0, 76, 0
2, 12426, Note_on_c, 0, 78, 75
2, 12436, Note_on_c, 0, 78, 0
2, 12436, Note_on_c, 0, 76, 75
2, 12446, Note_on_c, 0, 76, 0
2, 12446, Note_on_c, 0, 78, 75
2, 12455, Note_on_c, 0, 78, 0
2, 12455, Note_on_c, 0, 76, 75
2, 12464, Note_on_c, 0, 76, 0
2, 12464, Note_on_c, 0, 74, 75
2, 12473, Note_on_c, 0, 74, 0
2, 12473, Note_on_c, 0, 76, 75
2, 12482, Note_on_c, 0, 76, 0
2, 12482, Note_on_c, 0, 74, 75
2, 12571, Note_on_c, 0, 74, 0
2, 12578, Note_on_c, 0, 81, 70
2, 12645, Note_on_c, 0, 81, 0
2, 12650, Note_on_c, 0, 79, 70
2, 12658, Note_on_c, 0, 79, 0
2, 12658, Note_on_c, 0, 77, 70
2, 12666, Note_on_c, 0, 77, 0
2, 12666, Note_on_c, 0, 76, 70
2, 12674, Note_on_c, 0, 76, 0
2, 12674, Note_on_c, 0, 79, 70
2, 12682, Note_on_c, 0, 79, 0
2, 12682, Note_on_c, 0, 77, 70
2, 12690, Note_on_c, 0, 77, 0
2, 12690, Note_on_c, 0, 79, 70
2, 12698, Note_on_c, 0, 79, 0
2, 12698, Note_on_c, 0, 77, 70
2, 12706, Note_on_c, 0, 77, 0
2, 12706, Note_on_c, 0, 76, 70
2, 12714, Note_on_c, 0, 76, 0
2, 12714, Note_on_c, 0, 77, 70
2, 12722, Note_on_c, 0, 77, 0
2, 12722, Note_on_c, 0, 76, 70
2, 12767, Note_on_c, 0, 76, 0
2, 12770, Note_on_c, 0, 81, 66
2, 12837, Note_on_c, 0, 81, 0
2, 12842, Note_on_c, 0, 79, 66
2, 12850, Note_on_c, 0, 79, 0
2, 12850, Note_on_c, 0, 77, 66
2, 12858, Note_on_c, 0, 77, 0
2, 12858, Note_on_c, 0, 76, 66
2, 12866, Note_on_c, 0, 76, 0
2, 12866, Note_on_c, 0, 79, 66
2, 12874, Note_on_c, 0, 79, 0
2, 12874, Note_on_c, 0, 77, 66
2, 12882, Note_on_c, 0, 77, 0
2, 12882, Note_on_c, 0, 79, 66
2, 12890, Note_on_c, 0, 79, 0
2, 12890, Note_on_c, 0, 77, 66
2, 12898, Note_on_c, 0, 77, 0
2, 12898, Note_on_c, 0, 76, 66
2, 12906, Note_on_c, 0, 76, 0
2, 12906, Note_on_c, 0, 77, 66
2, 12914, Note_on_c, 0, 77, 0
2, 12914, Note_on_c, 0, 76, 66
2, 12959, Note_on_c, 0, 76, 0
2, 12962, Note_on_c, 0, 81, 70
2, 13029, Note_on_c, 0, 81, 0
2, 13034, Note_on_c, 0, 79, 70
2, 13042, Note_on_c, 0, 79, 0
2, 13042, Note_on_c, 0, 77, 70
2, 13050, Note_on_c, 0, 77, 0
2, 13050, Note_on_c, 0, 76, 70
2, 13058, Note_on_c, 0, 76, 0
2, 13058, Note_on_c, 0, 77, 70
2, 13103, Note_on_c, 0, 77, 0
2, 13106, Note_on_c, 0, 74, 70
2, 13140, Note_on_c, 0, 74, 0
2, 13142, Note_on_c, 0, 76, 70
2, 13154, Note_on_c, 0, 76, 0
2, 13154, Note_on_c, 0, 77, 71
2, 13188, Note_on_c, 0, 77, 0
2, 13190, Note_on_c, 0, 76, 72
2, 13202, Note_on_c, 0, 76, 0
2, 13202, Note_on_c, 0, 77, 72
2, 13236, Note_on_c, 0, 77, 0
2, 13238, Note_on_c, 0, 79, 73
2, 13250, Note_on_c, 0, 79, 0
2, 13250, Note_on_c, 0, 81, 73
2, 13295, Note_on_c, 0, 81, 0
2, 13334, Note_on_c, 0, 74, 75
2, 13346, Note_on_c, 0, 74, 0
2, 13346, Note_on_c, 0, 69, 75
2, 13391, Note_on_c, 0, 69, 0
2, 13394, Note_on_c, 0, 73, 75
2, 13402, Note_on_c, 0, 73, 0
2, 13402, Note_on_c, 0, 71, 75
2, 13410, Note_on_c, 0, 71, 0
2, 13410, Note_on_c, 0, 73, 75
2, 13418, Note_on_c, 0, 73, 0
2, 13418, Note_on_c, 0, 71, 75
2, 13426, Note_on_c, 0, 71, 0
2, 13426, Note_on_c, 0, 69, 75
2, 13434, Note_on_c, 0, 69, 0
2, 13434, Note_on_c, 0, 71, 75
2, 13442, Note_on_c, 0, 71, 0
2, 13442, Note_on_c, 0, 69, 75
2, 13449, Note_on_c, 0, 69, 0
2, 13458, Note_on_c, 0, 81, 75
2, 13473, Note_on_c, 0, 81, 0
2, 13474, Note_on_c, 0, 79, 75
2, 13489, Note_on_c, 0, 79, 0
2, 13490, Note_on_c, 0, 78, 75
2, 13505, Note_on_c, 0, 78, 0
2, 13506, Note_on_c, 0, 76, 75
2, 13521, Note_on_c, 0, 76, 0
2, 13522, Note_on_c, 0, 74, 75
2, 13537, Note_on_c, 0, 74, 0
2, 13538, Note_on_c, 0, 69, 75
2, 13583, Note_on_c, 0, 69, 0
2, 13586, Note_on_c, 0, 73, 75
2, 13594, Note_on_c, 0, 73, 0
2, 13594, Note_on_c, 0, 71, 75
2, 13602, Note_on_c, 0, 71, 0
2, 13602, Note_on_c, 0, 73, 75
2, 13610, Note_on_c, 0, 73, 0
2, 13610, Note_on_c, 0, 71, 75
2, 13618, Note_on_c, 0, 71, 0
2, 13618, Note_on_c, 0, 69, 75
2, 13626, Note_on_c, 0, 69, 0
2, 13626, Note_on_c, 0, 71, 75
2, 13634, Note_on_c, 0, 71, 0
2, 13634, Note_on_c, 0, 69, 75
2, 13641, Note_on_c, 0, 69, 0
2, 13650, Note_on_c, 0, 81, 75
2, 13665, Note_on_c, 0, 81, 0
2, 13666, Note_on_c, 0, 79, 75
2, 13681, Note_on_c, 0, 79, 0
2, 13682, Note_on_c, 0, 78, 75
2, 13697, Note_on_c, 0, 78, 0
2, 13698, Note_on_c, 0, 76, 75
2, 13713, Note_on_c, 0, 76, 0
2, 13714, Note_on_c, 0, 74, 75
2, 13729, Note_on_c, 0, 74, 0
2, 13730, Note_on_c, 0, 71, 75
2, 13737, Note_on_c, 0, 71, 0
2, 13746, Note_on_c, 0, 83, 75
2, 13761, Note_on_c, 0, 83, 0
2, 13762, Note_on_c, 0, 81, 75
2, 13777, Note_on_c, 0, 81, 0
2, 13778, Note_on_c, 0, 79, 75
2, 13793, Note_on_c, 0, 79, 0
2, 13794, Note_on_c, 0, 78, 75
2, 13809, Note_on_c, 0, 78, 0
2, 13810, Note_on_c, 0, 76, 75
2, 13825, Note_on_c, 0, 76, 0
2, 13826, Note_on_c, 0, 78, 75
2, 13841, Note_on_c, 0, 78, 0
2, 13842, Note_on_c, 0, 81, 75
2, 13857, Note_on_c, 0, 81, 0
2, 13858, Note_on_c, 0, 86, 75
2, 13873, Note_on_c, 0, 86, 0
2, 13874, Note_on_c, 0, 74, 75
2, 13889, Note_on_c, 0, 74, 0
2, 13890, Note_on_c, 0, 79, 75
2, 13905, Note_on_c, 0, 79, 0
2, 13906, Note_on_c, 0, 76, 75
2, 13921, Note_on_c, 0, 76, 0
2, 13922, Note_on_c, 0, 78, 75
2, 13932, Note_on_c, 0, 78, 0
2, 13932, Note_on_c, 0, 76, 75
2, 13942, Note_on_c, 0, 76, 0
2, 13942, Note_on_c, 0, 78, 75
2, 13952, Note_on_c, 0, 78, 0
2, 13952, Note_on_c, 0, 76, 75
2, 13962, Note_on_c, 0, 76, 0
2, 13962, Note_on_c, 0, 78, 75
2, 13972, Note_on_c, 0, 78, 0
2, 13972, Note_on_c, 0, 76, 75
2, 13982, Note_on_c, 0, 76, 0
2, 13982, Note_on_c, 0, 78, 75
2, 13991, Note_on_c, 0, 78, 0
2, 13991, Note_on_c, 0, 76, 75
2, 14000, Note_on_c, 0, 76, 0
2, 14000, Note_on_c, 0, 74, 75
2, 14009, Note_on_c, 0, 74, 0
2, 14009, Note_on_c, 0, 76, 75
2, 14018, Note_on_c, 0, 76, 0
2, 14018, Note_on_c, 0, 74, 75
2, 14107, Note_on_c, 0, 74, 0
2, 14162, Note_on_c, 0, 81, 75
2, 14177, Note_on_c, 0, 81, 0
2, 14178, Note_on_c, 0, 78, 75
2, 14193, Note_on_c, 0, 78, 0
2, 14194, Note_on_c, 0, 74, 75
2, 14209, Note_on_c, 0, 74, 0
2, 14210, Note_on_c, 0, 86, 75
2, 14255, Note_on_c, 0, 86, 0
2, 14258, Note_on_c, 0, 81, 75
2, 14303, Note_on_c, 0, 81, 0
2, 14306, Note_on_c, 0, 81, 75
2, 14351, Note_on_c, 0, 81, 0
2, 14354, Note_on_c, 0, 81, 75
2, 14399, Note_on_c, 0, 81, 0
2, 14402, Note_on_c, 0, 79, 75
2, 14414, Note_on_c, 0, 79, 0
2, 14414, Note_on_c, 0, 78, 75
2, 14426, Note_on_c, 0, 78, 0
2, 14426, Note_on_c, 0, 79, 75
2, 14438, Note_on_c, 0, 79, 0
2, 14438, Note_on_c, 0, 81, 75
2, 14450, Note_on_c, 0, 81, 0
2, 14450, Note_on_c, 0, 83, 75
2, 14543, Note_on_c, 0, 83, 0
2, 14546, Note_on_c, 0, 76, 75
2, 14569, Note_on_c, 0, 76, 0
2, 14570, Note_on_c, 0, 79, 75
2, 14593, Note_on_c, 0, 79, 0
2, 14594, Note_on_c, 0, 79, 75
2, 14617, Note_on_c, 0, 79, 0
2, 14618, Note_on_c, 0, 78, 75
2, 14641, Note_on_c, 0, 78, 0
2, 14642, Note_on_c, 0, 83, 76
2, 14665, Note_on_c, 0, 83, 0
2, 14666, Note_on_c, 0, 81, 77
2, 14689, Note_on_c, 0, 81, 0
2, 14690, Note_on_c, 0, 79, 78
2, 14713, Note_on_c, 0, 79, 0
2, 14714, Note_on_c, 0, 78, 78
2, 14737, Note_on_c, 0, 78, 0
2, 14738, Note_on_c, 0, 76, 79
2, 14761, Note_on_c, 0, 76, 0
2, 14762, Note_on_c, 0, 74, 80
2, 14785, Note_on_c, 0, 74, 0
2, 14786, Note_on_c, 0, 73, 81
2, 14801, Note_on_c, 0, 73, 0
2, 14802, Note_on_c, 0, 74, 80
2, 14817, Note_on_c, 0, 74, 0
2, 14818, Note_on_c, 0, 76, 80
2, 14833, Note_on_c, 0, 76, 0
2, 14834, Note_on_c, 0, 74, 79
2, 14879, Note_on_c, 0, 74, 0
2, 14930, Note_on_c, 0, 74, 76
2, 14945, Note_on_c, 0, 74, 0
2, 14946, Note_on_c, 0, 71, 76
2, 14961, Note_on_c, 0, 71, 0
2, 14962, Note_on_c, 0, 67, 76
2, 14977, Note_on_c, 0, 67, 0
2, 14978, Note_on_c, 0, 79, 75
2, 15023, Note_on_c, 0, 79, 0
2, 15026, Note_on_c, 0, 79, 76
2, 15071, Note_on_c, 0, 79, 0
2, 15074, Note_on_c, 0, 79, 77
2, 15119, Note_on_c, 0, 79, 0
2, 15122, Note_on_c, 0, 79, 79
2, 15167, Note_on_c, 0, 79, 0
2, 15170, Note_on_c, 0, 79, 80
2, 15180, Note_on_c, 0, 79, 0
2, 15180, Note_on_c, 0, 77, 80
2, 15190, Note_on_c, 0, 77, 0
2, 15190, Note_on_c, 0, 79, 80
2, 15200, Note_on_c, 0, 79, 0
2, 15200, Note_on_c, 0, 77, 80
2, 15210, Note_on_c, 0, 77, 0
2, 15210, Note_on_c, 0, 79, 81
2, 15220, Note_on_c, 0, 79, 0
2, 15220, Note_on_c, 0, 77, 80
2, 15230, Note_on_c, 0, 77, 0
2, 15230, Note_on_c, 0, 79, 80
2, 15240, Note_on_c, 0, 79, 0
2, 15240, Note_on_c, 0, 77, 80
2, 15250, Note_on_c, 0, 77, 0
2, 15250, Note_on_c, 0, 79, 80
2, 15260, Note_on_c, 0, 79, 0
2, 15260, Note_on_c, 0, 77, 79
2, 15270, Note_on_c, 0, 77, 0
2, 15270, Note_on_c, 0, 79, 79
2, 15280, Note_on_c, 0, 79, 0
2, 15280, Note_on_c, 0, 77, 79
2, 15290, Note_on_c, 0, 77, 0
2, 15290, Note_on_c, 0, 79, 79
2, 15299, Note_on_c, 0, 79, 0
2, 15299, Note_on_c, 0, 77, 79
2, 15308, Note_on_c, 0, 77, 0
2, 15308, Note_on_c, 0, 79, 78
2, 15317, Note_on_c, 0, 79, 0
2, 15317, Note_on_c, 0, 77, 78
2, 15326, Note_on_c, 0, 77, 0
2, 15326, Note_on_c, 0, 79, 78
2, 15335, Note_on_c, 0, 79, 0
2, 15335, Note_on_c, 0, 77, 78
2, 15344, Note_on_c, 0, 77, 0
2, 15344, Note_on_c, 0, 76, 78
2, 15353, Note_on_c, 0, 76, 0
2, 15353, Note_on_c, 0, 74, 77
2, 15362, Note_on_c, 0, 74, 0
2, 15362, Note_on_c, 0, 72, 75
2, 15407, Note_on_c, 0, 72, 0
2, 15434, Note_on_c, 0, 64, 75
2, 15457, Note_on_c, 0, 64, 0
2, 15482, Note_on_c, 0, 66, 75
2, 15505, Note_on_c, 0, 66, 0
2, 15530, Note_on_c, 0, 68, 75
2, 15553, Note_on_c, 0, 68, 0
2, 15554, Note_on_c, 0, 69, 75
2, 15599, Note_on_c, 0, 69, 0
2, 15602, Note_on_c, 0, 72, 75
2, 15647, Note_on_c, 0, 72, 0
2, 15650, Note_on_c, 0, 72, 75
2, 15695, Note_on_c, 0, 72, 0
2, 15698, Note_on_c, 0, 72, 75
2, 15743, Note_on_c, 0, 72, 0
2, 15746, Note_on_c, 0, 74, 75
2, 15756, Note_on_c, 0, 74, 0
2, 15756, Note_on_c, 0, 72, 75
2, 15766, Note_on_c, 0, 72, 0
2, 15766, Note_on_c, 0, 74, 75
2, 15776, Note_on_c, 0, 74, 0
2, 15776, Note_on_c, 0, 72, 75
2, 15786, Note_on_c, 0, 72, 0
2, 15786, Note_on_c, 0, 74, 75
2, 15796, Note_on_c, 0, 74, 0
2, 15796, Note_on_c, 0, 72, 75
2, 15806, Note_on_c, 0, 72, 0
2, 15806, Note_on_c, 0, 74, 75
2, 15815, Note_on_c, 0, 74, 0
2, 15815, Note_on_c, 0, 72, 75
2, 15824, Note_on_c, 0, 72, 0
2, 15824, Note_on_c, 0, 71, 75
2, 15833, Note_on_c, 0, 71, 0
2, 15833, Note_on_c, 0, 72, 75
2, 15842, Note_on_c, 0, 72, 0
2, 15842, Note_on_c, 0, 81, 75
2, 15887, Note_on_c, 0, 81, 0
2, 15890, Note_on_c, 0, 72, 75
2, 15935, Note_on_c, 0, 72, 0
2, 15938, Note_on_c, 0, 72, 75
2, 15948, Note_on_c, 0, 72, 0
2, 15948, Note_on_c, 0, 71, 75
2, 15958, Note_on_c, 0, 71, 0
2, 15958, Note_on_c, 0, 72, 75
2, 15968, Note_on_c, 0, 72, 0
2, 15968, Note_on_c, 0, 71, 75
2, 15978, Note_on_c, 0, 71, 0
2, 15978, Note_on_c, 0, 72, 75
2, 15988, Note_on_c, 0, 72, 0
2, 15988, Note_on_c, 0, 71, 75
2, 15998, Note_on_c, 0, 71, 0
2, 15998, Note_on_c, 0, 72, 75
2, 16007, Note_on_c, 0, 72, 0
2, 16007, Note_on_c, 0, 71, 75
2, 16016, Note_on_c, 0, 71, 0
2, 16016, Note_on_c, 0, 69, 75
2, 16025, Note_on_c, 0, 69, 0
2, 16025, Note_on_c, 0, 71, 75
2, 16034, Note_on_c, 0, 71, 0
2, 16034, Note_on_c, 0, 79, 75
2, 16079, Note_on_c, 0, 79, 0
2, 16082, Note_on_c, 0, 71, 75
2, 16127, Note_on_c, 0, 71, 0
2, 16130, Note_on_c, 0, 71, 75
2, 16140, Note_on_c, 0, 71, 0
2, 16140, Note_on_c, 0, 69, 75
2, 16150, Note_on_c, 0, 69, 0
2, 16150, Note_on_c, 0, 71, 75
2, 16160, Note_on_c, 0, 71, 0
2, 16160, Note_on_c, 0, 69, 75
2, 16170, Note_on_c, 0, 69, 0
2, 16170, Note_on_c, 0, 71, 75
2, 16180, Note_on_c, 0, 71, 0
2, 16180, Note_on_c, 0, 69, 75
2, 16190, Note_on_c, 0, 69, 0
2, 16190, Note_on_c, 0, 71, 75
2, 16199, Note_on_c, 0, 71, 0
2, 16199, Note_on_c, 0, 69, 75
2, 16208, Note_on_c, 0, 69, 0
2, 16208, Note_on_c, 0, 67, 75
2, 16217, Note_on_c, 0, 67, 0
2, 16217, Note_on_c, 0, 69, 75
2, 16226, Note_on_c, 0, 69, 0
2, 16226, Note_on_c, 0, 78, 75
2, 16271, Note_on_c, 0, 78, 0
2, 16274, Note_on_c, 0, 69, 75
2, 16319, Note_on_c, 0, 69, 0
2, 16322, Note_on_c, 0, 67, 75
2, 16389, Note_on_c, 0, 67, 0
2, 16394, Note_on_c, 0, 76, 70
2, 16404, Note_on_c, 0, 76, 0
2, 16418, Note_on_c, 0, 71, 70
2, 16463, Note_on_c, 0, 71, 0
2, 16466, Note_on_c, 0, 74, 70
2, 16474, Note_on_c, 0, 74, 0
2, 16474, Note_on_c, 0, 72, 70
2, 16482, Note_on_c, 0, 72, 0
2, 16482, Note_on_c, 0, 74, 70
2, 16490, Note_on_c, 0, 74, 0
2, 16490, Note_on_c, 0, 72, 70
2, 16498, Note_on_c, 0, 72, 0
2, 16498, Note_on_c, 0, 71, 70
2, 16506, Note_on_c, 0, 71, 0
2, 16506, Note_on_c, 0, 72, 70
2, 16514, Note_on_c, 0, 72, 0
2, 16514, Note_on_c, 0, 71, 70
2, 16521, Note_on_c, 0, 71, 0
2, 16530, Note_on_c, 0, 83, 70
2, 16545, Note_on_c, 0, 83, 0
2, 16546, Note_on_c, 0, 81, 70
2, 16561, Note_on_c, 0, 81, 0
2, 16562, Note_on_c, 0, 79, 70
2, 16577, Note_on_c, 0, 79, 0
2, 16578, Note_on_c, 0, 78, 70
2, 16593, Note_on_c, 0, 78, 0
2, 16594, Note_on_c, 0, 76, 70
2, 16609, Note_on_c, 0, 76, 0
2, 16610, Note_on_c, 0, 71, 66
2, 16655, Note_on_c, 0, 71, 0
2, 16658, Note_on_c, 0, 74, 66
2, 16666, Note_on_c, 0, 74, 0
2, 16666, Note_on_c, 0, 72, 66
2, 16674, Note_on_c, 0, 72, 0
2, 16674, Note_on_c, 0, 74, 66
2, 16682, Note_on_c, 0, 74, 0
2, 16682, Note_on_c, 0, 72, 66
2, 16690, Note_on_c, 0, 72, 0
2, 16690, Note_on_c, 0, 71, 66
2, 16698, Note_on_c, 0, 71, 0
2, 16698, Note_on_c, 0, 72, 66
2, 16706, Note_on_c, 0, 72, 0
2, 16706, Note_on_c, 0, 71, 66
2, 16713, Note_on_c, 0, 71, 0
2, 16722, Note_on_c, 0, 83, 66
2, 16737, Note_on_c, 0, 83, 0
2, 16738, Note_on_c, 0, 81, 66
2, 16753, Note_on_c, 0, 81, 0
2, 16754, Note_on_c, 0, 79, 66
2, 16769, Note_on_c, 0, 79, 0
2, 16770, Note_on_c, 0, 78, 66
2, 16785, Note_on_c, 0, 78, 0
2, 16786, Note_on_c, 0, 76, 66
2, 16801, Note_on_c, 0, 76, 0
2, 16802, Note_on_c, 0, 66, 66
2, 16808, Note_on_c, 0, 66, 0
2, 16808, Note_on_c, 0, 69, 66
2, 16814, Note_on_c, 0, 69, 0
2, 16814, Note_on_c, 0, 72, 66
2, 16820, Note_on_c, 0, 72, 0
2, 16820, Note_on_c, 0, 75, 66
2, 16826, Note_on_c, 0, 75, 0
2, 16826, Note_on_c, 0, 78, 66
2, 16832, Note_on_c, 0, 78, 0
2, 16832, Note_on_c, 0, 81, 66
2, 16838, Note_on_c, 0, 81, 0
2, 16838, Note_on_c, 0, 84, 66
2, 16898, Note_on_c, 0, 84, 0
2, 16898, Note_on_c, 0, 83, 75
2, 16945, Note_on_c, 0, 83, 0
2, 16946, Note_on_c, 0, 81, 75
2, 16958, Note_on_c, 0, 81, 0
2, 16958, Note_on_c, 0, 79, 75
2, 16970, Note_on_c, 0, 79, 0
2, 16970, Note_on_c, 0, 78, 75
2, 16982, Note_on_c, 0, 78, 0
2, 16982, Note_on_c, 0, 76, 75
2, 16994, Note_on_c, 0, 76, 0
2, 16994, Note_on_c, 0, 79, 75
2, 17004, Note_on_c, 0, 79, 0
2, 17004, Note_on_c, 0, 78, 75
2, 17014, Note_on_c, 0, 78, 0
2, 17014, Note_on_c, 0, 79, 75
2, 17024, Note_on_c, 0, 79, 0
2, 17024, Note_on_c, 0, 78, 75
2, 17034, Note_on_c, 0, 78, 0
2, 17034, Note_on_c, 0, 79, 75
2, 17044, Note_on_c, 0, 79, 0
2, 17044, Note_on_c, 0, 78, 75
2, 17054, Note_on_c, 0, 78, 0
2, 17054, Note_on_c, 0, 79, 75
2, 17063, Note_on_c, 0, 79, 0
2, 17063, Note_on_c, 0, 78, 75
2, 17072, Note_on_c, 0, 78, 0
2, 17072, Note_on_c, 0, 76, 75
2, 17081, Note_on_c, 0, 76, 0
2, 17081, Note_on_c, 0, 78, 75
2, 17090, Note_on_c, 0, 78, 0
2, 17090, Note_on_c, 0, 76, 75
2, 17179, Note_on_c, 0, 76, 0
2, 17282, Note_on_c, 0, 79, 70
2, 17342, Note_on_c, 0, 79, 0
2, 17342, Note_on_c, 0, 77, 70
2, 17354, Note_on_c, 0, 77, 0
2, 17354, Note_on_c, 0, 76, 70
2, 17366, Note_on_c, 0, 76, 0
2, 17366, Note_on_c, 0, 74, 70
2, 17378, Note_on_c, 0, 74, 0
2, 17378, Note_on_c, 0, 72, 70
2, 17423, Note_on_c, 0, 72, 0
2, 17474, Note_on_c, 0, 79, 66
2, 17534, Note_on_c, 0, 79, 0
2, 17534, Note_on_c, 0, 77, 66
2, 17546, Note_on_c, 0, 77, 0
2, 17546, Note_on_c, 0, 76, 66
2, 17558, Note_on_c, 0, 76, 0
2, 17558, Note_on_c, 0, 74, 66
2, 17570, Note_on_c, 0, 74, 0
2, 17570, Note_on_c, 0, 72, 66
2, 17615, Note_on_c, 0, 72, 0
2, 17666, Note_on_c, 0, 79, 62
2, 17726, Note_on_c, 0, 79, 0
2, 17726, Note_on_c, 0, 77, 62
2, 17738, Note_on_c, 0, 77, 0
2, 17738, Note_on_c, 0, 76, 62
2, 17750, Note_on_c, 0, 76, 0
2, 17750, Note_on_c, 0, 74, 62
2, 17762, Note_on_c, 0, 74, 0
2, 17762, Note_on_c, 0, 72, 62
2, 17807, Note_on_c, 0, 72, 0
2, 17810, Note_on_c, 0, 72, 62
2, 17855, Note_on_c, 0, 72, 0
2, 17858, Note_on_c, 0, 74, 70
2, 17868, Note_on_c, 0, 74, 0
2, 17868, Note_on_c, 0, 72, 70
2, 17878, Note_on_c, 0, 72, 0
2, 17878, Note_on_c, 0, 74, 70
2, 17888, Note_on_c, 0, 74, 0
2, 17888, Note_on_c, 0, 72, 70
2, 17898, Note_on_c, 0, 72, 0
2, 17898, Note_on_c, 0, 74, 71
2, 17908, Note_on_c, 0, 74, 0
2, 17908, Note_on_c, 0, 72, 71
2, 17918, Note_on_c, 0, 72, 0
2, 17918, Note_on_c, 0, 74, 71
2, 17927, Note_on_c, 0, 74, 0
2, 17927, Note_on_c, 0, 72, 72
2, 17936, Note_on_c, 0, 72, 0
2, 17936, Note_on_c, 0, 71, 72
2, 17945, Note_on_c, 0, 71, 0
2, 17945, Note_on_c, 0, 72, 72
2, 17954, Note_on_c, 0, 72, 0
2, 17954, Note_on_c, 0, 81, 75
2, 17999, Note_on_c, 0, 81, 0
2, 18002, Note_on_c, 0, 72, 75
2, 18047, Note_on_c, 0, 72, 0
2, 18050, Note_on_c, 0, 72, 75
2, 18060, Note_on_c, 0, 72, 0
2, 18060, Note_on_c, 0, 71, 75
2, 18070, Note_on_c, 0, 71, 0
2, 18070, Note_on_c, 0, 72, 75
2, 18080, Note_on_c, 0, 72, 0
2, 18080, Note_on_c, 0, 71, 75
2, 18090, Note_on_c, 0, 71, 0
2, 18090, Note_on_c, 0, 72, 75
2, 18100, Note_on_c, 0, 72, 0
2, 18100, Note_on_c, 0, 71, 75
2, 18110, Note_on_c, 0, 71, 0
2, 18110, Note_on_c, 0, 72, 75
2, 18119, Note_on_c, 0, 72, 0
2, 18119, Note_on_c, 0, 71, 75
2, 18128, Note_on_c, 0, 71, 0
2, 18128, Note_on_c, 0, 69, 75
2, 18137, Note_on_c, 0, 69, 0
2, 18137, Note_on_c, 0, 71, 75
2, 18146, Note_on_c, 0, 71, 0
2, 18146, Note_on_c, 0, 79, 75
2, 18191, Note_on_c, 0, 79, 0
2, 18194, Note_on_c, 0, 71, 75
2, 18239, Note_on_c, 0, 71, 0
2, 18242, Note_on_c, 0, 74, 75
2, 18252, Note_on_c, 0, 74, 0
2, 18252, Note_on_c, 0, 72, 75
2, 18262, Note_on_c, 0, 72, 0
2, 18262, Note_on_c, 0, 74, 75
2, 18272, Note_on_c, 0, 74, 0
2, 18272, Note_on_c, 0, 72, 75
2, 18282, Note_on_c, 0, 72, 0
2, 18282, Note_on_c, 0, 74, 75
2, 18292, Note_on_c, 0, 74, 0
2, 18292, Note_on_c, 0, 72, 75
2, 18302, Note_on_c, 0, 72, 0
2, 18302, Note_on_c, 0, 74, 75
2, 18311, Note_on_c, 0, 74, 0
2, 18311, Note_on_c, 0, 72, 75
2, 18320, Note_on_c, 0, 72, 0
2, 18320, Note_on_c, 0, 71, 75
2, 18329, Note_on_c, 0, 71, 0
2, 18329, Note_on_c, 0, 72, 75
2, 18338, Note_on_c, 0, 72, 0
2, 18338, Note_on_c, 0, 81, 75
2, 18353, Note_on_c, 0, 81, 0
2, 18354, Note_on_c, 0, 79, 75
2, 18369, Note_on_c, 0, 79, 0
2, 18370, Note_on_c, 0, 78, 75
2, 18385, Note_on_c, 0, 78, 0
2, 18386, Note_on_c, 0, 76, 75
2, 18401, Note_on_c, 0, 76, 0
2, 18402, Note_on_c, 0, 74, 75
2, 18417, Note_on_c, 0, 74, 0
2, 18418, Note_on_c, 0, 72, 75
2, 18433, Note_on_c, 0, 72, 0
2, 18434, Note_on_c, 0, 72, 75
2, 18444, Note_on_c, 0, 72, 0
2, 18444, Note_on_c, 0, 71, 75
2, 18454, Note_on_c, 0, 71, 0
2, 18454, Note_on_c, 0, 72, 75
2, 18464, Note_on_c, 0, 72, 0
2, 18464, Note_on_c, 0, 71, 75
2, 18474, Note_on_c, 0, 71, 0
2, 18474, Note_on_c, 0, 72, 75
2, 18484, Note_on_c, 0, 72, 0
2, 18484, Note_on_c, 0, 71, 75
2, 18494, Note_on_c, 0, 71, 0
2, 18494, Note_on_c, 0, 72, 75
2, 18503, Note_on_c, 0, 72, 0
2, 18503, Note_on_c, 0, 71, 75
2, 18512, Note_on_c, 0, 71, 0
2, 18512, Note_on_c, 0, 69, 75
2, 18521, Note_on_c, 0, 69, 0
2, 18521, Note_on_c, 0, 71, 75
2, 18530, Note_on_c, 0, 71, 0
2, 18530, Note_on_c, 0, 79, 75
2, 18545, Note_on_c, 0, 79, 0
2, 18546, Note_on_c, 0, 78, 75
2, 18561, Note_on_c, 0, 78, 0
2, 18562, Note_on_c, 0, 76, 75
2, 18577, Note_on_c, 0, 76, 0
2, 18578, Note_on_c, 0, 74, 75
2, 18593, Note_on_c, 0, 74, 0
2, 18594, Note_on_c, 0, 72, 75
2, 18609, Note_on_c, 0, 72, 0
2, 18610, Note_on_c, 0, 71, 75
2, 18625, Note_on_c, 0, 71, 0
2, 18626, Note_on_c, 0, 72, 75
2, 18634, Note_on_c, 0, 72, 0
2, 18634, Note_on_c, 0, 71, 75
2, 18642, Note_on_c, 0, 71, 0
2, 18642, Note_on_c, 0, 72, 75
2, 18650, Note_on_c, 0, 72, 0
2, 18650, Note_on_c, 0, 71, 75
2, 18658, Note_on_c, 0, 71, 0
2, 18658, Note_on_c, 0, 69, 75
2, 18666, Note_on_c, 0, 69, 0
2, 18666, Note_on_c, 0, 71, 75
2, 18674, Note_on_c, 0, 71, 0
2, 18674, Note_on_c, 0, 69, 75
2, 18719, Note_on_c, 0, 69, 0
2, 18770, Note_on_c, 0, 86, 75
2, 18770, Note_on_c, 0, 83, 75
2, 18804, Note_on_c, 0, 86, 0
2, 18804, Note_on_c, 0, 83, 0
2, 18806, Note_on_c, 0, 86, 75
2, 18806, Note_on_c, 0, 83, 75
2, 18818, Note_on_c, 0, 86, 0
2, 18818, Note_on_c, 0, 83, 0
2, 18818, Note_on_c, 0, 86, 75
2, 18818, Note_on_c, 0, 83, 75
2, 18852, Note_on_c, 0, 86, 0
2, 18852, Note_on_c, 0, 83, 0
2, 18854, Note_on_c, 0, 84, 75
2, 18854, Note_on_c, 0, 81, 75
2, 18866, Note_on_c, 0, 84, 0
2, 18866, Note_on_c, 0, 81, 0
2, 18866, Note_on_c, 0, 83, 75
2, 18866, Note_on_c, 0, 79, 75
2, 18900, Note_on_c, 0, 83, 0
2, 18900, Note_on_c, 0, 79, 0
2, 18902, Note_on_c, 0, 83, 75
2, 18902, Note_on_c, 0, 62, 75
2, 18914, Note_on_c, 0, 83, 0
2, 18914, Note_on_c, 0, 62, 0
2, 18914, Note_on_c, 0, 83, 75
2, 18914, Note_on_c, 0, 62, 75
2, 18948, Note_on_c, 0, 83, 0
2, 18948, Note_on_c, 0, 62, 0
2, 18950, Note_on_c, 0, 81, 75
2, 18950, Note_on_c, 0, 60, 75
2, 18962, Note_on_c, 0, 81, 0
2, 18962, Note_on_c, 0, 60, 0
2, 18962, Note_on_c, 0, 79, 75
2, 18962, Note_on_c, 0, 59, 75
2, 18996, Note_on_c, 0, 79, 0
2, 18996, Note_on_c, 0, 59, 0
2, 18998, Note_on_c, 0, 86, 75
2, 18998, Note_on_c, 0, 83, 75
2, 19010, Note_on_c, 0, 86, 0
2, 19010, Note_on_c, 0, 83, 0
2, 19010, Note_on_c, 0, 86, 75
2, 19010, Note_on_c, 0, 83, 75
2, 19044, Note_on_c, 0, 86, 0
2, 19044, Note_on_c, 0, 83, 0
2, 19046, Note_on_c, 0, 84, 75
2, 19046, Note_on_c, 0, 81, 75
2, 19058, Note_on_c, 0, 84, 0
2, 19058, Note_on_c, 0, 81, 0
2, 19058, Note_on_c, 0, 83, 75
2, 19058, Note_on_c, 0, 79, 75
2, 19092, Note_on_c, 0, 83, 0
2, 19092, Note_on_c, 0, 79, 0
2, 19094, Note_on_c, 0, 83, 75
2, 19094, Note_on_c, 0, 62, 75
2, 19106, Note_on_c, 0, 83, 0
2, 19106, Note_on_c, 0, 62, 0
2, 19106, Note_on_c, 0, 83, 75
2, 19106, Note_on_c, 0, 62, 75
2, 19140, Note_on_c, 0, 83, 0
2, 19140, Note_on_c, 0, 62, 0
2, 19142, Note_on_c, 0, 81, 75
2, 19142, Note_on_c, 0, 60, 75
2, 19154, Note_on_c, 0, 81, 0
2, 19154, Note_on_c, 0, 60, 0
2, 19154, Note_on_c, 0, 79, 75
2, 19154, Note_on_c, 0, 59, 75
2, 19188, Note_on_c, 0, 79, 0
2, 19188, Note_on_c, 0, 59, 0
2, 19190, Note_on_c, 0, 79, 75
2, 19202, Note_on_c, 0, 79, 0
2, 19202, Note_on_c, 0, 80, 75
2, 19226, Note_on_c, 0, 80, 0
2, 19226, Note_on_c, 0, 81, 73
2, 19249, Note_on_c, 0, 81, 0
2, 19250, Note_on_c, 0, 81, 72
2, 19273, Note_on_c, 0, 81, 0
2, 19274, Note_on_c, 0, 81, 71
2, 19297, Note_on_c, 0, 81, 0
2, 19298, Note_on_c, 0, 81, 70
2, 19387, Note_on_c, 0, 81, 0
2, 19394, Note_on_c, 0, 66, 72
2, 19400, Note_on_c, 0, 66, 0
2, 19400, Note_on_c, 0, 69, 72
2, 19406, Note_on_c, 0, 69, 0
2, 19406, Note_on_c, 0, 72, 72
2, 19412, Note_on_c, 0, 72, 0
2, 19412, Note_on_c, 0, 74, 72
2, 19418, Note_on_c, 0, 74, 0
2, 19418, Note_on_c, 0, 78, 72
2, 19424, Note_on_c, 0, 78, 0
2, 19424, Note_on_c, 0, 81, 72
2, 19430, Note_on_c, 0, 81, 0
2, 19430, Note_on_c, 0, 84, 72
2, 19502, Note_on_c, 0, 84, 0
2, 19502, Note_on_c, 0, 83, 75
2, 19514, Note_on_c, 0, 83, 0
2, 19514, Note_on_c, 0, 81, 75
2, 19526, Note_on_c, 0, 81, 0
2, 19526, Note_on_c, 0, 79, 75
2, 19538, Note_on_c, 0, 79, 0
2, 19538, Note_on_c, 0, 78, 75
2, 19550, Note_on_c, 0, 78, 0
2, 19550, Note_on_c, 0, 76, 75
2, 19562, Note_on_c, 0, 76, 0
2, 19562, Note_on_c, 0, 74, 75
2, 19574, Note_on_c, 0, 74, 0
2, 19574, Note_on_c, 0, 72, 75
2, 19586, Note_on_c, 0, 72, 0
2, 19586, Note_on_c, 0, 71, 75
2, 19598, Note_on_c, 0, 71, 0
2, 19598, Note_on_c, 0, 74, 75
2, 19610, Note_on_c, 0, 74, 0
2, 19610, Note_on_c, 0, 76, 75
2, 19622, Note_on_c, 0, 76, 0
2, 19622, Note_on_c, 0, 78, 75
2, 19634, Note_on_c, 0, 78, 0
2, 19634, Note_on_c, 0, 79, 75
2, 19646, Note_on_c, 0, 79, 0
2, 19646, Note_on_c, 0, 81, 75
2, 19658, Note_on_c, 0, 81, 0
2, 19658, Note_on_c, 0, 83, 75
2, 19670, Note_on_c, 0, 83, 0
2, 19670, Note_on_c, 0, 84, 75
2, 19682, Note_on_c, 0, 84, 0
2, 19682, Note_on_c, 0, 86, 75
2, 19705, Note_on_c, 0, 86, 0
2, 19706, Note_on_c, 0, 74, 75
2, 19729, Note_on_c, 0, 74, 0
2, 19730, Note_on_c, 0, 74, 75
2, 19754, Note_on_c, 0, 74, 0
2, 19754, Note_on_c, 0, 75, 75
2, 19777, Note_on_c, 0, 75, 0
2, 19778, Note_on_c, 0, 76, 75
2, 19801, Note_on_c, 0, 76, 0
2, 19802, Note_on_c, 0, 78, 75
2, 19814, Note_on_c, 0, 78, 0
2, 19814, Note_on_c, 0, 80, 75
2, 19826, Note_on_c, 0, 80, 0
2, 19826, Note_on_c, 0, 81, 75
2, 19838, Note_on_c, 0, 81, 0
2, 19838, Note_on_c, 0, 80, 75
2, 19850, Note_on_c, 0, 80, 0
2, 19850, Note_on_c, 0, 81, 75
2, 19862, Note_on_c, 0, 81, 0
2, 19862, Note_on_c, 0, 83, 76
2, 19874, Note_on_c, 0, 83, 0
2, 19874, Note_on_c, 0, 84, 76
2, 19897, Note_on_c, 0, 84, 0
2, 19898, Note_on_c, 0, 72, 76
2, 19921, Note_on_c, 0, 72, 0
2, 19922, Note_on_c, 0, 72, 76
2, 19946, Note_on_c, 0, 72, 0
2, 19946, Note_on_c, 0, 73, 76
2, 19969, Note_on_c, 0, 73, 0
2, 19970, Note_on_c, 0, 74, 76
2, 19993, Note_on_c, 0, 74, 0
2, 19994, Note_on_c, 0, 76, 76
2, 20006, Note_on_c, 0, 76, 0
2, 20006, Note_on_c, 0, 78, 76
2, 20018, Note_on_c, 0, 78, 0
2, 20018, Note_on_c, 0, 79, 77
2, 20030, Note_on_c, 0, 79, 0
2, 20030, Note_on_c, 0, 78, 77
2, 20042, Note_on_c, 0, 78, 0
2, 20042, Note_on_c, 0, 79, 77
2, 20054, Note_on_c, 0, 79, 0
2, 20054, Note_on_c, 0, 81, 77
2, 20066, Note_on_c, 0, 81, 0
2, 20066, Note_on_c, 0, 83, 77
2, 20089, Note_on_c, 0, 83, 0
2, 20090, Note_on_c, 0, 71, 77
2, 20113, Note_on_c, 0, 71, 0
2, 20114, Note_on_c, 0, 71, 77
2, 20137, Note_on_c, 0, 71, 0
2, 20138, Note_on_c, 0, 71, 77
2, 20161, Note_on_c, 0, 71, 0
2, 20162, Note_on_c, 0, 72, 78
2, 20185, Note_on_c, 0, 72, 0
2, 20186, Note_on_c, 0, 74, 78
2, 20198, Note_on_c, 0, 74, 0
2, 20198, Note_on_c, 0, 76, 78
2, 20210, Note_on_c, 0, 76, 0
2, 20210, Note_on_c, 0, 78, 78
2, 20222, Note_on_c, 0, 78, 0
2, 20222, Note_on_c, 0, 76, 78
2, 20234, Note_on_c, 0, 76, 0
2, 20234, Note_on_c, 0, 78, 78
2, 20246, Note_on_c, 0, 78, 0
2, 20246, Note_on_c, 0, 79, 78
2, 20258, Note_on_c, 0, 79, 0
2, 20258, Note_on_c, 0, 81, 78
2, 20281, Note_on_c, 0, 81, 0
2, 20282, Note_on_c, 0, 69, 78
2, 20305, Note_on_c, 0, 69, 0
2, 20306, Note_on_c, 0, 69, 78
2, 20330, Note_on_c, 0, 69, 0
2, 20330, Note_on_c, 0, 70, 79
2, 20353, Note_on_c, 0, 70, 0
2, 20354, Note_on_c, 0, 71, 79
2, 20377, Note_on_c, 0, 71, 0
2, 20378, Note_on_c, 0, 72, 79
2, 20390, Note_on_c, 0, 72, 0
2, 20390, Note_on_c, 0, 74, 79
2, 20402, Note_on_c, 0, 74, 0
2, 20402, Note_on_c, 0, 76, 79
2, 20414, Note_on_c, 0, 76, 0
2, 20414, Note_on_c, 0, 74, 79
2, 20426, Note_on_c, 0, 74, 0
2, 20426, Note_on_c, 0, 76, 79
2, 20438, Note_on_c, 0, 76, 0
2, 20438, Note_on_c, 0, 78, 79
2, 20450, Note_on_c, 0, 78, 0
2, 20450, Note_on_c, 0, 79, 79
2, 20473, Note_on_c, 0, 79, 0
2, 20474, Note_on_c, 0, 71, 80
2, 20497, Note_on_c, 0, 71, 0
2, 20498, Note_on_c, 0, 71, 80
2, 20521, Note_on_c, 0, 71, 0
2, 20522, Note_on_c, 0, 71, 80
2, 20545, Note_on_c, 0, 71, 0
2, 20546, Note_on_c, 0, 72, 80
2, 20554, Note_on_c, 0, 72, 0
2, 20554, Note_on_c, 0, 71, 80
2, 20562, Note_on_c, 0, 71, 0
2, 20562, Note_on_c, 0, 72, 80
2, 20570, Note_on_c, 0, 72, 0
2, 20570, Note_on_c, 0, 71, 80
2, 20578, Note_on_c, 0, 71, 0
2, 20578, Note_on_c, 0, 69, 80
2, 20586, Note_on_c, 0, 69, 0
2, 20586, Note_on_c, 0, 71, 80
2, 20594, Note_on_c, 0, 71, 0
2, 20594, Note_on_c, 0, 69, 80
2, 20617, Note_on_c, 0, 69, 0
2, 20618, Note_on_c, 0, 78, 81
2, 20641, Note_on_c, 0, 78, 0
2, 20642, Note_on_c, 0, 79, 81
2, 20654, Note_on_c, 0, 79, 0
2, 20654, Note_on_c, 0, 78, 81
2, 20666, Note_on_c, 0, 78, 0
2, 20666, Note_on_c, 0, 79, 81
2, 20678, Note_on_c, 0, 79, 0
2, 20678, Note_on_c, 0, 81, 81
2, 20690, Note_on_c, 0, 81, 0
2, 20690, Note_on_c, 0, 83, 81
2, 20713, Note_on_c, 0, 83, 0
2, 20714, Note_on_c, 0, 71, 81
2, 20737, Note_on_c, 0, 71, 0
2, 20738, Note_on_c, 0, 72, 81
2, 20746, Note_on_c, 0, 72, 0
2, 20746, Note_on_c, 0, 71, 81
2, 20754, Note_on_c, 0, 71, 0
2, 20754, Note_on_c, 0, 72, 81
2, 20762, Note_on_c, 0, 72, 0
2, 20762, Note_on_c, 0, 71, 81
2, 20770, Note_on_c, 0, 71, 0
2, 20770, Note_on_c, 0, 69, 81
2, 20778, Note_on_c, 0, 69, 0
2, 20778, Note_on_c, 0, 71, 81
2, 20786, Note_on_c, 0, 71, 0
2, 20786, Note_on_c, 0, 69, 81
2, 20831, Note_on_c, 0, 69, 0
2, 20834, Note_on_c, 0, 81, 75
2, 20901, Note_on_c, 0, 81, 0
2, 20906, Note_on_c, 0, 72, 75
2, 20929, Note_on_c, 0, 72, 0
2, 20930, Note_on_c, 0, 71, 75
2, 20942, Note_on_c, 0, 71, 0
2, 20942, Note_on_c, 0, 69, 75
2, 20954, Note_on_c, 0, 69, 0
2, 20954, Note_on_c, 0, 71, 75
2, 20966, Note_on_c, 0, 71, 0
2, 20966, Note_on_c, 0, 72, 75
2, 20978, Note_on_c, 0, 72, 0
2, 20978, Note_on_c, 0, 74, 75
2, 20990, Note_on_c, 0, 74, 0
2, 20990, Note_on_c, 0, 72, 75
2, 21002, Note_on_c, 0, 72, 0
2, 21002, Note_on_c, 0, 74, 75
2, 21014, Note_on_c, 0, 74, 0
2, 21014, Note_on_c, 0, 76, 75
2, 21026, Note_on_c, 0, 76, 0
2, 21026, Note_on_c, 0, 74, 75
2, 21093, Note_on_c, 0, 74, 0
2, 21098, Note_on_c, 0, 67, 75
2, 21121, Note_on_c, 0, 67, 0
2, 21122, Note_on_c, 0, 66, 75
2, 21134, Note_on_c, 0, 66, 0
2, 21134, Note_on_c, 0, 64, 75
2, 21146, Note_on_c, 0, 64, 0
2, 21146, Note_on_c, 0, 66, 75
2, 21158, Note_on_c, 0, 66, 0
2, 21158, Note_on_c, 0, 67, 75
2, 21170, Note_on_c, 0, 67, 0
2, 21170, Note_on_c, 0, 69, 75
2, 21182, Note_on_c, 0, 69, 0
2, 21182, Note_on_c, 0, 67, 75
2, 21194, Note_on_c, 0, 67, 0
2, 21194, Note_on_c, 0, 69, 75
2, 21206, Note_on_c, 0, 69, 0
2, 21206, Note_on_c, 0, 71, 75
2, 21218, Note_on_c, 0, 71, 0
2, 21218, Note_on_c, 0, 72, 75
2, 21285, Note_on_c, 0, 72, 0
2, 21290, Note_on_c, 0, 60, 75
2, 21313, Note_on_c, 0, 60, 0
2, 21314, Note_on_c, 0, 59, 75
2, 21326, Note_on_c, 0, 59, 0
2, 21326, Note_on_c, 0, 57, 75
2, 21338, Note_on_c, 0, 57, 0
2, 21338, Note_on_c, 0, 59, 75
2, 21350, Note_on_c, 0, 59, 0
2, 21350, Note_on_c, 0, 60, 75
2, 21362, Note_on_c, 0, 60, 0
2, 21362, Note_on_c, 0, 62, 75
2, 21374, Note_on_c, 0, 62, 0
2, 21374, Note_on_c, 0, 60, 75
2, 21386, Note_on_c, 0, 60, 0
2, 21386, Note_on_c, 0, 62, 75
2, 21398, Note_on_c, 0, 62, 0
2, 21398, Note_on_c, 0, 64, 75
2, 21410, Note_on_c, 0, 64, 0
2, 21410, Note_on_c, 0, 62, 75
2, 21477, Note_on_c, 0, 62, 0
2, 21482, Note_on_c, 0, 55, 75
2, 21505, Note_on_c, 0, 55, 0
2, 21506, Note_on_c, 0, 54, 75
2, 21518, Note_on_c, 0, 54, 0
2, 21518, Note_on_c, 0, 52, 75
2, 21530, Note_on_c, 0, 52, 0
2, 21530, Note_on_c, 0, 54, 75
2, 21542, Note_on_c, 0, 54, 0
2, 21542, Note_on_c, 0, 55, 75
2, 21554, Note_on_c, 0, 55, 0
2, 21554, Note_on_c, 0, 57, 75
2, 21566, Note_on_c, 0, 57, 0
2, 21566, Note_on_c, 0, 55, 75
2, 21578, Note_on_c, 0, 55, 0
2, 21578, Note_on_c, 0, 57, 75
2, 21590, Note_on_c, 0, 57, 0
2, 21590, Note_on_c, 0, 59, 75
2, 21602, Note_on_c, 0, 59, 0
2, 21602, Note_on_c, 0, 60, 75
2, 21669, Note_on_c, 0, 60, 0
2, 21674, Note_on_c, 0, 60, 75
2, 21697, Note_on_c, 0, 60, 0
2, 21698, Note_on_c, 0, 59, 75
2, 21721, Note_on_c, 0, 59, 0
2, 21722, Note_on_c, 0, 66, 91
2, 21770, Note_on_c, 0, 66, 0
2, 21770, Note_on_c, 0, 67, 75
2, 21793, Note_on_c, 0, 67, 0
2, 21794, Note_on_c, 0, 60, 75
2, 21817, Note_on_c, 0, 60, 0
2, 21818, Note_on_c, 0, 66, 91
2, 21866, Note_on_c, 0, 66, 0
2, 21866, Note_on_c, 0, 67, 75
2, 21889, Note_on_c, 0, 67, 0
2, 21890, Note_on_c, 0, 62, 75
2, 21913, Note_on_c, 0, 62, 0
2, 21914, Note_on_c, 0, 66, 75
2, 21959, Note_on_c, 0, 66, 0
2, 21962, Note_on_c, 0, 67, 75
2, 21985, Note_on_c, 0, 67, 0
2, 21986, Note_on_c, 0, 64, 75
2, 22009, Note_on_c, 0, 64, 0
2, 22010, Note_on_c, 0, 69, 75
2, 22022, Note_on_c, 0, 69, 0
2, 22022, Note_on_c, 0, 71, 75
2, 22034, Note_on_c, 0, 71, 0
2, 22034, Note_on_c, 0, 74, 75
2, 22046, Note_on_c, 0, 74, 0
2, 22046, Note_on_c, 0, 72, 75
2, 22058, Note_on_c, 0, 72, 0
2, 22058, Note_on_c, 0, 71, 75
2, 22070, Note_on_c, 0, 71, 0
2, 22070, Note_on_c, 0, 69, 75
2, 22082, Note_on_c, 0, 69, 0
2, 22082, Note_on_c, 0, 67, 75
2, 22127, Note_on_c, 0, 67, 0
2, 22130, Note_on_c, 0, 67, 75
2, 22138, Note_on_c, 0, 67, 0
2, 22138, Note_on_c, 0, 66, 75
2, 22146, Note_on_c, 0, 66, 0
2, 22146, Note_on_c, 0, 67, 75
2, 22154, Note_on_c, 0, 67, 0
2, 22154, Note_on_c, 0, 66, 75
2, 22162, Note_on_c, 0, 66, 0
2, 22162, Note_on_c, 0, 64, 75
2, 22170, Note_on_c, 0, 64, 0
2, 22170, Note_on_c, 0, 66, 75
2, 22178, Note_on_c, 0, 66, 0
2, 22178, Note_on_c, 0, 76, 75
2, 22198, Note_on_c, 0, 76, 0
2, 22198, Note_on_c, 0, 74, 75
2, 22208, Note_on_c, 0, 74, 0
2, 22208, Note_on_c, 0, 76, 75
2, 22218, Note_on_c, 0, 76, 0
2, 22218, Note_on_c, 0, 74, 75
2, 22228, Note_on_c, 0, 74, 0
2, 22228, Note_on_c, 0, 76, 75
2, 22238, Note_on_c, 0, 76, 0
2, 22238, Note_on_c, 0, 74, 75
2, 22247, Note_on_c, 0, 74, 0
2, 22247, Note_on_c, 0, 76, 75
2, 22256, Note_on_c, 0, 76, 0
2, 22256, Note_on_c, 0, 74, 75
2, 22265, Note_on_c, 0, 74, 0
2, 22265, Note_on_c, 0, 76, 75
2, 22274, Note_on_c, 0, 76, 0
2, 22274, Note_on_c, 0, 74, 75
2, 22284, Note_on_c, 0, 74, 0
2, 22284, Note_on_c, 0, 73, 75
2, 22294, Note_on_c, 0, 73, 0
2, 22294, Note_on_c, 0, 74, 75
2, 22304, Note_on_c, 0, 74, 0
2, 22304, Note_on_c, 0, 73, 75
2, 22314, Note_on_c, 0, 73, 0
2, 22314, Note_on_c, 0, 74, 75
2, 22324, Note_on_c, 0, 74, 0
2, 22324, Note_on_c, 0, 73, 75
2, 22334, Note_on_c, 0, 73, 0
2, 22334, Note_on_c, 0, 74, 75
2, 22343, Note_on_c, 0, 74, 0
2, 22343, Note_on_c, 0, 73, 75
2, 22352, Note_on_c, 0, 73, 0
2, 22352, Note_on_c, 0, 74, 75
2, 22361, Note_on_c, 0, 74, 0
2, 22361, Note_on_c, 0, 73, 75
2, 22370, Note_on_c, 0, 73, 0
2, 22370, Note_on_c, 0, 74, 75
2, 22380, Note_on_c, 0, 74, 0
2, 22380, Note_on_c, 0, 72, 75
2, 22390, Note_on_c, 0, 72, 0
2, 22390, Note_on_c, 0, 74, 75
2, 22400, Note_on_c, 0, 74, 0
2, 22400, Note_on_c, 0, 72, 75
2, 22410, Note_on_c, 0, 72, 0
2, 22410, Note_on_c, 0, 74, 75
2, 22420, Note_on_c, 0, 74, 0
2, 22420, Note_on_c, 0, 72, 75
2, 22430, Note_on_c, 0, 72, 0
2, 22430, Note_on_c, 0, 74, 75
2, 22439, Note_on_c, 0, 74, 0
2, 22439, Note_on_c, 0, 72, 75
2, 22448, Note_on_c, 0, 72, 0
2, 22448, Note_on_c, 0, 74, 75
2, 22457, Note_on_c, 0, 74, 0
2, 22457, Note_on_c, 0, 72, 75
2, 22466, Note_on_c, 0, 72, 0
2, 22466, Note_on_c, 0, 71, 75
2, 22476, Note_on_c, 0, 71, 0
2, 22476, Note_on_c, 0, 72, 75
2, 22486, Note_on_c, 0, 72, 0
2, 22486, Note_on_c, 0, 71, 75
2, 22496, Note_on_c, 0, 71, 0
2, 22496, Note_on_c, 0, 72, 75
2, 22506, Note_on_c, 0, 72, 0
2, 22506, Note_on_c, 0, 71, 75
2, 22516, Note_on_c, 0, 71, 0
2, 22516, Note_on_c, 0, 72, 75
2, 22526, Note_on_c, 0, 72, 0
2, 22526, Note_on_c, 0, 71, 75
2, 22535, Note_on_c, 0, 71, 0
2, 22535, Note_on_c, 0, 72, 75
2, 22544, Note_on_c, 0, 72, 0
2, 22544, Note_on_c, 0, 71, 75
2, 22553, Note_on_c, 0, 71, 0
2, 22553, Note_on_c, 0, 72, 75
2, 22562, Note_on_c, 0, 72, 0
2, 22562, Note_on_c, 0, 70, 75
2, 22572, Note_on_c, 0, 70, 0
2, 22572, Note_on_c, 0, 72, 75
2, 22582, Note_on_c, 0, 72, 0
2, 22582, Note_on_c, 0, 70, 75
2, 22592, Note_on_c, 0, 70, 0
2, 22592, Note_on_c, 0, 72, 75
2, 22602, Note_on_c, 0, 72, 0
2, 22602, Note_on_c, 0, 70, 75
2, 22612, Note_on_c, 0, 70, 0
2, 22612, Note_on_c, 0, 72, 75
2, 22622, Note_on_c, 0, 72, 0
2, 22622, Note_on_c, 0, 70, 75
2, 22631, Note_on_c, 0, 70, 0
2, 22631, Note_on_c, 0, 72, 75
2, 22640, Note_on_c, 0, 72, 0
2, 22640, Note_on_c, 0, 69, 75
2, 22649, Note_on_c, 0, 69, 0
2, 22649, Note_on_c, 0, 70, 75
2, 22658, Note_on_c, 0, 70, 0
2, 22658, Note_on_c, 0, 69, 75
2, 22703, Note_on_c, 0, 69, 0
2, 22706, Note_on_c, 0, 74, 75
2, 22751, Note_on_c, 0, 74, 0
2, 22754, Note_on_c, 0, 72, 75
2, 22764, Note_on_c, 0, 72, 0
2, 22764, Note_on_c, 0, 70, 75
2, 22774, Note_on_c, 0, 70, 0
2, 22774, Note_on_c, 0, 72, 75
2, 22784, Note_on_c, 0, 72, 0
2, 22784, Note_on_c, 0, 70, 75
2, 22794, Note_on_c, 0, 70, 0
2, 22794, Note_on_c, 0, 72, 75
2, 22804, Note_on_c, 0, 72, 0
2, 22804, Note_on_c, 0, 70, 75
2, 22814, Note_on_c, 0, 70, 0
2, 22814, Note_on_c, 0, 72, 75
2, 22823, Note_on_c, 0, 72, 0
2, 22823, Note_on_c, 0, 70, 75
2, 22832, Note_on_c, 0, 70, 0
2, 22832, Note_on_c, 0, 69, 75
2, 22841, Note_on_c, 0, 69, 0
2, 22841, Note_on_c, 0, 70, 75
2, 22850, Note_on_c, 0, 70, 0
2, 22850, Note_on_c, 0, 69, 75
2, 22895, Note_on_c, 0, 69, 0
2, 22934, Note_on_c, 0, 67, 75
2, 22939, Note_on_c, 0, 67, 0
2, 22946, Note_on_c, 0, 62, 75
2, 22991, Note_on_c, 0, 62, 0
2, 22994, Note_on_c, 0, 66, 75
2, 23002, Note_on_c, 0, 66, 0
2, 23002, Note_on_c, 0, 64, 75
2, 23010, Note_on_c, 0, 64, 0
2, 23010, Note_on_c, 0, 66, 75
2, 23018, Note_on_c, 0, 66, 0
2, 23018, Note_on_c, 0, 64, 75
2, 23026, Note_on_c, 0, 64, 0
2, 23026, Note_on_c, 0, 62, 75
2, 23034, Note_on_c, 0, 62, 0
2, 23034, Note_on_c, 0, 64, 75
2, 23042, Note_on_c, 0, 64, 0
2, 23042, Note_on_c, 0, 62, 75
2, 23057, Note_on_c, 0, 62, 0
2, 23058, Note_on_c, 0, 74, 75
2, 23073, Note_on_c, 0, 74, 0
2, 23074, Note_on_c, 0, 72, 75
2, 23089, Note_on_c, 0, 72, 0
2, 23090, Note_on_c, 0, 71, 75
2, 23105, Note_on_c, 0, 71, 0
2, 23106, Note_on_c, 0, 69, 75
2, 23121, Note_on_c, 0, 69, 0
2, 23122, Note_on_c, 0, 67, 75
2, 23137, Note_on_c, 0, 67, 0
2, 23138, Note_on_c, 0, 62, 75
2, 23158, Note_on_c, 0, 62, 0
2, 23186, Note_on_c, 0, 66, 75
2, 23194, Note_on_c, 0, 66, 0
2, 23194, Note_on_c, 0, 64, 75
2, 23202, Note_on_c, 0, 64, 0
2, 23202, Note_on_c, 0, 66, 75
2, 23210, Note_on_c, 0, 66, 0
2, 23210, Note_on_c, 0, 64, 75
2, 23218, Note_on_c, 0, 64, 0
2, 23218, Note_on_c, 0, 62, 75
2, 23226, Note_on_c, 0, 62, 0
2, 23226, Note_on_c, 0, 64, 75
2, 23234, Note_on_c, 0, 64, 0
2, 23234, Note_on_c, 0, 62, 75
2, 23241, Note_on_c, 0, 62, 0
2, 23250, Note_on_c, 0, 74, 75
2, 23265, Note_on_c, 0, 74, 0
2, 23266, Note_on_c, 0, 72, 75
2, 23281, Note_on_c, 0, 72, 0
2, 23282, Note_on_c, 0, 71, 75
2, 23297, Note_on_c, 0, 71, 0
2, 23298, Note_on_c, 0, 69, 75
2, 23313, Note_on_c, 0, 69, 0
2, 23314, Note_on_c, 0, 67, 75
2, 23329, Note_on_c, 0, 67, 0
2, 23330, Note_on_c, 0, 64, 75
2, 23345, Note_on_c, 0, 64, 0
2, 23346, Note_on_c, 0, 76, 75
2, 23361, Note_on_c, 0, 76, 0
2, 23362, Note_on_c, 0, 74, 75
2, 23377, Note_on_c, 0, 74, 0
2, 23378, Note_on_c, 0, 72, 75
2, 23393, Note_on_c, 0, 72, 0
2, 23394, Note_on_c, 0, 71, 75
2, 23409, Note_on_c, 0, 71, 0
2, 23410, Note_on_c, 0, 69, 75
2, 23425, Note_on_c, 0, 69, 0
2, 23426, Note_on_c, 0, 71, 75
2, 23441, Note_on_c, 0, 71, 0
2, 23442, Note_on_c, 0, 72, 75
2, 23457, Note_on_c, 0, 72, 0
2, 23458, Note_on_c, 0, 74, 75
2, 23473, Note_on_c, 0, 74, 0
2, 23474, Note_on_c, 0, 67, 75
2, 23489, Note_on_c, 0, 67, 0
2, 23490, Note_on_c, 0, 72, 75
2, 23505, Note_on_c, 0, 72, 0
2, 23506, Note_on_c, 0, 69, 75
2, 23521, Note_on_c, 0, 69, 0
2, 23522, Note_on_c, 0, 71, 75
2, 23532, Note_on_c, 0, 71, 0
2, 23532, Note_on_c, 0, 69, 75
2, 23542, Note_on_c, 0, 69, 0
2, 23542, Note_on_c, 0, 71, 75
2, 23552, Note_on_c, 0, 71, 0
2, 23552, Note_on_c, 0, 69, 75
2, 23562, Note_on_c, 0, 69, 0
2, 23562, Note_on_c, 0, 71, 75
2, 23572, Note_on_c, 0, 71, 0
2, 23572, Note_on_c, 0, 69, 75
2, 23582, Note_on_c, 0, 69, 0
2, 23582, Note_on_c, 0, 71, 75
2, 23591, Note_on_c, 0, 71, 0
2, 23591, Note_on_c, 0, 69, 75
2, 23600, Note_on_c, 0, 69, 0
2, 23600, Note_on_c, 0, 67, 75
2, 23609, Note_on_c, 0, 67, 0
2, 23609, Note_on_c, 0, 69, 75
2, 23618, Note_on_c, 0, 69, 0
2, 23618, Note_on_c, 0, 67, 75
2, 23707, Note_on_c, 0, 67, 0
2, 23714, Note_on_c, 0, 86, 70
2, 23781, Note_on_c, 0, 86, 0
2, 23786, Note_on_c, 0, 84, 70
2, 23794, Note_on_c, 0, 84, 0
2, 23794, Note_on_c, 0, 82, 70
2, 23802, Note_on_c, 0, 82, 0
2, 23802, Note_on_c, 0, 81, 70
2, 23810, Note_on_c, 0, 81, 0
2, 23810, Note_on_c, 0, 84, 70
2, 23818, Note_on_c, 0, 84, 0
2, 23818, Note_on_c, 0, 82, 70
2, 23826, Note_on_c, 0, 82, 0
2, 23826, Note_on_c, 0, 84, 70
2, 23834, Note_on_c, 0, 84, 0
2, 23834, Note_on_c, 0, 82, 70
2, 23842, Note_on_c, 0, 82, 0
2, 23842, Note_on_c, 0, 81, 70
2, 23850, Note_on_c, 0, 81, 0
2, 23850, Note_on_c, 0, 82, 70
2, 23858, Note_on_c, 0, 82, 0
2, 23858, Note_on_c, 0, 81, 70
2, 23903, Note_on_c, 0, 81, 0
2, 23906, Note_on_c, 0, 86, 66
2, 23973, Note_on_c, 0, 86, 0
2, 23978, Note_on_c, 0, 84, 66
2, 23986, Note_on_c, 0, 84, 0
2, 23986, Note_on_c, 0, 82, 66
2, 23994, Note_on_c, 0, 82, 0
2, 23994, Note_on_c, 0, 81, 66
2, 24002, Note_on_c, 0, 81, 0
2, 24002, Note_on_c, 0, 84, 66
2, 24010, Note_on_c, 0, 84, 0
2, 24010, Note_on_c, 0, 82, 66
2, 24018, Note_on_c, 0, 82, 0
2, 24018, Note_on_c, 0, 84, 66
2, 24026, Note_on_c, 0, 84, 0
2, 24026, Note_on_c, 0, 82, 66
2, 24034, Note_on_c, 0, 82, 0
2, 24034, Note_on_c, 0, 81, 66
2, 24042, Note_on_c, 0, 81, 0
2, 24042, Note_on_c, 0, 82, 66
2, 24050, Note_on_c, 0, 82, 0
2, 24050, Note_on_c, 0, 81, 66
2, 24095, Note_on_c, 0, 81, 0
2, 24098, Note_on_c, 0, 86, 70
2, 24165, Note_on_c, 0, 86, 0
2, 24170, Note_on_c, 0, 84, 70
2, 24178, Note_on_c, 0, 84, 0
2, 24178, Note_on_c, 0, 82, 70
2, 24186, Note_on_c, 0, 82, 0
2, 24186, Note_on_c, 0, 81, 70
2, 24194, Note_on_c, 0, 81, 0
2, 24194, Note_on_c, 0, 82, 70
2, 24239, Note_on_c, 0, 82, 0
2, 24242, Note_on_c, 0, 79, 70
2, 24276, Note_on_c, 0, 79, 0
2, 24278, Note_on_c, 0, 81, 70
2, 24290, Note_on_c, 0, 81, 0
2, 24290, Note_on_c, 0, 82, 70
2, 24324, Note_on_c, 0, 82, 0
2, 24326, Note_on_c, 0, 81, 70
2, 24338, Note_on_c, 0, 81, 0
2, 24338, Note_on_c, 0, 82, 70
2, 24372, Note_on_c, 0, 82, 0
2, 24374, Note_on_c, 0, 84, 70
2, 24386, Note_on_c, 0, 84, 0
2, 24386, Note_on_c, 0, 86, 70
2, 24431, Note_on_c, 0, 86, 0
2, 24470, Note_on_c, 0, 67, 70
2, 24475, Note_on_c, 0, 67, 0
2, 24482, Note_on_c, 0, 62, 75
2, 24527, Note_on_c, 0, 62, 0
2, 24530, Note_on_c, 0, 66, 75
2, 24538, Note_on_c, 0, 66, 0
2, 24538, Note_on_c, 0, 64, 75
2, 24546, Note_on_c, 0, 64, 0
2, 24546, Note_on_c, 0, 66, 75
2, 24554, Note_on_c, 0, 66, 0
2, 24554, Note_on_c, 0, 64, 75
2, 24562, Note_on_c, 0, 64, 0
2, 24562, Note_on_c, 0, 62, 75
2, 24570, Note_on_c, 0, 62, 0
2, 24570, Note_on_c, 0, 64, 75
2, 24578, Note_on_c, 0, 64, 0
2, 24578, Note_on_c, 0, 62, 75
2, 24593, Note_on_c, 0, 62, 0
2, 24594, Note_on_c, 0, 74, 75
2, 24609, Note_on_c, 0, 74, 0
2, 24610, Note_on_c, 0, 72, 75
2, 24625, Note_on_c, 0, 72, 0
2, 24626, Note_on_c, 0, 71, 75
2, 24641, Note_on_c, 0, 71, 0
2, 24642, Note_on_c, 0, 69, 75
2, 24657, Note_on_c, 0, 69, 0
2, 24658, Note_on_c, 0, 67, 75
2, 24673, Note_on_c, 0, 67, 0
2, 24674, Note_on_c, 0, 62, 75
2, 24694, Note_on_c, 0, 62, 0
2, 24722, Note_on_c, 0, 66, 75
2, 24730, Note_on_c, 0, 66, 0
2, 24730, Note_on_c, 0, 64, 75
2, 24738, Note_on_c, 0, 64, 0
2, 24738, Note_on_c, 0, 66, 75
2, 24746, Note_on_c, 0, 66, 0
2, 24746, Note_on_c, 0, 64, 75
2, 24754, Note_on_c, 0, 64, 0
2, 24754, Note_on_c, 0, 62, 75
2, 24762, Note_on_c, 0, 62, 0
2, 24762, Note_on_c, 0, 64, 75
2, 24770, Note_on_c, 0, 64, 0
2, 24770, Note_on_c, 0, 62, 75
2, 24777, Note_on_c, 0, 62, 0
2, 24786, Note_on_c, 0, 74, 75
2, 24801, Note_on_c, 0, 74, 0
2, 24802, Note_on_c, 0, 72, 75
2, 24817, Note_on_c, 0, 72, 0
2, 24818, Note_on_c, 0, 71, 75
2, 24833, Note_on_c, 0, 71, 0
2, 24834, Note_on_c, 0, 69, 75
2, 24849, Note_on_c, 0, 69, 0
2, 24850, Note_on_c, 0, 67, 75
2, 24865, Note_on_c, 0, 67, 0
2, 24866, Note_on_c, 0, 64, 75
2, 24881, Note_on_c, 0, 64, 0
2, 24882, Note_on_c, 0, 76, 75
2, 24897, Note_on_c, 0, 76, 0
2, 24898, Note_on_c, 0, 74, 75
2, 24913, Note_on_c, 0, 74, 0
2, 24914, Note_on_c, 0, 72, 75
2, 24929, Note_on_c, 0, 72, 0
2, 24930, Note_on_c, 0, 71, 75
2, 24945, Note_on_c, 0, 71, 0
2, 24946, Note_on_c, 0, 69, 75
2, 24961, Note_on_c, 0, 69, 0
2, 24962, Note_on_c, 0, 71, 75
2, 24977, Note_on_c, 0, 71, 0
2, 24978, Note_on_c, 0, 72, 75
2, 24993, Note_on_c, 0, 72, 0
2, 24994, Note_on_c, 0, 74, 75
2, 25009, Note_on_c, 0, 74, 0
2, 25010, Note_on_c, 0, 67, 75
2, 25025, Note_on_c, 0, 67, 0
2, 25026, Note_on_c, 0, 72, 75
2, 25041, Note_on_c, 0, 72, 0
2, 25042, Note_on_c, 0, 69, 75
2, 25057, Note_on_c, 0, 69, 0
2, 25058, Note_on_c, 0, 71, 75
2, 25068, Note_on_c, 0, 71, 0
2, 25068, Note_on_c, 0, 69, 75
2, 25078, Note_on_c, 0, 69, 0
2, 25078, Note_on_c, 0, 71, 75
2, 25088, Note_on_c, 0, 71, 0
2, 25088, Note_on_c, 0, 69, 75
2, 25098, Note_on_c, 0, 69, 0
2, 25098, Note_on_c, 0, 71, 75
2, 25108, Note_on_c, 0, 71, 0
2, 25108, Note_on_c, 0, 69, 75
2, 25118, Note_on_c, 0, 69, 0
2, 25118, Note_on_c, 0, 71, 75
2, 25127, Note_on_c, 0, 71, 0
2, 25127, Note_on_c, 0, 69, 75
2, 25136, Note_on_c, 0, 69, 0
2, 25136, Note_on_c, 0, 67, 75
2, 25145, Note_on_c, 0, 67, 0
2, 25145, Note_on_c, 0, 69, 75
2, 25154, Note_on_c, 0, 69, 0
2, 25154, Note_on_c, 0, 67, 75
2, 25243, Note_on_c, 0, 67, 0
2, 25298, Note_on_c, 0, 81, 75
2, 25313, Note_on_c, 0, 81, 0
2, 25314, Note_on_c, 0, 78, 75
2, 25329, Note_on_c, 0, 78, 0
2, 25330, Note_on_c, 0, 74, 75
2, 25345, Note_on_c, 0, 74, 0
2, 25346, Note_on_c, 0, 86, 75
2, 25391, Note_on_c, 0, 86, 0
2, 25394, Note_on_c, 0, 81, 75
2, 25439, Note_on_c, 0, 81, 0
2, 25442, Note_on_c, 0, 81, 75
2, 25487, Note_on_c, 0, 81, 0
2, 25490, Note_on_c, 0, 81, 75
2, 25535, Note_on_c, 0, 81, 0
2, 25538, Note_on_c, 0, 79, 75
2, 25550, Note_on_c, 0, 79, 0
2, 25550, Note_on_c, 0, 78, 75
2, 25562, Note_on_c, 0, 78, 0
2, 25562, Note_on_c, 0, 79, 75
2, 25574, Note_on_c, 0, 79, 0
2, 25574, Note_on_c, 0, 81, 75
2, 25586, Note_on_c, 0, 81, 0
2, 25586, Note_on_c, 0, 83, 75
2, 25679, Note_on_c, 0, 83, 0
2, 25682, Note_on_c, 0, 76, 75
2, 25705, Note_on_c, 0, 76, 0
2, 25706, Note_on_c, 0, 79, 75
2, 25729, Note_on_c, 0, 79, 0
2, 25730, Note_on_c, 0, 79, 75
2, 25753, Note_on_c, 0, 79, 0
2, 25754, Note_on_c, 0, 78, 75
2, 25777, Note_on_c, 0, 78, 0
2, 25778, Note_on_c, 0, 83, 76
2, 25801, Note_on_c, 0, 83, 0
2, 25802, Note_on_c, 0, 81, 77
2, 25825, Note_on_c, 0, 81, 0
2, 25826, Note_on_c, 0, 79, 78
2, 25849, Note_on_c, 0, 79, 0
2, 25850, Note_on_c, 0, 78, 78
2, 25873, Note_on_c, 0, 78, 0
2, 25874, Note_on_c, 0, 76, 79
2, 25897, Note_on_c, 0, 76, 0
2, 25898, Note_on_c, 0, 74, 80
2, 25921, Note_on_c, 0, 74, 0
2, 25922, Note_on_c, 0, 73, 81
2, 25937, Note_on_c, 0, 73, 0
2, 25938, Note_on_c, 0, 74, 80
2, 25953, Note_on_c, 0, 74, 0
2, 25954, Note_on_c, 0, 76, 80
2, 25969, Note_on_c, 0, 76, 0
2, 25970, Note_on_c, 0, 74, 79
2, 26015, Note_on_c, 0, 74, 0
2, 26066, Note_on_c, 0, 74, 76
2, 26081, Note_on_c, 0, 74, 0
2, 26082, Note_on_c, 0, 71, 76
2, 26097, Note_on_c, 0, 71, 0
2, 26098, Note_on_c, 0, 67, 76
2, 26113, Note_on_c, 0, 67, 0
2, 26114, Note_on_c, 0, 79, 75
2, 26159, Note_on_c, 0, 79, 0
2, 26162, Note_on_c, 0, 79, 76
2, 26207, Note_on_c, 0, 79, 0
2, 26210, Note_on_c, 0, 79, 77
2, 26255, Note_on_c, 0, 79, 0
2, 26258, Note_on_c, 0, 79, 79
2, 26303, Note_on_c, 0, 79, 0
2, 26306, Note_on_c, 0, 79, 80
2, 26316, Note_on_c, 0, 79, 0
2, 26316, Note_on_c, 0, 77, 80
2, 26326, Note_on_c, 0, 77, 0
2, 26326, Note_on_c, 0, 79, 80
2, 26336, Note_on_c, 0, 79, 0
2, 26336, Note_on_c, 0, 77, 80
2, 26346, Note_on_c, 0, 77, 0
2, 26346, Note_on_c, 0, 79, 81
2, 26356, Note_on_c, 0, 79, 0
2, 26356, Note_on_c, 0, 77, 80
2, 26366, Note_on_c, 0, 77, 0
2, 26366, Note_on_c, 0, 79, 80
2, 26376, Note_on_c, 0, 79, 0
2, 26376, Note_on_c, 0, 77, 80
2, 26386, Note_on_c, 0, 77, 0
2, 26386, Note_on_c, 0, 79, 80
2, 26396, Note_on_c, 0, 79, 0
2, 26396, Note_on_c, 0, 77, 79
2, 26406, Note_on_c, 0, 77, 0
2, 26406, Note_on_c, 0, 79, 79
2, 26416, Note_on_c, 0, 79, 0
2, 26416, Note_on_c, 0, 77, 79
2, 26426, Note_on_c, 0, 77, 0
2, 26426, Note_on_c, 0, 79, 79
2, 26435, Note_on_c, 0, 79, 0
2, 26435, Note_on_c, 0, 77, 79
2, 26444, Note_on_c, 0, 77, 0
2, 26444, Note_on_c, 0, 79, 78
2, 26453, Note_on_c, 0, 79, 0
2, 26453, Note_on_c, 0, 77, 78
2, 26462, Note_on_c, 0, 77, 0
2, 26462, Note_on_c, 0, 79, 78
2, 26471, Note_on_c, 0, 79, 0
2, 26471, Note_on_c, 0, 77, 78
2, 26480, Note_on_c, 0, 77, 0
2, 26480, Note_on_c, 0, 76, 78
2, 26489, Note_on_c, 0, 76, 0
2, 26489, Note_on_c, 0, 74, 77
2, 26498, Note_on_c, 0, 74, 0
2, 26498, Note_on_c, 0, 72, 75
2, 26543, Note_on_c, 0, 72, 0
2, 26570, Note_on_c, 0, 64, 75
2, 26593, Note_on_c, 0, 64, 0
2, 26618, Note_on_c, 0, 66, 75
2, 26641, Note_on_c, 0, 66, 0
2, 26666, Note_on_c, 0, 68, 75
2, 26689, Note_on_c, 0, 68, 0
2, 26690, Note_on_c, 0, 69, 75
2, 26735, Note_on_c, 0, 69, 0
2, 26738, Note_on_c, 0, 72, 75
2, 26783, Note_on_c, 0, 72, 0
2, 26786, Note_on_c, 0, 72, 75
2, 26831, Note_on_c, 0, 72, 0
2, 26834, Note_on_c, 0, 72, 75
2, 26879, Note_on_c, 0, 72, 0
2, 26882, Note_on_c, 0, 74, 75
2, 26892, Note_on_c, 0, 74, 0
2, 26892, Note_on_c, 0, 72, 75
2, 26902, Note_on_c, 0, 72, 0
2, 26902, Note_on_c, 0, 74, 75
2, 26912, Note_on_c, 0, 74, 0
2, 26912, Note_on_c, 0, 72, 75
2, 26922, Note_on_c, 0, 72, 0
2, 26922, Note_on_c, 0, 74, 75
2, 26932, Note_on_c, 0, 74, 0
2, 26932, Note_on_c, 0, 72, 75
2, 26942, Note_on_c, 0, 72, 0
2, 26942, Note_on_c, 0, 74, 75
2, 26951, Note_on_c, 0, 74, 0
2, 26951, Note_on_c, 0, 72, 75
2, 26960, Note_on_c, 0, 72, 0
2, 26960, Note_on_c, 0, 71, 75
2, 26969, Note_on_c, 0, 71, 0
2, 26969, Note_on_c, 0, 72, 75
2, 26978, Note_on_c, 0, 72, 0
2, 26978, Note_on_c, 0, 81, 75
2, 27023, Note_on_c, 0, 81, 0
2, 27026, Note_on_c, 0, 72, 75
2, 27071, Note_on_c, 0, 72, 0
2, 27074, Note_on_c, 0, 72, 75
2, 27084, Note_on_c, 0, 72, 0
2, 27084, Note_on_c, 0, 71, 75
2, 27094, Note_on_c, 0, 71, 0
2, 27094, Note_on_c, 0, 72, 75
2, 27104, Note_on_c, 0, 72, 0
2, 27104, Note_on_c, 0, 71, 75
2, 27114, Note_on_c, 0, 71, 0
2, 27114, Note_on_c, 0, 72, 75
2, 27124, Note_on_c, 0, 72, 0
2, 27124, Note_on_c, 0, 71, 75
2, 27134, Note_on_c, 0, 71, 0
2, 27134, Note_on_c, 0, 72, 75
2, 27143, Note_on_c, 0, 72, 0
2, 27143, Note_on_c, 0, 71, 75
2, 27152, Note_on_c, 0, 71, 0
2, 27152, Note_on_c, 0, 69, 75
2, 27161, Note_on_c, 0, 69, 0
2, 27161, Note_on_c, 0, 71, 75
2, 27170, Note_on_c, 0, 71, 0
2, 27170, Note_on_c, 0, 79, 75
2, 27215, Note_on_c, 0, 79, 0
2, 27218, Note_on_c, 0, 71, 75
2, 27263, Note_on_c, 0, 71, 0
2, 27266, Note_on_c, 0, 71, 75
2, 27276, Note_on_c, 0, 71, 0
2, 27276, Note_on_c, 0, 69, 75
2, 27286, Note_on_c, 0, 69, 0
2, 27286, Note_on_c, 0, 71, 75
2, 27296, Note_on_c, 0, 71, 0
2, 27296, Note_on_c, 0, 69, 75
2, 27306, Note_on_c, 0, 69, 0
2, 27306, Note_on_c, 0, 71, 75
2, 27316, Note_on_c, 0, 71, 0
2, 27316, Note_on_c, 0, 69, 75
2, 27326, Note_on_c, 0, 69, 0
2, 27326, Note_on_c, 0, 71, 75
2, 27335, Note_on_c, 0, 71, 0
2, 27335, Note_on_c, 0, 69, 75
2, 27344, Note_on_c, 0, 69, 0
2, 27344, Note_on_c, 0, 67, 75
2, 27353, Note_on_c, 0, 67, 0
2, 27353, Note_on_c, 0, 69, 75
2, 27362, Note_on_c, 0, 69, 0
2, 27362, Note_on_c, 0, 78, 75
2, 27407, Note_on_c, 0, 78, 0
2, 27410, Note_on_c, 0, 69, 75
2, 27455, Note_on_c, 0, 69, 0
2, 27458, Note_on_c, 0, 67, 75
2, 27525, Note_on_c, 0, 67, 0
2, 27530, Note_on_c, 0, 76, 70
2, 27540, Note_on_c, 0, 76, 0
2, 27554, Note_on_c, 0, 71, 70
2, 27599, Note_on_c, 0, 71, 0
2, 27602, Note_on_c, 0, 74, 70
2, 27610, Note_on_c, 0, 74, 0
2, 27610, Note_on_c, 0, 72, 70
2, 27618, Note_on_c, 0, 72, 0
2, 27618, Note_on_c, 0, 74, 70
2, 27626, Note_on_c, 0, 74, 0
2, 27626, Note_on_c, 0, 72, 70
2, 27634, Note_on_c, 0, 72, 0
2, 27634, Note_on_c, 0, 71, 70
2, 27642, Note_on_c, 0, 71, 0
2, 27642, Note_on_c, 0, 72, 70
2, 27650, Note_on_c, 0, 72, 0
2, 27650, Note_on_c, 0, 71, 70
2, 27657, Note_on_c, 0, 71, 0
2, 27666, Note_on_c, 0, 83, 70
2, 27681, Note_on_c, 0, 83, 0
2, 27682, Note_on_c, 0, 81, 70
2, 27697, Note_on_c, 0, 81, 0
2, 27698, Note_on_c, 0, 79, 70
2, 27713, Note_on_c, 0, 79, 0
2, 27714, Note_on_c, 0, 78, 70
2, 27729, Note_on_c, 0, 78, 0
2, 27730, Note_on_c, 0, 76, 70
2, 27745, Note_on_c, 0, 76, 0
2, 27746, Note_on_c, 0, 71, 66
2, 27791, Note_on_c, 0, 71, 0
2, 27794, Note_on_c, 0, 74, 66
2, 27802, Note_on_c, 0, 74, 0
2, 27802, Note_on_c, 0, 72, 66
2, 27810, Note_on_c, 0, 72, 0
2, 27810, Note_on_c, 0, 74, 66
2, 27818, Note_on_c, 0, 74, 0
2, 27818, Note_on_c, 0, 72, 66
2, 27826, Note_on_c, 0, 72, 0
2, 27826, Note_on_c, 0, 71, 66
2, 27834, Note_on_c, 0, 71, 0
2, 27834, Note_on_c, 0, 72, 66
2, 27842, Note_on_c, 0, 72, 0
2, 27842, Note_on_c, 0, 71, 66
2, 27849, Note_on_c, 0, 71, 0
2, 27858, Note_on_c, 0, 83, 66
2, 27873, Note_on_c, 0, 83, 0
2, 27874, Note_on_c, 0, 81, 66
2, 27889, Note_on_c, 0, 81, 0
2, 27890, Note_on_c, 0, 79, 66
2, 27905, Note_on_c, 0, 79, 0
2, 27906, Note_on_c, 0, 78, 66
2, 27921, Note_on_c, 0, 78, 0
2, 27922, Note_on_c, 0, 76, 66
2, 27937, Note_on_c, 0, 76, 0
2, 27938, Note_on_c, 0, 66, 66
2, 27944, Note_on_c, 0, 66, 0
2, 27944, Note_on_c, 0, 69, 66
2, 27950, Note_on_c, 0, 69, 0
2, 27950, Note_on_c, 0, 72, 66
2, 27956, Note_on_c, 0, 72, 0
2, 27956, Note_on_c, 0, 75, 66
2, 27962, Note_on_c, 0, 75, 0
2, 27962, Note_on_c, 0, 78, 66
2, 27968, Note_on_c, 0, 78, 0
2, 27968, Note_on_c, 0, 81, 66
2, 27974, Note_on_c, 0, 81, 0
2, 27974, Note_on_c, 0, 84, 66
2, 28034, Note_on_c, 0, 84, 0
2, 28034, Note_on_c, 0, 83, 75
2, 28081, Note_on_c, 0, 83, 0
2, 28082, Note_on_c, 0, 81, 75
2, 28094, Note_on_c, 0, 81, 0
2, 28094, Note_on_c, 0, 79, 75
2, 28106, Note_on_c, 0, 79, 0
2, 28106, Note_on_c, 0, 78, 75
2, 28118, Note_on_c, 0, 78, 0
2, 28118, Note_on_c, 0, 76, 75
2, 28130, Note_on_c, 0, 76, 0
2, 28130, Note_on_c, 0, 79, 75
2, 28140, Note_on_c, 0, 79, 0
2, 28140, Note_on_c, 0, 78, 75
2, 28150, Note_on_c, 0, 78, 0
2, 28150, Note_on_c, 0, 79, 75
2, 28160, Note_on_c, 0, 79, 0
2, 28160, Note_on_c, 0, 78, 75
2, 28170, Note_on_c, 0, 78, 0
2, 28170, Note_on_c, 0, 79, 75
2, 28180, Note_on_c, 0, 79, 0
2, 28180, Note_on_c, 0, 78, 75
2, 28190, Note_on_c, 0, 78, 0
2, 28190, Note_on_c, 0, 79, 75
2, 28199, Note_on_c, 0, 79, 0
2, 28199, Note_on_c, 0, 78, 75
2, 28208, Note_on_c, 0, 78, 0
2, 28208, Note_on_c, 0, 76, 75
2, 28217, Note_on_c, 0, 76, 0
2, 28217, Note_on_c, 0, 78, 75
2, 28226, Note_on_c, 0, 78, 0
2, 28226, Note_on_c, 0, 76, 75
2, 28315, Note_on_c, 0, 76, 0
2, 28418, Note_on_c, 0, 79, 70
2, 28478, Note_on_c, 0, 79, 0
2, 28478, Note_on_c, 0, 77, 70
2, 28490, Note_on_c, 0, 77, 0
2, 28490, Note_on_c, 0, 76, 70
2, 28502, Note_on_c, 0, 76, 0
2, 28502, Note_on_c, 0, 74, 70
2, 28514, Note_on_c, 0, 74, 0
2, 28514, Note_on_c, 0, 72, 70
2, 28559, Note_on_c, 0, 72, 0
2, 28610, Note_on_c, 0, 79, 66
2, 28670, Note_on_c, 0, 79, 0
2, 28670, Note_on_c, 0, 77, 66
2, 28682, Note_on_c, 0, 77, 0
2, 28682, Note_on_c, 0, 76, 66
2, 28694, Note_on_c, 0, 76, 0
2, 28694, Note_on_c, 0, 74, 66
2, 28706, Note_on_c, 0, 74, 0
2, 28706, Note_on_c, 0, 72, 66
2, 28751, Note_on_c, 0, 72, 0
2, 28802, Note_on_c, 0, 79, 62
2, 28862, Note_on_c, 0, 79, 0
2, 28862, Note_on_c, 0, 77, 62
2, 28874, Note_on_c, 0, 77, 0
2, 28874, Note_on_c, 0, 76, 62
2, 28886, Note_on_c, 0, 76, 0
2, 28886, Note_on_c, 0, 74, 62
2, 28898, Note_on_c, 0, 74, 0
2, 28898, Note_on_c, 0, 72, 62
2, 28943, Note_on_c, 0, 72, 0
2, 28946, Note_on_c, 0, 72, 62
2, 28991, Note_on_c, 0, 72, 0
2, 28994, Note_on_c, 0, 74, 70
2, 29004, Note_on_c, 0, 74, 0
2, 29004, Note_on_c, 0, 72, 70
2, 29014, Note_on_c, 0, 72, 0
2, 29014, Note_on_c, 0, 74, 70
2, 29024, Note_on_c, 0, 74, 0
2, 29024, Note_on_c, 0, 72, 70
2, 29034, Note_on_c, 0, 72, 0
2, 29034, Note_on_c, 0, 74, 71
2, 29044, Note_on_c, 0, 74, 0
2, 29044, Note_on_c, 0, 72, 71
2, 29054, Note_on_c, 0, 72, 0
2, 29054, Note_on_c, 0, 74, 71
2, 29063, Note_on_c, 0, 74, 0
2, 29063, Note_on_c, 0, 72, 72
2, 29072, Note_on_c, 0, 72, 0
2, 29072, Note_on_c, 0, 71, 72
2, 29081, Note_on_c, 0, 71, 0
2, 29081, Note_on_c, 0, 72, 72
2, 29090, Note_on_c, 0, 72, 0
2, 29090, Note_on_c, 0, 81, 75
2, 29135, Note_on_c, 0, 81, 0
2, 29138, Note_on_c, 0, 72, 75
2, 29183, Note_on_c, 0, 72, 0
2, 29186, Note_on_c, 0, 72, 75
2, 29196, Note_on_c, 0, 72, 0
2, 29196, Note_on_c, 0, 71, 75
2, 29206, Note_on_c, 0, 71, 0
2, 29206, Note_on_c, 0, 72, 75
2, 29216, Note_on_c, 0, 72, 0
2, 29216, Note_on_c, 0, 71, 75
2, 29226, Note_on_c, 0, 71, 0
2, 29226, Note_on_c, 0, 72, 75
2, 29236, Note_on_c, 0, 72, 0
2, 29236, Note_on_c, 0, 71, 75
2, 29246, Note_on_c, 0, 71, 0
2, 29246, Note_on_c, 0, 72, 75
2, 29255, Note_on_c, 0, 72, 0
2, 29255, Note_on_c, 0, 71, 75
2, 29264, Note_on_c, 0, 71, 0
2, 29264, Note_on_c, 0, 69, 75
2, 29273, Note_on_c, 0, 69, 0
2, 29273, Note_on_c, 0, 71, 75
2, 29282, Note_on_c, 0, 71, 0
2, 29282, Note_on_c, 0, 79, 75
2, 29327, Note_on_c, 0, 79, 0
2, 29330, Note_on_c, 0, 71, 75
2, 29375, Note_on_c, 0, 71, 0
2, 29378, Note_on_c, 0, 74, 75
2, 29388, Note_on_c, 0, 74, 0
2, 29388, Note_on_c, 0, 72, 75
2, 29398, Note_on_c, 0, 72, 0
2, 29398, Note_on_c, 0, 74, 75
2, 29408, Note_on_c, 0, 74, 0
2, 29408, Note_on_c, 0, 72, 75
2, 29418, Note_on_c, 0, 72, 0
2, 29418, Note_on_c, 0, 74, 75
2, 29428, Note_on_c, 0, 74, 0
2, 29428, Note_on_c, 0, 72, 75
2, 29438, Note_on_c, 0, 72, 0
2, 29438, Note_on_c, 0, 74, 75
2, 29447, Note_on_c, 0, 74, 0
2, 29447, Note_on_c, 0, 72, 75
2, 29456, Note_on_c, 0, 72, 0
2, 29456, Note_on_c, 0, 71, 75
2, 29465, Note_on_c, 0, 71, 0
2, 29465, Note_on_c, 0, 72, 75
2, 29474, Note_on_c, 0, 72, 0
2, 29474, Note_on_c, 0, 81, 75
2, 29489, Note_on_c, 0, 81, 0
2, 29490, Note_on_c, 0, 79, 75
2, 29505, Note_on_c, 0, 79, 0
2, 29506, Note_on_c, 0, 78, 75
2, 29521, Note_on_c, 0, 78, 0
2, 29522, Note_on_c, 0, 76, 75
2, 29537, Note_on_c, 0, 76, 0
2, 29538, Note_on_c, 0, 74, 75
2, 29553, Note_on_c, 0, 74, 0
2, 29554, Note_on_c, 0, 72, 75
2, 29569, Note_on_c, 0, 72, 0
2, 29570, Note_on_c, 0, 72, 75
2, 29580, Note_on_c, 0, 72, 0
2, 29580, Note_on_c, 0, 71, 75
2, 29590, Note_on_c, 0, 71, 0
2, 29590, Note_on_c, 0, 72, 75
2, 29600, Note_on_c, 0, 72, 0
2, 29600, Note_on_c, 0, 71, 75
2, 29610, Note_on_c, 0, 71, 0
2, 29610, Note_on_c, 0, 72, 75
2, 29620, Note_on_c, 0, 72, 0
2, 29620, Note_on_c, 0, 71, 75
2, 29630, Note_on_c, 0, 71, 0
2, 29630, Note_on_c, 0, 72, 75
2, 29639, Note_on_c, 0, 72, 0
2, 29639, Note_on_c, 0, 71, 75
2, 29648, Note_on_c, 0, 71, 0
2, 29648, Note_on_c, 0, 69, 75
2, 29657, Note_on_c, 0, 69, 0
2, 29657, Note_on_c, 0, 71, 75
2, 29666, Note_on_c, 0, 71, 0
2, 29666, Note_on_c, 0, 79, 75
2, 29681, Note_on_c, 0, 79, 0
2, 29682, Note_on_c, 0, 78, 75
2, 29697, Note_on_c, 0, 78, 0
2, 29698, Note_on_c, 0, 76, 75
2, 29713, Note_on_c, 0, 76, 0
2, 29714, Note_on_c, 0, 74, 75
2, 29729, Note_on_c, 0, 74, 0
2, 29730, Note_on_c, 0, 72, 75
2, 29745, Note_on_c, 0, 72, 0
2, 29746, Note_on_c, 0, 71, 75
2, 29761, Note_on_c, 0, 71, 0
2, 29762, Note_on_c, 0, 72, 75
2, 29770, Note_on_c, 0, 72, 0
2, 29770, Note_on_c, 0, 71, 75
2, 29778, Note_on_c, 0, 71, 0
2, 29778, Note_on_c, 0, 72, 75
2, 29786, Note_on_c, 0, 72, 0
2, 29786, Note_on_c, 0, 71, 75
2, 29794, Note_on_c, 0, 71, 0
2, 29794, Note_on_c, 0, 69, 75
2, 29802, Note_on_c, 0, 69, 0
2, 29802, Note_on_c, 0, 71, 75
2, 29810, Note_on_c, 0, 71, 0
2, 29810, Note_on_c, 0, 69, 75
2, 29855, Note_on_c, 0, 69, 0
2, 29906, Note_on_c, 0, 86, 75
2, 29906, Note_on_c, 0, 83, 75
2, 29940, Note_on_c, 0, 86, 0
2, 29940, Note_on_c, 0, 83, 0
2, 29942, Note_on_c, 0, 86, 75
2, 29942, Note_on_c, 0, 83, 75
2, 29954, Note_on_c, 0, 86, 0
2, 29954, Note_on_c, 0, 83, 0
2, 29954, Note_on_c, 0, 86, 75
2, 29954, Note_on_c, 0, 83, 75
2, 29988, Note_on_c, 0, 86, 0
2, 29988, Note_on_c, 0, 83, 0
2, 29990, Note_on_c, 0, 84, 75
2, 29990, Note_on_c, 0, 81, 75
2, 30002, Note_on_c, 0, 84, 0
2, 30002, Note_on_c, 0, 81, 0
2, 30002, Note_on_c, 0, 83, 75
2, 30002, Note_on_c, 0, 79, 75
2, 30036, Note_on_c, 0, 83, 0
2, 30036, Note_on_c, 0, 79, 0
2, 30038, Note_on_c, 0, 83, 75
2, 30038, Note_on_c, 0, 62, 75
2, 30050, Note_on_c, 0, 83, 0
2, 30050, Note_on_c, 0, 62, 0
2, 30050, Note_on_c, 0, 83, 75
2, 30050, Note_on_c, 0, 62, 75
2, 30084, Note_on_c, 0, 83, 0
2, 30084, Note_on_c, 0, 62, 0
2, 30086, Note_on_c, 0, 81, 75
2, 30086, Note_on_c, 0, 60, 75
2, 30098, Note_on_c, 0, 81, 0
2, 30098, Note_on_c, 0, 60, 0
2, 30098, Note_on_c, 0, 79, 75
2, 30098, Note_on_c, 0, 59, 75
2, 30132, Note_on_c, 0, 79, 0
2, 30132, Note_on_c, 0, 59, 0
2, 30134, Note_on_c, 0, 86, 75
2, 30134, Note_on_c, 0, 83, 75
2, 30146, Note_on_c, 0, 86, 0
2, 30146, Note_on_c, 0, 83, 0
2, 30146, Note_on_c, 0, 86, 75
2, 30146, Note_on_c, 0, 83, 75
2, 30180, Note_on_c, 0, 86, 0
2, 30180, Note_on_c, 0, 83, 0
2, 30182, Note_on_c, 0, 84, 75
2, 30182, Note_on_c, 0, 81, 75
2, 30194, Note_on_c, 0, 84, 0
2, 30194, Note_on_c, 0, 81, 0
2, 30194, Note_on_c, 0, 83, 75
2, 30194, Note_on_c, 0, 79, 75
2, 30228, Note_on_c, 0, 83, 0
2, 30228, Note_on_c, 0, 79, 0
2, 30230, Note_on_c, 0, 83, 75
2, 30230, Note_on_c, 0, 62, 75
2, 30242, Note_on_c, 0, 83, 0
2, 30242, Note_on_c, 0, 62, 0
2, 30242, Note_on_c, 0, 83, 75
2, 30242, Note_on_c, 0, 62, 75
2, 30276, Note_on_c, 0, 83, 0
2, 30276, Note_on_c, 0, 62, 0
2, 30278, Note_on_c, 0, 81, 75
2, 30278, Note_on_c, 0, 60, 75
2, 30290, Note_on_c, 0, 81, 0
2, 30290, Note_on_c, 0, 60, 0
2, 30290, Note_on_c, 0, 79, 75
2, 30290, Note_on_c, 0, 59, 75
2, 30324, Note_on_c, 0, 79, 0
2, 30324, Note_on_c, 0, 59, 0
2, 30326, Note_on_c, 0, 79, 75
2, 30338, Note_on_c, 0, 79, 0
2, 30338, Note_on_c, 0, 80, 75
2, 30362, Note_on_c, 0, 80, 0
2, 30362, Note_on_c, 0, 81, 73
2, 30385, Note_on_c, 0, 81, 0
2, 30386, Note_on_c, 0, 81, 72
2, 30409, Note_on_c, 0, 81, 0
2, 30410, Note_on_c, 0, 81, 71
2, 30433, Note_on_c, 0, 81, 0
2, 30434, Note_on_c, 0, 81, 70
2, 30523, Note_on_c, 0, 81, 0
2, 30530, Note_on_c, 0, 66, 72
2, 30536, Note_on_c, 0, 66, 0
2, 30536, Note_on_c, 0, 69, 72
2, 30542, Note_on_c, 0, 69, 0
2, 30542, Note_on_c, 0, 72, 72
2, 30548, Note_on_c, 0, 72, 0
2, 30548, Note_on_c, 0, 74, 72
2, 30554, Note_on_c, 0, 74, 0
2, 30554, Note_on_c, 0, 78, 72
2, 30560, Note_on_c, 0, 78, 0
2, 30560, Note_on_c, 0, 81, 72
2, 30566, Note_on_c, 0, 81, 0
2, 30566, Note_on_c, 0, 84, 72
2, 30638, Note_on_c, 0, 84, 0
2, 30638, Note_on_c, 0, 83, 75
2, 30650, Note_on_c, 0, 83, 0
2, 30650, Note_on_c, 0, 81, 75
2, 30662, Note_on_c, 0, 81, 0
2, 30662, Note_on_c, 0, 79, 75
2, 30674, Note_on_c, 0, 79, 0
2, 30674, Note_on_c, 0, 78, 75
2, 30686, Note_on_c, 0, 78, 0
2, 30686, Note_on_c, 0, 76, 75
2, 30698, Note_on_c, 0, 76, 0
2, 30698, Note_on_c, 0, 74, 75
2, 30710, Note_on_c, 0, 74, 0
2, 30710, Note_on_c, 0, 72, 75
2, 30722, Note_on_c, 0, 72, 0
2, 30722, Note_on_c, 0, 71, 75
2, 30734, Note_on_c, 0, 71, 0
2, 30734, Note_on_c, 0, 74, 75
2, 30746, Note_on_c, 0, 74, 0
2, 30746, Note_on_c, 0, 76, 75
2, 30758, Note_on_c, 0, 76, 0
2, 30758, Note_on_c, 0, 78, 75
2, 30770, Note_on_c, 0, 78, 0
2, 30770, Note_on_c, 0, 79, 75
2, 30782, Note_on_c, 0, 79, 0
2, 30782, Note_on_c, 0, 81, 75
2, 30794, Note_on_c, 0, 81, 0
2, 30794, Note_on_c, 0, 83, 75
2, 30806, Note_on_c, 0, 83, 0
2, 30806, Note_on_c, 0, 84, 75
2, 30818, Note_on_c, 0, 84, 0
2, 30818, Note_on_c, 0, 86, 75
2, 30841, Note_on_c, 0, 86, 0
2, 30842, Note_on_c, 0, 74, 75
2, 30865, Note_on_c, 0, 74, 0
2, 30866, Note_on_c, 0, 74, 75
2, 30890, Note_on_c, 0, 74, 0
2, 30890, Note_on_c, 0, 75, 75
2, 30913, Note_on_c, 0, 75, 0
2, 30914, Note_on_c, 0, 76, 75
2, 30937, Note_on_c, 0, 76, 0
2, 30938, Note_on_c, 0, 78, 75
2, 30950, Note_on_c, 0, 78, 0
2, 30950, Note_on_c, 0, 80, 75
2, 30962, Note_on_c, 0, 80, 0
2, 30962, Note_on_c, 0, 81, 75
2, 30974, Note_on_c, 0, 81, 0
2, 30974, Note_on_c, 0, 80, 75
2, 30986, Note_on_c, 0, 80, 0
2, 30986, Note_on_c, 0, 81, 75
2, 30998, Note_on_c, 0, 81, 0
2, 30998, Note_on_c, 0, 83, 76
2, 31010, Note_on_c, 0, 83, 0
2, 31010, Note_on_c, 0, 84, 76
2, 31033, Note_on_c, 0, 84, 0
2, 31034, Note_on_c, 0, 72, 76
2, 31057, Note_on_c, 0, 72, 0
2, 31058, Note_on_c, 0, 72, 76
2, 31082, Note_on_c, 0, 72, 0
2, 31082, Note_on_c, 0, 73, 76
2, 31105, Note_on_c, 0, 73, 0
2, 31106, Note_on_c, 0, 74, 76
2, 31129, Note_on_c, 0, 74, 0
2, 31130, Note_on_c, 0, 76, 76
2, 31142, Note_on_c, 0, 76, 0
2, 31142, Note_on_c, 0, 78, 76
2, 31154, Note_on_c, 0, 78, 0
2, 31154, Note_on_c, 0, 79, 77
2, 31166, Note_on_c, 0, 79, 0
2, 31166, Note_on_c, 0, 78, 77
2, 31178, Note_on_c, 0, 78, 0
2, 31178, Note_on_c, 0, 79, 77
2, 31190, Note_on_c, 0, 79, 0
2, 31190, Note_on_c, 0, 81, 77
2, 31202, Note_on_c, 0, 81, 0
2, 31202, Note_on_c, 0, 83, 77
2, 31225, Note_on_c, 0, 83, 0
2, 31226, Note_on_c, 0, 71, 77
2, 31249, Note_on_c, 0, 71, 0
2, 31250, Note_on_c, 0, 71, 77
2, 31273, Note_on_c, 0, 71, 0
2, 31274, Note_on_c, 0, 71, 77
2, 31297, Note_on_c, 0, 71, 0
2, 31298, Note_on_c, 0, 72, 78
2, 31321, Note_on_c, 0, 72, 0
2, 31322, Note_on_c, 0, 74, 78
2, 31334, Note_on_c, 0, 74, 0
2, 31334, Note_on_c, 0, 76, 78
2, 31346, Note_on_c, 0, 76, 0
2, 31346, Note_on_c, 0, 78, 78
2, 31358, Note_on_c, 0, 78, 0
2, 31358, Note_on_c, 0, 76, 78
2, 31370, Note_on_c, 0, 76, 0
2, 31370, Note_on_c, 0, 78, 78
2, 31382, Note_on_c, 0, 78, 0
2, 31382, Note_on_c, 0, 79, 78
2, 31394, Note_on_c, 0, 79, 0
2, 31394, Note_on_c, 0, 81, 78
2, 31417, Note_on_c, 0, 81, 0
2, 31418, Note_on_c, 0, 69, 78
2, 31441, Note_on_c, 0, 69, 0
2, 31442, Note_on_c, 0, 69, 78
2, 31466, Note_on_c, 0, 69, 0
2, 31466, Note_on_c, 0, 70, 79
2, 31489, Note_on_c, 0, 70, 0
2, 31490, Note_on_c, 0, 71, 79
2, 31513, Note_on_c, 0, 71, 0
2, 31514, Note_on_c, 0, 72, 79
2, 31526, Note_on_c, 0, 72, 0
2, 31526, Note_on_c, 0, 74, 79
2, 31538, Note_on_c, 0, 74, 0
2, 31538, Note_on_c, 0, 76, 79
2, 31550, Note_on_c, 0, 76, 0
2, 31550, Note_on_c, 0, 74, 79
2, 31562, Note_on_c, 0, 74, 0
2, 31562, Note_on_c, 0, 76, 79
2, 31574, Note_on_c, 0, 76, 0
2, 31574, Note_on_c, 0, 78, 79
2, 31586, Note_on_c, 0, 78, 0
2, 31586, Note_on_c, 0, 79, 79
2, 31609, Note_on_c, 0, 79, 0
2, 31610, Note_on_c, 0, 71, 80
2, 31633, Note_on_c, 0, 71, 0
2, 31634, Note_on_c, 0, 71, 80
2, 31657, Note_on_c, 0, 71, 0
2, 31658, Note_on_c, 0, 71, 80
2, 31681, Note_on_c, 0, 71, 0
2, 31682, Note_on_c, 0, 72, 80
2, 31690, Note_on_c, 0, 72, 0
2, 31690, Note_on_c, 0, 71, 80
2, 31698, Note_on_c, 0, 71, 0
2, 31698, Note_on_c, 0, 72, 80
2, 31706, Note_on_c, 0, 72, 0
2, 31706, Note_on_c, 0, 71, 80
2, 31714, Note_on_c, 0, 71, 0
2, 31714, Note_on_c, 0, 69, 80
2, 31722, Note_on_c, 0, 69, 0
2, 31722, Note_on_c, 0, 71, 80
2, 31730, Note_on_c, 0, 71, 0
2, 31730, Note_on_c, 0, 69, 80
2, 31753, Note_on_c, 0, 69, 0
2, 31754, Note_on_c, 0, 78, 81
2, 31777, Note_on_c, 0, 78, 0
2, 31778, Note_on_c, 0, 79, 81
2, 31790, Note_on_c, 0, 79, 0
2, 31790, Note_on_c, 0, 78, 81
2, 31802, Note_on_c, 0, 78, 0
2, 31802, Note_on_c, 0, 79, 81
2, 31814, Note_on_c, 0, 79, 0
2, 31814, Note_on_c, 0, 81, 81
2, 31826, Note_on_c, 0, 81, 0
2, 31826, Note_on_c, 0, 83, 81
2, 31849, Note_on_c, 0, 83, 0
2, 31850, Note_on_c, 0, 71, 81
2, 31873, Note_on_c, 0, 71, 0
2, 31874, Note_on_c, 0, 72, 81
2, 31882, Note_on_c, 0, 72, 0
2, 31882, Note_on_c, 0, 71, 81
2, 31890, Note_on_c, 0, 71, 0
2, 31890, Note_on_c, 0, 72, 81
2, 31898, Note_on_c, 0, 72, 0
2, 31898, Note_on_c, 0, 71, 81
2, 31906, Note_on_c, 0, 71, 0
2, 31906, Note_on_c, 0, 69, 81
2, 31914, Note_on_c, 0, 69, 0
2, 31914, Note_on_c, 0, 71, 81
2, 31922, Note_on_c, 0, 71, 0
2, 31922, Note_on_c, 0, 69, 81
2, 31967, Note_on_c, 0, 69, 0
2, 31970, Note_on_c, 0, 81, 75
2, 32037, Note_on_c, 0, 81, 0
2, 32042, Note_on_c, 0, 72, 75
2, 32065, Note_on_c, 0, 72, 0
2, 32066, Note_on_c, 0, 71, 75
2, 32078, Note_on_c, 0, 71, 0
2, 32078, Note_on_c, 0, 69, 75
2, 32090, Note_on_c, 0, 69, 0
2, 32090, Note_on_c, 0, 71, 75
2, 32102, Note_on_c, 0, 71, 0
2, 32102, Note_on_c, 0, 72, 75
2, 32114, Note_on_c, 0, 72, 0
2, 32114, Note_on_c, 0, 74, 75
2, 32126, Note_on_c, 0, 74, 0
2, 32126, Note_on_c, 0, 72, 75
2, 32138, Note_on_c, 0, 72, 0
2, 32138, Note_on_c, 0, 74, 75
2, 32150, Note_on_c, 0, 74, 0
2, 32150, Note_on_c, 0, 76, 75
2, 32162, Note_on_c, 0, 76, 0
2, 32162, Note_on_c, 0, 74, 75
2, 32229, Note_on_c, 0, 74, 0
2, 32234, Note_on_c, 0, 67, 75
2, 32257, Note_on_c, 0, 67, 0
2, 32258, Note_on_c, 0, 66, 75
2, 32270, Note_on_c, 0, 66, 0
2, 32270, Note_on_c, 0, 64, 75
2, 32282, Note_on_c, 0, 64, 0
2, 32282, Note_on_c, 0, 66, 75
2, 32294, Note_on_c, 0, 66, 0
2, 32294, Note_on_c, 0, 67, 75
2, 32306, Note_on_c, 0, 67, 0
2, 32306, Note_on_c, 0, 69, 75
2, 32318, Note_on_c, 0, 69, 0
2, 32318, Note_on_c, 0, 67, 75
2, 32330, Note_on_c, 0, 67, 0
2, 32330, Note_on_c, 0, 69, 75
2, 32342, Note_on_c, 0, 69, 0
2, 32342, Note_on_c, 0, 71, 75
2, 32354, Note_on_c, 0, 71, 0
2, 32354, Note_on_c, 0, 72, 75
2, 32421, Note_on_c, 0, 72, 0
2, 32426, Note_on_c, 0, 60, 75
2, 32449, Note_on_c, 0, 60, 0
2, 32450, Note_on_c, 0, 59, 75
2, 32462, Note_on_c, 0, 59, 0
2, 32462, Note_on_c, 0, 57, 75
2, 32474, Note_on_c, 0, 57, 0
2, 32474, Note_on_c, 0, 59, 75
2, 32486, Note_on_c, 0, 59, 0
2, 32486, Note_on_c, 0, 60, 75
2, 32498, Note_on_c, 0, 60, 0
2, 32498, Note_on_c, 0, 62, 75
2, 32510, Note_on_c, 0, 62, 0
2, 32510, Note_on_c, 0, 60, 75
2, 32522, Note_on_c, 0, 60, 0
2, 32522, Note_on_c, 0, 62, 75
2, 32534, Note_on_c, 0, 62, 0
2, 32534, Note_on_c, 0, 64, 75
2, 32546, Note_on_c, 0, 64, 0
2, 32546, Note_on_c, 0, 62, 75
2, 32613, Note_on_c, 0, 62, 0
2, 32618, Note_on_c, 0, 55, 75
2, 32641, Note_on_c, 0, 55, 0
2, 32642, Note_on_c, 0, 54, 75
2, 32654, Note_on_c, 0, 54, 0
2, 32654, Note_on_c, 0, 52, 75
2, 32666, Note_on_c, 0, 52, 0
2, 32666, Note_on_c, 0, 54, 75
2, 32678, Note_on_c, 0, 54, 0
2, 32678, Note_on_c, 0, 55, 75
2, 32690, Note_on_c, 0, 55, 0
2, 32690, Note_on_c, 0, 57, 75
2, 32702, Note_on_c, 0, 57, 0
2, 32702, Note_on_c, 0, 55, 75
2, 32714, Note_on_c, 0, 55, 0
2, 32714, Note_on_c, 0, 57, 75
2, 32726, Note_on_c, 0, 57, 0
2, 32726, Note_on_c, 0, 59, 75
2, 32738, Note_on_c, 0, 59, 0
2, 32738, Note_on_c, 0, 60, 75
2, 32805, Note_on_c, 0, 60, 0
2, 32810, Note_on_c, 0, 60, 75
2, 32833, Note_on_c, 0, 60, 0
2, 32834, Note_on_c, 0, 59, 75
2, 32857, Note_on_c, 0, 59, 0
2, 32858, Note_on_c, 0, 66, 91
2, 32906, Note_on_c, 0, 66, 0
2, 32906, Note_on_c, 0, 67, 75
2, 32929, Note_on_c, 0, 67, 0
2, 32930, Note_on_c, 0, 60, 75
2, 32953, Note_on_c, 0, 60, 0
2, 32954, Note_on_c, 0, 66, 91
2, 33002, Note_on_c, 0, 66, 0
2, 33002, Note_on_c, 0, 67, 75
2, 33025, Note_on_c, 0, 67, 0
2, 33026, Note_on_c, 0, 62, 75
2, 33049, Note_on_c, 0, 62, 0
2, 33050, Note_on_c, 0, 66, 75
2, 33095, Note_on_c, 0, 66, 0
2, 33098, Note_on_c, 0, 67, 75
2, 33121, Note_on_c, 0, 67, 0
2, 33122, Note_on_c, 0, 64, 75
2, 33145, Note_on_c, 0, 64, 0
2, 33146, Note_on_c, 0, 69, 75
2, 33158, Note_on_c, 0, 69, 0
2, 33158, Note_on_c, 0, 71, 75
2, 33170, Note_on_c, 0, 71, 0
2, 33170, Note_on_c, 0, 74, 75
2, 33182, Note_on_c, 0, 74, 0
2, 33182, Note_on_c, 0, 72, 75
2, 33194, Note_on_c, 0, 72, 0
2, 33194, Note_on_c, 0, 71, 75
2, 33206, Note_on_c, 0, 71, 0
2, 33206, Note_on_c, 0, 69, 75
2, 33218, Note_on_c, 0, 69, 0
2, 33218, Note_on_c, 0, 67, 75
2, 33263, Note_on_c, 0, 67, 0
2, 33266, Note_on_c, 0, 67, 75
2, 33274, Note_on_c, 0, 67, 0
2, 33274, Note_on_c, 0, 66, 75
2, 33282, Note_on_c, 0, 66, 0
2, 33282, Note_on_c, 0, 67, 75
2, 33290, Note_on_c, 0, 67, 0
2, 33290, Note_on_c, 0, 66, 75
2, 33298, Note_on_c, 0, 66, 0
2, 33298, Note_on_c, 0, 64, 75
2, 33306, Note_on_c, 0, 64, 0
2, 33306, Note_on_c, 0, 66, 75
2, 33314, Note_on_c, 0, 66, 0
2, 33314, Note_on_c, 0, 76, 75
2, 33334, Note_on_c, 0, 76, 0
2, 33334, Note_on_c, 0, 74, 75
2, 33344, Note_on_c, 0, 74, 0
2, 33344, Note_on_c, 0, 76, 75
2, 33354, Note_on_c, 0, 76, 0
2, 33354, Note_on_c, 0, 74, 75
2, 33364, Note_on_c, 0, 74, 0
2, 33364, Note_on_c, 0, 76, 75
2, 33374, Note_on_c, 0, 76, 0
2, 33374, Note_on_c, 0, 74, 75
2, 33383, Note_on_c, 0, 74, 0
2, 33383, Note_on_c, 0, 76, 75
2, 33392, Note_on_c, 0, 76, 0
2, 33392, Note_on_c, 0, 74, 75
2, 33401, Note_on_c, 0, 74, 0
2, 33401, Note_on_c, 0, 76, 75
2, 33410, Note_on_c, 0, 76, 0
2, 33410, Note_on_c, 0, 74, 75
2, 33420, Note_on_c, 0, 74, 0
2, 33420, Note_on_c, 0, 73, 75
2, 33430, Note_on_c, 0, 73, 0
2, 33430, Note_on_c, 0, 74, 75
2, 33440, Note_on_c, 0, 74, 0
2, 33440, Note_on_c, 0, 73, 75
2, 33450, Note_on_c, 0, 73, 0
2, 33450, Note_on_c, 0, 74, 75
2, 33460, Note_on_c, 0, 74, 0
2, 33460, Note_on_c, 0, 73, 75
2, 33470, Note_on_c, 0, 73, 0
2, 33470, Note_on_c, 0, 74, 75
2, 33479, Note_on_c, 0, 74, 0
2, 33479, Note_on_c, 0, 73, 75
2, 33488, Note_on_c, 0, 73, 0
2, 33488, Note_on_c, 0, 74, 75
2, 33497, Note_on_c, 0, 74, 0
2, 33497, Note_on_c, 0, 73, 75
2, 33506, Note_on_c, 0, 73, 0
2, 33506, Note_on_c, 0, 74, 75
2, 33516, Note_on_c, 0, 74, 0
2, 33516, Note_on_c, 0, 72, 75
2, 33526, Note_on_c, 0, 72, 0
2, 33526, Note_on_c, 0, 74, 75
2, 33536, Note_on_c, 0, 74, 0
2, 33536, Note_on_c, 0, 72, 75
2, 33546, Note_on_c, 0, 72, 0
2, 33546, Note_on_c, 0, 74, 75
2, 33556, Note_on_c, 0, 74, 0
2, 33556, Note_on_c, 0, 72, 75
2, 33566, Note_on_c, 0, 72, 0
2, 33566, Note_on_c, 0, 74, 75
2, 33575, Note_on_c, 0, 74, 0
2, 33575, Note_on_c, 0, 72, 75
2, 33584, Note_on_c, 0, 72, 0
2, 33584, Note_on_c, 0, 74, 75
2, 33593, Note_on_c, 0, 74, 0
2, 33593, Note_on_c, 0, 72, 75
2, 33602, Note_on_c, 0, 72, 0
2, 33602, Note_on_c, 0, 71, 75
2, 33612, Note_on_c, 0, 71, 0
2, 33612, Note_on_c, 0, 72, 75
2, 33622, Note_on_c, 0, 72, 0
2, 33622, Note_on_c, 0, 71, 75
2, 33632, Note_on_c, 0, 71, 0
2, 33632, Note_on_c, 0, 72, 75
2, 33642, Note_on_c, 0, 72, 0
2, 33642, Note_on_c, 0, 71, 75
2, 33652, Note_on_c, 0, 71, 0
2, 33652, Note_on_c, 0, 72, 75
2, 33662, Note_on_c, 0, 72, 0
2, 33662, Note_on_c, 0, 71, 75
2, 33671, Note_on_c, 0, 71, 0
2, 33671, Note_on_c, 0, 72, 75
2, 33680, Note_on_c, 0, 72, 0
2, 33680, Note_on_c, 0, 71, 75
2, 33689, Note_on_c, 0, 71, 0
2, 33689, Note_on_c, 0, 72, 75
2, 33698, Note_on_c, 0, 72, 0
2, 33698, Note_on_c, 0, 70, 75
2, 33708, Note_on_c, 0, 70, 0
2, 33708, Note_on_c, 0, 72, 75
2, 33718, Note_on_c, 0, 72, 0
2, 33718, Note_on_c, 0, 70, 75
2, 33728, Note_on_c, 0, 70, 0
2, 33728, Note_on_c, 0, 72, 75
2, 33738, Note_on_c, 0, 72, 0
2, 33738, Note_on_c, 0, 70, 75
2, 33748, Note_on_c, 0, 70, 0
2, 33748, Note_on_c, 0, 72, 75
2, 33758, Note_on_c, 0, 72, 0
2, 33758, Note_on_c, 0, 70, 75
2, 33767, Note_on_c, 0, 70, 0
2, 33767, Note_on_c, 0, 72, 75
2, 33776, Note_on_c, 0, 72, 0
2, 33776, Note_on_c, 0, 69, 75
2, 33785, Note_on_c, 0, 69, 0
2, 33785, Note_on_c, 0, 70, 75
2, 33794, Note_on_c, 0, 70, 0
2, 33794, Note_on_c, 0, 69, 75
2, 33839, Note_on_c, 0, 69, 0
2, 33842, Note_on_c, 0, 74, 75
2, 33887, Note_on_c, 0, 74, 0
2, 33890, Note_on_c, 0, 72, 75
2, 33900, Note_on_c, 0, 72, 0
2, 33900, Note_on_c, 0, 70, 75
2, 33910, Note_on_c, 0, 70, 0
2, 33910, Note_on_c, 0, 72, 75
2, 33920, Note_on_c, 0, 72, 0
2, 33920, Note_on_c, 0, 70, 75
2, 33930, Note_on_c, 0, 70, 0
2, 33930, Note_on_c, 0, 72, 75
2, 33940, Note_on_c, 0, 72, 0
2, 33940, Note_on_c, 0, 70, 75
2, 33950, Note_on_c, 0, 70, 0
2, 33950, Note_on_c, 0, 72, 75
2, 33959, Note_on_c, 0, 72, 0
2, 33959, Note_on_c, 0, 70, 75
2, 33968, Note_on_c, 0, 70, 0
2, 33968, Note_on_c, 0, 69, 75
2, 33977, Note_on_c, 0, 69, 0
2, 33977, Note_on_c, 0, 70, 75
2, 33986, Note_on_c, 0, 70, 0
2, 33986, Note_on_c, 0, 69, 75
2, 34031, Note_on_c, 0, 69, 0
2, 34070, Note_on_c, 0, 67, 75
2, 34075, Note_on_c, 0, 67, 0
2, 34082, Note_on_c, 0, 62, 75
2, 34127, Note_on_c, 0, 62, 0
2, 34130, Note_on_c, 0, 66, 75
2, 34138, Note_on_c, 0, 66, 0
2, 34138, Note_on_c, 0, 64, 75
2, 34146, Note_on_c, 0, 64, 0
2, 34146, Note_on_c, 0, 66, 75
2, 34154, Note_on_c, 0, 66, 0
2, 34154, Note_on_c, 0, 64, 75
2, 34162, Note_on_c, 0, 64, 0
2, 34162, Note_on_c, 0, 62, 75
2, 34170, Note_on_c, 0, 62, 0
2, 34170, Note_on_c, 0, 64, 75
2, 34178, Note_on_c, 0, 64, 0
2, 34178, Note_on_c, 0, 62, 75
2, 34193, Note_on_c, 0, 62, 0
2, 34194, Note_on_c, 0, 74, 75
2, 34209, Note_on_c, 0, 74, 0
2, 34210, Note_on_c, 0, 72, 75
2, 34225, Note_on_c, 0, 72, 0
2, 34226, Note_on_c, 0, 71, 75
2, 34241, Note_on_c, 0, 71, 0
2, 34242, Note_on_c, 0, 69, 75
2, 34257, Note_on_c, 0, 69, 0
2, 34258, Note_on_c, 0, 67, 75
2, 34273, Note_on_c, 0, 67, 0
2, 34274, Note_on_c, 0, 62, 75
2, 34294, Note_on_c, 0, 62, 0
2, 34322, Note_on_c, 0, 66, 75
2, 34330, Note_on_c, 0, 66, 0
2, 34330, Note_on_c, 0, 64, 75
2, 34338, Note_on_c, 0, 64, 0
2, 34338, Note_on_c, 0, 66, 75
2, 34346, Note_on_c, 0, 66, 0
2, 34346, Note_on_c, 0, 64, 75
2, 34354, Note_on_c, 0, 64, 0
2, 34354, Note_on_c, 0, 62, 75
2, 34362, Note_on_c, 0, 62, 0
2, 34362, Note_on_c, 0, 64, 75
2, 34370, Note_on_c, 0, 64, 0
2, 34370, Note_on_c, 0, 62, 75
2, 34377, Note_on_c, 0, 62, 0
2, 34386, Note_on_c, 0, 74, 75
2, 34401, Note_on_c, 0, 74, 0
2, 34402, Note_on_c, 0, 72, 75
2, 34417, Note_on_c, 0, 72, 0
2, 34418, Note_on_c, 0, 71, 75
2, 34433, Note_on_c, 0, 71, 0
2, 34434, Note_on_c, 0, 69, 75
2, 34449, Note_on_c, 0, 69, 0
2, 34450, Note_on_c, 0, 67, 75
2, 34465, Note_on_c, 0, 67, 0
2, 34466, Note_on_c, 0, 64, 75
2, 34481, Note_on_c, 0, 64, 0
2, 34482, Note_on_c, 0, 76, 75
2, 34497, Note_on_c, 0, 76, 0
2, 34498, Note_on_c, 0, 74, 75
2, 34513, Note_on_c, 0, 74, 0
2, 34514, Note_on_c, 0, 72, 75
2, 34529, Note_on_c, 0, 72, 0
2, 34530, Note_on_c, 0, 71, 75
2, 34545, Note_on_c, 0, 71, 0
2, 34546, Note_on_c, 0, 69, 75
2, 34561, Note_on_c, 0, 69, 0
2, 34562, Note_on_c, 0, 71, 75
2, 34577, Note_on_c, 0, 71, 0
2, 34578, Note_on_c, 0, 72, 75
2, 34593, Note_on_c, 0, 72, 0
2, 34594, Note_on_c, 0, 74, 75
2, 34609, Note_on_c, 0, 74, 0
2, 34610, Note_on_c, 0, 67, 75
2, 34625, Note_on_c, 0, 67, 0
2, 34626, Note_on_c, 0, 72, 75
2, 34641, Note_on_c, 0, 72, 0
2, 34642, Note_on_c, 0, 69, 75
2, 34657, Note_on_c, 0, 69, 0
2, 34658, Note_on_c, 0, 71, 75
2, 34668, Note_on_c, 0, 71, 0
2, 34668, Note_on_c, 0, 69, 75
2, 34678, Note_on_c, 0, 69, 0
2, 34678, Note_on_c, 0, 71, 75
2, 34688, Note_on_c, 0, 71, 0
2, 34688, Note_on_c, 0, 69, 75
2, 34698, Note_on_c, 0, 69, 0
2, 34698, Note_on_c, 0, 71, 75
2, 34708, Note_on_c, 0, 71, 0
2, 34708, Note_on_c, 0, 69, 75
2, 34718, Note_on_c, 0, 69, 0
2, 34718, Note_on_c, 0, 71, 75
2, 34727, Note_on_c, 0, 71, 0
2, 34727, Note_on_c, 0, 69, 75
2, 34736, Note_on_c, 0, 69, 0
2, 34736, Note_on_c, 0, 67, 75
2, 34745, Note_on_c, 0, 67, 0
2, 34745, Note_on_c, 0, 69, 75
2, 34754, Note_on_c, 0, 69, 0
2, 34754, Note_on_c, 0, 67, 75
2, 34843, Note_on_c, 0, 67, 0
2, 34850, Note_on_c, 0, 86, 70
2, 34917, Note_on_c, 0, 86, 0
2, 34922, Note_on_c, 0, 84, 70
2, 34930, Note_on_c, 0, 84, 0
2, 34930, Note_on_c, 0, 82, 70
2, 34938, Note_on_c, 0, 82, 0
2, 34938, Note_on_c, 0, 81, 70
2, 34946, Note_on_c, 0, 81, 0
2, 34946, Note_on_c, 0, 84, 70
2, 34954, Note_on_c, 0, 84, 0
2, 34954, Note_on_c, 0, 82, 70
2, 34962, Note_on_c, 0, 82, 0
2, 34962, Note_on_c, 0, 84, 70
2, 34970, Note_on_c, 0, 84, 0
2, 34970, Note_on_c, 0, 82, 70
2, 34978, Note_on_c, 0, 82, 0
2, 34978, Note_on_c, 0, 81, 70
2, 34986, Note_on_c, 0, 81, 0
2, 34986, Note_on_c, 0, 82, 70
2, 34994, Note_on_c, 0, 82, 0
2, 34994, Note_on_c, 0, 81, 70
2, 35039, Note_on_c, 0, 81, 0
2, 35042, Note_on_c, 0, 86, 66
2, 35109, Note_on_c, 0, 86, 0
2, 35114, Note_on_c, 0, 84, 66
2, 35122, Note_on_c, 0, 84, 0
2, 35122, Note_on_c, 0, 82, 66
2, 35130, Note_on_c, 0, 82, 0
2, 35130, Note_on_c, 0, 81, 66
2, 35138, Note_on_c, 0, 81, 0
2, 35138, Note_on_c, 0, 84, 66
2, 35146, Note_on_c, 0, 84, 0
2, 35146, Note_on_c, 0, 82, 66
2, 35154, Note_on_c, 0, 82, 0
2, 35154, Note_on_c, 0, 84, 66
2, 35162, Note_on_c, 0, 84, 0
2, 35162, Note_on_c, 0, 82, 66
2, 35170, Note_on_c, 0, 82, 0
2, 35170, Note_on_c, 0, 81, 66
2, 35178, Note_on_c, 0, 81, 0
2, 35178, Note_on_c, 0, 82, 66
2, 35186, Note_on_c, 0, 82, 0
2, 35186, Note_on_c, 0, 81, 66
2, 35231, Note_on_c, 0, 81, 0
2, 35234, Note_on_c, 0, 86, 70
2, 35301, Note_on_c, 0, 86, 0
2, 35306, Note_on_c, 0, 84, 70
2, 35314, Note_on_c, 0, 84, 0
2, 35314, Note_on_c, 0, 82, 70
2, 35322, Note_on_c, 0, 82, 0
2, 35322, Note_on_c, 0, 81, 70
2, 35330, Note_on_c, 0, 81, 0
2, 35330, Note_on_c, 0, 82, 70
2, 35375, Note_on_c, 0, 82, 0
2, 35378, Note_on_c, 0, 79, 70
2, 35412, Note_on_c, 0, 79, 0
2, 35414, Note_on_c, 0, 81, 70
2, 35426, Note_on_c, 0, 81, 0
2, 35426, Note_on_c, 0, 82, 70
2, 35460, Note_on_c, 0, 82, 0
2, 35462, Note_on_c, 0, 81, 70
2, 35474, Note_on_c, 0, 81, 0
2, 35474, Note_on_c, 0, 82, 70
2, 35508, Note_on_c, 0, 82, 0
2, 35510, Note_on_c, 0, 84, 70
2, 35522, Note_on_c, 0, 84, 0
2, 35522, Note_on_c, 0, 86, 70
2, 35567, Note_on_c, 0, 86, 0
2, 35606, Note_on_c, 0, 67, 70
2, 35611, Note_on_c, 0, 67, 0
2, 35618, Note_on_c, 0, 62, 75
2, 35663, Note_on_c, 0, 62, 0
2, 35666, Note_on_c, 0, 66, 75
2, 35674, Note_on_c, 0, 66, 0
2, 35674, Note_on_c, 0, 64, 75
2, 35682, Note_on_c, 0, 64, 0
2, 35682, Note_on_c, 0, 66, 75
2, 35690, Note_on_c, 0, 66, 0
2, 35690, Note_on_c, 0, 64, 75
2, 35698, Note_on_c, 0, 64, 0
2, 35698, Note_on_c, 0, 62, 75
2, 35706, Note_on_c, 0, 62, 0
2, 35706, Note_on_c, 0, 64, 75
2, 35714, Note_on_c, 0, 64, 0
2, 35714, Note_on_c, 0, 62, 75
2, 35729, Note_on_c, 0, 62, 0
2, 35730, Note_on_c, 0, 74, 75
2, 35745, Note_on_c, 0, 74, 0
2, 35746, Note_on_c, 0, 72, 75
2, 35761, Note_on_c, 0, 72, 0
2, 35762, Note_on_c, 0, 71, 75
2, 35777, Note_on_c, 0, 71, 0
2, 35778, Note_on_c, 0, 69, 75
2, 35793, Note_on_c, 0, 69, 0
2, 35794, Note_on_c, 0, 67, 75
2, 35809, Note_on_c, 0, 67, 0
2, 35810, Note_on_c, 0, 62, 75
2, 35830, Note_on_c, 0, 62, 0
2, 35858, Note_on_c, 0, 66, 75
2, 35866, Note_on_c, 0, 66, 0
2, 35866, Note_on_c, 0, 64, 75
2, 35874, Note_on_c, 0, 64, 0
2, 35874, Note_on_c, 0, 66, 75
2, 35882, Note_on_c, 0, 66, 0
2, 35882, Note_on_c, 0, 64, 75
2, 35890, Note_on_c, 0, 64, 0
2, 35890, Note_on_c, 0, 62, 75
2, 35898, Note_on_c, 0, 62, 0
2, 35898, Note_on_c, 0, 64, 75
2, 35906, Note_on_c, 0, 64, 0
2, 35906, Note_on_c, 0, 62, 75
2, 35913, Note_on_c, 0, 62, 0
2, 35922, Note_on_c, 0, 74, 75
2, 35937, Note_on_c, 0, 74, 0
2, 35938, Note_on_c, 0, 72, 75
2, 35953, Note_on_c, 0, 72, 0
2, 35954, Note_on_c, 0, 71, 75
2, 35969, Note_on_c, 0, 71, 0
2, 35970, Note_on_c, 0, 69, 75
2, 35985, Note_on_c, 0, 69, 0
2, 35986, Note_on_c, 0, 67, 75
2, 36001, Note_on_c, 0, 67, 0
2, 36002, Note_on_c, 0, 64, 75
2, 36017, Note_on_c, 0, 64, 0
2, 36018, Note_on_c, 0, 76, 75
2, 36033, Note_on_c, 0, 76, 0
2, 36034, Note_on_c, 0, 74, 75
2, 36049, Note_on_c, 0, 74, 0
2, 36050, Note_on_c, 0, 72, 75
2, 36065, Note_on_c, 0, 72, 0
2, 36066, Note_on_c, 0, 71, 75
2, 36081, Note_on_c, 0, 71, 0
2, 36082, Note_on_c, 0, 69, 75
2, 36097, Note_on_c, 0, 69, 0
2, 36098, Note_on_c, 0, 71, 75
2, 36113, Note_on_c, 0, 71, 0
2, 36114, Note_on_c, 0, 72, 75
2, 36129, Note_on_c, 0, 72, 0
2, 36130, Note_on_c, 0, 74, 75
2, 36145, Note_on_c, 0, 74, 0
2, 36146, Note_on_c, 0, 67, 75
2, 36161, Note_on_c, 0, 67, 0
2, 36162, Note_on_c, 0, 72, 75
2, 36177, Note_on_c, 0, 72, 0
2, 36178, Note_on_c, 0, 69, 75
2, 36193, Note_on_c, 0, 69, 0
2, 36194, Note_on_c, 0, 71, 75
2, 36204, Note_on_c, 0, 71, 0
2, 36204, Note_on_c, 0, 69, 75
2, 36214, Note_on_c, 0, 69, 0
2, 36214, Note_on_c, 0, 71, 75
2, 36224, Note_on_c, 0, 71, 0
2, 36224, Note_on_c, 0, 69, 75
2, 36234, Note_on_c, 0, 69, 0
2, 36234, Note_on_c, 0, 71, 75
2, 36244, Note_on_c, 0, 71, 0
2, 36244, Note_on_c, 0, 69, 75
2, 36254, Note_on_c, 0, 69, 0
2, 36254, Note_on_c, 0, 71, 75
2, 36263, Note_on_c, 0, 71, 0
2, 36263, Note_on_c, 0, 69, 75
2, 36272, Note_on_c, 0, 69, 0
2, 36272, Note_on_c, 0, 67, 75
2, 36281, Note_on_c, 0, 67, 0
2, 36281, Note_on_c, 0, 69, 75
2, 36290, Note_on_c, 0, 69, 0
2, 36290, Note_on_c, 0, 67, 75
2, 36379, Note_on_c, 0, 67, 0
2, 36482, End_track
3, 0, Start_track
3, 0, Program_c, 0, 0
3, 0, Control_c, 0, 7, 127
3, 0, Control_c, 0, 10, 64
3, 36480, End_track
4, 0, Start_track
4, 0, Program_c, 1, 0
4, 0, Control_c, 1, 7, 127
4, 0, Control_c, 1, 10, 64
4, 432, Note_on_c, 1, 55, 75
4, 477, Note_on_c, 1, 55, 0
4, 480, Note_on_c, 1, 59, 75
4, 525, Note_on_c, 1, 59, 0
4, 528, Note_on_c, 1, 55, 75
4, 573, Note_on_c, 1, 55, 0
4, 576, Note_on_c, 1, 57, 75
4, 643, Note_on_c, 1, 57, 0
4, 648, Note_on_c, 1, 60, 75
4, 671, Note_on_c, 1, 60, 0
4, 672, Note_on_c, 1, 54, 75
4, 717, Note_on_c, 1, 54, 0
4, 720, Note_on_c, 1, 66, 75
4, 765, Note_on_c, 1, 66, 0
4, 768, Note_on_c, 1, 67, 75
4, 813, Note_on_c, 1, 67, 0
4, 816, Note_on_c, 1, 60, 75
4, 839, Note_on_c, 1, 60, 0
4, 840, Note_on_c, 1, 62, 75
4, 863, Note_on_c, 1, 62, 0
4, 864, Note_on_c, 1, 64, 75
4, 909, Note_on_c, 1, 64, 0
4, 912, Note_on_c, 1, 60, 75
4, 957, Note_on_c, 1, 60, 0
4, 960, Note_on_c, 1, 62, 75
4, 1005, Note_on_c, 1, 62, 0
4, 1008, Note_on_c, 1, 55, 75
4, 1053, Note_on_c, 1, 55, 0
4, 1200, Note_on_c, 1, 43, 81
4, 1234, Note_on_c, 1, 43, 0
4, 1236, Note_on_c, 1, 45, 81
4, 1248, Note_on_c, 1, 45, 0
4, 1248, Note_on_c, 1, 47, 81
4, 1293, Note_on_c, 1, 47, 0
4, 1296, Note_on_c, 1, 49, 81
4, 1341, Note_on_c, 1, 49, 0
4, 1344, Note_on_c, 1, 50, 81
4, 1433, Note_on_c, 1, 50, 0
4, 1476, Note_on_c, 1, 50, 81
4, 1488, Note_on_c, 1, 50, 0
4, 1488, Note_on_c, 1, 52, 81
4, 1522, Note_on_c, 1, 52, 0
4, 1524, Note_on_c, 1, 54, 81
4, 1536, Note_on_c, 1, 54, 0
4, 1536, Note_on_c, 1, 55, 81
4, 1625, Note_on_c, 1, 55, 0
4, 1680, Note_on_c, 1, 67, 75
4, 1725, Note_on_c, 1, 67, 0
4, 1728, Note_on_c, 1, 67, 75
4, 1773, Note_on_c, 1, 67, 0
4, 1776, Note_on_c, 1, 66, 75
4, 1821, Note_on_c, 1, 66, 0
4, 2004, Note_on_c, 1, 62, 75
4, 2016, Note_on_c, 1, 62, 0
4, 2016, Note_on_c, 1, 62, 75
4, 2105, Note_on_c, 1, 62, 0
4, 2196, Note_on_c, 1, 62, 75
4, 2208, Note_on_c, 1, 62, 0
4, 2208, Note_on_c, 1, 62, 75
4, 2297, Note_on_c, 1, 62, 0
4, 2304, Note_on_c, 1, 67, 75
4, 2304, Note_on_c, 1, 61, 75
4, 2349, Note_on_c, 1, 67, 0
4, 2349, Note_on_c, 1, 61, 0
4, 2352, Note_on_c, 1, 67, 72
4, 2352, Note_on_c, 1, 61, 72
4, 2397, Note_on_c, 1, 67, 0
4, 2397, Note_on_c, 1, 61, 0
4, 2400, Note_on_c, 1, 67, 70
4, 2400, Note_on_c, 1, 61, 70
4, 2445, Note_on_c, 1, 67, 0
4, 2445, Note_on_c, 1, 61, 0
4, 2448, Note_on_c, 1, 67, 71
4, 2448, Note_on_c, 1, 61, 71
4, 2541, Note_on_c, 1, 67, 0
4, 2541, Note_on_c, 1, 61, 0
4, 2592, Note_on_c, 1, 57, 75
4, 2637, Note_on_c, 1, 57, 0
4, 2640, Note_on_c, 1, 61, 75
4, 2685, Note_on_c, 1, 61, 0
4, 2688, Note_on_c, 1, 62, 75
4, 2777, Note_on_c, 1, 62, 0
4, 2832, Note_on_c, 1, 54, 75
4, 2877, Note_on_c, 1, 54, 0
4, 2880, Note_on_c, 1, 55, 75
4, 2969, Note_on_c, 1, 55, 0
4, 3024, Note_on_c, 1, 56, 75
4, 3069, Note_on_c, 1, 56, 0
4, 3072, Note_on_c, 1, 57, 75
4, 3117, Note_on_c, 1, 57, 0
4, 3120, Note_on_c, 1, 45, 75
4, 3165, Note_on_c, 1, 45, 0
4, 3192, Note_on_c, 1, 57, 81
4, 3204, Note_on_c, 1, 57, 0
4, 3204, Note_on_c, 1, 59, 81
4, 3216, Note_on_c, 1, 59, 0
4, 3216, Note_on_c, 1, 61, 81
4, 3239, Note_on_c, 1, 61, 0
4, 3240, Note_on_c, 1, 57, 81
4, 3263, Note_on_c, 1, 57, 0
4, 3264, Note_on_c, 1, 64, 81
4, 3309, Note_on_c, 1, 64, 0
4, 3312, Note_on_c, 1, 52, 81
4, 3357, Note_on_c, 1, 52, 0
4, 3384, Note_on_c, 1, 52, 81
4, 3396, Note_on_c, 1, 52, 0
4, 3396, Note_on_c, 1, 54, 81
4, 3408, Note_on_c, 1, 54, 0
4, 3408, Note_on_c, 1, 56, 81
4, 3431, Note_on_c, 1, 56, 0
4, 3432, Note_on_c, 1, 52, 81
4, 3455, Note_on_c, 1, 52, 0
4, 3456, Note_on_c, 1, 57, 81
4, 3501, Note_on_c, 1, 57, 0
4, 3504, Note_on_c, 1, 45, 81
4, 3549, Note_on_c, 1, 45, 0
4, 3576, Note_on_c, 1, 45, 81
4, 3588, Note_on_c, 1, 45, 0
4, 3588, Note_on_c, 1, 47, 81
4, 3600, Note_on_c, 1, 47, 0
4, 3600, Note_on_c, 1, 49, 81
4, 3623, Note_on_c, 1, 49, 0
4, 3624, Note_on_c, 1, 45, 81
4, 3647, Note_on_c, 1, 45, 0
4, 3648, Note_on_c, 1, 50, 81
4, 3693, Note_on_c, 1, 50, 0
4, 3696, Note_on_c, 1, 38, 75
4, 3741, Note_on_c, 1, 38, 0
4, 3744, Note_on_c, 1, 40, 75
4, 3789, Note_on_c, 1, 40, 0
4, 3792, Note_on_c, 1, 52, 75
4, 3837, Note_on_c, 1, 52, 0
4, 3840, Note_on_c, 1, 54, 75
4, 3885, Note_on_c, 1, 54, 0
4, 3888, Note_on_c, 1, 42, 75
4, 3933, Note_on_c, 1, 42, 0
4, 3936, Note_on_c, 1, 55, 75
4, 3981, Note_on_c, 1, 55, 0
4, 3984, Note_on_c, 1, 52, 75
4, 4029, Note_on_c, 1, 52, 0
4, 4032, Note_on_c, 1, 57, 75
4, 4077, Note_on_c, 1, 57, 0
4, 4080, Note_on_c, 1, 45, 75
4, 4125, Note_on_c, 1, 45, 0
4, 4128, Note_on_c, 1, 61, 66
4, 4128, Note_on_c, 1, 57, 66
4, 4151, Note_on_c, 1, 61, 0
4, 4151, Note_on_c, 1, 57, 0
4, 4152, Note_on_c, 1, 61, 66
4, 4152, Note_on_c, 1, 57, 66
4, 4175, Note_on_c, 1, 61, 0
4, 4175, Note_on_c, 1, 57, 0
4, 4176, Note_on_c, 1, 61, 66
4, 4176, Note_on_c, 1, 57, 66
4, 4199, Note_on_c, 1, 61, 0
4, 4199, Note_on_c, 1, 57, 0
4, 4200, Note_on_c, 1, 61, 66
4, 4200, Note_on_c, 1, 57, 66
4, 4223, Note_on_c, 1, 61, 0
4, 4223, Note_on_c, 1, 57, 0
4, 4224, Note_on_c, 1, 62, 66
4, 4224, Note_on_c, 1, 57, 66
4, 4247, Note_on_c, 1, 62, 0
4, 4247, Note_on_c, 1, 57, 0
4, 4248, Note_on_c, 1, 62, 66
4, 4248, Note_on_c, 1, 57, 66
4, 4271, Note_on_c, 1, 62, 0
4, 4271, Note_on_c, 1, 57, 0
4, 4272, Note_on_c, 1, 62, 66
4, 4272, Note_on_c, 1, 57, 66
4, 4295, Note_on_c, 1, 62, 0
4, 4295, Note_on_c, 1, 57, 0
4, 4296, Note_on_c, 1, 62, 66
4, 4296, Note_on_c, 1, 57, 66
4, 4319, Note_on_c, 1, 62, 0
4, 4319, Note_on_c, 1, 57, 0
4, 4320, Note_on_c, 1, 64, 66
4, 4320, Note_on_c, 1, 57, 66
4, 4343, Note_on_c, 1, 64, 0
4, 4343, Note_on_c, 1, 57, 0
4, 4344, Note_on_c, 1, 64, 66
4, 4344, Note_on_c, 1, 57, 66
4, 4367, Note_on_c, 1, 64, 0
4, 4367, Note_on_c, 1, 57, 0
4, 4368, Note_on_c, 1, 64, 66
4, 4368, Note_on_c, 1, 57, 66
4, 4391, Note_on_c, 1, 64, 0
4, 4391, Note_on_c, 1, 57, 0
4, 4392, Note_on_c, 1, 64, 66
4, 4392, Note_on_c, 1, 57, 66
4, 4415, Note_on_c, 1, 64, 0
4, 4415, Note_on_c, 1, 57, 0
4, 4416, Note_on_c, 1, 62, 66
4, 4416, Note_on_c, 1, 57, 66
4, 4439, Note_on_c, 1, 62, 0
4, 4439, Note_on_c, 1, 57, 0
4, 4440, Note_on_c, 1, 62, 66
4, 4440, Note_on_c, 1, 57, 66
4, 4463, Note_on_c, 1, 62, 0
4, 4463, Note_on_c, 1, 57, 0
4, 4464, Note_on_c, 1, 62, 66
4, 4464, Note_on_c, 1, 57, 66
4, 4487, Note_on_c, 1, 62, 0
4, 4487, Note_on_c, 1, 57, 0
4, 4488, Note_on_c, 1, 62, 66
4, 4488, Note_on_c, 1, 57, 66
4, 4511, Note_on_c, 1, 62, 0
4, 4511, Note_on_c, 1, 57, 0
4, 4512, Note_on_c, 1, 62, 66
4, 4512, Note_on_c, 1, 57, 66
4, 4535, Note_on_c, 1, 62, 0
4, 4535, Note_on_c, 1, 57, 0
4, 4536, Note_on_c, 1, 62, 66
4, 4536, Note_on_c, 1, 57, 66
4, 4559, Note_on_c, 1, 62, 0
4, 4559, Note_on_c, 1, 57, 0
4, 4560, Note_on_c, 1, 62, 66
4, 4560, Note_on_c, 1, 57, 66
4, 4583, Note_on_c, 1, 62, 0
4, 4583, Note_on_c, 1, 57, 0
4, 4584, Note_on_c, 1, 62, 66
4, 4584, Note_on_c, 1, 57, 66
4, 4607, Note_on_c, 1, 62, 0
4, 4607, Note_on_c, 1, 57, 0
4, 4608, Note_on_c, 1, 61, 66
4, 4608, Note_on_c, 1, 57, 66
4, 4631, Note_on_c, 1, 61, 0
4, 4631, Note_on_c, 1, 57, 0
4, 4632, Note_on_c, 1, 61, 66
4, 4632, Note_on_c, 1, 57, 66
4, 4655, Note_on_c, 1, 61, 0
4, 4655, Note_on_c, 1, 57, 0
4, 4656, Note_on_c, 1, 61, 66
4, 4656, Note_on_c, 1, 57, 66
4, 4679, Note_on_c, 1, 61, 0
4, 4679, Note_on_c, 1, 57, 0
4, 4680, Note_on_c, 1, 61, 66
4, 4680, Note_on_c, 1, 57, 66
4, 4703, Note_on_c, 1, 61, 0
4, 4703, Note_on_c, 1, 57, 0
4, 4704, Note_on_c, 1, 62, 66
4, 4704, Note_on_c, 1, 57, 66
4, 4727, Note_on_c, 1, 62, 0
4, 4727, Note_on_c, 1, 57, 0
4, 4728, Note_on_c, 1, 62, 66
4, 4728, Note_on_c, 1, 57, 66
4, 4751, Note_on_c, 1, 62, 0
4, 4751, Note_on_c, 1, 57, 0
4, 4752, Note_on_c, 1, 62, 66
4, 4752, Note_on_c, 1, 57, 66
4, 4775, Note_on_c, 1, 62, 0
4, 4775, Note_on_c, 1, 57, 0
4, 4776, Note_on_c, 1, 62, 66
4, 4776, Note_on_c, 1, 57, 66
4, 4799, Note_on_c, 1, 62, 0
4, 4799, Note_on_c, 1, 57, 0
4, 4800, Note_on_c, 1, 61, 66
4, 4800, Note_on_c, 1, 57, 66
4, 4845, Note_on_c, 1, 61, 0
4, 4845, Note_on_c, 1, 57, 0
4, 4896, Note_on_c, 1, 54, 75
4, 4911, Note_on_c, 1, 54, 0
4, 4912, Note_on_c, 1, 57, 75
4, 4927, Note_on_c, 1, 57, 0
4, 4928, Note_on_c, 1, 62, 75
4, 4943, Note_on_c, 1, 62, 0
4, 4944, Note_on_c, 1, 55, 75
4, 4959, Note_on_c, 1, 55, 0
4, 4960, Note_on_c, 1, 59, 75
4, 4975, Note_on_c, 1, 59, 0
4, 4976, Note_on_c, 1, 62, 75
4, 4991, Note_on_c, 1, 62, 0
4, 4992, Note_on_c, 1, 54, 75
4, 5081, Note_on_c, 1, 54, 0
4, 5088, Note_on_c, 1, 54, 75
4, 5103, Note_on_c, 1, 54, 0
4, 5104, Note_on_c, 1, 57, 75
4, 5119, Note_on_c, 1, 57, 0
4, 5120, Note_on_c, 1, 62, 75
4, 5135, Note_on_c, 1, 62, 0
4, 5136, Note_on_c, 1, 55, 75
4, 5151, Note_on_c, 1, 55, 0
4, 5152, Note_on_c, 1, 59, 75
4, 5167, Note_on_c, 1, 59, 0
4, 5168, Note_on_c, 1, 62, 75
4, 5183, Note_on_c, 1, 62, 0
4, 5184, Note_on_c, 1, 54, 75
4, 5229, Note_on_c, 1, 54, 0
4, 5280, Note_on_c, 1, 55, 75
4, 5280, Note_on_c, 1, 43, 75
4, 5325, Note_on_c, 1, 55, 0
4, 5325, Note_on_c, 1, 43, 0
4, 5424, Note_on_c, 1, 59, 75
4, 5424, Note_on_c, 1, 47, 75
4, 5469, Note_on_c, 1, 59, 0
4, 5469, Note_on_c, 1, 47, 0
4, 5472, Note_on_c, 1, 55, 75
4, 5472, Note_on_c, 1, 43, 75
4, 5517, Note_on_c, 1, 55, 0
4, 5517, Note_on_c, 1, 43, 0
4, 5520, Note_on_c, 1, 57, 75
4, 5520, Note_on_c, 1, 45, 75
4, 5565, Note_on_c, 1, 57, 0
4, 5565, Note_on_c, 1, 45, 0
4, 5568, Note_on_c, 1, 50, 75
4, 5613, Note_on_c, 1, 50, 0
4, 5616, Note_on_c, 1, 38, 75
4, 5661, Note_on_c, 1, 38, 0
4, 5664, Note_on_c, 1, 61, 66
4, 5679, Note_on_c, 1, 61, 0
4, 5680, Note_on_c, 1, 64, 66
4, 5695, Note_on_c, 1, 64, 0
4, 5696, Note_on_c, 1, 69, 66
4, 5711, Note_on_c, 1, 69, 0
4, 5712, Note_on_c, 1, 61, 66
4, 5727, Note_on_c, 1, 61, 0
4, 5728, Note_on_c, 1, 64, 66
4, 5743, Note_on_c, 1, 64, 0
4, 5744, Note_on_c, 1, 69, 66
4, 5759, Note_on_c, 1, 69, 0
4, 5760, Note_on_c, 1, 62, 66
4, 5775, Note_on_c, 1, 62, 0
4, 5776, Note_on_c, 1, 65, 66
4, 5791, Note_on_c, 1, 65, 0
4, 5792, Note_on_c, 1, 69, 66
4, 5807, Note_on_c, 1, 69, 0
4, 5808, Note_on_c, 1, 61, 66
4, 5823, Note_on_c, 1, 61, 0
4, 5824, Note_on_c, 1, 64, 66
4, 5839, Note_on_c, 1, 64, 0
4, 5840, Note_on_c, 1, 69, 66
4, 5855, Note_on_c, 1, 69, 0
4, 5856, Note_on_c, 1, 61, 66
4, 5871, Note_on_c, 1, 61, 0
4, 5872, Note_on_c, 1, 64, 66
4, 5887, Note_on_c, 1, 64, 0
4, 5888, Note_on_c, 1, 69, 66
4, 5903, Note_on_c, 1, 69, 0
4, 5904, Note_on_c, 1, 61, 66
4, 5919, Note_on_c, 1, 61, 0
4, 5920, Note_on_c, 1, 64, 66
4, 5935, Note_on_c, 1, 64, 0
4, 5936, Note_on_c, 1, 69, 66
4, 5951, Note_on_c, 1, 69, 0
4, 5952, Note_on_c, 1, 62, 66
4, 5967, Note_on_c, 1, 62, 0
4, 5968, Note_on_c, 1, 65, 66
4, 5983, Note_on_c, 1, 65, 0
4, 5984, Note_on_c, 1, 69, 66
4, 5999, Note_on_c, 1, 69, 0
4, 6000, Note_on_c, 1, 61, 66
4, 6015, Note_on_c, 1, 61, 0
4, 6016, Note_on_c, 1, 64, 66
4, 6031, Note_on_c, 1, 64, 0
4, 6032, Note_on_c, 1, 69, 66
4, 6047, Note_on_c, 1, 69, 0
4, 6048, Note_on_c, 1, 61, 66
4, 6063, Note_on_c, 1, 61, 0
4, 6064, Note_on_c, 1, 64, 66
4, 6079, Note_on_c, 1, 64, 0
4, 6080, Note_on_c, 1, 69, 66
4, 6095, Note_on_c, 1, 69, 0
4, 6096, Note_on_c, 1, 61, 66
4, 6111, Note_on_c, 1, 61, 0
4, 6112, Note_on_c, 1, 64, 66
4, 6127, Note_on_c, 1, 64, 0
4, 6128, Note_on_c, 1, 69, 66
4, 6143, Note_on_c, 1, 69, 0
4, 6144, Note_on_c, 1, 62, 66
4, 6159, Note_on_c, 1, 62, 0
4, 6160, Note_on_c, 1, 65, 66
4, 6175, Note_on_c, 1, 65, 0
4, 6176, Note_on_c, 1, 69, 66
4, 6191, Note_on_c, 1, 69, 0
4, 6192, Note_on_c, 1, 62, 66
4, 6207, Note_on_c, 1, 62, 0
4, 6208, Note_on_c, 1, 65, 66
4, 6223, Note_on_c, 1, 65, 0
4, 6224, Note_on_c, 1, 69, 66
4, 6239, Note_on_c, 1, 69, 0
4, 6240, Note_on_c, 1, 62, 66
4, 6255, Note_on_c, 1, 62, 0
4, 6256, Note_on_c, 1, 65, 66
4, 6271, Note_on_c, 1, 65, 0
4, 6272, Note_on_c, 1, 69, 66
4, 6287, Note_on_c, 1, 69, 0
4, 6288, Note_on_c, 1, 62, 66
4, 6303, Note_on_c, 1, 62, 0
4, 6304, Note_on_c, 1, 65, 66
4, 6319, Note_on_c, 1, 65, 0
4, 6320, Note_on_c, 1, 69, 66
4, 6335, Note_on_c, 1, 69, 0
4, 6336, Note_on_c, 1, 57, 66
4, 6381, Note_on_c, 1, 57, 0
4, 6432, Note_on_c, 1, 54, 75
4, 6447, Note_on_c, 1, 54, 0
4, 6448, Note_on_c, 1, 57, 75
4, 6463, Note_on_c, 1, 57, 0
4, 6464, Note_on_c, 1, 62, 75
4, 6479, Note_on_c, 1, 62, 0
4, 6480, Note_on_c, 1, 55, 75
4, 6495, Note_on_c, 1, 55, 0
4, 6496, Note_on_c, 1, 59, 75
4, 6511, Note_on_c, 1, 59, 0
4, 6512, Note_on_c, 1, 62, 75
4, 6527, Note_on_c, 1, 62, 0
4, 6528, Note_on_c, 1, 54, 75
4, 6617, Note_on_c, 1, 54, 0
4, 6624, Note_on_c, 1, 54, 75
4, 6639, Note_on_c, 1, 54, 0
4, 6640, Note_on_c, 1, 57, 75
4, 6655, Note_on_c, 1, 57, 0
4, 6656, Note_on_c, 1, 62, 75
4, 6671, Note_on_c, 1, 62, 0
4, 6672, Note_on_c, 1, 55, 75
4, 6687, Note_on_c, 1, 55, 0
4, 6688, Note_on_c, 1, 59, 75
4, 6703, Note_on_c, 1, 59, 0
4, 6704, Note_on_c, 1, 62, 75
4, 6719, Note_on_c, 1, 62, 0
4, 6720, Note_on_c, 1, 54, 75
4, 6765, Note_on_c, 1, 54, 0
4, 6816, Note_on_c, 1, 55, 75
4, 6816, Note_on_c, 1, 43, 75
4, 6861, Note_on_c, 1, 55, 0
4, 6861, Note_on_c, 1, 43, 0
4, 6960, Note_on_c, 1, 59, 75
4, 6960, Note_on_c, 1, 47, 75
4, 7005, Note_on_c, 1, 59, 0
4, 7005, Note_on_c, 1, 47, 0
4, 7008, Note_on_c, 1, 55, 75
4, 7008, Note_on_c, 1, 43, 75
4, 7053, Note_on_c, 1, 55, 0
4, 7053, Note_on_c, 1, 43, 0
4, 7056, Note_on_c, 1, 57, 75
4, 7056, Note_on_c, 1, 45, 75
4, 7101, Note_on_c, 1, 57, 0
4, 7101, Note_on_c, 1, 45, 0
4, 7104, Note_on_c, 1, 50, 75
4, 7149, Note_on_c, 1, 50, 0
4, 7152, Note_on_c, 1, 45, 75
4, 7197, Note_on_c, 1, 45, 0
4, 7200, Note_on_c, 1, 38, 75
4, 7245, Note_on_c, 1, 38, 0
4, 7344, Note_on_c, 1, 55, 75
4, 7389, Note_on_c, 1, 55, 0
4, 7392, Note_on_c, 1, 59, 75
4, 7437, Note_on_c, 1, 59, 0
4, 7440, Note_on_c, 1, 55, 75
4, 7485, Note_on_c, 1, 55, 0
4, 7488, Note_on_c, 1, 57, 75
4, 7555, Note_on_c, 1, 57, 0
4, 7560, Note_on_c, 1, 60, 75
4, 7583, Note_on_c, 1, 60, 0
4, 7584, Note_on_c, 1, 54, 75
4, 7629, Note_on_c, 1, 54, 0
4, 7632, Note_on_c, 1, 66, 75
4, 7677, Note_on_c, 1, 66, 0
4, 7680, Note_on_c, 1, 67, 75
4, 7725, Note_on_c, 1, 67, 0
4, 7728, Note_on_c, 1, 60, 75
4, 7751, Note_on_c, 1, 60, 0
4, 7752, Note_on_c, 1, 62, 75
4, 7775, Note_on_c, 1, 62, 0
4, 7776, Note_on_c, 1, 64, 75
4, 7821, Note_on_c, 1, 64, 0
4, 7824, Note_on_c, 1, 60, 75
4, 7869, Note_on_c, 1, 60, 0
4, 7872, Note_on_c, 1, 62, 75
4, 7917, Note_on_c, 1, 62, 0
4, 7920, Note_on_c, 1, 55, 75
4, 7965, Note_on_c, 1, 55, 0
4, 8112, Note_on_c, 1, 43, 81
4, 8146, Note_on_c, 1, 43, 0
4, 8148, Note_on_c, 1, 45, 81
4, 8160, Note_on_c, 1, 45, 0
4, 8160, Note_on_c, 1, 47, 81
4, 8205, Note_on_c, 1, 47, 0
4, 8208, Note_on_c, 1, 49, 81
4, 8253, Note_on_c, 1, 49, 0
4, 8256, Note_on_c, 1, 50, 81
4, 8345, Note_on_c, 1, 50, 0
4, 8388, Note_on_c, 1, 50, 81
4, 8400, Note_on_c, 1, 50, 0
4, 8400, Note_on_c, 1, 52, 81
4, 8434, Note_on_c, 1, 52, 0
4, 8436, Note_on_c, 1, 54, 81
4, 8448, Note_on_c, 1, 54, 0
4, 8448, Note_on_c, 1, 55, 81
4, 8537, Note_on_c, 1, 55, 0
4, 8592, Note_on_c, 1, 67, 75
4, 8637, Note_on_c, 1, 67, 0
4, 8640, Note_on_c, 1, 67, 75
4, 8685, Note_on_c, 1, 67, 0
4, 8688, Note_on_c, 1, 66, 75
4, 8733, Note_on_c, 1, 66, 0
4, 8916, Note_on_c, 1, 62, 75
4, 8928, Note_on_c, 1, 62, 0
4, 8928, Note_on_c, 1, 62, 75
4, 9017, Note_on_c, 1, 62, 0
4, 9108, Note_on_c, 1, 62, 75
4, 9120, Note_on_c, 1, 62, 0
4, 9120, Note_on_c, 1, 62, 75
4, 9209, Note_on_c, 1, 62, 0
4, 9216, Note_on_c, 1, 67, 75
4, 9216, Note_on_c, 1, 61, 75
4, 9261, Note_on_c, 1, 67, 0
4, 9261, Note_on_c, 1, 61, 0
4, 9264, Note_on_c, 1, 67, 72
4, 9264, Note_on_c, 1, 61, 72
4, 9309, Note_on_c, 1, 67, 0
4, 9309, Note_on_c, 1, 61, 0
4, 9312, Note_on_c, 1, 67, 70
4, 9312, Note_on_c, 1, 61, 70
4, 9357, Note_on_c, 1, 67, 0
4, 9357, Note_on_c, 1, 61, 0
4, 9360, Note_on_c, 1, 67, 71
4, 9360, Note_on_c, 1, 61, 71
4, 9453, Note_on_c, 1, 67, 0
4, 9453, Note_on_c, 1, 61, 0
4, 9504, Note_on_c, 1, 57, 75
4, 9549, Note_on_c, 1, 57, 0
4, 9552, Note_on_c, 1, 61, 75
4, 9597, Note_on_c, 1, 61, 0
4, 9600, Note_on_c, 1, 62, 75
4, 9689, Note_on_c, 1, 62, 0
4, 9744, Note_on_c, 1, 54, 75
4, 9789, Note_on_c, 1, 54, 0
4, 9792, Note_on_c, 1, 55, 75
4, 9881, Note_on_c, 1, 55, 0
4, 9936, Note_on_c, 1, 56, 75
4, 9981, Note_on_c, 1, 56, 0
4, 9984, Note_on_c, 1, 57, 75
4, 10029, Note_on_c, 1, 57, 0
4, 10032, Note_on_c, 1, 45, 75
4, 10077, Note_on_c, 1, 45, 0
4, 10104, Note_on_c, 1, 57, 81
4, 10116, Note_on_c, 1, 57, 0
4, 10116, Note_on_c, 1, 59, 81
4, 10128, Note_on_c, 1, 59, 0
4, 10128, Note_on_c, 1, 61, 81
4, 10151, Note_on_c, 1, 61, 0
4, 10152, Note_on_c, 1, 57, 81
4, 10175, Note_on_c, 1, 57, 0
4, 10176, Note_on_c, 1, 64, 81
4, 10221, Note_on_c, 1, 64, 0
4, 10224, Note_on_c, 1, 52, 81
4, 10269, Note_on_c, 1, 52, 0
4, 10296, Note_on_c, 1, 52, 81
4, 10308, Note_on_c, 1, 52, 0
4, 10308, Note_on_c, 1, 54, 81
4, 10320, Note_on_c, 1, 54, 0
4, 10320, Note_on_c, 1, 56, 81
4, 10343, Note_on_c, 1, 56, 0
4, 10344, Note_on_c, 1, 52, 81
4, 10367, Note_on_c, 1, 52, 0
4, 10368, Note_on_c, 1, 57, 81
4, 10413, Note_on_c, 1, 57, 0
4, 10416, Note_on_c, 1, 45, 81
4, 10461, Note_on_c, 1, 45, 0
4, 10488, Note_on_c, 1, 45, 81
4, 10500, Note_on_c, 1, 45, 0
4, 10500, Note_on_c, 1, 47, 81
4, 10512, Note_on_c, 1, 47, 0
4, 10512, Note_on_c, 1, 49, 81
4, 10535, Note_on_c, 1, 49, 0
4, 10536, Note_on_c, 1, 45, 81
4, 10559, Note_on_c, 1, 45, 0
4, 10560, Note_on_c, 1, 50, 81
4, 10605, Note_on_c, 1, 50, 0
4, 10608, Note_on_c, 1, 38, 75
4, 10653, Note_on_c, 1, 38, 0
4, 10656, Note_on_c, 1, 40, 75
4, 10701, Note_on_c, 1, 40, 0
4, 10704, Note_on_c, 1, 52, 75
4, 10749, Note_on_c, 1, 52, 0
4, 10752, Note_on_c, 1, 54, 75
4, 10797, Note_on_c, 1, 54, 0
4, 10800, Note_on_c, 1, 42, 75
4, 10845, Note_on_c, 1, 42, 0
4, 10848, Note_on_c, 1, 55, 75
4, 10893, Note_on_c, 1, 55, 0
4, 10896, Note_on_c, 1, 52, 75
4, 10941, Note_on_c, 1, 52, 0
4, 10944, Note_on_c, 1, 57, 75
4, 10989, Note_on_c, 1, 57, 0
4, 10992, Note_on_c, 1, 45, 75
4, 11037, Note_on_c, 1, 45, 0
4, 11040, Note_on_c, 1, 61, 66
4, 11040, Note_on_c, 1, 57, 66
4, 11063, Note_on_c, 1, 61, 0
4, 11063, Note_on_c, 1, 57, 0
4, 11064, Note_on_c, 1, 61, 66
4, 11064, Note_on_c, 1, 57, 66
4, 11087, Note_on_c, 1, 61, 0
4, 11087, Note_on_c, 1, 57, 0
4, 11088, Note_on_c, 1, 61, 66
4, 11088, Note_on_c, 1, 57, 66
4, 11111, Note_on_c, 1, 61, 0
4, 11111, Note_on_c, 1, 57, 0
4, 11112, Note_on_c, 1, 61, 66
4, 11112, Note_on_c, 1, 57, 66
4, 11135, Note_on_c, 1, 61, 0
4, 11135, Note_on_c, 1, 57, 0
4, 11136, Note_on_c, 1, 62, 66
4, 11136, Note_on_c, 1, 57, 66
4, 11159, Note_on_c, 1, 62, 0
4, 11159, Note_on_c, 1, 57, 0
4, 11160, Note_on_c, 1, 62, 66
4, 11160, Note_on_c, 1, 57, 66
4, 11183, Note_on_c, 1, 62, 0
4, 11183, Note_on_c, 1, 57, 0
4, 11184, Note_on_c, 1, 62, 66
4, 11184, Note_on_c, 1, 57, 66
4, 11207, Note_on_c, 1, 62, 0
4, 11207, Note_on_c, 1, 57, 0
4, 11208, Note_on_c, 1, 62, 66
4, 11208, Note_on_c, 1, 57, 66
4, 11231, Note_on_c, 1, 62, 0
4, 11231, Note_on_c, 1, 57, 0
4, 11232, Note_on_c, 1, 64, 66
4, 11232, Note_on_c, 1, 57, 66
4, 11255, Note_on_c, 1, 64, 0
4, 11255, Note_on_c, 1, 57, 0
4, 11256, Note_on_c, 1, 64, 66
4, 11256, Note_on_c, 1, 57, 66
4, 11279, Note_on_c, 1, 64, 0
4, 11279, Note_on_c, 1, 57, 0
4, 11280, Note_on_c, 1, 64, 66
4, 11280, Note_on_c, 1, 57, 66
4, 11303, Note_on_c, 1, 64, 0
4, 11303, Note_on_c, 1, 57, 0
4, 11304, Note_on_c, 1, 64, 66
4, 11304, Note_on_c, 1, 57, 66
4, 11327, Note_on_c, 1, 64, 0
4, 11327, Note_on_c, 1, 57, 0
4, 11328, Note_on_c, 1, 62, 66
4, 11328, Note_on_c, 1, 57, 66
4, 11351, Note_on_c, 1, 62, 0
4, 11351, Note_on_c, 1, 57, 0
4, 11352, Note_on_c, 1, 62, 66
4, 11352, Note_on_c, 1, 57, 66
4, 11375, Note_on_c, 1, 62, 0
4, 11375, Note_on_c, 1, 57, 0
4, 11376, Note_on_c, 1, 62, 66
4, 11376, Note_on_c, 1, 57, 66
4, 11399, Note_on_c, 1, 62, 0
4, 11399, Note_on_c, 1, 57, 0
4, 11400, Note_on_c, 1, 62, 66
4, 11400, Note_on_c, 1, 57, 66
4, 11423, Note_on_c, 1, 62, 0
4, 11423, Note_on_c, 1, 57, 0
4, 11424, Note_on_c, 1, 62, 66
4, 11424, Note_on_c, 1, 57, 66
4, 11447, Note_on_c, 1, 62, 0
4, 11447, Note_on_c, 1, 57, 0
4, 11448, Note_on_c, 1, 62, 66
4, 11448, Note_on_c, 1, 57, 66
4, 11471, Note_on_c, 1, 62, 0
4, 11471, Note_on_c, 1, 57, 0
4, 11472, Note_on_c, 1, 62, 66
4, 11472, Note_on_c, 1, 57, 66
4, 11495, Note_on_c, 1, 62, 0
4, 11495, Note_on_c, 1, 57, 0
4, 11496, Note_on_c, 1, 62, 66
4, 11496, Note_on_c, 1, 57, 66
4, 11519, Note_on_c, 1, 62, 0
4, 11519, Note_on_c, 1, 57, 0
4, 11520, Note_on_c, 1, 61, 66
4, 11520, Note_on_c, 1, 57, 66
4, 11543, Note_on_c, 1, 61, 0
4, 11543, Note_on_c, 1, 57, 0
4, 11544, Note_on_c, 1, 61, 66
4, 11544, Note_on_c, 1, 57, 66
4, 11567, Note_on_c, 1, 61, 0
4, 11567, Note_on_c, 1, 57, 0
4, 11568, Note_on_c, 1, 61, 66
4, 11568, Note_on_c, 1, 57, 66
4, 11591, Note_on_c, 1, 61, 0
4, 11591, Note_on_c, 1, 57, 0
4, 11592, Note_on_c, 1, 61, 66
4, 11592, Note_on_c, 1, 57, 66
4, 11615, Note_on_c, 1, 61, 0
4, 11615, Note_on_c, 1, 57, 0
4, 11616, Note_on_c, 1, 62, 66
4, 11616, Note_on_c, 1, 57, 66
4, 11639, Note_on_c, 1, 62, 0
4, 11639, Note_on_c, 1, 57, 0
4, 11640, Note_on_c, 1, 62, 66
4, 11640, Note_on_c, 1, 57, 66
4, 11663, Note_on_c, 1, 62, 0
4, 11663, Note_on_c, 1, 57, 0
4, 11664, Note_on_c, 1, 62, 66
4, 11664, Note_on_c, 1, 57, 66
4, 11687, Note_on_c, 1, 62, 0
4, 11687, Note_on_c, 1, 57, 0
4, 11688, Note_on_c, 1, 62, 66
4, 11688, Note_on_c, 1, 57, 66
4, 11711, Note_on_c, 1, 62, 0
4, 11711, Note_on_c, 1, 57, 0
4, 11712, Note_on_c, 1, 61, 66
4, 11712, Note_on_c, 1, 57, 66
4, 11757, Note_on_c, 1, 61, 0
4, 11757, Note_on_c, 1, 57, 0
4, 11808, Note_on_c, 1, 54, 75
4, 11823, Note_on_c, 1, 54, 0
4, 11824, Note_on_c, 1, 57, 75
4, 11839, Note_on_c, 1, 57, 0
4, 11840, Note_on_c, 1, 62, 75
4, 11855, Note_on_c, 1, 62, 0
4, 11856, Note_on_c, 1, 55, 75
4, 11871, Note_on_c, 1, 55, 0
4, 11872, Note_on_c, 1, 59, 75
4, 11887, Note_on_c, 1, 59, 0
4, 11888, Note_on_c, 1, 62, 75
4, 11903, Note_on_c, 1, 62, 0
4, 11904, Note_on_c, 1, 54, 75
4, 11993, Note_on_c, 1, 54, 0
4, 12000, Note_on_c, 1, 54, 75
4, 12015, Note_on_c, 1, 54, 0
4, 12016, Note_on_c, 1, 57, 75
4, 12031, Note_on_c, 1, 57, 0
4, 12032, Note_on_c, 1, 62, 75
4, 12047, Note_on_c, 1, 62, 0
4, 12048, Note_on_c, 1, 55, 75
4, 12063, Note_on_c, 1, 55, 0
4, 12064, Note_on_c, 1, 59, 75
4, 12079, Note_on_c, 1, 59, 0
4, 12080, Note_on_c, 1, 62, 75
4, 12095, Note_on_c, 1, 62, 0
4, 12096, Note_on_c, 1, 54, 75
4, 12141, Note_on_c, 1, 54, 0
4, 12192, Note_on_c, 1, 55, 75
4, 12192, Note_on_c, 1, 43, 75
4, 12237, Note_on_c, 1, 55, 0
4, 12237, Note_on_c, 1, 43, 0
4, 12336, Note_on_c, 1, 59, 75
4, 12336, Note_on_c, 1, 47, 75
4, 12381, Note_on_c, 1, 59, 0
4, 12381, Note_on_c, 1, 47, 0
4, 12384, Note_on_c, 1, 55, 75
4, 12384, Note_on_c, 1, 43, 75
4, 12429, Note_on_c, 1, 55, 0
4, 12429, Note_on_c, 1, 43, 0
4, 12432, Note_on_c, 1, 57, 75
4, 12432, Note_on_c, 1, 45, 75
4, 12477, Note_on_c, 1, 57, 0
4, 12477, Note_on_c, 1, 45, 0
4, 12480, Note_on_c, 1, 50, 75
4, 12525, Note_on_c, 1, 50, 0
4, 12528, Note_on_c, 1, 38, 75
4, 12573, Note_on_c, 1, 38, 0
4, 12576, Note_on_c, 1, 61, 66
4, 12591, Note_on_c, 1, 61, 0
4, 12592, Note_on_c, 1, 64, 66
4, 12607, Note_on_c, 1, 64, 0
4, 12608, Note_on_c, 1, 69, 66
4, 12623, Note_on_c, 1, 69, 0
4, 12624, Note_on_c, 1, 61, 66
4, 12639, Note_on_c, 1, 61, 0
4, 12640, Note_on_c, 1, 64, 66
4, 12655, Note_on_c, 1, 64, 0
4, 12656, Note_on_c, 1, 69, 66
4, 12671, Note_on_c, 1, 69, 0
4, 12672, Note_on_c, 1, 62, 66
4, 12687, Note_on_c, 1, 62, 0
4, 12688, Note_on_c, 1, 65, 66
4, 12703, Note_on_c, 1, 65, 0
4, 12704, Note_on_c, 1, 69, 66
4, 12719, Note_on_c, 1, 69, 0
4, 12720, Note_on_c, 1, 61, 66
4, 12735, Note_on_c, 1, 61, 0
4, 12736, Note_on_c, 1, 64, 66
4, 12751, Note_on_c, 1, 64, 0
4, 12752, Note_on_c, 1, 69, 66
4, 12767, Note_on_c, 1, 69, 0
4, 12768, Note_on_c, 1, 61, 66
4, 12783, Note_on_c, 1, 61, 0
4, 12784, Note_on_c, 1, 64, 66
4, 12799, Note_on_c, 1, 64, 0
4, 12800, Note_on_c, 1, 69, 66
4, 12815, Note_on_c, 1, 69, 0
4, 12816, Note_on_c, 1, 61, 66
4, 12831, Note_on_c, 1, 61, 0
4, 12832, Note_on_c, 1, 64, 66
4, 12847, Note_on_c, 1, 64, 0
4, 12848, Note_on_c, 1, 69, 66
4, 12863, Note_on_c, 1, 69, 0
4, 12864, Note_on_c, 1, 62, 66
4, 12879, Note_on_c, 1, 62, 0
4, 12880, Note_on_c, 1, 65, 66
4, 12895, Note_on_c, 1, 65, 0
4, 12896, Note_on_c, 1, 69, 66
4, 12911, Note_on_c, 1, 69, 0
4, 12912, Note_on_c, 1, 61, 66
4, 12927, Note_on_c, 1, 61, 0
4, 12928, Note_on_c, 1, 64, 66
4, 12943, Note_on_c, 1, 64, 0
4, 12944, Note_on_c, 1, 69, 66
4, 12959, Note_on_c, 1, 69, 0
4, 12960, Note_on_c, 1, 61, 66
4, 12975, Note_on_c, 1, 61, 0
4, 12976, Note_on_c, 1, 64, 66
4, 12991, Note_on_c, 1, 64, 0
4, 12992, Note_on_c, 1, 69, 66
4, 13007, Note_on_c, 1, 69, 0
4, 13008, Note_on_c, 1, 61, 66
4, 13023, Note_on_c, 1, 61, 0
4, 13024, Note_on_c, 1, 64, 66
4, 13039, Note_on_c, 1, 64, 0
4, 13040, Note_on_c, 1, 69, 66
4, 13055, Note_on_c, 1, 69, 0
4, 13056, Note_on_c, 1, 62, 66
4, 13071, Note_on_c, 1, 62, 0
4, 13072, Note_on_c, 1, 65, 66
4, 13087, Note_on_c, 1, 65, 0
4, 13088, Note_on_c, 1, 69, 66
4, 13103, Note_on_c, 1, 69, 0
4, 13104, Note_on_c, 1, 62, 66
4, 13119, Note_on_c, 1, 62, 0
4, 13120, Note_on_c, 1, 65, 66
4, 13135, Note_on_c, 1, 65, 0
4, 13136, Note_on_c, 1, 69, 66
4, 13151, Note_on_c, 1, 69, 0
4, 13152, Note_on_c, 1, 62, 66
4, 13167, Note_on_c, 1, 62, 0
4, 13168, Note_on_c, 1, 65, 66
4, 13183, Note_on_c, 1, 65, 0
4, 13184, Note_on_c, 1, 69, 66
4, 13199, Note_on_c, 1, 69, 0
4, 13200, Note_on_c, 1, 62, 66
4, 13215, Note_on_c, 1, 62, 0
4, 13216, Note_on_c, 1, 65, 66
4, 13231, Note_on_c, 1, 65, 0
4, 13232, Note_on_c, 1, 69, 66
4, 13247, Note_on_c, 1, 69, 0
4, 13248, Note_on_c, 1, 57, 66
4, 13293, Note_on_c, 1, 57, 0
4, 13344, Note_on_c, 1, 54, 75
4, 13359, Note_on_c, 1, 54, 0
4, 13360, Note_on_c, 1, 57, 75
4, 13375, Note_on_c, 1, 57, 0
4, 13376, Note_on_c, 1, 62, 75
4, 13391, Note_on_c, 1, 62, 0
4, 13392, Note_on_c, 1, 55, 75
4, 13407, Note_on_c, 1, 55, 0
4, 13408, Note_on_c, 1, 59, 75
4, 13423, Note_on_c, 1, 59, 0
4, 13424, Note_on_c, 1, 62, 75
4, 13439, Note_on_c, 1, 62, 0
4, 13440, Note_on_c, 1, 54, 75
4, 13529, Note_on_c, 1, 54, 0
4, 13536, Note_on_c, 1, 54, 75
4, 13551, Note_on_c, 1, 54, 0
4, 13552, Note_on_c, 1, 57, 75
4, 13567, Note_on_c, 1, 57, 0
4, 13568, Note_on_c, 1, 62, 75
4, 13583, Note_on_c, 1, 62, 0
4, 13584, Note_on_c, 1, 55, 75
4, 13599, Note_on_c, 1, 55, 0
4, 13600, Note_on_c, 1, 59, 75
4, 13615, Note_on_c, 1, 59, 0
4, 13616, Note_on_c, 1, 62, 75
4, 13631, Note_on_c, 1, 62, 0
4, 13632, Note_on_c, 1, 54, 75
4, 13677, Note_on_c, 1, 54, 0
4, 13728, Note_on_c, 1, 55, 75
4, 13728, Note_on_c, 1, 43, 75
4, 13773, Note_on_c, 1, 55, 0
4, 13773, Note_on_c, 1, 43, 0
4, 13872, Note_on_c, 1, 59, 75
4, 13872, Note_on_c, 1, 47, 75
4, 13917, Note_on_c, 1, 59, 0
4, 13917, Note_on_c, 1, 47, 0
4, 13920, Note_on_c, 1, 55, 75
4, 13920, Note_on_c, 1, 43, 75
4, 13965, Note_on_c, 1, 55, 0
4, 13965, Note_on_c, 1, 43, 0
4, 13968, Note_on_c, 1, 57, 75
4, 13968, Note_on_c, 1, 45, 75
4, 14013, Note_on_c, 1, 57, 0
4, 14013, Note_on_c, 1, 45, 0
4, 14016, Note_on_c, 1, 50, 75
4, 14061, Note_on_c, 1, 50, 0
4, 14064, Note_on_c, 1, 45, 75
4, 14109, Note_on_c, 1, 45, 0
4, 14112, Note_on_c, 1, 38, 75
4, 14157, Note_on_c, 1, 38, 0
4, 14256, Note_on_c, 1, 62, 75
4, 14301, Note_on_c, 1, 62, 0
4, 14304, Note_on_c, 1, 66, 75
4, 14349, Note_on_c, 1, 66, 0
4, 14352, Note_on_c, 1, 62, 75
4, 14397, Note_on_c, 1, 62, 0
4, 14400, Note_on_c, 1, 64, 75
4, 14467, Note_on_c, 1, 64, 0
4, 14472, Note_on_c, 1, 67, 75
4, 14495, Note_on_c, 1, 67, 0
4, 14496, Note_on_c, 1, 61, 75
4, 14541, Note_on_c, 1, 61, 0
4, 14544, Note_on_c, 1, 73, 75
4, 14589, Note_on_c, 1, 73, 0
4, 14592, Note_on_c, 1, 74, 75
4, 14637, Note_on_c, 1, 74, 0
4, 14640, Note_on_c, 1, 67, 75
4, 14663, Note_on_c, 1, 67, 0
4, 14664, Note_on_c, 1, 69, 75
4, 14687, Note_on_c, 1, 69, 0
4, 14688, Note_on_c, 1, 71, 75
4, 14733, Note_on_c, 1, 71, 0
4, 14736, Note_on_c, 1, 67, 75
4, 14781, Note_on_c, 1, 67, 0
4, 14784, Note_on_c, 1, 69, 75
4, 14829, Note_on_c, 1, 69, 0
4, 14832, Note_on_c, 1, 62, 75
4, 14877, Note_on_c, 1, 62, 0
4, 14976, Note_on_c, 1, 55, 70
4, 14991, Note_on_c, 1, 55, 0
4, 14992, Note_on_c, 1, 59, 70
4, 15007, Note_on_c, 1, 59, 0
4, 15008, Note_on_c, 1, 62, 70
4, 15023, Note_on_c, 1, 62, 0
4, 15024, Note_on_c, 1, 55, 70
4, 15039, Note_on_c, 1, 55, 0
4, 15040, Note_on_c, 1, 59, 70
4, 15055, Note_on_c, 1, 59, 0
4, 15056, Note_on_c, 1, 62, 70
4, 15071, Note_on_c, 1, 62, 0
4, 15072, Note_on_c, 1, 55, 70
4, 15087, Note_on_c, 1, 55, 0
4, 15088, Note_on_c, 1, 59, 70
4, 15103, Note_on_c, 1, 59, 0
4, 15104, Note_on_c, 1, 62, 70
4, 15119, Note_on_c, 1, 62, 0
4, 15120, Note_on_c, 1, 55, 70
4, 15135, Note_on_c, 1, 55, 0
4, 15136, Note_on_c, 1, 59, 70
4, 15151, Note_on_c, 1, 59, 0
4, 15152, Note_on_c, 1, 62, 70
4, 15167, Note_on_c, 1, 62, 0
4, 15168, Note_on_c, 1, 56, 70
4, 15183, Note_on_c, 1, 56, 0
4, 15184, Note_on_c, 1, 59, 70
4, 15199, Note_on_c, 1, 59, 0
4, 15200, Note_on_c, 1, 62, 70
4, 15215, Note_on_c, 1, 62, 0
4, 15216, Note_on_c, 1, 56, 70
4, 15231, Note_on_c, 1, 56, 0
4, 15232, Note_on_c, 1, 59, 70
4, 15247, Note_on_c, 1, 59, 0
4, 15248, Note_on_c, 1, 62, 70
4, 15263, Note_on_c, 1, 62, 0
4, 15264, Note_on_c, 1, 56, 70
4, 15279, Note_on_c, 1, 56, 0
4, 15280, Note_on_c, 1, 59, 70
4, 15295, Note_on_c, 1, 59, 0
4, 15296, Note_on_c, 1, 62, 70
4, 15311, Note_on_c, 1, 62, 0
4, 15312, Note_on_c, 1, 56, 70
4, 15327, Note_on_c, 1, 56, 0
4, 15328, Note_on_c, 1, 59, 70
4, 15343, Note_on_c, 1, 59, 0
4, 15344, Note_on_c, 1, 62, 70
4, 15359, Note_on_c, 1, 62, 0
4, 15360, Note_on_c, 1, 57, 81
4, 15405, Note_on_c, 1, 57, 0
4, 15408, Note_on_c, 1, 60, 81
4, 15408, Note_on_c, 1, 48, 81
4, 15453, Note_on_c, 1, 60, 0
4, 15453, Note_on_c, 1, 48, 0
4, 15456, Note_on_c, 1, 62, 81
4, 15456, Note_on_c, 1, 50, 81
4, 15501, Note_on_c, 1, 62, 0
4, 15501, Note_on_c, 1, 50, 0
4, 15504, Note_on_c, 1, 64, 81
4, 15504, Note_on_c, 1, 52, 81
4, 15549, Note_on_c, 1, 64, 0
4, 15549, Note_on_c, 1, 52, 0
4, 15552, Note_on_c, 1, 57, 70
4, 15567, Note_on_c, 1, 57, 0
4, 15568, Note_on_c, 1, 60, 70
4, 15583, Note_on_c, 1, 60, 0
4, 15584, Note_on_c, 1, 64, 70
4, 15599, Note_on_c, 1, 64, 0
4, 15600, Note_on_c, 1, 57, 70
4, 15615, Note_on_c, 1, 57, 0
4, 15616, Note_on_c, 1, 60, 70
4, 15631, Note_on_c, 1, 60, 0
4, 15632, Note_on_c, 1, 64, 70
4, 15647, Note_on_c, 1, 64, 0
4, 15648, Note_on_c, 1, 55, 70
4, 15663, Note_on_c, 1, 55, 0
4, 15664, Note_on_c, 1, 60, 70
4, 15679, Note_on_c, 1, 60, 0
4, 15680, Note_on_c, 1, 64, 70
4, 15695, Note_on_c, 1, 64, 0
4, 15696, Note_on_c, 1, 55, 70
4, 15711, Note_on_c, 1, 55, 0
4, 15712, Note_on_c, 1, 60, 70
4, 15727, Note_on_c, 1, 60, 0
4, 15728, Note_on_c, 1, 64, 70
4, 15743, Note_on_c, 1, 64, 0
4, 15744, Note_on_c, 1, 54, 70
4, 15759, Note_on_c, 1, 54, 0
4, 15760, Note_on_c, 1, 57, 70
4, 15775, Note_on_c, 1, 57, 0
4, 15776, Note_on_c, 1, 62, 70
4, 15791, Note_on_c, 1, 62, 0
4, 15792, Note_on_c, 1, 54, 70
4, 15807, Note_on_c, 1, 54, 0
4, 15808, Note_on_c, 1, 57, 70
4, 15823, Note_on_c, 1, 57, 0
4, 15824, Note_on_c, 1, 62, 70
4, 15839, Note_on_c, 1, 62, 0
4, 15840, Note_on_c, 1, 54, 70
4, 15855, Note_on_c, 1, 54, 0
4, 15856, Note_on_c, 1, 57, 70
4, 15871, Note_on_c, 1, 57, 0
4, 15872, Note_on_c, 1, 62, 70
4, 15887, Note_on_c, 1, 62, 0
4, 15888, Note_on_c, 1, 54, 70
4, 15903, Note_on_c, 1, 54, 0
4, 15904, Note_on_c, 1, 57, 70
4, 15919, Note_on_c, 1, 57, 0
4, 15920, Note_on_c, 1, 62, 70
4, 15935, Note_on_c, 1, 62, 0
4, 15936, Note_on_c, 1, 55, 70
4, 15951, Note_on_c, 1, 55, 0
4, 15952, Note_on_c, 1, 59, 70
4, 15967, Note_on_c, 1, 59, 0
4, 15968, Note_on_c, 1, 62, 70
4, 15983, Note_on_c, 1, 62, 0
4, 15984, Note_on_c, 1, 55, 70
4, 15999, Note_on_c, 1, 55, 0
4, 16000, Note_on_c, 1, 59, 70
4, 16015, Note_on_c, 1, 59, 0
4, 16016, Note_on_c, 1, 62, 70
4, 16031, Note_on_c, 1, 62, 0
4, 16032, Note_on_c, 1, 52, 70
4, 16047, Note_on_c, 1, 52, 0
4, 16048, Note_on_c, 1, 55, 70
4, 16063, Note_on_c, 1, 55, 0
4, 16064, Note_on_c, 1, 60, 70
4, 16079, Note_on_c, 1, 60, 0
4, 16080, Note_on_c, 1, 52, 70
4, 16095, Note_on_c, 1, 52, 0
4, 16096, Note_on_c, 1, 55, 70
4, 16111, Note_on_c, 1, 55, 0
4, 16112, Note_on_c, 1, 60, 70
4, 16127, Note_on_c, 1, 60, 0
4, 16128, Note_on_c, 1, 54, 70
4, 16143, Note_on_c, 1, 54, 0
4, 16144, Note_on_c, 1, 57, 70
4, 16159, Note_on_c, 1, 57, 0
4, 16160, Note_on_c, 1, 60, 70
4, 16175, Note_on_c, 1, 60, 0
4, 16176, Note_on_c, 1, 54, 70
4, 16191, Note_on_c, 1, 54, 0
4, 16192, Note_on_c, 1, 57, 70
4, 16207, Note_on_c, 1, 57, 0
4, 16208, Note_on_c, 1, 60, 70
4, 16223, Note_on_c, 1, 60, 0
4, 16224, Note_on_c, 1, 51, 70
4, 16239, Note_on_c, 1, 51, 0
4, 16240, Note_on_c, 1, 54, 70
4, 16255, Note_on_c, 1, 54, 0
4, 16256, Note_on_c, 1, 59, 70
4, 16271, Note_on_c, 1, 59, 0
4, 16272, Note_on_c, 1, 51, 70
4, 16287, Note_on_c, 1, 51, 0
4, 16288, Note_on_c, 1, 54, 70
4, 16303, Note_on_c, 1, 54, 0
4, 16304, Note_on_c, 1, 59, 69
4, 16319, Note_on_c, 1, 59, 0
4, 16320, Note_on_c, 1, 52, 69
4, 16335, Note_on_c, 1, 52, 0
4, 16336, Note_on_c, 1, 55, 68
4, 16351, Note_on_c, 1, 55, 0
4, 16352, Note_on_c, 1, 59, 68
4, 16367, Note_on_c, 1, 59, 0
4, 16368, Note_on_c, 1, 52, 67
4, 16383, Note_on_c, 1, 52, 0
4, 16384, Note_on_c, 1, 55, 66
4, 16399, Note_on_c, 1, 55, 0
4, 16400, Note_on_c, 1, 59, 66
4, 16415, Note_on_c, 1, 59, 0
4, 16416, Note_on_c, 1, 55, 66
4, 16431, Note_on_c, 1, 55, 0
4, 16432, Note_on_c, 1, 59, 66
4, 16447, Note_on_c, 1, 59, 0
4, 16448, Note_on_c, 1, 64, 66
4, 16463, Note_on_c, 1, 64, 0
4, 16464, Note_on_c, 1, 57, 66
4, 16479, Note_on_c, 1, 57, 0
4, 16480, Note_on_c, 1, 60, 66
4, 16495, Note_on_c, 1, 60, 0
4, 16496, Note_on_c, 1, 64, 66
4, 16511, Note_on_c, 1, 64, 0
4, 16512, Note_on_c, 1, 55, 66
4, 16601, Note_on_c, 1, 55, 0
4, 16608, Note_on_c, 1, 55, 66
4, 16623, Note_on_c, 1, 55, 0
4, 16624, Note_on_c, 1, 59, 66
4, 16639, Note_on_c, 1, 59, 0
4, 16640, Note_on_c, 1, 64, 66
4, 16655, Note_on_c, 1, 64, 0
4, 16656, Note_on_c, 1, 57, 66
4, 16671, Note_on_c, 1, 57, 0
4, 16672, Note_on_c, 1, 60, 66
4, 16687, Note_on_c, 1, 60, 0
4, 16688, Note_on_c, 1, 64, 66
4, 16703, Note_on_c, 1, 64, 0
4, 16704, Note_on_c, 1, 55, 66
4, 16793, Note_on_c, 1, 55, 0
4, 16944, Note_on_c, 1, 55, 75
4, 16944, Note_on_c, 1, 43, 75
4, 16989, Note_on_c, 1, 55, 0
4, 16989, Note_on_c, 1, 43, 0
4, 16992, Note_on_c, 1, 57, 75
4, 16992, Note_on_c, 1, 45, 75
4, 17037, Note_on_c, 1, 57, 0
4, 17037, Note_on_c, 1, 45, 0
4, 17040, Note_on_c, 1, 59, 75
4, 17040, Note_on_c, 1, 47, 75
4, 17085, Note_on_c, 1, 59, 0
4, 17085, Note_on_c, 1, 47, 0
4, 17088, Note_on_c, 1, 64, 62
4, 17111, Note_on_c, 1, 64, 0
4, 17112, Note_on_c, 1, 67, 62
4, 17112, Note_on_c, 1, 64, 62
4, 17135, Note_on_c, 1, 67, 0
4, 17135, Note_on_c, 1, 64, 0
4, 17136, Note_on_c, 1, 67, 62
4, 17136, Note_on_c, 1, 64, 62
4, 17159, Note_on_c, 1, 67, 0
4, 17159, Note_on_c, 1, 64, 0
4, 17160, Note_on_c, 1, 67, 62
4, 17160, Note_on_c, 1, 64, 62
4, 17183, Note_on_c, 1, 67, 0
4, 17183, Note_on_c, 1, 64, 0
4, 17184, Note_on_c, 1, 67, 62
4, 17184, Note_on_c, 1, 64, 62
4, 17207, Note_on_c, 1, 67, 0
4, 17207, Note_on_c, 1, 64, 0
4, 17208, Note_on_c, 1, 67, 62
4, 17208, Note_on_c, 1, 64, 62
4, 17231, Note_on_c, 1, 67, 0
4, 17231, Note_on_c, 1, 64, 0
4, 17232, Note_on_c, 1, 67, 62
4, 17232, Note_on_c, 1, 64, 62
4, 17255, Note_on_c, 1, 67, 0
4, 17255, Note_on_c, 1, 64, 0
4, 17256, Note_on_c, 1, 67, 62
4, 17256, Note_on_c, 1, 64, 62
4, 17279, Note_on_c, 1, 67, 0
4, 17279, Note_on_c, 1, 64, 0
4, 17280, Note_on_c, 1, 67, 62
4, 17280, Note_on_c, 1, 64, 62
4, 17303, Note_on_c, 1, 67, 0
4, 17303, Note_on_c, 1, 64, 0
4, 17304, Note_on_c, 1, 67, 62
4, 17304, Note_on_c, 1, 64, 62
4, 17327, Note_on_c, 1, 67, 0
4, 17327, Note_on_c, 1, 64, 0
4, 17328, Note_on_c, 1, 67, 62
4, 17328, Note_on_c, 1, 64, 62
4, 17351, Note_on_c, 1, 67, 0
4, 17351, Note_on_c, 1, 64, 0
4, 17352, Note_on_c, 1, 67, 62
4, 17352, Note_on_c, 1, 64, 62
4, 17375, Note_on_c, 1, 67, 0
4, 17375, Note_on_c, 1, 64, 0
4, 17376, Note_on_c, 1, 67, 62
4, 17376, Note_on_c, 1, 64, 62
4, 17399, Note_on_c, 1, 67, 0
4, 17399, Note_on_c, 1, 64, 0
4, 17400, Note_on_c, 1, 67, 62
4, 17400, Note_on_c, 1, 64, 62
4, 17423, Note_on_c, 1, 67, 0
4, 17423, Note_on_c, 1, 64, 0
4, 17424, Note_on_c, 1, 67, 62
4, 17424, Note_on_c, 1, 64, 62
4, 17447, Note_on_c, 1, 67, 0
4, 17447, Note_on_c, 1, 64, 0
4, 17448, Note_on_c, 1, 67, 62
4, 17448, Note_on_c, 1, 64, 62
4, 17471, Note_on_c, 1, 67, 0
4, 17471, Note_on_c, 1, 64, 0
4, 17472, Note_on_c, 1, 67, 62
4, 17472, Note_on_c, 1, 64, 62
4, 17496, Note_on_c, 1, 67, 0
4, 17496, Note_on_c, 1, 64, 0
4, 17496, Note_on_c, 1, 67, 62
4, 17496, Note_on_c, 1, 64, 62
4, 17520, Note_on_c, 1, 67, 0
4, 17520, Note_on_c, 1, 64, 0
4, 17520, Note_on_c, 1, 67, 62
4, 17520, Note_on_c, 1, 64, 62
4, 17544, Note_on_c, 1, 67, 0
4, 17544, Note_on_c, 1, 64, 0
4, 17544, Note_on_c, 1, 67, 62
4, 17544, Note_on_c, 1, 64, 62
4, 17568, Note_on_c, 1, 67, 0
4, 17568, Note_on_c, 1, 64, 0
4, 17568, Note_on_c, 1, 67, 62
4, 17568, Note_on_c, 1, 64, 62
4, 17592, Note_on_c, 1, 67, 0
4, 17592, Note_on_c, 1, 64, 0
4, 17592, Note_on_c, 1, 67, 62
4, 17592, Note_on_c, 1, 64, 62
4, 17616, Note_on_c, 1, 67, 0
4, 17616, Note_on_c, 1, 64, 0
4, 17616, Note_on_c, 1, 67, 62
4, 17616, Note_on_c, 1, 64, 62
4, 17640, Note_on_c, 1, 67, 0
4, 17640, Note_on_c, 1, 64, 0
4, 17640, Note_on_c, 1, 67, 62
4, 17640, Note_on_c, 1, 64, 62
4, 17664, Note_on_c, 1, 67, 0
4, 17664, Note_on_c, 1, 64, 0
4, 17664, Note_on_c, 1, 67, 62
4, 17664, Note_on_c, 1, 64, 62
4, 17688, Note_on_c, 1, 67, 0
4, 17688, Note_on_c, 1, 64, 0
4, 17688, Note_on_c, 1, 67, 62
4, 17688, Note_on_c, 1, 64, 62
4, 17712, Note_on_c, 1, 67, 0
4, 17712, Note_on_c, 1, 64, 0
4, 17712, Note_on_c, 1, 67, 62
4, 17712, Note_on_c, 1, 64, 62
4, 17736, Note_on_c, 1, 67, 0
4, 17736, Note_on_c, 1, 64, 0
4, 17736, Note_on_c, 1, 67, 62
4, 17736, Note_on_c, 1, 64, 62
4, 17760, Note_on_c, 1, 67, 0
4, 17760, Note_on_c, 1, 64, 0
4, 17760, Note_on_c, 1, 67, 62
4, 17760, Note_on_c, 1, 64, 62
4, 17784, Note_on_c, 1, 67, 0
4, 17784, Note_on_c, 1, 64, 0
4, 17784, Note_on_c, 1, 67, 62
4, 17784, Note_on_c, 1, 64, 62
4, 17808, Note_on_c, 1, 67, 0
4, 17808, Note_on_c, 1, 64, 0
4, 17808, Note_on_c, 1, 67, 62
4, 17808, Note_on_c, 1, 64, 62
4, 17832, Note_on_c, 1, 67, 0
4, 17832, Note_on_c, 1, 64, 0
4, 17832, Note_on_c, 1, 67, 62
4, 17832, Note_on_c, 1, 64, 62
4, 17856, Note_on_c, 1, 67, 0
4, 17856, Note_on_c, 1, 64, 0
4, 17856, Note_on_c, 1, 66, 62
4, 17856, Note_on_c, 1, 62, 62
4, 17879, Note_on_c, 1, 66, 0
4, 17879, Note_on_c, 1, 62, 0
4, 17880, Note_on_c, 1, 66, 62
4, 17880, Note_on_c, 1, 62, 62
4, 17903, Note_on_c, 1, 66, 0
4, 17903, Note_on_c, 1, 62, 0
4, 17904, Note_on_c, 1, 66, 62
4, 17904, Note_on_c, 1, 62, 62
4, 17927, Note_on_c, 1, 66, 0
4, 17927, Note_on_c, 1, 62, 0
4, 17928, Note_on_c, 1, 66, 62
4, 17928, Note_on_c, 1, 62, 62
4, 17951, Note_on_c, 1, 66, 0
4, 17951, Note_on_c, 1, 62, 0
4, 17952, Note_on_c, 1, 66, 62
4, 17952, Note_on_c, 1, 62, 62
4, 17975, Note_on_c, 1, 66, 0
4, 17975, Note_on_c, 1, 62, 0
4, 17976, Note_on_c, 1, 66, 62
4, 17976, Note_on_c, 1, 62, 62
4, 17999, Note_on_c, 1, 66, 0
4, 17999, Note_on_c, 1, 62, 0
4, 18000, Note_on_c, 1, 66, 62
4, 18000, Note_on_c, 1, 62, 62
4, 18023, Note_on_c, 1, 66, 0
4, 18023, Note_on_c, 1, 62, 0
4, 18024, Note_on_c, 1, 66, 62
4, 18024, Note_on_c, 1, 62, 62
4, 18047, Note_on_c, 1, 66, 0
4, 18047, Note_on_c, 1, 62, 0
4, 18048, Note_on_c, 1, 67, 62
4, 18048, Note_on_c, 1, 62, 62
4, 18071, Note_on_c, 1, 67, 0
4, 18071, Note_on_c, 1, 62, 0
4, 18072, Note_on_c, 1, 67, 62
4, 18072, Note_on_c, 1, 62, 62
4, 18095, Note_on_c, 1, 67, 0
4, 18095, Note_on_c, 1, 62, 0
4, 18096, Note_on_c, 1, 67, 62
4, 18096, Note_on_c, 1, 62, 62
4, 18119, Note_on_c, 1, 67, 0
4, 18119, Note_on_c, 1, 62, 0
4, 18120, Note_on_c, 1, 67, 62
4, 18120, Note_on_c, 1, 62, 62
4, 18143, Note_on_c, 1, 67, 0
4, 18143, Note_on_c, 1, 62, 0
4, 18144, Note_on_c, 1, 67, 62
4, 18144, Note_on_c, 1, 62, 62
4, 18167, Note_on_c, 1, 67, 0
4, 18167, Note_on_c, 1, 62, 0
4, 18168, Note_on_c, 1, 67, 62
4, 18168, Note_on_c, 1, 62, 62
4, 18191, Note_on_c, 1, 67, 0
4, 18191, Note_on_c, 1, 62, 0
4, 18192, Note_on_c, 1, 67, 62
4, 18192, Note_on_c, 1, 62, 62
4, 18215, Note_on_c, 1, 67, 0
4, 18215, Note_on_c, 1, 62, 0
4, 18216, Note_on_c, 1, 67, 62
4, 18216, Note_on_c, 1, 62, 62
4, 18239, Note_on_c, 1, 67, 0
4, 18239, Note_on_c, 1, 62, 0
4, 18240, Note_on_c, 1, 66, 62
4, 18240, Note_on_c, 1, 62, 62
4, 18263, Note_on_c, 1, 66, 0
4, 18263, Note_on_c, 1, 62, 0
4, 18264, Note_on_c, 1, 66, 62
4, 18264, Note_on_c, 1, 62, 62
4, 18287, Note_on_c, 1, 66, 0
4, 18287, Note_on_c, 1, 62, 0
4, 18288, Note_on_c, 1, 66, 62
4, 18288, Note_on_c, 1, 62, 62
4, 18311, Note_on_c, 1, 66, 0
4, 18311, Note_on_c, 1, 62, 0
4, 18312, Note_on_c, 1, 66, 62
4, 18312, Note_on_c, 1, 62, 62
4, 18335, Note_on_c, 1, 66, 0
4, 18335, Note_on_c, 1, 62, 0
4, 18336, Note_on_c, 1, 66, 62
4, 18336, Note_on_c, 1, 62, 62
4, 18359, Note_on_c, 1, 66, 0
4, 18359, Note_on_c, 1, 62, 0
4, 18360, Note_on_c, 1, 66, 62
4, 18360, Note_on_c, 1, 62, 62
4, 18383, Note_on_c, 1, 66, 0
4, 18383, Note_on_c, 1, 62, 0
4, 18384, Note_on_c, 1, 66, 62
4, 18384, Note_on_c, 1, 62, 62
4, 18407, Note_on_c, 1, 66, 0
4, 18407, Note_on_c, 1, 62, 0
4, 18408, Note_on_c, 1, 66, 62
4, 18408, Note_on_c, 1, 62, 62
4, 18431, Note_on_c, 1, 66, 0
4, 18431, Note_on_c, 1, 62, 0
4, 18432, Note_on_c, 1, 67, 62
4, 18432, Note_on_c, 1, 62, 62
4, 18455, Note_on_c, 1, 67, 0
4, 18455, Note_on_c, 1, 62, 0
4, 18456, Note_on_c, 1, 67, 62
4, 18456, Note_on_c, 1, 62, 62
4, 18479, Note_on_c, 1, 67, 0
4, 18479, Note_on_c, 1, 62, 0
4, 18480, Note_on_c, 1, 67, 62
4, 18480, Note_on_c, 1, 62, 62
4, 18503, Note_on_c, 1, 67, 0
4, 18503, Note_on_c, 1, 62, 0
4, 18504, Note_on_c, 1, 67, 62
4, 18504, Note_on_c, 1, 62, 62
4, 18527, Note_on_c, 1, 67, 0
4, 18527, Note_on_c, 1, 62, 0
4, 18528, Note_on_c, 1, 67, 62
4, 18528, Note_on_c, 1, 62, 62
4, 18551, Note_on_c, 1, 67, 0
4, 18551, Note_on_c, 1, 62, 0
4, 18552, Note_on_c, 1, 67, 62
4, 18552, Note_on_c, 1, 62, 62
4, 18575, Note_on_c, 1, 67, 0
4, 18575, Note_on_c, 1, 62, 0
4, 18576, Note_on_c, 1, 67, 62
4, 18576, Note_on_c, 1, 62, 62
4, 18599, Note_on_c, 1, 67, 0
4, 18599, Note_on_c, 1, 62, 0
4, 18600, Note_on_c, 1, 67, 62
4, 18600, Note_on_c, 1, 62, 62
4, 18623, Note_on_c, 1, 67, 0
4, 18623, Note_on_c, 1, 62, 0
4, 18624, Note_on_c, 1, 67, 62
4, 18669, Note_on_c, 1, 67, 0
4, 18672, Note_on_c, 1, 66, 62
4, 18717, Note_on_c, 1, 66, 0
4, 18900, Note_on_c, 1, 55, 75
4, 18912, Note_on_c, 1, 55, 0
4, 18912, Note_on_c, 1, 55, 75
4, 19001, Note_on_c, 1, 55, 0
4, 19092, Note_on_c, 1, 55, 75
4, 19104, Note_on_c, 1, 55, 0
4, 19104, Note_on_c, 1, 55, 75
4, 19193, Note_on_c, 1, 55, 0
4, 19200, Note_on_c, 1, 60, 75
4, 19200, Note_on_c, 1, 54, 75
4, 19245, Note_on_c, 1, 60, 0
4, 19245, Note_on_c, 1, 54, 0
4, 19248, Note_on_c, 1, 60, 72
4, 19248, Note_on_c, 1, 54, 72
4, 19293, Note_on_c, 1, 60, 0
4, 19293, Note_on_c, 1, 54, 0
4, 19296, Note_on_c, 1, 60, 70
4, 19296, Note_on_c, 1, 54, 70
4, 19341, Note_on_c, 1, 60, 0
4, 19341, Note_on_c, 1, 54, 0
4, 19344, Note_on_c, 1, 60, 71
4, 19344, Note_on_c, 1, 54, 71
4, 19437, Note_on_c, 1, 60, 0
4, 19437, Note_on_c, 1, 54, 0
4, 19488, Note_on_c, 1, 50, 75
4, 19488, Note_on_c, 1, 38, 75
4, 19533, Note_on_c, 1, 50, 0
4, 19533, Note_on_c, 1, 38, 0
4, 19536, Note_on_c, 1, 54, 75
4, 19536, Note_on_c, 1, 42, 75
4, 19581, Note_on_c, 1, 54, 0
4, 19581, Note_on_c, 1, 42, 0
4, 19584, Note_on_c, 1, 55, 75
4, 19584, Note_on_c, 1, 43, 75
4, 19673, Note_on_c, 1, 55, 0
4, 19673, Note_on_c, 1, 43, 0
4, 19728, Note_on_c, 1, 59, 75
4, 19728, Note_on_c, 1, 47, 75
4, 19773, Note_on_c, 1, 59, 0
4, 19773, Note_on_c, 1, 47, 0
4, 19776, Note_on_c, 1, 60, 75
4, 19776, Note_on_c, 1, 48, 75
4, 19865, Note_on_c, 1, 60, 0
4, 19865, Note_on_c, 1, 48, 0
4, 19920, Note_on_c, 1, 57, 76
4, 19920, Note_on_c, 1, 45, 76
4, 19965, Note_on_c, 1, 57, 0
4, 19965, Note_on_c, 1, 45, 0
4, 19968, Note_on_c, 1, 59, 76
4, 19968, Note_on_c, 1, 47, 76
4, 20057, Note_on_c, 1, 59, 0
4, 20057, Note_on_c, 1, 47, 0
4, 20112, Note_on_c, 1, 55, 77
4, 20112, Note_on_c, 1, 43, 77
4, 20157, Note_on_c, 1, 55, 0
4, 20157, Note_on_c, 1, 43, 0
4, 20160, Note_on_c, 1, 57, 77
4, 20160, Note_on_c, 1, 45, 77
4, 20249, Note_on_c, 1, 57, 0
4, 20249, Note_on_c, 1, 45, 0
4, 20304, Note_on_c, 1, 54, 78
4, 20304, Note_on_c, 1, 42, 78
4, 20349, Note_on_c, 1, 54, 0
4, 20349, Note_on_c, 1, 42, 0
4, 20352, Note_on_c, 1, 55, 79
4, 20352, Note_on_c, 1, 43, 79
4, 20441, Note_on_c, 1, 55, 0
4, 20441, Note_on_c, 1, 43, 0
4, 20496, Note_on_c, 1, 67, 80
4, 20496, Note_on_c, 1, 61, 80
4, 20541, Note_on_c, 1, 67, 0
4, 20541, Note_on_c, 1, 61, 0
4, 20544, Note_on_c, 1, 67, 80
4, 20544, Note_on_c, 1, 62, 80
4, 20589, Note_on_c, 1, 67, 0
4, 20589, Note_on_c, 1, 62, 0
4, 20592, Note_on_c, 1, 66, 80
4, 20592, Note_on_c, 1, 62, 80
4, 20637, Note_on_c, 1, 66, 0
4, 20637, Note_on_c, 1, 62, 0
4, 20688, Note_on_c, 1, 67, 81
4, 20688, Note_on_c, 1, 61, 81
4, 20733, Note_on_c, 1, 67, 0
4, 20733, Note_on_c, 1, 61, 0
4, 20736, Note_on_c, 1, 67, 81
4, 20781, Note_on_c, 1, 67, 0
4, 20784, Note_on_c, 1, 66, 81
4, 20829, Note_on_c, 1, 66, 0
4, 20856, Note_on_c, 1, 62, 81
4, 20868, Note_on_c, 1, 62, 0
4, 20868, Note_on_c, 1, 64, 81
4, 20880, Note_on_c, 1, 64, 0
4, 20880, Note_on_c, 1, 66, 81
4, 20903, Note_on_c, 1, 66, 0
4, 20904, Note_on_c, 1, 62, 81
4, 20927, Note_on_c, 1, 62, 0
4, 20928, Note_on_c, 1, 67, 81
4, 20973, Note_on_c, 1, 67, 0
4, 20976, Note_on_c, 1, 55, 81
4, 21021, Note_on_c, 1, 55, 0
4, 21048, Note_on_c, 1, 55, 81
4, 21060, Note_on_c, 1, 55, 0
4, 21060, Note_on_c, 1, 57, 81
4, 21072, Note_on_c, 1, 57, 0
4, 21072, Note_on_c, 1, 59, 81
4, 21095, Note_on_c, 1, 59, 0
4, 21096, Note_on_c, 1, 55, 81
4, 21119, Note_on_c, 1, 55, 0
4, 21120, Note_on_c, 1, 62, 81
4, 21165, Note_on_c, 1, 62, 0
4, 21168, Note_on_c, 1, 50, 81
4, 21213, Note_on_c, 1, 50, 0
4, 21240, Note_on_c, 1, 50, 81
4, 21252, Note_on_c, 1, 50, 0
4, 21252, Note_on_c, 1, 52, 81
4, 21264, Note_on_c, 1, 52, 0
4, 21264, Note_on_c, 1, 54, 81
4, 21287, Note_on_c, 1, 54, 0
4, 21288, Note_on_c, 1, 50, 81
4, 21311, Note_on_c, 1, 50, 0
4, 21312, Note_on_c, 1, 55, 81
4, 21357, Note_on_c, 1, 55, 0
4, 21360, Note_on_c, 1, 43, 81
4, 21405, Note_on_c, 1, 43, 0
4, 21432, Note_on_c, 1, 43, 81
4, 21444, Note_on_c, 1, 43, 0
4, 21444, Note_on_c, 1, 45, 81
4, 21456, Note_on_c, 1, 45, 0
4, 21456, Note_on_c, 1, 47, 81
4, 21479, Note_on_c, 1, 47, 0
4, 21480, Note_on_c, 1, 43, 81
4, 21503, Note_on_c, 1, 43, 0
4, 21504, Note_on_c, 1, 50, 81
4, 21549, Note_on_c, 1, 50, 0
4, 21552, Note_on_c, 1, 38, 81
4, 21597, Note_on_c, 1, 38, 0
4, 21624, Note_on_c, 1, 50, 81
4, 21636, Note_on_c, 1, 50, 0
4, 21636, Note_on_c, 1, 52, 81
4, 21648, Note_on_c, 1, 52, 0
4, 21648, Note_on_c, 1, 54, 81
4, 21671, Note_on_c, 1, 54, 0
4, 21672, Note_on_c, 1, 50, 81
4, 21695, Note_on_c, 1, 50, 0
4, 21696, Note_on_c, 1, 55, 75
4, 21741, Note_on_c, 1, 55, 0
4, 21744, Note_on_c, 1, 43, 75
4, 21789, Note_on_c, 1, 43, 0
4, 21792, Note_on_c, 1, 45, 75
4, 21837, Note_on_c, 1, 45, 0
4, 21840, Note_on_c, 1, 57, 75
4, 21885, Note_on_c, 1, 57, 0
4, 21888, Note_on_c, 1, 59, 75
4, 21933, Note_on_c, 1, 59, 0
4, 21936, Note_on_c, 1, 47, 75
4, 21981, Note_on_c, 1, 47, 0
4, 21984, Note_on_c, 1, 48, 75
4, 22029, Note_on_c, 1, 48, 0
4, 22032, Note_on_c, 1, 45, 75
4, 22077, Note_on_c, 1, 45, 0
4, 22080, Note_on_c, 1, 50, 75
4, 22125, Note_on_c, 1, 50, 0
4, 22128, Note_on_c, 1, 38, 75
4, 22173, Note_on_c, 1, 38, 0
4, 22176, Note_on_c, 1, 54, 66
4, 22176, Note_on_c, 1, 50, 66
4, 22199, Note_on_c, 1, 54, 0
4, 22199, Note_on_c, 1, 50, 0
4, 22200, Note_on_c, 1, 54, 66
4, 22200, Note_on_c, 1, 50, 66
4, 22223, Note_on_c, 1, 54, 0
4, 22223, Note_on_c, 1, 50, 0
4, 22224, Note_on_c, 1, 54, 66
4, 22224, Note_on_c, 1, 50, 66
4, 22247, Note_on_c, 1, 54, 0
4, 22247, Note_on_c, 1, 50, 0
4, 22248, Note_on_c, 1, 54, 66
4, 22248, Note_on_c, 1, 50, 66
4, 22271, Note_on_c, 1, 54, 0
4, 22271, Note_on_c, 1, 50, 0
4, 22272, Note_on_c, 1, 55, 66
4, 22272, Note_on_c, 1, 50, 66
4, 22295, Note_on_c, 1, 55, 0
4, 22295, Note_on_c, 1, 50, 0
4, 22296, Note_on_c, 1, 55, 66
4, 22296, Note_on_c, 1, 50, 66
4, 22319, Note_on_c, 1, 55, 0
4, 22319, Note_on_c, 1, 50, 0
4, 22320, Note_on_c, 1, 55, 66
4, 22320, Note_on_c, 1, 50, 66
4, 22343, Note_on_c, 1, 55, 0
4, 22343, Note_on_c, 1, 50, 0
4, 22344, Note_on_c, 1, 55, 66
4, 22344, Note_on_c, 1, 50, 66
4, 22367, Note_on_c, 1, 55, 0
4, 22367, Note_on_c, 1, 50, 0
4, 22368, Note_on_c, 1, 57, 66
4, 22368, Note_on_c, 1, 50, 66
4, 22391, Note_on_c, 1, 57, 0
4, 22391, Note_on_c, 1, 50, 0
4, 22392, Note_on_c, 1, 57, 66
4, 22392, Note_on_c, 1, 50, 66
4, 22415, Note_on_c, 1, 57, 0
4, 22415, Note_on_c, 1, 50, 0
4, 22416, Note_on_c, 1, 57, 66
4, 22416, Note_on_c, 1, 50, 66
4, 22439, Note_on_c, 1, 57, 0
4, 22439, Note_on_c, 1, 50, 0
4, 22440, Note_on_c, 1, 57, 66
4, 22440, Note_on_c, 1, 50, 66
4, 22463, Note_on_c, 1, 57, 0
4, 22463, Note_on_c, 1, 50, 0
4, 22464, Note_on_c, 1, 55, 66
4, 22464, Note_on_c, 1, 50, 66
4, 22487, Note_on_c, 1, 55, 0
4, 22487, Note_on_c, 1, 50, 0
4, 22488, Note_on_c, 1, 55, 66
4, 22488, Note_on_c, 1, 50, 66
4, 22511, Note_on_c, 1, 55, 0
4, 22511, Note_on_c, 1, 50, 0
4, 22512, Note_on_c, 1, 55, 66
4, 22512, Note_on_c, 1, 50, 66
4, 22535, Note_on_c, 1, 55, 0
4, 22535, Note_on_c, 1, 50, 0
4, 22536, Note_on_c, 1, 55, 66
4, 22536, Note_on_c, 1, 50, 66
4, 22559, Note_on_c, 1, 55, 0
4, 22559, Note_on_c, 1, 50, 0
4, 22560, Note_on_c, 1, 55, 66
4, 22560, Note_on_c, 1, 49, 66
4, 22583, Note_on_c, 1, 55, 0
4, 22583, Note_on_c, 1, 49, 0
4, 22584, Note_on_c, 1, 55, 66
4, 22584, Note_on_c, 1, 49, 66
4, 22607, Note_on_c, 1, 55, 0
4, 22607, Note_on_c, 1, 49, 0
4, 22608, Note_on_c, 1, 55, 66
4, 22608, Note_on_c, 1, 49, 66
4, 22631, Note_on_c, 1, 55, 0
4, 22631, Note_on_c, 1, 49, 0
4, 22632, Note_on_c, 1, 55, 66
4, 22632, Note_on_c, 1, 49, 66
4, 22655, Note_on_c, 1, 55, 0
4, 22655, Note_on_c, 1, 49, 0
4, 22656, Note_on_c, 1, 54, 66
4, 22656, Note_on_c, 1, 50, 66
4, 22679, Note_on_c, 1, 54, 0
4, 22679, Note_on_c, 1, 50, 0
4, 22680, Note_on_c, 1, 54, 66
4, 22680, Note_on_c, 1, 50, 66
4, 22703, Note_on_c, 1, 54, 0
4, 22703, Note_on_c, 1, 50, 0
4, 22704, Note_on_c, 1, 54, 66
4, 22704, Note_on_c, 1, 50, 66
4, 22727, Note_on_c, 1, 54, 0
4, 22727, Note_on_c, 1, 50, 0
4, 22728, Note_on_c, 1, 54, 66
4, 22728, Note_on_c, 1, 50, 66
4, 22751, Note_on_c, 1, 54, 0
4, 22751, Note_on_c, 1, 50, 0
4, 22752, Note_on_c, 1, 55, 66
4, 22752, Note_on_c, 1, 49, 66
4, 22775, Note_on_c, 1, 55, 0
4, 22775, Note_on_c, 1, 49, 0
4, 22776, Note_on_c, 1, 55, 66
4, 22776, Note_on_c, 1, 49, 66
4, 22799, Note_on_c, 1, 55, 0
4, 22799, Note_on_c, 1, 49, 0
4, 22800, Note_on_c, 1, 55, 66
4, 22800, Note_on_c, 1, 49, 66
4, 22823, Note_on_c, 1, 55, 0
4, 22823, Note_on_c, 1, 49, 0
4, 22824, Note_on_c, 1, 55, 66
4, 22824, Note_on_c, 1, 49, 66
4, 22847, Note_on_c, 1, 55, 0
4, 22847, Note_on_c, 1, 49, 0
4, 22848, Note_on_c, 1, 54, 66
4, 22848, Note_on_c, 1, 50, 66
4, 22893, Note_on_c, 1, 54, 0
4, 22893, Note_on_c, 1, 50, 0
4, 22944, Note_on_c, 1, 47, 66
4, 22959, Note_on_c, 1, 47, 0
4, 22960, Note_on_c, 1, 50, 66
4, 22975, Note_on_c, 1, 50, 0
4, 22976, Note_on_c, 1, 55, 66
4, 22991, Note_on_c, 1, 55, 0
4, 22992, Note_on_c, 1, 48, 66
4, 23007, Note_on_c, 1, 48, 0
4, 23008, Note_on_c, 1, 52, 66
4, 23023, Note_on_c, 1, 52, 0
4, 23024, Note_on_c, 1, 55, 66
4, 23039, Note_on_c, 1, 55, 0
4, 23040, Note_on_c, 1, 47, 66
4, 23129, Note_on_c, 1, 47, 0
4, 23136, Note_on_c, 1, 47, 66
4, 23151, Note_on_c, 1, 47, 0
4, 23152, Note_on_c, 1, 50, 66
4, 23167, Note_on_c, 1, 50, 0
4, 23168, Note_on_c, 1, 55, 66
4, 23183, Note_on_c, 1, 55, 0
4, 23184, Note_on_c, 1, 48, 66
4, 23199, Note_on_c, 1, 48, 0
4, 23200, Note_on_c, 1, 52, 66
4, 23215, Note_on_c, 1, 52, 0
4, 23216, Note_on_c, 1, 55, 66
4, 23231, Note_on_c, 1, 55, 0
4, 23232, Note_on_c, 1, 47, 66
4, 23321, Note_on_c, 1, 47, 0
4, 23328, Note_on_c, 1, 48, 66
4, 23328, Note_on_c, 1, 36, 66
4, 23417, Note_on_c, 1, 48, 0
4, 23417, Note_on_c, 1, 36, 0
4, 23472, Note_on_c, 1, 52, 66
4, 23472, Note_on_c, 1, 40, 66
4, 23517, Note_on_c, 1, 52, 0
4, 23517, Note_on_c, 1, 40, 0
4, 23520, Note_on_c, 1, 48, 66
4, 23520, Note_on_c, 1, 36, 66
4, 23565, Note_on_c, 1, 48, 0
4, 23565, Note_on_c, 1, 36, 0
4, 23568, Note_on_c, 1, 50, 66
4, 23568, Note_on_c, 1, 38, 66
4, 23613, Note_on_c, 1, 50, 0
4, 23613, Note_on_c, 1, 38, 0
4, 23616, Note_on_c, 1, 43, 66
4, 23661, Note_on_c, 1, 43, 0
4, 23664, Note_on_c, 1, 31, 66
4, 23709, Note_on_c, 1, 31, 0
4, 23712, Note_on_c, 1, 54, 66
4, 23727, Note_on_c, 1, 54, 0
4, 23728, Note_on_c, 1, 57, 66
4, 23743, Note_on_c, 1, 57, 0
4, 23744, Note_on_c, 1, 62, 66
4, 23759, Note_on_c, 1, 62, 0
4, 23760, Note_on_c, 1, 54, 66
4, 23775, Note_on_c, 1, 54, 0
4, 23776, Note_on_c, 1, 57, 66
4, 23791, Note_on_c, 1, 57, 0
4, 23792, Note_on_c, 1, 62, 66
4, 23807, Note_on_c, 1, 62, 0
4, 23808, Note_on_c, 1, 55, 66
4, 23823, Note_on_c, 1, 55, 0
4, 23824, Note_on_c, 1, 58, 66
4, 23839, Note_on_c, 1, 58, 0
4, 23840, Note_on_c, 1, 62, 66
4, 23855, Note_on_c, 1, 62, 0
4, 23856, Note_on_c, 1, 54, 66
4, 23871, Note_on_c, 1, 54, 0
4, 23872, Note_on_c, 1, 57, 66
4, 23887, Note_on_c, 1, 57, 0
4, 23888, Note_on_c, 1, 62, 66
4, 23903, Note_on_c, 1, 62, 0
4, 23904, Note_on_c, 1, 54, 66
4, 23919, Note_on_c, 1, 54, 0
4, 23920, Note_on_c, 1, 57, 66
4, 23935, Note_on_c, 1, 57, 0
4, 23936, Note_on_c, 1, 62, 66
4, 23951, Note_on_c, 1, 62, 0
4, 23952, Note_on_c, 1, 54, 66
4, 23967, Note_on_c, 1, 54, 0
4, 23968, Note_on_c, 1, 57, 66
4, 23983, Note_on_c, 1, 57, 0
4, 23984, Note_on_c, 1, 62, 66
4, 23999, Note_on_c, 1, 62, 0
4, 24000, Note_on_c, 1, 55, 66
4, 24015, Note_on_c, 1, 55, 0
4, 24016, Note_on_c, 1, 58, 66
4, 24031, Note_on_c, 1, 58, 0
4, 24032, Note_on_c, 1, 62, 66
4, 24047, Note_on_c, 1, 62, 0
4, 24048, Note_on_c, 1, 54, 66
4, 24063, Note_on_c, 1, 54, 0
4, 24064, Note_on_c, 1, 57, 66
4, 24079, Note_on_c, 1, 57, 0
4, 24080, Note_on_c, 1, 62, 66
4, 24095, Note_on_c, 1, 62, 0
4, 24096, Note_on_c, 1, 54, 66
4, 24111, Note_on_c, 1, 54, 0
4, 24112, Note_on_c, 1, 57, 66
4, 24127, Note_on_c, 1, 57, 0
4, 24128, Note_on_c, 1, 62, 66
4, 24143, Note_on_c, 1, 62, 0
4, 24144, Note_on_c, 1, 54, 66
4, 24159, Note_on_c, 1, 54, 0
4, 24160, Note_on_c, 1, 57, 66
4, 24175, Note_on_c, 1, 57, 0
4, 24176, Note_on_c, 1, 62, 66
4, 24191, Note_on_c, 1, 62, 0
4, 24192, Note_on_c, 1, 55, 66
4, 24207, Note_on_c, 1, 55, 0
4, 24208, Note_on_c, 1, 58, 66
4, 24223, Note_on_c, 1, 58, 0
4, 24224, Note_on_c, 1, 62, 66
4, 24239, Note_on_c, 1, 62, 0
4, 24240, Note_on_c, 1, 55, 66
4, 24255, Note_on_c, 1, 55, 0
4, 24256, Note_on_c, 1, 58, 66
4, 24271, Note_on_c, 1, 58, 0
4, 24272, Note_on_c, 1, 62, 66
4, 24287, Note_on_c, 1, 62, 0
4, 24288, Note_on_c, 1, 55, 66
4, 24303, Note_on_c, 1, 55, 0
4, 24304, Note_on_c, 1, 58, 66
4, 24319, Note_on_c, 1, 58, 0
4, 24320, Note_on_c, 1, 62, 66
4, 24335, Note_on_c, 1, 62, 0
4, 24336, Note_on_c, 1, 55, 66
4, 24351, Note_on_c, 1, 55, 0
4, 24352, Note_on_c, 1, 58, 66
4, 24367, Note_on_c, 1, 58, 0
4, 24368, Note_on_c, 1, 62, 66
4, 24383, Note_on_c, 1, 62, 0
4, 24384, Note_on_c, 1, 50, 66
4, 24429, Note_on_c, 1, 50, 0
4, 24480, Note_on_c, 1, 47, 75
4, 24495, Note_on_c, 1, 47, 0
4, 24496, Note_on_c, 1, 50, 75
4, 24511, Note_on_c, 1, 50, 0
4, 24512, Note_on_c, 1, 55, 75
4, 24527, Note_on_c, 1, 55, 0
4, 24528, Note_on_c, 1, 48, 75
4, 24543, Note_on_c, 1, 48, 0
4, 24544, Note_on_c, 1, 52, 75
4, 24559, Note_on_c, 1, 52, 0
4, 24560, Note_on_c, 1, 55, 75
4, 24575, Note_on_c, 1, 55, 0
4, 24576, Note_on_c, 1, 47, 75
4, 24665, Note_on_c, 1, 47, 0
4, 24672, Note_on_c, 1, 47, 75
4, 24687, Note_on_c, 1, 47, 0
4, 24688, Note_on_c, 1, 50, 75
4, 24703, Note_on_c, 1, 50, 0
4, 24704, Note_on_c, 1, 55, 75
4, 24719, Note_on_c, 1, 55, 0
4, 24720, Note_on_c, 1, 48, 75
4, 24735, Note_on_c, 1, 48, 0
4, 24736, Note_on_c, 1, 52, 75
4, 24751, Note_on_c, 1, 52, 0
4, 24752, Note_on_c, 1, 55, 75
4, 24767, Note_on_c, 1, 55, 0
4, 24768, Note_on_c, 1, 47, 75
4, 24857, Note_on_c, 1, 47, 0
4, 24864, Note_on_c, 1, 48, 75
4, 24864, Note_on_c, 1, 36, 75
4, 24953, Note_on_c, 1, 48, 0
4, 24953, Note_on_c, 1, 36, 0
4, 25008, Note_on_c, 1, 52, 75
4, 25008, Note_on_c, 1, 40, 75
4, 25053, Note_on_c, 1, 52, 0
4, 25053, Note_on_c, 1, 40, 0
4, 25056, Note_on_c, 1, 48, 75
4, 25056, Note_on_c, 1, 36, 75
4, 25101, Note_on_c, 1, 48, 0
4, 25101, Note_on_c, 1, 36, 0
4, 25104, Note_on_c, 1, 50, 75
4, 25104, Note_on_c, 1, 38, 75
4, 25149, Note_on_c, 1, 50, 0
4, 25149, Note_on_c, 1, 38, 0
4, 25152, Note_on_c, 1, 43, 75
4, 25197, Note_on_c, 1, 43, 0
4, 25200, Note_on_c, 1, 38, 75
4, 25245, Note_on_c, 1, 38, 0
4, 25248, Note_on_c, 1, 31, 75
4, 25293, Note_on_c, 1, 31, 0
4, 25392, Note_on_c, 1, 62, 75
4, 25437, Note_on_c, 1, 62, 0
4, 25440, Note_on_c, 1, 66, 75
4, 25485, Note_on_c, 1, 66, 0
4, 25488, Note_on_c, 1, 62, 75
4, 25533, Note_on_c, 1, 62, 0
4, 25536, Note_on_c, 1, 64, 75
4, 25603, Note_on_c, 1, 64, 0
4, 25608, Note_on_c, 1, 67, 75
4, 25631, Note_on_c, 1, 67, 0
4, 25632, Note_on_c, 1, 61, 75
4, 25677, Note_on_c, 1, 61, 0
4, 25680, Note_on_c, 1, 73, 75
4, 25725, Note_on_c, 1, 73, 0
4, 25728, Note_on_c, 1, 74, 75
4, 25773, Note_on_c, 1, 74, 0
4, 25776, Note_on_c, 1, 67, 75
4, 25799, Note_on_c, 1, 67, 0
4, 25800, Note_on_c, 1, 69, 75
4, 25823, Note_on_c, 1, 69, 0
4, 25824, Note_on_c, 1, 71, 75
4, 25869, Note_on_c, 1, 71, 0
4, 25872, Note_on_c, 1, 67, 75
4, 25917, Note_on_c, 1, 67, 0
4, 25920, Note_on_c, 1, 69, 75
4, 25965, Note_on_c, 1, 69, 0
4, 25968, Note_on_c, 1, 62, 75
4, 26013, Note_on_c, 1, 62, 0
4, 26112, Note_on_c, 1, 55, 70
4, 26127, Note_on_c, 1, 55, 0
4, 26128, Note_on_c, 1, 59, 70
4, 26143, Note_on_c, 1, 59, 0
4, 26144, Note_on_c, 1, 62, 70
4, 26159, Note_on_c, 1, 62, 0
4, 26160, Note_on_c, 1, 55, 70
4, 26175, Note_on_c, 1, 55, 0
4, 26176, Note_on_c, 1, 59, 70
4, 26191, Note_on_c, 1, 59, 0
4, 26192, Note_on_c, 1, 62, 70
4, 26207, Note_on_c, 1, 62, 0
4, 26208, Note_on_c, 1, 55, 70
4, 26223, Note_on_c, 1, 55, 0
4, 26224, Note_on_c, 1, 59, 70
4, 26239, Note_on_c, 1, 59, 0
4, 26240, Note_on_c, 1, 62, 70
4, 26255, Note_on_c, 1, 62, 0
4, 26256, Note_on_c, 1, 55, 70
4, 26271, Note_on_c, 1, 55, 0
4, 26272, Note_on_c, 1, 59, 70
4, 26287, Note_on_c, 1, 59, 0
4, 26288, Note_on_c, 1, 62, 70
4, 26303, Note_on_c, 1, 62, 0
4, 26304, Note_on_c, 1, 56, 70
4, 26319, Note_on_c, 1, 56, 0
4, 26320, Note_on_c, 1, 59, 70
4, 26335, Note_on_c, 1, 59, 0
4, 26336, Note_on_c, 1, 62, 70
4, 26351, Note_on_c, 1, 62, 0
4, 26352, Note_on_c, 1, 56, 70
4, 26367, Note_on_c, 1, 56, 0
4, 26368, Note_on_c, 1, 59, 70
4, 26383, Note_on_c, 1, 59, 0
4, 26384, Note_on_c, 1, 62, 70
4, 26399, Note_on_c, 1, 62, 0
4, 26400, Note_on_c, 1, 56, 70
4, 26415, Note_on_c, 1, 56, 0
4, 26416, Note_on_c, 1, 59, 70
4, 26431, Note_on_c, 1, 59, 0
4, 26432, Note_on_c, 1, 62, 70
4, 26447, Note_on_c, 1, 62, 0
4, 26448, Note_on_c, 1, 56, 70
4, 26463, Note_on_c, 1, 56, 0
4, 26464, Note_on_c, 1, 59, 70
4, 26479, Note_on_c, 1, 59, 0
4, 26480, Note_on_c, 1, 62, 70
4, 26495, Note_on_c, 1, 62, 0
4, 26496, Note_on_c, 1, 57, 81
4, 26541, Note_on_c, 1, 57, 0
4, 26544, Note_on_c, 1, 60, 81
4, 26544, Note_on_c, 1, 48, 81
4, 26589, Note_on_c, 1, 60, 0
4, 26589, Note_on_c, 1, 48, 0
4, 26592, Note_on_c, 1, 62, 81
4, 26592, Note_on_c, 1, 50, 81
4, 26637, Note_on_c, 1, 62, 0
4, 26637, Note_on_c, 1, 50, 0
4, 26640, Note_on_c, 1, 64, 81
4, 26640, Note_on_c, 1, 52, 81
4, 26685, Note_on_c, 1, 64, 0
4, 26685, Note_on_c, 1, 52, 0
4, 26688, Note_on_c, 1, 57, 70
4, 26703, Note_on_c, 1, 57, 0
4, 26704, Note_on_c, 1, 60, 70
4, 26719, Note_on_c, 1, 60, 0
4, 26720, Note_on_c, 1, 64, 70
4, 26735, Note_on_c, 1, 64, 0
4, 26736, Note_on_c, 1, 57, 70
4, 26751, Note_on_c, 1, 57, 0
4, 26752, Note_on_c, 1, 60, 70
4, 26767, Note_on_c, 1, 60, 0
4, 26768, Note_on_c, 1, 64, 70
4, 26783, Note_on_c, 1, 64, 0
4, 26784, Note_on_c, 1, 55, 70
4, 26799, Note_on_c, 1, 55, 0
4, 26800, Note_on_c, 1, 60, 70
4, 26815, Note_on_c, 1, 60, 0
4, 26816, Note_on_c, 1, 64, 70
4, 26831, Note_on_c, 1, 64, 0
4, 26832, Note_on_c, 1, 55, 70
4, 26847, Note_on_c, 1, 55, 0
4, 26848, Note_on_c, 1, 60, 70
4, 26863, Note_on_c, 1, 60, 0
4, 26864, Note_on_c, 1, 64, 70
4, 26879, Note_on_c, 1, 64, 0
4, 26880, Note_on_c, 1, 54, 70
4, 26895, Note_on_c, 1, 54, 0
4, 26896, Note_on_c, 1, 57, 70
4, 26911, Note_on_c, 1, 57, 0
4, 26912, Note_on_c, 1, 62, 70
4, 26927, Note_on_c, 1, 62, 0
4, 26928, Note_on_c, 1, 54, 70
4, 26943, Note_on_c, 1, 54, 0
4, 26944, Note_on_c, 1, 57, 70
4, 26959, Note_on_c, 1, 57, 0
4, 26960, Note_on_c, 1, 62, 70
4, 26975, Note_on_c, 1, 62, 0
4, 26976, Note_on_c, 1, 54, 70
4, 26991, Note_on_c, 1, 54, 0
4, 26992, Note_on_c, 1, 57, 70
4, 27007, Note_on_c, 1, 57, 0
4, 27008, Note_on_c, 1, 62, 70
4, 27023, Note_on_c, 1, 62, 0
4, 27024, Note_on_c, 1, 54, 70
4, 27039, Note_on_c, 1, 54, 0
4, 27040, Note_on_c, 1, 57, 70
4, 27055, Note_on_c, 1, 57, 0
4, 27056, Note_on_c, 1, 62, 70
4, 27071, Note_on_c, 1, 62, 0
4, 27072, Note_on_c, 1, 55, 70
4, 27087, Note_on_c, 1, 55, 0
4, 27088, Note_on_c, 1, 59, 70
4, 27103, Note_on_c, 1, 59, 0
4, 27104, Note_on_c, 1, 62, 70
4, 27119, Note_on_c, 1, 62, 0
4, 27120, Note_on_c, 1, 55, 70
4, 27135, Note_on_c, 1, 55, 0
4, 27136, Note_on_c, 1, 59, 70
4, 27151, Note_on_c, 1, 59, 0
4, 27152, Note_on_c, 1, 62, 70
4, 27167, Note_on_c, 1, 62, 0
4, 27168, Note_on_c, 1, 52, 70
4, 27183, Note_on_c, 1, 52, 0
4, 27184, Note_on_c, 1, 55, 70
4, 27199, Note_on_c, 1, 55, 0
4, 27200, Note_on_c, 1, 60, 70
4, 27215, Note_on_c, 1, 60, 0
4, 27216, Note_on_c, 1, 52, 70
4, 27231, Note_on_c, 1, 52, 0
4, 27232, Note_on_c, 1, 55, 70
4, 27247, Note_on_c, 1, 55, 0
4, 27248, Note_on_c, 1, 60, 70
4, 27263, Note_on_c, 1, 60, 0
4, 27264, Note_on_c, 1, 54, 70
4, 27279, Note_on_c, 1, 54, 0
4, 27280, Note_on_c, 1, 57, 70
4, 27295, Note_on_c, 1, 57, 0
4, 27296, Note_on_c, 1, 60, 70
4, 27311, Note_on_c, 1, 60, 0
4, 27312, Note_on_c, 1, 54, 70
4, 27327, Note_on_c, 1, 54, 0
4, 27328, Note_on_c, 1, 57, 70
4, 27343, Note_on_c, 1, 57, 0
4, 27344, Note_on_c, 1, 60, 70
4, 27359, Note_on_c, 1, 60, 0
4, 27360, Note_on_c, 1, 51, 70
4, 27375, Note_on_c, 1, 51, 0
4, 27376, Note_on_c, 1, 54, 70
4, 27391, Note_on_c, 1, 54, 0
4, 27392, Note_on_c, 1, 59, 70
4, 27407, Note_on_c, 1, 59, 0
4, 27408, Note_on_c, 1, 51, 70
4, 27423, Note_on_c, 1, 51, 0
4, 27424, Note_on_c, 1, 54, 70
4, 27439, Note_on_c, 1, 54, 0
4, 27440, Note_on_c, 1, 59, 69
4, 27455, Note_on_c, 1, 59, 0
4, 27456, Note_on_c, 1, 52, 69
4, 27471, Note_on_c, 1, 52, 0
4, 27472, Note_on_c, 1, 55, 68
4, 27487, Note_on_c, 1, 55, 0
4, 27488, Note_on_c, 1, 59, 68
4, 27503, Note_on_c, 1, 59, 0
4, 27504, Note_on_c, 1, 52, 67
4, 27519, Note_on_c, 1, 52, 0
4, 27520, Note_on_c, 1, 55, 66
4, 27535, Note_on_c, 1, 55, 0
4, 27536, Note_on_c, 1, 59, 66
4, 27551, Note_on_c, 1, 59, 0
4, 27552, Note_on_c, 1, 55, 66
4, 27567, Note_on_c, 1, 55, 0
4, 27568, Note_on_c, 1, 59, 66
4, 27583, Note_on_c, 1, 59, 0
4, 27584, Note_on_c, 1, 64, 66
4, 27599, Note_on_c, 1, 64, 0
4, 27600, Note_on_c, 1, 57, 66
4, 27615, Note_on_c, 1, 57, 0
4, 27616, Note_on_c, 1, 60, 66
4, 27631, Note_on_c, 1, 60, 0
4, 27632, Note_on_c, 1, 64, 66
4, 27647, Note_on_c, 1, 64, 0
4, 27648, Note_on_c, 1, 55, 66
4, 27737, Note_on_c, 1, 55, 0
4, 27744, Note_on_c, 1, 55, 66
4, 27759, Note_on_c, 1, 55, 0
4, 27760, Note_on_c, 1, 59, 66
4, 27775, Note_on_c, 1, 59, 0
4, 27776, Note_on_c, 1, 64, 66
4, 27791, Note_on_c, 1, 64, 0
4, 27792, Note_on_c, 1, 57, 66
4, 27807, Note_on_c, 1, 57, 0
4, 27808, Note_on_c, 1, 60, 66
4, 27823, Note_on_c, 1, 60, 0
4, 27824, Note_on_c, 1, 64, 66
4, 27839, Note_on_c, 1, 64, 0
4, 27840, Note_on_c, 1, 55, 66
4, 27929, Note_on_c, 1, 55, 0
4, 28080, Note_on_c, 1, 55, 75
4, 28080, Note_on_c, 1, 43, 75
4, 28125, Note_on_c, 1, 55, 0
4, 28125, Note_on_c, 1, 43, 0
4, 28128, Note_on_c, 1, 57, 75
4, 28128, Note_on_c, 1, 45, 75
4, 28173, Note_on_c, 1, 57, 0
4, 28173, Note_on_c, 1, 45, 0
4, 28176, Note_on_c, 1, 59, 75
4, 28176, Note_on_c, 1, 47, 75
4, 28221, Note_on_c, 1, 59, 0
4, 28221, Note_on_c, 1, 47, 0
4, 28224, Note_on_c, 1, 64, 62
4, 28247, Note_on_c, 1, 64, 0
4, 28248, Note_on_c, 1, 67, 62
4, 28248, Note_on_c, 1, 64, 62
4, 28271, Note_on_c, 1, 67, 0
4, 28271, Note_on_c, 1, 64, 0
4, 28272, Note_on_c, 1, 67, 62
4, 28272, Note_on_c, 1, 64, 62
4, 28295, Note_on_c, 1, 67, 0
4, 28295, Note_on_c, 1, 64, 0
4, 28296, Note_on_c, 1, 67, 62
4, 28296, Note_on_c, 1, 64, 62
4, 28319, Note_on_c, 1, 67, 0
4, 28319, Note_on_c, 1, 64, 0
4, 28320, Note_on_c, 1, 67, 62
4, 28320, Note_on_c, 1, 64, 62
4, 28343, Note_on_c, 1, 67, 0
4, 28343, Note_on_c, 1, 64, 0
4, 28344, Note_on_c, 1, 67, 62
4, 28344, Note_on_c, 1, 64, 62
4, 28367, Note_on_c, 1, 67, 0
4, 28367, Note_on_c, 1, 64, 0
4, 28368, Note_on_c, 1, 67, 62
4, 28368, Note_on_c, 1, 64, 62
4, 28391, Note_on_c, 1, 67, 0
4, 28391, Note_on_c, 1, 64, 0
4, 28392, Note_on_c, 1, 67, 62
4, 28392, Note_on_c, 1, 64, 62
4, 28415, Note_on_c, 1, 67, 0
4, 28415, Note_on_c, 1, 64, 0
4, 28416, Note_on_c, 1, 67, 62
4, 28416, Note_on_c, 1, 64, 62
4, 28439, Note_on_c, 1, 67, 0
4, 28439, Note_on_c, 1, 64, 0
4, 28440, Note_on_c, 1, 67, 62
4, 28440, Note_on_c, 1, 64, 62
4, 28463, Note_on_c, 1, 67, 0
4, 28463, Note_on_c, 1, 64, 0
4, 28464, Note_on_c, 1, 67, 62
4, 28464, Note_on_c, 1, 64, 62
4, 28487, Note_on_c, 1, 67, 0
4, 28487, Note_on_c, 1, 64, 0
4, 28488, Note_on_c, 1, 67, 62
4, 28488, Note_on_c, 1, 64, 62
4, 28511, Note_on_c, 1, 67, 0
4, 28511, Note_on_c, 1, 64, 0
4, 28512, Note_on_c, 1, 67, 62
4, 28512, Note_on_c, 1, 64, 62
4, 28535, Note_on_c, 1, 67, 0
4, 28535, Note_on_c, 1, 64, 0
4, 28536, Note_on_c, 1, 67, 62
4, 28536, Note_on_c, 1, 64, 62
4, 28559, Note_on_c, 1, 67, 0
4, 28559, Note_on_c, 1, 64, 0
4, 28560, Note_on_c, 1, 67, 62
4, 28560, Note_on_c, 1, 64, 62
4, 28583, Note_on_c, 1, 67, 0
4, 28583, Note_on_c, 1, 64, 0
4, 28584, Note_on_c, 1, 67, 62
4, 28584, Note_on_c, 1, 64, 62
4, 28607, Note_on_c, 1, 67, 0
4, 28607, Note_on_c, 1, 64, 0
4, 28608, Note_on_c, 1, 67, 62
4, 28608, Note_on_c, 1, 64, 62
4, 28632, Note_on_c, 1, 67, 0
4, 28632, Note_on_c, 1, 64, 0
4, 28632, Note_on_c, 1, 67, 62
4, 28632, Note_on_c, 1, 64, 62
4, 28656, Note_on_c, 1, 67, 0
4, 28656, Note_on_c, 1, 64, 0
4, 28656, Note_on_c, 1, 67, 62
4, 28656, Note_on_c, 1, 64, 62
4, 28680, Note_on_c, 1, 67, 0
4, 28680, Note_on_c, 1, 64, 0
4, 28680, Note_on_c, 1, 67, 62
4, 28680, Note_on_c, 1, 64, 62
4, 28704, Note_on_c, 1, 67, 0
4, 28704, Note_on_c, 1, 64, 0
4, 28704, Note_on_c, 1, 67, 62
4, 28704, Note_on_c, 1, 64, 62
4, 28728, Note_on_c, 1, 67, 0
4, 28728, Note_on_c, 1, 64, 0
4, 28728, Note_on_c, 1, 67, 62
4, 28728, Note_on_c, 1, 64, 62
4, 28752, Note_on_c, 1, 67, 0
4, 28752, Note_on_c, 1, 64, 0
4, 28752, Note_on_c, 1, 67, 62
4, 28752, Note_on_c, 1, 64, 62
4, 28776, Note_on_c, 1, 67, 0
4, 28776, Note_on_c, 1, 64, 0
4, 28776, Note_on_c, 1, 67, 62
4, 28776, Note_on_c, 1, 64, 62
4, 28800, Note_on_c, 1, 67, 0
4, 28800, Note_on_c, 1, 64, 0
4, 28800, Note_on_c, 1, 67, 62
4, 28800, Note_on_c, 1, 64, 62
4, 28824, Note_on_c, 1, 67, 0
4, 28824, Note_on_c, 1, 64, 0
4, 28824, Note_on_c, 1, 67, 62
4, 28824, Note_on_c, 1, 64, 62
4, 28848, Note_on_c, 1, 67, 0
4, 28848, Note_on_c, 1, 64, 0
4, 28848, Note_on_c, 1, 67, 62
4, 28848, Note_on_c, 1, 64, 62
4, 28872, Note_on_c, 1, 67, 0
4, 28872, Note_on_c, 1, 64, 0
4, 28872, Note_on_c, 1, 67, 62
4, 28872, Note_on_c, 1, 64, 62
4, 28896, Note_on_c, 1, 67, 0
4, 28896, Note_on_c, 1, 64, 0
4, 28896, Note_on_c, 1, 67, 62
4, 28896, Note_on_c, 1, 64, 62
4, 28920, Note_on_c, 1, 67, 0
4, 28920, Note_on_c, 1, 64, 0
4, 28920, Note_on_c, 1, 67, 62
4, 28920, Note_on_c, 1, 64, 62
4, 28944, Note_on_c, 1, 67, 0
4, 28944, Note_on_c, 1, 64, 0
4, 28944, Note_on_c, 1, 67, 62
4, 28944, Note_on_c, 1, 64, 62
4, 28968, Note_on_c, 1, 67, 0
4, 28968, Note_on_c, 1, 64, 0
4, 28968, Note_on_c, 1, 67, 62
4, 28968, Note_on_c, 1, 64, 62
4, 28992, Note_on_c, 1, 67, 0
4, 28992, Note_on_c, 1, 64, 0
4, 28992, Note_on_c, 1, 66, 62
4, 28992, Note_on_c, 1, 62, 62
4, 29015, Note_on_c, 1, 66, 0
4, 29015, Note_on_c, 1, 62, 0
4, 29016, Note_on_c, 1, 66, 62
4, 29016, Note_on_c, 1, 62, 62
4, 29039, Note_on_c, 1, 66, 0
4, 29039, Note_on_c, 1, 62, 0
4, 29040, Note_on_c, 1, 66, 62
4, 29040, Note_on_c, 1, 62, 62
4, 29063, Note_on_c, 1, 66, 0
4, 29063, Note_on_c, 1, 62, 0
4, 29064, Note_on_c, 1, 66, 62
4, 29064, Note_on_c, 1, 62, 62
4, 29087, Note_on_c, 1, 66, 0
4, 29087, Note_on_c, 1, 62, 0
4, 29088, Note_on_c, 1, 66, 62
4, 29088, Note_on_c, 1, 62, 62
4, 29111, Note_on_c, 1, 66, 0
4, 29111, Note_on_c, 1, 62, 0
4, 29112, Note_on_c, 1, 66, 62
4, 29112, Note_on_c, 1, 62, 62
4, 29135, Note_on_c, 1, 66, 0
4, 29135, Note_on_c, 1, 62, 0
4, 29136, Note_on_c, 1, 66, 62
4, 29136, Note_on_c, 1, 62, 62
4, 29159, Note_on_c, 1, 66, 0
4, 29159, Note_on_c, 1, 62, 0
4, 29160, Note_on_c, 1, 66, 62
4, 29160, Note_on_c, 1, 62, 62
4, 29183, Note_on_c, 1, 66, 0
4, 29183, Note_on_c, 1, 62, 0
4, 29184, Note_on_c, 1, 67, 62
4, 29184, Note_on_c, 1, 62, 62
4, 29207, Note_on_c, 1, 67, 0
4, 29207, Note_on_c, 1, 62, 0
4, 29208, Note_on_c, 1, 67, 62
4, 29208, Note_on_c, 1, 62, 62
4, 29231, Note_on_c, 1, 67, 0
4, 29231, Note_on_c, 1, 62, 0
4, 29232, Note_on_c, 1, 67, 62
4, 29232, Note_on_c, 1, 62, 62
4, 29255, Note_on_c, 1, 67, 0
4, 29255, Note_on_c, 1, 62, 0
4, 29256, Note_on_c, 1, 67, 62
4, 29256, Note_on_c, 1, 62, 62
4, 29279, Note_on_c, 1, 67, 0
4, 29279, Note_on_c, 1, 62, 0
4, 29280, Note_on_c, 1, 67, 62
4, 29280, Note_on_c, 1, 62, 62
4, 29303, Note_on_c, 1, 67, 0
4, 29303, Note_on_c, 1, 62, 0
4, 29304, Note_on_c, 1, 67, 62
4, 29304, Note_on_c, 1, 62, 62
4, 29327, Note_on_c, 1, 67, 0
4, 29327, Note_on_c, 1, 62, 0
4, 29328, Note_on_c, 1, 67, 62
4, 29328, Note_on_c, 1, 62, 62
4, 29351, Note_on_c, 1, 67, 0
4, 29351, Note_on_c, 1, 62, 0
4, 29352, Note_on_c, 1, 67, 62
4, 29352, Note_on_c, 1, 62, 62
4, 29375, Note_on_c, 1, 67, 0
4, 29375, Note_on_c, 1, 62, 0
4, 29376, Note_on_c, 1, 66, 62
4, 29376, Note_on_c, 1, 62, 62
4, 29399, Note_on_c, 1, 66, 0
4, 29399, Note_on_c, 1, 62, 0
4, 29400, Note_on_c, 1, 66, 62
4, 29400, Note_on_c, 1, 62, 62
4, 29423, Note_on_c, 1, 66, 0
4, 29423, Note_on_c, 1, 62, 0
4, 29424, Note_on_c, 1, 66, 62
4, 29424, Note_on_c, 1, 62, 62
4, 29447, Note_on_c, 1, 66, 0
4, 29447, Note_on_c, 1, 62, 0
4, 29448, Note_on_c, 1, 66, 62
4, 29448, Note_on_c, 1, 62, 62
4, 29471, Note_on_c, 1, 66, 0
4, 29471, Note_on_c, 1, 62, 0
4, 29472, Note_on_c, 1, 66, 62
4, 29472, Note_on_c, 1, 62, 62
4, 29495, Note_on_c, 1, 66, 0
4, 29495, Note_on_c, 1, 62, 0
4, 29496, Note_on_c, 1, 66, 62
4, 29496, Note_on_c, 1, 62, 62
4, 29519, Note_on_c, 1, 66, 0
4, 29519, Note_on_c, 1, 62, 0
4, 29520, Note_on_c, 1, 66, 62
4, 29520, Note_on_c, 1, 62, 62
4, 29543, Note_on_c, 1, 66, 0
4, 29543, Note_on_c, 1, 62, 0
4, 29544, Note_on_c, 1, 66, 62
4, 29544, Note_on_c, 1, 62, 62
4, 29567, Note_on_c, 1, 66, 0
4, 29567, Note_on_c, 1, 62, 0
4, 29568, Note_on_c, 1, 67, 62
4, 29568, Note_on_c, 1, 62, 62
4, 29591, Note_on_c, 1, 67, 0
4, 29591, Note_on_c, 1, 62, 0
4, 29592, Note_on_c, 1, 67, 62
4, 29592, Note_on_c, 1, 62, 62
4, 29615, Note_on_c, 1, 67, 0
4, 29615, Note_on_c, 1, 62, 0
4, 29616, Note_on_c, 1, 67, 62
4, 29616, Note_on_c, 1, 62, 62
4, 29639, Note_on_c, 1, 67, 0
4, 29639, Note_on_c, 1, 62, 0
4, 29640, Note_on_c, 1, 67, 62
4, 29640, Note_on_c, 1, 62, 62
4, 29663, Note_on_c, 1, 67, 0
4, 29663, Note_on_c, 1, 62, 0
4, 29664, Note_on_c, 1, 67, 62
4, 29664, Note_on_c, 1, 62, 62
4, 29687, Note_on_c, 1, 67, 0
4, 29687, Note_on_c, 1, 62, 0
4, 29688, Note_on_c, 1, 67, 62
4, 29688, Note_on_c, 1, 62, 62
4, 29711, Note_on_c, 1, 67, 0
4, 29711, Note_on_c, 1, 62, 0
4, 29712, Note_on_c, 1, 67, 62
4, 29712, Note_on_c, 1, 62, 62
4, 29735, Note_on_c, 1, 67, 0
4, 29735, Note_on_c, 1, 62, 0
4, 29736, Note_on_c, 1, 67, 62
4, 29736, Note_on_c, 1, 62, 62
4, 29759, Note_on_c, 1, 67, 0
4, 29759, Note_on_c, 1, 62, 0
4, 29760, Note_on_c, 1, 67, 62
4, 29805, Note_on_c, 1, 67, 0
4, 29808, Note_on_c, 1, 66, 62
4, 29853, Note_on_c, 1, 66, 0
4, 30036, Note_on_c, 1, 55, 75
4, 30048, Note_on_c, 1, 55, 0
4, 30048, Note_on_c, 1, 55, 75
4, 30137, Note_on_c, 1, 55, 0
4, 30228, Note_on_c, 1, 55, 75
4, 30240, Note_on_c, 1, 55, 0
4, 30240, Note_on_c, 1, 55, 75
4, 30329, Note_on_c, 1, 55, 0
4, 30336, Note_on_c, 1, 60, 75
4, 30336, Note_on_c, 1, 54, 75
4, 30381, Note_on_c, 1, 60, 0
4, 30381, Note_on_c, 1, 54, 0
4, 30384, Note_on_c, 1, 60, 72
4, 30384, Note_on_c, 1, 54, 72
4, 30429, Note_on_c, 1, 60, 0
4, 30429, Note_on_c, 1, 54, 0
4, 30432, Note_on_c, 1, 60, 70
4, 30432, Note_on_c, 1, 54, 70
4, 30477, Note_on_c, 1, 60, 0
4, 30477, Note_on_c, 1, 54, 0
4, 30480, Note_on_c, 1, 60, 71
4, 30480, Note_on_c, 1, 54, 71
4, 30573, Note_on_c, 1, 60, 0
4, 30573, Note_on_c, 1, 54, 0
4, 30624, Note_on_c, 1, 50, 75
4, 30624, Note_on_c, 1, 38, 75
4, 30669, Note_on_c, 1, 50, 0
4, 30669, Note_on_c, 1, 38, 0
4, 30672, Note_on_c, 1, 54, 75
4, 30672, Note_on_c, 1, 42, 75
4, 30717, Note_on_c, 1, 54, 0
4, 30717, Note_on_c, 1, 42, 0
4, 30720, Note_on_c, 1, 55, 75
4, 30720, Note_on_c, 1, 43, 75
4, 30809, Note_on_c, 1, 55, 0
4, 30809, Note_on_c, 1, 43, 0
4, 30864, Note_on_c, 1, 59, 75
4, 30864, Note_on_c, 1, 47, 75
4, 30909, Note_on_c, 1, 59, 0
4, 30909, Note_on_c, 1, 47, 0
4, 30912, Note_on_c, 1, 60, 75
4, 30912, Note_on_c, 1, 48, 75
4, 31001, Note_on_c, 1, 60, 0
4, 31001, Note_on_c, 1, 48, 0
4, 31056, Note_on_c, 1, 57, 76
4, 31056, Note_on_c, 1, 45, 76
4, 31101, Note_on_c, 1, 57, 0
4, 31101, Note_on_c, 1, 45, 0
4, 31104, Note_on_c, 1, 59, 76
4, 31104, Note_on_c, 1, 47, 76
4, 31193, Note_on_c, 1, 59, 0
4, 31193, Note_on_c, 1, 47, 0
4, 31248, Note_on_c, 1, 55, 77
4, 31248, Note_on_c, 1, 43, 77
4, 31293, Note_on_c, 1, 55, 0
4, 31293, Note_on_c, 1, 43, 0
4, 31296, Note_on_c, 1, 57, 77
4, 31296, Note_on_c, 1, 45, 77
4, 31385, Note_on_c, 1, 57, 0
4, 31385, Note_on_c, 1, 45, 0
4, 31440, Note_on_c, 1, 54, 78
4, 31440, Note_on_c, 1, 42, 78
4, 31485, Note_on_c, 1, 54, 0
4, 31485, Note_on_c, 1, 42, 0
4, 31488, Note_on_c, 1, 55, 79
4, 31488, Note_on_c, 1, 43, 79
4, 31577, Note_on_c, 1, 55, 0
4, 31577, Note_on_c, 1, 43, 0
4, 31632, Note_on_c, 1, 67, 80
4, 31632, Note_on_c, 1, 61, 80
4, 31677, Note_on_c, 1, 67, 0
4, 31677, Note_on_c, 1, 61, 0
4, 31680, Note_on_c, 1, 67, 80
4, 31680, Note_on_c, 1, 62, 80
4, 31725, Note_on_c, 1, 67, 0
4, 31725, Note_on_c, 1, 62, 0
4, 31728, Note_on_c, 1, 66, 80
4, 31728, Note_on_c, 1, 62, 80
4, 31773, Note_on_c, 1, 66, 0
4, 31773, Note_on_c, 1, 62, 0
4, 31824, Note_on_c, 1, 67, 81
4, 31824, Note_on_c, 1, 61, 81
4, 31869, Note_on_c, 1, 67, 0
4, 31869, Note_on_c, 1, 61, 0
4, 31872, Note_on_c, 1, 67, 81
4, 31917, Note_on_c, 1, 67, 0
4, 31920, Note_on_c, 1, 66, 81
4, 31965, Note_on_c, 1, 66, 0
4, 31992, Note_on_c, 1, 62, 81
4, 32004, Note_on_c, 1, 62, 0
4, 32004, Note_on_c, 1, 64, 81
4, 32016, Note_on_c, 1, 64, 0
4, 32016, Note_on_c, 1, 66, 81
4, 32039, Note_on_c, 1, 66, 0
4, 32040, Note_on_c, 1, 62, 81
4, 32063, Note_on_c, 1, 62, 0
4, 32064, Note_on_c, 1, 67, 81
4, 32109, Note_on_c, 1, 67, 0
4, 32112, Note_on_c, 1, 55, 81
4, 32157, Note_on_c, 1, 55, 0
4, 32184, Note_on_c, 1, 55, 81
4, 32196, Note_on_c, 1, 55, 0
4, 32196, Note_on_c, 1, 57, 81
4, 32208, Note_on_c, 1, 57, 0
4, 32208, Note_on_c, 1, 59, 81
4, 32231, Note_on_c, 1, 59, 0
4, 32232, Note_on_c, 1, 55, 81
4, 32255, Note_on_c, 1, 55, 0
4, 32256, Note_on_c, 1, 62, 81
4, 32301, Note_on_c, 1, 62, 0
4, 32304, Note_on_c, 1, 50, 81
4, 32349, Note_on_c, 1, 50, 0
4, 32376, Note_on_c, 1, 50, 81
4, 32388, Note_on_c, 1, 50, 0
4, 32388, Note_on_c, 1, 52, 81
4, 32400, Note_on_c, 1, 52, 0
4, 32400, Note_on_c, 1, 54, 81
4, 32423, Note_on_c, 1, 54, 0
4, 32424, Note_on_c, 1, 50, 81
4, 32447, Note_on_c, 1, 50, 0
4, 32448, Note_on_c, 1, 55, 81
4, 32493, Note_on_c, 1, 55, 0
4, 32496, Note_on_c, 1, 43, 81
4, 32541, Note_on_c, 1, 43, 0
4, 32568, Note_on_c, 1, 43, 81
4, 32580, Note_on_c, 1, 43, 0
4, 32580, Note_on_c, 1, 45, 81
4, 32592, Note_on_c, 1, 45, 0
4, 32592, Note_on_c, 1, 47, 81
4, 32615, Note_on_c, 1, 47, 0
4, 32616, Note_on_c, 1, 43, 81
4, 32639, Note_on_c, 1, 43, 0
4, 32640, Note_on_c, 1, 50, 81
4, 32685, Note_on_c, 1, 50, 0
4, 32688, Note_on_c, 1, 38, 81
4, 32733, Note_on_c, 1, 38, 0
4, 32760, Note_on_c, 1, 50, 81
4, 32772, Note_on_c, 1, 50, 0
4, 32772, Note_on_c, 1, 52, 81
4, 32784, Note_on_c, 1, 52, 0
4, 32784, Note_on_c, 1, 54, 81
4, 32807, Note_on_c, 1, 54, 0
4, 32808, Note_on_c, 1, 50, 81
4, 32831, Note_on_c, 1, 50, 0
4, 32832, Note_on_c, 1, 55, 75
4, 32877, Note_on_c, 1, 55, 0
4, 32880, Note_on_c, 1, 43, 75
4, 32925, Note_on_c, 1, 43, 0
4, 32928, Note_on_c, 1, 45, 75
4, 32973, Note_on_c, 1, 45, 0
4, 32976, Note_on_c, 1, 57, 75
4, 33021, Note_on_c, 1, 57, 0
4, 33024, Note_on_c, 1, 59, 75
4, 33069, Note_on_c, 1, 59, 0
4, 33072, Note_on_c, 1, 47, 75
4, 33117, Note_on_c, 1, 47, 0
4, 33120, Note_on_c, 1, 48, 75
4, 33165, Note_on_c, 1, 48, 0
4, 33168, Note_on_c, 1, 45, 75
4, 33213, Note_on_c, 1, 45, 0
4, 33216, Note_on_c, 1, 50, 75
4, 33261, Note_on_c, 1, 50, 0
4, 33264, Note_on_c, 1, 38, 75
4, 33309, Note_on_c, 1, 38, 0
4, 33312, Note_on_c, 1, 54, 66
4, 33312, Note_on_c, 1, 50, 66
4, 33335, Note_on_c, 1, 54, 0
4, 33335, Note_on_c, 1, 50, 0
4, 33336, Note_on_c, 1, 54, 66
4, 33336, Note_on_c, 1, 50, 66
4, 33359, Note_on_c, 1, 54, 0
4, 33359, Note_on_c, 1, 50, 0
4, 33360, Note_on_c, 1, 54, 66
4, 33360, Note_on_c, 1, 50, 66
4, 33383, Note_on_c, 1, 54, 0
4, 33383, Note_on_c, 1, 50, 0
4, 33384, Note_on_c, 1, 54, 66
4, 33384, Note_on_c, 1, 50, 66
4, 33407, Note_on_c, 1, 54, 0
4, 33407, Note_on_c, 1, 50, 0
4, 33408, Note_on_c, 1, 55, 66
4, 33408, Note_on_c, 1, 50, 66
4, 33431, Note_on_c, 1, 55, 0
4, 33431, Note_on_c, 1, 50, 0
4, 33432, Note_on_c, 1, 55, 66
4, 33432, Note_on_c, 1, 50, 66
4, 33455, Note_on_c, 1, 55, 0
4, 33455, Note_on_c, 1, 50, 0
4, 33456, Note_on_c, 1, 55, 66
4, 33456, Note_on_c, 1, 50, 66
4, 33479, Note_on_c, 1, 55, 0
4, 33479, Note_on_c, 1, 50, 0
4, 33480, Note_on_c, 1, 55, 66
4, 33480, Note_on_c, 1, 50, 66
4, 33503, Note_on_c, 1, 55, 0
4, 33503, Note_on_c, 1, 50, 0
4, 33504, Note_on_c, 1, 57, 66
4, 33504, Note_on_c, 1, 50, 66
4, 33527, Note_on_c, 1, 57, 0
4, 33527, Note_on_c, 1, 50, 0
4, 33528, Note_on_c, 1, 57, 66
4, 33528, Note_on_c, 1, 50, 66
4, 33551, Note_on_c, 1, 57, 0
4, 33551, Note_on_c, 1, 50, 0
4, 33552, Note_on_c, 1, 57, 66
4, 33552, Note_on_c, 1, 50, 66
4, 33575, Note_on_c, 1, 57, 0
4, 33575, Note_on_c, 1, 50, 0
4, 33576, Note_on_c, 1, 57, 66
4, 33576, Note_on_c, 1, 50, 66
4, 33599, Note_on_c, 1, 57, 0
4, 33599, Note_on_c, 1, 50, 0
4, 33600, Note_on_c, 1, 55, 66
4, 33600, Note_on_c, 1, 50, 66
4, 33623, Note_on_c, 1, 55, 0
4, 33623, Note_on_c, 1, 50, 0
4, 33624, Note_on_c, 1, 55, 66
4, 33624, Note_on_c, 1, 50, 66
4, 33647, Note_on_c, 1, 55, 0
4, 33647, Note_on_c, 1, 50, 0
4, 33648, Note_on_c, 1, 55, 66
4, 33648, Note_on_c, 1, 50, 66
4, 33671, Note_on_c, 1, 55, 0
4, 33671, Note_on_c, 1, 50, 0
4, 33672, Note_on_c, 1, 55, 66
4, 33672, Note_on_c, 1, 50, 66
4, 33695, Note_on_c, 1, 55, 0
4, 33695, Note_on_c, 1, 50, 0
4, 33696, Note_on_c, 1, 55, 66
4, 33696, Note_on_c, 1, 49, 66
4, 33719, Note_on_c, 1, 55, 0
4, 33719, Note_on_c, 1, 49, 0
4, 33720, Note_on_c, 1, 55, 66
4, 33720, Note_on_c, 1, 49, 66
4, 33743, Note_on_c, 1, 55, 0
4, 33743, Note_on_c, 1, 49, 0
4, 33744, Note_on_c, 1, 55, 66
4, 33744, Note_on_c, 1, 49, 66
4, 33767, Note_on_c, 1, 55, 0
4, 33767, Note_on_c, 1, 49, 0
4, 33768, Note_on_c, 1, 55, 66
4, 33768, Note_on_c, 1, 49, 66
4, 33791, Note_on_c, 1, 55, 0
4, 33791, Note_on_c, 1, 49, 0
4, 33792, Note_on_c, 1, 54, 66
4, 33792, Note_on_c, 1, 50, 66
4, 33815, Note_on_c, 1, 54, 0
4, 33815, Note_on_c, 1, 50, 0
4, 33816, Note_on_c, 1, 54, 66
4, 33816, Note_on_c, 1, 50, 66
4, 33839, Note_on_c, 1, 54, 0
4, 33839, Note_on_c, 1, 50, 0
4, 33840, Note_on_c, 1, 54, 66
4, 33840, Note_on_c, 1, 50, 66
4, 33863, Note_on_c, 1, 54, 0
4, 33863, Note_on_c, 1, 50, 0
4, 33864, Note_on_c, 1, 54, 66
4, 33864, Note_on_c, 1, 50, 66
4, 33887, Note_on_c, 1, 54, 0
4, 33887, Note_on_c, 1, 50, 0
4, 33888, Note_on_c, 1, 55, 66
4, 33888, Note_on_c, 1, 49, 66
4, 33911, Note_on_c, 1, 55, 0
4, 33911, Note_on_c, 1, 49, 0
4, 33912, Note_on_c, 1, 55, 66
4, 33912, Note_on_c, 1, 49, 66
4, 33935, Note_on_c, 1, 55, 0
4, 33935, Note_on_c, 1, 49, 0
4, 33936, Note_on_c, 1, 55, 66
4, 33936, Note_on_c, 1, 49, 66
4, 33959, Note_on_c, 1, 55, 0
4, 33959, Note_on_c, 1, 49, 0
4, 33960, Note_on_c, 1, 55, 66
4, 33960, Note_on_c, 1, 49, 66
4, 33983, Note_on_c, 1, 55, 0
4, 33983, Note_on_c, 1, 49, 0
4, 33984, Note_on_c, 1, 54, 66
4, 33984, Note_on_c, 1, 50, 66
4, 34029, Note_on_c, 1, 54, 0
4, 34029, Note_on_c, 1, 50, 0
4, 34080, Note_on_c, 1, 47, 66
4, 34095, Note_on_c, 1, 47, 0
4, 34096, Note_on_c, 1, 50, 66
4, 34111, Note_on_c, 1, 50, 0
4, 34112, Note_on_c, 1, 55, 66
4, 34127, Note_on_c, 1, 55, 0
4, 34128, Note_on_c, 1, 48, 66
4, 34143, Note_on_c, 1, 48, 0
4, 34144, Note_on_c, 1, 52, 66
4, 34159, Note_on_c, 1, 52, 0
4, 34160, Note_on_c, 1, 55, 66
4, 34175, Note_on_c, 1, 55, 0
4, 34176, Note_on_c, 1, 47, 66
4, 34265, Note_on_c, 1, 47, 0
4, 34272, Note_on_c, 1, 47, 66
4, 34287, Note_on_c, 1, 47, 0
4, 34288, Note_on_c, 1, 50, 66
4, 34303, Note_on_c, 1, 50, 0
4, 34304, Note_on_c, 1, 55, 66
4, 34319, Note_on_c, 1, 55, 0
4, 34320, Note_on_c, 1, 48, 66
4, 34335, Note_on_c, 1, 48, 0
4, 34336, Note_on_c, 1, 52, 66
4, 34351, Note_on_c, 1, 52, 0
4, 34352, Note_on_c, 1, 55, 66
4, 34367, Note_on_c, 1, 55, 0
4, 34368, Note_on_c, 1, 47, 66
4, 34457, Note_on_c, 1, 47, 0
4, 34464, Note_on_c, 1, 48, 66
4, 34464, Note_on_c, 1, 36, 66
4, 34553, Note_on_c, 1, 48, 0
4, 34553, Note_on_c, 1, 36, 0
4, 34608, Note_on_c, 1, 52, 66
4, 34608, Note_on_c, 1, 40, 66
4, 34653, Note_on_c, 1, 52, 0
4, 34653, Note_on_c, 1, 40, 0
4, 34656, Note_on_c, 1, 48, 66
4, 34656, Note_on_c, 1, 36, 66
4, 34701, Note_on_c, 1, 48, 0
4, 34701, Note_on_c, 1, 36, 0
4, 34704, Note_on_c, 1, 50, 66
4, 34704, Note_on_c, 1, 38, 66
4, 34749, Note_on_c, 1, 50, 0
4, 34749, Note_on_c, 1, 38, 0
4, 34752, Note_on_c, 1, 43, 66
4, 34797, Note_on_c, 1, 43, 0
4, 34800, Note_on_c, 1, 31, 66
4, 34845, Note_on_c, 1, 31, 0
4, 34848, Note_on_c, 1, 54, 66
4, 34863, Note_on_c, 1, 54, 0
4, 34864, Note_on_c, 1, 57, 66
4, 34879, Note_on_c, 1, 57, 0
4, 34880, Note_on_c, 1, 62, 66
4, 34895, Note_on_c, 1, 62, 0
4, 34896, Note_on_c, 1, 54, 66
4, 34911, Note_on_c, 1, 54, 0
4, 34912, Note_on_c, 1, 57, 66
4, 34927, Note_on_c, 1, 57, 0
4, 34928, Note_on_c, 1, 62, 66
4, 34943, Note_on_c, 1, 62, 0
4, 34944, Note_on_c, 1, 55, 66
4, 34959, Note_on_c, 1, 55, 0
4, 34960, Note_on_c, 1, 58, 66
4, 34975, Note_on_c, 1, 58, 0
4, 34976, Note_on_c, 1, 62, 66
4, 34991, Note_on_c, 1, 62, 0
4, 34992, Note_on_c, 1, 54, 66
4, 35007, Note_on_c, 1, 54, 0
4, 35008, Note_on_c, 1, 57, 66
4, 35023, Note_on_c, 1, 57, 0
4, 35024, Note_on_c, 1, 62, 66
4, 35039, Note_on_c, 1, 62, 0
4, 35040, Note_on_c, 1, 54, 66
4, 35055, Note_on_c, 1, 54, 0
4, 35056, Note_on_c, 1, 57, 66
4, 35071, Note_on_c, 1, 57, 0
4, 35072, Note_on_c, 1, 62, 66
4, 35087, Note_on_c, 1, 62, 0
4, 35088, Note_on_c, 1, 54, 66
4, 35103, Note_on_c, 1, 54, 0
4, 35104, Note_on_c, 1, 57, 66
4, 35119, Note_on_c, 1, 57, 0
4, 35120, Note_on_c, 1, 62, 66
4, 35135, Note_on_c, 1, 62, 0
4, 35136, Note_on_c, 1, 55, 66
4, 35151, Note_on_c, 1, 55, 0
4, 35152, Note_on_c, 1, 58, 66
4, 35167, Note_on_c, 1, 58, 0
4, 35168, Note_on_c, 1, 62, 66
4, 35183, Note_on_c, 1, 62, 0
4, 35184, Note_on_c, 1, 54, 66
4, 35199, Note_on_c, 1, 54, 0
4, 35200, Note_on_c, 1, 57, 66
4, 35215, Note_on_c, 1, 57, 0
4, 35216, Note_on_c, 1, 62, 66
4, 35231, Note_on_c, 1, 62, 0
4, 35232, Note_on_c, 1, 54, 66
4, 35247, Note_on_c, 1, 54, 0
4, 35248, Note_on_c, 1, 57, 66
4, 35263, Note_on_c, 1, 57, 0
4, 35264, Note_on_c, 1, 62, 66
4, 35279, Note_on_c, 1, 62, 0
4, 35280, Note_on_c, 1, 54, 66
4, 35295, Note_on_c, 1, 54, 0
4, 35296, Note_on_c, 1, 57, 66
4, 35311, Note_on_c, 1, 57, 0
4, 35312, Note_on_c, 1, 62, 66
4, 35327, Note_on_c, 1, 62, 0
4, 35328, Note_on_c, 1, 55, 66
4, 35343, Note_on_c, 1, 55, 0
4, 35344, Note_on_c, 1, 58, 66
4, 35359, Note_on_c, 1, 58, 0
4, 35360, Note_on_c, 1, 62, 66
4, 35375, Note_on_c, 1, 62, 0
4, 35376, Note_on_c, 1, 55, 66
4, 35391, Note_on_c, 1, 55, 0
4, 35392, Note_on_c, 1, 58, 66
4, 35407, Note_on_c, 1, 58, 0
4, 35408, Note_on_c, 1, 62, 66
4, 35423, Note_on_c, 1, 62, 0
4, 35424, Note_on_c, 1, 55, 66
4, 35439, Note_on_c, 1, 55, 0
4, 35440, Note_on_c, 1, 58, 66
4, 35455, Note_on_c, 1, 58, 0
4, 35456, Note_on_c, 1, 62, 66
4, 35471, Note_on_c, 1, 62, 0
4, 35472, Note_on_c, 1, 55, 66
4, 35487, Note_on_c, 1, 55, 0
4, 35488, Note_on_c, 1, 58, 66
4, 35503, Note_on_c, 1, 58, 0
4, 35504, Note_on_c, 1, 62, 66
4, 35519, Note_on_c, 1, 62, 0
4, 35520, Note_on_c, 1, 50, 66
4, 35565, Note_on_c, 1, 50, 0
4, 35616, Note_on_c, 1, 47, 75
4, 35631, Note_on_c, 1, 47, 0
4, 35632, Note_on_c, 1, 50, 75
4, 35647, Note_on_c, 1, 50, 0
4, 35648, Note_on_c, 1, 55, 75
4, 35663, Note_on_c, 1, 55, 0
4, 35664, Note_on_c, 1, 48, 75
4, 35679, Note_on_c, 1, 48, 0
4, 35680, Note_on_c, 1, 52, 75
4, 35695, Note_on_c, 1, 52, 0
4, 35696, Note_on_c, 1, 55, 75
4, 35711, Note_on_c, 1, 55, 0
4, 35712, Note_on_c, 1, 47, 75
4, 35801, Note_on_c, 1, 47, 0
4, 35808, Note_on_c, 1, 47, 75
4, 35823, Note_on_c, 1, 47, 0
4, 35824, Note_on_c, 1, 50, 75
4, 35839, Note_on_c, 1, 50, 0
4, 35840, Note_on_c, 1, 55, 75
4, 35855, Note_on_c, 1, 55, 0
4, 35856, Note_on_c, 1, 48, 75
4, 35871, Note_on_c, 1, 48, 0
4, 35872, Note_on_c, 1, 52, 75
4, 35887, Note_on_c, 1, 52, 0
4, 35888, Note_on_c, 1, 55, 75
4, 35903, Note_on_c, 1, 55, 0
4, 35904, Note_on_c, 1, 47, 75
4, 35993, Note_on_c, 1, 47, 0
4, 36000, Note_on_c, 1, 48, 75
4, 36000, Note_on_c, 1, 36, 75
4, 36089, Note_on_c, 1, 48, 0
4, 36089, Note_on_c, 1, 36, 0
4, 36144, Note_on_c, 1, 52, 75
4, 36144, Note_on_c, 1, 40, 75
4, 36189, Note_on_c, 1, 52, 0
4, 36189, Note_on_c, 1, 40, 0
4, 36192, Note_on_c, 1, 48, 75
4, 36192, Note_on_c, 1, 36, 75
4, 36237, Note_on_c, 1, 48, 0
4, 36237, Note_on_c, 1, 36, 0
4, 36240, Note_on_c, 1, 50, 75
4, 36240, Note_on_c, 1, 38, 75
4, 36285, Note_on_c, 1, 50, 0
4, 36285, Note_on_c, 1, 38, 0
4, 36288, Note_on_c, 1, 43, 75
4, 36333, Note_on_c, 1, 43, 0
4, 36336, Note_on_c, 1, 38, 75
4, 36381, Note_on_c, 1, 38, 0
4, 36384, Note_on_c, 1, 31, 75
4, 36429, Note_on_c, 1, 31, 0
4, 36432, Note_on_c, 1, 31, 0
4, 36477, Note_on_c, 1, 31, 0
4, 36480, End_track
5, 0, Start_track
5, 0, Program_c, 0, 0
5, 0, Control_c, 0, 7, 127
5, 0, Control_c, 0, 10, 64
5, 1680, Note_on_c, 0, 62, 64
5, 1725, Note_on_c, 0, 62, 0
5, 1728, Note_on_c, 0, 62, 64
5, 1817, Note_on_c, 0, 62, 0
5, 2256, Note_on_c, 0, 66, 64
5, 2301, Note_on_c, 0, 66, 0
5, 8592, Note_on_c, 0, 62, 64
5, 8637, Note_on_c, 0, 62, 0
5, 8640, Note_on_c, 0, 62, 64
5, 8729, Note_on_c, 0, 62, 0
5, 9168, Note_on_c, 0, 66, 64
5, 9213, Note_on_c, 0, 66, 0
5, 18624, Note_on_c, 0, 62, 64
5, 18713, Note_on_c, 0, 62, 0
5, 20736, Note_on_c, 0, 62, 64
5, 20825, Note_on_c, 0, 62, 0
5, 29760, Note_on_c, 0, 62, 64
5, 29849, Note_on_c, 0, 62, 0
5, 31872, Note_on_c, 0, 62, 64
5, 31961, Note_on_c, 0, 62, 0
5, 36480, End_track
6, 0, Start_track
6, 0, Title_t, "Piano Solo   <composer>  "
6, 0, End_track
0, 0, End_of_file
