0, 0, Header, 1, 6, 96
1, 0, Start_track
1, 0, Copyright_t, "Copyright  2000 <copyright holder>"
1, 0, Text_t, "Sonata I\015\012"
1, 0, Text_t, "Haydn\015\012"
1, 0, Sequencer_specific, 16, 68, 87, 77, 90, 86, 82, 83, 78, 32, 55, 46, 49, 46, 51, 46, 48
1, 0, Time_signature, 3, 2, 72, 8
1, 0, Tempo, 227272
1, 0, Key_signature, 0, "major"
1, 3168, Tempo, 454545
1, 3264, Tempo, 227272
1, 10080, Tempo, 454545
1, 10176, Tempo, 227272
1, 19584, Tempo, 571428
1, 19776, Tempo, 227272
1, 20448, Tempo, 571428
1, 20640, Tempo, 227272
1, 25152, Tempo, 571428
1, 25248, Tempo, 227272
1, 25920, Tempo, 571428
1, 26016, Tempo, 227272
1, 26784, Tempo, 303030
1, 27072, Tempo, 571428
1, 27264, Tempo, 227272
1, 39168, Tempo, 571428
1, 39360, Tempo, 227272
1, 40032, Tempo, 571428
1, 40224, Tempo, 227272
1, 44736, Tempo, 571428
1, 44832, Tempo, 227272
1, 45504, Tempo, 571428
1, 45600, Tempo, 227272
1, 46368, Tempo, 303030
1, 46656, Tempo, 571428
1, 46848, Tempo, 227272
1, 53280, End_track
2, 0, Start_track
2, 0, Program_c, 0, 0
2, 0, Control_c, 0, 7, 127
2, 0, Control_c, 0, 10, 64
2, 192, Note_on_c, 0, 67, 70
2, 281, Note_on_c, 0, 67, 0
2, 288, Note_on_c, 0, 72, 86
2, 384, Note_on_c, 0, 72, 0
2, 384, Note_on_c, 0, 72, 70
2, 473, Note_on_c, 0, 72, 0
2, 480, Note_on_c, 0, 72, 70
2, 569, Note_on_c, 0, 72, 0
2, 576, Note_on_c, 0, 76, 86
2, 624, Note_on_c, 0, 76, 0
2, 624, Note_on_c, 0, 74, 70
2, 669, Note_on_c, 0, 74, 0
2, 672, Note_on_c, 0, 74, 70
2, 720, Note_on_c, 0, 74, 0
2, 720, Note_on_c, 0, 72, 70
2, 765, Note_on_c, 0, 72, 0
2, 768, Note_on_c, 0, 74, 70
2, 857, Note_on_c, 0, 74, 0
2, 864, Note_on_c, 0, 72, 86
2, 912, Note_on_c, 0, 72, 0
2, 912, Note_on_c, 0, 71, 70
2, 957, Note_on_c, 0, 71, 0
2, 960, Note_on_c, 0, 71, 70
2, 1008, Note_on_c, 0, 71, 0
2, 1008, Note_on_c, 0, 69, 70
2, 1053, Note_on_c, 0, 69, 0
2, 1056, Note_on_c, 0, 71, 70
2, 1145, Note_on_c, 0, 71, 0
2, 1152, Note_on_c, 0, 72, 70
2, 1191, Note_on_c, 0, 72, 0
2, 1248, Note_on_c, 0, 74, 73
2, 1248, Note_on_c, 0, 71, 73
2, 1287, Note_on_c, 0, 74, 0
2, 1287, Note_on_c, 0, 71, 0
2, 1344, Note_on_c, 0, 76, 76
2, 1344, Note_on_c, 0, 72, 76
2, 1383, Note_on_c, 0, 76, 0
2, 1383, Note_on_c, 0, 72, 0
2, 1440, Note_on_c, 0, 77, 95
2, 1440, Note_on_c, 0, 74, 95
2, 1479, Note_on_c, 0, 77, 0
2, 1479, Note_on_c, 0, 74, 0
2, 1728, Note_on_c, 0, 74, 70
2, 1728, Note_on_c, 0, 71, 70
2, 1767, Note_on_c, 0, 74, 0
2, 1767, Note_on_c, 0, 71, 0
2, 1824, Note_on_c, 0, 76, 73
2, 1824, Note_on_c, 0, 72, 73
2, 1863, Note_on_c, 0, 76, 0
2, 1863, Note_on_c, 0, 72, 0
2, 1920, Note_on_c, 0, 77, 76
2, 1920, Note_on_c, 0, 74, 76
2, 1959, Note_on_c, 0, 77, 0
2, 1959, Note_on_c, 0, 74, 0
2, 2016, Note_on_c, 0, 79, 95
2, 2016, Note_on_c, 0, 76, 95
2, 2055, Note_on_c, 0, 79, 0
2, 2055, Note_on_c, 0, 76, 0
2, 2208, Note_on_c, 0, 79, 70
2, 2297, Note_on_c, 0, 79, 0
2, 2304, Note_on_c, 0, 84, 86
2, 2400, Note_on_c, 0, 84, 0
2, 2400, Note_on_c, 0, 84, 70
2, 2489, Note_on_c, 0, 84, 0
2, 2496, Note_on_c, 0, 84, 70
2, 2585, Note_on_c, 0, 84, 0
2, 2592, Note_on_c, 0, 88, 86
2, 2640, Note_on_c, 0, 88, 0
2, 2640, Note_on_c, 0, 86, 71
2, 2685, Note_on_c, 0, 86, 0
2, 2688, Note_on_c, 0, 86, 73
2, 2736, Note_on_c, 0, 86, 0
2, 2736, Note_on_c, 0, 85, 75
2, 2781, Note_on_c, 0, 85, 0
2, 2784, Note_on_c, 0, 86, 76
2, 2873, Note_on_c, 0, 86, 0
2, 2880, Note_on_c, 0, 84, 96
2, 2928, Note_on_c, 0, 84, 0
2, 2928, Note_on_c, 0, 83, 82
2, 2973, Note_on_c, 0, 83, 0
2, 2976, Note_on_c, 0, 83, 82
2, 3024, Note_on_c, 0, 83, 0
2, 3024, Note_on_c, 0, 82, 82
2, 3069, Note_on_c, 0, 82, 0
2, 3072, Note_on_c, 0, 83, 82
2, 3257, Note_on_c, 0, 83, 0
2, 3360, Note_on_c, 0, 79, 70
2, 3449, Note_on_c, 0, 79, 0
2, 3456, Note_on_c, 0, 84, 86
2, 3552, Note_on_c, 0, 84, 0
2, 3552, Note_on_c, 0, 84, 70
2, 3641, Note_on_c, 0, 84, 0
2, 3648, Note_on_c, 0, 84, 70
2, 3737, Note_on_c, 0, 84, 0
2, 3744, Note_on_c, 0, 88, 86
2, 3792, Note_on_c, 0, 88, 0
2, 3792, Note_on_c, 0, 86, 70
2, 3837, Note_on_c, 0, 86, 0
2, 3840, Note_on_c, 0, 86, 70
2, 3888, Note_on_c, 0, 86, 0
2, 3888, Note_on_c, 0, 84, 70
2, 3933, Note_on_c, 0, 84, 0
2, 3936, Note_on_c, 0, 86, 70
2, 4025, Note_on_c, 0, 86, 0
2, 4032, Note_on_c, 0, 84, 86
2, 4080, Note_on_c, 0, 84, 0
2, 4080, Note_on_c, 0, 83, 70
2, 4125, Note_on_c, 0, 83, 0
2, 4128, Note_on_c, 0, 83, 71
2, 4176, Note_on_c, 0, 83, 0
2, 4176, Note_on_c, 0, 81, 72
2, 4221, Note_on_c, 0, 81, 0
2, 4224, Note_on_c, 0, 83, 73
2, 4313, Note_on_c, 0, 83, 0
2, 4320, Note_on_c, 0, 86, 91
2, 4368, Note_on_c, 0, 86, 0
2, 4368, Note_on_c, 0, 84, 76
2, 4413, Note_on_c, 0, 84, 0
2, 4416, Note_on_c, 0, 84, 77
2, 4464, Note_on_c, 0, 84, 0
2, 4464, Note_on_c, 0, 83, 78
2, 4509, Note_on_c, 0, 83, 0
2, 4512, Note_on_c, 0, 84, 79
2, 4601, Note_on_c, 0, 84, 0
2, 4608, Note_on_c, 0, 79, 97
2, 4656, Note_on_c, 0, 79, 0
2, 4656, Note_on_c, 0, 78, 82
2, 4701, Note_on_c, 0, 78, 0
2, 4704, Note_on_c, 0, 78, 82
2, 4752, Note_on_c, 0, 78, 0
2, 4752, Note_on_c, 0, 76, 82
2, 4797, Note_on_c, 0, 76, 0
2, 4800, Note_on_c, 0, 78, 82
2, 4889, Note_on_c, 0, 78, 0
2, 4896, Note_on_c, 0, 79, 98
2, 4896, Note_on_c, 0, 71, 98
2, 4944, Note_on_c, 0, 79, 0
2, 4944, Note_on_c, 0, 71, 0
2, 4944, Note_on_c, 0, 78, 82
2, 4989, Note_on_c, 0, 78, 0
2, 4992, Note_on_c, 0, 79, 82
2, 5037, Note_on_c, 0, 79, 0
2, 5040, Note_on_c, 0, 74, 82
2, 5085, Note_on_c, 0, 74, 0
2, 5088, Note_on_c, 0, 84, 82
2, 5133, Note_on_c, 0, 84, 0
2, 5136, Note_on_c, 0, 78, 82
2, 5181, Note_on_c, 0, 78, 0
2, 5184, Note_on_c, 0, 79, 98
2, 5232, Note_on_c, 0, 79, 0
2, 5232, Note_on_c, 0, 78, 82
2, 5277, Note_on_c, 0, 78, 0
2, 5280, Note_on_c, 0, 79, 82
2, 5325, Note_on_c, 0, 79, 0
2, 5328, Note_on_c, 0, 74, 82
2, 5373, Note_on_c, 0, 74, 0
2, 5376, Note_on_c, 0, 84, 82
2, 5421, Note_on_c, 0, 84, 0
2, 5424, Note_on_c, 0, 78, 82
2, 5469, Note_on_c, 0, 78, 0
2, 5472, Note_on_c, 0, 79, 98
2, 5520, Note_on_c, 0, 79, 0
2, 5520, Note_on_c, 0, 78, 82
2, 5565, Note_on_c, 0, 78, 0
2, 5568, Note_on_c, 0, 79, 82
2, 5613, Note_on_c, 0, 79, 0
2, 5616, Note_on_c, 0, 74, 82
2, 5661, Note_on_c, 0, 74, 0
2, 5664, Note_on_c, 0, 84, 82
2, 5709, Note_on_c, 0, 84, 0
2, 5712, Note_on_c, 0, 78, 82
2, 5757, Note_on_c, 0, 78, 0
2, 5760, Note_on_c, 0, 79, 98
2, 5808, Note_on_c, 0, 79, 0
2, 5808, Note_on_c, 0, 78, 70
2, 5853, Note_on_c, 0, 78, 0
2, 5856, Note_on_c, 0, 79, 70
2, 5901, Note_on_c, 0, 79, 0
2, 5904, Note_on_c, 0, 78, 71
2, 5949, Note_on_c, 0, 78, 0
2, 5952, Note_on_c, 0, 79, 72
2, 5997, Note_on_c, 0, 79, 0
2, 6000, Note_on_c, 0, 78, 72
2, 6045, Note_on_c, 0, 78, 0
2, 6048, Note_on_c, 0, 79, 89
2, 6096, Note_on_c, 0, 79, 0
2, 6096, Note_on_c, 0, 78, 74
2, 6141, Note_on_c, 0, 78, 0
2, 6144, Note_on_c, 0, 79, 74
2, 6189, Note_on_c, 0, 79, 0
2, 6192, Note_on_c, 0, 78, 75
2, 6237, Note_on_c, 0, 78, 0
2, 6240, Note_on_c, 0, 79, 76
2, 6285, Note_on_c, 0, 79, 0
2, 6288, Note_on_c, 0, 78, 76
2, 6333, Note_on_c, 0, 78, 0
2, 6336, Note_on_c, 0, 79, 93
2, 6384, Note_on_c, 0, 79, 0
2, 6384, Note_on_c, 0, 78, 78
2, 6429, Note_on_c, 0, 78, 0
2, 6432, Note_on_c, 0, 79, 78
2, 6477, Note_on_c, 0, 79, 0
2, 6480, Note_on_c, 0, 78, 79
2, 6525, Note_on_c, 0, 78, 0
2, 6528, Note_on_c, 0, 79, 80
2, 6573, Note_on_c, 0, 79, 0
2, 6576, Note_on_c, 0, 78, 80
2, 6621, Note_on_c, 0, 78, 0
2, 6624, Note_on_c, 0, 79, 97
2, 6672, Note_on_c, 0, 79, 0
2, 6672, Note_on_c, 0, 83, 82
2, 6717, Note_on_c, 0, 83, 0
2, 6720, Note_on_c, 0, 74, 82
2, 6765, Note_on_c, 0, 74, 0
2, 6768, Note_on_c, 0, 79, 82
2, 6813, Note_on_c, 0, 79, 0
2, 6816, Note_on_c, 0, 71, 82
2, 6861, Note_on_c, 0, 71, 0
2, 6864, Note_on_c, 0, 74, 82
2, 6909, Note_on_c, 0, 74, 0
2, 6912, Note_on_c, 0, 67, 98
2, 7008, Note_on_c, 0, 67, 0
2, 7104, Note_on_c, 0, 67, 70
2, 7193, Note_on_c, 0, 67, 0
2, 7200, Note_on_c, 0, 72, 86
2, 7296, Note_on_c, 0, 72, 0
2, 7296, Note_on_c, 0, 72, 70
2, 7385, Note_on_c, 0, 72, 0
2, 7392, Note_on_c, 0, 72, 70
2, 7481, Note_on_c, 0, 72, 0
2, 7488, Note_on_c, 0, 76, 86
2, 7536, Note_on_c, 0, 76, 0
2, 7536, Note_on_c, 0, 74, 70
2, 7581, Note_on_c, 0, 74, 0
2, 7584, Note_on_c, 0, 74, 70
2, 7632, Note_on_c, 0, 74, 0
2, 7632, Note_on_c, 0, 72, 70
2, 7677, Note_on_c, 0, 72, 0
2, 7680, Note_on_c, 0, 74, 70
2, 7769, Note_on_c, 0, 74, 0
2, 7776, Note_on_c, 0, 72, 86
2, 7824, Note_on_c, 0, 72, 0
2, 7824, Note_on_c, 0, 71, 70
2, 7869, Note_on_c, 0, 71, 0
2, 7872, Note_on_c, 0, 71, 70
2, 7920, Note_on_c, 0, 71, 0
2, 7920, Note_on_c, 0, 69, 70
2, 7965, Note_on_c, 0, 69, 0
2, 7968, Note_on_c, 0, 71, 70
2, 8057, Note_on_c, 0, 71, 0
2, 8064, Note_on_c, 0, 72, 70
2, 8103, Note_on_c, 0, 72, 0
2, 8160, Note_on_c, 0, 74, 73
2, 8160, Note_on_c, 0, 71, 73
2, 8199, Note_on_c, 0, 74, 0
2, 8199, Note_on_c, 0, 71, 0
2, 8256, Note_on_c, 0, 76, 76
2, 8256, Note_on_c, 0, 72, 76
2, 8295, Note_on_c, 0, 76, 0
2, 8295, Note_on_c, 0, 72, 0
2, 8352, Note_on_c, 0, 77, 95
2, 8352, Note_on_c, 0, 74, 95
2, 8391, Note_on_c, 0, 77, 0
2, 8391, Note_on_c, 0, 74, 0
2, 8640, Note_on_c, 0, 74, 70
2, 8640, Note_on_c, 0, 71, 70
2, 8679, Note_on_c, 0, 74, 0
2, 8679, Note_on_c, 0, 71, 0
2, 8736, Note_on_c, 0, 76, 73
2, 8736, Note_on_c, 0, 72, 73
2, 8775, Note_on_c, 0, 76, 0
2, 8775, Note_on_c, 0, 72, 0
2, 8832, Note_on_c, 0, 77, 76
2, 8832, Note_on_c, 0, 74, 76
2, 8871, Note_on_c, 0, 77, 0
2, 8871, Note_on_c, 0, 74, 0
2, 8928, Note_on_c, 0, 79, 95
2, 8928, Note_on_c, 0, 76, 95
2, 8967, Note_on_c, 0, 79, 0
2, 8967, Note_on_c, 0, 76, 0
2, 9120, Note_on_c, 0, 79, 70
2, 9209, Note_on_c, 0, 79, 0
2, 9216, Note_on_c, 0, 84, 86
2, 9312, Note_on_c, 0, 84, 0
2, 9312, Note_on_c, 0, 84, 70
2, 9401, Note_on_c, 0, 84, 0
2, 9408, Note_on_c, 0, 84, 70
2, 9497, Note_on_c, 0, 84, 0
2, 9504, Note_on_c, 0, 88, 86
2, 9552, Note_on_c, 0, 88, 0
2, 9552, Note_on_c, 0, 86, 71
2, 9597, Note_on_c, 0, 86, 0
2, 9600, Note_on_c, 0, 86, 73
2, 9648, Note_on_c, 0, 86, 0
2, 9648, Note_on_c, 0, 85, 75
2, 9693, Note_on_c, 0, 85, 0
2, 9696, Note_on_c, 0, 86, 76
2, 9785, Note_on_c, 0, 86, 0
2, 9792, Note_on_c, 0, 84, 96
2, 9840, Note_on_c, 0, 84, 0
2, 9840, Note_on_c, 0, 83, 82
2, 9885, Note_on_c, 0, 83, 0
2, 9888, Note_on_c, 0, 83, 82
2, 9936, Note_on_c, 0, 83, 0
2, 9936, Note_on_c, 0, 82, 82
2, 9981, Note_on_c, 0, 82, 0
2, 9984, Note_on_c, 0, 83, 82
2, 10169, Note_on_c, 0, 83, 0
2, 10272, Note_on_c, 0, 79, 70
2, 10361, Note_on_c, 0, 79, 0
2, 10368, Note_on_c, 0, 84, 86
2, 10464, Note_on_c, 0, 84, 0
2, 10464, Note_on_c, 0, 84, 70
2, 10553, Note_on_c, 0, 84, 0
2, 10560, Note_on_c, 0, 84, 70
2, 10649, Note_on_c, 0, 84, 0
2, 10656, Note_on_c, 0, 88, 86
2, 10704, Note_on_c, 0, 88, 0
2, 10704, Note_on_c, 0, 86, 70
2, 10749, Note_on_c, 0, 86, 0
2, 10752, Note_on_c, 0, 86, 70
2, 10800, Note_on_c, 0, 86, 0
2, 10800, Note_on_c, 0, 84, 70
2, 10845, Note_on_c, 0, 84, 0
2, 10848, Note_on_c, 0, 86, 70
2, 10937, Note_on_c, 0, 86, 0
2, 10944, Note_on_c, 0, 84, 86
2, 10992, Note_on_c, 0, 84, 0
2, 10992, Note_on_c, 0, 83, 70
2, 11037, Note_on_c, 0, 83, 0
2, 11040, Note_on_c, 0, 83, 71
2, 11088, Note_on_c, 0, 83, 0
2, 11088, Note_on_c, 0, 81, 72
2, 11133, Note_on_c, 0, 81, 0
2, 11136, Note_on_c, 0, 83, 73
2, 11225, Note_on_c, 0, 83, 0
2, 11232, Note_on_c, 0, 86, 91
2, 11280, Note_on_c, 0, 86, 0
2, 11280, Note_on_c, 0, 84, 76
2, 11325, Note_on_c, 0, 84, 0
2, 11328, Note_on_c, 0, 84, 77
2, 11376, Note_on_c, 0, 84, 0
2, 11376, Note_on_c, 0, 83, 78
2, 11421, Note_on_c, 0, 83, 0
2, 11424, Note_on_c, 0, 84, 79
2, 11513, Note_on_c, 0, 84, 0
2, 11520, Note_on_c, 0, 79, 97
2, 11568, Note_on_c, 0, 79, 0
2, 11568, Note_on_c, 0, 78, 82
2, 11613, Note_on_c, 0, 78, 0
2, 11616, Note_on_c, 0, 78, 82
2, 11664, Note_on_c, 0, 78, 0
2, 11664, Note_on_c, 0, 76, 82
2, 11709, Note_on_c, 0, 76, 0
2, 11712, Note_on_c, 0, 78, 82
2, 11801, Note_on_c, 0, 78, 0
2, 11808, Note_on_c, 0, 79, 98
2, 11808, Note_on_c, 0, 71, 98
2, 11856, Note_on_c, 0, 79, 0
2, 11856, Note_on_c, 0, 71, 0
2, 11856, Note_on_c, 0, 78, 82
2, 11901, Note_on_c, 0, 78, 0
2, 11904, Note_on_c, 0, 79, 82
2, 11949, Note_on_c, 0, 79, 0
2, 11952, Note_on_c, 0, 74, 82
2, 11997, Note_on_c, 0, 74, 0
2, 12000, Note_on_c, 0, 84, 82
2, 12045, Note_on_c, 0, 84, 0
2, 12048, Note_on_c, 0, 78, 82
2, 12093, Note_on_c, 0, 78, 0
2, 12096, Note_on_c, 0, 79, 98
2, 12144, Note_on_c, 0, 79, 0
2, 12144, Note_on_c, 0, 78, 82
2, 12189, Note_on_c, 0, 78, 0
2, 12192, Note_on_c, 0, 79, 82
2, 12237, Note_on_c, 0, 79, 0
2, 12240, Note_on_c, 0, 74, 82
2, 12285, Note_on_c, 0, 74, 0
2, 12288, Note_on_c, 0, 84, 82
2, 12333, Note_on_c, 0, 84, 0
2, 12336, Note_on_c, 0, 78, 82
2, 12381, Note_on_c, 0, 78, 0
2, 12384, Note_on_c, 0, 79, 98
2, 12432, Note_on_c, 0, 79, 0
2, 12432, Note_on_c, 0, 78, 82
2, 12477, Note_on_c, 0, 78, 0
2, 12480, Note_on_c, 0, 79, 82
2, 12525, Note_on_c, 0, 79, 0
2, 12528, Note_on_c, 0, 74, 82
2, 12573, Note_on_c, 0, 74, 0
2, 12576, Note_on_c, 0, 84, 82
2, 12621, Note_on_c, 0, 84, 0
2, 12624, Note_on_c, 0, 78, 82
2, 12669, Note_on_c, 0, 78, 0
2, 12672, Note_on_c, 0, 79, 98
2, 12720, Note_on_c, 0, 79, 0
2, 12720, Note_on_c, 0, 78, 70
2, 12765, Note_on_c, 0, 78, 0
2, 12768, Note_on_c, 0, 79, 70
2, 12813, Note_on_c, 0, 79, 0
2, 12816, Note_on_c, 0, 78, 71
2, 12861, Note_on_c, 0, 78, 0
2, 12864, Note_on_c, 0, 79, 72
2, 12909, Note_on_c, 0, 79, 0
2, 12912, Note_on_c, 0, 78, 72
2, 12957, Note_on_c, 0, 78, 0
2, 12960, Note_on_c, 0, 79, 89
2, 13008, Note_on_c, 0, 79, 0
2, 13008, Note_on_c, 0, 78, 74
2, 13053, Note_on_c, 0, 78, 0
2, 13056, Note_on_c, 0, 79, 74
2, 13101, Note_on_c, 0, 79, 0
2, 13104, Note_on_c, 0, 78, 75
2, 13149, Note_on_c, 0, 78, 0
2, 13152, Note_on_c, 0, 79, 76
2, 13197, Note_on_c, 0, 79, 0
2, 13200, Note_on_c, 0, 78, 76
2, 13245, Note_on_c, 0, 78, 0
2, 13248, Note_on_c, 0, 79, 93
2, 13296, Note_on_c, 0, 79, 0
2, 13296, Note_on_c, 0, 78, 78
2, 13341, Note_on_c, 0, 78, 0
2, 13344, Note_on_c, 0, 79, 78
2, 13389, Note_on_c, 0, 79, 0
2, 13392, Note_on_c, 0, 78, 79
2, 13437, Note_on_c, 0, 78, 0
2, 13440, Note_on_c, 0, 79, 80
2, 13485, Note_on_c, 0, 79, 0
2, 13488, Note_on_c, 0, 78, 80
2, 13533, Note_on_c, 0, 78, 0
2, 13536, Note_on_c, 0, 79, 97
2, 13584, Note_on_c, 0, 79, 0
2, 13584, Note_on_c, 0, 83, 82
2, 13629, Note_on_c, 0, 83, 0
2, 13632, Note_on_c, 0, 74, 82
2, 13677, Note_on_c, 0, 74, 0
2, 13680, Note_on_c, 0, 79, 82
2, 13725, Note_on_c, 0, 79, 0
2, 13728, Note_on_c, 0, 71, 82
2, 13773, Note_on_c, 0, 71, 0
2, 13776, Note_on_c, 0, 74, 82
2, 13821, Note_on_c, 0, 74, 0
2, 13824, Note_on_c, 0, 67, 98
2, 13920, Note_on_c, 0, 67, 0
2, 14016, Note_on_c, 0, 79, 70
2, 14016, Note_on_c, 0, 67, 70
2, 14105, Note_on_c, 0, 79, 0
2, 14105, Note_on_c, 0, 67, 0
2, 14112, Note_on_c, 0, 78, 86
2, 14112, Note_on_c, 0, 67, 86
2, 14208, Note_on_c, 0, 78, 0
2, 14208, Note_on_c, 0, 67, 0
2, 14208, Note_on_c, 0, 77, 70
2, 14208, Note_on_c, 0, 67, 70
2, 14297, Note_on_c, 0, 77, 0
2, 14297, Note_on_c, 0, 67, 0
2, 14304, Note_on_c, 0, 76, 70
2, 14304, Note_on_c, 0, 67, 70
2, 14393, Note_on_c, 0, 76, 0
2, 14393, Note_on_c, 0, 67, 0
2, 14400, Note_on_c, 0, 77, 86
2, 14439, Note_on_c, 0, 77, 0
2, 14496, Note_on_c, 0, 77, 70
2, 14544, Note_on_c, 0, 77, 0
2, 14544, Note_on_c, 0, 76, 70
2, 14589, Note_on_c, 0, 76, 0
2, 14592, Note_on_c, 0, 77, 70
2, 14681, Note_on_c, 0, 77, 0
2, 14688, Note_on_c, 0, 74, 70
2, 14777, Note_on_c, 0, 74, 0
2, 14880, Note_on_c, 0, 91, 66
2, 14969, Note_on_c, 0, 91, 0
2, 14976, Note_on_c, 0, 90, 82
2, 15072, Note_on_c, 0, 90, 0
2, 15072, Note_on_c, 0, 89, 66
2, 15161, Note_on_c, 0, 89, 0
2, 15168, Note_on_c, 0, 88, 66
2, 15257, Note_on_c, 0, 88, 0
2, 15264, Note_on_c, 0, 89, 82
2, 15303, Note_on_c, 0, 89, 0
2, 15360, Note_on_c, 0, 89, 67
2, 15408, Note_on_c, 0, 89, 0
2, 15408, Note_on_c, 0, 88, 67
2, 15453, Note_on_c, 0, 88, 0
2, 15456, Note_on_c, 0, 89, 68
2, 15545, Note_on_c, 0, 89, 0
2, 15552, Note_on_c, 0, 89, 85
2, 15591, Note_on_c, 0, 89, 0
2, 15648, Note_on_c, 0, 89, 70
2, 15696, Note_on_c, 0, 89, 0
2, 15696, Note_on_c, 0, 88, 71
2, 15741, Note_on_c, 0, 88, 0
2, 15744, Note_on_c, 0, 89, 72
2, 15833, Note_on_c, 0, 89, 0
2, 15840, Note_on_c, 0, 89, 89
2, 15879, Note_on_c, 0, 89, 0
2, 15936, Note_on_c, 0, 89, 74
2, 15984, Note_on_c, 0, 89, 0
2, 15984, Note_on_c, 0, 88, 75
2, 16029, Note_on_c, 0, 88, 0
2, 16032, Note_on_c, 0, 89, 75
2, 16121, Note_on_c, 0, 89, 0
2, 16128, Note_on_c, 0, 89, 93
2, 16222, Note_on_c, 0, 89, 0
2, 16224, Note_on_c, 0, 89, 78
2, 16272, Note_on_c, 0, 89, 0
2, 16272, Note_on_c, 0, 88, 78
2, 16317, Note_on_c, 0, 88, 0
2, 16320, Note_on_c, 0, 89, 79
2, 16409, Note_on_c, 0, 89, 0
2, 16416, Note_on_c, 0, 88, 80
2, 16416, Note_on_c, 0, 81, 80
2, 16455, Note_on_c, 0, 88, 0
2, 16455, Note_on_c, 0, 81, 0
2, 16512, Note_on_c, 0, 81, 82
2, 16557, Note_on_c, 0, 81, 0
2, 16560, Note_on_c, 0, 80, 82
2, 16605, Note_on_c, 0, 80, 0
2, 16608, Note_on_c, 0, 81, 82
2, 16653, Note_on_c, 0, 81, 0
2, 16656, Note_on_c, 0, 80, 82
2, 16701, Note_on_c, 0, 80, 0
2, 16704, Note_on_c, 0, 81, 98
2, 16752, Note_on_c, 0, 81, 0
2, 16752, Note_on_c, 0, 80, 81
2, 16797, Note_on_c, 0, 80, 0
2, 16800, Note_on_c, 0, 81, 81
2, 16845, Note_on_c, 0, 81, 0
2, 16848, Note_on_c, 0, 80, 80
2, 16893, Note_on_c, 0, 80, 0
2, 16896, Note_on_c, 0, 81, 80
2, 16941, Note_on_c, 0, 81, 0
2, 16944, Note_on_c, 0, 80, 79
2, 16989, Note_on_c, 0, 80, 0
2, 16992, Note_on_c, 0, 81, 95
2, 17040, Note_on_c, 0, 81, 0
2, 17040, Note_on_c, 0, 80, 78
2, 17085, Note_on_c, 0, 80, 0
2, 17088, Note_on_c, 0, 81, 78
2, 17133, Note_on_c, 0, 81, 0
2, 17136, Note_on_c, 0, 80, 78
2, 17181, Note_on_c, 0, 80, 0
2, 17184, Note_on_c, 0, 81, 77
2, 17229, Note_on_c, 0, 81, 0
2, 17232, Note_on_c, 0, 80, 77
2, 17277, Note_on_c, 0, 80, 0
2, 17280, Note_on_c, 0, 81, 92
2, 17328, Note_on_c, 0, 81, 0
2, 17328, Note_on_c, 0, 79, 76
2, 17373, Note_on_c, 0, 79, 0
2, 17376, Note_on_c, 0, 82, 75
2, 17421, Note_on_c, 0, 82, 0
2, 17424, Note_on_c, 0, 81, 75
2, 17469, Note_on_c, 0, 81, 0
2, 17472, Note_on_c, 0, 79, 74
2, 17517, Note_on_c, 0, 79, 0
2, 17520, Note_on_c, 0, 77, 74
2, 17565, Note_on_c, 0, 77, 0
2, 17568, Note_on_c, 0, 76, 90
2, 17616, Note_on_c, 0, 76, 0
2, 17616, Note_on_c, 0, 74, 75
2, 17661, Note_on_c, 0, 74, 0
2, 17664, Note_on_c, 0, 73, 76
2, 17709, Note_on_c, 0, 73, 0
2, 17712, Note_on_c, 0, 70, 78
2, 17757, Note_on_c, 0, 70, 0
2, 17760, Note_on_c, 0, 69, 79
2, 17805, Note_on_c, 0, 69, 0
2, 17808, Note_on_c, 0, 67, 80
2, 17853, Note_on_c, 0, 67, 0
2, 17856, Note_on_c, 0, 65, 98
2, 17904, Note_on_c, 0, 65, 0
2, 17904, Note_on_c, 0, 64, 82
2, 17949, Note_on_c, 0, 64, 0
2, 17952, Note_on_c, 0, 62, 82
2, 17997, Note_on_c, 0, 62, 0
2, 18000, Note_on_c, 0, 61, 82
2, 18045, Note_on_c, 0, 61, 0
2, 18048, Note_on_c, 0, 62, 82
2, 18093, Note_on_c, 0, 62, 0
2, 18096, Note_on_c, 0, 61, 82
2, 18141, Note_on_c, 0, 61, 0
2, 18144, Note_on_c, 0, 62, 98
2, 18192, Note_on_c, 0, 62, 0
2, 18192, Note_on_c, 0, 61, 82
2, 18237, Note_on_c, 0, 61, 0
2, 18240, Note_on_c, 0, 62, 82
2, 18285, Note_on_c, 0, 62, 0
2, 18288, Note_on_c, 0, 61, 82
2, 18333, Note_on_c, 0, 61, 0
2, 18336, Note_on_c, 0, 62, 82
2, 18381, Note_on_c, 0, 62, 0
2, 18384, Note_on_c, 0, 61, 82
2, 18429, Note_on_c, 0, 61, 0
2, 18432, Note_on_c, 0, 62, 98
2, 18480, Note_on_c, 0, 62, 0
2, 18480, Note_on_c, 0, 63, 82
2, 18525, Note_on_c, 0, 63, 0
2, 18528, Note_on_c, 0, 62, 82
2, 18573, Note_on_c, 0, 62, 0
2, 18576, Note_on_c, 0, 63, 82
2, 18621, Note_on_c, 0, 63, 0
2, 18624, Note_on_c, 0, 62, 82
2, 18669, Note_on_c, 0, 62, 0
2, 18672, Note_on_c, 0, 63, 81
2, 18717, Note_on_c, 0, 63, 0
2, 18720, Note_on_c, 0, 62, 97
2, 18768, Note_on_c, 0, 62, 0
2, 18768, Note_on_c, 0, 63, 80
2, 18813, Note_on_c, 0, 63, 0
2, 18816, Note_on_c, 0, 62, 80
2, 18861, Note_on_c, 0, 62, 0
2, 18864, Note_on_c, 0, 63, 79
2, 18909, Note_on_c, 0, 63, 0
2, 18912, Note_on_c, 0, 62, 79
2, 18957, Note_on_c, 0, 62, 0
2, 18960, Note_on_c, 0, 63, 78
2, 19005, Note_on_c, 0, 63, 0
2, 19008, Note_on_c, 0, 62, 94
2, 19056, Note_on_c, 0, 62, 0
2, 19056, Note_on_c, 0, 63, 77
2, 19101, Note_on_c, 0, 63, 0
2, 19104, Note_on_c, 0, 62, 77
2, 19149, Note_on_c, 0, 62, 0
2, 19152, Note_on_c, 0, 63, 76
2, 19197, Note_on_c, 0, 63, 0
2, 19200, Note_on_c, 0, 62, 76
2, 19245, Note_on_c, 0, 62, 0
2, 19248, Note_on_c, 0, 63, 75
2, 19293, Note_on_c, 0, 63, 0
2, 19296, Note_on_c, 0, 62, 91
2, 19344, Note_on_c, 0, 62, 0
2, 19344, Note_on_c, 0, 63, 74
2, 19389, Note_on_c, 0, 63, 0
2, 19392, Note_on_c, 0, 62, 74
2, 19437, Note_on_c, 0, 62, 0
2, 19440, Note_on_c, 0, 63, 73
2, 19485, Note_on_c, 0, 63, 0
2, 19488, Note_on_c, 0, 62, 73
2, 19533, Note_on_c, 0, 62, 0
2, 19536, Note_on_c, 0, 63, 72
2, 19581, Note_on_c, 0, 63, 0
2, 19584, Note_on_c, 0, 62, 88
2, 19776, Note_on_c, 0, 62, 0
2, 19776, Note_on_c, 0, 62, 70
2, 19865, Note_on_c, 0, 62, 0
2, 19872, Note_on_c, 0, 67, 86
2, 19911, Note_on_c, 0, 67, 0
2, 19968, Note_on_c, 0, 67, 70
2, 20007, Note_on_c, 0, 67, 0
2, 20064, Note_on_c, 0, 67, 70
2, 20103, Note_on_c, 0, 67, 0
2, 20160, Note_on_c, 0, 70, 86
2, 20208, Note_on_c, 0, 70, 0
2, 20208, Note_on_c, 0, 69, 70
2, 20253, Note_on_c, 0, 69, 0
2, 20256, Note_on_c, 0, 69, 70
2, 20304, Note_on_c, 0, 69, 0
2, 20304, Note_on_c, 0, 67, 70
2, 20349, Note_on_c, 0, 67, 0
2, 20352, Note_on_c, 0, 69, 70
2, 20441, Note_on_c, 0, 69, 0
2, 20448, Note_on_c, 0, 71, 70
2, 20589, Note_on_c, 0, 71, 0
2, 20640, Note_on_c, 0, 67, 70
2, 20729, Note_on_c, 0, 67, 0
2, 20736, Note_on_c, 0, 72, 86
2, 20775, Note_on_c, 0, 72, 0
2, 20832, Note_on_c, 0, 72, 70
2, 20871, Note_on_c, 0, 72, 0
2, 20928, Note_on_c, 0, 72, 70
2, 20967, Note_on_c, 0, 72, 0
2, 21024, Note_on_c, 0, 76, 86
2, 21072, Note_on_c, 0, 76, 0
2, 21072, Note_on_c, 0, 74, 70
2, 21117, Note_on_c, 0, 74, 0
2, 21120, Note_on_c, 0, 74, 70
2, 21168, Note_on_c, 0, 74, 0
2, 21168, Note_on_c, 0, 72, 70
2, 21213, Note_on_c, 0, 72, 0
2, 21216, Note_on_c, 0, 74, 70
2, 21255, Note_on_c, 0, 74, 0
2, 21312, Note_on_c, 0, 72, 86
2, 21360, Note_on_c, 0, 72, 0
2, 21360, Note_on_c, 0, 71, 70
2, 21405, Note_on_c, 0, 71, 0
2, 21408, Note_on_c, 0, 71, 70
2, 21456, Note_on_c, 0, 71, 0
2, 21456, Note_on_c, 0, 69, 70
2, 21501, Note_on_c, 0, 69, 0
2, 21504, Note_on_c, 0, 71, 70
2, 21543, Note_on_c, 0, 71, 0
2, 21600, Note_on_c, 0, 67, 86
2, 21618, Note_on_c, 0, 72, 86
2, 21636, Note_on_c, 0, 76, 86
2, 21654, Note_on_c, 0, 79, 86
2, 21789, Note_on_c, 0, 79, 0
2, 21789, Note_on_c, 0, 76, 0
2, 21789, Note_on_c, 0, 72, 0
2, 21789, Note_on_c, 0, 67, 0
2, 21792, Note_on_c, 0, 76, 70
2, 21840, Note_on_c, 0, 76, 0
2, 21840, Note_on_c, 0, 72, 70
2, 21885, Note_on_c, 0, 72, 0
2, 21888, Note_on_c, 0, 72, 86
2, 21936, Note_on_c, 0, 72, 0
2, 21936, Note_on_c, 0, 71, 70
2, 21981, Note_on_c, 0, 71, 0
2, 21984, Note_on_c, 0, 71, 70
2, 22032, Note_on_c, 0, 71, 0
2, 22032, Note_on_c, 0, 69, 70
2, 22077, Note_on_c, 0, 69, 0
2, 22080, Note_on_c, 0, 71, 70
2, 22119, Note_on_c, 0, 71, 0
2, 22176, Note_on_c, 0, 67, 86
2, 22194, Note_on_c, 0, 72, 86
2, 22212, Note_on_c, 0, 76, 86
2, 22230, Note_on_c, 0, 79, 86
2, 22365, Note_on_c, 0, 79, 0
2, 22365, Note_on_c, 0, 76, 0
2, 22365, Note_on_c, 0, 72, 0
2, 22365, Note_on_c, 0, 67, 0
2, 22368, Note_on_c, 0, 76, 70
2, 22416, Note_on_c, 0, 76, 0
2, 22416, Note_on_c, 0, 72, 70
2, 22461, Note_on_c, 0, 72, 0
2, 22464, Note_on_c, 0, 72, 86
2, 22512, Note_on_c, 0, 72, 0
2, 22512, Note_on_c, 0, 71, 70
2, 22557, Note_on_c, 0, 71, 0
2, 22560, Note_on_c, 0, 71, 70
2, 22608, Note_on_c, 0, 71, 0
2, 22608, Note_on_c, 0, 69, 70
2, 22653, Note_on_c, 0, 69, 0
2, 22656, Note_on_c, 0, 71, 70
2, 22695, Note_on_c, 0, 71, 0
2, 22752, Note_on_c, 0, 67, 86
2, 22770, Note_on_c, 0, 72, 86
2, 22788, Note_on_c, 0, 76, 86
2, 22806, Note_on_c, 0, 79, 86
2, 22941, Note_on_c, 0, 79, 0
2, 22941, Note_on_c, 0, 76, 0
2, 22941, Note_on_c, 0, 72, 0
2, 22941, Note_on_c, 0, 67, 0
2, 22944, Note_on_c, 0, 76, 70
2, 22992, Note_on_c, 0, 76, 0
2, 22992, Note_on_c, 0, 72, 70
2, 23037, Note_on_c, 0, 72, 0
2, 23040, Note_on_c, 0, 69, 86
2, 23058, Note_on_c, 0, 74, 86
2, 23076, Note_on_c, 0, 77, 86
2, 23094, Note_on_c, 0, 81, 86
2, 23229, Note_on_c, 0, 81, 0
2, 23229, Note_on_c, 0, 77, 0
2, 23229, Note_on_c, 0, 74, 0
2, 23229, Note_on_c, 0, 69, 0
2, 23232, Note_on_c, 0, 77, 70
2, 23280, Note_on_c, 0, 77, 0
2, 23280, Note_on_c, 0, 74, 70
2, 23325, Note_on_c, 0, 74, 0
2, 23328, Note_on_c, 0, 72, 70
2, 23328, Note_on_c, 0, 67, 70
2, 23505, Note_on_c, 0, 72, 0
2, 23505, Note_on_c, 0, 67, 0
2, 23520, Note_on_c, 0, 76, 70
2, 23520, Note_on_c, 0, 71, 70
2, 23544, Note_on_c, 0, 76, 0
2, 23544, Note_on_c, 0, 74, 70
2, 23611, Note_on_c, 0, 74, 0
2, 23611, Note_on_c, 0, 71, 0
2, 23616, Note_on_c, 0, 72, 70
2, 23705, Note_on_c, 0, 72, 0
2, 23712, Note_on_c, 0, 72, 70
2, 23736, Note_on_c, 0, 72, 0
2, 23736, Note_on_c, 0, 84, 70
2, 23803, Note_on_c, 0, 84, 0
2, 23808, Note_on_c, 0, 71, 70
2, 23832, Note_on_c, 0, 71, 0
2, 23832, Note_on_c, 0, 83, 70
2, 23899, Note_on_c, 0, 83, 0
2, 23904, Note_on_c, 0, 70, 70
2, 23928, Note_on_c, 0, 70, 0
2, 23928, Note_on_c, 0, 82, 70
2, 23995, Note_on_c, 0, 82, 0
2, 24000, Note_on_c, 0, 69, 70
2, 24024, Note_on_c, 0, 69, 0
2, 24024, Note_on_c, 0, 81, 70
2, 24091, Note_on_c, 0, 81, 0
2, 24096, Note_on_c, 0, 67, 70
2, 24120, Note_on_c, 0, 67, 0
2, 24120, Note_on_c, 0, 79, 70
2, 24187, Note_on_c, 0, 79, 0
2, 24192, Note_on_c, 0, 78, 70
2, 24192, Note_on_c, 0, 66, 70
2, 24480, Note_on_c, 0, 78, 0
2, 24480, Note_on_c, 0, 66, 0
2, 24480, Note_on_c, 0, 79, 72
2, 24480, Note_on_c, 0, 67, 72
2, 24745, Note_on_c, 0, 79, 0
2, 24745, Note_on_c, 0, 67, 0
2, 24768, Note_on_c, 0, 74, 74
2, 24816, Note_on_c, 0, 74, 0
2, 24816, Note_on_c, 0, 72, 73
2, 24861, Note_on_c, 0, 72, 0
2, 24864, Note_on_c, 0, 72, 72
2, 24912, Note_on_c, 0, 72, 0
2, 24912, Note_on_c, 0, 71, 71
2, 24957, Note_on_c, 0, 71, 0
2, 24960, Note_on_c, 0, 72, 70
2, 25049, Note_on_c, 0, 72, 0
2, 25056, Note_on_c, 0, 71, 70
2, 25056, Note_on_c, 0, 67, 70
2, 25145, Note_on_c, 0, 71, 0
2, 25145, Note_on_c, 0, 67, 0
2, 25248, Note_on_c, 0, 67, 70
2, 25337, Note_on_c, 0, 67, 0
2, 25344, Note_on_c, 0, 72, 86
2, 25383, Note_on_c, 0, 72, 0
2, 25440, Note_on_c, 0, 72, 70
2, 25479, Note_on_c, 0, 72, 0
2, 25536, Note_on_c, 0, 72, 70
2, 25575, Note_on_c, 0, 72, 0
2, 25632, Note_on_c, 0, 75, 86
2, 25680, Note_on_c, 0, 75, 0
2, 25680, Note_on_c, 0, 73, 70
2, 25725, Note_on_c, 0, 73, 0
2, 25728, Note_on_c, 0, 73, 70
2, 25776, Note_on_c, 0, 73, 0
2, 25776, Note_on_c, 0, 72, 70
2, 25821, Note_on_c, 0, 72, 0
2, 25824, Note_on_c, 0, 73, 70
2, 25965, Note_on_c, 0, 73, 0
2, 26112, Note_on_c, 0, 67, 82
2, 26201, Note_on_c, 0, 67, 0
2, 26208, Note_on_c, 0, 72, 98
2, 26247, Note_on_c, 0, 72, 0
2, 26304, Note_on_c, 0, 72, 82
2, 26343, Note_on_c, 0, 72, 0
2, 26400, Note_on_c, 0, 72, 82
2, 26439, Note_on_c, 0, 72, 0
2, 26496, Note_on_c, 0, 76, 98
2, 26544, Note_on_c, 0, 76, 0
2, 26544, Note_on_c, 0, 74, 82
2, 26589, Note_on_c, 0, 74, 0
2, 26592, Note_on_c, 0, 74, 82
2, 26640, Note_on_c, 0, 74, 0
2, 26640, Note_on_c, 0, 73, 82
2, 26685, Note_on_c, 0, 73, 0
2, 26688, Note_on_c, 0, 74, 82
2, 26777, Note_on_c, 0, 74, 0
2, 26784, Note_on_c, 0, 72, 98
2, 26832, Note_on_c, 0, 72, 0
2, 26832, Note_on_c, 0, 71, 82
2, 26877, Note_on_c, 0, 71, 0
2, 26880, Note_on_c, 0, 71, 82
2, 26928, Note_on_c, 0, 71, 0
2, 26928, Note_on_c, 0, 70, 82
2, 26973, Note_on_c, 0, 70, 0
2, 26976, Note_on_c, 0, 71, 82
2, 27117, Note_on_c, 0, 71, 0
2, 27264, Note_on_c, 0, 79, 82
2, 27353, Note_on_c, 0, 79, 0
2, 27360, Note_on_c, 0, 84, 98
2, 27360, Note_on_c, 0, 76, 98
2, 27399, Note_on_c, 0, 84, 0
2, 27399, Note_on_c, 0, 76, 0
2, 27456, Note_on_c, 0, 84, 82
2, 27456, Note_on_c, 0, 77, 82
2, 27495, Note_on_c, 0, 84, 0
2, 27495, Note_on_c, 0, 77, 0
2, 27552, Note_on_c, 0, 84, 82
2, 27552, Note_on_c, 0, 79, 82
2, 27591, Note_on_c, 0, 84, 0
2, 27591, Note_on_c, 0, 79, 0
2, 27648, Note_on_c, 0, 86, 82
2, 27648, Note_on_c, 0, 81, 82
2, 27648, Note_on_c, 0, 74, 82
2, 27687, Note_on_c, 0, 86, 0
2, 27687, Note_on_c, 0, 81, 0
2, 27687, Note_on_c, 0, 74, 0
2, 27744, Note_on_c, 0, 86, 82
2, 27792, Note_on_c, 0, 86, 0
2, 27792, Note_on_c, 0, 85, 82
2, 27837, Note_on_c, 0, 85, 0
2, 27840, Note_on_c, 0, 86, 82
2, 27929, Note_on_c, 0, 86, 0
2, 27936, Note_on_c, 0, 83, 82
2, 27975, Note_on_c, 0, 83, 0
2, 28032, Note_on_c, 0, 83, 82
2, 28209, Note_on_c, 0, 83, 0
2, 28224, Note_on_c, 0, 79, 98
2, 28242, Note_on_c, 0, 84, 98
2, 28260, Note_on_c, 0, 88, 98
2, 28278, Note_on_c, 0, 91, 98
2, 28413, Note_on_c, 0, 91, 0
2, 28413, Note_on_c, 0, 88, 0
2, 28413, Note_on_c, 0, 84, 0
2, 28413, Note_on_c, 0, 79, 0
2, 28416, Note_on_c, 0, 88, 82
2, 28464, Note_on_c, 0, 88, 0
2, 28464, Note_on_c, 0, 84, 82
2, 28509, Note_on_c, 0, 84, 0
2, 28512, Note_on_c, 0, 84, 98
2, 28560, Note_on_c, 0, 84, 0
2, 28560, Note_on_c, 0, 83, 82
2, 28605, Note_on_c, 0, 83, 0
2, 28608, Note_on_c, 0, 83, 82
2, 28656, Note_on_c, 0, 83, 0
2, 28656, Note_on_c, 0, 81, 82
2, 28701, Note_on_c, 0, 81, 0
2, 28704, Note_on_c, 0, 83, 82
2, 28743, Note_on_c, 0, 83, 0
2, 28800, Note_on_c, 0, 79, 98
2, 28818, Note_on_c, 0, 84, 98
2, 28836, Note_on_c, 0, 88, 98
2, 28854, Note_on_c, 0, 91, 98
2, 28989, Note_on_c, 0, 91, 0
2, 28989, Note_on_c, 0, 88, 0
2, 28989, Note_on_c, 0, 84, 0
2, 28989, Note_on_c, 0, 79, 0
2, 28992, Note_on_c, 0, 88, 82
2, 29040, Note_on_c, 0, 88, 0
2, 29040, Note_on_c, 0, 84, 82
2, 29085, Note_on_c, 0, 84, 0
2, 29088, Note_on_c, 0, 84, 98
2, 29136, Note_on_c, 0, 84, 0
2, 29136, Note_on_c, 0, 83, 82
2, 29181, Note_on_c, 0, 83, 0
2, 29184, Note_on_c, 0, 83, 82
2, 29232, Note_on_c, 0, 83, 0
2, 29232, Note_on_c, 0, 81, 82
2, 29277, Note_on_c, 0, 81, 0
2, 29280, Note_on_c, 0, 83, 82
2, 29319, Note_on_c, 0, 83, 0
2, 29376, Note_on_c, 0, 79, 98
2, 29394, Note_on_c, 0, 84, 98
2, 29412, Note_on_c, 0, 88, 98
2, 29430, Note_on_c, 0, 91, 98
2, 29565, Note_on_c, 0, 91, 0
2, 29565, Note_on_c, 0, 88, 0
2, 29565, Note_on_c, 0, 84, 0
2, 29565, Note_on_c, 0, 79, 0
2, 29568, Note_on_c, 0, 88, 82
2, 29616, Note_on_c, 0, 88, 0
2, 29616, Note_on_c, 0, 84, 82
2, 29661, Note_on_c, 0, 84, 0
2, 29664, Note_on_c, 0, 81, 98
2, 29682, Note_on_c, 0, 86, 98
2, 29700, Note_on_c, 0, 89, 98
2, 29718, Note_on_c, 0, 93, 98
2, 29853, Note_on_c, 0, 93, 0
2, 29853, Note_on_c, 0, 89, 0
2, 29853, Note_on_c, 0, 86, 0
2, 29853, Note_on_c, 0, 81, 0
2, 29856, Note_on_c, 0, 89, 82
2, 29904, Note_on_c, 0, 89, 0
2, 29904, Note_on_c, 0, 86, 82
2, 29949, Note_on_c, 0, 86, 0
2, 29952, Note_on_c, 0, 84, 82
2, 29952, Note_on_c, 0, 79, 82
2, 30129, Note_on_c, 0, 84, 0
2, 30129, Note_on_c, 0, 79, 0
2, 30144, Note_on_c, 0, 88, 82
2, 30144, Note_on_c, 0, 83, 82
2, 30168, Note_on_c, 0, 88, 0
2, 30168, Note_on_c, 0, 86, 82
2, 30235, Note_on_c, 0, 86, 0
2, 30235, Note_on_c, 0, 83, 0
2, 30240, Note_on_c, 0, 67, 98
2, 30258, Note_on_c, 0, 72, 98
2, 30276, Note_on_c, 0, 76, 98
2, 30294, Note_on_c, 0, 79, 98
2, 30429, Note_on_c, 0, 79, 0
2, 30429, Note_on_c, 0, 76, 0
2, 30429, Note_on_c, 0, 72, 0
2, 30429, Note_on_c, 0, 67, 0
2, 30432, Note_on_c, 0, 76, 82
2, 30480, Note_on_c, 0, 76, 0
2, 30480, Note_on_c, 0, 72, 82
2, 30525, Note_on_c, 0, 72, 0
2, 30528, Note_on_c, 0, 72, 98
2, 30576, Note_on_c, 0, 72, 0
2, 30576, Note_on_c, 0, 71, 82
2, 30621, Note_on_c, 0, 71, 0
2, 30624, Note_on_c, 0, 71, 82
2, 30672, Note_on_c, 0, 71, 0
2, 30672, Note_on_c, 0, 69, 82
2, 30717, Note_on_c, 0, 69, 0
2, 30720, Note_on_c, 0, 71, 82
2, 30759, Note_on_c, 0, 71, 0
2, 30816, Note_on_c, 0, 67, 98
2, 30834, Note_on_c, 0, 72, 98
2, 30852, Note_on_c, 0, 76, 98
2, 30870, Note_on_c, 0, 79, 98
2, 31005, Note_on_c, 0, 79, 0
2, 31005, Note_on_c, 0, 76, 0
2, 31005, Note_on_c, 0, 72, 0
2, 31005, Note_on_c, 0, 67, 0
2, 31008, Note_on_c, 0, 76, 82
2, 31056, Note_on_c, 0, 76, 0
2, 31056, Note_on_c, 0, 72, 82
2, 31101, Note_on_c, 0, 72, 0
2, 31104, Note_on_c, 0, 72, 98
2, 31152, Note_on_c, 0, 72, 0
2, 31152, Note_on_c, 0, 71, 82
2, 31197, Note_on_c, 0, 71, 0
2, 31200, Note_on_c, 0, 71, 82
2, 31248, Note_on_c, 0, 71, 0
2, 31248, Note_on_c, 0, 69, 82
2, 31293, Note_on_c, 0, 69, 0
2, 31296, Note_on_c, 0, 71, 82
2, 31335, Note_on_c, 0, 71, 0
2, 31392, Note_on_c, 0, 67, 98
2, 31410, Note_on_c, 0, 72, 98
2, 31428, Note_on_c, 0, 76, 98
2, 31446, Note_on_c, 0, 79, 98
2, 31581, Note_on_c, 0, 79, 0
2, 31581, Note_on_c, 0, 76, 0
2, 31581, Note_on_c, 0, 72, 0
2, 31581, Note_on_c, 0, 67, 0
2, 31584, Note_on_c, 0, 76, 82
2, 31632, Note_on_c, 0, 76, 0
2, 31632, Note_on_c, 0, 72, 82
2, 31677, Note_on_c, 0, 72, 0
2, 31680, Note_on_c, 0, 69, 98
2, 31698, Note_on_c, 0, 74, 98
2, 31716, Note_on_c, 0, 77, 98
2, 31734, Note_on_c, 0, 81, 98
2, 31869, Note_on_c, 0, 81, 0
2, 31869, Note_on_c, 0, 77, 0
2, 31869, Note_on_c, 0, 74, 0
2, 31869, Note_on_c, 0, 69, 0
2, 31872, Note_on_c, 0, 77, 82
2, 31920, Note_on_c, 0, 77, 0
2, 31920, Note_on_c, 0, 74, 82
2, 31965, Note_on_c, 0, 74, 0
2, 31968, Note_on_c, 0, 72, 82
2, 31968, Note_on_c, 0, 67, 82
2, 32145, Note_on_c, 0, 72, 0
2, 32145, Note_on_c, 0, 67, 0
2, 32160, Note_on_c, 0, 76, 82
2, 32160, Note_on_c, 0, 71, 82
2, 32184, Note_on_c, 0, 76, 0
2, 32184, Note_on_c, 0, 74, 82
2, 32251, Note_on_c, 0, 74, 0
2, 32251, Note_on_c, 0, 71, 0
2, 32256, Note_on_c, 0, 72, 82
2, 32345, Note_on_c, 0, 72, 0
2, 32352, Note_on_c, 0, 84, 86
2, 32400, Note_on_c, 0, 84, 0
2, 32400, Note_on_c, 0, 83, 70
2, 32445, Note_on_c, 0, 83, 0
2, 32448, Note_on_c, 0, 84, 70
2, 32493, Note_on_c, 0, 84, 0
2, 32496, Note_on_c, 0, 83, 70
2, 32541, Note_on_c, 0, 83, 0
2, 32544, Note_on_c, 0, 84, 86
2, 32592, Note_on_c, 0, 84, 0
2, 32592, Note_on_c, 0, 83, 71
2, 32637, Note_on_c, 0, 83, 0
2, 32640, Note_on_c, 0, 84, 72
2, 32685, Note_on_c, 0, 84, 0
2, 32688, Note_on_c, 0, 83, 73
2, 32733, Note_on_c, 0, 83, 0
2, 32736, Note_on_c, 0, 84, 74
2, 32781, Note_on_c, 0, 84, 0
2, 32784, Note_on_c, 0, 83, 75
2, 32829, Note_on_c, 0, 83, 0
2, 32832, Note_on_c, 0, 84, 92
2, 32880, Note_on_c, 0, 84, 0
2, 32880, Note_on_c, 0, 83, 77
2, 32925, Note_on_c, 0, 83, 0
2, 32928, Note_on_c, 0, 84, 78
2, 32973, Note_on_c, 0, 84, 0
2, 32976, Note_on_c, 0, 83, 79
2, 33021, Note_on_c, 0, 83, 0
2, 33024, Note_on_c, 0, 84, 80
2, 33069, Note_on_c, 0, 84, 0
2, 33072, Note_on_c, 0, 83, 81
2, 33117, Note_on_c, 0, 83, 0
2, 33120, Note_on_c, 0, 84, 102
2, 33216, Note_on_c, 0, 84, 0
2, 33216, Note_on_c, 0, 84, 86
2, 33216, Note_on_c, 0, 79, 86
2, 33216, Note_on_c, 0, 76, 86
2, 33305, Note_on_c, 0, 84, 0
2, 33305, Note_on_c, 0, 79, 0
2, 33305, Note_on_c, 0, 76, 0
2, 33312, Note_on_c, 0, 84, 86
2, 33312, Note_on_c, 0, 79, 86
2, 33312, Note_on_c, 0, 76, 86
2, 33401, Note_on_c, 0, 84, 0
2, 33401, Note_on_c, 0, 79, 0
2, 33401, Note_on_c, 0, 76, 0
2, 33408, Note_on_c, 0, 84, 102
2, 33408, Note_on_c, 0, 79, 102
2, 33408, Note_on_c, 0, 76, 102
2, 33504, Note_on_c, 0, 84, 0
2, 33504, Note_on_c, 0, 79, 0
2, 33504, Note_on_c, 0, 76, 0
2, 33600, Note_on_c, 0, 79, 70
2, 33689, Note_on_c, 0, 79, 0
2, 33696, Note_on_c, 0, 78, 86
2, 33696, Note_on_c, 0, 67, 86
2, 33792, Note_on_c, 0, 78, 0
2, 33792, Note_on_c, 0, 67, 0
2, 33792, Note_on_c, 0, 77, 70
2, 33792, Note_on_c, 0, 67, 70
2, 33881, Note_on_c, 0, 77, 0
2, 33881, Note_on_c, 0, 67, 0
2, 33888, Note_on_c, 0, 76, 70
2, 33888, Note_on_c, 0, 67, 70
2, 33977, Note_on_c, 0, 76, 0
2, 33977, Note_on_c, 0, 67, 0
2, 33984, Note_on_c, 0, 77, 86
2, 34023, Note_on_c, 0, 77, 0
2, 34080, Note_on_c, 0, 77, 70
2, 34128, Note_on_c, 0, 77, 0
2, 34128, Note_on_c, 0, 76, 70
2, 34173, Note_on_c, 0, 76, 0
2, 34176, Note_on_c, 0, 77, 70
2, 34265, Note_on_c, 0, 77, 0
2, 34272, Note_on_c, 0, 74, 70
2, 34361, Note_on_c, 0, 74, 0
2, 34464, Note_on_c, 0, 91, 66
2, 34553, Note_on_c, 0, 91, 0
2, 34560, Note_on_c, 0, 90, 82
2, 34656, Note_on_c, 0, 90, 0
2, 34656, Note_on_c, 0, 89, 66
2, 34745, Note_on_c, 0, 89, 0
2, 34752, Note_on_c, 0, 88, 66
2, 34841, Note_on_c, 0, 88, 0
2, 34848, Note_on_c, 0, 89, 82
2, 34887, Note_on_c, 0, 89, 0
2, 34944, Note_on_c, 0, 89, 67
2, 34992, Note_on_c, 0, 89, 0
2, 34992, Note_on_c, 0, 88, 67
2, 35037, Note_on_c, 0, 88, 0
2, 35040, Note_on_c, 0, 89, 68
2, 35129, Note_on_c, 0, 89, 0
2, 35136, Note_on_c, 0, 89, 85
2, 35175, Note_on_c, 0, 89, 0
2, 35232, Note_on_c, 0, 89, 70
2, 35280, Note_on_c, 0, 89, 0
2, 35280, Note_on_c, 0, 88, 71
2, 35325, Note_on_c, 0, 88, 0
2, 35328, Note_on_c, 0, 89, 72
2, 35417, Note_on_c, 0, 89, 0
2, 35424, Note_on_c, 0, 89, 89
2, 35463, Note_on_c, 0, 89, 0
2, 35520, Note_on_c, 0, 89, 74
2, 35568, Note_on_c, 0, 89, 0
2, 35568, Note_on_c, 0, 88, 75
2, 35613, Note_on_c, 0, 88, 0
2, 35616, Note_on_c, 0, 89, 75
2, 35705, Note_on_c, 0, 89, 0
2, 35712, Note_on_c, 0, 89, 93
2, 35806, Note_on_c, 0, 89, 0
2, 35808, Note_on_c, 0, 89, 78
2, 35856, Note_on_c, 0, 89, 0
2, 35856, Note_on_c, 0, 88, 78
2, 35901, Note_on_c, 0, 88, 0
2, 35904, Note_on_c, 0, 89, 79
2, 35993, Note_on_c, 0, 89, 0
2, 36000, Note_on_c, 0, 88, 80
2, 36000, Note_on_c, 0, 81, 80
2, 36039, Note_on_c, 0, 88, 0
2, 36039, Note_on_c, 0, 81, 0
2, 36096, Note_on_c, 0, 81, 82
2, 36141, Note_on_c, 0, 81, 0
2, 36144, Note_on_c, 0, 80, 82
2, 36189, Note_on_c, 0, 80, 0
2, 36192, Note_on_c, 0, 81, 82
2, 36237, Note_on_c, 0, 81, 0
2, 36240, Note_on_c, 0, 80, 82
2, 36285, Note_on_c, 0, 80, 0
2, 36288, Note_on_c, 0, 81, 98
2, 36336, Note_on_c, 0, 81, 0
2, 36336, Note_on_c, 0, 80, 81
2, 36381, Note_on_c, 0, 80, 0
2, 36384, Note_on_c, 0, 81, 81
2, 36429, Note_on_c, 0, 81, 0
2, 36432, Note_on_c, 0, 80, 80
2, 36477, Note_on_c, 0, 80, 0
2, 36480, Note_on_c, 0, 81, 80
2, 36525, Note_on_c, 0, 81, 0
2, 36528, Note_on_c, 0, 80, 79
2, 36573, Note_on_c, 0, 80, 0
2, 36576, Note_on_c, 0, 81, 95
2, 36624, Note_on_c, 0, 81, 0
2, 36624, Note_on_c, 0, 80, 78
2, 36669, Note_on_c, 0, 80, 0
2, 36672, Note_on_c, 0, 81, 78
2, 36717, Note_on_c, 0, 81, 0
2, 36720, Note_on_c, 0, 80, 78
2, 36765, Note_on_c, 0, 80, 0
2, 36768, Note_on_c, 0, 81, 77
2, 36813, Note_on_c, 0, 81, 0
2, 36816, Note_on_c, 0, 80, 77
2, 36861, Note_on_c, 0, 80, 0
2, 36864, Note_on_c, 0, 81, 92
2, 36912, Note_on_c, 0, 81, 0
2, 36912, Note_on_c, 0, 79, 76
2, 36957, Note_on_c, 0, 79, 0
2, 36960, Note_on_c, 0, 82, 75
2, 37005, Note_on_c, 0, 82, 0
2, 37008, Note_on_c, 0, 81, 75
2, 37053, Note_on_c, 0, 81, 0
2, 37056, Note_on_c, 0, 79, 74
2, 37101, Note_on_c, 0, 79, 0
2, 37104, Note_on_c, 0, 77, 74
2, 37149, Note_on_c, 0, 77, 0
2, 37152, Note_on_c, 0, 76, 90
2, 37200, Note_on_c, 0, 76, 0
2, 37200, Note_on_c, 0, 74, 75
2, 37245, Note_on_c, 0, 74, 0
2, 37248, Note_on_c, 0, 73, 76
2, 37293, Note_on_c, 0, 73, 0
2, 37296, Note_on_c, 0, 70, 78
2, 37341, Note_on_c, 0, 70, 0
2, 37344, Note_on_c, 0, 69, 79
2, 37389, Note_on_c, 0, 69, 0
2, 37392, Note_on_c, 0, 67, 80
2, 37437, Note_on_c, 0, 67, 0
2, 37440, Note_on_c, 0, 65, 98
2, 37488, Note_on_c, 0, 65, 0
2, 37488, Note_on_c, 0, 64, 82
2, 37533, Note_on_c, 0, 64, 0
2, 37536, Note_on_c, 0, 62, 82
2, 37581, Note_on_c, 0, 62, 0
2, 37584, Note_on_c, 0, 61, 82
2, 37629, Note_on_c, 0, 61, 0
2, 37632, Note_on_c, 0, 62, 82
2, 37677, Note_on_c, 0, 62, 0
2, 37680, Note_on_c, 0, 61, 82
2, 37725, Note_on_c, 0, 61, 0
2, 37728, Note_on_c, 0, 62, 98
2, 37776, Note_on_c, 0, 62, 0
2, 37776, Note_on_c, 0, 61, 82
2, 37821, Note_on_c, 0, 61, 0
2, 37824, Note_on_c, 0, 62, 82
2, 37869, Note_on_c, 0, 62, 0
2, 37872, Note_on_c, 0, 61, 82
2, 37917, Note_on_c, 0, 61, 0
2, 37920, Note_on_c, 0, 62, 82
2, 37965, Note_on_c, 0, 62, 0
2, 37968, Note_on_c, 0, 61, 82
2, 38013, Note_on_c, 0, 61, 0
2, 38016, Note_on_c, 0, 62, 98
2, 38064, Note_on_c, 0, 62, 0
2, 38064, Note_on_c, 0, 63, 82
2, 38109, Note_on_c, 0, 63, 0
2, 38112, Note_on_c, 0, 62, 82
2, 38157, Note_on_c, 0, 62, 0
2, 38160, Note_on_c, 0, 63, 82
2, 38205, Note_on_c, 0, 63, 0
2, 38208, Note_on_c, 0, 62, 82
2, 38253, Note_on_c, 0, 62, 0
2, 38256, Note_on_c, 0, 63, 81
2, 38301, Note_on_c, 0, 63, 0
2, 38304, Note_on_c, 0, 62, 97
2, 38352, Note_on_c, 0, 62, 0
2, 38352, Note_on_c, 0, 63, 80
2, 38397, Note_on_c, 0, 63, 0
2, 38400, Note_on_c, 0, 62, 80
2, 38445, Note_on_c, 0, 62, 0
2, 38448, Note_on_c, 0, 63, 79
2, 38493, Note_on_c, 0, 63, 0
2, 38496, Note_on_c, 0, 62, 79
2, 38541, Note_on_c, 0, 62, 0
2, 38544, Note_on_c, 0, 63, 78
2, 38589, Note_on_c, 0, 63, 0
2, 38592, Note_on_c, 0, 62, 94
2, 38640, Note_on_c, 0, 62, 0
2, 38640, Note_on_c, 0, 63, 77
2, 38685, Note_on_c, 0, 63, 0
2, 38688, Note_on_c, 0, 62, 77
2, 38733, Note_on_c, 0, 62, 0
2, 38736, Note_on_c, 0, 63, 76
2, 38781, Note_on_c, 0, 63, 0
2, 38784, Note_on_c, 0, 62, 76
2, 38829, Note_on_c, 0, 62, 0
2, 38832, Note_on_c, 0, 63, 75
2, 38877, Note_on_c, 0, 63, 0
2, 38880, Note_on_c, 0, 62, 91
2, 38928, Note_on_c, 0, 62, 0
2, 38928, Note_on_c, 0, 63, 74
2, 38973, Note_on_c, 0, 63, 0
2, 38976, Note_on_c, 0, 62, 74
2, 39021, Note_on_c, 0, 62, 0
2, 39024, Note_on_c, 0, 63, 73
2, 39069, Note_on_c, 0, 63, 0
2, 39072, Note_on_c, 0, 62, 73
2, 39117, Note_on_c, 0, 62, 0
2, 39120, Note_on_c, 0, 63, 72
2, 39165, Note_on_c, 0, 63, 0
2, 39168, Note_on_c, 0, 62, 88
2, 39360, Note_on_c, 0, 62, 0
2, 39360, Note_on_c, 0, 62, 70
2, 39449, Note_on_c, 0, 62, 0
2, 39456, Note_on_c, 0, 67, 86
2, 39495, Note_on_c, 0, 67, 0
2, 39552, Note_on_c, 0, 67, 70
2, 39591, Note_on_c, 0, 67, 0
2, 39648, Note_on_c, 0, 67, 70
2, 39687, Note_on_c, 0, 67, 0
2, 39744, Note_on_c, 0, 70, 86
2, 39792, Note_on_c, 0, 70, 0
2, 39792, Note_on_c, 0, 69, 70
2, 39837, Note_on_c, 0, 69, 0
2, 39840, Note_on_c, 0, 69, 70
2, 39888, Note_on_c, 0, 69, 0
2, 39888, Note_on_c, 0, 67, 70
2, 39933, Note_on_c, 0, 67, 0
2, 39936, Note_on_c, 0, 69, 70
2, 40025, Note_on_c, 0, 69, 0
2, 40032, Note_on_c, 0, 71, 70
2, 40173, Note_on_c, 0, 71, 0
2, 40224, Note_on_c, 0, 67, 70
2, 40313, Note_on_c, 0, 67, 0
2, 40320, Note_on_c, 0, 72, 86
2, 40359, Note_on_c, 0, 72, 0
2, 40416, Note_on_c, 0, 72, 70
2, 40455, Note_on_c, 0, 72, 0
2, 40512, Note_on_c, 0, 72, 70
2, 40551, Note_on_c, 0, 72, 0
2, 40608, Note_on_c, 0, 76, 86
2, 40656, Note_on_c, 0, 76, 0
2, 40656, Note_on_c, 0, 74, 70
2, 40701, Note_on_c, 0, 74, 0
2, 40704, Note_on_c, 0, 74, 70
2, 40752, Note_on_c, 0, 74, 0
2, 40752, Note_on_c, 0, 72, 70
2, 40797, Note_on_c, 0, 72, 0
2, 40800, Note_on_c, 0, 74, 70
2, 40839, Note_on_c, 0, 74, 0
2, 40896, Note_on_c, 0, 72, 86
2, 40944, Note_on_c, 0, 72, 0
2, 40944, Note_on_c, 0, 71, 70
2, 40989, Note_on_c, 0, 71, 0
2, 40992, Note_on_c, 0, 71, 70
2, 41040, Note_on_c, 0, 71, 0
2, 41040, Note_on_c, 0, 69, 70
2, 41085, Note_on_c, 0, 69, 0
2, 41088, Note_on_c, 0, 71, 70
2, 41127, Note_on_c, 0, 71, 0
2, 41184, Note_on_c, 0, 67, 86
2, 41202, Note_on_c, 0, 72, 86
2, 41220, Note_on_c, 0, 76, 86
2, 41238, Note_on_c, 0, 79, 86
2, 41373, Note_on_c, 0, 79, 0
2, 41373, Note_on_c, 0, 76, 0
2, 41373, Note_on_c, 0, 72, 0
2, 41373, Note_on_c, 0, 67, 0
2, 41376, Note_on_c, 0, 76, 70
2, 41424, Note_on_c, 0, 76, 0
2, 41424, Note_on_c, 0, 72, 70
2, 41469, Note_on_c, 0, 72, 0
2, 41472, Note_on_c, 0, 72, 86
2, 41520, Note_on_c, 0, 72, 0
2, 41520, Note_on_c, 0, 71, 70
2, 41565, Note_on_c, 0, 71, 0
2, 41568, Note_on_c, 0, 71, 70
2, 41616, Note_on_c, 0, 71, 0
2, 41616, Note_on_c, 0, 69, 70
2, 41661, Note_on_c, 0, 69, 0
2, 41664, Note_on_c, 0, 71, 70
2, 41703, Note_on_c, 0, 71, 0
2, 41760, Note_on_c, 0, 67, 86
2, 41778, Note_on_c, 0, 72, 86
2, 41796, Note_on_c, 0, 76, 86
2, 41814, Note_on_c, 0, 79, 86
2, 41949, Note_on_c, 0, 79, 0
2, 41949, Note_on_c, 0, 76, 0
2, 41949, Note_on_c, 0, 72, 0
2, 41949, Note_on_c, 0, 67, 0
2, 41952, Note_on_c, 0, 76, 70
2, 42000, Note_on_c, 0, 76, 0
2, 42000, Note_on_c, 0, 72, 70
2, 42045, Note_on_c, 0, 72, 0
2, 42048, Note_on_c, 0, 72, 86
2, 42096, Note_on_c, 0, 72, 0
2, 42096, Note_on_c, 0, 71, 70
2, 42141, Note_on_c, 0, 71, 0
2, 42144, Note_on_c, 0, 71, 70
2, 42192, Note_on_c, 0, 71, 0
2, 42192, Note_on_c, 0, 69, 70
2, 42237, Note_on_c, 0, 69, 0
2, 42240, Note_on_c, 0, 71, 70
2, 42279, Note_on_c, 0, 71, 0
2, 42336, Note_on_c, 0, 67, 86
2, 42354, Note_on_c, 0, 72, 86
2, 42372, Note_on_c, 0, 76, 86
2, 42390, Note_on_c, 0, 79, 86
2, 42525, Note_on_c, 0, 79, 0
2, 42525, Note_on_c, 0, 76, 0
2, 42525, Note_on_c, 0, 72, 0
2, 42525, Note_on_c, 0, 67, 0
2, 42528, Note_on_c, 0, 76, 70
2, 42576, Note_on_c, 0, 76, 0
2, 42576, Note_on_c, 0, 72, 70
2, 42621, Note_on_c, 0, 72, 0
2, 42624, Note_on_c, 0, 69, 86
2, 42642, Note_on_c, 0, 74, 86
2, 42660, Note_on_c, 0, 77, 86
2, 42678, Note_on_c, 0, 81, 86
2, 42813, Note_on_c, 0, 81, 0
2, 42813, Note_on_c, 0, 77, 0
2, 42813, Note_on_c, 0, 74, 0
2, 42813, Note_on_c, 0, 69, 0
2, 42816, Note_on_c, 0, 77, 70
2, 42864, Note_on_c, 0, 77, 0
2, 42864, Note_on_c, 0, 74, 70
2, 42909, Note_on_c, 0, 74, 0
2, 42912, Note_on_c, 0, 72, 70
2, 42912, Note_on_c, 0, 67, 70
2, 43089, Note_on_c, 0, 72, 0
2, 43089, Note_on_c, 0, 67, 0
2, 43104, Note_on_c, 0, 76, 70
2, 43104, Note_on_c, 0, 71, 70
2, 43128, Note_on_c, 0, 76, 0
2, 43128, Note_on_c, 0, 74, 70
2, 43195, Note_on_c, 0, 74, 0
2, 43195, Note_on_c, 0, 71, 0
2, 43200, Note_on_c, 0, 72, 70
2, 43289, Note_on_c, 0, 72, 0
2, 43296, Note_on_c, 0, 72, 70
2, 43320, Note_on_c, 0, 72, 0
2, 43320, Note_on_c, 0, 84, 70
2, 43387, Note_on_c, 0, 84, 0
2, 43392, Note_on_c, 0, 71, 70
2, 43416, Note_on_c, 0, 71, 0
2, 43416, Note_on_c, 0, 83, 70
2, 43483, Note_on_c, 0, 83, 0
2, 43488, Note_on_c, 0, 70, 70
2, 43512, Note_on_c, 0, 70, 0
2, 43512, Note_on_c, 0, 82, 70
2, 43579, Note_on_c, 0, 82, 0
2, 43584, Note_on_c, 0, 69, 70
2, 43608, Note_on_c, 0, 69, 0
2, 43608, Note_on_c, 0, 81, 70
2, 43675, Note_on_c, 0, 81, 0
2, 43680, Note_on_c, 0, 67, 70
2, 43704, Note_on_c, 0, 67, 0
2, 43704, Note_on_c, 0, 79, 70
2, 43771, Note_on_c, 0, 79, 0
2, 43776, Note_on_c, 0, 78, 70
2, 43776, Note_on_c, 0, 66, 70
2, 44064, Note_on_c, 0, 78, 0
2, 44064, Note_on_c, 0, 66, 0
2, 44064, Note_on_c, 0, 79, 72
2, 44064, Note_on_c, 0, 67, 72
2, 44329, Note_on_c, 0, 79, 0
2, 44329, Note_on_c, 0, 67, 0
2, 44352, Note_on_c, 0, 74, 74
2, 44400, Note_on_c, 0, 74, 0
2, 44400, Note_on_c, 0, 72, 73
2, 44445, Note_on_c, 0, 72, 0
2, 44448, Note_on_c, 0, 72, 72
2, 44496, Note_on_c, 0, 72, 0
2, 44496, Note_on_c, 0, 71, 71
2, 44541, Note_on_c, 0, 71, 0
2, 44544, Note_on_c, 0, 72, 70
2, 44633, Note_on_c, 0, 72, 0
2, 44640, Note_on_c, 0, 71, 70
2, 44640, Note_on_c, 0, 67, 70
2, 44729, Note_on_c, 0, 71, 0
2, 44729, Note_on_c, 0, 67, 0
2, 44832, Note_on_c, 0, 67, 70
2, 44921, Note_on_c, 0, 67, 0
2, 44928, Note_on_c, 0, 72, 86
2, 44967, Note_on_c, 0, 72, 0
2, 45024, Note_on_c, 0, 72, 70
2, 45063, Note_on_c, 0, 72, 0
2, 45120, Note_on_c, 0, 72, 70
2, 45159, Note_on_c, 0, 72, 0
2, 45216, Note_on_c, 0, 75, 86
2, 45264, Note_on_c, 0, 75, 0
2, 45264, Note_on_c, 0, 73, 70
2, 45309, Note_on_c, 0, 73, 0
2, 45312, Note_on_c, 0, 73, 70
2, 45360, Note_on_c, 0, 73, 0
2, 45360, Note_on_c, 0, 72, 70
2, 45405, Note_on_c, 0, 72, 0
2, 45408, Note_on_c, 0, 73, 70
2, 45549, Note_on_c, 0, 73, 0
2, 45696, Note_on_c, 0, 67, 82
2, 45785, Note_on_c, 0, 67, 0
2, 45792, Note_on_c, 0, 72, 98
2, 45831, Note_on_c, 0, 72, 0
2, 45888, Note_on_c, 0, 72, 82
2, 45927, Note_on_c, 0, 72, 0
2, 45984, Note_on_c, 0, 72, 82
2, 46023, Note_on_c, 0, 72, 0
2, 46080, Note_on_c, 0, 76, 98
2, 46128, Note_on_c, 0, 76, 0
2, 46128, Note_on_c, 0, 74, 82
2, 46173, Note_on_c, 0, 74, 0
2, 46176, Note_on_c, 0, 74, 82
2, 46224, Note_on_c, 0, 74, 0
2, 46224, Note_on_c, 0, 73, 82
2, 46269, Note_on_c, 0, 73, 0
2, 46272, Note_on_c, 0, 74, 82
2, 46361, Note_on_c, 0, 74, 0
2, 46368, Note_on_c, 0, 72, 98
2, 46416, Note_on_c, 0, 72, 0
2, 46416, Note_on_c, 0, 71, 82
2, 46461, Note_on_c, 0, 71, 0
2, 46464, Note_on_c, 0, 71, 82
2, 46512, Note_on_c, 0, 71, 0
2, 46512, Note_on_c, 0, 70, 82
2, 46557, Note_on_c, 0, 70, 0
2, 46560, Note_on_c, 0, 71, 82
2, 46701, Note_on_c, 0, 71, 0
2, 46848, Note_on_c, 0, 79, 82
2, 46937, Note_on_c, 0, 79, 0
2, 46944, Note_on_c, 0, 84, 98
2, 46944, Note_on_c, 0, 76, 98
2, 46983, Note_on_c, 0, 84, 0
2, 46983, Note_on_c, 0, 76, 0
2, 47040, Note_on_c, 0, 84, 82
2, 47040, Note_on_c, 0, 77, 82
2, 47079, Note_on_c, 0, 84, 0
2, 47079, Note_on_c, 0, 77, 0
2, 47136, Note_on_c, 0, 84, 82
2, 47136, Note_on_c, 0, 79, 82
2, 47175, Note_on_c, 0, 84, 0
2, 47175, Note_on_c, 0, 79, 0
2, 47232, Note_on_c, 0, 86, 82
2, 47232, Note_on_c, 0, 81, 82
2, 47232, Note_on_c, 0, 74, 82
2, 47271, Note_on_c, 0, 86, 0
2, 47271, Note_on_c, 0, 81, 0
2, 47271, Note_on_c, 0, 74, 0
2, 47328, Note_on_c, 0, 86, 82
2, 47376, Note_on_c, 0, 86, 0
2, 47376, Note_on_c, 0, 85, 82
2, 47421, Note_on_c, 0, 85, 0
2, 47424, Note_on_c, 0, 86, 82
2, 47513, Note_on_c, 0, 86, 0
2, 47520, Note_on_c, 0, 83, 82
2, 47559, Note_on_c, 0, 83, 0
2, 47616, Note_on_c, 0, 83, 82
2, 47793, Note_on_c, 0, 83, 0
2, 47808, Note_on_c, 0, 79, 98
2, 47826, Note_on_c, 0, 84, 98
2, 47844, Note_on_c, 0, 88, 98
2, 47862, Note_on_c, 0, 91, 98
2, 47997, Note_on_c, 0, 91, 0
2, 47997, Note_on_c, 0, 88, 0
2, 47997, Note_on_c, 0, 84, 0
2, 47997, Note_on_c, 0, 79, 0
2, 48000, Note_on_c, 0, 88, 82
2, 48048, Note_on_c, 0, 88, 0
2, 48048, Note_on_c, 0, 84, 82
2, 48093, Note_on_c, 0, 84, 0
2, 48096, Note_on_c, 0, 84, 98
2, 48144, Note_on_c, 0, 84, 0
2, 48144, Note_on_c, 0, 83, 82
2, 48189, Note_on_c, 0, 83, 0
2, 48192, Note_on_c, 0, 83, 82
2, 48240, Note_on_c, 0, 83, 0
2, 48240, Note_on_c, 0, 81, 82
2, 48285, Note_on_c, 0, 81, 0
2, 48288, Note_on_c, 0, 83, 82
2, 48327, Note_on_c, 0, 83, 0
2, 48384, Note_on_c, 0, 79, 98
2, 48402, Note_on_c, 0, 84, 98
2, 48420, Note_on_c, 0, 88, 98
2, 48438, Note_on_c, 0, 91, 98
2, 48573, Note_on_c, 0, 91, 0
2, 48573, Note_on_c, 0, 88, 0
2, 48573, Note_on_c, 0, 84, 0
2, 48573, Note_on_c, 0, 79, 0
2, 48576, Note_on_c, 0, 88, 82
2, 48624, Note_on_c, 0, 88, 0
2, 48624, Note_on_c, 0, 84, 82
2, 48669, Note_on_c, 0, 84, 0
2, 48672, Note_on_c, 0, 84, 98
2, 48720, Note_on_c, 0, 84, 0
2, 48720, Note_on_c, 0, 83, 82
2, 48765, Note_on_c, 0, 83, 0
2, 48768, Note_on_c, 0, 83, 82
2, 48816, Note_on_c, 0, 83, 0
2, 48816, Note_on_c, 0, 81, 82
2, 48861, Note_on_c, 0, 81, 0
2, 48864, Note_on_c, 0, 83, 82
2, 48903, Note_on_c, 0, 83, 0
2, 48960, Note_on_c, 0, 79, 98
2, 48978, Note_on_c, 0, 84, 98
2, 48996, Note_on_c, 0, 88, 98
2, 49014, Note_on_c, 0, 91, 98
2, 49149, Note_on_c, 0, 91, 0
2, 49149, Note_on_c, 0, 88, 0
2, 49149, Note_on_c, 0, 84, 0
2, 49149, Note_on_c, 0, 79, 0
2, 49152, Note_on_c, 0, 88, 82
2, 49200, Note_on_c, 0, 88, 0
2, 49200, Note_on_c, 0, 84, 82
2, 49245, Note_on_c, 0, 84, 0
2, 49248, Note_on_c, 0, 81, 98
2, 49266, Note_on_c, 0, 86, 98
2, 49284, Note_on_c, 0, 89, 98
2, 49302, Note_on_c, 0, 93, 98
2, 49437, Note_on_c, 0, 93, 0
2, 49437, Note_on_c, 0, 89, 0
2, 49437, Note_on_c, 0, 86, 0
2, 49437, Note_on_c, 0, 81, 0
2, 49440, Note_on_c, 0, 89, 82
2, 49488, Note_on_c, 0, 89, 0
2, 49488, Note_on_c, 0, 86, 82
2, 49533, Note_on_c, 0, 86, 0
2, 49536, Note_on_c, 0, 84, 82
2, 49536, Note_on_c, 0, 79, 82
2, 49713, Note_on_c, 0, 84, 0
2, 49713, Note_on_c, 0, 79, 0
2, 49728, Note_on_c, 0, 88, 82
2, 49728, Note_on_c, 0, 83, 82
2, 49752, Note_on_c, 0, 88, 0
2, 49752, Note_on_c, 0, 86, 82
2, 49819, Note_on_c, 0, 86, 0
2, 49819, Note_on_c, 0, 83, 0
2, 49824, Note_on_c, 0, 67, 98
2, 49842, Note_on_c, 0, 72, 98
2, 49860, Note_on_c, 0, 76, 98
2, 49878, Note_on_c, 0, 79, 98
2, 50013, Note_on_c, 0, 79, 0
2, 50013, Note_on_c, 0, 76, 0
2, 50013, Note_on_c, 0, 72, 0
2, 50013, Note_on_c, 0, 67, 0
2, 50016, Note_on_c, 0, 76, 82
2, 50064, Note_on_c, 0, 76, 0
2, 50064, Note_on_c, 0, 72, 82
2, 50109, Note_on_c, 0, 72, 0
2, 50112, Note_on_c, 0, 72, 98
2, 50160, Note_on_c, 0, 72, 0
2, 50160, Note_on_c, 0, 71, 82
2, 50205, Note_on_c, 0, 71, 0
2, 50208, Note_on_c, 0, 71, 82
2, 50256, Note_on_c, 0, 71, 0
2, 50256, Note_on_c, 0, 69, 82
2, 50301, Note_on_c, 0, 69, 0
2, 50304, Note_on_c, 0, 71, 82
2, 50343, Note_on_c, 0, 71, 0
2, 50400, Note_on_c, 0, 67, 98
2, 50418, Note_on_c, 0, 72, 98
2, 50436, Note_on_c, 0, 76, 98
2, 50454, Note_on_c, 0, 79, 98
2, 50589, Note_on_c, 0, 79, 0
2, 50589, Note_on_c, 0, 76, 0
2, 50589, Note_on_c, 0, 72, 0
2, 50589, Note_on_c, 0, 67, 0
2, 50592, Note_on_c, 0, 76, 82
2, 50640, Note_on_c, 0, 76, 0
2, 50640, Note_on_c, 0, 72, 82
2, 50685, Note_on_c, 0, 72, 0
2, 50688, Note_on_c, 0, 72, 98
2, 50736, Note_on_c, 0, 72, 0
2, 50736, Note_on_c, 0, 71, 82
2, 50781, Note_on_c, 0, 71, 0
2, 50784, Note_on_c, 0, 71, 82
2, 50832, Note_on_c, 0, 71, 0
2, 50832, Note_on_c, 0, 69, 82
2, 50877, Note_on_c, 0, 69, 0
2, 50880, Note_on_c, 0, 71, 82
2, 50919, Note_on_c, 0, 71, 0
2, 50976, Note_on_c, 0, 67, 98
2, 50994, Note_on_c, 0, 72, 98
2, 51012, Note_on_c, 0, 76, 98
2, 51030, Note_on_c, 0, 79, 98
2, 51165, Note_on_c, 0, 79, 0
2, 51165, Note_on_c, 0, 76, 0
2, 51165, Note_on_c, 0, 72, 0
2, 51165, Note_on_c, 0, 67, 0
2, 51168, Note_on_c, 0, 76, 82
2, 51216, Note_on_c, 0, 76, 0
2, 51216, Note_on_c, 0, 72, 82
2, 51261, Note_on_c, 0, 72, 0
2, 51264, Note_on_c, 0, 69, 98
2, 51282, Note_on_c, 0, 74, 98
2, 51300, Note_on_c, 0, 77, 98
2, 51318, Note_on_c, 0, 81, 98
2, 51453, Note_on_c, 0, 81, 0
2, 51453, Note_on_c, 0, 77, 0
2, 51453, Note_on_c, 0, 74, 0
2, 51453, Note_on_c, 0, 69, 0
2, 51456, Note_on_c, 0, 77, 82
2, 51504, Note_on_c, 0, 77, 0
2, 51504, Note_on_c, 0, 74, 82
2, 51549, Note_on_c, 0, 74, 0
2, 51552, Note_on_c, 0, 72, 82
2, 51552, Note_on_c, 0, 67, 82
2, 51729, Note_on_c, 0, 72, 0
2, 51729, Note_on_c, 0, 67, 0
2, 51744, Note_on_c, 0, 76, 82
2, 51744, Note_on_c, 0, 71, 82
2, 51768, Note_on_c, 0, 76, 0
2, 51768, Note_on_c, 0, 74, 82
2, 51835, Note_on_c, 0, 74, 0
2, 51835, Note_on_c, 0, 71, 0
2, 51840, Note_on_c, 0, 72, 82
2, 51929, Note_on_c, 0, 72, 0
2, 51936, Note_on_c, 0, 84, 86
2, 51984, Note_on_c, 0, 84, 0
2, 51984, Note_on_c, 0, 83, 70
2, 52029, Note_on_c, 0, 83, 0
2, 52032, Note_on_c, 0, 84, 70
2, 52077, Note_on_c, 0, 84, 0
2, 52080, Note_on_c, 0, 83, 70
2, 52125, Note_on_c, 0, 83, 0
2, 52128, Note_on_c, 0, 84, 86
2, 52176, Note_on_c, 0, 84, 0
2, 52176, Note_on_c, 0, 83, 71
2, 52221, Note_on_c, 0, 83, 0
2, 52224, Note_on_c, 0, 84, 72
2, 52269, Note_on_c, 0, 84, 0
2, 52272, Note_on_c, 0, 83, 73
2, 52317, Note_on_c, 0, 83, 0
2, 52320, Note_on_c, 0, 84, 74
2, 52365, Note_on_c, 0, 84, 0
2, 52368, Note_on_c, 0, 83, 75
2, 52413, Note_on_c, 0, 83, 0
2, 52416, Note_on_c, 0, 84, 92
2, 52464, Note_on_c, 0, 84, 0
2, 52464, Note_on_c, 0, 83, 77
2, 52509, Note_on_c, 0, 83, 0
2, 52512, Note_on_c, 0, 84, 78
2, 52557, Note_on_c, 0, 84, 0
2, 52560, Note_on_c, 0, 83, 79
2, 52605, Note_on_c, 0, 83, 0
2, 52608, Note_on_c, 0, 84, 80
2, 52653, Note_on_c, 0, 84, 0
2, 52656, Note_on_c, 0, 83, 81
2, 52701, Note_on_c, 0, 83, 0
2, 52704, Note_on_c, 0, 84, 102
2, 52800, Note_on_c, 0, 84, 0
2, 52800, Note_on_c, 0, 84, 86
2, 52800, Note_on_c, 0, 79, 86
2, 52800, Note_on_c, 0, 76, 86
2, 52889, Note_on_c, 0, 84, 0
2, 52889, Note_on_c, 0, 79, 0
2, 52889, Note_on_c, 0, 76, 0
2, 52896, Note_on_c, 0, 84, 86
2, 52896, Note_on_c, 0, 79, 86
2, 52896, Note_on_c, 0, 76, 86
2, 52985, Note_on_c, 0, 84, 0
2, 52985, Note_on_c, 0, 79, 0
2, 52985, Note_on_c, 0, 76, 0
2, 52992, Note_on_c, 0, 84, 86
2, 52992, Note_on_c, 0, 79, 86
2, 52992, Note_on_c, 0, 76, 86
2, 53169, Note_on_c, 0, 84, 0
2, 53169, Note_on_c, 0, 79, 0
2, 53169, Note_on_c, 0, 76, 0
2, 53280, End_track
3, 0, Start_track
3, 0, Program_c, 0, 0
3, 0, Control_c, 0, 7, 127
3, 0, Control_c, 0, 10, 64
3, 14400, Note_on_c, 0, 67, 70
3, 14494, Note_on_c, 0, 67, 0
3, 14496, Note_on_c, 0, 67, 70
3, 14673, Note_on_c, 0, 67, 0
3, 15264, Note_on_c, 0, 79, 66
3, 15303, Note_on_c, 0, 79, 0
3, 15360, Note_on_c, 0, 79, 67
3, 15537, Note_on_c, 0, 79, 0
3, 15552, Note_on_c, 0, 79, 69
3, 15591, Note_on_c, 0, 79, 0
3, 15648, Note_on_c, 0, 79, 70
3, 15825, Note_on_c, 0, 79, 0
3, 15840, Note_on_c, 0, 80, 72
3, 15879, Note_on_c, 0, 80, 0
3, 15936, Note_on_c, 0, 80, 74
3, 16113, Note_on_c, 0, 80, 0
3, 16128, Note_on_c, 0, 80, 76
3, 16167, Note_on_c, 0, 80, 0
3, 16224, Note_on_c, 0, 80, 77
3, 16401, Note_on_c, 0, 80, 0
3, 24768, Note_on_c, 0, 66, 82
3, 25033, Note_on_c, 0, 66, 0
3, 27936, Note_on_c, 0, 77, 82
3, 27975, Note_on_c, 0, 77, 0
3, 28032, Note_on_c, 0, 77, 82
3, 28080, Note_on_c, 0, 77, 0
3, 28080, Note_on_c, 0, 76, 82
3, 28125, Note_on_c, 0, 76, 0
3, 28128, Note_on_c, 0, 77, 82
3, 28217, Note_on_c, 0, 77, 0
3, 33984, Note_on_c, 0, 67, 70
3, 34078, Note_on_c, 0, 67, 0
3, 34080, Note_on_c, 0, 67, 70
3, 34257, Note_on_c, 0, 67, 0
3, 34848, Note_on_c, 0, 79, 66
3, 34887, Note_on_c, 0, 79, 0
3, 34944, Note_on_c, 0, 79, 67
3, 35121, Note_on_c, 0, 79, 0
3, 35136, Note_on_c, 0, 79, 69
3, 35175, Note_on_c, 0, 79, 0
3, 35232, Note_on_c, 0, 79, 70
3, 35409, Note_on_c, 0, 79, 0
3, 35424, Note_on_c, 0, 80, 72
3, 35463, Note_on_c, 0, 80, 0
3, 35520, Note_on_c, 0, 80, 74
3, 35697, Note_on_c, 0, 80, 0
3, 35712, Note_on_c, 0, 80, 76
3, 35751, Note_on_c, 0, 80, 0
3, 35808, Note_on_c, 0, 80, 77
3, 35985, Note_on_c, 0, 80, 0
3, 44352, Note_on_c, 0, 66, 82
3, 44617, Note_on_c, 0, 66, 0
3, 47520, Note_on_c, 0, 77, 82
3, 47559, Note_on_c, 0, 77, 0
3, 47616, Note_on_c, 0, 77, 82
3, 47664, Note_on_c, 0, 77, 0
3, 47664, Note_on_c, 0, 76, 82
3, 47709, Note_on_c, 0, 76, 0
3, 47712, Note_on_c, 0, 77, 82
3, 47801, Note_on_c, 0, 77, 0
3, 53280, End_track
4, 0, Start_track
4, 0, Program_c, 1, 0
4, 0, Control_c, 1, 7, 127
4, 0, Control_c, 1, 10, 64
4, 288, Note_on_c, 1, 64, 70
4, 288, Note_on_c, 1, 60, 70
4, 377, Note_on_c, 1, 64, 0
4, 377, Note_on_c, 1, 60, 0
4, 384, Note_on_c, 1, 65, 70
4, 384, Note_on_c, 1, 62, 70
4, 473, Note_on_c, 1, 65, 0
4, 473, Note_on_c, 1, 62, 0
4, 480, Note_on_c, 1, 67, 70
4, 480, Note_on_c, 1, 64, 70
4, 569, Note_on_c, 1, 67, 0
4, 569, Note_on_c, 1, 64, 0
4, 576, Note_on_c, 1, 69, 70
4, 576, Note_on_c, 1, 65, 70
4, 841, Note_on_c, 1, 69, 0
4, 841, Note_on_c, 1, 65, 0
4, 864, Note_on_c, 1, 65, 70
4, 864, Note_on_c, 1, 62, 70
4, 864, Note_on_c, 1, 55, 70
4, 1129, Note_on_c, 1, 65, 0
4, 1129, Note_on_c, 1, 62, 0
4, 1129, Note_on_c, 1, 55, 0
4, 1152, Note_on_c, 1, 67, 70
4, 1152, Note_on_c, 1, 64, 70
4, 1191, Note_on_c, 1, 67, 0
4, 1191, Note_on_c, 1, 64, 0
4, 1248, Note_on_c, 1, 67, 73
4, 1248, Note_on_c, 1, 62, 73
4, 1287, Note_on_c, 1, 67, 0
4, 1287, Note_on_c, 1, 62, 0
4, 1344, Note_on_c, 1, 67, 76
4, 1344, Note_on_c, 1, 60, 76
4, 1383, Note_on_c, 1, 67, 0
4, 1383, Note_on_c, 1, 60, 0
4, 1440, Note_on_c, 1, 67, 95
4, 1440, Note_on_c, 1, 59, 95
4, 1479, Note_on_c, 1, 67, 0
4, 1479, Note_on_c, 1, 59, 0
4, 1728, Note_on_c, 1, 67, 70
4, 1728, Note_on_c, 1, 65, 70
4, 1767, Note_on_c, 1, 67, 0
4, 1767, Note_on_c, 1, 65, 0
4, 1824, Note_on_c, 1, 67, 73
4, 1824, Note_on_c, 1, 64, 73
4, 1863, Note_on_c, 1, 67, 0
4, 1863, Note_on_c, 1, 64, 0
4, 1920, Note_on_c, 1, 67, 76
4, 1920, Note_on_c, 1, 62, 76
4, 1959, Note_on_c, 1, 67, 0
4, 1959, Note_on_c, 1, 62, 0
4, 2016, Note_on_c, 1, 67, 95
4, 2016, Note_on_c, 1, 60, 95
4, 2055, Note_on_c, 1, 67, 0
4, 2055, Note_on_c, 1, 60, 0
4, 2304, Note_on_c, 1, 76, 70
4, 2304, Note_on_c, 1, 72, 70
4, 2393, Note_on_c, 1, 76, 0
4, 2393, Note_on_c, 1, 72, 0
4, 2400, Note_on_c, 1, 77, 70
4, 2400, Note_on_c, 1, 74, 70
4, 2489, Note_on_c, 1, 77, 0
4, 2489, Note_on_c, 1, 74, 0
4, 2496, Note_on_c, 1, 79, 70
4, 2496, Note_on_c, 1, 76, 70
4, 2585, Note_on_c, 1, 79, 0
4, 2585, Note_on_c, 1, 76, 0
4, 2592, Note_on_c, 1, 81, 70
4, 2592, Note_on_c, 1, 77, 70
4, 2857, Note_on_c, 1, 81, 0
4, 2857, Note_on_c, 1, 77, 0
4, 2880, Note_on_c, 1, 78, 76
4, 2880, Note_on_c, 1, 75, 76
4, 3145, Note_on_c, 1, 78, 0
4, 3145, Note_on_c, 1, 75, 0
4, 3456, Note_on_c, 1, 64, 70
4, 3456, Note_on_c, 1, 60, 70
4, 3545, Note_on_c, 1, 64, 0
4, 3545, Note_on_c, 1, 60, 0
4, 3552, Note_on_c, 1, 65, 70
4, 3552, Note_on_c, 1, 62, 70
4, 3641, Note_on_c, 1, 65, 0
4, 3641, Note_on_c, 1, 62, 0
4, 3648, Note_on_c, 1, 67, 70
4, 3648, Note_on_c, 1, 64, 70
4, 3737, Note_on_c, 1, 67, 0
4, 3737, Note_on_c, 1, 64, 0
4, 3744, Note_on_c, 1, 69, 70
4, 3744, Note_on_c, 1, 65, 70
4, 4009, Note_on_c, 1, 69, 0
4, 4009, Note_on_c, 1, 65, 0
4, 4032, Note_on_c, 1, 65, 70
4, 4032, Note_on_c, 1, 62, 70
4, 4032, Note_on_c, 1, 56, 70
4, 4121, Note_on_c, 1, 65, 0
4, 4121, Note_on_c, 1, 62, 0
4, 4121, Note_on_c, 1, 56, 0
4, 4128, Note_on_c, 1, 65, 71
4, 4128, Note_on_c, 1, 62, 71
4, 4128, Note_on_c, 1, 56, 71
4, 4217, Note_on_c, 1, 65, 0
4, 4217, Note_on_c, 1, 62, 0
4, 4217, Note_on_c, 1, 56, 0
4, 4224, Note_on_c, 1, 65, 73
4, 4224, Note_on_c, 1, 62, 73
4, 4224, Note_on_c, 1, 56, 73
4, 4313, Note_on_c, 1, 65, 0
4, 4313, Note_on_c, 1, 62, 0
4, 4313, Note_on_c, 1, 56, 0
4, 4320, Note_on_c, 1, 64, 75
4, 4320, Note_on_c, 1, 60, 75
4, 4320, Note_on_c, 1, 57, 75
4, 4409, Note_on_c, 1, 64, 0
4, 4409, Note_on_c, 1, 60, 0
4, 4409, Note_on_c, 1, 57, 0
4, 4416, Note_on_c, 1, 64, 76
4, 4416, Note_on_c, 1, 60, 76
4, 4416, Note_on_c, 1, 57, 76
4, 4505, Note_on_c, 1, 64, 0
4, 4505, Note_on_c, 1, 60, 0
4, 4505, Note_on_c, 1, 57, 0
4, 4512, Note_on_c, 1, 64, 78
4, 4512, Note_on_c, 1, 60, 78
4, 4512, Note_on_c, 1, 57, 78
4, 4601, Note_on_c, 1, 64, 0
4, 4601, Note_on_c, 1, 60, 0
4, 4601, Note_on_c, 1, 57, 0
4, 4608, Note_on_c, 1, 60, 80
4, 4608, Note_on_c, 1, 50, 80
4, 4697, Note_on_c, 1, 60, 0
4, 4697, Note_on_c, 1, 50, 0
4, 4704, Note_on_c, 1, 60, 82
4, 4704, Note_on_c, 1, 50, 82
4, 4793, Note_on_c, 1, 60, 0
4, 4793, Note_on_c, 1, 50, 0
4, 4800, Note_on_c, 1, 60, 82
4, 4800, Note_on_c, 1, 50, 82
4, 4896, Note_on_c, 1, 60, 0
4, 4896, Note_on_c, 1, 50, 0
4, 4896, Note_on_c, 1, 59, 82
4, 4896, Note_on_c, 1, 55, 82
4, 4935, Note_on_c, 1, 59, 0
4, 4935, Note_on_c, 1, 55, 0
4, 5088, Note_on_c, 1, 57, 82
4, 5088, Note_on_c, 1, 50, 82
4, 5184, Note_on_c, 1, 57, 0
4, 5184, Note_on_c, 1, 50, 0
4, 5184, Note_on_c, 1, 59, 82
4, 5184, Note_on_c, 1, 55, 82
4, 5223, Note_on_c, 1, 59, 0
4, 5223, Note_on_c, 1, 55, 0
4, 5376, Note_on_c, 1, 57, 82
4, 5376, Note_on_c, 1, 50, 82
4, 5472, Note_on_c, 1, 57, 0
4, 5472, Note_on_c, 1, 50, 0
4, 5472, Note_on_c, 1, 59, 82
4, 5472, Note_on_c, 1, 55, 82
4, 5511, Note_on_c, 1, 59, 0
4, 5511, Note_on_c, 1, 55, 0
4, 5664, Note_on_c, 1, 57, 82
4, 5664, Note_on_c, 1, 50, 82
4, 5760, Note_on_c, 1, 57, 0
4, 5760, Note_on_c, 1, 50, 0
4, 5760, Note_on_c, 1, 59, 82
4, 5760, Note_on_c, 1, 55, 82
4, 5799, Note_on_c, 1, 59, 0
4, 5799, Note_on_c, 1, 55, 0
4, 5856, Note_on_c, 1, 74, 70
4, 5856, Note_on_c, 1, 71, 70
4, 5945, Note_on_c, 1, 74, 0
4, 5945, Note_on_c, 1, 71, 0
4, 5952, Note_on_c, 1, 72, 71
4, 5952, Note_on_c, 1, 69, 71
4, 6041, Note_on_c, 1, 72, 0
4, 6041, Note_on_c, 1, 69, 0
4, 6048, Note_on_c, 1, 71, 72
4, 6048, Note_on_c, 1, 67, 72
4, 6087, Note_on_c, 1, 71, 0
4, 6087, Note_on_c, 1, 67, 0
4, 6144, Note_on_c, 1, 62, 74
4, 6144, Note_on_c, 1, 59, 74
4, 6233, Note_on_c, 1, 62, 0
4, 6233, Note_on_c, 1, 59, 0
4, 6240, Note_on_c, 1, 60, 75
4, 6240, Note_on_c, 1, 57, 75
4, 6329, Note_on_c, 1, 60, 0
4, 6329, Note_on_c, 1, 57, 0
4, 6336, Note_on_c, 1, 59, 76
4, 6336, Note_on_c, 1, 55, 76
4, 6375, Note_on_c, 1, 59, 0
4, 6375, Note_on_c, 1, 55, 0
4, 6432, Note_on_c, 1, 50, 78
4, 6432, Note_on_c, 1, 47, 78
4, 6521, Note_on_c, 1, 50, 0
4, 6521, Note_on_c, 1, 47, 0
4, 6528, Note_on_c, 1, 48, 79
4, 6528, Note_on_c, 1, 45, 79
4, 6617, Note_on_c, 1, 48, 0
4, 6617, Note_on_c, 1, 45, 0
4, 6624, Note_on_c, 1, 47, 80
4, 6624, Note_on_c, 1, 43, 80
4, 6663, Note_on_c, 1, 47, 0
4, 6663, Note_on_c, 1, 43, 0
4, 7200, Note_on_c, 1, 64, 70
4, 7200, Note_on_c, 1, 60, 70
4, 7289, Note_on_c, 1, 64, 0
4, 7289, Note_on_c, 1, 60, 0
4, 7296, Note_on_c, 1, 65, 70
4, 7296, Note_on_c, 1, 62, 70
4, 7385, Note_on_c, 1, 65, 0
4, 7385, Note_on_c, 1, 62, 0
4, 7392, Note_on_c, 1, 67, 70
4, 7392, Note_on_c, 1, 64, 70
4, 7481, Note_on_c, 1, 67, 0
4, 7481, Note_on_c, 1, 64, 0
4, 7488, Note_on_c, 1, 69, 70
4, 7488, Note_on_c, 1, 65, 70
4, 7753, Note_on_c, 1, 69, 0
4, 7753, Note_on_c, 1, 65, 0
4, 7776, Note_on_c, 1, 65, 70
4, 7776, Note_on_c, 1, 62, 70
4, 7776, Note_on_c, 1, 55, 70
4, 8041, Note_on_c, 1, 65, 0
4, 8041, Note_on_c, 1, 62, 0
4, 8041, Note_on_c, 1, 55, 0
4, 8064, Note_on_c, 1, 67, 70
4, 8064, Note_on_c, 1, 64, 70
4, 8103, Note_on_c, 1, 67, 0
4, 8103, Note_on_c, 1, 64, 0
4, 8160, Note_on_c, 1, 67, 73
4, 8160, Note_on_c, 1, 62, 73
4, 8199, Note_on_c, 1, 67, 0
4, 8199, Note_on_c, 1, 62, 0
4, 8256, Note_on_c, 1, 67, 76
4, 8256, Note_on_c, 1, 60, 76
4, 8295, Note_on_c, 1, 67, 0
4, 8295, Note_on_c, 1, 60, 0
4, 8352, Note_on_c, 1, 67, 95
4, 8352, Note_on_c, 1, 59, 95
4, 8391, Note_on_c, 1, 67, 0
4, 8391, Note_on_c, 1, 59, 0
4, 8640, Note_on_c, 1, 67, 70
4, 8640, Note_on_c, 1, 65, 70
4, 8679, Note_on_c, 1, 67, 0
4, 8679, Note_on_c, 1, 65, 0
4, 8736, Note_on_c, 1, 67, 73
4, 8736, Note_on_c, 1, 64, 73
4, 8775, Note_on_c, 1, 67, 0
4, 8775, Note_on_c, 1, 64, 0
4, 8832, Note_on_c, 1, 67, 76
4, 8832, Note_on_c, 1, 62, 76
4, 8871, Note_on_c, 1, 67, 0
4, 8871, Note_on_c, 1, 62, 0
4, 8928, Note_on_c, 1, 67, 95
4, 8928, Note_on_c, 1, 60, 95
4, 8967, Note_on_c, 1, 67, 0
4, 8967, Note_on_c, 1, 60, 0
4, 9216, Note_on_c, 1, 76, 70
4, 9216, Note_on_c, 1, 72, 70
4, 9305, Note_on_c, 1, 76, 0
4, 9305, Note_on_c, 1, 72, 0
4, 9312, Note_on_c, 1, 77, 70
4, 9312, Note_on_c, 1, 74, 70
4, 9401, Note_on_c, 1, 77, 0
4, 9401, Note_on_c, 1, 74, 0
4, 9408, Note_on_c, 1, 79, 70
4, 9408, Note_on_c, 1, 76, 70
4, 9497, Note_on_c, 1, 79, 0
4, 9497, Note_on_c, 1, 76, 0
4, 9504, Note_on_c, 1, 81, 70
4, 9504, Note_on_c, 1, 77, 70
4, 9769, Note_on_c, 1, 81, 0
4, 9769, Note_on_c, 1, 77, 0
4, 9792, Note_on_c, 1, 78, 76
4, 9792, Note_on_c, 1, 75, 76
4, 10057, Note_on_c, 1, 78, 0
4, 10057, Note_on_c, 1, 75, 0
4, 10368, Note_on_c, 1, 64, 70
4, 10368, Note_on_c, 1, 60, 70
4, 10457, Note_on_c, 1, 64, 0
4, 10457, Note_on_c, 1, 60, 0
4, 10464, Note_on_c, 1, 65, 70
4, 10464, Note_on_c, 1, 62, 70
4, 10553, Note_on_c, 1, 65, 0
4, 10553, Note_on_c, 1, 62, 0
4, 10560, Note_on_c, 1, 67, 70
4, 10560, Note_on_c, 1, 64, 70
4, 10649, Note_on_c, 1, 67, 0
4, 10649, Note_on_c, 1, 64, 0
4, 10656, Note_on_c, 1, 69, 70
4, 10656, Note_on_c, 1, 65, 70
4, 10921, Note_on_c, 1, 69, 0
4, 10921, Note_on_c, 1, 65, 0
4, 10944, Note_on_c, 1, 65, 70
4, 10944, Note_on_c, 1, 62, 70
4, 10944, Note_on_c, 1, 56, 70
4, 11033, Note_on_c, 1, 65, 0
4, 11033, Note_on_c, 1, 62, 0
4, 11033, Note_on_c, 1, 56, 0
4, 11040, Note_on_c, 1, 65, 71
4, 11040, Note_on_c, 1, 62, 71
4, 11040, Note_on_c, 1, 56, 71
4, 11129, Note_on_c, 1, 65, 0
4, 11129, Note_on_c, 1, 62, 0
4, 11129, Note_on_c, 1, 56, 0
4, 11136, Note_on_c, 1, 65, 73
4, 11136, Note_on_c, 1, 62, 73
4, 11136, Note_on_c, 1, 56, 73
4, 11225, Note_on_c, 1, 65, 0
4, 11225, Note_on_c, 1, 62, 0
4, 11225, Note_on_c, 1, 56, 0
4, 11232, Note_on_c, 1, 64, 75
4, 11232, Note_on_c, 1, 60, 75
4, 11232, Note_on_c, 1, 57, 75
4, 11321, Note_on_c, 1, 64, 0
4, 11321, Note_on_c, 1, 60, 0
4, 11321, Note_on_c, 1, 57, 0
4, 11328, Note_on_c, 1, 64, 76
4, 11328, Note_on_c, 1, 60, 76
4, 11328, Note_on_c, 1, 57, 76
4, 11417, Note_on_c, 1, 64, 0
4, 11417, Note_on_c, 1, 60, 0
4, 11417, Note_on_c, 1, 57, 0
4, 11424, Note_on_c, 1, 64, 78
4, 11424, Note_on_c, 1, 60, 78
4, 11424, Note_on_c, 1, 57, 78
4, 11513, Note_on_c, 1, 64, 0
4, 11513, Note_on_c, 1, 60, 0
4, 11513, Note_on_c, 1, 57, 0
4, 11520, Note_on_c, 1, 60, 80
4, 11520, Note_on_c, 1, 50, 80
4, 11609, Note_on_c, 1, 60, 0
4, 11609, Note_on_c, 1, 50, 0
4, 11616, Note_on_c, 1, 60, 82
4, 11616, Note_on_c, 1, 50, 82
4, 11705, Note_on_c, 1, 60, 0
4, 11705, Note_on_c, 1, 50, 0
4, 11712, Note_on_c, 1, 60, 82
4, 11712, Note_on_c, 1, 50, 82
4, 11808, Note_on_c, 1, 60, 0
4, 11808, Note_on_c, 1, 50, 0
4, 11808, Note_on_c, 1, 59, 82
4, 11808, Note_on_c, 1, 55, 82
4, 11847, Note_on_c, 1, 59, 0
4, 11847, Note_on_c, 1, 55, 0
4, 12000, Note_on_c, 1, 57, 82
4, 12000, Note_on_c, 1, 50, 82
4, 12096, Note_on_c, 1, 57, 0
4, 12096, Note_on_c, 1, 50, 0
4, 12096, Note_on_c, 1, 59, 82
4, 12096, Note_on_c, 1, 55, 82
4, 12135, Note_on_c, 1, 59, 0
4, 12135, Note_on_c, 1, 55, 0
4, 12288, Note_on_c, 1, 57, 82
4, 12288, Note_on_c, 1, 50, 82
4, 12384, Note_on_c, 1, 57, 0
4, 12384, Note_on_c, 1, 50, 0
4, 12384, Note_on_c, 1, 59, 82
4, 12384, Note_on_c, 1, 55, 82
4, 12423, Note_on_c, 1, 59, 0
4, 12423, Note_on_c, 1, 55, 0
4, 12576, Note_on_c, 1, 57, 82
4, 12576, Note_on_c, 1, 50, 82
4, 12672, Note_on_c, 1, 57, 0
4, 12672, Note_on_c, 1, 50, 0
4, 12672, Note_on_c, 1, 59, 82
4, 12672, Note_on_c, 1, 55, 82
4, 12711, Note_on_c, 1, 59, 0
4, 12711, Note_on_c, 1, 55, 0
4, 12768, Note_on_c, 1, 74, 70
4, 12768, Note_on_c, 1, 71, 70
4, 12857, Note_on_c, 1, 74, 0
4, 12857, Note_on_c, 1, 71, 0
4, 12864, Note_on_c, 1, 72, 71
4, 12864, Note_on_c, 1, 69, 71
4, 12953, Note_on_c, 1, 72, 0
4, 12953, Note_on_c, 1, 69, 0
4, 12960, Note_on_c, 1, 71, 72
4, 12960, Note_on_c, 1, 67, 72
4, 12999, Note_on_c, 1, 71, 0
4, 12999, Note_on_c, 1, 67, 0
4, 13056, Note_on_c, 1, 62, 74
4, 13056, Note_on_c, 1, 59, 74
4, 13145, Note_on_c, 1, 62, 0
4, 13145, Note_on_c, 1, 59, 0
4, 13152, Note_on_c, 1, 60, 75
4, 13152, Note_on_c, 1, 57, 75
4, 13241, Note_on_c, 1, 60, 0
4, 13241, Note_on_c, 1, 57, 0
4, 13248, Note_on_c, 1, 59, 76
4, 13248, Note_on_c, 1, 55, 76
4, 13287, Note_on_c, 1, 59, 0
4, 13287, Note_on_c, 1, 55, 0
4, 13344, Note_on_c, 1, 50, 78
4, 13344, Note_on_c, 1, 47, 78
4, 13433, Note_on_c, 1, 50, 0
4, 13433, Note_on_c, 1, 47, 0
4, 13440, Note_on_c, 1, 48, 79
4, 13440, Note_on_c, 1, 45, 79
4, 13529, Note_on_c, 1, 48, 0
4, 13529, Note_on_c, 1, 45, 0
4, 13536, Note_on_c, 1, 47, 80
4, 13536, Note_on_c, 1, 43, 80
4, 13575, Note_on_c, 1, 47, 0
4, 13575, Note_on_c, 1, 43, 0
4, 14016, Note_on_c, 1, 55, 70
4, 14105, Note_on_c, 1, 55, 0
4, 14112, Note_on_c, 1, 57, 70
4, 14201, Note_on_c, 1, 57, 0
4, 14208, Note_on_c, 1, 59, 70
4, 14297, Note_on_c, 1, 59, 0
4, 14304, Note_on_c, 1, 61, 70
4, 14393, Note_on_c, 1, 61, 0
4, 14400, Note_on_c, 1, 62, 70
4, 14439, Note_on_c, 1, 62, 0
4, 14496, Note_on_c, 1, 62, 70
4, 14544, Note_on_c, 1, 62, 0
4, 14544, Note_on_c, 1, 61, 70
4, 14589, Note_on_c, 1, 61, 0
4, 14592, Note_on_c, 1, 62, 70
4, 14681, Note_on_c, 1, 62, 0
4, 14688, Note_on_c, 1, 59, 70
4, 14777, Note_on_c, 1, 59, 0
4, 14880, Note_on_c, 1, 67, 66
4, 14969, Note_on_c, 1, 67, 0
4, 14976, Note_on_c, 1, 69, 66
4, 15065, Note_on_c, 1, 69, 0
4, 15072, Note_on_c, 1, 71, 66
4, 15161, Note_on_c, 1, 71, 0
4, 15168, Note_on_c, 1, 73, 66
4, 15257, Note_on_c, 1, 73, 0
4, 15264, Note_on_c, 1, 74, 66
4, 15303, Note_on_c, 1, 74, 0
4, 15360, Note_on_c, 1, 74, 67
4, 15408, Note_on_c, 1, 74, 0
4, 15408, Note_on_c, 1, 73, 67
4, 15453, Note_on_c, 1, 73, 0
4, 15456, Note_on_c, 1, 74, 68
4, 15545, Note_on_c, 1, 74, 0
4, 15552, Note_on_c, 1, 74, 69
4, 15591, Note_on_c, 1, 74, 0
4, 15648, Note_on_c, 1, 74, 70
4, 15696, Note_on_c, 1, 74, 0
4, 15696, Note_on_c, 1, 73, 71
4, 15741, Note_on_c, 1, 73, 0
4, 15744, Note_on_c, 1, 74, 72
4, 15833, Note_on_c, 1, 74, 0
4, 15840, Note_on_c, 1, 74, 73
4, 15879, Note_on_c, 1, 74, 0
4, 15936, Note_on_c, 1, 74, 74
4, 15984, Note_on_c, 1, 74, 0
4, 15984, Note_on_c, 1, 73, 75
4, 16029, Note_on_c, 1, 73, 0
4, 16032, Note_on_c, 1, 74, 75
4, 16121, Note_on_c, 1, 74, 0
4, 16128, Note_on_c, 1, 74, 77
4, 16167, Note_on_c, 1, 74, 0
4, 16224, Note_on_c, 1, 74, 78
4, 16272, Note_on_c, 1, 74, 0
4, 16272, Note_on_c, 1, 73, 78
4, 16317, Note_on_c, 1, 73, 0
4, 16320, Note_on_c, 1, 74, 79
4, 16409, Note_on_c, 1, 74, 0
4, 16416, Note_on_c, 1, 73, 80
4, 16455, Note_on_c, 1, 73, 0
4, 16512, Note_on_c, 1, 76, 82
4, 16512, Note_on_c, 1, 73, 82
4, 16601, Note_on_c, 1, 76, 0
4, 16601, Note_on_c, 1, 73, 0
4, 16608, Note_on_c, 1, 74, 82
4, 16608, Note_on_c, 1, 71, 82
4, 16697, Note_on_c, 1, 74, 0
4, 16697, Note_on_c, 1, 71, 0
4, 16704, Note_on_c, 1, 73, 82
4, 16704, Note_on_c, 1, 69, 82
4, 16743, Note_on_c, 1, 73, 0
4, 16743, Note_on_c, 1, 69, 0
4, 16800, Note_on_c, 1, 64, 82
4, 16800, Note_on_c, 1, 61, 82
4, 16889, Note_on_c, 1, 64, 0
4, 16889, Note_on_c, 1, 61, 0
4, 16896, Note_on_c, 1, 62, 80
4, 16896, Note_on_c, 1, 59, 80
4, 16985, Note_on_c, 1, 62, 0
4, 16985, Note_on_c, 1, 59, 0
4, 16992, Note_on_c, 1, 61, 79
4, 16992, Note_on_c, 1, 57, 79
4, 17031, Note_on_c, 1, 61, 0
4, 17031, Note_on_c, 1, 57, 0
4, 17088, Note_on_c, 1, 52, 78
4, 17088, Note_on_c, 1, 49, 78
4, 17177, Note_on_c, 1, 52, 0
4, 17177, Note_on_c, 1, 49, 0
4, 17184, Note_on_c, 1, 50, 76
4, 17184, Note_on_c, 1, 47, 76
4, 17273, Note_on_c, 1, 50, 0
4, 17273, Note_on_c, 1, 47, 0
4, 17280, Note_on_c, 1, 49, 75
4, 17280, Note_on_c, 1, 45, 75
4, 17319, Note_on_c, 1, 49, 0
4, 17319, Note_on_c, 1, 45, 0
4, 17856, Note_on_c, 1, 38, 82
4, 17868, Note_on_c, 1, 41, 82
4, 17880, Note_on_c, 1, 45, 82
4, 17892, Note_on_c, 1, 50, 82
4, 17945, Note_on_c, 1, 50, 0
4, 17945, Note_on_c, 1, 45, 0
4, 17945, Note_on_c, 1, 41, 0
4, 17945, Note_on_c, 1, 38, 0
4, 17952, Note_on_c, 1, 57, 82
4, 17952, Note_on_c, 1, 53, 82
4, 18041, Note_on_c, 1, 57, 0
4, 18041, Note_on_c, 1, 53, 0
4, 18048, Note_on_c, 1, 55, 82
4, 18048, Note_on_c, 1, 52, 82
4, 18137, Note_on_c, 1, 55, 0
4, 18137, Note_on_c, 1, 52, 0
4, 18144, Note_on_c, 1, 53, 82
4, 18144, Note_on_c, 1, 50, 82
4, 18183, Note_on_c, 1, 53, 0
4, 18183, Note_on_c, 1, 50, 0
4, 18240, Note_on_c, 1, 57, 82
4, 18240, Note_on_c, 1, 53, 82
4, 18329, Note_on_c, 1, 57, 0
4, 18329, Note_on_c, 1, 53, 0
4, 18336, Note_on_c, 1, 55, 82
4, 18336, Note_on_c, 1, 52, 82
4, 18425, Note_on_c, 1, 55, 0
4, 18425, Note_on_c, 1, 52, 0
4, 18432, Note_on_c, 1, 53, 82
4, 18432, Note_on_c, 1, 50, 82
4, 18471, Note_on_c, 1, 53, 0
4, 18471, Note_on_c, 1, 50, 0
4, 18528, Note_on_c, 1, 57, 82
4, 18528, Note_on_c, 1, 54, 82
4, 18617, Note_on_c, 1, 57, 0
4, 18617, Note_on_c, 1, 54, 0
4, 18624, Note_on_c, 1, 58, 82
4, 18624, Note_on_c, 1, 55, 82
4, 18713, Note_on_c, 1, 58, 0
4, 18713, Note_on_c, 1, 55, 0
4, 18720, Note_on_c, 1, 60, 81
4, 18720, Note_on_c, 1, 57, 81
4, 18759, Note_on_c, 1, 60, 0
4, 18759, Note_on_c, 1, 57, 0
4, 18816, Note_on_c, 1, 57, 80
4, 18816, Note_on_c, 1, 54, 80
4, 18905, Note_on_c, 1, 57, 0
4, 18905, Note_on_c, 1, 54, 0
4, 18912, Note_on_c, 1, 58, 79
4, 18912, Note_on_c, 1, 55, 79
4, 19001, Note_on_c, 1, 58, 0
4, 19001, Note_on_c, 1, 55, 0
4, 19008, Note_on_c, 1, 60, 78
4, 19008, Note_on_c, 1, 57, 78
4, 19865, Note_on_c, 1, 60, 0
4, 19865, Note_on_c, 1, 57, 0
4, 19872, Note_on_c, 1, 58, 70
4, 19872, Note_on_c, 1, 55, 70
4, 19911, Note_on_c, 1, 58, 0
4, 19911, Note_on_c, 1, 55, 0
4, 19968, Note_on_c, 1, 60, 70
4, 19968, Note_on_c, 1, 57, 70
4, 20007, Note_on_c, 1, 60, 0
4, 20007, Note_on_c, 1, 57, 0
4, 20064, Note_on_c, 1, 62, 70
4, 20064, Note_on_c, 1, 58, 70
4, 20103, Note_on_c, 1, 62, 0
4, 20103, Note_on_c, 1, 58, 0
4, 20160, Note_on_c, 1, 63, 70
4, 20160, Note_on_c, 1, 60, 70
4, 20425, Note_on_c, 1, 63, 0
4, 20425, Note_on_c, 1, 60, 0
4, 20448, Note_on_c, 1, 65, 70
4, 20448, Note_on_c, 1, 62, 70
4, 20537, Note_on_c, 1, 65, 0
4, 20537, Note_on_c, 1, 62, 0
4, 20736, Note_on_c, 1, 52, 70
4, 20736, Note_on_c, 1, 48, 70
4, 20775, Note_on_c, 1, 52, 0
4, 20775, Note_on_c, 1, 48, 0
4, 20832, Note_on_c, 1, 53, 70
4, 20832, Note_on_c, 1, 50, 70
4, 20871, Note_on_c, 1, 53, 0
4, 20871, Note_on_c, 1, 50, 0
4, 20928, Note_on_c, 1, 55, 71
4, 20928, Note_on_c, 1, 52, 71
4, 20967, Note_on_c, 1, 55, 0
4, 20967, Note_on_c, 1, 52, 0
4, 21024, Note_on_c, 1, 57, 72
4, 21024, Note_on_c, 1, 53, 72
4, 21113, Note_on_c, 1, 57, 0
4, 21113, Note_on_c, 1, 53, 0
4, 21312, Note_on_c, 1, 65, 75
4, 21312, Note_on_c, 1, 62, 75
4, 21312, Note_on_c, 1, 55, 75
4, 21401, Note_on_c, 1, 65, 0
4, 21401, Note_on_c, 1, 62, 0
4, 21401, Note_on_c, 1, 55, 0
4, 21600, Note_on_c, 1, 55, 77
4, 21600, Note_on_c, 1, 52, 77
4, 21645, Note_on_c, 1, 55, 0
4, 21645, Note_on_c, 1, 52, 0
4, 21648, Note_on_c, 1, 60, 78
4, 21693, Note_on_c, 1, 60, 0
4, 21696, Note_on_c, 1, 55, 78
4, 21696, Note_on_c, 1, 52, 78
4, 21741, Note_on_c, 1, 55, 0
4, 21741, Note_on_c, 1, 52, 0
4, 21744, Note_on_c, 1, 60, 78
4, 21789, Note_on_c, 1, 60, 0
4, 21792, Note_on_c, 1, 55, 78
4, 21792, Note_on_c, 1, 52, 78
4, 21837, Note_on_c, 1, 55, 0
4, 21837, Note_on_c, 1, 52, 0
4, 21840, Note_on_c, 1, 60, 78
4, 21885, Note_on_c, 1, 60, 0
4, 21888, Note_on_c, 1, 59, 78
4, 21888, Note_on_c, 1, 55, 78
4, 21888, Note_on_c, 1, 53, 78
4, 21933, Note_on_c, 1, 59, 0
4, 21933, Note_on_c, 1, 55, 0
4, 21933, Note_on_c, 1, 53, 0
4, 21936, Note_on_c, 1, 62, 78
4, 21981, Note_on_c, 1, 62, 0
4, 21984, Note_on_c, 1, 59, 78
4, 21984, Note_on_c, 1, 55, 78
4, 21984, Note_on_c, 1, 53, 78
4, 22029, Note_on_c, 1, 59, 0
4, 22029, Note_on_c, 1, 55, 0
4, 22029, Note_on_c, 1, 53, 0
4, 22032, Note_on_c, 1, 62, 78
4, 22077, Note_on_c, 1, 62, 0
4, 22080, Note_on_c, 1, 59, 78
4, 22080, Note_on_c, 1, 55, 78
4, 22080, Note_on_c, 1, 53, 78
4, 22125, Note_on_c, 1, 59, 0
4, 22125, Note_on_c, 1, 55, 0
4, 22125, Note_on_c, 1, 53, 0
4, 22128, Note_on_c, 1, 62, 78
4, 22173, Note_on_c, 1, 62, 0
4, 22176, Note_on_c, 1, 55, 78
4, 22176, Note_on_c, 1, 52, 78
4, 22221, Note_on_c, 1, 55, 0
4, 22221, Note_on_c, 1, 52, 0
4, 22224, Note_on_c, 1, 60, 78
4, 22269, Note_on_c, 1, 60, 0
4, 22272, Note_on_c, 1, 55, 78
4, 22272, Note_on_c, 1, 52, 78
4, 22317, Note_on_c, 1, 55, 0
4, 22317, Note_on_c, 1, 52, 0
4, 22320, Note_on_c, 1, 60, 78
4, 22365, Note_on_c, 1, 60, 0
4, 22368, Note_on_c, 1, 55, 78
4, 22368, Note_on_c, 1, 52, 78
4, 22413, Note_on_c, 1, 55, 0
4, 22413, Note_on_c, 1, 52, 0
4, 22416, Note_on_c, 1, 60, 78
4, 22461, Note_on_c, 1, 60, 0
4, 22464, Note_on_c, 1, 59, 78
4, 22464, Note_on_c, 1, 55, 78
4, 22464, Note_on_c, 1, 53, 78
4, 22509, Note_on_c, 1, 59, 0
4, 22509, Note_on_c, 1, 55, 0
4, 22509, Note_on_c, 1, 53, 0
4, 22512, Note_on_c, 1, 62, 78
4, 22557, Note_on_c, 1, 62, 0
4, 22560, Note_on_c, 1, 59, 78
4, 22560, Note_on_c, 1, 55, 78
4, 22560, Note_on_c, 1, 53, 78
4, 22605, Note_on_c, 1, 59, 0
4, 22605, Note_on_c, 1, 55, 0
4, 22605, Note_on_c, 1, 53, 0
4, 22608, Note_on_c, 1, 62, 78
4, 22653, Note_on_c, 1, 62, 0
4, 22656, Note_on_c, 1, 59, 78
4, 22656, Note_on_c, 1, 55, 78
4, 22656, Note_on_c, 1, 53, 78
4, 22701, Note_on_c, 1, 59, 0
4, 22701, Note_on_c, 1, 55, 0
4, 22701, Note_on_c, 1, 53, 0
4, 22704, Note_on_c, 1, 62, 78
4, 22749, Note_on_c, 1, 62, 0
4, 22752, Note_on_c, 1, 55, 78
4, 22752, Note_on_c, 1, 52, 78
4, 22797, Note_on_c, 1, 55, 0
4, 22797, Note_on_c, 1, 52, 0
4, 22800, Note_on_c, 1, 60, 78
4, 22845, Note_on_c, 1, 60, 0
4, 22848, Note_on_c, 1, 55, 78
4, 22848, Note_on_c, 1, 52, 78
4, 22893, Note_on_c, 1, 55, 0
4, 22893, Note_on_c, 1, 52, 0
4, 22896, Note_on_c, 1, 60, 78
4, 22941, Note_on_c, 1, 60, 0
4, 22944, Note_on_c, 1, 55, 78
4, 22944, Note_on_c, 1, 52, 78
4, 22989, Note_on_c, 1, 55, 0
4, 22989, Note_on_c, 1, 52, 0
4, 22992, Note_on_c, 1, 60, 78
4, 23037, Note_on_c, 1, 60, 0
4, 23040, Note_on_c, 1, 57, 78
4, 23040, Note_on_c, 1, 53, 78
4, 23085, Note_on_c, 1, 57, 0
4, 23085, Note_on_c, 1, 53, 0
4, 23088, Note_on_c, 1, 62, 78
4, 23133, Note_on_c, 1, 62, 0
4, 23136, Note_on_c, 1, 57, 78
4, 23136, Note_on_c, 1, 53, 78
4, 23181, Note_on_c, 1, 57, 0
4, 23181, Note_on_c, 1, 53, 0
4, 23184, Note_on_c, 1, 62, 78
4, 23229, Note_on_c, 1, 62, 0
4, 23232, Note_on_c, 1, 57, 78
4, 23232, Note_on_c, 1, 53, 78
4, 23277, Note_on_c, 1, 57, 0
4, 23277, Note_on_c, 1, 53, 0
4, 23280, Note_on_c, 1, 62, 78
4, 23325, Note_on_c, 1, 62, 0
4, 23328, Note_on_c, 1, 64, 78
4, 23505, Note_on_c, 1, 64, 0
4, 23520, Note_on_c, 1, 65, 78
4, 23609, Note_on_c, 1, 65, 0
4, 23616, Note_on_c, 1, 64, 78
4, 23705, Note_on_c, 1, 64, 0
4, 24192, Note_on_c, 1, 63, 78
4, 24192, Note_on_c, 1, 60, 78
4, 24231, Note_on_c, 1, 63, 0
4, 24231, Note_on_c, 1, 60, 0
4, 24288, Note_on_c, 1, 63, 78
4, 24288, Note_on_c, 1, 60, 78
4, 24336, Note_on_c, 1, 63, 0
4, 24336, Note_on_c, 1, 62, 78
4, 24381, Note_on_c, 1, 62, 0
4, 24381, Note_on_c, 1, 60, 0
4, 24384, Note_on_c, 1, 63, 78
4, 24384, Note_on_c, 1, 60, 78
4, 24473, Note_on_c, 1, 63, 0
4, 24473, Note_on_c, 1, 60, 0
4, 24480, Note_on_c, 1, 62, 78
4, 24480, Note_on_c, 1, 59, 78
4, 24519, Note_on_c, 1, 62, 0
4, 24519, Note_on_c, 1, 59, 0
4, 24576, Note_on_c, 1, 62, 78
4, 24576, Note_on_c, 1, 59, 78
4, 24624, Note_on_c, 1, 62, 0
4, 24624, Note_on_c, 1, 59, 0
4, 24624, Note_on_c, 1, 61, 78
4, 24624, Note_on_c, 1, 57, 78
4, 24669, Note_on_c, 1, 61, 0
4, 24669, Note_on_c, 1, 57, 0
4, 24672, Note_on_c, 1, 62, 78
4, 24672, Note_on_c, 1, 59, 78
4, 24761, Note_on_c, 1, 62, 0
4, 24761, Note_on_c, 1, 59, 0
4, 24768, Note_on_c, 1, 62, 78
4, 24768, Note_on_c, 1, 57, 78
4, 24857, Note_on_c, 1, 62, 0
4, 24857, Note_on_c, 1, 57, 0
4, 24864, Note_on_c, 1, 62, 78
4, 24864, Note_on_c, 1, 57, 78
4, 24953, Note_on_c, 1, 62, 0
4, 24953, Note_on_c, 1, 57, 0
4, 24960, Note_on_c, 1, 62, 78
4, 24960, Note_on_c, 1, 57, 78
4, 25049, Note_on_c, 1, 62, 0
4, 25049, Note_on_c, 1, 57, 0
4, 25056, Note_on_c, 1, 62, 78
4, 25056, Note_on_c, 1, 55, 78
4, 25145, Note_on_c, 1, 62, 0
4, 25145, Note_on_c, 1, 55, 0
4, 25344, Note_on_c, 1, 63, 70
4, 25344, Note_on_c, 1, 60, 70
4, 25383, Note_on_c, 1, 63, 0
4, 25383, Note_on_c, 1, 60, 0
4, 25440, Note_on_c, 1, 65, 70
4, 25440, Note_on_c, 1, 62, 70
4, 25479, Note_on_c, 1, 65, 0
4, 25479, Note_on_c, 1, 62, 0
4, 25536, Note_on_c, 1, 67, 70
4, 25536, Note_on_c, 1, 63, 70
4, 25575, Note_on_c, 1, 67, 0
4, 25575, Note_on_c, 1, 63, 0
4, 25632, Note_on_c, 1, 68, 70
4, 25632, Note_on_c, 1, 65, 70
4, 25897, Note_on_c, 1, 68, 0
4, 25897, Note_on_c, 1, 65, 0
4, 26208, Note_on_c, 1, 64, 82
4, 26208, Note_on_c, 1, 60, 82
4, 26247, Note_on_c, 1, 64, 0
4, 26247, Note_on_c, 1, 60, 0
4, 26304, Note_on_c, 1, 65, 82
4, 26304, Note_on_c, 1, 62, 82
4, 26343, Note_on_c, 1, 65, 0
4, 26343, Note_on_c, 1, 62, 0
4, 26400, Note_on_c, 1, 67, 82
4, 26400, Note_on_c, 1, 64, 82
4, 26439, Note_on_c, 1, 67, 0
4, 26439, Note_on_c, 1, 64, 0
4, 26496, Note_on_c, 1, 69, 82
4, 26496, Note_on_c, 1, 65, 82
4, 26761, Note_on_c, 1, 69, 0
4, 26761, Note_on_c, 1, 65, 0
4, 26784, Note_on_c, 1, 66, 82
4, 26784, Note_on_c, 1, 63, 82
4, 27049, Note_on_c, 1, 66, 0
4, 27049, Note_on_c, 1, 63, 0
4, 27360, Note_on_c, 1, 60, 82
4, 27360, Note_on_c, 1, 52, 82
4, 27360, Note_on_c, 1, 48, 82
4, 27399, Note_on_c, 1, 60, 0
4, 27399, Note_on_c, 1, 52, 0
4, 27399, Note_on_c, 1, 48, 0
4, 27456, Note_on_c, 1, 62, 82
4, 27456, Note_on_c, 1, 53, 82
4, 27456, Note_on_c, 1, 50, 82
4, 27495, Note_on_c, 1, 62, 0
4, 27495, Note_on_c, 1, 53, 0
4, 27495, Note_on_c, 1, 50, 0
4, 27552, Note_on_c, 1, 64, 82
4, 27552, Note_on_c, 1, 55, 82
4, 27552, Note_on_c, 1, 52, 82
4, 27591, Note_on_c, 1, 64, 0
4, 27591, Note_on_c, 1, 55, 0
4, 27591, Note_on_c, 1, 52, 0
4, 27648, Note_on_c, 1, 65, 82
4, 27648, Note_on_c, 1, 57, 82
4, 27648, Note_on_c, 1, 53, 82
4, 27742, Note_on_c, 1, 65, 0
4, 27742, Note_on_c, 1, 57, 0
4, 27742, Note_on_c, 1, 53, 0
4, 27744, Note_on_c, 1, 65, 82
4, 27792, Note_on_c, 1, 65, 0
4, 27792, Note_on_c, 1, 64, 82
4, 27837, Note_on_c, 1, 64, 0
4, 27840, Note_on_c, 1, 65, 82
4, 27929, Note_on_c, 1, 65, 0
4, 27936, Note_on_c, 1, 74, 82
4, 27975, Note_on_c, 1, 74, 0
4, 28032, Note_on_c, 1, 74, 82
4, 28080, Note_on_c, 1, 74, 0
4, 28080, Note_on_c, 1, 73, 82
4, 28125, Note_on_c, 1, 73, 0
4, 28128, Note_on_c, 1, 74, 82
4, 28217, Note_on_c, 1, 74, 0
4, 28224, Note_on_c, 1, 67, 82
4, 28269, Note_on_c, 1, 67, 0
4, 28272, Note_on_c, 1, 72, 82
4, 28317, Note_on_c, 1, 72, 0
4, 28320, Note_on_c, 1, 67, 82
4, 28365, Note_on_c, 1, 67, 0
4, 28368, Note_on_c, 1, 72, 82
4, 28413, Note_on_c, 1, 72, 0
4, 28416, Note_on_c, 1, 67, 82
4, 28461, Note_on_c, 1, 67, 0
4, 28464, Note_on_c, 1, 72, 82
4, 28509, Note_on_c, 1, 72, 0
4, 28512, Note_on_c, 1, 71, 82
4, 28557, Note_on_c, 1, 71, 0
4, 28560, Note_on_c, 1, 74, 82
4, 28605, Note_on_c, 1, 74, 0
4, 28608, Note_on_c, 1, 71, 82
4, 28653, Note_on_c, 1, 71, 0
4, 28656, Note_on_c, 1, 74, 82
4, 28701, Note_on_c, 1, 74, 0
4, 28704, Note_on_c, 1, 71, 82
4, 28749, Note_on_c, 1, 71, 0
4, 28752, Note_on_c, 1, 74, 82
4, 28797, Note_on_c, 1, 74, 0
4, 28800, Note_on_c, 1, 67, 82
4, 28845, Note_on_c, 1, 67, 0
4, 28848, Note_on_c, 1, 72, 82
4, 28893, Note_on_c, 1, 72, 0
4, 28896, Note_on_c, 1, 67, 82
4, 28941, Note_on_c, 1, 67, 0
4, 28944, Note_on_c, 1, 72, 82
4, 28989, Note_on_c, 1, 72, 0
4, 28992, Note_on_c, 1, 67, 82
4, 29037, Note_on_c, 1, 67, 0
4, 29040, Note_on_c, 1, 72, 82
4, 29085, Note_on_c, 1, 72, 0
4, 29088, Note_on_c, 1, 71, 82
4, 29133, Note_on_c, 1, 71, 0
4, 29136, Note_on_c, 1, 74, 82
4, 29181, Note_on_c, 1, 74, 0
4, 29184, Note_on_c, 1, 71, 82
4, 29229, Note_on_c, 1, 71, 0
4, 29232, Note_on_c, 1, 74, 82
4, 29277, Note_on_c, 1, 74, 0
4, 29280, Note_on_c, 1, 71, 82
4, 29325, Note_on_c, 1, 71, 0
4, 29328, Note_on_c, 1, 74, 82
4, 29373, Note_on_c, 1, 74, 0
4, 29376, Note_on_c, 1, 67, 82
4, 29421, Note_on_c, 1, 67, 0
4, 29424, Note_on_c, 1, 72, 82
4, 29469, Note_on_c, 1, 72, 0
4, 29472, Note_on_c, 1, 67, 82
4, 29517, Note_on_c, 1, 67, 0
4, 29520, Note_on_c, 1, 72, 82
4, 29565, Note_on_c, 1, 72, 0
4, 29568, Note_on_c, 1, 67, 82
4, 29613, Note_on_c, 1, 67, 0
4, 29616, Note_on_c, 1, 72, 82
4, 29661, Note_on_c, 1, 72, 0
4, 29664, Note_on_c, 1, 69, 82
4, 29709, Note_on_c, 1, 69, 0
4, 29712, Note_on_c, 1, 74, 82
4, 29757, Note_on_c, 1, 74, 0
4, 29760, Note_on_c, 1, 69, 82
4, 29805, Note_on_c, 1, 69, 0
4, 29808, Note_on_c, 1, 74, 82
4, 29853, Note_on_c, 1, 74, 0
4, 29856, Note_on_c, 1, 69, 82
4, 29901, Note_on_c, 1, 69, 0
4, 29904, Note_on_c, 1, 74, 82
4, 29949, Note_on_c, 1, 74, 0
4, 29952, Note_on_c, 1, 76, 82
4, 30129, Note_on_c, 1, 76, 0
4, 30144, Note_on_c, 1, 77, 82
4, 30233, Note_on_c, 1, 77, 0
4, 30240, Note_on_c, 1, 52, 82
4, 30285, Note_on_c, 1, 52, 0
4, 30288, Note_on_c, 1, 55, 82
4, 30333, Note_on_c, 1, 55, 0
4, 30336, Note_on_c, 1, 52, 82
4, 30381, Note_on_c, 1, 52, 0
4, 30384, Note_on_c, 1, 55, 82
4, 30429, Note_on_c, 1, 55, 0
4, 30432, Note_on_c, 1, 52, 82
4, 30477, Note_on_c, 1, 52, 0
4, 30480, Note_on_c, 1, 55, 82
4, 30525, Note_on_c, 1, 55, 0
4, 30528, Note_on_c, 1, 53, 82
4, 30573, Note_on_c, 1, 53, 0
4, 30576, Note_on_c, 1, 55, 82
4, 30621, Note_on_c, 1, 55, 0
4, 30624, Note_on_c, 1, 53, 82
4, 30669, Note_on_c, 1, 53, 0
4, 30672, Note_on_c, 1, 55, 82
4, 30717, Note_on_c, 1, 55, 0
4, 30720, Note_on_c, 1, 53, 82
4, 30765, Note_on_c, 1, 53, 0
4, 30768, Note_on_c, 1, 55, 82
4, 30813, Note_on_c, 1, 55, 0
4, 30816, Note_on_c, 1, 52, 82
4, 30861, Note_on_c, 1, 52, 0
4, 30864, Note_on_c, 1, 55, 82
4, 30909, Note_on_c, 1, 55, 0
4, 30912, Note_on_c, 1, 52, 82
4, 30957, Note_on_c, 1, 52, 0
4, 30960, Note_on_c, 1, 55, 82
4, 31005, Note_on_c, 1, 55, 0
4, 31008, Note_on_c, 1, 52, 82
4, 31053, Note_on_c, 1, 52, 0
4, 31056, Note_on_c, 1, 55, 82
4, 31101, Note_on_c, 1, 55, 0
4, 31104, Note_on_c, 1, 53, 82
4, 31149, Note_on_c, 1, 53, 0
4, 31152, Note_on_c, 1, 55, 82
4, 31197, Note_on_c, 1, 55, 0
4, 31200, Note_on_c, 1, 53, 82
4, 31245, Note_on_c, 1, 53, 0
4, 31248, Note_on_c, 1, 55, 82
4, 31293, Note_on_c, 1, 55, 0
4, 31296, Note_on_c, 1, 53, 82
4, 31341, Note_on_c, 1, 53, 0
4, 31344, Note_on_c, 1, 55, 82
4, 31389, Note_on_c, 1, 55, 0
4, 31392, Note_on_c, 1, 52, 82
4, 31437, Note_on_c, 1, 52, 0
4, 31440, Note_on_c, 1, 55, 82
4, 31485, Note_on_c, 1, 55, 0
4, 31488, Note_on_c, 1, 52, 82
4, 31533, Note_on_c, 1, 52, 0
4, 31536, Note_on_c, 1, 55, 82
4, 31581, Note_on_c, 1, 55, 0
4, 31584, Note_on_c, 1, 52, 82
4, 31629, Note_on_c, 1, 52, 0
4, 31632, Note_on_c, 1, 55, 82
4, 31677, Note_on_c, 1, 55, 0
4, 31680, Note_on_c, 1, 57, 82
4, 31725, Note_on_c, 1, 57, 0
4, 31728, Note_on_c, 1, 62, 82
4, 31773, Note_on_c, 1, 62, 0
4, 31776, Note_on_c, 1, 57, 82
4, 31821, Note_on_c, 1, 57, 0
4, 31824, Note_on_c, 1, 62, 82
4, 31869, Note_on_c, 1, 62, 0
4, 31872, Note_on_c, 1, 57, 82
4, 31917, Note_on_c, 1, 57, 0
4, 31920, Note_on_c, 1, 62, 82
4, 31965, Note_on_c, 1, 62, 0
4, 31968, Note_on_c, 1, 64, 82
4, 32160, Note_on_c, 1, 64, 0
4, 32160, Note_on_c, 1, 65, 82
4, 32249, Note_on_c, 1, 65, 0
4, 32256, Note_on_c, 1, 64, 82
4, 32256, Note_on_c, 1, 60, 82
4, 32345, Note_on_c, 1, 64, 0
4, 32345, Note_on_c, 1, 60, 0
4, 32352, Note_on_c, 1, 67, 70
4, 32352, Note_on_c, 1, 64, 70
4, 32441, Note_on_c, 1, 67, 0
4, 32441, Note_on_c, 1, 64, 0
4, 32448, Note_on_c, 1, 65, 70
4, 32448, Note_on_c, 1, 62, 70
4, 32537, Note_on_c, 1, 65, 0
4, 32537, Note_on_c, 1, 62, 0
4, 32544, Note_on_c, 1, 64, 70
4, 32544, Note_on_c, 1, 60, 70
4, 32583, Note_on_c, 1, 64, 0
4, 32583, Note_on_c, 1, 60, 0
4, 32640, Note_on_c, 1, 55, 72
4, 32640, Note_on_c, 1, 52, 72
4, 32729, Note_on_c, 1, 55, 0
4, 32729, Note_on_c, 1, 52, 0
4, 32736, Note_on_c, 1, 53, 74
4, 32736, Note_on_c, 1, 50, 74
4, 32825, Note_on_c, 1, 53, 0
4, 32825, Note_on_c, 1, 50, 0
4, 32832, Note_on_c, 1, 52, 76
4, 32832, Note_on_c, 1, 48, 76
4, 32871, Note_on_c, 1, 52, 0
4, 32871, Note_on_c, 1, 48, 0
4, 32928, Note_on_c, 1, 43, 78
4, 32928, Note_on_c, 1, 40, 78
4, 33017, Note_on_c, 1, 43, 0
4, 33017, Note_on_c, 1, 40, 0
4, 33024, Note_on_c, 1, 41, 80
4, 33024, Note_on_c, 1, 38, 80
4, 33113, Note_on_c, 1, 41, 0
4, 33113, Note_on_c, 1, 38, 0
4, 33120, Note_on_c, 1, 40, 86
4, 33120, Note_on_c, 1, 36, 86
4, 33159, Note_on_c, 1, 40, 0
4, 33159, Note_on_c, 1, 36, 0
4, 33216, Note_on_c, 1, 36, 86
4, 33305, Note_on_c, 1, 36, 0
4, 33312, Note_on_c, 1, 36, 86
4, 33401, Note_on_c, 1, 36, 0
4, 33408, Note_on_c, 1, 36, 86
4, 33497, Note_on_c, 1, 36, 0
4, 33600, Note_on_c, 1, 55, 70
4, 33689, Note_on_c, 1, 55, 0
4, 33696, Note_on_c, 1, 57, 70
4, 33785, Note_on_c, 1, 57, 0
4, 33792, Note_on_c, 1, 59, 70
4, 33881, Note_on_c, 1, 59, 0
4, 33888, Note_on_c, 1, 61, 70
4, 33977, Note_on_c, 1, 61, 0
4, 33984, Note_on_c, 1, 62, 70
4, 34023, Note_on_c, 1, 62, 0
4, 34080, Note_on_c, 1, 62, 70
4, 34128, Note_on_c, 1, 62, 0
4, 34128, Note_on_c, 1, 61, 70
4, 34173, Note_on_c, 1, 61, 0
4, 34176, Note_on_c, 1, 62, 70
4, 34265, Note_on_c, 1, 62, 0
4, 34272, Note_on_c, 1, 59, 70
4, 34361, Note_on_c, 1, 59, 0
4, 34464, Note_on_c, 1, 67, 66
4, 34553, Note_on_c, 1, 67, 0
4, 34560, Note_on_c, 1, 69, 66
4, 34649, Note_on_c, 1, 69, 0
4, 34656, Note_on_c, 1, 71, 66
4, 34745, Note_on_c, 1, 71, 0
4, 34752, Note_on_c, 1, 73, 66
4, 34841, Note_on_c, 1, 73, 0
4, 34848, Note_on_c, 1, 74, 66
4, 34887, Note_on_c, 1, 74, 0
4, 34944, Note_on_c, 1, 74, 67
4, 34992, Note_on_c, 1, 74, 0
4, 34992, Note_on_c, 1, 73, 67
4, 35037, Note_on_c, 1, 73, 0
4, 35040, Note_on_c, 1, 74, 68
4, 35129, Note_on_c, 1, 74, 0
4, 35136, Note_on_c, 1, 74, 69
4, 35175, Note_on_c, 1, 74, 0
4, 35232, Note_on_c, 1, 74, 70
4, 35280, Note_on_c, 1, 74, 0
4, 35280, Note_on_c, 1, 73, 71
4, 35325, Note_on_c, 1, 73, 0
4, 35328, Note_on_c, 1, 74, 72
4, 35417, Note_on_c, 1, 74, 0
4, 35424, Note_on_c, 1, 74, 73
4, 35463, Note_on_c, 1, 74, 0
4, 35520, Note_on_c, 1, 74, 74
4, 35568, Note_on_c, 1, 74, 0
4, 35568, Note_on_c, 1, 73, 75
4, 35613, Note_on_c, 1, 73, 0
4, 35616, Note_on_c, 1, 74, 75
4, 35705, Note_on_c, 1, 74, 0
4, 35712, Note_on_c, 1, 74, 77
4, 35751, Note_on_c, 1, 74, 0
4, 35808, Note_on_c, 1, 74, 78
4, 35856, Note_on_c, 1, 74, 0
4, 35856, Note_on_c, 1, 73, 78
4, 35901, Note_on_c, 1, 73, 0
4, 35904, Note_on_c, 1, 74, 79
4, 35993, Note_on_c, 1, 74, 0
4, 36000, Note_on_c, 1, 73, 80
4, 36039, Note_on_c, 1, 73, 0
4, 36096, Note_on_c, 1, 76, 82
4, 36096, Note_on_c, 1, 73, 82
4, 36185, Note_on_c, 1, 76, 0
4, 36185, Note_on_c, 1, 73, 0
4, 36192, Note_on_c, 1, 74, 82
4, 36192, Note_on_c, 1, 71, 82
4, 36281, Note_on_c, 1, 74, 0
4, 36281, Note_on_c, 1, 71, 0
4, 36288, Note_on_c, 1, 73, 82
4, 36288, Note_on_c, 1, 69, 82
4, 36327, Note_on_c, 1, 73, 0
4, 36327, Note_on_c, 1, 69, 0
4, 36384, Note_on_c, 1, 64, 82
4, 36384, Note_on_c, 1, 61, 82
4, 36473, Note_on_c, 1, 64, 0
4, 36473, Note_on_c, 1, 61, 0
4, 36480, Note_on_c, 1, 62, 80
4, 36480, Note_on_c, 1, 59, 80
4, 36569, Note_on_c, 1, 62, 0
4, 36569, Note_on_c, 1, 59, 0
4, 36576, Note_on_c, 1, 61, 79
4, 36576, Note_on_c, 1, 57, 79
4, 36615, Note_on_c, 1, 61, 0
4, 36615, Note_on_c, 1, 57, 0
4, 36672, Note_on_c, 1, 52, 78
4, 36672, Note_on_c, 1, 49, 78
4, 36761, Note_on_c, 1, 52, 0
4, 36761, Note_on_c, 1, 49, 0
4, 36768, Note_on_c, 1, 50, 76
4, 36768, Note_on_c, 1, 47, 76
4, 36857, Note_on_c, 1, 50, 0
4, 36857, Note_on_c, 1, 47, 0
4, 36864, Note_on_c, 1, 49, 75
4, 36864, Note_on_c, 1, 45, 75
4, 36903, Note_on_c, 1, 49, 0
4, 36903, Note_on_c, 1, 45, 0
4, 37440, Note_on_c, 1, 38, 82
4, 37452, Note_on_c, 1, 41, 82
4, 37464, Note_on_c, 1, 45, 82
4, 37476, Note_on_c, 1, 50, 82
4, 37529, Note_on_c, 1, 50, 0
4, 37529, Note_on_c, 1, 45, 0
4, 37529, Note_on_c, 1, 41, 0
4, 37529, Note_on_c, 1, 38, 0
4, 37536, Note_on_c, 1, 57, 82
4, 37536, Note_on_c, 1, 53, 82
4, 37625, Note_on_c, 1, 57, 0
4, 37625, Note_on_c, 1, 53, 0
4, 37632, Note_on_c, 1, 55, 82
4, 37632, Note_on_c, 1, 52, 82
4, 37721, Note_on_c, 1, 55, 0
4, 37721, Note_on_c, 1, 52, 0
4, 37728, Note_on_c, 1, 53, 82
4, 37728, Note_on_c, 1, 50, 82
4, 37767, Note_on_c, 1, 53, 0
4, 37767, Note_on_c, 1, 50, 0
4, 37824, Note_on_c, 1, 57, 82
4, 37824, Note_on_c, 1, 53, 82
4, 37913, Note_on_c, 1, 57, 0
4, 37913, Note_on_c, 1, 53, 0
4, 37920, Note_on_c, 1, 55, 82
4, 37920, Note_on_c, 1, 52, 82
4, 38009, Note_on_c, 1, 55, 0
4, 38009, Note_on_c, 1, 52, 0
4, 38016, Note_on_c, 1, 53, 82
4, 38016, Note_on_c, 1, 50, 82
4, 38055, Note_on_c, 1, 53, 0
4, 38055, Note_on_c, 1, 50, 0
4, 38112, Note_on_c, 1, 57, 82
4, 38112, Note_on_c, 1, 54, 82
4, 38201, Note_on_c, 1, 57, 0
4, 38201, Note_on_c, 1, 54, 0
4, 38208, Note_on_c, 1, 58, 82
4, 38208, Note_on_c, 1, 55, 82
4, 38297, Note_on_c, 1, 58, 0
4, 38297, Note_on_c, 1, 55, 0
4, 38304, Note_on_c, 1, 60, 81
4, 38304, Note_on_c, 1, 57, 81
4, 38343, Note_on_c, 1, 60, 0
4, 38343, Note_on_c, 1, 57, 0
4, 38400, Note_on_c, 1, 57, 80
4, 38400, Note_on_c, 1, 54, 80
4, 38489, Note_on_c, 1, 57, 0
4, 38489, Note_on_c, 1, 54, 0
4, 38496, Note_on_c, 1, 58, 79
4, 38496, Note_on_c, 1, 55, 79
4, 38585, Note_on_c, 1, 58, 0
4, 38585, Note_on_c, 1, 55, 0
4, 38592, Note_on_c, 1, 60, 78
4, 38592, Note_on_c, 1, 57, 78
4, 39449, Note_on_c, 1, 60, 0
4, 39449, Note_on_c, 1, 57, 0
4, 39456, Note_on_c, 1, 58, 70
4, 39456, Note_on_c, 1, 55, 70
4, 39495, Note_on_c, 1, 58, 0
4, 39495, Note_on_c, 1, 55, 0
4, 39552, Note_on_c, 1, 60, 70
4, 39552, Note_on_c, 1, 57, 70
4, 39591, Note_on_c, 1, 60, 0
4, 39591, Note_on_c, 1, 57, 0
4, 39648, Note_on_c, 1, 62, 70
4, 39648, Note_on_c, 1, 58, 70
4, 39687, Note_on_c, 1, 62, 0
4, 39687, Note_on_c, 1, 58, 0
4, 39744, Note_on_c, 1, 63, 70
4, 39744, Note_on_c, 1, 60, 70
4, 40009, Note_on_c, 1, 63, 0
4, 40009, Note_on_c, 1, 60, 0
4, 40032, Note_on_c, 1, 65, 70
4, 40032, Note_on_c, 1, 62, 70
4, 40121, Note_on_c, 1, 65, 0
4, 40121, Note_on_c, 1, 62, 0
4, 40320, Note_on_c, 1, 52, 70
4, 40320, Note_on_c, 1, 48, 70
4, 40359, Note_on_c, 1, 52, 0
4, 40359, Note_on_c, 1, 48, 0
4, 40416, Note_on_c, 1, 53, 70
4, 40416, Note_on_c, 1, 50, 70
4, 40455, Note_on_c, 1, 53, 0
4, 40455, Note_on_c, 1, 50, 0
4, 40512, Note_on_c, 1, 55, 71
4, 40512, Note_on_c, 1, 52, 71
4, 40551, Note_on_c, 1, 55, 0
4, 40551, Note_on_c, 1, 52, 0
4, 40608, Note_on_c, 1, 57, 72
4, 40608, Note_on_c, 1, 53, 72
4, 40697, Note_on_c, 1, 57, 0
4, 40697, Note_on_c, 1, 53, 0
4, 40896, Note_on_c, 1, 65, 75
4, 40896, Note_on_c, 1, 62, 75
4, 40896, Note_on_c, 1, 55, 75
4, 40985, Note_on_c, 1, 65, 0
4, 40985, Note_on_c, 1, 62, 0
4, 40985, Note_on_c, 1, 55, 0
4, 41184, Note_on_c, 1, 55, 77
4, 41184, Note_on_c, 1, 52, 77
4, 41229, Note_on_c, 1, 55, 0
4, 41229, Note_on_c, 1, 52, 0
4, 41232, Note_on_c, 1, 60, 78
4, 41277, Note_on_c, 1, 60, 0
4, 41280, Note_on_c, 1, 55, 78
4, 41280, Note_on_c, 1, 52, 78
4, 41325, Note_on_c, 1, 55, 0
4, 41325, Note_on_c, 1, 52, 0
4, 41328, Note_on_c, 1, 60, 78
4, 41373, Note_on_c, 1, 60, 0
4, 41376, Note_on_c, 1, 55, 78
4, 41376, Note_on_c, 1, 52, 78
4, 41421, Note_on_c, 1, 55, 0
4, 41421, Note_on_c, 1, 52, 0
4, 41424, Note_on_c, 1, 60, 78
4, 41469, Note_on_c, 1, 60, 0
4, 41472, Note_on_c, 1, 59, 78
4, 41472, Note_on_c, 1, 55, 78
4, 41472, Note_on_c, 1, 53, 78
4, 41517, Note_on_c, 1, 59, 0
4, 41517, Note_on_c, 1, 55, 0
4, 41517, Note_on_c, 1, 53, 0
4, 41520, Note_on_c, 1, 62, 78
4, 41565, Note_on_c, 1, 62, 0
4, 41568, Note_on_c, 1, 59, 78
4, 41568, Note_on_c, 1, 55, 78
4, 41568, Note_on_c, 1, 53, 78
4, 41613, Note_on_c, 1, 59, 0
4, 41613, Note_on_c, 1, 55, 0
4, 41613, Note_on_c, 1, 53, 0
4, 41616, Note_on_c, 1, 62, 78
4, 41661, Note_on_c, 1, 62, 0
4, 41664, Note_on_c, 1, 59, 78
4, 41664, Note_on_c, 1, 55, 78
4, 41664, Note_on_c, 1, 53, 78
4, 41709, Note_on_c, 1, 59, 0
4, 41709, Note_on_c, 1, 55, 0
4, 41709, Note_on_c, 1, 53, 0
4, 41712, Note_on_c, 1, 62, 78
4, 41757, Note_on_c, 1, 62, 0
4, 41760, Note_on_c, 1, 55, 78
4, 41760, Note_on_c, 1, 52, 78
4, 41805, Note_on_c, 1, 55, 0
4, 41805, Note_on_c, 1, 52, 0
4, 41808, Note_on_c, 1, 60, 78
4, 41853, Note_on_c, 1, 60, 0
4, 41856, Note_on_c, 1, 55, 78
4, 41856, Note_on_c, 1, 52, 78
4, 41901, Note_on_c, 1, 55, 0
4, 41901, Note_on_c, 1, 52, 0
4, 41904, Note_on_c, 1, 60, 78
4, 41949, Note_on_c, 1, 60, 0
4, 41952, Note_on_c, 1, 55, 78
4, 41952, Note_on_c, 1, 52, 78
4, 41997, Note_on_c, 1, 55, 0
4, 41997, Note_on_c, 1, 52, 0
4, 42000, Note_on_c, 1, 60, 78
4, 42045, Note_on_c, 1, 60, 0
4, 42048, Note_on_c, 1, 59, 78
4, 42048, Note_on_c, 1, 55, 78
4, 42048, Note_on_c, 1, 53, 78
4, 42093, Note_on_c, 1, 59, 0
4, 42093, Note_on_c, 1, 55, 0
4, 42093, Note_on_c, 1, 53, 0
4, 42096, Note_on_c, 1, 62, 78
4, 42141, Note_on_c, 1, 62, 0
4, 42144, Note_on_c, 1, 59, 78
4, 42144, Note_on_c, 1, 55, 78
4, 42144, Note_on_c, 1, 53, 78
4, 42189, Note_on_c, 1, 59, 0
4, 42189, Note_on_c, 1, 55, 0
4, 42189, Note_on_c, 1, 53, 0
4, 42192, Note_on_c, 1, 62, 78
4, 42237, Note_on_c, 1, 62, 0
4, 42240, Note_on_c, 1, 59, 78
4, 42240, Note_on_c, 1, 55, 78
4, 42240, Note_on_c, 1, 53, 78
4, 42285, Note_on_c, 1, 59, 0
4, 42285, Note_on_c, 1, 55, 0
4, 42285, Note_on_c, 1, 53, 0
4, 42288, Note_on_c, 1, 62, 78
4, 42333, Note_on_c, 1, 62, 0
4, 42336, Note_on_c, 1, 55, 78
4, 42336, Note_on_c, 1, 52, 78
4, 42381, Note_on_c, 1, 55, 0
4, 42381, Note_on_c, 1, 52, 0
4, 42384, Note_on_c, 1, 60, 78
4, 42429, Note_on_c, 1, 60, 0
4, 42432, Note_on_c, 1, 55, 78
4, 42432, Note_on_c, 1, 52, 78
4, 42477, Note_on_c, 1, 55, 0
4, 42477, Note_on_c, 1, 52, 0
4, 42480, Note_on_c, 1, 60, 78
4, 42525, Note_on_c, 1, 60, 0
4, 42528, Note_on_c, 1, 55, 78
4, 42528, Note_on_c, 1, 52, 78
4, 42573, Note_on_c, 1, 55, 0
4, 42573, Note_on_c, 1, 52, 0
4, 42576, Note_on_c, 1, 60, 78
4, 42621, Note_on_c, 1, 60, 0
4, 42624, Note_on_c, 1, 57, 78
4, 42624, Note_on_c, 1, 53, 78
4, 42669, Note_on_c, 1, 57, 0
4, 42669, Note_on_c, 1, 53, 0
4, 42672, Note_on_c, 1, 62, 78
4, 42717, Note_on_c, 1, 62, 0
4, 42720, Note_on_c, 1, 57, 78
4, 42720, Note_on_c, 1, 53, 78
4, 42765, Note_on_c, 1, 57, 0
4, 42765, Note_on_c, 1, 53, 0
4, 42768, Note_on_c, 1, 62, 78
4, 42813, Note_on_c, 1, 62, 0
4, 42816, Note_on_c, 1, 57, 78
4, 42816, Note_on_c, 1, 53, 78
4, 42861, Note_on_c, 1, 57, 0
4, 42861, Note_on_c, 1, 53, 0
4, 42864, Note_on_c, 1, 62, 78
4, 42909, Note_on_c, 1, 62, 0
4, 42912, Note_on_c, 1, 64, 78
4, 43089, Note_on_c, 1, 64, 0
4, 43104, Note_on_c, 1, 65, 78
4, 43193, Note_on_c, 1, 65, 0
4, 43200, Note_on_c, 1, 64, 78
4, 43289, Note_on_c, 1, 64, 0
4, 43776, Note_on_c, 1, 63, 78
4, 43776, Note_on_c, 1, 60, 78
4, 43815, Note_on_c, 1, 63, 0
4, 43815, Note_on_c, 1, 60, 0
4, 43872, Note_on_c, 1, 63, 78
4, 43872, Note_on_c, 1, 60, 78
4, 43920, Note_on_c, 1, 63, 0
4, 43920, Note_on_c, 1, 62, 78
4, 43965, Note_on_c, 1, 62, 0
4, 43965, Note_on_c, 1, 60, 0
4, 43968, Note_on_c, 1, 63, 78
4, 43968, Note_on_c, 1, 60, 78
4, 44057, Note_on_c, 1, 63, 0
4, 44057, Note_on_c, 1, 60, 0
4, 44064, Note_on_c, 1, 62, 78
4, 44064, Note_on_c, 1, 59, 78
4, 44103, Note_on_c, 1, 62, 0
4, 44103, Note_on_c, 1, 59, 0
4, 44160, Note_on_c, 1, 62, 78
4, 44160, Note_on_c, 1, 59, 78
4, 44208, Note_on_c, 1, 62, 0
4, 44208, Note_on_c, 1, 59, 0
4, 44208, Note_on_c, 1, 61, 78
4, 44208, Note_on_c, 1, 57, 78
4, 44253, Note_on_c, 1, 61, 0
4, 44253, Note_on_c, 1, 57, 0
4, 44256, Note_on_c, 1, 62, 78
4, 44256, Note_on_c, 1, 59, 78
4, 44345, Note_on_c, 1, 62, 0
4, 44345, Note_on_c, 1, 59, 0
4, 44352, Note_on_c, 1, 62, 78
4, 44352, Note_on_c, 1, 57, 78
4, 44441, Note_on_c, 1, 62, 0
4, 44441, Note_on_c, 1, 57, 0
4, 44448, Note_on_c, 1, 62, 78
4, 44448, Note_on_c, 1, 57, 78
4, 44537, Note_on_c, 1, 62, 0
4, 44537, Note_on_c, 1, 57, 0
4, 44544, Note_on_c, 1, 62, 78
4, 44544, Note_on_c, 1, 57, 78
4, 44633, Note_on_c, 1, 62, 0
4, 44633, Note_on_c, 1, 57, 0
4, 44640, Note_on_c, 1, 62, 78
4, 44640, Note_on_c, 1, 55, 78
4, 44729, Note_on_c, 1, 62, 0
4, 44729, Note_on_c, 1, 55, 0
4, 44928, Note_on_c, 1, 63, 70
4, 44928, Note_on_c, 1, 60, 70
4, 44967, Note_on_c, 1, 63, 0
4, 44967, Note_on_c, 1, 60, 0
4, 45024, Note_on_c, 1, 65, 70
4, 45024, Note_on_c, 1, 62, 70
4, 45063, Note_on_c, 1, 65, 0
4, 45063, Note_on_c, 1, 62, 0
4, 45120, Note_on_c, 1, 67, 70
4, 45120, Note_on_c, 1, 63, 70
4, 45159, Note_on_c, 1, 67, 0
4, 45159, Note_on_c, 1, 63, 0
4, 45216, Note_on_c, 1, 68, 70
4, 45216, Note_on_c, 1, 65, 70
4, 45481, Note_on_c, 1, 68, 0
4, 45481, Note_on_c, 1, 65, 0
4, 45792, Note_on_c, 1, 64, 82
4, 45792, Note_on_c, 1, 60, 82
4, 45831, Note_on_c, 1, 64, 0
4, 45831, Note_on_c, 1, 60, 0
4, 45888, Note_on_c, 1, 65, 82
4, 45888, Note_on_c, 1, 62, 82
4, 45927, Note_on_c, 1, 65, 0
4, 45927, Note_on_c, 1, 62, 0
4, 45984, Note_on_c, 1, 67, 82
4, 45984, Note_on_c, 1, 64, 82
4, 46023, Note_on_c, 1, 67, 0
4, 46023, Note_on_c, 1, 64, 0
4, 46080, Note_on_c, 1, 69, 82
4, 46080, Note_on_c, 1, 65, 82
4, 46345, Note_on_c, 1, 69, 0
4, 46345, Note_on_c, 1, 65, 0
4, 46368, Note_on_c, 1, 66, 82
4, 46368, Note_on_c, 1, 63, 82
4, 46633, Note_on_c, 1, 66, 0
4, 46633, Note_on_c, 1, 63, 0
4, 46944, Note_on_c, 1, 60, 82
4, 46944, Note_on_c, 1, 52, 82
4, 46944, Note_on_c, 1, 48, 82
4, 46983, Note_on_c, 1, 60, 0
4, 46983, Note_on_c, 1, 52, 0
4, 46983, Note_on_c, 1, 48, 0
4, 47040, Note_on_c, 1, 62, 82
4, 47040, Note_on_c, 1, 53, 82
4, 47040, Note_on_c, 1, 50, 82
4, 47079, Note_on_c, 1, 62, 0
4, 47079, Note_on_c, 1, 53, 0
4, 47079, Note_on_c, 1, 50, 0
4, 47136, Note_on_c, 1, 64, 82
4, 47136, Note_on_c, 1, 55, 82
4, 47136, Note_on_c, 1, 52, 82
4, 47175, Note_on_c, 1, 64, 0
4, 47175, Note_on_c, 1, 55, 0
4, 47175, Note_on_c, 1, 52, 0
4, 47232, Note_on_c, 1, 65, 82
4, 47232, Note_on_c, 1, 57, 82
4, 47232, Note_on_c, 1, 53, 82
4, 47326, Note_on_c, 1, 65, 0
4, 47326, Note_on_c, 1, 57, 0
4, 47326, Note_on_c, 1, 53, 0
4, 47328, Note_on_c, 1, 65, 82
4, 47376, Note_on_c, 1, 65, 0
4, 47376, Note_on_c, 1, 64, 82
4, 47421, Note_on_c, 1, 64, 0
4, 47424, Note_on_c, 1, 65, 82
4, 47513, Note_on_c, 1, 65, 0
4, 47520, Note_on_c, 1, 74, 82
4, 47559, Note_on_c, 1, 74, 0
4, 47616, Note_on_c, 1, 74, 82
4, 47664, Note_on_c, 1, 74, 0
4, 47664, Note_on_c, 1, 73, 82
4, 47709, Note_on_c, 1, 73, 0
4, 47712, Note_on_c, 1, 74, 82
4, 47801, Note_on_c, 1, 74, 0
4, 47808, Note_on_c, 1, 67, 82
4, 47853, Note_on_c, 1, 67, 0
4, 47856, Note_on_c, 1, 72, 82
4, 47901, Note_on_c, 1, 72, 0
4, 47904, Note_on_c, 1, 67, 82
4, 47949, Note_on_c, 1, 67, 0
4, 47952, Note_on_c, 1, 72, 82
4, 47997, Note_on_c, 1, 72, 0
4, 48000, Note_on_c, 1, 67, 82
4, 48045, Note_on_c, 1, 67, 0
4, 48048, Note_on_c, 1, 72, 82
4, 48093, Note_on_c, 1, 72, 0
4, 48096, Note_on_c, 1, 71, 82
4, 48141, Note_on_c, 1, 71, 0
4, 48144, Note_on_c, 1, 74, 82
4, 48189, Note_on_c, 1, 74, 0
4, 48192, Note_on_c, 1, 71, 82
4, 48237, Note_on_c, 1, 71, 0
4, 48240, Note_on_c, 1, 74, 82
4, 48285, Note_on_c, 1, 74, 0
4, 48288, Note_on_c, 1, 71, 82
4, 48333, Note_on_c, 1, 71, 0
4, 48336, Note_on_c, 1, 74, 82
4, 48381, Note_on_c, 1, 74, 0
4, 48384, Note_on_c, 1, 67, 82
4, 48429, Note_on_c, 1, 67, 0
4, 48432, Note_on_c, 1, 72, 82
4, 48477, Note_on_c, 1, 72, 0
4, 48480, Note_on_c, 1, 67, 82
4, 48525, Note_on_c, 1, 67, 0
4, 48528, Note_on_c, 1, 72, 82
4, 48573, Note_on_c, 1, 72, 0
4, 48576, Note_on_c, 1, 67, 82
4, 48621, Note_on_c, 1, 67, 0
4, 48624, Note_on_c, 1, 72, 82
4, 48669, Note_on_c, 1, 72, 0
4, 48672, Note_on_c, 1, 71, 82
4, 48717, Note_on_c, 1, 71, 0
4, 48720, Note_on_c, 1, 74, 82
4, 48765, Note_on_c, 1, 74, 0
4, 48768, Note_on_c, 1, 71, 82
4, 48813, Note_on_c, 1, 71, 0
4, 48816, Note_on_c, 1, 74, 82
4, 48861, Note_on_c, 1, 74, 0
4, 48864, Note_on_c, 1, 71, 82
4, 48909, Note_on_c, 1, 71, 0
4, 48912, Note_on_c, 1, 74, 82
4, 48957, Note_on_c, 1, 74, 0
4, 48960, Note_on_c, 1, 67, 82
4, 49005, Note_on_c, 1, 67, 0
4, 49008, Note_on_c, 1, 72, 82
4, 49053, Note_on_c, 1, 72, 0
4, 49056, Note_on_c, 1, 67, 82
4, 49101, Note_on_c, 1, 67, 0
4, 49104, Note_on_c, 1, 72, 82
4, 49149, Note_on_c, 1, 72, 0
4, 49152, Note_on_c, 1, 67, 82
4, 49197, Note_on_c, 1, 67, 0
4, 49200, Note_on_c, 1, 72, 82
4, 49245, Note_on_c, 1, 72, 0
4, 49248, Note_on_c, 1, 69, 82
4, 49293, Note_on_c, 1, 69, 0
4, 49296, Note_on_c, 1, 74, 82
4, 49341, Note_on_c, 1, 74, 0
4, 49344, Note_on_c, 1, 69, 82
4, 49389, Note_on_c, 1, 69, 0
4, 49392, Note_on_c, 1, 74, 82
4, 49437, Note_on_c, 1, 74, 0
4, 49440, Note_on_c, 1, 69, 82
4, 49485, Note_on_c, 1, 69, 0
4, 49488, Note_on_c, 1, 74, 82
4, 49533, Note_on_c, 1, 74, 0
4, 49536, Note_on_c, 1, 76, 82
4, 49713, Note_on_c, 1, 76, 0
4, 49728, Note_on_c, 1, 77, 82
4, 49817, Note_on_c, 1, 77, 0
4, 49824, Note_on_c, 1, 52, 82
4, 49869, Note_on_c, 1, 52, 0
4, 49872, Note_on_c, 1, 55, 82
4, 49917, Note_on_c, 1, 55, 0
4, 49920, Note_on_c, 1, 52, 82
4, 49965, Note_on_c, 1, 52, 0
4, 49968, Note_on_c, 1, 55, 82
4, 50013, Note_on_c, 1, 55, 0
4, 50016, Note_on_c, 1, 52, 82
4, 50061, Note_on_c, 1, 52, 0
4, 50064, Note_on_c, 1, 55, 82
4, 50109, Note_on_c, 1, 55, 0
4, 50112, Note_on_c, 1, 53, 82
4, 50157, Note_on_c, 1, 53, 0
4, 50160, Note_on_c, 1, 55, 82
4, 50205, Note_on_c, 1, 55, 0
4, 50208, Note_on_c, 1, 53, 82
4, 50253, Note_on_c, 1, 53, 0
4, 50256, Note_on_c, 1, 55, 82
4, 50301, Note_on_c, 1, 55, 0
4, 50304, Note_on_c, 1, 53, 82
4, 50349, Note_on_c, 1, 53, 0
4, 50352, Note_on_c, 1, 55, 82
4, 50397, Note_on_c, 1, 55, 0
4, 50400, Note_on_c, 1, 52, 82
4, 50445, Note_on_c, 1, 52, 0
4, 50448, Note_on_c, 1, 55, 82
4, 50493, Note_on_c, 1, 55, 0
4, 50496, Note_on_c, 1, 52, 82
4, 50541, Note_on_c, 1, 52, 0
4, 50544, Note_on_c, 1, 55, 82
4, 50589, Note_on_c, 1, 55, 0
4, 50592, Note_on_c, 1, 52, 82
4, 50637, Note_on_c, 1, 52, 0
4, 50640, Note_on_c, 1, 55, 82
4, 50685, Note_on_c, 1, 55, 0
4, 50688, Note_on_c, 1, 53, 82
4, 50733, Note_on_c, 1, 53, 0
4, 50736, Note_on_c, 1, 55, 82
4, 50781, Note_on_c, 1, 55, 0
4, 50784, Note_on_c, 1, 53, 82
4, 50829, Note_on_c, 1, 53, 0
4, 50832, Note_on_c, 1, 55, 82
4, 50877, Note_on_c, 1, 55, 0
4, 50880, Note_on_c, 1, 53, 82
4, 50925, Note_on_c, 1, 53, 0
4, 50928, Note_on_c, 1, 55, 82
4, 50973, Note_on_c, 1, 55, 0
4, 50976, Note_on_c, 1, 52, 82
4, 51021, Note_on_c, 1, 52, 0
4, 51024, Note_on_c, 1, 55, 82
4, 51069, Note_on_c, 1, 55, 0
4, 51072, Note_on_c, 1, 52, 82
4, 51117, Note_on_c, 1, 52, 0
4, 51120, Note_on_c, 1, 55, 82
4, 51165, Note_on_c, 1, 55, 0
4, 51168, Note_on_c, 1, 52, 82
4, 51213, Note_on_c, 1, 52, 0
4, 51216, Note_on_c, 1, 55, 82
4, 51261, Note_on_c, 1, 55, 0
4, 51264, Note_on_c, 1, 57, 82
4, 51309, Note_on_c, 1, 57, 0
4, 51312, Note_on_c, 1, 62, 82
4, 51357, Note_on_c, 1, 62, 0
4, 51360, Note_on_c, 1, 57, 82
4, 51405, Note_on_c, 1, 57, 0
4, 51408, Note_on_c, 1, 62, 82
4, 51453, Note_on_c, 1, 62, 0
4, 51456, Note_on_c, 1, 57, 82
4, 51501, Note_on_c, 1, 57, 0
4, 51504, Note_on_c, 1, 62, 82
4, 51549, Note_on_c, 1, 62, 0
4, 51552, Note_on_c, 1, 64, 82
4, 51744, Note_on_c, 1, 64, 0
4, 51744, Note_on_c, 1, 65, 82
4, 51833, Note_on_c, 1, 65, 0
4, 51840, Note_on_c, 1, 64, 82
4, 51840, Note_on_c, 1, 60, 82
4, 51929, Note_on_c, 1, 64, 0
4, 51929, Note_on_c, 1, 60, 0
4, 51936, Note_on_c, 1, 67, 70
4, 51936, Note_on_c, 1, 64, 70
4, 52025, Note_on_c, 1, 67, 0
4, 52025, Note_on_c, 1, 64, 0
4, 52032, Note_on_c, 1, 65, 70
4, 52032, Note_on_c, 1, 62, 70
4, 52121, Note_on_c, 1, 65, 0
4, 52121, Note_on_c, 1, 62, 0
4, 52128, Note_on_c, 1, 64, 70
4, 52128, Note_on_c, 1, 60, 70
4, 52167, Note_on_c, 1, 64, 0
4, 52167, Note_on_c, 1, 60, 0
4, 52224, Note_on_c, 1, 55, 72
4, 52224, Note_on_c, 1, 52, 72
4, 52313, Note_on_c, 1, 55, 0
4, 52313, Note_on_c, 1, 52, 0
4, 52320, Note_on_c, 1, 53, 74
4, 52320, Note_on_c, 1, 50, 74
4, 52409, Note_on_c, 1, 53, 0
4, 52409, Note_on_c, 1, 50, 0
4, 52416, Note_on_c, 1, 52, 76
4, 52416, Note_on_c, 1, 48, 76
4, 52455, Note_on_c, 1, 52, 0
4, 52455, Note_on_c, 1, 48, 0
4, 52512, Note_on_c, 1, 43, 78
4, 52512, Note_on_c, 1, 40, 78
4, 52601, Note_on_c, 1, 43, 0
4, 52601, Note_on_c, 1, 40, 0
4, 52608, Note_on_c, 1, 41, 80
4, 52608, Note_on_c, 1, 38, 80
4, 52697, Note_on_c, 1, 41, 0
4, 52697, Note_on_c, 1, 38, 0
4, 52704, Note_on_c, 1, 40, 86
4, 52704, Note_on_c, 1, 36, 86
4, 52743, Note_on_c, 1, 40, 0
4, 52743, Note_on_c, 1, 36, 0
4, 52800, Note_on_c, 1, 36, 86
4, 52889, Note_on_c, 1, 36, 0
4, 52896, Note_on_c, 1, 36, 86
4, 52985, Note_on_c, 1, 36, 0
4, 52992, Note_on_c, 1, 48, 86
4, 52992, Note_on_c, 1, 36, 86
4, 53169, Note_on_c, 1, 48, 0
4, 53169, Note_on_c, 1, 36, 0
4, 53280, Note_on_c, 1, 36, 0
4, 53369, Note_on_c, 1, 36, 0
4, 53376, End_track
5, 0, Start_track
5, 0, Program_c, 1, 0
5, 0, Control_c, 1, 7, 127
5, 0, Control_c, 1, 10, 64
5, 23328, Note_on_c, 1, 55, 64
5, 23705, Note_on_c, 1, 55, 0
5, 27936, Note_on_c, 1, 67, 82
5, 27975, Note_on_c, 1, 67, 0
5, 28032, Note_on_c, 1, 67, 82
5, 28209, Note_on_c, 1, 67, 0
5, 28224, Note_on_c, 1, 64, 82
5, 28313, Note_on_c, 1, 64, 0
5, 28320, Note_on_c, 1, 64, 82
5, 28409, Note_on_c, 1, 64, 0
5, 28416, Note_on_c, 1, 64, 82
5, 28505, Note_on_c, 1, 64, 0
5, 28512, Note_on_c, 1, 67, 82
5, 28512, Note_on_c, 1, 65, 82
5, 28601, Note_on_c, 1, 67, 0
5, 28601, Note_on_c, 1, 65, 0
5, 28608, Note_on_c, 1, 67, 82
5, 28608, Note_on_c, 1, 65, 82
5, 28697, Note_on_c, 1, 67, 0
5, 28697, Note_on_c, 1, 65, 0
5, 28704, Note_on_c, 1, 67, 82
5, 28704, Note_on_c, 1, 65, 82
5, 28793, Note_on_c, 1, 67, 0
5, 28793, Note_on_c, 1, 65, 0
5, 28800, Note_on_c, 1, 64, 82
5, 28889, Note_on_c, 1, 64, 0
5, 28896, Note_on_c, 1, 64, 82
5, 28985, Note_on_c, 1, 64, 0
5, 28992, Note_on_c, 1, 64, 82
5, 29081, Note_on_c, 1, 64, 0
5, 29088, Note_on_c, 1, 67, 82
5, 29088, Note_on_c, 1, 65, 82
5, 29177, Note_on_c, 1, 67, 0
5, 29177, Note_on_c, 1, 65, 0
5, 29184, Note_on_c, 1, 67, 82
5, 29184, Note_on_c, 1, 65, 82
5, 29273, Note_on_c, 1, 67, 0
5, 29273, Note_on_c, 1, 65, 0
5, 29280, Note_on_c, 1, 67, 82
5, 29280, Note_on_c, 1, 65, 82
5, 29369, Note_on_c, 1, 67, 0
5, 29369, Note_on_c, 1, 65, 0
5, 29376, Note_on_c, 1, 64, 82
5, 29465, Note_on_c, 1, 64, 0
5, 29472, Note_on_c, 1, 64, 82
5, 29561, Note_on_c, 1, 64, 0
5, 29568, Note_on_c, 1, 64, 82
5, 29657, Note_on_c, 1, 64, 0
5, 29664, Note_on_c, 1, 65, 82
5, 29753, Note_on_c, 1, 65, 0
5, 29760, Note_on_c, 1, 65, 82
5, 29849, Note_on_c, 1, 65, 0
5, 29856, Note_on_c, 1, 65, 82
5, 29945, Note_on_c, 1, 65, 0
5, 29952, Note_on_c, 1, 67, 82
5, 30217, Note_on_c, 1, 67, 0
5, 30240, Note_on_c, 1, 48, 82
5, 30329, Note_on_c, 1, 48, 0
5, 30336, Note_on_c, 1, 48, 82
5, 30425, Note_on_c, 1, 48, 0
5, 30432, Note_on_c, 1, 48, 82
5, 30521, Note_on_c, 1, 48, 0
5, 30528, Note_on_c, 1, 50, 82
5, 30617, Note_on_c, 1, 50, 0
5, 30624, Note_on_c, 1, 50, 82
5, 30713, Note_on_c, 1, 50, 0
5, 30720, Note_on_c, 1, 50, 82
5, 30809, Note_on_c, 1, 50, 0
5, 30816, Note_on_c, 1, 48, 82
5, 30905, Note_on_c, 1, 48, 0
5, 30912, Note_on_c, 1, 48, 82
5, 31001, Note_on_c, 1, 48, 0
5, 31008, Note_on_c, 1, 48, 82
5, 31097, Note_on_c, 1, 48, 0
5, 31104, Note_on_c, 1, 50, 82
5, 31193, Note_on_c, 1, 50, 0
5, 31200, Note_on_c, 1, 50, 82
5, 31289, Note_on_c, 1, 50, 0
5, 31296, Note_on_c, 1, 50, 82
5, 31385, Note_on_c, 1, 50, 0
5, 31392, Note_on_c, 1, 48, 82
5, 31481, Note_on_c, 1, 48, 0
5, 31488, Note_on_c, 1, 48, 82
5, 31577, Note_on_c, 1, 48, 0
5, 31584, Note_on_c, 1, 48, 82
5, 31673, Note_on_c, 1, 48, 0
5, 31680, Note_on_c, 1, 53, 82
5, 31769, Note_on_c, 1, 53, 0
5, 31776, Note_on_c, 1, 53, 82
5, 31865, Note_on_c, 1, 53, 0
5, 31872, Note_on_c, 1, 53, 82
5, 31961, Note_on_c, 1, 53, 0
5, 31968, Note_on_c, 1, 55, 82
5, 32233, Note_on_c, 1, 55, 0
5, 42912, Note_on_c, 1, 55, 64
5, 43289, Note_on_c, 1, 55, 0
5, 47520, Note_on_c, 1, 67, 82
5, 47559, Note_on_c, 1, 67, 0
5, 47616, Note_on_c, 1, 67, 82
5, 47793, Note_on_c, 1, 67, 0
5, 47808, Note_on_c, 1, 64, 82
5, 47897, Note_on_c, 1, 64, 0
5, 47904, Note_on_c, 1, 64, 82
5, 47993, Note_on_c, 1, 64, 0
5, 48000, Note_on_c, 1, 64, 82
5, 48089, Note_on_c, 1, 64, 0
5, 48096, Note_on_c, 1, 67, 82
5, 48096, Note_on_c, 1, 65, 82
5, 48185, Note_on_c, 1, 67, 0
5, 48185, Note_on_c, 1, 65, 0
5, 48192, Note_on_c, 1, 67, 82
5, 48192, Note_on_c, 1, 65, 82
5, 48281, Note_on_c, 1, 67, 0
5, 48281, Note_on_c, 1, 65, 0
5, 48288, Note_on_c, 1, 67, 82
5, 48288, Note_on_c, 1, 65, 82
5, 48377, Note_on_c, 1, 67, 0
5, 48377, Note_on_c, 1, 65, 0
5, 48384, Note_on_c, 1, 64, 82
5, 48473, Note_on_c, 1, 64, 0
5, 48480, Note_on_c, 1, 64, 82
5, 48569, Note_on_c, 1, 64, 0
5, 48576, Note_on_c, 1, 64, 82
5, 48665, Note_on_c, 1, 64, 0
5, 48672, Note_on_c, 1, 67, 82
5, 48672, Note_on_c, 1, 65, 82
5, 48761, Note_on_c, 1, 67, 0
5, 48761, Note_on_c, 1, 65, 0
5, 48768, Note_on_c, 1, 67, 82
5, 48768, Note_on_c, 1, 65, 82
5, 48857, Note_on_c, 1, 67, 0
5, 48857, Note_on_c, 1, 65, 0
5, 48864, Note_on_c, 1, 67, 82
5, 48864, Note_on_c, 1, 65, 82
5, 48953, Note_on_c, 1, 67, 0
5, 48953, Note_on_c, 1, 65, 0
5, 48960, Note_on_c, 1, 64, 82
5, 49049, Note_on_c, 1, 64, 0
5, 49056, Note_on_c, 1, 64, 82
5, 49145, Note_on_c, 1, 64, 0
5, 49152, Note_on_c, 1, 64, 82
5, 49241, Note_on_c, 1, 64, 0
5, 49248, Note_on_c, 1, 65, 82
5, 49337, Note_on_c, 1, 65, 0
5, 49344, Note_on_c, 1, 65, 82
5, 49433, Note_on_c, 1, 65, 0
5, 49440, Note_on_c, 1, 65, 82
5, 49529, Note_on_c, 1, 65, 0
5, 49536, Note_on_c, 1, 67, 82
5, 49801, Note_on_c, 1, 67, 0
5, 49824, Note_on_c, 1, 48, 82
5, 49913, Note_on_c, 1, 48, 0
5, 49920, Note_on_c, 1, 48, 82
5, 50009, Note_on_c, 1, 48, 0
5, 50016, Note_on_c, 1, 48, 82
5, 50105, Note_on_c, 1, 48, 0
5, 50112, Note_on_c, 1, 50, 82
5, 50201, Note_on_c, 1, 50, 0
5, 50208, Note_on_c, 1, 50, 82
5, 50297, Note_on_c, 1, 50, 0
5, 50304, Note_on_c, 1, 50, 82
5, 50393, Note_on_c, 1, 50, 0
5, 50400, Note_on_c, 1, 48, 82
5, 50489, Note_on_c, 1, 48, 0
5, 50496, Note_on_c, 1, 48, 82
5, 50585, Note_on_c, 1, 48, 0
5, 50592, Note_on_c, 1, 48, 82
5, 50681, Note_on_c, 1, 48, 0
5, 50688, Note_on_c, 1, 50, 82
5, 50777, Note_on_c, 1, 50, 0
5, 50784, Note_on_c, 1, 50, 82
5, 50873, Note_on_c, 1, 50, 0
5, 50880, Note_on_c, 1, 50, 82
5, 50969, Note_on_c, 1, 50, 0
5, 50976, Note_on_c, 1, 48, 82
5, 51065, Note_on_c, 1, 48, 0
5, 51072, Note_on_c, 1, 48, 82
5, 51161, Note_on_c, 1, 48, 0
5, 51168, Note_on_c, 1, 48, 82
5, 51257, Note_on_c, 1, 48, 0
5, 51264, Note_on_c, 1, 53, 82
5, 51353, Note_on_c, 1, 53, 0
5, 51360, Note_on_c, 1, 53, 82
5, 51449, Note_on_c, 1, 53, 0
5, 51456, Note_on_c, 1, 53, 82
5, 51545, Note_on_c, 1, 53, 0
5, 51552, Note_on_c, 1, 55, 82
5, 51817, Note_on_c, 1, 55, 0
5, 53280, End_track
6, 0, Start_track
6, 0, Title_t, "Sonata I   Haydn  "
6, 0, End_track
0, 0, End_of_file
