0, 0, Header, 1, 4, 96
1, 0, Start_track
1, 0, Sequencer_specific, 16, 68, 87, 77, 90, 86, 82, 83, 78, 32, 54, 46, 48, 46, 57, 46, 48
1, 0, Time_signature, 3, 2, 24, 8
1, 0, Tempo, 480000
1, 0, Key_signature, -1, "major"
1, 16128, Key_signature, -2, "major"
1, 18432, Key_signature, -2, "major"
1, 25344, Key_signature, -1, "major"
1, 28224, Key_signature, -1, "major"
1, 41760, End_track
2, 0, Start_track
2, 0, Program_c, 0, 0
2, 0, Control_c, 0, 7, 127
2, 0, Control_c, 0, 10, 64
2, 0, Note_on_c, 0, 79, 64
2, 13, Note_on_c, 0, 79, 0
2, 14, Note_on_c, 0, 77, 64
2, 27, Note_on_c, 0, 77, 0
2, 28, Note_on_c, 0, 79, 64
2, 41, Note_on_c, 0, 79, 0
2, 42, Note_on_c, 0, 77, 64
2, 55, Note_on_c, 0, 77, 0
2, 56, Note_on_c, 0, 79, 64
2, 69, Note_on_c, 0, 79, 0
2, 70, Note_on_c, 0, 77, 64
2, 83, Note_on_c, 0, 77, 0
2, 84, Note_on_c, 0, 79, 64
2, 97, Note_on_c, 0, 79, 0
2, 98, Note_on_c, 0, 77, 64
2, 111, Note_on_c, 0, 77, 0
2, 112, Note_on_c, 0, 79, 64
2, 125, Note_on_c, 0, 79, 0
2, 126, Note_on_c, 0, 77, 64
2, 139, Note_on_c, 0, 77, 0
2, 140, Note_on_c, 0, 76, 64
2, 165, Note_on_c, 0, 76, 0
2, 166, Note_on_c, 0, 77, 64
2, 191, Note_on_c, 0, 77, 0
2, 192, Note_on_c, 0, 82, 64
2, 222, Note_on_c, 0, 82, 0
2, 224, Note_on_c, 0, 79, 64
2, 254, Note_on_c, 0, 79, 0
2, 256, Note_on_c, 0, 76, 64
2, 286, Note_on_c, 0, 76, 0
2, 288, Note_on_c, 0, 77, 64
2, 333, Note_on_c, 0, 77, 0
2, 336, Note_on_c, 0, 81, 64
2, 381, Note_on_c, 0, 81, 0
2, 384, Note_on_c, 0, 72, 64
2, 473, Note_on_c, 0, 72, 0
2, 480, Note_on_c, 0, 70, 64
2, 493, Note_on_c, 0, 70, 0
2, 494, Note_on_c, 0, 72, 64
2, 507, Note_on_c, 0, 72, 0
2, 508, Note_on_c, 0, 70, 64
2, 521, Note_on_c, 0, 70, 0
2, 522, Note_on_c, 0, 72, 64
2, 535, Note_on_c, 0, 72, 0
2, 536, Note_on_c, 0, 70, 64
2, 549, Note_on_c, 0, 70, 0
2, 550, Note_on_c, 0, 69, 64
2, 562, Note_on_c, 0, 69, 0
2, 563, Note_on_c, 0, 70, 64
2, 575, Note_on_c, 0, 70, 0
2, 576, Note_on_c, 0, 69, 64
2, 621, Note_on_c, 0, 69, 0
2, 624, Note_on_c, 0, 72, 64
2, 669, Note_on_c, 0, 72, 0
2, 672, Note_on_c, 0, 77, 64
2, 702, Note_on_c, 0, 77, 0
2, 704, Note_on_c, 0, 76, 64
2, 734, Note_on_c, 0, 76, 0
2, 736, Note_on_c, 0, 74, 64
2, 766, Note_on_c, 0, 74, 0
2, 768, Note_on_c, 0, 72, 64
2, 798, Note_on_c, 0, 72, 0
2, 800, Note_on_c, 0, 70, 64
2, 830, Note_on_c, 0, 70, 0
2, 832, Note_on_c, 0, 69, 64
2, 862, Note_on_c, 0, 69, 0
2, 864, Note_on_c, 0, 67, 64
2, 997, Note_on_c, 0, 67, 0
2, 1008, Note_on_c, 0, 69, 64
2, 1031, Note_on_c, 0, 69, 0
2, 1032, Note_on_c, 0, 70, 64
2, 1055, Note_on_c, 0, 70, 0
2, 1056, Note_on_c, 0, 69, 64
2, 1145, Note_on_c, 0, 69, 0
2, 1152, Note_on_c, 0, 79, 64
2, 1165, Note_on_c, 0, 79, 0
2, 1166, Note_on_c, 0, 77, 64
2, 1179, Note_on_c, 0, 77, 0
2, 1180, Note_on_c, 0, 79, 64
2, 1193, Note_on_c, 0, 79, 0
2, 1194, Note_on_c, 0, 77, 64
2, 1207, Note_on_c, 0, 77, 0
2, 1208, Note_on_c, 0, 79, 64
2, 1221, Note_on_c, 0, 79, 0
2, 1222, Note_on_c, 0, 77, 64
2, 1235, Note_on_c, 0, 77, 0
2, 1236, Note_on_c, 0, 79, 64
2, 1249, Note_on_c, 0, 79, 0
2, 1250, Note_on_c, 0, 77, 64
2, 1263, Note_on_c, 0, 77, 0
2, 1264, Note_on_c, 0, 79, 64
2, 1277, Note_on_c, 0, 79, 0
2, 1278, Note_on_c, 0, 77, 64
2, 1291, Note_on_c, 0, 77, 0
2, 1292, Note_on_c, 0, 76, 64
2, 1317, Note_on_c, 0, 76, 0
2, 1318, Note_on_c, 0, 77, 64
2, 1343, Note_on_c, 0, 77, 0
2, 1344, Note_on_c, 0, 82, 64
2, 1374, Note_on_c, 0, 82, 0
2, 1376, Note_on_c, 0, 79, 64
2, 1406, Note_on_c, 0, 79, 0
2, 1408, Note_on_c, 0, 76, 64
2, 1438, Note_on_c, 0, 76, 0
2, 1440, Note_on_c, 0, 77, 64
2, 1485, Note_on_c, 0, 77, 0
2, 1488, Note_on_c, 0, 81, 64
2, 1533, Note_on_c, 0, 81, 0
2, 1536, Note_on_c, 0, 72, 64
2, 1625, Note_on_c, 0, 72, 0
2, 1632, Note_on_c, 0, 81, 64
2, 1662, Note_on_c, 0, 81, 0
2, 1664, Note_on_c, 0, 83, 64
2, 1694, Note_on_c, 0, 83, 0
2, 1696, Note_on_c, 0, 84, 64
2, 1726, Note_on_c, 0, 84, 0
2, 1728, Note_on_c, 0, 84, 64
2, 1758, Note_on_c, 0, 84, 0
2, 1760, Note_on_c, 0, 83, 64
2, 1790, Note_on_c, 0, 83, 0
2, 1792, Note_on_c, 0, 81, 64
2, 1822, Note_on_c, 0, 81, 0
2, 1824, Note_on_c, 0, 79, 64
2, 1913, Note_on_c, 0, 79, 0
2, 1920, Note_on_c, 0, 81, 64
2, 1950, Note_on_c, 0, 81, 0
2, 1952, Note_on_c, 0, 83, 64
2, 1982, Note_on_c, 0, 83, 0
2, 1984, Note_on_c, 0, 84, 64
2, 2014, Note_on_c, 0, 84, 0
2, 2016, Note_on_c, 0, 84, 64
2, 2046, Note_on_c, 0, 84, 0
2, 2048, Note_on_c, 0, 83, 64
2, 2078, Note_on_c, 0, 83, 0
2, 2080, Note_on_c, 0, 81, 64
2, 2110, Note_on_c, 0, 81, 0
2, 2112, Note_on_c, 0, 79, 64
2, 2142, Note_on_c, 0, 79, 0
2, 2144, Note_on_c, 0, 77, 64
2, 2174, Note_on_c, 0, 77, 0
2, 2176, Note_on_c, 0, 76, 64
2, 2206, Note_on_c, 0, 76, 0
2, 2208, Note_on_c, 0, 77, 64
2, 2238, Note_on_c, 0, 77, 0
2, 2240, Note_on_c, 0, 76, 64
2, 2270, Note_on_c, 0, 76, 0
2, 2272, Note_on_c, 0, 74, 64
2, 2302, Note_on_c, 0, 74, 0
2, 2304, Note_on_c, 0, 76, 64
2, 2334, Note_on_c, 0, 76, 0
2, 2336, Note_on_c, 0, 77, 64
2, 2366, Note_on_c, 0, 77, 0
2, 2368, Note_on_c, 0, 79, 64
2, 2398, Note_on_c, 0, 79, 0
2, 2400, Note_on_c, 0, 72, 64
2, 2489, Note_on_c, 0, 72, 0
2, 2496, Note_on_c, 0, 71, 64
2, 2509, Note_on_c, 0, 71, 0
2, 2510, Note_on_c, 0, 72, 64
2, 2523, Note_on_c, 0, 72, 0
2, 2524, Note_on_c, 0, 71, 64
2, 2537, Note_on_c, 0, 71, 0
2, 2538, Note_on_c, 0, 72, 64
2, 2551, Note_on_c, 0, 72, 0
2, 2552, Note_on_c, 0, 71, 64
2, 2565, Note_on_c, 0, 71, 0
2, 2566, Note_on_c, 0, 69, 64
2, 2578, Note_on_c, 0, 69, 0
2, 2579, Note_on_c, 0, 71, 64
2, 2591, Note_on_c, 0, 71, 0
2, 2592, Note_on_c, 0, 72, 64
2, 2769, Note_on_c, 0, 72, 0
2, 2880, Note_on_c, 0, 79, 64
2, 2893, Note_on_c, 0, 79, 0
2, 2894, Note_on_c, 0, 77, 64
2, 2907, Note_on_c, 0, 77, 0
2, 2908, Note_on_c, 0, 79, 64
2, 2921, Note_on_c, 0, 79, 0
2, 2922, Note_on_c, 0, 77, 64
2, 2935, Note_on_c, 0, 77, 0
2, 2936, Note_on_c, 0, 79, 64
2, 2949, Note_on_c, 0, 79, 0
2, 2950, Note_on_c, 0, 77, 64
2, 2963, Note_on_c, 0, 77, 0
2, 2964, Note_on_c, 0, 79, 64
2, 2977, Note_on_c, 0, 79, 0
2, 2978, Note_on_c, 0, 77, 64
2, 2991, Note_on_c, 0, 77, 0
2, 2992, Note_on_c, 0, 79, 64
2, 3005, Note_on_c, 0, 79, 0
2, 3006, Note_on_c, 0, 77, 64
2, 3019, Note_on_c, 0, 77, 0
2, 3020, Note_on_c, 0, 76, 64
2, 3045, Note_on_c, 0, 76, 0
2, 3046, Note_on_c, 0, 77, 64
2, 3071, Note_on_c, 0, 77, 0
2, 3072, Note_on_c, 0, 82, 64
2, 3102, Note_on_c, 0, 82, 0
2, 3104, Note_on_c, 0, 79, 64
2, 3134, Note_on_c, 0, 79, 0
2, 3136, Note_on_c, 0, 76, 64
2, 3166, Note_on_c, 0, 76, 0
2, 3168, Note_on_c, 0, 77, 64
2, 3213, Note_on_c, 0, 77, 0
2, 3216, Note_on_c, 0, 81, 64
2, 3261, Note_on_c, 0, 81, 0
2, 3264, Note_on_c, 0, 72, 64
2, 3353, Note_on_c, 0, 72, 0
2, 3360, Note_on_c, 0, 70, 64
2, 3373, Note_on_c, 0, 70, 0
2, 3374, Note_on_c, 0, 72, 64
2, 3387, Note_on_c, 0, 72, 0
2, 3388, Note_on_c, 0, 70, 64
2, 3401, Note_on_c, 0, 70, 0
2, 3402, Note_on_c, 0, 72, 64
2, 3415, Note_on_c, 0, 72, 0
2, 3416, Note_on_c, 0, 70, 64
2, 3429, Note_on_c, 0, 70, 0
2, 3430, Note_on_c, 0, 69, 64
2, 3442, Note_on_c, 0, 69, 0
2, 3443, Note_on_c, 0, 70, 64
2, 3455, Note_on_c, 0, 70, 0
2, 3456, Note_on_c, 0, 69, 64
2, 3501, Note_on_c, 0, 69, 0
2, 3504, Note_on_c, 0, 72, 64
2, 3549, Note_on_c, 0, 72, 0
2, 3552, Note_on_c, 0, 77, 64
2, 3582, Note_on_c, 0, 77, 0
2, 3584, Note_on_c, 0, 76, 64
2, 3614, Note_on_c, 0, 76, 0
2, 3616, Note_on_c, 0, 74, 64
2, 3646, Note_on_c, 0, 74, 0
2, 3648, Note_on_c, 0, 72, 64
2, 3678, Note_on_c, 0, 72, 0
2, 3680, Note_on_c, 0, 70, 64
2, 3710, Note_on_c, 0, 70, 0
2, 3712, Note_on_c, 0, 69, 64
2, 3742, Note_on_c, 0, 69, 0
2, 3744, Note_on_c, 0, 67, 64
2, 3877, Note_on_c, 0, 67, 0
2, 3888, Note_on_c, 0, 69, 64
2, 3911, Note_on_c, 0, 69, 0
2, 3912, Note_on_c, 0, 70, 64
2, 3935, Note_on_c, 0, 70, 0
2, 3936, Note_on_c, 0, 69, 64
2, 4025, Note_on_c, 0, 69, 0
2, 4032, Note_on_c, 0, 79, 64
2, 4045, Note_on_c, 0, 79, 0
2, 4046, Note_on_c, 0, 77, 64
2, 4059, Note_on_c, 0, 77, 0
2, 4060, Note_on_c, 0, 79, 64
2, 4073, Note_on_c, 0, 79, 0
2, 4074, Note_on_c, 0, 77, 64
2, 4087, Note_on_c, 0, 77, 0
2, 4088, Note_on_c, 0, 79, 64
2, 4101, Note_on_c, 0, 79, 0
2, 4102, Note_on_c, 0, 77, 64
2, 4115, Note_on_c, 0, 77, 0
2, 4116, Note_on_c, 0, 79, 64
2, 4129, Note_on_c, 0, 79, 0
2, 4130, Note_on_c, 0, 77, 64
2, 4143, Note_on_c, 0, 77, 0
2, 4144, Note_on_c, 0, 79, 64
2, 4157, Note_on_c, 0, 79, 0
2, 4158, Note_on_c, 0, 77, 64
2, 4171, Note_on_c, 0, 77, 0
2, 4172, Note_on_c, 0, 76, 64
2, 4197, Note_on_c, 0, 76, 0
2, 4198, Note_on_c, 0, 77, 64
2, 4223, Note_on_c, 0, 77, 0
2, 4224, Note_on_c, 0, 82, 64
2, 4254, Note_on_c, 0, 82, 0
2, 4256, Note_on_c, 0, 79, 64
2, 4286, Note_on_c, 0, 79, 0
2, 4288, Note_on_c, 0, 76, 64
2, 4318, Note_on_c, 0, 76, 0
2, 4320, Note_on_c, 0, 77, 64
2, 4365, Note_on_c, 0, 77, 0
2, 4368, Note_on_c, 0, 81, 64
2, 4413, Note_on_c, 0, 81, 0
2, 4416, Note_on_c, 0, 72, 64
2, 4505, Note_on_c, 0, 72, 0
2, 4512, Note_on_c, 0, 81, 64
2, 4542, Note_on_c, 0, 81, 0
2, 4544, Note_on_c, 0, 83, 64
2, 4574, Note_on_c, 0, 83, 0
2, 4576, Note_on_c, 0, 84, 64
2, 4606, Note_on_c, 0, 84, 0
2, 4608, Note_on_c, 0, 84, 64
2, 4638, Note_on_c, 0, 84, 0
2, 4640, Note_on_c, 0, 83, 64
2, 4670, Note_on_c, 0, 83, 0
2, 4672, Note_on_c, 0, 81, 64
2, 4702, Note_on_c, 0, 81, 0
2, 4704, Note_on_c, 0, 79, 64
2, 4793, Note_on_c, 0, 79, 0
2, 4800, Note_on_c, 0, 81, 64
2, 4830, Note_on_c, 0, 81, 0
2, 4832, Note_on_c, 0, 83, 64
2, 4862, Note_on_c, 0, 83, 0
2, 4864, Note_on_c, 0, 84, 64
2, 4894, Note_on_c, 0, 84, 0
2, 4896, Note_on_c, 0, 84, 64
2, 4926, Note_on_c, 0, 84, 0
2, 4928, Note_on_c, 0, 83, 64
2, 4958, Note_on_c, 0, 83, 0
2, 4960, Note_on_c, 0, 81, 64
2, 4990, Note_on_c, 0, 81, 0
2, 4992, Note_on_c, 0, 79, 64
2, 5022, Note_on_c, 0, 79, 0
2, 5024, Note_on_c, 0, 77, 64
2, 5054, Note_on_c, 0, 77, 0
2, 5056, Note_on_c, 0, 76, 64
2, 5086, Note_on_c, 0, 76, 0
2, 5088, Note_on_c, 0, 77, 64
2, 5118, Note_on_c, 0, 77, 0
2, 5120, Note_on_c, 0, 76, 64
2, 5150, Note_on_c, 0, 76, 0
2, 5152, Note_on_c, 0, 74, 64
2, 5182, Note_on_c, 0, 74, 0
2, 5184, Note_on_c, 0, 76, 64
2, 5214, Note_on_c, 0, 76, 0
2, 5216, Note_on_c, 0, 77, 64
2, 5246, Note_on_c, 0, 77, 0
2, 5248, Note_on_c, 0, 79, 64
2, 5278, Note_on_c, 0, 79, 0
2, 5280, Note_on_c, 0, 72, 64
2, 5369, Note_on_c, 0, 72, 0
2, 5376, Note_on_c, 0, 71, 64
2, 5389, Note_on_c, 0, 71, 0
2, 5390, Note_on_c, 0, 72, 64
2, 5403, Note_on_c, 0, 72, 0
2, 5404, Note_on_c, 0, 71, 64
2, 5417, Note_on_c, 0, 71, 0
2, 5418, Note_on_c, 0, 72, 64
2, 5431, Note_on_c, 0, 72, 0
2, 5432, Note_on_c, 0, 71, 64
2, 5445, Note_on_c, 0, 71, 0
2, 5446, Note_on_c, 0, 69, 64
2, 5458, Note_on_c, 0, 69, 0
2, 5459, Note_on_c, 0, 71, 64
2, 5471, Note_on_c, 0, 71, 0
2, 5472, Note_on_c, 0, 72, 64
2, 5649, Note_on_c, 0, 72, 0
2, 5760, Note_on_c, 0, 72, 64
2, 5937, Note_on_c, 0, 72, 0
2, 5952, Note_on_c, 0, 79, 64
2, 5982, Note_on_c, 0, 79, 0
2, 5984, Note_on_c, 0, 76, 64
2, 6014, Note_on_c, 0, 76, 0
2, 6016, Note_on_c, 0, 72, 64
2, 6046, Note_on_c, 0, 72, 0
2, 6048, Note_on_c, 0, 81, 64
2, 6078, Note_on_c, 0, 81, 0
2, 6080, Note_on_c, 0, 77, 64
2, 6110, Note_on_c, 0, 77, 0
2, 6112, Note_on_c, 0, 72, 64
2, 6142, Note_on_c, 0, 72, 0
2, 6144, Note_on_c, 0, 82, 64
2, 6174, Note_on_c, 0, 82, 0
2, 6176, Note_on_c, 0, 81, 64
2, 6206, Note_on_c, 0, 81, 0
2, 6208, Note_on_c, 0, 79, 64
2, 6238, Note_on_c, 0, 79, 0
2, 6240, Note_on_c, 0, 81, 64
2, 6329, Note_on_c, 0, 81, 0
2, 6336, Note_on_c, 0, 79, 64
2, 6366, Note_on_c, 0, 79, 0
2, 6368, Note_on_c, 0, 82, 64
2, 6398, Note_on_c, 0, 82, 0
2, 6400, Note_on_c, 0, 81, 64
2, 6430, Note_on_c, 0, 81, 0
2, 6432, Note_on_c, 0, 79, 64
2, 6462, Note_on_c, 0, 79, 0
2, 6464, Note_on_c, 0, 86, 64
2, 6494, Note_on_c, 0, 86, 0
2, 6496, Note_on_c, 0, 84, 64
2, 6526, Note_on_c, 0, 84, 0
2, 6528, Note_on_c, 0, 82, 64
2, 6558, Note_on_c, 0, 82, 0
2, 6560, Note_on_c, 0, 81, 64
2, 6590, Note_on_c, 0, 81, 0
2, 6592, Note_on_c, 0, 79, 64
2, 6622, Note_on_c, 0, 79, 0
2, 6624, Note_on_c, 0, 77, 64
2, 6720, Note_on_c, 0, 77, 0
2, 6720, Note_on_c, 0, 76, 64
2, 6809, Note_on_c, 0, 76, 0
2, 6960, Note_on_c, 0, 72, 64
2, 7049, Note_on_c, 0, 72, 0
2, 7056, Note_on_c, 0, 80, 64
2, 7145, Note_on_c, 0, 80, 0
2, 7152, Note_on_c, 0, 72, 64
2, 7245, Note_on_c, 0, 72, 0
2, 7248, Note_on_c, 0, 70, 64
2, 7293, Note_on_c, 0, 70, 0
2, 7296, Note_on_c, 0, 79, 64
2, 7341, Note_on_c, 0, 79, 0
2, 7344, Note_on_c, 0, 70, 64
2, 7433, Note_on_c, 0, 70, 0
2, 7440, Note_on_c, 0, 68, 64
2, 7533, Note_on_c, 0, 68, 0
2, 7536, Note_on_c, 0, 67, 64
2, 7581, Note_on_c, 0, 67, 0
2, 7584, Note_on_c, 0, 73, 64
2, 7629, Note_on_c, 0, 73, 0
2, 7632, Note_on_c, 0, 70, 64
2, 7677, Note_on_c, 0, 70, 0
2, 7680, Note_on_c, 0, 67, 64
2, 7725, Note_on_c, 0, 67, 0
2, 7728, Note_on_c, 0, 65, 64
2, 7773, Note_on_c, 0, 65, 0
2, 7776, Note_on_c, 0, 65, 64
2, 7872, Note_on_c, 0, 65, 0
2, 7872, Note_on_c, 0, 64, 64
2, 7961, Note_on_c, 0, 64, 0
2, 8064, Note_on_c, 0, 79, 64
2, 8077, Note_on_c, 0, 79, 0
2, 8078, Note_on_c, 0, 77, 64
2, 8091, Note_on_c, 0, 77, 0
2, 8092, Note_on_c, 0, 79, 64
2, 8105, Note_on_c, 0, 79, 0
2, 8106, Note_on_c, 0, 77, 64
2, 8119, Note_on_c, 0, 77, 0
2, 8120, Note_on_c, 0, 79, 64
2, 8133, Note_on_c, 0, 79, 0
2, 8134, Note_on_c, 0, 77, 64
2, 8147, Note_on_c, 0, 77, 0
2, 8148, Note_on_c, 0, 79, 64
2, 8161, Note_on_c, 0, 79, 0
2, 8162, Note_on_c, 0, 77, 64
2, 8175, Note_on_c, 0, 77, 0
2, 8176, Note_on_c, 0, 79, 64
2, 8189, Note_on_c, 0, 79, 0
2, 8190, Note_on_c, 0, 77, 64
2, 8203, Note_on_c, 0, 77, 0
2, 8204, Note_on_c, 0, 76, 64
2, 8229, Note_on_c, 0, 76, 0
2, 8230, Note_on_c, 0, 77, 64
2, 8255, Note_on_c, 0, 77, 0
2, 8256, Note_on_c, 0, 82, 64
2, 8286, Note_on_c, 0, 82, 0
2, 8288, Note_on_c, 0, 79, 64
2, 8318, Note_on_c, 0, 79, 0
2, 8320, Note_on_c, 0, 76, 64
2, 8350, Note_on_c, 0, 76, 0
2, 8352, Note_on_c, 0, 77, 64
2, 8397, Note_on_c, 0, 77, 0
2, 8400, Note_on_c, 0, 81, 64
2, 8445, Note_on_c, 0, 81, 0
2, 8448, Note_on_c, 0, 72, 64
2, 8537, Note_on_c, 0, 72, 0
2, 8544, Note_on_c, 0, 70, 64
2, 8557, Note_on_c, 0, 70, 0
2, 8558, Note_on_c, 0, 72, 64
2, 8571, Note_on_c, 0, 72, 0
2, 8572, Note_on_c, 0, 70, 64
2, 8585, Note_on_c, 0, 70, 0
2, 8586, Note_on_c, 0, 72, 64
2, 8599, Note_on_c, 0, 72, 0
2, 8600, Note_on_c, 0, 70, 64
2, 8613, Note_on_c, 0, 70, 0
2, 8614, Note_on_c, 0, 69, 64
2, 8626, Note_on_c, 0, 69, 0
2, 8627, Note_on_c, 0, 70, 64
2, 8639, Note_on_c, 0, 70, 0
2, 8640, Note_on_c, 0, 69, 64
2, 8685, Note_on_c, 0, 69, 0
2, 8688, Note_on_c, 0, 72, 64
2, 8733, Note_on_c, 0, 72, 0
2, 8736, Note_on_c, 0, 77, 64
2, 8766, Note_on_c, 0, 77, 0
2, 8768, Note_on_c, 0, 76, 64
2, 8798, Note_on_c, 0, 76, 0
2, 8800, Note_on_c, 0, 74, 64
2, 8830, Note_on_c, 0, 74, 0
2, 8832, Note_on_c, 0, 72, 64
2, 8862, Note_on_c, 0, 72, 0
2, 8864, Note_on_c, 0, 70, 64
2, 8894, Note_on_c, 0, 70, 0
2, 8896, Note_on_c, 0, 69, 64
2, 8926, Note_on_c, 0, 69, 0
2, 8928, Note_on_c, 0, 67, 64
2, 9061, Note_on_c, 0, 67, 0
2, 9072, Note_on_c, 0, 69, 64
2, 9095, Note_on_c, 0, 69, 0
2, 9096, Note_on_c, 0, 70, 64
2, 9119, Note_on_c, 0, 70, 0
2, 9120, Note_on_c, 0, 69, 64
2, 9209, Note_on_c, 0, 69, 0
2, 9216, Note_on_c, 0, 79, 64
2, 9229, Note_on_c, 0, 79, 0
2, 9230, Note_on_c, 0, 77, 64
2, 9243, Note_on_c, 0, 77, 0
2, 9244, Note_on_c, 0, 79, 64
2, 9257, Note_on_c, 0, 79, 0
2, 9258, Note_on_c, 0, 77, 64
2, 9271, Note_on_c, 0, 77, 0
2, 9272, Note_on_c, 0, 79, 64
2, 9285, Note_on_c, 0, 79, 0
2, 9286, Note_on_c, 0, 77, 64
2, 9299, Note_on_c, 0, 77, 0
2, 9300, Note_on_c, 0, 79, 64
2, 9313, Note_on_c, 0, 79, 0
2, 9314, Note_on_c, 0, 77, 64
2, 9327, Note_on_c, 0, 77, 0
2, 9328, Note_on_c, 0, 79, 64
2, 9341, Note_on_c, 0, 79, 0
2, 9342, Note_on_c, 0, 77, 64
2, 9355, Note_on_c, 0, 77, 0
2, 9356, Note_on_c, 0, 76, 64
2, 9381, Note_on_c, 0, 76, 0
2, 9382, Note_on_c, 0, 77, 64
2, 9407, Note_on_c, 0, 77, 0
2, 9408, Note_on_c, 0, 82, 64
2, 9438, Note_on_c, 0, 82, 0
2, 9440, Note_on_c, 0, 79, 64
2, 9470, Note_on_c, 0, 79, 0
2, 9472, Note_on_c, 0, 76, 64
2, 9502, Note_on_c, 0, 76, 0
2, 9504, Note_on_c, 0, 77, 64
2, 9549, Note_on_c, 0, 77, 0
2, 9552, Note_on_c, 0, 81, 64
2, 9597, Note_on_c, 0, 81, 0
2, 9600, Note_on_c, 0, 72, 64
2, 9689, Note_on_c, 0, 72, 0
2, 9696, Note_on_c, 0, 74, 64
2, 9726, Note_on_c, 0, 74, 0
2, 9728, Note_on_c, 0, 76, 64
2, 9758, Note_on_c, 0, 76, 0
2, 9760, Note_on_c, 0, 77, 64
2, 9790, Note_on_c, 0, 77, 0
2, 9792, Note_on_c, 0, 77, 64
2, 9822, Note_on_c, 0, 77, 0
2, 9824, Note_on_c, 0, 76, 64
2, 9854, Note_on_c, 0, 76, 0
2, 9856, Note_on_c, 0, 74, 64
2, 9886, Note_on_c, 0, 74, 0
2, 9888, Note_on_c, 0, 72, 64
2, 9977, Note_on_c, 0, 72, 0
2, 9984, Note_on_c, 0, 74, 64
2, 10014, Note_on_c, 0, 74, 0
2, 10016, Note_on_c, 0, 76, 64
2, 10046, Note_on_c, 0, 76, 0
2, 10048, Note_on_c, 0, 77, 64
2, 10078, Note_on_c, 0, 77, 0
2, 10080, Note_on_c, 0, 77, 64
2, 10110, Note_on_c, 0, 77, 0
2, 10112, Note_on_c, 0, 76, 64
2, 10142, Note_on_c, 0, 76, 0
2, 10144, Note_on_c, 0, 74, 64
2, 10174, Note_on_c, 0, 74, 0
2, 10176, Note_on_c, 0, 72, 64
2, 10206, Note_on_c, 0, 72, 0
2, 10208, Note_on_c, 0, 77, 64
2, 10238, Note_on_c, 0, 77, 0
2, 10240, Note_on_c, 0, 81, 64
2, 10270, Note_on_c, 0, 81, 0
2, 10272, Note_on_c, 0, 72, 64
2, 10302, Note_on_c, 0, 72, 0
2, 10304, Note_on_c, 0, 79, 64
2, 10334, Note_on_c, 0, 79, 0
2, 10336, Note_on_c, 0, 82, 64
2, 10366, Note_on_c, 0, 82, 0
2, 10368, Note_on_c, 0, 81, 64
2, 10398, Note_on_c, 0, 81, 0
2, 10400, Note_on_c, 0, 82, 64
2, 10430, Note_on_c, 0, 82, 0
2, 10432, Note_on_c, 0, 84, 64
2, 10462, Note_on_c, 0, 84, 0
2, 10464, Note_on_c, 0, 77, 64
2, 10553, Note_on_c, 0, 77, 0
2, 10560, Note_on_c, 0, 76, 64
2, 10573, Note_on_c, 0, 76, 0
2, 10574, Note_on_c, 0, 77, 64
2, 10587, Note_on_c, 0, 77, 0
2, 10588, Note_on_c, 0, 76, 64
2, 10601, Note_on_c, 0, 76, 0
2, 10602, Note_on_c, 0, 77, 64
2, 10615, Note_on_c, 0, 77, 0
2, 10616, Note_on_c, 0, 76, 64
2, 10629, Note_on_c, 0, 76, 0
2, 10630, Note_on_c, 0, 74, 64
2, 10642, Note_on_c, 0, 74, 0
2, 10643, Note_on_c, 0, 76, 64
2, 10655, Note_on_c, 0, 76, 0
2, 10656, Note_on_c, 0, 77, 64
2, 10833, Note_on_c, 0, 77, 0
2, 10944, Note_on_c, 0, 72, 64
2, 11121, Note_on_c, 0, 72, 0
2, 11136, Note_on_c, 0, 79, 64
2, 11166, Note_on_c, 0, 79, 0
2, 11168, Note_on_c, 0, 76, 64
2, 11198, Note_on_c, 0, 76, 0
2, 11200, Note_on_c, 0, 72, 64
2, 11230, Note_on_c, 0, 72, 0
2, 11232, Note_on_c, 0, 81, 64
2, 11262, Note_on_c, 0, 81, 0
2, 11264, Note_on_c, 0, 77, 64
2, 11294, Note_on_c, 0, 77, 0
2, 11296, Note_on_c, 0, 72, 64
2, 11326, Note_on_c, 0, 72, 0
2, 11328, Note_on_c, 0, 82, 64
2, 11358, Note_on_c, 0, 82, 0
2, 11360, Note_on_c, 0, 81, 64
2, 11390, Note_on_c, 0, 81, 0
2, 11392, Note_on_c, 0, 79, 64
2, 11422, Note_on_c, 0, 79, 0
2, 11424, Note_on_c, 0, 81, 64
2, 11513, Note_on_c, 0, 81, 0
2, 11520, Note_on_c, 0, 79, 64
2, 11550, Note_on_c, 0, 79, 0
2, 11552, Note_on_c, 0, 82, 64
2, 11582, Note_on_c, 0, 82, 0
2, 11584, Note_on_c, 0, 81, 64
2, 11614, Note_on_c, 0, 81, 0
2, 11616, Note_on_c, 0, 79, 64
2, 11646, Note_on_c, 0, 79, 0
2, 11648, Note_on_c, 0, 86, 64
2, 11678, Note_on_c, 0, 86, 0
2, 11680, Note_on_c, 0, 84, 64
2, 11710, Note_on_c, 0, 84, 0
2, 11712, Note_on_c, 0, 82, 64
2, 11742, Note_on_c, 0, 82, 0
2, 11744, Note_on_c, 0, 81, 64
2, 11774, Note_on_c, 0, 81, 0
2, 11776, Note_on_c, 0, 79, 64
2, 11806, Note_on_c, 0, 79, 0
2, 11808, Note_on_c, 0, 77, 64
2, 11904, Note_on_c, 0, 77, 0
2, 11904, Note_on_c, 0, 76, 64
2, 11993, Note_on_c, 0, 76, 0
2, 12144, Note_on_c, 0, 72, 64
2, 12233, Note_on_c, 0, 72, 0
2, 12240, Note_on_c, 0, 80, 64
2, 12329, Note_on_c, 0, 80, 0
2, 12336, Note_on_c, 0, 72, 64
2, 12429, Note_on_c, 0, 72, 0
2, 12432, Note_on_c, 0, 70, 64
2, 12477, Note_on_c, 0, 70, 0
2, 12480, Note_on_c, 0, 79, 64
2, 12525, Note_on_c, 0, 79, 0
2, 12528, Note_on_c, 0, 70, 64
2, 12617, Note_on_c, 0, 70, 0
2, 12624, Note_on_c, 0, 68, 64
2, 12717, Note_on_c, 0, 68, 0
2, 12720, Note_on_c, 0, 67, 64
2, 12765, Note_on_c, 0, 67, 0
2, 12768, Note_on_c, 0, 73, 64
2, 12813, Note_on_c, 0, 73, 0
2, 12816, Note_on_c, 0, 70, 64
2, 12861, Note_on_c, 0, 70, 0
2, 12864, Note_on_c, 0, 67, 64
2, 12909, Note_on_c, 0, 67, 0
2, 12912, Note_on_c, 0, 65, 64
2, 12957, Note_on_c, 0, 65, 0
2, 12960, Note_on_c, 0, 65, 64
2, 13056, Note_on_c, 0, 65, 0
2, 13056, Note_on_c, 0, 64, 64
2, 13145, Note_on_c, 0, 64, 0
2, 13248, Note_on_c, 0, 79, 64
2, 13261, Note_on_c, 0, 79, 0
2, 13262, Note_on_c, 0, 77, 64
2, 13275, Note_on_c, 0, 77, 0
2, 13276, Note_on_c, 0, 79, 64
2, 13289, Note_on_c, 0, 79, 0
2, 13290, Note_on_c, 0, 77, 64
2, 13303, Note_on_c, 0, 77, 0
2, 13304, Note_on_c, 0, 79, 64
2, 13317, Note_on_c, 0, 79, 0
2, 13318, Note_on_c, 0, 77, 64
2, 13331, Note_on_c, 0, 77, 0
2, 13332, Note_on_c, 0, 79, 64
2, 13345, Note_on_c, 0, 79, 0
2, 13346, Note_on_c, 0, 77, 64
2, 13359, Note_on_c, 0, 77, 0
2, 13360, Note_on_c, 0, 79, 64
2, 13373, Note_on_c, 0, 79, 0
2, 13374, Note_on_c, 0, 77, 64
2, 13387, Note_on_c, 0, 77, 0
2, 13388, Note_on_c, 0, 76, 64
2, 13413, Note_on_c, 0, 76, 0
2, 13414, Note_on_c, 0, 77, 64
2, 13439, Note_on_c, 0, 77, 0
2, 13440, Note_on_c, 0, 82, 64
2, 13470, Note_on_c, 0, 82, 0
2, 13472, Note_on_c, 0, 79, 64
2, 13502, Note_on_c, 0, 79, 0
2, 13504, Note_on_c, 0, 76, 64
2, 13534, Note_on_c, 0, 76, 0
2, 13536, Note_on_c, 0, 77, 64
2, 13581, Note_on_c, 0, 77, 0
2, 13584, Note_on_c, 0, 81, 64
2, 13629, Note_on_c, 0, 81, 0
2, 13632, Note_on_c, 0, 72, 64
2, 13721, Note_on_c, 0, 72, 0
2, 13728, Note_on_c, 0, 70, 64
2, 13741, Note_on_c, 0, 70, 0
2, 13742, Note_on_c, 0, 72, 64
2, 13755, Note_on_c, 0, 72, 0
2, 13756, Note_on_c, 0, 70, 64
2, 13769, Note_on_c, 0, 70, 0
2, 13770, Note_on_c, 0, 72, 64
2, 13783, Note_on_c, 0, 72, 0
2, 13784, Note_on_c, 0, 70, 64
2, 13797, Note_on_c, 0, 70, 0
2, 13798, Note_on_c, 0, 69, 64
2, 13810, Note_on_c, 0, 69, 0
2, 13811, Note_on_c, 0, 70, 64
2, 13823, Note_on_c, 0, 70, 0
2, 13824, Note_on_c, 0, 69, 64
2, 13869, Note_on_c, 0, 69, 0
2, 13872, Note_on_c, 0, 72, 64
2, 13917, Note_on_c, 0, 72, 0
2, 13920, Note_on_c, 0, 77, 64
2, 13950, Note_on_c, 0, 77, 0
2, 13952, Note_on_c, 0, 76, 64
2, 13982, Note_on_c, 0, 76, 0
2, 13984, Note_on_c, 0, 74, 64
2, 14014, Note_on_c, 0, 74, 0
2, 14016, Note_on_c, 0, 72, 64
2, 14046, Note_on_c, 0, 72, 0
2, 14048, Note_on_c, 0, 70, 64
2, 14078, Note_on_c, 0, 70, 0
2, 14080, Note_on_c, 0, 69, 64
2, 14110, Note_on_c, 0, 69, 0
2, 14112, Note_on_c, 0, 67, 64
2, 14245, Note_on_c, 0, 67, 0
2, 14256, Note_on_c, 0, 69, 64
2, 14279, Note_on_c, 0, 69, 0
2, 14280, Note_on_c, 0, 70, 64
2, 14303, Note_on_c, 0, 70, 0
2, 14304, Note_on_c, 0, 69, 64
2, 14393, Note_on_c, 0, 69, 0
2, 14400, Note_on_c, 0, 79, 64
2, 14413, Note_on_c, 0, 79, 0
2, 14414, Note_on_c, 0, 77, 64
2, 14427, Note_on_c, 0, 77, 0
2, 14428, Note_on_c, 0, 79, 64
2, 14441, Note_on_c, 0, 79, 0
2, 14442, Note_on_c, 0, 77, 64
2, 14455, Note_on_c, 0, 77, 0
2, 14456, Note_on_c, 0, 79, 64
2, 14469, Note_on_c, 0, 79, 0
2, 14470, Note_on_c, 0, 77, 64
2, 14483, Note_on_c, 0, 77, 0
2, 14484, Note_on_c, 0, 79, 64
2, 14497, Note_on_c, 0, 79, 0
2, 14498, Note_on_c, 0, 77, 64
2, 14511, Note_on_c, 0, 77, 0
2, 14512, Note_on_c, 0, 79, 64
2, 14525, Note_on_c, 0, 79, 0
2, 14526, Note_on_c, 0, 77, 64
2, 14539, Note_on_c, 0, 77, 0
2, 14540, Note_on_c, 0, 76, 64
2, 14565, Note_on_c, 0, 76, 0
2, 14566, Note_on_c, 0, 77, 64
2, 14591, Note_on_c, 0, 77, 0
2, 14592, Note_on_c, 0, 82, 64
2, 14622, Note_on_c, 0, 82, 0
2, 14624, Note_on_c, 0, 79, 64
2, 14654, Note_on_c, 0, 79, 0
2, 14656, Note_on_c, 0, 76, 64
2, 14686, Note_on_c, 0, 76, 0
2, 14688, Note_on_c, 0, 77, 64
2, 14733, Note_on_c, 0, 77, 0
2, 14736, Note_on_c, 0, 81, 64
2, 14781, Note_on_c, 0, 81, 0
2, 14784, Note_on_c, 0, 72, 64
2, 14873, Note_on_c, 0, 72, 0
2, 14880, Note_on_c, 0, 74, 64
2, 14910, Note_on_c, 0, 74, 0
2, 14912, Note_on_c, 0, 76, 64
2, 14942, Note_on_c, 0, 76, 0
2, 14944, Note_on_c, 0, 77, 64
2, 14974, Note_on_c, 0, 77, 0
2, 14976, Note_on_c, 0, 77, 64
2, 15006, Note_on_c, 0, 77, 0
2, 15008, Note_on_c, 0, 76, 64
2, 15038, Note_on_c, 0, 76, 0
2, 15040, Note_on_c, 0, 74, 64
2, 15070, Note_on_c, 0, 74, 0
2, 15072, Note_on_c, 0, 72, 64
2, 15161, Note_on_c, 0, 72, 0
2, 15168, Note_on_c, 0, 74, 64
2, 15198, Note_on_c, 0, 74, 0
2, 15200, Note_on_c, 0, 76, 64
2, 15230, Note_on_c, 0, 76, 0
2, 15232, Note_on_c, 0, 77, 64
2, 15262, Note_on_c, 0, 77, 0
2, 15264, Note_on_c, 0, 77, 64
2, 15294, Note_on_c, 0, 77, 0
2, 15296, Note_on_c, 0, 76, 64
2, 15326, Note_on_c, 0, 76, 0
2, 15328, Note_on_c, 0, 74, 64
2, 15358, Note_on_c, 0, 74, 0
2, 15360, Note_on_c, 0, 72, 64
2, 15390, Note_on_c, 0, 72, 0
2, 15392, Note_on_c, 0, 77, 64
2, 15422, Note_on_c, 0, 77, 0
2, 15424, Note_on_c, 0, 81, 64
2, 15454, Note_on_c, 0, 81, 0
2, 15456, Note_on_c, 0, 72, 64
2, 15486, Note_on_c, 0, 72, 0
2, 15488, Note_on_c, 0, 79, 64
2, 15518, Note_on_c, 0, 79, 0
2, 15520, Note_on_c, 0, 82, 64
2, 15550, Note_on_c, 0, 82, 0
2, 15552, Note_on_c, 0, 81, 64
2, 15582, Note_on_c, 0, 81, 0
2, 15584, Note_on_c, 0, 82, 64
2, 15614, Note_on_c, 0, 82, 0
2, 15616, Note_on_c, 0, 84, 64
2, 15646, Note_on_c, 0, 84, 0
2, 15648, Note_on_c, 0, 77, 64
2, 15737, Note_on_c, 0, 77, 0
2, 15744, Note_on_c, 0, 76, 64
2, 15757, Note_on_c, 0, 76, 0
2, 15758, Note_on_c, 0, 77, 64
2, 15771, Note_on_c, 0, 77, 0
2, 15772, Note_on_c, 0, 76, 64
2, 15785, Note_on_c, 0, 76, 0
2, 15786, Note_on_c, 0, 77, 64
2, 15799, Note_on_c, 0, 77, 0
2, 15800, Note_on_c, 0, 76, 64
2, 15813, Note_on_c, 0, 76, 0
2, 15814, Note_on_c, 0, 74, 64
2, 15826, Note_on_c, 0, 74, 0
2, 15827, Note_on_c, 0, 76, 64
2, 15839, Note_on_c, 0, 76, 0
2, 15840, Note_on_c, 0, 77, 64
2, 16017, Note_on_c, 0, 77, 0
2, 16224, Note_on_c, 0, 77, 64
2, 16224, Note_on_c, 0, 74, 64
2, 16313, Note_on_c, 0, 77, 0
2, 16313, Note_on_c, 0, 74, 0
2, 16320, Note_on_c, 0, 82, 64
2, 16350, Note_on_c, 0, 82, 0
2, 16352, Note_on_c, 0, 81, 64
2, 16382, Note_on_c, 0, 81, 0
2, 16384, Note_on_c, 0, 79, 64
2, 16414, Note_on_c, 0, 79, 0
2, 16416, Note_on_c, 0, 77, 64
2, 16505, Note_on_c, 0, 77, 0
2, 16512, Note_on_c, 0, 74, 64
2, 16542, Note_on_c, 0, 74, 0
2, 16544, Note_on_c, 0, 75, 64
2, 16574, Note_on_c, 0, 75, 0
2, 16576, Note_on_c, 0, 77, 64
2, 16606, Note_on_c, 0, 77, 0
2, 16608, Note_on_c, 0, 75, 64
2, 16638, Note_on_c, 0, 75, 0
2, 16640, Note_on_c, 0, 77, 64
2, 16670, Note_on_c, 0, 77, 0
2, 16672, Note_on_c, 0, 79, 64
2, 16702, Note_on_c, 0, 79, 0
2, 16704, Note_on_c, 0, 77, 64
2, 16793, Note_on_c, 0, 77, 0
2, 16800, Note_on_c, 0, 70, 64
2, 16889, Note_on_c, 0, 70, 0
2, 16896, Note_on_c, 0, 70, 64
2, 16985, Note_on_c, 0, 70, 0
2, 16992, Note_on_c, 0, 69, 64
2, 17022, Note_on_c, 0, 69, 0
2, 17024, Note_on_c, 0, 70, 64
2, 17054, Note_on_c, 0, 70, 0
2, 17056, Note_on_c, 0, 72, 64
2, 17086, Note_on_c, 0, 72, 0
2, 17088, Note_on_c, 0, 70, 64
2, 17177, Note_on_c, 0, 70, 0
2, 17280, Note_on_c, 0, 72, 64
2, 17369, Note_on_c, 0, 72, 0
2, 17376, Note_on_c, 0, 81, 64
2, 17465, Note_on_c, 0, 81, 0
2, 17472, Note_on_c, 0, 69, 64
2, 17561, Note_on_c, 0, 69, 0
2, 17568, Note_on_c, 0, 70, 64
2, 17657, Note_on_c, 0, 70, 0
2, 17664, Note_on_c, 0, 79, 64
2, 17753, Note_on_c, 0, 79, 0
2, 17760, Note_on_c, 0, 70, 64
2, 17849, Note_on_c, 0, 70, 0
2, 17856, Note_on_c, 0, 69, 64
2, 17886, Note_on_c, 0, 69, 0
2, 17888, Note_on_c, 0, 70, 64
2, 17918, Note_on_c, 0, 70, 0
2, 17920, Note_on_c, 0, 72, 64
2, 17950, Note_on_c, 0, 72, 0
2, 17952, Note_on_c, 0, 65, 64
2, 18048, Note_on_c, 0, 65, 0
2, 18048, Note_on_c, 0, 64, 64
2, 18137, Note_on_c, 0, 64, 0
2, 18144, Note_on_c, 0, 65, 64
2, 18321, Note_on_c, 0, 65, 0
2, 18528, Note_on_c, 0, 77, 64
2, 18528, Note_on_c, 0, 74, 64
2, 18617, Note_on_c, 0, 77, 0
2, 18617, Note_on_c, 0, 74, 0
2, 18624, Note_on_c, 0, 82, 64
2, 18654, Note_on_c, 0, 82, 0
2, 18656, Note_on_c, 0, 81, 64
2, 18686, Note_on_c, 0, 81, 0
2, 18688, Note_on_c, 0, 79, 64
2, 18718, Note_on_c, 0, 79, 0
2, 18720, Note_on_c, 0, 77, 64
2, 18809, Note_on_c, 0, 77, 0
2, 18816, Note_on_c, 0, 74, 64
2, 18846, Note_on_c, 0, 74, 0
2, 18848, Note_on_c, 0, 75, 64
2, 18878, Note_on_c, 0, 75, 0
2, 18880, Note_on_c, 0, 77, 64
2, 18910, Note_on_c, 0, 77, 0
2, 18912, Note_on_c, 0, 75, 64
2, 18942, Note_on_c, 0, 75, 0
2, 18944, Note_on_c, 0, 77, 64
2, 18974, Note_on_c, 0, 77, 0
2, 18976, Note_on_c, 0, 79, 64
2, 19006, Note_on_c, 0, 79, 0
2, 19008, Note_on_c, 0, 77, 64
2, 19097, Note_on_c, 0, 77, 0
2, 19104, Note_on_c, 0, 70, 64
2, 19193, Note_on_c, 0, 70, 0
2, 19200, Note_on_c, 0, 70, 64
2, 19289, Note_on_c, 0, 70, 0
2, 19296, Note_on_c, 0, 69, 64
2, 19326, Note_on_c, 0, 69, 0
2, 19328, Note_on_c, 0, 70, 64
2, 19358, Note_on_c, 0, 70, 0
2, 19360, Note_on_c, 0, 72, 64
2, 19390, Note_on_c, 0, 72, 0
2, 19392, Note_on_c, 0, 70, 64
2, 19481, Note_on_c, 0, 70, 0
2, 19584, Note_on_c, 0, 72, 64
2, 19673, Note_on_c, 0, 72, 0
2, 19680, Note_on_c, 0, 81, 64
2, 19769, Note_on_c, 0, 81, 0
2, 19776, Note_on_c, 0, 69, 64
2, 19865, Note_on_c, 0, 69, 0
2, 19872, Note_on_c, 0, 70, 64
2, 19961, Note_on_c, 0, 70, 0
2, 19968, Note_on_c, 0, 79, 64
2, 20057, Note_on_c, 0, 79, 0
2, 20064, Note_on_c, 0, 70, 64
2, 20153, Note_on_c, 0, 70, 0
2, 20160, Note_on_c, 0, 69, 64
2, 20190, Note_on_c, 0, 69, 0
2, 20192, Note_on_c, 0, 70, 64
2, 20222, Note_on_c, 0, 70, 0
2, 20224, Note_on_c, 0, 72, 64
2, 20254, Note_on_c, 0, 72, 0
2, 20256, Note_on_c, 0, 65, 64
2, 20352, Note_on_c, 0, 65, 0
2, 20352, Note_on_c, 0, 64, 64
2, 20441, Note_on_c, 0, 64, 0
2, 20448, Note_on_c, 0, 65, 64
2, 20625, Note_on_c, 0, 65, 0
2, 20736, Note_on_c, 0, 77, 64
2, 20766, Note_on_c, 0, 77, 0
2, 20768, Note_on_c, 0, 75, 64
2, 20798, Note_on_c, 0, 75, 0
2, 20800, Note_on_c, 0, 74, 64
2, 20830, Note_on_c, 0, 74, 0
2, 20832, Note_on_c, 0, 77, 65
2, 20862, Note_on_c, 0, 77, 0
2, 20864, Note_on_c, 0, 75, 66
2, 20894, Note_on_c, 0, 75, 0
2, 20896, Note_on_c, 0, 74, 67
2, 20926, Note_on_c, 0, 74, 0
2, 20928, Note_on_c, 0, 72, 68
2, 20958, Note_on_c, 0, 72, 0
2, 20960, Note_on_c, 0, 70, 68
2, 20990, Note_on_c, 0, 70, 0
2, 20992, Note_on_c, 0, 68, 69
2, 21022, Note_on_c, 0, 68, 0
2, 21024, Note_on_c, 0, 67, 70
2, 21054, Note_on_c, 0, 67, 0
2, 21056, Note_on_c, 0, 66, 71
2, 21086, Note_on_c, 0, 66, 0
2, 21088, Note_on_c, 0, 67, 72
2, 21118, Note_on_c, 0, 67, 0
2, 21120, Note_on_c, 0, 72, 73
2, 21150, Note_on_c, 0, 72, 0
2, 21152, Note_on_c, 0, 71, 73
2, 21182, Note_on_c, 0, 71, 0
2, 21184, Note_on_c, 0, 72, 74
2, 21214, Note_on_c, 0, 72, 0
2, 21216, Note_on_c, 0, 75, 75
2, 21246, Note_on_c, 0, 75, 0
2, 21248, Note_on_c, 0, 74, 76
2, 21278, Note_on_c, 0, 74, 0
2, 21280, Note_on_c, 0, 75, 77
2, 21310, Note_on_c, 0, 75, 0
2, 21312, Note_on_c, 0, 79, 77
2, 21342, Note_on_c, 0, 79, 0
2, 21344, Note_on_c, 0, 77, 78
2, 21374, Note_on_c, 0, 77, 0
2, 21376, Note_on_c, 0, 75, 79
2, 21406, Note_on_c, 0, 75, 0
2, 21408, Note_on_c, 0, 79, 80
2, 21438, Note_on_c, 0, 79, 0
2, 21440, Note_on_c, 0, 77, 81
2, 21470, Note_on_c, 0, 77, 0
2, 21472, Note_on_c, 0, 75, 82
2, 21502, Note_on_c, 0, 75, 0
2, 21504, Note_on_c, 0, 74, 82
2, 21534, Note_on_c, 0, 74, 0
2, 21536, Note_on_c, 0, 72, 85
2, 21566, Note_on_c, 0, 72, 0
2, 21568, Note_on_c, 0, 70, 82
2, 21598, Note_on_c, 0, 70, 0
2, 21600, Note_on_c, 0, 70, 80
2, 21696, Note_on_c, 0, 70, 0
2, 21696, Note_on_c, 0, 69, 72
2, 21785, Note_on_c, 0, 69, 0
2, 21888, Note_on_c, 0, 77, 64
2, 21977, Note_on_c, 0, 77, 0
2, 21984, Note_on_c, 0, 86, 64
2, 22073, Note_on_c, 0, 86, 0
2, 22080, Note_on_c, 0, 74, 64
2, 22169, Note_on_c, 0, 74, 0
2, 22176, Note_on_c, 0, 75, 64
2, 22265, Note_on_c, 0, 75, 0
2, 22272, Note_on_c, 0, 84, 64
2, 22361, Note_on_c, 0, 84, 0
2, 22368, Note_on_c, 0, 75, 64
2, 22457, Note_on_c, 0, 75, 0
2, 22464, Note_on_c, 0, 74, 64
2, 22494, Note_on_c, 0, 74, 0
2, 22496, Note_on_c, 0, 75, 64
2, 22526, Note_on_c, 0, 75, 0
2, 22528, Note_on_c, 0, 77, 64
2, 22558, Note_on_c, 0, 77, 0
2, 22560, Note_on_c, 0, 70, 64
2, 22649, Note_on_c, 0, 70, 0
2, 22656, Note_on_c, 0, 69, 64
2, 22669, Note_on_c, 0, 69, 0
2, 22670, Note_on_c, 0, 70, 64
2, 22683, Note_on_c, 0, 70, 0
2, 22684, Note_on_c, 0, 69, 64
2, 22697, Note_on_c, 0, 69, 0
2, 22698, Note_on_c, 0, 70, 64
2, 22711, Note_on_c, 0, 70, 0
2, 22712, Note_on_c, 0, 69, 64
2, 22725, Note_on_c, 0, 69, 0
2, 22726, Note_on_c, 0, 67, 64
2, 22738, Note_on_c, 0, 67, 0
2, 22739, Note_on_c, 0, 69, 64
2, 22751, Note_on_c, 0, 69, 0
2, 22752, Note_on_c, 0, 70, 64
2, 22929, Note_on_c, 0, 70, 0
2, 23040, Note_on_c, 0, 77, 64
2, 23070, Note_on_c, 0, 77, 0
2, 23072, Note_on_c, 0, 75, 64
2, 23102, Note_on_c, 0, 75, 0
2, 23104, Note_on_c, 0, 74, 64
2, 23134, Note_on_c, 0, 74, 0
2, 23136, Note_on_c, 0, 77, 65
2, 23166, Note_on_c, 0, 77, 0
2, 23168, Note_on_c, 0, 75, 66
2, 23198, Note_on_c, 0, 75, 0
2, 23200, Note_on_c, 0, 74, 67
2, 23230, Note_on_c, 0, 74, 0
2, 23232, Note_on_c, 0, 72, 68
2, 23262, Note_on_c, 0, 72, 0
2, 23264, Note_on_c, 0, 70, 68
2, 23294, Note_on_c, 0, 70, 0
2, 23296, Note_on_c, 0, 68, 69
2, 23326, Note_on_c, 0, 68, 0
2, 23328, Note_on_c, 0, 67, 70
2, 23358, Note_on_c, 0, 67, 0
2, 23360, Note_on_c, 0, 66, 71
2, 23390, Note_on_c, 0, 66, 0
2, 23392, Note_on_c, 0, 67, 72
2, 23422, Note_on_c, 0, 67, 0
2, 23424, Note_on_c, 0, 72, 73
2, 23454, Note_on_c, 0, 72, 0
2, 23456, Note_on_c, 0, 71, 73
2, 23486, Note_on_c, 0, 71, 0
2, 23488, Note_on_c, 0, 72, 74
2, 23518, Note_on_c, 0, 72, 0
2, 23520, Note_on_c, 0, 75, 75
2, 23550, Note_on_c, 0, 75, 0
2, 23552, Note_on_c, 0, 74, 76
2, 23582, Note_on_c, 0, 74, 0
2, 23584, Note_on_c, 0, 75, 77
2, 23614, Note_on_c, 0, 75, 0
2, 23616, Note_on_c, 0, 79, 77
2, 23646, Note_on_c, 0, 79, 0
2, 23648, Note_on_c, 0, 77, 78
2, 23678, Note_on_c, 0, 77, 0
2, 23680, Note_on_c, 0, 75, 79
2, 23710, Note_on_c, 0, 75, 0
2, 23712, Note_on_c, 0, 79, 80
2, 23742, Note_on_c, 0, 79, 0
2, 23744, Note_on_c, 0, 77, 81
2, 23774, Note_on_c, 0, 77, 0
2, 23776, Note_on_c, 0, 75, 82
2, 23806, Note_on_c, 0, 75, 0
2, 23808, Note_on_c, 0, 74, 82
2, 23838, Note_on_c, 0, 74, 0
2, 23840, Note_on_c, 0, 72, 85
2, 23870, Note_on_c, 0, 72, 0
2, 23872, Note_on_c, 0, 70, 82
2, 23902, Note_on_c, 0, 70, 0
2, 23904, Note_on_c, 0, 70, 80
2, 24000, Note_on_c, 0, 70, 0
2, 24000, Note_on_c, 0, 69, 72
2, 24089, Note_on_c, 0, 69, 0
2, 24192, Note_on_c, 0, 77, 64
2, 24281, Note_on_c, 0, 77, 0
2, 24288, Note_on_c, 0, 86, 64
2, 24377, Note_on_c, 0, 86, 0
2, 24384, Note_on_c, 0, 74, 64
2, 24473, Note_on_c, 0, 74, 0
2, 24480, Note_on_c, 0, 75, 64
2, 24569, Note_on_c, 0, 75, 0
2, 24576, Note_on_c, 0, 84, 64
2, 24665, Note_on_c, 0, 84, 0
2, 24672, Note_on_c, 0, 75, 64
2, 24761, Note_on_c, 0, 75, 0
2, 24768, Note_on_c, 0, 74, 64
2, 24798, Note_on_c, 0, 74, 0
2, 24800, Note_on_c, 0, 75, 64
2, 24830, Note_on_c, 0, 75, 0
2, 24832, Note_on_c, 0, 77, 64
2, 24862, Note_on_c, 0, 77, 0
2, 24864, Note_on_c, 0, 70, 64
2, 24953, Note_on_c, 0, 70, 0
2, 24960, Note_on_c, 0, 69, 64
2, 24973, Note_on_c, 0, 69, 0
2, 24974, Note_on_c, 0, 70, 64
2, 24987, Note_on_c, 0, 70, 0
2, 24988, Note_on_c, 0, 69, 64
2, 25001, Note_on_c, 0, 69, 0
2, 25002, Note_on_c, 0, 70, 64
2, 25015, Note_on_c, 0, 70, 0
2, 25016, Note_on_c, 0, 69, 64
2, 25029, Note_on_c, 0, 69, 0
2, 25030, Note_on_c, 0, 67, 64
2, 25042, Note_on_c, 0, 67, 0
2, 25043, Note_on_c, 0, 69, 64
2, 25055, Note_on_c, 0, 69, 0
2, 25056, Note_on_c, 0, 70, 64
2, 25233, Note_on_c, 0, 70, 0
2, 25344, Note_on_c, 0, 79, 64
2, 25357, Note_on_c, 0, 79, 0
2, 25358, Note_on_c, 0, 77, 64
2, 25371, Note_on_c, 0, 77, 0
2, 25372, Note_on_c, 0, 79, 64
2, 25385, Note_on_c, 0, 79, 0
2, 25386, Note_on_c, 0, 77, 64
2, 25399, Note_on_c, 0, 77, 0
2, 25400, Note_on_c, 0, 79, 64
2, 25413, Note_on_c, 0, 79, 0
2, 25414, Note_on_c, 0, 77, 64
2, 25427, Note_on_c, 0, 77, 0
2, 25428, Note_on_c, 0, 79, 64
2, 25441, Note_on_c, 0, 79, 0
2, 25442, Note_on_c, 0, 77, 64
2, 25455, Note_on_c, 0, 77, 0
2, 25456, Note_on_c, 0, 79, 64
2, 25469, Note_on_c, 0, 79, 0
2, 25470, Note_on_c, 0, 77, 64
2, 25483, Note_on_c, 0, 77, 0
2, 25484, Note_on_c, 0, 76, 64
2, 25509, Note_on_c, 0, 76, 0
2, 25510, Note_on_c, 0, 77, 64
2, 25535, Note_on_c, 0, 77, 0
2, 25536, Note_on_c, 0, 82, 64
2, 25566, Note_on_c, 0, 82, 0
2, 25568, Note_on_c, 0, 79, 64
2, 25598, Note_on_c, 0, 79, 0
2, 25600, Note_on_c, 0, 76, 64
2, 25630, Note_on_c, 0, 76, 0
2, 25632, Note_on_c, 0, 77, 64
2, 25677, Note_on_c, 0, 77, 0
2, 25680, Note_on_c, 0, 81, 64
2, 25725, Note_on_c, 0, 81, 0
2, 25728, Note_on_c, 0, 72, 64
2, 25817, Note_on_c, 0, 72, 0
2, 25824, Note_on_c, 0, 70, 64
2, 25837, Note_on_c, 0, 70, 0
2, 25838, Note_on_c, 0, 72, 64
2, 25851, Note_on_c, 0, 72, 0
2, 25852, Note_on_c, 0, 70, 64
2, 25865, Note_on_c, 0, 70, 0
2, 25866, Note_on_c, 0, 72, 64
2, 25879, Note_on_c, 0, 72, 0
2, 25880, Note_on_c, 0, 70, 64
2, 25893, Note_on_c, 0, 70, 0
2, 25894, Note_on_c, 0, 69, 64
2, 25906, Note_on_c, 0, 69, 0
2, 25907, Note_on_c, 0, 70, 64
2, 25919, Note_on_c, 0, 70, 0
2, 25920, Note_on_c, 0, 69, 64
2, 25965, Note_on_c, 0, 69, 0
2, 25968, Note_on_c, 0, 72, 64
2, 26013, Note_on_c, 0, 72, 0
2, 26016, Note_on_c, 0, 77, 64
2, 26046, Note_on_c, 0, 77, 0
2, 26048, Note_on_c, 0, 76, 64
2, 26078, Note_on_c, 0, 76, 0
2, 26080, Note_on_c, 0, 74, 64
2, 26110, Note_on_c, 0, 74, 0
2, 26112, Note_on_c, 0, 72, 64
2, 26142, Note_on_c, 0, 72, 0
2, 26144, Note_on_c, 0, 70, 64
2, 26174, Note_on_c, 0, 70, 0
2, 26176, Note_on_c, 0, 69, 64
2, 26206, Note_on_c, 0, 69, 0
2, 26208, Note_on_c, 0, 67, 64
2, 26341, Note_on_c, 0, 67, 0
2, 26352, Note_on_c, 0, 69, 64
2, 26375, Note_on_c, 0, 69, 0
2, 26376, Note_on_c, 0, 70, 64
2, 26399, Note_on_c, 0, 70, 0
2, 26400, Note_on_c, 0, 69, 64
2, 26489, Note_on_c, 0, 69, 0
2, 26496, Note_on_c, 0, 79, 64
2, 26509, Note_on_c, 0, 79, 0
2, 26510, Note_on_c, 0, 77, 64
2, 26523, Note_on_c, 0, 77, 0
2, 26524, Note_on_c, 0, 79, 64
2, 26537, Note_on_c, 0, 79, 0
2, 26538, Note_on_c, 0, 77, 64
2, 26551, Note_on_c, 0, 77, 0
2, 26552, Note_on_c, 0, 79, 64
2, 26565, Note_on_c, 0, 79, 0
2, 26566, Note_on_c, 0, 77, 64
2, 26579, Note_on_c, 0, 77, 0
2, 26580, Note_on_c, 0, 79, 64
2, 26593, Note_on_c, 0, 79, 0
2, 26594, Note_on_c, 0, 77, 64
2, 26607, Note_on_c, 0, 77, 0
2, 26608, Note_on_c, 0, 79, 64
2, 26621, Note_on_c, 0, 79, 0
2, 26622, Note_on_c, 0, 77, 64
2, 26635, Note_on_c, 0, 77, 0
2, 26636, Note_on_c, 0, 76, 64
2, 26661, Note_on_c, 0, 76, 0
2, 26662, Note_on_c, 0, 77, 64
2, 26687, Note_on_c, 0, 77, 0
2, 26688, Note_on_c, 0, 82, 64
2, 26718, Note_on_c, 0, 82, 0
2, 26720, Note_on_c, 0, 79, 64
2, 26750, Note_on_c, 0, 79, 0
2, 26752, Note_on_c, 0, 76, 64
2, 26782, Note_on_c, 0, 76, 0
2, 26784, Note_on_c, 0, 77, 64
2, 26829, Note_on_c, 0, 77, 0
2, 26832, Note_on_c, 0, 81, 64
2, 26877, Note_on_c, 0, 81, 0
2, 26880, Note_on_c, 0, 72, 64
2, 26969, Note_on_c, 0, 72, 0
2, 26976, Note_on_c, 0, 81, 64
2, 27006, Note_on_c, 0, 81, 0
2, 27008, Note_on_c, 0, 83, 64
2, 27038, Note_on_c, 0, 83, 0
2, 27040, Note_on_c, 0, 84, 64
2, 27070, Note_on_c, 0, 84, 0
2, 27072, Note_on_c, 0, 84, 64
2, 27102, Note_on_c, 0, 84, 0
2, 27104, Note_on_c, 0, 83, 64
2, 27134, Note_on_c, 0, 83, 0
2, 27136, Note_on_c, 0, 81, 64
2, 27166, Note_on_c, 0, 81, 0
2, 27168, Note_on_c, 0, 79, 64
2, 27257, Note_on_c, 0, 79, 0
2, 27264, Note_on_c, 0, 81, 64
2, 27294, Note_on_c, 0, 81, 0
2, 27296, Note_on_c, 0, 83, 64
2, 27326, Note_on_c, 0, 83, 0
2, 27328, Note_on_c, 0, 84, 64
2, 27358, Note_on_c, 0, 84, 0
2, 27360, Note_on_c, 0, 84, 64
2, 27390, Note_on_c, 0, 84, 0
2, 27392, Note_on_c, 0, 83, 64
2, 27422, Note_on_c, 0, 83, 0
2, 27424, Note_on_c, 0, 81, 64
2, 27454, Note_on_c, 0, 81, 0
2, 27456, Note_on_c, 0, 79, 64
2, 27486, Note_on_c, 0, 79, 0
2, 27488, Note_on_c, 0, 77, 64
2, 27518, Note_on_c, 0, 77, 0
2, 27520, Note_on_c, 0, 76, 64
2, 27550, Note_on_c, 0, 76, 0
2, 27552, Note_on_c, 0, 77, 64
2, 27582, Note_on_c, 0, 77, 0
2, 27584, Note_on_c, 0, 76, 64
2, 27614, Note_on_c, 0, 76, 0
2, 27616, Note_on_c, 0, 74, 64
2, 27646, Note_on_c, 0, 74, 0
2, 27648, Note_on_c, 0, 76, 64
2, 27678, Note_on_c, 0, 76, 0
2, 27680, Note_on_c, 0, 77, 64
2, 27710, Note_on_c, 0, 77, 0
2, 27712, Note_on_c, 0, 79, 64
2, 27742, Note_on_c, 0, 79, 0
2, 27744, Note_on_c, 0, 72, 64
2, 27833, Note_on_c, 0, 72, 0
2, 27840, Note_on_c, 0, 71, 64
2, 27853, Note_on_c, 0, 71, 0
2, 27854, Note_on_c, 0, 72, 64
2, 27867, Note_on_c, 0, 72, 0
2, 27868, Note_on_c, 0, 71, 64
2, 27881, Note_on_c, 0, 71, 0
2, 27882, Note_on_c, 0, 72, 64
2, 27895, Note_on_c, 0, 72, 0
2, 27896, Note_on_c, 0, 71, 64
2, 27909, Note_on_c, 0, 71, 0
2, 27910, Note_on_c, 0, 69, 64
2, 27922, Note_on_c, 0, 69, 0
2, 27923, Note_on_c, 0, 71, 64
2, 27935, Note_on_c, 0, 71, 0
2, 27936, Note_on_c, 0, 72, 64
2, 28113, Note_on_c, 0, 72, 0
2, 28224, Note_on_c, 0, 79, 64
2, 28237, Note_on_c, 0, 79, 0
2, 28238, Note_on_c, 0, 77, 64
2, 28251, Note_on_c, 0, 77, 0
2, 28252, Note_on_c, 0, 79, 64
2, 28265, Note_on_c, 0, 79, 0
2, 28266, Note_on_c, 0, 77, 64
2, 28279, Note_on_c, 0, 77, 0
2, 28280, Note_on_c, 0, 79, 64
2, 28293, Note_on_c, 0, 79, 0
2, 28294, Note_on_c, 0, 77, 64
2, 28307, Note_on_c, 0, 77, 0
2, 28308, Note_on_c, 0, 79, 64
2, 28321, Note_on_c, 0, 79, 0
2, 28322, Note_on_c, 0, 77, 64
2, 28335, Note_on_c, 0, 77, 0
2, 28336, Note_on_c, 0, 79, 64
2, 28349, Note_on_c, 0, 79, 0
2, 28350, Note_on_c, 0, 77, 64
2, 28363, Note_on_c, 0, 77, 0
2, 28364, Note_on_c, 0, 76, 64
2, 28389, Note_on_c, 0, 76, 0
2, 28390, Note_on_c, 0, 77, 64
2, 28415, Note_on_c, 0, 77, 0
2, 28416, Note_on_c, 0, 82, 64
2, 28446, Note_on_c, 0, 82, 0
2, 28448, Note_on_c, 0, 79, 64
2, 28478, Note_on_c, 0, 79, 0
2, 28480, Note_on_c, 0, 76, 64
2, 28510, Note_on_c, 0, 76, 0
2, 28512, Note_on_c, 0, 77, 64
2, 28557, Note_on_c, 0, 77, 0
2, 28560, Note_on_c, 0, 81, 64
2, 28605, Note_on_c, 0, 81, 0
2, 28608, Note_on_c, 0, 72, 64
2, 28697, Note_on_c, 0, 72, 0
2, 28704, Note_on_c, 0, 70, 64
2, 28717, Note_on_c, 0, 70, 0
2, 28718, Note_on_c, 0, 72, 64
2, 28731, Note_on_c, 0, 72, 0
2, 28732, Note_on_c, 0, 70, 64
2, 28745, Note_on_c, 0, 70, 0
2, 28746, Note_on_c, 0, 72, 64
2, 28759, Note_on_c, 0, 72, 0
2, 28760, Note_on_c, 0, 70, 64
2, 28773, Note_on_c, 0, 70, 0
2, 28774, Note_on_c, 0, 69, 64
2, 28786, Note_on_c, 0, 69, 0
2, 28787, Note_on_c, 0, 70, 64
2, 28799, Note_on_c, 0, 70, 0
2, 28800, Note_on_c, 0, 69, 64
2, 28845, Note_on_c, 0, 69, 0
2, 28848, Note_on_c, 0, 72, 64
2, 28893, Note_on_c, 0, 72, 0
2, 28896, Note_on_c, 0, 77, 64
2, 28926, Note_on_c, 0, 77, 0
2, 28928, Note_on_c, 0, 76, 64
2, 28958, Note_on_c, 0, 76, 0
2, 28960, Note_on_c, 0, 74, 64
2, 28990, Note_on_c, 0, 74, 0
2, 28992, Note_on_c, 0, 72, 64
2, 29022, Note_on_c, 0, 72, 0
2, 29024, Note_on_c, 0, 70, 64
2, 29054, Note_on_c, 0, 70, 0
2, 29056, Note_on_c, 0, 69, 64
2, 29086, Note_on_c, 0, 69, 0
2, 29088, Note_on_c, 0, 67, 64
2, 29221, Note_on_c, 0, 67, 0
2, 29232, Note_on_c, 0, 69, 64
2, 29255, Note_on_c, 0, 69, 0
2, 29256, Note_on_c, 0, 70, 64
2, 29279, Note_on_c, 0, 70, 0
2, 29280, Note_on_c, 0, 69, 64
2, 29369, Note_on_c, 0, 69, 0
2, 29376, Note_on_c, 0, 79, 64
2, 29389, Note_on_c, 0, 79, 0
2, 29390, Note_on_c, 0, 77, 64
2, 29403, Note_on_c, 0, 77, 0
2, 29404, Note_on_c, 0, 79, 64
2, 29417, Note_on_c, 0, 79, 0
2, 29418, Note_on_c, 0, 77, 64
2, 29431, Note_on_c, 0, 77, 0
2, 29432, Note_on_c, 0, 79, 64
2, 29445, Note_on_c, 0, 79, 0
2, 29446, Note_on_c, 0, 77, 64
2, 29459, Note_on_c, 0, 77, 0
2, 29460, Note_on_c, 0, 79, 64
2, 29473, Note_on_c, 0, 79, 0
2, 29474, Note_on_c, 0, 77, 64
2, 29487, Note_on_c, 0, 77, 0
2, 29488, Note_on_c, 0, 79, 64
2, 29501, Note_on_c, 0, 79, 0
2, 29502, Note_on_c, 0, 77, 64
2, 29515, Note_on_c, 0, 77, 0
2, 29516, Note_on_c, 0, 76, 64
2, 29541, Note_on_c, 0, 76, 0
2, 29542, Note_on_c, 0, 77, 64
2, 29567, Note_on_c, 0, 77, 0
2, 29568, Note_on_c, 0, 82, 64
2, 29598, Note_on_c, 0, 82, 0
2, 29600, Note_on_c, 0, 79, 64
2, 29630, Note_on_c, 0, 79, 0
2, 29632, Note_on_c, 0, 76, 64
2, 29662, Note_on_c, 0, 76, 0
2, 29664, Note_on_c, 0, 77, 64
2, 29709, Note_on_c, 0, 77, 0
2, 29712, Note_on_c, 0, 81, 64
2, 29757, Note_on_c, 0, 81, 0
2, 29760, Note_on_c, 0, 72, 64
2, 29849, Note_on_c, 0, 72, 0
2, 29856, Note_on_c, 0, 81, 64
2, 29886, Note_on_c, 0, 81, 0
2, 29888, Note_on_c, 0, 83, 64
2, 29918, Note_on_c, 0, 83, 0
2, 29920, Note_on_c, 0, 84, 64
2, 29950, Note_on_c, 0, 84, 0
2, 29952, Note_on_c, 0, 84, 64
2, 29982, Note_on_c, 0, 84, 0
2, 29984, Note_on_c, 0, 83, 64
2, 30014, Note_on_c, 0, 83, 0
2, 30016, Note_on_c, 0, 81, 64
2, 30046, Note_on_c, 0, 81, 0
2, 30048, Note_on_c, 0, 79, 64
2, 30137, Note_on_c, 0, 79, 0
2, 30144, Note_on_c, 0, 81, 64
2, 30174, Note_on_c, 0, 81, 0
2, 30176, Note_on_c, 0, 83, 64
2, 30206, Note_on_c, 0, 83, 0
2, 30208, Note_on_c, 0, 84, 64
2, 30238, Note_on_c, 0, 84, 0
2, 30240, Note_on_c, 0, 84, 64
2, 30270, Note_on_c, 0, 84, 0
2, 30272, Note_on_c, 0, 83, 64
2, 30302, Note_on_c, 0, 83, 0
2, 30304, Note_on_c, 0, 81, 64
2, 30334, Note_on_c, 0, 81, 0
2, 30336, Note_on_c, 0, 79, 64
2, 30366, Note_on_c, 0, 79, 0
2, 30368, Note_on_c, 0, 77, 64
2, 30398, Note_on_c, 0, 77, 0
2, 30400, Note_on_c, 0, 76, 64
2, 30430, Note_on_c, 0, 76, 0
2, 30432, Note_on_c, 0, 77, 64
2, 30462, Note_on_c, 0, 77, 0
2, 30464, Note_on_c, 0, 76, 64
2, 30494, Note_on_c, 0, 76, 0
2, 30496, Note_on_c, 0, 74, 64
2, 30526, Note_on_c, 0, 74, 0
2, 30528, Note_on_c, 0, 76, 64
2, 30558, Note_on_c, 0, 76, 0
2, 30560, Note_on_c, 0, 77, 64
2, 30590, Note_on_c, 0, 77, 0
2, 30592, Note_on_c, 0, 79, 64
2, 30622, Note_on_c, 0, 79, 0
2, 30624, Note_on_c, 0, 72, 64
2, 30713, Note_on_c, 0, 72, 0
2, 30720, Note_on_c, 0, 71, 64
2, 30733, Note_on_c, 0, 71, 0
2, 30734, Note_on_c, 0, 72, 64
2, 30747, Note_on_c, 0, 72, 0
2, 30748, Note_on_c, 0, 71, 64
2, 30761, Note_on_c, 0, 71, 0
2, 30762, Note_on_c, 0, 72, 64
2, 30775, Note_on_c, 0, 72, 0
2, 30776, Note_on_c, 0, 71, 64
2, 30789, Note_on_c, 0, 71, 0
2, 30790, Note_on_c, 0, 69, 64
2, 30802, Note_on_c, 0, 69, 0
2, 30803, Note_on_c, 0, 71, 64
2, 30815, Note_on_c, 0, 71, 0
2, 30816, Note_on_c, 0, 72, 64
2, 30993, Note_on_c, 0, 72, 0
2, 31104, Note_on_c, 0, 72, 64
2, 31281, Note_on_c, 0, 72, 0
2, 31296, Note_on_c, 0, 79, 64
2, 31326, Note_on_c, 0, 79, 0
2, 31328, Note_on_c, 0, 76, 64
2, 31358, Note_on_c, 0, 76, 0
2, 31360, Note_on_c, 0, 72, 64
2, 31390, Note_on_c, 0, 72, 0
2, 31392, Note_on_c, 0, 81, 64
2, 31422, Note_on_c, 0, 81, 0
2, 31424, Note_on_c, 0, 77, 64
2, 31454, Note_on_c, 0, 77, 0
2, 31456, Note_on_c, 0, 72, 64
2, 31486, Note_on_c, 0, 72, 0
2, 31488, Note_on_c, 0, 82, 64
2, 31518, Note_on_c, 0, 82, 0
2, 31520, Note_on_c, 0, 81, 64
2, 31550, Note_on_c, 0, 81, 0
2, 31552, Note_on_c, 0, 79, 64
2, 31582, Note_on_c, 0, 79, 0
2, 31584, Note_on_c, 0, 81, 64
2, 31673, Note_on_c, 0, 81, 0
2, 31680, Note_on_c, 0, 79, 64
2, 31710, Note_on_c, 0, 79, 0
2, 31712, Note_on_c, 0, 82, 64
2, 31742, Note_on_c, 0, 82, 0
2, 31744, Note_on_c, 0, 81, 64
2, 31774, Note_on_c, 0, 81, 0
2, 31776, Note_on_c, 0, 79, 64
2, 31806, Note_on_c, 0, 79, 0
2, 31808, Note_on_c, 0, 86, 64
2, 31838, Note_on_c, 0, 86, 0
2, 31840, Note_on_c, 0, 84, 64
2, 31870, Note_on_c, 0, 84, 0
2, 31872, Note_on_c, 0, 82, 64
2, 31902, Note_on_c, 0, 82, 0
2, 31904, Note_on_c, 0, 81, 64
2, 31934, Note_on_c, 0, 81, 0
2, 31936, Note_on_c, 0, 79, 64
2, 31966, Note_on_c, 0, 79, 0
2, 31968, Note_on_c, 0, 77, 64
2, 32064, Note_on_c, 0, 77, 0
2, 32064, Note_on_c, 0, 76, 64
2, 32153, Note_on_c, 0, 76, 0
2, 32304, Note_on_c, 0, 72, 64
2, 32393, Note_on_c, 0, 72, 0
2, 32400, Note_on_c, 0, 80, 64
2, 32489, Note_on_c, 0, 80, 0
2, 32496, Note_on_c, 0, 72, 64
2, 32589, Note_on_c, 0, 72, 0
2, 32592, Note_on_c, 0, 70, 64
2, 32637, Note_on_c, 0, 70, 0
2, 32640, Note_on_c, 0, 79, 64
2, 32685, Note_on_c, 0, 79, 0
2, 32688, Note_on_c, 0, 70, 64
2, 32777, Note_on_c, 0, 70, 0
2, 32784, Note_on_c, 0, 68, 64
2, 32877, Note_on_c, 0, 68, 0
2, 32880, Note_on_c, 0, 67, 64
2, 32925, Note_on_c, 0, 67, 0
2, 32928, Note_on_c, 0, 73, 64
2, 32973, Note_on_c, 0, 73, 0
2, 32976, Note_on_c, 0, 70, 64
2, 33021, Note_on_c, 0, 70, 0
2, 33024, Note_on_c, 0, 67, 64
2, 33069, Note_on_c, 0, 67, 0
2, 33072, Note_on_c, 0, 65, 64
2, 33117, Note_on_c, 0, 65, 0
2, 33120, Note_on_c, 0, 65, 64
2, 33216, Note_on_c, 0, 65, 0
2, 33216, Note_on_c, 0, 64, 64
2, 33305, Note_on_c, 0, 64, 0
2, 33408, Note_on_c, 0, 79, 64
2, 33421, Note_on_c, 0, 79, 0
2, 33422, Note_on_c, 0, 77, 64
2, 33435, Note_on_c, 0, 77, 0
2, 33436, Note_on_c, 0, 79, 64
2, 33449, Note_on_c, 0, 79, 0
2, 33450, Note_on_c, 0, 77, 64
2, 33463, Note_on_c, 0, 77, 0
2, 33464, Note_on_c, 0, 79, 64
2, 33477, Note_on_c, 0, 79, 0
2, 33478, Note_on_c, 0, 77, 64
2, 33491, Note_on_c, 0, 77, 0
2, 33492, Note_on_c, 0, 79, 64
2, 33505, Note_on_c, 0, 79, 0
2, 33506, Note_on_c, 0, 77, 64
2, 33519, Note_on_c, 0, 77, 0
2, 33520, Note_on_c, 0, 79, 64
2, 33533, Note_on_c, 0, 79, 0
2, 33534, Note_on_c, 0, 77, 64
2, 33547, Note_on_c, 0, 77, 0
2, 33548, Note_on_c, 0, 76, 64
2, 33573, Note_on_c, 0, 76, 0
2, 33574, Note_on_c, 0, 77, 64
2, 33599, Note_on_c, 0, 77, 0
2, 33600, Note_on_c, 0, 82, 64
2, 33630, Note_on_c, 0, 82, 0
2, 33632, Note_on_c, 0, 79, 64
2, 33662, Note_on_c, 0, 79, 0
2, 33664, Note_on_c, 0, 76, 64
2, 33694, Note_on_c, 0, 76, 0
2, 33696, Note_on_c, 0, 77, 64
2, 33741, Note_on_c, 0, 77, 0
2, 33744, Note_on_c, 0, 81, 64
2, 33789, Note_on_c, 0, 81, 0
2, 33792, Note_on_c, 0, 72, 64
2, 33881, Note_on_c, 0, 72, 0
2, 33888, Note_on_c, 0, 70, 64
2, 33901, Note_on_c, 0, 70, 0
2, 33902, Note_on_c, 0, 72, 64
2, 33915, Note_on_c, 0, 72, 0
2, 33916, Note_on_c, 0, 70, 64
2, 33929, Note_on_c, 0, 70, 0
2, 33930, Note_on_c, 0, 72, 64
2, 33943, Note_on_c, 0, 72, 0
2, 33944, Note_on_c, 0, 70, 64
2, 33957, Note_on_c, 0, 70, 0
2, 33958, Note_on_c, 0, 69, 64
2, 33970, Note_on_c, 0, 69, 0
2, 33971, Note_on_c, 0, 70, 64
2, 33983, Note_on_c, 0, 70, 0
2, 33984, Note_on_c, 0, 69, 64
2, 34029, Note_on_c, 0, 69, 0
2, 34032, Note_on_c, 0, 72, 64
2, 34077, Note_on_c, 0, 72, 0
2, 34080, Note_on_c, 0, 77, 64
2, 34110, Note_on_c, 0, 77, 0
2, 34112, Note_on_c, 0, 76, 64
2, 34142, Note_on_c, 0, 76, 0
2, 34144, Note_on_c, 0, 74, 64
2, 34174, Note_on_c, 0, 74, 0
2, 34176, Note_on_c, 0, 72, 64
2, 34206, Note_on_c, 0, 72, 0
2, 34208, Note_on_c, 0, 70, 64
2, 34238, Note_on_c, 0, 70, 0
2, 34240, Note_on_c, 0, 69, 64
2, 34270, Note_on_c, 0, 69, 0
2, 34272, Note_on_c, 0, 67, 64
2, 34405, Note_on_c, 0, 67, 0
2, 34416, Note_on_c, 0, 69, 64
2, 34439, Note_on_c, 0, 69, 0
2, 34440, Note_on_c, 0, 70, 64
2, 34463, Note_on_c, 0, 70, 0
2, 34464, Note_on_c, 0, 69, 64
2, 34553, Note_on_c, 0, 69, 0
2, 34560, Note_on_c, 0, 79, 64
2, 34573, Note_on_c, 0, 79, 0
2, 34574, Note_on_c, 0, 77, 64
2, 34587, Note_on_c, 0, 77, 0
2, 34588, Note_on_c, 0, 79, 64
2, 34601, Note_on_c, 0, 79, 0
2, 34602, Note_on_c, 0, 77, 64
2, 34615, Note_on_c, 0, 77, 0
2, 34616, Note_on_c, 0, 79, 64
2, 34629, Note_on_c, 0, 79, 0
2, 34630, Note_on_c, 0, 77, 64
2, 34643, Note_on_c, 0, 77, 0
2, 34644, Note_on_c, 0, 79, 64
2, 34657, Note_on_c, 0, 79, 0
2, 34658, Note_on_c, 0, 77, 64
2, 34671, Note_on_c, 0, 77, 0
2, 34672, Note_on_c, 0, 79, 64
2, 34685, Note_on_c, 0, 79, 0
2, 34686, Note_on_c, 0, 77, 64
2, 34699, Note_on_c, 0, 77, 0
2, 34700, Note_on_c, 0, 76, 64
2, 34725, Note_on_c, 0, 76, 0
2, 34726, Note_on_c, 0, 77, 64
2, 34751, Note_on_c, 0, 77, 0
2, 34752, Note_on_c, 0, 82, 64
2, 34782, Note_on_c, 0, 82, 0
2, 34784, Note_on_c, 0, 79, 64
2, 34814, Note_on_c, 0, 79, 0
2, 34816, Note_on_c, 0, 76, 64
2, 34846, Note_on_c, 0, 76, 0
2, 34848, Note_on_c, 0, 77, 64
2, 34893, Note_on_c, 0, 77, 0
2, 34896, Note_on_c, 0, 81, 64
2, 34941, Note_on_c, 0, 81, 0
2, 34944, Note_on_c, 0, 72, 64
2, 35033, Note_on_c, 0, 72, 0
2, 35040, Note_on_c, 0, 74, 64
2, 35070, Note_on_c, 0, 74, 0
2, 35072, Note_on_c, 0, 76, 64
2, 35102, Note_on_c, 0, 76, 0
2, 35104, Note_on_c, 0, 77, 64
2, 35134, Note_on_c, 0, 77, 0
2, 35136, Note_on_c, 0, 77, 64
2, 35166, Note_on_c, 0, 77, 0
2, 35168, Note_on_c, 0, 76, 64
2, 35198, Note_on_c, 0, 76, 0
2, 35200, Note_on_c, 0, 74, 64
2, 35230, Note_on_c, 0, 74, 0
2, 35232, Note_on_c, 0, 72, 64
2, 35321, Note_on_c, 0, 72, 0
2, 35328, Note_on_c, 0, 74, 64
2, 35358, Note_on_c, 0, 74, 0
2, 35360, Note_on_c, 0, 76, 64
2, 35390, Note_on_c, 0, 76, 0
2, 35392, Note_on_c, 0, 77, 64
2, 35422, Note_on_c, 0, 77, 0
2, 35424, Note_on_c, 0, 77, 64
2, 35454, Note_on_c, 0, 77, 0
2, 35456, Note_on_c, 0, 76, 64
2, 35486, Note_on_c, 0, 76, 0
2, 35488, Note_on_c, 0, 74, 64
2, 35518, Note_on_c, 0, 74, 0
2, 35520, Note_on_c, 0, 72, 64
2, 35550, Note_on_c, 0, 72, 0
2, 35552, Note_on_c, 0, 77, 64
2, 35582, Note_on_c, 0, 77, 0
2, 35584, Note_on_c, 0, 81, 64
2, 35614, Note_on_c, 0, 81, 0
2, 35616, Note_on_c, 0, 72, 64
2, 35646, Note_on_c, 0, 72, 0
2, 35648, Note_on_c, 0, 79, 64
2, 35678, Note_on_c, 0, 79, 0
2, 35680, Note_on_c, 0, 82, 64
2, 35710, Note_on_c, 0, 82, 0
2, 35712, Note_on_c, 0, 81, 64
2, 35742, Note_on_c, 0, 81, 0
2, 35744, Note_on_c, 0, 82, 64
2, 35774, Note_on_c, 0, 82, 0
2, 35776, Note_on_c, 0, 84, 64
2, 35806, Note_on_c, 0, 84, 0
2, 35808, Note_on_c, 0, 77, 64
2, 35897, Note_on_c, 0, 77, 0
2, 35904, Note_on_c, 0, 76, 64
2, 35917, Note_on_c, 0, 76, 0
2, 35918, Note_on_c, 0, 77, 64
2, 35931, Note_on_c, 0, 77, 0
2, 35932, Note_on_c, 0, 76, 64
2, 35945, Note_on_c, 0, 76, 0
2, 35946, Note_on_c, 0, 77, 64
2, 35959, Note_on_c, 0, 77, 0
2, 35960, Note_on_c, 0, 76, 64
2, 35973, Note_on_c, 0, 76, 0
2, 35974, Note_on_c, 0, 74, 64
2, 35986, Note_on_c, 0, 74, 0
2, 35987, Note_on_c, 0, 76, 64
2, 35999, Note_on_c, 0, 76, 0
2, 36000, Note_on_c, 0, 77, 64
2, 36177, Note_on_c, 0, 77, 0
2, 36288, Note_on_c, 0, 72, 64
2, 36465, Note_on_c, 0, 72, 0
2, 36480, Note_on_c, 0, 79, 64
2, 36510, Note_on_c, 0, 79, 0
2, 36512, Note_on_c, 0, 76, 64
2, 36542, Note_on_c, 0, 76, 0
2, 36544, Note_on_c, 0, 72, 64
2, 36574, Note_on_c, 0, 72, 0
2, 36576, Note_on_c, 0, 81, 64
2, 36606, Note_on_c, 0, 81, 0
2, 36608, Note_on_c, 0, 77, 64
2, 36638, Note_on_c, 0, 77, 0
2, 36640, Note_on_c, 0, 72, 64
2, 36670, Note_on_c, 0, 72, 0
2, 36672, Note_on_c, 0, 82, 64
2, 36702, Note_on_c, 0, 82, 0
2, 36704, Note_on_c, 0, 81, 64
2, 36734, Note_on_c, 0, 81, 0
2, 36736, Note_on_c, 0, 79, 64
2, 36766, Note_on_c, 0, 79, 0
2, 36768, Note_on_c, 0, 81, 64
2, 36857, Note_on_c, 0, 81, 0
2, 36864, Note_on_c, 0, 79, 64
2, 36894, Note_on_c, 0, 79, 0
2, 36896, Note_on_c, 0, 82, 64
2, 36926, Note_on_c, 0, 82, 0
2, 36928, Note_on_c, 0, 81, 64
2, 36958, Note_on_c, 0, 81, 0
2, 36960, Note_on_c, 0, 79, 64
2, 36990, Note_on_c, 0, 79, 0
2, 36992, Note_on_c, 0, 86, 64
2, 37022, Note_on_c, 0, 86, 0
2, 37024, Note_on_c, 0, 84, 64
2, 37054, Note_on_c, 0, 84, 0
2, 37056, Note_on_c, 0, 82, 64
2, 37086, Note_on_c, 0, 82, 0
2, 37088, Note_on_c, 0, 81, 64
2, 37118, Note_on_c, 0, 81, 0
2, 37120, Note_on_c, 0, 79, 64
2, 37150, Note_on_c, 0, 79, 0
2, 37152, Note_on_c, 0, 77, 64
2, 37248, Note_on_c, 0, 77, 0
2, 37248, Note_on_c, 0, 76, 64
2, 37337, Note_on_c, 0, 76, 0
2, 37488, Note_on_c, 0, 72, 64
2, 37577, Note_on_c, 0, 72, 0
2, 37584, Note_on_c, 0, 80, 64
2, 37673, Note_on_c, 0, 80, 0
2, 37680, Note_on_c, 0, 72, 64
2, 37773, Note_on_c, 0, 72, 0
2, 37776, Note_on_c, 0, 70, 64
2, 37821, Note_on_c, 0, 70, 0
2, 37824, Note_on_c, 0, 79, 64
2, 37869, Note_on_c, 0, 79, 0
2, 37872, Note_on_c, 0, 70, 64
2, 37961, Note_on_c, 0, 70, 0
2, 37968, Note_on_c, 0, 68, 64
2, 38061, Note_on_c, 0, 68, 0
2, 38064, Note_on_c, 0, 67, 64
2, 38109, Note_on_c, 0, 67, 0
2, 38112, Note_on_c, 0, 73, 64
2, 38157, Note_on_c, 0, 73, 0
2, 38160, Note_on_c, 0, 70, 64
2, 38205, Note_on_c, 0, 70, 0
2, 38208, Note_on_c, 0, 67, 64
2, 38253, Note_on_c, 0, 67, 0
2, 38256, Note_on_c, 0, 65, 64
2, 38301, Note_on_c, 0, 65, 0
2, 38304, Note_on_c, 0, 65, 64
2, 38400, Note_on_c, 0, 65, 0
2, 38400, Note_on_c, 0, 64, 64
2, 38489, Note_on_c, 0, 64, 0
2, 38592, Note_on_c, 0, 79, 64
2, 38605, Note_on_c, 0, 79, 0
2, 38606, Note_on_c, 0, 77, 64
2, 38619, Note_on_c, 0, 77, 0
2, 38620, Note_on_c, 0, 79, 64
2, 38633, Note_on_c, 0, 79, 0
2, 38634, Note_on_c, 0, 77, 64
2, 38647, Note_on_c, 0, 77, 0
2, 38648, Note_on_c, 0, 79, 64
2, 38661, Note_on_c, 0, 79, 0
2, 38662, Note_on_c, 0, 77, 64
2, 38675, Note_on_c, 0, 77, 0
2, 38676, Note_on_c, 0, 79, 64
2, 38689, Note_on_c, 0, 79, 0
2, 38690, Note_on_c, 0, 77, 64
2, 38703, Note_on_c, 0, 77, 0
2, 38704, Note_on_c, 0, 79, 64
2, 38717, Note_on_c, 0, 79, 0
2, 38718, Note_on_c, 0, 77, 64
2, 38731, Note_on_c, 0, 77, 0
2, 38732, Note_on_c, 0, 76, 64
2, 38757, Note_on_c, 0, 76, 0
2, 38758, Note_on_c, 0, 77, 64
2, 38783, Note_on_c, 0, 77, 0
2, 38784, Note_on_c, 0, 82, 64
2, 38814, Note_on_c, 0, 82, 0
2, 38816, Note_on_c, 0, 79, 64
2, 38846, Note_on_c, 0, 79, 0
2, 38848, Note_on_c, 0, 76, 64
2, 38878, Note_on_c, 0, 76, 0
2, 38880, Note_on_c, 0, 77, 64
2, 38925, Note_on_c, 0, 77, 0
2, 38928, Note_on_c, 0, 81, 64
2, 38973, Note_on_c, 0, 81, 0
2, 38976, Note_on_c, 0, 72, 64
2, 39065, Note_on_c, 0, 72, 0
2, 39072, Note_on_c, 0, 70, 64
2, 39085, Note_on_c, 0, 70, 0
2, 39086, Note_on_c, 0, 72, 64
2, 39099, Note_on_c, 0, 72, 0
2, 39100, Note_on_c, 0, 70, 64
2, 39113, Note_on_c, 0, 70, 0
2, 39114, Note_on_c, 0, 72, 64
2, 39127, Note_on_c, 0, 72, 0
2, 39128, Note_on_c, 0, 70, 64
2, 39141, Note_on_c, 0, 70, 0
2, 39142, Note_on_c, 0, 69, 64
2, 39154, Note_on_c, 0, 69, 0
2, 39155, Note_on_c, 0, 70, 64
2, 39167, Note_on_c, 0, 70, 0
2, 39168, Note_on_c, 0, 69, 64
2, 39213, Note_on_c, 0, 69, 0
2, 39216, Note_on_c, 0, 72, 64
2, 39261, Note_on_c, 0, 72, 0
2, 39264, Note_on_c, 0, 77, 64
2, 39294, Note_on_c, 0, 77, 0
2, 39296, Note_on_c, 0, 76, 64
2, 39326, Note_on_c, 0, 76, 0
2, 39328, Note_on_c, 0, 74, 64
2, 39358, Note_on_c, 0, 74, 0
2, 39360, Note_on_c, 0, 72, 64
2, 39390, Note_on_c, 0, 72, 0
2, 39392, Note_on_c, 0, 70, 64
2, 39422, Note_on_c, 0, 70, 0
2, 39424, Note_on_c, 0, 69, 64
2, 39454, Note_on_c, 0, 69, 0
2, 39456, Note_on_c, 0, 67, 64
2, 39589, Note_on_c, 0, 67, 0
2, 39600, Note_on_c, 0, 69, 64
2, 39623, Note_on_c, 0, 69, 0
2, 39624, Note_on_c, 0, 70, 64
2, 39647, Note_on_c, 0, 70, 0
2, 39648, Note_on_c, 0, 69, 64
2, 39737, Note_on_c, 0, 69, 0
2, 39744, Note_on_c, 0, 79, 64
2, 39757, Note_on_c, 0, 79, 0
2, 39758, Note_on_c, 0, 77, 64
2, 39771, Note_on_c, 0, 77, 0
2, 39772, Note_on_c, 0, 79, 64
2, 39785, Note_on_c, 0, 79, 0
2, 39786, Note_on_c, 0, 77, 64
2, 39799, Note_on_c, 0, 77, 0
2, 39800, Note_on_c, 0, 79, 64
2, 39813, Note_on_c, 0, 79, 0
2, 39814, Note_on_c, 0, 77, 64
2, 39827, Note_on_c, 0, 77, 0
2, 39828, Note_on_c, 0, 79, 64
2, 39841, Note_on_c, 0, 79, 0
2, 39842, Note_on_c, 0, 77, 64
2, 39855, Note_on_c, 0, 77, 0
2, 39856, Note_on_c, 0, 79, 64
2, 39869, Note_on_c, 0, 79, 0
2, 39870, Note_on_c, 0, 77, 64
2, 39883, Note_on_c, 0, 77, 0
2, 39884, Note_on_c, 0, 76, 64
2, 39909, Note_on_c, 0, 76, 0
2, 39910, Note_on_c, 0, 77, 64
2, 39935, Note_on_c, 0, 77, 0
2, 39936, Note_on_c, 0, 82, 64
2, 39966, Note_on_c, 0, 82, 0
2, 39968, Note_on_c, 0, 79, 64
2, 39998, Note_on_c, 0, 79, 0
2, 40000, Note_on_c, 0, 76, 64
2, 40030, Note_on_c, 0, 76, 0
2, 40032, Note_on_c, 0, 77, 64
2, 40077, Note_on_c, 0, 77, 0
2, 40080, Note_on_c, 0, 81, 64
2, 40125, Note_on_c, 0, 81, 0
2, 40128, Note_on_c, 0, 72, 64
2, 40217, Note_on_c, 0, 72, 0
2, 40224, Note_on_c, 0, 74, 64
2, 40254, Note_on_c, 0, 74, 0
2, 40256, Note_on_c, 0, 76, 64
2, 40286, Note_on_c, 0, 76, 0
2, 40288, Note_on_c, 0, 77, 64
2, 40318, Note_on_c, 0, 77, 0
2, 40320, Note_on_c, 0, 77, 64
2, 40350, Note_on_c, 0, 77, 0
2, 40352, Note_on_c, 0, 76, 64
2, 40382, Note_on_c, 0, 76, 0
2, 40384, Note_on_c, 0, 74, 64
2, 40414, Note_on_c, 0, 74, 0
2, 40416, Note_on_c, 0, 72, 64
2, 40505, Note_on_c, 0, 72, 0
2, 40512, Note_on_c, 0, 74, 64
2, 40542, Note_on_c, 0, 74, 0
2, 40544, Note_on_c, 0, 76, 64
2, 40574, Note_on_c, 0, 76, 0
2, 40576, Note_on_c, 0, 77, 64
2, 40606, Note_on_c, 0, 77, 0
2, 40608, Note_on_c, 0, 77, 64
2, 40638, Note_on_c, 0, 77, 0
2, 40640, Note_on_c, 0, 76, 64
2, 40670, Note_on_c, 0, 76, 0
2, 40672, Note_on_c, 0, 74, 64
2, 40702, Note_on_c, 0, 74, 0
2, 40704, Note_on_c, 0, 72, 64
2, 40734, Note_on_c, 0, 72, 0
2, 40736, Note_on_c, 0, 77, 64
2, 40766, Note_on_c, 0, 77, 0
2, 40768, Note_on_c, 0, 81, 64
2, 40798, Note_on_c, 0, 81, 0
2, 40800, Note_on_c, 0, 72, 64
2, 40830, Note_on_c, 0, 72, 0
2, 40832, Note_on_c, 0, 79, 64
2, 40862, Note_on_c, 0, 79, 0
2, 40864, Note_on_c, 0, 82, 64
2, 40894, Note_on_c, 0, 82, 0
2, 40896, Note_on_c, 0, 81, 64
2, 40926, Note_on_c, 0, 81, 0
2, 40928, Note_on_c, 0, 82, 64
2, 40958, Note_on_c, 0, 82, 0
2, 40960, Note_on_c, 0, 84, 64
2, 40990, Note_on_c, 0, 84, 0
2, 40992, Note_on_c, 0, 77, 64
2, 41081, Note_on_c, 0, 77, 0
2, 41088, Note_on_c, 0, 76, 64
2, 41101, Note_on_c, 0, 76, 0
2, 41102, Note_on_c, 0, 77, 64
2, 41115, Note_on_c, 0, 77, 0
2, 41116, Note_on_c, 0, 76, 64
2, 41129, Note_on_c, 0, 76, 0
2, 41130, Note_on_c, 0, 77, 64
2, 41143, Note_on_c, 0, 77, 0
2, 41144, Note_on_c, 0, 76, 64
2, 41157, Note_on_c, 0, 76, 0
2, 41158, Note_on_c, 0, 74, 64
2, 41170, Note_on_c, 0, 74, 0
2, 41171, Note_on_c, 0, 76, 64
2, 41183, Note_on_c, 0, 76, 0
2, 41184, Note_on_c, 0, 77, 64
2, 41361, Note_on_c, 0, 77, 0
2, 41760, End_track
3, 0, Start_track
3, 0, Program_c, 1, 0
3, 0, Control_c, 1, 7, 127
3, 0, Control_c, 1, 10, 64
3, 0, Note_on_c, 1, 53, 64
3, 0, Note_on_c, 1, 41, 64
3, 89, Note_on_c, 1, 53, 0
3, 89, Note_on_c, 1, 41, 0
3, 96, Note_on_c, 1, 57, 64
3, 96, Note_on_c, 1, 45, 64
3, 185, Note_on_c, 1, 57, 0
3, 185, Note_on_c, 1, 45, 0
3, 192, Note_on_c, 1, 60, 64
3, 192, Note_on_c, 1, 48, 64
3, 281, Note_on_c, 1, 60, 0
3, 281, Note_on_c, 1, 48, 0
3, 288, Note_on_c, 1, 65, 64
3, 288, Note_on_c, 1, 53, 64
3, 377, Note_on_c, 1, 65, 0
3, 377, Note_on_c, 1, 53, 0
3, 480, Note_on_c, 1, 67, 64
3, 569, Note_on_c, 1, 67, 0
3, 576, Note_on_c, 1, 65, 64
3, 665, Note_on_c, 1, 65, 0
3, 864, Note_on_c, 1, 64, 64
3, 953, Note_on_c, 1, 64, 0
3, 960, Note_on_c, 1, 60, 64
3, 1049, Note_on_c, 1, 60, 0
3, 1056, Note_on_c, 1, 65, 64
3, 1145, Note_on_c, 1, 65, 0
3, 1152, Note_on_c, 1, 53, 64
3, 1241, Note_on_c, 1, 53, 0
3, 1248, Note_on_c, 1, 57, 64
3, 1337, Note_on_c, 1, 57, 0
3, 1344, Note_on_c, 1, 60, 64
3, 1433, Note_on_c, 1, 60, 0
3, 1440, Note_on_c, 1, 65, 64
3, 1440, Note_on_c, 1, 53, 64
3, 1529, Note_on_c, 1, 65, 0
3, 1529, Note_on_c, 1, 53, 0
3, 1632, Note_on_c, 1, 65, 64
3, 1721, Note_on_c, 1, 65, 0
3, 1728, Note_on_c, 1, 64, 64
3, 1905, Note_on_c, 1, 64, 0
3, 1920, Note_on_c, 1, 65, 64
3, 2009, Note_on_c, 1, 65, 0
3, 2016, Note_on_c, 1, 64, 64
3, 2193, Note_on_c, 1, 64, 0
3, 2208, Note_on_c, 1, 59, 64
3, 2208, Note_on_c, 1, 47, 64
3, 2297, Note_on_c, 1, 59, 0
3, 2297, Note_on_c, 1, 47, 0
3, 2304, Note_on_c, 1, 60, 64
3, 2304, Note_on_c, 1, 48, 64
3, 2393, Note_on_c, 1, 60, 0
3, 2393, Note_on_c, 1, 48, 0
3, 2400, Note_on_c, 1, 64, 64
3, 2400, Note_on_c, 1, 55, 64
3, 2489, Note_on_c, 1, 64, 0
3, 2489, Note_on_c, 1, 55, 0
3, 2496, Note_on_c, 1, 62, 64
3, 2496, Note_on_c, 1, 55, 64
3, 2585, Note_on_c, 1, 62, 0
3, 2585, Note_on_c, 1, 55, 0
3, 2592, Note_on_c, 1, 60, 64
3, 2681, Note_on_c, 1, 60, 0
3, 2688, Note_on_c, 1, 55, 64
3, 2777, Note_on_c, 1, 55, 0
3, 2784, Note_on_c, 1, 48, 64
3, 2873, Note_on_c, 1, 48, 0
3, 2880, Note_on_c, 1, 53, 64
3, 2880, Note_on_c, 1, 41, 64
3, 2969, Note_on_c, 1, 53, 0
3, 2969, Note_on_c, 1, 41, 0
3, 2976, Note_on_c, 1, 57, 64
3, 2976, Note_on_c, 1, 45, 64
3, 3065, Note_on_c, 1, 57, 0
3, 3065, Note_on_c, 1, 45, 0
3, 3072, Note_on_c, 1, 60, 64
3, 3072, Note_on_c, 1, 48, 64
3, 3161, Note_on_c, 1, 60, 0
3, 3161, Note_on_c, 1, 48, 0
3, 3168, Note_on_c, 1, 65, 64
3, 3168, Note_on_c, 1, 53, 64
3, 3257, Note_on_c, 1, 65, 0
3, 3257, Note_on_c, 1, 53, 0
3, 3360, Note_on_c, 1, 67, 64
3, 3449, Note_on_c, 1, 67, 0
3, 3456, Note_on_c, 1, 65, 64
3, 3545, Note_on_c, 1, 65, 0
3, 3744, Note_on_c, 1, 64, 64
3, 3833, Note_on_c, 1, 64, 0
3, 3840, Note_on_c, 1, 60, 64
3, 3929, Note_on_c, 1, 60, 0
3, 3936, Note_on_c, 1, 65, 64
3, 4025, Note_on_c, 1, 65, 0
3, 4032, Note_on_c, 1, 53, 64
3, 4121, Note_on_c, 1, 53, 0
3, 4128, Note_on_c, 1, 57, 64
3, 4217, Note_on_c, 1, 57, 0
3, 4224, Note_on_c, 1, 60, 64
3, 4313, Note_on_c, 1, 60, 0
3, 4320, Note_on_c, 1, 65, 64
3, 4320, Note_on_c, 1, 53, 64
3, 4409, Note_on_c, 1, 65, 0
3, 4409, Note_on_c, 1, 53, 0
3, 4512, Note_on_c, 1, 65, 64
3, 4601, Note_on_c, 1, 65, 0
3, 4608, Note_on_c, 1, 64, 64
3, 4785, Note_on_c, 1, 64, 0
3, 4800, Note_on_c, 1, 65, 64
3, 4889, Note_on_c, 1, 65, 0
3, 4896, Note_on_c, 1, 64, 64
3, 5073, Note_on_c, 1, 64, 0
3, 5088, Note_on_c, 1, 59, 64
3, 5088, Note_on_c, 1, 47, 64
3, 5177, Note_on_c, 1, 59, 0
3, 5177, Note_on_c, 1, 47, 0
3, 5184, Note_on_c, 1, 60, 64
3, 5184, Note_on_c, 1, 48, 64
3, 5273, Note_on_c, 1, 60, 0
3, 5273, Note_on_c, 1, 48, 0
3, 5280, Note_on_c, 1, 64, 64
3, 5280, Note_on_c, 1, 55, 64
3, 5369, Note_on_c, 1, 64, 0
3, 5369, Note_on_c, 1, 55, 0
3, 5376, Note_on_c, 1, 62, 64
3, 5376, Note_on_c, 1, 55, 64
3, 5465, Note_on_c, 1, 62, 0
3, 5465, Note_on_c, 1, 55, 0
3, 5472, Note_on_c, 1, 60, 64
3, 5561, Note_on_c, 1, 60, 0
3, 5568, Note_on_c, 1, 55, 64
3, 5657, Note_on_c, 1, 55, 0
3, 5664, Note_on_c, 1, 48, 64
3, 5753, Note_on_c, 1, 48, 0
3, 5760, Note_on_c, 1, 60, 64
3, 5856, Note_on_c, 1, 67, 64
3, 5952, Note_on_c, 1, 67, 0
3, 5952, Note_on_c, 1, 70, 64
3, 6048, Note_on_c, 1, 70, 0
3, 6048, Note_on_c, 1, 69, 64
3, 6144, Note_on_c, 1, 69, 0
3, 6144, Note_on_c, 1, 64, 64
3, 6233, Note_on_c, 1, 64, 0
3, 6233, Note_on_c, 1, 60, 0
3, 6240, Note_on_c, 1, 65, 64
3, 6329, Note_on_c, 1, 65, 0
3, 6336, Note_on_c, 1, 58, 64
3, 6513, Note_on_c, 1, 58, 0
3, 6528, Note_on_c, 1, 59, 64
3, 6617, Note_on_c, 1, 59, 0
3, 6624, Note_on_c, 1, 60, 64
3, 6713, Note_on_c, 1, 60, 0
3, 6720, Note_on_c, 1, 55, 64
3, 6809, Note_on_c, 1, 55, 0
3, 6816, Note_on_c, 1, 48, 64
3, 6905, Note_on_c, 1, 48, 0
3, 6912, Note_on_c, 1, 60, 64
3, 7001, Note_on_c, 1, 60, 0
3, 7008, Note_on_c, 1, 68, 64
3, 7097, Note_on_c, 1, 68, 0
3, 7104, Note_on_c, 1, 65, 64
3, 7193, Note_on_c, 1, 65, 0
3, 7200, Note_on_c, 1, 67, 64
3, 7289, Note_on_c, 1, 67, 0
3, 7296, Note_on_c, 1, 64, 64
3, 7385, Note_on_c, 1, 64, 0
3, 7392, Note_on_c, 1, 65, 64
3, 7481, Note_on_c, 1, 65, 0
3, 7488, Note_on_c, 1, 58, 64
3, 7665, Note_on_c, 1, 58, 0
3, 7680, Note_on_c, 1, 59, 64
3, 7769, Note_on_c, 1, 59, 0
3, 7776, Note_on_c, 1, 60, 64
3, 7865, Note_on_c, 1, 60, 0
3, 7872, Note_on_c, 1, 55, 64
3, 7961, Note_on_c, 1, 55, 0
3, 7968, Note_on_c, 1, 48, 64
3, 8057, Note_on_c, 1, 48, 0
3, 8064, Note_on_c, 1, 53, 64
3, 8064, Note_on_c, 1, 41, 64
3, 8153, Note_on_c, 1, 53, 0
3, 8153, Note_on_c, 1, 41, 0
3, 8160, Note_on_c, 1, 57, 64
3, 8160, Note_on_c, 1, 45, 64
3, 8249, Note_on_c, 1, 57, 0
3, 8249, Note_on_c, 1, 45, 0
3, 8256, Note_on_c, 1, 60, 64
3, 8256, Note_on_c, 1, 48, 64
3, 8345, Note_on_c, 1, 60, 0
3, 8345, Note_on_c, 1, 48, 0
3, 8352, Note_on_c, 1, 65, 64
3, 8352, Note_on_c, 1, 53, 64
3, 8441, Note_on_c, 1, 65, 0
3, 8441, Note_on_c, 1, 53, 0
3, 8544, Note_on_c, 1, 67, 64
3, 8633, Note_on_c, 1, 67, 0
3, 8640, Note_on_c, 1, 65, 64
3, 8729, Note_on_c, 1, 65, 0
3, 8928, Note_on_c, 1, 64, 64
3, 9017, Note_on_c, 1, 64, 0
3, 9024, Note_on_c, 1, 60, 64
3, 9113, Note_on_c, 1, 60, 0
3, 9120, Note_on_c, 1, 65, 64
3, 9209, Note_on_c, 1, 65, 0
3, 9216, Note_on_c, 1, 53, 64
3, 9216, Note_on_c, 1, 41, 64
3, 9305, Note_on_c, 1, 53, 0
3, 9305, Note_on_c, 1, 41, 0
3, 9312, Note_on_c, 1, 57, 64
3, 9312, Note_on_c, 1, 45, 64
3, 9401, Note_on_c, 1, 57, 0
3, 9401, Note_on_c, 1, 45, 0
3, 9408, Note_on_c, 1, 60, 64
3, 9408, Note_on_c, 1, 48, 64
3, 9497, Note_on_c, 1, 60, 0
3, 9497, Note_on_c, 1, 48, 0
3, 9504, Note_on_c, 1, 65, 64
3, 9504, Note_on_c, 1, 53, 64
3, 9593, Note_on_c, 1, 65, 0
3, 9593, Note_on_c, 1, 53, 0
3, 9696, Note_on_c, 1, 58, 64
3, 9696, Note_on_c, 1, 46, 64
3, 9785, Note_on_c, 1, 58, 0
3, 9785, Note_on_c, 1, 46, 0
3, 9792, Note_on_c, 1, 57, 64
3, 9792, Note_on_c, 1, 45, 64
3, 9881, Note_on_c, 1, 57, 0
3, 9881, Note_on_c, 1, 45, 0
3, 9888, Note_on_c, 1, 65, 64
3, 9888, Note_on_c, 1, 53, 64
3, 9977, Note_on_c, 1, 65, 0
3, 9977, Note_on_c, 1, 53, 0
3, 9984, Note_on_c, 1, 58, 64
3, 9984, Note_on_c, 1, 46, 64
3, 10073, Note_on_c, 1, 58, 0
3, 10073, Note_on_c, 1, 46, 0
3, 10080, Note_on_c, 1, 57, 64
3, 10080, Note_on_c, 1, 45, 64
3, 10169, Note_on_c, 1, 57, 0
3, 10169, Note_on_c, 1, 45, 0
3, 10176, Note_on_c, 1, 65, 64
3, 10176, Note_on_c, 1, 53, 64
3, 10265, Note_on_c, 1, 65, 0
3, 10265, Note_on_c, 1, 53, 0
3, 10272, Note_on_c, 1, 64, 64
3, 10272, Note_on_c, 1, 52, 64
3, 10361, Note_on_c, 1, 64, 0
3, 10361, Note_on_c, 1, 52, 0
3, 10368, Note_on_c, 1, 65, 64
3, 10368, Note_on_c, 1, 53, 64
3, 10457, Note_on_c, 1, 65, 0
3, 10457, Note_on_c, 1, 53, 0
3, 10464, Note_on_c, 1, 57, 64
3, 10464, Note_on_c, 1, 48, 64
3, 10553, Note_on_c, 1, 57, 0
3, 10553, Note_on_c, 1, 48, 0
3, 10560, Note_on_c, 1, 55, 64
3, 10560, Note_on_c, 1, 48, 64
3, 10649, Note_on_c, 1, 55, 0
3, 10649, Note_on_c, 1, 48, 0
3, 10656, Note_on_c, 1, 53, 64
3, 10745, Note_on_c, 1, 53, 0
3, 10752, Note_on_c, 1, 48, 64
3, 10841, Note_on_c, 1, 48, 0
3, 10848, Note_on_c, 1, 41, 64
3, 10937, Note_on_c, 1, 41, 0
3, 10944, Note_on_c, 1, 60, 64
3, 11040, Note_on_c, 1, 67, 64
3, 11136, Note_on_c, 1, 67, 0
3, 11136, Note_on_c, 1, 70, 64
3, 11232, Note_on_c, 1, 70, 0
3, 11232, Note_on_c, 1, 69, 64
3, 11328, Note_on_c, 1, 69, 0
3, 11328, Note_on_c, 1, 64, 64
3, 11417, Note_on_c, 1, 64, 0
3, 11417, Note_on_c, 1, 60, 0
3, 11424, Note_on_c, 1, 65, 64
3, 11513, Note_on_c, 1, 65, 0
3, 11520, Note_on_c, 1, 58, 64
3, 11697, Note_on_c, 1, 58, 0
3, 11712, Note_on_c, 1, 59, 64
3, 11801, Note_on_c, 1, 59, 0
3, 11808, Note_on_c, 1, 60, 64
3, 11897, Note_on_c, 1, 60, 0
3, 11904, Note_on_c, 1, 55, 64
3, 11993, Note_on_c, 1, 55, 0
3, 12000, Note_on_c, 1, 48, 64
3, 12089, Note_on_c, 1, 48, 0
3, 12096, Note_on_c, 1, 60, 64
3, 12185, Note_on_c, 1, 60, 0
3, 12192, Note_on_c, 1, 68, 64
3, 12281, Note_on_c, 1, 68, 0
3, 12288, Note_on_c, 1, 65, 64
3, 12377, Note_on_c, 1, 65, 0
3, 12384, Note_on_c, 1, 67, 64
3, 12473, Note_on_c, 1, 67, 0
3, 12480, Note_on_c, 1, 64, 64
3, 12569, Note_on_c, 1, 64, 0
3, 12576, Note_on_c, 1, 65, 64
3, 12665, Note_on_c, 1, 65, 0
3, 12672, Note_on_c, 1, 58, 64
3, 12849, Note_on_c, 1, 58, 0
3, 12864, Note_on_c, 1, 59, 64
3, 12953, Note_on_c, 1, 59, 0
3, 12960, Note_on_c, 1, 60, 64
3, 13049, Note_on_c, 1, 60, 0
3, 13056, Note_on_c, 1, 55, 64
3, 13145, Note_on_c, 1, 55, 0
3, 13152, Note_on_c, 1, 48, 64
3, 13241, Note_on_c, 1, 48, 0
3, 13248, Note_on_c, 1, 53, 64
3, 13248, Note_on_c, 1, 41, 64
3, 13337, Note_on_c, 1, 53, 0
3, 13337, Note_on_c, 1, 41, 0
3, 13344, Note_on_c, 1, 57, 64
3, 13344, Note_on_c, 1, 45, 64
3, 13433, Note_on_c, 1, 57, 0
3, 13433, Note_on_c, 1, 45, 0
3, 13440, Note_on_c, 1, 60, 64
3, 13440, Note_on_c, 1, 48, 64
3, 13529, Note_on_c, 1, 60, 0
3, 13529, Note_on_c, 1, 48, 0
3, 13536, Note_on_c, 1, 65, 64
3, 13536, Note_on_c, 1, 53, 64
3, 13625, Note_on_c, 1, 65, 0
3, 13625, Note_on_c, 1, 53, 0
3, 13728, Note_on_c, 1, 67, 64
3, 13817, Note_on_c, 1, 67, 0
3, 13824, Note_on_c, 1, 65, 64
3, 13913, Note_on_c, 1, 65, 0
3, 14112, Note_on_c, 1, 64, 64
3, 14201, Note_on_c, 1, 64, 0
3, 14208, Note_on_c, 1, 60, 64
3, 14297, Note_on_c, 1, 60, 0
3, 14304, Note_on_c, 1, 65, 64
3, 14393, Note_on_c, 1, 65, 0
3, 14400, Note_on_c, 1, 53, 64
3, 14400, Note_on_c, 1, 41, 64
3, 14489, Note_on_c, 1, 53, 0
3, 14489, Note_on_c, 1, 41, 0
3, 14496, Note_on_c, 1, 57, 64
3, 14496, Note_on_c, 1, 45, 64
3, 14585, Note_on_c, 1, 57, 0
3, 14585, Note_on_c, 1, 45, 0
3, 14592, Note_on_c, 1, 60, 64
3, 14592, Note_on_c, 1, 48, 64
3, 14681, Note_on_c, 1, 60, 0
3, 14681, Note_on_c, 1, 48, 0
3, 14688, Note_on_c, 1, 65, 64
3, 14688, Note_on_c, 1, 53, 64
3, 14777, Note_on_c, 1, 65, 0
3, 14777, Note_on_c, 1, 53, 0
3, 14880, Note_on_c, 1, 58, 64
3, 14880, Note_on_c, 1, 46, 64
3, 14969, Note_on_c, 1, 58, 0
3, 14969, Note_on_c, 1, 46, 0
3, 14976, Note_on_c, 1, 57, 64
3, 14976, Note_on_c, 1, 45, 64
3, 15065, Note_on_c, 1, 57, 0
3, 15065, Note_on_c, 1, 45, 0
3, 15072, Note_on_c, 1, 65, 64
3, 15072, Note_on_c, 1, 53, 64
3, 15161, Note_on_c, 1, 65, 0
3, 15161, Note_on_c, 1, 53, 0
3, 15168, Note_on_c, 1, 58, 64
3, 15168, Note_on_c, 1, 46, 64
3, 15257, Note_on_c, 1, 58, 0
3, 15257, Note_on_c, 1, 46, 0
3, 15264, Note_on_c, 1, 57, 64
3, 15264, Note_on_c, 1, 45, 64
3, 15353, Note_on_c, 1, 57, 0
3, 15353, Note_on_c, 1, 45, 0
3, 15360, Note_on_c, 1, 65, 64
3, 15360, Note_on_c, 1, 53, 64
3, 15449, Note_on_c, 1, 65, 0
3, 15449, Note_on_c, 1, 53, 0
3, 15456, Note_on_c, 1, 64, 64
3, 15456, Note_on_c, 1, 52, 64
3, 15545, Note_on_c, 1, 64, 0
3, 15545, Note_on_c, 1, 52, 0
3, 15552, Note_on_c, 1, 65, 64
3, 15552, Note_on_c, 1, 53, 64
3, 15641, Note_on_c, 1, 65, 0
3, 15641, Note_on_c, 1, 53, 0
3, 15648, Note_on_c, 1, 57, 64
3, 15648, Note_on_c, 1, 48, 64
3, 15737, Note_on_c, 1, 57, 0
3, 15737, Note_on_c, 1, 48, 0
3, 15744, Note_on_c, 1, 55, 64
3, 15744, Note_on_c, 1, 48, 64
3, 15833, Note_on_c, 1, 55, 0
3, 15833, Note_on_c, 1, 48, 0
3, 15840, Note_on_c, 1, 53, 64
3, 15929, Note_on_c, 1, 53, 0
3, 15936, Note_on_c, 1, 48, 64
3, 16025, Note_on_c, 1, 48, 0
3, 16032, Note_on_c, 1, 41, 64
3, 16121, Note_on_c, 1, 41, 0
3, 16128, Note_on_c, 1, 46, 64
3, 16128, Note_on_c, 1, 34, 64
3, 16305, Note_on_c, 1, 46, 0
3, 16305, Note_on_c, 1, 34, 0
3, 16320, Note_on_c, 1, 63, 64
3, 16409, Note_on_c, 1, 63, 0
3, 16416, Note_on_c, 1, 62, 64
3, 16505, Note_on_c, 1, 62, 0
3, 16512, Note_on_c, 1, 58, 64
3, 16601, Note_on_c, 1, 58, 0
3, 16608, Note_on_c, 1, 60, 64
3, 16697, Note_on_c, 1, 60, 0
3, 16704, Note_on_c, 1, 62, 64
3, 16793, Note_on_c, 1, 62, 0
3, 16992, Note_on_c, 1, 63, 64
3, 16992, Note_on_c, 1, 53, 64
3, 17081, Note_on_c, 1, 63, 0
3, 17081, Note_on_c, 1, 53, 0
3, 17088, Note_on_c, 1, 62, 64
3, 17088, Note_on_c, 1, 58, 64
3, 17177, Note_on_c, 1, 62, 0
3, 17177, Note_on_c, 1, 58, 0
3, 17280, Note_on_c, 1, 53, 64
3, 17310, Note_on_c, 1, 53, 0
3, 17312, Note_on_c, 1, 57, 64
3, 17342, Note_on_c, 1, 57, 0
3, 17344, Note_on_c, 1, 60, 64
3, 17374, Note_on_c, 1, 60, 0
3, 17376, Note_on_c, 1, 53, 64
3, 17406, Note_on_c, 1, 53, 0
3, 17408, Note_on_c, 1, 57, 64
3, 17438, Note_on_c, 1, 57, 0
3, 17440, Note_on_c, 1, 60, 64
3, 17470, Note_on_c, 1, 60, 0
3, 17472, Note_on_c, 1, 53, 64
3, 17502, Note_on_c, 1, 53, 0
3, 17504, Note_on_c, 1, 57, 64
3, 17534, Note_on_c, 1, 57, 0
3, 17536, Note_on_c, 1, 60, 64
3, 17566, Note_on_c, 1, 60, 0
3, 17568, Note_on_c, 1, 52, 64
3, 17598, Note_on_c, 1, 52, 0
3, 17600, Note_on_c, 1, 55, 64
3, 17630, Note_on_c, 1, 55, 0
3, 17632, Note_on_c, 1, 60, 64
3, 17662, Note_on_c, 1, 60, 0
3, 17664, Note_on_c, 1, 52, 64
3, 17694, Note_on_c, 1, 52, 0
3, 17696, Note_on_c, 1, 55, 64
3, 17726, Note_on_c, 1, 55, 0
3, 17728, Note_on_c, 1, 60, 64
3, 17758, Note_on_c, 1, 60, 0
3, 17760, Note_on_c, 1, 52, 64
3, 17790, Note_on_c, 1, 52, 0
3, 17792, Note_on_c, 1, 55, 64
3, 17822, Note_on_c, 1, 55, 0
3, 17824, Note_on_c, 1, 60, 64
3, 17854, Note_on_c, 1, 60, 0
3, 17856, Note_on_c, 1, 53, 64
3, 17945, Note_on_c, 1, 53, 0
3, 17952, Note_on_c, 1, 57, 64
3, 17952, Note_on_c, 1, 48, 64
3, 18041, Note_on_c, 1, 57, 0
3, 18041, Note_on_c, 1, 48, 0
3, 18048, Note_on_c, 1, 55, 64
3, 18048, Note_on_c, 1, 48, 64
3, 18137, Note_on_c, 1, 55, 0
3, 18137, Note_on_c, 1, 48, 0
3, 18144, Note_on_c, 1, 53, 64
3, 18233, Note_on_c, 1, 53, 0
3, 18240, Note_on_c, 1, 48, 64
3, 18329, Note_on_c, 1, 48, 0
3, 18336, Note_on_c, 1, 41, 64
3, 18425, Note_on_c, 1, 41, 0
3, 18432, Note_on_c, 1, 46, 64
3, 18432, Note_on_c, 1, 34, 64
3, 18609, Note_on_c, 1, 46, 0
3, 18609, Note_on_c, 1, 34, 0
3, 18624, Note_on_c, 1, 63, 64
3, 18713, Note_on_c, 1, 63, 0
3, 18720, Note_on_c, 1, 62, 64
3, 18809, Note_on_c, 1, 62, 0
3, 18816, Note_on_c, 1, 58, 64
3, 18905, Note_on_c, 1, 58, 0
3, 18912, Note_on_c, 1, 60, 64
3, 19001, Note_on_c, 1, 60, 0
3, 19008, Note_on_c, 1, 62, 64
3, 19097, Note_on_c, 1, 62, 0
3, 19296, Note_on_c, 1, 63, 64
3, 19296, Note_on_c, 1, 53, 64
3, 19385, Note_on_c, 1, 63, 0
3, 19385, Note_on_c, 1, 53, 0
3, 19392, Note_on_c, 1, 62, 64
3, 19392, Note_on_c, 1, 58, 64
3, 19481, Note_on_c, 1, 62, 0
3, 19481, Note_on_c, 1, 58, 0
3, 19584, Note_on_c, 1, 53, 64
3, 19614, Note_on_c, 1, 53, 0
3, 19616, Note_on_c, 1, 57, 64
3, 19646, Note_on_c, 1, 57, 0
3, 19648, Note_on_c, 1, 60, 64
3, 19678, Note_on_c, 1, 60, 0
3, 19680, Note_on_c, 1, 53, 64
3, 19710, Note_on_c, 1, 53, 0
3, 19712, Note_on_c, 1, 57, 64
3, 19742, Note_on_c, 1, 57, 0
3, 19744, Note_on_c, 1, 60, 64
3, 19774, Note_on_c, 1, 60, 0
3, 19776, Note_on_c, 1, 53, 64
3, 19806, Note_on_c, 1, 53, 0
3, 19808, Note_on_c, 1, 57, 64
3, 19838, Note_on_c, 1, 57, 0
3, 19840, Note_on_c, 1, 60, 64
3, 19870, Note_on_c, 1, 60, 0
3, 19872, Note_on_c, 1, 52, 64
3, 19902, Note_on_c, 1, 52, 0
3, 19904, Note_on_c, 1, 55, 64
3, 19934, Note_on_c, 1, 55, 0
3, 19936, Note_on_c, 1, 60, 64
3, 19966, Note_on_c, 1, 60, 0
3, 19968, Note_on_c, 1, 52, 64
3, 19998, Note_on_c, 1, 52, 0
3, 20000, Note_on_c, 1, 55, 64
3, 20030, Note_on_c, 1, 55, 0
3, 20032, Note_on_c, 1, 60, 64
3, 20062, Note_on_c, 1, 60, 0
3, 20064, Note_on_c, 1, 52, 64
3, 20094, Note_on_c, 1, 52, 0
3, 20096, Note_on_c, 1, 55, 64
3, 20126, Note_on_c, 1, 55, 0
3, 20128, Note_on_c, 1, 60, 64
3, 20158, Note_on_c, 1, 60, 0
3, 20160, Note_on_c, 1, 53, 64
3, 20249, Note_on_c, 1, 53, 0
3, 20256, Note_on_c, 1, 57, 64
3, 20256, Note_on_c, 1, 48, 64
3, 20345, Note_on_c, 1, 57, 0
3, 20345, Note_on_c, 1, 48, 0
3, 20352, Note_on_c, 1, 55, 64
3, 20352, Note_on_c, 1, 48, 64
3, 20441, Note_on_c, 1, 55, 0
3, 20441, Note_on_c, 1, 48, 0
3, 20448, Note_on_c, 1, 53, 64
3, 20537, Note_on_c, 1, 53, 0
3, 20544, Note_on_c, 1, 48, 64
3, 20633, Note_on_c, 1, 48, 0
3, 20640, Note_on_c, 1, 41, 64
3, 20729, Note_on_c, 1, 41, 0
3, 20736, Note_on_c, 1, 50, 64
3, 20825, Note_on_c, 1, 50, 0
3, 20832, Note_on_c, 1, 58, 64
3, 20921, Note_on_c, 1, 58, 0
3, 20928, Note_on_c, 1, 50, 66
3, 21017, Note_on_c, 1, 50, 0
3, 21024, Note_on_c, 1, 51, 69
3, 21113, Note_on_c, 1, 51, 0
3, 21120, Note_on_c, 1, 55, 71
3, 21209, Note_on_c, 1, 55, 0
3, 21216, Note_on_c, 1, 60, 74
3, 21305, Note_on_c, 1, 60, 0
3, 21312, Note_on_c, 1, 51, 77
3, 21401, Note_on_c, 1, 51, 0
3, 21408, Note_on_c, 1, 60, 79
3, 21497, Note_on_c, 1, 60, 0
3, 21504, Note_on_c, 1, 52, 82
3, 21593, Note_on_c, 1, 52, 0
3, 21600, Note_on_c, 1, 53, 85
3, 21689, Note_on_c, 1, 53, 0
3, 21696, Note_on_c, 1, 48, 74
3, 21785, Note_on_c, 1, 48, 0
3, 21792, Note_on_c, 1, 41, 64
3, 21881, Note_on_c, 1, 41, 0
3, 21888, Note_on_c, 1, 58, 64
3, 21918, Note_on_c, 1, 58, 0
3, 21920, Note_on_c, 1, 62, 64
3, 21950, Note_on_c, 1, 62, 0
3, 21952, Note_on_c, 1, 65, 64
3, 21982, Note_on_c, 1, 65, 0
3, 21984, Note_on_c, 1, 58, 64
3, 22014, Note_on_c, 1, 58, 0
3, 22016, Note_on_c, 1, 62, 64
3, 22046, Note_on_c, 1, 62, 0
3, 22048, Note_on_c, 1, 65, 64
3, 22078, Note_on_c, 1, 65, 0
3, 22080, Note_on_c, 1, 58, 64
3, 22110, Note_on_c, 1, 58, 0
3, 22112, Note_on_c, 1, 62, 64
3, 22142, Note_on_c, 1, 62, 0
3, 22144, Note_on_c, 1, 65, 64
3, 22174, Note_on_c, 1, 65, 0
3, 22176, Note_on_c, 1, 57, 64
3, 22206, Note_on_c, 1, 57, 0
3, 22208, Note_on_c, 1, 60, 64
3, 22238, Note_on_c, 1, 60, 0
3, 22240, Note_on_c, 1, 65, 64
3, 22270, Note_on_c, 1, 65, 0
3, 22272, Note_on_c, 1, 57, 64
3, 22302, Note_on_c, 1, 57, 0
3, 22304, Note_on_c, 1, 60, 64
3, 22334, Note_on_c, 1, 60, 0
3, 22336, Note_on_c, 1, 65, 64
3, 22366, Note_on_c, 1, 65, 0
3, 22368, Note_on_c, 1, 57, 64
3, 22398, Note_on_c, 1, 57, 0
3, 22400, Note_on_c, 1, 60, 64
3, 22430, Note_on_c, 1, 60, 0
3, 22432, Note_on_c, 1, 65, 64
3, 22462, Note_on_c, 1, 65, 0
3, 22464, Note_on_c, 1, 58, 64
3, 22553, Note_on_c, 1, 58, 0
3, 22560, Note_on_c, 1, 62, 64
3, 22560, Note_on_c, 1, 53, 64
3, 22649, Note_on_c, 1, 62, 0
3, 22649, Note_on_c, 1, 53, 0
3, 22656, Note_on_c, 1, 60, 64
3, 22656, Note_on_c, 1, 53, 64
3, 22745, Note_on_c, 1, 60, 0
3, 22745, Note_on_c, 1, 53, 0
3, 22752, Note_on_c, 1, 58, 64
3, 22841, Note_on_c, 1, 58, 0
3, 22848, Note_on_c, 1, 53, 64
3, 22937, Note_on_c, 1, 53, 0
3, 22944, Note_on_c, 1, 46, 64
3, 23033, Note_on_c, 1, 46, 0
3, 23040, Note_on_c, 1, 50, 64
3, 23129, Note_on_c, 1, 50, 0
3, 23136, Note_on_c, 1, 58, 64
3, 23225, Note_on_c, 1, 58, 0
3, 23232, Note_on_c, 1, 50, 66
3, 23321, Note_on_c, 1, 50, 0
3, 23328, Note_on_c, 1, 51, 69
3, 23417, Note_on_c, 1, 51, 0
3, 23424, Note_on_c, 1, 55, 71
3, 23513, Note_on_c, 1, 55, 0
3, 23520, Note_on_c, 1, 60, 74
3, 23609, Note_on_c, 1, 60, 0
3, 23616, Note_on_c, 1, 51, 77
3, 23705, Note_on_c, 1, 51, 0
3, 23712, Note_on_c, 1, 60, 79
3, 23801, Note_on_c, 1, 60, 0
3, 23808, Note_on_c, 1, 52, 82
3, 23897, Note_on_c, 1, 52, 0
3, 23904, Note_on_c, 1, 53, 85
3, 23993, Note_on_c, 1, 53, 0
3, 24000, Note_on_c, 1, 48, 74
3, 24089, Note_on_c, 1, 48, 0
3, 24096, Note_on_c, 1, 41, 64
3, 24185, Note_on_c, 1, 41, 0
3, 24192, Note_on_c, 1, 58, 64
3, 24222, Note_on_c, 1, 58, 0
3, 24224, Note_on_c, 1, 62, 64
3, 24254, Note_on_c, 1, 62, 0
3, 24256, Note_on_c, 1, 65, 64
3, 24286, Note_on_c, 1, 65, 0
3, 24288, Note_on_c, 1, 58, 64
3, 24318, Note_on_c, 1, 58, 0
3, 24320, Note_on_c, 1, 62, 64
3, 24350, Note_on_c, 1, 62, 0
3, 24352, Note_on_c, 1, 65, 64
3, 24382, Note_on_c, 1, 65, 0
3, 24384, Note_on_c, 1, 58, 64
3, 24414, Note_on_c, 1, 58, 0
3, 24416, Note_on_c, 1, 62, 64
3, 24446, Note_on_c, 1, 62, 0
3, 24448, Note_on_c, 1, 65, 64
3, 24478, Note_on_c, 1, 65, 0
3, 24480, Note_on_c, 1, 57, 64
3, 24510, Note_on_c, 1, 57, 0
3, 24512, Note_on_c, 1, 60, 64
3, 24542, Note_on_c, 1, 60, 0
3, 24544, Note_on_c, 1, 65, 64
3, 24574, Note_on_c, 1, 65, 0
3, 24576, Note_on_c, 1, 57, 64
3, 24606, Note_on_c, 1, 57, 0
3, 24608, Note_on_c, 1, 60, 64
3, 24638, Note_on_c, 1, 60, 0
3, 24640, Note_on_c, 1, 65, 64
3, 24670, Note_on_c, 1, 65, 0
3, 24672, Note_on_c, 1, 57, 64
3, 24702, Note_on_c, 1, 57, 0
3, 24704, Note_on_c, 1, 60, 64
3, 24734, Note_on_c, 1, 60, 0
3, 24736, Note_on_c, 1, 65, 64
3, 24766, Note_on_c, 1, 65, 0
3, 24768, Note_on_c, 1, 58, 64
3, 24857, Note_on_c, 1, 58, 0
3, 24864, Note_on_c, 1, 62, 64
3, 24864, Note_on_c, 1, 53, 64
3, 24953, Note_on_c, 1, 62, 0
3, 24953, Note_on_c, 1, 53, 0
3, 24960, Note_on_c, 1, 60, 64
3, 24960, Note_on_c, 1, 53, 64
3, 25049, Note_on_c, 1, 60, 0
3, 25049, Note_on_c, 1, 53, 0
3, 25056, Note_on_c, 1, 58, 64
3, 25145, Note_on_c, 1, 58, 0
3, 25152, Note_on_c, 1, 53, 64
3, 25241, Note_on_c, 1, 53, 0
3, 25248, Note_on_c, 1, 46, 64
3, 25337, Note_on_c, 1, 46, 0
3, 25344, Note_on_c, 1, 53, 64
3, 25344, Note_on_c, 1, 41, 64
3, 25433, Note_on_c, 1, 53, 0
3, 25433, Note_on_c, 1, 41, 0
3, 25440, Note_on_c, 1, 57, 64
3, 25440, Note_on_c, 1, 45, 64
3, 25529, Note_on_c, 1, 57, 0
3, 25529, Note_on_c, 1, 45, 0
3, 25536, Note_on_c, 1, 60, 64
3, 25536, Note_on_c, 1, 48, 64
3, 25625, Note_on_c, 1, 60, 0
3, 25625, Note_on_c, 1, 48, 0
3, 25632, Note_on_c, 1, 65, 64
3, 25632, Note_on_c, 1, 53, 64
3, 25721, Note_on_c, 1, 65, 0
3, 25721, Note_on_c, 1, 53, 0
3, 25824, Note_on_c, 1, 67, 64
3, 25913, Note_on_c, 1, 67, 0
3, 25920, Note_on_c, 1, 65, 64
3, 26009, Note_on_c, 1, 65, 0
3, 26208, Note_on_c, 1, 64, 64
3, 26297, Note_on_c, 1, 64, 0
3, 26304, Note_on_c, 1, 60, 64
3, 26393, Note_on_c, 1, 60, 0
3, 26400, Note_on_c, 1, 65, 64
3, 26489, Note_on_c, 1, 65, 0
3, 26496, Note_on_c, 1, 53, 64
3, 26585, Note_on_c, 1, 53, 0
3, 26592, Note_on_c, 1, 57, 64
3, 26681, Note_on_c, 1, 57, 0
3, 26688, Note_on_c, 1, 60, 64
3, 26777, Note_on_c, 1, 60, 0
3, 26784, Note_on_c, 1, 65, 64
3, 26784, Note_on_c, 1, 53, 64
3, 26873, Note_on_c, 1, 65, 0
3, 26873, Note_on_c, 1, 53, 0
3, 26976, Note_on_c, 1, 65, 64
3, 27065, Note_on_c, 1, 65, 0
3, 27072, Note_on_c, 1, 64, 64
3, 27249, Note_on_c, 1, 64, 0
3, 27264, Note_on_c, 1, 65, 64
3, 27353, Note_on_c, 1, 65, 0
3, 27360, Note_on_c, 1, 64, 64
3, 27537, Note_on_c, 1, 64, 0
3, 27552, Note_on_c, 1, 59, 64
3, 27552, Note_on_c, 1, 47, 64
3, 27641, Note_on_c, 1, 59, 0
3, 27641, Note_on_c, 1, 47, 0
3, 27648, Note_on_c, 1, 60, 64
3, 27648, Note_on_c, 1, 48, 64
3, 27737, Note_on_c, 1, 60, 0
3, 27737, Note_on_c, 1, 48, 0
3, 27744, Note_on_c, 1, 64, 64
3, 27744, Note_on_c, 1, 55, 64
3, 27833, Note_on_c, 1, 64, 0
3, 27833, Note_on_c, 1, 55, 0
3, 27840, Note_on_c, 1, 62, 64
3, 27840, Note_on_c, 1, 55, 64
3, 27929, Note_on_c, 1, 62, 0
3, 27929, Note_on_c, 1, 55, 0
3, 27936, Note_on_c, 1, 60, 64
3, 28025, Note_on_c, 1, 60, 0
3, 28032, Note_on_c, 1, 55, 64
3, 28121, Note_on_c, 1, 55, 0
3, 28128, Note_on_c, 1, 48, 64
3, 28217, Note_on_c, 1, 48, 0
3, 28224, Note_on_c, 1, 53, 64
3, 28224, Note_on_c, 1, 41, 64
3, 28313, Note_on_c, 1, 53, 0
3, 28313, Note_on_c, 1, 41, 0
3, 28320, Note_on_c, 1, 57, 64
3, 28320, Note_on_c, 1, 45, 64
3, 28409, Note_on_c, 1, 57, 0
3, 28409, Note_on_c, 1, 45, 0
3, 28416, Note_on_c, 1, 60, 64
3, 28416, Note_on_c, 1, 48, 64
3, 28505, Note_on_c, 1, 60, 0
3, 28505, Note_on_c, 1, 48, 0
3, 28512, Note_on_c, 1, 65, 64
3, 28512, Note_on_c, 1, 53, 64
3, 28601, Note_on_c, 1, 65, 0
3, 28601, Note_on_c, 1, 53, 0
3, 28704, Note_on_c, 1, 67, 64
3, 28793, Note_on_c, 1, 67, 0
3, 28800, Note_on_c, 1, 65, 64
3, 28889, Note_on_c, 1, 65, 0
3, 29088, Note_on_c, 1, 64, 64
3, 29177, Note_on_c, 1, 64, 0
3, 29184, Note_on_c, 1, 60, 64
3, 29273, Note_on_c, 1, 60, 0
3, 29280, Note_on_c, 1, 65, 64
3, 29369, Note_on_c, 1, 65, 0
3, 29376, Note_on_c, 1, 53, 64
3, 29465, Note_on_c, 1, 53, 0
3, 29472, Note_on_c, 1, 57, 64
3, 29561, Note_on_c, 1, 57, 0
3, 29568, Note_on_c, 1, 60, 64
3, 29657, Note_on_c, 1, 60, 0
3, 29664, Note_on_c, 1, 65, 64
3, 29664, Note_on_c, 1, 53, 64
3, 29753, Note_on_c, 1, 65, 0
3, 29753, Note_on_c, 1, 53, 0
3, 29856, Note_on_c, 1, 65, 64
3, 29945, Note_on_c, 1, 65, 0
3, 29952, Note_on_c, 1, 64, 64
3, 30129, Note_on_c, 1, 64, 0
3, 30144, Note_on_c, 1, 65, 64
3, 30233, Note_on_c, 1, 65, 0
3, 30240, Note_on_c, 1, 64, 64
3, 30417, Note_on_c, 1, 64, 0
3, 30432, Note_on_c, 1, 59, 64
3, 30432, Note_on_c, 1, 47, 64
3, 30521, Note_on_c, 1, 59, 0
3, 30521, Note_on_c, 1, 47, 0
3, 30528, Note_on_c, 1, 60, 64
3, 30528, Note_on_c, 1, 48, 64
3, 30617, Note_on_c, 1, 60, 0
3, 30617, Note_on_c, 1, 48, 0
3, 30624, Note_on_c, 1, 64, 64
3, 30624, Note_on_c, 1, 55, 64
3, 30713, Note_on_c, 1, 64, 0
3, 30713, Note_on_c, 1, 55, 0
3, 30720, Note_on_c, 1, 62, 64
3, 30720, Note_on_c, 1, 55, 64
3, 30809, Note_on_c, 1, 62, 0
3, 30809, Note_on_c, 1, 55, 0
3, 30816, Note_on_c, 1, 60, 64
3, 30905, Note_on_c, 1, 60, 0
3, 30912, Note_on_c, 1, 55, 64
3, 31001, Note_on_c, 1, 55, 0
3, 31008, Note_on_c, 1, 48, 64
3, 31097, Note_on_c, 1, 48, 0
3, 31104, Note_on_c, 1, 60, 64
3, 31200, Note_on_c, 1, 67, 64
3, 31296, Note_on_c, 1, 67, 0
3, 31296, Note_on_c, 1, 70, 64
3, 31392, Note_on_c, 1, 70, 0
3, 31392, Note_on_c, 1, 69, 64
3, 31488, Note_on_c, 1, 69, 0
3, 31488, Note_on_c, 1, 64, 64
3, 31577, Note_on_c, 1, 64, 0
3, 31577, Note_on_c, 1, 60, 0
3, 31584, Note_on_c, 1, 65, 64
3, 31673, Note_on_c, 1, 65, 0
3, 31680, Note_on_c, 1, 58, 64
3, 31857, Note_on_c, 1, 58, 0
3, 31872, Note_on_c, 1, 59, 64
3, 31961, Note_on_c, 1, 59, 0
3, 31968, Note_on_c, 1, 60, 64
3, 32057, Note_on_c, 1, 60, 0
3, 32064, Note_on_c, 1, 55, 64
3, 32153, Note_on_c, 1, 55, 0
3, 32160, Note_on_c, 1, 48, 64
3, 32249, Note_on_c, 1, 48, 0
3, 32256, Note_on_c, 1, 60, 64
3, 32345, Note_on_c, 1, 60, 0
3, 32352, Note_on_c, 1, 68, 64
3, 32441, Note_on_c, 1, 68, 0
3, 32448, Note_on_c, 1, 65, 64
3, 32537, Note_on_c, 1, 65, 0
3, 32544, Note_on_c, 1, 67, 64
3, 32633, Note_on_c, 1, 67, 0
3, 32640, Note_on_c, 1, 64, 64
3, 32729, Note_on_c, 1, 64, 0
3, 32736, Note_on_c, 1, 65, 64
3, 32825, Note_on_c, 1, 65, 0
3, 32832, Note_on_c, 1, 58, 64
3, 33009, Note_on_c, 1, 58, 0
3, 33024, Note_on_c, 1, 59, 64
3, 33113, Note_on_c, 1, 59, 0
3, 33120, Note_on_c, 1, 60, 64
3, 33209, Note_on_c, 1, 60, 0
3, 33216, Note_on_c, 1, 55, 64
3, 33305, Note_on_c, 1, 55, 0
3, 33312, Note_on_c, 1, 48, 64
3, 33401, Note_on_c, 1, 48, 0
3, 33408, Note_on_c, 1, 53, 64
3, 33408, Note_on_c, 1, 41, 64
3, 33497, Note_on_c, 1, 53, 0
3, 33497, Note_on_c, 1, 41, 0
3, 33504, Note_on_c, 1, 57, 64
3, 33504, Note_on_c, 1, 45, 64
3, 33593, Note_on_c, 1, 57, 0
3, 33593, Note_on_c, 1, 45, 0
3, 33600, Note_on_c, 1, 60, 64
3, 33600, Note_on_c, 1, 48, 64
3, 33689, Note_on_c, 1, 60, 0
3, 33689, Note_on_c, 1, 48, 0
3, 33696, Note_on_c, 1, 65, 64
3, 33696, Note_on_c, 1, 53, 64
3, 33785, Note_on_c, 1, 65, 0
3, 33785, Note_on_c, 1, 53, 0
3, 33888, Note_on_c, 1, 67, 64
3, 33977, Note_on_c, 1, 67, 0
3, 33984, Note_on_c, 1, 65, 64
3, 34073, Note_on_c, 1, 65, 0
3, 34272, Note_on_c, 1, 64, 64
3, 34361, Note_on_c, 1, 64, 0
3, 34368, Note_on_c, 1, 60, 64
3, 34457, Note_on_c, 1, 60, 0
3, 34464, Note_on_c, 1, 65, 64
3, 34553, Note_on_c, 1, 65, 0
3, 34560, Note_on_c, 1, 53, 64
3, 34560, Note_on_c, 1, 41, 64
3, 34649, Note_on_c, 1, 53, 0
3, 34649, Note_on_c, 1, 41, 0
3, 34656, Note_on_c, 1, 57, 64
3, 34656, Note_on_c, 1, 45, 64
3, 34745, Note_on_c, 1, 57, 0
3, 34745, Note_on_c, 1, 45, 0
3, 34752, Note_on_c, 1, 60, 64
3, 34752, Note_on_c, 1, 48, 64
3, 34841, Note_on_c, 1, 60, 0
3, 34841, Note_on_c, 1, 48, 0
3, 34848, Note_on_c, 1, 65, 64
3, 34848, Note_on_c, 1, 53, 64
3, 34937, Note_on_c, 1, 65, 0
3, 34937, Note_on_c, 1, 53, 0
3, 35040, Note_on_c, 1, 58, 64
3, 35040, Note_on_c, 1, 46, 64
3, 35129, Note_on_c, 1, 58, 0
3, 35129, Note_on_c, 1, 46, 0
3, 35136, Note_on_c, 1, 57, 64
3, 35136, Note_on_c, 1, 45, 64
3, 35225, Note_on_c, 1, 57, 0
3, 35225, Note_on_c, 1, 45, 0
3, 35232, Note_on_c, 1, 65, 64
3, 35232, Note_on_c, 1, 53, 64
3, 35321, Note_on_c, 1, 65, 0
3, 35321, Note_on_c, 1, 53, 0
3, 35328, Note_on_c, 1, 58, 64
3, 35328, Note_on_c, 1, 46, 64
3, 35417, Note_on_c, 1, 58, 0
3, 35417, Note_on_c, 1, 46, 0
3, 35424, Note_on_c, 1, 57, 64
3, 35424, Note_on_c, 1, 45, 64
3, 35513, Note_on_c, 1, 57, 0
3, 35513, Note_on_c, 1, 45, 0
3, 35520, Note_on_c, 1, 65, 64
3, 35520, Note_on_c, 1, 53, 64
3, 35609, Note_on_c, 1, 65, 0
3, 35609, Note_on_c, 1, 53, 0
3, 35616, Note_on_c, 1, 64, 64
3, 35616, Note_on_c, 1, 52, 64
3, 35705, Note_on_c, 1, 64, 0
3, 35705, Note_on_c, 1, 52, 0
3, 35712, Note_on_c, 1, 65, 64
3, 35712, Note_on_c, 1, 53, 64
3, 35801, Note_on_c, 1, 65, 0
3, 35801, Note_on_c, 1, 53, 0
3, 35808, Note_on_c, 1, 57, 64
3, 35808, Note_on_c, 1, 48, 64
3, 35897, Note_on_c, 1, 57, 0
3, 35897, Note_on_c, 1, 48, 0
3, 35904, Note_on_c, 1, 55, 64
3, 35904, Note_on_c, 1, 48, 64
3, 35993, Note_on_c, 1, 55, 0
3, 35993, Note_on_c, 1, 48, 0
3, 36000, Note_on_c, 1, 53, 64
3, 36089, Note_on_c, 1, 53, 0
3, 36096, Note_on_c, 1, 48, 64
3, 36185, Note_on_c, 1, 48, 0
3, 36192, Note_on_c, 1, 41, 64
3, 36281, Note_on_c, 1, 41, 0
3, 36288, Note_on_c, 1, 60, 64
3, 36384, Note_on_c, 1, 67, 64
3, 36480, Note_on_c, 1, 67, 0
3, 36480, Note_on_c, 1, 70, 64
3, 36576, Note_on_c, 1, 70, 0
3, 36576, Note_on_c, 1, 69, 64
3, 36672, Note_on_c, 1, 69, 0
3, 36672, Note_on_c, 1, 64, 64
3, 36761, Note_on_c, 1, 64, 0
3, 36761, Note_on_c, 1, 60, 0
3, 36768, Note_on_c, 1, 65, 64
3, 36857, Note_on_c, 1, 65, 0
3, 36864, Note_on_c, 1, 58, 64
3, 37041, Note_on_c, 1, 58, 0
3, 37056, Note_on_c, 1, 59, 64
3, 37145, Note_on_c, 1, 59, 0
3, 37152, Note_on_c, 1, 60, 64
3, 37241, Note_on_c, 1, 60, 0
3, 37248, Note_on_c, 1, 55, 64
3, 37337, Note_on_c, 1, 55, 0
3, 37344, Note_on_c, 1, 48, 64
3, 37433, Note_on_c, 1, 48, 0
3, 37440, Note_on_c, 1, 60, 64
3, 37529, Note_on_c, 1, 60, 0
3, 37536, Note_on_c, 1, 68, 64
3, 37625, Note_on_c, 1, 68, 0
3, 37632, Note_on_c, 1, 65, 64
3, 37721, Note_on_c, 1, 65, 0
3, 37728, Note_on_c, 1, 67, 64
3, 37817, Note_on_c, 1, 67, 0
3, 37824, Note_on_c, 1, 64, 64
3, 37913, Note_on_c, 1, 64, 0
3, 37920, Note_on_c, 1, 65, 64
3, 38009, Note_on_c, 1, 65, 0
3, 38016, Note_on_c, 1, 58, 64
3, 38193, Note_on_c, 1, 58, 0
3, 38208, Note_on_c, 1, 59, 64
3, 38297, Note_on_c, 1, 59, 0
3, 38304, Note_on_c, 1, 60, 64
3, 38393, Note_on_c, 1, 60, 0
3, 38400, Note_on_c, 1, 55, 64
3, 38489, Note_on_c, 1, 55, 0
3, 38496, Note_on_c, 1, 48, 64
3, 38585, Note_on_c, 1, 48, 0
3, 38592, Note_on_c, 1, 53, 64
3, 38592, Note_on_c, 1, 41, 64
3, 38681, Note_on_c, 1, 53, 0
3, 38681, Note_on_c, 1, 41, 0
3, 38688, Note_on_c, 1, 57, 64
3, 38688, Note_on_c, 1, 45, 64
3, 38777, Note_on_c, 1, 57, 0
3, 38777, Note_on_c, 1, 45, 0
3, 38784, Note_on_c, 1, 60, 64
3, 38784, Note_on_c, 1, 48, 64
3, 38873, Note_on_c, 1, 60, 0
3, 38873, Note_on_c, 1, 48, 0
3, 38880, Note_on_c, 1, 65, 64
3, 38880, Note_on_c, 1, 53, 64
3, 38969, Note_on_c, 1, 65, 0
3, 38969, Note_on_c, 1, 53, 0
3, 39072, Note_on_c, 1, 67, 64
3, 39161, Note_on_c, 1, 67, 0
3, 39168, Note_on_c, 1, 65, 64
3, 39257, Note_on_c, 1, 65, 0
3, 39456, Note_on_c, 1, 64, 64
3, 39545, Note_on_c, 1, 64, 0
3, 39552, Note_on_c, 1, 60, 64
3, 39641, Note_on_c, 1, 60, 0
3, 39648, Note_on_c, 1, 65, 64
3, 39737, Note_on_c, 1, 65, 0
3, 39744, Note_on_c, 1, 53, 64
3, 39744, Note_on_c, 1, 41, 64
3, 39833, Note_on_c, 1, 53, 0
3, 39833, Note_on_c, 1, 41, 0
3, 39840, Note_on_c, 1, 57, 64
3, 39840, Note_on_c, 1, 45, 64
3, 39929, Note_on_c, 1, 57, 0
3, 39929, Note_on_c, 1, 45, 0
3, 39936, Note_on_c, 1, 60, 64
3, 39936, Note_on_c, 1, 48, 64
3, 40025, Note_on_c, 1, 60, 0
3, 40025, Note_on_c, 1, 48, 0
3, 40032, Note_on_c, 1, 65, 64
3, 40032, Note_on_c, 1, 53, 64
3, 40121, Note_on_c, 1, 65, 0
3, 40121, Note_on_c, 1, 53, 0
3, 40224, Note_on_c, 1, 58, 64
3, 40224, Note_on_c, 1, 46, 64
3, 40313, Note_on_c, 1, 58, 0
3, 40313, Note_on_c, 1, 46, 0
3, 40320, Note_on_c, 1, 57, 64
3, 40320, Note_on_c, 1, 45, 64
3, 40409, Note_on_c, 1, 57, 0
3, 40409, Note_on_c, 1, 45, 0
3, 40416, Note_on_c, 1, 65, 64
3, 40416, Note_on_c, 1, 53, 64
3, 40505, Note_on_c, 1, 65, 0
3, 40505, Note_on_c, 1, 53, 0
3, 40512, Note_on_c, 1, 58, 64
3, 40512, Note_on_c, 1, 46, 64
3, 40601, Note_on_c, 1, 58, 0
3, 40601, Note_on_c, 1, 46, 0
3, 40608, Note_on_c, 1, 57, 64
3, 40608, Note_on_c, 1, 45, 64
3, 40697, Note_on_c, 1, 57, 0
3, 40697, Note_on_c, 1, 45, 0
3, 40704, Note_on_c, 1, 65, 64
3, 40704, Note_on_c, 1, 53, 64
3, 40793, Note_on_c, 1, 65, 0
3, 40793, Note_on_c, 1, 53, 0
3, 40800, Note_on_c, 1, 64, 64
3, 40800, Note_on_c, 1, 52, 64
3, 40889, Note_on_c, 1, 64, 0
3, 40889, Note_on_c, 1, 52, 0
3, 40896, Note_on_c, 1, 65, 64
3, 40896, Note_on_c, 1, 53, 64
3, 40985, Note_on_c, 1, 65, 0
3, 40985, Note_on_c, 1, 53, 0
3, 40992, Note_on_c, 1, 57, 64
3, 40992, Note_on_c, 1, 48, 64
3, 41081, Note_on_c, 1, 57, 0
3, 41081, Note_on_c, 1, 48, 0
3, 41088, Note_on_c, 1, 55, 64
3, 41088, Note_on_c, 1, 48, 64
3, 41177, Note_on_c, 1, 55, 0
3, 41177, Note_on_c, 1, 48, 0
3, 41184, Note_on_c, 1, 53, 64
3, 41273, Note_on_c, 1, 53, 0
3, 41280, Note_on_c, 1, 48, 64
3, 41369, Note_on_c, 1, 48, 0
3, 41376, Note_on_c, 1, 41, 64
3, 41465, Note_on_c, 1, 41, 0
3, 41472, Note_on_c, 1, 41, 0
3, 41649, Note_on_c, 1, 41, 0
3, 41760, End_track
4, 0, Start_track
4, 0, Title_t, "<No Title>"
4, 0, End_track
0, 0, End_of_file
