0, 0, Header, 1, 6, 96
1, 0, Start_track
1, 0, Copyright_t, "Copyright  1994-2002 Mozart Music Software"
1, 0, Text_t, "Piano Solo\015\012"
1, 0, Text_t, "<composer>\015\012"
1, 0, Sequencer_specific, 16, 68, 87, 77, 90, 86, 82, 83, 78, 32, 55, 46, 48, 46, 55, 46, 48
1, 0, Time_signature, 3, 2, 24, 8
1, 0, Tempo, 461538
1, 0, Key_signature, 1, "major"
1, 16128, Key_signature, -2, "major"
1, 19584, Key_signature, -2, "major"
1, 33408, Key_signature, 1, "major"
1, 36288, Key_signature, 1, "major"
1, 49536, End_track
2, 0, Start_track
2, 0, Program_c, 0, 0
2, 0, Control_c, 0, 7, 127
2, 0, Control_c, 0, 10, 64
2, 0, Note_on_c, 0, 62, 75
2, 18, Note_on_c, 0, 62, 0
2, 18, Note_on_c, 0, 67, 75
2, 36, Note_on_c, 0, 67, 0
2, 36, Note_on_c, 0, 71, 75
2, 54, Note_on_c, 0, 71, 0
2, 54, Note_on_c, 0, 74, 75
2, 163, Note_on_c, 0, 74, 0
2, 168, Note_on_c, 0, 72, 75
2, 180, Note_on_c, 0, 72, 0
2, 180, Note_on_c, 0, 74, 75
2, 192, Note_on_c, 0, 74, 0
2, 192, Note_on_c, 0, 76, 75
2, 259, Note_on_c, 0, 76, 0
2, 264, Note_on_c, 0, 71, 75
2, 287, Note_on_c, 0, 71, 0
2, 288, Note_on_c, 0, 74, 75
2, 355, Note_on_c, 0, 74, 0
2, 360, Note_on_c, 0, 72, 75
2, 383, Note_on_c, 0, 72, 0
2, 384, Note_on_c, 0, 69, 75
2, 547, Note_on_c, 0, 69, 0
2, 552, Note_on_c, 0, 72, 75
2, 575, Note_on_c, 0, 72, 0
2, 576, Note_on_c, 0, 62, 75
2, 594, Note_on_c, 0, 62, 0
2, 594, Note_on_c, 0, 66, 75
2, 612, Note_on_c, 0, 66, 0
2, 612, Note_on_c, 0, 67, 75
2, 630, Note_on_c, 0, 67, 0
2, 630, Note_on_c, 0, 71, 75
2, 739, Note_on_c, 0, 71, 0
2, 744, Note_on_c, 0, 69, 75
2, 756, Note_on_c, 0, 69, 0
2, 756, Note_on_c, 0, 71, 75
2, 768, Note_on_c, 0, 71, 0
2, 768, Note_on_c, 0, 72, 75
2, 835, Note_on_c, 0, 72, 0
2, 840, Note_on_c, 0, 69, 75
2, 863, Note_on_c, 0, 69, 0
2, 864, Note_on_c, 0, 67, 75
2, 953, Note_on_c, 0, 67, 0
2, 960, Note_on_c, 0, 67, 75
2, 975, Note_on_c, 0, 67, 0
2, 976, Note_on_c, 0, 66, 75
2, 991, Note_on_c, 0, 66, 0
2, 992, Note_on_c, 0, 67, 75
2, 1007, Note_on_c, 0, 67, 0
2, 1008, Note_on_c, 0, 66, 75
2, 1023, Note_on_c, 0, 66, 0
2, 1024, Note_on_c, 0, 64, 75
2, 1039, Note_on_c, 0, 64, 0
2, 1040, Note_on_c, 0, 66, 75
2, 1055, Note_on_c, 0, 66, 0
2, 1056, Note_on_c, 0, 67, 75
2, 1123, Note_on_c, 0, 67, 0
2, 1128, Note_on_c, 0, 62, 75
2, 1151, Note_on_c, 0, 62, 0
2, 1152, Note_on_c, 0, 64, 75
2, 1219, Note_on_c, 0, 64, 0
2, 1224, Note_on_c, 0, 66, 75
2, 1236, Note_on_c, 0, 66, 0
2, 1236, Note_on_c, 0, 67, 75
2, 1248, Note_on_c, 0, 67, 0
2, 1248, Note_on_c, 0, 66, 75
2, 1337, Note_on_c, 0, 66, 0
2, 1416, Note_on_c, 0, 67, 75
2, 1439, Note_on_c, 0, 67, 0
2, 1440, Note_on_c, 0, 69, 75
2, 1507, Note_on_c, 0, 69, 0
2, 1512, Note_on_c, 0, 71, 75
2, 1524, Note_on_c, 0, 71, 0
2, 1524, Note_on_c, 0, 72, 75
2, 1536, Note_on_c, 0, 72, 0
2, 1536, Note_on_c, 0, 71, 75
2, 1625, Note_on_c, 0, 71, 0
2, 1704, Note_on_c, 0, 69, 75
2, 1727, Note_on_c, 0, 69, 0
2, 1728, Note_on_c, 0, 71, 75
2, 1758, Note_on_c, 0, 71, 0
2, 1760, Note_on_c, 0, 73, 75
2, 1790, Note_on_c, 0, 73, 0
2, 1792, Note_on_c, 0, 74, 75
2, 1822, Note_on_c, 0, 74, 0
2, 1824, Note_on_c, 0, 73, 75
2, 1854, Note_on_c, 0, 73, 0
2, 1856, Note_on_c, 0, 74, 76
2, 1886, Note_on_c, 0, 74, 0
2, 1888, Note_on_c, 0, 76, 76
2, 1918, Note_on_c, 0, 76, 0
2, 1920, Note_on_c, 0, 74, 76
2, 1950, Note_on_c, 0, 74, 0
2, 1952, Note_on_c, 0, 76, 77
2, 1982, Note_on_c, 0, 76, 0
2, 1984, Note_on_c, 0, 78, 77
2, 2014, Note_on_c, 0, 78, 0
2, 2016, Note_on_c, 0, 76, 77
2, 2046, Note_on_c, 0, 76, 0
2, 2048, Note_on_c, 0, 78, 78
2, 2078, Note_on_c, 0, 78, 0
2, 2080, Note_on_c, 0, 79, 78
2, 2110, Note_on_c, 0, 79, 0
2, 2112, Note_on_c, 0, 78, 78
2, 2142, Note_on_c, 0, 78, 0
2, 2144, Note_on_c, 0, 79, 79
2, 2174, Note_on_c, 0, 79, 0
2, 2176, Note_on_c, 0, 81, 79
2, 2206, Note_on_c, 0, 81, 0
2, 2208, Note_on_c, 0, 79, 79
2, 2238, Note_on_c, 0, 79, 0
2, 2240, Note_on_c, 0, 81, 80
2, 2270, Note_on_c, 0, 81, 0
2, 2272, Note_on_c, 0, 83, 80
2, 2302, Note_on_c, 0, 83, 0
2, 2304, Note_on_c, 0, 81, 97
2, 2343, Note_on_c, 0, 81, 0
2, 2400, Note_on_c, 0, 74, 79
2, 2489, Note_on_c, 0, 74, 0
2, 2496, Note_on_c, 0, 74, 77
2, 2511, Note_on_c, 0, 74, 0
2, 2512, Note_on_c, 0, 73, 76
2, 2527, Note_on_c, 0, 73, 0
2, 2528, Note_on_c, 0, 74, 76
2, 2543, Note_on_c, 0, 74, 0
2, 2544, Note_on_c, 0, 73, 76
2, 2559, Note_on_c, 0, 73, 0
2, 2560, Note_on_c, 0, 71, 76
2, 2575, Note_on_c, 0, 71, 0
2, 2576, Note_on_c, 0, 73, 75
2, 2591, Note_on_c, 0, 73, 0
2, 2592, Note_on_c, 0, 74, 75
2, 2769, Note_on_c, 0, 74, 0
2, 2880, Note_on_c, 0, 62, 75
2, 2898, Note_on_c, 0, 62, 0
2, 2898, Note_on_c, 0, 67, 75
2, 2916, Note_on_c, 0, 67, 0
2, 2916, Note_on_c, 0, 71, 75
2, 2934, Note_on_c, 0, 71, 0
2, 2934, Note_on_c, 0, 74, 75
2, 3043, Note_on_c, 0, 74, 0
2, 3048, Note_on_c, 0, 72, 75
2, 3060, Note_on_c, 0, 72, 0
2, 3060, Note_on_c, 0, 74, 75
2, 3072, Note_on_c, 0, 74, 0
2, 3072, Note_on_c, 0, 76, 75
2, 3139, Note_on_c, 0, 76, 0
2, 3144, Note_on_c, 0, 71, 75
2, 3167, Note_on_c, 0, 71, 0
2, 3168, Note_on_c, 0, 74, 75
2, 3235, Note_on_c, 0, 74, 0
2, 3240, Note_on_c, 0, 72, 75
2, 3263, Note_on_c, 0, 72, 0
2, 3264, Note_on_c, 0, 69, 75
2, 3427, Note_on_c, 0, 69, 0
2, 3432, Note_on_c, 0, 72, 75
2, 3455, Note_on_c, 0, 72, 0
2, 3456, Note_on_c, 0, 62, 75
2, 3474, Note_on_c, 0, 62, 0
2, 3474, Note_on_c, 0, 66, 75
2, 3492, Note_on_c, 0, 66, 0
2, 3492, Note_on_c, 0, 67, 75
2, 3510, Note_on_c, 0, 67, 0
2, 3510, Note_on_c, 0, 71, 75
2, 3619, Note_on_c, 0, 71, 0
2, 3624, Note_on_c, 0, 69, 75
2, 3636, Note_on_c, 0, 69, 0
2, 3636, Note_on_c, 0, 71, 75
2, 3648, Note_on_c, 0, 71, 0
2, 3648, Note_on_c, 0, 72, 75
2, 3715, Note_on_c, 0, 72, 0
2, 3720, Note_on_c, 0, 69, 75
2, 3743, Note_on_c, 0, 69, 0
2, 3744, Note_on_c, 0, 67, 75
2, 3833, Note_on_c, 0, 67, 0
2, 3840, Note_on_c, 0, 67, 75
2, 3855, Note_on_c, 0, 67, 0
2, 3856, Note_on_c, 0, 66, 75
2, 3871, Note_on_c, 0, 66, 0
2, 3872, Note_on_c, 0, 67, 75
2, 3887, Note_on_c, 0, 67, 0
2, 3888, Note_on_c, 0, 66, 75
2, 3903, Note_on_c, 0, 66, 0
2, 3904, Note_on_c, 0, 64, 75
2, 3919, Note_on_c, 0, 64, 0
2, 3920, Note_on_c, 0, 66, 75
2, 3935, Note_on_c, 0, 66, 0
2, 3936, Note_on_c, 0, 67, 75
2, 4003, Note_on_c, 0, 67, 0
2, 4008, Note_on_c, 0, 62, 75
2, 4031, Note_on_c, 0, 62, 0
2, 4032, Note_on_c, 0, 64, 75
2, 4099, Note_on_c, 0, 64, 0
2, 4104, Note_on_c, 0, 66, 75
2, 4116, Note_on_c, 0, 66, 0
2, 4116, Note_on_c, 0, 67, 75
2, 4128, Note_on_c, 0, 67, 0
2, 4128, Note_on_c, 0, 66, 75
2, 4217, Note_on_c, 0, 66, 0
2, 4296, Note_on_c, 0, 67, 75
2, 4319, Note_on_c, 0, 67, 0
2, 4320, Note_on_c, 0, 69, 75
2, 4387, Note_on_c, 0, 69, 0
2, 4392, Note_on_c, 0, 71, 75
2, 4404, Note_on_c, 0, 71, 0
2, 4404, Note_on_c, 0, 72, 75
2, 4416, Note_on_c, 0, 72, 0
2, 4416, Note_on_c, 0, 71, 75
2, 4505, Note_on_c, 0, 71, 0
2, 4584, Note_on_c, 0, 69, 75
2, 4607, Note_on_c, 0, 69, 0
2, 4608, Note_on_c, 0, 71, 75
2, 4638, Note_on_c, 0, 71, 0
2, 4640, Note_on_c, 0, 73, 75
2, 4670, Note_on_c, 0, 73, 0
2, 4672, Note_on_c, 0, 74, 75
2, 4702, Note_on_c, 0, 74, 0
2, 4704, Note_on_c, 0, 73, 75
2, 4734, Note_on_c, 0, 73, 0
2, 4736, Note_on_c, 0, 74, 76
2, 4766, Note_on_c, 0, 74, 0
2, 4768, Note_on_c, 0, 76, 76
2, 4798, Note_on_c, 0, 76, 0
2, 4800, Note_on_c, 0, 74, 76
2, 4830, Note_on_c, 0, 74, 0
2, 4832, Note_on_c, 0, 76, 77
2, 4862, Note_on_c, 0, 76, 0
2, 4864, Note_on_c, 0, 78, 77
2, 4894, Note_on_c, 0, 78, 0
2, 4896, Note_on_c, 0, 76, 77
2, 4926, Note_on_c, 0, 76, 0
2, 4928, Note_on_c, 0, 78, 78
2, 4958, Note_on_c, 0, 78, 0
2, 4960, Note_on_c, 0, 79, 78
2, 4990, Note_on_c, 0, 79, 0
2, 4992, Note_on_c, 0, 78, 78
2, 5022, Note_on_c, 0, 78, 0
2, 5024, Note_on_c, 0, 79, 79
2, 5054, Note_on_c, 0, 79, 0
2, 5056, Note_on_c, 0, 81, 79
2, 5086, Note_on_c, 0, 81, 0
2, 5088, Note_on_c, 0, 79, 79
2, 5118, Note_on_c, 0, 79, 0
2, 5120, Note_on_c, 0, 81, 80
2, 5150, Note_on_c, 0, 81, 0
2, 5152, Note_on_c, 0, 83, 80
2, 5182, Note_on_c, 0, 83, 0
2, 5184, Note_on_c, 0, 81, 97
2, 5223, Note_on_c, 0, 81, 0
2, 5280, Note_on_c, 0, 74, 79
2, 5369, Note_on_c, 0, 74, 0
2, 5376, Note_on_c, 0, 74, 77
2, 5391, Note_on_c, 0, 74, 0
2, 5392, Note_on_c, 0, 73, 76
2, 5407, Note_on_c, 0, 73, 0
2, 5408, Note_on_c, 0, 74, 76
2, 5423, Note_on_c, 0, 74, 0
2, 5424, Note_on_c, 0, 73, 76
2, 5439, Note_on_c, 0, 73, 0
2, 5440, Note_on_c, 0, 71, 76
2, 5455, Note_on_c, 0, 71, 0
2, 5456, Note_on_c, 0, 73, 75
2, 5471, Note_on_c, 0, 73, 0
2, 5472, Note_on_c, 0, 74, 75
2, 5649, Note_on_c, 0, 74, 0
2, 5760, Note_on_c, 0, 74, 75
2, 5778, Note_on_c, 0, 74, 0
2, 5778, Note_on_c, 0, 78, 75
2, 5796, Note_on_c, 0, 78, 0
2, 5796, Note_on_c, 0, 81, 75
2, 5814, Note_on_c, 0, 81, 0
2, 5814, Note_on_c, 0, 84, 75
2, 5923, Note_on_c, 0, 84, 0
2, 5928, Note_on_c, 0, 81, 75
2, 5951, Note_on_c, 0, 81, 0
2, 5952, Note_on_c, 0, 83, 75
2, 6019, Note_on_c, 0, 83, 0
2, 6024, Note_on_c, 0, 79, 75
2, 6047, Note_on_c, 0, 79, 0
2, 6048, Note_on_c, 0, 74, 75
2, 6137, Note_on_c, 0, 74, 0
2, 6144, Note_on_c, 0, 74, 75
2, 6159, Note_on_c, 0, 74, 0
2, 6160, Note_on_c, 0, 72, 75
2, 6175, Note_on_c, 0, 72, 0
2, 6176, Note_on_c, 0, 74, 75
2, 6191, Note_on_c, 0, 74, 0
2, 6192, Note_on_c, 0, 72, 75
2, 6207, Note_on_c, 0, 72, 0
2, 6208, Note_on_c, 0, 71, 75
2, 6223, Note_on_c, 0, 71, 0
2, 6224, Note_on_c, 0, 72, 75
2, 6239, Note_on_c, 0, 72, 0
2, 6240, Note_on_c, 0, 71, 75
2, 6329, Note_on_c, 0, 71, 0
2, 6336, Note_on_c, 0, 74, 66
2, 6354, Note_on_c, 0, 74, 0
2, 6354, Note_on_c, 0, 78, 66
2, 6372, Note_on_c, 0, 78, 0
2, 6372, Note_on_c, 0, 81, 66
2, 6390, Note_on_c, 0, 81, 0
2, 6390, Note_on_c, 0, 84, 66
2, 6499, Note_on_c, 0, 84, 0
2, 6504, Note_on_c, 0, 81, 66
2, 6527, Note_on_c, 0, 81, 0
2, 6528, Note_on_c, 0, 83, 66
2, 6595, Note_on_c, 0, 83, 0
2, 6600, Note_on_c, 0, 79, 66
2, 6623, Note_on_c, 0, 79, 0
2, 6624, Note_on_c, 0, 74, 66
2, 6713, Note_on_c, 0, 74, 0
2, 6720, Note_on_c, 0, 74, 66
2, 6735, Note_on_c, 0, 74, 0
2, 6736, Note_on_c, 0, 72, 66
2, 6751, Note_on_c, 0, 72, 0
2, 6752, Note_on_c, 0, 74, 66
2, 6767, Note_on_c, 0, 74, 0
2, 6768, Note_on_c, 0, 72, 66
2, 6783, Note_on_c, 0, 72, 0
2, 6784, Note_on_c, 0, 71, 66
2, 6799, Note_on_c, 0, 71, 0
2, 6800, Note_on_c, 0, 72, 66
2, 6815, Note_on_c, 0, 72, 0
2, 6816, Note_on_c, 0, 71, 66
2, 6905, Note_on_c, 0, 71, 0
2, 6912, Note_on_c, 0, 69, 75
2, 6935, Note_on_c, 0, 69, 0
2, 6936, Note_on_c, 0, 71, 75
2, 6959, Note_on_c, 0, 71, 0
2, 6960, Note_on_c, 0, 72, 75
2, 6983, Note_on_c, 0, 72, 0
2, 6984, Note_on_c, 0, 71, 75
2, 7007, Note_on_c, 0, 71, 0
2, 7008, Note_on_c, 0, 69, 75
2, 7097, Note_on_c, 0, 69, 0
2, 7200, Note_on_c, 0, 71, 75
2, 7223, Note_on_c, 0, 71, 0
2, 7224, Note_on_c, 0, 72, 75
2, 7247, Note_on_c, 0, 72, 0
2, 7248, Note_on_c, 0, 74, 75
2, 7271, Note_on_c, 0, 74, 0
2, 7272, Note_on_c, 0, 72, 75
2, 7295, Note_on_c, 0, 72, 0
2, 7296, Note_on_c, 0, 71, 75
2, 7385, Note_on_c, 0, 71, 0
2, 7536, Note_on_c, 0, 71, 75
2, 7581, Note_on_c, 0, 71, 0
2, 7584, Note_on_c, 0, 79, 75
2, 7629, Note_on_c, 0, 79, 0
2, 7632, Note_on_c, 0, 76, 75
2, 7677, Note_on_c, 0, 76, 0
2, 7680, Note_on_c, 0, 74, 75
2, 7692, Note_on_c, 0, 74, 0
2, 7692, Note_on_c, 0, 76, 75
2, 7704, Note_on_c, 0, 76, 0
2, 7704, Note_on_c, 0, 74, 75
2, 7725, Note_on_c, 0, 74, 0
2, 7728, Note_on_c, 0, 73, 75
2, 7773, Note_on_c, 0, 73, 0
2, 7776, Note_on_c, 0, 73, 75
2, 7872, Note_on_c, 0, 73, 0
2, 7872, Note_on_c, 0, 74, 75
2, 7953, Note_on_c, 0, 74, 0
2, 8064, Note_on_c, 0, 62, 75
2, 8082, Note_on_c, 0, 62, 0
2, 8082, Note_on_c, 0, 67, 75
2, 8100, Note_on_c, 0, 67, 0
2, 8100, Note_on_c, 0, 71, 75
2, 8118, Note_on_c, 0, 71, 0
2, 8118, Note_on_c, 0, 74, 75
2, 8227, Note_on_c, 0, 74, 0
2, 8232, Note_on_c, 0, 72, 75
2, 8244, Note_on_c, 0, 72, 0
2, 8244, Note_on_c, 0, 74, 75
2, 8256, Note_on_c, 0, 74, 0
2, 8256, Note_on_c, 0, 76, 75
2, 8323, Note_on_c, 0, 76, 0
2, 8328, Note_on_c, 0, 71, 75
2, 8351, Note_on_c, 0, 71, 0
2, 8352, Note_on_c, 0, 74, 75
2, 8419, Note_on_c, 0, 74, 0
2, 8424, Note_on_c, 0, 72, 75
2, 8447, Note_on_c, 0, 72, 0
2, 8448, Note_on_c, 0, 69, 75
2, 8611, Note_on_c, 0, 69, 0
2, 8616, Note_on_c, 0, 72, 75
2, 8639, Note_on_c, 0, 72, 0
2, 8640, Note_on_c, 0, 62, 75
2, 8658, Note_on_c, 0, 62, 0
2, 8658, Note_on_c, 0, 66, 75
2, 8676, Note_on_c, 0, 66, 0
2, 8676, Note_on_c, 0, 67, 75
2, 8694, Note_on_c, 0, 67, 0
2, 8694, Note_on_c, 0, 71, 75
2, 8803, Note_on_c, 0, 71, 0
2, 8808, Note_on_c, 0, 69, 75
2, 8820, Note_on_c, 0, 69, 0
2, 8820, Note_on_c, 0, 71, 75
2, 8832, Note_on_c, 0, 71, 0
2, 8832, Note_on_c, 0, 72, 75
2, 8899, Note_on_c, 0, 72, 0
2, 8904, Note_on_c, 0, 69, 75
2, 8927, Note_on_c, 0, 69, 0
2, 8928, Note_on_c, 0, 67, 75
2, 9017, Note_on_c, 0, 67, 0
2, 9024, Note_on_c, 0, 67, 75
2, 9039, Note_on_c, 0, 67, 0
2, 9040, Note_on_c, 0, 66, 75
2, 9055, Note_on_c, 0, 66, 0
2, 9056, Note_on_c, 0, 67, 75
2, 9071, Note_on_c, 0, 67, 0
2, 9072, Note_on_c, 0, 66, 75
2, 9087, Note_on_c, 0, 66, 0
2, 9088, Note_on_c, 0, 64, 75
2, 9103, Note_on_c, 0, 64, 0
2, 9104, Note_on_c, 0, 66, 75
2, 9119, Note_on_c, 0, 66, 0
2, 9120, Note_on_c, 0, 67, 75
2, 9187, Note_on_c, 0, 67, 0
2, 9192, Note_on_c, 0, 62, 75
2, 9215, Note_on_c, 0, 62, 0
2, 9216, Note_on_c, 0, 64, 75
2, 9283, Note_on_c, 0, 64, 0
2, 9288, Note_on_c, 0, 66, 75
2, 9300, Note_on_c, 0, 66, 0
2, 9300, Note_on_c, 0, 67, 75
2, 9312, Note_on_c, 0, 67, 0
2, 9312, Note_on_c, 0, 66, 75
2, 9401, Note_on_c, 0, 66, 0
2, 9480, Note_on_c, 0, 67, 75
2, 9503, Note_on_c, 0, 67, 0
2, 9504, Note_on_c, 0, 69, 75
2, 9571, Note_on_c, 0, 69, 0
2, 9576, Note_on_c, 0, 71, 75
2, 9588, Note_on_c, 0, 71, 0
2, 9588, Note_on_c, 0, 72, 75
2, 9600, Note_on_c, 0, 72, 0
2, 9600, Note_on_c, 0, 71, 75
2, 9689, Note_on_c, 0, 71, 0
2, 9768, Note_on_c, 0, 62, 75
2, 9791, Note_on_c, 0, 62, 0
2, 9792, Note_on_c, 0, 64, 75
2, 9822, Note_on_c, 0, 64, 0
2, 9824, Note_on_c, 0, 66, 75
2, 9854, Note_on_c, 0, 66, 0
2, 9856, Note_on_c, 0, 67, 75
2, 9886, Note_on_c, 0, 67, 0
2, 9888, Note_on_c, 0, 66, 75
2, 9918, Note_on_c, 0, 66, 0
2, 9920, Note_on_c, 0, 67, 76
2, 9950, Note_on_c, 0, 67, 0
2, 9952, Note_on_c, 0, 69, 76
2, 9982, Note_on_c, 0, 69, 0
2, 9984, Note_on_c, 0, 67, 76
2, 10014, Note_on_c, 0, 67, 0
2, 10016, Note_on_c, 0, 69, 77
2, 10046, Note_on_c, 0, 69, 0
2, 10048, Note_on_c, 0, 71, 77
2, 10078, Note_on_c, 0, 71, 0
2, 10080, Note_on_c, 0, 69, 77
2, 10110, Note_on_c, 0, 69, 0
2, 10112, Note_on_c, 0, 71, 78
2, 10142, Note_on_c, 0, 71, 0
2, 10144, Note_on_c, 0, 72, 78
2, 10174, Note_on_c, 0, 72, 0
2, 10176, Note_on_c, 0, 71, 78
2, 10206, Note_on_c, 0, 71, 0
2, 10208, Note_on_c, 0, 72, 79
2, 10238, Note_on_c, 0, 72, 0
2, 10240, Note_on_c, 0, 74, 79
2, 10270, Note_on_c, 0, 74, 0
2, 10272, Note_on_c, 0, 72, 79
2, 10302, Note_on_c, 0, 72, 0
2, 10304, Note_on_c, 0, 74, 80
2, 10334, Note_on_c, 0, 74, 0
2, 10336, Note_on_c, 0, 76, 80
2, 10366, Note_on_c, 0, 76, 0
2, 10368, Note_on_c, 0, 74, 97
2, 10407, Note_on_c, 0, 74, 0
2, 10464, Note_on_c, 0, 67, 79
2, 10553, Note_on_c, 0, 67, 0
2, 10560, Note_on_c, 0, 67, 77
2, 10575, Note_on_c, 0, 67, 0
2, 10576, Note_on_c, 0, 66, 76
2, 10591, Note_on_c, 0, 66, 0
2, 10592, Note_on_c, 0, 67, 76
2, 10607, Note_on_c, 0, 67, 0
2, 10608, Note_on_c, 0, 66, 76
2, 10623, Note_on_c, 0, 66, 0
2, 10624, Note_on_c, 0, 64, 76
2, 10639, Note_on_c, 0, 64, 0
2, 10640, Note_on_c, 0, 66, 75
2, 10655, Note_on_c, 0, 66, 0
2, 10656, Note_on_c, 0, 66, 75
2, 10752, Note_on_c, 0, 66, 0
2, 10752, Note_on_c, 0, 67, 75
2, 10833, Note_on_c, 0, 67, 0
2, 10944, Note_on_c, 0, 74, 75
2, 10962, Note_on_c, 0, 74, 0
2, 10962, Note_on_c, 0, 78, 75
2, 10980, Note_on_c, 0, 78, 0
2, 10980, Note_on_c, 0, 81, 75
2, 10998, Note_on_c, 0, 81, 0
2, 10998, Note_on_c, 0, 84, 75
2, 11107, Note_on_c, 0, 84, 0
2, 11112, Note_on_c, 0, 81, 75
2, 11135, Note_on_c, 0, 81, 0
2, 11136, Note_on_c, 0, 83, 75
2, 11203, Note_on_c, 0, 83, 0
2, 11208, Note_on_c, 0, 79, 75
2, 11231, Note_on_c, 0, 79, 0
2, 11232, Note_on_c, 0, 74, 75
2, 11321, Note_on_c, 0, 74, 0
2, 11328, Note_on_c, 0, 74, 75
2, 11343, Note_on_c, 0, 74, 0
2, 11344, Note_on_c, 0, 72, 75
2, 11359, Note_on_c, 0, 72, 0
2, 11360, Note_on_c, 0, 74, 75
2, 11375, Note_on_c, 0, 74, 0
2, 11376, Note_on_c, 0, 72, 75
2, 11391, Note_on_c, 0, 72, 0
2, 11392, Note_on_c, 0, 71, 75
2, 11407, Note_on_c, 0, 71, 0
2, 11408, Note_on_c, 0, 72, 75
2, 11423, Note_on_c, 0, 72, 0
2, 11424, Note_on_c, 0, 71, 75
2, 11513, Note_on_c, 0, 71, 0
2, 11520, Note_on_c, 0, 74, 66
2, 11538, Note_on_c, 0, 74, 0
2, 11538, Note_on_c, 0, 78, 66
2, 11556, Note_on_c, 0, 78, 0
2, 11556, Note_on_c, 0, 81, 66
2, 11574, Note_on_c, 0, 81, 0
2, 11574, Note_on_c, 0, 84, 66
2, 11683, Note_on_c, 0, 84, 0
2, 11688, Note_on_c, 0, 81, 66
2, 11711, Note_on_c, 0, 81, 0
2, 11712, Note_on_c, 0, 83, 66
2, 11779, Note_on_c, 0, 83, 0
2, 11784, Note_on_c, 0, 79, 66
2, 11807, Note_on_c, 0, 79, 0
2, 11808, Note_on_c, 0, 74, 66
2, 11897, Note_on_c, 0, 74, 0
2, 11904, Note_on_c, 0, 74, 66
2, 11919, Note_on_c, 0, 74, 0
2, 11920, Note_on_c, 0, 72, 66
2, 11935, Note_on_c, 0, 72, 0
2, 11936, Note_on_c, 0, 74, 66
2, 11951, Note_on_c, 0, 74, 0
2, 11952, Note_on_c, 0, 72, 66
2, 11967, Note_on_c, 0, 72, 0
2, 11968, Note_on_c, 0, 71, 66
2, 11983, Note_on_c, 0, 71, 0
2, 11984, Note_on_c, 0, 72, 66
2, 11999, Note_on_c, 0, 72, 0
2, 12000, Note_on_c, 0, 71, 66
2, 12089, Note_on_c, 0, 71, 0
2, 12096, Note_on_c, 0, 69, 75
2, 12119, Note_on_c, 0, 69, 0
2, 12120, Note_on_c, 0, 71, 75
2, 12143, Note_on_c, 0, 71, 0
2, 12144, Note_on_c, 0, 72, 75
2, 12167, Note_on_c, 0, 72, 0
2, 12168, Note_on_c, 0, 71, 75
2, 12191, Note_on_c, 0, 71, 0
2, 12192, Note_on_c, 0, 69, 75
2, 12281, Note_on_c, 0, 69, 0
2, 12384, Note_on_c, 0, 71, 75
2, 12407, Note_on_c, 0, 71, 0
2, 12408, Note_on_c, 0, 72, 75
2, 12431, Note_on_c, 0, 72, 0
2, 12432, Note_on_c, 0, 74, 75
2, 12455, Note_on_c, 0, 74, 0
2, 12456, Note_on_c, 0, 72, 75
2, 12479, Note_on_c, 0, 72, 0
2, 12480, Note_on_c, 0, 71, 75
2, 12569, Note_on_c, 0, 71, 0
2, 12720, Note_on_c, 0, 71, 75
2, 12765, Note_on_c, 0, 71, 0
2, 12768, Note_on_c, 0, 79, 75
2, 12813, Note_on_c, 0, 79, 0
2, 12816, Note_on_c, 0, 76, 75
2, 12861, Note_on_c, 0, 76, 0
2, 12864, Note_on_c, 0, 74, 75
2, 12876, Note_on_c, 0, 74, 0
2, 12876, Note_on_c, 0, 76, 75
2, 12888, Note_on_c, 0, 76, 0
2, 12888, Note_on_c, 0, 74, 75
2, 12909, Note_on_c, 0, 74, 0
2, 12912, Note_on_c, 0, 73, 75
2, 12957, Note_on_c, 0, 73, 0
2, 12960, Note_on_c, 0, 73, 75
2, 13056, Note_on_c, 0, 73, 0
2, 13056, Note_on_c, 0, 74, 75
2, 13137, Note_on_c, 0, 74, 0
2, 13248, Note_on_c, 0, 62, 75
2, 13266, Note_on_c, 0, 62, 0
2, 13266, Note_on_c, 0, 67, 75
2, 13284, Note_on_c, 0, 67, 0
2, 13284, Note_on_c, 0, 71, 75
2, 13302, Note_on_c, 0, 71, 0
2, 13302, Note_on_c, 0, 74, 75
2, 13411, Note_on_c, 0, 74, 0
2, 13416, Note_on_c, 0, 72, 75
2, 13428, Note_on_c, 0, 72, 0
2, 13428, Note_on_c, 0, 74, 75
2, 13440, Note_on_c, 0, 74, 0
2, 13440, Note_on_c, 0, 76, 75
2, 13507, Note_on_c, 0, 76, 0
2, 13512, Note_on_c, 0, 71, 75
2, 13535, Note_on_c, 0, 71, 0
2, 13536, Note_on_c, 0, 74, 75
2, 13603, Note_on_c, 0, 74, 0
2, 13608, Note_on_c, 0, 72, 75
2, 13631, Note_on_c, 0, 72, 0
2, 13632, Note_on_c, 0, 69, 75
2, 13795, Note_on_c, 0, 69, 0
2, 13800, Note_on_c, 0, 72, 75
2, 13823, Note_on_c, 0, 72, 0
2, 13824, Note_on_c, 0, 62, 75
2, 13842, Note_on_c, 0, 62, 0
2, 13842, Note_on_c, 0, 66, 75
2, 13860, Note_on_c, 0, 66, 0
2, 13860, Note_on_c, 0, 67, 75
2, 13878, Note_on_c, 0, 67, 0
2, 13878, Note_on_c, 0, 71, 75
2, 13987, Note_on_c, 0, 71, 0
2, 13992, Note_on_c, 0, 69, 75
2, 14004, Note_on_c, 0, 69, 0
2, 14004, Note_on_c, 0, 71, 75
2, 14016, Note_on_c, 0, 71, 0
2, 14016, Note_on_c, 0, 72, 75
2, 14083, Note_on_c, 0, 72, 0
2, 14088, Note_on_c, 0, 69, 75
2, 14111, Note_on_c, 0, 69, 0
2, 14112, Note_on_c, 0, 67, 75
2, 14201, Note_on_c, 0, 67, 0
2, 14208, Note_on_c, 0, 67, 75
2, 14223, Note_on_c, 0, 67, 0
2, 14224, Note_on_c, 0, 66, 75
2, 14239, Note_on_c, 0, 66, 0
2, 14240, Note_on_c, 0, 67, 75
2, 14255, Note_on_c, 0, 67, 0
2, 14256, Note_on_c, 0, 66, 75
2, 14271, Note_on_c, 0, 66, 0
2, 14272, Note_on_c, 0, 64, 75
2, 14287, Note_on_c, 0, 64, 0
2, 14288, Note_on_c, 0, 66, 75
2, 14303, Note_on_c, 0, 66, 0
2, 14304, Note_on_c, 0, 67, 75
2, 14371, Note_on_c, 0, 67, 0
2, 14376, Note_on_c, 0, 62, 75
2, 14399, Note_on_c, 0, 62, 0
2, 14400, Note_on_c, 0, 64, 75
2, 14467, Note_on_c, 0, 64, 0
2, 14472, Note_on_c, 0, 66, 75
2, 14484, Note_on_c, 0, 66, 0
2, 14484, Note_on_c, 0, 67, 75
2, 14496, Note_on_c, 0, 67, 0
2, 14496, Note_on_c, 0, 66, 75
2, 14585, Note_on_c, 0, 66, 0
2, 14664, Note_on_c, 0, 67, 75
2, 14687, Note_on_c, 0, 67, 0
2, 14688, Note_on_c, 0, 69, 75
2, 14755, Note_on_c, 0, 69, 0
2, 14760, Note_on_c, 0, 71, 75
2, 14772, Note_on_c, 0, 71, 0
2, 14772, Note_on_c, 0, 72, 75
2, 14784, Note_on_c, 0, 72, 0
2, 14784, Note_on_c, 0, 71, 75
2, 14873, Note_on_c, 0, 71, 0
2, 14952, Note_on_c, 0, 62, 75
2, 14975, Note_on_c, 0, 62, 0
2, 14976, Note_on_c, 0, 64, 75
2, 15006, Note_on_c, 0, 64, 0
2, 15008, Note_on_c, 0, 66, 75
2, 15038, Note_on_c, 0, 66, 0
2, 15040, Note_on_c, 0, 67, 75
2, 15070, Note_on_c, 0, 67, 0
2, 15072, Note_on_c, 0, 66, 75
2, 15102, Note_on_c, 0, 66, 0
2, 15104, Note_on_c, 0, 67, 76
2, 15134, Note_on_c, 0, 67, 0
2, 15136, Note_on_c, 0, 69, 76
2, 15166, Note_on_c, 0, 69, 0
2, 15168, Note_on_c, 0, 67, 76
2, 15198, Note_on_c, 0, 67, 0
2, 15200, Note_on_c, 0, 69, 77
2, 15230, Note_on_c, 0, 69, 0
2, 15232, Note_on_c, 0, 71, 77
2, 15262, Note_on_c, 0, 71, 0
2, 15264, Note_on_c, 0, 69, 77
2, 15294, Note_on_c, 0, 69, 0
2, 15296, Note_on_c, 0, 71, 78
2, 15326, Note_on_c, 0, 71, 0
2, 15328, Note_on_c, 0, 72, 78
2, 15358, Note_on_c, 0, 72, 0
2, 15360, Note_on_c, 0, 71, 78
2, 15390, Note_on_c, 0, 71, 0
2, 15392, Note_on_c, 0, 72, 79
2, 15422, Note_on_c, 0, 72, 0
2, 15424, Note_on_c, 0, 74, 79
2, 15454, Note_on_c, 0, 74, 0
2, 15456, Note_on_c, 0, 72, 79
2, 15486, Note_on_c, 0, 72, 0
2, 15488, Note_on_c, 0, 74, 80
2, 15518, Note_on_c, 0, 74, 0
2, 15520, Note_on_c, 0, 76, 80
2, 15550, Note_on_c, 0, 76, 0
2, 15552, Note_on_c, 0, 74, 97
2, 15591, Note_on_c, 0, 74, 0
2, 15648, Note_on_c, 0, 67, 79
2, 15737, Note_on_c, 0, 67, 0
2, 15744, Note_on_c, 0, 67, 77
2, 15759, Note_on_c, 0, 67, 0
2, 15760, Note_on_c, 0, 66, 76
2, 15775, Note_on_c, 0, 66, 0
2, 15776, Note_on_c, 0, 67, 76
2, 15791, Note_on_c, 0, 67, 0
2, 15792, Note_on_c, 0, 66, 76
2, 15807, Note_on_c, 0, 66, 0
2, 15808, Note_on_c, 0, 64, 76
2, 15823, Note_on_c, 0, 64, 0
2, 15824, Note_on_c, 0, 66, 75
2, 15839, Note_on_c, 0, 66, 0
2, 15840, Note_on_c, 0, 66, 75
2, 15936, Note_on_c, 0, 66, 0
2, 15936, Note_on_c, 0, 67, 75
2, 16017, Note_on_c, 0, 67, 0
2, 16176, Note_on_c, 0, 74, 70
2, 16221, Note_on_c, 0, 74, 0
2, 16224, Note_on_c, 0, 75, 70
2, 16236, Note_on_c, 0, 75, 0
2, 16236, Note_on_c, 0, 77, 70
2, 16248, Note_on_c, 0, 77, 0
2, 16248, Note_on_c, 0, 75, 70
2, 16269, Note_on_c, 0, 75, 0
2, 16272, Note_on_c, 0, 74, 70
2, 16317, Note_on_c, 0, 74, 0
2, 16320, Note_on_c, 0, 75, 70
2, 16332, Note_on_c, 0, 75, 0
2, 16332, Note_on_c, 0, 77, 70
2, 16344, Note_on_c, 0, 77, 0
2, 16344, Note_on_c, 0, 75, 70
2, 16365, Note_on_c, 0, 75, 0
2, 16368, Note_on_c, 0, 74, 70
2, 16413, Note_on_c, 0, 74, 0
2, 16416, Note_on_c, 0, 73, 70
2, 16446, Note_on_c, 0, 73, 0
2, 16448, Note_on_c, 0, 74, 70
2, 16478, Note_on_c, 0, 74, 0
2, 16480, Note_on_c, 0, 76, 70
2, 16510, Note_on_c, 0, 76, 0
2, 16512, Note_on_c, 0, 76, 70
2, 16542, Note_on_c, 0, 76, 0
2, 16544, Note_on_c, 0, 77, 70
2, 16574, Note_on_c, 0, 77, 0
2, 16576, Note_on_c, 0, 79, 71
2, 16606, Note_on_c, 0, 79, 0
2, 16608, Note_on_c, 0, 79, 71
2, 16638, Note_on_c, 0, 79, 0
2, 16640, Note_on_c, 0, 81, 71
2, 16670, Note_on_c, 0, 81, 0
2, 16672, Note_on_c, 0, 82, 71
2, 16702, Note_on_c, 0, 82, 0
2, 16704, Note_on_c, 0, 81, 87
2, 16752, Note_on_c, 0, 81, 0
2, 16752, Note_on_c, 0, 73, 72
2, 16797, Note_on_c, 0, 73, 0
2, 16800, Note_on_c, 0, 74, 72
2, 16812, Note_on_c, 0, 74, 0
2, 16812, Note_on_c, 0, 75, 72
2, 16824, Note_on_c, 0, 75, 0
2, 16824, Note_on_c, 0, 74, 72
2, 16845, Note_on_c, 0, 74, 0
2, 16848, Note_on_c, 0, 73, 73
2, 16893, Note_on_c, 0, 73, 0
2, 16896, Note_on_c, 0, 74, 73
2, 16908, Note_on_c, 0, 74, 0
2, 16908, Note_on_c, 0, 75, 73
2, 16920, Note_on_c, 0, 75, 0
2, 16920, Note_on_c, 0, 74, 73
2, 16941, Note_on_c, 0, 74, 0
2, 16944, Note_on_c, 0, 72, 73
2, 16989, Note_on_c, 0, 72, 0
2, 16992, Note_on_c, 0, 71, 74
2, 17022, Note_on_c, 0, 71, 0
2, 17024, Note_on_c, 0, 72, 74
2, 17054, Note_on_c, 0, 72, 0
2, 17056, Note_on_c, 0, 74, 74
2, 17086, Note_on_c, 0, 74, 0
2, 17088, Note_on_c, 0, 74, 74
2, 17118, Note_on_c, 0, 74, 0
2, 17120, Note_on_c, 0, 75, 75
2, 17150, Note_on_c, 0, 75, 0
2, 17152, Note_on_c, 0, 77, 75
2, 17182, Note_on_c, 0, 77, 0
2, 17184, Note_on_c, 0, 77, 75
2, 17214, Note_on_c, 0, 77, 0
2, 17216, Note_on_c, 0, 79, 75
2, 17246, Note_on_c, 0, 79, 0
2, 17248, Note_on_c, 0, 80, 75
2, 17278, Note_on_c, 0, 80, 0
2, 17280, Note_on_c, 0, 79, 92
2, 17328, Note_on_c, 0, 79, 0
2, 17328, Note_on_c, 0, 71, 76
2, 17373, Note_on_c, 0, 71, 0
2, 17376, Note_on_c, 0, 72, 76
2, 17388, Note_on_c, 0, 72, 0
2, 17388, Note_on_c, 0, 74, 76
2, 17400, Note_on_c, 0, 74, 0
2, 17400, Note_on_c, 0, 72, 76
2, 17421, Note_on_c, 0, 72, 0
2, 17424, Note_on_c, 0, 71, 77
2, 17469, Note_on_c, 0, 71, 0
2, 17472, Note_on_c, 0, 72, 77
2, 17484, Note_on_c, 0, 72, 0
2, 17484, Note_on_c, 0, 74, 77
2, 17496, Note_on_c, 0, 74, 0
2, 17496, Note_on_c, 0, 72, 77
2, 17517, Note_on_c, 0, 72, 0
2, 17520, Note_on_c, 0, 70, 77
2, 17565, Note_on_c, 0, 70, 0
2, 17568, Note_on_c, 0, 69, 78
2, 17598, Note_on_c, 0, 69, 0
2, 17600, Note_on_c, 0, 70, 78
2, 17630, Note_on_c, 0, 70, 0
2, 17632, Note_on_c, 0, 72, 78
2, 17662, Note_on_c, 0, 72, 0
2, 17664, Note_on_c, 0, 72, 78
2, 17694, Note_on_c, 0, 72, 0
2, 17696, Note_on_c, 0, 74, 79
2, 17726, Note_on_c, 0, 74, 0
2, 17728, Note_on_c, 0, 75, 79
2, 17758, Note_on_c, 0, 75, 0
2, 17760, Note_on_c, 0, 75, 79
2, 17790, Note_on_c, 0, 75, 0
2, 17792, Note_on_c, 0, 77, 79
2, 17822, Note_on_c, 0, 77, 0
2, 17824, Note_on_c, 0, 79, 80
2, 17854, Note_on_c, 0, 79, 0
2, 17856, Note_on_c, 0, 77, 96
2, 17904, Note_on_c, 0, 77, 0
2, 17904, Note_on_c, 0, 69, 81
2, 17949, Note_on_c, 0, 69, 0
2, 17952, Note_on_c, 0, 70, 81
2, 17964, Note_on_c, 0, 70, 0
2, 17964, Note_on_c, 0, 72, 81
2, 17976, Note_on_c, 0, 72, 0
2, 17976, Note_on_c, 0, 70, 81
2, 17997, Note_on_c, 0, 70, 0
2, 18000, Note_on_c, 0, 69, 81
2, 18045, Note_on_c, 0, 69, 0
2, 18048, Note_on_c, 0, 70, 81
2, 18093, Note_on_c, 0, 70, 0
2, 18096, Note_on_c, 0, 62, 81
2, 18141, Note_on_c, 0, 62, 0
2, 18144, Note_on_c, 0, 63, 97
2, 18192, Note_on_c, 0, 63, 0
2, 18192, Note_on_c, 0, 69, 81
2, 18237, Note_on_c, 0, 69, 0
2, 18240, Note_on_c, 0, 70, 81
2, 18252, Note_on_c, 0, 70, 0
2, 18252, Note_on_c, 0, 72, 81
2, 18264, Note_on_c, 0, 72, 0
2, 18264, Note_on_c, 0, 70, 81
2, 18285, Note_on_c, 0, 70, 0
2, 18288, Note_on_c, 0, 69, 81
2, 18333, Note_on_c, 0, 69, 0
2, 18336, Note_on_c, 0, 70, 81
2, 18381, Note_on_c, 0, 70, 0
2, 18384, Note_on_c, 0, 64, 81
2, 18429, Note_on_c, 0, 64, 0
2, 18432, Note_on_c, 0, 65, 97
2, 18480, Note_on_c, 0, 65, 0
2, 18480, Note_on_c, 0, 69, 81
2, 18525, Note_on_c, 0, 69, 0
2, 18528, Note_on_c, 0, 70, 81
2, 18540, Note_on_c, 0, 70, 0
2, 18540, Note_on_c, 0, 72, 81
2, 18552, Note_on_c, 0, 72, 0
2, 18552, Note_on_c, 0, 70, 81
2, 18573, Note_on_c, 0, 70, 0
2, 18576, Note_on_c, 0, 69, 81
2, 18621, Note_on_c, 0, 69, 0
2, 18624, Note_on_c, 0, 70, 81
2, 18669, Note_on_c, 0, 70, 0
2, 18672, Note_on_c, 0, 66, 81
2, 18717, Note_on_c, 0, 66, 0
2, 18720, Note_on_c, 0, 67, 97
2, 18768, Note_on_c, 0, 67, 0
2, 18768, Note_on_c, 0, 69, 81
2, 18813, Note_on_c, 0, 69, 0
2, 18816, Note_on_c, 0, 70, 81
2, 18828, Note_on_c, 0, 70, 0
2, 18828, Note_on_c, 0, 72, 81
2, 18840, Note_on_c, 0, 72, 0
2, 18840, Note_on_c, 0, 70, 81
2, 18861, Note_on_c, 0, 70, 0
2, 18864, Note_on_c, 0, 69, 81
2, 18909, Note_on_c, 0, 69, 0
2, 18912, Note_on_c, 0, 70, 81
2, 18957, Note_on_c, 0, 70, 0
2, 18960, Note_on_c, 0, 62, 81
2, 19005, Note_on_c, 0, 62, 0
2, 19008, Note_on_c, 0, 63, 81
2, 19053, Note_on_c, 0, 63, 0
2, 19056, Note_on_c, 0, 62, 81
2, 19101, Note_on_c, 0, 62, 0
2, 19104, Note_on_c, 0, 63, 81
2, 19149, Note_on_c, 0, 63, 0
2, 19152, Note_on_c, 0, 60, 81
2, 19197, Note_on_c, 0, 60, 0
2, 19200, Note_on_c, 0, 65, 81
2, 19245, Note_on_c, 0, 65, 0
2, 19248, Note_on_c, 0, 57, 81
2, 19293, Note_on_c, 0, 57, 0
2, 19296, Note_on_c, 0, 58, 81
2, 19308, Note_on_c, 0, 58, 0
2, 19308, Note_on_c, 0, 57, 81
2, 19320, Note_on_c, 0, 57, 0
2, 19320, Note_on_c, 0, 55, 81
2, 19332, Note_on_c, 0, 55, 0
2, 19332, Note_on_c, 0, 57, 81
2, 19385, Note_on_c, 0, 57, 0
2, 19392, Note_on_c, 0, 58, 81
2, 19481, Note_on_c, 0, 58, 0
2, 19632, Note_on_c, 0, 74, 70
2, 19677, Note_on_c, 0, 74, 0
2, 19680, Note_on_c, 0, 75, 70
2, 19692, Note_on_c, 0, 75, 0
2, 19692, Note_on_c, 0, 77, 70
2, 19704, Note_on_c, 0, 77, 0
2, 19704, Note_on_c, 0, 75, 70
2, 19725, Note_on_c, 0, 75, 0
2, 19728, Note_on_c, 0, 74, 70
2, 19773, Note_on_c, 0, 74, 0
2, 19776, Note_on_c, 0, 75, 70
2, 19788, Note_on_c, 0, 75, 0
2, 19788, Note_on_c, 0, 77, 70
2, 19800, Note_on_c, 0, 77, 0
2, 19800, Note_on_c, 0, 75, 70
2, 19821, Note_on_c, 0, 75, 0
2, 19824, Note_on_c, 0, 74, 70
2, 19869, Note_on_c, 0, 74, 0
2, 19872, Note_on_c, 0, 73, 70
2, 19902, Note_on_c, 0, 73, 0
2, 19904, Note_on_c, 0, 74, 70
2, 19934, Note_on_c, 0, 74, 0
2, 19936, Note_on_c, 0, 76, 70
2, 19966, Note_on_c, 0, 76, 0
2, 19968, Note_on_c, 0, 76, 70
2, 19998, Note_on_c, 0, 76, 0
2, 20000, Note_on_c, 0, 77, 70
2, 20030, Note_on_c, 0, 77, 0
2, 20032, Note_on_c, 0, 79, 71
2, 20062, Note_on_c, 0, 79, 0
2, 20064, Note_on_c, 0, 79, 71
2, 20094, Note_on_c, 0, 79, 0
2, 20096, Note_on_c, 0, 81, 71
2, 20126, Note_on_c, 0, 81, 0
2, 20128, Note_on_c, 0, 82, 71
2, 20158, Note_on_c, 0, 82, 0
2, 20160, Note_on_c, 0, 81, 87
2, 20208, Note_on_c, 0, 81, 0
2, 20208, Note_on_c, 0, 73, 72
2, 20253, Note_on_c, 0, 73, 0
2, 20256, Note_on_c, 0, 74, 72
2, 20268, Note_on_c, 0, 74, 0
2, 20268, Note_on_c, 0, 75, 72
2, 20280, Note_on_c, 0, 75, 0
2, 20280, Note_on_c, 0, 74, 72
2, 20301, Note_on_c, 0, 74, 0
2, 20304, Note_on_c, 0, 73, 73
2, 20349, Note_on_c, 0, 73, 0
2, 20352, Note_on_c, 0, 74, 73
2, 20364, Note_on_c, 0, 74, 0
2, 20364, Note_on_c, 0, 75, 73
2, 20376, Note_on_c, 0, 75, 0
2, 20376, Note_on_c, 0, 74, 73
2, 20397, Note_on_c, 0, 74, 0
2, 20400, Note_on_c, 0, 72, 73
2, 20445, Note_on_c, 0, 72, 0
2, 20448, Note_on_c, 0, 71, 74
2, 20478, Note_on_c, 0, 71, 0
2, 20480, Note_on_c, 0, 72, 74
2, 20510, Note_on_c, 0, 72, 0
2, 20512, Note_on_c, 0, 74, 74
2, 20542, Note_on_c, 0, 74, 0
2, 20544, Note_on_c, 0, 74, 74
2, 20574, Note_on_c, 0, 74, 0
2, 20576, Note_on_c, 0, 75, 75
2, 20606, Note_on_c, 0, 75, 0
2, 20608, Note_on_c, 0, 77, 75
2, 20638, Note_on_c, 0, 77, 0
2, 20640, Note_on_c, 0, 77, 75
2, 20670, Note_on_c, 0, 77, 0
2, 20672, Note_on_c, 0, 79, 75
2, 20702, Note_on_c, 0, 79, 0
2, 20704, Note_on_c, 0, 80, 75
2, 20734, Note_on_c, 0, 80, 0
2, 20736, Note_on_c, 0, 79, 92
2, 20784, Note_on_c, 0, 79, 0
2, 20784, Note_on_c, 0, 71, 76
2, 20829, Note_on_c, 0, 71, 0
2, 20832, Note_on_c, 0, 72, 76
2, 20844, Note_on_c, 0, 72, 0
2, 20844, Note_on_c, 0, 74, 76
2, 20856, Note_on_c, 0, 74, 0
2, 20856, Note_on_c, 0, 72, 76
2, 20877, Note_on_c, 0, 72, 0
2, 20880, Note_on_c, 0, 71, 77
2, 20925, Note_on_c, 0, 71, 0
2, 20928, Note_on_c, 0, 72, 77
2, 20940, Note_on_c, 0, 72, 0
2, 20940, Note_on_c, 0, 74, 77
2, 20952, Note_on_c, 0, 74, 0
2, 20952, Note_on_c, 0, 72, 77
2, 20973, Note_on_c, 0, 72, 0
2, 20976, Note_on_c, 0, 70, 77
2, 21021, Note_on_c, 0, 70, 0
2, 21024, Note_on_c, 0, 69, 78
2, 21054, Note_on_c, 0, 69, 0
2, 21056, Note_on_c, 0, 70, 78
2, 21086, Note_on_c, 0, 70, 0
2, 21088, Note_on_c, 0, 72, 78
2, 21118, Note_on_c, 0, 72, 0
2, 21120, Note_on_c, 0, 72, 78
2, 21150, Note_on_c, 0, 72, 0
2, 21152, Note_on_c, 0, 74, 79
2, 21182, Note_on_c, 0, 74, 0
2, 21184, Note_on_c, 0, 75, 79
2, 21214, Note_on_c, 0, 75, 0
2, 21216, Note_on_c, 0, 75, 79
2, 21246, Note_on_c, 0, 75, 0
2, 21248, Note_on_c, 0, 77, 79
2, 21278, Note_on_c, 0, 77, 0
2, 21280, Note_on_c, 0, 79, 80
2, 21310, Note_on_c, 0, 79, 0
2, 21312, Note_on_c, 0, 77, 96
2, 21360, Note_on_c, 0, 77, 0
2, 21360, Note_on_c, 0, 69, 81
2, 21405, Note_on_c, 0, 69, 0
2, 21408, Note_on_c, 0, 70, 81
2, 21420, Note_on_c, 0, 70, 0
2, 21420, Note_on_c, 0, 72, 81
2, 21432, Note_on_c, 0, 72, 0
2, 21432, Note_on_c, 0, 70, 81
2, 21453, Note_on_c, 0, 70, 0
2, 21456, Note_on_c, 0, 69, 81
2, 21501, Note_on_c, 0, 69, 0
2, 21504, Note_on_c, 0, 70, 81
2, 21549, Note_on_c, 0, 70, 0
2, 21552, Note_on_c, 0, 62, 81
2, 21597, Note_on_c, 0, 62, 0
2, 21600, Note_on_c, 0, 63, 97
2, 21648, Note_on_c, 0, 63, 0
2, 21648, Note_on_c, 0, 69, 81
2, 21693, Note_on_c, 0, 69, 0
2, 21696, Note_on_c, 0, 70, 81
2, 21708, Note_on_c, 0, 70, 0
2, 21708, Note_on_c, 0, 72, 81
2, 21720, Note_on_c, 0, 72, 0
2, 21720, Note_on_c, 0, 70, 81
2, 21741, Note_on_c, 0, 70, 0
2, 21744, Note_on_c, 0, 69, 81
2, 21789, Note_on_c, 0, 69, 0
2, 21792, Note_on_c, 0, 70, 81
2, 21837, Note_on_c, 0, 70, 0
2, 21840, Note_on_c, 0, 64, 81
2, 21885, Note_on_c, 0, 64, 0
2, 21888, Note_on_c, 0, 65, 97
2, 21936, Note_on_c, 0, 65, 0
2, 21936, Note_on_c, 0, 69, 81
2, 21981, Note_on_c, 0, 69, 0
2, 21984, Note_on_c, 0, 70, 81
2, 21996, Note_on_c, 0, 70, 0
2, 21996, Note_on_c, 0, 72, 81
2, 22008, Note_on_c, 0, 72, 0
2, 22008, Note_on_c, 0, 70, 81
2, 22029, Note_on_c, 0, 70, 0
2, 22032, Note_on_c, 0, 69, 81
2, 22077, Note_on_c, 0, 69, 0
2, 22080, Note_on_c, 0, 70, 81
2, 22125, Note_on_c, 0, 70, 0
2, 22128, Note_on_c, 0, 66, 81
2, 22173, Note_on_c, 0, 66, 0
2, 22176, Note_on_c, 0, 67, 97
2, 22224, Note_on_c, 0, 67, 0
2, 22224, Note_on_c, 0, 69, 81
2, 22269, Note_on_c, 0, 69, 0
2, 22272, Note_on_c, 0, 70, 81
2, 22284, Note_on_c, 0, 70, 0
2, 22284, Note_on_c, 0, 72, 81
2, 22296, Note_on_c, 0, 72, 0
2, 22296, Note_on_c, 0, 70, 81
2, 22317, Note_on_c, 0, 70, 0
2, 22320, Note_on_c, 0, 69, 81
2, 22365, Note_on_c, 0, 69, 0
2, 22368, Note_on_c, 0, 70, 81
2, 22413, Note_on_c, 0, 70, 0
2, 22416, Note_on_c, 0, 62, 81
2, 22461, Note_on_c, 0, 62, 0
2, 22464, Note_on_c, 0, 63, 81
2, 22509, Note_on_c, 0, 63, 0
2, 22512, Note_on_c, 0, 62, 81
2, 22557, Note_on_c, 0, 62, 0
2, 22560, Note_on_c, 0, 63, 81
2, 22605, Note_on_c, 0, 63, 0
2, 22608, Note_on_c, 0, 60, 81
2, 22653, Note_on_c, 0, 60, 0
2, 22656, Note_on_c, 0, 65, 81
2, 22701, Note_on_c, 0, 65, 0
2, 22704, Note_on_c, 0, 57, 81
2, 22749, Note_on_c, 0, 57, 0
2, 22752, Note_on_c, 0, 58, 81
2, 22764, Note_on_c, 0, 58, 0
2, 22764, Note_on_c, 0, 57, 81
2, 22776, Note_on_c, 0, 57, 0
2, 22776, Note_on_c, 0, 55, 81
2, 22788, Note_on_c, 0, 55, 0
2, 22788, Note_on_c, 0, 57, 81
2, 22841, Note_on_c, 0, 57, 0
2, 22848, Note_on_c, 0, 58, 81
2, 22937, Note_on_c, 0, 58, 0
2, 23088, Note_on_c, 0, 65, 70
2, 23133, Note_on_c, 0, 65, 0
2, 23136, Note_on_c, 0, 67, 70
2, 23148, Note_on_c, 0, 67, 0
2, 23148, Note_on_c, 0, 68, 70
2, 23160, Note_on_c, 0, 68, 0
2, 23160, Note_on_c, 0, 67, 70
2, 23181, Note_on_c, 0, 67, 0
2, 23184, Note_on_c, 0, 65, 70
2, 23229, Note_on_c, 0, 65, 0
2, 23232, Note_on_c, 0, 67, 71
2, 23244, Note_on_c, 0, 67, 0
2, 23244, Note_on_c, 0, 68, 71
2, 23256, Note_on_c, 0, 68, 0
2, 23256, Note_on_c, 0, 67, 71
2, 23277, Note_on_c, 0, 67, 0
2, 23280, Note_on_c, 0, 65, 71
2, 23325, Note_on_c, 0, 65, 0
2, 23376, Note_on_c, 0, 68, 72
2, 23421, Note_on_c, 0, 68, 0
2, 23424, Note_on_c, 0, 67, 72
2, 23469, Note_on_c, 0, 67, 0
2, 23472, Note_on_c, 0, 68, 73
2, 23517, Note_on_c, 0, 68, 0
2, 23520, Note_on_c, 0, 67, 73
2, 23565, Note_on_c, 0, 67, 0
2, 23568, Note_on_c, 0, 68, 73
2, 23613, Note_on_c, 0, 68, 0
2, 23664, Note_on_c, 0, 67, 74
2, 23709, Note_on_c, 0, 67, 0
2, 23712, Note_on_c, 0, 68, 75
2, 23724, Note_on_c, 0, 68, 0
2, 23724, Note_on_c, 0, 70, 75
2, 23736, Note_on_c, 0, 70, 0
2, 23736, Note_on_c, 0, 68, 75
2, 23757, Note_on_c, 0, 68, 0
2, 23760, Note_on_c, 0, 67, 75
2, 23805, Note_on_c, 0, 67, 0
2, 23808, Note_on_c, 0, 68, 75
2, 23820, Note_on_c, 0, 68, 0
2, 23820, Note_on_c, 0, 70, 75
2, 23832, Note_on_c, 0, 70, 0
2, 23832, Note_on_c, 0, 68, 75
2, 23853, Note_on_c, 0, 68, 0
2, 23856, Note_on_c, 0, 67, 76
2, 23901, Note_on_c, 0, 67, 0
2, 23952, Note_on_c, 0, 70, 77
2, 23997, Note_on_c, 0, 70, 0
2, 24000, Note_on_c, 0, 69, 77
2, 24045, Note_on_c, 0, 69, 0
2, 24048, Note_on_c, 0, 70, 77
2, 24093, Note_on_c, 0, 70, 0
2, 24096, Note_on_c, 0, 69, 78
2, 24141, Note_on_c, 0, 69, 0
2, 24144, Note_on_c, 0, 70, 78
2, 24189, Note_on_c, 0, 70, 0
2, 24240, Note_on_c, 0, 69, 79
2, 24285, Note_on_c, 0, 69, 0
2, 24288, Note_on_c, 0, 70, 79
2, 24300, Note_on_c, 0, 70, 0
2, 24300, Note_on_c, 0, 72, 79
2, 24312, Note_on_c, 0, 72, 0
2, 24312, Note_on_c, 0, 70, 79
2, 24333, Note_on_c, 0, 70, 0
2, 24336, Note_on_c, 0, 69, 80
2, 24381, Note_on_c, 0, 69, 0
2, 24432, Note_on_c, 0, 74, 81
2, 24477, Note_on_c, 0, 74, 0
2, 24480, Control_c, 0, 64, 127
2, 24528, Note_on_c, 0, 75, 81
2, 24573, Note_on_c, 0, 75, 0
2, 24624, Note_on_c, 0, 84, 81
2, 24669, Note_on_c, 0, 84, 0
2, 24720, Note_on_c, 0, 75, 81
2, 24765, Note_on_c, 0, 75, 0
2, 24816, Note_on_c, 0, 74, 81
2, 24861, Note_on_c, 0, 74, 0
2, 24912, Note_on_c, 0, 82, 81
2, 24957, Note_on_c, 0, 82, 0
2, 25008, Note_on_c, 0, 74, 81
2, 25053, Note_on_c, 0, 74, 0
2, 25104, Note_on_c, 0, 72, 81
2, 25149, Note_on_c, 0, 72, 0
2, 25200, Note_on_c, 0, 81, 81
2, 25245, Note_on_c, 0, 81, 0
2, 25296, Note_on_c, 0, 72, 81
2, 25341, Note_on_c, 0, 72, 0
2, 25392, Note_on_c, 0, 70, 81
2, 25437, Note_on_c, 0, 70, 0
2, 25488, Note_on_c, 0, 79, 78
2, 25533, Note_on_c, 0, 79, 0
2, 25584, Control_c, 0, 64, 0
2, 25584, Note_on_c, 0, 70, 76
2, 25629, Note_on_c, 0, 70, 0
2, 25632, Note_on_c, 0, 72, 74
2, 25647, Note_on_c, 0, 72, 0
2, 25648, Note_on_c, 0, 70, 74
2, 25663, Note_on_c, 0, 70, 0
2, 25664, Note_on_c, 0, 72, 74
2, 25679, Note_on_c, 0, 72, 0
2, 25680, Note_on_c, 0, 70, 73
2, 25695, Note_on_c, 0, 70, 0
2, 25696, Note_on_c, 0, 69, 73
2, 25711, Note_on_c, 0, 69, 0
2, 25712, Note_on_c, 0, 70, 73
2, 25727, Note_on_c, 0, 70, 0
2, 25728, Note_on_c, 0, 69, 73
2, 25817, Note_on_c, 0, 69, 0
2, 25968, Note_on_c, 0, 74, 70
2, 26013, Note_on_c, 0, 74, 0
2, 26016, Note_on_c, 0, 75, 70
2, 26028, Note_on_c, 0, 75, 0
2, 26028, Note_on_c, 0, 77, 70
2, 26040, Note_on_c, 0, 77, 0
2, 26040, Note_on_c, 0, 75, 70
2, 26061, Note_on_c, 0, 75, 0
2, 26064, Note_on_c, 0, 74, 70
2, 26109, Note_on_c, 0, 74, 0
2, 26112, Note_on_c, 0, 75, 70
2, 26124, Note_on_c, 0, 75, 0
2, 26124, Note_on_c, 0, 77, 70
2, 26136, Note_on_c, 0, 77, 0
2, 26136, Note_on_c, 0, 75, 70
2, 26157, Note_on_c, 0, 75, 0
2, 26160, Note_on_c, 0, 74, 70
2, 26205, Note_on_c, 0, 74, 0
2, 26208, Note_on_c, 0, 73, 70
2, 26238, Note_on_c, 0, 73, 0
2, 26240, Note_on_c, 0, 74, 70
2, 26270, Note_on_c, 0, 74, 0
2, 26272, Note_on_c, 0, 76, 70
2, 26302, Note_on_c, 0, 76, 0
2, 26304, Note_on_c, 0, 76, 71
2, 26334, Note_on_c, 0, 76, 0
2, 26336, Note_on_c, 0, 77, 71
2, 26366, Note_on_c, 0, 77, 0
2, 26368, Note_on_c, 0, 79, 71
2, 26398, Note_on_c, 0, 79, 0
2, 26400, Note_on_c, 0, 79, 72
2, 26430, Note_on_c, 0, 79, 0
2, 26432, Note_on_c, 0, 81, 72
2, 26462, Note_on_c, 0, 81, 0
2, 26464, Note_on_c, 0, 82, 73
2, 26494, Note_on_c, 0, 82, 0
2, 26496, Note_on_c, 0, 81, 89
2, 26544, Note_on_c, 0, 81, 0
2, 26544, Note_on_c, 0, 73, 74
2, 26589, Note_on_c, 0, 73, 0
2, 26592, Note_on_c, 0, 74, 74
2, 26604, Note_on_c, 0, 74, 0
2, 26604, Note_on_c, 0, 75, 74
2, 26616, Note_on_c, 0, 75, 0
2, 26616, Note_on_c, 0, 74, 74
2, 26637, Note_on_c, 0, 74, 0
2, 26640, Note_on_c, 0, 73, 75
2, 26685, Note_on_c, 0, 73, 0
2, 26688, Note_on_c, 0, 74, 75
2, 26700, Note_on_c, 0, 74, 0
2, 26700, Note_on_c, 0, 75, 75
2, 26712, Note_on_c, 0, 75, 0
2, 26712, Note_on_c, 0, 74, 75
2, 26733, Note_on_c, 0, 74, 0
2, 26736, Note_on_c, 0, 72, 76
2, 26781, Note_on_c, 0, 72, 0
2, 26784, Note_on_c, 0, 70, 93
2, 26832, Note_on_c, 0, 70, 0
2, 26832, Note_on_c, 0, 66, 77
2, 26877, Note_on_c, 0, 66, 0
2, 26880, Note_on_c, 0, 67, 78
2, 26892, Note_on_c, 0, 67, 0
2, 26892, Note_on_c, 0, 69, 78
2, 26904, Note_on_c, 0, 69, 0
2, 26904, Note_on_c, 0, 67, 78
2, 26925, Note_on_c, 0, 67, 0
2, 26928, Note_on_c, 0, 66, 78
2, 26973, Note_on_c, 0, 66, 0
2, 26976, Note_on_c, 0, 67, 79
2, 27021, Note_on_c, 0, 67, 0
2, 27024, Note_on_c, 0, 59, 80
2, 27069, Note_on_c, 0, 59, 0
2, 27072, Note_on_c, 0, 60, 97
2, 27120, Note_on_c, 0, 60, 0
2, 27120, Note_on_c, 0, 66, 81
2, 27165, Note_on_c, 0, 66, 0
2, 27168, Note_on_c, 0, 67, 81
2, 27180, Note_on_c, 0, 67, 0
2, 27180, Note_on_c, 0, 69, 81
2, 27192, Note_on_c, 0, 69, 0
2, 27192, Note_on_c, 0, 67, 81
2, 27213, Note_on_c, 0, 67, 0
2, 27216, Note_on_c, 0, 66, 81
2, 27261, Note_on_c, 0, 66, 0
2, 27264, Note_on_c, 0, 67, 81
2, 27309, Note_on_c, 0, 67, 0
2, 27312, Note_on_c, 0, 62, 81
2, 27357, Note_on_c, 0, 62, 0
2, 27360, Note_on_c, 0, 63, 97
2, 27408, Note_on_c, 0, 63, 0
2, 27408, Note_on_c, 0, 66, 81
2, 27453, Note_on_c, 0, 66, 0
2, 27456, Note_on_c, 0, 67, 81
2, 27468, Note_on_c, 0, 67, 0
2, 27468, Note_on_c, 0, 69, 81
2, 27480, Note_on_c, 0, 69, 0
2, 27480, Note_on_c, 0, 67, 81
2, 27501, Note_on_c, 0, 67, 0
2, 27504, Note_on_c, 0, 66, 81
2, 27549, Note_on_c, 0, 66, 0
2, 27552, Note_on_c, 0, 67, 81
2, 27597, Note_on_c, 0, 67, 0
2, 27600, Note_on_c, 0, 58, 81
2, 27645, Note_on_c, 0, 58, 0
2, 27648, Note_on_c, 0, 60, 81
2, 27693, Note_on_c, 0, 60, 0
2, 27696, Note_on_c, 0, 58, 81
2, 27741, Note_on_c, 0, 58, 0
2, 27744, Note_on_c, 0, 60, 81
2, 27789, Note_on_c, 0, 60, 0
2, 27792, Note_on_c, 0, 57, 81
2, 27837, Note_on_c, 0, 57, 0
2, 27840, Note_on_c, 0, 62, 81
2, 27885, Note_on_c, 0, 62, 0
2, 27888, Note_on_c, 0, 54, 81
2, 27933, Note_on_c, 0, 54, 0
2, 27936, Note_on_c, 0, 55, 81
2, 27954, Note_on_c, 0, 55, 0
2, 27954, Note_on_c, 0, 54, 81
2, 27972, Note_on_c, 0, 54, 0
2, 27972, Note_on_c, 0, 52, 81
2, 27990, Note_on_c, 0, 52, 0
2, 27990, Note_on_c, 0, 54, 81
2, 28032, Note_on_c, 0, 54, 0
2, 28032, Note_on_c, 0, 55, 81
2, 28121, Note_on_c, 0, 55, 0
2, 28272, Note_on_c, 0, 65, 70
2, 28317, Note_on_c, 0, 65, 0
2, 28320, Note_on_c, 0, 67, 70
2, 28332, Note_on_c, 0, 67, 0
2, 28332, Note_on_c, 0, 68, 70
2, 28344, Note_on_c, 0, 68, 0
2, 28344, Note_on_c, 0, 67, 70
2, 28365, Note_on_c, 0, 67, 0
2, 28368, Note_on_c, 0, 65, 70
2, 28413, Note_on_c, 0, 65, 0
2, 28416, Note_on_c, 0, 67, 71
2, 28428, Note_on_c, 0, 67, 0
2, 28428, Note_on_c, 0, 68, 71
2, 28440, Note_on_c, 0, 68, 0
2, 28440, Note_on_c, 0, 67, 71
2, 28461, Note_on_c, 0, 67, 0
2, 28464, Note_on_c, 0, 65, 71
2, 28509, Note_on_c, 0, 65, 0
2, 28560, Note_on_c, 0, 68, 72
2, 28605, Note_on_c, 0, 68, 0
2, 28608, Note_on_c, 0, 67, 72
2, 28653, Note_on_c, 0, 67, 0
2, 28656, Note_on_c, 0, 68, 73
2, 28701, Note_on_c, 0, 68, 0
2, 28704, Note_on_c, 0, 67, 73
2, 28749, Note_on_c, 0, 67, 0
2, 28752, Note_on_c, 0, 68, 73
2, 28797, Note_on_c, 0, 68, 0
2, 28848, Note_on_c, 0, 67, 74
2, 28893, Note_on_c, 0, 67, 0
2, 28896, Note_on_c, 0, 68, 75
2, 28908, Note_on_c, 0, 68, 0
2, 28908, Note_on_c, 0, 70, 75
2, 28920, Note_on_c, 0, 70, 0
2, 28920, Note_on_c, 0, 68, 75
2, 28941, Note_on_c, 0, 68, 0
2, 28944, Note_on_c, 0, 67, 75
2, 28989, Note_on_c, 0, 67, 0
2, 28992, Note_on_c, 0, 68, 75
2, 29004, Note_on_c, 0, 68, 0
2, 29004, Note_on_c, 0, 70, 75
2, 29016, Note_on_c, 0, 70, 0
2, 29016, Note_on_c, 0, 68, 75
2, 29037, Note_on_c, 0, 68, 0
2, 29040, Note_on_c, 0, 67, 76
2, 29085, Note_on_c, 0, 67, 0
2, 29136, Note_on_c, 0, 70, 77
2, 29181, Note_on_c, 0, 70, 0
2, 29184, Note_on_c, 0, 69, 77
2, 29229, Note_on_c, 0, 69, 0
2, 29232, Note_on_c, 0, 70, 77
2, 29277, Note_on_c, 0, 70, 0
2, 29280, Note_on_c, 0, 69, 78
2, 29325, Note_on_c, 0, 69, 0
2, 29328, Note_on_c, 0, 70, 78
2, 29373, Note_on_c, 0, 70, 0
2, 29424, Note_on_c, 0, 69, 79
2, 29469, Note_on_c, 0, 69, 0
2, 29472, Note_on_c, 0, 70, 79
2, 29484, Note_on_c, 0, 70, 0
2, 29484, Note_on_c, 0, 72, 79
2, 29496, Note_on_c, 0, 72, 0
2, 29496, Note_on_c, 0, 70, 79
2, 29517, Note_on_c, 0, 70, 0
2, 29520, Note_on_c, 0, 69, 80
2, 29565, Note_on_c, 0, 69, 0
2, 29616, Note_on_c, 0, 74, 81
2, 29661, Note_on_c, 0, 74, 0
2, 29664, Control_c, 0, 64, 127
2, 29712, Note_on_c, 0, 75, 81
2, 29757, Note_on_c, 0, 75, 0
2, 29808, Note_on_c, 0, 84, 81
2, 29853, Note_on_c, 0, 84, 0
2, 29904, Note_on_c, 0, 75, 81
2, 29949, Note_on_c, 0, 75, 0
2, 30000, Note_on_c, 0, 74, 81
2, 30045, Note_on_c, 0, 74, 0
2, 30096, Note_on_c, 0, 82, 81
2, 30141, Note_on_c, 0, 82, 0
2, 30192, Note_on_c, 0, 74, 81
2, 30237, Note_on_c, 0, 74, 0
2, 30288, Note_on_c, 0, 72, 81
2, 30333, Note_on_c, 0, 72, 0
2, 30384, Note_on_c, 0, 81, 81
2, 30429, Note_on_c, 0, 81, 0
2, 30480, Note_on_c, 0, 72, 81
2, 30525, Note_on_c, 0, 72, 0
2, 30576, Note_on_c, 0, 70, 81
2, 30621, Note_on_c, 0, 70, 0
2, 30672, Note_on_c, 0, 79, 78
2, 30717, Note_on_c, 0, 79, 0
2, 30768, Control_c, 0, 64, 0
2, 30768, Note_on_c, 0, 70, 76
2, 30813, Note_on_c, 0, 70, 0
2, 30816, Note_on_c, 0, 72, 74
2, 30831, Note_on_c, 0, 72, 0
2, 30832, Note_on_c, 0, 70, 74
2, 30847, Note_on_c, 0, 70, 0
2, 30848, Note_on_c, 0, 72, 74
2, 30863, Note_on_c, 0, 72, 0
2, 30864, Note_on_c, 0, 70, 73
2, 30879, Note_on_c, 0, 70, 0
2, 30880, Note_on_c, 0, 69, 73
2, 30895, Note_on_c, 0, 69, 0
2, 30896, Note_on_c, 0, 70, 73
2, 30911, Note_on_c, 0, 70, 0
2, 30912, Note_on_c, 0, 69, 73
2, 31001, Note_on_c, 0, 69, 0
2, 31152, Note_on_c, 0, 74, 70
2, 31197, Note_on_c, 0, 74, 0
2, 31200, Note_on_c, 0, 75, 70
2, 31212, Note_on_c, 0, 75, 0
2, 31212, Note_on_c, 0, 77, 70
2, 31224, Note_on_c, 0, 77, 0
2, 31224, Note_on_c, 0, 75, 70
2, 31245, Note_on_c, 0, 75, 0
2, 31248, Note_on_c, 0, 74, 70
2, 31293, Note_on_c, 0, 74, 0
2, 31296, Note_on_c, 0, 75, 70
2, 31308, Note_on_c, 0, 75, 0
2, 31308, Note_on_c, 0, 77, 70
2, 31320, Note_on_c, 0, 77, 0
2, 31320, Note_on_c, 0, 75, 70
2, 31341, Note_on_c, 0, 75, 0
2, 31344, Note_on_c, 0, 74, 70
2, 31389, Note_on_c, 0, 74, 0
2, 31392, Note_on_c, 0, 73, 70
2, 31422, Note_on_c, 0, 73, 0
2, 31424, Note_on_c, 0, 74, 70
2, 31454, Note_on_c, 0, 74, 0
2, 31456, Note_on_c, 0, 76, 70
2, 31486, Note_on_c, 0, 76, 0
2, 31488, Note_on_c, 0, 76, 71
2, 31518, Note_on_c, 0, 76, 0
2, 31520, Note_on_c, 0, 77, 71
2, 31550, Note_on_c, 0, 77, 0
2, 31552, Note_on_c, 0, 79, 71
2, 31582, Note_on_c, 0, 79, 0
2, 31584, Note_on_c, 0, 79, 72
2, 31614, Note_on_c, 0, 79, 0
2, 31616, Note_on_c, 0, 81, 72
2, 31646, Note_on_c, 0, 81, 0
2, 31648, Note_on_c, 0, 82, 73
2, 31678, Note_on_c, 0, 82, 0
2, 31680, Note_on_c, 0, 81, 89
2, 31728, Note_on_c, 0, 81, 0
2, 31728, Note_on_c, 0, 73, 74
2, 31773, Note_on_c, 0, 73, 0
2, 31776, Note_on_c, 0, 74, 74
2, 31788, Note_on_c, 0, 74, 0
2, 31788, Note_on_c, 0, 75, 74
2, 31800, Note_on_c, 0, 75, 0
2, 31800, Note_on_c, 0, 74, 74
2, 31821, Note_on_c, 0, 74, 0
2, 31824, Note_on_c, 0, 73, 75
2, 31869, Note_on_c, 0, 73, 0
2, 31872, Note_on_c, 0, 74, 75
2, 31884, Note_on_c, 0, 74, 0
2, 31884, Note_on_c, 0, 75, 75
2, 31896, Note_on_c, 0, 75, 0
2, 31896, Note_on_c, 0, 74, 75
2, 31917, Note_on_c, 0, 74, 0
2, 31920, Note_on_c, 0, 72, 76
2, 31965, Note_on_c, 0, 72, 0
2, 31968, Note_on_c, 0, 70, 93
2, 32016, Note_on_c, 0, 70, 0
2, 32016, Note_on_c, 0, 66, 77
2, 32061, Note_on_c, 0, 66, 0
2, 32064, Note_on_c, 0, 67, 78
2, 32076, Note_on_c, 0, 67, 0
2, 32076, Note_on_c, 0, 69, 78
2, 32088, Note_on_c, 0, 69, 0
2, 32088, Note_on_c, 0, 67, 78
2, 32109, Note_on_c, 0, 67, 0
2, 32112, Note_on_c, 0, 66, 78
2, 32157, Note_on_c, 0, 66, 0
2, 32160, Note_on_c, 0, 67, 79
2, 32205, Note_on_c, 0, 67, 0
2, 32208, Note_on_c, 0, 59, 80
2, 32253, Note_on_c, 0, 59, 0
2, 32256, Note_on_c, 0, 60, 97
2, 32304, Note_on_c, 0, 60, 0
2, 32304, Note_on_c, 0, 66, 81
2, 32349, Note_on_c, 0, 66, 0
2, 32352, Note_on_c, 0, 67, 81
2, 32364, Note_on_c, 0, 67, 0
2, 32364, Note_on_c, 0, 69, 81
2, 32376, Note_on_c, 0, 69, 0
2, 32376, Note_on_c, 0, 67, 81
2, 32397, Note_on_c, 0, 67, 0
2, 32400, Note_on_c, 0, 66, 81
2, 32445, Note_on_c, 0, 66, 0
2, 32448, Note_on_c, 0, 67, 81
2, 32493, Note_on_c, 0, 67, 0
2, 32496, Note_on_c, 0, 62, 81
2, 32541, Note_on_c, 0, 62, 0
2, 32544, Note_on_c, 0, 63, 97
2, 32592, Note_on_c, 0, 63, 0
2, 32592, Note_on_c, 0, 66, 81
2, 32637, Note_on_c, 0, 66, 0
2, 32640, Note_on_c, 0, 67, 81
2, 32652, Note_on_c, 0, 67, 0
2, 32652, Note_on_c, 0, 69, 81
2, 32664, Note_on_c, 0, 69, 0
2, 32664, Note_on_c, 0, 67, 81
2, 32685, Note_on_c, 0, 67, 0
2, 32688, Note_on_c, 0, 66, 81
2, 32733, Note_on_c, 0, 66, 0
2, 32736, Note_on_c, 0, 67, 81
2, 32781, Note_on_c, 0, 67, 0
2, 32784, Note_on_c, 0, 58, 81
2, 32829, Note_on_c, 0, 58, 0
2, 32832, Note_on_c, 0, 60, 81
2, 32877, Note_on_c, 0, 60, 0
2, 32880, Note_on_c, 0, 58, 81
2, 32925, Note_on_c, 0, 58, 0
2, 32928, Note_on_c, 0, 60, 81
2, 32973, Note_on_c, 0, 60, 0
2, 32976, Note_on_c, 0, 57, 81
2, 33021, Note_on_c, 0, 57, 0
2, 33024, Note_on_c, 0, 62, 81
2, 33069, Note_on_c, 0, 62, 0
2, 33072, Note_on_c, 0, 54, 81
2, 33117, Note_on_c, 0, 54, 0
2, 33120, Note_on_c, 0, 55, 81
2, 33138, Note_on_c, 0, 55, 0
2, 33138, Note_on_c, 0, 54, 81
2, 33156, Note_on_c, 0, 54, 0
2, 33156, Note_on_c, 0, 52, 81
2, 33174, Note_on_c, 0, 52, 0
2, 33174, Note_on_c, 0, 54, 81
2, 33216, Note_on_c, 0, 54, 0
2, 33216, Note_on_c, 0, 55, 81
2, 33305, Note_on_c, 0, 55, 0
2, 33408, Note_on_c, 0, 62, 75
2, 33426, Note_on_c, 0, 62, 0
2, 33426, Note_on_c, 0, 67, 75
2, 33444, Note_on_c, 0, 67, 0
2, 33444, Note_on_c, 0, 71, 75
2, 33462, Note_on_c, 0, 71, 0
2, 33462, Note_on_c, 0, 74, 75
2, 33571, Note_on_c, 0, 74, 0
2, 33576, Note_on_c, 0, 72, 75
2, 33588, Note_on_c, 0, 72, 0
2, 33588, Note_on_c, 0, 74, 75
2, 33600, Note_on_c, 0, 74, 0
2, 33600, Note_on_c, 0, 76, 75
2, 33667, Note_on_c, 0, 76, 0
2, 33672, Note_on_c, 0, 71, 75
2, 33695, Note_on_c, 0, 71, 0
2, 33696, Note_on_c, 0, 74, 75
2, 33763, Note_on_c, 0, 74, 0
2, 33768, Note_on_c, 0, 72, 75
2, 33791, Note_on_c, 0, 72, 0
2, 33792, Note_on_c, 0, 69, 75
2, 33955, Note_on_c, 0, 69, 0
2, 33960, Note_on_c, 0, 72, 75
2, 33983, Note_on_c, 0, 72, 0
2, 33984, Note_on_c, 0, 62, 75
2, 34002, Note_on_c, 0, 62, 0
2, 34002, Note_on_c, 0, 66, 75
2, 34020, Note_on_c, 0, 66, 0
2, 34020, Note_on_c, 0, 67, 75
2, 34038, Note_on_c, 0, 67, 0
2, 34038, Note_on_c, 0, 71, 75
2, 34147, Note_on_c, 0, 71, 0
2, 34152, Note_on_c, 0, 69, 75
2, 34164, Note_on_c, 0, 69, 0
2, 34164, Note_on_c, 0, 71, 75
2, 34176, Note_on_c, 0, 71, 0
2, 34176, Note_on_c, 0, 72, 75
2, 34243, Note_on_c, 0, 72, 0
2, 34248, Note_on_c, 0, 69, 75
2, 34271, Note_on_c, 0, 69, 0
2, 34272, Note_on_c, 0, 67, 75
2, 34361, Note_on_c, 0, 67, 0
2, 34368, Note_on_c, 0, 67, 75
2, 34383, Note_on_c, 0, 67, 0
2, 34384, Note_on_c, 0, 66, 75
2, 34399, Note_on_c, 0, 66, 0
2, 34400, Note_on_c, 0, 67, 75
2, 34415, Note_on_c, 0, 67, 0
2, 34416, Note_on_c, 0, 66, 75
2, 34431, Note_on_c, 0, 66, 0
2, 34432, Note_on_c, 0, 64, 75
2, 34447, Note_on_c, 0, 64, 0
2, 34448, Note_on_c, 0, 66, 75
2, 34463, Note_on_c, 0, 66, 0
2, 34464, Note_on_c, 0, 67, 75
2, 34531, Note_on_c, 0, 67, 0
2, 34536, Note_on_c, 0, 62, 75
2, 34559, Note_on_c, 0, 62, 0
2, 34560, Note_on_c, 0, 64, 75
2, 34627, Note_on_c, 0, 64, 0
2, 34632, Note_on_c, 0, 66, 75
2, 34644, Note_on_c, 0, 66, 0
2, 34644, Note_on_c, 0, 67, 75
2, 34656, Note_on_c, 0, 67, 0
2, 34656, Note_on_c, 0, 66, 75
2, 34745, Note_on_c, 0, 66, 0
2, 34824, Note_on_c, 0, 67, 75
2, 34847, Note_on_c, 0, 67, 0
2, 34848, Note_on_c, 0, 69, 75
2, 34915, Note_on_c, 0, 69, 0
2, 34920, Note_on_c, 0, 71, 75
2, 34932, Note_on_c, 0, 71, 0
2, 34932, Note_on_c, 0, 72, 75
2, 34944, Note_on_c, 0, 72, 0
2, 34944, Note_on_c, 0, 71, 75
2, 35033, Note_on_c, 0, 71, 0
2, 35112, Note_on_c, 0, 69, 75
2, 35135, Note_on_c, 0, 69, 0
2, 35136, Note_on_c, 0, 71, 75
2, 35166, Note_on_c, 0, 71, 0
2, 35168, Note_on_c, 0, 73, 75
2, 35198, Note_on_c, 0, 73, 0
2, 35200, Note_on_c, 0, 74, 75
2, 35230, Note_on_c, 0, 74, 0
2, 35232, Note_on_c, 0, 73, 75
2, 35262, Note_on_c, 0, 73, 0
2, 35264, Note_on_c, 0, 74, 76
2, 35294, Note_on_c, 0, 74, 0
2, 35296, Note_on_c, 0, 76, 76
2, 35326, Note_on_c, 0, 76, 0
2, 35328, Note_on_c, 0, 74, 76
2, 35358, Note_on_c, 0, 74, 0
2, 35360, Note_on_c, 0, 76, 77
2, 35390, Note_on_c, 0, 76, 0
2, 35392, Note_on_c, 0, 78, 77
2, 35422, Note_on_c, 0, 78, 0
2, 35424, Note_on_c, 0, 76, 77
2, 35454, Note_on_c, 0, 76, 0
2, 35456, Note_on_c, 0, 78, 78
2, 35486, Note_on_c, 0, 78, 0
2, 35488, Note_on_c, 0, 79, 78
2, 35518, Note_on_c, 0, 79, 0
2, 35520, Note_on_c, 0, 78, 78
2, 35550, Note_on_c, 0, 78, 0
2, 35552, Note_on_c, 0, 79, 79
2, 35582, Note_on_c, 0, 79, 0
2, 35584, Note_on_c, 0, 81, 79
2, 35614, Note_on_c, 0, 81, 0
2, 35616, Note_on_c, 0, 79, 79
2, 35646, Note_on_c, 0, 79, 0
2, 35648, Note_on_c, 0, 81, 80
2, 35678, Note_on_c, 0, 81, 0
2, 35680, Note_on_c, 0, 83, 80
2, 35710, Note_on_c, 0, 83, 0
2, 35712, Note_on_c, 0, 81, 97
2, 35751, Note_on_c, 0, 81, 0
2, 35808, Note_on_c, 0, 74, 79
2, 35897, Note_on_c, 0, 74, 0
2, 35904, Note_on_c, 0, 74, 77
2, 35919, Note_on_c, 0, 74, 0
2, 35920, Note_on_c, 0, 73, 76
2, 35935, Note_on_c, 0, 73, 0
2, 35936, Note_on_c, 0, 74, 76
2, 35951, Note_on_c, 0, 74, 0
2, 35952, Note_on_c, 0, 73, 76
2, 35967, Note_on_c, 0, 73, 0
2, 35968, Note_on_c, 0, 71, 76
2, 35983, Note_on_c, 0, 71, 0
2, 35984, Note_on_c, 0, 73, 75
2, 35999, Note_on_c, 0, 73, 0
2, 36000, Note_on_c, 0, 74, 75
2, 36177, Note_on_c, 0, 74, 0
2, 36288, Note_on_c, 0, 62, 75
2, 36306, Note_on_c, 0, 62, 0
2, 36306, Note_on_c, 0, 67, 75
2, 36324, Note_on_c, 0, 67, 0
2, 36324, Note_on_c, 0, 71, 75
2, 36342, Note_on_c, 0, 71, 0
2, 36342, Note_on_c, 0, 74, 75
2, 36451, Note_on_c, 0, 74, 0
2, 36456, Note_on_c, 0, 72, 75
2, 36468, Note_on_c, 0, 72, 0
2, 36468, Note_on_c, 0, 74, 75
2, 36480, Note_on_c, 0, 74, 0
2, 36480, Note_on_c, 0, 76, 75
2, 36547, Note_on_c, 0, 76, 0
2, 36552, Note_on_c, 0, 71, 75
2, 36575, Note_on_c, 0, 71, 0
2, 36576, Note_on_c, 0, 74, 75
2, 36643, Note_on_c, 0, 74, 0
2, 36648, Note_on_c, 0, 72, 75
2, 36671, Note_on_c, 0, 72, 0
2, 36672, Note_on_c, 0, 69, 75
2, 36835, Note_on_c, 0, 69, 0
2, 36840, Note_on_c, 0, 72, 75
2, 36863, Note_on_c, 0, 72, 0
2, 36864, Note_on_c, 0, 62, 75
2, 36882, Note_on_c, 0, 62, 0
2, 36882, Note_on_c, 0, 66, 75
2, 36900, Note_on_c, 0, 66, 0
2, 36900, Note_on_c, 0, 67, 75
2, 36918, Note_on_c, 0, 67, 0
2, 36918, Note_on_c, 0, 71, 75
2, 37027, Note_on_c, 0, 71, 0
2, 37032, Note_on_c, 0, 69, 75
2, 37044, Note_on_c, 0, 69, 0
2, 37044, Note_on_c, 0, 71, 75
2, 37056, Note_on_c, 0, 71, 0
2, 37056, Note_on_c, 0, 72, 75
2, 37123, Note_on_c, 0, 72, 0
2, 37128, Note_on_c, 0, 69, 75
2, 37151, Note_on_c, 0, 69, 0
2, 37152, Note_on_c, 0, 67, 75
2, 37241, Note_on_c, 0, 67, 0
2, 37248, Note_on_c, 0, 67, 75
2, 37263, Note_on_c, 0, 67, 0
2, 37264, Note_on_c, 0, 66, 75
2, 37279, Note_on_c, 0, 66, 0
2, 37280, Note_on_c, 0, 67, 75
2, 37295, Note_on_c, 0, 67, 0
2, 37296, Note_on_c, 0, 66, 75
2, 37311, Note_on_c, 0, 66, 0
2, 37312, Note_on_c, 0, 64, 75
2, 37327, Note_on_c, 0, 64, 0
2, 37328, Note_on_c, 0, 66, 75
2, 37343, Note_on_c, 0, 66, 0
2, 37344, Note_on_c, 0, 67, 75
2, 37411, Note_on_c, 0, 67, 0
2, 37416, Note_on_c, 0, 62, 75
2, 37439, Note_on_c, 0, 62, 0
2, 37440, Note_on_c, 0, 64, 75
2, 37507, Note_on_c, 0, 64, 0
2, 37512, Note_on_c, 0, 66, 75
2, 37524, Note_on_c, 0, 66, 0
2, 37524, Note_on_c, 0, 67, 75
2, 37536, Note_on_c, 0, 67, 0
2, 37536, Note_on_c, 0, 66, 75
2, 37625, Note_on_c, 0, 66, 0
2, 37704, Note_on_c, 0, 67, 75
2, 37727, Note_on_c, 0, 67, 0
2, 37728, Note_on_c, 0, 69, 75
2, 37795, Note_on_c, 0, 69, 0
2, 37800, Note_on_c, 0, 71, 75
2, 37812, Note_on_c, 0, 71, 0
2, 37812, Note_on_c, 0, 72, 75
2, 37824, Note_on_c, 0, 72, 0
2, 37824, Note_on_c, 0, 71, 75
2, 37913, Note_on_c, 0, 71, 0
2, 37992, Note_on_c, 0, 69, 75
2, 38015, Note_on_c, 0, 69, 0
2, 38016, Note_on_c, 0, 71, 75
2, 38046, Note_on_c, 0, 71, 0
2, 38048, Note_on_c, 0, 73, 75
2, 38078, Note_on_c, 0, 73, 0
2, 38080, Note_on_c, 0, 74, 75
2, 38110, Note_on_c, 0, 74, 0
2, 38112, Note_on_c, 0, 73, 75
2, 38142, Note_on_c, 0, 73, 0
2, 38144, Note_on_c, 0, 74, 76
2, 38174, Note_on_c, 0, 74, 0
2, 38176, Note_on_c, 0, 76, 76
2, 38206, Note_on_c, 0, 76, 0
2, 38208, Note_on_c, 0, 74, 76
2, 38238, Note_on_c, 0, 74, 0
2, 38240, Note_on_c, 0, 76, 77
2, 38270, Note_on_c, 0, 76, 0
2, 38272, Note_on_c, 0, 78, 77
2, 38302, Note_on_c, 0, 78, 0
2, 38304, Note_on_c, 0, 76, 77
2, 38334, Note_on_c, 0, 76, 0
2, 38336, Note_on_c, 0, 78, 78
2, 38366, Note_on_c, 0, 78, 0
2, 38368, Note_on_c, 0, 79, 78
2, 38398, Note_on_c, 0, 79, 0
2, 38400, Note_on_c, 0, 78, 78
2, 38430, Note_on_c, 0, 78, 0
2, 38432, Note_on_c, 0, 79, 79
2, 38462, Note_on_c, 0, 79, 0
2, 38464, Note_on_c, 0, 81, 79
2, 38494, Note_on_c, 0, 81, 0
2, 38496, Note_on_c, 0, 79, 79
2, 38526, Note_on_c, 0, 79, 0
2, 38528, Note_on_c, 0, 81, 80
2, 38558, Note_on_c, 0, 81, 0
2, 38560, Note_on_c, 0, 83, 80
2, 38590, Note_on_c, 0, 83, 0
2, 38592, Note_on_c, 0, 81, 97
2, 38631, Note_on_c, 0, 81, 0
2, 38688, Note_on_c, 0, 74, 79
2, 38777, Note_on_c, 0, 74, 0
2, 38784, Note_on_c, 0, 74, 77
2, 38799, Note_on_c, 0, 74, 0
2, 38800, Note_on_c, 0, 73, 76
2, 38815, Note_on_c, 0, 73, 0
2, 38816, Note_on_c, 0, 74, 76
2, 38831, Note_on_c, 0, 74, 0
2, 38832, Note_on_c, 0, 73, 76
2, 38847, Note_on_c, 0, 73, 0
2, 38848, Note_on_c, 0, 71, 76
2, 38863, Note_on_c, 0, 71, 0
2, 38864, Note_on_c, 0, 73, 75
2, 38879, Note_on_c, 0, 73, 0
2, 38880, Note_on_c, 0, 74, 75
2, 39057, Note_on_c, 0, 74, 0
2, 39168, Note_on_c, 0, 74, 75
2, 39186, Note_on_c, 0, 74, 0
2, 39186, Note_on_c, 0, 78, 75
2, 39204, Note_on_c, 0, 78, 0
2, 39204, Note_on_c, 0, 81, 75
2, 39222, Note_on_c, 0, 81, 0
2, 39222, Note_on_c, 0, 84, 75
2, 39331, Note_on_c, 0, 84, 0
2, 39336, Note_on_c, 0, 81, 75
2, 39359, Note_on_c, 0, 81, 0
2, 39360, Note_on_c, 0, 83, 75
2, 39427, Note_on_c, 0, 83, 0
2, 39432, Note_on_c, 0, 79, 75
2, 39455, Note_on_c, 0, 79, 0
2, 39456, Note_on_c, 0, 74, 75
2, 39545, Note_on_c, 0, 74, 0
2, 39552, Note_on_c, 0, 74, 75
2, 39567, Note_on_c, 0, 74, 0
2, 39568, Note_on_c, 0, 72, 75
2, 39583, Note_on_c, 0, 72, 0
2, 39584, Note_on_c, 0, 74, 75
2, 39599, Note_on_c, 0, 74, 0
2, 39600, Note_on_c, 0, 72, 75
2, 39615, Note_on_c, 0, 72, 0
2, 39616, Note_on_c, 0, 71, 75
2, 39631, Note_on_c, 0, 71, 0
2, 39632, Note_on_c, 0, 72, 75
2, 39647, Note_on_c, 0, 72, 0
2, 39648, Note_on_c, 0, 71, 75
2, 39737, Note_on_c, 0, 71, 0
2, 39744, Note_on_c, 0, 74, 66
2, 39762, Note_on_c, 0, 74, 0
2, 39762, Note_on_c, 0, 78, 66
2, 39780, Note_on_c, 0, 78, 0
2, 39780, Note_on_c, 0, 81, 66
2, 39798, Note_on_c, 0, 81, 0
2, 39798, Note_on_c, 0, 84, 66
2, 39907, Note_on_c, 0, 84, 0
2, 39912, Note_on_c, 0, 81, 66
2, 39935, Note_on_c, 0, 81, 0
2, 39936, Note_on_c, 0, 83, 66
2, 40003, Note_on_c, 0, 83, 0
2, 40008, Note_on_c, 0, 79, 66
2, 40031, Note_on_c, 0, 79, 0
2, 40032, Note_on_c, 0, 74, 66
2, 40121, Note_on_c, 0, 74, 0
2, 40128, Note_on_c, 0, 74, 66
2, 40143, Note_on_c, 0, 74, 0
2, 40144, Note_on_c, 0, 72, 66
2, 40159, Note_on_c, 0, 72, 0
2, 40160, Note_on_c, 0, 74, 66
2, 40175, Note_on_c, 0, 74, 0
2, 40176, Note_on_c, 0, 72, 66
2, 40191, Note_on_c, 0, 72, 0
2, 40192, Note_on_c, 0, 71, 66
2, 40207, Note_on_c, 0, 71, 0
2, 40208, Note_on_c, 0, 72, 66
2, 40223, Note_on_c, 0, 72, 0
2, 40224, Note_on_c, 0, 71, 66
2, 40313, Note_on_c, 0, 71, 0
2, 40320, Note_on_c, 0, 69, 75
2, 40343, Note_on_c, 0, 69, 0
2, 40344, Note_on_c, 0, 71, 75
2, 40367, Note_on_c, 0, 71, 0
2, 40368, Note_on_c, 0, 72, 75
2, 40391, Note_on_c, 0, 72, 0
2, 40392, Note_on_c, 0, 71, 75
2, 40415, Note_on_c, 0, 71, 0
2, 40416, Note_on_c, 0, 69, 75
2, 40505, Note_on_c, 0, 69, 0
2, 40608, Note_on_c, 0, 71, 75
2, 40631, Note_on_c, 0, 71, 0
2, 40632, Note_on_c, 0, 72, 75
2, 40655, Note_on_c, 0, 72, 0
2, 40656, Note_on_c, 0, 74, 75
2, 40679, Note_on_c, 0, 74, 0
2, 40680, Note_on_c, 0, 72, 75
2, 40703, Note_on_c, 0, 72, 0
2, 40704, Note_on_c, 0, 71, 75
2, 40793, Note_on_c, 0, 71, 0
2, 40944, Note_on_c, 0, 71, 75
2, 40989, Note_on_c, 0, 71, 0
2, 40992, Note_on_c, 0, 79, 75
2, 41037, Note_on_c, 0, 79, 0
2, 41040, Note_on_c, 0, 76, 75
2, 41085, Note_on_c, 0, 76, 0
2, 41088, Note_on_c, 0, 74, 75
2, 41100, Note_on_c, 0, 74, 0
2, 41100, Note_on_c, 0, 76, 75
2, 41112, Note_on_c, 0, 76, 0
2, 41112, Note_on_c, 0, 74, 75
2, 41133, Note_on_c, 0, 74, 0
2, 41136, Note_on_c, 0, 73, 75
2, 41181, Note_on_c, 0, 73, 0
2, 41184, Note_on_c, 0, 73, 75
2, 41280, Note_on_c, 0, 73, 0
2, 41280, Note_on_c, 0, 74, 75
2, 41361, Note_on_c, 0, 74, 0
2, 41472, Note_on_c, 0, 62, 75
2, 41490, Note_on_c, 0, 62, 0
2, 41490, Note_on_c, 0, 67, 75
2, 41508, Note_on_c, 0, 67, 0
2, 41508, Note_on_c, 0, 71, 75
2, 41526, Note_on_c, 0, 71, 0
2, 41526, Note_on_c, 0, 74, 75
2, 41635, Note_on_c, 0, 74, 0
2, 41640, Note_on_c, 0, 72, 75
2, 41652, Note_on_c, 0, 72, 0
2, 41652, Note_on_c, 0, 74, 75
2, 41664, Note_on_c, 0, 74, 0
2, 41664, Note_on_c, 0, 76, 75
2, 41731, Note_on_c, 0, 76, 0
2, 41736, Note_on_c, 0, 71, 75
2, 41759, Note_on_c, 0, 71, 0
2, 41760, Note_on_c, 0, 74, 75
2, 41827, Note_on_c, 0, 74, 0
2, 41832, Note_on_c, 0, 72, 75
2, 41855, Note_on_c, 0, 72, 0
2, 41856, Note_on_c, 0, 69, 75
2, 42019, Note_on_c, 0, 69, 0
2, 42024, Note_on_c, 0, 72, 75
2, 42047, Note_on_c, 0, 72, 0
2, 42048, Note_on_c, 0, 62, 75
2, 42066, Note_on_c, 0, 62, 0
2, 42066, Note_on_c, 0, 66, 75
2, 42084, Note_on_c, 0, 66, 0
2, 42084, Note_on_c, 0, 67, 75
2, 42102, Note_on_c, 0, 67, 0
2, 42102, Note_on_c, 0, 71, 75
2, 42211, Note_on_c, 0, 71, 0
2, 42216, Note_on_c, 0, 69, 75
2, 42228, Note_on_c, 0, 69, 0
2, 42228, Note_on_c, 0, 71, 75
2, 42240, Note_on_c, 0, 71, 0
2, 42240, Note_on_c, 0, 72, 75
2, 42307, Note_on_c, 0, 72, 0
2, 42312, Note_on_c, 0, 69, 75
2, 42335, Note_on_c, 0, 69, 0
2, 42336, Note_on_c, 0, 67, 75
2, 42425, Note_on_c, 0, 67, 0
2, 42432, Note_on_c, 0, 67, 75
2, 42447, Note_on_c, 0, 67, 0
2, 42448, Note_on_c, 0, 66, 75
2, 42463, Note_on_c, 0, 66, 0
2, 42464, Note_on_c, 0, 67, 75
2, 42479, Note_on_c, 0, 67, 0
2, 42480, Note_on_c, 0, 66, 75
2, 42495, Note_on_c, 0, 66, 0
2, 42496, Note_on_c, 0, 64, 75
2, 42511, Note_on_c, 0, 64, 0
2, 42512, Note_on_c, 0, 66, 75
2, 42527, Note_on_c, 0, 66, 0
2, 42528, Note_on_c, 0, 67, 75
2, 42595, Note_on_c, 0, 67, 0
2, 42600, Note_on_c, 0, 62, 75
2, 42623, Note_on_c, 0, 62, 0
2, 42624, Note_on_c, 0, 64, 75
2, 42691, Note_on_c, 0, 64, 0
2, 42696, Note_on_c, 0, 66, 75
2, 42708, Note_on_c, 0, 66, 0
2, 42708, Note_on_c, 0, 67, 75
2, 42720, Note_on_c, 0, 67, 0
2, 42720, Note_on_c, 0, 66, 75
2, 42809, Note_on_c, 0, 66, 0
2, 42888, Note_on_c, 0, 67, 75
2, 42911, Note_on_c, 0, 67, 0
2, 42912, Note_on_c, 0, 69, 75
2, 42979, Note_on_c, 0, 69, 0
2, 42984, Note_on_c, 0, 71, 75
2, 42996, Note_on_c, 0, 71, 0
2, 42996, Note_on_c, 0, 72, 75
2, 43008, Note_on_c, 0, 72, 0
2, 43008, Note_on_c, 0, 71, 75
2, 43097, Note_on_c, 0, 71, 0
2, 43176, Note_on_c, 0, 62, 75
2, 43199, Note_on_c, 0, 62, 0
2, 43200, Note_on_c, 0, 64, 75
2, 43230, Note_on_c, 0, 64, 0
2, 43232, Note_on_c, 0, 66, 75
2, 43262, Note_on_c, 0, 66, 0
2, 43264, Note_on_c, 0, 67, 75
2, 43294, Note_on_c, 0, 67, 0
2, 43296, Note_on_c, 0, 66, 75
2, 43326, Note_on_c, 0, 66, 0
2, 43328, Note_on_c, 0, 67, 76
2, 43358, Note_on_c, 0, 67, 0
2, 43360, Note_on_c, 0, 69, 76
2, 43390, Note_on_c, 0, 69, 0
2, 43392, Note_on_c, 0, 67, 76
2, 43422, Note_on_c, 0, 67, 0
2, 43424, Note_on_c, 0, 69, 77
2, 43454, Note_on_c, 0, 69, 0
2, 43456, Note_on_c, 0, 71, 77
2, 43486, Note_on_c, 0, 71, 0
2, 43488, Note_on_c, 0, 69, 77
2, 43518, Note_on_c, 0, 69, 0
2, 43520, Note_on_c, 0, 71, 78
2, 43550, Note_on_c, 0, 71, 0
2, 43552, Note_on_c, 0, 72, 78
2, 43582, Note_on_c, 0, 72, 0
2, 43584, Note_on_c, 0, 71, 78
2, 43614, Note_on_c, 0, 71, 0
2, 43616, Note_on_c, 0, 72, 79
2, 43646, Note_on_c, 0, 72, 0
2, 43648, Note_on_c, 0, 74, 79
2, 43678, Note_on_c, 0, 74, 0
2, 43680, Note_on_c, 0, 72, 79
2, 43710, Note_on_c, 0, 72, 0
2, 43712, Note_on_c, 0, 74, 80
2, 43742, Note_on_c, 0, 74, 0
2, 43744, Note_on_c, 0, 76, 80
2, 43774, Note_on_c, 0, 76, 0
2, 43776, Note_on_c, 0, 74, 97
2, 43815, Note_on_c, 0, 74, 0
2, 43872, Note_on_c, 0, 67, 79
2, 43961, Note_on_c, 0, 67, 0
2, 43968, Note_on_c, 0, 67, 77
2, 43983, Note_on_c, 0, 67, 0
2, 43984, Note_on_c, 0, 66, 76
2, 43999, Note_on_c, 0, 66, 0
2, 44000, Note_on_c, 0, 67, 76
2, 44015, Note_on_c, 0, 67, 0
2, 44016, Note_on_c, 0, 66, 76
2, 44031, Note_on_c, 0, 66, 0
2, 44032, Note_on_c, 0, 64, 76
2, 44047, Note_on_c, 0, 64, 0
2, 44048, Note_on_c, 0, 66, 75
2, 44063, Note_on_c, 0, 66, 0
2, 44064, Note_on_c, 0, 66, 75
2, 44160, Note_on_c, 0, 66, 0
2, 44160, Note_on_c, 0, 67, 75
2, 44241, Note_on_c, 0, 67, 0
2, 44352, Note_on_c, 0, 74, 75
2, 44370, Note_on_c, 0, 74, 0
2, 44370, Note_on_c, 0, 78, 75
2, 44388, Note_on_c, 0, 78, 0
2, 44388, Note_on_c, 0, 81, 75
2, 44406, Note_on_c, 0, 81, 0
2, 44406, Note_on_c, 0, 84, 75
2, 44515, Note_on_c, 0, 84, 0
2, 44520, Note_on_c, 0, 81, 75
2, 44543, Note_on_c, 0, 81, 0
2, 44544, Note_on_c, 0, 83, 75
2, 44611, Note_on_c, 0, 83, 0
2, 44616, Note_on_c, 0, 79, 75
2, 44639, Note_on_c, 0, 79, 0
2, 44640, Note_on_c, 0, 74, 75
2, 44729, Note_on_c, 0, 74, 0
2, 44736, Note_on_c, 0, 74, 75
2, 44751, Note_on_c, 0, 74, 0
2, 44752, Note_on_c, 0, 72, 75
2, 44767, Note_on_c, 0, 72, 0
2, 44768, Note_on_c, 0, 74, 75
2, 44783, Note_on_c, 0, 74, 0
2, 44784, Note_on_c, 0, 72, 75
2, 44799, Note_on_c, 0, 72, 0
2, 44800, Note_on_c, 0, 71, 75
2, 44815, Note_on_c, 0, 71, 0
2, 44816, Note_on_c, 0, 72, 75
2, 44831, Note_on_c, 0, 72, 0
2, 44832, Note_on_c, 0, 71, 75
2, 44921, Note_on_c, 0, 71, 0
2, 44928, Note_on_c, 0, 74, 66
2, 44946, Note_on_c, 0, 74, 0
2, 44946, Note_on_c, 0, 78, 66
2, 44964, Note_on_c, 0, 78, 0
2, 44964, Note_on_c, 0, 81, 66
2, 44982, Note_on_c, 0, 81, 0
2, 44982, Note_on_c, 0, 84, 66
2, 45091, Note_on_c, 0, 84, 0
2, 45096, Note_on_c, 0, 81, 66
2, 45119, Note_on_c, 0, 81, 0
2, 45120, Note_on_c, 0, 83, 66
2, 45187, Note_on_c, 0, 83, 0
2, 45192, Note_on_c, 0, 79, 66
2, 45215, Note_on_c, 0, 79, 0
2, 45216, Note_on_c, 0, 74, 66
2, 45305, Note_on_c, 0, 74, 0
2, 45312, Note_on_c, 0, 74, 66
2, 45327, Note_on_c, 0, 74, 0
2, 45328, Note_on_c, 0, 72, 66
2, 45343, Note_on_c, 0, 72, 0
2, 45344, Note_on_c, 0, 74, 66
2, 45359, Note_on_c, 0, 74, 0
2, 45360, Note_on_c, 0, 72, 66
2, 45375, Note_on_c, 0, 72, 0
2, 45376, Note_on_c, 0, 71, 66
2, 45391, Note_on_c, 0, 71, 0
2, 45392, Note_on_c, 0, 72, 66
2, 45407, Note_on_c, 0, 72, 0
2, 45408, Note_on_c, 0, 71, 66
2, 45497, Note_on_c, 0, 71, 0
2, 45504, Note_on_c, 0, 69, 75
2, 45527, Note_on_c, 0, 69, 0
2, 45528, Note_on_c, 0, 71, 75
2, 45551, Note_on_c, 0, 71, 0
2, 45552, Note_on_c, 0, 72, 75
2, 45575, Note_on_c, 0, 72, 0
2, 45576, Note_on_c, 0, 71, 75
2, 45599, Note_on_c, 0, 71, 0
2, 45600, Note_on_c, 0, 69, 75
2, 45689, Note_on_c, 0, 69, 0
2, 45792, Note_on_c, 0, 71, 75
2, 45815, Note_on_c, 0, 71, 0
2, 45816, Note_on_c, 0, 72, 75
2, 45839, Note_on_c, 0, 72, 0
2, 45840, Note_on_c, 0, 74, 75
2, 45863, Note_on_c, 0, 74, 0
2, 45864, Note_on_c, 0, 72, 75
2, 45887, Note_on_c, 0, 72, 0
2, 45888, Note_on_c, 0, 71, 75
2, 45977, Note_on_c, 0, 71, 0
2, 46128, Note_on_c, 0, 71, 75
2, 46173, Note_on_c, 0, 71, 0
2, 46176, Note_on_c, 0, 79, 75
2, 46221, Note_on_c, 0, 79, 0
2, 46224, Note_on_c, 0, 76, 75
2, 46269, Note_on_c, 0, 76, 0
2, 46272, Note_on_c, 0, 74, 75
2, 46284, Note_on_c, 0, 74, 0
2, 46284, Note_on_c, 0, 76, 75
2, 46296, Note_on_c, 0, 76, 0
2, 46296, Note_on_c, 0, 74, 75
2, 46317, Note_on_c, 0, 74, 0
2, 46320, Note_on_c, 0, 73, 75
2, 46365, Note_on_c, 0, 73, 0
2, 46368, Note_on_c, 0, 73, 75
2, 46464, Note_on_c, 0, 73, 0
2, 46464, Note_on_c, 0, 74, 75
2, 46545, Note_on_c, 0, 74, 0
2, 46656, Note_on_c, 0, 62, 75
2, 46674, Note_on_c, 0, 62, 0
2, 46674, Note_on_c, 0, 67, 75
2, 46692, Note_on_c, 0, 67, 0
2, 46692, Note_on_c, 0, 71, 75
2, 46710, Note_on_c, 0, 71, 0
2, 46710, Note_on_c, 0, 74, 75
2, 46819, Note_on_c, 0, 74, 0
2, 46824, Note_on_c, 0, 72, 75
2, 46836, Note_on_c, 0, 72, 0
2, 46836, Note_on_c, 0, 74, 75
2, 46848, Note_on_c, 0, 74, 0
2, 46848, Note_on_c, 0, 76, 75
2, 46915, Note_on_c, 0, 76, 0
2, 46920, Note_on_c, 0, 71, 75
2, 46943, Note_on_c, 0, 71, 0
2, 46944, Note_on_c, 0, 74, 75
2, 47011, Note_on_c, 0, 74, 0
2, 47016, Note_on_c, 0, 72, 75
2, 47039, Note_on_c, 0, 72, 0
2, 47040, Note_on_c, 0, 69, 75
2, 47203, Note_on_c, 0, 69, 0
2, 47208, Note_on_c, 0, 72, 75
2, 47231, Note_on_c, 0, 72, 0
2, 47232, Note_on_c, 0, 62, 75
2, 47250, Note_on_c, 0, 62, 0
2, 47250, Note_on_c, 0, 66, 75
2, 47268, Note_on_c, 0, 66, 0
2, 47268, Note_on_c, 0, 67, 75
2, 47286, Note_on_c, 0, 67, 0
2, 47286, Note_on_c, 0, 71, 75
2, 47395, Note_on_c, 0, 71, 0
2, 47400, Note_on_c, 0, 69, 75
2, 47412, Note_on_c, 0, 69, 0
2, 47412, Note_on_c, 0, 71, 75
2, 47424, Note_on_c, 0, 71, 0
2, 47424, Note_on_c, 0, 72, 75
2, 47491, Note_on_c, 0, 72, 0
2, 47496, Note_on_c, 0, 69, 75
2, 47519, Note_on_c, 0, 69, 0
2, 47520, Note_on_c, 0, 67, 75
2, 47609, Note_on_c, 0, 67, 0
2, 47616, Note_on_c, 0, 67, 75
2, 47631, Note_on_c, 0, 67, 0
2, 47632, Note_on_c, 0, 66, 75
2, 47647, Note_on_c, 0, 66, 0
2, 47648, Note_on_c, 0, 67, 75
2, 47663, Note_on_c, 0, 67, 0
2, 47664, Note_on_c, 0, 66, 75
2, 47679, Note_on_c, 0, 66, 0
2, 47680, Note_on_c, 0, 64, 75
2, 47695, Note_on_c, 0, 64, 0
2, 47696, Note_on_c, 0, 66, 75
2, 47711, Note_on_c, 0, 66, 0
2, 47712, Note_on_c, 0, 67, 75
2, 47779, Note_on_c, 0, 67, 0
2, 47784, Note_on_c, 0, 62, 75
2, 47807, Note_on_c, 0, 62, 0
2, 47808, Note_on_c, 0, 64, 75
2, 47875, Note_on_c, 0, 64, 0
2, 47880, Note_on_c, 0, 66, 75
2, 47892, Note_on_c, 0, 66, 0
2, 47892, Note_on_c, 0, 67, 75
2, 47904, Note_on_c, 0, 67, 0
2, 47904, Note_on_c, 0, 66, 75
2, 47993, Note_on_c, 0, 66, 0
2, 48072, Note_on_c, 0, 67, 75
2, 48095, Note_on_c, 0, 67, 0
2, 48096, Note_on_c, 0, 69, 75
2, 48163, Note_on_c, 0, 69, 0
2, 48168, Note_on_c, 0, 71, 75
2, 48180, Note_on_c, 0, 71, 0
2, 48180, Note_on_c, 0, 72, 75
2, 48192, Note_on_c, 0, 72, 0
2, 48192, Note_on_c, 0, 71, 75
2, 48281, Note_on_c, 0, 71, 0
2, 48360, Note_on_c, 0, 62, 75
2, 48383, Note_on_c, 0, 62, 0
2, 48384, Note_on_c, 0, 64, 75
2, 48414, Note_on_c, 0, 64, 0
2, 48416, Note_on_c, 0, 66, 75
2, 48446, Note_on_c, 0, 66, 0
2, 48448, Note_on_c, 0, 67, 75
2, 48478, Note_on_c, 0, 67, 0
2, 48480, Note_on_c, 0, 66, 75
2, 48510, Note_on_c, 0, 66, 0
2, 48512, Note_on_c, 0, 67, 76
2, 48542, Note_on_c, 0, 67, 0
2, 48544, Note_on_c, 0, 69, 76
2, 48574, Note_on_c, 0, 69, 0
2, 48576, Note_on_c, 0, 67, 76
2, 48606, Note_on_c, 0, 67, 0
2, 48608, Note_on_c, 0, 69, 77
2, 48638, Note_on_c, 0, 69, 0
2, 48640, Note_on_c, 0, 71, 77
2, 48670, Note_on_c, 0, 71, 0
2, 48672, Note_on_c, 0, 69, 77
2, 48702, Note_on_c, 0, 69, 0
2, 48704, Note_on_c, 0, 71, 78
2, 48734, Note_on_c, 0, 71, 0
2, 48736, Note_on_c, 0, 72, 78
2, 48766, Note_on_c, 0, 72, 0
2, 48768, Note_on_c, 0, 71, 78
2, 48798, Note_on_c, 0, 71, 0
2, 48800, Note_on_c, 0, 72, 79
2, 48830, Note_on_c, 0, 72, 0
2, 48832, Note_on_c, 0, 74, 79
2, 48862, Note_on_c, 0, 74, 0
2, 48864, Note_on_c, 0, 72, 79
2, 48894, Note_on_c, 0, 72, 0
2, 48896, Note_on_c, 0, 74, 80
2, 48926, Note_on_c, 0, 74, 0
2, 48928, Note_on_c, 0, 76, 80
2, 48958, Note_on_c, 0, 76, 0
2, 48960, Note_on_c, 0, 74, 97
2, 48999, Note_on_c, 0, 74, 0
2, 49056, Note_on_c, 0, 67, 79
2, 49145, Note_on_c, 0, 67, 0
2, 49152, Note_on_c, 0, 67, 77
2, 49167, Note_on_c, 0, 67, 0
2, 49168, Note_on_c, 0, 66, 76
2, 49183, Note_on_c, 0, 66, 0
2, 49184, Note_on_c, 0, 67, 76
2, 49199, Note_on_c, 0, 67, 0
2, 49200, Note_on_c, 0, 66, 76
2, 49215, Note_on_c, 0, 66, 0
2, 49216, Note_on_c, 0, 64, 76
2, 49231, Note_on_c, 0, 64, 0
2, 49232, Note_on_c, 0, 66, 75
2, 49247, Note_on_c, 0, 66, 0
2, 49248, Note_on_c, 0, 66, 75
2, 49344, Note_on_c, 0, 66, 0
2, 49344, Note_on_c, 0, 67, 75
2, 49425, Note_on_c, 0, 67, 0
2, 49536, End_track
3, 0, Start_track
3, 0, Program_c, 0, 0
3, 0, Control_c, 0, 7, 127
3, 0, Control_c, 0, 10, 64
3, 49536, End_track
4, 0, Start_track
4, 0, Program_c, 1, 0
4, 0, Control_c, 1, 7, 127
4, 0, Control_c, 1, 10, 64
4, 96, Note_on_c, 1, 59, 75
4, 185, Note_on_c, 1, 59, 0
4, 192, Note_on_c, 1, 55, 75
4, 281, Note_on_c, 1, 55, 0
4, 288, Note_on_c, 1, 57, 75
4, 377, Note_on_c, 1, 57, 0
4, 384, Note_on_c, 1, 54, 75
4, 473, Note_on_c, 1, 54, 0
4, 480, Note_on_c, 1, 50, 75
4, 569, Note_on_c, 1, 50, 0
4, 576, Note_on_c, 1, 55, 75
4, 665, Note_on_c, 1, 55, 0
4, 672, Note_on_c, 1, 52, 75
4, 761, Note_on_c, 1, 52, 0
4, 768, Note_on_c, 1, 48, 75
4, 857, Note_on_c, 1, 48, 0
4, 864, Note_on_c, 1, 50, 75
4, 953, Note_on_c, 1, 50, 0
4, 960, Note_on_c, 1, 48, 75
4, 1049, Note_on_c, 1, 48, 0
4, 1056, Note_on_c, 1, 47, 75
4, 1145, Note_on_c, 1, 47, 0
4, 1152, Note_on_c, 1, 48, 75
4, 1152, Note_on_c, 1, 36, 75
4, 1241, Note_on_c, 1, 48, 0
4, 1241, Note_on_c, 1, 36, 0
4, 1248, Note_on_c, 1, 50, 75
4, 1248, Note_on_c, 1, 38, 75
4, 1337, Note_on_c, 1, 50, 0
4, 1337, Note_on_c, 1, 38, 0
4, 1344, Note_on_c, 1, 52, 75
4, 1344, Note_on_c, 1, 40, 75
4, 1433, Note_on_c, 1, 52, 0
4, 1433, Note_on_c, 1, 40, 0
4, 1440, Note_on_c, 1, 54, 75
4, 1440, Note_on_c, 1, 42, 75
4, 1529, Note_on_c, 1, 54, 0
4, 1529, Note_on_c, 1, 42, 0
4, 1536, Note_on_c, 1, 55, 75
4, 1536, Note_on_c, 1, 43, 75
4, 1625, Note_on_c, 1, 55, 0
4, 1625, Note_on_c, 1, 43, 0
4, 1632, Note_on_c, 1, 54, 75
4, 1632, Note_on_c, 1, 42, 75
4, 1721, Note_on_c, 1, 54, 0
4, 1721, Note_on_c, 1, 42, 0
4, 1728, Note_on_c, 1, 55, 75
4, 1728, Note_on_c, 1, 43, 75
4, 1817, Note_on_c, 1, 55, 0
4, 1817, Note_on_c, 1, 43, 0
4, 1824, Note_on_c, 1, 57, 76
4, 1824, Note_on_c, 1, 45, 76
4, 1913, Note_on_c, 1, 57, 0
4, 1913, Note_on_c, 1, 45, 0
4, 1920, Note_on_c, 1, 59, 77
4, 1920, Note_on_c, 1, 47, 77
4, 2009, Note_on_c, 1, 59, 0
4, 2009, Note_on_c, 1, 47, 0
4, 2016, Note_on_c, 1, 61, 78
4, 2016, Note_on_c, 1, 49, 78
4, 2105, Note_on_c, 1, 61, 0
4, 2105, Note_on_c, 1, 49, 0
4, 2112, Note_on_c, 1, 62, 79
4, 2112, Note_on_c, 1, 50, 79
4, 2201, Note_on_c, 1, 62, 0
4, 2201, Note_on_c, 1, 50, 0
4, 2208, Note_on_c, 1, 64, 80
4, 2208, Note_on_c, 1, 52, 80
4, 2297, Note_on_c, 1, 64, 0
4, 2297, Note_on_c, 1, 52, 0
4, 2304, Note_on_c, 1, 66, 81
4, 2304, Note_on_c, 1, 54, 81
4, 2393, Note_on_c, 1, 66, 0
4, 2393, Note_on_c, 1, 54, 0
4, 2400, Note_on_c, 1, 67, 79
4, 2400, Note_on_c, 1, 55, 79
4, 2489, Note_on_c, 1, 67, 0
4, 2489, Note_on_c, 1, 55, 0
4, 2496, Note_on_c, 1, 69, 77
4, 2496, Note_on_c, 1, 57, 77
4, 2585, Note_on_c, 1, 69, 0
4, 2585, Note_on_c, 1, 57, 0
4, 2592, Note_on_c, 1, 62, 75
4, 2681, Note_on_c, 1, 62, 0
4, 2688, Note_on_c, 1, 57, 75
4, 2777, Note_on_c, 1, 57, 0
4, 2784, Note_on_c, 1, 50, 75
4, 2873, Note_on_c, 1, 50, 0
4, 2976, Note_on_c, 1, 59, 75
4, 3065, Note_on_c, 1, 59, 0
4, 3072, Note_on_c, 1, 55, 75
4, 3161, Note_on_c, 1, 55, 0
4, 3168, Note_on_c, 1, 57, 75
4, 3257, Note_on_c, 1, 57, 0
4, 3264, Note_on_c, 1, 54, 75
4, 3353, Note_on_c, 1, 54, 0
4, 3360, Note_on_c, 1, 50, 75
4, 3449, Note_on_c, 1, 50, 0
4, 3456, Note_on_c, 1, 55, 75
4, 3545, Note_on_c, 1, 55, 0
4, 3552, Note_on_c, 1, 52, 75
4, 3641, Note_on_c, 1, 52, 0
4, 3648, Note_on_c, 1, 48, 75
4, 3737, Note_on_c, 1, 48, 0
4, 3744, Note_on_c, 1, 50, 75
4, 3833, Note_on_c, 1, 50, 0
4, 3840, Note_on_c, 1, 48, 75
4, 3929, Note_on_c, 1, 48, 0
4, 3936, Note_on_c, 1, 47, 75
4, 4025, Note_on_c, 1, 47, 0
4, 4032, Note_on_c, 1, 48, 75
4, 4032, Note_on_c, 1, 36, 75
4, 4121, Note_on_c, 1, 48, 0
4, 4121, Note_on_c, 1, 36, 0
4, 4128, Note_on_c, 1, 50, 75
4, 4128, Note_on_c, 1, 38, 75
4, 4217, Note_on_c, 1, 50, 0
4, 4217, Note_on_c, 1, 38, 0
4, 4224, Note_on_c, 1, 52, 75
4, 4224, Note_on_c, 1, 40, 75
4, 4313, Note_on_c, 1, 52, 0
4, 4313, Note_on_c, 1, 40, 0
4, 4320, Note_on_c, 1, 54, 75
4, 4320, Note_on_c, 1, 42, 75
4, 4409, Note_on_c, 1, 54, 0
4, 4409, Note_on_c, 1, 42, 0
4, 4416, Note_on_c, 1, 55, 75
4, 4416, Note_on_c, 1, 43, 75
4, 4505, Note_on_c, 1, 55, 0
4, 4505, Note_on_c, 1, 43, 0
4, 4512, Note_on_c, 1, 54, 75
4, 4512, Note_on_c, 1, 42, 75
4, 4601, Note_on_c, 1, 54, 0
4, 4601, Note_on_c, 1, 42, 0
4, 4608, Note_on_c, 1, 55, 75
4, 4608, Note_on_c, 1, 43, 75
4, 4697, Note_on_c, 1, 55, 0
4, 4697, Note_on_c, 1, 43, 0
4, 4704, Note_on_c, 1, 57, 76
4, 4704, Note_on_c, 1, 45, 76
4, 4793, Note_on_c, 1, 57, 0
4, 4793, Note_on_c, 1, 45, 0
4, 4800, Note_on_c, 1, 59, 77
4, 4800, Note_on_c, 1, 47, 77
4, 4889, Note_on_c, 1, 59, 0
4, 4889, Note_on_c, 1, 47, 0
4, 4896, Note_on_c, 1, 61, 78
4, 4896, Note_on_c, 1, 49, 78
4, 4985, Note_on_c, 1, 61, 0
4, 4985, Note_on_c, 1, 49, 0
4, 4992, Note_on_c, 1, 62, 79
4, 4992, Note_on_c, 1, 50, 79
4, 5081, Note_on_c, 1, 62, 0
4, 5081, Note_on_c, 1, 50, 0
4, 5088, Note_on_c, 1, 64, 80
4, 5088, Note_on_c, 1, 52, 80
4, 5177, Note_on_c, 1, 64, 0
4, 5177, Note_on_c, 1, 52, 0
4, 5184, Note_on_c, 1, 66, 81
4, 5184, Note_on_c, 1, 54, 81
4, 5273, Note_on_c, 1, 66, 0
4, 5273, Note_on_c, 1, 54, 0
4, 5280, Note_on_c, 1, 67, 79
4, 5280, Note_on_c, 1, 55, 79
4, 5369, Note_on_c, 1, 67, 0
4, 5369, Note_on_c, 1, 55, 0
4, 5376, Note_on_c, 1, 69, 77
4, 5376, Note_on_c, 1, 57, 77
4, 5465, Note_on_c, 1, 69, 0
4, 5465, Note_on_c, 1, 57, 0
4, 5472, Note_on_c, 1, 62, 75
4, 5561, Note_on_c, 1, 62, 0
4, 5568, Note_on_c, 1, 57, 75
4, 5657, Note_on_c, 1, 57, 0
4, 5664, Note_on_c, 1, 50, 75
4, 5753, Note_on_c, 1, 50, 0
4, 5856, Note_on_c, 1, 66, 75
4, 5945, Note_on_c, 1, 66, 0
4, 5952, Note_on_c, 1, 67, 75
4, 6041, Note_on_c, 1, 67, 0
4, 6048, Note_on_c, 1, 71, 75
4, 6137, Note_on_c, 1, 71, 0
4, 6144, Note_on_c, 1, 69, 75
4, 6233, Note_on_c, 1, 69, 0
4, 6240, Note_on_c, 1, 67, 75
4, 6329, Note_on_c, 1, 67, 0
4, 6432, Note_on_c, 1, 66, 66
4, 6521, Note_on_c, 1, 66, 0
4, 6528, Note_on_c, 1, 67, 66
4, 6617, Note_on_c, 1, 67, 0
4, 6624, Note_on_c, 1, 71, 66
4, 6713, Note_on_c, 1, 71, 0
4, 6720, Note_on_c, 1, 69, 66
4, 6809, Note_on_c, 1, 69, 0
4, 6816, Note_on_c, 1, 67, 66
4, 6905, Note_on_c, 1, 67, 0
4, 6912, Note_on_c, 1, 66, 66
4, 7001, Note_on_c, 1, 66, 0
4, 7008, Note_on_c, 1, 66, 66
4, 7097, Note_on_c, 1, 66, 0
4, 7104, Note_on_c, 1, 66, 66
4, 7193, Note_on_c, 1, 66, 0
4, 7200, Note_on_c, 1, 67, 66
4, 7289, Note_on_c, 1, 67, 0
4, 7296, Note_on_c, 1, 67, 66
4, 7385, Note_on_c, 1, 67, 0
4, 7392, Note_on_c, 1, 67, 66
4, 7481, Note_on_c, 1, 67, 0
4, 7488, Note_on_c, 1, 67, 66
4, 7577, Note_on_c, 1, 67, 0
4, 7584, Note_on_c, 1, 67, 66
4, 7673, Note_on_c, 1, 67, 0
4, 7680, Note_on_c, 1, 67, 66
4, 7769, Note_on_c, 1, 67, 0
4, 7776, Note_on_c, 1, 67, 66
4, 7872, Note_on_c, 1, 67, 0
4, 7872, Note_on_c, 1, 66, 66
4, 7953, Note_on_c, 1, 66, 0
4, 8160, Note_on_c, 1, 59, 75
4, 8249, Note_on_c, 1, 59, 0
4, 8256, Note_on_c, 1, 55, 75
4, 8345, Note_on_c, 1, 55, 0
4, 8352, Note_on_c, 1, 57, 75
4, 8441, Note_on_c, 1, 57, 0
4, 8448, Note_on_c, 1, 54, 75
4, 8537, Note_on_c, 1, 54, 0
4, 8544, Note_on_c, 1, 50, 75
4, 8633, Note_on_c, 1, 50, 0
4, 8640, Note_on_c, 1, 55, 75
4, 8729, Note_on_c, 1, 55, 0
4, 8736, Note_on_c, 1, 52, 75
4, 8825, Note_on_c, 1, 52, 0
4, 8832, Note_on_c, 1, 48, 75
4, 8921, Note_on_c, 1, 48, 0
4, 8928, Note_on_c, 1, 50, 75
4, 9017, Note_on_c, 1, 50, 0
4, 9024, Note_on_c, 1, 48, 75
4, 9113, Note_on_c, 1, 48, 0
4, 9120, Note_on_c, 1, 47, 75
4, 9209, Note_on_c, 1, 47, 0
4, 9216, Note_on_c, 1, 48, 75
4, 9216, Note_on_c, 1, 36, 75
4, 9305, Note_on_c, 1, 48, 0
4, 9305, Note_on_c, 1, 36, 0
4, 9312, Note_on_c, 1, 50, 75
4, 9312, Note_on_c, 1, 38, 75
4, 9401, Note_on_c, 1, 50, 0
4, 9401, Note_on_c, 1, 38, 0
4, 9408, Note_on_c, 1, 52, 75
4, 9408, Note_on_c, 1, 40, 75
4, 9497, Note_on_c, 1, 52, 0
4, 9497, Note_on_c, 1, 40, 0
4, 9504, Note_on_c, 1, 54, 75
4, 9504, Note_on_c, 1, 42, 75
4, 9593, Note_on_c, 1, 54, 0
4, 9593, Note_on_c, 1, 42, 0
4, 9600, Note_on_c, 1, 55, 75
4, 9600, Note_on_c, 1, 43, 75
4, 9689, Note_on_c, 1, 55, 0
4, 9689, Note_on_c, 1, 43, 0
4, 9696, Note_on_c, 1, 47, 75
4, 9696, Note_on_c, 1, 35, 75
4, 9785, Note_on_c, 1, 47, 0
4, 9785, Note_on_c, 1, 35, 0
4, 9792, Note_on_c, 1, 48, 75
4, 9792, Note_on_c, 1, 36, 75
4, 9881, Note_on_c, 1, 48, 0
4, 9881, Note_on_c, 1, 36, 0
4, 9888, Note_on_c, 1, 50, 76
4, 9888, Note_on_c, 1, 38, 76
4, 9977, Note_on_c, 1, 50, 0
4, 9977, Note_on_c, 1, 38, 0
4, 9984, Note_on_c, 1, 52, 77
4, 9984, Note_on_c, 1, 40, 77
4, 10073, Note_on_c, 1, 52, 0
4, 10073, Note_on_c, 1, 40, 0
4, 10080, Note_on_c, 1, 54, 78
4, 10080, Note_on_c, 1, 42, 78
4, 10169, Note_on_c, 1, 54, 0
4, 10169, Note_on_c, 1, 42, 0
4, 10176, Note_on_c, 1, 55, 79
4, 10176, Note_on_c, 1, 43, 79
4, 10265, Note_on_c, 1, 55, 0
4, 10265, Note_on_c, 1, 43, 0
4, 10272, Note_on_c, 1, 57, 80
4, 10272, Note_on_c, 1, 45, 80
4, 10361, Note_on_c, 1, 57, 0
4, 10361, Note_on_c, 1, 45, 0
4, 10368, Note_on_c, 1, 59, 81
4, 10368, Note_on_c, 1, 47, 81
4, 10457, Note_on_c, 1, 59, 0
4, 10457, Note_on_c, 1, 47, 0
4, 10464, Note_on_c, 1, 60, 79
4, 10464, Note_on_c, 1, 48, 79
4, 10553, Note_on_c, 1, 60, 0
4, 10553, Note_on_c, 1, 48, 0
4, 10560, Note_on_c, 1, 62, 77
4, 10560, Note_on_c, 1, 50, 77
4, 10649, Note_on_c, 1, 62, 0
4, 10649, Note_on_c, 1, 50, 0
4, 10656, Note_on_c, 1, 55, 75
4, 10745, Note_on_c, 1, 55, 0
4, 10752, Note_on_c, 1, 50, 75
4, 10841, Note_on_c, 1, 50, 0
4, 10848, Note_on_c, 1, 43, 75
4, 10937, Note_on_c, 1, 43, 0
4, 11040, Note_on_c, 1, 66, 75
4, 11129, Note_on_c, 1, 66, 0
4, 11136, Note_on_c, 1, 67, 75
4, 11225, Note_on_c, 1, 67, 0
4, 11232, Note_on_c, 1, 71, 75
4, 11321, Note_on_c, 1, 71, 0
4, 11328, Note_on_c, 1, 69, 75
4, 11417, Note_on_c, 1, 69, 0
4, 11424, Note_on_c, 1, 67, 75
4, 11513, Note_on_c, 1, 67, 0
4, 11616, Note_on_c, 1, 66, 66
4, 11705, Note_on_c, 1, 66, 0
4, 11712, Note_on_c, 1, 67, 66
4, 11801, Note_on_c, 1, 67, 0
4, 11808, Note_on_c, 1, 71, 66
4, 11897, Note_on_c, 1, 71, 0
4, 11904, Note_on_c, 1, 69, 66
4, 11993, Note_on_c, 1, 69, 0
4, 12000, Note_on_c, 1, 67, 66
4, 12089, Note_on_c, 1, 67, 0
4, 12096, Note_on_c, 1, 66, 66
4, 12185, Note_on_c, 1, 66, 0
4, 12192, Note_on_c, 1, 66, 66
4, 12281, Note_on_c, 1, 66, 0
4, 12288, Note_on_c, 1, 66, 66
4, 12377, Note_on_c, 1, 66, 0
4, 12384, Note_on_c, 1, 67, 66
4, 12473, Note_on_c, 1, 67, 0
4, 12480, Note_on_c, 1, 67, 66
4, 12569, Note_on_c, 1, 67, 0
4, 12576, Note_on_c, 1, 67, 66
4, 12665, Note_on_c, 1, 67, 0
4, 12672, Note_on_c, 1, 67, 66
4, 12761, Note_on_c, 1, 67, 0
4, 12768, Note_on_c, 1, 67, 66
4, 12857, Note_on_c, 1, 67, 0
4, 12864, Note_on_c, 1, 67, 66
4, 12953, Note_on_c, 1, 67, 0
4, 12960, Note_on_c, 1, 67, 66
4, 13056, Note_on_c, 1, 67, 0
4, 13056, Note_on_c, 1, 66, 66
4, 13137, Note_on_c, 1, 66, 0
4, 13344, Note_on_c, 1, 59, 75
4, 13433, Note_on_c, 1, 59, 0
4, 13440, Note_on_c, 1, 55, 75
4, 13529, Note_on_c, 1, 55, 0
4, 13536, Note_on_c, 1, 57, 75
4, 13625, Note_on_c, 1, 57, 0
4, 13632, Note_on_c, 1, 54, 75
4, 13721, Note_on_c, 1, 54, 0
4, 13728, Note_on_c, 1, 50, 75
4, 13817, Note_on_c, 1, 50, 0
4, 13824, Note_on_c, 1, 55, 75
4, 13913, Note_on_c, 1, 55, 0
4, 13920, Note_on_c, 1, 52, 75
4, 14009, Note_on_c, 1, 52, 0
4, 14016, Note_on_c, 1, 48, 75
4, 14105, Note_on_c, 1, 48, 0
4, 14112, Note_on_c, 1, 50, 75
4, 14201, Note_on_c, 1, 50, 0
4, 14208, Note_on_c, 1, 48, 75
4, 14297, Note_on_c, 1, 48, 0
4, 14304, Note_on_c, 1, 47, 75
4, 14393, Note_on_c, 1, 47, 0
4, 14400, Note_on_c, 1, 48, 75
4, 14400, Note_on_c, 1, 36, 75
4, 14489, Note_on_c, 1, 48, 0
4, 14489, Note_on_c, 1, 36, 0
4, 14496, Note_on_c, 1, 50, 75
4, 14496, Note_on_c, 1, 38, 75
4, 14585, Note_on_c, 1, 50, 0
4, 14585, Note_on_c, 1, 38, 0
4, 14592, Note_on_c, 1, 52, 75
4, 14592, Note_on_c, 1, 40, 75
4, 14681, Note_on_c, 1, 52, 0
4, 14681, Note_on_c, 1, 40, 0
4, 14688, Note_on_c, 1, 54, 75
4, 14688, Note_on_c, 1, 42, 75
4, 14777, Note_on_c, 1, 54, 0
4, 14777, Note_on_c, 1, 42, 0
4, 14784, Note_on_c, 1, 55, 75
4, 14784, Note_on_c, 1, 43, 75
4, 14873, Note_on_c, 1, 55, 0
4, 14873, Note_on_c, 1, 43, 0
4, 14880, Note_on_c, 1, 47, 75
4, 14880, Note_on_c, 1, 35, 75
4, 14969, Note_on_c, 1, 47, 0
4, 14969, Note_on_c, 1, 35, 0
4, 14976, Note_on_c, 1, 48, 75
4, 14976, Note_on_c, 1, 36, 75
4, 15065, Note_on_c, 1, 48, 0
4, 15065, Note_on_c, 1, 36, 0
4, 15072, Note_on_c, 1, 50, 76
4, 15072, Note_on_c, 1, 38, 76
4, 15161, Note_on_c, 1, 50, 0
4, 15161, Note_on_c, 1, 38, 0
4, 15168, Note_on_c, 1, 52, 77
4, 15168, Note_on_c, 1, 40, 77
4, 15257, Note_on_c, 1, 52, 0
4, 15257, Note_on_c, 1, 40, 0
4, 15264, Note_on_c, 1, 54, 78
4, 15264, Note_on_c, 1, 42, 78
4, 15353, Note_on_c, 1, 54, 0
4, 15353, Note_on_c, 1, 42, 0
4, 15360, Note_on_c, 1, 55, 79
4, 15360, Note_on_c, 1, 43, 79
4, 15449, Note_on_c, 1, 55, 0
4, 15449, Note_on_c, 1, 43, 0
4, 15456, Note_on_c, 1, 57, 80
4, 15456, Note_on_c, 1, 45, 80
4, 15545, Note_on_c, 1, 57, 0
4, 15545, Note_on_c, 1, 45, 0
4, 15552, Note_on_c, 1, 59, 81
4, 15552, Note_on_c, 1, 47, 81
4, 15641, Note_on_c, 1, 59, 0
4, 15641, Note_on_c, 1, 47, 0
4, 15648, Note_on_c, 1, 60, 79
4, 15648, Note_on_c, 1, 48, 79
4, 15737, Note_on_c, 1, 60, 0
4, 15737, Note_on_c, 1, 48, 0
4, 15744, Note_on_c, 1, 62, 77
4, 15744, Note_on_c, 1, 50, 77
4, 15833, Note_on_c, 1, 62, 0
4, 15833, Note_on_c, 1, 50, 0
4, 15840, Note_on_c, 1, 55, 75
4, 15929, Note_on_c, 1, 55, 0
4, 15936, Note_on_c, 1, 50, 75
4, 16025, Note_on_c, 1, 50, 0
4, 16032, Note_on_c, 1, 43, 75
4, 16121, Note_on_c, 1, 43, 0
4, 16128, Note_on_c, 1, 70, 62
4, 16128, Note_on_c, 1, 67, 62
4, 16217, Note_on_c, 1, 70, 0
4, 16217, Note_on_c, 1, 67, 0
4, 16224, Note_on_c, 1, 70, 62
4, 16224, Note_on_c, 1, 67, 62
4, 16313, Note_on_c, 1, 70, 0
4, 16313, Note_on_c, 1, 67, 0
4, 16320, Note_on_c, 1, 70, 62
4, 16320, Note_on_c, 1, 67, 62
4, 16409, Note_on_c, 1, 70, 0
4, 16409, Note_on_c, 1, 67, 0
4, 16416, Note_on_c, 1, 69, 62
4, 16416, Note_on_c, 1, 67, 62
4, 16505, Note_on_c, 1, 69, 0
4, 16505, Note_on_c, 1, 67, 0
4, 16512, Note_on_c, 1, 69, 62
4, 16512, Note_on_c, 1, 67, 62
4, 16601, Note_on_c, 1, 69, 0
4, 16601, Note_on_c, 1, 67, 0
4, 16608, Note_on_c, 1, 69, 63
4, 16608, Note_on_c, 1, 67, 63
4, 16697, Note_on_c, 1, 69, 0
4, 16697, Note_on_c, 1, 67, 0
4, 16704, Note_on_c, 1, 69, 63
4, 16704, Note_on_c, 1, 66, 63
4, 16793, Note_on_c, 1, 69, 0
4, 16793, Note_on_c, 1, 66, 0
4, 16800, Note_on_c, 1, 69, 64
4, 16800, Note_on_c, 1, 66, 64
4, 16889, Note_on_c, 1, 69, 0
4, 16889, Note_on_c, 1, 66, 0
4, 16896, Note_on_c, 1, 69, 64
4, 16896, Note_on_c, 1, 66, 64
4, 16985, Note_on_c, 1, 69, 0
4, 16985, Note_on_c, 1, 66, 0
4, 16992, Note_on_c, 1, 67, 65
4, 16992, Note_on_c, 1, 65, 65
4, 17081, Note_on_c, 1, 67, 0
4, 17081, Note_on_c, 1, 65, 0
4, 17088, Note_on_c, 1, 67, 65
4, 17088, Note_on_c, 1, 65, 65
4, 17177, Note_on_c, 1, 67, 0
4, 17177, Note_on_c, 1, 65, 0
4, 17184, Note_on_c, 1, 67, 66
4, 17184, Note_on_c, 1, 65, 66
4, 17273, Note_on_c, 1, 67, 0
4, 17273, Note_on_c, 1, 65, 0
4, 17280, Note_on_c, 1, 67, 66
4, 17280, Note_on_c, 1, 64, 66
4, 17369, Note_on_c, 1, 67, 0
4, 17369, Note_on_c, 1, 64, 0
4, 17376, Note_on_c, 1, 67, 67
4, 17376, Note_on_c, 1, 64, 67
4, 17465, Note_on_c, 1, 67, 0
4, 17465, Note_on_c, 1, 64, 0
4, 17472, Note_on_c, 1, 67, 67
4, 17472, Note_on_c, 1, 64, 67
4, 17561, Note_on_c, 1, 67, 0
4, 17561, Note_on_c, 1, 64, 0
4, 17568, Note_on_c, 1, 65, 68
4, 17568, Note_on_c, 1, 63, 68
4, 17657, Note_on_c, 1, 65, 0
4, 17657, Note_on_c, 1, 63, 0
4, 17664, Note_on_c, 1, 65, 68
4, 17664, Note_on_c, 1, 63, 68
4, 17753, Note_on_c, 1, 65, 0
4, 17753, Note_on_c, 1, 63, 0
4, 17760, Note_on_c, 1, 65, 69
4, 17760, Note_on_c, 1, 63, 69
4, 17849, Note_on_c, 1, 65, 0
4, 17849, Note_on_c, 1, 63, 0
4, 17856, Note_on_c, 1, 65, 69
4, 17856, Note_on_c, 1, 62, 69
4, 17945, Note_on_c, 1, 65, 0
4, 17945, Note_on_c, 1, 62, 0
4, 18096, Note_on_c, 1, 50, 81
4, 18141, Note_on_c, 1, 50, 0
4, 18144, Note_on_c, 1, 51, 81
4, 18233, Note_on_c, 1, 51, 0
4, 18384, Note_on_c, 1, 52, 81
4, 18429, Note_on_c, 1, 52, 0
4, 18432, Note_on_c, 1, 53, 81
4, 18521, Note_on_c, 1, 53, 0
4, 18672, Note_on_c, 1, 54, 81
4, 18717, Note_on_c, 1, 54, 0
4, 18720, Note_on_c, 1, 55, 81
4, 18809, Note_on_c, 1, 55, 0
4, 18960, Note_on_c, 1, 50, 81
4, 19005, Note_on_c, 1, 50, 0
4, 19008, Note_on_c, 1, 51, 81
4, 19053, Note_on_c, 1, 51, 0
4, 19056, Note_on_c, 1, 50, 81
4, 19101, Note_on_c, 1, 50, 0
4, 19104, Note_on_c, 1, 51, 81
4, 19149, Note_on_c, 1, 51, 0
4, 19152, Note_on_c, 1, 48, 81
4, 19197, Note_on_c, 1, 48, 0
4, 19200, Note_on_c, 1, 53, 81
4, 19245, Note_on_c, 1, 53, 0
4, 19248, Note_on_c, 1, 41, 81
4, 19293, Note_on_c, 1, 41, 0
4, 19296, Note_on_c, 1, 46, 81
4, 19385, Note_on_c, 1, 46, 0
4, 19392, Note_on_c, 1, 41, 81
4, 19481, Note_on_c, 1, 41, 0
4, 19488, Note_on_c, 1, 34, 81
4, 19577, Note_on_c, 1, 34, 0
4, 19584, Note_on_c, 1, 70, 62
4, 19584, Note_on_c, 1, 67, 62
4, 19673, Note_on_c, 1, 70, 0
4, 19673, Note_on_c, 1, 67, 0
4, 19680, Note_on_c, 1, 70, 62
4, 19680, Note_on_c, 1, 67, 62
4, 19769, Note_on_c, 1, 70, 0
4, 19769, Note_on_c, 1, 67, 0
4, 19776, Note_on_c, 1, 70, 62
4, 19776, Note_on_c, 1, 67, 62
4, 19865, Note_on_c, 1, 70, 0
4, 19865, Note_on_c, 1, 67, 0
4, 19872, Note_on_c, 1, 69, 62
4, 19872, Note_on_c, 1, 67, 62
4, 19961, Note_on_c, 1, 69, 0
4, 19961, Note_on_c, 1, 67, 0
4, 19968, Note_on_c, 1, 69, 62
4, 19968, Note_on_c, 1, 67, 62
4, 20057, Note_on_c, 1, 69, 0
4, 20057, Note_on_c, 1, 67, 0
4, 20064, Note_on_c, 1, 69, 63
4, 20064, Note_on_c, 1, 67, 63
4, 20153, Note_on_c, 1, 69, 0
4, 20153, Note_on_c, 1, 67, 0
4, 20160, Note_on_c, 1, 69, 63
4, 20160, Note_on_c, 1, 66, 63
4, 20249, Note_on_c, 1, 69, 0
4, 20249, Note_on_c, 1, 66, 0
4, 20256, Note_on_c, 1, 69, 64
4, 20256, Note_on_c, 1, 66, 64
4, 20345, Note_on_c, 1, 69, 0
4, 20345, Note_on_c, 1, 66, 0
4, 20352, Note_on_c, 1, 69, 64
4, 20352, Note_on_c, 1, 66, 64
4, 20441, Note_on_c, 1, 69, 0
4, 20441, Note_on_c, 1, 66, 0
4, 20448, Note_on_c, 1, 67, 65
4, 20448, Note_on_c, 1, 65, 65
4, 20537, Note_on_c, 1, 67, 0
4, 20537, Note_on_c, 1, 65, 0
4, 20544, Note_on_c, 1, 67, 65
4, 20544, Note_on_c, 1, 65, 65
4, 20633, Note_on_c, 1, 67, 0
4, 20633, Note_on_c, 1, 65, 0
4, 20640, Note_on_c, 1, 67, 66
4, 20640, Note_on_c, 1, 65, 66
4, 20729, Note_on_c, 1, 67, 0
4, 20729, Note_on_c, 1, 65, 0
4, 20736, Note_on_c, 1, 67, 66
4, 20736, Note_on_c, 1, 64, 66
4, 20825, Note_on_c, 1, 67, 0
4, 20825, Note_on_c, 1, 64, 0
4, 20832, Note_on_c, 1, 67, 67
4, 20832, Note_on_c, 1, 64, 67
4, 20921, Note_on_c, 1, 67, 0
4, 20921, Note_on_c, 1, 64, 0
4, 20928, Note_on_c, 1, 67, 67
4, 20928, Note_on_c, 1, 64, 67
4, 21017, Note_on_c, 1, 67, 0
4, 21017, Note_on_c, 1, 64, 0
4, 21024, Note_on_c, 1, 65, 68
4, 21024, Note_on_c, 1, 63, 68
4, 21113, Note_on_c, 1, 65, 0
4, 21113, Note_on_c, 1, 63, 0
4, 21120, Note_on_c, 1, 65, 68
4, 21120, Note_on_c, 1, 63, 68
4, 21209, Note_on_c, 1, 65, 0
4, 21209, Note_on_c, 1, 63, 0
4, 21216, Note_on_c, 1, 65, 69
4, 21216, Note_on_c, 1, 63, 69
4, 21305, Note_on_c, 1, 65, 0
4, 21305, Note_on_c, 1, 63, 0
4, 21312, Note_on_c, 1, 65, 69
4, 21312, Note_on_c, 1, 62, 69
4, 21401, Note_on_c, 1, 65, 0
4, 21401, Note_on_c, 1, 62, 0
4, 21552, Note_on_c, 1, 50, 81
4, 21597, Note_on_c, 1, 50, 0
4, 21600, Note_on_c, 1, 51, 81
4, 21689, Note_on_c, 1, 51, 0
4, 21840, Note_on_c, 1, 52, 81
4, 21885, Note_on_c, 1, 52, 0
4, 21888, Note_on_c, 1, 53, 81
4, 21977, Note_on_c, 1, 53, 0
4, 22128, Note_on_c, 1, 54, 81
4, 22173, Note_on_c, 1, 54, 0
4, 22176, Note_on_c, 1, 55, 81
4, 22265, Note_on_c, 1, 55, 0
4, 22416, Note_on_c, 1, 50, 81
4, 22461, Note_on_c, 1, 50, 0
4, 22464, Note_on_c, 1, 51, 81
4, 22509, Note_on_c, 1, 51, 0
4, 22512, Note_on_c, 1, 50, 81
4, 22557, Note_on_c, 1, 50, 0
4, 22560, Note_on_c, 1, 51, 81
4, 22605, Note_on_c, 1, 51, 0
4, 22608, Note_on_c, 1, 48, 81
4, 22653, Note_on_c, 1, 48, 0
4, 22656, Note_on_c, 1, 53, 81
4, 22701, Note_on_c, 1, 53, 0
4, 22704, Note_on_c, 1, 41, 81
4, 22749, Note_on_c, 1, 41, 0
4, 22752, Note_on_c, 1, 46, 81
4, 22841, Note_on_c, 1, 46, 0
4, 22848, Note_on_c, 1, 41, 81
4, 22937, Note_on_c, 1, 41, 0
4, 22944, Note_on_c, 1, 34, 81
4, 23033, Note_on_c, 1, 34, 0
4, 23088, Note_on_c, 1, 62, 70
4, 23133, Note_on_c, 1, 62, 0
4, 23136, Note_on_c, 1, 63, 70
4, 23181, Note_on_c, 1, 63, 0
4, 23184, Note_on_c, 1, 62, 70
4, 23229, Note_on_c, 1, 62, 0
4, 23232, Note_on_c, 1, 63, 71
4, 23277, Note_on_c, 1, 63, 0
4, 23280, Note_on_c, 1, 62, 71
4, 23325, Note_on_c, 1, 62, 0
4, 23376, Note_on_c, 1, 65, 72
4, 23421, Note_on_c, 1, 65, 0
4, 23424, Note_on_c, 1, 64, 72
4, 23469, Note_on_c, 1, 64, 0
4, 23472, Note_on_c, 1, 65, 73
4, 23517, Note_on_c, 1, 65, 0
4, 23520, Note_on_c, 1, 64, 73
4, 23565, Note_on_c, 1, 64, 0
4, 23568, Note_on_c, 1, 65, 73
4, 23613, Note_on_c, 1, 65, 0
4, 23664, Note_on_c, 1, 63, 74
4, 23709, Note_on_c, 1, 63, 0
4, 23712, Note_on_c, 1, 65, 74
4, 23757, Note_on_c, 1, 65, 0
4, 23760, Note_on_c, 1, 63, 75
4, 23805, Note_on_c, 1, 63, 0
4, 23808, Note_on_c, 1, 65, 75
4, 23853, Note_on_c, 1, 65, 0
4, 23856, Note_on_c, 1, 63, 76
4, 23901, Note_on_c, 1, 63, 0
4, 23952, Note_on_c, 1, 67, 76
4, 23997, Note_on_c, 1, 67, 0
4, 24000, Note_on_c, 1, 66, 77
4, 24045, Note_on_c, 1, 66, 0
4, 24048, Note_on_c, 1, 67, 77
4, 24093, Note_on_c, 1, 67, 0
4, 24096, Note_on_c, 1, 66, 77
4, 24141, Note_on_c, 1, 66, 0
4, 24144, Note_on_c, 1, 67, 78
4, 24189, Note_on_c, 1, 67, 0
4, 24240, Note_on_c, 1, 66, 79
4, 24285, Note_on_c, 1, 66, 0
4, 24288, Note_on_c, 1, 67, 79
4, 24333, Note_on_c, 1, 67, 0
4, 24336, Note_on_c, 1, 66, 79
4, 24381, Note_on_c, 1, 66, 0
4, 24384, Note_on_c, 1, 66, 80
4, 24473, Note_on_c, 1, 66, 0
4, 24480, Control_c, 1, 64, 127
4, 24480, Note_on_c, 1, 67, 81
4, 24569, Note_on_c, 1, 67, 0
4, 24576, Note_on_c, 1, 69, 81
4, 24665, Note_on_c, 1, 69, 0
4, 24672, Note_on_c, 1, 72, 81
4, 24761, Note_on_c, 1, 72, 0
4, 24768, Note_on_c, 1, 66, 81
4, 24857, Note_on_c, 1, 66, 0
4, 24864, Note_on_c, 1, 67, 81
4, 24953, Note_on_c, 1, 67, 0
4, 24960, Note_on_c, 1, 70, 81
4, 25049, Note_on_c, 1, 70, 0
4, 25056, Note_on_c, 1, 64, 81
4, 25145, Note_on_c, 1, 64, 0
4, 25152, Note_on_c, 1, 66, 81
4, 25241, Note_on_c, 1, 66, 0
4, 25248, Note_on_c, 1, 69, 81
4, 25337, Note_on_c, 1, 69, 0
4, 25344, Note_on_c, 1, 67, 81
4, 25433, Note_on_c, 1, 67, 0
4, 25440, Note_on_c, 1, 70, 81
4, 25529, Note_on_c, 1, 70, 0
4, 25536, Control_c, 1, 64, 0
4, 25536, Note_on_c, 1, 67, 78
4, 25625, Note_on_c, 1, 67, 0
4, 25632, Note_on_c, 1, 67, 75
4, 25721, Note_on_c, 1, 67, 0
4, 25728, Note_on_c, 1, 66, 72
4, 25817, Note_on_c, 1, 66, 0
4, 25920, Note_on_c, 1, 70, 62
4, 25920, Note_on_c, 1, 67, 62
4, 26009, Note_on_c, 1, 70, 0
4, 26009, Note_on_c, 1, 67, 0
4, 26016, Note_on_c, 1, 70, 62
4, 26016, Note_on_c, 1, 67, 62
4, 26105, Note_on_c, 1, 70, 0
4, 26105, Note_on_c, 1, 67, 0
4, 26112, Note_on_c, 1, 70, 62
4, 26112, Note_on_c, 1, 67, 62
4, 26201, Note_on_c, 1, 70, 0
4, 26201, Note_on_c, 1, 67, 0
4, 26208, Note_on_c, 1, 69, 62
4, 26208, Note_on_c, 1, 67, 62
4, 26297, Note_on_c, 1, 69, 0
4, 26297, Note_on_c, 1, 67, 0
4, 26304, Note_on_c, 1, 69, 64
4, 26304, Note_on_c, 1, 67, 64
4, 26393, Note_on_c, 1, 69, 0
4, 26393, Note_on_c, 1, 67, 0
4, 26400, Note_on_c, 1, 69, 66
4, 26400, Note_on_c, 1, 67, 66
4, 26489, Note_on_c, 1, 69, 0
4, 26489, Note_on_c, 1, 67, 0
4, 26496, Note_on_c, 1, 69, 68
4, 26496, Note_on_c, 1, 66, 68
4, 26585, Note_on_c, 1, 69, 0
4, 26585, Note_on_c, 1, 66, 0
4, 26592, Note_on_c, 1, 69, 70
4, 26592, Note_on_c, 1, 66, 70
4, 26681, Note_on_c, 1, 69, 0
4, 26681, Note_on_c, 1, 66, 0
4, 26688, Note_on_c, 1, 69, 72
4, 26688, Note_on_c, 1, 66, 72
4, 26777, Note_on_c, 1, 69, 0
4, 26777, Note_on_c, 1, 66, 0
4, 26784, Note_on_c, 1, 67, 74
4, 26873, Note_on_c, 1, 67, 0
4, 27024, Note_on_c, 1, 47, 79
4, 27024, Note_on_c, 1, 35, 79
4, 27069, Note_on_c, 1, 47, 0
4, 27069, Note_on_c, 1, 35, 0
4, 27072, Note_on_c, 1, 48, 81
4, 27161, Note_on_c, 1, 48, 0
4, 27312, Note_on_c, 1, 50, 81
4, 27357, Note_on_c, 1, 50, 0
4, 27360, Note_on_c, 1, 51, 81
4, 27449, Note_on_c, 1, 51, 0
4, 27600, Note_on_c, 1, 46, 81
4, 27645, Note_on_c, 1, 46, 0
4, 27648, Note_on_c, 1, 48, 81
4, 27693, Note_on_c, 1, 48, 0
4, 27696, Note_on_c, 1, 46, 81
4, 27741, Note_on_c, 1, 46, 0
4, 27744, Note_on_c, 1, 48, 81
4, 27789, Note_on_c, 1, 48, 0
4, 27792, Note_on_c, 1, 45, 81
4, 27837, Note_on_c, 1, 45, 0
4, 27840, Note_on_c, 1, 50, 81
4, 27885, Note_on_c, 1, 50, 0
4, 27888, Note_on_c, 1, 38, 81
4, 27933, Note_on_c, 1, 38, 0
4, 27936, Note_on_c, 1, 43, 81
4, 28025, Note_on_c, 1, 43, 0
4, 28032, Note_on_c, 1, 38, 81
4, 28121, Note_on_c, 1, 38, 0
4, 28128, Note_on_c, 1, 31, 81
4, 28217, Note_on_c, 1, 31, 0
4, 28272, Note_on_c, 1, 62, 70
4, 28317, Note_on_c, 1, 62, 0
4, 28320, Note_on_c, 1, 63, 70
4, 28365, Note_on_c, 1, 63, 0
4, 28368, Note_on_c, 1, 62, 70
4, 28413, Note_on_c, 1, 62, 0
4, 28416, Note_on_c, 1, 63, 71
4, 28461, Note_on_c, 1, 63, 0
4, 28464, Note_on_c, 1, 62, 71
4, 28509, Note_on_c, 1, 62, 0
4, 28560, Note_on_c, 1, 65, 72
4, 28605, Note_on_c, 1, 65, 0
4, 28608, Note_on_c, 1, 64, 72
4, 28653, Note_on_c, 1, 64, 0
4, 28656, Note_on_c, 1, 65, 73
4, 28701, Note_on_c, 1, 65, 0
4, 28704, Note_on_c, 1, 64, 73
4, 28749, Note_on_c, 1, 64, 0
4, 28752, Note_on_c, 1, 65, 73
4, 28797, Note_on_c, 1, 65, 0
4, 28848, Note_on_c, 1, 63, 74
4, 28893, Note_on_c, 1, 63, 0
4, 28896, Note_on_c, 1, 65, 74
4, 28941, Note_on_c, 1, 65, 0
4, 28944, Note_on_c, 1, 63, 75
4, 28989, Note_on_c, 1, 63, 0
4, 28992, Note_on_c, 1, 65, 75
4, 29037, Note_on_c, 1, 65, 0
4, 29040, Note_on_c, 1, 63, 76
4, 29085, Note_on_c, 1, 63, 0
4, 29136, Note_on_c, 1, 67, 76
4, 29181, Note_on_c, 1, 67, 0
4, 29184, Note_on_c, 1, 66, 77
4, 29229, Note_on_c, 1, 66, 0
4, 29232, Note_on_c, 1, 67, 77
4, 29277, Note_on_c, 1, 67, 0
4, 29280, Note_on_c, 1, 66, 77
4, 29325, Note_on_c, 1, 66, 0
4, 29328, Note_on_c, 1, 67, 78
4, 29373, Note_on_c, 1, 67, 0
4, 29424, Note_on_c, 1, 66, 79
4, 29469, Note_on_c, 1, 66, 0
4, 29472, Note_on_c, 1, 67, 79
4, 29517, Note_on_c, 1, 67, 0
4, 29520, Note_on_c, 1, 66, 79
4, 29565, Note_on_c, 1, 66, 0
4, 29568, Note_on_c, 1, 66, 80
4, 29657, Note_on_c, 1, 66, 0
4, 29664, Control_c, 1, 64, 127
4, 29664, Note_on_c, 1, 67, 81
4, 29753, Note_on_c, 1, 67, 0
4, 29760, Note_on_c, 1, 69, 81
4, 29849, Note_on_c, 1, 69, 0
4, 29856, Note_on_c, 1, 72, 81
4, 29945, Note_on_c, 1, 72, 0
4, 29952, Note_on_c, 1, 66, 81
4, 30041, Note_on_c, 1, 66, 0
4, 30048, Note_on_c, 1, 67, 81
4, 30137, Note_on_c, 1, 67, 0
4, 30144, Note_on_c, 1, 70, 81
4, 30233, Note_on_c, 1, 70, 0
4, 30240, Note_on_c, 1, 64, 81
4, 30329, Note_on_c, 1, 64, 0
4, 30336, Note_on_c, 1, 66, 81
4, 30425, Note_on_c, 1, 66, 0
4, 30432, Note_on_c, 1, 69, 81
4, 30521, Note_on_c, 1, 69, 0
4, 30528, Note_on_c, 1, 67, 81
4, 30617, Note_on_c, 1, 67, 0
4, 30624, Note_on_c, 1, 70, 81
4, 30713, Note_on_c, 1, 70, 0
4, 30720, Control_c, 1, 64, 0
4, 30720, Note_on_c, 1, 67, 78
4, 30809, Note_on_c, 1, 67, 0
4, 30816, Note_on_c, 1, 67, 75
4, 30905, Note_on_c, 1, 67, 0
4, 30912, Note_on_c, 1, 66, 72
4, 31001, Note_on_c, 1, 66, 0
4, 31104, Note_on_c, 1, 70, 62
4, 31104, Note_on_c, 1, 67, 62
4, 31193, Note_on_c, 1, 70, 0
4, 31193, Note_on_c, 1, 67, 0
4, 31200, Note_on_c, 1, 70, 62
4, 31200, Note_on_c, 1, 67, 62
4, 31289, Note_on_c, 1, 70, 0
4, 31289, Note_on_c, 1, 67, 0
4, 31296, Note_on_c, 1, 70, 62
4, 31296, Note_on_c, 1, 67, 62
4, 31385, Note_on_c, 1, 70, 0
4, 31385, Note_on_c, 1, 67, 0
4, 31392, Note_on_c, 1, 69, 62
4, 31392, Note_on_c, 1, 67, 62
4, 31481, Note_on_c, 1, 69, 0
4, 31481, Note_on_c, 1, 67, 0
4, 31488, Note_on_c, 1, 69, 64
4, 31488, Note_on_c, 1, 67, 64
4, 31577, Note_on_c, 1, 69, 0
4, 31577, Note_on_c, 1, 67, 0
4, 31584, Note_on_c, 1, 69, 66
4, 31584, Note_on_c, 1, 67, 66
4, 31673, Note_on_c, 1, 69, 0
4, 31673, Note_on_c, 1, 67, 0
4, 31680, Note_on_c, 1, 69, 68
4, 31680, Note_on_c, 1, 66, 68
4, 31769, Note_on_c, 1, 69, 0
4, 31769, Note_on_c, 1, 66, 0
4, 31776, Note_on_c, 1, 69, 70
4, 31776, Note_on_c, 1, 66, 70
4, 31865, Note_on_c, 1, 69, 0
4, 31865, Note_on_c, 1, 66, 0
4, 31872, Note_on_c, 1, 69, 72
4, 31872, Note_on_c, 1, 66, 72
4, 31961, Note_on_c, 1, 69, 0
4, 31961, Note_on_c, 1, 66, 0
4, 31968, Note_on_c, 1, 67, 74
4, 32057, Note_on_c, 1, 67, 0
4, 32208, Note_on_c, 1, 47, 79
4, 32208, Note_on_c, 1, 35, 79
4, 32253, Note_on_c, 1, 47, 0
4, 32253, Note_on_c, 1, 35, 0
4, 32256, Note_on_c, 1, 48, 81
4, 32345, Note_on_c, 1, 48, 0
4, 32496, Note_on_c, 1, 50, 81
4, 32541, Note_on_c, 1, 50, 0
4, 32544, Note_on_c, 1, 51, 81
4, 32633, Note_on_c, 1, 51, 0
4, 32784, Note_on_c, 1, 46, 81
4, 32829, Note_on_c, 1, 46, 0
4, 32832, Note_on_c, 1, 48, 81
4, 32877, Note_on_c, 1, 48, 0
4, 32880, Note_on_c, 1, 46, 81
4, 32925, Note_on_c, 1, 46, 0
4, 32928, Note_on_c, 1, 48, 81
4, 32973, Note_on_c, 1, 48, 0
4, 32976, Note_on_c, 1, 45, 81
4, 33021, Note_on_c, 1, 45, 0
4, 33024, Note_on_c, 1, 50, 81
4, 33069, Note_on_c, 1, 50, 0
4, 33072, Note_on_c, 1, 38, 81
4, 33117, Note_on_c, 1, 38, 0
4, 33120, Note_on_c, 1, 43, 81
4, 33209, Note_on_c, 1, 43, 0
4, 33216, Note_on_c, 1, 38, 81
4, 33305, Note_on_c, 1, 38, 0
4, 33312, Note_on_c, 1, 31, 81
4, 33401, Note_on_c, 1, 31, 0
4, 33504, Note_on_c, 1, 59, 75
4, 33593, Note_on_c, 1, 59, 0
4, 33600, Note_on_c, 1, 55, 75
4, 33689, Note_on_c, 1, 55, 0
4, 33696, Note_on_c, 1, 57, 75
4, 33785, Note_on_c, 1, 57, 0
4, 33792, Note_on_c, 1, 54, 75
4, 33881, Note_on_c, 1, 54, 0
4, 33888, Note_on_c, 1, 50, 75
4, 33977, Note_on_c, 1, 50, 0
4, 33984, Note_on_c, 1, 55, 75
4, 34073, Note_on_c, 1, 55, 0
4, 34080, Note_on_c, 1, 52, 75
4, 34169, Note_on_c, 1, 52, 0
4, 34176, Note_on_c, 1, 48, 75
4, 34265, Note_on_c, 1, 48, 0
4, 34272, Note_on_c, 1, 50, 75
4, 34361, Note_on_c, 1, 50, 0
4, 34368, Note_on_c, 1, 48, 75
4, 34457, Note_on_c, 1, 48, 0
4, 34464, Note_on_c, 1, 47, 75
4, 34553, Note_on_c, 1, 47, 0
4, 34560, Note_on_c, 1, 48, 75
4, 34560, Note_on_c, 1, 36, 75
4, 34649, Note_on_c, 1, 48, 0
4, 34649, Note_on_c, 1, 36, 0
4, 34656, Note_on_c, 1, 50, 75
4, 34656, Note_on_c, 1, 38, 75
4, 34745, Note_on_c, 1, 50, 0
4, 34745, Note_on_c, 1, 38, 0
4, 34752, Note_on_c, 1, 52, 75
4, 34752, Note_on_c, 1, 40, 75
4, 34841, Note_on_c, 1, 52, 0
4, 34841, Note_on_c, 1, 40, 0
4, 34848, Note_on_c, 1, 54, 75
4, 34848, Note_on_c, 1, 42, 75
4, 34937, Note_on_c, 1, 54, 0
4, 34937, Note_on_c, 1, 42, 0
4, 34944, Note_on_c, 1, 55, 75
4, 34944, Note_on_c, 1, 43, 75
4, 35033, Note_on_c, 1, 55, 0
4, 35033, Note_on_c, 1, 43, 0
4, 35040, Note_on_c, 1, 54, 75
4, 35040, Note_on_c, 1, 42, 75
4, 35129, Note_on_c, 1, 54, 0
4, 35129, Note_on_c, 1, 42, 0
4, 35136, Note_on_c, 1, 55, 75
4, 35136, Note_on_c, 1, 43, 75
4, 35225, Note_on_c, 1, 55, 0
4, 35225, Note_on_c, 1, 43, 0
4, 35232, Note_on_c, 1, 57, 76
4, 35232, Note_on_c, 1, 45, 76
4, 35321, Note_on_c, 1, 57, 0
4, 35321, Note_on_c, 1, 45, 0
4, 35328, Note_on_c, 1, 59, 77
4, 35328, Note_on_c, 1, 47, 77
4, 35417, Note_on_c, 1, 59, 0
4, 35417, Note_on_c, 1, 47, 0
4, 35424, Note_on_c, 1, 61, 78
4, 35424, Note_on_c, 1, 49, 78
4, 35513, Note_on_c, 1, 61, 0
4, 35513, Note_on_c, 1, 49, 0
4, 35520, Note_on_c, 1, 62, 79
4, 35520, Note_on_c, 1, 50, 79
4, 35609, Note_on_c, 1, 62, 0
4, 35609, Note_on_c, 1, 50, 0
4, 35616, Note_on_c, 1, 64, 80
4, 35616, Note_on_c, 1, 52, 80
4, 35705, Note_on_c, 1, 64, 0
4, 35705, Note_on_c, 1, 52, 0
4, 35712, Note_on_c, 1, 66, 81
4, 35712, Note_on_c, 1, 54, 81
4, 35801, Note_on_c, 1, 66, 0
4, 35801, Note_on_c, 1, 54, 0
4, 35808, Note_on_c, 1, 67, 79
4, 35808, Note_on_c, 1, 55, 79
4, 35897, Note_on_c, 1, 67, 0
4, 35897, Note_on_c, 1, 55, 0
4, 35904, Note_on_c, 1, 69, 77
4, 35904, Note_on_c, 1, 57, 77
4, 35993, Note_on_c, 1, 69, 0
4, 35993, Note_on_c, 1, 57, 0
4, 36000, Note_on_c, 1, 62, 75
4, 36089, Note_on_c, 1, 62, 0
4, 36096, Note_on_c, 1, 57, 75
4, 36185, Note_on_c, 1, 57, 0
4, 36192, Note_on_c, 1, 50, 75
4, 36281, Note_on_c, 1, 50, 0
4, 36384, Note_on_c, 1, 59, 75
4, 36473, Note_on_c, 1, 59, 0
4, 36480, Note_on_c, 1, 55, 75
4, 36569, Note_on_c, 1, 55, 0
4, 36576, Note_on_c, 1, 57, 75
4, 36665, Note_on_c, 1, 57, 0
4, 36672, Note_on_c, 1, 54, 75
4, 36761, Note_on_c, 1, 54, 0
4, 36768, Note_on_c, 1, 50, 75
4, 36857, Note_on_c, 1, 50, 0
4, 36864, Note_on_c, 1, 55, 75
4, 36953, Note_on_c, 1, 55, 0
4, 36960, Note_on_c, 1, 52, 75
4, 37049, Note_on_c, 1, 52, 0
4, 37056, Note_on_c, 1, 48, 75
4, 37145, Note_on_c, 1, 48, 0
4, 37152, Note_on_c, 1, 50, 75
4, 37241, Note_on_c, 1, 50, 0
4, 37248, Note_on_c, 1, 48, 75
4, 37337, Note_on_c, 1, 48, 0
4, 37344, Note_on_c, 1, 47, 75
4, 37433, Note_on_c, 1, 47, 0
4, 37440, Note_on_c, 1, 48, 75
4, 37440, Note_on_c, 1, 36, 75
4, 37529, Note_on_c, 1, 48, 0
4, 37529, Note_on_c, 1, 36, 0
4, 37536, Note_on_c, 1, 50, 75
4, 37536, Note_on_c, 1, 38, 75
4, 37625, Note_on_c, 1, 50, 0
4, 37625, Note_on_c, 1, 38, 0
4, 37632, Note_on_c, 1, 52, 75
4, 37632, Note_on_c, 1, 40, 75
4, 37721, Note_on_c, 1, 52, 0
4, 37721, Note_on_c, 1, 40, 0
4, 37728, Note_on_c, 1, 54, 75
4, 37728, Note_on_c, 1, 42, 75
4, 37817, Note_on_c, 1, 54, 0
4, 37817, Note_on_c, 1, 42, 0
4, 37824, Note_on_c, 1, 55, 75
4, 37824, Note_on_c, 1, 43, 75
4, 37913, Note_on_c, 1, 55, 0
4, 37913, Note_on_c, 1, 43, 0
4, 37920, Note_on_c, 1, 54, 75
4, 37920, Note_on_c, 1, 42, 75
4, 38009, Note_on_c, 1, 54, 0
4, 38009, Note_on_c, 1, 42, 0
4, 38016, Note_on_c, 1, 55, 75
4, 38016, Note_on_c, 1, 43, 75
4, 38105, Note_on_c, 1, 55, 0
4, 38105, Note_on_c, 1, 43, 0
4, 38112, Note_on_c, 1, 57, 76
4, 38112, Note_on_c, 1, 45, 76
4, 38201, Note_on_c, 1, 57, 0
4, 38201, Note_on_c, 1, 45, 0
4, 38208, Note_on_c, 1, 59, 77
4, 38208, Note_on_c, 1, 47, 77
4, 38297, Note_on_c, 1, 59, 0
4, 38297, Note_on_c, 1, 47, 0
4, 38304, Note_on_c, 1, 61, 78
4, 38304, Note_on_c, 1, 49, 78
4, 38393, Note_on_c, 1, 61, 0
4, 38393, Note_on_c, 1, 49, 0
4, 38400, Note_on_c, 1, 62, 79
4, 38400, Note_on_c, 1, 50, 79
4, 38489, Note_on_c, 1, 62, 0
4, 38489, Note_on_c, 1, 50, 0
4, 38496, Note_on_c, 1, 64, 80
4, 38496, Note_on_c, 1, 52, 80
4, 38585, Note_on_c, 1, 64, 0
4, 38585, Note_on_c, 1, 52, 0
4, 38592, Note_on_c, 1, 66, 81
4, 38592, Note_on_c, 1, 54, 81
4, 38681, Note_on_c, 1, 66, 0
4, 38681, Note_on_c, 1, 54, 0
4, 38688, Note_on_c, 1, 67, 79
4, 38688, Note_on_c, 1, 55, 79
4, 38777, Note_on_c, 1, 67, 0
4, 38777, Note_on_c, 1, 55, 0
4, 38784, Note_on_c, 1, 69, 77
4, 38784, Note_on_c, 1, 57, 77
4, 38873, Note_on_c, 1, 69, 0
4, 38873, Note_on_c, 1, 57, 0
4, 38880, Note_on_c, 1, 62, 75
4, 38969, Note_on_c, 1, 62, 0
4, 38976, Note_on_c, 1, 57, 75
4, 39065, Note_on_c, 1, 57, 0
4, 39072, Note_on_c, 1, 50, 75
4, 39161, Note_on_c, 1, 50, 0
4, 39264, Note_on_c, 1, 66, 75
4, 39353, Note_on_c, 1, 66, 0
4, 39360, Note_on_c, 1, 67, 75
4, 39449, Note_on_c, 1, 67, 0
4, 39456, Note_on_c, 1, 71, 75
4, 39545, Note_on_c, 1, 71, 0
4, 39552, Note_on_c, 1, 69, 75
4, 39641, Note_on_c, 1, 69, 0
4, 39648, Note_on_c, 1, 67, 75
4, 39737, Note_on_c, 1, 67, 0
4, 39840, Note_on_c, 1, 66, 66
4, 39929, Note_on_c, 1, 66, 0
4, 39936, Note_on_c, 1, 67, 66
4, 40025, Note_on_c, 1, 67, 0
4, 40032, Note_on_c, 1, 71, 66
4, 40121, Note_on_c, 1, 71, 0
4, 40128, Note_on_c, 1, 69, 66
4, 40217, Note_on_c, 1, 69, 0
4, 40224, Note_on_c, 1, 67, 66
4, 40313, Note_on_c, 1, 67, 0
4, 40320, Note_on_c, 1, 66, 66
4, 40409, Note_on_c, 1, 66, 0
4, 40416, Note_on_c, 1, 66, 66
4, 40505, Note_on_c, 1, 66, 0
4, 40512, Note_on_c, 1, 66, 66
4, 40601, Note_on_c, 1, 66, 0
4, 40608, Note_on_c, 1, 67, 66
4, 40697, Note_on_c, 1, 67, 0
4, 40704, Note_on_c, 1, 67, 66
4, 40793, Note_on_c, 1, 67, 0
4, 40800, Note_on_c, 1, 67, 66
4, 40889, Note_on_c, 1, 67, 0
4, 40896, Note_on_c, 1, 67, 66
4, 40985, Note_on_c, 1, 67, 0
4, 40992, Note_on_c, 1, 67, 66
4, 41081, Note_on_c, 1, 67, 0
4, 41088, Note_on_c, 1, 67, 66
4, 41177, Note_on_c, 1, 67, 0
4, 41184, Note_on_c, 1, 67, 66
4, 41280, Note_on_c, 1, 67, 0
4, 41280, Note_on_c, 1, 66, 66
4, 41361, Note_on_c, 1, 66, 0
4, 41568, Note_on_c, 1, 59, 75
4, 41657, Note_on_c, 1, 59, 0
4, 41664, Note_on_c, 1, 55, 75
4, 41753, Note_on_c, 1, 55, 0
4, 41760, Note_on_c, 1, 57, 75
4, 41849, Note_on_c, 1, 57, 0
4, 41856, Note_on_c, 1, 54, 75
4, 41945, Note_on_c, 1, 54, 0
4, 41952, Note_on_c, 1, 50, 75
4, 42041, Note_on_c, 1, 50, 0
4, 42048, Note_on_c, 1, 55, 75
4, 42137, Note_on_c, 1, 55, 0
4, 42144, Note_on_c, 1, 52, 75
4, 42233, Note_on_c, 1, 52, 0
4, 42240, Note_on_c, 1, 48, 75
4, 42329, Note_on_c, 1, 48, 0
4, 42336, Note_on_c, 1, 50, 75
4, 42425, Note_on_c, 1, 50, 0
4, 42432, Note_on_c, 1, 48, 75
4, 42521, Note_on_c, 1, 48, 0
4, 42528, Note_on_c, 1, 47, 75
4, 42617, Note_on_c, 1, 47, 0
4, 42624, Note_on_c, 1, 48, 75
4, 42624, Note_on_c, 1, 36, 75
4, 42713, Note_on_c, 1, 48, 0
4, 42713, Note_on_c, 1, 36, 0
4, 42720, Note_on_c, 1, 50, 75
4, 42720, Note_on_c, 1, 38, 75
4, 42809, Note_on_c, 1, 50, 0
4, 42809, Note_on_c, 1, 38, 0
4, 42816, Note_on_c, 1, 52, 75
4, 42816, Note_on_c, 1, 40, 75
4, 42905, Note_on_c, 1, 52, 0
4, 42905, Note_on_c, 1, 40, 0
4, 42912, Note_on_c, 1, 54, 75
4, 42912, Note_on_c, 1, 42, 75
4, 43001, Note_on_c, 1, 54, 0
4, 43001, Note_on_c, 1, 42, 0
4, 43008, Note_on_c, 1, 55, 75
4, 43008, Note_on_c, 1, 43, 75
4, 43097, Note_on_c, 1, 55, 0
4, 43097, Note_on_c, 1, 43, 0
4, 43104, Note_on_c, 1, 47, 75
4, 43104, Note_on_c, 1, 35, 75
4, 43193, Note_on_c, 1, 47, 0
4, 43193, Note_on_c, 1, 35, 0
4, 43200, Note_on_c, 1, 48, 75
4, 43200, Note_on_c, 1, 36, 75
4, 43289, Note_on_c, 1, 48, 0
4, 43289, Note_on_c, 1, 36, 0
4, 43296, Note_on_c, 1, 50, 76
4, 43296, Note_on_c, 1, 38, 76
4, 43385, Note_on_c, 1, 50, 0
4, 43385, Note_on_c, 1, 38, 0
4, 43392, Note_on_c, 1, 52, 77
4, 43392, Note_on_c, 1, 40, 77
4, 43481, Note_on_c, 1, 52, 0
4, 43481, Note_on_c, 1, 40, 0
4, 43488, Note_on_c, 1, 54, 78
4, 43488, Note_on_c, 1, 42, 78
4, 43577, Note_on_c, 1, 54, 0
4, 43577, Note_on_c, 1, 42, 0
4, 43584, Note_on_c, 1, 55, 79
4, 43584, Note_on_c, 1, 43, 79
4, 43673, Note_on_c, 1, 55, 0
4, 43673, Note_on_c, 1, 43, 0
4, 43680, Note_on_c, 1, 57, 80
4, 43680, Note_on_c, 1, 45, 80
4, 43769, Note_on_c, 1, 57, 0
4, 43769, Note_on_c, 1, 45, 0
4, 43776, Note_on_c, 1, 59, 81
4, 43776, Note_on_c, 1, 47, 81
4, 43865, Note_on_c, 1, 59, 0
4, 43865, Note_on_c, 1, 47, 0
4, 43872, Note_on_c, 1, 60, 79
4, 43872, Note_on_c, 1, 48, 79
4, 43961, Note_on_c, 1, 60, 0
4, 43961, Note_on_c, 1, 48, 0
4, 43968, Note_on_c, 1, 62, 77
4, 43968, Note_on_c, 1, 50, 77
4, 44057, Note_on_c, 1, 62, 0
4, 44057, Note_on_c, 1, 50, 0
4, 44064, Note_on_c, 1, 55, 75
4, 44153, Note_on_c, 1, 55, 0
4, 44160, Note_on_c, 1, 50, 75
4, 44249, Note_on_c, 1, 50, 0
4, 44256, Note_on_c, 1, 43, 75
4, 44345, Note_on_c, 1, 43, 0
4, 44448, Note_on_c, 1, 66, 75
4, 44537, Note_on_c, 1, 66, 0
4, 44544, Note_on_c, 1, 67, 75
4, 44633, Note_on_c, 1, 67, 0
4, 44640, Note_on_c, 1, 71, 75
4, 44729, Note_on_c, 1, 71, 0
4, 44736, Note_on_c, 1, 69, 75
4, 44825, Note_on_c, 1, 69, 0
4, 44832, Note_on_c, 1, 67, 75
4, 44921, Note_on_c, 1, 67, 0
4, 45024, Note_on_c, 1, 66, 66
4, 45113, Note_on_c, 1, 66, 0
4, 45120, Note_on_c, 1, 67, 66
4, 45209, Note_on_c, 1, 67, 0
4, 45216, Note_on_c, 1, 71, 66
4, 45305, Note_on_c, 1, 71, 0
4, 45312, Note_on_c, 1, 69, 66
4, 45401, Note_on_c, 1, 69, 0
4, 45408, Note_on_c, 1, 67, 66
4, 45497, Note_on_c, 1, 67, 0
4, 45504, Note_on_c, 1, 66, 66
4, 45593, Note_on_c, 1, 66, 0
4, 45600, Note_on_c, 1, 66, 66
4, 45689, Note_on_c, 1, 66, 0
4, 45696, Note_on_c, 1, 66, 66
4, 45785, Note_on_c, 1, 66, 0
4, 45792, Note_on_c, 1, 67, 66
4, 45881, Note_on_c, 1, 67, 0
4, 45888, Note_on_c, 1, 67, 66
4, 45977, Note_on_c, 1, 67, 0
4, 45984, Note_on_c, 1, 67, 66
4, 46073, Note_on_c, 1, 67, 0
4, 46080, Note_on_c, 1, 67, 66
4, 46169, Note_on_c, 1, 67, 0
4, 46176, Note_on_c, 1, 67, 66
4, 46265, Note_on_c, 1, 67, 0
4, 46272, Note_on_c, 1, 67, 66
4, 46361, Note_on_c, 1, 67, 0
4, 46368, Note_on_c, 1, 67, 66
4, 46464, Note_on_c, 1, 67, 0
4, 46464, Note_on_c, 1, 66, 66
4, 46545, Note_on_c, 1, 66, 0
4, 46752, Note_on_c, 1, 59, 75
4, 46841, Note_on_c, 1, 59, 0
4, 46848, Note_on_c, 1, 55, 75
4, 46937, Note_on_c, 1, 55, 0
4, 46944, Note_on_c, 1, 57, 75
4, 47033, Note_on_c, 1, 57, 0
4, 47040, Note_on_c, 1, 54, 75
4, 47129, Note_on_c, 1, 54, 0
4, 47136, Note_on_c, 1, 50, 75
4, 47225, Note_on_c, 1, 50, 0
4, 47232, Note_on_c, 1, 55, 75
4, 47321, Note_on_c, 1, 55, 0
4, 47328, Note_on_c, 1, 52, 75
4, 47417, Note_on_c, 1, 52, 0
4, 47424, Note_on_c, 1, 48, 75
4, 47513, Note_on_c, 1, 48, 0
4, 47520, Note_on_c, 1, 50, 75
4, 47609, Note_on_c, 1, 50, 0
4, 47616, Note_on_c, 1, 48, 75
4, 47705, Note_on_c, 1, 48, 0
4, 47712, Note_on_c, 1, 47, 75
4, 47801, Note_on_c, 1, 47, 0
4, 47808, Note_on_c, 1, 48, 75
4, 47808, Note_on_c, 1, 36, 75
4, 47897, Note_on_c, 1, 48, 0
4, 47897, Note_on_c, 1, 36, 0
4, 47904, Note_on_c, 1, 50, 75
4, 47904, Note_on_c, 1, 38, 75
4, 47993, Note_on_c, 1, 50, 0
4, 47993, Note_on_c, 1, 38, 0
4, 48000, Note_on_c, 1, 52, 75
4, 48000, Note_on_c, 1, 40, 75
4, 48089, Note_on_c, 1, 52, 0
4, 48089, Note_on_c, 1, 40, 0
4, 48096, Note_on_c, 1, 54, 75
4, 48096, Note_on_c, 1, 42, 75
4, 48185, Note_on_c, 1, 54, 0
4, 48185, Note_on_c, 1, 42, 0
4, 48192, Note_on_c, 1, 55, 75
4, 48192, Note_on_c, 1, 43, 75
4, 48281, Note_on_c, 1, 55, 0
4, 48281, Note_on_c, 1, 43, 0
4, 48288, Note_on_c, 1, 47, 75
4, 48288, Note_on_c, 1, 35, 75
4, 48377, Note_on_c, 1, 47, 0
4, 48377, Note_on_c, 1, 35, 0
4, 48384, Note_on_c, 1, 48, 75
4, 48384, Note_on_c, 1, 36, 75
4, 48473, Note_on_c, 1, 48, 0
4, 48473, Note_on_c, 1, 36, 0
4, 48480, Note_on_c, 1, 50, 76
4, 48480, Note_on_c, 1, 38, 76
4, 48569, Note_on_c, 1, 50, 0
4, 48569, Note_on_c, 1, 38, 0
4, 48576, Note_on_c, 1, 52, 77
4, 48576, Note_on_c, 1, 40, 77
4, 48665, Note_on_c, 1, 52, 0
4, 48665, Note_on_c, 1, 40, 0
4, 48672, Note_on_c, 1, 54, 78
4, 48672, Note_on_c, 1, 42, 78
4, 48761, Note_on_c, 1, 54, 0
4, 48761, Note_on_c, 1, 42, 0
4, 48768, Note_on_c, 1, 55, 79
4, 48768, Note_on_c, 1, 43, 79
4, 48857, Note_on_c, 1, 55, 0
4, 48857, Note_on_c, 1, 43, 0
4, 48864, Note_on_c, 1, 57, 80
4, 48864, Note_on_c, 1, 45, 80
4, 48953, Note_on_c, 1, 57, 0
4, 48953, Note_on_c, 1, 45, 0
4, 48960, Note_on_c, 1, 59, 81
4, 48960, Note_on_c, 1, 47, 81
4, 49049, Note_on_c, 1, 59, 0
4, 49049, Note_on_c, 1, 47, 0
4, 49056, Note_on_c, 1, 60, 79
4, 49056, Note_on_c, 1, 48, 79
4, 49145, Note_on_c, 1, 60, 0
4, 49145, Note_on_c, 1, 48, 0
4, 49152, Note_on_c, 1, 62, 77
4, 49152, Note_on_c, 1, 50, 77
4, 49241, Note_on_c, 1, 62, 0
4, 49241, Note_on_c, 1, 50, 0
4, 49248, Note_on_c, 1, 55, 75
4, 49337, Note_on_c, 1, 55, 0
4, 49344, Note_on_c, 1, 50, 75
4, 49433, Note_on_c, 1, 50, 0
4, 49440, Note_on_c, 1, 43, 75
4, 49529, Note_on_c, 1, 43, 0
4, 49536, End_track
5, 0, Start_track
5, 0, Program_c, 0, 0
5, 0, Control_c, 0, 7, 127
5, 0, Control_c, 0, 10, 64
5, 5760, Note_on_c, 0, 62, 64
5, 6025, Note_on_c, 0, 62, 0
5, 6048, Note_on_c, 0, 62, 64
5, 6313, Note_on_c, 0, 62, 0
5, 6336, Note_on_c, 0, 62, 66
5, 6601, Note_on_c, 0, 62, 0
5, 6624, Note_on_c, 0, 62, 66
5, 6889, Note_on_c, 0, 62, 0
5, 6912, Note_on_c, 0, 62, 66
5, 7001, Note_on_c, 0, 62, 0
5, 7008, Note_on_c, 0, 62, 66
5, 7097, Note_on_c, 0, 62, 0
5, 7104, Note_on_c, 0, 62, 66
5, 7193, Note_on_c, 0, 62, 0
5, 7200, Note_on_c, 0, 62, 66
5, 7289, Note_on_c, 0, 62, 0
5, 7296, Note_on_c, 0, 62, 66
5, 7385, Note_on_c, 0, 62, 0
5, 7392, Note_on_c, 0, 62, 66
5, 7481, Note_on_c, 0, 62, 0
5, 7488, Note_on_c, 0, 64, 66
5, 7577, Note_on_c, 0, 64, 0
5, 7584, Note_on_c, 0, 64, 66
5, 7673, Note_on_c, 0, 64, 0
5, 7680, Note_on_c, 0, 64, 66
5, 7769, Note_on_c, 0, 64, 0
5, 7776, Note_on_c, 0, 62, 66
5, 7953, Note_on_c, 0, 62, 0
5, 10944, Note_on_c, 0, 62, 64
5, 11209, Note_on_c, 0, 62, 0
5, 11232, Note_on_c, 0, 62, 64
5, 11497, Note_on_c, 0, 62, 0
5, 11520, Note_on_c, 0, 62, 66
5, 11785, Note_on_c, 0, 62, 0
5, 11808, Note_on_c, 0, 62, 66
5, 12073, Note_on_c, 0, 62, 0
5, 12096, Note_on_c, 0, 62, 66
5, 12185, Note_on_c, 0, 62, 0
5, 12192, Note_on_c, 0, 62, 66
5, 12281, Note_on_c, 0, 62, 0
5, 12288, Note_on_c, 0, 62, 66
5, 12377, Note_on_c, 0, 62, 0
5, 12384, Note_on_c, 0, 62, 66
5, 12473, Note_on_c, 0, 62, 0
5, 12480, Note_on_c, 0, 62, 66
5, 12569, Note_on_c, 0, 62, 0
5, 12576, Note_on_c, 0, 62, 66
5, 12665, Note_on_c, 0, 62, 0
5, 12672, Note_on_c, 0, 64, 66
5, 12761, Note_on_c, 0, 64, 0
5, 12768, Note_on_c, 0, 64, 66
5, 12857, Note_on_c, 0, 64, 0
5, 12864, Note_on_c, 0, 64, 66
5, 12953, Note_on_c, 0, 64, 0
5, 12960, Note_on_c, 0, 62, 66
5, 13137, Note_on_c, 0, 62, 0
5, 23040, Note_on_c, 0, 58, 66
5, 23305, Note_on_c, 0, 58, 0
5, 23328, Note_on_c, 0, 59, 70
5, 23593, Note_on_c, 0, 59, 0
5, 23616, Note_on_c, 0, 60, 72
5, 23881, Note_on_c, 0, 60, 0
5, 23904, Note_on_c, 0, 61, 75
5, 24169, Note_on_c, 0, 61, 0
5, 24192, Note_on_c, 0, 62, 78
5, 24369, Note_on_c, 0, 62, 0
5, 24384, Note_on_c, 0, 62, 80
5, 24473, Note_on_c, 0, 62, 0
5, 24480, Control_c, 0, 64, 127
5, 24480, Note_on_c, 0, 62, 81
5, 24745, Note_on_c, 0, 62, 0
5, 24768, Note_on_c, 0, 62, 81
5, 25033, Note_on_c, 0, 62, 0
5, 25056, Note_on_c, 0, 62, 81
5, 25321, Note_on_c, 0, 62, 0
5, 25344, Note_on_c, 0, 62, 81
5, 25521, Note_on_c, 0, 62, 0
5, 25536, Control_c, 0, 64, 0
5, 25536, Note_on_c, 0, 61, 81
5, 25625, Note_on_c, 0, 61, 0
5, 25632, Note_on_c, 0, 62, 77
5, 25809, Note_on_c, 0, 62, 0
5, 28224, Note_on_c, 0, 58, 66
5, 28489, Note_on_c, 0, 58, 0
5, 28512, Note_on_c, 0, 59, 70
5, 28777, Note_on_c, 0, 59, 0
5, 28800, Note_on_c, 0, 60, 72
5, 29065, Note_on_c, 0, 60, 0
5, 29088, Note_on_c, 0, 61, 75
5, 29353, Note_on_c, 0, 61, 0
5, 29376, Note_on_c, 0, 62, 78
5, 29553, Note_on_c, 0, 62, 0
5, 29568, Note_on_c, 0, 62, 80
5, 29657, Note_on_c, 0, 62, 0
5, 29664, Control_c, 0, 64, 127
5, 29664, Note_on_c, 0, 62, 81
5, 29929, Note_on_c, 0, 62, 0
5, 29952, Note_on_c, 0, 62, 81
5, 30217, Note_on_c, 0, 62, 0
5, 30240, Note_on_c, 0, 62, 81
5, 30505, Note_on_c, 0, 62, 0
5, 30528, Note_on_c, 0, 62, 81
5, 30705, Note_on_c, 0, 62, 0
5, 30720, Control_c, 0, 64, 0
5, 30720, Note_on_c, 0, 61, 81
5, 30809, Note_on_c, 0, 61, 0
5, 30816, Note_on_c, 0, 62, 77
5, 30993, Note_on_c, 0, 62, 0
5, 39168, Note_on_c, 0, 62, 75
5, 39433, Note_on_c, 0, 62, 0
5, 39456, Note_on_c, 0, 62, 75
5, 39721, Note_on_c, 0, 62, 0
5, 39744, Note_on_c, 0, 62, 66
5, 40009, Note_on_c, 0, 62, 0
5, 40032, Note_on_c, 0, 62, 66
5, 40297, Note_on_c, 0, 62, 0
5, 40320, Note_on_c, 0, 62, 66
5, 40409, Note_on_c, 0, 62, 0
5, 40416, Note_on_c, 0, 62, 66
5, 40505, Note_on_c, 0, 62, 0
5, 40512, Note_on_c, 0, 62, 66
5, 40601, Note_on_c, 0, 62, 0
5, 40608, Note_on_c, 0, 62, 66
5, 40697, Note_on_c, 0, 62, 0
5, 40704, Note_on_c, 0, 62, 66
5, 40793, Note_on_c, 0, 62, 0
5, 40800, Note_on_c, 0, 62, 66
5, 40889, Note_on_c, 0, 62, 0
5, 40896, Note_on_c, 0, 64, 66
5, 40985, Note_on_c, 0, 64, 0
5, 40992, Note_on_c, 0, 64, 66
5, 41081, Note_on_c, 0, 64, 0
5, 41088, Note_on_c, 0, 64, 66
5, 41177, Note_on_c, 0, 64, 0
5, 41184, Note_on_c, 0, 62, 66
5, 41361, Note_on_c, 0, 62, 0
5, 44352, Note_on_c, 0, 62, 75
5, 44617, Note_on_c, 0, 62, 0
5, 44640, Note_on_c, 0, 62, 75
5, 44905, Note_on_c, 0, 62, 0
5, 44928, Note_on_c, 0, 62, 66
5, 45193, Note_on_c, 0, 62, 0
5, 45216, Note_on_c, 0, 62, 66
5, 45481, Note_on_c, 0, 62, 0
5, 45504, Note_on_c, 0, 62, 66
5, 45593, Note_on_c, 0, 62, 0
5, 45600, Note_on_c, 0, 62, 66
5, 45689, Note_on_c, 0, 62, 0
5, 45696, Note_on_c, 0, 62, 66
5, 45785, Note_on_c, 0, 62, 0
5, 45792, Note_on_c, 0, 62, 66
5, 45881, Note_on_c, 0, 62, 0
5, 45888, Note_on_c, 0, 62, 66
5, 45977, Note_on_c, 0, 62, 0
5, 45984, Note_on_c, 0, 62, 66
5, 46073, Note_on_c, 0, 62, 0
5, 46080, Note_on_c, 0, 64, 66
5, 46169, Note_on_c, 0, 64, 0
5, 46176, Note_on_c, 0, 64, 66
5, 46265, Note_on_c, 0, 64, 0
5, 46272, Note_on_c, 0, 64, 66
5, 46361, Note_on_c, 0, 64, 0
5, 46368, Note_on_c, 0, 62, 66
5, 46545, Note_on_c, 0, 62, 0
5, 49536, End_track
6, 0, Start_track
6, 0, Title_t, "Piano Solo   <composer>  "
6, 0, End_track
0, 0, End_of_file
