0, 0, Header, 1, 5, 96
1, 0, Start_track
1, 0, Copyright_t, "Copyright  1994-2002 Mozart Music Software"
1, 0, Sequencer_specific, 16, 68, 87, 77, 90, 86, 82, 83, 78, 32, 55, 46, 48, 46, 55, 46, 48
1, 0, Time_signature, 3, 3, 24, 8
1, 0, Tempo, 447761
1, 0, Key_signature, 1, "major"
1, 7056, Key_signature, -1, "major"
1, 8208, Key_signature, -1, "major"
1, 13968, Key_signature, 1, "major"
1, 15120, Key_signature, 1, "major"
1, 21024, End_track
2, 0, Start_track
2, 0, Program_c, 0, 0
2, 0, Control_c, 0, 7, 127
2, 0, Control_c, 0, 10, 64
2, 96, Note_on_c, 0, 67, 64
2, 141, Note_on_c, 0, 67, 0
2, 144, Note_on_c, 0, 71, 64
2, 167, Note_on_c, 0, 71, 0
2, 168, Note_on_c, 0, 67, 64
2, 191, Note_on_c, 0, 67, 0
2, 192, Note_on_c, 0, 71, 64
2, 215, Note_on_c, 0, 71, 0
2, 216, Note_on_c, 0, 67, 64
2, 239, Note_on_c, 0, 67, 0
2, 240, Note_on_c, 0, 72, 64
2, 263, Note_on_c, 0, 72, 0
2, 264, Note_on_c, 0, 67, 64
2, 287, Note_on_c, 0, 67, 0
2, 288, Note_on_c, 0, 74, 64
2, 311, Note_on_c, 0, 74, 0
2, 312, Note_on_c, 0, 67, 64
2, 335, Note_on_c, 0, 67, 0
2, 336, Note_on_c, 0, 74, 64
2, 359, Note_on_c, 0, 74, 0
2, 360, Note_on_c, 0, 67, 64
2, 383, Note_on_c, 0, 67, 0
2, 384, Note_on_c, 0, 76, 64
2, 407, Note_on_c, 0, 76, 0
2, 408, Note_on_c, 0, 67, 64
2, 431, Note_on_c, 0, 67, 0
2, 432, Note_on_c, 0, 67, 64
2, 455, Note_on_c, 0, 67, 0
2, 456, Note_on_c, 0, 66, 64
2, 479, Note_on_c, 0, 66, 0
2, 480, Note_on_c, 0, 64, 64
2, 503, Note_on_c, 0, 64, 0
2, 504, Note_on_c, 0, 62, 64
2, 527, Note_on_c, 0, 62, 0
2, 528, Note_on_c, 0, 72, 64
2, 528, Note_on_c, 0, 69, 64
2, 548, Note_on_c, 0, 72, 0
2, 548, Note_on_c, 0, 69, 0
2, 576, Note_on_c, 0, 72, 64
2, 576, Note_on_c, 0, 69, 64
2, 621, Note_on_c, 0, 72, 0
2, 621, Note_on_c, 0, 69, 0
2, 624, Note_on_c, 0, 71, 64
2, 624, Note_on_c, 0, 67, 64
2, 669, Note_on_c, 0, 71, 0
2, 669, Note_on_c, 0, 67, 0
2, 672, Note_on_c, 0, 67, 64
2, 717, Note_on_c, 0, 67, 0
2, 720, Note_on_c, 0, 71, 64
2, 743, Note_on_c, 0, 71, 0
2, 744, Note_on_c, 0, 67, 64
2, 767, Note_on_c, 0, 67, 0
2, 768, Note_on_c, 0, 71, 64
2, 791, Note_on_c, 0, 71, 0
2, 792, Note_on_c, 0, 67, 64
2, 815, Note_on_c, 0, 67, 0
2, 816, Note_on_c, 0, 72, 64
2, 839, Note_on_c, 0, 72, 0
2, 840, Note_on_c, 0, 67, 64
2, 863, Note_on_c, 0, 67, 0
2, 864, Note_on_c, 0, 74, 64
2, 887, Note_on_c, 0, 74, 0
2, 888, Note_on_c, 0, 67, 64
2, 911, Note_on_c, 0, 67, 0
2, 912, Note_on_c, 0, 74, 64
2, 935, Note_on_c, 0, 74, 0
2, 936, Note_on_c, 0, 67, 64
2, 959, Note_on_c, 0, 67, 0
2, 960, Note_on_c, 0, 76, 64
2, 983, Note_on_c, 0, 76, 0
2, 984, Note_on_c, 0, 67, 64
2, 1007, Note_on_c, 0, 67, 0
2, 1008, Note_on_c, 0, 74, 64
2, 1053, Note_on_c, 0, 74, 0
2, 1056, Note_on_c, 0, 67, 64
2, 1101, Note_on_c, 0, 67, 0
2, 1104, Note_on_c, 0, 66, 64
2, 1149, Note_on_c, 0, 66, 0
2, 1152, Note_on_c, 0, 67, 64
2, 1241, Note_on_c, 0, 67, 0
2, 1248, Note_on_c, 0, 67, 64
2, 1293, Note_on_c, 0, 67, 0
2, 1296, Note_on_c, 0, 71, 64
2, 1319, Note_on_c, 0, 71, 0
2, 1320, Note_on_c, 0, 67, 64
2, 1343, Note_on_c, 0, 67, 0
2, 1344, Note_on_c, 0, 71, 64
2, 1367, Note_on_c, 0, 71, 0
2, 1368, Note_on_c, 0, 67, 64
2, 1391, Note_on_c, 0, 67, 0
2, 1392, Note_on_c, 0, 72, 64
2, 1415, Note_on_c, 0, 72, 0
2, 1416, Note_on_c, 0, 67, 64
2, 1439, Note_on_c, 0, 67, 0
2, 1440, Note_on_c, 0, 74, 64
2, 1463, Note_on_c, 0, 74, 0
2, 1464, Note_on_c, 0, 67, 64
2, 1487, Note_on_c, 0, 67, 0
2, 1488, Note_on_c, 0, 74, 64
2, 1511, Note_on_c, 0, 74, 0
2, 1512, Note_on_c, 0, 67, 64
2, 1535, Note_on_c, 0, 67, 0
2, 1536, Note_on_c, 0, 76, 64
2, 1559, Note_on_c, 0, 76, 0
2, 1560, Note_on_c, 0, 67, 64
2, 1583, Note_on_c, 0, 67, 0
2, 1584, Note_on_c, 0, 67, 64
2, 1607, Note_on_c, 0, 67, 0
2, 1608, Note_on_c, 0, 66, 64
2, 1631, Note_on_c, 0, 66, 0
2, 1632, Note_on_c, 0, 64, 64
2, 1655, Note_on_c, 0, 64, 0
2, 1656, Note_on_c, 0, 62, 64
2, 1679, Note_on_c, 0, 62, 0
2, 1680, Note_on_c, 0, 72, 64
2, 1680, Note_on_c, 0, 69, 64
2, 1700, Note_on_c, 0, 72, 0
2, 1700, Note_on_c, 0, 69, 0
2, 1728, Note_on_c, 0, 72, 64
2, 1728, Note_on_c, 0, 69, 64
2, 1773, Note_on_c, 0, 72, 0
2, 1773, Note_on_c, 0, 69, 0
2, 1776, Note_on_c, 0, 71, 64
2, 1776, Note_on_c, 0, 67, 64
2, 1821, Note_on_c, 0, 71, 0
2, 1821, Note_on_c, 0, 67, 0
2, 1824, Note_on_c, 0, 67, 64
2, 1869, Note_on_c, 0, 67, 0
2, 1872, Note_on_c, 0, 71, 64
2, 1895, Note_on_c, 0, 71, 0
2, 1896, Note_on_c, 0, 67, 64
2, 1919, Note_on_c, 0, 67, 0
2, 1920, Note_on_c, 0, 71, 64
2, 1943, Note_on_c, 0, 71, 0
2, 1944, Note_on_c, 0, 67, 64
2, 1967, Note_on_c, 0, 67, 0
2, 1968, Note_on_c, 0, 72, 64
2, 1991, Note_on_c, 0, 72, 0
2, 1992, Note_on_c, 0, 67, 64
2, 2015, Note_on_c, 0, 67, 0
2, 2016, Note_on_c, 0, 74, 64
2, 2039, Note_on_c, 0, 74, 0
2, 2040, Note_on_c, 0, 67, 64
2, 2063, Note_on_c, 0, 67, 0
2, 2064, Note_on_c, 0, 74, 64
2, 2087, Note_on_c, 0, 74, 0
2, 2088, Note_on_c, 0, 67, 64
2, 2111, Note_on_c, 0, 67, 0
2, 2112, Note_on_c, 0, 76, 64
2, 2135, Note_on_c, 0, 76, 0
2, 2136, Note_on_c, 0, 67, 64
2, 2159, Note_on_c, 0, 67, 0
2, 2160, Note_on_c, 0, 74, 64
2, 2205, Note_on_c, 0, 74, 0
2, 2208, Note_on_c, 0, 67, 64
2, 2253, Note_on_c, 0, 67, 0
2, 2256, Note_on_c, 0, 66, 64
2, 2301, Note_on_c, 0, 66, 0
2, 2304, Note_on_c, 0, 67, 64
2, 2393, Note_on_c, 0, 67, 0
2, 2400, Note_on_c, 0, 74, 64
2, 2445, Note_on_c, 0, 74, 0
2, 2448, Note_on_c, 0, 66, 64
2, 2471, Note_on_c, 0, 66, 0
2, 2472, Note_on_c, 0, 74, 64
2, 2495, Note_on_c, 0, 74, 0
2, 2496, Note_on_c, 0, 66, 64
2, 2519, Note_on_c, 0, 66, 0
2, 2520, Note_on_c, 0, 74, 64
2, 2543, Note_on_c, 0, 74, 0
2, 2544, Note_on_c, 0, 67, 64
2, 2567, Note_on_c, 0, 67, 0
2, 2568, Note_on_c, 0, 74, 64
2, 2591, Note_on_c, 0, 74, 0
2, 2592, Note_on_c, 0, 72, 64
2, 2615, Note_on_c, 0, 72, 0
2, 2616, Note_on_c, 0, 71, 64
2, 2639, Note_on_c, 0, 71, 0
2, 2640, Note_on_c, 0, 72, 64
2, 2663, Note_on_c, 0, 72, 0
2, 2664, Note_on_c, 0, 69, 64
2, 2687, Note_on_c, 0, 69, 0
2, 2688, Note_on_c, 0, 71, 64
2, 2733, Note_on_c, 0, 71, 0
2, 2736, Note_on_c, 0, 66, 64
2, 2759, Note_on_c, 0, 66, 0
2, 2760, Note_on_c, 0, 74, 64
2, 2783, Note_on_c, 0, 74, 0
2, 2784, Note_on_c, 0, 66, 64
2, 2807, Note_on_c, 0, 66, 0
2, 2808, Note_on_c, 0, 74, 64
2, 2831, Note_on_c, 0, 74, 0
2, 2832, Note_on_c, 0, 67, 64
2, 2855, Note_on_c, 0, 67, 0
2, 2856, Note_on_c, 0, 74, 64
2, 2879, Note_on_c, 0, 74, 0
2, 2880, Note_on_c, 0, 72, 64
2, 2903, Note_on_c, 0, 72, 0
2, 2904, Note_on_c, 0, 71, 64
2, 2927, Note_on_c, 0, 71, 0
2, 2928, Note_on_c, 0, 72, 64
2, 2951, Note_on_c, 0, 72, 0
2, 2952, Note_on_c, 0, 69, 64
2, 2975, Note_on_c, 0, 69, 0
2, 2976, Note_on_c, 0, 71, 64
2, 3021, Note_on_c, 0, 71, 0
2, 3024, Note_on_c, 0, 79, 64
2, 3047, Note_on_c, 0, 79, 0
2, 3048, Note_on_c, 0, 78, 64
2, 3071, Note_on_c, 0, 78, 0
2, 3072, Note_on_c, 0, 79, 64
2, 3095, Note_on_c, 0, 79, 0
2, 3096, Note_on_c, 0, 83, 64
2, 3119, Note_on_c, 0, 83, 0
2, 3120, Note_on_c, 0, 74, 64
2, 3165, Note_on_c, 0, 74, 0
2, 3168, Note_on_c, 0, 76, 64
2, 3191, Note_on_c, 0, 76, 0
2, 3192, Note_on_c, 0, 74, 64
2, 3215, Note_on_c, 0, 74, 0
2, 3216, Note_on_c, 0, 76, 64
2, 3239, Note_on_c, 0, 76, 0
2, 3240, Note_on_c, 0, 79, 64
2, 3263, Note_on_c, 0, 79, 0
2, 3264, Note_on_c, 0, 74, 64
2, 3309, Note_on_c, 0, 74, 0
2, 3312, Note_on_c, 0, 72, 64
2, 3335, Note_on_c, 0, 72, 0
2, 3336, Note_on_c, 0, 71, 64
2, 3359, Note_on_c, 0, 71, 0
2, 3360, Note_on_c, 0, 72, 64
2, 3383, Note_on_c, 0, 72, 0
2, 3384, Note_on_c, 0, 69, 64
2, 3407, Note_on_c, 0, 69, 0
2, 3408, Note_on_c, 0, 71, 64
2, 3431, Note_on_c, 0, 71, 0
2, 3432, Note_on_c, 0, 67, 64
2, 3455, Note_on_c, 0, 67, 0
2, 3456, Note_on_c, 0, 62, 64
2, 3545, Note_on_c, 0, 62, 0
2, 3552, Note_on_c, 0, 67, 64
2, 3597, Note_on_c, 0, 67, 0
2, 3600, Note_on_c, 0, 71, 64
2, 3623, Note_on_c, 0, 71, 0
2, 3624, Note_on_c, 0, 67, 64
2, 3647, Note_on_c, 0, 67, 0
2, 3648, Note_on_c, 0, 71, 64
2, 3671, Note_on_c, 0, 71, 0
2, 3672, Note_on_c, 0, 67, 64
2, 3695, Note_on_c, 0, 67, 0
2, 3696, Note_on_c, 0, 72, 64
2, 3719, Note_on_c, 0, 72, 0
2, 3720, Note_on_c, 0, 67, 64
2, 3743, Note_on_c, 0, 67, 0
2, 3744, Note_on_c, 0, 74, 64
2, 3767, Note_on_c, 0, 74, 0
2, 3768, Note_on_c, 0, 67, 64
2, 3791, Note_on_c, 0, 67, 0
2, 3792, Note_on_c, 0, 74, 64
2, 3815, Note_on_c, 0, 74, 0
2, 3816, Note_on_c, 0, 67, 64
2, 3839, Note_on_c, 0, 67, 0
2, 3840, Note_on_c, 0, 76, 64
2, 3863, Note_on_c, 0, 76, 0
2, 3864, Note_on_c, 0, 67, 64
2, 3887, Note_on_c, 0, 67, 0
2, 3888, Note_on_c, 0, 67, 64
2, 3911, Note_on_c, 0, 67, 0
2, 3912, Note_on_c, 0, 66, 64
2, 3935, Note_on_c, 0, 66, 0
2, 3936, Note_on_c, 0, 64, 64
2, 3959, Note_on_c, 0, 64, 0
2, 3960, Note_on_c, 0, 62, 64
2, 3983, Note_on_c, 0, 62, 0
2, 3984, Note_on_c, 0, 72, 64
2, 3984, Note_on_c, 0, 69, 64
2, 4004, Note_on_c, 0, 72, 0
2, 4004, Note_on_c, 0, 69, 0
2, 4032, Note_on_c, 0, 72, 64
2, 4032, Note_on_c, 0, 69, 64
2, 4077, Note_on_c, 0, 72, 0
2, 4077, Note_on_c, 0, 69, 0
2, 4080, Note_on_c, 0, 71, 64
2, 4080, Note_on_c, 0, 67, 64
2, 4125, Note_on_c, 0, 71, 0
2, 4125, Note_on_c, 0, 67, 0
2, 4128, Note_on_c, 0, 67, 64
2, 4173, Note_on_c, 0, 67, 0
2, 4176, Note_on_c, 0, 71, 64
2, 4199, Note_on_c, 0, 71, 0
2, 4200, Note_on_c, 0, 67, 64
2, 4223, Note_on_c, 0, 67, 0
2, 4224, Note_on_c, 0, 71, 64
2, 4247, Note_on_c, 0, 71, 0
2, 4248, Note_on_c, 0, 67, 64
2, 4271, Note_on_c, 0, 67, 0
2, 4272, Note_on_c, 0, 72, 64
2, 4295, Note_on_c, 0, 72, 0
2, 4296, Note_on_c, 0, 67, 64
2, 4319, Note_on_c, 0, 67, 0
2, 4320, Note_on_c, 0, 74, 64
2, 4343, Note_on_c, 0, 74, 0
2, 4344, Note_on_c, 0, 67, 64
2, 4367, Note_on_c, 0, 67, 0
2, 4368, Note_on_c, 0, 74, 64
2, 4391, Note_on_c, 0, 74, 0
2, 4392, Note_on_c, 0, 67, 64
2, 4415, Note_on_c, 0, 67, 0
2, 4416, Note_on_c, 0, 76, 64
2, 4439, Note_on_c, 0, 76, 0
2, 4440, Note_on_c, 0, 67, 64
2, 4463, Note_on_c, 0, 67, 0
2, 4464, Note_on_c, 0, 74, 64
2, 4509, Note_on_c, 0, 74, 0
2, 4512, Note_on_c, 0, 67, 64
2, 4557, Note_on_c, 0, 67, 0
2, 4560, Note_on_c, 0, 66, 64
2, 4605, Note_on_c, 0, 66, 0
2, 4608, Note_on_c, 0, 67, 64
2, 4697, Note_on_c, 0, 67, 0
2, 4704, Note_on_c, 0, 74, 64
2, 4749, Note_on_c, 0, 74, 0
2, 4752, Note_on_c, 0, 66, 64
2, 4775, Note_on_c, 0, 66, 0
2, 4776, Note_on_c, 0, 74, 64
2, 4799, Note_on_c, 0, 74, 0
2, 4800, Note_on_c, 0, 66, 64
2, 4823, Note_on_c, 0, 66, 0
2, 4824, Note_on_c, 0, 74, 64
2, 4847, Note_on_c, 0, 74, 0
2, 4848, Note_on_c, 0, 67, 64
2, 4871, Note_on_c, 0, 67, 0
2, 4872, Note_on_c, 0, 74, 64
2, 4895, Note_on_c, 0, 74, 0
2, 4896, Note_on_c, 0, 72, 64
2, 4919, Note_on_c, 0, 72, 0
2, 4920, Note_on_c, 0, 71, 64
2, 4943, Note_on_c, 0, 71, 0
2, 4944, Note_on_c, 0, 72, 64
2, 4967, Note_on_c, 0, 72, 0
2, 4968, Note_on_c, 0, 69, 64
2, 4991, Note_on_c, 0, 69, 0
2, 4992, Note_on_c, 0, 71, 64
2, 5037, Note_on_c, 0, 71, 0
2, 5040, Note_on_c, 0, 66, 64
2, 5063, Note_on_c, 0, 66, 0
2, 5064, Note_on_c, 0, 74, 64
2, 5087, Note_on_c, 0, 74, 0
2, 5088, Note_on_c, 0, 66, 64
2, 5111, Note_on_c, 0, 66, 0
2, 5112, Note_on_c, 0, 74, 64
2, 5135, Note_on_c, 0, 74, 0
2, 5136, Note_on_c, 0, 67, 64
2, 5159, Note_on_c, 0, 67, 0
2, 5160, Note_on_c, 0, 74, 64
2, 5183, Note_on_c, 0, 74, 0
2, 5184, Note_on_c, 0, 72, 64
2, 5207, Note_on_c, 0, 72, 0
2, 5208, Note_on_c, 0, 71, 64
2, 5231, Note_on_c, 0, 71, 0
2, 5232, Note_on_c, 0, 72, 64
2, 5255, Note_on_c, 0, 72, 0
2, 5256, Note_on_c, 0, 69, 64
2, 5279, Note_on_c, 0, 69, 0
2, 5280, Note_on_c, 0, 71, 64
2, 5325, Note_on_c, 0, 71, 0
2, 5328, Note_on_c, 0, 79, 64
2, 5351, Note_on_c, 0, 79, 0
2, 5352, Note_on_c, 0, 78, 64
2, 5375, Note_on_c, 0, 78, 0
2, 5376, Note_on_c, 0, 79, 64
2, 5399, Note_on_c, 0, 79, 0
2, 5400, Note_on_c, 0, 83, 64
2, 5423, Note_on_c, 0, 83, 0
2, 5424, Note_on_c, 0, 74, 64
2, 5469, Note_on_c, 0, 74, 0
2, 5472, Note_on_c, 0, 76, 64
2, 5495, Note_on_c, 0, 76, 0
2, 5496, Note_on_c, 0, 74, 64
2, 5519, Note_on_c, 0, 74, 0
2, 5520, Note_on_c, 0, 76, 64
2, 5543, Note_on_c, 0, 76, 0
2, 5544, Note_on_c, 0, 79, 64
2, 5567, Note_on_c, 0, 79, 0
2, 5568, Note_on_c, 0, 74, 64
2, 5613, Note_on_c, 0, 74, 0
2, 5616, Note_on_c, 0, 72, 64
2, 5639, Note_on_c, 0, 72, 0
2, 5640, Note_on_c, 0, 71, 64
2, 5663, Note_on_c, 0, 71, 0
2, 5664, Note_on_c, 0, 72, 64
2, 5687, Note_on_c, 0, 72, 0
2, 5688, Note_on_c, 0, 69, 64
2, 5711, Note_on_c, 0, 69, 0
2, 5712, Note_on_c, 0, 71, 64
2, 5735, Note_on_c, 0, 71, 0
2, 5736, Note_on_c, 0, 67, 64
2, 5759, Note_on_c, 0, 67, 0
2, 5760, Note_on_c, 0, 62, 64
2, 5849, Note_on_c, 0, 62, 0
2, 5856, Note_on_c, 0, 67, 64
2, 5901, Note_on_c, 0, 67, 0
2, 5904, Note_on_c, 0, 71, 64
2, 5927, Note_on_c, 0, 71, 0
2, 5928, Note_on_c, 0, 67, 64
2, 5951, Note_on_c, 0, 67, 0
2, 5952, Note_on_c, 0, 71, 64
2, 5975, Note_on_c, 0, 71, 0
2, 5976, Note_on_c, 0, 67, 64
2, 5999, Note_on_c, 0, 67, 0
2, 6000, Note_on_c, 0, 72, 64
2, 6023, Note_on_c, 0, 72, 0
2, 6024, Note_on_c, 0, 67, 64
2, 6047, Note_on_c, 0, 67, 0
2, 6048, Note_on_c, 0, 74, 64
2, 6071, Note_on_c, 0, 74, 0
2, 6072, Note_on_c, 0, 67, 64
2, 6095, Note_on_c, 0, 67, 0
2, 6096, Note_on_c, 0, 74, 64
2, 6119, Note_on_c, 0, 74, 0
2, 6120, Note_on_c, 0, 67, 64
2, 6143, Note_on_c, 0, 67, 0
2, 6144, Note_on_c, 0, 76, 64
2, 6167, Note_on_c, 0, 76, 0
2, 6168, Note_on_c, 0, 67, 64
2, 6191, Note_on_c, 0, 67, 0
2, 6192, Note_on_c, 0, 67, 64
2, 6215, Note_on_c, 0, 67, 0
2, 6216, Note_on_c, 0, 66, 64
2, 6239, Note_on_c, 0, 66, 0
2, 6240, Note_on_c, 0, 64, 64
2, 6263, Note_on_c, 0, 64, 0
2, 6264, Note_on_c, 0, 62, 64
2, 6287, Note_on_c, 0, 62, 0
2, 6288, Note_on_c, 0, 72, 64
2, 6288, Note_on_c, 0, 69, 64
2, 6308, Note_on_c, 0, 72, 0
2, 6308, Note_on_c, 0, 69, 0
2, 6336, Note_on_c, 0, 72, 64
2, 6336, Note_on_c, 0, 69, 64
2, 6381, Note_on_c, 0, 72, 0
2, 6381, Note_on_c, 0, 69, 0
2, 6384, Note_on_c, 0, 71, 64
2, 6384, Note_on_c, 0, 67, 64
2, 6429, Note_on_c, 0, 71, 0
2, 6429, Note_on_c, 0, 67, 0
2, 6432, Note_on_c, 0, 67, 64
2, 6477, Note_on_c, 0, 67, 0
2, 6480, Note_on_c, 0, 71, 64
2, 6503, Note_on_c, 0, 71, 0
2, 6504, Note_on_c, 0, 67, 64
2, 6527, Note_on_c, 0, 67, 0
2, 6528, Note_on_c, 0, 71, 64
2, 6551, Note_on_c, 0, 71, 0
2, 6552, Note_on_c, 0, 67, 64
2, 6575, Note_on_c, 0, 67, 0
2, 6576, Note_on_c, 0, 72, 64
2, 6599, Note_on_c, 0, 72, 0
2, 6600, Note_on_c, 0, 67, 64
2, 6623, Note_on_c, 0, 67, 0
2, 6624, Note_on_c, 0, 74, 64
2, 6647, Note_on_c, 0, 74, 0
2, 6648, Note_on_c, 0, 67, 64
2, 6671, Note_on_c, 0, 67, 0
2, 6672, Note_on_c, 0, 74, 64
2, 6695, Note_on_c, 0, 74, 0
2, 6696, Note_on_c, 0, 67, 64
2, 6719, Note_on_c, 0, 67, 0
2, 6720, Note_on_c, 0, 76, 64
2, 6743, Note_on_c, 0, 76, 0
2, 6744, Note_on_c, 0, 67, 64
2, 6767, Note_on_c, 0, 67, 0
2, 6768, Note_on_c, 0, 74, 64
2, 6813, Note_on_c, 0, 74, 0
2, 6816, Note_on_c, 0, 67, 64
2, 6861, Note_on_c, 0, 67, 0
2, 6864, Note_on_c, 0, 66, 64
2, 6909, Note_on_c, 0, 66, 0
2, 6912, Note_on_c, 0, 67, 64
2, 7001, Note_on_c, 0, 67, 0
2, 7056, Note_on_c, 0, 76, 64
2, 7068, Note_on_c, 0, 76, 0
2, 7068, Note_on_c, 0, 74, 64
2, 7080, Note_on_c, 0, 74, 0
2, 7080, Note_on_c, 0, 73, 64
2, 7092, Note_on_c, 0, 73, 0
2, 7092, Note_on_c, 0, 74, 64
2, 7104, Note_on_c, 0, 74, 0
2, 7200, Note_on_c, 0, 77, 64
2, 7212, Note_on_c, 0, 77, 0
2, 7212, Note_on_c, 0, 75, 64
2, 7224, Note_on_c, 0, 75, 0
2, 7224, Note_on_c, 0, 74, 64
2, 7236, Note_on_c, 0, 74, 0
2, 7236, Note_on_c, 0, 75, 64
2, 7248, Note_on_c, 0, 75, 0
2, 7344, Note_on_c, 0, 79, 64
2, 7356, Note_on_c, 0, 79, 0
2, 7356, Note_on_c, 0, 78, 64
2, 7368, Note_on_c, 0, 78, 0
2, 7368, Note_on_c, 0, 76, 64
2, 7380, Note_on_c, 0, 76, 0
2, 7380, Note_on_c, 0, 78, 64
2, 7392, Note_on_c, 0, 78, 0
2, 7488, Note_on_c, 0, 81, 64
2, 7500, Note_on_c, 0, 81, 0
2, 7500, Note_on_c, 0, 79, 64
2, 7512, Note_on_c, 0, 79, 0
2, 7512, Note_on_c, 0, 77, 64
2, 7524, Note_on_c, 0, 77, 0
2, 7524, Note_on_c, 0, 79, 64
2, 7536, Note_on_c, 0, 79, 0
2, 7632, Note_on_c, 0, 82, 64
2, 7632, Note_on_c, 0, 73, 64
2, 7677, Note_on_c, 0, 82, 0
2, 7677, Note_on_c, 0, 73, 0
2, 7776, Note_on_c, 0, 81, 64
2, 7776, Note_on_c, 0, 74, 64
2, 7821, Note_on_c, 0, 81, 0
2, 7821, Note_on_c, 0, 74, 0
2, 7920, Note_on_c, 0, 79, 64
2, 7920, Note_on_c, 0, 76, 64
2, 7965, Note_on_c, 0, 79, 0
2, 7965, Note_on_c, 0, 76, 0
2, 7968, Note_on_c, 0, 77, 64
2, 7968, Note_on_c, 0, 74, 64
2, 8013, Note_on_c, 0, 77, 0
2, 8013, Note_on_c, 0, 74, 0
2, 8016, Note_on_c, 0, 76, 64
2, 8016, Note_on_c, 0, 73, 64
2, 8061, Note_on_c, 0, 76, 0
2, 8061, Note_on_c, 0, 73, 0
2, 8064, Note_on_c, 0, 74, 64
2, 8109, Note_on_c, 0, 74, 0
2, 8208, Note_on_c, 0, 76, 64
2, 8220, Note_on_c, 0, 76, 0
2, 8220, Note_on_c, 0, 74, 64
2, 8232, Note_on_c, 0, 74, 0
2, 8232, Note_on_c, 0, 73, 64
2, 8244, Note_on_c, 0, 73, 0
2, 8244, Note_on_c, 0, 74, 64
2, 8256, Note_on_c, 0, 74, 0
2, 8352, Note_on_c, 0, 77, 64
2, 8364, Note_on_c, 0, 77, 0
2, 8364, Note_on_c, 0, 75, 64
2, 8376, Note_on_c, 0, 75, 0
2, 8376, Note_on_c, 0, 74, 64
2, 8388, Note_on_c, 0, 74, 0
2, 8388, Note_on_c, 0, 75, 64
2, 8400, Note_on_c, 0, 75, 0
2, 8496, Note_on_c, 0, 79, 64
2, 8508, Note_on_c, 0, 79, 0
2, 8508, Note_on_c, 0, 78, 64
2, 8520, Note_on_c, 0, 78, 0
2, 8520, Note_on_c, 0, 76, 64
2, 8532, Note_on_c, 0, 76, 0
2, 8532, Note_on_c, 0, 78, 64
2, 8544, Note_on_c, 0, 78, 0
2, 8640, Note_on_c, 0, 81, 64
2, 8652, Note_on_c, 0, 81, 0
2, 8652, Note_on_c, 0, 79, 64
2, 8664, Note_on_c, 0, 79, 0
2, 8664, Note_on_c, 0, 77, 64
2, 8676, Note_on_c, 0, 77, 0
2, 8676, Note_on_c, 0, 79, 64
2, 8688, Note_on_c, 0, 79, 0
2, 8784, Note_on_c, 0, 82, 64
2, 8784, Note_on_c, 0, 73, 64
2, 8829, Note_on_c, 0, 82, 0
2, 8829, Note_on_c, 0, 73, 0
2, 8928, Note_on_c, 0, 81, 64
2, 8928, Note_on_c, 0, 74, 64
2, 8973, Note_on_c, 0, 81, 0
2, 8973, Note_on_c, 0, 74, 0
2, 9072, Note_on_c, 0, 79, 64
2, 9072, Note_on_c, 0, 76, 64
2, 9117, Note_on_c, 0, 79, 0
2, 9117, Note_on_c, 0, 76, 0
2, 9120, Note_on_c, 0, 77, 64
2, 9120, Note_on_c, 0, 74, 64
2, 9165, Note_on_c, 0, 77, 0
2, 9165, Note_on_c, 0, 74, 0
2, 9168, Note_on_c, 0, 76, 64
2, 9168, Note_on_c, 0, 73, 64
2, 9213, Note_on_c, 0, 76, 0
2, 9213, Note_on_c, 0, 73, 0
2, 9216, Note_on_c, 0, 74, 64
2, 9261, Note_on_c, 0, 74, 0
2, 9408, Note_on_c, 0, 54, 64
2, 9453, Note_on_c, 0, 54, 0
2, 9456, Note_on_c, 0, 57, 64
2, 9501, Note_on_c, 0, 57, 0
2, 9552, Note_on_c, 0, 55, 64
2, 9597, Note_on_c, 0, 55, 0
2, 9600, Note_on_c, 0, 62, 64
2, 9645, Note_on_c, 0, 62, 0
2, 9648, Note_on_c, 0, 60, 64
2, 9648, Note_on_c, 0, 57, 64
2, 9744, Note_on_c, 0, 60, 0
2, 9744, Note_on_c, 0, 57, 0
2, 9744, Note_on_c, 0, 58, 64
2, 9744, Note_on_c, 0, 55, 64
2, 9789, Note_on_c, 0, 58, 0
2, 9789, Note_on_c, 0, 55, 0
2, 9792, Note_on_c, 0, 57, 64
2, 9792, Note_on_c, 0, 54, 64
2, 9837, Note_on_c, 0, 57, 0
2, 9837, Note_on_c, 0, 54, 0
2, 9888, Note_on_c, 0, 74, 64
2, 9888, Note_on_c, 0, 70, 64
2, 9908, Note_on_c, 0, 74, 0
2, 9908, Note_on_c, 0, 70, 0
2, 9936, Note_on_c, 0, 72, 64
2, 9936, Note_on_c, 0, 69, 64
2, 10032, Note_on_c, 0, 72, 0
2, 10032, Note_on_c, 0, 69, 0
2, 10032, Note_on_c, 0, 70, 64
2, 10032, Note_on_c, 0, 67, 64
2, 10080, Note_on_c, 0, 70, 0
2, 10080, Note_on_c, 0, 67, 0
2, 10080, Note_on_c, 0, 69, 64
2, 10080, Note_on_c, 0, 66, 64
2, 10125, Note_on_c, 0, 69, 0
2, 10125, Note_on_c, 0, 66, 0
2, 10176, Note_on_c, 0, 62, 64
2, 10176, Note_on_c, 0, 58, 64
2, 10196, Note_on_c, 0, 62, 0
2, 10196, Note_on_c, 0, 58, 0
2, 10224, Note_on_c, 0, 60, 64
2, 10224, Note_on_c, 0, 57, 64
2, 10320, Note_on_c, 0, 60, 0
2, 10320, Note_on_c, 0, 57, 0
2, 10320, Note_on_c, 0, 58, 64
2, 10320, Note_on_c, 0, 55, 64
2, 10365, Note_on_c, 0, 58, 0
2, 10365, Note_on_c, 0, 55, 0
2, 10368, Note_on_c, 0, 57, 64
2, 10368, Note_on_c, 0, 54, 64
2, 10413, Note_on_c, 0, 57, 0
2, 10413, Note_on_c, 0, 54, 0
2, 10512, Note_on_c, 0, 81, 64
2, 10524, Note_on_c, 0, 81, 0
2, 10524, Note_on_c, 0, 79, 64
2, 10536, Note_on_c, 0, 79, 0
2, 10536, Note_on_c, 0, 78, 64
2, 10548, Note_on_c, 0, 78, 0
2, 10548, Note_on_c, 0, 79, 64
2, 10560, Note_on_c, 0, 79, 0
2, 10656, Note_on_c, 0, 82, 64
2, 10668, Note_on_c, 0, 82, 0
2, 10668, Note_on_c, 0, 81, 64
2, 10680, Note_on_c, 0, 81, 0
2, 10680, Note_on_c, 0, 79, 64
2, 10692, Note_on_c, 0, 79, 0
2, 10692, Note_on_c, 0, 81, 64
2, 10704, Note_on_c, 0, 81, 0
2, 10800, Note_on_c, 0, 84, 64
2, 10812, Note_on_c, 0, 84, 0
2, 10812, Note_on_c, 0, 82, 64
2, 10824, Note_on_c, 0, 82, 0
2, 10824, Note_on_c, 0, 81, 64
2, 10836, Note_on_c, 0, 81, 0
2, 10836, Note_on_c, 0, 82, 64
2, 10848, Note_on_c, 0, 82, 0
2, 10944, Note_on_c, 0, 79, 64
2, 10956, Note_on_c, 0, 79, 0
2, 10956, Note_on_c, 0, 78, 64
2, 10968, Note_on_c, 0, 78, 0
2, 10968, Note_on_c, 0, 76, 64
2, 10980, Note_on_c, 0, 76, 0
2, 10980, Note_on_c, 0, 78, 64
2, 10992, Note_on_c, 0, 78, 0
2, 11088, Note_on_c, 0, 79, 64
2, 11088, Note_on_c, 0, 70, 64
2, 11133, Note_on_c, 0, 79, 0
2, 11133, Note_on_c, 0, 70, 0
2, 11232, Note_on_c, 0, 75, 64
2, 11232, Note_on_c, 0, 66, 64
2, 11277, Note_on_c, 0, 75, 0
2, 11277, Note_on_c, 0, 66, 0
2, 11376, Note_on_c, 0, 74, 64
2, 11421, Note_on_c, 0, 74, 0
2, 11424, Note_on_c, 0, 70, 64
2, 11424, Note_on_c, 0, 67, 64
2, 11469, Note_on_c, 0, 70, 0
2, 11469, Note_on_c, 0, 67, 0
2, 11472, Note_on_c, 0, 69, 64
2, 11472, Note_on_c, 0, 66, 64
2, 11517, Note_on_c, 0, 69, 0
2, 11517, Note_on_c, 0, 66, 0
2, 11520, Note_on_c, 0, 67, 64
2, 11609, Note_on_c, 0, 67, 0
2, 11712, Note_on_c, 0, 54, 64
2, 11757, Note_on_c, 0, 54, 0
2, 11760, Note_on_c, 0, 57, 64
2, 11805, Note_on_c, 0, 57, 0
2, 11856, Note_on_c, 0, 55, 64
2, 11901, Note_on_c, 0, 55, 0
2, 11904, Note_on_c, 0, 62, 64
2, 11949, Note_on_c, 0, 62, 0
2, 11952, Note_on_c, 0, 60, 64
2, 11952, Note_on_c, 0, 57, 64
2, 12048, Note_on_c, 0, 60, 0
2, 12048, Note_on_c, 0, 57, 0
2, 12048, Note_on_c, 0, 58, 64
2, 12048, Note_on_c, 0, 55, 64
2, 12093, Note_on_c, 0, 58, 0
2, 12093, Note_on_c, 0, 55, 0
2, 12096, Note_on_c, 0, 57, 64
2, 12096, Note_on_c, 0, 54, 64
2, 12141, Note_on_c, 0, 57, 0
2, 12141, Note_on_c, 0, 54, 0
2, 12192, Note_on_c, 0, 74, 64
2, 12192, Note_on_c, 0, 70, 64
2, 12212, Note_on_c, 0, 74, 0
2, 12212, Note_on_c, 0, 70, 0
2, 12240, Note_on_c, 0, 72, 64
2, 12240, Note_on_c, 0, 69, 64
2, 12336, Note_on_c, 0, 72, 0
2, 12336, Note_on_c, 0, 69, 0
2, 12336, Note_on_c, 0, 70, 64
2, 12336, Note_on_c, 0, 67, 64
2, 12384, Note_on_c, 0, 70, 0
2, 12384, Note_on_c, 0, 67, 0
2, 12384, Note_on_c, 0, 69, 64
2, 12384, Note_on_c, 0, 66, 64
2, 12429, Note_on_c, 0, 69, 0
2, 12429, Note_on_c, 0, 66, 0
2, 12480, Note_on_c, 0, 62, 64
2, 12480, Note_on_c, 0, 58, 64
2, 12500, Note_on_c, 0, 62, 0
2, 12500, Note_on_c, 0, 58, 0
2, 12528, Note_on_c, 0, 60, 64
2, 12528, Note_on_c, 0, 57, 64
2, 12624, Note_on_c, 0, 60, 0
2, 12624, Note_on_c, 0, 57, 0
2, 12624, Note_on_c, 0, 58, 64
2, 12624, Note_on_c, 0, 55, 64
2, 12669, Note_on_c, 0, 58, 0
2, 12669, Note_on_c, 0, 55, 0
2, 12672, Note_on_c, 0, 57, 64
2, 12672, Note_on_c, 0, 54, 64
2, 12717, Note_on_c, 0, 57, 0
2, 12717, Note_on_c, 0, 54, 0
2, 12816, Note_on_c, 0, 81, 64
2, 12828, Note_on_c, 0, 81, 0
2, 12828, Note_on_c, 0, 79, 64
2, 12840, Note_on_c, 0, 79, 0
2, 12840, Note_on_c, 0, 78, 64
2, 12852, Note_on_c, 0, 78, 0
2, 12852, Note_on_c, 0, 79, 64
2, 12864, Note_on_c, 0, 79, 0
2, 12960, Note_on_c, 0, 82, 64
2, 12972, Note_on_c, 0, 82, 0
2, 12972, Note_on_c, 0, 81, 64
2, 12984, Note_on_c, 0, 81, 0
2, 12984, Note_on_c, 0, 79, 64
2, 12996, Note_on_c, 0, 79, 0
2, 12996, Note_on_c, 0, 81, 64
2, 13008, Note_on_c, 0, 81, 0
2, 13104, Note_on_c, 0, 84, 64
2, 13116, Note_on_c, 0, 84, 0
2, 13116, Note_on_c, 0, 82, 64
2, 13128, Note_on_c, 0, 82, 0
2, 13128, Note_on_c, 0, 81, 64
2, 13140, Note_on_c, 0, 81, 0
2, 13140, Note_on_c, 0, 82, 64
2, 13152, Note_on_c, 0, 82, 0
2, 13248, Note_on_c, 0, 79, 64
2, 13260, Note_on_c, 0, 79, 0
2, 13260, Note_on_c, 0, 78, 64
2, 13272, Note_on_c, 0, 78, 0
2, 13272, Note_on_c, 0, 76, 64
2, 13284, Note_on_c, 0, 76, 0
2, 13284, Note_on_c, 0, 78, 64
2, 13296, Note_on_c, 0, 78, 0
2, 13392, Note_on_c, 0, 79, 64
2, 13392, Note_on_c, 0, 70, 64
2, 13437, Note_on_c, 0, 79, 0
2, 13437, Note_on_c, 0, 70, 0
2, 13536, Note_on_c, 0, 75, 64
2, 13536, Note_on_c, 0, 66, 64
2, 13581, Note_on_c, 0, 75, 0
2, 13581, Note_on_c, 0, 66, 0
2, 13680, Note_on_c, 0, 74, 64
2, 13725, Note_on_c, 0, 74, 0
2, 13728, Note_on_c, 0, 70, 64
2, 13728, Note_on_c, 0, 67, 64
2, 13773, Note_on_c, 0, 70, 0
2, 13773, Note_on_c, 0, 67, 0
2, 13776, Note_on_c, 0, 69, 64
2, 13776, Note_on_c, 0, 66, 64
2, 13821, Note_on_c, 0, 69, 0
2, 13821, Note_on_c, 0, 66, 0
2, 13824, Note_on_c, 0, 67, 64
2, 13913, Note_on_c, 0, 67, 0
2, 13920, Note_on_c, 0, 67, 64
2, 13965, Note_on_c, 0, 67, 0
2, 13968, Note_on_c, 0, 71, 64
2, 13991, Note_on_c, 0, 71, 0
2, 13992, Note_on_c, 0, 67, 64
2, 14015, Note_on_c, 0, 67, 0
2, 14016, Note_on_c, 0, 71, 64
2, 14039, Note_on_c, 0, 71, 0
2, 14040, Note_on_c, 0, 67, 64
2, 14063, Note_on_c, 0, 67, 0
2, 14064, Note_on_c, 0, 72, 64
2, 14087, Note_on_c, 0, 72, 0
2, 14088, Note_on_c, 0, 67, 64
2, 14111, Note_on_c, 0, 67, 0
2, 14112, Note_on_c, 0, 74, 64
2, 14135, Note_on_c, 0, 74, 0
2, 14136, Note_on_c, 0, 67, 64
2, 14159, Note_on_c, 0, 67, 0
2, 14160, Note_on_c, 0, 74, 64
2, 14183, Note_on_c, 0, 74, 0
2, 14184, Note_on_c, 0, 67, 64
2, 14207, Note_on_c, 0, 67, 0
2, 14208, Note_on_c, 0, 76, 64
2, 14231, Note_on_c, 0, 76, 0
2, 14232, Note_on_c, 0, 67, 64
2, 14255, Note_on_c, 0, 67, 0
2, 14256, Note_on_c, 0, 67, 64
2, 14279, Note_on_c, 0, 67, 0
2, 14280, Note_on_c, 0, 66, 64
2, 14303, Note_on_c, 0, 66, 0
2, 14304, Note_on_c, 0, 64, 64
2, 14327, Note_on_c, 0, 64, 0
2, 14328, Note_on_c, 0, 62, 64
2, 14351, Note_on_c, 0, 62, 0
2, 14352, Note_on_c, 0, 72, 64
2, 14352, Note_on_c, 0, 69, 64
2, 14372, Note_on_c, 0, 72, 0
2, 14372, Note_on_c, 0, 69, 0
2, 14400, Note_on_c, 0, 72, 64
2, 14400, Note_on_c, 0, 69, 64
2, 14445, Note_on_c, 0, 72, 0
2, 14445, Note_on_c, 0, 69, 0
2, 14448, Note_on_c, 0, 71, 64
2, 14448, Note_on_c, 0, 67, 64
2, 14493, Note_on_c, 0, 71, 0
2, 14493, Note_on_c, 0, 67, 0
2, 14496, Note_on_c, 0, 67, 64
2, 14541, Note_on_c, 0, 67, 0
2, 14544, Note_on_c, 0, 71, 64
2, 14567, Note_on_c, 0, 71, 0
2, 14568, Note_on_c, 0, 67, 64
2, 14591, Note_on_c, 0, 67, 0
2, 14592, Note_on_c, 0, 71, 64
2, 14615, Note_on_c, 0, 71, 0
2, 14616, Note_on_c, 0, 67, 64
2, 14639, Note_on_c, 0, 67, 0
2, 14640, Note_on_c, 0, 72, 64
2, 14663, Note_on_c, 0, 72, 0
2, 14664, Note_on_c, 0, 67, 64
2, 14687, Note_on_c, 0, 67, 0
2, 14688, Note_on_c, 0, 74, 64
2, 14711, Note_on_c, 0, 74, 0
2, 14712, Note_on_c, 0, 67, 64
2, 14735, Note_on_c, 0, 67, 0
2, 14736, Note_on_c, 0, 74, 64
2, 14759, Note_on_c, 0, 74, 0
2, 14760, Note_on_c, 0, 67, 64
2, 14783, Note_on_c, 0, 67, 0
2, 14784, Note_on_c, 0, 76, 64
2, 14807, Note_on_c, 0, 76, 0
2, 14808, Note_on_c, 0, 67, 64
2, 14831, Note_on_c, 0, 67, 0
2, 14832, Note_on_c, 0, 74, 64
2, 14877, Note_on_c, 0, 74, 0
2, 14880, Note_on_c, 0, 67, 64
2, 14925, Note_on_c, 0, 67, 0
2, 14928, Note_on_c, 0, 66, 64
2, 14973, Note_on_c, 0, 66, 0
2, 14976, Note_on_c, 0, 67, 64
2, 15065, Note_on_c, 0, 67, 0
2, 15072, Note_on_c, 0, 67, 64
2, 15117, Note_on_c, 0, 67, 0
2, 15120, Note_on_c, 0, 71, 64
2, 15143, Note_on_c, 0, 71, 0
2, 15144, Note_on_c, 0, 67, 64
2, 15167, Note_on_c, 0, 67, 0
2, 15168, Note_on_c, 0, 71, 64
2, 15191, Note_on_c, 0, 71, 0
2, 15192, Note_on_c, 0, 67, 64
2, 15215, Note_on_c, 0, 67, 0
2, 15216, Note_on_c, 0, 72, 64
2, 15239, Note_on_c, 0, 72, 0
2, 15240, Note_on_c, 0, 67, 64
2, 15263, Note_on_c, 0, 67, 0
2, 15264, Note_on_c, 0, 74, 64
2, 15287, Note_on_c, 0, 74, 0
2, 15288, Note_on_c, 0, 67, 64
2, 15311, Note_on_c, 0, 67, 0
2, 15312, Note_on_c, 0, 74, 64
2, 15335, Note_on_c, 0, 74, 0
2, 15336, Note_on_c, 0, 67, 64
2, 15359, Note_on_c, 0, 67, 0
2, 15360, Note_on_c, 0, 76, 64
2, 15383, Note_on_c, 0, 76, 0
2, 15384, Note_on_c, 0, 67, 64
2, 15407, Note_on_c, 0, 67, 0
2, 15408, Note_on_c, 0, 67, 64
2, 15431, Note_on_c, 0, 67, 0
2, 15432, Note_on_c, 0, 66, 64
2, 15455, Note_on_c, 0, 66, 0
2, 15456, Note_on_c, 0, 64, 64
2, 15479, Note_on_c, 0, 64, 0
2, 15480, Note_on_c, 0, 62, 64
2, 15503, Note_on_c, 0, 62, 0
2, 15504, Note_on_c, 0, 72, 64
2, 15504, Note_on_c, 0, 69, 64
2, 15524, Note_on_c, 0, 72, 0
2, 15524, Note_on_c, 0, 69, 0
2, 15552, Note_on_c, 0, 72, 64
2, 15552, Note_on_c, 0, 69, 64
2, 15597, Note_on_c, 0, 72, 0
2, 15597, Note_on_c, 0, 69, 0
2, 15600, Note_on_c, 0, 71, 64
2, 15600, Note_on_c, 0, 67, 64
2, 15645, Note_on_c, 0, 71, 0
2, 15645, Note_on_c, 0, 67, 0
2, 15648, Note_on_c, 0, 67, 64
2, 15693, Note_on_c, 0, 67, 0
2, 15696, Note_on_c, 0, 71, 64
2, 15719, Note_on_c, 0, 71, 0
2, 15720, Note_on_c, 0, 67, 64
2, 15743, Note_on_c, 0, 67, 0
2, 15744, Note_on_c, 0, 71, 64
2, 15767, Note_on_c, 0, 71, 0
2, 15768, Note_on_c, 0, 67, 64
2, 15791, Note_on_c, 0, 67, 0
2, 15792, Note_on_c, 0, 72, 64
2, 15815, Note_on_c, 0, 72, 0
2, 15816, Note_on_c, 0, 67, 64
2, 15839, Note_on_c, 0, 67, 0
2, 15840, Note_on_c, 0, 74, 64
2, 15863, Note_on_c, 0, 74, 0
2, 15864, Note_on_c, 0, 67, 64
2, 15887, Note_on_c, 0, 67, 0
2, 15888, Note_on_c, 0, 74, 64
2, 15911, Note_on_c, 0, 74, 0
2, 15912, Note_on_c, 0, 67, 64
2, 15935, Note_on_c, 0, 67, 0
2, 15936, Note_on_c, 0, 76, 64
2, 15959, Note_on_c, 0, 76, 0
2, 15960, Note_on_c, 0, 67, 64
2, 15983, Note_on_c, 0, 67, 0
2, 15984, Note_on_c, 0, 74, 64
2, 16029, Note_on_c, 0, 74, 0
2, 16032, Note_on_c, 0, 67, 64
2, 16077, Note_on_c, 0, 67, 0
2, 16080, Note_on_c, 0, 66, 64
2, 16125, Note_on_c, 0, 66, 0
2, 16128, Note_on_c, 0, 67, 64
2, 16217, Note_on_c, 0, 67, 0
2, 16224, Note_on_c, 0, 74, 64
2, 16269, Note_on_c, 0, 74, 0
2, 16272, Note_on_c, 0, 66, 64
2, 16295, Note_on_c, 0, 66, 0
2, 16296, Note_on_c, 0, 74, 64
2, 16319, Note_on_c, 0, 74, 0
2, 16320, Note_on_c, 0, 66, 64
2, 16343, Note_on_c, 0, 66, 0
2, 16344, Note_on_c, 0, 74, 64
2, 16367, Note_on_c, 0, 74, 0
2, 16368, Note_on_c, 0, 67, 64
2, 16391, Note_on_c, 0, 67, 0
2, 16392, Note_on_c, 0, 74, 64
2, 16415, Note_on_c, 0, 74, 0
2, 16416, Note_on_c, 0, 72, 64
2, 16439, Note_on_c, 0, 72, 0
2, 16440, Note_on_c, 0, 71, 64
2, 16463, Note_on_c, 0, 71, 0
2, 16464, Note_on_c, 0, 72, 64
2, 16487, Note_on_c, 0, 72, 0
2, 16488, Note_on_c, 0, 69, 64
2, 16511, Note_on_c, 0, 69, 0
2, 16512, Note_on_c, 0, 71, 64
2, 16557, Note_on_c, 0, 71, 0
2, 16560, Note_on_c, 0, 66, 64
2, 16583, Note_on_c, 0, 66, 0
2, 16584, Note_on_c, 0, 74, 64
2, 16607, Note_on_c, 0, 74, 0
2, 16608, Note_on_c, 0, 66, 64
2, 16631, Note_on_c, 0, 66, 0
2, 16632, Note_on_c, 0, 74, 64
2, 16655, Note_on_c, 0, 74, 0
2, 16656, Note_on_c, 0, 67, 64
2, 16679, Note_on_c, 0, 67, 0
2, 16680, Note_on_c, 0, 74, 64
2, 16703, Note_on_c, 0, 74, 0
2, 16704, Note_on_c, 0, 72, 64
2, 16727, Note_on_c, 0, 72, 0
2, 16728, Note_on_c, 0, 71, 64
2, 16751, Note_on_c, 0, 71, 0
2, 16752, Note_on_c, 0, 72, 64
2, 16775, Note_on_c, 0, 72, 0
2, 16776, Note_on_c, 0, 69, 64
2, 16799, Note_on_c, 0, 69, 0
2, 16800, Note_on_c, 0, 71, 64
2, 16845, Note_on_c, 0, 71, 0
2, 16848, Note_on_c, 0, 79, 64
2, 16871, Note_on_c, 0, 79, 0
2, 16872, Note_on_c, 0, 78, 64
2, 16895, Note_on_c, 0, 78, 0
2, 16896, Note_on_c, 0, 79, 64
2, 16919, Note_on_c, 0, 79, 0
2, 16920, Note_on_c, 0, 83, 64
2, 16943, Note_on_c, 0, 83, 0
2, 16944, Note_on_c, 0, 74, 64
2, 16989, Note_on_c, 0, 74, 0
2, 16992, Note_on_c, 0, 76, 64
2, 17015, Note_on_c, 0, 76, 0
2, 17016, Note_on_c, 0, 74, 64
2, 17039, Note_on_c, 0, 74, 0
2, 17040, Note_on_c, 0, 76, 64
2, 17063, Note_on_c, 0, 76, 0
2, 17064, Note_on_c, 0, 79, 64
2, 17087, Note_on_c, 0, 79, 0
2, 17088, Note_on_c, 0, 74, 64
2, 17133, Note_on_c, 0, 74, 0
2, 17136, Note_on_c, 0, 72, 64
2, 17159, Note_on_c, 0, 72, 0
2, 17160, Note_on_c, 0, 71, 64
2, 17183, Note_on_c, 0, 71, 0
2, 17184, Note_on_c, 0, 72, 64
2, 17207, Note_on_c, 0, 72, 0
2, 17208, Note_on_c, 0, 69, 64
2, 17231, Note_on_c, 0, 69, 0
2, 17232, Note_on_c, 0, 71, 64
2, 17255, Note_on_c, 0, 71, 0
2, 17256, Note_on_c, 0, 67, 64
2, 17279, Note_on_c, 0, 67, 0
2, 17280, Note_on_c, 0, 62, 64
2, 17369, Note_on_c, 0, 62, 0
2, 17376, Note_on_c, 0, 67, 64
2, 17421, Note_on_c, 0, 67, 0
2, 17424, Note_on_c, 0, 71, 64
2, 17447, Note_on_c, 0, 71, 0
2, 17448, Note_on_c, 0, 67, 64
2, 17471, Note_on_c, 0, 67, 0
2, 17472, Note_on_c, 0, 71, 64
2, 17495, Note_on_c, 0, 71, 0
2, 17496, Note_on_c, 0, 67, 64
2, 17519, Note_on_c, 0, 67, 0
2, 17520, Note_on_c, 0, 72, 64
2, 17543, Note_on_c, 0, 72, 0
2, 17544, Note_on_c, 0, 67, 64
2, 17567, Note_on_c, 0, 67, 0
2, 17568, Note_on_c, 0, 74, 64
2, 17591, Note_on_c, 0, 74, 0
2, 17592, Note_on_c, 0, 67, 64
2, 17615, Note_on_c, 0, 67, 0
2, 17616, Note_on_c, 0, 74, 64
2, 17639, Note_on_c, 0, 74, 0
2, 17640, Note_on_c, 0, 67, 64
2, 17663, Note_on_c, 0, 67, 0
2, 17664, Note_on_c, 0, 76, 64
2, 17687, Note_on_c, 0, 76, 0
2, 17688, Note_on_c, 0, 67, 64
2, 17711, Note_on_c, 0, 67, 0
2, 17712, Note_on_c, 0, 67, 64
2, 17735, Note_on_c, 0, 67, 0
2, 17736, Note_on_c, 0, 66, 64
2, 17759, Note_on_c, 0, 66, 0
2, 17760, Note_on_c, 0, 64, 64
2, 17783, Note_on_c, 0, 64, 0
2, 17784, Note_on_c, 0, 62, 64
2, 17807, Note_on_c, 0, 62, 0
2, 17808, Note_on_c, 0, 72, 64
2, 17808, Note_on_c, 0, 69, 64
2, 17828, Note_on_c, 0, 72, 0
2, 17828, Note_on_c, 0, 69, 0
2, 17856, Note_on_c, 0, 72, 64
2, 17856, Note_on_c, 0, 69, 64
2, 17901, Note_on_c, 0, 72, 0
2, 17901, Note_on_c, 0, 69, 0
2, 17904, Note_on_c, 0, 71, 64
2, 17904, Note_on_c, 0, 67, 64
2, 17949, Note_on_c, 0, 71, 0
2, 17949, Note_on_c, 0, 67, 0
2, 17952, Note_on_c, 0, 67, 64
2, 17997, Note_on_c, 0, 67, 0
2, 18000, Note_on_c, 0, 71, 64
2, 18023, Note_on_c, 0, 71, 0
2, 18024, Note_on_c, 0, 67, 64
2, 18047, Note_on_c, 0, 67, 0
2, 18048, Note_on_c, 0, 71, 64
2, 18071, Note_on_c, 0, 71, 0
2, 18072, Note_on_c, 0, 67, 64
2, 18095, Note_on_c, 0, 67, 0
2, 18096, Note_on_c, 0, 72, 64
2, 18119, Note_on_c, 0, 72, 0
2, 18120, Note_on_c, 0, 67, 64
2, 18143, Note_on_c, 0, 67, 0
2, 18144, Note_on_c, 0, 74, 64
2, 18167, Note_on_c, 0, 74, 0
2, 18168, Note_on_c, 0, 67, 64
2, 18191, Note_on_c, 0, 67, 0
2, 18192, Note_on_c, 0, 74, 64
2, 18215, Note_on_c, 0, 74, 0
2, 18216, Note_on_c, 0, 67, 64
2, 18239, Note_on_c, 0, 67, 0
2, 18240, Note_on_c, 0, 76, 64
2, 18263, Note_on_c, 0, 76, 0
2, 18264, Note_on_c, 0, 67, 64
2, 18287, Note_on_c, 0, 67, 0
2, 18288, Note_on_c, 0, 74, 64
2, 18333, Note_on_c, 0, 74, 0
2, 18336, Note_on_c, 0, 67, 64
2, 18381, Note_on_c, 0, 67, 0
2, 18384, Note_on_c, 0, 66, 64
2, 18429, Note_on_c, 0, 66, 0
2, 18432, Note_on_c, 0, 67, 64
2, 18521, Note_on_c, 0, 67, 0
2, 18528, Note_on_c, 0, 74, 64
2, 18573, Note_on_c, 0, 74, 0
2, 18576, Note_on_c, 0, 66, 64
2, 18599, Note_on_c, 0, 66, 0
2, 18600, Note_on_c, 0, 74, 64
2, 18623, Note_on_c, 0, 74, 0
2, 18624, Note_on_c, 0, 66, 64
2, 18647, Note_on_c, 0, 66, 0
2, 18648, Note_on_c, 0, 74, 64
2, 18671, Note_on_c, 0, 74, 0
2, 18672, Note_on_c, 0, 67, 64
2, 18695, Note_on_c, 0, 67, 0
2, 18696, Note_on_c, 0, 74, 64
2, 18719, Note_on_c, 0, 74, 0
2, 18720, Note_on_c, 0, 72, 64
2, 18743, Note_on_c, 0, 72, 0
2, 18744, Note_on_c, 0, 71, 64
2, 18767, Note_on_c, 0, 71, 0
2, 18768, Note_on_c, 0, 72, 64
2, 18791, Note_on_c, 0, 72, 0
2, 18792, Note_on_c, 0, 69, 64
2, 18815, Note_on_c, 0, 69, 0
2, 18816, Note_on_c, 0, 71, 64
2, 18861, Note_on_c, 0, 71, 0
2, 18864, Note_on_c, 0, 66, 64
2, 18887, Note_on_c, 0, 66, 0
2, 18888, Note_on_c, 0, 74, 64
2, 18911, Note_on_c, 0, 74, 0
2, 18912, Note_on_c, 0, 66, 64
2, 18935, Note_on_c, 0, 66, 0
2, 18936, Note_on_c, 0, 74, 64
2, 18959, Note_on_c, 0, 74, 0
2, 18960, Note_on_c, 0, 67, 64
2, 18983, Note_on_c, 0, 67, 0
2, 18984, Note_on_c, 0, 74, 64
2, 19007, Note_on_c, 0, 74, 0
2, 19008, Note_on_c, 0, 72, 64
2, 19031, Note_on_c, 0, 72, 0
2, 19032, Note_on_c, 0, 71, 64
2, 19055, Note_on_c, 0, 71, 0
2, 19056, Note_on_c, 0, 72, 64
2, 19079, Note_on_c, 0, 72, 0
2, 19080, Note_on_c, 0, 69, 64
2, 19103, Note_on_c, 0, 69, 0
2, 19104, Note_on_c, 0, 71, 64
2, 19149, Note_on_c, 0, 71, 0
2, 19152, Note_on_c, 0, 79, 64
2, 19175, Note_on_c, 0, 79, 0
2, 19176, Note_on_c, 0, 78, 64
2, 19199, Note_on_c, 0, 78, 0
2, 19200, Note_on_c, 0, 79, 64
2, 19223, Note_on_c, 0, 79, 0
2, 19224, Note_on_c, 0, 83, 64
2, 19247, Note_on_c, 0, 83, 0
2, 19248, Note_on_c, 0, 74, 64
2, 19293, Note_on_c, 0, 74, 0
2, 19296, Note_on_c, 0, 76, 64
2, 19319, Note_on_c, 0, 76, 0
2, 19320, Note_on_c, 0, 74, 64
2, 19343, Note_on_c, 0, 74, 0
2, 19344, Note_on_c, 0, 76, 64
2, 19367, Note_on_c, 0, 76, 0
2, 19368, Note_on_c, 0, 79, 64
2, 19391, Note_on_c, 0, 79, 0
2, 19392, Note_on_c, 0, 74, 64
2, 19437, Note_on_c, 0, 74, 0
2, 19440, Note_on_c, 0, 72, 64
2, 19463, Note_on_c, 0, 72, 0
2, 19464, Note_on_c, 0, 71, 64
2, 19487, Note_on_c, 0, 71, 0
2, 19488, Note_on_c, 0, 72, 64
2, 19511, Note_on_c, 0, 72, 0
2, 19512, Note_on_c, 0, 69, 64
2, 19535, Note_on_c, 0, 69, 0
2, 19536, Note_on_c, 0, 71, 64
2, 19559, Note_on_c, 0, 71, 0
2, 19560, Note_on_c, 0, 67, 64
2, 19583, Note_on_c, 0, 67, 0
2, 19584, Note_on_c, 0, 62, 64
2, 19673, Note_on_c, 0, 62, 0
2, 19680, Note_on_c, 0, 67, 64
2, 19725, Note_on_c, 0, 67, 0
2, 19728, Note_on_c, 0, 71, 64
2, 19751, Note_on_c, 0, 71, 0
2, 19752, Note_on_c, 0, 67, 64
2, 19775, Note_on_c, 0, 67, 0
2, 19776, Note_on_c, 0, 71, 64
2, 19799, Note_on_c, 0, 71, 0
2, 19800, Note_on_c, 0, 67, 64
2, 19823, Note_on_c, 0, 67, 0
2, 19824, Note_on_c, 0, 72, 64
2, 19847, Note_on_c, 0, 72, 0
2, 19848, Note_on_c, 0, 67, 64
2, 19871, Note_on_c, 0, 67, 0
2, 19872, Note_on_c, 0, 74, 64
2, 19895, Note_on_c, 0, 74, 0
2, 19896, Note_on_c, 0, 67, 64
2, 19919, Note_on_c, 0, 67, 0
2, 19920, Note_on_c, 0, 74, 64
2, 19943, Note_on_c, 0, 74, 0
2, 19944, Note_on_c, 0, 67, 64
2, 19967, Note_on_c, 0, 67, 0
2, 19968, Note_on_c, 0, 76, 64
2, 19991, Note_on_c, 0, 76, 0
2, 19992, Note_on_c, 0, 67, 64
2, 20015, Note_on_c, 0, 67, 0
2, 20016, Note_on_c, 0, 67, 64
2, 20039, Note_on_c, 0, 67, 0
2, 20040, Note_on_c, 0, 66, 64
2, 20063, Note_on_c, 0, 66, 0
2, 20064, Note_on_c, 0, 64, 64
2, 20087, Note_on_c, 0, 64, 0
2, 20088, Note_on_c, 0, 62, 64
2, 20111, Note_on_c, 0, 62, 0
2, 20112, Note_on_c, 0, 72, 64
2, 20112, Note_on_c, 0, 69, 64
2, 20132, Note_on_c, 0, 72, 0
2, 20132, Note_on_c, 0, 69, 0
2, 20160, Note_on_c, 0, 72, 64
2, 20160, Note_on_c, 0, 69, 64
2, 20205, Note_on_c, 0, 72, 0
2, 20205, Note_on_c, 0, 69, 0
2, 20208, Note_on_c, 0, 71, 64
2, 20208, Note_on_c, 0, 67, 64
2, 20253, Note_on_c, 0, 71, 0
2, 20253, Note_on_c, 0, 67, 0
2, 20256, Note_on_c, 0, 67, 64
2, 20301, Note_on_c, 0, 67, 0
2, 20304, Note_on_c, 0, 71, 64
2, 20327, Note_on_c, 0, 71, 0
2, 20328, Note_on_c, 0, 67, 64
2, 20351, Note_on_c, 0, 67, 0
2, 20352, Note_on_c, 0, 71, 64
2, 20375, Note_on_c, 0, 71, 0
2, 20376, Note_on_c, 0, 67, 64
2, 20399, Note_on_c, 0, 67, 0
2, 20400, Note_on_c, 0, 72, 64
2, 20423, Note_on_c, 0, 72, 0
2, 20424, Note_on_c, 0, 67, 64
2, 20447, Note_on_c, 0, 67, 0
2, 20448, Note_on_c, 0, 74, 64
2, 20471, Note_on_c, 0, 74, 0
2, 20472, Note_on_c, 0, 67, 64
2, 20495, Note_on_c, 0, 67, 0
2, 20496, Note_on_c, 0, 74, 64
2, 20519, Note_on_c, 0, 74, 0
2, 20520, Note_on_c, 0, 67, 64
2, 20543, Note_on_c, 0, 67, 0
2, 20544, Note_on_c, 0, 76, 64
2, 20567, Note_on_c, 0, 76, 0
2, 20568, Note_on_c, 0, 67, 64
2, 20591, Note_on_c, 0, 67, 0
2, 20592, Note_on_c, 0, 74, 64
2, 20637, Note_on_c, 0, 74, 0
2, 20640, Note_on_c, 0, 67, 64
2, 20685, Note_on_c, 0, 67, 0
2, 20688, Note_on_c, 0, 66, 64
2, 20733, Note_on_c, 0, 66, 0
2, 20736, Note_on_c, 0, 67, 64
2, 20825, Note_on_c, 0, 67, 0
2, 21024, End_track
3, 0, Start_track
3, 0, Program_c, 0, 0
3, 0, Control_c, 0, 7, 127
3, 0, Control_c, 0, 10, 64
3, 7104, Note_on_c, 0, 70, 64
3, 7149, Note_on_c, 0, 70, 0
3, 7152, Note_on_c, 0, 67, 64
3, 7197, Note_on_c, 0, 67, 0
3, 7248, Note_on_c, 0, 72, 64
3, 7293, Note_on_c, 0, 72, 0
3, 7296, Note_on_c, 0, 60, 64
3, 7341, Note_on_c, 0, 60, 0
3, 7392, Note_on_c, 0, 74, 64
3, 7437, Note_on_c, 0, 74, 0
3, 7440, Note_on_c, 0, 72, 64
3, 7485, Note_on_c, 0, 72, 0
3, 7536, Note_on_c, 0, 70, 64
3, 7581, Note_on_c, 0, 70, 0
3, 7584, Note_on_c, 0, 67, 64
3, 7629, Note_on_c, 0, 67, 0
3, 8256, Note_on_c, 0, 70, 64
3, 8301, Note_on_c, 0, 70, 0
3, 8304, Note_on_c, 0, 67, 64
3, 8349, Note_on_c, 0, 67, 0
3, 8400, Note_on_c, 0, 72, 64
3, 8445, Note_on_c, 0, 72, 0
3, 8448, Note_on_c, 0, 60, 64
3, 8493, Note_on_c, 0, 60, 0
3, 8544, Note_on_c, 0, 74, 64
3, 8589, Note_on_c, 0, 74, 0
3, 8592, Note_on_c, 0, 72, 64
3, 8637, Note_on_c, 0, 72, 0
3, 8688, Note_on_c, 0, 70, 64
3, 8733, Note_on_c, 0, 70, 0
3, 8736, Note_on_c, 0, 67, 64
3, 8781, Note_on_c, 0, 67, 0
3, 10560, Note_on_c, 0, 70, 64
3, 10605, Note_on_c, 0, 70, 0
3, 10608, Note_on_c, 0, 67, 64
3, 10653, Note_on_c, 0, 67, 0
3, 10704, Note_on_c, 0, 66, 64
3, 10749, Note_on_c, 0, 66, 0
3, 10752, Note_on_c, 0, 62, 64
3, 10797, Note_on_c, 0, 62, 0
3, 10848, Note_on_c, 0, 67, 64
3, 10893, Note_on_c, 0, 67, 0
3, 10896, Note_on_c, 0, 55, 64
3, 10941, Note_on_c, 0, 55, 0
3, 10992, Note_on_c, 0, 69, 64
3, 11037, Note_on_c, 0, 69, 0
3, 11040, Note_on_c, 0, 57, 64
3, 11085, Note_on_c, 0, 57, 0
3, 12864, Note_on_c, 0, 70, 64
3, 12909, Note_on_c, 0, 70, 0
3, 12912, Note_on_c, 0, 67, 64
3, 12957, Note_on_c, 0, 67, 0
3, 13008, Note_on_c, 0, 66, 64
3, 13053, Note_on_c, 0, 66, 0
3, 13056, Note_on_c, 0, 62, 64
3, 13101, Note_on_c, 0, 62, 0
3, 13152, Note_on_c, 0, 67, 64
3, 13197, Note_on_c, 0, 67, 0
3, 13200, Note_on_c, 0, 55, 64
3, 13245, Note_on_c, 0, 55, 0
3, 13296, Note_on_c, 0, 69, 64
3, 13341, Note_on_c, 0, 69, 0
3, 13344, Note_on_c, 0, 57, 64
3, 13389, Note_on_c, 0, 57, 0
3, 21024, End_track
4, 0, Start_track
4, 0, Program_c, 0, 0
4, 0, Control_c, 0, 7, 127
4, 0, Control_c, 0, 10, 64
4, 144, Note_on_c, 0, 55, 64
4, 144, Note_on_c, 0, 43, 64
4, 233, Note_on_c, 0, 55, 0
4, 233, Note_on_c, 0, 43, 0
4, 240, Note_on_c, 0, 57, 64
4, 240, Note_on_c, 0, 45, 64
4, 285, Note_on_c, 0, 57, 0
4, 285, Note_on_c, 0, 45, 0
4, 288, Note_on_c, 0, 59, 64
4, 288, Note_on_c, 0, 47, 64
4, 377, Note_on_c, 0, 59, 0
4, 377, Note_on_c, 0, 47, 0
4, 384, Note_on_c, 0, 60, 64
4, 384, Note_on_c, 0, 48, 64
4, 429, Note_on_c, 0, 60, 0
4, 429, Note_on_c, 0, 48, 0
4, 432, Note_on_c, 0, 62, 64
4, 432, Note_on_c, 0, 50, 64
4, 521, Note_on_c, 0, 62, 0
4, 521, Note_on_c, 0, 50, 0
4, 528, Note_on_c, 0, 54, 64
4, 573, Note_on_c, 0, 54, 0
4, 576, Note_on_c, 0, 55, 64
4, 621, Note_on_c, 0, 55, 0
4, 624, Note_on_c, 0, 43, 64
4, 669, Note_on_c, 0, 43, 0
4, 720, Note_on_c, 0, 55, 64
4, 720, Note_on_c, 0, 43, 64
4, 809, Note_on_c, 0, 55, 0
4, 809, Note_on_c, 0, 43, 0
4, 816, Note_on_c, 0, 57, 64
4, 816, Note_on_c, 0, 45, 64
4, 861, Note_on_c, 0, 57, 0
4, 861, Note_on_c, 0, 45, 0
4, 864, Note_on_c, 0, 59, 64
4, 864, Note_on_c, 0, 47, 64
4, 953, Note_on_c, 0, 59, 0
4, 953, Note_on_c, 0, 47, 0
4, 960, Note_on_c, 0, 60, 64
4, 960, Note_on_c, 0, 48, 64
4, 1005, Note_on_c, 0, 60, 0
4, 1005, Note_on_c, 0, 48, 0
4, 1008, Note_on_c, 0, 59, 64
4, 1053, Note_on_c, 0, 59, 0
4, 1056, Note_on_c, 0, 62, 64
4, 1101, Note_on_c, 0, 62, 0
4, 1104, Note_on_c, 0, 50, 64
4, 1149, Note_on_c, 0, 50, 0
4, 1152, Note_on_c, 0, 55, 64
4, 1197, Note_on_c, 0, 55, 0
4, 1200, Note_on_c, 0, 43, 64
4, 1245, Note_on_c, 0, 43, 0
4, 1296, Note_on_c, 0, 55, 64
4, 1296, Note_on_c, 0, 43, 64
4, 1385, Note_on_c, 0, 55, 0
4, 1385, Note_on_c, 0, 43, 0
4, 1392, Note_on_c, 0, 57, 64
4, 1392, Note_on_c, 0, 45, 64
4, 1437, Note_on_c, 0, 57, 0
4, 1437, Note_on_c, 0, 45, 0
4, 1440, Note_on_c, 0, 59, 64
4, 1440, Note_on_c, 0, 47, 64
4, 1529, Note_on_c, 0, 59, 0
4, 1529, Note_on_c, 0, 47, 0
4, 1536, Note_on_c, 0, 60, 64
4, 1536, Note_on_c, 0, 48, 64
4, 1581, Note_on_c, 0, 60, 0
4, 1581, Note_on_c, 0, 48, 0
4, 1584, Note_on_c, 0, 62, 64
4, 1584, Note_on_c, 0, 50, 64
4, 1673, Note_on_c, 0, 62, 0
4, 1673, Note_on_c, 0, 50, 0
4, 1680, Note_on_c, 0, 54, 64
4, 1725, Note_on_c, 0, 54, 0
4, 1728, Note_on_c, 0, 55, 64
4, 1773, Note_on_c, 0, 55, 0
4, 1776, Note_on_c, 0, 43, 64
4, 1821, Note_on_c, 0, 43, 0
4, 1872, Note_on_c, 0, 55, 64
4, 1872, Note_on_c, 0, 43, 64
4, 1961, Note_on_c, 0, 55, 0
4, 1961, Note_on_c, 0, 43, 0
4, 1968, Note_on_c, 0, 57, 64
4, 1968, Note_on_c, 0, 45, 64
4, 2013, Note_on_c, 0, 57, 0
4, 2013, Note_on_c, 0, 45, 0
4, 2016, Note_on_c, 0, 59, 64
4, 2016, Note_on_c, 0, 47, 64
4, 2105, Note_on_c, 0, 59, 0
4, 2105, Note_on_c, 0, 47, 0
4, 2112, Note_on_c, 0, 60, 64
4, 2112, Note_on_c, 0, 48, 64
4, 2157, Note_on_c, 0, 60, 0
4, 2157, Note_on_c, 0, 48, 0
4, 2160, Note_on_c, 0, 59, 64
4, 2205, Note_on_c, 0, 59, 0
4, 2208, Note_on_c, 0, 62, 64
4, 2253, Note_on_c, 0, 62, 0
4, 2256, Note_on_c, 0, 50, 64
4, 2301, Note_on_c, 0, 50, 0
4, 2304, Note_on_c, 0, 55, 64
4, 2349, Note_on_c, 0, 55, 0
4, 2352, Note_on_c, 0, 43, 64
4, 2397, Note_on_c, 0, 43, 0
4, 2448, Note_on_c, 0, 60, 64
4, 2448, Note_on_c, 0, 48, 64
4, 2537, Note_on_c, 0, 60, 0
4, 2537, Note_on_c, 0, 48, 0
4, 2544, Note_on_c, 0, 59, 64
4, 2544, Note_on_c, 0, 47, 64
4, 2589, Note_on_c, 0, 59, 0
4, 2589, Note_on_c, 0, 47, 0
4, 2592, Note_on_c, 0, 54, 64
4, 2592, Note_on_c, 0, 42, 64
4, 2681, Note_on_c, 0, 54, 0
4, 2681, Note_on_c, 0, 42, 0
4, 2688, Note_on_c, 0, 55, 64
4, 2688, Note_on_c, 0, 43, 64
4, 2733, Note_on_c, 0, 55, 0
4, 2733, Note_on_c, 0, 43, 0
4, 2736, Note_on_c, 0, 60, 64
4, 2736, Note_on_c, 0, 48, 64
4, 2825, Note_on_c, 0, 60, 0
4, 2825, Note_on_c, 0, 48, 0
4, 2832, Note_on_c, 0, 59, 64
4, 2832, Note_on_c, 0, 47, 64
4, 2877, Note_on_c, 0, 59, 0
4, 2877, Note_on_c, 0, 47, 0
4, 2880, Note_on_c, 0, 54, 64
4, 2880, Note_on_c, 0, 42, 64
4, 2969, Note_on_c, 0, 54, 0
4, 2969, Note_on_c, 0, 42, 0
4, 2976, Note_on_c, 0, 55, 64
4, 2976, Note_on_c, 0, 43, 64
4, 3021, Note_on_c, 0, 55, 0
4, 3021, Note_on_c, 0, 43, 0
4, 3024, Note_on_c, 0, 59, 64
4, 3024, Note_on_c, 0, 47, 64
4, 3113, Note_on_c, 0, 59, 0
4, 3113, Note_on_c, 0, 47, 0
4, 3120, Note_on_c, 0, 59, 64
4, 3120, Note_on_c, 0, 47, 64
4, 3165, Note_on_c, 0, 59, 0
4, 3165, Note_on_c, 0, 47, 0
4, 3168, Note_on_c, 0, 60, 64
4, 3168, Note_on_c, 0, 48, 64
4, 3257, Note_on_c, 0, 60, 0
4, 3257, Note_on_c, 0, 48, 0
4, 3264, Note_on_c, 0, 59, 64
4, 3264, Note_on_c, 0, 47, 64
4, 3309, Note_on_c, 0, 59, 0
4, 3309, Note_on_c, 0, 47, 0
4, 3312, Note_on_c, 0, 57, 64
4, 3357, Note_on_c, 0, 57, 0
4, 3360, Note_on_c, 0, 54, 64
4, 3405, Note_on_c, 0, 54, 0
4, 3408, Note_on_c, 0, 55, 64
4, 3453, Note_on_c, 0, 55, 0
4, 3456, Note_on_c, 0, 50, 64
4, 3501, Note_on_c, 0, 50, 0
4, 3504, Note_on_c, 0, 38, 64
4, 3549, Note_on_c, 0, 38, 0
4, 3600, Note_on_c, 0, 55, 64
4, 3600, Note_on_c, 0, 43, 64
4, 3689, Note_on_c, 0, 55, 0
4, 3689, Note_on_c, 0, 43, 0
4, 3696, Note_on_c, 0, 57, 64
4, 3696, Note_on_c, 0, 45, 64
4, 3741, Note_on_c, 0, 57, 0
4, 3741, Note_on_c, 0, 45, 0
4, 3744, Note_on_c, 0, 59, 64
4, 3744, Note_on_c, 0, 47, 64
4, 3833, Note_on_c, 0, 59, 0
4, 3833, Note_on_c, 0, 47, 0
4, 3840, Note_on_c, 0, 60, 64
4, 3840, Note_on_c, 0, 48, 64
4, 3885, Note_on_c, 0, 60, 0
4, 3885, Note_on_c, 0, 48, 0
4, 3888, Note_on_c, 0, 62, 64
4, 3888, Note_on_c, 0, 50, 64
4, 3977, Note_on_c, 0, 62, 0
4, 3977, Note_on_c, 0, 50, 0
4, 3984, Note_on_c, 0, 54, 64
4, 4029, Note_on_c, 0, 54, 0
4, 4032, Note_on_c, 0, 55, 64
4, 4077, Note_on_c, 0, 55, 0
4, 4080, Note_on_c, 0, 43, 64
4, 4125, Note_on_c, 0, 43, 0
4, 4176, Note_on_c, 0, 55, 64
4, 4176, Note_on_c, 0, 43, 64
4, 4265, Note_on_c, 0, 55, 0
4, 4265, Note_on_c, 0, 43, 0
4, 4272, Note_on_c, 0, 57, 64
4, 4272, Note_on_c, 0, 45, 64
4, 4317, Note_on_c, 0, 57, 0
4, 4317, Note_on_c, 0, 45, 0
4, 4320, Note_on_c, 0, 59, 64
4, 4320, Note_on_c, 0, 47, 64
4, 4409, Note_on_c, 0, 59, 0
4, 4409, Note_on_c, 0, 47, 0
4, 4416, Note_on_c, 0, 60, 64
4, 4416, Note_on_c, 0, 48, 64
4, 4461, Note_on_c, 0, 60, 0
4, 4461, Note_on_c, 0, 48, 0
4, 4464, Note_on_c, 0, 59, 64
4, 4509, Note_on_c, 0, 59, 0
4, 4512, Note_on_c, 0, 62, 64
4, 4557, Note_on_c, 0, 62, 0
4, 4560, Note_on_c, 0, 50, 64
4, 4605, Note_on_c, 0, 50, 0
4, 4608, Note_on_c, 0, 55, 64
4, 4653, Note_on_c, 0, 55, 0
4, 4656, Note_on_c, 0, 43, 64
4, 4701, Note_on_c, 0, 43, 0
4, 4752, Note_on_c, 0, 60, 64
4, 4752, Note_on_c, 0, 48, 64
4, 4841, Note_on_c, 0, 60, 0
4, 4841, Note_on_c, 0, 48, 0
4, 4848, Note_on_c, 0, 59, 64
4, 4848, Note_on_c, 0, 47, 64
4, 4893, Note_on_c, 0, 59, 0
4, 4893, Note_on_c, 0, 47, 0
4, 4896, Note_on_c, 0, 54, 64
4, 4896, Note_on_c, 0, 42, 64
4, 4985, Note_on_c, 0, 54, 0
4, 4985, Note_on_c, 0, 42, 0
4, 4992, Note_on_c, 0, 55, 64
4, 4992, Note_on_c, 0, 43, 64
4, 5037, Note_on_c, 0, 55, 0
4, 5037, Note_on_c, 0, 43, 0
4, 5040, Note_on_c, 0, 60, 64
4, 5040, Note_on_c, 0, 48, 64
4, 5129, Note_on_c, 0, 60, 0
4, 5129, Note_on_c, 0, 48, 0
4, 5136, Note_on_c, 0, 59, 64
4, 5136, Note_on_c, 0, 47, 64
4, 5181, Note_on_c, 0, 59, 0
4, 5181, Note_on_c, 0, 47, 0
4, 5184, Note_on_c, 0, 54, 64
4, 5184, Note_on_c, 0, 42, 64
4, 5273, Note_on_c, 0, 54, 0
4, 5273, Note_on_c, 0, 42, 0
4, 5280, Note_on_c, 0, 55, 64
4, 5280, Note_on_c, 0, 43, 64
4, 5325, Note_on_c, 0, 55, 0
4, 5325, Note_on_c, 0, 43, 0
4, 5328, Note_on_c, 0, 59, 64
4, 5328, Note_on_c, 0, 47, 64
4, 5417, Note_on_c, 0, 59, 0
4, 5417, Note_on_c, 0, 47, 0
4, 5424, Note_on_c, 0, 59, 64
4, 5424, Note_on_c, 0, 47, 64
4, 5469, Note_on_c, 0, 59, 0
4, 5469, Note_on_c, 0, 47, 0
4, 5472, Note_on_c, 0, 60, 64
4, 5472, Note_on_c, 0, 48, 64
4, 5561, Note_on_c, 0, 60, 0
4, 5561, Note_on_c, 0, 48, 0
4, 5568, Note_on_c, 0, 59, 64
4, 5568, Note_on_c, 0, 47, 64
4, 5613, Note_on_c, 0, 59, 0
4, 5613, Note_on_c, 0, 47, 0
4, 5616, Note_on_c, 0, 57, 64
4, 5661, Note_on_c, 0, 57, 0
4, 5664, Note_on_c, 0, 54, 64
4, 5709, Note_on_c, 0, 54, 0
4, 5712, Note_on_c, 0, 55, 64
4, 5757, Note_on_c, 0, 55, 0
4, 5760, Note_on_c, 0, 50, 64
4, 5805, Note_on_c, 0, 50, 0
4, 5808, Note_on_c, 0, 38, 64
4, 5853, Note_on_c, 0, 38, 0
4, 5904, Note_on_c, 0, 55, 64
4, 5904, Note_on_c, 0, 43, 64
4, 5993, Note_on_c, 0, 55, 0
4, 5993, Note_on_c, 0, 43, 0
4, 6000, Note_on_c, 0, 57, 64
4, 6000, Note_on_c, 0, 45, 64
4, 6045, Note_on_c, 0, 57, 0
4, 6045, Note_on_c, 0, 45, 0
4, 6048, Note_on_c, 0, 59, 64
4, 6048, Note_on_c, 0, 47, 64
4, 6137, Note_on_c, 0, 59, 0
4, 6137, Note_on_c, 0, 47, 0
4, 6144, Note_on_c, 0, 60, 64
4, 6144, Note_on_c, 0, 48, 64
4, 6189, Note_on_c, 0, 60, 0
4, 6189, Note_on_c, 0, 48, 0
4, 6192, Note_on_c, 0, 62, 64
4, 6192, Note_on_c, 0, 50, 64
4, 6281, Note_on_c, 0, 62, 0
4, 6281, Note_on_c, 0, 50, 0
4, 6288, Note_on_c, 0, 54, 64
4, 6333, Note_on_c, 0, 54, 0
4, 6336, Note_on_c, 0, 55, 64
4, 6381, Note_on_c, 0, 55, 0
4, 6384, Note_on_c, 0, 43, 64
4, 6429, Note_on_c, 0, 43, 0
4, 6480, Note_on_c, 0, 55, 64
4, 6480, Note_on_c, 0, 43, 64
4, 6569, Note_on_c, 0, 55, 0
4, 6569, Note_on_c, 0, 43, 0
4, 6576, Note_on_c, 0, 57, 64
4, 6576, Note_on_c, 0, 45, 64
4, 6621, Note_on_c, 0, 57, 0
4, 6621, Note_on_c, 0, 45, 0
4, 6624, Note_on_c, 0, 59, 64
4, 6624, Note_on_c, 0, 47, 64
4, 6713, Note_on_c, 0, 59, 0
4, 6713, Note_on_c, 0, 47, 0
4, 6720, Note_on_c, 0, 60, 64
4, 6720, Note_on_c, 0, 48, 64
4, 6765, Note_on_c, 0, 60, 0
4, 6765, Note_on_c, 0, 48, 0
4, 6768, Note_on_c, 0, 59, 64
4, 6813, Note_on_c, 0, 59, 0
4, 6816, Note_on_c, 0, 62, 64
4, 6861, Note_on_c, 0, 62, 0
4, 6864, Note_on_c, 0, 50, 64
4, 6909, Note_on_c, 0, 50, 0
4, 6912, Note_on_c, 0, 55, 64
4, 6957, Note_on_c, 0, 55, 0
4, 6960, Note_on_c, 0, 43, 64
4, 7005, Note_on_c, 0, 43, 0
4, 7680, Note_on_c, 0, 64, 64
4, 7680, Note_on_c, 0, 55, 64
4, 7725, Note_on_c, 0, 64, 0
4, 7725, Note_on_c, 0, 55, 0
4, 7728, Note_on_c, 0, 64, 64
4, 7728, Note_on_c, 0, 55, 64
4, 7773, Note_on_c, 0, 64, 0
4, 7773, Note_on_c, 0, 55, 0
4, 7824, Note_on_c, 0, 62, 64
4, 7824, Note_on_c, 0, 53, 64
4, 7869, Note_on_c, 0, 62, 0
4, 7869, Note_on_c, 0, 53, 0
4, 7872, Note_on_c, 0, 62, 64
4, 7872, Note_on_c, 0, 53, 64
4, 7917, Note_on_c, 0, 62, 0
4, 7917, Note_on_c, 0, 53, 0
4, 7920, Note_on_c, 0, 55, 64
4, 7965, Note_on_c, 0, 55, 0
4, 7968, Note_on_c, 0, 57, 64
4, 8013, Note_on_c, 0, 57, 0
4, 8016, Note_on_c, 0, 45, 64
4, 8061, Note_on_c, 0, 45, 0
4, 8064, Note_on_c, 0, 50, 64
4, 8109, Note_on_c, 0, 50, 0
4, 8112, Note_on_c, 0, 38, 64
4, 8157, Note_on_c, 0, 38, 0
4, 8832, Note_on_c, 0, 64, 64
4, 8832, Note_on_c, 0, 55, 64
4, 8877, Note_on_c, 0, 64, 0
4, 8877, Note_on_c, 0, 55, 0
4, 8880, Note_on_c, 0, 64, 64
4, 8880, Note_on_c, 0, 55, 64
4, 8925, Note_on_c, 0, 64, 0
4, 8925, Note_on_c, 0, 55, 0
4, 8976, Note_on_c, 0, 62, 64
4, 8976, Note_on_c, 0, 53, 64
4, 9021, Note_on_c, 0, 62, 0
4, 9021, Note_on_c, 0, 53, 0
4, 9024, Note_on_c, 0, 62, 64
4, 9024, Note_on_c, 0, 53, 64
4, 9069, Note_on_c, 0, 62, 0
4, 9069, Note_on_c, 0, 53, 0
4, 9072, Note_on_c, 0, 55, 64
4, 9117, Note_on_c, 0, 55, 0
4, 9120, Note_on_c, 0, 57, 64
4, 9165, Note_on_c, 0, 57, 0
4, 9168, Note_on_c, 0, 45, 64
4, 9213, Note_on_c, 0, 45, 0
4, 9216, Note_on_c, 0, 50, 64
4, 9261, Note_on_c, 0, 50, 0
4, 9264, Note_on_c, 0, 38, 64
4, 9309, Note_on_c, 0, 38, 0
4, 9360, Note_on_c, 0, 50, 64
4, 9360, Note_on_c, 0, 38, 64
4, 9449, Note_on_c, 0, 50, 0
4, 9449, Note_on_c, 0, 38, 0
4, 9504, Note_on_c, 0, 46, 64
4, 9504, Note_on_c, 0, 34, 64
4, 9593, Note_on_c, 0, 46, 0
4, 9593, Note_on_c, 0, 34, 0
4, 9696, Note_on_c, 0, 42, 64
4, 9741, Note_on_c, 0, 42, 0
4, 9744, Note_on_c, 0, 43, 64
4, 9789, Note_on_c, 0, 43, 0
4, 9792, Note_on_c, 0, 50, 64
4, 9837, Note_on_c, 0, 50, 0
4, 9840, Note_on_c, 0, 38, 64
4, 9885, Note_on_c, 0, 38, 0
4, 9984, Note_on_c, 0, 54, 64
4, 9984, Note_on_c, 0, 42, 64
4, 10029, Note_on_c, 0, 54, 0
4, 10029, Note_on_c, 0, 42, 0
4, 10032, Note_on_c, 0, 55, 64
4, 10032, Note_on_c, 0, 43, 64
4, 10077, Note_on_c, 0, 55, 0
4, 10077, Note_on_c, 0, 43, 0
4, 10080, Note_on_c, 0, 50, 64
4, 10125, Note_on_c, 0, 50, 0
4, 10128, Note_on_c, 0, 38, 64
4, 10173, Note_on_c, 0, 38, 0
4, 10272, Note_on_c, 0, 42, 64
4, 10317, Note_on_c, 0, 42, 0
4, 10320, Note_on_c, 0, 43, 64
4, 10365, Note_on_c, 0, 43, 0
4, 10368, Note_on_c, 0, 50, 64
4, 10413, Note_on_c, 0, 50, 0
4, 10416, Note_on_c, 0, 38, 64
4, 10461, Note_on_c, 0, 38, 0
4, 11136, Note_on_c, 0, 58, 64
4, 11181, Note_on_c, 0, 58, 0
4, 11184, Note_on_c, 0, 58, 64
4, 11229, Note_on_c, 0, 58, 0
4, 11280, Note_on_c, 0, 48, 64
4, 11325, Note_on_c, 0, 48, 0
4, 11328, Note_on_c, 0, 48, 64
4, 11373, Note_on_c, 0, 48, 0
4, 11376, Note_on_c, 0, 46, 64
4, 11421, Note_on_c, 0, 46, 0
4, 11424, Note_on_c, 0, 50, 64
4, 11469, Note_on_c, 0, 50, 0
4, 11472, Note_on_c, 0, 38, 64
4, 11517, Note_on_c, 0, 38, 0
4, 11520, Note_on_c, 0, 43, 64
4, 11565, Note_on_c, 0, 43, 0
4, 11568, Note_on_c, 0, 31, 64
4, 11613, Note_on_c, 0, 31, 0
4, 11664, Note_on_c, 0, 50, 64
4, 11664, Note_on_c, 0, 38, 64
4, 11753, Note_on_c, 0, 50, 0
4, 11753, Note_on_c, 0, 38, 0
4, 11808, Note_on_c, 0, 46, 64
4, 11808, Note_on_c, 0, 34, 64
4, 11897, Note_on_c, 0, 46, 0
4, 11897, Note_on_c, 0, 34, 0
4, 12000, Note_on_c, 0, 42, 64
4, 12045, Note_on_c, 0, 42, 0
4, 12048, Note_on_c, 0, 43, 64
4, 12093, Note_on_c, 0, 43, 0
4, 12096, Note_on_c, 0, 50, 64
4, 12141, Note_on_c, 0, 50, 0
4, 12144, Note_on_c, 0, 38, 64
4, 12189, Note_on_c, 0, 38, 0
4, 12288, Note_on_c, 0, 54, 64
4, 12288, Note_on_c, 0, 42, 64
4, 12333, Note_on_c, 0, 54, 0
4, 12333, Note_on_c, 0, 42, 0
4, 12336, Note_on_c, 0, 55, 64
4, 12336, Note_on_c, 0, 43, 64
4, 12381, Note_on_c, 0, 55, 0
4, 12381, Note_on_c, 0, 43, 0
4, 12384, Note_on_c, 0, 50, 64
4, 12429, Note_on_c, 0, 50, 0
4, 12432, Note_on_c, 0, 38, 64
4, 12477, Note_on_c, 0, 38, 0
4, 12576, Note_on_c, 0, 42, 64
4, 12621, Note_on_c, 0, 42, 0
4, 12624, Note_on_c, 0, 43, 64
4, 12669, Note_on_c, 0, 43, 0
4, 12672, Note_on_c, 0, 50, 64
4, 12717, Note_on_c, 0, 50, 0
4, 12720, Note_on_c, 0, 38, 64
4, 12765, Note_on_c, 0, 38, 0
4, 13440, Note_on_c, 0, 58, 64
4, 13485, Note_on_c, 0, 58, 0
4, 13488, Note_on_c, 0, 58, 64
4, 13533, Note_on_c, 0, 58, 0
4, 13584, Note_on_c, 0, 48, 64
4, 13629, Note_on_c, 0, 48, 0
4, 13632, Note_on_c, 0, 48, 64
4, 13677, Note_on_c, 0, 48, 0
4, 13680, Note_on_c, 0, 46, 64
4, 13725, Note_on_c, 0, 46, 0
4, 13728, Note_on_c, 0, 50, 64
4, 13773, Note_on_c, 0, 50, 0
4, 13776, Note_on_c, 0, 38, 64
4, 13821, Note_on_c, 0, 38, 0
4, 13824, Note_on_c, 0, 43, 64
4, 13869, Note_on_c, 0, 43, 0
4, 13872, Note_on_c, 0, 31, 64
4, 13917, Note_on_c, 0, 31, 0
4, 13968, Note_on_c, 0, 55, 64
4, 13968, Note_on_c, 0, 43, 64
4, 14057, Note_on_c, 0, 55, 0
4, 14057, Note_on_c, 0, 43, 0
4, 14064, Note_on_c, 0, 57, 64
4, 14064, Note_on_c, 0, 45, 64
4, 14109, Note_on_c, 0, 57, 0
4, 14109, Note_on_c, 0, 45, 0
4, 14112, Note_on_c, 0, 59, 64
4, 14112, Note_on_c, 0, 47, 64
4, 14201, Note_on_c, 0, 59, 0
4, 14201, Note_on_c, 0, 47, 0
4, 14208, Note_on_c, 0, 60, 64
4, 14208, Note_on_c, 0, 48, 64
4, 14253, Note_on_c, 0, 60, 0
4, 14253, Note_on_c, 0, 48, 0
4, 14256, Note_on_c, 0, 62, 64
4, 14256, Note_on_c, 0, 50, 64
4, 14345, Note_on_c, 0, 62, 0
4, 14345, Note_on_c, 0, 50, 0
4, 14352, Note_on_c, 0, 54, 64
4, 14397, Note_on_c, 0, 54, 0
4, 14400, Note_on_c, 0, 55, 64
4, 14445, Note_on_c, 0, 55, 0
4, 14448, Note_on_c, 0, 43, 64
4, 14493, Note_on_c, 0, 43, 0
4, 14544, Note_on_c, 0, 55, 64
4, 14544, Note_on_c, 0, 43, 64
4, 14633, Note_on_c, 0, 55, 0
4, 14633, Note_on_c, 0, 43, 0
4, 14640, Note_on_c, 0, 57, 64
4, 14640, Note_on_c, 0, 45, 64
4, 14685, Note_on_c, 0, 57, 0
4, 14685, Note_on_c, 0, 45, 0
4, 14688, Note_on_c, 0, 59, 64
4, 14688, Note_on_c, 0, 47, 64
4, 14777, Note_on_c, 0, 59, 0
4, 14777, Note_on_c, 0, 47, 0
4, 14784, Note_on_c, 0, 60, 64
4, 14784, Note_on_c, 0, 48, 64
4, 14829, Note_on_c, 0, 60, 0
4, 14829, Note_on_c, 0, 48, 0
4, 14832, Note_on_c, 0, 59, 64
4, 14877, Note_on_c, 0, 59, 0
4, 14880, Note_on_c, 0, 62, 64
4, 14925, Note_on_c, 0, 62, 0
4, 14928, Note_on_c, 0, 50, 64
4, 14973, Note_on_c, 0, 50, 0
4, 14976, Note_on_c, 0, 55, 64
4, 15021, Note_on_c, 0, 55, 0
4, 15024, Note_on_c, 0, 43, 64
4, 15069, Note_on_c, 0, 43, 0
4, 15120, Note_on_c, 0, 55, 64
4, 15120, Note_on_c, 0, 43, 64
4, 15209, Note_on_c, 0, 55, 0
4, 15209, Note_on_c, 0, 43, 0
4, 15216, Note_on_c, 0, 57, 64
4, 15216, Note_on_c, 0, 45, 64
4, 15261, Note_on_c, 0, 57, 0
4, 15261, Note_on_c, 0, 45, 0
4, 15264, Note_on_c, 0, 59, 64
4, 15264, Note_on_c, 0, 47, 64
4, 15353, Note_on_c, 0, 59, 0
4, 15353, Note_on_c, 0, 47, 0
4, 15360, Note_on_c, 0, 60, 64
4, 15360, Note_on_c, 0, 48, 64
4, 15405, Note_on_c, 0, 60, 0
4, 15405, Note_on_c, 0, 48, 0
4, 15408, Note_on_c, 0, 62, 64
4, 15408, Note_on_c, 0, 50, 64
4, 15497, Note_on_c, 0, 62, 0
4, 15497, Note_on_c, 0, 50, 0
4, 15504, Note_on_c, 0, 54, 64
4, 15549, Note_on_c, 0, 54, 0
4, 15552, Note_on_c, 0, 55, 64
4, 15597, Note_on_c, 0, 55, 0
4, 15600, Note_on_c, 0, 43, 64
4, 15645, Note_on_c, 0, 43, 0
4, 15696, Note_on_c, 0, 55, 64
4, 15696, Note_on_c, 0, 43, 64
4, 15785, Note_on_c, 0, 55, 0
4, 15785, Note_on_c, 0, 43, 0
4, 15792, Note_on_c, 0, 57, 64
4, 15792, Note_on_c, 0, 45, 64
4, 15837, Note_on_c, 0, 57, 0
4, 15837, Note_on_c, 0, 45, 0
4, 15840, Note_on_c, 0, 59, 64
4, 15840, Note_on_c, 0, 47, 64
4, 15929, Note_on_c, 0, 59, 0
4, 15929, Note_on_c, 0, 47, 0
4, 15936, Note_on_c, 0, 60, 64
4, 15936, Note_on_c, 0, 48, 64
4, 15981, Note_on_c, 0, 60, 0
4, 15981, Note_on_c, 0, 48, 0
4, 15984, Note_on_c, 0, 59, 64
4, 16029, Note_on_c, 0, 59, 0
4, 16032, Note_on_c, 0, 62, 64
4, 16077, Note_on_c, 0, 62, 0
4, 16080, Note_on_c, 0, 50, 64
4, 16125, Note_on_c, 0, 50, 0
4, 16128, Note_on_c, 0, 55, 64
4, 16173, Note_on_c, 0, 55, 0
4, 16176, Note_on_c, 0, 43, 64
4, 16221, Note_on_c, 0, 43, 0
4, 16272, Note_on_c, 0, 60, 64
4, 16272, Note_on_c, 0, 48, 64
4, 16361, Note_on_c, 0, 60, 0
4, 16361, Note_on_c, 0, 48, 0
4, 16368, Note_on_c, 0, 59, 64
4, 16368, Note_on_c, 0, 47, 64
4, 16413, Note_on_c, 0, 59, 0
4, 16413, Note_on_c, 0, 47, 0
4, 16416, Note_on_c, 0, 54, 64
4, 16416, Note_on_c, 0, 42, 64
4, 16505, Note_on_c, 0, 54, 0
4, 16505, Note_on_c, 0, 42, 0
4, 16512, Note_on_c, 0, 55, 64
4, 16512, Note_on_c, 0, 43, 64
4, 16557, Note_on_c, 0, 55, 0
4, 16557, Note_on_c, 0, 43, 0
4, 16560, Note_on_c, 0, 60, 64
4, 16560, Note_on_c, 0, 48, 64
4, 16649, Note_on_c, 0, 60, 0
4, 16649, Note_on_c, 0, 48, 0
4, 16656, Note_on_c, 0, 59, 64
4, 16656, Note_on_c, 0, 47, 64
4, 16701, Note_on_c, 0, 59, 0
4, 16701, Note_on_c, 0, 47, 0
4, 16704, Note_on_c, 0, 54, 64
4, 16704, Note_on_c, 0, 42, 64
4, 16793, Note_on_c, 0, 54, 0
4, 16793, Note_on_c, 0, 42, 0
4, 16800, Note_on_c, 0, 55, 64
4, 16800, Note_on_c, 0, 43, 64
4, 16845, Note_on_c, 0, 55, 0
4, 16845, Note_on_c, 0, 43, 0
4, 16848, Note_on_c, 0, 59, 64
4, 16848, Note_on_c, 0, 47, 64
4, 16937, Note_on_c, 0, 59, 0
4, 16937, Note_on_c, 0, 47, 0
4, 16944, Note_on_c, 0, 59, 64
4, 16944, Note_on_c, 0, 47, 64
4, 16989, Note_on_c, 0, 59, 0
4, 16989, Note_on_c, 0, 47, 0
4, 16992, Note_on_c, 0, 60, 64
4, 16992, Note_on_c, 0, 48, 64
4, 17081, Note_on_c, 0, 60, 0
4, 17081, Note_on_c, 0, 48, 0
4, 17088, Note_on_c, 0, 59, 64
4, 17088, Note_on_c, 0, 47, 64
4, 17133, Note_on_c, 0, 59, 0
4, 17133, Note_on_c, 0, 47, 0
4, 17136, Note_on_c, 0, 57, 64
4, 17181, Note_on_c, 0, 57, 0
4, 17184, Note_on_c, 0, 54, 64
4, 17229, Note_on_c, 0, 54, 0
4, 17232, Note_on_c, 0, 55, 64
4, 17277, Note_on_c, 0, 55, 0
4, 17280, Note_on_c, 0, 50, 64
4, 17325, Note_on_c, 0, 50, 0
4, 17328, Note_on_c, 0, 38, 64
4, 17373, Note_on_c, 0, 38, 0
4, 17424, Note_on_c, 0, 55, 64
4, 17424, Note_on_c, 0, 43, 64
4, 17513, Note_on_c, 0, 55, 0
4, 17513, Note_on_c, 0, 43, 0
4, 17520, Note_on_c, 0, 57, 64
4, 17520, Note_on_c, 0, 45, 64
4, 17565, Note_on_c, 0, 57, 0
4, 17565, Note_on_c, 0, 45, 0
4, 17568, Note_on_c, 0, 59, 64
4, 17568, Note_on_c, 0, 47, 64
4, 17657, Note_on_c, 0, 59, 0
4, 17657, Note_on_c, 0, 47, 0
4, 17664, Note_on_c, 0, 60, 64
4, 17664, Note_on_c, 0, 48, 64
4, 17709, Note_on_c, 0, 60, 0
4, 17709, Note_on_c, 0, 48, 0
4, 17712, Note_on_c, 0, 62, 64
4, 17712, Note_on_c, 0, 50, 64
4, 17801, Note_on_c, 0, 62, 0
4, 17801, Note_on_c, 0, 50, 0
4, 17808, Note_on_c, 0, 54, 64
4, 17853, Note_on_c, 0, 54, 0
4, 17856, Note_on_c, 0, 55, 64
4, 17901, Note_on_c, 0, 55, 0
4, 17904, Note_on_c, 0, 43, 64
4, 17949, Note_on_c, 0, 43, 0
4, 18000, Note_on_c, 0, 55, 64
4, 18000, Note_on_c, 0, 43, 64
4, 18089, Note_on_c, 0, 55, 0
4, 18089, Note_on_c, 0, 43, 0
4, 18096, Note_on_c, 0, 57, 64
4, 18096, Note_on_c, 0, 45, 64
4, 18141, Note_on_c, 0, 57, 0
4, 18141, Note_on_c, 0, 45, 0
4, 18144, Note_on_c, 0, 59, 64
4, 18144, Note_on_c, 0, 47, 64
4, 18233, Note_on_c, 0, 59, 0
4, 18233, Note_on_c, 0, 47, 0
4, 18240, Note_on_c, 0, 60, 64
4, 18240, Note_on_c, 0, 48, 64
4, 18285, Note_on_c, 0, 60, 0
4, 18285, Note_on_c, 0, 48, 0
4, 18288, Note_on_c, 0, 59, 64
4, 18333, Note_on_c, 0, 59, 0
4, 18336, Note_on_c, 0, 62, 64
4, 18381, Note_on_c, 0, 62, 0
4, 18384, Note_on_c, 0, 50, 64
4, 18429, Note_on_c, 0, 50, 0
4, 18432, Note_on_c, 0, 55, 64
4, 18477, Note_on_c, 0, 55, 0
4, 18480, Note_on_c, 0, 43, 64
4, 18525, Note_on_c, 0, 43, 0
4, 18576, Note_on_c, 0, 60, 64
4, 18576, Note_on_c, 0, 48, 64
4, 18665, Note_on_c, 0, 60, 0
4, 18665, Note_on_c, 0, 48, 0
4, 18672, Note_on_c, 0, 59, 64
4, 18672, Note_on_c, 0, 47, 64
4, 18717, Note_on_c, 0, 59, 0
4, 18717, Note_on_c, 0, 47, 0
4, 18720, Note_on_c, 0, 54, 64
4, 18720, Note_on_c, 0, 42, 64
4, 18809, Note_on_c, 0, 54, 0
4, 18809, Note_on_c, 0, 42, 0
4, 18816, Note_on_c, 0, 55, 64
4, 18816, Note_on_c, 0, 43, 64
4, 18861, Note_on_c, 0, 55, 0
4, 18861, Note_on_c, 0, 43, 0
4, 18864, Note_on_c, 0, 60, 64
4, 18864, Note_on_c, 0, 48, 64
4, 18953, Note_on_c, 0, 60, 0
4, 18953, Note_on_c, 0, 48, 0
4, 18960, Note_on_c, 0, 59, 64
4, 18960, Note_on_c, 0, 47, 64
4, 19005, Note_on_c, 0, 59, 0
4, 19005, Note_on_c, 0, 47, 0
4, 19008, Note_on_c, 0, 54, 64
4, 19008, Note_on_c, 0, 42, 64
4, 19097, Note_on_c, 0, 54, 0
4, 19097, Note_on_c, 0, 42, 0
4, 19104, Note_on_c, 0, 55, 64
4, 19104, Note_on_c, 0, 43, 64
4, 19149, Note_on_c, 0, 55, 0
4, 19149, Note_on_c, 0, 43, 0
4, 19152, Note_on_c, 0, 59, 64
4, 19152, Note_on_c, 0, 47, 64
4, 19241, Note_on_c, 0, 59, 0
4, 19241, Note_on_c, 0, 47, 0
4, 19248, Note_on_c, 0, 59, 64
4, 19248, Note_on_c, 0, 47, 64
4, 19293, Note_on_c, 0, 59, 0
4, 19293, Note_on_c, 0, 47, 0
4, 19296, Note_on_c, 0, 60, 64
4, 19296, Note_on_c, 0, 48, 64
4, 19385, Note_on_c, 0, 60, 0
4, 19385, Note_on_c, 0, 48, 0
4, 19392, Note_on_c, 0, 59, 64
4, 19392, Note_on_c, 0, 47, 64
4, 19437, Note_on_c, 0, 59, 0
4, 19437, Note_on_c, 0, 47, 0
4, 19440, Note_on_c, 0, 57, 64
4, 19485, Note_on_c, 0, 57, 0
4, 19488, Note_on_c, 0, 54, 64
4, 19533, Note_on_c, 0, 54, 0
4, 19536, Note_on_c, 0, 55, 64
4, 19581, Note_on_c, 0, 55, 0
4, 19584, Note_on_c, 0, 50, 64
4, 19629, Note_on_c, 0, 50, 0
4, 19632, Note_on_c, 0, 38, 64
4, 19677, Note_on_c, 0, 38, 0
4, 19728, Note_on_c, 0, 55, 64
4, 19728, Note_on_c, 0, 43, 64
4, 19817, Note_on_c, 0, 55, 0
4, 19817, Note_on_c, 0, 43, 0
4, 19824, Note_on_c, 0, 57, 64
4, 19824, Note_on_c, 0, 45, 64
4, 19869, Note_on_c, 0, 57, 0
4, 19869, Note_on_c, 0, 45, 0
4, 19872, Note_on_c, 0, 59, 64
4, 19872, Note_on_c, 0, 47, 64
4, 19961, Note_on_c, 0, 59, 0
4, 19961, Note_on_c, 0, 47, 0
4, 19968, Note_on_c, 0, 60, 64
4, 19968, Note_on_c, 0, 48, 64
4, 20013, Note_on_c, 0, 60, 0
4, 20013, Note_on_c, 0, 48, 0
4, 20016, Note_on_c, 0, 62, 64
4, 20016, Note_on_c, 0, 50, 64
4, 20105, Note_on_c, 0, 62, 0
4, 20105, Note_on_c, 0, 50, 0
4, 20112, Note_on_c, 0, 54, 64
4, 20157, Note_on_c, 0, 54, 0
4, 20160, Note_on_c, 0, 55, 64
4, 20205, Note_on_c, 0, 55, 0
4, 20208, Note_on_c, 0, 43, 64
4, 20253, Note_on_c, 0, 43, 0
4, 20304, Note_on_c, 0, 55, 64
4, 20304, Note_on_c, 0, 43, 64
4, 20393, Note_on_c, 0, 55, 0
4, 20393, Note_on_c, 0, 43, 0
4, 20400, Note_on_c, 0, 57, 64
4, 20400, Note_on_c, 0, 45, 64
4, 20445, Note_on_c, 0, 57, 0
4, 20445, Note_on_c, 0, 45, 0
4, 20448, Note_on_c, 0, 59, 64
4, 20448, Note_on_c, 0, 47, 64
4, 20537, Note_on_c, 0, 59, 0
4, 20537, Note_on_c, 0, 47, 0
4, 20544, Note_on_c, 0, 60, 64
4, 20544, Note_on_c, 0, 48, 64
4, 20589, Note_on_c, 0, 60, 0
4, 20589, Note_on_c, 0, 48, 0
4, 20592, Note_on_c, 0, 59, 64
4, 20637, Note_on_c, 0, 59, 0
4, 20640, Note_on_c, 0, 62, 64
4, 20685, Note_on_c, 0, 62, 0
4, 20688, Note_on_c, 0, 50, 64
4, 20733, Note_on_c, 0, 50, 0
4, 20736, Note_on_c, 0, 55, 64
4, 20781, Note_on_c, 0, 55, 0
4, 20784, Note_on_c, 0, 43, 64
4, 20829, Note_on_c, 0, 43, 0
4, 20880, Note_on_c, 0, 43, 0
4, 20969, Note_on_c, 0, 43, 0
4, 21024, End_track
5, 0, Start_track
5, 0, Title_t, "<No Title>"
5, 0, End_track
0, 0, End_of_file
