0, 0, Header, 1, 3, 120
1, 0, Start_track
1, 0, Title_t, "untitled"
1, 0, Copyright_t, "Copyright(C)2002 Shin"
1, 0, Text_t, "Shin\012"
1, 0, System_exclusive, 5, 126, 127, 9, 1, 247
1, 0, Time_signature, 4, 2, 24, 8
1, 0, Key_signature, 0, "major"
1, 0, Tempo, 375000
1, 17280, Tempo, 428571
1, 17760, Tempo, 375000
1, 33000, Tempo, 375000
1, 49440, Tempo, 428571
1, 49920, Tempo, 375000
1, 66240, Tempo, 428571
1, 66720, Tempo, 500000
1, 67080, Tempo, 375000
1, 80160, Tempo, 428571
1, 80640, Tempo, 1000000
1, 81120, Tempo, 400000
1, 81600, Tempo, 428571
1, 81960, Tempo, 600000
1, 82080, Tempo, 600000
1, 82440, Tempo, 375000
1, 93480, Tempo, 375000
1, 93600, Tempo, 375000
1, 105120, Tempo, 428571
1, 105360, Tempo, 1000000
1, 105600, Tempo, 375000
1, 105600, End_track
2, 0, Start_track
2, 120, Control_c, 0, 0, 81
2, 120, Control_c, 0, 91, 125
2, 121, Control_c, 0, 32, 3
2, 122, Program_c, 0, 0
2, 123, Control_c, 0, 7, 127
2, 840, Note_on_c, 0, 72, 53
2, 930, Note_on_c, 0, 72, 0
2, 930, Note_on_c, 0, 76, 53
2, 960, Note_on_c, 0, 76, 0
2, 960, Note_on_c, 0, 79, 53
2, 990, Note_on_c, 0, 79, 0
2, 1080, Note_on_c, 0, 79, 53
2, 1110, Note_on_c, 0, 79, 0
2, 1200, Note_on_c, 0, 79, 53
2, 1230, Note_on_c, 0, 79, 0
2, 1320, Note_on_c, 0, 83, 53
2, 1330, Note_on_c, 0, 84, 53
2, 1350, Note_on_c, 0, 83, 0
2, 1440, Note_on_c, 0, 84, 0
2, 1440, Note_on_c, 0, 79, 53
2, 1470, Note_on_c, 0, 79, 0
2, 1560, Note_on_c, 0, 79, 53
2, 1590, Note_on_c, 0, 79, 0
2, 1680, Note_on_c, 0, 79, 53
2, 1710, Note_on_c, 0, 79, 0
2, 1800, Note_on_c, 0, 76, 53
2, 1890, Note_on_c, 0, 76, 0
2, 1890, Note_on_c, 0, 72, 53
2, 1920, Note_on_c, 0, 72, 0
2, 1920, Note_on_c, 0, 71, 53
2, 1950, Note_on_c, 0, 71, 0
2, 2040, Note_on_c, 0, 71, 51
2, 2070, Note_on_c, 0, 71, 0
2, 2160, Note_on_c, 0, 72, 49
2, 2190, Note_on_c, 0, 72, 0
2, 2280, Note_on_c, 0, 72, 47
2, 2310, Note_on_c, 0, 72, 0
2, 2400, Note_on_c, 0, 74, 46
2, 2520, Note_on_c, 0, 74, 0
2, 2760, Note_on_c, 0, 67, 44
2, 2850, Note_on_c, 0, 67, 0
2, 2850, Note_on_c, 0, 74, 44
2, 2880, Note_on_c, 0, 74, 0
2, 2880, Note_on_c, 0, 77, 44
2, 2910, Note_on_c, 0, 77, 0
2, 3000, Note_on_c, 0, 77, 45
2, 3090, Note_on_c, 0, 77, 0
2, 3090, Note_on_c, 0, 79, 45
2, 3120, Note_on_c, 0, 79, 0
2, 3120, Note_on_c, 0, 76, 45
2, 3150, Note_on_c, 0, 76, 0
2, 3240, Note_on_c, 0, 76, 45
2, 3330, Note_on_c, 0, 76, 0
2, 3330, Note_on_c, 0, 77, 45
2, 3360, Note_on_c, 0, 77, 0
2, 3360, Note_on_c, 0, 74, 45
2, 3390, Note_on_c, 0, 74, 0
2, 3480, Note_on_c, 0, 74, 45
2, 3570, Note_on_c, 0, 74, 0
2, 3570, Note_on_c, 0, 76, 45
2, 3600, Note_on_c, 0, 76, 0
2, 3600, Note_on_c, 0, 72, 45
2, 3630, Note_on_c, 0, 72, 0
2, 3720, Note_on_c, 0, 72, 45
2, 3750, Note_on_c, 0, 72, 0
2, 3840, Note_on_c, 0, 74, 45
2, 3870, Note_on_c, 0, 74, 0
2, 3960, Note_on_c, 0, 74, 45
2, 3990, Note_on_c, 0, 74, 0
2, 4080, Note_on_c, 0, 71, 45
2, 4110, Note_on_c, 0, 71, 0
2, 4200, Note_on_c, 0, 71, 45
2, 4230, Note_on_c, 0, 71, 0
2, 4320, Note_on_c, 0, 72, 55
2, 4440, Note_on_c, 0, 72, 0
2, 4680, Note_on_c, 0, 72, 53
2, 4770, Note_on_c, 0, 72, 0
2, 4770, Note_on_c, 0, 76, 53
2, 4800, Note_on_c, 0, 76, 0
2, 4800, Note_on_c, 0, 79, 53
2, 4830, Note_on_c, 0, 79, 0
2, 4920, Note_on_c, 0, 79, 53
2, 4950, Note_on_c, 0, 79, 0
2, 5040, Note_on_c, 0, 79, 53
2, 5070, Note_on_c, 0, 79, 0
2, 5160, Note_on_c, 0, 83, 53
2, 5170, Note_on_c, 0, 84, 53
2, 5190, Note_on_c, 0, 83, 0
2, 5280, Note_on_c, 0, 84, 0
2, 5280, Note_on_c, 0, 79, 53
2, 5310, Note_on_c, 0, 79, 0
2, 5400, Note_on_c, 0, 79, 53
2, 5430, Note_on_c, 0, 79, 0
2, 5520, Note_on_c, 0, 79, 53
2, 5550, Note_on_c, 0, 79, 0
2, 5640, Note_on_c, 0, 77, 53
2, 5670, Note_on_c, 0, 77, 0
2, 5670, Note_on_c, 0, 76, 51
2, 5700, Note_on_c, 0, 76, 0
2, 5700, Note_on_c, 0, 74, 48
2, 5730, Note_on_c, 0, 74, 0
2, 5730, Note_on_c, 0, 72, 46
2, 5760, Note_on_c, 0, 72, 0
2, 5760, Note_on_c, 0, 71, 43
2, 5790, Note_on_c, 0, 71, 0
2, 5880, Note_on_c, 0, 71, 42
2, 5910, Note_on_c, 0, 71, 0
2, 6000, Note_on_c, 0, 72, 42
2, 6030, Note_on_c, 0, 72, 0
2, 6120, Note_on_c, 0, 72, 42
2, 6150, Note_on_c, 0, 72, 0
2, 6240, Note_on_c, 0, 74, 42
2, 6360, Note_on_c, 0, 74, 0
2, 6600, Note_on_c, 0, 67, 44
2, 6690, Note_on_c, 0, 67, 0
2, 6690, Note_on_c, 0, 74, 44
2, 6720, Note_on_c, 0, 74, 0
2, 6720, Note_on_c, 0, 77, 44
2, 6750, Note_on_c, 0, 77, 0
2, 6840, Note_on_c, 0, 77, 45
2, 6930, Note_on_c, 0, 77, 0
2, 6930, Note_on_c, 0, 79, 45
2, 6960, Note_on_c, 0, 79, 0
2, 6960, Note_on_c, 0, 76, 45
2, 6990, Note_on_c, 0, 76, 0
2, 7080, Note_on_c, 0, 76, 45
2, 7170, Note_on_c, 0, 76, 0
2, 7170, Note_on_c, 0, 77, 45
2, 7200, Note_on_c, 0, 77, 0
2, 7200, Note_on_c, 0, 74, 45
2, 7230, Note_on_c, 0, 74, 0
2, 7320, Note_on_c, 0, 74, 45
2, 7410, Note_on_c, 0, 74, 0
2, 7410, Note_on_c, 0, 76, 45
2, 7440, Note_on_c, 0, 76, 0
2, 7440, Note_on_c, 0, 72, 45
2, 7470, Note_on_c, 0, 72, 0
2, 7560, Note_on_c, 0, 72, 45
2, 7590, Note_on_c, 0, 72, 0
2, 7680, Note_on_c, 0, 74, 45
2, 7710, Note_on_c, 0, 74, 0
2, 7800, Note_on_c, 0, 74, 45
2, 7830, Note_on_c, 0, 74, 0
2, 7920, Note_on_c, 0, 71, 45
2, 7950, Note_on_c, 0, 71, 0
2, 8040, Note_on_c, 0, 71, 45
2, 8070, Note_on_c, 0, 71, 0
2, 8160, Note_on_c, 0, 72, 45
2, 8520, Note_on_c, 0, 72, 0
2, 8520, Note_on_c, 0, 76, 39
2, 8610, Note_on_c, 0, 76, 0
2, 8610, Note_on_c, 0, 79, 39
2, 8640, Note_on_c, 0, 79, 0
2, 8640, Note_on_c, 0, 77, 40
2, 8670, Note_on_c, 0, 77, 0
2, 8760, Note_on_c, 0, 77, 41
2, 8850, Note_on_c, 0, 77, 0
2, 8850, Note_on_c, 0, 81, 41
2, 8880, Note_on_c, 0, 81, 0
2, 8880, Note_on_c, 0, 71, 41
2, 8910, Note_on_c, 0, 71, 0
2, 9000, Note_on_c, 0, 71, 42
2, 9090, Note_on_c, 0, 71, 0
2, 9090, Note_on_c, 0, 74, 43
2, 9120, Note_on_c, 0, 74, 0
2, 9120, Note_on_c, 0, 72, 43
2, 9150, Note_on_c, 0, 72, 0
2, 9240, Note_on_c, 0, 72, 44
2, 9330, Note_on_c, 0, 72, 0
2, 9330, Note_on_c, 0, 76, 45
2, 9360, Note_on_c, 0, 76, 0
2, 9360, Note_on_c, 0, 79, 45
2, 9390, Note_on_c, 0, 79, 0
2, 9480, Note_on_c, 0, 84, 46
2, 9570, Note_on_c, 0, 84, 0
2, 9570, Note_on_c, 0, 76, 47
2, 9600, Note_on_c, 0, 76, 0
2, 9600, Note_on_c, 0, 77, 46
2, 9630, Note_on_c, 0, 77, 0
2, 9720, Note_on_c, 0, 81, 45
2, 9810, Note_on_c, 0, 81, 0
2, 9810, Note_on_c, 0, 72, 44
2, 9840, Note_on_c, 0, 72, 0
2, 9840, Note_on_c, 0, 71, 43
2, 9870, Note_on_c, 0, 71, 0
2, 9960, Note_on_c, 0, 77, 42
2, 10050, Note_on_c, 0, 77, 0
2, 10050, Note_on_c, 0, 71, 41
2, 10080, Note_on_c, 0, 71, 0
2, 10080, Note_on_c, 0, 72, 38
2, 10110, Note_on_c, 0, 72, 0
2, 10200, Note_on_c, 0, 72, 38
2, 10230, Note_on_c, 0, 72, 0
2, 10320, Note_on_c, 0, 72, 38
2, 10350, Note_on_c, 0, 72, 0
2, 10440, Note_on_c, 0, 74, 45
2, 10460, Note_on_c, 0, 74, 0
2, 10460, Note_on_c, 0, 76, 45
2, 10480, Note_on_c, 0, 76, 0
2, 10480, Note_on_c, 0, 74, 45
2, 10500, Note_on_c, 0, 74, 0
2, 10500, Note_on_c, 0, 72, 45
2, 10530, Note_on_c, 0, 72, 0
2, 10530, Note_on_c, 0, 74, 45
2, 10560, Note_on_c, 0, 74, 0
2, 10560, Note_on_c, 0, 76, 45
2, 10680, Note_on_c, 0, 76, 0
2, 10680, Note_on_c, 0, 72, 39
2, 10710, Note_on_c, 0, 72, 0
2, 10800, Note_on_c, 0, 72, 39
2, 10830, Note_on_c, 0, 72, 0
2, 10920, Note_on_c, 0, 74, 45
2, 10940, Note_on_c, 0, 74, 0
2, 10940, Note_on_c, 0, 76, 45
2, 10960, Note_on_c, 0, 76, 0
2, 10960, Note_on_c, 0, 74, 45
2, 10980, Note_on_c, 0, 74, 0
2, 10980, Note_on_c, 0, 72, 45
2, 11010, Note_on_c, 0, 72, 0
2, 11010, Note_on_c, 0, 74, 45
2, 11040, Note_on_c, 0, 74, 0
2, 11040, Note_on_c, 0, 76, 45
2, 11160, Note_on_c, 0, 76, 0
2, 11160, Note_on_c, 0, 72, 39
2, 11190, Note_on_c, 0, 72, 0
2, 11280, Note_on_c, 0, 72, 39
2, 11310, Note_on_c, 0, 72, 0
2, 11400, Note_on_c, 0, 74, 45
2, 11420, Note_on_c, 0, 74, 0
2, 11420, Note_on_c, 0, 76, 45
2, 11440, Note_on_c, 0, 76, 0
2, 11440, Note_on_c, 0, 74, 45
2, 11460, Note_on_c, 0, 74, 0
2, 11460, Note_on_c, 0, 72, 45
2, 11490, Note_on_c, 0, 72, 0
2, 11490, Note_on_c, 0, 74, 45
2, 11520, Note_on_c, 0, 74, 0
2, 11520, Note_on_c, 0, 76, 45
2, 11640, Note_on_c, 0, 76, 0
2, 11640, Note_on_c, 0, 76, 39
2, 11670, Note_on_c, 0, 76, 0
2, 11760, Note_on_c, 0, 76, 39
2, 11790, Note_on_c, 0, 76, 0
2, 11880, Note_on_c, 0, 78, 44
2, 11900, Note_on_c, 0, 78, 0
2, 11900, Note_on_c, 0, 78, 44
2, 11900, Note_on_c, 0, 79, 44
2, 11920, Note_on_c, 0, 79, 0
2, 11920, Note_on_c, 0, 78, 0
2, 11940, Note_on_c, 0, 76, 44
2, 11970, Note_on_c, 0, 76, 0
2, 11970, Note_on_c, 0, 78, 44
2, 12000, Note_on_c, 0, 78, 0
2, 12000, Note_on_c, 0, 79, 39
2, 12030, Note_on_c, 0, 79, 0
2, 12120, Note_on_c, 0, 79, 39
2, 12150, Note_on_c, 0, 79, 0
2, 12240, Note_on_c, 0, 79, 39
2, 12270, Note_on_c, 0, 79, 0
2, 12360, Note_on_c, 0, 81, 45
2, 12380, Note_on_c, 0, 81, 0
2, 12380, Note_on_c, 0, 83, 45
2, 12400, Note_on_c, 0, 83, 0
2, 12400, Note_on_c, 0, 81, 45
2, 12420, Note_on_c, 0, 81, 0
2, 12420, Note_on_c, 0, 79, 45
2, 12450, Note_on_c, 0, 79, 0
2, 12450, Note_on_c, 0, 81, 45
2, 12480, Note_on_c, 0, 81, 0
2, 12480, Note_on_c, 0, 83, 45
2, 12600, Note_on_c, 0, 83, 0
2, 12600, Note_on_c, 0, 79, 45
2, 12630, Note_on_c, 0, 79, 0
2, 12720, Note_on_c, 0, 79, 45
2, 12750, Note_on_c, 0, 79, 0
2, 12840, Note_on_c, 0, 81, 50
2, 12860, Note_on_c, 0, 81, 0
2, 12860, Note_on_c, 0, 83, 50
2, 12880, Note_on_c, 0, 83, 0
2, 12880, Note_on_c, 0, 81, 50
2, 12900, Note_on_c, 0, 81, 0
2, 12900, Note_on_c, 0, 79, 50
2, 12930, Note_on_c, 0, 79, 0
2, 12930, Note_on_c, 0, 81, 50
2, 12960, Note_on_c, 0, 81, 0
2, 12960, Note_on_c, 0, 83, 50
2, 13080, Note_on_c, 0, 83, 0
2, 13080, Note_on_c, 0, 79, 44
2, 13110, Note_on_c, 0, 79, 0
2, 13200, Note_on_c, 0, 79, 44
2, 13230, Note_on_c, 0, 79, 0
2, 13320, Note_on_c, 0, 79, 42
2, 13360, Note_on_c, 0, 79, 0
2, 13360, Note_on_c, 0, 83, 46
2, 13400, Note_on_c, 0, 83, 0
2, 13400, Note_on_c, 0, 86, 51
2, 13440, Note_on_c, 0, 86, 0
2, 13440, Note_on_c, 0, 84, 41
2, 13480, Note_on_c, 0, 84, 0
2, 13560, Note_on_c, 0, 84, 42
2, 13650, Note_on_c, 0, 84, 0
2, 13650, Note_on_c, 0, 86, 42
2, 13680, Note_on_c, 0, 83, 43
2, 13690, Note_on_c, 0, 86, 0
2, 13720, Note_on_c, 0, 83, 0
2, 13800, Note_on_c, 0, 83, 43
2, 13890, Note_on_c, 0, 83, 0
2, 13890, Note_on_c, 0, 84, 44
2, 13920, Note_on_c, 0, 81, 44
2, 13930, Note_on_c, 0, 84, 0
2, 13960, Note_on_c, 0, 81, 0
2, 14040, Note_on_c, 0, 81, 45
2, 14130, Note_on_c, 0, 81, 0
2, 14130, Note_on_c, 0, 83, 46
2, 14160, Note_on_c, 0, 79, 46
2, 14170, Note_on_c, 0, 83, 0
2, 14200, Note_on_c, 0, 79, 0
2, 14280, Note_on_c, 0, 79, 46
2, 14320, Note_on_c, 0, 79, 0
2, 14320, Note_on_c, 0, 83, 46
2, 14360, Note_on_c, 0, 83, 0
2, 14360, Note_on_c, 0, 86, 46
2, 14400, Note_on_c, 0, 86, 0
2, 14400, Note_on_c, 0, 84, 39
2, 14430, Note_on_c, 0, 84, 0
2, 14520, Note_on_c, 0, 84, 38
2, 14540, Note_on_c, 0, 84, 0
2, 14540, Note_on_c, 0, 86, 38
2, 14560, Note_on_c, 0, 86, 0
2, 14560, Note_on_c, 0, 84, 39
2, 14580, Note_on_c, 0, 84, 0
2, 14580, Note_on_c, 0, 83, 39
2, 14600, Note_on_c, 0, 83, 0
2, 14600, Note_on_c, 0, 84, 40
2, 14620, Note_on_c, 0, 84, 0
2, 14620, Note_on_c, 0, 86, 40
2, 14640, Note_on_c, 0, 86, 0
2, 14640, Note_on_c, 0, 83, 41
2, 14670, Note_on_c, 0, 83, 0
2, 14760, Note_on_c, 0, 83, 43
2, 14780, Note_on_c, 0, 83, 0
2, 14780, Note_on_c, 0, 84, 44
2, 14800, Note_on_c, 0, 84, 0
2, 14800, Note_on_c, 0, 83, 44
2, 14820, Note_on_c, 0, 83, 0
2, 14820, Note_on_c, 0, 81, 45
2, 14840, Note_on_c, 0, 81, 0
2, 14840, Note_on_c, 0, 83, 45
2, 14860, Note_on_c, 0, 83, 0
2, 14860, Note_on_c, 0, 84, 46
2, 14880, Note_on_c, 0, 84, 0
2, 14880, Note_on_c, 0, 81, 46
2, 14910, Note_on_c, 0, 81, 0
2, 15000, Note_on_c, 0, 81, 49
2, 15020, Note_on_c, 0, 81, 0
2, 15020, Note_on_c, 0, 83, 49
2, 15040, Note_on_c, 0, 83, 0
2, 15040, Note_on_c, 0, 81, 50
2, 15060, Note_on_c, 0, 81, 0
2, 15060, Note_on_c, 0, 79, 50
2, 15080, Note_on_c, 0, 79, 0
2, 15080, Note_on_c, 0, 81, 51
2, 15100, Note_on_c, 0, 81, 0
2, 15100, Note_on_c, 0, 83, 51
2, 15120, Note_on_c, 0, 83, 0
2, 15120, Note_on_c, 0, 79, 52
2, 15150, Note_on_c, 0, 79, 0
2, 15240, Note_on_c, 0, 86, 52
2, 15330, Note_on_c, 0, 86, 0
2, 15330, Note_on_c, 0, 83, 52
2, 15360, Note_on_c, 0, 83, 0
2, 15360, Note_on_c, 0, 81, 52
2, 15390, Note_on_c, 0, 81, 0
2, 15480, Note_on_c, 0, 81, 55
2, 15500, Note_on_c, 0, 81, 0
2, 15500, Note_on_c, 0, 83, 55
2, 15520, Note_on_c, 0, 83, 0
2, 15520, Note_on_c, 0, 81, 55
2, 15540, Note_on_c, 0, 81, 0
2, 15540, Note_on_c, 0, 79, 55
2, 15560, Note_on_c, 0, 79, 0
2, 15560, Note_on_c, 0, 81, 55
2, 15580, Note_on_c, 0, 81, 0
2, 15580, Note_on_c, 0, 83, 55
2, 15600, Note_on_c, 0, 83, 0
2, 15600, Note_on_c, 0, 79, 55
2, 15630, Note_on_c, 0, 79, 0
2, 15720, Note_on_c, 0, 79, 55
2, 15740, Note_on_c, 0, 79, 0
2, 15740, Note_on_c, 0, 81, 55
2, 15760, Note_on_c, 0, 81, 0
2, 15760, Note_on_c, 0, 79, 55
2, 15780, Note_on_c, 0, 79, 0
2, 15780, Note_on_c, 0, 78, 55
2, 15800, Note_on_c, 0, 78, 0
2, 15800, Note_on_c, 0, 79, 55
2, 15820, Note_on_c, 0, 79, 0
2, 15820, Note_on_c, 0, 81, 55
2, 15840, Note_on_c, 0, 81, 0
2, 15840, Note_on_c, 0, 78, 55
2, 15960, Note_on_c, 0, 78, 0
2, 16050, Note_on_c, 0, 74, 54
2, 16080, Note_on_c, 0, 74, 0
2, 16080, Note_on_c, 0, 78, 54
2, 16170, Note_on_c, 0, 78, 0
2, 16170, Note_on_c, 0, 74, 54
2, 16200, Note_on_c, 0, 74, 0
2, 16200, Note_on_c, 0, 81, 54
2, 16290, Note_on_c, 0, 81, 0
2, 16290, Note_on_c, 0, 78, 54
2, 16320, Note_on_c, 0, 78, 0
2, 16320, Note_on_c, 0, 86, 54
2, 16440, Note_on_c, 0, 86, 0
2, 16530, Note_on_c, 0, 62, 54
2, 16560, Note_on_c, 0, 62, 0
2, 16560, Note_on_c, 0, 66, 54
2, 16600, Note_on_c, 0, 66, 0
2, 16600, Note_on_c, 0, 62, 54
2, 16640, Note_on_c, 0, 62, 0
2, 16640, Note_on_c, 0, 66, 54
2, 16680, Note_on_c, 0, 66, 0
2, 16680, Note_on_c, 0, 69, 54
2, 16720, Note_on_c, 0, 69, 0
2, 16720, Note_on_c, 0, 66, 54
2, 16760, Note_on_c, 0, 66, 0
2, 16760, Note_on_c, 0, 69, 54
2, 16800, Note_on_c, 0, 69, 0
2, 16800, Note_on_c, 0, 74, 54
2, 16920, Note_on_c, 0, 74, 0
2, 17040, Note_on_c, 0, 50, 54
2, 17220, Note_on_c, 0, 50, 0
2, 17220, Note_on_c, 0, 50, 54
2, 17250, Note_on_c, 0, 50, 0
2, 17280, Note_on_c, 0, 50, 54
2, 17520, Note_on_c, 0, 50, 0
2, 18120, Note_on_c, 0, 74, 39
2, 18140, Note_on_c, 0, 74, 0
2, 18140, Note_on_c, 0, 76, 39
2, 18160, Note_on_c, 0, 76, 0
2, 18160, Note_on_c, 0, 74, 39
2, 18180, Note_on_c, 0, 74, 0
2, 18180, Note_on_c, 0, 73, 39
2, 18210, Note_on_c, 0, 73, 0
2, 18210, Note_on_c, 0, 74, 39
2, 18240, Note_on_c, 0, 74, 0
2, 18240, Note_on_c, 0, 79, 39
2, 18270, Note_on_c, 0, 79, 0
2, 18360, Note_on_c, 0, 79, 39
2, 18390, Note_on_c, 0, 79, 0
2, 18600, Note_on_c, 0, 74, 39
2, 18620, Note_on_c, 0, 74, 0
2, 18620, Note_on_c, 0, 76, 39
2, 18640, Note_on_c, 0, 76, 0
2, 18640, Note_on_c, 0, 74, 39
2, 18660, Note_on_c, 0, 74, 0
2, 18660, Note_on_c, 0, 73, 39
2, 18690, Note_on_c, 0, 73, 0
2, 18690, Note_on_c, 0, 74, 39
2, 18720, Note_on_c, 0, 74, 0
2, 18720, Note_on_c, 0, 79, 39
2, 18750, Note_on_c, 0, 79, 0
2, 18840, Note_on_c, 0, 79, 39
2, 18870, Note_on_c, 0, 79, 0
2, 19080, Note_on_c, 0, 74, 39
2, 19100, Note_on_c, 0, 74, 0
2, 19100, Note_on_c, 0, 76, 39
2, 19120, Note_on_c, 0, 76, 0
2, 19120, Note_on_c, 0, 74, 39
2, 19140, Note_on_c, 0, 74, 0
2, 19140, Note_on_c, 0, 73, 39
2, 19170, Note_on_c, 0, 73, 0
2, 19170, Note_on_c, 0, 74, 39
2, 19200, Note_on_c, 0, 74, 0
2, 19200, Note_on_c, 0, 79, 39
2, 19230, Note_on_c, 0, 79, 0
2, 19320, Note_on_c, 0, 79, 41
2, 19340, Note_on_c, 0, 79, 0
2, 19340, Note_on_c, 0, 81, 41
2, 19360, Note_on_c, 0, 81, 0
2, 19360, Note_on_c, 0, 79, 41
2, 19380, Note_on_c, 0, 79, 0
2, 19380, Note_on_c, 0, 78, 42
2, 19410, Note_on_c, 0, 78, 0
2, 19410, Note_on_c, 0, 79, 42
2, 19440, Note_on_c, 0, 79, 0
2, 19440, Note_on_c, 0, 81, 43
2, 19470, Note_on_c, 0, 81, 0
2, 19560, Note_on_c, 0, 81, 45
2, 19580, Note_on_c, 0, 81, 0
2, 19580, Note_on_c, 0, 83, 45
2, 19600, Note_on_c, 0, 83, 0
2, 19600, Note_on_c, 0, 81, 45
2, 19620, Note_on_c, 0, 81, 0
2, 19620, Note_on_c, 0, 79, 46
2, 19650, Note_on_c, 0, 79, 0
2, 19650, Note_on_c, 0, 81, 46
2, 19680, Note_on_c, 0, 81, 0
2, 19680, Note_on_c, 0, 83, 47
2, 19710, Note_on_c, 0, 83, 0
2, 19800, Note_on_c, 0, 83, 49
2, 19820, Note_on_c, 0, 83, 0
2, 19820, Note_on_c, 0, 84, 49
2, 19840, Note_on_c, 0, 84, 0
2, 19840, Note_on_c, 0, 83, 50
2, 19860, Note_on_c, 0, 83, 0
2, 19860, Note_on_c, 0, 81, 50
2, 19890, Note_on_c, 0, 81, 0
2, 19890, Note_on_c, 0, 83, 51
2, 19920, Note_on_c, 0, 83, 0
2, 19920, Note_on_c, 0, 84, 51
2, 19950, Note_on_c, 0, 84, 0
2, 20040, Note_on_c, 0, 84, 53
2, 20060, Note_on_c, 0, 84, 0
2, 20060, Note_on_c, 0, 86, 54
2, 20080, Note_on_c, 0, 86, 0
2, 20080, Note_on_c, 0, 84, 54
2, 20100, Note_on_c, 0, 84, 0
2, 20100, Note_on_c, 0, 83, 54
2, 20130, Note_on_c, 0, 83, 0
2, 20130, Note_on_c, 0, 84, 55
2, 20160, Note_on_c, 0, 84, 0
2, 20160, Note_on_c, 0, 86, 56
2, 20520, Note_on_c, 0, 86, 0
2, 20520, Note_on_c, 0, 75, 55
2, 20520, Note_on_c, 0, 87, 55
2, 20640, Note_on_c, 0, 87, 0
2, 20640, Note_on_c, 0, 75, 0
2, 20640, Note_on_c, 0, 76, 55
2, 20640, Note_on_c, 0, 88, 55
2, 20760, Note_on_c, 0, 88, 0
2, 20760, Note_on_c, 0, 76, 0
2, 20760, Note_on_c, 0, 68, 46
2, 20760, Note_on_c, 0, 80, 46
2, 20880, Note_on_c, 0, 80, 0
2, 20880, Note_on_c, 0, 68, 0
2, 20880, Note_on_c, 0, 69, 49
2, 20880, Note_on_c, 0, 81, 49
2, 21000, Note_on_c, 0, 81, 0
2, 21000, Note_on_c, 0, 69, 0
2, 21000, Note_on_c, 0, 71, 53
2, 21000, Note_on_c, 0, 83, 53
2, 21120, Note_on_c, 0, 83, 0
2, 21120, Note_on_c, 0, 71, 0
2, 21120, Note_on_c, 0, 72, 56
2, 21120, Note_on_c, 0, 84, 56
2, 21360, Note_on_c, 0, 84, 0
2, 21360, Note_on_c, 0, 72, 0
2, 21360, Note_on_c, 0, 74, 56
2, 21360, Note_on_c, 0, 86, 56
2, 21480, Note_on_c, 0, 86, 0
2, 21480, Note_on_c, 0, 74, 0
2, 21480, Note_on_c, 0, 76, 56
2, 21480, Note_on_c, 0, 88, 56
2, 21600, Note_on_c, 0, 88, 0
2, 21600, Note_on_c, 0, 76, 0
2, 21600, Note_on_c, 0, 79, 39
2, 21600, Note_on_c, 0, 74, 39
2, 21840, Note_on_c, 0, 74, 0
2, 21840, Note_on_c, 0, 79, 0
2, 21840, Note_on_c, 0, 83, 39
2, 21840, Note_on_c, 0, 78, 39
2, 21900, Note_on_c, 0, 83, 0
2, 21900, Note_on_c, 0, 81, 39
2, 22020, Note_on_c, 0, 81, 0
2, 22020, Note_on_c, 0, 79, 39
2, 22080, Note_on_c, 0, 79, 0
2, 22080, Note_on_c, 0, 78, 0
2, 22080, Note_on_c, 0, 79, 39
2, 22320, Note_on_c, 0, 79, 0
2, 22440, Note_on_c, 0, 83, 41
2, 22480, Note_on_c, 0, 83, 0
2, 22480, Note_on_c, 0, 87, 44
2, 22520, Note_on_c, 0, 87, 0
2, 22520, Note_on_c, 0, 88, 47
2, 22560, Note_on_c, 0, 88, 0
2, 22560, Note_on_c, 0, 86, 39
2, 22590, Note_on_c, 0, 86, 0
2, 22680, Note_on_c, 0, 86, 39
2, 22710, Note_on_c, 0, 86, 0
2, 22800, Note_on_c, 0, 86, 39
2, 22830, Note_on_c, 0, 86, 0
2, 22920, Note_on_c, 0, 79, 39
2, 22960, Note_on_c, 0, 79, 0
2, 22960, Note_on_c, 0, 83, 40
2, 23000, Note_on_c, 0, 83, 0
2, 23000, Note_on_c, 0, 84, 42
2, 23040, Note_on_c, 0, 84, 0
2, 23040, Note_on_c, 0, 83, 43
2, 23070, Note_on_c, 0, 83, 0
2, 23160, Note_on_c, 0, 83, 39
2, 23190, Note_on_c, 0, 83, 0
2, 23280, Note_on_c, 0, 83, 39
2, 23310, Note_on_c, 0, 83, 0
2, 23400, Note_on_c, 0, 76, 38
2, 23440, Note_on_c, 0, 76, 0
2, 23440, Note_on_c, 0, 80, 40
2, 23480, Note_on_c, 0, 80, 0
2, 23480, Note_on_c, 0, 81, 41
2, 23520, Note_on_c, 0, 81, 0
2, 23520, Note_on_c, 0, 79, 43
2, 23560, Note_on_c, 0, 79, 0
2, 23640, Note_on_c, 0, 79, 39
2, 23680, Note_on_c, 0, 79, 0
2, 23760, Note_on_c, 0, 79, 39
2, 23800, Note_on_c, 0, 79, 0
2, 23880, Note_on_c, 0, 83, 46
2, 23970, Note_on_c, 0, 83, 0
2, 23970, Note_on_c, 0, 79, 41
2, 24000, Note_on_c, 0, 79, 0
2, 24000, Note_on_c, 0, 76, 39
2, 24060, Note_on_c, 0, 76, 0
2, 24120, Note_on_c, 0, 84, 42
2, 24210, Note_on_c, 0, 84, 0
2, 24210, Note_on_c, 0, 81, 41
2, 24240, Note_on_c, 0, 81, 0
2, 24240, Note_on_c, 0, 78, 40
2, 24300, Note_on_c, 0, 78, 0
2, 24360, Note_on_c, 0, 81, 39
2, 24450, Note_on_c, 0, 81, 0
2, 24450, Note_on_c, 0, 78, 39
2, 24480, Note_on_c, 0, 78, 0
2, 24480, Note_on_c, 0, 79, 39
2, 24600, Note_on_c, 0, 79, 0
2, 24840, Note_on_c, 0, 83, 50
2, 24880, Note_on_c, 0, 87, 44
2, 24920, Note_on_c, 0, 87, 0
2, 24920, Note_on_c, 0, 83, 0
2, 24920, Note_on_c, 0, 88, 39
2, 24960, Note_on_c, 0, 88, 0
2, 24960, Note_on_c, 0, 81, 39
2, 25000, Note_on_c, 0, 81, 0
2, 25000, Note_on_c, 0, 85, 39
2, 25040, Note_on_c, 0, 85, 0
2, 25040, Note_on_c, 0, 86, 39
2, 25080, Note_on_c, 0, 86, 0
2, 25080, Note_on_c, 0, 81, 39
2, 25120, Note_on_c, 0, 81, 0
2, 25120, Note_on_c, 0, 85, 39
2, 25160, Note_on_c, 0, 85, 0
2, 25160, Note_on_c, 0, 86, 39
2, 25200, Note_on_c, 0, 86, 0
2, 25200, Note_on_c, 0, 81, 39
2, 25240, Note_on_c, 0, 81, 0
2, 25240, Note_on_c, 0, 85, 39
2, 25280, Note_on_c, 0, 85, 0
2, 25280, Note_on_c, 0, 86, 39
2, 25320, Note_on_c, 0, 86, 0
2, 25320, Note_on_c, 0, 83, 47
2, 25360, Note_on_c, 0, 87, 45
2, 25400, Note_on_c, 0, 87, 0
2, 25400, Note_on_c, 0, 83, 0
2, 25400, Note_on_c, 0, 88, 43
2, 25440, Note_on_c, 0, 88, 0
2, 25440, Note_on_c, 0, 81, 40
2, 25480, Note_on_c, 0, 81, 0
2, 25480, Note_on_c, 0, 85, 39
2, 25520, Note_on_c, 0, 85, 0
2, 25520, Note_on_c, 0, 86, 39
2, 25560, Note_on_c, 0, 86, 0
2, 25560, Note_on_c, 0, 81, 39
2, 25600, Note_on_c, 0, 81, 0
2, 25600, Note_on_c, 0, 85, 39
2, 25640, Note_on_c, 0, 85, 0
2, 25640, Note_on_c, 0, 86, 39
2, 25680, Note_on_c, 0, 86, 0
2, 25680, Note_on_c, 0, 81, 39
2, 25720, Note_on_c, 0, 81, 0
2, 25720, Note_on_c, 0, 85, 39
2, 25760, Note_on_c, 0, 85, 0
2, 25760, Note_on_c, 0, 86, 39
2, 25800, Note_on_c, 0, 86, 0
2, 25800, Note_on_c, 0, 79, 48
2, 25840, Note_on_c, 0, 83, 45
2, 25880, Note_on_c, 0, 83, 0
2, 25880, Note_on_c, 0, 79, 0
2, 25880, Note_on_c, 0, 84, 42
2, 25920, Note_on_c, 0, 84, 0
2, 25920, Note_on_c, 0, 78, 39
2, 25960, Note_on_c, 0, 78, 0
2, 25960, Note_on_c, 0, 82, 39
2, 26000, Note_on_c, 0, 82, 0
2, 26000, Note_on_c, 0, 83, 39
2, 26040, Note_on_c, 0, 83, 0
2, 26040, Note_on_c, 0, 78, 39
2, 26080, Note_on_c, 0, 78, 0
2, 26080, Note_on_c, 0, 82, 39
2, 26120, Note_on_c, 0, 82, 0
2, 26120, Note_on_c, 0, 83, 39
2, 26160, Note_on_c, 0, 83, 0
2, 26160, Note_on_c, 0, 78, 39
2, 26200, Note_on_c, 0, 78, 0
2, 26200, Note_on_c, 0, 82, 39
2, 26240, Note_on_c, 0, 82, 0
2, 26240, Note_on_c, 0, 83, 39
2, 26280, Note_on_c, 0, 83, 0
2, 26280, Note_on_c, 0, 79, 48
2, 26320, Note_on_c, 0, 83, 45
2, 26360, Note_on_c, 0, 83, 0
2, 26360, Note_on_c, 0, 79, 0
2, 26360, Note_on_c, 0, 84, 42
2, 26400, Note_on_c, 0, 84, 0
2, 26400, Note_on_c, 0, 78, 39
2, 26440, Note_on_c, 0, 78, 0
2, 26440, Note_on_c, 0, 82, 39
2, 26480, Note_on_c, 0, 82, 0
2, 26480, Note_on_c, 0, 83, 39
2, 26520, Note_on_c, 0, 83, 0
2, 26520, Note_on_c, 0, 78, 39
2, 26560, Note_on_c, 0, 78, 0
2, 26560, Note_on_c, 0, 82, 39
2, 26600, Note_on_c, 0, 82, 0
2, 26600, Note_on_c, 0, 83, 39
2, 26640, Note_on_c, 0, 83, 0
2, 26640, Note_on_c, 0, 78, 39
2, 26680, Note_on_c, 0, 78, 0
2, 26680, Note_on_c, 0, 82, 39
2, 26720, Note_on_c, 0, 82, 0
2, 26720, Note_on_c, 0, 83, 39
2, 26760, Note_on_c, 0, 83, 0
2, 26760, Note_on_c, 0, 76, 49
2, 26800, Note_on_c, 0, 80, 45
2, 26840, Note_on_c, 0, 80, 0
2, 26840, Note_on_c, 0, 76, 0
2, 26840, Note_on_c, 0, 81, 41
2, 26880, Note_on_c, 0, 81, 0
2, 26880, Note_on_c, 0, 74, 39
2, 26920, Note_on_c, 0, 74, 0
2, 26920, Note_on_c, 0, 78, 39
2, 26960, Note_on_c, 0, 78, 0
2, 26960, Note_on_c, 0, 79, 39
2, 27000, Note_on_c, 0, 79, 0
2, 27000, Note_on_c, 0, 74, 39
2, 27040, Note_on_c, 0, 74, 0
2, 27040, Note_on_c, 0, 78, 39
2, 27080, Note_on_c, 0, 78, 0
2, 27080, Note_on_c, 0, 79, 39
2, 27120, Note_on_c, 0, 79, 0
2, 27120, Note_on_c, 0, 74, 39
2, 27160, Note_on_c, 0, 74, 0
2, 27160, Note_on_c, 0, 78, 39
2, 27200, Note_on_c, 0, 78, 0
2, 27200, Note_on_c, 0, 79, 39
2, 27240, Note_on_c, 0, 79, 0
2, 27240, Note_on_c, 0, 76, 47
2, 27280, Note_on_c, 0, 80, 43
2, 27320, Note_on_c, 0, 80, 0
2, 27320, Note_on_c, 0, 76, 0
2, 27320, Note_on_c, 0, 81, 39
2, 27360, Note_on_c, 0, 81, 0
2, 27360, Note_on_c, 0, 74, 39
2, 27400, Note_on_c, 0, 74, 0
2, 27400, Note_on_c, 0, 78, 39
2, 27440, Note_on_c, 0, 78, 0
2, 27440, Note_on_c, 0, 79, 39
2, 27480, Note_on_c, 0, 79, 0
2, 27480, Note_on_c, 0, 74, 39
2, 27520, Note_on_c, 0, 74, 0
2, 27520, Note_on_c, 0, 78, 39
2, 27560, Note_on_c, 0, 78, 0
2, 27560, Note_on_c, 0, 79, 39
2, 27600, Note_on_c, 0, 79, 0
2, 27600, Note_on_c, 0, 74, 39
2, 27640, Note_on_c, 0, 74, 0
2, 27640, Note_on_c, 0, 78, 39
2, 27680, Note_on_c, 0, 78, 0
2, 27680, Note_on_c, 0, 79, 39
2, 27720, Note_on_c, 0, 79, 0
2, 27720, Note_on_c, 0, 76, 46
2, 27760, Note_on_c, 0, 80, 43
2, 27800, Note_on_c, 0, 80, 0
2, 27800, Note_on_c, 0, 76, 0
2, 27800, Note_on_c, 0, 81, 40
2, 27840, Note_on_c, 0, 81, 0
2, 27840, Note_on_c, 0, 74, 39
2, 27880, Note_on_c, 0, 78, 41
2, 27920, Note_on_c, 0, 78, 0
2, 27920, Note_on_c, 0, 74, 0
2, 27920, Note_on_c, 0, 79, 42
2, 27960, Note_on_c, 0, 79, 0
2, 27960, Note_on_c, 0, 74, 43
2, 28000, Note_on_c, 0, 80, 45
2, 28040, Note_on_c, 0, 80, 0
2, 28040, Note_on_c, 0, 74, 0
2, 28040, Note_on_c, 0, 81, 46
2, 28080, Note_on_c, 0, 81, 0
2, 28080, Note_on_c, 0, 74, 47
2, 28120, Note_on_c, 0, 82, 48
2, 28160, Note_on_c, 0, 82, 0
2, 28160, Note_on_c, 0, 74, 0
2, 28160, Note_on_c, 0, 83, 50
2, 28200, Note_on_c, 0, 83, 0
2, 28200, Note_on_c, 0, 74, 51
2, 28240, Note_on_c, 0, 83, 52
2, 28280, Note_on_c, 0, 83, 0
2, 28280, Note_on_c, 0, 74, 0
2, 28280, Note_on_c, 0, 84, 54
2, 28320, Note_on_c, 0, 84, 0
2, 28320, Note_on_c, 0, 74, 55
2, 28360, Note_on_c, 0, 85, 56
2, 28400, Note_on_c, 0, 85, 0
2, 28400, Note_on_c, 0, 74, 0
2, 28400, Note_on_c, 0, 86, 58
2, 28440, Note_on_c, 0, 86, 0
2, 28440, Note_on_c, 0, 84, 56
2, 28480, Note_on_c, 0, 84, 0
2, 28480, Note_on_c, 0, 83, 54
2, 28520, Note_on_c, 0, 83, 0
2, 28520, Note_on_c, 0, 81, 52
2, 28560, Note_on_c, 0, 81, 0
2, 28560, Note_on_c, 0, 79, 50
2, 28600, Note_on_c, 0, 79, 0
2, 28600, Note_on_c, 0, 78, 48
2, 28640, Note_on_c, 0, 78, 0
2, 28640, Note_on_c, 0, 76, 46
2, 28680, Note_on_c, 0, 76, 0
2, 28680, Note_on_c, 0, 74, 44
2, 28720, Note_on_c, 0, 74, 0
2, 28720, Note_on_c, 0, 72, 42
2, 28760, Note_on_c, 0, 72, 0
2, 28760, Note_on_c, 0, 71, 40
2, 28800, Note_on_c, 0, 71, 0
2, 28800, Note_on_c, 0, 69, 39
2, 28840, Note_on_c, 0, 69, 0
2, 28840, Note_on_c, 0, 76, 48
2, 28880, Note_on_c, 0, 76, 0
2, 28880, Note_on_c, 0, 74, 47
2, 28920, Note_on_c, 0, 74, 0
2, 28920, Note_on_c, 0, 72, 45
2, 28960, Note_on_c, 0, 72, 0
2, 28960, Note_on_c, 0, 71, 43
2, 29000, Note_on_c, 0, 71, 0
2, 29000, Note_on_c, 0, 69, 41
2, 29040, Note_on_c, 0, 69, 0
2, 29040, Note_on_c, 0, 67, 40
2, 29160, Note_on_c, 0, 67, 0
2, 29160, Note_on_c, 0, 66, 39
2, 29280, Note_on_c, 0, 66, 0
2, 29320, Note_on_c, 0, 85, 56
2, 29360, Note_on_c, 0, 85, 0
2, 29360, Note_on_c, 0, 86, 58
2, 29400, Note_on_c, 0, 86, 0
2, 29400, Note_on_c, 0, 84, 56
2, 29440, Note_on_c, 0, 84, 0
2, 29440, Note_on_c, 0, 83, 54
2, 29480, Note_on_c, 0, 83, 0
2, 29480, Note_on_c, 0, 81, 52
2, 29520, Note_on_c, 0, 81, 0
2, 29520, Note_on_c, 0, 79, 50
2, 29560, Note_on_c, 0, 79, 0
2, 29560, Note_on_c, 0, 78, 48
2, 29600, Note_on_c, 0, 78, 0
2, 29600, Note_on_c, 0, 76, 46
2, 29640, Note_on_c, 0, 76, 0
2, 29640, Note_on_c, 0, 74, 44
2, 29680, Note_on_c, 0, 74, 0
2, 29680, Note_on_c, 0, 72, 42
2, 29720, Note_on_c, 0, 72, 0
2, 29720, Note_on_c, 0, 71, 40
2, 29760, Note_on_c, 0, 71, 0
2, 29760, Note_on_c, 0, 69, 39
2, 29800, Note_on_c, 0, 69, 0
2, 29800, Note_on_c, 0, 76, 48
2, 29840, Note_on_c, 0, 76, 0
2, 29840, Note_on_c, 0, 74, 47
2, 29880, Note_on_c, 0, 74, 0
2, 29880, Note_on_c, 0, 72, 45
2, 29920, Note_on_c, 0, 72, 0
2, 29920, Note_on_c, 0, 71, 43
2, 29960, Note_on_c, 0, 71, 0
2, 29960, Note_on_c, 0, 69, 41
2, 30000, Note_on_c, 0, 69, 0
2, 30000, Note_on_c, 0, 67, 40
2, 30120, Note_on_c, 0, 67, 0
2, 30120, Note_on_c, 0, 66, 39
2, 30135, Note_on_c, 0, 66, 0
2, 30135, Note_on_c, 0, 67, 39
2, 30150, Note_on_c, 0, 67, 0
2, 30150, Note_on_c, 0, 66, 39
2, 30240, Note_on_c, 0, 66, 0
2, 30240, Note_on_c, 0, 67, 39
2, 30360, Note_on_c, 0, 67, 0
2, 30600, Note_on_c, 0, 74, 39
2, 30690, Note_on_c, 0, 74, 0
2, 30690, Note_on_c, 0, 78, 39
2, 30720, Note_on_c, 0, 78, 0
2, 30720, Note_on_c, 0, 79, 39
2, 30750, Note_on_c, 0, 79, 0
2, 30840, Note_on_c, 0, 79, 39
2, 30870, Note_on_c, 0, 79, 0
2, 30960, Note_on_c, 0, 79, 39
2, 30990, Note_on_c, 0, 79, 0
2, 31080, Note_on_c, 0, 81, 41
2, 31095, Note_on_c, 0, 81, 0
2, 31095, Note_on_c, 0, 83, 42
2, 31110, Note_on_c, 0, 83, 0
2, 31110, Note_on_c, 0, 81, 44
2, 31170, Note_on_c, 0, 81, 0
2, 31170, Note_on_c, 0, 86, 48
2, 31200, Note_on_c, 0, 86, 0
2, 31200, Note_on_c, 0, 83, 47
2, 31320, Note_on_c, 0, 83, 0
2, 31320, Note_on_c, 0, 79, 38
2, 31350, Note_on_c, 0, 79, 0
2, 31440, Note_on_c, 0, 79, 39
2, 31470, Note_on_c, 0, 79, 0
2, 31560, Note_on_c, 0, 74, 51
2, 31650, Note_on_c, 0, 74, 0
2, 31650, Note_on_c, 0, 78, 48
2, 31680, Note_on_c, 0, 78, 0
2, 31680, Note_on_c, 0, 79, 47
2, 31710, Note_on_c, 0, 79, 0
2, 31800, Note_on_c, 0, 79, 46
2, 31830, Note_on_c, 0, 79, 0
2, 31920, Note_on_c, 0, 79, 46
2, 31950, Note_on_c, 0, 79, 0
2, 32040, Note_on_c, 0, 81, 46
2, 32055, Note_on_c, 0, 81, 0
2, 32055, Note_on_c, 0, 83, 46
2, 32070, Note_on_c, 0, 83, 0
2, 32070, Note_on_c, 0, 81, 46
2, 32130, Note_on_c, 0, 81, 0
2, 32130, Note_on_c, 0, 83, 46
2, 32160, Note_on_c, 0, 83, 0
2, 32160, Note_on_c, 0, 79, 46
2, 32280, Note_on_c, 0, 79, 0
2, 32400, Note_on_c, 0, 71, 50
2, 32400, Note_on_c, 0, 74, 50
2, 32520, Note_on_c, 0, 74, 0
2, 32520, Note_on_c, 0, 71, 0
2, 32640, Note_on_c, 0, 67, 50
2, 32640, Note_on_c, 0, 71, 50
2, 32880, Note_on_c, 0, 71, 0
2, 32880, Note_on_c, 0, 67, 0
2, 33000, Note_on_c, 0, 72, 53
2, 33090, Note_on_c, 0, 72, 0
2, 33090, Note_on_c, 0, 76, 53
2, 33120, Note_on_c, 0, 76, 0
2, 33120, Note_on_c, 0, 79, 53
2, 33150, Note_on_c, 0, 79, 0
2, 33240, Note_on_c, 0, 79, 53
2, 33270, Note_on_c, 0, 79, 0
2, 33360, Note_on_c, 0, 79, 53
2, 33390, Note_on_c, 0, 79, 0
2, 33480, Note_on_c, 0, 83, 53
2, 33490, Note_on_c, 0, 84, 53
2, 33510, Note_on_c, 0, 83, 0
2, 33600, Note_on_c, 0, 84, 0
2, 33600, Note_on_c, 0, 79, 53
2, 33630, Note_on_c, 0, 79, 0
2, 33720, Note_on_c, 0, 79, 53
2, 33750, Note_on_c, 0, 79, 0
2, 33840, Note_on_c, 0, 79, 53
2, 33870, Note_on_c, 0, 79, 0
2, 33960, Note_on_c, 0, 76, 53
2, 34050, Note_on_c, 0, 76, 0
2, 34050, Note_on_c, 0, 72, 53
2, 34080, Note_on_c, 0, 72, 0
2, 34080, Note_on_c, 0, 71, 53
2, 34110, Note_on_c, 0, 71, 0
2, 34200, Note_on_c, 0, 71, 51
2, 34230, Note_on_c, 0, 71, 0
2, 34320, Note_on_c, 0, 72, 49
2, 34350, Note_on_c, 0, 72, 0
2, 34440, Note_on_c, 0, 72, 47
2, 34470, Note_on_c, 0, 72, 0
2, 34560, Note_on_c, 0, 74, 46
2, 34680, Note_on_c, 0, 74, 0
2, 34920, Note_on_c, 0, 67, 44
2, 35010, Note_on_c, 0, 67, 0
2, 35010, Note_on_c, 0, 74, 44
2, 35040, Note_on_c, 0, 74, 0
2, 35040, Note_on_c, 0, 77, 44
2, 35070, Note_on_c, 0, 77, 0
2, 35160, Note_on_c, 0, 77, 45
2, 35250, Note_on_c, 0, 77, 0
2, 35250, Note_on_c, 0, 79, 45
2, 35280, Note_on_c, 0, 79, 0
2, 35280, Note_on_c, 0, 76, 45
2, 35310, Note_on_c, 0, 76, 0
2, 35400, Note_on_c, 0, 76, 45
2, 35490, Note_on_c, 0, 76, 0
2, 35490, Note_on_c, 0, 77, 45
2, 35520, Note_on_c, 0, 77, 0
2, 35520, Note_on_c, 0, 74, 45
2, 35550, Note_on_c, 0, 74, 0
2, 35640, Note_on_c, 0, 74, 45
2, 35730, Note_on_c, 0, 74, 0
2, 35730, Note_on_c, 0, 76, 45
2, 35760, Note_on_c, 0, 76, 0
2, 35760, Note_on_c, 0, 72, 45
2, 35790, Note_on_c, 0, 72, 0
2, 35880, Note_on_c, 0, 72, 45
2, 35910, Note_on_c, 0, 72, 0
2, 36000, Note_on_c, 0, 74, 45
2, 36030, Note_on_c, 0, 74, 0
2, 36120, Note_on_c, 0, 74, 45
2, 36150, Note_on_c, 0, 74, 0
2, 36240, Note_on_c, 0, 71, 45
2, 36270, Note_on_c, 0, 71, 0
2, 36360, Note_on_c, 0, 71, 45
2, 36390, Note_on_c, 0, 71, 0
2, 36480, Note_on_c, 0, 72, 55
2, 36600, Note_on_c, 0, 72, 0
2, 36840, Note_on_c, 0, 72, 53
2, 36930, Note_on_c, 0, 72, 0
2, 36930, Note_on_c, 0, 76, 53
2, 36960, Note_on_c, 0, 76, 0
2, 36960, Note_on_c, 0, 79, 53
2, 36990, Note_on_c, 0, 79, 0
2, 37080, Note_on_c, 0, 79, 53
2, 37110, Note_on_c, 0, 79, 0
2, 37200, Note_on_c, 0, 79, 53
2, 37230, Note_on_c, 0, 79, 0
2, 37320, Note_on_c, 0, 83, 53
2, 37330, Note_on_c, 0, 84, 53
2, 37350, Note_on_c, 0, 83, 0
2, 37440, Note_on_c, 0, 84, 0
2, 37440, Note_on_c, 0, 79, 53
2, 37470, Note_on_c, 0, 79, 0
2, 37560, Note_on_c, 0, 79, 53
2, 37590, Note_on_c, 0, 79, 0
2, 37680, Note_on_c, 0, 79, 53
2, 37710, Note_on_c, 0, 79, 0
2, 37800, Note_on_c, 0, 77, 53
2, 37830, Note_on_c, 0, 77, 0
2, 37830, Note_on_c, 0, 76, 51
2, 37860, Note_on_c, 0, 76, 0
2, 37860, Note_on_c, 0, 74, 48
2, 37890, Note_on_c, 0, 74, 0
2, 37890, Note_on_c, 0, 72, 46
2, 37920, Note_on_c, 0, 72, 0
2, 37920, Note_on_c, 0, 71, 43
2, 37950, Note_on_c, 0, 71, 0
2, 38040, Note_on_c, 0, 71, 42
2, 38070, Note_on_c, 0, 71, 0
2, 38160, Note_on_c, 0, 72, 42
2, 38190, Note_on_c, 0, 72, 0
2, 38280, Note_on_c, 0, 72, 42
2, 38310, Note_on_c, 0, 72, 0
2, 38400, Note_on_c, 0, 74, 42
2, 38520, Note_on_c, 0, 74, 0
2, 38760, Note_on_c, 0, 67, 44
2, 38850, Note_on_c, 0, 67, 0
2, 38850, Note_on_c, 0, 74, 44
2, 38880, Note_on_c, 0, 74, 0
2, 38880, Note_on_c, 0, 77, 44
2, 38910, Note_on_c, 0, 77, 0
2, 39000, Note_on_c, 0, 77, 45
2, 39090, Note_on_c, 0, 77, 0
2, 39090, Note_on_c, 0, 79, 45
2, 39120, Note_on_c, 0, 79, 0
2, 39120, Note_on_c, 0, 76, 45
2, 39150, Note_on_c, 0, 76, 0
2, 39240, Note_on_c, 0, 76, 45
2, 39330, Note_on_c, 0, 76, 0
2, 39330, Note_on_c, 0, 77, 45
2, 39360, Note_on_c, 0, 77, 0
2, 39360, Note_on_c, 0, 74, 45
2, 39390, Note_on_c, 0, 74, 0
2, 39480, Note_on_c, 0, 74, 45
2, 39570, Note_on_c, 0, 74, 0
2, 39570, Note_on_c, 0, 76, 45
2, 39600, Note_on_c, 0, 76, 0
2, 39600, Note_on_c, 0, 72, 45
2, 39630, Note_on_c, 0, 72, 0
2, 39720, Note_on_c, 0, 72, 45
2, 39750, Note_on_c, 0, 72, 0
2, 39840, Note_on_c, 0, 74, 45
2, 39870, Note_on_c, 0, 74, 0
2, 39960, Note_on_c, 0, 74, 45
2, 39990, Note_on_c, 0, 74, 0
2, 40080, Note_on_c, 0, 71, 45
2, 40110, Note_on_c, 0, 71, 0
2, 40200, Note_on_c, 0, 71, 45
2, 40230, Note_on_c, 0, 71, 0
2, 40320, Note_on_c, 0, 72, 45
2, 40680, Note_on_c, 0, 72, 0
2, 40680, Note_on_c, 0, 76, 39
2, 40770, Note_on_c, 0, 76, 0
2, 40770, Note_on_c, 0, 79, 39
2, 40800, Note_on_c, 0, 79, 0
2, 40800, Note_on_c, 0, 77, 40
2, 40830, Note_on_c, 0, 77, 0
2, 40920, Note_on_c, 0, 77, 41
2, 41010, Note_on_c, 0, 77, 0
2, 41010, Note_on_c, 0, 81, 41
2, 41040, Note_on_c, 0, 81, 0
2, 41040, Note_on_c, 0, 71, 41
2, 41070, Note_on_c, 0, 71, 0
2, 41160, Note_on_c, 0, 71, 42
2, 41250, Note_on_c, 0, 71, 0
2, 41250, Note_on_c, 0, 74, 43
2, 41280, Note_on_c, 0, 74, 0
2, 41280, Note_on_c, 0, 72, 43
2, 41310, Note_on_c, 0, 72, 0
2, 41400, Note_on_c, 0, 72, 44
2, 41490, Note_on_c, 0, 72, 0
2, 41490, Note_on_c, 0, 76, 45
2, 41520, Note_on_c, 0, 76, 0
2, 41520, Note_on_c, 0, 79, 45
2, 41550, Note_on_c, 0, 79, 0
2, 41640, Note_on_c, 0, 84, 46
2, 41730, Note_on_c, 0, 84, 0
2, 41730, Note_on_c, 0, 76, 47
2, 41760, Note_on_c, 0, 76, 0
2, 41760, Note_on_c, 0, 77, 46
2, 41790, Note_on_c, 0, 77, 0
2, 41880, Note_on_c, 0, 81, 45
2, 41970, Note_on_c, 0, 81, 0
2, 41970, Note_on_c, 0, 72, 44
2, 42000, Note_on_c, 0, 72, 0
2, 42000, Note_on_c, 0, 71, 43
2, 42030, Note_on_c, 0, 71, 0
2, 42120, Note_on_c, 0, 77, 42
2, 42210, Note_on_c, 0, 77, 0
2, 42210, Note_on_c, 0, 71, 41
2, 42240, Note_on_c, 0, 71, 0
2, 42240, Note_on_c, 0, 72, 38
2, 42270, Note_on_c, 0, 72, 0
2, 42360, Note_on_c, 0, 72, 38
2, 42390, Note_on_c, 0, 72, 0
2, 42480, Note_on_c, 0, 72, 38
2, 42510, Note_on_c, 0, 72, 0
2, 42600, Note_on_c, 0, 74, 45
2, 42620, Note_on_c, 0, 74, 0
2, 42620, Note_on_c, 0, 76, 45
2, 42640, Note_on_c, 0, 76, 0
2, 42640, Note_on_c, 0, 74, 45
2, 42660, Note_on_c, 0, 74, 0
2, 42660, Note_on_c, 0, 72, 45
2, 42690, Note_on_c, 0, 72, 0
2, 42690, Note_on_c, 0, 74, 45
2, 42720, Note_on_c, 0, 74, 0
2, 42720, Note_on_c, 0, 76, 45
2, 42840, Note_on_c, 0, 76, 0
2, 42840, Note_on_c, 0, 72, 39
2, 42870, Note_on_c, 0, 72, 0
2, 42960, Note_on_c, 0, 72, 39
2, 42990, Note_on_c, 0, 72, 0
2, 43080, Note_on_c, 0, 74, 45
2, 43100, Note_on_c, 0, 74, 0
2, 43100, Note_on_c, 0, 76, 45
2, 43120, Note_on_c, 0, 76, 0
2, 43120, Note_on_c, 0, 74, 45
2, 43140, Note_on_c, 0, 74, 0
2, 43140, Note_on_c, 0, 72, 45
2, 43170, Note_on_c, 0, 72, 0
2, 43170, Note_on_c, 0, 74, 45
2, 43200, Note_on_c, 0, 74, 0
2, 43200, Note_on_c, 0, 76, 45
2, 43320, Note_on_c, 0, 76, 0
2, 43320, Note_on_c, 0, 72, 39
2, 43350, Note_on_c, 0, 72, 0
2, 43440, Note_on_c, 0, 72, 39
2, 43470, Note_on_c, 0, 72, 0
2, 43560, Note_on_c, 0, 74, 45
2, 43580, Note_on_c, 0, 74, 0
2, 43580, Note_on_c, 0, 76, 45
2, 43600, Note_on_c, 0, 76, 0
2, 43600, Note_on_c, 0, 74, 45
2, 43620, Note_on_c, 0, 74, 0
2, 43620, Note_on_c, 0, 72, 45
2, 43650, Note_on_c, 0, 72, 0
2, 43650, Note_on_c, 0, 74, 45
2, 43680, Note_on_c, 0, 74, 0
2, 43680, Note_on_c, 0, 76, 45
2, 43800, Note_on_c, 0, 76, 0
2, 43800, Note_on_c, 0, 76, 39
2, 43830, Note_on_c, 0, 76, 0
2, 43920, Note_on_c, 0, 76, 39
2, 43950, Note_on_c, 0, 76, 0
2, 44040, Note_on_c, 0, 78, 44
2, 44060, Note_on_c, 0, 78, 0
2, 44060, Note_on_c, 0, 78, 44
2, 44060, Note_on_c, 0, 79, 44
2, 44080, Note_on_c, 0, 79, 0
2, 44080, Note_on_c, 0, 78, 0
2, 44100, Note_on_c, 0, 76, 44
2, 44130, Note_on_c, 0, 76, 0
2, 44130, Note_on_c, 0, 78, 44
2, 44160, Note_on_c, 0, 78, 0
2, 44160, Note_on_c, 0, 79, 39
2, 44190, Note_on_c, 0, 79, 0
2, 44280, Note_on_c, 0, 79, 39
2, 44310, Note_on_c, 0, 79, 0
2, 44400, Note_on_c, 0, 79, 39
2, 44430, Note_on_c, 0, 79, 0
2, 44520, Note_on_c, 0, 81, 45
2, 44540, Note_on_c, 0, 81, 0
2, 44540, Note_on_c, 0, 83, 45
2, 44560, Note_on_c, 0, 83, 0
2, 44560, Note_on_c, 0, 81, 45
2, 44580, Note_on_c, 0, 81, 0
2, 44580, Note_on_c, 0, 79, 45
2, 44610, Note_on_c, 0, 79, 0
2, 44610, Note_on_c, 0, 81, 45
2, 44640, Note_on_c, 0, 81, 0
2, 44640, Note_on_c, 0, 83, 45
2, 44760, Note_on_c, 0, 83, 0
2, 44760, Note_on_c, 0, 79, 45
2, 44790, Note_on_c, 0, 79, 0
2, 44880, Note_on_c, 0, 79, 45
2, 44910, Note_on_c, 0, 79, 0
2, 45000, Note_on_c, 0, 81, 50
2, 45020, Note_on_c, 0, 81, 0
2, 45020, Note_on_c, 0, 83, 50
2, 45040, Note_on_c, 0, 83, 0
2, 45040, Note_on_c, 0, 81, 50
2, 45060, Note_on_c, 0, 81, 0
2, 45060, Note_on_c, 0, 79, 50
2, 45090, Note_on_c, 0, 79, 0
2, 45090, Note_on_c, 0, 81, 50
2, 45120, Note_on_c, 0, 81, 0
2, 45120, Note_on_c, 0, 83, 50
2, 45240, Note_on_c, 0, 83, 0
2, 45240, Note_on_c, 0, 79, 44
2, 45270, Note_on_c, 0, 79, 0
2, 45360, Note_on_c, 0, 79, 44
2, 45390, Note_on_c, 0, 79, 0
2, 45480, Note_on_c, 0, 79, 42
2, 45520, Note_on_c, 0, 79, 0
2, 45520, Note_on_c, 0, 83, 46
2, 45560, Note_on_c, 0, 83, 0
2, 45560, Note_on_c, 0, 86, 51
2, 45600, Note_on_c, 0, 86, 0
2, 45600, Note_on_c, 0, 84, 41
2, 45640, Note_on_c, 0, 84, 0
2, 45720, Note_on_c, 0, 84, 42
2, 45810, Note_on_c, 0, 84, 0
2, 45810, Note_on_c, 0, 86, 42
2, 45840, Note_on_c, 0, 83, 43
2, 45850, Note_on_c, 0, 86, 0
2, 45880, Note_on_c, 0, 83, 0
2, 45960, Note_on_c, 0, 83, 43
2, 46050, Note_on_c, 0, 83, 0
2, 46050, Note_on_c, 0, 84, 44
2, 46080, Note_on_c, 0, 81, 44
2, 46090, Note_on_c, 0, 84, 0
2, 46120, Note_on_c, 0, 81, 0
2, 46200, Note_on_c, 0, 81, 45
2, 46290, Note_on_c, 0, 81, 0
2, 46290, Note_on_c, 0, 83, 46
2, 46320, Note_on_c, 0, 79, 46
2, 46330, Note_on_c, 0, 83, 0
2, 46360, Note_on_c, 0, 79, 0
2, 46440, Note_on_c, 0, 79, 46
2, 46480, Note_on_c, 0, 79, 0
2, 46480, Note_on_c, 0, 83, 46
2, 46520, Note_on_c, 0, 83, 0
2, 46520, Note_on_c, 0, 86, 46
2, 46560, Note_on_c, 0, 86, 0
2, 46560, Note_on_c, 0, 84, 39
2, 46590, Note_on_c, 0, 84, 0
2, 46680, Note_on_c, 0, 84, 38
2, 46700, Note_on_c, 0, 84, 0
2, 46700, Note_on_c, 0, 86, 38
2, 46720, Note_on_c, 0, 86, 0
2, 46720, Note_on_c, 0, 84, 39
2, 46740, Note_on_c, 0, 84, 0
2, 46740, Note_on_c, 0, 83, 39
2, 46760, Note_on_c, 0, 83, 0
2, 46760, Note_on_c, 0, 84, 40
2, 46780, Note_on_c, 0, 84, 0
2, 46780, Note_on_c, 0, 86, 40
2, 46800, Note_on_c, 0, 86, 0
2, 46800, Note_on_c, 0, 83, 41
2, 46830, Note_on_c, 0, 83, 0
2, 46920, Note_on_c, 0, 83, 43
2, 46940, Note_on_c, 0, 83, 0
2, 46940, Note_on_c, 0, 84, 44
2, 46960, Note_on_c, 0, 84, 0
2, 46960, Note_on_c, 0, 83, 44
2, 46980, Note_on_c, 0, 83, 0
2, 46980, Note_on_c, 0, 81, 45
2, 47000, Note_on_c, 0, 81, 0
2, 47000, Note_on_c, 0, 83, 45
2, 47020, Note_on_c, 0, 83, 0
2, 47020, Note_on_c, 0, 84, 46
2, 47040, Note_on_c, 0, 84, 0
2, 47040, Note_on_c, 0, 81, 46
2, 47070, Note_on_c, 0, 81, 0
2, 47160, Note_on_c, 0, 81, 49
2, 47180, Note_on_c, 0, 81, 0
2, 47180, Note_on_c, 0, 83, 49
2, 47200, Note_on_c, 0, 83, 0
2, 47200, Note_on_c, 0, 81, 50
2, 47220, Note_on_c, 0, 81, 0
2, 47220, Note_on_c, 0, 79, 50
2, 47240, Note_on_c, 0, 79, 0
2, 47240, Note_on_c, 0, 81, 51
2, 47260, Note_on_c, 0, 81, 0
2, 47260, Note_on_c, 0, 83, 51
2, 47280, Note_on_c, 0, 83, 0
2, 47280, Note_on_c, 0, 79, 52
2, 47310, Note_on_c, 0, 79, 0
2, 47400, Note_on_c, 0, 86, 52
2, 47490, Note_on_c, 0, 86, 0
2, 47490, Note_on_c, 0, 83, 52
2, 47520, Note_on_c, 0, 83, 0
2, 47520, Note_on_c, 0, 81, 52
2, 47550, Note_on_c, 0, 81, 0
2, 47640, Note_on_c, 0, 81, 55
2, 47660, Note_on_c, 0, 81, 0
2, 47660, Note_on_c, 0, 83, 55
2, 47680, Note_on_c, 0, 83, 0
2, 47680, Note_on_c, 0, 81, 55
2, 47700, Note_on_c, 0, 81, 0
2, 47700, Note_on_c, 0, 79, 55
2, 47720, Note_on_c, 0, 79, 0
2, 47720, Note_on_c, 0, 81, 55
2, 47740, Note_on_c, 0, 81, 0
2, 47740, Note_on_c, 0, 83, 55
2, 47760, Note_on_c, 0, 83, 0
2, 47760, Note_on_c, 0, 79, 55
2, 47790, Note_on_c, 0, 79, 0
2, 47880, Note_on_c, 0, 79, 55
2, 47900, Note_on_c, 0, 79, 0
2, 47900, Note_on_c, 0, 81, 55
2, 47920, Note_on_c, 0, 81, 0
2, 47920, Note_on_c, 0, 79, 55
2, 47940, Note_on_c, 0, 79, 0
2, 47940, Note_on_c, 0, 78, 55
2, 47960, Note_on_c, 0, 78, 0
2, 47960, Note_on_c, 0, 79, 55
2, 47980, Note_on_c, 0, 79, 0
2, 47980, Note_on_c, 0, 81, 55
2, 48000, Note_on_c, 0, 81, 0
2, 48000, Note_on_c, 0, 78, 55
2, 48120, Note_on_c, 0, 78, 0
2, 48210, Note_on_c, 0, 74, 54
2, 48240, Note_on_c, 0, 74, 0
2, 48240, Note_on_c, 0, 78, 54
2, 48330, Note_on_c, 0, 78, 0
2, 48330, Note_on_c, 0, 74, 54
2, 48360, Note_on_c, 0, 74, 0
2, 48360, Note_on_c, 0, 81, 54
2, 48450, Note_on_c, 0, 81, 0
2, 48450, Note_on_c, 0, 78, 54
2, 48480, Note_on_c, 0, 78, 0
2, 48480, Note_on_c, 0, 86, 54
2, 48600, Note_on_c, 0, 86, 0
2, 48690, Note_on_c, 0, 62, 54
2, 48720, Note_on_c, 0, 62, 0
2, 48720, Note_on_c, 0, 66, 54
2, 48760, Note_on_c, 0, 66, 0
2, 48760, Note_on_c, 0, 62, 54
2, 48800, Note_on_c, 0, 62, 0
2, 48800, Note_on_c, 0, 66, 54
2, 48840, Note_on_c, 0, 66, 0
2, 48840, Note_on_c, 0, 69, 54
2, 48880, Note_on_c, 0, 69, 0
2, 48880, Note_on_c, 0, 66, 54
2, 48920, Note_on_c, 0, 66, 0
2, 48920, Note_on_c, 0, 69, 54
2, 48960, Note_on_c, 0, 69, 0
2, 48960, Note_on_c, 0, 74, 54
2, 49080, Note_on_c, 0, 74, 0
2, 49200, Note_on_c, 0, 50, 54
2, 49380, Note_on_c, 0, 50, 0
2, 49380, Note_on_c, 0, 50, 54
2, 49410, Note_on_c, 0, 50, 0
2, 49440, Note_on_c, 0, 50, 54
2, 49680, Note_on_c, 0, 50, 0
2, 50280, Note_on_c, 0, 74, 39
2, 50300, Note_on_c, 0, 74, 0
2, 50300, Note_on_c, 0, 76, 39
2, 50320, Note_on_c, 0, 76, 0
2, 50320, Note_on_c, 0, 74, 39
2, 50340, Note_on_c, 0, 74, 0
2, 50340, Note_on_c, 0, 73, 39
2, 50370, Note_on_c, 0, 73, 0
2, 50370, Note_on_c, 0, 74, 39
2, 50400, Note_on_c, 0, 74, 0
2, 50400, Note_on_c, 0, 79, 39
2, 50430, Note_on_c, 0, 79, 0
2, 50520, Note_on_c, 0, 79, 39
2, 50550, Note_on_c, 0, 79, 0
2, 50760, Note_on_c, 0, 74, 39
2, 50780, Note_on_c, 0, 74, 0
2, 50780, Note_on_c, 0, 76, 39
2, 50800, Note_on_c, 0, 76, 0
2, 50800, Note_on_c, 0, 74, 39
2, 50820, Note_on_c, 0, 74, 0
2, 50820, Note_on_c, 0, 73, 39
2, 50850, Note_on_c, 0, 73, 0
2, 50850, Note_on_c, 0, 74, 39
2, 50880, Note_on_c, 0, 74, 0
2, 50880, Note_on_c, 0, 79, 39
2, 50910, Note_on_c, 0, 79, 0
2, 51000, Note_on_c, 0, 79, 39
2, 51030, Note_on_c, 0, 79, 0
2, 51240, Note_on_c, 0, 74, 39
2, 51260, Note_on_c, 0, 74, 0
2, 51260, Note_on_c, 0, 76, 39
2, 51280, Note_on_c, 0, 76, 0
2, 51280, Note_on_c, 0, 74, 39
2, 51300, Note_on_c, 0, 74, 0
2, 51300, Note_on_c, 0, 73, 39
2, 51330, Note_on_c, 0, 73, 0
2, 51330, Note_on_c, 0, 74, 39
2, 51360, Note_on_c, 0, 74, 0
2, 51360, Note_on_c, 0, 79, 39
2, 51390, Note_on_c, 0, 79, 0
2, 51480, Note_on_c, 0, 79, 41
2, 51500, Note_on_c, 0, 79, 0
2, 51500, Note_on_c, 0, 81, 41
2, 51520, Note_on_c, 0, 81, 0
2, 51520, Note_on_c, 0, 79, 41
2, 51540, Note_on_c, 0, 79, 0
2, 51540, Note_on_c, 0, 78, 42
2, 51570, Note_on_c, 0, 78, 0
2, 51570, Note_on_c, 0, 79, 42
2, 51600, Note_on_c, 0, 79, 0
2, 51600, Note_on_c, 0, 81, 43
2, 51630, Note_on_c, 0, 81, 0
2, 51720, Note_on_c, 0, 81, 45
2, 51740, Note_on_c, 0, 81, 0
2, 51740, Note_on_c, 0, 83, 45
2, 51760, Note_on_c, 0, 83, 0
2, 51760, Note_on_c, 0, 81, 45
2, 51780, Note_on_c, 0, 81, 0
2, 51780, Note_on_c, 0, 79, 46
2, 51810, Note_on_c, 0, 79, 0
2, 51810, Note_on_c, 0, 81, 46
2, 51840, Note_on_c, 0, 81, 0
2, 51840, Note_on_c, 0, 83, 47
2, 51870, Note_on_c, 0, 83, 0
2, 51960, Note_on_c, 0, 83, 49
2, 51980, Note_on_c, 0, 83, 0
2, 51980, Note_on_c, 0, 84, 49
2, 52000, Note_on_c, 0, 84, 0
2, 52000, Note_on_c, 0, 83, 50
2, 52020, Note_on_c, 0, 83, 0
2, 52020, Note_on_c, 0, 81, 50
2, 52050, Note_on_c, 0, 81, 0
2, 52050, Note_on_c, 0, 83, 51
2, 52080, Note_on_c, 0, 83, 0
2, 52080, Note_on_c, 0, 84, 51
2, 52110, Note_on_c, 0, 84, 0
2, 52200, Note_on_c, 0, 84, 53
2, 52220, Note_on_c, 0, 84, 0
2, 52220, Note_on_c, 0, 86, 54
2, 52240, Note_on_c, 0, 86, 0
2, 52240, Note_on_c, 0, 84, 54
2, 52260, Note_on_c, 0, 84, 0
2, 52260, Note_on_c, 0, 83, 54
2, 52290, Note_on_c, 0, 83, 0
2, 52290, Note_on_c, 0, 84, 55
2, 52320, Note_on_c, 0, 84, 0
2, 52320, Note_on_c, 0, 86, 56
2, 52680, Note_on_c, 0, 86, 0
2, 52680, Note_on_c, 0, 75, 55
2, 52680, Note_on_c, 0, 87, 55
2, 52800, Note_on_c, 0, 87, 0
2, 52800, Note_on_c, 0, 75, 0
2, 52800, Note_on_c, 0, 76, 55
2, 52800, Note_on_c, 0, 88, 55
2, 52920, Note_on_c, 0, 88, 0
2, 52920, Note_on_c, 0, 76, 0
2, 52920, Note_on_c, 0, 68, 46
2, 52920, Note_on_c, 0, 80, 46
2, 53040, Note_on_c, 0, 80, 0
2, 53040, Note_on_c, 0, 68, 0
2, 53040, Note_on_c, 0, 69, 49
2, 53040, Note_on_c, 0, 81, 49
2, 53160, Note_on_c, 0, 81, 0
2, 53160, Note_on_c, 0, 69, 0
2, 53160, Note_on_c, 0, 71, 53
2, 53160, Note_on_c, 0, 83, 53
2, 53280, Note_on_c, 0, 83, 0
2, 53280, Note_on_c, 0, 71, 0
2, 53280, Note_on_c, 0, 72, 56
2, 53280, Note_on_c, 0, 84, 56
2, 53520, Note_on_c, 0, 84, 0
2, 53520, Note_on_c, 0, 72, 0
2, 53520, Note_on_c, 0, 74, 56
2, 53520, Note_on_c, 0, 86, 56
2, 53640, Note_on_c, 0, 86, 0
2, 53640, Note_on_c, 0, 74, 0
2, 53640, Note_on_c, 0, 76, 56
2, 53640, Note_on_c, 0, 88, 56
2, 53760, Note_on_c, 0, 88, 0
2, 53760, Note_on_c, 0, 76, 0
2, 53760, Note_on_c, 0, 79, 39
2, 53760, Note_on_c, 0, 74, 39
2, 54000, Note_on_c, 0, 74, 0
2, 54000, Note_on_c, 0, 79, 0
2, 54000, Note_on_c, 0, 83, 39
2, 54000, Note_on_c, 0, 78, 39
2, 54060, Note_on_c, 0, 83, 0
2, 54060, Note_on_c, 0, 81, 39
2, 54180, Note_on_c, 0, 81, 0
2, 54180, Note_on_c, 0, 79, 39
2, 54240, Note_on_c, 0, 79, 0
2, 54240, Note_on_c, 0, 78, 0
2, 54240, Note_on_c, 0, 79, 39
2, 54480, Note_on_c, 0, 79, 0
2, 54600, Note_on_c, 0, 83, 41
2, 54640, Note_on_c, 0, 83, 0
2, 54640, Note_on_c, 0, 87, 44
2, 54680, Note_on_c, 0, 87, 0
2, 54680, Note_on_c, 0, 88, 47
2, 54720, Note_on_c, 0, 88, 0
2, 54720, Note_on_c, 0, 86, 39
2, 54750, Note_on_c, 0, 86, 0
2, 54840, Note_on_c, 0, 86, 39
2, 54870, Note_on_c, 0, 86, 0
2, 54960, Note_on_c, 0, 86, 39
2, 54990, Note_on_c, 0, 86, 0
2, 55080, Note_on_c, 0, 79, 39
2, 55120, Note_on_c, 0, 79, 0
2, 55120, Note_on_c, 0, 83, 40
2, 55160, Note_on_c, 0, 83, 0
2, 55160, Note_on_c, 0, 84, 42
2, 55200, Note_on_c, 0, 84, 0
2, 55200, Note_on_c, 0, 83, 43
2, 55230, Note_on_c, 0, 83, 0
2, 55320, Note_on_c, 0, 83, 39
2, 55350, Note_on_c, 0, 83, 0
2, 55440, Note_on_c, 0, 83, 39
2, 55470, Note_on_c, 0, 83, 0
2, 55560, Note_on_c, 0, 76, 38
2, 55600, Note_on_c, 0, 76, 0
2, 55600, Note_on_c, 0, 80, 40
2, 55640, Note_on_c, 0, 80, 0
2, 55640, Note_on_c, 0, 81, 41
2, 55680, Note_on_c, 0, 81, 0
2, 55680, Note_on_c, 0, 79, 43
2, 55720, Note_on_c, 0, 79, 0
2, 55800, Note_on_c, 0, 79, 39
2, 55840, Note_on_c, 0, 79, 0
2, 55920, Note_on_c, 0, 79, 39
2, 55960, Note_on_c, 0, 79, 0
2, 56040, Note_on_c, 0, 83, 46
2, 56130, Note_on_c, 0, 83, 0
2, 56130, Note_on_c, 0, 79, 41
2, 56160, Note_on_c, 0, 79, 0
2, 56160, Note_on_c, 0, 76, 39
2, 56220, Note_on_c, 0, 76, 0
2, 56280, Note_on_c, 0, 84, 42
2, 56370, Note_on_c, 0, 84, 0
2, 56370, Note_on_c, 0, 81, 41
2, 56400, Note_on_c, 0, 81, 0
2, 56400, Note_on_c, 0, 78, 40
2, 56460, Note_on_c, 0, 78, 0
2, 56520, Note_on_c, 0, 81, 39
2, 56610, Note_on_c, 0, 81, 0
2, 56610, Note_on_c, 0, 78, 39
2, 56640, Note_on_c, 0, 78, 0
2, 56640, Note_on_c, 0, 79, 39
2, 56760, Note_on_c, 0, 79, 0
2, 57000, Note_on_c, 0, 83, 50
2, 57040, Note_on_c, 0, 87, 44
2, 57080, Note_on_c, 0, 87, 0
2, 57080, Note_on_c, 0, 83, 0
2, 57080, Note_on_c, 0, 88, 39
2, 57120, Note_on_c, 0, 88, 0
2, 57120, Note_on_c, 0, 81, 39
2, 57160, Note_on_c, 0, 81, 0
2, 57160, Note_on_c, 0, 85, 39
2, 57200, Note_on_c, 0, 85, 0
2, 57200, Note_on_c, 0, 86, 39
2, 57240, Note_on_c, 0, 86, 0
2, 57240, Note_on_c, 0, 81, 39
2, 57280, Note_on_c, 0, 81, 0
2, 57280, Note_on_c, 0, 85, 39
2, 57320, Note_on_c, 0, 85, 0
2, 57320, Note_on_c, 0, 86, 39
2, 57360, Note_on_c, 0, 86, 0
2, 57360, Note_on_c, 0, 81, 39
2, 57400, Note_on_c, 0, 81, 0
2, 57400, Note_on_c, 0, 85, 39
2, 57440, Note_on_c, 0, 85, 0
2, 57440, Note_on_c, 0, 86, 39
2, 57480, Note_on_c, 0, 86, 0
2, 57480, Note_on_c, 0, 83, 47
2, 57520, Note_on_c, 0, 87, 45
2, 57560, Note_on_c, 0, 87, 0
2, 57560, Note_on_c, 0, 83, 0
2, 57560, Note_on_c, 0, 88, 43
2, 57600, Note_on_c, 0, 88, 0
2, 57600, Note_on_c, 0, 81, 40
2, 57640, Note_on_c, 0, 81, 0
2, 57640, Note_on_c, 0, 85, 39
2, 57680, Note_on_c, 0, 85, 0
2, 57680, Note_on_c, 0, 86, 39
2, 57720, Note_on_c, 0, 86, 0
2, 57720, Note_on_c, 0, 81, 39
2, 57760, Note_on_c, 0, 81, 0
2, 57760, Note_on_c, 0, 85, 39
2, 57800, Note_on_c, 0, 85, 0
2, 57800, Note_on_c, 0, 86, 39
2, 57840, Note_on_c, 0, 86, 0
2, 57840, Note_on_c, 0, 81, 39
2, 57880, Note_on_c, 0, 81, 0
2, 57880, Note_on_c, 0, 85, 39
2, 57920, Note_on_c, 0, 85, 0
2, 57920, Note_on_c, 0, 86, 39
2, 57960, Note_on_c, 0, 86, 0
2, 57960, Note_on_c, 0, 79, 48
2, 58000, Note_on_c, 0, 83, 45
2, 58040, Note_on_c, 0, 83, 0
2, 58040, Note_on_c, 0, 79, 0
2, 58040, Note_on_c, 0, 84, 42
2, 58080, Note_on_c, 0, 84, 0
2, 58080, Note_on_c, 0, 78, 39
2, 58120, Note_on_c, 0, 78, 0
2, 58120, Note_on_c, 0, 82, 39
2, 58160, Note_on_c, 0, 82, 0
2, 58160, Note_on_c, 0, 83, 39
2, 58200, Note_on_c, 0, 83, 0
2, 58200, Note_on_c, 0, 78, 39
2, 58240, Note_on_c, 0, 78, 0
2, 58240, Note_on_c, 0, 82, 39
2, 58280, Note_on_c, 0, 82, 0
2, 58280, Note_on_c, 0, 83, 39
2, 58320, Note_on_c, 0, 83, 0
2, 58320, Note_on_c, 0, 78, 39
2, 58360, Note_on_c, 0, 78, 0
2, 58360, Note_on_c, 0, 82, 39
2, 58400, Note_on_c, 0, 82, 0
2, 58400, Note_on_c, 0, 83, 39
2, 58440, Note_on_c, 0, 83, 0
2, 58440, Note_on_c, 0, 79, 48
2, 58480, Note_on_c, 0, 83, 45
2, 58520, Note_on_c, 0, 83, 0
2, 58520, Note_on_c, 0, 79, 0
2, 58520, Note_on_c, 0, 84, 42
2, 58560, Note_on_c, 0, 84, 0
2, 58560, Note_on_c, 0, 78, 39
2, 58600, Note_on_c, 0, 78, 0
2, 58600, Note_on_c, 0, 82, 39
2, 58640, Note_on_c, 0, 82, 0
2, 58640, Note_on_c, 0, 83, 39
2, 58680, Note_on_c, 0, 83, 0
2, 58680, Note_on_c, 0, 78, 39
2, 58720, Note_on_c, 0, 78, 0
2, 58720, Note_on_c, 0, 82, 39
2, 58760, Note_on_c, 0, 82, 0
2, 58760, Note_on_c, 0, 83, 39
2, 58800, Note_on_c, 0, 83, 0
2, 58800, Note_on_c, 0, 78, 39
2, 58840, Note_on_c, 0, 78, 0
2, 58840, Note_on_c, 0, 82, 39
2, 58880, Note_on_c, 0, 82, 0
2, 58880, Note_on_c, 0, 83, 39
2, 58920, Note_on_c, 0, 83, 0
2, 58920, Note_on_c, 0, 76, 49
2, 58960, Note_on_c, 0, 80, 45
2, 59000, Note_on_c, 0, 80, 0
2, 59000, Note_on_c, 0, 76, 0
2, 59000, Note_on_c, 0, 81, 41
2, 59040, Note_on_c, 0, 81, 0
2, 59040, Note_on_c, 0, 74, 39
2, 59080, Note_on_c, 0, 74, 0
2, 59080, Note_on_c, 0, 78, 39
2, 59120, Note_on_c, 0, 78, 0
2, 59120, Note_on_c, 0, 79, 39
2, 59160, Note_on_c, 0, 79, 0
2, 59160, Note_on_c, 0, 74, 39
2, 59200, Note_on_c, 0, 74, 0
2, 59200, Note_on_c, 0, 78, 39
2, 59240, Note_on_c, 0, 78, 0
2, 59240, Note_on_c, 0, 79, 39
2, 59280, Note_on_c, 0, 79, 0
2, 59280, Note_on_c, 0, 74, 39
2, 59320, Note_on_c, 0, 74, 0
2, 59320, Note_on_c, 0, 78, 39
2, 59360, Note_on_c, 0, 78, 0
2, 59360, Note_on_c, 0, 79, 39
2, 59400, Note_on_c, 0, 79, 0
2, 59400, Note_on_c, 0, 76, 47
2, 59440, Note_on_c, 0, 80, 43
2, 59480, Note_on_c, 0, 80, 0
2, 59480, Note_on_c, 0, 76, 0
2, 59480, Note_on_c, 0, 81, 39
2, 59520, Note_on_c, 0, 81, 0
2, 59520, Note_on_c, 0, 74, 39
2, 59560, Note_on_c, 0, 74, 0
2, 59560, Note_on_c, 0, 78, 39
2, 59600, Note_on_c, 0, 78, 0
2, 59600, Note_on_c, 0, 79, 39
2, 59640, Note_on_c, 0, 79, 0
2, 59640, Note_on_c, 0, 74, 39
2, 59680, Note_on_c, 0, 74, 0
2, 59680, Note_on_c, 0, 78, 39
2, 59720, Note_on_c, 0, 78, 0
2, 59720, Note_on_c, 0, 79, 39
2, 59760, Note_on_c, 0, 79, 0
2, 59760, Note_on_c, 0, 74, 39
2, 59800, Note_on_c, 0, 74, 0
2, 59800, Note_on_c, 0, 78, 39
2, 59840, Note_on_c, 0, 78, 0
2, 59840, Note_on_c, 0, 79, 39
2, 59880, Note_on_c, 0, 79, 0
2, 59880, Note_on_c, 0, 76, 46
2, 59920, Note_on_c, 0, 80, 43
2, 59960, Note_on_c, 0, 80, 0
2, 59960, Note_on_c, 0, 76, 0
2, 59960, Note_on_c, 0, 81, 40
2, 60000, Note_on_c, 0, 81, 0
2, 60000, Note_on_c, 0, 74, 39
2, 60040, Note_on_c, 0, 78, 41
2, 60080, Note_on_c, 0, 78, 0
2, 60080, Note_on_c, 0, 74, 0
2, 60080, Note_on_c, 0, 79, 42
2, 60120, Note_on_c, 0, 79, 0
2, 60120, Note_on_c, 0, 74, 43
2, 60160, Note_on_c, 0, 80, 45
2, 60200, Note_on_c, 0, 80, 0
2, 60200, Note_on_c, 0, 74, 0
2, 60200, Note_on_c, 0, 81, 46
2, 60240, Note_on_c, 0, 81, 0
2, 60240, Note_on_c, 0, 74, 47
2, 60280, Note_on_c, 0, 82, 48
2, 60320, Note_on_c, 0, 82, 0
2, 60320, Note_on_c, 0, 74, 0
2, 60320, Note_on_c, 0, 83, 50
2, 60360, Note_on_c, 0, 83, 0
2, 60360, Note_on_c, 0, 74, 51
2, 60400, Note_on_c, 0, 83, 52
2, 60440, Note_on_c, 0, 83, 0
2, 60440, Note_on_c, 0, 74, 0
2, 60440, Note_on_c, 0, 84, 54
2, 60480, Note_on_c, 0, 84, 0
2, 60480, Note_on_c, 0, 74, 55
2, 60520, Note_on_c, 0, 85, 56
2, 60560, Note_on_c, 0, 85, 0
2, 60560, Note_on_c, 0, 74, 0
2, 60560, Note_on_c, 0, 86, 58
2, 60600, Note_on_c, 0, 86, 0
2, 60600, Note_on_c, 0, 84, 56
2, 60640, Note_on_c, 0, 84, 0
2, 60640, Note_on_c, 0, 83, 54
2, 60680, Note_on_c, 0, 83, 0
2, 60680, Note_on_c, 0, 81, 52
2, 60720, Note_on_c, 0, 81, 0
2, 60720, Note_on_c, 0, 79, 50
2, 60760, Note_on_c, 0, 79, 0
2, 60760, Note_on_c, 0, 78, 48
2, 60800, Note_on_c, 0, 78, 0
2, 60800, Note_on_c, 0, 76, 46
2, 60840, Note_on_c, 0, 76, 0
2, 60840, Note_on_c, 0, 74, 44
2, 60880, Note_on_c, 0, 74, 0
2, 60880, Note_on_c, 0, 72, 42
2, 60920, Note_on_c, 0, 72, 0
2, 60920, Note_on_c, 0, 71, 40
2, 60960, Note_on_c, 0, 71, 0
2, 60960, Note_on_c, 0, 69, 39
2, 61000, Note_on_c, 0, 69, 0
2, 61000, Note_on_c, 0, 76, 48
2, 61040, Note_on_c, 0, 76, 0
2, 61040, Note_on_c, 0, 74, 47
2, 61080, Note_on_c, 0, 74, 0
2, 61080, Note_on_c, 0, 72, 45
2, 61120, Note_on_c, 0, 72, 0
2, 61120, Note_on_c, 0, 71, 43
2, 61160, Note_on_c, 0, 71, 0
2, 61160, Note_on_c, 0, 69, 41
2, 61200, Note_on_c, 0, 69, 0
2, 61200, Note_on_c, 0, 67, 40
2, 61320, Note_on_c, 0, 67, 0
2, 61320, Note_on_c, 0, 66, 39
2, 61440, Note_on_c, 0, 66, 0
2, 61480, Note_on_c, 0, 85, 56
2, 61520, Note_on_c, 0, 85, 0
2, 61520, Note_on_c, 0, 86, 58
2, 61560, Note_on_c, 0, 86, 0
2, 61560, Note_on_c, 0, 84, 56
2, 61600, Note_on_c, 0, 84, 0
2, 61600, Note_on_c, 0, 83, 54
2, 61640, Note_on_c, 0, 83, 0
2, 61640, Note_on_c, 0, 81, 52
2, 61680, Note_on_c, 0, 81, 0
2, 61680, Note_on_c, 0, 79, 50
2, 61720, Note_on_c, 0, 79, 0
2, 61720, Note_on_c, 0, 78, 48
2, 61760, Note_on_c, 0, 78, 0
2, 61760, Note_on_c, 0, 76, 46
2, 61800, Note_on_c, 0, 76, 0
2, 61800, Note_on_c, 0, 74, 44
2, 61840, Note_on_c, 0, 74, 0
2, 61840, Note_on_c, 0, 72, 42
2, 61880, Note_on_c, 0, 72, 0
2, 61880, Note_on_c, 0, 71, 40
2, 61920, Note_on_c, 0, 71, 0
2, 61920, Note_on_c, 0, 69, 39
2, 61960, Note_on_c, 0, 69, 0
2, 61960, Note_on_c, 0, 76, 48
2, 62000, Note_on_c, 0, 76, 0
2, 62000, Note_on_c, 0, 74, 47
2, 62040, Note_on_c, 0, 74, 0
2, 62040, Note_on_c, 0, 72, 45
2, 62080, Note_on_c, 0, 72, 0
2, 62080, Note_on_c, 0, 71, 43
2, 62120, Note_on_c, 0, 71, 0
2, 62120, Note_on_c, 0, 69, 41
2, 62160, Note_on_c, 0, 69, 0
2, 62160, Note_on_c, 0, 67, 40
2, 62280, Note_on_c, 0, 67, 0
2, 62280, Note_on_c, 0, 66, 39
2, 62295, Note_on_c, 0, 66, 0
2, 62295, Note_on_c, 0, 67, 39
2, 62310, Note_on_c, 0, 67, 0
2, 62310, Note_on_c, 0, 66, 39
2, 62400, Note_on_c, 0, 66, 0
2, 62400, Note_on_c, 0, 67, 39
2, 62520, Note_on_c, 0, 67, 0
2, 62760, Note_on_c, 0, 74, 39
2, 62850, Note_on_c, 0, 74, 0
2, 62850, Note_on_c, 0, 78, 39
2, 62880, Note_on_c, 0, 78, 0
2, 62880, Note_on_c, 0, 79, 39
2, 62910, Note_on_c, 0, 79, 0
2, 63000, Note_on_c, 0, 79, 39
2, 63030, Note_on_c, 0, 79, 0
2, 63120, Note_on_c, 0, 79, 39
2, 63150, Note_on_c, 0, 79, 0
2, 63240, Note_on_c, 0, 81, 41
2, 63255, Note_on_c, 0, 81, 0
2, 63255, Note_on_c, 0, 83, 42
2, 63270, Note_on_c, 0, 83, 0
2, 63270, Note_on_c, 0, 81, 44
2, 63330, Note_on_c, 0, 81, 0
2, 63330, Note_on_c, 0, 86, 48
2, 63360, Note_on_c, 0, 86, 0
2, 63360, Note_on_c, 0, 83, 47
2, 63480, Note_on_c, 0, 83, 0
2, 63480, Note_on_c, 0, 79, 38
2, 63510, Note_on_c, 0, 79, 0
2, 63600, Note_on_c, 0, 79, 39
2, 63630, Note_on_c, 0, 79, 0
2, 63720, Note_on_c, 0, 74, 51
2, 63810, Note_on_c, 0, 74, 0
2, 63810, Note_on_c, 0, 78, 48
2, 63840, Note_on_c, 0, 78, 0
2, 63840, Note_on_c, 0, 79, 47
2, 63870, Note_on_c, 0, 79, 0
2, 63960, Note_on_c, 0, 79, 46
2, 63990, Note_on_c, 0, 79, 0
2, 64080, Note_on_c, 0, 79, 46
2, 64110, Note_on_c, 0, 79, 0
2, 64200, Note_on_c, 0, 81, 46
2, 64215, Note_on_c, 0, 81, 0
2, 64215, Note_on_c, 0, 83, 46
2, 64230, Note_on_c, 0, 83, 0
2, 64230, Note_on_c, 0, 81, 46
2, 64290, Note_on_c, 0, 81, 0
2, 64290, Note_on_c, 0, 83, 46
2, 64320, Note_on_c, 0, 83, 0
2, 64320, Note_on_c, 0, 79, 46
2, 64440, Note_on_c, 0, 79, 0
2, 64560, Note_on_c, 0, 71, 50
2, 64560, Note_on_c, 0, 74, 50
2, 64680, Note_on_c, 0, 74, 0
2, 64680, Note_on_c, 0, 71, 0
2, 64800, Note_on_c, 0, 67, 50
2, 64800, Note_on_c, 0, 71, 50
2, 65040, Note_on_c, 0, 71, 0
2, 65040, Note_on_c, 0, 67, 0
2, 65160, Note_on_c, 0, 79, 39
2, 65240, Note_on_c, 0, 79, 0
2, 65240, Note_on_c, 0, 81, 39
2, 65280, Note_on_c, 0, 81, 0
2, 65280, Note_on_c, 0, 77, 39
2, 65320, Note_on_c, 0, 77, 0
2, 65400, Note_on_c, 0, 77, 39
2, 65480, Note_on_c, 0, 77, 0
2, 65480, Note_on_c, 0, 79, 39
2, 65520, Note_on_c, 0, 79, 0
2, 65520, Note_on_c, 0, 76, 39
2, 65560, Note_on_c, 0, 76, 0
2, 65640, Note_on_c, 0, 76, 39
2, 65720, Note_on_c, 0, 76, 0
2, 65720, Note_on_c, 0, 77, 39
2, 65760, Note_on_c, 0, 77, 0
2, 65760, Note_on_c, 0, 74, 39
2, 65800, Note_on_c, 0, 74, 0
2, 65880, Note_on_c, 0, 74, 39
2, 65960, Note_on_c, 0, 74, 0
2, 65960, Note_on_c, 0, 76, 39
2, 66000, Note_on_c, 0, 76, 0
2, 66000, Note_on_c, 0, 72, 39
2, 66040, Note_on_c, 0, 72, 0
2, 66120, Note_on_c, 0, 72, 47
2, 66120, Note_on_c, 0, 76, 47
2, 66200, Note_on_c, 0, 76, 0
2, 66200, Note_on_c, 0, 72, 0
2, 66200, Note_on_c, 0, 77, 47
2, 66240, Note_on_c, 0, 77, 0
2, 66240, Note_on_c, 0, 71, 47
2, 66240, Note_on_c, 0, 74, 47
2, 66360, Note_on_c, 0, 74, 0
2, 66360, Note_on_c, 0, 71, 0
2, 66360, Note_on_c, 0, 71, 47
2, 66360, Note_on_c, 0, 74, 47
2, 66440, Note_on_c, 0, 74, 0
2, 66440, Note_on_c, 0, 71, 0
2, 66440, Note_on_c, 0, 76, 47
2, 66480, Note_on_c, 0, 76, 0
2, 66480, Note_on_c, 0, 69, 47
2, 66480, Note_on_c, 0, 72, 47
2, 66600, Note_on_c, 0, 72, 0
2, 66600, Note_on_c, 0, 69, 0
2, 66600, Note_on_c, 0, 69, 47
2, 66600, Note_on_c, 0, 72, 47
2, 66680, Note_on_c, 0, 72, 0
2, 66680, Note_on_c, 0, 69, 0
2, 66680, Note_on_c, 0, 74, 47
2, 66720, Note_on_c, 0, 74, 0
2, 66720, Note_on_c, 0, 68, 47
2, 66720, Note_on_c, 0, 71, 47
2, 67080, Note_on_c, 0, 71, 0
2, 67080, Note_on_c, 0, 68, 0
2, 67080, Note_on_c, 0, 77, 36
2, 67110, Note_on_c, 0, 77, 0
2, 67110, Note_on_c, 0, 79, 37
2, 67140, Note_on_c, 0, 79, 0
2, 67140, Note_on_c, 0, 81, 39
2, 67170, Note_on_c, 0, 81, 0
2, 67170, Note_on_c, 0, 82, 40
2, 67200, Note_on_c, 0, 82, 0
2, 67200, Note_on_c, 0, 84, 42
2, 67230, Note_on_c, 0, 84, 0
2, 67320, Note_on_c, 0, 84, 42
2, 67350, Note_on_c, 0, 84, 0
2, 67440, Note_on_c, 0, 84, 42
2, 67470, Note_on_c, 0, 84, 0
2, 67560, Note_on_c, 0, 88, 42
2, 67570, Note_on_c, 0, 89, 42
2, 67590, Note_on_c, 0, 88, 0
2, 67680, Note_on_c, 0, 89, 0
2, 67680, Note_on_c, 0, 84, 40
2, 67710, Note_on_c, 0, 84, 0
2, 67800, Note_on_c, 0, 84, 40
2, 67830, Note_on_c, 0, 84, 0
2, 67920, Note_on_c, 0, 84, 40
2, 67950, Note_on_c, 0, 84, 0
2, 68040, Note_on_c, 0, 82, 42
2, 68070, Note_on_c, 0, 82, 0
2, 68070, Note_on_c, 0, 81, 41
2, 68100, Note_on_c, 0, 81, 0
2, 68100, Note_on_c, 0, 79, 40
2, 68130, Note_on_c, 0, 79, 0
2, 68130, Note_on_c, 0, 77, 39
2, 68160, Note_on_c, 0, 77, 0
2, 68160, Note_on_c, 0, 76, 38
2, 68190, Note_on_c, 0, 76, 0
2, 68280, Note_on_c, 0, 76, 38
2, 68310, Note_on_c, 0, 76, 0
2, 68400, Note_on_c, 0, 77, 39
2, 68430, Note_on_c, 0, 77, 0
2, 68520, Note_on_c, 0, 77, 40
2, 68550, Note_on_c, 0, 77, 0
2, 68640, Note_on_c, 0, 79, 41
2, 68760, Note_on_c, 0, 79, 0
2, 69000, Note_on_c, 0, 72, 37
2, 69090, Note_on_c, 0, 72, 0
2, 69090, Note_on_c, 0, 79, 42
2, 69120, Note_on_c, 0, 79, 0
2, 69120, Note_on_c, 0, 82, 43
2, 69150, Note_on_c, 0, 82, 0
2, 69240, Note_on_c, 0, 82, 44
2, 69330, Note_on_c, 0, 82, 0
2, 69330, Note_on_c, 0, 84, 44
2, 69360, Note_on_c, 0, 84, 0
2, 69360, Note_on_c, 0, 81, 43
2, 69390, Note_on_c, 0, 81, 0
2, 69480, Note_on_c, 0, 81, 43
2, 69570, Note_on_c, 0, 81, 0
2, 69570, Note_on_c, 0, 82, 42
2, 69600, Note_on_c, 0, 82, 0
2, 69600, Note_on_c, 0, 79, 42
2, 69630, Note_on_c, 0, 79, 0
2, 69720, Note_on_c, 0, 79, 42
2, 69810, Note_on_c, 0, 79, 0
2, 69810, Note_on_c, 0, 81, 41
2, 69840, Note_on_c, 0, 81, 0
2, 69840, Note_on_c, 0, 77, 41
2, 69870, Note_on_c, 0, 77, 0
2, 69960, Note_on_c, 0, 77, 41
2, 69990, Note_on_c, 0, 77, 0
2, 70080, Note_on_c, 0, 79, 47
2, 70140, Note_on_c, 0, 79, 0
2, 70200, Note_on_c, 0, 79, 45
2, 70230, Note_on_c, 0, 79, 0
2, 70320, Note_on_c, 0, 76, 42
2, 70380, Note_on_c, 0, 76, 0
2, 70440, Note_on_c, 0, 76, 39
2, 70470, Note_on_c, 0, 76, 0
2, 70560, Note_on_c, 0, 77, 36
2, 70600, Note_on_c, 0, 72, 36
2, 70640, Note_on_c, 0, 69, 36
2, 70680, Note_on_c, 0, 69, 0
2, 70680, Note_on_c, 0, 72, 0
2, 70680, Note_on_c, 0, 77, 0
2, 70680, Note_on_c, 0, 77, 36
2, 70720, Note_on_c, 0, 77, 0
2, 70720, Note_on_c, 0, 72, 36
2, 70760, Note_on_c, 0, 72, 0
2, 70760, Note_on_c, 0, 69, 36
2, 70800, Note_on_c, 0, 69, 0
2, 70800, Note_on_c, 0, 77, 36
2, 70840, Note_on_c, 0, 77, 0
2, 70840, Note_on_c, 0, 72, 36
2, 70880, Note_on_c, 0, 72, 0
2, 70880, Note_on_c, 0, 69, 36
2, 70920, Note_on_c, 0, 69, 0
2, 70920, Note_on_c, 0, 76, 41
2, 70960, Note_on_c, 0, 72, 39
2, 71000, Note_on_c, 0, 70, 37
2, 71040, Note_on_c, 0, 70, 0
2, 71040, Note_on_c, 0, 72, 0
2, 71040, Note_on_c, 0, 76, 0
2, 71040, Note_on_c, 0, 77, 35
2, 71080, Note_on_c, 0, 77, 0
2, 71080, Note_on_c, 0, 72, 36
2, 71120, Note_on_c, 0, 72, 0
2, 71120, Note_on_c, 0, 69, 36
2, 71160, Note_on_c, 0, 69, 0
2, 71160, Note_on_c, 0, 77, 36
2, 71200, Note_on_c, 0, 77, 0
2, 71200, Note_on_c, 0, 72, 36
2, 71240, Note_on_c, 0, 72, 0
2, 71240, Note_on_c, 0, 69, 36
2, 71280, Note_on_c, 0, 69, 0
2, 71280, Note_on_c, 0, 77, 36
2, 71320, Note_on_c, 0, 77, 0
2, 71320, Note_on_c, 0, 72, 36
2, 71360, Note_on_c, 0, 72, 0
2, 71360, Note_on_c, 0, 69, 36
2, 71400, Note_on_c, 0, 69, 0
2, 71400, Note_on_c, 0, 76, 40
2, 71440, Note_on_c, 0, 72, 39
2, 71480, Note_on_c, 0, 70, 38
2, 71520, Note_on_c, 0, 70, 0
2, 71520, Note_on_c, 0, 72, 0
2, 71520, Note_on_c, 0, 76, 0
2, 71520, Note_on_c, 0, 77, 37
2, 71560, Note_on_c, 0, 77, 0
2, 71560, Note_on_c, 0, 72, 36
2, 71600, Note_on_c, 0, 72, 0
2, 71600, Note_on_c, 0, 69, 36
2, 71640, Note_on_c, 0, 69, 0
2, 71640, Note_on_c, 0, 77, 36
2, 71680, Note_on_c, 0, 77, 0
2, 71680, Note_on_c, 0, 72, 36
2, 71720, Note_on_c, 0, 72, 0
2, 71720, Note_on_c, 0, 69, 36
2, 71760, Note_on_c, 0, 69, 0
2, 71760, Note_on_c, 0, 77, 36
2, 71800, Note_on_c, 0, 77, 0
2, 71800, Note_on_c, 0, 72, 36
2, 71840, Note_on_c, 0, 72, 0
2, 71840, Note_on_c, 0, 69, 36
2, 71880, Note_on_c, 0, 69, 0
2, 71880, Note_on_c, 0, 78, 42
2, 71920, Note_on_c, 0, 74, 40
2, 71960, Note_on_c, 0, 72, 38
2, 72000, Note_on_c, 0, 72, 0
2, 72000, Note_on_c, 0, 74, 0
2, 72000, Note_on_c, 0, 78, 0
2, 72000, Note_on_c, 0, 79, 36
2, 72040, Note_on_c, 0, 79, 0
2, 72040, Note_on_c, 0, 74, 36
2, 72080, Note_on_c, 0, 74, 0
2, 72080, Note_on_c, 0, 71, 36
2, 72120, Note_on_c, 0, 71, 0
2, 72120, Note_on_c, 0, 79, 36
2, 72160, Note_on_c, 0, 79, 0
2, 72160, Note_on_c, 0, 74, 36
2, 72200, Note_on_c, 0, 74, 0
2, 72200, Note_on_c, 0, 71, 36
2, 72240, Note_on_c, 0, 71, 0
2, 72240, Note_on_c, 0, 79, 36
2, 72280, Note_on_c, 0, 79, 0
2, 72280, Note_on_c, 0, 74, 36
2, 72320, Note_on_c, 0, 74, 0
2, 72320, Note_on_c, 0, 71, 36
2, 72360, Note_on_c, 0, 71, 0
2, 72360, Note_on_c, 0, 80, 42
2, 72400, Note_on_c, 0, 76, 41
2, 72440, Note_on_c, 0, 76, 0
2, 72440, Note_on_c, 0, 74, 39
2, 72480, Note_on_c, 0, 74, 0
2, 72480, Note_on_c, 0, 80, 0
2, 72480, Note_on_c, 0, 81, 36
2, 72520, Note_on_c, 0, 81, 0
2, 72520, Note_on_c, 0, 76, 36
2, 72560, Note_on_c, 0, 76, 0
2, 72560, Note_on_c, 0, 72, 36
2, 72600, Note_on_c, 0, 72, 0
2, 72600, Note_on_c, 0, 81, 36
2, 72640, Note_on_c, 0, 81, 0
2, 72640, Note_on_c, 0, 76, 36
2, 72680, Note_on_c, 0, 76, 0
2, 72680, Note_on_c, 0, 72, 36
2, 72720, Note_on_c, 0, 72, 0
2, 72720, Note_on_c, 0, 81, 36
2, 72760, Note_on_c, 0, 81, 0
2, 72760, Note_on_c, 0, 76, 36
2, 72800, Note_on_c, 0, 76, 0
2, 72800, Note_on_c, 0, 72, 36
2, 72840, Note_on_c, 0, 72, 0
2, 72840, Note_on_c, 0, 83, 44
2, 72880, Note_on_c, 0, 80, 36
2, 72920, Note_on_c, 0, 80, 0
2, 72920, Note_on_c, 0, 76, 36
2, 72960, Note_on_c, 0, 76, 0
2, 72960, Note_on_c, 0, 83, 0
2, 72960, Note_on_c, 0, 84, 43
2, 73000, Note_on_c, 0, 81, 36
2, 73040, Note_on_c, 0, 81, 0
2, 73040, Note_on_c, 0, 76, 36
2, 73080, Note_on_c, 0, 76, 0
2, 73080, Note_on_c, 0, 84, 0
2, 73080, Note_on_c, 0, 86, 43
2, 73120, Note_on_c, 0, 83, 36
2, 73160, Note_on_c, 0, 83, 0
2, 73160, Note_on_c, 0, 76, 36
2, 73200, Note_on_c, 0, 76, 0
2, 73200, Note_on_c, 0, 86, 0
2, 73200, Note_on_c, 0, 88, 41
2, 73240, Note_on_c, 0, 84, 36
2, 73280, Note_on_c, 0, 84, 0
2, 73280, Note_on_c, 0, 76, 36
2, 73320, Note_on_c, 0, 76, 0
2, 73320, Note_on_c, 0, 88, 0
2, 73320, Note_on_c, 0, 84, 42
2, 73360, Note_on_c, 0, 81, 36
2, 73400, Note_on_c, 0, 81, 0
2, 73400, Note_on_c, 0, 76, 36
2, 73440, Note_on_c, 0, 76, 0
2, 73440, Note_on_c, 0, 84, 0
2, 73440, Note_on_c, 0, 83, 41
2, 73480, Note_on_c, 0, 80, 36
2, 73520, Note_on_c, 0, 80, 0
2, 73520, Note_on_c, 0, 76, 36
2, 73560, Note_on_c, 0, 76, 0
2, 73560, Note_on_c, 0, 83, 0
2, 73560, Note_on_c, 0, 84, 42
2, 73600, Note_on_c, 0, 81, 36
2, 73640, Note_on_c, 0, 81, 0
2, 73640, Note_on_c, 0, 76, 36
2, 73680, Note_on_c, 0, 76, 0
2, 73680, Note_on_c, 0, 84, 0
2, 73680, Note_on_c, 0, 83, 42
2, 73720, Note_on_c, 0, 80, 36
2, 73760, Note_on_c, 0, 80, 0
2, 73760, Note_on_c, 0, 76, 36
2, 73800, Note_on_c, 0, 76, 0
2, 73800, Note_on_c, 0, 83, 0
2, 73800, Note_on_c, 0, 88, 45
2, 73840, Note_on_c, 0, 83, 41
2, 73880, Note_on_c, 0, 83, 0
2, 73880, Note_on_c, 0, 80, 37
2, 73920, Note_on_c, 0, 80, 0
2, 73920, Note_on_c, 0, 88, 0
2, 73920, Note_on_c, 0, 88, 45
2, 73960, Note_on_c, 0, 84, 35
2, 74000, Note_on_c, 0, 84, 0
2, 74000, Note_on_c, 0, 81, 35
2, 74040, Note_on_c, 0, 81, 0
2, 74040, Note_on_c, 0, 88, 0
2, 74040, Note_on_c, 0, 88, 42
2, 74080, Note_on_c, 0, 84, 35
2, 74120, Note_on_c, 0, 84, 0
2, 74120, Note_on_c, 0, 81, 35
2, 74160, Note_on_c, 0, 81, 0
2, 74160, Note_on_c, 0, 88, 0
2, 74160, Note_on_c, 0, 86, 40
2, 74200, Note_on_c, 0, 83, 35
2, 74240, Note_on_c, 0, 83, 0
2, 74240, Note_on_c, 0, 81, 35
2, 74280, Note_on_c, 0, 81, 0
2, 74280, Note_on_c, 0, 86, 0
2, 74280, Note_on_c, 0, 86, 38
2, 74320, Note_on_c, 0, 83, 35
2, 74360, Note_on_c, 0, 83, 0
2, 74360, Note_on_c, 0, 81, 35
2, 74400, Note_on_c, 0, 81, 0
2, 74400, Note_on_c, 0, 86, 0
2, 74400, Note_on_c, 0, 86, 44
2, 74440, Note_on_c, 0, 83, 35
2, 74480, Note_on_c, 0, 83, 0
2, 74480, Note_on_c, 0, 80, 35
2, 74520, Note_on_c, 0, 80, 0
2, 74520, Note_on_c, 0, 86, 0
2, 74520, Note_on_c, 0, 86, 42
2, 74560, Note_on_c, 0, 83, 35
2, 74600, Note_on_c, 0, 83, 0
2, 74600, Note_on_c, 0, 80, 35
2, 74640, Note_on_c, 0, 80, 0
2, 74640, Note_on_c, 0, 86, 0
2, 74640, Note_on_c, 0, 85, 41
2, 74680, Note_on_c, 0, 81, 35
2, 74720, Note_on_c, 0, 81, 0
2, 74720, Note_on_c, 0, 79, 35
2, 74760, Note_on_c, 0, 79, 0
2, 74760, Note_on_c, 0, 85, 0
2, 74760, Note_on_c, 0, 85, 39
2, 74800, Note_on_c, 0, 81, 35
2, 74840, Note_on_c, 0, 81, 0
2, 74840, Note_on_c, 0, 79, 35
2, 74880, Note_on_c, 0, 79, 0
2, 74880, Note_on_c, 0, 85, 0
2, 74880, Note_on_c, 0, 84, 45
2, 74920, Note_on_c, 0, 81, 35
2, 74960, Note_on_c, 0, 81, 0
2, 74960, Note_on_c, 0, 78, 35
2, 75000, Note_on_c, 0, 78, 0
2, 75000, Note_on_c, 0, 84, 0
2, 75000, Note_on_c, 0, 84, 43
2, 75040, Note_on_c, 0, 81, 35
2, 75080, Note_on_c, 0, 81, 0
2, 75080, Note_on_c, 0, 78, 35
2, 75120, Note_on_c, 0, 78, 0
2, 75120, Note_on_c, 0, 84, 0
2, 75120, Note_on_c, 0, 83, 41
2, 75160, Note_on_c, 0, 79, 35
2, 75200, Note_on_c, 0, 79, 0
2, 75200, Note_on_c, 0, 77, 35
2, 75240, Note_on_c, 0, 77, 0
2, 75240, Note_on_c, 0, 83, 0
2, 75240, Note_on_c, 0, 83, 39
2, 75280, Note_on_c, 0, 79, 35
2, 75320, Note_on_c, 0, 79, 0
2, 75320, Note_on_c, 0, 77, 35
2, 75360, Note_on_c, 0, 77, 0
2, 75360, Note_on_c, 0, 83, 0
2, 75360, Note_on_c, 0, 82, 45
2, 75400, Note_on_c, 0, 79, 35
2, 75440, Note_on_c, 0, 79, 0
2, 75440, Note_on_c, 0, 76, 35
2, 75480, Note_on_c, 0, 76, 0
2, 75480, Note_on_c, 0, 82, 0
2, 75480, Note_on_c, 0, 82, 42
2, 75520, Note_on_c, 0, 79, 35
2, 75560, Note_on_c, 0, 79, 0
2, 75560, Note_on_c, 0, 76, 35
2, 75600, Note_on_c, 0, 76, 0
2, 75600, Note_on_c, 0, 82, 0
2, 75600, Note_on_c, 0, 81, 40
2, 75640, Note_on_c, 0, 77, 35
2, 75680, Note_on_c, 0, 77, 0
2, 75680, Note_on_c, 0, 72, 35
2, 75720, Note_on_c, 0, 72, 0
2, 75720, Note_on_c, 0, 81, 0
2, 75720, Note_on_c, 0, 81, 38
2, 75760, Note_on_c, 0, 77, 35
2, 75800, Note_on_c, 0, 77, 0
2, 75800, Note_on_c, 0, 72, 35
2, 75840, Note_on_c, 0, 72, 0
2, 75840, Note_on_c, 0, 81, 0
2, 75840, Note_on_c, 0, 82, 42
2, 75880, Note_on_c, 0, 79, 35
2, 75920, Note_on_c, 0, 79, 0
2, 75920, Note_on_c, 0, 76, 35
2, 75960, Note_on_c, 0, 76, 0
2, 75960, Note_on_c, 0, 82, 0
2, 75960, Note_on_c, 0, 82, 42
2, 76000, Note_on_c, 0, 79, 35
2, 76040, Note_on_c, 0, 79, 0
2, 76040, Note_on_c, 0, 76, 35
2, 76080, Note_on_c, 0, 76, 0
2, 76080, Note_on_c, 0, 82, 0
2, 76080, Note_on_c, 0, 81, 41
2, 76120, Note_on_c, 0, 77, 35
2, 76160, Note_on_c, 0, 77, 0
2, 76160, Note_on_c, 0, 72, 35
2, 76200, Note_on_c, 0, 72, 0
2, 76200, Note_on_c, 0, 81, 0
2, 76200, Note_on_c, 0, 81, 41
2, 76240, Note_on_c, 0, 77, 35
2, 76280, Note_on_c, 0, 77, 0
2, 76280, Note_on_c, 0, 72, 35
2, 76320, Note_on_c, 0, 72, 0
2, 76320, Note_on_c, 0, 81, 0
2, 76320, Note_on_c, 0, 81, 35
2, 76360, Note_on_c, 0, 81, 0
2, 76360, Note_on_c, 0, 77, 35
2, 76400, Note_on_c, 0, 77, 0
2, 76400, Note_on_c, 0, 72, 35
2, 76440, Note_on_c, 0, 72, 0
2, 76440, Note_on_c, 0, 81, 35
2, 76480, Note_on_c, 0, 81, 0
2, 76480, Note_on_c, 0, 77, 35
2, 76520, Note_on_c, 0, 77, 0
2, 76520, Note_on_c, 0, 72, 35
2, 76560, Note_on_c, 0, 72, 0
2, 76560, Note_on_c, 0, 81, 35
2, 76600, Note_on_c, 0, 81, 0
2, 76600, Note_on_c, 0, 76, 35
2, 76640, Note_on_c, 0, 76, 0
2, 76640, Note_on_c, 0, 72, 35
2, 76680, Note_on_c, 0, 72, 0
2, 76680, Note_on_c, 0, 81, 35
2, 76720, Note_on_c, 0, 81, 0
2, 76720, Note_on_c, 0, 76, 35
2, 76760, Note_on_c, 0, 76, 0
2, 76760, Note_on_c, 0, 72, 35
2, 76800, Note_on_c, 0, 72, 0
2, 76800, Note_on_c, 0, 81, 35
2, 76840, Note_on_c, 0, 81, 0
2, 76840, Note_on_c, 0, 78, 36
2, 76880, Note_on_c, 0, 78, 0
2, 76880, Note_on_c, 0, 72, 36
2, 76920, Note_on_c, 0, 72, 0
2, 76920, Note_on_c, 0, 81, 37
2, 76960, Note_on_c, 0, 81, 0
2, 76960, Note_on_c, 0, 78, 37
2, 77000, Note_on_c, 0, 78, 0
2, 77000, Note_on_c, 0, 72, 38
2, 77040, Note_on_c, 0, 72, 0
2, 77040, Note_on_c, 0, 81, 38
2, 77080, Note_on_c, 0, 81, 0
2, 77080, Note_on_c, 0, 78, 39
2, 77120, Note_on_c, 0, 78, 0
2, 77120, Note_on_c, 0, 72, 39
2, 77160, Note_on_c, 0, 72, 0
2, 77160, Note_on_c, 0, 81, 40
2, 77200, Note_on_c, 0, 81, 0
2, 77200, Note_on_c, 0, 78, 40
2, 77240, Note_on_c, 0, 78, 0
2, 77240, Note_on_c, 0, 72, 41
2, 77280, Note_on_c, 0, 72, 0
2, 77280, Note_on_c, 0, 81, 41
2, 77320, Note_on_c, 0, 81, 0
2, 77320, Note_on_c, 0, 78, 42
2, 77360, Note_on_c, 0, 78, 0
2, 77360, Note_on_c, 0, 72, 42
2, 77400, Note_on_c, 0, 72, 0
2, 77400, Note_on_c, 0, 81, 43
2, 77440, Note_on_c, 0, 81, 0
2, 77440, Note_on_c, 0, 78, 43
2, 77480, Note_on_c, 0, 78, 0
2, 77480, Note_on_c, 0, 72, 44
2, 77520, Note_on_c, 0, 72, 0
2, 77520, Note_on_c, 0, 81, 44
2, 77560, Note_on_c, 0, 81, 0
2, 77560, Note_on_c, 0, 78, 44
2, 77600, Note_on_c, 0, 78, 0
2, 77600, Note_on_c, 0, 72, 45
2, 77640, Note_on_c, 0, 72, 0
2, 77640, Note_on_c, 0, 81, 45
2, 77680, Note_on_c, 0, 81, 0
2, 77680, Note_on_c, 0, 78, 46
2, 77720, Note_on_c, 0, 78, 0
2, 77720, Note_on_c, 0, 72, 46
2, 77760, Note_on_c, 0, 72, 0
2, 77760, Note_on_c, 0, 81, 47
2, 77800, Note_on_c, 0, 76, 35
2, 77840, Note_on_c, 0, 76, 0
2, 77840, Note_on_c, 0, 72, 35
2, 77880, Note_on_c, 0, 72, 0
2, 77880, Note_on_c, 0, 81, 0
2, 77880, Note_on_c, 0, 81, 47
2, 77920, Note_on_c, 0, 76, 35
2, 77960, Note_on_c, 0, 76, 0
2, 77960, Note_on_c, 0, 72, 35
2, 78000, Note_on_c, 0, 72, 0
2, 78000, Note_on_c, 0, 81, 0
2, 78000, Note_on_c, 0, 80, 47
2, 78040, Note_on_c, 0, 74, 35
2, 78080, Note_on_c, 0, 74, 0
2, 78080, Note_on_c, 0, 71, 35
2, 78120, Note_on_c, 0, 71, 0
2, 78120, Note_on_c, 0, 80, 0
2, 78120, Note_on_c, 0, 80, 46
2, 78160, Note_on_c, 0, 74, 35
2, 78200, Note_on_c, 0, 74, 0
2, 78200, Note_on_c, 0, 71, 35
2, 78240, Note_on_c, 0, 71, 0
2, 78240, Note_on_c, 0, 80, 0
2, 78240, Note_on_c, 0, 77, 46
2, 78280, Note_on_c, 0, 72, 35
2, 78320, Note_on_c, 0, 72, 0
2, 78320, Note_on_c, 0, 69, 35
2, 78360, Note_on_c, 0, 69, 0
2, 78360, Note_on_c, 0, 77, 0
2, 78360, Note_on_c, 0, 77, 45
2, 78400, Note_on_c, 0, 72, 35
2, 78440, Note_on_c, 0, 72, 0
2, 78440, Note_on_c, 0, 69, 35
2, 78480, Note_on_c, 0, 69, 0
2, 78480, Note_on_c, 0, 77, 0
2, 78480, Note_on_c, 0, 76, 45
2, 78520, Note_on_c, 0, 71, 35
2, 78560, Note_on_c, 0, 71, 0
2, 78560, Note_on_c, 0, 68, 35
2, 78600, Note_on_c, 0, 68, 0
2, 78600, Note_on_c, 0, 76, 0
2, 78600, Note_on_c, 0, 76, 44
2, 78640, Note_on_c, 0, 71, 35
2, 78680, Note_on_c, 0, 71, 0
2, 78680, Note_on_c, 0, 68, 35
2, 78720, Note_on_c, 0, 68, 0
2, 78720, Note_on_c, 0, 76, 0
2, 78720, Note_on_c, 0, 75, 44
2, 78760, Note_on_c, 0, 69, 35
2, 78800, Note_on_c, 0, 69, 0
2, 78800, Note_on_c, 0, 66, 35
2, 78840, Note_on_c, 0, 66, 0
2, 78840, Note_on_c, 0, 75, 0
2, 78840, Note_on_c, 0, 75, 44
2, 78880, Note_on_c, 0, 69, 35
2, 78920, Note_on_c, 0, 69, 0
2, 78920, Note_on_c, 0, 66, 35
2, 78960, Note_on_c, 0, 66, 0
2, 78960, Note_on_c, 0, 75, 0
2, 78960, Note_on_c, 0, 74, 43
2, 79000, Note_on_c, 0, 71, 35
2, 79040, Note_on_c, 0, 71, 0
2, 79040, Note_on_c, 0, 68, 35
2, 79080, Note_on_c, 0, 68, 0
2, 79080, Note_on_c, 0, 74, 0
2, 79080, Note_on_c, 0, 74, 43
2, 79120, Note_on_c, 0, 71, 35
2, 79160, Note_on_c, 0, 71, 0
2, 79160, Note_on_c, 0, 68, 35
2, 79200, Note_on_c, 0, 68, 0
2, 79200, Note_on_c, 0, 74, 0
2, 79200, Note_on_c, 0, 72, 42
2, 79240, Note_on_c, 0, 69, 35
2, 79280, Note_on_c, 0, 69, 0
2, 79280, Note_on_c, 0, 64, 35
2, 79320, Note_on_c, 0, 64, 0
2, 79320, Note_on_c, 0, 72, 0
2, 79320, Note_on_c, 0, 72, 42
2, 79360, Note_on_c, 0, 69, 35
2, 79400, Note_on_c, 0, 69, 0
2, 79400, Note_on_c, 0, 64, 35
2, 79440, Note_on_c, 0, 64, 0
2, 79440, Note_on_c, 0, 72, 0
2, 79440, Note_on_c, 0, 69, 41
2, 79480, Note_on_c, 0, 64, 35
2, 79520, Note_on_c, 0, 64, 0
2, 79520, Note_on_c, 0, 60, 35
2, 79560, Note_on_c, 0, 60, 0
2, 79560, Note_on_c, 0, 69, 0
2, 79560, Note_on_c, 0, 69, 41
2, 79600, Note_on_c, 0, 64, 35
2, 79640, Note_on_c, 0, 64, 0
2, 79640, Note_on_c, 0, 60, 35
2, 79680, Note_on_c, 0, 60, 0
2, 79680, Note_on_c, 0, 69, 0
2, 79680, Note_on_c, 0, 70, 41
2, 79720, Note_on_c, 0, 65, 35
2, 79760, Note_on_c, 0, 65, 0
2, 79760, Note_on_c, 0, 62, 35
2, 79800, Note_on_c, 0, 62, 0
2, 79800, Note_on_c, 0, 70, 0
2, 79800, Note_on_c, 0, 70, 40
2, 79840, Note_on_c, 0, 65, 35
2, 79880, Note_on_c, 0, 65, 0
2, 79880, Note_on_c, 0, 62, 35
2, 79920, Note_on_c, 0, 62, 0
2, 79920, Note_on_c, 0, 70, 0
2, 79920, Note_on_c, 0, 68, 40
2, 79960, Note_on_c, 0, 62, 35
2, 80000, Note_on_c, 0, 62, 0
2, 80000, Note_on_c, 0, 59, 35
2, 80040, Note_on_c, 0, 59, 0
2, 80040, Note_on_c, 0, 68, 0
2, 80040, Note_on_c, 0, 68, 39
2, 80080, Note_on_c, 0, 62, 35
2, 80120, Note_on_c, 0, 62, 0
2, 80120, Note_on_c, 0, 59, 35
2, 80160, Note_on_c, 0, 59, 0
2, 80160, Note_on_c, 0, 68, 0
2, 80160, Note_on_c, 0, 67, 39
2, 80200, Note_on_c, 0, 64, 35
2, 80240, Note_on_c, 0, 64, 0
2, 80240, Note_on_c, 0, 61, 35
2, 80280, Note_on_c, 0, 61, 0
2, 80280, Note_on_c, 0, 67, 0
2, 80280, Note_on_c, 0, 67, 38
2, 80320, Note_on_c, 0, 64, 35
2, 80360, Note_on_c, 0, 64, 0
2, 80360, Note_on_c, 0, 61, 35
2, 80400, Note_on_c, 0, 61, 0
2, 80400, Note_on_c, 0, 67, 0
2, 80400, Note_on_c, 0, 67, 38
2, 80440, Note_on_c, 0, 64, 35
2, 80480, Note_on_c, 0, 64, 0
2, 80480, Note_on_c, 0, 61, 35
2, 80520, Note_on_c, 0, 61, 0
2, 80520, Note_on_c, 0, 67, 0
2, 80520, Note_on_c, 0, 67, 38
2, 80560, Note_on_c, 0, 64, 35
2, 80600, Note_on_c, 0, 64, 0
2, 80600, Note_on_c, 0, 61, 35
2, 80640, Note_on_c, 0, 61, 0
2, 80640, Note_on_c, 0, 67, 0
2, 80640, Note_on_c, 0, 67, 35
2, 80640, Note_on_c, 0, 64, 35
2, 80640, Note_on_c, 0, 61, 35
2, 80640, Note_on_c, 0, 58, 35
2, 80880, Note_on_c, 0, 58, 0
2, 80880, Note_on_c, 0, 67, 0
2, 80880, Note_on_c, 0, 64, 0
2, 80880, Note_on_c, 0, 61, 0
2, 80880, Note_on_c, 0, 65, 37
2, 80880, Note_on_c, 0, 57, 37
2, 81000, Note_on_c, 0, 57, 0
2, 81000, Note_on_c, 0, 65, 0
2, 81000, Note_on_c, 0, 55, 37
2, 81000, Note_on_c, 0, 64, 37
2, 81120, Note_on_c, 0, 64, 0
2, 81120, Note_on_c, 0, 55, 0
2, 81120, Note_on_c, 0, 65, 37
2, 81160, Note_on_c, 0, 65, 0
2, 81160, Note_on_c, 0, 62, 37
2, 81200, Note_on_c, 0, 62, 0
2, 81200, Note_on_c, 0, 57, 37
2, 81240, Note_on_c, 0, 57, 0
2, 81240, Note_on_c, 0, 65, 37
2, 81280, Note_on_c, 0, 65, 0
2, 81280, Note_on_c, 0, 62, 37
2, 81320, Note_on_c, 0, 62, 0
2, 81320, Note_on_c, 0, 57, 37
2, 81360, Note_on_c, 0, 57, 0
2, 81360, Note_on_c, 0, 65, 37
2, 81400, Note_on_c, 0, 65, 0
2, 81400, Note_on_c, 0, 62, 37
2, 81440, Note_on_c, 0, 62, 0
2, 81440, Note_on_c, 0, 57, 37
2, 81480, Note_on_c, 0, 57, 0
2, 81480, Note_on_c, 0, 65, 37
2, 81520, Note_on_c, 0, 65, 0
2, 81520, Note_on_c, 0, 62, 37
2, 81560, Note_on_c, 0, 62, 0
2, 81560, Note_on_c, 0, 57, 37
2, 81600, Note_on_c, 0, 57, 0
2, 81600, Note_on_c, 0, 65, 37
2, 81640, Note_on_c, 0, 65, 0
2, 81640, Note_on_c, 0, 62, 37
2, 81680, Note_on_c, 0, 62, 0
2, 81680, Note_on_c, 0, 55, 37
2, 81720, Note_on_c, 0, 55, 0
2, 81720, Note_on_c, 0, 65, 37
2, 81760, Note_on_c, 0, 65, 0
2, 81760, Note_on_c, 0, 62, 37
2, 81800, Note_on_c, 0, 62, 0
2, 81800, Note_on_c, 0, 55, 37
2, 81840, Note_on_c, 0, 55, 0
2, 81840, Note_on_c, 0, 65, 37
2, 81880, Note_on_c, 0, 65, 0
2, 81880, Note_on_c, 0, 62, 37
2, 81920, Note_on_c, 0, 62, 0
2, 81920, Note_on_c, 0, 55, 37
2, 81960, Note_on_c, 0, 55, 0
2, 81960, Note_on_c, 0, 65, 37
2, 82000, Note_on_c, 0, 65, 0
2, 82000, Note_on_c, 0, 62, 37
2, 82040, Note_on_c, 0, 62, 0
2, 82040, Note_on_c, 0, 55, 37
2, 82080, Note_on_c, 0, 55, 0
2, 82080, Note_on_c, 0, 65, 37
2, 82080, Note_on_c, 0, 62, 37
2, 82080, Note_on_c, 0, 55, 37
2, 82440, Note_on_c, 0, 55, 0
2, 82440, Note_on_c, 0, 62, 0
2, 82440, Note_on_c, 0, 65, 0
2, 82440, Note_on_c, 0, 60, 39
2, 82530, Note_on_c, 0, 60, 0
2, 82530, Note_on_c, 0, 64, 39
2, 82560, Note_on_c, 0, 64, 0
2, 82560, Note_on_c, 0, 67, 39
2, 82590, Note_on_c, 0, 67, 0
2, 82680, Note_on_c, 0, 67, 39
2, 82710, Note_on_c, 0, 67, 0
2, 82800, Note_on_c, 0, 67, 39
2, 82830, Note_on_c, 0, 67, 0
2, 82920, Note_on_c, 0, 71, 39
2, 82930, Note_on_c, 0, 72, 39
2, 82950, Note_on_c, 0, 71, 0
2, 83040, Note_on_c, 0, 72, 0
2, 83040, Note_on_c, 0, 67, 39
2, 83070, Note_on_c, 0, 67, 0
2, 83160, Note_on_c, 0, 67, 39
2, 83190, Note_on_c, 0, 67, 0
2, 83280, Note_on_c, 0, 67, 39
2, 83310, Note_on_c, 0, 67, 0
2, 83400, Note_on_c, 0, 64, 39
2, 83490, Note_on_c, 0, 64, 0
2, 83490, Note_on_c, 0, 60, 39
2, 83520, Note_on_c, 0, 60, 0
2, 83520, Note_on_c, 0, 59, 39
2, 83550, Note_on_c, 0, 59, 0
2, 83640, Note_on_c, 0, 59, 38
2, 83670, Note_on_c, 0, 59, 0
2, 83760, Note_on_c, 0, 60, 36
2, 83790, Note_on_c, 0, 60, 0
2, 83880, Note_on_c, 0, 60, 35
2, 83910, Note_on_c, 0, 60, 0
2, 84000, Note_on_c, 0, 62, 34
2, 84120, Note_on_c, 0, 62, 0
2, 84360, Note_on_c, 0, 55, 33
2, 84450, Note_on_c, 0, 55, 0
2, 84450, Note_on_c, 0, 62, 33
2, 84480, Note_on_c, 0, 62, 0
2, 84480, Note_on_c, 0, 65, 33
2, 84510, Note_on_c, 0, 65, 0
2, 84600, Note_on_c, 0, 65, 33
2, 84690, Note_on_c, 0, 65, 0
2, 84690, Note_on_c, 0, 67, 33
2, 84720, Note_on_c, 0, 67, 0
2, 84720, Note_on_c, 0, 64, 33
2, 84750, Note_on_c, 0, 64, 0
2, 84840, Note_on_c, 0, 64, 33
2, 84930, Note_on_c, 0, 64, 0
2, 84930, Note_on_c, 0, 65, 33
2, 84960, Note_on_c, 0, 65, 0
2, 84960, Note_on_c, 0, 62, 33
2, 84990, Note_on_c, 0, 62, 0
2, 85080, Note_on_c, 0, 62, 33
2, 85170, Note_on_c, 0, 62, 0
2, 85170, Note_on_c, 0, 64, 33
2, 85200, Note_on_c, 0, 64, 0
2, 85200, Note_on_c, 0, 60, 33
2, 85230, Note_on_c, 0, 60, 0
2, 85320, Note_on_c, 0, 60, 33
2, 85350, Note_on_c, 0, 60, 0
2, 85440, Note_on_c, 0, 62, 33
2, 85470, Note_on_c, 0, 62, 0
2, 85560, Note_on_c, 0, 62, 33
2, 85590, Note_on_c, 0, 62, 0
2, 85680, Note_on_c, 0, 59, 33
2, 85710, Note_on_c, 0, 59, 0
2, 85800, Note_on_c, 0, 59, 33
2, 85830, Note_on_c, 0, 59, 0
2, 86280, Note_on_c, 0, 72, 43
2, 86310, Note_on_c, 0, 72, 0
2, 86310, Note_on_c, 0, 74, 44
2, 86340, Note_on_c, 0, 74, 0
2, 86340, Note_on_c, 0, 75, 46
2, 86370, Note_on_c, 0, 75, 0
2, 86370, Note_on_c, 0, 77, 48
2, 86400, Note_on_c, 0, 77, 0
2, 86400, Note_on_c, 0, 79, 50
2, 86430, Note_on_c, 0, 79, 0
2, 86520, Note_on_c, 0, 79, 50
2, 86550, Note_on_c, 0, 79, 0
2, 86640, Note_on_c, 0, 79, 50
2, 86670, Note_on_c, 0, 79, 0
2, 86760, Note_on_c, 0, 83, 50
2, 86770, Note_on_c, 0, 84, 50
2, 86790, Note_on_c, 0, 83, 0
2, 86880, Note_on_c, 0, 84, 0
2, 86880, Note_on_c, 0, 79, 50
2, 86910, Note_on_c, 0, 79, 0
2, 87000, Note_on_c, 0, 79, 45
2, 87030, Note_on_c, 0, 79, 0
2, 87120, Note_on_c, 0, 79, 45
2, 87150, Note_on_c, 0, 79, 0
2, 87240, Note_on_c, 0, 72, 43
2, 87270, Note_on_c, 0, 72, 0
2, 87270, Note_on_c, 0, 74, 44
2, 87300, Note_on_c, 0, 74, 0
2, 87300, Note_on_c, 0, 75, 46
2, 87330, Note_on_c, 0, 75, 0
2, 87330, Note_on_c, 0, 77, 48
2, 87360, Note_on_c, 0, 77, 0
2, 87360, Note_on_c, 0, 79, 50
2, 87390, Note_on_c, 0, 79, 0
2, 87480, Note_on_c, 0, 79, 50
2, 87510, Note_on_c, 0, 79, 0
2, 87600, Note_on_c, 0, 79, 50
2, 87630, Note_on_c, 0, 79, 0
2, 87720, Note_on_c, 0, 83, 50
2, 87730, Note_on_c, 0, 84, 50
2, 87750, Note_on_c, 0, 83, 0
2, 87840, Note_on_c, 0, 84, 0
2, 87840, Note_on_c, 0, 79, 50
2, 87870, Note_on_c, 0, 79, 0
2, 87960, Note_on_c, 0, 79, 45
2, 87990, Note_on_c, 0, 79, 0
2, 88080, Note_on_c, 0, 79, 45
2, 88110, Note_on_c, 0, 79, 0
2, 88200, Note_on_c, 0, 73, 43
2, 88230, Note_on_c, 0, 73, 0
2, 88230, Note_on_c, 0, 74, 45
2, 88260, Note_on_c, 0, 74, 0
2, 88260, Note_on_c, 0, 76, 47
2, 88290, Note_on_c, 0, 76, 0
2, 88290, Note_on_c, 0, 77, 49
2, 88320, Note_on_c, 0, 77, 0
2, 88320, Note_on_c, 0, 79, 41
2, 88350, Note_on_c, 0, 79, 0
2, 88440, Note_on_c, 0, 79, 41
2, 88470, Note_on_c, 0, 79, 0
2, 88560, Note_on_c, 0, 79, 41
2, 88590, Note_on_c, 0, 79, 0
2, 88680, Note_on_c, 0, 79, 44
2, 88720, Note_on_c, 0, 79, 0
2, 88720, Note_on_c, 0, 85, 44
2, 88760, Note_on_c, 0, 85, 0
2, 88760, Note_on_c, 0, 88, 44
2, 88800, Note_on_c, 0, 88, 0
2, 88800, Note_on_c, 0, 77, 44
2, 88830, Note_on_c, 0, 77, 0
2, 88920, Note_on_c, 0, 77, 43
2, 88950, Note_on_c, 0, 77, 0
2, 89040, Note_on_c, 0, 77, 43
2, 89070, Note_on_c, 0, 77, 0
2, 89160, Note_on_c, 0, 77, 44
2, 89200, Note_on_c, 0, 77, 0
2, 89200, Note_on_c, 0, 81, 44
2, 89240, Note_on_c, 0, 81, 0
2, 89240, Note_on_c, 0, 86, 44
2, 89280, Note_on_c, 0, 86, 0
2, 89280, Note_on_c, 0, 77, 44
2, 89310, Note_on_c, 0, 77, 0
2, 89400, Note_on_c, 0, 77, 41
2, 89490, Note_on_c, 0, 77, 0
2, 89490, Note_on_c, 0, 79, 40
2, 89520, Note_on_c, 0, 79, 0
2, 89520, Note_on_c, 0, 76, 40
2, 89550, Note_on_c, 0, 76, 0
2, 89640, Note_on_c, 0, 76, 39
2, 89730, Note_on_c, 0, 76, 0
2, 89730, Note_on_c, 0, 77, 38
2, 89760, Note_on_c, 0, 77, 0
2, 89760, Note_on_c, 0, 74, 38
2, 89790, Note_on_c, 0, 74, 0
2, 89880, Note_on_c, 0, 74, 37
2, 89970, Note_on_c, 0, 74, 0
2, 89970, Note_on_c, 0, 76, 37
2, 90000, Note_on_c, 0, 76, 0
2, 90000, Note_on_c, 0, 72, 37
2, 90030, Note_on_c, 0, 72, 0
2, 90120, Note_on_c, 0, 72, 37
2, 90160, Note_on_c, 0, 72, 0
2, 90160, Note_on_c, 0, 76, 40
2, 90200, Note_on_c, 0, 76, 0
2, 90200, Note_on_c, 0, 79, 43
2, 90240, Note_on_c, 0, 79, 0
2, 90240, Note_on_c, 0, 77, 47
2, 90270, Note_on_c, 0, 77, 0
2, 90360, Note_on_c, 0, 77, 47
2, 90380, Note_on_c, 0, 77, 0
2, 90380, Note_on_c, 0, 79, 46
2, 90400, Note_on_c, 0, 79, 0
2, 90400, Note_on_c, 0, 77, 46
2, 90420, Note_on_c, 0, 77, 0
2, 90420, Note_on_c, 0, 76, 46
2, 90440, Note_on_c, 0, 76, 0
2, 90440, Note_on_c, 0, 77, 46
2, 90460, Note_on_c, 0, 77, 0
2, 90460, Note_on_c, 0, 79, 46
2, 90480, Note_on_c, 0, 79, 0
2, 90480, Note_on_c, 0, 76, 46
2, 90510, Note_on_c, 0, 76, 0
2, 90600, Note_on_c, 0, 76, 45
2, 90620, Note_on_c, 0, 76, 0
2, 90620, Note_on_c, 0, 77, 44
2, 90640, Note_on_c, 0, 77, 0
2, 90640, Note_on_c, 0, 76, 44
2, 90660, Note_on_c, 0, 76, 0
2, 90660, Note_on_c, 0, 74, 44
2, 90680, Note_on_c, 0, 74, 0
2, 90680, Note_on_c, 0, 76, 44
2, 90700, Note_on_c, 0, 76, 0
2, 90700, Note_on_c, 0, 77, 44
2, 90720, Note_on_c, 0, 77, 0
2, 90720, Note_on_c, 0, 74, 44
2, 90750, Note_on_c, 0, 74, 0
2, 90840, Note_on_c, 0, 74, 43
2, 90860, Note_on_c, 0, 74, 0
2, 90860, Note_on_c, 0, 76, 42
2, 90880, Note_on_c, 0, 76, 0
2, 90880, Note_on_c, 0, 74, 42
2, 90900, Note_on_c, 0, 74, 0
2, 90900, Note_on_c, 0, 72, 42
2, 90920, Note_on_c, 0, 72, 0
2, 90920, Note_on_c, 0, 74, 42
2, 90940, Note_on_c, 0, 74, 0
2, 90940, Note_on_c, 0, 76, 42
2, 90960, Note_on_c, 0, 76, 0
2, 90960, Note_on_c, 0, 72, 42
2, 90990, Note_on_c, 0, 72, 0
2, 91080, Note_on_c, 0, 72, 41
2, 91100, Note_on_c, 0, 72, 0
2, 91100, Note_on_c, 0, 74, 40
2, 91120, Note_on_c, 0, 74, 0
2, 91120, Note_on_c, 0, 72, 40
2, 91140, Note_on_c, 0, 72, 0
2, 91140, Note_on_c, 0, 71, 40
2, 91160, Note_on_c, 0, 71, 0
2, 91160, Note_on_c, 0, 72, 40
2, 91180, Note_on_c, 0, 72, 0
2, 91180, Note_on_c, 0, 74, 40
2, 91200, Note_on_c, 0, 74, 0
2, 91200, Note_on_c, 0, 71, 40
2, 91320, Note_on_c, 0, 71, 0
2, 91410, Note_on_c, 0, 67, 49
2, 91440, Note_on_c, 0, 67, 0
2, 91440, Note_on_c, 0, 71, 49
2, 91530, Note_on_c, 0, 71, 0
2, 91530, Note_on_c, 0, 67, 49
2, 91560, Note_on_c, 0, 67, 0
2, 91560, Note_on_c, 0, 74, 49
2, 91650, Note_on_c, 0, 74, 0
2, 91650, Note_on_c, 0, 71, 49
2, 91680, Note_on_c, 0, 71, 0
2, 91680, Note_on_c, 0, 79, 49
2, 91800, Note_on_c, 0, 79, 0
2, 91890, Note_on_c, 0, 55, 49
2, 91920, Note_on_c, 0, 59, 49
2, 91930, Note_on_c, 0, 55, 0
2, 91960, Note_on_c, 0, 59, 0
2, 91960, Note_on_c, 0, 55, 49
2, 92000, Note_on_c, 0, 55, 0
2, 92000, Note_on_c, 0, 59, 49
2, 92040, Note_on_c, 0, 59, 0
2, 92040, Note_on_c, 0, 62, 49
2, 92080, Note_on_c, 0, 62, 0
2, 92080, Note_on_c, 0, 59, 49
2, 92120, Note_on_c, 0, 59, 0
2, 92120, Note_on_c, 0, 62, 49
2, 92160, Note_on_c, 0, 62, 0
2, 92160, Note_on_c, 0, 67, 49
2, 92280, Note_on_c, 0, 67, 0
2, 92400, Note_on_c, 0, 43, 51
2, 92580, Note_on_c, 0, 43, 0
2, 92580, Note_on_c, 0, 43, 51
2, 92610, Note_on_c, 0, 43, 0
2, 92640, Note_on_c, 0, 43, 51
2, 92880, Note_on_c, 0, 43, 0
2, 93480, Note_on_c, 0, 67, 39
2, 93500, Note_on_c, 0, 67, 0
2, 93500, Note_on_c, 0, 69, 39
2, 93520, Note_on_c, 0, 69, 0
2, 93520, Note_on_c, 0, 67, 39
2, 93540, Note_on_c, 0, 67, 0
2, 93540, Note_on_c, 0, 66, 39
2, 93570, Note_on_c, 0, 66, 0
2, 93570, Note_on_c, 0, 67, 39
2, 93600, Note_on_c, 0, 67, 0
2, 93600, Note_on_c, 0, 72, 39
2, 93630, Note_on_c, 0, 72, 0
2, 93720, Note_on_c, 0, 72, 39
2, 93750, Note_on_c, 0, 72, 0
2, 93960, Note_on_c, 0, 67, 39
2, 93980, Note_on_c, 0, 67, 0
2, 93980, Note_on_c, 0, 69, 39
2, 94000, Note_on_c, 0, 69, 0
2, 94000, Note_on_c, 0, 67, 39
2, 94020, Note_on_c, 0, 67, 0
2, 94020, Note_on_c, 0, 66, 39
2, 94050, Note_on_c, 0, 66, 0
2, 94050, Note_on_c, 0, 67, 39
2, 94080, Note_on_c, 0, 67, 0
2, 94080, Note_on_c, 0, 72, 39
2, 94110, Note_on_c, 0, 72, 0
2, 94200, Note_on_c, 0, 72, 39
2, 94230, Note_on_c, 0, 72, 0
2, 94440, Note_on_c, 0, 67, 39
2, 94460, Note_on_c, 0, 67, 0
2, 94460, Note_on_c, 0, 69, 39
2, 94480, Note_on_c, 0, 69, 0
2, 94480, Note_on_c, 0, 67, 39
2, 94500, Note_on_c, 0, 67, 0
2, 94500, Note_on_c, 0, 66, 39
2, 94530, Note_on_c, 0, 66, 0
2, 94530, Note_on_c, 0, 67, 39
2, 94560, Note_on_c, 0, 67, 0
2, 94560, Note_on_c, 0, 72, 39
2, 94590, Note_on_c, 0, 72, 0
2, 94680, Note_on_c, 0, 72, 41
2, 94700, Note_on_c, 0, 72, 0
2, 94700, Note_on_c, 0, 74, 41
2, 94720, Note_on_c, 0, 74, 0
2, 94720, Note_on_c, 0, 72, 41
2, 94740, Note_on_c, 0, 72, 0
2, 94740, Note_on_c, 0, 71, 42
2, 94770, Note_on_c, 0, 71, 0
2, 94770, Note_on_c, 0, 72, 42
2, 94800, Note_on_c, 0, 72, 0
2, 94800, Note_on_c, 0, 74, 43
2, 94830, Note_on_c, 0, 74, 0
2, 94920, Note_on_c, 0, 74, 45
2, 94940, Note_on_c, 0, 74, 0
2, 94940, Note_on_c, 0, 76, 45
2, 94960, Note_on_c, 0, 76, 0
2, 94960, Note_on_c, 0, 74, 45
2, 94980, Note_on_c, 0, 74, 0
2, 94980, Note_on_c, 0, 72, 46
2, 95010, Note_on_c, 0, 72, 0
2, 95010, Note_on_c, 0, 74, 46
2, 95040, Note_on_c, 0, 74, 0
2, 95040, Note_on_c, 0, 76, 47
2, 95070, Note_on_c, 0, 76, 0
2, 95160, Note_on_c, 0, 76, 49
2, 95180, Note_on_c, 0, 76, 0
2, 95180, Note_on_c, 0, 77, 49
2, 95200, Note_on_c, 0, 77, 0
2, 95200, Note_on_c, 0, 76, 50
2, 95220, Note_on_c, 0, 76, 0
2, 95220, Note_on_c, 0, 74, 50
2, 95250, Note_on_c, 0, 74, 0
2, 95250, Note_on_c, 0, 76, 51
2, 95280, Note_on_c, 0, 76, 0
2, 95280, Note_on_c, 0, 77, 51
2, 95310, Note_on_c, 0, 77, 0
2, 95400, Note_on_c, 0, 77, 53
2, 95420, Note_on_c, 0, 77, 0
2, 95420, Note_on_c, 0, 79, 54
2, 95440, Note_on_c, 0, 79, 0
2, 95440, Note_on_c, 0, 77, 54
2, 95460, Note_on_c, 0, 77, 0
2, 95460, Note_on_c, 0, 76, 54
2, 95490, Note_on_c, 0, 76, 0
2, 95490, Note_on_c, 0, 77, 55
2, 95520, Note_on_c, 0, 77, 0
2, 95520, Note_on_c, 0, 79, 56
2, 95880, Note_on_c, 0, 79, 0
2, 95880, Note_on_c, 0, 80, 55
2, 95880, Note_on_c, 0, 68, 55
2, 96000, Note_on_c, 0, 68, 0
2, 96000, Note_on_c, 0, 80, 0
2, 96000, Note_on_c, 0, 81, 55
2, 96000, Note_on_c, 0, 69, 55
2, 96120, Note_on_c, 0, 69, 0
2, 96120, Note_on_c, 0, 81, 0
2, 96120, Note_on_c, 0, 71, 46
2, 96120, Note_on_c, 0, 83, 46
2, 96240, Note_on_c, 0, 83, 0
2, 96240, Note_on_c, 0, 71, 0
2, 96240, Note_on_c, 0, 72, 49
2, 96240, Note_on_c, 0, 84, 49
2, 96360, Note_on_c, 0, 84, 0
2, 96360, Note_on_c, 0, 72, 0
2, 96360, Note_on_c, 0, 73, 53
2, 96360, Note_on_c, 0, 85, 53
2, 96480, Note_on_c, 0, 85, 0
2, 96480, Note_on_c, 0, 73, 0
2, 96480, Note_on_c, 0, 74, 56
2, 96480, Note_on_c, 0, 86, 56
2, 96600, Note_on_c, 0, 86, 0
2, 96600, Note_on_c, 0, 74, 0
2, 96600, Note_on_c, 0, 88, 56
2, 96720, Note_on_c, 0, 88, 0
2, 96720, Note_on_c, 0, 77, 56
2, 96720, Note_on_c, 0, 89, 56
2, 96840, Note_on_c, 0, 89, 0
2, 96840, Note_on_c, 0, 77, 0
2, 96840, Note_on_c, 0, 74, 56
2, 96840, Note_on_c, 0, 86, 56
2, 96960, Note_on_c, 0, 86, 0
2, 96960, Note_on_c, 0, 74, 0
2, 96960, Note_on_c, 0, 79, 39
2, 96960, Note_on_c, 0, 84, 39
2, 97200, Note_on_c, 0, 84, 0
2, 97200, Note_on_c, 0, 79, 0
2, 97200, Note_on_c, 0, 88, 39
2, 97200, Note_on_c, 0, 83, 39
2, 97260, Note_on_c, 0, 88, 0
2, 97260, Note_on_c, 0, 86, 39
2, 97380, Note_on_c, 0, 86, 0
2, 97380, Note_on_c, 0, 84, 39
2, 97440, Note_on_c, 0, 84, 0
2, 97440, Note_on_c, 0, 83, 0
2, 97440, Note_on_c, 0, 84, 39
2, 97680, Note_on_c, 0, 84, 0
2, 97800, Note_on_c, 0, 76, 41
2, 97840, Note_on_c, 0, 76, 0
2, 97840, Note_on_c, 0, 80, 44
2, 97880, Note_on_c, 0, 80, 0
2, 97880, Note_on_c, 0, 81, 47
2, 97920, Note_on_c, 0, 81, 0
2, 97920, Note_on_c, 0, 79, 39
2, 97950, Note_on_c, 0, 79, 0
2, 98040, Note_on_c, 0, 79, 39
2, 98070, Note_on_c, 0, 79, 0
2, 98160, Note_on_c, 0, 79, 39
2, 98190, Note_on_c, 0, 79, 0
2, 98280, Note_on_c, 0, 72, 39
2, 98320, Note_on_c, 0, 72, 0
2, 98320, Note_on_c, 0, 76, 40
2, 98360, Note_on_c, 0, 76, 0
2, 98360, Note_on_c, 0, 77, 42
2, 98400, Note_on_c, 0, 77, 0
2, 98400, Note_on_c, 0, 76, 43
2, 98430, Note_on_c, 0, 76, 0
2, 98520, Note_on_c, 0, 76, 39
2, 98550, Note_on_c, 0, 76, 0
2, 98640, Note_on_c, 0, 76, 39
2, 98670, Note_on_c, 0, 76, 0
2, 98760, Note_on_c, 0, 69, 38
2, 98800, Note_on_c, 0, 69, 0
2, 98800, Note_on_c, 0, 73, 40
2, 98840, Note_on_c, 0, 73, 0
2, 98840, Note_on_c, 0, 74, 41
2, 98880, Note_on_c, 0, 74, 0
2, 98880, Note_on_c, 0, 72, 43
2, 98920, Note_on_c, 0, 72, 0
2, 99000, Note_on_c, 0, 72, 39
2, 99040, Note_on_c, 0, 72, 0
2, 99120, Note_on_c, 0, 72, 39
2, 99160, Note_on_c, 0, 72, 0
2, 99240, Note_on_c, 0, 76, 46
2, 99330, Note_on_c, 0, 76, 0
2, 99330, Note_on_c, 0, 72, 41
2, 99360, Note_on_c, 0, 72, 0
2, 99360, Note_on_c, 0, 69, 39
2, 99420, Note_on_c, 0, 69, 0
2, 99480, Note_on_c, 0, 77, 42
2, 99570, Note_on_c, 0, 77, 0
2, 99570, Note_on_c, 0, 74, 41
2, 99600, Note_on_c, 0, 74, 0
2, 99600, Note_on_c, 0, 71, 40
2, 99660, Note_on_c, 0, 71, 0
2, 99720, Note_on_c, 0, 74, 39
2, 99810, Note_on_c, 0, 74, 0
2, 99810, Note_on_c, 0, 71, 39
2, 99840, Note_on_c, 0, 71, 0
2, 99840, Note_on_c, 0, 72, 39
2, 99960, Note_on_c, 0, 72, 0
2, 100200, Note_on_c, 0, 76, 50
2, 100240, Note_on_c, 0, 80, 44
2, 100280, Note_on_c, 0, 80, 0
2, 100280, Note_on_c, 0, 76, 0
2, 100280, Note_on_c, 0, 81, 39
2, 100320, Note_on_c, 0, 81, 0
2, 100320, Note_on_c, 0, 74, 39
2, 100360, Note_on_c, 0, 74, 0
2, 100360, Note_on_c, 0, 78, 39
2, 100400, Note_on_c, 0, 78, 0
2, 100400, Note_on_c, 0, 79, 39
2, 100440, Note_on_c, 0, 79, 0
2, 100440, Note_on_c, 0, 74, 39
2, 100480, Note_on_c, 0, 74, 0
2, 100480, Note_on_c, 0, 78, 39
2, 100520, Note_on_c, 0, 78, 0
2, 100520, Note_on_c, 0, 79, 39
2, 100560, Note_on_c, 0, 79, 0
2, 100560, Note_on_c, 0, 74, 39
2, 100600, Note_on_c, 0, 74, 0
2, 100600, Note_on_c, 0, 78, 39
2, 100640, Note_on_c, 0, 78, 0
2, 100640, Note_on_c, 0, 79, 39
2, 100680, Note_on_c, 0, 79, 0
2, 100680, Note_on_c, 0, 76, 47
2, 100720, Note_on_c, 0, 80, 45
2, 100760, Note_on_c, 0, 80, 0
2, 100760, Note_on_c, 0, 76, 0
2, 100760, Note_on_c, 0, 81, 43
2, 100800, Note_on_c, 0, 81, 0
2, 100800, Note_on_c, 0, 74, 40
2, 100840, Note_on_c, 0, 74, 0
2, 100840, Note_on_c, 0, 78, 39
2, 100880, Note_on_c, 0, 78, 0
2, 100880, Note_on_c, 0, 79, 39
2, 100920, Note_on_c, 0, 79, 0
2, 100920, Note_on_c, 0, 74, 39
2, 100960, Note_on_c, 0, 74, 0
2, 100960, Note_on_c, 0, 78, 39
2, 101000, Note_on_c, 0, 78, 0
2, 101000, Note_on_c, 0, 79, 39
2, 101040, Note_on_c, 0, 79, 0
2, 101040, Note_on_c, 0, 74, 39
2, 101080, Note_on_c, 0, 74, 0
2, 101080, Note_on_c, 0, 78, 39
2, 101120, Note_on_c, 0, 78, 0
2, 101120, Note_on_c, 0, 79, 39
2, 101160, Note_on_c, 0, 79, 0
2, 101160, Note_on_c, 0, 72, 48
2, 101200, Note_on_c, 0, 76, 45
2, 101240, Note_on_c, 0, 76, 0
2, 101240, Note_on_c, 0, 72, 0
2, 101240, Note_on_c, 0, 77, 42
2, 101280, Note_on_c, 0, 77, 0
2, 101280, Note_on_c, 0, 71, 39
2, 101320, Note_on_c, 0, 71, 0
2, 101320, Note_on_c, 0, 75, 39
2, 101360, Note_on_c, 0, 75, 0
2, 101360, Note_on_c, 0, 76, 39
2, 101400, Note_on_c, 0, 76, 0
2, 101400, Note_on_c, 0, 71, 39
2, 101440, Note_on_c, 0, 71, 0
2, 101440, Note_on_c, 0, 75, 39
2, 101480, Note_on_c, 0, 75, 0
2, 101480, Note_on_c, 0, 76, 39
2, 101520, Note_on_c, 0, 76, 0
2, 101520, Note_on_c, 0, 71, 39
2, 101560, Note_on_c, 0, 71, 0
2, 101560, Note_on_c, 0, 75, 39
2, 101600, Note_on_c, 0, 75, 0
2, 101600, Note_on_c, 0, 76, 39
2, 101640, Note_on_c, 0, 76, 0
2, 101640, Note_on_c, 0, 72, 48
2, 101680, Note_on_c, 0, 76, 45
2, 101720, Note_on_c, 0, 76, 0
2, 101720, Note_on_c, 0, 72, 0
2, 101720, Note_on_c, 0, 77, 42
2, 101760, Note_on_c, 0, 77, 0
2, 101760, Note_on_c, 0, 71, 39
2, 101800, Note_on_c, 0, 71, 0
2, 101800, Note_on_c, 0, 75, 39
2, 101840, Note_on_c, 0, 75, 0
2, 101840, Note_on_c, 0, 76, 39
2, 101880, Note_on_c, 0, 76, 0
2, 101880, Note_on_c, 0, 71, 39
2, 101920, Note_on_c, 0, 71, 0
2, 101920, Note_on_c, 0, 75, 39
2, 101960, Note_on_c, 0, 75, 0
2, 101960, Note_on_c, 0, 76, 39
2, 102000, Note_on_c, 0, 76, 0
2, 102000, Note_on_c, 0, 71, 39
2, 102040, Note_on_c, 0, 71, 0
2, 102040, Note_on_c, 0, 75, 39
2, 102080, Note_on_c, 0, 75, 0
2, 102080, Note_on_c, 0, 76, 39
2, 102120, Note_on_c, 0, 76, 0
2, 102120, Note_on_c, 0, 69, 49
2, 102160, Note_on_c, 0, 73, 45
2, 102200, Note_on_c, 0, 73, 0
2, 102200, Note_on_c, 0, 69, 0
2, 102200, Note_on_c, 0, 74, 41
2, 102240, Note_on_c, 0, 74, 0
2, 102240, Note_on_c, 0, 67, 39
2, 102280, Note_on_c, 0, 67, 0
2, 102280, Note_on_c, 0, 71, 39
2, 102320, Note_on_c, 0, 71, 0
2, 102320, Note_on_c, 0, 72, 39
2, 102360, Note_on_c, 0, 72, 0
2, 102360, Note_on_c, 0, 67, 39
2, 102400, Note_on_c, 0, 67, 0
2, 102400, Note_on_c, 0, 71, 39
2, 102440, Note_on_c, 0, 71, 0
2, 102440, Note_on_c, 0, 72, 39
2, 102480, Note_on_c, 0, 72, 0
2, 102480, Note_on_c, 0, 67, 39
2, 102520, Note_on_c, 0, 67, 0
2, 102520, Note_on_c, 0, 71, 39
2, 102560, Note_on_c, 0, 71, 0
2, 102560, Note_on_c, 0, 72, 39
2, 102600, Note_on_c, 0, 72, 0
2, 102600, Note_on_c, 0, 69, 47
2, 102640, Note_on_c, 0, 73, 43
2, 102680, Note_on_c, 0, 73, 0
2, 102680, Note_on_c, 0, 69, 0
2, 102680, Note_on_c, 0, 74, 39
2, 102720, Note_on_c, 0, 74, 0
2, 102720, Note_on_c, 0, 67, 39
2, 102760, Note_on_c, 0, 67, 0
2, 102760, Note_on_c, 0, 71, 39
2, 102800, Note_on_c, 0, 71, 0
2, 102800, Note_on_c, 0, 72, 39
2, 102840, Note_on_c, 0, 72, 0
2, 102840, Note_on_c, 0, 67, 39
2, 102880, Note_on_c, 0, 67, 0
2, 102880, Note_on_c, 0, 71, 39
2, 102920, Note_on_c, 0, 71, 0
2, 102920, Note_on_c, 0, 72, 39
2, 102960, Note_on_c, 0, 72, 0
2, 102960, Note_on_c, 0, 67, 39
2, 103000, Note_on_c, 0, 67, 0
2, 103000, Note_on_c, 0, 71, 39
2, 103040, Note_on_c, 0, 71, 0
2, 103040, Note_on_c, 0, 72, 39
2, 103080, Note_on_c, 0, 72, 0
2, 103080, Note_on_c, 0, 69, 46
2, 103120, Note_on_c, 0, 73, 43
2, 103160, Note_on_c, 0, 73, 0
2, 103160, Note_on_c, 0, 69, 0
2, 103160, Note_on_c, 0, 74, 40
2, 103200, Note_on_c, 0, 74, 0
2, 103200, Note_on_c, 0, 67, 39
2, 103240, Note_on_c, 0, 71, 41
2, 103280, Note_on_c, 0, 71, 0
2, 103280, Note_on_c, 0, 67, 0
2, 103280, Note_on_c, 0, 72, 42
2, 103320, Note_on_c, 0, 72, 0
2, 103320, Note_on_c, 0, 67, 43
2, 103360, Note_on_c, 0, 73, 45
2, 103400, Note_on_c, 0, 73, 0
2, 103400, Note_on_c, 0, 67, 0
2, 103400, Note_on_c, 0, 74, 46
2, 103440, Note_on_c, 0, 74, 0
2, 103440, Note_on_c, 0, 67, 47
2, 103480, Note_on_c, 0, 75, 48
2, 103520, Note_on_c, 0, 75, 0
2, 103520, Note_on_c, 0, 67, 0
2, 103520, Note_on_c, 0, 76, 50
2, 103560, Note_on_c, 0, 76, 0
2, 103560, Note_on_c, 0, 67, 51
2, 103600, Note_on_c, 0, 76, 52
2, 103640, Note_on_c, 0, 76, 0
2, 103640, Note_on_c, 0, 67, 0
2, 103640, Note_on_c, 0, 77, 54
2, 103680, Note_on_c, 0, 77, 0
2, 103680, Note_on_c, 0, 67, 55
2, 103720, Note_on_c, 0, 78, 56
2, 103760, Note_on_c, 0, 78, 0
2, 103760, Note_on_c, 0, 67, 0
2, 103760, Note_on_c, 0, 79, 58
2, 103800, Note_on_c, 0, 79, 0
2, 103800, Note_on_c, 0, 77, 56
2, 103840, Note_on_c, 0, 77, 0
2, 103840, Note_on_c, 0, 76, 54
2, 103880, Note_on_c, 0, 76, 0
2, 103880, Note_on_c, 0, 74, 52
2, 103920, Note_on_c, 0, 74, 0
2, 103920, Note_on_c, 0, 72, 50
2, 103960, Note_on_c, 0, 72, 0
2, 103960, Note_on_c, 0, 71, 48
2, 104000, Note_on_c, 0, 71, 0
2, 104000, Note_on_c, 0, 69, 46
2, 104040, Note_on_c, 0, 69, 0
2, 104040, Note_on_c, 0, 67, 44
2, 104080, Note_on_c, 0, 67, 0
2, 104080, Note_on_c, 0, 65, 42
2, 104120, Note_on_c, 0, 65, 0
2, 104120, Note_on_c, 0, 64, 40
2, 104160, Note_on_c, 0, 64, 0
2, 104160, Note_on_c, 0, 62, 39
2, 104200, Note_on_c, 0, 62, 0
2, 104200, Note_on_c, 0, 69, 48
2, 104240, Note_on_c, 0, 69, 0
2, 104240, Note_on_c, 0, 67, 47
2, 104280, Note_on_c, 0, 67, 0
2, 104280, Note_on_c, 0, 65, 45
2, 104320, Note_on_c, 0, 65, 0
2, 104320, Note_on_c, 0, 64, 43
2, 104360, Note_on_c, 0, 64, 0
2, 104360, Note_on_c, 0, 62, 41
2, 104400, Note_on_c, 0, 62, 0
2, 104400, Note_on_c, 0, 60, 40
2, 104520, Note_on_c, 0, 60, 0
2, 104520, Note_on_c, 0, 59, 39
2, 104535, Note_on_c, 0, 59, 0
2, 104535, Note_on_c, 0, 60, 39
2, 104550, Note_on_c, 0, 60, 0
2, 104550, Note_on_c, 0, 59, 39
2, 104640, Note_on_c, 0, 59, 0
2, 104680, Note_on_c, 0, 78, 56
2, 104720, Note_on_c, 0, 78, 0
2, 104720, Note_on_c, 0, 79, 58
2, 104760, Note_on_c, 0, 79, 0
2, 104760, Note_on_c, 0, 77, 56
2, 104800, Note_on_c, 0, 77, 0
2, 104800, Note_on_c, 0, 76, 54
2, 104840, Note_on_c, 0, 76, 0
2, 104840, Note_on_c, 0, 74, 52
2, 104880, Note_on_c, 0, 74, 0
2, 104880, Note_on_c, 0, 72, 50
2, 104920, Note_on_c, 0, 72, 0
2, 104920, Note_on_c, 0, 71, 48
2, 104960, Note_on_c, 0, 71, 0
2, 104960, Note_on_c, 0, 69, 46
2, 105000, Note_on_c, 0, 69, 0
2, 105000, Note_on_c, 0, 67, 44
2, 105040, Note_on_c, 0, 67, 0
2, 105040, Note_on_c, 0, 65, 42
2, 105080, Note_on_c, 0, 65, 0
2, 105080, Note_on_c, 0, 64, 40
2, 105120, Note_on_c, 0, 64, 0
2, 105120, Note_on_c, 0, 62, 56
2, 105315, Note_on_c, 0, 62, 0
2, 105360, Note_on_c, 0, 81, 56
2, 105360, Note_on_c, 0, 78, 56
2, 105360, Note_on_c, 0, 75, 56
2, 105360, Note_on_c, 0, 72, 56
2, 105600, Note_on_c, 0, 72, 0
2, 105600, Note_on_c, 0, 81, 0
2, 105600, Note_on_c, 0, 78, 0
2, 105600, Note_on_c, 0, 75, 0
2, 105960, Note_on_c, 0, 72, 42
2, 105990, Note_on_c, 0, 72, 0
2, 105990, Note_on_c, 0, 74, 42
2, 106020, Note_on_c, 0, 74, 0
2, 106020, Note_on_c, 0, 76, 43
2, 106050, Note_on_c, 0, 76, 0
2, 106050, Note_on_c, 0, 77, 44
2, 106080, Note_on_c, 0, 77, 0
2, 106080, Note_on_c, 0, 79, 45
2, 106110, Note_on_c, 0, 79, 0
2, 106200, Note_on_c, 0, 79, 48
2, 106230, Note_on_c, 0, 79, 0
2, 106320, Note_on_c, 0, 79, 48
2, 106350, Note_on_c, 0, 79, 0
2, 106440, Note_on_c, 0, 83, 48
2, 106450, Note_on_c, 0, 84, 48
2, 106470, Note_on_c, 0, 83, 0
2, 106560, Note_on_c, 0, 84, 0
2, 106560, Note_on_c, 0, 79, 46
2, 106590, Note_on_c, 0, 79, 0
2, 106680, Note_on_c, 0, 79, 46
2, 106710, Note_on_c, 0, 79, 0
2, 106800, Note_on_c, 0, 79, 46
2, 106830, Note_on_c, 0, 79, 0
2, 106920, Note_on_c, 0, 77, 49
2, 106950, Note_on_c, 0, 77, 0
2, 106950, Note_on_c, 0, 76, 47
2, 106980, Note_on_c, 0, 76, 0
2, 106980, Note_on_c, 0, 74, 45
2, 107010, Note_on_c, 0, 74, 0
2, 107010, Note_on_c, 0, 72, 43
2, 107040, Note_on_c, 0, 72, 0
2, 107040, Note_on_c, 0, 71, 41
2, 107070, Note_on_c, 0, 71, 0
2, 107160, Note_on_c, 0, 71, 41
2, 107190, Note_on_c, 0, 71, 0
2, 107280, Note_on_c, 0, 72, 43
2, 107310, Note_on_c, 0, 72, 0
2, 107400, Note_on_c, 0, 72, 45
2, 107430, Note_on_c, 0, 72, 0
2, 107520, Note_on_c, 0, 74, 47
2, 107640, Note_on_c, 0, 74, 0
2, 107880, Note_on_c, 0, 67, 38
2, 107970, Note_on_c, 0, 67, 0
2, 107970, Note_on_c, 0, 74, 45
2, 108000, Note_on_c, 0, 74, 0
2, 108000, Note_on_c, 0, 77, 48
2, 108030, Note_on_c, 0, 77, 0
2, 108120, Note_on_c, 0, 77, 47
2, 108210, Note_on_c, 0, 77, 0
2, 108210, Note_on_c, 0, 79, 47
2, 108240, Note_on_c, 0, 79, 0
2, 108240, Note_on_c, 0, 76, 46
2, 108270, Note_on_c, 0, 76, 0
2, 108360, Note_on_c, 0, 76, 45
2, 108450, Note_on_c, 0, 76, 0
2, 108450, Note_on_c, 0, 77, 45
2, 108480, Note_on_c, 0, 77, 0
2, 108480, Note_on_c, 0, 74, 45
2, 108510, Note_on_c, 0, 74, 0
2, 108600, Note_on_c, 0, 74, 44
2, 108690, Note_on_c, 0, 74, 0
2, 108690, Note_on_c, 0, 76, 43
2, 108720, Note_on_c, 0, 76, 0
2, 108720, Note_on_c, 0, 72, 43
2, 108750, Note_on_c, 0, 72, 0
2, 108840, Note_on_c, 0, 72, 42
2, 108870, Note_on_c, 0, 72, 0
2, 108960, Note_on_c, 0, 74, 37
2, 108990, Note_on_c, 0, 74, 0
2, 109080, Note_on_c, 0, 74, 37
2, 109110, Note_on_c, 0, 74, 0
2, 109200, Note_on_c, 0, 71, 37
2, 109230, Note_on_c, 0, 71, 0
2, 109320, Note_on_c, 0, 71, 37
2, 109350, Note_on_c, 0, 71, 0
2, 109440, Note_on_c, 0, 72, 46
2, 109560, Note_on_c, 0, 72, 0
2, 109800, Note_on_c, 0, 79, 52
2, 109890, Note_on_c, 0, 79, 0
2, 109890, Note_on_c, 0, 83, 45
2, 109920, Note_on_c, 0, 83, 0
2, 109920, Note_on_c, 0, 84, 42
2, 109950, Note_on_c, 0, 84, 0
2, 110040, Note_on_c, 0, 84, 42
2, 110070, Note_on_c, 0, 84, 0
2, 110160, Note_on_c, 0, 84, 42
2, 110190, Note_on_c, 0, 84, 0
2, 110280, Note_on_c, 0, 86, 44
2, 110295, Note_on_c, 0, 86, 0
2, 110295, Note_on_c, 0, 88, 45
2, 110310, Note_on_c, 0, 88, 0
2, 110310, Note_on_c, 0, 86, 46
2, 110370, Note_on_c, 0, 86, 0
2, 110370, Note_on_c, 0, 91, 51
2, 110400, Note_on_c, 0, 91, 0
2, 110400, Note_on_c, 0, 88, 52
2, 110520, Note_on_c, 0, 88, 0
2, 110520, Note_on_c, 0, 84, 44
2, 110550, Note_on_c, 0, 84, 0
2, 110640, Note_on_c, 0, 84, 44
2, 110670, Note_on_c, 0, 84, 0
2, 110760, Note_on_c, 0, 79, 53
2, 110850, Note_on_c, 0, 79, 0
2, 110850, Note_on_c, 0, 83, 46
2, 110880, Note_on_c, 0, 83, 0
2, 110880, Note_on_c, 0, 84, 44
2, 110910, Note_on_c, 0, 84, 0
2, 111000, Note_on_c, 0, 84, 44
2, 111030, Note_on_c, 0, 84, 0
2, 111120, Note_on_c, 0, 84, 44
2, 111150, Note_on_c, 0, 84, 0
2, 111240, Note_on_c, 0, 86, 44
2, 111255, Note_on_c, 0, 86, 0
2, 111255, Note_on_c, 0, 88, 44
2, 111270, Note_on_c, 0, 88, 0
2, 111270, Note_on_c, 0, 86, 44
2, 111330, Note_on_c, 0, 86, 0
2, 111330, Note_on_c, 0, 88, 44
2, 111360, Note_on_c, 0, 88, 0
2, 111360, Note_on_c, 0, 84, 44
2, 111480, Note_on_c, 0, 84, 0
2, 111720, Note_on_c, 0, 79, 41
2, 111810, Note_on_c, 0, 79, 0
2, 111810, Note_on_c, 0, 83, 36
2, 111840, Note_on_c, 0, 83, 0
2, 111840, Note_on_c, 0, 84, 33
2, 111870, Note_on_c, 0, 84, 0
2, 111960, Note_on_c, 0, 84, 33
2, 111990, Note_on_c, 0, 84, 0
2, 112080, Note_on_c, 0, 84, 33
2, 112110, Note_on_c, 0, 84, 0
2, 112200, Note_on_c, 0, 86, 35
2, 112215, Note_on_c, 0, 86, 0
2, 112215, Note_on_c, 0, 88, 36
2, 112230, Note_on_c, 0, 88, 0
2, 112230, Note_on_c, 0, 86, 36
2, 112290, Note_on_c, 0, 86, 0
2, 112290, Note_on_c, 0, 91, 40
2, 112320, Note_on_c, 0, 91, 0
2, 112320, Note_on_c, 0, 88, 41
2, 112440, Note_on_c, 0, 88, 0
2, 112440, Note_on_c, 0, 84, 35
2, 112470, Note_on_c, 0, 84, 0
2, 112560, Note_on_c, 0, 84, 35
2, 112590, Note_on_c, 0, 84, 0
2, 112680, Note_on_c, 0, 79, 42
2, 112770, Note_on_c, 0, 79, 0
2, 112770, Note_on_c, 0, 83, 36
2, 112800, Note_on_c, 0, 83, 0
2, 112800, Note_on_c, 0, 84, 35
2, 112830, Note_on_c, 0, 84, 0
2, 112920, Note_on_c, 0, 84, 35
2, 112950, Note_on_c, 0, 84, 0
2, 113040, Note_on_c, 0, 84, 35
2, 113070, Note_on_c, 0, 84, 0
2, 113160, Note_on_c, 0, 86, 35
2, 113175, Note_on_c, 0, 86, 0
2, 113175, Note_on_c, 0, 88, 35
2, 113190, Note_on_c, 0, 88, 0
2, 113190, Note_on_c, 0, 86, 35
2, 113250, Note_on_c, 0, 86, 0
2, 113250, Note_on_c, 0, 88, 35
2, 113280, Note_on_c, 0, 88, 0
2, 113280, Note_on_c, 0, 84, 35
2, 113400, Note_on_c, 0, 84, 0
2, 113520, Note_on_c, 0, 76, 57
2, 113520, Note_on_c, 0, 79, 57
2, 113640, Note_on_c, 0, 79, 0
2, 113640, Note_on_c, 0, 76, 0
2, 113760, Note_on_c, 0, 72, 57
2, 113760, Note_on_c, 0, 76, 57
2, 113880, Note_on_c, 0, 76, 0
2, 113880, Note_on_c, 0, 72, 0
2, 114000, Note_on_c, 0, 52, 57
2, 114000, Note_on_c, 0, 55, 57
2, 114120, Note_on_c, 0, 55, 0
2, 114120, Note_on_c, 0, 52, 0
2, 114240, Note_on_c, 0, 52, 57
2, 114240, Note_on_c, 0, 48, 57
2, 114600, Note_on_c, 0, 48, 0
2, 114600, Note_on_c, 0, 52, 0
2, 114600, End_track
3, 0, Start_track
3, 120, Control_c, 0, 91, 125
3, 123, Control_c, 0, 7, 127
3, 960, Note_on_c, 0, 64, 50
3, 960, Note_on_c, 0, 60, 50
3, 1080, Note_on_c, 0, 60, 0
3, 1080, Note_on_c, 0, 64, 0
3, 1440, Note_on_c, 0, 64, 50
3, 1440, Note_on_c, 0, 60, 50
3, 1560, Note_on_c, 0, 60, 0
3, 1560, Note_on_c, 0, 64, 0
3, 1920, Note_on_c, 0, 62, 47
3, 1920, Note_on_c, 0, 65, 47
3, 1920, Note_on_c, 0, 55, 47
3, 1980, Note_on_c, 0, 55, 0
3, 1980, Note_on_c, 0, 65, 0
3, 1980, Note_on_c, 0, 62, 0
3, 2040, Note_on_c, 0, 62, 46
3, 2040, Note_on_c, 0, 65, 46
3, 2040, Note_on_c, 0, 55, 46
3, 2100, Note_on_c, 0, 55, 0
3, 2100, Note_on_c, 0, 65, 0
3, 2100, Note_on_c, 0, 62, 0
3, 2160, Note_on_c, 0, 60, 44
3, 2160, Note_on_c, 0, 64, 44
3, 2160, Note_on_c, 0, 55, 44
3, 2220, Note_on_c, 0, 55, 0
3, 2220, Note_on_c, 0, 64, 0
3, 2220, Note_on_c, 0, 60, 0
3, 2280, Note_on_c, 0, 60, 42
3, 2280, Note_on_c, 0, 64, 42
3, 2280, Note_on_c, 0, 55, 42
3, 2340, Note_on_c, 0, 55, 0
3, 2340, Note_on_c, 0, 64, 0
3, 2340, Note_on_c, 0, 60, 0
3, 2400, Note_on_c, 0, 55, 40
3, 2400, Note_on_c, 0, 62, 40
3, 2400, Note_on_c, 0, 59, 40
3, 2520, Note_on_c, 0, 59, 0
3, 2520, Note_on_c, 0, 62, 0
3, 2520, Note_on_c, 0, 55, 0
3, 2880, Note_on_c, 0, 67, 40
3, 2880, Note_on_c, 0, 59, 40
3, 3000, Note_on_c, 0, 59, 0
3, 3000, Note_on_c, 0, 67, 0
3, 3120, Note_on_c, 0, 60, 40
3, 3120, Note_on_c, 0, 67, 40
3, 3240, Note_on_c, 0, 67, 0
3, 3240, Note_on_c, 0, 60, 0
3, 3360, Note_on_c, 0, 65, 40
3, 3360, Note_on_c, 0, 67, 40
3, 3480, Note_on_c, 0, 67, 0
3, 3480, Note_on_c, 0, 65, 0
3, 3600, Note_on_c, 0, 64, 40
3, 3600, Note_on_c, 0, 67, 40
3, 3720, Note_on_c, 0, 67, 0
3, 3720, Note_on_c, 0, 64, 0
3, 3840, Note_on_c, 0, 65, 42
3, 3840, Note_on_c, 0, 53, 42
3, 3900, Note_on_c, 0, 53, 0
3, 3900, Note_on_c, 0, 65, 0
3, 3960, Note_on_c, 0, 53, 42
3, 3960, Note_on_c, 0, 65, 42
3, 4020, Note_on_c, 0, 65, 0
3, 4020, Note_on_c, 0, 53, 0
3, 4080, Note_on_c, 0, 55, 42
3, 4080, Note_on_c, 0, 62, 42
3, 4140, Note_on_c, 0, 62, 0
3, 4140, Note_on_c, 0, 55, 0
3, 4200, Note_on_c, 0, 55, 42
3, 4200, Note_on_c, 0, 62, 42
3, 4260, Note_on_c, 0, 62, 0
3, 4260, Note_on_c, 0, 55, 0
3, 4320, Note_on_c, 0, 60, 45
3, 4360, Note_on_c, 0, 60, 0
3, 4360, Note_on_c, 0, 64, 40
3, 4400, Note_on_c, 0, 64, 0
3, 4400, Note_on_c, 0, 67, 39
3, 4440, Note_on_c, 0, 67, 0
3, 4440, Note_on_c, 0, 60, 39
3, 4480, Note_on_c, 0, 60, 0
3, 4480, Note_on_c, 0, 64, 39
3, 4520, Note_on_c, 0, 64, 0
3, 4520, Note_on_c, 0, 67, 39
3, 4560, Note_on_c, 0, 67, 0
3, 4560, Note_on_c, 0, 60, 39
3, 4600, Note_on_c, 0, 60, 0
3, 4600, Note_on_c, 0, 64, 39
3, 4640, Note_on_c, 0, 64, 0
3, 4640, Note_on_c, 0, 67, 39
3, 4680, Note_on_c, 0, 67, 0
3, 4680, Note_on_c, 0, 60, 39
3, 4720, Note_on_c, 0, 60, 0
3, 4720, Note_on_c, 0, 64, 39
3, 4760, Note_on_c, 0, 64, 0
3, 4760, Note_on_c, 0, 67, 39
3, 4800, Note_on_c, 0, 67, 0
3, 4800, Note_on_c, 0, 60, 39
3, 4840, Note_on_c, 0, 60, 0
3, 4840, Note_on_c, 0, 64, 39
3, 4880, Note_on_c, 0, 64, 0
3, 4880, Note_on_c, 0, 67, 39
3, 4920, Note_on_c, 0, 67, 0
3, 4920, Note_on_c, 0, 60, 39
3, 4960, Note_on_c, 0, 60, 0
3, 4960, Note_on_c, 0, 64, 39
3, 5000, Note_on_c, 0, 64, 0
3, 5000, Note_on_c, 0, 67, 39
3, 5040, Note_on_c, 0, 67, 0
3, 5040, Note_on_c, 0, 60, 39
3, 5080, Note_on_c, 0, 60, 0
3, 5080, Note_on_c, 0, 64, 39
3, 5120, Note_on_c, 0, 64, 0
3, 5120, Note_on_c, 0, 67, 39
3, 5160, Note_on_c, 0, 67, 0
3, 5160, Note_on_c, 0, 60, 39
3, 5200, Note_on_c, 0, 60, 0
3, 5200, Note_on_c, 0, 64, 39
3, 5240, Note_on_c, 0, 64, 0
3, 5240, Note_on_c, 0, 67, 39
3, 5280, Note_on_c, 0, 67, 0
3, 5280, Note_on_c, 0, 60, 39
3, 5320, Note_on_c, 0, 60, 0
3, 5320, Note_on_c, 0, 64, 39
3, 5360, Note_on_c, 0, 64, 0
3, 5360, Note_on_c, 0, 67, 39
3, 5400, Note_on_c, 0, 67, 0
3, 5400, Note_on_c, 0, 60, 39
3, 5440, Note_on_c, 0, 60, 0
3, 5440, Note_on_c, 0, 64, 39
3, 5480, Note_on_c, 0, 64, 0
3, 5480, Note_on_c, 0, 67, 39
3, 5520, Note_on_c, 0, 67, 0
3, 5520, Note_on_c, 0, 60, 39
3, 5560, Note_on_c, 0, 60, 0
3, 5560, Note_on_c, 0, 64, 39
3, 5600, Note_on_c, 0, 64, 0
3, 5600, Note_on_c, 0, 67, 39
3, 5640, Note_on_c, 0, 67, 0
3, 5640, Note_on_c, 0, 60, 39
3, 5680, Note_on_c, 0, 60, 0
3, 5680, Note_on_c, 0, 64, 39
3, 5720, Note_on_c, 0, 64, 0
3, 5720, Note_on_c, 0, 67, 39
3, 5760, Note_on_c, 0, 67, 0
3, 5760, Note_on_c, 0, 62, 50
3, 5800, Note_on_c, 0, 62, 0
3, 5800, Note_on_c, 0, 65, 43
3, 5840, Note_on_c, 0, 65, 0
3, 5840, Note_on_c, 0, 67, 39
3, 5880, Note_on_c, 0, 67, 0
3, 5880, Note_on_c, 0, 62, 50
3, 5920, Note_on_c, 0, 62, 0
3, 5920, Note_on_c, 0, 65, 50
3, 5960, Note_on_c, 0, 65, 0
3, 5960, Note_on_c, 0, 67, 50
3, 6000, Note_on_c, 0, 67, 0
3, 6000, Note_on_c, 0, 60, 50
3, 6040, Note_on_c, 0, 60, 0
3, 6040, Note_on_c, 0, 64, 50
3, 6080, Note_on_c, 0, 64, 0
3, 6080, Note_on_c, 0, 67, 50
3, 6120, Note_on_c, 0, 67, 0
3, 6120, Note_on_c, 0, 60, 50
3, 6160, Note_on_c, 0, 60, 0
3, 6160, Note_on_c, 0, 64, 50
3, 6200, Note_on_c, 0, 64, 0
3, 6200, Note_on_c, 0, 67, 50
3, 6240, Note_on_c, 0, 67, 0
3, 6240, Note_on_c, 0, 59, 50
3, 6360, Note_on_c, 0, 59, 0
3, 6720, Note_on_c, 0, 55, 42
3, 6760, Note_on_c, 0, 55, 0
3, 6760, Note_on_c, 0, 59, 42
3, 6800, Note_on_c, 0, 59, 0
3, 6800, Note_on_c, 0, 62, 42
3, 6840, Note_on_c, 0, 62, 0
3, 6840, Note_on_c, 0, 55, 43
3, 6880, Note_on_c, 0, 55, 0
3, 6880, Note_on_c, 0, 59, 43
3, 6920, Note_on_c, 0, 59, 0
3, 6920, Note_on_c, 0, 62, 43
3, 6960, Note_on_c, 0, 62, 0
3, 6960, Note_on_c, 0, 55, 44
3, 7000, Note_on_c, 0, 55, 0
3, 7000, Note_on_c, 0, 60, 44
3, 7040, Note_on_c, 0, 60, 0
3, 7040, Note_on_c, 0, 64, 44
3, 7080, Note_on_c, 0, 64, 0
3, 7080, Note_on_c, 0, 55, 45
3, 7120, Note_on_c, 0, 55, 0
3, 7120, Note_on_c, 0, 60, 45
3, 7160, Note_on_c, 0, 60, 0
3, 7160, Note_on_c, 0, 64, 45
3, 7200, Note_on_c, 0, 64, 0
3, 7200, Note_on_c, 0, 55, 46
3, 7240, Note_on_c, 0, 55, 0
3, 7240, Note_on_c, 0, 62, 51
3, 7280, Note_on_c, 0, 62, 0
3, 7280, Note_on_c, 0, 65, 51
3, 7320, Note_on_c, 0, 65, 0
3, 7320, Note_on_c, 0, 55, 51
3, 7360, Note_on_c, 0, 55, 0
3, 7360, Note_on_c, 0, 62, 51
3, 7400, Note_on_c, 0, 62, 0
3, 7400, Note_on_c, 0, 65, 51
3, 7440, Note_on_c, 0, 65, 0
3, 7440, Note_on_c, 0, 57, 42
3, 7480, Note_on_c, 0, 57, 0
3, 7480, Note_on_c, 0, 60, 43
3, 7520, Note_on_c, 0, 60, 0
3, 7520, Note_on_c, 0, 64, 43
3, 7560, Note_on_c, 0, 64, 0
3, 7560, Note_on_c, 0, 57, 43
3, 7600, Note_on_c, 0, 57, 0
3, 7600, Note_on_c, 0, 60, 43
3, 7640, Note_on_c, 0, 60, 0
3, 7640, Note_on_c, 0, 64, 43
3, 7680, Note_on_c, 0, 64, 0
3, 7680, Note_on_c, 0, 53, 46
3, 7720, Note_on_c, 0, 53, 0
3, 7720, Note_on_c, 0, 57, 46
3, 7760, Note_on_c, 0, 57, 0
3, 7760, Note_on_c, 0, 62, 46
3, 7800, Note_on_c, 0, 62, 0
3, 7800, Note_on_c, 0, 53, 46
3, 7840, Note_on_c, 0, 53, 0
3, 7840, Note_on_c, 0, 57, 46
3, 7880, Note_on_c, 0, 57, 0
3, 7880, Note_on_c, 0, 62, 46
3, 7920, Note_on_c, 0, 62, 0
3, 7920, Note_on_c, 0, 55, 46
3, 7960, Note_on_c, 0, 55, 0
3, 7960, Note_on_c, 0, 62, 46
3, 8000, Note_on_c, 0, 62, 0
3, 8000, Note_on_c, 0, 65, 46
3, 8040, Note_on_c, 0, 65, 0
3, 8040, Note_on_c, 0, 55, 46
3, 8080, Note_on_c, 0, 55, 0
3, 8080, Note_on_c, 0, 62, 46
3, 8120, Note_on_c, 0, 62, 0
3, 8120, Note_on_c, 0, 65, 46
3, 8160, Note_on_c, 0, 65, 0
3, 8160, Note_on_c, 0, 64, 38
3, 8160, Note_on_c, 0, 60, 38
3, 8400, Note_on_c, 0, 64, 0
3, 8400, Note_on_c, 0, 70, 38
3, 8640, Note_on_c, 0, 70, 0
3, 8640, Note_on_c, 0, 69, 38
3, 8880, Note_on_c, 0, 69, 0
3, 8880, Note_on_c, 0, 65, 38
3, 9120, Note_on_c, 0, 65, 0
3, 9120, Note_on_c, 0, 60, 0
3, 9120, Note_on_c, 0, 64, 38
3, 9120, Note_on_c, 0, 60, 38
3, 9360, Note_on_c, 0, 64, 0
3, 9360, Note_on_c, 0, 70, 38
3, 9600, Note_on_c, 0, 70, 0
3, 9600, Note_on_c, 0, 69, 38
3, 9840, Note_on_c, 0, 69, 0
3, 9840, Note_on_c, 0, 65, 38
3, 10080, Note_on_c, 0, 65, 0
3, 10080, Note_on_c, 0, 60, 0
3, 10080, Note_on_c, 0, 60, 38
3, 10120, Note_on_c, 0, 60, 0
3, 10120, Note_on_c, 0, 64, 38
3, 10160, Note_on_c, 0, 64, 0
3, 10160, Note_on_c, 0, 67, 38
3, 10200, Note_on_c, 0, 67, 0
3, 10200, Note_on_c, 0, 60, 38
3, 10240, Note_on_c, 0, 60, 0
3, 10240, Note_on_c, 0, 64, 38
3, 10280, Note_on_c, 0, 64, 0
3, 10280, Note_on_c, 0, 67, 38
3, 10320, Note_on_c, 0, 67, 0
3, 10320, Note_on_c, 0, 60, 38
3, 10360, Note_on_c, 0, 60, 0
3, 10360, Note_on_c, 0, 64, 38
3, 10400, Note_on_c, 0, 64, 0
3, 10400, Note_on_c, 0, 67, 38
3, 10440, Note_on_c, 0, 67, 0
3, 10440, Note_on_c, 0, 59, 44
3, 10480, Note_on_c, 0, 59, 0
3, 10480, Note_on_c, 0, 62, 42
3, 10520, Note_on_c, 0, 62, 0
3, 10520, Note_on_c, 0, 67, 39
3, 10560, Note_on_c, 0, 67, 0
3, 10560, Note_on_c, 0, 60, 38
3, 10600, Note_on_c, 0, 60, 0
3, 10600, Note_on_c, 0, 64, 38
3, 10640, Note_on_c, 0, 64, 0
3, 10640, Note_on_c, 0, 67, 38
3, 10680, Note_on_c, 0, 67, 0
3, 10680, Note_on_c, 0, 60, 38
3, 10720, Note_on_c, 0, 60, 0
3, 10720, Note_on_c, 0, 64, 38
3, 10760, Note_on_c, 0, 64, 0
3, 10760, Note_on_c, 0, 67, 38
3, 10800, Note_on_c, 0, 67, 0
3, 10800, Note_on_c, 0, 60, 38
3, 10840, Note_on_c, 0, 60, 0
3, 10840, Note_on_c, 0, 64, 38
3, 10880, Note_on_c, 0, 64, 0
3, 10880, Note_on_c, 0, 67, 38
3, 10920, Note_on_c, 0, 67, 0
3, 10920, Note_on_c, 0, 59, 44
3, 10960, Note_on_c, 0, 59, 0
3, 10960, Note_on_c, 0, 62, 41
3, 11000, Note_on_c, 0, 62, 0
3, 11000, Note_on_c, 0, 67, 38
3, 11040, Note_on_c, 0, 67, 0
3, 11040, Note_on_c, 0, 60, 38
3, 11080, Note_on_c, 0, 60, 0
3, 11080, Note_on_c, 0, 64, 38
3, 11120, Note_on_c, 0, 64, 0
3, 11120, Note_on_c, 0, 67, 38
3, 11160, Note_on_c, 0, 67, 0
3, 11160, Note_on_c, 0, 60, 38
3, 11200, Note_on_c, 0, 60, 0
3, 11200, Note_on_c, 0, 64, 38
3, 11240, Note_on_c, 0, 64, 0
3, 11240, Note_on_c, 0, 67, 38
3, 11280, Note_on_c, 0, 67, 0
3, 11280, Note_on_c, 0, 60, 38
3, 11320, Note_on_c, 0, 60, 0
3, 11320, Note_on_c, 0, 64, 38
3, 11360, Note_on_c, 0, 64, 0
3, 11360, Note_on_c, 0, 67, 38
3, 11400, Note_on_c, 0, 67, 0
3, 11400, Note_on_c, 0, 59, 45
3, 11440, Note_on_c, 0, 59, 0
3, 11440, Note_on_c, 0, 62, 42
3, 11480, Note_on_c, 0, 62, 0
3, 11480, Note_on_c, 0, 67, 38
3, 11520, Note_on_c, 0, 67, 0
3, 11520, Note_on_c, 0, 60, 38
3, 11560, Note_on_c, 0, 60, 0
3, 11560, Note_on_c, 0, 64, 38
3, 11600, Note_on_c, 0, 64, 0
3, 11600, Note_on_c, 0, 67, 38
3, 11640, Note_on_c, 0, 67, 0
3, 11640, Note_on_c, 0, 60, 38
3, 11680, Note_on_c, 0, 60, 0
3, 11680, Note_on_c, 0, 64, 38
3, 11720, Note_on_c, 0, 64, 0
3, 11720, Note_on_c, 0, 67, 38
3, 11760, Note_on_c, 0, 67, 0
3, 11760, Note_on_c, 0, 60, 38
3, 11800, Note_on_c, 0, 60, 0
3, 11800, Note_on_c, 0, 64, 38
3, 11840, Note_on_c, 0, 64, 0
3, 11840, Note_on_c, 0, 67, 38
3, 11880, Note_on_c, 0, 67, 0
3, 11880, Note_on_c, 0, 60, 48
3, 11920, Note_on_c, 0, 60, 0
3, 11920, Note_on_c, 0, 62, 43
3, 11960, Note_on_c, 0, 62, 0
3, 11960, Note_on_c, 0, 66, 38
3, 12000, Note_on_c, 0, 66, 0
3, 12000, Note_on_c, 0, 59, 38
3, 12040, Note_on_c, 0, 59, 0
3, 12040, Note_on_c, 0, 62, 38
3, 12080, Note_on_c, 0, 62, 0
3, 12080, Note_on_c, 0, 67, 38
3, 12120, Note_on_c, 0, 67, 0
3, 12120, Note_on_c, 0, 59, 38
3, 12160, Note_on_c, 0, 59, 0
3, 12160, Note_on_c, 0, 62, 38
3, 12200, Note_on_c, 0, 62, 0
3, 12200, Note_on_c, 0, 67, 38
3, 12240, Note_on_c, 0, 67, 0
3, 12240, Note_on_c, 0, 59, 38
3, 12280, Note_on_c, 0, 59, 0
3, 12280, Note_on_c, 0, 62, 38
3, 12320, Note_on_c, 0, 62, 0
3, 12320, Note_on_c, 0, 67, 38
3, 12360, Note_on_c, 0, 67, 0
3, 12360, Note_on_c, 0, 54, 47
3, 12400, Note_on_c, 0, 54, 0
3, 12400, Note_on_c, 0, 57, 46
3, 12440, Note_on_c, 0, 57, 0
3, 12440, Note_on_c, 0, 62, 44
3, 12480, Note_on_c, 0, 62, 0
3, 12480, Note_on_c, 0, 55, 42
3, 12520, Note_on_c, 0, 55, 0
3, 12520, Note_on_c, 0, 59, 41
3, 12560, Note_on_c, 0, 59, 0
3, 12560, Note_on_c, 0, 62, 41
3, 12600, Note_on_c, 0, 62, 0
3, 12600, Note_on_c, 0, 55, 41
3, 12640, Note_on_c, 0, 55, 0
3, 12640, Note_on_c, 0, 59, 41
3, 12680, Note_on_c, 0, 59, 0
3, 12680, Note_on_c, 0, 62, 41
3, 12720, Note_on_c, 0, 62, 0
3, 12720, Note_on_c, 0, 55, 41
3, 12760, Note_on_c, 0, 55, 0
3, 12760, Note_on_c, 0, 59, 41
3, 12800, Note_on_c, 0, 59, 0
3, 12800, Note_on_c, 0, 62, 41
3, 12840, Note_on_c, 0, 62, 0
3, 12840, Note_on_c, 0, 54, 47
3, 12880, Note_on_c, 0, 54, 0
3, 12880, Note_on_c, 0, 57, 44
3, 12920, Note_on_c, 0, 57, 0
3, 12920, Note_on_c, 0, 62, 40
3, 12960, Note_on_c, 0, 62, 0
3, 12960, Note_on_c, 0, 55, 38
3, 13000, Note_on_c, 0, 55, 0
3, 13000, Note_on_c, 0, 59, 38
3, 13040, Note_on_c, 0, 59, 0
3, 13040, Note_on_c, 0, 62, 38
3, 13080, Note_on_c, 0, 62, 0
3, 13080, Note_on_c, 0, 55, 38
3, 13120, Note_on_c, 0, 55, 0
3, 13120, Note_on_c, 0, 59, 38
3, 13160, Note_on_c, 0, 59, 0
3, 13160, Note_on_c, 0, 62, 38
3, 13200, Note_on_c, 0, 62, 0
3, 13200, Note_on_c, 0, 55, 38
3, 13240, Note_on_c, 0, 55, 0
3, 13240, Note_on_c, 0, 59, 38
3, 13280, Note_on_c, 0, 59, 0
3, 13280, Note_on_c, 0, 62, 38
3, 13320, Note_on_c, 0, 62, 0
3, 13320, Note_on_c, 0, 55, 38
3, 13360, Note_on_c, 0, 55, 0
3, 13360, Note_on_c, 0, 59, 38
3, 13400, Note_on_c, 0, 59, 0
3, 13400, Note_on_c, 0, 62, 38
3, 13440, Note_on_c, 0, 62, 0
3, 13440, Note_on_c, 0, 54, 38
3, 13480, Note_on_c, 0, 54, 0
3, 13480, Note_on_c, 0, 57, 39
3, 13520, Note_on_c, 0, 57, 0
3, 13520, Note_on_c, 0, 62, 39
3, 13560, Note_on_c, 0, 62, 0
3, 13560, Note_on_c, 0, 54, 40
3, 13600, Note_on_c, 0, 54, 0
3, 13600, Note_on_c, 0, 57, 41
3, 13640, Note_on_c, 0, 57, 0
3, 13640, Note_on_c, 0, 62, 41
3, 13680, Note_on_c, 0, 62, 0
3, 13680, Note_on_c, 0, 55, 42
3, 13720, Note_on_c, 0, 55, 0
3, 13720, Note_on_c, 0, 59, 42
3, 13760, Note_on_c, 0, 59, 0
3, 13760, Note_on_c, 0, 62, 43
3, 13800, Note_on_c, 0, 62, 0
3, 13800, Note_on_c, 0, 55, 43
3, 13840, Note_on_c, 0, 55, 0
3, 13840, Note_on_c, 0, 59, 44
3, 13880, Note_on_c, 0, 59, 0
3, 13880, Note_on_c, 0, 62, 44
3, 13920, Note_on_c, 0, 62, 0
3, 13920, Note_on_c, 0, 60, 45
3, 13960, Note_on_c, 0, 60, 0
3, 13960, Note_on_c, 0, 62, 45
3, 14000, Note_on_c, 0, 62, 0
3, 14000, Note_on_c, 0, 66, 46
3, 14040, Note_on_c, 0, 66, 0
3, 14040, Note_on_c, 0, 60, 46
3, 14080, Note_on_c, 0, 60, 0
3, 14080, Note_on_c, 0, 62, 47
3, 14120, Note_on_c, 0, 62, 0
3, 14120, Note_on_c, 0, 66, 47
3, 14160, Note_on_c, 0, 66, 0
3, 14160, Note_on_c, 0, 59, 48
3, 14200, Note_on_c, 0, 59, 0
3, 14200, Note_on_c, 0, 62, 48
3, 14240, Note_on_c, 0, 62, 0
3, 14240, Note_on_c, 0, 67, 49
3, 14280, Note_on_c, 0, 67, 0
3, 14280, Note_on_c, 0, 59, 49
3, 14320, Note_on_c, 0, 59, 0
3, 14320, Note_on_c, 0, 62, 50
3, 14360, Note_on_c, 0, 62, 0
3, 14360, Note_on_c, 0, 67, 50
3, 14400, Note_on_c, 0, 67, 0
3, 14400, Note_on_c, 0, 54, 36
3, 14440, Note_on_c, 0, 54, 0
3, 14440, Note_on_c, 0, 57, 36
3, 14480, Note_on_c, 0, 57, 0
3, 14480, Note_on_c, 0, 62, 36
3, 14520, Note_on_c, 0, 62, 0
3, 14520, Note_on_c, 0, 54, 37
3, 14560, Note_on_c, 0, 54, 0
3, 14560, Note_on_c, 0, 57, 37
3, 14600, Note_on_c, 0, 57, 0
3, 14600, Note_on_c, 0, 62, 38
3, 14640, Note_on_c, 0, 62, 0
3, 14640, Note_on_c, 0, 55, 38
3, 14680, Note_on_c, 0, 55, 0
3, 14680, Note_on_c, 0, 59, 39
3, 14720, Note_on_c, 0, 59, 0
3, 14720, Note_on_c, 0, 62, 39
3, 14760, Note_on_c, 0, 62, 0
3, 14760, Note_on_c, 0, 55, 40
3, 14800, Note_on_c, 0, 55, 0
3, 14800, Note_on_c, 0, 59, 40
3, 14840, Note_on_c, 0, 59, 0
3, 14840, Note_on_c, 0, 62, 41
3, 14880, Note_on_c, 0, 62, 0
3, 14880, Note_on_c, 0, 60, 41
3, 14920, Note_on_c, 0, 60, 0
3, 14920, Note_on_c, 0, 62, 41
3, 14960, Note_on_c, 0, 62, 0
3, 14960, Note_on_c, 0, 66, 42
3, 15000, Note_on_c, 0, 66, 0
3, 15000, Note_on_c, 0, 60, 42
3, 15040, Note_on_c, 0, 60, 0
3, 15040, Note_on_c, 0, 62, 43
3, 15080, Note_on_c, 0, 62, 0
3, 15080, Note_on_c, 0, 66, 43
3, 15120, Note_on_c, 0, 66, 0
3, 15120, Note_on_c, 0, 59, 44
3, 15160, Note_on_c, 0, 59, 0
3, 15160, Note_on_c, 0, 62, 44
3, 15200, Note_on_c, 0, 62, 0
3, 15200, Note_on_c, 0, 67, 45
3, 15240, Note_on_c, 0, 67, 0
3, 15240, Note_on_c, 0, 59, 45
3, 15280, Note_on_c, 0, 59, 0
3, 15280, Note_on_c, 0, 62, 46
3, 15320, Note_on_c, 0, 62, 0
3, 15320, Note_on_c, 0, 67, 46
3, 15360, Note_on_c, 0, 67, 0
3, 15360, Note_on_c, 0, 60, 46
3, 15400, Note_on_c, 0, 60, 0
3, 15400, Note_on_c, 0, 64, 43
3, 15440, Note_on_c, 0, 64, 0
3, 15440, Note_on_c, 0, 69, 43
3, 15480, Note_on_c, 0, 69, 0
3, 15480, Note_on_c, 0, 60, 43
3, 15520, Note_on_c, 0, 60, 0
3, 15520, Note_on_c, 0, 64, 43
3, 15560, Note_on_c, 0, 64, 0
3, 15560, Note_on_c, 0, 69, 43
3, 15600, Note_on_c, 0, 69, 0
3, 15600, Note_on_c, 0, 61, 43
3, 15640, Note_on_c, 0, 61, 0
3, 15640, Note_on_c, 0, 64, 43
3, 15680, Note_on_c, 0, 64, 0
3, 15680, Note_on_c, 0, 69, 43
3, 15720, Note_on_c, 0, 69, 0
3, 15720, Note_on_c, 0, 61, 43
3, 15760, Note_on_c, 0, 61, 0
3, 15760, Note_on_c, 0, 64, 43
3, 15800, Note_on_c, 0, 64, 0
3, 15800, Note_on_c, 0, 69, 43
3, 15840, Note_on_c, 0, 69, 0
3, 15840, Note_on_c, 0, 62, 43
3, 15960, Note_on_c, 0, 62, 0
3, 16050, Note_on_c, 0, 62, 56
3, 16080, Note_on_c, 0, 62, 0
3, 16080, Note_on_c, 0, 66, 56
3, 16170, Note_on_c, 0, 66, 0
3, 16170, Note_on_c, 0, 62, 56
3, 16200, Note_on_c, 0, 62, 0
3, 16200, Note_on_c, 0, 69, 56
3, 16290, Note_on_c, 0, 69, 0
3, 16290, Note_on_c, 0, 66, 56
3, 16320, Note_on_c, 0, 66, 0
3, 16320, Note_on_c, 0, 74, 56
3, 16440, Note_on_c, 0, 74, 0
3, 16530, Note_on_c, 0, 50, 56
3, 16560, Note_on_c, 0, 50, 0
3, 16560, Note_on_c, 0, 54, 56
3, 16600, Note_on_c, 0, 54, 0
3, 16600, Note_on_c, 0, 50, 56
3, 16640, Note_on_c, 0, 50, 0
3, 16640, Note_on_c, 0, 54, 56
3, 16680, Note_on_c, 0, 54, 0
3, 16680, Note_on_c, 0, 57, 56
3, 16720, Note_on_c, 0, 57, 0
3, 16720, Note_on_c, 0, 54, 56
3, 16760, Note_on_c, 0, 54, 0
3, 16760, Note_on_c, 0, 57, 56
3, 16800, Note_on_c, 0, 57, 0
3, 16800, Note_on_c, 0, 62, 56
3, 16920, Note_on_c, 0, 62, 0
3, 17040, Note_on_c, 0, 38, 56
3, 17220, Note_on_c, 0, 38, 0
3, 17220, Note_on_c, 0, 38, 56
3, 17250, Note_on_c, 0, 38, 0
3, 17280, Note_on_c, 0, 38, 56
3, 17520, Note_on_c, 0, 38, 0
3, 17760, Note_on_c, 0, 59, 35
3, 17800, Note_on_c, 0, 59, 0
3, 17800, Note_on_c, 0, 62, 35
3, 17840, Note_on_c, 0, 62, 0
3, 17840, Note_on_c, 0, 67, 35
3, 17880, Note_on_c, 0, 67, 0
3, 17880, Note_on_c, 0, 59, 35
3, 17920, Note_on_c, 0, 59, 0
3, 17920, Note_on_c, 0, 62, 35
3, 17960, Note_on_c, 0, 62, 0
3, 17960, Note_on_c, 0, 67, 35
3, 18000, Note_on_c, 0, 67, 0
3, 18000, Note_on_c, 0, 59, 35
3, 18040, Note_on_c, 0, 59, 0
3, 18040, Note_on_c, 0, 62, 35
3, 18080, Note_on_c, 0, 62, 0
3, 18080, Note_on_c, 0, 67, 35
3, 18120, Note_on_c, 0, 67, 0
3, 18120, Note_on_c, 0, 60, 35
3, 18160, Note_on_c, 0, 60, 0
3, 18160, Note_on_c, 0, 62, 35
3, 18200, Note_on_c, 0, 62, 0
3, 18200, Note_on_c, 0, 66, 35
3, 18240, Note_on_c, 0, 66, 0
3, 18240, Note_on_c, 0, 59, 35
3, 18280, Note_on_c, 0, 59, 0
3, 18280, Note_on_c, 0, 62, 35
3, 18320, Note_on_c, 0, 62, 0
3, 18320, Note_on_c, 0, 67, 35
3, 18360, Note_on_c, 0, 67, 0
3, 18360, Note_on_c, 0, 59, 35
3, 18400, Note_on_c, 0, 59, 0
3, 18400, Note_on_c, 0, 62, 35
3, 18440, Note_on_c, 0, 62, 0
3, 18440, Note_on_c, 0, 67, 35
3, 18480, Note_on_c, 0, 67, 0
3, 18480, Note_on_c, 0, 59, 35
3, 18520, Note_on_c, 0, 59, 0
3, 18520, Note_on_c, 0, 62, 35
3, 18560, Note_on_c, 0, 62, 0
3, 18560, Note_on_c, 0, 67, 35
3, 18600, Note_on_c, 0, 67, 0
3, 18600, Note_on_c, 0, 60, 35
3, 18640, Note_on_c, 0, 60, 0
3, 18640, Note_on_c, 0, 62, 35
3, 18680, Note_on_c, 0, 62, 0
3, 18680, Note_on_c, 0, 66, 35
3, 18720, Note_on_c, 0, 66, 0
3, 18720, Note_on_c, 0, 59, 35
3, 18760, Note_on_c, 0, 59, 0
3, 18760, Note_on_c, 0, 62, 35
3, 18800, Note_on_c, 0, 62, 0
3, 18800, Note_on_c, 0, 67, 35
3, 18840, Note_on_c, 0, 67, 0
3, 18840, Note_on_c, 0, 59, 35
3, 18880, Note_on_c, 0, 59, 0
3, 18880, Note_on_c, 0, 62, 35
3, 18920, Note_on_c, 0, 62, 0
3, 18920, Note_on_c, 0, 67, 35
3, 18960, Note_on_c, 0, 67, 0
3, 18960, Note_on_c, 0, 59, 35
3, 19000, Note_on_c, 0, 59, 0
3, 19000, Note_on_c, 0, 62, 35
3, 19040, Note_on_c, 0, 62, 0
3, 19040, Note_on_c, 0, 67, 35
3, 19080, Note_on_c, 0, 67, 0
3, 19080, Note_on_c, 0, 60, 35
3, 19120, Note_on_c, 0, 60, 0
3, 19120, Note_on_c, 0, 62, 35
3, 19160, Note_on_c, 0, 62, 0
3, 19160, Note_on_c, 0, 66, 35
3, 19200, Note_on_c, 0, 66, 0
3, 19200, Note_on_c, 0, 59, 37
3, 19240, Note_on_c, 0, 59, 0
3, 19240, Note_on_c, 0, 62, 37
3, 19280, Note_on_c, 0, 62, 0
3, 19280, Note_on_c, 0, 67, 38
3, 19320, Note_on_c, 0, 67, 0
3, 19320, Note_on_c, 0, 59, 38
3, 19360, Note_on_c, 0, 59, 0
3, 19360, Note_on_c, 0, 62, 39
3, 19400, Note_on_c, 0, 62, 0
3, 19400, Note_on_c, 0, 67, 39
3, 19440, Note_on_c, 0, 67, 0
3, 19440, Note_on_c, 0, 54, 40
3, 19480, Note_on_c, 0, 54, 0
3, 19480, Note_on_c, 0, 57, 40
3, 19520, Note_on_c, 0, 57, 0
3, 19520, Note_on_c, 0, 62, 41
3, 19560, Note_on_c, 0, 62, 0
3, 19560, Note_on_c, 0, 54, 41
3, 19600, Note_on_c, 0, 54, 0
3, 19600, Note_on_c, 0, 57, 41
3, 19640, Note_on_c, 0, 57, 0
3, 19640, Note_on_c, 0, 62, 42
3, 19680, Note_on_c, 0, 62, 0
3, 19680, Note_on_c, 0, 55, 43
3, 19720, Note_on_c, 0, 55, 0
3, 19720, Note_on_c, 0, 59, 43
3, 19760, Note_on_c, 0, 59, 0
3, 19760, Note_on_c, 0, 62, 43
3, 19800, Note_on_c, 0, 62, 0
3, 19800, Note_on_c, 0, 55, 44
3, 19840, Note_on_c, 0, 55, 0
3, 19840, Note_on_c, 0, 59, 44
3, 19880, Note_on_c, 0, 59, 0
3, 19880, Note_on_c, 0, 62, 45
3, 19920, Note_on_c, 0, 62, 0
3, 19920, Note_on_c, 0, 52, 45
3, 19960, Note_on_c, 0, 52, 0
3, 19960, Note_on_c, 0, 55, 46
3, 20000, Note_on_c, 0, 55, 0
3, 20000, Note_on_c, 0, 60, 46
3, 20040, Note_on_c, 0, 60, 0
3, 20040, Note_on_c, 0, 52, 47
3, 20080, Note_on_c, 0, 52, 0
3, 20080, Note_on_c, 0, 55, 47
3, 20120, Note_on_c, 0, 55, 0
3, 20120, Note_on_c, 0, 60, 48
3, 20160, Note_on_c, 0, 60, 0
3, 20160, Note_on_c, 0, 47, 48
3, 20200, Note_on_c, 0, 47, 0
3, 20200, Note_on_c, 0, 50, 49
3, 20240, Note_on_c, 0, 50, 0
3, 20240, Note_on_c, 0, 55, 49
3, 20280, Note_on_c, 0, 55, 0
3, 20280, Note_on_c, 0, 47, 49
3, 20320, Note_on_c, 0, 47, 0
3, 20320, Note_on_c, 0, 50, 49
3, 20360, Note_on_c, 0, 50, 0
3, 20360, Note_on_c, 0, 55, 49
3, 20400, Note_on_c, 0, 55, 0
3, 20400, Note_on_c, 0, 47, 49
3, 20520, Note_on_c, 0, 47, 0
3, 20640, Note_on_c, 0, 36, 57
3, 20640, Note_on_c, 0, 48, 57
3, 20760, Note_on_c, 0, 48, 0
3, 20760, Note_on_c, 0, 36, 0
3, 21600, Note_on_c, 0, 71, 38
3, 21600, Note_on_c, 0, 62, 38
3, 21840, Note_on_c, 0, 71, 0
3, 21840, Note_on_c, 0, 72, 38
3, 22080, Note_on_c, 0, 72, 0
3, 22080, Note_on_c, 0, 62, 0
3, 22080, Note_on_c, 0, 67, 38
3, 22080, Note_on_c, 0, 71, 38
3, 22320, Note_on_c, 0, 71, 0
3, 22320, Note_on_c, 0, 67, 0
3, 22440, Note_on_c, 0, 79, 36
3, 22560, Note_on_c, 0, 79, 0
3, 22560, Note_on_c, 0, 78, 36
3, 22560, Note_on_c, 0, 81, 36
3, 22620, Note_on_c, 0, 81, 0
3, 22620, Note_on_c, 0, 78, 0
3, 22920, Note_on_c, 0, 76, 36
3, 23040, Note_on_c, 0, 76, 0
3, 23040, Note_on_c, 0, 78, 36
3, 23040, Note_on_c, 0, 74, 36
3, 23100, Note_on_c, 0, 74, 0
3, 23100, Note_on_c, 0, 78, 0
3, 23400, Note_on_c, 0, 72, 36
3, 23520, Note_on_c, 0, 72, 0
3, 23520, Note_on_c, 0, 74, 36
3, 23520, Note_on_c, 0, 71, 36
3, 23580, Note_on_c, 0, 71, 0
3, 23580, Note_on_c, 0, 74, 0
3, 23880, Note_on_c, 0, 71, 42
3, 23880, Note_on_c, 0, 67, 42
3, 23940, Note_on_c, 0, 67, 0
3, 23940, Note_on_c, 0, 71, 0
3, 24000, Note_on_c, 0, 72, 42
3, 24000, Note_on_c, 0, 60, 42
3, 24120, Note_on_c, 0, 60, 0
3, 24120, Note_on_c, 0, 72, 0
3, 24240, Note_on_c, 0, 62, 42
3, 24240, Note_on_c, 0, 69, 42
3, 24360, Note_on_c, 0, 69, 0
3, 24360, Note_on_c, 0, 62, 0
3, 24480, Note_on_c, 0, 67, 39
3, 24480, Note_on_c, 0, 71, 39
3, 24600, Note_on_c, 0, 71, 0
3, 24600, Note_on_c, 0, 67, 0
3, 24840, Note_on_c, 0, 79, 42
3, 24960, Note_on_c, 0, 79, 0
3, 24960, Note_on_c, 0, 78, 37
3, 24990, Note_on_c, 0, 78, 0
3, 25080, Note_on_c, 0, 78, 36
3, 25110, Note_on_c, 0, 78, 0
3, 25200, Note_on_c, 0, 78, 36
3, 25230, Note_on_c, 0, 78, 0
3, 25320, Note_on_c, 0, 79, 44
3, 25440, Note_on_c, 0, 79, 0
3, 25440, Note_on_c, 0, 78, 36
3, 25470, Note_on_c, 0, 78, 0
3, 25560, Note_on_c, 0, 78, 36
3, 25590, Note_on_c, 0, 78, 0
3, 25680, Note_on_c, 0, 78, 36
3, 25710, Note_on_c, 0, 78, 0
3, 25800, Note_on_c, 0, 76, 43
3, 25920, Note_on_c, 0, 76, 0
3, 25920, Note_on_c, 0, 74, 36
3, 25950, Note_on_c, 0, 74, 0
3, 26040, Note_on_c, 0, 74, 36
3, 26070, Note_on_c, 0, 74, 0
3, 26160, Note_on_c, 0, 74, 36
3, 26190, Note_on_c, 0, 74, 0
3, 26280, Note_on_c, 0, 76, 42
3, 26400, Note_on_c, 0, 76, 0
3, 26400, Note_on_c, 0, 74, 36
3, 26430, Note_on_c, 0, 74, 0
3, 26520, Note_on_c, 0, 74, 36
3, 26550, Note_on_c, 0, 74, 0
3, 26640, Note_on_c, 0, 74, 36
3, 26670, Note_on_c, 0, 74, 0
3, 26760, Note_on_c, 0, 72, 42
3, 26880, Note_on_c, 0, 72, 0
3, 26880, Note_on_c, 0, 71, 36
3, 26910, Note_on_c, 0, 71, 0
3, 27000, Note_on_c, 0, 71, 36
3, 27030, Note_on_c, 0, 71, 0
3, 27120, Note_on_c, 0, 71, 36
3, 27150, Note_on_c, 0, 71, 0
3, 27240, Note_on_c, 0, 72, 42
3, 27360, Note_on_c, 0, 72, 0
3, 27360, Note_on_c, 0, 71, 36
3, 27390, Note_on_c, 0, 71, 0
3, 27480, Note_on_c, 0, 71, 36
3, 27510, Note_on_c, 0, 71, 0
3, 27600, Note_on_c, 0, 71, 36
3, 27630, Note_on_c, 0, 71, 0
3, 27720, Note_on_c, 0, 72, 41
3, 27840, Note_on_c, 0, 72, 0
3, 27840, Note_on_c, 0, 71, 36
3, 27870, Note_on_c, 0, 71, 0
3, 27960, Note_on_c, 0, 66, 42
3, 28020, Note_on_c, 0, 66, 0
3, 28080, Note_on_c, 0, 67, 44
3, 28140, Note_on_c, 0, 67, 0
3, 28200, Note_on_c, 0, 69, 46
3, 28260, Note_on_c, 0, 69, 0
3, 28320, Note_on_c, 0, 71, 48
3, 28560, Note_on_c, 0, 71, 0
3, 28800, Note_on_c, 0, 48, 39
3, 28920, Note_on_c, 0, 60, 43
3, 29040, Note_on_c, 0, 60, 0
3, 29040, Note_on_c, 0, 48, 0
3, 29040, Note_on_c, 0, 59, 41
3, 29040, Note_on_c, 0, 50, 41
3, 29160, Note_on_c, 0, 59, 0
3, 29160, Note_on_c, 0, 57, 39
3, 29280, Note_on_c, 0, 57, 0
3, 29280, Note_on_c, 0, 50, 0
3, 29280, Note_on_c, 0, 55, 48
3, 29280, Note_on_c, 0, 50, 48
3, 29280, Note_on_c, 0, 47, 48
3, 29520, Note_on_c, 0, 47, 0
3, 29520, Note_on_c, 0, 50, 0
3, 29520, Note_on_c, 0, 55, 0
3, 29760, Note_on_c, 0, 48, 39
3, 29880, Note_on_c, 0, 60, 43
3, 30000, Note_on_c, 0, 60, 0
3, 30000, Note_on_c, 0, 48, 0
3, 30000, Note_on_c, 0, 59, 41
3, 30000, Note_on_c, 0, 50, 41
3, 30120, Note_on_c, 0, 59, 0
3, 30120, Note_on_c, 0, 57, 39
3, 30240, Note_on_c, 0, 57, 0
3, 30240, Note_on_c, 0, 50, 0
3, 30240, Note_on_c, 0, 55, 35
3, 30280, Note_on_c, 0, 55, 0
3, 30280, Note_on_c, 0, 59, 35
3, 30320, Note_on_c, 0, 59, 0
3, 30320, Note_on_c, 0, 62, 35
3, 30360, Note_on_c, 0, 62, 0
3, 30360, Note_on_c, 0, 55, 35
3, 30400, Note_on_c, 0, 55, 0
3, 30400, Note_on_c, 0, 59, 35
3, 30440, Note_on_c, 0, 59, 0
3, 30440, Note_on_c, 0, 62, 35
3, 30480, Note_on_c, 0, 62, 0
3, 30480, Note_on_c, 0, 55, 35
3, 30520, Note_on_c, 0, 55, 0
3, 30520, Note_on_c, 0, 59, 35
3, 30560, Note_on_c, 0, 59, 0
3, 30560, Note_on_c, 0, 62, 35
3, 30600, Note_on_c, 0, 62, 0
3, 30600, Note_on_c, 0, 50, 38
3, 30640, Note_on_c, 0, 50, 0
3, 30640, Note_on_c, 0, 54, 38
3, 30680, Note_on_c, 0, 54, 0
3, 30680, Note_on_c, 0, 62, 38
3, 30720, Note_on_c, 0, 62, 0
3, 30720, Note_on_c, 0, 55, 35
3, 30760, Note_on_c, 0, 55, 0
3, 30760, Note_on_c, 0, 59, 35
3, 30800, Note_on_c, 0, 59, 0
3, 30800, Note_on_c, 0, 62, 35
3, 30840, Note_on_c, 0, 62, 0
3, 30840, Note_on_c, 0, 55, 35
3, 30880, Note_on_c, 0, 55, 0
3, 30880, Note_on_c, 0, 59, 35
3, 30920, Note_on_c, 0, 59, 0
3, 30920, Note_on_c, 0, 62, 35
3, 30960, Note_on_c, 0, 62, 0
3, 30960, Note_on_c, 0, 55, 35
3, 31000, Note_on_c, 0, 55, 0
3, 31000, Note_on_c, 0, 59, 35
3, 31040, Note_on_c, 0, 59, 0
3, 31040, Note_on_c, 0, 62, 35
3, 31080, Note_on_c, 0, 62, 0
3, 31080, Note_on_c, 0, 50, 38
3, 31120, Note_on_c, 0, 50, 0
3, 31120, Note_on_c, 0, 54, 38
3, 31160, Note_on_c, 0, 54, 0
3, 31160, Note_on_c, 0, 62, 38
3, 31200, Note_on_c, 0, 62, 0
3, 31200, Note_on_c, 0, 55, 35
3, 31240, Note_on_c, 0, 55, 0
3, 31240, Note_on_c, 0, 59, 35
3, 31280, Note_on_c, 0, 59, 0
3, 31280, Note_on_c, 0, 62, 35
3, 31320, Note_on_c, 0, 62, 0
3, 31320, Note_on_c, 0, 55, 35
3, 31360, Note_on_c, 0, 55, 0
3, 31360, Note_on_c, 0, 59, 35
3, 31400, Note_on_c, 0, 59, 0
3, 31400, Note_on_c, 0, 62, 35
3, 31440, Note_on_c, 0, 62, 0
3, 31440, Note_on_c, 0, 55, 35
3, 31480, Note_on_c, 0, 55, 0
3, 31480, Note_on_c, 0, 59, 35
3, 31520, Note_on_c, 0, 59, 0
3, 31520, Note_on_c, 0, 62, 35
3, 31560, Note_on_c, 0, 62, 0
3, 31560, Note_on_c, 0, 50, 38
3, 31600, Note_on_c, 0, 50, 0
3, 31600, Note_on_c, 0, 54, 38
3, 31640, Note_on_c, 0, 54, 0
3, 31640, Note_on_c, 0, 62, 38
3, 31680, Note_on_c, 0, 62, 0
3, 31680, Note_on_c, 0, 55, 35
3, 31720, Note_on_c, 0, 55, 0
3, 31720, Note_on_c, 0, 59, 35
3, 31760, Note_on_c, 0, 59, 0
3, 31760, Note_on_c, 0, 62, 35
3, 31800, Note_on_c, 0, 62, 0
3, 31800, Note_on_c, 0, 55, 35
3, 31840, Note_on_c, 0, 55, 0
3, 31840, Note_on_c, 0, 59, 35
3, 31880, Note_on_c, 0, 59, 0
3, 31880, Note_on_c, 0, 62, 35
3, 31920, Note_on_c, 0, 62, 0
3, 31920, Note_on_c, 0, 55, 35
3, 31960, Note_on_c, 0, 55, 0
3, 31960, Note_on_c, 0, 59, 35
3, 32000, Note_on_c, 0, 59, 0
3, 32000, Note_on_c, 0, 62, 35
3, 32040, Note_on_c, 0, 62, 0
3, 32040, Note_on_c, 0, 50, 38
3, 32080, Note_on_c, 0, 50, 0
3, 32080, Note_on_c, 0, 54, 38
3, 32120, Note_on_c, 0, 54, 0
3, 32120, Note_on_c, 0, 62, 38
3, 32160, Note_on_c, 0, 62, 0
3, 32160, Note_on_c, 0, 55, 36
3, 32200, Note_on_c, 0, 55, 0
3, 32200, Note_on_c, 0, 59, 36
3, 32240, Note_on_c, 0, 59, 0
3, 32240, Note_on_c, 0, 62, 37
3, 32280, Note_on_c, 0, 62, 0
3, 32280, Note_on_c, 0, 55, 38
3, 32320, Note_on_c, 0, 55, 0
3, 32320, Note_on_c, 0, 59, 38
3, 32360, Note_on_c, 0, 59, 0
3, 32360, Note_on_c, 0, 62, 39
3, 32400, Note_on_c, 0, 62, 0
3, 32400, Note_on_c, 0, 55, 40
3, 32440, Note_on_c, 0, 55, 0
3, 32440, Note_on_c, 0, 59, 41
3, 32480, Note_on_c, 0, 59, 0
3, 32480, Note_on_c, 0, 62, 41
3, 32520, Note_on_c, 0, 62, 0
3, 32520, Note_on_c, 0, 55, 42
3, 32560, Note_on_c, 0, 55, 0
3, 32560, Note_on_c, 0, 59, 43
3, 32600, Note_on_c, 0, 59, 0
3, 32600, Note_on_c, 0, 62, 44
3, 32640, Note_on_c, 0, 62, 0
3, 32640, Note_on_c, 0, 55, 45
3, 32880, Note_on_c, 0, 55, 0
3, 33120, Note_on_c, 0, 64, 50
3, 33120, Note_on_c, 0, 60, 50
3, 33240, Note_on_c, 0, 60, 0
3, 33240, Note_on_c, 0, 64, 0
3, 33600, Note_on_c, 0, 64, 50
3, 33600, Note_on_c, 0, 60, 50
3, 33720, Note_on_c, 0, 60, 0
3, 33720, Note_on_c, 0, 64, 0
3, 34080, Note_on_c, 0, 62, 47
3, 34080, Note_on_c, 0, 65, 47
3, 34080, Note_on_c, 0, 55, 47
3, 34140, Note_on_c, 0, 55, 0
3, 34140, Note_on_c, 0, 65, 0
3, 34140, Note_on_c, 0, 62, 0
3, 34200, Note_on_c, 0, 62, 46
3, 34200, Note_on_c, 0, 65, 46
3, 34200, Note_on_c, 0, 55, 46
3, 34260, Note_on_c, 0, 55, 0
3, 34260, Note_on_c, 0, 65, 0
3, 34260, Note_on_c, 0, 62, 0
3, 34320, Note_on_c, 0, 60, 44
3, 34320, Note_on_c, 0, 64, 44
3, 34320, Note_on_c, 0, 55, 44
3, 34380, Note_on_c, 0, 55, 0
3, 34380, Note_on_c, 0, 64, 0
3, 34380, Note_on_c, 0, 60, 0
3, 34440, Note_on_c, 0, 60, 42
3, 34440, Note_on_c, 0, 64, 42
3, 34440, Note_on_c, 0, 55, 42
3, 34500, Note_on_c, 0, 55, 0
3, 34500, Note_on_c, 0, 64, 0
3, 34500, Note_on_c, 0, 60, 0
3, 34560, Note_on_c, 0, 55, 40
3, 34560, Note_on_c, 0, 62, 40
3, 34560, Note_on_c, 0, 59, 40
3, 34680, Note_on_c, 0, 59, 0
3, 34680, Note_on_c, 0, 62, 0
3, 34680, Note_on_c, 0, 55, 0
3, 35040, Note_on_c, 0, 67, 40
3, 35040, Note_on_c, 0, 59, 40
3, 35160, Note_on_c, 0, 59, 0
3, 35160, Note_on_c, 0, 67, 0
3, 35280, Note_on_c, 0, 60, 40
3, 35280, Note_on_c, 0, 67, 40
3, 35400, Note_on_c, 0, 67, 0
3, 35400, Note_on_c, 0, 60, 0
3, 35520, Note_on_c, 0, 65, 40
3, 35520, Note_on_c, 0, 67, 40
3, 35640, Note_on_c, 0, 67, 0
3, 35640, Note_on_c, 0, 65, 0
3, 35760, Note_on_c, 0, 64, 40
3, 35760, Note_on_c, 0, 67, 40
3, 35880, Note_on_c, 0, 67, 0
3, 35880, Note_on_c, 0, 64, 0
3, 36000, Note_on_c, 0, 65, 42
3, 36000, Note_on_c, 0, 53, 42
3, 36060, Note_on_c, 0, 53, 0
3, 36060, Note_on_c, 0, 65, 0
3, 36120, Note_on_c, 0, 53, 42
3, 36120, Note_on_c, 0, 65, 42
3, 36180, Note_on_c, 0, 65, 0
3, 36180, Note_on_c, 0, 53, 0
3, 36240, Note_on_c, 0, 55, 42
3, 36240, Note_on_c, 0, 62, 42
3, 36300, Note_on_c, 0, 62, 0
3, 36300, Note_on_c, 0, 55, 0
3, 36360, Note_on_c, 0, 55, 42
3, 36360, Note_on_c, 0, 62, 42
3, 36420, Note_on_c, 0, 62, 0
3, 36420, Note_on_c, 0, 55, 0
3, 36480, Note_on_c, 0, 60, 45
3, 36520, Note_on_c, 0, 60, 0
3, 36520, Note_on_c, 0, 64, 40
3, 36560, Note_on_c, 0, 64, 0
3, 36560, Note_on_c, 0, 67, 39
3, 36600, Note_on_c, 0, 67, 0
3, 36600, Note_on_c, 0, 60, 39
3, 36640, Note_on_c, 0, 60, 0
3, 36640, Note_on_c, 0, 64, 39
3, 36680, Note_on_c, 0, 64, 0
3, 36680, Note_on_c, 0, 67, 39
3, 36720, Note_on_c, 0, 67, 0
3, 36720, Note_on_c, 0, 60, 39
3, 36760, Note_on_c, 0, 60, 0
3, 36760, Note_on_c, 0, 64, 39
3, 36800, Note_on_c, 0, 64, 0
3, 36800, Note_on_c, 0, 67, 39
3, 36840, Note_on_c, 0, 67, 0
3, 36840, Note_on_c, 0, 60, 39
3, 36880, Note_on_c, 0, 60, 0
3, 36880, Note_on_c, 0, 64, 39
3, 36920, Note_on_c, 0, 64, 0
3, 36920, Note_on_c, 0, 67, 39
3, 36960, Note_on_c, 0, 67, 0
3, 36960, Note_on_c, 0, 60, 39
3, 37000, Note_on_c, 0, 60, 0
3, 37000, Note_on_c, 0, 64, 39
3, 37040, Note_on_c, 0, 64, 0
3, 37040, Note_on_c, 0, 67, 39
3, 37080, Note_on_c, 0, 67, 0
3, 37080, Note_on_c, 0, 60, 39
3, 37120, Note_on_c, 0, 60, 0
3, 37120, Note_on_c, 0, 64, 39
3, 37160, Note_on_c, 0, 64, 0
3, 37160, Note_on_c, 0, 67, 39
3, 37200, Note_on_c, 0, 67, 0
3, 37200, Note_on_c, 0, 60, 39
3, 37240, Note_on_c, 0, 60, 0
3, 37240, Note_on_c, 0, 64, 39
3, 37280, Note_on_c, 0, 64, 0
3, 37280, Note_on_c, 0, 67, 39
3, 37320, Note_on_c, 0, 67, 0
3, 37320, Note_on_c, 0, 60, 39
3, 37360, Note_on_c, 0, 60, 0
3, 37360, Note_on_c, 0, 64, 39
3, 37400, Note_on_c, 0, 64, 0
3, 37400, Note_on_c, 0, 67, 39
3, 37440, Note_on_c, 0, 67, 0
3, 37440, Note_on_c, 0, 60, 39
3, 37480, Note_on_c, 0, 60, 0
3, 37480, Note_on_c, 0, 64, 39
3, 37520, Note_on_c, 0, 64, 0
3, 37520, Note_on_c, 0, 67, 39
3, 37560, Note_on_c, 0, 67, 0
3, 37560, Note_on_c, 0, 60, 39
3, 37600, Note_on_c, 0, 60, 0
3, 37600, Note_on_c, 0, 64, 39
3, 37640, Note_on_c, 0, 64, 0
3, 37640, Note_on_c, 0, 67, 39
3, 37680, Note_on_c, 0, 67, 0
3, 37680, Note_on_c, 0, 60, 39
3, 37720, Note_on_c, 0, 60, 0
3, 37720, Note_on_c, 0, 64, 39
3, 37760, Note_on_c, 0, 64, 0
3, 37760, Note_on_c, 0, 67, 39
3, 37800, Note_on_c, 0, 67, 0
3, 37800, Note_on_c, 0, 60, 39
3, 37840, Note_on_c, 0, 60, 0
3, 37840, Note_on_c, 0, 64, 39
3, 37880, Note_on_c, 0, 64, 0
3, 37880, Note_on_c, 0, 67, 39
3, 37920, Note_on_c, 0, 67, 0
3, 37920, Note_on_c, 0, 62, 50
3, 37960, Note_on_c, 0, 62, 0
3, 37960, Note_on_c, 0, 65, 43
3, 38000, Note_on_c, 0, 65, 0
3, 38000, Note_on_c, 0, 67, 39
3, 38040, Note_on_c, 0, 67, 0
3, 38040, Note_on_c, 0, 62, 50
3, 38080, Note_on_c, 0, 62, 0
3, 38080, Note_on_c, 0, 65, 50
3, 38120, Note_on_c, 0, 65, 0
3, 38120, Note_on_c, 0, 67, 50
3, 38160, Note_on_c, 0, 67, 0
3, 38160, Note_on_c, 0, 60, 50
3, 38200, Note_on_c, 0, 60, 0
3, 38200, Note_on_c, 0, 64, 50
3, 38240, Note_on_c, 0, 64, 0
3, 38240, Note_on_c, 0, 67, 50
3, 38280, Note_on_c, 0, 67, 0
3, 38280, Note_on_c, 0, 60, 50
3, 38320, Note_on_c, 0, 60, 0
3, 38320, Note_on_c, 0, 64, 50
3, 38360, Note_on_c, 0, 64, 0
3, 38360, Note_on_c, 0, 67, 50
3, 38400, Note_on_c, 0, 67, 0
3, 38400, Note_on_c, 0, 59, 50
3, 38520, Note_on_c, 0, 59, 0
3, 38880, Note_on_c, 0, 55, 42
3, 38920, Note_on_c, 0, 55, 0
3, 38920, Note_on_c, 0, 59, 42
3, 38960, Note_on_c, 0, 59, 0
3, 38960, Note_on_c, 0, 62, 42
3, 39000, Note_on_c, 0, 62, 0
3, 39000, Note_on_c, 0, 55, 43
3, 39040, Note_on_c, 0, 55, 0
3, 39040, Note_on_c, 0, 59, 43
3, 39080, Note_on_c, 0, 59, 0
3, 39080, Note_on_c, 0, 62, 43
3, 39120, Note_on_c, 0, 62, 0
3, 39120, Note_on_c, 0, 55, 44
3, 39160, Note_on_c, 0, 55, 0
3, 39160, Note_on_c, 0, 60, 44
3, 39200, Note_on_c, 0, 60, 0
3, 39200, Note_on_c, 0, 64, 44
3, 39240, Note_on_c, 0, 64, 0
3, 39240, Note_on_c, 0, 55, 45
3, 39280, Note_on_c, 0, 55, 0
3, 39280, Note_on_c, 0, 60, 45
3, 39320, Note_on_c, 0, 60, 0
3, 39320, Note_on_c, 0, 64, 45
3, 39360, Note_on_c, 0, 64, 0
3, 39360, Note_on_c, 0, 55, 46
3, 39400, Note_on_c, 0, 55, 0
3, 39400, Note_on_c, 0, 62, 51
3, 39440, Note_on_c, 0, 62, 0
3, 39440, Note_on_c, 0, 65, 51
3, 39480, Note_on_c, 0, 65, 0
3, 39480, Note_on_c, 0, 55, 51
3, 39520, Note_on_c, 0, 55, 0
3, 39520, Note_on_c, 0, 62, 51
3, 39560, Note_on_c, 0, 62, 0
3, 39560, Note_on_c, 0, 65, 51
3, 39600, Note_on_c, 0, 65, 0
3, 39600, Note_on_c, 0, 57, 42
3, 39640, Note_on_c, 0, 57, 0
3, 39640, Note_on_c, 0, 60, 43
3, 39680, Note_on_c, 0, 60, 0
3, 39680, Note_on_c, 0, 64, 43
3, 39720, Note_on_c, 0, 64, 0
3, 39720, Note_on_c, 0, 57, 43
3, 39760, Note_on_c, 0, 57, 0
3, 39760, Note_on_c, 0, 60, 43
3, 39800, Note_on_c, 0, 60, 0
3, 39800, Note_on_c, 0, 64, 43
3, 39840, Note_on_c, 0, 64, 0
3, 39840, Note_on_c, 0, 53, 46
3, 39880, Note_on_c, 0, 53, 0
3, 39880, Note_on_c, 0, 57, 46
3, 39920, Note_on_c, 0, 57, 0
3, 39920, Note_on_c, 0, 62, 46
3, 39960, Note_on_c, 0, 62, 0
3, 39960, Note_on_c, 0, 53, 46
3, 40000, Note_on_c, 0, 53, 0
3, 40000, Note_on_c, 0, 57, 46
3, 40040, Note_on_c, 0, 57, 0
3, 40040, Note_on_c, 0, 62, 46
3, 40080, Note_on_c, 0, 62, 0
3, 40080, Note_on_c, 0, 55, 46
3, 40120, Note_on_c, 0, 55, 0
3, 40120, Note_on_c, 0, 62, 46
3, 40160, Note_on_c, 0, 62, 0
3, 40160, Note_on_c, 0, 65, 46
3, 40200, Note_on_c, 0, 65, 0
3, 40200, Note_on_c, 0, 55, 46
3, 40240, Note_on_c, 0, 55, 0
3, 40240, Note_on_c, 0, 62, 46
3, 40280, Note_on_c, 0, 62, 0
3, 40280, Note_on_c, 0, 65, 46
3, 40320, Note_on_c, 0, 65, 0
3, 40320, Note_on_c, 0, 64, 38
3, 40320, Note_on_c, 0, 60, 38
3, 40560, Note_on_c, 0, 64, 0
3, 40560, Note_on_c, 0, 70, 38
3, 40800, Note_on_c, 0, 70, 0
3, 40800, Note_on_c, 0, 69, 38
3, 41040, Note_on_c, 0, 69, 0
3, 41040, Note_on_c, 0, 65, 38
3, 41280, Note_on_c, 0, 65, 0
3, 41280, Note_on_c, 0, 60, 0
3, 41280, Note_on_c, 0, 64, 38
3, 41280, Note_on_c, 0, 60, 38
3, 41520, Note_on_c, 0, 64, 0
3, 41520, Note_on_c, 0, 70, 38
3, 41760, Note_on_c, 0, 70, 0
3, 41760, Note_on_c, 0, 69, 38
3, 42000, Note_on_c, 0, 69, 0
3, 42000, Note_on_c, 0, 65, 38
3, 42240, Note_on_c, 0, 65, 0
3, 42240, Note_on_c, 0, 60, 0
3, 42240, Note_on_c, 0, 60, 38
3, 42280, Note_on_c, 0, 60, 0
3, 42280, Note_on_c, 0, 64, 38
3, 42320, Note_on_c, 0, 64, 0
3, 42320, Note_on_c, 0, 67, 38
3, 42360, Note_on_c, 0, 67, 0
3, 42360, Note_on_c, 0, 60, 38
3, 42400, Note_on_c, 0, 60, 0
3, 42400, Note_on_c, 0, 64, 38
3, 42440, Note_on_c, 0, 64, 0
3, 42440, Note_on_c, 0, 67, 38
3, 42480, Note_on_c, 0, 67, 0
3, 42480, Note_on_c, 0, 60, 38
3, 42520, Note_on_c, 0, 60, 0
3, 42520, Note_on_c, 0, 64, 38
3, 42560, Note_on_c, 0, 64, 0
3, 42560, Note_on_c, 0, 67, 38
3, 42600, Note_on_c, 0, 67, 0
3, 42600, Note_on_c, 0, 59, 44
3, 42640, Note_on_c, 0, 59, 0
3, 42640, Note_on_c, 0, 62, 42
3, 42680, Note_on_c, 0, 62, 0
3, 42680, Note_on_c, 0, 67, 39
3, 42720, Note_on_c, 0, 67, 0
3, 42720, Note_on_c, 0, 60, 38
3, 42760, Note_on_c, 0, 60, 0
3, 42760, Note_on_c, 0, 64, 38
3, 42800, Note_on_c, 0, 64, 0
3, 42800, Note_on_c, 0, 67, 38
3, 42840, Note_on_c, 0, 67, 0
3, 42840, Note_on_c, 0, 60, 38
3, 42880, Note_on_c, 0, 60, 0
3, 42880, Note_on_c, 0, 64, 38
3, 42920, Note_on_c, 0, 64, 0
3, 42920, Note_on_c, 0, 67, 38
3, 42960, Note_on_c, 0, 67, 0
3, 42960, Note_on_c, 0, 60, 38
3, 43000, Note_on_c, 0, 60, 0
3, 43000, Note_on_c, 0, 64, 38
3, 43040, Note_on_c, 0, 64, 0
3, 43040, Note_on_c, 0, 67, 38
3, 43080, Note_on_c, 0, 67, 0
3, 43080, Note_on_c, 0, 59, 44
3, 43120, Note_on_c, 0, 59, 0
3, 43120, Note_on_c, 0, 62, 41
3, 43160, Note_on_c, 0, 62, 0
3, 43160, Note_on_c, 0, 67, 38
3, 43200, Note_on_c, 0, 67, 0
3, 43200, Note_on_c, 0, 60, 38
3, 43240, Note_on_c, 0, 60, 0
3, 43240, Note_on_c, 0, 64, 38
3, 43280, Note_on_c, 0, 64, 0
3, 43280, Note_on_c, 0, 67, 38
3, 43320, Note_on_c, 0, 67, 0
3, 43320, Note_on_c, 0, 60, 38
3, 43360, Note_on_c, 0, 60, 0
3, 43360, Note_on_c, 0, 64, 38
3, 43400, Note_on_c, 0, 64, 0
3, 43400, Note_on_c, 0, 67, 38
3, 43440, Note_on_c, 0, 67, 0
3, 43440, Note_on_c, 0, 60, 38
3, 43480, Note_on_c, 0, 60, 0
3, 43480, Note_on_c, 0, 64, 38
3, 43520, Note_on_c, 0, 64, 0
3, 43520, Note_on_c, 0, 67, 38
3, 43560, Note_on_c, 0, 67, 0
3, 43560, Note_on_c, 0, 59, 45
3, 43600, Note_on_c, 0, 59, 0
3, 43600, Note_on_c, 0, 62, 42
3, 43640, Note_on_c, 0, 62, 0
3, 43640, Note_on_c, 0, 67, 38
3, 43680, Note_on_c, 0, 67, 0
3, 43680, Note_on_c, 0, 60, 38
3, 43720, Note_on_c, 0, 60, 0
3, 43720, Note_on_c, 0, 64, 38
3, 43760, Note_on_c, 0, 64, 0
3, 43760, Note_on_c, 0, 67, 38
3, 43800, Note_on_c, 0, 67, 0
3, 43800, Note_on_c, 0, 60, 38
3, 43840, Note_on_c, 0, 60, 0
3, 43840, Note_on_c, 0, 64, 38
3, 43880, Note_on_c, 0, 64, 0
3, 43880, Note_on_c, 0, 67, 38
3, 43920, Note_on_c, 0, 67, 0
3, 43920, Note_on_c, 0, 60, 38
3, 43960, Note_on_c, 0, 60, 0
3, 43960, Note_on_c, 0, 64, 38
3, 44000, Note_on_c, 0, 64, 0
3, 44000, Note_on_c, 0, 67, 38
3, 44040, Note_on_c, 0, 67, 0
3, 44040, Note_on_c, 0, 60, 48
3, 44080, Note_on_c, 0, 60, 0
3, 44080, Note_on_c, 0, 62, 43
3, 44120, Note_on_c, 0, 62, 0
3, 44120, Note_on_c, 0, 66, 38
3, 44160, Note_on_c, 0, 66, 0
3, 44160, Note_on_c, 0, 59, 38
3, 44200, Note_on_c, 0, 59, 0
3, 44200, Note_on_c, 0, 62, 38
3, 44240, Note_on_c, 0, 62, 0
3, 44240, Note_on_c, 0, 67, 38
3, 44280, Note_on_c, 0, 67, 0
3, 44280, Note_on_c, 0, 59, 38
3, 44320, Note_on_c, 0, 59, 0
3, 44320, Note_on_c, 0, 62, 38
3, 44360, Note_on_c, 0, 62, 0
3, 44360, Note_on_c, 0, 67, 38
3, 44400, Note_on_c, 0, 67, 0
3, 44400, Note_on_c, 0, 59, 38
3, 44440, Note_on_c, 0, 59, 0
3, 44440, Note_on_c, 0, 62, 38
3, 44480, Note_on_c, 0, 62, 0
3, 44480, Note_on_c, 0, 67, 38
3, 44520, Note_on_c, 0, 67, 0
3, 44520, Note_on_c, 0, 54, 47
3, 44560, Note_on_c, 0, 54, 0
3, 44560, Note_on_c, 0, 57, 46
3, 44600, Note_on_c, 0, 57, 0
3, 44600, Note_on_c, 0, 62, 44
3, 44640, Note_on_c, 0, 62, 0
3, 44640, Note_on_c, 0, 55, 42
3, 44680, Note_on_c, 0, 55, 0
3, 44680, Note_on_c, 0, 59, 41
3, 44720, Note_on_c, 0, 59, 0
3, 44720, Note_on_c, 0, 62, 41
3, 44760, Note_on_c, 0, 62, 0
3, 44760, Note_on_c, 0, 55, 41
3, 44800, Note_on_c, 0, 55, 0
3, 44800, Note_on_c, 0, 59, 41
3, 44840, Note_on_c, 0, 59, 0
3, 44840, Note_on_c, 0, 62, 41
3, 44880, Note_on_c, 0, 62, 0
3, 44880, Note_on_c, 0, 55, 41
3, 44920, Note_on_c, 0, 55, 0
3, 44920, Note_on_c, 0, 59, 41
3, 44960, Note_on_c, 0, 59, 0
3, 44960, Note_on_c, 0, 62, 41
3, 45000, Note_on_c, 0, 62, 0
3, 45000, Note_on_c, 0, 54, 47
3, 45040, Note_on_c, 0, 54, 0
3, 45040, Note_on_c, 0, 57, 44
3, 45080, Note_on_c, 0, 57, 0
3, 45080, Note_on_c, 0, 62, 40
3, 45120, Note_on_c, 0, 62, 0
3, 45120, Note_on_c, 0, 55, 38
3, 45160, Note_on_c, 0, 55, 0
3, 45160, Note_on_c, 0, 59, 38
3, 45200, Note_on_c, 0, 59, 0
3, 45200, Note_on_c, 0, 62, 38
3, 45240, Note_on_c, 0, 62, 0
3, 45240, Note_on_c, 0, 55, 38
3, 45280, Note_on_c, 0, 55, 0
3, 45280, Note_on_c, 0, 59, 38
3, 45320, Note_on_c, 0, 59, 0
3, 45320, Note_on_c, 0, 62, 38
3, 45360, Note_on_c, 0, 62, 0
3, 45360, Note_on_c, 0, 55, 38
3, 45400, Note_on_c, 0, 55, 0
3, 45400, Note_on_c, 0, 59, 38
3, 45440, Note_on_c, 0, 59, 0
3, 45440, Note_on_c, 0, 62, 38
3, 45480, Note_on_c, 0, 62, 0
3, 45480, Note_on_c, 0, 55, 38
3, 45520, Note_on_c, 0, 55, 0
3, 45520, Note_on_c, 0, 59, 38
3, 45560, Note_on_c, 0, 59, 0
3, 45560, Note_on_c, 0, 62, 38
3, 45600, Note_on_c, 0, 62, 0
3, 45600, Note_on_c, 0, 54, 38
3, 45640, Note_on_c, 0, 54, 0
3, 45640, Note_on_c, 0, 57, 39
3, 45680, Note_on_c, 0, 57, 0
3, 45680, Note_on_c, 0, 62, 39
3, 45720, Note_on_c, 0, 62, 0
3, 45720, Note_on_c, 0, 54, 40
3, 45760, Note_on_c, 0, 54, 0
3, 45760, Note_on_c, 0, 57, 41
3, 45800, Note_on_c, 0, 57, 0
3, 45800, Note_on_c, 0, 62, 41
3, 45840, Note_on_c, 0, 62, 0
3, 45840, Note_on_c, 0, 55, 42
3, 45880, Note_on_c, 0, 55, 0
3, 45880, Note_on_c, 0, 59, 42
3, 45920, Note_on_c, 0, 59, 0
3, 45920, Note_on_c, 0, 62, 43
3, 45960, Note_on_c, 0, 62, 0
3, 45960, Note_on_c, 0, 55, 43
3, 46000, Note_on_c, 0, 55, 0
3, 46000, Note_on_c, 0, 59, 44
3, 46040, Note_on_c, 0, 59, 0
3, 46040, Note_on_c, 0, 62, 44
3, 46080, Note_on_c, 0, 62, 0
3, 46080, Note_on_c, 0, 60, 45
3, 46120, Note_on_c, 0, 60, 0
3, 46120, Note_on_c, 0, 62, 45
3, 46160, Note_on_c, 0, 62, 0
3, 46160, Note_on_c, 0, 66, 46
3, 46200, Note_on_c, 0, 66, 0
3, 46200, Note_on_c, 0, 60, 46
3, 46240, Note_on_c, 0, 60, 0
3, 46240, Note_on_c, 0, 62, 47
3, 46280, Note_on_c, 0, 62, 0
3, 46280, Note_on_c, 0, 66, 47
3, 46320, Note_on_c, 0, 66, 0
3, 46320, Note_on_c, 0, 59, 48
3, 46360, Note_on_c, 0, 59, 0
3, 46360, Note_on_c, 0, 62, 48
3, 46400, Note_on_c, 0, 62, 0
3, 46400, Note_on_c, 0, 67, 49
3, 46440, Note_on_c, 0, 67, 0
3, 46440, Note_on_c, 0, 59, 49
3, 46480, Note_on_c, 0, 59, 0
3, 46480, Note_on_c, 0, 62, 50
3, 46520, Note_on_c, 0, 62, 0
3, 46520, Note_on_c, 0, 67, 50
3, 46560, Note_on_c, 0, 67, 0
3, 46560, Note_on_c, 0, 54, 36
3, 46600, Note_on_c, 0, 54, 0
3, 46600, Note_on_c, 0, 57, 36
3, 46640, Note_on_c, 0, 57, 0
3, 46640, Note_on_c, 0, 62, 36
3, 46680, Note_on_c, 0, 62, 0
3, 46680, Note_on_c, 0, 54, 37
3, 46720, Note_on_c, 0, 54, 0
3, 46720, Note_on_c, 0, 57, 37
3, 46760, Note_on_c, 0, 57, 0
3, 46760, Note_on_c, 0, 62, 38
3, 46800, Note_on_c, 0, 62, 0
3, 46800, Note_on_c, 0, 55, 38
3, 46840, Note_on_c, 0, 55, 0
3, 46840, Note_on_c, 0, 59, 39
3, 46880, Note_on_c, 0, 59, 0
3, 46880, Note_on_c, 0, 62, 39
3, 46920, Note_on_c, 0, 62, 0
3, 46920, Note_on_c, 0, 55, 40
3, 46960, Note_on_c, 0, 55, 0
3, 46960, Note_on_c, 0, 59, 40
3, 47000, Note_on_c, 0, 59, 0
3, 47000, Note_on_c, 0, 62, 41
3, 47040, Note_on_c, 0, 62, 0
3, 47040, Note_on_c, 0, 60, 41
3, 47080, Note_on_c, 0, 60, 0
3, 47080, Note_on_c, 0, 62, 41
3, 47120, Note_on_c, 0, 62, 0
3, 47120, Note_on_c, 0, 66, 42
3, 47160, Note_on_c, 0, 66, 0
3, 47160, Note_on_c, 0, 60, 42
3, 47200, Note_on_c, 0, 60, 0
3, 47200, Note_on_c, 0, 62, 43
3, 47240, Note_on_c, 0, 62, 0
3, 47240, Note_on_c, 0, 66, 43
3, 47280, Note_on_c, 0, 66, 0
3, 47280, Note_on_c, 0, 59, 44
3, 47320, Note_on_c, 0, 59, 0
3, 47320, Note_on_c, 0, 62, 44
3, 47360, Note_on_c, 0, 62, 0
3, 47360, Note_on_c, 0, 67, 45
3, 47400, Note_on_c, 0, 67, 0
3, 47400, Note_on_c, 0, 59, 45
3, 47440, Note_on_c, 0, 59, 0
3, 47440, Note_on_c, 0, 62, 46
3, 47480, Note_on_c, 0, 62, 0
3, 47480, Note_on_c, 0, 67, 46
3, 47520, Note_on_c, 0, 67, 0
3, 47520, Note_on_c, 0, 60, 46
3, 47560, Note_on_c, 0, 60, 0
3, 47560, Note_on_c, 0, 64, 43
3, 47600, Note_on_c, 0, 64, 0
3, 47600, Note_on_c, 0, 69, 43
3, 47640, Note_on_c, 0, 69, 0
3, 47640, Note_on_c, 0, 60, 43
3, 47680, Note_on_c, 0, 60, 0
3, 47680, Note_on_c, 0, 64, 43
3, 47720, Note_on_c, 0, 64, 0
3, 47720, Note_on_c, 0, 69, 43
3, 47760, Note_on_c, 0, 69, 0
3, 47760, Note_on_c, 0, 61, 43
3, 47800, Note_on_c, 0, 61, 0
3, 47800, Note_on_c, 0, 64, 43
3, 47840, Note_on_c, 0, 64, 0
3, 47840, Note_on_c, 0, 69, 43
3, 47880, Note_on_c, 0, 69, 0
3, 47880, Note_on_c, 0, 61, 43
3, 47920, Note_on_c, 0, 61, 0
3, 47920, Note_on_c, 0, 64, 43
3, 47960, Note_on_c, 0, 64, 0
3, 47960, Note_on_c, 0, 69, 43
3, 48000, Note_on_c, 0, 69, 0
3, 48000, Note_on_c, 0, 62, 43
3, 48120, Note_on_c, 0, 62, 0
3, 48210, Note_on_c, 0, 62, 56
3, 48240, Note_on_c, 0, 62, 0
3, 48240, Note_on_c, 0, 66, 56
3, 48330, Note_on_c, 0, 66, 0
3, 48330, Note_on_c, 0, 62, 56
3, 48360, Note_on_c, 0, 62, 0
3, 48360, Note_on_c, 0, 69, 56
3, 48450, Note_on_c, 0, 69, 0
3, 48450, Note_on_c, 0, 66, 56
3, 48480, Note_on_c, 0, 66, 0
3, 48480, Note_on_c, 0, 74, 56
3, 48600, Note_on_c, 0, 74, 0
3, 48690, Note_on_c, 0, 50, 56
3, 48720, Note_on_c, 0, 50, 0
3, 48720, Note_on_c, 0, 54, 56
3, 48760, Note_on_c, 0, 54, 0
3, 48760, Note_on_c, 0, 50, 56
3, 48800, Note_on_c, 0, 50, 0
3, 48800, Note_on_c, 0, 54, 56
3, 48840, Note_on_c, 0, 54, 0
3, 48840, Note_on_c, 0, 57, 56
3, 48880, Note_on_c, 0, 57, 0
3, 48880, Note_on_c, 0, 54, 56
3, 48920, Note_on_c, 0, 54, 0
3, 48920, Note_on_c, 0, 57, 56
3, 48960, Note_on_c, 0, 57, 0
3, 48960, Note_on_c, 0, 62, 56
3, 49080, Note_on_c, 0, 62, 0
3, 49200, Note_on_c, 0, 38, 56
3, 49380, Note_on_c, 0, 38, 0
3, 49380, Note_on_c, 0, 38, 56
3, 49410, Note_on_c, 0, 38, 0
3, 49440, Note_on_c, 0, 38, 56
3, 49680, Note_on_c, 0, 38, 0
3, 49920, Note_on_c, 0, 59, 35
3, 49960, Note_on_c, 0, 59, 0
3, 49960, Note_on_c, 0, 62, 35
3, 50000, Note_on_c, 0, 62, 0
3, 50000, Note_on_c, 0, 67, 35
3, 50040, Note_on_c, 0, 67, 0
3, 50040, Note_on_c, 0, 59, 35
3, 50080, Note_on_c, 0, 59, 0
3, 50080, Note_on_c, 0, 62, 35
3, 50120, Note_on_c, 0, 62, 0
3, 50120, Note_on_c, 0, 67, 35
3, 50160, Note_on_c, 0, 67, 0
3, 50160, Note_on_c, 0, 59, 35
3, 50200, Note_on_c, 0, 59, 0
3, 50200, Note_on_c, 0, 62, 35
3, 50240, Note_on_c, 0, 62, 0
3, 50240, Note_on_c, 0, 67, 35
3, 50280, Note_on_c, 0, 67, 0
3, 50280, Note_on_c, 0, 60, 35
3, 50320, Note_on_c, 0, 60, 0
3, 50320, Note_on_c, 0, 62, 35
3, 50360, Note_on_c, 0, 62, 0
3, 50360, Note_on_c, 0, 66, 35
3, 50400, Note_on_c, 0, 66, 0
3, 50400, Note_on_c, 0, 59, 35
3, 50440, Note_on_c, 0, 59, 0
3, 50440, Note_on_c, 0, 62, 35
3, 50480, Note_on_c, 0, 62, 0
3, 50480, Note_on_c, 0, 67, 35
3, 50520, Note_on_c, 0, 67, 0
3, 50520, Note_on_c, 0, 59, 35
3, 50560, Note_on_c, 0, 59, 0
3, 50560, Note_on_c, 0, 62, 35
3, 50600, Note_on_c, 0, 62, 0
3, 50600, Note_on_c, 0, 67, 35
3, 50640, Note_on_c, 0, 67, 0
3, 50640, Note_on_c, 0, 59, 35
3, 50680, Note_on_c, 0, 59, 0
3, 50680, Note_on_c, 0, 62, 35
3, 50720, Note_on_c, 0, 62, 0
3, 50720, Note_on_c, 0, 67, 35
3, 50760, Note_on_c, 0, 67, 0
3, 50760, Note_on_c, 0, 60, 35
3, 50800, Note_on_c, 0, 60, 0
3, 50800, Note_on_c, 0, 62, 35
3, 50840, Note_on_c, 0, 62, 0
3, 50840, Note_on_c, 0, 66, 35
3, 50880, Note_on_c, 0, 66, 0
3, 50880, Note_on_c, 0, 59, 35
3, 50920, Note_on_c, 0, 59, 0
3, 50920, Note_on_c, 0, 62, 35
3, 50960, Note_on_c, 0, 62, 0
3, 50960, Note_on_c, 0, 67, 35
3, 51000, Note_on_c, 0, 67, 0
3, 51000, Note_on_c, 0, 59, 35
3, 51040, Note_on_c, 0, 59, 0
3, 51040, Note_on_c, 0, 62, 35
3, 51080, Note_on_c, 0, 62, 0
3, 51080, Note_on_c, 0, 67, 35
3, 51120, Note_on_c, 0, 67, 0
3, 51120, Note_on_c, 0, 59, 35
3, 51160, Note_on_c, 0, 59, 0
3, 51160, Note_on_c, 0, 62, 35
3, 51200, Note_on_c, 0, 62, 0
3, 51200, Note_on_c, 0, 67, 35
3, 51240, Note_on_c, 0, 67, 0
3, 51240, Note_on_c, 0, 60, 35
3, 51280, Note_on_c, 0, 60, 0
3, 51280, Note_on_c, 0, 62, 35
3, 51320, Note_on_c, 0, 62, 0
3, 51320, Note_on_c, 0, 66, 35
3, 51360, Note_on_c, 0, 66, 0
3, 51360, Note_on_c, 0, 59, 37
3, 51400, Note_on_c, 0, 59, 0
3, 51400, Note_on_c, 0, 62, 37
3, 51440, Note_on_c, 0, 62, 0
3, 51440, Note_on_c, 0, 67, 38
3, 51480, Note_on_c, 0, 67, 0
3, 51480, Note_on_c, 0, 59, 38
3, 51520, Note_on_c, 0, 59, 0
3, 51520, Note_on_c, 0, 62, 39
3, 51560, Note_on_c, 0, 62, 0
3, 51560, Note_on_c, 0, 67, 39
3, 51600, Note_on_c, 0, 67, 0
3, 51600, Note_on_c, 0, 54, 40
3, 51640, Note_on_c, 0, 54, 0
3, 51640, Note_on_c, 0, 57, 40
3, 51680, Note_on_c, 0, 57, 0
3, 51680, Note_on_c, 0, 62, 41
3, 51720, Note_on_c, 0, 62, 0
3, 51720, Note_on_c, 0, 54, 41
3, 51760, Note_on_c, 0, 54, 0
3, 51760, Note_on_c, 0, 57, 41
3, 51800, Note_on_c, 0, 57, 0
3, 51800, Note_on_c, 0, 62, 42
3, 51840, Note_on_c, 0, 62, 0
3, 51840, Note_on_c, 0, 55, 43
3, 51880, Note_on_c, 0, 55, 0
3, 51880, Note_on_c, 0, 59, 43
3, 51920, Note_on_c, 0, 59, 0
3, 51920, Note_on_c, 0, 62, 43
3, 51960, Note_on_c, 0, 62, 0
3, 51960, Note_on_c, 0, 55, 44
3, 52000, Note_on_c, 0, 55, 0
3, 52000, Note_on_c, 0, 59, 44
3, 52040, Note_on_c, 0, 59, 0
3, 52040, Note_on_c, 0, 62, 45
3, 52080, Note_on_c, 0, 62, 0
3, 52080, Note_on_c, 0, 52, 45
3, 52120, Note_on_c, 0, 52, 0
3, 52120, Note_on_c, 0, 55, 46
3, 52160, Note_on_c, 0, 55, 0
3, 52160, Note_on_c, 0, 60, 46
3, 52200, Note_on_c, 0, 60, 0
3, 52200, Note_on_c, 0, 52, 47
3, 52240, Note_on_c, 0, 52, 0
3, 52240, Note_on_c, 0, 55, 47
3, 52280, Note_on_c, 0, 55, 0
3, 52280, Note_on_c, 0, 60, 48
3, 52320, Note_on_c, 0, 60, 0
3, 52320, Note_on_c, 0, 47, 48
3, 52360, Note_on_c, 0, 47, 0
3, 52360, Note_on_c, 0, 50, 49
3, 52400, Note_on_c, 0, 50, 0
3, 52400, Note_on_c, 0, 55, 49
3, 52440, Note_on_c, 0, 55, 0
3, 52440, Note_on_c, 0, 47, 49
3, 52480, Note_on_c, 0, 47, 0
3, 52480, Note_on_c, 0, 50, 49
3, 52520, Note_on_c, 0, 50, 0
3, 52520, Note_on_c, 0, 55, 49
3, 52560, Note_on_c, 0, 55, 0
3, 52560, Note_on_c, 0, 47, 49
3, 52680, Note_on_c, 0, 47, 0
3, 52800, Note_on_c, 0, 36, 57
3, 52800, Note_on_c, 0, 48, 57
3, 52920, Note_on_c, 0, 48, 0
3, 52920, Note_on_c, 0, 36, 0
3, 53760, Note_on_c, 0, 71, 38
3, 53760, Note_on_c, 0, 62, 38
3, 54000, Note_on_c, 0, 71, 0
3, 54000, Note_on_c, 0, 72, 38
3, 54240, Note_on_c, 0, 72, 0
3, 54240, Note_on_c, 0, 62, 0
3, 54240, Note_on_c, 0, 67, 38
3, 54240, Note_on_c, 0, 71, 38
3, 54480, Note_on_c, 0, 71, 0
3, 54480, Note_on_c, 0, 67, 0
3, 54600, Note_on_c, 0, 79, 36
3, 54720, Note_on_c, 0, 79, 0
3, 54720, Note_on_c, 0, 78, 36
3, 54720, Note_on_c, 0, 81, 36
3, 54780, Note_on_c, 0, 81, 0
3, 54780, Note_on_c, 0, 78, 0
3, 55080, Note_on_c, 0, 76, 36
3, 55200, Note_on_c, 0, 76, 0
3, 55200, Note_on_c, 0, 78, 36
3, 55200, Note_on_c, 0, 74, 36
3, 55260, Note_on_c, 0, 74, 0
3, 55260, Note_on_c, 0, 78, 0
3, 55560, Note_on_c, 0, 72, 36
3, 55680, Note_on_c, 0, 72, 0
3, 55680, Note_on_c, 0, 74, 36
3, 55680, Note_on_c, 0, 71, 36
3, 55740, Note_on_c, 0, 71, 0
3, 55740, Note_on_c, 0, 74, 0
3, 56040, Note_on_c, 0, 71, 42
3, 56040, Note_on_c, 0, 67, 42
3, 56100, Note_on_c, 0, 67, 0
3, 56100, Note_on_c, 0, 71, 0
3, 56160, Note_on_c, 0, 72, 42
3, 56160, Note_on_c, 0, 60, 42
3, 56280, Note_on_c, 0, 60, 0
3, 56280, Note_on_c, 0, 72, 0
3, 56400, Note_on_c, 0, 62, 42
3, 56400, Note_on_c, 0, 69, 42
3, 56520, Note_on_c, 0, 69, 0
3, 56520, Note_on_c, 0, 62, 0
3, 56640, Note_on_c, 0, 67, 39
3, 56640, Note_on_c, 0, 71, 39
3, 56760, Note_on_c, 0, 71, 0
3, 56760, Note_on_c, 0, 67, 0
3, 57000, Note_on_c, 0, 79, 42
3, 57120, Note_on_c, 0, 79, 0
3, 57120, Note_on_c, 0, 78, 37
3, 57150, Note_on_c, 0, 78, 0
3, 57240, Note_on_c, 0, 78, 36
3, 57270, Note_on_c, 0, 78, 0
3, 57360, Note_on_c, 0, 78, 36
3, 57390, Note_on_c, 0, 78, 0
3, 57480, Note_on_c, 0, 79, 44
3, 57600, Note_on_c, 0, 79, 0
3, 57600, Note_on_c, 0, 78, 36
3, 57630, Note_on_c, 0, 78, 0
3, 57720, Note_on_c, 0, 78, 36
3, 57750, Note_on_c, 0, 78, 0
3, 57840, Note_on_c, 0, 78, 36
3, 57870, Note_on_c, 0, 78, 0
3, 57960, Note_on_c, 0, 76, 43
3, 58080, Note_on_c, 0, 76, 0
3, 58080, Note_on_c, 0, 74, 36
3, 58110, Note_on_c, 0, 74, 0
3, 58200, Note_on_c, 0, 74, 36
3, 58230, Note_on_c, 0, 74, 0
3, 58320, Note_on_c, 0, 74, 36
3, 58350, Note_on_c, 0, 74, 0
3, 58440, Note_on_c, 0, 76, 42
3, 58560, Note_on_c, 0, 76, 0
3, 58560, Note_on_c, 0, 74, 36
3, 58590, Note_on_c, 0, 74, 0
3, 58680, Note_on_c, 0, 74, 36
3, 58710, Note_on_c, 0, 74, 0
3, 58800, Note_on_c, 0, 74, 36
3, 58830, Note_on_c, 0, 74, 0
3, 58920, Note_on_c, 0, 72, 42
3, 59040, Note_on_c, 0, 72, 0
3, 59040, Note_on_c, 0, 71, 36
3, 59070, Note_on_c, 0, 71, 0
3, 59160, Note_on_c, 0, 71, 36
3, 59190, Note_on_c, 0, 71, 0
3, 59280, Note_on_c, 0, 71, 36
3, 59310, Note_on_c, 0, 71, 0
3, 59400, Note_on_c, 0, 72, 42
3, 59520, Note_on_c, 0, 72, 0
3, 59520, Note_on_c, 0, 71, 36
3, 59550, Note_on_c, 0, 71, 0
3, 59640, Note_on_c, 0, 71, 36
3, 59670, Note_on_c, 0, 71, 0
3, 59760, Note_on_c, 0, 71, 36
3, 59790, Note_on_c, 0, 71, 0
3, 59880, Note_on_c, 0, 72, 41
3, 60000, Note_on_c, 0, 72, 0
3, 60000, Note_on_c, 0, 71, 36
3, 60030, Note_on_c, 0, 71, 0
3, 60120, Note_on_c, 0, 66, 42
3, 60180, Note_on_c, 0, 66, 0
3, 60240, Note_on_c, 0, 67, 44
3, 60300, Note_on_c, 0, 67, 0
3, 60360, Note_on_c, 0, 69, 46
3, 60420, Note_on_c, 0, 69, 0
3, 60480, Note_on_c, 0, 71, 48
3, 60720, Note_on_c, 0, 71, 0
3, 60960, Note_on_c, 0, 48, 39
3, 61080, Note_on_c, 0, 60, 43
3, 61200, Note_on_c, 0, 60, 0
3, 61200, Note_on_c, 0, 48, 0
3, 61200, Note_on_c, 0, 59, 41
3, 61200, Note_on_c, 0, 50, 41
3, 61320, Note_on_c, 0, 59, 0
3, 61320, Note_on_c, 0, 57, 39
3, 61440, Note_on_c, 0, 57, 0
3, 61440, Note_on_c, 0, 50, 0
3, 61440, Note_on_c, 0, 55, 48
3, 61440, Note_on_c, 0, 50, 48
3, 61440, Note_on_c, 0, 47, 48
3, 61680, Note_on_c, 0, 47, 0
3, 61680, Note_on_c, 0, 50, 0
3, 61680, Note_on_c, 0, 55, 0
3, 61920, Note_on_c, 0, 48, 39
3, 62040, Note_on_c, 0, 60, 43
3, 62160, Note_on_c, 0, 60, 0
3, 62160, Note_on_c, 0, 48, 0
3, 62160, Note_on_c, 0, 59, 41
3, 62160, Note_on_c, 0, 50, 41
3, 62280, Note_on_c, 0, 59, 0
3, 62280, Note_on_c, 0, 57, 39
3, 62400, Note_on_c, 0, 57, 0
3, 62400, Note_on_c, 0, 50, 0
3, 62400, Note_on_c, 0, 55, 35
3, 62440, Note_on_c, 0, 55, 0
3, 62440, Note_on_c, 0, 59, 35
3, 62480, Note_on_c, 0, 59, 0
3, 62480, Note_on_c, 0, 62, 35
3, 62520, Note_on_c, 0, 62, 0
3, 62520, Note_on_c, 0, 55, 35
3, 62560, Note_on_c, 0, 55, 0
3, 62560, Note_on_c, 0, 59, 35
3, 62600, Note_on_c, 0, 59, 0
3, 62600, Note_on_c, 0, 62, 35
3, 62640, Note_on_c, 0, 62, 0
3, 62640, Note_on_c, 0, 55, 35
3, 62680, Note_on_c, 0, 55, 0
3, 62680, Note_on_c, 0, 59, 35
3, 62720, Note_on_c, 0, 59, 0
3, 62720, Note_on_c, 0, 62, 35
3, 62760, Note_on_c, 0, 62, 0
3, 62760, Note_on_c, 0, 50, 38
3, 62800, Note_on_c, 0, 50, 0
3, 62800, Note_on_c, 0, 54, 38
3, 62840, Note_on_c, 0, 54, 0
3, 62840, Note_on_c, 0, 62, 38
3, 62880, Note_on_c, 0, 62, 0
3, 62880, Note_on_c, 0, 55, 35
3, 62920, Note_on_c, 0, 55, 0
3, 62920, Note_on_c, 0, 59, 35
3, 62960, Note_on_c, 0, 59, 0
3, 62960, Note_on_c, 0, 62, 35
3, 63000, Note_on_c, 0, 62, 0
3, 63000, Note_on_c, 0, 55, 35
3, 63040, Note_on_c, 0, 55, 0
3, 63040, Note_on_c, 0, 59, 35
3, 63080, Note_on_c, 0, 59, 0
3, 63080, Note_on_c, 0, 62, 35
3, 63120, Note_on_c, 0, 62, 0
3, 63120, Note_on_c, 0, 55, 35
3, 63160, Note_on_c, 0, 55, 0
3, 63160, Note_on_c, 0, 59, 35
3, 63200, Note_on_c, 0, 59, 0
3, 63200, Note_on_c, 0, 62, 35
3, 63240, Note_on_c, 0, 62, 0
3, 63240, Note_on_c, 0, 50, 38
3, 63280, Note_on_c, 0, 50, 0
3, 63280, Note_on_c, 0, 54, 38
3, 63320, Note_on_c, 0, 54, 0
3, 63320, Note_on_c, 0, 62, 38
3, 63360, Note_on_c, 0, 62, 0
3, 63360, Note_on_c, 0, 55, 35
3, 63400, Note_on_c, 0, 55, 0
3, 63400, Note_on_c, 0, 59, 35
3, 63440, Note_on_c, 0, 59, 0
3, 63440, Note_on_c, 0, 62, 35
3, 63480, Note_on_c, 0, 62, 0
3, 63480, Note_on_c, 0, 55, 35
3, 63520, Note_on_c, 0, 55, 0
3, 63520, Note_on_c, 0, 59, 35
3, 63560, Note_on_c, 0, 59, 0
3, 63560, Note_on_c, 0, 62, 35
3, 63600, Note_on_c, 0, 62, 0
3, 63600, Note_on_c, 0, 55, 35
3, 63640, Note_on_c, 0, 55, 0
3, 63640, Note_on_c, 0, 59, 35
3, 63680, Note_on_c, 0, 59, 0
3, 63680, Note_on_c, 0, 62, 35
3, 63720, Note_on_c, 0, 62, 0
3, 63720, Note_on_c, 0, 50, 38
3, 63760, Note_on_c, 0, 50, 0
3, 63760, Note_on_c, 0, 54, 38
3, 63800, Note_on_c, 0, 54, 0
3, 63800, Note_on_c, 0, 62, 38
3, 63840, Note_on_c, 0, 62, 0
3, 63840, Note_on_c, 0, 55, 35
3, 63880, Note_on_c, 0, 55, 0
3, 63880, Note_on_c, 0, 59, 35
3, 63920, Note_on_c, 0, 59, 0
3, 63920, Note_on_c, 0, 62, 35
3, 63960, Note_on_c, 0, 62, 0
3, 63960, Note_on_c, 0, 55, 35
3, 64000, Note_on_c, 0, 55, 0
3, 64000, Note_on_c, 0, 59, 35
3, 64040, Note_on_c, 0, 59, 0
3, 64040, Note_on_c, 0, 62, 35
3, 64080, Note_on_c, 0, 62, 0
3, 64080, Note_on_c, 0, 55, 35
3, 64120, Note_on_c, 0, 55, 0
3, 64120, Note_on_c, 0, 59, 35
3, 64160, Note_on_c, 0, 59, 0
3, 64160, Note_on_c, 0, 62, 35
3, 64200, Note_on_c, 0, 62, 0
3, 64200, Note_on_c, 0, 50, 38
3, 64240, Note_on_c, 0, 50, 0
3, 64240, Note_on_c, 0, 54, 38
3, 64280, Note_on_c, 0, 54, 0
3, 64280, Note_on_c, 0, 62, 38
3, 64320, Note_on_c, 0, 62, 0
3, 64320, Note_on_c, 0, 55, 36
3, 64360, Note_on_c, 0, 55, 0
3, 64360, Note_on_c, 0, 59, 36
3, 64400, Note_on_c, 0, 59, 0
3, 64400, Note_on_c, 0, 62, 37
3, 64440, Note_on_c, 0, 62, 0
3, 64440, Note_on_c, 0, 55, 38
3, 64480, Note_on_c, 0, 55, 0
3, 64480, Note_on_c, 0, 59, 38
3, 64520, Note_on_c, 0, 59, 0
3, 64520, Note_on_c, 0, 62, 39
3, 64560, Note_on_c, 0, 62, 0
3, 64560, Note_on_c, 0, 55, 40
3, 64600, Note_on_c, 0, 55, 0
3, 64600, Note_on_c, 0, 59, 41
3, 64640, Note_on_c, 0, 59, 0
3, 64640, Note_on_c, 0, 62, 41
3, 64680, Note_on_c, 0, 62, 0
3, 64680, Note_on_c, 0, 55, 42
3, 64720, Note_on_c, 0, 55, 0
3, 64720, Note_on_c, 0, 59, 43
3, 64760, Note_on_c, 0, 59, 0
3, 64760, Note_on_c, 0, 62, 44
3, 64800, Note_on_c, 0, 62, 0
3, 64800, Note_on_c, 0, 55, 45
3, 65040, Note_on_c, 0, 55, 0
3, 65280, Note_on_c, 0, 59, 37
3, 65280, Note_on_c, 0, 67, 37
3, 65400, Note_on_c, 0, 67, 0
3, 65400, Note_on_c, 0, 59, 0
3, 65520, Note_on_c, 0, 67, 37
3, 65520, Note_on_c, 0, 60, 37
3, 65640, Note_on_c, 0, 60, 0
3, 65640, Note_on_c, 0, 67, 0
3, 65760, Note_on_c, 0, 65, 37
3, 65760, Note_on_c, 0, 67, 37
3, 65880, Note_on_c, 0, 67, 0
3, 65880, Note_on_c, 0, 65, 0
3, 66000, Note_on_c, 0, 64, 37
3, 66000, Note_on_c, 0, 67, 37
3, 66120, Note_on_c, 0, 67, 0
3, 66120, Note_on_c, 0, 64, 0
3, 66240, Note_on_c, 0, 40, 47
3, 66240, Note_on_c, 0, 52, 47
3, 66360, Note_on_c, 0, 52, 0
3, 66360, Note_on_c, 0, 40, 0
3, 66480, Note_on_c, 0, 40, 47
3, 66480, Note_on_c, 0, 52, 47
3, 66600, Note_on_c, 0, 52, 0
3, 66600, Note_on_c, 0, 40, 0
3, 66720, Note_on_c, 0, 52, 47
3, 66720, Note_on_c, 0, 40, 47
3, 67080, Note_on_c, 0, 40, 0
3, 67080, Note_on_c, 0, 52, 0
3, 67200, Note_on_c, 0, 53, 35
3, 67240, Note_on_c, 0, 53, 0
3, 67240, Note_on_c, 0, 57, 35
3, 67280, Note_on_c, 0, 57, 0
3, 67280, Note_on_c, 0, 60, 35
3, 67320, Note_on_c, 0, 60, 0
3, 67320, Note_on_c, 0, 53, 35
3, 67360, Note_on_c, 0, 53, 0
3, 67360, Note_on_c, 0, 57, 35
3, 67400, Note_on_c, 0, 57, 0
3, 67400, Note_on_c, 0, 60, 35
3, 67440, Note_on_c, 0, 60, 0
3, 67440, Note_on_c, 0, 53, 35
3, 67480, Note_on_c, 0, 53, 0
3, 67480, Note_on_c, 0, 57, 35
3, 67520, Note_on_c, 0, 57, 0
3, 67520, Note_on_c, 0, 60, 35
3, 67560, Note_on_c, 0, 60, 0
3, 67560, Note_on_c, 0, 53, 35
3, 67600, Note_on_c, 0, 53, 0
3, 67600, Note_on_c, 0, 57, 35
3, 67640, Note_on_c, 0, 57, 0
3, 67640, Note_on_c, 0, 60, 35
3, 67680, Note_on_c, 0, 60, 0
3, 67680, Note_on_c, 0, 53, 35
3, 67720, Note_on_c, 0, 53, 0
3, 67720, Note_on_c, 0, 57, 35
3, 67760, Note_on_c, 0, 57, 0
3, 67760, Note_on_c, 0, 60, 35
3, 67800, Note_on_c, 0, 60, 0
3, 67800, Note_on_c, 0, 53, 35
3, 67840, Note_on_c, 0, 53, 0
3, 67840, Note_on_c, 0, 57, 35
3, 67880, Note_on_c, 0, 57, 0
3, 67880, Note_on_c, 0, 60, 35
3, 67920, Note_on_c, 0, 60, 0
3, 67920, Note_on_c, 0, 53, 35
3, 67960, Note_on_c, 0, 53, 0
3, 67960, Note_on_c, 0, 57, 35
3, 68000, Note_on_c, 0, 57, 0
3, 68000, Note_on_c, 0, 60, 35
3, 68040, Note_on_c, 0, 60, 0
3, 68040, Note_on_c, 0, 53, 35
3, 68080, Note_on_c, 0, 53, 0
3, 68080, Note_on_c, 0, 57, 35
3, 68120, Note_on_c, 0, 57, 0
3, 68120, Note_on_c, 0, 60, 35
3, 68160, Note_on_c, 0, 60, 0
3, 68160, Note_on_c, 0, 55, 35
3, 68200, Note_on_c, 0, 55, 0
3, 68200, Note_on_c, 0, 58, 35
3, 68240, Note_on_c, 0, 58, 0
3, 68240, Note_on_c, 0, 60, 35
3, 68280, Note_on_c, 0, 60, 0
3, 68280, Note_on_c, 0, 55, 35
3, 68320, Note_on_c, 0, 55, 0
3, 68320, Note_on_c, 0, 58, 35
3, 68360, Note_on_c, 0, 58, 0
3, 68360, Note_on_c, 0, 60, 35
3, 68400, Note_on_c, 0, 60, 0
3, 68400, Note_on_c, 0, 53, 35
3, 68440, Note_on_c, 0, 53, 0
3, 68440, Note_on_c, 0, 57, 35
3, 68480, Note_on_c, 0, 57, 0
3, 68480, Note_on_c, 0, 60, 35
3, 68520, Note_on_c, 0, 60, 0
3, 68520, Note_on_c, 0, 53, 35
3, 68560, Note_on_c, 0, 53, 0
3, 68560, Note_on_c, 0, 57, 35
3, 68600, Note_on_c, 0, 57, 0
3, 68600, Note_on_c, 0, 60, 35
3, 68640, Note_on_c, 0, 60, 0
3, 68640, Note_on_c, 0, 52, 35
3, 68680, Note_on_c, 0, 52, 0
3, 68680, Note_on_c, 0, 55, 35
3, 68720, Note_on_c, 0, 55, 0
3, 68720, Note_on_c, 0, 60, 35
3, 68760, Note_on_c, 0, 60, 0
3, 68760, Note_on_c, 0, 52, 35
3, 68800, Note_on_c, 0, 52, 0
3, 68800, Note_on_c, 0, 55, 35
3, 68840, Note_on_c, 0, 55, 0
3, 68840, Note_on_c, 0, 60, 35
3, 68880, Note_on_c, 0, 60, 0
3, 68880, Note_on_c, 0, 52, 35
3, 68920, Note_on_c, 0, 52, 0
3, 68920, Note_on_c, 0, 55, 35
3, 68960, Note_on_c, 0, 55, 0
3, 68960, Note_on_c, 0, 60, 35
3, 69000, Note_on_c, 0, 60, 0
3, 69000, Note_on_c, 0, 52, 35
3, 69040, Note_on_c, 0, 52, 0
3, 69040, Note_on_c, 0, 55, 35
3, 69080, Note_on_c, 0, 55, 0
3, 69080, Note_on_c, 0, 60, 35
3, 69120, Note_on_c, 0, 60, 0
3, 69120, Note_on_c, 0, 52, 35
3, 69160, Note_on_c, 0, 52, 0
3, 69160, Note_on_c, 0, 55, 35
3, 69200, Note_on_c, 0, 55, 0
3, 69200, Note_on_c, 0, 60, 35
3, 69240, Note_on_c, 0, 60, 0
3, 69240, Note_on_c, 0, 52, 35
3, 69280, Note_on_c, 0, 52, 0
3, 69280, Note_on_c, 0, 55, 35
3, 69320, Note_on_c, 0, 55, 0
3, 69320, Note_on_c, 0, 60, 35
3, 69360, Note_on_c, 0, 60, 0
3, 69360, Note_on_c, 0, 53, 35
3, 69400, Note_on_c, 0, 53, 0
3, 69400, Note_on_c, 0, 57, 35
3, 69440, Note_on_c, 0, 57, 0
3, 69440, Note_on_c, 0, 60, 35
3, 69480, Note_on_c, 0, 60, 0
3, 69480, Note_on_c, 0, 53, 35
3, 69520, Note_on_c, 0, 53, 0
3, 69520, Note_on_c, 0, 57, 35
3, 69560, Note_on_c, 0, 57, 0
3, 69560, Note_on_c, 0, 60, 35
3, 69600, Note_on_c, 0, 60, 0
3, 69600, Note_on_c, 0, 58, 35
3, 69640, Note_on_c, 0, 58, 0
3, 69640, Note_on_c, 0, 60, 35
3, 69680, Note_on_c, 0, 60, 0
3, 69680, Note_on_c, 0, 64, 35
3, 69720, Note_on_c, 0, 64, 0
3, 69720, Note_on_c, 0, 58, 35
3, 69760, Note_on_c, 0, 58, 0
3, 69760, Note_on_c, 0, 60, 35
3, 69800, Note_on_c, 0, 60, 0
3, 69800, Note_on_c, 0, 64, 35
3, 69840, Note_on_c, 0, 64, 0
3, 69840, Note_on_c, 0, 57, 35
3, 69880, Note_on_c, 0, 57, 0
3, 69880, Note_on_c, 0, 60, 35
3, 69920, Note_on_c, 0, 60, 0
3, 69920, Note_on_c, 0, 65, 35
3, 69960, Note_on_c, 0, 65, 0
3, 69960, Note_on_c, 0, 57, 35
3, 70000, Note_on_c, 0, 57, 0
3, 70000, Note_on_c, 0, 60, 35
3, 70040, Note_on_c, 0, 60, 0
3, 70040, Note_on_c, 0, 65, 35
3, 70080, Note_on_c, 0, 65, 0
3, 70080, Note_on_c, 0, 58, 35
3, 70120, Note_on_c, 0, 58, 0
3, 70120, Note_on_c, 0, 62, 35
3, 70160, Note_on_c, 0, 62, 0
3, 70160, Note_on_c, 0, 67, 35
3, 70200, Note_on_c, 0, 67, 0
3, 70200, Note_on_c, 0, 58, 35
3, 70240, Note_on_c, 0, 58, 0
3, 70240, Note_on_c, 0, 62, 35
3, 70280, Note_on_c, 0, 62, 0
3, 70280, Note_on_c, 0, 67, 35
3, 70320, Note_on_c, 0, 67, 0
3, 70320, Note_on_c, 0, 60, 35
3, 70360, Note_on_c, 0, 60, 0
3, 70360, Note_on_c, 0, 64, 35
3, 70400, Note_on_c, 0, 64, 0
3, 70400, Note_on_c, 0, 67, 35
3, 70440, Note_on_c, 0, 67, 0
3, 70440, Note_on_c, 0, 60, 35
3, 70480, Note_on_c, 0, 60, 0
3, 70480, Note_on_c, 0, 64, 35
3, 70520, Note_on_c, 0, 64, 0
3, 70520, Note_on_c, 0, 67, 35
3, 70560, Note_on_c, 0, 67, 0
3, 70560, Note_on_c, 0, 65, 35
3, 70680, Note_on_c, 0, 65, 0
3, 70920, Note_on_c, 0, 60, 43
3, 70920, Note_on_c, 0, 67, 43
3, 71040, Note_on_c, 0, 67, 0
3, 71040, Note_on_c, 0, 60, 0
3, 71040, Note_on_c, 0, 65, 35
3, 71160, Note_on_c, 0, 65, 0
3, 71400, Note_on_c, 0, 67, 42
3, 71400, Note_on_c, 0, 60, 42
3, 71520, Note_on_c, 0, 60, 0
3, 71520, Note_on_c, 0, 67, 0
3, 71520, Note_on_c, 0, 65, 36
3, 71640, Note_on_c, 0, 65, 0
3, 71880, Note_on_c, 0, 62, 42
3, 71880, Note_on_c, 0, 69, 42
3, 72000, Note_on_c, 0, 69, 0
3, 72000, Note_on_c, 0, 62, 0
3, 72000, Note_on_c, 0, 67, 35
3, 72120, Note_on_c, 0, 67, 0
3, 72360, Note_on_c, 0, 64, 41
3, 72360, Note_on_c, 0, 71, 41
3, 72480, Note_on_c, 0, 71, 0
3, 72480, Note_on_c, 0, 64, 0
3, 72480, Note_on_c, 0, 69, 35
3, 72600, Note_on_c, 0, 69, 0
3, 72840, Note_on_c, 0, 68, 39
3, 72960, Note_on_c, 0, 68, 0
3, 72960, Note_on_c, 0, 69, 41
3, 73080, Note_on_c, 0, 69, 0
3, 73080, Note_on_c, 0, 71, 43
3, 73200, Note_on_c, 0, 71, 0
3, 73200, Note_on_c, 0, 72, 45
3, 73320, Note_on_c, 0, 72, 0
3, 73320, Note_on_c, 0, 69, 38
3, 73440, Note_on_c, 0, 69, 0
3, 73440, Note_on_c, 0, 64, 38
3, 73440, Note_on_c, 0, 68, 38
3, 73560, Note_on_c, 0, 68, 0
3, 73560, Note_on_c, 0, 69, 38
3, 73680, Note_on_c, 0, 69, 0
3, 73680, Note_on_c, 0, 68, 38
3, 73800, Note_on_c, 0, 68, 0
3, 73800, Note_on_c, 0, 64, 38
3, 73920, Note_on_c, 0, 64, 0
3, 73920, Note_on_c, 0, 64, 0
3, 73920, Note_on_c, 0, 65, 34
3, 74040, Note_on_c, 0, 69, 36
3, 74160, Note_on_c, 0, 69, 0
3, 74160, Note_on_c, 0, 71, 38
3, 74280, Note_on_c, 0, 71, 0
3, 74280, Note_on_c, 0, 74, 40
3, 74400, Note_on_c, 0, 74, 0
3, 74400, Note_on_c, 0, 65, 0
3, 74400, Note_on_c, 0, 64, 41
3, 74520, Note_on_c, 0, 68, 36
3, 74640, Note_on_c, 0, 68, 0
3, 74640, Note_on_c, 0, 69, 37
3, 74760, Note_on_c, 0, 69, 0
3, 74760, Note_on_c, 0, 73, 39
3, 74880, Note_on_c, 0, 73, 0
3, 74880, Note_on_c, 0, 64, 0
3, 74880, Note_on_c, 0, 62, 35
3, 75000, Note_on_c, 0, 66, 36
3, 75120, Note_on_c, 0, 66, 0
3, 75120, Note_on_c, 0, 67, 38
3, 75240, Note_on_c, 0, 67, 0
3, 75240, Note_on_c, 0, 71, 40
3, 75360, Note_on_c, 0, 71, 0
3, 75360, Note_on_c, 0, 62, 0
3, 75360, Note_on_c, 0, 60, 37
3, 75480, Note_on_c, 0, 64, 38
3, 75600, Note_on_c, 0, 64, 0
3, 75600, Note_on_c, 0, 65, 40
3, 75720, Note_on_c, 0, 65, 0
3, 75720, Note_on_c, 0, 69, 41
3, 75840, Note_on_c, 0, 69, 0
3, 75840, Note_on_c, 0, 60, 0
3, 75840, Note_on_c, 0, 64, 42
3, 75960, Note_on_c, 0, 60, 39
3, 76080, Note_on_c, 0, 60, 0
3, 76080, Note_on_c, 0, 65, 38
3, 76200, Note_on_c, 0, 65, 0
3, 76200, Note_on_c, 0, 69, 38
3, 76320, Note_on_c, 0, 69, 0
3, 76320, Note_on_c, 0, 64, 0
3, 76320, Note_on_c, 0, 53, 45
3, 76320, Note_on_c, 0, 41, 45
3, 76400, Note_on_c, 0, 41, 0
3, 76400, Note_on_c, 0, 53, 0
3, 76440, Note_on_c, 0, 45, 45
3, 76440, Note_on_c, 0, 57, 45
3, 76520, Note_on_c, 0, 57, 0
3, 76520, Note_on_c, 0, 45, 0
3, 76560, Note_on_c, 0, 40, 45
3, 76560, Note_on_c, 0, 52, 45
3, 76640, Note_on_c, 0, 52, 0
3, 76640, Note_on_c, 0, 40, 0
3, 76680, Note_on_c, 0, 45, 45
3, 76680, Note_on_c, 0, 57, 45
3, 76760, Note_on_c, 0, 57, 0
3, 76760, Note_on_c, 0, 45, 0
3, 76800, Note_on_c, 0, 51, 46
3, 76800, Note_on_c, 0, 39, 46
3, 76920, Note_on_c, 0, 39, 0
3, 76920, Note_on_c, 0, 51, 0
3, 76920, Note_on_c, 0, 54, 47
3, 76920, Note_on_c, 0, 42, 47
3, 77040, Note_on_c, 0, 42, 0
3, 77040, Note_on_c, 0, 54, 0
3, 77040, Note_on_c, 0, 57, 48
3, 77040, Note_on_c, 0, 45, 48
3, 77160, Note_on_c, 0, 45, 0
3, 77160, Note_on_c, 0, 57, 0
3, 77160, Note_on_c, 0, 60, 49
3, 77160, Note_on_c, 0, 48, 49
3, 77280, Note_on_c, 0, 48, 0
3, 77280, Note_on_c, 0, 60, 0
3, 77280, Note_on_c, 0, 63, 50
3, 77280, Note_on_c, 0, 51, 50
3, 77400, Note_on_c, 0, 51, 0
3, 77400, Note_on_c, 0, 63, 0
3, 77400, Note_on_c, 0, 66, 51
3, 77400, Note_on_c, 0, 54, 51
3, 77520, Note_on_c, 0, 54, 0
3, 77520, Note_on_c, 0, 66, 0
3, 77520, Note_on_c, 0, 57, 52
3, 77520, Note_on_c, 0, 69, 52
3, 77640, Note_on_c, 0, 69, 0
3, 77640, Note_on_c, 0, 57, 0
3, 77640, Note_on_c, 0, 51, 53
3, 77640, Note_on_c, 0, 39, 53
3, 77760, Note_on_c, 0, 39, 0
3, 77760, Note_on_c, 0, 51, 0
3, 77760, Note_on_c, 0, 40, 43
3, 77760, Note_on_c, 0, 52, 43
3, 79200, Note_on_c, 0, 52, 0
3, 79200, Note_on_c, 0, 40, 0
3, 79200, Note_on_c, 0, 45, 39
3, 79200, Note_on_c, 0, 57, 39
3, 79440, Note_on_c, 0, 57, 0
3, 79440, Note_on_c, 0, 45, 0
3, 79440, Note_on_c, 0, 36, 39
3, 79440, Note_on_c, 0, 48, 39
3, 79680, Note_on_c, 0, 48, 0
3, 79680, Note_on_c, 0, 36, 0
3, 79680, Note_on_c, 0, 38, 39
3, 79680, Note_on_c, 0, 50, 39
3, 79920, Note_on_c, 0, 50, 0
3, 79920, Note_on_c, 0, 38, 0
3, 79920, Note_on_c, 0, 40, 39
3, 79920, Note_on_c, 0, 52, 39
3, 80160, Note_on_c, 0, 52, 0
3, 80160, Note_on_c, 0, 40, 0
3, 80160, Note_on_c, 0, 45, 36
3, 80280, Note_on_c, 0, 49, 37
3, 80400, Note_on_c, 0, 52, 37
3, 80520, Note_on_c, 0, 55, 38
3, 80640, Note_on_c, 0, 55, 0
3, 81120, Note_on_c, 0, 45, 0
3, 81120, Note_on_c, 0, 49, 0
3, 81120, Note_on_c, 0, 52, 0
3, 81120, Note_on_c, 0, 53, 32
3, 81120, Note_on_c, 0, 50, 32
3, 81480, Note_on_c, 0, 50, 0
3, 81480, Note_on_c, 0, 53, 0
3, 81480, Note_on_c, 0, 48, 32
3, 81480, Note_on_c, 0, 52, 32
3, 81600, Note_on_c, 0, 52, 0
3, 81600, Note_on_c, 0, 48, 0
3, 81600, Note_on_c, 0, 47, 32
3, 81600, Note_on_c, 0, 50, 32
3, 81960, Note_on_c, 0, 50, 0
3, 81960, Note_on_c, 0, 47, 0
3, 81960, Note_on_c, 0, 48, 32
3, 81960, Note_on_c, 0, 45, 32
3, 82080, Note_on_c, 0, 45, 0
3, 82080, Note_on_c, 0, 48, 0
3, 82080, Note_on_c, 0, 43, 32
3, 82080, Note_on_c, 0, 47, 32
3, 82440, Note_on_c, 0, 47, 0
3, 82440, Note_on_c, 0, 43, 0
3, 82560, Note_on_c, 0, 52, 37
3, 82560, Note_on_c, 0, 48, 37
3, 82680, Note_on_c, 0, 48, 0
3, 82680, Note_on_c, 0, 52, 0
3, 83040, Note_on_c, 0, 52, 37
3, 83040, Note_on_c, 0, 48, 37
3, 83160, Note_on_c, 0, 48, 0
3, 83160, Note_on_c, 0, 52, 0
3, 83520, Note_on_c, 0, 50, 35
3, 83520, Note_on_c, 0, 53, 35
3, 83520, Note_on_c, 0, 43, 35
3, 83580, Note_on_c, 0, 43, 0
3, 83580, Note_on_c, 0, 53, 0
3, 83580, Note_on_c, 0, 50, 0
3, 83640, Note_on_c, 0, 50, 34
3, 83640, Note_on_c, 0, 53, 34
3, 83640, Note_on_c, 0, 43, 34
3, 83700, Note_on_c, 0, 43, 0
3, 83700, Note_on_c, 0, 53, 0
3, 83700, Note_on_c, 0, 50, 0
3, 83760, Note_on_c, 0, 48, 33
3, 83760, Note_on_c, 0, 52, 33
3, 83760, Note_on_c, 0, 43, 33
3, 83820, Note_on_c, 0, 43, 0
3, 83820, Note_on_c, 0, 52, 0
3, 83820, Note_on_c, 0, 48, 0
3, 83880, Note_on_c, 0, 48, 31
3, 83880, Note_on_c, 0, 52, 31
3, 83880, Note_on_c, 0, 43, 31
3, 83940, Note_on_c, 0, 43, 0
3, 83940, Note_on_c, 0, 52, 0
3, 83940, Note_on_c, 0, 48, 0
3, 84000, Note_on_c, 0, 43, 30
3, 84000, Note_on_c, 0, 50, 30
3, 84000, Note_on_c, 0, 47, 30
3, 84120, Note_on_c, 0, 47, 0
3, 84120, Note_on_c, 0, 50, 0
3, 84120, Note_on_c, 0, 43, 0
3, 84480, Note_on_c, 0, 55, 30
3, 84480, Note_on_c, 0, 47, 30
3, 84600, Note_on_c, 0, 47, 0
3, 84600, Note_on_c, 0, 55, 0
3, 84720, Note_on_c, 0, 48, 30
3, 84720, Note_on_c, 0, 55, 30
3, 84840, Note_on_c, 0, 55, 0
3, 84840, Note_on_c, 0, 48, 0
3, 84960, Note_on_c, 0, 53, 30
3, 84960, Note_on_c, 0, 55, 30
3, 85080, Note_on_c, 0, 55, 0
3, 85080, Note_on_c, 0, 53, 0
3, 85200, Note_on_c, 0, 52, 30
3, 85200, Note_on_c, 0, 55, 30
3, 85320, Note_on_c, 0, 55, 0
3, 85320, Note_on_c, 0, 52, 0
3, 85440, Note_on_c, 0, 53, 31
3, 85440, Note_on_c, 0, 41, 31
3, 85500, Note_on_c, 0, 41, 0
3, 85500, Note_on_c, 0, 53, 0
3, 85560, Note_on_c, 0, 41, 31
3, 85560, Note_on_c, 0, 53, 31
3, 85620, Note_on_c, 0, 53, 0
3, 85620, Note_on_c, 0, 41, 0
3, 85680, Note_on_c, 0, 43, 31
3, 85680, Note_on_c, 0, 50, 31
3, 85740, Note_on_c, 0, 50, 0
3, 85740, Note_on_c, 0, 43, 0
3, 85800, Note_on_c, 0, 43, 31
3, 85800, Note_on_c, 0, 50, 31
3, 85860, Note_on_c, 0, 50, 0
3, 85860, Note_on_c, 0, 43, 0
3, 85920, Note_on_c, 0, 60, 48
3, 85960, Note_on_c, 0, 60, 0
3, 85960, Note_on_c, 0, 63, 45
3, 86000, Note_on_c, 0, 63, 0
3, 86000, Note_on_c, 0, 67, 42
3, 86040, Note_on_c, 0, 67, 0
3, 86040, Note_on_c, 0, 60, 39
3, 86080, Note_on_c, 0, 60, 0
3, 86080, Note_on_c, 0, 63, 39
3, 86120, Note_on_c, 0, 63, 0
3, 86120, Note_on_c, 0, 67, 39
3, 86160, Note_on_c, 0, 67, 0
3, 86160, Note_on_c, 0, 60, 39
3, 86200, Note_on_c, 0, 60, 0
3, 86200, Note_on_c, 0, 63, 39
3, 86240, Note_on_c, 0, 63, 0
3, 86240, Note_on_c, 0, 67, 39
3, 86280, Note_on_c, 0, 67, 0
3, 86280, Note_on_c, 0, 60, 39
3, 86320, Note_on_c, 0, 60, 0
3, 86320, Note_on_c, 0, 63, 39
3, 86360, Note_on_c, 0, 63, 0
3, 86360, Note_on_c, 0, 67, 39
3, 86400, Note_on_c, 0, 67, 0
3, 86400, Note_on_c, 0, 60, 39
3, 86440, Note_on_c, 0, 60, 0
3, 86440, Note_on_c, 0, 63, 39
3, 86480, Note_on_c, 0, 63, 0
3, 86480, Note_on_c, 0, 67, 39
3, 86520, Note_on_c, 0, 67, 0
3, 86520, Note_on_c, 0, 60, 39
3, 86560, Note_on_c, 0, 60, 0
3, 86560, Note_on_c, 0, 63, 39
3, 86600, Note_on_c, 0, 63, 0
3, 86600, Note_on_c, 0, 67, 39
3, 86640, Note_on_c, 0, 67, 0
3, 86640, Note_on_c, 0, 60, 39
3, 86680, Note_on_c, 0, 60, 0
3, 86680, Note_on_c, 0, 63, 39
3, 86720, Note_on_c, 0, 63, 0
3, 86720, Note_on_c, 0, 67, 39
3, 86760, Note_on_c, 0, 67, 0
3, 86760, Note_on_c, 0, 60, 39
3, 86800, Note_on_c, 0, 60, 0
3, 86800, Note_on_c, 0, 63, 39
3, 86840, Note_on_c, 0, 63, 0
3, 86840, Note_on_c, 0, 67, 39
3, 86880, Note_on_c, 0, 67, 0
3, 86880, Note_on_c, 0, 60, 39
3, 86920, Note_on_c, 0, 60, 0
3, 86920, Note_on_c, 0, 63, 39
3, 86960, Note_on_c, 0, 63, 0
3, 86960, Note_on_c, 0, 67, 39
3, 87000, Note_on_c, 0, 67, 0
3, 87000, Note_on_c, 0, 60, 39
3, 87040, Note_on_c, 0, 60, 0
3, 87040, Note_on_c, 0, 63, 39
3, 87080, Note_on_c, 0, 63, 0
3, 87080, Note_on_c, 0, 67, 39
3, 87120, Note_on_c, 0, 67, 0
3, 87120, Note_on_c, 0, 60, 39
3, 87160, Note_on_c, 0, 60, 0
3, 87160, Note_on_c, 0, 63, 39
3, 87200, Note_on_c, 0, 63, 0
3, 87200, Note_on_c, 0, 67, 39
3, 87240, Note_on_c, 0, 67, 0
3, 87240, Note_on_c, 0, 60, 39
3, 87280, Note_on_c, 0, 60, 0
3, 87280, Note_on_c, 0, 63, 39
3, 87320, Note_on_c, 0, 63, 0
3, 87320, Note_on_c, 0, 67, 39
3, 87360, Note_on_c, 0, 67, 0
3, 87360, Note_on_c, 0, 58, 46
3, 87400, Note_on_c, 0, 64, 42
3, 87440, Note_on_c, 0, 64, 0
3, 87440, Note_on_c, 0, 67, 38
3, 87480, Note_on_c, 0, 67, 0
3, 87480, Note_on_c, 0, 58, 0
3, 87480, Note_on_c, 0, 58, 39
3, 87520, Note_on_c, 0, 58, 0
3, 87520, Note_on_c, 0, 64, 39
3, 87560, Note_on_c, 0, 64, 0
3, 87560, Note_on_c, 0, 67, 39
3, 87600, Note_on_c, 0, 67, 0
3, 87600, Note_on_c, 0, 58, 39
3, 87640, Note_on_c, 0, 58, 0
3, 87640, Note_on_c, 0, 64, 39
3, 87680, Note_on_c, 0, 64, 0
3, 87680, Note_on_c, 0, 67, 39
3, 87720, Note_on_c, 0, 67, 0
3, 87720, Note_on_c, 0, 58, 39
3, 87760, Note_on_c, 0, 58, 0
3, 87760, Note_on_c, 0, 64, 39
3, 87800, Note_on_c, 0, 64, 0
3, 87800, Note_on_c, 0, 67, 39
3, 87840, Note_on_c, 0, 67, 0
3, 87840, Note_on_c, 0, 58, 39
3, 87880, Note_on_c, 0, 58, 0
3, 87880, Note_on_c, 0, 64, 39
3, 87920, Note_on_c, 0, 64, 0
3, 87960, Note_on_c, 0, 67, 39
3, 87960, Note_on_c, 0, 58, 39
3, 88000, Note_on_c, 0, 58, 0
3, 88000, Note_on_c, 0, 67, 0
3, 88000, Note_on_c, 0, 64, 39
3, 88040, Note_on_c, 0, 64, 0
3, 88040, Note_on_c, 0, 67, 39
3, 88080, Note_on_c, 0, 67, 0
3, 88080, Note_on_c, 0, 58, 39
3, 88120, Note_on_c, 0, 58, 0
3, 88120, Note_on_c, 0, 64, 39
3, 88160, Note_on_c, 0, 64, 0
3, 88160, Note_on_c, 0, 67, 39
3, 88200, Note_on_c, 0, 67, 0
3, 88200, Note_on_c, 0, 58, 39
3, 88240, Note_on_c, 0, 58, 0
3, 88240, Note_on_c, 0, 64, 39
3, 88280, Note_on_c, 0, 64, 0
3, 88280, Note_on_c, 0, 67, 39
3, 88320, Note_on_c, 0, 67, 0
3, 88320, Note_on_c, 0, 57, 44
3, 88360, Note_on_c, 0, 64, 41
3, 88400, Note_on_c, 0, 64, 0
3, 88400, Note_on_c, 0, 67, 38
3, 88440, Note_on_c, 0, 67, 0
3, 88440, Note_on_c, 0, 57, 0
3, 88440, Note_on_c, 0, 57, 39
3, 88480, Note_on_c, 0, 57, 0
3, 88480, Note_on_c, 0, 64, 39
3, 88520, Note_on_c, 0, 64, 0
3, 88520, Note_on_c, 0, 67, 39
3, 88560, Note_on_c, 0, 67, 0
3, 88560, Note_on_c, 0, 57, 39
3, 88600, Note_on_c, 0, 57, 0
3, 88600, Note_on_c, 0, 64, 39
3, 88640, Note_on_c, 0, 64, 0
3, 88640, Note_on_c, 0, 67, 39
3, 88680, Note_on_c, 0, 67, 0
3, 88680, Note_on_c, 0, 57, 39
3, 88720, Note_on_c, 0, 57, 0
3, 88720, Note_on_c, 0, 64, 39
3, 88720, Note_on_c, 0, 67, 39
3, 88760, Note_on_c, 0, 67, 0
3, 88760, Note_on_c, 0, 64, 0
3, 88800, Note_on_c, 0, 57, 39
3, 88840, Note_on_c, 0, 57, 0
3, 88840, Note_on_c, 0, 62, 39
3, 88880, Note_on_c, 0, 62, 0
3, 88880, Note_on_c, 0, 65, 39
3, 88920, Note_on_c, 0, 65, 0
3, 88920, Note_on_c, 0, 57, 39
3, 88960, Note_on_c, 0, 57, 0
3, 88960, Note_on_c, 0, 62, 39
3, 89000, Note_on_c, 0, 62, 0
3, 89000, Note_on_c, 0, 65, 39
3, 89040, Note_on_c, 0, 65, 0
3, 89040, Note_on_c, 0, 57, 39
3, 89080, Note_on_c, 0, 57, 0
3, 89080, Note_on_c, 0, 62, 39
3, 89120, Note_on_c, 0, 62, 0
3, 89120, Note_on_c, 0, 65, 39
3, 89160, Note_on_c, 0, 65, 0
3, 89160, Note_on_c, 0, 57, 39
3, 89200, Note_on_c, 0, 57, 0
3, 89200, Note_on_c, 0, 62, 39
3, 89240, Note_on_c, 0, 62, 0
3, 89240, Note_on_c, 0, 65, 39
3, 89280, Note_on_c, 0, 65, 0
3, 89280, Note_on_c, 0, 55, 39
3, 89320, Note_on_c, 0, 55, 0
3, 89320, Note_on_c, 0, 62, 39
3, 89360, Note_on_c, 0, 62, 0
3, 89360, Note_on_c, 0, 65, 39
3, 89400, Note_on_c, 0, 65, 0
3, 89400, Note_on_c, 0, 55, 39
3, 89440, Note_on_c, 0, 55, 0
3, 89440, Note_on_c, 0, 62, 39
3, 89480, Note_on_c, 0, 62, 0
3, 89480, Note_on_c, 0, 65, 39
3, 89520, Note_on_c, 0, 65, 0
3, 89520, Note_on_c, 0, 55, 39
3, 89560, Note_on_c, 0, 55, 0
3, 89560, Note_on_c, 0, 60, 39
3, 89600, Note_on_c, 0, 60, 0
3, 89600, Note_on_c, 0, 64, 39
3, 89640, Note_on_c, 0, 64, 0
3, 89640, Note_on_c, 0, 55, 39
3, 89680, Note_on_c, 0, 55, 0
3, 89680, Note_on_c, 0, 60, 39
3, 89720, Note_on_c, 0, 60, 0
3, 89720, Note_on_c, 0, 64, 39
3, 89760, Note_on_c, 0, 64, 0
3, 89760, Note_on_c, 0, 55, 39
3, 89800, Note_on_c, 0, 55, 0
3, 89800, Note_on_c, 0, 59, 39
3, 89840, Note_on_c, 0, 59, 0
3, 89840, Note_on_c, 0, 62, 39
3, 89880, Note_on_c, 0, 62, 0
3, 89880, Note_on_c, 0, 55, 39
3, 89920, Note_on_c, 0, 55, 0
3, 89920, Note_on_c, 0, 59, 39
3, 89960, Note_on_c, 0, 59, 0
3, 89960, Note_on_c, 0, 62, 39
3, 90000, Note_on_c, 0, 62, 0
3, 90000, Note_on_c, 0, 55, 39
3, 90040, Note_on_c, 0, 55, 0
3, 90040, Note_on_c, 0, 60, 39
3, 90080, Note_on_c, 0, 60, 0
3, 90080, Note_on_c, 0, 64, 39
3, 90120, Note_on_c, 0, 64, 0
3, 90120, Note_on_c, 0, 55, 39
3, 90160, Note_on_c, 0, 55, 0
3, 90160, Note_on_c, 0, 60, 39
3, 90200, Note_on_c, 0, 60, 0
3, 90200, Note_on_c, 0, 64, 39
3, 90240, Note_on_c, 0, 64, 0
3, 90240, Note_on_c, 0, 55, 39
3, 90280, Note_on_c, 0, 55, 0
3, 90280, Note_on_c, 0, 62, 39
3, 90320, Note_on_c, 0, 62, 0
3, 90320, Note_on_c, 0, 65, 39
3, 90360, Note_on_c, 0, 65, 0
3, 90360, Note_on_c, 0, 55, 39
3, 90400, Note_on_c, 0, 55, 0
3, 90400, Note_on_c, 0, 62, 39
3, 90440, Note_on_c, 0, 62, 0
3, 90440, Note_on_c, 0, 65, 39
3, 90480, Note_on_c, 0, 65, 0
3, 90480, Note_on_c, 0, 55, 39
3, 90520, Note_on_c, 0, 55, 0
3, 90520, Note_on_c, 0, 60, 39
3, 90560, Note_on_c, 0, 60, 0
3, 90560, Note_on_c, 0, 64, 39
3, 90600, Note_on_c, 0, 64, 0
3, 90600, Note_on_c, 0, 55, 39
3, 90640, Note_on_c, 0, 55, 0
3, 90640, Note_on_c, 0, 60, 39
3, 90680, Note_on_c, 0, 60, 0
3, 90680, Note_on_c, 0, 64, 39
3, 90720, Note_on_c, 0, 64, 0
3, 90720, Note_on_c, 0, 55, 39
3, 90760, Note_on_c, 0, 55, 0
3, 90760, Note_on_c, 0, 59, 39
3, 90800, Note_on_c, 0, 59, 0
3, 90800, Note_on_c, 0, 62, 39
3, 90840, Note_on_c, 0, 62, 0
3, 90840, Note_on_c, 0, 55, 39
3, 90880, Note_on_c, 0, 55, 0
3, 90880, Note_on_c, 0, 59, 39
3, 90920, Note_on_c, 0, 59, 0
3, 90920, Note_on_c, 0, 62, 39
3, 90960, Note_on_c, 0, 62, 0
3, 90960, Note_on_c, 0, 55, 39
3, 91000, Note_on_c, 0, 55, 0
3, 91000, Note_on_c, 0, 60, 39
3, 91040, Note_on_c, 0, 60, 0
3, 91040, Note_on_c, 0, 64, 39
3, 91080, Note_on_c, 0, 64, 0
3, 91080, Note_on_c, 0, 55, 39
3, 91120, Note_on_c, 0, 55, 0
3, 91120, Note_on_c, 0, 60, 39
3, 91160, Note_on_c, 0, 60, 0
3, 91160, Note_on_c, 0, 64, 39
3, 91200, Note_on_c, 0, 64, 0
3, 91200, Note_on_c, 0, 55, 39
3, 91320, Note_on_c, 0, 55, 0
3, 91410, Note_on_c, 0, 55, 49
3, 91440, Note_on_c, 0, 55, 0
3, 91440, Note_on_c, 0, 59, 49
3, 91530, Note_on_c, 0, 59, 0
3, 91530, Note_on_c, 0, 55, 49
3, 91560, Note_on_c, 0, 55, 0
3, 91560, Note_on_c, 0, 62, 49
3, 91650, Note_on_c, 0, 62, 0
3, 91650, Note_on_c, 0, 59, 49
3, 91680, Note_on_c, 0, 59, 0
3, 91680, Note_on_c, 0, 67, 49
3, 91800, Note_on_c, 0, 67, 0
3, 91890, Note_on_c, 0, 43, 49
3, 91920, Note_on_c, 0, 47, 49
3, 91930, Note_on_c, 0, 43, 0
3, 91960, Note_on_c, 0, 47, 0
3, 91960, Note_on_c, 0, 43, 49
3, 92000, Note_on_c, 0, 43, 0
3, 92000, Note_on_c, 0, 47, 49
3, 92040, Note_on_c, 0, 47, 0
3, 92040, Note_on_c, 0, 50, 49
3, 92080, Note_on_c, 0, 50, 0
3, 92080, Note_on_c, 0, 47, 49
3, 92120, Note_on_c, 0, 47, 0
3, 92120, Note_on_c, 0, 50, 49
3, 92160, Note_on_c, 0, 50, 0
3, 92160, Note_on_c, 0, 55, 49
3, 92280, Note_on_c, 0, 55, 0
3, 92400, Note_on_c, 0, 31, 51
3, 92580, Note_on_c, 0, 31, 0
3, 92580, Note_on_c, 0, 31, 51
3, 92610, Note_on_c, 0, 31, 0
3, 92640, Note_on_c, 0, 31, 51
3, 92880, Note_on_c, 0, 31, 0
3, 93120, Note_on_c, 0, 52, 35
3, 93160, Note_on_c, 0, 52, 0
3, 93160, Note_on_c, 0, 55, 35
3, 93200, Note_on_c, 0, 55, 0
3, 93200, Note_on_c, 0, 60, 35
3, 93240, Note_on_c, 0, 60, 0
3, 93240, Note_on_c, 0, 52, 35
3, 93280, Note_on_c, 0, 52, 0
3, 93280, Note_on_c, 0, 55, 35
3, 93320, Note_on_c, 0, 55, 0
3, 93320, Note_on_c, 0, 60, 35
3, 93360, Note_on_c, 0, 60, 0
3, 93360, Note_on_c, 0, 52, 35
3, 93400, Note_on_c, 0, 52, 0
3, 93400, Note_on_c, 0, 55, 35
3, 93440, Note_on_c, 0, 55, 0
3, 93440, Note_on_c, 0, 60, 35
3, 93480, Note_on_c, 0, 60, 0
3, 93480, Note_on_c, 0, 53, 35
3, 93520, Note_on_c, 0, 53, 0
3, 93520, Note_on_c, 0, 55, 35
3, 93560, Note_on_c, 0, 55, 0
3, 93560, Note_on_c, 0, 59, 35
3, 93600, Note_on_c, 0, 59, 0
3, 93600, Note_on_c, 0, 52, 35
3, 93640, Note_on_c, 0, 52, 0
3, 93640, Note_on_c, 0, 55, 35
3, 93680, Note_on_c, 0, 55, 0
3, 93680, Note_on_c, 0, 60, 35
3, 93720, Note_on_c, 0, 60, 0
3, 93720, Note_on_c, 0, 52, 35
3, 93760, Note_on_c, 0, 52, 0
3, 93760, Note_on_c, 0, 55, 35
3, 93800, Note_on_c, 0, 55, 0
3, 93800, Note_on_c, 0, 60, 35
3, 93840, Note_on_c, 0, 60, 0
3, 93840, Note_on_c, 0, 52, 35
3, 93880, Note_on_c, 0, 52, 0
3, 93880, Note_on_c, 0, 55, 35
3, 93920, Note_on_c, 0, 55, 0
3, 93920, Note_on_c, 0, 60, 35
3, 93960, Note_on_c, 0, 60, 0
3, 93960, Note_on_c, 0, 53, 35
3, 94000, Note_on_c, 0, 53, 0
3, 94000, Note_on_c, 0, 55, 35
3, 94040, Note_on_c, 0, 55, 0
3, 94040, Note_on_c, 0, 59, 35
3, 94080, Note_on_c, 0, 59, 0
3, 94080, Note_on_c, 0, 52, 35
3, 94120, Note_on_c, 0, 52, 0
3, 94120, Note_on_c, 0, 55, 35
3, 94160, Note_on_c, 0, 55, 0
3, 94160, Note_on_c, 0, 60, 35
3, 94200, Note_on_c, 0, 60, 0
3, 94200, Note_on_c, 0, 52, 35
3, 94240, Note_on_c, 0, 52, 0
3, 94240, Note_on_c, 0, 55, 35
3, 94280, Note_on_c, 0, 55, 0
3, 94280, Note_on_c, 0, 60, 35
3, 94320, Note_on_c, 0, 60, 0
3, 94320, Note_on_c, 0, 52, 35
3, 94360, Note_on_c, 0, 52, 0
3, 94360, Note_on_c, 0, 55, 35
3, 94400, Note_on_c, 0, 55, 0
3, 94400, Note_on_c, 0, 60, 35
3, 94440, Note_on_c, 0, 60, 0
3, 94440, Note_on_c, 0, 53, 35
3, 94480, Note_on_c, 0, 53, 0
3, 94480, Note_on_c, 0, 55, 35
3, 94520, Note_on_c, 0, 55, 0
3, 94520, Note_on_c, 0, 59, 35
3, 94560, Note_on_c, 0, 59, 0
3, 94560, Note_on_c, 0, 52, 37
3, 94600, Note_on_c, 0, 52, 0
3, 94600, Note_on_c, 0, 55, 37
3, 94640, Note_on_c, 0, 55, 0
3, 94640, Note_on_c, 0, 60, 38
3, 94680, Note_on_c, 0, 60, 0
3, 94680, Note_on_c, 0, 52, 38
3, 94720, Note_on_c, 0, 52, 0
3, 94720, Note_on_c, 0, 55, 39
3, 94760, Note_on_c, 0, 55, 0
3, 94760, Note_on_c, 0, 60, 39
3, 94800, Note_on_c, 0, 60, 0
3, 94800, Note_on_c, 0, 47, 40
3, 94840, Note_on_c, 0, 47, 0
3, 94840, Note_on_c, 0, 50, 40
3, 94880, Note_on_c, 0, 50, 0
3, 94880, Note_on_c, 0, 55, 41
3, 94920, Note_on_c, 0, 55, 0
3, 94920, Note_on_c, 0, 47, 41
3, 94960, Note_on_c, 0, 47, 0
3, 94960, Note_on_c, 0, 50, 41
3, 95000, Note_on_c, 0, 50, 0
3, 95000, Note_on_c, 0, 55, 42
3, 95040, Note_on_c, 0, 55, 0
3, 95040, Note_on_c, 0, 48, 43
3, 95080, Note_on_c, 0, 48, 0
3, 95080, Note_on_c, 0, 52, 43
3, 95120, Note_on_c, 0, 52, 0
3, 95120, Note_on_c, 0, 55, 43
3, 95160, Note_on_c, 0, 55, 0
3, 95160, Note_on_c, 0, 48, 44
3, 95200, Note_on_c, 0, 48, 0
3, 95200, Note_on_c, 0, 52, 44
3, 95240, Note_on_c, 0, 52, 0
3, 95240, Note_on_c, 0, 55, 45
3, 95280, Note_on_c, 0, 55, 0
3, 95280, Note_on_c, 0, 50, 45
3, 95320, Note_on_c, 0, 50, 0
3, 95320, Note_on_c, 0, 53, 46
3, 95360, Note_on_c, 0, 53, 0
3, 95360, Note_on_c, 0, 59, 46
3, 95400, Note_on_c, 0, 59, 0
3, 95400, Note_on_c, 0, 50, 47
3, 95440, Note_on_c, 0, 50, 0
3, 95440, Note_on_c, 0, 53, 47
3, 95480, Note_on_c, 0, 53, 0
3, 95480, Note_on_c, 0, 59, 48
3, 95520, Note_on_c, 0, 59, 0
3, 95520, Note_on_c, 0, 52, 48
3, 95560, Note_on_c, 0, 52, 0
3, 95560, Note_on_c, 0, 55, 49
3, 95600, Note_on_c, 0, 55, 0
3, 95600, Note_on_c, 0, 60, 49
3, 95640, Note_on_c, 0, 60, 0
3, 95640, Note_on_c, 0, 52, 49
3, 95680, Note_on_c, 0, 52, 0
3, 95680, Note_on_c, 0, 55, 49
3, 95720, Note_on_c, 0, 55, 0
3, 95720, Note_on_c, 0, 60, 49
3, 95760, Note_on_c, 0, 60, 0
3, 95760, Note_on_c, 0, 52, 49
3, 95880, Note_on_c, 0, 52, 0
3, 96000, Note_on_c, 0, 41, 57
3, 96000, Note_on_c, 0, 53, 57
3, 96120, Note_on_c, 0, 53, 0
3, 96120, Note_on_c, 0, 41, 0
3, 96600, Note_on_c, 0, 76, 56
3, 96720, Note_on_c, 0, 76, 0
3, 96960, Note_on_c, 0, 76, 38
3, 96960, Note_on_c, 0, 67, 38
3, 97200, Note_on_c, 0, 76, 0
3, 97200, Note_on_c, 0, 77, 38
3, 97440, Note_on_c, 0, 77, 0
3, 97440, Note_on_c, 0, 67, 0
3, 97440, Note_on_c, 0, 72, 38
3, 97440, Note_on_c, 0, 76, 38
3, 97680, Note_on_c, 0, 76, 0
3, 97680, Note_on_c, 0, 72, 0
3, 97800, Note_on_c, 0, 72, 36
3, 97920, Note_on_c, 0, 72, 0
3, 97920, Note_on_c, 0, 71, 36
3, 97920, Note_on_c, 0, 74, 36
3, 97980, Note_on_c, 0, 74, 0
3, 97980, Note_on_c, 0, 71, 0
3, 98280, Note_on_c, 0, 69, 36
3, 98400, Note_on_c, 0, 69, 0
3, 98400, Note_on_c, 0, 71, 36
3, 98400, Note_on_c, 0, 67, 36
3, 98460, Note_on_c, 0, 67, 0
3, 98460, Note_on_c, 0, 71, 0
3, 98760, Note_on_c, 0, 65, 36
3, 98880, Note_on_c, 0, 65, 0
3, 98880, Note_on_c, 0, 67, 36
3, 98880, Note_on_c, 0, 64, 36
3, 98940, Note_on_c, 0, 64, 0
3, 98940, Note_on_c, 0, 67, 0
3, 99240, Note_on_c, 0, 64, 42
3, 99240, Note_on_c, 0, 60, 42
3, 99300, Note_on_c, 0, 60, 0
3, 99300, Note_on_c, 0, 64, 0
3, 99360, Note_on_c, 0, 65, 42
3, 99360, Note_on_c, 0, 53, 42
3, 99480, Note_on_c, 0, 53, 0
3, 99480, Note_on_c, 0, 65, 0
3, 99600, Note_on_c, 0, 55, 42
3, 99600, Note_on_c, 0, 62, 42
3, 99720, Note_on_c, 0, 62, 0
3, 99720, Note_on_c, 0, 55, 0
3, 99840, Note_on_c, 0, 60, 39
3, 99840, Note_on_c, 0, 64, 39
3, 99960, Note_on_c, 0, 64, 0
3, 99960, Note_on_c, 0, 60, 0
3, 100200, Note_on_c, 0, 72, 42
3, 100320, Note_on_c, 0, 72, 0
3, 100320, Note_on_c, 0, 71, 37
3, 100350, Note_on_c, 0, 71, 0
3, 100440, Note_on_c, 0, 71, 36
3, 100470, Note_on_c, 0, 71, 0
3, 100560, Note_on_c, 0, 71, 36
3, 100590, Note_on_c, 0, 71, 0
3, 100680, Note_on_c, 0, 72, 44
3, 100800, Note_on_c, 0, 72, 0
3, 100800, Note_on_c, 0, 71, 36
3, 100830, Note_on_c, 0, 71, 0
3, 100920, Note_on_c, 0, 71, 36
3, 100950, Note_on_c, 0, 71, 0
3, 101040, Note_on_c, 0, 71, 36
3, 101070, Note_on_c, 0, 71, 0
3, 101160, Note_on_c, 0, 69, 43
3, 101280, Note_on_c, 0, 69, 0
3, 101280, Note_on_c, 0, 67, 36
3, 101310, Note_on_c, 0, 67, 0
3, 101400, Note_on_c, 0, 67, 36
3, 101430, Note_on_c, 0, 67, 0
3, 101520, Note_on_c, 0, 67, 36
3, 101550, Note_on_c, 0, 67, 0
3, 101640, Note_on_c, 0, 69, 42
3, 101760, Note_on_c, 0, 69, 0
3, 101760, Note_on_c, 0, 67, 36
3, 101790, Note_on_c, 0, 67, 0
3, 101880, Note_on_c, 0, 67, 36
3, 101910, Note_on_c, 0, 67, 0
3, 102000, Note_on_c, 0, 67, 36
3, 102030, Note_on_c, 0, 67, 0
3, 102120, Note_on_c, 0, 65, 42
3, 102240, Note_on_c, 0, 65, 0
3, 102240, Note_on_c, 0, 64, 36
3, 102270, Note_on_c, 0, 64, 0
3, 102360, Note_on_c, 0, 64, 36
3, 102390, Note_on_c, 0, 64, 0
3, 102480, Note_on_c, 0, 64, 36
3, 102510, Note_on_c, 0, 64, 0
3, 102600, Note_on_c, 0, 65, 42
3, 102720, Note_on_c, 0, 65, 0
3, 102720, Note_on_c, 0, 64, 36
3, 102750, Note_on_c, 0, 64, 0
3, 102840, Note_on_c, 0, 64, 36
3, 102870, Note_on_c, 0, 64, 0
3, 102960, Note_on_c, 0, 64, 36
3, 102990, Note_on_c, 0, 64, 0
3, 103080, Note_on_c, 0, 65, 41
3, 103200, Note_on_c, 0, 65, 0
3, 103200, Note_on_c, 0, 64, 36
3, 103230, Note_on_c, 0, 64, 0
3, 103320, Note_on_c, 0, 59, 42
3, 103380, Note_on_c, 0, 59, 0
3, 103440, Note_on_c, 0, 60, 44
3, 103500, Note_on_c, 0, 60, 0
3, 103560, Note_on_c, 0, 62, 46
3, 103620, Note_on_c, 0, 62, 0
3, 103680, Note_on_c, 0, 64, 48
3, 103920, Note_on_c, 0, 64, 0
3, 104160, Note_on_c, 0, 41, 39
3, 104280, Note_on_c, 0, 53, 43
3, 104400, Note_on_c, 0, 53, 0
3, 104400, Note_on_c, 0, 41, 0
3, 104400, Note_on_c, 0, 52, 41
3, 104400, Note_on_c, 0, 43, 41
3, 104520, Note_on_c, 0, 52, 0
3, 104520, Note_on_c, 0, 50, 39
3, 104640, Note_on_c, 0, 50, 0
3, 104640, Note_on_c, 0, 43, 0
3, 104640, Note_on_c, 0, 48, 48
3, 104640, Note_on_c, 0, 43, 48
3, 104640, Note_on_c, 0, 40, 48
3, 104880, Note_on_c, 0, 40, 0
3, 104880, Note_on_c, 0, 43, 0
3, 104880, Note_on_c, 0, 48, 0
3, 105120, Note_on_c, 0, 57, 52
3, 105120, Note_on_c, 0, 53, 52
3, 105300, Note_on_c, 0, 53, 0
3, 105300, Note_on_c, 0, 57, 0
3, 105360, Note_on_c, 0, 60, 52
3, 105360, Note_on_c, 0, 57, 52
3, 105360, Note_on_c, 0, 54, 52
3, 105360, Note_on_c, 0, 63, 52
3, 105600, Note_on_c, 0, 63, 0
3, 105600, Note_on_c, 0, 60, 0
3, 105600, Note_on_c, 0, 57, 0
3, 105600, Note_on_c, 0, 54, 0
3, 105600, Note_on_c, 0, 55, 36
3, 105640, Note_on_c, 0, 55, 0
3, 105640, Note_on_c, 0, 60, 36
3, 105680, Note_on_c, 0, 60, 0
3, 105680, Note_on_c, 0, 64, 36
3, 105720, Note_on_c, 0, 64, 0
3, 105720, Note_on_c, 0, 55, 36
3, 105760, Note_on_c, 0, 55, 0
3, 105760, Note_on_c, 0, 60, 36
3, 105800, Note_on_c, 0, 60, 0
3, 105800, Note_on_c, 0, 64, 36
3, 105840, Note_on_c, 0, 64, 0
3, 105840, Note_on_c, 0, 55, 36
3, 105880, Note_on_c, 0, 55, 0
3, 105880, Note_on_c, 0, 60, 36
3, 105920, Note_on_c, 0, 60, 0
3, 105920, Note_on_c, 0, 64, 36
3, 105960, Note_on_c, 0, 64, 0
3, 105960, Note_on_c, 0, 55, 36
3, 106000, Note_on_c, 0, 55, 0
3, 106000, Note_on_c, 0, 60, 36
3, 106040, Note_on_c, 0, 60, 0
3, 106040, Note_on_c, 0, 64, 36
3, 106080, Note_on_c, 0, 64, 0
3, 106080, Note_on_c, 0, 55, 36
3, 106120, Note_on_c, 0, 55, 0
3, 106120, Note_on_c, 0, 60, 36
3, 106160, Note_on_c, 0, 60, 0
3, 106160, Note_on_c, 0, 64, 36
3, 106200, Note_on_c, 0, 64, 0
3, 106200, Note_on_c, 0, 55, 36
3, 106240, Note_on_c, 0, 55, 0
3, 106240, Note_on_c, 0, 60, 36
3, 106280, Note_on_c, 0, 60, 0
3, 106280, Note_on_c, 0, 64, 36
3, 106320, Note_on_c, 0, 64, 0
3, 106320, Note_on_c, 0, 55, 36
3, 106360, Note_on_c, 0, 55, 0
3, 106360, Note_on_c, 0, 60, 36
3, 106400, Note_on_c, 0, 60, 0
3, 106400, Note_on_c, 0, 64, 36
3, 106440, Note_on_c, 0, 64, 0
3, 106440, Note_on_c, 0, 55, 36
3, 106480, Note_on_c, 0, 55, 0
3, 106480, Note_on_c, 0, 60, 36
3, 106520, Note_on_c, 0, 60, 0
3, 106520, Note_on_c, 0, 64, 36
3, 106560, Note_on_c, 0, 64, 0
3, 106560, Note_on_c, 0, 55, 36
3, 106600, Note_on_c, 0, 55, 0
3, 106600, Note_on_c, 0, 60, 36
3, 106640, Note_on_c, 0, 60, 0
3, 106640, Note_on_c, 0, 64, 36
3, 106680, Note_on_c, 0, 64, 0
3, 106680, Note_on_c, 0, 55, 36
3, 106720, Note_on_c, 0, 55, 0
3, 106720, Note_on_c, 0, 60, 36
3, 106760, Note_on_c, 0, 60, 0
3, 106760, Note_on_c, 0, 64, 36
3, 106800, Note_on_c, 0, 64, 0
3, 106800, Note_on_c, 0, 55, 36
3, 106840, Note_on_c, 0, 55, 0
3, 106840, Note_on_c, 0, 60, 36
3, 106880, Note_on_c, 0, 60, 0
3, 106880, Note_on_c, 0, 64, 36
3, 106920, Note_on_c, 0, 64, 0
3, 106920, Note_on_c, 0, 55, 36
3, 106960, Note_on_c, 0, 55, 0
3, 106960, Note_on_c, 0, 60, 36
3, 107000, Note_on_c, 0, 60, 0
3, 107000, Note_on_c, 0, 64, 36
3, 107040, Note_on_c, 0, 64, 0
3, 107040, Note_on_c, 0, 55, 36
3, 107080, Note_on_c, 0, 55, 0
3, 107080, Note_on_c, 0, 62, 36
3, 107120, Note_on_c, 0, 62, 0
3, 107120, Note_on_c, 0, 65, 36
3, 107160, Note_on_c, 0, 65, 0
3, 107160, Note_on_c, 0, 55, 36
3, 107200, Note_on_c, 0, 55, 0
3, 107200, Note_on_c, 0, 62, 36
3, 107240, Note_on_c, 0, 62, 0
3, 107240, Note_on_c, 0, 65, 36
3, 107280, Note_on_c, 0, 65, 0
3, 107280, Note_on_c, 0, 55, 36
3, 107320, Note_on_c, 0, 55, 0
3, 107320, Note_on_c, 0, 60, 36
3, 107360, Note_on_c, 0, 60, 0
3, 107360, Note_on_c, 0, 64, 36
3, 107400, Note_on_c, 0, 64, 0
3, 107400, Note_on_c, 0, 55, 36
3, 107440, Note_on_c, 0, 55, 0
3, 107440, Note_on_c, 0, 60, 36
3, 107480, Note_on_c, 0, 60, 0
3, 107480, Note_on_c, 0, 64, 36
3, 107520, Note_on_c, 0, 64, 0
3, 107520, Note_on_c, 0, 55, 36
3, 107560, Note_on_c, 0, 55, 0
3, 107560, Note_on_c, 0, 59, 36
3, 107600, Note_on_c, 0, 59, 0
3, 107600, Note_on_c, 0, 62, 36
3, 107640, Note_on_c, 0, 62, 0
3, 107640, Note_on_c, 0, 55, 36
3, 107680, Note_on_c, 0, 55, 0
3, 107680, Note_on_c, 0, 59, 36
3, 107720, Note_on_c, 0, 59, 0
3, 107720, Note_on_c, 0, 62, 36
3, 107760, Note_on_c, 0, 62, 0
3, 107760, Note_on_c, 0, 55, 36
3, 107800, Note_on_c, 0, 55, 0
3, 107800, Note_on_c, 0, 59, 36
3, 107840, Note_on_c, 0, 59, 0
3, 107840, Note_on_c, 0, 62, 36
3, 107880, Note_on_c, 0, 62, 0
3, 107880, Note_on_c, 0, 55, 36
3, 107920, Note_on_c, 0, 55, 0
3, 107920, Note_on_c, 0, 59, 36
3, 107960, Note_on_c, 0, 59, 0
3, 107960, Note_on_c, 0, 62, 36
3, 108000, Note_on_c, 0, 62, 0
3, 108000, Note_on_c, 0, 55, 36
3, 108040, Note_on_c, 0, 55, 0
3, 108040, Note_on_c, 0, 59, 36
3, 108080, Note_on_c, 0, 59, 0
3, 108080, Note_on_c, 0, 62, 36
3, 108120, Note_on_c, 0, 62, 0
3, 108120, Note_on_c, 0, 55, 36
3, 108160, Note_on_c, 0, 55, 0
3, 108160, Note_on_c, 0, 59, 36
3, 108200, Note_on_c, 0, 59, 0
3, 108200, Note_on_c, 0, 62, 36
3, 108240, Note_on_c, 0, 62, 0
3, 108240, Note_on_c, 0, 55, 36
3, 108280, Note_on_c, 0, 55, 0
3, 108280, Note_on_c, 0, 60, 36
3, 108320, Note_on_c, 0, 60, 0
3, 108320, Note_on_c, 0, 64, 36
3, 108360, Note_on_c, 0, 64, 0
3, 108360, Note_on_c, 0, 55, 36
3, 108400, Note_on_c, 0, 55, 0
3, 108400, Note_on_c, 0, 60, 36
3, 108440, Note_on_c, 0, 60, 0
3, 108440, Note_on_c, 0, 64, 36
3, 108480, Note_on_c, 0, 64, 0
3, 108480, Note_on_c, 0, 55, 36
3, 108520, Note_on_c, 0, 55, 0
3, 108520, Note_on_c, 0, 62, 36
3, 108560, Note_on_c, 0, 62, 0
3, 108560, Note_on_c, 0, 65, 36
3, 108600, Note_on_c, 0, 65, 0
3, 108600, Note_on_c, 0, 55, 36
3, 108640, Note_on_c, 0, 55, 0
3, 108640, Note_on_c, 0, 62, 36
3, 108680, Note_on_c, 0, 62, 0
3, 108680, Note_on_c, 0, 65, 36
3, 108720, Note_on_c, 0, 65, 0
3, 108720, Note_on_c, 0, 57, 36
3, 108760, Note_on_c, 0, 57, 0
3, 108760, Note_on_c, 0, 60, 36
3, 108800, Note_on_c, 0, 60, 0
3, 108800, Note_on_c, 0, 64, 36
3, 108840, Note_on_c, 0, 64, 0
3, 108840, Note_on_c, 0, 57, 36
3, 108880, Note_on_c, 0, 57, 0
3, 108880, Note_on_c, 0, 60, 36
3, 108920, Note_on_c, 0, 60, 0
3, 108920, Note_on_c, 0, 64, 36
3, 108960, Note_on_c, 0, 64, 0
3, 108960, Note_on_c, 0, 53, 36
3, 109000, Note_on_c, 0, 53, 0
3, 109000, Note_on_c, 0, 57, 36
3, 109040, Note_on_c, 0, 57, 0
3, 109040, Note_on_c, 0, 62, 36
3, 109080, Note_on_c, 0, 62, 0
3, 109080, Note_on_c, 0, 53, 36
3, 109120, Note_on_c, 0, 53, 0
3, 109120, Note_on_c, 0, 57, 36
3, 109160, Note_on_c, 0, 57, 0
3, 109160, Note_on_c, 0, 62, 36
3, 109200, Note_on_c, 0, 62, 0
3, 109200, Note_on_c, 0, 55, 36
3, 109240, Note_on_c, 0, 55, 0
3, 109240, Note_on_c, 0, 62, 36
3, 109280, Note_on_c, 0, 62, 0
3, 109280, Note_on_c, 0, 65, 36
3, 109320, Note_on_c, 0, 65, 0
3, 109320, Note_on_c, 0, 55, 36
3, 109360, Note_on_c, 0, 55, 0
3, 109360, Note_on_c, 0, 62, 36
3, 109400, Note_on_c, 0, 62, 0
3, 109400, Note_on_c, 0, 65, 36
3, 109440, Note_on_c, 0, 65, 0
3, 109440, Note_on_c, 0, 60, 47
3, 109480, Note_on_c, 0, 60, 0
3, 109480, Note_on_c, 0, 64, 42
3, 109520, Note_on_c, 0, 64, 0
3, 109520, Note_on_c, 0, 67, 36
3, 109560, Note_on_c, 0, 67, 0
3, 109560, Note_on_c, 0, 60, 36
3, 109600, Note_on_c, 0, 60, 0
3, 109600, Note_on_c, 0, 64, 36
3, 109640, Note_on_c, 0, 64, 0
3, 109640, Note_on_c, 0, 67, 36
3, 109680, Note_on_c, 0, 67, 0
3, 109680, Note_on_c, 0, 60, 36
3, 109720, Note_on_c, 0, 60, 0
3, 109720, Note_on_c, 0, 64, 36
3, 109760, Note_on_c, 0, 64, 0
3, 109760, Note_on_c, 0, 67, 36
3, 109800, Note_on_c, 0, 67, 0
3, 109800, Note_on_c, 0, 55, 40
3, 109840, Note_on_c, 0, 55, 0
3, 109840, Note_on_c, 0, 59, 38
3, 109880, Note_on_c, 0, 59, 0
3, 109880, Note_on_c, 0, 67, 35
3, 109920, Note_on_c, 0, 67, 0
3, 109920, Note_on_c, 0, 60, 36
3, 109960, Note_on_c, 0, 60, 0
3, 109960, Note_on_c, 0, 64, 36
3, 110000, Note_on_c, 0, 64, 0
3, 110000, Note_on_c, 0, 67, 36
3, 110040, Note_on_c, 0, 67, 0
3, 110040, Note_on_c, 0, 60, 36
3, 110080, Note_on_c, 0, 60, 0
3, 110080, Note_on_c, 0, 64, 36
3, 110120, Note_on_c, 0, 64, 0
3, 110120, Note_on_c, 0, 67, 36
3, 110160, Note_on_c, 0, 67, 0
3, 110160, Note_on_c, 0, 60, 36
3, 110200, Note_on_c, 0, 60, 0
3, 110200, Note_on_c, 0, 64, 36
3, 110240, Note_on_c, 0, 64, 0
3, 110240, Note_on_c, 0, 67, 36
3, 110280, Note_on_c, 0, 67, 0
3, 110280, Note_on_c, 0, 55, 42
3, 110320, Note_on_c, 0, 55, 0
3, 110320, Note_on_c, 0, 59, 36
3, 110360, Note_on_c, 0, 59, 0
3, 110360, Note_on_c, 0, 67, 36
3, 110400, Note_on_c, 0, 67, 0
3, 110400, Note_on_c, 0, 60, 36
3, 110440, Note_on_c, 0, 60, 0
3, 110440, Note_on_c, 0, 64, 36
3, 110480, Note_on_c, 0, 64, 0
3, 110480, Note_on_c, 0, 67, 36
3, 110520, Note_on_c, 0, 67, 0
3, 110520, Note_on_c, 0, 60, 36
3, 110560, Note_on_c, 0, 60, 0
3, 110560, Note_on_c, 0, 64, 36
3, 110600, Note_on_c, 0, 64, 0
3, 110600, Note_on_c, 0, 67, 36
3, 110640, Note_on_c, 0, 67, 0
3, 110640, Note_on_c, 0, 60, 36
3, 110680, Note_on_c, 0, 60, 0
3, 110680, Note_on_c, 0, 64, 36
3, 110720, Note_on_c, 0, 64, 0
3, 110720, Note_on_c, 0, 67, 36
3, 110760, Note_on_c, 0, 67, 0
3, 110760, Note_on_c, 0, 55, 41
3, 110800, Note_on_c, 0, 55, 0
3, 110800, Note_on_c, 0, 59, 36
3, 110840, Note_on_c, 0, 59, 0
3, 110840, Note_on_c, 0, 67, 36
3, 110880, Note_on_c, 0, 67, 0
3, 110880, Note_on_c, 0, 60, 36
3, 110920, Note_on_c, 0, 60, 0
3, 110920, Note_on_c, 0, 64, 36
3, 110960, Note_on_c, 0, 64, 0
3, 110960, Note_on_c, 0, 67, 36
3, 111000, Note_on_c, 0, 67, 0
3, 111000, Note_on_c, 0, 60, 36
3, 111040, Note_on_c, 0, 60, 0
3, 111040, Note_on_c, 0, 64, 36
3, 111080, Note_on_c, 0, 64, 0
3, 111080, Note_on_c, 0, 67, 36
3, 111120, Note_on_c, 0, 67, 0
3, 111120, Note_on_c, 0, 60, 36
3, 111160, Note_on_c, 0, 60, 0
3, 111160, Note_on_c, 0, 64, 36
3, 111200, Note_on_c, 0, 64, 0
3, 111200, Note_on_c, 0, 67, 36
3, 111240, Note_on_c, 0, 67, 0
3, 111240, Note_on_c, 0, 55, 43
3, 111280, Note_on_c, 0, 55, 0
3, 111280, Note_on_c, 0, 59, 36
3, 111320, Note_on_c, 0, 59, 0
3, 111320, Note_on_c, 0, 67, 36
3, 111360, Note_on_c, 0, 67, 0
3, 111360, Note_on_c, 0, 60, 36
3, 111400, Note_on_c, 0, 60, 0
3, 111400, Note_on_c, 0, 64, 36
3, 111440, Note_on_c, 0, 64, 0
3, 111440, Note_on_c, 0, 67, 36
3, 111480, Note_on_c, 0, 67, 0
3, 111480, Note_on_c, 0, 60, 36
3, 111520, Note_on_c, 0, 60, 0
3, 111520, Note_on_c, 0, 64, 36
3, 111560, Note_on_c, 0, 64, 0
3, 111560, Note_on_c, 0, 67, 36
3, 111600, Note_on_c, 0, 67, 0
3, 111600, Note_on_c, 0, 60, 36
3, 111640, Note_on_c, 0, 60, 0
3, 111640, Note_on_c, 0, 64, 36
3, 111680, Note_on_c, 0, 64, 0
3, 111680, Note_on_c, 0, 67, 36
3, 111720, Note_on_c, 0, 67, 0
3, 111720, Note_on_c, 0, 55, 32
3, 111760, Note_on_c, 0, 55, 0
3, 111760, Note_on_c, 0, 59, 32
3, 111800, Note_on_c, 0, 59, 0
3, 111800, Note_on_c, 0, 67, 32
3, 111840, Note_on_c, 0, 67, 0
3, 111840, Note_on_c, 0, 60, 32
3, 111880, Note_on_c, 0, 60, 0
3, 111880, Note_on_c, 0, 64, 32
3, 111920, Note_on_c, 0, 64, 0
3, 111920, Note_on_c, 0, 67, 32
3, 111960, Note_on_c, 0, 67, 0
3, 111960, Note_on_c, 0, 60, 32
3, 112000, Note_on_c, 0, 60, 0
3, 112000, Note_on_c, 0, 64, 32
3, 112040, Note_on_c, 0, 64, 0
3, 112040, Note_on_c, 0, 67, 32
3, 112080, Note_on_c, 0, 67, 0
3, 112080, Note_on_c, 0, 60, 32
3, 112120, Note_on_c, 0, 60, 0
3, 112120, Note_on_c, 0, 64, 32
3, 112160, Note_on_c, 0, 64, 0
3, 112160, Note_on_c, 0, 67, 32
3, 112200, Note_on_c, 0, 67, 0
3, 112200, Note_on_c, 0, 55, 32
3, 112240, Note_on_c, 0, 55, 0
3, 112240, Note_on_c, 0, 59, 32
3, 112280, Note_on_c, 0, 59, 0
3, 112280, Note_on_c, 0, 67, 32
3, 112320, Note_on_c, 0, 67, 0
3, 112320, Note_on_c, 0, 60, 32
3, 112360, Note_on_c, 0, 60, 0
3, 112360, Note_on_c, 0, 64, 32
3, 112400, Note_on_c, 0, 64, 0
3, 112400, Note_on_c, 0, 67, 32
3, 112440, Note_on_c, 0, 67, 0
3, 112440, Note_on_c, 0, 60, 32
3, 112480, Note_on_c, 0, 60, 0
3, 112480, Note_on_c, 0, 64, 32
3, 112520, Note_on_c, 0, 64, 0
3, 112520, Note_on_c, 0, 67, 32
3, 112560, Note_on_c, 0, 67, 0
3, 112560, Note_on_c, 0, 60, 32
3, 112600, Note_on_c, 0, 60, 0
3, 112600, Note_on_c, 0, 64, 32
3, 112640, Note_on_c, 0, 64, 0
3, 112640, Note_on_c, 0, 67, 32
3, 112680, Note_on_c, 0, 67, 0
3, 112680, Note_on_c, 0, 55, 32
3, 112720, Note_on_c, 0, 55, 0
3, 112720, Note_on_c, 0, 59, 32
3, 112760, Note_on_c, 0, 59, 0
3, 112760, Note_on_c, 0, 67, 32
3, 112800, Note_on_c, 0, 67, 0
3, 112800, Note_on_c, 0, 60, 32
3, 112840, Note_on_c, 0, 60, 0
3, 112840, Note_on_c, 0, 64, 32
3, 112880, Note_on_c, 0, 64, 0
3, 112880, Note_on_c, 0, 67, 32
3, 112920, Note_on_c, 0, 67, 0
3, 112920, Note_on_c, 0, 60, 32
3, 112960, Note_on_c, 0, 60, 0
3, 112960, Note_on_c, 0, 64, 32
3, 113000, Note_on_c, 0, 64, 0
3, 113000, Note_on_c, 0, 67, 32
3, 113040, Note_on_c, 0, 67, 0
3, 113040, Note_on_c, 0, 60, 32
3, 113080, Note_on_c, 0, 60, 0
3, 113080, Note_on_c, 0, 64, 32
3, 113120, Note_on_c, 0, 64, 0
3, 113120, Note_on_c, 0, 67, 32
3, 113160, Note_on_c, 0, 67, 0
3, 113160, Note_on_c, 0, 55, 32
3, 113200, Note_on_c, 0, 55, 0
3, 113200, Note_on_c, 0, 59, 32
3, 113240, Note_on_c, 0, 59, 0
3, 113240, Note_on_c, 0, 67, 32
3, 113280, Note_on_c, 0, 67, 0
3, 113280, Note_on_c, 0, 60, 42
3, 113320, Note_on_c, 0, 60, 0
3, 113320, Note_on_c, 0, 64, 43
3, 113360, Note_on_c, 0, 64, 0
3, 113360, Note_on_c, 0, 67, 43
3, 113400, Note_on_c, 0, 67, 0
3, 113400, Note_on_c, 0, 60, 43
3, 113440, Note_on_c, 0, 60, 0
3, 113440, Note_on_c, 0, 64, 43
3, 113480, Note_on_c, 0, 64, 0
3, 113480, Note_on_c, 0, 67, 43
3, 113520, Note_on_c, 0, 67, 0
3, 113520, Note_on_c, 0, 60, 43
3, 113560, Note_on_c, 0, 60, 0
3, 113560, Note_on_c, 0, 64, 43
3, 113600, Note_on_c, 0, 64, 0
3, 113600, Note_on_c, 0, 67, 43
3, 113640, Note_on_c, 0, 67, 0
3, 113640, Note_on_c, 0, 60, 43
3, 113680, Note_on_c, 0, 60, 0
3, 113680, Note_on_c, 0, 64, 43
3, 113720, Note_on_c, 0, 64, 0
3, 113720, Note_on_c, 0, 67, 43
3, 113760, Note_on_c, 0, 67, 0
3, 113760, Note_on_c, 0, 60, 43
3, 113800, Note_on_c, 0, 60, 0
3, 113800, Note_on_c, 0, 64, 43
3, 113840, Note_on_c, 0, 64, 0
3, 113840, Note_on_c, 0, 67, 43
3, 113880, Note_on_c, 0, 67, 0
3, 113880, Note_on_c, 0, 60, 43
3, 113920, Note_on_c, 0, 60, 0
3, 113920, Note_on_c, 0, 64, 43
3, 113960, Note_on_c, 0, 64, 0
3, 113960, Note_on_c, 0, 67, 43
3, 114000, Note_on_c, 0, 67, 0
3, 114000, Note_on_c, 0, 60, 43
3, 114040, Note_on_c, 0, 60, 0
3, 114040, Note_on_c, 0, 64, 43
3, 114080, Note_on_c, 0, 64, 0
3, 114080, Note_on_c, 0, 67, 43
3, 114120, Note_on_c, 0, 67, 0
3, 114120, Note_on_c, 0, 60, 43
3, 114160, Note_on_c, 0, 60, 0
3, 114160, Note_on_c, 0, 64, 43
3, 114200, Note_on_c, 0, 64, 0
3, 114200, Note_on_c, 0, 67, 43
3, 114240, Note_on_c, 0, 67, 0
3, 114240, Note_on_c, 0, 60, 43
3, 114600, Note_on_c, 0, 60, 0
3, 114600, End_track
0, 0, End_of_file
