0, 0, Header, 1, 7, 96
1, 0, Start_track
1, 0, Copyright_t, "Copyright  2000 <copyright holder>"
1, 0, Text_t, "Sonata II\015\012"
1, 0, Text_t, "Haydn\015\012"
1, 0, Sequencer_specific, 17, 68, 87, 77, 90, 86, 82, 83, 78, 32, 55, 46, 48, 46, 49, 48, 46, 48
1, 0, Time_signature, 2, 2, 24, 8
1, 0, Tempo, 394736
1, 0, Key_signature, -3, "major"
1, 50880, End_track
2, 0, Start_track
2, 0, Program_c, 0, 0
2, 0, Control_c, 0, 7, 127
2, 0, Control_c, 0, 10, 64
2, 144, Note_on_c, 0, 70, 77
2, 192, Note_on_c, 0, 70, 0
2, 192, Note_on_c, 0, 67, 77
2, 237, Note_on_c, 0, 67, 0
2, 336, Note_on_c, 0, 70, 77
2, 384, Note_on_c, 0, 70, 0
2, 384, Note_on_c, 0, 65, 77
2, 429, Note_on_c, 0, 65, 0
2, 528, Note_on_c, 0, 70, 77
2, 573, Note_on_c, 0, 70, 0
2, 576, Note_on_c, 0, 75, 77
2, 621, Note_on_c, 0, 75, 0
2, 624, Note_on_c, 0, 68, 93
2, 720, Note_on_c, 0, 68, 0
2, 720, Note_on_c, 0, 67, 79
2, 765, Note_on_c, 0, 67, 0
2, 768, Note_on_c, 0, 72, 79
2, 813, Note_on_c, 0, 72, 0
2, 816, Note_on_c, 0, 65, 96
2, 912, Note_on_c, 0, 65, 0
2, 912, Note_on_c, 0, 63, 82
2, 957, Note_on_c, 0, 63, 0
2, 960, Note_on_c, 0, 62, 82
2, 1005, Note_on_c, 0, 62, 0
2, 1008, Note_on_c, 0, 68, 99
2, 1104, Note_on_c, 0, 68, 0
2, 1104, Note_on_c, 0, 67, 85
2, 1197, Note_on_c, 0, 67, 0
2, 1200, Note_on_c, 0, 65, 79
2, 1245, Note_on_c, 0, 65, 0
2, 1296, Note_on_c, 0, 70, 77
2, 1344, Note_on_c, 0, 70, 0
2, 1344, Note_on_c, 0, 67, 77
2, 1389, Note_on_c, 0, 67, 0
2, 1488, Note_on_c, 0, 70, 77
2, 1536, Note_on_c, 0, 70, 0
2, 1536, Note_on_c, 0, 65, 77
2, 1581, Note_on_c, 0, 65, 0
2, 1680, Note_on_c, 0, 70, 77
2, 1725, Note_on_c, 0, 70, 0
2, 1728, Note_on_c, 0, 69, 79
2, 1773, Note_on_c, 0, 69, 0
2, 1776, Note_on_c, 0, 75, 97
2, 1872, Note_on_c, 0, 75, 0
2, 1872, Note_on_c, 0, 74, 85
2, 1917, Note_on_c, 0, 74, 0
2, 1920, Note_on_c, 0, 67, 85
2, 1965, Note_on_c, 0, 67, 0
2, 1968, Note_on_c, 0, 72, 101
2, 2064, Note_on_c, 0, 72, 0
2, 2064, Note_on_c, 0, 70, 85
2, 2109, Note_on_c, 0, 70, 0
2, 2112, Note_on_c, 0, 67, 85
2, 2157, Note_on_c, 0, 67, 0
2, 2160, Note_on_c, 0, 79, 101
2, 2256, Note_on_c, 0, 79, 0
2, 2256, Note_on_c, 0, 69, 85
2, 2301, Note_on_c, 0, 69, 0
2, 2304, Note_on_c, 0, 72, 85
2, 2352, Note_on_c, 0, 72, 0
2, 2352, Note_on_c, 0, 70, 81
2, 2397, Note_on_c, 0, 70, 0
2, 2448, Note_on_c, 0, 70, 77
2, 2493, Note_on_c, 0, 70, 0
2, 2496, Note_on_c, 0, 67, 77
2, 2541, Note_on_c, 0, 67, 0
2, 2640, Note_on_c, 0, 70, 77
2, 2688, Note_on_c, 0, 70, 0
2, 2688, Note_on_c, 0, 65, 77
2, 2733, Note_on_c, 0, 65, 0
2, 2832, Note_on_c, 0, 70, 77
2, 2877, Note_on_c, 0, 70, 0
2, 2880, Note_on_c, 0, 75, 77
2, 2925, Note_on_c, 0, 75, 0
2, 2928, Note_on_c, 0, 68, 93
2, 3024, Note_on_c, 0, 68, 0
2, 3024, Note_on_c, 0, 67, 79
2, 3069, Note_on_c, 0, 67, 0
2, 3072, Note_on_c, 0, 72, 79
2, 3117, Note_on_c, 0, 72, 0
2, 3120, Note_on_c, 0, 65, 96
2, 3216, Note_on_c, 0, 65, 0
2, 3216, Note_on_c, 0, 63, 82
2, 3261, Note_on_c, 0, 63, 0
2, 3264, Note_on_c, 0, 62, 82
2, 3309, Note_on_c, 0, 62, 0
2, 3312, Note_on_c, 0, 68, 99
2, 3408, Note_on_c, 0, 68, 0
2, 3408, Note_on_c, 0, 67, 85
2, 3501, Note_on_c, 0, 67, 0
2, 3504, Note_on_c, 0, 65, 79
2, 3549, Note_on_c, 0, 65, 0
2, 3600, Note_on_c, 0, 70, 77
2, 3648, Note_on_c, 0, 70, 0
2, 3648, Note_on_c, 0, 67, 77
2, 3693, Note_on_c, 0, 67, 0
2, 3792, Note_on_c, 0, 70, 77
2, 3840, Note_on_c, 0, 70, 0
2, 3840, Note_on_c, 0, 65, 77
2, 3885, Note_on_c, 0, 65, 0
2, 3984, Note_on_c, 0, 70, 77
2, 4029, Note_on_c, 0, 70, 0
2, 4032, Note_on_c, 0, 69, 79
2, 4077, Note_on_c, 0, 69, 0
2, 4080, Note_on_c, 0, 75, 97
2, 4176, Note_on_c, 0, 75, 0
2, 4176, Note_on_c, 0, 74, 85
2, 4221, Note_on_c, 0, 74, 0
2, 4224, Note_on_c, 0, 67, 85
2, 4269, Note_on_c, 0, 67, 0
2, 4272, Note_on_c, 0, 72, 101
2, 4368, Note_on_c, 0, 72, 0
2, 4368, Note_on_c, 0, 70, 85
2, 4413, Note_on_c, 0, 70, 0
2, 4416, Note_on_c, 0, 67, 85
2, 4461, Note_on_c, 0, 67, 0
2, 4464, Note_on_c, 0, 79, 101
2, 4560, Note_on_c, 0, 79, 0
2, 4560, Note_on_c, 0, 69, 85
2, 4605, Note_on_c, 0, 69, 0
2, 4608, Note_on_c, 0, 72, 77
2, 4656, Note_on_c, 0, 72, 0
2, 4656, Note_on_c, 0, 70, 73
2, 4701, Note_on_c, 0, 70, 0
2, 4752, Note_on_c, 0, 74, 70
2, 4800, Note_on_c, 0, 74, 0
2, 4800, Note_on_c, 0, 77, 70
2, 4845, Note_on_c, 0, 77, 0
2, 4944, Note_on_c, 0, 68, 70
2, 4992, Note_on_c, 0, 68, 0
2, 4992, Note_on_c, 0, 67, 70
2, 5037, Note_on_c, 0, 67, 0
2, 5136, Note_on_c, 0, 70, 70
2, 5184, Note_on_c, 0, 70, 0
2, 5184, Note_on_c, 0, 72, 70
2, 5229, Note_on_c, 0, 72, 0
2, 5328, Note_on_c, 0, 63, 70
2, 5376, Note_on_c, 0, 63, 0
2, 5376, Note_on_c, 0, 62, 70
2, 5421, Note_on_c, 0, 62, 0
2, 5520, Note_on_c, 0, 58, 70
2, 5565, Note_on_c, 0, 58, 0
2, 5568, Note_on_c, 0, 60, 70
2, 5613, Note_on_c, 0, 60, 0
2, 5616, Note_on_c, 0, 65, 86
2, 5712, Note_on_c, 0, 65, 0
2, 5712, Note_on_c, 0, 63, 71
2, 5757, Note_on_c, 0, 63, 0
2, 5760, Note_on_c, 0, 62, 72
2, 5805, Note_on_c, 0, 62, 0
2, 5808, Note_on_c, 0, 68, 88
2, 5904, Note_on_c, 0, 68, 0
2, 5904, Note_on_c, 0, 67, 73
2, 5949, Note_on_c, 0, 67, 0
2, 5952, Note_on_c, 0, 65, 73
2, 5997, Note_on_c, 0, 65, 0
2, 6000, Note_on_c, 0, 72, 90
2, 6096, Note_on_c, 0, 72, 0
2, 6096, Note_on_c, 0, 70, 74
2, 6141, Note_on_c, 0, 70, 0
2, 6144, Note_on_c, 0, 68, 75
2, 6189, Note_on_c, 0, 68, 0
2, 6192, Note_on_c, 0, 80, 91
2, 6288, Note_on_c, 0, 80, 0
2, 6288, Note_on_c, 0, 79, 76
2, 6381, Note_on_c, 0, 79, 0
2, 6384, Note_on_c, 0, 77, 75
2, 6429, Note_on_c, 0, 77, 0
2, 6432, Note_on_c, 0, 80, 73
2, 6477, Note_on_c, 0, 80, 0
2, 6480, Note_on_c, 0, 74, 71
2, 6525, Note_on_c, 0, 74, 0
2, 6528, Note_on_c, 0, 77, 70
2, 6576, Note_on_c, 0, 77, 0
2, 6576, Note_on_c, 0, 75, 70
2, 6621, Note_on_c, 0, 75, 0
2, 6672, Note_on_c, 0, 74, 70
2, 6717, Note_on_c, 0, 74, 0
2, 6720, Note_on_c, 0, 77, 70
2, 6765, Note_on_c, 0, 77, 0
2, 6864, Note_on_c, 0, 68, 70
2, 6912, Note_on_c, 0, 68, 0
2, 6912, Note_on_c, 0, 67, 70
2, 6957, Note_on_c, 0, 67, 0
2, 7056, Note_on_c, 0, 70, 70
2, 7104, Note_on_c, 0, 70, 0
2, 7104, Note_on_c, 0, 72, 70
2, 7149, Note_on_c, 0, 72, 0
2, 7248, Note_on_c, 0, 63, 70
2, 7296, Note_on_c, 0, 63, 0
2, 7296, Note_on_c, 0, 62, 70
2, 7341, Note_on_c, 0, 62, 0
2, 7440, Note_on_c, 0, 58, 70
2, 7485, Note_on_c, 0, 58, 0
2, 7488, Note_on_c, 0, 60, 70
2, 7533, Note_on_c, 0, 60, 0
2, 7536, Note_on_c, 0, 65, 86
2, 7632, Note_on_c, 0, 65, 0
2, 7632, Note_on_c, 0, 63, 71
2, 7677, Note_on_c, 0, 63, 0
2, 7680, Note_on_c, 0, 62, 72
2, 7725, Note_on_c, 0, 62, 0
2, 7728, Note_on_c, 0, 68, 88
2, 7824, Note_on_c, 0, 68, 0
2, 7824, Note_on_c, 0, 67, 73
2, 7869, Note_on_c, 0, 67, 0
2, 7872, Note_on_c, 0, 65, 73
2, 7917, Note_on_c, 0, 65, 0
2, 7920, Note_on_c, 0, 72, 90
2, 8016, Note_on_c, 0, 72, 0
2, 8016, Note_on_c, 0, 70, 74
2, 8061, Note_on_c, 0, 70, 0
2, 8064, Note_on_c, 0, 68, 75
2, 8109, Note_on_c, 0, 68, 0
2, 8112, Note_on_c, 0, 80, 91
2, 8208, Note_on_c, 0, 80, 0
2, 8208, Note_on_c, 0, 79, 76
2, 8301, Note_on_c, 0, 79, 0
2, 8304, Note_on_c, 0, 77, 75
2, 8349, Note_on_c, 0, 77, 0
2, 8352, Note_on_c, 0, 80, 73
2, 8397, Note_on_c, 0, 80, 0
2, 8400, Note_on_c, 0, 74, 71
2, 8445, Note_on_c, 0, 74, 0
2, 8448, Note_on_c, 0, 77, 70
2, 8496, Note_on_c, 0, 77, 0
2, 8496, Note_on_c, 0, 75, 70
2, 8541, Note_on_c, 0, 75, 0
2, 8592, Note_on_c, 0, 70, 70
2, 8612, Note_on_c, 0, 70, 0
2, 8640, Note_on_c, 0, 75, 70
2, 8663, Note_on_c, 0, 75, 0
2, 8664, Note_on_c, 0, 70, 70
2, 8687, Note_on_c, 0, 70, 0
2, 8688, Note_on_c, 0, 67, 70
2, 8711, Note_on_c, 0, 67, 0
2, 8712, Note_on_c, 0, 63, 70
2, 8735, Note_on_c, 0, 63, 0
2, 8784, Note_on_c, 0, 67, 70
2, 8804, Note_on_c, 0, 67, 0
2, 8832, Note_on_c, 0, 70, 70
2, 8855, Note_on_c, 0, 70, 0
2, 8856, Note_on_c, 0, 68, 70
2, 8879, Note_on_c, 0, 68, 0
2, 8880, Note_on_c, 0, 65, 70
2, 8903, Note_on_c, 0, 65, 0
2, 8904, Note_on_c, 0, 62, 70
2, 8927, Note_on_c, 0, 62, 0
2, 8976, Note_on_c, 0, 70, 70
2, 8996, Note_on_c, 0, 70, 0
2, 9048, Note_on_c, 0, 75, 85
2, 9071, Note_on_c, 0, 75, 0
2, 9072, Note_on_c, 0, 80, 85
2, 9095, Note_on_c, 0, 80, 0
2, 9096, Note_on_c, 0, 87, 85
2, 9119, Note_on_c, 0, 87, 0
2, 9120, Note_on_c, 0, 80, 85
2, 9165, Note_on_c, 0, 80, 0
2, 9168, Note_on_c, 0, 79, 85
2, 9213, Note_on_c, 0, 79, 0
2, 9240, Note_on_c, 0, 72, 85
2, 9263, Note_on_c, 0, 72, 0
2, 9264, Note_on_c, 0, 77, 85
2, 9287, Note_on_c, 0, 77, 0
2, 9288, Note_on_c, 0, 84, 85
2, 9311, Note_on_c, 0, 84, 0
2, 9312, Note_on_c, 0, 77, 85
2, 9357, Note_on_c, 0, 77, 0
2, 9360, Note_on_c, 0, 75, 85
2, 9405, Note_on_c, 0, 75, 0
2, 9432, Note_on_c, 0, 68, 85
2, 9455, Note_on_c, 0, 68, 0
2, 9456, Note_on_c, 0, 74, 85
2, 9479, Note_on_c, 0, 74, 0
2, 9480, Note_on_c, 0, 80, 85
2, 9503, Note_on_c, 0, 80, 0
2, 9504, Note_on_c, 0, 74, 85
2, 9549, Note_on_c, 0, 74, 0
2, 9552, Note_on_c, 0, 75, 83
2, 9597, Note_on_c, 0, 75, 0
2, 9600, Note_on_c, 0, 76, 81
2, 9648, Note_on_c, 0, 76, 0
2, 9648, Note_on_c, 0, 77, 79
2, 9693, Note_on_c, 0, 77, 0
2, 9744, Note_on_c, 0, 70, 77
2, 9789, Note_on_c, 0, 70, 0
2, 9792, Note_on_c, 0, 75, 77
2, 9815, Note_on_c, 0, 75, 0
2, 9816, Note_on_c, 0, 70, 77
2, 9839, Note_on_c, 0, 70, 0
2, 9840, Note_on_c, 0, 67, 77
2, 9863, Note_on_c, 0, 67, 0
2, 9864, Note_on_c, 0, 63, 77
2, 9887, Note_on_c, 0, 63, 0
2, 9936, Note_on_c, 0, 67, 77
2, 9981, Note_on_c, 0, 67, 0
2, 9984, Note_on_c, 0, 70, 77
2, 10007, Note_on_c, 0, 70, 0
2, 10008, Note_on_c, 0, 68, 77
2, 10031, Note_on_c, 0, 68, 0
2, 10032, Note_on_c, 0, 65, 77
2, 10055, Note_on_c, 0, 65, 0
2, 10056, Note_on_c, 0, 62, 77
2, 10079, Note_on_c, 0, 62, 0
2, 10128, Note_on_c, 0, 70, 77
2, 10173, Note_on_c, 0, 70, 0
2, 10176, Note_on_c, 0, 75, 77
2, 10199, Note_on_c, 0, 75, 0
2, 10200, Note_on_c, 0, 69, 77
2, 10223, Note_on_c, 0, 69, 0
2, 10224, Note_on_c, 0, 63, 77
2, 10247, Note_on_c, 0, 63, 0
2, 10248, Note_on_c, 0, 60, 77
2, 10271, Note_on_c, 0, 60, 0
2, 10320, Note_on_c, 0, 74, 77
2, 10320, Note_on_c, 0, 70, 77
2, 10340, Note_on_c, 0, 74, 0
2, 10340, Note_on_c, 0, 70, 0
2, 10368, Note_on_c, 0, 75, 77
2, 10391, Note_on_c, 0, 75, 0
2, 10392, Note_on_c, 0, 69, 77
2, 10415, Note_on_c, 0, 69, 0
2, 10416, Note_on_c, 0, 63, 77
2, 10439, Note_on_c, 0, 63, 0
2, 10440, Note_on_c, 0, 60, 77
2, 10463, Note_on_c, 0, 60, 0
2, 10512, Note_on_c, 0, 74, 77
2, 10512, Note_on_c, 0, 70, 77
2, 10532, Note_on_c, 0, 74, 0
2, 10532, Note_on_c, 0, 70, 0
2, 10608, Note_on_c, 0, 67, 77
2, 10631, Note_on_c, 0, 67, 0
2, 10632, Note_on_c, 0, 72, 77
2, 10655, Note_on_c, 0, 72, 0
2, 10656, Note_on_c, 0, 79, 77
2, 10676, Note_on_c, 0, 79, 0
2, 10704, Note_on_c, 0, 69, 77
2, 10704, Note_on_c, 0, 63, 77
2, 10749, Note_on_c, 0, 69, 0
2, 10749, Note_on_c, 0, 63, 0
2, 10752, Note_on_c, 0, 70, 77
2, 10752, Note_on_c, 0, 62, 77
2, 10841, Note_on_c, 0, 70, 0
2, 10841, Note_on_c, 0, 62, 0
2, 10896, Note_on_c, 0, 70, 77
2, 10916, Note_on_c, 0, 70, 0
2, 10944, Note_on_c, 0, 75, 70
2, 10967, Note_on_c, 0, 75, 0
2, 10968, Note_on_c, 0, 70, 70
2, 10991, Note_on_c, 0, 70, 0
2, 10992, Note_on_c, 0, 67, 70
2, 11015, Note_on_c, 0, 67, 0
2, 11016, Note_on_c, 0, 63, 70
2, 11039, Note_on_c, 0, 63, 0
2, 11088, Note_on_c, 0, 67, 70
2, 11108, Note_on_c, 0, 67, 0
2, 11136, Note_on_c, 0, 70, 70
2, 11159, Note_on_c, 0, 70, 0
2, 11160, Note_on_c, 0, 68, 70
2, 11183, Note_on_c, 0, 68, 0
2, 11184, Note_on_c, 0, 65, 70
2, 11207, Note_on_c, 0, 65, 0
2, 11208, Note_on_c, 0, 62, 70
2, 11231, Note_on_c, 0, 62, 0
2, 11280, Note_on_c, 0, 70, 70
2, 11300, Note_on_c, 0, 70, 0
2, 11352, Note_on_c, 0, 75, 85
2, 11375, Note_on_c, 0, 75, 0
2, 11376, Note_on_c, 0, 80, 85
2, 11399, Note_on_c, 0, 80, 0
2, 11400, Note_on_c, 0, 87, 85
2, 11423, Note_on_c, 0, 87, 0
2, 11424, Note_on_c, 0, 80, 85
2, 11469, Note_on_c, 0, 80, 0
2, 11472, Note_on_c, 0, 79, 85
2, 11517, Note_on_c, 0, 79, 0
2, 11544, Note_on_c, 0, 72, 85
2, 11567, Note_on_c, 0, 72, 0
2, 11568, Note_on_c, 0, 77, 85
2, 11591, Note_on_c, 0, 77, 0
2, 11592, Note_on_c, 0, 84, 85
2, 11615, Note_on_c, 0, 84, 0
2, 11616, Note_on_c, 0, 77, 85
2, 11661, Note_on_c, 0, 77, 0
2, 11664, Note_on_c, 0, 75, 85
2, 11709, Note_on_c, 0, 75, 0
2, 11736, Note_on_c, 0, 68, 85
2, 11759, Note_on_c, 0, 68, 0
2, 11760, Note_on_c, 0, 74, 85
2, 11783, Note_on_c, 0, 74, 0
2, 11784, Note_on_c, 0, 80, 85
2, 11807, Note_on_c, 0, 80, 0
2, 11808, Note_on_c, 0, 74, 85
2, 11853, Note_on_c, 0, 74, 0
2, 11856, Note_on_c, 0, 75, 83
2, 11901, Note_on_c, 0, 75, 0
2, 11904, Note_on_c, 0, 76, 81
2, 11952, Note_on_c, 0, 76, 0
2, 11952, Note_on_c, 0, 77, 79
2, 11997, Note_on_c, 0, 77, 0
2, 12048, Note_on_c, 0, 70, 77
2, 12093, Note_on_c, 0, 70, 0
2, 12096, Note_on_c, 0, 75, 77
2, 12119, Note_on_c, 0, 75, 0
2, 12120, Note_on_c, 0, 70, 77
2, 12143, Note_on_c, 0, 70, 0
2, 12144, Note_on_c, 0, 67, 77
2, 12167, Note_on_c, 0, 67, 0
2, 12168, Note_on_c, 0, 63, 77
2, 12191, Note_on_c, 0, 63, 0
2, 12240, Note_on_c, 0, 67, 77
2, 12285, Note_on_c, 0, 67, 0
2, 12288, Note_on_c, 0, 70, 77
2, 12311, Note_on_c, 0, 70, 0
2, 12312, Note_on_c, 0, 68, 77
2, 12335, Note_on_c, 0, 68, 0
2, 12336, Note_on_c, 0, 65, 77
2, 12359, Note_on_c, 0, 65, 0
2, 12360, Note_on_c, 0, 62, 77
2, 12383, Note_on_c, 0, 62, 0
2, 12432, Note_on_c, 0, 70, 77
2, 12477, Note_on_c, 0, 70, 0
2, 12480, Note_on_c, 0, 75, 77
2, 12503, Note_on_c, 0, 75, 0
2, 12504, Note_on_c, 0, 69, 77
2, 12527, Note_on_c, 0, 69, 0
2, 12528, Note_on_c, 0, 63, 77
2, 12551, Note_on_c, 0, 63, 0
2, 12552, Note_on_c, 0, 60, 77
2, 12575, Note_on_c, 0, 60, 0
2, 12624, Note_on_c, 0, 74, 77
2, 12624, Note_on_c, 0, 70, 77
2, 12644, Note_on_c, 0, 74, 0
2, 12644, Note_on_c, 0, 70, 0
2, 12672, Note_on_c, 0, 75, 77
2, 12695, Note_on_c, 0, 75, 0
2, 12696, Note_on_c, 0, 69, 77
2, 12719, Note_on_c, 0, 69, 0
2, 12720, Note_on_c, 0, 63, 77
2, 12743, Note_on_c, 0, 63, 0
2, 12744, Note_on_c, 0, 60, 77
2, 12767, Note_on_c, 0, 60, 0
2, 12816, Note_on_c, 0, 74, 77
2, 12816, Note_on_c, 0, 70, 77
2, 12836, Note_on_c, 0, 74, 0
2, 12836, Note_on_c, 0, 70, 0
2, 12912, Note_on_c, 0, 67, 77
2, 12935, Note_on_c, 0, 67, 0
2, 12936, Note_on_c, 0, 72, 77
2, 12959, Note_on_c, 0, 72, 0
2, 12960, Note_on_c, 0, 79, 77
2, 12980, Note_on_c, 0, 79, 0
2, 13008, Note_on_c, 0, 69, 77
2, 13008, Note_on_c, 0, 63, 77
2, 13053, Note_on_c, 0, 69, 0
2, 13053, Note_on_c, 0, 63, 0
2, 13056, Note_on_c, 0, 70, 77
2, 13056, Note_on_c, 0, 62, 77
2, 13145, Note_on_c, 0, 70, 0
2, 13145, Note_on_c, 0, 62, 0
2, 13200, Note_on_c, 0, 74, 77
2, 13223, Note_on_c, 0, 74, 0
2, 13224, Note_on_c, 0, 68, 77
2, 13247, Note_on_c, 0, 68, 0
2, 13248, Note_on_c, 0, 77, 77
2, 13271, Note_on_c, 0, 77, 0
2, 13272, Note_on_c, 0, 74, 77
2, 13295, Note_on_c, 0, 74, 0
2, 13296, Note_on_c, 0, 68, 77
2, 13319, Note_on_c, 0, 68, 0
2, 13320, Note_on_c, 0, 65, 77
2, 13343, Note_on_c, 0, 65, 0
2, 13392, Note_on_c, 0, 68, 77
2, 13415, Note_on_c, 0, 68, 0
2, 13416, Note_on_c, 0, 65, 77
2, 13439, Note_on_c, 0, 65, 0
2, 13440, Note_on_c, 0, 67, 77
2, 13463, Note_on_c, 0, 67, 0
2, 13464, Note_on_c, 0, 63, 77
2, 13487, Note_on_c, 0, 63, 0
2, 13488, Note_on_c, 0, 58, 77
2, 13511, Note_on_c, 0, 58, 0
2, 13512, Note_on_c, 0, 55, 77
2, 13535, Note_on_c, 0, 55, 0
2, 13584, Note_on_c, 0, 70, 77
2, 13607, Note_on_c, 0, 70, 0
2, 13608, Note_on_c, 0, 67, 77
2, 13631, Note_on_c, 0, 67, 0
2, 13632, Note_on_c, 0, 72, 77
2, 13655, Note_on_c, 0, 72, 0
2, 13656, Note_on_c, 0, 68, 77
2, 13679, Note_on_c, 0, 68, 0
2, 13680, Note_on_c, 0, 65, 77
2, 13703, Note_on_c, 0, 65, 0
2, 13704, Note_on_c, 0, 60, 77
2, 13727, Note_on_c, 0, 60, 0
2, 13776, Note_on_c, 0, 63, 77
2, 13799, Note_on_c, 0, 63, 0
2, 13800, Note_on_c, 0, 60, 77
2, 13823, Note_on_c, 0, 60, 0
2, 13824, Note_on_c, 0, 62, 77
2, 13847, Note_on_c, 0, 62, 0
2, 13848, Note_on_c, 0, 58, 77
2, 13871, Note_on_c, 0, 58, 0
2, 14040, Note_on_c, 0, 60, 77
2, 14063, Note_on_c, 0, 60, 0
2, 14064, Note_on_c, 0, 65, 77
2, 14087, Note_on_c, 0, 65, 0
2, 14088, Note_on_c, 0, 72, 77
2, 14111, Note_on_c, 0, 72, 0
2, 14112, Note_on_c, 0, 62, 77
2, 14160, Note_on_c, 0, 62, 0
2, 14160, Note_on_c, 0, 63, 78
2, 14205, Note_on_c, 0, 63, 0
2, 14232, Note_on_c, 0, 63, 78
2, 14255, Note_on_c, 0, 63, 0
2, 14256, Note_on_c, 0, 68, 78
2, 14279, Note_on_c, 0, 68, 0
2, 14280, Note_on_c, 0, 75, 79
2, 14303, Note_on_c, 0, 75, 0
2, 14304, Note_on_c, 0, 68, 79
2, 14352, Note_on_c, 0, 68, 0
2, 14352, Note_on_c, 0, 67, 79
2, 14397, Note_on_c, 0, 67, 0
2, 14424, Note_on_c, 0, 72, 80
2, 14447, Note_on_c, 0, 72, 0
2, 14448, Note_on_c, 0, 77, 80
2, 14471, Note_on_c, 0, 77, 0
2, 14472, Note_on_c, 0, 84, 80
2, 14495, Note_on_c, 0, 84, 0
2, 14496, Note_on_c, 0, 74, 81
2, 14544, Note_on_c, 0, 74, 0
2, 14544, Note_on_c, 0, 75, 81
2, 14589, Note_on_c, 0, 75, 0
2, 14616, Note_on_c, 0, 68, 82
2, 14639, Note_on_c, 0, 68, 0
2, 14640, Note_on_c, 0, 77, 82
2, 14663, Note_on_c, 0, 77, 0
2, 14664, Note_on_c, 0, 80, 82
2, 14687, Note_on_c, 0, 80, 0
2, 14688, Note_on_c, 0, 78, 82
2, 14736, Note_on_c, 0, 78, 0
2, 14736, Note_on_c, 0, 79, 83
2, 14781, Note_on_c, 0, 79, 0
2, 14784, Note_on_c, 0, 56, 83
2, 14807, Note_on_c, 0, 56, 0
2, 14808, Note_on_c, 0, 65, 83
2, 14831, Note_on_c, 0, 65, 0
2, 14832, Note_on_c, 0, 72, 84
2, 14855, Note_on_c, 0, 72, 0
2, 14856, Note_on_c, 0, 77, 84
2, 14879, Note_on_c, 0, 77, 0
2, 14880, Note_on_c, 0, 84, 84
2, 14900, Note_on_c, 0, 84, 0
2, 14928, Note_on_c, 0, 74, 77
2, 14928, Note_on_c, 0, 68, 77
2, 14973, Note_on_c, 0, 74, 0
2, 14973, Note_on_c, 0, 68, 0
2, 14976, Note_on_c, 0, 75, 77
2, 14976, Note_on_c, 0, 67, 77
2, 15065, Note_on_c, 0, 75, 0
2, 15065, Note_on_c, 0, 67, 0
2, 15120, Note_on_c, 0, 74, 77
2, 15143, Note_on_c, 0, 74, 0
2, 15144, Note_on_c, 0, 68, 77
2, 15167, Note_on_c, 0, 68, 0
2, 15168, Note_on_c, 0, 77, 77
2, 15191, Note_on_c, 0, 77, 0
2, 15192, Note_on_c, 0, 74, 77
2, 15215, Note_on_c, 0, 74, 0
2, 15216, Note_on_c, 0, 68, 77
2, 15239, Note_on_c, 0, 68, 0
2, 15240, Note_on_c, 0, 65, 77
2, 15263, Note_on_c, 0, 65, 0
2, 15312, Note_on_c, 0, 68, 77
2, 15335, Note_on_c, 0, 68, 0
2, 15336, Note_on_c, 0, 65, 77
2, 15359, Note_on_c, 0, 65, 0
2, 15360, Note_on_c, 0, 67, 77
2, 15383, Note_on_c, 0, 67, 0
2, 15384, Note_on_c, 0, 63, 77
2, 15407, Note_on_c, 0, 63, 0
2, 15408, Note_on_c, 0, 58, 77
2, 15431, Note_on_c, 0, 58, 0
2, 15432, Note_on_c, 0, 55, 77
2, 15455, Note_on_c, 0, 55, 0
2, 15504, Note_on_c, 0, 70, 77
2, 15527, Note_on_c, 0, 70, 0
2, 15528, Note_on_c, 0, 67, 77
2, 15551, Note_on_c, 0, 67, 0
2, 15552, Note_on_c, 0, 72, 77
2, 15575, Note_on_c, 0, 72, 0
2, 15576, Note_on_c, 0, 68, 77
2, 15599, Note_on_c, 0, 68, 0
2, 15600, Note_on_c, 0, 65, 77
2, 15623, Note_on_c, 0, 65, 0
2, 15624, Note_on_c, 0, 60, 77
2, 15647, Note_on_c, 0, 60, 0
2, 15696, Note_on_c, 0, 63, 77
2, 15719, Note_on_c, 0, 63, 0
2, 15720, Note_on_c, 0, 60, 77
2, 15743, Note_on_c, 0, 60, 0
2, 15744, Note_on_c, 0, 62, 77
2, 15767, Note_on_c, 0, 62, 0
2, 15768, Note_on_c, 0, 58, 77
2, 15791, Note_on_c, 0, 58, 0
2, 15960, Note_on_c, 0, 60, 77
2, 15983, Note_on_c, 0, 60, 0
2, 15984, Note_on_c, 0, 65, 77
2, 16007, Note_on_c, 0, 65, 0
2, 16008, Note_on_c, 0, 72, 77
2, 16031, Note_on_c, 0, 72, 0
2, 16032, Note_on_c, 0, 62, 77
2, 16080, Note_on_c, 0, 62, 0
2, 16080, Note_on_c, 0, 63, 78
2, 16125, Note_on_c, 0, 63, 0
2, 16152, Note_on_c, 0, 63, 78
2, 16175, Note_on_c, 0, 63, 0
2, 16176, Note_on_c, 0, 68, 78
2, 16199, Note_on_c, 0, 68, 0
2, 16200, Note_on_c, 0, 75, 79
2, 16223, Note_on_c, 0, 75, 0
2, 16224, Note_on_c, 0, 68, 79
2, 16272, Note_on_c, 0, 68, 0
2, 16272, Note_on_c, 0, 67, 79
2, 16317, Note_on_c, 0, 67, 0
2, 16344, Note_on_c, 0, 72, 80
2, 16367, Note_on_c, 0, 72, 0
2, 16368, Note_on_c, 0, 77, 80
2, 16391, Note_on_c, 0, 77, 0
2, 16392, Note_on_c, 0, 84, 80
2, 16415, Note_on_c, 0, 84, 0
2, 16416, Note_on_c, 0, 74, 81
2, 16464, Note_on_c, 0, 74, 0
2, 16464, Note_on_c, 0, 75, 81
2, 16509, Note_on_c, 0, 75, 0
2, 16536, Note_on_c, 0, 68, 82
2, 16559, Note_on_c, 0, 68, 0
2, 16560, Note_on_c, 0, 77, 82
2, 16583, Note_on_c, 0, 77, 0
2, 16584, Note_on_c, 0, 80, 82
2, 16607, Note_on_c, 0, 80, 0
2, 16608, Note_on_c, 0, 78, 82
2, 16656, Note_on_c, 0, 78, 0
2, 16656, Note_on_c, 0, 79, 83
2, 16701, Note_on_c, 0, 79, 0
2, 16704, Note_on_c, 0, 56, 83
2, 16727, Note_on_c, 0, 56, 0
2, 16728, Note_on_c, 0, 65, 83
2, 16751, Note_on_c, 0, 65, 0
2, 16752, Note_on_c, 0, 72, 84
2, 16775, Note_on_c, 0, 72, 0
2, 16776, Note_on_c, 0, 77, 84
2, 16799, Note_on_c, 0, 77, 0
2, 16800, Note_on_c, 0, 84, 84
2, 16820, Note_on_c, 0, 84, 0
2, 16848, Note_on_c, 0, 74, 77
2, 16848, Note_on_c, 0, 68, 77
2, 16893, Note_on_c, 0, 74, 0
2, 16893, Note_on_c, 0, 68, 0
2, 16896, Note_on_c, 0, 75, 77
2, 16896, Note_on_c, 0, 67, 77
2, 16985, Note_on_c, 0, 75, 0
2, 16985, Note_on_c, 0, 67, 0
2, 17040, Note_on_c, 0, 82, 77
2, 17055, Note_on_c, 0, 82, 0
2, 17056, Note_on_c, 0, 84, 77
2, 17071, Note_on_c, 0, 84, 0
2, 17072, Note_on_c, 0, 82, 77
2, 17087, Note_on_c, 0, 82, 0
2, 17088, Note_on_c, 0, 79, 77
2, 17133, Note_on_c, 0, 79, 0
2, 17232, Note_on_c, 0, 82, 77
2, 17247, Note_on_c, 0, 82, 0
2, 17248, Note_on_c, 0, 84, 77
2, 17263, Note_on_c, 0, 84, 0
2, 17264, Note_on_c, 0, 82, 77
2, 17279, Note_on_c, 0, 82, 0
2, 17280, Note_on_c, 0, 77, 77
2, 17325, Note_on_c, 0, 77, 0
2, 17424, Note_on_c, 0, 82, 77
2, 17439, Note_on_c, 0, 82, 0
2, 17440, Note_on_c, 0, 84, 77
2, 17455, Note_on_c, 0, 84, 0
2, 17456, Note_on_c, 0, 82, 77
2, 17471, Note_on_c, 0, 82, 0
2, 17472, Note_on_c, 0, 87, 77
2, 17517, Note_on_c, 0, 87, 0
2, 17520, Note_on_c, 0, 80, 77
2, 17565, Note_on_c, 0, 80, 0
2, 17568, Note_on_c, 0, 82, 77
2, 17586, Note_on_c, 0, 82, 0
2, 17586, Note_on_c, 0, 80, 77
2, 17613, Note_on_c, 0, 80, 0
2, 17616, Note_on_c, 0, 79, 77
2, 17661, Note_on_c, 0, 79, 0
2, 17664, Note_on_c, 0, 84, 78
2, 17709, Note_on_c, 0, 84, 0
2, 17712, Note_on_c, 0, 77, 79
2, 17757, Note_on_c, 0, 77, 0
2, 17760, Note_on_c, 0, 79, 80
2, 17778, Note_on_c, 0, 79, 0
2, 17778, Note_on_c, 0, 77, 80
2, 17805, Note_on_c, 0, 77, 0
2, 17808, Note_on_c, 0, 75, 81
2, 17853, Note_on_c, 0, 75, 0
2, 17856, Note_on_c, 0, 74, 82
2, 17901, Note_on_c, 0, 74, 0
2, 17904, Note_on_c, 0, 80, 99
2, 17904, Note_on_c, 0, 77, 99
2, 18000, Note_on_c, 0, 80, 0
2, 18000, Note_on_c, 0, 77, 0
2, 18000, Note_on_c, 0, 79, 85
2, 18000, Note_on_c, 0, 75, 85
2, 18093, Note_on_c, 0, 79, 0
2, 18093, Note_on_c, 0, 75, 0
2, 18096, Note_on_c, 0, 77, 79
2, 18096, Note_on_c, 0, 74, 79
2, 18141, Note_on_c, 0, 77, 0
2, 18141, Note_on_c, 0, 74, 0
2, 18192, Note_on_c, 0, 58, 77
2, 18207, Note_on_c, 0, 58, 0
2, 18208, Note_on_c, 0, 60, 77
2, 18223, Note_on_c, 0, 60, 0
2, 18224, Note_on_c, 0, 58, 77
2, 18239, Note_on_c, 0, 58, 0
2, 18240, Note_on_c, 0, 55, 77
2, 18329, Note_on_c, 0, 55, 0
2, 18384, Note_on_c, 0, 58, 77
2, 18399, Note_on_c, 0, 58, 0
2, 18400, Note_on_c, 0, 60, 77
2, 18415, Note_on_c, 0, 60, 0
2, 18416, Note_on_c, 0, 58, 77
2, 18431, Note_on_c, 0, 58, 0
2, 18432, Note_on_c, 0, 53, 77
2, 18521, Note_on_c, 0, 53, 0
2, 18576, Note_on_c, 0, 58, 77
2, 18591, Note_on_c, 0, 58, 0
2, 18592, Note_on_c, 0, 60, 77
2, 18607, Note_on_c, 0, 60, 0
2, 18608, Note_on_c, 0, 58, 77
2, 18623, Note_on_c, 0, 58, 0
2, 18624, Note_on_c, 0, 57, 77
2, 18669, Note_on_c, 0, 57, 0
2, 18672, Note_on_c, 0, 63, 94
2, 18768, Note_on_c, 0, 63, 0
2, 18768, Note_on_c, 0, 62, 80
2, 18813, Note_on_c, 0, 62, 0
2, 18816, Note_on_c, 0, 58, 81
2, 18861, Note_on_c, 0, 58, 0
2, 18864, Note_on_c, 0, 67, 98
2, 18960, Note_on_c, 0, 67, 0
2, 18960, Note_on_c, 0, 65, 85
2, 19005, Note_on_c, 0, 65, 0
2, 19008, Note_on_c, 0, 65, 83
2, 19056, Note_on_c, 0, 65, 0
2, 19056, Note_on_c, 0, 63, 81
2, 19101, Note_on_c, 0, 63, 0
2, 19104, Note_on_c, 0, 62, 80
2, 19152, Note_on_c, 0, 62, 0
2, 19152, Note_on_c, 0, 60, 78
2, 19197, Note_on_c, 0, 60, 0
2, 19200, Note_on_c, 0, 61, 93
2, 19248, Note_on_c, 0, 61, 0
2, 19248, Note_on_c, 0, 62, 77
2, 19293, Note_on_c, 0, 62, 0
2, 19392, Note_on_c, 0, 79, 77
2, 19437, Note_on_c, 0, 79, 0
2, 19536, Note_on_c, 0, 82, 77
2, 19551, Note_on_c, 0, 82, 0
2, 19552, Note_on_c, 0, 84, 77
2, 19567, Note_on_c, 0, 84, 0
2, 19568, Note_on_c, 0, 82, 77
2, 19583, Note_on_c, 0, 82, 0
2, 19584, Note_on_c, 0, 77, 77
2, 19629, Note_on_c, 0, 77, 0
2, 19728, Note_on_c, 0, 82, 77
2, 19743, Note_on_c, 0, 82, 0
2, 19744, Note_on_c, 0, 84, 77
2, 19759, Note_on_c, 0, 84, 0
2, 19760, Note_on_c, 0, 82, 77
2, 19775, Note_on_c, 0, 82, 0
2, 19776, Note_on_c, 0, 87, 77
2, 19821, Note_on_c, 0, 87, 0
2, 19824, Note_on_c, 0, 80, 77
2, 19869, Note_on_c, 0, 80, 0
2, 19872, Note_on_c, 0, 82, 77
2, 19890, Note_on_c, 0, 82, 0
2, 19890, Note_on_c, 0, 80, 77
2, 19917, Note_on_c, 0, 80, 0
2, 19920, Note_on_c, 0, 79, 77
2, 19965, Note_on_c, 0, 79, 0
2, 19968, Note_on_c, 0, 84, 78
2, 20013, Note_on_c, 0, 84, 0
2, 20016, Note_on_c, 0, 77, 79
2, 20061, Note_on_c, 0, 77, 0
2, 20064, Note_on_c, 0, 79, 80
2, 20082, Note_on_c, 0, 79, 0
2, 20082, Note_on_c, 0, 77, 80
2, 20109, Note_on_c, 0, 77, 0
2, 20112, Note_on_c, 0, 75, 81
2, 20157, Note_on_c, 0, 75, 0
2, 20160, Note_on_c, 0, 74, 82
2, 20205, Note_on_c, 0, 74, 0
2, 20208, Note_on_c, 0, 80, 99
2, 20208, Note_on_c, 0, 77, 99
2, 20304, Note_on_c, 0, 80, 0
2, 20304, Note_on_c, 0, 77, 0
2, 20304, Note_on_c, 0, 79, 85
2, 20304, Note_on_c, 0, 75, 85
2, 20397, Note_on_c, 0, 79, 0
2, 20397, Note_on_c, 0, 75, 0
2, 20400, Note_on_c, 0, 77, 79
2, 20400, Note_on_c, 0, 74, 79
2, 20445, Note_on_c, 0, 77, 0
2, 20445, Note_on_c, 0, 74, 0
2, 20496, Note_on_c, 0, 58, 77
2, 20511, Note_on_c, 0, 58, 0
2, 20512, Note_on_c, 0, 60, 77
2, 20527, Note_on_c, 0, 60, 0
2, 20528, Note_on_c, 0, 58, 77
2, 20543, Note_on_c, 0, 58, 0
2, 20544, Note_on_c, 0, 55, 77
2, 20633, Note_on_c, 0, 55, 0
2, 20688, Note_on_c, 0, 58, 77
2, 20703, Note_on_c, 0, 58, 0
2, 20704, Note_on_c, 0, 60, 77
2, 20719, Note_on_c, 0, 60, 0
2, 20720, Note_on_c, 0, 58, 77
2, 20735, Note_on_c, 0, 58, 0
2, 20736, Note_on_c, 0, 53, 77
2, 20825, Note_on_c, 0, 53, 0
2, 20880, Note_on_c, 0, 58, 77
2, 20895, Note_on_c, 0, 58, 0
2, 20896, Note_on_c, 0, 60, 77
2, 20911, Note_on_c, 0, 60, 0
2, 20912, Note_on_c, 0, 58, 77
2, 20927, Note_on_c, 0, 58, 0
2, 20928, Note_on_c, 0, 57, 77
2, 20973, Note_on_c, 0, 57, 0
2, 20976, Note_on_c, 0, 63, 94
2, 21072, Note_on_c, 0, 63, 0
2, 21072, Note_on_c, 0, 62, 80
2, 21117, Note_on_c, 0, 62, 0
2, 21120, Note_on_c, 0, 58, 81
2, 21165, Note_on_c, 0, 58, 0
2, 21168, Note_on_c, 0, 67, 98
2, 21264, Note_on_c, 0, 67, 0
2, 21264, Note_on_c, 0, 65, 85
2, 21309, Note_on_c, 0, 65, 0
2, 21312, Note_on_c, 0, 65, 83
2, 21360, Note_on_c, 0, 65, 0
2, 21360, Note_on_c, 0, 63, 81
2, 21405, Note_on_c, 0, 63, 0
2, 21408, Note_on_c, 0, 62, 80
2, 21456, Note_on_c, 0, 62, 0
2, 21456, Note_on_c, 0, 60, 78
2, 21501, Note_on_c, 0, 60, 0
2, 21504, Note_on_c, 0, 61, 93
2, 21552, Note_on_c, 0, 61, 0
2, 21552, Note_on_c, 0, 62, 77
2, 21597, Note_on_c, 0, 62, 0
2, 21648, Note_on_c, 0, 77, 77
2, 21663, Note_on_c, 0, 77, 0
2, 21664, Note_on_c, 0, 79, 77
2, 21679, Note_on_c, 0, 79, 0
2, 21680, Note_on_c, 0, 77, 77
2, 21695, Note_on_c, 0, 77, 0
2, 21696, Note_on_c, 0, 68, 77
2, 21716, Note_on_c, 0, 68, 0
2, 21840, Note_on_c, 0, 77, 77
2, 21855, Note_on_c, 0, 77, 0
2, 21856, Note_on_c, 0, 79, 77
2, 21871, Note_on_c, 0, 79, 0
2, 21872, Note_on_c, 0, 77, 77
2, 21887, Note_on_c, 0, 77, 0
2, 21888, Note_on_c, 0, 67, 77
2, 21908, Note_on_c, 0, 67, 0
2, 22032, Note_on_c, 0, 72, 77
2, 22047, Note_on_c, 0, 72, 0
2, 22048, Note_on_c, 0, 74, 77
2, 22063, Note_on_c, 0, 74, 0
2, 22064, Note_on_c, 0, 72, 77
2, 22079, Note_on_c, 0, 72, 0
2, 22080, Note_on_c, 0, 63, 77
2, 22100, Note_on_c, 0, 63, 0
2, 22224, Note_on_c, 0, 72, 77
2, 22239, Note_on_c, 0, 72, 0
2, 22240, Note_on_c, 0, 74, 77
2, 22255, Note_on_c, 0, 74, 0
2, 22256, Note_on_c, 0, 72, 77
2, 22271, Note_on_c, 0, 72, 0
2, 22272, Note_on_c, 0, 62, 77
2, 22292, Note_on_c, 0, 62, 0
2, 22416, Note_on_c, 0, 58, 77
2, 22464, Note_on_c, 0, 58, 0
2, 22464, Note_on_c, 0, 60, 77
2, 22509, Note_on_c, 0, 60, 0
2, 22512, Note_on_c, 0, 68, 93
2, 22583, Note_on_c, 0, 68, 0
2, 22584, Note_on_c, 0, 67, 78
2, 22607, Note_on_c, 0, 67, 0
2, 22608, Note_on_c, 0, 65, 78
2, 22631, Note_on_c, 0, 65, 0
2, 22632, Note_on_c, 0, 63, 78
2, 22655, Note_on_c, 0, 63, 0
2, 22656, Note_on_c, 0, 62, 79
2, 22701, Note_on_c, 0, 62, 0
2, 22704, Note_on_c, 0, 70, 95
2, 22775, Note_on_c, 0, 70, 0
2, 22776, Note_on_c, 0, 68, 80
2, 22799, Note_on_c, 0, 68, 0
2, 22800, Note_on_c, 0, 67, 80
2, 22823, Note_on_c, 0, 67, 0
2, 22824, Note_on_c, 0, 65, 81
2, 22847, Note_on_c, 0, 65, 0
2, 22848, Note_on_c, 0, 63, 81
2, 22893, Note_on_c, 0, 63, 0
2, 22896, Note_on_c, 0, 72, 97
2, 22967, Note_on_c, 0, 72, 0
2, 22968, Note_on_c, 0, 70, 82
2, 22991, Note_on_c, 0, 70, 0
2, 22992, Note_on_c, 0, 68, 82
2, 23015, Note_on_c, 0, 68, 0
2, 23016, Note_on_c, 0, 67, 83
2, 23039, Note_on_c, 0, 67, 0
2, 23040, Note_on_c, 0, 65, 83
2, 23085, Note_on_c, 0, 65, 0
2, 23088, Note_on_c, 0, 80, 99
2, 23088, Note_on_c, 0, 77, 99
2, 23184, Note_on_c, 0, 80, 0
2, 23184, Note_on_c, 0, 77, 0
2, 23184, Note_on_c, 0, 79, 85
2, 23184, Note_on_c, 0, 75, 85
2, 23229, Note_on_c, 0, 79, 0
2, 23229, Note_on_c, 0, 75, 0
2, 23280, Note_on_c, 0, 77, 81
2, 23280, Note_on_c, 0, 68, 81
2, 23325, Note_on_c, 0, 77, 0
2, 23325, Note_on_c, 0, 68, 0
2, 23328, Note_on_c, 0, 75, 80
2, 23328, Note_on_c, 0, 67, 80
2, 23373, Note_on_c, 0, 75, 0
2, 23373, Note_on_c, 0, 67, 0
2, 23376, Note_on_c, 0, 74, 78
2, 23376, Note_on_c, 0, 65, 78
2, 23421, Note_on_c, 0, 74, 0
2, 23421, Note_on_c, 0, 65, 0
2, 23424, Note_on_c, 0, 75, 77
2, 23424, Note_on_c, 0, 67, 77
2, 23513, Note_on_c, 0, 75, 0
2, 23513, Note_on_c, 0, 67, 0
2, 23568, Note_on_c, 0, 77, 77
2, 23583, Note_on_c, 0, 77, 0
2, 23584, Note_on_c, 0, 79, 77
2, 23599, Note_on_c, 0, 79, 0
2, 23600, Note_on_c, 0, 77, 77
2, 23615, Note_on_c, 0, 77, 0
2, 23616, Note_on_c, 0, 68, 77
2, 23636, Note_on_c, 0, 68, 0
2, 23760, Note_on_c, 0, 77, 77
2, 23775, Note_on_c, 0, 77, 0
2, 23776, Note_on_c, 0, 79, 77
2, 23791, Note_on_c, 0, 79, 0
2, 23792, Note_on_c, 0, 77, 77
2, 23807, Note_on_c, 0, 77, 0
2, 23808, Note_on_c, 0, 67, 77
2, 23828, Note_on_c, 0, 67, 0
2, 23952, Note_on_c, 0, 72, 77
2, 23967, Note_on_c, 0, 72, 0
2, 23968, Note_on_c, 0, 74, 77
2, 23983, Note_on_c, 0, 74, 0
2, 23984, Note_on_c, 0, 72, 77
2, 23999, Note_on_c, 0, 72, 0
2, 24000, Note_on_c, 0, 63, 77
2, 24020, Note_on_c, 0, 63, 0
2, 24144, Note_on_c, 0, 72, 77
2, 24159, Note_on_c, 0, 72, 0
2, 24160, Note_on_c, 0, 74, 77
2, 24175, Note_on_c, 0, 74, 0
2, 24176, Note_on_c, 0, 72, 77
2, 24191, Note_on_c, 0, 72, 0
2, 24192, Note_on_c, 0, 62, 77
2, 24212, Note_on_c, 0, 62, 0
2, 24336, Note_on_c, 0, 58, 77
2, 24384, Note_on_c, 0, 58, 0
2, 24384, Note_on_c, 0, 60, 77
2, 24429, Note_on_c, 0, 60, 0
2, 24432, Note_on_c, 0, 68, 93
2, 24503, Note_on_c, 0, 68, 0
2, 24504, Note_on_c, 0, 67, 78
2, 24527, Note_on_c, 0, 67, 0
2, 24528, Note_on_c, 0, 65, 78
2, 24551, Note_on_c, 0, 65, 0
2, 24552, Note_on_c, 0, 63, 78
2, 24575, Note_on_c, 0, 63, 0
2, 24576, Note_on_c, 0, 62, 79
2, 24621, Note_on_c, 0, 62, 0
2, 24624, Note_on_c, 0, 70, 95
2, 24695, Note_on_c, 0, 70, 0
2, 24696, Note_on_c, 0, 68, 80
2, 24719, Note_on_c, 0, 68, 0
2, 24720, Note_on_c, 0, 67, 80
2, 24743, Note_on_c, 0, 67, 0
2, 24744, Note_on_c, 0, 65, 81
2, 24767, Note_on_c, 0, 65, 0
2, 24768, Note_on_c, 0, 63, 81
2, 24813, Note_on_c, 0, 63, 0
2, 24816, Note_on_c, 0, 72, 97
2, 24887, Note_on_c, 0, 72, 0
2, 24888, Note_on_c, 0, 70, 82
2, 24911, Note_on_c, 0, 70, 0
2, 24912, Note_on_c, 0, 68, 82
2, 24935, Note_on_c, 0, 68, 0
2, 24936, Note_on_c, 0, 67, 83
2, 24959, Note_on_c, 0, 67, 0
2, 24960, Note_on_c, 0, 65, 83
2, 25005, Note_on_c, 0, 65, 0
2, 25008, Note_on_c, 0, 80, 99
2, 25008, Note_on_c, 0, 77, 99
2, 25104, Note_on_c, 0, 80, 0
2, 25104, Note_on_c, 0, 77, 0
2, 25104, Note_on_c, 0, 79, 85
2, 25104, Note_on_c, 0, 75, 85
2, 25149, Note_on_c, 0, 79, 0
2, 25149, Note_on_c, 0, 75, 0
2, 25200, Note_on_c, 0, 77, 81
2, 25200, Note_on_c, 0, 68, 81
2, 25245, Note_on_c, 0, 77, 0
2, 25245, Note_on_c, 0, 68, 0
2, 25248, Note_on_c, 0, 75, 80
2, 25248, Note_on_c, 0, 67, 80
2, 25293, Note_on_c, 0, 75, 0
2, 25293, Note_on_c, 0, 67, 0
2, 25296, Note_on_c, 0, 74, 78
2, 25296, Note_on_c, 0, 65, 78
2, 25341, Note_on_c, 0, 74, 0
2, 25341, Note_on_c, 0, 65, 0
2, 25344, Note_on_c, 0, 75, 77
2, 25344, Note_on_c, 0, 67, 77
2, 25433, Note_on_c, 0, 75, 0
2, 25433, Note_on_c, 0, 67, 0
2, 25488, Note_on_c, 0, 70, 77
2, 25536, Note_on_c, 0, 70, 0
2, 25536, Note_on_c, 0, 67, 77
2, 25581, Note_on_c, 0, 67, 0
2, 25680, Note_on_c, 0, 70, 77
2, 25728, Note_on_c, 0, 70, 0
2, 25728, Note_on_c, 0, 65, 77
2, 25773, Note_on_c, 0, 65, 0
2, 25872, Note_on_c, 0, 70, 77
2, 25917, Note_on_c, 0, 70, 0
2, 25920, Note_on_c, 0, 75, 77
2, 25965, Note_on_c, 0, 75, 0
2, 25968, Note_on_c, 0, 68, 93
2, 26064, Note_on_c, 0, 68, 0
2, 26064, Note_on_c, 0, 67, 79
2, 26109, Note_on_c, 0, 67, 0
2, 26112, Note_on_c, 0, 72, 80
2, 26157, Note_on_c, 0, 72, 0
2, 26160, Note_on_c, 0, 65, 97
2, 26256, Note_on_c, 0, 65, 0
2, 26256, Note_on_c, 0, 63, 83
2, 26301, Note_on_c, 0, 63, 0
2, 26304, Note_on_c, 0, 62, 84
2, 26349, Note_on_c, 0, 62, 0
2, 26352, Note_on_c, 0, 68, 101
2, 26448, Note_on_c, 0, 68, 0
2, 26448, Note_on_c, 0, 67, 85
2, 26541, Note_on_c, 0, 67, 0
2, 26544, Note_on_c, 0, 65, 79
2, 26589, Note_on_c, 0, 65, 0
2, 26640, Note_on_c, 0, 70, 77
2, 26688, Note_on_c, 0, 70, 0
2, 26688, Note_on_c, 0, 66, 77
2, 26733, Note_on_c, 0, 66, 0
2, 26832, Note_on_c, 0, 70, 77
2, 26880, Note_on_c, 0, 70, 0
2, 26880, Note_on_c, 0, 65, 77
2, 26925, Note_on_c, 0, 65, 0
2, 27024, Note_on_c, 0, 70, 77
2, 27069, Note_on_c, 0, 70, 0
2, 27072, Note_on_c, 0, 69, 77
2, 27117, Note_on_c, 0, 69, 0
2, 27120, Note_on_c, 0, 75, 94
2, 27216, Note_on_c, 0, 75, 0
2, 27216, Note_on_c, 0, 73, 80
2, 27261, Note_on_c, 0, 73, 0
2, 27264, Note_on_c, 0, 70, 81
2, 27309, Note_on_c, 0, 70, 0
2, 27312, Note_on_c, 0, 78, 98
2, 27408, Note_on_c, 0, 78, 0
2, 27408, Note_on_c, 0, 77, 85
2, 27501, Note_on_c, 0, 77, 0
2, 27504, Note_on_c, 0, 75, 83
2, 27504, Note_on_c, 0, 72, 83
2, 27549, Note_on_c, 0, 75, 0
2, 27549, Note_on_c, 0, 72, 0
2, 27552, Note_on_c, 0, 73, 82
2, 27552, Note_on_c, 0, 70, 82
2, 27597, Note_on_c, 0, 73, 0
2, 27597, Note_on_c, 0, 70, 0
2, 27600, Note_on_c, 0, 72, 81
2, 27600, Note_on_c, 0, 69, 81
2, 27645, Note_on_c, 0, 72, 0
2, 27645, Note_on_c, 0, 69, 0
2, 27648, Note_on_c, 0, 70, 79
2, 27737, Note_on_c, 0, 70, 0
2, 27792, Note_on_c, 0, 70, 77
2, 27840, Note_on_c, 0, 70, 0
2, 27840, Note_on_c, 0, 73, 77
2, 27885, Note_on_c, 0, 73, 0
2, 27984, Note_on_c, 0, 66, 77
2, 28032, Note_on_c, 0, 66, 0
2, 28032, Note_on_c, 0, 65, 77
2, 28077, Note_on_c, 0, 65, 0
2, 28176, Note_on_c, 0, 68, 77
2, 28224, Note_on_c, 0, 68, 0
2, 28224, Note_on_c, 0, 71, 77
2, 28269, Note_on_c, 0, 71, 0
2, 28368, Note_on_c, 0, 68, 77
2, 28416, Note_on_c, 0, 68, 0
2, 28416, Note_on_c, 0, 70, 77
2, 28461, Note_on_c, 0, 70, 0
2, 28560, Note_on_c, 0, 66, 77
2, 28608, Note_on_c, 0, 66, 0
2, 28608, Note_on_c, 0, 75, 77
2, 28653, Note_on_c, 0, 75, 0
2, 28752, Note_on_c, 0, 77, 77
2, 28752, Note_on_c, 0, 68, 77
2, 28797, Note_on_c, 0, 77, 0
2, 28797, Note_on_c, 0, 68, 0
2, 28800, Note_on_c, 0, 78, 77
2, 28800, Note_on_c, 0, 70, 77
2, 28845, Note_on_c, 0, 78, 0
2, 28845, Note_on_c, 0, 70, 0
2, 28944, Note_on_c, 0, 73, 77
2, 28944, Note_on_c, 0, 70, 77
2, 28989, Note_on_c, 0, 73, 0
2, 28989, Note_on_c, 0, 70, 0
2, 28992, Note_on_c, 0, 73, 77
2, 28992, Note_on_c, 0, 70, 77
2, 29015, Note_on_c, 0, 73, 0
2, 29015, Note_on_c, 0, 70, 0
2, 29016, Note_on_c, 0, 71, 77
2, 29016, Note_on_c, 0, 68, 77
2, 29039, Note_on_c, 0, 71, 0
2, 29039, Note_on_c, 0, 68, 0
2, 29040, Note_on_c, 0, 70, 77
2, 29040, Note_on_c, 0, 66, 77
2, 29129, Note_on_c, 0, 70, 0
2, 29129, Note_on_c, 0, 66, 0
2, 29136, Note_on_c, 0, 68, 77
2, 29136, Note_on_c, 0, 65, 77
2, 29181, Note_on_c, 0, 68, 0
2, 29181, Note_on_c, 0, 65, 0
2, 29184, Note_on_c, 0, 66, 77
2, 29229, Note_on_c, 0, 66, 0
2, 29328, Note_on_c, 0, 70, 77
2, 29376, Note_on_c, 0, 70, 0
2, 29376, Note_on_c, 0, 82, 77
2, 29421, Note_on_c, 0, 82, 0
2, 29520, Note_on_c, 0, 70, 77
2, 29568, Note_on_c, 0, 70, 0
2, 29568, Note_on_c, 0, 80, 77
2, 29613, Note_on_c, 0, 80, 0
2, 29712, Note_on_c, 0, 70, 77
2, 29760, Note_on_c, 0, 70, 0
2, 29760, Note_on_c, 0, 78, 77
2, 29805, Note_on_c, 0, 78, 0
2, 29904, Note_on_c, 0, 70, 77
2, 29952, Note_on_c, 0, 70, 0
2, 29952, Note_on_c, 0, 77, 77
2, 29997, Note_on_c, 0, 77, 0
2, 30096, Note_on_c, 0, 70, 77
2, 30141, Note_on_c, 0, 70, 0
2, 30144, Note_on_c, 0, 75, 77
2, 30853, Note_on_c, 0, 75, 0
2, 30912, Note_on_c, 0, 74, 77
2, 31621, Note_on_c, 0, 74, 0
2, 31632, Note_on_c, 0, 70, 77
2, 31680, Note_on_c, 0, 70, 0
2, 31680, Note_on_c, 0, 67, 77
2, 31725, Note_on_c, 0, 67, 0
2, 31824, Note_on_c, 0, 70, 77
2, 31872, Note_on_c, 0, 70, 0
2, 31872, Note_on_c, 0, 65, 77
2, 31917, Note_on_c, 0, 65, 0
2, 32016, Note_on_c, 0, 70, 77
2, 32061, Note_on_c, 0, 70, 0
2, 32064, Note_on_c, 0, 75, 77
2, 32109, Note_on_c, 0, 75, 0
2, 32112, Note_on_c, 0, 68, 93
2, 32208, Note_on_c, 0, 68, 0
2, 32208, Note_on_c, 0, 67, 77
2, 32253, Note_on_c, 0, 67, 0
2, 32256, Note_on_c, 0, 72, 77
2, 32301, Note_on_c, 0, 72, 0
2, 32304, Note_on_c, 0, 65, 93
2, 32400, Note_on_c, 0, 65, 0
2, 32400, Note_on_c, 0, 63, 77
2, 32445, Note_on_c, 0, 63, 0
2, 32448, Note_on_c, 0, 62, 77
2, 32493, Note_on_c, 0, 62, 0
2, 32496, Note_on_c, 0, 68, 95
2, 32592, Note_on_c, 0, 68, 0
2, 32592, Note_on_c, 0, 67, 85
2, 32685, Note_on_c, 0, 67, 0
2, 32688, Note_on_c, 0, 65, 79
2, 32733, Note_on_c, 0, 65, 0
2, 32784, Note_on_c, 0, 58, 77
2, 32829, Note_on_c, 0, 58, 0
2, 32832, Note_on_c, 0, 60, 77
2, 32877, Note_on_c, 0, 60, 0
2, 32880, Note_on_c, 0, 65, 93
2, 32976, Note_on_c, 0, 65, 0
2, 32976, Note_on_c, 0, 63, 78
2, 33021, Note_on_c, 0, 63, 0
2, 33024, Note_on_c, 0, 62, 79
2, 33069, Note_on_c, 0, 62, 0
2, 33072, Note_on_c, 0, 68, 95
2, 33168, Note_on_c, 0, 68, 0
2, 33168, Note_on_c, 0, 67, 80
2, 33213, Note_on_c, 0, 67, 0
2, 33216, Note_on_c, 0, 65, 81
2, 33261, Note_on_c, 0, 65, 0
2, 33264, Note_on_c, 0, 72, 81
2, 33353, Note_on_c, 0, 72, 0
2, 33360, Note_on_c, 0, 70, 82
2, 33405, Note_on_c, 0, 70, 0
2, 33408, Note_on_c, 0, 68, 83
2, 33453, Note_on_c, 0, 68, 0
2, 33456, Note_on_c, 0, 80, 83
2, 33545, Note_on_c, 0, 80, 0
2, 33552, Note_on_c, 0, 79, 85
2, 33645, Note_on_c, 0, 79, 0
2, 33648, Note_on_c, 0, 77, 82
2, 33693, Note_on_c, 0, 77, 0
2, 33696, Note_on_c, 0, 80, 81
2, 33741, Note_on_c, 0, 80, 0
2, 33744, Note_on_c, 0, 74, 80
2, 33789, Note_on_c, 0, 74, 0
2, 33792, Note_on_c, 0, 77, 79
2, 33840, Note_on_c, 0, 77, 0
2, 33840, Note_on_c, 0, 75, 78
2, 33885, Note_on_c, 0, 75, 0
2, 33936, Note_on_c, 0, 70, 77
2, 33981, Note_on_c, 0, 70, 0
2, 33984, Note_on_c, 0, 75, 77
2, 34007, Note_on_c, 0, 75, 0
2, 34008, Note_on_c, 0, 70, 77
2, 34031, Note_on_c, 0, 70, 0
2, 34032, Note_on_c, 0, 69, 77
2, 34055, Note_on_c, 0, 69, 0
2, 34056, Note_on_c, 0, 70, 77
2, 34079, Note_on_c, 0, 70, 0
2, 34080, Note_on_c, 0, 72, 77
2, 34103, Note_on_c, 0, 72, 0
2, 34104, Note_on_c, 0, 70, 77
2, 34127, Note_on_c, 0, 70, 0
2, 34128, Note_on_c, 0, 69, 77
2, 34151, Note_on_c, 0, 69, 0
2, 34152, Note_on_c, 0, 70, 77
2, 34175, Note_on_c, 0, 70, 0
2, 34176, Note_on_c, 0, 77, 77
2, 34199, Note_on_c, 0, 77, 0
2, 34200, Note_on_c, 0, 70, 77
2, 34223, Note_on_c, 0, 70, 0
2, 34224, Note_on_c, 0, 69, 77
2, 34247, Note_on_c, 0, 69, 0
2, 34248, Note_on_c, 0, 70, 77
2, 34271, Note_on_c, 0, 70, 0
2, 34272, Note_on_c, 0, 72, 77
2, 34295, Note_on_c, 0, 72, 0
2, 34296, Note_on_c, 0, 70, 77
2, 34319, Note_on_c, 0, 70, 0
2, 34320, Note_on_c, 0, 69, 77
2, 34343, Note_on_c, 0, 69, 0
2, 34344, Note_on_c, 0, 70, 77
2, 34367, Note_on_c, 0, 70, 0
2, 34368, Note_on_c, 0, 75, 77
2, 34391, Note_on_c, 0, 75, 0
2, 34392, Note_on_c, 0, 72, 77
2, 34415, Note_on_c, 0, 72, 0
2, 34416, Note_on_c, 0, 70, 77
2, 34439, Note_on_c, 0, 70, 0
2, 34440, Note_on_c, 0, 68, 77
2, 34463, Note_on_c, 0, 68, 0
2, 34464, Note_on_c, 0, 68, 77
2, 34487, Note_on_c, 0, 68, 0
2, 34488, Note_on_c, 0, 67, 77
2, 34511, Note_on_c, 0, 67, 0
2, 34512, Note_on_c, 0, 66, 77
2, 34535, Note_on_c, 0, 66, 0
2, 34536, Note_on_c, 0, 67, 77
2, 34559, Note_on_c, 0, 67, 0
2, 34560, Note_on_c, 0, 72, 77
2, 34583, Note_on_c, 0, 72, 0
2, 34584, Note_on_c, 0, 68, 77
2, 34607, Note_on_c, 0, 68, 0
2, 34608, Note_on_c, 0, 67, 77
2, 34631, Note_on_c, 0, 67, 0
2, 34632, Note_on_c, 0, 65, 77
2, 34655, Note_on_c, 0, 65, 0
2, 34656, Note_on_c, 0, 65, 77
2, 34679, Note_on_c, 0, 65, 0
2, 34680, Note_on_c, 0, 63, 77
2, 34703, Note_on_c, 0, 63, 0
2, 34704, Note_on_c, 0, 62, 77
2, 34727, Note_on_c, 0, 62, 0
2, 34728, Note_on_c, 0, 63, 77
2, 34751, Note_on_c, 0, 63, 0
2, 34752, Note_on_c, 0, 62, 77
2, 34775, Note_on_c, 0, 62, 0
2, 34776, Note_on_c, 0, 63, 79
2, 34799, Note_on_c, 0, 63, 0
2, 34800, Note_on_c, 0, 65, 81
2, 34823, Note_on_c, 0, 65, 0
2, 34824, Note_on_c, 0, 67, 83
2, 34847, Note_on_c, 0, 67, 0
2, 34848, Note_on_c, 0, 68, 85
2, 34871, Note_on_c, 0, 68, 0
2, 34872, Note_on_c, 0, 65, 83
2, 34895, Note_on_c, 0, 65, 0
2, 34896, Note_on_c, 0, 67, 81
2, 34919, Note_on_c, 0, 67, 0
2, 34920, Note_on_c, 0, 63, 79
2, 34943, Note_on_c, 0, 63, 0
2, 34944, Note_on_c, 0, 65, 77
2, 34944, Note_on_c, 0, 62, 77
2, 35033, Note_on_c, 0, 65, 0
2, 35033, Note_on_c, 0, 62, 0
2, 35088, Note_on_c, 0, 70, 77
2, 35133, Note_on_c, 0, 70, 0
2, 35136, Note_on_c, 0, 75, 77
2, 35159, Note_on_c, 0, 75, 0
2, 35160, Note_on_c, 0, 70, 77
2, 35183, Note_on_c, 0, 70, 0
2, 35184, Note_on_c, 0, 69, 77
2, 35207, Note_on_c, 0, 69, 0
2, 35208, Note_on_c, 0, 70, 77
2, 35231, Note_on_c, 0, 70, 0
2, 35232, Note_on_c, 0, 72, 77
2, 35255, Note_on_c, 0, 72, 0
2, 35256, Note_on_c, 0, 70, 77
2, 35279, Note_on_c, 0, 70, 0
2, 35280, Note_on_c, 0, 69, 77
2, 35303, Note_on_c, 0, 69, 0
2, 35304, Note_on_c, 0, 70, 77
2, 35327, Note_on_c, 0, 70, 0
2, 35328, Note_on_c, 0, 77, 77
2, 35351, Note_on_c, 0, 77, 0
2, 35352, Note_on_c, 0, 70, 77
2, 35375, Note_on_c, 0, 70, 0
2, 35376, Note_on_c, 0, 69, 77
2, 35399, Note_on_c, 0, 69, 0
2, 35400, Note_on_c, 0, 70, 77
2, 35423, Note_on_c, 0, 70, 0
2, 35424, Note_on_c, 0, 72, 77
2, 35447, Note_on_c, 0, 72, 0
2, 35448, Note_on_c, 0, 70, 77
2, 35471, Note_on_c, 0, 70, 0
2, 35472, Note_on_c, 0, 69, 77
2, 35495, Note_on_c, 0, 69, 0
2, 35496, Note_on_c, 0, 70, 77
2, 35519, Note_on_c, 0, 70, 0
2, 35520, Note_on_c, 0, 69, 77
2, 35543, Note_on_c, 0, 69, 0
2, 35544, Note_on_c, 0, 79, 77
2, 35567, Note_on_c, 0, 79, 0
2, 35568, Note_on_c, 0, 77, 77
2, 35591, Note_on_c, 0, 77, 0
2, 35592, Note_on_c, 0, 75, 78
2, 35615, Note_on_c, 0, 75, 0
2, 35616, Note_on_c, 0, 74, 78
2, 35639, Note_on_c, 0, 74, 0
2, 35640, Note_on_c, 0, 77, 79
2, 35663, Note_on_c, 0, 77, 0
2, 35664, Note_on_c, 0, 75, 79
2, 35687, Note_on_c, 0, 75, 0
2, 35688, Note_on_c, 0, 74, 79
2, 35711, Note_on_c, 0, 74, 0
2, 35712, Note_on_c, 0, 72, 80
2, 35735, Note_on_c, 0, 72, 0
2, 35736, Note_on_c, 0, 75, 80
2, 35759, Note_on_c, 0, 75, 0
2, 35760, Note_on_c, 0, 74, 81
2, 35783, Note_on_c, 0, 74, 0
2, 35784, Note_on_c, 0, 72, 81
2, 35807, Note_on_c, 0, 72, 0
2, 35808, Note_on_c, 0, 70, 81
2, 35831, Note_on_c, 0, 70, 0
2, 35832, Note_on_c, 0, 74, 82
2, 35855, Note_on_c, 0, 74, 0
2, 35856, Note_on_c, 0, 72, 82
2, 35879, Note_on_c, 0, 72, 0
2, 35880, Note_on_c, 0, 70, 83
2, 35903, Note_on_c, 0, 70, 0
2, 35904, Note_on_c, 0, 67, 83
2, 35927, Note_on_c, 0, 67, 0
2, 35928, Note_on_c, 0, 72, 83
2, 35951, Note_on_c, 0, 72, 0
2, 35952, Note_on_c, 0, 75, 84
2, 35975, Note_on_c, 0, 75, 0
2, 35976, Note_on_c, 0, 79, 84
2, 35999, Note_on_c, 0, 79, 0
2, 36000, Note_on_c, 0, 77, 85
2, 36045, Note_on_c, 0, 77, 0
2, 36048, Note_on_c, 0, 69, 83
2, 36093, Note_on_c, 0, 69, 0
2, 36096, Note_on_c, 0, 70, 81
2, 36096, Note_on_c, 0, 62, 81
2, 36185, Note_on_c, 0, 70, 0
2, 36185, Note_on_c, 0, 62, 0
2, 36240, Note_on_c, 0, 70, 77
2, 36285, Note_on_c, 0, 70, 0
2, 36288, Note_on_c, 0, 75, 77
2, 36311, Note_on_c, 0, 75, 0
2, 36312, Note_on_c, 0, 70, 77
2, 36335, Note_on_c, 0, 70, 0
2, 36336, Note_on_c, 0, 69, 77
2, 36359, Note_on_c, 0, 69, 0
2, 36360, Note_on_c, 0, 70, 77
2, 36383, Note_on_c, 0, 70, 0
2, 36384, Note_on_c, 0, 72, 77
2, 36407, Note_on_c, 0, 72, 0
2, 36408, Note_on_c, 0, 70, 77
2, 36431, Note_on_c, 0, 70, 0
2, 36432, Note_on_c, 0, 69, 77
2, 36455, Note_on_c, 0, 69, 0
2, 36456, Note_on_c, 0, 70, 77
2, 36479, Note_on_c, 0, 70, 0
2, 36480, Note_on_c, 0, 77, 77
2, 36503, Note_on_c, 0, 77, 0
2, 36504, Note_on_c, 0, 70, 77
2, 36527, Note_on_c, 0, 70, 0
2, 36528, Note_on_c, 0, 69, 77
2, 36551, Note_on_c, 0, 69, 0
2, 36552, Note_on_c, 0, 70, 77
2, 36575, Note_on_c, 0, 70, 0
2, 36576, Note_on_c, 0, 72, 77
2, 36599, Note_on_c, 0, 72, 0
2, 36600, Note_on_c, 0, 70, 77
2, 36623, Note_on_c, 0, 70, 0
2, 36624, Note_on_c, 0, 69, 77
2, 36647, Note_on_c, 0, 69, 0
2, 36648, Note_on_c, 0, 70, 77
2, 36671, Note_on_c, 0, 70, 0
2, 36672, Note_on_c, 0, 75, 77
2, 36695, Note_on_c, 0, 75, 0
2, 36696, Note_on_c, 0, 72, 77
2, 36719, Note_on_c, 0, 72, 0
2, 36720, Note_on_c, 0, 70, 77
2, 36743, Note_on_c, 0, 70, 0
2, 36744, Note_on_c, 0, 68, 77
2, 36767, Note_on_c, 0, 68, 0
2, 36768, Note_on_c, 0, 68, 77
2, 36791, Note_on_c, 0, 68, 0
2, 36792, Note_on_c, 0, 67, 77
2, 36815, Note_on_c, 0, 67, 0
2, 36816, Note_on_c, 0, 66, 77
2, 36839, Note_on_c, 0, 66, 0
2, 36840, Note_on_c, 0, 67, 77
2, 36863, Note_on_c, 0, 67, 0
2, 36864, Note_on_c, 0, 72, 77
2, 36887, Note_on_c, 0, 72, 0
2, 36888, Note_on_c, 0, 68, 77
2, 36911, Note_on_c, 0, 68, 0
2, 36912, Note_on_c, 0, 67, 77
2, 36935, Note_on_c, 0, 67, 0
2, 36936, Note_on_c, 0, 65, 77
2, 36959, Note_on_c, 0, 65, 0
2, 36960, Note_on_c, 0, 65, 77
2, 36983, Note_on_c, 0, 65, 0
2, 36984, Note_on_c, 0, 63, 77
2, 37007, Note_on_c, 0, 63, 0
2, 37008, Note_on_c, 0, 62, 77
2, 37031, Note_on_c, 0, 62, 0
2, 37032, Note_on_c, 0, 63, 77
2, 37055, Note_on_c, 0, 63, 0
2, 37056, Note_on_c, 0, 62, 77
2, 37079, Note_on_c, 0, 62, 0
2, 37080, Note_on_c, 0, 63, 79
2, 37103, Note_on_c, 0, 63, 0
2, 37104, Note_on_c, 0, 65, 81
2, 37127, Note_on_c, 0, 65, 0
2, 37128, Note_on_c, 0, 67, 83
2, 37151, Note_on_c, 0, 67, 0
2, 37152, Note_on_c, 0, 68, 85
2, 37175, Note_on_c, 0, 68, 0
2, 37176, Note_on_c, 0, 65, 83
2, 37199, Note_on_c, 0, 65, 0
2, 37200, Note_on_c, 0, 67, 81
2, 37223, Note_on_c, 0, 67, 0
2, 37224, Note_on_c, 0, 63, 79
2, 37247, Note_on_c, 0, 63, 0
2, 37248, Note_on_c, 0, 65, 77
2, 37248, Note_on_c, 0, 62, 77
2, 37337, Note_on_c, 0, 65, 0
2, 37337, Note_on_c, 0, 62, 0
2, 37392, Note_on_c, 0, 70, 77
2, 37437, Note_on_c, 0, 70, 0
2, 37440, Note_on_c, 0, 75, 77
2, 37463, Note_on_c, 0, 75, 0
2, 37464, Note_on_c, 0, 70, 77
2, 37487, Note_on_c, 0, 70, 0
2, 37488, Note_on_c, 0, 69, 77
2, 37511, Note_on_c, 0, 69, 0
2, 37512, Note_on_c, 0, 70, 77
2, 37535, Note_on_c, 0, 70, 0
2, 37536, Note_on_c, 0, 72, 77
2, 37559, Note_on_c, 0, 72, 0
2, 37560, Note_on_c, 0, 70, 77
2, 37583, Note_on_c, 0, 70, 0
2, 37584, Note_on_c, 0, 69, 77
2, 37607, Note_on_c, 0, 69, 0
2, 37608, Note_on_c, 0, 70, 77
2, 37631, Note_on_c, 0, 70, 0
2, 37632, Note_on_c, 0, 77, 77
2, 37655, Note_on_c, 0, 77, 0
2, 37656, Note_on_c, 0, 70, 77
2, 37679, Note_on_c, 0, 70, 0
2, 37680, Note_on_c, 0, 69, 77
2, 37703, Note_on_c, 0, 69, 0
2, 37704, Note_on_c, 0, 70, 77
2, 37727, Note_on_c, 0, 70, 0
2, 37728, Note_on_c, 0, 72, 77
2, 37751, Note_on_c, 0, 72, 0
2, 37752, Note_on_c, 0, 70, 77
2, 37775, Note_on_c, 0, 70, 0
2, 37776, Note_on_c, 0, 69, 77
2, 37799, Note_on_c, 0, 69, 0
2, 37800, Note_on_c, 0, 70, 77
2, 37823, Note_on_c, 0, 70, 0
2, 37824, Note_on_c, 0, 69, 77
2, 37847, Note_on_c, 0, 69, 0
2, 37848, Note_on_c, 0, 79, 77
2, 37871, Note_on_c, 0, 79, 0
2, 37872, Note_on_c, 0, 77, 77
2, 37895, Note_on_c, 0, 77, 0
2, 37896, Note_on_c, 0, 75, 78
2, 37919, Note_on_c, 0, 75, 0
2, 37920, Note_on_c, 0, 74, 78
2, 37943, Note_on_c, 0, 74, 0
2, 37944, Note_on_c, 0, 77, 79
2, 37967, Note_on_c, 0, 77, 0
2, 37968, Note_on_c, 0, 75, 79
2, 37991, Note_on_c, 0, 75, 0
2, 37992, Note_on_c, 0, 74, 79
2, 38015, Note_on_c, 0, 74, 0
2, 38016, Note_on_c, 0, 72, 80
2, 38039, Note_on_c, 0, 72, 0
2, 38040, Note_on_c, 0, 75, 80
2, 38063, Note_on_c, 0, 75, 0
2, 38064, Note_on_c, 0, 74, 81
2, 38087, Note_on_c, 0, 74, 0
2, 38088, Note_on_c, 0, 72, 81
2, 38111, Note_on_c, 0, 72, 0
2, 38112, Note_on_c, 0, 70, 81
2, 38135, Note_on_c, 0, 70, 0
2, 38136, Note_on_c, 0, 74, 82
2, 38159, Note_on_c, 0, 74, 0
2, 38160, Note_on_c, 0, 72, 82
2, 38183, Note_on_c, 0, 72, 0
2, 38184, Note_on_c, 0, 70, 83
2, 38207, Note_on_c, 0, 70, 0
2, 38208, Note_on_c, 0, 67, 83
2, 38231, Note_on_c, 0, 67, 0
2, 38232, Note_on_c, 0, 72, 83
2, 38255, Note_on_c, 0, 72, 0
2, 38256, Note_on_c, 0, 75, 84
2, 38279, Note_on_c, 0, 75, 0
2, 38280, Note_on_c, 0, 79, 84
2, 38303, Note_on_c, 0, 79, 0
2, 38304, Note_on_c, 0, 77, 85
2, 38349, Note_on_c, 0, 77, 0
2, 38352, Note_on_c, 0, 69, 83
2, 38397, Note_on_c, 0, 69, 0
2, 38400, Note_on_c, 0, 70, 81
2, 38400, Note_on_c, 0, 62, 81
2, 38489, Note_on_c, 0, 70, 0
2, 38489, Note_on_c, 0, 62, 0
2, 38544, Note_on_c, 0, 70, 77
2, 38589, Note_on_c, 0, 70, 0
2, 38592, Note_on_c, 0, 77, 77
2, 38615, Note_on_c, 0, 77, 0
2, 38616, Note_on_c, 0, 70, 77
2, 38639, Note_on_c, 0, 70, 0
2, 38640, Note_on_c, 0, 69, 77
2, 38663, Note_on_c, 0, 69, 0
2, 38664, Note_on_c, 0, 70, 77
2, 38687, Note_on_c, 0, 70, 0
2, 38688, Note_on_c, 0, 70, 77
2, 38711, Note_on_c, 0, 70, 0
2, 38712, Note_on_c, 0, 68, 77
2, 38735, Note_on_c, 0, 68, 0
2, 38736, Note_on_c, 0, 67, 77
2, 38759, Note_on_c, 0, 67, 0
2, 38760, Note_on_c, 0, 68, 77
2, 38783, Note_on_c, 0, 68, 0
2, 38784, Note_on_c, 0, 67, 77
2, 38807, Note_on_c, 0, 67, 0
2, 38808, Note_on_c, 0, 63, 77
2, 38831, Note_on_c, 0, 63, 0
2, 38832, Note_on_c, 0, 62, 77
2, 38855, Note_on_c, 0, 62, 0
2, 38856, Note_on_c, 0, 63, 77
2, 38879, Note_on_c, 0, 63, 0
2, 38880, Note_on_c, 0, 65, 77
2, 38903, Note_on_c, 0, 65, 0
2, 38904, Note_on_c, 0, 63, 77
2, 38927, Note_on_c, 0, 63, 0
2, 38928, Note_on_c, 0, 62, 77
2, 38951, Note_on_c, 0, 62, 0
2, 38952, Note_on_c, 0, 63, 77
2, 38975, Note_on_c, 0, 63, 0
2, 38976, Note_on_c, 0, 72, 77
2, 38999, Note_on_c, 0, 72, 0
2, 39000, Note_on_c, 0, 65, 77
2, 39023, Note_on_c, 0, 65, 0
2, 39024, Note_on_c, 0, 64, 77
2, 39047, Note_on_c, 0, 64, 0
2, 39048, Note_on_c, 0, 65, 77
2, 39071, Note_on_c, 0, 65, 0
2, 39072, Note_on_c, 0, 65, 77
2, 39095, Note_on_c, 0, 65, 0
2, 39096, Note_on_c, 0, 63, 77
2, 39119, Note_on_c, 0, 63, 0
2, 39120, Note_on_c, 0, 62, 77
2, 39143, Note_on_c, 0, 62, 0
2, 39144, Note_on_c, 0, 63, 77
2, 39167, Note_on_c, 0, 63, 0
2, 39168, Note_on_c, 0, 62, 77
2, 39191, Note_on_c, 0, 62, 0
2, 39192, Note_on_c, 0, 58, 77
2, 39215, Note_on_c, 0, 58, 0
2, 39216, Note_on_c, 0, 57, 77
2, 39239, Note_on_c, 0, 57, 0
2, 39240, Note_on_c, 0, 58, 77
2, 39263, Note_on_c, 0, 58, 0
2, 39264, Note_on_c, 0, 60, 77
2, 39287, Note_on_c, 0, 60, 0
2, 39288, Note_on_c, 0, 58, 77
2, 39311, Note_on_c, 0, 58, 0
2, 39312, Note_on_c, 0, 57, 77
2, 39335, Note_on_c, 0, 57, 0
2, 39336, Note_on_c, 0, 58, 77
2, 39359, Note_on_c, 0, 58, 0
2, 39384, Note_on_c, 0, 60, 77
2, 39407, Note_on_c, 0, 60, 0
2, 39408, Note_on_c, 0, 65, 77
2, 39431, Note_on_c, 0, 65, 0
2, 39432, Note_on_c, 0, 63, 77
2, 39455, Note_on_c, 0, 63, 0
2, 39456, Note_on_c, 0, 62, 78
2, 39479, Note_on_c, 0, 62, 0
2, 39480, Note_on_c, 0, 68, 78
2, 39503, Note_on_c, 0, 68, 0
2, 39504, Note_on_c, 0, 67, 78
2, 39527, Note_on_c, 0, 67, 0
2, 39528, Note_on_c, 0, 65, 79
2, 39551, Note_on_c, 0, 65, 0
2, 39552, Note_on_c, 0, 63, 79
2, 39575, Note_on_c, 0, 63, 0
2, 39576, Note_on_c, 0, 70, 79
2, 39599, Note_on_c, 0, 70, 0
2, 39600, Note_on_c, 0, 68, 80
2, 39623, Note_on_c, 0, 68, 0
2, 39624, Note_on_c, 0, 67, 80
2, 39647, Note_on_c, 0, 67, 0
2, 39648, Note_on_c, 0, 65, 80
2, 39671, Note_on_c, 0, 65, 0
2, 39672, Note_on_c, 0, 72, 81
2, 39695, Note_on_c, 0, 72, 0
2, 39696, Note_on_c, 0, 70, 81
2, 39719, Note_on_c, 0, 70, 0
2, 39720, Note_on_c, 0, 68, 81
2, 39743, Note_on_c, 0, 68, 0
2, 39744, Note_on_c, 0, 67, 82
2, 39767, Note_on_c, 0, 67, 0
2, 39768, Note_on_c, 0, 79, 82
2, 39791, Note_on_c, 0, 79, 0
2, 39792, Note_on_c, 0, 77, 82
2, 39815, Note_on_c, 0, 77, 0
2, 39816, Note_on_c, 0, 75, 83
2, 39839, Note_on_c, 0, 75, 0
2, 39840, Note_on_c, 0, 74, 83
2, 39863, Note_on_c, 0, 74, 0
2, 39864, Note_on_c, 0, 84, 83
2, 39887, Note_on_c, 0, 84, 0
2, 39888, Note_on_c, 0, 82, 84
2, 39911, Note_on_c, 0, 82, 0
2, 39912, Note_on_c, 0, 80, 84
2, 39935, Note_on_c, 0, 80, 0
2, 39936, Note_on_c, 0, 79, 84
2, 39959, Note_on_c, 0, 79, 0
2, 39960, Note_on_c, 0, 77, 85
2, 39983, Note_on_c, 0, 77, 0
2, 39984, Note_on_c, 0, 75, 85
2, 40007, Note_on_c, 0, 75, 0
2, 40008, Note_on_c, 0, 74, 84
2, 40031, Note_on_c, 0, 74, 0
2, 40032, Note_on_c, 0, 72, 83
2, 40055, Note_on_c, 0, 72, 0
2, 40056, Note_on_c, 0, 70, 83
2, 40079, Note_on_c, 0, 70, 0
2, 40080, Note_on_c, 0, 68, 82
2, 40103, Note_on_c, 0, 68, 0
2, 40104, Note_on_c, 0, 67, 82
2, 40127, Note_on_c, 0, 67, 0
2, 40128, Note_on_c, 0, 65, 81
2, 40173, Note_on_c, 0, 65, 0
2, 40176, Note_on_c, 0, 68, 80
2, 40199, Note_on_c, 0, 68, 0
2, 40200, Note_on_c, 0, 65, 79
2, 40223, Note_on_c, 0, 65, 0
2, 40224, Note_on_c, 0, 63, 79
2, 40269, Note_on_c, 0, 63, 0
2, 40272, Note_on_c, 0, 62, 78
2, 40317, Note_on_c, 0, 62, 0
2, 40320, Note_on_c, 0, 63, 77
2, 40409, Note_on_c, 0, 63, 0
2, 40464, Note_on_c, 0, 70, 77
2, 40509, Note_on_c, 0, 70, 0
2, 40512, Note_on_c, 0, 77, 77
2, 40535, Note_on_c, 0, 77, 0
2, 40536, Note_on_c, 0, 70, 77
2, 40559, Note_on_c, 0, 70, 0
2, 40560, Note_on_c, 0, 69, 77
2, 40583, Note_on_c, 0, 69, 0
2, 40584, Note_on_c, 0, 70, 77
2, 40607, Note_on_c, 0, 70, 0
2, 40608, Note_on_c, 0, 70, 77
2, 40631, Note_on_c, 0, 70, 0
2, 40632, Note_on_c, 0, 68, 77
2, 40655, Note_on_c, 0, 68, 0
2, 40656, Note_on_c, 0, 67, 77
2, 40679, Note_on_c, 0, 67, 0
2, 40680, Note_on_c, 0, 68, 77
2, 40703, Note_on_c, 0, 68, 0
2, 40704, Note_on_c, 0, 67, 77
2, 40727, Note_on_c, 0, 67, 0
2, 40728, Note_on_c, 0, 63, 77
2, 40751, Note_on_c, 0, 63, 0
2, 40752, Note_on_c, 0, 62, 77
2, 40775, Note_on_c, 0, 62, 0
2, 40776, Note_on_c, 0, 63, 77
2, 40799, Note_on_c, 0, 63, 0
2, 40800, Note_on_c, 0, 65, 77
2, 40823, Note_on_c, 0, 65, 0
2, 40824, Note_on_c, 0, 63, 77
2, 40847, Note_on_c, 0, 63, 0
2, 40848, Note_on_c, 0, 62, 77
2, 40871, Note_on_c, 0, 62, 0
2, 40872, Note_on_c, 0, 63, 77
2, 40895, Note_on_c, 0, 63, 0
2, 40896, Note_on_c, 0, 72, 77
2, 40919, Note_on_c, 0, 72, 0
2, 40920, Note_on_c, 0, 65, 77
2, 40943, Note_on_c, 0, 65, 0
2, 40944, Note_on_c, 0, 64, 77
2, 40967, Note_on_c, 0, 64, 0
2, 40968, Note_on_c, 0, 65, 77
2, 40991, Note_on_c, 0, 65, 0
2, 40992, Note_on_c, 0, 65, 77
2, 41015, Note_on_c, 0, 65, 0
2, 41016, Note_on_c, 0, 63, 77
2, 41039, Note_on_c, 0, 63, 0
2, 41040, Note_on_c, 0, 62, 77
2, 41063, Note_on_c, 0, 62, 0
2, 41064, Note_on_c, 0, 63, 77
2, 41087, Note_on_c, 0, 63, 0
2, 41088, Note_on_c, 0, 62, 77
2, 41111, Note_on_c, 0, 62, 0
2, 41112, Note_on_c, 0, 58, 77
2, 41135, Note_on_c, 0, 58, 0
2, 41136, Note_on_c, 0, 57, 77
2, 41159, Note_on_c, 0, 57, 0
2, 41160, Note_on_c, 0, 58, 77
2, 41183, Note_on_c, 0, 58, 0
2, 41184, Note_on_c, 0, 60, 77
2, 41207, Note_on_c, 0, 60, 0
2, 41208, Note_on_c, 0, 58, 77
2, 41231, Note_on_c, 0, 58, 0
2, 41232, Note_on_c, 0, 57, 77
2, 41255, Note_on_c, 0, 57, 0
2, 41256, Note_on_c, 0, 58, 77
2, 41279, Note_on_c, 0, 58, 0
2, 41304, Note_on_c, 0, 60, 77
2, 41327, Note_on_c, 0, 60, 0
2, 41328, Note_on_c, 0, 65, 77
2, 41351, Note_on_c, 0, 65, 0
2, 41352, Note_on_c, 0, 63, 77
2, 41375, Note_on_c, 0, 63, 0
2, 41376, Note_on_c, 0, 62, 78
2, 41399, Note_on_c, 0, 62, 0
2, 41400, Note_on_c, 0, 68, 78
2, 41423, Note_on_c, 0, 68, 0
2, 41424, Note_on_c, 0, 67, 78
2, 41447, Note_on_c, 0, 67, 0
2, 41448, Note_on_c, 0, 65, 79
2, 41471, Note_on_c, 0, 65, 0
2, 41472, Note_on_c, 0, 63, 79
2, 41495, Note_on_c, 0, 63, 0
2, 41496, Note_on_c, 0, 70, 79
2, 41519, Note_on_c, 0, 70, 0
2, 41520, Note_on_c, 0, 68, 80
2, 41543, Note_on_c, 0, 68, 0
2, 41544, Note_on_c, 0, 67, 80
2, 41567, Note_on_c, 0, 67, 0
2, 41568, Note_on_c, 0, 65, 80
2, 41591, Note_on_c, 0, 65, 0
2, 41592, Note_on_c, 0, 72, 81
2, 41615, Note_on_c, 0, 72, 0
2, 41616, Note_on_c, 0, 70, 81
2, 41639, Note_on_c, 0, 70, 0
2, 41640, Note_on_c, 0, 68, 81
2, 41663, Note_on_c, 0, 68, 0
2, 41664, Note_on_c, 0, 67, 82
2, 41687, Note_on_c, 0, 67, 0
2, 41688, Note_on_c, 0, 79, 82
2, 41711, Note_on_c, 0, 79, 0
2, 41712, Note_on_c, 0, 77, 82
2, 41735, Note_on_c, 0, 77, 0
2, 41736, Note_on_c, 0, 75, 83
2, 41759, Note_on_c, 0, 75, 0
2, 41760, Note_on_c, 0, 74, 83
2, 41783, Note_on_c, 0, 74, 0
2, 41784, Note_on_c, 0, 84, 83
2, 41807, Note_on_c, 0, 84, 0
2, 41808, Note_on_c, 0, 82, 84
2, 41831, Note_on_c, 0, 82, 0
2, 41832, Note_on_c, 0, 80, 84
2, 41855, Note_on_c, 0, 80, 0
2, 41856, Note_on_c, 0, 79, 84
2, 41879, Note_on_c, 0, 79, 0
2, 41880, Note_on_c, 0, 77, 85
2, 41903, Note_on_c, 0, 77, 0
2, 41904, Note_on_c, 0, 75, 85
2, 41927, Note_on_c, 0, 75, 0
2, 41928, Note_on_c, 0, 74, 84
2, 41951, Note_on_c, 0, 74, 0
2, 41952, Note_on_c, 0, 72, 83
2, 41975, Note_on_c, 0, 72, 0
2, 41976, Note_on_c, 0, 70, 83
2, 41999, Note_on_c, 0, 70, 0
2, 42000, Note_on_c, 0, 68, 82
2, 42023, Note_on_c, 0, 68, 0
2, 42024, Note_on_c, 0, 67, 82
2, 42047, Note_on_c, 0, 67, 0
2, 42048, Note_on_c, 0, 65, 81
2, 42093, Note_on_c, 0, 65, 0
2, 42096, Note_on_c, 0, 68, 80
2, 42119, Note_on_c, 0, 68, 0
2, 42120, Note_on_c, 0, 65, 79
2, 42143, Note_on_c, 0, 65, 0
2, 42144, Note_on_c, 0, 63, 79
2, 42189, Note_on_c, 0, 63, 0
2, 42192, Note_on_c, 0, 62, 78
2, 42237, Note_on_c, 0, 62, 0
2, 42240, Note_on_c, 0, 63, 77
2, 42329, Note_on_c, 0, 63, 0
2, 42384, Note_on_c, 0, 70, 77
2, 42432, Note_on_c, 0, 70, 0
2, 42432, Note_on_c, 0, 67, 77
2, 42477, Note_on_c, 0, 67, 0
2, 42576, Note_on_c, 0, 70, 77
2, 42624, Note_on_c, 0, 70, 0
2, 42624, Note_on_c, 0, 65, 77
2, 42669, Note_on_c, 0, 65, 0
2, 42768, Note_on_c, 0, 70, 77
2, 42813, Note_on_c, 0, 70, 0
2, 42816, Note_on_c, 0, 75, 77
2, 42861, Note_on_c, 0, 75, 0
2, 42864, Note_on_c, 0, 68, 93
2, 42960, Note_on_c, 0, 68, 0
2, 42960, Note_on_c, 0, 67, 77
2, 43005, Note_on_c, 0, 67, 0
2, 43008, Note_on_c, 0, 72, 77
2, 43053, Note_on_c, 0, 72, 0
2, 43056, Note_on_c, 0, 65, 93
2, 43152, Note_on_c, 0, 65, 0
2, 43152, Note_on_c, 0, 63, 77
2, 43197, Note_on_c, 0, 63, 0
2, 43200, Note_on_c, 0, 62, 79
2, 43245, Note_on_c, 0, 62, 0
2, 43248, Note_on_c, 0, 68, 97
2, 43344, Note_on_c, 0, 68, 0
2, 43344, Note_on_c, 0, 67, 85
2, 43437, Note_on_c, 0, 67, 0
2, 43440, Note_on_c, 0, 65, 79
2, 43485, Note_on_c, 0, 65, 0
2, 43536, Note_on_c, 0, 70, 77
2, 43584, Note_on_c, 0, 70, 0
2, 43584, Note_on_c, 0, 67, 77
2, 43629, Note_on_c, 0, 67, 0
2, 43728, Note_on_c, 0, 70, 77
2, 43776, Note_on_c, 0, 70, 0
2, 43776, Note_on_c, 0, 65, 77
2, 43821, Note_on_c, 0, 65, 0
2, 43920, Note_on_c, 0, 70, 77
2, 43965, Note_on_c, 0, 70, 0
2, 43968, Note_on_c, 0, 69, 77
2, 44013, Note_on_c, 0, 69, 0
2, 44016, Note_on_c, 0, 75, 93
2, 44112, Note_on_c, 0, 75, 0
2, 44112, Note_on_c, 0, 74, 77
2, 44157, Note_on_c, 0, 74, 0
2, 44160, Note_on_c, 0, 67, 77
2, 44205, Note_on_c, 0, 67, 0
2, 44208, Note_on_c, 0, 72, 93
2, 44304, Note_on_c, 0, 72, 0
2, 44304, Note_on_c, 0, 70, 77
2, 44349, Note_on_c, 0, 70, 0
2, 44352, Note_on_c, 0, 67, 77
2, 44397, Note_on_c, 0, 67, 0
2, 44400, Note_on_c, 0, 79, 93
2, 44496, Note_on_c, 0, 79, 0
2, 44496, Note_on_c, 0, 69, 77
2, 44541, Note_on_c, 0, 69, 0
2, 44544, Note_on_c, 0, 72, 77
2, 44589, Note_on_c, 0, 72, 0
2, 44592, Note_on_c, 0, 70, 77
2, 44637, Note_on_c, 0, 70, 0
2, 44688, Note_on_c, 0, 70, 77
2, 44733, Note_on_c, 0, 70, 0
2, 44736, Note_on_c, 0, 69, 77
2, 44784, Note_on_c, 0, 69, 0
2, 44784, Note_on_c, 0, 70, 77
2, 44829, Note_on_c, 0, 70, 0
2, 44880, Note_on_c, 0, 70, 77
2, 44925, Note_on_c, 0, 70, 0
2, 44928, Note_on_c, 0, 69, 77
2, 44976, Note_on_c, 0, 69, 0
2, 44976, Note_on_c, 0, 70, 77
2, 45021, Note_on_c, 0, 70, 0
2, 45072, Note_on_c, 0, 70, 77
2, 45117, Note_on_c, 0, 70, 0
2, 45120, Note_on_c, 0, 75, 77
2, 45165, Note_on_c, 0, 75, 0
2, 45168, Note_on_c, 0, 68, 93
2, 45264, Note_on_c, 0, 68, 0
2, 45264, Note_on_c, 0, 67, 77
2, 45309, Note_on_c, 0, 67, 0
2, 45312, Note_on_c, 0, 72, 77
2, 45357, Note_on_c, 0, 72, 0
2, 45360, Note_on_c, 0, 65, 93
2, 45456, Note_on_c, 0, 65, 0
2, 45456, Note_on_c, 0, 63, 77
2, 45501, Note_on_c, 0, 63, 0
2, 45504, Note_on_c, 0, 62, 77
2, 45549, Note_on_c, 0, 62, 0
2, 45552, Note_on_c, 0, 68, 77
2, 45552, Note_on_c, 0, 65, 77
2, 45641, Note_on_c, 0, 68, 0
2, 45641, Note_on_c, 0, 65, 0
2, 45648, Note_on_c, 0, 67, 77
2, 45648, Note_on_c, 0, 63, 77
2, 45741, Note_on_c, 0, 67, 0
2, 45741, Note_on_c, 0, 63, 0
2, 45744, Note_on_c, 0, 65, 77
2, 45744, Note_on_c, 0, 62, 77
2, 45789, Note_on_c, 0, 65, 0
2, 45789, Note_on_c, 0, 62, 0
2, 45840, Note_on_c, 0, 70, 77
2, 45885, Note_on_c, 0, 70, 0
2, 45888, Note_on_c, 0, 69, 77
2, 45936, Note_on_c, 0, 69, 0
2, 45936, Note_on_c, 0, 70, 77
2, 45981, Note_on_c, 0, 70, 0
2, 46032, Note_on_c, 0, 70, 77
2, 46077, Note_on_c, 0, 70, 0
2, 46080, Note_on_c, 0, 69, 77
2, 46128, Note_on_c, 0, 69, 0
2, 46128, Note_on_c, 0, 70, 77
2, 46173, Note_on_c, 0, 70, 0
2, 46224, Note_on_c, 0, 70, 77
2, 46269, Note_on_c, 0, 70, 0
2, 46272, Note_on_c, 0, 69, 77
2, 46317, Note_on_c, 0, 69, 0
2, 46320, Note_on_c, 0, 75, 93
2, 46416, Note_on_c, 0, 75, 0
2, 46416, Note_on_c, 0, 74, 77
2, 46461, Note_on_c, 0, 74, 0
2, 46464, Note_on_c, 0, 67, 77
2, 46509, Note_on_c, 0, 67, 0
2, 46512, Note_on_c, 0, 72, 93
2, 46608, Note_on_c, 0, 72, 0
2, 46608, Note_on_c, 0, 70, 77
2, 46653, Note_on_c, 0, 70, 0
2, 46656, Note_on_c, 0, 67, 77
2, 46701, Note_on_c, 0, 67, 0
2, 46704, Note_on_c, 0, 79, 93
2, 46704, Note_on_c, 0, 75, 93
2, 46800, Note_on_c, 0, 79, 0
2, 46800, Note_on_c, 0, 75, 0
2, 46800, Note_on_c, 0, 72, 77
2, 46800, Note_on_c, 0, 69, 77
2, 46893, Note_on_c, 0, 72, 0
2, 46893, Note_on_c, 0, 69, 0
2, 46896, Note_on_c, 0, 74, 77
2, 46896, Note_on_c, 0, 70, 77
2, 46941, Note_on_c, 0, 74, 0
2, 46941, Note_on_c, 0, 70, 0
2, 46992, Note_on_c, 0, 74, 77
2, 47040, Note_on_c, 0, 74, 0
2, 47040, Note_on_c, 0, 77, 77
2, 47085, Note_on_c, 0, 77, 0
2, 47184, Note_on_c, 0, 68, 77
2, 47232, Note_on_c, 0, 68, 0
2, 47232, Note_on_c, 0, 67, 77
2, 47277, Note_on_c, 0, 67, 0
2, 47376, Note_on_c, 0, 70, 77
2, 47424, Note_on_c, 0, 70, 0
2, 47424, Note_on_c, 0, 72, 77
2, 47469, Note_on_c, 0, 72, 0
2, 47568, Note_on_c, 0, 63, 77
2, 47616, Note_on_c, 0, 63, 0
2, 47616, Note_on_c, 0, 62, 77
2, 47661, Note_on_c, 0, 62, 0
2, 47760, Note_on_c, 0, 58, 77
2, 47805, Note_on_c, 0, 58, 0
2, 47808, Note_on_c, 0, 60, 77
2, 47853, Note_on_c, 0, 60, 0
2, 47856, Note_on_c, 0, 65, 93
2, 47952, Note_on_c, 0, 65, 0
2, 47952, Note_on_c, 0, 63, 78
2, 47997, Note_on_c, 0, 63, 0
2, 48000, Note_on_c, 0, 62, 78
2, 48045, Note_on_c, 0, 62, 0
2, 48048, Note_on_c, 0, 68, 95
2, 48144, Note_on_c, 0, 68, 0
2, 48144, Note_on_c, 0, 67, 80
2, 48189, Note_on_c, 0, 67, 0
2, 48192, Note_on_c, 0, 65, 80
2, 48237, Note_on_c, 0, 65, 0
2, 48240, Note_on_c, 0, 72, 81
2, 48329, Note_on_c, 0, 72, 0
2, 48336, Note_on_c, 0, 70, 82
2, 48381, Note_on_c, 0, 70, 0
2, 48384, Note_on_c, 0, 68, 82
2, 48429, Note_on_c, 0, 68, 0
2, 48432, Note_on_c, 0, 80, 83
2, 48521, Note_on_c, 0, 80, 0
2, 48528, Note_on_c, 0, 79, 84
2, 48621, Note_on_c, 0, 79, 0
2, 48624, Note_on_c, 0, 77, 85
2, 48669, Note_on_c, 0, 77, 0
2, 48672, Note_on_c, 0, 80, 83
2, 48717, Note_on_c, 0, 80, 0
2, 48720, Note_on_c, 0, 74, 81
2, 48765, Note_on_c, 0, 74, 0
2, 48768, Note_on_c, 0, 77, 80
2, 48816, Note_on_c, 0, 77, 0
2, 48816, Note_on_c, 0, 75, 78
2, 48861, Note_on_c, 0, 75, 0
2, 48912, Note_on_c, 0, 74, 77
2, 48912, Note_on_c, 0, 65, 77
2, 48960, Note_on_c, 0, 74, 0
2, 48960, Note_on_c, 0, 65, 0
2, 48960, Note_on_c, 0, 77, 77
2, 48960, Note_on_c, 0, 68, 77
2, 49005, Note_on_c, 0, 77, 0
2, 49005, Note_on_c, 0, 68, 0
2, 49104, Note_on_c, 0, 68, 77
2, 49104, Note_on_c, 0, 65, 77
2, 49152, Note_on_c, 0, 68, 0
2, 49152, Note_on_c, 0, 65, 0
2, 49152, Note_on_c, 0, 67, 77
2, 49152, Note_on_c, 0, 63, 77
2, 49197, Note_on_c, 0, 67, 0
2, 49197, Note_on_c, 0, 63, 0
2, 49296, Note_on_c, 0, 70, 77
2, 49296, Note_on_c, 0, 67, 77
2, 49344, Note_on_c, 0, 70, 0
2, 49344, Note_on_c, 0, 67, 0
2, 49344, Note_on_c, 0, 72, 77
2, 49344, Note_on_c, 0, 68, 77
2, 49389, Note_on_c, 0, 72, 0
2, 49389, Note_on_c, 0, 68, 0
2, 49488, Note_on_c, 0, 63, 77
2, 49488, Note_on_c, 0, 60, 77
2, 49536, Note_on_c, 0, 63, 0
2, 49536, Note_on_c, 0, 60, 0
2, 49536, Note_on_c, 0, 62, 77
2, 49536, Note_on_c, 0, 58, 77
2, 49581, Note_on_c, 0, 62, 0
2, 49581, Note_on_c, 0, 58, 0
2, 49680, Note_on_c, 0, 58, 77
2, 49725, Note_on_c, 0, 58, 0
2, 49728, Note_on_c, 0, 60, 77
2, 49773, Note_on_c, 0, 60, 0
2, 49776, Note_on_c, 0, 65, 93
2, 49872, Note_on_c, 0, 65, 0
2, 49872, Note_on_c, 0, 63, 78
2, 49917, Note_on_c, 0, 63, 0
2, 49920, Note_on_c, 0, 62, 78
2, 49965, Note_on_c, 0, 62, 0
2, 49968, Note_on_c, 0, 68, 95
2, 50064, Note_on_c, 0, 68, 0
2, 50064, Note_on_c, 0, 67, 80
2, 50109, Note_on_c, 0, 67, 0
2, 50112, Note_on_c, 0, 65, 81
2, 50157, Note_on_c, 0, 65, 0
2, 50160, Note_on_c, 0, 72, 97
2, 50160, Note_on_c, 0, 68, 97
2, 50256, Note_on_c, 0, 72, 0
2, 50256, Note_on_c, 0, 68, 0
2, 50256, Note_on_c, 0, 70, 82
2, 50256, Note_on_c, 0, 67, 82
2, 50301, Note_on_c, 0, 70, 0
2, 50301, Note_on_c, 0, 67, 0
2, 50304, Note_on_c, 0, 68, 83
2, 50304, Note_on_c, 0, 65, 83
2, 50349, Note_on_c, 0, 68, 0
2, 50349, Note_on_c, 0, 65, 0
2, 50352, Note_on_c, 0, 84, 99
2, 50352, Note_on_c, 0, 80, 99
2, 50448, Note_on_c, 0, 84, 0
2, 50448, Note_on_c, 0, 80, 0
2, 50448, Note_on_c, 0, 82, 85
2, 50448, Note_on_c, 0, 79, 85
2, 50541, Note_on_c, 0, 82, 0
2, 50541, Note_on_c, 0, 79, 0
2, 50544, Note_on_c, 0, 80, 81
2, 50544, Note_on_c, 0, 77, 81
2, 50589, Note_on_c, 0, 80, 0
2, 50589, Note_on_c, 0, 77, 0
2, 50592, Note_on_c, 0, 79, 80
2, 50592, Note_on_c, 0, 75, 80
2, 50637, Note_on_c, 0, 79, 0
2, 50637, Note_on_c, 0, 75, 0
2, 50640, Note_on_c, 0, 77, 78
2, 50640, Note_on_c, 0, 74, 78
2, 50685, Note_on_c, 0, 77, 0
2, 50685, Note_on_c, 0, 74, 0
2, 50688, Note_on_c, 0, 75, 77
2, 50821, Note_on_c, 0, 75, 0
2, 50880, End_track
3, 0, Start_track
3, 0, Program_c, 0, 0
3, 0, Control_c, 0, 7, 127
3, 0, Control_c, 0, 10, 64
3, 19200, Note_on_c, 0, 61, 64
3, 19245, Note_on_c, 0, 61, 0
3, 19248, Note_on_c, 0, 62, 64
3, 19293, Note_on_c, 0, 62, 0
3, 19344, Note_on_c, 0, 82, 64
3, 19359, Note_on_c, 0, 82, 0
3, 19360, Note_on_c, 0, 84, 64
3, 19375, Note_on_c, 0, 84, 0
3, 19376, Note_on_c, 0, 82, 64
3, 19391, Note_on_c, 0, 82, 0
3, 30288, Note_on_c, 0, 63, 64
3, 30333, Note_on_c, 0, 63, 0
3, 30336, Note_on_c, 0, 69, 64
3, 30853, Note_on_c, 0, 69, 0
3, 30864, Note_on_c, 0, 65, 64
3, 30909, Note_on_c, 0, 65, 0
3, 31056, Note_on_c, 0, 68, 64
3, 31101, Note_on_c, 0, 68, 0
3, 31104, Note_on_c, 0, 72, 64
3, 31621, Note_on_c, 0, 72, 0
3, 50880, End_track
4, 0, Start_track
4, 0, Program_c, 1, 1
4, 0, Control_c, 1, 7, 127
4, 0, Control_c, 1, 10, 64
4, 22464, Note_on_c, 1, 44, 77
4, 22641, Note_on_c, 1, 44, 0
4, 22656, Note_on_c, 1, 46, 79
4, 22833, Note_on_c, 1, 46, 0
4, 22848, Note_on_c, 1, 48, 81
4, 23025, Note_on_c, 1, 48, 0
4, 23040, Note_on_c, 1, 50, 83
4, 23129, Note_on_c, 1, 50, 0
4, 23136, Note_on_c, 1, 51, 85
4, 23225, Note_on_c, 1, 51, 0
4, 24384, Note_on_c, 1, 44, 77
4, 24561, Note_on_c, 1, 44, 0
4, 24576, Note_on_c, 1, 46, 79
4, 24753, Note_on_c, 1, 46, 0
4, 24768, Note_on_c, 1, 48, 81
4, 24945, Note_on_c, 1, 48, 0
4, 24960, Note_on_c, 1, 50, 83
4, 25049, Note_on_c, 1, 50, 0
4, 25056, Note_on_c, 1, 51, 85
4, 25145, Note_on_c, 1, 51, 0
4, 30192, Note_on_c, 1, 47, 85
4, 30853, Note_on_c, 1, 47, 0
4, 30960, Note_on_c, 1, 46, 85
4, 31621, Note_on_c, 1, 46, 0
4, 31728, Note_on_c, 1, 63, 85
4, 31776, Note_on_c, 1, 63, 0
4, 31776, Note_on_c, 1, 67, 85
4, 31821, Note_on_c, 1, 67, 0
4, 31920, Note_on_c, 1, 62, 85
4, 31968, Note_on_c, 1, 62, 0
4, 31968, Note_on_c, 1, 65, 85
4, 32013, Note_on_c, 1, 65, 0
4, 32112, Note_on_c, 1, 60, 85
4, 32160, Note_on_c, 1, 60, 0
4, 32160, Note_on_c, 1, 58, 85
4, 32205, Note_on_c, 1, 58, 0
4, 32304, Note_on_c, 1, 56, 85
4, 32352, Note_on_c, 1, 56, 0
4, 32352, Note_on_c, 1, 55, 85
4, 32397, Note_on_c, 1, 55, 0
4, 32496, Note_on_c, 1, 53, 85
4, 32541, Note_on_c, 1, 53, 0
4, 32544, Note_on_c, 1, 50, 85
4, 32592, Note_on_c, 1, 50, 0
4, 32592, Note_on_c, 1, 51, 85
4, 32637, Note_on_c, 1, 51, 0
4, 32640, Note_on_c, 1, 46, 85
4, 32685, Note_on_c, 1, 46, 0
4, 32688, Note_on_c, 1, 58, 85
4, 32733, Note_on_c, 1, 58, 0
4, 32736, Note_on_c, 1, 46, 85
4, 32781, Note_on_c, 1, 46, 0
4, 32880, Note_on_c, 1, 56, 85
4, 32928, Note_on_c, 1, 56, 0
4, 32928, Note_on_c, 1, 55, 86
4, 32973, Note_on_c, 1, 55, 0
4, 33072, Note_on_c, 1, 60, 87
4, 33120, Note_on_c, 1, 60, 0
4, 33120, Note_on_c, 1, 58, 88
4, 33165, Note_on_c, 1, 58, 0
4, 33264, Note_on_c, 1, 68, 90
4, 33312, Note_on_c, 1, 68, 0
4, 33312, Note_on_c, 1, 67, 90
4, 33357, Note_on_c, 1, 67, 0
4, 33456, Note_on_c, 1, 65, 92
4, 33501, Note_on_c, 1, 65, 0
4, 33504, Note_on_c, 1, 62, 93
4, 33549, Note_on_c, 1, 62, 0
4, 33552, Note_on_c, 1, 63, 93
4, 33597, Note_on_c, 1, 63, 0
4, 33984, Note_on_c, 1, 63, 93
4, 34073, Note_on_c, 1, 63, 0
4, 34128, Note_on_c, 1, 63, 93
4, 34173, Note_on_c, 1, 63, 0
4, 34176, Note_on_c, 1, 62, 93
4, 34265, Note_on_c, 1, 62, 0
4, 34320, Note_on_c, 1, 62, 93
4, 34365, Note_on_c, 1, 62, 0
4, 34368, Note_on_c, 1, 60, 93
4, 34457, Note_on_c, 1, 60, 0
4, 34464, Note_on_c, 1, 58, 93
4, 34553, Note_on_c, 1, 58, 0
4, 34560, Note_on_c, 1, 56, 93
4, 34649, Note_on_c, 1, 56, 0
4, 34656, Note_on_c, 1, 55, 93
4, 34745, Note_on_c, 1, 55, 0
4, 34752, Note_on_c, 1, 53, 93
4, 34841, Note_on_c, 1, 53, 0
4, 34848, Note_on_c, 1, 50, 93
4, 34893, Note_on_c, 1, 50, 0
4, 34896, Note_on_c, 1, 51, 93
4, 34941, Note_on_c, 1, 51, 0
4, 34944, Note_on_c, 1, 46, 93
4, 34989, Note_on_c, 1, 46, 0
4, 34992, Note_on_c, 1, 58, 93
4, 35037, Note_on_c, 1, 58, 0
4, 35040, Note_on_c, 1, 46, 93
4, 35085, Note_on_c, 1, 46, 0
4, 35136, Note_on_c, 1, 63, 93
4, 35225, Note_on_c, 1, 63, 0
4, 35280, Note_on_c, 1, 63, 93
4, 35325, Note_on_c, 1, 63, 0
4, 35328, Note_on_c, 1, 62, 93
4, 35417, Note_on_c, 1, 62, 0
4, 35472, Note_on_c, 1, 62, 93
4, 35517, Note_on_c, 1, 62, 0
4, 35520, Note_on_c, 1, 60, 93
4, 35609, Note_on_c, 1, 60, 0
4, 35616, Note_on_c, 1, 58, 99
4, 35655, Note_on_c, 1, 58, 0
4, 35712, Note_on_c, 1, 63, 106
4, 35751, Note_on_c, 1, 63, 0
4, 35808, Note_on_c, 1, 62, 112
4, 35847, Note_on_c, 1, 62, 0
4, 35904, Note_on_c, 1, 63, 119
4, 35993, Note_on_c, 1, 63, 0
4, 36048, Note_on_c, 1, 60, 115
4, 36048, Note_on_c, 1, 53, 115
4, 36093, Note_on_c, 1, 60, 0
4, 36093, Note_on_c, 1, 53, 0
4, 36096, Note_on_c, 1, 46, 104
4, 36141, Note_on_c, 1, 46, 0
4, 36144, Note_on_c, 1, 58, 93
4, 36189, Note_on_c, 1, 58, 0
4, 36192, Note_on_c, 1, 46, 93
4, 36237, Note_on_c, 1, 46, 0
4, 36288, Note_on_c, 1, 63, 93
4, 36377, Note_on_c, 1, 63, 0
4, 36432, Note_on_c, 1, 63, 93
4, 36477, Note_on_c, 1, 63, 0
4, 36480, Note_on_c, 1, 62, 93
4, 36569, Note_on_c, 1, 62, 0
4, 36624, Note_on_c, 1, 62, 93
4, 36669, Note_on_c, 1, 62, 0
4, 36672, Note_on_c, 1, 60, 93
4, 36761, Note_on_c, 1, 60, 0
4, 36768, Note_on_c, 1, 58, 93
4, 36857, Note_on_c, 1, 58, 0
4, 36864, Note_on_c, 1, 56, 93
4, 36953, Note_on_c, 1, 56, 0
4, 36960, Note_on_c, 1, 55, 93
4, 37049, Note_on_c, 1, 55, 0
4, 37056, Note_on_c, 1, 53, 93
4, 37145, Note_on_c, 1, 53, 0
4, 37152, Note_on_c, 1, 50, 93
4, 37197, Note_on_c, 1, 50, 0
4, 37200, Note_on_c, 1, 51, 93
4, 37245, Note_on_c, 1, 51, 0
4, 37248, Note_on_c, 1, 46, 93
4, 37293, Note_on_c, 1, 46, 0
4, 37296, Note_on_c, 1, 58, 93
4, 37341, Note_on_c, 1, 58, 0
4, 37344, Note_on_c, 1, 46, 93
4, 37389, Note_on_c, 1, 46, 0
4, 37440, Note_on_c, 1, 63, 93
4, 37529, Note_on_c, 1, 63, 0
4, 37584, Note_on_c, 1, 63, 93
4, 37629, Note_on_c, 1, 63, 0
4, 37632, Note_on_c, 1, 62, 93
4, 37721, Note_on_c, 1, 62, 0
4, 37776, Note_on_c, 1, 62, 93
4, 37821, Note_on_c, 1, 62, 0
4, 37824, Note_on_c, 1, 60, 93
4, 37913, Note_on_c, 1, 60, 0
4, 37920, Note_on_c, 1, 58, 99
4, 37959, Note_on_c, 1, 58, 0
4, 38016, Note_on_c, 1, 63, 106
4, 38055, Note_on_c, 1, 63, 0
4, 38112, Note_on_c, 1, 62, 112
4, 38151, Note_on_c, 1, 62, 0
4, 38208, Note_on_c, 1, 63, 119
4, 38297, Note_on_c, 1, 63, 0
4, 38352, Note_on_c, 1, 60, 115
4, 38352, Note_on_c, 1, 53, 115
4, 38397, Note_on_c, 1, 60, 0
4, 38397, Note_on_c, 1, 53, 0
4, 38400, Note_on_c, 1, 46, 104
4, 38445, Note_on_c, 1, 46, 0
4, 38448, Note_on_c, 1, 58, 93
4, 38493, Note_on_c, 1, 58, 0
4, 38496, Note_on_c, 1, 46, 93
4, 38541, Note_on_c, 1, 46, 0
4, 40128, Note_on_c, 1, 44, 93
4, 40217, Note_on_c, 1, 44, 0
4, 40224, Note_on_c, 1, 46, 93
4, 40269, Note_on_c, 1, 46, 0
4, 40272, Note_on_c, 1, 46, 93
4, 40317, Note_on_c, 1, 46, 0
4, 40320, Note_on_c, 1, 51, 93
4, 40365, Note_on_c, 1, 51, 0
4, 40368, Note_on_c, 1, 46, 93
4, 40413, Note_on_c, 1, 46, 0
4, 40416, Note_on_c, 1, 39, 93
4, 40461, Note_on_c, 1, 39, 0
4, 42048, Note_on_c, 1, 44, 93
4, 42137, Note_on_c, 1, 44, 0
4, 42144, Note_on_c, 1, 46, 93
4, 42189, Note_on_c, 1, 46, 0
4, 42192, Note_on_c, 1, 46, 93
4, 42237, Note_on_c, 1, 46, 0
4, 42240, Note_on_c, 1, 51, 93
4, 42285, Note_on_c, 1, 51, 0
4, 42288, Note_on_c, 1, 46, 93
4, 42333, Note_on_c, 1, 46, 0
4, 42336, Note_on_c, 1, 39, 93
4, 42381, Note_on_c, 1, 39, 0
4, 42480, Note_on_c, 1, 63, 93
4, 42528, Note_on_c, 1, 63, 0
4, 42528, Note_on_c, 1, 67, 93
4, 42573, Note_on_c, 1, 67, 0
4, 42672, Note_on_c, 1, 62, 93
4, 42720, Note_on_c, 1, 62, 0
4, 42720, Note_on_c, 1, 65, 93
4, 42765, Note_on_c, 1, 65, 0
4, 42864, Note_on_c, 1, 60, 93
4, 42912, Note_on_c, 1, 60, 0
4, 42912, Note_on_c, 1, 58, 93
4, 42957, Note_on_c, 1, 58, 0
4, 43632, Note_on_c, 1, 63, 93
4, 43680, Note_on_c, 1, 63, 0
4, 43680, Note_on_c, 1, 67, 93
4, 43725, Note_on_c, 1, 67, 0
4, 44592, Note_on_c, 1, 58, 93
4, 44637, Note_on_c, 1, 58, 0
4, 44640, Note_on_c, 1, 46, 93
4, 44685, Note_on_c, 1, 46, 0
4, 44784, Note_on_c, 1, 67, 70
4, 44784, Note_on_c, 1, 63, 70
4, 44829, Note_on_c, 1, 67, 0
4, 44829, Note_on_c, 1, 63, 0
4, 44832, Note_on_c, 1, 66, 70
4, 44832, Note_on_c, 1, 62, 70
4, 44877, Note_on_c, 1, 66, 0
4, 44877, Note_on_c, 1, 62, 0
4, 44880, Note_on_c, 1, 67, 70
4, 44880, Note_on_c, 1, 63, 70
4, 44925, Note_on_c, 1, 67, 0
4, 44925, Note_on_c, 1, 63, 0
4, 44976, Note_on_c, 1, 65, 70
4, 44976, Note_on_c, 1, 62, 70
4, 45021, Note_on_c, 1, 65, 0
4, 45021, Note_on_c, 1, 62, 0
4, 45024, Note_on_c, 1, 64, 70
4, 45024, Note_on_c, 1, 61, 70
4, 45069, Note_on_c, 1, 64, 0
4, 45069, Note_on_c, 1, 61, 0
4, 45072, Note_on_c, 1, 65, 70
4, 45072, Note_on_c, 1, 62, 70
4, 45117, Note_on_c, 1, 65, 0
4, 45117, Note_on_c, 1, 62, 0
4, 45168, Note_on_c, 1, 63, 70
4, 45168, Note_on_c, 1, 60, 70
4, 45216, Note_on_c, 1, 63, 0
4, 45216, Note_on_c, 1, 60, 0
4, 45216, Note_on_c, 1, 62, 70
4, 45216, Note_on_c, 1, 58, 70
4, 45261, Note_on_c, 1, 62, 0
4, 45261, Note_on_c, 1, 58, 0
4, 45360, Note_on_c, 1, 60, 70
4, 45360, Note_on_c, 1, 56, 70
4, 45408, Note_on_c, 1, 60, 0
4, 45408, Note_on_c, 1, 56, 0
4, 45408, Note_on_c, 1, 58, 70
4, 45408, Note_on_c, 1, 55, 70
4, 45453, Note_on_c, 1, 58, 0
4, 45453, Note_on_c, 1, 55, 0
4, 45552, Note_on_c, 1, 53, 70
4, 45597, Note_on_c, 1, 53, 0
4, 45600, Note_on_c, 1, 50, 70
4, 45645, Note_on_c, 1, 50, 0
4, 45648, Note_on_c, 1, 51, 70
4, 45693, Note_on_c, 1, 51, 0
4, 45696, Note_on_c, 1, 46, 70
4, 45741, Note_on_c, 1, 46, 0
4, 45744, Note_on_c, 1, 58, 70
4, 45789, Note_on_c, 1, 58, 0
4, 45792, Note_on_c, 1, 46, 70
4, 45837, Note_on_c, 1, 46, 0
4, 45936, Note_on_c, 1, 67, 70
4, 45936, Note_on_c, 1, 63, 70
4, 45981, Note_on_c, 1, 67, 0
4, 45981, Note_on_c, 1, 63, 0
4, 45984, Note_on_c, 1, 66, 70
4, 45984, Note_on_c, 1, 62, 70
4, 46029, Note_on_c, 1, 66, 0
4, 46029, Note_on_c, 1, 62, 0
4, 46032, Note_on_c, 1, 67, 70
4, 46032, Note_on_c, 1, 63, 70
4, 46077, Note_on_c, 1, 67, 0
4, 46077, Note_on_c, 1, 63, 0
4, 46128, Note_on_c, 1, 65, 70
4, 46128, Note_on_c, 1, 62, 70
4, 46173, Note_on_c, 1, 65, 0
4, 46173, Note_on_c, 1, 62, 0
4, 46176, Note_on_c, 1, 64, 70
4, 46176, Note_on_c, 1, 61, 70
4, 46221, Note_on_c, 1, 64, 0
4, 46221, Note_on_c, 1, 61, 0
4, 46224, Note_on_c, 1, 65, 70
4, 46224, Note_on_c, 1, 62, 70
4, 46269, Note_on_c, 1, 65, 0
4, 46269, Note_on_c, 1, 62, 0
4, 46320, Note_on_c, 1, 60, 70
4, 46368, Note_on_c, 1, 60, 0
4, 46368, Note_on_c, 1, 58, 70
4, 46413, Note_on_c, 1, 58, 0
4, 46512, Note_on_c, 1, 67, 70
4, 46512, Note_on_c, 1, 63, 70
4, 46560, Note_on_c, 1, 67, 0
4, 46560, Note_on_c, 1, 63, 0
4, 46560, Note_on_c, 1, 65, 70
4, 46560, Note_on_c, 1, 62, 70
4, 46605, Note_on_c, 1, 65, 0
4, 46605, Note_on_c, 1, 62, 0
4, 46704, Note_on_c, 1, 63, 70
4, 46749, Note_on_c, 1, 63, 0
4, 46752, Note_on_c, 1, 60, 70
4, 46797, Note_on_c, 1, 60, 0
4, 46800, Note_on_c, 1, 65, 70
4, 46845, Note_on_c, 1, 65, 0
4, 46848, Note_on_c, 1, 58, 70
4, 46937, Note_on_c, 1, 58, 0
4, 46944, Note_on_c, 1, 46, 70
4, 47033, Note_on_c, 1, 46, 0
4, 47856, Note_on_c, 1, 56, 70
4, 47904, Note_on_c, 1, 56, 0
4, 47904, Note_on_c, 1, 55, 70
4, 47949, Note_on_c, 1, 55, 0
4, 49008, Note_on_c, 1, 46, 70
4, 49056, Note_on_c, 1, 46, 0
4, 49056, Note_on_c, 1, 58, 70
4, 49101, Note_on_c, 1, 58, 0
4, 49200, Note_on_c, 1, 39, 70
4, 49248, Note_on_c, 1, 39, 0
4, 49248, Note_on_c, 1, 51, 70
4, 49293, Note_on_c, 1, 51, 0
4, 49392, Note_on_c, 1, 32, 70
4, 49440, Note_on_c, 1, 32, 0
4, 49440, Note_on_c, 1, 44, 70
4, 49485, Note_on_c, 1, 44, 0
4, 49584, Note_on_c, 1, 34, 70
4, 49632, Note_on_c, 1, 34, 0
4, 49632, Note_on_c, 1, 46, 70
4, 49677, Note_on_c, 1, 46, 0
4, 49776, Note_on_c, 1, 60, 70
4, 49776, Note_on_c, 1, 56, 70
4, 49824, Note_on_c, 1, 60, 0
4, 49824, Note_on_c, 1, 56, 0
4, 49824, Note_on_c, 1, 58, 70
4, 49824, Note_on_c, 1, 55, 70
4, 49869, Note_on_c, 1, 58, 0
4, 49869, Note_on_c, 1, 55, 0
4, 49968, Note_on_c, 1, 63, 72
4, 49968, Note_on_c, 1, 60, 72
4, 50016, Note_on_c, 1, 63, 0
4, 50016, Note_on_c, 1, 60, 0
4, 50016, Note_on_c, 1, 62, 72
4, 50016, Note_on_c, 1, 58, 72
4, 50061, Note_on_c, 1, 62, 0
4, 50061, Note_on_c, 1, 58, 0
4, 50160, Note_on_c, 1, 62, 74
4, 50208, Note_on_c, 1, 62, 0
4, 50208, Note_on_c, 1, 63, 75
4, 50253, Note_on_c, 1, 63, 0
4, 50352, Note_on_c, 1, 50, 77
4, 50400, Note_on_c, 1, 50, 0
4, 50400, Note_on_c, 1, 51, 77
4, 50445, Note_on_c, 1, 51, 0
4, 50496, Note_on_c, 1, 56, 75
4, 50496, Note_on_c, 1, 44, 75
4, 50585, Note_on_c, 1, 56, 0
4, 50585, Note_on_c, 1, 44, 0
4, 50592, Note_on_c, 1, 58, 72
4, 50592, Note_on_c, 1, 46, 72
4, 50681, Note_on_c, 1, 58, 0
4, 50681, Note_on_c, 1, 46, 0
4, 50688, Note_on_c, 1, 51, 70
4, 50688, Note_on_c, 1, 39, 70
4, 50821, Note_on_c, 1, 51, 0
4, 50821, Note_on_c, 1, 39, 0
4, 50880, Note_on_c, 1, 51, 54
4, 50969, Note_on_c, 1, 51, 0
4, 50976, End_track
5, 0, Start_track
5, 0, Program_c, 1, 1
5, 0, Control_c, 1, 7, 127
5, 0, Control_c, 1, 10, 64
5, 240, Note_on_c, 1, 63, 64
5, 288, Note_on_c, 1, 63, 0
5, 288, Note_on_c, 1, 67, 64
5, 333, Note_on_c, 1, 67, 0
5, 432, Note_on_c, 1, 62, 64
5, 480, Note_on_c, 1, 62, 0
5, 480, Note_on_c, 1, 65, 64
5, 525, Note_on_c, 1, 65, 0
5, 624, Note_on_c, 1, 60, 64
5, 672, Note_on_c, 1, 60, 0
5, 672, Note_on_c, 1, 58, 64
5, 717, Note_on_c, 1, 58, 0
5, 816, Note_on_c, 1, 56, 64
5, 864, Note_on_c, 1, 56, 0
5, 864, Note_on_c, 1, 55, 64
5, 909, Note_on_c, 1, 55, 0
5, 1008, Note_on_c, 1, 53, 64
5, 1053, Note_on_c, 1, 53, 0
5, 1056, Note_on_c, 1, 50, 64
5, 1101, Note_on_c, 1, 50, 0
5, 1104, Note_on_c, 1, 51, 64
5, 1149, Note_on_c, 1, 51, 0
5, 1152, Note_on_c, 1, 46, 64
5, 1197, Note_on_c, 1, 46, 0
5, 1200, Note_on_c, 1, 58, 64
5, 1245, Note_on_c, 1, 58, 0
5, 1248, Note_on_c, 1, 46, 64
5, 1293, Note_on_c, 1, 46, 0
5, 1392, Note_on_c, 1, 63, 64
5, 1440, Note_on_c, 1, 63, 0
5, 1440, Note_on_c, 1, 67, 64
5, 1485, Note_on_c, 1, 67, 0
5, 1584, Note_on_c, 1, 62, 64
5, 1632, Note_on_c, 1, 62, 0
5, 1632, Note_on_c, 1, 65, 64
5, 1677, Note_on_c, 1, 65, 0
5, 1776, Note_on_c, 1, 60, 64
5, 1824, Note_on_c, 1, 60, 0
5, 1824, Note_on_c, 1, 58, 64
5, 1869, Note_on_c, 1, 58, 0
5, 1968, Note_on_c, 1, 63, 64
5, 2016, Note_on_c, 1, 63, 0
5, 2016, Note_on_c, 1, 62, 64
5, 2061, Note_on_c, 1, 62, 0
5, 2160, Note_on_c, 1, 63, 64
5, 2205, Note_on_c, 1, 63, 0
5, 2208, Note_on_c, 1, 60, 64
5, 2253, Note_on_c, 1, 60, 0
5, 2256, Note_on_c, 1, 65, 64
5, 2301, Note_on_c, 1, 65, 0
5, 2352, Note_on_c, 1, 58, 64
5, 2397, Note_on_c, 1, 58, 0
5, 2400, Note_on_c, 1, 46, 64
5, 2445, Note_on_c, 1, 46, 0
5, 2544, Note_on_c, 1, 63, 64
5, 2592, Note_on_c, 1, 63, 0
5, 2592, Note_on_c, 1, 67, 64
5, 2637, Note_on_c, 1, 67, 0
5, 2736, Note_on_c, 1, 62, 64
5, 2784, Note_on_c, 1, 62, 0
5, 2784, Note_on_c, 1, 65, 64
5, 2829, Note_on_c, 1, 65, 0
5, 2928, Note_on_c, 1, 60, 64
5, 2976, Note_on_c, 1, 60, 0
5, 2976, Note_on_c, 1, 58, 64
5, 3021, Note_on_c, 1, 58, 0
5, 3120, Note_on_c, 1, 56, 64
5, 3168, Note_on_c, 1, 56, 0
5, 3168, Note_on_c, 1, 55, 64
5, 3213, Note_on_c, 1, 55, 0
5, 3312, Note_on_c, 1, 53, 64
5, 3357, Note_on_c, 1, 53, 0
5, 3360, Note_on_c, 1, 50, 64
5, 3405, Note_on_c, 1, 50, 0
5, 3408, Note_on_c, 1, 51, 64
5, 3453, Note_on_c, 1, 51, 0
5, 3456, Note_on_c, 1, 46, 64
5, 3501, Note_on_c, 1, 46, 0
5, 3504, Note_on_c, 1, 58, 64
5, 3549, Note_on_c, 1, 58, 0
5, 3552, Note_on_c, 1, 46, 64
5, 3597, Note_on_c, 1, 46, 0
5, 3696, Note_on_c, 1, 63, 64
5, 3744, Note_on_c, 1, 63, 0
5, 3744, Note_on_c, 1, 67, 64
5, 3789, Note_on_c, 1, 67, 0
5, 3888, Note_on_c, 1, 62, 64
5, 3936, Note_on_c, 1, 62, 0
5, 3936, Note_on_c, 1, 65, 64
5, 3981, Note_on_c, 1, 65, 0
5, 4080, Note_on_c, 1, 60, 64
5, 4128, Note_on_c, 1, 60, 0
5, 4128, Note_on_c, 1, 58, 64
5, 4173, Note_on_c, 1, 58, 0
5, 4272, Note_on_c, 1, 63, 64
5, 4320, Note_on_c, 1, 63, 0
5, 4320, Note_on_c, 1, 62, 64
5, 4365, Note_on_c, 1, 62, 0
5, 4464, Note_on_c, 1, 63, 64
5, 4509, Note_on_c, 1, 63, 0
5, 4512, Note_on_c, 1, 60, 64
5, 4557, Note_on_c, 1, 60, 0
5, 4560, Note_on_c, 1, 65, 64
5, 4605, Note_on_c, 1, 65, 0
5, 4656, Note_on_c, 1, 58, 64
5, 4701, Note_on_c, 1, 58, 0
5, 4704, Note_on_c, 1, 46, 64
5, 4749, Note_on_c, 1, 46, 0
5, 4848, Note_on_c, 1, 58, 64
5, 4896, Note_on_c, 1, 58, 0
5, 4896, Note_on_c, 1, 62, 64
5, 4941, Note_on_c, 1, 62, 0
5, 5040, Note_on_c, 1, 63, 64
5, 5088, Note_on_c, 1, 63, 0
5, 5088, Note_on_c, 1, 67, 64
5, 5133, Note_on_c, 1, 67, 0
5, 5232, Note_on_c, 1, 56, 64
5, 5280, Note_on_c, 1, 56, 0
5, 5280, Note_on_c, 1, 60, 64
5, 5325, Note_on_c, 1, 60, 0
5, 5424, Note_on_c, 1, 58, 64
5, 5469, Note_on_c, 1, 58, 0
5, 5472, Note_on_c, 1, 46, 64
5, 5517, Note_on_c, 1, 46, 0
5, 5616, Note_on_c, 1, 56, 64
5, 5664, Note_on_c, 1, 56, 0
5, 5664, Note_on_c, 1, 53, 64
5, 5709, Note_on_c, 1, 53, 0
5, 5808, Note_on_c, 1, 60, 64
5, 5856, Note_on_c, 1, 60, 0
5, 5856, Note_on_c, 1, 58, 64
5, 5901, Note_on_c, 1, 58, 0
5, 6000, Note_on_c, 1, 68, 64
5, 6048, Note_on_c, 1, 68, 0
5, 6048, Note_on_c, 1, 67, 64
5, 6093, Note_on_c, 1, 67, 0
5, 6192, Note_on_c, 1, 65, 64
5, 6237, Note_on_c, 1, 65, 0
5, 6240, Note_on_c, 1, 62, 64
5, 6285, Note_on_c, 1, 62, 0
5, 6288, Note_on_c, 1, 63, 64
5, 6333, Note_on_c, 1, 63, 0
5, 6336, Note_on_c, 1, 56, 64
5, 6425, Note_on_c, 1, 56, 0
5, 6480, Note_on_c, 1, 58, 64
5, 6525, Note_on_c, 1, 58, 0
5, 6528, Note_on_c, 1, 51, 64
5, 6573, Note_on_c, 1, 51, 0
5, 6576, Note_on_c, 1, 63, 64
5, 6621, Note_on_c, 1, 63, 0
5, 6624, Note_on_c, 1, 51, 64
5, 6669, Note_on_c, 1, 51, 0
5, 6768, Note_on_c, 1, 58, 64
5, 6816, Note_on_c, 1, 58, 0
5, 6816, Note_on_c, 1, 62, 64
5, 6861, Note_on_c, 1, 62, 0
5, 6960, Note_on_c, 1, 63, 64
5, 7008, Note_on_c, 1, 63, 0
5, 7008, Note_on_c, 1, 67, 64
5, 7053, Note_on_c, 1, 67, 0
5, 7152, Note_on_c, 1, 56, 64
5, 7200, Note_on_c, 1, 56, 0
5, 7200, Note_on_c, 1, 60, 64
5, 7245, Note_on_c, 1, 60, 0
5, 7344, Note_on_c, 1, 58, 64
5, 7389, Note_on_c, 1, 58, 0
5, 7392, Note_on_c, 1, 46, 64
5, 7437, Note_on_c, 1, 46, 0
5, 7536, Note_on_c, 1, 56, 64
5, 7584, Note_on_c, 1, 56, 0
5, 7584, Note_on_c, 1, 53, 64
5, 7629, Note_on_c, 1, 53, 0
5, 7728, Note_on_c, 1, 60, 64
5, 7776, Note_on_c, 1, 60, 0
5, 7776, Note_on_c, 1, 58, 64
5, 7821, Note_on_c, 1, 58, 0
5, 7920, Note_on_c, 1, 68, 64
5, 7968, Note_on_c, 1, 68, 0
5, 7968, Note_on_c, 1, 67, 64
5, 8013, Note_on_c, 1, 67, 0
5, 8112, Note_on_c, 1, 65, 64
5, 8157, Note_on_c, 1, 65, 0
5, 8160, Note_on_c, 1, 62, 64
5, 8205, Note_on_c, 1, 62, 0
5, 8208, Note_on_c, 1, 63, 64
5, 8253, Note_on_c, 1, 63, 0
5, 8256, Note_on_c, 1, 56, 64
5, 8345, Note_on_c, 1, 56, 0
5, 8400, Note_on_c, 1, 58, 64
5, 8445, Note_on_c, 1, 58, 0
5, 8448, Note_on_c, 1, 51, 64
5, 8493, Note_on_c, 1, 51, 0
5, 8496, Note_on_c, 1, 63, 64
5, 8541, Note_on_c, 1, 63, 0
5, 8544, Note_on_c, 1, 51, 64
5, 8589, Note_on_c, 1, 51, 0
5, 8736, Note_on_c, 1, 51, 64
5, 8756, Note_on_c, 1, 51, 0
5, 8928, Note_on_c, 1, 58, 64
5, 8948, Note_on_c, 1, 58, 0
5, 9024, Note_on_c, 1, 72, 85
5, 9113, Note_on_c, 1, 72, 0
5, 9120, Note_on_c, 1, 70, 83
5, 9209, Note_on_c, 1, 70, 0
5, 9216, Note_on_c, 1, 68, 82
5, 9305, Note_on_c, 1, 68, 0
5, 9312, Note_on_c, 1, 67, 81
5, 9401, Note_on_c, 1, 67, 0
5, 9408, Note_on_c, 1, 65, 80
5, 9552, Note_on_c, 1, 65, 0
5, 9552, Note_on_c, 1, 63, 78
5, 9597, Note_on_c, 1, 63, 0
5, 9600, Note_on_c, 1, 62, 78
5, 9689, Note_on_c, 1, 62, 0
5, 9888, Note_on_c, 1, 51, 77
5, 9908, Note_on_c, 1, 51, 0
5, 10080, Note_on_c, 1, 58, 77
5, 10100, Note_on_c, 1, 58, 0
5, 10272, Note_on_c, 1, 53, 77
5, 10292, Note_on_c, 1, 53, 0
5, 10464, Note_on_c, 1, 53, 77
5, 10484, Note_on_c, 1, 53, 0
5, 10560, Note_on_c, 1, 51, 77
5, 10583, Note_on_c, 1, 51, 0
5, 10584, Note_on_c, 1, 63, 77
5, 10607, Note_on_c, 1, 63, 0
5, 10704, Note_on_c, 1, 53, 77
5, 10749, Note_on_c, 1, 53, 0
5, 10752, Note_on_c, 1, 46, 77
5, 10797, Note_on_c, 1, 46, 0
5, 10800, Note_on_c, 1, 58, 77
5, 10845, Note_on_c, 1, 58, 0
5, 10848, Note_on_c, 1, 46, 77
5, 10893, Note_on_c, 1, 46, 0
5, 11040, Note_on_c, 1, 51, 64
5, 11060, Note_on_c, 1, 51, 0
5, 11232, Note_on_c, 1, 58, 64
5, 11252, Note_on_c, 1, 58, 0
5, 11328, Note_on_c, 1, 72, 85
5, 11417, Note_on_c, 1, 72, 0
5, 11424, Note_on_c, 1, 70, 83
5, 11513, Note_on_c, 1, 70, 0
5, 11520, Note_on_c, 1, 68, 82
5, 11609, Note_on_c, 1, 68, 0
5, 11616, Note_on_c, 1, 67, 81
5, 11705, Note_on_c, 1, 67, 0
5, 11712, Note_on_c, 1, 65, 80
5, 11856, Note_on_c, 1, 65, 0
5, 11856, Note_on_c, 1, 63, 78
5, 11901, Note_on_c, 1, 63, 0
5, 11904, Note_on_c, 1, 62, 78
5, 11993, Note_on_c, 1, 62, 0
5, 12192, Note_on_c, 1, 51, 77
5, 12212, Note_on_c, 1, 51, 0
5, 12384, Note_on_c, 1, 58, 77
5, 12404, Note_on_c, 1, 58, 0
5, 12576, Note_on_c, 1, 53, 77
5, 12596, Note_on_c, 1, 53, 0
5, 12768, Note_on_c, 1, 53, 77
5, 12788, Note_on_c, 1, 53, 0
5, 12864, Note_on_c, 1, 51, 77
5, 12887, Note_on_c, 1, 51, 0
5, 12888, Note_on_c, 1, 63, 77
5, 12911, Note_on_c, 1, 63, 0
5, 13008, Note_on_c, 1, 53, 77
5, 13053, Note_on_c, 1, 53, 0
5, 13056, Note_on_c, 1, 46, 77
5, 13101, Note_on_c, 1, 46, 0
5, 13104, Note_on_c, 1, 58, 77
5, 13149, Note_on_c, 1, 58, 0
5, 13152, Note_on_c, 1, 46, 77
5, 13197, Note_on_c, 1, 46, 0
5, 13344, Note_on_c, 1, 58, 77
5, 13364, Note_on_c, 1, 58, 0
5, 13536, Note_on_c, 1, 51, 77
5, 13556, Note_on_c, 1, 51, 0
5, 13728, Note_on_c, 1, 56, 77
5, 13748, Note_on_c, 1, 56, 0
5, 13872, Note_on_c, 1, 53, 77
5, 13895, Note_on_c, 1, 53, 0
5, 13896, Note_on_c, 1, 50, 77
5, 13919, Note_on_c, 1, 50, 0
5, 13920, Note_on_c, 1, 46, 77
5, 13965, Note_on_c, 1, 46, 0
5, 13968, Note_on_c, 1, 34, 77
5, 14013, Note_on_c, 1, 34, 0
5, 14016, Note_on_c, 1, 56, 77
5, 14149, Note_on_c, 1, 56, 0
5, 14160, Note_on_c, 1, 55, 78
5, 14205, Note_on_c, 1, 55, 0
5, 14208, Note_on_c, 1, 60, 79
5, 14341, Note_on_c, 1, 60, 0
5, 14352, Note_on_c, 1, 58, 80
5, 14397, Note_on_c, 1, 58, 0
5, 14400, Note_on_c, 1, 68, 81
5, 14533, Note_on_c, 1, 68, 0
5, 14544, Note_on_c, 1, 67, 82
5, 14589, Note_on_c, 1, 67, 0
5, 14592, Note_on_c, 1, 65, 83
5, 14725, Note_on_c, 1, 65, 0
5, 14736, Note_on_c, 1, 63, 84
5, 14781, Note_on_c, 1, 63, 0
5, 14928, Note_on_c, 1, 58, 77
5, 14973, Note_on_c, 1, 58, 0
5, 14976, Note_on_c, 1, 51, 77
5, 15021, Note_on_c, 1, 51, 0
5, 15024, Note_on_c, 1, 63, 77
5, 15069, Note_on_c, 1, 63, 0
5, 15072, Note_on_c, 1, 51, 77
5, 15117, Note_on_c, 1, 51, 0
5, 15264, Note_on_c, 1, 58, 77
5, 15284, Note_on_c, 1, 58, 0
5, 15456, Note_on_c, 1, 51, 77
5, 15476, Note_on_c, 1, 51, 0
5, 15648, Note_on_c, 1, 56, 77
5, 15668, Note_on_c, 1, 56, 0
5, 15792, Note_on_c, 1, 53, 77
5, 15815, Note_on_c, 1, 53, 0
5, 15816, Note_on_c, 1, 50, 77
5, 15839, Note_on_c, 1, 50, 0
5, 15840, Note_on_c, 1, 46, 77
5, 15885, Note_on_c, 1, 46, 0
5, 15888, Note_on_c, 1, 34, 77
5, 15933, Note_on_c, 1, 34, 0
5, 15936, Note_on_c, 1, 56, 77
5, 16069, Note_on_c, 1, 56, 0
5, 16080, Note_on_c, 1, 55, 78
5, 16125, Note_on_c, 1, 55, 0
5, 16128, Note_on_c, 1, 60, 79
5, 16261, Note_on_c, 1, 60, 0
5, 16272, Note_on_c, 1, 58, 80
5, 16317, Note_on_c, 1, 58, 0
5, 16320, Note_on_c, 1, 68, 81
5, 16453, Note_on_c, 1, 68, 0
5, 16464, Note_on_c, 1, 67, 82
5, 16509, Note_on_c, 1, 67, 0
5, 16512, Note_on_c, 1, 65, 83
5, 16645, Note_on_c, 1, 65, 0
5, 16656, Note_on_c, 1, 63, 84
5, 16701, Note_on_c, 1, 63, 0
5, 16848, Note_on_c, 1, 58, 77
5, 16893, Note_on_c, 1, 58, 0
5, 16896, Note_on_c, 1, 51, 77
5, 16941, Note_on_c, 1, 51, 0
5, 16944, Note_on_c, 1, 63, 77
5, 16989, Note_on_c, 1, 63, 0
5, 16992, Note_on_c, 1, 51, 77
5, 17037, Note_on_c, 1, 51, 0
5, 17136, Note_on_c, 1, 70, 77
5, 17136, Note_on_c, 1, 63, 77
5, 17156, Note_on_c, 1, 70, 0
5, 17156, Note_on_c, 1, 63, 0
5, 17184, Note_on_c, 1, 70, 77
5, 17184, Note_on_c, 1, 63, 77
5, 17229, Note_on_c, 1, 70, 0
5, 17229, Note_on_c, 1, 63, 0
5, 17328, Note_on_c, 1, 70, 77
5, 17328, Note_on_c, 1, 62, 77
5, 17348, Note_on_c, 1, 70, 0
5, 17348, Note_on_c, 1, 62, 0
5, 17376, Note_on_c, 1, 70, 77
5, 17376, Note_on_c, 1, 62, 77
5, 17421, Note_on_c, 1, 70, 0
5, 17421, Note_on_c, 1, 62, 0
5, 17520, Note_on_c, 1, 75, 70
5, 17520, Note_on_c, 1, 72, 70
5, 17540, Note_on_c, 1, 75, 0
5, 17540, Note_on_c, 1, 72, 0
5, 17568, Note_on_c, 1, 75, 70
5, 17568, Note_on_c, 1, 72, 70
5, 17616, Note_on_c, 1, 75, 0
5, 17616, Note_on_c, 1, 72, 0
5, 17616, Note_on_c, 1, 74, 70
5, 17616, Note_on_c, 1, 70, 70
5, 17661, Note_on_c, 1, 74, 0
5, 17661, Note_on_c, 1, 70, 0
5, 17712, Note_on_c, 1, 72, 70
5, 17712, Note_on_c, 1, 68, 70
5, 17732, Note_on_c, 1, 72, 0
5, 17732, Note_on_c, 1, 68, 0
5, 17760, Note_on_c, 1, 72, 70
5, 17760, Note_on_c, 1, 68, 70
5, 17808, Note_on_c, 1, 72, 0
5, 17808, Note_on_c, 1, 68, 0
5, 17808, Note_on_c, 1, 70, 70
5, 17808, Note_on_c, 1, 67, 70
5, 17853, Note_on_c, 1, 70, 0
5, 17853, Note_on_c, 1, 67, 0
5, 17904, Note_on_c, 1, 62, 77
5, 17952, Note_on_c, 1, 62, 0
5, 17952, Note_on_c, 1, 63, 77
5, 17997, Note_on_c, 1, 63, 0
5, 18000, Note_on_c, 1, 57, 77
5, 18045, Note_on_c, 1, 57, 0
5, 18048, Note_on_c, 1, 58, 77
5, 18137, Note_on_c, 1, 58, 0
5, 18288, Note_on_c, 1, 46, 77
5, 18288, Note_on_c, 1, 39, 77
5, 18308, Note_on_c, 1, 46, 0
5, 18308, Note_on_c, 1, 39, 0
5, 18336, Note_on_c, 1, 46, 77
5, 18336, Note_on_c, 1, 39, 77
5, 18381, Note_on_c, 1, 46, 0
5, 18381, Note_on_c, 1, 39, 0
5, 18480, Note_on_c, 1, 46, 77
5, 18480, Note_on_c, 1, 38, 77
5, 18500, Note_on_c, 1, 46, 0
5, 18500, Note_on_c, 1, 38, 0
5, 18528, Note_on_c, 1, 46, 77
5, 18528, Note_on_c, 1, 38, 77
5, 18573, Note_on_c, 1, 46, 0
5, 18573, Note_on_c, 1, 38, 0
5, 18624, Note_on_c, 1, 47, 85
5, 18624, Note_on_c, 1, 35, 85
5, 18720, Note_on_c, 1, 47, 0
5, 18720, Note_on_c, 1, 35, 0
5, 18720, Note_on_c, 1, 46, 85
5, 18720, Note_on_c, 1, 34, 85
5, 18809, Note_on_c, 1, 46, 0
5, 18809, Note_on_c, 1, 34, 0
5, 18816, Note_on_c, 1, 51, 85
5, 18816, Note_on_c, 1, 39, 85
5, 18912, Note_on_c, 1, 51, 0
5, 18912, Note_on_c, 1, 39, 0
5, 18912, Note_on_c, 1, 50, 85
5, 18912, Note_on_c, 1, 38, 85
5, 19001, Note_on_c, 1, 50, 0
5, 19001, Note_on_c, 1, 38, 0
5, 19008, Note_on_c, 1, 51, 85
5, 19008, Note_on_c, 1, 39, 85
5, 19104, Note_on_c, 1, 51, 0
5, 19104, Note_on_c, 1, 39, 0
5, 19104, Note_on_c, 1, 53, 85
5, 19104, Note_on_c, 1, 41, 85
5, 19193, Note_on_c, 1, 53, 0
5, 19193, Note_on_c, 1, 41, 0
5, 19200, Note_on_c, 1, 46, 85
5, 19289, Note_on_c, 1, 46, 0
5, 19296, Note_on_c, 1, 34, 77
5, 19341, Note_on_c, 1, 34, 0
5, 19440, Note_on_c, 1, 70, 77
5, 19440, Note_on_c, 1, 63, 77
5, 19460, Note_on_c, 1, 70, 0
5, 19460, Note_on_c, 1, 63, 0
5, 19488, Note_on_c, 1, 70, 77
5, 19488, Note_on_c, 1, 63, 77
5, 19533, Note_on_c, 1, 70, 0
5, 19533, Note_on_c, 1, 63, 0
5, 19632, Note_on_c, 1, 70, 77
5, 19632, Note_on_c, 1, 62, 77
5, 19652, Note_on_c, 1, 70, 0
5, 19652, Note_on_c, 1, 62, 0
5, 19680, Note_on_c, 1, 70, 77
5, 19680, Note_on_c, 1, 62, 77
5, 19725, Note_on_c, 1, 70, 0
5, 19725, Note_on_c, 1, 62, 0
5, 19824, Note_on_c, 1, 75, 70
5, 19824, Note_on_c, 1, 72, 70
5, 19844, Note_on_c, 1, 75, 0
5, 19844, Note_on_c, 1, 72, 0
5, 19872, Note_on_c, 1, 75, 70
5, 19872, Note_on_c, 1, 72, 70
5, 19920, Note_on_c, 1, 75, 0
5, 19920, Note_on_c, 1, 72, 0
5, 19920, Note_on_c, 1, 74, 70
5, 19920, Note_on_c, 1, 70, 70
5, 19965, Note_on_c, 1, 74, 0
5, 19965, Note_on_c, 1, 70, 0
5, 20016, Note_on_c, 1, 72, 70
5, 20016, Note_on_c, 1, 68, 70
5, 20036, Note_on_c, 1, 72, 0
5, 20036, Note_on_c, 1, 68, 0
5, 20064, Note_on_c, 1, 72, 70
5, 20064, Note_on_c, 1, 68, 70
5, 20112, Note_on_c, 1, 72, 0
5, 20112, Note_on_c, 1, 68, 0
5, 20112, Note_on_c, 1, 70, 70
5, 20112, Note_on_c, 1, 67, 70
5, 20157, Note_on_c, 1, 70, 0
5, 20157, Note_on_c, 1, 67, 0
5, 20208, Note_on_c, 1, 62, 77
5, 20256, Note_on_c, 1, 62, 0
5, 20256, Note_on_c, 1, 63, 77
5, 20301, Note_on_c, 1, 63, 0
5, 20304, Note_on_c, 1, 57, 77
5, 20349, Note_on_c, 1, 57, 0
5, 20352, Note_on_c, 1, 58, 77
5, 20441, Note_on_c, 1, 58, 0
5, 20592, Note_on_c, 1, 46, 77
5, 20592, Note_on_c, 1, 39, 77
5, 20612, Note_on_c, 1, 46, 0
5, 20612, Note_on_c, 1, 39, 0
5, 20640, Note_on_c, 1, 46, 77
5, 20640, Note_on_c, 1, 39, 77
5, 20685, Note_on_c, 1, 46, 0
5, 20685, Note_on_c, 1, 39, 0
5, 20784, Note_on_c, 1, 46, 77
5, 20784, Note_on_c, 1, 38, 77
5, 20804, Note_on_c, 1, 46, 0
5, 20804, Note_on_c, 1, 38, 0
5, 20832, Note_on_c, 1, 46, 77
5, 20832, Note_on_c, 1, 38, 77
5, 20877, Note_on_c, 1, 46, 0
5, 20877, Note_on_c, 1, 38, 0
5, 20928, Note_on_c, 1, 47, 85
5, 20928, Note_on_c, 1, 35, 85
5, 21024, Note_on_c, 1, 47, 0
5, 21024, Note_on_c, 1, 35, 0
5, 21024, Note_on_c, 1, 46, 85
5, 21024, Note_on_c, 1, 34, 85
5, 21113, Note_on_c, 1, 46, 0
5, 21113, Note_on_c, 1, 34, 0
5, 21120, Note_on_c, 1, 51, 85
5, 21120, Note_on_c, 1, 39, 85
5, 21216, Note_on_c, 1, 51, 0
5, 21216, Note_on_c, 1, 39, 0
5, 21216, Note_on_c, 1, 50, 85
5, 21216, Note_on_c, 1, 38, 85
5, 21305, Note_on_c, 1, 50, 0
5, 21305, Note_on_c, 1, 38, 0
5, 21312, Note_on_c, 1, 51, 85
5, 21312, Note_on_c, 1, 39, 85
5, 21408, Note_on_c, 1, 51, 0
5, 21408, Note_on_c, 1, 39, 0
5, 21408, Note_on_c, 1, 53, 85
5, 21408, Note_on_c, 1, 41, 85
5, 21497, Note_on_c, 1, 53, 0
5, 21497, Note_on_c, 1, 41, 0
5, 21504, Note_on_c, 1, 46, 85
5, 21593, Note_on_c, 1, 46, 0
5, 21600, Note_on_c, 1, 34, 85
5, 21645, Note_on_c, 1, 34, 0
5, 21744, Note_on_c, 1, 58, 85
5, 21744, Note_on_c, 1, 50, 85
5, 21764, Note_on_c, 1, 58, 0
5, 21764, Note_on_c, 1, 50, 0
5, 21792, Note_on_c, 1, 58, 85
5, 21792, Note_on_c, 1, 50, 85
5, 21837, Note_on_c, 1, 58, 0
5, 21837, Note_on_c, 1, 50, 0
5, 21936, Note_on_c, 1, 58, 85
5, 21936, Note_on_c, 1, 51, 85
5, 21956, Note_on_c, 1, 58, 0
5, 21956, Note_on_c, 1, 51, 0
5, 21984, Note_on_c, 1, 58, 85
5, 21984, Note_on_c, 1, 51, 85
5, 22029, Note_on_c, 1, 58, 0
5, 22029, Note_on_c, 1, 51, 0
5, 22128, Note_on_c, 1, 53, 85
5, 22128, Note_on_c, 1, 45, 85
5, 22148, Note_on_c, 1, 53, 0
5, 22148, Note_on_c, 1, 45, 0
5, 22176, Note_on_c, 1, 53, 85
5, 22176, Note_on_c, 1, 45, 85
5, 22221, Note_on_c, 1, 53, 0
5, 22221, Note_on_c, 1, 45, 0
5, 22320, Note_on_c, 1, 53, 85
5, 22320, Note_on_c, 1, 46, 85
5, 22340, Note_on_c, 1, 53, 0
5, 22340, Note_on_c, 1, 46, 0
5, 22368, Note_on_c, 1, 53, 85
5, 22368, Note_on_c, 1, 46, 85
5, 22413, Note_on_c, 1, 53, 0
5, 22413, Note_on_c, 1, 46, 0
5, 22416, Note_on_c, 1, 51, 85
5, 22416, Note_on_c, 1, 43, 85
5, 22464, Note_on_c, 1, 43, 0
5, 22553, Note_on_c, 1, 51, 0
5, 22560, Note_on_c, 1, 53, 78
5, 22745, Note_on_c, 1, 53, 0
5, 22752, Note_on_c, 1, 55, 80
5, 22937, Note_on_c, 1, 55, 0
5, 22944, Note_on_c, 1, 56, 82
5, 23085, Note_on_c, 1, 56, 0
5, 23088, Note_on_c, 1, 58, 83
5, 23221, Note_on_c, 1, 58, 0
5, 23232, Note_on_c, 1, 56, 85
5, 23321, Note_on_c, 1, 56, 0
5, 23376, Note_on_c, 1, 58, 79
5, 23421, Note_on_c, 1, 58, 0
5, 23424, Note_on_c, 1, 51, 77
5, 23469, Note_on_c, 1, 51, 0
5, 23472, Note_on_c, 1, 46, 77
5, 23517, Note_on_c, 1, 46, 0
5, 23520, Note_on_c, 1, 39, 77
5, 23565, Note_on_c, 1, 39, 0
5, 23664, Note_on_c, 1, 58, 77
5, 23664, Note_on_c, 1, 50, 77
5, 23684, Note_on_c, 1, 58, 0
5, 23684, Note_on_c, 1, 50, 0
5, 23712, Note_on_c, 1, 58, 77
5, 23712, Note_on_c, 1, 50, 77
5, 23757, Note_on_c, 1, 58, 0
5, 23757, Note_on_c, 1, 50, 0
5, 23856, Note_on_c, 1, 58, 77
5, 23856, Note_on_c, 1, 51, 77
5, 23876, Note_on_c, 1, 58, 0
5, 23876, Note_on_c, 1, 51, 0
5, 23904, Note_on_c, 1, 58, 77
5, 23904, Note_on_c, 1, 51, 77
5, 23949, Note_on_c, 1, 58, 0
5, 23949, Note_on_c, 1, 51, 0
5, 24048, Note_on_c, 1, 53, 77
5, 24048, Note_on_c, 1, 45, 77
5, 24068, Note_on_c, 1, 53, 0
5, 24068, Note_on_c, 1, 45, 0
5, 24096, Note_on_c, 1, 53, 77
5, 24096, Note_on_c, 1, 45, 77
5, 24141, Note_on_c, 1, 53, 0
5, 24141, Note_on_c, 1, 45, 0
5, 24240, Note_on_c, 1, 53, 77
5, 24240, Note_on_c, 1, 46, 77
5, 24260, Note_on_c, 1, 53, 0
5, 24260, Note_on_c, 1, 46, 0
5, 24288, Note_on_c, 1, 53, 77
5, 24288, Note_on_c, 1, 46, 77
5, 24333, Note_on_c, 1, 53, 0
5, 24333, Note_on_c, 1, 46, 0
5, 24336, Note_on_c, 1, 51, 77
5, 24336, Note_on_c, 1, 43, 77
5, 24384, Note_on_c, 1, 43, 0
5, 24473, Note_on_c, 1, 51, 0
5, 24480, Note_on_c, 1, 53, 78
5, 24665, Note_on_c, 1, 53, 0
5, 24672, Note_on_c, 1, 55, 80
5, 24857, Note_on_c, 1, 55, 0
5, 24864, Note_on_c, 1, 56, 82
5, 25005, Note_on_c, 1, 56, 0
5, 25008, Note_on_c, 1, 58, 83
5, 25141, Note_on_c, 1, 58, 0
5, 25152, Note_on_c, 1, 56, 85
5, 25241, Note_on_c, 1, 56, 0
5, 25296, Note_on_c, 1, 58, 79
5, 25341, Note_on_c, 1, 58, 0
5, 25344, Note_on_c, 1, 51, 77
5, 25389, Note_on_c, 1, 51, 0
5, 25392, Note_on_c, 1, 46, 77
5, 25437, Note_on_c, 1, 46, 0
5, 25440, Note_on_c, 1, 39, 77
5, 25485, Note_on_c, 1, 39, 0
5, 25584, Note_on_c, 1, 63, 77
5, 25632, Note_on_c, 1, 63, 0
5, 25632, Note_on_c, 1, 67, 77
5, 25677, Note_on_c, 1, 67, 0
5, 25776, Note_on_c, 1, 62, 77
5, 25824, Note_on_c, 1, 62, 0
5, 25824, Note_on_c, 1, 65, 77
5, 25869, Note_on_c, 1, 65, 0
5, 25968, Note_on_c, 1, 60, 77
5, 26016, Note_on_c, 1, 60, 0
5, 26016, Note_on_c, 1, 58, 77
5, 26061, Note_on_c, 1, 58, 0
5, 26160, Note_on_c, 1, 56, 77
5, 26208, Note_on_c, 1, 56, 0
5, 26208, Note_on_c, 1, 55, 77
5, 26253, Note_on_c, 1, 55, 0
5, 26352, Note_on_c, 1, 53, 77
5, 26397, Note_on_c, 1, 53, 0
5, 26400, Note_on_c, 1, 50, 77
5, 26445, Note_on_c, 1, 50, 0
5, 26448, Note_on_c, 1, 51, 77
5, 26493, Note_on_c, 1, 51, 0
5, 26496, Note_on_c, 1, 46, 77
5, 26541, Note_on_c, 1, 46, 0
5, 26544, Note_on_c, 1, 58, 77
5, 26589, Note_on_c, 1, 58, 0
5, 26592, Note_on_c, 1, 46, 77
5, 26637, Note_on_c, 1, 46, 0
5, 26736, Note_on_c, 1, 63, 77
5, 26784, Note_on_c, 1, 63, 0
5, 26784, Note_on_c, 1, 66, 77
5, 26829, Note_on_c, 1, 66, 0
5, 26928, Note_on_c, 1, 62, 77
5, 26976, Note_on_c, 1, 62, 0
5, 26976, Note_on_c, 1, 65, 77
5, 27021, Note_on_c, 1, 65, 0
5, 27120, Note_on_c, 1, 60, 77
5, 27168, Note_on_c, 1, 60, 0
5, 27168, Note_on_c, 1, 58, 77
5, 27213, Note_on_c, 1, 58, 0
5, 27312, Note_on_c, 1, 63, 77
5, 27360, Note_on_c, 1, 63, 0
5, 27360, Note_on_c, 1, 61, 77
5, 27405, Note_on_c, 1, 61, 0
5, 27456, Note_on_c, 1, 63, 77
5, 27545, Note_on_c, 1, 63, 0
5, 27552, Note_on_c, 1, 65, 77
5, 27641, Note_on_c, 1, 65, 0
5, 27696, Note_on_c, 1, 58, 77
5, 27741, Note_on_c, 1, 58, 0
5, 27744, Note_on_c, 1, 46, 77
5, 27789, Note_on_c, 1, 46, 0
5, 27888, Note_on_c, 1, 54, 77
5, 27936, Note_on_c, 1, 54, 0
5, 27936, Note_on_c, 1, 58, 77
5, 27981, Note_on_c, 1, 58, 0
5, 28080, Note_on_c, 1, 56, 77
5, 28128, Note_on_c, 1, 56, 0
5, 28128, Note_on_c, 1, 59, 77
5, 28173, Note_on_c, 1, 59, 0
5, 28272, Note_on_c, 1, 53, 77
5, 28320, Note_on_c, 1, 53, 0
5, 28320, Note_on_c, 1, 61, 77
5, 28365, Note_on_c, 1, 61, 0
5, 28464, Note_on_c, 1, 54, 77
5, 28512, Note_on_c, 1, 54, 0
5, 28512, Note_on_c, 1, 61, 77
5, 28557, Note_on_c, 1, 61, 0
5, 28656, Note_on_c, 1, 47, 77
5, 28701, Note_on_c, 1, 47, 0
5, 28704, Note_on_c, 1, 59, 77
5, 28749, Note_on_c, 1, 59, 0
5, 28848, Note_on_c, 1, 58, 77
5, 28896, Note_on_c, 1, 58, 0
5, 28896, Note_on_c, 1, 66, 77
5, 28941, Note_on_c, 1, 66, 0
5, 28992, Note_on_c, 1, 59, 77
5, 29081, Note_on_c, 1, 59, 0
5, 29088, Note_on_c, 1, 61, 77
5, 29177, Note_on_c, 1, 61, 0
5, 29232, Note_on_c, 1, 54, 77
5, 29280, Note_on_c, 1, 54, 0
5, 29280, Note_on_c, 1, 42, 77
5, 29325, Note_on_c, 1, 42, 0
5, 29424, Note_on_c, 1, 58, 77
5, 29472, Note_on_c, 1, 58, 0
5, 29472, Note_on_c, 1, 66, 77
5, 29517, Note_on_c, 1, 66, 0
5, 29616, Note_on_c, 1, 58, 77
5, 29664, Note_on_c, 1, 58, 0
5, 29664, Note_on_c, 1, 65, 77
5, 29709, Note_on_c, 1, 65, 0
5, 29808, Note_on_c, 1, 58, 77
5, 29856, Note_on_c, 1, 58, 0
5, 29856, Note_on_c, 1, 63, 77
5, 29901, Note_on_c, 1, 63, 0
5, 30000, Note_on_c, 1, 58, 77
5, 30048, Note_on_c, 1, 58, 0
5, 30048, Note_on_c, 1, 62, 77
5, 30093, Note_on_c, 1, 62, 0
5, 30240, Note_on_c, 1, 59, 77
5, 30809, Note_on_c, 1, 59, 0
5, 31008, Note_on_c, 1, 56, 77
5, 31577, Note_on_c, 1, 56, 0
5, 33600, Note_on_c, 1, 56, 85
5, 33689, Note_on_c, 1, 56, 0
5, 33744, Note_on_c, 1, 58, 81
5, 33789, Note_on_c, 1, 58, 0
5, 33792, Note_on_c, 1, 51, 79
5, 33837, Note_on_c, 1, 51, 0
5, 33840, Note_on_c, 1, 63, 78
5, 33885, Note_on_c, 1, 63, 0
5, 33888, Note_on_c, 1, 51, 77
5, 33933, Note_on_c, 1, 51, 0
5, 33984, Note_on_c, 1, 67, 77
5, 34073, Note_on_c, 1, 67, 0
5, 34128, Note_on_c, 1, 67, 77
5, 34173, Note_on_c, 1, 67, 0
5, 34176, Note_on_c, 1, 65, 77
5, 34265, Note_on_c, 1, 65, 0
5, 34320, Note_on_c, 1, 65, 77
5, 34365, Note_on_c, 1, 65, 0
5, 34368, Note_on_c, 1, 63, 77
5, 34457, Note_on_c, 1, 63, 0
5, 34464, Note_on_c, 1, 62, 77
5, 34553, Note_on_c, 1, 62, 0
5, 34560, Note_on_c, 1, 60, 77
5, 34649, Note_on_c, 1, 60, 0
5, 34656, Note_on_c, 1, 58, 77
5, 34745, Note_on_c, 1, 58, 0
5, 34752, Note_on_c, 1, 56, 77
5, 34841, Note_on_c, 1, 56, 0
5, 35136, Note_on_c, 1, 67, 77
5, 35225, Note_on_c, 1, 67, 0
5, 35280, Note_on_c, 1, 67, 77
5, 35325, Note_on_c, 1, 67, 0
5, 35328, Note_on_c, 1, 65, 77
5, 35417, Note_on_c, 1, 65, 0
5, 35472, Note_on_c, 1, 65, 77
5, 35517, Note_on_c, 1, 65, 0
5, 35520, Note_on_c, 1, 63, 77
5, 35609, Note_on_c, 1, 63, 0
5, 36288, Note_on_c, 1, 67, 77
5, 36377, Note_on_c, 1, 67, 0
5, 36432, Note_on_c, 1, 67, 77
5, 36477, Note_on_c, 1, 67, 0
5, 36480, Note_on_c, 1, 65, 77
5, 36569, Note_on_c, 1, 65, 0
5, 36624, Note_on_c, 1, 65, 77
5, 36669, Note_on_c, 1, 65, 0
5, 36672, Note_on_c, 1, 63, 77
5, 36761, Note_on_c, 1, 63, 0
5, 36768, Note_on_c, 1, 62, 77
5, 36857, Note_on_c, 1, 62, 0
5, 36864, Note_on_c, 1, 60, 77
5, 36953, Note_on_c, 1, 60, 0
5, 36960, Note_on_c, 1, 58, 77
5, 37049, Note_on_c, 1, 58, 0
5, 37056, Note_on_c, 1, 56, 77
5, 37145, Note_on_c, 1, 56, 0
5, 37440, Note_on_c, 1, 67, 77
5, 37529, Note_on_c, 1, 67, 0
5, 37584, Note_on_c, 1, 67, 77
5, 37629, Note_on_c, 1, 67, 0
5, 37632, Note_on_c, 1, 65, 77
5, 37721, Note_on_c, 1, 65, 0
5, 37776, Note_on_c, 1, 65, 77
5, 37821, Note_on_c, 1, 65, 0
5, 37824, Note_on_c, 1, 63, 77
5, 37913, Note_on_c, 1, 63, 0
5, 38592, Note_on_c, 1, 50, 77
5, 38681, Note_on_c, 1, 50, 0
5, 38736, Note_on_c, 1, 50, 77
5, 38781, Note_on_c, 1, 50, 0
5, 38784, Note_on_c, 1, 51, 77
5, 38873, Note_on_c, 1, 51, 0
5, 38976, Note_on_c, 1, 44, 77
5, 39065, Note_on_c, 1, 44, 0
5, 39120, Note_on_c, 1, 45, 77
5, 39165, Note_on_c, 1, 45, 0
5, 39168, Note_on_c, 1, 46, 77
5, 39257, Note_on_c, 1, 46, 0
5, 39360, Note_on_c, 1, 56, 77
5, 39399, Note_on_c, 1, 56, 0
5, 39456, Note_on_c, 1, 58, 78
5, 39495, Note_on_c, 1, 58, 0
5, 39552, Note_on_c, 1, 60, 79
5, 39591, Note_on_c, 1, 60, 0
5, 39648, Note_on_c, 1, 62, 80
5, 39687, Note_on_c, 1, 62, 0
5, 39744, Note_on_c, 1, 63, 81
5, 39833, Note_on_c, 1, 63, 0
5, 39840, Note_on_c, 1, 65, 82
5, 39929, Note_on_c, 1, 65, 0
5, 39936, Note_on_c, 1, 67, 83
5, 40025, Note_on_c, 1, 67, 0
5, 40512, Note_on_c, 1, 50, 77
5, 40601, Note_on_c, 1, 50, 0
5, 40656, Note_on_c, 1, 50, 77
5, 40701, Note_on_c, 1, 50, 0
5, 40704, Note_on_c, 1, 51, 77
5, 40793, Note_on_c, 1, 51, 0
5, 40896, Note_on_c, 1, 44, 77
5, 40985, Note_on_c, 1, 44, 0
5, 41040, Note_on_c, 1, 45, 77
5, 41085, Note_on_c, 1, 45, 0
5, 41088, Note_on_c, 1, 46, 77
5, 41177, Note_on_c, 1, 46, 0
5, 41280, Note_on_c, 1, 56, 77
5, 41319, Note_on_c, 1, 56, 0
5, 41376, Note_on_c, 1, 58, 78
5, 41415, Note_on_c, 1, 58, 0
5, 41472, Note_on_c, 1, 60, 79
5, 41511, Note_on_c, 1, 60, 0
5, 41568, Note_on_c, 1, 62, 80
5, 41607, Note_on_c, 1, 62, 0
5, 41664, Note_on_c, 1, 63, 81
5, 41753, Note_on_c, 1, 63, 0
5, 41760, Note_on_c, 1, 65, 82
5, 41849, Note_on_c, 1, 65, 0
5, 41856, Note_on_c, 1, 67, 83
5, 41945, Note_on_c, 1, 67, 0
5, 43056, Note_on_c, 1, 56, 77
5, 43104, Note_on_c, 1, 56, 0
5, 43104, Note_on_c, 1, 55, 77
5, 43149, Note_on_c, 1, 55, 0
5, 43248, Note_on_c, 1, 53, 77
5, 43293, Note_on_c, 1, 53, 0
5, 43296, Note_on_c, 1, 50, 77
5, 43341, Note_on_c, 1, 50, 0
5, 43344, Note_on_c, 1, 51, 77
5, 43389, Note_on_c, 1, 51, 0
5, 43392, Note_on_c, 1, 46, 77
5, 43437, Note_on_c, 1, 46, 0
5, 43440, Note_on_c, 1, 58, 77
5, 43485, Note_on_c, 1, 58, 0
5, 43488, Note_on_c, 1, 46, 77
5, 43533, Note_on_c, 1, 46, 0
5, 43824, Note_on_c, 1, 62, 77
5, 43872, Note_on_c, 1, 62, 0
5, 43872, Note_on_c, 1, 65, 77
5, 43917, Note_on_c, 1, 65, 0
5, 44016, Note_on_c, 1, 60, 77
5, 44064, Note_on_c, 1, 60, 0
5, 44064, Note_on_c, 1, 58, 77
5, 44109, Note_on_c, 1, 58, 0
5, 44208, Note_on_c, 1, 63, 77
5, 44256, Note_on_c, 1, 63, 0
5, 44256, Note_on_c, 1, 62, 77
5, 44301, Note_on_c, 1, 62, 0
5, 44400, Note_on_c, 1, 63, 77
5, 44445, Note_on_c, 1, 63, 0
5, 44448, Note_on_c, 1, 60, 77
5, 44493, Note_on_c, 1, 60, 0
5, 44496, Note_on_c, 1, 65, 77
5, 44541, Note_on_c, 1, 65, 0
5, 47088, Note_on_c, 1, 58, 77
5, 47136, Note_on_c, 1, 58, 0
5, 47136, Note_on_c, 1, 62, 77
5, 47181, Note_on_c, 1, 62, 0
5, 47280, Note_on_c, 1, 63, 77
5, 47328, Note_on_c, 1, 63, 0
5, 47328, Note_on_c, 1, 67, 77
5, 47373, Note_on_c, 1, 67, 0
5, 47472, Note_on_c, 1, 56, 77
5, 47520, Note_on_c, 1, 56, 0
5, 47520, Note_on_c, 1, 60, 77
5, 47565, Note_on_c, 1, 60, 0
5, 47664, Note_on_c, 1, 58, 77
5, 47712, Note_on_c, 1, 58, 0
5, 47712, Note_on_c, 1, 46, 77
5, 47757, Note_on_c, 1, 46, 0
5, 48048, Note_on_c, 1, 60, 79
5, 48096, Note_on_c, 1, 60, 0
5, 48096, Note_on_c, 1, 58, 79
5, 48141, Note_on_c, 1, 58, 0
5, 48240, Note_on_c, 1, 68, 81
5, 48288, Note_on_c, 1, 68, 0
5, 48288, Note_on_c, 1, 67, 81
5, 48333, Note_on_c, 1, 67, 0
5, 48432, Note_on_c, 1, 65, 83
5, 48477, Note_on_c, 1, 65, 0
5, 48480, Note_on_c, 1, 62, 83
5, 48525, Note_on_c, 1, 62, 0
5, 48528, Note_on_c, 1, 63, 84
5, 48573, Note_on_c, 1, 63, 0
5, 48576, Note_on_c, 1, 56, 85
5, 48665, Note_on_c, 1, 56, 0
5, 48720, Note_on_c, 1, 58, 83
5, 48765, Note_on_c, 1, 58, 0
5, 48768, Note_on_c, 1, 51, 81
5, 48813, Note_on_c, 1, 51, 0
5, 48816, Note_on_c, 1, 63, 79
5, 48861, Note_on_c, 1, 63, 0
5, 48864, Note_on_c, 1, 51, 77
5, 48909, Note_on_c, 1, 51, 0
5, 50880, End_track
6, 0, Start_track
6, 0, Program_c, 1, 1
6, 0, Control_c, 1, 7, 127
6, 0, Control_c, 1, 10, 64
6, 30384, Note_on_c, 1, 51, 64
6, 30429, Note_on_c, 1, 51, 0
6, 30432, Note_on_c, 1, 54, 64
6, 30853, Note_on_c, 1, 54, 0
6, 31152, Note_on_c, 1, 50, 64
6, 31197, Note_on_c, 1, 50, 0
6, 31200, Note_on_c, 1, 53, 64
6, 31621, Note_on_c, 1, 53, 0
6, 38592, Note_on_c, 1, 58, 64
6, 38681, Note_on_c, 1, 58, 0
6, 38736, Note_on_c, 1, 58, 64
6, 38781, Note_on_c, 1, 58, 0
6, 38784, Note_on_c, 1, 58, 64
6, 38873, Note_on_c, 1, 58, 0
6, 38976, Note_on_c, 1, 53, 64
6, 39065, Note_on_c, 1, 53, 0
6, 39120, Note_on_c, 1, 53, 64
6, 39165, Note_on_c, 1, 53, 0
6, 39168, Note_on_c, 1, 53, 64
6, 39257, Note_on_c, 1, 53, 0
6, 40128, Note_on_c, 1, 56, 64
6, 40217, Note_on_c, 1, 56, 0
6, 40224, Note_on_c, 1, 55, 64
6, 40269, Note_on_c, 1, 55, 0
6, 40272, Note_on_c, 1, 53, 64
6, 40317, Note_on_c, 1, 53, 0
6, 40512, Note_on_c, 1, 58, 64
6, 40601, Note_on_c, 1, 58, 0
6, 40656, Note_on_c, 1, 58, 64
6, 40701, Note_on_c, 1, 58, 0
6, 40704, Note_on_c, 1, 58, 64
6, 40793, Note_on_c, 1, 58, 0
6, 40896, Note_on_c, 1, 53, 64
6, 40985, Note_on_c, 1, 53, 0
6, 41040, Note_on_c, 1, 53, 64
6, 41085, Note_on_c, 1, 53, 0
6, 41088, Note_on_c, 1, 53, 64
6, 41177, Note_on_c, 1, 53, 0
6, 42048, Note_on_c, 1, 56, 64
6, 42137, Note_on_c, 1, 56, 0
6, 42144, Note_on_c, 1, 55, 64
6, 42189, Note_on_c, 1, 55, 0
6, 42192, Note_on_c, 1, 53, 64
6, 42237, Note_on_c, 1, 53, 0
6, 50880, End_track
7, 0, Start_track
7, 0, Title_t, "Sonata II   Haydn  "
7, 0, End_track
0, 0, End_of_file
