0, 0, Header, 1, 6, 96
1, 0, Start_track
1, 0, Copyright_t, "Copyright  2000 <copyright holder>"
1, 0, Text_t, "Sonata II\015\012"
1, 0, Text_t, "Haydn\015\012"
1, 0, Sequencer_specific, 17, 68, 87, 77, 90, 86, 82, 83, 78, 32, 55, 46, 48, 46, 49, 48, 46, 48
1, 0, Time_signature, 3, 2, 24, 8
1, 0, Tempo, 571428
1, 0, Key_signature, -3, "major"
1, 10368, Tempo, 857142
1, 10848, Tempo, 571428
1, 27072, Tempo, 857142
1, 27552, Tempo, 571428
1, 38592, Tempo, 750000
1, 38688, Tempo, 1200000
1, 38784, Tempo, 571428
1, 54720, Tempo, 857142
1, 55200, Tempo, 571428
1, 66528, Tempo, 750000
1, 66624, Tempo, 1200000
1, 66720, Tempo, 571428
1, 82656, Tempo, 857142
1, 83136, Tempo, 571428
1, 89472, End_track
2, 0, Start_track
2, 0, Program_c, 0, 0
2, 0, Control_c, 0, 7, 127
2, 0, Control_c, 0, 10, 64
2, 0, Note_on_c, 0, 70, 79
2, 119, Note_on_c, 0, 70, 0
2, 120, Note_on_c, 0, 67, 79
2, 143, Note_on_c, 0, 67, 0
2, 144, Note_on_c, 0, 68, 79
2, 167, Note_on_c, 0, 68, 0
2, 168, Note_on_c, 0, 65, 79
2, 191, Note_on_c, 0, 65, 0
2, 192, Note_on_c, 0, 67, 79
2, 215, Note_on_c, 0, 67, 0
2, 216, Note_on_c, 0, 63, 79
2, 239, Note_on_c, 0, 63, 0
2, 240, Note_on_c, 0, 65, 79
2, 263, Note_on_c, 0, 65, 0
2, 264, Note_on_c, 0, 62, 79
2, 287, Note_on_c, 0, 62, 0
2, 288, Note_on_c, 0, 63, 79
2, 308, Note_on_c, 0, 63, 0
2, 336, Note_on_c, 0, 58, 81
2, 356, Note_on_c, 0, 58, 0
2, 384, Note_on_c, 0, 55, 83
2, 404, Note_on_c, 0, 55, 0
2, 432, Note_on_c, 0, 58, 85
2, 452, Note_on_c, 0, 58, 0
2, 480, Note_on_c, 0, 63, 83
2, 500, Note_on_c, 0, 63, 0
2, 528, Note_on_c, 0, 67, 81
2, 548, Note_on_c, 0, 67, 0
2, 576, Note_on_c, 0, 70, 79
2, 695, Note_on_c, 0, 70, 0
2, 696, Note_on_c, 0, 67, 79
2, 719, Note_on_c, 0, 67, 0
2, 720, Note_on_c, 0, 68, 79
2, 743, Note_on_c, 0, 68, 0
2, 744, Note_on_c, 0, 65, 79
2, 767, Note_on_c, 0, 65, 0
2, 768, Note_on_c, 0, 67, 79
2, 791, Note_on_c, 0, 67, 0
2, 792, Note_on_c, 0, 63, 79
2, 815, Note_on_c, 0, 63, 0
2, 816, Note_on_c, 0, 65, 79
2, 839, Note_on_c, 0, 65, 0
2, 840, Note_on_c, 0, 62, 79
2, 863, Note_on_c, 0, 62, 0
2, 864, Note_on_c, 0, 63, 79
2, 909, Note_on_c, 0, 63, 0
2, 912, Note_on_c, 0, 75, 79
2, 912, Note_on_c, 0, 67, 79
2, 932, Note_on_c, 0, 75, 0
2, 932, Note_on_c, 0, 67, 0
2, 960, Note_on_c, 0, 75, 79
2, 960, Note_on_c, 0, 67, 79
2, 980, Note_on_c, 0, 75, 0
2, 980, Note_on_c, 0, 67, 0
2, 1008, Note_on_c, 0, 75, 79
2, 1008, Note_on_c, 0, 67, 79
2, 1028, Note_on_c, 0, 75, 0
2, 1028, Note_on_c, 0, 67, 0
2, 1056, Note_on_c, 0, 75, 79
2, 1056, Note_on_c, 0, 67, 79
2, 1076, Note_on_c, 0, 75, 0
2, 1076, Note_on_c, 0, 67, 0
2, 1104, Note_on_c, 0, 75, 79
2, 1104, Note_on_c, 0, 67, 79
2, 1124, Note_on_c, 0, 75, 0
2, 1124, Note_on_c, 0, 67, 0
2, 1152, Note_on_c, 0, 75, 95
2, 1344, Note_on_c, 0, 75, 0
2, 1344, Note_on_c, 0, 74, 79
2, 1433, Note_on_c, 0, 74, 0
2, 1488, Note_on_c, 0, 82, 79
2, 1488, Note_on_c, 0, 73, 79
2, 1508, Note_on_c, 0, 82, 0
2, 1508, Note_on_c, 0, 73, 0
2, 1536, Note_on_c, 0, 82, 79
2, 1536, Note_on_c, 0, 73, 79
2, 1556, Note_on_c, 0, 82, 0
2, 1556, Note_on_c, 0, 73, 0
2, 1584, Note_on_c, 0, 82, 79
2, 1584, Note_on_c, 0, 73, 79
2, 1604, Note_on_c, 0, 82, 0
2, 1604, Note_on_c, 0, 73, 0
2, 1632, Note_on_c, 0, 82, 79
2, 1632, Note_on_c, 0, 73, 79
2, 1652, Note_on_c, 0, 82, 0
2, 1652, Note_on_c, 0, 73, 0
2, 1680, Note_on_c, 0, 82, 79
2, 1680, Note_on_c, 0, 73, 79
2, 1700, Note_on_c, 0, 82, 0
2, 1700, Note_on_c, 0, 73, 0
2, 1728, Note_on_c, 0, 82, 79
2, 1728, Note_on_c, 0, 73, 79
2, 1824, Note_on_c, 0, 82, 0
2, 1824, Note_on_c, 0, 73, 0
2, 1824, Note_on_c, 0, 80, 79
2, 1824, Note_on_c, 0, 72, 79
2, 1869, Note_on_c, 0, 80, 0
2, 1869, Note_on_c, 0, 72, 0
2, 1872, Note_on_c, 0, 70, 79
2, 1884, Note_on_c, 0, 70, 0
2, 1884, Note_on_c, 0, 79, 95
2, 1920, Note_on_c, 0, 79, 0
2, 1920, Note_on_c, 0, 68, 79
2, 1932, Note_on_c, 0, 68, 0
2, 1932, Note_on_c, 0, 77, 95
2, 1968, Note_on_c, 0, 77, 0
2, 1968, Note_on_c, 0, 65, 79
2, 1980, Note_on_c, 0, 65, 0
2, 1980, Note_on_c, 0, 74, 95
2, 2016, Note_on_c, 0, 74, 0
2, 2016, Note_on_c, 0, 67, 79
2, 2028, Note_on_c, 0, 67, 0
2, 2028, Note_on_c, 0, 75, 95
2, 2064, Note_on_c, 0, 75, 0
2, 2304, Note_on_c, 0, 70, 79
2, 2423, Note_on_c, 0, 70, 0
2, 2424, Note_on_c, 0, 67, 79
2, 2447, Note_on_c, 0, 67, 0
2, 2448, Note_on_c, 0, 68, 79
2, 2471, Note_on_c, 0, 68, 0
2, 2472, Note_on_c, 0, 65, 79
2, 2495, Note_on_c, 0, 65, 0
2, 2496, Note_on_c, 0, 67, 79
2, 2519, Note_on_c, 0, 67, 0
2, 2520, Note_on_c, 0, 63, 79
2, 2543, Note_on_c, 0, 63, 0
2, 2544, Note_on_c, 0, 65, 79
2, 2567, Note_on_c, 0, 65, 0
2, 2568, Note_on_c, 0, 62, 79
2, 2591, Note_on_c, 0, 62, 0
2, 2592, Note_on_c, 0, 63, 79
2, 2612, Note_on_c, 0, 63, 0
2, 2640, Note_on_c, 0, 67, 79
2, 2660, Note_on_c, 0, 67, 0
2, 2688, Note_on_c, 0, 70, 79
2, 2708, Note_on_c, 0, 70, 0
2, 2736, Note_on_c, 0, 75, 79
2, 2756, Note_on_c, 0, 75, 0
2, 2784, Note_on_c, 0, 79, 79
2, 2807, Note_on_c, 0, 79, 0
2, 2808, Note_on_c, 0, 75, 79
2, 2831, Note_on_c, 0, 75, 0
2, 2832, Note_on_c, 0, 75, 79
2, 2844, Note_on_c, 0, 75, 0
2, 2844, Note_on_c, 0, 77, 79
2, 2856, Note_on_c, 0, 77, 0
2, 2856, Note_on_c, 0, 75, 79
2, 2868, Note_on_c, 0, 75, 0
2, 2868, Note_on_c, 0, 77, 79
2, 2877, Note_on_c, 0, 77, 0
2, 2880, Note_on_c, 0, 80, 79
2, 2903, Note_on_c, 0, 80, 0
2, 2904, Note_on_c, 0, 75, 79
2, 2927, Note_on_c, 0, 75, 0
2, 2928, Note_on_c, 0, 75, 79
2, 2940, Note_on_c, 0, 75, 0
2, 2940, Note_on_c, 0, 77, 79
2, 2952, Note_on_c, 0, 77, 0
2, 2952, Note_on_c, 0, 75, 79
2, 2964, Note_on_c, 0, 75, 0
2, 2964, Note_on_c, 0, 77, 79
2, 2973, Note_on_c, 0, 77, 0
2, 2976, Note_on_c, 0, 79, 79
2, 2999, Note_on_c, 0, 79, 0
2, 3000, Note_on_c, 0, 75, 79
2, 3023, Note_on_c, 0, 75, 0
2, 3024, Note_on_c, 0, 75, 79
2, 3036, Note_on_c, 0, 75, 0
2, 3036, Note_on_c, 0, 77, 79
2, 3048, Note_on_c, 0, 77, 0
2, 3048, Note_on_c, 0, 75, 79
2, 3060, Note_on_c, 0, 75, 0
2, 3060, Note_on_c, 0, 77, 79
2, 3069, Note_on_c, 0, 77, 0
2, 3072, Note_on_c, 0, 84, 79
2, 3095, Note_on_c, 0, 84, 0
2, 3096, Note_on_c, 0, 75, 79
2, 3119, Note_on_c, 0, 75, 0
2, 3120, Note_on_c, 0, 75, 79
2, 3132, Note_on_c, 0, 75, 0
2, 3132, Note_on_c, 0, 77, 79
2, 3144, Note_on_c, 0, 77, 0
2, 3144, Note_on_c, 0, 75, 79
2, 3156, Note_on_c, 0, 75, 0
2, 3156, Note_on_c, 0, 77, 79
2, 3165, Note_on_c, 0, 77, 0
2, 3168, Note_on_c, 0, 82, 79
2, 3301, Note_on_c, 0, 82, 0
2, 3312, Note_on_c, 0, 84, 79
2, 3335, Note_on_c, 0, 84, 0
2, 3336, Note_on_c, 0, 82, 79
2, 3359, Note_on_c, 0, 82, 0
2, 3360, Note_on_c, 0, 80, 79
2, 3383, Note_on_c, 0, 80, 0
2, 3384, Note_on_c, 0, 79, 79
2, 3407, Note_on_c, 0, 79, 0
2, 3408, Note_on_c, 0, 77, 79
2, 3431, Note_on_c, 0, 77, 0
2, 3432, Note_on_c, 0, 75, 79
2, 3455, Note_on_c, 0, 75, 0
2, 3456, Note_on_c, 0, 75, 79
2, 3552, Note_on_c, 0, 75, 0
2, 3552, Note_on_c, 0, 74, 79
2, 3597, Note_on_c, 0, 74, 0
2, 3600, Note_on_c, 0, 79, 79
2, 3623, Note_on_c, 0, 79, 0
2, 3624, Note_on_c, 0, 77, 79
2, 3647, Note_on_c, 0, 77, 0
2, 3648, Note_on_c, 0, 75, 79
2, 3671, Note_on_c, 0, 75, 0
2, 3672, Note_on_c, 0, 74, 79
2, 3695, Note_on_c, 0, 74, 0
2, 3696, Note_on_c, 0, 72, 79
2, 3719, Note_on_c, 0, 72, 0
2, 3720, Note_on_c, 0, 70, 79
2, 3743, Note_on_c, 0, 70, 0
2, 3744, Note_on_c, 0, 70, 79
2, 3840, Note_on_c, 0, 70, 0
2, 3840, Note_on_c, 0, 68, 79
2, 3885, Note_on_c, 0, 68, 0
2, 3888, Note_on_c, 0, 75, 79
2, 3911, Note_on_c, 0, 75, 0
2, 3912, Note_on_c, 0, 74, 79
2, 3935, Note_on_c, 0, 74, 0
2, 3936, Note_on_c, 0, 72, 79
2, 3959, Note_on_c, 0, 72, 0
2, 3960, Note_on_c, 0, 70, 79
2, 3983, Note_on_c, 0, 70, 0
2, 3984, Note_on_c, 0, 68, 79
2, 4007, Note_on_c, 0, 68, 0
2, 4008, Note_on_c, 0, 67, 79
2, 4031, Note_on_c, 0, 67, 0
2, 4032, Note_on_c, 0, 67, 79
2, 4128, Note_on_c, 0, 67, 0
2, 4128, Note_on_c, 0, 65, 79
2, 4173, Note_on_c, 0, 65, 0
2, 4176, Note_on_c, 0, 72, 79
2, 4199, Note_on_c, 0, 72, 0
2, 4200, Note_on_c, 0, 70, 79
2, 4223, Note_on_c, 0, 70, 0
2, 4224, Note_on_c, 0, 68, 79
2, 4247, Note_on_c, 0, 68, 0
2, 4248, Note_on_c, 0, 67, 79
2, 4271, Note_on_c, 0, 67, 0
2, 4272, Note_on_c, 0, 65, 79
2, 4295, Note_on_c, 0, 65, 0
2, 4296, Note_on_c, 0, 63, 79
2, 4319, Note_on_c, 0, 63, 0
2, 4320, Note_on_c, 0, 62, 79
2, 4387, Note_on_c, 0, 62, 0
2, 4392, Note_on_c, 0, 63, 73
2, 4404, Note_on_c, 0, 63, 0
2, 4404, Note_on_c, 0, 65, 72
2, 4416, Note_on_c, 0, 65, 0
2, 4416, Note_on_c, 0, 63, 72
2, 4455, Note_on_c, 0, 63, 0
2, 4608, Note_on_c, 0, 79, 72
2, 4727, Note_on_c, 0, 79, 0
2, 4728, Note_on_c, 0, 83, 71
2, 4751, Note_on_c, 0, 83, 0
2, 4752, Note_on_c, 0, 84, 71
2, 4775, Note_on_c, 0, 84, 0
2, 4776, Note_on_c, 0, 80, 70
2, 4799, Note_on_c, 0, 80, 0
2, 4800, Note_on_c, 0, 79, 70
2, 4823, Note_on_c, 0, 79, 0
2, 4824, Note_on_c, 0, 77, 70
2, 4847, Note_on_c, 0, 77, 0
2, 4848, Note_on_c, 0, 75, 69
2, 4871, Note_on_c, 0, 75, 0
2, 4872, Note_on_c, 0, 74, 69
2, 4895, Note_on_c, 0, 74, 0
2, 4896, Note_on_c, 0, 72, 69
2, 4919, Note_on_c, 0, 72, 0
2, 4920, Note_on_c, 0, 71, 68
2, 4943, Note_on_c, 0, 71, 0
2, 4944, Note_on_c, 0, 74, 68
2, 4967, Note_on_c, 0, 74, 0
2, 4968, Note_on_c, 0, 72, 68
2, 4991, Note_on_c, 0, 72, 0
2, 4992, Note_on_c, 0, 75, 67
2, 5015, Note_on_c, 0, 75, 0
2, 5016, Note_on_c, 0, 74, 67
2, 5039, Note_on_c, 0, 74, 0
2, 5040, Note_on_c, 0, 77, 67
2, 5063, Note_on_c, 0, 77, 0
2, 5064, Note_on_c, 0, 75, 66
2, 5087, Note_on_c, 0, 75, 0
2, 5088, Note_on_c, 0, 79, 66
2, 5108, Note_on_c, 0, 79, 0
2, 5184, Note_on_c, 0, 77, 79
2, 5303, Note_on_c, 0, 77, 0
2, 5304, Note_on_c, 0, 81, 78
2, 5327, Note_on_c, 0, 81, 0
2, 5328, Note_on_c, 0, 82, 78
2, 5351, Note_on_c, 0, 82, 0
2, 5352, Note_on_c, 0, 79, 77
2, 5375, Note_on_c, 0, 79, 0
2, 5376, Note_on_c, 0, 77, 77
2, 5399, Note_on_c, 0, 77, 0
2, 5400, Note_on_c, 0, 75, 77
2, 5423, Note_on_c, 0, 75, 0
2, 5424, Note_on_c, 0, 74, 76
2, 5447, Note_on_c, 0, 74, 0
2, 5448, Note_on_c, 0, 72, 76
2, 5471, Note_on_c, 0, 72, 0
2, 5472, Note_on_c, 0, 70, 76
2, 5495, Note_on_c, 0, 70, 0
2, 5496, Note_on_c, 0, 69, 75
2, 5519, Note_on_c, 0, 69, 0
2, 5520, Note_on_c, 0, 72, 75
2, 5543, Note_on_c, 0, 72, 0
2, 5544, Note_on_c, 0, 70, 75
2, 5567, Note_on_c, 0, 70, 0
2, 5568, Note_on_c, 0, 74, 74
2, 5591, Note_on_c, 0, 74, 0
2, 5592, Note_on_c, 0, 72, 74
2, 5615, Note_on_c, 0, 72, 0
2, 5616, Note_on_c, 0, 75, 74
2, 5639, Note_on_c, 0, 75, 0
2, 5640, Note_on_c, 0, 74, 73
2, 5663, Note_on_c, 0, 74, 0
2, 5664, Note_on_c, 0, 77, 73
2, 5684, Note_on_c, 0, 77, 0
2, 5760, Note_on_c, 0, 72, 79
2, 5783, Note_on_c, 0, 72, 0
2, 5784, Note_on_c, 0, 71, 79
2, 5807, Note_on_c, 0, 71, 0
2, 5808, Note_on_c, 0, 74, 79
2, 5831, Note_on_c, 0, 74, 0
2, 5832, Note_on_c, 0, 72, 79
2, 5855, Note_on_c, 0, 72, 0
2, 5856, Note_on_c, 0, 75, 79
2, 5879, Note_on_c, 0, 75, 0
2, 5880, Note_on_c, 0, 74, 79
2, 5903, Note_on_c, 0, 74, 0
2, 5904, Note_on_c, 0, 77, 79
2, 5927, Note_on_c, 0, 77, 0
2, 5928, Note_on_c, 0, 75, 79
2, 5951, Note_on_c, 0, 75, 0
2, 5952, Note_on_c, 0, 79, 79
2, 5972, Note_on_c, 0, 79, 0
2, 6048, Note_on_c, 0, 71, 79
2, 6071, Note_on_c, 0, 71, 0
2, 6072, Note_on_c, 0, 72, 79
2, 6095, Note_on_c, 0, 72, 0
2, 6096, Note_on_c, 0, 73, 80
2, 6119, Note_on_c, 0, 73, 0
2, 6120, Note_on_c, 0, 74, 80
2, 6143, Note_on_c, 0, 74, 0
2, 6144, Note_on_c, 0, 75, 81
2, 6167, Note_on_c, 0, 75, 0
2, 6168, Note_on_c, 0, 76, 81
2, 6191, Note_on_c, 0, 76, 0
2, 6192, Note_on_c, 0, 77, 82
2, 6215, Note_on_c, 0, 77, 0
2, 6216, Note_on_c, 0, 78, 82
2, 6239, Note_on_c, 0, 78, 0
2, 6240, Note_on_c, 0, 79, 83
2, 6285, Note_on_c, 0, 79, 0
2, 6288, Note_on_c, 0, 81, 84
2, 6298, Note_on_c, 0, 81, 0
2, 6298, Note_on_c, 0, 79, 84
2, 6308, Note_on_c, 0, 79, 0
2, 6308, Note_on_c, 0, 78, 84
2, 6318, Note_on_c, 0, 78, 0
2, 6318, Note_on_c, 0, 79, 84
2, 6327, Note_on_c, 0, 79, 0
2, 6327, Note_on_c, 0, 81, 84
2, 6336, Note_on_c, 0, 81, 0
2, 6336, Note_on_c, 0, 82, 79
2, 6356, Note_on_c, 0, 82, 0
2, 6408, Note_on_c, 0, 81, 77
2, 6432, Note_on_c, 0, 81, 0
2, 6432, Note_on_c, 0, 79, 77
2, 6452, Note_on_c, 0, 79, 0
2, 6504, Note_on_c, 0, 77, 75
2, 6528, Note_on_c, 0, 77, 0
2, 6528, Note_on_c, 0, 75, 75
2, 6548, Note_on_c, 0, 75, 0
2, 6600, Note_on_c, 0, 74, 74
2, 6623, Note_on_c, 0, 74, 0
2, 6624, Note_on_c, 0, 75, 73
2, 6636, Note_on_c, 0, 75, 0
2, 6636, Note_on_c, 0, 74, 73
2, 6648, Note_on_c, 0, 74, 0
2, 6648, Note_on_c, 0, 75, 73
2, 6660, Note_on_c, 0, 75, 0
2, 6660, Note_on_c, 0, 74, 73
2, 6672, Note_on_c, 0, 74, 0
2, 6672, Note_on_c, 0, 75, 72
2, 6684, Note_on_c, 0, 75, 0
2, 6684, Note_on_c, 0, 74, 72
2, 6696, Note_on_c, 0, 74, 0
2, 6696, Note_on_c, 0, 72, 72
2, 6708, Note_on_c, 0, 72, 0
2, 6708, Note_on_c, 0, 74, 72
2, 6720, Note_on_c, 0, 74, 0
2, 6720, Note_on_c, 0, 72, 72
2, 6809, Note_on_c, 0, 72, 0
2, 6912, Note_on_c, 0, 77, 72
2, 7045, Note_on_c, 0, 77, 0
2, 7056, Note_on_c, 0, 79, 72
2, 7079, Note_on_c, 0, 79, 0
2, 7080, Note_on_c, 0, 75, 72
2, 7103, Note_on_c, 0, 75, 0
2, 7104, Note_on_c, 0, 74, 72
2, 7149, Note_on_c, 0, 74, 0
2, 7152, Note_on_c, 0, 77, 72
2, 7164, Note_on_c, 0, 77, 0
2, 7164, Note_on_c, 0, 75, 72
2, 7176, Note_on_c, 0, 75, 0
2, 7176, Note_on_c, 0, 74, 72
2, 7188, Note_on_c, 0, 74, 0
2, 7188, Note_on_c, 0, 75, 72
2, 7200, Note_on_c, 0, 75, 0
2, 7200, Note_on_c, 0, 77, 72
2, 7245, Note_on_c, 0, 77, 0
2, 7248, Note_on_c, 0, 82, 72
2, 7293, Note_on_c, 0, 82, 0
2, 7344, Note_on_c, 0, 81, 72
2, 7389, Note_on_c, 0, 81, 0
2, 7440, Note_on_c, 0, 79, 72
2, 7485, Note_on_c, 0, 79, 0
2, 7488, Note_on_c, 0, 77, 72
2, 7621, Note_on_c, 0, 77, 0
2, 7632, Note_on_c, 0, 79, 72
2, 7655, Note_on_c, 0, 79, 0
2, 7656, Note_on_c, 0, 75, 72
2, 7679, Note_on_c, 0, 75, 0
2, 7680, Note_on_c, 0, 74, 72
2, 7725, Note_on_c, 0, 74, 0
2, 7728, Note_on_c, 0, 77, 72
2, 7740, Note_on_c, 0, 77, 0
2, 7740, Note_on_c, 0, 75, 72
2, 7752, Note_on_c, 0, 75, 0
2, 7752, Note_on_c, 0, 74, 72
2, 7764, Note_on_c, 0, 74, 0
2, 7764, Note_on_c, 0, 75, 72
2, 7776, Note_on_c, 0, 75, 0
2, 7776, Note_on_c, 0, 77, 72
2, 7821, Note_on_c, 0, 77, 0
2, 7824, Note_on_c, 0, 86, 72
2, 7869, Note_on_c, 0, 86, 0
2, 7920, Note_on_c, 0, 82, 72
2, 7965, Note_on_c, 0, 82, 0
2, 8016, Note_on_c, 0, 79, 72
2, 8061, Note_on_c, 0, 79, 0
2, 8064, Note_on_c, 0, 74, 72
2, 8082, Note_on_c, 0, 74, 0
2, 8082, Note_on_c, 0, 77, 88
2, 8256, Note_on_c, 0, 77, 0
2, 8256, Note_on_c, 0, 76, 72
2, 8279, Note_on_c, 0, 76, 0
2, 8280, Note_on_c, 0, 77, 72
2, 8303, Note_on_c, 0, 77, 0
2, 8304, Note_on_c, 0, 79, 72
2, 8327, Note_on_c, 0, 79, 0
2, 8328, Note_on_c, 0, 77, 72
2, 8351, Note_on_c, 0, 77, 0
2, 8352, Note_on_c, 0, 77, 88
2, 8544, Note_on_c, 0, 77, 0
2, 8544, Note_on_c, 0, 76, 72
2, 8567, Note_on_c, 0, 76, 0
2, 8568, Note_on_c, 0, 77, 72
2, 8591, Note_on_c, 0, 77, 0
2, 8592, Note_on_c, 0, 79, 72
2, 8615, Note_on_c, 0, 79, 0
2, 8616, Note_on_c, 0, 77, 72
2, 8639, Note_on_c, 0, 77, 0
2, 8640, Note_on_c, 0, 82, 88
2, 8832, Note_on_c, 0, 82, 0
2, 8832, Note_on_c, 0, 76, 72
2, 8855, Note_on_c, 0, 76, 0
2, 8856, Note_on_c, 0, 77, 72
2, 8879, Note_on_c, 0, 77, 0
2, 8880, Note_on_c, 0, 79, 72
2, 8903, Note_on_c, 0, 79, 0
2, 8904, Note_on_c, 0, 77, 72
2, 8927, Note_on_c, 0, 77, 0
2, 8928, Note_on_c, 0, 77, 88
2, 9120, Note_on_c, 0, 77, 0
2, 9120, Note_on_c, 0, 78, 72
2, 9143, Note_on_c, 0, 78, 0
2, 9144, Note_on_c, 0, 79, 72
2, 9167, Note_on_c, 0, 79, 0
2, 9168, Note_on_c, 0, 81, 72
2, 9191, Note_on_c, 0, 81, 0
2, 9192, Note_on_c, 0, 79, 73
2, 9215, Note_on_c, 0, 79, 0
2, 9216, Note_on_c, 0, 79, 89
2, 9408, Note_on_c, 0, 79, 0
2, 9408, Note_on_c, 0, 81, 77
2, 9431, Note_on_c, 0, 81, 0
2, 9432, Note_on_c, 0, 82, 77
2, 9455, Note_on_c, 0, 82, 0
2, 9456, Note_on_c, 0, 84, 78
2, 9479, Note_on_c, 0, 84, 0
2, 9480, Note_on_c, 0, 82, 78
2, 9503, Note_on_c, 0, 82, 0
2, 9504, Note_on_c, 0, 82, 95
2, 9645, Note_on_c, 0, 82, 0
2, 9648, Note_on_c, 0, 86, 79
2, 9671, Note_on_c, 0, 86, 0
2, 9672, Note_on_c, 0, 84, 79
2, 9695, Note_on_c, 0, 84, 0
2, 9696, Note_on_c, 0, 82, 79
2, 9719, Note_on_c, 0, 82, 0
2, 9720, Note_on_c, 0, 81, 79
2, 9743, Note_on_c, 0, 81, 0
2, 9744, Note_on_c, 0, 79, 79
2, 9767, Note_on_c, 0, 79, 0
2, 9768, Note_on_c, 0, 77, 79
2, 9791, Note_on_c, 0, 77, 0
2, 9792, Note_on_c, 0, 79, 79
2, 9804, Note_on_c, 0, 79, 0
2, 9804, Note_on_c, 0, 77, 79
2, 9816, Note_on_c, 0, 77, 0
2, 9816, Note_on_c, 0, 75, 79
2, 9828, Note_on_c, 0, 75, 0
2, 9828, Note_on_c, 0, 77, 79
2, 9840, Note_on_c, 0, 77, 0
2, 9840, Note_on_c, 0, 79, 77
2, 9863, Note_on_c, 0, 79, 0
2, 9864, Note_on_c, 0, 75, 77
2, 9887, Note_on_c, 0, 75, 0
2, 9888, Note_on_c, 0, 74, 76
2, 9977, Note_on_c, 0, 74, 0
2, 9984, Note_on_c, 0, 74, 74
2, 9996, Note_on_c, 0, 74, 0
2, 9996, Note_on_c, 0, 72, 74
2, 10008, Note_on_c, 0, 72, 0
2, 10008, Note_on_c, 0, 74, 73
2, 10020, Note_on_c, 0, 74, 0
2, 10020, Note_on_c, 0, 72, 73
2, 10032, Note_on_c, 0, 72, 0
2, 10032, Note_on_c, 0, 74, 73
2, 10044, Note_on_c, 0, 74, 0
2, 10044, Note_on_c, 0, 72, 72
2, 10056, Note_on_c, 0, 72, 0
2, 10056, Note_on_c, 0, 70, 72
2, 10068, Note_on_c, 0, 70, 0
2, 10068, Note_on_c, 0, 72, 72
2, 10080, Note_on_c, 0, 72, 0
2, 10080, Note_on_c, 0, 70, 72
2, 10125, Note_on_c, 0, 70, 0
2, 10128, Note_on_c, 0, 82, 72
2, 10173, Note_on_c, 0, 82, 0
2, 10176, Note_on_c, 0, 81, 72
2, 10188, Note_on_c, 0, 81, 0
2, 10188, Note_on_c, 0, 82, 72
2, 10200, Note_on_c, 0, 82, 0
2, 10200, Note_on_c, 0, 81, 72
2, 10212, Note_on_c, 0, 81, 0
2, 10212, Note_on_c, 0, 82, 72
2, 10221, Note_on_c, 0, 82, 0
2, 10224, Note_on_c, 0, 79, 72
2, 10269, Note_on_c, 0, 79, 0
2, 10272, Note_on_c, 0, 77, 72
2, 10317, Note_on_c, 0, 77, 0
2, 10320, Note_on_c, 0, 76, 72
2, 10365, Note_on_c, 0, 76, 0
2, 10368, Note_on_c, 0, 76, 72
2, 10583, Note_on_c, 0, 76, 0
2, 10584, Note_on_c, 0, 77, 72
2, 10607, Note_on_c, 0, 77, 0
2, 10608, Note_on_c, 0, 79, 72
2, 10631, Note_on_c, 0, 79, 0
2, 10632, Note_on_c, 0, 77, 72
2, 10655, Note_on_c, 0, 77, 0
2, 10656, Note_on_c, 0, 77, 72
2, 10811, Note_on_c, 0, 77, 0
2, 10896, Note_on_c, 0, 79, 72
2, 10920, Note_on_c, 0, 79, 0
2, 10920, Note_on_c, 0, 77, 72
2, 10943, Note_on_c, 0, 77, 0
2, 10992, Note_on_c, 0, 77, 73
2, 11016, Note_on_c, 0, 77, 0
2, 11016, Note_on_c, 0, 75, 73
2, 11039, Note_on_c, 0, 75, 0
2, 11088, Note_on_c, 0, 75, 75
2, 11112, Note_on_c, 0, 75, 0
2, 11112, Note_on_c, 0, 74, 76
2, 11135, Note_on_c, 0, 74, 0
2, 11184, Note_on_c, 0, 74, 77
2, 11208, Note_on_c, 0, 74, 0
2, 11208, Note_on_c, 0, 72, 78
2, 11231, Note_on_c, 0, 72, 0
2, 11472, Note_on_c, 0, 75, 79
2, 11496, Note_on_c, 0, 75, 0
2, 11496, Note_on_c, 0, 74, 79
2, 11519, Note_on_c, 0, 74, 0
2, 11760, Note_on_c, 0, 77, 79
2, 11784, Note_on_c, 0, 77, 0
2, 11784, Note_on_c, 0, 75, 79
2, 11807, Note_on_c, 0, 75, 0
2, 11808, Note_on_c, 0, 75, 95
2, 12000, Note_on_c, 0, 75, 0
2, 12000, Note_on_c, 0, 65, 79
2, 12015, Note_on_c, 0, 65, 0
2, 12016, Note_on_c, 0, 69, 79
2, 12031, Note_on_c, 0, 69, 0
2, 12032, Note_on_c, 0, 72, 79
2, 12047, Note_on_c, 0, 72, 0
2, 12048, Note_on_c, 0, 75, 79
2, 12063, Note_on_c, 0, 75, 0
2, 12064, Note_on_c, 0, 77, 79
2, 12079, Note_on_c, 0, 77, 0
2, 12080, Note_on_c, 0, 81, 79
2, 12095, Note_on_c, 0, 81, 0
2, 12096, Note_on_c, 0, 82, 95
2, 12215, Note_on_c, 0, 82, 0
2, 12216, Note_on_c, 0, 81, 79
2, 12239, Note_on_c, 0, 81, 0
2, 12240, Note_on_c, 0, 79, 79
2, 12263, Note_on_c, 0, 79, 0
2, 12264, Note_on_c, 0, 77, 79
2, 12287, Note_on_c, 0, 77, 0
2, 12288, Note_on_c, 0, 75, 79
2, 12311, Note_on_c, 0, 75, 0
2, 12312, Note_on_c, 0, 74, 79
2, 12335, Note_on_c, 0, 74, 0
2, 12336, Note_on_c, 0, 72, 79
2, 12359, Note_on_c, 0, 72, 0
2, 12360, Note_on_c, 0, 70, 79
2, 12383, Note_on_c, 0, 70, 0
2, 12384, Note_on_c, 0, 71, 79
2, 12407, Note_on_c, 0, 71, 0
2, 12408, Note_on_c, 0, 72, 79
2, 12431, Note_on_c, 0, 72, 0
2, 12432, Note_on_c, 0, 75, 78
2, 12455, Note_on_c, 0, 75, 0
2, 12456, Note_on_c, 0, 72, 77
2, 12479, Note_on_c, 0, 72, 0
2, 12480, Note_on_c, 0, 70, 77
2, 12569, Note_on_c, 0, 70, 0
2, 12576, Note_on_c, 0, 70, 74
2, 12588, Note_on_c, 0, 70, 0
2, 12588, Note_on_c, 0, 69, 74
2, 12600, Note_on_c, 0, 69, 0
2, 12600, Note_on_c, 0, 70, 73
2, 12612, Note_on_c, 0, 70, 0
2, 12612, Note_on_c, 0, 69, 73
2, 12624, Note_on_c, 0, 69, 0
2, 12624, Note_on_c, 0, 70, 73
2, 12636, Note_on_c, 0, 70, 0
2, 12636, Note_on_c, 0, 69, 72
2, 12648, Note_on_c, 0, 69, 0
2, 12648, Note_on_c, 0, 67, 72
2, 12660, Note_on_c, 0, 67, 0
2, 12660, Note_on_c, 0, 69, 72
2, 12672, Note_on_c, 0, 69, 0
2, 12672, Note_on_c, 0, 70, 72
2, 12695, Note_on_c, 0, 70, 0
2, 12696, Note_on_c, 0, 70, 72
2, 12719, Note_on_c, 0, 70, 0
2, 12720, Note_on_c, 0, 70, 72
2, 12732, Note_on_c, 0, 70, 0
2, 12732, Note_on_c, 0, 72, 72
2, 12744, Note_on_c, 0, 72, 0
2, 12744, Note_on_c, 0, 70, 72
2, 12756, Note_on_c, 0, 70, 0
2, 12756, Note_on_c, 0, 72, 72
2, 12765, Note_on_c, 0, 72, 0
2, 12768, Note_on_c, 0, 75, 73
2, 12791, Note_on_c, 0, 75, 0
2, 12792, Note_on_c, 0, 70, 74
2, 12815, Note_on_c, 0, 70, 0
2, 12816, Note_on_c, 0, 70, 74
2, 12828, Note_on_c, 0, 70, 0
2, 12828, Note_on_c, 0, 72, 74
2, 12840, Note_on_c, 0, 72, 0
2, 12840, Note_on_c, 0, 70, 74
2, 12852, Note_on_c, 0, 70, 0
2, 12852, Note_on_c, 0, 72, 74
2, 12861, Note_on_c, 0, 72, 0
2, 12864, Note_on_c, 0, 74, 75
2, 12887, Note_on_c, 0, 74, 0
2, 12888, Note_on_c, 0, 70, 75
2, 12911, Note_on_c, 0, 70, 0
2, 12912, Note_on_c, 0, 70, 76
2, 12924, Note_on_c, 0, 70, 0
2, 12924, Note_on_c, 0, 72, 76
2, 12936, Note_on_c, 0, 72, 0
2, 12936, Note_on_c, 0, 70, 76
2, 12948, Note_on_c, 0, 70, 0
2, 12948, Note_on_c, 0, 72, 76
2, 12957, Note_on_c, 0, 72, 0
2, 12960, Note_on_c, 0, 79, 77
2, 12983, Note_on_c, 0, 79, 0
2, 12984, Note_on_c, 0, 70, 77
2, 13007, Note_on_c, 0, 70, 0
2, 13008, Note_on_c, 0, 70, 78
2, 13020, Note_on_c, 0, 70, 0
2, 13020, Note_on_c, 0, 72, 78
2, 13032, Note_on_c, 0, 72, 0
2, 13032, Note_on_c, 0, 70, 78
2, 13044, Note_on_c, 0, 70, 0
2, 13044, Note_on_c, 0, 72, 78
2, 13053, Note_on_c, 0, 72, 0
2, 13056, Note_on_c, 0, 82, 95
2, 13167, Note_on_c, 0, 82, 0
2, 13168, Note_on_c, 0, 81, 79
2, 13183, Note_on_c, 0, 81, 0
2, 13184, Note_on_c, 0, 79, 79
2, 13199, Note_on_c, 0, 79, 0
2, 13200, Note_on_c, 0, 77, 79
2, 13215, Note_on_c, 0, 77, 0
2, 13216, Note_on_c, 0, 75, 79
2, 13231, Note_on_c, 0, 75, 0
2, 13232, Note_on_c, 0, 74, 79
2, 13247, Note_on_c, 0, 74, 0
2, 13248, Note_on_c, 0, 72, 79
2, 13263, Note_on_c, 0, 72, 0
2, 13264, Note_on_c, 0, 79, 78
2, 13279, Note_on_c, 0, 79, 0
2, 13280, Note_on_c, 0, 77, 78
2, 13295, Note_on_c, 0, 77, 0
2, 13296, Note_on_c, 0, 75, 78
2, 13311, Note_on_c, 0, 75, 0
2, 13312, Note_on_c, 0, 74, 77
2, 13327, Note_on_c, 0, 74, 0
2, 13328, Note_on_c, 0, 72, 77
2, 13343, Note_on_c, 0, 72, 0
2, 13344, Note_on_c, 0, 70, 77
2, 13359, Note_on_c, 0, 70, 0
2, 13360, Note_on_c, 0, 77, 76
2, 13375, Note_on_c, 0, 77, 0
2, 13376, Note_on_c, 0, 75, 76
2, 13391, Note_on_c, 0, 75, 0
2, 13392, Note_on_c, 0, 74, 76
2, 13407, Note_on_c, 0, 74, 0
2, 13408, Note_on_c, 0, 72, 76
2, 13423, Note_on_c, 0, 72, 0
2, 13424, Note_on_c, 0, 70, 75
2, 13439, Note_on_c, 0, 70, 0
2, 13440, Note_on_c, 0, 69, 75
2, 13455, Note_on_c, 0, 69, 0
2, 13456, Note_on_c, 0, 67, 75
2, 13471, Note_on_c, 0, 67, 0
2, 13472, Note_on_c, 0, 65, 74
2, 13487, Note_on_c, 0, 65, 0
2, 13488, Note_on_c, 0, 63, 74
2, 13503, Note_on_c, 0, 63, 0
2, 13504, Note_on_c, 0, 62, 74
2, 13519, Note_on_c, 0, 62, 0
2, 13520, Note_on_c, 0, 60, 74
2, 13535, Note_on_c, 0, 60, 0
2, 13536, Note_on_c, 0, 58, 72
2, 13559, Note_on_c, 0, 58, 0
2, 13560, Note_on_c, 0, 70, 72
2, 13583, Note_on_c, 0, 70, 0
2, 13584, Note_on_c, 0, 70, 72
2, 13596, Note_on_c, 0, 70, 0
2, 13596, Note_on_c, 0, 72, 72
2, 13608, Note_on_c, 0, 72, 0
2, 13608, Note_on_c, 0, 70, 72
2, 13620, Note_on_c, 0, 70, 0
2, 13620, Note_on_c, 0, 72, 72
2, 13629, Note_on_c, 0, 72, 0
2, 13632, Note_on_c, 0, 75, 73
2, 13655, Note_on_c, 0, 75, 0
2, 13656, Note_on_c, 0, 70, 74
2, 13679, Note_on_c, 0, 70, 0
2, 13680, Note_on_c, 0, 70, 74
2, 13692, Note_on_c, 0, 70, 0
2, 13692, Note_on_c, 0, 72, 74
2, 13704, Note_on_c, 0, 72, 0
2, 13704, Note_on_c, 0, 70, 74
2, 13716, Note_on_c, 0, 70, 0
2, 13716, Note_on_c, 0, 72, 74
2, 13725, Note_on_c, 0, 72, 0
2, 13728, Note_on_c, 0, 74, 75
2, 13751, Note_on_c, 0, 74, 0
2, 13752, Note_on_c, 0, 70, 75
2, 13775, Note_on_c, 0, 70, 0
2, 13776, Note_on_c, 0, 70, 76
2, 13788, Note_on_c, 0, 70, 0
2, 13788, Note_on_c, 0, 72, 76
2, 13800, Note_on_c, 0, 72, 0
2, 13800, Note_on_c, 0, 70, 76
2, 13812, Note_on_c, 0, 70, 0
2, 13812, Note_on_c, 0, 72, 76
2, 13821, Note_on_c, 0, 72, 0
2, 13824, Note_on_c, 0, 79, 77
2, 13847, Note_on_c, 0, 79, 0
2, 13848, Note_on_c, 0, 70, 77
2, 13871, Note_on_c, 0, 70, 0
2, 13872, Note_on_c, 0, 70, 78
2, 13884, Note_on_c, 0, 70, 0
2, 13884, Note_on_c, 0, 72, 78
2, 13896, Note_on_c, 0, 72, 0
2, 13896, Note_on_c, 0, 70, 78
2, 13908, Note_on_c, 0, 70, 0
2, 13908, Note_on_c, 0, 72, 78
2, 13917, Note_on_c, 0, 72, 0
2, 13920, Note_on_c, 0, 82, 95
2, 14031, Note_on_c, 0, 82, 0
2, 14032, Note_on_c, 0, 81, 79
2, 14047, Note_on_c, 0, 81, 0
2, 14048, Note_on_c, 0, 79, 79
2, 14063, Note_on_c, 0, 79, 0
2, 14064, Note_on_c, 0, 77, 79
2, 14079, Note_on_c, 0, 77, 0
2, 14080, Note_on_c, 0, 75, 79
2, 14095, Note_on_c, 0, 75, 0
2, 14096, Note_on_c, 0, 74, 79
2, 14111, Note_on_c, 0, 74, 0
2, 14112, Note_on_c, 0, 72, 79
2, 14127, Note_on_c, 0, 72, 0
2, 14128, Note_on_c, 0, 79, 78
2, 14143, Note_on_c, 0, 79, 0
2, 14144, Note_on_c, 0, 77, 78
2, 14159, Note_on_c, 0, 77, 0
2, 14160, Note_on_c, 0, 75, 78
2, 14175, Note_on_c, 0, 75, 0
2, 14176, Note_on_c, 0, 74, 77
2, 14191, Note_on_c, 0, 74, 0
2, 14192, Note_on_c, 0, 72, 77
2, 14207, Note_on_c, 0, 72, 0
2, 14208, Note_on_c, 0, 70, 77
2, 14223, Note_on_c, 0, 70, 0
2, 14224, Note_on_c, 0, 77, 76
2, 14239, Note_on_c, 0, 77, 0
2, 14240, Note_on_c, 0, 75, 76
2, 14255, Note_on_c, 0, 75, 0
2, 14256, Note_on_c, 0, 74, 76
2, 14271, Note_on_c, 0, 74, 0
2, 14272, Note_on_c, 0, 72, 76
2, 14287, Note_on_c, 0, 72, 0
2, 14288, Note_on_c, 0, 70, 75
2, 14303, Note_on_c, 0, 70, 0
2, 14304, Note_on_c, 0, 69, 75
2, 14319, Note_on_c, 0, 69, 0
2, 14320, Note_on_c, 0, 67, 75
2, 14335, Note_on_c, 0, 67, 0
2, 14336, Note_on_c, 0, 65, 74
2, 14351, Note_on_c, 0, 65, 0
2, 14352, Note_on_c, 0, 63, 74
2, 14367, Note_on_c, 0, 63, 0
2, 14368, Note_on_c, 0, 62, 74
2, 14383, Note_on_c, 0, 62, 0
2, 14384, Note_on_c, 0, 60, 74
2, 14399, Note_on_c, 0, 60, 0
2, 14400, Note_on_c, 0, 58, 72
2, 14533, Note_on_c, 0, 58, 0
2, 14544, Note_on_c, 0, 57, 72
2, 14589, Note_on_c, 0, 57, 0
2, 14592, Note_on_c, 0, 63, 72
2, 14592, Note_on_c, 0, 60, 72
2, 14637, Note_on_c, 0, 63, 0
2, 14637, Note_on_c, 0, 60, 0
2, 14640, Note_on_c, 0, 60, 72
2, 14640, Note_on_c, 0, 57, 72
2, 14685, Note_on_c, 0, 60, 0
2, 14685, Note_on_c, 0, 57, 0
2, 14688, Note_on_c, 0, 62, 72
2, 14688, Note_on_c, 0, 58, 72
2, 14821, Note_on_c, 0, 62, 0
2, 14821, Note_on_c, 0, 58, 0
2, 14832, Note_on_c, 0, 60, 72
2, 14832, Note_on_c, 0, 57, 72
2, 14877, Note_on_c, 0, 60, 0
2, 14877, Note_on_c, 0, 57, 0
2, 14880, Note_on_c, 0, 67, 72
2, 14880, Note_on_c, 0, 63, 72
2, 14925, Note_on_c, 0, 67, 0
2, 14925, Note_on_c, 0, 63, 0
2, 14928, Note_on_c, 0, 63, 72
2, 14928, Note_on_c, 0, 60, 72
2, 14973, Note_on_c, 0, 63, 0
2, 14973, Note_on_c, 0, 60, 0
2, 14976, Note_on_c, 0, 65, 72
2, 14976, Note_on_c, 0, 62, 72
2, 15109, Note_on_c, 0, 65, 0
2, 15109, Note_on_c, 0, 62, 0
2, 15120, Note_on_c, 0, 70, 72
2, 15132, Note_on_c, 0, 70, 0
2, 15132, Note_on_c, 0, 67, 72
2, 15166, Note_on_c, 0, 67, 0
2, 15168, Note_on_c, 0, 69, 72
2, 15180, Note_on_c, 0, 69, 0
2, 15180, Note_on_c, 0, 65, 72
2, 15214, Note_on_c, 0, 65, 0
2, 15216, Note_on_c, 0, 67, 72
2, 15228, Note_on_c, 0, 67, 0
2, 15228, Note_on_c, 0, 63, 72
2, 15262, Note_on_c, 0, 63, 0
2, 15264, Note_on_c, 0, 65, 72
2, 15264, Note_on_c, 0, 62, 72
2, 15397, Note_on_c, 0, 65, 0
2, 15397, Note_on_c, 0, 62, 0
2, 15408, Note_on_c, 0, 70, 72
2, 15420, Note_on_c, 0, 70, 0
2, 15420, Note_on_c, 0, 67, 72
2, 15454, Note_on_c, 0, 67, 0
2, 15456, Note_on_c, 0, 69, 72
2, 15468, Note_on_c, 0, 69, 0
2, 15468, Note_on_c, 0, 65, 72
2, 15502, Note_on_c, 0, 65, 0
2, 15504, Note_on_c, 0, 67, 72
2, 15516, Note_on_c, 0, 67, 0
2, 15516, Note_on_c, 0, 63, 72
2, 15550, Note_on_c, 0, 63, 0
2, 15552, Note_on_c, 0, 65, 72
2, 15552, Note_on_c, 0, 62, 72
2, 15685, Note_on_c, 0, 65, 0
2, 15685, Note_on_c, 0, 62, 0
2, 15696, Note_on_c, 0, 65, 74
2, 15702, Note_on_c, 0, 65, 0
2, 15702, Note_on_c, 0, 77, 74
2, 15716, Note_on_c, 0, 77, 0
2, 15744, Note_on_c, 0, 67, 75
2, 15750, Note_on_c, 0, 67, 0
2, 15750, Note_on_c, 0, 79, 75
2, 15764, Note_on_c, 0, 79, 0
2, 15792, Note_on_c, 0, 69, 75
2, 15798, Note_on_c, 0, 69, 0
2, 15798, Note_on_c, 0, 81, 75
2, 15812, Note_on_c, 0, 81, 0
2, 15840, Note_on_c, 0, 70, 76
2, 15846, Note_on_c, 0, 70, 0
2, 15846, Note_on_c, 0, 82, 76
2, 15860, Note_on_c, 0, 82, 0
2, 15888, Note_on_c, 0, 72, 77
2, 15894, Note_on_c, 0, 72, 0
2, 15894, Note_on_c, 0, 84, 77
2, 15908, Note_on_c, 0, 84, 0
2, 15936, Note_on_c, 0, 74, 78
2, 15942, Note_on_c, 0, 74, 0
2, 15942, Note_on_c, 0, 86, 78
2, 15956, Note_on_c, 0, 86, 0
2, 16176, Note_on_c, 0, 55, 72
2, 16221, Note_on_c, 0, 55, 0
2, 16224, Note_on_c, 0, 63, 72
2, 16269, Note_on_c, 0, 63, 0
2, 16272, Note_on_c, 0, 67, 72
2, 16317, Note_on_c, 0, 67, 0
2, 16320, Note_on_c, 0, 60, 72
2, 16387, Note_on_c, 0, 60, 0
2, 16392, Note_on_c, 0, 57, 70
2, 16415, Note_on_c, 0, 57, 0
2, 16416, Note_on_c, 0, 57, 69
2, 16512, Note_on_c, 0, 57, 0
2, 16512, Note_on_c, 0, 58, 67
2, 16601, Note_on_c, 0, 58, 0
2, 16704, Note_on_c, 0, 70, 79
2, 16823, Note_on_c, 0, 70, 0
2, 16824, Note_on_c, 0, 67, 79
2, 16847, Note_on_c, 0, 67, 0
2, 16848, Note_on_c, 0, 68, 79
2, 16871, Note_on_c, 0, 68, 0
2, 16872, Note_on_c, 0, 65, 79
2, 16895, Note_on_c, 0, 65, 0
2, 16896, Note_on_c, 0, 67, 79
2, 16919, Note_on_c, 0, 67, 0
2, 16920, Note_on_c, 0, 63, 79
2, 16943, Note_on_c, 0, 63, 0
2, 16944, Note_on_c, 0, 65, 79
2, 16967, Note_on_c, 0, 65, 0
2, 16968, Note_on_c, 0, 62, 79
2, 16991, Note_on_c, 0, 62, 0
2, 16992, Note_on_c, 0, 63, 79
2, 17012, Note_on_c, 0, 63, 0
2, 17040, Note_on_c, 0, 58, 81
2, 17060, Note_on_c, 0, 58, 0
2, 17088, Note_on_c, 0, 55, 83
2, 17108, Note_on_c, 0, 55, 0
2, 17136, Note_on_c, 0, 58, 85
2, 17156, Note_on_c, 0, 58, 0
2, 17184, Note_on_c, 0, 63, 83
2, 17204, Note_on_c, 0, 63, 0
2, 17232, Note_on_c, 0, 67, 81
2, 17252, Note_on_c, 0, 67, 0
2, 17280, Note_on_c, 0, 70, 79
2, 17399, Note_on_c, 0, 70, 0
2, 17400, Note_on_c, 0, 67, 79
2, 17423, Note_on_c, 0, 67, 0
2, 17424, Note_on_c, 0, 68, 79
2, 17447, Note_on_c, 0, 68, 0
2, 17448, Note_on_c, 0, 65, 79
2, 17471, Note_on_c, 0, 65, 0
2, 17472, Note_on_c, 0, 67, 79
2, 17495, Note_on_c, 0, 67, 0
2, 17496, Note_on_c, 0, 63, 79
2, 17519, Note_on_c, 0, 63, 0
2, 17520, Note_on_c, 0, 65, 79
2, 17543, Note_on_c, 0, 65, 0
2, 17544, Note_on_c, 0, 62, 79
2, 17567, Note_on_c, 0, 62, 0
2, 17568, Note_on_c, 0, 63, 79
2, 17613, Note_on_c, 0, 63, 0
2, 17616, Note_on_c, 0, 75, 79
2, 17616, Note_on_c, 0, 67, 79
2, 17636, Note_on_c, 0, 75, 0
2, 17636, Note_on_c, 0, 67, 0
2, 17664, Note_on_c, 0, 75, 79
2, 17664, Note_on_c, 0, 67, 79
2, 17684, Note_on_c, 0, 75, 0
2, 17684, Note_on_c, 0, 67, 0
2, 17712, Note_on_c, 0, 75, 79
2, 17712, Note_on_c, 0, 67, 79
2, 17732, Note_on_c, 0, 75, 0
2, 17732, Note_on_c, 0, 67, 0
2, 17760, Note_on_c, 0, 75, 79
2, 17760, Note_on_c, 0, 67, 79
2, 17780, Note_on_c, 0, 75, 0
2, 17780, Note_on_c, 0, 67, 0
2, 17808, Note_on_c, 0, 75, 79
2, 17808, Note_on_c, 0, 67, 79
2, 17828, Note_on_c, 0, 75, 0
2, 17828, Note_on_c, 0, 67, 0
2, 17856, Note_on_c, 0, 75, 95
2, 18048, Note_on_c, 0, 75, 0
2, 18048, Note_on_c, 0, 74, 79
2, 18137, Note_on_c, 0, 74, 0
2, 18192, Note_on_c, 0, 82, 79
2, 18192, Note_on_c, 0, 73, 79
2, 18212, Note_on_c, 0, 82, 0
2, 18212, Note_on_c, 0, 73, 0
2, 18240, Note_on_c, 0, 82, 79
2, 18240, Note_on_c, 0, 73, 79
2, 18260, Note_on_c, 0, 82, 0
2, 18260, Note_on_c, 0, 73, 0
2, 18288, Note_on_c, 0, 82, 79
2, 18288, Note_on_c, 0, 73, 79
2, 18308, Note_on_c, 0, 82, 0
2, 18308, Note_on_c, 0, 73, 0
2, 18336, Note_on_c, 0, 82, 79
2, 18336, Note_on_c, 0, 73, 79
2, 18356, Note_on_c, 0, 82, 0
2, 18356, Note_on_c, 0, 73, 0
2, 18384, Note_on_c, 0, 82, 79
2, 18384, Note_on_c, 0, 73, 79
2, 18404, Note_on_c, 0, 82, 0
2, 18404, Note_on_c, 0, 73, 0
2, 18432, Note_on_c, 0, 82, 79
2, 18432, Note_on_c, 0, 73, 79
2, 18528, Note_on_c, 0, 82, 0
2, 18528, Note_on_c, 0, 73, 0
2, 18528, Note_on_c, 0, 80, 79
2, 18528, Note_on_c, 0, 72, 79
2, 18573, Note_on_c, 0, 80, 0
2, 18573, Note_on_c, 0, 72, 0
2, 18576, Note_on_c, 0, 70, 79
2, 18588, Note_on_c, 0, 70, 0
2, 18588, Note_on_c, 0, 79, 95
2, 18624, Note_on_c, 0, 79, 0
2, 18624, Note_on_c, 0, 68, 79
2, 18636, Note_on_c, 0, 68, 0
2, 18636, Note_on_c, 0, 77, 95
2, 18672, Note_on_c, 0, 77, 0
2, 18672, Note_on_c, 0, 65, 79
2, 18684, Note_on_c, 0, 65, 0
2, 18684, Note_on_c, 0, 74, 95
2, 18720, Note_on_c, 0, 74, 0
2, 18720, Note_on_c, 0, 67, 79
2, 18732, Note_on_c, 0, 67, 0
2, 18732, Note_on_c, 0, 75, 95
2, 18768, Note_on_c, 0, 75, 0
2, 19008, Note_on_c, 0, 70, 79
2, 19127, Note_on_c, 0, 70, 0
2, 19128, Note_on_c, 0, 67, 79
2, 19151, Note_on_c, 0, 67, 0
2, 19152, Note_on_c, 0, 68, 79
2, 19175, Note_on_c, 0, 68, 0
2, 19176, Note_on_c, 0, 65, 79
2, 19199, Note_on_c, 0, 65, 0
2, 19200, Note_on_c, 0, 67, 79
2, 19223, Note_on_c, 0, 67, 0
2, 19224, Note_on_c, 0, 63, 79
2, 19247, Note_on_c, 0, 63, 0
2, 19248, Note_on_c, 0, 65, 79
2, 19271, Note_on_c, 0, 65, 0
2, 19272, Note_on_c, 0, 62, 79
2, 19295, Note_on_c, 0, 62, 0
2, 19296, Note_on_c, 0, 63, 79
2, 19316, Note_on_c, 0, 63, 0
2, 19344, Note_on_c, 0, 67, 79
2, 19364, Note_on_c, 0, 67, 0
2, 19392, Note_on_c, 0, 70, 79
2, 19412, Note_on_c, 0, 70, 0
2, 19440, Note_on_c, 0, 75, 79
2, 19460, Note_on_c, 0, 75, 0
2, 19488, Note_on_c, 0, 79, 79
2, 19511, Note_on_c, 0, 79, 0
2, 19512, Note_on_c, 0, 75, 79
2, 19535, Note_on_c, 0, 75, 0
2, 19536, Note_on_c, 0, 75, 79
2, 19548, Note_on_c, 0, 75, 0
2, 19548, Note_on_c, 0, 77, 79
2, 19560, Note_on_c, 0, 77, 0
2, 19560, Note_on_c, 0, 75, 79
2, 19572, Note_on_c, 0, 75, 0
2, 19572, Note_on_c, 0, 77, 79
2, 19581, Note_on_c, 0, 77, 0
2, 19584, Note_on_c, 0, 80, 79
2, 19607, Note_on_c, 0, 80, 0
2, 19608, Note_on_c, 0, 75, 79
2, 19631, Note_on_c, 0, 75, 0
2, 19632, Note_on_c, 0, 75, 79
2, 19644, Note_on_c, 0, 75, 0
2, 19644, Note_on_c, 0, 77, 79
2, 19656, Note_on_c, 0, 77, 0
2, 19656, Note_on_c, 0, 75, 79
2, 19668, Note_on_c, 0, 75, 0
2, 19668, Note_on_c, 0, 77, 79
2, 19677, Note_on_c, 0, 77, 0
2, 19680, Note_on_c, 0, 79, 79
2, 19703, Note_on_c, 0, 79, 0
2, 19704, Note_on_c, 0, 75, 79
2, 19727, Note_on_c, 0, 75, 0
2, 19728, Note_on_c, 0, 75, 79
2, 19740, Note_on_c, 0, 75, 0
2, 19740, Note_on_c, 0, 77, 79
2, 19752, Note_on_c, 0, 77, 0
2, 19752, Note_on_c, 0, 75, 79
2, 19764, Note_on_c, 0, 75, 0
2, 19764, Note_on_c, 0, 77, 79
2, 19773, Note_on_c, 0, 77, 0
2, 19776, Note_on_c, 0, 84, 79
2, 19799, Note_on_c, 0, 84, 0
2, 19800, Note_on_c, 0, 75, 79
2, 19823, Note_on_c, 0, 75, 0
2, 19824, Note_on_c, 0, 75, 79
2, 19836, Note_on_c, 0, 75, 0
2, 19836, Note_on_c, 0, 77, 79
2, 19848, Note_on_c, 0, 77, 0
2, 19848, Note_on_c, 0, 75, 79
2, 19860, Note_on_c, 0, 75, 0
2, 19860, Note_on_c, 0, 77, 79
2, 19869, Note_on_c, 0, 77, 0
2, 19872, Note_on_c, 0, 82, 79
2, 20005, Note_on_c, 0, 82, 0
2, 20016, Note_on_c, 0, 84, 79
2, 20039, Note_on_c, 0, 84, 0
2, 20040, Note_on_c, 0, 82, 79
2, 20063, Note_on_c, 0, 82, 0
2, 20064, Note_on_c, 0, 80, 79
2, 20087, Note_on_c, 0, 80, 0
2, 20088, Note_on_c, 0, 79, 79
2, 20111, Note_on_c, 0, 79, 0
2, 20112, Note_on_c, 0, 77, 79
2, 20135, Note_on_c, 0, 77, 0
2, 20136, Note_on_c, 0, 75, 79
2, 20159, Note_on_c, 0, 75, 0
2, 20160, Note_on_c, 0, 75, 79
2, 20256, Note_on_c, 0, 75, 0
2, 20256, Note_on_c, 0, 74, 79
2, 20301, Note_on_c, 0, 74, 0
2, 20304, Note_on_c, 0, 79, 79
2, 20327, Note_on_c, 0, 79, 0
2, 20328, Note_on_c, 0, 77, 79
2, 20351, Note_on_c, 0, 77, 0
2, 20352, Note_on_c, 0, 75, 79
2, 20375, Note_on_c, 0, 75, 0
2, 20376, Note_on_c, 0, 74, 79
2, 20399, Note_on_c, 0, 74, 0
2, 20400, Note_on_c, 0, 72, 79
2, 20423, Note_on_c, 0, 72, 0
2, 20424, Note_on_c, 0, 70, 79
2, 20447, Note_on_c, 0, 70, 0
2, 20448, Note_on_c, 0, 70, 79
2, 20544, Note_on_c, 0, 70, 0
2, 20544, Note_on_c, 0, 68, 79
2, 20589, Note_on_c, 0, 68, 0
2, 20592, Note_on_c, 0, 75, 79
2, 20615, Note_on_c, 0, 75, 0
2, 20616, Note_on_c, 0, 74, 79
2, 20639, Note_on_c, 0, 74, 0
2, 20640, Note_on_c, 0, 72, 79
2, 20663, Note_on_c, 0, 72, 0
2, 20664, Note_on_c, 0, 70, 79
2, 20687, Note_on_c, 0, 70, 0
2, 20688, Note_on_c, 0, 68, 79
2, 20711, Note_on_c, 0, 68, 0
2, 20712, Note_on_c, 0, 67, 79
2, 20735, Note_on_c, 0, 67, 0
2, 20736, Note_on_c, 0, 67, 79
2, 20832, Note_on_c, 0, 67, 0
2, 20832, Note_on_c, 0, 65, 79
2, 20877, Note_on_c, 0, 65, 0
2, 20880, Note_on_c, 0, 72, 79
2, 20903, Note_on_c, 0, 72, 0
2, 20904, Note_on_c, 0, 70, 79
2, 20927, Note_on_c, 0, 70, 0
2, 20928, Note_on_c, 0, 68, 79
2, 20951, Note_on_c, 0, 68, 0
2, 20952, Note_on_c, 0, 67, 79
2, 20975, Note_on_c, 0, 67, 0
2, 20976, Note_on_c, 0, 65, 79
2, 20999, Note_on_c, 0, 65, 0
2, 21000, Note_on_c, 0, 63, 79
2, 21023, Note_on_c, 0, 63, 0
2, 21024, Note_on_c, 0, 62, 79
2, 21091, Note_on_c, 0, 62, 0
2, 21096, Note_on_c, 0, 63, 73
2, 21108, Note_on_c, 0, 63, 0
2, 21108, Note_on_c, 0, 65, 72
2, 21120, Note_on_c, 0, 65, 0
2, 21120, Note_on_c, 0, 63, 72
2, 21159, Note_on_c, 0, 63, 0
2, 21312, Note_on_c, 0, 79, 72
2, 21431, Note_on_c, 0, 79, 0
2, 21432, Note_on_c, 0, 83, 71
2, 21455, Note_on_c, 0, 83, 0
2, 21456, Note_on_c, 0, 84, 71
2, 21479, Note_on_c, 0, 84, 0
2, 21480, Note_on_c, 0, 80, 70
2, 21503, Note_on_c, 0, 80, 0
2, 21504, Note_on_c, 0, 79, 70
2, 21527, Note_on_c, 0, 79, 0
2, 21528, Note_on_c, 0, 77, 70
2, 21551, Note_on_c, 0, 77, 0
2, 21552, Note_on_c, 0, 75, 69
2, 21575, Note_on_c, 0, 75, 0
2, 21576, Note_on_c, 0, 74, 69
2, 21599, Note_on_c, 0, 74, 0
2, 21600, Note_on_c, 0, 72, 69
2, 21623, Note_on_c, 0, 72, 0
2, 21624, Note_on_c, 0, 71, 68
2, 21647, Note_on_c, 0, 71, 0
2, 21648, Note_on_c, 0, 74, 68
2, 21671, Note_on_c, 0, 74, 0
2, 21672, Note_on_c, 0, 72, 68
2, 21695, Note_on_c, 0, 72, 0
2, 21696, Note_on_c, 0, 75, 67
2, 21719, Note_on_c, 0, 75, 0
2, 21720, Note_on_c, 0, 74, 67
2, 21743, Note_on_c, 0, 74, 0
2, 21744, Note_on_c, 0, 77, 67
2, 21767, Note_on_c, 0, 77, 0
2, 21768, Note_on_c, 0, 75, 66
2, 21791, Note_on_c, 0, 75, 0
2, 21792, Note_on_c, 0, 79, 66
2, 21812, Note_on_c, 0, 79, 0
2, 21888, Note_on_c, 0, 77, 79
2, 22007, Note_on_c, 0, 77, 0
2, 22008, Note_on_c, 0, 81, 78
2, 22031, Note_on_c, 0, 81, 0
2, 22032, Note_on_c, 0, 82, 78
2, 22055, Note_on_c, 0, 82, 0
2, 22056, Note_on_c, 0, 79, 77
2, 22079, Note_on_c, 0, 79, 0
2, 22080, Note_on_c, 0, 77, 77
2, 22103, Note_on_c, 0, 77, 0
2, 22104, Note_on_c, 0, 75, 77
2, 22127, Note_on_c, 0, 75, 0
2, 22128, Note_on_c, 0, 74, 76
2, 22151, Note_on_c, 0, 74, 0
2, 22152, Note_on_c, 0, 72, 76
2, 22175, Note_on_c, 0, 72, 0
2, 22176, Note_on_c, 0, 70, 76
2, 22199, Note_on_c, 0, 70, 0
2, 22200, Note_on_c, 0, 69, 75
2, 22223, Note_on_c, 0, 69, 0
2, 22224, Note_on_c, 0, 72, 75
2, 22247, Note_on_c, 0, 72, 0
2, 22248, Note_on_c, 0, 70, 75
2, 22271, Note_on_c, 0, 70, 0
2, 22272, Note_on_c, 0, 74, 74
2, 22295, Note_on_c, 0, 74, 0
2, 22296, Note_on_c, 0, 72, 74
2, 22319, Note_on_c, 0, 72, 0
2, 22320, Note_on_c, 0, 75, 74
2, 22343, Note_on_c, 0, 75, 0
2, 22344, Note_on_c, 0, 74, 73
2, 22367, Note_on_c, 0, 74, 0
2, 22368, Note_on_c, 0, 77, 73
2, 22388, Note_on_c, 0, 77, 0
2, 22464, Note_on_c, 0, 72, 79
2, 22487, Note_on_c, 0, 72, 0
2, 22488, Note_on_c, 0, 71, 79
2, 22511, Note_on_c, 0, 71, 0
2, 22512, Note_on_c, 0, 74, 79
2, 22535, Note_on_c, 0, 74, 0
2, 22536, Note_on_c, 0, 72, 79
2, 22559, Note_on_c, 0, 72, 0
2, 22560, Note_on_c, 0, 75, 79
2, 22583, Note_on_c, 0, 75, 0
2, 22584, Note_on_c, 0, 74, 79
2, 22607, Note_on_c, 0, 74, 0
2, 22608, Note_on_c, 0, 77, 79
2, 22631, Note_on_c, 0, 77, 0
2, 22632, Note_on_c, 0, 75, 79
2, 22655, Note_on_c, 0, 75, 0
2, 22656, Note_on_c, 0, 79, 79
2, 22676, Note_on_c, 0, 79, 0
2, 22752, Note_on_c, 0, 71, 79
2, 22775, Note_on_c, 0, 71, 0
2, 22776, Note_on_c, 0, 72, 79
2, 22799, Note_on_c, 0, 72, 0
2, 22800, Note_on_c, 0, 73, 80
2, 22823, Note_on_c, 0, 73, 0
2, 22824, Note_on_c, 0, 74, 80
2, 22847, Note_on_c, 0, 74, 0
2, 22848, Note_on_c, 0, 75, 81
2, 22871, Note_on_c, 0, 75, 0
2, 22872, Note_on_c, 0, 76, 81
2, 22895, Note_on_c, 0, 76, 0
2, 22896, Note_on_c, 0, 77, 82
2, 22919, Note_on_c, 0, 77, 0
2, 22920, Note_on_c, 0, 78, 82
2, 22943, Note_on_c, 0, 78, 0
2, 22944, Note_on_c, 0, 79, 83
2, 22989, Note_on_c, 0, 79, 0
2, 22992, Note_on_c, 0, 81, 84
2, 23002, Note_on_c, 0, 81, 0
2, 23002, Note_on_c, 0, 79, 84
2, 23012, Note_on_c, 0, 79, 0
2, 23012, Note_on_c, 0, 78, 84
2, 23022, Note_on_c, 0, 78, 0
2, 23022, Note_on_c, 0, 79, 84
2, 23031, Note_on_c, 0, 79, 0
2, 23031, Note_on_c, 0, 81, 84
2, 23040, Note_on_c, 0, 81, 0
2, 23040, Note_on_c, 0, 82, 79
2, 23060, Note_on_c, 0, 82, 0
2, 23112, Note_on_c, 0, 81, 77
2, 23136, Note_on_c, 0, 81, 0
2, 23136, Note_on_c, 0, 79, 77
2, 23156, Note_on_c, 0, 79, 0
2, 23208, Note_on_c, 0, 77, 75
2, 23232, Note_on_c, 0, 77, 0
2, 23232, Note_on_c, 0, 75, 75
2, 23252, Note_on_c, 0, 75, 0
2, 23304, Note_on_c, 0, 74, 74
2, 23327, Note_on_c, 0, 74, 0
2, 23328, Note_on_c, 0, 75, 73
2, 23340, Note_on_c, 0, 75, 0
2, 23340, Note_on_c, 0, 74, 73
2, 23352, Note_on_c, 0, 74, 0
2, 23352, Note_on_c, 0, 75, 73
2, 23364, Note_on_c, 0, 75, 0
2, 23364, Note_on_c, 0, 74, 73
2, 23376, Note_on_c, 0, 74, 0
2, 23376, Note_on_c, 0, 75, 72
2, 23388, Note_on_c, 0, 75, 0
2, 23388, Note_on_c, 0, 74, 72
2, 23400, Note_on_c, 0, 74, 0
2, 23400, Note_on_c, 0, 72, 72
2, 23412, Note_on_c, 0, 72, 0
2, 23412, Note_on_c, 0, 74, 72
2, 23424, Note_on_c, 0, 74, 0
2, 23424, Note_on_c, 0, 72, 72
2, 23513, Note_on_c, 0, 72, 0
2, 23616, Note_on_c, 0, 77, 72
2, 23749, Note_on_c, 0, 77, 0
2, 23760, Note_on_c, 0, 79, 72
2, 23783, Note_on_c, 0, 79, 0
2, 23784, Note_on_c, 0, 75, 72
2, 23807, Note_on_c, 0, 75, 0
2, 23808, Note_on_c, 0, 74, 72
2, 23853, Note_on_c, 0, 74, 0
2, 23856, Note_on_c, 0, 77, 72
2, 23868, Note_on_c, 0, 77, 0
2, 23868, Note_on_c, 0, 75, 72
2, 23880, Note_on_c, 0, 75, 0
2, 23880, Note_on_c, 0, 74, 72
2, 23892, Note_on_c, 0, 74, 0
2, 23892, Note_on_c, 0, 75, 72
2, 23904, Note_on_c, 0, 75, 0
2, 23904, Note_on_c, 0, 77, 72
2, 23949, Note_on_c, 0, 77, 0
2, 23952, Note_on_c, 0, 82, 72
2, 23997, Note_on_c, 0, 82, 0
2, 24048, Note_on_c, 0, 81, 72
2, 24093, Note_on_c, 0, 81, 0
2, 24144, Note_on_c, 0, 79, 72
2, 24189, Note_on_c, 0, 79, 0
2, 24192, Note_on_c, 0, 77, 72
2, 24325, Note_on_c, 0, 77, 0
2, 24336, Note_on_c, 0, 79, 72
2, 24359, Note_on_c, 0, 79, 0
2, 24360, Note_on_c, 0, 75, 72
2, 24383, Note_on_c, 0, 75, 0
2, 24384, Note_on_c, 0, 74, 72
2, 24429, Note_on_c, 0, 74, 0
2, 24432, Note_on_c, 0, 77, 72
2, 24444, Note_on_c, 0, 77, 0
2, 24444, Note_on_c, 0, 75, 72
2, 24456, Note_on_c, 0, 75, 0
2, 24456, Note_on_c, 0, 74, 72
2, 24468, Note_on_c, 0, 74, 0
2, 24468, Note_on_c, 0, 75, 72
2, 24480, Note_on_c, 0, 75, 0
2, 24480, Note_on_c, 0, 77, 72
2, 24525, Note_on_c, 0, 77, 0
2, 24528, Note_on_c, 0, 86, 72
2, 24573, Note_on_c, 0, 86, 0
2, 24624, Note_on_c, 0, 82, 72
2, 24669, Note_on_c, 0, 82, 0
2, 24720, Note_on_c, 0, 79, 72
2, 24765, Note_on_c, 0, 79, 0
2, 24768, Note_on_c, 0, 74, 72
2, 24786, Note_on_c, 0, 74, 0
2, 24786, Note_on_c, 0, 77, 88
2, 24960, Note_on_c, 0, 77, 0
2, 24960, Note_on_c, 0, 76, 72
2, 24983, Note_on_c, 0, 76, 0
2, 24984, Note_on_c, 0, 77, 72
2, 25007, Note_on_c, 0, 77, 0
2, 25008, Note_on_c, 0, 79, 72
2, 25031, Note_on_c, 0, 79, 0
2, 25032, Note_on_c, 0, 77, 72
2, 25055, Note_on_c, 0, 77, 0
2, 25056, Note_on_c, 0, 77, 88
2, 25248, Note_on_c, 0, 77, 0
2, 25248, Note_on_c, 0, 76, 72
2, 25271, Note_on_c, 0, 76, 0
2, 25272, Note_on_c, 0, 77, 72
2, 25295, Note_on_c, 0, 77, 0
2, 25296, Note_on_c, 0, 79, 72
2, 25319, Note_on_c, 0, 79, 0
2, 25320, Note_on_c, 0, 77, 72
2, 25343, Note_on_c, 0, 77, 0
2, 25344, Note_on_c, 0, 82, 88
2, 25536, Note_on_c, 0, 82, 0
2, 25536, Note_on_c, 0, 76, 72
2, 25559, Note_on_c, 0, 76, 0
2, 25560, Note_on_c, 0, 77, 72
2, 25583, Note_on_c, 0, 77, 0
2, 25584, Note_on_c, 0, 79, 72
2, 25607, Note_on_c, 0, 79, 0
2, 25608, Note_on_c, 0, 77, 72
2, 25631, Note_on_c, 0, 77, 0
2, 25632, Note_on_c, 0, 77, 88
2, 25824, Note_on_c, 0, 77, 0
2, 25824, Note_on_c, 0, 78, 72
2, 25847, Note_on_c, 0, 78, 0
2, 25848, Note_on_c, 0, 79, 72
2, 25871, Note_on_c, 0, 79, 0
2, 25872, Note_on_c, 0, 81, 72
2, 25895, Note_on_c, 0, 81, 0
2, 25896, Note_on_c, 0, 79, 73
2, 25919, Note_on_c, 0, 79, 0
2, 25920, Note_on_c, 0, 79, 89
2, 26112, Note_on_c, 0, 79, 0
2, 26112, Note_on_c, 0, 81, 77
2, 26135, Note_on_c, 0, 81, 0
2, 26136, Note_on_c, 0, 82, 77
2, 26159, Note_on_c, 0, 82, 0
2, 26160, Note_on_c, 0, 84, 78
2, 26183, Note_on_c, 0, 84, 0
2, 26184, Note_on_c, 0, 82, 78
2, 26207, Note_on_c, 0, 82, 0
2, 26208, Note_on_c, 0, 82, 95
2, 26349, Note_on_c, 0, 82, 0
2, 26352, Note_on_c, 0, 86, 79
2, 26375, Note_on_c, 0, 86, 0
2, 26376, Note_on_c, 0, 84, 79
2, 26399, Note_on_c, 0, 84, 0
2, 26400, Note_on_c, 0, 82, 79
2, 26423, Note_on_c, 0, 82, 0
2, 26424, Note_on_c, 0, 81, 79
2, 26447, Note_on_c, 0, 81, 0
2, 26448, Note_on_c, 0, 79, 79
2, 26471, Note_on_c, 0, 79, 0
2, 26472, Note_on_c, 0, 77, 79
2, 26495, Note_on_c, 0, 77, 0
2, 26496, Note_on_c, 0, 79, 79
2, 26508, Note_on_c, 0, 79, 0
2, 26508, Note_on_c, 0, 77, 79
2, 26520, Note_on_c, 0, 77, 0
2, 26520, Note_on_c, 0, 75, 79
2, 26532, Note_on_c, 0, 75, 0
2, 26532, Note_on_c, 0, 77, 79
2, 26544, Note_on_c, 0, 77, 0
2, 26544, Note_on_c, 0, 79, 77
2, 26567, Note_on_c, 0, 79, 0
2, 26568, Note_on_c, 0, 75, 77
2, 26591, Note_on_c, 0, 75, 0
2, 26592, Note_on_c, 0, 74, 76
2, 26681, Note_on_c, 0, 74, 0
2, 26688, Note_on_c, 0, 74, 74
2, 26700, Note_on_c, 0, 74, 0
2, 26700, Note_on_c, 0, 72, 74
2, 26712, Note_on_c, 0, 72, 0
2, 26712, Note_on_c, 0, 74, 73
2, 26724, Note_on_c, 0, 74, 0
2, 26724, Note_on_c, 0, 72, 73
2, 26736, Note_on_c, 0, 72, 0
2, 26736, Note_on_c, 0, 74, 73
2, 26748, Note_on_c, 0, 74, 0
2, 26748, Note_on_c, 0, 72, 72
2, 26760, Note_on_c, 0, 72, 0
2, 26760, Note_on_c, 0, 70, 72
2, 26772, Note_on_c, 0, 70, 0
2, 26772, Note_on_c, 0, 72, 72
2, 26784, Note_on_c, 0, 72, 0
2, 26784, Note_on_c, 0, 70, 72
2, 26829, Note_on_c, 0, 70, 0
2, 26832, Note_on_c, 0, 82, 72
2, 26877, Note_on_c, 0, 82, 0
2, 26880, Note_on_c, 0, 81, 72
2, 26892, Note_on_c, 0, 81, 0
2, 26892, Note_on_c, 0, 82, 72
2, 26904, Note_on_c, 0, 82, 0
2, 26904, Note_on_c, 0, 81, 72
2, 26916, Note_on_c, 0, 81, 0
2, 26916, Note_on_c, 0, 82, 72
2, 26925, Note_on_c, 0, 82, 0
2, 26928, Note_on_c, 0, 79, 72
2, 26973, Note_on_c, 0, 79, 0
2, 26976, Note_on_c, 0, 77, 72
2, 27021, Note_on_c, 0, 77, 0
2, 27024, Note_on_c, 0, 76, 72
2, 27069, Note_on_c, 0, 76, 0
2, 27072, Note_on_c, 0, 76, 72
2, 27287, Note_on_c, 0, 76, 0
2, 27288, Note_on_c, 0, 77, 72
2, 27311, Note_on_c, 0, 77, 0
2, 27312, Note_on_c, 0, 79, 72
2, 27335, Note_on_c, 0, 79, 0
2, 27336, Note_on_c, 0, 77, 72
2, 27359, Note_on_c, 0, 77, 0
2, 27360, Note_on_c, 0, 77, 72
2, 27515, Note_on_c, 0, 77, 0
2, 27600, Note_on_c, 0, 79, 72
2, 27624, Note_on_c, 0, 79, 0
2, 27624, Note_on_c, 0, 77, 72
2, 27647, Note_on_c, 0, 77, 0
2, 27696, Note_on_c, 0, 77, 73
2, 27720, Note_on_c, 0, 77, 0
2, 27720, Note_on_c, 0, 75, 73
2, 27743, Note_on_c, 0, 75, 0
2, 27792, Note_on_c, 0, 75, 75
2, 27816, Note_on_c, 0, 75, 0
2, 27816, Note_on_c, 0, 74, 76
2, 27839, Note_on_c, 0, 74, 0
2, 27888, Note_on_c, 0, 74, 77
2, 27912, Note_on_c, 0, 74, 0
2, 27912, Note_on_c, 0, 72, 78
2, 27935, Note_on_c, 0, 72, 0
2, 28176, Note_on_c, 0, 75, 79
2, 28200, Note_on_c, 0, 75, 0
2, 28200, Note_on_c, 0, 74, 79
2, 28223, Note_on_c, 0, 74, 0
2, 28464, Note_on_c, 0, 77, 79
2, 28488, Note_on_c, 0, 77, 0
2, 28488, Note_on_c, 0, 75, 79
2, 28511, Note_on_c, 0, 75, 0
2, 28512, Note_on_c, 0, 75, 95
2, 28704, Note_on_c, 0, 75, 0
2, 28704, Note_on_c, 0, 65, 79
2, 28719, Note_on_c, 0, 65, 0
2, 28720, Note_on_c, 0, 69, 79
2, 28735, Note_on_c, 0, 69, 0
2, 28736, Note_on_c, 0, 72, 79
2, 28751, Note_on_c, 0, 72, 0
2, 28752, Note_on_c, 0, 75, 79
2, 28767, Note_on_c, 0, 75, 0
2, 28768, Note_on_c, 0, 77, 79
2, 28783, Note_on_c, 0, 77, 0
2, 28784, Note_on_c, 0, 81, 79
2, 28799, Note_on_c, 0, 81, 0
2, 28800, Note_on_c, 0, 82, 95
2, 28919, Note_on_c, 0, 82, 0
2, 28920, Note_on_c, 0, 81, 79
2, 28943, Note_on_c, 0, 81, 0
2, 28944, Note_on_c, 0, 79, 79
2, 28967, Note_on_c, 0, 79, 0
2, 28968, Note_on_c, 0, 77, 79
2, 28991, Note_on_c, 0, 77, 0
2, 28992, Note_on_c, 0, 75, 79
2, 29015, Note_on_c, 0, 75, 0
2, 29016, Note_on_c, 0, 74, 79
2, 29039, Note_on_c, 0, 74, 0
2, 29040, Note_on_c, 0, 72, 79
2, 29063, Note_on_c, 0, 72, 0
2, 29064, Note_on_c, 0, 70, 79
2, 29087, Note_on_c, 0, 70, 0
2, 29088, Note_on_c, 0, 71, 79
2, 29111, Note_on_c, 0, 71, 0
2, 29112, Note_on_c, 0, 72, 79
2, 29135, Note_on_c, 0, 72, 0
2, 29136, Note_on_c, 0, 75, 78
2, 29159, Note_on_c, 0, 75, 0
2, 29160, Note_on_c, 0, 72, 77
2, 29183, Note_on_c, 0, 72, 0
2, 29184, Note_on_c, 0, 70, 77
2, 29273, Note_on_c, 0, 70, 0
2, 29280, Note_on_c, 0, 70, 74
2, 29292, Note_on_c, 0, 70, 0
2, 29292, Note_on_c, 0, 69, 74
2, 29304, Note_on_c, 0, 69, 0
2, 29304, Note_on_c, 0, 70, 73
2, 29316, Note_on_c, 0, 70, 0
2, 29316, Note_on_c, 0, 69, 73
2, 29328, Note_on_c, 0, 69, 0
2, 29328, Note_on_c, 0, 70, 73
2, 29340, Note_on_c, 0, 70, 0
2, 29340, Note_on_c, 0, 69, 72
2, 29352, Note_on_c, 0, 69, 0
2, 29352, Note_on_c, 0, 67, 72
2, 29364, Note_on_c, 0, 67, 0
2, 29364, Note_on_c, 0, 69, 72
2, 29376, Note_on_c, 0, 69, 0
2, 29376, Note_on_c, 0, 70, 72
2, 29399, Note_on_c, 0, 70, 0
2, 29400, Note_on_c, 0, 70, 72
2, 29423, Note_on_c, 0, 70, 0
2, 29424, Note_on_c, 0, 70, 72
2, 29436, Note_on_c, 0, 70, 0
2, 29436, Note_on_c, 0, 72, 72
2, 29448, Note_on_c, 0, 72, 0
2, 29448, Note_on_c, 0, 70, 72
2, 29460, Note_on_c, 0, 70, 0
2, 29460, Note_on_c, 0, 72, 72
2, 29469, Note_on_c, 0, 72, 0
2, 29472, Note_on_c, 0, 75, 73
2, 29495, Note_on_c, 0, 75, 0
2, 29496, Note_on_c, 0, 70, 74
2, 29519, Note_on_c, 0, 70, 0
2, 29520, Note_on_c, 0, 70, 74
2, 29532, Note_on_c, 0, 70, 0
2, 29532, Note_on_c, 0, 72, 74
2, 29544, Note_on_c, 0, 72, 0
2, 29544, Note_on_c, 0, 70, 74
2, 29556, Note_on_c, 0, 70, 0
2, 29556, Note_on_c, 0, 72, 74
2, 29565, Note_on_c, 0, 72, 0
2, 29568, Note_on_c, 0, 74, 75
2, 29591, Note_on_c, 0, 74, 0
2, 29592, Note_on_c, 0, 70, 75
2, 29615, Note_on_c, 0, 70, 0
2, 29616, Note_on_c, 0, 70, 76
2, 29628, Note_on_c, 0, 70, 0
2, 29628, Note_on_c, 0, 72, 76
2, 29640, Note_on_c, 0, 72, 0
2, 29640, Note_on_c, 0, 70, 76
2, 29652, Note_on_c, 0, 70, 0
2, 29652, Note_on_c, 0, 72, 76
2, 29661, Note_on_c, 0, 72, 0
2, 29664, Note_on_c, 0, 79, 77
2, 29687, Note_on_c, 0, 79, 0
2, 29688, Note_on_c, 0, 70, 77
2, 29711, Note_on_c, 0, 70, 0
2, 29712, Note_on_c, 0, 70, 78
2, 29724, Note_on_c, 0, 70, 0
2, 29724, Note_on_c, 0, 72, 78
2, 29736, Note_on_c, 0, 72, 0
2, 29736, Note_on_c, 0, 70, 78
2, 29748, Note_on_c, 0, 70, 0
2, 29748, Note_on_c, 0, 72, 78
2, 29757, Note_on_c, 0, 72, 0
2, 29760, Note_on_c, 0, 82, 95
2, 29871, Note_on_c, 0, 82, 0
2, 29872, Note_on_c, 0, 81, 79
2, 29887, Note_on_c, 0, 81, 0
2, 29888, Note_on_c, 0, 79, 79
2, 29903, Note_on_c, 0, 79, 0
2, 29904, Note_on_c, 0, 77, 79
2, 29919, Note_on_c, 0, 77, 0
2, 29920, Note_on_c, 0, 75, 79
2, 29935, Note_on_c, 0, 75, 0
2, 29936, Note_on_c, 0, 74, 79
2, 29951, Note_on_c, 0, 74, 0
2, 29952, Note_on_c, 0, 72, 79
2, 29967, Note_on_c, 0, 72, 0
2, 29968, Note_on_c, 0, 79, 78
2, 29983, Note_on_c, 0, 79, 0
2, 29984, Note_on_c, 0, 77, 78
2, 29999, Note_on_c, 0, 77, 0
2, 30000, Note_on_c, 0, 75, 78
2, 30015, Note_on_c, 0, 75, 0
2, 30016, Note_on_c, 0, 74, 77
2, 30031, Note_on_c, 0, 74, 0
2, 30032, Note_on_c, 0, 72, 77
2, 30047, Note_on_c, 0, 72, 0
2, 30048, Note_on_c, 0, 70, 77
2, 30063, Note_on_c, 0, 70, 0
2, 30064, Note_on_c, 0, 77, 76
2, 30079, Note_on_c, 0, 77, 0
2, 30080, Note_on_c, 0, 75, 76
2, 30095, Note_on_c, 0, 75, 0
2, 30096, Note_on_c, 0, 74, 76
2, 30111, Note_on_c, 0, 74, 0
2, 30112, Note_on_c, 0, 72, 76
2, 30127, Note_on_c, 0, 72, 0
2, 30128, Note_on_c, 0, 70, 75
2, 30143, Note_on_c, 0, 70, 0
2, 30144, Note_on_c, 0, 69, 75
2, 30159, Note_on_c, 0, 69, 0
2, 30160, Note_on_c, 0, 67, 75
2, 30175, Note_on_c, 0, 67, 0
2, 30176, Note_on_c, 0, 65, 74
2, 30191, Note_on_c, 0, 65, 0
2, 30192, Note_on_c, 0, 63, 74
2, 30207, Note_on_c, 0, 63, 0
2, 30208, Note_on_c, 0, 62, 74
2, 30223, Note_on_c, 0, 62, 0
2, 30224, Note_on_c, 0, 60, 74
2, 30239, Note_on_c, 0, 60, 0
2, 30240, Note_on_c, 0, 58, 72
2, 30263, Note_on_c, 0, 58, 0
2, 30264, Note_on_c, 0, 70, 72
2, 30287, Note_on_c, 0, 70, 0
2, 30288, Note_on_c, 0, 70, 72
2, 30300, Note_on_c, 0, 70, 0
2, 30300, Note_on_c, 0, 72, 72
2, 30312, Note_on_c, 0, 72, 0
2, 30312, Note_on_c, 0, 70, 72
2, 30324, Note_on_c, 0, 70, 0
2, 30324, Note_on_c, 0, 72, 72
2, 30333, Note_on_c, 0, 72, 0
2, 30336, Note_on_c, 0, 75, 73
2, 30359, Note_on_c, 0, 75, 0
2, 30360, Note_on_c, 0, 70, 74
2, 30383, Note_on_c, 0, 70, 0
2, 30384, Note_on_c, 0, 70, 74
2, 30396, Note_on_c, 0, 70, 0
2, 30396, Note_on_c, 0, 72, 74
2, 30408, Note_on_c, 0, 72, 0
2, 30408, Note_on_c, 0, 70, 74
2, 30420, Note_on_c, 0, 70, 0
2, 30420, Note_on_c, 0, 72, 74
2, 30429, Note_on_c, 0, 72, 0
2, 30432, Note_on_c, 0, 74, 75
2, 30455, Note_on_c, 0, 74, 0
2, 30456, Note_on_c, 0, 70, 75
2, 30479, Note_on_c, 0, 70, 0
2, 30480, Note_on_c, 0, 70, 76
2, 30492, Note_on_c, 0, 70, 0
2, 30492, Note_on_c, 0, 72, 76
2, 30504, Note_on_c, 0, 72, 0
2, 30504, Note_on_c, 0, 70, 76
2, 30516, Note_on_c, 0, 70, 0
2, 30516, Note_on_c, 0, 72, 76
2, 30525, Note_on_c, 0, 72, 0
2, 30528, Note_on_c, 0, 79, 77
2, 30551, Note_on_c, 0, 79, 0
2, 30552, Note_on_c, 0, 70, 77
2, 30575, Note_on_c, 0, 70, 0
2, 30576, Note_on_c, 0, 70, 78
2, 30588, Note_on_c, 0, 70, 0
2, 30588, Note_on_c, 0, 72, 78
2, 30600, Note_on_c, 0, 72, 0
2, 30600, Note_on_c, 0, 70, 78
2, 30612, Note_on_c, 0, 70, 0
2, 30612, Note_on_c, 0, 72, 78
2, 30621, Note_on_c, 0, 72, 0
2, 30624, Note_on_c, 0, 82, 95
2, 30735, Note_on_c, 0, 82, 0
2, 30736, Note_on_c, 0, 81, 79
2, 30751, Note_on_c, 0, 81, 0
2, 30752, Note_on_c, 0, 79, 79
2, 30767, Note_on_c, 0, 79, 0
2, 30768, Note_on_c, 0, 77, 79
2, 30783, Note_on_c, 0, 77, 0
2, 30784, Note_on_c, 0, 75, 79
2, 30799, Note_on_c, 0, 75, 0
2, 30800, Note_on_c, 0, 74, 79
2, 30815, Note_on_c, 0, 74, 0
2, 30816, Note_on_c, 0, 72, 79
2, 30831, Note_on_c, 0, 72, 0
2, 30832, Note_on_c, 0, 79, 78
2, 30847, Note_on_c, 0, 79, 0
2, 30848, Note_on_c, 0, 77, 78
2, 30863, Note_on_c, 0, 77, 0
2, 30864, Note_on_c, 0, 75, 78
2, 30879, Note_on_c, 0, 75, 0
2, 30880, Note_on_c, 0, 74, 77
2, 30895, Note_on_c, 0, 74, 0
2, 30896, Note_on_c, 0, 72, 77
2, 30911, Note_on_c, 0, 72, 0
2, 30912, Note_on_c, 0, 70, 77
2, 30927, Note_on_c, 0, 70, 0
2, 30928, Note_on_c, 0, 77, 76
2, 30943, Note_on_c, 0, 77, 0
2, 30944, Note_on_c, 0, 75, 76
2, 30959, Note_on_c, 0, 75, 0
2, 30960, Note_on_c, 0, 74, 76
2, 30975, Note_on_c, 0, 74, 0
2, 30976, Note_on_c, 0, 72, 76
2, 30991, Note_on_c, 0, 72, 0
2, 30992, Note_on_c, 0, 70, 75
2, 31007, Note_on_c, 0, 70, 0
2, 31008, Note_on_c, 0, 69, 75
2, 31023, Note_on_c, 0, 69, 0
2, 31024, Note_on_c, 0, 67, 75
2, 31039, Note_on_c, 0, 67, 0
2, 31040, Note_on_c, 0, 65, 74
2, 31055, Note_on_c, 0, 65, 0
2, 31056, Note_on_c, 0, 63, 74
2, 31071, Note_on_c, 0, 63, 0
2, 31072, Note_on_c, 0, 62, 74
2, 31087, Note_on_c, 0, 62, 0
2, 31088, Note_on_c, 0, 60, 74
2, 31103, Note_on_c, 0, 60, 0
2, 31104, Note_on_c, 0, 58, 72
2, 31237, Note_on_c, 0, 58, 0
2, 31248, Note_on_c, 0, 57, 72
2, 31293, Note_on_c, 0, 57, 0
2, 31296, Note_on_c, 0, 63, 72
2, 31296, Note_on_c, 0, 60, 72
2, 31341, Note_on_c, 0, 63, 0
2, 31341, Note_on_c, 0, 60, 0
2, 31344, Note_on_c, 0, 60, 72
2, 31344, Note_on_c, 0, 57, 72
2, 31389, Note_on_c, 0, 60, 0
2, 31389, Note_on_c, 0, 57, 0
2, 31392, Note_on_c, 0, 62, 72
2, 31392, Note_on_c, 0, 58, 72
2, 31525, Note_on_c, 0, 62, 0
2, 31525, Note_on_c, 0, 58, 0
2, 31536, Note_on_c, 0, 60, 72
2, 31536, Note_on_c, 0, 57, 72
2, 31581, Note_on_c, 0, 60, 0
2, 31581, Note_on_c, 0, 57, 0
2, 31584, Note_on_c, 0, 67, 72
2, 31584, Note_on_c, 0, 63, 72
2, 31629, Note_on_c, 0, 67, 0
2, 31629, Note_on_c, 0, 63, 0
2, 31632, Note_on_c, 0, 63, 72
2, 31632, Note_on_c, 0, 60, 72
2, 31677, Note_on_c, 0, 63, 0
2, 31677, Note_on_c, 0, 60, 0
2, 31680, Note_on_c, 0, 65, 72
2, 31680, Note_on_c, 0, 62, 72
2, 31813, Note_on_c, 0, 65, 0
2, 31813, Note_on_c, 0, 62, 0
2, 31824, Note_on_c, 0, 70, 72
2, 31836, Note_on_c, 0, 70, 0
2, 31836, Note_on_c, 0, 67, 72
2, 31870, Note_on_c, 0, 67, 0
2, 31872, Note_on_c, 0, 69, 72
2, 31884, Note_on_c, 0, 69, 0
2, 31884, Note_on_c, 0, 65, 72
2, 31918, Note_on_c, 0, 65, 0
2, 31920, Note_on_c, 0, 67, 72
2, 31932, Note_on_c, 0, 67, 0
2, 31932, Note_on_c, 0, 63, 72
2, 31966, Note_on_c, 0, 63, 0
2, 31968, Note_on_c, 0, 65, 72
2, 31968, Note_on_c, 0, 62, 72
2, 32101, Note_on_c, 0, 65, 0
2, 32101, Note_on_c, 0, 62, 0
2, 32112, Note_on_c, 0, 70, 72
2, 32124, Note_on_c, 0, 70, 0
2, 32124, Note_on_c, 0, 67, 72
2, 32158, Note_on_c, 0, 67, 0
2, 32160, Note_on_c, 0, 69, 72
2, 32172, Note_on_c, 0, 69, 0
2, 32172, Note_on_c, 0, 65, 72
2, 32206, Note_on_c, 0, 65, 0
2, 32208, Note_on_c, 0, 67, 72
2, 32220, Note_on_c, 0, 67, 0
2, 32220, Note_on_c, 0, 63, 72
2, 32254, Note_on_c, 0, 63, 0
2, 32256, Note_on_c, 0, 65, 72
2, 32256, Note_on_c, 0, 62, 72
2, 32389, Note_on_c, 0, 65, 0
2, 32389, Note_on_c, 0, 62, 0
2, 32400, Note_on_c, 0, 65, 74
2, 32406, Note_on_c, 0, 65, 0
2, 32406, Note_on_c, 0, 77, 74
2, 32420, Note_on_c, 0, 77, 0
2, 32448, Note_on_c, 0, 67, 75
2, 32454, Note_on_c, 0, 67, 0
2, 32454, Note_on_c, 0, 79, 75
2, 32468, Note_on_c, 0, 79, 0
2, 32496, Note_on_c, 0, 69, 75
2, 32502, Note_on_c, 0, 69, 0
2, 32502, Note_on_c, 0, 81, 75
2, 32516, Note_on_c, 0, 81, 0
2, 32544, Note_on_c, 0, 70, 76
2, 32550, Note_on_c, 0, 70, 0
2, 32550, Note_on_c, 0, 82, 76
2, 32564, Note_on_c, 0, 82, 0
2, 32592, Note_on_c, 0, 72, 77
2, 32598, Note_on_c, 0, 72, 0
2, 32598, Note_on_c, 0, 84, 77
2, 32612, Note_on_c, 0, 84, 0
2, 32640, Note_on_c, 0, 74, 78
2, 32646, Note_on_c, 0, 74, 0
2, 32646, Note_on_c, 0, 86, 78
2, 32660, Note_on_c, 0, 86, 0
2, 32880, Note_on_c, 0, 55, 72
2, 32925, Note_on_c, 0, 55, 0
2, 32928, Note_on_c, 0, 63, 72
2, 32973, Note_on_c, 0, 63, 0
2, 32976, Note_on_c, 0, 67, 72
2, 33021, Note_on_c, 0, 67, 0
2, 33024, Note_on_c, 0, 60, 72
2, 33091, Note_on_c, 0, 60, 0
2, 33096, Note_on_c, 0, 57, 70
2, 33119, Note_on_c, 0, 57, 0
2, 33120, Note_on_c, 0, 57, 69
2, 33216, Note_on_c, 0, 57, 0
2, 33216, Note_on_c, 0, 58, 67
2, 33305, Note_on_c, 0, 58, 0
2, 33408, Note_on_c, 0, 77, 79
2, 33527, Note_on_c, 0, 77, 0
2, 33528, Note_on_c, 0, 74, 79
2, 33551, Note_on_c, 0, 74, 0
2, 33552, Note_on_c, 0, 75, 79
2, 33575, Note_on_c, 0, 75, 0
2, 33576, Note_on_c, 0, 72, 79
2, 33599, Note_on_c, 0, 72, 0
2, 33600, Note_on_c, 0, 74, 79
2, 33623, Note_on_c, 0, 74, 0
2, 33624, Note_on_c, 0, 70, 79
2, 33647, Note_on_c, 0, 70, 0
2, 33648, Note_on_c, 0, 72, 79
2, 33671, Note_on_c, 0, 72, 0
2, 33672, Note_on_c, 0, 69, 79
2, 33695, Note_on_c, 0, 69, 0
2, 33696, Note_on_c, 0, 70, 79
2, 33716, Note_on_c, 0, 70, 0
2, 33744, Note_on_c, 0, 65, 81
2, 33764, Note_on_c, 0, 65, 0
2, 33792, Note_on_c, 0, 62, 83
2, 33812, Note_on_c, 0, 62, 0
2, 33840, Note_on_c, 0, 65, 85
2, 33860, Note_on_c, 0, 65, 0
2, 33888, Note_on_c, 0, 70, 83
2, 33908, Note_on_c, 0, 70, 0
2, 33936, Note_on_c, 0, 74, 81
2, 33956, Note_on_c, 0, 74, 0
2, 33984, Note_on_c, 0, 80, 79
2, 33984, Note_on_c, 0, 77, 79
2, 34125, Note_on_c, 0, 80, 0
2, 34125, Note_on_c, 0, 77, 0
2, 34128, Note_on_c, 0, 79, 79
2, 34128, Note_on_c, 0, 75, 79
2, 34173, Note_on_c, 0, 79, 0
2, 34173, Note_on_c, 0, 75, 0
2, 34176, Note_on_c, 0, 77, 79
2, 34176, Note_on_c, 0, 74, 79
2, 34221, Note_on_c, 0, 77, 0
2, 34221, Note_on_c, 0, 74, 0
2, 34224, Note_on_c, 0, 75, 79
2, 34224, Note_on_c, 0, 72, 79
2, 34269, Note_on_c, 0, 75, 0
2, 34269, Note_on_c, 0, 72, 0
2, 34272, Note_on_c, 0, 74, 79
2, 34272, Note_on_c, 0, 70, 79
2, 34317, Note_on_c, 0, 74, 0
2, 34317, Note_on_c, 0, 70, 0
2, 34320, Note_on_c, 0, 72, 79
2, 34332, Note_on_c, 0, 72, 0
2, 34332, Note_on_c, 0, 75, 78
2, 34366, Note_on_c, 0, 75, 0
2, 34368, Note_on_c, 0, 74, 77
2, 34380, Note_on_c, 0, 74, 0
2, 34380, Note_on_c, 0, 77, 77
2, 34414, Note_on_c, 0, 77, 0
2, 34416, Note_on_c, 0, 75, 76
2, 34428, Note_on_c, 0, 75, 0
2, 34428, Note_on_c, 0, 79, 75
2, 34462, Note_on_c, 0, 79, 0
2, 34464, Note_on_c, 0, 77, 74
2, 34476, Note_on_c, 0, 77, 0
2, 34476, Note_on_c, 0, 80, 74
2, 34510, Note_on_c, 0, 80, 0
2, 34512, Note_on_c, 0, 79, 73
2, 34524, Note_on_c, 0, 79, 0
2, 34524, Note_on_c, 0, 82, 73
2, 34558, Note_on_c, 0, 82, 0
2, 34560, Note_on_c, 0, 80, 72
2, 34578, Note_on_c, 0, 80, 0
2, 34578, Note_on_c, 0, 84, 72
2, 34701, Note_on_c, 0, 84, 0
2, 34704, Note_on_c, 0, 82, 68
2, 34793, Note_on_c, 0, 82, 0
2, 34800, Note_on_c, 0, 80, 66
2, 34845, Note_on_c, 0, 80, 0
2, 34848, Note_on_c, 0, 79, 65
2, 34967, Note_on_c, 0, 79, 0
2, 34968, Note_on_c, 0, 75, 65
2, 34991, Note_on_c, 0, 75, 0
2, 34992, Note_on_c, 0, 77, 65
2, 35015, Note_on_c, 0, 77, 0
2, 35016, Note_on_c, 0, 74, 65
2, 35039, Note_on_c, 0, 74, 0
2, 35040, Note_on_c, 0, 75, 65
2, 35063, Note_on_c, 0, 75, 0
2, 35064, Note_on_c, 0, 72, 65
2, 35087, Note_on_c, 0, 72, 0
2, 35088, Note_on_c, 0, 74, 65
2, 35111, Note_on_c, 0, 74, 0
2, 35112, Note_on_c, 0, 71, 65
2, 35135, Note_on_c, 0, 71, 0
2, 35136, Note_on_c, 0, 72, 79
2, 35156, Note_on_c, 0, 72, 0
2, 35184, Note_on_c, 0, 67, 81
2, 35204, Note_on_c, 0, 67, 0
2, 35232, Note_on_c, 0, 63, 83
2, 35252, Note_on_c, 0, 63, 0
2, 35280, Note_on_c, 0, 67, 85
2, 35300, Note_on_c, 0, 67, 0
2, 35328, Note_on_c, 0, 72, 83
2, 35348, Note_on_c, 0, 72, 0
2, 35376, Note_on_c, 0, 75, 81
2, 35396, Note_on_c, 0, 75, 0
2, 35424, Note_on_c, 0, 79, 79
2, 35543, Note_on_c, 0, 79, 0
2, 35544, Note_on_c, 0, 75, 79
2, 35567, Note_on_c, 0, 75, 0
2, 35568, Note_on_c, 0, 77, 79
2, 35591, Note_on_c, 0, 77, 0
2, 35592, Note_on_c, 0, 74, 79
2, 35615, Note_on_c, 0, 74, 0
2, 35616, Note_on_c, 0, 75, 79
2, 35639, Note_on_c, 0, 75, 0
2, 35640, Note_on_c, 0, 72, 79
2, 35663, Note_on_c, 0, 72, 0
2, 35664, Note_on_c, 0, 74, 79
2, 35687, Note_on_c, 0, 74, 0
2, 35688, Note_on_c, 0, 71, 79
2, 35711, Note_on_c, 0, 71, 0
2, 35712, Note_on_c, 0, 72, 79
2, 35757, Note_on_c, 0, 72, 0
2, 35760, Note_on_c, 0, 75, 79
2, 35760, Note_on_c, 0, 67, 79
2, 35780, Note_on_c, 0, 75, 0
2, 35780, Note_on_c, 0, 67, 0
2, 35808, Note_on_c, 0, 75, 79
2, 35808, Note_on_c, 0, 67, 79
2, 35828, Note_on_c, 0, 75, 0
2, 35828, Note_on_c, 0, 67, 0
2, 35856, Note_on_c, 0, 75, 79
2, 35856, Note_on_c, 0, 67, 79
2, 35876, Note_on_c, 0, 75, 0
2, 35876, Note_on_c, 0, 67, 0
2, 35904, Note_on_c, 0, 75, 79
2, 35904, Note_on_c, 0, 67, 79
2, 35924, Note_on_c, 0, 75, 0
2, 35924, Note_on_c, 0, 67, 0
2, 35952, Note_on_c, 0, 75, 79
2, 35952, Note_on_c, 0, 67, 79
2, 35972, Note_on_c, 0, 75, 0
2, 35972, Note_on_c, 0, 67, 0
2, 36000, Note_on_c, 0, 75, 95
2, 36192, Note_on_c, 0, 75, 0
2, 36192, Note_on_c, 0, 74, 79
2, 36281, Note_on_c, 0, 74, 0
2, 36336, Note_on_c, 0, 86, 79
2, 36356, Note_on_c, 0, 86, 0
2, 36384, Note_on_c, 0, 86, 79
2, 36404, Note_on_c, 0, 86, 0
2, 36432, Note_on_c, 0, 86, 79
2, 36452, Note_on_c, 0, 86, 0
2, 36480, Note_on_c, 0, 86, 79
2, 36500, Note_on_c, 0, 86, 0
2, 36528, Note_on_c, 0, 86, 79
2, 36548, Note_on_c, 0, 86, 0
2, 36576, Note_on_c, 0, 86, 95
2, 36768, Note_on_c, 0, 86, 0
2, 36768, Note_on_c, 0, 84, 79
2, 36857, Note_on_c, 0, 84, 0
2, 36864, Note_on_c, 0, 84, 95
2, 37056, Note_on_c, 0, 84, 0
2, 37056, Note_on_c, 0, 82, 79
2, 37145, Note_on_c, 0, 82, 0
2, 37152, Note_on_c, 0, 82, 95
2, 37344, Note_on_c, 0, 82, 0
2, 37344, Note_on_c, 0, 80, 79
2, 37433, Note_on_c, 0, 80, 0
2, 37440, Note_on_c, 0, 80, 95
2, 37632, Note_on_c, 0, 80, 0
2, 37632, Note_on_c, 0, 79, 79
2, 37721, Note_on_c, 0, 79, 0
2, 37728, Note_on_c, 0, 79, 95
2, 37920, Note_on_c, 0, 79, 0
2, 37920, Note_on_c, 0, 78, 79
2, 38009, Note_on_c, 0, 78, 0
2, 38016, Note_on_c, 0, 79, 95
2, 38157, Note_on_c, 0, 79, 0
2, 38160, Note_on_c, 0, 67, 79
2, 38183, Note_on_c, 0, 67, 0
2, 38184, Note_on_c, 0, 79, 79
2, 38207, Note_on_c, 0, 79, 0
2, 38208, Note_on_c, 0, 67, 79
2, 38231, Note_on_c, 0, 67, 0
2, 38232, Note_on_c, 0, 79, 79
2, 38255, Note_on_c, 0, 79, 0
2, 38256, Note_on_c, 0, 67, 79
2, 38279, Note_on_c, 0, 67, 0
2, 38280, Note_on_c, 0, 79, 79
2, 38303, Note_on_c, 0, 79, 0
2, 38304, Note_on_c, 0, 78, 79
2, 38569, Note_on_c, 0, 78, 0
2, 38592, Note_on_c, 0, 79, 79
2, 38755, Note_on_c, 0, 79, 0
2, 38832, Note_on_c, 0, 80, 79
2, 38856, Note_on_c, 0, 80, 0
2, 38856, Note_on_c, 0, 79, 79
2, 38879, Note_on_c, 0, 79, 0
2, 38928, Note_on_c, 0, 79, 77
2, 38952, Note_on_c, 0, 79, 0
2, 38952, Note_on_c, 0, 77, 77
2, 38975, Note_on_c, 0, 77, 0
2, 39024, Note_on_c, 0, 77, 75
2, 39048, Note_on_c, 0, 77, 0
2, 39048, Note_on_c, 0, 75, 74
2, 39071, Note_on_c, 0, 75, 0
2, 39120, Note_on_c, 0, 75, 73
2, 39144, Note_on_c, 0, 75, 0
2, 39144, Note_on_c, 0, 74, 72
2, 39167, Note_on_c, 0, 74, 0
2, 39408, Note_on_c, 0, 77, 72
2, 39432, Note_on_c, 0, 77, 0
2, 39432, Note_on_c, 0, 75, 72
2, 39455, Note_on_c, 0, 75, 0
2, 39696, Note_on_c, 0, 79, 72
2, 39720, Note_on_c, 0, 79, 0
2, 39720, Note_on_c, 0, 77, 72
2, 39743, Note_on_c, 0, 77, 0
2, 39744, Note_on_c, 0, 77, 72
2, 39921, Note_on_c, 0, 77, 0
2, 39936, Note_on_c, 0, 65, 72
2, 39948, Note_on_c, 0, 65, 0
2, 39948, Note_on_c, 0, 68, 72
2, 39960, Note_on_c, 0, 68, 0
2, 39960, Note_on_c, 0, 71, 72
2, 39972, Note_on_c, 0, 71, 0
2, 39972, Note_on_c, 0, 74, 72
2, 39984, Note_on_c, 0, 74, 0
2, 39984, Note_on_c, 0, 77, 72
2, 39999, Note_on_c, 0, 77, 0
2, 40000, Note_on_c, 0, 80, 72
2, 40015, Note_on_c, 0, 80, 0
2, 40016, Note_on_c, 0, 83, 72
2, 40031, Note_on_c, 0, 83, 0
2, 40032, Note_on_c, 0, 84, 88
2, 40151, Note_on_c, 0, 84, 0
2, 40152, Note_on_c, 0, 82, 72
2, 40175, Note_on_c, 0, 82, 0
2, 40176, Note_on_c, 0, 80, 72
2, 40199, Note_on_c, 0, 80, 0
2, 40200, Note_on_c, 0, 79, 72
2, 40223, Note_on_c, 0, 79, 0
2, 40224, Note_on_c, 0, 77, 72
2, 40247, Note_on_c, 0, 77, 0
2, 40248, Note_on_c, 0, 75, 72
2, 40271, Note_on_c, 0, 75, 0
2, 40272, Note_on_c, 0, 74, 72
2, 40295, Note_on_c, 0, 74, 0
2, 40296, Note_on_c, 0, 72, 72
2, 40319, Note_on_c, 0, 72, 0
2, 40320, Note_on_c, 0, 75, 72
2, 40344, Note_on_c, 0, 75, 0
2, 40344, Note_on_c, 0, 74, 72
2, 40367, Note_on_c, 0, 74, 0
2, 40368, Note_on_c, 0, 77, 72
2, 40392, Note_on_c, 0, 77, 0
2, 40392, Note_on_c, 0, 74, 72
2, 40415, Note_on_c, 0, 74, 0
2, 40416, Note_on_c, 0, 72, 72
2, 40505, Note_on_c, 0, 72, 0
2, 40512, Note_on_c, 0, 71, 72
2, 40601, Note_on_c, 0, 71, 0
2, 40608, Note_on_c, 0, 80, 85
2, 40631, Note_on_c, 0, 80, 0
2, 40632, Note_on_c, 0, 73, 85
2, 40655, Note_on_c, 0, 73, 0
2, 40656, Note_on_c, 0, 73, 85
2, 40668, Note_on_c, 0, 73, 0
2, 40668, Note_on_c, 0, 75, 85
2, 40680, Note_on_c, 0, 75, 0
2, 40680, Note_on_c, 0, 73, 85
2, 40692, Note_on_c, 0, 73, 0
2, 40692, Note_on_c, 0, 75, 85
2, 40701, Note_on_c, 0, 75, 0
2, 40704, Note_on_c, 0, 77, 85
2, 40727, Note_on_c, 0, 77, 0
2, 40728, Note_on_c, 0, 68, 85
2, 40751, Note_on_c, 0, 68, 0
2, 40752, Note_on_c, 0, 68, 85
2, 40764, Note_on_c, 0, 68, 0
2, 40764, Note_on_c, 0, 70, 85
2, 40776, Note_on_c, 0, 70, 0
2, 40776, Note_on_c, 0, 68, 85
2, 40788, Note_on_c, 0, 68, 0
2, 40788, Note_on_c, 0, 70, 85
2, 40797, Note_on_c, 0, 70, 0
2, 40800, Note_on_c, 0, 73, 85
2, 40823, Note_on_c, 0, 73, 0
2, 40824, Note_on_c, 0, 65, 85
2, 40847, Note_on_c, 0, 65, 0
2, 40848, Note_on_c, 0, 65, 85
2, 40860, Note_on_c, 0, 65, 0
2, 40860, Note_on_c, 0, 67, 85
2, 40872, Note_on_c, 0, 67, 0
2, 40872, Note_on_c, 0, 65, 85
2, 40884, Note_on_c, 0, 65, 0
2, 40884, Note_on_c, 0, 67, 85
2, 40893, Note_on_c, 0, 67, 0
2, 40896, Note_on_c, 0, 68, 85
2, 40919, Note_on_c, 0, 68, 0
2, 40920, Note_on_c, 0, 61, 85
2, 40943, Note_on_c, 0, 61, 0
2, 40944, Note_on_c, 0, 61, 85
2, 40956, Note_on_c, 0, 61, 0
2, 40956, Note_on_c, 0, 63, 85
2, 40968, Note_on_c, 0, 63, 0
2, 40968, Note_on_c, 0, 61, 85
2, 40980, Note_on_c, 0, 61, 0
2, 40980, Note_on_c, 0, 63, 85
2, 40989, Note_on_c, 0, 63, 0
2, 40992, Note_on_c, 0, 65, 85
2, 41015, Note_on_c, 0, 65, 0
2, 41016, Note_on_c, 0, 56, 85
2, 41039, Note_on_c, 0, 56, 0
2, 41040, Note_on_c, 0, 56, 85
2, 41052, Note_on_c, 0, 56, 0
2, 41052, Note_on_c, 0, 58, 85
2, 41064, Note_on_c, 0, 58, 0
2, 41064, Note_on_c, 0, 56, 85
2, 41076, Note_on_c, 0, 56, 0
2, 41076, Note_on_c, 0, 58, 85
2, 41085, Note_on_c, 0, 58, 0
2, 41088, Note_on_c, 0, 61, 85
2, 41133, Note_on_c, 0, 61, 0
2, 41136, Note_on_c, 0, 60, 85
2, 41181, Note_on_c, 0, 60, 0
2, 41184, Note_on_c, 0, 59, 85
2, 41199, Note_on_c, 0, 59, 0
2, 41200, Note_on_c, 0, 57, 85
2, 41215, Note_on_c, 0, 57, 0
2, 41216, Note_on_c, 0, 55, 85
2, 41231, Note_on_c, 0, 55, 0
2, 41232, Note_on_c, 0, 62, 85
2, 41247, Note_on_c, 0, 62, 0
2, 41248, Note_on_c, 0, 60, 85
2, 41263, Note_on_c, 0, 60, 0
2, 41264, Note_on_c, 0, 59, 85
2, 41279, Note_on_c, 0, 59, 0
2, 41280, Note_on_c, 0, 65, 85
2, 41295, Note_on_c, 0, 65, 0
2, 41296, Note_on_c, 0, 63, 85
2, 41311, Note_on_c, 0, 63, 0
2, 41312, Note_on_c, 0, 62, 85
2, 41327, Note_on_c, 0, 62, 0
2, 41328, Note_on_c, 0, 68, 85
2, 41343, Note_on_c, 0, 68, 0
2, 41344, Note_on_c, 0, 67, 85
2, 41359, Note_on_c, 0, 67, 0
2, 41360, Note_on_c, 0, 65, 85
2, 41375, Note_on_c, 0, 65, 0
2, 41376, Note_on_c, 0, 74, 85
2, 41391, Note_on_c, 0, 74, 0
2, 41392, Note_on_c, 0, 72, 85
2, 41407, Note_on_c, 0, 72, 0
2, 41408, Note_on_c, 0, 71, 85
2, 41423, Note_on_c, 0, 71, 0
2, 41424, Note_on_c, 0, 68, 85
2, 41439, Note_on_c, 0, 68, 0
2, 41440, Note_on_c, 0, 67, 85
2, 41455, Note_on_c, 0, 67, 0
2, 41456, Note_on_c, 0, 65, 85
2, 41471, Note_on_c, 0, 65, 0
2, 41472, Note_on_c, 0, 63, 85
2, 41487, Note_on_c, 0, 63, 0
2, 41488, Note_on_c, 0, 67, 85
2, 41503, Note_on_c, 0, 67, 0
2, 41504, Note_on_c, 0, 65, 86
2, 41519, Note_on_c, 0, 65, 0
2, 41520, Note_on_c, 0, 63, 87
2, 41535, Note_on_c, 0, 63, 0
2, 41536, Note_on_c, 0, 62, 87
2, 41551, Note_on_c, 0, 62, 0
2, 41552, Note_on_c, 0, 60, 88
2, 41567, Note_on_c, 0, 60, 0
2, 41568, Note_on_c, 0, 68, 89
2, 41583, Note_on_c, 0, 68, 0
2, 41584, Note_on_c, 0, 72, 89
2, 41599, Note_on_c, 0, 72, 0
2, 41600, Note_on_c, 0, 70, 90
2, 41615, Note_on_c, 0, 70, 0
2, 41616, Note_on_c, 0, 68, 91
2, 41631, Note_on_c, 0, 68, 0
2, 41632, Note_on_c, 0, 67, 91
2, 41647, Note_on_c, 0, 67, 0
2, 41648, Note_on_c, 0, 65, 92
2, 41663, Note_on_c, 0, 65, 0
2, 41664, Note_on_c, 0, 63, 93
2, 41679, Note_on_c, 0, 63, 0
2, 41680, Note_on_c, 0, 62, 92
2, 41695, Note_on_c, 0, 62, 0
2, 41696, Note_on_c, 0, 60, 91
2, 41711, Note_on_c, 0, 60, 0
2, 41712, Note_on_c, 0, 59, 91
2, 41727, Note_on_c, 0, 59, 0
2, 41728, Note_on_c, 0, 60, 90
2, 41743, Note_on_c, 0, 60, 0
2, 41744, Note_on_c, 0, 62, 89
2, 41759, Note_on_c, 0, 62, 0
2, 41760, Note_on_c, 0, 63, 85
2, 41775, Note_on_c, 0, 63, 0
2, 41776, Note_on_c, 0, 67, 85
2, 41791, Note_on_c, 0, 67, 0
2, 41792, Note_on_c, 0, 65, 86
2, 41807, Note_on_c, 0, 65, 0
2, 41808, Note_on_c, 0, 63, 87
2, 41823, Note_on_c, 0, 63, 0
2, 41824, Note_on_c, 0, 62, 87
2, 41839, Note_on_c, 0, 62, 0
2, 41840, Note_on_c, 0, 60, 88
2, 41855, Note_on_c, 0, 60, 0
2, 41856, Note_on_c, 0, 68, 89
2, 41871, Note_on_c, 0, 68, 0
2, 41872, Note_on_c, 0, 72, 89
2, 41887, Note_on_c, 0, 72, 0
2, 41888, Note_on_c, 0, 70, 90
2, 41903, Note_on_c, 0, 70, 0
2, 41904, Note_on_c, 0, 68, 91
2, 41919, Note_on_c, 0, 68, 0
2, 41920, Note_on_c, 0, 67, 91
2, 41935, Note_on_c, 0, 67, 0
2, 41936, Note_on_c, 0, 65, 92
2, 41951, Note_on_c, 0, 65, 0
2, 41952, Note_on_c, 0, 63, 93
2, 41967, Note_on_c, 0, 63, 0
2, 41968, Note_on_c, 0, 62, 92
2, 41983, Note_on_c, 0, 62, 0
2, 41984, Note_on_c, 0, 60, 91
2, 41999, Note_on_c, 0, 60, 0
2, 42000, Note_on_c, 0, 59, 91
2, 42015, Note_on_c, 0, 59, 0
2, 42016, Note_on_c, 0, 60, 90
2, 42031, Note_on_c, 0, 60, 0
2, 42032, Note_on_c, 0, 62, 89
2, 42047, Note_on_c, 0, 62, 0
2, 42048, Note_on_c, 0, 60, 85
2, 42181, Note_on_c, 0, 60, 0
2, 42192, Note_on_c, 0, 59, 75
2, 42237, Note_on_c, 0, 59, 0
2, 42240, Note_on_c, 0, 65, 72
2, 42240, Note_on_c, 0, 62, 72
2, 42285, Note_on_c, 0, 65, 0
2, 42285, Note_on_c, 0, 62, 0
2, 42288, Note_on_c, 0, 62, 72
2, 42288, Note_on_c, 0, 59, 72
2, 42333, Note_on_c, 0, 62, 0
2, 42333, Note_on_c, 0, 59, 0
2, 42336, Note_on_c, 0, 63, 72
2, 42336, Note_on_c, 0, 60, 72
2, 42469, Note_on_c, 0, 63, 0
2, 42469, Note_on_c, 0, 60, 0
2, 42480, Note_on_c, 0, 62, 72
2, 42480, Note_on_c, 0, 59, 72
2, 42525, Note_on_c, 0, 62, 0
2, 42525, Note_on_c, 0, 59, 0
2, 42528, Note_on_c, 0, 68, 72
2, 42528, Note_on_c, 0, 65, 72
2, 42573, Note_on_c, 0, 68, 0
2, 42573, Note_on_c, 0, 65, 0
2, 42576, Note_on_c, 0, 65, 72
2, 42576, Note_on_c, 0, 62, 72
2, 42621, Note_on_c, 0, 65, 0
2, 42621, Note_on_c, 0, 62, 0
2, 42624, Note_on_c, 0, 67, 72
2, 42624, Note_on_c, 0, 63, 72
2, 42757, Note_on_c, 0, 67, 0
2, 42757, Note_on_c, 0, 63, 0
2, 42768, Note_on_c, 0, 72, 72
2, 42780, Note_on_c, 0, 72, 0
2, 42780, Note_on_c, 0, 68, 72
2, 42814, Note_on_c, 0, 68, 0
2, 42816, Note_on_c, 0, 70, 72
2, 42828, Note_on_c, 0, 70, 0
2, 42828, Note_on_c, 0, 67, 72
2, 42862, Note_on_c, 0, 67, 0
2, 42864, Note_on_c, 0, 68, 72
2, 42876, Note_on_c, 0, 68, 0
2, 42876, Note_on_c, 0, 65, 73
2, 42910, Note_on_c, 0, 65, 0
2, 42912, Note_on_c, 0, 67, 73
2, 42912, Note_on_c, 0, 63, 73
2, 43045, Note_on_c, 0, 67, 0
2, 43045, Note_on_c, 0, 63, 0
2, 43056, Note_on_c, 0, 72, 74
2, 43068, Note_on_c, 0, 72, 0
2, 43068, Note_on_c, 0, 68, 75
2, 43102, Note_on_c, 0, 68, 0
2, 43104, Note_on_c, 0, 70, 75
2, 43116, Note_on_c, 0, 70, 0
2, 43116, Note_on_c, 0, 67, 75
2, 43150, Note_on_c, 0, 67, 0
2, 43152, Note_on_c, 0, 68, 75
2, 43164, Note_on_c, 0, 68, 0
2, 43164, Note_on_c, 0, 65, 75
2, 43198, Note_on_c, 0, 65, 0
2, 43200, Note_on_c, 0, 67, 76
2, 43200, Note_on_c, 0, 64, 76
2, 43333, Note_on_c, 0, 67, 0
2, 43333, Note_on_c, 0, 64, 0
2, 43344, Note_on_c, 0, 73, 77
2, 43356, Note_on_c, 0, 73, 0
2, 43356, Note_on_c, 0, 70, 77
2, 43390, Note_on_c, 0, 70, 0
2, 43392, Note_on_c, 0, 72, 78
2, 43404, Note_on_c, 0, 72, 0
2, 43404, Note_on_c, 0, 68, 78
2, 43438, Note_on_c, 0, 68, 0
2, 43440, Note_on_c, 0, 70, 78
2, 43452, Note_on_c, 0, 70, 0
2, 43452, Note_on_c, 0, 67, 78
2, 43486, Note_on_c, 0, 67, 0
2, 43488, Note_on_c, 0, 68, 79
2, 43500, Note_on_c, 0, 68, 0
2, 43500, Note_on_c, 0, 65, 79
2, 43534, Note_on_c, 0, 65, 0
2, 43536, Note_on_c, 0, 67, 79
2, 43548, Note_on_c, 0, 67, 0
2, 43548, Note_on_c, 0, 63, 79
2, 43582, Note_on_c, 0, 63, 0
2, 43584, Note_on_c, 0, 65, 80
2, 43596, Note_on_c, 0, 65, 0
2, 43596, Note_on_c, 0, 62, 80
2, 43630, Note_on_c, 0, 62, 0
2, 43632, Note_on_c, 0, 63, 80
2, 43644, Note_on_c, 0, 63, 0
2, 43644, Note_on_c, 0, 60, 80
2, 43678, Note_on_c, 0, 60, 0
2, 43680, Note_on_c, 0, 62, 81
2, 43692, Note_on_c, 0, 62, 0
2, 43692, Note_on_c, 0, 58, 81
2, 43726, Note_on_c, 0, 58, 0
2, 43728, Note_on_c, 0, 60, 81
2, 43740, Note_on_c, 0, 60, 0
2, 43740, Note_on_c, 0, 57, 81
2, 43774, Note_on_c, 0, 57, 0
2, 43776, Note_on_c, 0, 58, 82
2, 43821, Note_on_c, 0, 58, 0
2, 43824, Note_on_c, 0, 56, 82
2, 43836, Note_on_c, 0, 56, 0
2, 43836, Note_on_c, 0, 68, 82
2, 43869, Note_on_c, 0, 68, 0
2, 43872, Note_on_c, 0, 58, 83
2, 43884, Note_on_c, 0, 58, 0
2, 43884, Note_on_c, 0, 70, 83
2, 43917, Note_on_c, 0, 70, 0
2, 43920, Note_on_c, 0, 62, 83
2, 43932, Note_on_c, 0, 62, 0
2, 43932, Note_on_c, 0, 74, 83
2, 43965, Note_on_c, 0, 74, 0
2, 43968, Note_on_c, 0, 65, 84
2, 43980, Note_on_c, 0, 65, 0
2, 43980, Note_on_c, 0, 77, 84
2, 44013, Note_on_c, 0, 77, 0
2, 44016, Note_on_c, 0, 67, 84
2, 44028, Note_on_c, 0, 67, 0
2, 44028, Note_on_c, 0, 79, 84
2, 44061, Note_on_c, 0, 79, 0
2, 44064, Note_on_c, 0, 68, 85
2, 44082, Note_on_c, 0, 68, 0
2, 44082, Note_on_c, 0, 80, 85
2, 44375, Note_on_c, 0, 80, 0
2, 44376, Note_on_c, 0, 79, 85
2, 44399, Note_on_c, 0, 79, 0
2, 44400, Note_on_c, 0, 82, 85
2, 44423, Note_on_c, 0, 82, 0
2, 44424, Note_on_c, 0, 80, 85
2, 44447, Note_on_c, 0, 80, 0
2, 44448, Note_on_c, 0, 84, 85
2, 44471, Note_on_c, 0, 84, 0
2, 44472, Note_on_c, 0, 82, 84
2, 44495, Note_on_c, 0, 82, 0
2, 44496, Note_on_c, 0, 80, 83
2, 44519, Note_on_c, 0, 80, 0
2, 44520, Note_on_c, 0, 79, 82
2, 44543, Note_on_c, 0, 79, 0
2, 44544, Note_on_c, 0, 77, 82
2, 44567, Note_on_c, 0, 77, 0
2, 44568, Note_on_c, 0, 75, 81
2, 44591, Note_on_c, 0, 75, 0
2, 44592, Note_on_c, 0, 74, 80
2, 44615, Note_on_c, 0, 74, 0
2, 44616, Note_on_c, 0, 72, 79
2, 44639, Note_on_c, 0, 72, 0
2, 44640, Note_on_c, 0, 70, 79
2, 44759, Note_on_c, 0, 70, 0
2, 44760, Note_on_c, 0, 67, 79
2, 44783, Note_on_c, 0, 67, 0
2, 44784, Note_on_c, 0, 68, 79
2, 44807, Note_on_c, 0, 68, 0
2, 44808, Note_on_c, 0, 65, 79
2, 44831, Note_on_c, 0, 65, 0
2, 44832, Note_on_c, 0, 67, 79
2, 44855, Note_on_c, 0, 67, 0
2, 44856, Note_on_c, 0, 63, 79
2, 44879, Note_on_c, 0, 63, 0
2, 44880, Note_on_c, 0, 65, 79
2, 44903, Note_on_c, 0, 65, 0
2, 44904, Note_on_c, 0, 62, 79
2, 44927, Note_on_c, 0, 62, 0
2, 44928, Note_on_c, 0, 63, 79
2, 44948, Note_on_c, 0, 63, 0
2, 44976, Note_on_c, 0, 58, 81
2, 44996, Note_on_c, 0, 58, 0
2, 45024, Note_on_c, 0, 55, 83
2, 45044, Note_on_c, 0, 55, 0
2, 45072, Note_on_c, 0, 58, 85
2, 45092, Note_on_c, 0, 58, 0
2, 45120, Note_on_c, 0, 63, 83
2, 45140, Note_on_c, 0, 63, 0
2, 45168, Note_on_c, 0, 67, 81
2, 45188, Note_on_c, 0, 67, 0
2, 45216, Note_on_c, 0, 70, 79
2, 45335, Note_on_c, 0, 70, 0
2, 45336, Note_on_c, 0, 67, 79
2, 45359, Note_on_c, 0, 67, 0
2, 45360, Note_on_c, 0, 68, 79
2, 45383, Note_on_c, 0, 68, 0
2, 45384, Note_on_c, 0, 65, 79
2, 45407, Note_on_c, 0, 65, 0
2, 45408, Note_on_c, 0, 67, 79
2, 45431, Note_on_c, 0, 67, 0
2, 45432, Note_on_c, 0, 63, 79
2, 45455, Note_on_c, 0, 63, 0
2, 45456, Note_on_c, 0, 65, 79
2, 45479, Note_on_c, 0, 65, 0
2, 45480, Note_on_c, 0, 62, 79
2, 45503, Note_on_c, 0, 62, 0
2, 45504, Note_on_c, 0, 63, 79
2, 45549, Note_on_c, 0, 63, 0
2, 45552, Note_on_c, 0, 67, 79
2, 45576, Note_on_c, 0, 67, 0
2, 45576, Note_on_c, 0, 75, 79
2, 45599, Note_on_c, 0, 75, 0
2, 45600, Note_on_c, 0, 67, 79
2, 45624, Note_on_c, 0, 67, 0
2, 45624, Note_on_c, 0, 75, 79
2, 45647, Note_on_c, 0, 75, 0
2, 45648, Note_on_c, 0, 67, 79
2, 45672, Note_on_c, 0, 67, 0
2, 45672, Note_on_c, 0, 75, 79
2, 45695, Note_on_c, 0, 75, 0
2, 45696, Note_on_c, 0, 67, 79
2, 45720, Note_on_c, 0, 67, 0
2, 45720, Note_on_c, 0, 75, 79
2, 45743, Note_on_c, 0, 75, 0
2, 45744, Note_on_c, 0, 67, 79
2, 45768, Note_on_c, 0, 67, 0
2, 45768, Note_on_c, 0, 75, 79
2, 45791, Note_on_c, 0, 75, 0
2, 45792, Note_on_c, 0, 75, 95
2, 45984, Note_on_c, 0, 75, 0
2, 45984, Note_on_c, 0, 74, 79
2, 46073, Note_on_c, 0, 74, 0
2, 46128, Note_on_c, 0, 73, 79
2, 46152, Note_on_c, 0, 73, 0
2, 46152, Note_on_c, 0, 82, 79
2, 46175, Note_on_c, 0, 82, 0
2, 46176, Note_on_c, 0, 73, 79
2, 46200, Note_on_c, 0, 73, 0
2, 46200, Note_on_c, 0, 82, 79
2, 46223, Note_on_c, 0, 82, 0
2, 46224, Note_on_c, 0, 73, 79
2, 46248, Note_on_c, 0, 73, 0
2, 46248, Note_on_c, 0, 82, 79
2, 46271, Note_on_c, 0, 82, 0
2, 46272, Note_on_c, 0, 73, 79
2, 46296, Note_on_c, 0, 73, 0
2, 46296, Note_on_c, 0, 82, 79
2, 46319, Note_on_c, 0, 82, 0
2, 46320, Note_on_c, 0, 73, 79
2, 46344, Note_on_c, 0, 73, 0
2, 46344, Note_on_c, 0, 82, 79
2, 46367, Note_on_c, 0, 82, 0
2, 46368, Note_on_c, 0, 82, 79
2, 46368, Note_on_c, 0, 73, 79
2, 46457, Note_on_c, 0, 82, 0
2, 46457, Note_on_c, 0, 73, 0
2, 46464, Note_on_c, 0, 80, 79
2, 46464, Note_on_c, 0, 72, 79
2, 46509, Note_on_c, 0, 80, 0
2, 46509, Note_on_c, 0, 72, 0
2, 46512, Note_on_c, 0, 79, 79
2, 46512, Note_on_c, 0, 70, 79
2, 46557, Note_on_c, 0, 79, 0
2, 46557, Note_on_c, 0, 70, 0
2, 46560, Note_on_c, 0, 77, 79
2, 46560, Note_on_c, 0, 68, 79
2, 46605, Note_on_c, 0, 77, 0
2, 46605, Note_on_c, 0, 68, 0
2, 46608, Note_on_c, 0, 74, 79
2, 46608, Note_on_c, 0, 65, 79
2, 46653, Note_on_c, 0, 74, 0
2, 46653, Note_on_c, 0, 65, 0
2, 46656, Note_on_c, 0, 75, 79
2, 46656, Note_on_c, 0, 67, 79
2, 46745, Note_on_c, 0, 75, 0
2, 46745, Note_on_c, 0, 67, 0
2, 46992, Note_on_c, 0, 70, 79
2, 46992, Note_on_c, 0, 68, 79
2, 47012, Note_on_c, 0, 70, 0
2, 47012, Note_on_c, 0, 68, 0
2, 47040, Note_on_c, 0, 70, 79
2, 47040, Note_on_c, 0, 68, 79
2, 47060, Note_on_c, 0, 70, 0
2, 47060, Note_on_c, 0, 68, 0
2, 47088, Note_on_c, 0, 70, 79
2, 47088, Note_on_c, 0, 68, 79
2, 47108, Note_on_c, 0, 70, 0
2, 47108, Note_on_c, 0, 68, 0
2, 47136, Note_on_c, 0, 70, 79
2, 47136, Note_on_c, 0, 68, 79
2, 47156, Note_on_c, 0, 70, 0
2, 47156, Note_on_c, 0, 68, 0
2, 47184, Note_on_c, 0, 70, 79
2, 47184, Note_on_c, 0, 68, 79
2, 47204, Note_on_c, 0, 70, 0
2, 47204, Note_on_c, 0, 68, 0
2, 47232, Note_on_c, 0, 70, 79
2, 47497, Note_on_c, 0, 70, 0
2, 49536, Note_on_c, 0, 70, 79
2, 49655, Note_on_c, 0, 70, 0
2, 49656, Note_on_c, 0, 74, 79
2, 49679, Note_on_c, 0, 74, 0
2, 49680, Note_on_c, 0, 75, 79
2, 49703, Note_on_c, 0, 75, 0
2, 49704, Note_on_c, 0, 72, 79
2, 49727, Note_on_c, 0, 72, 0
2, 49728, Note_on_c, 0, 70, 79
2, 49751, Note_on_c, 0, 70, 0
2, 49752, Note_on_c, 0, 68, 79
2, 49775, Note_on_c, 0, 68, 0
2, 49776, Note_on_c, 0, 67, 79
2, 49799, Note_on_c, 0, 67, 0
2, 49800, Note_on_c, 0, 65, 79
2, 49823, Note_on_c, 0, 65, 0
2, 49824, Note_on_c, 0, 63, 79
2, 49847, Note_on_c, 0, 63, 0
2, 49848, Note_on_c, 0, 62, 79
2, 49871, Note_on_c, 0, 62, 0
2, 49872, Note_on_c, 0, 65, 79
2, 49895, Note_on_c, 0, 65, 0
2, 49896, Note_on_c, 0, 63, 79
2, 49919, Note_on_c, 0, 63, 0
2, 49920, Note_on_c, 0, 67, 79
2, 49943, Note_on_c, 0, 67, 0
2, 49944, Note_on_c, 0, 65, 79
2, 49967, Note_on_c, 0, 65, 0
2, 49968, Note_on_c, 0, 68, 79
2, 49991, Note_on_c, 0, 68, 0
2, 49992, Note_on_c, 0, 67, 79
2, 50015, Note_on_c, 0, 67, 0
2, 50016, Note_on_c, 0, 70, 79
2, 50061, Note_on_c, 0, 70, 0
2, 50112, Note_on_c, 0, 65, 79
2, 50135, Note_on_c, 0, 65, 0
2, 50136, Note_on_c, 0, 64, 79
2, 50159, Note_on_c, 0, 64, 0
2, 50160, Note_on_c, 0, 67, 79
2, 50183, Note_on_c, 0, 67, 0
2, 50184, Note_on_c, 0, 65, 79
2, 50207, Note_on_c, 0, 65, 0
2, 50208, Note_on_c, 0, 68, 79
2, 50231, Note_on_c, 0, 68, 0
2, 50232, Note_on_c, 0, 67, 79
2, 50255, Note_on_c, 0, 67, 0
2, 50256, Note_on_c, 0, 70, 79
2, 50279, Note_on_c, 0, 70, 0
2, 50280, Note_on_c, 0, 68, 79
2, 50303, Note_on_c, 0, 68, 0
2, 50304, Note_on_c, 0, 72, 79
2, 50349, Note_on_c, 0, 72, 0
2, 50400, Note_on_c, 0, 64, 79
2, 50423, Note_on_c, 0, 64, 0
2, 50424, Note_on_c, 0, 65, 79
2, 50447, Note_on_c, 0, 65, 0
2, 50448, Note_on_c, 0, 66, 79
2, 50471, Note_on_c, 0, 66, 0
2, 50472, Note_on_c, 0, 67, 80
2, 50495, Note_on_c, 0, 67, 0
2, 50496, Note_on_c, 0, 68, 80
2, 50519, Note_on_c, 0, 68, 0
2, 50520, Note_on_c, 0, 69, 81
2, 50543, Note_on_c, 0, 69, 0
2, 50544, Note_on_c, 0, 70, 81
2, 50567, Note_on_c, 0, 70, 0
2, 50568, Note_on_c, 0, 71, 82
2, 50591, Note_on_c, 0, 71, 0
2, 50592, Note_on_c, 0, 72, 82
2, 50637, Note_on_c, 0, 72, 0
2, 50640, Note_on_c, 0, 74, 83
2, 50650, Note_on_c, 0, 74, 0
2, 50650, Note_on_c, 0, 72, 84
2, 50660, Note_on_c, 0, 72, 0
2, 50660, Note_on_c, 0, 70, 84
2, 50670, Note_on_c, 0, 70, 0
2, 50670, Note_on_c, 0, 72, 84
2, 50679, Note_on_c, 0, 72, 0
2, 50679, Note_on_c, 0, 74, 84
2, 50688, Note_on_c, 0, 74, 0
2, 50688, Note_on_c, 0, 75, 85
2, 50708, Note_on_c, 0, 75, 0
2, 50760, Note_on_c, 0, 74, 85
2, 50784, Note_on_c, 0, 74, 0
2, 50784, Note_on_c, 0, 72, 85
2, 50804, Note_on_c, 0, 72, 0
2, 50856, Note_on_c, 0, 70, 85
2, 50880, Note_on_c, 0, 70, 0
2, 50880, Note_on_c, 0, 68, 85
2, 50900, Note_on_c, 0, 68, 0
2, 50952, Note_on_c, 0, 67, 85
2, 50975, Note_on_c, 0, 67, 0
2, 50976, Note_on_c, 0, 68, 84
2, 50988, Note_on_c, 0, 68, 0
2, 50988, Note_on_c, 0, 67, 84
2, 51000, Note_on_c, 0, 67, 0
2, 51000, Note_on_c, 0, 68, 83
2, 51012, Note_on_c, 0, 68, 0
2, 51012, Note_on_c, 0, 67, 83
2, 51024, Note_on_c, 0, 67, 0
2, 51024, Note_on_c, 0, 68, 83
2, 51036, Note_on_c, 0, 68, 0
2, 51036, Note_on_c, 0, 67, 82
2, 51048, Note_on_c, 0, 67, 0
2, 51048, Note_on_c, 0, 65, 82
2, 51060, Note_on_c, 0, 65, 0
2, 51060, Note_on_c, 0, 67, 82
2, 51072, Note_on_c, 0, 67, 0
2, 51072, Note_on_c, 0, 65, 81
2, 51161, Note_on_c, 0, 65, 0
2, 51264, Note_on_c, 0, 70, 79
2, 51397, Note_on_c, 0, 70, 0
2, 51408, Note_on_c, 0, 72, 79
2, 51431, Note_on_c, 0, 72, 0
2, 51432, Note_on_c, 0, 68, 79
2, 51455, Note_on_c, 0, 68, 0
2, 51456, Note_on_c, 0, 67, 79
2, 51501, Note_on_c, 0, 67, 0
2, 51504, Note_on_c, 0, 70, 79
2, 51516, Note_on_c, 0, 70, 0
2, 51516, Note_on_c, 0, 68, 79
2, 51528, Note_on_c, 0, 68, 0
2, 51528, Note_on_c, 0, 67, 79
2, 51540, Note_on_c, 0, 67, 0
2, 51540, Note_on_c, 0, 68, 79
2, 51552, Note_on_c, 0, 68, 0
2, 51552, Note_on_c, 0, 70, 79
2, 51597, Note_on_c, 0, 70, 0
2, 51600, Note_on_c, 0, 75, 79
2, 51645, Note_on_c, 0, 75, 0
2, 51696, Note_on_c, 0, 74, 79
2, 51741, Note_on_c, 0, 74, 0
2, 51792, Note_on_c, 0, 72, 79
2, 51837, Note_on_c, 0, 72, 0
2, 51840, Note_on_c, 0, 70, 79
2, 51973, Note_on_c, 0, 70, 0
2, 51984, Note_on_c, 0, 72, 79
2, 52007, Note_on_c, 0, 72, 0
2, 52008, Note_on_c, 0, 68, 79
2, 52031, Note_on_c, 0, 68, 0
2, 52032, Note_on_c, 0, 67, 79
2, 52077, Note_on_c, 0, 67, 0
2, 52080, Note_on_c, 0, 70, 79
2, 52092, Note_on_c, 0, 70, 0
2, 52092, Note_on_c, 0, 68, 79
2, 52104, Note_on_c, 0, 68, 0
2, 52104, Note_on_c, 0, 67, 79
2, 52116, Note_on_c, 0, 67, 0
2, 52116, Note_on_c, 0, 68, 79
2, 52128, Note_on_c, 0, 68, 0
2, 52128, Note_on_c, 0, 70, 79
2, 52173, Note_on_c, 0, 70, 0
2, 52176, Note_on_c, 0, 79, 79
2, 52221, Note_on_c, 0, 79, 0
2, 52272, Note_on_c, 0, 75, 79
2, 52317, Note_on_c, 0, 75, 0
2, 52368, Note_on_c, 0, 72, 79
2, 52413, Note_on_c, 0, 72, 0
2, 52416, Note_on_c, 0, 67, 79
2, 52434, Note_on_c, 0, 67, 0
2, 52434, Note_on_c, 0, 70, 95
2, 52608, Note_on_c, 0, 70, 0
2, 52608, Note_on_c, 0, 69, 79
2, 52631, Note_on_c, 0, 69, 0
2, 52632, Note_on_c, 0, 70, 79
2, 52655, Note_on_c, 0, 70, 0
2, 52656, Note_on_c, 0, 72, 79
2, 52679, Note_on_c, 0, 72, 0
2, 52680, Note_on_c, 0, 70, 79
2, 52703, Note_on_c, 0, 70, 0
2, 52704, Note_on_c, 0, 70, 95
2, 52896, Note_on_c, 0, 70, 0
2, 52896, Note_on_c, 0, 69, 79
2, 52919, Note_on_c, 0, 69, 0
2, 52920, Note_on_c, 0, 70, 79
2, 52943, Note_on_c, 0, 70, 0
2, 52944, Note_on_c, 0, 72, 79
2, 52967, Note_on_c, 0, 72, 0
2, 52968, Note_on_c, 0, 70, 79
2, 52991, Note_on_c, 0, 70, 0
2, 52992, Note_on_c, 0, 75, 95
2, 53184, Note_on_c, 0, 75, 0
2, 53184, Note_on_c, 0, 69, 79
2, 53207, Note_on_c, 0, 69, 0
2, 53208, Note_on_c, 0, 70, 79
2, 53231, Note_on_c, 0, 70, 0
2, 53232, Note_on_c, 0, 72, 79
2, 53255, Note_on_c, 0, 72, 0
2, 53256, Note_on_c, 0, 70, 79
2, 53279, Note_on_c, 0, 70, 0
2, 53280, Note_on_c, 0, 70, 95
2, 53472, Note_on_c, 0, 70, 0
2, 53472, Note_on_c, 0, 71, 81
2, 53495, Note_on_c, 0, 71, 0
2, 53496, Note_on_c, 0, 72, 81
2, 53519, Note_on_c, 0, 72, 0
2, 53520, Note_on_c, 0, 74, 81
2, 53543, Note_on_c, 0, 74, 0
2, 53544, Note_on_c, 0, 72, 81
2, 53567, Note_on_c, 0, 72, 0
2, 53568, Note_on_c, 0, 72, 98
2, 53760, Note_on_c, 0, 72, 0
2, 53760, Note_on_c, 0, 74, 83
2, 53783, Note_on_c, 0, 74, 0
2, 53784, Note_on_c, 0, 75, 83
2, 53807, Note_on_c, 0, 75, 0
2, 53808, Note_on_c, 0, 77, 83
2, 53831, Note_on_c, 0, 77, 0
2, 53832, Note_on_c, 0, 75, 84
2, 53855, Note_on_c, 0, 75, 0
2, 53856, Note_on_c, 0, 75, 84
2, 53997, Note_on_c, 0, 75, 0
2, 54000, Note_on_c, 0, 79, 85
2, 54023, Note_on_c, 0, 79, 0
2, 54024, Note_on_c, 0, 77, 85
2, 54047, Note_on_c, 0, 77, 0
2, 54048, Note_on_c, 0, 75, 85
2, 54071, Note_on_c, 0, 75, 0
2, 54072, Note_on_c, 0, 74, 85
2, 54095, Note_on_c, 0, 74, 0
2, 54096, Note_on_c, 0, 72, 85
2, 54119, Note_on_c, 0, 72, 0
2, 54120, Note_on_c, 0, 70, 85
2, 54143, Note_on_c, 0, 70, 0
2, 54144, Note_on_c, 0, 72, 85
2, 54156, Note_on_c, 0, 72, 0
2, 54156, Note_on_c, 0, 70, 85
2, 54168, Note_on_c, 0, 70, 0
2, 54168, Note_on_c, 0, 68, 85
2, 54180, Note_on_c, 0, 68, 0
2, 54180, Note_on_c, 0, 70, 85
2, 54192, Note_on_c, 0, 70, 0
2, 54192, Note_on_c, 0, 72, 82
2, 54215, Note_on_c, 0, 72, 0
2, 54216, Note_on_c, 0, 68, 81
2, 54239, Note_on_c, 0, 68, 0
2, 54240, Note_on_c, 0, 67, 80
2, 54329, Note_on_c, 0, 67, 0
2, 54336, Note_on_c, 0, 67, 76
2, 54348, Note_on_c, 0, 67, 0
2, 54348, Note_on_c, 0, 65, 75
2, 54360, Note_on_c, 0, 65, 0
2, 54360, Note_on_c, 0, 67, 75
2, 54372, Note_on_c, 0, 67, 0
2, 54372, Note_on_c, 0, 65, 74
2, 54384, Note_on_c, 0, 65, 0
2, 54384, Note_on_c, 0, 67, 74
2, 54396, Note_on_c, 0, 67, 0
2, 54396, Note_on_c, 0, 65, 73
2, 54408, Note_on_c, 0, 65, 0
2, 54408, Note_on_c, 0, 63, 73
2, 54420, Note_on_c, 0, 63, 0
2, 54420, Note_on_c, 0, 65, 72
2, 54432, Note_on_c, 0, 65, 0
2, 54432, Note_on_c, 0, 63, 72
2, 54477, Note_on_c, 0, 63, 0
2, 54480, Note_on_c, 0, 75, 72
2, 54525, Note_on_c, 0, 75, 0
2, 54528, Note_on_c, 0, 74, 72
2, 54540, Note_on_c, 0, 74, 0
2, 54540, Note_on_c, 0, 75, 72
2, 54552, Note_on_c, 0, 75, 0
2, 54552, Note_on_c, 0, 74, 72
2, 54564, Note_on_c, 0, 74, 0
2, 54564, Note_on_c, 0, 75, 72
2, 54573, Note_on_c, 0, 75, 0
2, 54576, Note_on_c, 0, 72, 72
2, 54621, Note_on_c, 0, 72, 0
2, 54624, Note_on_c, 0, 70, 72
2, 54669, Note_on_c, 0, 70, 0
2, 54672, Note_on_c, 0, 69, 72
2, 54717, Note_on_c, 0, 69, 0
2, 54720, Note_on_c, 0, 69, 72
2, 54935, Note_on_c, 0, 69, 0
2, 54936, Note_on_c, 0, 70, 72
2, 54959, Note_on_c, 0, 70, 0
2, 54960, Note_on_c, 0, 72, 72
2, 54983, Note_on_c, 0, 72, 0
2, 54984, Note_on_c, 0, 70, 72
2, 55007, Note_on_c, 0, 70, 0
2, 55008, Note_on_c, 0, 70, 72
2, 55163, Note_on_c, 0, 70, 0
2, 55248, Note_on_c, 0, 72, 78
2, 55272, Note_on_c, 0, 72, 0
2, 55272, Note_on_c, 0, 70, 77
2, 55295, Note_on_c, 0, 70, 0
2, 55344, Note_on_c, 0, 70, 76
2, 55368, Note_on_c, 0, 70, 0
2, 55368, Note_on_c, 0, 68, 75
2, 55391, Note_on_c, 0, 68, 0
2, 55440, Note_on_c, 0, 68, 74
2, 55464, Note_on_c, 0, 68, 0
2, 55464, Note_on_c, 0, 67, 74
2, 55487, Note_on_c, 0, 67, 0
2, 55536, Note_on_c, 0, 67, 72
2, 55560, Note_on_c, 0, 67, 0
2, 55560, Note_on_c, 0, 65, 72
2, 55583, Note_on_c, 0, 65, 0
2, 55824, Note_on_c, 0, 68, 72
2, 55848, Note_on_c, 0, 68, 0
2, 55848, Note_on_c, 0, 67, 72
2, 55871, Note_on_c, 0, 67, 0
2, 56112, Note_on_c, 0, 70, 74
2, 56136, Note_on_c, 0, 70, 0
2, 56136, Note_on_c, 0, 68, 75
2, 56159, Note_on_c, 0, 68, 0
2, 56160, Note_on_c, 0, 68, 75
2, 56337, Note_on_c, 0, 68, 0
2, 56352, Note_on_c, 0, 58, 77
2, 56364, Note_on_c, 0, 58, 0
2, 56364, Note_on_c, 0, 62, 77
2, 56376, Note_on_c, 0, 62, 0
2, 56376, Note_on_c, 0, 65, 78
2, 56388, Note_on_c, 0, 65, 0
2, 56388, Note_on_c, 0, 68, 78
2, 56400, Note_on_c, 0, 68, 0
2, 56400, Note_on_c, 0, 74, 78
2, 56415, Note_on_c, 0, 74, 0
2, 56416, Note_on_c, 0, 77, 78
2, 56431, Note_on_c, 0, 77, 0
2, 56432, Note_on_c, 0, 80, 78
2, 56447, Note_on_c, 0, 80, 0
2, 56448, Note_on_c, 0, 84, 95
2, 56520, Note_on_c, 0, 84, 0
2, 56520, Note_on_c, 0, 82, 79
2, 56543, Note_on_c, 0, 82, 0
2, 56544, Note_on_c, 0, 80, 79
2, 56567, Note_on_c, 0, 80, 0
2, 56568, Note_on_c, 0, 79, 79
2, 56591, Note_on_c, 0, 79, 0
2, 56592, Note_on_c, 0, 77, 79
2, 56615, Note_on_c, 0, 77, 0
2, 56616, Note_on_c, 0, 75, 79
2, 56639, Note_on_c, 0, 75, 0
2, 56640, Note_on_c, 0, 74, 79
2, 56663, Note_on_c, 0, 74, 0
2, 56664, Note_on_c, 0, 72, 79
2, 56687, Note_on_c, 0, 72, 0
2, 56688, Note_on_c, 0, 70, 79
2, 56711, Note_on_c, 0, 70, 0
2, 56712, Note_on_c, 0, 68, 79
2, 56735, Note_on_c, 0, 68, 0
2, 56736, Note_on_c, 0, 63, 79
2, 56781, Note_on_c, 0, 63, 0
2, 56784, Note_on_c, 0, 63, 80
2, 56792, Note_on_c, 0, 63, 0
2, 56792, Note_on_c, 0, 67, 80
2, 56800, Note_on_c, 0, 67, 0
2, 56800, Note_on_c, 0, 70, 80
2, 56808, Note_on_c, 0, 70, 0
2, 56808, Note_on_c, 0, 74, 81
2, 56816, Note_on_c, 0, 74, 0
2, 56816, Note_on_c, 0, 75, 81
2, 56824, Note_on_c, 0, 75, 0
2, 56824, Note_on_c, 0, 79, 81
2, 56832, Note_on_c, 0, 79, 0
2, 56832, Note_on_c, 0, 82, 81
2, 56832, Note_on_c, 0, 70, 81
2, 56921, Note_on_c, 0, 82, 0
2, 56921, Note_on_c, 0, 70, 0
2, 57024, Note_on_c, 0, 64, 85
2, 57047, Note_on_c, 0, 64, 0
2, 57048, Note_on_c, 0, 65, 84
2, 57071, Note_on_c, 0, 65, 0
2, 57072, Note_on_c, 0, 68, 83
2, 57095, Note_on_c, 0, 68, 0
2, 57096, Note_on_c, 0, 65, 82
2, 57119, Note_on_c, 0, 65, 0
2, 57120, Note_on_c, 0, 63, 82
2, 57209, Note_on_c, 0, 63, 0
2, 57216, Note_on_c, 0, 62, 79
2, 57228, Note_on_c, 0, 62, 0
2, 57228, Note_on_c, 0, 63, 79
2, 57240, Note_on_c, 0, 63, 0
2, 57240, Note_on_c, 0, 62, 79
2, 57252, Note_on_c, 0, 62, 0
2, 57252, Note_on_c, 0, 63, 79
2, 57264, Note_on_c, 0, 63, 0
2, 57264, Note_on_c, 0, 62, 79
2, 57276, Note_on_c, 0, 62, 0
2, 57276, Note_on_c, 0, 63, 79
2, 57288, Note_on_c, 0, 63, 0
2, 57288, Note_on_c, 0, 62, 79
2, 57300, Note_on_c, 0, 62, 0
2, 57300, Note_on_c, 0, 63, 79
2, 57305, Note_on_c, 0, 63, 0
2, 57312, Note_on_c, 0, 63, 79
2, 57335, Note_on_c, 0, 63, 0
2, 57336, Note_on_c, 0, 63, 79
2, 57359, Note_on_c, 0, 63, 0
2, 57360, Note_on_c, 0, 63, 79
2, 57372, Note_on_c, 0, 63, 0
2, 57372, Note_on_c, 0, 65, 79
2, 57384, Note_on_c, 0, 65, 0
2, 57384, Note_on_c, 0, 63, 79
2, 57396, Note_on_c, 0, 63, 0
2, 57396, Note_on_c, 0, 65, 79
2, 57405, Note_on_c, 0, 65, 0
2, 57408, Note_on_c, 0, 68, 79
2, 57431, Note_on_c, 0, 68, 0
2, 57432, Note_on_c, 0, 63, 79
2, 57455, Note_on_c, 0, 63, 0
2, 57456, Note_on_c, 0, 63, 79
2, 57468, Note_on_c, 0, 63, 0
2, 57468, Note_on_c, 0, 65, 79
2, 57480, Note_on_c, 0, 65, 0
2, 57480, Note_on_c, 0, 63, 79
2, 57492, Note_on_c, 0, 63, 0
2, 57492, Note_on_c, 0, 65, 79
2, 57501, Note_on_c, 0, 65, 0
2, 57504, Note_on_c, 0, 67, 79
2, 57527, Note_on_c, 0, 67, 0
2, 57528, Note_on_c, 0, 63, 79
2, 57551, Note_on_c, 0, 63, 0
2, 57552, Note_on_c, 0, 63, 79
2, 57564, Note_on_c, 0, 63, 0
2, 57564, Note_on_c, 0, 65, 79
2, 57576, Note_on_c, 0, 65, 0
2, 57576, Note_on_c, 0, 63, 79
2, 57588, Note_on_c, 0, 63, 0
2, 57588, Note_on_c, 0, 65, 79
2, 57597, Note_on_c, 0, 65, 0
2, 57600, Note_on_c, 0, 72, 79
2, 57623, Note_on_c, 0, 72, 0
2, 57624, Note_on_c, 0, 63, 79
2, 57647, Note_on_c, 0, 63, 0
2, 57648, Note_on_c, 0, 63, 79
2, 57660, Note_on_c, 0, 63, 0
2, 57660, Note_on_c, 0, 65, 79
2, 57672, Note_on_c, 0, 65, 0
2, 57672, Note_on_c, 0, 63, 79
2, 57684, Note_on_c, 0, 63, 0
2, 57684, Note_on_c, 0, 65, 79
2, 57693, Note_on_c, 0, 65, 0
2, 57696, Note_on_c, 0, 75, 79
2, 57807, Note_on_c, 0, 75, 0
2, 57808, Note_on_c, 0, 74, 79
2, 57823, Note_on_c, 0, 74, 0
2, 57824, Note_on_c, 0, 72, 79
2, 57839, Note_on_c, 0, 72, 0
2, 57840, Note_on_c, 0, 70, 79
2, 57855, Note_on_c, 0, 70, 0
2, 57856, Note_on_c, 0, 68, 79
2, 57871, Note_on_c, 0, 68, 0
2, 57872, Note_on_c, 0, 67, 79
2, 57887, Note_on_c, 0, 67, 0
2, 57888, Note_on_c, 0, 65, 79
2, 57903, Note_on_c, 0, 65, 0
2, 57904, Note_on_c, 0, 72, 79
2, 57919, Note_on_c, 0, 72, 0
2, 57920, Note_on_c, 0, 70, 79
2, 57935, Note_on_c, 0, 70, 0
2, 57936, Note_on_c, 0, 68, 79
2, 57951, Note_on_c, 0, 68, 0
2, 57952, Note_on_c, 0, 67, 79
2, 57967, Note_on_c, 0, 67, 0
2, 57968, Note_on_c, 0, 65, 79
2, 57983, Note_on_c, 0, 65, 0
2, 57984, Note_on_c, 0, 67, 79
2, 57999, Note_on_c, 0, 67, 0
2, 58000, Note_on_c, 0, 70, 79
2, 58015, Note_on_c, 0, 70, 0
2, 58016, Note_on_c, 0, 68, 79
2, 58031, Note_on_c, 0, 68, 0
2, 58032, Note_on_c, 0, 67, 79
2, 58047, Note_on_c, 0, 67, 0
2, 58048, Note_on_c, 0, 65, 79
2, 58063, Note_on_c, 0, 65, 0
2, 58064, Note_on_c, 0, 63, 79
2, 58079, Note_on_c, 0, 63, 0
2, 58080, Note_on_c, 0, 62, 79
2, 58095, Note_on_c, 0, 62, 0
2, 58096, Note_on_c, 0, 60, 79
2, 58111, Note_on_c, 0, 60, 0
2, 58112, Note_on_c, 0, 58, 79
2, 58127, Note_on_c, 0, 58, 0
2, 58128, Note_on_c, 0, 56, 79
2, 58143, Note_on_c, 0, 56, 0
2, 58144, Note_on_c, 0, 55, 79
2, 58159, Note_on_c, 0, 55, 0
2, 58160, Note_on_c, 0, 53, 79
2, 58175, Note_on_c, 0, 53, 0
2, 58176, Note_on_c, 0, 51, 79
2, 58199, Note_on_c, 0, 51, 0
2, 58200, Note_on_c, 0, 75, 79
2, 58223, Note_on_c, 0, 75, 0
2, 58224, Note_on_c, 0, 75, 79
2, 58236, Note_on_c, 0, 75, 0
2, 58236, Note_on_c, 0, 77, 79
2, 58248, Note_on_c, 0, 77, 0
2, 58248, Note_on_c, 0, 75, 79
2, 58260, Note_on_c, 0, 75, 0
2, 58260, Note_on_c, 0, 77, 79
2, 58269, Note_on_c, 0, 77, 0
2, 58272, Note_on_c, 0, 80, 79
2, 58295, Note_on_c, 0, 80, 0
2, 58296, Note_on_c, 0, 75, 79
2, 58319, Note_on_c, 0, 75, 0
2, 58320, Note_on_c, 0, 75, 79
2, 58332, Note_on_c, 0, 75, 0
2, 58332, Note_on_c, 0, 77, 79
2, 58344, Note_on_c, 0, 77, 0
2, 58344, Note_on_c, 0, 75, 79
2, 58356, Note_on_c, 0, 75, 0
2, 58356, Note_on_c, 0, 77, 79
2, 58365, Note_on_c, 0, 77, 0
2, 58368, Note_on_c, 0, 79, 79
2, 58391, Note_on_c, 0, 79, 0
2, 58392, Note_on_c, 0, 75, 79
2, 58415, Note_on_c, 0, 75, 0
2, 58416, Note_on_c, 0, 75, 79
2, 58428, Note_on_c, 0, 75, 0
2, 58428, Note_on_c, 0, 77, 79
2, 58440, Note_on_c, 0, 77, 0
2, 58440, Note_on_c, 0, 75, 79
2, 58452, Note_on_c, 0, 75, 0
2, 58452, Note_on_c, 0, 77, 79
2, 58461, Note_on_c, 0, 77, 0
2, 58464, Note_on_c, 0, 84, 79
2, 58487, Note_on_c, 0, 84, 0
2, 58488, Note_on_c, 0, 75, 79
2, 58511, Note_on_c, 0, 75, 0
2, 58512, Note_on_c, 0, 75, 79
2, 58524, Note_on_c, 0, 75, 0
2, 58524, Note_on_c, 0, 77, 79
2, 58536, Note_on_c, 0, 77, 0
2, 58536, Note_on_c, 0, 75, 79
2, 58548, Note_on_c, 0, 75, 0
2, 58548, Note_on_c, 0, 77, 79
2, 58557, Note_on_c, 0, 77, 0
2, 58560, Note_on_c, 0, 87, 79
2, 58671, Note_on_c, 0, 87, 0
2, 58672, Note_on_c, 0, 86, 79
2, 58687, Note_on_c, 0, 86, 0
2, 58688, Note_on_c, 0, 84, 79
2, 58703, Note_on_c, 0, 84, 0
2, 58704, Note_on_c, 0, 82, 79
2, 58719, Note_on_c, 0, 82, 0
2, 58720, Note_on_c, 0, 80, 79
2, 58735, Note_on_c, 0, 80, 0
2, 58736, Note_on_c, 0, 79, 79
2, 58751, Note_on_c, 0, 79, 0
2, 58752, Note_on_c, 0, 77, 79
2, 58767, Note_on_c, 0, 77, 0
2, 58768, Note_on_c, 0, 84, 79
2, 58783, Note_on_c, 0, 84, 0
2, 58784, Note_on_c, 0, 82, 79
2, 58799, Note_on_c, 0, 82, 0
2, 58800, Note_on_c, 0, 80, 79
2, 58815, Note_on_c, 0, 80, 0
2, 58816, Note_on_c, 0, 79, 79
2, 58831, Note_on_c, 0, 79, 0
2, 58832, Note_on_c, 0, 77, 79
2, 58847, Note_on_c, 0, 77, 0
2, 58848, Note_on_c, 0, 79, 79
2, 58863, Note_on_c, 0, 79, 0
2, 58864, Note_on_c, 0, 82, 79
2, 58879, Note_on_c, 0, 82, 0
2, 58880, Note_on_c, 0, 80, 79
2, 58895, Note_on_c, 0, 80, 0
2, 58896, Note_on_c, 0, 79, 79
2, 58911, Note_on_c, 0, 79, 0
2, 58912, Note_on_c, 0, 77, 79
2, 58927, Note_on_c, 0, 77, 0
2, 58928, Note_on_c, 0, 75, 79
2, 58943, Note_on_c, 0, 75, 0
2, 58944, Note_on_c, 0, 74, 79
2, 58959, Note_on_c, 0, 74, 0
2, 58960, Note_on_c, 0, 72, 79
2, 58975, Note_on_c, 0, 72, 0
2, 58976, Note_on_c, 0, 70, 79
2, 58991, Note_on_c, 0, 70, 0
2, 58992, Note_on_c, 0, 68, 79
2, 59007, Note_on_c, 0, 68, 0
2, 59008, Note_on_c, 0, 67, 79
2, 59023, Note_on_c, 0, 67, 0
2, 59024, Note_on_c, 0, 65, 79
2, 59039, Note_on_c, 0, 65, 0
2, 59040, Note_on_c, 0, 63, 79
2, 59173, Note_on_c, 0, 63, 0
2, 59184, Note_on_c, 0, 62, 73
2, 59229, Note_on_c, 0, 62, 0
2, 59232, Note_on_c, 0, 68, 72
2, 59232, Note_on_c, 0, 65, 72
2, 59277, Note_on_c, 0, 68, 0
2, 59277, Note_on_c, 0, 65, 0
2, 59280, Note_on_c, 0, 65, 72
2, 59280, Note_on_c, 0, 62, 72
2, 59325, Note_on_c, 0, 65, 0
2, 59325, Note_on_c, 0, 62, 0
2, 59328, Note_on_c, 0, 67, 72
2, 59328, Note_on_c, 0, 63, 72
2, 59461, Note_on_c, 0, 67, 0
2, 59461, Note_on_c, 0, 63, 0
2, 59472, Note_on_c, 0, 65, 72
2, 59472, Note_on_c, 0, 62, 72
2, 59517, Note_on_c, 0, 65, 0
2, 59517, Note_on_c, 0, 62, 0
2, 59520, Note_on_c, 0, 72, 72
2, 59520, Note_on_c, 0, 68, 72
2, 59565, Note_on_c, 0, 72, 0
2, 59565, Note_on_c, 0, 68, 0
2, 59568, Note_on_c, 0, 68, 72
2, 59568, Note_on_c, 0, 65, 72
2, 59613, Note_on_c, 0, 68, 0
2, 59613, Note_on_c, 0, 65, 0
2, 59616, Note_on_c, 0, 70, 72
2, 59616, Note_on_c, 0, 67, 72
2, 59749, Note_on_c, 0, 70, 0
2, 59749, Note_on_c, 0, 67, 0
2, 59760, Note_on_c, 0, 75, 72
2, 59772, Note_on_c, 0, 75, 0
2, 59772, Note_on_c, 0, 72, 72
2, 59806, Note_on_c, 0, 72, 0
2, 59808, Note_on_c, 0, 74, 72
2, 59820, Note_on_c, 0, 74, 0
2, 59820, Note_on_c, 0, 70, 72
2, 59854, Note_on_c, 0, 70, 0
2, 59856, Note_on_c, 0, 72, 72
2, 59868, Note_on_c, 0, 72, 0
2, 59868, Note_on_c, 0, 68, 72
2, 59902, Note_on_c, 0, 68, 0
2, 59904, Note_on_c, 0, 70, 72
2, 59904, Note_on_c, 0, 67, 72
2, 60037, Note_on_c, 0, 70, 0
2, 60037, Note_on_c, 0, 67, 0
2, 60048, Note_on_c, 0, 63, 72
2, 60060, Note_on_c, 0, 63, 0
2, 60060, Note_on_c, 0, 60, 72
2, 60094, Note_on_c, 0, 60, 0
2, 60096, Note_on_c, 0, 62, 73
2, 60108, Note_on_c, 0, 62, 0
2, 60108, Note_on_c, 0, 58, 73
2, 60142, Note_on_c, 0, 58, 0
2, 60144, Note_on_c, 0, 60, 74
2, 60156, Note_on_c, 0, 60, 0
2, 60156, Note_on_c, 0, 56, 74
2, 60190, Note_on_c, 0, 56, 0
2, 60192, Note_on_c, 0, 58, 75
2, 60325, Note_on_c, 0, 58, 0
2, 60336, Note_on_c, 0, 58, 78
2, 60342, Note_on_c, 0, 58, 0
2, 60342, Note_on_c, 0, 70, 78
2, 60356, Note_on_c, 0, 70, 0
2, 60384, Note_on_c, 0, 60, 79
2, 60390, Note_on_c, 0, 60, 0
2, 60390, Note_on_c, 0, 72, 79
2, 60404, Note_on_c, 0, 72, 0
2, 60432, Note_on_c, 0, 62, 80
2, 60438, Note_on_c, 0, 62, 0
2, 60438, Note_on_c, 0, 74, 80
2, 60452, Note_on_c, 0, 74, 0
2, 60480, Note_on_c, 0, 63, 81
2, 60486, Note_on_c, 0, 63, 0
2, 60486, Note_on_c, 0, 75, 81
2, 60500, Note_on_c, 0, 75, 0
2, 60528, Note_on_c, 0, 65, 82
2, 60534, Note_on_c, 0, 65, 0
2, 60534, Note_on_c, 0, 77, 82
2, 60548, Note_on_c, 0, 77, 0
2, 60576, Note_on_c, 0, 67, 83
2, 60582, Note_on_c, 0, 67, 0
2, 60582, Note_on_c, 0, 79, 83
2, 60615, Note_on_c, 0, 79, 0
2, 60816, Note_on_c, 0, 60, 85
2, 60861, Note_on_c, 0, 60, 0
2, 60864, Note_on_c, 0, 68, 79
2, 60912, Note_on_c, 0, 68, 0
2, 60912, Note_on_c, 0, 72, 77
2, 60957, Note_on_c, 0, 72, 0
2, 60960, Note_on_c, 0, 65, 75
2, 61027, Note_on_c, 0, 65, 0
2, 61032, Note_on_c, 0, 62, 72
2, 61055, Note_on_c, 0, 62, 0
2, 61056, Note_on_c, 0, 62, 72
2, 61152, Note_on_c, 0, 62, 0
2, 61152, Note_on_c, 0, 63, 68
2, 61241, Note_on_c, 0, 63, 0
2, 61344, Note_on_c, 0, 77, 79
2, 61463, Note_on_c, 0, 77, 0
2, 61464, Note_on_c, 0, 74, 79
2, 61487, Note_on_c, 0, 74, 0
2, 61488, Note_on_c, 0, 75, 79
2, 61511, Note_on_c, 0, 75, 0
2, 61512, Note_on_c, 0, 72, 79
2, 61535, Note_on_c, 0, 72, 0
2, 61536, Note_on_c, 0, 74, 79
2, 61559, Note_on_c, 0, 74, 0
2, 61560, Note_on_c, 0, 70, 79
2, 61583, Note_on_c, 0, 70, 0
2, 61584, Note_on_c, 0, 72, 79
2, 61607, Note_on_c, 0, 72, 0
2, 61608, Note_on_c, 0, 69, 79
2, 61631, Note_on_c, 0, 69, 0
2, 61632, Note_on_c, 0, 70, 79
2, 61652, Note_on_c, 0, 70, 0
2, 61680, Note_on_c, 0, 65, 81
2, 61700, Note_on_c, 0, 65, 0
2, 61728, Note_on_c, 0, 62, 83
2, 61748, Note_on_c, 0, 62, 0
2, 61776, Note_on_c, 0, 65, 85
2, 61796, Note_on_c, 0, 65, 0
2, 61824, Note_on_c, 0, 70, 83
2, 61844, Note_on_c, 0, 70, 0
2, 61872, Note_on_c, 0, 74, 81
2, 61892, Note_on_c, 0, 74, 0
2, 61920, Note_on_c, 0, 80, 79
2, 61920, Note_on_c, 0, 77, 79
2, 62061, Note_on_c, 0, 80, 0
2, 62061, Note_on_c, 0, 77, 0
2, 62064, Note_on_c, 0, 79, 79
2, 62064, Note_on_c, 0, 75, 79
2, 62109, Note_on_c, 0, 79, 0
2, 62109, Note_on_c, 0, 75, 0
2, 62112, Note_on_c, 0, 77, 79
2, 62112, Note_on_c, 0, 74, 79
2, 62157, Note_on_c, 0, 77, 0
2, 62157, Note_on_c, 0, 74, 0
2, 62160, Note_on_c, 0, 75, 79
2, 62160, Note_on_c, 0, 72, 79
2, 62205, Note_on_c, 0, 75, 0
2, 62205, Note_on_c, 0, 72, 0
2, 62208, Note_on_c, 0, 74, 79
2, 62208, Note_on_c, 0, 70, 79
2, 62253, Note_on_c, 0, 74, 0
2, 62253, Note_on_c, 0, 70, 0
2, 62256, Note_on_c, 0, 72, 79
2, 62268, Note_on_c, 0, 72, 0
2, 62268, Note_on_c, 0, 75, 78
2, 62302, Note_on_c, 0, 75, 0
2, 62304, Note_on_c, 0, 74, 77
2, 62316, Note_on_c, 0, 74, 0
2, 62316, Note_on_c, 0, 77, 77
2, 62350, Note_on_c, 0, 77, 0
2, 62352, Note_on_c, 0, 75, 76
2, 62364, Note_on_c, 0, 75, 0
2, 62364, Note_on_c, 0, 79, 75
2, 62398, Note_on_c, 0, 79, 0
2, 62400, Note_on_c, 0, 77, 74
2, 62412, Note_on_c, 0, 77, 0
2, 62412, Note_on_c, 0, 80, 74
2, 62446, Note_on_c, 0, 80, 0
2, 62448, Note_on_c, 0, 79, 73
2, 62460, Note_on_c, 0, 79, 0
2, 62460, Note_on_c, 0, 82, 73
2, 62494, Note_on_c, 0, 82, 0
2, 62496, Note_on_c, 0, 80, 72
2, 62514, Note_on_c, 0, 80, 0
2, 62514, Note_on_c, 0, 84, 72
2, 62637, Note_on_c, 0, 84, 0
2, 62640, Note_on_c, 0, 82, 68
2, 62729, Note_on_c, 0, 82, 0
2, 62736, Note_on_c, 0, 80, 66
2, 62781, Note_on_c, 0, 80, 0
2, 62784, Note_on_c, 0, 79, 65
2, 62903, Note_on_c, 0, 79, 0
2, 62904, Note_on_c, 0, 75, 65
2, 62927, Note_on_c, 0, 75, 0
2, 62928, Note_on_c, 0, 77, 65
2, 62951, Note_on_c, 0, 77, 0
2, 62952, Note_on_c, 0, 74, 65
2, 62975, Note_on_c, 0, 74, 0
2, 62976, Note_on_c, 0, 75, 65
2, 62999, Note_on_c, 0, 75, 0
2, 63000, Note_on_c, 0, 72, 65
2, 63023, Note_on_c, 0, 72, 0
2, 63024, Note_on_c, 0, 74, 65
2, 63047, Note_on_c, 0, 74, 0
2, 63048, Note_on_c, 0, 71, 65
2, 63071, Note_on_c, 0, 71, 0
2, 63072, Note_on_c, 0, 72, 79
2, 63092, Note_on_c, 0, 72, 0
2, 63120, Note_on_c, 0, 67, 81
2, 63140, Note_on_c, 0, 67, 0
2, 63168, Note_on_c, 0, 63, 83
2, 63188, Note_on_c, 0, 63, 0
2, 63216, Note_on_c, 0, 67, 85
2, 63236, Note_on_c, 0, 67, 0
2, 63264, Note_on_c, 0, 72, 83
2, 63284, Note_on_c, 0, 72, 0
2, 63312, Note_on_c, 0, 75, 81
2, 63332, Note_on_c, 0, 75, 0
2, 63360, Note_on_c, 0, 79, 79
2, 63479, Note_on_c, 0, 79, 0
2, 63480, Note_on_c, 0, 75, 79
2, 63503, Note_on_c, 0, 75, 0
2, 63504, Note_on_c, 0, 77, 79
2, 63527, Note_on_c, 0, 77, 0
2, 63528, Note_on_c, 0, 74, 79
2, 63551, Note_on_c, 0, 74, 0
2, 63552, Note_on_c, 0, 75, 79
2, 63575, Note_on_c, 0, 75, 0
2, 63576, Note_on_c, 0, 72, 79
2, 63599, Note_on_c, 0, 72, 0
2, 63600, Note_on_c, 0, 74, 79
2, 63623, Note_on_c, 0, 74, 0
2, 63624, Note_on_c, 0, 71, 79
2, 63647, Note_on_c, 0, 71, 0
2, 63648, Note_on_c, 0, 72, 79
2, 63693, Note_on_c, 0, 72, 0
2, 63696, Note_on_c, 0, 75, 79
2, 63696, Note_on_c, 0, 67, 79
2, 63716, Note_on_c, 0, 75, 0
2, 63716, Note_on_c, 0, 67, 0
2, 63744, Note_on_c, 0, 75, 79
2, 63744, Note_on_c, 0, 67, 79
2, 63764, Note_on_c, 0, 75, 0
2, 63764, Note_on_c, 0, 67, 0
2, 63792, Note_on_c, 0, 75, 79
2, 63792, Note_on_c, 0, 67, 79
2, 63812, Note_on_c, 0, 75, 0
2, 63812, Note_on_c, 0, 67, 0
2, 63840, Note_on_c, 0, 75, 79
2, 63840, Note_on_c, 0, 67, 79
2, 63860, Note_on_c, 0, 75, 0
2, 63860, Note_on_c, 0, 67, 0
2, 63888, Note_on_c, 0, 75, 79
2, 63888, Note_on_c, 0, 67, 79
2, 63908, Note_on_c, 0, 75, 0
2, 63908, Note_on_c, 0, 67, 0
2, 63936, Note_on_c, 0, 75, 95
2, 64128, Note_on_c, 0, 75, 0
2, 64128, Note_on_c, 0, 74, 79
2, 64217, Note_on_c, 0, 74, 0
2, 64272, Note_on_c, 0, 86, 79
2, 64292, Note_on_c, 0, 86, 0
2, 64320, Note_on_c, 0, 86, 79
2, 64340, Note_on_c, 0, 86, 0
2, 64368, Note_on_c, 0, 86, 79
2, 64388, Note_on_c, 0, 86, 0
2, 64416, Note_on_c, 0, 86, 79
2, 64436, Note_on_c, 0, 86, 0
2, 64464, Note_on_c, 0, 86, 79
2, 64484, Note_on_c, 0, 86, 0
2, 64512, Note_on_c, 0, 86, 95
2, 64704, Note_on_c, 0, 86, 0
2, 64704, Note_on_c, 0, 84, 79
2, 64793, Note_on_c, 0, 84, 0
2, 64800, Note_on_c, 0, 84, 95
2, 64992, Note_on_c, 0, 84, 0
2, 64992, Note_on_c, 0, 82, 79
2, 65081, Note_on_c, 0, 82, 0
2, 65088, Note_on_c, 0, 82, 95
2, 65280, Note_on_c, 0, 82, 0
2, 65280, Note_on_c, 0, 80, 79
2, 65369, Note_on_c, 0, 80, 0
2, 65376, Note_on_c, 0, 80, 95
2, 65568, Note_on_c, 0, 80, 0
2, 65568, Note_on_c, 0, 79, 79
2, 65657, Note_on_c, 0, 79, 0
2, 65664, Note_on_c, 0, 79, 95
2, 65856, Note_on_c, 0, 79, 0
2, 65856, Note_on_c, 0, 78, 79
2, 65945, Note_on_c, 0, 78, 0
2, 65952, Note_on_c, 0, 79, 95
2, 66093, Note_on_c, 0, 79, 0
2, 66096, Note_on_c, 0, 67, 79
2, 66119, Note_on_c, 0, 67, 0
2, 66120, Note_on_c, 0, 79, 79
2, 66143, Note_on_c, 0, 79, 0
2, 66144, Note_on_c, 0, 67, 79
2, 66167, Note_on_c, 0, 67, 0
2, 66168, Note_on_c, 0, 79, 79
2, 66191, Note_on_c, 0, 79, 0
2, 66192, Note_on_c, 0, 67, 79
2, 66215, Note_on_c, 0, 67, 0
2, 66216, Note_on_c, 0, 79, 79
2, 66239, Note_on_c, 0, 79, 0
2, 66240, Note_on_c, 0, 78, 79
2, 66505, Note_on_c, 0, 78, 0
2, 66528, Note_on_c, 0, 79, 79
2, 66691, Note_on_c, 0, 79, 0
2, 66768, Note_on_c, 0, 80, 79
2, 66792, Note_on_c, 0, 80, 0
2, 66792, Note_on_c, 0, 79, 79
2, 66815, Note_on_c, 0, 79, 0
2, 66864, Note_on_c, 0, 79, 77
2, 66888, Note_on_c, 0, 79, 0
2, 66888, Note_on_c, 0, 77, 77
2, 66911, Note_on_c, 0, 77, 0
2, 66960, Note_on_c, 0, 77, 75
2, 66984, Note_on_c, 0, 77, 0
2, 66984, Note_on_c, 0, 75, 74
2, 67007, Note_on_c, 0, 75, 0
2, 67056, Note_on_c, 0, 75, 73
2, 67080, Note_on_c, 0, 75, 0
2, 67080, Note_on_c, 0, 74, 72
2, 67103, Note_on_c, 0, 74, 0
2, 67344, Note_on_c, 0, 77, 72
2, 67368, Note_on_c, 0, 77, 0
2, 67368, Note_on_c, 0, 75, 72
2, 67391, Note_on_c, 0, 75, 0
2, 67632, Note_on_c, 0, 79, 72
2, 67656, Note_on_c, 0, 79, 0
2, 67656, Note_on_c, 0, 77, 72
2, 67679, Note_on_c, 0, 77, 0
2, 67680, Note_on_c, 0, 77, 72
2, 67857, Note_on_c, 0, 77, 0
2, 67872, Note_on_c, 0, 65, 72
2, 67884, Note_on_c, 0, 65, 0
2, 67884, Note_on_c, 0, 68, 72
2, 67896, Note_on_c, 0, 68, 0
2, 67896, Note_on_c, 0, 71, 72
2, 67908, Note_on_c, 0, 71, 0
2, 67908, Note_on_c, 0, 74, 72
2, 67920, Note_on_c, 0, 74, 0
2, 67920, Note_on_c, 0, 77, 72
2, 67935, Note_on_c, 0, 77, 0
2, 67936, Note_on_c, 0, 80, 72
2, 67951, Note_on_c, 0, 80, 0
2, 67952, Note_on_c, 0, 83, 72
2, 67967, Note_on_c, 0, 83, 0
2, 67968, Note_on_c, 0, 84, 88
2, 68087, Note_on_c, 0, 84, 0
2, 68088, Note_on_c, 0, 82, 72
2, 68111, Note_on_c, 0, 82, 0
2, 68112, Note_on_c, 0, 80, 72
2, 68135, Note_on_c, 0, 80, 0
2, 68136, Note_on_c, 0, 79, 72
2, 68159, Note_on_c, 0, 79, 0
2, 68160, Note_on_c, 0, 77, 72
2, 68183, Note_on_c, 0, 77, 0
2, 68184, Note_on_c, 0, 75, 72
2, 68207, Note_on_c, 0, 75, 0
2, 68208, Note_on_c, 0, 74, 72
2, 68231, Note_on_c, 0, 74, 0
2, 68232, Note_on_c, 0, 72, 72
2, 68255, Note_on_c, 0, 72, 0
2, 68256, Note_on_c, 0, 75, 72
2, 68280, Note_on_c, 0, 75, 0
2, 68280, Note_on_c, 0, 74, 72
2, 68303, Note_on_c, 0, 74, 0
2, 68304, Note_on_c, 0, 77, 72
2, 68328, Note_on_c, 0, 77, 0
2, 68328, Note_on_c, 0, 74, 72
2, 68351, Note_on_c, 0, 74, 0
2, 68352, Note_on_c, 0, 72, 72
2, 68441, Note_on_c, 0, 72, 0
2, 68448, Note_on_c, 0, 71, 72
2, 68537, Note_on_c, 0, 71, 0
2, 68544, Note_on_c, 0, 80, 85
2, 68567, Note_on_c, 0, 80, 0
2, 68568, Note_on_c, 0, 73, 85
2, 68591, Note_on_c, 0, 73, 0
2, 68592, Note_on_c, 0, 73, 85
2, 68604, Note_on_c, 0, 73, 0
2, 68604, Note_on_c, 0, 75, 85
2, 68616, Note_on_c, 0, 75, 0
2, 68616, Note_on_c, 0, 73, 85
2, 68628, Note_on_c, 0, 73, 0
2, 68628, Note_on_c, 0, 75, 85
2, 68637, Note_on_c, 0, 75, 0
2, 68640, Note_on_c, 0, 77, 85
2, 68663, Note_on_c, 0, 77, 0
2, 68664, Note_on_c, 0, 68, 85
2, 68687, Note_on_c, 0, 68, 0
2, 68688, Note_on_c, 0, 68, 85
2, 68700, Note_on_c, 0, 68, 0
2, 68700, Note_on_c, 0, 70, 85
2, 68712, Note_on_c, 0, 70, 0
2, 68712, Note_on_c, 0, 68, 85
2, 68724, Note_on_c, 0, 68, 0
2, 68724, Note_on_c, 0, 70, 85
2, 68733, Note_on_c, 0, 70, 0
2, 68736, Note_on_c, 0, 73, 85
2, 68759, Note_on_c, 0, 73, 0
2, 68760, Note_on_c, 0, 65, 85
2, 68783, Note_on_c, 0, 65, 0
2, 68784, Note_on_c, 0, 65, 85
2, 68796, Note_on_c, 0, 65, 0
2, 68796, Note_on_c, 0, 67, 85
2, 68808, Note_on_c, 0, 67, 0
2, 68808, Note_on_c, 0, 65, 85
2, 68820, Note_on_c, 0, 65, 0
2, 68820, Note_on_c, 0, 67, 85
2, 68829, Note_on_c, 0, 67, 0
2, 68832, Note_on_c, 0, 68, 85
2, 68855, Note_on_c, 0, 68, 0
2, 68856, Note_on_c, 0, 61, 85
2, 68879, Note_on_c, 0, 61, 0
2, 68880, Note_on_c, 0, 61, 85
2, 68892, Note_on_c, 0, 61, 0
2, 68892, Note_on_c, 0, 63, 85
2, 68904, Note_on_c, 0, 63, 0
2, 68904, Note_on_c, 0, 61, 85
2, 68916, Note_on_c, 0, 61, 0
2, 68916, Note_on_c, 0, 63, 85
2, 68925, Note_on_c, 0, 63, 0
2, 68928, Note_on_c, 0, 65, 85
2, 68951, Note_on_c, 0, 65, 0
2, 68952, Note_on_c, 0, 56, 85
2, 68975, Note_on_c, 0, 56, 0
2, 68976, Note_on_c, 0, 56, 85
2, 68988, Note_on_c, 0, 56, 0
2, 68988, Note_on_c, 0, 58, 85
2, 69000, Note_on_c, 0, 58, 0
2, 69000, Note_on_c, 0, 56, 85
2, 69012, Note_on_c, 0, 56, 0
2, 69012, Note_on_c, 0, 58, 85
2, 69021, Note_on_c, 0, 58, 0
2, 69024, Note_on_c, 0, 61, 85
2, 69069, Note_on_c, 0, 61, 0
2, 69072, Note_on_c, 0, 60, 85
2, 69117, Note_on_c, 0, 60, 0
2, 69120, Note_on_c, 0, 59, 85
2, 69135, Note_on_c, 0, 59, 0
2, 69136, Note_on_c, 0, 57, 85
2, 69151, Note_on_c, 0, 57, 0
2, 69152, Note_on_c, 0, 55, 85
2, 69167, Note_on_c, 0, 55, 0
2, 69168, Note_on_c, 0, 62, 85
2, 69183, Note_on_c, 0, 62, 0
2, 69184, Note_on_c, 0, 60, 85
2, 69199, Note_on_c, 0, 60, 0
2, 69200, Note_on_c, 0, 59, 85
2, 69215, Note_on_c, 0, 59, 0
2, 69216, Note_on_c, 0, 65, 85
2, 69231, Note_on_c, 0, 65, 0
2, 69232, Note_on_c, 0, 63, 85
2, 69247, Note_on_c, 0, 63, 0
2, 69248, Note_on_c, 0, 62, 85
2, 69263, Note_on_c, 0, 62, 0
2, 69264, Note_on_c, 0, 68, 85
2, 69279, Note_on_c, 0, 68, 0
2, 69280, Note_on_c, 0, 67, 85
2, 69295, Note_on_c, 0, 67, 0
2, 69296, Note_on_c, 0, 65, 85
2, 69311, Note_on_c, 0, 65, 0
2, 69312, Note_on_c, 0, 74, 85
2, 69327, Note_on_c, 0, 74, 0
2, 69328, Note_on_c, 0, 72, 85
2, 69343, Note_on_c, 0, 72, 0
2, 69344, Note_on_c, 0, 71, 85
2, 69359, Note_on_c, 0, 71, 0
2, 69360, Note_on_c, 0, 68, 85
2, 69375, Note_on_c, 0, 68, 0
2, 69376, Note_on_c, 0, 67, 85
2, 69391, Note_on_c, 0, 67, 0
2, 69392, Note_on_c, 0, 65, 85
2, 69407, Note_on_c, 0, 65, 0
2, 69408, Note_on_c, 0, 63, 85
2, 69423, Note_on_c, 0, 63, 0
2, 69424, Note_on_c, 0, 67, 85
2, 69439, Note_on_c, 0, 67, 0
2, 69440, Note_on_c, 0, 65, 86
2, 69455, Note_on_c, 0, 65, 0
2, 69456, Note_on_c, 0, 63, 87
2, 69471, Note_on_c, 0, 63, 0
2, 69472, Note_on_c, 0, 62, 87
2, 69487, Note_on_c, 0, 62, 0
2, 69488, Note_on_c, 0, 60, 88
2, 69503, Note_on_c, 0, 60, 0
2, 69504, Note_on_c, 0, 68, 89
2, 69519, Note_on_c, 0, 68, 0
2, 69520, Note_on_c, 0, 72, 89
2, 69535, Note_on_c, 0, 72, 0
2, 69536, Note_on_c, 0, 70, 90
2, 69551, Note_on_c, 0, 70, 0
2, 69552, Note_on_c, 0, 68, 91
2, 69567, Note_on_c, 0, 68, 0
2, 69568, Note_on_c, 0, 67, 91
2, 69583, Note_on_c, 0, 67, 0
2, 69584, Note_on_c, 0, 65, 92
2, 69599, Note_on_c, 0, 65, 0
2, 69600, Note_on_c, 0, 63, 93
2, 69615, Note_on_c, 0, 63, 0
2, 69616, Note_on_c, 0, 62, 92
2, 69631, Note_on_c, 0, 62, 0
2, 69632, Note_on_c, 0, 60, 91
2, 69647, Note_on_c, 0, 60, 0
2, 69648, Note_on_c, 0, 59, 91
2, 69663, Note_on_c, 0, 59, 0
2, 69664, Note_on_c, 0, 60, 90
2, 69679, Note_on_c, 0, 60, 0
2, 69680, Note_on_c, 0, 62, 89
2, 69695, Note_on_c, 0, 62, 0
2, 69696, Note_on_c, 0, 63, 85
2, 69711, Note_on_c, 0, 63, 0
2, 69712, Note_on_c, 0, 67, 85
2, 69727, Note_on_c, 0, 67, 0
2, 69728, Note_on_c, 0, 65, 86
2, 69743, Note_on_c, 0, 65, 0
2, 69744, Note_on_c, 0, 63, 87
2, 69759, Note_on_c, 0, 63, 0
2, 69760, Note_on_c, 0, 62, 87
2, 69775, Note_on_c, 0, 62, 0
2, 69776, Note_on_c, 0, 60, 88
2, 69791, Note_on_c, 0, 60, 0
2, 69792, Note_on_c, 0, 68, 89
2, 69807, Note_on_c, 0, 68, 0
2, 69808, Note_on_c, 0, 72, 89
2, 69823, Note_on_c, 0, 72, 0
2, 69824, Note_on_c, 0, 70, 90
2, 69839, Note_on_c, 0, 70, 0
2, 69840, Note_on_c, 0, 68, 91
2, 69855, Note_on_c, 0, 68, 0
2, 69856, Note_on_c, 0, 67, 91
2, 69871, Note_on_c, 0, 67, 0
2, 69872, Note_on_c, 0, 65, 92
2, 69887, Note_on_c, 0, 65, 0
2, 69888, Note_on_c, 0, 63, 93
2, 69903, Note_on_c, 0, 63, 0
2, 69904, Note_on_c, 0, 62, 92
2, 69919, Note_on_c, 0, 62, 0
2, 69920, Note_on_c, 0, 60, 91
2, 69935, Note_on_c, 0, 60, 0
2, 69936, Note_on_c, 0, 59, 91
2, 69951, Note_on_c, 0, 59, 0
2, 69952, Note_on_c, 0, 60, 90
2, 69967, Note_on_c, 0, 60, 0
2, 69968, Note_on_c, 0, 62, 89
2, 69983, Note_on_c, 0, 62, 0
2, 69984, Note_on_c, 0, 60, 85
2, 70117, Note_on_c, 0, 60, 0
2, 70128, Note_on_c, 0, 59, 75
2, 70173, Note_on_c, 0, 59, 0
2, 70176, Note_on_c, 0, 65, 72
2, 70176, Note_on_c, 0, 62, 72
2, 70221, Note_on_c, 0, 65, 0
2, 70221, Note_on_c, 0, 62, 0
2, 70224, Note_on_c, 0, 62, 72
2, 70224, Note_on_c, 0, 59, 72
2, 70269, Note_on_c, 0, 62, 0
2, 70269, Note_on_c, 0, 59, 0
2, 70272, Note_on_c, 0, 63, 72
2, 70272, Note_on_c, 0, 60, 72
2, 70405, Note_on_c, 0, 63, 0
2, 70405, Note_on_c, 0, 60, 0
2, 70416, Note_on_c, 0, 62, 72
2, 70416, Note_on_c, 0, 59, 72
2, 70461, Note_on_c, 0, 62, 0
2, 70461, Note_on_c, 0, 59, 0
2, 70464, Note_on_c, 0, 68, 72
2, 70464, Note_on_c, 0, 65, 72
2, 70509, Note_on_c, 0, 68, 0
2, 70509, Note_on_c, 0, 65, 0
2, 70512, Note_on_c, 0, 65, 72
2, 70512, Note_on_c, 0, 62, 72
2, 70557, Note_on_c, 0, 65, 0
2, 70557, Note_on_c, 0, 62, 0
2, 70560, Note_on_c, 0, 67, 72
2, 70560, Note_on_c, 0, 63, 72
2, 70693, Note_on_c, 0, 67, 0
2, 70693, Note_on_c, 0, 63, 0
2, 70704, Note_on_c, 0, 72, 72
2, 70716, Note_on_c, 0, 72, 0
2, 70716, Note_on_c, 0, 68, 72
2, 70750, Note_on_c, 0, 68, 0
2, 70752, Note_on_c, 0, 70, 72
2, 70764, Note_on_c, 0, 70, 0
2, 70764, Note_on_c, 0, 67, 72
2, 70798, Note_on_c, 0, 67, 0
2, 70800, Note_on_c, 0, 68, 72
2, 70812, Note_on_c, 0, 68, 0
2, 70812, Note_on_c, 0, 65, 73
2, 70846, Note_on_c, 0, 65, 0
2, 70848, Note_on_c, 0, 67, 73
2, 70848, Note_on_c, 0, 63, 73
2, 70981, Note_on_c, 0, 67, 0
2, 70981, Note_on_c, 0, 63, 0
2, 70992, Note_on_c, 0, 72, 74
2, 71004, Note_on_c, 0, 72, 0
2, 71004, Note_on_c, 0, 68, 75
2, 71038, Note_on_c, 0, 68, 0
2, 71040, Note_on_c, 0, 70, 75
2, 71052, Note_on_c, 0, 70, 0
2, 71052, Note_on_c, 0, 67, 75
2, 71086, Note_on_c, 0, 67, 0
2, 71088, Note_on_c, 0, 68, 75
2, 71100, Note_on_c, 0, 68, 0
2, 71100, Note_on_c, 0, 65, 75
2, 71134, Note_on_c, 0, 65, 0
2, 71136, Note_on_c, 0, 67, 76
2, 71136, Note_on_c, 0, 64, 76
2, 71269, Note_on_c, 0, 67, 0
2, 71269, Note_on_c, 0, 64, 0
2, 71280, Note_on_c, 0, 73, 77
2, 71292, Note_on_c, 0, 73, 0
2, 71292, Note_on_c, 0, 70, 77
2, 71326, Note_on_c, 0, 70, 0
2, 71328, Note_on_c, 0, 72, 78
2, 71340, Note_on_c, 0, 72, 0
2, 71340, Note_on_c, 0, 68, 78
2, 71374, Note_on_c, 0, 68, 0
2, 71376, Note_on_c, 0, 70, 78
2, 71388, Note_on_c, 0, 70, 0
2, 71388, Note_on_c, 0, 67, 78
2, 71422, Note_on_c, 0, 67, 0
2, 71424, Note_on_c, 0, 68, 79
2, 71436, Note_on_c, 0, 68, 0
2, 71436, Note_on_c, 0, 65, 79
2, 71470, Note_on_c, 0, 65, 0
2, 71472, Note_on_c, 0, 67, 79
2, 71484, Note_on_c, 0, 67, 0
2, 71484, Note_on_c, 0, 63, 79
2, 71518, Note_on_c, 0, 63, 0
2, 71520, Note_on_c, 0, 65, 80
2, 71532, Note_on_c, 0, 65, 0
2, 71532, Note_on_c, 0, 62, 80
2, 71566, Note_on_c, 0, 62, 0
2, 71568, Note_on_c, 0, 63, 80
2, 71580, Note_on_c, 0, 63, 0
2, 71580, Note_on_c, 0, 60, 80
2, 71614, Note_on_c, 0, 60, 0
2, 71616, Note_on_c, 0, 62, 81
2, 71628, Note_on_c, 0, 62, 0
2, 71628, Note_on_c, 0, 58, 81
2, 71662, Note_on_c, 0, 58, 0
2, 71664, Note_on_c, 0, 60, 81
2, 71676, Note_on_c, 0, 60, 0
2, 71676, Note_on_c, 0, 57, 81
2, 71710, Note_on_c, 0, 57, 0
2, 71712, Note_on_c, 0, 58, 82
2, 71757, Note_on_c, 0, 58, 0
2, 71760, Note_on_c, 0, 56, 82
2, 71772, Note_on_c, 0, 56, 0
2, 71772, Note_on_c, 0, 68, 82
2, 71805, Note_on_c, 0, 68, 0
2, 71808, Note_on_c, 0, 58, 83
2, 71820, Note_on_c, 0, 58, 0
2, 71820, Note_on_c, 0, 70, 83
2, 71853, Note_on_c, 0, 70, 0
2, 71856, Note_on_c, 0, 62, 83
2, 71868, Note_on_c, 0, 62, 0
2, 71868, Note_on_c, 0, 74, 83
2, 71901, Note_on_c, 0, 74, 0
2, 71904, Note_on_c, 0, 65, 84
2, 71916, Note_on_c, 0, 65, 0
2, 71916, Note_on_c, 0, 77, 84
2, 71949, Note_on_c, 0, 77, 0
2, 71952, Note_on_c, 0, 67, 84
2, 71964, Note_on_c, 0, 67, 0
2, 71964, Note_on_c, 0, 79, 84
2, 71997, Note_on_c, 0, 79, 0
2, 72000, Note_on_c, 0, 68, 85
2, 72018, Note_on_c, 0, 68, 0
2, 72018, Note_on_c, 0, 80, 85
2, 72311, Note_on_c, 0, 80, 0
2, 72312, Note_on_c, 0, 79, 85
2, 72335, Note_on_c, 0, 79, 0
2, 72336, Note_on_c, 0, 82, 85
2, 72359, Note_on_c, 0, 82, 0
2, 72360, Note_on_c, 0, 80, 85
2, 72383, Note_on_c, 0, 80, 0
2, 72384, Note_on_c, 0, 84, 85
2, 72407, Note_on_c, 0, 84, 0
2, 72408, Note_on_c, 0, 82, 84
2, 72431, Note_on_c, 0, 82, 0
2, 72432, Note_on_c, 0, 80, 83
2, 72455, Note_on_c, 0, 80, 0
2, 72456, Note_on_c, 0, 79, 82
2, 72479, Note_on_c, 0, 79, 0
2, 72480, Note_on_c, 0, 77, 82
2, 72503, Note_on_c, 0, 77, 0
2, 72504, Note_on_c, 0, 75, 81
2, 72527, Note_on_c, 0, 75, 0
2, 72528, Note_on_c, 0, 74, 80
2, 72551, Note_on_c, 0, 74, 0
2, 72552, Note_on_c, 0, 72, 79
2, 72575, Note_on_c, 0, 72, 0
2, 72576, Note_on_c, 0, 70, 79
2, 72695, Note_on_c, 0, 70, 0
2, 72696, Note_on_c, 0, 67, 79
2, 72719, Note_on_c, 0, 67, 0
2, 72720, Note_on_c, 0, 68, 79
2, 72743, Note_on_c, 0, 68, 0
2, 72744, Note_on_c, 0, 65, 79
2, 72767, Note_on_c, 0, 65, 0
2, 72768, Note_on_c, 0, 67, 79
2, 72791, Note_on_c, 0, 67, 0
2, 72792, Note_on_c, 0, 63, 79
2, 72815, Note_on_c, 0, 63, 0
2, 72816, Note_on_c, 0, 65, 79
2, 72839, Note_on_c, 0, 65, 0
2, 72840, Note_on_c, 0, 62, 79
2, 72863, Note_on_c, 0, 62, 0
2, 72864, Note_on_c, 0, 63, 79
2, 72884, Note_on_c, 0, 63, 0
2, 72912, Note_on_c, 0, 58, 81
2, 72932, Note_on_c, 0, 58, 0
2, 72960, Note_on_c, 0, 55, 83
2, 72980, Note_on_c, 0, 55, 0
2, 73008, Note_on_c, 0, 58, 85
2, 73028, Note_on_c, 0, 58, 0
2, 73056, Note_on_c, 0, 63, 83
2, 73076, Note_on_c, 0, 63, 0
2, 73104, Note_on_c, 0, 67, 81
2, 73124, Note_on_c, 0, 67, 0
2, 73152, Note_on_c, 0, 70, 79
2, 73271, Note_on_c, 0, 70, 0
2, 73272, Note_on_c, 0, 67, 79
2, 73295, Note_on_c, 0, 67, 0
2, 73296, Note_on_c, 0, 68, 79
2, 73319, Note_on_c, 0, 68, 0
2, 73320, Note_on_c, 0, 65, 79
2, 73343, Note_on_c, 0, 65, 0
2, 73344, Note_on_c, 0, 67, 79
2, 73367, Note_on_c, 0, 67, 0
2, 73368, Note_on_c, 0, 63, 79
2, 73391, Note_on_c, 0, 63, 0
2, 73392, Note_on_c, 0, 65, 79
2, 73415, Note_on_c, 0, 65, 0
2, 73416, Note_on_c, 0, 62, 79
2, 73439, Note_on_c, 0, 62, 0
2, 73440, Note_on_c, 0, 63, 79
2, 73485, Note_on_c, 0, 63, 0
2, 73488, Note_on_c, 0, 67, 79
2, 73512, Note_on_c, 0, 67, 0
2, 73512, Note_on_c, 0, 75, 79
2, 73535, Note_on_c, 0, 75, 0
2, 73536, Note_on_c, 0, 67, 79
2, 73560, Note_on_c, 0, 67, 0
2, 73560, Note_on_c, 0, 75, 79
2, 73583, Note_on_c, 0, 75, 0
2, 73584, Note_on_c, 0, 67, 79
2, 73608, Note_on_c, 0, 67, 0
2, 73608, Note_on_c, 0, 75, 79
2, 73631, Note_on_c, 0, 75, 0
2, 73632, Note_on_c, 0, 67, 79
2, 73656, Note_on_c, 0, 67, 0
2, 73656, Note_on_c, 0, 75, 79
2, 73679, Note_on_c, 0, 75, 0
2, 73680, Note_on_c, 0, 67, 79
2, 73704, Note_on_c, 0, 67, 0
2, 73704, Note_on_c, 0, 75, 79
2, 73727, Note_on_c, 0, 75, 0
2, 73728, Note_on_c, 0, 75, 95
2, 73920, Note_on_c, 0, 75, 0
2, 73920, Note_on_c, 0, 74, 79
2, 74009, Note_on_c, 0, 74, 0
2, 74064, Note_on_c, 0, 73, 79
2, 74088, Note_on_c, 0, 73, 0
2, 74088, Note_on_c, 0, 82, 79
2, 74111, Note_on_c, 0, 82, 0
2, 74112, Note_on_c, 0, 73, 79
2, 74136, Note_on_c, 0, 73, 0
2, 74136, Note_on_c, 0, 82, 79
2, 74159, Note_on_c, 0, 82, 0
2, 74160, Note_on_c, 0, 73, 79
2, 74184, Note_on_c, 0, 73, 0
2, 74184, Note_on_c, 0, 82, 79
2, 74207, Note_on_c, 0, 82, 0
2, 74208, Note_on_c, 0, 73, 79
2, 74232, Note_on_c, 0, 73, 0
2, 74232, Note_on_c, 0, 82, 79
2, 74255, Note_on_c, 0, 82, 0
2, 74256, Note_on_c, 0, 73, 79
2, 74280, Note_on_c, 0, 73, 0
2, 74280, Note_on_c, 0, 82, 79
2, 74303, Note_on_c, 0, 82, 0
2, 74304, Note_on_c, 0, 82, 79
2, 74304, Note_on_c, 0, 73, 79
2, 74393, Note_on_c, 0, 82, 0
2, 74393, Note_on_c, 0, 73, 0
2, 74400, Note_on_c, 0, 80, 79
2, 74400, Note_on_c, 0, 72, 79
2, 74445, Note_on_c, 0, 80, 0
2, 74445, Note_on_c, 0, 72, 0
2, 74448, Note_on_c, 0, 79, 79
2, 74448, Note_on_c, 0, 70, 79
2, 74493, Note_on_c, 0, 79, 0
2, 74493, Note_on_c, 0, 70, 0
2, 74496, Note_on_c, 0, 77, 79
2, 74496, Note_on_c, 0, 68, 79
2, 74541, Note_on_c, 0, 77, 0
2, 74541, Note_on_c, 0, 68, 0
2, 74544, Note_on_c, 0, 74, 79
2, 74544, Note_on_c, 0, 65, 79
2, 74589, Note_on_c, 0, 74, 0
2, 74589, Note_on_c, 0, 65, 0
2, 74592, Note_on_c, 0, 75, 79
2, 74592, Note_on_c, 0, 67, 79
2, 74681, Note_on_c, 0, 75, 0
2, 74681, Note_on_c, 0, 67, 0
2, 74928, Note_on_c, 0, 70, 79
2, 74928, Note_on_c, 0, 68, 79
2, 74948, Note_on_c, 0, 70, 0
2, 74948, Note_on_c, 0, 68, 0
2, 74976, Note_on_c, 0, 70, 79
2, 74976, Note_on_c, 0, 68, 79
2, 74996, Note_on_c, 0, 70, 0
2, 74996, Note_on_c, 0, 68, 0
2, 75024, Note_on_c, 0, 70, 79
2, 75024, Note_on_c, 0, 68, 79
2, 75044, Note_on_c, 0, 70, 0
2, 75044, Note_on_c, 0, 68, 0
2, 75072, Note_on_c, 0, 70, 79
2, 75072, Note_on_c, 0, 68, 79
2, 75092, Note_on_c, 0, 70, 0
2, 75092, Note_on_c, 0, 68, 0
2, 75120, Note_on_c, 0, 70, 79
2, 75120, Note_on_c, 0, 68, 79
2, 75140, Note_on_c, 0, 70, 0
2, 75140, Note_on_c, 0, 68, 0
2, 75168, Note_on_c, 0, 70, 79
2, 75433, Note_on_c, 0, 70, 0
2, 77472, Note_on_c, 0, 70, 79
2, 77591, Note_on_c, 0, 70, 0
2, 77592, Note_on_c, 0, 74, 79
2, 77615, Note_on_c, 0, 74, 0
2, 77616, Note_on_c, 0, 75, 79
2, 77639, Note_on_c, 0, 75, 0
2, 77640, Note_on_c, 0, 72, 79
2, 77663, Note_on_c, 0, 72, 0
2, 77664, Note_on_c, 0, 70, 79
2, 77687, Note_on_c, 0, 70, 0
2, 77688, Note_on_c, 0, 68, 79
2, 77711, Note_on_c, 0, 68, 0
2, 77712, Note_on_c, 0, 67, 79
2, 77735, Note_on_c, 0, 67, 0
2, 77736, Note_on_c, 0, 65, 79
2, 77759, Note_on_c, 0, 65, 0
2, 77760, Note_on_c, 0, 63, 79
2, 77783, Note_on_c, 0, 63, 0
2, 77784, Note_on_c, 0, 62, 79
2, 77807, Note_on_c, 0, 62, 0
2, 77808, Note_on_c, 0, 65, 79
2, 77831, Note_on_c, 0, 65, 0
2, 77832, Note_on_c, 0, 63, 79
2, 77855, Note_on_c, 0, 63, 0
2, 77856, Note_on_c, 0, 67, 79
2, 77879, Note_on_c, 0, 67, 0
2, 77880, Note_on_c, 0, 65, 79
2, 77903, Note_on_c, 0, 65, 0
2, 77904, Note_on_c, 0, 68, 79
2, 77927, Note_on_c, 0, 68, 0
2, 77928, Note_on_c, 0, 67, 79
2, 77951, Note_on_c, 0, 67, 0
2, 77952, Note_on_c, 0, 70, 79
2, 77997, Note_on_c, 0, 70, 0
2, 78048, Note_on_c, 0, 65, 79
2, 78071, Note_on_c, 0, 65, 0
2, 78072, Note_on_c, 0, 64, 79
2, 78095, Note_on_c, 0, 64, 0
2, 78096, Note_on_c, 0, 67, 79
2, 78119, Note_on_c, 0, 67, 0
2, 78120, Note_on_c, 0, 65, 79
2, 78143, Note_on_c, 0, 65, 0
2, 78144, Note_on_c, 0, 68, 79
2, 78167, Note_on_c, 0, 68, 0
2, 78168, Note_on_c, 0, 67, 79
2, 78191, Note_on_c, 0, 67, 0
2, 78192, Note_on_c, 0, 70, 79
2, 78215, Note_on_c, 0, 70, 0
2, 78216, Note_on_c, 0, 68, 79
2, 78239, Note_on_c, 0, 68, 0
2, 78240, Note_on_c, 0, 72, 79
2, 78285, Note_on_c, 0, 72, 0
2, 78336, Note_on_c, 0, 64, 79
2, 78359, Note_on_c, 0, 64, 0
2, 78360, Note_on_c, 0, 65, 79
2, 78383, Note_on_c, 0, 65, 0
2, 78384, Note_on_c, 0, 66, 79
2, 78407, Note_on_c, 0, 66, 0
2, 78408, Note_on_c, 0, 67, 80
2, 78431, Note_on_c, 0, 67, 0
2, 78432, Note_on_c, 0, 68, 80
2, 78455, Note_on_c, 0, 68, 0
2, 78456, Note_on_c, 0, 69, 81
2, 78479, Note_on_c, 0, 69, 0
2, 78480, Note_on_c, 0, 70, 81
2, 78503, Note_on_c, 0, 70, 0
2, 78504, Note_on_c, 0, 71, 82
2, 78527, Note_on_c, 0, 71, 0
2, 78528, Note_on_c, 0, 72, 82
2, 78573, Note_on_c, 0, 72, 0
2, 78576, Note_on_c, 0, 74, 83
2, 78586, Note_on_c, 0, 74, 0
2, 78586, Note_on_c, 0, 72, 84
2, 78596, Note_on_c, 0, 72, 0
2, 78596, Note_on_c, 0, 70, 84
2, 78606, Note_on_c, 0, 70, 0
2, 78606, Note_on_c, 0, 72, 84
2, 78615, Note_on_c, 0, 72, 0
2, 78615, Note_on_c, 0, 74, 84
2, 78624, Note_on_c, 0, 74, 0
2, 78624, Note_on_c, 0, 75, 85
2, 78644, Note_on_c, 0, 75, 0
2, 78696, Note_on_c, 0, 74, 85
2, 78720, Note_on_c, 0, 74, 0
2, 78720, Note_on_c, 0, 72, 85
2, 78740, Note_on_c, 0, 72, 0
2, 78792, Note_on_c, 0, 70, 85
2, 78816, Note_on_c, 0, 70, 0
2, 78816, Note_on_c, 0, 68, 85
2, 78836, Note_on_c, 0, 68, 0
2, 78888, Note_on_c, 0, 67, 85
2, 78911, Note_on_c, 0, 67, 0
2, 78912, Note_on_c, 0, 68, 84
2, 78924, Note_on_c, 0, 68, 0
2, 78924, Note_on_c, 0, 67, 84
2, 78936, Note_on_c, 0, 67, 0
2, 78936, Note_on_c, 0, 68, 83
2, 78948, Note_on_c, 0, 68, 0
2, 78948, Note_on_c, 0, 67, 83
2, 78960, Note_on_c, 0, 67, 0
2, 78960, Note_on_c, 0, 68, 83
2, 78972, Note_on_c, 0, 68, 0
2, 78972, Note_on_c, 0, 67, 82
2, 78984, Note_on_c, 0, 67, 0
2, 78984, Note_on_c, 0, 65, 82
2, 78996, Note_on_c, 0, 65, 0
2, 78996, Note_on_c, 0, 67, 82
2, 79008, Note_on_c, 0, 67, 0
2, 79008, Note_on_c, 0, 65, 81
2, 79097, Note_on_c, 0, 65, 0
2, 79200, Note_on_c, 0, 70, 79
2, 79333, Note_on_c, 0, 70, 0
2, 79344, Note_on_c, 0, 72, 79
2, 79367, Note_on_c, 0, 72, 0
2, 79368, Note_on_c, 0, 68, 79
2, 79391, Note_on_c, 0, 68, 0
2, 79392, Note_on_c, 0, 67, 79
2, 79437, Note_on_c, 0, 67, 0
2, 79440, Note_on_c, 0, 70, 79
2, 79452, Note_on_c, 0, 70, 0
2, 79452, Note_on_c, 0, 68, 79
2, 79464, Note_on_c, 0, 68, 0
2, 79464, Note_on_c, 0, 67, 79
2, 79476, Note_on_c, 0, 67, 0
2, 79476, Note_on_c, 0, 68, 79
2, 79488, Note_on_c, 0, 68, 0
2, 79488, Note_on_c, 0, 70, 79
2, 79533, Note_on_c, 0, 70, 0
2, 79536, Note_on_c, 0, 75, 79
2, 79581, Note_on_c, 0, 75, 0
2, 79632, Note_on_c, 0, 74, 79
2, 79677, Note_on_c, 0, 74, 0
2, 79728, Note_on_c, 0, 72, 79
2, 79773, Note_on_c, 0, 72, 0
2, 79776, Note_on_c, 0, 70, 79
2, 79909, Note_on_c, 0, 70, 0
2, 79920, Note_on_c, 0, 72, 79
2, 79943, Note_on_c, 0, 72, 0
2, 79944, Note_on_c, 0, 68, 79
2, 79967, Note_on_c, 0, 68, 0
2, 79968, Note_on_c, 0, 67, 79
2, 80013, Note_on_c, 0, 67, 0
2, 80016, Note_on_c, 0, 70, 79
2, 80028, Note_on_c, 0, 70, 0
2, 80028, Note_on_c, 0, 68, 79
2, 80040, Note_on_c, 0, 68, 0
2, 80040, Note_on_c, 0, 67, 79
2, 80052, Note_on_c, 0, 67, 0
2, 80052, Note_on_c, 0, 68, 79
2, 80064, Note_on_c, 0, 68, 0
2, 80064, Note_on_c, 0, 70, 79
2, 80109, Note_on_c, 0, 70, 0
2, 80112, Note_on_c, 0, 79, 79
2, 80157, Note_on_c, 0, 79, 0
2, 80208, Note_on_c, 0, 75, 79
2, 80253, Note_on_c, 0, 75, 0
2, 80304, Note_on_c, 0, 72, 79
2, 80349, Note_on_c, 0, 72, 0
2, 80352, Note_on_c, 0, 67, 79
2, 80370, Note_on_c, 0, 67, 0
2, 80370, Note_on_c, 0, 70, 95
2, 80544, Note_on_c, 0, 70, 0
2, 80544, Note_on_c, 0, 69, 79
2, 80567, Note_on_c, 0, 69, 0
2, 80568, Note_on_c, 0, 70, 79
2, 80591, Note_on_c, 0, 70, 0
2, 80592, Note_on_c, 0, 72, 79
2, 80615, Note_on_c, 0, 72, 0
2, 80616, Note_on_c, 0, 70, 79
2, 80639, Note_on_c, 0, 70, 0
2, 80640, Note_on_c, 0, 70, 95
2, 80832, Note_on_c, 0, 70, 0
2, 80832, Note_on_c, 0, 69, 79
2, 80855, Note_on_c, 0, 69, 0
2, 80856, Note_on_c, 0, 70, 79
2, 80879, Note_on_c, 0, 70, 0
2, 80880, Note_on_c, 0, 72, 79
2, 80903, Note_on_c, 0, 72, 0
2, 80904, Note_on_c, 0, 70, 79
2, 80927, Note_on_c, 0, 70, 0
2, 80928, Note_on_c, 0, 75, 95
2, 81120, Note_on_c, 0, 75, 0
2, 81120, Note_on_c, 0, 69, 79
2, 81143, Note_on_c, 0, 69, 0
2, 81144, Note_on_c, 0, 70, 79
2, 81167, Note_on_c, 0, 70, 0
2, 81168, Note_on_c, 0, 72, 79
2, 81191, Note_on_c, 0, 72, 0
2, 81192, Note_on_c, 0, 70, 79
2, 81215, Note_on_c, 0, 70, 0
2, 81216, Note_on_c, 0, 70, 95
2, 81408, Note_on_c, 0, 70, 0
2, 81408, Note_on_c, 0, 71, 81
2, 81431, Note_on_c, 0, 71, 0
2, 81432, Note_on_c, 0, 72, 81
2, 81455, Note_on_c, 0, 72, 0
2, 81456, Note_on_c, 0, 74, 81
2, 81479, Note_on_c, 0, 74, 0
2, 81480, Note_on_c, 0, 72, 81
2, 81503, Note_on_c, 0, 72, 0
2, 81504, Note_on_c, 0, 72, 98
2, 81696, Note_on_c, 0, 72, 0
2, 81696, Note_on_c, 0, 74, 83
2, 81719, Note_on_c, 0, 74, 0
2, 81720, Note_on_c, 0, 75, 83
2, 81743, Note_on_c, 0, 75, 0
2, 81744, Note_on_c, 0, 77, 83
2, 81767, Note_on_c, 0, 77, 0
2, 81768, Note_on_c, 0, 75, 84
2, 81791, Note_on_c, 0, 75, 0
2, 81792, Note_on_c, 0, 75, 84
2, 81933, Note_on_c, 0, 75, 0
2, 81936, Note_on_c, 0, 79, 85
2, 81959, Note_on_c, 0, 79, 0
2, 81960, Note_on_c, 0, 77, 85
2, 81983, Note_on_c, 0, 77, 0
2, 81984, Note_on_c, 0, 75, 85
2, 82007, Note_on_c, 0, 75, 0
2, 82008, Note_on_c, 0, 74, 85
2, 82031, Note_on_c, 0, 74, 0
2, 82032, Note_on_c, 0, 72, 85
2, 82055, Note_on_c, 0, 72, 0
2, 82056, Note_on_c, 0, 70, 85
2, 82079, Note_on_c, 0, 70, 0
2, 82080, Note_on_c, 0, 72, 85
2, 82092, Note_on_c, 0, 72, 0
2, 82092, Note_on_c, 0, 70, 85
2, 82104, Note_on_c, 0, 70, 0
2, 82104, Note_on_c, 0, 68, 85
2, 82116, Note_on_c, 0, 68, 0
2, 82116, Note_on_c, 0, 70, 85
2, 82128, Note_on_c, 0, 70, 0
2, 82128, Note_on_c, 0, 72, 82
2, 82151, Note_on_c, 0, 72, 0
2, 82152, Note_on_c, 0, 68, 81
2, 82175, Note_on_c, 0, 68, 0
2, 82176, Note_on_c, 0, 67, 80
2, 82265, Note_on_c, 0, 67, 0
2, 82272, Note_on_c, 0, 67, 76
2, 82284, Note_on_c, 0, 67, 0
2, 82284, Note_on_c, 0, 65, 75
2, 82296, Note_on_c, 0, 65, 0
2, 82296, Note_on_c, 0, 67, 75
2, 82308, Note_on_c, 0, 67, 0
2, 82308, Note_on_c, 0, 65, 74
2, 82320, Note_on_c, 0, 65, 0
2, 82320, Note_on_c, 0, 67, 74
2, 82332, Note_on_c, 0, 67, 0
2, 82332, Note_on_c, 0, 65, 73
2, 82344, Note_on_c, 0, 65, 0
2, 82344, Note_on_c, 0, 63, 73
2, 82356, Note_on_c, 0, 63, 0
2, 82356, Note_on_c, 0, 65, 72
2, 82368, Note_on_c, 0, 65, 0
2, 82368, Note_on_c, 0, 63, 72
2, 82413, Note_on_c, 0, 63, 0
2, 82416, Note_on_c, 0, 75, 72
2, 82461, Note_on_c, 0, 75, 0
2, 82464, Note_on_c, 0, 74, 72
2, 82476, Note_on_c, 0, 74, 0
2, 82476, Note_on_c, 0, 75, 72
2, 82488, Note_on_c, 0, 75, 0
2, 82488, Note_on_c, 0, 74, 72
2, 82500, Note_on_c, 0, 74, 0
2, 82500, Note_on_c, 0, 75, 72
2, 82509, Note_on_c, 0, 75, 0
2, 82512, Note_on_c, 0, 72, 72
2, 82557, Note_on_c, 0, 72, 0
2, 82560, Note_on_c, 0, 70, 72
2, 82605, Note_on_c, 0, 70, 0
2, 82608, Note_on_c, 0, 69, 72
2, 82653, Note_on_c, 0, 69, 0
2, 82656, Note_on_c, 0, 69, 72
2, 82871, Note_on_c, 0, 69, 0
2, 82872, Note_on_c, 0, 70, 72
2, 82895, Note_on_c, 0, 70, 0
2, 82896, Note_on_c, 0, 72, 72
2, 82919, Note_on_c, 0, 72, 0
2, 82920, Note_on_c, 0, 70, 72
2, 82943, Note_on_c, 0, 70, 0
2, 82944, Note_on_c, 0, 70, 72
2, 83099, Note_on_c, 0, 70, 0
2, 83184, Note_on_c, 0, 72, 78
2, 83208, Note_on_c, 0, 72, 0
2, 83208, Note_on_c, 0, 70, 77
2, 83231, Note_on_c, 0, 70, 0
2, 83280, Note_on_c, 0, 70, 76
2, 83304, Note_on_c, 0, 70, 0
2, 83304, Note_on_c, 0, 68, 75
2, 83327, Note_on_c, 0, 68, 0
2, 83376, Note_on_c, 0, 68, 74
2, 83400, Note_on_c, 0, 68, 0
2, 83400, Note_on_c, 0, 67, 74
2, 83423, Note_on_c, 0, 67, 0
2, 83472, Note_on_c, 0, 67, 72
2, 83496, Note_on_c, 0, 67, 0
2, 83496, Note_on_c, 0, 65, 72
2, 83519, Note_on_c, 0, 65, 0
2, 83760, Note_on_c, 0, 68, 72
2, 83784, Note_on_c, 0, 68, 0
2, 83784, Note_on_c, 0, 67, 72
2, 83807, Note_on_c, 0, 67, 0
2, 84048, Note_on_c, 0, 70, 74
2, 84072, Note_on_c, 0, 70, 0
2, 84072, Note_on_c, 0, 68, 75
2, 84095, Note_on_c, 0, 68, 0
2, 84096, Note_on_c, 0, 68, 75
2, 84273, Note_on_c, 0, 68, 0
2, 84288, Note_on_c, 0, 58, 77
2, 84300, Note_on_c, 0, 58, 0
2, 84300, Note_on_c, 0, 62, 77
2, 84312, Note_on_c, 0, 62, 0
2, 84312, Note_on_c, 0, 65, 78
2, 84324, Note_on_c, 0, 65, 0
2, 84324, Note_on_c, 0, 68, 78
2, 84336, Note_on_c, 0, 68, 0
2, 84336, Note_on_c, 0, 74, 78
2, 84351, Note_on_c, 0, 74, 0
2, 84352, Note_on_c, 0, 77, 78
2, 84367, Note_on_c, 0, 77, 0
2, 84368, Note_on_c, 0, 80, 78
2, 84383, Note_on_c, 0, 80, 0
2, 84384, Note_on_c, 0, 84, 95
2, 84456, Note_on_c, 0, 84, 0
2, 84456, Note_on_c, 0, 82, 79
2, 84479, Note_on_c, 0, 82, 0
2, 84480, Note_on_c, 0, 80, 79
2, 84503, Note_on_c, 0, 80, 0
2, 84504, Note_on_c, 0, 79, 79
2, 84527, Note_on_c, 0, 79, 0
2, 84528, Note_on_c, 0, 77, 79
2, 84551, Note_on_c, 0, 77, 0
2, 84552, Note_on_c, 0, 75, 79
2, 84575, Note_on_c, 0, 75, 0
2, 84576, Note_on_c, 0, 74, 79
2, 84599, Note_on_c, 0, 74, 0
2, 84600, Note_on_c, 0, 72, 79
2, 84623, Note_on_c, 0, 72, 0
2, 84624, Note_on_c, 0, 70, 79
2, 84647, Note_on_c, 0, 70, 0
2, 84648, Note_on_c, 0, 68, 79
2, 84671, Note_on_c, 0, 68, 0
2, 84672, Note_on_c, 0, 63, 79
2, 84717, Note_on_c, 0, 63, 0
2, 84720, Note_on_c, 0, 63, 80
2, 84728, Note_on_c, 0, 63, 0
2, 84728, Note_on_c, 0, 67, 80
2, 84736, Note_on_c, 0, 67, 0
2, 84736, Note_on_c, 0, 70, 80
2, 84744, Note_on_c, 0, 70, 0
2, 84744, Note_on_c, 0, 74, 81
2, 84752, Note_on_c, 0, 74, 0
2, 84752, Note_on_c, 0, 75, 81
2, 84760, Note_on_c, 0, 75, 0
2, 84760, Note_on_c, 0, 79, 81
2, 84768, Note_on_c, 0, 79, 0
2, 84768, Note_on_c, 0, 82, 81
2, 84768, Note_on_c, 0, 70, 81
2, 84857, Note_on_c, 0, 82, 0
2, 84857, Note_on_c, 0, 70, 0
2, 84960, Note_on_c, 0, 64, 85
2, 84983, Note_on_c, 0, 64, 0
2, 84984, Note_on_c, 0, 65, 84
2, 85007, Note_on_c, 0, 65, 0
2, 85008, Note_on_c, 0, 68, 83
2, 85031, Note_on_c, 0, 68, 0
2, 85032, Note_on_c, 0, 65, 82
2, 85055, Note_on_c, 0, 65, 0
2, 85056, Note_on_c, 0, 63, 82
2, 85145, Note_on_c, 0, 63, 0
2, 85152, Note_on_c, 0, 62, 79
2, 85164, Note_on_c, 0, 62, 0
2, 85164, Note_on_c, 0, 63, 79
2, 85176, Note_on_c, 0, 63, 0
2, 85176, Note_on_c, 0, 62, 79
2, 85188, Note_on_c, 0, 62, 0
2, 85188, Note_on_c, 0, 63, 79
2, 85200, Note_on_c, 0, 63, 0
2, 85200, Note_on_c, 0, 62, 79
2, 85212, Note_on_c, 0, 62, 0
2, 85212, Note_on_c, 0, 63, 79
2, 85224, Note_on_c, 0, 63, 0
2, 85224, Note_on_c, 0, 62, 79
2, 85236, Note_on_c, 0, 62, 0
2, 85236, Note_on_c, 0, 63, 79
2, 85241, Note_on_c, 0, 63, 0
2, 85248, Note_on_c, 0, 63, 79
2, 85271, Note_on_c, 0, 63, 0
2, 85272, Note_on_c, 0, 63, 79
2, 85295, Note_on_c, 0, 63, 0
2, 85296, Note_on_c, 0, 63, 79
2, 85308, Note_on_c, 0, 63, 0
2, 85308, Note_on_c, 0, 65, 79
2, 85320, Note_on_c, 0, 65, 0
2, 85320, Note_on_c, 0, 63, 79
2, 85332, Note_on_c, 0, 63, 0
2, 85332, Note_on_c, 0, 65, 79
2, 85341, Note_on_c, 0, 65, 0
2, 85344, Note_on_c, 0, 68, 79
2, 85367, Note_on_c, 0, 68, 0
2, 85368, Note_on_c, 0, 63, 79
2, 85391, Note_on_c, 0, 63, 0
2, 85392, Note_on_c, 0, 63, 79
2, 85404, Note_on_c, 0, 63, 0
2, 85404, Note_on_c, 0, 65, 79
2, 85416, Note_on_c, 0, 65, 0
2, 85416, Note_on_c, 0, 63, 79
2, 85428, Note_on_c, 0, 63, 0
2, 85428, Note_on_c, 0, 65, 79
2, 85437, Note_on_c, 0, 65, 0
2, 85440, Note_on_c, 0, 67, 79
2, 85463, Note_on_c, 0, 67, 0
2, 85464, Note_on_c, 0, 63, 79
2, 85487, Note_on_c, 0, 63, 0
2, 85488, Note_on_c, 0, 63, 79
2, 85500, Note_on_c, 0, 63, 0
2, 85500, Note_on_c, 0, 65, 79
2, 85512, Note_on_c, 0, 65, 0
2, 85512, Note_on_c, 0, 63, 79
2, 85524, Note_on_c, 0, 63, 0
2, 85524, Note_on_c, 0, 65, 79
2, 85533, Note_on_c, 0, 65, 0
2, 85536, Note_on_c, 0, 72, 79
2, 85559, Note_on_c, 0, 72, 0
2, 85560, Note_on_c, 0, 63, 79
2, 85583, Note_on_c, 0, 63, 0
2, 85584, Note_on_c, 0, 63, 79
2, 85596, Note_on_c, 0, 63, 0
2, 85596, Note_on_c, 0, 65, 79
2, 85608, Note_on_c, 0, 65, 0
2, 85608, Note_on_c, 0, 63, 79
2, 85620, Note_on_c, 0, 63, 0
2, 85620, Note_on_c, 0, 65, 79
2, 85629, Note_on_c, 0, 65, 0
2, 85632, Note_on_c, 0, 75, 79
2, 85743, Note_on_c, 0, 75, 0
2, 85744, Note_on_c, 0, 74, 79
2, 85759, Note_on_c, 0, 74, 0
2, 85760, Note_on_c, 0, 72, 79
2, 85775, Note_on_c, 0, 72, 0
2, 85776, Note_on_c, 0, 70, 79
2, 85791, Note_on_c, 0, 70, 0
2, 85792, Note_on_c, 0, 68, 79
2, 85807, Note_on_c, 0, 68, 0
2, 85808, Note_on_c, 0, 67, 79
2, 85823, Note_on_c, 0, 67, 0
2, 85824, Note_on_c, 0, 65, 79
2, 85839, Note_on_c, 0, 65, 0
2, 85840, Note_on_c, 0, 72, 79
2, 85855, Note_on_c, 0, 72, 0
2, 85856, Note_on_c, 0, 70, 79
2, 85871, Note_on_c, 0, 70, 0
2, 85872, Note_on_c, 0, 68, 79
2, 85887, Note_on_c, 0, 68, 0
2, 85888, Note_on_c, 0, 67, 79
2, 85903, Note_on_c, 0, 67, 0
2, 85904, Note_on_c, 0, 65, 79
2, 85919, Note_on_c, 0, 65, 0
2, 85920, Note_on_c, 0, 67, 79
2, 85935, Note_on_c, 0, 67, 0
2, 85936, Note_on_c, 0, 70, 79
2, 85951, Note_on_c, 0, 70, 0
2, 85952, Note_on_c, 0, 68, 79
2, 85967, Note_on_c, 0, 68, 0
2, 85968, Note_on_c, 0, 67, 79
2, 85983, Note_on_c, 0, 67, 0
2, 85984, Note_on_c, 0, 65, 79
2, 85999, Note_on_c, 0, 65, 0
2, 86000, Note_on_c, 0, 63, 79
2, 86015, Note_on_c, 0, 63, 0
2, 86016, Note_on_c, 0, 62, 79
2, 86031, Note_on_c, 0, 62, 0
2, 86032, Note_on_c, 0, 60, 79
2, 86047, Note_on_c, 0, 60, 0
2, 86048, Note_on_c, 0, 58, 79
2, 86063, Note_on_c, 0, 58, 0
2, 86064, Note_on_c, 0, 56, 79
2, 86079, Note_on_c, 0, 56, 0
2, 86080, Note_on_c, 0, 55, 79
2, 86095, Note_on_c, 0, 55, 0
2, 86096, Note_on_c, 0, 53, 79
2, 86111, Note_on_c, 0, 53, 0
2, 86112, Note_on_c, 0, 51, 79
2, 86135, Note_on_c, 0, 51, 0
2, 86136, Note_on_c, 0, 75, 79
2, 86159, Note_on_c, 0, 75, 0
2, 86160, Note_on_c, 0, 75, 79
2, 86172, Note_on_c, 0, 75, 0
2, 86172, Note_on_c, 0, 77, 79
2, 86184, Note_on_c, 0, 77, 0
2, 86184, Note_on_c, 0, 75, 79
2, 86196, Note_on_c, 0, 75, 0
2, 86196, Note_on_c, 0, 77, 79
2, 86205, Note_on_c, 0, 77, 0
2, 86208, Note_on_c, 0, 80, 79
2, 86231, Note_on_c, 0, 80, 0
2, 86232, Note_on_c, 0, 75, 79
2, 86255, Note_on_c, 0, 75, 0
2, 86256, Note_on_c, 0, 75, 79
2, 86268, Note_on_c, 0, 75, 0
2, 86268, Note_on_c, 0, 77, 79
2, 86280, Note_on_c, 0, 77, 0
2, 86280, Note_on_c, 0, 75, 79
2, 86292, Note_on_c, 0, 75, 0
2, 86292, Note_on_c, 0, 77, 79
2, 86301, Note_on_c, 0, 77, 0
2, 86304, Note_on_c, 0, 79, 79
2, 86327, Note_on_c, 0, 79, 0
2, 86328, Note_on_c, 0, 75, 79
2, 86351, Note_on_c, 0, 75, 0
2, 86352, Note_on_c, 0, 75, 79
2, 86364, Note_on_c, 0, 75, 0
2, 86364, Note_on_c, 0, 77, 79
2, 86376, Note_on_c, 0, 77, 0
2, 86376, Note_on_c, 0, 75, 79
2, 86388, Note_on_c, 0, 75, 0
2, 86388, Note_on_c, 0, 77, 79
2, 86397, Note_on_c, 0, 77, 0
2, 86400, Note_on_c, 0, 84, 79
2, 86423, Note_on_c, 0, 84, 0
2, 86424, Note_on_c, 0, 75, 79
2, 86447, Note_on_c, 0, 75, 0
2, 86448, Note_on_c, 0, 75, 79
2, 86460, Note_on_c, 0, 75, 0
2, 86460, Note_on_c, 0, 77, 79
2, 86472, Note_on_c, 0, 77, 0
2, 86472, Note_on_c, 0, 75, 79
2, 86484, Note_on_c, 0, 75, 0
2, 86484, Note_on_c, 0, 77, 79
2, 86493, Note_on_c, 0, 77, 0
2, 86496, Note_on_c, 0, 87, 79
2, 86607, Note_on_c, 0, 87, 0
2, 86608, Note_on_c, 0, 86, 79
2, 86623, Note_on_c, 0, 86, 0
2, 86624, Note_on_c, 0, 84, 79
2, 86639, Note_on_c, 0, 84, 0
2, 86640, Note_on_c, 0, 82, 79
2, 86655, Note_on_c, 0, 82, 0
2, 86656, Note_on_c, 0, 80, 79
2, 86671, Note_on_c, 0, 80, 0
2, 86672, Note_on_c, 0, 79, 79
2, 86687, Note_on_c, 0, 79, 0
2, 86688, Note_on_c, 0, 77, 79
2, 86703, Note_on_c, 0, 77, 0
2, 86704, Note_on_c, 0, 84, 79
2, 86719, Note_on_c, 0, 84, 0
2, 86720, Note_on_c, 0, 82, 79
2, 86735, Note_on_c, 0, 82, 0
2, 86736, Note_on_c, 0, 80, 79
2, 86751, Note_on_c, 0, 80, 0
2, 86752, Note_on_c, 0, 79, 79
2, 86767, Note_on_c, 0, 79, 0
2, 86768, Note_on_c, 0, 77, 79
2, 86783, Note_on_c, 0, 77, 0
2, 86784, Note_on_c, 0, 79, 79
2, 86799, Note_on_c, 0, 79, 0
2, 86800, Note_on_c, 0, 82, 79
2, 86815, Note_on_c, 0, 82, 0
2, 86816, Note_on_c, 0, 80, 79
2, 86831, Note_on_c, 0, 80, 0
2, 86832, Note_on_c, 0, 79, 79
2, 86847, Note_on_c, 0, 79, 0
2, 86848, Note_on_c, 0, 77, 79
2, 86863, Note_on_c, 0, 77, 0
2, 86864, Note_on_c, 0, 75, 79
2, 86879, Note_on_c, 0, 75, 0
2, 86880, Note_on_c, 0, 74, 79
2, 86895, Note_on_c, 0, 74, 0
2, 86896, Note_on_c, 0, 72, 79
2, 86911, Note_on_c, 0, 72, 0
2, 86912, Note_on_c, 0, 70, 79
2, 86927, Note_on_c, 0, 70, 0
2, 86928, Note_on_c, 0, 68, 79
2, 86943, Note_on_c, 0, 68, 0
2, 86944, Note_on_c, 0, 67, 79
2, 86959, Note_on_c, 0, 67, 0
2, 86960, Note_on_c, 0, 65, 79
2, 86975, Note_on_c, 0, 65, 0
2, 86976, Note_on_c, 0, 63, 79
2, 87109, Note_on_c, 0, 63, 0
2, 87120, Note_on_c, 0, 62, 73
2, 87165, Note_on_c, 0, 62, 0
2, 87168, Note_on_c, 0, 68, 72
2, 87168, Note_on_c, 0, 65, 72
2, 87213, Note_on_c, 0, 68, 0
2, 87213, Note_on_c, 0, 65, 0
2, 87216, Note_on_c, 0, 65, 72
2, 87216, Note_on_c, 0, 62, 72
2, 87261, Note_on_c, 0, 65, 0
2, 87261, Note_on_c, 0, 62, 0
2, 87264, Note_on_c, 0, 67, 72
2, 87264, Note_on_c, 0, 63, 72
2, 87397, Note_on_c, 0, 67, 0
2, 87397, Note_on_c, 0, 63, 0
2, 87408, Note_on_c, 0, 65, 72
2, 87408, Note_on_c, 0, 62, 72
2, 87453, Note_on_c, 0, 65, 0
2, 87453, Note_on_c, 0, 62, 0
2, 87456, Note_on_c, 0, 72, 72
2, 87456, Note_on_c, 0, 68, 72
2, 87501, Note_on_c, 0, 72, 0
2, 87501, Note_on_c, 0, 68, 0
2, 87504, Note_on_c, 0, 68, 72
2, 87504, Note_on_c, 0, 65, 72
2, 87549, Note_on_c, 0, 68, 0
2, 87549, Note_on_c, 0, 65, 0
2, 87552, Note_on_c, 0, 70, 72
2, 87552, Note_on_c, 0, 67, 72
2, 87685, Note_on_c, 0, 70, 0
2, 87685, Note_on_c, 0, 67, 0
2, 87696, Note_on_c, 0, 75, 72
2, 87708, Note_on_c, 0, 75, 0
2, 87708, Note_on_c, 0, 72, 72
2, 87742, Note_on_c, 0, 72, 0
2, 87744, Note_on_c, 0, 74, 72
2, 87756, Note_on_c, 0, 74, 0
2, 87756, Note_on_c, 0, 70, 72
2, 87790, Note_on_c, 0, 70, 0
2, 87792, Note_on_c, 0, 72, 72
2, 87804, Note_on_c, 0, 72, 0
2, 87804, Note_on_c, 0, 68, 72
2, 87838, Note_on_c, 0, 68, 0
2, 87840, Note_on_c, 0, 70, 72
2, 87840, Note_on_c, 0, 67, 72
2, 87973, Note_on_c, 0, 70, 0
2, 87973, Note_on_c, 0, 67, 0
2, 87984, Note_on_c, 0, 63, 72
2, 87996, Note_on_c, 0, 63, 0
2, 87996, Note_on_c, 0, 60, 72
2, 88030, Note_on_c, 0, 60, 0
2, 88032, Note_on_c, 0, 62, 73
2, 88044, Note_on_c, 0, 62, 0
2, 88044, Note_on_c, 0, 58, 73
2, 88078, Note_on_c, 0, 58, 0
2, 88080, Note_on_c, 0, 60, 74
2, 88092, Note_on_c, 0, 60, 0
2, 88092, Note_on_c, 0, 56, 74
2, 88126, Note_on_c, 0, 56, 0
2, 88128, Note_on_c, 0, 58, 75
2, 88261, Note_on_c, 0, 58, 0
2, 88272, Note_on_c, 0, 58, 78
2, 88278, Note_on_c, 0, 58, 0
2, 88278, Note_on_c, 0, 70, 78
2, 88292, Note_on_c, 0, 70, 0
2, 88320, Note_on_c, 0, 60, 79
2, 88326, Note_on_c, 0, 60, 0
2, 88326, Note_on_c, 0, 72, 79
2, 88340, Note_on_c, 0, 72, 0
2, 88368, Note_on_c, 0, 62, 80
2, 88374, Note_on_c, 0, 62, 0
2, 88374, Note_on_c, 0, 74, 80
2, 88388, Note_on_c, 0, 74, 0
2, 88416, Note_on_c, 0, 63, 81
2, 88422, Note_on_c, 0, 63, 0
2, 88422, Note_on_c, 0, 75, 81
2, 88436, Note_on_c, 0, 75, 0
2, 88464, Note_on_c, 0, 65, 82
2, 88470, Note_on_c, 0, 65, 0
2, 88470, Note_on_c, 0, 77, 82
2, 88484, Note_on_c, 0, 77, 0
2, 88512, Note_on_c, 0, 67, 83
2, 88518, Note_on_c, 0, 67, 0
2, 88518, Note_on_c, 0, 79, 83
2, 88551, Note_on_c, 0, 79, 0
2, 88752, Note_on_c, 0, 60, 85
2, 88797, Note_on_c, 0, 60, 0
2, 88800, Note_on_c, 0, 68, 79
2, 88848, Note_on_c, 0, 68, 0
2, 88848, Note_on_c, 0, 72, 77
2, 88893, Note_on_c, 0, 72, 0
2, 88896, Note_on_c, 0, 65, 75
2, 88963, Note_on_c, 0, 65, 0
2, 88968, Note_on_c, 0, 62, 72
2, 88991, Note_on_c, 0, 62, 0
2, 88992, Note_on_c, 0, 62, 72
2, 89088, Note_on_c, 0, 62, 0
2, 89088, Note_on_c, 0, 63, 68
2, 89177, Note_on_c, 0, 63, 0
2, 89472, End_track
3, 0, Start_track
3, 0, Program_c, 0, 0
3, 0, Control_c, 0, 7, 127
3, 0, Control_c, 0, 10, 64
3, 1152, Note_on_c, 0, 65, 64
3, 1417, Note_on_c, 0, 65, 0
3, 6912, Note_on_c, 0, 74, 64
3, 7045, Note_on_c, 0, 74, 0
3, 7056, Note_on_c, 0, 75, 64
3, 7079, Note_on_c, 0, 75, 0
3, 7080, Note_on_c, 0, 72, 64
3, 7103, Note_on_c, 0, 72, 0
3, 7104, Note_on_c, 0, 70, 64
3, 7149, Note_on_c, 0, 70, 0
3, 7152, Note_on_c, 0, 72, 64
3, 7197, Note_on_c, 0, 72, 0
3, 7200, Note_on_c, 0, 74, 64
3, 7245, Note_on_c, 0, 74, 0
3, 7344, Note_on_c, 0, 77, 64
3, 7389, Note_on_c, 0, 77, 0
3, 7440, Note_on_c, 0, 75, 64
3, 7485, Note_on_c, 0, 75, 0
3, 7488, Note_on_c, 0, 74, 64
3, 7621, Note_on_c, 0, 74, 0
3, 7632, Note_on_c, 0, 75, 64
3, 7655, Note_on_c, 0, 75, 0
3, 7656, Note_on_c, 0, 72, 64
3, 7679, Note_on_c, 0, 72, 0
3, 7680, Note_on_c, 0, 70, 64
3, 7725, Note_on_c, 0, 70, 0
3, 7728, Note_on_c, 0, 72, 64
3, 7773, Note_on_c, 0, 72, 0
3, 7776, Note_on_c, 0, 74, 64
3, 7821, Note_on_c, 0, 74, 0
3, 7824, Note_on_c, 0, 82, 64
3, 7869, Note_on_c, 0, 82, 0
3, 7920, Note_on_c, 0, 79, 64
3, 7965, Note_on_c, 0, 79, 0
3, 8016, Note_on_c, 0, 75, 64
3, 8061, Note_on_c, 0, 75, 0
3, 10848, Note_on_c, 0, 76, 64
3, 10872, Note_on_c, 0, 76, 0
3, 10872, Note_on_c, 0, 77, 64
3, 10895, Note_on_c, 0, 77, 0
3, 10944, Note_on_c, 0, 74, 72
3, 10968, Note_on_c, 0, 74, 0
3, 10968, Note_on_c, 0, 75, 72
3, 10991, Note_on_c, 0, 75, 0
3, 11040, Note_on_c, 0, 72, 74
3, 11064, Note_on_c, 0, 72, 0
3, 11064, Note_on_c, 0, 74, 74
3, 11087, Note_on_c, 0, 74, 0
3, 11136, Note_on_c, 0, 71, 76
3, 11160, Note_on_c, 0, 71, 0
3, 11160, Note_on_c, 0, 72, 77
3, 11183, Note_on_c, 0, 72, 0
3, 11232, Note_on_c, 0, 72, 95
3, 11424, Note_on_c, 0, 72, 0
3, 11424, Note_on_c, 0, 72, 79
3, 11448, Note_on_c, 0, 72, 0
3, 11448, Note_on_c, 0, 74, 79
3, 11471, Note_on_c, 0, 74, 0
3, 11520, Note_on_c, 0, 74, 95
3, 11712, Note_on_c, 0, 74, 0
3, 11712, Note_on_c, 0, 74, 79
3, 11736, Note_on_c, 0, 74, 0
3, 11736, Note_on_c, 0, 75, 79
3, 11759, Note_on_c, 0, 75, 0
3, 17856, Note_on_c, 0, 65, 64
3, 18121, Note_on_c, 0, 65, 0
3, 23616, Note_on_c, 0, 74, 64
3, 23749, Note_on_c, 0, 74, 0
3, 23760, Note_on_c, 0, 75, 64
3, 23783, Note_on_c, 0, 75, 0
3, 23784, Note_on_c, 0, 72, 64
3, 23807, Note_on_c, 0, 72, 0
3, 23808, Note_on_c, 0, 70, 64
3, 23853, Note_on_c, 0, 70, 0
3, 23856, Note_on_c, 0, 72, 64
3, 23901, Note_on_c, 0, 72, 0
3, 23904, Note_on_c, 0, 74, 64
3, 23949, Note_on_c, 0, 74, 0
3, 24048, Note_on_c, 0, 77, 64
3, 24093, Note_on_c, 0, 77, 0
3, 24144, Note_on_c, 0, 75, 64
3, 24189, Note_on_c, 0, 75, 0
3, 24192, Note_on_c, 0, 74, 64
3, 24325, Note_on_c, 0, 74, 0
3, 24336, Note_on_c, 0, 75, 64
3, 24359, Note_on_c, 0, 75, 0
3, 24360, Note_on_c, 0, 72, 64
3, 24383, Note_on_c, 0, 72, 0
3, 24384, Note_on_c, 0, 70, 64
3, 24429, Note_on_c, 0, 70, 0
3, 24432, Note_on_c, 0, 72, 64
3, 24477, Note_on_c, 0, 72, 0
3, 24480, Note_on_c, 0, 74, 64
3, 24525, Note_on_c, 0, 74, 0
3, 24528, Note_on_c, 0, 82, 64
3, 24573, Note_on_c, 0, 82, 0
3, 24624, Note_on_c, 0, 79, 64
3, 24669, Note_on_c, 0, 79, 0
3, 24720, Note_on_c, 0, 75, 64
3, 24765, Note_on_c, 0, 75, 0
3, 27552, Note_on_c, 0, 76, 64
3, 27576, Note_on_c, 0, 76, 0
3, 27576, Note_on_c, 0, 77, 64
3, 27599, Note_on_c, 0, 77, 0
3, 27648, Note_on_c, 0, 74, 72
3, 27672, Note_on_c, 0, 74, 0
3, 27672, Note_on_c, 0, 75, 72
3, 27695, Note_on_c, 0, 75, 0
3, 27744, Note_on_c, 0, 72, 74
3, 27768, Note_on_c, 0, 72, 0
3, 27768, Note_on_c, 0, 74, 74
3, 27791, Note_on_c, 0, 74, 0
3, 27840, Note_on_c, 0, 71, 76
3, 27864, Note_on_c, 0, 71, 0
3, 27864, Note_on_c, 0, 72, 77
3, 27887, Note_on_c, 0, 72, 0
3, 27936, Note_on_c, 0, 72, 95
3, 28128, Note_on_c, 0, 72, 0
3, 28128, Note_on_c, 0, 72, 79
3, 28152, Note_on_c, 0, 72, 0
3, 28152, Note_on_c, 0, 74, 79
3, 28175, Note_on_c, 0, 74, 0
3, 28224, Note_on_c, 0, 74, 95
3, 28416, Note_on_c, 0, 74, 0
3, 28416, Note_on_c, 0, 74, 79
3, 28440, Note_on_c, 0, 74, 0
3, 28440, Note_on_c, 0, 75, 79
3, 28463, Note_on_c, 0, 75, 0
3, 36000, Note_on_c, 0, 66, 79
3, 36265, Note_on_c, 0, 66, 0
3, 36336, Note_on_c, 0, 74, 79
3, 36381, Note_on_c, 0, 74, 0
3, 36384, Note_on_c, 0, 74, 79
3, 36429, Note_on_c, 0, 74, 0
3, 36432, Note_on_c, 0, 74, 79
3, 36477, Note_on_c, 0, 74, 0
3, 36480, Note_on_c, 0, 74, 79
3, 36525, Note_on_c, 0, 74, 0
3, 36528, Note_on_c, 0, 74, 79
3, 36573, Note_on_c, 0, 74, 0
3, 36576, Note_on_c, 0, 75, 79
3, 36841, Note_on_c, 0, 75, 0
3, 36864, Note_on_c, 0, 74, 79
3, 37129, Note_on_c, 0, 74, 0
3, 37152, Note_on_c, 0, 72, 79
3, 37417, Note_on_c, 0, 72, 0
3, 37440, Note_on_c, 0, 70, 79
3, 37705, Note_on_c, 0, 70, 0
3, 37728, Note_on_c, 0, 68, 79
3, 37993, Note_on_c, 0, 68, 0
3, 38016, Note_on_c, 0, 67, 79
3, 38157, Note_on_c, 0, 67, 0
3, 38304, Note_on_c, 0, 68, 79
3, 38569, Note_on_c, 0, 68, 0
3, 38592, Note_on_c, 0, 67, 79
3, 38777, Note_on_c, 0, 67, 0
3, 38784, Note_on_c, 0, 78, 79
3, 38808, Note_on_c, 0, 78, 0
3, 38808, Note_on_c, 0, 79, 79
3, 38831, Note_on_c, 0, 79, 0
3, 38880, Note_on_c, 0, 76, 79
3, 38904, Note_on_c, 0, 76, 0
3, 38904, Note_on_c, 0, 77, 78
3, 38927, Note_on_c, 0, 77, 0
3, 38976, Note_on_c, 0, 74, 76
3, 39000, Note_on_c, 0, 74, 0
3, 39000, Note_on_c, 0, 75, 76
3, 39023, Note_on_c, 0, 75, 0
3, 39072, Note_on_c, 0, 72, 74
3, 39096, Note_on_c, 0, 72, 0
3, 39096, Note_on_c, 0, 74, 73
3, 39119, Note_on_c, 0, 74, 0
3, 39168, Note_on_c, 0, 74, 72
3, 39345, Note_on_c, 0, 74, 0
3, 39360, Note_on_c, 0, 74, 73
3, 39384, Note_on_c, 0, 74, 0
3, 39384, Note_on_c, 0, 75, 73
3, 39407, Note_on_c, 0, 75, 0
3, 39456, Note_on_c, 0, 75, 74
3, 39633, Note_on_c, 0, 75, 0
3, 39648, Note_on_c, 0, 75, 75
3, 39672, Note_on_c, 0, 75, 0
3, 39672, Note_on_c, 0, 77, 76
3, 39695, Note_on_c, 0, 77, 0
3, 45792, Note_on_c, 0, 65, 79
3, 46057, Note_on_c, 0, 65, 0
3, 47232, Note_on_c, 0, 68, 95
3, 47424, Note_on_c, 0, 68, 0
3, 47424, Note_on_c, 0, 67, 79
3, 47513, Note_on_c, 0, 67, 0
3, 47568, Note_on_c, 0, 79, 79
3, 47568, Note_on_c, 0, 70, 79
3, 47588, Note_on_c, 0, 79, 0
3, 47588, Note_on_c, 0, 70, 0
3, 47616, Note_on_c, 0, 79, 79
3, 47616, Note_on_c, 0, 70, 79
3, 47636, Note_on_c, 0, 79, 0
3, 47636, Note_on_c, 0, 70, 0
3, 47664, Note_on_c, 0, 79, 79
3, 47664, Note_on_c, 0, 70, 79
3, 47684, Note_on_c, 0, 79, 0
3, 47684, Note_on_c, 0, 70, 0
3, 47712, Note_on_c, 0, 79, 79
3, 47712, Note_on_c, 0, 70, 79
3, 47732, Note_on_c, 0, 79, 0
3, 47732, Note_on_c, 0, 70, 0
3, 47760, Note_on_c, 0, 79, 79
3, 47760, Note_on_c, 0, 70, 79
3, 47780, Note_on_c, 0, 79, 0
3, 47780, Note_on_c, 0, 70, 0
3, 47808, Note_on_c, 0, 79, 95
3, 47808, Note_on_c, 0, 70, 95
3, 48000, Note_on_c, 0, 79, 0
3, 48000, Note_on_c, 0, 70, 0
3, 48000, Note_on_c, 0, 77, 79
3, 48000, Note_on_c, 0, 68, 79
3, 48067, Note_on_c, 0, 77, 0
3, 48067, Note_on_c, 0, 68, 0
3, 48072, Note_on_c, 0, 80, 79
3, 48072, Note_on_c, 0, 72, 79
3, 48095, Note_on_c, 0, 80, 0
3, 48095, Note_on_c, 0, 72, 0
3, 48096, Note_on_c, 0, 80, 95
3, 48096, Note_on_c, 0, 72, 95
3, 48288, Note_on_c, 0, 80, 0
3, 48288, Note_on_c, 0, 72, 0
3, 48288, Note_on_c, 0, 79, 79
3, 48288, Note_on_c, 0, 70, 79
3, 48377, Note_on_c, 0, 79, 0
3, 48377, Note_on_c, 0, 70, 0
3, 48384, Note_on_c, 0, 77, 79
3, 48407, Note_on_c, 0, 77, 0
3, 48408, Note_on_c, 0, 76, 79
3, 48431, Note_on_c, 0, 76, 0
3, 48432, Note_on_c, 0, 79, 80
3, 48455, Note_on_c, 0, 79, 0
3, 48456, Note_on_c, 0, 77, 81
3, 48479, Note_on_c, 0, 77, 0
3, 48480, Note_on_c, 0, 80, 82
3, 48503, Note_on_c, 0, 80, 0
3, 48504, Note_on_c, 0, 79, 82
3, 48527, Note_on_c, 0, 79, 0
3, 48528, Note_on_c, 0, 82, 83
3, 48551, Note_on_c, 0, 82, 0
3, 48552, Note_on_c, 0, 80, 84
3, 48575, Note_on_c, 0, 80, 0
3, 48576, Note_on_c, 0, 84, 101
3, 48648, Note_on_c, 0, 84, 0
3, 48648, Note_on_c, 0, 75, 83
3, 48671, Note_on_c, 0, 75, 0
3, 48672, Note_on_c, 0, 75, 83
3, 48849, Note_on_c, 0, 75, 0
3, 48864, Note_on_c, 0, 74, 79
3, 48912, Note_on_c, 0, 74, 0
3, 48912, Note_on_c, 0, 73, 79
3, 48957, Note_on_c, 0, 73, 0
3, 48960, Note_on_c, 0, 72, 79
3, 49079, Note_on_c, 0, 72, 0
3, 49080, Note_on_c, 0, 76, 79
3, 49103, Note_on_c, 0, 76, 0
3, 49104, Note_on_c, 0, 77, 79
3, 49127, Note_on_c, 0, 77, 0
3, 49128, Note_on_c, 0, 73, 79
3, 49151, Note_on_c, 0, 73, 0
3, 49152, Note_on_c, 0, 72, 79
3, 49175, Note_on_c, 0, 72, 0
3, 49176, Note_on_c, 0, 70, 79
3, 49199, Note_on_c, 0, 70, 0
3, 49200, Note_on_c, 0, 68, 79
3, 49223, Note_on_c, 0, 68, 0
3, 49224, Note_on_c, 0, 67, 79
3, 49247, Note_on_c, 0, 67, 0
3, 49248, Note_on_c, 0, 65, 79
3, 49271, Note_on_c, 0, 65, 0
3, 49272, Note_on_c, 0, 64, 79
3, 49295, Note_on_c, 0, 64, 0
3, 49296, Note_on_c, 0, 67, 79
3, 49319, Note_on_c, 0, 67, 0
3, 49320, Note_on_c, 0, 65, 79
3, 49343, Note_on_c, 0, 65, 0
3, 49344, Note_on_c, 0, 68, 79
3, 49367, Note_on_c, 0, 68, 0
3, 49368, Note_on_c, 0, 67, 79
3, 49391, Note_on_c, 0, 67, 0
3, 49392, Note_on_c, 0, 70, 79
3, 49415, Note_on_c, 0, 70, 0
3, 49416, Note_on_c, 0, 68, 79
3, 49439, Note_on_c, 0, 68, 0
3, 49440, Note_on_c, 0, 72, 79
3, 49485, Note_on_c, 0, 72, 0
3, 51264, Note_on_c, 0, 67, 79
3, 51397, Note_on_c, 0, 67, 0
3, 51408, Note_on_c, 0, 68, 79
3, 51431, Note_on_c, 0, 68, 0
3, 51432, Note_on_c, 0, 65, 79
3, 51455, Note_on_c, 0, 65, 0
3, 51456, Note_on_c, 0, 63, 79
3, 51501, Note_on_c, 0, 63, 0
3, 51504, Note_on_c, 0, 65, 79
3, 51549, Note_on_c, 0, 65, 0
3, 51552, Note_on_c, 0, 67, 79
3, 51597, Note_on_c, 0, 67, 0
3, 51696, Note_on_c, 0, 70, 79
3, 51741, Note_on_c, 0, 70, 0
3, 51792, Note_on_c, 0, 68, 79
3, 51837, Note_on_c, 0, 68, 0
3, 51840, Note_on_c, 0, 67, 79
3, 51973, Note_on_c, 0, 67, 0
3, 51984, Note_on_c, 0, 68, 79
3, 52007, Note_on_c, 0, 68, 0
3, 52008, Note_on_c, 0, 65, 79
3, 52031, Note_on_c, 0, 65, 0
3, 52032, Note_on_c, 0, 63, 79
3, 52077, Note_on_c, 0, 63, 0
3, 52080, Note_on_c, 0, 65, 79
3, 52125, Note_on_c, 0, 65, 0
3, 52128, Note_on_c, 0, 67, 79
3, 52173, Note_on_c, 0, 67, 0
3, 52176, Note_on_c, 0, 75, 79
3, 52221, Note_on_c, 0, 75, 0
3, 52272, Note_on_c, 0, 72, 79
3, 52317, Note_on_c, 0, 72, 0
3, 52368, Note_on_c, 0, 68, 79
3, 52413, Note_on_c, 0, 68, 0
3, 55200, Note_on_c, 0, 69, 79
3, 55224, Note_on_c, 0, 69, 0
3, 55224, Note_on_c, 0, 70, 78
3, 55247, Note_on_c, 0, 70, 0
3, 55296, Note_on_c, 0, 67, 77
3, 55320, Note_on_c, 0, 67, 0
3, 55320, Note_on_c, 0, 68, 76
3, 55343, Note_on_c, 0, 68, 0
3, 55392, Note_on_c, 0, 65, 75
3, 55416, Note_on_c, 0, 65, 0
3, 55416, Note_on_c, 0, 67, 75
3, 55439, Note_on_c, 0, 67, 0
3, 55488, Note_on_c, 0, 64, 73
3, 55512, Note_on_c, 0, 64, 0
3, 55512, Note_on_c, 0, 65, 73
3, 55535, Note_on_c, 0, 65, 0
3, 55584, Note_on_c, 0, 65, 72
3, 55761, Note_on_c, 0, 65, 0
3, 55776, Note_on_c, 0, 65, 72
3, 55800, Note_on_c, 0, 65, 0
3, 55800, Note_on_c, 0, 67, 72
3, 55823, Note_on_c, 0, 67, 0
3, 55872, Note_on_c, 0, 67, 72
3, 56049, Note_on_c, 0, 67, 0
3, 56064, Note_on_c, 0, 67, 72
3, 56088, Note_on_c, 0, 67, 0
3, 56088, Note_on_c, 0, 68, 72
3, 56111, Note_on_c, 0, 68, 0
3, 63936, Note_on_c, 0, 66, 79
3, 64201, Note_on_c, 0, 66, 0
3, 64272, Note_on_c, 0, 74, 79
3, 64317, Note_on_c, 0, 74, 0
3, 64320, Note_on_c, 0, 74, 79
3, 64365, Note_on_c, 0, 74, 0
3, 64368, Note_on_c, 0, 74, 79
3, 64413, Note_on_c, 0, 74, 0
3, 64416, Note_on_c, 0, 74, 79
3, 64461, Note_on_c, 0, 74, 0
3, 64464, Note_on_c, 0, 74, 79
3, 64509, Note_on_c, 0, 74, 0
3, 64512, Note_on_c, 0, 75, 79
3, 64777, Note_on_c, 0, 75, 0
3, 64800, Note_on_c, 0, 74, 79
3, 65065, Note_on_c, 0, 74, 0
3, 65088, Note_on_c, 0, 72, 79
3, 65353, Note_on_c, 0, 72, 0
3, 65376, Note_on_c, 0, 70, 79
3, 65641, Note_on_c, 0, 70, 0
3, 65664, Note_on_c, 0, 68, 79
3, 65929, Note_on_c, 0, 68, 0
3, 65952, Note_on_c, 0, 67, 79
3, 66093, Note_on_c, 0, 67, 0
3, 66240, Note_on_c, 0, 68, 79
3, 66505, Note_on_c, 0, 68, 0
3, 66528, Note_on_c, 0, 67, 79
3, 66713, Note_on_c, 0, 67, 0
3, 66720, Note_on_c, 0, 78, 79
3, 66744, Note_on_c, 0, 78, 0
3, 66744, Note_on_c, 0, 79, 79
3, 66767, Note_on_c, 0, 79, 0
3, 66816, Note_on_c, 0, 76, 79
3, 66840, Note_on_c, 0, 76, 0
3, 66840, Note_on_c, 0, 77, 78
3, 66863, Note_on_c, 0, 77, 0
3, 66912, Note_on_c, 0, 74, 76
3, 66936, Note_on_c, 0, 74, 0
3, 66936, Note_on_c, 0, 75, 76
3, 66959, Note_on_c, 0, 75, 0
3, 67008, Note_on_c, 0, 72, 74
3, 67032, Note_on_c, 0, 72, 0
3, 67032, Note_on_c, 0, 74, 73
3, 67055, Note_on_c, 0, 74, 0
3, 67104, Note_on_c, 0, 74, 72
3, 67281, Note_on_c, 0, 74, 0
3, 67296, Note_on_c, 0, 74, 73
3, 67320, Note_on_c, 0, 74, 0
3, 67320, Note_on_c, 0, 75, 73
3, 67343, Note_on_c, 0, 75, 0
3, 67392, Note_on_c, 0, 75, 74
3, 67569, Note_on_c, 0, 75, 0
3, 67584, Note_on_c, 0, 75, 75
3, 67608, Note_on_c, 0, 75, 0
3, 67608, Note_on_c, 0, 77, 76
3, 67631, Note_on_c, 0, 77, 0
3, 73728, Note_on_c, 0, 65, 79
3, 73993, Note_on_c, 0, 65, 0
3, 75168, Note_on_c, 0, 68, 95
3, 75360, Note_on_c, 0, 68, 0
3, 75360, Note_on_c, 0, 67, 79
3, 75449, Note_on_c, 0, 67, 0
3, 75504, Note_on_c, 0, 79, 79
3, 75504, Note_on_c, 0, 70, 79
3, 75524, Note_on_c, 0, 79, 0
3, 75524, Note_on_c, 0, 70, 0
3, 75552, Note_on_c, 0, 79, 79
3, 75552, Note_on_c, 0, 70, 79
3, 75572, Note_on_c, 0, 79, 0
3, 75572, Note_on_c, 0, 70, 0
3, 75600, Note_on_c, 0, 79, 79
3, 75600, Note_on_c, 0, 70, 79
3, 75620, Note_on_c, 0, 79, 0
3, 75620, Note_on_c, 0, 70, 0
3, 75648, Note_on_c, 0, 79, 79
3, 75648, Note_on_c, 0, 70, 79
3, 75668, Note_on_c, 0, 79, 0
3, 75668, Note_on_c, 0, 70, 0
3, 75696, Note_on_c, 0, 79, 79
3, 75696, Note_on_c, 0, 70, 79
3, 75716, Note_on_c, 0, 79, 0
3, 75716, Note_on_c, 0, 70, 0
3, 75744, Note_on_c, 0, 79, 95
3, 75744, Note_on_c, 0, 70, 95
3, 75936, Note_on_c, 0, 79, 0
3, 75936, Note_on_c, 0, 70, 0
3, 75936, Note_on_c, 0, 77, 79
3, 75936, Note_on_c, 0, 68, 79
3, 76003, Note_on_c, 0, 77, 0
3, 76003, Note_on_c, 0, 68, 0
3, 76008, Note_on_c, 0, 80, 79
3, 76008, Note_on_c, 0, 72, 79
3, 76031, Note_on_c, 0, 80, 0
3, 76031, Note_on_c, 0, 72, 0
3, 76032, Note_on_c, 0, 80, 95
3, 76032, Note_on_c, 0, 72, 95
3, 76224, Note_on_c, 0, 80, 0
3, 76224, Note_on_c, 0, 72, 0
3, 76224, Note_on_c, 0, 79, 79
3, 76224, Note_on_c, 0, 70, 79
3, 76313, Note_on_c, 0, 79, 0
3, 76313, Note_on_c, 0, 70, 0
3, 76320, Note_on_c, 0, 77, 79
3, 76343, Note_on_c, 0, 77, 0
3, 76344, Note_on_c, 0, 76, 79
3, 76367, Note_on_c, 0, 76, 0
3, 76368, Note_on_c, 0, 79, 80
3, 76391, Note_on_c, 0, 79, 0
3, 76392, Note_on_c, 0, 77, 81
3, 76415, Note_on_c, 0, 77, 0
3, 76416, Note_on_c, 0, 80, 82
3, 76439, Note_on_c, 0, 80, 0
3, 76440, Note_on_c, 0, 79, 82
3, 76463, Note_on_c, 0, 79, 0
3, 76464, Note_on_c, 0, 82, 83
3, 76487, Note_on_c, 0, 82, 0
3, 76488, Note_on_c, 0, 80, 84
3, 76511, Note_on_c, 0, 80, 0
3, 76512, Note_on_c, 0, 84, 101
3, 76584, Note_on_c, 0, 84, 0
3, 76584, Note_on_c, 0, 75, 83
3, 76607, Note_on_c, 0, 75, 0
3, 76608, Note_on_c, 0, 75, 83
3, 76785, Note_on_c, 0, 75, 0
3, 76800, Note_on_c, 0, 74, 79
3, 76848, Note_on_c, 0, 74, 0
3, 76848, Note_on_c, 0, 73, 79
3, 76893, Note_on_c, 0, 73, 0
3, 76896, Note_on_c, 0, 72, 79
3, 77015, Note_on_c, 0, 72, 0
3, 77016, Note_on_c, 0, 76, 79
3, 77039, Note_on_c, 0, 76, 0
3, 77040, Note_on_c, 0, 77, 79
3, 77063, Note_on_c, 0, 77, 0
3, 77064, Note_on_c, 0, 73, 79
3, 77087, Note_on_c, 0, 73, 0
3, 77088, Note_on_c, 0, 72, 79
3, 77111, Note_on_c, 0, 72, 0
3, 77112, Note_on_c, 0, 70, 79
3, 77135, Note_on_c, 0, 70, 0
3, 77136, Note_on_c, 0, 68, 79
3, 77159, Note_on_c, 0, 68, 0
3, 77160, Note_on_c, 0, 67, 79
3, 77183, Note_on_c, 0, 67, 0
3, 77184, Note_on_c, 0, 65, 79
3, 77207, Note_on_c, 0, 65, 0
3, 77208, Note_on_c, 0, 64, 79
3, 77231, Note_on_c, 0, 64, 0
3, 77232, Note_on_c, 0, 67, 79
3, 77255, Note_on_c, 0, 67, 0
3, 77256, Note_on_c, 0, 65, 79
3, 77279, Note_on_c, 0, 65, 0
3, 77280, Note_on_c, 0, 68, 79
3, 77303, Note_on_c, 0, 68, 0
3, 77304, Note_on_c, 0, 67, 79
3, 77327, Note_on_c, 0, 67, 0
3, 77328, Note_on_c, 0, 70, 79
3, 77351, Note_on_c, 0, 70, 0
3, 77352, Note_on_c, 0, 68, 79
3, 77375, Note_on_c, 0, 68, 0
3, 77376, Note_on_c, 0, 72, 79
3, 77421, Note_on_c, 0, 72, 0
3, 79200, Note_on_c, 0, 67, 79
3, 79333, Note_on_c, 0, 67, 0
3, 79344, Note_on_c, 0, 68, 79
3, 79367, Note_on_c, 0, 68, 0
3, 79368, Note_on_c, 0, 65, 79
3, 79391, Note_on_c, 0, 65, 0
3, 79392, Note_on_c, 0, 63, 79
3, 79437, Note_on_c, 0, 63, 0
3, 79440, Note_on_c, 0, 65, 79
3, 79485, Note_on_c, 0, 65, 0
3, 79488, Note_on_c, 0, 67, 79
3, 79533, Note_on_c, 0, 67, 0
3, 79632, Note_on_c, 0, 70, 79
3, 79677, Note_on_c, 0, 70, 0
3, 79728, Note_on_c, 0, 68, 79
3, 79773, Note_on_c, 0, 68, 0
3, 79776, Note_on_c, 0, 67, 79
3, 79909, Note_on_c, 0, 67, 0
3, 79920, Note_on_c, 0, 68, 79
3, 79943, Note_on_c, 0, 68, 0
3, 79944, Note_on_c, 0, 65, 79
3, 79967, Note_on_c, 0, 65, 0
3, 79968, Note_on_c, 0, 63, 79
3, 80013, Note_on_c, 0, 63, 0
3, 80016, Note_on_c, 0, 65, 79
3, 80061, Note_on_c, 0, 65, 0
3, 80064, Note_on_c, 0, 67, 79
3, 80109, Note_on_c, 0, 67, 0
3, 80112, Note_on_c, 0, 75, 79
3, 80157, Note_on_c, 0, 75, 0
3, 80208, Note_on_c, 0, 72, 79
3, 80253, Note_on_c, 0, 72, 0
3, 80304, Note_on_c, 0, 68, 79
3, 80349, Note_on_c, 0, 68, 0
3, 83136, Note_on_c, 0, 69, 79
3, 83160, Note_on_c, 0, 69, 0
3, 83160, Note_on_c, 0, 70, 78
3, 83183, Note_on_c, 0, 70, 0
3, 83232, Note_on_c, 0, 67, 77
3, 83256, Note_on_c, 0, 67, 0
3, 83256, Note_on_c, 0, 68, 76
3, 83279, Note_on_c, 0, 68, 0
3, 83328, Note_on_c, 0, 65, 75
3, 83352, Note_on_c, 0, 65, 0
3, 83352, Note_on_c, 0, 67, 75
3, 83375, Note_on_c, 0, 67, 0
3, 83424, Note_on_c, 0, 64, 73
3, 83448, Note_on_c, 0, 64, 0
3, 83448, Note_on_c, 0, 65, 73
3, 83471, Note_on_c, 0, 65, 0
3, 83520, Note_on_c, 0, 65, 72
3, 83697, Note_on_c, 0, 65, 0
3, 83712, Note_on_c, 0, 65, 72
3, 83736, Note_on_c, 0, 65, 0
3, 83736, Note_on_c, 0, 67, 72
3, 83759, Note_on_c, 0, 67, 0
3, 83808, Note_on_c, 0, 67, 72
3, 83985, Note_on_c, 0, 67, 0
3, 84000, Note_on_c, 0, 67, 72
3, 84024, Note_on_c, 0, 67, 0
3, 84024, Note_on_c, 0, 68, 72
3, 84047, Note_on_c, 0, 68, 0
3, 89472, End_track
4, 0, Start_track
4, 0, Program_c, 1, 0
4, 0, Control_c, 1, 7, 127
4, 0, Control_c, 1, 10, 64
4, 48, Note_on_c, 1, 39, 79
4, 93, Note_on_c, 1, 39, 0
4, 96, Note_on_c, 1, 43, 79
4, 141, Note_on_c, 1, 43, 0
4, 144, Note_on_c, 1, 46, 79
4, 189, Note_on_c, 1, 46, 0
4, 192, Note_on_c, 1, 51, 79
4, 237, Note_on_c, 1, 51, 0
4, 240, Note_on_c, 1, 56, 79
4, 285, Note_on_c, 1, 56, 0
4, 288, Note_on_c, 1, 55, 79
4, 377, Note_on_c, 1, 55, 0
4, 624, Note_on_c, 1, 39, 79
4, 669, Note_on_c, 1, 39, 0
4, 672, Note_on_c, 1, 43, 79
4, 717, Note_on_c, 1, 43, 0
4, 720, Note_on_c, 1, 46, 79
4, 765, Note_on_c, 1, 46, 0
4, 768, Note_on_c, 1, 51, 79
4, 813, Note_on_c, 1, 51, 0
4, 816, Note_on_c, 1, 56, 79
4, 861, Note_on_c, 1, 56, 0
4, 864, Note_on_c, 1, 55, 79
4, 953, Note_on_c, 1, 55, 0
4, 1200, Note_on_c, 1, 70, 79
4, 1200, Note_on_c, 1, 68, 79
4, 1220, Note_on_c, 1, 70, 0
4, 1220, Note_on_c, 1, 68, 0
4, 1248, Note_on_c, 1, 70, 79
4, 1248, Note_on_c, 1, 68, 79
4, 1268, Note_on_c, 1, 70, 0
4, 1268, Note_on_c, 1, 68, 0
4, 1296, Note_on_c, 1, 70, 79
4, 1296, Note_on_c, 1, 68, 79
4, 1316, Note_on_c, 1, 70, 0
4, 1316, Note_on_c, 1, 68, 0
4, 1344, Note_on_c, 1, 70, 79
4, 1344, Note_on_c, 1, 68, 79
4, 1364, Note_on_c, 1, 70, 0
4, 1364, Note_on_c, 1, 68, 0
4, 1392, Note_on_c, 1, 70, 79
4, 1392, Note_on_c, 1, 68, 79
4, 1412, Note_on_c, 1, 70, 0
4, 1412, Note_on_c, 1, 68, 0
4, 1440, Note_on_c, 1, 70, 79
4, 1705, Note_on_c, 1, 70, 0
4, 1776, Note_on_c, 1, 56, 79
4, 1796, Note_on_c, 1, 56, 0
4, 1824, Note_on_c, 1, 56, 79
4, 1844, Note_on_c, 1, 56, 0
4, 1872, Note_on_c, 1, 56, 79
4, 1892, Note_on_c, 1, 56, 0
4, 1920, Note_on_c, 1, 58, 79
4, 1940, Note_on_c, 1, 58, 0
4, 1968, Note_on_c, 1, 58, 79
4, 1988, Note_on_c, 1, 58, 0
4, 2016, Note_on_c, 1, 51, 79
4, 2105, Note_on_c, 1, 51, 0
4, 2112, Note_on_c, 1, 39, 79
4, 2201, Note_on_c, 1, 39, 0
4, 2352, Note_on_c, 1, 39, 79
4, 2397, Note_on_c, 1, 39, 0
4, 2400, Note_on_c, 1, 43, 79
4, 2445, Note_on_c, 1, 43, 0
4, 2448, Note_on_c, 1, 46, 79
4, 2493, Note_on_c, 1, 46, 0
4, 2496, Note_on_c, 1, 51, 79
4, 2541, Note_on_c, 1, 51, 0
4, 2544, Note_on_c, 1, 56, 79
4, 2589, Note_on_c, 1, 56, 0
4, 2592, Note_on_c, 1, 55, 79
4, 2681, Note_on_c, 1, 55, 0
4, 2880, Note_on_c, 1, 72, 79
4, 2969, Note_on_c, 1, 72, 0
4, 2976, Note_on_c, 1, 70, 79
4, 3065, Note_on_c, 1, 70, 0
4, 3072, Note_on_c, 1, 68, 79
4, 3161, Note_on_c, 1, 68, 0
4, 3264, Note_on_c, 1, 75, 79
4, 3353, Note_on_c, 1, 75, 0
4, 3504, Note_on_c, 1, 68, 79
4, 3504, Note_on_c, 1, 65, 79
4, 3524, Note_on_c, 1, 68, 0
4, 3524, Note_on_c, 1, 65, 0
4, 3552, Note_on_c, 1, 68, 79
4, 3552, Note_on_c, 1, 65, 79
4, 3599, Note_on_c, 1, 68, 0
4, 3599, Note_on_c, 1, 65, 0
4, 3792, Note_on_c, 1, 63, 79
4, 3792, Note_on_c, 1, 60, 79
4, 3812, Note_on_c, 1, 63, 0
4, 3812, Note_on_c, 1, 60, 0
4, 3840, Note_on_c, 1, 63, 79
4, 3840, Note_on_c, 1, 60, 79
4, 3887, Note_on_c, 1, 63, 0
4, 3887, Note_on_c, 1, 60, 0
4, 4080, Note_on_c, 1, 60, 79
4, 4080, Note_on_c, 1, 56, 79
4, 4100, Note_on_c, 1, 60, 0
4, 4100, Note_on_c, 1, 56, 0
4, 4128, Note_on_c, 1, 60, 79
4, 4128, Note_on_c, 1, 56, 79
4, 4175, Note_on_c, 1, 60, 0
4, 4175, Note_on_c, 1, 56, 0
4, 4320, Note_on_c, 1, 56, 79
4, 4320, Note_on_c, 1, 46, 79
4, 4416, Note_on_c, 1, 56, 0
4, 4416, Note_on_c, 1, 46, 0
4, 4416, Note_on_c, 1, 55, 72
4, 4416, Note_on_c, 1, 51, 72
4, 4505, Note_on_c, 1, 55, 0
4, 4505, Note_on_c, 1, 51, 0
4, 4656, Note_on_c, 1, 62, 65
4, 4656, Note_on_c, 1, 59, 65
4, 4704, Note_on_c, 1, 62, 0
4, 4704, Note_on_c, 1, 59, 0
4, 4704, Note_on_c, 1, 63, 65
4, 4704, Note_on_c, 1, 60, 65
4, 4793, Note_on_c, 1, 63, 0
4, 4793, Note_on_c, 1, 60, 0
4, 5232, Note_on_c, 1, 60, 72
4, 5232, Note_on_c, 1, 57, 72
4, 5280, Note_on_c, 1, 60, 0
4, 5280, Note_on_c, 1, 57, 0
4, 5280, Note_on_c, 1, 62, 72
4, 5280, Note_on_c, 1, 58, 72
4, 5369, Note_on_c, 1, 62, 0
4, 5369, Note_on_c, 1, 58, 0
4, 5712, Note_on_c, 1, 62, 72
4, 5712, Note_on_c, 1, 58, 72
4, 5760, Note_on_c, 1, 62, 0
4, 5760, Note_on_c, 1, 58, 0
4, 5760, Note_on_c, 1, 67, 72
4, 5760, Note_on_c, 1, 63, 72
4, 5849, Note_on_c, 1, 67, 0
4, 5849, Note_on_c, 1, 63, 0
4, 6000, Note_on_c, 1, 65, 72
4, 6000, Note_on_c, 1, 62, 72
4, 6048, Note_on_c, 1, 65, 0
4, 6048, Note_on_c, 1, 62, 0
4, 6048, Note_on_c, 1, 67, 72
4, 6048, Note_on_c, 1, 63, 72
4, 6137, Note_on_c, 1, 67, 0
4, 6137, Note_on_c, 1, 63, 0
4, 6336, Note_on_c, 1, 67, 72
4, 6336, Note_on_c, 1, 63, 72
4, 6425, Note_on_c, 1, 67, 0
4, 6425, Note_on_c, 1, 63, 0
4, 6600, Note_on_c, 1, 70, 72
4, 6600, Note_on_c, 1, 64, 72
4, 6623, Note_on_c, 1, 70, 0
4, 6623, Note_on_c, 1, 64, 0
4, 6624, Note_on_c, 1, 70, 72
4, 6713, Note_on_c, 1, 70, 0
4, 6720, Note_on_c, 1, 69, 72
4, 6809, Note_on_c, 1, 69, 0
4, 6960, Note_on_c, 1, 34, 72
4, 7005, Note_on_c, 1, 34, 0
4, 7008, Note_on_c, 1, 46, 72
4, 7097, Note_on_c, 1, 46, 0
4, 7200, Note_on_c, 1, 70, 72
4, 7245, Note_on_c, 1, 70, 0
4, 7296, Note_on_c, 1, 70, 72
4, 7341, Note_on_c, 1, 70, 0
4, 7392, Note_on_c, 1, 70, 72
4, 7437, Note_on_c, 1, 70, 0
4, 7536, Note_on_c, 1, 34, 72
4, 7581, Note_on_c, 1, 34, 0
4, 7584, Note_on_c, 1, 46, 72
4, 7673, Note_on_c, 1, 46, 0
4, 7776, Note_on_c, 1, 70, 72
4, 7821, Note_on_c, 1, 70, 0
4, 7872, Note_on_c, 1, 70, 72
4, 7917, Note_on_c, 1, 70, 0
4, 7968, Note_on_c, 1, 70, 72
4, 8013, Note_on_c, 1, 70, 0
4, 8112, Note_on_c, 1, 74, 65
4, 8112, Note_on_c, 1, 70, 65
4, 8157, Note_on_c, 1, 74, 0
4, 8157, Note_on_c, 1, 70, 0
4, 8160, Note_on_c, 1, 74, 65
4, 8160, Note_on_c, 1, 70, 65
4, 8205, Note_on_c, 1, 74, 0
4, 8205, Note_on_c, 1, 70, 0
4, 8208, Note_on_c, 1, 74, 65
4, 8208, Note_on_c, 1, 70, 65
4, 8253, Note_on_c, 1, 74, 0
4, 8253, Note_on_c, 1, 70, 0
4, 8256, Note_on_c, 1, 74, 65
4, 8256, Note_on_c, 1, 70, 65
4, 8301, Note_on_c, 1, 74, 0
4, 8301, Note_on_c, 1, 70, 0
4, 8304, Note_on_c, 1, 74, 65
4, 8304, Note_on_c, 1, 70, 65
4, 8349, Note_on_c, 1, 74, 0
4, 8349, Note_on_c, 1, 70, 0
4, 8400, Note_on_c, 1, 72, 65
4, 8400, Note_on_c, 1, 69, 65
4, 8445, Note_on_c, 1, 72, 0
4, 8445, Note_on_c, 1, 69, 0
4, 8448, Note_on_c, 1, 72, 65
4, 8448, Note_on_c, 1, 69, 65
4, 8493, Note_on_c, 1, 72, 0
4, 8493, Note_on_c, 1, 69, 0
4, 8496, Note_on_c, 1, 72, 65
4, 8496, Note_on_c, 1, 69, 65
4, 8541, Note_on_c, 1, 72, 0
4, 8541, Note_on_c, 1, 69, 0
4, 8544, Note_on_c, 1, 72, 65
4, 8544, Note_on_c, 1, 69, 65
4, 8589, Note_on_c, 1, 72, 0
4, 8589, Note_on_c, 1, 69, 0
4, 8592, Note_on_c, 1, 72, 65
4, 8592, Note_on_c, 1, 69, 65
4, 8637, Note_on_c, 1, 72, 0
4, 8637, Note_on_c, 1, 69, 0
4, 8688, Note_on_c, 1, 70, 65
4, 8688, Note_on_c, 1, 67, 65
4, 8733, Note_on_c, 1, 70, 0
4, 8733, Note_on_c, 1, 67, 0
4, 8736, Note_on_c, 1, 70, 65
4, 8736, Note_on_c, 1, 67, 65
4, 8781, Note_on_c, 1, 70, 0
4, 8781, Note_on_c, 1, 67, 0
4, 8784, Note_on_c, 1, 70, 65
4, 8784, Note_on_c, 1, 67, 65
4, 8829, Note_on_c, 1, 70, 0
4, 8829, Note_on_c, 1, 67, 0
4, 8832, Note_on_c, 1, 70, 65
4, 8832, Note_on_c, 1, 67, 65
4, 8877, Note_on_c, 1, 70, 0
4, 8877, Note_on_c, 1, 67, 0
4, 8880, Note_on_c, 1, 70, 65
4, 8880, Note_on_c, 1, 67, 65
4, 8925, Note_on_c, 1, 70, 0
4, 8925, Note_on_c, 1, 67, 0
4, 8976, Note_on_c, 1, 69, 65
4, 8976, Note_on_c, 1, 65, 65
4, 9021, Note_on_c, 1, 69, 0
4, 9021, Note_on_c, 1, 65, 0
4, 9024, Note_on_c, 1, 69, 65
4, 9024, Note_on_c, 1, 65, 65
4, 9069, Note_on_c, 1, 69, 0
4, 9069, Note_on_c, 1, 65, 0
4, 9072, Note_on_c, 1, 69, 66
4, 9072, Note_on_c, 1, 65, 66
4, 9117, Note_on_c, 1, 69, 0
4, 9117, Note_on_c, 1, 65, 0
4, 9120, Note_on_c, 1, 70, 66
4, 9120, Note_on_c, 1, 65, 66
4, 9165, Note_on_c, 1, 70, 0
4, 9165, Note_on_c, 1, 65, 0
4, 9168, Note_on_c, 1, 70, 67
4, 9168, Note_on_c, 1, 65, 67
4, 9213, Note_on_c, 1, 70, 0
4, 9213, Note_on_c, 1, 65, 0
4, 9264, Note_on_c, 1, 70, 68
4, 9264, Note_on_c, 1, 63, 68
4, 9309, Note_on_c, 1, 70, 0
4, 9309, Note_on_c, 1, 63, 0
4, 9312, Note_on_c, 1, 70, 69
4, 9312, Note_on_c, 1, 63, 69
4, 9357, Note_on_c, 1, 70, 0
4, 9357, Note_on_c, 1, 63, 0
4, 9360, Note_on_c, 1, 70, 70
4, 9360, Note_on_c, 1, 63, 70
4, 9405, Note_on_c, 1, 70, 0
4, 9405, Note_on_c, 1, 63, 0
4, 9408, Note_on_c, 1, 72, 70
4, 9408, Note_on_c, 1, 63, 70
4, 9453, Note_on_c, 1, 72, 0
4, 9453, Note_on_c, 1, 63, 0
4, 9456, Note_on_c, 1, 72, 71
4, 9456, Note_on_c, 1, 63, 71
4, 9501, Note_on_c, 1, 72, 0
4, 9501, Note_on_c, 1, 63, 0
4, 9552, Note_on_c, 1, 65, 72
4, 9552, Note_on_c, 1, 62, 72
4, 9597, Note_on_c, 1, 65, 0
4, 9597, Note_on_c, 1, 62, 0
4, 9600, Note_on_c, 1, 65, 72
4, 9600, Note_on_c, 1, 62, 72
4, 9645, Note_on_c, 1, 65, 0
4, 9645, Note_on_c, 1, 62, 0
4, 9648, Note_on_c, 1, 65, 72
4, 9648, Note_on_c, 1, 62, 72
4, 9693, Note_on_c, 1, 65, 0
4, 9693, Note_on_c, 1, 62, 0
4, 9696, Note_on_c, 1, 70, 72
4, 9696, Note_on_c, 1, 62, 72
4, 9741, Note_on_c, 1, 70, 0
4, 9741, Note_on_c, 1, 62, 0
4, 9744, Note_on_c, 1, 70, 72
4, 9744, Note_on_c, 1, 62, 72
4, 9789, Note_on_c, 1, 70, 0
4, 9789, Note_on_c, 1, 62, 0
4, 9792, Note_on_c, 1, 70, 72
4, 9792, Note_on_c, 1, 63, 72
4, 9837, Note_on_c, 1, 70, 0
4, 9837, Note_on_c, 1, 63, 0
4, 9840, Note_on_c, 1, 70, 70
4, 9840, Note_on_c, 1, 63, 70
4, 9885, Note_on_c, 1, 70, 0
4, 9885, Note_on_c, 1, 63, 0
4, 9888, Note_on_c, 1, 70, 69
4, 9888, Note_on_c, 1, 65, 69
4, 9933, Note_on_c, 1, 70, 0
4, 9933, Note_on_c, 1, 65, 0
4, 9936, Note_on_c, 1, 70, 68
4, 9936, Note_on_c, 1, 65, 68
4, 9981, Note_on_c, 1, 70, 0
4, 9981, Note_on_c, 1, 65, 0
4, 9984, Note_on_c, 1, 69, 67
4, 9984, Note_on_c, 1, 65, 67
4, 10029, Note_on_c, 1, 69, 0
4, 10029, Note_on_c, 1, 65, 0
4, 10032, Note_on_c, 1, 69, 66
4, 10032, Note_on_c, 1, 65, 66
4, 10077, Note_on_c, 1, 69, 0
4, 10077, Note_on_c, 1, 65, 0
4, 10080, Note_on_c, 1, 67, 72
4, 10257, Note_on_c, 1, 67, 0
4, 10272, Note_on_c, 1, 70, 72
4, 10545, Note_on_c, 1, 70, 0
4, 10560, Note_on_c, 1, 69, 72
4, 10811, Note_on_c, 1, 69, 0
4, 11280, Note_on_c, 1, 63, 65
4, 11280, Note_on_c, 1, 57, 65
4, 11280, Note_on_c, 1, 53, 65
4, 11325, Note_on_c, 1, 63, 0
4, 11325, Note_on_c, 1, 57, 0
4, 11325, Note_on_c, 1, 53, 0
4, 11328, Note_on_c, 1, 63, 65
4, 11328, Note_on_c, 1, 57, 65
4, 11328, Note_on_c, 1, 53, 65
4, 11373, Note_on_c, 1, 63, 0
4, 11373, Note_on_c, 1, 57, 0
4, 11373, Note_on_c, 1, 53, 0
4, 11376, Note_on_c, 1, 63, 65
4, 11376, Note_on_c, 1, 57, 65
4, 11376, Note_on_c, 1, 53, 65
4, 11421, Note_on_c, 1, 63, 0
4, 11421, Note_on_c, 1, 57, 0
4, 11421, Note_on_c, 1, 53, 0
4, 11568, Note_on_c, 1, 62, 65
4, 11568, Note_on_c, 1, 58, 65
4, 11568, Note_on_c, 1, 53, 65
4, 11613, Note_on_c, 1, 62, 0
4, 11613, Note_on_c, 1, 58, 0
4, 11613, Note_on_c, 1, 53, 0
4, 11616, Note_on_c, 1, 62, 65
4, 11616, Note_on_c, 1, 58, 65
4, 11616, Note_on_c, 1, 53, 65
4, 11661, Note_on_c, 1, 62, 0
4, 11661, Note_on_c, 1, 58, 0
4, 11661, Note_on_c, 1, 53, 0
4, 11664, Note_on_c, 1, 62, 65
4, 11664, Note_on_c, 1, 58, 65
4, 11664, Note_on_c, 1, 53, 65
4, 11709, Note_on_c, 1, 62, 0
4, 11709, Note_on_c, 1, 58, 0
4, 11709, Note_on_c, 1, 53, 0
4, 11856, Note_on_c, 1, 60, 65
4, 11856, Note_on_c, 1, 57, 65
4, 11856, Note_on_c, 1, 53, 65
4, 11901, Note_on_c, 1, 60, 0
4, 11901, Note_on_c, 1, 57, 0
4, 11901, Note_on_c, 1, 53, 0
4, 11904, Note_on_c, 1, 60, 65
4, 11904, Note_on_c, 1, 57, 65
4, 11904, Note_on_c, 1, 53, 65
4, 11949, Note_on_c, 1, 60, 0
4, 11949, Note_on_c, 1, 57, 0
4, 11949, Note_on_c, 1, 53, 0
4, 11952, Note_on_c, 1, 60, 65
4, 11952, Note_on_c, 1, 57, 65
4, 11952, Note_on_c, 1, 53, 65
4, 11997, Note_on_c, 1, 60, 0
4, 11997, Note_on_c, 1, 57, 0
4, 11997, Note_on_c, 1, 53, 0
4, 12144, Note_on_c, 1, 53, 79
4, 12144, Note_on_c, 1, 50, 79
4, 12189, Note_on_c, 1, 53, 0
4, 12189, Note_on_c, 1, 50, 0
4, 12192, Note_on_c, 1, 58, 79
4, 12281, Note_on_c, 1, 58, 0
4, 12432, Note_on_c, 1, 63, 79
4, 12477, Note_on_c, 1, 63, 0
4, 12480, Note_on_c, 1, 62, 79
4, 12569, Note_on_c, 1, 62, 0
4, 12576, Note_on_c, 1, 60, 79
4, 12665, Note_on_c, 1, 60, 0
4, 12672, Note_on_c, 1, 58, 79
4, 12761, Note_on_c, 1, 58, 0
4, 12768, Note_on_c, 1, 67, 79
4, 12807, Note_on_c, 1, 67, 0
4, 12864, Note_on_c, 1, 65, 79
4, 12903, Note_on_c, 1, 65, 0
4, 12960, Note_on_c, 1, 63, 79
4, 12999, Note_on_c, 1, 63, 0
4, 13152, Note_on_c, 1, 74, 79
4, 13152, Note_on_c, 1, 70, 79
4, 13241, Note_on_c, 1, 74, 0
4, 13241, Note_on_c, 1, 70, 0
4, 13248, Note_on_c, 1, 67, 79
4, 13248, Note_on_c, 1, 63, 79
4, 13337, Note_on_c, 1, 67, 0
4, 13337, Note_on_c, 1, 63, 0
4, 13344, Note_on_c, 1, 65, 79
4, 13433, Note_on_c, 1, 65, 0
4, 13440, Note_on_c, 1, 53, 79
4, 13529, Note_on_c, 1, 53, 0
4, 13536, Note_on_c, 1, 34, 79
4, 13625, Note_on_c, 1, 34, 0
4, 13632, Note_on_c, 1, 67, 79
4, 13671, Note_on_c, 1, 67, 0
4, 13728, Note_on_c, 1, 65, 79
4, 13767, Note_on_c, 1, 65, 0
4, 13824, Note_on_c, 1, 63, 79
4, 13863, Note_on_c, 1, 63, 0
4, 14016, Note_on_c, 1, 74, 79
4, 14016, Note_on_c, 1, 70, 79
4, 14105, Note_on_c, 1, 74, 0
4, 14105, Note_on_c, 1, 70, 0
4, 14112, Note_on_c, 1, 67, 79
4, 14112, Note_on_c, 1, 63, 79
4, 14201, Note_on_c, 1, 67, 0
4, 14201, Note_on_c, 1, 63, 0
4, 14208, Note_on_c, 1, 65, 79
4, 14297, Note_on_c, 1, 65, 0
4, 14304, Note_on_c, 1, 53, 79
4, 14393, Note_on_c, 1, 53, 0
4, 14448, Note_on_c, 1, 34, 79
4, 14493, Note_on_c, 1, 34, 0
4, 14496, Note_on_c, 1, 46, 79
4, 14585, Note_on_c, 1, 46, 0
4, 14736, Note_on_c, 1, 34, 79
4, 14781, Note_on_c, 1, 34, 0
4, 14784, Note_on_c, 1, 46, 79
4, 14873, Note_on_c, 1, 46, 0
4, 15024, Note_on_c, 1, 34, 79
4, 15069, Note_on_c, 1, 34, 0
4, 15072, Note_on_c, 1, 46, 79
4, 15161, Note_on_c, 1, 46, 0
4, 15312, Note_on_c, 1, 34, 79
4, 15357, Note_on_c, 1, 34, 0
4, 15360, Note_on_c, 1, 46, 79
4, 15449, Note_on_c, 1, 46, 0
4, 15600, Note_on_c, 1, 34, 79
4, 15645, Note_on_c, 1, 34, 0
4, 15648, Note_on_c, 1, 46, 80
4, 15668, Note_on_c, 1, 46, 0
4, 15696, Note_on_c, 1, 62, 81
4, 15716, Note_on_c, 1, 62, 0
4, 15744, Note_on_c, 1, 63, 81
4, 15764, Note_on_c, 1, 63, 0
4, 15792, Note_on_c, 1, 60, 82
4, 15812, Note_on_c, 1, 60, 0
4, 15840, Note_on_c, 1, 62, 83
4, 15860, Note_on_c, 1, 62, 0
4, 15888, Note_on_c, 1, 57, 83
4, 15908, Note_on_c, 1, 57, 0
4, 15936, Note_on_c, 1, 58, 84
4, 15956, Note_on_c, 1, 58, 0
4, 16128, Note_on_c, 1, 39, 72
4, 16217, Note_on_c, 1, 39, 0
4, 16320, Note_on_c, 1, 51, 72
4, 16320, Note_on_c, 1, 41, 72
4, 16416, Note_on_c, 1, 41, 0
4, 16505, Note_on_c, 1, 51, 0
4, 16512, Note_on_c, 1, 50, 67
4, 16601, Note_on_c, 1, 50, 0
4, 16752, Note_on_c, 1, 39, 79
4, 16797, Note_on_c, 1, 39, 0
4, 16800, Note_on_c, 1, 43, 79
4, 16845, Note_on_c, 1, 43, 0
4, 16848, Note_on_c, 1, 46, 79
4, 16893, Note_on_c, 1, 46, 0
4, 16896, Note_on_c, 1, 51, 79
4, 16941, Note_on_c, 1, 51, 0
4, 16944, Note_on_c, 1, 56, 79
4, 16989, Note_on_c, 1, 56, 0
4, 16992, Note_on_c, 1, 55, 79
4, 17081, Note_on_c, 1, 55, 0
4, 17328, Note_on_c, 1, 39, 79
4, 17373, Note_on_c, 1, 39, 0
4, 17376, Note_on_c, 1, 43, 79
4, 17421, Note_on_c, 1, 43, 0
4, 17424, Note_on_c, 1, 46, 79
4, 17469, Note_on_c, 1, 46, 0
4, 17472, Note_on_c, 1, 51, 79
4, 17517, Note_on_c, 1, 51, 0
4, 17520, Note_on_c, 1, 56, 79
4, 17565, Note_on_c, 1, 56, 0
4, 17568, Note_on_c, 1, 55, 79
4, 17657, Note_on_c, 1, 55, 0
4, 17904, Note_on_c, 1, 70, 79
4, 17904, Note_on_c, 1, 68, 79
4, 17924, Note_on_c, 1, 70, 0
4, 17924, Note_on_c, 1, 68, 0
4, 17952, Note_on_c, 1, 70, 79
4, 17952, Note_on_c, 1, 68, 79
4, 17972, Note_on_c, 1, 70, 0
4, 17972, Note_on_c, 1, 68, 0
4, 18000, Note_on_c, 1, 70, 79
4, 18000, Note_on_c, 1, 68, 79
4, 18020, Note_on_c, 1, 70, 0
4, 18020, Note_on_c, 1, 68, 0
4, 18048, Note_on_c, 1, 70, 79
4, 18048, Note_on_c, 1, 68, 79
4, 18068, Note_on_c, 1, 70, 0
4, 18068, Note_on_c, 1, 68, 0
4, 18096, Note_on_c, 1, 70, 79
4, 18096, Note_on_c, 1, 68, 79
4, 18116, Note_on_c, 1, 70, 0
4, 18116, Note_on_c, 1, 68, 0
4, 18144, Note_on_c, 1, 70, 79
4, 18409, Note_on_c, 1, 70, 0
4, 18480, Note_on_c, 1, 56, 79
4, 18500, Note_on_c, 1, 56, 0
4, 18528, Note_on_c, 1, 56, 79
4, 18548, Note_on_c, 1, 56, 0
4, 18576, Note_on_c, 1, 56, 79
4, 18596, Note_on_c, 1, 56, 0
4, 18624, Note_on_c, 1, 58, 79
4, 18644, Note_on_c, 1, 58, 0
4, 18672, Note_on_c, 1, 58, 79
4, 18692, Note_on_c, 1, 58, 0
4, 18720, Note_on_c, 1, 51, 79
4, 18809, Note_on_c, 1, 51, 0
4, 18816, Note_on_c, 1, 39, 79
4, 18905, Note_on_c, 1, 39, 0
4, 19056, Note_on_c, 1, 39, 79
4, 19101, Note_on_c, 1, 39, 0
4, 19104, Note_on_c, 1, 43, 79
4, 19149, Note_on_c, 1, 43, 0
4, 19152, Note_on_c, 1, 46, 79
4, 19197, Note_on_c, 1, 46, 0
4, 19200, Note_on_c, 1, 51, 79
4, 19245, Note_on_c, 1, 51, 0
4, 19248, Note_on_c, 1, 56, 79
4, 19293, Note_on_c, 1, 56, 0
4, 19296, Note_on_c, 1, 55, 79
4, 19385, Note_on_c, 1, 55, 0
4, 19584, Note_on_c, 1, 72, 79
4, 19673, Note_on_c, 1, 72, 0
4, 19680, Note_on_c, 1, 70, 79
4, 19769, Note_on_c, 1, 70, 0
4, 19776, Note_on_c, 1, 68, 79
4, 19865, Note_on_c, 1, 68, 0
4, 19968, Note_on_c, 1, 75, 79
4, 20057, Note_on_c, 1, 75, 0
4, 20208, Note_on_c, 1, 68, 79
4, 20208, Note_on_c, 1, 65, 79
4, 20228, Note_on_c, 1, 68, 0
4, 20228, Note_on_c, 1, 65, 0
4, 20256, Note_on_c, 1, 68, 79
4, 20256, Note_on_c, 1, 65, 79
4, 20303, Note_on_c, 1, 68, 0
4, 20303, Note_on_c, 1, 65, 0
4, 20496, Note_on_c, 1, 63, 79
4, 20496, Note_on_c, 1, 60, 79
4, 20516, Note_on_c, 1, 63, 0
4, 20516, Note_on_c, 1, 60, 0
4, 20544, Note_on_c, 1, 63, 79
4, 20544, Note_on_c, 1, 60, 79
4, 20591, Note_on_c, 1, 63, 0
4, 20591, Note_on_c, 1, 60, 0
4, 20784, Note_on_c, 1, 60, 79
4, 20784, Note_on_c, 1, 56, 79
4, 20804, Note_on_c, 1, 60, 0
4, 20804, Note_on_c, 1, 56, 0
4, 20832, Note_on_c, 1, 60, 79
4, 20832, Note_on_c, 1, 56, 79
4, 20879, Note_on_c, 1, 60, 0
4, 20879, Note_on_c, 1, 56, 0
4, 21024, Note_on_c, 1, 56, 79
4, 21024, Note_on_c, 1, 46, 79
4, 21120, Note_on_c, 1, 56, 0
4, 21120, Note_on_c, 1, 46, 0
4, 21120, Note_on_c, 1, 55, 72
4, 21120, Note_on_c, 1, 51, 72
4, 21209, Note_on_c, 1, 55, 0
4, 21209, Note_on_c, 1, 51, 0
4, 21360, Note_on_c, 1, 62, 65
4, 21360, Note_on_c, 1, 59, 65
4, 21408, Note_on_c, 1, 62, 0
4, 21408, Note_on_c, 1, 59, 0
4, 21408, Note_on_c, 1, 63, 65
4, 21408, Note_on_c, 1, 60, 65
4, 21497, Note_on_c, 1, 63, 0
4, 21497, Note_on_c, 1, 60, 0
4, 21936, Note_on_c, 1, 60, 72
4, 21936, Note_on_c, 1, 57, 72
4, 21984, Note_on_c, 1, 60, 0
4, 21984, Note_on_c, 1, 57, 0
4, 21984, Note_on_c, 1, 62, 72
4, 21984, Note_on_c, 1, 58, 72
4, 22073, Note_on_c, 1, 62, 0
4, 22073, Note_on_c, 1, 58, 0
4, 22416, Note_on_c, 1, 62, 72
4, 22416, Note_on_c, 1, 58, 72
4, 22464, Note_on_c, 1, 62, 0
4, 22464, Note_on_c, 1, 58, 0
4, 22464, Note_on_c, 1, 67, 72
4, 22464, Note_on_c, 1, 63, 72
4, 22553, Note_on_c, 1, 67, 0
4, 22553, Note_on_c, 1, 63, 0
4, 22704, Note_on_c, 1, 65, 72
4, 22704, Note_on_c, 1, 62, 72
4, 22752, Note_on_c, 1, 65, 0
4, 22752, Note_on_c, 1, 62, 0
4, 22752, Note_on_c, 1, 67, 72
4, 22752, Note_on_c, 1, 63, 72
4, 22841, Note_on_c, 1, 67, 0
4, 22841, Note_on_c, 1, 63, 0
4, 23040, Note_on_c, 1, 67, 72
4, 23040, Note_on_c, 1, 63, 72
4, 23129, Note_on_c, 1, 67, 0
4, 23129, Note_on_c, 1, 63, 0
4, 23304, Note_on_c, 1, 70, 72
4, 23304, Note_on_c, 1, 64, 72
4, 23327, Note_on_c, 1, 70, 0
4, 23327, Note_on_c, 1, 64, 0
4, 23328, Note_on_c, 1, 70, 72
4, 23417, Note_on_c, 1, 70, 0
4, 23424, Note_on_c, 1, 69, 72
4, 23513, Note_on_c, 1, 69, 0
4, 23664, Note_on_c, 1, 34, 72
4, 23709, Note_on_c, 1, 34, 0
4, 23712, Note_on_c, 1, 46, 72
4, 23801, Note_on_c, 1, 46, 0
4, 23904, Note_on_c, 1, 70, 72
4, 23949, Note_on_c, 1, 70, 0
4, 24000, Note_on_c, 1, 70, 72
4, 24045, Note_on_c, 1, 70, 0
4, 24096, Note_on_c, 1, 70, 72
4, 24141, Note_on_c, 1, 70, 0
4, 24240, Note_on_c, 1, 34, 72
4, 24285, Note_on_c, 1, 34, 0
4, 24288, Note_on_c, 1, 46, 72
4, 24377, Note_on_c, 1, 46, 0
4, 24480, Note_on_c, 1, 70, 72
4, 24525, Note_on_c, 1, 70, 0
4, 24576, Note_on_c, 1, 70, 72
4, 24621, Note_on_c, 1, 70, 0
4, 24672, Note_on_c, 1, 70, 72
4, 24717, Note_on_c, 1, 70, 0
4, 24816, Note_on_c, 1, 74, 65
4, 24816, Note_on_c, 1, 70, 65
4, 24861, Note_on_c, 1, 74, 0
4, 24861, Note_on_c, 1, 70, 0
4, 24864, Note_on_c, 1, 74, 65
4, 24864, Note_on_c, 1, 70, 65
4, 24909, Note_on_c, 1, 74, 0
4, 24909, Note_on_c, 1, 70, 0
4, 24912, Note_on_c, 1, 74, 65
4, 24912, Note_on_c, 1, 70, 65
4, 24957, Note_on_c, 1, 74, 0
4, 24957, Note_on_c, 1, 70, 0
4, 24960, Note_on_c, 1, 74, 65
4, 24960, Note_on_c, 1, 70, 65
4, 25005, Note_on_c, 1, 74, 0
4, 25005, Note_on_c, 1, 70, 0
4, 25008, Note_on_c, 1, 74, 65
4, 25008, Note_on_c, 1, 70, 65
4, 25053, Note_on_c, 1, 74, 0
4, 25053, Note_on_c, 1, 70, 0
4, 25104, Note_on_c, 1, 72, 65
4, 25104, Note_on_c, 1, 69, 65
4, 25149, Note_on_c, 1, 72, 0
4, 25149, Note_on_c, 1, 69, 0
4, 25152, Note_on_c, 1, 72, 65
4, 25152, Note_on_c, 1, 69, 65
4, 25197, Note_on_c, 1, 72, 0
4, 25197, Note_on_c, 1, 69, 0
4, 25200, Note_on_c, 1, 72, 65
4, 25200, Note_on_c, 1, 69, 65
4, 25245, Note_on_c, 1, 72, 0
4, 25245, Note_on_c, 1, 69, 0
4, 25248, Note_on_c, 1, 72, 65
4, 25248, Note_on_c, 1, 69, 65
4, 25293, Note_on_c, 1, 72, 0
4, 25293, Note_on_c, 1, 69, 0
4, 25296, Note_on_c, 1, 72, 65
4, 25296, Note_on_c, 1, 69, 65
4, 25341, Note_on_c, 1, 72, 0
4, 25341, Note_on_c, 1, 69, 0
4, 25392, Note_on_c, 1, 70, 65
4, 25392, Note_on_c, 1, 67, 65
4, 25437, Note_on_c, 1, 70, 0
4, 25437, Note_on_c, 1, 67, 0
4, 25440, Note_on_c, 1, 70, 65
4, 25440, Note_on_c, 1, 67, 65
4, 25485, Note_on_c, 1, 70, 0
4, 25485, Note_on_c, 1, 67, 0
4, 25488, Note_on_c, 1, 70, 65
4, 25488, Note_on_c, 1, 67, 65
4, 25533, Note_on_c, 1, 70, 0
4, 25533, Note_on_c, 1, 67, 0
4, 25536, Note_on_c, 1, 70, 65
4, 25536, Note_on_c, 1, 67, 65
4, 25581, Note_on_c, 1, 70, 0
4, 25581, Note_on_c, 1, 67, 0
4, 25584, Note_on_c, 1, 70, 65
4, 25584, Note_on_c, 1, 67, 65
4, 25629, Note_on_c, 1, 70, 0
4, 25629, Note_on_c, 1, 67, 0
4, 25680, Note_on_c, 1, 69, 65
4, 25680, Note_on_c, 1, 65, 65
4, 25725, Note_on_c, 1, 69, 0
4, 25725, Note_on_c, 1, 65, 0
4, 25728, Note_on_c, 1, 69, 65
4, 25728, Note_on_c, 1, 65, 65
4, 25773, Note_on_c, 1, 69, 0
4, 25773, Note_on_c, 1, 65, 0
4, 25776, Note_on_c, 1, 69, 66
4, 25776, Note_on_c, 1, 65, 66
4, 25821, Note_on_c, 1, 69, 0
4, 25821, Note_on_c, 1, 65, 0
4, 25824, Note_on_c, 1, 70, 66
4, 25824, Note_on_c, 1, 65, 66
4, 25869, Note_on_c, 1, 70, 0
4, 25869, Note_on_c, 1, 65, 0
4, 25872, Note_on_c, 1, 70, 67
4, 25872, Note_on_c, 1, 65, 67
4, 25917, Note_on_c, 1, 70, 0
4, 25917, Note_on_c, 1, 65, 0
4, 25968, Note_on_c, 1, 70, 68
4, 25968, Note_on_c, 1, 63, 68
4, 26013, Note_on_c, 1, 70, 0
4, 26013, Note_on_c, 1, 63, 0
4, 26016, Note_on_c, 1, 70, 69
4, 26016, Note_on_c, 1, 63, 69
4, 26061, Note_on_c, 1, 70, 0
4, 26061, Note_on_c, 1, 63, 0
4, 26064, Note_on_c, 1, 70, 70
4, 26064, Note_on_c, 1, 63, 70
4, 26109, Note_on_c, 1, 70, 0
4, 26109, Note_on_c, 1, 63, 0
4, 26112, Note_on_c, 1, 72, 70
4, 26112, Note_on_c, 1, 63, 70
4, 26157, Note_on_c, 1, 72, 0
4, 26157, Note_on_c, 1, 63, 0
4, 26160, Note_on_c, 1, 72, 71
4, 26160, Note_on_c, 1, 63, 71
4, 26205, Note_on_c, 1, 72, 0
4, 26205, Note_on_c, 1, 63, 0
4, 26256, Note_on_c, 1, 65, 72
4, 26256, Note_on_c, 1, 62, 72
4, 26301, Note_on_c, 1, 65, 0
4, 26301, Note_on_c, 1, 62, 0
4, 26304, Note_on_c, 1, 65, 72
4, 26304, Note_on_c, 1, 62, 72
4, 26349, Note_on_c, 1, 65, 0
4, 26349, Note_on_c, 1, 62, 0
4, 26352, Note_on_c, 1, 65, 72
4, 26352, Note_on_c, 1, 62, 72
4, 26397, Note_on_c, 1, 65, 0
4, 26397, Note_on_c, 1, 62, 0
4, 26400, Note_on_c, 1, 70, 72
4, 26400, Note_on_c, 1, 62, 72
4, 26445, Note_on_c, 1, 70, 0
4, 26445, Note_on_c, 1, 62, 0
4, 26448, Note_on_c, 1, 70, 72
4, 26448, Note_on_c, 1, 62, 72
4, 26493, Note_on_c, 1, 70, 0
4, 26493, Note_on_c, 1, 62, 0
4, 26496, Note_on_c, 1, 70, 72
4, 26496, Note_on_c, 1, 63, 72
4, 26541, Note_on_c, 1, 70, 0
4, 26541, Note_on_c, 1, 63, 0
4, 26544, Note_on_c, 1, 70, 70
4, 26544, Note_on_c, 1, 63, 70
4, 26589, Note_on_c, 1, 70, 0
4, 26589, Note_on_c, 1, 63, 0
4, 26592, Note_on_c, 1, 70, 69
4, 26592, Note_on_c, 1, 65, 69
4, 26637, Note_on_c, 1, 70, 0
4, 26637, Note_on_c, 1, 65, 0
4, 26640, Note_on_c, 1, 70, 68
4, 26640, Note_on_c, 1, 65, 68
4, 26685, Note_on_c, 1, 70, 0
4, 26685, Note_on_c, 1, 65, 0
4, 26688, Note_on_c, 1, 69, 67
4, 26688, Note_on_c, 1, 65, 67
4, 26733, Note_on_c, 1, 69, 0
4, 26733, Note_on_c, 1, 65, 0
4, 26736, Note_on_c, 1, 69, 66
4, 26736, Note_on_c, 1, 65, 66
4, 26781, Note_on_c, 1, 69, 0
4, 26781, Note_on_c, 1, 65, 0
4, 26784, Note_on_c, 1, 67, 72
4, 26961, Note_on_c, 1, 67, 0
4, 26976, Note_on_c, 1, 70, 72
4, 27249, Note_on_c, 1, 70, 0
4, 27264, Note_on_c, 1, 69, 72
4, 27515, Note_on_c, 1, 69, 0
4, 27984, Note_on_c, 1, 63, 65
4, 27984, Note_on_c, 1, 57, 65
4, 27984, Note_on_c, 1, 53, 65
4, 28029, Note_on_c, 1, 63, 0
4, 28029, Note_on_c, 1, 57, 0
4, 28029, Note_on_c, 1, 53, 0
4, 28032, Note_on_c, 1, 63, 65
4, 28032, Note_on_c, 1, 57, 65
4, 28032, Note_on_c, 1, 53, 65
4, 28077, Note_on_c, 1, 63, 0
4, 28077, Note_on_c, 1, 57, 0
4, 28077, Note_on_c, 1, 53, 0
4, 28080, Note_on_c, 1, 63, 65
4, 28080, Note_on_c, 1, 57, 65
4, 28080, Note_on_c, 1, 53, 65
4, 28125, Note_on_c, 1, 63, 0
4, 28125, Note_on_c, 1, 57, 0
4, 28125, Note_on_c, 1, 53, 0
4, 28272, Note_on_c, 1, 62, 65
4, 28272, Note_on_c, 1, 58, 65
4, 28272, Note_on_c, 1, 53, 65
4, 28317, Note_on_c, 1, 62, 0
4, 28317, Note_on_c, 1, 58, 0
4, 28317, Note_on_c, 1, 53, 0
4, 28320, Note_on_c, 1, 62, 65
4, 28320, Note_on_c, 1, 58, 65
4, 28320, Note_on_c, 1, 53, 65
4, 28365, Note_on_c, 1, 62, 0
4, 28365, Note_on_c, 1, 58, 0
4, 28365, Note_on_c, 1, 53, 0
4, 28368, Note_on_c, 1, 62, 65
4, 28368, Note_on_c, 1, 58, 65
4, 28368, Note_on_c, 1, 53, 65
4, 28413, Note_on_c, 1, 62, 0
4, 28413, Note_on_c, 1, 58, 0
4, 28413, Note_on_c, 1, 53, 0
4, 28560, Note_on_c, 1, 60, 65
4, 28560, Note_on_c, 1, 57, 65
4, 28560, Note_on_c, 1, 53, 65
4, 28605, Note_on_c, 1, 60, 0
4, 28605, Note_on_c, 1, 57, 0
4, 28605, Note_on_c, 1, 53, 0
4, 28608, Note_on_c, 1, 60, 65
4, 28608, Note_on_c, 1, 57, 65
4, 28608, Note_on_c, 1, 53, 65
4, 28653, Note_on_c, 1, 60, 0
4, 28653, Note_on_c, 1, 57, 0
4, 28653, Note_on_c, 1, 53, 0
4, 28656, Note_on_c, 1, 60, 65
4, 28656, Note_on_c, 1, 57, 65
4, 28656, Note_on_c, 1, 53, 65
4, 28701, Note_on_c, 1, 60, 0
4, 28701, Note_on_c, 1, 57, 0
4, 28701, Note_on_c, 1, 53, 0
4, 28848, Note_on_c, 1, 53, 79
4, 28848, Note_on_c, 1, 50, 79
4, 28893, Note_on_c, 1, 53, 0
4, 28893, Note_on_c, 1, 50, 0
4, 28896, Note_on_c, 1, 58, 79
4, 28985, Note_on_c, 1, 58, 0
4, 29136, Note_on_c, 1, 63, 79
4, 29181, Note_on_c, 1, 63, 0
4, 29184, Note_on_c, 1, 62, 79
4, 29273, Note_on_c, 1, 62, 0
4, 29280, Note_on_c, 1, 60, 79
4, 29369, Note_on_c, 1, 60, 0
4, 29376, Note_on_c, 1, 58, 79
4, 29465, Note_on_c, 1, 58, 0
4, 29472, Note_on_c, 1, 67, 79
4, 29511, Note_on_c, 1, 67, 0
4, 29568, Note_on_c, 1, 65, 79
4, 29607, Note_on_c, 1, 65, 0
4, 29664, Note_on_c, 1, 63, 79
4, 29703, Note_on_c, 1, 63, 0
4, 29856, Note_on_c, 1, 74, 79
4, 29856, Note_on_c, 1, 70, 79
4, 29945, Note_on_c, 1, 74, 0
4, 29945, Note_on_c, 1, 70, 0
4, 29952, Note_on_c, 1, 67, 79
4, 29952, Note_on_c, 1, 63, 79
4, 30041, Note_on_c, 1, 67, 0
4, 30041, Note_on_c, 1, 63, 0
4, 30048, Note_on_c, 1, 65, 79
4, 30137, Note_on_c, 1, 65, 0
4, 30144, Note_on_c, 1, 53, 79
4, 30233, Note_on_c, 1, 53, 0
4, 30240, Note_on_c, 1, 34, 79
4, 30329, Note_on_c, 1, 34, 0
4, 30336, Note_on_c, 1, 67, 79
4, 30375, Note_on_c, 1, 67, 0
4, 30432, Note_on_c, 1, 65, 79
4, 30471, Note_on_c, 1, 65, 0
4, 30528, Note_on_c, 1, 63, 79
4, 30567, Note_on_c, 1, 63, 0
4, 30720, Note_on_c, 1, 74, 79
4, 30720, Note_on_c, 1, 70, 79
4, 30809, Note_on_c, 1, 74, 0
4, 30809, Note_on_c, 1, 70, 0
4, 30816, Note_on_c, 1, 67, 79
4, 30816, Note_on_c, 1, 63, 79
4, 30905, Note_on_c, 1, 67, 0
4, 30905, Note_on_c, 1, 63, 0
4, 30912, Note_on_c, 1, 65, 79
4, 31001, Note_on_c, 1, 65, 0
4, 31008, Note_on_c, 1, 53, 79
4, 31097, Note_on_c, 1, 53, 0
4, 31152, Note_on_c, 1, 34, 79
4, 31197, Note_on_c, 1, 34, 0
4, 31200, Note_on_c, 1, 46, 79
4, 31289, Note_on_c, 1, 46, 0
4, 31440, Note_on_c, 1, 34, 79
4, 31485, Note_on_c, 1, 34, 0
4, 31488, Note_on_c, 1, 46, 79
4, 31577, Note_on_c, 1, 46, 0
4, 31728, Note_on_c, 1, 34, 79
4, 31773, Note_on_c, 1, 34, 0
4, 31776, Note_on_c, 1, 46, 79
4, 31865, Note_on_c, 1, 46, 0
4, 32016, Note_on_c, 1, 34, 79
4, 32061, Note_on_c, 1, 34, 0
4, 32064, Note_on_c, 1, 46, 79
4, 32153, Note_on_c, 1, 46, 0
4, 32304, Note_on_c, 1, 34, 79
4, 32349, Note_on_c, 1, 34, 0
4, 32352, Note_on_c, 1, 46, 80
4, 32372, Note_on_c, 1, 46, 0
4, 32400, Note_on_c, 1, 62, 81
4, 32420, Note_on_c, 1, 62, 0
4, 32448, Note_on_c, 1, 63, 81
4, 32468, Note_on_c, 1, 63, 0
4, 32496, Note_on_c, 1, 60, 82
4, 32516, Note_on_c, 1, 60, 0
4, 32544, Note_on_c, 1, 62, 83
4, 32564, Note_on_c, 1, 62, 0
4, 32592, Note_on_c, 1, 57, 83
4, 32612, Note_on_c, 1, 57, 0
4, 32640, Note_on_c, 1, 58, 84
4, 32660, Note_on_c, 1, 58, 0
4, 32832, Note_on_c, 1, 39, 72
4, 32921, Note_on_c, 1, 39, 0
4, 33024, Note_on_c, 1, 51, 72
4, 33024, Note_on_c, 1, 41, 72
4, 33120, Note_on_c, 1, 41, 0
4, 33209, Note_on_c, 1, 51, 0
4, 33216, Note_on_c, 1, 50, 67
4, 33305, Note_on_c, 1, 50, 0
4, 34080, Note_on_c, 1, 62, 79
4, 34125, Note_on_c, 1, 62, 0
4, 34128, Note_on_c, 1, 63, 79
4, 34173, Note_on_c, 1, 63, 0
4, 34176, Note_on_c, 1, 65, 79
4, 34221, Note_on_c, 1, 65, 0
4, 34224, Note_on_c, 1, 67, 79
4, 34269, Note_on_c, 1, 67, 0
4, 34272, Note_on_c, 1, 68, 79
4, 34649, Note_on_c, 1, 68, 0
4, 34656, Note_on_c, 1, 67, 69
4, 34750, Note_on_c, 1, 67, 0
4, 34752, Note_on_c, 1, 65, 67
4, 34841, Note_on_c, 1, 65, 0
4, 34848, Note_on_c, 1, 63, 65
4, 34893, Note_on_c, 1, 63, 0
4, 34896, Note_on_c, 1, 48, 65
4, 34941, Note_on_c, 1, 48, 0
4, 34944, Note_on_c, 1, 51, 65
4, 34989, Note_on_c, 1, 51, 0
4, 34992, Note_on_c, 1, 55, 65
4, 35037, Note_on_c, 1, 55, 0
4, 35040, Note_on_c, 1, 60, 65
4, 35085, Note_on_c, 1, 60, 0
4, 35088, Note_on_c, 1, 65, 65
4, 35133, Note_on_c, 1, 65, 0
4, 35136, Note_on_c, 1, 63, 65
4, 35225, Note_on_c, 1, 63, 0
4, 35472, Note_on_c, 1, 48, 65
4, 35517, Note_on_c, 1, 48, 0
4, 35520, Note_on_c, 1, 51, 65
4, 35565, Note_on_c, 1, 51, 0
4, 35568, Note_on_c, 1, 55, 65
4, 35613, Note_on_c, 1, 55, 0
4, 35616, Note_on_c, 1, 60, 65
4, 35661, Note_on_c, 1, 60, 0
4, 35664, Note_on_c, 1, 65, 65
4, 35709, Note_on_c, 1, 65, 0
4, 35712, Note_on_c, 1, 63, 65
4, 35757, Note_on_c, 1, 63, 0
4, 36048, Note_on_c, 1, 72, 65
4, 36048, Note_on_c, 1, 69, 65
4, 36068, Note_on_c, 1, 72, 0
4, 36068, Note_on_c, 1, 69, 0
4, 36096, Note_on_c, 1, 72, 65
4, 36096, Note_on_c, 1, 69, 65
4, 36116, Note_on_c, 1, 72, 0
4, 36116, Note_on_c, 1, 69, 0
4, 36144, Note_on_c, 1, 72, 65
4, 36144, Note_on_c, 1, 69, 65
4, 36164, Note_on_c, 1, 72, 0
4, 36164, Note_on_c, 1, 69, 0
4, 36192, Note_on_c, 1, 72, 65
4, 36192, Note_on_c, 1, 69, 65
4, 36212, Note_on_c, 1, 72, 0
4, 36212, Note_on_c, 1, 69, 0
4, 36240, Note_on_c, 1, 72, 65
4, 36240, Note_on_c, 1, 69, 65
4, 36260, Note_on_c, 1, 72, 0
4, 36260, Note_on_c, 1, 69, 0
4, 36288, Note_on_c, 1, 72, 65
4, 36288, Note_on_c, 1, 69, 65
4, 36480, Note_on_c, 1, 72, 0
4, 36480, Note_on_c, 1, 69, 0
4, 36480, Note_on_c, 1, 70, 65
4, 36480, Note_on_c, 1, 67, 65
4, 36569, Note_on_c, 1, 70, 0
4, 36569, Note_on_c, 1, 67, 0
4, 36624, Note_on_c, 1, 82, 65
4, 36624, Note_on_c, 1, 79, 65
4, 36644, Note_on_c, 1, 82, 0
4, 36644, Note_on_c, 1, 79, 0
4, 36672, Note_on_c, 1, 82, 65
4, 36672, Note_on_c, 1, 79, 65
4, 36692, Note_on_c, 1, 82, 0
4, 36692, Note_on_c, 1, 79, 0
4, 36720, Note_on_c, 1, 82, 65
4, 36720, Note_on_c, 1, 79, 65
4, 36740, Note_on_c, 1, 82, 0
4, 36740, Note_on_c, 1, 79, 0
4, 36768, Note_on_c, 1, 81, 65
4, 36788, Note_on_c, 1, 81, 0
4, 36816, Note_on_c, 1, 81, 65
4, 36836, Note_on_c, 1, 81, 0
4, 36912, Note_on_c, 1, 81, 65
4, 36912, Note_on_c, 1, 78, 65
4, 36932, Note_on_c, 1, 81, 0
4, 36932, Note_on_c, 1, 78, 0
4, 36960, Note_on_c, 1, 81, 65
4, 36960, Note_on_c, 1, 78, 65
4, 36980, Note_on_c, 1, 81, 0
4, 36980, Note_on_c, 1, 78, 0
4, 37008, Note_on_c, 1, 81, 65
4, 37008, Note_on_c, 1, 78, 65
4, 37028, Note_on_c, 1, 81, 0
4, 37028, Note_on_c, 1, 78, 0
4, 37056, Note_on_c, 1, 79, 65
4, 37076, Note_on_c, 1, 79, 0
4, 37104, Note_on_c, 1, 79, 65
4, 37124, Note_on_c, 1, 79, 0
4, 37200, Note_on_c, 1, 79, 65
4, 37200, Note_on_c, 1, 76, 65
4, 37220, Note_on_c, 1, 79, 0
4, 37220, Note_on_c, 1, 76, 0
4, 37248, Note_on_c, 1, 79, 65
4, 37248, Note_on_c, 1, 76, 65
4, 37268, Note_on_c, 1, 79, 0
4, 37268, Note_on_c, 1, 76, 0
4, 37296, Note_on_c, 1, 79, 65
4, 37296, Note_on_c, 1, 76, 65
4, 37316, Note_on_c, 1, 79, 0
4, 37316, Note_on_c, 1, 76, 0
4, 37344, Note_on_c, 1, 77, 65
4, 37364, Note_on_c, 1, 77, 0
4, 37392, Note_on_c, 1, 77, 65
4, 37412, Note_on_c, 1, 77, 0
4, 37488, Note_on_c, 1, 77, 65
4, 37488, Note_on_c, 1, 74, 65
4, 37508, Note_on_c, 1, 77, 0
4, 37508, Note_on_c, 1, 74, 0
4, 37536, Note_on_c, 1, 77, 65
4, 37536, Note_on_c, 1, 74, 65
4, 37556, Note_on_c, 1, 77, 0
4, 37556, Note_on_c, 1, 74, 0
4, 37584, Note_on_c, 1, 77, 65
4, 37584, Note_on_c, 1, 74, 65
4, 37604, Note_on_c, 1, 77, 0
4, 37604, Note_on_c, 1, 74, 0
4, 37632, Note_on_c, 1, 75, 65
4, 37652, Note_on_c, 1, 75, 0
4, 37680, Note_on_c, 1, 75, 65
4, 37700, Note_on_c, 1, 75, 0
4, 37776, Note_on_c, 1, 75, 65
4, 37776, Note_on_c, 1, 72, 65
4, 37796, Note_on_c, 1, 75, 0
4, 37796, Note_on_c, 1, 72, 0
4, 37824, Note_on_c, 1, 75, 65
4, 37824, Note_on_c, 1, 72, 65
4, 37844, Note_on_c, 1, 75, 0
4, 37844, Note_on_c, 1, 72, 0
4, 37872, Note_on_c, 1, 75, 65
4, 37872, Note_on_c, 1, 72, 65
4, 37892, Note_on_c, 1, 75, 0
4, 37892, Note_on_c, 1, 72, 0
4, 37920, Note_on_c, 1, 75, 65
4, 37920, Note_on_c, 1, 72, 65
4, 37940, Note_on_c, 1, 75, 0
4, 37940, Note_on_c, 1, 72, 0
4, 37968, Note_on_c, 1, 75, 65
4, 37968, Note_on_c, 1, 72, 65
4, 37988, Note_on_c, 1, 75, 0
4, 37988, Note_on_c, 1, 72, 0
4, 38016, Note_on_c, 1, 75, 65
4, 38016, Note_on_c, 1, 72, 65
4, 38112, Note_on_c, 1, 75, 0
4, 38112, Note_on_c, 1, 72, 0
4, 38112, Note_on_c, 1, 74, 65
4, 38112, Note_on_c, 1, 71, 65
4, 38201, Note_on_c, 1, 74, 0
4, 38201, Note_on_c, 1, 71, 0
4, 38352, Note_on_c, 1, 72, 65
4, 38375, Note_on_c, 1, 72, 0
4, 38376, Note_on_c, 1, 75, 65
4, 38399, Note_on_c, 1, 75, 0
4, 38400, Note_on_c, 1, 72, 65
4, 38423, Note_on_c, 1, 72, 0
4, 38424, Note_on_c, 1, 75, 65
4, 38447, Note_on_c, 1, 75, 0
4, 38448, Note_on_c, 1, 72, 65
4, 38471, Note_on_c, 1, 72, 0
4, 38472, Note_on_c, 1, 75, 65
4, 38495, Note_on_c, 1, 75, 0
4, 38496, Note_on_c, 1, 72, 65
4, 38519, Note_on_c, 1, 72, 0
4, 38520, Note_on_c, 1, 75, 65
4, 38543, Note_on_c, 1, 75, 0
4, 38544, Note_on_c, 1, 72, 65
4, 38567, Note_on_c, 1, 72, 0
4, 38568, Note_on_c, 1, 75, 65
4, 38591, Note_on_c, 1, 75, 0
4, 38592, Note_on_c, 1, 75, 65
4, 38592, Note_on_c, 1, 72, 65
4, 38688, Note_on_c, 1, 75, 0
4, 38688, Note_on_c, 1, 72, 0
4, 38688, Note_on_c, 1, 74, 65
4, 38688, Note_on_c, 1, 71, 65
4, 38755, Note_on_c, 1, 74, 0
4, 38755, Note_on_c, 1, 71, 0
4, 39216, Note_on_c, 1, 62, 65
4, 39216, Note_on_c, 1, 59, 65
4, 39216, Note_on_c, 1, 55, 65
4, 39261, Note_on_c, 1, 62, 0
4, 39261, Note_on_c, 1, 59, 0
4, 39261, Note_on_c, 1, 55, 0
4, 39264, Note_on_c, 1, 62, 65
4, 39264, Note_on_c, 1, 59, 65
4, 39264, Note_on_c, 1, 55, 65
4, 39309, Note_on_c, 1, 62, 0
4, 39309, Note_on_c, 1, 59, 0
4, 39309, Note_on_c, 1, 55, 0
4, 39312, Note_on_c, 1, 62, 65
4, 39312, Note_on_c, 1, 59, 65
4, 39312, Note_on_c, 1, 55, 65
4, 39357, Note_on_c, 1, 62, 0
4, 39357, Note_on_c, 1, 59, 0
4, 39357, Note_on_c, 1, 55, 0
4, 39504, Note_on_c, 1, 63, 65
4, 39504, Note_on_c, 1, 60, 65
4, 39504, Note_on_c, 1, 55, 65
4, 39549, Note_on_c, 1, 63, 0
4, 39549, Note_on_c, 1, 60, 0
4, 39549, Note_on_c, 1, 55, 0
4, 39552, Note_on_c, 1, 63, 65
4, 39552, Note_on_c, 1, 60, 65
4, 39552, Note_on_c, 1, 55, 65
4, 39597, Note_on_c, 1, 63, 0
4, 39597, Note_on_c, 1, 60, 0
4, 39597, Note_on_c, 1, 55, 0
4, 39600, Note_on_c, 1, 63, 65
4, 39600, Note_on_c, 1, 60, 65
4, 39600, Note_on_c, 1, 55, 65
4, 39645, Note_on_c, 1, 63, 0
4, 39645, Note_on_c, 1, 60, 0
4, 39645, Note_on_c, 1, 55, 0
4, 39792, Note_on_c, 1, 62, 65
4, 39792, Note_on_c, 1, 59, 65
4, 39792, Note_on_c, 1, 55, 65
4, 39837, Note_on_c, 1, 62, 0
4, 39837, Note_on_c, 1, 59, 0
4, 39837, Note_on_c, 1, 55, 0
4, 39840, Note_on_c, 1, 62, 65
4, 39840, Note_on_c, 1, 59, 65
4, 39840, Note_on_c, 1, 55, 65
4, 39885, Note_on_c, 1, 62, 0
4, 39885, Note_on_c, 1, 59, 0
4, 39885, Note_on_c, 1, 55, 0
4, 39888, Note_on_c, 1, 62, 65
4, 39888, Note_on_c, 1, 59, 65
4, 39888, Note_on_c, 1, 55, 65
4, 39933, Note_on_c, 1, 62, 0
4, 39933, Note_on_c, 1, 59, 0
4, 39933, Note_on_c, 1, 55, 0
4, 40080, Note_on_c, 1, 51, 65
4, 40125, Note_on_c, 1, 51, 0
4, 40128, Note_on_c, 1, 60, 65
4, 40217, Note_on_c, 1, 60, 0
4, 40368, Note_on_c, 1, 65, 65
4, 40413, Note_on_c, 1, 65, 0
4, 40416, Note_on_c, 1, 63, 65
4, 40505, Note_on_c, 1, 63, 0
4, 40512, Note_on_c, 1, 62, 65
4, 40601, Note_on_c, 1, 62, 0
4, 40608, Control_c, 1, 64, 127
4, 40608, Note_on_c, 1, 53, 85
4, 40608, Note_on_c, 1, 49, 85
4, 40608, Note_on_c, 1, 44, 85
4, 40608, Note_on_c, 1, 41, 85
4, 41161, Note_on_c, 1, 53, 0
4, 41161, Note_on_c, 1, 49, 0
4, 41161, Note_on_c, 1, 44, 0
4, 41161, Note_on_c, 1, 41, 0
4, 41184, Control_c, 1, 64, 0
4, 41184, Note_on_c, 1, 53, 85
4, 41184, Note_on_c, 1, 50, 85
4, 41184, Note_on_c, 1, 43, 85
4, 41361, Note_on_c, 1, 53, 0
4, 41361, Note_on_c, 1, 50, 0
4, 41361, Note_on_c, 1, 43, 0
4, 41376, Note_on_c, 1, 47, 85
4, 41465, Note_on_c, 1, 47, 0
4, 41472, Note_on_c, 1, 48, 85
4, 41511, Note_on_c, 1, 48, 0
4, 41568, Note_on_c, 1, 41, 85
4, 41607, Note_on_c, 1, 41, 0
4, 41664, Note_on_c, 1, 43, 85
4, 41703, Note_on_c, 1, 43, 0
4, 41760, Note_on_c, 1, 48, 85
4, 41799, Note_on_c, 1, 48, 0
4, 41856, Note_on_c, 1, 41, 85
4, 41895, Note_on_c, 1, 41, 0
4, 41952, Note_on_c, 1, 43, 85
4, 41991, Note_on_c, 1, 43, 0
4, 42096, Note_on_c, 1, 36, 72
4, 42141, Note_on_c, 1, 36, 0
4, 42144, Note_on_c, 1, 48, 72
4, 42233, Note_on_c, 1, 48, 0
4, 42384, Note_on_c, 1, 36, 72
4, 42429, Note_on_c, 1, 36, 0
4, 42432, Note_on_c, 1, 48, 72
4, 42521, Note_on_c, 1, 48, 0
4, 42672, Note_on_c, 1, 36, 72
4, 42717, Note_on_c, 1, 36, 0
4, 42720, Note_on_c, 1, 48, 72
4, 42809, Note_on_c, 1, 48, 0
4, 42960, Note_on_c, 1, 36, 73
4, 43005, Note_on_c, 1, 36, 0
4, 43008, Note_on_c, 1, 48, 73
4, 43097, Note_on_c, 1, 48, 0
4, 43248, Note_on_c, 1, 36, 75
4, 43293, Note_on_c, 1, 36, 0
4, 43296, Note_on_c, 1, 48, 76
4, 43385, Note_on_c, 1, 48, 0
4, 43488, Note_on_c, 1, 53, 77
4, 43488, Note_on_c, 1, 41, 77
4, 43533, Note_on_c, 1, 53, 0
4, 43533, Note_on_c, 1, 41, 0
4, 43536, Note_on_c, 1, 51, 78
4, 43536, Note_on_c, 1, 39, 78
4, 43581, Note_on_c, 1, 51, 0
4, 43581, Note_on_c, 1, 39, 0
4, 43584, Note_on_c, 1, 50, 78
4, 43584, Note_on_c, 1, 38, 78
4, 43629, Note_on_c, 1, 50, 0
4, 43629, Note_on_c, 1, 38, 0
4, 43632, Note_on_c, 1, 48, 78
4, 43632, Note_on_c, 1, 36, 78
4, 43677, Note_on_c, 1, 48, 0
4, 43677, Note_on_c, 1, 36, 0
4, 43680, Note_on_c, 1, 46, 79
4, 43680, Note_on_c, 1, 34, 79
4, 43725, Note_on_c, 1, 46, 0
4, 43725, Note_on_c, 1, 34, 0
4, 43728, Note_on_c, 1, 45, 79
4, 43728, Note_on_c, 1, 33, 79
4, 43773, Note_on_c, 1, 45, 0
4, 43773, Note_on_c, 1, 33, 0
4, 43776, Note_on_c, 1, 46, 80
4, 43776, Note_on_c, 1, 34, 80
4, 44041, Note_on_c, 1, 46, 0
4, 44041, Note_on_c, 1, 34, 0
4, 44064, Control_c, 1, 64, 127
4, 44064, Note_on_c, 1, 56, 82
4, 44064, Note_on_c, 1, 53, 82
4, 44064, Note_on_c, 1, 50, 82
4, 44064, Note_on_c, 1, 46, 82
4, 44617, Note_on_c, 1, 56, 0
4, 44617, Note_on_c, 1, 53, 0
4, 44617, Note_on_c, 1, 50, 0
4, 44617, Note_on_c, 1, 46, 0
4, 44640, Control_c, 1, 64, 0
4, 44688, Note_on_c, 1, 39, 79
4, 44733, Note_on_c, 1, 39, 0
4, 44736, Note_on_c, 1, 43, 79
4, 44781, Note_on_c, 1, 43, 0
4, 44784, Note_on_c, 1, 46, 79
4, 44829, Note_on_c, 1, 46, 0
4, 44832, Note_on_c, 1, 51, 79
4, 44877, Note_on_c, 1, 51, 0
4, 44880, Note_on_c, 1, 56, 79
4, 44925, Note_on_c, 1, 56, 0
4, 44928, Note_on_c, 1, 55, 79
4, 45017, Note_on_c, 1, 55, 0
4, 45264, Note_on_c, 1, 39, 79
4, 45309, Note_on_c, 1, 39, 0
4, 45312, Note_on_c, 1, 43, 79
4, 45357, Note_on_c, 1, 43, 0
4, 45360, Note_on_c, 1, 46, 79
4, 45405, Note_on_c, 1, 46, 0
4, 45408, Note_on_c, 1, 51, 79
4, 45453, Note_on_c, 1, 51, 0
4, 45456, Note_on_c, 1, 56, 79
4, 45501, Note_on_c, 1, 56, 0
4, 45504, Note_on_c, 1, 55, 79
4, 45593, Note_on_c, 1, 55, 0
4, 45840, Note_on_c, 1, 68, 79
4, 45864, Note_on_c, 1, 68, 0
4, 45864, Note_on_c, 1, 70, 79
4, 45887, Note_on_c, 1, 70, 0
4, 45888, Note_on_c, 1, 68, 79
4, 45912, Note_on_c, 1, 68, 0
4, 45912, Note_on_c, 1, 70, 79
4, 45935, Note_on_c, 1, 70, 0
4, 45936, Note_on_c, 1, 68, 79
4, 45960, Note_on_c, 1, 68, 0
4, 45960, Note_on_c, 1, 70, 79
4, 45983, Note_on_c, 1, 70, 0
4, 45984, Note_on_c, 1, 68, 79
4, 46008, Note_on_c, 1, 68, 0
4, 46008, Note_on_c, 1, 70, 79
4, 46031, Note_on_c, 1, 70, 0
4, 46032, Note_on_c, 1, 68, 79
4, 46056, Note_on_c, 1, 68, 0
4, 46056, Note_on_c, 1, 70, 79
4, 46079, Note_on_c, 1, 70, 0
4, 46080, Note_on_c, 1, 70, 79
4, 46345, Note_on_c, 1, 70, 0
4, 46416, Note_on_c, 1, 44, 79
4, 46440, Note_on_c, 1, 44, 0
4, 46440, Note_on_c, 1, 56, 79
4, 46463, Note_on_c, 1, 56, 0
4, 46464, Note_on_c, 1, 44, 79
4, 46488, Note_on_c, 1, 44, 0
4, 46488, Note_on_c, 1, 56, 79
4, 46511, Note_on_c, 1, 56, 0
4, 46512, Note_on_c, 1, 44, 79
4, 46536, Note_on_c, 1, 44, 0
4, 46536, Note_on_c, 1, 56, 79
4, 46559, Note_on_c, 1, 56, 0
4, 46560, Note_on_c, 1, 46, 79
4, 46584, Note_on_c, 1, 46, 0
4, 46584, Note_on_c, 1, 58, 79
4, 46607, Note_on_c, 1, 58, 0
4, 46608, Note_on_c, 1, 46, 79
4, 46632, Note_on_c, 1, 46, 0
4, 46632, Note_on_c, 1, 58, 79
4, 46655, Note_on_c, 1, 58, 0
4, 46656, Note_on_c, 1, 39, 79
4, 46701, Note_on_c, 1, 39, 0
4, 46704, Note_on_c, 1, 67, 79
4, 46704, Note_on_c, 1, 63, 79
4, 46724, Note_on_c, 1, 67, 0
4, 46724, Note_on_c, 1, 63, 0
4, 46752, Note_on_c, 1, 67, 79
4, 46752, Note_on_c, 1, 63, 79
4, 46772, Note_on_c, 1, 67, 0
4, 46772, Note_on_c, 1, 63, 0
4, 46800, Note_on_c, 1, 67, 79
4, 46800, Note_on_c, 1, 63, 79
4, 46820, Note_on_c, 1, 67, 0
4, 46820, Note_on_c, 1, 63, 0
4, 46848, Note_on_c, 1, 67, 79
4, 46848, Note_on_c, 1, 63, 79
4, 46868, Note_on_c, 1, 67, 0
4, 46868, Note_on_c, 1, 63, 0
4, 46896, Note_on_c, 1, 67, 79
4, 46896, Note_on_c, 1, 63, 79
4, 46916, Note_on_c, 1, 67, 0
4, 46916, Note_on_c, 1, 63, 0
4, 46944, Note_on_c, 1, 65, 79
4, 47209, Note_on_c, 1, 65, 0
4, 47280, Note_on_c, 1, 73, 79
4, 47280, Note_on_c, 1, 63, 79
4, 47300, Note_on_c, 1, 73, 0
4, 47300, Note_on_c, 1, 63, 0
4, 47328, Note_on_c, 1, 73, 79
4, 47328, Note_on_c, 1, 63, 79
4, 47348, Note_on_c, 1, 73, 0
4, 47348, Note_on_c, 1, 63, 0
4, 47376, Note_on_c, 1, 73, 79
4, 47376, Note_on_c, 1, 63, 79
4, 47396, Note_on_c, 1, 73, 0
4, 47396, Note_on_c, 1, 63, 0
4, 47424, Note_on_c, 1, 73, 79
4, 47424, Note_on_c, 1, 63, 79
4, 47444, Note_on_c, 1, 73, 0
4, 47444, Note_on_c, 1, 63, 0
4, 47472, Note_on_c, 1, 73, 79
4, 47472, Note_on_c, 1, 63, 79
4, 47492, Note_on_c, 1, 73, 0
4, 47492, Note_on_c, 1, 63, 0
4, 47520, Note_on_c, 1, 73, 95
4, 47520, Note_on_c, 1, 63, 95
4, 47712, Note_on_c, 1, 73, 0
4, 47712, Note_on_c, 1, 63, 0
4, 47712, Note_on_c, 1, 72, 79
4, 47712, Note_on_c, 1, 64, 79
4, 47801, Note_on_c, 1, 72, 0
4, 47801, Note_on_c, 1, 64, 0
4, 47856, Note_on_c, 1, 72, 79
4, 47856, Note_on_c, 1, 65, 79
4, 47876, Note_on_c, 1, 72, 0
4, 47876, Note_on_c, 1, 65, 0
4, 47904, Note_on_c, 1, 72, 79
4, 47904, Note_on_c, 1, 65, 79
4, 47924, Note_on_c, 1, 72, 0
4, 47924, Note_on_c, 1, 65, 0
4, 47952, Note_on_c, 1, 72, 79
4, 47952, Note_on_c, 1, 65, 79
4, 47972, Note_on_c, 1, 72, 0
4, 47972, Note_on_c, 1, 65, 0
4, 48000, Note_on_c, 1, 72, 79
4, 48000, Note_on_c, 1, 65, 79
4, 48020, Note_on_c, 1, 72, 0
4, 48020, Note_on_c, 1, 65, 0
4, 48048, Note_on_c, 1, 72, 79
4, 48048, Note_on_c, 1, 65, 79
4, 48068, Note_on_c, 1, 72, 0
4, 48068, Note_on_c, 1, 65, 0
4, 48144, Note_on_c, 1, 65, 79
4, 48144, Note_on_c, 1, 62, 79
4, 48164, Note_on_c, 1, 65, 0
4, 48164, Note_on_c, 1, 62, 0
4, 48192, Note_on_c, 1, 65, 79
4, 48192, Note_on_c, 1, 62, 79
4, 48212, Note_on_c, 1, 65, 0
4, 48212, Note_on_c, 1, 62, 0
4, 48240, Note_on_c, 1, 65, 79
4, 48240, Note_on_c, 1, 62, 79
4, 48260, Note_on_c, 1, 65, 0
4, 48260, Note_on_c, 1, 62, 0
4, 48288, Note_on_c, 1, 67, 79
4, 48288, Note_on_c, 1, 63, 79
4, 48308, Note_on_c, 1, 67, 0
4, 48308, Note_on_c, 1, 63, 0
4, 48336, Note_on_c, 1, 67, 79
4, 48336, Note_on_c, 1, 63, 79
4, 48356, Note_on_c, 1, 67, 0
4, 48356, Note_on_c, 1, 63, 0
4, 48384, Note_on_c, 1, 65, 79
4, 48384, Note_on_c, 1, 60, 79
4, 48384, Note_on_c, 1, 56, 79
4, 48561, Note_on_c, 1, 65, 0
4, 48561, Note_on_c, 1, 60, 0
4, 48561, Note_on_c, 1, 56, 0
4, 48576, Note_on_c, 1, 65, 79
4, 48576, Note_on_c, 1, 57, 79
4, 48672, Note_on_c, 1, 57, 0
4, 48672, Note_on_c, 1, 58, 79
4, 48761, Note_on_c, 1, 65, 0
4, 48761, Note_on_c, 1, 58, 0
4, 48768, Note_on_c, 1, 70, 79
4, 48862, Note_on_c, 1, 70, 0
4, 49008, Note_on_c, 1, 67, 65
4, 49008, Note_on_c, 1, 64, 65
4, 49056, Note_on_c, 1, 67, 0
4, 49056, Note_on_c, 1, 64, 0
4, 49056, Note_on_c, 1, 68, 65
4, 49056, Note_on_c, 1, 65, 65
4, 49145, Note_on_c, 1, 68, 0
4, 49145, Note_on_c, 1, 65, 0
4, 49584, Note_on_c, 1, 65, 72
4, 49584, Note_on_c, 1, 62, 72
4, 49632, Note_on_c, 1, 65, 0
4, 49632, Note_on_c, 1, 62, 0
4, 49632, Note_on_c, 1, 67, 72
4, 49632, Note_on_c, 1, 63, 72
4, 49721, Note_on_c, 1, 67, 0
4, 49721, Note_on_c, 1, 63, 0
4, 50064, Note_on_c, 1, 55, 72
4, 50064, Note_on_c, 1, 51, 72
4, 50112, Note_on_c, 1, 55, 0
4, 50112, Note_on_c, 1, 51, 0
4, 50112, Note_on_c, 1, 60, 72
4, 50112, Note_on_c, 1, 56, 72
4, 50201, Note_on_c, 1, 60, 0
4, 50201, Note_on_c, 1, 56, 0
4, 50352, Note_on_c, 1, 58, 72
4, 50352, Note_on_c, 1, 55, 72
4, 50400, Note_on_c, 1, 58, 0
4, 50400, Note_on_c, 1, 55, 0
4, 50400, Note_on_c, 1, 60, 72
4, 50400, Note_on_c, 1, 56, 72
4, 50489, Note_on_c, 1, 60, 0
4, 50489, Note_on_c, 1, 56, 0
4, 50688, Note_on_c, 1, 60, 72
4, 50688, Note_on_c, 1, 56, 72
4, 50777, Note_on_c, 1, 60, 0
4, 50777, Note_on_c, 1, 56, 0
4, 50952, Note_on_c, 1, 63, 72
4, 50952, Note_on_c, 1, 57, 72
4, 50975, Note_on_c, 1, 63, 0
4, 50975, Note_on_c, 1, 57, 0
4, 50976, Note_on_c, 1, 63, 72
4, 51065, Note_on_c, 1, 63, 0
4, 51072, Note_on_c, 1, 62, 72
4, 51161, Note_on_c, 1, 62, 0
4, 51312, Note_on_c, 1, 39, 72
4, 51357, Note_on_c, 1, 39, 0
4, 51360, Note_on_c, 1, 51, 72
4, 51449, Note_on_c, 1, 51, 0
4, 51552, Note_on_c, 1, 63, 72
4, 51597, Note_on_c, 1, 63, 0
4, 51648, Note_on_c, 1, 63, 72
4, 51693, Note_on_c, 1, 63, 0
4, 51744, Note_on_c, 1, 63, 72
4, 51789, Note_on_c, 1, 63, 0
4, 51888, Note_on_c, 1, 39, 72
4, 51933, Note_on_c, 1, 39, 0
4, 51936, Note_on_c, 1, 51, 72
4, 52025, Note_on_c, 1, 51, 0
4, 52128, Note_on_c, 1, 63, 72
4, 52173, Note_on_c, 1, 63, 0
4, 52224, Note_on_c, 1, 63, 72
4, 52269, Note_on_c, 1, 63, 0
4, 52320, Note_on_c, 1, 63, 72
4, 52365, Note_on_c, 1, 63, 0
4, 52464, Note_on_c, 1, 67, 65
4, 52464, Note_on_c, 1, 63, 65
4, 52509, Note_on_c, 1, 67, 0
4, 52509, Note_on_c, 1, 63, 0
4, 52512, Note_on_c, 1, 67, 65
4, 52512, Note_on_c, 1, 63, 65
4, 52557, Note_on_c, 1, 67, 0
4, 52557, Note_on_c, 1, 63, 0
4, 52560, Note_on_c, 1, 67, 65
4, 52560, Note_on_c, 1, 63, 65
4, 52605, Note_on_c, 1, 67, 0
4, 52605, Note_on_c, 1, 63, 0
4, 52608, Note_on_c, 1, 67, 65
4, 52608, Note_on_c, 1, 63, 65
4, 52653, Note_on_c, 1, 67, 0
4, 52653, Note_on_c, 1, 63, 0
4, 52656, Note_on_c, 1, 67, 65
4, 52656, Note_on_c, 1, 63, 65
4, 52701, Note_on_c, 1, 67, 0
4, 52701, Note_on_c, 1, 63, 0
4, 52752, Note_on_c, 1, 65, 65
4, 52752, Note_on_c, 1, 62, 65
4, 52797, Note_on_c, 1, 65, 0
4, 52797, Note_on_c, 1, 62, 0
4, 52800, Note_on_c, 1, 65, 65
4, 52800, Note_on_c, 1, 62, 65
4, 52845, Note_on_c, 1, 65, 0
4, 52845, Note_on_c, 1, 62, 0
4, 52848, Note_on_c, 1, 65, 65
4, 52848, Note_on_c, 1, 62, 65
4, 52893, Note_on_c, 1, 65, 0
4, 52893, Note_on_c, 1, 62, 0
4, 52896, Note_on_c, 1, 65, 65
4, 52896, Note_on_c, 1, 62, 65
4, 52941, Note_on_c, 1, 65, 0
4, 52941, Note_on_c, 1, 62, 0
4, 52944, Note_on_c, 1, 65, 65
4, 52944, Note_on_c, 1, 62, 65
4, 52989, Note_on_c, 1, 65, 0
4, 52989, Note_on_c, 1, 62, 0
4, 53040, Note_on_c, 1, 63, 65
4, 53040, Note_on_c, 1, 60, 65
4, 53085, Note_on_c, 1, 63, 0
4, 53085, Note_on_c, 1, 60, 0
4, 53088, Note_on_c, 1, 63, 65
4, 53088, Note_on_c, 1, 60, 65
4, 53133, Note_on_c, 1, 63, 0
4, 53133, Note_on_c, 1, 60, 0
4, 53136, Note_on_c, 1, 63, 65
4, 53136, Note_on_c, 1, 60, 65
4, 53181, Note_on_c, 1, 63, 0
4, 53181, Note_on_c, 1, 60, 0
4, 53184, Note_on_c, 1, 63, 65
4, 53184, Note_on_c, 1, 60, 65
4, 53229, Note_on_c, 1, 63, 0
4, 53229, Note_on_c, 1, 60, 0
4, 53232, Note_on_c, 1, 63, 65
4, 53232, Note_on_c, 1, 60, 65
4, 53277, Note_on_c, 1, 63, 0
4, 53277, Note_on_c, 1, 60, 0
4, 53328, Note_on_c, 1, 62, 66
4, 53328, Note_on_c, 1, 58, 66
4, 53373, Note_on_c, 1, 62, 0
4, 53373, Note_on_c, 1, 58, 0
4, 53376, Note_on_c, 1, 62, 66
4, 53376, Note_on_c, 1, 58, 66
4, 53421, Note_on_c, 1, 62, 0
4, 53421, Note_on_c, 1, 58, 0
4, 53424, Note_on_c, 1, 62, 67
4, 53424, Note_on_c, 1, 58, 67
4, 53469, Note_on_c, 1, 62, 0
4, 53469, Note_on_c, 1, 58, 0
4, 53472, Note_on_c, 1, 63, 67
4, 53472, Note_on_c, 1, 58, 67
4, 53517, Note_on_c, 1, 63, 0
4, 53517, Note_on_c, 1, 58, 0
4, 53520, Note_on_c, 1, 63, 68
4, 53520, Note_on_c, 1, 58, 68
4, 53565, Note_on_c, 1, 63, 0
4, 53565, Note_on_c, 1, 58, 0
4, 53616, Note_on_c, 1, 63, 69
4, 53616, Note_on_c, 1, 56, 69
4, 53661, Note_on_c, 1, 63, 0
4, 53661, Note_on_c, 1, 56, 0
4, 53664, Note_on_c, 1, 63, 69
4, 53664, Note_on_c, 1, 56, 69
4, 53709, Note_on_c, 1, 63, 0
4, 53709, Note_on_c, 1, 56, 0
4, 53712, Note_on_c, 1, 63, 70
4, 53712, Note_on_c, 1, 56, 70
4, 53757, Note_on_c, 1, 63, 0
4, 53757, Note_on_c, 1, 56, 0
4, 53760, Note_on_c, 1, 65, 70
4, 53760, Note_on_c, 1, 56, 70
4, 53805, Note_on_c, 1, 65, 0
4, 53805, Note_on_c, 1, 56, 0
4, 53808, Note_on_c, 1, 65, 71
4, 53808, Note_on_c, 1, 56, 71
4, 53853, Note_on_c, 1, 65, 0
4, 53853, Note_on_c, 1, 56, 0
4, 53904, Note_on_c, 1, 58, 72
4, 53904, Note_on_c, 1, 55, 72
4, 53949, Note_on_c, 1, 58, 0
4, 53949, Note_on_c, 1, 55, 0
4, 53952, Note_on_c, 1, 58, 72
4, 53952, Note_on_c, 1, 55, 72
4, 53997, Note_on_c, 1, 58, 0
4, 53997, Note_on_c, 1, 55, 0
4, 54000, Note_on_c, 1, 58, 72
4, 54000, Note_on_c, 1, 55, 72
4, 54045, Note_on_c, 1, 58, 0
4, 54045, Note_on_c, 1, 55, 0
4, 54048, Note_on_c, 1, 63, 72
4, 54048, Note_on_c, 1, 55, 72
4, 54093, Note_on_c, 1, 63, 0
4, 54093, Note_on_c, 1, 55, 0
4, 54096, Note_on_c, 1, 63, 72
4, 54096, Note_on_c, 1, 55, 72
4, 54141, Note_on_c, 1, 63, 0
4, 54141, Note_on_c, 1, 55, 0
4, 54144, Note_on_c, 1, 63, 72
4, 54144, Note_on_c, 1, 56, 72
4, 54189, Note_on_c, 1, 63, 0
4, 54189, Note_on_c, 1, 56, 0
4, 54192, Note_on_c, 1, 63, 70
4, 54192, Note_on_c, 1, 56, 70
4, 54237, Note_on_c, 1, 63, 0
4, 54237, Note_on_c, 1, 56, 0
4, 54240, Note_on_c, 1, 63, 69
4, 54240, Note_on_c, 1, 58, 69
4, 54285, Note_on_c, 1, 63, 0
4, 54285, Note_on_c, 1, 58, 0
4, 54288, Note_on_c, 1, 63, 68
4, 54288, Note_on_c, 1, 58, 68
4, 54333, Note_on_c, 1, 63, 0
4, 54333, Note_on_c, 1, 58, 0
4, 54336, Note_on_c, 1, 62, 67
4, 54336, Note_on_c, 1, 58, 67
4, 54381, Note_on_c, 1, 62, 0
4, 54381, Note_on_c, 1, 58, 0
4, 54384, Note_on_c, 1, 62, 66
4, 54384, Note_on_c, 1, 58, 66
4, 54429, Note_on_c, 1, 62, 0
4, 54429, Note_on_c, 1, 58, 0
4, 54432, Note_on_c, 1, 60, 65
4, 54609, Note_on_c, 1, 60, 0
4, 54624, Note_on_c, 1, 63, 65
4, 54897, Note_on_c, 1, 63, 0
4, 54912, Note_on_c, 1, 62, 65
4, 55163, Note_on_c, 1, 62, 0
4, 55632, Note_on_c, 1, 56, 65
4, 55632, Note_on_c, 1, 50, 65
4, 55632, Note_on_c, 1, 46, 65
4, 55677, Note_on_c, 1, 56, 0
4, 55677, Note_on_c, 1, 50, 0
4, 55677, Note_on_c, 1, 46, 0
4, 55680, Note_on_c, 1, 56, 65
4, 55680, Note_on_c, 1, 50, 65
4, 55680, Note_on_c, 1, 46, 65
4, 55725, Note_on_c, 1, 56, 0
4, 55725, Note_on_c, 1, 50, 0
4, 55725, Note_on_c, 1, 46, 0
4, 55728, Note_on_c, 1, 56, 65
4, 55728, Note_on_c, 1, 50, 65
4, 55728, Note_on_c, 1, 46, 65
4, 55773, Note_on_c, 1, 56, 0
4, 55773, Note_on_c, 1, 50, 0
4, 55773, Note_on_c, 1, 46, 0
4, 55920, Note_on_c, 1, 55, 65
4, 55920, Note_on_c, 1, 51, 65
4, 55920, Note_on_c, 1, 46, 65
4, 55965, Note_on_c, 1, 55, 0
4, 55965, Note_on_c, 1, 51, 0
4, 55965, Note_on_c, 1, 46, 0
4, 55968, Note_on_c, 1, 55, 65
4, 55968, Note_on_c, 1, 51, 65
4, 55968, Note_on_c, 1, 46, 65
4, 56013, Note_on_c, 1, 55, 0
4, 56013, Note_on_c, 1, 51, 0
4, 56013, Note_on_c, 1, 46, 0
4, 56016, Note_on_c, 1, 55, 65
4, 56016, Note_on_c, 1, 51, 65
4, 56016, Note_on_c, 1, 46, 65
4, 56061, Note_on_c, 1, 55, 0
4, 56061, Note_on_c, 1, 51, 0
4, 56061, Note_on_c, 1, 46, 0
4, 56208, Note_on_c, 1, 53, 65
4, 56208, Note_on_c, 1, 50, 65
4, 56208, Note_on_c, 1, 46, 65
4, 56253, Note_on_c, 1, 53, 0
4, 56253, Note_on_c, 1, 50, 0
4, 56253, Note_on_c, 1, 46, 0
4, 56256, Note_on_c, 1, 53, 65
4, 56256, Note_on_c, 1, 50, 65
4, 56256, Note_on_c, 1, 46, 65
4, 56301, Note_on_c, 1, 53, 0
4, 56301, Note_on_c, 1, 50, 0
4, 56301, Note_on_c, 1, 46, 0
4, 56304, Note_on_c, 1, 53, 65
4, 56304, Note_on_c, 1, 50, 65
4, 56304, Note_on_c, 1, 46, 65
4, 56349, Note_on_c, 1, 53, 0
4, 56349, Note_on_c, 1, 50, 0
4, 56349, Note_on_c, 1, 46, 0
4, 56688, Note_on_c, 1, 62, 65
4, 56733, Note_on_c, 1, 62, 0
4, 57072, Note_on_c, 1, 56, 65
4, 57117, Note_on_c, 1, 56, 0
4, 57120, Note_on_c, 1, 55, 65
4, 57209, Note_on_c, 1, 55, 0
4, 57216, Note_on_c, 1, 53, 65
4, 57305, Note_on_c, 1, 53, 0
4, 57312, Note_on_c, 1, 51, 79
4, 57406, Note_on_c, 1, 51, 0
4, 57408, Note_on_c, 1, 60, 79
4, 57502, Note_on_c, 1, 60, 0
4, 57504, Note_on_c, 1, 58, 79
4, 57598, Note_on_c, 1, 58, 0
4, 57600, Note_on_c, 1, 56, 79
4, 57689, Note_on_c, 1, 56, 0
4, 57696, Note_on_c, 1, 55, 79
4, 57873, Note_on_c, 1, 55, 0
4, 57888, Note_on_c, 1, 56, 79
4, 57977, Note_on_c, 1, 56, 0
4, 57984, Note_on_c, 1, 58, 79
4, 58073, Note_on_c, 1, 58, 0
4, 58080, Note_on_c, 1, 46, 79
4, 58169, Note_on_c, 1, 46, 0
4, 58176, Note_on_c, 1, 39, 79
4, 58265, Note_on_c, 1, 39, 0
4, 58272, Note_on_c, 1, 72, 79
4, 58361, Note_on_c, 1, 72, 0
4, 58368, Note_on_c, 1, 70, 79
4, 58457, Note_on_c, 1, 70, 0
4, 58464, Note_on_c, 1, 68, 79
4, 58553, Note_on_c, 1, 68, 0
4, 58560, Note_on_c, 1, 67, 79
4, 58737, Note_on_c, 1, 67, 0
4, 58752, Note_on_c, 1, 68, 79
4, 58841, Note_on_c, 1, 68, 0
4, 58848, Note_on_c, 1, 70, 79
4, 58937, Note_on_c, 1, 70, 0
4, 58944, Note_on_c, 1, 58, 79
4, 59033, Note_on_c, 1, 58, 0
4, 59088, Note_on_c, 1, 39, 72
4, 59133, Note_on_c, 1, 39, 0
4, 59136, Note_on_c, 1, 51, 72
4, 59225, Note_on_c, 1, 51, 0
4, 59376, Note_on_c, 1, 39, 72
4, 59421, Note_on_c, 1, 39, 0
4, 59424, Note_on_c, 1, 51, 72
4, 59513, Note_on_c, 1, 51, 0
4, 59664, Note_on_c, 1, 39, 72
4, 59709, Note_on_c, 1, 39, 0
4, 59712, Note_on_c, 1, 51, 72
4, 59801, Note_on_c, 1, 51, 0
4, 59952, Note_on_c, 1, 39, 72
4, 59997, Note_on_c, 1, 39, 0
4, 60000, Note_on_c, 1, 51, 72
4, 60089, Note_on_c, 1, 51, 0
4, 60240, Note_on_c, 1, 39, 75
4, 60285, Note_on_c, 1, 39, 0
4, 60288, Note_on_c, 1, 51, 76
4, 60308, Note_on_c, 1, 51, 0
4, 60336, Note_on_c, 1, 55, 77
4, 60356, Note_on_c, 1, 55, 0
4, 60384, Note_on_c, 1, 56, 78
4, 60404, Note_on_c, 1, 56, 0
4, 60432, Note_on_c, 1, 53, 79
4, 60452, Note_on_c, 1, 53, 0
4, 60480, Note_on_c, 1, 55, 80
4, 60500, Note_on_c, 1, 55, 0
4, 60528, Note_on_c, 1, 50, 81
4, 60548, Note_on_c, 1, 50, 0
4, 60576, Note_on_c, 1, 51, 82
4, 60615, Note_on_c, 1, 51, 0
4, 60768, Note_on_c, 1, 44, 85
4, 60857, Note_on_c, 1, 44, 0
4, 60960, Note_on_c, 1, 56, 75
4, 60960, Note_on_c, 1, 46, 75
4, 61056, Note_on_c, 1, 46, 0
4, 61145, Note_on_c, 1, 56, 0
4, 61152, Note_on_c, 1, 55, 68
4, 61241, Note_on_c, 1, 55, 0
4, 62016, Note_on_c, 1, 62, 79
4, 62061, Note_on_c, 1, 62, 0
4, 62064, Note_on_c, 1, 63, 79
4, 62109, Note_on_c, 1, 63, 0
4, 62112, Note_on_c, 1, 65, 79
4, 62157, Note_on_c, 1, 65, 0
4, 62160, Note_on_c, 1, 67, 79
4, 62205, Note_on_c, 1, 67, 0
4, 62208, Note_on_c, 1, 68, 79
4, 62585, Note_on_c, 1, 68, 0
4, 62592, Note_on_c, 1, 67, 69
4, 62686, Note_on_c, 1, 67, 0
4, 62688, Note_on_c, 1, 65, 67
4, 62777, Note_on_c, 1, 65, 0
4, 62784, Note_on_c, 1, 63, 65
4, 62829, Note_on_c, 1, 63, 0
4, 62832, Note_on_c, 1, 48, 65
4, 62877, Note_on_c, 1, 48, 0
4, 62880, Note_on_c, 1, 51, 65
4, 62925, Note_on_c, 1, 51, 0
4, 62928, Note_on_c, 1, 55, 65
4, 62973, Note_on_c, 1, 55, 0
4, 62976, Note_on_c, 1, 60, 65
4, 63021, Note_on_c, 1, 60, 0
4, 63024, Note_on_c, 1, 65, 65
4, 63069, Note_on_c, 1, 65, 0
4, 63072, Note_on_c, 1, 63, 65
4, 63161, Note_on_c, 1, 63, 0
4, 63408, Note_on_c, 1, 48, 65
4, 63453, Note_on_c, 1, 48, 0
4, 63456, Note_on_c, 1, 51, 65
4, 63501, Note_on_c, 1, 51, 0
4, 63504, Note_on_c, 1, 55, 65
4, 63549, Note_on_c, 1, 55, 0
4, 63552, Note_on_c, 1, 60, 65
4, 63597, Note_on_c, 1, 60, 0
4, 63600, Note_on_c, 1, 65, 65
4, 63645, Note_on_c, 1, 65, 0
4, 63648, Note_on_c, 1, 63, 65
4, 63693, Note_on_c, 1, 63, 0
4, 63984, Note_on_c, 1, 72, 65
4, 63984, Note_on_c, 1, 69, 65
4, 64004, Note_on_c, 1, 72, 0
4, 64004, Note_on_c, 1, 69, 0
4, 64032, Note_on_c, 1, 72, 65
4, 64032, Note_on_c, 1, 69, 65
4, 64052, Note_on_c, 1, 72, 0
4, 64052, Note_on_c, 1, 69, 0
4, 64080, Note_on_c, 1, 72, 65
4, 64080, Note_on_c, 1, 69, 65
4, 64100, Note_on_c, 1, 72, 0
4, 64100, Note_on_c, 1, 69, 0
4, 64128, Note_on_c, 1, 72, 65
4, 64128, Note_on_c, 1, 69, 65
4, 64148, Note_on_c, 1, 72, 0
4, 64148, Note_on_c, 1, 69, 0
4, 64176, Note_on_c, 1, 72, 65
4, 64176, Note_on_c, 1, 69, 65
4, 64196, Note_on_c, 1, 72, 0
4, 64196, Note_on_c, 1, 69, 0
4, 64224, Note_on_c, 1, 72, 65
4, 64224, Note_on_c, 1, 69, 65
4, 64416, Note_on_c, 1, 72, 0
4, 64416, Note_on_c, 1, 69, 0
4, 64416, Note_on_c, 1, 70, 65
4, 64416, Note_on_c, 1, 67, 65
4, 64505, Note_on_c, 1, 70, 0
4, 64505, Note_on_c, 1, 67, 0
4, 64560, Note_on_c, 1, 82, 65
4, 64560, Note_on_c, 1, 79, 65
4, 64580, Note_on_c, 1, 82, 0
4, 64580, Note_on_c, 1, 79, 0
4, 64608, Note_on_c, 1, 82, 65
4, 64608, Note_on_c, 1, 79, 65
4, 64628, Note_on_c, 1, 82, 0
4, 64628, Note_on_c, 1, 79, 0
4, 64656, Note_on_c, 1, 82, 65
4, 64656, Note_on_c, 1, 79, 65
4, 64676, Note_on_c, 1, 82, 0
4, 64676, Note_on_c, 1, 79, 0
4, 64704, Note_on_c, 1, 81, 65
4, 64724, Note_on_c, 1, 81, 0
4, 64752, Note_on_c, 1, 81, 65
4, 64772, Note_on_c, 1, 81, 0
4, 64848, Note_on_c, 1, 81, 65
4, 64848, Note_on_c, 1, 78, 65
4, 64868, Note_on_c, 1, 81, 0
4, 64868, Note_on_c, 1, 78, 0
4, 64896, Note_on_c, 1, 81, 65
4, 64896, Note_on_c, 1, 78, 65
4, 64916, Note_on_c, 1, 81, 0
4, 64916, Note_on_c, 1, 78, 0
4, 64944, Note_on_c, 1, 81, 65
4, 64944, Note_on_c, 1, 78, 65
4, 64964, Note_on_c, 1, 81, 0
4, 64964, Note_on_c, 1, 78, 0
4, 64992, Note_on_c, 1, 79, 65
4, 65012, Note_on_c, 1, 79, 0
4, 65040, Note_on_c, 1, 79, 65
4, 65060, Note_on_c, 1, 79, 0
4, 65136, Note_on_c, 1, 79, 65
4, 65136, Note_on_c, 1, 76, 65
4, 65156, Note_on_c, 1, 79, 0
4, 65156, Note_on_c, 1, 76, 0
4, 65184, Note_on_c, 1, 79, 65
4, 65184, Note_on_c, 1, 76, 65
4, 65204, Note_on_c, 1, 79, 0
4, 65204, Note_on_c, 1, 76, 0
4, 65232, Note_on_c, 1, 79, 65
4, 65232, Note_on_c, 1, 76, 65
4, 65252, Note_on_c, 1, 79, 0
4, 65252, Note_on_c, 1, 76, 0
4, 65280, Note_on_c, 1, 77, 65
4, 65300, Note_on_c, 1, 77, 0
4, 65328, Note_on_c, 1, 77, 65
4, 65348, Note_on_c, 1, 77, 0
4, 65424, Note_on_c, 1, 77, 65
4, 65424, Note_on_c, 1, 74, 65
4, 65444, Note_on_c, 1, 77, 0
4, 65444, Note_on_c, 1, 74, 0
4, 65472, Note_on_c, 1, 77, 65
4, 65472, Note_on_c, 1, 74, 65
4, 65492, Note_on_c, 1, 77, 0
4, 65492, Note_on_c, 1, 74, 0
4, 65520, Note_on_c, 1, 77, 65
4, 65520, Note_on_c, 1, 74, 65
4, 65540, Note_on_c, 1, 77, 0
4, 65540, Note_on_c, 1, 74, 0
4, 65568, Note_on_c, 1, 75, 65
4, 65588, Note_on_c, 1, 75, 0
4, 65616, Note_on_c, 1, 75, 65
4, 65636, Note_on_c, 1, 75, 0
4, 65712, Note_on_c, 1, 75, 65
4, 65712, Note_on_c, 1, 72, 65
4, 65732, Note_on_c, 1, 75, 0
4, 65732, Note_on_c, 1, 72, 0
4, 65760, Note_on_c, 1, 75, 65
4, 65760, Note_on_c, 1, 72, 65
4, 65780, Note_on_c, 1, 75, 0
4, 65780, Note_on_c, 1, 72, 0
4, 65808, Note_on_c, 1, 75, 65
4, 65808, Note_on_c, 1, 72, 65
4, 65828, Note_on_c, 1, 75, 0
4, 65828, Note_on_c, 1, 72, 0
4, 65856, Note_on_c, 1, 75, 65
4, 65856, Note_on_c, 1, 72, 65
4, 65876, Note_on_c, 1, 75, 0
4, 65876, Note_on_c, 1, 72, 0
4, 65904, Note_on_c, 1, 75, 65
4, 65904, Note_on_c, 1, 72, 65
4, 65924, Note_on_c, 1, 75, 0
4, 65924, Note_on_c, 1, 72, 0
4, 65952, Note_on_c, 1, 75, 65
4, 65952, Note_on_c, 1, 72, 65
4, 66048, Note_on_c, 1, 75, 0
4, 66048, Note_on_c, 1, 72, 0
4, 66048, Note_on_c, 1, 74, 65
4, 66048, Note_on_c, 1, 71, 65
4, 66137, Note_on_c, 1, 74, 0
4, 66137, Note_on_c, 1, 71, 0
4, 66288, Note_on_c, 1, 72, 65
4, 66311, Note_on_c, 1, 72, 0
4, 66312, Note_on_c, 1, 75, 65
4, 66335, Note_on_c, 1, 75, 0
4, 66336, Note_on_c, 1, 72, 65
4, 66359, Note_on_c, 1, 72, 0
4, 66360, Note_on_c, 1, 75, 65
4, 66383, Note_on_c, 1, 75, 0
4, 66384, Note_on_c, 1, 72, 65
4, 66407, Note_on_c, 1, 72, 0
4, 66408, Note_on_c, 1, 75, 65
4, 66431, Note_on_c, 1, 75, 0
4, 66432, Note_on_c, 1, 72, 65
4, 66455, Note_on_c, 1, 72, 0
4, 66456, Note_on_c, 1, 75, 65
4, 66479, Note_on_c, 1, 75, 0
4, 66480, Note_on_c, 1, 72, 65
4, 66503, Note_on_c, 1, 72, 0
4, 66504, Note_on_c, 1, 75, 65
4, 66527, Note_on_c, 1, 75, 0
4, 66528, Note_on_c, 1, 75, 65
4, 66528, Note_on_c, 1, 72, 65
4, 66624, Note_on_c, 1, 75, 0
4, 66624, Note_on_c, 1, 72, 0
4, 66624, Note_on_c, 1, 74, 65
4, 66624, Note_on_c, 1, 71, 65
4, 66691, Note_on_c, 1, 74, 0
4, 66691, Note_on_c, 1, 71, 0
4, 67152, Note_on_c, 1, 62, 65
4, 67152, Note_on_c, 1, 59, 65
4, 67152, Note_on_c, 1, 55, 65
4, 67197, Note_on_c, 1, 62, 0
4, 67197, Note_on_c, 1, 59, 0
4, 67197, Note_on_c, 1, 55, 0
4, 67200, Note_on_c, 1, 62, 65
4, 67200, Note_on_c, 1, 59, 65
4, 67200, Note_on_c, 1, 55, 65
4, 67245, Note_on_c, 1, 62, 0
4, 67245, Note_on_c, 1, 59, 0
4, 67245, Note_on_c, 1, 55, 0
4, 67248, Note_on_c, 1, 62, 65
4, 67248, Note_on_c, 1, 59, 65
4, 67248, Note_on_c, 1, 55, 65
4, 67293, Note_on_c, 1, 62, 0
4, 67293, Note_on_c, 1, 59, 0
4, 67293, Note_on_c, 1, 55, 0
4, 67440, Note_on_c, 1, 63, 65
4, 67440, Note_on_c, 1, 60, 65
4, 67440, Note_on_c, 1, 55, 65
4, 67485, Note_on_c, 1, 63, 0
4, 67485, Note_on_c, 1, 60, 0
4, 67485, Note_on_c, 1, 55, 0
4, 67488, Note_on_c, 1, 63, 65
4, 67488, Note_on_c, 1, 60, 65
4, 67488, Note_on_c, 1, 55, 65
4, 67533, Note_on_c, 1, 63, 0
4, 67533, Note_on_c, 1, 60, 0
4, 67533, Note_on_c, 1, 55, 0
4, 67536, Note_on_c, 1, 63, 65
4, 67536, Note_on_c, 1, 60, 65
4, 67536, Note_on_c, 1, 55, 65
4, 67581, Note_on_c, 1, 63, 0
4, 67581, Note_on_c, 1, 60, 0
4, 67581, Note_on_c, 1, 55, 0
4, 67728, Note_on_c, 1, 62, 65
4, 67728, Note_on_c, 1, 59, 65
4, 67728, Note_on_c, 1, 55, 65
4, 67773, Note_on_c, 1, 62, 0
4, 67773, Note_on_c, 1, 59, 0
4, 67773, Note_on_c, 1, 55, 0
4, 67776, Note_on_c, 1, 62, 65
4, 67776, Note_on_c, 1, 59, 65
4, 67776, Note_on_c, 1, 55, 65
4, 67821, Note_on_c, 1, 62, 0
4, 67821, Note_on_c, 1, 59, 0
4, 67821, Note_on_c, 1, 55, 0
4, 67824, Note_on_c, 1, 62, 65
4, 67824, Note_on_c, 1, 59, 65
4, 67824, Note_on_c, 1, 55, 65
4, 67869, Note_on_c, 1, 62, 0
4, 67869, Note_on_c, 1, 59, 0
4, 67869, Note_on_c, 1, 55, 0
4, 68016, Note_on_c, 1, 51, 65
4, 68061, Note_on_c, 1, 51, 0
4, 68064, Note_on_c, 1, 60, 65
4, 68153, Note_on_c, 1, 60, 0
4, 68304, Note_on_c, 1, 65, 65
4, 68349, Note_on_c, 1, 65, 0
4, 68352, Note_on_c, 1, 63, 65
4, 68441, Note_on_c, 1, 63, 0
4, 68448, Note_on_c, 1, 62, 65
4, 68537, Note_on_c, 1, 62, 0
4, 68544, Control_c, 1, 64, 127
4, 68544, Note_on_c, 1, 53, 85
4, 68544, Note_on_c, 1, 49, 85
4, 68544, Note_on_c, 1, 44, 85
4, 68544, Note_on_c, 1, 41, 85
4, 69097, Note_on_c, 1, 53, 0
4, 69097, Note_on_c, 1, 49, 0
4, 69097, Note_on_c, 1, 44, 0
4, 69097, Note_on_c, 1, 41, 0
4, 69120, Control_c, 1, 64, 0
4, 69120, Note_on_c, 1, 53, 85
4, 69120, Note_on_c, 1, 50, 85
4, 69120, Note_on_c, 1, 43, 85
4, 69297, Note_on_c, 1, 53, 0
4, 69297, Note_on_c, 1, 50, 0
4, 69297, Note_on_c, 1, 43, 0
4, 69312, Note_on_c, 1, 47, 85
4, 69401, Note_on_c, 1, 47, 0
4, 69408, Note_on_c, 1, 48, 85
4, 69447, Note_on_c, 1, 48, 0
4, 69504, Note_on_c, 1, 41, 85
4, 69543, Note_on_c, 1, 41, 0
4, 69600, Note_on_c, 1, 43, 85
4, 69639, Note_on_c, 1, 43, 0
4, 69696, Note_on_c, 1, 48, 85
4, 69735, Note_on_c, 1, 48, 0
4, 69792, Note_on_c, 1, 41, 85
4, 69831, Note_on_c, 1, 41, 0
4, 69888, Note_on_c, 1, 43, 85
4, 69927, Note_on_c, 1, 43, 0
4, 70032, Note_on_c, 1, 36, 72
4, 70077, Note_on_c, 1, 36, 0
4, 70080, Note_on_c, 1, 48, 72
4, 70169, Note_on_c, 1, 48, 0
4, 70320, Note_on_c, 1, 36, 72
4, 70365, Note_on_c, 1, 36, 0
4, 70368, Note_on_c, 1, 48, 72
4, 70457, Note_on_c, 1, 48, 0
4, 70608, Note_on_c, 1, 36, 72
4, 70653, Note_on_c, 1, 36, 0
4, 70656, Note_on_c, 1, 48, 72
4, 70745, Note_on_c, 1, 48, 0
4, 70896, Note_on_c, 1, 36, 73
4, 70941, Note_on_c, 1, 36, 0
4, 70944, Note_on_c, 1, 48, 73
4, 71033, Note_on_c, 1, 48, 0
4, 71184, Note_on_c, 1, 36, 75
4, 71229, Note_on_c, 1, 36, 0
4, 71232, Note_on_c, 1, 48, 76
4, 71321, Note_on_c, 1, 48, 0
4, 71424, Note_on_c, 1, 53, 77
4, 71424, Note_on_c, 1, 41, 77
4, 71469, Note_on_c, 1, 53, 0
4, 71469, Note_on_c, 1, 41, 0
4, 71472, Note_on_c, 1, 51, 78
4, 71472, Note_on_c, 1, 39, 78
4, 71517, Note_on_c, 1, 51, 0
4, 71517, Note_on_c, 1, 39, 0
4, 71520, Note_on_c, 1, 50, 78
4, 71520, Note_on_c, 1, 38, 78
4, 71565, Note_on_c, 1, 50, 0
4, 71565, Note_on_c, 1, 38, 0
4, 71568, Note_on_c, 1, 48, 78
4, 71568, Note_on_c, 1, 36, 78
4, 71613, Note_on_c, 1, 48, 0
4, 71613, Note_on_c, 1, 36, 0
4, 71616, Note_on_c, 1, 46, 79
4, 71616, Note_on_c, 1, 34, 79
4, 71661, Note_on_c, 1, 46, 0
4, 71661, Note_on_c, 1, 34, 0
4, 71664, Note_on_c, 1, 45, 79
4, 71664, Note_on_c, 1, 33, 79
4, 71709, Note_on_c, 1, 45, 0
4, 71709, Note_on_c, 1, 33, 0
4, 71712, Note_on_c, 1, 46, 80
4, 71712, Note_on_c, 1, 34, 80
4, 71977, Note_on_c, 1, 46, 0
4, 71977, Note_on_c, 1, 34, 0
4, 72000, Control_c, 1, 64, 127
4, 72000, Note_on_c, 1, 56, 82
4, 72000, Note_on_c, 1, 53, 82
4, 72000, Note_on_c, 1, 50, 82
4, 72000, Note_on_c, 1, 46, 82
4, 72553, Note_on_c, 1, 56, 0
4, 72553, Note_on_c, 1, 53, 0
4, 72553, Note_on_c, 1, 50, 0
4, 72553, Note_on_c, 1, 46, 0
4, 72576, Control_c, 1, 64, 0
4, 72624, Note_on_c, 1, 39, 79
4, 72669, Note_on_c, 1, 39, 0
4, 72672, Note_on_c, 1, 43, 79
4, 72717, Note_on_c, 1, 43, 0
4, 72720, Note_on_c, 1, 46, 79
4, 72765, Note_on_c, 1, 46, 0
4, 72768, Note_on_c, 1, 51, 79
4, 72813, Note_on_c, 1, 51, 0
4, 72816, Note_on_c, 1, 56, 79
4, 72861, Note_on_c, 1, 56, 0
4, 72864, Note_on_c, 1, 55, 79
4, 72953, Note_on_c, 1, 55, 0
4, 73200, Note_on_c, 1, 39, 79
4, 73245, Note_on_c, 1, 39, 0
4, 73248, Note_on_c, 1, 43, 79
4, 73293, Note_on_c, 1, 43, 0
4, 73296, Note_on_c, 1, 46, 79
4, 73341, Note_on_c, 1, 46, 0
4, 73344, Note_on_c, 1, 51, 79
4, 73389, Note_on_c, 1, 51, 0
4, 73392, Note_on_c, 1, 56, 79
4, 73437, Note_on_c, 1, 56, 0
4, 73440, Note_on_c, 1, 55, 79
4, 73529, Note_on_c, 1, 55, 0
4, 73776, Note_on_c, 1, 68, 79
4, 73800, Note_on_c, 1, 68, 0
4, 73800, Note_on_c, 1, 70, 79
4, 73823, Note_on_c, 1, 70, 0
4, 73824, Note_on_c, 1, 68, 79
4, 73848, Note_on_c, 1, 68, 0
4, 73848, Note_on_c, 1, 70, 79
4, 73871, Note_on_c, 1, 70, 0
4, 73872, Note_on_c, 1, 68, 79
4, 73896, Note_on_c, 1, 68, 0
4, 73896, Note_on_c, 1, 70, 79
4, 73919, Note_on_c, 1, 70, 0
4, 73920, Note_on_c, 1, 68, 79
4, 73944, Note_on_c, 1, 68, 0
4, 73944, Note_on_c, 1, 70, 79
4, 73967, Note_on_c, 1, 70, 0
4, 73968, Note_on_c, 1, 68, 79
4, 73992, Note_on_c, 1, 68, 0
4, 73992, Note_on_c, 1, 70, 79
4, 74015, Note_on_c, 1, 70, 0
4, 74016, Note_on_c, 1, 70, 79
4, 74281, Note_on_c, 1, 70, 0
4, 74352, Note_on_c, 1, 44, 79
4, 74376, Note_on_c, 1, 44, 0
4, 74376, Note_on_c, 1, 56, 79
4, 74399, Note_on_c, 1, 56, 0
4, 74400, Note_on_c, 1, 44, 79
4, 74424, Note_on_c, 1, 44, 0
4, 74424, Note_on_c, 1, 56, 79
4, 74447, Note_on_c, 1, 56, 0
4, 74448, Note_on_c, 1, 44, 79
4, 74472, Note_on_c, 1, 44, 0
4, 74472, Note_on_c, 1, 56, 79
4, 74495, Note_on_c, 1, 56, 0
4, 74496, Note_on_c, 1, 46, 79
4, 74520, Note_on_c, 1, 46, 0
4, 74520, Note_on_c, 1, 58, 79
4, 74543, Note_on_c, 1, 58, 0
4, 74544, Note_on_c, 1, 46, 79
4, 74568, Note_on_c, 1, 46, 0
4, 74568, Note_on_c, 1, 58, 79
4, 74591, Note_on_c, 1, 58, 0
4, 74592, Note_on_c, 1, 39, 79
4, 74637, Note_on_c, 1, 39, 0
4, 74640, Note_on_c, 1, 67, 79
4, 74640, Note_on_c, 1, 63, 79
4, 74660, Note_on_c, 1, 67, 0
4, 74660, Note_on_c, 1, 63, 0
4, 74688, Note_on_c, 1, 67, 79
4, 74688, Note_on_c, 1, 63, 79
4, 74708, Note_on_c, 1, 67, 0
4, 74708, Note_on_c, 1, 63, 0
4, 74736, Note_on_c, 1, 67, 79
4, 74736, Note_on_c, 1, 63, 79
4, 74756, Note_on_c, 1, 67, 0
4, 74756, Note_on_c, 1, 63, 0
4, 74784, Note_on_c, 1, 67, 79
4, 74784, Note_on_c, 1, 63, 79
4, 74804, Note_on_c, 1, 67, 0
4, 74804, Note_on_c, 1, 63, 0
4, 74832, Note_on_c, 1, 67, 79
4, 74832, Note_on_c, 1, 63, 79
4, 74852, Note_on_c, 1, 67, 0
4, 74852, Note_on_c, 1, 63, 0
4, 74880, Note_on_c, 1, 65, 79
4, 75145, Note_on_c, 1, 65, 0
4, 75216, Note_on_c, 1, 73, 79
4, 75216, Note_on_c, 1, 63, 79
4, 75236, Note_on_c, 1, 73, 0
4, 75236, Note_on_c, 1, 63, 0
4, 75264, Note_on_c, 1, 73, 79
4, 75264, Note_on_c, 1, 63, 79
4, 75284, Note_on_c, 1, 73, 0
4, 75284, Note_on_c, 1, 63, 0
4, 75312, Note_on_c, 1, 73, 79
4, 75312, Note_on_c, 1, 63, 79
4, 75332, Note_on_c, 1, 73, 0
4, 75332, Note_on_c, 1, 63, 0
4, 75360, Note_on_c, 1, 73, 79
4, 75360, Note_on_c, 1, 63, 79
4, 75380, Note_on_c, 1, 73, 0
4, 75380, Note_on_c, 1, 63, 0
4, 75408, Note_on_c, 1, 73, 79
4, 75408, Note_on_c, 1, 63, 79
4, 75428, Note_on_c, 1, 73, 0
4, 75428, Note_on_c, 1, 63, 0
4, 75456, Note_on_c, 1, 73, 95
4, 75456, Note_on_c, 1, 63, 95
4, 75648, Note_on_c, 1, 73, 0
4, 75648, Note_on_c, 1, 63, 0
4, 75648, Note_on_c, 1, 72, 79
4, 75648, Note_on_c, 1, 64, 79
4, 75737, Note_on_c, 1, 72, 0
4, 75737, Note_on_c, 1, 64, 0
4, 75792, Note_on_c, 1, 72, 79
4, 75792, Note_on_c, 1, 65, 79
4, 75812, Note_on_c, 1, 72, 0
4, 75812, Note_on_c, 1, 65, 0
4, 75840, Note_on_c, 1, 72, 79
4, 75840, Note_on_c, 1, 65, 79
4, 75860, Note_on_c, 1, 72, 0
4, 75860, Note_on_c, 1, 65, 0
4, 75888, Note_on_c, 1, 72, 79
4, 75888, Note_on_c, 1, 65, 79
4, 75908, Note_on_c, 1, 72, 0
4, 75908, Note_on_c, 1, 65, 0
4, 75936, Note_on_c, 1, 72, 79
4, 75936, Note_on_c, 1, 65, 79
4, 75956, Note_on_c, 1, 72, 0
4, 75956, Note_on_c, 1, 65, 0
4, 75984, Note_on_c, 1, 72, 79
4, 75984, Note_on_c, 1, 65, 79
4, 76004, Note_on_c, 1, 72, 0
4, 76004, Note_on_c, 1, 65, 0
4, 76080, Note_on_c, 1, 65, 79
4, 76080, Note_on_c, 1, 62, 79
4, 76100, Note_on_c, 1, 65, 0
4, 76100, Note_on_c, 1, 62, 0
4, 76128, Note_on_c, 1, 65, 79
4, 76128, Note_on_c, 1, 62, 79
4, 76148, Note_on_c, 1, 65, 0
4, 76148, Note_on_c, 1, 62, 0
4, 76176, Note_on_c, 1, 65, 79
4, 76176, Note_on_c, 1, 62, 79
4, 76196, Note_on_c, 1, 65, 0
4, 76196, Note_on_c, 1, 62, 0
4, 76224, Note_on_c, 1, 67, 79
4, 76224, Note_on_c, 1, 63, 79
4, 76244, Note_on_c, 1, 67, 0
4, 76244, Note_on_c, 1, 63, 0
4, 76272, Note_on_c, 1, 67, 79
4, 76272, Note_on_c, 1, 63, 79
4, 76292, Note_on_c, 1, 67, 0
4, 76292, Note_on_c, 1, 63, 0
4, 76320, Note_on_c, 1, 65, 79
4, 76320, Note_on_c, 1, 60, 79
4, 76320, Note_on_c, 1, 56, 79
4, 76497, Note_on_c, 1, 65, 0
4, 76497, Note_on_c, 1, 60, 0
4, 76497, Note_on_c, 1, 56, 0
4, 76512, Note_on_c, 1, 65, 79
4, 76512, Note_on_c, 1, 57, 79
4, 76608, Note_on_c, 1, 57, 0
4, 76608, Note_on_c, 1, 58, 79
4, 76697, Note_on_c, 1, 65, 0
4, 76697, Note_on_c, 1, 58, 0
4, 76704, Note_on_c, 1, 70, 79
4, 76798, Note_on_c, 1, 70, 0
4, 76944, Note_on_c, 1, 67, 65
4, 76944, Note_on_c, 1, 64, 65
4, 76992, Note_on_c, 1, 67, 0
4, 76992, Note_on_c, 1, 64, 0
4, 76992, Note_on_c, 1, 68, 65
4, 76992, Note_on_c, 1, 65, 65
4, 77081, Note_on_c, 1, 68, 0
4, 77081, Note_on_c, 1, 65, 0
4, 77520, Note_on_c, 1, 65, 72
4, 77520, Note_on_c, 1, 62, 72
4, 77568, Note_on_c, 1, 65, 0
4, 77568, Note_on_c, 1, 62, 0
4, 77568, Note_on_c, 1, 67, 72
4, 77568, Note_on_c, 1, 63, 72
4, 77657, Note_on_c, 1, 67, 0
4, 77657, Note_on_c, 1, 63, 0
4, 78000, Note_on_c, 1, 55, 72
4, 78000, Note_on_c, 1, 51, 72
4, 78048, Note_on_c, 1, 55, 0
4, 78048, Note_on_c, 1, 51, 0
4, 78048, Note_on_c, 1, 60, 72
4, 78048, Note_on_c, 1, 56, 72
4, 78137, Note_on_c, 1, 60, 0
4, 78137, Note_on_c, 1, 56, 0
4, 78288, Note_on_c, 1, 58, 72
4, 78288, Note_on_c, 1, 55, 72
4, 78336, Note_on_c, 1, 58, 0
4, 78336, Note_on_c, 1, 55, 0
4, 78336, Note_on_c, 1, 60, 72
4, 78336, Note_on_c, 1, 56, 72
4, 78425, Note_on_c, 1, 60, 0
4, 78425, Note_on_c, 1, 56, 0
4, 78624, Note_on_c, 1, 60, 72
4, 78624, Note_on_c, 1, 56, 72
4, 78713, Note_on_c, 1, 60, 0
4, 78713, Note_on_c, 1, 56, 0
4, 78888, Note_on_c, 1, 63, 72
4, 78888, Note_on_c, 1, 57, 72
4, 78911, Note_on_c, 1, 63, 0
4, 78911, Note_on_c, 1, 57, 0
4, 78912, Note_on_c, 1, 63, 72
4, 79001, Note_on_c, 1, 63, 0
4, 79008, Note_on_c, 1, 62, 72
4, 79097, Note_on_c, 1, 62, 0
4, 79248, Note_on_c, 1, 39, 72
4, 79293, Note_on_c, 1, 39, 0
4, 79296, Note_on_c, 1, 51, 72
4, 79385, Note_on_c, 1, 51, 0
4, 79488, Note_on_c, 1, 63, 72
4, 79533, Note_on_c, 1, 63, 0
4, 79584, Note_on_c, 1, 63, 72
4, 79629, Note_on_c, 1, 63, 0
4, 79680, Note_on_c, 1, 63, 72
4, 79725, Note_on_c, 1, 63, 0
4, 79824, Note_on_c, 1, 39, 72
4, 79869, Note_on_c, 1, 39, 0
4, 79872, Note_on_c, 1, 51, 72
4, 79961, Note_on_c, 1, 51, 0
4, 80064, Note_on_c, 1, 63, 72
4, 80109, Note_on_c, 1, 63, 0
4, 80160, Note_on_c, 1, 63, 72
4, 80205, Note_on_c, 1, 63, 0
4, 80256, Note_on_c, 1, 63, 72
4, 80301, Note_on_c, 1, 63, 0
4, 80400, Note_on_c, 1, 67, 65
4, 80400, Note_on_c, 1, 63, 65
4, 80445, Note_on_c, 1, 67, 0
4, 80445, Note_on_c, 1, 63, 0
4, 80448, Note_on_c, 1, 67, 65
4, 80448, Note_on_c, 1, 63, 65
4, 80493, Note_on_c, 1, 67, 0
4, 80493, Note_on_c, 1, 63, 0
4, 80496, Note_on_c, 1, 67, 65
4, 80496, Note_on_c, 1, 63, 65
4, 80541, Note_on_c, 1, 67, 0
4, 80541, Note_on_c, 1, 63, 0
4, 80544, Note_on_c, 1, 67, 65
4, 80544, Note_on_c, 1, 63, 65
4, 80589, Note_on_c, 1, 67, 0
4, 80589, Note_on_c, 1, 63, 0
4, 80592, Note_on_c, 1, 67, 65
4, 80592, Note_on_c, 1, 63, 65
4, 80637, Note_on_c, 1, 67, 0
4, 80637, Note_on_c, 1, 63, 0
4, 80688, Note_on_c, 1, 65, 65
4, 80688, Note_on_c, 1, 62, 65
4, 80733, Note_on_c, 1, 65, 0
4, 80733, Note_on_c, 1, 62, 0
4, 80736, Note_on_c, 1, 65, 65
4, 80736, Note_on_c, 1, 62, 65
4, 80781, Note_on_c, 1, 65, 0
4, 80781, Note_on_c, 1, 62, 0
4, 80784, Note_on_c, 1, 65, 65
4, 80784, Note_on_c, 1, 62, 65
4, 80829, Note_on_c, 1, 65, 0
4, 80829, Note_on_c, 1, 62, 0
4, 80832, Note_on_c, 1, 65, 65
4, 80832, Note_on_c, 1, 62, 65
4, 80877, Note_on_c, 1, 65, 0
4, 80877, Note_on_c, 1, 62, 0
4, 80880, Note_on_c, 1, 65, 65
4, 80880, Note_on_c, 1, 62, 65
4, 80925, Note_on_c, 1, 65, 0
4, 80925, Note_on_c, 1, 62, 0
4, 80976, Note_on_c, 1, 63, 65
4, 80976, Note_on_c, 1, 60, 65
4, 81021, Note_on_c, 1, 63, 0
4, 81021, Note_on_c, 1, 60, 0
4, 81024, Note_on_c, 1, 63, 65
4, 81024, Note_on_c, 1, 60, 65
4, 81069, Note_on_c, 1, 63, 0
4, 81069, Note_on_c, 1, 60, 0
4, 81072, Note_on_c, 1, 63, 65
4, 81072, Note_on_c, 1, 60, 65
4, 81117, Note_on_c, 1, 63, 0
4, 81117, Note_on_c, 1, 60, 0
4, 81120, Note_on_c, 1, 63, 65
4, 81120, Note_on_c, 1, 60, 65
4, 81165, Note_on_c, 1, 63, 0
4, 81165, Note_on_c, 1, 60, 0
4, 81168, Note_on_c, 1, 63, 65
4, 81168, Note_on_c, 1, 60, 65
4, 81213, Note_on_c, 1, 63, 0
4, 81213, Note_on_c, 1, 60, 0
4, 81264, Note_on_c, 1, 62, 66
4, 81264, Note_on_c, 1, 58, 66
4, 81309, Note_on_c, 1, 62, 0
4, 81309, Note_on_c, 1, 58, 0
4, 81312, Note_on_c, 1, 62, 66
4, 81312, Note_on_c, 1, 58, 66
4, 81357, Note_on_c, 1, 62, 0
4, 81357, Note_on_c, 1, 58, 0
4, 81360, Note_on_c, 1, 62, 67
4, 81360, Note_on_c, 1, 58, 67
4, 81405, Note_on_c, 1, 62, 0
4, 81405, Note_on_c, 1, 58, 0
4, 81408, Note_on_c, 1, 63, 67
4, 81408, Note_on_c, 1, 58, 67
4, 81453, Note_on_c, 1, 63, 0
4, 81453, Note_on_c, 1, 58, 0
4, 81456, Note_on_c, 1, 63, 68
4, 81456, Note_on_c, 1, 58, 68
4, 81501, Note_on_c, 1, 63, 0
4, 81501, Note_on_c, 1, 58, 0
4, 81552, Note_on_c, 1, 63, 69
4, 81552, Note_on_c, 1, 56, 69
4, 81597, Note_on_c, 1, 63, 0
4, 81597, Note_on_c, 1, 56, 0
4, 81600, Note_on_c, 1, 63, 69
4, 81600, Note_on_c, 1, 56, 69
4, 81645, Note_on_c, 1, 63, 0
4, 81645, Note_on_c, 1, 56, 0
4, 81648, Note_on_c, 1, 63, 70
4, 81648, Note_on_c, 1, 56, 70
4, 81693, Note_on_c, 1, 63, 0
4, 81693, Note_on_c, 1, 56, 0
4, 81696, Note_on_c, 1, 65, 70
4, 81696, Note_on_c, 1, 56, 70
4, 81741, Note_on_c, 1, 65, 0
4, 81741, Note_on_c, 1, 56, 0
4, 81744, Note_on_c, 1, 65, 71
4, 81744, Note_on_c, 1, 56, 71
4, 81789, Note_on_c, 1, 65, 0
4, 81789, Note_on_c, 1, 56, 0
4, 81840, Note_on_c, 1, 58, 72
4, 81840, Note_on_c, 1, 55, 72
4, 81885, Note_on_c, 1, 58, 0
4, 81885, Note_on_c, 1, 55, 0
4, 81888, Note_on_c, 1, 58, 72
4, 81888, Note_on_c, 1, 55, 72
4, 81933, Note_on_c, 1, 58, 0
4, 81933, Note_on_c, 1, 55, 0
4, 81936, Note_on_c, 1, 58, 72
4, 81936, Note_on_c, 1, 55, 72
4, 81981, Note_on_c, 1, 58, 0
4, 81981, Note_on_c, 1, 55, 0
4, 81984, Note_on_c, 1, 63, 72
4, 81984, Note_on_c, 1, 55, 72
4, 82029, Note_on_c, 1, 63, 0
4, 82029, Note_on_c, 1, 55, 0
4, 82032, Note_on_c, 1, 63, 72
4, 82032, Note_on_c, 1, 55, 72
4, 82077, Note_on_c, 1, 63, 0
4, 82077, Note_on_c, 1, 55, 0
4, 82080, Note_on_c, 1, 63, 72
4, 82080, Note_on_c, 1, 56, 72
4, 82125, Note_on_c, 1, 63, 0
4, 82125, Note_on_c, 1, 56, 0
4, 82128, Note_on_c, 1, 63, 70
4, 82128, Note_on_c, 1, 56, 70
4, 82173, Note_on_c, 1, 63, 0
4, 82173, Note_on_c, 1, 56, 0
4, 82176, Note_on_c, 1, 63, 69
4, 82176, Note_on_c, 1, 58, 69
4, 82221, Note_on_c, 1, 63, 0
4, 82221, Note_on_c, 1, 58, 0
4, 82224, Note_on_c, 1, 63, 68
4, 82224, Note_on_c, 1, 58, 68
4, 82269, Note_on_c, 1, 63, 0
4, 82269, Note_on_c, 1, 58, 0
4, 82272, Note_on_c, 1, 62, 67
4, 82272, Note_on_c, 1, 58, 67
4, 82317, Note_on_c, 1, 62, 0
4, 82317, Note_on_c, 1, 58, 0
4, 82320, Note_on_c, 1, 62, 66
4, 82320, Note_on_c, 1, 58, 66
4, 82365, Note_on_c, 1, 62, 0
4, 82365, Note_on_c, 1, 58, 0
4, 82368, Note_on_c, 1, 60, 65
4, 82545, Note_on_c, 1, 60, 0
4, 82560, Note_on_c, 1, 63, 65
4, 82833, Note_on_c, 1, 63, 0
4, 82848, Note_on_c, 1, 62, 65
4, 83099, Note_on_c, 1, 62, 0
4, 83568, Note_on_c, 1, 56, 65
4, 83568, Note_on_c, 1, 50, 65
4, 83568, Note_on_c, 1, 46, 65
4, 83613, Note_on_c, 1, 56, 0
4, 83613, Note_on_c, 1, 50, 0
4, 83613, Note_on_c, 1, 46, 0
4, 83616, Note_on_c, 1, 56, 65
4, 83616, Note_on_c, 1, 50, 65
4, 83616, Note_on_c, 1, 46, 65
4, 83661, Note_on_c, 1, 56, 0
4, 83661, Note_on_c, 1, 50, 0
4, 83661, Note_on_c, 1, 46, 0
4, 83664, Note_on_c, 1, 56, 65
4, 83664, Note_on_c, 1, 50, 65
4, 83664, Note_on_c, 1, 46, 65
4, 83709, Note_on_c, 1, 56, 0
4, 83709, Note_on_c, 1, 50, 0
4, 83709, Note_on_c, 1, 46, 0
4, 83856, Note_on_c, 1, 55, 65
4, 83856, Note_on_c, 1, 51, 65
4, 83856, Note_on_c, 1, 46, 65
4, 83901, Note_on_c, 1, 55, 0
4, 83901, Note_on_c, 1, 51, 0
4, 83901, Note_on_c, 1, 46, 0
4, 83904, Note_on_c, 1, 55, 65
4, 83904, Note_on_c, 1, 51, 65
4, 83904, Note_on_c, 1, 46, 65
4, 83949, Note_on_c, 1, 55, 0
4, 83949, Note_on_c, 1, 51, 0
4, 83949, Note_on_c, 1, 46, 0
4, 83952, Note_on_c, 1, 55, 65
4, 83952, Note_on_c, 1, 51, 65
4, 83952, Note_on_c, 1, 46, 65
4, 83997, Note_on_c, 1, 55, 0
4, 83997, Note_on_c, 1, 51, 0
4, 83997, Note_on_c, 1, 46, 0
4, 84144, Note_on_c, 1, 53, 65
4, 84144, Note_on_c, 1, 50, 65
4, 84144, Note_on_c, 1, 46, 65
4, 84189, Note_on_c, 1, 53, 0
4, 84189, Note_on_c, 1, 50, 0
4, 84189, Note_on_c, 1, 46, 0
4, 84192, Note_on_c, 1, 53, 65
4, 84192, Note_on_c, 1, 50, 65
4, 84192, Note_on_c, 1, 46, 65
4, 84237, Note_on_c, 1, 53, 0
4, 84237, Note_on_c, 1, 50, 0
4, 84237, Note_on_c, 1, 46, 0
4, 84240, Note_on_c, 1, 53, 65
4, 84240, Note_on_c, 1, 50, 65
4, 84240, Note_on_c, 1, 46, 65
4, 84285, Note_on_c, 1, 53, 0
4, 84285, Note_on_c, 1, 50, 0
4, 84285, Note_on_c, 1, 46, 0
4, 84624, Note_on_c, 1, 62, 65
4, 84669, Note_on_c, 1, 62, 0
4, 85008, Note_on_c, 1, 56, 65
4, 85053, Note_on_c, 1, 56, 0
4, 85056, Note_on_c, 1, 55, 65
4, 85145, Note_on_c, 1, 55, 0
4, 85152, Note_on_c, 1, 53, 65
4, 85241, Note_on_c, 1, 53, 0
4, 85248, Note_on_c, 1, 51, 79
4, 85342, Note_on_c, 1, 51, 0
4, 85344, Note_on_c, 1, 60, 79
4, 85438, Note_on_c, 1, 60, 0
4, 85440, Note_on_c, 1, 58, 79
4, 85534, Note_on_c, 1, 58, 0
4, 85536, Note_on_c, 1, 56, 79
4, 85625, Note_on_c, 1, 56, 0
4, 85632, Note_on_c, 1, 55, 79
4, 85809, Note_on_c, 1, 55, 0
4, 85824, Note_on_c, 1, 56, 79
4, 85913, Note_on_c, 1, 56, 0
4, 85920, Note_on_c, 1, 58, 79
4, 86009, Note_on_c, 1, 58, 0
4, 86016, Note_on_c, 1, 46, 79
4, 86105, Note_on_c, 1, 46, 0
4, 86112, Note_on_c, 1, 39, 79
4, 86201, Note_on_c, 1, 39, 0
4, 86208, Note_on_c, 1, 72, 79
4, 86297, Note_on_c, 1, 72, 0
4, 86304, Note_on_c, 1, 70, 79
4, 86393, Note_on_c, 1, 70, 0
4, 86400, Note_on_c, 1, 68, 79
4, 86489, Note_on_c, 1, 68, 0
4, 86496, Note_on_c, 1, 67, 79
4, 86673, Note_on_c, 1, 67, 0
4, 86688, Note_on_c, 1, 68, 79
4, 86777, Note_on_c, 1, 68, 0
4, 86784, Note_on_c, 1, 70, 79
4, 86873, Note_on_c, 1, 70, 0
4, 86880, Note_on_c, 1, 58, 79
4, 86969, Note_on_c, 1, 58, 0
4, 87024, Note_on_c, 1, 39, 72
4, 87069, Note_on_c, 1, 39, 0
4, 87072, Note_on_c, 1, 51, 72
4, 87161, Note_on_c, 1, 51, 0
4, 87312, Note_on_c, 1, 39, 72
4, 87357, Note_on_c, 1, 39, 0
4, 87360, Note_on_c, 1, 51, 72
4, 87449, Note_on_c, 1, 51, 0
4, 87600, Note_on_c, 1, 39, 72
4, 87645, Note_on_c, 1, 39, 0
4, 87648, Note_on_c, 1, 51, 72
4, 87737, Note_on_c, 1, 51, 0
4, 87888, Note_on_c, 1, 39, 72
4, 87933, Note_on_c, 1, 39, 0
4, 87936, Note_on_c, 1, 51, 72
4, 88025, Note_on_c, 1, 51, 0
4, 88176, Note_on_c, 1, 39, 75
4, 88221, Note_on_c, 1, 39, 0
4, 88224, Note_on_c, 1, 51, 76
4, 88244, Note_on_c, 1, 51, 0
4, 88272, Note_on_c, 1, 55, 77
4, 88292, Note_on_c, 1, 55, 0
4, 88320, Note_on_c, 1, 56, 78
4, 88340, Note_on_c, 1, 56, 0
4, 88368, Note_on_c, 1, 53, 79
4, 88388, Note_on_c, 1, 53, 0
4, 88416, Note_on_c, 1, 55, 80
4, 88436, Note_on_c, 1, 55, 0
4, 88464, Note_on_c, 1, 50, 81
4, 88484, Note_on_c, 1, 50, 0
4, 88512, Note_on_c, 1, 51, 82
4, 88551, Note_on_c, 1, 51, 0
4, 88704, Note_on_c, 1, 44, 85
4, 88793, Note_on_c, 1, 44, 0
4, 88896, Note_on_c, 1, 56, 75
4, 88896, Note_on_c, 1, 46, 75
4, 88992, Note_on_c, 1, 46, 0
4, 89081, Note_on_c, 1, 56, 0
4, 89088, Note_on_c, 1, 55, 68
4, 89177, Note_on_c, 1, 55, 0
4, 89280, Note_on_c, 1, 51, 0
4, 89457, Note_on_c, 1, 51, 0
4, 89472, End_track
5, 0, Start_track
5, 0, Program_c, 1, 0
5, 0, Control_c, 1, 7, 127
5, 0, Control_c, 1, 10, 64
5, 1440, Note_on_c, 1, 68, 64
5, 1632, Note_on_c, 1, 68, 0
5, 1632, Note_on_c, 1, 67, 64
5, 1721, Note_on_c, 1, 67, 0
5, 3168, Note_on_c, 1, 67, 64
5, 3345, Note_on_c, 1, 67, 0
5, 6624, Note_on_c, 1, 65, 64
5, 6801, Note_on_c, 1, 65, 0
5, 10080, Note_on_c, 1, 67, 64
5, 10345, Note_on_c, 1, 67, 0
5, 10368, Note_on_c, 1, 65, 64
5, 10811, Note_on_c, 1, 65, 0
5, 12384, Note_on_c, 1, 51, 64
5, 12473, Note_on_c, 1, 51, 0
5, 12480, Note_on_c, 1, 53, 64
5, 12569, Note_on_c, 1, 53, 0
5, 12576, Note_on_c, 1, 53, 64
5, 12665, Note_on_c, 1, 53, 0
5, 13056, Note_on_c, 1, 62, 64
5, 13233, Note_on_c, 1, 62, 0
5, 13920, Note_on_c, 1, 62, 64
5, 14097, Note_on_c, 1, 62, 0
5, 16416, Note_on_c, 1, 46, 64
5, 16593, Note_on_c, 1, 46, 0
5, 18144, Note_on_c, 1, 68, 64
5, 18336, Note_on_c, 1, 68, 0
5, 18336, Note_on_c, 1, 67, 64
5, 18425, Note_on_c, 1, 67, 0
5, 19872, Note_on_c, 1, 67, 64
5, 20049, Note_on_c, 1, 67, 0
5, 23328, Note_on_c, 1, 65, 64
5, 23505, Note_on_c, 1, 65, 0
5, 26784, Note_on_c, 1, 67, 64
5, 27049, Note_on_c, 1, 67, 0
5, 27072, Note_on_c, 1, 65, 64
5, 27515, Note_on_c, 1, 65, 0
5, 29088, Note_on_c, 1, 51, 64
5, 29177, Note_on_c, 1, 51, 0
5, 29184, Note_on_c, 1, 53, 64
5, 29273, Note_on_c, 1, 53, 0
5, 29280, Note_on_c, 1, 53, 64
5, 29369, Note_on_c, 1, 53, 0
5, 29760, Note_on_c, 1, 62, 64
5, 29937, Note_on_c, 1, 62, 0
5, 30624, Note_on_c, 1, 62, 64
5, 30801, Note_on_c, 1, 62, 0
5, 33120, Note_on_c, 1, 46, 64
5, 33297, Note_on_c, 1, 46, 0
5, 33456, Note_on_c, 1, 46, 64
5, 33501, Note_on_c, 1, 46, 0
5, 33504, Note_on_c, 1, 50, 64
5, 33549, Note_on_c, 1, 50, 0
5, 33552, Note_on_c, 1, 53, 64
5, 33597, Note_on_c, 1, 53, 0
5, 33600, Note_on_c, 1, 58, 64
5, 33645, Note_on_c, 1, 58, 0
5, 33648, Note_on_c, 1, 63, 64
5, 33693, Note_on_c, 1, 63, 0
5, 33696, Note_on_c, 1, 62, 64
5, 33785, Note_on_c, 1, 62, 0
5, 34032, Note_on_c, 1, 58, 64
5, 34737, Note_on_c, 1, 58, 0
5, 34752, Note_on_c, 1, 59, 74
5, 34841, Note_on_c, 1, 59, 0
5, 34848, Note_on_c, 1, 60, 72
5, 34893, Note_on_c, 1, 60, 0
5, 38592, Note_on_c, 1, 75, 72
5, 38592, Note_on_c, 1, 72, 72
5, 38688, Note_on_c, 1, 75, 0
5, 38688, Note_on_c, 1, 72, 0
5, 38688, Note_on_c, 1, 74, 72
5, 38688, Note_on_c, 1, 71, 72
5, 38777, Note_on_c, 1, 74, 0
5, 38777, Note_on_c, 1, 71, 0
5, 40320, Note_on_c, 1, 53, 72
5, 40409, Note_on_c, 1, 53, 0
5, 40416, Note_on_c, 1, 55, 72
5, 40593, Note_on_c, 1, 55, 0
5, 46080, Note_on_c, 1, 68, 72
5, 46272, Note_on_c, 1, 68, 0
5, 46272, Note_on_c, 1, 67, 72
5, 46361, Note_on_c, 1, 67, 0
5, 46944, Note_on_c, 1, 63, 88
5, 47136, Note_on_c, 1, 63, 0
5, 47136, Note_on_c, 1, 62, 72
5, 47225, Note_on_c, 1, 62, 0
5, 50976, Note_on_c, 1, 58, 72
5, 51153, Note_on_c, 1, 58, 0
5, 54432, Note_on_c, 1, 60, 72
5, 54697, Note_on_c, 1, 60, 0
5, 54720, Note_on_c, 1, 58, 72
5, 55163, Note_on_c, 1, 58, 0
5, 57024, Note_on_c, 1, 44, 72
5, 57113, Note_on_c, 1, 44, 0
5, 57120, Note_on_c, 1, 46, 72
5, 57209, Note_on_c, 1, 46, 0
5, 57216, Note_on_c, 1, 46, 72
5, 57305, Note_on_c, 1, 46, 0
5, 57792, Note_on_c, 1, 67, 72
5, 57792, Note_on_c, 1, 63, 72
5, 57881, Note_on_c, 1, 67, 0
5, 57881, Note_on_c, 1, 63, 0
5, 58656, Note_on_c, 1, 79, 72
5, 58656, Note_on_c, 1, 75, 72
5, 58745, Note_on_c, 1, 79, 0
5, 58745, Note_on_c, 1, 75, 0
5, 61056, Note_on_c, 1, 51, 72
5, 61233, Note_on_c, 1, 51, 0
5, 61392, Note_on_c, 1, 46, 64
5, 61437, Note_on_c, 1, 46, 0
5, 61440, Note_on_c, 1, 50, 64
5, 61485, Note_on_c, 1, 50, 0
5, 61488, Note_on_c, 1, 53, 64
5, 61533, Note_on_c, 1, 53, 0
5, 61536, Note_on_c, 1, 58, 64
5, 61581, Note_on_c, 1, 58, 0
5, 61584, Note_on_c, 1, 63, 64
5, 61629, Note_on_c, 1, 63, 0
5, 61632, Note_on_c, 1, 62, 64
5, 61721, Note_on_c, 1, 62, 0
5, 61968, Note_on_c, 1, 58, 64
5, 62673, Note_on_c, 1, 58, 0
5, 62688, Note_on_c, 1, 59, 74
5, 62777, Note_on_c, 1, 59, 0
5, 62784, Note_on_c, 1, 60, 72
5, 62829, Note_on_c, 1, 60, 0
5, 66528, Note_on_c, 1, 75, 72
5, 66528, Note_on_c, 1, 72, 72
5, 66624, Note_on_c, 1, 75, 0
5, 66624, Note_on_c, 1, 72, 0
5, 66624, Note_on_c, 1, 74, 72
5, 66624, Note_on_c, 1, 71, 72
5, 66713, Note_on_c, 1, 74, 0
5, 66713, Note_on_c, 1, 71, 0
5, 68256, Note_on_c, 1, 53, 72
5, 68345, Note_on_c, 1, 53, 0
5, 68352, Note_on_c, 1, 55, 72
5, 68529, Note_on_c, 1, 55, 0
5, 74016, Note_on_c, 1, 68, 72
5, 74208, Note_on_c, 1, 68, 0
5, 74208, Note_on_c, 1, 67, 72
5, 74297, Note_on_c, 1, 67, 0
5, 74880, Note_on_c, 1, 63, 88
5, 75072, Note_on_c, 1, 63, 0
5, 75072, Note_on_c, 1, 62, 72
5, 75161, Note_on_c, 1, 62, 0
5, 78912, Note_on_c, 1, 58, 72
5, 79089, Note_on_c, 1, 58, 0
5, 82368, Note_on_c, 1, 60, 72
5, 82633, Note_on_c, 1, 60, 0
5, 82656, Note_on_c, 1, 58, 72
5, 83099, Note_on_c, 1, 58, 0
5, 84960, Note_on_c, 1, 44, 72
5, 85049, Note_on_c, 1, 44, 0
5, 85056, Note_on_c, 1, 46, 72
5, 85145, Note_on_c, 1, 46, 0
5, 85152, Note_on_c, 1, 46, 72
5, 85241, Note_on_c, 1, 46, 0
5, 85728, Note_on_c, 1, 67, 72
5, 85728, Note_on_c, 1, 63, 72
5, 85817, Note_on_c, 1, 67, 0
5, 85817, Note_on_c, 1, 63, 0
5, 86592, Note_on_c, 1, 79, 72
5, 86592, Note_on_c, 1, 75, 72
5, 86681, Note_on_c, 1, 79, 0
5, 86681, Note_on_c, 1, 75, 0
5, 88992, Note_on_c, 1, 51, 72
5, 89169, Note_on_c, 1, 51, 0
5, 89472, End_track
6, 0, Start_track
6, 0, Title_t, "Sonata II   Haydn  "
6, 0, End_track
0, 0, End_of_file
