0, 0, Header, 1, 6, 96
1, 0, Start_track
1, 0, Copyright_t, "Copyright  2000 <copyright holder>"
1, 0, Text_t, "Sonata I\015\012"
1, 0, Text_t, "Haydn\015\012"
1, 0, Sequencer_specific, 16, 68, 87, 77, 90, 86, 82, 83, 78, 32, 55, 46, 48, 46, 56, 46, 48
1, 0, Time_signature, 3, 2, 24, 8
1, 0, Tempo, 200000
1, 0, Key_signature, -2, "major"
1, 168, Tempo, 500000
1, 1896, Tempo, 500000
1, 13992, Key_signature, 1, "major"
1, 23040, Key_signature, -2, "major"
1, 33696, Key_signature, 1, "major"
1, 38592, End_track
2, 0, Start_track
2, 0, Program_c, 0, 0
2, 0, Control_c, 0, 7, 127
2, 0, Control_c, 0, 10, 64
2, 168, Note_on_c, 0, 74, 75
2, 191, Note_on_c, 0, 74, 0
2, 192, Note_on_c, 0, 75, 75
2, 204, Note_on_c, 0, 75, 0
2, 204, Note_on_c, 0, 74, 75
2, 216, Note_on_c, 0, 74, 0
2, 216, Note_on_c, 0, 73, 75
2, 228, Note_on_c, 0, 73, 0
2, 228, Note_on_c, 0, 74, 75
2, 259, Note_on_c, 0, 74, 0
2, 264, Note_on_c, 0, 79, 75
2, 287, Note_on_c, 0, 79, 0
2, 288, Note_on_c, 0, 79, 75
2, 384, Note_on_c, 0, 79, 0
2, 384, Note_on_c, 0, 78, 75
2, 451, Note_on_c, 0, 78, 0
2, 456, Note_on_c, 0, 74, 75
2, 479, Note_on_c, 0, 74, 0
2, 480, Note_on_c, 0, 75, 75
2, 492, Note_on_c, 0, 75, 0
2, 492, Note_on_c, 0, 74, 75
2, 504, Note_on_c, 0, 74, 0
2, 504, Note_on_c, 0, 73, 75
2, 516, Note_on_c, 0, 73, 0
2, 516, Note_on_c, 0, 74, 75
2, 547, Note_on_c, 0, 74, 0
2, 552, Note_on_c, 0, 82, 75
2, 575, Note_on_c, 0, 82, 0
2, 576, Note_on_c, 0, 82, 75
2, 672, Note_on_c, 0, 82, 0
2, 672, Note_on_c, 0, 81, 75
2, 739, Note_on_c, 0, 81, 0
2, 744, Note_on_c, 0, 74, 75
2, 767, Note_on_c, 0, 74, 0
2, 768, Note_on_c, 0, 75, 75
2, 780, Note_on_c, 0, 75, 0
2, 780, Note_on_c, 0, 74, 75
2, 792, Note_on_c, 0, 74, 0
2, 792, Note_on_c, 0, 73, 75
2, 804, Note_on_c, 0, 73, 0
2, 804, Note_on_c, 0, 74, 75
2, 835, Note_on_c, 0, 74, 0
2, 840, Note_on_c, 0, 75, 75
2, 863, Note_on_c, 0, 75, 0
2, 864, Note_on_c, 0, 75, 75
2, 960, Note_on_c, 0, 75, 0
2, 960, Note_on_c, 0, 72, 75
2, 1005, Note_on_c, 0, 72, 0
2, 1008, Note_on_c, 0, 84, 75
2, 1028, Note_on_c, 0, 84, 0
2, 1056, Note_on_c, 0, 86, 75
2, 1079, Note_on_c, 0, 86, 0
2, 1080, Note_on_c, 0, 84, 75
2, 1103, Note_on_c, 0, 84, 0
2, 1104, Note_on_c, 0, 82, 75
2, 1127, Note_on_c, 0, 82, 0
2, 1128, Note_on_c, 0, 81, 75
2, 1151, Note_on_c, 0, 81, 0
2, 1152, Note_on_c, 0, 79, 75
2, 1282, Note_on_c, 0, 79, 0
2, 1284, Note_on_c, 0, 78, 75
2, 1296, Note_on_c, 0, 78, 0
2, 1296, Note_on_c, 0, 79, 75
2, 1308, Note_on_c, 0, 79, 0
2, 1308, Note_on_c, 0, 78, 75
2, 1320, Note_on_c, 0, 78, 0
2, 1320, Note_on_c, 0, 76, 75
2, 1332, Note_on_c, 0, 76, 0
2, 1332, Note_on_c, 0, 78, 75
2, 1344, Note_on_c, 0, 78, 0
2, 1344, Note_on_c, 0, 79, 75
2, 1411, Note_on_c, 0, 79, 0
2, 1416, Note_on_c, 0, 74, 75
2, 1439, Note_on_c, 0, 74, 0
2, 1440, Note_on_c, 0, 62, 75
2, 1603, Note_on_c, 0, 62, 0
2, 1608, Note_on_c, 0, 72, 75
2, 1608, Note_on_c, 0, 69, 75
2, 1631, Note_on_c, 0, 72, 0
2, 1631, Note_on_c, 0, 69, 0
2, 1632, Note_on_c, 0, 72, 75
2, 1632, Note_on_c, 0, 69, 75
2, 1699, Note_on_c, 0, 72, 0
2, 1699, Note_on_c, 0, 69, 0
2, 1704, Note_on_c, 0, 70, 75
2, 1704, Note_on_c, 0, 67, 75
2, 1727, Note_on_c, 0, 70, 0
2, 1727, Note_on_c, 0, 67, 0
2, 1728, Note_on_c, 0, 70, 75
2, 1824, Note_on_c, 0, 70, 0
2, 1824, Note_on_c, 0, 69, 75
2, 1861, Note_on_c, 0, 69, 0
2, 1896, Note_on_c, 0, 74, 75
2, 1919, Note_on_c, 0, 74, 0
2, 1920, Note_on_c, 0, 75, 75
2, 1932, Note_on_c, 0, 75, 0
2, 1932, Note_on_c, 0, 74, 75
2, 1944, Note_on_c, 0, 74, 0
2, 1944, Note_on_c, 0, 73, 75
2, 1956, Note_on_c, 0, 73, 0
2, 1956, Note_on_c, 0, 74, 75
2, 1987, Note_on_c, 0, 74, 0
2, 1992, Note_on_c, 0, 79, 75
2, 2015, Note_on_c, 0, 79, 0
2, 2016, Note_on_c, 0, 79, 75
2, 2112, Note_on_c, 0, 79, 0
2, 2112, Note_on_c, 0, 78, 75
2, 2179, Note_on_c, 0, 78, 0
2, 2184, Note_on_c, 0, 74, 75
2, 2207, Note_on_c, 0, 74, 0
2, 2208, Note_on_c, 0, 75, 75
2, 2220, Note_on_c, 0, 75, 0
2, 2220, Note_on_c, 0, 74, 75
2, 2232, Note_on_c, 0, 74, 0
2, 2232, Note_on_c, 0, 73, 75
2, 2244, Note_on_c, 0, 73, 0
2, 2244, Note_on_c, 0, 74, 75
2, 2275, Note_on_c, 0, 74, 0
2, 2280, Note_on_c, 0, 82, 75
2, 2303, Note_on_c, 0, 82, 0
2, 2304, Note_on_c, 0, 82, 75
2, 2400, Note_on_c, 0, 82, 0
2, 2400, Note_on_c, 0, 81, 75
2, 2467, Note_on_c, 0, 81, 0
2, 2472, Note_on_c, 0, 74, 75
2, 2495, Note_on_c, 0, 74, 0
2, 2496, Note_on_c, 0, 75, 75
2, 2508, Note_on_c, 0, 75, 0
2, 2508, Note_on_c, 0, 74, 75
2, 2520, Note_on_c, 0, 74, 0
2, 2520, Note_on_c, 0, 73, 75
2, 2532, Note_on_c, 0, 73, 0
2, 2532, Note_on_c, 0, 74, 75
2, 2563, Note_on_c, 0, 74, 0
2, 2568, Note_on_c, 0, 75, 75
2, 2591, Note_on_c, 0, 75, 0
2, 2592, Note_on_c, 0, 75, 75
2, 2688, Note_on_c, 0, 75, 0
2, 2688, Note_on_c, 0, 72, 75
2, 2733, Note_on_c, 0, 72, 0
2, 2736, Note_on_c, 0, 84, 75
2, 2756, Note_on_c, 0, 84, 0
2, 2784, Note_on_c, 0, 86, 75
2, 2807, Note_on_c, 0, 86, 0
2, 2808, Note_on_c, 0, 84, 75
2, 2831, Note_on_c, 0, 84, 0
2, 2832, Note_on_c, 0, 82, 75
2, 2855, Note_on_c, 0, 82, 0
2, 2856, Note_on_c, 0, 81, 75
2, 2879, Note_on_c, 0, 81, 0
2, 2880, Note_on_c, 0, 79, 75
2, 3010, Note_on_c, 0, 79, 0
2, 3012, Note_on_c, 0, 78, 75
2, 3024, Note_on_c, 0, 78, 0
2, 3024, Note_on_c, 0, 79, 75
2, 3036, Note_on_c, 0, 79, 0
2, 3036, Note_on_c, 0, 78, 75
2, 3048, Note_on_c, 0, 78, 0
2, 3048, Note_on_c, 0, 76, 75
2, 3060, Note_on_c, 0, 76, 0
2, 3060, Note_on_c, 0, 78, 75
2, 3072, Note_on_c, 0, 78, 0
2, 3072, Note_on_c, 0, 79, 75
2, 3139, Note_on_c, 0, 79, 0
2, 3144, Note_on_c, 0, 74, 75
2, 3167, Note_on_c, 0, 74, 0
2, 3168, Note_on_c, 0, 62, 75
2, 3331, Note_on_c, 0, 62, 0
2, 3336, Note_on_c, 0, 72, 75
2, 3336, Note_on_c, 0, 69, 75
2, 3359, Note_on_c, 0, 72, 0
2, 3359, Note_on_c, 0, 69, 0
2, 3360, Note_on_c, 0, 72, 75
2, 3360, Note_on_c, 0, 69, 75
2, 3427, Note_on_c, 0, 72, 0
2, 3427, Note_on_c, 0, 69, 0
2, 3432, Note_on_c, 0, 70, 75
2, 3432, Note_on_c, 0, 67, 75
2, 3455, Note_on_c, 0, 70, 0
2, 3455, Note_on_c, 0, 67, 0
2, 3456, Note_on_c, 0, 70, 75
2, 3552, Note_on_c, 0, 70, 0
2, 3552, Note_on_c, 0, 69, 75
2, 3589, Note_on_c, 0, 69, 0
2, 3624, Note_on_c, 0, 70, 75
2, 3647, Note_on_c, 0, 70, 0
2, 3648, Note_on_c, 0, 72, 75
2, 3660, Note_on_c, 0, 72, 0
2, 3660, Note_on_c, 0, 70, 75
2, 3672, Note_on_c, 0, 70, 0
2, 3672, Note_on_c, 0, 69, 75
2, 3684, Note_on_c, 0, 69, 0
2, 3684, Note_on_c, 0, 70, 75
2, 3715, Note_on_c, 0, 70, 0
2, 3720, Note_on_c, 0, 74, 75
2, 3743, Note_on_c, 0, 74, 0
2, 3744, Note_on_c, 0, 72, 75
2, 3840, Note_on_c, 0, 72, 0
2, 3840, Note_on_c, 0, 70, 75
2, 3860, Note_on_c, 0, 70, 0
2, 3888, Note_on_c, 0, 72, 75
2, 3900, Note_on_c, 0, 72, 0
2, 3900, Note_on_c, 0, 70, 75
2, 3912, Note_on_c, 0, 70, 0
2, 3912, Note_on_c, 0, 69, 75
2, 3924, Note_on_c, 0, 69, 0
2, 3924, Note_on_c, 0, 70, 75
2, 3936, Note_on_c, 0, 70, 0
2, 3936, Note_on_c, 0, 77, 75
2, 4003, Note_on_c, 0, 77, 0
2, 4008, Note_on_c, 0, 74, 75
2, 4031, Note_on_c, 0, 74, 0
2, 4032, Note_on_c, 0, 71, 75
2, 4128, Note_on_c, 0, 71, 0
2, 4128, Note_on_c, 0, 72, 75
2, 4195, Note_on_c, 0, 72, 0
2, 4200, Note_on_c, 0, 72, 75
2, 4223, Note_on_c, 0, 72, 0
2, 4224, Note_on_c, 0, 74, 75
2, 4236, Note_on_c, 0, 74, 0
2, 4236, Note_on_c, 0, 72, 75
2, 4248, Note_on_c, 0, 72, 0
2, 4248, Note_on_c, 0, 71, 75
2, 4260, Note_on_c, 0, 71, 0
2, 4260, Note_on_c, 0, 72, 75
2, 4291, Note_on_c, 0, 72, 0
2, 4296, Note_on_c, 0, 75, 75
2, 4319, Note_on_c, 0, 75, 0
2, 4320, Note_on_c, 0, 74, 75
2, 4416, Note_on_c, 0, 74, 0
2, 4416, Note_on_c, 0, 72, 75
2, 4436, Note_on_c, 0, 72, 0
2, 4464, Note_on_c, 0, 74, 75
2, 4476, Note_on_c, 0, 74, 0
2, 4476, Note_on_c, 0, 72, 75
2, 4488, Note_on_c, 0, 72, 0
2, 4488, Note_on_c, 0, 71, 75
2, 4500, Note_on_c, 0, 71, 0
2, 4500, Note_on_c, 0, 72, 75
2, 4512, Note_on_c, 0, 72, 0
2, 4512, Note_on_c, 0, 79, 75
2, 4579, Note_on_c, 0, 79, 0
2, 4584, Note_on_c, 0, 75, 75
2, 4607, Note_on_c, 0, 75, 0
2, 4608, Note_on_c, 0, 73, 75
2, 4704, Note_on_c, 0, 73, 0
2, 4704, Note_on_c, 0, 74, 75
2, 4771, Note_on_c, 0, 74, 0
2, 4776, Note_on_c, 0, 74, 75
2, 4799, Note_on_c, 0, 74, 0
2, 4800, Note_on_c, 0, 82, 75
2, 4829, Note_on_c, 0, 82, 0
2, 4872, Note_on_c, 0, 81, 75
2, 4896, Note_on_c, 0, 81, 0
2, 4896, Note_on_c, 0, 79, 75
2, 4925, Note_on_c, 0, 79, 0
2, 4968, Note_on_c, 0, 77, 75
2, 4992, Note_on_c, 0, 77, 0
2, 4992, Note_on_c, 0, 75, 75
2, 5021, Note_on_c, 0, 75, 0
2, 5064, Note_on_c, 0, 74, 75
2, 5088, Note_on_c, 0, 74, 0
2, 5088, Note_on_c, 0, 72, 75
2, 5117, Note_on_c, 0, 72, 0
2, 5160, Note_on_c, 0, 70, 75
2, 5184, Note_on_c, 0, 70, 0
2, 5184, Note_on_c, 0, 69, 75
2, 5213, Note_on_c, 0, 69, 0
2, 5256, Note_on_c, 0, 79, 75
2, 5280, Note_on_c, 0, 79, 0
2, 5280, Note_on_c, 0, 77, 75
2, 5309, Note_on_c, 0, 77, 0
2, 5352, Note_on_c, 0, 75, 75
2, 5376, Note_on_c, 0, 75, 0
2, 5376, Note_on_c, 0, 74, 75
2, 5396, Note_on_c, 0, 74, 0
2, 5544, Note_on_c, 0, 72, 75
2, 5568, Note_on_c, 0, 72, 0
2, 5568, Note_on_c, 0, 75, 75
2, 5597, Note_on_c, 0, 75, 0
2, 5640, Note_on_c, 0, 72, 75
2, 5664, Note_on_c, 0, 72, 0
2, 5664, Note_on_c, 0, 70, 75
2, 5693, Note_on_c, 0, 70, 0
2, 5736, Note_on_c, 0, 69, 75
2, 5760, Note_on_c, 0, 69, 0
2, 5760, Note_on_c, 0, 70, 75
2, 5849, Note_on_c, 0, 70, 0
2, 5928, Note_on_c, 0, 74, 75
2, 5951, Note_on_c, 0, 74, 0
2, 5952, Note_on_c, 0, 75, 75
2, 5964, Note_on_c, 0, 75, 0
2, 5964, Note_on_c, 0, 74, 75
2, 5976, Note_on_c, 0, 74, 0
2, 5976, Note_on_c, 0, 72, 75
2, 5988, Note_on_c, 0, 72, 0
2, 5988, Note_on_c, 0, 74, 75
2, 6019, Note_on_c, 0, 74, 0
2, 6024, Note_on_c, 0, 75, 75
2, 6036, Note_on_c, 0, 75, 0
2, 6036, Note_on_c, 0, 77, 75
2, 6048, Note_on_c, 0, 77, 0
2, 6048, Note_on_c, 0, 72, 75
2, 6144, Note_on_c, 0, 72, 0
2, 6144, Note_on_c, 0, 71, 75
2, 6211, Note_on_c, 0, 71, 0
2, 6216, Note_on_c, 0, 80, 75
2, 6239, Note_on_c, 0, 80, 0
2, 6240, Note_on_c, 0, 82, 75
2, 6264, Note_on_c, 0, 82, 0
2, 6264, Note_on_c, 0, 80, 75
2, 6287, Note_on_c, 0, 80, 0
2, 6288, Note_on_c, 0, 79, 75
2, 6311, Note_on_c, 0, 79, 0
2, 6312, Note_on_c, 0, 77, 75
2, 6335, Note_on_c, 0, 77, 0
2, 6336, Note_on_c, 0, 77, 75
2, 6432, Note_on_c, 0, 77, 0
2, 6432, Note_on_c, 0, 75, 75
2, 6499, Note_on_c, 0, 75, 0
2, 6504, Note_on_c, 0, 75, 75
2, 6527, Note_on_c, 0, 75, 0
2, 6528, Note_on_c, 0, 77, 75
2, 6540, Note_on_c, 0, 77, 0
2, 6540, Note_on_c, 0, 75, 75
2, 6552, Note_on_c, 0, 75, 0
2, 6552, Note_on_c, 0, 74, 75
2, 6564, Note_on_c, 0, 74, 0
2, 6564, Note_on_c, 0, 75, 75
2, 6595, Note_on_c, 0, 75, 0
2, 6600, Note_on_c, 0, 77, 75
2, 6612, Note_on_c, 0, 77, 0
2, 6612, Note_on_c, 0, 79, 75
2, 6624, Note_on_c, 0, 79, 0
2, 6624, Note_on_c, 0, 74, 75
2, 6720, Note_on_c, 0, 74, 0
2, 6720, Note_on_c, 0, 73, 75
2, 6743, Note_on_c, 0, 73, 0
2, 6744, Note_on_c, 0, 82, 75
2, 6767, Note_on_c, 0, 82, 0
2, 6768, Note_on_c, 0, 81, 75
2, 6791, Note_on_c, 0, 81, 0
2, 6792, Note_on_c, 0, 82, 75
2, 6815, Note_on_c, 0, 82, 0
2, 6816, Note_on_c, 0, 84, 75
2, 6840, Note_on_c, 0, 84, 0
2, 6840, Note_on_c, 0, 82, 75
2, 6863, Note_on_c, 0, 82, 0
2, 6864, Note_on_c, 0, 81, 75
2, 6887, Note_on_c, 0, 81, 0
2, 6888, Note_on_c, 0, 79, 75
2, 6911, Note_on_c, 0, 79, 0
2, 6912, Note_on_c, 0, 79, 75
2, 7008, Note_on_c, 0, 79, 0
2, 7008, Note_on_c, 0, 78, 75
2, 7075, Note_on_c, 0, 78, 0
2, 7080, Note_on_c, 0, 74, 75
2, 7103, Note_on_c, 0, 74, 0
2, 7104, Note_on_c, 0, 75, 75
2, 7116, Note_on_c, 0, 75, 0
2, 7116, Note_on_c, 0, 74, 75
2, 7128, Note_on_c, 0, 74, 0
2, 7128, Note_on_c, 0, 73, 75
2, 7140, Note_on_c, 0, 73, 0
2, 7140, Note_on_c, 0, 74, 75
2, 7171, Note_on_c, 0, 74, 0
2, 7176, Note_on_c, 0, 79, 75
2, 7199, Note_on_c, 0, 79, 0
2, 7200, Note_on_c, 0, 79, 75
2, 7296, Note_on_c, 0, 79, 0
2, 7296, Note_on_c, 0, 78, 75
2, 7325, Note_on_c, 0, 78, 0
2, 7368, Note_on_c, 0, 74, 75
2, 7391, Note_on_c, 0, 74, 0
2, 7392, Note_on_c, 0, 75, 75
2, 7404, Note_on_c, 0, 75, 0
2, 7404, Note_on_c, 0, 74, 75
2, 7416, Note_on_c, 0, 74, 0
2, 7416, Note_on_c, 0, 73, 75
2, 7428, Note_on_c, 0, 73, 0
2, 7428, Note_on_c, 0, 74, 75
2, 7459, Note_on_c, 0, 74, 0
2, 7464, Note_on_c, 0, 82, 75
2, 7487, Note_on_c, 0, 82, 0
2, 7488, Note_on_c, 0, 82, 75
2, 7584, Note_on_c, 0, 82, 0
2, 7584, Note_on_c, 0, 81, 75
2, 7613, Note_on_c, 0, 81, 0
2, 7656, Note_on_c, 0, 74, 75
2, 7679, Note_on_c, 0, 74, 0
2, 7680, Note_on_c, 0, 75, 75
2, 7692, Note_on_c, 0, 75, 0
2, 7692, Note_on_c, 0, 74, 75
2, 7704, Note_on_c, 0, 74, 0
2, 7704, Note_on_c, 0, 73, 75
2, 7716, Note_on_c, 0, 73, 0
2, 7716, Note_on_c, 0, 74, 75
2, 7747, Note_on_c, 0, 74, 0
2, 7752, Note_on_c, 0, 86, 75
2, 7775, Note_on_c, 0, 86, 0
2, 7776, Note_on_c, 0, 86, 75
2, 7872, Note_on_c, 0, 86, 0
2, 7872, Note_on_c, 0, 75, 75
2, 7917, Note_on_c, 0, 75, 0
2, 7920, Note_on_c, 0, 84, 75
2, 7965, Note_on_c, 0, 84, 0
2, 7968, Note_on_c, 0, 86, 75
2, 7980, Note_on_c, 0, 86, 0
2, 7980, Note_on_c, 0, 84, 75
2, 7992, Note_on_c, 0, 84, 0
2, 7992, Note_on_c, 0, 83, 75
2, 8004, Note_on_c, 0, 83, 0
2, 8004, Note_on_c, 0, 84, 75
2, 8016, Note_on_c, 0, 84, 0
2, 8016, Note_on_c, 0, 86, 75
2, 8039, Note_on_c, 0, 86, 0
2, 8040, Note_on_c, 0, 87, 75
2, 8063, Note_on_c, 0, 87, 0
2, 8064, Note_on_c, 0, 87, 75
2, 8160, Note_on_c, 0, 87, 0
2, 8160, Note_on_c, 0, 78, 75
2, 8199, Note_on_c, 0, 78, 0
2, 8328, Note_on_c, 0, 79, 75
2, 8351, Note_on_c, 0, 79, 0
2, 8352, Note_on_c, 0, 77, 75
2, 8375, Note_on_c, 0, 77, 0
2, 8376, Note_on_c, 0, 75, 75
2, 8399, Note_on_c, 0, 75, 0
2, 8400, Note_on_c, 0, 74, 75
2, 8423, Note_on_c, 0, 74, 0
2, 8424, Note_on_c, 0, 72, 75
2, 8447, Note_on_c, 0, 72, 0
2, 8448, Note_on_c, 0, 70, 75
2, 8581, Note_on_c, 0, 70, 0
2, 8592, Note_on_c, 0, 69, 75
2, 8604, Note_on_c, 0, 69, 0
2, 8604, Note_on_c, 0, 70, 75
2, 8616, Note_on_c, 0, 70, 0
2, 8616, Note_on_c, 0, 69, 75
2, 8637, Note_on_c, 0, 69, 0
2, 8640, Note_on_c, 0, 67, 75
2, 8729, Note_on_c, 0, 67, 0
2, 8808, Note_on_c, 0, 70, 75
2, 8831, Note_on_c, 0, 70, 0
2, 8832, Note_on_c, 0, 72, 75
2, 8844, Note_on_c, 0, 72, 0
2, 8844, Note_on_c, 0, 70, 75
2, 8856, Note_on_c, 0, 70, 0
2, 8856, Note_on_c, 0, 69, 75
2, 8868, Note_on_c, 0, 69, 0
2, 8868, Note_on_c, 0, 70, 75
2, 8899, Note_on_c, 0, 70, 0
2, 8904, Note_on_c, 0, 74, 75
2, 8927, Note_on_c, 0, 74, 0
2, 8928, Note_on_c, 0, 72, 75
2, 9024, Note_on_c, 0, 72, 0
2, 9024, Note_on_c, 0, 70, 75
2, 9044, Note_on_c, 0, 70, 0
2, 9072, Note_on_c, 0, 72, 75
2, 9084, Note_on_c, 0, 72, 0
2, 9084, Note_on_c, 0, 70, 75
2, 9096, Note_on_c, 0, 70, 0
2, 9096, Note_on_c, 0, 69, 75
2, 9108, Note_on_c, 0, 69, 0
2, 9108, Note_on_c, 0, 70, 75
2, 9120, Note_on_c, 0, 70, 0
2, 9120, Note_on_c, 0, 77, 75
2, 9187, Note_on_c, 0, 77, 0
2, 9192, Note_on_c, 0, 74, 75
2, 9215, Note_on_c, 0, 74, 0
2, 9216, Note_on_c, 0, 71, 75
2, 9312, Note_on_c, 0, 71, 0
2, 9312, Note_on_c, 0, 72, 75
2, 9379, Note_on_c, 0, 72, 0
2, 9384, Note_on_c, 0, 72, 75
2, 9407, Note_on_c, 0, 72, 0
2, 9408, Note_on_c, 0, 74, 75
2, 9420, Note_on_c, 0, 74, 0
2, 9420, Note_on_c, 0, 72, 75
2, 9432, Note_on_c, 0, 72, 0
2, 9432, Note_on_c, 0, 71, 75
2, 9444, Note_on_c, 0, 71, 0
2, 9444, Note_on_c, 0, 72, 75
2, 9475, Note_on_c, 0, 72, 0
2, 9480, Note_on_c, 0, 75, 75
2, 9503, Note_on_c, 0, 75, 0
2, 9504, Note_on_c, 0, 74, 75
2, 9600, Note_on_c, 0, 74, 0
2, 9600, Note_on_c, 0, 72, 75
2, 9620, Note_on_c, 0, 72, 0
2, 9648, Note_on_c, 0, 74, 75
2, 9660, Note_on_c, 0, 74, 0
2, 9660, Note_on_c, 0, 72, 75
2, 9672, Note_on_c, 0, 72, 0
2, 9672, Note_on_c, 0, 71, 75
2, 9684, Note_on_c, 0, 71, 0
2, 9684, Note_on_c, 0, 72, 75
2, 9696, Note_on_c, 0, 72, 0
2, 9696, Note_on_c, 0, 79, 75
2, 9763, Note_on_c, 0, 79, 0
2, 9768, Note_on_c, 0, 75, 75
2, 9791, Note_on_c, 0, 75, 0
2, 9792, Note_on_c, 0, 73, 75
2, 9888, Note_on_c, 0, 73, 0
2, 9888, Note_on_c, 0, 74, 75
2, 9955, Note_on_c, 0, 74, 0
2, 9960, Note_on_c, 0, 74, 75
2, 9983, Note_on_c, 0, 74, 0
2, 9984, Note_on_c, 0, 82, 75
2, 10013, Note_on_c, 0, 82, 0
2, 10056, Note_on_c, 0, 81, 75
2, 10080, Note_on_c, 0, 81, 0
2, 10080, Note_on_c, 0, 79, 75
2, 10109, Note_on_c, 0, 79, 0
2, 10152, Note_on_c, 0, 77, 75
2, 10176, Note_on_c, 0, 77, 0
2, 10176, Note_on_c, 0, 75, 75
2, 10205, Note_on_c, 0, 75, 0
2, 10248, Note_on_c, 0, 74, 75
2, 10272, Note_on_c, 0, 74, 0
2, 10272, Note_on_c, 0, 72, 75
2, 10301, Note_on_c, 0, 72, 0
2, 10344, Note_on_c, 0, 70, 75
2, 10368, Note_on_c, 0, 70, 0
2, 10368, Note_on_c, 0, 69, 75
2, 10397, Note_on_c, 0, 69, 0
2, 10440, Note_on_c, 0, 79, 75
2, 10464, Note_on_c, 0, 79, 0
2, 10464, Note_on_c, 0, 77, 75
2, 10493, Note_on_c, 0, 77, 0
2, 10536, Note_on_c, 0, 75, 75
2, 10560, Note_on_c, 0, 75, 0
2, 10560, Note_on_c, 0, 74, 75
2, 10580, Note_on_c, 0, 74, 0
2, 10728, Note_on_c, 0, 72, 75
2, 10752, Note_on_c, 0, 72, 0
2, 10752, Note_on_c, 0, 75, 75
2, 10781, Note_on_c, 0, 75, 0
2, 10824, Note_on_c, 0, 72, 75
2, 10848, Note_on_c, 0, 72, 0
2, 10848, Note_on_c, 0, 70, 75
2, 10877, Note_on_c, 0, 70, 0
2, 10920, Note_on_c, 0, 69, 75
2, 10944, Note_on_c, 0, 69, 0
2, 10944, Note_on_c, 0, 70, 75
2, 11033, Note_on_c, 0, 70, 0
2, 11112, Note_on_c, 0, 74, 75
2, 11135, Note_on_c, 0, 74, 0
2, 11136, Note_on_c, 0, 75, 75
2, 11148, Note_on_c, 0, 75, 0
2, 11148, Note_on_c, 0, 74, 75
2, 11160, Note_on_c, 0, 74, 0
2, 11160, Note_on_c, 0, 72, 75
2, 11172, Note_on_c, 0, 72, 0
2, 11172, Note_on_c, 0, 74, 75
2, 11203, Note_on_c, 0, 74, 0
2, 11208, Note_on_c, 0, 75, 75
2, 11220, Note_on_c, 0, 75, 0
2, 11220, Note_on_c, 0, 77, 75
2, 11232, Note_on_c, 0, 77, 0
2, 11232, Note_on_c, 0, 72, 75
2, 11328, Note_on_c, 0, 72, 0
2, 11328, Note_on_c, 0, 71, 75
2, 11395, Note_on_c, 0, 71, 0
2, 11400, Note_on_c, 0, 80, 75
2, 11423, Note_on_c, 0, 80, 0
2, 11424, Note_on_c, 0, 82, 75
2, 11448, Note_on_c, 0, 82, 0
2, 11448, Note_on_c, 0, 80, 75
2, 11471, Note_on_c, 0, 80, 0
2, 11472, Note_on_c, 0, 79, 75
2, 11495, Note_on_c, 0, 79, 0
2, 11496, Note_on_c, 0, 77, 75
2, 11519, Note_on_c, 0, 77, 0
2, 11520, Note_on_c, 0, 77, 75
2, 11616, Note_on_c, 0, 77, 0
2, 11616, Note_on_c, 0, 75, 75
2, 11683, Note_on_c, 0, 75, 0
2, 11688, Note_on_c, 0, 75, 75
2, 11711, Note_on_c, 0, 75, 0
2, 11712, Note_on_c, 0, 77, 75
2, 11724, Note_on_c, 0, 77, 0
2, 11724, Note_on_c, 0, 75, 75
2, 11736, Note_on_c, 0, 75, 0
2, 11736, Note_on_c, 0, 74, 75
2, 11748, Note_on_c, 0, 74, 0
2, 11748, Note_on_c, 0, 75, 75
2, 11779, Note_on_c, 0, 75, 0
2, 11784, Note_on_c, 0, 77, 75
2, 11796, Note_on_c, 0, 77, 0
2, 11796, Note_on_c, 0, 79, 75
2, 11808, Note_on_c, 0, 79, 0
2, 11808, Note_on_c, 0, 74, 75
2, 11904, Note_on_c, 0, 74, 0
2, 11904, Note_on_c, 0, 73, 75
2, 11927, Note_on_c, 0, 73, 0
2, 11928, Note_on_c, 0, 82, 75
2, 11951, Note_on_c, 0, 82, 0
2, 11952, Note_on_c, 0, 81, 75
2, 11975, Note_on_c, 0, 81, 0
2, 11976, Note_on_c, 0, 82, 75
2, 11999, Note_on_c, 0, 82, 0
2, 12000, Note_on_c, 0, 84, 75
2, 12024, Note_on_c, 0, 84, 0
2, 12024, Note_on_c, 0, 82, 75
2, 12047, Note_on_c, 0, 82, 0
2, 12048, Note_on_c, 0, 81, 75
2, 12071, Note_on_c, 0, 81, 0
2, 12072, Note_on_c, 0, 79, 75
2, 12095, Note_on_c, 0, 79, 0
2, 12096, Note_on_c, 0, 79, 75
2, 12192, Note_on_c, 0, 79, 0
2, 12192, Note_on_c, 0, 78, 75
2, 12259, Note_on_c, 0, 78, 0
2, 12264, Note_on_c, 0, 74, 75
2, 12287, Note_on_c, 0, 74, 0
2, 12288, Note_on_c, 0, 75, 75
2, 12300, Note_on_c, 0, 75, 0
2, 12300, Note_on_c, 0, 74, 75
2, 12312, Note_on_c, 0, 74, 0
2, 12312, Note_on_c, 0, 73, 75
2, 12324, Note_on_c, 0, 73, 0
2, 12324, Note_on_c, 0, 74, 75
2, 12355, Note_on_c, 0, 74, 0
2, 12360, Note_on_c, 0, 79, 75
2, 12383, Note_on_c, 0, 79, 0
2, 12384, Note_on_c, 0, 79, 75
2, 12480, Note_on_c, 0, 79, 0
2, 12480, Note_on_c, 0, 78, 75
2, 12509, Note_on_c, 0, 78, 0
2, 12552, Note_on_c, 0, 74, 75
2, 12575, Note_on_c, 0, 74, 0
2, 12576, Note_on_c, 0, 75, 75
2, 12588, Note_on_c, 0, 75, 0
2, 12588, Note_on_c, 0, 74, 75
2, 12600, Note_on_c, 0, 74, 0
2, 12600, Note_on_c, 0, 73, 75
2, 12612, Note_on_c, 0, 73, 0
2, 12612, Note_on_c, 0, 74, 75
2, 12643, Note_on_c, 0, 74, 0
2, 12648, Note_on_c, 0, 82, 75
2, 12671, Note_on_c, 0, 82, 0
2, 12672, Note_on_c, 0, 82, 75
2, 12768, Note_on_c, 0, 82, 0
2, 12768, Note_on_c, 0, 81, 75
2, 12797, Note_on_c, 0, 81, 0
2, 12840, Note_on_c, 0, 74, 75
2, 12863, Note_on_c, 0, 74, 0
2, 12864, Note_on_c, 0, 75, 75
2, 12876, Note_on_c, 0, 75, 0
2, 12876, Note_on_c, 0, 74, 75
2, 12888, Note_on_c, 0, 74, 0
2, 12888, Note_on_c, 0, 73, 75
2, 12900, Note_on_c, 0, 73, 0
2, 12900, Note_on_c, 0, 74, 75
2, 12931, Note_on_c, 0, 74, 0
2, 12936, Note_on_c, 0, 86, 75
2, 12959, Note_on_c, 0, 86, 0
2, 12960, Note_on_c, 0, 86, 75
2, 13056, Note_on_c, 0, 86, 0
2, 13056, Note_on_c, 0, 75, 75
2, 13101, Note_on_c, 0, 75, 0
2, 13104, Note_on_c, 0, 84, 75
2, 13149, Note_on_c, 0, 84, 0
2, 13152, Note_on_c, 0, 86, 75
2, 13164, Note_on_c, 0, 86, 0
2, 13164, Note_on_c, 0, 84, 75
2, 13176, Note_on_c, 0, 84, 0
2, 13176, Note_on_c, 0, 83, 75
2, 13188, Note_on_c, 0, 83, 0
2, 13188, Note_on_c, 0, 84, 75
2, 13200, Note_on_c, 0, 84, 0
2, 13200, Note_on_c, 0, 86, 75
2, 13223, Note_on_c, 0, 86, 0
2, 13224, Note_on_c, 0, 87, 75
2, 13247, Note_on_c, 0, 87, 0
2, 13248, Note_on_c, 0, 87, 75
2, 13344, Note_on_c, 0, 87, 0
2, 13344, Note_on_c, 0, 78, 75
2, 13383, Note_on_c, 0, 78, 0
2, 13512, Note_on_c, 0, 79, 75
2, 13535, Note_on_c, 0, 79, 0
2, 13536, Note_on_c, 0, 77, 75
2, 13559, Note_on_c, 0, 77, 0
2, 13560, Note_on_c, 0, 75, 75
2, 13583, Note_on_c, 0, 75, 0
2, 13584, Note_on_c, 0, 74, 75
2, 13607, Note_on_c, 0, 74, 0
2, 13608, Note_on_c, 0, 72, 75
2, 13631, Note_on_c, 0, 72, 0
2, 13632, Note_on_c, 0, 70, 75
2, 13765, Note_on_c, 0, 70, 0
2, 13776, Note_on_c, 0, 69, 75
2, 13788, Note_on_c, 0, 69, 0
2, 13788, Note_on_c, 0, 70, 75
2, 13800, Note_on_c, 0, 70, 0
2, 13800, Note_on_c, 0, 69, 75
2, 13821, Note_on_c, 0, 69, 0
2, 13824, Note_on_c, 0, 67, 75
2, 13913, Note_on_c, 0, 67, 0
2, 13992, Note_on_c, 0, 62, 75
2, 14015, Note_on_c, 0, 62, 0
2, 14016, Note_on_c, 0, 64, 75
2, 14028, Note_on_c, 0, 64, 0
2, 14028, Note_on_c, 0, 62, 75
2, 14040, Note_on_c, 0, 62, 0
2, 14040, Note_on_c, 0, 61, 75
2, 14052, Note_on_c, 0, 61, 0
2, 14052, Note_on_c, 0, 62, 75
2, 14083, Note_on_c, 0, 62, 0
2, 14088, Note_on_c, 0, 71, 75
2, 14111, Note_on_c, 0, 71, 0
2, 14112, Note_on_c, 0, 71, 75
2, 14208, Note_on_c, 0, 71, 0
2, 14208, Note_on_c, 0, 60, 75
2, 14275, Note_on_c, 0, 60, 0
2, 14280, Note_on_c, 0, 60, 75
2, 14303, Note_on_c, 0, 60, 0
2, 14304, Note_on_c, 0, 62, 75
2, 14316, Note_on_c, 0, 62, 0
2, 14316, Note_on_c, 0, 60, 75
2, 14328, Note_on_c, 0, 60, 0
2, 14328, Note_on_c, 0, 59, 75
2, 14340, Note_on_c, 0, 59, 0
2, 14340, Note_on_c, 0, 60, 75
2, 14371, Note_on_c, 0, 60, 0
2, 14376, Note_on_c, 0, 69, 75
2, 14399, Note_on_c, 0, 69, 0
2, 14400, Note_on_c, 0, 60, 75
2, 14519, Note_on_c, 0, 60, 0
2, 14520, Note_on_c, 0, 59, 75
2, 14543, Note_on_c, 0, 59, 0
2, 14544, Note_on_c, 0, 64, 76
2, 14568, Note_on_c, 0, 64, 0
2, 14568, Note_on_c, 0, 62, 76
2, 14591, Note_on_c, 0, 62, 0
2, 14592, Note_on_c, 0, 67, 77
2, 14616, Note_on_c, 0, 67, 0
2, 14616, Note_on_c, 0, 66, 77
2, 14639, Note_on_c, 0, 66, 0
2, 14640, Note_on_c, 0, 69, 78
2, 14664, Note_on_c, 0, 69, 0
2, 14664, Note_on_c, 0, 67, 78
2, 14687, Note_on_c, 0, 67, 0
2, 14688, Note_on_c, 0, 71, 79
2, 14711, Note_on_c, 0, 71, 0
2, 14712, Note_on_c, 0, 69, 79
2, 14735, Note_on_c, 0, 69, 0
2, 14736, Note_on_c, 0, 72, 80
2, 14759, Note_on_c, 0, 72, 0
2, 14760, Note_on_c, 0, 71, 81
2, 14783, Note_on_c, 0, 71, 0
2, 14784, Note_on_c, 0, 74, 80
2, 14807, Note_on_c, 0, 74, 0
2, 14808, Note_on_c, 0, 72, 80
2, 14831, Note_on_c, 0, 72, 0
2, 14832, Note_on_c, 0, 71, 79
2, 14855, Note_on_c, 0, 71, 0
2, 14856, Note_on_c, 0, 69, 79
2, 14879, Note_on_c, 0, 69, 0
2, 14880, Note_on_c, 0, 67, 79
2, 14903, Note_on_c, 0, 67, 0
2, 14904, Note_on_c, 0, 66, 78
2, 14927, Note_on_c, 0, 66, 0
2, 14928, Note_on_c, 0, 64, 78
2, 14951, Note_on_c, 0, 64, 0
2, 14952, Note_on_c, 0, 62, 78
2, 14975, Note_on_c, 0, 62, 0
2, 14976, Note_on_c, 0, 62, 93
2, 15117, Note_on_c, 0, 62, 0
2, 15120, Note_on_c, 0, 60, 75
2, 15165, Note_on_c, 0, 60, 0
2, 15168, Note_on_c, 0, 62, 75
2, 15180, Note_on_c, 0, 62, 0
2, 15180, Note_on_c, 0, 60, 75
2, 15213, Note_on_c, 0, 60, 0
2, 15216, Note_on_c, 0, 59, 75
2, 15261, Note_on_c, 0, 59, 0
2, 15264, Note_on_c, 0, 59, 75
2, 15360, Note_on_c, 0, 59, 0
2, 15360, Note_on_c, 0, 57, 75
2, 15427, Note_on_c, 0, 57, 0
2, 15432, Note_on_c, 0, 62, 75
2, 15455, Note_on_c, 0, 62, 0
2, 15456, Note_on_c, 0, 64, 75
2, 15468, Note_on_c, 0, 64, 0
2, 15468, Note_on_c, 0, 62, 75
2, 15480, Note_on_c, 0, 62, 0
2, 15480, Note_on_c, 0, 61, 75
2, 15492, Note_on_c, 0, 61, 0
2, 15492, Note_on_c, 0, 62, 75
2, 15523, Note_on_c, 0, 62, 0
2, 15528, Note_on_c, 0, 71, 75
2, 15551, Note_on_c, 0, 71, 0
2, 15552, Note_on_c, 0, 71, 75
2, 15641, Note_on_c, 0, 71, 0
2, 15648, Note_on_c, 0, 60, 75
2, 15715, Note_on_c, 0, 60, 0
2, 15720, Note_on_c, 0, 60, 75
2, 15743, Note_on_c, 0, 60, 0
2, 15744, Note_on_c, 0, 62, 75
2, 15756, Note_on_c, 0, 62, 0
2, 15756, Note_on_c, 0, 60, 75
2, 15768, Note_on_c, 0, 60, 0
2, 15768, Note_on_c, 0, 59, 75
2, 15780, Note_on_c, 0, 59, 0
2, 15780, Note_on_c, 0, 60, 75
2, 15811, Note_on_c, 0, 60, 0
2, 15816, Note_on_c, 0, 69, 75
2, 15839, Note_on_c, 0, 69, 0
2, 15840, Note_on_c, 0, 60, 75
2, 15959, Note_on_c, 0, 60, 0
2, 15960, Note_on_c, 0, 59, 76
2, 15983, Note_on_c, 0, 59, 0
2, 15984, Note_on_c, 0, 64, 77
2, 16008, Note_on_c, 0, 64, 0
2, 16008, Note_on_c, 0, 62, 77
2, 16031, Note_on_c, 0, 62, 0
2, 16032, Note_on_c, 0, 67, 78
2, 16056, Note_on_c, 0, 67, 0
2, 16056, Note_on_c, 0, 66, 78
2, 16079, Note_on_c, 0, 66, 0
2, 16080, Note_on_c, 0, 69, 78
2, 16104, Note_on_c, 0, 69, 0
2, 16104, Note_on_c, 0, 67, 79
2, 16127, Note_on_c, 0, 67, 0
2, 16128, Note_on_c, 0, 71, 79
2, 16152, Note_on_c, 0, 71, 0
2, 16152, Note_on_c, 0, 69, 79
2, 16175, Note_on_c, 0, 69, 0
2, 16176, Note_on_c, 0, 72, 80
2, 16200, Note_on_c, 0, 72, 0
2, 16200, Note_on_c, 0, 71, 80
2, 16223, Note_on_c, 0, 71, 0
2, 16224, Note_on_c, 0, 74, 81
2, 16247, Note_on_c, 0, 74, 0
2, 16248, Note_on_c, 0, 72, 80
2, 16271, Note_on_c, 0, 72, 0
2, 16272, Note_on_c, 0, 71, 80
2, 16295, Note_on_c, 0, 71, 0
2, 16296, Note_on_c, 0, 69, 80
2, 16319, Note_on_c, 0, 69, 0
2, 16320, Note_on_c, 0, 67, 79
2, 16343, Note_on_c, 0, 67, 0
2, 16344, Note_on_c, 0, 66, 79
2, 16367, Note_on_c, 0, 66, 0
2, 16368, Note_on_c, 0, 64, 79
2, 16391, Note_on_c, 0, 64, 0
2, 16392, Note_on_c, 0, 62, 78
2, 16415, Note_on_c, 0, 62, 0
2, 16416, Note_on_c, 0, 62, 78
2, 16439, Note_on_c, 0, 62, 0
2, 16440, Note_on_c, 0, 60, 78
2, 16463, Note_on_c, 0, 60, 0
2, 16464, Note_on_c, 0, 64, 77
2, 16487, Note_on_c, 0, 64, 0
2, 16488, Note_on_c, 0, 60, 77
2, 16511, Note_on_c, 0, 60, 0
2, 16512, Note_on_c, 0, 59, 77
2, 16645, Note_on_c, 0, 59, 0
2, 16656, Note_on_c, 0, 57, 75
2, 16666, Note_on_c, 0, 57, 0
2, 16666, Note_on_c, 0, 59, 75
2, 16676, Note_on_c, 0, 59, 0
2, 16676, Note_on_c, 0, 57, 75
2, 16686, Note_on_c, 0, 57, 0
2, 16686, Note_on_c, 0, 55, 75
2, 16695, Note_on_c, 0, 55, 0
2, 16695, Note_on_c, 0, 57, 75
2, 16704, Note_on_c, 0, 57, 0
2, 16704, Note_on_c, 0, 55, 75
2, 16793, Note_on_c, 0, 55, 0
2, 16872, Note_on_c, 0, 71, 75
2, 16895, Note_on_c, 0, 71, 0
2, 16896, Note_on_c, 0, 72, 75
2, 16902, Note_on_c, 0, 72, 0
2, 16902, Note_on_c, 0, 71, 75
2, 16908, Note_on_c, 0, 71, 0
2, 16908, Note_on_c, 0, 70, 75
2, 16914, Note_on_c, 0, 70, 0
2, 16914, Note_on_c, 0, 71, 75
2, 16963, Note_on_c, 0, 71, 0
2, 16968, Note_on_c, 0, 83, 75
2, 16991, Note_on_c, 0, 83, 0
2, 16992, Note_on_c, 0, 83, 75
2, 17040, Note_on_c, 0, 83, 0
2, 17040, Note_on_c, 0, 81, 75
2, 17085, Note_on_c, 0, 81, 0
2, 17136, Note_on_c, 0, 81, 75
2, 17156, Note_on_c, 0, 81, 0
2, 17184, Note_on_c, 0, 81, 75
2, 17232, Note_on_c, 0, 81, 0
2, 17232, Note_on_c, 0, 79, 75
2, 17277, Note_on_c, 0, 79, 0
2, 17280, Note_on_c, 0, 79, 75
2, 17328, Note_on_c, 0, 79, 0
2, 17328, Note_on_c, 0, 78, 75
2, 17373, Note_on_c, 0, 78, 0
2, 17376, Note_on_c, 0, 78, 75
2, 17424, Note_on_c, 0, 78, 0
2, 17424, Note_on_c, 0, 76, 75
2, 17469, Note_on_c, 0, 76, 0
2, 17472, Note_on_c, 0, 78, 75
2, 17484, Note_on_c, 0, 78, 0
2, 17484, Note_on_c, 0, 76, 75
2, 17496, Note_on_c, 0, 76, 0
2, 17496, Note_on_c, 0, 74, 75
2, 17508, Note_on_c, 0, 74, 0
2, 17508, Note_on_c, 0, 76, 75
2, 17539, Note_on_c, 0, 76, 0
2, 17544, Note_on_c, 0, 83, 75
2, 17567, Note_on_c, 0, 83, 0
2, 17568, Note_on_c, 0, 83, 75
2, 17616, Note_on_c, 0, 83, 0
2, 17616, Note_on_c, 0, 81, 75
2, 17661, Note_on_c, 0, 81, 0
2, 17712, Note_on_c, 0, 79, 75
2, 17732, Note_on_c, 0, 79, 0
2, 17760, Note_on_c, 0, 79, 75
2, 17808, Note_on_c, 0, 79, 0
2, 17808, Note_on_c, 0, 78, 75
2, 17853, Note_on_c, 0, 78, 0
2, 17856, Note_on_c, 0, 78, 75
2, 17904, Note_on_c, 0, 78, 0
2, 17904, Note_on_c, 0, 76, 75
2, 17949, Note_on_c, 0, 76, 0
2, 17952, Note_on_c, 0, 76, 75
2, 18000, Note_on_c, 0, 76, 0
2, 18000, Note_on_c, 0, 74, 75
2, 18045, Note_on_c, 0, 74, 0
2, 18048, Note_on_c, 0, 76, 75
2, 18060, Note_on_c, 0, 76, 0
2, 18060, Note_on_c, 0, 74, 75
2, 18072, Note_on_c, 0, 74, 0
2, 18072, Note_on_c, 0, 73, 75
2, 18084, Note_on_c, 0, 73, 0
2, 18084, Note_on_c, 0, 74, 75
2, 18115, Note_on_c, 0, 74, 0
2, 18120, Note_on_c, 0, 81, 75
2, 18143, Note_on_c, 0, 81, 0
2, 18144, Note_on_c, 0, 81, 75
2, 18192, Note_on_c, 0, 81, 0
2, 18192, Note_on_c, 0, 76, 75
2, 18237, Note_on_c, 0, 76, 0
2, 18288, Note_on_c, 0, 77, 75
2, 18300, Note_on_c, 0, 77, 0
2, 18300, Note_on_c, 0, 76, 75
2, 18312, Note_on_c, 0, 76, 0
2, 18312, Note_on_c, 0, 74, 75
2, 18324, Note_on_c, 0, 74, 0
2, 18324, Note_on_c, 0, 76, 75
2, 18336, Note_on_c, 0, 76, 0
2, 18336, Note_on_c, 0, 77, 75
2, 18384, Note_on_c, 0, 77, 0
2, 18384, Note_on_c, 0, 74, 75
2, 18429, Note_on_c, 0, 74, 0
2, 18432, Note_on_c, 0, 73, 75
2, 18480, Note_on_c, 0, 73, 0
2, 18480, Note_on_c, 0, 76, 75
2, 18525, Note_on_c, 0, 76, 0
2, 18576, Note_on_c, 0, 69, 75
2, 18621, Note_on_c, 0, 69, 0
2, 18624, Note_on_c, 0, 70, 75
2, 18647, Note_on_c, 0, 70, 0
2, 18648, Note_on_c, 0, 71, 75
2, 18671, Note_on_c, 0, 71, 0
2, 18672, Note_on_c, 0, 72, 75
2, 18695, Note_on_c, 0, 72, 0
2, 18696, Note_on_c, 0, 73, 75
2, 18719, Note_on_c, 0, 73, 0
2, 18720, Note_on_c, 0, 74, 75
2, 18765, Note_on_c, 0, 74, 0
2, 18768, Note_on_c, 0, 74, 75
2, 18857, Note_on_c, 0, 74, 0
2, 18864, Note_on_c, 0, 76, 76
2, 18953, Note_on_c, 0, 76, 0
2, 18960, Note_on_c, 0, 78, 77
2, 19053, Note_on_c, 0, 78, 0
2, 19056, Note_on_c, 0, 79, 77
2, 19145, Note_on_c, 0, 79, 0
2, 19152, Note_on_c, 0, 80, 78
2, 19241, Note_on_c, 0, 80, 0
2, 19248, Note_on_c, 0, 81, 79
2, 19341, Note_on_c, 0, 81, 0
2, 19344, Note_on_c, 0, 83, 80
2, 19433, Note_on_c, 0, 83, 0
2, 19440, Note_on_c, 0, 84, 97
2, 19536, Note_on_c, 0, 84, 0
2, 19536, Note_on_c, 0, 83, 79
2, 19581, Note_on_c, 0, 83, 0
2, 19584, Note_on_c, 0, 81, 78
2, 19607, Note_on_c, 0, 81, 0
2, 19608, Note_on_c, 0, 79, 78
2, 19631, Note_on_c, 0, 79, 0
2, 19632, Note_on_c, 0, 78, 78
2, 19655, Note_on_c, 0, 78, 0
2, 19656, Note_on_c, 0, 76, 77
2, 19679, Note_on_c, 0, 76, 0
2, 19680, Note_on_c, 0, 74, 77
2, 19769, Note_on_c, 0, 74, 0
2, 19776, Note_on_c, 0, 73, 75
2, 19789, Note_on_c, 0, 73, 0
2, 19790, Note_on_c, 0, 74, 75
2, 19803, Note_on_c, 0, 74, 0
2, 19804, Note_on_c, 0, 73, 75
2, 19817, Note_on_c, 0, 73, 0
2, 19818, Note_on_c, 0, 74, 75
2, 19831, Note_on_c, 0, 74, 0
2, 19832, Note_on_c, 0, 73, 75
2, 19845, Note_on_c, 0, 73, 0
2, 19846, Note_on_c, 0, 71, 75
2, 19858, Note_on_c, 0, 71, 0
2, 19859, Note_on_c, 0, 73, 75
2, 19871, Note_on_c, 0, 73, 0
2, 19872, Note_on_c, 0, 74, 75
2, 19961, Note_on_c, 0, 74, 0
2, 19968, Note_on_c, 0, 76, 75
2, 20057, Note_on_c, 0, 76, 0
2, 20064, Note_on_c, 0, 78, 76
2, 20153, Note_on_c, 0, 78, 0
2, 20160, Note_on_c, 0, 79, 77
2, 20249, Note_on_c, 0, 79, 0
2, 20256, Note_on_c, 0, 80, 78
2, 20345, Note_on_c, 0, 80, 0
2, 20352, Note_on_c, 0, 81, 79
2, 20441, Note_on_c, 0, 81, 0
2, 20448, Note_on_c, 0, 83, 80
2, 20537, Note_on_c, 0, 83, 0
2, 20544, Note_on_c, 0, 84, 97
2, 20640, Note_on_c, 0, 84, 0
2, 20640, Note_on_c, 0, 83, 79
2, 20729, Note_on_c, 0, 83, 0
2, 20736, Note_on_c, 0, 81, 78
2, 20759, Note_on_c, 0, 81, 0
2, 20760, Note_on_c, 0, 79, 78
2, 20783, Note_on_c, 0, 79, 0
2, 20784, Note_on_c, 0, 78, 77
2, 20807, Note_on_c, 0, 78, 0
2, 20808, Note_on_c, 0, 76, 77
2, 20831, Note_on_c, 0, 76, 0
2, 20832, Note_on_c, 0, 74, 77
2, 20921, Note_on_c, 0, 74, 0
2, 20928, Note_on_c, 0, 73, 75
2, 20941, Note_on_c, 0, 73, 0
2, 20942, Note_on_c, 0, 74, 75
2, 20955, Note_on_c, 0, 74, 0
2, 20956, Note_on_c, 0, 73, 75
2, 20969, Note_on_c, 0, 73, 0
2, 20970, Note_on_c, 0, 74, 75
2, 20983, Note_on_c, 0, 74, 0
2, 20984, Note_on_c, 0, 73, 75
2, 20997, Note_on_c, 0, 73, 0
2, 20998, Note_on_c, 0, 71, 75
2, 21010, Note_on_c, 0, 71, 0
2, 21011, Note_on_c, 0, 73, 75
2, 21023, Note_on_c, 0, 73, 0
2, 21024, Note_on_c, 0, 74, 75
2, 21047, Note_on_c, 0, 74, 0
2, 21048, Note_on_c, 0, 78, 75
2, 21071, Note_on_c, 0, 78, 0
2, 21072, Note_on_c, 0, 81, 76
2, 21095, Note_on_c, 0, 81, 0
2, 21096, Note_on_c, 0, 86, 76
2, 21119, Note_on_c, 0, 86, 0
2, 21120, Note_on_c, 0, 85, 77
2, 21143, Note_on_c, 0, 85, 0
2, 21144, Note_on_c, 0, 83, 77
2, 21167, Note_on_c, 0, 83, 0
2, 21168, Note_on_c, 0, 81, 78
2, 21191, Note_on_c, 0, 81, 0
2, 21192, Note_on_c, 0, 79, 78
2, 21215, Note_on_c, 0, 79, 0
2, 21216, Note_on_c, 0, 78, 79
2, 21239, Note_on_c, 0, 78, 0
2, 21240, Note_on_c, 0, 76, 79
2, 21263, Note_on_c, 0, 76, 0
2, 21264, Note_on_c, 0, 74, 80
2, 21287, Note_on_c, 0, 74, 0
2, 21288, Note_on_c, 0, 73, 80
2, 21311, Note_on_c, 0, 73, 0
2, 21312, Note_on_c, 0, 74, 81
2, 21335, Note_on_c, 0, 74, 0
2, 21336, Note_on_c, 0, 78, 81
2, 21359, Note_on_c, 0, 78, 0
2, 21360, Note_on_c, 0, 81, 81
2, 21383, Note_on_c, 0, 81, 0
2, 21384, Note_on_c, 0, 79, 81
2, 21407, Note_on_c, 0, 79, 0
2, 21408, Note_on_c, 0, 78, 81
2, 21431, Note_on_c, 0, 78, 0
2, 21432, Note_on_c, 0, 76, 81
2, 21455, Note_on_c, 0, 76, 0
2, 21456, Note_on_c, 0, 74, 81
2, 21479, Note_on_c, 0, 74, 0
2, 21480, Note_on_c, 0, 73, 81
2, 21503, Note_on_c, 0, 73, 0
2, 21504, Note_on_c, 0, 71, 81
2, 21527, Note_on_c, 0, 71, 0
2, 21528, Note_on_c, 0, 69, 81
2, 21551, Note_on_c, 0, 69, 0
2, 21552, Note_on_c, 0, 67, 81
2, 21575, Note_on_c, 0, 67, 0
2, 21576, Note_on_c, 0, 66, 81
2, 21599, Note_on_c, 0, 66, 0
2, 21600, Note_on_c, 0, 64, 81
2, 21623, Note_on_c, 0, 64, 0
2, 21624, Note_on_c, 0, 71, 80
2, 21647, Note_on_c, 0, 71, 0
2, 21648, Note_on_c, 0, 67, 79
2, 21671, Note_on_c, 0, 67, 0
2, 21672, Note_on_c, 0, 64, 78
2, 21695, Note_on_c, 0, 64, 0
2, 21696, Note_on_c, 0, 62, 78
2, 21785, Note_on_c, 0, 62, 0
2, 21792, Note_on_c, 0, 61, 75
2, 21805, Note_on_c, 0, 61, 0
2, 21806, Note_on_c, 0, 62, 75
2, 21819, Note_on_c, 0, 62, 0
2, 21820, Note_on_c, 0, 61, 75
2, 21833, Note_on_c, 0, 61, 0
2, 21834, Note_on_c, 0, 62, 75
2, 21847, Note_on_c, 0, 62, 0
2, 21848, Note_on_c, 0, 61, 75
2, 21861, Note_on_c, 0, 61, 0
2, 21862, Note_on_c, 0, 59, 75
2, 21874, Note_on_c, 0, 59, 0
2, 21875, Note_on_c, 0, 61, 75
2, 21887, Note_on_c, 0, 61, 0
2, 21888, Note_on_c, 0, 62, 75
2, 21977, Note_on_c, 0, 62, 0
2, 22056, Note_on_c, 0, 62, 75
2, 22079, Note_on_c, 0, 62, 0
2, 22080, Note_on_c, 0, 63, 75
2, 22092, Note_on_c, 0, 63, 0
2, 22092, Note_on_c, 0, 62, 75
2, 22104, Note_on_c, 0, 62, 0
2, 22104, Note_on_c, 0, 61, 75
2, 22116, Note_on_c, 0, 61, 0
2, 22116, Note_on_c, 0, 62, 75
2, 22147, Note_on_c, 0, 62, 0
2, 22152, Note_on_c, 0, 74, 75
2, 22175, Note_on_c, 0, 74, 0
2, 22176, Note_on_c, 0, 74, 75
2, 22272, Note_on_c, 0, 74, 0
2, 22272, Note_on_c, 0, 62, 75
2, 22342, Note_on_c, 0, 62, 0
2, 22344, Note_on_c, 0, 62, 75
2, 22367, Note_on_c, 0, 62, 0
2, 22368, Note_on_c, 0, 63, 75
2, 22380, Note_on_c, 0, 63, 0
2, 22380, Note_on_c, 0, 62, 75
2, 22392, Note_on_c, 0, 62, 0
2, 22392, Note_on_c, 0, 61, 75
2, 22404, Note_on_c, 0, 61, 0
2, 22404, Note_on_c, 0, 62, 75
2, 22435, Note_on_c, 0, 62, 0
2, 22440, Note_on_c, 0, 74, 75
2, 22463, Note_on_c, 0, 74, 0
2, 22464, Note_on_c, 0, 74, 75
2, 22560, Note_on_c, 0, 74, 0
2, 22560, Note_on_c, 0, 63, 75
2, 22630, Note_on_c, 0, 63, 0
2, 22632, Note_on_c, 0, 63, 75
2, 22655, Note_on_c, 0, 63, 0
2, 22656, Note_on_c, 0, 65, 75
2, 22668, Note_on_c, 0, 65, 0
2, 22668, Note_on_c, 0, 63, 75
2, 22680, Note_on_c, 0, 63, 0
2, 22680, Note_on_c, 0, 62, 75
2, 22692, Note_on_c, 0, 62, 0
2, 22692, Note_on_c, 0, 63, 75
2, 22723, Note_on_c, 0, 63, 0
2, 22728, Note_on_c, 0, 74, 75
2, 22751, Note_on_c, 0, 74, 0
2, 22752, Note_on_c, 0, 74, 75
2, 22848, Note_on_c, 0, 74, 0
2, 22848, Note_on_c, 0, 66, 75
2, 22918, Note_on_c, 0, 66, 0
2, 22920, Note_on_c, 0, 66, 75
2, 22943, Note_on_c, 0, 66, 0
2, 22944, Note_on_c, 0, 67, 75
2, 22956, Note_on_c, 0, 67, 0
2, 22956, Note_on_c, 0, 66, 75
2, 22968, Note_on_c, 0, 66, 0
2, 22968, Note_on_c, 0, 65, 75
2, 22980, Note_on_c, 0, 65, 0
2, 22980, Note_on_c, 0, 66, 75
2, 23011, Note_on_c, 0, 66, 0
2, 23016, Note_on_c, 0, 74, 75
2, 23039, Note_on_c, 0, 74, 0
2, 23040, Note_on_c, 0, 74, 75
2, 23136, Note_on_c, 0, 74, 0
2, 23136, Note_on_c, 0, 67, 75
2, 23203, Note_on_c, 0, 67, 0
2, 23208, Note_on_c, 0, 74, 75
2, 23231, Note_on_c, 0, 74, 0
2, 23232, Note_on_c, 0, 75, 75
2, 23244, Note_on_c, 0, 75, 0
2, 23244, Note_on_c, 0, 74, 75
2, 23256, Note_on_c, 0, 74, 0
2, 23256, Note_on_c, 0, 73, 75
2, 23268, Note_on_c, 0, 73, 0
2, 23268, Note_on_c, 0, 74, 75
2, 23299, Note_on_c, 0, 74, 0
2, 23304, Note_on_c, 0, 79, 75
2, 23327, Note_on_c, 0, 79, 0
2, 23328, Note_on_c, 0, 79, 75
2, 23424, Note_on_c, 0, 79, 0
2, 23424, Note_on_c, 0, 78, 75
2, 23491, Note_on_c, 0, 78, 0
2, 23496, Note_on_c, 0, 74, 75
2, 23519, Note_on_c, 0, 74, 0
2, 23520, Note_on_c, 0, 75, 75
2, 23532, Note_on_c, 0, 75, 0
2, 23532, Note_on_c, 0, 74, 75
2, 23544, Note_on_c, 0, 74, 0
2, 23544, Note_on_c, 0, 73, 75
2, 23556, Note_on_c, 0, 73, 0
2, 23556, Note_on_c, 0, 74, 75
2, 23587, Note_on_c, 0, 74, 0
2, 23592, Note_on_c, 0, 82, 75
2, 23615, Note_on_c, 0, 82, 0
2, 23616, Note_on_c, 0, 82, 75
2, 23712, Note_on_c, 0, 82, 0
2, 23712, Note_on_c, 0, 81, 75
2, 23741, Note_on_c, 0, 81, 0
2, 23784, Note_on_c, 0, 74, 75
2, 23807, Note_on_c, 0, 74, 0
2, 23808, Note_on_c, 0, 75, 75
2, 23820, Note_on_c, 0, 75, 0
2, 23820, Note_on_c, 0, 74, 75
2, 23832, Note_on_c, 0, 74, 0
2, 23832, Note_on_c, 0, 73, 75
2, 23844, Note_on_c, 0, 73, 0
2, 23844, Note_on_c, 0, 74, 75
2, 23875, Note_on_c, 0, 74, 0
2, 23880, Note_on_c, 0, 75, 75
2, 23903, Note_on_c, 0, 75, 0
2, 23904, Note_on_c, 0, 75, 75
2, 24000, Note_on_c, 0, 75, 0
2, 24000, Note_on_c, 0, 72, 75
2, 24045, Note_on_c, 0, 72, 0
2, 24048, Note_on_c, 0, 84, 75
2, 24093, Note_on_c, 0, 84, 0
2, 24096, Note_on_c, 0, 86, 75
2, 24119, Note_on_c, 0, 86, 0
2, 24120, Note_on_c, 0, 84, 75
2, 24143, Note_on_c, 0, 84, 0
2, 24144, Note_on_c, 0, 82, 75
2, 24167, Note_on_c, 0, 82, 0
2, 24168, Note_on_c, 0, 81, 75
2, 24191, Note_on_c, 0, 81, 0
2, 24192, Note_on_c, 0, 79, 75
2, 24322, Note_on_c, 0, 79, 0
2, 24324, Note_on_c, 0, 78, 75
2, 24336, Note_on_c, 0, 78, 0
2, 24336, Note_on_c, 0, 79, 75
2, 24348, Note_on_c, 0, 79, 0
2, 24348, Note_on_c, 0, 78, 75
2, 24360, Note_on_c, 0, 78, 0
2, 24360, Note_on_c, 0, 76, 75
2, 24372, Note_on_c, 0, 76, 0
2, 24372, Note_on_c, 0, 78, 75
2, 24384, Note_on_c, 0, 78, 0
2, 24384, Note_on_c, 0, 79, 75
2, 24451, Note_on_c, 0, 79, 0
2, 24456, Note_on_c, 0, 74, 75
2, 24479, Note_on_c, 0, 74, 0
2, 24480, Note_on_c, 0, 62, 75
2, 24643, Note_on_c, 0, 62, 0
2, 24648, Note_on_c, 0, 72, 75
2, 24648, Note_on_c, 0, 69, 75
2, 24671, Note_on_c, 0, 72, 0
2, 24671, Note_on_c, 0, 69, 0
2, 24672, Note_on_c, 0, 72, 75
2, 24672, Note_on_c, 0, 69, 75
2, 24739, Note_on_c, 0, 72, 0
2, 24739, Note_on_c, 0, 69, 0
2, 24744, Note_on_c, 0, 70, 75
2, 24744, Note_on_c, 0, 67, 75
2, 24767, Note_on_c, 0, 70, 0
2, 24767, Note_on_c, 0, 67, 0
2, 24768, Note_on_c, 0, 70, 75
2, 24768, Note_on_c, 0, 67, 75
2, 24864, Note_on_c, 0, 70, 0
2, 24864, Note_on_c, 0, 67, 0
2, 24864, Note_on_c, 0, 69, 75
2, 24864, Note_on_c, 0, 66, 75
2, 24909, Note_on_c, 0, 69, 0
2, 24909, Note_on_c, 0, 66, 0
2, 24912, Note_on_c, 0, 74, 75
2, 24957, Note_on_c, 0, 74, 0
2, 24960, Note_on_c, 0, 86, 75
2, 24983, Note_on_c, 0, 86, 0
2, 24984, Note_on_c, 0, 84, 75
2, 25007, Note_on_c, 0, 84, 0
2, 25008, Note_on_c, 0, 82, 75
2, 25031, Note_on_c, 0, 82, 0
2, 25032, Note_on_c, 0, 81, 75
2, 25055, Note_on_c, 0, 81, 0
2, 25056, Note_on_c, 0, 79, 75
2, 25152, Note_on_c, 0, 79, 0
2, 25152, Note_on_c, 0, 78, 75
2, 25175, Note_on_c, 0, 78, 0
2, 25176, Note_on_c, 0, 74, 75
2, 25199, Note_on_c, 0, 74, 0
2, 25200, Note_on_c, 0, 85, 75
2, 25224, Note_on_c, 0, 85, 0
2, 25224, Note_on_c, 0, 86, 75
2, 25247, Note_on_c, 0, 86, 0
2, 25248, Note_on_c, 0, 85, 75
2, 25272, Note_on_c, 0, 85, 0
2, 25272, Note_on_c, 0, 86, 75
2, 25295, Note_on_c, 0, 86, 0
2, 25296, Note_on_c, 0, 84, 75
2, 25320, Note_on_c, 0, 84, 0
2, 25320, Note_on_c, 0, 82, 75
2, 25343, Note_on_c, 0, 82, 0
2, 25344, Note_on_c, 0, 82, 91
2, 25440, Note_on_c, 0, 82, 0
2, 25440, Note_on_c, 0, 81, 75
2, 25485, Note_on_c, 0, 81, 0
2, 25488, Note_on_c, 0, 74, 91
2, 25584, Note_on_c, 0, 74, 0
2, 25584, Note_on_c, 0, 86, 91
2, 25677, Note_on_c, 0, 86, 0
2, 25680, Note_on_c, 0, 75, 91
2, 25776, Note_on_c, 0, 75, 0
2, 25776, Note_on_c, 0, 84, 91
2, 25872, Note_on_c, 0, 84, 0
2, 25872, Note_on_c, 0, 87, 91
2, 25965, Note_on_c, 0, 87, 0
2, 25968, Note_on_c, 0, 78, 91
2, 26064, Note_on_c, 0, 78, 0
2, 26064, Note_on_c, 0, 84, 91
2, 26160, Note_on_c, 0, 84, 0
2, 26160, Note_on_c, 0, 82, 91
2, 26208, Note_on_c, 0, 82, 0
2, 26232, Note_on_c, 0, 75, 75
2, 26255, Note_on_c, 0, 75, 0
2, 26256, Note_on_c, 0, 74, 75
2, 26279, Note_on_c, 0, 74, 0
2, 26280, Note_on_c, 0, 72, 75
2, 26303, Note_on_c, 0, 72, 0
2, 26304, Note_on_c, 0, 70, 75
2, 26437, Note_on_c, 0, 70, 0
2, 26448, Note_on_c, 0, 69, 75
2, 26460, Note_on_c, 0, 69, 0
2, 26460, Note_on_c, 0, 70, 75
2, 26472, Note_on_c, 0, 70, 0
2, 26472, Note_on_c, 0, 69, 75
2, 26493, Note_on_c, 0, 69, 0
2, 26496, Note_on_c, 0, 67, 75
2, 26585, Note_on_c, 0, 67, 0
2, 26664, Note_on_c, 0, 70, 75
2, 26687, Note_on_c, 0, 70, 0
2, 26688, Note_on_c, 0, 72, 75
2, 26700, Note_on_c, 0, 72, 0
2, 26700, Note_on_c, 0, 70, 75
2, 26712, Note_on_c, 0, 70, 0
2, 26712, Note_on_c, 0, 69, 75
2, 26724, Note_on_c, 0, 69, 0
2, 26724, Note_on_c, 0, 70, 75
2, 26755, Note_on_c, 0, 70, 0
2, 26760, Note_on_c, 0, 74, 75
2, 26783, Note_on_c, 0, 74, 0
2, 26784, Note_on_c, 0, 72, 75
2, 26880, Note_on_c, 0, 72, 0
2, 26880, Note_on_c, 0, 70, 75
2, 26903, Note_on_c, 0, 70, 0
2, 26904, Note_on_c, 0, 65, 75
2, 26927, Note_on_c, 0, 65, 0
2, 26928, Note_on_c, 0, 74, 75
2, 26951, Note_on_c, 0, 74, 0
2, 26952, Note_on_c, 0, 70, 75
2, 26975, Note_on_c, 0, 70, 0
2, 26976, Note_on_c, 0, 77, 75
2, 26999, Note_on_c, 0, 77, 0
2, 27000, Note_on_c, 0, 74, 75
2, 27023, Note_on_c, 0, 74, 0
2, 27024, Note_on_c, 0, 72, 75
2, 27047, Note_on_c, 0, 72, 0
2, 27048, Note_on_c, 0, 70, 75
2, 27071, Note_on_c, 0, 70, 0
2, 27072, Note_on_c, 0, 71, 75
2, 27168, Note_on_c, 0, 71, 0
2, 27168, Note_on_c, 0, 72, 75
2, 27235, Note_on_c, 0, 72, 0
2, 27240, Note_on_c, 0, 72, 75
2, 27263, Note_on_c, 0, 72, 0
2, 27264, Note_on_c, 0, 74, 75
2, 27276, Note_on_c, 0, 74, 0
2, 27276, Note_on_c, 0, 72, 75
2, 27288, Note_on_c, 0, 72, 0
2, 27288, Note_on_c, 0, 71, 75
2, 27300, Note_on_c, 0, 71, 0
2, 27300, Note_on_c, 0, 72, 75
2, 27331, Note_on_c, 0, 72, 0
2, 27336, Note_on_c, 0, 75, 75
2, 27359, Note_on_c, 0, 75, 0
2, 27360, Note_on_c, 0, 74, 75
2, 27449, Note_on_c, 0, 74, 0
2, 27456, Note_on_c, 0, 72, 75
2, 27479, Note_on_c, 0, 72, 0
2, 27480, Note_on_c, 0, 69, 75
2, 27503, Note_on_c, 0, 69, 0
2, 27504, Note_on_c, 0, 75, 75
2, 27527, Note_on_c, 0, 75, 0
2, 27528, Note_on_c, 0, 72, 75
2, 27551, Note_on_c, 0, 72, 0
2, 27552, Note_on_c, 0, 79, 75
2, 27575, Note_on_c, 0, 79, 0
2, 27576, Note_on_c, 0, 75, 75
2, 27599, Note_on_c, 0, 75, 0
2, 27600, Note_on_c, 0, 74, 75
2, 27623, Note_on_c, 0, 74, 0
2, 27624, Note_on_c, 0, 72, 75
2, 27647, Note_on_c, 0, 72, 0
2, 27648, Note_on_c, 0, 73, 75
2, 27744, Note_on_c, 0, 73, 0
2, 27744, Note_on_c, 0, 74, 75
2, 27811, Note_on_c, 0, 74, 0
2, 27816, Note_on_c, 0, 74, 75
2, 27840, Note_on_c, 0, 74, 0
2, 27840, Note_on_c, 0, 82, 75
2, 27869, Note_on_c, 0, 82, 0
2, 27912, Note_on_c, 0, 81, 75
2, 27936, Note_on_c, 0, 81, 0
2, 27936, Note_on_c, 0, 79, 75
2, 27965, Note_on_c, 0, 79, 0
2, 28008, Note_on_c, 0, 77, 75
2, 28032, Note_on_c, 0, 77, 0
2, 28032, Note_on_c, 0, 75, 75
2, 28061, Note_on_c, 0, 75, 0
2, 28104, Note_on_c, 0, 74, 75
2, 28127, Note_on_c, 0, 74, 0
2, 28128, Note_on_c, 0, 72, 75
2, 28151, Note_on_c, 0, 72, 0
2, 28152, Note_on_c, 0, 74, 75
2, 28175, Note_on_c, 0, 74, 0
2, 28176, Note_on_c, 0, 72, 75
2, 28199, Note_on_c, 0, 72, 0
2, 28200, Note_on_c, 0, 70, 75
2, 28223, Note_on_c, 0, 70, 0
2, 28224, Note_on_c, 0, 69, 75
2, 28247, Note_on_c, 0, 69, 0
2, 28248, Note_on_c, 0, 70, 75
2, 28271, Note_on_c, 0, 70, 0
2, 28272, Note_on_c, 0, 69, 75
2, 28295, Note_on_c, 0, 69, 0
2, 28296, Note_on_c, 0, 67, 75
2, 28319, Note_on_c, 0, 67, 0
2, 28320, Note_on_c, 0, 65, 75
2, 28387, Note_on_c, 0, 65, 0
2, 28392, Note_on_c, 0, 75, 75
2, 28416, Note_on_c, 0, 75, 0
2, 28416, Note_on_c, 0, 74, 75
2, 28436, Note_on_c, 0, 74, 0
2, 28584, Note_on_c, 0, 72, 75
2, 28608, Note_on_c, 0, 72, 0
2, 28608, Note_on_c, 0, 75, 75
2, 28637, Note_on_c, 0, 75, 0
2, 28680, Note_on_c, 0, 72, 75
2, 28704, Note_on_c, 0, 72, 0
2, 28704, Note_on_c, 0, 70, 75
2, 28733, Note_on_c, 0, 70, 0
2, 28776, Note_on_c, 0, 69, 75
2, 28799, Note_on_c, 0, 69, 0
2, 28800, Note_on_c, 0, 70, 75
2, 28889, Note_on_c, 0, 70, 0
2, 28968, Note_on_c, 0, 74, 75
2, 28991, Note_on_c, 0, 74, 0
2, 28992, Note_on_c, 0, 75, 75
2, 29004, Note_on_c, 0, 75, 0
2, 29004, Note_on_c, 0, 74, 75
2, 29016, Note_on_c, 0, 74, 0
2, 29016, Note_on_c, 0, 72, 75
2, 29028, Note_on_c, 0, 72, 0
2, 29028, Note_on_c, 0, 74, 75
2, 29040, Note_on_c, 0, 74, 0
2, 29040, Note_on_c, 0, 75, 75
2, 29063, Note_on_c, 0, 75, 0
2, 29064, Note_on_c, 0, 77, 75
2, 29087, Note_on_c, 0, 77, 0
2, 29088, Note_on_c, 0, 72, 75
2, 29207, Note_on_c, 0, 72, 0
2, 29208, Note_on_c, 0, 71, 75
2, 29231, Note_on_c, 0, 71, 0
2, 29232, Note_on_c, 0, 74, 75
2, 29255, Note_on_c, 0, 74, 0
2, 29256, Note_on_c, 0, 77, 75
2, 29279, Note_on_c, 0, 77, 0
2, 29280, Note_on_c, 0, 80, 75
2, 29303, Note_on_c, 0, 80, 0
2, 29304, Note_on_c, 0, 77, 75
2, 29327, Note_on_c, 0, 77, 0
2, 29328, Note_on_c, 0, 75, 75
2, 29351, Note_on_c, 0, 75, 0
2, 29352, Note_on_c, 0, 74, 75
2, 29375, Note_on_c, 0, 74, 0
2, 29376, Note_on_c, 0, 77, 75
2, 29472, Note_on_c, 0, 77, 0
2, 29472, Note_on_c, 0, 75, 75
2, 29539, Note_on_c, 0, 75, 0
2, 29544, Note_on_c, 0, 75, 75
2, 29567, Note_on_c, 0, 75, 0
2, 29568, Note_on_c, 0, 77, 75
2, 29580, Note_on_c, 0, 77, 0
2, 29580, Note_on_c, 0, 75, 75
2, 29592, Note_on_c, 0, 75, 0
2, 29592, Note_on_c, 0, 74, 75
2, 29604, Note_on_c, 0, 74, 0
2, 29604, Note_on_c, 0, 75, 75
2, 29616, Note_on_c, 0, 75, 0
2, 29616, Note_on_c, 0, 77, 75
2, 29639, Note_on_c, 0, 77, 0
2, 29640, Note_on_c, 0, 79, 75
2, 29663, Note_on_c, 0, 79, 0
2, 29664, Note_on_c, 0, 74, 75
2, 29783, Note_on_c, 0, 74, 0
2, 29784, Note_on_c, 0, 73, 75
2, 29807, Note_on_c, 0, 73, 0
2, 29808, Note_on_c, 0, 76, 75
2, 29831, Note_on_c, 0, 76, 0
2, 29832, Note_on_c, 0, 79, 75
2, 29855, Note_on_c, 0, 79, 0
2, 29856, Note_on_c, 0, 82, 75
2, 29879, Note_on_c, 0, 82, 0
2, 29880, Note_on_c, 0, 79, 75
2, 29903, Note_on_c, 0, 79, 0
2, 29904, Note_on_c, 0, 77, 75
2, 29927, Note_on_c, 0, 77, 0
2, 29928, Note_on_c, 0, 76, 75
2, 29951, Note_on_c, 0, 76, 0
2, 29952, Note_on_c, 0, 79, 75
2, 30048, Note_on_c, 0, 79, 0
2, 30048, Note_on_c, 0, 78, 75
2, 30115, Note_on_c, 0, 78, 0
2, 30120, Note_on_c, 0, 74, 75
2, 30143, Note_on_c, 0, 74, 0
2, 30144, Note_on_c, 0, 75, 75
2, 30156, Note_on_c, 0, 75, 0
2, 30156, Note_on_c, 0, 74, 75
2, 30168, Note_on_c, 0, 74, 0
2, 30168, Note_on_c, 0, 73, 75
2, 30180, Note_on_c, 0, 73, 0
2, 30180, Note_on_c, 0, 74, 75
2, 30211, Note_on_c, 0, 74, 0
2, 30216, Note_on_c, 0, 79, 75
2, 30239, Note_on_c, 0, 79, 0
2, 30240, Note_on_c, 0, 79, 75
2, 30336, Note_on_c, 0, 79, 0
2, 30336, Note_on_c, 0, 78, 75
2, 30403, Note_on_c, 0, 78, 0
2, 30408, Note_on_c, 0, 74, 75
2, 30431, Note_on_c, 0, 74, 0
2, 30432, Note_on_c, 0, 75, 75
2, 30444, Note_on_c, 0, 75, 0
2, 30444, Note_on_c, 0, 74, 75
2, 30456, Note_on_c, 0, 74, 0
2, 30456, Note_on_c, 0, 73, 75
2, 30468, Note_on_c, 0, 73, 0
2, 30468, Note_on_c, 0, 74, 75
2, 30499, Note_on_c, 0, 74, 0
2, 30504, Note_on_c, 0, 82, 75
2, 30527, Note_on_c, 0, 82, 0
2, 30528, Note_on_c, 0, 82, 75
2, 30624, Note_on_c, 0, 82, 0
2, 30624, Note_on_c, 0, 81, 75
2, 30653, Note_on_c, 0, 81, 0
2, 30696, Note_on_c, 0, 74, 75
2, 30719, Note_on_c, 0, 74, 0
2, 30720, Note_on_c, 0, 75, 75
2, 30732, Note_on_c, 0, 75, 0
2, 30732, Note_on_c, 0, 74, 75
2, 30744, Note_on_c, 0, 74, 0
2, 30744, Note_on_c, 0, 73, 75
2, 30756, Note_on_c, 0, 73, 0
2, 30756, Note_on_c, 0, 74, 75
2, 30787, Note_on_c, 0, 74, 0
2, 30792, Note_on_c, 0, 86, 75
2, 30815, Note_on_c, 0, 86, 0
2, 30816, Note_on_c, 0, 86, 75
2, 30912, Note_on_c, 0, 86, 0
2, 30912, Note_on_c, 0, 75, 75
2, 30957, Note_on_c, 0, 75, 0
2, 30960, Note_on_c, 0, 84, 75
2, 31005, Note_on_c, 0, 84, 0
2, 31008, Note_on_c, 0, 86, 75
2, 31020, Note_on_c, 0, 86, 0
2, 31020, Note_on_c, 0, 84, 75
2, 31032, Note_on_c, 0, 84, 0
2, 31032, Note_on_c, 0, 83, 75
2, 31044, Note_on_c, 0, 83, 0
2, 31044, Note_on_c, 0, 84, 75
2, 31056, Note_on_c, 0, 84, 0
2, 31056, Note_on_c, 0, 86, 75
2, 31079, Note_on_c, 0, 86, 0
2, 31080, Note_on_c, 0, 87, 75
2, 31103, Note_on_c, 0, 87, 0
2, 31104, Note_on_c, 0, 87, 75
2, 31200, Note_on_c, 0, 87, 0
2, 31200, Note_on_c, 0, 78, 75
2, 31239, Note_on_c, 0, 78, 0
2, 31368, Note_on_c, 0, 79, 75
2, 31391, Note_on_c, 0, 79, 0
2, 31392, Note_on_c, 0, 77, 75
2, 31415, Note_on_c, 0, 77, 0
2, 31416, Note_on_c, 0, 75, 75
2, 31439, Note_on_c, 0, 75, 0
2, 31440, Note_on_c, 0, 74, 75
2, 31463, Note_on_c, 0, 74, 0
2, 31464, Note_on_c, 0, 72, 75
2, 31487, Note_on_c, 0, 72, 0
2, 31488, Note_on_c, 0, 70, 75
2, 31621, Note_on_c, 0, 70, 0
2, 31632, Note_on_c, 0, 69, 75
2, 31644, Note_on_c, 0, 69, 0
2, 31644, Note_on_c, 0, 70, 75
2, 31656, Note_on_c, 0, 70, 0
2, 31656, Note_on_c, 0, 69, 75
2, 31677, Note_on_c, 0, 69, 0
2, 31680, Note_on_c, 0, 67, 75
2, 31769, Note_on_c, 0, 67, 0
2, 31800, Note_on_c, 0, 62, 75
2, 31823, Note_on_c, 0, 62, 0
2, 31824, Note_on_c, 0, 67, 75
2, 31847, Note_on_c, 0, 67, 0
2, 31848, Note_on_c, 0, 70, 75
2, 31871, Note_on_c, 0, 70, 0
2, 31920, Note_on_c, 0, 74, 75
2, 31943, Note_on_c, 0, 74, 0
2, 31944, Note_on_c, 0, 82, 75
2, 31967, Note_on_c, 0, 82, 0
2, 31968, Note_on_c, 0, 79, 75
2, 32064, Note_on_c, 0, 79, 0
2, 32064, Note_on_c, 0, 78, 75
2, 32076, Note_on_c, 0, 78, 0
2, 32076, Note_on_c, 0, 79, 75
2, 32088, Note_on_c, 0, 79, 0
2, 32088, Note_on_c, 0, 78, 75
2, 32153, Note_on_c, 0, 78, 0
2, 32208, Note_on_c, 0, 74, 75
2, 32231, Note_on_c, 0, 74, 0
2, 32232, Note_on_c, 0, 86, 75
2, 32255, Note_on_c, 0, 86, 0
2, 32256, Note_on_c, 0, 82, 75
2, 32352, Note_on_c, 0, 82, 0
2, 32352, Note_on_c, 0, 81, 75
2, 32364, Note_on_c, 0, 81, 0
2, 32364, Note_on_c, 0, 82, 75
2, 32376, Note_on_c, 0, 82, 0
2, 32376, Note_on_c, 0, 81, 75
2, 32441, Note_on_c, 0, 81, 0
2, 32496, Note_on_c, 0, 74, 75
2, 32519, Note_on_c, 0, 74, 0
2, 32520, Note_on_c, 0, 86, 75
2, 32543, Note_on_c, 0, 86, 0
2, 32592, Note_on_c, 0, 75, 75
2, 32615, Note_on_c, 0, 75, 0
2, 32616, Note_on_c, 0, 86, 75
2, 32639, Note_on_c, 0, 86, 0
2, 32664, Note_on_c, 0, 75, 75
2, 32687, Note_on_c, 0, 75, 0
2, 32688, Note_on_c, 0, 81, 75
2, 32711, Note_on_c, 0, 81, 0
2, 32712, Note_on_c, 0, 84, 75
2, 32735, Note_on_c, 0, 84, 0
2, 32736, Note_on_c, 0, 87, 75
2, 32759, Note_on_c, 0, 87, 0
2, 32760, Note_on_c, 0, 84, 75
2, 32783, Note_on_c, 0, 84, 0
2, 32784, Note_on_c, 0, 82, 75
2, 32807, Note_on_c, 0, 82, 0
2, 32808, Note_on_c, 0, 81, 75
2, 32831, Note_on_c, 0, 81, 0
2, 32832, Note_on_c, 0, 79, 75
2, 32855, Note_on_c, 0, 79, 0
2, 32856, Note_on_c, 0, 78, 75
2, 32879, Note_on_c, 0, 78, 0
2, 32880, Note_on_c, 0, 79, 75
2, 32903, Note_on_c, 0, 79, 0
2, 32904, Note_on_c, 0, 81, 75
2, 32927, Note_on_c, 0, 81, 0
2, 32928, Note_on_c, 0, 75, 75
2, 33072, Note_on_c, 0, 75, 0
2, 33072, Note_on_c, 0, 74, 75
2, 33095, Note_on_c, 0, 74, 0
2, 33096, Note_on_c, 0, 79, 75
2, 33119, Note_on_c, 0, 79, 0
2, 33120, Note_on_c, 0, 77, 75
2, 33143, Note_on_c, 0, 77, 0
2, 33144, Note_on_c, 0, 75, 75
2, 33167, Note_on_c, 0, 75, 0
2, 33168, Note_on_c, 0, 74, 75
2, 33191, Note_on_c, 0, 74, 0
2, 33192, Note_on_c, 0, 72, 75
2, 33215, Note_on_c, 0, 72, 0
2, 33216, Note_on_c, 0, 70, 75
2, 33349, Note_on_c, 0, 70, 0
2, 33360, Note_on_c, 0, 69, 75
2, 33372, Note_on_c, 0, 69, 0
2, 33372, Note_on_c, 0, 70, 75
2, 33384, Note_on_c, 0, 70, 0
2, 33384, Note_on_c, 0, 69, 75
2, 33405, Note_on_c, 0, 69, 0
2, 33408, Note_on_c, 0, 67, 75
2, 33497, Note_on_c, 0, 67, 0
2, 33576, Note_on_c, 0, 62, 75
2, 33599, Note_on_c, 0, 62, 0
2, 33600, Note_on_c, 0, 63, 75
2, 33612, Note_on_c, 0, 63, 0
2, 33612, Note_on_c, 0, 62, 75
2, 33624, Note_on_c, 0, 62, 0
2, 33624, Note_on_c, 0, 61, 75
2, 33636, Note_on_c, 0, 61, 0
2, 33636, Note_on_c, 0, 62, 75
2, 33667, Note_on_c, 0, 62, 0
2, 33672, Note_on_c, 0, 71, 75
2, 33695, Note_on_c, 0, 71, 0
2, 33696, Note_on_c, 0, 71, 75
2, 33792, Note_on_c, 0, 71, 0
2, 33792, Note_on_c, 0, 60, 75
2, 33859, Note_on_c, 0, 60, 0
2, 33864, Note_on_c, 0, 60, 75
2, 33887, Note_on_c, 0, 60, 0
2, 33888, Note_on_c, 0, 62, 75
2, 33900, Note_on_c, 0, 62, 0
2, 33900, Note_on_c, 0, 60, 75
2, 33912, Note_on_c, 0, 60, 0
2, 33912, Note_on_c, 0, 59, 75
2, 33924, Note_on_c, 0, 59, 0
2, 33924, Note_on_c, 0, 60, 75
2, 33955, Note_on_c, 0, 60, 0
2, 33960, Note_on_c, 0, 69, 75
2, 33983, Note_on_c, 0, 69, 0
2, 33984, Note_on_c, 0, 60, 75
2, 34103, Note_on_c, 0, 60, 0
2, 34104, Note_on_c, 0, 59, 75
2, 34127, Note_on_c, 0, 59, 0
2, 34128, Note_on_c, 0, 64, 75
2, 34152, Note_on_c, 0, 64, 0
2, 34152, Note_on_c, 0, 62, 76
2, 34175, Note_on_c, 0, 62, 0
2, 34176, Note_on_c, 0, 67, 76
2, 34200, Note_on_c, 0, 67, 0
2, 34200, Note_on_c, 0, 66, 77
2, 34223, Note_on_c, 0, 66, 0
2, 34224, Note_on_c, 0, 69, 77
2, 34248, Note_on_c, 0, 69, 0
2, 34248, Note_on_c, 0, 67, 78
2, 34271, Note_on_c, 0, 67, 0
2, 34272, Note_on_c, 0, 71, 78
2, 34295, Note_on_c, 0, 71, 0
2, 34296, Note_on_c, 0, 69, 79
2, 34319, Note_on_c, 0, 69, 0
2, 34320, Note_on_c, 0, 72, 79
2, 34343, Note_on_c, 0, 72, 0
2, 34344, Note_on_c, 0, 71, 80
2, 34367, Note_on_c, 0, 71, 0
2, 34368, Note_on_c, 0, 74, 81
2, 34391, Note_on_c, 0, 74, 0
2, 34392, Note_on_c, 0, 72, 80
2, 34415, Note_on_c, 0, 72, 0
2, 34416, Note_on_c, 0, 71, 80
2, 34439, Note_on_c, 0, 71, 0
2, 34440, Note_on_c, 0, 69, 79
2, 34463, Note_on_c, 0, 69, 0
2, 34464, Note_on_c, 0, 67, 79
2, 34487, Note_on_c, 0, 67, 0
2, 34488, Note_on_c, 0, 66, 79
2, 34511, Note_on_c, 0, 66, 0
2, 34512, Note_on_c, 0, 64, 78
2, 34535, Note_on_c, 0, 64, 0
2, 34536, Note_on_c, 0, 62, 78
2, 34559, Note_on_c, 0, 62, 0
2, 34560, Note_on_c, 0, 62, 78
2, 34701, Note_on_c, 0, 62, 0
2, 34704, Note_on_c, 0, 60, 75
2, 34749, Note_on_c, 0, 60, 0
2, 34752, Note_on_c, 0, 62, 75
2, 34764, Note_on_c, 0, 62, 0
2, 34764, Note_on_c, 0, 60, 75
2, 34797, Note_on_c, 0, 60, 0
2, 34800, Note_on_c, 0, 59, 75
2, 34845, Note_on_c, 0, 59, 0
2, 34848, Note_on_c, 0, 59, 75
2, 34944, Note_on_c, 0, 59, 0
2, 34944, Note_on_c, 0, 57, 75
2, 35011, Note_on_c, 0, 57, 0
2, 35016, Note_on_c, 0, 62, 75
2, 35039, Note_on_c, 0, 62, 0
2, 35040, Note_on_c, 0, 64, 75
2, 35052, Note_on_c, 0, 64, 0
2, 35052, Note_on_c, 0, 62, 75
2, 35064, Note_on_c, 0, 62, 0
2, 35064, Note_on_c, 0, 61, 75
2, 35076, Note_on_c, 0, 61, 0
2, 35076, Note_on_c, 0, 62, 75
2, 35107, Note_on_c, 0, 62, 0
2, 35112, Note_on_c, 0, 71, 75
2, 35135, Note_on_c, 0, 71, 0
2, 35136, Note_on_c, 0, 71, 75
2, 35184, Note_on_c, 0, 71, 0
2, 35184, Note_on_c, 0, 61, 75
2, 35231, Note_on_c, 0, 61, 0
2, 35304, Note_on_c, 0, 60, 75
2, 35327, Note_on_c, 0, 60, 0
2, 35328, Note_on_c, 0, 62, 75
2, 35340, Note_on_c, 0, 62, 0
2, 35340, Note_on_c, 0, 60, 75
2, 35352, Note_on_c, 0, 60, 0
2, 35352, Note_on_c, 0, 59, 75
2, 35364, Note_on_c, 0, 59, 0
2, 35364, Note_on_c, 0, 60, 75
2, 35395, Note_on_c, 0, 60, 0
2, 35400, Note_on_c, 0, 69, 75
2, 35423, Note_on_c, 0, 69, 0
2, 35424, Note_on_c, 0, 60, 75
2, 35544, Note_on_c, 0, 60, 0
2, 35544, Note_on_c, 0, 59, 75
2, 35567, Note_on_c, 0, 59, 0
2, 35568, Note_on_c, 0, 64, 76
2, 35592, Note_on_c, 0, 64, 0
2, 35592, Note_on_c, 0, 62, 76
2, 35615, Note_on_c, 0, 62, 0
2, 35616, Note_on_c, 0, 67, 77
2, 35640, Note_on_c, 0, 67, 0
2, 35640, Note_on_c, 0, 66, 77
2, 35663, Note_on_c, 0, 66, 0
2, 35664, Note_on_c, 0, 69, 78
2, 35688, Note_on_c, 0, 69, 0
2, 35688, Note_on_c, 0, 67, 78
2, 35711, Note_on_c, 0, 67, 0
2, 35712, Note_on_c, 0, 71, 79
2, 35735, Note_on_c, 0, 71, 0
2, 35736, Note_on_c, 0, 69, 79
2, 35759, Note_on_c, 0, 69, 0
2, 35760, Note_on_c, 0, 72, 80
2, 35783, Note_on_c, 0, 72, 0
2, 35784, Note_on_c, 0, 71, 80
2, 35807, Note_on_c, 0, 71, 0
2, 35808, Note_on_c, 0, 74, 81
2, 35831, Note_on_c, 0, 74, 0
2, 35832, Note_on_c, 0, 72, 80
2, 35855, Note_on_c, 0, 72, 0
2, 35856, Note_on_c, 0, 71, 80
2, 35879, Note_on_c, 0, 71, 0
2, 35880, Note_on_c, 0, 69, 79
2, 35903, Note_on_c, 0, 69, 0
2, 35904, Note_on_c, 0, 67, 79
2, 35927, Note_on_c, 0, 67, 0
2, 35928, Note_on_c, 0, 66, 78
2, 35951, Note_on_c, 0, 66, 0
2, 35952, Note_on_c, 0, 64, 78
2, 35975, Note_on_c, 0, 64, 0
2, 35976, Note_on_c, 0, 62, 77
2, 35999, Note_on_c, 0, 62, 0
2, 36000, Note_on_c, 0, 62, 77
2, 36023, Note_on_c, 0, 62, 0
2, 36024, Note_on_c, 0, 60, 76
2, 36047, Note_on_c, 0, 60, 0
2, 36048, Note_on_c, 0, 64, 76
2, 36071, Note_on_c, 0, 64, 0
2, 36072, Note_on_c, 0, 60, 75
2, 36095, Note_on_c, 0, 60, 0
2, 36096, Note_on_c, 0, 59, 75
2, 36229, Note_on_c, 0, 59, 0
2, 36240, Note_on_c, 0, 57, 75
2, 36252, Note_on_c, 0, 57, 0
2, 36252, Note_on_c, 0, 59, 75
2, 36264, Note_on_c, 0, 59, 0
2, 36264, Note_on_c, 0, 57, 75
2, 36285, Note_on_c, 0, 57, 0
2, 36288, Note_on_c, 0, 55, 75
2, 36333, Note_on_c, 0, 55, 0
2, 36408, Note_on_c, 0, 67, 75
2, 36431, Note_on_c, 0, 67, 0
2, 36432, Note_on_c, 0, 73, 75
2, 36455, Note_on_c, 0, 73, 0
2, 36456, Note_on_c, 0, 76, 75
2, 36479, Note_on_c, 0, 76, 0
2, 36480, Note_on_c, 0, 79, 75
2, 36503, Note_on_c, 0, 79, 0
2, 36504, Note_on_c, 0, 76, 75
2, 36527, Note_on_c, 0, 76, 0
2, 36528, Note_on_c, 0, 74, 75
2, 36551, Note_on_c, 0, 74, 0
2, 36552, Note_on_c, 0, 73, 75
2, 36575, Note_on_c, 0, 73, 0
2, 36576, Note_on_c, 0, 74, 75
2, 36621, Note_on_c, 0, 74, 0
2, 36696, Note_on_c, 0, 74, 75
2, 36719, Note_on_c, 0, 74, 0
2, 36720, Note_on_c, 0, 78, 75
2, 36743, Note_on_c, 0, 78, 0
2, 36744, Note_on_c, 0, 81, 75
2, 36767, Note_on_c, 0, 81, 0
2, 36768, Note_on_c, 0, 84, 75
2, 36791, Note_on_c, 0, 84, 0
2, 36792, Note_on_c, 0, 83, 75
2, 36815, Note_on_c, 0, 83, 0
2, 36816, Note_on_c, 0, 81, 75
2, 36839, Note_on_c, 0, 81, 0
2, 36840, Note_on_c, 0, 79, 75
2, 36863, Note_on_c, 0, 79, 0
2, 36864, Note_on_c, 0, 78, 75
2, 36909, Note_on_c, 0, 78, 0
2, 36960, Note_on_c, 0, 84, 75
2, 36983, Note_on_c, 0, 84, 0
2, 36984, Note_on_c, 0, 86, 75
2, 37007, Note_on_c, 0, 86, 0
2, 37008, Note_on_c, 0, 88, 75
2, 37031, Note_on_c, 0, 88, 0
2, 37032, Note_on_c, 0, 86, 75
2, 37055, Note_on_c, 0, 86, 0
2, 37056, Note_on_c, 0, 84, 75
2, 37079, Note_on_c, 0, 84, 0
2, 37080, Note_on_c, 0, 83, 75
2, 37103, Note_on_c, 0, 83, 0
2, 37104, Note_on_c, 0, 81, 75
2, 37127, Note_on_c, 0, 81, 0
2, 37128, Note_on_c, 0, 79, 75
2, 37151, Note_on_c, 0, 79, 0
2, 37152, Note_on_c, 0, 78, 75
2, 37175, Note_on_c, 0, 78, 0
2, 37248, Note_on_c, 0, 84, 75
2, 37271, Note_on_c, 0, 84, 0
2, 37272, Note_on_c, 0, 86, 75
2, 37295, Note_on_c, 0, 86, 0
2, 37296, Note_on_c, 0, 88, 75
2, 37319, Note_on_c, 0, 88, 0
2, 37320, Note_on_c, 0, 86, 75
2, 37343, Note_on_c, 0, 86, 0
2, 37344, Note_on_c, 0, 84, 75
2, 37367, Note_on_c, 0, 84, 0
2, 37368, Note_on_c, 0, 83, 75
2, 37391, Note_on_c, 0, 83, 0
2, 37392, Note_on_c, 0, 81, 75
2, 37415, Note_on_c, 0, 81, 0
2, 37416, Note_on_c, 0, 79, 75
2, 37439, Note_on_c, 0, 79, 0
2, 37440, Note_on_c, 0, 78, 75
2, 37485, Note_on_c, 0, 78, 0
2, 37500, Note_on_c, 0, 62, 75
2, 37512, Note_on_c, 0, 62, 0
2, 37512, Note_on_c, 0, 66, 75
2, 37524, Note_on_c, 0, 66, 0
2, 37524, Note_on_c, 0, 69, 75
2, 37536, Note_on_c, 0, 69, 0
2, 37536, Note_on_c, 0, 72, 75
2, 37548, Note_on_c, 0, 72, 0
2, 37548, Note_on_c, 0, 62, 75
2, 37560, Note_on_c, 0, 62, 0
2, 37560, Note_on_c, 0, 66, 75
2, 37572, Note_on_c, 0, 66, 0
2, 37572, Note_on_c, 0, 69, 75
2, 37584, Note_on_c, 0, 69, 0
2, 37584, Note_on_c, 0, 72, 75
2, 37596, Note_on_c, 0, 72, 0
2, 37596, Note_on_c, 0, 74, 75
2, 37608, Note_on_c, 0, 74, 0
2, 37608, Note_on_c, 0, 78, 75
2, 37620, Note_on_c, 0, 78, 0
2, 37620, Note_on_c, 0, 81, 75
2, 37632, Note_on_c, 0, 81, 0
2, 37632, Note_on_c, 0, 84, 91
2, 37680, Note_on_c, 0, 84, 0
2, 37968, Note_on_c, 0, 71, 91
2, 37992, Note_on_c, 0, 71, 0
2, 37992, Note_on_c, 0, 67, 75
2, 38015, Note_on_c, 0, 67, 0
2, 38016, Note_on_c, 0, 66, 75
2, 38039, Note_on_c, 0, 66, 0
2, 38040, Note_on_c, 0, 64, 75
2, 38063, Note_on_c, 0, 64, 0
2, 38064, Note_on_c, 0, 62, 75
2, 38087, Note_on_c, 0, 62, 0
2, 38088, Note_on_c, 0, 60, 75
2, 38111, Note_on_c, 0, 60, 0
2, 38112, Note_on_c, 0, 59, 75
2, 38245, Note_on_c, 0, 59, 0
2, 38256, Note_on_c, 0, 57, 75
2, 38268, Note_on_c, 0, 57, 0
2, 38268, Note_on_c, 0, 59, 75
2, 38280, Note_on_c, 0, 59, 0
2, 38280, Note_on_c, 0, 57, 75
2, 38301, Note_on_c, 0, 57, 0
2, 38304, Note_on_c, 0, 55, 75
2, 38393, Note_on_c, 0, 55, 0
2, 38592, End_track
3, 0, Start_track
3, 0, Program_c, 0, 0
3, 0, Control_c, 0, 7, 127
3, 0, Control_c, 0, 10, 64
3, 1728, Note_on_c, 0, 67, 64
3, 1824, Note_on_c, 0, 67, 0
3, 1824, Note_on_c, 0, 66, 64
3, 1861, Note_on_c, 0, 66, 0
3, 3456, Note_on_c, 0, 67, 64
3, 3552, Note_on_c, 0, 67, 0
3, 3552, Note_on_c, 0, 66, 64
3, 3589, Note_on_c, 0, 66, 0
3, 38592, End_track
4, 0, Start_track
4, 0, Program_c, 1, 0
4, 0, Control_c, 1, 7, 127
4, 0, Control_c, 1, 10, 64
4, 192, Note_on_c, 1, 58, 75
4, 192, Note_on_c, 1, 55, 75
4, 281, Note_on_c, 1, 58, 0
4, 281, Note_on_c, 1, 55, 0
4, 288, Note_on_c, 1, 57, 75
4, 288, Note_on_c, 1, 50, 75
4, 465, Note_on_c, 1, 57, 0
4, 465, Note_on_c, 1, 50, 0
4, 480, Note_on_c, 1, 58, 75
4, 480, Note_on_c, 1, 55, 75
4, 569, Note_on_c, 1, 58, 0
4, 569, Note_on_c, 1, 55, 0
4, 576, Note_on_c, 1, 55, 75
4, 672, Note_on_c, 1, 55, 0
4, 672, Note_on_c, 1, 54, 75
4, 761, Note_on_c, 1, 54, 0
4, 768, Note_on_c, 1, 67, 75
4, 953, Note_on_c, 1, 67, 0
4, 960, Note_on_c, 1, 69, 75
4, 1049, Note_on_c, 1, 69, 0
4, 1248, Note_on_c, 1, 62, 75
4, 1425, Note_on_c, 1, 62, 0
4, 1536, Note_on_c, 1, 54, 75
4, 1625, Note_on_c, 1, 54, 0
4, 1632, Note_on_c, 1, 55, 75
4, 1721, Note_on_c, 1, 55, 0
4, 1728, Note_on_c, 1, 50, 75
4, 1817, Note_on_c, 1, 50, 0
4, 1824, Note_on_c, 1, 62, 75
4, 1869, Note_on_c, 1, 62, 0
4, 1920, Note_on_c, 1, 58, 75
4, 1920, Note_on_c, 1, 55, 75
4, 2009, Note_on_c, 1, 58, 0
4, 2009, Note_on_c, 1, 55, 0
4, 2016, Note_on_c, 1, 57, 75
4, 2016, Note_on_c, 1, 50, 75
4, 2193, Note_on_c, 1, 57, 0
4, 2193, Note_on_c, 1, 50, 0
4, 2208, Note_on_c, 1, 58, 75
4, 2208, Note_on_c, 1, 55, 75
4, 2297, Note_on_c, 1, 58, 0
4, 2297, Note_on_c, 1, 55, 0
4, 2304, Note_on_c, 1, 55, 75
4, 2400, Note_on_c, 1, 55, 0
4, 2400, Note_on_c, 1, 54, 75
4, 2489, Note_on_c, 1, 54, 0
4, 2496, Note_on_c, 1, 67, 75
4, 2681, Note_on_c, 1, 67, 0
4, 2688, Note_on_c, 1, 69, 75
4, 2777, Note_on_c, 1, 69, 0
4, 2976, Note_on_c, 1, 62, 75
4, 3153, Note_on_c, 1, 62, 0
4, 3264, Note_on_c, 1, 54, 75
4, 3353, Note_on_c, 1, 54, 0
4, 3360, Note_on_c, 1, 55, 75
4, 3449, Note_on_c, 1, 55, 0
4, 3456, Note_on_c, 1, 50, 75
4, 3545, Note_on_c, 1, 50, 0
4, 3552, Note_on_c, 1, 62, 75
4, 3597, Note_on_c, 1, 62, 0
4, 3840, Note_on_c, 1, 65, 75
4, 3840, Note_on_c, 1, 62, 75
4, 3929, Note_on_c, 1, 65, 0
4, 3929, Note_on_c, 1, 62, 0
4, 4128, Note_on_c, 1, 67, 75
4, 4128, Note_on_c, 1, 63, 75
4, 4217, Note_on_c, 1, 67, 0
4, 4217, Note_on_c, 1, 63, 0
4, 4416, Note_on_c, 1, 69, 75
4, 4416, Note_on_c, 1, 65, 75
4, 4505, Note_on_c, 1, 69, 0
4, 4505, Note_on_c, 1, 65, 0
4, 4704, Note_on_c, 1, 65, 75
4, 4704, Note_on_c, 1, 58, 75
4, 4793, Note_on_c, 1, 65, 0
4, 4793, Note_on_c, 1, 58, 0
4, 4872, Note_on_c, 1, 58, 75
4, 4896, Note_on_c, 1, 58, 0
4, 4896, Note_on_c, 1, 63, 75
4, 4925, Note_on_c, 1, 63, 0
4, 4968, Note_on_c, 1, 62, 75
4, 4992, Note_on_c, 1, 62, 0
4, 4992, Note_on_c, 1, 67, 75
4, 5021, Note_on_c, 1, 67, 0
4, 5064, Note_on_c, 1, 65, 75
4, 5088, Note_on_c, 1, 65, 0
4, 5088, Note_on_c, 1, 63, 75
4, 5117, Note_on_c, 1, 63, 0
4, 5160, Note_on_c, 1, 62, 75
4, 5184, Note_on_c, 1, 62, 0
4, 5184, Note_on_c, 1, 60, 75
4, 5213, Note_on_c, 1, 60, 0
4, 5256, Note_on_c, 1, 58, 75
4, 5280, Note_on_c, 1, 58, 0
4, 5280, Note_on_c, 1, 57, 75
4, 5309, Note_on_c, 1, 57, 0
4, 5352, Note_on_c, 1, 53, 75
4, 5376, Note_on_c, 1, 53, 0
4, 5376, Note_on_c, 1, 58, 75
4, 5405, Note_on_c, 1, 58, 0
4, 5448, Note_on_c, 1, 50, 75
4, 5472, Note_on_c, 1, 50, 0
4, 5472, Note_on_c, 1, 51, 75
4, 5511, Note_on_c, 1, 51, 0
4, 5664, Note_on_c, 1, 53, 75
4, 5703, Note_on_c, 1, 53, 0
4, 5832, Note_on_c, 1, 46, 75
4, 5855, Note_on_c, 1, 46, 0
4, 5856, Note_on_c, 1, 58, 75
4, 5895, Note_on_c, 1, 58, 0
4, 6144, Note_on_c, 1, 65, 75
4, 6144, Note_on_c, 1, 62, 75
4, 6144, Note_on_c, 1, 55, 75
4, 6233, Note_on_c, 1, 65, 0
4, 6233, Note_on_c, 1, 62, 0
4, 6233, Note_on_c, 1, 55, 0
4, 6408, Note_on_c, 1, 59, 75
4, 6432, Note_on_c, 1, 59, 0
4, 6432, Note_on_c, 1, 60, 75
4, 6471, Note_on_c, 1, 60, 0
4, 6720, Note_on_c, 1, 67, 75
4, 6720, Note_on_c, 1, 64, 75
4, 6720, Note_on_c, 1, 57, 75
4, 6809, Note_on_c, 1, 67, 0
4, 6809, Note_on_c, 1, 64, 0
4, 6809, Note_on_c, 1, 57, 0
4, 6984, Note_on_c, 1, 61, 75
4, 7008, Note_on_c, 1, 61, 0
4, 7008, Note_on_c, 1, 62, 75
4, 7047, Note_on_c, 1, 62, 0
4, 7104, Note_on_c, 1, 70, 75
4, 7104, Note_on_c, 1, 67, 75
4, 7200, Note_on_c, 1, 70, 0
4, 7200, Note_on_c, 1, 67, 0
4, 7200, Note_on_c, 1, 69, 75
4, 7200, Note_on_c, 1, 62, 75
4, 7377, Note_on_c, 1, 69, 0
4, 7377, Note_on_c, 1, 62, 0
4, 7392, Note_on_c, 1, 70, 75
4, 7392, Note_on_c, 1, 67, 75
4, 7481, Note_on_c, 1, 70, 0
4, 7481, Note_on_c, 1, 67, 0
4, 7488, Note_on_c, 1, 67, 75
4, 7584, Note_on_c, 1, 67, 0
4, 7584, Note_on_c, 1, 66, 75
4, 7673, Note_on_c, 1, 66, 0
4, 7680, Note_on_c, 1, 67, 75
4, 7865, Note_on_c, 1, 67, 0
4, 7872, Note_on_c, 1, 69, 75
4, 7961, Note_on_c, 1, 69, 0
4, 8160, Note_on_c, 1, 72, 75
4, 8160, Note_on_c, 1, 69, 75
4, 8249, Note_on_c, 1, 72, 0
4, 8249, Note_on_c, 1, 69, 0
4, 8328, Note_on_c, 1, 67, 75
4, 8328, Note_on_c, 1, 58, 75
4, 8351, Note_on_c, 1, 67, 0
4, 8351, Note_on_c, 1, 58, 0
4, 8352, Note_on_c, 1, 67, 75
4, 8529, Note_on_c, 1, 67, 0
4, 8544, Note_on_c, 1, 66, 75
4, 8633, Note_on_c, 1, 66, 0
4, 8640, Note_on_c, 1, 55, 75
4, 8679, Note_on_c, 1, 55, 0
4, 8736, Note_on_c, 1, 43, 75
4, 8756, Note_on_c, 1, 43, 0
4, 9024, Note_on_c, 1, 65, 75
4, 9024, Note_on_c, 1, 62, 75
4, 9113, Note_on_c, 1, 65, 0
4, 9113, Note_on_c, 1, 62, 0
4, 9312, Note_on_c, 1, 67, 75
4, 9312, Note_on_c, 1, 63, 75
4, 9401, Note_on_c, 1, 67, 0
4, 9401, Note_on_c, 1, 63, 0
4, 9600, Note_on_c, 1, 69, 75
4, 9600, Note_on_c, 1, 65, 75
4, 9689, Note_on_c, 1, 69, 0
4, 9689, Note_on_c, 1, 65, 0
4, 9888, Note_on_c, 1, 65, 75
4, 9888, Note_on_c, 1, 58, 75
4, 9977, Note_on_c, 1, 65, 0
4, 9977, Note_on_c, 1, 58, 0
4, 10056, Note_on_c, 1, 58, 75
4, 10080, Note_on_c, 1, 58, 0
4, 10080, Note_on_c, 1, 63, 75
4, 10109, Note_on_c, 1, 63, 0
4, 10152, Note_on_c, 1, 62, 75
4, 10176, Note_on_c, 1, 62, 0
4, 10176, Note_on_c, 1, 67, 75
4, 10205, Note_on_c, 1, 67, 0
4, 10248, Note_on_c, 1, 65, 75
4, 10272, Note_on_c, 1, 65, 0
4, 10272, Note_on_c, 1, 63, 75
4, 10301, Note_on_c, 1, 63, 0
4, 10344, Note_on_c, 1, 62, 75
4, 10368, Note_on_c, 1, 62, 0
4, 10368, Note_on_c, 1, 60, 75
4, 10397, Note_on_c, 1, 60, 0
4, 10440, Note_on_c, 1, 58, 75
4, 10464, Note_on_c, 1, 58, 0
4, 10464, Note_on_c, 1, 57, 75
4, 10493, Note_on_c, 1, 57, 0
4, 10536, Note_on_c, 1, 53, 75
4, 10560, Note_on_c, 1, 53, 0
4, 10560, Note_on_c, 1, 58, 75
4, 10589, Note_on_c, 1, 58, 0
4, 10632, Note_on_c, 1, 50, 75
4, 10656, Note_on_c, 1, 50, 0
4, 10656, Note_on_c, 1, 51, 75
4, 10695, Note_on_c, 1, 51, 0
4, 10848, Note_on_c, 1, 53, 75
4, 10887, Note_on_c, 1, 53, 0
4, 11016, Note_on_c, 1, 46, 75
4, 11039, Note_on_c, 1, 46, 0
4, 11040, Note_on_c, 1, 58, 75
4, 11079, Note_on_c, 1, 58, 0
4, 11328, Note_on_c, 1, 65, 75
4, 11328, Note_on_c, 1, 62, 75
4, 11328, Note_on_c, 1, 55, 75
4, 11417, Note_on_c, 1, 65, 0
4, 11417, Note_on_c, 1, 62, 0
4, 11417, Note_on_c, 1, 55, 0
4, 11592, Note_on_c, 1, 59, 75
4, 11616, Note_on_c, 1, 59, 0
4, 11616, Note_on_c, 1, 60, 75
4, 11655, Note_on_c, 1, 60, 0
4, 11904, Note_on_c, 1, 67, 75
4, 11904, Note_on_c, 1, 64, 75
4, 11904, Note_on_c, 1, 57, 75
4, 11993, Note_on_c, 1, 67, 0
4, 11993, Note_on_c, 1, 64, 0
4, 11993, Note_on_c, 1, 57, 0
4, 12168, Note_on_c, 1, 61, 75
4, 12192, Note_on_c, 1, 61, 0
4, 12192, Note_on_c, 1, 62, 75
4, 12231, Note_on_c, 1, 62, 0
4, 12288, Note_on_c, 1, 70, 75
4, 12288, Note_on_c, 1, 67, 75
4, 12384, Note_on_c, 1, 70, 0
4, 12384, Note_on_c, 1, 67, 0
4, 12384, Note_on_c, 1, 69, 75
4, 12384, Note_on_c, 1, 62, 75
4, 12561, Note_on_c, 1, 69, 0
4, 12561, Note_on_c, 1, 62, 0
4, 12576, Note_on_c, 1, 70, 75
4, 12576, Note_on_c, 1, 67, 75
4, 12665, Note_on_c, 1, 70, 0
4, 12665, Note_on_c, 1, 67, 0
4, 12672, Note_on_c, 1, 67, 75
4, 12768, Note_on_c, 1, 67, 0
4, 12768, Note_on_c, 1, 66, 75
4, 12857, Note_on_c, 1, 66, 0
4, 12864, Note_on_c, 1, 67, 75
4, 13049, Note_on_c, 1, 67, 0
4, 13056, Note_on_c, 1, 69, 75
4, 13145, Note_on_c, 1, 69, 0
4, 13344, Note_on_c, 1, 72, 75
4, 13344, Note_on_c, 1, 69, 75
4, 13433, Note_on_c, 1, 72, 0
4, 13433, Note_on_c, 1, 69, 0
4, 13512, Note_on_c, 1, 67, 75
4, 13512, Note_on_c, 1, 58, 75
4, 13535, Note_on_c, 1, 67, 0
4, 13535, Note_on_c, 1, 58, 0
4, 13536, Note_on_c, 1, 67, 75
4, 13713, Note_on_c, 1, 67, 0
4, 13728, Note_on_c, 1, 66, 75
4, 13817, Note_on_c, 1, 66, 0
4, 13824, Note_on_c, 1, 55, 75
4, 13863, Note_on_c, 1, 55, 0
4, 13920, Note_on_c, 1, 43, 75
4, 13940, Note_on_c, 1, 43, 0
4, 14208, Note_on_c, 1, 57, 75
4, 14297, Note_on_c, 1, 57, 0
4, 14304, Note_on_c, 1, 54, 75
4, 14393, Note_on_c, 1, 54, 0
4, 14400, Note_on_c, 1, 55, 75
4, 14489, Note_on_c, 1, 55, 0
4, 14496, Note_on_c, 1, 43, 75
4, 14585, Note_on_c, 1, 43, 0
4, 15072, Note_on_c, 1, 57, 75
4, 15072, Note_on_c, 1, 54, 75
4, 15161, Note_on_c, 1, 57, 0
4, 15161, Note_on_c, 1, 54, 0
4, 15168, Note_on_c, 1, 55, 75
4, 15353, Note_on_c, 1, 55, 0
4, 15360, Note_on_c, 1, 54, 75
4, 15449, Note_on_c, 1, 54, 0
4, 15648, Note_on_c, 1, 57, 75
4, 15737, Note_on_c, 1, 57, 0
4, 15744, Note_on_c, 1, 54, 75
4, 15833, Note_on_c, 1, 54, 0
4, 15840, Note_on_c, 1, 55, 75
4, 15929, Note_on_c, 1, 55, 0
4, 15936, Note_on_c, 1, 43, 75
4, 16025, Note_on_c, 1, 43, 0
4, 16368, Note_on_c, 1, 55, 75
4, 16368, Note_on_c, 1, 47, 75
4, 16413, Note_on_c, 1, 55, 0
4, 16413, Note_on_c, 1, 47, 0
4, 16416, Note_on_c, 1, 55, 75
4, 16593, Note_on_c, 1, 55, 0
4, 16608, Note_on_c, 1, 54, 75
4, 16697, Note_on_c, 1, 54, 0
4, 16704, Note_on_c, 1, 43, 75
4, 16793, Note_on_c, 1, 43, 0
4, 16800, Note_on_c, 1, 31, 75
4, 16889, Note_on_c, 1, 31, 0
4, 17088, Note_on_c, 1, 75, 70
4, 17088, Note_on_c, 1, 66, 70
4, 17177, Note_on_c, 1, 75, 0
4, 17177, Note_on_c, 1, 66, 0
4, 17184, Note_on_c, 1, 76, 70
4, 17184, Note_on_c, 1, 64, 70
4, 17273, Note_on_c, 1, 76, 0
4, 17273, Note_on_c, 1, 64, 0
4, 17280, Note_on_c, 1, 72, 70
4, 17280, Note_on_c, 1, 69, 70
4, 17369, Note_on_c, 1, 72, 0
4, 17369, Note_on_c, 1, 69, 0
4, 17376, Note_on_c, 1, 71, 70
4, 17376, Note_on_c, 1, 67, 70
4, 17465, Note_on_c, 1, 71, 0
4, 17465, Note_on_c, 1, 67, 0
4, 17664, Note_on_c, 1, 73, 70
4, 17664, Note_on_c, 1, 64, 70
4, 17753, Note_on_c, 1, 73, 0
4, 17753, Note_on_c, 1, 64, 0
4, 17760, Note_on_c, 1, 74, 70
4, 17760, Note_on_c, 1, 62, 70
4, 17849, Note_on_c, 1, 74, 0
4, 17849, Note_on_c, 1, 62, 0
4, 17856, Note_on_c, 1, 71, 70
4, 17856, Note_on_c, 1, 67, 70
4, 17945, Note_on_c, 1, 71, 0
4, 17945, Note_on_c, 1, 67, 0
4, 17952, Note_on_c, 1, 69, 70
4, 17952, Note_on_c, 1, 66, 70
4, 18041, Note_on_c, 1, 69, 0
4, 18041, Note_on_c, 1, 66, 0
4, 18240, Note_on_c, 1, 69, 70
4, 18240, Note_on_c, 1, 61, 70
4, 18329, Note_on_c, 1, 69, 0
4, 18329, Note_on_c, 1, 61, 0
4, 18336, Note_on_c, 1, 69, 70
4, 18336, Note_on_c, 1, 62, 70
4, 18425, Note_on_c, 1, 69, 0
4, 18425, Note_on_c, 1, 62, 0
4, 18432, Note_on_c, 1, 69, 70
4, 18521, Note_on_c, 1, 69, 0
4, 18528, Note_on_c, 1, 57, 70
4, 18617, Note_on_c, 1, 57, 0
4, 18624, Note_on_c, 1, 67, 70
4, 18669, Note_on_c, 1, 67, 0
4, 18672, Note_on_c, 1, 64, 70
4, 18717, Note_on_c, 1, 64, 0
4, 18720, Note_on_c, 1, 62, 70
4, 19385, Note_on_c, 1, 62, 0
4, 19392, Note_on_c, 1, 63, 75
4, 19481, Note_on_c, 1, 63, 0
4, 19488, Note_on_c, 1, 64, 74
4, 19577, Note_on_c, 1, 64, 0
4, 19584, Note_on_c, 1, 67, 73
4, 19673, Note_on_c, 1, 67, 0
4, 19680, Note_on_c, 1, 66, 72
4, 19769, Note_on_c, 1, 66, 0
4, 19776, Note_on_c, 1, 64, 71
4, 19865, Note_on_c, 1, 64, 0
4, 19920, Note_on_c, 1, 62, 70
4, 20581, Note_on_c, 1, 62, 0
4, 20592, Note_on_c, 1, 63, 75
4, 20681, Note_on_c, 1, 63, 0
4, 20688, Note_on_c, 1, 64, 73
4, 20733, Note_on_c, 1, 64, 0
4, 20736, Note_on_c, 1, 67, 73
4, 20825, Note_on_c, 1, 67, 0
4, 20832, Note_on_c, 1, 66, 72
4, 20921, Note_on_c, 1, 66, 0
4, 20928, Note_on_c, 1, 64, 71
4, 21017, Note_on_c, 1, 64, 0
4, 21024, Note_on_c, 1, 62, 70
4, 21113, Note_on_c, 1, 62, 0
4, 21312, Note_on_c, 1, 62, 81
4, 21335, Note_on_c, 1, 62, 0
4, 21336, Note_on_c, 1, 66, 81
4, 21359, Note_on_c, 1, 66, 0
4, 21360, Note_on_c, 1, 69, 81
4, 21383, Note_on_c, 1, 69, 0
4, 21384, Note_on_c, 1, 67, 81
4, 21407, Note_on_c, 1, 67, 0
4, 21408, Note_on_c, 1, 66, 81
4, 21431, Note_on_c, 1, 66, 0
4, 21432, Note_on_c, 1, 64, 81
4, 21455, Note_on_c, 1, 64, 0
4, 21456, Note_on_c, 1, 62, 81
4, 21479, Note_on_c, 1, 62, 0
4, 21480, Note_on_c, 1, 61, 81
4, 21503, Note_on_c, 1, 61, 0
4, 21504, Note_on_c, 1, 59, 81
4, 21527, Note_on_c, 1, 59, 0
4, 21528, Note_on_c, 1, 57, 81
4, 21551, Note_on_c, 1, 57, 0
4, 21552, Note_on_c, 1, 55, 81
4, 21575, Note_on_c, 1, 55, 0
4, 21576, Note_on_c, 1, 54, 81
4, 21599, Note_on_c, 1, 54, 0
4, 21600, Note_on_c, 1, 55, 81
4, 21689, Note_on_c, 1, 55, 0
4, 21696, Note_on_c, 1, 54, 79
4, 21792, Note_on_c, 1, 54, 0
4, 21792, Note_on_c, 1, 52, 77
4, 21881, Note_on_c, 1, 52, 0
4, 21912, Note_on_c, 1, 50, 75
4, 21935, Note_on_c, 1, 50, 0
4, 21936, Note_on_c, 1, 45, 75
4, 21959, Note_on_c, 1, 45, 0
4, 21960, Note_on_c, 1, 42, 75
4, 21983, Note_on_c, 1, 42, 0
4, 21984, Note_on_c, 1, 38, 75
4, 22073, Note_on_c, 1, 38, 0
4, 22200, Note_on_c, 1, 41, 75
4, 22223, Note_on_c, 1, 41, 0
4, 22224, Note_on_c, 1, 45, 75
4, 22247, Note_on_c, 1, 45, 0
4, 22248, Note_on_c, 1, 50, 75
4, 22271, Note_on_c, 1, 50, 0
4, 22272, Note_on_c, 1, 53, 75
4, 22361, Note_on_c, 1, 53, 0
4, 22488, Note_on_c, 1, 43, 75
4, 22511, Note_on_c, 1, 43, 0
4, 22512, Note_on_c, 1, 46, 75
4, 22535, Note_on_c, 1, 46, 0
4, 22536, Note_on_c, 1, 51, 75
4, 22559, Note_on_c, 1, 51, 0
4, 22560, Note_on_c, 1, 55, 75
4, 22649, Note_on_c, 1, 55, 0
4, 22776, Note_on_c, 1, 45, 75
4, 22799, Note_on_c, 1, 45, 0
4, 22800, Note_on_c, 1, 48, 75
4, 22823, Note_on_c, 1, 48, 0
4, 22824, Note_on_c, 1, 54, 75
4, 22847, Note_on_c, 1, 54, 0
4, 22848, Note_on_c, 1, 57, 75
4, 22937, Note_on_c, 1, 57, 0
4, 23064, Note_on_c, 1, 46, 75
4, 23087, Note_on_c, 1, 46, 0
4, 23088, Note_on_c, 1, 50, 75
4, 23111, Note_on_c, 1, 50, 0
4, 23112, Note_on_c, 1, 55, 75
4, 23135, Note_on_c, 1, 55, 0
4, 23136, Note_on_c, 1, 58, 75
4, 23225, Note_on_c, 1, 58, 0
4, 23232, Note_on_c, 1, 70, 75
4, 23232, Note_on_c, 1, 67, 75
4, 23321, Note_on_c, 1, 70, 0
4, 23321, Note_on_c, 1, 67, 0
4, 23328, Note_on_c, 1, 69, 75
4, 23328, Note_on_c, 1, 62, 75
4, 23505, Note_on_c, 1, 69, 0
4, 23505, Note_on_c, 1, 62, 0
4, 23520, Note_on_c, 1, 70, 75
4, 23520, Note_on_c, 1, 67, 75
4, 23609, Note_on_c, 1, 70, 0
4, 23609, Note_on_c, 1, 67, 0
4, 23616, Note_on_c, 1, 67, 75
4, 23712, Note_on_c, 1, 67, 0
4, 23712, Note_on_c, 1, 66, 75
4, 23801, Note_on_c, 1, 66, 0
4, 23808, Note_on_c, 1, 67, 75
4, 23993, Note_on_c, 1, 67, 0
4, 24000, Note_on_c, 1, 69, 75
4, 24089, Note_on_c, 1, 69, 0
4, 24288, Note_on_c, 1, 62, 75
4, 24465, Note_on_c, 1, 62, 0
4, 24576, Note_on_c, 1, 54, 75
4, 24665, Note_on_c, 1, 54, 0
4, 24672, Note_on_c, 1, 55, 75
4, 24761, Note_on_c, 1, 55, 0
4, 24768, Note_on_c, 1, 50, 75
4, 24857, Note_on_c, 1, 50, 0
4, 24864, Note_on_c, 1, 62, 75
4, 24909, Note_on_c, 1, 62, 0
4, 25152, Note_on_c, 1, 72, 64
4, 25152, Note_on_c, 1, 69, 64
4, 25152, Note_on_c, 1, 62, 64
4, 25246, Note_on_c, 1, 72, 0
4, 25246, Note_on_c, 1, 69, 0
4, 25246, Note_on_c, 1, 62, 0
4, 25440, Note_on_c, 1, 66, 64
4, 25440, Note_on_c, 1, 62, 64
4, 25529, Note_on_c, 1, 66, 0
4, 25529, Note_on_c, 1, 62, 0
4, 25536, Note_on_c, 1, 67, 75
4, 25536, Note_on_c, 1, 58, 75
4, 25632, Note_on_c, 1, 58, 0
4, 25721, Note_on_c, 1, 67, 0
4, 25728, Note_on_c, 1, 68, 75
4, 25817, Note_on_c, 1, 68, 0
4, 25824, Note_on_c, 1, 72, 75
4, 26009, Note_on_c, 1, 72, 0
4, 26016, Note_on_c, 1, 69, 75
4, 26105, Note_on_c, 1, 69, 0
4, 26112, Note_on_c, 1, 67, 75
4, 26385, Note_on_c, 1, 67, 0
4, 26400, Note_on_c, 1, 66, 75
4, 26489, Note_on_c, 1, 66, 0
4, 26520, Note_on_c, 1, 43, 75
4, 26543, Note_on_c, 1, 43, 0
4, 26544, Note_on_c, 1, 46, 75
4, 26567, Note_on_c, 1, 46, 0
4, 26568, Note_on_c, 1, 50, 75
4, 26591, Note_on_c, 1, 50, 0
4, 26592, Note_on_c, 1, 55, 75
4, 26681, Note_on_c, 1, 55, 0
4, 26808, Note_on_c, 1, 50, 75
4, 26831, Note_on_c, 1, 50, 0
4, 26832, Note_on_c, 1, 53, 75
4, 26855, Note_on_c, 1, 53, 0
4, 26856, Note_on_c, 1, 58, 75
4, 26879, Note_on_c, 1, 58, 0
4, 26880, Note_on_c, 1, 62, 75
4, 26969, Note_on_c, 1, 62, 0
4, 27168, Note_on_c, 1, 67, 75
4, 27168, Note_on_c, 1, 63, 75
4, 27257, Note_on_c, 1, 67, 0
4, 27257, Note_on_c, 1, 63, 0
4, 27384, Note_on_c, 1, 53, 75
4, 27407, Note_on_c, 1, 53, 0
4, 27408, Note_on_c, 1, 57, 75
4, 27431, Note_on_c, 1, 57, 0
4, 27432, Note_on_c, 1, 60, 75
4, 27455, Note_on_c, 1, 60, 0
4, 27456, Note_on_c, 1, 65, 75
4, 27545, Note_on_c, 1, 65, 0
4, 27744, Note_on_c, 1, 65, 75
4, 27744, Note_on_c, 1, 58, 75
4, 27833, Note_on_c, 1, 65, 0
4, 27833, Note_on_c, 1, 58, 0
4, 27912, Note_on_c, 1, 58, 75
4, 27936, Note_on_c, 1, 58, 0
4, 27936, Note_on_c, 1, 63, 75
4, 27965, Note_on_c, 1, 63, 0
4, 28008, Note_on_c, 1, 62, 75
4, 28032, Note_on_c, 1, 62, 0
4, 28032, Note_on_c, 1, 67, 75
4, 28061, Note_on_c, 1, 67, 0
4, 28104, Note_on_c, 1, 65, 75
4, 28127, Note_on_c, 1, 65, 0
4, 28128, Note_on_c, 1, 63, 75
4, 28151, Note_on_c, 1, 63, 0
4, 28152, Note_on_c, 1, 65, 75
4, 28175, Note_on_c, 1, 65, 0
4, 28176, Note_on_c, 1, 63, 75
4, 28199, Note_on_c, 1, 63, 0
4, 28200, Note_on_c, 1, 62, 75
4, 28223, Note_on_c, 1, 62, 0
4, 28224, Note_on_c, 1, 60, 75
4, 28247, Note_on_c, 1, 60, 0
4, 28248, Note_on_c, 1, 62, 75
4, 28271, Note_on_c, 1, 62, 0
4, 28272, Note_on_c, 1, 60, 75
4, 28295, Note_on_c, 1, 60, 0
4, 28296, Note_on_c, 1, 58, 75
4, 28319, Note_on_c, 1, 58, 0
4, 28320, Note_on_c, 1, 57, 75
4, 28387, Note_on_c, 1, 57, 0
4, 28392, Note_on_c, 1, 53, 75
4, 28416, Note_on_c, 1, 53, 0
4, 28416, Note_on_c, 1, 58, 75
4, 28445, Note_on_c, 1, 58, 0
4, 28488, Note_on_c, 1, 50, 75
4, 28511, Note_on_c, 1, 50, 0
4, 28512, Note_on_c, 1, 51, 75
4, 28601, Note_on_c, 1, 51, 0
4, 28704, Note_on_c, 1, 53, 75
4, 28793, Note_on_c, 1, 53, 0
4, 28872, Note_on_c, 1, 46, 75
4, 28895, Note_on_c, 1, 46, 0
4, 28896, Note_on_c, 1, 58, 75
4, 28985, Note_on_c, 1, 58, 0
4, 29112, Note_on_c, 1, 55, 75
4, 29135, Note_on_c, 1, 55, 0
4, 29136, Note_on_c, 1, 62, 75
4, 29159, Note_on_c, 1, 62, 0
4, 29160, Note_on_c, 1, 65, 75
4, 29183, Note_on_c, 1, 65, 0
4, 29184, Note_on_c, 1, 68, 75
4, 29273, Note_on_c, 1, 68, 0
4, 29400, Note_on_c, 1, 48, 75
4, 29423, Note_on_c, 1, 48, 0
4, 29424, Note_on_c, 1, 51, 75
4, 29447, Note_on_c, 1, 51, 0
4, 29448, Note_on_c, 1, 55, 75
4, 29471, Note_on_c, 1, 55, 0
4, 29472, Note_on_c, 1, 60, 75
4, 29561, Note_on_c, 1, 60, 0
4, 29688, Note_on_c, 1, 57, 75
4, 29711, Note_on_c, 1, 57, 0
4, 29712, Note_on_c, 1, 64, 75
4, 29735, Note_on_c, 1, 64, 0
4, 29736, Note_on_c, 1, 67, 75
4, 29759, Note_on_c, 1, 67, 0
4, 29760, Note_on_c, 1, 70, 75
4, 29849, Note_on_c, 1, 70, 0
4, 29976, Note_on_c, 1, 50, 75
4, 29999, Note_on_c, 1, 50, 0
4, 30000, Note_on_c, 1, 54, 75
4, 30023, Note_on_c, 1, 54, 0
4, 30024, Note_on_c, 1, 57, 75
4, 30047, Note_on_c, 1, 57, 0
4, 30048, Note_on_c, 1, 62, 75
4, 30137, Note_on_c, 1, 62, 0
4, 30144, Note_on_c, 1, 70, 75
4, 30144, Note_on_c, 1, 67, 75
4, 30233, Note_on_c, 1, 70, 0
4, 30233, Note_on_c, 1, 67, 0
4, 30240, Note_on_c, 1, 69, 75
4, 30240, Note_on_c, 1, 62, 75
4, 30417, Note_on_c, 1, 69, 0
4, 30417, Note_on_c, 1, 62, 0
4, 30432, Note_on_c, 1, 70, 75
4, 30432, Note_on_c, 1, 67, 75
4, 30521, Note_on_c, 1, 70, 0
4, 30521, Note_on_c, 1, 67, 0
4, 30528, Note_on_c, 1, 67, 75
4, 30624, Note_on_c, 1, 67, 0
4, 30624, Note_on_c, 1, 66, 75
4, 30713, Note_on_c, 1, 66, 0
4, 30720, Note_on_c, 1, 67, 75
4, 30905, Note_on_c, 1, 67, 0
4, 30912, Note_on_c, 1, 69, 75
4, 31001, Note_on_c, 1, 69, 0
4, 31200, Note_on_c, 1, 72, 75
4, 31200, Note_on_c, 1, 69, 75
4, 31289, Note_on_c, 1, 72, 0
4, 31289, Note_on_c, 1, 69, 0
4, 31368, Note_on_c, 1, 67, 75
4, 31368, Note_on_c, 1, 58, 75
4, 31391, Note_on_c, 1, 67, 0
4, 31391, Note_on_c, 1, 58, 0
4, 31392, Note_on_c, 1, 67, 75
4, 31569, Note_on_c, 1, 67, 0
4, 31584, Note_on_c, 1, 66, 75
4, 31673, Note_on_c, 1, 66, 0
4, 31704, Note_on_c, 1, 43, 75
4, 31727, Note_on_c, 1, 43, 0
4, 31728, Note_on_c, 1, 46, 75
4, 31751, Note_on_c, 1, 46, 0
4, 31752, Note_on_c, 1, 50, 75
4, 31775, Note_on_c, 1, 50, 0
4, 31776, Note_on_c, 1, 55, 75
4, 31865, Note_on_c, 1, 55, 0
4, 31872, Note_on_c, 1, 67, 75
4, 31895, Note_on_c, 1, 67, 0
4, 31896, Note_on_c, 1, 70, 75
4, 31919, Note_on_c, 1, 70, 0
4, 31968, Note_on_c, 1, 69, 75
4, 31968, Note_on_c, 1, 62, 75
4, 32145, Note_on_c, 1, 69, 0
4, 32145, Note_on_c, 1, 62, 0
4, 32160, Note_on_c, 1, 67, 75
4, 32183, Note_on_c, 1, 67, 0
4, 32184, Note_on_c, 1, 70, 75
4, 32207, Note_on_c, 1, 70, 0
4, 32256, Note_on_c, 1, 67, 75
4, 32345, Note_on_c, 1, 67, 0
4, 32352, Note_on_c, 1, 66, 75
4, 32441, Note_on_c, 1, 66, 0
4, 32448, Note_on_c, 1, 58, 75
4, 32471, Note_on_c, 1, 58, 0
4, 32472, Note_on_c, 1, 67, 75
4, 32495, Note_on_c, 1, 67, 0
4, 32544, Note_on_c, 1, 60, 75
4, 32567, Note_on_c, 1, 60, 0
4, 32568, Note_on_c, 1, 67, 75
4, 32591, Note_on_c, 1, 67, 0
4, 32640, Note_on_c, 1, 72, 75
4, 32640, Note_on_c, 1, 69, 75
4, 32685, Note_on_c, 1, 72, 0
4, 32685, Note_on_c, 1, 69, 0
4, 32928, Note_on_c, 1, 72, 75
4, 32928, Note_on_c, 1, 66, 75
4, 33072, Note_on_c, 1, 72, 0
4, 33072, Note_on_c, 1, 66, 0
4, 33072, Note_on_c, 1, 70, 75
4, 33072, Note_on_c, 1, 67, 75
4, 33117, Note_on_c, 1, 70, 0
4, 33117, Note_on_c, 1, 67, 0
4, 33120, Note_on_c, 1, 67, 75
4, 33297, Note_on_c, 1, 67, 0
4, 33312, Note_on_c, 1, 66, 75
4, 33401, Note_on_c, 1, 66, 0
4, 33792, Note_on_c, 1, 57, 75
4, 33881, Note_on_c, 1, 57, 0
4, 33888, Note_on_c, 1, 54, 75
4, 33977, Note_on_c, 1, 54, 0
4, 33984, Note_on_c, 1, 55, 75
4, 34073, Note_on_c, 1, 55, 0
4, 34080, Note_on_c, 1, 43, 75
4, 34169, Note_on_c, 1, 43, 0
4, 34656, Note_on_c, 1, 57, 75
4, 34656, Note_on_c, 1, 54, 75
4, 34745, Note_on_c, 1, 57, 0
4, 34745, Note_on_c, 1, 54, 0
4, 34752, Note_on_c, 1, 55, 75
4, 34937, Note_on_c, 1, 55, 0
4, 34944, Note_on_c, 1, 54, 75
4, 35033, Note_on_c, 1, 54, 0
4, 35232, Note_on_c, 1, 55, 75
4, 35232, Note_on_c, 1, 52, 75
4, 35321, Note_on_c, 1, 55, 0
4, 35321, Note_on_c, 1, 52, 0
4, 35328, Note_on_c, 1, 57, 75
4, 35328, Note_on_c, 1, 54, 75
4, 35417, Note_on_c, 1, 57, 0
4, 35417, Note_on_c, 1, 54, 0
4, 35424, Note_on_c, 1, 55, 75
4, 35513, Note_on_c, 1, 55, 0
4, 35520, Note_on_c, 1, 43, 75
4, 35609, Note_on_c, 1, 43, 0
4, 35952, Note_on_c, 1, 55, 75
4, 35952, Note_on_c, 1, 47, 75
4, 35997, Note_on_c, 1, 55, 0
4, 35997, Note_on_c, 1, 47, 0
4, 36000, Note_on_c, 1, 55, 75
4, 36177, Note_on_c, 1, 55, 0
4, 36192, Note_on_c, 1, 54, 75
4, 36281, Note_on_c, 1, 54, 0
4, 36312, Note_on_c, 1, 52, 75
4, 36335, Note_on_c, 1, 52, 0
4, 36336, Note_on_c, 1, 55, 75
4, 36359, Note_on_c, 1, 55, 0
4, 36360, Note_on_c, 1, 61, 75
4, 36383, Note_on_c, 1, 61, 0
4, 36384, Note_on_c, 1, 64, 75
4, 36429, Note_on_c, 1, 64, 0
4, 36600, Note_on_c, 1, 62, 75
4, 36623, Note_on_c, 1, 62, 0
4, 36624, Note_on_c, 1, 66, 75
4, 36647, Note_on_c, 1, 66, 0
4, 36648, Note_on_c, 1, 69, 75
4, 36671, Note_on_c, 1, 69, 0
4, 36672, Note_on_c, 1, 72, 75
4, 36717, Note_on_c, 1, 72, 0
4, 36888, Note_on_c, 1, 74, 75
4, 36911, Note_on_c, 1, 74, 0
4, 36912, Note_on_c, 1, 78, 75
4, 36935, Note_on_c, 1, 78, 0
4, 36936, Note_on_c, 1, 81, 75
4, 36959, Note_on_c, 1, 81, 0
4, 37176, Note_on_c, 1, 74, 75
4, 37199, Note_on_c, 1, 74, 0
4, 37200, Note_on_c, 1, 78, 75
4, 37223, Note_on_c, 1, 78, 0
4, 37224, Note_on_c, 1, 81, 75
4, 37247, Note_on_c, 1, 81, 0
4, 37452, Note_on_c, 1, 50, 75
4, 37464, Note_on_c, 1, 50, 0
4, 37464, Note_on_c, 1, 54, 75
4, 37476, Note_on_c, 1, 54, 0
4, 37476, Note_on_c, 1, 57, 75
4, 37488, Note_on_c, 1, 57, 0
4, 37488, Note_on_c, 1, 60, 75
4, 37500, Note_on_c, 1, 60, 0
4, 37968, Note_on_c, 1, 55, 64
4, 37968, Note_on_c, 1, 43, 64
4, 38015, Note_on_c, 1, 55, 0
4, 38015, Note_on_c, 1, 43, 0
4, 38016, Note_on_c, 1, 55, 64
4, 38193, Note_on_c, 1, 55, 0
4, 38208, Note_on_c, 1, 54, 64
4, 38297, Note_on_c, 1, 54, 0
4, 38304, Note_on_c, 1, 43, 64
4, 38393, Note_on_c, 1, 43, 0
4, 38400, Note_on_c, 1, 31, 64
4, 38489, Note_on_c, 1, 31, 0
4, 38592, Note_on_c, 1, 31, 0
4, 38681, Note_on_c, 1, 31, 0
4, 38688, End_track
5, 0, Start_track
5, 0, Program_c, 1, 0
5, 0, Control_c, 1, 7, 127
5, 0, Control_c, 1, 10, 64
5, 576, Note_on_c, 1, 50, 64
5, 753, Note_on_c, 1, 50, 0
5, 768, Note_on_c, 1, 58, 64
5, 857, Note_on_c, 1, 58, 0
5, 864, Note_on_c, 1, 60, 64
5, 1041, Note_on_c, 1, 60, 0
5, 1248, Note_on_c, 1, 60, 64
5, 1337, Note_on_c, 1, 60, 0
5, 1344, Note_on_c, 1, 58, 64
5, 1433, Note_on_c, 1, 58, 0
5, 2304, Note_on_c, 1, 50, 64
5, 2481, Note_on_c, 1, 50, 0
5, 2496, Note_on_c, 1, 58, 64
5, 2585, Note_on_c, 1, 58, 0
5, 2592, Note_on_c, 1, 60, 64
5, 2769, Note_on_c, 1, 60, 0
5, 2976, Note_on_c, 1, 60, 64
5, 3065, Note_on_c, 1, 60, 0
5, 3072, Note_on_c, 1, 58, 64
5, 3161, Note_on_c, 1, 58, 0
5, 7488, Note_on_c, 1, 62, 64
5, 7665, Note_on_c, 1, 62, 0
5, 7680, Note_on_c, 1, 58, 64
5, 7769, Note_on_c, 1, 58, 0
5, 7776, Note_on_c, 1, 60, 64
5, 7953, Note_on_c, 1, 60, 0
5, 8352, Note_on_c, 1, 60, 64
5, 8441, Note_on_c, 1, 60, 0
5, 8448, Note_on_c, 1, 62, 64
5, 8625, Note_on_c, 1, 62, 0
5, 12672, Note_on_c, 1, 62, 64
5, 12849, Note_on_c, 1, 62, 0
5, 12864, Note_on_c, 1, 58, 64
5, 12953, Note_on_c, 1, 58, 0
5, 12960, Note_on_c, 1, 60, 64
5, 13137, Note_on_c, 1, 60, 0
5, 13536, Note_on_c, 1, 60, 64
5, 13625, Note_on_c, 1, 60, 0
5, 13632, Note_on_c, 1, 62, 64
5, 13809, Note_on_c, 1, 62, 0
5, 15264, Note_on_c, 1, 50, 64
5, 15441, Note_on_c, 1, 50, 0
5, 16416, Note_on_c, 1, 48, 64
5, 16505, Note_on_c, 1, 48, 0
5, 16512, Note_on_c, 1, 50, 64
5, 16689, Note_on_c, 1, 50, 0
5, 18720, Note_on_c, 1, 62, 75
5, 18809, Note_on_c, 1, 62, 0
5, 18816, Note_on_c, 1, 61, 75
5, 18905, Note_on_c, 1, 61, 0
5, 18912, Note_on_c, 1, 60, 76
5, 19001, Note_on_c, 1, 60, 0
5, 19008, Note_on_c, 1, 59, 77
5, 19097, Note_on_c, 1, 59, 0
5, 19104, Note_on_c, 1, 58, 78
5, 19193, Note_on_c, 1, 58, 0
5, 19200, Note_on_c, 1, 57, 79
5, 19289, Note_on_c, 1, 57, 0
5, 19296, Note_on_c, 1, 55, 80
5, 19385, Note_on_c, 1, 55, 0
5, 19392, Note_on_c, 1, 54, 81
5, 19481, Note_on_c, 1, 54, 0
5, 19488, Note_on_c, 1, 55, 79
5, 19673, Note_on_c, 1, 55, 0
5, 19680, Note_on_c, 1, 57, 77
5, 19857, Note_on_c, 1, 57, 0
5, 19920, Note_on_c, 1, 62, 74
5, 20009, Note_on_c, 1, 62, 0
5, 20016, Note_on_c, 1, 61, 74
5, 20105, Note_on_c, 1, 61, 0
5, 20112, Note_on_c, 1, 60, 73
5, 20205, Note_on_c, 1, 60, 0
5, 20208, Note_on_c, 1, 59, 72
5, 20297, Note_on_c, 1, 59, 0
5, 20304, Note_on_c, 1, 58, 72
5, 20393, Note_on_c, 1, 58, 0
5, 20400, Note_on_c, 1, 57, 71
5, 20493, Note_on_c, 1, 57, 0
5, 20496, Note_on_c, 1, 55, 70
5, 20585, Note_on_c, 1, 55, 0
5, 20592, Note_on_c, 1, 54, 70
5, 20681, Note_on_c, 1, 54, 0
5, 20688, Note_on_c, 1, 55, 71
5, 20825, Note_on_c, 1, 55, 0
5, 20832, Note_on_c, 1, 57, 72
5, 21009, Note_on_c, 1, 57, 0
5, 21024, Note_on_c, 1, 62, 75
5, 21113, Note_on_c, 1, 62, 0
5, 21696, Note_on_c, 1, 45, 75
5, 21873, Note_on_c, 1, 45, 0
5, 23616, Note_on_c, 1, 62, 75
5, 23793, Note_on_c, 1, 62, 0
5, 23808, Note_on_c, 1, 58, 75
5, 23897, Note_on_c, 1, 58, 0
5, 23904, Note_on_c, 1, 60, 75
5, 24081, Note_on_c, 1, 60, 0
5, 24288, Note_on_c, 1, 60, 75
5, 24377, Note_on_c, 1, 60, 0
5, 24384, Note_on_c, 1, 58, 75
5, 24473, Note_on_c, 1, 58, 0
5, 25632, Note_on_c, 1, 60, 75
5, 25897, Note_on_c, 1, 60, 0
5, 25920, Note_on_c, 1, 62, 75
5, 26097, Note_on_c, 1, 62, 0
5, 26112, Note_on_c, 1, 63, 75
5, 26201, Note_on_c, 1, 63, 0
5, 26208, Note_on_c, 1, 60, 75
5, 26297, Note_on_c, 1, 60, 0
5, 26304, Note_on_c, 1, 62, 75
5, 26481, Note_on_c, 1, 62, 0
5, 30528, Note_on_c, 1, 62, 75
5, 30705, Note_on_c, 1, 62, 0
5, 30720, Note_on_c, 1, 58, 75
5, 30809, Note_on_c, 1, 58, 0
5, 30816, Note_on_c, 1, 60, 75
5, 30993, Note_on_c, 1, 60, 0
5, 31392, Note_on_c, 1, 60, 75
5, 31481, Note_on_c, 1, 60, 0
5, 31488, Note_on_c, 1, 62, 75
5, 31665, Note_on_c, 1, 62, 0
5, 32256, Note_on_c, 1, 62, 75
5, 32433, Note_on_c, 1, 62, 0
5, 33120, Note_on_c, 1, 60, 75
5, 33209, Note_on_c, 1, 60, 0
5, 33216, Note_on_c, 1, 62, 75
5, 33393, Note_on_c, 1, 62, 0
5, 33408, Note_on_c, 1, 55, 75
5, 33497, Note_on_c, 1, 55, 0
5, 33504, Note_on_c, 1, 43, 75
5, 33593, Note_on_c, 1, 43, 0
5, 34848, Note_on_c, 1, 50, 75
5, 35025, Note_on_c, 1, 50, 0
5, 36000, Note_on_c, 1, 48, 75
5, 36089, Note_on_c, 1, 48, 0
5, 36096, Note_on_c, 1, 50, 75
5, 36273, Note_on_c, 1, 50, 0
5, 38016, Note_on_c, 1, 48, 75
5, 38105, Note_on_c, 1, 48, 0
5, 38112, Note_on_c, 1, 50, 75
5, 38289, Note_on_c, 1, 50, 0
5, 38592, End_track
6, 0, Start_track
6, 0, Title_t, "Sonata I   Haydn  "
6, 0, End_track
0, 0, End_of_file
