0, 0, Header, 1, 6, 96
1, 0, Start_track
1, 0, Copyright_t, "Copyright  1994-2002 Mozart Music Software"
1, 0, Text_t, "Sonata I\015\012"
1, 0, Text_t, "Haydn\015\012"
1, 0, Sequencer_specific, 16, 68, 87, 77, 90, 86, 82, 83, 78, 32, 55, 46, 48, 46, 55, 46, 48
1, 0, Time_signature, 2, 2, 24, 8
1, 0, Tempo, 120000
1, 0, Key_signature, 0, "major"
1, 144, Tempo, 800000
1, 4176, Tempo, 800000
1, 22848, End_track
2, 0, Start_track
2, 0, Program_c, 0, 0
2, 0, Control_c, 0, 7, 127
2, 0, Control_c, 0, 10, 64
2, 144, Note_on_c, 0, 67, 75
2, 189, Note_on_c, 0, 67, 0
2, 192, Note_on_c, 0, 72, 75
2, 204, Note_on_c, 0, 72, 0
2, 204, Note_on_c, 0, 71, 75
2, 216, Note_on_c, 0, 71, 0
2, 216, Note_on_c, 0, 72, 75
2, 228, Note_on_c, 0, 72, 0
2, 228, Note_on_c, 0, 74, 75
2, 240, Note_on_c, 0, 74, 0
2, 240, Note_on_c, 0, 76, 75
2, 285, Note_on_c, 0, 76, 0
2, 288, Note_on_c, 0, 76, 75
2, 300, Note_on_c, 0, 76, 0
2, 300, Note_on_c, 0, 74, 75
2, 312, Note_on_c, 0, 74, 0
2, 312, Note_on_c, 0, 76, 75
2, 324, Note_on_c, 0, 76, 0
2, 324, Note_on_c, 0, 77, 75
2, 336, Note_on_c, 0, 77, 0
2, 336, Note_on_c, 0, 79, 75
2, 381, Note_on_c, 0, 79, 0
2, 384, Note_on_c, 0, 79, 75
2, 384, Note_on_c, 0, 76, 75
2, 451, Note_on_c, 0, 79, 0
2, 451, Note_on_c, 0, 76, 0
2, 456, Note_on_c, 0, 77, 75
2, 456, Note_on_c, 0, 74, 75
2, 479, Note_on_c, 0, 77, 0
2, 479, Note_on_c, 0, 74, 0
2, 480, Note_on_c, 0, 76, 75
2, 480, Note_on_c, 0, 72, 75
2, 525, Note_on_c, 0, 76, 0
2, 525, Note_on_c, 0, 72, 0
2, 528, Note_on_c, 0, 67, 75
2, 551, Note_on_c, 0, 67, 0
2, 552, Note_on_c, 0, 72, 75
2, 575, Note_on_c, 0, 72, 0
2, 576, Note_on_c, 0, 71, 75
2, 584, Note_on_c, 0, 71, 0
2, 584, Note_on_c, 0, 69, 75
2, 592, Note_on_c, 0, 69, 0
2, 592, Note_on_c, 0, 71, 75
2, 600, Note_on_c, 0, 71, 0
2, 600, Note_on_c, 0, 69, 75
2, 608, Note_on_c, 0, 69, 0
2, 608, Note_on_c, 0, 67, 75
2, 616, Note_on_c, 0, 67, 0
2, 616, Note_on_c, 0, 69, 75
2, 624, Note_on_c, 0, 69, 0
2, 624, Note_on_c, 0, 67, 75
2, 647, Note_on_c, 0, 67, 0
2, 648, Note_on_c, 0, 72, 75
2, 671, Note_on_c, 0, 72, 0
2, 672, Note_on_c, 0, 67, 75
2, 717, Note_on_c, 0, 67, 0
2, 720, Note_on_c, 0, 67, 75
2, 728, Note_on_c, 0, 67, 0
2, 728, Note_on_c, 0, 65, 75
2, 736, Note_on_c, 0, 65, 0
2, 736, Note_on_c, 0, 67, 75
2, 744, Note_on_c, 0, 67, 0
2, 744, Note_on_c, 0, 65, 75
2, 752, Note_on_c, 0, 65, 0
2, 752, Note_on_c, 0, 64, 75
2, 760, Note_on_c, 0, 64, 0
2, 760, Note_on_c, 0, 65, 75
2, 768, Note_on_c, 0, 65, 0
2, 768, Note_on_c, 0, 64, 75
2, 857, Note_on_c, 0, 64, 0
2, 912, Note_on_c, 0, 67, 75
2, 957, Note_on_c, 0, 67, 0
2, 960, Note_on_c, 0, 72, 75
2, 972, Note_on_c, 0, 72, 0
2, 972, Note_on_c, 0, 71, 75
2, 984, Note_on_c, 0, 71, 0
2, 984, Note_on_c, 0, 72, 75
2, 996, Note_on_c, 0, 72, 0
2, 996, Note_on_c, 0, 74, 75
2, 1008, Note_on_c, 0, 74, 0
2, 1008, Note_on_c, 0, 76, 75
2, 1053, Note_on_c, 0, 76, 0
2, 1056, Note_on_c, 0, 76, 75
2, 1068, Note_on_c, 0, 76, 0
2, 1068, Note_on_c, 0, 74, 75
2, 1080, Note_on_c, 0, 74, 0
2, 1080, Note_on_c, 0, 76, 75
2, 1092, Note_on_c, 0, 76, 0
2, 1092, Note_on_c, 0, 77, 75
2, 1104, Note_on_c, 0, 77, 0
2, 1104, Note_on_c, 0, 79, 75
2, 1149, Note_on_c, 0, 79, 0
2, 1152, Note_on_c, 0, 79, 75
2, 1152, Note_on_c, 0, 76, 75
2, 1219, Note_on_c, 0, 79, 0
2, 1219, Note_on_c, 0, 76, 0
2, 1224, Note_on_c, 0, 77, 75
2, 1224, Note_on_c, 0, 74, 75
2, 1247, Note_on_c, 0, 77, 0
2, 1247, Note_on_c, 0, 74, 0
2, 1248, Note_on_c, 0, 76, 75
2, 1248, Note_on_c, 0, 72, 75
2, 1293, Note_on_c, 0, 76, 0
2, 1293, Note_on_c, 0, 72, 0
2, 1296, Note_on_c, 0, 84, 75
2, 1319, Note_on_c, 0, 84, 0
2, 1320, Note_on_c, 0, 79, 75
2, 1343, Note_on_c, 0, 79, 0
2, 1344, Note_on_c, 0, 79, 75
2, 1352, Note_on_c, 0, 79, 0
2, 1352, Note_on_c, 0, 77, 75
2, 1360, Note_on_c, 0, 77, 0
2, 1360, Note_on_c, 0, 79, 75
2, 1368, Note_on_c, 0, 79, 0
2, 1368, Note_on_c, 0, 77, 75
2, 1376, Note_on_c, 0, 77, 0
2, 1376, Note_on_c, 0, 76, 75
2, 1384, Note_on_c, 0, 76, 0
2, 1384, Note_on_c, 0, 77, 75
2, 1392, Note_on_c, 0, 77, 0
2, 1392, Note_on_c, 0, 76, 75
2, 1437, Note_on_c, 0, 76, 0
2, 1440, Note_on_c, 0, 76, 75
2, 1448, Note_on_c, 0, 76, 0
2, 1448, Note_on_c, 0, 74, 75
2, 1456, Note_on_c, 0, 74, 0
2, 1456, Note_on_c, 0, 76, 75
2, 1464, Note_on_c, 0, 76, 0
2, 1464, Note_on_c, 0, 74, 75
2, 1472, Note_on_c, 0, 74, 0
2, 1472, Note_on_c, 0, 72, 75
2, 1480, Note_on_c, 0, 72, 0
2, 1480, Note_on_c, 0, 74, 75
2, 1488, Note_on_c, 0, 74, 0
2, 1488, Note_on_c, 0, 72, 75
2, 1533, Note_on_c, 0, 72, 0
2, 1536, Note_on_c, 0, 71, 75
2, 1551, Note_on_c, 0, 71, 0
2, 1552, Note_on_c, 0, 72, 75
2, 1567, Note_on_c, 0, 72, 0
2, 1568, Note_on_c, 0, 74, 75
2, 1583, Note_on_c, 0, 74, 0
2, 1584, Note_on_c, 0, 67, 75
2, 1629, Note_on_c, 0, 67, 0
2, 1680, Note_on_c, 0, 74, 75
2, 1725, Note_on_c, 0, 74, 0
2, 1728, Note_on_c, 0, 79, 75
2, 1740, Note_on_c, 0, 79, 0
2, 1740, Note_on_c, 0, 78, 75
2, 1752, Note_on_c, 0, 78, 0
2, 1752, Note_on_c, 0, 79, 75
2, 1764, Note_on_c, 0, 79, 0
2, 1764, Note_on_c, 0, 81, 75
2, 1776, Note_on_c, 0, 81, 0
2, 1776, Note_on_c, 0, 83, 75
2, 1821, Note_on_c, 0, 83, 0
2, 1872, Note_on_c, 0, 83, 75
2, 1917, Note_on_c, 0, 83, 0
2, 1920, Note_on_c, 0, 84, 75
2, 1932, Note_on_c, 0, 84, 0
2, 1932, Note_on_c, 0, 83, 75
2, 1944, Note_on_c, 0, 83, 0
2, 1944, Note_on_c, 0, 81, 75
2, 1956, Note_on_c, 0, 81, 0
2, 1956, Note_on_c, 0, 83, 75
2, 1968, Note_on_c, 0, 83, 0
2, 1968, Note_on_c, 0, 81, 75
2, 2013, Note_on_c, 0, 81, 0
2, 2064, Note_on_c, 0, 74, 75
2, 2109, Note_on_c, 0, 74, 0
2, 2112, Note_on_c, 0, 78, 75
2, 2124, Note_on_c, 0, 78, 0
2, 2124, Note_on_c, 0, 76, 75
2, 2136, Note_on_c, 0, 76, 0
2, 2136, Note_on_c, 0, 78, 75
2, 2148, Note_on_c, 0, 78, 0
2, 2148, Note_on_c, 0, 79, 75
2, 2160, Note_on_c, 0, 79, 0
2, 2160, Note_on_c, 0, 81, 75
2, 2205, Note_on_c, 0, 81, 0
2, 2256, Note_on_c, 0, 72, 75
2, 2301, Note_on_c, 0, 72, 0
2, 2304, Note_on_c, 0, 71, 75
2, 2316, Note_on_c, 0, 71, 0
2, 2316, Note_on_c, 0, 69, 75
2, 2328, Note_on_c, 0, 69, 0
2, 2328, Note_on_c, 0, 71, 75
2, 2340, Note_on_c, 0, 71, 0
2, 2340, Note_on_c, 0, 72, 75
2, 2352, Note_on_c, 0, 72, 0
2, 2352, Note_on_c, 0, 74, 75
2, 2397, Note_on_c, 0, 74, 0
2, 2448, Note_on_c, 0, 74, 75
2, 2471, Note_on_c, 0, 74, 0
2, 2472, Note_on_c, 0, 79, 75
2, 2495, Note_on_c, 0, 79, 0
2, 2496, Note_on_c, 0, 78, 75
2, 2504, Note_on_c, 0, 78, 0
2, 2504, Note_on_c, 0, 76, 75
2, 2512, Note_on_c, 0, 76, 0
2, 2512, Note_on_c, 0, 78, 75
2, 2520, Note_on_c, 0, 78, 0
2, 2520, Note_on_c, 0, 76, 75
2, 2528, Note_on_c, 0, 76, 0
2, 2528, Note_on_c, 0, 74, 75
2, 2536, Note_on_c, 0, 74, 0
2, 2536, Note_on_c, 0, 76, 75
2, 2544, Note_on_c, 0, 76, 0
2, 2544, Note_on_c, 0, 74, 75
2, 2589, Note_on_c, 0, 74, 0
2, 2592, Note_on_c, 0, 76, 75
2, 2616, Note_on_c, 0, 76, 0
2, 2616, Note_on_c, 0, 79, 75
2, 2639, Note_on_c, 0, 79, 0
2, 2640, Note_on_c, 0, 78, 75
2, 2664, Note_on_c, 0, 78, 0
2, 2664, Note_on_c, 0, 81, 75
2, 2687, Note_on_c, 0, 81, 0
2, 2688, Note_on_c, 0, 79, 75
2, 2698, Note_on_c, 0, 79, 0
2, 2712, Note_on_c, 0, 81, 75
2, 2720, Note_on_c, 0, 81, 0
2, 2720, Note_on_c, 0, 79, 75
2, 2728, Note_on_c, 0, 79, 0
2, 2728, Note_on_c, 0, 78, 75
2, 2736, Note_on_c, 0, 78, 0
2, 2736, Note_on_c, 0, 79, 75
2, 2746, Note_on_c, 0, 79, 0
2, 2760, Note_on_c, 0, 83, 75
2, 2770, Note_on_c, 0, 83, 0
2, 2784, Note_on_c, 0, 79, 75
2, 2829, Note_on_c, 0, 79, 0
2, 2832, Note_on_c, 0, 71, 80
2, 2877, Note_on_c, 0, 71, 0
2, 2880, Note_on_c, 0, 74, 80
2, 2903, Note_on_c, 0, 74, 0
2, 2904, Note_on_c, 0, 72, 80
2, 2927, Note_on_c, 0, 72, 0
2, 2928, Note_on_c, 0, 71, 80
2, 2951, Note_on_c, 0, 71, 0
2, 2952, Note_on_c, 0, 69, 80
2, 2975, Note_on_c, 0, 69, 0
2, 2976, Note_on_c, 0, 74, 80
2, 2996, Note_on_c, 0, 74, 0
2, 3024, Note_on_c, 0, 74, 80
2, 3044, Note_on_c, 0, 74, 0
2, 3072, Note_on_c, 0, 67, 80
2, 3161, Note_on_c, 0, 67, 0
2, 3168, Note_on_c, 0, 74, 75
2, 3176, Note_on_c, 0, 74, 0
2, 3176, Note_on_c, 0, 72, 75
2, 3184, Note_on_c, 0, 72, 0
2, 3184, Note_on_c, 0, 74, 75
2, 3192, Note_on_c, 0, 74, 0
2, 3192, Note_on_c, 0, 72, 75
2, 3200, Note_on_c, 0, 72, 0
2, 3200, Note_on_c, 0, 74, 75
2, 3208, Note_on_c, 0, 74, 0
2, 3208, Note_on_c, 0, 72, 75
2, 3216, Note_on_c, 0, 72, 0
2, 3216, Note_on_c, 0, 74, 75
2, 3224, Note_on_c, 0, 74, 0
2, 3224, Note_on_c, 0, 72, 75
2, 3232, Note_on_c, 0, 72, 0
2, 3232, Note_on_c, 0, 74, 75
2, 3240, Note_on_c, 0, 74, 0
2, 3240, Note_on_c, 0, 72, 75
2, 3248, Note_on_c, 0, 72, 0
2, 3248, Note_on_c, 0, 71, 75
2, 3256, Note_on_c, 0, 71, 0
2, 3256, Note_on_c, 0, 72, 75
2, 3264, Note_on_c, 0, 72, 0
2, 3264, Note_on_c, 0, 71, 75
2, 3353, Note_on_c, 0, 71, 0
2, 3360, Note_on_c, 0, 74, 75
2, 3370, Note_on_c, 0, 74, 0
2, 3384, Note_on_c, 0, 78, 75
2, 3394, Note_on_c, 0, 78, 0
2, 3408, Note_on_c, 0, 81, 75
2, 3418, Note_on_c, 0, 81, 0
2, 3432, Note_on_c, 0, 84, 75
2, 3442, Note_on_c, 0, 84, 0
2, 3456, Note_on_c, 0, 83, 75
2, 3501, Note_on_c, 0, 83, 0
2, 3504, Note_on_c, 0, 79, 75
2, 3549, Note_on_c, 0, 79, 0
2, 3552, Note_on_c, 0, 74, 75
2, 3560, Note_on_c, 0, 74, 0
2, 3560, Note_on_c, 0, 72, 75
2, 3568, Note_on_c, 0, 72, 0
2, 3568, Note_on_c, 0, 74, 75
2, 3576, Note_on_c, 0, 74, 0
2, 3576, Note_on_c, 0, 72, 75
2, 3584, Note_on_c, 0, 72, 0
2, 3584, Note_on_c, 0, 74, 75
2, 3592, Note_on_c, 0, 74, 0
2, 3592, Note_on_c, 0, 72, 75
2, 3600, Note_on_c, 0, 72, 0
2, 3600, Note_on_c, 0, 74, 75
2, 3608, Note_on_c, 0, 74, 0
2, 3608, Note_on_c, 0, 72, 75
2, 3616, Note_on_c, 0, 72, 0
2, 3616, Note_on_c, 0, 74, 75
2, 3624, Note_on_c, 0, 74, 0
2, 3624, Note_on_c, 0, 72, 75
2, 3632, Note_on_c, 0, 72, 0
2, 3632, Note_on_c, 0, 71, 75
2, 3640, Note_on_c, 0, 71, 0
2, 3640, Note_on_c, 0, 72, 75
2, 3648, Note_on_c, 0, 72, 0
2, 3648, Note_on_c, 0, 71, 75
2, 3737, Note_on_c, 0, 71, 0
2, 3744, Note_on_c, 0, 81, 75
2, 3811, Note_on_c, 0, 81, 0
2, 3816, Note_on_c, 0, 72, 75
2, 3839, Note_on_c, 0, 72, 0
2, 3840, Note_on_c, 0, 71, 75
2, 3855, Note_on_c, 0, 71, 0
2, 3856, Note_on_c, 0, 69, 75
2, 3871, Note_on_c, 0, 69, 0
2, 3872, Note_on_c, 0, 67, 75
2, 3887, Note_on_c, 0, 67, 0
2, 3888, Note_on_c, 0, 76, 75
2, 3903, Note_on_c, 0, 76, 0
2, 3904, Note_on_c, 0, 74, 75
2, 3919, Note_on_c, 0, 74, 0
2, 3920, Note_on_c, 0, 72, 75
2, 3935, Note_on_c, 0, 72, 0
2, 3936, Note_on_c, 0, 71, 75
2, 3981, Note_on_c, 0, 71, 0
2, 3984, Note_on_c, 0, 71, 75
2, 3992, Note_on_c, 0, 71, 0
2, 3992, Note_on_c, 0, 69, 75
2, 4000, Note_on_c, 0, 69, 0
2, 4000, Note_on_c, 0, 71, 75
2, 4008, Note_on_c, 0, 71, 0
2, 4008, Note_on_c, 0, 69, 75
2, 4016, Note_on_c, 0, 69, 0
2, 4016, Note_on_c, 0, 67, 75
2, 4024, Note_on_c, 0, 67, 0
2, 4024, Note_on_c, 0, 69, 75
2, 4032, Note_on_c, 0, 69, 0
2, 4032, Note_on_c, 0, 67, 75
2, 4121, Note_on_c, 0, 67, 0
2, 4176, Note_on_c, 0, 67, 75
2, 4221, Note_on_c, 0, 67, 0
2, 4224, Note_on_c, 0, 72, 75
2, 4236, Note_on_c, 0, 72, 0
2, 4236, Note_on_c, 0, 71, 75
2, 4248, Note_on_c, 0, 71, 0
2, 4248, Note_on_c, 0, 72, 75
2, 4260, Note_on_c, 0, 72, 0
2, 4260, Note_on_c, 0, 74, 75
2, 4272, Note_on_c, 0, 74, 0
2, 4272, Note_on_c, 0, 76, 75
2, 4317, Note_on_c, 0, 76, 0
2, 4320, Note_on_c, 0, 76, 75
2, 4332, Note_on_c, 0, 76, 0
2, 4332, Note_on_c, 0, 74, 75
2, 4344, Note_on_c, 0, 74, 0
2, 4344, Note_on_c, 0, 76, 75
2, 4356, Note_on_c, 0, 76, 0
2, 4356, Note_on_c, 0, 77, 75
2, 4368, Note_on_c, 0, 77, 0
2, 4368, Note_on_c, 0, 79, 75
2, 4413, Note_on_c, 0, 79, 0
2, 4416, Note_on_c, 0, 79, 75
2, 4416, Note_on_c, 0, 76, 75
2, 4483, Note_on_c, 0, 79, 0
2, 4483, Note_on_c, 0, 76, 0
2, 4488, Note_on_c, 0, 77, 75
2, 4488, Note_on_c, 0, 74, 75
2, 4511, Note_on_c, 0, 77, 0
2, 4511, Note_on_c, 0, 74, 0
2, 4512, Note_on_c, 0, 76, 75
2, 4512, Note_on_c, 0, 72, 75
2, 4557, Note_on_c, 0, 76, 0
2, 4557, Note_on_c, 0, 72, 0
2, 4560, Note_on_c, 0, 67, 75
2, 4583, Note_on_c, 0, 67, 0
2, 4584, Note_on_c, 0, 72, 75
2, 4607, Note_on_c, 0, 72, 0
2, 4608, Note_on_c, 0, 71, 75
2, 4616, Note_on_c, 0, 71, 0
2, 4616, Note_on_c, 0, 69, 75
2, 4624, Note_on_c, 0, 69, 0
2, 4624, Note_on_c, 0, 71, 75
2, 4632, Note_on_c, 0, 71, 0
2, 4632, Note_on_c, 0, 69, 75
2, 4640, Note_on_c, 0, 69, 0
2, 4640, Note_on_c, 0, 67, 75
2, 4648, Note_on_c, 0, 67, 0
2, 4648, Note_on_c, 0, 69, 75
2, 4656, Note_on_c, 0, 69, 0
2, 4656, Note_on_c, 0, 67, 75
2, 4679, Note_on_c, 0, 67, 0
2, 4680, Note_on_c, 0, 72, 75
2, 4703, Note_on_c, 0, 72, 0
2, 4704, Note_on_c, 0, 67, 75
2, 4749, Note_on_c, 0, 67, 0
2, 4752, Note_on_c, 0, 67, 75
2, 4760, Note_on_c, 0, 67, 0
2, 4760, Note_on_c, 0, 65, 75
2, 4768, Note_on_c, 0, 65, 0
2, 4768, Note_on_c, 0, 67, 75
2, 4776, Note_on_c, 0, 67, 0
2, 4776, Note_on_c, 0, 65, 75
2, 4784, Note_on_c, 0, 65, 0
2, 4784, Note_on_c, 0, 64, 75
2, 4792, Note_on_c, 0, 64, 0
2, 4792, Note_on_c, 0, 65, 75
2, 4800, Note_on_c, 0, 65, 0
2, 4800, Note_on_c, 0, 64, 75
2, 4889, Note_on_c, 0, 64, 0
2, 4944, Note_on_c, 0, 67, 75
2, 4989, Note_on_c, 0, 67, 0
2, 4992, Note_on_c, 0, 72, 75
2, 5004, Note_on_c, 0, 72, 0
2, 5004, Note_on_c, 0, 71, 75
2, 5016, Note_on_c, 0, 71, 0
2, 5016, Note_on_c, 0, 72, 75
2, 5028, Note_on_c, 0, 72, 0
2, 5028, Note_on_c, 0, 74, 75
2, 5040, Note_on_c, 0, 74, 0
2, 5040, Note_on_c, 0, 76, 75
2, 5085, Note_on_c, 0, 76, 0
2, 5088, Note_on_c, 0, 76, 75
2, 5100, Note_on_c, 0, 76, 0
2, 5100, Note_on_c, 0, 74, 75
2, 5112, Note_on_c, 0, 74, 0
2, 5112, Note_on_c, 0, 76, 75
2, 5124, Note_on_c, 0, 76, 0
2, 5124, Note_on_c, 0, 77, 75
2, 5136, Note_on_c, 0, 77, 0
2, 5136, Note_on_c, 0, 79, 75
2, 5181, Note_on_c, 0, 79, 0
2, 5184, Note_on_c, 0, 79, 75
2, 5184, Note_on_c, 0, 76, 75
2, 5251, Note_on_c, 0, 79, 0
2, 5251, Note_on_c, 0, 76, 0
2, 5256, Note_on_c, 0, 77, 75
2, 5256, Note_on_c, 0, 74, 75
2, 5279, Note_on_c, 0, 77, 0
2, 5279, Note_on_c, 0, 74, 0
2, 5280, Note_on_c, 0, 76, 75
2, 5280, Note_on_c, 0, 72, 75
2, 5325, Note_on_c, 0, 76, 0
2, 5325, Note_on_c, 0, 72, 0
2, 5328, Note_on_c, 0, 84, 75
2, 5351, Note_on_c, 0, 84, 0
2, 5352, Note_on_c, 0, 79, 75
2, 5375, Note_on_c, 0, 79, 0
2, 5376, Note_on_c, 0, 79, 75
2, 5384, Note_on_c, 0, 79, 0
2, 5384, Note_on_c, 0, 77, 75
2, 5392, Note_on_c, 0, 77, 0
2, 5392, Note_on_c, 0, 79, 75
2, 5400, Note_on_c, 0, 79, 0
2, 5400, Note_on_c, 0, 77, 75
2, 5408, Note_on_c, 0, 77, 0
2, 5408, Note_on_c, 0, 76, 75
2, 5416, Note_on_c, 0, 76, 0
2, 5416, Note_on_c, 0, 77, 75
2, 5424, Note_on_c, 0, 77, 0
2, 5424, Note_on_c, 0, 76, 75
2, 5469, Note_on_c, 0, 76, 0
2, 5472, Note_on_c, 0, 76, 75
2, 5480, Note_on_c, 0, 76, 0
2, 5480, Note_on_c, 0, 74, 75
2, 5488, Note_on_c, 0, 74, 0
2, 5488, Note_on_c, 0, 76, 75
2, 5496, Note_on_c, 0, 76, 0
2, 5496, Note_on_c, 0, 74, 75
2, 5504, Note_on_c, 0, 74, 0
2, 5504, Note_on_c, 0, 72, 75
2, 5512, Note_on_c, 0, 72, 0
2, 5512, Note_on_c, 0, 74, 75
2, 5520, Note_on_c, 0, 74, 0
2, 5520, Note_on_c, 0, 72, 75
2, 5565, Note_on_c, 0, 72, 0
2, 5568, Note_on_c, 0, 71, 75
2, 5583, Note_on_c, 0, 71, 0
2, 5584, Note_on_c, 0, 72, 75
2, 5599, Note_on_c, 0, 72, 0
2, 5600, Note_on_c, 0, 74, 75
2, 5615, Note_on_c, 0, 74, 0
2, 5616, Note_on_c, 0, 67, 75
2, 5661, Note_on_c, 0, 67, 0
2, 5712, Note_on_c, 0, 74, 75
2, 5757, Note_on_c, 0, 74, 0
2, 5760, Note_on_c, 0, 79, 75
2, 5772, Note_on_c, 0, 79, 0
2, 5772, Note_on_c, 0, 78, 75
2, 5784, Note_on_c, 0, 78, 0
2, 5784, Note_on_c, 0, 79, 75
2, 5796, Note_on_c, 0, 79, 0
2, 5796, Note_on_c, 0, 81, 75
2, 5808, Note_on_c, 0, 81, 0
2, 5808, Note_on_c, 0, 83, 75
2, 5853, Note_on_c, 0, 83, 0
2, 5904, Note_on_c, 0, 83, 75
2, 5949, Note_on_c, 0, 83, 0
2, 5952, Note_on_c, 0, 84, 75
2, 5964, Note_on_c, 0, 84, 0
2, 5964, Note_on_c, 0, 83, 75
2, 5976, Note_on_c, 0, 83, 0
2, 5976, Note_on_c, 0, 81, 75
2, 5988, Note_on_c, 0, 81, 0
2, 5988, Note_on_c, 0, 83, 75
2, 6000, Note_on_c, 0, 83, 0
2, 6000, Note_on_c, 0, 81, 75
2, 6045, Note_on_c, 0, 81, 0
2, 6096, Note_on_c, 0, 74, 75
2, 6141, Note_on_c, 0, 74, 0
2, 6144, Note_on_c, 0, 78, 75
2, 6156, Note_on_c, 0, 78, 0
2, 6156, Note_on_c, 0, 76, 75
2, 6168, Note_on_c, 0, 76, 0
2, 6168, Note_on_c, 0, 78, 75
2, 6180, Note_on_c, 0, 78, 0
2, 6180, Note_on_c, 0, 79, 75
2, 6192, Note_on_c, 0, 79, 0
2, 6192, Note_on_c, 0, 81, 75
2, 6237, Note_on_c, 0, 81, 0
2, 6288, Note_on_c, 0, 72, 75
2, 6333, Note_on_c, 0, 72, 0
2, 6336, Note_on_c, 0, 71, 75
2, 6348, Note_on_c, 0, 71, 0
2, 6348, Note_on_c, 0, 69, 75
2, 6360, Note_on_c, 0, 69, 0
2, 6360, Note_on_c, 0, 71, 75
2, 6372, Note_on_c, 0, 71, 0
2, 6372, Note_on_c, 0, 72, 75
2, 6384, Note_on_c, 0, 72, 0
2, 6384, Note_on_c, 0, 74, 75
2, 6429, Note_on_c, 0, 74, 0
2, 6480, Note_on_c, 0, 74, 75
2, 6503, Note_on_c, 0, 74, 0
2, 6504, Note_on_c, 0, 79, 75
2, 6527, Note_on_c, 0, 79, 0
2, 6528, Note_on_c, 0, 78, 75
2, 6536, Note_on_c, 0, 78, 0
2, 6536, Note_on_c, 0, 76, 75
2, 6544, Note_on_c, 0, 76, 0
2, 6544, Note_on_c, 0, 78, 75
2, 6552, Note_on_c, 0, 78, 0
2, 6552, Note_on_c, 0, 76, 75
2, 6560, Note_on_c, 0, 76, 0
2, 6560, Note_on_c, 0, 74, 75
2, 6568, Note_on_c, 0, 74, 0
2, 6568, Note_on_c, 0, 76, 75
2, 6576, Note_on_c, 0, 76, 0
2, 6576, Note_on_c, 0, 74, 75
2, 6621, Note_on_c, 0, 74, 0
2, 6624, Note_on_c, 0, 76, 75
2, 6648, Note_on_c, 0, 76, 0
2, 6648, Note_on_c, 0, 79, 75
2, 6671, Note_on_c, 0, 79, 0
2, 6672, Note_on_c, 0, 78, 75
2, 6696, Note_on_c, 0, 78, 0
2, 6696, Note_on_c, 0, 81, 75
2, 6719, Note_on_c, 0, 81, 0
2, 6720, Note_on_c, 0, 79, 75
2, 6730, Note_on_c, 0, 79, 0
2, 6744, Note_on_c, 0, 81, 75
2, 6752, Note_on_c, 0, 81, 0
2, 6752, Note_on_c, 0, 79, 75
2, 6760, Note_on_c, 0, 79, 0
2, 6760, Note_on_c, 0, 78, 75
2, 6768, Note_on_c, 0, 78, 0
2, 6768, Note_on_c, 0, 79, 75
2, 6778, Note_on_c, 0, 79, 0
2, 6792, Note_on_c, 0, 83, 75
2, 6802, Note_on_c, 0, 83, 0
2, 6816, Note_on_c, 0, 79, 75
2, 6861, Note_on_c, 0, 79, 0
2, 6864, Note_on_c, 0, 71, 80
2, 6909, Note_on_c, 0, 71, 0
2, 6912, Note_on_c, 0, 74, 80
2, 6935, Note_on_c, 0, 74, 0
2, 6936, Note_on_c, 0, 72, 80
2, 6959, Note_on_c, 0, 72, 0
2, 6960, Note_on_c, 0, 71, 80
2, 6983, Note_on_c, 0, 71, 0
2, 6984, Note_on_c, 0, 69, 80
2, 7007, Note_on_c, 0, 69, 0
2, 7008, Note_on_c, 0, 74, 80
2, 7028, Note_on_c, 0, 74, 0
2, 7056, Note_on_c, 0, 74, 80
2, 7076, Note_on_c, 0, 74, 0
2, 7104, Note_on_c, 0, 67, 80
2, 7193, Note_on_c, 0, 67, 0
2, 7200, Note_on_c, 0, 74, 75
2, 7208, Note_on_c, 0, 74, 0
2, 7208, Note_on_c, 0, 72, 75
2, 7216, Note_on_c, 0, 72, 0
2, 7216, Note_on_c, 0, 74, 75
2, 7224, Note_on_c, 0, 74, 0
2, 7224, Note_on_c, 0, 72, 75
2, 7232, Note_on_c, 0, 72, 0
2, 7232, Note_on_c, 0, 74, 75
2, 7240, Note_on_c, 0, 74, 0
2, 7240, Note_on_c, 0, 72, 75
2, 7248, Note_on_c, 0, 72, 0
2, 7248, Note_on_c, 0, 74, 75
2, 7256, Note_on_c, 0, 74, 0
2, 7256, Note_on_c, 0, 72, 75
2, 7264, Note_on_c, 0, 72, 0
2, 7264, Note_on_c, 0, 74, 75
2, 7272, Note_on_c, 0, 74, 0
2, 7272, Note_on_c, 0, 72, 75
2, 7280, Note_on_c, 0, 72, 0
2, 7280, Note_on_c, 0, 71, 75
2, 7288, Note_on_c, 0, 71, 0
2, 7288, Note_on_c, 0, 72, 75
2, 7296, Note_on_c, 0, 72, 0
2, 7296, Note_on_c, 0, 71, 75
2, 7385, Note_on_c, 0, 71, 0
2, 7392, Note_on_c, 0, 74, 75
2, 7402, Note_on_c, 0, 74, 0
2, 7416, Note_on_c, 0, 78, 75
2, 7426, Note_on_c, 0, 78, 0
2, 7440, Note_on_c, 0, 81, 75
2, 7450, Note_on_c, 0, 81, 0
2, 7464, Note_on_c, 0, 84, 75
2, 7474, Note_on_c, 0, 84, 0
2, 7488, Note_on_c, 0, 83, 75
2, 7533, Note_on_c, 0, 83, 0
2, 7536, Note_on_c, 0, 79, 75
2, 7581, Note_on_c, 0, 79, 0
2, 7584, Note_on_c, 0, 74, 75
2, 7592, Note_on_c, 0, 74, 0
2, 7592, Note_on_c, 0, 72, 75
2, 7600, Note_on_c, 0, 72, 0
2, 7600, Note_on_c, 0, 74, 75
2, 7608, Note_on_c, 0, 74, 0
2, 7608, Note_on_c, 0, 72, 75
2, 7616, Note_on_c, 0, 72, 0
2, 7616, Note_on_c, 0, 74, 75
2, 7624, Note_on_c, 0, 74, 0
2, 7624, Note_on_c, 0, 72, 75
2, 7632, Note_on_c, 0, 72, 0
2, 7632, Note_on_c, 0, 74, 75
2, 7640, Note_on_c, 0, 74, 0
2, 7640, Note_on_c, 0, 72, 75
2, 7648, Note_on_c, 0, 72, 0
2, 7648, Note_on_c, 0, 74, 75
2, 7656, Note_on_c, 0, 74, 0
2, 7656, Note_on_c, 0, 72, 75
2, 7664, Note_on_c, 0, 72, 0
2, 7664, Note_on_c, 0, 71, 75
2, 7672, Note_on_c, 0, 71, 0
2, 7672, Note_on_c, 0, 72, 75
2, 7680, Note_on_c, 0, 72, 0
2, 7680, Note_on_c, 0, 71, 75
2, 7769, Note_on_c, 0, 71, 0
2, 7776, Note_on_c, 0, 81, 75
2, 7843, Note_on_c, 0, 81, 0
2, 7848, Note_on_c, 0, 72, 75
2, 7871, Note_on_c, 0, 72, 0
2, 7872, Note_on_c, 0, 71, 75
2, 7887, Note_on_c, 0, 71, 0
2, 7888, Note_on_c, 0, 69, 75
2, 7903, Note_on_c, 0, 69, 0
2, 7904, Note_on_c, 0, 67, 75
2, 7919, Note_on_c, 0, 67, 0
2, 7920, Note_on_c, 0, 76, 75
2, 7935, Note_on_c, 0, 76, 0
2, 7936, Note_on_c, 0, 74, 75
2, 7951, Note_on_c, 0, 74, 0
2, 7952, Note_on_c, 0, 72, 75
2, 7967, Note_on_c, 0, 72, 0
2, 7968, Note_on_c, 0, 71, 75
2, 8013, Note_on_c, 0, 71, 0
2, 8016, Note_on_c, 0, 71, 75
2, 8024, Note_on_c, 0, 71, 0
2, 8024, Note_on_c, 0, 69, 75
2, 8032, Note_on_c, 0, 69, 0
2, 8032, Note_on_c, 0, 71, 75
2, 8040, Note_on_c, 0, 71, 0
2, 8040, Note_on_c, 0, 69, 75
2, 8048, Note_on_c, 0, 69, 0
2, 8048, Note_on_c, 0, 67, 75
2, 8056, Note_on_c, 0, 67, 0
2, 8056, Note_on_c, 0, 69, 75
2, 8064, Note_on_c, 0, 69, 0
2, 8064, Note_on_c, 0, 67, 75
2, 8153, Note_on_c, 0, 67, 0
2, 8208, Note_on_c, 0, 62, 75
2, 8253, Note_on_c, 0, 62, 0
2, 8256, Note_on_c, 0, 67, 75
2, 8268, Note_on_c, 0, 67, 0
2, 8268, Note_on_c, 0, 66, 75
2, 8280, Note_on_c, 0, 66, 0
2, 8280, Note_on_c, 0, 67, 75
2, 8292, Note_on_c, 0, 67, 0
2, 8292, Note_on_c, 0, 69, 75
2, 8304, Note_on_c, 0, 69, 0
2, 8304, Note_on_c, 0, 71, 75
2, 8349, Note_on_c, 0, 71, 0
2, 8352, Note_on_c, 0, 71, 75
2, 8364, Note_on_c, 0, 71, 0
2, 8364, Note_on_c, 0, 69, 75
2, 8376, Note_on_c, 0, 69, 0
2, 8376, Note_on_c, 0, 71, 75
2, 8388, Note_on_c, 0, 71, 0
2, 8388, Note_on_c, 0, 72, 75
2, 8400, Note_on_c, 0, 72, 0
2, 8400, Note_on_c, 0, 74, 75
2, 8445, Note_on_c, 0, 74, 0
2, 8448, Note_on_c, 0, 74, 75
2, 8448, Note_on_c, 0, 71, 75
2, 8515, Note_on_c, 0, 74, 0
2, 8515, Note_on_c, 0, 71, 0
2, 8520, Note_on_c, 0, 72, 75
2, 8520, Note_on_c, 0, 69, 75
2, 8543, Note_on_c, 0, 72, 0
2, 8543, Note_on_c, 0, 69, 0
2, 8544, Note_on_c, 0, 71, 75
2, 8544, Note_on_c, 0, 67, 75
2, 8589, Note_on_c, 0, 71, 0
2, 8589, Note_on_c, 0, 67, 0
2, 8592, Note_on_c, 0, 62, 75
2, 8615, Note_on_c, 0, 62, 0
2, 8616, Note_on_c, 0, 67, 75
2, 8639, Note_on_c, 0, 67, 0
2, 8640, Note_on_c, 0, 66, 75
2, 8648, Note_on_c, 0, 66, 0
2, 8648, Note_on_c, 0, 64, 75
2, 8656, Note_on_c, 0, 64, 0
2, 8656, Note_on_c, 0, 66, 75
2, 8664, Note_on_c, 0, 66, 0
2, 8664, Note_on_c, 0, 64, 75
2, 8672, Note_on_c, 0, 64, 0
2, 8672, Note_on_c, 0, 62, 75
2, 8680, Note_on_c, 0, 62, 0
2, 8680, Note_on_c, 0, 64, 75
2, 8688, Note_on_c, 0, 64, 0
2, 8688, Note_on_c, 0, 62, 75
2, 8711, Note_on_c, 0, 62, 0
2, 8712, Note_on_c, 0, 67, 75
2, 8735, Note_on_c, 0, 67, 0
2, 8736, Note_on_c, 0, 62, 75
2, 8781, Note_on_c, 0, 62, 0
2, 8784, Note_on_c, 0, 62, 75
2, 8792, Note_on_c, 0, 62, 0
2, 8792, Note_on_c, 0, 60, 75
2, 8800, Note_on_c, 0, 60, 0
2, 8800, Note_on_c, 0, 62, 75
2, 8808, Note_on_c, 0, 62, 0
2, 8808, Note_on_c, 0, 60, 75
2, 8816, Note_on_c, 0, 60, 0
2, 8816, Note_on_c, 0, 59, 75
2, 8824, Note_on_c, 0, 59, 0
2, 8824, Note_on_c, 0, 60, 75
2, 8832, Note_on_c, 0, 60, 0
2, 8832, Note_on_c, 0, 59, 75
2, 8921, Note_on_c, 0, 59, 0
2, 8976, Note_on_c, 0, 64, 75
2, 9021, Note_on_c, 0, 64, 0
2, 9024, Note_on_c, 0, 69, 75
2, 9036, Note_on_c, 0, 69, 0
2, 9036, Note_on_c, 0, 68, 75
2, 9048, Note_on_c, 0, 68, 0
2, 9048, Note_on_c, 0, 69, 75
2, 9060, Note_on_c, 0, 69, 0
2, 9060, Note_on_c, 0, 71, 75
2, 9072, Note_on_c, 0, 71, 0
2, 9072, Note_on_c, 0, 72, 75
2, 9117, Note_on_c, 0, 72, 0
2, 9120, Note_on_c, 0, 72, 75
2, 9132, Note_on_c, 0, 72, 0
2, 9132, Note_on_c, 0, 71, 75
2, 9144, Note_on_c, 0, 71, 0
2, 9144, Note_on_c, 0, 72, 75
2, 9156, Note_on_c, 0, 72, 0
2, 9156, Note_on_c, 0, 74, 75
2, 9168, Note_on_c, 0, 74, 0
2, 9168, Note_on_c, 0, 76, 75
2, 9213, Note_on_c, 0, 76, 0
2, 9216, Note_on_c, 0, 76, 75
2, 9216, Note_on_c, 0, 72, 75
2, 9283, Note_on_c, 0, 76, 0
2, 9283, Note_on_c, 0, 72, 0
2, 9288, Note_on_c, 0, 74, 75
2, 9288, Note_on_c, 0, 71, 75
2, 9311, Note_on_c, 0, 74, 0
2, 9311, Note_on_c, 0, 71, 0
2, 9312, Note_on_c, 0, 72, 75
2, 9312, Note_on_c, 0, 69, 75
2, 9357, Note_on_c, 0, 72, 0
2, 9357, Note_on_c, 0, 69, 0
2, 9360, Note_on_c, 0, 76, 75
2, 9405, Note_on_c, 0, 76, 0
2, 9408, Note_on_c, 0, 77, 75
2, 9420, Note_on_c, 0, 77, 0
2, 9420, Note_on_c, 0, 76, 75
2, 9432, Note_on_c, 0, 76, 0
2, 9432, Note_on_c, 0, 77, 75
2, 9444, Note_on_c, 0, 77, 0
2, 9444, Note_on_c, 0, 79, 75
2, 9456, Note_on_c, 0, 79, 0
2, 9456, Note_on_c, 0, 81, 75
2, 9501, Note_on_c, 0, 81, 0
2, 9552, Note_on_c, 0, 77, 75
2, 9597, Note_on_c, 0, 77, 0
2, 9600, Note_on_c, 0, 76, 75
2, 9612, Note_on_c, 0, 76, 0
2, 9612, Note_on_c, 0, 74, 75
2, 9624, Note_on_c, 0, 74, 0
2, 9624, Note_on_c, 0, 72, 75
2, 9636, Note_on_c, 0, 72, 0
2, 9636, Note_on_c, 0, 74, 75
2, 9648, Note_on_c, 0, 74, 0
2, 9648, Note_on_c, 0, 72, 75
2, 9693, Note_on_c, 0, 72, 0
2, 9744, Note_on_c, 0, 72, 75
2, 9789, Note_on_c, 0, 72, 0
2, 9792, Note_on_c, 0, 71, 75
2, 9804, Note_on_c, 0, 71, 0
2, 9804, Note_on_c, 0, 69, 75
2, 9816, Note_on_c, 0, 69, 0
2, 9816, Note_on_c, 0, 71, 75
2, 9828, Note_on_c, 0, 71, 0
2, 9828, Note_on_c, 0, 72, 75
2, 9840, Note_on_c, 0, 72, 0
2, 9840, Note_on_c, 0, 74, 75
2, 9885, Note_on_c, 0, 74, 0
2, 9936, Note_on_c, 0, 71, 75
2, 9981, Note_on_c, 0, 71, 0
2, 9984, Note_on_c, 0, 74, 75
2, 9992, Note_on_c, 0, 74, 0
2, 9992, Note_on_c, 0, 72, 75
2, 10000, Note_on_c, 0, 72, 0
2, 10000, Note_on_c, 0, 74, 75
2, 10008, Note_on_c, 0, 74, 0
2, 10008, Note_on_c, 0, 72, 75
2, 10016, Note_on_c, 0, 72, 0
2, 10016, Note_on_c, 0, 71, 75
2, 10024, Note_on_c, 0, 71, 0
2, 10024, Note_on_c, 0, 72, 75
2, 10032, Note_on_c, 0, 72, 0
2, 10032, Note_on_c, 0, 71, 75
2, 10077, Note_on_c, 0, 71, 0
2, 10080, Note_on_c, 0, 76, 75
2, 10090, Note_on_c, 0, 76, 0
2, 10104, Note_on_c, 0, 71, 75
2, 10114, Note_on_c, 0, 71, 0
2, 10128, Note_on_c, 0, 68, 75
2, 10138, Note_on_c, 0, 68, 0
2, 10152, Note_on_c, 0, 64, 75
2, 10175, Note_on_c, 0, 64, 0
2, 10176, Note_on_c, 0, 69, 75
2, 10188, Note_on_c, 0, 69, 0
2, 10188, Note_on_c, 0, 68, 75
2, 10200, Note_on_c, 0, 68, 0
2, 10200, Note_on_c, 0, 69, 75
2, 10212, Note_on_c, 0, 69, 0
2, 10212, Note_on_c, 0, 71, 75
2, 10224, Note_on_c, 0, 71, 0
2, 10224, Note_on_c, 0, 72, 75
2, 10269, Note_on_c, 0, 72, 0
2, 10272, Note_on_c, 0, 81, 75
2, 10282, Note_on_c, 0, 81, 0
2, 10296, Note_on_c, 0, 76, 75
2, 10306, Note_on_c, 0, 76, 0
2, 10320, Note_on_c, 0, 73, 75
2, 10330, Note_on_c, 0, 73, 0
2, 10344, Note_on_c, 0, 69, 75
2, 10367, Note_on_c, 0, 69, 0
2, 10368, Note_on_c, 0, 74, 75
2, 10380, Note_on_c, 0, 74, 0
2, 10380, Note_on_c, 0, 73, 75
2, 10392, Note_on_c, 0, 73, 0
2, 10392, Note_on_c, 0, 74, 75
2, 10404, Note_on_c, 0, 74, 0
2, 10404, Note_on_c, 0, 76, 75
2, 10416, Note_on_c, 0, 76, 0
2, 10416, Note_on_c, 0, 77, 75
2, 10461, Note_on_c, 0, 77, 0
2, 10464, Note_on_c, 0, 79, 75
2, 10474, Note_on_c, 0, 79, 0
2, 10488, Note_on_c, 0, 74, 75
2, 10498, Note_on_c, 0, 74, 0
2, 10512, Note_on_c, 0, 71, 75
2, 10522, Note_on_c, 0, 71, 0
2, 10536, Note_on_c, 0, 67, 75
2, 10559, Note_on_c, 0, 67, 0
2, 10560, Note_on_c, 0, 72, 75
2, 10572, Note_on_c, 0, 72, 0
2, 10572, Note_on_c, 0, 71, 75
2, 10584, Note_on_c, 0, 71, 0
2, 10584, Note_on_c, 0, 72, 75
2, 10596, Note_on_c, 0, 72, 0
2, 10596, Note_on_c, 0, 74, 75
2, 10608, Note_on_c, 0, 74, 0
2, 10608, Note_on_c, 0, 76, 75
2, 10653, Note_on_c, 0, 76, 0
2, 10656, Note_on_c, 0, 81, 75
2, 10664, Note_on_c, 0, 81, 0
2, 10664, Note_on_c, 0, 79, 75
2, 10672, Note_on_c, 0, 79, 0
2, 10672, Note_on_c, 0, 81, 75
2, 10680, Note_on_c, 0, 81, 0
2, 10680, Note_on_c, 0, 79, 75
2, 10688, Note_on_c, 0, 79, 0
2, 10688, Note_on_c, 0, 81, 75
2, 10696, Note_on_c, 0, 81, 0
2, 10696, Note_on_c, 0, 79, 75
2, 10704, Note_on_c, 0, 79, 0
2, 10704, Note_on_c, 0, 81, 75
2, 10712, Note_on_c, 0, 81, 0
2, 10712, Note_on_c, 0, 79, 75
2, 10720, Note_on_c, 0, 79, 0
2, 10720, Note_on_c, 0, 81, 75
2, 10728, Note_on_c, 0, 81, 0
2, 10728, Note_on_c, 0, 79, 75
2, 10736, Note_on_c, 0, 79, 0
2, 10736, Note_on_c, 0, 77, 75
2, 10744, Note_on_c, 0, 77, 0
2, 10744, Note_on_c, 0, 79, 75
2, 10752, Note_on_c, 0, 79, 0
2, 10752, Note_on_c, 0, 81, 75
2, 10841, Note_on_c, 0, 81, 0
2, 10848, Note_on_c, 0, 74, 75
2, 10856, Note_on_c, 0, 74, 0
2, 10856, Note_on_c, 0, 72, 75
2, 10864, Note_on_c, 0, 72, 0
2, 10864, Note_on_c, 0, 74, 75
2, 10872, Note_on_c, 0, 74, 0
2, 10872, Note_on_c, 0, 72, 75
2, 10880, Note_on_c, 0, 72, 0
2, 10880, Note_on_c, 0, 74, 75
2, 10888, Note_on_c, 0, 74, 0
2, 10888, Note_on_c, 0, 72, 75
2, 10896, Note_on_c, 0, 72, 0
2, 10896, Note_on_c, 0, 74, 75
2, 10904, Note_on_c, 0, 74, 0
2, 10904, Note_on_c, 0, 72, 75
2, 10912, Note_on_c, 0, 72, 0
2, 10912, Note_on_c, 0, 71, 75
2, 10928, Note_on_c, 0, 71, 0
2, 10928, Note_on_c, 0, 72, 75
2, 10944, Note_on_c, 0, 72, 0
2, 10944, Note_on_c, 0, 71, 75
2, 10959, Note_on_c, 0, 71, 0
2, 10960, Note_on_c, 0, 72, 75
2, 10975, Note_on_c, 0, 72, 0
2, 10976, Note_on_c, 0, 74, 75
2, 10991, Note_on_c, 0, 74, 0
2, 10992, Note_on_c, 0, 67, 75
2, 11037, Note_on_c, 0, 67, 0
2, 11040, Note_on_c, 0, 81, 75
2, 11048, Note_on_c, 0, 81, 0
2, 11048, Note_on_c, 0, 79, 75
2, 11056, Note_on_c, 0, 79, 0
2, 11056, Note_on_c, 0, 81, 75
2, 11064, Note_on_c, 0, 81, 0
2, 11064, Note_on_c, 0, 79, 75
2, 11072, Note_on_c, 0, 79, 0
2, 11072, Note_on_c, 0, 81, 75
2, 11080, Note_on_c, 0, 81, 0
2, 11080, Note_on_c, 0, 79, 75
2, 11088, Note_on_c, 0, 79, 0
2, 11088, Note_on_c, 0, 81, 75
2, 11096, Note_on_c, 0, 81, 0
2, 11096, Note_on_c, 0, 79, 75
2, 11104, Note_on_c, 0, 79, 0
2, 11104, Note_on_c, 0, 81, 75
2, 11112, Note_on_c, 0, 81, 0
2, 11112, Note_on_c, 0, 79, 75
2, 11120, Note_on_c, 0, 79, 0
2, 11120, Note_on_c, 0, 77, 75
2, 11128, Note_on_c, 0, 77, 0
2, 11128, Note_on_c, 0, 79, 75
2, 11136, Note_on_c, 0, 79, 0
2, 11136, Note_on_c, 0, 81, 75
2, 11203, Note_on_c, 0, 81, 0
2, 11208, Note_on_c, 0, 83, 77
2, 11231, Note_on_c, 0, 83, 0
2, 11232, Note_on_c, 0, 84, 94
2, 11280, Note_on_c, 0, 84, 0
2, 11280, Note_on_c, 0, 76, 80
2, 11325, Note_on_c, 0, 76, 0
2, 11328, Note_on_c, 0, 77, 80
2, 11336, Note_on_c, 0, 77, 0
2, 11336, Note_on_c, 0, 76, 80
2, 11344, Note_on_c, 0, 76, 0
2, 11344, Note_on_c, 0, 77, 80
2, 11352, Note_on_c, 0, 77, 0
2, 11352, Note_on_c, 0, 76, 80
2, 11360, Note_on_c, 0, 76, 0
2, 11360, Note_on_c, 0, 74, 80
2, 11368, Note_on_c, 0, 74, 0
2, 11368, Note_on_c, 0, 76, 80
2, 11376, Note_on_c, 0, 76, 0
2, 11376, Note_on_c, 0, 74, 80
2, 11421, Note_on_c, 0, 74, 0
2, 11472, Note_on_c, 0, 67, 75
2, 11517, Note_on_c, 0, 67, 0
2, 11520, Note_on_c, 0, 72, 75
2, 11532, Note_on_c, 0, 72, 0
2, 11532, Note_on_c, 0, 71, 75
2, 11544, Note_on_c, 0, 71, 0
2, 11544, Note_on_c, 0, 72, 75
2, 11556, Note_on_c, 0, 72, 0
2, 11556, Note_on_c, 0, 74, 75
2, 11568, Note_on_c, 0, 74, 0
2, 11568, Note_on_c, 0, 76, 75
2, 11613, Note_on_c, 0, 76, 0
2, 11616, Note_on_c, 0, 76, 75
2, 11628, Note_on_c, 0, 76, 0
2, 11628, Note_on_c, 0, 74, 75
2, 11640, Note_on_c, 0, 74, 0
2, 11640, Note_on_c, 0, 76, 75
2, 11652, Note_on_c, 0, 76, 0
2, 11652, Note_on_c, 0, 77, 75
2, 11664, Note_on_c, 0, 77, 0
2, 11664, Note_on_c, 0, 79, 75
2, 11709, Note_on_c, 0, 79, 0
2, 11712, Note_on_c, 0, 79, 75
2, 11712, Note_on_c, 0, 76, 75
2, 11779, Note_on_c, 0, 79, 0
2, 11779, Note_on_c, 0, 76, 0
2, 11784, Note_on_c, 0, 77, 75
2, 11784, Note_on_c, 0, 74, 75
2, 11807, Note_on_c, 0, 77, 0
2, 11807, Note_on_c, 0, 74, 0
2, 11808, Note_on_c, 0, 76, 75
2, 11808, Note_on_c, 0, 72, 75
2, 11853, Note_on_c, 0, 76, 0
2, 11853, Note_on_c, 0, 72, 0
2, 11856, Note_on_c, 0, 67, 75
2, 11879, Note_on_c, 0, 67, 0
2, 11880, Note_on_c, 0, 72, 75
2, 11903, Note_on_c, 0, 72, 0
2, 11904, Note_on_c, 0, 71, 75
2, 11912, Note_on_c, 0, 71, 0
2, 11912, Note_on_c, 0, 69, 75
2, 11920, Note_on_c, 0, 69, 0
2, 11920, Note_on_c, 0, 71, 75
2, 11928, Note_on_c, 0, 71, 0
2, 11928, Note_on_c, 0, 69, 75
2, 11936, Note_on_c, 0, 69, 0
2, 11936, Note_on_c, 0, 67, 75
2, 11944, Note_on_c, 0, 67, 0
2, 11944, Note_on_c, 0, 69, 75
2, 11952, Note_on_c, 0, 69, 0
2, 11952, Note_on_c, 0, 67, 75
2, 11975, Note_on_c, 0, 67, 0
2, 11976, Note_on_c, 0, 72, 75
2, 11999, Note_on_c, 0, 72, 0
2, 12000, Note_on_c, 0, 67, 75
2, 12045, Note_on_c, 0, 67, 0
2, 12048, Note_on_c, 0, 67, 75
2, 12056, Note_on_c, 0, 67, 0
2, 12056, Note_on_c, 0, 65, 75
2, 12064, Note_on_c, 0, 65, 0
2, 12064, Note_on_c, 0, 67, 75
2, 12072, Note_on_c, 0, 67, 0
2, 12072, Note_on_c, 0, 65, 75
2, 12080, Note_on_c, 0, 65, 0
2, 12080, Note_on_c, 0, 64, 75
2, 12088, Note_on_c, 0, 64, 0
2, 12088, Note_on_c, 0, 65, 75
2, 12096, Note_on_c, 0, 65, 0
2, 12096, Note_on_c, 0, 65, 75
2, 12141, Note_on_c, 0, 65, 0
2, 12144, Note_on_c, 0, 64, 75
2, 12189, Note_on_c, 0, 64, 0
2, 12240, Note_on_c, 0, 67, 75
2, 12285, Note_on_c, 0, 67, 0
2, 12288, Note_on_c, 0, 72, 75
2, 12300, Note_on_c, 0, 72, 0
2, 12300, Note_on_c, 0, 71, 75
2, 12312, Note_on_c, 0, 71, 0
2, 12312, Note_on_c, 0, 72, 75
2, 12324, Note_on_c, 0, 72, 0
2, 12324, Note_on_c, 0, 74, 75
2, 12336, Note_on_c, 0, 74, 0
2, 12336, Note_on_c, 0, 76, 75
2, 12381, Note_on_c, 0, 76, 0
2, 12384, Note_on_c, 0, 76, 75
2, 12396, Note_on_c, 0, 76, 0
2, 12396, Note_on_c, 0, 74, 75
2, 12408, Note_on_c, 0, 74, 0
2, 12408, Note_on_c, 0, 76, 75
2, 12420, Note_on_c, 0, 76, 0
2, 12420, Note_on_c, 0, 77, 75
2, 12432, Note_on_c, 0, 77, 0
2, 12432, Note_on_c, 0, 79, 75
2, 12477, Note_on_c, 0, 79, 0
2, 12480, Note_on_c, 0, 79, 75
2, 12480, Note_on_c, 0, 76, 75
2, 12552, Note_on_c, 0, 79, 0
2, 12552, Note_on_c, 0, 76, 0
2, 12552, Note_on_c, 0, 77, 75
2, 12552, Note_on_c, 0, 74, 75
2, 12575, Note_on_c, 0, 77, 0
2, 12575, Note_on_c, 0, 74, 0
2, 12576, Note_on_c, 0, 76, 75
2, 12576, Note_on_c, 0, 72, 75
2, 12621, Note_on_c, 0, 76, 0
2, 12621, Note_on_c, 0, 72, 0
2, 12624, Note_on_c, 0, 84, 75
2, 12647, Note_on_c, 0, 84, 0
2, 12648, Note_on_c, 0, 83, 75
2, 12671, Note_on_c, 0, 83, 0
2, 12672, Note_on_c, 0, 83, 75
2, 12680, Note_on_c, 0, 83, 0
2, 12680, Note_on_c, 0, 81, 75
2, 12688, Note_on_c, 0, 81, 0
2, 12688, Note_on_c, 0, 83, 75
2, 12696, Note_on_c, 0, 83, 0
2, 12696, Note_on_c, 0, 81, 75
2, 12704, Note_on_c, 0, 81, 0
2, 12704, Note_on_c, 0, 79, 75
2, 12712, Note_on_c, 0, 79, 0
2, 12712, Note_on_c, 0, 81, 75
2, 12720, Note_on_c, 0, 81, 0
2, 12720, Note_on_c, 0, 79, 75
2, 12765, Note_on_c, 0, 79, 0
2, 12768, Note_on_c, 0, 79, 75
2, 12776, Note_on_c, 0, 79, 0
2, 12776, Note_on_c, 0, 77, 75
2, 12784, Note_on_c, 0, 77, 0
2, 12784, Note_on_c, 0, 79, 75
2, 12792, Note_on_c, 0, 79, 0
2, 12792, Note_on_c, 0, 77, 75
2, 12800, Note_on_c, 0, 77, 0
2, 12800, Note_on_c, 0, 76, 75
2, 12808, Note_on_c, 0, 76, 0
2, 12808, Note_on_c, 0, 77, 75
2, 12816, Note_on_c, 0, 77, 0
2, 12816, Note_on_c, 0, 76, 75
2, 12861, Note_on_c, 0, 76, 0
2, 12864, Note_on_c, 0, 77, 75
2, 12872, Note_on_c, 0, 77, 0
2, 12872, Note_on_c, 0, 76, 75
2, 12880, Note_on_c, 0, 76, 0
2, 12880, Note_on_c, 0, 77, 75
2, 12888, Note_on_c, 0, 77, 0
2, 12888, Note_on_c, 0, 76, 75
2, 12896, Note_on_c, 0, 76, 0
2, 12896, Note_on_c, 0, 74, 75
2, 12904, Note_on_c, 0, 74, 0
2, 12904, Note_on_c, 0, 76, 75
2, 12912, Note_on_c, 0, 76, 0
2, 12912, Note_on_c, 0, 74, 75
2, 12957, Note_on_c, 0, 74, 0
2, 13008, Note_on_c, 0, 67, 75
2, 13053, Note_on_c, 0, 67, 0
2, 13056, Note_on_c, 0, 72, 75
2, 13068, Note_on_c, 0, 72, 0
2, 13068, Note_on_c, 0, 71, 75
2, 13080, Note_on_c, 0, 71, 0
2, 13080, Note_on_c, 0, 72, 75
2, 13092, Note_on_c, 0, 72, 0
2, 13092, Note_on_c, 0, 74, 75
2, 13104, Note_on_c, 0, 74, 0
2, 13104, Note_on_c, 0, 76, 75
2, 13149, Note_on_c, 0, 76, 0
2, 13200, Note_on_c, 0, 76, 75
2, 13245, Note_on_c, 0, 76, 0
2, 13248, Note_on_c, 0, 77, 75
2, 13260, Note_on_c, 0, 77, 0
2, 13260, Note_on_c, 0, 76, 75
2, 13272, Note_on_c, 0, 76, 0
2, 13272, Note_on_c, 0, 74, 75
2, 13284, Note_on_c, 0, 74, 0
2, 13284, Note_on_c, 0, 76, 75
2, 13296, Note_on_c, 0, 76, 0
2, 13296, Note_on_c, 0, 74, 75
2, 13341, Note_on_c, 0, 74, 0
2, 13392, Note_on_c, 0, 67, 75
2, 13437, Note_on_c, 0, 67, 0
2, 13440, Note_on_c, 0, 74, 75
2, 13452, Note_on_c, 0, 74, 0
2, 13452, Note_on_c, 0, 72, 75
2, 13464, Note_on_c, 0, 72, 0
2, 13464, Note_on_c, 0, 74, 75
2, 13476, Note_on_c, 0, 74, 0
2, 13476, Note_on_c, 0, 76, 75
2, 13488, Note_on_c, 0, 76, 0
2, 13488, Note_on_c, 0, 77, 75
2, 13533, Note_on_c, 0, 77, 0
2, 13584, Note_on_c, 0, 74, 75
2, 13629, Note_on_c, 0, 74, 0
2, 13632, Note_on_c, 0, 76, 75
2, 13644, Note_on_c, 0, 76, 0
2, 13644, Note_on_c, 0, 74, 75
2, 13656, Note_on_c, 0, 74, 0
2, 13656, Note_on_c, 0, 76, 75
2, 13668, Note_on_c, 0, 76, 0
2, 13668, Note_on_c, 0, 77, 75
2, 13680, Note_on_c, 0, 77, 0
2, 13680, Note_on_c, 0, 79, 75
2, 13725, Note_on_c, 0, 79, 0
2, 13776, Note_on_c, 0, 67, 75
2, 13799, Note_on_c, 0, 67, 0
2, 13800, Note_on_c, 0, 72, 75
2, 13823, Note_on_c, 0, 72, 0
2, 13824, Note_on_c, 0, 71, 75
2, 13832, Note_on_c, 0, 71, 0
2, 13832, Note_on_c, 0, 69, 75
2, 13840, Note_on_c, 0, 69, 0
2, 13840, Note_on_c, 0, 71, 75
2, 13848, Note_on_c, 0, 71, 0
2, 13848, Note_on_c, 0, 69, 75
2, 13856, Note_on_c, 0, 69, 0
2, 13856, Note_on_c, 0, 67, 75
2, 13864, Note_on_c, 0, 67, 0
2, 13864, Note_on_c, 0, 69, 75
2, 13872, Note_on_c, 0, 69, 0
2, 13872, Note_on_c, 0, 67, 75
2, 13917, Note_on_c, 0, 67, 0
2, 13920, Note_on_c, 0, 69, 75
2, 13943, Note_on_c, 0, 69, 0
2, 13944, Note_on_c, 0, 72, 75
2, 13967, Note_on_c, 0, 72, 0
2, 13968, Note_on_c, 0, 71, 75
2, 13991, Note_on_c, 0, 71, 0
2, 13992, Note_on_c, 0, 74, 75
2, 14015, Note_on_c, 0, 74, 0
2, 14016, Note_on_c, 0, 72, 75
2, 14026, Note_on_c, 0, 72, 0
2, 14040, Note_on_c, 0, 74, 75
2, 14048, Note_on_c, 0, 74, 0
2, 14048, Note_on_c, 0, 72, 75
2, 14056, Note_on_c, 0, 72, 0
2, 14056, Note_on_c, 0, 71, 75
2, 14064, Note_on_c, 0, 71, 0
2, 14064, Note_on_c, 0, 72, 75
2, 14074, Note_on_c, 0, 72, 0
2, 14088, Note_on_c, 0, 76, 75
2, 14098, Note_on_c, 0, 76, 0
2, 14112, Note_on_c, 0, 72, 75
2, 14157, Note_on_c, 0, 72, 0
2, 14160, Note_on_c, 0, 64, 80
2, 14205, Note_on_c, 0, 64, 0
2, 14208, Note_on_c, 0, 67, 80
2, 14231, Note_on_c, 0, 67, 0
2, 14232, Note_on_c, 0, 65, 80
2, 14255, Note_on_c, 0, 65, 0
2, 14256, Note_on_c, 0, 64, 80
2, 14279, Note_on_c, 0, 64, 0
2, 14280, Note_on_c, 0, 62, 80
2, 14303, Note_on_c, 0, 62, 0
2, 14304, Note_on_c, 0, 67, 80
2, 14324, Note_on_c, 0, 67, 0
2, 14352, Note_on_c, 0, 67, 80
2, 14372, Note_on_c, 0, 67, 0
2, 14400, Note_on_c, 0, 60, 80
2, 14489, Note_on_c, 0, 60, 0
2, 14496, Note_on_c, 0, 67, 80
2, 14504, Note_on_c, 0, 67, 0
2, 14504, Note_on_c, 0, 65, 80
2, 14512, Note_on_c, 0, 65, 0
2, 14512, Note_on_c, 0, 67, 80
2, 14520, Note_on_c, 0, 67, 0
2, 14520, Note_on_c, 0, 65, 80
2, 14528, Note_on_c, 0, 65, 0
2, 14528, Note_on_c, 0, 67, 80
2, 14536, Note_on_c, 0, 67, 0
2, 14536, Note_on_c, 0, 65, 80
2, 14544, Note_on_c, 0, 65, 0
2, 14544, Note_on_c, 0, 67, 80
2, 14552, Note_on_c, 0, 67, 0
2, 14552, Note_on_c, 0, 65, 80
2, 14560, Note_on_c, 0, 65, 0
2, 14560, Note_on_c, 0, 67, 80
2, 14568, Note_on_c, 0, 67, 0
2, 14568, Note_on_c, 0, 65, 80
2, 14576, Note_on_c, 0, 65, 0
2, 14576, Note_on_c, 0, 64, 80
2, 14584, Note_on_c, 0, 64, 0
2, 14584, Note_on_c, 0, 65, 80
2, 14592, Note_on_c, 0, 65, 0
2, 14592, Note_on_c, 0, 64, 80
2, 14681, Note_on_c, 0, 64, 0
2, 14688, Note_on_c, 0, 67, 80
2, 14698, Note_on_c, 0, 67, 0
2, 14712, Note_on_c, 0, 71, 80
2, 14722, Note_on_c, 0, 71, 0
2, 14736, Note_on_c, 0, 74, 80
2, 14746, Note_on_c, 0, 74, 0
2, 14760, Note_on_c, 0, 77, 80
2, 14770, Note_on_c, 0, 77, 0
2, 14784, Note_on_c, 0, 76, 80
2, 14829, Note_on_c, 0, 76, 0
2, 14832, Note_on_c, 0, 72, 80
2, 14877, Note_on_c, 0, 72, 0
2, 14880, Note_on_c, 0, 79, 80
2, 14888, Note_on_c, 0, 79, 0
2, 14888, Note_on_c, 0, 77, 80
2, 14896, Note_on_c, 0, 77, 0
2, 14896, Note_on_c, 0, 79, 80
2, 14904, Note_on_c, 0, 79, 0
2, 14904, Note_on_c, 0, 77, 80
2, 14912, Note_on_c, 0, 77, 0
2, 14912, Note_on_c, 0, 79, 80
2, 14920, Note_on_c, 0, 79, 0
2, 14920, Note_on_c, 0, 77, 80
2, 14928, Note_on_c, 0, 77, 0
2, 14928, Note_on_c, 0, 79, 80
2, 14936, Note_on_c, 0, 79, 0
2, 14936, Note_on_c, 0, 77, 80
2, 14944, Note_on_c, 0, 77, 0
2, 14944, Note_on_c, 0, 79, 80
2, 14952, Note_on_c, 0, 79, 0
2, 14952, Note_on_c, 0, 77, 80
2, 14960, Note_on_c, 0, 77, 0
2, 14960, Note_on_c, 0, 76, 80
2, 14968, Note_on_c, 0, 76, 0
2, 14968, Note_on_c, 0, 77, 80
2, 14976, Note_on_c, 0, 77, 0
2, 14976, Note_on_c, 0, 76, 80
2, 15065, Note_on_c, 0, 76, 0
2, 15072, Note_on_c, 0, 86, 80
2, 15139, Note_on_c, 0, 86, 0
2, 15144, Note_on_c, 0, 77, 80
2, 15167, Note_on_c, 0, 77, 0
2, 15168, Note_on_c, 0, 76, 80
2, 15183, Note_on_c, 0, 76, 0
2, 15184, Note_on_c, 0, 74, 80
2, 15199, Note_on_c, 0, 74, 0
2, 15200, Note_on_c, 0, 72, 80
2, 15215, Note_on_c, 0, 72, 0
2, 15216, Note_on_c, 0, 81, 80
2, 15231, Note_on_c, 0, 81, 0
2, 15232, Note_on_c, 0, 79, 80
2, 15247, Note_on_c, 0, 79, 0
2, 15248, Note_on_c, 0, 77, 80
2, 15263, Note_on_c, 0, 77, 0
2, 15264, Note_on_c, 0, 76, 80
2, 15309, Note_on_c, 0, 76, 0
2, 15312, Note_on_c, 0, 76, 80
2, 15320, Note_on_c, 0, 76, 0
2, 15320, Note_on_c, 0, 74, 80
2, 15328, Note_on_c, 0, 74, 0
2, 15328, Note_on_c, 0, 76, 80
2, 15336, Note_on_c, 0, 76, 0
2, 15336, Note_on_c, 0, 74, 80
2, 15344, Note_on_c, 0, 74, 0
2, 15344, Note_on_c, 0, 72, 80
2, 15352, Note_on_c, 0, 72, 0
2, 15352, Note_on_c, 0, 74, 80
2, 15360, Note_on_c, 0, 74, 0
2, 15360, Note_on_c, 0, 72, 80
2, 15449, Note_on_c, 0, 72, 0
2, 15504, Note_on_c, 0, 62, 75
2, 15549, Note_on_c, 0, 62, 0
2, 15552, Note_on_c, 0, 67, 75
2, 15564, Note_on_c, 0, 67, 0
2, 15564, Note_on_c, 0, 66, 75
2, 15576, Note_on_c, 0, 66, 0
2, 15576, Note_on_c, 0, 67, 75
2, 15588, Note_on_c, 0, 67, 0
2, 15588, Note_on_c, 0, 69, 75
2, 15600, Note_on_c, 0, 69, 0
2, 15600, Note_on_c, 0, 71, 75
2, 15645, Note_on_c, 0, 71, 0
2, 15648, Note_on_c, 0, 71, 75
2, 15660, Note_on_c, 0, 71, 0
2, 15660, Note_on_c, 0, 69, 75
2, 15672, Note_on_c, 0, 69, 0
2, 15672, Note_on_c, 0, 71, 75
2, 15684, Note_on_c, 0, 71, 0
2, 15684, Note_on_c, 0, 72, 75
2, 15696, Note_on_c, 0, 72, 0
2, 15696, Note_on_c, 0, 74, 75
2, 15741, Note_on_c, 0, 74, 0
2, 15744, Note_on_c, 0, 74, 75
2, 15744, Note_on_c, 0, 71, 75
2, 15811, Note_on_c, 0, 74, 0
2, 15811, Note_on_c, 0, 71, 0
2, 15816, Note_on_c, 0, 72, 75
2, 15816, Note_on_c, 0, 69, 75
2, 15839, Note_on_c, 0, 72, 0
2, 15839, Note_on_c, 0, 69, 0
2, 15840, Note_on_c, 0, 71, 75
2, 15840, Note_on_c, 0, 67, 75
2, 15885, Note_on_c, 0, 71, 0
2, 15885, Note_on_c, 0, 67, 0
2, 15888, Note_on_c, 0, 62, 75
2, 15911, Note_on_c, 0, 62, 0
2, 15912, Note_on_c, 0, 67, 75
2, 15935, Note_on_c, 0, 67, 0
2, 15936, Note_on_c, 0, 66, 75
2, 15944, Note_on_c, 0, 66, 0
2, 15944, Note_on_c, 0, 64, 75
2, 15952, Note_on_c, 0, 64, 0
2, 15952, Note_on_c, 0, 66, 75
2, 15960, Note_on_c, 0, 66, 0
2, 15960, Note_on_c, 0, 64, 75
2, 15968, Note_on_c, 0, 64, 0
2, 15968, Note_on_c, 0, 62, 75
2, 15976, Note_on_c, 0, 62, 0
2, 15976, Note_on_c, 0, 64, 75
2, 15984, Note_on_c, 0, 64, 0
2, 15984, Note_on_c, 0, 62, 75
2, 16007, Note_on_c, 0, 62, 0
2, 16008, Note_on_c, 0, 67, 75
2, 16031, Note_on_c, 0, 67, 0
2, 16032, Note_on_c, 0, 62, 75
2, 16077, Note_on_c, 0, 62, 0
2, 16080, Note_on_c, 0, 62, 75
2, 16088, Note_on_c, 0, 62, 0
2, 16088, Note_on_c, 0, 60, 75
2, 16096, Note_on_c, 0, 60, 0
2, 16096, Note_on_c, 0, 62, 75
2, 16104, Note_on_c, 0, 62, 0
2, 16104, Note_on_c, 0, 60, 75
2, 16112, Note_on_c, 0, 60, 0
2, 16112, Note_on_c, 0, 59, 75
2, 16120, Note_on_c, 0, 59, 0
2, 16120, Note_on_c, 0, 60, 75
2, 16128, Note_on_c, 0, 60, 0
2, 16128, Note_on_c, 0, 59, 75
2, 16217, Note_on_c, 0, 59, 0
2, 16272, Note_on_c, 0, 64, 75
2, 16317, Note_on_c, 0, 64, 0
2, 16320, Note_on_c, 0, 69, 75
2, 16332, Note_on_c, 0, 69, 0
2, 16332, Note_on_c, 0, 68, 75
2, 16344, Note_on_c, 0, 68, 0
2, 16344, Note_on_c, 0, 69, 75
2, 16356, Note_on_c, 0, 69, 0
2, 16356, Note_on_c, 0, 71, 75
2, 16368, Note_on_c, 0, 71, 0
2, 16368, Note_on_c, 0, 72, 75
2, 16413, Note_on_c, 0, 72, 0
2, 16416, Note_on_c, 0, 72, 75
2, 16428, Note_on_c, 0, 72, 0
2, 16428, Note_on_c, 0, 71, 75
2, 16440, Note_on_c, 0, 71, 0
2, 16440, Note_on_c, 0, 72, 75
2, 16452, Note_on_c, 0, 72, 0
2, 16452, Note_on_c, 0, 74, 75
2, 16464, Note_on_c, 0, 74, 0
2, 16464, Note_on_c, 0, 76, 75
2, 16509, Note_on_c, 0, 76, 0
2, 16512, Note_on_c, 0, 76, 75
2, 16512, Note_on_c, 0, 72, 75
2, 16579, Note_on_c, 0, 76, 0
2, 16579, Note_on_c, 0, 72, 0
2, 16584, Note_on_c, 0, 74, 75
2, 16584, Note_on_c, 0, 71, 75
2, 16607, Note_on_c, 0, 74, 0
2, 16607, Note_on_c, 0, 71, 0
2, 16608, Note_on_c, 0, 72, 75
2, 16608, Note_on_c, 0, 69, 75
2, 16653, Note_on_c, 0, 72, 0
2, 16653, Note_on_c, 0, 69, 0
2, 16656, Note_on_c, 0, 76, 75
2, 16701, Note_on_c, 0, 76, 0
2, 16704, Note_on_c, 0, 77, 75
2, 16716, Note_on_c, 0, 77, 0
2, 16716, Note_on_c, 0, 76, 75
2, 16728, Note_on_c, 0, 76, 0
2, 16728, Note_on_c, 0, 77, 75
2, 16740, Note_on_c, 0, 77, 0
2, 16740, Note_on_c, 0, 79, 75
2, 16752, Note_on_c, 0, 79, 0
2, 16752, Note_on_c, 0, 81, 75
2, 16797, Note_on_c, 0, 81, 0
2, 16848, Note_on_c, 0, 77, 75
2, 16893, Note_on_c, 0, 77, 0
2, 16896, Note_on_c, 0, 76, 75
2, 16908, Note_on_c, 0, 76, 0
2, 16908, Note_on_c, 0, 74, 75
2, 16920, Note_on_c, 0, 74, 0
2, 16920, Note_on_c, 0, 72, 75
2, 16932, Note_on_c, 0, 72, 0
2, 16932, Note_on_c, 0, 74, 75
2, 16944, Note_on_c, 0, 74, 0
2, 16944, Note_on_c, 0, 72, 75
2, 16989, Note_on_c, 0, 72, 0
2, 17040, Note_on_c, 0, 72, 75
2, 17085, Note_on_c, 0, 72, 0
2, 17088, Note_on_c, 0, 71, 75
2, 17100, Note_on_c, 0, 71, 0
2, 17100, Note_on_c, 0, 69, 75
2, 17112, Note_on_c, 0, 69, 0
2, 17112, Note_on_c, 0, 71, 75
2, 17124, Note_on_c, 0, 71, 0
2, 17124, Note_on_c, 0, 72, 75
2, 17136, Note_on_c, 0, 72, 0
2, 17136, Note_on_c, 0, 74, 75
2, 17181, Note_on_c, 0, 74, 0
2, 17232, Note_on_c, 0, 71, 75
2, 17277, Note_on_c, 0, 71, 0
2, 17280, Note_on_c, 0, 74, 75
2, 17288, Note_on_c, 0, 74, 0
2, 17288, Note_on_c, 0, 72, 75
2, 17296, Note_on_c, 0, 72, 0
2, 17296, Note_on_c, 0, 74, 75
2, 17304, Note_on_c, 0, 74, 0
2, 17304, Note_on_c, 0, 72, 75
2, 17312, Note_on_c, 0, 72, 0
2, 17312, Note_on_c, 0, 71, 75
2, 17320, Note_on_c, 0, 71, 0
2, 17320, Note_on_c, 0, 72, 75
2, 17328, Note_on_c, 0, 72, 0
2, 17328, Note_on_c, 0, 71, 75
2, 17373, Note_on_c, 0, 71, 0
2, 17376, Note_on_c, 0, 76, 75
2, 17386, Note_on_c, 0, 76, 0
2, 17400, Note_on_c, 0, 71, 75
2, 17410, Note_on_c, 0, 71, 0
2, 17424, Note_on_c, 0, 68, 75
2, 17434, Note_on_c, 0, 68, 0
2, 17448, Note_on_c, 0, 64, 75
2, 17471, Note_on_c, 0, 64, 0
2, 17472, Note_on_c, 0, 69, 75
2, 17484, Note_on_c, 0, 69, 0
2, 17484, Note_on_c, 0, 68, 75
2, 17496, Note_on_c, 0, 68, 0
2, 17496, Note_on_c, 0, 69, 75
2, 17508, Note_on_c, 0, 69, 0
2, 17508, Note_on_c, 0, 71, 75
2, 17520, Note_on_c, 0, 71, 0
2, 17520, Note_on_c, 0, 72, 75
2, 17565, Note_on_c, 0, 72, 0
2, 17568, Note_on_c, 0, 81, 75
2, 17578, Note_on_c, 0, 81, 0
2, 17592, Note_on_c, 0, 76, 75
2, 17602, Note_on_c, 0, 76, 0
2, 17616, Note_on_c, 0, 73, 75
2, 17626, Note_on_c, 0, 73, 0
2, 17640, Note_on_c, 0, 69, 75
2, 17663, Note_on_c, 0, 69, 0
2, 17664, Note_on_c, 0, 74, 75
2, 17676, Note_on_c, 0, 74, 0
2, 17676, Note_on_c, 0, 73, 75
2, 17688, Note_on_c, 0, 73, 0
2, 17688, Note_on_c, 0, 74, 75
2, 17700, Note_on_c, 0, 74, 0
2, 17700, Note_on_c, 0, 76, 75
2, 17712, Note_on_c, 0, 76, 0
2, 17712, Note_on_c, 0, 77, 75
2, 17757, Note_on_c, 0, 77, 0
2, 17760, Note_on_c, 0, 79, 75
2, 17770, Note_on_c, 0, 79, 0
2, 17784, Note_on_c, 0, 74, 75
2, 17794, Note_on_c, 0, 74, 0
2, 17808, Note_on_c, 0, 71, 75
2, 17818, Note_on_c, 0, 71, 0
2, 17832, Note_on_c, 0, 67, 75
2, 17855, Note_on_c, 0, 67, 0
2, 17856, Note_on_c, 0, 72, 75
2, 17868, Note_on_c, 0, 72, 0
2, 17868, Note_on_c, 0, 71, 75
2, 17880, Note_on_c, 0, 71, 0
2, 17880, Note_on_c, 0, 72, 75
2, 17892, Note_on_c, 0, 72, 0
2, 17892, Note_on_c, 0, 74, 75
2, 17904, Note_on_c, 0, 74, 0
2, 17904, Note_on_c, 0, 76, 75
2, 17949, Note_on_c, 0, 76, 0
2, 17952, Note_on_c, 0, 81, 75
2, 17960, Note_on_c, 0, 81, 0
2, 17960, Note_on_c, 0, 79, 75
2, 17968, Note_on_c, 0, 79, 0
2, 17968, Note_on_c, 0, 81, 75
2, 17976, Note_on_c, 0, 81, 0
2, 17976, Note_on_c, 0, 79, 75
2, 17984, Note_on_c, 0, 79, 0
2, 17984, Note_on_c, 0, 81, 75
2, 17992, Note_on_c, 0, 81, 0
2, 17992, Note_on_c, 0, 79, 75
2, 18000, Note_on_c, 0, 79, 0
2, 18000, Note_on_c, 0, 81, 75
2, 18008, Note_on_c, 0, 81, 0
2, 18008, Note_on_c, 0, 79, 75
2, 18016, Note_on_c, 0, 79, 0
2, 18016, Note_on_c, 0, 81, 75
2, 18024, Note_on_c, 0, 81, 0
2, 18024, Note_on_c, 0, 79, 75
2, 18032, Note_on_c, 0, 79, 0
2, 18032, Note_on_c, 0, 77, 75
2, 18040, Note_on_c, 0, 77, 0
2, 18040, Note_on_c, 0, 79, 75
2, 18048, Note_on_c, 0, 79, 0
2, 18048, Note_on_c, 0, 81, 75
2, 18137, Note_on_c, 0, 81, 0
2, 18144, Note_on_c, 0, 74, 75
2, 18152, Note_on_c, 0, 74, 0
2, 18152, Note_on_c, 0, 72, 75
2, 18160, Note_on_c, 0, 72, 0
2, 18160, Note_on_c, 0, 74, 75
2, 18168, Note_on_c, 0, 74, 0
2, 18168, Note_on_c, 0, 72, 75
2, 18176, Note_on_c, 0, 72, 0
2, 18176, Note_on_c, 0, 74, 75
2, 18184, Note_on_c, 0, 74, 0
2, 18184, Note_on_c, 0, 72, 75
2, 18192, Note_on_c, 0, 72, 0
2, 18192, Note_on_c, 0, 74, 75
2, 18200, Note_on_c, 0, 74, 0
2, 18200, Note_on_c, 0, 72, 75
2, 18208, Note_on_c, 0, 72, 0
2, 18208, Note_on_c, 0, 71, 75
2, 18224, Note_on_c, 0, 71, 0
2, 18224, Note_on_c, 0, 72, 75
2, 18240, Note_on_c, 0, 72, 0
2, 18240, Note_on_c, 0, 71, 75
2, 18255, Note_on_c, 0, 71, 0
2, 18256, Note_on_c, 0, 72, 75
2, 18271, Note_on_c, 0, 72, 0
2, 18272, Note_on_c, 0, 74, 75
2, 18287, Note_on_c, 0, 74, 0
2, 18288, Note_on_c, 0, 67, 75
2, 18333, Note_on_c, 0, 67, 0
2, 18336, Note_on_c, 0, 81, 75
2, 18344, Note_on_c, 0, 81, 0
2, 18344, Note_on_c, 0, 79, 75
2, 18352, Note_on_c, 0, 79, 0
2, 18352, Note_on_c, 0, 81, 75
2, 18360, Note_on_c, 0, 81, 0
2, 18360, Note_on_c, 0, 79, 75
2, 18368, Note_on_c, 0, 79, 0
2, 18368, Note_on_c, 0, 81, 75
2, 18376, Note_on_c, 0, 81, 0
2, 18376, Note_on_c, 0, 79, 75
2, 18384, Note_on_c, 0, 79, 0
2, 18384, Note_on_c, 0, 81, 75
2, 18392, Note_on_c, 0, 81, 0
2, 18392, Note_on_c, 0, 79, 75
2, 18400, Note_on_c, 0, 79, 0
2, 18400, Note_on_c, 0, 81, 75
2, 18408, Note_on_c, 0, 81, 0
2, 18408, Note_on_c, 0, 79, 75
2, 18416, Note_on_c, 0, 79, 0
2, 18416, Note_on_c, 0, 77, 75
2, 18424, Note_on_c, 0, 77, 0
2, 18424, Note_on_c, 0, 79, 75
2, 18432, Note_on_c, 0, 79, 0
2, 18432, Note_on_c, 0, 81, 75
2, 18499, Note_on_c, 0, 81, 0
2, 18504, Note_on_c, 0, 83, 77
2, 18527, Note_on_c, 0, 83, 0
2, 18528, Note_on_c, 0, 84, 94
2, 18576, Note_on_c, 0, 84, 0
2, 18576, Note_on_c, 0, 76, 80
2, 18621, Note_on_c, 0, 76, 0
2, 18624, Note_on_c, 0, 77, 80
2, 18632, Note_on_c, 0, 77, 0
2, 18632, Note_on_c, 0, 76, 80
2, 18640, Note_on_c, 0, 76, 0
2, 18640, Note_on_c, 0, 77, 80
2, 18648, Note_on_c, 0, 77, 0
2, 18648, Note_on_c, 0, 76, 80
2, 18656, Note_on_c, 0, 76, 0
2, 18656, Note_on_c, 0, 74, 80
2, 18664, Note_on_c, 0, 74, 0
2, 18664, Note_on_c, 0, 76, 80
2, 18672, Note_on_c, 0, 76, 0
2, 18672, Note_on_c, 0, 74, 80
2, 18717, Note_on_c, 0, 74, 0
2, 18768, Note_on_c, 0, 67, 75
2, 18813, Note_on_c, 0, 67, 0
2, 18816, Note_on_c, 0, 72, 75
2, 18828, Note_on_c, 0, 72, 0
2, 18828, Note_on_c, 0, 71, 75
2, 18840, Note_on_c, 0, 71, 0
2, 18840, Note_on_c, 0, 72, 75
2, 18852, Note_on_c, 0, 72, 0
2, 18852, Note_on_c, 0, 74, 75
2, 18864, Note_on_c, 0, 74, 0
2, 18864, Note_on_c, 0, 76, 75
2, 18909, Note_on_c, 0, 76, 0
2, 18912, Note_on_c, 0, 76, 75
2, 18924, Note_on_c, 0, 76, 0
2, 18924, Note_on_c, 0, 74, 75
2, 18936, Note_on_c, 0, 74, 0
2, 18936, Note_on_c, 0, 76, 75
2, 18948, Note_on_c, 0, 76, 0
2, 18948, Note_on_c, 0, 77, 75
2, 18960, Note_on_c, 0, 77, 0
2, 18960, Note_on_c, 0, 79, 75
2, 19005, Note_on_c, 0, 79, 0
2, 19008, Note_on_c, 0, 79, 75
2, 19008, Note_on_c, 0, 76, 75
2, 19075, Note_on_c, 0, 79, 0
2, 19075, Note_on_c, 0, 76, 0
2, 19080, Note_on_c, 0, 77, 75
2, 19080, Note_on_c, 0, 74, 75
2, 19103, Note_on_c, 0, 77, 0
2, 19103, Note_on_c, 0, 74, 0
2, 19104, Note_on_c, 0, 76, 75
2, 19104, Note_on_c, 0, 72, 75
2, 19149, Note_on_c, 0, 76, 0
2, 19149, Note_on_c, 0, 72, 0
2, 19152, Note_on_c, 0, 67, 75
2, 19175, Note_on_c, 0, 67, 0
2, 19176, Note_on_c, 0, 72, 75
2, 19199, Note_on_c, 0, 72, 0
2, 19200, Note_on_c, 0, 71, 75
2, 19208, Note_on_c, 0, 71, 0
2, 19208, Note_on_c, 0, 69, 75
2, 19216, Note_on_c, 0, 69, 0
2, 19216, Note_on_c, 0, 71, 75
2, 19224, Note_on_c, 0, 71, 0
2, 19224, Note_on_c, 0, 69, 75
2, 19232, Note_on_c, 0, 69, 0
2, 19232, Note_on_c, 0, 67, 75
2, 19240, Note_on_c, 0, 67, 0
2, 19240, Note_on_c, 0, 69, 75
2, 19248, Note_on_c, 0, 69, 0
2, 19248, Note_on_c, 0, 67, 75
2, 19271, Note_on_c, 0, 67, 0
2, 19272, Note_on_c, 0, 72, 75
2, 19295, Note_on_c, 0, 72, 0
2, 19296, Note_on_c, 0, 67, 75
2, 19341, Note_on_c, 0, 67, 0
2, 19344, Note_on_c, 0, 67, 75
2, 19352, Note_on_c, 0, 67, 0
2, 19352, Note_on_c, 0, 65, 75
2, 19360, Note_on_c, 0, 65, 0
2, 19360, Note_on_c, 0, 67, 75
2, 19368, Note_on_c, 0, 67, 0
2, 19368, Note_on_c, 0, 65, 75
2, 19376, Note_on_c, 0, 65, 0
2, 19376, Note_on_c, 0, 64, 75
2, 19384, Note_on_c, 0, 64, 0
2, 19384, Note_on_c, 0, 65, 75
2, 19392, Note_on_c, 0, 65, 0
2, 19392, Note_on_c, 0, 65, 75
2, 19437, Note_on_c, 0, 65, 0
2, 19440, Note_on_c, 0, 64, 75
2, 19485, Note_on_c, 0, 64, 0
2, 19536, Note_on_c, 0, 67, 75
2, 19581, Note_on_c, 0, 67, 0
2, 19584, Note_on_c, 0, 72, 75
2, 19596, Note_on_c, 0, 72, 0
2, 19596, Note_on_c, 0, 71, 75
2, 19608, Note_on_c, 0, 71, 0
2, 19608, Note_on_c, 0, 72, 75
2, 19620, Note_on_c, 0, 72, 0
2, 19620, Note_on_c, 0, 74, 75
2, 19632, Note_on_c, 0, 74, 0
2, 19632, Note_on_c, 0, 76, 75
2, 19677, Note_on_c, 0, 76, 0
2, 19680, Note_on_c, 0, 76, 75
2, 19692, Note_on_c, 0, 76, 0
2, 19692, Note_on_c, 0, 74, 75
2, 19704, Note_on_c, 0, 74, 0
2, 19704, Note_on_c, 0, 76, 75
2, 19716, Note_on_c, 0, 76, 0
2, 19716, Note_on_c, 0, 77, 75
2, 19728, Note_on_c, 0, 77, 0
2, 19728, Note_on_c, 0, 79, 75
2, 19773, Note_on_c, 0, 79, 0
2, 19776, Note_on_c, 0, 79, 75
2, 19776, Note_on_c, 0, 76, 75
2, 19848, Note_on_c, 0, 79, 0
2, 19848, Note_on_c, 0, 76, 0
2, 19848, Note_on_c, 0, 77, 75
2, 19848, Note_on_c, 0, 74, 75
2, 19871, Note_on_c, 0, 77, 0
2, 19871, Note_on_c, 0, 74, 0
2, 19872, Note_on_c, 0, 76, 75
2, 19872, Note_on_c, 0, 72, 75
2, 19917, Note_on_c, 0, 76, 0
2, 19917, Note_on_c, 0, 72, 0
2, 19920, Note_on_c, 0, 84, 75
2, 19943, Note_on_c, 0, 84, 0
2, 19944, Note_on_c, 0, 83, 75
2, 19967, Note_on_c, 0, 83, 0
2, 19968, Note_on_c, 0, 83, 75
2, 19976, Note_on_c, 0, 83, 0
2, 19976, Note_on_c, 0, 81, 75
2, 19984, Note_on_c, 0, 81, 0
2, 19984, Note_on_c, 0, 83, 75
2, 19992, Note_on_c, 0, 83, 0
2, 19992, Note_on_c, 0, 81, 75
2, 20000, Note_on_c, 0, 81, 0
2, 20000, Note_on_c, 0, 79, 75
2, 20008, Note_on_c, 0, 79, 0
2, 20008, Note_on_c, 0, 81, 75
2, 20016, Note_on_c, 0, 81, 0
2, 20016, Note_on_c, 0, 79, 75
2, 20061, Note_on_c, 0, 79, 0
2, 20064, Note_on_c, 0, 79, 75
2, 20072, Note_on_c, 0, 79, 0
2, 20072, Note_on_c, 0, 77, 75
2, 20080, Note_on_c, 0, 77, 0
2, 20080, Note_on_c, 0, 79, 75
2, 20088, Note_on_c, 0, 79, 0
2, 20088, Note_on_c, 0, 77, 75
2, 20096, Note_on_c, 0, 77, 0
2, 20096, Note_on_c, 0, 76, 75
2, 20104, Note_on_c, 0, 76, 0
2, 20104, Note_on_c, 0, 77, 75
2, 20112, Note_on_c, 0, 77, 0
2, 20112, Note_on_c, 0, 76, 75
2, 20157, Note_on_c, 0, 76, 0
2, 20160, Note_on_c, 0, 77, 75
2, 20168, Note_on_c, 0, 77, 0
2, 20168, Note_on_c, 0, 76, 75
2, 20176, Note_on_c, 0, 76, 0
2, 20176, Note_on_c, 0, 77, 75
2, 20184, Note_on_c, 0, 77, 0
2, 20184, Note_on_c, 0, 76, 75
2, 20192, Note_on_c, 0, 76, 0
2, 20192, Note_on_c, 0, 74, 75
2, 20200, Note_on_c, 0, 74, 0
2, 20200, Note_on_c, 0, 76, 75
2, 20208, Note_on_c, 0, 76, 0
2, 20208, Note_on_c, 0, 74, 75
2, 20253, Note_on_c, 0, 74, 0
2, 20304, Note_on_c, 0, 67, 75
2, 20349, Note_on_c, 0, 67, 0
2, 20352, Note_on_c, 0, 72, 75
2, 20364, Note_on_c, 0, 72, 0
2, 20364, Note_on_c, 0, 71, 75
2, 20376, Note_on_c, 0, 71, 0
2, 20376, Note_on_c, 0, 72, 75
2, 20388, Note_on_c, 0, 72, 0
2, 20388, Note_on_c, 0, 74, 75
2, 20400, Note_on_c, 0, 74, 0
2, 20400, Note_on_c, 0, 76, 75
2, 20445, Note_on_c, 0, 76, 0
2, 20496, Note_on_c, 0, 76, 75
2, 20541, Note_on_c, 0, 76, 0
2, 20544, Note_on_c, 0, 77, 75
2, 20556, Note_on_c, 0, 77, 0
2, 20556, Note_on_c, 0, 76, 75
2, 20568, Note_on_c, 0, 76, 0
2, 20568, Note_on_c, 0, 74, 75
2, 20580, Note_on_c, 0, 74, 0
2, 20580, Note_on_c, 0, 76, 75
2, 20592, Note_on_c, 0, 76, 0
2, 20592, Note_on_c, 0, 74, 75
2, 20637, Note_on_c, 0, 74, 0
2, 20688, Note_on_c, 0, 67, 75
2, 20733, Note_on_c, 0, 67, 0
2, 20736, Note_on_c, 0, 74, 75
2, 20748, Note_on_c, 0, 74, 0
2, 20748, Note_on_c, 0, 72, 75
2, 20760, Note_on_c, 0, 72, 0
2, 20760, Note_on_c, 0, 74, 75
2, 20772, Note_on_c, 0, 74, 0
2, 20772, Note_on_c, 0, 76, 75
2, 20784, Note_on_c, 0, 76, 0
2, 20784, Note_on_c, 0, 77, 75
2, 20829, Note_on_c, 0, 77, 0
2, 20880, Note_on_c, 0, 74, 75
2, 20925, Note_on_c, 0, 74, 0
2, 20928, Note_on_c, 0, 76, 75
2, 20940, Note_on_c, 0, 76, 0
2, 20940, Note_on_c, 0, 74, 75
2, 20952, Note_on_c, 0, 74, 0
2, 20952, Note_on_c, 0, 76, 75
2, 20964, Note_on_c, 0, 76, 0
2, 20964, Note_on_c, 0, 77, 75
2, 20976, Note_on_c, 0, 77, 0
2, 20976, Note_on_c, 0, 79, 75
2, 21021, Note_on_c, 0, 79, 0
2, 21072, Note_on_c, 0, 67, 75
2, 21095, Note_on_c, 0, 67, 0
2, 21096, Note_on_c, 0, 72, 75
2, 21119, Note_on_c, 0, 72, 0
2, 21120, Note_on_c, 0, 71, 75
2, 21128, Note_on_c, 0, 71, 0
2, 21128, Note_on_c, 0, 69, 75
2, 21136, Note_on_c, 0, 69, 0
2, 21136, Note_on_c, 0, 71, 75
2, 21144, Note_on_c, 0, 71, 0
2, 21144, Note_on_c, 0, 69, 75
2, 21152, Note_on_c, 0, 69, 0
2, 21152, Note_on_c, 0, 67, 75
2, 21160, Note_on_c, 0, 67, 0
2, 21160, Note_on_c, 0, 69, 75
2, 21168, Note_on_c, 0, 69, 0
2, 21168, Note_on_c, 0, 67, 75
2, 21213, Note_on_c, 0, 67, 0
2, 21216, Note_on_c, 0, 69, 75
2, 21239, Note_on_c, 0, 69, 0
2, 21240, Note_on_c, 0, 72, 75
2, 21263, Note_on_c, 0, 72, 0
2, 21264, Note_on_c, 0, 71, 75
2, 21287, Note_on_c, 0, 71, 0
2, 21288, Note_on_c, 0, 74, 75
2, 21311, Note_on_c, 0, 74, 0
2, 21312, Note_on_c, 0, 72, 75
2, 21322, Note_on_c, 0, 72, 0
2, 21336, Note_on_c, 0, 74, 75
2, 21344, Note_on_c, 0, 74, 0
2, 21344, Note_on_c, 0, 72, 75
2, 21352, Note_on_c, 0, 72, 0
2, 21352, Note_on_c, 0, 71, 75
2, 21360, Note_on_c, 0, 71, 0
2, 21360, Note_on_c, 0, 72, 75
2, 21370, Note_on_c, 0, 72, 0
2, 21384, Note_on_c, 0, 76, 75
2, 21394, Note_on_c, 0, 76, 0
2, 21408, Note_on_c, 0, 72, 75
2, 21453, Note_on_c, 0, 72, 0
2, 21456, Note_on_c, 0, 64, 80
2, 21501, Note_on_c, 0, 64, 0
2, 21504, Note_on_c, 0, 67, 80
2, 21527, Note_on_c, 0, 67, 0
2, 21528, Note_on_c, 0, 65, 80
2, 21551, Note_on_c, 0, 65, 0
2, 21552, Note_on_c, 0, 64, 80
2, 21575, Note_on_c, 0, 64, 0
2, 21576, Note_on_c, 0, 62, 80
2, 21599, Note_on_c, 0, 62, 0
2, 21600, Note_on_c, 0, 67, 80
2, 21620, Note_on_c, 0, 67, 0
2, 21648, Note_on_c, 0, 67, 80
2, 21668, Note_on_c, 0, 67, 0
2, 21696, Note_on_c, 0, 60, 80
2, 21785, Note_on_c, 0, 60, 0
2, 21792, Note_on_c, 0, 67, 80
2, 21800, Note_on_c, 0, 67, 0
2, 21800, Note_on_c, 0, 65, 80
2, 21808, Note_on_c, 0, 65, 0
2, 21808, Note_on_c, 0, 67, 80
2, 21816, Note_on_c, 0, 67, 0
2, 21816, Note_on_c, 0, 65, 80
2, 21824, Note_on_c, 0, 65, 0
2, 21824, Note_on_c, 0, 67, 80
2, 21832, Note_on_c, 0, 67, 0
2, 21832, Note_on_c, 0, 65, 80
2, 21840, Note_on_c, 0, 65, 0
2, 21840, Note_on_c, 0, 67, 80
2, 21848, Note_on_c, 0, 67, 0
2, 21848, Note_on_c, 0, 65, 80
2, 21856, Note_on_c, 0, 65, 0
2, 21856, Note_on_c, 0, 67, 80
2, 21864, Note_on_c, 0, 67, 0
2, 21864, Note_on_c, 0, 65, 80
2, 21872, Note_on_c, 0, 65, 0
2, 21872, Note_on_c, 0, 64, 80
2, 21880, Note_on_c, 0, 64, 0
2, 21880, Note_on_c, 0, 65, 80
2, 21888, Note_on_c, 0, 65, 0
2, 21888, Note_on_c, 0, 64, 80
2, 21977, Note_on_c, 0, 64, 0
2, 21984, Note_on_c, 0, 67, 80
2, 21994, Note_on_c, 0, 67, 0
2, 22008, Note_on_c, 0, 71, 80
2, 22018, Note_on_c, 0, 71, 0
2, 22032, Note_on_c, 0, 74, 80
2, 22042, Note_on_c, 0, 74, 0
2, 22056, Note_on_c, 0, 77, 80
2, 22066, Note_on_c, 0, 77, 0
2, 22080, Note_on_c, 0, 76, 80
2, 22125, Note_on_c, 0, 76, 0
2, 22128, Note_on_c, 0, 72, 80
2, 22173, Note_on_c, 0, 72, 0
2, 22176, Note_on_c, 0, 79, 80
2, 22184, Note_on_c, 0, 79, 0
2, 22184, Note_on_c, 0, 77, 80
2, 22192, Note_on_c, 0, 77, 0
2, 22192, Note_on_c, 0, 79, 80
2, 22200, Note_on_c, 0, 79, 0
2, 22200, Note_on_c, 0, 77, 80
2, 22208, Note_on_c, 0, 77, 0
2, 22208, Note_on_c, 0, 79, 80
2, 22216, Note_on_c, 0, 79, 0
2, 22216, Note_on_c, 0, 77, 80
2, 22224, Note_on_c, 0, 77, 0
2, 22224, Note_on_c, 0, 79, 80
2, 22232, Note_on_c, 0, 79, 0
2, 22232, Note_on_c, 0, 77, 80
2, 22240, Note_on_c, 0, 77, 0
2, 22240, Note_on_c, 0, 79, 80
2, 22248, Note_on_c, 0, 79, 0
2, 22248, Note_on_c, 0, 77, 80
2, 22256, Note_on_c, 0, 77, 0
2, 22256, Note_on_c, 0, 76, 80
2, 22264, Note_on_c, 0, 76, 0
2, 22264, Note_on_c, 0, 77, 80
2, 22272, Note_on_c, 0, 77, 0
2, 22272, Note_on_c, 0, 76, 80
2, 22361, Note_on_c, 0, 76, 0
2, 22368, Note_on_c, 0, 86, 80
2, 22435, Note_on_c, 0, 86, 0
2, 22440, Note_on_c, 0, 77, 80
2, 22463, Note_on_c, 0, 77, 0
2, 22464, Note_on_c, 0, 76, 80
2, 22479, Note_on_c, 0, 76, 0
2, 22480, Note_on_c, 0, 74, 80
2, 22495, Note_on_c, 0, 74, 0
2, 22496, Note_on_c, 0, 72, 80
2, 22511, Note_on_c, 0, 72, 0
2, 22512, Note_on_c, 0, 81, 80
2, 22527, Note_on_c, 0, 81, 0
2, 22528, Note_on_c, 0, 79, 80
2, 22543, Note_on_c, 0, 79, 0
2, 22544, Note_on_c, 0, 77, 80
2, 22559, Note_on_c, 0, 77, 0
2, 22560, Note_on_c, 0, 76, 80
2, 22605, Note_on_c, 0, 76, 0
2, 22608, Note_on_c, 0, 76, 80
2, 22616, Note_on_c, 0, 76, 0
2, 22616, Note_on_c, 0, 74, 80
2, 22624, Note_on_c, 0, 74, 0
2, 22624, Note_on_c, 0, 76, 80
2, 22632, Note_on_c, 0, 76, 0
2, 22632, Note_on_c, 0, 74, 80
2, 22640, Note_on_c, 0, 74, 0
2, 22640, Note_on_c, 0, 72, 80
2, 22648, Note_on_c, 0, 72, 0
2, 22648, Note_on_c, 0, 74, 80
2, 22656, Note_on_c, 0, 74, 0
2, 22656, Note_on_c, 0, 72, 80
2, 22745, Note_on_c, 0, 72, 0
2, 22848, End_track
3, 0, Start_track
3, 0, Program_c, 0, 0
3, 0, Control_c, 0, 7, 127
3, 0, Control_c, 0, 10, 64
3, 22848, End_track
4, 0, Start_track
4, 0, Program_c, 1, 0
4, 0, Control_c, 1, 7, 127
4, 0, Control_c, 1, 10, 64
4, 192, Note_on_c, 1, 52, 75
4, 192, Note_on_c, 1, 48, 75
4, 237, Note_on_c, 1, 52, 0
4, 237, Note_on_c, 1, 48, 0
4, 288, Note_on_c, 1, 52, 75
4, 288, Note_on_c, 1, 48, 75
4, 333, Note_on_c, 1, 52, 0
4, 333, Note_on_c, 1, 48, 0
4, 408, Note_on_c, 1, 48, 75
4, 431, Note_on_c, 1, 48, 0
4, 432, Note_on_c, 1, 52, 75
4, 455, Note_on_c, 1, 52, 0
4, 456, Note_on_c, 1, 55, 75
4, 479, Note_on_c, 1, 55, 0
4, 480, Note_on_c, 1, 60, 75
4, 525, Note_on_c, 1, 60, 0
4, 528, Note_on_c, 1, 64, 75
4, 573, Note_on_c, 1, 64, 0
4, 576, Note_on_c, 1, 65, 75
4, 621, Note_on_c, 1, 65, 0
4, 624, Note_on_c, 1, 64, 75
4, 669, Note_on_c, 1, 64, 0
4, 672, Note_on_c, 1, 62, 75
4, 717, Note_on_c, 1, 62, 0
4, 720, Note_on_c, 1, 55, 75
4, 765, Note_on_c, 1, 55, 0
4, 768, Note_on_c, 1, 60, 75
4, 813, Note_on_c, 1, 60, 0
4, 816, Note_on_c, 1, 55, 75
4, 861, Note_on_c, 1, 55, 0
4, 864, Note_on_c, 1, 48, 75
4, 909, Note_on_c, 1, 48, 0
4, 960, Note_on_c, 1, 52, 75
4, 960, Note_on_c, 1, 48, 75
4, 1005, Note_on_c, 1, 52, 0
4, 1005, Note_on_c, 1, 48, 0
4, 1056, Note_on_c, 1, 52, 75
4, 1056, Note_on_c, 1, 48, 75
4, 1101, Note_on_c, 1, 52, 0
4, 1101, Note_on_c, 1, 48, 0
4, 1176, Note_on_c, 1, 48, 75
4, 1199, Note_on_c, 1, 48, 0
4, 1200, Note_on_c, 1, 52, 75
4, 1223, Note_on_c, 1, 52, 0
4, 1224, Note_on_c, 1, 55, 75
4, 1247, Note_on_c, 1, 55, 0
4, 1248, Note_on_c, 1, 60, 75
4, 1293, Note_on_c, 1, 60, 0
4, 1344, Note_on_c, 1, 62, 75
4, 1389, Note_on_c, 1, 62, 0
4, 1392, Note_on_c, 1, 60, 75
4, 1437, Note_on_c, 1, 60, 0
4, 1440, Note_on_c, 1, 65, 75
4, 1485, Note_on_c, 1, 65, 0
4, 1488, Note_on_c, 1, 64, 75
4, 1533, Note_on_c, 1, 64, 0
4, 1536, Note_on_c, 1, 62, 75
4, 1536, Note_on_c, 1, 55, 75
4, 1625, Note_on_c, 1, 62, 0
4, 1625, Note_on_c, 1, 55, 0
4, 1776, Note_on_c, 1, 62, 64
4, 1776, Note_on_c, 1, 55, 64
4, 1823, Note_on_c, 1, 62, 0
4, 1823, Note_on_c, 1, 55, 0
4, 1824, Note_on_c, 1, 62, 64
4, 1824, Note_on_c, 1, 55, 64
4, 1871, Note_on_c, 1, 62, 0
4, 1871, Note_on_c, 1, 55, 0
4, 1872, Note_on_c, 1, 62, 64
4, 1872, Note_on_c, 1, 55, 64
4, 1919, Note_on_c, 1, 62, 0
4, 1919, Note_on_c, 1, 55, 0
4, 1968, Note_on_c, 1, 62, 64
4, 1968, Note_on_c, 1, 54, 64
4, 2015, Note_on_c, 1, 62, 0
4, 2015, Note_on_c, 1, 54, 0
4, 2016, Note_on_c, 1, 62, 64
4, 2016, Note_on_c, 1, 54, 64
4, 2063, Note_on_c, 1, 62, 0
4, 2063, Note_on_c, 1, 54, 0
4, 2064, Note_on_c, 1, 62, 64
4, 2064, Note_on_c, 1, 54, 64
4, 2111, Note_on_c, 1, 62, 0
4, 2111, Note_on_c, 1, 54, 0
4, 2160, Note_on_c, 1, 62, 64
4, 2160, Note_on_c, 1, 54, 64
4, 2207, Note_on_c, 1, 62, 0
4, 2207, Note_on_c, 1, 54, 0
4, 2208, Note_on_c, 1, 62, 64
4, 2208, Note_on_c, 1, 54, 64
4, 2255, Note_on_c, 1, 62, 0
4, 2255, Note_on_c, 1, 54, 0
4, 2256, Note_on_c, 1, 62, 64
4, 2256, Note_on_c, 1, 54, 64
4, 2303, Note_on_c, 1, 62, 0
4, 2303, Note_on_c, 1, 54, 0
4, 2352, Note_on_c, 1, 59, 64
4, 2352, Note_on_c, 1, 55, 64
4, 2399, Note_on_c, 1, 59, 0
4, 2399, Note_on_c, 1, 55, 0
4, 2400, Note_on_c, 1, 59, 64
4, 2400, Note_on_c, 1, 55, 64
4, 2447, Note_on_c, 1, 59, 0
4, 2447, Note_on_c, 1, 55, 0
4, 2448, Note_on_c, 1, 59, 64
4, 2448, Note_on_c, 1, 55, 64
4, 2495, Note_on_c, 1, 59, 0
4, 2495, Note_on_c, 1, 55, 0
4, 2496, Note_on_c, 1, 60, 70
4, 2541, Note_on_c, 1, 60, 0
4, 2544, Note_on_c, 1, 59, 70
4, 2589, Note_on_c, 1, 59, 0
4, 2592, Note_on_c, 1, 60, 70
4, 2637, Note_on_c, 1, 60, 0
4, 2640, Note_on_c, 1, 57, 70
4, 2685, Note_on_c, 1, 57, 0
4, 2688, Note_on_c, 1, 59, 70
4, 2688, Note_on_c, 1, 55, 70
4, 2777, Note_on_c, 1, 59, 0
4, 2777, Note_on_c, 1, 55, 0
4, 2832, Note_on_c, 1, 59, 80
4, 2877, Note_on_c, 1, 59, 0
4, 2880, Note_on_c, 1, 62, 80
4, 2903, Note_on_c, 1, 62, 0
4, 2904, Note_on_c, 1, 60, 80
4, 2927, Note_on_c, 1, 60, 0
4, 2928, Note_on_c, 1, 59, 80
4, 2951, Note_on_c, 1, 59, 0
4, 2952, Note_on_c, 1, 57, 80
4, 2975, Note_on_c, 1, 57, 0
4, 2976, Note_on_c, 1, 62, 80
4, 2996, Note_on_c, 1, 62, 0
4, 3024, Note_on_c, 1, 62, 80
4, 3044, Note_on_c, 1, 62, 0
4, 3072, Note_on_c, 1, 55, 80
4, 3161, Note_on_c, 1, 55, 0
4, 3168, Note_on_c, 1, 54, 70
4, 3191, Note_on_c, 1, 54, 0
4, 3192, Note_on_c, 1, 62, 70
4, 3215, Note_on_c, 1, 62, 0
4, 3216, Note_on_c, 1, 54, 70
4, 3239, Note_on_c, 1, 54, 0
4, 3240, Note_on_c, 1, 62, 70
4, 3263, Note_on_c, 1, 62, 0
4, 3264, Note_on_c, 1, 55, 70
4, 3287, Note_on_c, 1, 55, 0
4, 3288, Note_on_c, 1, 62, 70
4, 3311, Note_on_c, 1, 62, 0
4, 3312, Note_on_c, 1, 55, 70
4, 3335, Note_on_c, 1, 55, 0
4, 3336, Note_on_c, 1, 62, 70
4, 3359, Note_on_c, 1, 62, 0
4, 3360, Note_on_c, 1, 54, 70
4, 3383, Note_on_c, 1, 54, 0
4, 3384, Note_on_c, 1, 62, 70
4, 3407, Note_on_c, 1, 62, 0
4, 3408, Note_on_c, 1, 54, 70
4, 3431, Note_on_c, 1, 54, 0
4, 3432, Note_on_c, 1, 62, 70
4, 3455, Note_on_c, 1, 62, 0
4, 3456, Note_on_c, 1, 55, 70
4, 3479, Note_on_c, 1, 55, 0
4, 3480, Note_on_c, 1, 62, 70
4, 3503, Note_on_c, 1, 62, 0
4, 3504, Note_on_c, 1, 55, 70
4, 3527, Note_on_c, 1, 55, 0
4, 3528, Note_on_c, 1, 62, 70
4, 3551, Note_on_c, 1, 62, 0
4, 3552, Note_on_c, 1, 54, 70
4, 3575, Note_on_c, 1, 54, 0
4, 3576, Note_on_c, 1, 62, 70
4, 3599, Note_on_c, 1, 62, 0
4, 3600, Note_on_c, 1, 54, 70
4, 3623, Note_on_c, 1, 54, 0
4, 3624, Note_on_c, 1, 62, 70
4, 3647, Note_on_c, 1, 62, 0
4, 3648, Note_on_c, 1, 55, 70
4, 3671, Note_on_c, 1, 55, 0
4, 3672, Note_on_c, 1, 62, 70
4, 3695, Note_on_c, 1, 62, 0
4, 3696, Note_on_c, 1, 55, 70
4, 3719, Note_on_c, 1, 55, 0
4, 3720, Note_on_c, 1, 62, 70
4, 3743, Note_on_c, 1, 62, 0
4, 3744, Note_on_c, 1, 54, 70
4, 3767, Note_on_c, 1, 54, 0
4, 3768, Note_on_c, 1, 62, 70
4, 3791, Note_on_c, 1, 62, 0
4, 3792, Note_on_c, 1, 54, 70
4, 3815, Note_on_c, 1, 54, 0
4, 3816, Note_on_c, 1, 62, 70
4, 3839, Note_on_c, 1, 62, 0
4, 3840, Note_on_c, 1, 55, 75
4, 3885, Note_on_c, 1, 55, 0
4, 3888, Note_on_c, 1, 60, 75
4, 3933, Note_on_c, 1, 60, 0
4, 3936, Note_on_c, 1, 62, 75
4, 3981, Note_on_c, 1, 62, 0
4, 3984, Note_on_c, 1, 50, 75
4, 4029, Note_on_c, 1, 50, 0
4, 4032, Note_on_c, 1, 55, 75
4, 4077, Note_on_c, 1, 55, 0
4, 4080, Note_on_c, 1, 50, 75
4, 4125, Note_on_c, 1, 50, 0
4, 4128, Note_on_c, 1, 43, 75
4, 4173, Note_on_c, 1, 43, 0
4, 4224, Note_on_c, 1, 52, 75
4, 4224, Note_on_c, 1, 48, 75
4, 4269, Note_on_c, 1, 52, 0
4, 4269, Note_on_c, 1, 48, 0
4, 4320, Note_on_c, 1, 52, 75
4, 4320, Note_on_c, 1, 48, 75
4, 4365, Note_on_c, 1, 52, 0
4, 4365, Note_on_c, 1, 48, 0
4, 4440, Note_on_c, 1, 48, 75
4, 4463, Note_on_c, 1, 48, 0
4, 4464, Note_on_c, 1, 52, 75
4, 4487, Note_on_c, 1, 52, 0
4, 4488, Note_on_c, 1, 55, 75
4, 4511, Note_on_c, 1, 55, 0
4, 4512, Note_on_c, 1, 60, 75
4, 4557, Note_on_c, 1, 60, 0
4, 4560, Note_on_c, 1, 64, 75
4, 4605, Note_on_c, 1, 64, 0
4, 4608, Note_on_c, 1, 65, 75
4, 4653, Note_on_c, 1, 65, 0
4, 4656, Note_on_c, 1, 64, 75
4, 4701, Note_on_c, 1, 64, 0
4, 4704, Note_on_c, 1, 62, 75
4, 4749, Note_on_c, 1, 62, 0
4, 4752, Note_on_c, 1, 55, 75
4, 4797, Note_on_c, 1, 55, 0
4, 4800, Note_on_c, 1, 60, 75
4, 4845, Note_on_c, 1, 60, 0
4, 4848, Note_on_c, 1, 55, 75
4, 4893, Note_on_c, 1, 55, 0
4, 4896, Note_on_c, 1, 48, 75
4, 4941, Note_on_c, 1, 48, 0
4, 4992, Note_on_c, 1, 52, 75
4, 4992, Note_on_c, 1, 48, 75
4, 5037, Note_on_c, 1, 52, 0
4, 5037, Note_on_c, 1, 48, 0
4, 5088, Note_on_c, 1, 52, 75
4, 5088, Note_on_c, 1, 48, 75
4, 5133, Note_on_c, 1, 52, 0
4, 5133, Note_on_c, 1, 48, 0
4, 5208, Note_on_c, 1, 48, 75
4, 5231, Note_on_c, 1, 48, 0
4, 5232, Note_on_c, 1, 52, 75
4, 5255, Note_on_c, 1, 52, 0
4, 5256, Note_on_c, 1, 55, 75
4, 5279, Note_on_c, 1, 55, 0
4, 5280, Note_on_c, 1, 60, 75
4, 5325, Note_on_c, 1, 60, 0
4, 5376, Note_on_c, 1, 62, 75
4, 5421, Note_on_c, 1, 62, 0
4, 5424, Note_on_c, 1, 60, 75
4, 5469, Note_on_c, 1, 60, 0
4, 5472, Note_on_c, 1, 65, 75
4, 5517, Note_on_c, 1, 65, 0
4, 5520, Note_on_c, 1, 64, 75
4, 5565, Note_on_c, 1, 64, 0
4, 5568, Note_on_c, 1, 62, 75
4, 5568, Note_on_c, 1, 55, 75
4, 5657, Note_on_c, 1, 62, 0
4, 5657, Note_on_c, 1, 55, 0
4, 5808, Note_on_c, 1, 62, 64
4, 5808, Note_on_c, 1, 55, 64
4, 5855, Note_on_c, 1, 62, 0
4, 5855, Note_on_c, 1, 55, 0
4, 5856, Note_on_c, 1, 62, 64
4, 5856, Note_on_c, 1, 55, 64
4, 5903, Note_on_c, 1, 62, 0
4, 5903, Note_on_c, 1, 55, 0
4, 5904, Note_on_c, 1, 62, 64
4, 5904, Note_on_c, 1, 55, 64
4, 5951, Note_on_c, 1, 62, 0
4, 5951, Note_on_c, 1, 55, 0
4, 6000, Note_on_c, 1, 62, 64
4, 6000, Note_on_c, 1, 54, 64
4, 6047, Note_on_c, 1, 62, 0
4, 6047, Note_on_c, 1, 54, 0
4, 6048, Note_on_c, 1, 62, 64
4, 6048, Note_on_c, 1, 54, 64
4, 6095, Note_on_c, 1, 62, 0
4, 6095, Note_on_c, 1, 54, 0
4, 6096, Note_on_c, 1, 62, 64
4, 6096, Note_on_c, 1, 54, 64
4, 6143, Note_on_c, 1, 62, 0
4, 6143, Note_on_c, 1, 54, 0
4, 6192, Note_on_c, 1, 62, 64
4, 6192, Note_on_c, 1, 54, 64
4, 6239, Note_on_c, 1, 62, 0
4, 6239, Note_on_c, 1, 54, 0
4, 6240, Note_on_c, 1, 62, 64
4, 6240, Note_on_c, 1, 54, 64
4, 6287, Note_on_c, 1, 62, 0
4, 6287, Note_on_c, 1, 54, 0
4, 6288, Note_on_c, 1, 62, 64
4, 6288, Note_on_c, 1, 54, 64
4, 6335, Note_on_c, 1, 62, 0
4, 6335, Note_on_c, 1, 54, 0
4, 6384, Note_on_c, 1, 59, 64
4, 6384, Note_on_c, 1, 55, 64
4, 6431, Note_on_c, 1, 59, 0
4, 6431, Note_on_c, 1, 55, 0
4, 6432, Note_on_c, 1, 59, 64
4, 6432, Note_on_c, 1, 55, 64
4, 6479, Note_on_c, 1, 59, 0
4, 6479, Note_on_c, 1, 55, 0
4, 6480, Note_on_c, 1, 59, 64
4, 6480, Note_on_c, 1, 55, 64
4, 6527, Note_on_c, 1, 59, 0
4, 6527, Note_on_c, 1, 55, 0
4, 6528, Note_on_c, 1, 60, 70
4, 6573, Note_on_c, 1, 60, 0
4, 6576, Note_on_c, 1, 59, 70
4, 6621, Note_on_c, 1, 59, 0
4, 6624, Note_on_c, 1, 60, 70
4, 6669, Note_on_c, 1, 60, 0
4, 6672, Note_on_c, 1, 57, 70
4, 6717, Note_on_c, 1, 57, 0
4, 6720, Note_on_c, 1, 59, 70
4, 6720, Note_on_c, 1, 55, 70
4, 6809, Note_on_c, 1, 59, 0
4, 6809, Note_on_c, 1, 55, 0
4, 6864, Note_on_c, 1, 59, 80
4, 6909, Note_on_c, 1, 59, 0
4, 6912, Note_on_c, 1, 62, 80
4, 6935, Note_on_c, 1, 62, 0
4, 6936, Note_on_c, 1, 60, 80
4, 6959, Note_on_c, 1, 60, 0
4, 6960, Note_on_c, 1, 59, 80
4, 6983, Note_on_c, 1, 59, 0
4, 6984, Note_on_c, 1, 57, 80
4, 7007, Note_on_c, 1, 57, 0
4, 7008, Note_on_c, 1, 62, 80
4, 7028, Note_on_c, 1, 62, 0
4, 7056, Note_on_c, 1, 62, 80
4, 7076, Note_on_c, 1, 62, 0
4, 7104, Note_on_c, 1, 55, 80
4, 7193, Note_on_c, 1, 55, 0
4, 7200, Note_on_c, 1, 54, 70
4, 7223, Note_on_c, 1, 54, 0
4, 7224, Note_on_c, 1, 62, 70
4, 7247, Note_on_c, 1, 62, 0
4, 7248, Note_on_c, 1, 54, 70
4, 7271, Note_on_c, 1, 54, 0
4, 7272, Note_on_c, 1, 62, 70
4, 7295, Note_on_c, 1, 62, 0
4, 7296, Note_on_c, 1, 55, 70
4, 7319, Note_on_c, 1, 55, 0
4, 7320, Note_on_c, 1, 62, 70
4, 7343, Note_on_c, 1, 62, 0
4, 7344, Note_on_c, 1, 55, 70
4, 7367, Note_on_c, 1, 55, 0
4, 7368, Note_on_c, 1, 62, 70
4, 7391, Note_on_c, 1, 62, 0
4, 7392, Note_on_c, 1, 54, 70
4, 7415, Note_on_c, 1, 54, 0
4, 7416, Note_on_c, 1, 62, 70
4, 7439, Note_on_c, 1, 62, 0
4, 7440, Note_on_c, 1, 54, 70
4, 7463, Note_on_c, 1, 54, 0
4, 7464, Note_on_c, 1, 62, 70
4, 7487, Note_on_c, 1, 62, 0
4, 7488, Note_on_c, 1, 55, 70
4, 7511, Note_on_c, 1, 55, 0
4, 7512, Note_on_c, 1, 62, 70
4, 7535, Note_on_c, 1, 62, 0
4, 7536, Note_on_c, 1, 55, 70
4, 7559, Note_on_c, 1, 55, 0
4, 7560, Note_on_c, 1, 62, 70
4, 7583, Note_on_c, 1, 62, 0
4, 7584, Note_on_c, 1, 54, 70
4, 7607, Note_on_c, 1, 54, 0
4, 7608, Note_on_c, 1, 62, 70
4, 7631, Note_on_c, 1, 62, 0
4, 7632, Note_on_c, 1, 54, 70
4, 7655, Note_on_c, 1, 54, 0
4, 7656, Note_on_c, 1, 62, 70
4, 7679, Note_on_c, 1, 62, 0
4, 7680, Note_on_c, 1, 55, 70
4, 7703, Note_on_c, 1, 55, 0
4, 7704, Note_on_c, 1, 62, 70
4, 7727, Note_on_c, 1, 62, 0
4, 7728, Note_on_c, 1, 55, 70
4, 7751, Note_on_c, 1, 55, 0
4, 7752, Note_on_c, 1, 62, 70
4, 7775, Note_on_c, 1, 62, 0
4, 7776, Note_on_c, 1, 54, 70
4, 7799, Note_on_c, 1, 54, 0
4, 7800, Note_on_c, 1, 62, 70
4, 7823, Note_on_c, 1, 62, 0
4, 7824, Note_on_c, 1, 54, 70
4, 7847, Note_on_c, 1, 54, 0
4, 7848, Note_on_c, 1, 62, 70
4, 7871, Note_on_c, 1, 62, 0
4, 7872, Note_on_c, 1, 55, 75
4, 7917, Note_on_c, 1, 55, 0
4, 7920, Note_on_c, 1, 60, 75
4, 7965, Note_on_c, 1, 60, 0
4, 7968, Note_on_c, 1, 62, 75
4, 8013, Note_on_c, 1, 62, 0
4, 8016, Note_on_c, 1, 50, 75
4, 8061, Note_on_c, 1, 50, 0
4, 8064, Note_on_c, 1, 55, 75
4, 8109, Note_on_c, 1, 55, 0
4, 8112, Note_on_c, 1, 50, 75
4, 8157, Note_on_c, 1, 50, 0
4, 8160, Note_on_c, 1, 43, 75
4, 8205, Note_on_c, 1, 43, 0
4, 8256, Note_on_c, 1, 59, 75
4, 8256, Note_on_c, 1, 55, 75
4, 8301, Note_on_c, 1, 59, 0
4, 8301, Note_on_c, 1, 55, 0
4, 8352, Note_on_c, 1, 59, 75
4, 8352, Note_on_c, 1, 55, 75
4, 8397, Note_on_c, 1, 59, 0
4, 8397, Note_on_c, 1, 55, 0
4, 8472, Note_on_c, 1, 43, 75
4, 8495, Note_on_c, 1, 43, 0
4, 8496, Note_on_c, 1, 47, 75
4, 8519, Note_on_c, 1, 47, 0
4, 8520, Note_on_c, 1, 50, 75
4, 8543, Note_on_c, 1, 50, 0
4, 8544, Note_on_c, 1, 55, 75
4, 8589, Note_on_c, 1, 55, 0
4, 8592, Note_on_c, 1, 59, 75
4, 8637, Note_on_c, 1, 59, 0
4, 8640, Note_on_c, 1, 60, 75
4, 8685, Note_on_c, 1, 60, 0
4, 8688, Note_on_c, 1, 59, 75
4, 8733, Note_on_c, 1, 59, 0
4, 8736, Note_on_c, 1, 57, 75
4, 8781, Note_on_c, 1, 57, 0
4, 8784, Note_on_c, 1, 50, 75
4, 8829, Note_on_c, 1, 50, 0
4, 8832, Note_on_c, 1, 55, 75
4, 8877, Note_on_c, 1, 55, 0
4, 8880, Note_on_c, 1, 50, 75
4, 8925, Note_on_c, 1, 50, 0
4, 8928, Note_on_c, 1, 43, 75
4, 8973, Note_on_c, 1, 43, 0
4, 9024, Note_on_c, 1, 60, 75
4, 9024, Note_on_c, 1, 57, 75
4, 9069, Note_on_c, 1, 60, 0
4, 9069, Note_on_c, 1, 57, 0
4, 9120, Note_on_c, 1, 60, 75
4, 9120, Note_on_c, 1, 57, 75
4, 9165, Note_on_c, 1, 60, 0
4, 9165, Note_on_c, 1, 57, 0
4, 9240, Note_on_c, 1, 45, 75
4, 9263, Note_on_c, 1, 45, 0
4, 9264, Note_on_c, 1, 48, 75
4, 9287, Note_on_c, 1, 48, 0
4, 9288, Note_on_c, 1, 52, 75
4, 9311, Note_on_c, 1, 52, 0
4, 9312, Note_on_c, 1, 57, 75
4, 9401, Note_on_c, 1, 57, 0
4, 9456, Note_on_c, 1, 57, 64
4, 9456, Note_on_c, 1, 50, 64
4, 9503, Note_on_c, 1, 57, 0
4, 9503, Note_on_c, 1, 50, 0
4, 9504, Note_on_c, 1, 57, 64
4, 9504, Note_on_c, 1, 50, 64
4, 9551, Note_on_c, 1, 57, 0
4, 9551, Note_on_c, 1, 50, 0
4, 9552, Note_on_c, 1, 57, 64
4, 9552, Note_on_c, 1, 50, 64
4, 9599, Note_on_c, 1, 57, 0
4, 9599, Note_on_c, 1, 50, 0
4, 9648, Note_on_c, 1, 60, 64
4, 9648, Note_on_c, 1, 57, 64
4, 9695, Note_on_c, 1, 60, 0
4, 9695, Note_on_c, 1, 57, 0
4, 9696, Note_on_c, 1, 60, 64
4, 9696, Note_on_c, 1, 57, 64
4, 9743, Note_on_c, 1, 60, 0
4, 9743, Note_on_c, 1, 57, 0
4, 9744, Note_on_c, 1, 60, 64
4, 9744, Note_on_c, 1, 57, 64
4, 9791, Note_on_c, 1, 60, 0
4, 9791, Note_on_c, 1, 57, 0
4, 9840, Note_on_c, 1, 59, 64
4, 9840, Note_on_c, 1, 52, 64
4, 9887, Note_on_c, 1, 59, 0
4, 9887, Note_on_c, 1, 52, 0
4, 9888, Note_on_c, 1, 59, 64
4, 9888, Note_on_c, 1, 52, 64
4, 9935, Note_on_c, 1, 59, 0
4, 9935, Note_on_c, 1, 52, 0
4, 9936, Note_on_c, 1, 56, 64
4, 9936, Note_on_c, 1, 52, 64
4, 9983, Note_on_c, 1, 56, 0
4, 9983, Note_on_c, 1, 52, 0
4, 9984, Note_on_c, 1, 57, 75
4, 10029, Note_on_c, 1, 57, 0
4, 10032, Note_on_c, 1, 56, 75
4, 10077, Note_on_c, 1, 56, 0
4, 10128, Note_on_c, 1, 62, 75
4, 10148, Note_on_c, 1, 62, 0
4, 10176, Note_on_c, 1, 60, 75
4, 10221, Note_on_c, 1, 60, 0
4, 10224, Note_on_c, 1, 57, 75
4, 10269, Note_on_c, 1, 57, 0
4, 10320, Note_on_c, 1, 55, 75
4, 10340, Note_on_c, 1, 55, 0
4, 10368, Note_on_c, 1, 53, 75
4, 10413, Note_on_c, 1, 53, 0
4, 10416, Note_on_c, 1, 50, 75
4, 10461, Note_on_c, 1, 50, 0
4, 10512, Note_on_c, 1, 53, 75
4, 10532, Note_on_c, 1, 53, 0
4, 10560, Note_on_c, 1, 52, 75
4, 10605, Note_on_c, 1, 52, 0
4, 10608, Note_on_c, 1, 48, 75
4, 10653, Note_on_c, 1, 48, 0
4, 10656, Note_on_c, 1, 52, 70
4, 10679, Note_on_c, 1, 52, 0
4, 10680, Note_on_c, 1, 60, 70
4, 10703, Note_on_c, 1, 60, 0
4, 10704, Note_on_c, 1, 52, 70
4, 10727, Note_on_c, 1, 52, 0
4, 10728, Note_on_c, 1, 60, 70
4, 10751, Note_on_c, 1, 60, 0
4, 10752, Note_on_c, 1, 53, 70
4, 10775, Note_on_c, 1, 53, 0
4, 10776, Note_on_c, 1, 60, 70
4, 10799, Note_on_c, 1, 60, 0
4, 10800, Note_on_c, 1, 53, 70
4, 10823, Note_on_c, 1, 53, 0
4, 10824, Note_on_c, 1, 60, 70
4, 10847, Note_on_c, 1, 60, 0
4, 10848, Note_on_c, 1, 54, 70
4, 10871, Note_on_c, 1, 54, 0
4, 10872, Note_on_c, 1, 60, 70
4, 10895, Note_on_c, 1, 60, 0
4, 10896, Note_on_c, 1, 54, 70
4, 10919, Note_on_c, 1, 54, 0
4, 10920, Note_on_c, 1, 60, 70
4, 10943, Note_on_c, 1, 60, 0
4, 10944, Note_on_c, 1, 55, 70
4, 10989, Note_on_c, 1, 55, 0
4, 10992, Note_on_c, 1, 43, 70
4, 11037, Note_on_c, 1, 43, 0
4, 11040, Note_on_c, 1, 52, 70
4, 11063, Note_on_c, 1, 52, 0
4, 11064, Note_on_c, 1, 60, 70
4, 11087, Note_on_c, 1, 60, 0
4, 11088, Note_on_c, 1, 52, 70
4, 11111, Note_on_c, 1, 52, 0
4, 11112, Note_on_c, 1, 60, 70
4, 11135, Note_on_c, 1, 60, 0
4, 11136, Note_on_c, 1, 53, 70
4, 11159, Note_on_c, 1, 53, 0
4, 11160, Note_on_c, 1, 60, 71
4, 11183, Note_on_c, 1, 60, 0
4, 11184, Note_on_c, 1, 53, 72
4, 11207, Note_on_c, 1, 53, 0
4, 11208, Note_on_c, 1, 60, 73
4, 11231, Note_on_c, 1, 60, 0
4, 11232, Note_on_c, 1, 54, 74
4, 11255, Note_on_c, 1, 54, 0
4, 11256, Note_on_c, 1, 60, 75
4, 11279, Note_on_c, 1, 60, 0
4, 11280, Note_on_c, 1, 54, 75
4, 11303, Note_on_c, 1, 54, 0
4, 11304, Note_on_c, 1, 60, 75
4, 11327, Note_on_c, 1, 60, 0
4, 11328, Note_on_c, 1, 60, 75
4, 11373, Note_on_c, 1, 60, 0
4, 11376, Note_on_c, 1, 59, 75
4, 11421, Note_on_c, 1, 59, 0
4, 11520, Note_on_c, 1, 52, 75
4, 11520, Note_on_c, 1, 48, 75
4, 11565, Note_on_c, 1, 52, 0
4, 11565, Note_on_c, 1, 48, 0
4, 11616, Note_on_c, 1, 52, 75
4, 11616, Note_on_c, 1, 48, 75
4, 11661, Note_on_c, 1, 52, 0
4, 11661, Note_on_c, 1, 48, 0
4, 11736, Note_on_c, 1, 48, 75
4, 11759, Note_on_c, 1, 48, 0
4, 11760, Note_on_c, 1, 52, 75
4, 11783, Note_on_c, 1, 52, 0
4, 11784, Note_on_c, 1, 55, 75
4, 11807, Note_on_c, 1, 55, 0
4, 11808, Note_on_c, 1, 60, 75
4, 11853, Note_on_c, 1, 60, 0
4, 11856, Note_on_c, 1, 64, 75
4, 11901, Note_on_c, 1, 64, 0
4, 11904, Note_on_c, 1, 65, 75
4, 11949, Note_on_c, 1, 65, 0
4, 11952, Note_on_c, 1, 64, 75
4, 11997, Note_on_c, 1, 64, 0
4, 12000, Note_on_c, 1, 62, 75
4, 12045, Note_on_c, 1, 62, 0
4, 12048, Note_on_c, 1, 55, 75
4, 12093, Note_on_c, 1, 55, 0
4, 12096, Note_on_c, 1, 60, 75
4, 12141, Note_on_c, 1, 60, 0
4, 12144, Note_on_c, 1, 55, 75
4, 12189, Note_on_c, 1, 55, 0
4, 12192, Note_on_c, 1, 48, 75
4, 12237, Note_on_c, 1, 48, 0
4, 12288, Note_on_c, 1, 52, 75
4, 12288, Note_on_c, 1, 48, 75
4, 12333, Note_on_c, 1, 52, 0
4, 12333, Note_on_c, 1, 48, 0
4, 12384, Note_on_c, 1, 52, 75
4, 12384, Note_on_c, 1, 48, 75
4, 12429, Note_on_c, 1, 52, 0
4, 12429, Note_on_c, 1, 48, 0
4, 12504, Note_on_c, 1, 48, 75
4, 12527, Note_on_c, 1, 48, 0
4, 12528, Note_on_c, 1, 52, 75
4, 12551, Note_on_c, 1, 52, 0
4, 12552, Note_on_c, 1, 55, 75
4, 12575, Note_on_c, 1, 55, 0
4, 12576, Note_on_c, 1, 60, 75
4, 12621, Note_on_c, 1, 60, 0
4, 12672, Note_on_c, 1, 65, 75
4, 12717, Note_on_c, 1, 65, 0
4, 12720, Note_on_c, 1, 64, 75
4, 12765, Note_on_c, 1, 64, 0
4, 12768, Note_on_c, 1, 62, 75
4, 12813, Note_on_c, 1, 62, 0
4, 12816, Note_on_c, 1, 60, 75
4, 12861, Note_on_c, 1, 60, 0
4, 12864, Note_on_c, 1, 60, 75
4, 12909, Note_on_c, 1, 60, 0
4, 12912, Note_on_c, 1, 59, 75
4, 12957, Note_on_c, 1, 59, 0
4, 13104, Note_on_c, 1, 55, 64
4, 13104, Note_on_c, 1, 48, 64
4, 13151, Note_on_c, 1, 55, 0
4, 13151, Note_on_c, 1, 48, 0
4, 13152, Note_on_c, 1, 55, 64
4, 13152, Note_on_c, 1, 48, 64
4, 13199, Note_on_c, 1, 55, 0
4, 13199, Note_on_c, 1, 48, 0
4, 13200, Note_on_c, 1, 55, 64
4, 13200, Note_on_c, 1, 48, 64
4, 13247, Note_on_c, 1, 55, 0
4, 13247, Note_on_c, 1, 48, 0
4, 13296, Note_on_c, 1, 55, 64
4, 13296, Note_on_c, 1, 47, 64
4, 13343, Note_on_c, 1, 55, 0
4, 13343, Note_on_c, 1, 47, 0
4, 13344, Note_on_c, 1, 55, 64
4, 13344, Note_on_c, 1, 47, 64
4, 13391, Note_on_c, 1, 55, 0
4, 13391, Note_on_c, 1, 47, 0
4, 13392, Note_on_c, 1, 55, 64
4, 13392, Note_on_c, 1, 47, 64
4, 13439, Note_on_c, 1, 55, 0
4, 13439, Note_on_c, 1, 47, 0
4, 13488, Note_on_c, 1, 55, 64
4, 13488, Note_on_c, 1, 47, 64
4, 13535, Note_on_c, 1, 55, 0
4, 13535, Note_on_c, 1, 47, 0
4, 13536, Note_on_c, 1, 55, 64
4, 13536, Note_on_c, 1, 47, 64
4, 13583, Note_on_c, 1, 55, 0
4, 13583, Note_on_c, 1, 47, 0
4, 13584, Note_on_c, 1, 55, 64
4, 13584, Note_on_c, 1, 47, 64
4, 13631, Note_on_c, 1, 55, 0
4, 13631, Note_on_c, 1, 47, 0
4, 13680, Note_on_c, 1, 52, 64
4, 13680, Note_on_c, 1, 48, 64
4, 13727, Note_on_c, 1, 52, 0
4, 13727, Note_on_c, 1, 48, 0
4, 13728, Note_on_c, 1, 52, 64
4, 13728, Note_on_c, 1, 48, 64
4, 13775, Note_on_c, 1, 52, 0
4, 13775, Note_on_c, 1, 48, 0
4, 13776, Note_on_c, 1, 52, 64
4, 13776, Note_on_c, 1, 48, 64
4, 13823, Note_on_c, 1, 52, 0
4, 13823, Note_on_c, 1, 48, 0
4, 13824, Note_on_c, 1, 53, 75
4, 13869, Note_on_c, 1, 53, 0
4, 13872, Note_on_c, 1, 52, 75
4, 13917, Note_on_c, 1, 52, 0
4, 13920, Note_on_c, 1, 53, 75
4, 13965, Note_on_c, 1, 53, 0
4, 13968, Note_on_c, 1, 50, 75
4, 14013, Note_on_c, 1, 50, 0
4, 14016, Note_on_c, 1, 52, 75
4, 14016, Note_on_c, 1, 48, 75
4, 14105, Note_on_c, 1, 52, 0
4, 14105, Note_on_c, 1, 48, 0
4, 14160, Note_on_c, 1, 52, 80
4, 14205, Note_on_c, 1, 52, 0
4, 14208, Note_on_c, 1, 55, 80
4, 14231, Note_on_c, 1, 55, 0
4, 14232, Note_on_c, 1, 53, 80
4, 14255, Note_on_c, 1, 53, 0
4, 14256, Note_on_c, 1, 52, 80
4, 14279, Note_on_c, 1, 52, 0
4, 14280, Note_on_c, 1, 50, 80
4, 14303, Note_on_c, 1, 50, 0
4, 14304, Note_on_c, 1, 55, 80
4, 14324, Note_on_c, 1, 55, 0
4, 14352, Note_on_c, 1, 55, 80
4, 14372, Note_on_c, 1, 55, 0
4, 14400, Note_on_c, 1, 48, 80
4, 14489, Note_on_c, 1, 48, 0
4, 14496, Note_on_c, 1, 47, 70
4, 14519, Note_on_c, 1, 47, 0
4, 14520, Note_on_c, 1, 55, 70
4, 14543, Note_on_c, 1, 55, 0
4, 14544, Note_on_c, 1, 47, 70
4, 14567, Note_on_c, 1, 47, 0
4, 14568, Note_on_c, 1, 55, 70
4, 14591, Note_on_c, 1, 55, 0
4, 14592, Note_on_c, 1, 48, 70
4, 14615, Note_on_c, 1, 48, 0
4, 14616, Note_on_c, 1, 55, 70
4, 14639, Note_on_c, 1, 55, 0
4, 14640, Note_on_c, 1, 48, 70
4, 14663, Note_on_c, 1, 48, 0
4, 14664, Note_on_c, 1, 55, 70
4, 14687, Note_on_c, 1, 55, 0
4, 14688, Note_on_c, 1, 47, 70
4, 14711, Note_on_c, 1, 47, 0
4, 14712, Note_on_c, 1, 55, 70
4, 14735, Note_on_c, 1, 55, 0
4, 14736, Note_on_c, 1, 47, 70
4, 14759, Note_on_c, 1, 47, 0
4, 14760, Note_on_c, 1, 55, 70
4, 14783, Note_on_c, 1, 55, 0
4, 14784, Note_on_c, 1, 48, 70
4, 14807, Note_on_c, 1, 48, 0
4, 14808, Note_on_c, 1, 55, 70
4, 14831, Note_on_c, 1, 55, 0
4, 14832, Note_on_c, 1, 48, 70
4, 14855, Note_on_c, 1, 48, 0
4, 14856, Note_on_c, 1, 55, 70
4, 14879, Note_on_c, 1, 55, 0
4, 14880, Note_on_c, 1, 47, 70
4, 14903, Note_on_c, 1, 47, 0
4, 14904, Note_on_c, 1, 55, 70
4, 14927, Note_on_c, 1, 55, 0
4, 14928, Note_on_c, 1, 47, 70
4, 14951, Note_on_c, 1, 47, 0
4, 14952, Note_on_c, 1, 55, 70
4, 14975, Note_on_c, 1, 55, 0
4, 14976, Note_on_c, 1, 48, 70
4, 14999, Note_on_c, 1, 48, 0
4, 15000, Note_on_c, 1, 55, 70
4, 15023, Note_on_c, 1, 55, 0
4, 15024, Note_on_c, 1, 48, 70
4, 15047, Note_on_c, 1, 48, 0
4, 15048, Note_on_c, 1, 55, 70
4, 15071, Note_on_c, 1, 55, 0
4, 15072, Note_on_c, 1, 47, 70
4, 15095, Note_on_c, 1, 47, 0
4, 15096, Note_on_c, 1, 55, 70
4, 15119, Note_on_c, 1, 55, 0
4, 15120, Note_on_c, 1, 47, 70
4, 15143, Note_on_c, 1, 47, 0
4, 15144, Note_on_c, 1, 55, 70
4, 15167, Note_on_c, 1, 55, 0
4, 15168, Note_on_c, 1, 48, 75
4, 15213, Note_on_c, 1, 48, 0
4, 15216, Note_on_c, 1, 53, 75
4, 15261, Note_on_c, 1, 53, 0
4, 15264, Note_on_c, 1, 55, 75
4, 15309, Note_on_c, 1, 55, 0
4, 15312, Note_on_c, 1, 43, 75
4, 15357, Note_on_c, 1, 43, 0
4, 15360, Note_on_c, 1, 48, 75
4, 15405, Note_on_c, 1, 48, 0
4, 15408, Note_on_c, 1, 43, 75
4, 15453, Note_on_c, 1, 43, 0
4, 15456, Note_on_c, 1, 36, 75
4, 15501, Note_on_c, 1, 36, 0
4, 15552, Note_on_c, 1, 59, 75
4, 15552, Note_on_c, 1, 55, 75
4, 15597, Note_on_c, 1, 59, 0
4, 15597, Note_on_c, 1, 55, 0
4, 15648, Note_on_c, 1, 59, 75
4, 15648, Note_on_c, 1, 55, 75
4, 15693, Note_on_c, 1, 59, 0
4, 15693, Note_on_c, 1, 55, 0
4, 15768, Note_on_c, 1, 43, 75
4, 15791, Note_on_c, 1, 43, 0
4, 15792, Note_on_c, 1, 47, 75
4, 15815, Note_on_c, 1, 47, 0
4, 15816, Note_on_c, 1, 50, 75
4, 15839, Note_on_c, 1, 50, 0
4, 15840, Note_on_c, 1, 55, 75
4, 15885, Note_on_c, 1, 55, 0
4, 15888, Note_on_c, 1, 59, 75
4, 15933, Note_on_c, 1, 59, 0
4, 15936, Note_on_c, 1, 60, 75
4, 15981, Note_on_c, 1, 60, 0
4, 15984, Note_on_c, 1, 59, 75
4, 16029, Note_on_c, 1, 59, 0
4, 16032, Note_on_c, 1, 57, 75
4, 16077, Note_on_c, 1, 57, 0
4, 16080, Note_on_c, 1, 50, 75
4, 16125, Note_on_c, 1, 50, 0
4, 16128, Note_on_c, 1, 55, 75
4, 16173, Note_on_c, 1, 55, 0
4, 16176, Note_on_c, 1, 50, 75
4, 16221, Note_on_c, 1, 50, 0
4, 16224, Note_on_c, 1, 43, 75
4, 16269, Note_on_c, 1, 43, 0
4, 16320, Note_on_c, 1, 60, 75
4, 16320, Note_on_c, 1, 57, 75
4, 16365, Note_on_c, 1, 60, 0
4, 16365, Note_on_c, 1, 57, 0
4, 16416, Note_on_c, 1, 60, 75
4, 16416, Note_on_c, 1, 57, 75
4, 16461, Note_on_c, 1, 60, 0
4, 16461, Note_on_c, 1, 57, 0
4, 16536, Note_on_c, 1, 45, 75
4, 16559, Note_on_c, 1, 45, 0
4, 16560, Note_on_c, 1, 48, 75
4, 16583, Note_on_c, 1, 48, 0
4, 16584, Note_on_c, 1, 52, 75
4, 16607, Note_on_c, 1, 52, 0
4, 16608, Note_on_c, 1, 57, 75
4, 16697, Note_on_c, 1, 57, 0
4, 16752, Note_on_c, 1, 57, 64
4, 16752, Note_on_c, 1, 50, 64
4, 16799, Note_on_c, 1, 57, 0
4, 16799, Note_on_c, 1, 50, 0
4, 16800, Note_on_c, 1, 57, 64
4, 16800, Note_on_c, 1, 50, 64
4, 16847, Note_on_c, 1, 57, 0
4, 16847, Note_on_c, 1, 50, 0
4, 16848, Note_on_c, 1, 57, 64
4, 16848, Note_on_c, 1, 50, 64
4, 16895, Note_on_c, 1, 57, 0
4, 16895, Note_on_c, 1, 50, 0
4, 16944, Note_on_c, 1, 60, 64
4, 16944, Note_on_c, 1, 57, 64
4, 16991, Note_on_c, 1, 60, 0
4, 16991, Note_on_c, 1, 57, 0
4, 16992, Note_on_c, 1, 60, 64
4, 16992, Note_on_c, 1, 57, 64
4, 17039, Note_on_c, 1, 60, 0
4, 17039, Note_on_c, 1, 57, 0
4, 17040, Note_on_c, 1, 60, 64
4, 17040, Note_on_c, 1, 57, 64
4, 17087, Note_on_c, 1, 60, 0
4, 17087, Note_on_c, 1, 57, 0
4, 17136, Note_on_c, 1, 59, 64
4, 17136, Note_on_c, 1, 52, 64
4, 17183, Note_on_c, 1, 59, 0
4, 17183, Note_on_c, 1, 52, 0
4, 17184, Note_on_c, 1, 59, 64
4, 17184, Note_on_c, 1, 52, 64
4, 17231, Note_on_c, 1, 59, 0
4, 17231, Note_on_c, 1, 52, 0
4, 17232, Note_on_c, 1, 56, 64
4, 17232, Note_on_c, 1, 52, 64
4, 17279, Note_on_c, 1, 56, 0
4, 17279, Note_on_c, 1, 52, 0
4, 17280, Note_on_c, 1, 57, 75
4, 17325, Note_on_c, 1, 57, 0
4, 17328, Note_on_c, 1, 56, 75
4, 17373, Note_on_c, 1, 56, 0
4, 17424, Note_on_c, 1, 62, 75
4, 17444, Note_on_c, 1, 62, 0
4, 17472, Note_on_c, 1, 60, 75
4, 17517, Note_on_c, 1, 60, 0
4, 17520, Note_on_c, 1, 57, 75
4, 17565, Note_on_c, 1, 57, 0
4, 17616, Note_on_c, 1, 55, 75
4, 17636, Note_on_c, 1, 55, 0
4, 17664, Note_on_c, 1, 53, 75
4, 17709, Note_on_c, 1, 53, 0
4, 17712, Note_on_c, 1, 50, 75
4, 17757, Note_on_c, 1, 50, 0
4, 17808, Note_on_c, 1, 53, 75
4, 17828, Note_on_c, 1, 53, 0
4, 17856, Note_on_c, 1, 52, 75
4, 17901, Note_on_c, 1, 52, 0
4, 17904, Note_on_c, 1, 48, 75
4, 17949, Note_on_c, 1, 48, 0
4, 17952, Note_on_c, 1, 52, 70
4, 17975, Note_on_c, 1, 52, 0
4, 17976, Note_on_c, 1, 60, 70
4, 17999, Note_on_c, 1, 60, 0
4, 18000, Note_on_c, 1, 52, 70
4, 18023, Note_on_c, 1, 52, 0
4, 18024, Note_on_c, 1, 60, 70
4, 18047, Note_on_c, 1, 60, 0
4, 18048, Note_on_c, 1, 53, 70
4, 18071, Note_on_c, 1, 53, 0
4, 18072, Note_on_c, 1, 60, 70
4, 18095, Note_on_c, 1, 60, 0
4, 18096, Note_on_c, 1, 53, 70
4, 18119, Note_on_c, 1, 53, 0
4, 18120, Note_on_c, 1, 60, 70
4, 18143, Note_on_c, 1, 60, 0
4, 18144, Note_on_c, 1, 54, 70
4, 18167, Note_on_c, 1, 54, 0
4, 18168, Note_on_c, 1, 60, 70
4, 18191, Note_on_c, 1, 60, 0
4, 18192, Note_on_c, 1, 54, 70
4, 18215, Note_on_c, 1, 54, 0
4, 18216, Note_on_c, 1, 60, 70
4, 18239, Note_on_c, 1, 60, 0
4, 18240, Note_on_c, 1, 55, 70
4, 18285, Note_on_c, 1, 55, 0
4, 18288, Note_on_c, 1, 43, 70
4, 18333, Note_on_c, 1, 43, 0
4, 18336, Note_on_c, 1, 52, 70
4, 18359, Note_on_c, 1, 52, 0
4, 18360, Note_on_c, 1, 60, 70
4, 18383, Note_on_c, 1, 60, 0
4, 18384, Note_on_c, 1, 52, 70
4, 18407, Note_on_c, 1, 52, 0
4, 18408, Note_on_c, 1, 60, 70
4, 18431, Note_on_c, 1, 60, 0
4, 18432, Note_on_c, 1, 53, 70
4, 18455, Note_on_c, 1, 53, 0
4, 18456, Note_on_c, 1, 60, 71
4, 18479, Note_on_c, 1, 60, 0
4, 18480, Note_on_c, 1, 53, 72
4, 18503, Note_on_c, 1, 53, 0
4, 18504, Note_on_c, 1, 60, 73
4, 18527, Note_on_c, 1, 60, 0
4, 18528, Note_on_c, 1, 54, 74
4, 18551, Note_on_c, 1, 54, 0
4, 18552, Note_on_c, 1, 60, 75
4, 18575, Note_on_c, 1, 60, 0
4, 18576, Note_on_c, 1, 54, 75
4, 18599, Note_on_c, 1, 54, 0
4, 18600, Note_on_c, 1, 60, 75
4, 18623, Note_on_c, 1, 60, 0
4, 18624, Note_on_c, 1, 60, 75
4, 18669, Note_on_c, 1, 60, 0
4, 18672, Note_on_c, 1, 59, 75
4, 18717, Note_on_c, 1, 59, 0
4, 18816, Note_on_c, 1, 52, 75
4, 18816, Note_on_c, 1, 48, 75
4, 18861, Note_on_c, 1, 52, 0
4, 18861, Note_on_c, 1, 48, 0
4, 18912, Note_on_c, 1, 52, 75
4, 18912, Note_on_c, 1, 48, 75
4, 18957, Note_on_c, 1, 52, 0
4, 18957, Note_on_c, 1, 48, 0
4, 19032, Note_on_c, 1, 48, 75
4, 19055, Note_on_c, 1, 48, 0
4, 19056, Note_on_c, 1, 52, 75
4, 19079, Note_on_c, 1, 52, 0
4, 19080, Note_on_c, 1, 55, 75
4, 19103, Note_on_c, 1, 55, 0
4, 19104, Note_on_c, 1, 60, 75
4, 19149, Note_on_c, 1, 60, 0
4, 19152, Note_on_c, 1, 64, 75
4, 19197, Note_on_c, 1, 64, 0
4, 19200, Note_on_c, 1, 65, 75
4, 19245, Note_on_c, 1, 65, 0
4, 19248, Note_on_c, 1, 64, 75
4, 19293, Note_on_c, 1, 64, 0
4, 19296, Note_on_c, 1, 62, 75
4, 19341, Note_on_c, 1, 62, 0
4, 19344, Note_on_c, 1, 55, 75
4, 19389, Note_on_c, 1, 55, 0
4, 19392, Note_on_c, 1, 60, 75
4, 19437, Note_on_c, 1, 60, 0
4, 19440, Note_on_c, 1, 55, 75
4, 19485, Note_on_c, 1, 55, 0
4, 19488, Note_on_c, 1, 48, 75
4, 19533, Note_on_c, 1, 48, 0
4, 19584, Note_on_c, 1, 52, 75
4, 19584, Note_on_c, 1, 48, 75
4, 19629, Note_on_c, 1, 52, 0
4, 19629, Note_on_c, 1, 48, 0
4, 19680, Note_on_c, 1, 52, 75
4, 19680, Note_on_c, 1, 48, 75
4, 19725, Note_on_c, 1, 52, 0
4, 19725, Note_on_c, 1, 48, 0
4, 19800, Note_on_c, 1, 48, 75
4, 19823, Note_on_c, 1, 48, 0
4, 19824, Note_on_c, 1, 52, 75
4, 19847, Note_on_c, 1, 52, 0
4, 19848, Note_on_c, 1, 55, 75
4, 19871, Note_on_c, 1, 55, 0
4, 19872, Note_on_c, 1, 60, 75
4, 19917, Note_on_c, 1, 60, 0
4, 19968, Note_on_c, 1, 65, 75
4, 20013, Note_on_c, 1, 65, 0
4, 20016, Note_on_c, 1, 64, 75
4, 20061, Note_on_c, 1, 64, 0
4, 20064, Note_on_c, 1, 62, 75
4, 20109, Note_on_c, 1, 62, 0
4, 20112, Note_on_c, 1, 60, 75
4, 20157, Note_on_c, 1, 60, 0
4, 20160, Note_on_c, 1, 60, 75
4, 20205, Note_on_c, 1, 60, 0
4, 20208, Note_on_c, 1, 59, 75
4, 20253, Note_on_c, 1, 59, 0
4, 20400, Note_on_c, 1, 55, 64
4, 20400, Note_on_c, 1, 48, 64
4, 20447, Note_on_c, 1, 55, 0
4, 20447, Note_on_c, 1, 48, 0
4, 20448, Note_on_c, 1, 55, 64
4, 20448, Note_on_c, 1, 48, 64
4, 20495, Note_on_c, 1, 55, 0
4, 20495, Note_on_c, 1, 48, 0
4, 20496, Note_on_c, 1, 55, 64
4, 20496, Note_on_c, 1, 48, 64
4, 20543, Note_on_c, 1, 55, 0
4, 20543, Note_on_c, 1, 48, 0
4, 20592, Note_on_c, 1, 55, 64
4, 20592, Note_on_c, 1, 47, 64
4, 20639, Note_on_c, 1, 55, 0
4, 20639, Note_on_c, 1, 47, 0
4, 20640, Note_on_c, 1, 55, 64
4, 20640, Note_on_c, 1, 47, 64
4, 20687, Note_on_c, 1, 55, 0
4, 20687, Note_on_c, 1, 47, 0
4, 20688, Note_on_c, 1, 55, 64
4, 20688, Note_on_c, 1, 47, 64
4, 20735, Note_on_c, 1, 55, 0
4, 20735, Note_on_c, 1, 47, 0
4, 20784, Note_on_c, 1, 55, 64
4, 20784, Note_on_c, 1, 47, 64
4, 20831, Note_on_c, 1, 55, 0
4, 20831, Note_on_c, 1, 47, 0
4, 20832, Note_on_c, 1, 55, 64
4, 20832, Note_on_c, 1, 47, 64
4, 20879, Note_on_c, 1, 55, 0
4, 20879, Note_on_c, 1, 47, 0
4, 20880, Note_on_c, 1, 55, 64
4, 20880, Note_on_c, 1, 47, 64
4, 20927, Note_on_c, 1, 55, 0
4, 20927, Note_on_c, 1, 47, 0
4, 20976, Note_on_c, 1, 52, 64
4, 20976, Note_on_c, 1, 48, 64
4, 21023, Note_on_c, 1, 52, 0
4, 21023, Note_on_c, 1, 48, 0
4, 21024, Note_on_c, 1, 52, 64
4, 21024, Note_on_c, 1, 48, 64
4, 21071, Note_on_c, 1, 52, 0
4, 21071, Note_on_c, 1, 48, 0
4, 21072, Note_on_c, 1, 52, 64
4, 21072, Note_on_c, 1, 48, 64
4, 21119, Note_on_c, 1, 52, 0
4, 21119, Note_on_c, 1, 48, 0
4, 21120, Note_on_c, 1, 53, 75
4, 21165, Note_on_c, 1, 53, 0
4, 21168, Note_on_c, 1, 52, 75
4, 21213, Note_on_c, 1, 52, 0
4, 21216, Note_on_c, 1, 53, 75
4, 21261, Note_on_c, 1, 53, 0
4, 21264, Note_on_c, 1, 50, 75
4, 21309, Note_on_c, 1, 50, 0
4, 21312, Note_on_c, 1, 52, 75
4, 21312, Note_on_c, 1, 48, 75
4, 21401, Note_on_c, 1, 52, 0
4, 21401, Note_on_c, 1, 48, 0
4, 21456, Note_on_c, 1, 52, 80
4, 21501, Note_on_c, 1, 52, 0
4, 21504, Note_on_c, 1, 55, 80
4, 21527, Note_on_c, 1, 55, 0
4, 21528, Note_on_c, 1, 53, 80
4, 21551, Note_on_c, 1, 53, 0
4, 21552, Note_on_c, 1, 52, 80
4, 21575, Note_on_c, 1, 52, 0
4, 21576, Note_on_c, 1, 50, 80
4, 21599, Note_on_c, 1, 50, 0
4, 21600, Note_on_c, 1, 55, 80
4, 21620, Note_on_c, 1, 55, 0
4, 21648, Note_on_c, 1, 55, 80
4, 21668, Note_on_c, 1, 55, 0
4, 21696, Note_on_c, 1, 48, 80
4, 21785, Note_on_c, 1, 48, 0
4, 21792, Note_on_c, 1, 47, 70
4, 21815, Note_on_c, 1, 47, 0
4, 21816, Note_on_c, 1, 55, 70
4, 21839, Note_on_c, 1, 55, 0
4, 21840, Note_on_c, 1, 47, 70
4, 21863, Note_on_c, 1, 47, 0
4, 21864, Note_on_c, 1, 55, 70
4, 21887, Note_on_c, 1, 55, 0
4, 21888, Note_on_c, 1, 48, 70
4, 21911, Note_on_c, 1, 48, 0
4, 21912, Note_on_c, 1, 55, 70
4, 21935, Note_on_c, 1, 55, 0
4, 21936, Note_on_c, 1, 48, 70
4, 21959, Note_on_c, 1, 48, 0
4, 21960, Note_on_c, 1, 55, 70
4, 21983, Note_on_c, 1, 55, 0
4, 21984, Note_on_c, 1, 47, 70
4, 22007, Note_on_c, 1, 47, 0
4, 22008, Note_on_c, 1, 55, 70
4, 22031, Note_on_c, 1, 55, 0
4, 22032, Note_on_c, 1, 47, 70
4, 22055, Note_on_c, 1, 47, 0
4, 22056, Note_on_c, 1, 55, 70
4, 22079, Note_on_c, 1, 55, 0
4, 22080, Note_on_c, 1, 48, 70
4, 22103, Note_on_c, 1, 48, 0
4, 22104, Note_on_c, 1, 55, 70
4, 22127, Note_on_c, 1, 55, 0
4, 22128, Note_on_c, 1, 48, 70
4, 22151, Note_on_c, 1, 48, 0
4, 22152, Note_on_c, 1, 55, 70
4, 22175, Note_on_c, 1, 55, 0
4, 22176, Note_on_c, 1, 47, 70
4, 22199, Note_on_c, 1, 47, 0
4, 22200, Note_on_c, 1, 55, 70
4, 22223, Note_on_c, 1, 55, 0
4, 22224, Note_on_c, 1, 47, 70
4, 22247, Note_on_c, 1, 47, 0
4, 22248, Note_on_c, 1, 55, 70
4, 22271, Note_on_c, 1, 55, 0
4, 22272, Note_on_c, 1, 48, 70
4, 22295, Note_on_c, 1, 48, 0
4, 22296, Note_on_c, 1, 55, 70
4, 22319, Note_on_c, 1, 55, 0
4, 22320, Note_on_c, 1, 48, 70
4, 22343, Note_on_c, 1, 48, 0
4, 22344, Note_on_c, 1, 55, 70
4, 22367, Note_on_c, 1, 55, 0
4, 22368, Note_on_c, 1, 47, 70
4, 22391, Note_on_c, 1, 47, 0
4, 22392, Note_on_c, 1, 55, 70
4, 22415, Note_on_c, 1, 55, 0
4, 22416, Note_on_c, 1, 47, 70
4, 22439, Note_on_c, 1, 47, 0
4, 22440, Note_on_c, 1, 55, 70
4, 22463, Note_on_c, 1, 55, 0
4, 22464, Note_on_c, 1, 48, 75
4, 22509, Note_on_c, 1, 48, 0
4, 22512, Note_on_c, 1, 53, 75
4, 22557, Note_on_c, 1, 53, 0
4, 22560, Note_on_c, 1, 55, 75
4, 22605, Note_on_c, 1, 55, 0
4, 22608, Note_on_c, 1, 43, 75
4, 22653, Note_on_c, 1, 43, 0
4, 22656, Note_on_c, 1, 48, 75
4, 22701, Note_on_c, 1, 48, 0
4, 22704, Note_on_c, 1, 43, 75
4, 22749, Note_on_c, 1, 43, 0
4, 22752, Note_on_c, 1, 36, 75
4, 22797, Note_on_c, 1, 36, 0
4, 22800, Note_on_c, 1, 36, 0
4, 22845, Note_on_c, 1, 36, 0
4, 22848, End_track
5, 0, Start_track
5, 0, Program_c, 1, 0
5, 0, Control_c, 1, 7, 127
5, 0, Control_c, 1, 10, 64
5, 1344, Note_on_c, 1, 55, 64
5, 1521, Note_on_c, 1, 55, 0
5, 2496, Note_on_c, 1, 55, 64
5, 2673, Note_on_c, 1, 55, 0
5, 5376, Note_on_c, 1, 55, 64
5, 5553, Note_on_c, 1, 55, 0
5, 6528, Note_on_c, 1, 55, 64
5, 6705, Note_on_c, 1, 55, 0
5, 9984, Note_on_c, 1, 52, 64
5, 10073, Note_on_c, 1, 52, 0
5, 11328, Note_on_c, 1, 55, 64
5, 11417, Note_on_c, 1, 55, 0
5, 12672, Note_on_c, 1, 55, 64
5, 12761, Note_on_c, 1, 55, 0
5, 12768, Note_on_c, 1, 55, 64
5, 12857, Note_on_c, 1, 55, 0
5, 12864, Note_on_c, 1, 55, 64
5, 12953, Note_on_c, 1, 55, 0
5, 13824, Note_on_c, 1, 48, 64
5, 14001, Note_on_c, 1, 48, 0
5, 17280, Note_on_c, 1, 52, 64
5, 17369, Note_on_c, 1, 52, 0
5, 18624, Note_on_c, 1, 55, 64
5, 18713, Note_on_c, 1, 55, 0
5, 19968, Note_on_c, 1, 55, 64
5, 20057, Note_on_c, 1, 55, 0
5, 20064, Note_on_c, 1, 55, 64
5, 20153, Note_on_c, 1, 55, 0
5, 20160, Note_on_c, 1, 55, 64
5, 20249, Note_on_c, 1, 55, 0
5, 21120, Note_on_c, 1, 48, 64
5, 21297, Note_on_c, 1, 48, 0
5, 22848, End_track
6, 0, Start_track
6, 0, Title_t, "Sonata I   Haydn  "
6, 0, End_track
0, 0, End_of_file
