0, 0, Header, 1, 6, 96
1, 0, Start_track
1, 0, Copyright_t, "Copyright  2000 <copyright holder>"
1, 0, Text_t, "Sonata I\015\012"
1, 0, Text_t, "Haydn\015\012"
1, 0, Sequencer_specific, 16, 68, 87, 77, 90, 86, 82, 83, 78, 32, 55, 46, 49, 46, 51, 46, 48
1, 0, Time_signature, 2, 1, 48, 8
1, 0, Tempo, 50000
1, 0, Key_signature, 1, "major"
1, 288, Tempo, 384615
1, 11760, Tempo, 400000
1, 11904, Tempo, 428571
1, 12096, Tempo, 400000
1, 12288, Tempo, 384615
1, 13440, Tempo, 500000
1, 13632, Tempo, 1200000
1, 13728, Tempo, 384615
1, 16128, Tempo, 428571
1, 16320, Tempo, 2000000
1, 16416, Tempo, 384615
1, 27888, Tempo, 400000
1, 28032, Tempo, 428571
1, 28224, Tempo, 400000
1, 28416, Tempo, 384615
1, 29568, Tempo, 500000
1, 29760, Tempo, 1200000
1, 29856, Tempo, 384615
1, 32256, Tempo, 428571
1, 32448, Tempo, 2000000
1, 32544, Tempo, 384615
1, 48384, Tempo, 428571
1, 48768, Time_signature, 5, 2, 48, 8
1, 48768, Tempo, 500000
1, 49152, Tempo, 384615
1, 49248, Time_signature, 2, 1, 48, 8
1, 50496, Tempo, 1000000
1, 50592, Tempo, 384615
1, 62016, Tempo, 600000
1, 62208, Tempo, 384615
1, 63648, Tempo, 428571
1, 63840, Tempo, 500000
1, 64032, Tempo, 1200000
1, 64128, Tempo, 384615
1, 65568, Tempo, 428571
1, 66720, Tempo, 461538
1, 66912, Tempo, 500000
1, 67104, Tempo, 545454
1, 67296, Tempo, 1000000
1, 67392, Tempo, 1200000
1, 67584, Tempo, 384615
1, 83424, Tempo, 428571
1, 83808, Time_signature, 5, 2, 48, 8
1, 83808, Tempo, 500000
1, 84192, Tempo, 384615
1, 84288, Time_signature, 2, 1, 48, 8
1, 85536, Tempo, 1000000
1, 85632, Tempo, 384615
1, 97056, Tempo, 600000
1, 97248, Tempo, 384615
1, 98688, Tempo, 428571
1, 98880, Tempo, 500000
1, 99072, Tempo, 1200000
1, 99168, Tempo, 384615
1, 100608, Tempo, 428571
1, 101760, Tempo, 461538
1, 101952, Tempo, 500000
1, 102144, Tempo, 545454
1, 102432, Tempo, 1200000
1, 102720, End_track
2, 0, Start_track
2, 0, Program_c, 0, 0
2, 0, Control_c, 0, 7, 127
2, 0, Control_c, 0, 10, 64
2, 288, Note_on_c, 0, 71, 75
2, 327, Note_on_c, 0, 71, 0
2, 384, Note_on_c, 0, 76, 75
2, 429, Note_on_c, 0, 76, 0
2, 432, Note_on_c, 0, 79, 75
2, 477, Note_on_c, 0, 79, 0
2, 480, Note_on_c, 0, 78, 75
2, 525, Note_on_c, 0, 78, 0
2, 528, Note_on_c, 0, 76, 76
2, 573, Note_on_c, 0, 76, 0
2, 576, Note_on_c, 0, 75, 77
2, 621, Note_on_c, 0, 75, 0
2, 624, Note_on_c, 0, 78, 77
2, 669, Note_on_c, 0, 78, 0
2, 672, Note_on_c, 0, 76, 78
2, 717, Note_on_c, 0, 76, 0
2, 720, Note_on_c, 0, 75, 79
2, 765, Note_on_c, 0, 75, 0
2, 768, Note_on_c, 0, 76, 80
2, 813, Note_on_c, 0, 76, 0
2, 816, Note_on_c, 0, 83, 79
2, 836, Note_on_c, 0, 83, 0
2, 864, Note_on_c, 0, 81, 78
2, 884, Note_on_c, 0, 81, 0
2, 912, Note_on_c, 0, 79, 78
2, 932, Note_on_c, 0, 79, 0
2, 960, Note_on_c, 0, 78, 77
2, 980, Note_on_c, 0, 78, 0
2, 1008, Note_on_c, 0, 76, 76
2, 1028, Note_on_c, 0, 76, 0
2, 1056, Note_on_c, 0, 75, 76
2, 1104, Note_on_c, 0, 75, 0
2, 1104, Note_on_c, 0, 76, 75
2, 1149, Note_on_c, 0, 76, 0
2, 1152, Note_on_c, 0, 71, 75
2, 1197, Note_on_c, 0, 71, 0
2, 1200, Note_on_c, 0, 79, 75
2, 1245, Note_on_c, 0, 79, 0
2, 1248, Note_on_c, 0, 78, 75
2, 1293, Note_on_c, 0, 78, 0
2, 1296, Note_on_c, 0, 76, 75
2, 1341, Note_on_c, 0, 76, 0
2, 1344, Note_on_c, 0, 75, 76
2, 1389, Note_on_c, 0, 75, 0
2, 1392, Note_on_c, 0, 78, 76
2, 1437, Note_on_c, 0, 78, 0
2, 1440, Note_on_c, 0, 76, 76
2, 1485, Note_on_c, 0, 76, 0
2, 1488, Note_on_c, 0, 75, 77
2, 1533, Note_on_c, 0, 75, 0
2, 1536, Note_on_c, 0, 76, 77
2, 1581, Note_on_c, 0, 76, 0
2, 1584, Note_on_c, 0, 83, 77
2, 1604, Note_on_c, 0, 83, 0
2, 1632, Note_on_c, 0, 81, 78
2, 1652, Note_on_c, 0, 81, 0
2, 1680, Note_on_c, 0, 79, 78
2, 1700, Note_on_c, 0, 79, 0
2, 1728, Note_on_c, 0, 78, 78
2, 1748, Note_on_c, 0, 78, 0
2, 1776, Note_on_c, 0, 76, 79
2, 1796, Note_on_c, 0, 76, 0
2, 1824, Note_on_c, 0, 75, 79
2, 1872, Note_on_c, 0, 75, 0
2, 1872, Note_on_c, 0, 76, 75
2, 1917, Note_on_c, 0, 76, 0
2, 1920, Note_on_c, 0, 72, 75
2, 1932, Note_on_c, 0, 72, 0
2, 1932, Note_on_c, 0, 74, 75
2, 1944, Note_on_c, 0, 74, 0
2, 1944, Note_on_c, 0, 72, 75
2, 1965, Note_on_c, 0, 72, 0
2, 1968, Note_on_c, 0, 71, 75
2, 2013, Note_on_c, 0, 71, 0
2, 2016, Note_on_c, 0, 72, 76
2, 2105, Note_on_c, 0, 72, 0
2, 2112, Note_on_c, 0, 72, 78
2, 2124, Note_on_c, 0, 72, 0
2, 2124, Note_on_c, 0, 74, 78
2, 2136, Note_on_c, 0, 74, 0
2, 2136, Note_on_c, 0, 72, 78
2, 2157, Note_on_c, 0, 72, 0
2, 2160, Note_on_c, 0, 71, 79
2, 2205, Note_on_c, 0, 71, 0
2, 2208, Note_on_c, 0, 72, 80
2, 2297, Note_on_c, 0, 72, 0
2, 2304, Note_on_c, 0, 81, 96
2, 2352, Note_on_c, 0, 81, 0
2, 2352, Note_on_c, 0, 79, 79
2, 2397, Note_on_c, 0, 79, 0
2, 2400, Note_on_c, 0, 78, 78
2, 2445, Note_on_c, 0, 78, 0
2, 2448, Note_on_c, 0, 76, 78
2, 2493, Note_on_c, 0, 76, 0
2, 2496, Note_on_c, 0, 74, 77
2, 2541, Note_on_c, 0, 74, 0
2, 2544, Note_on_c, 0, 72, 76
2, 2589, Note_on_c, 0, 72, 0
2, 2592, Note_on_c, 0, 71, 76
2, 2637, Note_on_c, 0, 71, 0
2, 2640, Note_on_c, 0, 69, 75
2, 2685, Note_on_c, 0, 69, 0
2, 2688, Note_on_c, 0, 71, 75
2, 2700, Note_on_c, 0, 71, 0
2, 2700, Note_on_c, 0, 72, 75
2, 2712, Note_on_c, 0, 72, 0
2, 2712, Note_on_c, 0, 71, 75
2, 2733, Note_on_c, 0, 71, 0
2, 2736, Note_on_c, 0, 69, 75
2, 2781, Note_on_c, 0, 69, 0
2, 2784, Note_on_c, 0, 71, 76
2, 2873, Note_on_c, 0, 71, 0
2, 2880, Note_on_c, 0, 71, 77
2, 2892, Note_on_c, 0, 71, 0
2, 2892, Note_on_c, 0, 72, 77
2, 2904, Note_on_c, 0, 72, 0
2, 2904, Note_on_c, 0, 71, 77
2, 2925, Note_on_c, 0, 71, 0
2, 2928, Note_on_c, 0, 69, 78
2, 2973, Note_on_c, 0, 69, 0
2, 2976, Note_on_c, 0, 71, 78
2, 3065, Note_on_c, 0, 71, 0
2, 3072, Note_on_c, 0, 79, 96
2, 3120, Note_on_c, 0, 79, 0
2, 3120, Note_on_c, 0, 78, 79
2, 3165, Note_on_c, 0, 78, 0
2, 3168, Note_on_c, 0, 76, 78
2, 3213, Note_on_c, 0, 76, 0
2, 3216, Note_on_c, 0, 74, 78
2, 3261, Note_on_c, 0, 74, 0
2, 3264, Note_on_c, 0, 72, 77
2, 3309, Note_on_c, 0, 72, 0
2, 3312, Note_on_c, 0, 71, 76
2, 3357, Note_on_c, 0, 71, 0
2, 3360, Note_on_c, 0, 69, 76
2, 3405, Note_on_c, 0, 69, 0
2, 3408, Note_on_c, 0, 67, 75
2, 3453, Note_on_c, 0, 67, 0
2, 3456, Note_on_c, 0, 69, 75
2, 3468, Note_on_c, 0, 69, 0
2, 3468, Note_on_c, 0, 71, 75
2, 3480, Note_on_c, 0, 71, 0
2, 3480, Note_on_c, 0, 69, 75
2, 3501, Note_on_c, 0, 69, 0
2, 3504, Note_on_c, 0, 67, 75
2, 3549, Note_on_c, 0, 67, 0
2, 3552, Note_on_c, 0, 69, 76
2, 3641, Note_on_c, 0, 69, 0
2, 3648, Note_on_c, 0, 69, 77
2, 3660, Note_on_c, 0, 69, 0
2, 3660, Note_on_c, 0, 71, 77
2, 3672, Note_on_c, 0, 71, 0
2, 3672, Note_on_c, 0, 69, 77
2, 3693, Note_on_c, 0, 69, 0
2, 3696, Note_on_c, 0, 67, 78
2, 3741, Note_on_c, 0, 67, 0
2, 3744, Note_on_c, 0, 69, 78
2, 3833, Note_on_c, 0, 69, 0
2, 3840, Note_on_c, 0, 78, 80
2, 3885, Note_on_c, 0, 78, 0
2, 3888, Note_on_c, 0, 76, 79
2, 3933, Note_on_c, 0, 76, 0
2, 3936, Note_on_c, 0, 75, 78
2, 3981, Note_on_c, 0, 75, 0
2, 3984, Note_on_c, 0, 76, 78
2, 4029, Note_on_c, 0, 76, 0
2, 4032, Note_on_c, 0, 78, 77
2, 4121, Note_on_c, 0, 78, 0
2, 4128, Note_on_c, 0, 72, 92
2, 4269, Note_on_c, 0, 72, 0
2, 4272, Note_on_c, 0, 66, 75
2, 4317, Note_on_c, 0, 66, 0
2, 4320, Note_on_c, 0, 71, 75
2, 4365, Note_on_c, 0, 71, 0
2, 4368, Note_on_c, 0, 69, 75
2, 4413, Note_on_c, 0, 69, 0
2, 4416, Note_on_c, 0, 67, 75
2, 4461, Note_on_c, 0, 67, 0
2, 4464, Note_on_c, 0, 66, 75
2, 4509, Note_on_c, 0, 66, 0
2, 4512, Note_on_c, 0, 64, 76
2, 4557, Note_on_c, 0, 64, 0
2, 4560, Note_on_c, 0, 63, 76
2, 4605, Note_on_c, 0, 63, 0
2, 4608, Note_on_c, 0, 64, 76
2, 4653, Note_on_c, 0, 64, 0
2, 4656, Note_on_c, 0, 59, 76
2, 4701, Note_on_c, 0, 59, 0
2, 4704, Note_on_c, 0, 60, 77
2, 4749, Note_on_c, 0, 60, 0
2, 4752, Note_on_c, 0, 59, 77
2, 4797, Note_on_c, 0, 59, 0
2, 4800, Note_on_c, 0, 57, 77
2, 4845, Note_on_c, 0, 57, 0
2, 4848, Note_on_c, 0, 55, 77
2, 4893, Note_on_c, 0, 55, 0
2, 4896, Note_on_c, 0, 54, 78
2, 4941, Note_on_c, 0, 54, 0
2, 4944, Note_on_c, 0, 52, 78
2, 4989, Note_on_c, 0, 52, 0
2, 4992, Note_on_c, 0, 51, 78
2, 5037, Note_on_c, 0, 51, 0
2, 5040, Note_on_c, 0, 60, 78
2, 5085, Note_on_c, 0, 60, 0
2, 5088, Note_on_c, 0, 59, 79
2, 5133, Note_on_c, 0, 59, 0
2, 5136, Note_on_c, 0, 57, 79
2, 5181, Note_on_c, 0, 57, 0
2, 5184, Note_on_c, 0, 59, 79
2, 5223, Note_on_c, 0, 59, 0
2, 5280, Note_on_c, 0, 59, 96
2, 5319, Note_on_c, 0, 59, 0
2, 5376, Note_on_c, 0, 59, 97
2, 5376, Note_on_c, 0, 55, 97
2, 5376, Note_on_c, 0, 52, 97
2, 5641, Note_on_c, 0, 59, 0
2, 5641, Note_on_c, 0, 55, 0
2, 5641, Note_on_c, 0, 52, 0
2, 5808, Note_on_c, 0, 71, 80
2, 5828, Note_on_c, 0, 71, 0
2, 5856, Note_on_c, 0, 71, 80
2, 5868, Note_on_c, 0, 71, 0
2, 5868, Note_on_c, 0, 72, 80
2, 5880, Note_on_c, 0, 72, 0
2, 5880, Note_on_c, 0, 71, 80
2, 5901, Note_on_c, 0, 71, 0
2, 5904, Note_on_c, 0, 69, 80
2, 5927, Note_on_c, 0, 69, 0
2, 5928, Note_on_c, 0, 71, 80
2, 5951, Note_on_c, 0, 71, 0
2, 5952, Note_on_c, 0, 76, 80
2, 6000, Note_on_c, 0, 76, 0
2, 6000, Note_on_c, 0, 71, 80
2, 6020, Note_on_c, 0, 71, 0
2, 6048, Note_on_c, 0, 71, 80
2, 6137, Note_on_c, 0, 71, 0
2, 6192, Note_on_c, 0, 71, 80
2, 6212, Note_on_c, 0, 71, 0
2, 6240, Note_on_c, 0, 71, 80
2, 6252, Note_on_c, 0, 71, 0
2, 6252, Note_on_c, 0, 72, 80
2, 6264, Note_on_c, 0, 72, 0
2, 6264, Note_on_c, 0, 71, 80
2, 6285, Note_on_c, 0, 71, 0
2, 6288, Note_on_c, 0, 69, 80
2, 6311, Note_on_c, 0, 69, 0
2, 6312, Note_on_c, 0, 71, 80
2, 6335, Note_on_c, 0, 71, 0
2, 6336, Note_on_c, 0, 78, 80
2, 6384, Note_on_c, 0, 78, 0
2, 6384, Note_on_c, 0, 71, 80
2, 6404, Note_on_c, 0, 71, 0
2, 6432, Note_on_c, 0, 71, 80
2, 6521, Note_on_c, 0, 71, 0
2, 6528, Note_on_c, 0, 79, 80
2, 6573, Note_on_c, 0, 79, 0
2, 6576, Note_on_c, 0, 81, 80
2, 6621, Note_on_c, 0, 81, 0
2, 6624, Note_on_c, 0, 83, 80
2, 6669, Note_on_c, 0, 83, 0
2, 6672, Note_on_c, 0, 79, 80
2, 6717, Note_on_c, 0, 79, 0
2, 6720, Note_on_c, 0, 76, 80
2, 6765, Note_on_c, 0, 76, 0
2, 6768, Note_on_c, 0, 78, 80
2, 6813, Note_on_c, 0, 78, 0
2, 6816, Note_on_c, 0, 79, 80
2, 6861, Note_on_c, 0, 79, 0
2, 6864, Note_on_c, 0, 76, 80
2, 6909, Note_on_c, 0, 76, 0
2, 6912, Note_on_c, 0, 72, 80
2, 6957, Note_on_c, 0, 72, 0
2, 6960, Note_on_c, 0, 74, 80
2, 7005, Note_on_c, 0, 74, 0
2, 7008, Note_on_c, 0, 76, 80
2, 7053, Note_on_c, 0, 76, 0
2, 7056, Note_on_c, 0, 72, 80
2, 7101, Note_on_c, 0, 72, 0
2, 7104, Note_on_c, 0, 69, 80
2, 7149, Note_on_c, 0, 69, 0
2, 7152, Note_on_c, 0, 71, 80
2, 7197, Note_on_c, 0, 71, 0
2, 7200, Note_on_c, 0, 72, 80
2, 7245, Note_on_c, 0, 72, 0
2, 7248, Note_on_c, 0, 69, 80
2, 7293, Note_on_c, 0, 69, 0
2, 7344, Note_on_c, 0, 81, 80
2, 7367, Note_on_c, 0, 81, 0
2, 7368, Note_on_c, 0, 83, 80
2, 7391, Note_on_c, 0, 83, 0
2, 7392, Note_on_c, 0, 84, 80
2, 7437, Note_on_c, 0, 84, 0
2, 7440, Note_on_c, 0, 81, 80
2, 7485, Note_on_c, 0, 81, 0
2, 7488, Note_on_c, 0, 78, 80
2, 7533, Note_on_c, 0, 78, 0
2, 7536, Note_on_c, 0, 78, 80
2, 7559, Note_on_c, 0, 78, 0
2, 7560, Note_on_c, 0, 79, 80
2, 7583, Note_on_c, 0, 79, 0
2, 7584, Note_on_c, 0, 81, 80
2, 7629, Note_on_c, 0, 81, 0
2, 7632, Note_on_c, 0, 78, 80
2, 7677, Note_on_c, 0, 78, 0
2, 7680, Note_on_c, 0, 75, 80
2, 7725, Note_on_c, 0, 75, 0
2, 7728, Note_on_c, 0, 75, 80
2, 7751, Note_on_c, 0, 75, 0
2, 7752, Note_on_c, 0, 76, 80
2, 7775, Note_on_c, 0, 76, 0
2, 7776, Note_on_c, 0, 78, 80
2, 7821, Note_on_c, 0, 78, 0
2, 7824, Note_on_c, 0, 75, 80
2, 7869, Note_on_c, 0, 75, 0
2, 7872, Note_on_c, 0, 71, 80
2, 7961, Note_on_c, 0, 71, 0
2, 7968, Note_on_c, 0, 76, 80
2, 8057, Note_on_c, 0, 76, 0
2, 8112, Note_on_c, 0, 79, 80
2, 8157, Note_on_c, 0, 79, 0
2, 8160, Note_on_c, 0, 78, 80
2, 8205, Note_on_c, 0, 78, 0
2, 8208, Note_on_c, 0, 76, 80
2, 8253, Note_on_c, 0, 76, 0
2, 8256, Note_on_c, 0, 85, 80
2, 8345, Note_on_c, 0, 85, 0
2, 8496, Note_on_c, 0, 78, 80
2, 8541, Note_on_c, 0, 78, 0
2, 8544, Note_on_c, 0, 76, 80
2, 8589, Note_on_c, 0, 76, 0
2, 8592, Note_on_c, 0, 74, 80
2, 8637, Note_on_c, 0, 74, 0
2, 8640, Note_on_c, 0, 83, 80
2, 8729, Note_on_c, 0, 83, 0
2, 8880, Note_on_c, 0, 76, 80
2, 8925, Note_on_c, 0, 76, 0
2, 8928, Note_on_c, 0, 74, 80
2, 8940, Note_on_c, 0, 74, 0
2, 8940, Note_on_c, 0, 76, 80
2, 8952, Note_on_c, 0, 76, 0
2, 8952, Note_on_c, 0, 74, 80
2, 8973, Note_on_c, 0, 74, 0
2, 8976, Note_on_c, 0, 72, 80
2, 9021, Note_on_c, 0, 72, 0
2, 9024, Note_on_c, 0, 81, 80
2, 9113, Note_on_c, 0, 81, 0
2, 9264, Note_on_c, 0, 74, 80
2, 9309, Note_on_c, 0, 74, 0
2, 9312, Note_on_c, 0, 72, 80
2, 9357, Note_on_c, 0, 72, 0
2, 9360, Note_on_c, 0, 71, 80
2, 9405, Note_on_c, 0, 71, 0
2, 9408, Note_on_c, 0, 79, 80
2, 9497, Note_on_c, 0, 79, 0
2, 9648, Note_on_c, 0, 72, 80
2, 9693, Note_on_c, 0, 72, 0
2, 9696, Note_on_c, 0, 70, 80
2, 9708, Note_on_c, 0, 70, 0
2, 9708, Note_on_c, 0, 72, 80
2, 9720, Note_on_c, 0, 72, 0
2, 9720, Note_on_c, 0, 70, 80
2, 9741, Note_on_c, 0, 70, 0
2, 9744, Note_on_c, 0, 69, 80
2, 9789, Note_on_c, 0, 69, 0
2, 9792, Note_on_c, 0, 77, 80
2, 9837, Note_on_c, 0, 77, 0
2, 9840, Note_on_c, 0, 69, 80
2, 9885, Note_on_c, 0, 69, 0
2, 9888, Note_on_c, 0, 70, 80
2, 9933, Note_on_c, 0, 70, 0
2, 9936, Note_on_c, 0, 69, 80
2, 9981, Note_on_c, 0, 69, 0
2, 9984, Note_on_c, 0, 69, 80
2, 10080, Note_on_c, 0, 69, 0
2, 10080, Note_on_c, 0, 68, 80
2, 10092, Note_on_c, 0, 68, 0
2, 10092, Note_on_c, 0, 69, 80
2, 10104, Note_on_c, 0, 69, 0
2, 10104, Note_on_c, 0, 68, 80
2, 10257, Note_on_c, 0, 68, 0
2, 10272, Note_on_c, 0, 64, 80
2, 10295, Note_on_c, 0, 64, 0
2, 10296, Note_on_c, 0, 66, 80
2, 10319, Note_on_c, 0, 66, 0
2, 10320, Note_on_c, 0, 68, 80
2, 10343, Note_on_c, 0, 68, 0
2, 10344, Note_on_c, 0, 69, 80
2, 10367, Note_on_c, 0, 69, 0
2, 10368, Note_on_c, 0, 71, 80
2, 10457, Note_on_c, 0, 71, 0
2, 10464, Note_on_c, 0, 68, 80
2, 10479, Note_on_c, 0, 68, 0
2, 10480, Note_on_c, 0, 69, 80
2, 10495, Note_on_c, 0, 69, 0
2, 10496, Note_on_c, 0, 71, 80
2, 10511, Note_on_c, 0, 71, 0
2, 10512, Note_on_c, 0, 72, 80
2, 10527, Note_on_c, 0, 72, 0
2, 10528, Note_on_c, 0, 74, 80
2, 10543, Note_on_c, 0, 74, 0
2, 10544, Note_on_c, 0, 76, 80
2, 10559, Note_on_c, 0, 76, 0
2, 10560, Note_on_c, 0, 77, 80
2, 10649, Note_on_c, 0, 77, 0
2, 10656, Note_on_c, 0, 71, 80
2, 10668, Note_on_c, 0, 71, 0
2, 10668, Note_on_c, 0, 72, 80
2, 10680, Note_on_c, 0, 72, 0
2, 10680, Note_on_c, 0, 74, 80
2, 10692, Note_on_c, 0, 74, 0
2, 10692, Note_on_c, 0, 76, 80
2, 10704, Note_on_c, 0, 76, 0
2, 10704, Note_on_c, 0, 78, 80
2, 10716, Note_on_c, 0, 78, 0
2, 10716, Note_on_c, 0, 80, 80
2, 10728, Note_on_c, 0, 80, 0
2, 10728, Note_on_c, 0, 81, 80
2, 10740, Note_on_c, 0, 81, 0
2, 10740, Note_on_c, 0, 83, 80
2, 10752, Note_on_c, 0, 83, 0
2, 10752, Note_on_c, 0, 84, 96
2, 10800, Note_on_c, 0, 84, 0
2, 10800, Note_on_c, 0, 83, 80
2, 10845, Note_on_c, 0, 83, 0
2, 10848, Note_on_c, 0, 81, 80
2, 10893, Note_on_c, 0, 81, 0
2, 10896, Note_on_c, 0, 80, 80
2, 10941, Note_on_c, 0, 80, 0
2, 10944, Note_on_c, 0, 81, 80
2, 10989, Note_on_c, 0, 81, 0
2, 10992, Note_on_c, 0, 83, 80
2, 11037, Note_on_c, 0, 83, 0
2, 11040, Note_on_c, 0, 81, 80
2, 11085, Note_on_c, 0, 81, 0
2, 11088, Note_on_c, 0, 80, 80
2, 11133, Note_on_c, 0, 80, 0
2, 11136, Note_on_c, 0, 81, 96
2, 11184, Note_on_c, 0, 81, 0
2, 11184, Note_on_c, 0, 79, 80
2, 11229, Note_on_c, 0, 79, 0
2, 11232, Note_on_c, 0, 77, 80
2, 11277, Note_on_c, 0, 77, 0
2, 11280, Note_on_c, 0, 76, 80
2, 11325, Note_on_c, 0, 76, 0
2, 11328, Note_on_c, 0, 77, 80
2, 11373, Note_on_c, 0, 77, 0
2, 11376, Note_on_c, 0, 79, 80
2, 11421, Note_on_c, 0, 79, 0
2, 11424, Note_on_c, 0, 77, 80
2, 11469, Note_on_c, 0, 77, 0
2, 11472, Note_on_c, 0, 76, 80
2, 11517, Note_on_c, 0, 76, 0
2, 11520, Note_on_c, 0, 77, 96
2, 11568, Note_on_c, 0, 77, 0
2, 11568, Note_on_c, 0, 76, 80
2, 11613, Note_on_c, 0, 76, 0
2, 11616, Note_on_c, 0, 74, 80
2, 11661, Note_on_c, 0, 74, 0
2, 11664, Note_on_c, 0, 73, 80
2, 11709, Note_on_c, 0, 73, 0
2, 11712, Note_on_c, 0, 74, 80
2, 11757, Note_on_c, 0, 74, 0
2, 11760, Note_on_c, 0, 77, 80
2, 11760, Note_on_c, 0, 69, 80
2, 11805, Note_on_c, 0, 77, 0
2, 11805, Note_on_c, 0, 69, 0
2, 11808, Note_on_c, 0, 76, 80
2, 11808, Note_on_c, 0, 67, 80
2, 11853, Note_on_c, 0, 76, 0
2, 11853, Note_on_c, 0, 67, 0
2, 11856, Note_on_c, 0, 74, 80
2, 11856, Note_on_c, 0, 65, 80
2, 11901, Note_on_c, 0, 74, 0
2, 11901, Note_on_c, 0, 65, 0
2, 11904, Note_on_c, 0, 73, 96
2, 11904, Note_on_c, 0, 64, 96
2, 11952, Note_on_c, 0, 73, 0
2, 11952, Note_on_c, 0, 64, 0
2, 11952, Note_on_c, 0, 74, 80
2, 11952, Note_on_c, 0, 65, 80
2, 11997, Note_on_c, 0, 74, 0
2, 11997, Note_on_c, 0, 65, 0
2, 12000, Note_on_c, 0, 74, 80
2, 12000, Note_on_c, 0, 65, 80
2, 12048, Note_on_c, 0, 74, 0
2, 12048, Note_on_c, 0, 65, 0
2, 12048, Note_on_c, 0, 73, 80
2, 12048, Note_on_c, 0, 64, 80
2, 12093, Note_on_c, 0, 73, 0
2, 12093, Note_on_c, 0, 64, 0
2, 12096, Note_on_c, 0, 73, 80
2, 12096, Note_on_c, 0, 64, 80
2, 12144, Note_on_c, 0, 73, 0
2, 12144, Note_on_c, 0, 64, 0
2, 12144, Note_on_c, 0, 74, 80
2, 12144, Note_on_c, 0, 65, 80
2, 12189, Note_on_c, 0, 74, 0
2, 12189, Note_on_c, 0, 65, 0
2, 12192, Note_on_c, 0, 74, 80
2, 12192, Note_on_c, 0, 65, 80
2, 12240, Note_on_c, 0, 74, 0
2, 12240, Note_on_c, 0, 65, 0
2, 12240, Note_on_c, 0, 73, 80
2, 12240, Note_on_c, 0, 64, 80
2, 12285, Note_on_c, 0, 73, 0
2, 12285, Note_on_c, 0, 64, 0
2, 12288, Note_on_c, 0, 74, 96
2, 12288, Note_on_c, 0, 71, 96
2, 12288, Note_on_c, 0, 64, 96
2, 12384, Note_on_c, 0, 74, 0
2, 12384, Note_on_c, 0, 71, 0
2, 12384, Note_on_c, 0, 64, 0
2, 12432, Note_on_c, 0, 71, 80
2, 12455, Note_on_c, 0, 71, 0
2, 12456, Note_on_c, 0, 72, 80
2, 12479, Note_on_c, 0, 72, 0
2, 12480, Note_on_c, 0, 74, 80
2, 12525, Note_on_c, 0, 74, 0
2, 12528, Note_on_c, 0, 71, 80
2, 12551, Note_on_c, 0, 71, 0
2, 12552, Note_on_c, 0, 72, 80
2, 12575, Note_on_c, 0, 72, 0
2, 12576, Note_on_c, 0, 74, 80
2, 12621, Note_on_c, 0, 74, 0
2, 12624, Note_on_c, 0, 72, 80
2, 12647, Note_on_c, 0, 72, 0
2, 12648, Note_on_c, 0, 71, 80
2, 12671, Note_on_c, 0, 71, 0
2, 12672, Note_on_c, 0, 72, 96
2, 12672, Note_on_c, 0, 69, 96
2, 12672, Note_on_c, 0, 62, 96
2, 12768, Note_on_c, 0, 72, 0
2, 12768, Note_on_c, 0, 69, 0
2, 12768, Note_on_c, 0, 62, 0
2, 12816, Note_on_c, 0, 69, 80
2, 12839, Note_on_c, 0, 69, 0
2, 12840, Note_on_c, 0, 71, 80
2, 12863, Note_on_c, 0, 71, 0
2, 12864, Note_on_c, 0, 72, 80
2, 12909, Note_on_c, 0, 72, 0
2, 12912, Note_on_c, 0, 69, 80
2, 12935, Note_on_c, 0, 69, 0
2, 12936, Note_on_c, 0, 71, 80
2, 12959, Note_on_c, 0, 71, 0
2, 12960, Note_on_c, 0, 72, 80
2, 13005, Note_on_c, 0, 72, 0
2, 13008, Note_on_c, 0, 71, 80
2, 13031, Note_on_c, 0, 71, 0
2, 13032, Note_on_c, 0, 69, 80
2, 13055, Note_on_c, 0, 69, 0
2, 13056, Note_on_c, 0, 71, 96
2, 13056, Note_on_c, 0, 68, 96
2, 13152, Note_on_c, 0, 71, 0
2, 13152, Note_on_c, 0, 68, 0
2, 13200, Note_on_c, 0, 68, 80
2, 13223, Note_on_c, 0, 68, 0
2, 13224, Note_on_c, 0, 70, 80
2, 13247, Note_on_c, 0, 70, 0
2, 13248, Note_on_c, 0, 71, 80
2, 13293, Note_on_c, 0, 71, 0
2, 13296, Note_on_c, 0, 74, 80
2, 13341, Note_on_c, 0, 74, 0
2, 13344, Note_on_c, 0, 73, 80
2, 13389, Note_on_c, 0, 73, 0
2, 13392, Note_on_c, 0, 71, 80
2, 13437, Note_on_c, 0, 71, 0
2, 13440, Note_on_c, 0, 71, 80
2, 13632, Note_on_c, 0, 71, 0
2, 13632, Note_on_c, 0, 70, 80
2, 13703, Note_on_c, 0, 70, 0
2, 13728, Note_on_c, 0, 62, 80
2, 13767, Note_on_c, 0, 62, 0
2, 13824, Note_on_c, 0, 62, 96
2, 13836, Note_on_c, 0, 62, 0
2, 13836, Note_on_c, 0, 64, 96
2, 13848, Note_on_c, 0, 64, 0
2, 13848, Note_on_c, 0, 62, 96
2, 13920, Note_on_c, 0, 62, 0
2, 13920, Note_on_c, 0, 62, 80
2, 13950, Note_on_c, 0, 62, 0
2, 13952, Note_on_c, 0, 66, 80
2, 13982, Note_on_c, 0, 66, 0
2, 13984, Note_on_c, 0, 69, 80
2, 14014, Note_on_c, 0, 69, 0
2, 14016, Note_on_c, 0, 60, 96
2, 14112, Note_on_c, 0, 60, 0
2, 14112, Note_on_c, 0, 60, 80
2, 14142, Note_on_c, 0, 60, 0
2, 14144, Note_on_c, 0, 66, 80
2, 14174, Note_on_c, 0, 66, 0
2, 14176, Note_on_c, 0, 69, 80
2, 14206, Note_on_c, 0, 69, 0
2, 14208, Note_on_c, 0, 59, 96
2, 14400, Note_on_c, 0, 59, 0
2, 14496, Note_on_c, 0, 59, 80
2, 14535, Note_on_c, 0, 59, 0
2, 14592, Note_on_c, 0, 59, 96
2, 14688, Note_on_c, 0, 59, 0
2, 14688, Note_on_c, 0, 59, 80
2, 14718, Note_on_c, 0, 59, 0
2, 14720, Note_on_c, 0, 63, 80
2, 14750, Note_on_c, 0, 63, 0
2, 14752, Note_on_c, 0, 66, 80
2, 14782, Note_on_c, 0, 66, 0
2, 14784, Note_on_c, 0, 57, 96
2, 14880, Note_on_c, 0, 57, 0
2, 14880, Note_on_c, 0, 57, 80
2, 14910, Note_on_c, 0, 57, 0
2, 14912, Note_on_c, 0, 63, 80
2, 14942, Note_on_c, 0, 63, 0
2, 14944, Note_on_c, 0, 66, 80
2, 14974, Note_on_c, 0, 66, 0
2, 14976, Note_on_c, 0, 55, 96
2, 15264, Note_on_c, 0, 55, 0
2, 15360, Note_on_c, 0, 53, 80
2, 15537, Note_on_c, 0, 53, 0
2, 15552, Note_on_c, 0, 51, 80
2, 15729, Note_on_c, 0, 51, 0
2, 15744, Note_on_c, 0, 52, 80
2, 15877, Note_on_c, 0, 52, 0
2, 15888, Note_on_c, 0, 54, 80
2, 15933, Note_on_c, 0, 54, 0
2, 15936, Note_on_c, 0, 55, 80
2, 15981, Note_on_c, 0, 55, 0
2, 15984, Note_on_c, 0, 54, 80
2, 16029, Note_on_c, 0, 54, 0
2, 16032, Note_on_c, 0, 55, 80
2, 16077, Note_on_c, 0, 55, 0
2, 16080, Note_on_c, 0, 57, 80
2, 16125, Note_on_c, 0, 57, 0
2, 16128, Note_on_c, 0, 58, 80
2, 16320, Note_on_c, 0, 58, 0
2, 16320, Note_on_c, 0, 59, 80
2, 16387, Note_on_c, 0, 59, 0
2, 16416, Note_on_c, 0, 71, 75
2, 16455, Note_on_c, 0, 71, 0
2, 16512, Note_on_c, 0, 76, 75
2, 16557, Note_on_c, 0, 76, 0
2, 16560, Note_on_c, 0, 79, 75
2, 16605, Note_on_c, 0, 79, 0
2, 16608, Note_on_c, 0, 78, 75
2, 16653, Note_on_c, 0, 78, 0
2, 16656, Note_on_c, 0, 76, 76
2, 16701, Note_on_c, 0, 76, 0
2, 16704, Note_on_c, 0, 75, 77
2, 16749, Note_on_c, 0, 75, 0
2, 16752, Note_on_c, 0, 78, 77
2, 16797, Note_on_c, 0, 78, 0
2, 16800, Note_on_c, 0, 76, 78
2, 16845, Note_on_c, 0, 76, 0
2, 16848, Note_on_c, 0, 75, 79
2, 16893, Note_on_c, 0, 75, 0
2, 16896, Note_on_c, 0, 76, 80
2, 16941, Note_on_c, 0, 76, 0
2, 16944, Note_on_c, 0, 83, 79
2, 16964, Note_on_c, 0, 83, 0
2, 16992, Note_on_c, 0, 81, 78
2, 17012, Note_on_c, 0, 81, 0
2, 17040, Note_on_c, 0, 79, 78
2, 17060, Note_on_c, 0, 79, 0
2, 17088, Note_on_c, 0, 78, 77
2, 17108, Note_on_c, 0, 78, 0
2, 17136, Note_on_c, 0, 76, 76
2, 17156, Note_on_c, 0, 76, 0
2, 17184, Note_on_c, 0, 75, 76
2, 17232, Note_on_c, 0, 75, 0
2, 17232, Note_on_c, 0, 76, 75
2, 17277, Note_on_c, 0, 76, 0
2, 17280, Note_on_c, 0, 71, 75
2, 17325, Note_on_c, 0, 71, 0
2, 17328, Note_on_c, 0, 79, 75
2, 17373, Note_on_c, 0, 79, 0
2, 17376, Note_on_c, 0, 78, 75
2, 17421, Note_on_c, 0, 78, 0
2, 17424, Note_on_c, 0, 76, 75
2, 17469, Note_on_c, 0, 76, 0
2, 17472, Note_on_c, 0, 75, 76
2, 17517, Note_on_c, 0, 75, 0
2, 17520, Note_on_c, 0, 78, 76
2, 17565, Note_on_c, 0, 78, 0
2, 17568, Note_on_c, 0, 76, 76
2, 17613, Note_on_c, 0, 76, 0
2, 17616, Note_on_c, 0, 75, 77
2, 17661, Note_on_c, 0, 75, 0
2, 17664, Note_on_c, 0, 76, 77
2, 17709, Note_on_c, 0, 76, 0
2, 17712, Note_on_c, 0, 83, 77
2, 17732, Note_on_c, 0, 83, 0
2, 17760, Note_on_c, 0, 81, 78
2, 17780, Note_on_c, 0, 81, 0
2, 17808, Note_on_c, 0, 79, 78
2, 17828, Note_on_c, 0, 79, 0
2, 17856, Note_on_c, 0, 78, 78
2, 17876, Note_on_c, 0, 78, 0
2, 17904, Note_on_c, 0, 76, 79
2, 17924, Note_on_c, 0, 76, 0
2, 17952, Note_on_c, 0, 75, 79
2, 18000, Note_on_c, 0, 75, 0
2, 18000, Note_on_c, 0, 76, 75
2, 18045, Note_on_c, 0, 76, 0
2, 18048, Note_on_c, 0, 72, 75
2, 18060, Note_on_c, 0, 72, 0
2, 18060, Note_on_c, 0, 74, 75
2, 18072, Note_on_c, 0, 74, 0
2, 18072, Note_on_c, 0, 72, 75
2, 18093, Note_on_c, 0, 72, 0
2, 18096, Note_on_c, 0, 71, 75
2, 18141, Note_on_c, 0, 71, 0
2, 18144, Note_on_c, 0, 72, 76
2, 18233, Note_on_c, 0, 72, 0
2, 18240, Note_on_c, 0, 72, 78
2, 18252, Note_on_c, 0, 72, 0
2, 18252, Note_on_c, 0, 74, 78
2, 18264, Note_on_c, 0, 74, 0
2, 18264, Note_on_c, 0, 72, 78
2, 18285, Note_on_c, 0, 72, 0
2, 18288, Note_on_c, 0, 71, 79
2, 18333, Note_on_c, 0, 71, 0
2, 18336, Note_on_c, 0, 72, 80
2, 18425, Note_on_c, 0, 72, 0
2, 18432, Note_on_c, 0, 81, 96
2, 18480, Note_on_c, 0, 81, 0
2, 18480, Note_on_c, 0, 79, 79
2, 18525, Note_on_c, 0, 79, 0
2, 18528, Note_on_c, 0, 78, 78
2, 18573, Note_on_c, 0, 78, 0
2, 18576, Note_on_c, 0, 76, 78
2, 18621, Note_on_c, 0, 76, 0
2, 18624, Note_on_c, 0, 74, 77
2, 18669, Note_on_c, 0, 74, 0
2, 18672, Note_on_c, 0, 72, 76
2, 18717, Note_on_c, 0, 72, 0
2, 18720, Note_on_c, 0, 71, 76
2, 18765, Note_on_c, 0, 71, 0
2, 18768, Note_on_c, 0, 69, 75
2, 18813, Note_on_c, 0, 69, 0
2, 18816, Note_on_c, 0, 71, 75
2, 18828, Note_on_c, 0, 71, 0
2, 18828, Note_on_c, 0, 72, 75
2, 18840, Note_on_c, 0, 72, 0
2, 18840, Note_on_c, 0, 71, 75
2, 18861, Note_on_c, 0, 71, 0
2, 18864, Note_on_c, 0, 69, 75
2, 18909, Note_on_c, 0, 69, 0
2, 18912, Note_on_c, 0, 71, 76
2, 19001, Note_on_c, 0, 71, 0
2, 19008, Note_on_c, 0, 71, 77
2, 19020, Note_on_c, 0, 71, 0
2, 19020, Note_on_c, 0, 72, 77
2, 19032, Note_on_c, 0, 72, 0
2, 19032, Note_on_c, 0, 71, 77
2, 19053, Note_on_c, 0, 71, 0
2, 19056, Note_on_c, 0, 69, 78
2, 19101, Note_on_c, 0, 69, 0
2, 19104, Note_on_c, 0, 71, 78
2, 19193, Note_on_c, 0, 71, 0
2, 19200, Note_on_c, 0, 79, 96
2, 19248, Note_on_c, 0, 79, 0
2, 19248, Note_on_c, 0, 78, 79
2, 19293, Note_on_c, 0, 78, 0
2, 19296, Note_on_c, 0, 76, 78
2, 19341, Note_on_c, 0, 76, 0
2, 19344, Note_on_c, 0, 74, 78
2, 19389, Note_on_c, 0, 74, 0
2, 19392, Note_on_c, 0, 72, 77
2, 19437, Note_on_c, 0, 72, 0
2, 19440, Note_on_c, 0, 71, 76
2, 19485, Note_on_c, 0, 71, 0
2, 19488, Note_on_c, 0, 69, 76
2, 19533, Note_on_c, 0, 69, 0
2, 19536, Note_on_c, 0, 67, 75
2, 19581, Note_on_c, 0, 67, 0
2, 19584, Note_on_c, 0, 69, 75
2, 19596, Note_on_c, 0, 69, 0
2, 19596, Note_on_c, 0, 71, 75
2, 19608, Note_on_c, 0, 71, 0
2, 19608, Note_on_c, 0, 69, 75
2, 19629, Note_on_c, 0, 69, 0
2, 19632, Note_on_c, 0, 67, 75
2, 19677, Note_on_c, 0, 67, 0
2, 19680, Note_on_c, 0, 69, 76
2, 19769, Note_on_c, 0, 69, 0
2, 19776, Note_on_c, 0, 69, 77
2, 19788, Note_on_c, 0, 69, 0
2, 19788, Note_on_c, 0, 71, 77
2, 19800, Note_on_c, 0, 71, 0
2, 19800, Note_on_c, 0, 69, 77
2, 19821, Note_on_c, 0, 69, 0
2, 19824, Note_on_c, 0, 67, 78
2, 19869, Note_on_c, 0, 67, 0
2, 19872, Note_on_c, 0, 69, 78
2, 19961, Note_on_c, 0, 69, 0
2, 19968, Note_on_c, 0, 78, 80
2, 20013, Note_on_c, 0, 78, 0
2, 20016, Note_on_c, 0, 76, 79
2, 20061, Note_on_c, 0, 76, 0
2, 20064, Note_on_c, 0, 75, 78
2, 20109, Note_on_c, 0, 75, 0
2, 20112, Note_on_c, 0, 76, 78
2, 20157, Note_on_c, 0, 76, 0
2, 20160, Note_on_c, 0, 78, 77
2, 20249, Note_on_c, 0, 78, 0
2, 20256, Note_on_c, 0, 72, 92
2, 20397, Note_on_c, 0, 72, 0
2, 20400, Note_on_c, 0, 66, 75
2, 20445, Note_on_c, 0, 66, 0
2, 20448, Note_on_c, 0, 71, 75
2, 20493, Note_on_c, 0, 71, 0
2, 20496, Note_on_c, 0, 69, 75
2, 20541, Note_on_c, 0, 69, 0
2, 20544, Note_on_c, 0, 67, 75
2, 20589, Note_on_c, 0, 67, 0
2, 20592, Note_on_c, 0, 66, 75
2, 20637, Note_on_c, 0, 66, 0
2, 20640, Note_on_c, 0, 64, 76
2, 20685, Note_on_c, 0, 64, 0
2, 20688, Note_on_c, 0, 63, 76
2, 20733, Note_on_c, 0, 63, 0
2, 20736, Note_on_c, 0, 64, 76
2, 20781, Note_on_c, 0, 64, 0
2, 20784, Note_on_c, 0, 59, 76
2, 20829, Note_on_c, 0, 59, 0
2, 20832, Note_on_c, 0, 60, 77
2, 20877, Note_on_c, 0, 60, 0
2, 20880, Note_on_c, 0, 59, 77
2, 20925, Note_on_c, 0, 59, 0
2, 20928, Note_on_c, 0, 57, 77
2, 20973, Note_on_c, 0, 57, 0
2, 20976, Note_on_c, 0, 55, 77
2, 21021, Note_on_c, 0, 55, 0
2, 21024, Note_on_c, 0, 54, 78
2, 21069, Note_on_c, 0, 54, 0
2, 21072, Note_on_c, 0, 52, 78
2, 21117, Note_on_c, 0, 52, 0
2, 21120, Note_on_c, 0, 51, 78
2, 21165, Note_on_c, 0, 51, 0
2, 21168, Note_on_c, 0, 60, 78
2, 21213, Note_on_c, 0, 60, 0
2, 21216, Note_on_c, 0, 59, 79
2, 21261, Note_on_c, 0, 59, 0
2, 21264, Note_on_c, 0, 57, 79
2, 21309, Note_on_c, 0, 57, 0
2, 21312, Note_on_c, 0, 59, 79
2, 21351, Note_on_c, 0, 59, 0
2, 21408, Note_on_c, 0, 59, 96
2, 21447, Note_on_c, 0, 59, 0
2, 21504, Note_on_c, 0, 59, 97
2, 21504, Note_on_c, 0, 55, 97
2, 21504, Note_on_c, 0, 52, 97
2, 21769, Note_on_c, 0, 59, 0
2, 21769, Note_on_c, 0, 55, 0
2, 21769, Note_on_c, 0, 52, 0
2, 21936, Note_on_c, 0, 71, 80
2, 21956, Note_on_c, 0, 71, 0
2, 21984, Note_on_c, 0, 71, 80
2, 21996, Note_on_c, 0, 71, 0
2, 21996, Note_on_c, 0, 72, 80
2, 22008, Note_on_c, 0, 72, 0
2, 22008, Note_on_c, 0, 71, 80
2, 22029, Note_on_c, 0, 71, 0
2, 22032, Note_on_c, 0, 69, 80
2, 22055, Note_on_c, 0, 69, 0
2, 22056, Note_on_c, 0, 71, 80
2, 22079, Note_on_c, 0, 71, 0
2, 22080, Note_on_c, 0, 76, 80
2, 22128, Note_on_c, 0, 76, 0
2, 22128, Note_on_c, 0, 71, 80
2, 22148, Note_on_c, 0, 71, 0
2, 22176, Note_on_c, 0, 71, 80
2, 22265, Note_on_c, 0, 71, 0
2, 22320, Note_on_c, 0, 71, 80
2, 22340, Note_on_c, 0, 71, 0
2, 22368, Note_on_c, 0, 71, 80
2, 22380, Note_on_c, 0, 71, 0
2, 22380, Note_on_c, 0, 72, 80
2, 22392, Note_on_c, 0, 72, 0
2, 22392, Note_on_c, 0, 71, 80
2, 22413, Note_on_c, 0, 71, 0
2, 22416, Note_on_c, 0, 69, 80
2, 22439, Note_on_c, 0, 69, 0
2, 22440, Note_on_c, 0, 71, 80
2, 22463, Note_on_c, 0, 71, 0
2, 22464, Note_on_c, 0, 78, 80
2, 22512, Note_on_c, 0, 78, 0
2, 22512, Note_on_c, 0, 71, 80
2, 22532, Note_on_c, 0, 71, 0
2, 22560, Note_on_c, 0, 71, 80
2, 22649, Note_on_c, 0, 71, 0
2, 22656, Note_on_c, 0, 79, 80
2, 22701, Note_on_c, 0, 79, 0
2, 22704, Note_on_c, 0, 81, 80
2, 22749, Note_on_c, 0, 81, 0
2, 22752, Note_on_c, 0, 83, 80
2, 22797, Note_on_c, 0, 83, 0
2, 22800, Note_on_c, 0, 79, 80
2, 22845, Note_on_c, 0, 79, 0
2, 22848, Note_on_c, 0, 76, 80
2, 22893, Note_on_c, 0, 76, 0
2, 22896, Note_on_c, 0, 78, 80
2, 22941, Note_on_c, 0, 78, 0
2, 22944, Note_on_c, 0, 79, 80
2, 22989, Note_on_c, 0, 79, 0
2, 22992, Note_on_c, 0, 76, 80
2, 23037, Note_on_c, 0, 76, 0
2, 23040, Note_on_c, 0, 72, 80
2, 23085, Note_on_c, 0, 72, 0
2, 23088, Note_on_c, 0, 74, 80
2, 23133, Note_on_c, 0, 74, 0
2, 23136, Note_on_c, 0, 76, 80
2, 23181, Note_on_c, 0, 76, 0
2, 23184, Note_on_c, 0, 72, 80
2, 23229, Note_on_c, 0, 72, 0
2, 23232, Note_on_c, 0, 69, 80
2, 23277, Note_on_c, 0, 69, 0
2, 23280, Note_on_c, 0, 71, 80
2, 23325, Note_on_c, 0, 71, 0
2, 23328, Note_on_c, 0, 72, 80
2, 23373, Note_on_c, 0, 72, 0
2, 23376, Note_on_c, 0, 69, 80
2, 23421, Note_on_c, 0, 69, 0
2, 23472, Note_on_c, 0, 81, 80
2, 23495, Note_on_c, 0, 81, 0
2, 23496, Note_on_c, 0, 83, 80
2, 23519, Note_on_c, 0, 83, 0
2, 23520, Note_on_c, 0, 84, 80
2, 23565, Note_on_c, 0, 84, 0
2, 23568, Note_on_c, 0, 81, 80
2, 23613, Note_on_c, 0, 81, 0
2, 23616, Note_on_c, 0, 78, 80
2, 23661, Note_on_c, 0, 78, 0
2, 23664, Note_on_c, 0, 78, 80
2, 23687, Note_on_c, 0, 78, 0
2, 23688, Note_on_c, 0, 79, 80
2, 23711, Note_on_c, 0, 79, 0
2, 23712, Note_on_c, 0, 81, 80
2, 23757, Note_on_c, 0, 81, 0
2, 23760, Note_on_c, 0, 78, 80
2, 23805, Note_on_c, 0, 78, 0
2, 23808, Note_on_c, 0, 75, 80
2, 23853, Note_on_c, 0, 75, 0
2, 23856, Note_on_c, 0, 75, 80
2, 23879, Note_on_c, 0, 75, 0
2, 23880, Note_on_c, 0, 76, 80
2, 23903, Note_on_c, 0, 76, 0
2, 23904, Note_on_c, 0, 78, 80
2, 23949, Note_on_c, 0, 78, 0
2, 23952, Note_on_c, 0, 75, 80
2, 23997, Note_on_c, 0, 75, 0
2, 24000, Note_on_c, 0, 71, 80
2, 24089, Note_on_c, 0, 71, 0
2, 24096, Note_on_c, 0, 76, 80
2, 24185, Note_on_c, 0, 76, 0
2, 24240, Note_on_c, 0, 79, 80
2, 24285, Note_on_c, 0, 79, 0
2, 24288, Note_on_c, 0, 78, 80
2, 24333, Note_on_c, 0, 78, 0
2, 24336, Note_on_c, 0, 76, 80
2, 24381, Note_on_c, 0, 76, 0
2, 24384, Note_on_c, 0, 85, 80
2, 24473, Note_on_c, 0, 85, 0
2, 24624, Note_on_c, 0, 78, 80
2, 24669, Note_on_c, 0, 78, 0
2, 24672, Note_on_c, 0, 76, 80
2, 24717, Note_on_c, 0, 76, 0
2, 24720, Note_on_c, 0, 74, 80
2, 24765, Note_on_c, 0, 74, 0
2, 24768, Note_on_c, 0, 83, 80
2, 24857, Note_on_c, 0, 83, 0
2, 25008, Note_on_c, 0, 76, 80
2, 25053, Note_on_c, 0, 76, 0
2, 25056, Note_on_c, 0, 74, 80
2, 25068, Note_on_c, 0, 74, 0
2, 25068, Note_on_c, 0, 76, 80
2, 25080, Note_on_c, 0, 76, 0
2, 25080, Note_on_c, 0, 74, 80
2, 25101, Note_on_c, 0, 74, 0
2, 25104, Note_on_c, 0, 72, 80
2, 25149, Note_on_c, 0, 72, 0
2, 25152, Note_on_c, 0, 81, 80
2, 25241, Note_on_c, 0, 81, 0
2, 25392, Note_on_c, 0, 74, 80
2, 25437, Note_on_c, 0, 74, 0
2, 25440, Note_on_c, 0, 72, 80
2, 25485, Note_on_c, 0, 72, 0
2, 25488, Note_on_c, 0, 71, 80
2, 25533, Note_on_c, 0, 71, 0
2, 25536, Note_on_c, 0, 79, 80
2, 25625, Note_on_c, 0, 79, 0
2, 25776, Note_on_c, 0, 72, 80
2, 25821, Note_on_c, 0, 72, 0
2, 25824, Note_on_c, 0, 70, 80
2, 25836, Note_on_c, 0, 70, 0
2, 25836, Note_on_c, 0, 72, 80
2, 25848, Note_on_c, 0, 72, 0
2, 25848, Note_on_c, 0, 70, 80
2, 25869, Note_on_c, 0, 70, 0
2, 25872, Note_on_c, 0, 69, 80
2, 25917, Note_on_c, 0, 69, 0
2, 25920, Note_on_c, 0, 77, 80
2, 25965, Note_on_c, 0, 77, 0
2, 25968, Note_on_c, 0, 69, 80
2, 26013, Note_on_c, 0, 69, 0
2, 26016, Note_on_c, 0, 70, 80
2, 26061, Note_on_c, 0, 70, 0
2, 26064, Note_on_c, 0, 69, 80
2, 26109, Note_on_c, 0, 69, 0
2, 26112, Note_on_c, 0, 69, 80
2, 26208, Note_on_c, 0, 69, 0
2, 26208, Note_on_c, 0, 68, 80
2, 26220, Note_on_c, 0, 68, 0
2, 26220, Note_on_c, 0, 69, 80
2, 26232, Note_on_c, 0, 69, 0
2, 26232, Note_on_c, 0, 68, 80
2, 26385, Note_on_c, 0, 68, 0
2, 26400, Note_on_c, 0, 64, 80
2, 26423, Note_on_c, 0, 64, 0
2, 26424, Note_on_c, 0, 66, 80
2, 26447, Note_on_c, 0, 66, 0
2, 26448, Note_on_c, 0, 68, 80
2, 26471, Note_on_c, 0, 68, 0
2, 26472, Note_on_c, 0, 69, 80
2, 26495, Note_on_c, 0, 69, 0
2, 26496, Note_on_c, 0, 71, 80
2, 26585, Note_on_c, 0, 71, 0
2, 26592, Note_on_c, 0, 68, 80
2, 26607, Note_on_c, 0, 68, 0
2, 26608, Note_on_c, 0, 69, 80
2, 26623, Note_on_c, 0, 69, 0
2, 26624, Note_on_c, 0, 71, 80
2, 26639, Note_on_c, 0, 71, 0
2, 26640, Note_on_c, 0, 72, 80
2, 26655, Note_on_c, 0, 72, 0
2, 26656, Note_on_c, 0, 74, 80
2, 26671, Note_on_c, 0, 74, 0
2, 26672, Note_on_c, 0, 76, 80
2, 26687, Note_on_c, 0, 76, 0
2, 26688, Note_on_c, 0, 77, 80
2, 26777, Note_on_c, 0, 77, 0
2, 26784, Note_on_c, 0, 71, 80
2, 26796, Note_on_c, 0, 71, 0
2, 26796, Note_on_c, 0, 72, 80
2, 26808, Note_on_c, 0, 72, 0
2, 26808, Note_on_c, 0, 74, 80
2, 26820, Note_on_c, 0, 74, 0
2, 26820, Note_on_c, 0, 76, 80
2, 26832, Note_on_c, 0, 76, 0
2, 26832, Note_on_c, 0, 78, 80
2, 26844, Note_on_c, 0, 78, 0
2, 26844, Note_on_c, 0, 80, 80
2, 26856, Note_on_c, 0, 80, 0
2, 26856, Note_on_c, 0, 81, 80
2, 26868, Note_on_c, 0, 81, 0
2, 26868, Note_on_c, 0, 83, 80
2, 26880, Note_on_c, 0, 83, 0
2, 26880, Note_on_c, 0, 84, 96
2, 26928, Note_on_c, 0, 84, 0
2, 26928, Note_on_c, 0, 83, 80
2, 26973, Note_on_c, 0, 83, 0
2, 26976, Note_on_c, 0, 81, 80
2, 27021, Note_on_c, 0, 81, 0
2, 27024, Note_on_c, 0, 80, 80
2, 27069, Note_on_c, 0, 80, 0
2, 27072, Note_on_c, 0, 81, 80
2, 27117, Note_on_c, 0, 81, 0
2, 27120, Note_on_c, 0, 83, 80
2, 27165, Note_on_c, 0, 83, 0
2, 27168, Note_on_c, 0, 81, 80
2, 27213, Note_on_c, 0, 81, 0
2, 27216, Note_on_c, 0, 80, 80
2, 27261, Note_on_c, 0, 80, 0
2, 27264, Note_on_c, 0, 81, 96
2, 27312, Note_on_c, 0, 81, 0
2, 27312, Note_on_c, 0, 79, 80
2, 27357, Note_on_c, 0, 79, 0
2, 27360, Note_on_c, 0, 77, 80
2, 27405, Note_on_c, 0, 77, 0
2, 27408, Note_on_c, 0, 76, 80
2, 27453, Note_on_c, 0, 76, 0
2, 27456, Note_on_c, 0, 77, 80
2, 27501, Note_on_c, 0, 77, 0
2, 27504, Note_on_c, 0, 79, 80
2, 27549, Note_on_c, 0, 79, 0
2, 27552, Note_on_c, 0, 77, 80
2, 27597, Note_on_c, 0, 77, 0
2, 27600, Note_on_c, 0, 76, 80
2, 27645, Note_on_c, 0, 76, 0
2, 27648, Note_on_c, 0, 77, 96
2, 27696, Note_on_c, 0, 77, 0
2, 27696, Note_on_c, 0, 76, 80
2, 27741, Note_on_c, 0, 76, 0
2, 27744, Note_on_c, 0, 74, 80
2, 27789, Note_on_c, 0, 74, 0
2, 27792, Note_on_c, 0, 73, 80
2, 27837, Note_on_c, 0, 73, 0
2, 27840, Note_on_c, 0, 74, 80
2, 27885, Note_on_c, 0, 74, 0
2, 27888, Note_on_c, 0, 77, 80
2, 27888, Note_on_c, 0, 69, 80
2, 27933, Note_on_c, 0, 77, 0
2, 27933, Note_on_c, 0, 69, 0
2, 27936, Note_on_c, 0, 76, 80
2, 27936, Note_on_c, 0, 67, 80
2, 27981, Note_on_c, 0, 76, 0
2, 27981, Note_on_c, 0, 67, 0
2, 27984, Note_on_c, 0, 74, 80
2, 27984, Note_on_c, 0, 65, 80
2, 28029, Note_on_c, 0, 74, 0
2, 28029, Note_on_c, 0, 65, 0
2, 28032, Note_on_c, 0, 73, 96
2, 28032, Note_on_c, 0, 64, 96
2, 28080, Note_on_c, 0, 73, 0
2, 28080, Note_on_c, 0, 64, 0
2, 28080, Note_on_c, 0, 74, 80
2, 28080, Note_on_c, 0, 65, 80
2, 28125, Note_on_c, 0, 74, 0
2, 28125, Note_on_c, 0, 65, 0
2, 28128, Note_on_c, 0, 74, 80
2, 28128, Note_on_c, 0, 65, 80
2, 28176, Note_on_c, 0, 74, 0
2, 28176, Note_on_c, 0, 65, 0
2, 28176, Note_on_c, 0, 73, 80
2, 28176, Note_on_c, 0, 64, 80
2, 28221, Note_on_c, 0, 73, 0
2, 28221, Note_on_c, 0, 64, 0
2, 28224, Note_on_c, 0, 73, 80
2, 28224, Note_on_c, 0, 64, 80
2, 28272, Note_on_c, 0, 73, 0
2, 28272, Note_on_c, 0, 64, 0
2, 28272, Note_on_c, 0, 74, 80
2, 28272, Note_on_c, 0, 65, 80
2, 28317, Note_on_c, 0, 74, 0
2, 28317, Note_on_c, 0, 65, 0
2, 28320, Note_on_c, 0, 74, 80
2, 28320, Note_on_c, 0, 65, 80
2, 28368, Note_on_c, 0, 74, 0
2, 28368, Note_on_c, 0, 65, 0
2, 28368, Note_on_c, 0, 73, 80
2, 28368, Note_on_c, 0, 64, 80
2, 28413, Note_on_c, 0, 73, 0
2, 28413, Note_on_c, 0, 64, 0
2, 28416, Note_on_c, 0, 74, 96
2, 28416, Note_on_c, 0, 71, 96
2, 28416, Note_on_c, 0, 64, 96
2, 28512, Note_on_c, 0, 74, 0
2, 28512, Note_on_c, 0, 71, 0
2, 28512, Note_on_c, 0, 64, 0
2, 28560, Note_on_c, 0, 71, 80
2, 28583, Note_on_c, 0, 71, 0
2, 28584, Note_on_c, 0, 72, 80
2, 28607, Note_on_c, 0, 72, 0
2, 28608, Note_on_c, 0, 74, 80
2, 28653, Note_on_c, 0, 74, 0
2, 28656, Note_on_c, 0, 71, 80
2, 28679, Note_on_c, 0, 71, 0
2, 28680, Note_on_c, 0, 72, 80
2, 28703, Note_on_c, 0, 72, 0
2, 28704, Note_on_c, 0, 74, 80
2, 28749, Note_on_c, 0, 74, 0
2, 28752, Note_on_c, 0, 72, 80
2, 28775, Note_on_c, 0, 72, 0
2, 28776, Note_on_c, 0, 71, 80
2, 28799, Note_on_c, 0, 71, 0
2, 28800, Note_on_c, 0, 72, 96
2, 28800, Note_on_c, 0, 69, 96
2, 28800, Note_on_c, 0, 62, 96
2, 28896, Note_on_c, 0, 72, 0
2, 28896, Note_on_c, 0, 69, 0
2, 28896, Note_on_c, 0, 62, 0
2, 28944, Note_on_c, 0, 69, 80
2, 28967, Note_on_c, 0, 69, 0
2, 28968, Note_on_c, 0, 71, 80
2, 28991, Note_on_c, 0, 71, 0
2, 28992, Note_on_c, 0, 72, 80
2, 29037, Note_on_c, 0, 72, 0
2, 29040, Note_on_c, 0, 69, 80
2, 29063, Note_on_c, 0, 69, 0
2, 29064, Note_on_c, 0, 71, 80
2, 29087, Note_on_c, 0, 71, 0
2, 29088, Note_on_c, 0, 72, 80
2, 29133, Note_on_c, 0, 72, 0
2, 29136, Note_on_c, 0, 71, 80
2, 29159, Note_on_c, 0, 71, 0
2, 29160, Note_on_c, 0, 69, 80
2, 29183, Note_on_c, 0, 69, 0
2, 29184, Note_on_c, 0, 71, 96
2, 29184, Note_on_c, 0, 68, 96
2, 29280, Note_on_c, 0, 71, 0
2, 29280, Note_on_c, 0, 68, 0
2, 29328, Note_on_c, 0, 68, 80
2, 29351, Note_on_c, 0, 68, 0
2, 29352, Note_on_c, 0, 70, 80
2, 29375, Note_on_c, 0, 70, 0
2, 29376, Note_on_c, 0, 71, 80
2, 29421, Note_on_c, 0, 71, 0
2, 29424, Note_on_c, 0, 74, 80
2, 29469, Note_on_c, 0, 74, 0
2, 29472, Note_on_c, 0, 73, 80
2, 29517, Note_on_c, 0, 73, 0
2, 29520, Note_on_c, 0, 71, 80
2, 29565, Note_on_c, 0, 71, 0
2, 29568, Note_on_c, 0, 71, 80
2, 29760, Note_on_c, 0, 71, 0
2, 29760, Note_on_c, 0, 70, 80
2, 29831, Note_on_c, 0, 70, 0
2, 29856, Note_on_c, 0, 62, 80
2, 29895, Note_on_c, 0, 62, 0
2, 29952, Note_on_c, 0, 62, 96
2, 29964, Note_on_c, 0, 62, 0
2, 29964, Note_on_c, 0, 64, 96
2, 29976, Note_on_c, 0, 64, 0
2, 29976, Note_on_c, 0, 62, 96
2, 30048, Note_on_c, 0, 62, 0
2, 30048, Note_on_c, 0, 62, 80
2, 30078, Note_on_c, 0, 62, 0
2, 30080, Note_on_c, 0, 66, 80
2, 30110, Note_on_c, 0, 66, 0
2, 30112, Note_on_c, 0, 69, 80
2, 30142, Note_on_c, 0, 69, 0
2, 30144, Note_on_c, 0, 60, 96
2, 30240, Note_on_c, 0, 60, 0
2, 30240, Note_on_c, 0, 60, 80
2, 30270, Note_on_c, 0, 60, 0
2, 30272, Note_on_c, 0, 66, 80
2, 30302, Note_on_c, 0, 66, 0
2, 30304, Note_on_c, 0, 69, 80
2, 30334, Note_on_c, 0, 69, 0
2, 30336, Note_on_c, 0, 59, 96
2, 30528, Note_on_c, 0, 59, 0
2, 30624, Note_on_c, 0, 59, 80
2, 30663, Note_on_c, 0, 59, 0
2, 30720, Note_on_c, 0, 59, 96
2, 30816, Note_on_c, 0, 59, 0
2, 30816, Note_on_c, 0, 59, 80
2, 30846, Note_on_c, 0, 59, 0
2, 30848, Note_on_c, 0, 63, 80
2, 30878, Note_on_c, 0, 63, 0
2, 30880, Note_on_c, 0, 66, 80
2, 30910, Note_on_c, 0, 66, 0
2, 30912, Note_on_c, 0, 57, 96
2, 31008, Note_on_c, 0, 57, 0
2, 31008, Note_on_c, 0, 57, 80
2, 31038, Note_on_c, 0, 57, 0
2, 31040, Note_on_c, 0, 63, 80
2, 31070, Note_on_c, 0, 63, 0
2, 31072, Note_on_c, 0, 66, 80
2, 31102, Note_on_c, 0, 66, 0
2, 31104, Note_on_c, 0, 55, 96
2, 31392, Note_on_c, 0, 55, 0
2, 31488, Note_on_c, 0, 53, 80
2, 31665, Note_on_c, 0, 53, 0
2, 31680, Note_on_c, 0, 51, 80
2, 31857, Note_on_c, 0, 51, 0
2, 31872, Note_on_c, 0, 52, 80
2, 32005, Note_on_c, 0, 52, 0
2, 32016, Note_on_c, 0, 54, 80
2, 32061, Note_on_c, 0, 54, 0
2, 32064, Note_on_c, 0, 55, 80
2, 32109, Note_on_c, 0, 55, 0
2, 32112, Note_on_c, 0, 54, 80
2, 32157, Note_on_c, 0, 54, 0
2, 32160, Note_on_c, 0, 55, 80
2, 32205, Note_on_c, 0, 55, 0
2, 32208, Note_on_c, 0, 57, 80
2, 32253, Note_on_c, 0, 57, 0
2, 32256, Note_on_c, 0, 58, 64
2, 32448, Note_on_c, 0, 58, 0
2, 32448, Note_on_c, 0, 59, 64
2, 32515, Note_on_c, 0, 59, 0
2, 32544, Note_on_c, 0, 74, 75
2, 32583, Note_on_c, 0, 74, 0
2, 32640, Note_on_c, 0, 79, 75
2, 32685, Note_on_c, 0, 79, 0
2, 32688, Note_on_c, 0, 83, 75
2, 32733, Note_on_c, 0, 83, 0
2, 32736, Note_on_c, 0, 81, 76
2, 32781, Note_on_c, 0, 81, 0
2, 32784, Note_on_c, 0, 79, 76
2, 32829, Note_on_c, 0, 79, 0
2, 32832, Note_on_c, 0, 78, 77
2, 32877, Note_on_c, 0, 78, 0
2, 32880, Note_on_c, 0, 81, 78
2, 32925, Note_on_c, 0, 81, 0
2, 32928, Note_on_c, 0, 79, 78
2, 32973, Note_on_c, 0, 79, 0
2, 32976, Note_on_c, 0, 78, 79
2, 33021, Note_on_c, 0, 78, 0
2, 33024, Note_on_c, 0, 79, 80
2, 33069, Note_on_c, 0, 79, 0
2, 33072, Note_on_c, 0, 86, 79
2, 33092, Note_on_c, 0, 86, 0
2, 33120, Note_on_c, 0, 84, 78
2, 33140, Note_on_c, 0, 84, 0
2, 33168, Note_on_c, 0, 83, 78
2, 33188, Note_on_c, 0, 83, 0
2, 33216, Note_on_c, 0, 81, 77
2, 33236, Note_on_c, 0, 81, 0
2, 33264, Note_on_c, 0, 79, 76
2, 33284, Note_on_c, 0, 79, 0
2, 33312, Note_on_c, 0, 78, 76
2, 33360, Note_on_c, 0, 78, 0
2, 33360, Note_on_c, 0, 81, 75
2, 33405, Note_on_c, 0, 81, 0
2, 33456, Note_on_c, 0, 79, 75
2, 33501, Note_on_c, 0, 79, 0
2, 33504, Note_on_c, 0, 78, 75
2, 33549, Note_on_c, 0, 78, 0
2, 33552, Note_on_c, 0, 76, 75
2, 33597, Note_on_c, 0, 76, 0
2, 33600, Note_on_c, 0, 74, 75
2, 33645, Note_on_c, 0, 74, 0
2, 33648, Note_on_c, 0, 72, 75
2, 33693, Note_on_c, 0, 72, 0
2, 33696, Note_on_c, 0, 71, 75
2, 33741, Note_on_c, 0, 71, 0
2, 33744, Note_on_c, 0, 69, 75
2, 33789, Note_on_c, 0, 69, 0
2, 33792, Note_on_c, 0, 72, 75
2, 33840, Note_on_c, 0, 72, 0
2, 33840, Note_on_c, 0, 71, 75
2, 33885, Note_on_c, 0, 71, 0
2, 33888, Note_on_c, 0, 69, 75
2, 33933, Note_on_c, 0, 69, 0
2, 33936, Note_on_c, 0, 67, 75
2, 33981, Note_on_c, 0, 67, 0
2, 33984, Note_on_c, 0, 66, 75
2, 34029, Note_on_c, 0, 66, 0
2, 34032, Note_on_c, 0, 64, 75
2, 34077, Note_on_c, 0, 64, 0
2, 34080, Note_on_c, 0, 62, 75
2, 34125, Note_on_c, 0, 62, 0
2, 34128, Note_on_c, 0, 72, 91
2, 34221, Note_on_c, 0, 72, 0
2, 34224, Note_on_c, 0, 62, 75
2, 34269, Note_on_c, 0, 62, 0
2, 34272, Note_on_c, 0, 71, 74
2, 34292, Note_on_c, 0, 71, 0
2, 34320, Note_on_c, 0, 71, 74
2, 34340, Note_on_c, 0, 71, 0
2, 34416, Note_on_c, 0, 64, 73
2, 34461, Note_on_c, 0, 64, 0
2, 34464, Note_on_c, 0, 69, 73
2, 34484, Note_on_c, 0, 69, 0
2, 34512, Note_on_c, 0, 69, 73
2, 34532, Note_on_c, 0, 69, 0
2, 34608, Note_on_c, 0, 62, 72
2, 34653, Note_on_c, 0, 62, 0
2, 34656, Note_on_c, 0, 67, 72
2, 34676, Note_on_c, 0, 67, 0
2, 34704, Note_on_c, 0, 67, 71
2, 34724, Note_on_c, 0, 67, 0
2, 34800, Note_on_c, 0, 60, 71
2, 34845, Note_on_c, 0, 60, 0
2, 34848, Note_on_c, 0, 65, 70
2, 34868, Note_on_c, 0, 65, 0
2, 34896, Note_on_c, 0, 65, 70
2, 34916, Note_on_c, 0, 65, 0
2, 34944, Note_on_c, 0, 65, 70
2, 34956, Note_on_c, 0, 65, 0
2, 34956, Note_on_c, 0, 67, 70
2, 34968, Note_on_c, 0, 67, 0
2, 34968, Note_on_c, 0, 65, 70
2, 34989, Note_on_c, 0, 65, 0
2, 34992, Note_on_c, 0, 64, 70
2, 35037, Note_on_c, 0, 64, 0
2, 35040, Note_on_c, 0, 65, 71
2, 35129, Note_on_c, 0, 65, 0
2, 35136, Note_on_c, 0, 65, 72
2, 35148, Note_on_c, 0, 65, 0
2, 35148, Note_on_c, 0, 67, 72
2, 35160, Note_on_c, 0, 67, 0
2, 35160, Note_on_c, 0, 65, 72
2, 35181, Note_on_c, 0, 65, 0
2, 35184, Note_on_c, 0, 64, 73
2, 35229, Note_on_c, 0, 64, 0
2, 35232, Note_on_c, 0, 65, 73
2, 35321, Note_on_c, 0, 65, 0
2, 35328, Note_on_c, 0, 74, 91
2, 35376, Note_on_c, 0, 74, 0
2, 35376, Note_on_c, 0, 72, 74
2, 35421, Note_on_c, 0, 72, 0
2, 35424, Note_on_c, 0, 71, 73
2, 35469, Note_on_c, 0, 71, 0
2, 35472, Note_on_c, 0, 69, 73
2, 35517, Note_on_c, 0, 69, 0
2, 35520, Note_on_c, 0, 68, 72
2, 35565, Note_on_c, 0, 68, 0
2, 35568, Note_on_c, 0, 65, 71
2, 35613, Note_on_c, 0, 65, 0
2, 35616, Note_on_c, 0, 64, 71
2, 35661, Note_on_c, 0, 64, 0
2, 35664, Note_on_c, 0, 62, 70
2, 35709, Note_on_c, 0, 62, 0
2, 35712, Note_on_c, 0, 64, 70
2, 35724, Note_on_c, 0, 64, 0
2, 35724, Note_on_c, 0, 66, 70
2, 35736, Note_on_c, 0, 66, 0
2, 35736, Note_on_c, 0, 64, 70
2, 35757, Note_on_c, 0, 64, 0
2, 35760, Note_on_c, 0, 62, 70
2, 35805, Note_on_c, 0, 62, 0
2, 35808, Note_on_c, 0, 64, 71
2, 35897, Note_on_c, 0, 64, 0
2, 35904, Note_on_c, 0, 64, 72
2, 35916, Note_on_c, 0, 64, 0
2, 35916, Note_on_c, 0, 66, 72
2, 35928, Note_on_c, 0, 66, 0
2, 35928, Note_on_c, 0, 64, 72
2, 35949, Note_on_c, 0, 64, 0
2, 35952, Note_on_c, 0, 62, 73
2, 35997, Note_on_c, 0, 62, 0
2, 36000, Note_on_c, 0, 64, 73
2, 36089, Note_on_c, 0, 64, 0
2, 36096, Note_on_c, 0, 72, 91
2, 36144, Note_on_c, 0, 72, 0
2, 36144, Note_on_c, 0, 71, 74
2, 36189, Note_on_c, 0, 71, 0
2, 36192, Note_on_c, 0, 69, 73
2, 36237, Note_on_c, 0, 69, 0
2, 36240, Note_on_c, 0, 67, 73
2, 36285, Note_on_c, 0, 67, 0
2, 36288, Note_on_c, 0, 65, 72
2, 36333, Note_on_c, 0, 65, 0
2, 36336, Note_on_c, 0, 64, 71
2, 36381, Note_on_c, 0, 64, 0
2, 36384, Note_on_c, 0, 62, 71
2, 36429, Note_on_c, 0, 62, 0
2, 36432, Note_on_c, 0, 60, 70
2, 36477, Note_on_c, 0, 60, 0
2, 36480, Note_on_c, 0, 59, 86
2, 36500, Note_on_c, 0, 59, 0
2, 36528, Note_on_c, 0, 59, 70
2, 36551, Note_on_c, 0, 59, 0
2, 36552, Note_on_c, 0, 60, 70
2, 36575, Note_on_c, 0, 60, 0
2, 36576, Note_on_c, 0, 62, 70
2, 36596, Note_on_c, 0, 62, 0
2, 36624, Note_on_c, 0, 59, 71
2, 36644, Note_on_c, 0, 59, 0
2, 36672, Note_on_c, 0, 56, 88
2, 36692, Note_on_c, 0, 56, 0
2, 36720, Note_on_c, 0, 56, 72
2, 36743, Note_on_c, 0, 56, 0
2, 36744, Note_on_c, 0, 57, 73
2, 36767, Note_on_c, 0, 57, 0
2, 36768, Note_on_c, 0, 59, 73
2, 36788, Note_on_c, 0, 59, 0
2, 36816, Note_on_c, 0, 56, 74
2, 36836, Note_on_c, 0, 56, 0
2, 36864, Note_on_c, 0, 69, 90
2, 36884, Note_on_c, 0, 69, 0
2, 36912, Note_on_c, 0, 69, 75
2, 36935, Note_on_c, 0, 69, 0
2, 36936, Note_on_c, 0, 71, 75
2, 36959, Note_on_c, 0, 71, 0
2, 36960, Note_on_c, 0, 72, 76
2, 36980, Note_on_c, 0, 72, 0
2, 37008, Note_on_c, 0, 69, 76
2, 37028, Note_on_c, 0, 69, 0
2, 37056, Note_on_c, 0, 65, 93
2, 37076, Note_on_c, 0, 65, 0
2, 37104, Note_on_c, 0, 65, 78
2, 37127, Note_on_c, 0, 65, 0
2, 37128, Note_on_c, 0, 67, 78
2, 37151, Note_on_c, 0, 67, 0
2, 37152, Note_on_c, 0, 69, 78
2, 37172, Note_on_c, 0, 69, 0
2, 37200, Note_on_c, 0, 65, 79
2, 37220, Note_on_c, 0, 65, 0
2, 37248, Note_on_c, 0, 70, 96
2, 37248, Note_on_c, 0, 65, 96
2, 37248, Note_on_c, 0, 62, 96
2, 37248, Note_on_c, 0, 58, 96
2, 37344, Note_on_c, 0, 70, 0
2, 37344, Note_on_c, 0, 65, 0
2, 37344, Note_on_c, 0, 62, 0
2, 37344, Note_on_c, 0, 58, 0
2, 37392, Note_on_c, 0, 77, 80
2, 37415, Note_on_c, 0, 77, 0
2, 37416, Note_on_c, 0, 76, 80
2, 37439, Note_on_c, 0, 76, 0
2, 37440, Note_on_c, 0, 74, 80
2, 37485, Note_on_c, 0, 74, 0
2, 37488, Note_on_c, 0, 74, 80
2, 37511, Note_on_c, 0, 74, 0
2, 37512, Note_on_c, 0, 72, 80
2, 37535, Note_on_c, 0, 72, 0
2, 37536, Note_on_c, 0, 70, 80
2, 37581, Note_on_c, 0, 70, 0
2, 37584, Note_on_c, 0, 70, 80
2, 37607, Note_on_c, 0, 70, 0
2, 37608, Note_on_c, 0, 69, 80
2, 37631, Note_on_c, 0, 69, 0
2, 37632, Note_on_c, 0, 68, 96
2, 37632, Note_on_c, 0, 62, 96
2, 37632, Note_on_c, 0, 59, 96
2, 37728, Note_on_c, 0, 68, 0
2, 37728, Note_on_c, 0, 62, 0
2, 37728, Note_on_c, 0, 59, 0
2, 38016, Note_on_c, 0, 69, 96
2, 38016, Note_on_c, 0, 64, 96
2, 38016, Note_on_c, 0, 60, 96
2, 38112, Note_on_c, 0, 69, 0
2, 38112, Note_on_c, 0, 64, 0
2, 38112, Note_on_c, 0, 60, 0
2, 38160, Note_on_c, 0, 76, 80
2, 38183, Note_on_c, 0, 76, 0
2, 38184, Note_on_c, 0, 74, 80
2, 38207, Note_on_c, 0, 74, 0
2, 38208, Note_on_c, 0, 72, 80
2, 38253, Note_on_c, 0, 72, 0
2, 38256, Note_on_c, 0, 72, 80
2, 38279, Note_on_c, 0, 72, 0
2, 38280, Note_on_c, 0, 71, 80
2, 38303, Note_on_c, 0, 71, 0
2, 38304, Note_on_c, 0, 69, 80
2, 38349, Note_on_c, 0, 69, 0
2, 38352, Note_on_c, 0, 74, 80
2, 38397, Note_on_c, 0, 74, 0
2, 38400, Note_on_c, 0, 63, 96
2, 38400, Note_on_c, 0, 67, 96
2, 38400, Note_on_c, 0, 70, 96
2, 38400, Note_on_c, 0, 73, 96
2, 38496, Note_on_c, 0, 73, 0
2, 38496, Note_on_c, 0, 70, 0
2, 38496, Note_on_c, 0, 67, 0
2, 38496, Note_on_c, 0, 63, 0
2, 38544, Note_on_c, 0, 67, 80
2, 38567, Note_on_c, 0, 67, 0
2, 38568, Note_on_c, 0, 69, 80
2, 38591, Note_on_c, 0, 69, 0
2, 38592, Note_on_c, 0, 70, 80
2, 38637, Note_on_c, 0, 70, 0
2, 38640, Note_on_c, 0, 79, 80
2, 38663, Note_on_c, 0, 79, 0
2, 38664, Note_on_c, 0, 81, 80
2, 38687, Note_on_c, 0, 81, 0
2, 38688, Note_on_c, 0, 82, 80
2, 38733, Note_on_c, 0, 82, 0
2, 38736, Note_on_c, 0, 73, 80
2, 38781, Note_on_c, 0, 73, 0
2, 38784, Note_on_c, 0, 74, 80
2, 38832, Note_on_c, 0, 74, 0
2, 38832, Note_on_c, 0, 62, 78
2, 38877, Note_on_c, 0, 62, 0
2, 38880, Note_on_c, 0, 74, 77
2, 38925, Note_on_c, 0, 74, 0
2, 38928, Note_on_c, 0, 74, 76
2, 38973, Note_on_c, 0, 74, 0
2, 38976, Note_on_c, 0, 74, 75
2, 39024, Note_on_c, 0, 74, 0
2, 39024, Note_on_c, 0, 62, 74
2, 39069, Note_on_c, 0, 62, 0
2, 39072, Note_on_c, 0, 74, 73
2, 39117, Note_on_c, 0, 74, 0
2, 39120, Note_on_c, 0, 74, 72
2, 39165, Note_on_c, 0, 74, 0
2, 39168, Note_on_c, 0, 74, 71
2, 39216, Note_on_c, 0, 74, 0
2, 39216, Note_on_c, 0, 62, 70
2, 39261, Note_on_c, 0, 62, 0
2, 39264, Note_on_c, 0, 74, 69
2, 39309, Note_on_c, 0, 74, 0
2, 39312, Note_on_c, 0, 74, 68
2, 39357, Note_on_c, 0, 74, 0
2, 39360, Note_on_c, 0, 74, 67
2, 39408, Note_on_c, 0, 74, 0
2, 39408, Note_on_c, 0, 62, 66
2, 39453, Note_on_c, 0, 62, 0
2, 39456, Note_on_c, 0, 74, 65
2, 39501, Note_on_c, 0, 74, 0
2, 39504, Note_on_c, 0, 74, 64
2, 39549, Note_on_c, 0, 74, 0
2, 39552, Note_on_c, 0, 76, 64
2, 39572, Note_on_c, 0, 76, 0
2, 39573, Note_on_c, 0, 74, 64
2, 39593, Note_on_c, 0, 74, 0
2, 39594, Note_on_c, 0, 76, 64
2, 39614, Note_on_c, 0, 76, 0
2, 39615, Note_on_c, 0, 74, 64
2, 39635, Note_on_c, 0, 74, 0
2, 39636, Note_on_c, 0, 76, 64
2, 39655, Note_on_c, 0, 76, 0
2, 39656, Note_on_c, 0, 74, 64
2, 39675, Note_on_c, 0, 74, 0
2, 39676, Note_on_c, 0, 76, 64
2, 39695, Note_on_c, 0, 76, 0
2, 39696, Note_on_c, 0, 74, 64
2, 39715, Note_on_c, 0, 74, 0
2, 39716, Note_on_c, 0, 76, 64
2, 39735, Note_on_c, 0, 76, 0
2, 39736, Note_on_c, 0, 74, 64
2, 39755, Note_on_c, 0, 74, 0
2, 39756, Note_on_c, 0, 76, 64
2, 39775, Note_on_c, 0, 76, 0
2, 39776, Note_on_c, 0, 74, 64
2, 39795, Note_on_c, 0, 74, 0
2, 39796, Note_on_c, 0, 76, 64
2, 39815, Note_on_c, 0, 76, 0
2, 39816, Note_on_c, 0, 74, 64
2, 39835, Note_on_c, 0, 74, 0
2, 39836, Note_on_c, 0, 76, 64
2, 39855, Note_on_c, 0, 76, 0
2, 39856, Note_on_c, 0, 74, 64
2, 39875, Note_on_c, 0, 74, 0
2, 39876, Note_on_c, 0, 76, 64
2, 39895, Note_on_c, 0, 76, 0
2, 39896, Note_on_c, 0, 74, 64
2, 39984, Note_on_c, 0, 74, 0
2, 39984, Note_on_c, 0, 79, 64
2, 40007, Note_on_c, 0, 79, 0
2, 40008, Note_on_c, 0, 81, 64
2, 40031, Note_on_c, 0, 81, 0
2, 40032, Note_on_c, 0, 82, 64
2, 40077, Note_on_c, 0, 82, 0
2, 40080, Note_on_c, 0, 74, 64
2, 40125, Note_on_c, 0, 74, 0
2, 40128, Note_on_c, 0, 77, 64
2, 40147, Note_on_c, 0, 77, 0
2, 40148, Note_on_c, 0, 75, 64
2, 40167, Note_on_c, 0, 75, 0
2, 40168, Note_on_c, 0, 77, 64
2, 40186, Note_on_c, 0, 77, 0
2, 40187, Note_on_c, 0, 75, 64
2, 40205, Note_on_c, 0, 75, 0
2, 40206, Note_on_c, 0, 77, 64
2, 40224, Note_on_c, 0, 77, 0
2, 40225, Note_on_c, 0, 75, 64
2, 40243, Note_on_c, 0, 75, 0
2, 40244, Note_on_c, 0, 77, 64
2, 40262, Note_on_c, 0, 77, 0
2, 40263, Note_on_c, 0, 75, 64
2, 40281, Note_on_c, 0, 75, 0
2, 40282, Note_on_c, 0, 74, 64
2, 40301, Note_on_c, 0, 74, 0
2, 40301, Note_on_c, 0, 75, 64
2, 40368, Note_on_c, 0, 75, 0
2, 40368, Note_on_c, 0, 74, 75
2, 40413, Note_on_c, 0, 74, 0
2, 40416, Note_on_c, 0, 72, 75
2, 40461, Note_on_c, 0, 72, 0
2, 40464, Note_on_c, 0, 70, 75
2, 40509, Note_on_c, 0, 70, 0
2, 40512, Note_on_c, 0, 74, 75
2, 40557, Note_on_c, 0, 74, 0
2, 40560, Note_on_c, 0, 72, 75
2, 40605, Note_on_c, 0, 72, 0
2, 40608, Note_on_c, 0, 70, 75
2, 40653, Note_on_c, 0, 70, 0
2, 40656, Note_on_c, 0, 69, 75
2, 40701, Note_on_c, 0, 69, 0
2, 40704, Note_on_c, 0, 84, 75
2, 40749, Note_on_c, 0, 84, 0
2, 40752, Note_on_c, 0, 82, 75
2, 40797, Note_on_c, 0, 82, 0
2, 40800, Note_on_c, 0, 81, 76
2, 40845, Note_on_c, 0, 81, 0
2, 40848, Note_on_c, 0, 79, 76
2, 40893, Note_on_c, 0, 79, 0
2, 40896, Note_on_c, 0, 78, 77
2, 40941, Note_on_c, 0, 78, 0
2, 40944, Note_on_c, 0, 75, 78
2, 40989, Note_on_c, 0, 75, 0
2, 40992, Note_on_c, 0, 74, 78
2, 41037, Note_on_c, 0, 74, 0
2, 41040, Note_on_c, 0, 72, 79
2, 41085, Note_on_c, 0, 72, 0
2, 41088, Note_on_c, 0, 71, 96
2, 41088, Note_on_c, 0, 65, 96
2, 41088, Note_on_c, 0, 62, 96
2, 41088, Note_on_c, 0, 59, 96
2, 41184, Note_on_c, 0, 71, 0
2, 41184, Note_on_c, 0, 65, 0
2, 41184, Note_on_c, 0, 62, 0
2, 41184, Note_on_c, 0, 59, 0
2, 41232, Note_on_c, 0, 74, 80
2, 41255, Note_on_c, 0, 74, 0
2, 41256, Note_on_c, 0, 72, 80
2, 41279, Note_on_c, 0, 72, 0
2, 41280, Note_on_c, 0, 71, 80
2, 41325, Note_on_c, 0, 71, 0
2, 41328, Note_on_c, 0, 71, 80
2, 41351, Note_on_c, 0, 71, 0
2, 41352, Note_on_c, 0, 69, 80
2, 41375, Note_on_c, 0, 69, 0
2, 41376, Note_on_c, 0, 67, 80
2, 41421, Note_on_c, 0, 67, 0
2, 41424, Note_on_c, 0, 67, 80
2, 41447, Note_on_c, 0, 67, 0
2, 41448, Note_on_c, 0, 65, 80
2, 41471, Note_on_c, 0, 65, 0
2, 41472, Note_on_c, 0, 72, 96
2, 41472, Note_on_c, 0, 67, 96
2, 41472, Note_on_c, 0, 64, 96
2, 41549, Note_on_c, 0, 72, 0
2, 41549, Note_on_c, 0, 67, 0
2, 41549, Note_on_c, 0, 64, 0
2, 41856, Note_on_c, 0, 74, 98
2, 41856, Note_on_c, 0, 69, 98
2, 41856, Note_on_c, 0, 65, 98
2, 41933, Note_on_c, 0, 74, 0
2, 41933, Note_on_c, 0, 69, 0
2, 41933, Note_on_c, 0, 65, 0
2, 42240, Note_on_c, 0, 75, 100
2, 42240, Note_on_c, 0, 72, 100
2, 42240, Note_on_c, 0, 69, 100
2, 42240, Note_on_c, 0, 65, 100
2, 42317, Note_on_c, 0, 75, 0
2, 42317, Note_on_c, 0, 72, 0
2, 42317, Note_on_c, 0, 69, 0
2, 42317, Note_on_c, 0, 65, 0
2, 42624, Note_on_c, 0, 76, 102
2, 42624, Note_on_c, 0, 71, 102
2, 42624, Note_on_c, 0, 68, 102
2, 42624, Note_on_c, 0, 64, 102
2, 42816, Note_on_c, 0, 76, 0
2, 42816, Note_on_c, 0, 71, 0
2, 42816, Note_on_c, 0, 68, 0
2, 42816, Note_on_c, 0, 64, 0
2, 43296, Note_on_c, 0, 64, 75
2, 43335, Note_on_c, 0, 64, 0
2, 43392, Note_on_c, 0, 69, 75
2, 43437, Note_on_c, 0, 69, 0
2, 43440, Note_on_c, 0, 72, 76
2, 43485, Note_on_c, 0, 72, 0
2, 43488, Note_on_c, 0, 71, 77
2, 43533, Note_on_c, 0, 71, 0
2, 43536, Note_on_c, 0, 69, 78
2, 43581, Note_on_c, 0, 69, 0
2, 43584, Note_on_c, 0, 68, 80
2, 43629, Note_on_c, 0, 68, 0
2, 43632, Note_on_c, 0, 71, 78
2, 43677, Note_on_c, 0, 71, 0
2, 43680, Note_on_c, 0, 69, 77
2, 43725, Note_on_c, 0, 69, 0
2, 43728, Note_on_c, 0, 68, 76
2, 43773, Note_on_c, 0, 68, 0
2, 43776, Note_on_c, 0, 69, 75
2, 43821, Note_on_c, 0, 69, 0
2, 43824, Note_on_c, 0, 72, 75
2, 43869, Note_on_c, 0, 72, 0
2, 43872, Note_on_c, 0, 71, 75
2, 43917, Note_on_c, 0, 71, 0
2, 43920, Note_on_c, 0, 69, 75
2, 43965, Note_on_c, 0, 69, 0
2, 43968, Note_on_c, 0, 71, 75
2, 44013, Note_on_c, 0, 71, 0
2, 44016, Note_on_c, 0, 69, 75
2, 44061, Note_on_c, 0, 69, 0
2, 44064, Note_on_c, 0, 68, 75
2, 44109, Note_on_c, 0, 68, 0
2, 44112, Note_on_c, 0, 71, 75
2, 44157, Note_on_c, 0, 71, 0
2, 44160, Note_on_c, 0, 69, 75
2, 44205, Note_on_c, 0, 69, 0
2, 44208, Note_on_c, 0, 76, 75
2, 44253, Note_on_c, 0, 76, 0
2, 44256, Note_on_c, 0, 74, 75
2, 44301, Note_on_c, 0, 74, 0
2, 44304, Note_on_c, 0, 72, 75
2, 44349, Note_on_c, 0, 72, 0
2, 44352, Note_on_c, 0, 71, 76
2, 44397, Note_on_c, 0, 71, 0
2, 44400, Note_on_c, 0, 74, 76
2, 44445, Note_on_c, 0, 74, 0
2, 44448, Note_on_c, 0, 72, 76
2, 44493, Note_on_c, 0, 72, 0
2, 44496, Note_on_c, 0, 71, 77
2, 44541, Note_on_c, 0, 71, 0
2, 44544, Note_on_c, 0, 72, 77
2, 44589, Note_on_c, 0, 72, 0
2, 44592, Note_on_c, 0, 76, 77
2, 44637, Note_on_c, 0, 76, 0
2, 44640, Note_on_c, 0, 74, 78
2, 44685, Note_on_c, 0, 74, 0
2, 44688, Note_on_c, 0, 72, 78
2, 44733, Note_on_c, 0, 72, 0
2, 44736, Note_on_c, 0, 74, 78
2, 44781, Note_on_c, 0, 74, 0
2, 44784, Note_on_c, 0, 77, 79
2, 44829, Note_on_c, 0, 77, 0
2, 44832, Note_on_c, 0, 76, 79
2, 44877, Note_on_c, 0, 76, 0
2, 44880, Note_on_c, 0, 74, 79
2, 44925, Note_on_c, 0, 74, 0
2, 44976, Note_on_c, 0, 79, 80
2, 44996, Note_on_c, 0, 79, 0
2, 45024, Note_on_c, 0, 79, 80
2, 45036, Note_on_c, 0, 79, 0
2, 45036, Note_on_c, 0, 81, 80
2, 45048, Note_on_c, 0, 81, 0
2, 45048, Note_on_c, 0, 79, 80
2, 45069, Note_on_c, 0, 79, 0
2, 45072, Note_on_c, 0, 78, 80
2, 45095, Note_on_c, 0, 78, 0
2, 45096, Note_on_c, 0, 79, 80
2, 45119, Note_on_c, 0, 79, 0
2, 45120, Note_on_c, 0, 84, 80
2, 45168, Note_on_c, 0, 84, 0
2, 45168, Note_on_c, 0, 79, 80
2, 45188, Note_on_c, 0, 79, 0
2, 45216, Note_on_c, 0, 79, 80
2, 45305, Note_on_c, 0, 79, 0
2, 45360, Note_on_c, 0, 67, 80
2, 45380, Note_on_c, 0, 67, 0
2, 45408, Note_on_c, 0, 67, 80
2, 45420, Note_on_c, 0, 67, 0
2, 45420, Note_on_c, 0, 69, 80
2, 45432, Note_on_c, 0, 69, 0
2, 45432, Note_on_c, 0, 67, 80
2, 45453, Note_on_c, 0, 67, 0
2, 45456, Note_on_c, 0, 66, 80
2, 45479, Note_on_c, 0, 66, 0
2, 45480, Note_on_c, 0, 67, 80
2, 45503, Note_on_c, 0, 67, 0
2, 45504, Note_on_c, 0, 72, 80
2, 45552, Note_on_c, 0, 72, 0
2, 45552, Note_on_c, 0, 67, 80
2, 45572, Note_on_c, 0, 67, 0
2, 45600, Note_on_c, 0, 67, 80
2, 45689, Note_on_c, 0, 67, 0
2, 45744, Note_on_c, 0, 77, 80
2, 45764, Note_on_c, 0, 77, 0
2, 45792, Note_on_c, 0, 77, 80
2, 45804, Note_on_c, 0, 77, 0
2, 45804, Note_on_c, 0, 79, 80
2, 45816, Note_on_c, 0, 79, 0
2, 45816, Note_on_c, 0, 77, 80
2, 45837, Note_on_c, 0, 77, 0
2, 45840, Note_on_c, 0, 76, 80
2, 45863, Note_on_c, 0, 76, 0
2, 45864, Note_on_c, 0, 77, 80
2, 45887, Note_on_c, 0, 77, 0
2, 45888, Note_on_c, 0, 84, 80
2, 45936, Note_on_c, 0, 84, 0
2, 45936, Note_on_c, 0, 77, 80
2, 45956, Note_on_c, 0, 77, 0
2, 45984, Note_on_c, 0, 77, 80
2, 46073, Note_on_c, 0, 77, 0
2, 46128, Note_on_c, 0, 77, 80
2, 46148, Note_on_c, 0, 77, 0
2, 46176, Note_on_c, 0, 77, 80
2, 46188, Note_on_c, 0, 77, 0
2, 46188, Note_on_c, 0, 79, 80
2, 46200, Note_on_c, 0, 79, 0
2, 46200, Note_on_c, 0, 77, 80
2, 46221, Note_on_c, 0, 77, 0
2, 46224, Note_on_c, 0, 76, 80
2, 46247, Note_on_c, 0, 76, 0
2, 46248, Note_on_c, 0, 77, 80
2, 46271, Note_on_c, 0, 77, 0
2, 46272, Note_on_c, 0, 86, 80
2, 46320, Note_on_c, 0, 86, 0
2, 46320, Note_on_c, 0, 77, 80
2, 46340, Note_on_c, 0, 77, 0
2, 46368, Note_on_c, 0, 77, 80
2, 46457, Note_on_c, 0, 77, 0
2, 46512, Note_on_c, 0, 76, 80
2, 46532, Note_on_c, 0, 76, 0
2, 46560, Note_on_c, 0, 76, 80
2, 46572, Note_on_c, 0, 76, 0
2, 46572, Note_on_c, 0, 77, 80
2, 46584, Note_on_c, 0, 77, 0
2, 46584, Note_on_c, 0, 76, 80
2, 46605, Note_on_c, 0, 76, 0
2, 46608, Note_on_c, 0, 75, 80
2, 46631, Note_on_c, 0, 75, 0
2, 46632, Note_on_c, 0, 76, 80
2, 46655, Note_on_c, 0, 76, 0
2, 46656, Note_on_c, 0, 84, 80
2, 46704, Note_on_c, 0, 84, 0
2, 46704, Note_on_c, 0, 76, 80
2, 46724, Note_on_c, 0, 76, 0
2, 46752, Note_on_c, 0, 76, 80
2, 46841, Note_on_c, 0, 76, 0
2, 46896, Note_on_c, 0, 76, 80
2, 46916, Note_on_c, 0, 76, 0
2, 46944, Note_on_c, 0, 76, 80
2, 46956, Note_on_c, 0, 76, 0
2, 46956, Note_on_c, 0, 77, 80
2, 46968, Note_on_c, 0, 77, 0
2, 46968, Note_on_c, 0, 76, 80
2, 46989, Note_on_c, 0, 76, 0
2, 46992, Note_on_c, 0, 75, 80
2, 47015, Note_on_c, 0, 75, 0
2, 47016, Note_on_c, 0, 76, 80
2, 47039, Note_on_c, 0, 76, 0
2, 47040, Note_on_c, 0, 84, 80
2, 47088, Note_on_c, 0, 84, 0
2, 47088, Note_on_c, 0, 76, 80
2, 47108, Note_on_c, 0, 76, 0
2, 47136, Note_on_c, 0, 76, 80
2, 47225, Note_on_c, 0, 76, 0
2, 47280, Note_on_c, 0, 74, 80
2, 47300, Note_on_c, 0, 74, 0
2, 47328, Note_on_c, 0, 74, 80
2, 47340, Note_on_c, 0, 74, 0
2, 47340, Note_on_c, 0, 76, 80
2, 47352, Note_on_c, 0, 76, 0
2, 47352, Note_on_c, 0, 74, 80
2, 47373, Note_on_c, 0, 74, 0
2, 47376, Note_on_c, 0, 73, 80
2, 47399, Note_on_c, 0, 73, 0
2, 47400, Note_on_c, 0, 74, 80
2, 47423, Note_on_c, 0, 74, 0
2, 47424, Note_on_c, 0, 81, 80
2, 47472, Note_on_c, 0, 81, 0
2, 47472, Note_on_c, 0, 74, 80
2, 47492, Note_on_c, 0, 74, 0
2, 47520, Note_on_c, 0, 74, 80
2, 47609, Note_on_c, 0, 74, 0
2, 47664, Note_on_c, 0, 72, 80
2, 47684, Note_on_c, 0, 72, 0
2, 47712, Note_on_c, 0, 72, 80
2, 47724, Note_on_c, 0, 72, 0
2, 47724, Note_on_c, 0, 74, 80
2, 47736, Note_on_c, 0, 74, 0
2, 47736, Note_on_c, 0, 72, 80
2, 47757, Note_on_c, 0, 72, 0
2, 47760, Note_on_c, 0, 71, 80
2, 47783, Note_on_c, 0, 71, 0
2, 47784, Note_on_c, 0, 72, 80
2, 47807, Note_on_c, 0, 72, 0
2, 47808, Note_on_c, 0, 81, 80
2, 47856, Note_on_c, 0, 81, 0
2, 47856, Note_on_c, 0, 72, 80
2, 47876, Note_on_c, 0, 72, 0
2, 47904, Note_on_c, 0, 72, 80
2, 47993, Note_on_c, 0, 72, 0
2, 48048, Note_on_c, 0, 71, 80
2, 48068, Note_on_c, 0, 71, 0
2, 48096, Note_on_c, 0, 71, 80
2, 48108, Note_on_c, 0, 71, 0
2, 48108, Note_on_c, 0, 72, 80
2, 48120, Note_on_c, 0, 72, 0
2, 48120, Note_on_c, 0, 71, 80
2, 48141, Note_on_c, 0, 71, 0
2, 48144, Note_on_c, 0, 69, 80
2, 48167, Note_on_c, 0, 69, 0
2, 48168, Note_on_c, 0, 71, 80
2, 48191, Note_on_c, 0, 71, 0
2, 48192, Note_on_c, 0, 79, 80
2, 48240, Note_on_c, 0, 79, 0
2, 48240, Note_on_c, 0, 71, 80
2, 48260, Note_on_c, 0, 71, 0
2, 48288, Note_on_c, 0, 71, 80
2, 48377, Note_on_c, 0, 71, 0
2, 48432, Note_on_c, 0, 67, 80
2, 48452, Note_on_c, 0, 67, 0
2, 48480, Note_on_c, 0, 67, 79
2, 48492, Note_on_c, 0, 67, 0
2, 48492, Note_on_c, 0, 69, 79
2, 48504, Note_on_c, 0, 69, 0
2, 48504, Note_on_c, 0, 67, 79
2, 48525, Note_on_c, 0, 67, 0
2, 48528, Note_on_c, 0, 66, 78
2, 48551, Note_on_c, 0, 66, 0
2, 48552, Note_on_c, 0, 67, 78
2, 48575, Note_on_c, 0, 67, 0
2, 48576, Note_on_c, 0, 76, 77
2, 48624, Note_on_c, 0, 76, 0
2, 48624, Note_on_c, 0, 67, 76
2, 48644, Note_on_c, 0, 67, 0
2, 48672, Note_on_c, 0, 67, 76
2, 48684, Note_on_c, 0, 67, 0
2, 48684, Note_on_c, 0, 69, 76
2, 48696, Note_on_c, 0, 69, 0
2, 48696, Note_on_c, 0, 67, 76
2, 48717, Note_on_c, 0, 67, 0
2, 48720, Note_on_c, 0, 66, 75
2, 48743, Note_on_c, 0, 66, 0
2, 48744, Note_on_c, 0, 67, 75
2, 48767, Note_on_c, 0, 67, 0
2, 48768, Note_on_c, 0, 67, 74
2, 48960, Note_on_c, 0, 67, 0
2, 48960, Note_on_c, 0, 66, 71
2, 49049, Note_on_c, 0, 66, 0
2, 49152, Note_on_c, 0, 74, 80
2, 49191, Note_on_c, 0, 74, 0
2, 49248, Note_on_c, 0, 74, 96
2, 49344, Note_on_c, 0, 74, 0
2, 49344, Note_on_c, 0, 74, 80
2, 49374, Note_on_c, 0, 74, 0
2, 49376, Note_on_c, 0, 78, 80
2, 49406, Note_on_c, 0, 78, 0
2, 49408, Note_on_c, 0, 81, 80
2, 49438, Note_on_c, 0, 81, 0
2, 49440, Note_on_c, 0, 72, 96
2, 49536, Note_on_c, 0, 72, 0
2, 49536, Note_on_c, 0, 72, 80
2, 49566, Note_on_c, 0, 72, 0
2, 49568, Note_on_c, 0, 78, 80
2, 49598, Note_on_c, 0, 78, 0
2, 49600, Note_on_c, 0, 81, 80
2, 49630, Note_on_c, 0, 81, 0
2, 49632, Note_on_c, 0, 71, 96
2, 49726, Note_on_c, 0, 71, 0
2, 50112, Note_on_c, 0, 71, 64
2, 50142, Note_on_c, 0, 71, 0
2, 50144, Note_on_c, 0, 76, 64
2, 50174, Note_on_c, 0, 76, 0
2, 50176, Note_on_c, 0, 79, 64
2, 50206, Note_on_c, 0, 79, 0
2, 50208, Note_on_c, 0, 71, 80
2, 50304, Note_on_c, 0, 71, 0
2, 50304, Note_on_c, 0, 71, 64
2, 50334, Note_on_c, 0, 71, 0
2, 50336, Note_on_c, 0, 76, 64
2, 50366, Note_on_c, 0, 76, 0
2, 50368, Note_on_c, 0, 79, 64
2, 50398, Note_on_c, 0, 79, 0
2, 50400, Note_on_c, 0, 70, 80
2, 50494, Note_on_c, 0, 70, 0
2, 50784, Note_on_c, 0, 64, 70
2, 50823, Note_on_c, 0, 64, 0
2, 50880, Note_on_c, 0, 67, 71
2, 50919, Note_on_c, 0, 67, 0
2, 50976, Note_on_c, 0, 66, 72
2, 51015, Note_on_c, 0, 66, 0
2, 51072, Note_on_c, 0, 69, 73
2, 51111, Note_on_c, 0, 69, 0
2, 51168, Note_on_c, 0, 67, 75
2, 51213, Note_on_c, 0, 67, 0
2, 51216, Note_on_c, 0, 83, 74
2, 51236, Note_on_c, 0, 83, 0
2, 51264, Note_on_c, 0, 81, 73
2, 51284, Note_on_c, 0, 81, 0
2, 51312, Note_on_c, 0, 79, 73
2, 51332, Note_on_c, 0, 79, 0
2, 51360, Note_on_c, 0, 78, 72
2, 51380, Note_on_c, 0, 78, 0
2, 51408, Note_on_c, 0, 76, 71
2, 51428, Note_on_c, 0, 76, 0
2, 51456, Note_on_c, 0, 75, 71
2, 51504, Note_on_c, 0, 75, 0
2, 51504, Note_on_c, 0, 76, 70
2, 51549, Note_on_c, 0, 76, 0
2, 51552, Note_on_c, 0, 71, 75
2, 51597, Note_on_c, 0, 71, 0
2, 51600, Note_on_c, 0, 79, 75
2, 51645, Note_on_c, 0, 79, 0
2, 51648, Note_on_c, 0, 78, 75
2, 51693, Note_on_c, 0, 78, 0
2, 51696, Note_on_c, 0, 76, 75
2, 51741, Note_on_c, 0, 76, 0
2, 51744, Note_on_c, 0, 75, 76
2, 51789, Note_on_c, 0, 75, 0
2, 51792, Note_on_c, 0, 78, 76
2, 51837, Note_on_c, 0, 78, 0
2, 51840, Note_on_c, 0, 76, 76
2, 51885, Note_on_c, 0, 76, 0
2, 51888, Note_on_c, 0, 75, 77
2, 51933, Note_on_c, 0, 75, 0
2, 51936, Note_on_c, 0, 76, 77
2, 51981, Note_on_c, 0, 76, 0
2, 51984, Note_on_c, 0, 83, 77
2, 52029, Note_on_c, 0, 83, 0
2, 52032, Note_on_c, 0, 81, 78
2, 52077, Note_on_c, 0, 81, 0
2, 52080, Note_on_c, 0, 79, 78
2, 52125, Note_on_c, 0, 79, 0
2, 52128, Note_on_c, 0, 78, 78
2, 52173, Note_on_c, 0, 78, 0
2, 52176, Note_on_c, 0, 76, 79
2, 52221, Note_on_c, 0, 76, 0
2, 52224, Note_on_c, 0, 75, 79
2, 52269, Note_on_c, 0, 75, 0
2, 52272, Note_on_c, 0, 76, 75
2, 52317, Note_on_c, 0, 76, 0
2, 52320, Note_on_c, 0, 72, 75
2, 52332, Note_on_c, 0, 72, 0
2, 52332, Note_on_c, 0, 74, 75
2, 52344, Note_on_c, 0, 74, 0
2, 52344, Note_on_c, 0, 72, 75
2, 52365, Note_on_c, 0, 72, 0
2, 52368, Note_on_c, 0, 71, 75
2, 52413, Note_on_c, 0, 71, 0
2, 52416, Note_on_c, 0, 72, 76
2, 52436, Note_on_c, 0, 72, 0
2, 52464, Note_on_c, 0, 72, 77
2, 52484, Note_on_c, 0, 72, 0
2, 52512, Note_on_c, 0, 72, 78
2, 52524, Note_on_c, 0, 72, 0
2, 52524, Note_on_c, 0, 74, 78
2, 52536, Note_on_c, 0, 74, 0
2, 52536, Note_on_c, 0, 72, 78
2, 52557, Note_on_c, 0, 72, 0
2, 52560, Note_on_c, 0, 71, 79
2, 52605, Note_on_c, 0, 71, 0
2, 52608, Note_on_c, 0, 72, 80
2, 52628, Note_on_c, 0, 72, 0
2, 52656, Note_on_c, 0, 72, 80
2, 52676, Note_on_c, 0, 72, 0
2, 52704, Note_on_c, 0, 81, 80
2, 52891, Note_on_c, 0, 81, 0
2, 52992, Note_on_c, 0, 72, 80
2, 53004, Note_on_c, 0, 72, 0
2, 53004, Note_on_c, 0, 74, 80
2, 53016, Note_on_c, 0, 74, 0
2, 53016, Note_on_c, 0, 72, 80
2, 53081, Note_on_c, 0, 72, 0
2, 53088, Note_on_c, 0, 71, 75
2, 53100, Note_on_c, 0, 71, 0
2, 53100, Note_on_c, 0, 72, 75
2, 53112, Note_on_c, 0, 72, 0
2, 53112, Note_on_c, 0, 71, 75
2, 53133, Note_on_c, 0, 71, 0
2, 53136, Note_on_c, 0, 69, 75
2, 53181, Note_on_c, 0, 69, 0
2, 53184, Note_on_c, 0, 71, 76
2, 53204, Note_on_c, 0, 71, 0
2, 53232, Note_on_c, 0, 71, 76
2, 53252, Note_on_c, 0, 71, 0
2, 53280, Note_on_c, 0, 71, 77
2, 53292, Note_on_c, 0, 71, 0
2, 53292, Note_on_c, 0, 72, 77
2, 53304, Note_on_c, 0, 72, 0
2, 53304, Note_on_c, 0, 71, 77
2, 53325, Note_on_c, 0, 71, 0
2, 53328, Note_on_c, 0, 69, 78
2, 53373, Note_on_c, 0, 69, 0
2, 53376, Note_on_c, 0, 71, 78
2, 53396, Note_on_c, 0, 71, 0
2, 53424, Note_on_c, 0, 71, 79
2, 53444, Note_on_c, 0, 71, 0
2, 53472, Note_on_c, 0, 79, 80
2, 53659, Note_on_c, 0, 79, 0
2, 53760, Note_on_c, 0, 71, 80
2, 53772, Note_on_c, 0, 71, 0
2, 53772, Note_on_c, 0, 72, 80
2, 53784, Note_on_c, 0, 72, 0
2, 53784, Note_on_c, 0, 71, 80
2, 53849, Note_on_c, 0, 71, 0
2, 53856, Note_on_c, 0, 69, 75
2, 53868, Note_on_c, 0, 69, 0
2, 53868, Note_on_c, 0, 71, 75
2, 53880, Note_on_c, 0, 71, 0
2, 53880, Note_on_c, 0, 69, 75
2, 53901, Note_on_c, 0, 69, 0
2, 53904, Note_on_c, 0, 67, 75
2, 53949, Note_on_c, 0, 67, 0
2, 53952, Note_on_c, 0, 69, 76
2, 53972, Note_on_c, 0, 69, 0
2, 54000, Note_on_c, 0, 69, 76
2, 54020, Note_on_c, 0, 69, 0
2, 54048, Note_on_c, 0, 69, 77
2, 54060, Note_on_c, 0, 69, 0
2, 54060, Note_on_c, 0, 71, 77
2, 54072, Note_on_c, 0, 71, 0
2, 54072, Note_on_c, 0, 69, 77
2, 54093, Note_on_c, 0, 69, 0
2, 54096, Note_on_c, 0, 67, 78
2, 54141, Note_on_c, 0, 67, 0
2, 54144, Note_on_c, 0, 69, 78
2, 54164, Note_on_c, 0, 69, 0
2, 54192, Note_on_c, 0, 69, 79
2, 54212, Note_on_c, 0, 69, 0
2, 54240, Note_on_c, 0, 78, 80
2, 54285, Note_on_c, 0, 78, 0
2, 54288, Note_on_c, 0, 76, 79
2, 54333, Note_on_c, 0, 76, 0
2, 54336, Note_on_c, 0, 75, 78
2, 54381, Note_on_c, 0, 75, 0
2, 54384, Note_on_c, 0, 76, 78
2, 54429, Note_on_c, 0, 76, 0
2, 54432, Note_on_c, 0, 78, 77
2, 54477, Note_on_c, 0, 78, 0
2, 54480, Note_on_c, 0, 71, 76
2, 54525, Note_on_c, 0, 71, 0
2, 54528, Note_on_c, 0, 72, 76
2, 54573, Note_on_c, 0, 72, 0
2, 54576, Note_on_c, 0, 71, 75
2, 54621, Note_on_c, 0, 71, 0
2, 54624, Note_on_c, 0, 69, 75
2, 54669, Note_on_c, 0, 69, 0
2, 54672, Note_on_c, 0, 67, 75
2, 54717, Note_on_c, 0, 67, 0
2, 54720, Note_on_c, 0, 66, 75
2, 54765, Note_on_c, 0, 66, 0
2, 54768, Note_on_c, 0, 64, 75
2, 54813, Note_on_c, 0, 64, 0
2, 54816, Note_on_c, 0, 63, 75
2, 54861, Note_on_c, 0, 63, 0
2, 54864, Note_on_c, 0, 60, 75
2, 54909, Note_on_c, 0, 60, 0
2, 54912, Note_on_c, 0, 59, 75
2, 54957, Note_on_c, 0, 59, 0
2, 54960, Note_on_c, 0, 57, 75
2, 55005, Note_on_c, 0, 57, 0
2, 55008, Note_on_c, 0, 55, 75
2, 55028, Note_on_c, 0, 55, 0
2, 55056, Note_on_c, 0, 59, 75
2, 55101, Note_on_c, 0, 59, 0
2, 55104, Note_on_c, 0, 60, 75
2, 55149, Note_on_c, 0, 60, 0
2, 55152, Note_on_c, 0, 59, 75
2, 55197, Note_on_c, 0, 59, 0
2, 55200, Note_on_c, 0, 57, 76
2, 55245, Note_on_c, 0, 57, 0
2, 55248, Note_on_c, 0, 55, 76
2, 55293, Note_on_c, 0, 55, 0
2, 55296, Note_on_c, 0, 54, 76
2, 55341, Note_on_c, 0, 54, 0
2, 55344, Note_on_c, 0, 52, 77
2, 55389, Note_on_c, 0, 52, 0
2, 55392, Note_on_c, 0, 51, 77
2, 55412, Note_on_c, 0, 51, 0
2, 55440, Note_on_c, 0, 60, 77
2, 55485, Note_on_c, 0, 60, 0
2, 55488, Note_on_c, 0, 59, 78
2, 55533, Note_on_c, 0, 59, 0
2, 55536, Note_on_c, 0, 57, 78
2, 55581, Note_on_c, 0, 57, 0
2, 55584, Note_on_c, 0, 59, 78
2, 55623, Note_on_c, 0, 59, 0
2, 55680, Note_on_c, 0, 59, 95
2, 55719, Note_on_c, 0, 59, 0
2, 55776, Note_on_c, 0, 59, 97
2, 55776, Note_on_c, 0, 55, 97
2, 55776, Note_on_c, 0, 52, 97
2, 56041, Note_on_c, 0, 59, 0
2, 56041, Note_on_c, 0, 55, 0
2, 56041, Note_on_c, 0, 52, 0
2, 56208, Note_on_c, 0, 74, 80
2, 56228, Note_on_c, 0, 74, 0
2, 56256, Note_on_c, 0, 74, 80
2, 56268, Note_on_c, 0, 74, 0
2, 56268, Note_on_c, 0, 76, 80
2, 56280, Note_on_c, 0, 76, 0
2, 56280, Note_on_c, 0, 74, 80
2, 56301, Note_on_c, 0, 74, 0
2, 56304, Note_on_c, 0, 73, 80
2, 56327, Note_on_c, 0, 73, 0
2, 56328, Note_on_c, 0, 74, 80
2, 56351, Note_on_c, 0, 74, 0
2, 56352, Note_on_c, 0, 79, 80
2, 56400, Note_on_c, 0, 79, 0
2, 56400, Note_on_c, 0, 74, 80
2, 56420, Note_on_c, 0, 74, 0
2, 56448, Note_on_c, 0, 74, 80
2, 56537, Note_on_c, 0, 74, 0
2, 56592, Note_on_c, 0, 74, 80
2, 56612, Note_on_c, 0, 74, 0
2, 56640, Note_on_c, 0, 74, 80
2, 56652, Note_on_c, 0, 74, 0
2, 56652, Note_on_c, 0, 76, 80
2, 56664, Note_on_c, 0, 76, 0
2, 56664, Note_on_c, 0, 74, 80
2, 56685, Note_on_c, 0, 74, 0
2, 56688, Note_on_c, 0, 73, 80
2, 56711, Note_on_c, 0, 73, 0
2, 56712, Note_on_c, 0, 74, 80
2, 56735, Note_on_c, 0, 74, 0
2, 56736, Note_on_c, 0, 81, 80
2, 56784, Note_on_c, 0, 81, 0
2, 56784, Note_on_c, 0, 74, 80
2, 56804, Note_on_c, 0, 74, 0
2, 56832, Note_on_c, 0, 74, 80
2, 56921, Note_on_c, 0, 74, 0
2, 56928, Note_on_c, 0, 83, 80
2, 56973, Note_on_c, 0, 83, 0
2, 56976, Note_on_c, 0, 84, 80
2, 57021, Note_on_c, 0, 84, 0
2, 57024, Note_on_c, 0, 86, 80
2, 57069, Note_on_c, 0, 86, 0
2, 57072, Note_on_c, 0, 83, 80
2, 57117, Note_on_c, 0, 83, 0
2, 57120, Note_on_c, 0, 79, 80
2, 57165, Note_on_c, 0, 79, 0
2, 57168, Note_on_c, 0, 81, 80
2, 57213, Note_on_c, 0, 81, 0
2, 57216, Note_on_c, 0, 83, 80
2, 57261, Note_on_c, 0, 83, 0
2, 57264, Note_on_c, 0, 79, 80
2, 57309, Note_on_c, 0, 79, 0
2, 57312, Note_on_c, 0, 76, 80
2, 57357, Note_on_c, 0, 76, 0
2, 57360, Note_on_c, 0, 78, 80
2, 57405, Note_on_c, 0, 78, 0
2, 57408, Note_on_c, 0, 79, 80
2, 57453, Note_on_c, 0, 79, 0
2, 57456, Note_on_c, 0, 76, 80
2, 57501, Note_on_c, 0, 76, 0
2, 57504, Note_on_c, 0, 72, 80
2, 57549, Note_on_c, 0, 72, 0
2, 57552, Note_on_c, 0, 74, 80
2, 57597, Note_on_c, 0, 74, 0
2, 57600, Note_on_c, 0, 76, 80
2, 57645, Note_on_c, 0, 76, 0
2, 57648, Note_on_c, 0, 72, 80
2, 57693, Note_on_c, 0, 72, 0
2, 57744, Note_on_c, 0, 84, 80
2, 57767, Note_on_c, 0, 84, 0
2, 57768, Note_on_c, 0, 86, 80
2, 57791, Note_on_c, 0, 86, 0
2, 57792, Note_on_c, 0, 88, 80
2, 57837, Note_on_c, 0, 88, 0
2, 57840, Note_on_c, 0, 84, 80
2, 57885, Note_on_c, 0, 84, 0
2, 57888, Note_on_c, 0, 81, 80
2, 57933, Note_on_c, 0, 81, 0
2, 57936, Note_on_c, 0, 81, 80
2, 57959, Note_on_c, 0, 81, 0
2, 57960, Note_on_c, 0, 83, 80
2, 57983, Note_on_c, 0, 83, 0
2, 57984, Note_on_c, 0, 84, 80
2, 58029, Note_on_c, 0, 84, 0
2, 58032, Note_on_c, 0, 81, 80
2, 58077, Note_on_c, 0, 81, 0
2, 58080, Note_on_c, 0, 78, 80
2, 58125, Note_on_c, 0, 78, 0
2, 58128, Note_on_c, 0, 78, 80
2, 58151, Note_on_c, 0, 78, 0
2, 58152, Note_on_c, 0, 79, 80
2, 58175, Note_on_c, 0, 79, 0
2, 58176, Note_on_c, 0, 81, 80
2, 58221, Note_on_c, 0, 81, 0
2, 58224, Note_on_c, 0, 78, 80
2, 58269, Note_on_c, 0, 78, 0
2, 58272, Note_on_c, 0, 75, 80
2, 58317, Note_on_c, 0, 75, 0
2, 58320, Note_on_c, 0, 75, 80
2, 58343, Note_on_c, 0, 75, 0
2, 58344, Note_on_c, 0, 76, 80
2, 58367, Note_on_c, 0, 76, 0
2, 58368, Note_on_c, 0, 78, 80
2, 58413, Note_on_c, 0, 78, 0
2, 58416, Note_on_c, 0, 75, 80
2, 58461, Note_on_c, 0, 75, 0
2, 58464, Note_on_c, 0, 76, 80
2, 58509, Note_on_c, 0, 76, 0
2, 58512, Note_on_c, 0, 71, 80
2, 58557, Note_on_c, 0, 71, 0
2, 58560, Note_on_c, 0, 79, 80
2, 58605, Note_on_c, 0, 79, 0
2, 58608, Note_on_c, 0, 71, 80
2, 58653, Note_on_c, 0, 71, 0
2, 58656, Note_on_c, 0, 76, 80
2, 58701, Note_on_c, 0, 76, 0
2, 58704, Note_on_c, 0, 71, 80
2, 58749, Note_on_c, 0, 71, 0
2, 58752, Note_on_c, 0, 83, 96
2, 58800, Note_on_c, 0, 83, 0
2, 58800, Note_on_c, 0, 71, 80
2, 58845, Note_on_c, 0, 71, 0
2, 58848, Note_on_c, 0, 75, 80
2, 58893, Note_on_c, 0, 75, 0
2, 58896, Note_on_c, 0, 71, 80
2, 58941, Note_on_c, 0, 71, 0
2, 58944, Note_on_c, 0, 78, 80
2, 58989, Note_on_c, 0, 78, 0
2, 58992, Note_on_c, 0, 71, 80
2, 59037, Note_on_c, 0, 71, 0
2, 59040, Note_on_c, 0, 75, 80
2, 59085, Note_on_c, 0, 75, 0
2, 59088, Note_on_c, 0, 71, 80
2, 59133, Note_on_c, 0, 71, 0
2, 59136, Note_on_c, 0, 81, 96
2, 59184, Note_on_c, 0, 81, 0
2, 59184, Note_on_c, 0, 78, 80
2, 59229, Note_on_c, 0, 78, 0
2, 59232, Note_on_c, 0, 79, 80
2, 59277, Note_on_c, 0, 79, 0
2, 59280, Note_on_c, 0, 76, 80
2, 59325, Note_on_c, 0, 76, 0
2, 59328, Note_on_c, 0, 83, 80
2, 59373, Note_on_c, 0, 83, 0
2, 59376, Note_on_c, 0, 76, 80
2, 59421, Note_on_c, 0, 76, 0
2, 59424, Note_on_c, 0, 79, 80
2, 59469, Note_on_c, 0, 79, 0
2, 59472, Note_on_c, 0, 76, 80
2, 59517, Note_on_c, 0, 76, 0
2, 59520, Note_on_c, 0, 88, 96
2, 59568, Note_on_c, 0, 88, 0
2, 59568, Note_on_c, 0, 76, 80
2, 59613, Note_on_c, 0, 76, 0
2, 59616, Note_on_c, 0, 80, 80
2, 59661, Note_on_c, 0, 80, 0
2, 59664, Note_on_c, 0, 76, 80
2, 59709, Note_on_c, 0, 76, 0
2, 59712, Note_on_c, 0, 83, 80
2, 59757, Note_on_c, 0, 83, 0
2, 59760, Note_on_c, 0, 76, 80
2, 59805, Note_on_c, 0, 76, 0
2, 59808, Note_on_c, 0, 80, 80
2, 59853, Note_on_c, 0, 80, 0
2, 59856, Note_on_c, 0, 76, 80
2, 59901, Note_on_c, 0, 76, 0
2, 59904, Note_on_c, 0, 86, 80
2, 59949, Note_on_c, 0, 86, 0
2, 59952, Note_on_c, 0, 76, 80
2, 59997, Note_on_c, 0, 76, 0
2, 60000, Note_on_c, 0, 84, 80
2, 60045, Note_on_c, 0, 84, 0
2, 60048, Note_on_c, 0, 81, 80
2, 60093, Note_on_c, 0, 81, 0
2, 60096, Note_on_c, 0, 88, 80
2, 60141, Note_on_c, 0, 88, 0
2, 60144, Note_on_c, 0, 76, 80
2, 60189, Note_on_c, 0, 76, 0
2, 60192, Note_on_c, 0, 84, 80
2, 60237, Note_on_c, 0, 84, 0
2, 60240, Note_on_c, 0, 81, 80
2, 60285, Note_on_c, 0, 81, 0
2, 60288, Note_on_c, 0, 88, 80
2, 60333, Note_on_c, 0, 88, 0
2, 60336, Note_on_c, 0, 76, 80
2, 60381, Note_on_c, 0, 76, 0
2, 60384, Note_on_c, 0, 77, 80
2, 60396, Note_on_c, 0, 77, 0
2, 60396, Note_on_c, 0, 79, 80
2, 60408, Note_on_c, 0, 79, 0
2, 60408, Note_on_c, 0, 77, 80
2, 60429, Note_on_c, 0, 77, 0
2, 60432, Note_on_c, 0, 76, 80
2, 60477, Note_on_c, 0, 76, 0
2, 60480, Note_on_c, 0, 77, 80
2, 60569, Note_on_c, 0, 77, 0
2, 60576, Note_on_c, 0, 77, 80
2, 60588, Note_on_c, 0, 77, 0
2, 60588, Note_on_c, 0, 79, 80
2, 60600, Note_on_c, 0, 79, 0
2, 60600, Note_on_c, 0, 77, 80
2, 60621, Note_on_c, 0, 77, 0
2, 60624, Note_on_c, 0, 76, 80
2, 60669, Note_on_c, 0, 76, 0
2, 60672, Note_on_c, 0, 77, 80
2, 60761, Note_on_c, 0, 77, 0
2, 60768, Note_on_c, 0, 86, 96
2, 60816, Note_on_c, 0, 86, 0
2, 60816, Note_on_c, 0, 84, 80
2, 60861, Note_on_c, 0, 84, 0
2, 60864, Note_on_c, 0, 83, 80
2, 60909, Note_on_c, 0, 83, 0
2, 60912, Note_on_c, 0, 81, 80
2, 60957, Note_on_c, 0, 81, 0
2, 60960, Note_on_c, 0, 79, 80
2, 61005, Note_on_c, 0, 79, 0
2, 61008, Note_on_c, 0, 77, 80
2, 61053, Note_on_c, 0, 77, 0
2, 61056, Note_on_c, 0, 76, 80
2, 61101, Note_on_c, 0, 76, 0
2, 61104, Note_on_c, 0, 74, 80
2, 61149, Note_on_c, 0, 74, 0
2, 61152, Note_on_c, 0, 76, 80
2, 61164, Note_on_c, 0, 76, 0
2, 61164, Note_on_c, 0, 77, 80
2, 61176, Note_on_c, 0, 77, 0
2, 61176, Note_on_c, 0, 76, 80
2, 61197, Note_on_c, 0, 76, 0
2, 61200, Note_on_c, 0, 74, 80
2, 61245, Note_on_c, 0, 74, 0
2, 61248, Note_on_c, 0, 76, 80
2, 61337, Note_on_c, 0, 76, 0
2, 61344, Note_on_c, 0, 76, 80
2, 61356, Note_on_c, 0, 76, 0
2, 61356, Note_on_c, 0, 77, 80
2, 61368, Note_on_c, 0, 77, 0
2, 61368, Note_on_c, 0, 76, 80
2, 61389, Note_on_c, 0, 76, 0
2, 61392, Note_on_c, 0, 74, 80
2, 61437, Note_on_c, 0, 74, 0
2, 61440, Note_on_c, 0, 76, 80
2, 61529, Note_on_c, 0, 76, 0
2, 61536, Note_on_c, 0, 84, 96
2, 61584, Note_on_c, 0, 84, 0
2, 61584, Note_on_c, 0, 83, 80
2, 61629, Note_on_c, 0, 83, 0
2, 61632, Note_on_c, 0, 81, 80
2, 61677, Note_on_c, 0, 81, 0
2, 61680, Note_on_c, 0, 79, 80
2, 61725, Note_on_c, 0, 79, 0
2, 61728, Note_on_c, 0, 78, 80
2, 61773, Note_on_c, 0, 78, 0
2, 61776, Note_on_c, 0, 76, 80
2, 61821, Note_on_c, 0, 76, 0
2, 61824, Note_on_c, 0, 75, 80
2, 61869, Note_on_c, 0, 75, 0
2, 61872, Note_on_c, 0, 76, 80
2, 61917, Note_on_c, 0, 76, 0
2, 61920, Note_on_c, 0, 71, 80
2, 61932, Note_on_c, 0, 75, 80
2, 61944, Note_on_c, 0, 78, 80
2, 61956, Note_on_c, 0, 81, 80
2, 62149, Note_on_c, 0, 81, 0
2, 62149, Note_on_c, 0, 78, 0
2, 62149, Note_on_c, 0, 75, 0
2, 62149, Note_on_c, 0, 71, 0
2, 62208, Note_on_c, 0, 63, 80
2, 62223, Note_on_c, 0, 63, 0
2, 62224, Note_on_c, 0, 64, 80
2, 62239, Note_on_c, 0, 64, 0
2, 62240, Note_on_c, 0, 66, 80
2, 62255, Note_on_c, 0, 66, 0
2, 62256, Note_on_c, 0, 67, 80
2, 62271, Note_on_c, 0, 67, 0
2, 62272, Note_on_c, 0, 69, 80
2, 62287, Note_on_c, 0, 69, 0
2, 62288, Note_on_c, 0, 71, 80
2, 62303, Note_on_c, 0, 71, 0
2, 62304, Note_on_c, 0, 72, 96
2, 62400, Note_on_c, 0, 72, 0
2, 62400, Note_on_c, 0, 66, 80
2, 62419, Note_on_c, 0, 66, 0
2, 62420, Note_on_c, 0, 67, 80
2, 62438, Note_on_c, 0, 67, 0
2, 62439, Note_on_c, 0, 69, 80
2, 62457, Note_on_c, 0, 69, 0
2, 62458, Note_on_c, 0, 71, 80
2, 62476, Note_on_c, 0, 71, 0
2, 62477, Note_on_c, 0, 73, 80
2, 62495, Note_on_c, 0, 73, 0
2, 62496, Note_on_c, 0, 75, 96
2, 62592, Note_on_c, 0, 75, 0
2, 62592, Note_on_c, 0, 75, 80
2, 62607, Note_on_c, 0, 75, 0
2, 62608, Note_on_c, 0, 76, 80
2, 62623, Note_on_c, 0, 76, 0
2, 62624, Note_on_c, 0, 78, 80
2, 62639, Note_on_c, 0, 78, 0
2, 62640, Note_on_c, 0, 79, 80
2, 62655, Note_on_c, 0, 79, 0
2, 62656, Note_on_c, 0, 81, 80
2, 62671, Note_on_c, 0, 81, 0
2, 62672, Note_on_c, 0, 83, 80
2, 62687, Note_on_c, 0, 83, 0
2, 62688, Note_on_c, 0, 84, 96
2, 62688, Note_on_c, 0, 81, 96
2, 62688, Note_on_c, 0, 77, 96
2, 62688, Note_on_c, 0, 72, 96
2, 62784, Note_on_c, 0, 84, 0
2, 62784, Note_on_c, 0, 81, 0
2, 62784, Note_on_c, 0, 77, 0
2, 62784, Note_on_c, 0, 72, 0
2, 62832, Note_on_c, 0, 81, 80
2, 62855, Note_on_c, 0, 81, 0
2, 62856, Note_on_c, 0, 83, 80
2, 62879, Note_on_c, 0, 83, 0
2, 62880, Note_on_c, 0, 84, 80
2, 62925, Note_on_c, 0, 84, 0
2, 62928, Note_on_c, 0, 81, 80
2, 62951, Note_on_c, 0, 81, 0
2, 62952, Note_on_c, 0, 83, 80
2, 62975, Note_on_c, 0, 83, 0
2, 62976, Note_on_c, 0, 84, 80
2, 63021, Note_on_c, 0, 84, 0
2, 63024, Note_on_c, 0, 83, 80
2, 63047, Note_on_c, 0, 83, 0
2, 63048, Note_on_c, 0, 81, 80
2, 63071, Note_on_c, 0, 81, 0
2, 63072, Note_on_c, 0, 87, 96
2, 63072, Note_on_c, 0, 84, 96
2, 63072, Note_on_c, 0, 81, 96
2, 63072, Note_on_c, 0, 78, 96
2, 63168, Note_on_c, 0, 87, 0
2, 63168, Note_on_c, 0, 84, 0
2, 63168, Note_on_c, 0, 81, 0
2, 63168, Note_on_c, 0, 78, 0
2, 63216, Note_on_c, 0, 81, 80
2, 63239, Note_on_c, 0, 81, 0
2, 63240, Note_on_c, 0, 83, 80
2, 63263, Note_on_c, 0, 83, 0
2, 63264, Note_on_c, 0, 84, 80
2, 63309, Note_on_c, 0, 84, 0
2, 63312, Note_on_c, 0, 78, 80
2, 63335, Note_on_c, 0, 78, 0
2, 63336, Note_on_c, 0, 79, 80
2, 63359, Note_on_c, 0, 79, 0
2, 63360, Note_on_c, 0, 81, 80
2, 63405, Note_on_c, 0, 81, 0
2, 63408, Note_on_c, 0, 79, 80
2, 63431, Note_on_c, 0, 79, 0
2, 63432, Note_on_c, 0, 78, 80
2, 63455, Note_on_c, 0, 78, 0
2, 63456, Note_on_c, 0, 79, 96
2, 63456, Note_on_c, 0, 76, 96
2, 63456, Note_on_c, 0, 71, 96
2, 63552, Note_on_c, 0, 79, 0
2, 63552, Note_on_c, 0, 76, 0
2, 63552, Note_on_c, 0, 71, 0
2, 63600, Note_on_c, 0, 76, 80
2, 63623, Note_on_c, 0, 76, 0
2, 63624, Note_on_c, 0, 78, 80
2, 63647, Note_on_c, 0, 78, 0
2, 63648, Note_on_c, 0, 79, 80
2, 63693, Note_on_c, 0, 79, 0
2, 63696, Note_on_c, 0, 84, 78
2, 63741, Note_on_c, 0, 84, 0
2, 63744, Note_on_c, 0, 81, 76
2, 63789, Note_on_c, 0, 81, 0
2, 63792, Note_on_c, 0, 77, 74
2, 63837, Note_on_c, 0, 77, 0
2, 63840, Note_on_c, 0, 76, 72
2, 64032, Note_on_c, 0, 76, 0
2, 64032, Note_on_c, 0, 75, 65
2, 64077, Note_on_c, 0, 75, 0
2, 64128, Note_on_c, 0, 60, 80
2, 64167, Note_on_c, 0, 60, 0
2, 64224, Note_on_c, 0, 60, 96
2, 64320, Note_on_c, 0, 60, 0
2, 64320, Note_on_c, 0, 60, 80
2, 64350, Note_on_c, 0, 60, 0
2, 64352, Note_on_c, 0, 64, 80
2, 64382, Note_on_c, 0, 64, 0
2, 64384, Note_on_c, 0, 67, 80
2, 64414, Note_on_c, 0, 67, 0
2, 64416, Note_on_c, 0, 59, 96
2, 64512, Note_on_c, 0, 59, 0
2, 64512, Note_on_c, 0, 59, 80
2, 64542, Note_on_c, 0, 59, 0
2, 64544, Note_on_c, 0, 64, 80
2, 64574, Note_on_c, 0, 64, 0
2, 64576, Note_on_c, 0, 67, 80
2, 64606, Note_on_c, 0, 67, 0
2, 64608, Note_on_c, 0, 57, 96
2, 64800, Note_on_c, 0, 57, 0
2, 65088, Note_on_c, 0, 57, 70
2, 65118, Note_on_c, 0, 57, 0
2, 65120, Note_on_c, 0, 60, 70
2, 65150, Note_on_c, 0, 60, 0
2, 65152, Note_on_c, 0, 64, 70
2, 65182, Note_on_c, 0, 64, 0
2, 65184, Note_on_c, 0, 55, 86
2, 65280, Note_on_c, 0, 55, 0
2, 65280, Note_on_c, 0, 55, 70
2, 65310, Note_on_c, 0, 55, 0
2, 65312, Note_on_c, 0, 60, 70
2, 65342, Note_on_c, 0, 60, 0
2, 65344, Note_on_c, 0, 64, 70
2, 65374, Note_on_c, 0, 64, 0
2, 65376, Note_on_c, 0, 53, 86
2, 65563, Note_on_c, 0, 53, 0
2, 65760, Note_on_c, 0, 63, 64
2, 65760, Note_on_c, 0, 57, 64
2, 66040, Note_on_c, 0, 63, 0
2, 66040, Note_on_c, 0, 57, 0
2, 66144, Note_on_c, 0, 64, 64
2, 66144, Note_on_c, 0, 55, 64
2, 66192, Note_on_c, 0, 64, 0
2, 66192, Note_on_c, 0, 55, 0
2, 66192, Note_on_c, 0, 63, 64
2, 66192, Note_on_c, 0, 54, 64
2, 66237, Note_on_c, 0, 63, 0
2, 66237, Note_on_c, 0, 54, 0
2, 66240, Note_on_c, 0, 63, 64
2, 66240, Note_on_c, 0, 54, 64
2, 66288, Note_on_c, 0, 63, 0
2, 66288, Note_on_c, 0, 54, 0
2, 66288, Note_on_c, 0, 64, 64
2, 66288, Note_on_c, 0, 55, 64
2, 66333, Note_on_c, 0, 64, 0
2, 66333, Note_on_c, 0, 55, 0
2, 66336, Note_on_c, 0, 64, 64
2, 66336, Note_on_c, 0, 55, 64
2, 66384, Note_on_c, 0, 64, 0
2, 66384, Note_on_c, 0, 55, 0
2, 66384, Note_on_c, 0, 63, 64
2, 66384, Note_on_c, 0, 54, 64
2, 66429, Note_on_c, 0, 63, 0
2, 66429, Note_on_c, 0, 54, 0
2, 66432, Note_on_c, 0, 63, 64
2, 66432, Note_on_c, 0, 54, 64
2, 66480, Note_on_c, 0, 63, 0
2, 66480, Note_on_c, 0, 54, 0
2, 66480, Note_on_c, 0, 64, 64
2, 66480, Note_on_c, 0, 55, 64
2, 66525, Note_on_c, 0, 64, 0
2, 66525, Note_on_c, 0, 55, 0
2, 66528, Note_on_c, 0, 65, 64
2, 66528, Note_on_c, 0, 57, 64
2, 66576, Note_on_c, 0, 65, 0
2, 66576, Note_on_c, 0, 57, 0
2, 66576, Note_on_c, 0, 64, 64
2, 66576, Note_on_c, 0, 55, 64
2, 66621, Note_on_c, 0, 64, 0
2, 66621, Note_on_c, 0, 55, 0
2, 66624, Note_on_c, 0, 64, 64
2, 66624, Note_on_c, 0, 55, 64
2, 66672, Note_on_c, 0, 64, 0
2, 66672, Note_on_c, 0, 55, 0
2, 66672, Note_on_c, 0, 65, 64
2, 66672, Note_on_c, 0, 57, 64
2, 66717, Note_on_c, 0, 65, 0
2, 66717, Note_on_c, 0, 57, 0
2, 66720, Note_on_c, 0, 65, 64
2, 66720, Note_on_c, 0, 57, 64
2, 66765, Note_on_c, 0, 65, 0
2, 66765, Note_on_c, 0, 57, 0
2, 66768, Note_on_c, 0, 69, 64
2, 66768, Note_on_c, 0, 60, 64
2, 66813, Note_on_c, 0, 69, 0
2, 66813, Note_on_c, 0, 60, 0
2, 66816, Note_on_c, 0, 67, 64
2, 66816, Note_on_c, 0, 59, 64
2, 66861, Note_on_c, 0, 67, 0
2, 66861, Note_on_c, 0, 59, 0
2, 66864, Note_on_c, 0, 65, 64
2, 66864, Note_on_c, 0, 57, 64
2, 66909, Note_on_c, 0, 65, 0
2, 66909, Note_on_c, 0, 57, 0
2, 66912, Note_on_c, 0, 64, 64
2, 66912, Note_on_c, 0, 55, 64
2, 66960, Note_on_c, 0, 64, 0
2, 66960, Note_on_c, 0, 55, 0
2, 66960, Note_on_c, 0, 63, 63
2, 66960, Note_on_c, 0, 57, 63
2, 67005, Note_on_c, 0, 63, 0
2, 67005, Note_on_c, 0, 57, 0
2, 67008, Note_on_c, 0, 64, 63
2, 67008, Note_on_c, 0, 55, 63
2, 67056, Note_on_c, 0, 64, 0
2, 67056, Note_on_c, 0, 55, 0
2, 67056, Note_on_c, 0, 63, 62
2, 67056, Note_on_c, 0, 57, 62
2, 67101, Note_on_c, 0, 63, 0
2, 67101, Note_on_c, 0, 57, 0
2, 67104, Note_on_c, 0, 64, 62
2, 67104, Note_on_c, 0, 55, 62
2, 67152, Note_on_c, 0, 64, 0
2, 67152, Note_on_c, 0, 55, 0
2, 67152, Note_on_c, 0, 63, 61
2, 67152, Note_on_c, 0, 57, 61
2, 67197, Note_on_c, 0, 63, 0
2, 67197, Note_on_c, 0, 57, 0
2, 67200, Note_on_c, 0, 64, 61
2, 67200, Note_on_c, 0, 55, 61
2, 67248, Note_on_c, 0, 64, 0
2, 67248, Note_on_c, 0, 55, 0
2, 67248, Note_on_c, 0, 63, 60
2, 67248, Note_on_c, 0, 57, 60
2, 67293, Note_on_c, 0, 63, 0
2, 67293, Note_on_c, 0, 57, 0
2, 67296, Note_on_c, 0, 64, 60
2, 67296, Note_on_c, 0, 55, 60
2, 67533, Note_on_c, 0, 64, 0
2, 67533, Note_on_c, 0, 55, 0
2, 67584, Note_on_c, 0, 74, 75
2, 67623, Note_on_c, 0, 74, 0
2, 67680, Note_on_c, 0, 79, 75
2, 67725, Note_on_c, 0, 79, 0
2, 67728, Note_on_c, 0, 83, 75
2, 67773, Note_on_c, 0, 83, 0
2, 67776, Note_on_c, 0, 81, 76
2, 67821, Note_on_c, 0, 81, 0
2, 67824, Note_on_c, 0, 79, 76
2, 67869, Note_on_c, 0, 79, 0
2, 67872, Note_on_c, 0, 78, 77
2, 67917, Note_on_c, 0, 78, 0
2, 67920, Note_on_c, 0, 81, 78
2, 67965, Note_on_c, 0, 81, 0
2, 67968, Note_on_c, 0, 79, 78
2, 68013, Note_on_c, 0, 79, 0
2, 68016, Note_on_c, 0, 78, 79
2, 68061, Note_on_c, 0, 78, 0
2, 68064, Note_on_c, 0, 79, 80
2, 68109, Note_on_c, 0, 79, 0
2, 68112, Note_on_c, 0, 86, 79
2, 68132, Note_on_c, 0, 86, 0
2, 68160, Note_on_c, 0, 84, 78
2, 68180, Note_on_c, 0, 84, 0
2, 68208, Note_on_c, 0, 83, 78
2, 68228, Note_on_c, 0, 83, 0
2, 68256, Note_on_c, 0, 81, 77
2, 68276, Note_on_c, 0, 81, 0
2, 68304, Note_on_c, 0, 79, 76
2, 68324, Note_on_c, 0, 79, 0
2, 68352, Note_on_c, 0, 78, 76
2, 68400, Note_on_c, 0, 78, 0
2, 68400, Note_on_c, 0, 81, 75
2, 68445, Note_on_c, 0, 81, 0
2, 68496, Note_on_c, 0, 79, 75
2, 68541, Note_on_c, 0, 79, 0
2, 68544, Note_on_c, 0, 78, 75
2, 68589, Note_on_c, 0, 78, 0
2, 68592, Note_on_c, 0, 76, 75
2, 68637, Note_on_c, 0, 76, 0
2, 68640, Note_on_c, 0, 74, 75
2, 68685, Note_on_c, 0, 74, 0
2, 68688, Note_on_c, 0, 72, 75
2, 68733, Note_on_c, 0, 72, 0
2, 68736, Note_on_c, 0, 71, 75
2, 68781, Note_on_c, 0, 71, 0
2, 68784, Note_on_c, 0, 69, 75
2, 68829, Note_on_c, 0, 69, 0
2, 68832, Note_on_c, 0, 72, 75
2, 68880, Note_on_c, 0, 72, 0
2, 68880, Note_on_c, 0, 71, 75
2, 68925, Note_on_c, 0, 71, 0
2, 68928, Note_on_c, 0, 69, 75
2, 68973, Note_on_c, 0, 69, 0
2, 68976, Note_on_c, 0, 67, 75
2, 69021, Note_on_c, 0, 67, 0
2, 69024, Note_on_c, 0, 66, 75
2, 69069, Note_on_c, 0, 66, 0
2, 69072, Note_on_c, 0, 64, 75
2, 69117, Note_on_c, 0, 64, 0
2, 69120, Note_on_c, 0, 62, 75
2, 69165, Note_on_c, 0, 62, 0
2, 69168, Note_on_c, 0, 72, 91
2, 69261, Note_on_c, 0, 72, 0
2, 69264, Note_on_c, 0, 62, 75
2, 69309, Note_on_c, 0, 62, 0
2, 69312, Note_on_c, 0, 71, 74
2, 69332, Note_on_c, 0, 71, 0
2, 69360, Note_on_c, 0, 71, 74
2, 69380, Note_on_c, 0, 71, 0
2, 69456, Note_on_c, 0, 64, 73
2, 69501, Note_on_c, 0, 64, 0
2, 69504, Note_on_c, 0, 69, 73
2, 69524, Note_on_c, 0, 69, 0
2, 69552, Note_on_c, 0, 69, 73
2, 69572, Note_on_c, 0, 69, 0
2, 69648, Note_on_c, 0, 62, 72
2, 69693, Note_on_c, 0, 62, 0
2, 69696, Note_on_c, 0, 67, 72
2, 69716, Note_on_c, 0, 67, 0
2, 69744, Note_on_c, 0, 67, 71
2, 69764, Note_on_c, 0, 67, 0
2, 69840, Note_on_c, 0, 60, 71
2, 69885, Note_on_c, 0, 60, 0
2, 69888, Note_on_c, 0, 65, 70
2, 69908, Note_on_c, 0, 65, 0
2, 69936, Note_on_c, 0, 65, 70
2, 69956, Note_on_c, 0, 65, 0
2, 69984, Note_on_c, 0, 65, 70
2, 69996, Note_on_c, 0, 65, 0
2, 69996, Note_on_c, 0, 67, 70
2, 70008, Note_on_c, 0, 67, 0
2, 70008, Note_on_c, 0, 65, 70
2, 70029, Note_on_c, 0, 65, 0
2, 70032, Note_on_c, 0, 64, 70
2, 70077, Note_on_c, 0, 64, 0
2, 70080, Note_on_c, 0, 65, 71
2, 70169, Note_on_c, 0, 65, 0
2, 70176, Note_on_c, 0, 65, 72
2, 70188, Note_on_c, 0, 65, 0
2, 70188, Note_on_c, 0, 67, 72
2, 70200, Note_on_c, 0, 67, 0
2, 70200, Note_on_c, 0, 65, 72
2, 70221, Note_on_c, 0, 65, 0
2, 70224, Note_on_c, 0, 64, 73
2, 70269, Note_on_c, 0, 64, 0
2, 70272, Note_on_c, 0, 65, 73
2, 70361, Note_on_c, 0, 65, 0
2, 70368, Note_on_c, 0, 74, 91
2, 70416, Note_on_c, 0, 74, 0
2, 70416, Note_on_c, 0, 72, 74
2, 70461, Note_on_c, 0, 72, 0
2, 70464, Note_on_c, 0, 71, 73
2, 70509, Note_on_c, 0, 71, 0
2, 70512, Note_on_c, 0, 69, 73
2, 70557, Note_on_c, 0, 69, 0
2, 70560, Note_on_c, 0, 68, 72
2, 70605, Note_on_c, 0, 68, 0
2, 70608, Note_on_c, 0, 65, 71
2, 70653, Note_on_c, 0, 65, 0
2, 70656, Note_on_c, 0, 64, 71
2, 70701, Note_on_c, 0, 64, 0
2, 70704, Note_on_c, 0, 62, 70
2, 70749, Note_on_c, 0, 62, 0
2, 70752, Note_on_c, 0, 64, 70
2, 70764, Note_on_c, 0, 64, 0
2, 70764, Note_on_c, 0, 66, 70
2, 70776, Note_on_c, 0, 66, 0
2, 70776, Note_on_c, 0, 64, 70
2, 70797, Note_on_c, 0, 64, 0
2, 70800, Note_on_c, 0, 62, 70
2, 70845, Note_on_c, 0, 62, 0
2, 70848, Note_on_c, 0, 64, 71
2, 70937, Note_on_c, 0, 64, 0
2, 70944, Note_on_c, 0, 64, 72
2, 70956, Note_on_c, 0, 64, 0
2, 70956, Note_on_c, 0, 66, 72
2, 70968, Note_on_c, 0, 66, 0
2, 70968, Note_on_c, 0, 64, 72
2, 70989, Note_on_c, 0, 64, 0
2, 70992, Note_on_c, 0, 62, 73
2, 71037, Note_on_c, 0, 62, 0
2, 71040, Note_on_c, 0, 64, 73
2, 71129, Note_on_c, 0, 64, 0
2, 71136, Note_on_c, 0, 72, 91
2, 71184, Note_on_c, 0, 72, 0
2, 71184, Note_on_c, 0, 71, 74
2, 71229, Note_on_c, 0, 71, 0
2, 71232, Note_on_c, 0, 69, 73
2, 71277, Note_on_c, 0, 69, 0
2, 71280, Note_on_c, 0, 67, 73
2, 71325, Note_on_c, 0, 67, 0
2, 71328, Note_on_c, 0, 65, 72
2, 71373, Note_on_c, 0, 65, 0
2, 71376, Note_on_c, 0, 64, 71
2, 71421, Note_on_c, 0, 64, 0
2, 71424, Note_on_c, 0, 62, 71
2, 71469, Note_on_c, 0, 62, 0
2, 71472, Note_on_c, 0, 60, 70
2, 71517, Note_on_c, 0, 60, 0
2, 71520, Note_on_c, 0, 59, 86
2, 71540, Note_on_c, 0, 59, 0
2, 71568, Note_on_c, 0, 59, 70
2, 71591, Note_on_c, 0, 59, 0
2, 71592, Note_on_c, 0, 60, 70
2, 71615, Note_on_c, 0, 60, 0
2, 71616, Note_on_c, 0, 62, 70
2, 71636, Note_on_c, 0, 62, 0
2, 71664, Note_on_c, 0, 59, 71
2, 71684, Note_on_c, 0, 59, 0
2, 71712, Note_on_c, 0, 56, 88
2, 71732, Note_on_c, 0, 56, 0
2, 71760, Note_on_c, 0, 56, 72
2, 71783, Note_on_c, 0, 56, 0
2, 71784, Note_on_c, 0, 57, 73
2, 71807, Note_on_c, 0, 57, 0
2, 71808, Note_on_c, 0, 59, 73
2, 71828, Note_on_c, 0, 59, 0
2, 71856, Note_on_c, 0, 56, 74
2, 71876, Note_on_c, 0, 56, 0
2, 71904, Note_on_c, 0, 69, 90
2, 71924, Note_on_c, 0, 69, 0
2, 71952, Note_on_c, 0, 69, 75
2, 71975, Note_on_c, 0, 69, 0
2, 71976, Note_on_c, 0, 71, 75
2, 71999, Note_on_c, 0, 71, 0
2, 72000, Note_on_c, 0, 72, 76
2, 72020, Note_on_c, 0, 72, 0
2, 72048, Note_on_c, 0, 69, 76
2, 72068, Note_on_c, 0, 69, 0
2, 72096, Note_on_c, 0, 65, 93
2, 72116, Note_on_c, 0, 65, 0
2, 72144, Note_on_c, 0, 65, 78
2, 72167, Note_on_c, 0, 65, 0
2, 72168, Note_on_c, 0, 67, 78
2, 72191, Note_on_c, 0, 67, 0
2, 72192, Note_on_c, 0, 69, 78
2, 72212, Note_on_c, 0, 69, 0
2, 72240, Note_on_c, 0, 65, 79
2, 72260, Note_on_c, 0, 65, 0
2, 72288, Note_on_c, 0, 70, 96
2, 72288, Note_on_c, 0, 65, 96
2, 72288, Note_on_c, 0, 62, 96
2, 72288, Note_on_c, 0, 58, 96
2, 72384, Note_on_c, 0, 70, 0
2, 72384, Note_on_c, 0, 65, 0
2, 72384, Note_on_c, 0, 62, 0
2, 72384, Note_on_c, 0, 58, 0
2, 72432, Note_on_c, 0, 77, 80
2, 72455, Note_on_c, 0, 77, 0
2, 72456, Note_on_c, 0, 76, 80
2, 72479, Note_on_c, 0, 76, 0
2, 72480, Note_on_c, 0, 74, 80
2, 72525, Note_on_c, 0, 74, 0
2, 72528, Note_on_c, 0, 74, 80
2, 72551, Note_on_c, 0, 74, 0
2, 72552, Note_on_c, 0, 72, 80
2, 72575, Note_on_c, 0, 72, 0
2, 72576, Note_on_c, 0, 70, 80
2, 72621, Note_on_c, 0, 70, 0
2, 72624, Note_on_c, 0, 70, 80
2, 72647, Note_on_c, 0, 70, 0
2, 72648, Note_on_c, 0, 69, 80
2, 72671, Note_on_c, 0, 69, 0
2, 72672, Note_on_c, 0, 68, 96
2, 72672, Note_on_c, 0, 62, 96
2, 72672, Note_on_c, 0, 59, 96
2, 72768, Note_on_c, 0, 68, 0
2, 72768, Note_on_c, 0, 62, 0
2, 72768, Note_on_c, 0, 59, 0
2, 73056, Note_on_c, 0, 69, 96
2, 73056, Note_on_c, 0, 64, 96
2, 73056, Note_on_c, 0, 60, 96
2, 73152, Note_on_c, 0, 69, 0
2, 73152, Note_on_c, 0, 64, 0
2, 73152, Note_on_c, 0, 60, 0
2, 73200, Note_on_c, 0, 76, 80
2, 73223, Note_on_c, 0, 76, 0
2, 73224, Note_on_c, 0, 74, 80
2, 73247, Note_on_c, 0, 74, 0
2, 73248, Note_on_c, 0, 72, 80
2, 73293, Note_on_c, 0, 72, 0
2, 73296, Note_on_c, 0, 72, 80
2, 73319, Note_on_c, 0, 72, 0
2, 73320, Note_on_c, 0, 71, 80
2, 73343, Note_on_c, 0, 71, 0
2, 73344, Note_on_c, 0, 69, 80
2, 73389, Note_on_c, 0, 69, 0
2, 73392, Note_on_c, 0, 74, 80
2, 73437, Note_on_c, 0, 74, 0
2, 73440, Note_on_c, 0, 63, 96
2, 73440, Note_on_c, 0, 67, 96
2, 73440, Note_on_c, 0, 70, 96
2, 73440, Note_on_c, 0, 73, 96
2, 73536, Note_on_c, 0, 73, 0
2, 73536, Note_on_c, 0, 70, 0
2, 73536, Note_on_c, 0, 67, 0
2, 73536, Note_on_c, 0, 63, 0
2, 73584, Note_on_c, 0, 67, 80
2, 73607, Note_on_c, 0, 67, 0
2, 73608, Note_on_c, 0, 69, 80
2, 73631, Note_on_c, 0, 69, 0
2, 73632, Note_on_c, 0, 70, 80
2, 73677, Note_on_c, 0, 70, 0
2, 73680, Note_on_c, 0, 79, 80
2, 73703, Note_on_c, 0, 79, 0
2, 73704, Note_on_c, 0, 81, 80
2, 73727, Note_on_c, 0, 81, 0
2, 73728, Note_on_c, 0, 82, 80
2, 73773, Note_on_c, 0, 82, 0
2, 73776, Note_on_c, 0, 73, 80
2, 73821, Note_on_c, 0, 73, 0
2, 73824, Note_on_c, 0, 74, 80
2, 73872, Note_on_c, 0, 74, 0
2, 73872, Note_on_c, 0, 62, 78
2, 73917, Note_on_c, 0, 62, 0
2, 73920, Note_on_c, 0, 74, 77
2, 73965, Note_on_c, 0, 74, 0
2, 73968, Note_on_c, 0, 74, 76
2, 74013, Note_on_c, 0, 74, 0
2, 74016, Note_on_c, 0, 74, 75
2, 74064, Note_on_c, 0, 74, 0
2, 74064, Note_on_c, 0, 62, 74
2, 74109, Note_on_c, 0, 62, 0
2, 74112, Note_on_c, 0, 74, 73
2, 74157, Note_on_c, 0, 74, 0
2, 74160, Note_on_c, 0, 74, 72
2, 74205, Note_on_c, 0, 74, 0
2, 74208, Note_on_c, 0, 74, 71
2, 74256, Note_on_c, 0, 74, 0
2, 74256, Note_on_c, 0, 62, 70
2, 74301, Note_on_c, 0, 62, 0
2, 74304, Note_on_c, 0, 74, 69
2, 74349, Note_on_c, 0, 74, 0
2, 74352, Note_on_c, 0, 74, 68
2, 74397, Note_on_c, 0, 74, 0
2, 74400, Note_on_c, 0, 74, 67
2, 74448, Note_on_c, 0, 74, 0
2, 74448, Note_on_c, 0, 62, 66
2, 74493, Note_on_c, 0, 62, 0
2, 74496, Note_on_c, 0, 74, 65
2, 74541, Note_on_c, 0, 74, 0
2, 74544, Note_on_c, 0, 74, 64
2, 74589, Note_on_c, 0, 74, 0
2, 74592, Note_on_c, 0, 76, 64
2, 74612, Note_on_c, 0, 76, 0
2, 74613, Note_on_c, 0, 74, 64
2, 74633, Note_on_c, 0, 74, 0
2, 74634, Note_on_c, 0, 76, 64
2, 74654, Note_on_c, 0, 76, 0
2, 74655, Note_on_c, 0, 74, 64
2, 74675, Note_on_c, 0, 74, 0
2, 74676, Note_on_c, 0, 76, 64
2, 74695, Note_on_c, 0, 76, 0
2, 74696, Note_on_c, 0, 74, 64
2, 74715, Note_on_c, 0, 74, 0
2, 74716, Note_on_c, 0, 76, 64
2, 74735, Note_on_c, 0, 76, 0
2, 74736, Note_on_c, 0, 74, 64
2, 74755, Note_on_c, 0, 74, 0
2, 74756, Note_on_c, 0, 76, 64
2, 74775, Note_on_c, 0, 76, 0
2, 74776, Note_on_c, 0, 74, 64
2, 74795, Note_on_c, 0, 74, 0
2, 74796, Note_on_c, 0, 76, 64
2, 74815, Note_on_c, 0, 76, 0
2, 74816, Note_on_c, 0, 74, 64
2, 74835, Note_on_c, 0, 74, 0
2, 74836, Note_on_c, 0, 76, 64
2, 74855, Note_on_c, 0, 76, 0
2, 74856, Note_on_c, 0, 74, 64
2, 74875, Note_on_c, 0, 74, 0
2, 74876, Note_on_c, 0, 76, 64
2, 74895, Note_on_c, 0, 76, 0
2, 74896, Note_on_c, 0, 74, 64
2, 74915, Note_on_c, 0, 74, 0
2, 74916, Note_on_c, 0, 76, 64
2, 74935, Note_on_c, 0, 76, 0
2, 74936, Note_on_c, 0, 74, 64
2, 75024, Note_on_c, 0, 74, 0
2, 75024, Note_on_c, 0, 79, 64
2, 75047, Note_on_c, 0, 79, 0
2, 75048, Note_on_c, 0, 81, 64
2, 75071, Note_on_c, 0, 81, 0
2, 75072, Note_on_c, 0, 82, 64
2, 75117, Note_on_c, 0, 82, 0
2, 75120, Note_on_c, 0, 74, 64
2, 75165, Note_on_c, 0, 74, 0
2, 75168, Note_on_c, 0, 77, 64
2, 75187, Note_on_c, 0, 77, 0
2, 75188, Note_on_c, 0, 75, 64
2, 75207, Note_on_c, 0, 75, 0
2, 75208, Note_on_c, 0, 77, 64
2, 75226, Note_on_c, 0, 77, 0
2, 75227, Note_on_c, 0, 75, 64
2, 75245, Note_on_c, 0, 75, 0
2, 75246, Note_on_c, 0, 77, 64
2, 75264, Note_on_c, 0, 77, 0
2, 75265, Note_on_c, 0, 75, 64
2, 75283, Note_on_c, 0, 75, 0
2, 75284, Note_on_c, 0, 77, 64
2, 75302, Note_on_c, 0, 77, 0
2, 75303, Note_on_c, 0, 75, 64
2, 75321, Note_on_c, 0, 75, 0
2, 75322, Note_on_c, 0, 74, 64
2, 75341, Note_on_c, 0, 74, 0
2, 75341, Note_on_c, 0, 75, 64
2, 75408, Note_on_c, 0, 75, 0
2, 75408, Note_on_c, 0, 74, 75
2, 75453, Note_on_c, 0, 74, 0
2, 75456, Note_on_c, 0, 72, 75
2, 75501, Note_on_c, 0, 72, 0
2, 75504, Note_on_c, 0, 70, 75
2, 75549, Note_on_c, 0, 70, 0
2, 75552, Note_on_c, 0, 74, 75
2, 75597, Note_on_c, 0, 74, 0
2, 75600, Note_on_c, 0, 72, 75
2, 75645, Note_on_c, 0, 72, 0
2, 75648, Note_on_c, 0, 70, 75
2, 75693, Note_on_c, 0, 70, 0
2, 75696, Note_on_c, 0, 69, 75
2, 75741, Note_on_c, 0, 69, 0
2, 75744, Note_on_c, 0, 84, 75
2, 75789, Note_on_c, 0, 84, 0
2, 75792, Note_on_c, 0, 82, 75
2, 75837, Note_on_c, 0, 82, 0
2, 75840, Note_on_c, 0, 81, 76
2, 75885, Note_on_c, 0, 81, 0
2, 75888, Note_on_c, 0, 79, 76
2, 75933, Note_on_c, 0, 79, 0
2, 75936, Note_on_c, 0, 78, 77
2, 75981, Note_on_c, 0, 78, 0
2, 75984, Note_on_c, 0, 75, 78
2, 76029, Note_on_c, 0, 75, 0
2, 76032, Note_on_c, 0, 74, 78
2, 76077, Note_on_c, 0, 74, 0
2, 76080, Note_on_c, 0, 72, 79
2, 76125, Note_on_c, 0, 72, 0
2, 76128, Note_on_c, 0, 71, 96
2, 76128, Note_on_c, 0, 65, 96
2, 76128, Note_on_c, 0, 62, 96
2, 76128, Note_on_c, 0, 59, 96
2, 76224, Note_on_c, 0, 71, 0
2, 76224, Note_on_c, 0, 65, 0
2, 76224, Note_on_c, 0, 62, 0
2, 76224, Note_on_c, 0, 59, 0
2, 76272, Note_on_c, 0, 74, 80
2, 76295, Note_on_c, 0, 74, 0
2, 76296, Note_on_c, 0, 72, 80
2, 76319, Note_on_c, 0, 72, 0
2, 76320, Note_on_c, 0, 71, 80
2, 76365, Note_on_c, 0, 71, 0
2, 76368, Note_on_c, 0, 71, 80
2, 76391, Note_on_c, 0, 71, 0
2, 76392, Note_on_c, 0, 69, 80
2, 76415, Note_on_c, 0, 69, 0
2, 76416, Note_on_c, 0, 67, 80
2, 76461, Note_on_c, 0, 67, 0
2, 76464, Note_on_c, 0, 67, 80
2, 76487, Note_on_c, 0, 67, 0
2, 76488, Note_on_c, 0, 65, 80
2, 76511, Note_on_c, 0, 65, 0
2, 76512, Note_on_c, 0, 72, 96
2, 76512, Note_on_c, 0, 67, 96
2, 76512, Note_on_c, 0, 64, 96
2, 76589, Note_on_c, 0, 72, 0
2, 76589, Note_on_c, 0, 67, 0
2, 76589, Note_on_c, 0, 64, 0
2, 76896, Note_on_c, 0, 74, 98
2, 76896, Note_on_c, 0, 69, 98
2, 76896, Note_on_c, 0, 65, 98
2, 76973, Note_on_c, 0, 74, 0
2, 76973, Note_on_c, 0, 69, 0
2, 76973, Note_on_c, 0, 65, 0
2, 77280, Note_on_c, 0, 75, 100
2, 77280, Note_on_c, 0, 72, 100
2, 77280, Note_on_c, 0, 69, 100
2, 77280, Note_on_c, 0, 65, 100
2, 77357, Note_on_c, 0, 75, 0
2, 77357, Note_on_c, 0, 72, 0
2, 77357, Note_on_c, 0, 69, 0
2, 77357, Note_on_c, 0, 65, 0
2, 77664, Note_on_c, 0, 76, 102
2, 77664, Note_on_c, 0, 71, 102
2, 77664, Note_on_c, 0, 68, 102
2, 77664, Note_on_c, 0, 64, 102
2, 77856, Note_on_c, 0, 76, 0
2, 77856, Note_on_c, 0, 71, 0
2, 77856, Note_on_c, 0, 68, 0
2, 77856, Note_on_c, 0, 64, 0
2, 78336, Note_on_c, 0, 64, 75
2, 78375, Note_on_c, 0, 64, 0
2, 78432, Note_on_c, 0, 69, 75
2, 78477, Note_on_c, 0, 69, 0
2, 78480, Note_on_c, 0, 72, 76
2, 78525, Note_on_c, 0, 72, 0
2, 78528, Note_on_c, 0, 71, 77
2, 78573, Note_on_c, 0, 71, 0
2, 78576, Note_on_c, 0, 69, 78
2, 78621, Note_on_c, 0, 69, 0
2, 78624, Note_on_c, 0, 68, 80
2, 78669, Note_on_c, 0, 68, 0
2, 78672, Note_on_c, 0, 71, 78
2, 78717, Note_on_c, 0, 71, 0
2, 78720, Note_on_c, 0, 69, 77
2, 78765, Note_on_c, 0, 69, 0
2, 78768, Note_on_c, 0, 68, 76
2, 78813, Note_on_c, 0, 68, 0
2, 78816, Note_on_c, 0, 69, 75
2, 78861, Note_on_c, 0, 69, 0
2, 78864, Note_on_c, 0, 72, 75
2, 78909, Note_on_c, 0, 72, 0
2, 78912, Note_on_c, 0, 71, 75
2, 78957, Note_on_c, 0, 71, 0
2, 78960, Note_on_c, 0, 69, 75
2, 79005, Note_on_c, 0, 69, 0
2, 79008, Note_on_c, 0, 71, 75
2, 79053, Note_on_c, 0, 71, 0
2, 79056, Note_on_c, 0, 69, 75
2, 79101, Note_on_c, 0, 69, 0
2, 79104, Note_on_c, 0, 68, 75
2, 79149, Note_on_c, 0, 68, 0
2, 79152, Note_on_c, 0, 71, 75
2, 79197, Note_on_c, 0, 71, 0
2, 79200, Note_on_c, 0, 69, 75
2, 79245, Note_on_c, 0, 69, 0
2, 79248, Note_on_c, 0, 76, 75
2, 79293, Note_on_c, 0, 76, 0
2, 79296, Note_on_c, 0, 74, 75
2, 79341, Note_on_c, 0, 74, 0
2, 79344, Note_on_c, 0, 72, 75
2, 79389, Note_on_c, 0, 72, 0
2, 79392, Note_on_c, 0, 71, 76
2, 79437, Note_on_c, 0, 71, 0
2, 79440, Note_on_c, 0, 74, 76
2, 79485, Note_on_c, 0, 74, 0
2, 79488, Note_on_c, 0, 72, 76
2, 79533, Note_on_c, 0, 72, 0
2, 79536, Note_on_c, 0, 71, 77
2, 79581, Note_on_c, 0, 71, 0
2, 79584, Note_on_c, 0, 72, 77
2, 79629, Note_on_c, 0, 72, 0
2, 79632, Note_on_c, 0, 76, 77
2, 79677, Note_on_c, 0, 76, 0
2, 79680, Note_on_c, 0, 74, 78
2, 79725, Note_on_c, 0, 74, 0
2, 79728, Note_on_c, 0, 72, 78
2, 79773, Note_on_c, 0, 72, 0
2, 79776, Note_on_c, 0, 74, 78
2, 79821, Note_on_c, 0, 74, 0
2, 79824, Note_on_c, 0, 77, 79
2, 79869, Note_on_c, 0, 77, 0
2, 79872, Note_on_c, 0, 76, 79
2, 79917, Note_on_c, 0, 76, 0
2, 79920, Note_on_c, 0, 74, 79
2, 79965, Note_on_c, 0, 74, 0
2, 80016, Note_on_c, 0, 79, 80
2, 80036, Note_on_c, 0, 79, 0
2, 80064, Note_on_c, 0, 79, 80
2, 80076, Note_on_c, 0, 79, 0
2, 80076, Note_on_c, 0, 81, 80
2, 80088, Note_on_c, 0, 81, 0
2, 80088, Note_on_c, 0, 79, 80
2, 80109, Note_on_c, 0, 79, 0
2, 80112, Note_on_c, 0, 78, 80
2, 80135, Note_on_c, 0, 78, 0
2, 80136, Note_on_c, 0, 79, 80
2, 80159, Note_on_c, 0, 79, 0
2, 80160, Note_on_c, 0, 84, 80
2, 80208, Note_on_c, 0, 84, 0
2, 80208, Note_on_c, 0, 79, 80
2, 80228, Note_on_c, 0, 79, 0
2, 80256, Note_on_c, 0, 79, 80
2, 80345, Note_on_c, 0, 79, 0
2, 80400, Note_on_c, 0, 67, 80
2, 80420, Note_on_c, 0, 67, 0
2, 80448, Note_on_c, 0, 67, 80
2, 80460, Note_on_c, 0, 67, 0
2, 80460, Note_on_c, 0, 69, 80
2, 80472, Note_on_c, 0, 69, 0
2, 80472, Note_on_c, 0, 67, 80
2, 80493, Note_on_c, 0, 67, 0
2, 80496, Note_on_c, 0, 66, 80
2, 80519, Note_on_c, 0, 66, 0
2, 80520, Note_on_c, 0, 67, 80
2, 80543, Note_on_c, 0, 67, 0
2, 80544, Note_on_c, 0, 72, 80
2, 80592, Note_on_c, 0, 72, 0
2, 80592, Note_on_c, 0, 67, 80
2, 80612, Note_on_c, 0, 67, 0
2, 80640, Note_on_c, 0, 67, 80
2, 80729, Note_on_c, 0, 67, 0
2, 80784, Note_on_c, 0, 77, 80
2, 80804, Note_on_c, 0, 77, 0
2, 80832, Note_on_c, 0, 77, 80
2, 80844, Note_on_c, 0, 77, 0
2, 80844, Note_on_c, 0, 79, 80
2, 80856, Note_on_c, 0, 79, 0
2, 80856, Note_on_c, 0, 77, 80
2, 80877, Note_on_c, 0, 77, 0
2, 80880, Note_on_c, 0, 76, 80
2, 80903, Note_on_c, 0, 76, 0
2, 80904, Note_on_c, 0, 77, 80
2, 80927, Note_on_c, 0, 77, 0
2, 80928, Note_on_c, 0, 84, 80
2, 80976, Note_on_c, 0, 84, 0
2, 80976, Note_on_c, 0, 77, 80
2, 80996, Note_on_c, 0, 77, 0
2, 81024, Note_on_c, 0, 77, 80
2, 81113, Note_on_c, 0, 77, 0
2, 81168, Note_on_c, 0, 77, 80
2, 81188, Note_on_c, 0, 77, 0
2, 81216, Note_on_c, 0, 77, 80
2, 81228, Note_on_c, 0, 77, 0
2, 81228, Note_on_c, 0, 79, 80
2, 81240, Note_on_c, 0, 79, 0
2, 81240, Note_on_c, 0, 77, 80
2, 81261, Note_on_c, 0, 77, 0
2, 81264, Note_on_c, 0, 76, 80
2, 81287, Note_on_c, 0, 76, 0
2, 81288, Note_on_c, 0, 77, 80
2, 81311, Note_on_c, 0, 77, 0
2, 81312, Note_on_c, 0, 86, 80
2, 81360, Note_on_c, 0, 86, 0
2, 81360, Note_on_c, 0, 77, 80
2, 81380, Note_on_c, 0, 77, 0
2, 81408, Note_on_c, 0, 77, 80
2, 81497, Note_on_c, 0, 77, 0
2, 81552, Note_on_c, 0, 76, 80
2, 81572, Note_on_c, 0, 76, 0
2, 81600, Note_on_c, 0, 76, 80
2, 81612, Note_on_c, 0, 76, 0
2, 81612, Note_on_c, 0, 77, 80
2, 81624, Note_on_c, 0, 77, 0
2, 81624, Note_on_c, 0, 76, 80
2, 81645, Note_on_c, 0, 76, 0
2, 81648, Note_on_c, 0, 75, 80
2, 81671, Note_on_c, 0, 75, 0
2, 81672, Note_on_c, 0, 76, 80
2, 81695, Note_on_c, 0, 76, 0
2, 81696, Note_on_c, 0, 84, 80
2, 81744, Note_on_c, 0, 84, 0
2, 81744, Note_on_c, 0, 76, 80
2, 81764, Note_on_c, 0, 76, 0
2, 81792, Note_on_c, 0, 76, 80
2, 81881, Note_on_c, 0, 76, 0
2, 81936, Note_on_c, 0, 76, 80
2, 81956, Note_on_c, 0, 76, 0
2, 81984, Note_on_c, 0, 76, 80
2, 81996, Note_on_c, 0, 76, 0
2, 81996, Note_on_c, 0, 77, 80
2, 82008, Note_on_c, 0, 77, 0
2, 82008, Note_on_c, 0, 76, 80
2, 82029, Note_on_c, 0, 76, 0
2, 82032, Note_on_c, 0, 75, 80
2, 82055, Note_on_c, 0, 75, 0
2, 82056, Note_on_c, 0, 76, 80
2, 82079, Note_on_c, 0, 76, 0
2, 82080, Note_on_c, 0, 84, 80
2, 82128, Note_on_c, 0, 84, 0
2, 82128, Note_on_c, 0, 76, 80
2, 82148, Note_on_c, 0, 76, 0
2, 82176, Note_on_c, 0, 76, 80
2, 82265, Note_on_c, 0, 76, 0
2, 82320, Note_on_c, 0, 74, 80
2, 82340, Note_on_c, 0, 74, 0
2, 82368, Note_on_c, 0, 74, 80
2, 82380, Note_on_c, 0, 74, 0
2, 82380, Note_on_c, 0, 76, 80
2, 82392, Note_on_c, 0, 76, 0
2, 82392, Note_on_c, 0, 74, 80
2, 82413, Note_on_c, 0, 74, 0
2, 82416, Note_on_c, 0, 73, 80
2, 82439, Note_on_c, 0, 73, 0
2, 82440, Note_on_c, 0, 74, 80
2, 82463, Note_on_c, 0, 74, 0
2, 82464, Note_on_c, 0, 81, 80
2, 82512, Note_on_c, 0, 81, 0
2, 82512, Note_on_c, 0, 74, 80
2, 82532, Note_on_c, 0, 74, 0
2, 82560, Note_on_c, 0, 74, 80
2, 82649, Note_on_c, 0, 74, 0
2, 82704, Note_on_c, 0, 72, 80
2, 82724, Note_on_c, 0, 72, 0
2, 82752, Note_on_c, 0, 72, 80
2, 82764, Note_on_c, 0, 72, 0
2, 82764, Note_on_c, 0, 74, 80
2, 82776, Note_on_c, 0, 74, 0
2, 82776, Note_on_c, 0, 72, 80
2, 82797, Note_on_c, 0, 72, 0
2, 82800, Note_on_c, 0, 71, 80
2, 82823, Note_on_c, 0, 71, 0
2, 82824, Note_on_c, 0, 72, 80
2, 82847, Note_on_c, 0, 72, 0
2, 82848, Note_on_c, 0, 81, 80
2, 82896, Note_on_c, 0, 81, 0
2, 82896, Note_on_c, 0, 72, 80
2, 82916, Note_on_c, 0, 72, 0
2, 82944, Note_on_c, 0, 72, 80
2, 83033, Note_on_c, 0, 72, 0
2, 83088, Note_on_c, 0, 71, 80
2, 83108, Note_on_c, 0, 71, 0
2, 83136, Note_on_c, 0, 71, 80
2, 83148, Note_on_c, 0, 71, 0
2, 83148, Note_on_c, 0, 72, 80
2, 83160, Note_on_c, 0, 72, 0
2, 83160, Note_on_c, 0, 71, 80
2, 83181, Note_on_c, 0, 71, 0
2, 83184, Note_on_c, 0, 69, 80
2, 83207, Note_on_c, 0, 69, 0
2, 83208, Note_on_c, 0, 71, 80
2, 83231, Note_on_c, 0, 71, 0
2, 83232, Note_on_c, 0, 79, 80
2, 83280, Note_on_c, 0, 79, 0
2, 83280, Note_on_c, 0, 71, 80
2, 83300, Note_on_c, 0, 71, 0
2, 83328, Note_on_c, 0, 71, 80
2, 83417, Note_on_c, 0, 71, 0
2, 83472, Note_on_c, 0, 67, 80
2, 83492, Note_on_c, 0, 67, 0
2, 83520, Note_on_c, 0, 67, 79
2, 83532, Note_on_c, 0, 67, 0
2, 83532, Note_on_c, 0, 69, 79
2, 83544, Note_on_c, 0, 69, 0
2, 83544, Note_on_c, 0, 67, 79
2, 83565, Note_on_c, 0, 67, 0
2, 83568, Note_on_c, 0, 66, 78
2, 83591, Note_on_c, 0, 66, 0
2, 83592, Note_on_c, 0, 67, 78
2, 83615, Note_on_c, 0, 67, 0
2, 83616, Note_on_c, 0, 76, 77
2, 83664, Note_on_c, 0, 76, 0
2, 83664, Note_on_c, 0, 67, 76
2, 83684, Note_on_c, 0, 67, 0
2, 83712, Note_on_c, 0, 67, 76
2, 83724, Note_on_c, 0, 67, 0
2, 83724, Note_on_c, 0, 69, 76
2, 83736, Note_on_c, 0, 69, 0
2, 83736, Note_on_c, 0, 67, 76
2, 83757, Note_on_c, 0, 67, 0
2, 83760, Note_on_c, 0, 66, 75
2, 83783, Note_on_c, 0, 66, 0
2, 83784, Note_on_c, 0, 67, 75
2, 83807, Note_on_c, 0, 67, 0
2, 83808, Note_on_c, 0, 67, 74
2, 84000, Note_on_c, 0, 67, 0
2, 84000, Note_on_c, 0, 66, 71
2, 84089, Note_on_c, 0, 66, 0
2, 84192, Note_on_c, 0, 74, 80
2, 84231, Note_on_c, 0, 74, 0
2, 84288, Note_on_c, 0, 74, 96
2, 84384, Note_on_c, 0, 74, 0
2, 84384, Note_on_c, 0, 74, 80
2, 84414, Note_on_c, 0, 74, 0
2, 84416, Note_on_c, 0, 78, 80
2, 84446, Note_on_c, 0, 78, 0
2, 84448, Note_on_c, 0, 81, 80
2, 84478, Note_on_c, 0, 81, 0
2, 84480, Note_on_c, 0, 72, 96
2, 84576, Note_on_c, 0, 72, 0
2, 84576, Note_on_c, 0, 72, 80
2, 84606, Note_on_c, 0, 72, 0
2, 84608, Note_on_c, 0, 78, 80
2, 84638, Note_on_c, 0, 78, 0
2, 84640, Note_on_c, 0, 81, 80
2, 84670, Note_on_c, 0, 81, 0
2, 84672, Note_on_c, 0, 71, 96
2, 84766, Note_on_c, 0, 71, 0
2, 85152, Note_on_c, 0, 71, 64
2, 85182, Note_on_c, 0, 71, 0
2, 85184, Note_on_c, 0, 76, 64
2, 85214, Note_on_c, 0, 76, 0
2, 85216, Note_on_c, 0, 79, 64
2, 85246, Note_on_c, 0, 79, 0
2, 85248, Note_on_c, 0, 71, 80
2, 85344, Note_on_c, 0, 71, 0
2, 85344, Note_on_c, 0, 71, 64
2, 85374, Note_on_c, 0, 71, 0
2, 85376, Note_on_c, 0, 76, 64
2, 85406, Note_on_c, 0, 76, 0
2, 85408, Note_on_c, 0, 79, 64
2, 85438, Note_on_c, 0, 79, 0
2, 85440, Note_on_c, 0, 70, 80
2, 85534, Note_on_c, 0, 70, 0
2, 85824, Note_on_c, 0, 64, 70
2, 85863, Note_on_c, 0, 64, 0
2, 85920, Note_on_c, 0, 67, 71
2, 85959, Note_on_c, 0, 67, 0
2, 86016, Note_on_c, 0, 66, 72
2, 86055, Note_on_c, 0, 66, 0
2, 86112, Note_on_c, 0, 69, 73
2, 86151, Note_on_c, 0, 69, 0
2, 86208, Note_on_c, 0, 67, 75
2, 86253, Note_on_c, 0, 67, 0
2, 86256, Note_on_c, 0, 83, 74
2, 86276, Note_on_c, 0, 83, 0
2, 86304, Note_on_c, 0, 81, 73
2, 86324, Note_on_c, 0, 81, 0
2, 86352, Note_on_c, 0, 79, 73
2, 86372, Note_on_c, 0, 79, 0
2, 86400, Note_on_c, 0, 78, 72
2, 86420, Note_on_c, 0, 78, 0
2, 86448, Note_on_c, 0, 76, 71
2, 86468, Note_on_c, 0, 76, 0
2, 86496, Note_on_c, 0, 75, 71
2, 86544, Note_on_c, 0, 75, 0
2, 86544, Note_on_c, 0, 76, 70
2, 86589, Note_on_c, 0, 76, 0
2, 86592, Note_on_c, 0, 71, 75
2, 86637, Note_on_c, 0, 71, 0
2, 86640, Note_on_c, 0, 79, 75
2, 86685, Note_on_c, 0, 79, 0
2, 86688, Note_on_c, 0, 78, 75
2, 86733, Note_on_c, 0, 78, 0
2, 86736, Note_on_c, 0, 76, 75
2, 86781, Note_on_c, 0, 76, 0
2, 86784, Note_on_c, 0, 75, 76
2, 86829, Note_on_c, 0, 75, 0
2, 86832, Note_on_c, 0, 78, 76
2, 86877, Note_on_c, 0, 78, 0
2, 86880, Note_on_c, 0, 76, 76
2, 86925, Note_on_c, 0, 76, 0
2, 86928, Note_on_c, 0, 75, 77
2, 86973, Note_on_c, 0, 75, 0
2, 86976, Note_on_c, 0, 76, 77
2, 87021, Note_on_c, 0, 76, 0
2, 87024, Note_on_c, 0, 83, 77
2, 87069, Note_on_c, 0, 83, 0
2, 87072, Note_on_c, 0, 81, 78
2, 87117, Note_on_c, 0, 81, 0
2, 87120, Note_on_c, 0, 79, 78
2, 87165, Note_on_c, 0, 79, 0
2, 87168, Note_on_c, 0, 78, 78
2, 87213, Note_on_c, 0, 78, 0
2, 87216, Note_on_c, 0, 76, 79
2, 87261, Note_on_c, 0, 76, 0
2, 87264, Note_on_c, 0, 75, 79
2, 87309, Note_on_c, 0, 75, 0
2, 87312, Note_on_c, 0, 76, 75
2, 87357, Note_on_c, 0, 76, 0
2, 87360, Note_on_c, 0, 72, 75
2, 87372, Note_on_c, 0, 72, 0
2, 87372, Note_on_c, 0, 74, 75
2, 87384, Note_on_c, 0, 74, 0
2, 87384, Note_on_c, 0, 72, 75
2, 87405, Note_on_c, 0, 72, 0
2, 87408, Note_on_c, 0, 71, 75
2, 87453, Note_on_c, 0, 71, 0
2, 87456, Note_on_c, 0, 72, 76
2, 87476, Note_on_c, 0, 72, 0
2, 87504, Note_on_c, 0, 72, 77
2, 87524, Note_on_c, 0, 72, 0
2, 87552, Note_on_c, 0, 72, 78
2, 87564, Note_on_c, 0, 72, 0
2, 87564, Note_on_c, 0, 74, 78
2, 87576, Note_on_c, 0, 74, 0
2, 87576, Note_on_c, 0, 72, 78
2, 87597, Note_on_c, 0, 72, 0
2, 87600, Note_on_c, 0, 71, 79
2, 87645, Note_on_c, 0, 71, 0
2, 87648, Note_on_c, 0, 72, 80
2, 87668, Note_on_c, 0, 72, 0
2, 87696, Note_on_c, 0, 72, 80
2, 87716, Note_on_c, 0, 72, 0
2, 87744, Note_on_c, 0, 81, 80
2, 87931, Note_on_c, 0, 81, 0
2, 88032, Note_on_c, 0, 72, 80
2, 88044, Note_on_c, 0, 72, 0
2, 88044, Note_on_c, 0, 74, 80
2, 88056, Note_on_c, 0, 74, 0
2, 88056, Note_on_c, 0, 72, 80
2, 88121, Note_on_c, 0, 72, 0
2, 88128, Note_on_c, 0, 71, 75
2, 88140, Note_on_c, 0, 71, 0
2, 88140, Note_on_c, 0, 72, 75
2, 88152, Note_on_c, 0, 72, 0
2, 88152, Note_on_c, 0, 71, 75
2, 88173, Note_on_c, 0, 71, 0
2, 88176, Note_on_c, 0, 69, 75
2, 88221, Note_on_c, 0, 69, 0
2, 88224, Note_on_c, 0, 71, 76
2, 88244, Note_on_c, 0, 71, 0
2, 88272, Note_on_c, 0, 71, 76
2, 88292, Note_on_c, 0, 71, 0
2, 88320, Note_on_c, 0, 71, 77
2, 88332, Note_on_c, 0, 71, 0
2, 88332, Note_on_c, 0, 72, 77
2, 88344, Note_on_c, 0, 72, 0
2, 88344, Note_on_c, 0, 71, 77
2, 88365, Note_on_c, 0, 71, 0
2, 88368, Note_on_c, 0, 69, 78
2, 88413, Note_on_c, 0, 69, 0
2, 88416, Note_on_c, 0, 71, 78
2, 88436, Note_on_c, 0, 71, 0
2, 88464, Note_on_c, 0, 71, 79
2, 88484, Note_on_c, 0, 71, 0
2, 88512, Note_on_c, 0, 79, 80
2, 88699, Note_on_c, 0, 79, 0
2, 88800, Note_on_c, 0, 71, 80
2, 88812, Note_on_c, 0, 71, 0
2, 88812, Note_on_c, 0, 72, 80
2, 88824, Note_on_c, 0, 72, 0
2, 88824, Note_on_c, 0, 71, 80
2, 88889, Note_on_c, 0, 71, 0
2, 88896, Note_on_c, 0, 69, 75
2, 88908, Note_on_c, 0, 69, 0
2, 88908, Note_on_c, 0, 71, 75
2, 88920, Note_on_c, 0, 71, 0
2, 88920, Note_on_c, 0, 69, 75
2, 88941, Note_on_c, 0, 69, 0
2, 88944, Note_on_c, 0, 67, 75
2, 88989, Note_on_c, 0, 67, 0
2, 88992, Note_on_c, 0, 69, 76
2, 89012, Note_on_c, 0, 69, 0
2, 89040, Note_on_c, 0, 69, 76
2, 89060, Note_on_c, 0, 69, 0
2, 89088, Note_on_c, 0, 69, 77
2, 89100, Note_on_c, 0, 69, 0
2, 89100, Note_on_c, 0, 71, 77
2, 89112, Note_on_c, 0, 71, 0
2, 89112, Note_on_c, 0, 69, 77
2, 89133, Note_on_c, 0, 69, 0
2, 89136, Note_on_c, 0, 67, 78
2, 89181, Note_on_c, 0, 67, 0
2, 89184, Note_on_c, 0, 69, 78
2, 89204, Note_on_c, 0, 69, 0
2, 89232, Note_on_c, 0, 69, 79
2, 89252, Note_on_c, 0, 69, 0
2, 89280, Note_on_c, 0, 78, 80
2, 89325, Note_on_c, 0, 78, 0
2, 89328, Note_on_c, 0, 76, 79
2, 89373, Note_on_c, 0, 76, 0
2, 89376, Note_on_c, 0, 75, 78
2, 89421, Note_on_c, 0, 75, 0
2, 89424, Note_on_c, 0, 76, 78
2, 89469, Note_on_c, 0, 76, 0
2, 89472, Note_on_c, 0, 78, 77
2, 89517, Note_on_c, 0, 78, 0
2, 89520, Note_on_c, 0, 71, 76
2, 89565, Note_on_c, 0, 71, 0
2, 89568, Note_on_c, 0, 72, 76
2, 89613, Note_on_c, 0, 72, 0
2, 89616, Note_on_c, 0, 71, 75
2, 89661, Note_on_c, 0, 71, 0
2, 89664, Note_on_c, 0, 69, 75
2, 89709, Note_on_c, 0, 69, 0
2, 89712, Note_on_c, 0, 67, 75
2, 89757, Note_on_c, 0, 67, 0
2, 89760, Note_on_c, 0, 66, 75
2, 89805, Note_on_c, 0, 66, 0
2, 89808, Note_on_c, 0, 64, 75
2, 89853, Note_on_c, 0, 64, 0
2, 89856, Note_on_c, 0, 63, 75
2, 89901, Note_on_c, 0, 63, 0
2, 89904, Note_on_c, 0, 60, 75
2, 89949, Note_on_c, 0, 60, 0
2, 89952, Note_on_c, 0, 59, 75
2, 89997, Note_on_c, 0, 59, 0
2, 90000, Note_on_c, 0, 57, 75
2, 90045, Note_on_c, 0, 57, 0
2, 90048, Note_on_c, 0, 55, 75
2, 90068, Note_on_c, 0, 55, 0
2, 90096, Note_on_c, 0, 59, 75
2, 90141, Note_on_c, 0, 59, 0
2, 90144, Note_on_c, 0, 60, 75
2, 90189, Note_on_c, 0, 60, 0
2, 90192, Note_on_c, 0, 59, 75
2, 90237, Note_on_c, 0, 59, 0
2, 90240, Note_on_c, 0, 57, 76
2, 90285, Note_on_c, 0, 57, 0
2, 90288, Note_on_c, 0, 55, 76
2, 90333, Note_on_c, 0, 55, 0
2, 90336, Note_on_c, 0, 54, 76
2, 90381, Note_on_c, 0, 54, 0
2, 90384, Note_on_c, 0, 52, 77
2, 90429, Note_on_c, 0, 52, 0
2, 90432, Note_on_c, 0, 51, 77
2, 90452, Note_on_c, 0, 51, 0
2, 90480, Note_on_c, 0, 60, 77
2, 90525, Note_on_c, 0, 60, 0
2, 90528, Note_on_c, 0, 59, 78
2, 90573, Note_on_c, 0, 59, 0
2, 90576, Note_on_c, 0, 57, 78
2, 90621, Note_on_c, 0, 57, 0
2, 90624, Note_on_c, 0, 59, 78
2, 90663, Note_on_c, 0, 59, 0
2, 90720, Note_on_c, 0, 59, 95
2, 90759, Note_on_c, 0, 59, 0
2, 90816, Note_on_c, 0, 59, 97
2, 90816, Note_on_c, 0, 55, 97
2, 90816, Note_on_c, 0, 52, 97
2, 91081, Note_on_c, 0, 59, 0
2, 91081, Note_on_c, 0, 55, 0
2, 91081, Note_on_c, 0, 52, 0
2, 91248, Note_on_c, 0, 74, 80
2, 91268, Note_on_c, 0, 74, 0
2, 91296, Note_on_c, 0, 74, 80
2, 91308, Note_on_c, 0, 74, 0
2, 91308, Note_on_c, 0, 76, 80
2, 91320, Note_on_c, 0, 76, 0
2, 91320, Note_on_c, 0, 74, 80
2, 91341, Note_on_c, 0, 74, 0
2, 91344, Note_on_c, 0, 73, 80
2, 91367, Note_on_c, 0, 73, 0
2, 91368, Note_on_c, 0, 74, 80
2, 91391, Note_on_c, 0, 74, 0
2, 91392, Note_on_c, 0, 79, 80
2, 91440, Note_on_c, 0, 79, 0
2, 91440, Note_on_c, 0, 74, 80
2, 91460, Note_on_c, 0, 74, 0
2, 91488, Note_on_c, 0, 74, 80
2, 91577, Note_on_c, 0, 74, 0
2, 91632, Note_on_c, 0, 74, 80
2, 91652, Note_on_c, 0, 74, 0
2, 91680, Note_on_c, 0, 74, 80
2, 91692, Note_on_c, 0, 74, 0
2, 91692, Note_on_c, 0, 76, 80
2, 91704, Note_on_c, 0, 76, 0
2, 91704, Note_on_c, 0, 74, 80
2, 91725, Note_on_c, 0, 74, 0
2, 91728, Note_on_c, 0, 73, 80
2, 91751, Note_on_c, 0, 73, 0
2, 91752, Note_on_c, 0, 74, 80
2, 91775, Note_on_c, 0, 74, 0
2, 91776, Note_on_c, 0, 81, 80
2, 91824, Note_on_c, 0, 81, 0
2, 91824, Note_on_c, 0, 74, 80
2, 91844, Note_on_c, 0, 74, 0
2, 91872, Note_on_c, 0, 74, 80
2, 91961, Note_on_c, 0, 74, 0
2, 91968, Note_on_c, 0, 83, 80
2, 92013, Note_on_c, 0, 83, 0
2, 92016, Note_on_c, 0, 84, 80
2, 92061, Note_on_c, 0, 84, 0
2, 92064, Note_on_c, 0, 86, 80
2, 92109, Note_on_c, 0, 86, 0
2, 92112, Note_on_c, 0, 83, 80
2, 92157, Note_on_c, 0, 83, 0
2, 92160, Note_on_c, 0, 79, 80
2, 92205, Note_on_c, 0, 79, 0
2, 92208, Note_on_c, 0, 81, 80
2, 92253, Note_on_c, 0, 81, 0
2, 92256, Note_on_c, 0, 83, 80
2, 92301, Note_on_c, 0, 83, 0
2, 92304, Note_on_c, 0, 79, 80
2, 92349, Note_on_c, 0, 79, 0
2, 92352, Note_on_c, 0, 76, 80
2, 92397, Note_on_c, 0, 76, 0
2, 92400, Note_on_c, 0, 78, 80
2, 92445, Note_on_c, 0, 78, 0
2, 92448, Note_on_c, 0, 79, 80
2, 92493, Note_on_c, 0, 79, 0
2, 92496, Note_on_c, 0, 76, 80
2, 92541, Note_on_c, 0, 76, 0
2, 92544, Note_on_c, 0, 72, 80
2, 92589, Note_on_c, 0, 72, 0
2, 92592, Note_on_c, 0, 74, 80
2, 92637, Note_on_c, 0, 74, 0
2, 92640, Note_on_c, 0, 76, 80
2, 92685, Note_on_c, 0, 76, 0
2, 92688, Note_on_c, 0, 72, 80
2, 92733, Note_on_c, 0, 72, 0
2, 92784, Note_on_c, 0, 84, 80
2, 92807, Note_on_c, 0, 84, 0
2, 92808, Note_on_c, 0, 86, 80
2, 92831, Note_on_c, 0, 86, 0
2, 92832, Note_on_c, 0, 88, 80
2, 92877, Note_on_c, 0, 88, 0
2, 92880, Note_on_c, 0, 84, 80
2, 92925, Note_on_c, 0, 84, 0
2, 92928, Note_on_c, 0, 81, 80
2, 92973, Note_on_c, 0, 81, 0
2, 92976, Note_on_c, 0, 81, 80
2, 92999, Note_on_c, 0, 81, 0
2, 93000, Note_on_c, 0, 83, 80
2, 93023, Note_on_c, 0, 83, 0
2, 93024, Note_on_c, 0, 84, 80
2, 93069, Note_on_c, 0, 84, 0
2, 93072, Note_on_c, 0, 81, 80
2, 93117, Note_on_c, 0, 81, 0
2, 93120, Note_on_c, 0, 78, 80
2, 93165, Note_on_c, 0, 78, 0
2, 93168, Note_on_c, 0, 78, 80
2, 93191, Note_on_c, 0, 78, 0
2, 93192, Note_on_c, 0, 79, 80
2, 93215, Note_on_c, 0, 79, 0
2, 93216, Note_on_c, 0, 81, 80
2, 93261, Note_on_c, 0, 81, 0
2, 93264, Note_on_c, 0, 78, 80
2, 93309, Note_on_c, 0, 78, 0
2, 93312, Note_on_c, 0, 75, 80
2, 93357, Note_on_c, 0, 75, 0
2, 93360, Note_on_c, 0, 75, 80
2, 93383, Note_on_c, 0, 75, 0
2, 93384, Note_on_c, 0, 76, 80
2, 93407, Note_on_c, 0, 76, 0
2, 93408, Note_on_c, 0, 78, 80
2, 93453, Note_on_c, 0, 78, 0
2, 93456, Note_on_c, 0, 75, 80
2, 93501, Note_on_c, 0, 75, 0
2, 93504, Note_on_c, 0, 76, 80
2, 93549, Note_on_c, 0, 76, 0
2, 93552, Note_on_c, 0, 71, 80
2, 93597, Note_on_c, 0, 71, 0
2, 93600, Note_on_c, 0, 79, 80
2, 93645, Note_on_c, 0, 79, 0
2, 93648, Note_on_c, 0, 71, 80
2, 93693, Note_on_c, 0, 71, 0
2, 93696, Note_on_c, 0, 76, 80
2, 93741, Note_on_c, 0, 76, 0
2, 93744, Note_on_c, 0, 71, 80
2, 93789, Note_on_c, 0, 71, 0
2, 93792, Note_on_c, 0, 83, 96
2, 93840, Note_on_c, 0, 83, 0
2, 93840, Note_on_c, 0, 71, 80
2, 93885, Note_on_c, 0, 71, 0
2, 93888, Note_on_c, 0, 75, 80
2, 93933, Note_on_c, 0, 75, 0
2, 93936, Note_on_c, 0, 71, 80
2, 93981, Note_on_c, 0, 71, 0
2, 93984, Note_on_c, 0, 78, 80
2, 94029, Note_on_c, 0, 78, 0
2, 94032, Note_on_c, 0, 71, 80
2, 94077, Note_on_c, 0, 71, 0
2, 94080, Note_on_c, 0, 75, 80
2, 94125, Note_on_c, 0, 75, 0
2, 94128, Note_on_c, 0, 71, 80
2, 94173, Note_on_c, 0, 71, 0
2, 94176, Note_on_c, 0, 81, 96
2, 94224, Note_on_c, 0, 81, 0
2, 94224, Note_on_c, 0, 78, 80
2, 94269, Note_on_c, 0, 78, 0
2, 94272, Note_on_c, 0, 79, 80
2, 94317, Note_on_c, 0, 79, 0
2, 94320, Note_on_c, 0, 76, 80
2, 94365, Note_on_c, 0, 76, 0
2, 94368, Note_on_c, 0, 83, 80
2, 94413, Note_on_c, 0, 83, 0
2, 94416, Note_on_c, 0, 76, 80
2, 94461, Note_on_c, 0, 76, 0
2, 94464, Note_on_c, 0, 79, 80
2, 94509, Note_on_c, 0, 79, 0
2, 94512, Note_on_c, 0, 76, 80
2, 94557, Note_on_c, 0, 76, 0
2, 94560, Note_on_c, 0, 88, 96
2, 94608, Note_on_c, 0, 88, 0
2, 94608, Note_on_c, 0, 76, 80
2, 94653, Note_on_c, 0, 76, 0
2, 94656, Note_on_c, 0, 80, 80
2, 94701, Note_on_c, 0, 80, 0
2, 94704, Note_on_c, 0, 76, 80
2, 94749, Note_on_c, 0, 76, 0
2, 94752, Note_on_c, 0, 83, 80
2, 94797, Note_on_c, 0, 83, 0
2, 94800, Note_on_c, 0, 76, 80
2, 94845, Note_on_c, 0, 76, 0
2, 94848, Note_on_c, 0, 80, 80
2, 94893, Note_on_c, 0, 80, 0
2, 94896, Note_on_c, 0, 76, 80
2, 94941, Note_on_c, 0, 76, 0
2, 94944, Note_on_c, 0, 86, 80
2, 94989, Note_on_c, 0, 86, 0
2, 94992, Note_on_c, 0, 76, 80
2, 95037, Note_on_c, 0, 76, 0
2, 95040, Note_on_c, 0, 84, 80
2, 95085, Note_on_c, 0, 84, 0
2, 95088, Note_on_c, 0, 81, 80
2, 95133, Note_on_c, 0, 81, 0
2, 95136, Note_on_c, 0, 88, 80
2, 95181, Note_on_c, 0, 88, 0
2, 95184, Note_on_c, 0, 76, 80
2, 95229, Note_on_c, 0, 76, 0
2, 95232, Note_on_c, 0, 84, 80
2, 95277, Note_on_c, 0, 84, 0
2, 95280, Note_on_c, 0, 81, 80
2, 95325, Note_on_c, 0, 81, 0
2, 95328, Note_on_c, 0, 88, 80
2, 95373, Note_on_c, 0, 88, 0
2, 95376, Note_on_c, 0, 76, 80
2, 95421, Note_on_c, 0, 76, 0
2, 95424, Note_on_c, 0, 77, 80
2, 95436, Note_on_c, 0, 77, 0
2, 95436, Note_on_c, 0, 79, 80
2, 95448, Note_on_c, 0, 79, 0
2, 95448, Note_on_c, 0, 77, 80
2, 95469, Note_on_c, 0, 77, 0
2, 95472, Note_on_c, 0, 76, 80
2, 95517, Note_on_c, 0, 76, 0
2, 95520, Note_on_c, 0, 77, 80
2, 95609, Note_on_c, 0, 77, 0
2, 95616, Note_on_c, 0, 77, 80
2, 95628, Note_on_c, 0, 77, 0
2, 95628, Note_on_c, 0, 79, 80
2, 95640, Note_on_c, 0, 79, 0
2, 95640, Note_on_c, 0, 77, 80
2, 95661, Note_on_c, 0, 77, 0
2, 95664, Note_on_c, 0, 76, 80
2, 95709, Note_on_c, 0, 76, 0
2, 95712, Note_on_c, 0, 77, 80
2, 95801, Note_on_c, 0, 77, 0
2, 95808, Note_on_c, 0, 86, 96
2, 95856, Note_on_c, 0, 86, 0
2, 95856, Note_on_c, 0, 84, 80
2, 95901, Note_on_c, 0, 84, 0
2, 95904, Note_on_c, 0, 83, 80
2, 95949, Note_on_c, 0, 83, 0
2, 95952, Note_on_c, 0, 81, 80
2, 95997, Note_on_c, 0, 81, 0
2, 96000, Note_on_c, 0, 79, 80
2, 96045, Note_on_c, 0, 79, 0
2, 96048, Note_on_c, 0, 77, 80
2, 96093, Note_on_c, 0, 77, 0
2, 96096, Note_on_c, 0, 76, 80
2, 96141, Note_on_c, 0, 76, 0
2, 96144, Note_on_c, 0, 74, 80
2, 96189, Note_on_c, 0, 74, 0
2, 96192, Note_on_c, 0, 76, 80
2, 96204, Note_on_c, 0, 76, 0
2, 96204, Note_on_c, 0, 77, 80
2, 96216, Note_on_c, 0, 77, 0
2, 96216, Note_on_c, 0, 76, 80
2, 96237, Note_on_c, 0, 76, 0
2, 96240, Note_on_c, 0, 74, 80
2, 96285, Note_on_c, 0, 74, 0
2, 96288, Note_on_c, 0, 76, 80
2, 96377, Note_on_c, 0, 76, 0
2, 96384, Note_on_c, 0, 76, 80
2, 96396, Note_on_c, 0, 76, 0
2, 96396, Note_on_c, 0, 77, 80
2, 96408, Note_on_c, 0, 77, 0
2, 96408, Note_on_c, 0, 76, 80
2, 96429, Note_on_c, 0, 76, 0
2, 96432, Note_on_c, 0, 74, 80
2, 96477, Note_on_c, 0, 74, 0
2, 96480, Note_on_c, 0, 76, 80
2, 96569, Note_on_c, 0, 76, 0
2, 96576, Note_on_c, 0, 84, 96
2, 96624, Note_on_c, 0, 84, 0
2, 96624, Note_on_c, 0, 83, 80
2, 96669, Note_on_c, 0, 83, 0
2, 96672, Note_on_c, 0, 81, 80
2, 96717, Note_on_c, 0, 81, 0
2, 96720, Note_on_c, 0, 79, 80
2, 96765, Note_on_c, 0, 79, 0
2, 96768, Note_on_c, 0, 78, 80
2, 96813, Note_on_c, 0, 78, 0
2, 96816, Note_on_c, 0, 76, 80
2, 96861, Note_on_c, 0, 76, 0
2, 96864, Note_on_c, 0, 75, 80
2, 96909, Note_on_c, 0, 75, 0
2, 96912, Note_on_c, 0, 76, 80
2, 96957, Note_on_c, 0, 76, 0
2, 96960, Note_on_c, 0, 71, 80
2, 96972, Note_on_c, 0, 75, 80
2, 96984, Note_on_c, 0, 78, 80
2, 96996, Note_on_c, 0, 81, 80
2, 97189, Note_on_c, 0, 81, 0
2, 97189, Note_on_c, 0, 78, 0
2, 97189, Note_on_c, 0, 75, 0
2, 97189, Note_on_c, 0, 71, 0
2, 97248, Note_on_c, 0, 63, 80
2, 97263, Note_on_c, 0, 63, 0
2, 97264, Note_on_c, 0, 64, 80
2, 97279, Note_on_c, 0, 64, 0
2, 97280, Note_on_c, 0, 66, 80
2, 97295, Note_on_c, 0, 66, 0
2, 97296, Note_on_c, 0, 67, 80
2, 97311, Note_on_c, 0, 67, 0
2, 97312, Note_on_c, 0, 69, 80
2, 97327, Note_on_c, 0, 69, 0
2, 97328, Note_on_c, 0, 71, 80
2, 97343, Note_on_c, 0, 71, 0
2, 97344, Note_on_c, 0, 72, 96
2, 97440, Note_on_c, 0, 72, 0
2, 97440, Note_on_c, 0, 66, 80
2, 97459, Note_on_c, 0, 66, 0
2, 97460, Note_on_c, 0, 67, 80
2, 97478, Note_on_c, 0, 67, 0
2, 97479, Note_on_c, 0, 69, 80
2, 97497, Note_on_c, 0, 69, 0
2, 97498, Note_on_c, 0, 71, 80
2, 97516, Note_on_c, 0, 71, 0
2, 97517, Note_on_c, 0, 73, 80
2, 97535, Note_on_c, 0, 73, 0
2, 97536, Note_on_c, 0, 75, 96
2, 97632, Note_on_c, 0, 75, 0
2, 97632, Note_on_c, 0, 75, 80
2, 97647, Note_on_c, 0, 75, 0
2, 97648, Note_on_c, 0, 76, 80
2, 97663, Note_on_c, 0, 76, 0
2, 97664, Note_on_c, 0, 78, 80
2, 97679, Note_on_c, 0, 78, 0
2, 97680, Note_on_c, 0, 79, 80
2, 97695, Note_on_c, 0, 79, 0
2, 97696, Note_on_c, 0, 81, 80
2, 97711, Note_on_c, 0, 81, 0
2, 97712, Note_on_c, 0, 83, 80
2, 97727, Note_on_c, 0, 83, 0
2, 97728, Note_on_c, 0, 84, 96
2, 97728, Note_on_c, 0, 81, 96
2, 97728, Note_on_c, 0, 77, 96
2, 97728, Note_on_c, 0, 72, 96
2, 97824, Note_on_c, 0, 84, 0
2, 97824, Note_on_c, 0, 81, 0
2, 97824, Note_on_c, 0, 77, 0
2, 97824, Note_on_c, 0, 72, 0
2, 97872, Note_on_c, 0, 81, 80
2, 97895, Note_on_c, 0, 81, 0
2, 97896, Note_on_c, 0, 83, 80
2, 97919, Note_on_c, 0, 83, 0
2, 97920, Note_on_c, 0, 84, 80
2, 97965, Note_on_c, 0, 84, 0
2, 97968, Note_on_c, 0, 81, 80
2, 97991, Note_on_c, 0, 81, 0
2, 97992, Note_on_c, 0, 83, 80
2, 98015, Note_on_c, 0, 83, 0
2, 98016, Note_on_c, 0, 84, 80
2, 98061, Note_on_c, 0, 84, 0
2, 98064, Note_on_c, 0, 83, 80
2, 98087, Note_on_c, 0, 83, 0
2, 98088, Note_on_c, 0, 81, 80
2, 98111, Note_on_c, 0, 81, 0
2, 98112, Note_on_c, 0, 87, 96
2, 98112, Note_on_c, 0, 84, 96
2, 98112, Note_on_c, 0, 81, 96
2, 98112, Note_on_c, 0, 78, 96
2, 98208, Note_on_c, 0, 87, 0
2, 98208, Note_on_c, 0, 84, 0
2, 98208, Note_on_c, 0, 81, 0
2, 98208, Note_on_c, 0, 78, 0
2, 98256, Note_on_c, 0, 81, 80
2, 98279, Note_on_c, 0, 81, 0
2, 98280, Note_on_c, 0, 83, 80
2, 98303, Note_on_c, 0, 83, 0
2, 98304, Note_on_c, 0, 84, 80
2, 98349, Note_on_c, 0, 84, 0
2, 98352, Note_on_c, 0, 78, 80
2, 98375, Note_on_c, 0, 78, 0
2, 98376, Note_on_c, 0, 79, 80
2, 98399, Note_on_c, 0, 79, 0
2, 98400, Note_on_c, 0, 81, 80
2, 98445, Note_on_c, 0, 81, 0
2, 98448, Note_on_c, 0, 79, 80
2, 98471, Note_on_c, 0, 79, 0
2, 98472, Note_on_c, 0, 78, 80
2, 98495, Note_on_c, 0, 78, 0
2, 98496, Note_on_c, 0, 79, 96
2, 98496, Note_on_c, 0, 76, 96
2, 98496, Note_on_c, 0, 71, 96
2, 98592, Note_on_c, 0, 79, 0
2, 98592, Note_on_c, 0, 76, 0
2, 98592, Note_on_c, 0, 71, 0
2, 98640, Note_on_c, 0, 76, 80
2, 98663, Note_on_c, 0, 76, 0
2, 98664, Note_on_c, 0, 78, 80
2, 98687, Note_on_c, 0, 78, 0
2, 98688, Note_on_c, 0, 79, 80
2, 98733, Note_on_c, 0, 79, 0
2, 98736, Note_on_c, 0, 84, 78
2, 98781, Note_on_c, 0, 84, 0
2, 98784, Note_on_c, 0, 81, 76
2, 98829, Note_on_c, 0, 81, 0
2, 98832, Note_on_c, 0, 77, 74
2, 98877, Note_on_c, 0, 77, 0
2, 98880, Note_on_c, 0, 76, 72
2, 99072, Note_on_c, 0, 76, 0
2, 99072, Note_on_c, 0, 75, 65
2, 99117, Note_on_c, 0, 75, 0
2, 99168, Note_on_c, 0, 60, 80
2, 99207, Note_on_c, 0, 60, 0
2, 99264, Note_on_c, 0, 60, 96
2, 99360, Note_on_c, 0, 60, 0
2, 99360, Note_on_c, 0, 60, 80
2, 99390, Note_on_c, 0, 60, 0
2, 99392, Note_on_c, 0, 64, 80
2, 99422, Note_on_c, 0, 64, 0
2, 99424, Note_on_c, 0, 67, 80
2, 99454, Note_on_c, 0, 67, 0
2, 99456, Note_on_c, 0, 59, 96
2, 99552, Note_on_c, 0, 59, 0
2, 99552, Note_on_c, 0, 59, 80
2, 99582, Note_on_c, 0, 59, 0
2, 99584, Note_on_c, 0, 64, 80
2, 99614, Note_on_c, 0, 64, 0
2, 99616, Note_on_c, 0, 67, 80
2, 99646, Note_on_c, 0, 67, 0
2, 99648, Note_on_c, 0, 57, 96
2, 99840, Note_on_c, 0, 57, 0
2, 100128, Note_on_c, 0, 57, 70
2, 100158, Note_on_c, 0, 57, 0
2, 100160, Note_on_c, 0, 60, 70
2, 100190, Note_on_c, 0, 60, 0
2, 100192, Note_on_c, 0, 64, 70
2, 100222, Note_on_c, 0, 64, 0
2, 100224, Note_on_c, 0, 55, 86
2, 100320, Note_on_c, 0, 55, 0
2, 100320, Note_on_c, 0, 55, 70
2, 100350, Note_on_c, 0, 55, 0
2, 100352, Note_on_c, 0, 60, 70
2, 100382, Note_on_c, 0, 60, 0
2, 100384, Note_on_c, 0, 64, 70
2, 100414, Note_on_c, 0, 64, 0
2, 100416, Note_on_c, 0, 53, 86
2, 100603, Note_on_c, 0, 53, 0
2, 100800, Note_on_c, 0, 63, 64
2, 100800, Note_on_c, 0, 57, 64
2, 101080, Note_on_c, 0, 63, 0
2, 101080, Note_on_c, 0, 57, 0
2, 101184, Note_on_c, 0, 64, 64
2, 101184, Note_on_c, 0, 55, 64
2, 101232, Note_on_c, 0, 64, 0
2, 101232, Note_on_c, 0, 55, 0
2, 101232, Note_on_c, 0, 63, 64
2, 101232, Note_on_c, 0, 54, 64
2, 101277, Note_on_c, 0, 63, 0
2, 101277, Note_on_c, 0, 54, 0
2, 101280, Note_on_c, 0, 63, 64
2, 101280, Note_on_c, 0, 54, 64
2, 101328, Note_on_c, 0, 63, 0
2, 101328, Note_on_c, 0, 54, 0
2, 101328, Note_on_c, 0, 64, 64
2, 101328, Note_on_c, 0, 55, 64
2, 101373, Note_on_c, 0, 64, 0
2, 101373, Note_on_c, 0, 55, 0
2, 101376, Note_on_c, 0, 64, 64
2, 101376, Note_on_c, 0, 55, 64
2, 101424, Note_on_c, 0, 64, 0
2, 101424, Note_on_c, 0, 55, 0
2, 101424, Note_on_c, 0, 63, 64
2, 101424, Note_on_c, 0, 54, 64
2, 101469, Note_on_c, 0, 63, 0
2, 101469, Note_on_c, 0, 54, 0
2, 101472, Note_on_c, 0, 63, 64
2, 101472, Note_on_c, 0, 54, 64
2, 101520, Note_on_c, 0, 63, 0
2, 101520, Note_on_c, 0, 54, 0
2, 101520, Note_on_c, 0, 64, 64
2, 101520, Note_on_c, 0, 55, 64
2, 101565, Note_on_c, 0, 64, 0
2, 101565, Note_on_c, 0, 55, 0
2, 101568, Note_on_c, 0, 65, 64
2, 101568, Note_on_c, 0, 57, 64
2, 101616, Note_on_c, 0, 65, 0
2, 101616, Note_on_c, 0, 57, 0
2, 101616, Note_on_c, 0, 64, 64
2, 101616, Note_on_c, 0, 55, 64
2, 101661, Note_on_c, 0, 64, 0
2, 101661, Note_on_c, 0, 55, 0
2, 101664, Note_on_c, 0, 64, 64
2, 101664, Note_on_c, 0, 55, 64
2, 101712, Note_on_c, 0, 64, 0
2, 101712, Note_on_c, 0, 55, 0
2, 101712, Note_on_c, 0, 65, 64
2, 101712, Note_on_c, 0, 57, 64
2, 101757, Note_on_c, 0, 65, 0
2, 101757, Note_on_c, 0, 57, 0
2, 101760, Note_on_c, 0, 65, 64
2, 101760, Note_on_c, 0, 57, 64
2, 101805, Note_on_c, 0, 65, 0
2, 101805, Note_on_c, 0, 57, 0
2, 101808, Note_on_c, 0, 69, 64
2, 101808, Note_on_c, 0, 60, 64
2, 101853, Note_on_c, 0, 69, 0
2, 101853, Note_on_c, 0, 60, 0
2, 101856, Note_on_c, 0, 67, 64
2, 101856, Note_on_c, 0, 59, 64
2, 101901, Note_on_c, 0, 67, 0
2, 101901, Note_on_c, 0, 59, 0
2, 101904, Note_on_c, 0, 65, 64
2, 101904, Note_on_c, 0, 57, 64
2, 101949, Note_on_c, 0, 65, 0
2, 101949, Note_on_c, 0, 57, 0
2, 101952, Note_on_c, 0, 64, 64
2, 101952, Note_on_c, 0, 55, 64
2, 102000, Note_on_c, 0, 64, 0
2, 102000, Note_on_c, 0, 55, 0
2, 102000, Note_on_c, 0, 63, 63
2, 102000, Note_on_c, 0, 57, 63
2, 102045, Note_on_c, 0, 63, 0
2, 102045, Note_on_c, 0, 57, 0
2, 102048, Note_on_c, 0, 64, 63
2, 102048, Note_on_c, 0, 55, 63
2, 102096, Note_on_c, 0, 64, 0
2, 102096, Note_on_c, 0, 55, 0
2, 102096, Note_on_c, 0, 63, 62
2, 102096, Note_on_c, 0, 57, 62
2, 102141, Note_on_c, 0, 63, 0
2, 102141, Note_on_c, 0, 57, 0
2, 102144, Note_on_c, 0, 64, 62
2, 102144, Note_on_c, 0, 55, 62
2, 102192, Note_on_c, 0, 64, 0
2, 102192, Note_on_c, 0, 55, 0
2, 102192, Note_on_c, 0, 63, 61
2, 102192, Note_on_c, 0, 57, 61
2, 102237, Note_on_c, 0, 63, 0
2, 102237, Note_on_c, 0, 57, 0
2, 102240, Note_on_c, 0, 64, 61
2, 102240, Note_on_c, 0, 55, 61
2, 102288, Note_on_c, 0, 64, 0
2, 102288, Note_on_c, 0, 55, 0
2, 102288, Note_on_c, 0, 63, 60
2, 102288, Note_on_c, 0, 57, 60
2, 102333, Note_on_c, 0, 63, 0
2, 102333, Note_on_c, 0, 57, 0
2, 102336, Note_on_c, 0, 64, 60
2, 102336, Note_on_c, 0, 55, 60
2, 102609, Note_on_c, 0, 64, 0
2, 102609, Note_on_c, 0, 55, 0
2, 102720, End_track
3, 0, Start_track
3, 0, Program_c, 0, 0
3, 0, Control_c, 0, 7, 127
3, 0, Control_c, 0, 10, 64
3, 102720, End_track
4, 0, Start_track
4, 0, Program_c, 1, 0
4, 0, Control_c, 1, 7, 127
4, 0, Control_c, 1, 10, 64
4, 384, Note_on_c, 1, 64, 64
4, 423, Note_on_c, 1, 64, 0
4, 480, Note_on_c, 1, 67, 64
4, 519, Note_on_c, 1, 67, 0
4, 576, Note_on_c, 1, 66, 64
4, 615, Note_on_c, 1, 66, 0
4, 672, Note_on_c, 1, 69, 64
4, 711, Note_on_c, 1, 69, 0
4, 768, Note_on_c, 1, 67, 64
4, 945, Note_on_c, 1, 67, 0
4, 1152, Note_on_c, 1, 64, 64
4, 1191, Note_on_c, 1, 64, 0
4, 1248, Note_on_c, 1, 67, 64
4, 1287, Note_on_c, 1, 67, 0
4, 1344, Note_on_c, 1, 66, 64
4, 1383, Note_on_c, 1, 66, 0
4, 1440, Note_on_c, 1, 69, 64
4, 1479, Note_on_c, 1, 69, 0
4, 1536, Note_on_c, 1, 67, 64
4, 1713, Note_on_c, 1, 67, 0
4, 1920, Note_on_c, 1, 69, 70
4, 1959, Note_on_c, 1, 69, 0
4, 2016, Note_on_c, 1, 67, 70
4, 2055, Note_on_c, 1, 67, 0
4, 2112, Note_on_c, 1, 66, 70
4, 2151, Note_on_c, 1, 66, 0
4, 2208, Note_on_c, 1, 64, 70
4, 2247, Note_on_c, 1, 64, 0
4, 2304, Note_on_c, 1, 62, 70
4, 2343, Note_on_c, 1, 62, 0
4, 2400, Note_on_c, 1, 74, 70
4, 2439, Note_on_c, 1, 74, 0
4, 2688, Note_on_c, 1, 67, 70
4, 2727, Note_on_c, 1, 67, 0
4, 2784, Note_on_c, 1, 66, 70
4, 2823, Note_on_c, 1, 66, 0
4, 2880, Note_on_c, 1, 64, 70
4, 2919, Note_on_c, 1, 64, 0
4, 2976, Note_on_c, 1, 62, 70
4, 3015, Note_on_c, 1, 62, 0
4, 3072, Note_on_c, 1, 60, 70
4, 3111, Note_on_c, 1, 60, 0
4, 3168, Note_on_c, 1, 72, 70
4, 3207, Note_on_c, 1, 72, 0
4, 3456, Note_on_c, 1, 66, 70
4, 3495, Note_on_c, 1, 66, 0
4, 3552, Note_on_c, 1, 64, 70
4, 3591, Note_on_c, 1, 64, 0
4, 3648, Note_on_c, 1, 63, 70
4, 3687, Note_on_c, 1, 63, 0
4, 3744, Note_on_c, 1, 61, 70
4, 3783, Note_on_c, 1, 61, 0
4, 3840, Note_on_c, 1, 59, 70
4, 3879, Note_on_c, 1, 59, 0
4, 3936, Note_on_c, 1, 71, 70
4, 3975, Note_on_c, 1, 71, 0
4, 4080, Note_on_c, 1, 57, 75
4, 4125, Note_on_c, 1, 57, 0
4, 4128, Note_on_c, 1, 59, 75
4, 4173, Note_on_c, 1, 59, 0
4, 4176, Note_on_c, 1, 60, 75
4, 4221, Note_on_c, 1, 60, 0
4, 4224, Note_on_c, 1, 51, 75
4, 4401, Note_on_c, 1, 51, 0
4, 4464, Note_on_c, 1, 54, 75
4, 4509, Note_on_c, 1, 54, 0
4, 4512, Note_on_c, 1, 52, 75
4, 4557, Note_on_c, 1, 52, 0
4, 4560, Note_on_c, 1, 51, 75
4, 4605, Note_on_c, 1, 51, 0
4, 4608, Note_on_c, 1, 52, 76
4, 4653, Note_on_c, 1, 52, 0
4, 4656, Note_on_c, 1, 47, 76
4, 4701, Note_on_c, 1, 47, 0
4, 4704, Note_on_c, 1, 48, 76
4, 4749, Note_on_c, 1, 48, 0
4, 4752, Note_on_c, 1, 47, 76
4, 4797, Note_on_c, 1, 47, 0
4, 4800, Note_on_c, 1, 45, 77
4, 4845, Note_on_c, 1, 45, 0
4, 4848, Note_on_c, 1, 43, 77
4, 4893, Note_on_c, 1, 43, 0
4, 4896, Note_on_c, 1, 42, 77
4, 4941, Note_on_c, 1, 42, 0
4, 4944, Note_on_c, 1, 40, 78
4, 4989, Note_on_c, 1, 40, 0
4, 4992, Note_on_c, 1, 39, 78
4, 5037, Note_on_c, 1, 39, 0
4, 5040, Note_on_c, 1, 48, 78
4, 5085, Note_on_c, 1, 48, 0
4, 5088, Note_on_c, 1, 47, 78
4, 5133, Note_on_c, 1, 47, 0
4, 5136, Note_on_c, 1, 45, 79
4, 5181, Note_on_c, 1, 45, 0
4, 5184, Note_on_c, 1, 47, 79
4, 5223, Note_on_c, 1, 47, 0
4, 5280, Note_on_c, 1, 54, 96
4, 5280, Note_on_c, 1, 51, 96
4, 5280, Note_on_c, 1, 47, 96
4, 5319, Note_on_c, 1, 54, 0
4, 5319, Note_on_c, 1, 51, 0
4, 5319, Note_on_c, 1, 47, 0
4, 5376, Note_on_c, 1, 47, 80
4, 5376, Note_on_c, 1, 43, 80
4, 5376, Note_on_c, 1, 40, 80
4, 5641, Note_on_c, 1, 47, 0
4, 5641, Note_on_c, 1, 43, 0
4, 5641, Note_on_c, 1, 40, 0
4, 5760, Note_on_c, 1, 59, 80
4, 5760, Note_on_c, 1, 55, 80
4, 5760, Note_on_c, 1, 52, 80
4, 5937, Note_on_c, 1, 59, 0
4, 5937, Note_on_c, 1, 55, 0
4, 5937, Note_on_c, 1, 52, 0
4, 6144, Note_on_c, 1, 59, 80
4, 6144, Note_on_c, 1, 54, 80
4, 6144, Note_on_c, 1, 51, 80
4, 6321, Note_on_c, 1, 59, 0
4, 6321, Note_on_c, 1, 54, 0
4, 6321, Note_on_c, 1, 51, 0
4, 6528, Note_on_c, 1, 40, 80
4, 6617, Note_on_c, 1, 40, 0
4, 6624, Note_on_c, 1, 67, 80
4, 6765, Note_on_c, 1, 67, 0
4, 6768, Note_on_c, 1, 69, 80
4, 6813, Note_on_c, 1, 69, 0
4, 6816, Note_on_c, 1, 71, 80
4, 6861, Note_on_c, 1, 71, 0
4, 6864, Note_on_c, 1, 67, 80
4, 6909, Note_on_c, 1, 67, 0
4, 6912, Note_on_c, 1, 64, 80
4, 6957, Note_on_c, 1, 64, 0
4, 6960, Note_on_c, 1, 66, 80
4, 7005, Note_on_c, 1, 66, 0
4, 7008, Note_on_c, 1, 67, 80
4, 7053, Note_on_c, 1, 67, 0
4, 7056, Note_on_c, 1, 64, 80
4, 7101, Note_on_c, 1, 64, 0
4, 7104, Note_on_c, 1, 60, 80
4, 7149, Note_on_c, 1, 60, 0
4, 7152, Note_on_c, 1, 62, 80
4, 7197, Note_on_c, 1, 62, 0
4, 7200, Note_on_c, 1, 64, 80
4, 7245, Note_on_c, 1, 64, 0
4, 7248, Note_on_c, 1, 60, 80
4, 7293, Note_on_c, 1, 60, 0
4, 7296, Note_on_c, 1, 57, 96
4, 7390, Note_on_c, 1, 57, 0
4, 7536, Note_on_c, 1, 69, 80
4, 7559, Note_on_c, 1, 69, 0
4, 7560, Note_on_c, 1, 71, 80
4, 7583, Note_on_c, 1, 71, 0
4, 7584, Note_on_c, 1, 72, 80
4, 7629, Note_on_c, 1, 72, 0
4, 7632, Note_on_c, 1, 69, 80
4, 7677, Note_on_c, 1, 69, 0
4, 7680, Note_on_c, 1, 66, 80
4, 7725, Note_on_c, 1, 66, 0
4, 7728, Note_on_c, 1, 66, 80
4, 7751, Note_on_c, 1, 66, 0
4, 7752, Note_on_c, 1, 67, 80
4, 7775, Note_on_c, 1, 67, 0
4, 7776, Note_on_c, 1, 69, 80
4, 7821, Note_on_c, 1, 69, 0
4, 7824, Note_on_c, 1, 66, 80
4, 7869, Note_on_c, 1, 66, 0
4, 7872, Note_on_c, 1, 67, 80
4, 7917, Note_on_c, 1, 67, 0
4, 7920, Note_on_c, 1, 64, 80
4, 7965, Note_on_c, 1, 64, 0
4, 7968, Note_on_c, 1, 67, 80
4, 8013, Note_on_c, 1, 67, 0
4, 8016, Note_on_c, 1, 64, 80
4, 8061, Note_on_c, 1, 64, 0
4, 8064, Note_on_c, 1, 58, 80
4, 8241, Note_on_c, 1, 58, 0
4, 8304, Note_on_c, 1, 76, 80
4, 8304, Note_on_c, 1, 73, 80
4, 8349, Note_on_c, 1, 76, 0
4, 8349, Note_on_c, 1, 73, 0
4, 8352, Note_on_c, 1, 78, 80
4, 8352, Note_on_c, 1, 74, 80
4, 8397, Note_on_c, 1, 78, 0
4, 8397, Note_on_c, 1, 74, 0
4, 8400, Note_on_c, 1, 76, 80
4, 8400, Note_on_c, 1, 73, 80
4, 8445, Note_on_c, 1, 76, 0
4, 8445, Note_on_c, 1, 73, 0
4, 8448, Note_on_c, 1, 73, 80
4, 8544, Note_on_c, 1, 73, 0
4, 8544, Note_on_c, 1, 71, 80
4, 8633, Note_on_c, 1, 71, 0
4, 8688, Note_on_c, 1, 74, 80
4, 8688, Note_on_c, 1, 71, 80
4, 8733, Note_on_c, 1, 74, 0
4, 8733, Note_on_c, 1, 71, 0
4, 8736, Note_on_c, 1, 76, 80
4, 8736, Note_on_c, 1, 72, 80
4, 8781, Note_on_c, 1, 76, 0
4, 8781, Note_on_c, 1, 72, 0
4, 8784, Note_on_c, 1, 74, 80
4, 8784, Note_on_c, 1, 71, 80
4, 8829, Note_on_c, 1, 74, 0
4, 8829, Note_on_c, 1, 71, 0
4, 8832, Note_on_c, 1, 71, 80
4, 8928, Note_on_c, 1, 71, 0
4, 8928, Note_on_c, 1, 69, 80
4, 9017, Note_on_c, 1, 69, 0
4, 9072, Note_on_c, 1, 72, 80
4, 9072, Note_on_c, 1, 69, 80
4, 9117, Note_on_c, 1, 72, 0
4, 9117, Note_on_c, 1, 69, 0
4, 9120, Note_on_c, 1, 74, 80
4, 9120, Note_on_c, 1, 71, 80
4, 9165, Note_on_c, 1, 74, 0
4, 9165, Note_on_c, 1, 71, 0
4, 9168, Note_on_c, 1, 72, 80
4, 9168, Note_on_c, 1, 69, 80
4, 9213, Note_on_c, 1, 72, 0
4, 9213, Note_on_c, 1, 69, 0
4, 9216, Note_on_c, 1, 69, 80
4, 9312, Note_on_c, 1, 69, 0
4, 9312, Note_on_c, 1, 67, 80
4, 9401, Note_on_c, 1, 67, 0
4, 9456, Note_on_c, 1, 71, 80
4, 9456, Note_on_c, 1, 67, 80
4, 9501, Note_on_c, 1, 71, 0
4, 9501, Note_on_c, 1, 67, 0
4, 9504, Note_on_c, 1, 72, 80
4, 9504, Note_on_c, 1, 69, 80
4, 9549, Note_on_c, 1, 72, 0
4, 9549, Note_on_c, 1, 69, 0
4, 9552, Note_on_c, 1, 71, 80
4, 9552, Note_on_c, 1, 67, 80
4, 9597, Note_on_c, 1, 71, 0
4, 9597, Note_on_c, 1, 67, 0
4, 9600, Note_on_c, 1, 67, 80
4, 9696, Note_on_c, 1, 67, 0
4, 9696, Note_on_c, 1, 65, 80
4, 9785, Note_on_c, 1, 65, 0
4, 9888, Note_on_c, 1, 39, 80
4, 9977, Note_on_c, 1, 39, 0
4, 9984, Note_on_c, 1, 40, 80
4, 10117, Note_on_c, 1, 40, 0
4, 10128, Note_on_c, 1, 44, 80
4, 10151, Note_on_c, 1, 44, 0
4, 10152, Note_on_c, 1, 47, 80
4, 10175, Note_on_c, 1, 47, 0
4, 10176, Note_on_c, 1, 52, 80
4, 10457, Note_on_c, 1, 52, 0
4, 12000, Note_on_c, 1, 46, 80
4, 12000, Note_on_c, 1, 34, 80
4, 12185, Note_on_c, 1, 46, 0
4, 12185, Note_on_c, 1, 34, 0
4, 12192, Note_on_c, 1, 45, 80
4, 12192, Note_on_c, 1, 33, 80
4, 12281, Note_on_c, 1, 45, 0
4, 12281, Note_on_c, 1, 33, 0
4, 12288, Note_on_c, 1, 44, 80
4, 12311, Note_on_c, 1, 44, 0
4, 12312, Note_on_c, 1, 47, 80
4, 12335, Note_on_c, 1, 47, 0
4, 12336, Note_on_c, 1, 50, 80
4, 12359, Note_on_c, 1, 50, 0
4, 12360, Note_on_c, 1, 56, 80
4, 12383, Note_on_c, 1, 56, 0
4, 12384, Note_on_c, 1, 44, 80
4, 12473, Note_on_c, 1, 44, 0
4, 12672, Note_on_c, 1, 42, 80
4, 12695, Note_on_c, 1, 42, 0
4, 12696, Note_on_c, 1, 45, 80
4, 12719, Note_on_c, 1, 45, 0
4, 12720, Note_on_c, 1, 50, 80
4, 12743, Note_on_c, 1, 50, 0
4, 12744, Note_on_c, 1, 54, 80
4, 12767, Note_on_c, 1, 54, 0
4, 12768, Note_on_c, 1, 42, 80
4, 12857, Note_on_c, 1, 42, 0
4, 13056, Note_on_c, 1, 41, 80
4, 13079, Note_on_c, 1, 41, 0
4, 13080, Note_on_c, 1, 44, 80
4, 13103, Note_on_c, 1, 44, 0
4, 13104, Note_on_c, 1, 47, 80
4, 13127, Note_on_c, 1, 47, 0
4, 13128, Note_on_c, 1, 53, 80
4, 13151, Note_on_c, 1, 53, 0
4, 13152, Note_on_c, 1, 41, 80
4, 13241, Note_on_c, 1, 41, 0
4, 13440, Note_on_c, 1, 66, 80
4, 13440, Note_on_c, 1, 61, 80
4, 13440, Note_on_c, 1, 59, 80
4, 13440, Note_on_c, 1, 52, 80
4, 13703, Note_on_c, 1, 66, 0
4, 13703, Note_on_c, 1, 61, 0
4, 13703, Note_on_c, 1, 59, 0
4, 13703, Note_on_c, 1, 52, 0
4, 13728, Note_on_c, 1, 50, 80
4, 13728, Note_on_c, 1, 38, 80
4, 13817, Note_on_c, 1, 50, 0
4, 13817, Note_on_c, 1, 38, 0
4, 13824, Note_on_c, 1, 50, 96
4, 13824, Note_on_c, 1, 38, 96
4, 13920, Note_on_c, 1, 50, 0
4, 13920, Note_on_c, 1, 38, 0
4, 13920, Note_on_c, 1, 50, 80
4, 13920, Note_on_c, 1, 38, 80
4, 13959, Note_on_c, 1, 50, 0
4, 13959, Note_on_c, 1, 38, 0
4, 14016, Note_on_c, 1, 48, 96
4, 14016, Note_on_c, 1, 36, 96
4, 14112, Note_on_c, 1, 48, 0
4, 14112, Note_on_c, 1, 36, 0
4, 14112, Note_on_c, 1, 48, 80
4, 14112, Note_on_c, 1, 36, 80
4, 14151, Note_on_c, 1, 48, 0
4, 14151, Note_on_c, 1, 36, 0
4, 14208, Note_on_c, 1, 47, 96
4, 14208, Note_on_c, 1, 35, 96
4, 14400, Note_on_c, 1, 47, 0
4, 14400, Note_on_c, 1, 35, 0
4, 14496, Note_on_c, 1, 47, 80
4, 14496, Note_on_c, 1, 35, 80
4, 14535, Note_on_c, 1, 47, 0
4, 14535, Note_on_c, 1, 35, 0
4, 14592, Note_on_c, 1, 47, 96
4, 14592, Note_on_c, 1, 35, 96
4, 14688, Note_on_c, 1, 47, 0
4, 14688, Note_on_c, 1, 35, 0
4, 14688, Note_on_c, 1, 47, 80
4, 14688, Note_on_c, 1, 35, 80
4, 14727, Note_on_c, 1, 47, 0
4, 14727, Note_on_c, 1, 35, 0
4, 14784, Note_on_c, 1, 45, 96
4, 14784, Note_on_c, 1, 33, 96
4, 14880, Note_on_c, 1, 45, 0
4, 14880, Note_on_c, 1, 33, 0
4, 14880, Note_on_c, 1, 45, 80
4, 14880, Note_on_c, 1, 33, 80
4, 14919, Note_on_c, 1, 45, 0
4, 14919, Note_on_c, 1, 33, 0
4, 14976, Note_on_c, 1, 43, 96
4, 14976, Note_on_c, 1, 31, 96
4, 15264, Note_on_c, 1, 43, 0
4, 15264, Note_on_c, 1, 31, 0
4, 15456, Note_on_c, 1, 45, 75
4, 15545, Note_on_c, 1, 45, 0
4, 15648, Note_on_c, 1, 43, 75
4, 15737, Note_on_c, 1, 43, 0
4, 15840, Note_on_c, 1, 48, 75
4, 15929, Note_on_c, 1, 48, 0
4, 15936, Note_on_c, 1, 48, 75
4, 16025, Note_on_c, 1, 48, 0
4, 16032, Note_on_c, 1, 48, 75
4, 16032, Note_on_c, 1, 36, 75
4, 16121, Note_on_c, 1, 48, 0
4, 16121, Note_on_c, 1, 36, 0
4, 16128, Note_on_c, 1, 51, 75
4, 16128, Note_on_c, 1, 47, 75
4, 16128, Note_on_c, 1, 35, 75
4, 16390, Note_on_c, 1, 51, 0
4, 16390, Note_on_c, 1, 47, 0
4, 16390, Note_on_c, 1, 35, 0
4, 16512, Note_on_c, 1, 64, 64
4, 16551, Note_on_c, 1, 64, 0
4, 16608, Note_on_c, 1, 67, 64
4, 16647, Note_on_c, 1, 67, 0
4, 16704, Note_on_c, 1, 66, 64
4, 16743, Note_on_c, 1, 66, 0
4, 16800, Note_on_c, 1, 69, 64
4, 16839, Note_on_c, 1, 69, 0
4, 16896, Note_on_c, 1, 67, 64
4, 17073, Note_on_c, 1, 67, 0
4, 17280, Note_on_c, 1, 64, 64
4, 17319, Note_on_c, 1, 64, 0
4, 17376, Note_on_c, 1, 67, 64
4, 17415, Note_on_c, 1, 67, 0
4, 17472, Note_on_c, 1, 66, 64
4, 17511, Note_on_c, 1, 66, 0
4, 17568, Note_on_c, 1, 69, 64
4, 17607, Note_on_c, 1, 69, 0
4, 17664, Note_on_c, 1, 67, 64
4, 17841, Note_on_c, 1, 67, 0
4, 18048, Note_on_c, 1, 69, 70
4, 18087, Note_on_c, 1, 69, 0
4, 18144, Note_on_c, 1, 67, 70
4, 18183, Note_on_c, 1, 67, 0
4, 18240, Note_on_c, 1, 66, 70
4, 18279, Note_on_c, 1, 66, 0
4, 18336, Note_on_c, 1, 64, 70
4, 18375, Note_on_c, 1, 64, 0
4, 18432, Note_on_c, 1, 62, 70
4, 18471, Note_on_c, 1, 62, 0
4, 18528, Note_on_c, 1, 74, 70
4, 18567, Note_on_c, 1, 74, 0
4, 18816, Note_on_c, 1, 67, 70
4, 18855, Note_on_c, 1, 67, 0
4, 18912, Note_on_c, 1, 66, 70
4, 18951, Note_on_c, 1, 66, 0
4, 19008, Note_on_c, 1, 64, 70
4, 19047, Note_on_c, 1, 64, 0
4, 19104, Note_on_c, 1, 62, 70
4, 19143, Note_on_c, 1, 62, 0
4, 19200, Note_on_c, 1, 60, 70
4, 19239, Note_on_c, 1, 60, 0
4, 19296, Note_on_c, 1, 72, 70
4, 19335, Note_on_c, 1, 72, 0
4, 19584, Note_on_c, 1, 66, 70
4, 19623, Note_on_c, 1, 66, 0
4, 19680, Note_on_c, 1, 64, 70
4, 19719, Note_on_c, 1, 64, 0
4, 19776, Note_on_c, 1, 63, 70
4, 19815, Note_on_c, 1, 63, 0
4, 19872, Note_on_c, 1, 61, 70
4, 19911, Note_on_c, 1, 61, 0
4, 19968, Note_on_c, 1, 59, 70
4, 20007, Note_on_c, 1, 59, 0
4, 20064, Note_on_c, 1, 71, 70
4, 20103, Note_on_c, 1, 71, 0
4, 20208, Note_on_c, 1, 57, 75
4, 20253, Note_on_c, 1, 57, 0
4, 20256, Note_on_c, 1, 59, 75
4, 20301, Note_on_c, 1, 59, 0
4, 20304, Note_on_c, 1, 60, 75
4, 20349, Note_on_c, 1, 60, 0
4, 20352, Note_on_c, 1, 51, 75
4, 20529, Note_on_c, 1, 51, 0
4, 20592, Note_on_c, 1, 54, 75
4, 20637, Note_on_c, 1, 54, 0
4, 20640, Note_on_c, 1, 52, 75
4, 20685, Note_on_c, 1, 52, 0
4, 20688, Note_on_c, 1, 51, 75
4, 20733, Note_on_c, 1, 51, 0
4, 20736, Note_on_c, 1, 52, 76
4, 20781, Note_on_c, 1, 52, 0
4, 20784, Note_on_c, 1, 47, 76
4, 20829, Note_on_c, 1, 47, 0
4, 20832, Note_on_c, 1, 48, 76
4, 20877, Note_on_c, 1, 48, 0
4, 20880, Note_on_c, 1, 47, 76
4, 20925, Note_on_c, 1, 47, 0
4, 20928, Note_on_c, 1, 45, 77
4, 20973, Note_on_c, 1, 45, 0
4, 20976, Note_on_c, 1, 43, 77
4, 21021, Note_on_c, 1, 43, 0
4, 21024, Note_on_c, 1, 42, 77
4, 21069, Note_on_c, 1, 42, 0
4, 21072, Note_on_c, 1, 40, 78
4, 21117, Note_on_c, 1, 40, 0
4, 21120, Note_on_c, 1, 39, 78
4, 21165, Note_on_c, 1, 39, 0
4, 21168, Note_on_c, 1, 48, 78
4, 21213, Note_on_c, 1, 48, 0
4, 21216, Note_on_c, 1, 47, 78
4, 21261, Note_on_c, 1, 47, 0
4, 21264, Note_on_c, 1, 45, 79
4, 21309, Note_on_c, 1, 45, 0
4, 21312, Note_on_c, 1, 47, 79
4, 21351, Note_on_c, 1, 47, 0
4, 21408, Note_on_c, 1, 54, 96
4, 21408, Note_on_c, 1, 51, 96
4, 21408, Note_on_c, 1, 47, 96
4, 21447, Note_on_c, 1, 54, 0
4, 21447, Note_on_c, 1, 51, 0
4, 21447, Note_on_c, 1, 47, 0
4, 21504, Note_on_c, 1, 47, 80
4, 21504, Note_on_c, 1, 43, 80
4, 21504, Note_on_c, 1, 40, 80
4, 21769, Note_on_c, 1, 47, 0
4, 21769, Note_on_c, 1, 43, 0
4, 21769, Note_on_c, 1, 40, 0
4, 21888, Note_on_c, 1, 59, 80
4, 21888, Note_on_c, 1, 55, 80
4, 21888, Note_on_c, 1, 52, 80
4, 22065, Note_on_c, 1, 59, 0
4, 22065, Note_on_c, 1, 55, 0
4, 22065, Note_on_c, 1, 52, 0
4, 22272, Note_on_c, 1, 59, 80
4, 22272, Note_on_c, 1, 54, 80
4, 22272, Note_on_c, 1, 51, 80
4, 22449, Note_on_c, 1, 59, 0
4, 22449, Note_on_c, 1, 54, 0
4, 22449, Note_on_c, 1, 51, 0
4, 22656, Note_on_c, 1, 40, 80
4, 22745, Note_on_c, 1, 40, 0
4, 22752, Note_on_c, 1, 67, 80
4, 22893, Note_on_c, 1, 67, 0
4, 22896, Note_on_c, 1, 69, 80
4, 22941, Note_on_c, 1, 69, 0
4, 22944, Note_on_c, 1, 71, 80
4, 22989, Note_on_c, 1, 71, 0
4, 22992, Note_on_c, 1, 67, 80
4, 23037, Note_on_c, 1, 67, 0
4, 23040, Note_on_c, 1, 64, 80
4, 23085, Note_on_c, 1, 64, 0
4, 23088, Note_on_c, 1, 66, 80
4, 23133, Note_on_c, 1, 66, 0
4, 23136, Note_on_c, 1, 67, 80
4, 23181, Note_on_c, 1, 67, 0
4, 23184, Note_on_c, 1, 64, 80
4, 23229, Note_on_c, 1, 64, 0
4, 23232, Note_on_c, 1, 60, 80
4, 23277, Note_on_c, 1, 60, 0
4, 23280, Note_on_c, 1, 62, 80
4, 23325, Note_on_c, 1, 62, 0
4, 23328, Note_on_c, 1, 64, 80
4, 23373, Note_on_c, 1, 64, 0
4, 23376, Note_on_c, 1, 60, 80
4, 23421, Note_on_c, 1, 60, 0
4, 23424, Note_on_c, 1, 57, 96
4, 23518, Note_on_c, 1, 57, 0
4, 23664, Note_on_c, 1, 69, 80
4, 23687, Note_on_c, 1, 69, 0
4, 23688, Note_on_c, 1, 71, 80
4, 23711, Note_on_c, 1, 71, 0
4, 23712, Note_on_c, 1, 72, 80
4, 23757, Note_on_c, 1, 72, 0
4, 23760, Note_on_c, 1, 69, 80
4, 23805, Note_on_c, 1, 69, 0
4, 23808, Note_on_c, 1, 66, 80
4, 23853, Note_on_c, 1, 66, 0
4, 23856, Note_on_c, 1, 66, 80
4, 23879, Note_on_c, 1, 66, 0
4, 23880, Note_on_c, 1, 67, 80
4, 23903, Note_on_c, 1, 67, 0
4, 23904, Note_on_c, 1, 69, 80
4, 23949, Note_on_c, 1, 69, 0
4, 23952, Note_on_c, 1, 66, 80
4, 23997, Note_on_c, 1, 66, 0
4, 24000, Note_on_c, 1, 67, 80
4, 24045, Note_on_c, 1, 67, 0
4, 24048, Note_on_c, 1, 64, 80
4, 24093, Note_on_c, 1, 64, 0
4, 24096, Note_on_c, 1, 67, 80
4, 24141, Note_on_c, 1, 67, 0
4, 24144, Note_on_c, 1, 64, 80
4, 24189, Note_on_c, 1, 64, 0
4, 24192, Note_on_c, 1, 58, 80
4, 24369, Note_on_c, 1, 58, 0
4, 24432, Note_on_c, 1, 76, 80
4, 24432, Note_on_c, 1, 73, 80
4, 24477, Note_on_c, 1, 76, 0
4, 24477, Note_on_c, 1, 73, 0
4, 24480, Note_on_c, 1, 78, 80
4, 24480, Note_on_c, 1, 74, 80
4, 24525, Note_on_c, 1, 78, 0
4, 24525, Note_on_c, 1, 74, 0
4, 24528, Note_on_c, 1, 76, 80
4, 24528, Note_on_c, 1, 73, 80
4, 24573, Note_on_c, 1, 76, 0
4, 24573, Note_on_c, 1, 73, 0
4, 24576, Note_on_c, 1, 73, 80
4, 24672, Note_on_c, 1, 73, 0
4, 24672, Note_on_c, 1, 71, 80
4, 24761, Note_on_c, 1, 71, 0
4, 24816, Note_on_c, 1, 74, 80
4, 24816, Note_on_c, 1, 71, 80
4, 24861, Note_on_c, 1, 74, 0
4, 24861, Note_on_c, 1, 71, 0
4, 24864, Note_on_c, 1, 76, 80
4, 24864, Note_on_c, 1, 72, 80
4, 24909, Note_on_c, 1, 76, 0
4, 24909, Note_on_c, 1, 72, 0
4, 24912, Note_on_c, 1, 74, 80
4, 24912, Note_on_c, 1, 71, 80
4, 24957, Note_on_c, 1, 74, 0
4, 24957, Note_on_c, 1, 71, 0
4, 24960, Note_on_c, 1, 71, 80
4, 25056, Note_on_c, 1, 71, 0
4, 25056, Note_on_c, 1, 69, 80
4, 25145, Note_on_c, 1, 69, 0
4, 25200, Note_on_c, 1, 72, 80
4, 25200, Note_on_c, 1, 69, 80
4, 25245, Note_on_c, 1, 72, 0
4, 25245, Note_on_c, 1, 69, 0
4, 25248, Note_on_c, 1, 74, 80
4, 25248, Note_on_c, 1, 71, 80
4, 25293, Note_on_c, 1, 74, 0
4, 25293, Note_on_c, 1, 71, 0
4, 25296, Note_on_c, 1, 72, 80
4, 25296, Note_on_c, 1, 69, 80
4, 25341, Note_on_c, 1, 72, 0
4, 25341, Note_on_c, 1, 69, 0
4, 25344, Note_on_c, 1, 69, 80
4, 25440, Note_on_c, 1, 69, 0
4, 25440, Note_on_c, 1, 67, 80
4, 25529, Note_on_c, 1, 67, 0
4, 25584, Note_on_c, 1, 71, 80
4, 25584, Note_on_c, 1, 67, 80
4, 25629, Note_on_c, 1, 71, 0
4, 25629, Note_on_c, 1, 67, 0
4, 25632, Note_on_c, 1, 72, 80
4, 25632, Note_on_c, 1, 69, 80
4, 25677, Note_on_c, 1, 72, 0
4, 25677, Note_on_c, 1, 69, 0
4, 25680, Note_on_c, 1, 71, 80
4, 25680, Note_on_c, 1, 67, 80
4, 25725, Note_on_c, 1, 71, 0
4, 25725, Note_on_c, 1, 67, 0
4, 25728, Note_on_c, 1, 67, 80
4, 25824, Note_on_c, 1, 67, 0
4, 25824, Note_on_c, 1, 65, 80
4, 25913, Note_on_c, 1, 65, 0
4, 26016, Note_on_c, 1, 39, 80
4, 26105, Note_on_c, 1, 39, 0
4, 26112, Note_on_c, 1, 40, 80
4, 26245, Note_on_c, 1, 40, 0
4, 26256, Note_on_c, 1, 44, 80
4, 26279, Note_on_c, 1, 44, 0
4, 26280, Note_on_c, 1, 47, 80
4, 26303, Note_on_c, 1, 47, 0
4, 26304, Note_on_c, 1, 52, 80
4, 26585, Note_on_c, 1, 52, 0
4, 28128, Note_on_c, 1, 46, 80
4, 28128, Note_on_c, 1, 34, 80
4, 28313, Note_on_c, 1, 46, 0
4, 28313, Note_on_c, 1, 34, 0
4, 28320, Note_on_c, 1, 45, 80
4, 28320, Note_on_c, 1, 33, 80
4, 28409, Note_on_c, 1, 45, 0
4, 28409, Note_on_c, 1, 33, 0
4, 28416, Note_on_c, 1, 44, 80
4, 28439, Note_on_c, 1, 44, 0
4, 28440, Note_on_c, 1, 47, 80
4, 28463, Note_on_c, 1, 47, 0
4, 28464, Note_on_c, 1, 50, 80
4, 28487, Note_on_c, 1, 50, 0
4, 28488, Note_on_c, 1, 56, 80
4, 28511, Note_on_c, 1, 56, 0
4, 28512, Note_on_c, 1, 44, 80
4, 28601, Note_on_c, 1, 44, 0
4, 28800, Note_on_c, 1, 42, 80
4, 28823, Note_on_c, 1, 42, 0
4, 28824, Note_on_c, 1, 45, 80
4, 28847, Note_on_c, 1, 45, 0
4, 28848, Note_on_c, 1, 50, 80
4, 28871, Note_on_c, 1, 50, 0
4, 28872, Note_on_c, 1, 54, 80
4, 28895, Note_on_c, 1, 54, 0
4, 28896, Note_on_c, 1, 42, 80
4, 28985, Note_on_c, 1, 42, 0
4, 29184, Note_on_c, 1, 41, 80
4, 29207, Note_on_c, 1, 41, 0
4, 29208, Note_on_c, 1, 44, 80
4, 29231, Note_on_c, 1, 44, 0
4, 29232, Note_on_c, 1, 47, 80
4, 29255, Note_on_c, 1, 47, 0
4, 29256, Note_on_c, 1, 53, 80
4, 29279, Note_on_c, 1, 53, 0
4, 29280, Note_on_c, 1, 41, 80
4, 29369, Note_on_c, 1, 41, 0
4, 29568, Note_on_c, 1, 66, 80
4, 29568, Note_on_c, 1, 61, 80
4, 29568, Note_on_c, 1, 59, 80
4, 29568, Note_on_c, 1, 52, 80
4, 29831, Note_on_c, 1, 66, 0
4, 29831, Note_on_c, 1, 61, 0
4, 29831, Note_on_c, 1, 59, 0
4, 29831, Note_on_c, 1, 52, 0
4, 29856, Note_on_c, 1, 50, 80
4, 29856, Note_on_c, 1, 38, 80
4, 29945, Note_on_c, 1, 50, 0
4, 29945, Note_on_c, 1, 38, 0
4, 29952, Note_on_c, 1, 50, 96
4, 29952, Note_on_c, 1, 38, 96
4, 30048, Note_on_c, 1, 50, 0
4, 30048, Note_on_c, 1, 38, 0
4, 30048, Note_on_c, 1, 50, 80
4, 30048, Note_on_c, 1, 38, 80
4, 30087, Note_on_c, 1, 50, 0
4, 30087, Note_on_c, 1, 38, 0
4, 30144, Note_on_c, 1, 48, 96
4, 30144, Note_on_c, 1, 36, 96
4, 30240, Note_on_c, 1, 48, 0
4, 30240, Note_on_c, 1, 36, 0
4, 30240, Note_on_c, 1, 48, 80
4, 30240, Note_on_c, 1, 36, 80
4, 30279, Note_on_c, 1, 48, 0
4, 30279, Note_on_c, 1, 36, 0
4, 30336, Note_on_c, 1, 47, 96
4, 30336, Note_on_c, 1, 35, 96
4, 30528, Note_on_c, 1, 47, 0
4, 30528, Note_on_c, 1, 35, 0
4, 30624, Note_on_c, 1, 47, 80
4, 30624, Note_on_c, 1, 35, 80
4, 30663, Note_on_c, 1, 47, 0
4, 30663, Note_on_c, 1, 35, 0
4, 30720, Note_on_c, 1, 47, 96
4, 30720, Note_on_c, 1, 35, 96
4, 30816, Note_on_c, 1, 47, 0
4, 30816, Note_on_c, 1, 35, 0
4, 30816, Note_on_c, 1, 47, 80
4, 30816, Note_on_c, 1, 35, 80
4, 30855, Note_on_c, 1, 47, 0
4, 30855, Note_on_c, 1, 35, 0
4, 30912, Note_on_c, 1, 45, 96
4, 30912, Note_on_c, 1, 33, 96
4, 31008, Note_on_c, 1, 45, 0
4, 31008, Note_on_c, 1, 33, 0
4, 31008, Note_on_c, 1, 45, 80
4, 31008, Note_on_c, 1, 33, 80
4, 31047, Note_on_c, 1, 45, 0
4, 31047, Note_on_c, 1, 33, 0
4, 31104, Note_on_c, 1, 43, 96
4, 31104, Note_on_c, 1, 31, 96
4, 31392, Note_on_c, 1, 43, 0
4, 31392, Note_on_c, 1, 31, 0
4, 31584, Note_on_c, 1, 45, 75
4, 31673, Note_on_c, 1, 45, 0
4, 31776, Note_on_c, 1, 43, 75
4, 31865, Note_on_c, 1, 43, 0
4, 31968, Note_on_c, 1, 48, 75
4, 32057, Note_on_c, 1, 48, 0
4, 32064, Note_on_c, 1, 48, 75
4, 32153, Note_on_c, 1, 48, 0
4, 32160, Note_on_c, 1, 48, 75
4, 32160, Note_on_c, 1, 36, 75
4, 32249, Note_on_c, 1, 48, 0
4, 32249, Note_on_c, 1, 36, 0
4, 32256, Note_on_c, 1, 51, 58
4, 32256, Note_on_c, 1, 47, 58
4, 32256, Note_on_c, 1, 35, 58
4, 32518, Note_on_c, 1, 51, 0
4, 32518, Note_on_c, 1, 47, 0
4, 32518, Note_on_c, 1, 35, 0
4, 32640, Note_on_c, 1, 55, 64
4, 32679, Note_on_c, 1, 55, 0
4, 32736, Note_on_c, 1, 59, 64
4, 32775, Note_on_c, 1, 59, 0
4, 32832, Note_on_c, 1, 57, 64
4, 32921, Note_on_c, 1, 57, 0
4, 32928, Note_on_c, 1, 60, 64
4, 33017, Note_on_c, 1, 60, 0
4, 33024, Note_on_c, 1, 59, 64
4, 33201, Note_on_c, 1, 59, 0
4, 33312, Note_on_c, 1, 50, 70
4, 33351, Note_on_c, 1, 50, 0
4, 33408, Note_on_c, 1, 55, 70
4, 33453, Note_on_c, 1, 55, 0
4, 33456, Note_on_c, 1, 59, 70
4, 33501, Note_on_c, 1, 59, 0
4, 33504, Note_on_c, 1, 57, 70
4, 33549, Note_on_c, 1, 57, 0
4, 33552, Note_on_c, 1, 55, 70
4, 33597, Note_on_c, 1, 55, 0
4, 33600, Note_on_c, 1, 54, 70
4, 33645, Note_on_c, 1, 54, 0
4, 33648, Note_on_c, 1, 57, 70
4, 33693, Note_on_c, 1, 57, 0
4, 33696, Note_on_c, 1, 55, 70
4, 33741, Note_on_c, 1, 55, 0
4, 33744, Note_on_c, 1, 54, 70
4, 33789, Note_on_c, 1, 54, 0
4, 33792, Note_on_c, 1, 55, 70
4, 33837, Note_on_c, 1, 55, 0
4, 33840, Note_on_c, 1, 62, 70
4, 33885, Note_on_c, 1, 62, 0
4, 33888, Note_on_c, 1, 60, 70
4, 33933, Note_on_c, 1, 60, 0
4, 33936, Note_on_c, 1, 59, 70
4, 33981, Note_on_c, 1, 59, 0
4, 33984, Note_on_c, 1, 57, 70
4, 34029, Note_on_c, 1, 57, 0
4, 34032, Note_on_c, 1, 55, 71
4, 34077, Note_on_c, 1, 55, 0
4, 34080, Note_on_c, 1, 54, 72
4, 34125, Note_on_c, 1, 54, 0
4, 34128, Note_on_c, 1, 52, 73
4, 34173, Note_on_c, 1, 52, 0
4, 34176, Note_on_c, 1, 50, 75
4, 34215, Note_on_c, 1, 50, 0
4, 34272, Note_on_c, 1, 62, 75
4, 34311, Note_on_c, 1, 62, 0
4, 34368, Note_on_c, 1, 48, 75
4, 34407, Note_on_c, 1, 48, 0
4, 34464, Note_on_c, 1, 60, 75
4, 34503, Note_on_c, 1, 60, 0
4, 34560, Note_on_c, 1, 47, 75
4, 34599, Note_on_c, 1, 47, 0
4, 34656, Note_on_c, 1, 59, 75
4, 34695, Note_on_c, 1, 59, 0
4, 34752, Note_on_c, 1, 45, 75
4, 34791, Note_on_c, 1, 45, 0
4, 34848, Note_on_c, 1, 57, 75
4, 34887, Note_on_c, 1, 57, 0
4, 34944, Note_on_c, 1, 44, 91
4, 35136, Note_on_c, 1, 44, 0
4, 35136, Note_on_c, 1, 62, 64
4, 35148, Note_on_c, 1, 62, 0
4, 35148, Note_on_c, 1, 64, 64
4, 35160, Note_on_c, 1, 64, 0
4, 35160, Note_on_c, 1, 62, 64
4, 35181, Note_on_c, 1, 62, 0
4, 35184, Note_on_c, 1, 60, 64
4, 35229, Note_on_c, 1, 60, 0
4, 35232, Note_on_c, 1, 62, 64
4, 35321, Note_on_c, 1, 62, 0
4, 35328, Note_on_c, 1, 52, 96
4, 35328, Note_on_c, 1, 47, 96
4, 35328, Note_on_c, 1, 44, 96
4, 35328, Note_on_c, 1, 40, 96
4, 35608, Note_on_c, 1, 52, 0
4, 35608, Note_on_c, 1, 47, 0
4, 35608, Note_on_c, 1, 44, 0
4, 35608, Note_on_c, 1, 40, 0
4, 35712, Note_on_c, 1, 36, 91
4, 35904, Note_on_c, 1, 36, 0
4, 35904, Note_on_c, 1, 60, 70
4, 35916, Note_on_c, 1, 60, 0
4, 35916, Note_on_c, 1, 62, 70
4, 35928, Note_on_c, 1, 62, 0
4, 35928, Note_on_c, 1, 60, 70
4, 35949, Note_on_c, 1, 60, 0
4, 35952, Note_on_c, 1, 59, 70
4, 35997, Note_on_c, 1, 59, 0
4, 36000, Note_on_c, 1, 60, 70
4, 36089, Note_on_c, 1, 60, 0
4, 36096, Note_on_c, 1, 57, 96
4, 36096, Note_on_c, 1, 52, 96
4, 36096, Note_on_c, 1, 48, 96
4, 36096, Note_on_c, 1, 45, 96
4, 36376, Note_on_c, 1, 57, 0
4, 36376, Note_on_c, 1, 52, 0
4, 36376, Note_on_c, 1, 48, 0
4, 36376, Note_on_c, 1, 45, 0
4, 36480, Note_on_c, 1, 47, 96
4, 36500, Note_on_c, 1, 47, 0
4, 36528, Note_on_c, 1, 47, 70
4, 36551, Note_on_c, 1, 47, 0
4, 36552, Note_on_c, 1, 48, 70
4, 36575, Note_on_c, 1, 48, 0
4, 36576, Note_on_c, 1, 50, 70
4, 36596, Note_on_c, 1, 50, 0
4, 36624, Note_on_c, 1, 47, 71
4, 36644, Note_on_c, 1, 47, 0
4, 36672, Note_on_c, 1, 44, 88
4, 36692, Note_on_c, 1, 44, 0
4, 36720, Note_on_c, 1, 44, 72
4, 36743, Note_on_c, 1, 44, 0
4, 36744, Note_on_c, 1, 45, 73
4, 36767, Note_on_c, 1, 45, 0
4, 36768, Note_on_c, 1, 47, 73
4, 36788, Note_on_c, 1, 47, 0
4, 36816, Note_on_c, 1, 44, 74
4, 36836, Note_on_c, 1, 44, 0
4, 36864, Note_on_c, 1, 57, 90
4, 36884, Note_on_c, 1, 57, 0
4, 36912, Note_on_c, 1, 57, 75
4, 36935, Note_on_c, 1, 57, 0
4, 36936, Note_on_c, 1, 59, 75
4, 36959, Note_on_c, 1, 59, 0
4, 36960, Note_on_c, 1, 60, 76
4, 36980, Note_on_c, 1, 60, 0
4, 37008, Note_on_c, 1, 57, 76
4, 37028, Note_on_c, 1, 57, 0
4, 37056, Note_on_c, 1, 53, 93
4, 37076, Note_on_c, 1, 53, 0
4, 37104, Note_on_c, 1, 53, 78
4, 37127, Note_on_c, 1, 53, 0
4, 37128, Note_on_c, 1, 55, 78
4, 37151, Note_on_c, 1, 55, 0
4, 37152, Note_on_c, 1, 57, 78
4, 37172, Note_on_c, 1, 57, 0
4, 37200, Note_on_c, 1, 53, 79
4, 37220, Note_on_c, 1, 53, 0
4, 37248, Note_on_c, 1, 34, 80
4, 37271, Note_on_c, 1, 34, 0
4, 37272, Note_on_c, 1, 38, 80
4, 37295, Note_on_c, 1, 38, 0
4, 37296, Note_on_c, 1, 41, 80
4, 37319, Note_on_c, 1, 41, 0
4, 37320, Note_on_c, 1, 46, 80
4, 37343, Note_on_c, 1, 46, 0
4, 37344, Note_on_c, 1, 34, 80
4, 37433, Note_on_c, 1, 34, 0
4, 37632, Note_on_c, 1, 35, 80
4, 37655, Note_on_c, 1, 35, 0
4, 37656, Note_on_c, 1, 38, 80
4, 37679, Note_on_c, 1, 38, 0
4, 37680, Note_on_c, 1, 41, 80
4, 37703, Note_on_c, 1, 41, 0
4, 37704, Note_on_c, 1, 44, 80
4, 37727, Note_on_c, 1, 44, 0
4, 37728, Note_on_c, 1, 35, 86
4, 37773, Note_on_c, 1, 35, 0
4, 37776, Note_on_c, 1, 35, 86
4, 37799, Note_on_c, 1, 35, 0
4, 37800, Note_on_c, 1, 36, 86
4, 37823, Note_on_c, 1, 36, 0
4, 37824, Note_on_c, 1, 38, 86
4, 37844, Note_on_c, 1, 38, 0
4, 37872, Note_on_c, 1, 38, 86
4, 37895, Note_on_c, 1, 38, 0
4, 37896, Note_on_c, 1, 40, 86
4, 37919, Note_on_c, 1, 40, 0
4, 37920, Note_on_c, 1, 41, 86
4, 37940, Note_on_c, 1, 41, 0
4, 37968, Note_on_c, 1, 38, 86
4, 37988, Note_on_c, 1, 38, 0
4, 38016, Note_on_c, 1, 36, 80
4, 38039, Note_on_c, 1, 36, 0
4, 38040, Note_on_c, 1, 40, 80
4, 38063, Note_on_c, 1, 40, 0
4, 38064, Note_on_c, 1, 45, 80
4, 38087, Note_on_c, 1, 45, 0
4, 38088, Note_on_c, 1, 48, 80
4, 38111, Note_on_c, 1, 48, 0
4, 38112, Note_on_c, 1, 36, 80
4, 38201, Note_on_c, 1, 36, 0
4, 38400, Note_on_c, 1, 39, 80
4, 38423, Note_on_c, 1, 39, 0
4, 38424, Note_on_c, 1, 43, 80
4, 38447, Note_on_c, 1, 43, 0
4, 38448, Note_on_c, 1, 46, 80
4, 38471, Note_on_c, 1, 46, 0
4, 38472, Note_on_c, 1, 49, 80
4, 38495, Note_on_c, 1, 49, 0
4, 38496, Note_on_c, 1, 39, 80
4, 38585, Note_on_c, 1, 39, 0
4, 38784, Note_on_c, 1, 50, 80
4, 38784, Note_on_c, 1, 45, 80
4, 38784, Note_on_c, 1, 42, 80
4, 38784, Note_on_c, 1, 38, 80
4, 38961, Note_on_c, 1, 50, 0
4, 38961, Note_on_c, 1, 45, 0
4, 38961, Note_on_c, 1, 42, 0
4, 38961, Note_on_c, 1, 38, 0
4, 39456, Note_on_c, 1, 50, 75
4, 39495, Note_on_c, 1, 50, 0
4, 39552, Note_on_c, 1, 55, 75
4, 39597, Note_on_c, 1, 55, 0
4, 39600, Note_on_c, 1, 58, 75
4, 39645, Note_on_c, 1, 58, 0
4, 39648, Note_on_c, 1, 57, 76
4, 39693, Note_on_c, 1, 57, 0
4, 39696, Note_on_c, 1, 55, 76
4, 39741, Note_on_c, 1, 55, 0
4, 39744, Note_on_c, 1, 54, 77
4, 39789, Note_on_c, 1, 54, 0
4, 39792, Note_on_c, 1, 57, 78
4, 39837, Note_on_c, 1, 57, 0
4, 39840, Note_on_c, 1, 55, 78
4, 39885, Note_on_c, 1, 55, 0
4, 39888, Note_on_c, 1, 54, 79
4, 39933, Note_on_c, 1, 54, 0
4, 39936, Note_on_c, 1, 58, 80
4, 39981, Note_on_c, 1, 58, 0
4, 39984, Note_on_c, 1, 62, 79
4, 40029, Note_on_c, 1, 62, 0
4, 40032, Note_on_c, 1, 60, 78
4, 40077, Note_on_c, 1, 60, 0
4, 40080, Note_on_c, 1, 58, 78
4, 40125, Note_on_c, 1, 58, 0
4, 40128, Note_on_c, 1, 57, 77
4, 40173, Note_on_c, 1, 57, 0
4, 40176, Note_on_c, 1, 55, 76
4, 40221, Note_on_c, 1, 55, 0
4, 40224, Note_on_c, 1, 54, 76
4, 40269, Note_on_c, 1, 54, 0
4, 40272, Note_on_c, 1, 57, 75
4, 40317, Note_on_c, 1, 57, 0
4, 40320, Note_on_c, 1, 60, 75
4, 40365, Note_on_c, 1, 60, 0
4, 40368, Note_on_c, 1, 58, 75
4, 40413, Note_on_c, 1, 58, 0
4, 40416, Note_on_c, 1, 57, 75
4, 40461, Note_on_c, 1, 57, 0
4, 40464, Note_on_c, 1, 55, 75
4, 40509, Note_on_c, 1, 55, 0
4, 40512, Note_on_c, 1, 58, 75
4, 40557, Note_on_c, 1, 58, 0
4, 40560, Note_on_c, 1, 57, 75
4, 40605, Note_on_c, 1, 57, 0
4, 40608, Note_on_c, 1, 55, 75
4, 40653, Note_on_c, 1, 55, 0
4, 40656, Note_on_c, 1, 54, 75
4, 40701, Note_on_c, 1, 54, 0
4, 40704, Note_on_c, 1, 51, 75
4, 40749, Note_on_c, 1, 51, 0
4, 40752, Note_on_c, 1, 62, 75
4, 40797, Note_on_c, 1, 62, 0
4, 40800, Note_on_c, 1, 60, 76
4, 40845, Note_on_c, 1, 60, 0
4, 40848, Note_on_c, 1, 58, 76
4, 40893, Note_on_c, 1, 58, 0
4, 40896, Note_on_c, 1, 57, 77
4, 40941, Note_on_c, 1, 57, 0
4, 40944, Note_on_c, 1, 55, 78
4, 40989, Note_on_c, 1, 55, 0
4, 40992, Note_on_c, 1, 54, 78
4, 41037, Note_on_c, 1, 54, 0
4, 41040, Note_on_c, 1, 51, 79
4, 41085, Note_on_c, 1, 51, 0
4, 41088, Note_on_c, 1, 41, 80
4, 41111, Note_on_c, 1, 41, 0
4, 41112, Note_on_c, 1, 47, 80
4, 41135, Note_on_c, 1, 47, 0
4, 41136, Note_on_c, 1, 50, 80
4, 41159, Note_on_c, 1, 50, 0
4, 41160, Note_on_c, 1, 53, 80
4, 41183, Note_on_c, 1, 53, 0
4, 41184, Note_on_c, 1, 41, 80
4, 41273, Note_on_c, 1, 41, 0
4, 41472, Note_on_c, 1, 40, 80
4, 41495, Note_on_c, 1, 40, 0
4, 41496, Note_on_c, 1, 43, 80
4, 41519, Note_on_c, 1, 43, 0
4, 41520, Note_on_c, 1, 48, 80
4, 41543, Note_on_c, 1, 48, 0
4, 41544, Note_on_c, 1, 52, 80
4, 41567, Note_on_c, 1, 52, 0
4, 41568, Note_on_c, 1, 40, 80
4, 41657, Note_on_c, 1, 40, 0
4, 41856, Note_on_c, 1, 41, 82
4, 41879, Note_on_c, 1, 41, 0
4, 41880, Note_on_c, 1, 45, 82
4, 41903, Note_on_c, 1, 45, 0
4, 41904, Note_on_c, 1, 50, 82
4, 41927, Note_on_c, 1, 50, 0
4, 41928, Note_on_c, 1, 53, 82
4, 41951, Note_on_c, 1, 53, 0
4, 41952, Note_on_c, 1, 41, 82
4, 42041, Note_on_c, 1, 41, 0
4, 42240, Note_on_c, 1, 41, 84
4, 42263, Note_on_c, 1, 41, 0
4, 42264, Note_on_c, 1, 45, 84
4, 42287, Note_on_c, 1, 45, 0
4, 42288, Note_on_c, 1, 48, 84
4, 42311, Note_on_c, 1, 48, 0
4, 42312, Note_on_c, 1, 51, 84
4, 42335, Note_on_c, 1, 51, 0
4, 42336, Note_on_c, 1, 41, 84
4, 42425, Note_on_c, 1, 41, 0
4, 42624, Note_on_c, 1, 52, 96
4, 42672, Note_on_c, 1, 52, 0
4, 42672, Note_on_c, 1, 40, 79
4, 42717, Note_on_c, 1, 40, 0
4, 42720, Note_on_c, 1, 52, 78
4, 42765, Note_on_c, 1, 52, 0
4, 42768, Note_on_c, 1, 52, 77
4, 42813, Note_on_c, 1, 52, 0
4, 42816, Note_on_c, 1, 52, 76
4, 42861, Note_on_c, 1, 52, 0
4, 42864, Note_on_c, 1, 40, 75
4, 42909, Note_on_c, 1, 40, 0
4, 42912, Note_on_c, 1, 52, 74
4, 42957, Note_on_c, 1, 52, 0
4, 42960, Note_on_c, 1, 52, 73
4, 43005, Note_on_c, 1, 52, 0
4, 43008, Note_on_c, 1, 52, 72
4, 43053, Note_on_c, 1, 52, 0
4, 43056, Note_on_c, 1, 40, 71
4, 43101, Note_on_c, 1, 40, 0
4, 43104, Note_on_c, 1, 52, 70
4, 43149, Note_on_c, 1, 52, 0
4, 43152, Note_on_c, 1, 52, 69
4, 43197, Note_on_c, 1, 52, 0
4, 43200, Note_on_c, 1, 52, 68
4, 43245, Note_on_c, 1, 52, 0
4, 43248, Note_on_c, 1, 40, 67
4, 43293, Note_on_c, 1, 40, 0
4, 43296, Note_on_c, 1, 52, 66
4, 43341, Note_on_c, 1, 52, 0
4, 43344, Note_on_c, 1, 52, 65
4, 43389, Note_on_c, 1, 52, 0
4, 43392, Note_on_c, 1, 53, 64
4, 43413, Note_on_c, 1, 53, 0
4, 43414, Note_on_c, 1, 52, 64
4, 43435, Note_on_c, 1, 52, 0
4, 43436, Note_on_c, 1, 53, 64
4, 43457, Note_on_c, 1, 53, 0
4, 43458, Note_on_c, 1, 52, 64
4, 43479, Note_on_c, 1, 52, 0
4, 43480, Note_on_c, 1, 53, 64
4, 43501, Note_on_c, 1, 53, 0
4, 43502, Note_on_c, 1, 52, 64
4, 43523, Note_on_c, 1, 52, 0
4, 43524, Note_on_c, 1, 53, 64
4, 43544, Note_on_c, 1, 53, 0
4, 43545, Note_on_c, 1, 52, 64
4, 43565, Note_on_c, 1, 52, 0
4, 43566, Note_on_c, 1, 53, 64
4, 43586, Note_on_c, 1, 53, 0
4, 43587, Note_on_c, 1, 52, 64
4, 43607, Note_on_c, 1, 52, 0
4, 43608, Note_on_c, 1, 53, 64
4, 43628, Note_on_c, 1, 53, 0
4, 43629, Note_on_c, 1, 52, 64
4, 43649, Note_on_c, 1, 52, 0
4, 43650, Note_on_c, 1, 53, 64
4, 43670, Note_on_c, 1, 53, 0
4, 43671, Note_on_c, 1, 52, 64
4, 43691, Note_on_c, 1, 52, 0
4, 43692, Note_on_c, 1, 53, 64
4, 43712, Note_on_c, 1, 53, 0
4, 43713, Note_on_c, 1, 52, 64
4, 43733, Note_on_c, 1, 52, 0
4, 43734, Note_on_c, 1, 53, 64
4, 43754, Note_on_c, 1, 53, 0
4, 43755, Note_on_c, 1, 52, 64
4, 43775, Note_on_c, 1, 52, 0
4, 43776, Note_on_c, 1, 53, 64
4, 43821, Note_on_c, 1, 53, 0
4, 43824, Note_on_c, 1, 64, 64
4, 43869, Note_on_c, 1, 64, 0
4, 43872, Note_on_c, 1, 62, 64
4, 43917, Note_on_c, 1, 62, 0
4, 43920, Note_on_c, 1, 60, 64
4, 43965, Note_on_c, 1, 60, 0
4, 43968, Note_on_c, 1, 62, 64
4, 44013, Note_on_c, 1, 62, 0
4, 44016, Note_on_c, 1, 60, 64
4, 44061, Note_on_c, 1, 60, 0
4, 44064, Note_on_c, 1, 59, 64
4, 44109, Note_on_c, 1, 59, 0
4, 44112, Note_on_c, 1, 62, 64
4, 44157, Note_on_c, 1, 62, 0
4, 44160, Note_on_c, 1, 60, 64
4, 44205, Note_on_c, 1, 60, 0
4, 44208, Note_on_c, 1, 60, 65
4, 44253, Note_on_c, 1, 60, 0
4, 44256, Note_on_c, 1, 59, 66
4, 44301, Note_on_c, 1, 59, 0
4, 44304, Note_on_c, 1, 57, 67
4, 44349, Note_on_c, 1, 57, 0
4, 44352, Note_on_c, 1, 56, 68
4, 44397, Note_on_c, 1, 56, 0
4, 44400, Note_on_c, 1, 59, 69
4, 44445, Note_on_c, 1, 59, 0
4, 44448, Note_on_c, 1, 57, 70
4, 44493, Note_on_c, 1, 57, 0
4, 44496, Note_on_c, 1, 56, 71
4, 44541, Note_on_c, 1, 56, 0
4, 44544, Note_on_c, 1, 57, 72
4, 44589, Note_on_c, 1, 57, 0
4, 44592, Note_on_c, 1, 60, 73
4, 44637, Note_on_c, 1, 60, 0
4, 44640, Note_on_c, 1, 59, 74
4, 44685, Note_on_c, 1, 59, 0
4, 44688, Note_on_c, 1, 57, 75
4, 44733, Note_on_c, 1, 57, 0
4, 44736, Note_on_c, 1, 59, 76
4, 44781, Note_on_c, 1, 59, 0
4, 44784, Note_on_c, 1, 62, 77
4, 44829, Note_on_c, 1, 62, 0
4, 44832, Note_on_c, 1, 60, 78
4, 44877, Note_on_c, 1, 60, 0
4, 44880, Note_on_c, 1, 59, 79
4, 44925, Note_on_c, 1, 59, 0
4, 44928, Note_on_c, 1, 60, 80
4, 44928, Note_on_c, 1, 55, 80
4, 44928, Note_on_c, 1, 52, 80
4, 44928, Note_on_c, 1, 48, 80
4, 45105, Note_on_c, 1, 60, 0
4, 45105, Note_on_c, 1, 55, 0
4, 45105, Note_on_c, 1, 52, 0
4, 45105, Note_on_c, 1, 48, 0
4, 45312, Note_on_c, 1, 55, 80
4, 45312, Note_on_c, 1, 52, 80
4, 45312, Note_on_c, 1, 48, 80
4, 45489, Note_on_c, 1, 55, 0
4, 45489, Note_on_c, 1, 52, 0
4, 45489, Note_on_c, 1, 48, 0
4, 45696, Note_on_c, 1, 53, 80
4, 45696, Note_on_c, 1, 48, 80
4, 45696, Note_on_c, 1, 45, 80
4, 45873, Note_on_c, 1, 53, 0
4, 45873, Note_on_c, 1, 48, 0
4, 45873, Note_on_c, 1, 45, 0
4, 46080, Note_on_c, 1, 50, 80
4, 46080, Note_on_c, 1, 47, 80
4, 46080, Note_on_c, 1, 44, 80
4, 46257, Note_on_c, 1, 50, 0
4, 46257, Note_on_c, 1, 47, 0
4, 46257, Note_on_c, 1, 44, 0
4, 46464, Note_on_c, 1, 52, 80
4, 46464, Note_on_c, 1, 48, 80
4, 46464, Note_on_c, 1, 45, 80
4, 46641, Note_on_c, 1, 52, 0
4, 46641, Note_on_c, 1, 48, 0
4, 46641, Note_on_c, 1, 45, 0
4, 46848, Note_on_c, 1, 52, 80
4, 46848, Note_on_c, 1, 48, 80
4, 46848, Note_on_c, 1, 43, 80
4, 47025, Note_on_c, 1, 52, 0
4, 47025, Note_on_c, 1, 48, 0
4, 47025, Note_on_c, 1, 43, 0
4, 47232, Note_on_c, 1, 50, 80
4, 47232, Note_on_c, 1, 45, 80
4, 47232, Note_on_c, 1, 42, 80
4, 47409, Note_on_c, 1, 50, 0
4, 47409, Note_on_c, 1, 45, 0
4, 47409, Note_on_c, 1, 42, 0
4, 47616, Note_on_c, 1, 45, 80
4, 47616, Note_on_c, 1, 42, 80
4, 47616, Note_on_c, 1, 38, 80
4, 47793, Note_on_c, 1, 45, 0
4, 47793, Note_on_c, 1, 42, 0
4, 47793, Note_on_c, 1, 38, 0
4, 48000, Note_on_c, 1, 50, 80
4, 48000, Note_on_c, 1, 47, 80
4, 48000, Note_on_c, 1, 43, 80
4, 48177, Note_on_c, 1, 50, 0
4, 48177, Note_on_c, 1, 47, 0
4, 48177, Note_on_c, 1, 43, 0
4, 48384, Note_on_c, 1, 49, 80
4, 48738, Note_on_c, 1, 49, 0
4, 48768, Note_on_c, 1, 50, 80
4, 49033, Note_on_c, 1, 50, 0
4, 49152, Note_on_c, 1, 62, 80
4, 49191, Note_on_c, 1, 62, 0
4, 49248, Note_on_c, 1, 62, 96
4, 49344, Note_on_c, 1, 62, 0
4, 49344, Note_on_c, 1, 62, 80
4, 49383, Note_on_c, 1, 62, 0
4, 49440, Note_on_c, 1, 60, 96
4, 49536, Note_on_c, 1, 60, 0
4, 49536, Note_on_c, 1, 60, 80
4, 49575, Note_on_c, 1, 60, 0
4, 49632, Note_on_c, 1, 59, 96
4, 49726, Note_on_c, 1, 59, 0
4, 50112, Note_on_c, 1, 59, 80
4, 50151, Note_on_c, 1, 59, 0
4, 50208, Note_on_c, 1, 59, 96
4, 50304, Note_on_c, 1, 59, 0
4, 50304, Note_on_c, 1, 59, 80
4, 50393, Note_on_c, 1, 59, 0
4, 50400, Note_on_c, 1, 58, 96
4, 50494, Note_on_c, 1, 58, 0
4, 50688, Note_on_c, 1, 47, 75
4, 50727, Note_on_c, 1, 47, 0
4, 50784, Note_on_c, 1, 52, 75
4, 50829, Note_on_c, 1, 52, 0
4, 50832, Note_on_c, 1, 55, 75
4, 50877, Note_on_c, 1, 55, 0
4, 50880, Note_on_c, 1, 54, 75
4, 50925, Note_on_c, 1, 54, 0
4, 50928, Note_on_c, 1, 52, 75
4, 50973, Note_on_c, 1, 52, 0
4, 50976, Note_on_c, 1, 51, 75
4, 51021, Note_on_c, 1, 51, 0
4, 51024, Note_on_c, 1, 54, 75
4, 51069, Note_on_c, 1, 54, 0
4, 51072, Note_on_c, 1, 52, 75
4, 51117, Note_on_c, 1, 52, 0
4, 51120, Note_on_c, 1, 51, 75
4, 51165, Note_on_c, 1, 51, 0
4, 51168, Note_on_c, 1, 52, 75
4, 51257, Note_on_c, 1, 52, 0
4, 51264, Note_on_c, 1, 47, 75
4, 51353, Note_on_c, 1, 47, 0
4, 51456, Note_on_c, 1, 47, 75
4, 51495, Note_on_c, 1, 47, 0
4, 51552, Note_on_c, 1, 52, 75
4, 51591, Note_on_c, 1, 52, 0
4, 51648, Note_on_c, 1, 55, 75
4, 51687, Note_on_c, 1, 55, 0
4, 51744, Note_on_c, 1, 54, 75
4, 51783, Note_on_c, 1, 54, 0
4, 51840, Note_on_c, 1, 57, 75
4, 51879, Note_on_c, 1, 57, 0
4, 51936, Note_on_c, 1, 55, 75
4, 51981, Note_on_c, 1, 55, 0
4, 51984, Note_on_c, 1, 67, 75
4, 52029, Note_on_c, 1, 67, 0
4, 52032, Note_on_c, 1, 66, 75
4, 52077, Note_on_c, 1, 66, 0
4, 52080, Note_on_c, 1, 64, 75
4, 52125, Note_on_c, 1, 64, 0
4, 52128, Note_on_c, 1, 63, 75
4, 52217, Note_on_c, 1, 63, 0
4, 52224, Note_on_c, 1, 59, 75
4, 52313, Note_on_c, 1, 59, 0
4, 52320, Note_on_c, 1, 57, 70
4, 52359, Note_on_c, 1, 57, 0
4, 52416, Note_on_c, 1, 55, 70
4, 52455, Note_on_c, 1, 55, 0
4, 52512, Note_on_c, 1, 54, 70
4, 52551, Note_on_c, 1, 54, 0
4, 52608, Note_on_c, 1, 52, 70
4, 52647, Note_on_c, 1, 52, 0
4, 52704, Note_on_c, 1, 50, 70
4, 52891, Note_on_c, 1, 50, 0
4, 53088, Note_on_c, 1, 55, 70
4, 53127, Note_on_c, 1, 55, 0
4, 53184, Note_on_c, 1, 54, 70
4, 53223, Note_on_c, 1, 54, 0
4, 53280, Note_on_c, 1, 52, 70
4, 53319, Note_on_c, 1, 52, 0
4, 53376, Note_on_c, 1, 50, 70
4, 53415, Note_on_c, 1, 50, 0
4, 53472, Note_on_c, 1, 48, 70
4, 53659, Note_on_c, 1, 48, 0
4, 53856, Note_on_c, 1, 54, 70
4, 53895, Note_on_c, 1, 54, 0
4, 53952, Note_on_c, 1, 52, 70
4, 53991, Note_on_c, 1, 52, 0
4, 54048, Note_on_c, 1, 51, 70
4, 54087, Note_on_c, 1, 51, 0
4, 54144, Note_on_c, 1, 49, 70
4, 54183, Note_on_c, 1, 49, 0
4, 54240, Note_on_c, 1, 47, 70
4, 54245, Note_on_c, 1, 51, 70
4, 54250, Note_on_c, 1, 54, 70
4, 54255, Note_on_c, 1, 59, 70
4, 54428, Note_on_c, 1, 59, 0
4, 54428, Note_on_c, 1, 54, 0
4, 54428, Note_on_c, 1, 51, 0
4, 54428, Note_on_c, 1, 47, 0
4, 54480, Note_on_c, 1, 59, 70
4, 54525, Note_on_c, 1, 59, 0
4, 54528, Note_on_c, 1, 60, 70
4, 54573, Note_on_c, 1, 60, 0
4, 54576, Note_on_c, 1, 59, 70
4, 54621, Note_on_c, 1, 59, 0
4, 54624, Note_on_c, 1, 57, 70
4, 54669, Note_on_c, 1, 57, 0
4, 54672, Note_on_c, 1, 55, 70
4, 54717, Note_on_c, 1, 55, 0
4, 54720, Note_on_c, 1, 54, 70
4, 54765, Note_on_c, 1, 54, 0
4, 54768, Note_on_c, 1, 52, 70
4, 54813, Note_on_c, 1, 52, 0
4, 54816, Note_on_c, 1, 51, 70
4, 54861, Note_on_c, 1, 51, 0
4, 54864, Note_on_c, 1, 48, 70
4, 54909, Note_on_c, 1, 48, 0
4, 54912, Note_on_c, 1, 47, 70
4, 54957, Note_on_c, 1, 47, 0
4, 54960, Note_on_c, 1, 45, 70
4, 55005, Note_on_c, 1, 45, 0
4, 55008, Note_on_c, 1, 43, 70
4, 55028, Note_on_c, 1, 43, 0
4, 55056, Note_on_c, 1, 47, 70
4, 55101, Note_on_c, 1, 47, 0
4, 55104, Note_on_c, 1, 48, 70
4, 55149, Note_on_c, 1, 48, 0
4, 55152, Note_on_c, 1, 47, 70
4, 55197, Note_on_c, 1, 47, 0
4, 55200, Note_on_c, 1, 45, 71
4, 55245, Note_on_c, 1, 45, 0
4, 55248, Note_on_c, 1, 43, 71
4, 55293, Note_on_c, 1, 43, 0
4, 55296, Note_on_c, 1, 42, 71
4, 55341, Note_on_c, 1, 42, 0
4, 55344, Note_on_c, 1, 40, 72
4, 55389, Note_on_c, 1, 40, 0
4, 55392, Note_on_c, 1, 39, 72
4, 55412, Note_on_c, 1, 39, 0
4, 55440, Note_on_c, 1, 48, 72
4, 55485, Note_on_c, 1, 48, 0
4, 55488, Note_on_c, 1, 47, 73
4, 55533, Note_on_c, 1, 47, 0
4, 55536, Note_on_c, 1, 45, 73
4, 55581, Note_on_c, 1, 45, 0
4, 55584, Note_on_c, 1, 47, 73
4, 55623, Note_on_c, 1, 47, 0
4, 55680, Note_on_c, 1, 54, 90
4, 55680, Note_on_c, 1, 51, 90
4, 55680, Note_on_c, 1, 47, 90
4, 55719, Note_on_c, 1, 54, 0
4, 55719, Note_on_c, 1, 51, 0
4, 55719, Note_on_c, 1, 47, 0
4, 55776, Note_on_c, 1, 47, 75
4, 55776, Note_on_c, 1, 43, 75
4, 55776, Note_on_c, 1, 40, 75
4, 56041, Note_on_c, 1, 47, 0
4, 56041, Note_on_c, 1, 43, 0
4, 56041, Note_on_c, 1, 40, 0
4, 56160, Note_on_c, 1, 62, 75
4, 56160, Note_on_c, 1, 59, 75
4, 56160, Note_on_c, 1, 55, 75
4, 56337, Note_on_c, 1, 62, 0
4, 56337, Note_on_c, 1, 59, 0
4, 56337, Note_on_c, 1, 55, 0
4, 56544, Note_on_c, 1, 62, 75
4, 56544, Note_on_c, 1, 57, 75
4, 56544, Note_on_c, 1, 54, 75
4, 56721, Note_on_c, 1, 62, 0
4, 56721, Note_on_c, 1, 57, 0
4, 56721, Note_on_c, 1, 54, 0
4, 56928, Note_on_c, 1, 43, 75
4, 57017, Note_on_c, 1, 43, 0
4, 57024, Note_on_c, 1, 55, 75
4, 57113, Note_on_c, 1, 55, 0
4, 57168, Note_on_c, 1, 72, 75
4, 57213, Note_on_c, 1, 72, 0
4, 57216, Note_on_c, 1, 74, 75
4, 57261, Note_on_c, 1, 74, 0
4, 57264, Note_on_c, 1, 71, 75
4, 57309, Note_on_c, 1, 71, 0
4, 57312, Note_on_c, 1, 67, 75
4, 57357, Note_on_c, 1, 67, 0
4, 57360, Note_on_c, 1, 69, 75
4, 57405, Note_on_c, 1, 69, 0
4, 57408, Note_on_c, 1, 71, 75
4, 57453, Note_on_c, 1, 71, 0
4, 57456, Note_on_c, 1, 67, 75
4, 57501, Note_on_c, 1, 67, 0
4, 57504, Note_on_c, 1, 64, 75
4, 57549, Note_on_c, 1, 64, 0
4, 57552, Note_on_c, 1, 66, 75
4, 57597, Note_on_c, 1, 66, 0
4, 57600, Note_on_c, 1, 67, 75
4, 57645, Note_on_c, 1, 67, 0
4, 57648, Note_on_c, 1, 64, 75
4, 57693, Note_on_c, 1, 64, 0
4, 57696, Note_on_c, 1, 60, 75
4, 57873, Note_on_c, 1, 60, 0
4, 57936, Note_on_c, 1, 72, 75
4, 57959, Note_on_c, 1, 72, 0
4, 57960, Note_on_c, 1, 74, 75
4, 57983, Note_on_c, 1, 74, 0
4, 57984, Note_on_c, 1, 76, 75
4, 58029, Note_on_c, 1, 76, 0
4, 58032, Note_on_c, 1, 72, 75
4, 58077, Note_on_c, 1, 72, 0
4, 58080, Note_on_c, 1, 69, 75
4, 58125, Note_on_c, 1, 69, 0
4, 58128, Note_on_c, 1, 69, 75
4, 58151, Note_on_c, 1, 69, 0
4, 58152, Note_on_c, 1, 71, 75
4, 58175, Note_on_c, 1, 71, 0
4, 58176, Note_on_c, 1, 72, 75
4, 58221, Note_on_c, 1, 72, 0
4, 58224, Note_on_c, 1, 69, 75
4, 58269, Note_on_c, 1, 69, 0
4, 58272, Note_on_c, 1, 66, 75
4, 58317, Note_on_c, 1, 66, 0
4, 58320, Note_on_c, 1, 66, 75
4, 58343, Note_on_c, 1, 66, 0
4, 58344, Note_on_c, 1, 67, 75
4, 58367, Note_on_c, 1, 67, 0
4, 58368, Note_on_c, 1, 69, 75
4, 58413, Note_on_c, 1, 69, 0
4, 58416, Note_on_c, 1, 66, 75
4, 58461, Note_on_c, 1, 66, 0
4, 58464, Note_on_c, 1, 67, 75
4, 58553, Note_on_c, 1, 67, 0
4, 58560, Note_on_c, 1, 40, 75
4, 58649, Note_on_c, 1, 40, 0
4, 58752, Note_on_c, 1, 52, 75
4, 58791, Note_on_c, 1, 52, 0
4, 58848, Note_on_c, 1, 47, 75
4, 58887, Note_on_c, 1, 47, 0
4, 58944, Note_on_c, 1, 59, 75
4, 58983, Note_on_c, 1, 59, 0
4, 59136, Note_on_c, 1, 51, 75
4, 59175, Note_on_c, 1, 51, 0
4, 59232, Note_on_c, 1, 52, 75
4, 59271, Note_on_c, 1, 52, 0
4, 59328, Note_on_c, 1, 40, 75
4, 59367, Note_on_c, 1, 40, 0
4, 59520, Note_on_c, 1, 52, 75
4, 59559, Note_on_c, 1, 52, 0
4, 59616, Note_on_c, 1, 50, 75
4, 59655, Note_on_c, 1, 50, 0
4, 59712, Note_on_c, 1, 56, 75
4, 59751, Note_on_c, 1, 56, 0
4, 59904, Note_on_c, 1, 44, 75
4, 59943, Note_on_c, 1, 44, 0
4, 60000, Note_on_c, 1, 45, 75
4, 60039, Note_on_c, 1, 45, 0
4, 60096, Note_on_c, 1, 33, 75
4, 60135, Note_on_c, 1, 33, 0
4, 60288, Note_on_c, 1, 72, 75
4, 60327, Note_on_c, 1, 72, 0
4, 60384, Note_on_c, 1, 74, 75
4, 60423, Note_on_c, 1, 74, 0
4, 60480, Note_on_c, 1, 72, 75
4, 60519, Note_on_c, 1, 72, 0
4, 60576, Note_on_c, 1, 71, 75
4, 60615, Note_on_c, 1, 71, 0
4, 60672, Note_on_c, 1, 69, 75
4, 60711, Note_on_c, 1, 69, 0
4, 60768, Note_on_c, 1, 67, 75
4, 60807, Note_on_c, 1, 67, 0
4, 60864, Note_on_c, 1, 55, 75
4, 60903, Note_on_c, 1, 55, 0
4, 61152, Note_on_c, 1, 60, 75
4, 61191, Note_on_c, 1, 60, 0
4, 61248, Note_on_c, 1, 71, 75
4, 61287, Note_on_c, 1, 71, 0
4, 61344, Note_on_c, 1, 69, 75
4, 61383, Note_on_c, 1, 69, 0
4, 61440, Note_on_c, 1, 67, 75
4, 61479, Note_on_c, 1, 67, 0
4, 61536, Note_on_c, 1, 69, 75
4, 61575, Note_on_c, 1, 69, 0
4, 61632, Note_on_c, 1, 57, 75
4, 61671, Note_on_c, 1, 57, 0
4, 61824, Note_on_c, 1, 48, 75
4, 61913, Note_on_c, 1, 48, 0
4, 61920, Note_on_c, 1, 47, 75
4, 62193, Note_on_c, 1, 47, 0
4, 62688, Note_on_c, 1, 45, 75
4, 62711, Note_on_c, 1, 45, 0
4, 62712, Note_on_c, 1, 48, 75
4, 62735, Note_on_c, 1, 48, 0
4, 62736, Note_on_c, 1, 53, 75
4, 62759, Note_on_c, 1, 53, 0
4, 62760, Note_on_c, 1, 57, 75
4, 62783, Note_on_c, 1, 57, 0
4, 62784, Note_on_c, 1, 45, 75
4, 62873, Note_on_c, 1, 45, 0
4, 63072, Note_on_c, 1, 45, 75
4, 63095, Note_on_c, 1, 45, 0
4, 63096, Note_on_c, 1, 48, 75
4, 63119, Note_on_c, 1, 48, 0
4, 63120, Note_on_c, 1, 54, 75
4, 63143, Note_on_c, 1, 54, 0
4, 63144, Note_on_c, 1, 57, 75
4, 63167, Note_on_c, 1, 57, 0
4, 63168, Note_on_c, 1, 45, 75
4, 63257, Note_on_c, 1, 45, 0
4, 63456, Note_on_c, 1, 47, 75
4, 63479, Note_on_c, 1, 47, 0
4, 63480, Note_on_c, 1, 52, 75
4, 63503, Note_on_c, 1, 52, 0
4, 63504, Note_on_c, 1, 55, 75
4, 63527, Note_on_c, 1, 55, 0
4, 63528, Note_on_c, 1, 59, 75
4, 63551, Note_on_c, 1, 59, 0
4, 63552, Note_on_c, 1, 47, 75
4, 63641, Note_on_c, 1, 47, 0
4, 63840, Note_on_c, 1, 66, 64
4, 63840, Note_on_c, 1, 45, 64
4, 64077, Note_on_c, 1, 66, 0
4, 64077, Note_on_c, 1, 45, 0
4, 64128, Note_on_c, 1, 48, 80
4, 64128, Note_on_c, 1, 36, 80
4, 64167, Note_on_c, 1, 48, 0
4, 64167, Note_on_c, 1, 36, 0
4, 64224, Note_on_c, 1, 48, 96
4, 64224, Note_on_c, 1, 36, 96
4, 64320, Note_on_c, 1, 48, 0
4, 64320, Note_on_c, 1, 36, 0
4, 64320, Note_on_c, 1, 48, 80
4, 64320, Note_on_c, 1, 36, 80
4, 64359, Note_on_c, 1, 48, 0
4, 64359, Note_on_c, 1, 36, 0
4, 64416, Note_on_c, 1, 47, 96
4, 64416, Note_on_c, 1, 35, 96
4, 64512, Note_on_c, 1, 47, 0
4, 64512, Note_on_c, 1, 35, 0
4, 64512, Note_on_c, 1, 47, 80
4, 64512, Note_on_c, 1, 35, 80
4, 64551, Note_on_c, 1, 47, 0
4, 64551, Note_on_c, 1, 35, 0
4, 64608, Note_on_c, 1, 45, 96
4, 64608, Note_on_c, 1, 33, 96
4, 64800, Note_on_c, 1, 45, 0
4, 64800, Note_on_c, 1, 33, 0
4, 65088, Note_on_c, 1, 45, 70
4, 65127, Note_on_c, 1, 45, 0
4, 65184, Note_on_c, 1, 43, 86
4, 65280, Note_on_c, 1, 43, 0
4, 65280, Note_on_c, 1, 43, 70
4, 65319, Note_on_c, 1, 43, 0
4, 65376, Note_on_c, 1, 41, 86
4, 65563, Note_on_c, 1, 41, 0
4, 66144, Note_on_c, 1, 52, 70
4, 66233, Note_on_c, 1, 52, 0
4, 66240, Note_on_c, 1, 40, 70
4, 66329, Note_on_c, 1, 40, 0
4, 66432, Note_on_c, 1, 52, 70
4, 66521, Note_on_c, 1, 52, 0
4, 66528, Note_on_c, 1, 52, 70
4, 66617, Note_on_c, 1, 52, 0
4, 66624, Note_on_c, 1, 40, 70
4, 66713, Note_on_c, 1, 40, 0
4, 66816, Note_on_c, 1, 47, 64
4, 66905, Note_on_c, 1, 47, 0
4, 66912, Note_on_c, 1, 52, 64
4, 66960, Note_on_c, 1, 52, 0
4, 66960, Note_on_c, 1, 53, 63
4, 67005, Note_on_c, 1, 53, 0
4, 67008, Note_on_c, 1, 52, 63
4, 67056, Note_on_c, 1, 52, 0
4, 67056, Note_on_c, 1, 53, 62
4, 67101, Note_on_c, 1, 53, 0
4, 67104, Note_on_c, 1, 52, 62
4, 67152, Note_on_c, 1, 52, 0
4, 67152, Note_on_c, 1, 53, 61
4, 67197, Note_on_c, 1, 53, 0
4, 67200, Note_on_c, 1, 52, 61
4, 67248, Note_on_c, 1, 52, 0
4, 67248, Note_on_c, 1, 53, 60
4, 67293, Note_on_c, 1, 53, 0
4, 67296, Note_on_c, 1, 52, 60
4, 67385, Note_on_c, 1, 52, 0
4, 67392, Note_on_c, 1, 51, 59
4, 67488, Note_on_c, 1, 51, 0
4, 67488, Note_on_c, 1, 52, 58
4, 67533, Note_on_c, 1, 52, 0
4, 67680, Note_on_c, 1, 55, 64
4, 67719, Note_on_c, 1, 55, 0
4, 67776, Note_on_c, 1, 59, 64
4, 67815, Note_on_c, 1, 59, 0
4, 67872, Note_on_c, 1, 57, 64
4, 67961, Note_on_c, 1, 57, 0
4, 67968, Note_on_c, 1, 60, 64
4, 68057, Note_on_c, 1, 60, 0
4, 68064, Note_on_c, 1, 59, 64
4, 68241, Note_on_c, 1, 59, 0
4, 68352, Note_on_c, 1, 50, 70
4, 68391, Note_on_c, 1, 50, 0
4, 68448, Note_on_c, 1, 55, 70
4, 68493, Note_on_c, 1, 55, 0
4, 68496, Note_on_c, 1, 59, 70
4, 68541, Note_on_c, 1, 59, 0
4, 68544, Note_on_c, 1, 57, 70
4, 68589, Note_on_c, 1, 57, 0
4, 68592, Note_on_c, 1, 55, 70
4, 68637, Note_on_c, 1, 55, 0
4, 68640, Note_on_c, 1, 54, 70
4, 68685, Note_on_c, 1, 54, 0
4, 68688, Note_on_c, 1, 57, 70
4, 68733, Note_on_c, 1, 57, 0
4, 68736, Note_on_c, 1, 55, 70
4, 68781, Note_on_c, 1, 55, 0
4, 68784, Note_on_c, 1, 54, 70
4, 68829, Note_on_c, 1, 54, 0
4, 68832, Note_on_c, 1, 55, 70
4, 68877, Note_on_c, 1, 55, 0
4, 68880, Note_on_c, 1, 62, 70
4, 68925, Note_on_c, 1, 62, 0
4, 68928, Note_on_c, 1, 60, 70
4, 68973, Note_on_c, 1, 60, 0
4, 68976, Note_on_c, 1, 59, 70
4, 69021, Note_on_c, 1, 59, 0
4, 69024, Note_on_c, 1, 57, 70
4, 69069, Note_on_c, 1, 57, 0
4, 69072, Note_on_c, 1, 55, 71
4, 69117, Note_on_c, 1, 55, 0
4, 69120, Note_on_c, 1, 54, 72
4, 69165, Note_on_c, 1, 54, 0
4, 69168, Note_on_c, 1, 52, 73
4, 69213, Note_on_c, 1, 52, 0
4, 69216, Note_on_c, 1, 50, 75
4, 69255, Note_on_c, 1, 50, 0
4, 69312, Note_on_c, 1, 62, 75
4, 69351, Note_on_c, 1, 62, 0
4, 69408, Note_on_c, 1, 48, 75
4, 69447, Note_on_c, 1, 48, 0
4, 69504, Note_on_c, 1, 60, 75
4, 69543, Note_on_c, 1, 60, 0
4, 69600, Note_on_c, 1, 47, 75
4, 69639, Note_on_c, 1, 47, 0
4, 69696, Note_on_c, 1, 59, 75
4, 69735, Note_on_c, 1, 59, 0
4, 69792, Note_on_c, 1, 45, 75
4, 69831, Note_on_c, 1, 45, 0
4, 69888, Note_on_c, 1, 57, 75
4, 69927, Note_on_c, 1, 57, 0
4, 69984, Note_on_c, 1, 44, 91
4, 70176, Note_on_c, 1, 44, 0
4, 70176, Note_on_c, 1, 62, 64
4, 70188, Note_on_c, 1, 62, 0
4, 70188, Note_on_c, 1, 64, 64
4, 70200, Note_on_c, 1, 64, 0
4, 70200, Note_on_c, 1, 62, 64
4, 70221, Note_on_c, 1, 62, 0
4, 70224, Note_on_c, 1, 60, 64
4, 70269, Note_on_c, 1, 60, 0
4, 70272, Note_on_c, 1, 62, 64
4, 70361, Note_on_c, 1, 62, 0
4, 70368, Note_on_c, 1, 52, 96
4, 70368, Note_on_c, 1, 47, 96
4, 70368, Note_on_c, 1, 44, 96
4, 70368, Note_on_c, 1, 40, 96
4, 70648, Note_on_c, 1, 52, 0
4, 70648, Note_on_c, 1, 47, 0
4, 70648, Note_on_c, 1, 44, 0
4, 70648, Note_on_c, 1, 40, 0
4, 70752, Note_on_c, 1, 36, 91
4, 70944, Note_on_c, 1, 36, 0
4, 70944, Note_on_c, 1, 60, 70
4, 70956, Note_on_c, 1, 60, 0
4, 70956, Note_on_c, 1, 62, 70
4, 70968, Note_on_c, 1, 62, 0
4, 70968, Note_on_c, 1, 60, 70
4, 70989, Note_on_c, 1, 60, 0
4, 70992, Note_on_c, 1, 59, 70
4, 71037, Note_on_c, 1, 59, 0
4, 71040, Note_on_c, 1, 60, 70
4, 71129, Note_on_c, 1, 60, 0
4, 71136, Note_on_c, 1, 57, 96
4, 71136, Note_on_c, 1, 52, 96
4, 71136, Note_on_c, 1, 48, 96
4, 71136, Note_on_c, 1, 45, 96
4, 71416, Note_on_c, 1, 57, 0
4, 71416, Note_on_c, 1, 52, 0
4, 71416, Note_on_c, 1, 48, 0
4, 71416, Note_on_c, 1, 45, 0
4, 71520, Note_on_c, 1, 47, 96
4, 71540, Note_on_c, 1, 47, 0
4, 71568, Note_on_c, 1, 47, 70
4, 71591, Note_on_c, 1, 47, 0
4, 71592, Note_on_c, 1, 48, 70
4, 71615, Note_on_c, 1, 48, 0
4, 71616, Note_on_c, 1, 50, 70
4, 71636, Note_on_c, 1, 50, 0
4, 71664, Note_on_c, 1, 47, 71
4, 71684, Note_on_c, 1, 47, 0
4, 71712, Note_on_c, 1, 44, 88
4, 71732, Note_on_c, 1, 44, 0
4, 71760, Note_on_c, 1, 44, 72
4, 71783, Note_on_c, 1, 44, 0
4, 71784, Note_on_c, 1, 45, 73
4, 71807, Note_on_c, 1, 45, 0
4, 71808, Note_on_c, 1, 47, 73
4, 71828, Note_on_c, 1, 47, 0
4, 71856, Note_on_c, 1, 44, 74
4, 71876, Note_on_c, 1, 44, 0
4, 71904, Note_on_c, 1, 57, 90
4, 71924, Note_on_c, 1, 57, 0
4, 71952, Note_on_c, 1, 57, 75
4, 71975, Note_on_c, 1, 57, 0
4, 71976, Note_on_c, 1, 59, 75
4, 71999, Note_on_c, 1, 59, 0
4, 72000, Note_on_c, 1, 60, 76
4, 72020, Note_on_c, 1, 60, 0
4, 72048, Note_on_c, 1, 57, 76
4, 72068, Note_on_c, 1, 57, 0
4, 72096, Note_on_c, 1, 53, 93
4, 72116, Note_on_c, 1, 53, 0
4, 72144, Note_on_c, 1, 53, 78
4, 72167, Note_on_c, 1, 53, 0
4, 72168, Note_on_c, 1, 55, 78
4, 72191, Note_on_c, 1, 55, 0
4, 72192, Note_on_c, 1, 57, 78
4, 72212, Note_on_c, 1, 57, 0
4, 72240, Note_on_c, 1, 53, 79
4, 72260, Note_on_c, 1, 53, 0
4, 72288, Note_on_c, 1, 34, 80
4, 72311, Note_on_c, 1, 34, 0
4, 72312, Note_on_c, 1, 38, 80
4, 72335, Note_on_c, 1, 38, 0
4, 72336, Note_on_c, 1, 41, 80
4, 72359, Note_on_c, 1, 41, 0
4, 72360, Note_on_c, 1, 46, 80
4, 72383, Note_on_c, 1, 46, 0
4, 72384, Note_on_c, 1, 34, 80
4, 72473, Note_on_c, 1, 34, 0
4, 72672, Note_on_c, 1, 35, 80
4, 72695, Note_on_c, 1, 35, 0
4, 72696, Note_on_c, 1, 38, 80
4, 72719, Note_on_c, 1, 38, 0
4, 72720, Note_on_c, 1, 41, 80
4, 72743, Note_on_c, 1, 41, 0
4, 72744, Note_on_c, 1, 44, 80
4, 72767, Note_on_c, 1, 44, 0
4, 72768, Note_on_c, 1, 35, 86
4, 72813, Note_on_c, 1, 35, 0
4, 72816, Note_on_c, 1, 35, 86
4, 72839, Note_on_c, 1, 35, 0
4, 72840, Note_on_c, 1, 36, 86
4, 72863, Note_on_c, 1, 36, 0
4, 72864, Note_on_c, 1, 38, 86
4, 72884, Note_on_c, 1, 38, 0
4, 72912, Note_on_c, 1, 38, 86
4, 72935, Note_on_c, 1, 38, 0
4, 72936, Note_on_c, 1, 40, 86
4, 72959, Note_on_c, 1, 40, 0
4, 72960, Note_on_c, 1, 41, 86
4, 72980, Note_on_c, 1, 41, 0
4, 73008, Note_on_c, 1, 38, 86
4, 73028, Note_on_c, 1, 38, 0
4, 73056, Note_on_c, 1, 36, 80
4, 73079, Note_on_c, 1, 36, 0
4, 73080, Note_on_c, 1, 40, 80
4, 73103, Note_on_c, 1, 40, 0
4, 73104, Note_on_c, 1, 45, 80
4, 73127, Note_on_c, 1, 45, 0
4, 73128, Note_on_c, 1, 48, 80
4, 73151, Note_on_c, 1, 48, 0
4, 73152, Note_on_c, 1, 36, 80
4, 73241, Note_on_c, 1, 36, 0
4, 73440, Note_on_c, 1, 39, 80
4, 73463, Note_on_c, 1, 39, 0
4, 73464, Note_on_c, 1, 43, 80
4, 73487, Note_on_c, 1, 43, 0
4, 73488, Note_on_c, 1, 46, 80
4, 73511, Note_on_c, 1, 46, 0
4, 73512, Note_on_c, 1, 49, 80
4, 73535, Note_on_c, 1, 49, 0
4, 73536, Note_on_c, 1, 39, 80
4, 73625, Note_on_c, 1, 39, 0
4, 73824, Note_on_c, 1, 50, 80
4, 73824, Note_on_c, 1, 45, 80
4, 73824, Note_on_c, 1, 42, 80
4, 73824, Note_on_c, 1, 38, 80
4, 74001, Note_on_c, 1, 50, 0
4, 74001, Note_on_c, 1, 45, 0
4, 74001, Note_on_c, 1, 42, 0
4, 74001, Note_on_c, 1, 38, 0
4, 74496, Note_on_c, 1, 50, 75
4, 74535, Note_on_c, 1, 50, 0
4, 74592, Note_on_c, 1, 55, 75
4, 74637, Note_on_c, 1, 55, 0
4, 74640, Note_on_c, 1, 58, 75
4, 74685, Note_on_c, 1, 58, 0
4, 74688, Note_on_c, 1, 57, 76
4, 74733, Note_on_c, 1, 57, 0
4, 74736, Note_on_c, 1, 55, 76
4, 74781, Note_on_c, 1, 55, 0
4, 74784, Note_on_c, 1, 54, 77
4, 74829, Note_on_c, 1, 54, 0
4, 74832, Note_on_c, 1, 57, 78
4, 74877, Note_on_c, 1, 57, 0
4, 74880, Note_on_c, 1, 55, 78
4, 74925, Note_on_c, 1, 55, 0
4, 74928, Note_on_c, 1, 54, 79
4, 74973, Note_on_c, 1, 54, 0
4, 74976, Note_on_c, 1, 58, 80
4, 75021, Note_on_c, 1, 58, 0
4, 75024, Note_on_c, 1, 62, 79
4, 75069, Note_on_c, 1, 62, 0
4, 75072, Note_on_c, 1, 60, 78
4, 75117, Note_on_c, 1, 60, 0
4, 75120, Note_on_c, 1, 58, 78
4, 75165, Note_on_c, 1, 58, 0
4, 75168, Note_on_c, 1, 57, 77
4, 75213, Note_on_c, 1, 57, 0
4, 75216, Note_on_c, 1, 55, 76
4, 75261, Note_on_c, 1, 55, 0
4, 75264, Note_on_c, 1, 54, 76
4, 75309, Note_on_c, 1, 54, 0
4, 75312, Note_on_c, 1, 57, 75
4, 75357, Note_on_c, 1, 57, 0
4, 75360, Note_on_c, 1, 60, 75
4, 75405, Note_on_c, 1, 60, 0
4, 75408, Note_on_c, 1, 58, 75
4, 75453, Note_on_c, 1, 58, 0
4, 75456, Note_on_c, 1, 57, 75
4, 75501, Note_on_c, 1, 57, 0
4, 75504, Note_on_c, 1, 55, 75
4, 75549, Note_on_c, 1, 55, 0
4, 75552, Note_on_c, 1, 58, 75
4, 75597, Note_on_c, 1, 58, 0
4, 75600, Note_on_c, 1, 57, 75
4, 75645, Note_on_c, 1, 57, 0
4, 75648, Note_on_c, 1, 55, 75
4, 75693, Note_on_c, 1, 55, 0
4, 75696, Note_on_c, 1, 54, 75
4, 75741, Note_on_c, 1, 54, 0
4, 75744, Note_on_c, 1, 51, 75
4, 75789, Note_on_c, 1, 51, 0
4, 75792, Note_on_c, 1, 62, 75
4, 75837, Note_on_c, 1, 62, 0
4, 75840, Note_on_c, 1, 60, 76
4, 75885, Note_on_c, 1, 60, 0
4, 75888, Note_on_c, 1, 58, 76
4, 75933, Note_on_c, 1, 58, 0
4, 75936, Note_on_c, 1, 57, 77
4, 75981, Note_on_c, 1, 57, 0
4, 75984, Note_on_c, 1, 55, 78
4, 76029, Note_on_c, 1, 55, 0
4, 76032, Note_on_c, 1, 54, 78
4, 76077, Note_on_c, 1, 54, 0
4, 76080, Note_on_c, 1, 51, 79
4, 76125, Note_on_c, 1, 51, 0
4, 76128, Note_on_c, 1, 41, 80
4, 76151, Note_on_c, 1, 41, 0
4, 76152, Note_on_c, 1, 47, 80
4, 76175, Note_on_c, 1, 47, 0
4, 76176, Note_on_c, 1, 50, 80
4, 76199, Note_on_c, 1, 50, 0
4, 76200, Note_on_c, 1, 53, 80
4, 76223, Note_on_c, 1, 53, 0
4, 76224, Note_on_c, 1, 41, 80
4, 76313, Note_on_c, 1, 41, 0
4, 76512, Note_on_c, 1, 40, 80
4, 76535, Note_on_c, 1, 40, 0
4, 76536, Note_on_c, 1, 43, 80
4, 76559, Note_on_c, 1, 43, 0
4, 76560, Note_on_c, 1, 48, 80
4, 76583, Note_on_c, 1, 48, 0
4, 76584, Note_on_c, 1, 52, 80
4, 76607, Note_on_c, 1, 52, 0
4, 76608, Note_on_c, 1, 40, 80
4, 76697, Note_on_c, 1, 40, 0
4, 76896, Note_on_c, 1, 41, 82
4, 76919, Note_on_c, 1, 41, 0
4, 76920, Note_on_c, 1, 45, 82
4, 76943, Note_on_c, 1, 45, 0
4, 76944, Note_on_c, 1, 50, 82
4, 76967, Note_on_c, 1, 50, 0
4, 76968, Note_on_c, 1, 53, 82
4, 76991, Note_on_c, 1, 53, 0
4, 76992, Note_on_c, 1, 41, 82
4, 77081, Note_on_c, 1, 41, 0
4, 77280, Note_on_c, 1, 41, 84
4, 77303, Note_on_c, 1, 41, 0
4, 77304, Note_on_c, 1, 45, 84
4, 77327, Note_on_c, 1, 45, 0
4, 77328, Note_on_c, 1, 48, 84
4, 77351, Note_on_c, 1, 48, 0
4, 77352, Note_on_c, 1, 51, 84
4, 77375, Note_on_c, 1, 51, 0
4, 77376, Note_on_c, 1, 41, 84
4, 77465, Note_on_c, 1, 41, 0
4, 77664, Note_on_c, 1, 52, 96
4, 77712, Note_on_c, 1, 52, 0
4, 77712, Note_on_c, 1, 40, 79
4, 77757, Note_on_c, 1, 40, 0
4, 77760, Note_on_c, 1, 52, 78
4, 77805, Note_on_c, 1, 52, 0
4, 77808, Note_on_c, 1, 52, 77
4, 77853, Note_on_c, 1, 52, 0
4, 77856, Note_on_c, 1, 52, 76
4, 77901, Note_on_c, 1, 52, 0
4, 77904, Note_on_c, 1, 40, 75
4, 77949, Note_on_c, 1, 40, 0
4, 77952, Note_on_c, 1, 52, 74
4, 77997, Note_on_c, 1, 52, 0
4, 78000, Note_on_c, 1, 52, 73
4, 78045, Note_on_c, 1, 52, 0
4, 78048, Note_on_c, 1, 52, 72
4, 78093, Note_on_c, 1, 52, 0
4, 78096, Note_on_c, 1, 40, 71
4, 78141, Note_on_c, 1, 40, 0
4, 78144, Note_on_c, 1, 52, 70
4, 78189, Note_on_c, 1, 52, 0
4, 78192, Note_on_c, 1, 52, 69
4, 78237, Note_on_c, 1, 52, 0
4, 78240, Note_on_c, 1, 52, 68
4, 78285, Note_on_c, 1, 52, 0
4, 78288, Note_on_c, 1, 40, 67
4, 78333, Note_on_c, 1, 40, 0
4, 78336, Note_on_c, 1, 52, 66
4, 78381, Note_on_c, 1, 52, 0
4, 78384, Note_on_c, 1, 52, 65
4, 78429, Note_on_c, 1, 52, 0
4, 78432, Note_on_c, 1, 53, 64
4, 78453, Note_on_c, 1, 53, 0
4, 78454, Note_on_c, 1, 52, 64
4, 78475, Note_on_c, 1, 52, 0
4, 78476, Note_on_c, 1, 53, 64
4, 78497, Note_on_c, 1, 53, 0
4, 78498, Note_on_c, 1, 52, 64
4, 78519, Note_on_c, 1, 52, 0
4, 78520, Note_on_c, 1, 53, 64
4, 78541, Note_on_c, 1, 53, 0
4, 78542, Note_on_c, 1, 52, 64
4, 78563, Note_on_c, 1, 52, 0
4, 78564, Note_on_c, 1, 53, 64
4, 78584, Note_on_c, 1, 53, 0
4, 78585, Note_on_c, 1, 52, 64
4, 78605, Note_on_c, 1, 52, 0
4, 78606, Note_on_c, 1, 53, 64
4, 78626, Note_on_c, 1, 53, 0
4, 78627, Note_on_c, 1, 52, 64
4, 78647, Note_on_c, 1, 52, 0
4, 78648, Note_on_c, 1, 53, 64
4, 78668, Note_on_c, 1, 53, 0
4, 78669, Note_on_c, 1, 52, 64
4, 78689, Note_on_c, 1, 52, 0
4, 78690, Note_on_c, 1, 53, 64
4, 78710, Note_on_c, 1, 53, 0
4, 78711, Note_on_c, 1, 52, 64
4, 78731, Note_on_c, 1, 52, 0
4, 78732, Note_on_c, 1, 53, 64
4, 78752, Note_on_c, 1, 53, 0
4, 78753, Note_on_c, 1, 52, 64
4, 78773, Note_on_c, 1, 52, 0
4, 78774, Note_on_c, 1, 53, 64
4, 78794, Note_on_c, 1, 53, 0
4, 78795, Note_on_c, 1, 52, 64
4, 78815, Note_on_c, 1, 52, 0
4, 78816, Note_on_c, 1, 53, 64
4, 78861, Note_on_c, 1, 53, 0
4, 78864, Note_on_c, 1, 64, 64
4, 78909, Note_on_c, 1, 64, 0
4, 78912, Note_on_c, 1, 62, 64
4, 78957, Note_on_c, 1, 62, 0
4, 78960, Note_on_c, 1, 60, 64
4, 79005, Note_on_c, 1, 60, 0
4, 79008, Note_on_c, 1, 62, 64
4, 79053, Note_on_c, 1, 62, 0
4, 79056, Note_on_c, 1, 60, 64
4, 79101, Note_on_c, 1, 60, 0
4, 79104, Note_on_c, 1, 59, 64
4, 79149, Note_on_c, 1, 59, 0
4, 79152, Note_on_c, 1, 62, 64
4, 79197, Note_on_c, 1, 62, 0
4, 79200, Note_on_c, 1, 60, 64
4, 79245, Note_on_c, 1, 60, 0
4, 79248, Note_on_c, 1, 60, 65
4, 79293, Note_on_c, 1, 60, 0
4, 79296, Note_on_c, 1, 59, 66
4, 79341, Note_on_c, 1, 59, 0
4, 79344, Note_on_c, 1, 57, 67
4, 79389, Note_on_c, 1, 57, 0
4, 79392, Note_on_c, 1, 56, 68
4, 79437, Note_on_c, 1, 56, 0
4, 79440, Note_on_c, 1, 59, 69
4, 79485, Note_on_c, 1, 59, 0
4, 79488, Note_on_c, 1, 57, 70
4, 79533, Note_on_c, 1, 57, 0
4, 79536, Note_on_c, 1, 56, 71
4, 79581, Note_on_c, 1, 56, 0
4, 79584, Note_on_c, 1, 57, 72
4, 79629, Note_on_c, 1, 57, 0
4, 79632, Note_on_c, 1, 60, 73
4, 79677, Note_on_c, 1, 60, 0
4, 79680, Note_on_c, 1, 59, 74
4, 79725, Note_on_c, 1, 59, 0
4, 79728, Note_on_c, 1, 57, 75
4, 79773, Note_on_c, 1, 57, 0
4, 79776, Note_on_c, 1, 59, 76
4, 79821, Note_on_c, 1, 59, 0
4, 79824, Note_on_c, 1, 62, 77
4, 79869, Note_on_c, 1, 62, 0
4, 79872, Note_on_c, 1, 60, 78
4, 79917, Note_on_c, 1, 60, 0
4, 79920, Note_on_c, 1, 59, 79
4, 79965, Note_on_c, 1, 59, 0
4, 79968, Note_on_c, 1, 60, 80
4, 79968, Note_on_c, 1, 55, 80
4, 79968, Note_on_c, 1, 52, 80
4, 79968, Note_on_c, 1, 48, 80
4, 80145, Note_on_c, 1, 60, 0
4, 80145, Note_on_c, 1, 55, 0
4, 80145, Note_on_c, 1, 52, 0
4, 80145, Note_on_c, 1, 48, 0
4, 80352, Note_on_c, 1, 55, 80
4, 80352, Note_on_c, 1, 52, 80
4, 80352, Note_on_c, 1, 48, 80
4, 80529, Note_on_c, 1, 55, 0
4, 80529, Note_on_c, 1, 52, 0
4, 80529, Note_on_c, 1, 48, 0
4, 80736, Note_on_c, 1, 53, 80
4, 80736, Note_on_c, 1, 48, 80
4, 80736, Note_on_c, 1, 45, 80
4, 80913, Note_on_c, 1, 53, 0
4, 80913, Note_on_c, 1, 48, 0
4, 80913, Note_on_c, 1, 45, 0
4, 81120, Note_on_c, 1, 50, 80
4, 81120, Note_on_c, 1, 47, 80
4, 81120, Note_on_c, 1, 44, 80
4, 81297, Note_on_c, 1, 50, 0
4, 81297, Note_on_c, 1, 47, 0
4, 81297, Note_on_c, 1, 44, 0
4, 81504, Note_on_c, 1, 52, 80
4, 81504, Note_on_c, 1, 48, 80
4, 81504, Note_on_c, 1, 45, 80
4, 81681, Note_on_c, 1, 52, 0
4, 81681, Note_on_c, 1, 48, 0
4, 81681, Note_on_c, 1, 45, 0
4, 81888, Note_on_c, 1, 52, 80
4, 81888, Note_on_c, 1, 48, 80
4, 81888, Note_on_c, 1, 43, 80
4, 82065, Note_on_c, 1, 52, 0
4, 82065, Note_on_c, 1, 48, 0
4, 82065, Note_on_c, 1, 43, 0
4, 82272, Note_on_c, 1, 50, 80
4, 82272, Note_on_c, 1, 45, 80
4, 82272, Note_on_c, 1, 42, 80
4, 82449, Note_on_c, 1, 50, 0
4, 82449, Note_on_c, 1, 45, 0
4, 82449, Note_on_c, 1, 42, 0
4, 82656, Note_on_c, 1, 45, 80
4, 82656, Note_on_c, 1, 42, 80
4, 82656, Note_on_c, 1, 38, 80
4, 82833, Note_on_c, 1, 45, 0
4, 82833, Note_on_c, 1, 42, 0
4, 82833, Note_on_c, 1, 38, 0
4, 83040, Note_on_c, 1, 50, 80
4, 83040, Note_on_c, 1, 47, 80
4, 83040, Note_on_c, 1, 43, 80
4, 83217, Note_on_c, 1, 50, 0
4, 83217, Note_on_c, 1, 47, 0
4, 83217, Note_on_c, 1, 43, 0
4, 83424, Note_on_c, 1, 49, 80
4, 83778, Note_on_c, 1, 49, 0
4, 83808, Note_on_c, 1, 50, 80
4, 84073, Note_on_c, 1, 50, 0
4, 84192, Note_on_c, 1, 62, 80
4, 84231, Note_on_c, 1, 62, 0
4, 84288, Note_on_c, 1, 62, 96
4, 84384, Note_on_c, 1, 62, 0
4, 84384, Note_on_c, 1, 62, 80
4, 84423, Note_on_c, 1, 62, 0
4, 84480, Note_on_c, 1, 60, 96
4, 84576, Note_on_c, 1, 60, 0
4, 84576, Note_on_c, 1, 60, 80
4, 84615, Note_on_c, 1, 60, 0
4, 84672, Note_on_c, 1, 59, 96
4, 84766, Note_on_c, 1, 59, 0
4, 85152, Note_on_c, 1, 59, 80
4, 85191, Note_on_c, 1, 59, 0
4, 85248, Note_on_c, 1, 59, 96
4, 85344, Note_on_c, 1, 59, 0
4, 85344, Note_on_c, 1, 59, 80
4, 85433, Note_on_c, 1, 59, 0
4, 85440, Note_on_c, 1, 58, 96
4, 85534, Note_on_c, 1, 58, 0
4, 85728, Note_on_c, 1, 47, 75
4, 85767, Note_on_c, 1, 47, 0
4, 85824, Note_on_c, 1, 52, 75
4, 85869, Note_on_c, 1, 52, 0
4, 85872, Note_on_c, 1, 55, 75
4, 85917, Note_on_c, 1, 55, 0
4, 85920, Note_on_c, 1, 54, 75
4, 85965, Note_on_c, 1, 54, 0
4, 85968, Note_on_c, 1, 52, 75
4, 86013, Note_on_c, 1, 52, 0
4, 86016, Note_on_c, 1, 51, 75
4, 86061, Note_on_c, 1, 51, 0
4, 86064, Note_on_c, 1, 54, 75
4, 86109, Note_on_c, 1, 54, 0
4, 86112, Note_on_c, 1, 52, 75
4, 86157, Note_on_c, 1, 52, 0
4, 86160, Note_on_c, 1, 51, 75
4, 86205, Note_on_c, 1, 51, 0
4, 86208, Note_on_c, 1, 52, 75
4, 86297, Note_on_c, 1, 52, 0
4, 86304, Note_on_c, 1, 47, 75
4, 86393, Note_on_c, 1, 47, 0
4, 86496, Note_on_c, 1, 47, 75
4, 86535, Note_on_c, 1, 47, 0
4, 86592, Note_on_c, 1, 52, 75
4, 86631, Note_on_c, 1, 52, 0
4, 86688, Note_on_c, 1, 55, 75
4, 86727, Note_on_c, 1, 55, 0
4, 86784, Note_on_c, 1, 54, 75
4, 86823, Note_on_c, 1, 54, 0
4, 86880, Note_on_c, 1, 57, 75
4, 86919, Note_on_c, 1, 57, 0
4, 86976, Note_on_c, 1, 55, 75
4, 87021, Note_on_c, 1, 55, 0
4, 87024, Note_on_c, 1, 67, 75
4, 87069, Note_on_c, 1, 67, 0
4, 87072, Note_on_c, 1, 66, 75
4, 87117, Note_on_c, 1, 66, 0
4, 87120, Note_on_c, 1, 64, 75
4, 87165, Note_on_c, 1, 64, 0
4, 87168, Note_on_c, 1, 63, 75
4, 87257, Note_on_c, 1, 63, 0
4, 87264, Note_on_c, 1, 59, 75
4, 87353, Note_on_c, 1, 59, 0
4, 87360, Note_on_c, 1, 57, 70
4, 87399, Note_on_c, 1, 57, 0
4, 87456, Note_on_c, 1, 55, 70
4, 87495, Note_on_c, 1, 55, 0
4, 87552, Note_on_c, 1, 54, 70
4, 87591, Note_on_c, 1, 54, 0
4, 87648, Note_on_c, 1, 52, 70
4, 87687, Note_on_c, 1, 52, 0
4, 87744, Note_on_c, 1, 50, 70
4, 87931, Note_on_c, 1, 50, 0
4, 88128, Note_on_c, 1, 55, 70
4, 88167, Note_on_c, 1, 55, 0
4, 88224, Note_on_c, 1, 54, 70
4, 88263, Note_on_c, 1, 54, 0
4, 88320, Note_on_c, 1, 52, 70
4, 88359, Note_on_c, 1, 52, 0
4, 88416, Note_on_c, 1, 50, 70
4, 88455, Note_on_c, 1, 50, 0
4, 88512, Note_on_c, 1, 48, 70
4, 88699, Note_on_c, 1, 48, 0
4, 88896, Note_on_c, 1, 54, 70
4, 88935, Note_on_c, 1, 54, 0
4, 88992, Note_on_c, 1, 52, 70
4, 89031, Note_on_c, 1, 52, 0
4, 89088, Note_on_c, 1, 51, 70
4, 89127, Note_on_c, 1, 51, 0
4, 89184, Note_on_c, 1, 49, 70
4, 89223, Note_on_c, 1, 49, 0
4, 89280, Note_on_c, 1, 47, 70
4, 89285, Note_on_c, 1, 51, 70
4, 89290, Note_on_c, 1, 54, 70
4, 89295, Note_on_c, 1, 59, 70
4, 89468, Note_on_c, 1, 59, 0
4, 89468, Note_on_c, 1, 54, 0
4, 89468, Note_on_c, 1, 51, 0
4, 89468, Note_on_c, 1, 47, 0
4, 89520, Note_on_c, 1, 59, 70
4, 89565, Note_on_c, 1, 59, 0
4, 89568, Note_on_c, 1, 60, 70
4, 89613, Note_on_c, 1, 60, 0
4, 89616, Note_on_c, 1, 59, 70
4, 89661, Note_on_c, 1, 59, 0
4, 89664, Note_on_c, 1, 57, 70
4, 89709, Note_on_c, 1, 57, 0
4, 89712, Note_on_c, 1, 55, 70
4, 89757, Note_on_c, 1, 55, 0
4, 89760, Note_on_c, 1, 54, 70
4, 89805, Note_on_c, 1, 54, 0
4, 89808, Note_on_c, 1, 52, 70
4, 89853, Note_on_c, 1, 52, 0
4, 89856, Note_on_c, 1, 51, 70
4, 89901, Note_on_c, 1, 51, 0
4, 89904, Note_on_c, 1, 48, 70
4, 89949, Note_on_c, 1, 48, 0
4, 89952, Note_on_c, 1, 47, 70
4, 89997, Note_on_c, 1, 47, 0
4, 90000, Note_on_c, 1, 45, 70
4, 90045, Note_on_c, 1, 45, 0
4, 90048, Note_on_c, 1, 43, 70
4, 90068, Note_on_c, 1, 43, 0
4, 90096, Note_on_c, 1, 47, 70
4, 90141, Note_on_c, 1, 47, 0
4, 90144, Note_on_c, 1, 48, 70
4, 90189, Note_on_c, 1, 48, 0
4, 90192, Note_on_c, 1, 47, 70
4, 90237, Note_on_c, 1, 47, 0
4, 90240, Note_on_c, 1, 45, 71
4, 90285, Note_on_c, 1, 45, 0
4, 90288, Note_on_c, 1, 43, 71
4, 90333, Note_on_c, 1, 43, 0
4, 90336, Note_on_c, 1, 42, 71
4, 90381, Note_on_c, 1, 42, 0
4, 90384, Note_on_c, 1, 40, 72
4, 90429, Note_on_c, 1, 40, 0
4, 90432, Note_on_c, 1, 39, 72
4, 90452, Note_on_c, 1, 39, 0
4, 90480, Note_on_c, 1, 48, 72
4, 90525, Note_on_c, 1, 48, 0
4, 90528, Note_on_c, 1, 47, 73
4, 90573, Note_on_c, 1, 47, 0
4, 90576, Note_on_c, 1, 45, 73
4, 90621, Note_on_c, 1, 45, 0
4, 90624, Note_on_c, 1, 47, 73
4, 90663, Note_on_c, 1, 47, 0
4, 90720, Note_on_c, 1, 54, 90
4, 90720, Note_on_c, 1, 51, 90
4, 90720, Note_on_c, 1, 47, 90
4, 90759, Note_on_c, 1, 54, 0
4, 90759, Note_on_c, 1, 51, 0
4, 90759, Note_on_c, 1, 47, 0
4, 90816, Note_on_c, 1, 47, 75
4, 90816, Note_on_c, 1, 43, 75
4, 90816, Note_on_c, 1, 40, 75
4, 91081, Note_on_c, 1, 47, 0
4, 91081, Note_on_c, 1, 43, 0
4, 91081, Note_on_c, 1, 40, 0
4, 91200, Note_on_c, 1, 62, 75
4, 91200, Note_on_c, 1, 59, 75
4, 91200, Note_on_c, 1, 55, 75
4, 91377, Note_on_c, 1, 62, 0
4, 91377, Note_on_c, 1, 59, 0
4, 91377, Note_on_c, 1, 55, 0
4, 91584, Note_on_c, 1, 62, 75
4, 91584, Note_on_c, 1, 57, 75
4, 91584, Note_on_c, 1, 54, 75
4, 91761, Note_on_c, 1, 62, 0
4, 91761, Note_on_c, 1, 57, 0
4, 91761, Note_on_c, 1, 54, 0
4, 91968, Note_on_c, 1, 43, 75
4, 92057, Note_on_c, 1, 43, 0
4, 92064, Note_on_c, 1, 55, 75
4, 92153, Note_on_c, 1, 55, 0
4, 92208, Note_on_c, 1, 72, 75
4, 92253, Note_on_c, 1, 72, 0
4, 92256, Note_on_c, 1, 74, 75
4, 92301, Note_on_c, 1, 74, 0
4, 92304, Note_on_c, 1, 71, 75
4, 92349, Note_on_c, 1, 71, 0
4, 92352, Note_on_c, 1, 67, 75
4, 92397, Note_on_c, 1, 67, 0
4, 92400, Note_on_c, 1, 69, 75
4, 92445, Note_on_c, 1, 69, 0
4, 92448, Note_on_c, 1, 71, 75
4, 92493, Note_on_c, 1, 71, 0
4, 92496, Note_on_c, 1, 67, 75
4, 92541, Note_on_c, 1, 67, 0
4, 92544, Note_on_c, 1, 64, 75
4, 92589, Note_on_c, 1, 64, 0
4, 92592, Note_on_c, 1, 66, 75
4, 92637, Note_on_c, 1, 66, 0
4, 92640, Note_on_c, 1, 67, 75
4, 92685, Note_on_c, 1, 67, 0
4, 92688, Note_on_c, 1, 64, 75
4, 92733, Note_on_c, 1, 64, 0
4, 92736, Note_on_c, 1, 60, 75
4, 92913, Note_on_c, 1, 60, 0
4, 92976, Note_on_c, 1, 72, 75
4, 92999, Note_on_c, 1, 72, 0
4, 93000, Note_on_c, 1, 74, 75
4, 93023, Note_on_c, 1, 74, 0
4, 93024, Note_on_c, 1, 76, 75
4, 93069, Note_on_c, 1, 76, 0
4, 93072, Note_on_c, 1, 72, 75
4, 93117, Note_on_c, 1, 72, 0
4, 93120, Note_on_c, 1, 69, 75
4, 93165, Note_on_c, 1, 69, 0
4, 93168, Note_on_c, 1, 69, 75
4, 93191, Note_on_c, 1, 69, 0
4, 93192, Note_on_c, 1, 71, 75
4, 93215, Note_on_c, 1, 71, 0
4, 93216, Note_on_c, 1, 72, 75
4, 93261, Note_on_c, 1, 72, 0
4, 93264, Note_on_c, 1, 69, 75
4, 93309, Note_on_c, 1, 69, 0
4, 93312, Note_on_c, 1, 66, 75
4, 93357, Note_on_c, 1, 66, 0
4, 93360, Note_on_c, 1, 66, 75
4, 93383, Note_on_c, 1, 66, 0
4, 93384, Note_on_c, 1, 67, 75
4, 93407, Note_on_c, 1, 67, 0
4, 93408, Note_on_c, 1, 69, 75
4, 93453, Note_on_c, 1, 69, 0
4, 93456, Note_on_c, 1, 66, 75
4, 93501, Note_on_c, 1, 66, 0
4, 93504, Note_on_c, 1, 67, 75
4, 93593, Note_on_c, 1, 67, 0
4, 93600, Note_on_c, 1, 40, 75
4, 93689, Note_on_c, 1, 40, 0
4, 93792, Note_on_c, 1, 52, 75
4, 93831, Note_on_c, 1, 52, 0
4, 93888, Note_on_c, 1, 47, 75
4, 93927, Note_on_c, 1, 47, 0
4, 93984, Note_on_c, 1, 59, 75
4, 94023, Note_on_c, 1, 59, 0
4, 94176, Note_on_c, 1, 51, 75
4, 94215, Note_on_c, 1, 51, 0
4, 94272, Note_on_c, 1, 52, 75
4, 94311, Note_on_c, 1, 52, 0
4, 94368, Note_on_c, 1, 40, 75
4, 94407, Note_on_c, 1, 40, 0
4, 94560, Note_on_c, 1, 52, 75
4, 94599, Note_on_c, 1, 52, 0
4, 94656, Note_on_c, 1, 50, 75
4, 94695, Note_on_c, 1, 50, 0
4, 94752, Note_on_c, 1, 56, 75
4, 94791, Note_on_c, 1, 56, 0
4, 94944, Note_on_c, 1, 44, 75
4, 94983, Note_on_c, 1, 44, 0
4, 95040, Note_on_c, 1, 45, 75
4, 95079, Note_on_c, 1, 45, 0
4, 95136, Note_on_c, 1, 33, 75
4, 95175, Note_on_c, 1, 33, 0
4, 95328, Note_on_c, 1, 72, 75
4, 95367, Note_on_c, 1, 72, 0
4, 95424, Note_on_c, 1, 74, 75
4, 95463, Note_on_c, 1, 74, 0
4, 95520, Note_on_c, 1, 72, 75
4, 95559, Note_on_c, 1, 72, 0
4, 95616, Note_on_c, 1, 71, 75
4, 95655, Note_on_c, 1, 71, 0
4, 95712, Note_on_c, 1, 69, 75
4, 95751, Note_on_c, 1, 69, 0
4, 95808, Note_on_c, 1, 67, 75
4, 95847, Note_on_c, 1, 67, 0
4, 95904, Note_on_c, 1, 55, 75
4, 95943, Note_on_c, 1, 55, 0
4, 96192, Note_on_c, 1, 60, 75
4, 96231, Note_on_c, 1, 60, 0
4, 96288, Note_on_c, 1, 71, 75
4, 96327, Note_on_c, 1, 71, 0
4, 96384, Note_on_c, 1, 69, 75
4, 96423, Note_on_c, 1, 69, 0
4, 96480, Note_on_c, 1, 67, 75
4, 96519, Note_on_c, 1, 67, 0
4, 96576, Note_on_c, 1, 69, 75
4, 96615, Note_on_c, 1, 69, 0
4, 96672, Note_on_c, 1, 57, 75
4, 96711, Note_on_c, 1, 57, 0
4, 96864, Note_on_c, 1, 48, 75
4, 96953, Note_on_c, 1, 48, 0
4, 96960, Note_on_c, 1, 47, 75
4, 97233, Note_on_c, 1, 47, 0
4, 97728, Note_on_c, 1, 45, 75
4, 97751, Note_on_c, 1, 45, 0
4, 97752, Note_on_c, 1, 48, 75
4, 97775, Note_on_c, 1, 48, 0
4, 97776, Note_on_c, 1, 53, 75
4, 97799, Note_on_c, 1, 53, 0
4, 97800, Note_on_c, 1, 57, 75
4, 97823, Note_on_c, 1, 57, 0
4, 97824, Note_on_c, 1, 45, 75
4, 97913, Note_on_c, 1, 45, 0
4, 98112, Note_on_c, 1, 45, 75
4, 98135, Note_on_c, 1, 45, 0
4, 98136, Note_on_c, 1, 48, 75
4, 98159, Note_on_c, 1, 48, 0
4, 98160, Note_on_c, 1, 54, 75
4, 98183, Note_on_c, 1, 54, 0
4, 98184, Note_on_c, 1, 57, 75
4, 98207, Note_on_c, 1, 57, 0
4, 98208, Note_on_c, 1, 45, 75
4, 98297, Note_on_c, 1, 45, 0
4, 98496, Note_on_c, 1, 47, 75
4, 98519, Note_on_c, 1, 47, 0
4, 98520, Note_on_c, 1, 52, 75
4, 98543, Note_on_c, 1, 52, 0
4, 98544, Note_on_c, 1, 55, 75
4, 98567, Note_on_c, 1, 55, 0
4, 98568, Note_on_c, 1, 59, 75
4, 98591, Note_on_c, 1, 59, 0
4, 98592, Note_on_c, 1, 47, 75
4, 98681, Note_on_c, 1, 47, 0
4, 98880, Note_on_c, 1, 66, 64
4, 98880, Note_on_c, 1, 45, 64
4, 99117, Note_on_c, 1, 66, 0
4, 99117, Note_on_c, 1, 45, 0
4, 99168, Note_on_c, 1, 48, 80
4, 99168, Note_on_c, 1, 36, 80
4, 99207, Note_on_c, 1, 48, 0
4, 99207, Note_on_c, 1, 36, 0
4, 99264, Note_on_c, 1, 48, 96
4, 99264, Note_on_c, 1, 36, 96
4, 99360, Note_on_c, 1, 48, 0
4, 99360, Note_on_c, 1, 36, 0
4, 99360, Note_on_c, 1, 48, 80
4, 99360, Note_on_c, 1, 36, 80
4, 99399, Note_on_c, 1, 48, 0
4, 99399, Note_on_c, 1, 36, 0
4, 99456, Note_on_c, 1, 47, 96
4, 99456, Note_on_c, 1, 35, 96
4, 99552, Note_on_c, 1, 47, 0
4, 99552, Note_on_c, 1, 35, 0
4, 99552, Note_on_c, 1, 47, 80
4, 99552, Note_on_c, 1, 35, 80
4, 99591, Note_on_c, 1, 47, 0
4, 99591, Note_on_c, 1, 35, 0
4, 99648, Note_on_c, 1, 45, 96
4, 99648, Note_on_c, 1, 33, 96
4, 99840, Note_on_c, 1, 45, 0
4, 99840, Note_on_c, 1, 33, 0
4, 100128, Note_on_c, 1, 45, 70
4, 100167, Note_on_c, 1, 45, 0
4, 100224, Note_on_c, 1, 43, 86
4, 100320, Note_on_c, 1, 43, 0
4, 100320, Note_on_c, 1, 43, 70
4, 100359, Note_on_c, 1, 43, 0
4, 100416, Note_on_c, 1, 41, 86
4, 100603, Note_on_c, 1, 41, 0
4, 101184, Note_on_c, 1, 52, 70
4, 101273, Note_on_c, 1, 52, 0
4, 101280, Note_on_c, 1, 40, 70
4, 101369, Note_on_c, 1, 40, 0
4, 101472, Note_on_c, 1, 52, 70
4, 101561, Note_on_c, 1, 52, 0
4, 101568, Note_on_c, 1, 52, 70
4, 101657, Note_on_c, 1, 52, 0
4, 101664, Note_on_c, 1, 40, 70
4, 101753, Note_on_c, 1, 40, 0
4, 101856, Note_on_c, 1, 47, 64
4, 101945, Note_on_c, 1, 47, 0
4, 101952, Note_on_c, 1, 52, 64
4, 102000, Note_on_c, 1, 52, 0
4, 102000, Note_on_c, 1, 53, 63
4, 102045, Note_on_c, 1, 53, 0
4, 102048, Note_on_c, 1, 52, 63
4, 102096, Note_on_c, 1, 52, 0
4, 102096, Note_on_c, 1, 53, 62
4, 102141, Note_on_c, 1, 53, 0
4, 102144, Note_on_c, 1, 52, 62
4, 102192, Note_on_c, 1, 52, 0
4, 102192, Note_on_c, 1, 53, 61
4, 102237, Note_on_c, 1, 53, 0
4, 102240, Note_on_c, 1, 52, 61
4, 102288, Note_on_c, 1, 52, 0
4, 102288, Note_on_c, 1, 53, 60
4, 102333, Note_on_c, 1, 53, 0
4, 102336, Note_on_c, 1, 52, 60
4, 102425, Note_on_c, 1, 52, 0
4, 102432, Note_on_c, 1, 51, 59
4, 102528, Note_on_c, 1, 51, 0
4, 102528, Note_on_c, 1, 52, 58
4, 102617, Note_on_c, 1, 52, 0
4, 102720, Note_on_c, 1, 52, 58
4, 102809, Note_on_c, 1, 52, 0
4, 102816, End_track
5, 0, Start_track
5, 0, Program_c, 1, 0
5, 0, Control_c, 1, 7, 127
5, 0, Control_c, 1, 10, 64
5, 8448, Note_on_c, 1, 74, 64
5, 8625, Note_on_c, 1, 74, 0
5, 8832, Note_on_c, 1, 72, 64
5, 9009, Note_on_c, 1, 72, 0
5, 9216, Note_on_c, 1, 71, 64
5, 9393, Note_on_c, 1, 71, 0
5, 9600, Note_on_c, 1, 69, 64
5, 9777, Note_on_c, 1, 69, 0
5, 24576, Note_on_c, 1, 74, 64
5, 24753, Note_on_c, 1, 74, 0
5, 24960, Note_on_c, 1, 72, 64
5, 25137, Note_on_c, 1, 72, 0
5, 25344, Note_on_c, 1, 71, 64
5, 25521, Note_on_c, 1, 71, 0
5, 25728, Note_on_c, 1, 69, 64
5, 25905, Note_on_c, 1, 69, 0
5, 102720, End_track
6, 0, Start_track
6, 0, Title_t, "Sonata I   Haydn  "
6, 0, End_track
0, 0, End_of_file
