0, 0, Header, 1, 6, 96
1, 0, Start_track
1, 0, Copyright_t, "Copyright  1994-2002 Mozart Music Software"
1, 0, Text_t, "Sonata III\015\012"
1, 0, Text_t, "<composer>\015\012"
1, 0, Sequencer_specific, 16, 68, 87, 77, 90, 86, 82, 83, 78, 32, 55, 46, 48, 46, 55, 46, 48
1, 0, Time_signature, 3, 2, 24, 8
1, 0, Tempo, 1000000
1, 0, Key_signature, -5, "major"
1, 5664, Tempo, 1500000
1, 5760, Tempo, 1000000
1, 14592, Tempo, 1500000
1, 14688, Tempo, 1000000
1, 26688, Tempo, 1500000
1, 26784, Tempo, 1000000
1, 27264, Tempo, 1500000
1, 27360, Tempo, 1000000
1, 32256, Tempo, 1500000
1, 32352, Tempo, 1000000
1, 42816, Tempo, 1500000
1, 42912, Tempo, 1000000
1, 43392, Tempo, 1500000
1, 43488, Tempo, 1000000
1, 48384, Tempo, 1500000
1, 48480, Tempo, 1000000
1, 50400, End_track
2, 0, Start_track
2, 0, Program_c, 0, 0
2, 0, Control_c, 0, 7, 127
2, 0, Control_c, 0, 10, 64
2, 1296, Note_on_c, 0, 82, 61
2, 1341, Note_on_c, 0, 82, 0
2, 1344, Note_on_c, 0, 80, 61
2, 1350, Note_on_c, 0, 80, 0
2, 1350, Note_on_c, 0, 82, 61
2, 1356, Note_on_c, 0, 82, 0
2, 1356, Note_on_c, 0, 80, 61
2, 1391, Note_on_c, 0, 80, 0
2, 1392, Note_on_c, 0, 79, 61
2, 1485, Note_on_c, 0, 79, 0
2, 1488, Note_on_c, 0, 82, 61
2, 1533, Note_on_c, 0, 82, 0
2, 1536, Note_on_c, 0, 80, 61
2, 1625, Note_on_c, 0, 80, 0
2, 1632, Note_on_c, 0, 75, 61
2, 1773, Note_on_c, 0, 75, 0
2, 1776, Note_on_c, 0, 73, 61
2, 1821, Note_on_c, 0, 73, 0
2, 1824, Note_on_c, 0, 82, 77
2, 1896, Note_on_c, 0, 82, 0
2, 1896, Note_on_c, 0, 80, 61
2, 1908, Note_on_c, 0, 80, 0
2, 1908, Note_on_c, 0, 78, 61
2, 1920, Note_on_c, 0, 78, 0
2, 1920, Note_on_c, 0, 77, 61
2, 1965, Note_on_c, 0, 77, 0
2, 1968, Note_on_c, 0, 80, 61
2, 1983, Note_on_c, 0, 80, 0
2, 1984, Note_on_c, 0, 78, 61
2, 1999, Note_on_c, 0, 78, 0
2, 2000, Note_on_c, 0, 75, 61
2, 2015, Note_on_c, 0, 75, 0
2, 2016, Note_on_c, 0, 75, 61
2, 2064, Note_on_c, 0, 75, 0
2, 2064, Note_on_c, 0, 76, 57
2, 2109, Note_on_c, 0, 76, 0
2, 2112, Note_on_c, 0, 77, 53
2, 2112, Note_on_c, 0, 73, 53
2, 2201, Note_on_c, 0, 77, 0
2, 2201, Note_on_c, 0, 73, 0
2, 2352, Note_on_c, 0, 89, 61
2, 2397, Note_on_c, 0, 89, 0
2, 2400, Note_on_c, 0, 85, 63
2, 2406, Note_on_c, 0, 85, 0
2, 2406, Note_on_c, 0, 84, 63
2, 2412, Note_on_c, 0, 84, 0
2, 2412, Note_on_c, 0, 82, 63
2, 2418, Note_on_c, 0, 82, 0
2, 2418, Note_on_c, 0, 84, 63
2, 2445, Note_on_c, 0, 84, 0
2, 2448, Note_on_c, 0, 85, 66
2, 2493, Note_on_c, 0, 85, 0
2, 2496, Note_on_c, 0, 82, 69
2, 2502, Note_on_c, 0, 82, 0
2, 2502, Note_on_c, 0, 81, 69
2, 2508, Note_on_c, 0, 81, 0
2, 2508, Note_on_c, 0, 79, 69
2, 2514, Note_on_c, 0, 79, 0
2, 2514, Note_on_c, 0, 81, 69
2, 2541, Note_on_c, 0, 81, 0
2, 2544, Note_on_c, 0, 82, 72
2, 2589, Note_on_c, 0, 82, 0
2, 2640, Note_on_c, 0, 87, 61
2, 2685, Note_on_c, 0, 87, 0
2, 2688, Note_on_c, 0, 84, 63
2, 2694, Note_on_c, 0, 84, 0
2, 2694, Note_on_c, 0, 82, 63
2, 2700, Note_on_c, 0, 82, 0
2, 2700, Note_on_c, 0, 80, 63
2, 2706, Note_on_c, 0, 80, 0
2, 2706, Note_on_c, 0, 82, 63
2, 2733, Note_on_c, 0, 82, 0
2, 2736, Note_on_c, 0, 84, 66
2, 2781, Note_on_c, 0, 84, 0
2, 2784, Note_on_c, 0, 80, 69
2, 2790, Note_on_c, 0, 80, 0
2, 2790, Note_on_c, 0, 79, 69
2, 2796, Note_on_c, 0, 79, 0
2, 2796, Note_on_c, 0, 77, 69
2, 2802, Note_on_c, 0, 77, 0
2, 2802, Note_on_c, 0, 79, 69
2, 2829, Note_on_c, 0, 79, 0
2, 2832, Note_on_c, 0, 80, 72
2, 2877, Note_on_c, 0, 80, 0
2, 2928, Note_on_c, 0, 85, 75
2, 3017, Note_on_c, 0, 85, 0
2, 3024, Note_on_c, 0, 84, 71
2, 3069, Note_on_c, 0, 84, 0
2, 3072, Note_on_c, 0, 82, 70
2, 3117, Note_on_c, 0, 82, 0
2, 3120, Note_on_c, 0, 80, 68
2, 3126, Note_on_c, 0, 80, 0
2, 3126, Note_on_c, 0, 82, 68
2, 3132, Note_on_c, 0, 82, 0
2, 3132, Note_on_c, 0, 80, 68
2, 3167, Note_on_c, 0, 80, 0
2, 3168, Note_on_c, 0, 79, 67
2, 3213, Note_on_c, 0, 79, 0
2, 3216, Note_on_c, 0, 77, 65
2, 3223, Note_on_c, 0, 77, 0
2, 3223, Note_on_c, 0, 79, 65
2, 3230, Note_on_c, 0, 79, 0
2, 3230, Note_on_c, 0, 77, 65
2, 3237, Note_on_c, 0, 77, 0
2, 3237, Note_on_c, 0, 79, 65
2, 3244, Note_on_c, 0, 79, 0
2, 3244, Note_on_c, 0, 77, 64
2, 3251, Note_on_c, 0, 77, 0
2, 3251, Note_on_c, 0, 75, 64
2, 3258, Note_on_c, 0, 75, 0
2, 3258, Note_on_c, 0, 77, 64
2, 3264, Note_on_c, 0, 77, 0
2, 3264, Note_on_c, 0, 75, 64
2, 3353, Note_on_c, 0, 75, 0
2, 3480, Note_on_c, 0, 75, 61
2, 3490, Note_on_c, 0, 75, 0
2, 3504, Note_on_c, 0, 77, 61
2, 3511, Note_on_c, 0, 77, 0
2, 3511, Note_on_c, 0, 75, 61
2, 3518, Note_on_c, 0, 75, 0
2, 3518, Note_on_c, 0, 77, 61
2, 3525, Note_on_c, 0, 77, 0
2, 3525, Note_on_c, 0, 75, 61
2, 3532, Note_on_c, 0, 75, 0
2, 3532, Note_on_c, 0, 74, 61
2, 3539, Note_on_c, 0, 74, 0
2, 3539, Note_on_c, 0, 75, 61
2, 3552, Note_on_c, 0, 75, 0
2, 3576, Note_on_c, 0, 75, 61
2, 3586, Note_on_c, 0, 75, 0
2, 3600, Note_on_c, 0, 77, 61
2, 3607, Note_on_c, 0, 77, 0
2, 3607, Note_on_c, 0, 75, 61
2, 3614, Note_on_c, 0, 75, 0
2, 3614, Note_on_c, 0, 77, 61
2, 3621, Note_on_c, 0, 77, 0
2, 3621, Note_on_c, 0, 75, 61
2, 3628, Note_on_c, 0, 75, 0
2, 3628, Note_on_c, 0, 74, 61
2, 3635, Note_on_c, 0, 74, 0
2, 3635, Note_on_c, 0, 75, 61
2, 3648, Note_on_c, 0, 75, 0
2, 3648, Note_on_c, 0, 84, 61
2, 3663, Note_on_c, 0, 84, 0
2, 3664, Note_on_c, 0, 82, 61
2, 3679, Note_on_c, 0, 82, 0
2, 3680, Note_on_c, 0, 80, 61
2, 3695, Note_on_c, 0, 80, 0
2, 3696, Note_on_c, 0, 79, 61
2, 3711, Note_on_c, 0, 79, 0
2, 3712, Note_on_c, 0, 77, 61
2, 3727, Note_on_c, 0, 77, 0
2, 3728, Note_on_c, 0, 75, 61
2, 3743, Note_on_c, 0, 75, 0
2, 3744, Note_on_c, 0, 75, 61
2, 3840, Note_on_c, 0, 75, 0
2, 3840, Note_on_c, 0, 74, 61
2, 3929, Note_on_c, 0, 74, 0
2, 4056, Note_on_c, 0, 73, 61
2, 4066, Note_on_c, 0, 73, 0
2, 4080, Note_on_c, 0, 75, 61
2, 4087, Note_on_c, 0, 75, 0
2, 4087, Note_on_c, 0, 73, 61
2, 4094, Note_on_c, 0, 73, 0
2, 4094, Note_on_c, 0, 75, 61
2, 4101, Note_on_c, 0, 75, 0
2, 4101, Note_on_c, 0, 73, 61
2, 4108, Note_on_c, 0, 73, 0
2, 4108, Note_on_c, 0, 72, 61
2, 4115, Note_on_c, 0, 72, 0
2, 4115, Note_on_c, 0, 73, 61
2, 4128, Note_on_c, 0, 73, 0
2, 4152, Note_on_c, 0, 73, 61
2, 4162, Note_on_c, 0, 73, 0
2, 4176, Note_on_c, 0, 75, 61
2, 4183, Note_on_c, 0, 75, 0
2, 4183, Note_on_c, 0, 73, 61
2, 4190, Note_on_c, 0, 73, 0
2, 4190, Note_on_c, 0, 75, 61
2, 4197, Note_on_c, 0, 75, 0
2, 4197, Note_on_c, 0, 73, 61
2, 4204, Note_on_c, 0, 73, 0
2, 4204, Note_on_c, 0, 72, 61
2, 4211, Note_on_c, 0, 72, 0
2, 4211, Note_on_c, 0, 73, 61
2, 4224, Note_on_c, 0, 73, 0
2, 4224, Note_on_c, 0, 82, 61
2, 4239, Note_on_c, 0, 82, 0
2, 4240, Note_on_c, 0, 80, 61
2, 4255, Note_on_c, 0, 80, 0
2, 4256, Note_on_c, 0, 79, 61
2, 4271, Note_on_c, 0, 79, 0
2, 4272, Note_on_c, 0, 77, 61
2, 4287, Note_on_c, 0, 77, 0
2, 4288, Note_on_c, 0, 75, 61
2, 4303, Note_on_c, 0, 75, 0
2, 4304, Note_on_c, 0, 73, 61
2, 4319, Note_on_c, 0, 73, 0
2, 4320, Note_on_c, 0, 73, 61
2, 4416, Note_on_c, 0, 73, 0
2, 4416, Note_on_c, 0, 72, 61
2, 4505, Note_on_c, 0, 72, 0
2, 4512, Note_on_c, 0, 75, 61
2, 4631, Note_on_c, 0, 75, 0
2, 4632, Note_on_c, 0, 68, 61
2, 4642, Note_on_c, 0, 68, 0
2, 4656, Note_on_c, 0, 70, 61
2, 4663, Note_on_c, 0, 70, 0
2, 4663, Note_on_c, 0, 68, 61
2, 4670, Note_on_c, 0, 68, 0
2, 4670, Note_on_c, 0, 70, 61
2, 4677, Note_on_c, 0, 70, 0
2, 4677, Note_on_c, 0, 68, 61
2, 4684, Note_on_c, 0, 68, 0
2, 4684, Note_on_c, 0, 67, 61
2, 4691, Note_on_c, 0, 67, 0
2, 4691, Note_on_c, 0, 68, 61
2, 4704, Note_on_c, 0, 68, 0
2, 4704, Note_on_c, 0, 73, 61
2, 4727, Note_on_c, 0, 73, 0
2, 4728, Note_on_c, 0, 68, 61
2, 4738, Note_on_c, 0, 68, 0
2, 4752, Note_on_c, 0, 70, 61
2, 4759, Note_on_c, 0, 70, 0
2, 4759, Note_on_c, 0, 68, 61
2, 4766, Note_on_c, 0, 68, 0
2, 4766, Note_on_c, 0, 70, 61
2, 4773, Note_on_c, 0, 70, 0
2, 4773, Note_on_c, 0, 68, 61
2, 4780, Note_on_c, 0, 68, 0
2, 4780, Note_on_c, 0, 67, 61
2, 4787, Note_on_c, 0, 67, 0
2, 4787, Note_on_c, 0, 68, 61
2, 4800, Note_on_c, 0, 68, 0
2, 4800, Note_on_c, 0, 77, 61
2, 4815, Note_on_c, 0, 77, 0
2, 4816, Note_on_c, 0, 75, 61
2, 4831, Note_on_c, 0, 75, 0
2, 4832, Note_on_c, 0, 73, 61
2, 4847, Note_on_c, 0, 73, 0
2, 4848, Note_on_c, 0, 72, 61
2, 4863, Note_on_c, 0, 72, 0
2, 4864, Note_on_c, 0, 70, 61
2, 4879, Note_on_c, 0, 70, 0
2, 4880, Note_on_c, 0, 68, 61
2, 4895, Note_on_c, 0, 68, 0
2, 4896, Note_on_c, 0, 67, 61
2, 4985, Note_on_c, 0, 67, 0
2, 4992, Note_on_c, 0, 68, 61
2, 5081, Note_on_c, 0, 68, 0
2, 5088, Note_on_c, 0, 70, 61
2, 5177, Note_on_c, 0, 70, 0
2, 5184, Note_on_c, 0, 72, 61
2, 5229, Note_on_c, 0, 72, 0
2, 5280, Note_on_c, 0, 74, 61
2, 5369, Note_on_c, 0, 74, 0
2, 5376, Note_on_c, 0, 80, 72
2, 5465, Note_on_c, 0, 80, 0
2, 5472, Note_on_c, 0, 80, 84
2, 5472, Note_on_c, 0, 74, 84
2, 5561, Note_on_c, 0, 80, 0
2, 5561, Note_on_c, 0, 74, 0
2, 5568, Note_on_c, 0, 67, 84
2, 5580, Note_on_c, 0, 67, 0
2, 5580, Note_on_c, 0, 70, 84
2, 5592, Note_on_c, 0, 70, 0
2, 5592, Note_on_c, 0, 79, 84
2, 5592, Note_on_c, 0, 75, 84
2, 5760, Note_on_c, 0, 79, 0
2, 5760, Note_on_c, 0, 75, 0
2, 5760, Note_on_c, 0, 78, 61
2, 5784, Note_on_c, 0, 78, 0
2, 5784, Note_on_c, 0, 80, 61
2, 5807, Note_on_c, 0, 80, 0
2, 5808, Note_on_c, 0, 79, 77
2, 5832, Note_on_c, 0, 79, 0
2, 5832, Note_on_c, 0, 75, 61
2, 5855, Note_on_c, 0, 75, 0
2, 5856, Note_on_c, 0, 74, 61
2, 5880, Note_on_c, 0, 74, 0
2, 5880, Note_on_c, 0, 77, 61
2, 5903, Note_on_c, 0, 77, 0
2, 5904, Note_on_c, 0, 75, 77
2, 5928, Note_on_c, 0, 75, 0
2, 5928, Note_on_c, 0, 70, 61
2, 5951, Note_on_c, 0, 70, 0
2, 5952, Note_on_c, 0, 69, 61
2, 5976, Note_on_c, 0, 69, 0
2, 5976, Note_on_c, 0, 72, 61
2, 5999, Note_on_c, 0, 72, 0
2, 6000, Note_on_c, 0, 70, 77
2, 6024, Note_on_c, 0, 70, 0
2, 6024, Note_on_c, 0, 67, 61
2, 6047, Note_on_c, 0, 67, 0
2, 6048, Note_on_c, 0, 66, 61
2, 6072, Note_on_c, 0, 66, 0
2, 6072, Note_on_c, 0, 68, 61
2, 6095, Note_on_c, 0, 68, 0
2, 6096, Note_on_c, 0, 67, 77
2, 6120, Note_on_c, 0, 67, 0
2, 6120, Note_on_c, 0, 63, 61
2, 6143, Note_on_c, 0, 63, 0
2, 6144, Note_on_c, 0, 62, 61
2, 6167, Note_on_c, 0, 62, 0
2, 6168, Note_on_c, 0, 65, 61
2, 6191, Note_on_c, 0, 65, 0
2, 6192, Note_on_c, 0, 65, 77
2, 6216, Note_on_c, 0, 65, 0
2, 6216, Note_on_c, 0, 63, 63
2, 6239, Note_on_c, 0, 63, 0
2, 6240, Note_on_c, 0, 63, 65
2, 6250, Note_on_c, 0, 63, 0
2, 6264, Note_on_c, 0, 63, 67
2, 6274, Note_on_c, 0, 63, 0
2, 6288, Note_on_c, 0, 63, 70
2, 6298, Note_on_c, 0, 63, 0
2, 6312, Note_on_c, 0, 63, 72
2, 6322, Note_on_c, 0, 63, 0
2, 6336, Note_on_c, 0, 63, 74
2, 6346, Note_on_c, 0, 63, 0
2, 6360, Note_on_c, 0, 63, 77
2, 6370, Note_on_c, 0, 63, 0
2, 6384, Note_on_c, 0, 63, 79
2, 6429, Note_on_c, 0, 63, 0
2, 6432, Note_on_c, 0, 73, 100
2, 6432, Note_on_c, 0, 67, 100
2, 6576, Note_on_c, 0, 73, 0
2, 6576, Note_on_c, 0, 67, 0
2, 6624, Note_on_c, 0, 84, 84
2, 6624, Note_on_c, 0, 80, 84
2, 6735, Note_on_c, 0, 84, 0
2, 6735, Note_on_c, 0, 80, 0
2, 6736, Note_on_c, 0, 82, 84
2, 6736, Note_on_c, 0, 79, 84
2, 6751, Note_on_c, 0, 82, 0
2, 6751, Note_on_c, 0, 79, 0
2, 6752, Note_on_c, 0, 80, 84
2, 6752, Note_on_c, 0, 77, 84
2, 6767, Note_on_c, 0, 80, 0
2, 6767, Note_on_c, 0, 77, 0
2, 6768, Note_on_c, 0, 79, 84
2, 6768, Note_on_c, 0, 75, 84
2, 6783, Note_on_c, 0, 79, 0
2, 6783, Note_on_c, 0, 75, 0
2, 6784, Note_on_c, 0, 77, 82
2, 6784, Note_on_c, 0, 73, 82
2, 6799, Note_on_c, 0, 77, 0
2, 6799, Note_on_c, 0, 73, 0
2, 6800, Note_on_c, 0, 75, 80
2, 6800, Note_on_c, 0, 72, 80
2, 6815, Note_on_c, 0, 75, 0
2, 6815, Note_on_c, 0, 72, 0
2, 6816, Note_on_c, 0, 73, 78
2, 6816, Note_on_c, 0, 70, 78
2, 6861, Note_on_c, 0, 73, 0
2, 6861, Note_on_c, 0, 70, 0
2, 6864, Note_on_c, 0, 72, 70
2, 6864, Note_on_c, 0, 68, 70
2, 6909, Note_on_c, 0, 72, 0
2, 6909, Note_on_c, 0, 68, 0
2, 6960, Note_on_c, 0, 77, 61
2, 6960, Note_on_c, 0, 73, 61
2, 7005, Note_on_c, 0, 77, 0
2, 7005, Note_on_c, 0, 73, 0
2, 7008, Note_on_c, 0, 75, 61
2, 7008, Note_on_c, 0, 72, 61
2, 7053, Note_on_c, 0, 75, 0
2, 7053, Note_on_c, 0, 72, 0
2, 7056, Note_on_c, 0, 73, 61
2, 7056, Note_on_c, 0, 70, 61
2, 7145, Note_on_c, 0, 73, 0
2, 7145, Note_on_c, 0, 70, 0
2, 7152, Note_on_c, 0, 72, 61
2, 7152, Note_on_c, 0, 68, 61
2, 7197, Note_on_c, 0, 72, 0
2, 7197, Note_on_c, 0, 68, 0
2, 7248, Note_on_c, 0, 73, 61
2, 7248, Note_on_c, 0, 70, 61
2, 7337, Note_on_c, 0, 73, 0
2, 7337, Note_on_c, 0, 70, 0
2, 7344, Note_on_c, 0, 72, 61
2, 7344, Note_on_c, 0, 68, 61
2, 7433, Note_on_c, 0, 72, 0
2, 7433, Note_on_c, 0, 68, 0
2, 7440, Note_on_c, 0, 70, 61
2, 7440, Note_on_c, 0, 67, 61
2, 7536, Note_on_c, 0, 70, 0
2, 7536, Note_on_c, 0, 71, 61
2, 7581, Note_on_c, 0, 71, 0
2, 7581, Note_on_c, 0, 67, 0
2, 7584, Note_on_c, 0, 72, 61
2, 7584, Note_on_c, 0, 68, 61
2, 7673, Note_on_c, 0, 72, 0
2, 7673, Note_on_c, 0, 68, 0
2, 7696, Note_on_c, 0, 75, 61
2, 7696, Note_on_c, 0, 72, 61
2, 7703, Note_on_c, 0, 75, 0
2, 7703, Note_on_c, 0, 72, 0
2, 7712, Note_on_c, 0, 77, 64
2, 7712, Note_on_c, 0, 73, 64
2, 7719, Note_on_c, 0, 77, 0
2, 7719, Note_on_c, 0, 73, 0
2, 7728, Note_on_c, 0, 79, 67
2, 7728, Note_on_c, 0, 75, 67
2, 7735, Note_on_c, 0, 79, 0
2, 7735, Note_on_c, 0, 75, 0
2, 7744, Note_on_c, 0, 80, 70
2, 7744, Note_on_c, 0, 77, 70
2, 7751, Note_on_c, 0, 80, 0
2, 7751, Note_on_c, 0, 77, 0
2, 7760, Note_on_c, 0, 82, 74
2, 7760, Note_on_c, 0, 79, 74
2, 7767, Note_on_c, 0, 82, 0
2, 7767, Note_on_c, 0, 79, 0
2, 7776, Note_on_c, 0, 84, 100
2, 7776, Note_on_c, 0, 80, 100
2, 7887, Note_on_c, 0, 84, 0
2, 7887, Note_on_c, 0, 80, 0
2, 7888, Note_on_c, 0, 82, 84
2, 7888, Note_on_c, 0, 79, 84
2, 7903, Note_on_c, 0, 82, 0
2, 7903, Note_on_c, 0, 79, 0
2, 7904, Note_on_c, 0, 80, 84
2, 7904, Note_on_c, 0, 77, 84
2, 7919, Note_on_c, 0, 80, 0
2, 7919, Note_on_c, 0, 77, 0
2, 7920, Note_on_c, 0, 79, 84
2, 7920, Note_on_c, 0, 75, 84
2, 7935, Note_on_c, 0, 79, 0
2, 7935, Note_on_c, 0, 75, 0
2, 7936, Note_on_c, 0, 77, 82
2, 7936, Note_on_c, 0, 73, 82
2, 7951, Note_on_c, 0, 77, 0
2, 7951, Note_on_c, 0, 73, 0
2, 7952, Note_on_c, 0, 75, 80
2, 7952, Note_on_c, 0, 72, 80
2, 7967, Note_on_c, 0, 75, 0
2, 7967, Note_on_c, 0, 72, 0
2, 7968, Note_on_c, 0, 73, 78
2, 7968, Note_on_c, 0, 70, 78
2, 8013, Note_on_c, 0, 73, 0
2, 8013, Note_on_c, 0, 70, 0
2, 8016, Note_on_c, 0, 72, 70
2, 8016, Note_on_c, 0, 68, 70
2, 8061, Note_on_c, 0, 72, 0
2, 8061, Note_on_c, 0, 68, 0
2, 8112, Note_on_c, 0, 77, 61
2, 8112, Note_on_c, 0, 73, 61
2, 8157, Note_on_c, 0, 77, 0
2, 8157, Note_on_c, 0, 73, 0
2, 8160, Note_on_c, 0, 75, 61
2, 8160, Note_on_c, 0, 72, 61
2, 8205, Note_on_c, 0, 75, 0
2, 8205, Note_on_c, 0, 72, 0
2, 8208, Note_on_c, 0, 73, 61
2, 8208, Note_on_c, 0, 70, 61
2, 8297, Note_on_c, 0, 73, 0
2, 8297, Note_on_c, 0, 70, 0
2, 8304, Note_on_c, 0, 72, 61
2, 8304, Note_on_c, 0, 68, 61
2, 8397, Note_on_c, 0, 72, 0
2, 8397, Note_on_c, 0, 68, 0
2, 8400, Note_on_c, 0, 70, 61
2, 8489, Note_on_c, 0, 70, 0
2, 8496, Note_on_c, 0, 77, 61
2, 8541, Note_on_c, 0, 77, 0
2, 8544, Note_on_c, 0, 75, 61
2, 8589, Note_on_c, 0, 75, 0
2, 8592, Note_on_c, 0, 67, 61
2, 8592, Note_on_c, 0, 61, 61
2, 8592, Note_on_c, 0, 58, 61
2, 8637, Note_on_c, 0, 67, 0
2, 8637, Note_on_c, 0, 61, 0
2, 8637, Note_on_c, 0, 58, 0
2, 8640, Note_on_c, 0, 67, 61
2, 8640, Note_on_c, 0, 61, 61
2, 8640, Note_on_c, 0, 58, 61
2, 8729, Note_on_c, 0, 67, 0
2, 8729, Note_on_c, 0, 61, 0
2, 8729, Note_on_c, 0, 58, 0
2, 8736, Note_on_c, 0, 60, 61
2, 8744, Note_on_c, 0, 63, 61
2, 8752, Note_on_c, 0, 68, 61
2, 8829, Note_on_c, 0, 68, 0
2, 8829, Note_on_c, 0, 63, 0
2, 8829, Note_on_c, 0, 60, 0
2, 10224, Note_on_c, 0, 82, 61
2, 10269, Note_on_c, 0, 82, 0
2, 10272, Note_on_c, 0, 80, 61
2, 10278, Note_on_c, 0, 80, 0
2, 10278, Note_on_c, 0, 82, 61
2, 10284, Note_on_c, 0, 82, 0
2, 10284, Note_on_c, 0, 80, 61
2, 10319, Note_on_c, 0, 80, 0
2, 10320, Note_on_c, 0, 79, 61
2, 10413, Note_on_c, 0, 79, 0
2, 10416, Note_on_c, 0, 82, 61
2, 10461, Note_on_c, 0, 82, 0
2, 10464, Note_on_c, 0, 80, 61
2, 10553, Note_on_c, 0, 80, 0
2, 10560, Note_on_c, 0, 75, 61
2, 10701, Note_on_c, 0, 75, 0
2, 10704, Note_on_c, 0, 73, 61
2, 10749, Note_on_c, 0, 73, 0
2, 10752, Note_on_c, 0, 82, 77
2, 10824, Note_on_c, 0, 82, 0
2, 10824, Note_on_c, 0, 80, 61
2, 10836, Note_on_c, 0, 80, 0
2, 10836, Note_on_c, 0, 78, 61
2, 10848, Note_on_c, 0, 78, 0
2, 10848, Note_on_c, 0, 77, 61
2, 10893, Note_on_c, 0, 77, 0
2, 10896, Note_on_c, 0, 80, 61
2, 10911, Note_on_c, 0, 80, 0
2, 10912, Note_on_c, 0, 78, 61
2, 10927, Note_on_c, 0, 78, 0
2, 10928, Note_on_c, 0, 75, 61
2, 10943, Note_on_c, 0, 75, 0
2, 10944, Note_on_c, 0, 75, 61
2, 10992, Note_on_c, 0, 75, 0
2, 10992, Note_on_c, 0, 76, 57
2, 11037, Note_on_c, 0, 76, 0
2, 11040, Note_on_c, 0, 77, 53
2, 11040, Note_on_c, 0, 73, 53
2, 11129, Note_on_c, 0, 77, 0
2, 11129, Note_on_c, 0, 73, 0
2, 11280, Note_on_c, 0, 89, 61
2, 11325, Note_on_c, 0, 89, 0
2, 11328, Note_on_c, 0, 85, 63
2, 11334, Note_on_c, 0, 85, 0
2, 11334, Note_on_c, 0, 84, 63
2, 11340, Note_on_c, 0, 84, 0
2, 11340, Note_on_c, 0, 82, 63
2, 11346, Note_on_c, 0, 82, 0
2, 11346, Note_on_c, 0, 84, 63
2, 11373, Note_on_c, 0, 84, 0
2, 11376, Note_on_c, 0, 85, 66
2, 11421, Note_on_c, 0, 85, 0
2, 11424, Note_on_c, 0, 82, 69
2, 11430, Note_on_c, 0, 82, 0
2, 11430, Note_on_c, 0, 81, 69
2, 11436, Note_on_c, 0, 81, 0
2, 11436, Note_on_c, 0, 79, 69
2, 11442, Note_on_c, 0, 79, 0
2, 11442, Note_on_c, 0, 81, 69
2, 11469, Note_on_c, 0, 81, 0
2, 11472, Note_on_c, 0, 82, 72
2, 11517, Note_on_c, 0, 82, 0
2, 11568, Note_on_c, 0, 87, 61
2, 11613, Note_on_c, 0, 87, 0
2, 11616, Note_on_c, 0, 84, 63
2, 11622, Note_on_c, 0, 84, 0
2, 11622, Note_on_c, 0, 82, 63
2, 11628, Note_on_c, 0, 82, 0
2, 11628, Note_on_c, 0, 80, 63
2, 11634, Note_on_c, 0, 80, 0
2, 11634, Note_on_c, 0, 82, 63
2, 11661, Note_on_c, 0, 82, 0
2, 11664, Note_on_c, 0, 84, 66
2, 11709, Note_on_c, 0, 84, 0
2, 11712, Note_on_c, 0, 80, 69
2, 11718, Note_on_c, 0, 80, 0
2, 11718, Note_on_c, 0, 79, 69
2, 11724, Note_on_c, 0, 79, 0
2, 11724, Note_on_c, 0, 77, 69
2, 11730, Note_on_c, 0, 77, 0
2, 11730, Note_on_c, 0, 79, 69
2, 11757, Note_on_c, 0, 79, 0
2, 11760, Note_on_c, 0, 80, 72
2, 11805, Note_on_c, 0, 80, 0
2, 11856, Note_on_c, 0, 85, 75
2, 11945, Note_on_c, 0, 85, 0
2, 11952, Note_on_c, 0, 84, 71
2, 11997, Note_on_c, 0, 84, 0
2, 12000, Note_on_c, 0, 82, 70
2, 12045, Note_on_c, 0, 82, 0
2, 12048, Note_on_c, 0, 80, 68
2, 12054, Note_on_c, 0, 80, 0
2, 12054, Note_on_c, 0, 82, 68
2, 12060, Note_on_c, 0, 82, 0
2, 12060, Note_on_c, 0, 80, 68
2, 12095, Note_on_c, 0, 80, 0
2, 12096, Note_on_c, 0, 79, 67
2, 12141, Note_on_c, 0, 79, 0
2, 12144, Note_on_c, 0, 77, 65
2, 12151, Note_on_c, 0, 77, 0
2, 12151, Note_on_c, 0, 79, 65
2, 12158, Note_on_c, 0, 79, 0
2, 12158, Note_on_c, 0, 77, 65
2, 12165, Note_on_c, 0, 77, 0
2, 12165, Note_on_c, 0, 79, 65
2, 12172, Note_on_c, 0, 79, 0
2, 12172, Note_on_c, 0, 77, 64
2, 12179, Note_on_c, 0, 77, 0
2, 12179, Note_on_c, 0, 75, 64
2, 12186, Note_on_c, 0, 75, 0
2, 12186, Note_on_c, 0, 77, 64
2, 12192, Note_on_c, 0, 77, 0
2, 12192, Note_on_c, 0, 75, 64
2, 12281, Note_on_c, 0, 75, 0
2, 12408, Note_on_c, 0, 75, 61
2, 12418, Note_on_c, 0, 75, 0
2, 12432, Note_on_c, 0, 77, 61
2, 12439, Note_on_c, 0, 77, 0
2, 12439, Note_on_c, 0, 75, 61
2, 12446, Note_on_c, 0, 75, 0
2, 12446, Note_on_c, 0, 77, 61
2, 12453, Note_on_c, 0, 77, 0
2, 12453, Note_on_c, 0, 75, 61
2, 12460, Note_on_c, 0, 75, 0
2, 12460, Note_on_c, 0, 74, 61
2, 12467, Note_on_c, 0, 74, 0
2, 12467, Note_on_c, 0, 75, 61
2, 12480, Note_on_c, 0, 75, 0
2, 12504, Note_on_c, 0, 75, 61
2, 12514, Note_on_c, 0, 75, 0
2, 12528, Note_on_c, 0, 77, 61
2, 12535, Note_on_c, 0, 77, 0
2, 12535, Note_on_c, 0, 75, 61
2, 12542, Note_on_c, 0, 75, 0
2, 12542, Note_on_c, 0, 77, 61
2, 12549, Note_on_c, 0, 77, 0
2, 12549, Note_on_c, 0, 75, 61
2, 12556, Note_on_c, 0, 75, 0
2, 12556, Note_on_c, 0, 74, 61
2, 12563, Note_on_c, 0, 74, 0
2, 12563, Note_on_c, 0, 75, 61
2, 12576, Note_on_c, 0, 75, 0
2, 12576, Note_on_c, 0, 84, 61
2, 12591, Note_on_c, 0, 84, 0
2, 12592, Note_on_c, 0, 82, 61
2, 12607, Note_on_c, 0, 82, 0
2, 12608, Note_on_c, 0, 80, 61
2, 12623, Note_on_c, 0, 80, 0
2, 12624, Note_on_c, 0, 79, 61
2, 12639, Note_on_c, 0, 79, 0
2, 12640, Note_on_c, 0, 77, 61
2, 12655, Note_on_c, 0, 77, 0
2, 12656, Note_on_c, 0, 75, 61
2, 12671, Note_on_c, 0, 75, 0
2, 12672, Note_on_c, 0, 75, 61
2, 12768, Note_on_c, 0, 75, 0
2, 12768, Note_on_c, 0, 74, 61
2, 12857, Note_on_c, 0, 74, 0
2, 12984, Note_on_c, 0, 73, 61
2, 12994, Note_on_c, 0, 73, 0
2, 13008, Note_on_c, 0, 75, 61
2, 13015, Note_on_c, 0, 75, 0
2, 13015, Note_on_c, 0, 73, 61
2, 13022, Note_on_c, 0, 73, 0
2, 13022, Note_on_c, 0, 75, 61
2, 13029, Note_on_c, 0, 75, 0
2, 13029, Note_on_c, 0, 73, 61
2, 13036, Note_on_c, 0, 73, 0
2, 13036, Note_on_c, 0, 72, 61
2, 13043, Note_on_c, 0, 72, 0
2, 13043, Note_on_c, 0, 73, 61
2, 13056, Note_on_c, 0, 73, 0
2, 13080, Note_on_c, 0, 73, 61
2, 13090, Note_on_c, 0, 73, 0
2, 13104, Note_on_c, 0, 75, 61
2, 13111, Note_on_c, 0, 75, 0
2, 13111, Note_on_c, 0, 73, 61
2, 13118, Note_on_c, 0, 73, 0
2, 13118, Note_on_c, 0, 75, 61
2, 13125, Note_on_c, 0, 75, 0
2, 13125, Note_on_c, 0, 73, 61
2, 13132, Note_on_c, 0, 73, 0
2, 13132, Note_on_c, 0, 72, 61
2, 13139, Note_on_c, 0, 72, 0
2, 13139, Note_on_c, 0, 73, 61
2, 13152, Note_on_c, 0, 73, 0
2, 13152, Note_on_c, 0, 82, 61
2, 13167, Note_on_c, 0, 82, 0
2, 13168, Note_on_c, 0, 80, 61
2, 13183, Note_on_c, 0, 80, 0
2, 13184, Note_on_c, 0, 79, 61
2, 13199, Note_on_c, 0, 79, 0
2, 13200, Note_on_c, 0, 77, 61
2, 13215, Note_on_c, 0, 77, 0
2, 13216, Note_on_c, 0, 75, 61
2, 13231, Note_on_c, 0, 75, 0
2, 13232, Note_on_c, 0, 73, 61
2, 13247, Note_on_c, 0, 73, 0
2, 13248, Note_on_c, 0, 73, 61
2, 13344, Note_on_c, 0, 73, 0
2, 13344, Note_on_c, 0, 72, 61
2, 13433, Note_on_c, 0, 72, 0
2, 13440, Note_on_c, 0, 75, 61
2, 13559, Note_on_c, 0, 75, 0
2, 13560, Note_on_c, 0, 68, 61
2, 13570, Note_on_c, 0, 68, 0
2, 13584, Note_on_c, 0, 70, 61
2, 13591, Note_on_c, 0, 70, 0
2, 13591, Note_on_c, 0, 68, 61
2, 13598, Note_on_c, 0, 68, 0
2, 13598, Note_on_c, 0, 70, 61
2, 13605, Note_on_c, 0, 70, 0
2, 13605, Note_on_c, 0, 68, 61
2, 13612, Note_on_c, 0, 68, 0
2, 13612, Note_on_c, 0, 67, 61
2, 13619, Note_on_c, 0, 67, 0
2, 13619, Note_on_c, 0, 68, 61
2, 13632, Note_on_c, 0, 68, 0
2, 13632, Note_on_c, 0, 73, 61
2, 13655, Note_on_c, 0, 73, 0
2, 13656, Note_on_c, 0, 68, 61
2, 13666, Note_on_c, 0, 68, 0
2, 13680, Note_on_c, 0, 70, 61
2, 13687, Note_on_c, 0, 70, 0
2, 13687, Note_on_c, 0, 68, 61
2, 13694, Note_on_c, 0, 68, 0
2, 13694, Note_on_c, 0, 70, 61
2, 13701, Note_on_c, 0, 70, 0
2, 13701, Note_on_c, 0, 68, 61
2, 13708, Note_on_c, 0, 68, 0
2, 13708, Note_on_c, 0, 67, 61
2, 13715, Note_on_c, 0, 67, 0
2, 13715, Note_on_c, 0, 68, 61
2, 13728, Note_on_c, 0, 68, 0
2, 13728, Note_on_c, 0, 77, 61
2, 13743, Note_on_c, 0, 77, 0
2, 13744, Note_on_c, 0, 75, 61
2, 13759, Note_on_c, 0, 75, 0
2, 13760, Note_on_c, 0, 73, 61
2, 13775, Note_on_c, 0, 73, 0
2, 13776, Note_on_c, 0, 72, 61
2, 13791, Note_on_c, 0, 72, 0
2, 13792, Note_on_c, 0, 70, 61
2, 13807, Note_on_c, 0, 70, 0
2, 13808, Note_on_c, 0, 68, 61
2, 13823, Note_on_c, 0, 68, 0
2, 13824, Note_on_c, 0, 67, 61
2, 13913, Note_on_c, 0, 67, 0
2, 13920, Note_on_c, 0, 68, 61
2, 14009, Note_on_c, 0, 68, 0
2, 14016, Note_on_c, 0, 70, 61
2, 14105, Note_on_c, 0, 70, 0
2, 14112, Note_on_c, 0, 72, 61
2, 14157, Note_on_c, 0, 72, 0
2, 14208, Note_on_c, 0, 74, 61
2, 14297, Note_on_c, 0, 74, 0
2, 14304, Note_on_c, 0, 80, 72
2, 14393, Note_on_c, 0, 80, 0
2, 14400, Note_on_c, 0, 80, 84
2, 14400, Note_on_c, 0, 74, 84
2, 14489, Note_on_c, 0, 80, 0
2, 14489, Note_on_c, 0, 74, 0
2, 14496, Note_on_c, 0, 67, 84
2, 14508, Note_on_c, 0, 67, 0
2, 14508, Note_on_c, 0, 70, 84
2, 14520, Note_on_c, 0, 70, 0
2, 14520, Note_on_c, 0, 79, 84
2, 14520, Note_on_c, 0, 75, 84
2, 14688, Note_on_c, 0, 79, 0
2, 14688, Note_on_c, 0, 75, 0
2, 14688, Note_on_c, 0, 78, 61
2, 14712, Note_on_c, 0, 78, 0
2, 14712, Note_on_c, 0, 80, 61
2, 14735, Note_on_c, 0, 80, 0
2, 14736, Note_on_c, 0, 79, 77
2, 14760, Note_on_c, 0, 79, 0
2, 14760, Note_on_c, 0, 75, 61
2, 14783, Note_on_c, 0, 75, 0
2, 14784, Note_on_c, 0, 74, 61
2, 14808, Note_on_c, 0, 74, 0
2, 14808, Note_on_c, 0, 77, 61
2, 14831, Note_on_c, 0, 77, 0
2, 14832, Note_on_c, 0, 75, 77
2, 14856, Note_on_c, 0, 75, 0
2, 14856, Note_on_c, 0, 70, 61
2, 14879, Note_on_c, 0, 70, 0
2, 14880, Note_on_c, 0, 69, 61
2, 14904, Note_on_c, 0, 69, 0
2, 14904, Note_on_c, 0, 72, 61
2, 14927, Note_on_c, 0, 72, 0
2, 14928, Note_on_c, 0, 70, 77
2, 14952, Note_on_c, 0, 70, 0
2, 14952, Note_on_c, 0, 67, 61
2, 14975, Note_on_c, 0, 67, 0
2, 14976, Note_on_c, 0, 66, 61
2, 15000, Note_on_c, 0, 66, 0
2, 15000, Note_on_c, 0, 68, 61
2, 15023, Note_on_c, 0, 68, 0
2, 15024, Note_on_c, 0, 67, 77
2, 15048, Note_on_c, 0, 67, 0
2, 15048, Note_on_c, 0, 63, 61
2, 15071, Note_on_c, 0, 63, 0
2, 15072, Note_on_c, 0, 62, 61
2, 15095, Note_on_c, 0, 62, 0
2, 15096, Note_on_c, 0, 65, 61
2, 15119, Note_on_c, 0, 65, 0
2, 15120, Note_on_c, 0, 65, 77
2, 15144, Note_on_c, 0, 65, 0
2, 15144, Note_on_c, 0, 63, 63
2, 15167, Note_on_c, 0, 63, 0
2, 15168, Note_on_c, 0, 63, 65
2, 15178, Note_on_c, 0, 63, 0
2, 15192, Note_on_c, 0, 63, 67
2, 15202, Note_on_c, 0, 63, 0
2, 15216, Note_on_c, 0, 63, 70
2, 15226, Note_on_c, 0, 63, 0
2, 15240, Note_on_c, 0, 63, 72
2, 15250, Note_on_c, 0, 63, 0
2, 15264, Note_on_c, 0, 63, 74
2, 15274, Note_on_c, 0, 63, 0
2, 15288, Note_on_c, 0, 63, 77
2, 15298, Note_on_c, 0, 63, 0
2, 15312, Note_on_c, 0, 63, 79
2, 15357, Note_on_c, 0, 63, 0
2, 15360, Note_on_c, 0, 73, 100
2, 15360, Note_on_c, 0, 67, 100
2, 15504, Note_on_c, 0, 73, 0
2, 15504, Note_on_c, 0, 67, 0
2, 15552, Note_on_c, 0, 84, 84
2, 15552, Note_on_c, 0, 80, 84
2, 15663, Note_on_c, 0, 84, 0
2, 15663, Note_on_c, 0, 80, 0
2, 15664, Note_on_c, 0, 82, 84
2, 15664, Note_on_c, 0, 79, 84
2, 15679, Note_on_c, 0, 82, 0
2, 15679, Note_on_c, 0, 79, 0
2, 15680, Note_on_c, 0, 80, 84
2, 15680, Note_on_c, 0, 77, 84
2, 15695, Note_on_c, 0, 80, 0
2, 15695, Note_on_c, 0, 77, 0
2, 15696, Note_on_c, 0, 79, 84
2, 15696, Note_on_c, 0, 75, 84
2, 15711, Note_on_c, 0, 79, 0
2, 15711, Note_on_c, 0, 75, 0
2, 15712, Note_on_c, 0, 77, 82
2, 15712, Note_on_c, 0, 73, 82
2, 15727, Note_on_c, 0, 77, 0
2, 15727, Note_on_c, 0, 73, 0
2, 15728, Note_on_c, 0, 75, 80
2, 15728, Note_on_c, 0, 72, 80
2, 15743, Note_on_c, 0, 75, 0
2, 15743, Note_on_c, 0, 72, 0
2, 15744, Note_on_c, 0, 73, 78
2, 15744, Note_on_c, 0, 70, 78
2, 15789, Note_on_c, 0, 73, 0
2, 15789, Note_on_c, 0, 70, 0
2, 15792, Note_on_c, 0, 72, 70
2, 15792, Note_on_c, 0, 68, 70
2, 15837, Note_on_c, 0, 72, 0
2, 15837, Note_on_c, 0, 68, 0
2, 15888, Note_on_c, 0, 77, 61
2, 15888, Note_on_c, 0, 73, 61
2, 15933, Note_on_c, 0, 77, 0
2, 15933, Note_on_c, 0, 73, 0
2, 15936, Note_on_c, 0, 75, 61
2, 15936, Note_on_c, 0, 72, 61
2, 15981, Note_on_c, 0, 75, 0
2, 15981, Note_on_c, 0, 72, 0
2, 15984, Note_on_c, 0, 73, 61
2, 15984, Note_on_c, 0, 70, 61
2, 16073, Note_on_c, 0, 73, 0
2, 16073, Note_on_c, 0, 70, 0
2, 16080, Note_on_c, 0, 72, 61
2, 16080, Note_on_c, 0, 68, 61
2, 16125, Note_on_c, 0, 72, 0
2, 16125, Note_on_c, 0, 68, 0
2, 16176, Note_on_c, 0, 73, 61
2, 16176, Note_on_c, 0, 70, 61
2, 16265, Note_on_c, 0, 73, 0
2, 16265, Note_on_c, 0, 70, 0
2, 16272, Note_on_c, 0, 72, 61
2, 16272, Note_on_c, 0, 68, 61
2, 16361, Note_on_c, 0, 72, 0
2, 16361, Note_on_c, 0, 68, 0
2, 16368, Note_on_c, 0, 70, 61
2, 16368, Note_on_c, 0, 67, 61
2, 16464, Note_on_c, 0, 70, 0
2, 16464, Note_on_c, 0, 71, 61
2, 16509, Note_on_c, 0, 71, 0
2, 16509, Note_on_c, 0, 67, 0
2, 16512, Note_on_c, 0, 72, 61
2, 16512, Note_on_c, 0, 68, 61
2, 16601, Note_on_c, 0, 72, 0
2, 16601, Note_on_c, 0, 68, 0
2, 16624, Note_on_c, 0, 75, 61
2, 16624, Note_on_c, 0, 72, 61
2, 16631, Note_on_c, 0, 75, 0
2, 16631, Note_on_c, 0, 72, 0
2, 16640, Note_on_c, 0, 77, 64
2, 16640, Note_on_c, 0, 73, 64
2, 16647, Note_on_c, 0, 77, 0
2, 16647, Note_on_c, 0, 73, 0
2, 16656, Note_on_c, 0, 79, 67
2, 16656, Note_on_c, 0, 75, 67
2, 16663, Note_on_c, 0, 79, 0
2, 16663, Note_on_c, 0, 75, 0
2, 16672, Note_on_c, 0, 80, 70
2, 16672, Note_on_c, 0, 77, 70
2, 16679, Note_on_c, 0, 80, 0
2, 16679, Note_on_c, 0, 77, 0
2, 16688, Note_on_c, 0, 82, 74
2, 16688, Note_on_c, 0, 79, 74
2, 16695, Note_on_c, 0, 82, 0
2, 16695, Note_on_c, 0, 79, 0
2, 16704, Note_on_c, 0, 84, 100
2, 16704, Note_on_c, 0, 80, 100
2, 16815, Note_on_c, 0, 84, 0
2, 16815, Note_on_c, 0, 80, 0
2, 16816, Note_on_c, 0, 82, 84
2, 16816, Note_on_c, 0, 79, 84
2, 16831, Note_on_c, 0, 82, 0
2, 16831, Note_on_c, 0, 79, 0
2, 16832, Note_on_c, 0, 80, 84
2, 16832, Note_on_c, 0, 77, 84
2, 16847, Note_on_c, 0, 80, 0
2, 16847, Note_on_c, 0, 77, 0
2, 16848, Note_on_c, 0, 79, 84
2, 16848, Note_on_c, 0, 75, 84
2, 16863, Note_on_c, 0, 79, 0
2, 16863, Note_on_c, 0, 75, 0
2, 16864, Note_on_c, 0, 77, 82
2, 16864, Note_on_c, 0, 73, 82
2, 16879, Note_on_c, 0, 77, 0
2, 16879, Note_on_c, 0, 73, 0
2, 16880, Note_on_c, 0, 75, 80
2, 16880, Note_on_c, 0, 72, 80
2, 16895, Note_on_c, 0, 75, 0
2, 16895, Note_on_c, 0, 72, 0
2, 16896, Note_on_c, 0, 73, 78
2, 16896, Note_on_c, 0, 70, 78
2, 16941, Note_on_c, 0, 73, 0
2, 16941, Note_on_c, 0, 70, 0
2, 16944, Note_on_c, 0, 72, 70
2, 16944, Note_on_c, 0, 68, 70
2, 16989, Note_on_c, 0, 72, 0
2, 16989, Note_on_c, 0, 68, 0
2, 17040, Note_on_c, 0, 77, 61
2, 17040, Note_on_c, 0, 73, 61
2, 17085, Note_on_c, 0, 77, 0
2, 17085, Note_on_c, 0, 73, 0
2, 17088, Note_on_c, 0, 75, 61
2, 17088, Note_on_c, 0, 72, 61
2, 17133, Note_on_c, 0, 75, 0
2, 17133, Note_on_c, 0, 72, 0
2, 17136, Note_on_c, 0, 73, 61
2, 17136, Note_on_c, 0, 70, 61
2, 17225, Note_on_c, 0, 73, 0
2, 17225, Note_on_c, 0, 70, 0
2, 17232, Note_on_c, 0, 72, 61
2, 17232, Note_on_c, 0, 68, 61
2, 17325, Note_on_c, 0, 72, 0
2, 17325, Note_on_c, 0, 68, 0
2, 17328, Note_on_c, 0, 70, 61
2, 17417, Note_on_c, 0, 70, 0
2, 17424, Note_on_c, 0, 77, 61
2, 17469, Note_on_c, 0, 77, 0
2, 17472, Note_on_c, 0, 75, 61
2, 17517, Note_on_c, 0, 75, 0
2, 17520, Note_on_c, 0, 67, 61
2, 17520, Note_on_c, 0, 61, 61
2, 17520, Note_on_c, 0, 58, 61
2, 17565, Note_on_c, 0, 67, 0
2, 17565, Note_on_c, 0, 61, 0
2, 17565, Note_on_c, 0, 58, 0
2, 17568, Note_on_c, 0, 67, 61
2, 17568, Note_on_c, 0, 61, 61
2, 17568, Note_on_c, 0, 58, 61
2, 17657, Note_on_c, 0, 67, 0
2, 17657, Note_on_c, 0, 61, 0
2, 17657, Note_on_c, 0, 58, 0
2, 17664, Note_on_c, 0, 60, 61
2, 17672, Note_on_c, 0, 63, 61
2, 17680, Note_on_c, 0, 68, 61
2, 17757, Note_on_c, 0, 68, 0
2, 17757, Note_on_c, 0, 63, 0
2, 17757, Note_on_c, 0, 60, 0
2, 18000, Note_on_c, 0, 77, 61
2, 18045, Note_on_c, 0, 77, 0
2, 18048, Note_on_c, 0, 75, 61
2, 18054, Note_on_c, 0, 75, 0
2, 18054, Note_on_c, 0, 77, 61
2, 18060, Note_on_c, 0, 77, 0
2, 18060, Note_on_c, 0, 75, 61
2, 18095, Note_on_c, 0, 75, 0
2, 18096, Note_on_c, 0, 74, 61
2, 18189, Note_on_c, 0, 74, 0
2, 18192, Note_on_c, 0, 77, 61
2, 18237, Note_on_c, 0, 77, 0
2, 18240, Note_on_c, 0, 75, 61
2, 18329, Note_on_c, 0, 75, 0
2, 18336, Note_on_c, 0, 70, 61
2, 18477, Note_on_c, 0, 70, 0
2, 18480, Note_on_c, 0, 67, 61
2, 18525, Note_on_c, 0, 67, 0
2, 18528, Note_on_c, 0, 68, 77
2, 18624, Note_on_c, 0, 68, 0
2, 18624, Note_on_c, 0, 68, 61
2, 18765, Note_on_c, 0, 68, 0
2, 18768, Note_on_c, 0, 71, 61
2, 18813, Note_on_c, 0, 71, 0
2, 18816, Note_on_c, 0, 70, 61
2, 18861, Note_on_c, 0, 70, 0
2, 18864, Note_on_c, 0, 68, 61
2, 18909, Note_on_c, 0, 68, 0
2, 18912, Note_on_c, 0, 66, 61
2, 18918, Note_on_c, 0, 66, 0
2, 18918, Note_on_c, 0, 68, 61
2, 18924, Note_on_c, 0, 68, 0
2, 18924, Note_on_c, 0, 66, 61
2, 18959, Note_on_c, 0, 66, 0
2, 18960, Note_on_c, 0, 65, 61
2, 19005, Note_on_c, 0, 65, 0
2, 19008, Note_on_c, 0, 66, 61
2, 19141, Note_on_c, 0, 66, 0
2, 19152, Note_on_c, 0, 71, 61
2, 19197, Note_on_c, 0, 71, 0
2, 19200, Note_on_c, 0, 70, 61
2, 19245, Note_on_c, 0, 70, 0
2, 19248, Note_on_c, 0, 69, 61
2, 19282, Note_on_c, 0, 69, 0
2, 19284, Note_on_c, 0, 75, 61
2, 19296, Note_on_c, 0, 75, 0
2, 19296, Note_on_c, 0, 75, 61
2, 19392, Note_on_c, 0, 75, 0
2, 19392, Note_on_c, 0, 74, 61
2, 19437, Note_on_c, 0, 74, 0
2, 19440, Note_on_c, 0, 71, 61
2, 19485, Note_on_c, 0, 71, 0
2, 19488, Note_on_c, 0, 70, 61
2, 19533, Note_on_c, 0, 70, 0
2, 19536, Note_on_c, 0, 65, 61
2, 19536, Note_on_c, 0, 62, 61
2, 19581, Note_on_c, 0, 65, 0
2, 19581, Note_on_c, 0, 62, 0
2, 19584, Note_on_c, 0, 63, 61
2, 19629, Note_on_c, 0, 63, 0
2, 19632, Note_on_c, 0, 65, 61
2, 19677, Note_on_c, 0, 65, 0
2, 19680, Note_on_c, 0, 66, 61
2, 19917, Note_on_c, 0, 66, 0
2, 19920, Note_on_c, 0, 66, 61
2, 19965, Note_on_c, 0, 66, 0
2, 19968, Note_on_c, 0, 65, 61
2, 20013, Note_on_c, 0, 65, 0
2, 20016, Note_on_c, 0, 75, 61
2, 20061, Note_on_c, 0, 75, 0
2, 20064, Note_on_c, 0, 69, 61
2, 20109, Note_on_c, 0, 69, 0
2, 20112, Note_on_c, 0, 72, 61
2, 20157, Note_on_c, 0, 72, 0
2, 20352, Note_on_c, 0, 85, 61
2, 20448, Note_on_c, 0, 85, 0
2, 20448, Note_on_c, 0, 84, 61
2, 20581, Note_on_c, 0, 84, 0
2, 20592, Note_on_c, 0, 81, 61
2, 20637, Note_on_c, 0, 81, 0
2, 20640, Note_on_c, 0, 82, 61
2, 20685, Note_on_c, 0, 82, 0
2, 20688, Note_on_c, 0, 84, 61
2, 20733, Note_on_c, 0, 84, 0
2, 20736, Note_on_c, 0, 77, 61
2, 20913, Note_on_c, 0, 77, 0
2, 20928, Note_on_c, 0, 85, 61
2, 21024, Note_on_c, 0, 85, 0
2, 21024, Note_on_c, 0, 84, 61
2, 21201, Note_on_c, 0, 84, 0
2, 21216, Note_on_c, 0, 83, 61
2, 21312, Note_on_c, 0, 83, 0
2, 21312, Note_on_c, 0, 82, 61
2, 21489, Note_on_c, 0, 82, 0
2, 21504, Note_on_c, 0, 82, 61
2, 21600, Note_on_c, 0, 82, 0
2, 21600, Note_on_c, 0, 80, 61
2, 21733, Note_on_c, 0, 80, 0
2, 21744, Note_on_c, 0, 80, 61
2, 21789, Note_on_c, 0, 80, 0
2, 21792, Note_on_c, 0, 78, 61
2, 21933, Note_on_c, 0, 78, 0
2, 21936, Note_on_c, 0, 77, 61
2, 22025, Note_on_c, 0, 77, 0
2, 22032, Note_on_c, 0, 75, 61
2, 22077, Note_on_c, 0, 75, 0
2, 22080, Note_on_c, 0, 82, 61
2, 22125, Note_on_c, 0, 82, 0
2, 22128, Note_on_c, 0, 73, 61
2, 22173, Note_on_c, 0, 73, 0
2, 22176, Note_on_c, 0, 73, 61
2, 22199, Note_on_c, 0, 73, 0
2, 22200, Note_on_c, 0, 72, 61
2, 22223, Note_on_c, 0, 72, 0
2, 22224, Note_on_c, 0, 75, 61
2, 22247, Note_on_c, 0, 75, 0
2, 22248, Note_on_c, 0, 67, 61
2, 22271, Note_on_c, 0, 67, 0
2, 22272, Note_on_c, 0, 70, 61
2, 22278, Note_on_c, 0, 70, 0
2, 22278, Note_on_c, 0, 68, 61
2, 22284, Note_on_c, 0, 68, 0
2, 22284, Note_on_c, 0, 67, 61
2, 22290, Note_on_c, 0, 67, 0
2, 22290, Note_on_c, 0, 68, 61
2, 22397, Note_on_c, 0, 68, 0
2, 22464, Note_on_c, 0, 61, 75
2, 22509, Note_on_c, 0, 61, 0
2, 22512, Note_on_c, 0, 65, 75
2, 22557, Note_on_c, 0, 65, 0
2, 22560, Note_on_c, 0, 68, 75
2, 22605, Note_on_c, 0, 68, 0
2, 22608, Note_on_c, 0, 73, 75
2, 22653, Note_on_c, 0, 73, 0
2, 22656, Note_on_c, 0, 72, 75
2, 22701, Note_on_c, 0, 72, 0
2, 22704, Note_on_c, 0, 70, 75
2, 22797, Note_on_c, 0, 70, 0
2, 22800, Note_on_c, 0, 67, 75
2, 22845, Note_on_c, 0, 67, 0
2, 22848, Note_on_c, 0, 68, 75
2, 22915, Note_on_c, 0, 68, 0
2, 22920, Note_on_c, 0, 85, 75
2, 22928, Note_on_c, 0, 85, 0
2, 22928, Note_on_c, 0, 82, 75
2, 22936, Note_on_c, 0, 82, 0
2, 22936, Note_on_c, 0, 79, 75
2, 22944, Note_on_c, 0, 79, 0
2, 22944, Note_on_c, 0, 80, 75
2, 22989, Note_on_c, 0, 80, 0
2, 23040, Note_on_c, 0, 59, 69
2, 23085, Note_on_c, 0, 59, 0
2, 23088, Note_on_c, 0, 63, 69
2, 23133, Note_on_c, 0, 63, 0
2, 23136, Note_on_c, 0, 68, 69
2, 23181, Note_on_c, 0, 68, 0
2, 23184, Note_on_c, 0, 71, 69
2, 23229, Note_on_c, 0, 71, 0
2, 23232, Note_on_c, 0, 70, 69
2, 23277, Note_on_c, 0, 70, 0
2, 23280, Note_on_c, 0, 68, 69
2, 23373, Note_on_c, 0, 68, 0
2, 23376, Note_on_c, 0, 65, 69
2, 23421, Note_on_c, 0, 65, 0
2, 23424, Note_on_c, 0, 66, 69
2, 23491, Note_on_c, 0, 66, 0
2, 23496, Note_on_c, 0, 83, 69
2, 23504, Note_on_c, 0, 83, 0
2, 23504, Note_on_c, 0, 80, 69
2, 23512, Note_on_c, 0, 80, 0
2, 23512, Note_on_c, 0, 77, 69
2, 23520, Note_on_c, 0, 77, 0
2, 23520, Note_on_c, 0, 78, 69
2, 23565, Note_on_c, 0, 78, 0
2, 23616, Note_on_c, 0, 57, 61
2, 23661, Note_on_c, 0, 57, 0
2, 23664, Note_on_c, 0, 61, 61
2, 23709, Note_on_c, 0, 61, 0
2, 23712, Note_on_c, 0, 66, 61
2, 23757, Note_on_c, 0, 66, 0
2, 23760, Note_on_c, 0, 69, 61
2, 23805, Note_on_c, 0, 69, 0
2, 23808, Note_on_c, 0, 68, 61
2, 23853, Note_on_c, 0, 68, 0
2, 23856, Note_on_c, 0, 66, 61
2, 23901, Note_on_c, 0, 66, 0
2, 23904, Note_on_c, 0, 73, 61
2, 23952, Note_on_c, 0, 73, 0
2, 23952, Note_on_c, 0, 72, 61
2, 23993, Note_on_c, 0, 72, 0
2, 24000, Note_on_c, 0, 72, 61
2, 24067, Note_on_c, 0, 72, 0
2, 24072, Note_on_c, 0, 73, 61
2, 24082, Note_on_c, 0, 73, 0
2, 24096, Note_on_c, 0, 75, 61
2, 24103, Note_on_c, 0, 75, 0
2, 24103, Note_on_c, 0, 73, 62
2, 24110, Note_on_c, 0, 73, 0
2, 24110, Note_on_c, 0, 75, 63
2, 24117, Note_on_c, 0, 75, 0
2, 24117, Note_on_c, 0, 73, 65
2, 24124, Note_on_c, 0, 73, 0
2, 24124, Note_on_c, 0, 75, 66
2, 24131, Note_on_c, 0, 75, 0
2, 24131, Note_on_c, 0, 73, 68
2, 24138, Note_on_c, 0, 73, 0
2, 24138, Note_on_c, 0, 75, 69
2, 24145, Note_on_c, 0, 75, 0
2, 24145, Note_on_c, 0, 73, 71
2, 24152, Note_on_c, 0, 73, 0
2, 24152, Note_on_c, 0, 75, 72
2, 24159, Note_on_c, 0, 75, 0
2, 24159, Note_on_c, 0, 73, 73
2, 24166, Note_on_c, 0, 73, 0
2, 24166, Note_on_c, 0, 72, 75
2, 24180, Note_on_c, 0, 72, 0
2, 24180, Note_on_c, 0, 73, 78
2, 24192, Note_on_c, 0, 73, 0
2, 24192, Note_on_c, 0, 75, 84
2, 24295, Note_on_c, 0, 75, 0
2, 24295, Note_on_c, 0, 65, 69
2, 24309, Note_on_c, 0, 65, 0
2, 24309, Note_on_c, 0, 66, 69
2, 24316, Note_on_c, 0, 66, 0
2, 24316, Note_on_c, 0, 68, 69
2, 24323, Note_on_c, 0, 68, 0
2, 24323, Note_on_c, 0, 66, 69
2, 24330, Note_on_c, 0, 66, 0
2, 24330, Note_on_c, 0, 68, 69
2, 24337, Note_on_c, 0, 68, 0
2, 24337, Note_on_c, 0, 66, 69
2, 24344, Note_on_c, 0, 66, 0
2, 24344, Note_on_c, 0, 68, 69
2, 24351, Note_on_c, 0, 68, 0
2, 24351, Note_on_c, 0, 66, 69
2, 24358, Note_on_c, 0, 66, 0
2, 24358, Note_on_c, 0, 68, 69
2, 24365, Note_on_c, 0, 68, 0
2, 24365, Note_on_c, 0, 66, 69
2, 24372, Note_on_c, 0, 66, 0
2, 24372, Note_on_c, 0, 68, 69
2, 24378, Note_on_c, 0, 68, 0
2, 24378, Note_on_c, 0, 66, 69
2, 24384, Note_on_c, 0, 66, 0
2, 24384, Note_on_c, 0, 68, 69
2, 24391, Note_on_c, 0, 68, 0
2, 24391, Note_on_c, 0, 66, 69
2, 24398, Note_on_c, 0, 66, 0
2, 24398, Note_on_c, 0, 68, 69
2, 24405, Note_on_c, 0, 68, 0
2, 24405, Note_on_c, 0, 66, 69
2, 24412, Note_on_c, 0, 66, 0
2, 24412, Note_on_c, 0, 65, 69
2, 24419, Note_on_c, 0, 65, 0
2, 24419, Note_on_c, 0, 66, 69
2, 24426, Note_on_c, 0, 66, 0
2, 24426, Note_on_c, 0, 68, 69
2, 24432, Note_on_c, 0, 68, 0
2, 24432, Note_on_c, 0, 70, 69
2, 24447, Note_on_c, 0, 70, 0
2, 24448, Note_on_c, 0, 68, 69
2, 24463, Note_on_c, 0, 68, 0
2, 24464, Note_on_c, 0, 66, 69
2, 24479, Note_on_c, 0, 66, 0
2, 24480, Note_on_c, 0, 65, 61
2, 24503, Note_on_c, 0, 65, 0
2, 24504, Note_on_c, 0, 68, 61
2, 24514, Note_on_c, 0, 68, 0
2, 24528, Note_on_c, 0, 70, 61
2, 24535, Note_on_c, 0, 70, 0
2, 24535, Note_on_c, 0, 68, 61
2, 24542, Note_on_c, 0, 68, 0
2, 24542, Note_on_c, 0, 70, 61
2, 24549, Note_on_c, 0, 70, 0
2, 24549, Note_on_c, 0, 68, 61
2, 24556, Note_on_c, 0, 68, 0
2, 24556, Note_on_c, 0, 66, 61
2, 24563, Note_on_c, 0, 66, 0
2, 24563, Note_on_c, 0, 68, 61
2, 24576, Note_on_c, 0, 68, 0
2, 24600, Note_on_c, 0, 68, 61
2, 24610, Note_on_c, 0, 68, 0
2, 24624, Note_on_c, 0, 70, 61
2, 24631, Note_on_c, 0, 70, 0
2, 24631, Note_on_c, 0, 68, 61
2, 24638, Note_on_c, 0, 68, 0
2, 24638, Note_on_c, 0, 70, 61
2, 24645, Note_on_c, 0, 70, 0
2, 24645, Note_on_c, 0, 68, 61
2, 24652, Note_on_c, 0, 68, 0
2, 24652, Note_on_c, 0, 66, 61
2, 24659, Note_on_c, 0, 66, 0
2, 24659, Note_on_c, 0, 68, 61
2, 24672, Note_on_c, 0, 68, 0
2, 24672, Note_on_c, 0, 77, 61
2, 24687, Note_on_c, 0, 77, 0
2, 24688, Note_on_c, 0, 75, 61
2, 24703, Note_on_c, 0, 75, 0
2, 24704, Note_on_c, 0, 73, 61
2, 24719, Note_on_c, 0, 73, 0
2, 24720, Note_on_c, 0, 72, 61
2, 24735, Note_on_c, 0, 72, 0
2, 24736, Note_on_c, 0, 70, 61
2, 24751, Note_on_c, 0, 70, 0
2, 24752, Note_on_c, 0, 68, 61
2, 24767, Note_on_c, 0, 68, 0
2, 24768, Note_on_c, 0, 68, 61
2, 24864, Note_on_c, 0, 68, 0
2, 24864, Note_on_c, 0, 66, 61
2, 24953, Note_on_c, 0, 66, 0
2, 25080, Note_on_c, 0, 66, 61
2, 25090, Note_on_c, 0, 66, 0
2, 25104, Note_on_c, 0, 68, 61
2, 25111, Note_on_c, 0, 68, 0
2, 25111, Note_on_c, 0, 66, 61
2, 25118, Note_on_c, 0, 66, 0
2, 25118, Note_on_c, 0, 68, 61
2, 25125, Note_on_c, 0, 68, 0
2, 25125, Note_on_c, 0, 66, 61
2, 25132, Note_on_c, 0, 66, 0
2, 25132, Note_on_c, 0, 65, 61
2, 25139, Note_on_c, 0, 65, 0
2, 25139, Note_on_c, 0, 66, 61
2, 25152, Note_on_c, 0, 66, 0
2, 25176, Note_on_c, 0, 66, 61
2, 25186, Note_on_c, 0, 66, 0
2, 25200, Note_on_c, 0, 68, 61
2, 25207, Note_on_c, 0, 68, 0
2, 25207, Note_on_c, 0, 66, 61
2, 25214, Note_on_c, 0, 66, 0
2, 25214, Note_on_c, 0, 68, 61
2, 25221, Note_on_c, 0, 68, 0
2, 25221, Note_on_c, 0, 66, 61
2, 25228, Note_on_c, 0, 66, 0
2, 25228, Note_on_c, 0, 65, 61
2, 25235, Note_on_c, 0, 65, 0
2, 25235, Note_on_c, 0, 66, 61
2, 25248, Note_on_c, 0, 66, 0
2, 25248, Note_on_c, 0, 75, 61
2, 25263, Note_on_c, 0, 75, 0
2, 25264, Note_on_c, 0, 73, 61
2, 25279, Note_on_c, 0, 73, 0
2, 25280, Note_on_c, 0, 72, 61
2, 25295, Note_on_c, 0, 72, 0
2, 25296, Note_on_c, 0, 70, 61
2, 25311, Note_on_c, 0, 70, 0
2, 25312, Note_on_c, 0, 68, 61
2, 25327, Note_on_c, 0, 68, 0
2, 25328, Note_on_c, 0, 66, 61
2, 25343, Note_on_c, 0, 66, 0
2, 25344, Note_on_c, 0, 66, 61
2, 25440, Note_on_c, 0, 66, 0
2, 25440, Note_on_c, 0, 65, 61
2, 25529, Note_on_c, 0, 65, 0
2, 25536, Note_on_c, 0, 68, 61
2, 25655, Note_on_c, 0, 68, 0
2, 25656, Note_on_c, 0, 61, 61
2, 25666, Note_on_c, 0, 61, 0
2, 25680, Note_on_c, 0, 63, 61
2, 25687, Note_on_c, 0, 63, 0
2, 25687, Note_on_c, 0, 61, 61
2, 25694, Note_on_c, 0, 61, 0
2, 25694, Note_on_c, 0, 63, 61
2, 25701, Note_on_c, 0, 63, 0
2, 25701, Note_on_c, 0, 61, 61
2, 25708, Note_on_c, 0, 61, 0
2, 25708, Note_on_c, 0, 60, 61
2, 25715, Note_on_c, 0, 60, 0
2, 25715, Note_on_c, 0, 60, 61
2, 25728, Note_on_c, 0, 60, 0
2, 25728, Note_on_c, 0, 66, 61
2, 25751, Note_on_c, 0, 66, 0
2, 25752, Note_on_c, 0, 61, 61
2, 25762, Note_on_c, 0, 61, 0
2, 25776, Note_on_c, 0, 63, 61
2, 25783, Note_on_c, 0, 63, 0
2, 25783, Note_on_c, 0, 61, 61
2, 25790, Note_on_c, 0, 61, 0
2, 25790, Note_on_c, 0, 63, 61
2, 25797, Note_on_c, 0, 63, 0
2, 25797, Note_on_c, 0, 61, 61
2, 25804, Note_on_c, 0, 61, 0
2, 25804, Note_on_c, 0, 60, 61
2, 25811, Note_on_c, 0, 60, 0
2, 25811, Note_on_c, 0, 61, 61
2, 25824, Note_on_c, 0, 61, 0
2, 25824, Note_on_c, 0, 70, 61
2, 25839, Note_on_c, 0, 70, 0
2, 25840, Note_on_c, 0, 68, 61
2, 25855, Note_on_c, 0, 68, 0
2, 25856, Note_on_c, 0, 66, 61
2, 25871, Note_on_c, 0, 66, 0
2, 25872, Note_on_c, 0, 65, 61
2, 25887, Note_on_c, 0, 65, 0
2, 25888, Note_on_c, 0, 63, 61
2, 25903, Note_on_c, 0, 63, 0
2, 25904, Note_on_c, 0, 61, 61
2, 25919, Note_on_c, 0, 61, 0
2, 25920, Note_on_c, 0, 60, 61
2, 26009, Note_on_c, 0, 60, 0
2, 26016, Note_on_c, 0, 61, 61
2, 26105, Note_on_c, 0, 61, 0
2, 26112, Note_on_c, 0, 63, 61
2, 26201, Note_on_c, 0, 63, 0
2, 26208, Note_on_c, 0, 65, 61
2, 26297, Note_on_c, 0, 65, 0
2, 26304, Note_on_c, 0, 67, 61
2, 26393, Note_on_c, 0, 67, 0
2, 26400, Note_on_c, 0, 73, 68
2, 26489, Note_on_c, 0, 73, 0
2, 26496, Note_on_c, 0, 73, 76
2, 26496, Note_on_c, 0, 67, 76
2, 26585, Note_on_c, 0, 73, 0
2, 26585, Note_on_c, 0, 67, 0
2, 26592, Note_on_c, 0, 60, 84
2, 26604, Note_on_c, 0, 60, 0
2, 26604, Note_on_c, 0, 63, 84
2, 26616, Note_on_c, 0, 63, 0
2, 26616, Note_on_c, 0, 72, 84
2, 26616, Note_on_c, 0, 68, 84
2, 26777, Note_on_c, 0, 72, 0
2, 26777, Note_on_c, 0, 68, 0
2, 26784, Note_on_c, 0, 71, 61
2, 26807, Note_on_c, 0, 71, 0
2, 26808, Note_on_c, 0, 72, 61
2, 26831, Note_on_c, 0, 72, 0
2, 26832, Note_on_c, 0, 68, 61
2, 26855, Note_on_c, 0, 68, 0
2, 26856, Note_on_c, 0, 63, 61
2, 26879, Note_on_c, 0, 63, 0
2, 26880, Note_on_c, 0, 67, 61
2, 26903, Note_on_c, 0, 67, 0
2, 26904, Note_on_c, 0, 68, 61
2, 26927, Note_on_c, 0, 68, 0
2, 26928, Note_on_c, 0, 63, 61
2, 26951, Note_on_c, 0, 63, 0
2, 26952, Note_on_c, 0, 60, 61
2, 26975, Note_on_c, 0, 60, 0
2, 26976, Note_on_c, 0, 62, 61
2, 26999, Note_on_c, 0, 62, 0
2, 27000, Note_on_c, 0, 63, 61
2, 27023, Note_on_c, 0, 63, 0
2, 27024, Note_on_c, 0, 60, 61
2, 27047, Note_on_c, 0, 60, 0
2, 27048, Note_on_c, 0, 56, 61
2, 27071, Note_on_c, 0, 56, 0
2, 27216, Note_on_c, 0, 68, 61
2, 27224, Note_on_c, 0, 68, 0
2, 27224, Note_on_c, 0, 70, 61
2, 27232, Note_on_c, 0, 70, 0
2, 27232, Note_on_c, 0, 72, 61
2, 27240, Note_on_c, 0, 72, 0
2, 27240, Note_on_c, 0, 73, 61
2, 27248, Note_on_c, 0, 73, 0
2, 27248, Note_on_c, 0, 75, 61
2, 27256, Note_on_c, 0, 75, 0
2, 27256, Note_on_c, 0, 77, 61
2, 27264, Note_on_c, 0, 77, 0
2, 27264, Note_on_c, 0, 78, 61
2, 27331, Note_on_c, 0, 78, 0
2, 27456, Note_on_c, 0, 77, 84
2, 27501, Note_on_c, 0, 77, 0
2, 27504, Note_on_c, 0, 73, 84
2, 27504, Note_on_c, 0, 70, 84
2, 27549, Note_on_c, 0, 73, 0
2, 27549, Note_on_c, 0, 70, 0
2, 27552, Note_on_c, 0, 72, 80
2, 27552, Note_on_c, 0, 68, 80
2, 27597, Note_on_c, 0, 72, 0
2, 27597, Note_on_c, 0, 68, 0
2, 27600, Note_on_c, 0, 70, 76
2, 27600, Note_on_c, 0, 66, 76
2, 27645, Note_on_c, 0, 70, 0
2, 27645, Note_on_c, 0, 66, 0
2, 27648, Note_on_c, 0, 70, 72
2, 27648, Note_on_c, 0, 66, 72
2, 27693, Note_on_c, 0, 70, 0
2, 27693, Note_on_c, 0, 66, 0
2, 27696, Note_on_c, 0, 68, 68
2, 27696, Note_on_c, 0, 65, 68
2, 27785, Note_on_c, 0, 68, 0
2, 27785, Note_on_c, 0, 65, 0
2, 27792, Note_on_c, 0, 66, 61
2, 27792, Note_on_c, 0, 63, 61
2, 27881, Note_on_c, 0, 66, 0
2, 27881, Note_on_c, 0, 63, 0
2, 27888, Note_on_c, 0, 65, 61
2, 27888, Note_on_c, 0, 61, 61
2, 27933, Note_on_c, 0, 65, 0
2, 27933, Note_on_c, 0, 61, 0
2, 27984, Note_on_c, 0, 66, 61
2, 27984, Note_on_c, 0, 63, 61
2, 28073, Note_on_c, 0, 66, 0
2, 28073, Note_on_c, 0, 63, 0
2, 28080, Note_on_c, 0, 65, 61
2, 28080, Note_on_c, 0, 61, 61
2, 28169, Note_on_c, 0, 65, 0
2, 28169, Note_on_c, 0, 61, 0
2, 28176, Note_on_c, 0, 63, 61
2, 28176, Note_on_c, 0, 60, 61
2, 28272, Note_on_c, 0, 63, 0
2, 28272, Note_on_c, 0, 64, 61
2, 28317, Note_on_c, 0, 64, 0
2, 28317, Note_on_c, 0, 60, 0
2, 28320, Note_on_c, 0, 65, 61
2, 28320, Note_on_c, 0, 61, 61
2, 28409, Note_on_c, 0, 65, 0
2, 28409, Note_on_c, 0, 61, 0
2, 28512, Note_on_c, 0, 77, 84
2, 28557, Note_on_c, 0, 77, 0
2, 28608, Note_on_c, 0, 89, 84
2, 28653, Note_on_c, 0, 89, 0
2, 28656, Note_on_c, 0, 85, 80
2, 28656, Note_on_c, 0, 82, 80
2, 28701, Note_on_c, 0, 85, 0
2, 28701, Note_on_c, 0, 82, 0
2, 28704, Note_on_c, 0, 84, 77
2, 28704, Note_on_c, 0, 80, 77
2, 28749, Note_on_c, 0, 84, 0
2, 28749, Note_on_c, 0, 80, 0
2, 28752, Note_on_c, 0, 82, 74
2, 28752, Note_on_c, 0, 78, 74
2, 28797, Note_on_c, 0, 82, 0
2, 28797, Note_on_c, 0, 78, 0
2, 28800, Note_on_c, 0, 82, 70
2, 28800, Note_on_c, 0, 78, 70
2, 28845, Note_on_c, 0, 82, 0
2, 28845, Note_on_c, 0, 78, 0
2, 28848, Note_on_c, 0, 80, 67
2, 28848, Note_on_c, 0, 77, 67
2, 28937, Note_on_c, 0, 80, 0
2, 28937, Note_on_c, 0, 77, 0
2, 28944, Note_on_c, 0, 78, 61
2, 28944, Note_on_c, 0, 75, 61
2, 29033, Note_on_c, 0, 78, 0
2, 29033, Note_on_c, 0, 75, 0
2, 29040, Note_on_c, 0, 77, 61
2, 29040, Note_on_c, 0, 73, 61
2, 29085, Note_on_c, 0, 77, 0
2, 29085, Note_on_c, 0, 73, 0
2, 29112, Note_on_c, 0, 75, 61
2, 29122, Note_on_c, 0, 75, 0
2, 29136, Note_on_c, 0, 75, 61
2, 29160, Note_on_c, 0, 75, 0
2, 29160, Note_on_c, 0, 87, 61
2, 29170, Note_on_c, 0, 87, 0
2, 29208, Note_on_c, 0, 75, 61
2, 29218, Note_on_c, 0, 75, 0
2, 29232, Note_on_c, 0, 75, 61
2, 29256, Note_on_c, 0, 75, 0
2, 29256, Note_on_c, 0, 87, 61
2, 29279, Note_on_c, 0, 87, 0
2, 29304, Note_on_c, 0, 87, 61
2, 29314, Note_on_c, 0, 87, 0
2, 29328, Note_on_c, 0, 87, 61
2, 29352, Note_on_c, 0, 87, 0
2, 29352, Note_on_c, 0, 75, 61
2, 29362, Note_on_c, 0, 75, 0
2, 29400, Note_on_c, 0, 73, 61
2, 29410, Note_on_c, 0, 73, 0
2, 29424, Note_on_c, 0, 73, 61
2, 29448, Note_on_c, 0, 73, 0
2, 29448, Note_on_c, 0, 85, 61
2, 29458, Note_on_c, 0, 85, 0
2, 29496, Note_on_c, 0, 73, 61
2, 29506, Note_on_c, 0, 73, 0
2, 29520, Note_on_c, 0, 73, 61
2, 29544, Note_on_c, 0, 73, 0
2, 29544, Note_on_c, 0, 85, 61
2, 29554, Note_on_c, 0, 85, 0
2, 29592, Note_on_c, 0, 85, 61
2, 29602, Note_on_c, 0, 85, 0
2, 29616, Note_on_c, 0, 85, 61
2, 29640, Note_on_c, 0, 85, 0
2, 29640, Note_on_c, 0, 73, 61
2, 29650, Note_on_c, 0, 73, 0
2, 29688, Note_on_c, 0, 71, 61
2, 29698, Note_on_c, 0, 71, 0
2, 29712, Note_on_c, 0, 71, 61
2, 29736, Note_on_c, 0, 71, 0
2, 29736, Note_on_c, 0, 83, 61
2, 29746, Note_on_c, 0, 83, 0
2, 29784, Note_on_c, 0, 71, 61
2, 29794, Note_on_c, 0, 71, 0
2, 29808, Note_on_c, 0, 71, 61
2, 29832, Note_on_c, 0, 71, 0
2, 29832, Note_on_c, 0, 83, 61
2, 29842, Note_on_c, 0, 83, 0
2, 29880, Note_on_c, 0, 83, 61
2, 29890, Note_on_c, 0, 83, 0
2, 29904, Note_on_c, 0, 83, 61
2, 29928, Note_on_c, 0, 83, 0
2, 29928, Note_on_c, 0, 71, 61
2, 29938, Note_on_c, 0, 71, 0
2, 29976, Note_on_c, 0, 70, 61
2, 29986, Note_on_c, 0, 70, 0
2, 30000, Note_on_c, 0, 70, 61
2, 30024, Note_on_c, 0, 70, 0
2, 30024, Note_on_c, 0, 82, 61
2, 30034, Note_on_c, 0, 82, 0
2, 30072, Note_on_c, 0, 70, 61
2, 30082, Note_on_c, 0, 70, 0
2, 30096, Note_on_c, 0, 70, 61
2, 30120, Note_on_c, 0, 70, 0
2, 30120, Note_on_c, 0, 82, 61
2, 30130, Note_on_c, 0, 82, 0
2, 30168, Note_on_c, 0, 82, 61
2, 30178, Note_on_c, 0, 82, 0
2, 30192, Note_on_c, 0, 82, 61
2, 30216, Note_on_c, 0, 82, 0
2, 30216, Note_on_c, 0, 70, 61
2, 30226, Note_on_c, 0, 70, 0
2, 30264, Note_on_c, 0, 68, 61
2, 30274, Note_on_c, 0, 68, 0
2, 30288, Note_on_c, 0, 68, 61
2, 30312, Note_on_c, 0, 68, 0
2, 30312, Note_on_c, 0, 80, 61
2, 30322, Note_on_c, 0, 80, 0
2, 30360, Note_on_c, 0, 68, 61
2, 30370, Note_on_c, 0, 68, 0
2, 30384, Note_on_c, 0, 68, 61
2, 30408, Note_on_c, 0, 68, 0
2, 30408, Note_on_c, 0, 73, 61
2, 30431, Note_on_c, 0, 73, 0
2, 30432, Note_on_c, 0, 73, 61
2, 30456, Note_on_c, 0, 73, 0
2, 30456, Note_on_c, 0, 77, 61
2, 30479, Note_on_c, 0, 77, 0
2, 30480, Note_on_c, 0, 77, 61
2, 30504, Note_on_c, 0, 77, 0
2, 30504, Note_on_c, 0, 80, 61
2, 30527, Note_on_c, 0, 80, 0
2, 30528, Note_on_c, 0, 80, 61
2, 30552, Note_on_c, 0, 80, 0
2, 30552, Note_on_c, 0, 70, 63
2, 30575, Note_on_c, 0, 70, 0
2, 30576, Note_on_c, 0, 70, 66
2, 30600, Note_on_c, 0, 70, 0
2, 30600, Note_on_c, 0, 73, 69
2, 30623, Note_on_c, 0, 73, 0
2, 30624, Note_on_c, 0, 73, 72
2, 30648, Note_on_c, 0, 73, 0
2, 30648, Note_on_c, 0, 78, 75
2, 30671, Note_on_c, 0, 78, 0
2, 30672, Note_on_c, 0, 78, 78
2, 30696, Note_on_c, 0, 78, 0
2, 30696, Note_on_c, 0, 82, 81
2, 30719, Note_on_c, 0, 82, 0
2, 30720, Note_on_c, 0, 82, 84
2, 30744, Note_on_c, 0, 82, 0
2, 30744, Note_on_c, 0, 78, 80
2, 30767, Note_on_c, 0, 78, 0
2, 30768, Note_on_c, 0, 77, 76
2, 30791, Note_on_c, 0, 77, 0
2, 30792, Note_on_c, 0, 75, 72
2, 30815, Note_on_c, 0, 75, 0
2, 30816, Note_on_c, 0, 73, 85
2, 30888, Note_on_c, 0, 73, 0
2, 30888, Note_on_c, 0, 76, 69
2, 30900, Note_on_c, 0, 76, 0
2, 30900, Note_on_c, 0, 75, 69
2, 30912, Note_on_c, 0, 75, 0
2, 30912, Note_on_c, 0, 73, 69
2, 30957, Note_on_c, 0, 73, 0
2, 30960, Note_on_c, 0, 73, 69
2, 30980, Note_on_c, 0, 73, 0
2, 31008, Note_on_c, 0, 73, 69
2, 31028, Note_on_c, 0, 73, 0
2, 31056, Note_on_c, 0, 73, 69
2, 31076, Note_on_c, 0, 73, 0
2, 31104, Note_on_c, 0, 73, 85
2, 31176, Note_on_c, 0, 73, 0
2, 31176, Note_on_c, 0, 76, 69
2, 31188, Note_on_c, 0, 76, 0
2, 31188, Note_on_c, 0, 75, 69
2, 31200, Note_on_c, 0, 75, 0
2, 31200, Note_on_c, 0, 73, 69
2, 31245, Note_on_c, 0, 73, 0
2, 31248, Note_on_c, 0, 73, 69
2, 31268, Note_on_c, 0, 73, 0
2, 31296, Note_on_c, 0, 73, 69
2, 31316, Note_on_c, 0, 73, 0
2, 31344, Note_on_c, 0, 73, 69
2, 31364, Note_on_c, 0, 73, 0
2, 31392, Note_on_c, 0, 74, 69
2, 31426, Note_on_c, 0, 74, 0
2, 31428, Note_on_c, 0, 80, 69
2, 31440, Note_on_c, 0, 80, 0
2, 31440, Note_on_c, 0, 83, 69
2, 31452, Note_on_c, 0, 83, 0
2, 31452, Note_on_c, 0, 86, 69
2, 31464, Note_on_c, 0, 86, 0
2, 31464, Note_on_c, 0, 83, 69
2, 31476, Note_on_c, 0, 83, 0
2, 31476, Note_on_c, 0, 80, 69
2, 31488, Note_on_c, 0, 80, 0
2, 31488, Note_on_c, 0, 76, 69
2, 31536, Note_on_c, 0, 76, 0
2, 31536, Note_on_c, 0, 74, 69
2, 31581, Note_on_c, 0, 74, 0
2, 31584, Note_on_c, 0, 74, 69
2, 31604, Note_on_c, 0, 74, 0
2, 31632, Note_on_c, 0, 74, 69
2, 31652, Note_on_c, 0, 74, 0
2, 31680, Note_on_c, 0, 74, 69
2, 31703, Note_on_c, 0, 74, 0
2, 31704, Note_on_c, 0, 73, 69
2, 31727, Note_on_c, 0, 73, 0
2, 31728, Note_on_c, 0, 72, 69
2, 31751, Note_on_c, 0, 72, 0
2, 31752, Note_on_c, 0, 73, 69
2, 31775, Note_on_c, 0, 73, 0
2, 31776, Note_on_c, 0, 73, 69
2, 31821, Note_on_c, 0, 73, 0
2, 31824, Note_on_c, 0, 73, 69
2, 31844, Note_on_c, 0, 73, 0
2, 31872, Note_on_c, 0, 73, 70
2, 31892, Note_on_c, 0, 73, 0
2, 31920, Note_on_c, 0, 73, 71
2, 31940, Note_on_c, 0, 73, 0
2, 31968, Note_on_c, 0, 73, 73
2, 32035, Note_on_c, 0, 73, 0
2, 32040, Note_on_c, 0, 76, 75
2, 32052, Note_on_c, 0, 76, 0
2, 32052, Note_on_c, 0, 75, 75
2, 32064, Note_on_c, 0, 75, 0
2, 32064, Note_on_c, 0, 73, 75
2, 32109, Note_on_c, 0, 73, 0
2, 32112, Note_on_c, 0, 73, 77
2, 32132, Note_on_c, 0, 73, 0
2, 32160, Note_on_c, 0, 73, 78
2, 32180, Note_on_c, 0, 73, 0
2, 32208, Note_on_c, 0, 73, 79
2, 32228, Note_on_c, 0, 73, 0
2, 32256, Note_on_c, 0, 73, 81
2, 32345, Note_on_c, 0, 73, 0
2, 32352, Note_on_c, 0, 73, 84
2, 32376, Note_on_c, 0, 73, 0
2, 32376, Note_on_c, 0, 77, 84
2, 32399, Note_on_c, 0, 77, 0
2, 32400, Note_on_c, 0, 77, 84
2, 32424, Note_on_c, 0, 77, 0
2, 32424, Note_on_c, 0, 80, 84
2, 32447, Note_on_c, 0, 80, 0
2, 32448, Note_on_c, 0, 80, 84
2, 32472, Note_on_c, 0, 80, 0
2, 32472, Note_on_c, 0, 85, 84
2, 32495, Note_on_c, 0, 85, 0
2, 32496, Note_on_c, 0, 85, 84
2, 32520, Note_on_c, 0, 85, 0
2, 32520, Note_on_c, 0, 89, 84
2, 32543, Note_on_c, 0, 89, 0
2, 32544, Note_on_c, 0, 89, 100
2, 32663, Note_on_c, 0, 89, 0
2, 32664, Note_on_c, 0, 84, 84
2, 32688, Note_on_c, 0, 84, 0
2, 32688, Note_on_c, 0, 85, 84
2, 32711, Note_on_c, 0, 85, 0
2, 32712, Note_on_c, 0, 79, 84
2, 32736, Note_on_c, 0, 79, 0
2, 32736, Note_on_c, 0, 80, 84
2, 32759, Note_on_c, 0, 80, 0
2, 32760, Note_on_c, 0, 76, 84
2, 32784, Note_on_c, 0, 76, 0
2, 32784, Note_on_c, 0, 77, 84
2, 32807, Note_on_c, 0, 77, 0
2, 32808, Note_on_c, 0, 73, 84
2, 32832, Note_on_c, 0, 73, 0
2, 32832, Note_on_c, 0, 78, 84
2, 32855, Note_on_c, 0, 78, 0
2, 32856, Note_on_c, 0, 77, 84
2, 32879, Note_on_c, 0, 77, 0
2, 32880, Note_on_c, 0, 75, 84
2, 32888, Note_on_c, 0, 75, 0
2, 32888, Note_on_c, 0, 77, 84
2, 32896, Note_on_c, 0, 77, 0
2, 32896, Note_on_c, 0, 75, 84
2, 32904, Note_on_c, 0, 75, 0
2, 32904, Note_on_c, 0, 77, 84
2, 32911, Note_on_c, 0, 77, 0
2, 32911, Note_on_c, 0, 75, 84
2, 32918, Note_on_c, 0, 75, 0
2, 32918, Note_on_c, 0, 77, 84
2, 32925, Note_on_c, 0, 77, 0
2, 32925, Note_on_c, 0, 75, 84
2, 32932, Note_on_c, 0, 75, 0
2, 32932, Note_on_c, 0, 77, 84
2, 32939, Note_on_c, 0, 77, 0
2, 32939, Note_on_c, 0, 75, 84
2, 32946, Note_on_c, 0, 75, 0
2, 32946, Note_on_c, 0, 77, 84
2, 32953, Note_on_c, 0, 77, 0
2, 32953, Note_on_c, 0, 75, 84
2, 32960, Note_on_c, 0, 75, 0
2, 32960, Note_on_c, 0, 77, 84
2, 32967, Note_on_c, 0, 77, 0
2, 32967, Note_on_c, 0, 75, 84
2, 32974, Note_on_c, 0, 75, 0
2, 32974, Note_on_c, 0, 77, 84
2, 32981, Note_on_c, 0, 77, 0
2, 32981, Note_on_c, 0, 75, 84
2, 32988, Note_on_c, 0, 75, 0
2, 32988, Note_on_c, 0, 77, 84
2, 32995, Note_on_c, 0, 77, 0
2, 32995, Note_on_c, 0, 75, 83
2, 33002, Note_on_c, 0, 75, 0
2, 33002, Note_on_c, 0, 77, 82
2, 33009, Note_on_c, 0, 77, 0
2, 33009, Note_on_c, 0, 75, 81
2, 33016, Note_on_c, 0, 75, 0
2, 33016, Note_on_c, 0, 77, 80
2, 33023, Note_on_c, 0, 77, 0
2, 33023, Note_on_c, 0, 75, 79
2, 33030, Note_on_c, 0, 75, 0
2, 33030, Note_on_c, 0, 77, 78
2, 33037, Note_on_c, 0, 77, 0
2, 33037, Note_on_c, 0, 75, 77
2, 33044, Note_on_c, 0, 75, 0
2, 33044, Note_on_c, 0, 73, 76
2, 33058, Note_on_c, 0, 73, 0
2, 33058, Note_on_c, 0, 75, 74
2, 33072, Note_on_c, 0, 75, 0
2, 33072, Note_on_c, 0, 77, 72
2, 33095, Note_on_c, 0, 77, 0
2, 33096, Note_on_c, 0, 75, 68
2, 33119, Note_on_c, 0, 75, 0
2, 33120, Note_on_c, 0, 73, 61
2, 33165, Note_on_c, 0, 73, 0
2, 33168, Note_on_c, 0, 80, 77
2, 33168, Note_on_c, 0, 77, 77
2, 33264, Note_on_c, 0, 80, 0
2, 33264, Note_on_c, 0, 77, 0
2, 33264, Note_on_c, 0, 82, 61
2, 33264, Note_on_c, 0, 78, 61
2, 33353, Note_on_c, 0, 82, 0
2, 33353, Note_on_c, 0, 78, 0
2, 33360, Note_on_c, 0, 78, 61
2, 33360, Note_on_c, 0, 75, 61
2, 33408, Note_on_c, 0, 78, 0
2, 33408, Note_on_c, 0, 75, 0
2, 33408, Note_on_c, 0, 77, 61
2, 33408, Note_on_c, 0, 73, 61
2, 33453, Note_on_c, 0, 77, 0
2, 33453, Note_on_c, 0, 73, 0
2, 33456, Note_on_c, 0, 68, 77
2, 33456, Note_on_c, 0, 65, 77
2, 33552, Note_on_c, 0, 68, 0
2, 33552, Note_on_c, 0, 65, 0
2, 33552, Note_on_c, 0, 70, 57
2, 33552, Note_on_c, 0, 66, 57
2, 33641, Note_on_c, 0, 70, 0
2, 33641, Note_on_c, 0, 66, 0
2, 33648, Note_on_c, 0, 60, 53
2, 33648, Note_on_c, 0, 54, 53
2, 33693, Note_on_c, 0, 60, 0
2, 33693, Note_on_c, 0, 54, 0
2, 33696, Note_on_c, 0, 60, 53
2, 33696, Note_on_c, 0, 54, 53
2, 33792, Note_on_c, 0, 60, 0
2, 33792, Note_on_c, 0, 54, 0
2, 33792, Note_on_c, 0, 61, 53
2, 33792, Note_on_c, 0, 56, 53
2, 33792, Note_on_c, 0, 53, 53
2, 33881, Note_on_c, 0, 61, 0
2, 33881, Note_on_c, 0, 56, 0
2, 33881, Note_on_c, 0, 53, 0
2, 34128, Note_on_c, 0, 77, 61
2, 34173, Note_on_c, 0, 77, 0
2, 34176, Note_on_c, 0, 75, 61
2, 34182, Note_on_c, 0, 75, 0
2, 34182, Note_on_c, 0, 77, 61
2, 34188, Note_on_c, 0, 77, 0
2, 34188, Note_on_c, 0, 75, 61
2, 34223, Note_on_c, 0, 75, 0
2, 34224, Note_on_c, 0, 74, 61
2, 34317, Note_on_c, 0, 74, 0
2, 34320, Note_on_c, 0, 77, 61
2, 34365, Note_on_c, 0, 77, 0
2, 34368, Note_on_c, 0, 75, 61
2, 34457, Note_on_c, 0, 75, 0
2, 34464, Note_on_c, 0, 70, 61
2, 34605, Note_on_c, 0, 70, 0
2, 34608, Note_on_c, 0, 67, 61
2, 34653, Note_on_c, 0, 67, 0
2, 34656, Note_on_c, 0, 68, 77
2, 34752, Note_on_c, 0, 68, 0
2, 34752, Note_on_c, 0, 68, 61
2, 34893, Note_on_c, 0, 68, 0
2, 34896, Note_on_c, 0, 71, 61
2, 34941, Note_on_c, 0, 71, 0
2, 34944, Note_on_c, 0, 70, 61
2, 34989, Note_on_c, 0, 70, 0
2, 34992, Note_on_c, 0, 68, 61
2, 35037, Note_on_c, 0, 68, 0
2, 35040, Note_on_c, 0, 66, 61
2, 35046, Note_on_c, 0, 66, 0
2, 35046, Note_on_c, 0, 68, 61
2, 35052, Note_on_c, 0, 68, 0
2, 35052, Note_on_c, 0, 66, 61
2, 35087, Note_on_c, 0, 66, 0
2, 35088, Note_on_c, 0, 65, 61
2, 35133, Note_on_c, 0, 65, 0
2, 35136, Note_on_c, 0, 66, 61
2, 35269, Note_on_c, 0, 66, 0
2, 35280, Note_on_c, 0, 71, 61
2, 35325, Note_on_c, 0, 71, 0
2, 35328, Note_on_c, 0, 70, 61
2, 35373, Note_on_c, 0, 70, 0
2, 35376, Note_on_c, 0, 69, 61
2, 35410, Note_on_c, 0, 69, 0
2, 35412, Note_on_c, 0, 75, 61
2, 35424, Note_on_c, 0, 75, 0
2, 35424, Note_on_c, 0, 75, 61
2, 35520, Note_on_c, 0, 75, 0
2, 35520, Note_on_c, 0, 74, 61
2, 35565, Note_on_c, 0, 74, 0
2, 35568, Note_on_c, 0, 71, 61
2, 35613, Note_on_c, 0, 71, 0
2, 35616, Note_on_c, 0, 70, 61
2, 35661, Note_on_c, 0, 70, 0
2, 35664, Note_on_c, 0, 65, 61
2, 35664, Note_on_c, 0, 62, 61
2, 35709, Note_on_c, 0, 65, 0
2, 35709, Note_on_c, 0, 62, 0
2, 35712, Note_on_c, 0, 63, 61
2, 35757, Note_on_c, 0, 63, 0
2, 35760, Note_on_c, 0, 65, 61
2, 35805, Note_on_c, 0, 65, 0
2, 35808, Note_on_c, 0, 66, 61
2, 36045, Note_on_c, 0, 66, 0
2, 36048, Note_on_c, 0, 66, 61
2, 36093, Note_on_c, 0, 66, 0
2, 36096, Note_on_c, 0, 65, 61
2, 36141, Note_on_c, 0, 65, 0
2, 36144, Note_on_c, 0, 75, 61
2, 36189, Note_on_c, 0, 75, 0
2, 36192, Note_on_c, 0, 69, 61
2, 36237, Note_on_c, 0, 69, 0
2, 36240, Note_on_c, 0, 72, 61
2, 36285, Note_on_c, 0, 72, 0
2, 36480, Note_on_c, 0, 85, 61
2, 36576, Note_on_c, 0, 85, 0
2, 36576, Note_on_c, 0, 84, 61
2, 36709, Note_on_c, 0, 84, 0
2, 36720, Note_on_c, 0, 81, 61
2, 36765, Note_on_c, 0, 81, 0
2, 36768, Note_on_c, 0, 82, 61
2, 36813, Note_on_c, 0, 82, 0
2, 36816, Note_on_c, 0, 84, 61
2, 36861, Note_on_c, 0, 84, 0
2, 36864, Note_on_c, 0, 77, 61
2, 37041, Note_on_c, 0, 77, 0
2, 37056, Note_on_c, 0, 85, 61
2, 37152, Note_on_c, 0, 85, 0
2, 37152, Note_on_c, 0, 84, 61
2, 37329, Note_on_c, 0, 84, 0
2, 37344, Note_on_c, 0, 83, 61
2, 37440, Note_on_c, 0, 83, 0
2, 37440, Note_on_c, 0, 82, 61
2, 37617, Note_on_c, 0, 82, 0
2, 37632, Note_on_c, 0, 82, 61
2, 37728, Note_on_c, 0, 82, 0
2, 37728, Note_on_c, 0, 80, 61
2, 37861, Note_on_c, 0, 80, 0
2, 37872, Note_on_c, 0, 80, 61
2, 37917, Note_on_c, 0, 80, 0
2, 37920, Note_on_c, 0, 78, 61
2, 38061, Note_on_c, 0, 78, 0
2, 38064, Note_on_c, 0, 77, 61
2, 38153, Note_on_c, 0, 77, 0
2, 38160, Note_on_c, 0, 75, 61
2, 38205, Note_on_c, 0, 75, 0
2, 38208, Note_on_c, 0, 82, 61
2, 38253, Note_on_c, 0, 82, 0
2, 38256, Note_on_c, 0, 73, 61
2, 38301, Note_on_c, 0, 73, 0
2, 38304, Note_on_c, 0, 73, 61
2, 38327, Note_on_c, 0, 73, 0
2, 38328, Note_on_c, 0, 72, 61
2, 38351, Note_on_c, 0, 72, 0
2, 38352, Note_on_c, 0, 75, 61
2, 38375, Note_on_c, 0, 75, 0
2, 38376, Note_on_c, 0, 67, 61
2, 38399, Note_on_c, 0, 67, 0
2, 38400, Note_on_c, 0, 70, 61
2, 38406, Note_on_c, 0, 70, 0
2, 38406, Note_on_c, 0, 68, 61
2, 38412, Note_on_c, 0, 68, 0
2, 38412, Note_on_c, 0, 67, 61
2, 38418, Note_on_c, 0, 67, 0
2, 38418, Note_on_c, 0, 68, 61
2, 38525, Note_on_c, 0, 68, 0
2, 38592, Note_on_c, 0, 61, 75
2, 38637, Note_on_c, 0, 61, 0
2, 38640, Note_on_c, 0, 65, 75
2, 38685, Note_on_c, 0, 65, 0
2, 38688, Note_on_c, 0, 68, 75
2, 38733, Note_on_c, 0, 68, 0
2, 38736, Note_on_c, 0, 73, 75
2, 38781, Note_on_c, 0, 73, 0
2, 38784, Note_on_c, 0, 72, 75
2, 38829, Note_on_c, 0, 72, 0
2, 38832, Note_on_c, 0, 70, 75
2, 38925, Note_on_c, 0, 70, 0
2, 38928, Note_on_c, 0, 67, 75
2, 38973, Note_on_c, 0, 67, 0
2, 38976, Note_on_c, 0, 68, 75
2, 39043, Note_on_c, 0, 68, 0
2, 39048, Note_on_c, 0, 85, 75
2, 39056, Note_on_c, 0, 85, 0
2, 39056, Note_on_c, 0, 82, 75
2, 39064, Note_on_c, 0, 82, 0
2, 39064, Note_on_c, 0, 79, 75
2, 39072, Note_on_c, 0, 79, 0
2, 39072, Note_on_c, 0, 80, 75
2, 39117, Note_on_c, 0, 80, 0
2, 39168, Note_on_c, 0, 59, 69
2, 39213, Note_on_c, 0, 59, 0
2, 39216, Note_on_c, 0, 63, 69
2, 39261, Note_on_c, 0, 63, 0
2, 39264, Note_on_c, 0, 68, 69
2, 39309, Note_on_c, 0, 68, 0
2, 39312, Note_on_c, 0, 71, 69
2, 39357, Note_on_c, 0, 71, 0
2, 39360, Note_on_c, 0, 70, 69
2, 39405, Note_on_c, 0, 70, 0
2, 39408, Note_on_c, 0, 68, 69
2, 39501, Note_on_c, 0, 68, 0
2, 39504, Note_on_c, 0, 65, 69
2, 39549, Note_on_c, 0, 65, 0
2, 39552, Note_on_c, 0, 66, 69
2, 39619, Note_on_c, 0, 66, 0
2, 39624, Note_on_c, 0, 83, 69
2, 39632, Note_on_c, 0, 83, 0
2, 39632, Note_on_c, 0, 80, 69
2, 39640, Note_on_c, 0, 80, 0
2, 39640, Note_on_c, 0, 77, 69
2, 39648, Note_on_c, 0, 77, 0
2, 39648, Note_on_c, 0, 78, 69
2, 39693, Note_on_c, 0, 78, 0
2, 39744, Note_on_c, 0, 57, 61
2, 39789, Note_on_c, 0, 57, 0
2, 39792, Note_on_c, 0, 61, 61
2, 39837, Note_on_c, 0, 61, 0
2, 39840, Note_on_c, 0, 66, 61
2, 39885, Note_on_c, 0, 66, 0
2, 39888, Note_on_c, 0, 69, 61
2, 39933, Note_on_c, 0, 69, 0
2, 39936, Note_on_c, 0, 68, 61
2, 39981, Note_on_c, 0, 68, 0
2, 39984, Note_on_c, 0, 66, 61
2, 40029, Note_on_c, 0, 66, 0
2, 40032, Note_on_c, 0, 73, 61
2, 40080, Note_on_c, 0, 73, 0
2, 40080, Note_on_c, 0, 72, 61
2, 40121, Note_on_c, 0, 72, 0
2, 40128, Note_on_c, 0, 72, 61
2, 40195, Note_on_c, 0, 72, 0
2, 40200, Note_on_c, 0, 73, 61
2, 40210, Note_on_c, 0, 73, 0
2, 40224, Note_on_c, 0, 75, 61
2, 40231, Note_on_c, 0, 75, 0
2, 40231, Note_on_c, 0, 73, 62
2, 40238, Note_on_c, 0, 73, 0
2, 40238, Note_on_c, 0, 75, 63
2, 40245, Note_on_c, 0, 75, 0
2, 40245, Note_on_c, 0, 73, 65
2, 40252, Note_on_c, 0, 73, 0
2, 40252, Note_on_c, 0, 75, 66
2, 40259, Note_on_c, 0, 75, 0
2, 40259, Note_on_c, 0, 73, 68
2, 40266, Note_on_c, 0, 73, 0
2, 40266, Note_on_c, 0, 75, 69
2, 40273, Note_on_c, 0, 75, 0
2, 40273, Note_on_c, 0, 73, 71
2, 40280, Note_on_c, 0, 73, 0
2, 40280, Note_on_c, 0, 75, 72
2, 40287, Note_on_c, 0, 75, 0
2, 40287, Note_on_c, 0, 73, 73
2, 40294, Note_on_c, 0, 73, 0
2, 40294, Note_on_c, 0, 72, 75
2, 40308, Note_on_c, 0, 72, 0
2, 40308, Note_on_c, 0, 73, 78
2, 40320, Note_on_c, 0, 73, 0
2, 40320, Note_on_c, 0, 75, 84
2, 40423, Note_on_c, 0, 75, 0
2, 40423, Note_on_c, 0, 65, 69
2, 40437, Note_on_c, 0, 65, 0
2, 40437, Note_on_c, 0, 66, 69
2, 40444, Note_on_c, 0, 66, 0
2, 40444, Note_on_c, 0, 68, 69
2, 40451, Note_on_c, 0, 68, 0
2, 40451, Note_on_c, 0, 66, 69
2, 40458, Note_on_c, 0, 66, 0
2, 40458, Note_on_c, 0, 68, 69
2, 40465, Note_on_c, 0, 68, 0
2, 40465, Note_on_c, 0, 66, 69
2, 40472, Note_on_c, 0, 66, 0
2, 40472, Note_on_c, 0, 68, 69
2, 40479, Note_on_c, 0, 68, 0
2, 40479, Note_on_c, 0, 66, 69
2, 40486, Note_on_c, 0, 66, 0
2, 40486, Note_on_c, 0, 68, 69
2, 40493, Note_on_c, 0, 68, 0
2, 40493, Note_on_c, 0, 66, 69
2, 40500, Note_on_c, 0, 66, 0
2, 40500, Note_on_c, 0, 68, 69
2, 40506, Note_on_c, 0, 68, 0
2, 40506, Note_on_c, 0, 66, 69
2, 40512, Note_on_c, 0, 66, 0
2, 40512, Note_on_c, 0, 68, 69
2, 40519, Note_on_c, 0, 68, 0
2, 40519, Note_on_c, 0, 66, 69
2, 40526, Note_on_c, 0, 66, 0
2, 40526, Note_on_c, 0, 68, 69
2, 40533, Note_on_c, 0, 68, 0
2, 40533, Note_on_c, 0, 66, 69
2, 40540, Note_on_c, 0, 66, 0
2, 40540, Note_on_c, 0, 65, 69
2, 40547, Note_on_c, 0, 65, 0
2, 40547, Note_on_c, 0, 66, 69
2, 40554, Note_on_c, 0, 66, 0
2, 40554, Note_on_c, 0, 68, 69
2, 40560, Note_on_c, 0, 68, 0
2, 40560, Note_on_c, 0, 70, 69
2, 40575, Note_on_c, 0, 70, 0
2, 40576, Note_on_c, 0, 68, 69
2, 40591, Note_on_c, 0, 68, 0
2, 40592, Note_on_c, 0, 66, 69
2, 40607, Note_on_c, 0, 66, 0
2, 40608, Note_on_c, 0, 65, 61
2, 40631, Note_on_c, 0, 65, 0
2, 40632, Note_on_c, 0, 68, 61
2, 40642, Note_on_c, 0, 68, 0
2, 40656, Note_on_c, 0, 70, 61
2, 40663, Note_on_c, 0, 70, 0
2, 40663, Note_on_c, 0, 68, 61
2, 40670, Note_on_c, 0, 68, 0
2, 40670, Note_on_c, 0, 70, 61
2, 40677, Note_on_c, 0, 70, 0
2, 40677, Note_on_c, 0, 68, 61
2, 40684, Note_on_c, 0, 68, 0
2, 40684, Note_on_c, 0, 66, 61
2, 40691, Note_on_c, 0, 66, 0
2, 40691, Note_on_c, 0, 68, 61
2, 40704, Note_on_c, 0, 68, 0
2, 40728, Note_on_c, 0, 68, 61
2, 40738, Note_on_c, 0, 68, 0
2, 40752, Note_on_c, 0, 70, 61
2, 40759, Note_on_c, 0, 70, 0
2, 40759, Note_on_c, 0, 68, 61
2, 40766, Note_on_c, 0, 68, 0
2, 40766, Note_on_c, 0, 70, 61
2, 40773, Note_on_c, 0, 70, 0
2, 40773, Note_on_c, 0, 68, 61
2, 40780, Note_on_c, 0, 68, 0
2, 40780, Note_on_c, 0, 66, 61
2, 40787, Note_on_c, 0, 66, 0
2, 40787, Note_on_c, 0, 68, 61
2, 40800, Note_on_c, 0, 68, 0
2, 40800, Note_on_c, 0, 77, 61
2, 40815, Note_on_c, 0, 77, 0
2, 40816, Note_on_c, 0, 75, 61
2, 40831, Note_on_c, 0, 75, 0
2, 40832, Note_on_c, 0, 73, 61
2, 40847, Note_on_c, 0, 73, 0
2, 40848, Note_on_c, 0, 72, 61
2, 40863, Note_on_c, 0, 72, 0
2, 40864, Note_on_c, 0, 70, 61
2, 40879, Note_on_c, 0, 70, 0
2, 40880, Note_on_c, 0, 68, 61
2, 40895, Note_on_c, 0, 68, 0
2, 40896, Note_on_c, 0, 68, 61
2, 40992, Note_on_c, 0, 68, 0
2, 40992, Note_on_c, 0, 66, 61
2, 41081, Note_on_c, 0, 66, 0
2, 41208, Note_on_c, 0, 66, 61
2, 41218, Note_on_c, 0, 66, 0
2, 41232, Note_on_c, 0, 68, 61
2, 41239, Note_on_c, 0, 68, 0
2, 41239, Note_on_c, 0, 66, 61
2, 41246, Note_on_c, 0, 66, 0
2, 41246, Note_on_c, 0, 68, 61
2, 41253, Note_on_c, 0, 68, 0
2, 41253, Note_on_c, 0, 66, 61
2, 41260, Note_on_c, 0, 66, 0
2, 41260, Note_on_c, 0, 65, 61
2, 41267, Note_on_c, 0, 65, 0
2, 41267, Note_on_c, 0, 66, 61
2, 41280, Note_on_c, 0, 66, 0
2, 41304, Note_on_c, 0, 66, 61
2, 41314, Note_on_c, 0, 66, 0
2, 41328, Note_on_c, 0, 68, 61
2, 41335, Note_on_c, 0, 68, 0
2, 41335, Note_on_c, 0, 66, 61
2, 41342, Note_on_c, 0, 66, 0
2, 41342, Note_on_c, 0, 68, 61
2, 41349, Note_on_c, 0, 68, 0
2, 41349, Note_on_c, 0, 66, 61
2, 41356, Note_on_c, 0, 66, 0
2, 41356, Note_on_c, 0, 65, 61
2, 41363, Note_on_c, 0, 65, 0
2, 41363, Note_on_c, 0, 66, 61
2, 41376, Note_on_c, 0, 66, 0
2, 41376, Note_on_c, 0, 75, 61
2, 41391, Note_on_c, 0, 75, 0
2, 41392, Note_on_c, 0, 73, 61
2, 41407, Note_on_c, 0, 73, 0
2, 41408, Note_on_c, 0, 72, 61
2, 41423, Note_on_c, 0, 72, 0
2, 41424, Note_on_c, 0, 70, 61
2, 41439, Note_on_c, 0, 70, 0
2, 41440, Note_on_c, 0, 68, 61
2, 41455, Note_on_c, 0, 68, 0
2, 41456, Note_on_c, 0, 66, 61
2, 41471, Note_on_c, 0, 66, 0
2, 41472, Note_on_c, 0, 66, 61
2, 41568, Note_on_c, 0, 66, 0
2, 41568, Note_on_c, 0, 65, 61
2, 41657, Note_on_c, 0, 65, 0
2, 41664, Note_on_c, 0, 68, 61
2, 41783, Note_on_c, 0, 68, 0
2, 41784, Note_on_c, 0, 61, 61
2, 41794, Note_on_c, 0, 61, 0
2, 41808, Note_on_c, 0, 63, 61
2, 41815, Note_on_c, 0, 63, 0
2, 41815, Note_on_c, 0, 61, 61
2, 41822, Note_on_c, 0, 61, 0
2, 41822, Note_on_c, 0, 63, 61
2, 41829, Note_on_c, 0, 63, 0
2, 41829, Note_on_c, 0, 61, 61
2, 41836, Note_on_c, 0, 61, 0
2, 41836, Note_on_c, 0, 60, 61
2, 41843, Note_on_c, 0, 60, 0
2, 41843, Note_on_c, 0, 60, 61
2, 41856, Note_on_c, 0, 60, 0
2, 41856, Note_on_c, 0, 66, 61
2, 41879, Note_on_c, 0, 66, 0
2, 41880, Note_on_c, 0, 61, 61
2, 41890, Note_on_c, 0, 61, 0
2, 41904, Note_on_c, 0, 63, 61
2, 41911, Note_on_c, 0, 63, 0
2, 41911, Note_on_c, 0, 61, 61
2, 41918, Note_on_c, 0, 61, 0
2, 41918, Note_on_c, 0, 63, 61
2, 41925, Note_on_c, 0, 63, 0
2, 41925, Note_on_c, 0, 61, 61
2, 41932, Note_on_c, 0, 61, 0
2, 41932, Note_on_c, 0, 60, 61
2, 41939, Note_on_c, 0, 60, 0
2, 41939, Note_on_c, 0, 61, 61
2, 41952, Note_on_c, 0, 61, 0
2, 41952, Note_on_c, 0, 70, 61
2, 41967, Note_on_c, 0, 70, 0
2, 41968, Note_on_c, 0, 68, 61
2, 41983, Note_on_c, 0, 68, 0
2, 41984, Note_on_c, 0, 66, 61
2, 41999, Note_on_c, 0, 66, 0
2, 42000, Note_on_c, 0, 65, 61
2, 42015, Note_on_c, 0, 65, 0
2, 42016, Note_on_c, 0, 63, 61
2, 42031, Note_on_c, 0, 63, 0
2, 42032, Note_on_c, 0, 61, 61
2, 42047, Note_on_c, 0, 61, 0
2, 42048, Note_on_c, 0, 60, 61
2, 42137, Note_on_c, 0, 60, 0
2, 42144, Note_on_c, 0, 61, 61
2, 42233, Note_on_c, 0, 61, 0
2, 42240, Note_on_c, 0, 63, 61
2, 42329, Note_on_c, 0, 63, 0
2, 42336, Note_on_c, 0, 65, 61
2, 42425, Note_on_c, 0, 65, 0
2, 42432, Note_on_c, 0, 67, 61
2, 42521, Note_on_c, 0, 67, 0
2, 42528, Note_on_c, 0, 73, 68
2, 42617, Note_on_c, 0, 73, 0
2, 42624, Note_on_c, 0, 73, 76
2, 42624, Note_on_c, 0, 67, 76
2, 42713, Note_on_c, 0, 73, 0
2, 42713, Note_on_c, 0, 67, 0
2, 42720, Note_on_c, 0, 60, 84
2, 42732, Note_on_c, 0, 60, 0
2, 42732, Note_on_c, 0, 63, 84
2, 42744, Note_on_c, 0, 63, 0
2, 42744, Note_on_c, 0, 72, 84
2, 42744, Note_on_c, 0, 68, 84
2, 42905, Note_on_c, 0, 72, 0
2, 42905, Note_on_c, 0, 68, 0
2, 42912, Note_on_c, 0, 71, 61
2, 42935, Note_on_c, 0, 71, 0
2, 42936, Note_on_c, 0, 72, 61
2, 42959, Note_on_c, 0, 72, 0
2, 42960, Note_on_c, 0, 68, 61
2, 42983, Note_on_c, 0, 68, 0
2, 42984, Note_on_c, 0, 63, 61
2, 43007, Note_on_c, 0, 63, 0
2, 43008, Note_on_c, 0, 67, 61
2, 43031, Note_on_c, 0, 67, 0
2, 43032, Note_on_c, 0, 68, 61
2, 43055, Note_on_c, 0, 68, 0
2, 43056, Note_on_c, 0, 63, 61
2, 43079, Note_on_c, 0, 63, 0
2, 43080, Note_on_c, 0, 60, 61
2, 43103, Note_on_c, 0, 60, 0
2, 43104, Note_on_c, 0, 62, 61
2, 43127, Note_on_c, 0, 62, 0
2, 43128, Note_on_c, 0, 63, 61
2, 43151, Note_on_c, 0, 63, 0
2, 43152, Note_on_c, 0, 60, 61
2, 43175, Note_on_c, 0, 60, 0
2, 43176, Note_on_c, 0, 56, 61
2, 43199, Note_on_c, 0, 56, 0
2, 43344, Note_on_c, 0, 68, 61
2, 43352, Note_on_c, 0, 68, 0
2, 43352, Note_on_c, 0, 70, 61
2, 43360, Note_on_c, 0, 70, 0
2, 43360, Note_on_c, 0, 72, 61
2, 43368, Note_on_c, 0, 72, 0
2, 43368, Note_on_c, 0, 73, 61
2, 43376, Note_on_c, 0, 73, 0
2, 43376, Note_on_c, 0, 75, 61
2, 43384, Note_on_c, 0, 75, 0
2, 43384, Note_on_c, 0, 77, 61
2, 43392, Note_on_c, 0, 77, 0
2, 43392, Note_on_c, 0, 78, 61
2, 43459, Note_on_c, 0, 78, 0
2, 43584, Note_on_c, 0, 77, 84
2, 43629, Note_on_c, 0, 77, 0
2, 43632, Note_on_c, 0, 73, 84
2, 43632, Note_on_c, 0, 70, 84
2, 43677, Note_on_c, 0, 73, 0
2, 43677, Note_on_c, 0, 70, 0
2, 43680, Note_on_c, 0, 72, 80
2, 43680, Note_on_c, 0, 68, 80
2, 43725, Note_on_c, 0, 72, 0
2, 43725, Note_on_c, 0, 68, 0
2, 43728, Note_on_c, 0, 70, 76
2, 43728, Note_on_c, 0, 66, 76
2, 43773, Note_on_c, 0, 70, 0
2, 43773, Note_on_c, 0, 66, 0
2, 43776, Note_on_c, 0, 70, 72
2, 43776, Note_on_c, 0, 66, 72
2, 43821, Note_on_c, 0, 70, 0
2, 43821, Note_on_c, 0, 66, 0
2, 43824, Note_on_c, 0, 68, 68
2, 43824, Note_on_c, 0, 65, 68
2, 43913, Note_on_c, 0, 68, 0
2, 43913, Note_on_c, 0, 65, 0
2, 43920, Note_on_c, 0, 66, 61
2, 43920, Note_on_c, 0, 63, 61
2, 44009, Note_on_c, 0, 66, 0
2, 44009, Note_on_c, 0, 63, 0
2, 44016, Note_on_c, 0, 65, 61
2, 44016, Note_on_c, 0, 61, 61
2, 44061, Note_on_c, 0, 65, 0
2, 44061, Note_on_c, 0, 61, 0
2, 44112, Note_on_c, 0, 66, 61
2, 44112, Note_on_c, 0, 63, 61
2, 44201, Note_on_c, 0, 66, 0
2, 44201, Note_on_c, 0, 63, 0
2, 44208, Note_on_c, 0, 65, 61
2, 44208, Note_on_c, 0, 61, 61
2, 44297, Note_on_c, 0, 65, 0
2, 44297, Note_on_c, 0, 61, 0
2, 44304, Note_on_c, 0, 63, 61
2, 44304, Note_on_c, 0, 60, 61
2, 44400, Note_on_c, 0, 63, 0
2, 44400, Note_on_c, 0, 64, 61
2, 44445, Note_on_c, 0, 64, 0
2, 44445, Note_on_c, 0, 60, 0
2, 44448, Note_on_c, 0, 65, 61
2, 44448, Note_on_c, 0, 61, 61
2, 44537, Note_on_c, 0, 65, 0
2, 44537, Note_on_c, 0, 61, 0
2, 44640, Note_on_c, 0, 77, 84
2, 44685, Note_on_c, 0, 77, 0
2, 44736, Note_on_c, 0, 89, 84
2, 44781, Note_on_c, 0, 89, 0
2, 44784, Note_on_c, 0, 85, 80
2, 44784, Note_on_c, 0, 82, 80
2, 44829, Note_on_c, 0, 85, 0
2, 44829, Note_on_c, 0, 82, 0
2, 44832, Note_on_c, 0, 84, 77
2, 44832, Note_on_c, 0, 80, 77
2, 44877, Note_on_c, 0, 84, 0
2, 44877, Note_on_c, 0, 80, 0
2, 44880, Note_on_c, 0, 82, 74
2, 44880, Note_on_c, 0, 78, 74
2, 44925, Note_on_c, 0, 82, 0
2, 44925, Note_on_c, 0, 78, 0
2, 44928, Note_on_c, 0, 82, 70
2, 44928, Note_on_c, 0, 78, 70
2, 44973, Note_on_c, 0, 82, 0
2, 44973, Note_on_c, 0, 78, 0
2, 44976, Note_on_c, 0, 80, 67
2, 44976, Note_on_c, 0, 77, 67
2, 45065, Note_on_c, 0, 80, 0
2, 45065, Note_on_c, 0, 77, 0
2, 45072, Note_on_c, 0, 78, 61
2, 45072, Note_on_c, 0, 75, 61
2, 45161, Note_on_c, 0, 78, 0
2, 45161, Note_on_c, 0, 75, 0
2, 45168, Note_on_c, 0, 77, 61
2, 45168, Note_on_c, 0, 73, 61
2, 45213, Note_on_c, 0, 77, 0
2, 45213, Note_on_c, 0, 73, 0
2, 45240, Note_on_c, 0, 75, 61
2, 45250, Note_on_c, 0, 75, 0
2, 45264, Note_on_c, 0, 75, 61
2, 45288, Note_on_c, 0, 75, 0
2, 45288, Note_on_c, 0, 87, 61
2, 45298, Note_on_c, 0, 87, 0
2, 45336, Note_on_c, 0, 75, 61
2, 45346, Note_on_c, 0, 75, 0
2, 45360, Note_on_c, 0, 75, 61
2, 45384, Note_on_c, 0, 75, 0
2, 45384, Note_on_c, 0, 87, 61
2, 45407, Note_on_c, 0, 87, 0
2, 45432, Note_on_c, 0, 87, 61
2, 45442, Note_on_c, 0, 87, 0
2, 45456, Note_on_c, 0, 87, 61
2, 45480, Note_on_c, 0, 87, 0
2, 45480, Note_on_c, 0, 75, 61
2, 45490, Note_on_c, 0, 75, 0
2, 45528, Note_on_c, 0, 73, 61
2, 45538, Note_on_c, 0, 73, 0
2, 45552, Note_on_c, 0, 73, 61
2, 45576, Note_on_c, 0, 73, 0
2, 45576, Note_on_c, 0, 85, 61
2, 45586, Note_on_c, 0, 85, 0
2, 45624, Note_on_c, 0, 73, 61
2, 45634, Note_on_c, 0, 73, 0
2, 45648, Note_on_c, 0, 73, 61
2, 45672, Note_on_c, 0, 73, 0
2, 45672, Note_on_c, 0, 85, 61
2, 45682, Note_on_c, 0, 85, 0
2, 45720, Note_on_c, 0, 85, 61
2, 45730, Note_on_c, 0, 85, 0
2, 45744, Note_on_c, 0, 85, 61
2, 45768, Note_on_c, 0, 85, 0
2, 45768, Note_on_c, 0, 73, 61
2, 45778, Note_on_c, 0, 73, 0
2, 45816, Note_on_c, 0, 71, 61
2, 45826, Note_on_c, 0, 71, 0
2, 45840, Note_on_c, 0, 71, 61
2, 45864, Note_on_c, 0, 71, 0
2, 45864, Note_on_c, 0, 83, 61
2, 45874, Note_on_c, 0, 83, 0
2, 45912, Note_on_c, 0, 71, 61
2, 45922, Note_on_c, 0, 71, 0
2, 45936, Note_on_c, 0, 71, 61
2, 45960, Note_on_c, 0, 71, 0
2, 45960, Note_on_c, 0, 83, 61
2, 45970, Note_on_c, 0, 83, 0
2, 46008, Note_on_c, 0, 83, 61
2, 46018, Note_on_c, 0, 83, 0
2, 46032, Note_on_c, 0, 83, 61
2, 46056, Note_on_c, 0, 83, 0
2, 46056, Note_on_c, 0, 71, 61
2, 46066, Note_on_c, 0, 71, 0
2, 46104, Note_on_c, 0, 70, 61
2, 46114, Note_on_c, 0, 70, 0
2, 46128, Note_on_c, 0, 70, 61
2, 46152, Note_on_c, 0, 70, 0
2, 46152, Note_on_c, 0, 82, 61
2, 46162, Note_on_c, 0, 82, 0
2, 46200, Note_on_c, 0, 70, 61
2, 46210, Note_on_c, 0, 70, 0
2, 46224, Note_on_c, 0, 70, 61
2, 46248, Note_on_c, 0, 70, 0
2, 46248, Note_on_c, 0, 82, 61
2, 46258, Note_on_c, 0, 82, 0
2, 46296, Note_on_c, 0, 82, 61
2, 46306, Note_on_c, 0, 82, 0
2, 46320, Note_on_c, 0, 82, 61
2, 46344, Note_on_c, 0, 82, 0
2, 46344, Note_on_c, 0, 70, 61
2, 46354, Note_on_c, 0, 70, 0
2, 46392, Note_on_c, 0, 68, 61
2, 46402, Note_on_c, 0, 68, 0
2, 46416, Note_on_c, 0, 68, 61
2, 46440, Note_on_c, 0, 68, 0
2, 46440, Note_on_c, 0, 80, 61
2, 46450, Note_on_c, 0, 80, 0
2, 46488, Note_on_c, 0, 68, 61
2, 46498, Note_on_c, 0, 68, 0
2, 46512, Note_on_c, 0, 68, 61
2, 46536, Note_on_c, 0, 68, 0
2, 46536, Note_on_c, 0, 73, 61
2, 46559, Note_on_c, 0, 73, 0
2, 46560, Note_on_c, 0, 73, 61
2, 46584, Note_on_c, 0, 73, 0
2, 46584, Note_on_c, 0, 77, 61
2, 46607, Note_on_c, 0, 77, 0
2, 46608, Note_on_c, 0, 77, 61
2, 46632, Note_on_c, 0, 77, 0
2, 46632, Note_on_c, 0, 80, 61
2, 46655, Note_on_c, 0, 80, 0
2, 46656, Note_on_c, 0, 80, 61
2, 46680, Note_on_c, 0, 80, 0
2, 46680, Note_on_c, 0, 70, 63
2, 46703, Note_on_c, 0, 70, 0
2, 46704, Note_on_c, 0, 70, 66
2, 46728, Note_on_c, 0, 70, 0
2, 46728, Note_on_c, 0, 73, 69
2, 46751, Note_on_c, 0, 73, 0
2, 46752, Note_on_c, 0, 73, 72
2, 46776, Note_on_c, 0, 73, 0
2, 46776, Note_on_c, 0, 78, 75
2, 46799, Note_on_c, 0, 78, 0
2, 46800, Note_on_c, 0, 78, 78
2, 46824, Note_on_c, 0, 78, 0
2, 46824, Note_on_c, 0, 82, 81
2, 46847, Note_on_c, 0, 82, 0
2, 46848, Note_on_c, 0, 82, 84
2, 46872, Note_on_c, 0, 82, 0
2, 46872, Note_on_c, 0, 78, 80
2, 46895, Note_on_c, 0, 78, 0
2, 46896, Note_on_c, 0, 77, 76
2, 46919, Note_on_c, 0, 77, 0
2, 46920, Note_on_c, 0, 75, 72
2, 46943, Note_on_c, 0, 75, 0
2, 46944, Note_on_c, 0, 73, 85
2, 47016, Note_on_c, 0, 73, 0
2, 47016, Note_on_c, 0, 76, 69
2, 47028, Note_on_c, 0, 76, 0
2, 47028, Note_on_c, 0, 75, 69
2, 47040, Note_on_c, 0, 75, 0
2, 47040, Note_on_c, 0, 73, 69
2, 47085, Note_on_c, 0, 73, 0
2, 47088, Note_on_c, 0, 73, 69
2, 47108, Note_on_c, 0, 73, 0
2, 47136, Note_on_c, 0, 73, 69
2, 47156, Note_on_c, 0, 73, 0
2, 47184, Note_on_c, 0, 73, 69
2, 47204, Note_on_c, 0, 73, 0
2, 47232, Note_on_c, 0, 73, 85
2, 47304, Note_on_c, 0, 73, 0
2, 47304, Note_on_c, 0, 76, 69
2, 47316, Note_on_c, 0, 76, 0
2, 47316, Note_on_c, 0, 75, 69
2, 47328, Note_on_c, 0, 75, 0
2, 47328, Note_on_c, 0, 73, 69
2, 47373, Note_on_c, 0, 73, 0
2, 47376, Note_on_c, 0, 73, 69
2, 47396, Note_on_c, 0, 73, 0
2, 47424, Note_on_c, 0, 73, 69
2, 47444, Note_on_c, 0, 73, 0
2, 47472, Note_on_c, 0, 73, 69
2, 47492, Note_on_c, 0, 73, 0
2, 47520, Note_on_c, 0, 74, 69
2, 47554, Note_on_c, 0, 74, 0
2, 47556, Note_on_c, 0, 80, 69
2, 47568, Note_on_c, 0, 80, 0
2, 47568, Note_on_c, 0, 83, 69
2, 47580, Note_on_c, 0, 83, 0
2, 47580, Note_on_c, 0, 86, 69
2, 47592, Note_on_c, 0, 86, 0
2, 47592, Note_on_c, 0, 83, 69
2, 47604, Note_on_c, 0, 83, 0
2, 47604, Note_on_c, 0, 80, 69
2, 47616, Note_on_c, 0, 80, 0
2, 47616, Note_on_c, 0, 76, 69
2, 47664, Note_on_c, 0, 76, 0
2, 47664, Note_on_c, 0, 74, 69
2, 47709, Note_on_c, 0, 74, 0
2, 47712, Note_on_c, 0, 74, 69
2, 47732, Note_on_c, 0, 74, 0
2, 47760, Note_on_c, 0, 74, 69
2, 47780, Note_on_c, 0, 74, 0
2, 47808, Note_on_c, 0, 74, 69
2, 47831, Note_on_c, 0, 74, 0
2, 47832, Note_on_c, 0, 73, 69
2, 47855, Note_on_c, 0, 73, 0
2, 47856, Note_on_c, 0, 72, 69
2, 47879, Note_on_c, 0, 72, 0
2, 47880, Note_on_c, 0, 73, 69
2, 47903, Note_on_c, 0, 73, 0
2, 47904, Note_on_c, 0, 73, 69
2, 47949, Note_on_c, 0, 73, 0
2, 47952, Note_on_c, 0, 73, 69
2, 47972, Note_on_c, 0, 73, 0
2, 48000, Note_on_c, 0, 73, 70
2, 48020, Note_on_c, 0, 73, 0
2, 48048, Note_on_c, 0, 73, 71
2, 48068, Note_on_c, 0, 73, 0
2, 48096, Note_on_c, 0, 73, 73
2, 48163, Note_on_c, 0, 73, 0
2, 48168, Note_on_c, 0, 76, 75
2, 48180, Note_on_c, 0, 76, 0
2, 48180, Note_on_c, 0, 75, 75
2, 48192, Note_on_c, 0, 75, 0
2, 48192, Note_on_c, 0, 73, 75
2, 48237, Note_on_c, 0, 73, 0
2, 48240, Note_on_c, 0, 73, 77
2, 48260, Note_on_c, 0, 73, 0
2, 48288, Note_on_c, 0, 73, 78
2, 48308, Note_on_c, 0, 73, 0
2, 48336, Note_on_c, 0, 73, 79
2, 48356, Note_on_c, 0, 73, 0
2, 48384, Note_on_c, 0, 73, 81
2, 48473, Note_on_c, 0, 73, 0
2, 48480, Note_on_c, 0, 73, 84
2, 48504, Note_on_c, 0, 73, 0
2, 48504, Note_on_c, 0, 77, 84
2, 48527, Note_on_c, 0, 77, 0
2, 48528, Note_on_c, 0, 77, 84
2, 48552, Note_on_c, 0, 77, 0
2, 48552, Note_on_c, 0, 80, 84
2, 48575, Note_on_c, 0, 80, 0
2, 48576, Note_on_c, 0, 80, 84
2, 48600, Note_on_c, 0, 80, 0
2, 48600, Note_on_c, 0, 85, 84
2, 48623, Note_on_c, 0, 85, 0
2, 48624, Note_on_c, 0, 85, 84
2, 48648, Note_on_c, 0, 85, 0
2, 48648, Note_on_c, 0, 89, 84
2, 48671, Note_on_c, 0, 89, 0
2, 48672, Note_on_c, 0, 89, 100
2, 48791, Note_on_c, 0, 89, 0
2, 48792, Note_on_c, 0, 84, 84
2, 48816, Note_on_c, 0, 84, 0
2, 48816, Note_on_c, 0, 85, 84
2, 48839, Note_on_c, 0, 85, 0
2, 48840, Note_on_c, 0, 79, 84
2, 48864, Note_on_c, 0, 79, 0
2, 48864, Note_on_c, 0, 80, 84
2, 48887, Note_on_c, 0, 80, 0
2, 48888, Note_on_c, 0, 76, 84
2, 48912, Note_on_c, 0, 76, 0
2, 48912, Note_on_c, 0, 77, 84
2, 48935, Note_on_c, 0, 77, 0
2, 48936, Note_on_c, 0, 73, 84
2, 48960, Note_on_c, 0, 73, 0
2, 48960, Note_on_c, 0, 78, 84
2, 48983, Note_on_c, 0, 78, 0
2, 48984, Note_on_c, 0, 77, 84
2, 49007, Note_on_c, 0, 77, 0
2, 49008, Note_on_c, 0, 75, 84
2, 49016, Note_on_c, 0, 75, 0
2, 49016, Note_on_c, 0, 77, 84
2, 49024, Note_on_c, 0, 77, 0
2, 49024, Note_on_c, 0, 75, 84
2, 49032, Note_on_c, 0, 75, 0
2, 49032, Note_on_c, 0, 77, 84
2, 49039, Note_on_c, 0, 77, 0
2, 49039, Note_on_c, 0, 75, 84
2, 49046, Note_on_c, 0, 75, 0
2, 49046, Note_on_c, 0, 77, 84
2, 49053, Note_on_c, 0, 77, 0
2, 49053, Note_on_c, 0, 75, 84
2, 49060, Note_on_c, 0, 75, 0
2, 49060, Note_on_c, 0, 77, 84
2, 49067, Note_on_c, 0, 77, 0
2, 49067, Note_on_c, 0, 75, 84
2, 49074, Note_on_c, 0, 75, 0
2, 49074, Note_on_c, 0, 77, 84
2, 49081, Note_on_c, 0, 77, 0
2, 49081, Note_on_c, 0, 75, 84
2, 49088, Note_on_c, 0, 75, 0
2, 49088, Note_on_c, 0, 77, 84
2, 49095, Note_on_c, 0, 77, 0
2, 49095, Note_on_c, 0, 75, 84
2, 49102, Note_on_c, 0, 75, 0
2, 49102, Note_on_c, 0, 77, 84
2, 49109, Note_on_c, 0, 77, 0
2, 49109, Note_on_c, 0, 75, 84
2, 49116, Note_on_c, 0, 75, 0
2, 49116, Note_on_c, 0, 77, 84
2, 49123, Note_on_c, 0, 77, 0
2, 49123, Note_on_c, 0, 75, 83
2, 49130, Note_on_c, 0, 75, 0
2, 49130, Note_on_c, 0, 77, 82
2, 49137, Note_on_c, 0, 77, 0
2, 49137, Note_on_c, 0, 75, 81
2, 49144, Note_on_c, 0, 75, 0
2, 49144, Note_on_c, 0, 77, 80
2, 49151, Note_on_c, 0, 77, 0
2, 49151, Note_on_c, 0, 75, 79
2, 49158, Note_on_c, 0, 75, 0
2, 49158, Note_on_c, 0, 77, 78
2, 49165, Note_on_c, 0, 77, 0
2, 49165, Note_on_c, 0, 75, 77
2, 49172, Note_on_c, 0, 75, 0
2, 49172, Note_on_c, 0, 73, 76
2, 49186, Note_on_c, 0, 73, 0
2, 49186, Note_on_c, 0, 75, 74
2, 49200, Note_on_c, 0, 75, 0
2, 49200, Note_on_c, 0, 77, 72
2, 49223, Note_on_c, 0, 77, 0
2, 49224, Note_on_c, 0, 75, 68
2, 49247, Note_on_c, 0, 75, 0
2, 49248, Note_on_c, 0, 73, 61
2, 49293, Note_on_c, 0, 73, 0
2, 49296, Note_on_c, 0, 80, 77
2, 49296, Note_on_c, 0, 77, 77
2, 49392, Note_on_c, 0, 80, 0
2, 49392, Note_on_c, 0, 77, 0
2, 49392, Note_on_c, 0, 82, 61
2, 49392, Note_on_c, 0, 78, 61
2, 49481, Note_on_c, 0, 82, 0
2, 49481, Note_on_c, 0, 78, 0
2, 49488, Note_on_c, 0, 78, 61
2, 49488, Note_on_c, 0, 75, 61
2, 49536, Note_on_c, 0, 78, 0
2, 49536, Note_on_c, 0, 75, 0
2, 49536, Note_on_c, 0, 77, 61
2, 49536, Note_on_c, 0, 73, 61
2, 49581, Note_on_c, 0, 77, 0
2, 49581, Note_on_c, 0, 73, 0
2, 49584, Note_on_c, 0, 68, 77
2, 49584, Note_on_c, 0, 65, 77
2, 49680, Note_on_c, 0, 68, 0
2, 49680, Note_on_c, 0, 65, 0
2, 49680, Note_on_c, 0, 70, 57
2, 49680, Note_on_c, 0, 66, 57
2, 49769, Note_on_c, 0, 70, 0
2, 49769, Note_on_c, 0, 66, 0
2, 49776, Note_on_c, 0, 60, 53
2, 49776, Note_on_c, 0, 54, 53
2, 49821, Note_on_c, 0, 60, 0
2, 49821, Note_on_c, 0, 54, 0
2, 49824, Note_on_c, 0, 60, 53
2, 49824, Note_on_c, 0, 54, 53
2, 50001, Note_on_c, 0, 60, 0
2, 50001, Note_on_c, 0, 54, 0
2, 50016, Note_on_c, 0, 53, 53
2, 50024, Note_on_c, 0, 56, 53
2, 50032, Note_on_c, 0, 61, 53
2, 50201, Note_on_c, 0, 61, 0
2, 50201, Note_on_c, 0, 56, 0
2, 50201, Note_on_c, 0, 53, 0
2, 50400, End_track
3, 0, Start_track
3, 0, Program_c, 0, 0
3, 0, Control_c, 0, 7, 127
3, 0, Control_c, 0, 10, 64
3, 2016, Note_on_c, 0, 72, 64
3, 2105, Note_on_c, 0, 72, 0
3, 3768, Note_on_c, 0, 68, 61
3, 3778, Note_on_c, 0, 68, 0
3, 3792, Note_on_c, 0, 70, 61
3, 3799, Note_on_c, 0, 70, 0
3, 3799, Note_on_c, 0, 68, 61
3, 3806, Note_on_c, 0, 68, 0
3, 3806, Note_on_c, 0, 70, 61
3, 3813, Note_on_c, 0, 70, 0
3, 3813, Note_on_c, 0, 68, 61
3, 3820, Note_on_c, 0, 68, 0
3, 3820, Note_on_c, 0, 67, 61
3, 3827, Note_on_c, 0, 67, 0
3, 3827, Note_on_c, 0, 68, 61
3, 3840, Note_on_c, 0, 68, 0
3, 3864, Note_on_c, 0, 68, 61
3, 3874, Note_on_c, 0, 68, 0
3, 3888, Note_on_c, 0, 70, 61
3, 3895, Note_on_c, 0, 70, 0
3, 3895, Note_on_c, 0, 68, 61
3, 3902, Note_on_c, 0, 68, 0
3, 3902, Note_on_c, 0, 70, 61
3, 3909, Note_on_c, 0, 70, 0
3, 3909, Note_on_c, 0, 68, 61
3, 3916, Note_on_c, 0, 68, 0
3, 3916, Note_on_c, 0, 67, 61
3, 3923, Note_on_c, 0, 67, 0
3, 3923, Note_on_c, 0, 68, 61
3, 3936, Note_on_c, 0, 68, 0
3, 3936, Note_on_c, 0, 77, 61
3, 3951, Note_on_c, 0, 77, 0
3, 3952, Note_on_c, 0, 75, 61
3, 3967, Note_on_c, 0, 75, 0
3, 3968, Note_on_c, 0, 74, 61
3, 3983, Note_on_c, 0, 74, 0
3, 3984, Note_on_c, 0, 72, 61
3, 3999, Note_on_c, 0, 72, 0
3, 4000, Note_on_c, 0, 70, 61
3, 4015, Note_on_c, 0, 70, 0
3, 4016, Note_on_c, 0, 68, 61
3, 4031, Note_on_c, 0, 68, 0
3, 4032, Note_on_c, 0, 68, 61
3, 4128, Note_on_c, 0, 68, 0
3, 4128, Note_on_c, 0, 67, 61
3, 4217, Note_on_c, 0, 67, 0
3, 4344, Note_on_c, 0, 66, 61
3, 4354, Note_on_c, 0, 66, 0
3, 4368, Note_on_c, 0, 68, 61
3, 4375, Note_on_c, 0, 68, 0
3, 4375, Note_on_c, 0, 66, 61
3, 4382, Note_on_c, 0, 66, 0
3, 4382, Note_on_c, 0, 68, 61
3, 4389, Note_on_c, 0, 68, 0
3, 4389, Note_on_c, 0, 66, 61
3, 4396, Note_on_c, 0, 66, 0
3, 4396, Note_on_c, 0, 65, 61
3, 4403, Note_on_c, 0, 65, 0
3, 4403, Note_on_c, 0, 66, 61
3, 4416, Note_on_c, 0, 66, 0
3, 4440, Note_on_c, 0, 66, 61
3, 4450, Note_on_c, 0, 66, 0
3, 4464, Note_on_c, 0, 68, 61
3, 4471, Note_on_c, 0, 68, 0
3, 4471, Note_on_c, 0, 66, 61
3, 4478, Note_on_c, 0, 66, 0
3, 4478, Note_on_c, 0, 68, 61
3, 4485, Note_on_c, 0, 68, 0
3, 4485, Note_on_c, 0, 66, 61
3, 4492, Note_on_c, 0, 66, 0
3, 4492, Note_on_c, 0, 65, 61
3, 4499, Note_on_c, 0, 65, 0
3, 4499, Note_on_c, 0, 66, 61
3, 4512, Note_on_c, 0, 66, 0
3, 4512, Note_on_c, 0, 75, 61
3, 4527, Note_on_c, 0, 75, 0
3, 4528, Note_on_c, 0, 73, 61
3, 4543, Note_on_c, 0, 73, 0
3, 4544, Note_on_c, 0, 72, 61
3, 4559, Note_on_c, 0, 72, 0
3, 4560, Note_on_c, 0, 70, 61
3, 4575, Note_on_c, 0, 70, 0
3, 4576, Note_on_c, 0, 68, 61
3, 4591, Note_on_c, 0, 68, 0
3, 4592, Note_on_c, 0, 66, 61
3, 4607, Note_on_c, 0, 66, 0
3, 4608, Note_on_c, 0, 65, 61
3, 4697, Note_on_c, 0, 65, 0
3, 4920, Note_on_c, 0, 63, 61
3, 4930, Note_on_c, 0, 63, 0
3, 4944, Note_on_c, 0, 65, 61
3, 4951, Note_on_c, 0, 65, 0
3, 4951, Note_on_c, 0, 63, 61
3, 4958, Note_on_c, 0, 63, 0
3, 4958, Note_on_c, 0, 65, 61
3, 4965, Note_on_c, 0, 65, 0
3, 4965, Note_on_c, 0, 63, 61
3, 4972, Note_on_c, 0, 63, 0
3, 4972, Note_on_c, 0, 62, 61
3, 4979, Note_on_c, 0, 62, 0
3, 4979, Note_on_c, 0, 63, 61
3, 4992, Note_on_c, 0, 63, 0
3, 5016, Note_on_c, 0, 63, 61
3, 5026, Note_on_c, 0, 63, 0
3, 5040, Note_on_c, 0, 65, 61
3, 5047, Note_on_c, 0, 65, 0
3, 5047, Note_on_c, 0, 63, 61
3, 5054, Note_on_c, 0, 63, 0
3, 5054, Note_on_c, 0, 65, 61
3, 5061, Note_on_c, 0, 65, 0
3, 5061, Note_on_c, 0, 63, 61
3, 5068, Note_on_c, 0, 63, 0
3, 5068, Note_on_c, 0, 62, 61
3, 5075, Note_on_c, 0, 62, 0
3, 5075, Note_on_c, 0, 63, 61
3, 5088, Note_on_c, 0, 63, 0
3, 5112, Note_on_c, 0, 63, 61
3, 5122, Note_on_c, 0, 63, 0
3, 5136, Note_on_c, 0, 65, 61
3, 5143, Note_on_c, 0, 65, 0
3, 5143, Note_on_c, 0, 63, 61
3, 5150, Note_on_c, 0, 63, 0
3, 5150, Note_on_c, 0, 65, 61
3, 5157, Note_on_c, 0, 65, 0
3, 5157, Note_on_c, 0, 63, 61
3, 5164, Note_on_c, 0, 63, 0
3, 5164, Note_on_c, 0, 62, 61
3, 5171, Note_on_c, 0, 62, 0
3, 5171, Note_on_c, 0, 63, 61
3, 5184, Note_on_c, 0, 63, 0
3, 5208, Note_on_c, 0, 63, 61
3, 5218, Note_on_c, 0, 63, 0
3, 5232, Note_on_c, 0, 65, 61
3, 5239, Note_on_c, 0, 65, 0
3, 5239, Note_on_c, 0, 63, 61
3, 5246, Note_on_c, 0, 63, 0
3, 5246, Note_on_c, 0, 65, 61
3, 5253, Note_on_c, 0, 65, 0
3, 5253, Note_on_c, 0, 63, 61
3, 5260, Note_on_c, 0, 63, 0
3, 5260, Note_on_c, 0, 62, 61
3, 5267, Note_on_c, 0, 62, 0
3, 5267, Note_on_c, 0, 63, 61
3, 5280, Note_on_c, 0, 63, 0
3, 5304, Note_on_c, 0, 68, 63
3, 5314, Note_on_c, 0, 68, 0
3, 5328, Note_on_c, 0, 70, 66
3, 5335, Note_on_c, 0, 70, 0
3, 5335, Note_on_c, 0, 68, 67
3, 5342, Note_on_c, 0, 68, 0
3, 5342, Note_on_c, 0, 70, 68
3, 5349, Note_on_c, 0, 70, 0
3, 5349, Note_on_c, 0, 68, 68
3, 5356, Note_on_c, 0, 68, 0
3, 5356, Note_on_c, 0, 67, 69
3, 5363, Note_on_c, 0, 67, 0
3, 5363, Note_on_c, 0, 68, 70
3, 5376, Note_on_c, 0, 68, 0
3, 5400, Note_on_c, 0, 74, 74
3, 5410, Note_on_c, 0, 74, 0
3, 5424, Note_on_c, 0, 75, 77
3, 5431, Note_on_c, 0, 75, 0
3, 5431, Note_on_c, 0, 74, 78
3, 5438, Note_on_c, 0, 74, 0
3, 5438, Note_on_c, 0, 75, 78
3, 5445, Note_on_c, 0, 75, 0
3, 5445, Note_on_c, 0, 74, 79
3, 5452, Note_on_c, 0, 74, 0
3, 5452, Note_on_c, 0, 72, 80
3, 5459, Note_on_c, 0, 72, 0
3, 5459, Note_on_c, 0, 74, 81
3, 5472, Note_on_c, 0, 74, 0
3, 8400, Note_on_c, 0, 68, 61
3, 8445, Note_on_c, 0, 68, 0
3, 8448, Note_on_c, 0, 67, 61
3, 8493, Note_on_c, 0, 67, 0
3, 10944, Note_on_c, 0, 72, 64
3, 11033, Note_on_c, 0, 72, 0
3, 12696, Note_on_c, 0, 68, 61
3, 12706, Note_on_c, 0, 68, 0
3, 12720, Note_on_c, 0, 70, 61
3, 12727, Note_on_c, 0, 70, 0
3, 12727, Note_on_c, 0, 68, 61
3, 12734, Note_on_c, 0, 68, 0
3, 12734, Note_on_c, 0, 70, 61
3, 12741, Note_on_c, 0, 70, 0
3, 12741, Note_on_c, 0, 68, 61
3, 12748, Note_on_c, 0, 68, 0
3, 12748, Note_on_c, 0, 67, 61
3, 12755, Note_on_c, 0, 67, 0
3, 12755, Note_on_c, 0, 68, 61
3, 12768, Note_on_c, 0, 68, 0
3, 12792, Note_on_c, 0, 68, 61
3, 12802, Note_on_c, 0, 68, 0
3, 12816, Note_on_c, 0, 70, 61
3, 12823, Note_on_c, 0, 70, 0
3, 12823, Note_on_c, 0, 68, 61
3, 12830, Note_on_c, 0, 68, 0
3, 12830, Note_on_c, 0, 70, 61
3, 12837, Note_on_c, 0, 70, 0
3, 12837, Note_on_c, 0, 68, 61
3, 12844, Note_on_c, 0, 68, 0
3, 12844, Note_on_c, 0, 67, 61
3, 12851, Note_on_c, 0, 67, 0
3, 12851, Note_on_c, 0, 68, 61
3, 12864, Note_on_c, 0, 68, 0
3, 12864, Note_on_c, 0, 77, 61
3, 12879, Note_on_c, 0, 77, 0
3, 12880, Note_on_c, 0, 75, 61
3, 12895, Note_on_c, 0, 75, 0
3, 12896, Note_on_c, 0, 74, 61
3, 12911, Note_on_c, 0, 74, 0
3, 12912, Note_on_c, 0, 72, 61
3, 12927, Note_on_c, 0, 72, 0
3, 12928, Note_on_c, 0, 70, 61
3, 12943, Note_on_c, 0, 70, 0
3, 12944, Note_on_c, 0, 68, 61
3, 12959, Note_on_c, 0, 68, 0
3, 12960, Note_on_c, 0, 68, 61
3, 13056, Note_on_c, 0, 68, 0
3, 13056, Note_on_c, 0, 67, 61
3, 13145, Note_on_c, 0, 67, 0
3, 13272, Note_on_c, 0, 66, 61
3, 13282, Note_on_c, 0, 66, 0
3, 13296, Note_on_c, 0, 68, 61
3, 13303, Note_on_c, 0, 68, 0
3, 13303, Note_on_c, 0, 66, 61
3, 13310, Note_on_c, 0, 66, 0
3, 13310, Note_on_c, 0, 68, 61
3, 13317, Note_on_c, 0, 68, 0
3, 13317, Note_on_c, 0, 66, 61
3, 13324, Note_on_c, 0, 66, 0
3, 13324, Note_on_c, 0, 65, 61
3, 13331, Note_on_c, 0, 65, 0
3, 13331, Note_on_c, 0, 66, 61
3, 13344, Note_on_c, 0, 66, 0
3, 13368, Note_on_c, 0, 66, 61
3, 13378, Note_on_c, 0, 66, 0
3, 13392, Note_on_c, 0, 68, 61
3, 13399, Note_on_c, 0, 68, 0
3, 13399, Note_on_c, 0, 66, 61
3, 13406, Note_on_c, 0, 66, 0
3, 13406, Note_on_c, 0, 68, 61
3, 13413, Note_on_c, 0, 68, 0
3, 13413, Note_on_c, 0, 66, 61
3, 13420, Note_on_c, 0, 66, 0
3, 13420, Note_on_c, 0, 65, 61
3, 13427, Note_on_c, 0, 65, 0
3, 13427, Note_on_c, 0, 66, 61
3, 13440, Note_on_c, 0, 66, 0
3, 13440, Note_on_c, 0, 75, 61
3, 13455, Note_on_c, 0, 75, 0
3, 13456, Note_on_c, 0, 73, 61
3, 13471, Note_on_c, 0, 73, 0
3, 13472, Note_on_c, 0, 72, 61
3, 13487, Note_on_c, 0, 72, 0
3, 13488, Note_on_c, 0, 70, 61
3, 13503, Note_on_c, 0, 70, 0
3, 13504, Note_on_c, 0, 68, 61
3, 13519, Note_on_c, 0, 68, 0
3, 13520, Note_on_c, 0, 66, 61
3, 13535, Note_on_c, 0, 66, 0
3, 13536, Note_on_c, 0, 65, 61
3, 13625, Note_on_c, 0, 65, 0
3, 13848, Note_on_c, 0, 63, 61
3, 13858, Note_on_c, 0, 63, 0
3, 13872, Note_on_c, 0, 65, 61
3, 13879, Note_on_c, 0, 65, 0
3, 13879, Note_on_c, 0, 63, 61
3, 13886, Note_on_c, 0, 63, 0
3, 13886, Note_on_c, 0, 65, 61
3, 13893, Note_on_c, 0, 65, 0
3, 13893, Note_on_c, 0, 63, 61
3, 13900, Note_on_c, 0, 63, 0
3, 13900, Note_on_c, 0, 62, 61
3, 13907, Note_on_c, 0, 62, 0
3, 13907, Note_on_c, 0, 63, 61
3, 13920, Note_on_c, 0, 63, 0
3, 13944, Note_on_c, 0, 63, 61
3, 13954, Note_on_c, 0, 63, 0
3, 13968, Note_on_c, 0, 65, 61
3, 13975, Note_on_c, 0, 65, 0
3, 13975, Note_on_c, 0, 63, 61
3, 13982, Note_on_c, 0, 63, 0
3, 13982, Note_on_c, 0, 65, 61
3, 13989, Note_on_c, 0, 65, 0
3, 13989, Note_on_c, 0, 63, 61
3, 13996, Note_on_c, 0, 63, 0
3, 13996, Note_on_c, 0, 62, 61
3, 14003, Note_on_c, 0, 62, 0
3, 14003, Note_on_c, 0, 63, 61
3, 14016, Note_on_c, 0, 63, 0
3, 14040, Note_on_c, 0, 63, 61
3, 14050, Note_on_c, 0, 63, 0
3, 14064, Note_on_c, 0, 65, 61
3, 14071, Note_on_c, 0, 65, 0
3, 14071, Note_on_c, 0, 63, 61
3, 14078, Note_on_c, 0, 63, 0
3, 14078, Note_on_c, 0, 65, 61
3, 14085, Note_on_c, 0, 65, 0
3, 14085, Note_on_c, 0, 63, 61
3, 14092, Note_on_c, 0, 63, 0
3, 14092, Note_on_c, 0, 62, 61
3, 14099, Note_on_c, 0, 62, 0
3, 14099, Note_on_c, 0, 63, 61
3, 14112, Note_on_c, 0, 63, 0
3, 14136, Note_on_c, 0, 63, 61
3, 14146, Note_on_c, 0, 63, 0
3, 14160, Note_on_c, 0, 65, 61
3, 14167, Note_on_c, 0, 65, 0
3, 14167, Note_on_c, 0, 63, 61
3, 14174, Note_on_c, 0, 63, 0
3, 14174, Note_on_c, 0, 65, 61
3, 14181, Note_on_c, 0, 65, 0
3, 14181, Note_on_c, 0, 63, 61
3, 14188, Note_on_c, 0, 63, 0
3, 14188, Note_on_c, 0, 62, 61
3, 14195, Note_on_c, 0, 62, 0
3, 14195, Note_on_c, 0, 63, 61
3, 14208, Note_on_c, 0, 63, 0
3, 14232, Note_on_c, 0, 68, 63
3, 14242, Note_on_c, 0, 68, 0
3, 14256, Note_on_c, 0, 70, 66
3, 14263, Note_on_c, 0, 70, 0
3, 14263, Note_on_c, 0, 68, 67
3, 14270, Note_on_c, 0, 68, 0
3, 14270, Note_on_c, 0, 70, 68
3, 14277, Note_on_c, 0, 70, 0
3, 14277, Note_on_c, 0, 68, 68
3, 14284, Note_on_c, 0, 68, 0
3, 14284, Note_on_c, 0, 67, 69
3, 14291, Note_on_c, 0, 67, 0
3, 14291, Note_on_c, 0, 68, 70
3, 14304, Note_on_c, 0, 68, 0
3, 14328, Note_on_c, 0, 74, 74
3, 14338, Note_on_c, 0, 74, 0
3, 14352, Note_on_c, 0, 75, 77
3, 14359, Note_on_c, 0, 75, 0
3, 14359, Note_on_c, 0, 74, 78
3, 14366, Note_on_c, 0, 74, 0
3, 14366, Note_on_c, 0, 75, 78
3, 14373, Note_on_c, 0, 75, 0
3, 14373, Note_on_c, 0, 74, 79
3, 14380, Note_on_c, 0, 74, 0
3, 14380, Note_on_c, 0, 72, 80
3, 14387, Note_on_c, 0, 72, 0
3, 14387, Note_on_c, 0, 74, 81
3, 14400, Note_on_c, 0, 74, 0
3, 17328, Note_on_c, 0, 68, 61
3, 17373, Note_on_c, 0, 68, 0
3, 17376, Note_on_c, 0, 67, 61
3, 17421, Note_on_c, 0, 67, 0
3, 19008, Note_on_c, 0, 63, 61
3, 19141, Note_on_c, 0, 63, 0
3, 19152, Note_on_c, 0, 66, 61
3, 19197, Note_on_c, 0, 66, 0
3, 19200, Note_on_c, 0, 65, 61
3, 19245, Note_on_c, 0, 65, 0
3, 19248, Note_on_c, 0, 63, 61
3, 19341, Note_on_c, 0, 63, 0
3, 19344, Note_on_c, 0, 66, 61
3, 19389, Note_on_c, 0, 66, 0
3, 19392, Note_on_c, 0, 65, 61
3, 19437, Note_on_c, 0, 65, 0
3, 19440, Note_on_c, 0, 62, 61
3, 19485, Note_on_c, 0, 62, 0
3, 19488, Note_on_c, 0, 63, 61
3, 19533, Note_on_c, 0, 63, 0
3, 19536, Note_on_c, 0, 59, 61
3, 19581, Note_on_c, 0, 59, 0
3, 19584, Note_on_c, 0, 58, 61
3, 19761, Note_on_c, 0, 58, 0
3, 19776, Note_on_c, 0, 63, 61
3, 19821, Note_on_c, 0, 63, 0
3, 19824, Note_on_c, 0, 61, 61
3, 19869, Note_on_c, 0, 61, 0
3, 19872, Note_on_c, 0, 60, 61
3, 19961, Note_on_c, 0, 60, 0
3, 20160, Note_on_c, 0, 70, 61
3, 20205, Note_on_c, 0, 70, 0
3, 20208, Note_on_c, 0, 73, 61
3, 20253, Note_on_c, 0, 73, 0
3, 20256, Note_on_c, 0, 77, 61
3, 20301, Note_on_c, 0, 77, 0
3, 20304, Note_on_c, 0, 82, 61
3, 20349, Note_on_c, 0, 82, 0
3, 20352, Note_on_c, 0, 80, 61
3, 20397, Note_on_c, 0, 80, 0
3, 20400, Note_on_c, 0, 78, 61
3, 20445, Note_on_c, 0, 78, 0
3, 20448, Note_on_c, 0, 78, 61
3, 20493, Note_on_c, 0, 78, 0
3, 20496, Note_on_c, 0, 76, 61
3, 20541, Note_on_c, 0, 76, 0
3, 20544, Note_on_c, 0, 77, 61
3, 20589, Note_on_c, 0, 77, 0
3, 20592, Note_on_c, 0, 72, 61
3, 20637, Note_on_c, 0, 72, 0
3, 20640, Note_on_c, 0, 73, 61
3, 20685, Note_on_c, 0, 73, 0
3, 20688, Note_on_c, 0, 75, 61
3, 20781, Note_on_c, 0, 75, 0
3, 20784, Note_on_c, 0, 72, 61
3, 20829, Note_on_c, 0, 72, 0
3, 20832, Note_on_c, 0, 73, 61
3, 20877, Note_on_c, 0, 73, 0
3, 20880, Note_on_c, 0, 82, 61
3, 20914, Note_on_c, 0, 82, 0
3, 20916, Note_on_c, 0, 80, 61
3, 20928, Note_on_c, 0, 80, 0
3, 20928, Note_on_c, 0, 79, 61
3, 20973, Note_on_c, 0, 79, 0
3, 20976, Note_on_c, 0, 77, 61
3, 21021, Note_on_c, 0, 77, 0
3, 21024, Note_on_c, 0, 76, 61
3, 21069, Note_on_c, 0, 76, 0
3, 21072, Note_on_c, 0, 79, 61
3, 21117, Note_on_c, 0, 79, 0
3, 21120, Note_on_c, 0, 77, 61
3, 21165, Note_on_c, 0, 77, 0
3, 21168, Note_on_c, 0, 80, 61
3, 21202, Note_on_c, 0, 80, 0
3, 21204, Note_on_c, 0, 79, 61
3, 21216, Note_on_c, 0, 79, 0
3, 21216, Note_on_c, 0, 77, 61
3, 21261, Note_on_c, 0, 77, 0
3, 21264, Note_on_c, 0, 75, 61
3, 21309, Note_on_c, 0, 75, 0
3, 21312, Note_on_c, 0, 74, 61
3, 21357, Note_on_c, 0, 74, 0
3, 21360, Note_on_c, 0, 77, 61
3, 21405, Note_on_c, 0, 77, 0
3, 21408, Note_on_c, 0, 75, 61
3, 21420, Note_on_c, 0, 75, 0
3, 21420, Note_on_c, 0, 74, 61
3, 21432, Note_on_c, 0, 74, 0
3, 21432, Note_on_c, 0, 75, 61
3, 21444, Note_on_c, 0, 75, 0
3, 21444, Note_on_c, 0, 77, 61
3, 21456, Note_on_c, 0, 77, 0
3, 21456, Note_on_c, 0, 78, 61
3, 21479, Note_on_c, 0, 78, 0
3, 21480, Note_on_c, 0, 77, 61
3, 21503, Note_on_c, 0, 77, 0
3, 21504, Note_on_c, 0, 75, 61
3, 21549, Note_on_c, 0, 75, 0
3, 21552, Note_on_c, 0, 73, 61
3, 21597, Note_on_c, 0, 73, 0
3, 21600, Note_on_c, 0, 72, 61
3, 21645, Note_on_c, 0, 72, 0
3, 21648, Note_on_c, 0, 75, 61
3, 21693, Note_on_c, 0, 75, 0
3, 21696, Note_on_c, 0, 75, 61
3, 21741, Note_on_c, 0, 75, 0
3, 21744, Note_on_c, 0, 73, 61
3, 21750, Note_on_c, 0, 73, 0
3, 21750, Note_on_c, 0, 72, 61
3, 21756, Note_on_c, 0, 72, 0
3, 21756, Note_on_c, 0, 73, 61
3, 21835, Note_on_c, 0, 73, 0
3, 21840, Note_on_c, 0, 72, 61
3, 21885, Note_on_c, 0, 72, 0
3, 21888, Note_on_c, 0, 73, 61
3, 21933, Note_on_c, 0, 73, 0
3, 21936, Note_on_c, 0, 68, 61
3, 21981, Note_on_c, 0, 68, 0
3, 21984, Note_on_c, 0, 70, 61
3, 22117, Note_on_c, 0, 70, 0
3, 22176, Note_on_c, 0, 68, 61
3, 22221, Note_on_c, 0, 68, 0
3, 22224, Note_on_c, 0, 63, 61
3, 22269, Note_on_c, 0, 63, 0
3, 24792, Note_on_c, 0, 61, 61
3, 24802, Note_on_c, 0, 61, 0
3, 24816, Note_on_c, 0, 63, 61
3, 24823, Note_on_c, 0, 63, 0
3, 24823, Note_on_c, 0, 61, 61
3, 24830, Note_on_c, 0, 61, 0
3, 24830, Note_on_c, 0, 63, 61
3, 24837, Note_on_c, 0, 63, 0
3, 24837, Note_on_c, 0, 61, 61
3, 24844, Note_on_c, 0, 61, 0
3, 24844, Note_on_c, 0, 60, 61
3, 24851, Note_on_c, 0, 60, 0
3, 24851, Note_on_c, 0, 61, 61
3, 24864, Note_on_c, 0, 61, 0
3, 24888, Note_on_c, 0, 61, 61
3, 24898, Note_on_c, 0, 61, 0
3, 24912, Note_on_c, 0, 63, 61
3, 24919, Note_on_c, 0, 63, 0
3, 24919, Note_on_c, 0, 61, 61
3, 24926, Note_on_c, 0, 61, 0
3, 24926, Note_on_c, 0, 63, 61
3, 24933, Note_on_c, 0, 63, 0
3, 24933, Note_on_c, 0, 61, 61
3, 24940, Note_on_c, 0, 61, 0
3, 24940, Note_on_c, 0, 60, 61
3, 24947, Note_on_c, 0, 60, 0
3, 24947, Note_on_c, 0, 61, 61
3, 24960, Note_on_c, 0, 61, 0
3, 24960, Note_on_c, 0, 70, 61
3, 24975, Note_on_c, 0, 70, 0
3, 24976, Note_on_c, 0, 68, 61
3, 24991, Note_on_c, 0, 68, 0
3, 24992, Note_on_c, 0, 66, 61
3, 25007, Note_on_c, 0, 66, 0
3, 25008, Note_on_c, 0, 65, 61
3, 25023, Note_on_c, 0, 65, 0
3, 25024, Note_on_c, 0, 63, 61
3, 25039, Note_on_c, 0, 63, 0
3, 25040, Note_on_c, 0, 61, 61
3, 25055, Note_on_c, 0, 61, 0
3, 25056, Note_on_c, 0, 61, 61
3, 25152, Note_on_c, 0, 61, 0
3, 25152, Note_on_c, 0, 60, 61
3, 25241, Note_on_c, 0, 60, 0
3, 25368, Note_on_c, 0, 59, 61
3, 25378, Note_on_c, 0, 59, 0
3, 25392, Note_on_c, 0, 61, 61
3, 25399, Note_on_c, 0, 61, 0
3, 25399, Note_on_c, 0, 59, 61
3, 25406, Note_on_c, 0, 59, 0
3, 25406, Note_on_c, 0, 61, 61
3, 25413, Note_on_c, 0, 61, 0
3, 25413, Note_on_c, 0, 59, 61
3, 25420, Note_on_c, 0, 59, 0
3, 25420, Note_on_c, 0, 58, 61
3, 25427, Note_on_c, 0, 58, 0
3, 25427, Note_on_c, 0, 59, 61
3, 25440, Note_on_c, 0, 59, 0
3, 25464, Note_on_c, 0, 59, 61
3, 25474, Note_on_c, 0, 59, 0
3, 25488, Note_on_c, 0, 61, 61
3, 25495, Note_on_c, 0, 61, 0
3, 25495, Note_on_c, 0, 59, 61
3, 25502, Note_on_c, 0, 59, 0
3, 25502, Note_on_c, 0, 61, 61
3, 25509, Note_on_c, 0, 61, 0
3, 25509, Note_on_c, 0, 59, 61
3, 25516, Note_on_c, 0, 59, 0
3, 25516, Note_on_c, 0, 58, 61
3, 25523, Note_on_c, 0, 58, 0
3, 25523, Note_on_c, 0, 59, 61
3, 25536, Note_on_c, 0, 59, 0
3, 25536, Note_on_c, 0, 68, 61
3, 25551, Note_on_c, 0, 68, 0
3, 25552, Note_on_c, 0, 66, 61
3, 25567, Note_on_c, 0, 66, 0
3, 25568, Note_on_c, 0, 65, 61
3, 25583, Note_on_c, 0, 65, 0
3, 25584, Note_on_c, 0, 63, 61
3, 25599, Note_on_c, 0, 63, 0
3, 25600, Note_on_c, 0, 61, 61
3, 25615, Note_on_c, 0, 61, 0
3, 25616, Note_on_c, 0, 59, 61
3, 25631, Note_on_c, 0, 59, 0
3, 25632, Note_on_c, 0, 58, 61
3, 25677, Note_on_c, 0, 58, 0
3, 25944, Note_on_c, 0, 56, 61
3, 25954, Note_on_c, 0, 56, 0
3, 25968, Note_on_c, 0, 58, 61
3, 25975, Note_on_c, 0, 58, 0
3, 25975, Note_on_c, 0, 56, 61
3, 25982, Note_on_c, 0, 56, 0
3, 25982, Note_on_c, 0, 58, 61
3, 25989, Note_on_c, 0, 58, 0
3, 25989, Note_on_c, 0, 56, 61
3, 25996, Note_on_c, 0, 56, 0
3, 25996, Note_on_c, 0, 54, 61
3, 26003, Note_on_c, 0, 54, 0
3, 26003, Note_on_c, 0, 56, 61
3, 26016, Note_on_c, 0, 56, 0
3, 26040, Note_on_c, 0, 56, 61
3, 26050, Note_on_c, 0, 56, 0
3, 26064, Note_on_c, 0, 58, 61
3, 26071, Note_on_c, 0, 58, 0
3, 26071, Note_on_c, 0, 56, 61
3, 26078, Note_on_c, 0, 56, 0
3, 26078, Note_on_c, 0, 58, 61
3, 26085, Note_on_c, 0, 58, 0
3, 26085, Note_on_c, 0, 56, 61
3, 26092, Note_on_c, 0, 56, 0
3, 26092, Note_on_c, 0, 54, 61
3, 26099, Note_on_c, 0, 54, 0
3, 26099, Note_on_c, 0, 56, 61
3, 26112, Note_on_c, 0, 56, 0
3, 26136, Note_on_c, 0, 56, 61
3, 26146, Note_on_c, 0, 56, 0
3, 26160, Note_on_c, 0, 58, 61
3, 26167, Note_on_c, 0, 58, 0
3, 26167, Note_on_c, 0, 56, 61
3, 26174, Note_on_c, 0, 56, 0
3, 26174, Note_on_c, 0, 58, 61
3, 26181, Note_on_c, 0, 58, 0
3, 26181, Note_on_c, 0, 56, 61
3, 26188, Note_on_c, 0, 56, 0
3, 26188, Note_on_c, 0, 54, 61
3, 26195, Note_on_c, 0, 54, 0
3, 26195, Note_on_c, 0, 56, 61
3, 26208, Note_on_c, 0, 56, 0
3, 26232, Note_on_c, 0, 56, 61
3, 26242, Note_on_c, 0, 56, 0
3, 26256, Note_on_c, 0, 58, 61
3, 26263, Note_on_c, 0, 58, 0
3, 26263, Note_on_c, 0, 56, 61
3, 26270, Note_on_c, 0, 56, 0
3, 26270, Note_on_c, 0, 58, 61
3, 26277, Note_on_c, 0, 58, 0
3, 26277, Note_on_c, 0, 56, 61
3, 26284, Note_on_c, 0, 56, 0
3, 26284, Note_on_c, 0, 55, 61
3, 26291, Note_on_c, 0, 55, 0
3, 26291, Note_on_c, 0, 56, 61
3, 26304, Note_on_c, 0, 56, 0
3, 26328, Note_on_c, 0, 61, 63
3, 26338, Note_on_c, 0, 61, 0
3, 26352, Note_on_c, 0, 63, 66
3, 26359, Note_on_c, 0, 63, 0
3, 26359, Note_on_c, 0, 61, 67
3, 26366, Note_on_c, 0, 61, 0
3, 26366, Note_on_c, 0, 63, 68
3, 26373, Note_on_c, 0, 63, 0
3, 26373, Note_on_c, 0, 61, 68
3, 26380, Note_on_c, 0, 61, 0
3, 26380, Note_on_c, 0, 60, 69
3, 26387, Note_on_c, 0, 60, 0
3, 26387, Note_on_c, 0, 61, 70
3, 26400, Note_on_c, 0, 61, 0
3, 26424, Note_on_c, 0, 67, 74
3, 26434, Note_on_c, 0, 67, 0
3, 26448, Note_on_c, 0, 68, 77
3, 26455, Note_on_c, 0, 68, 0
3, 26455, Note_on_c, 0, 67, 78
3, 26462, Note_on_c, 0, 67, 0
3, 26462, Note_on_c, 0, 68, 78
3, 26469, Note_on_c, 0, 68, 0
3, 26469, Note_on_c, 0, 67, 79
3, 26476, Note_on_c, 0, 67, 0
3, 26476, Note_on_c, 0, 65, 80
3, 26483, Note_on_c, 0, 65, 0
3, 26483, Note_on_c, 0, 67, 81
3, 26496, Note_on_c, 0, 67, 0
3, 35136, Note_on_c, 0, 63, 61
3, 35269, Note_on_c, 0, 63, 0
3, 35280, Note_on_c, 0, 66, 61
3, 35325, Note_on_c, 0, 66, 0
3, 35328, Note_on_c, 0, 65, 61
3, 35373, Note_on_c, 0, 65, 0
3, 35376, Note_on_c, 0, 63, 61
3, 35469, Note_on_c, 0, 63, 0
3, 35472, Note_on_c, 0, 66, 61
3, 35517, Note_on_c, 0, 66, 0
3, 35520, Note_on_c, 0, 65, 61
3, 35565, Note_on_c, 0, 65, 0
3, 35568, Note_on_c, 0, 62, 61
3, 35613, Note_on_c, 0, 62, 0
3, 35616, Note_on_c, 0, 63, 61
3, 35661, Note_on_c, 0, 63, 0
3, 35664, Note_on_c, 0, 59, 61
3, 35709, Note_on_c, 0, 59, 0
3, 35712, Note_on_c, 0, 58, 61
3, 35889, Note_on_c, 0, 58, 0
3, 35904, Note_on_c, 0, 63, 61
3, 35949, Note_on_c, 0, 63, 0
3, 35952, Note_on_c, 0, 61, 61
3, 35997, Note_on_c, 0, 61, 0
3, 36000, Note_on_c, 0, 60, 61
3, 36089, Note_on_c, 0, 60, 0
3, 36288, Note_on_c, 0, 70, 61
3, 36333, Note_on_c, 0, 70, 0
3, 36336, Note_on_c, 0, 73, 61
3, 36381, Note_on_c, 0, 73, 0
3, 36384, Note_on_c, 0, 77, 61
3, 36429, Note_on_c, 0, 77, 0
3, 36432, Note_on_c, 0, 82, 61
3, 36477, Note_on_c, 0, 82, 0
3, 36480, Note_on_c, 0, 80, 61
3, 36525, Note_on_c, 0, 80, 0
3, 36528, Note_on_c, 0, 78, 61
3, 36573, Note_on_c, 0, 78, 0
3, 36576, Note_on_c, 0, 78, 61
3, 36621, Note_on_c, 0, 78, 0
3, 36624, Note_on_c, 0, 76, 61
3, 36669, Note_on_c, 0, 76, 0
3, 36672, Note_on_c, 0, 77, 61
3, 36717, Note_on_c, 0, 77, 0
3, 36720, Note_on_c, 0, 72, 61
3, 36765, Note_on_c, 0, 72, 0
3, 36768, Note_on_c, 0, 73, 61
3, 36813, Note_on_c, 0, 73, 0
3, 36816, Note_on_c, 0, 75, 61
3, 36909, Note_on_c, 0, 75, 0
3, 36912, Note_on_c, 0, 72, 61
3, 36957, Note_on_c, 0, 72, 0
3, 36960, Note_on_c, 0, 73, 61
3, 37005, Note_on_c, 0, 73, 0
3, 37008, Note_on_c, 0, 82, 61
3, 37042, Note_on_c, 0, 82, 0
3, 37044, Note_on_c, 0, 80, 61
3, 37056, Note_on_c, 0, 80, 0
3, 37056, Note_on_c, 0, 79, 61
3, 37101, Note_on_c, 0, 79, 0
3, 37104, Note_on_c, 0, 77, 61
3, 37149, Note_on_c, 0, 77, 0
3, 37152, Note_on_c, 0, 76, 61
3, 37197, Note_on_c, 0, 76, 0
3, 37200, Note_on_c, 0, 79, 61
3, 37245, Note_on_c, 0, 79, 0
3, 37248, Note_on_c, 0, 77, 61
3, 37293, Note_on_c, 0, 77, 0
3, 37296, Note_on_c, 0, 80, 61
3, 37330, Note_on_c, 0, 80, 0
3, 37332, Note_on_c, 0, 79, 61
3, 37344, Note_on_c, 0, 79, 0
3, 37344, Note_on_c, 0, 77, 61
3, 37389, Note_on_c, 0, 77, 0
3, 37392, Note_on_c, 0, 75, 61
3, 37437, Note_on_c, 0, 75, 0
3, 37440, Note_on_c, 0, 74, 61
3, 37485, Note_on_c, 0, 74, 0
3, 37488, Note_on_c, 0, 77, 61
3, 37533, Note_on_c, 0, 77, 0
3, 37536, Note_on_c, 0, 75, 61
3, 37548, Note_on_c, 0, 75, 0
3, 37548, Note_on_c, 0, 74, 61
3, 37560, Note_on_c, 0, 74, 0
3, 37560, Note_on_c, 0, 75, 61
3, 37572, Note_on_c, 0, 75, 0
3, 37572, Note_on_c, 0, 77, 61
3, 37584, Note_on_c, 0, 77, 0
3, 37584, Note_on_c, 0, 78, 61
3, 37607, Note_on_c, 0, 78, 0
3, 37608, Note_on_c, 0, 77, 61
3, 37631, Note_on_c, 0, 77, 0
3, 37632, Note_on_c, 0, 75, 61
3, 37677, Note_on_c, 0, 75, 0
3, 37680, Note_on_c, 0, 73, 61
3, 37725, Note_on_c, 0, 73, 0
3, 37728, Note_on_c, 0, 72, 61
3, 37773, Note_on_c, 0, 72, 0
3, 37776, Note_on_c, 0, 75, 61
3, 37821, Note_on_c, 0, 75, 0
3, 37824, Note_on_c, 0, 75, 61
3, 37869, Note_on_c, 0, 75, 0
3, 37872, Note_on_c, 0, 73, 61
3, 37878, Note_on_c, 0, 73, 0
3, 37878, Note_on_c, 0, 72, 61
3, 37884, Note_on_c, 0, 72, 0
3, 37884, Note_on_c, 0, 73, 61
3, 37963, Note_on_c, 0, 73, 0
3, 37968, Note_on_c, 0, 72, 61
3, 38013, Note_on_c, 0, 72, 0
3, 38016, Note_on_c, 0, 73, 61
3, 38061, Note_on_c, 0, 73, 0
3, 38064, Note_on_c, 0, 68, 61
3, 38109, Note_on_c, 0, 68, 0
3, 38112, Note_on_c, 0, 70, 61
3, 38245, Note_on_c, 0, 70, 0
3, 38304, Note_on_c, 0, 68, 61
3, 38349, Note_on_c, 0, 68, 0
3, 38352, Note_on_c, 0, 63, 61
3, 38397, Note_on_c, 0, 63, 0
3, 40920, Note_on_c, 0, 61, 61
3, 40930, Note_on_c, 0, 61, 0
3, 40944, Note_on_c, 0, 63, 61
3, 40951, Note_on_c, 0, 63, 0
3, 40951, Note_on_c, 0, 61, 61
3, 40958, Note_on_c, 0, 61, 0
3, 40958, Note_on_c, 0, 63, 61
3, 40965, Note_on_c, 0, 63, 0
3, 40965, Note_on_c, 0, 61, 61
3, 40972, Note_on_c, 0, 61, 0
3, 40972, Note_on_c, 0, 60, 61
3, 40979, Note_on_c, 0, 60, 0
3, 40979, Note_on_c, 0, 61, 61
3, 40992, Note_on_c, 0, 61, 0
3, 41016, Note_on_c, 0, 61, 61
3, 41026, Note_on_c, 0, 61, 0
3, 41040, Note_on_c, 0, 63, 61
3, 41047, Note_on_c, 0, 63, 0
3, 41047, Note_on_c, 0, 61, 61
3, 41054, Note_on_c, 0, 61, 0
3, 41054, Note_on_c, 0, 63, 61
3, 41061, Note_on_c, 0, 63, 0
3, 41061, Note_on_c, 0, 61, 61
3, 41068, Note_on_c, 0, 61, 0
3, 41068, Note_on_c, 0, 60, 61
3, 41075, Note_on_c, 0, 60, 0
3, 41075, Note_on_c, 0, 61, 61
3, 41088, Note_on_c, 0, 61, 0
3, 41088, Note_on_c, 0, 70, 61
3, 41103, Note_on_c, 0, 70, 0
3, 41104, Note_on_c, 0, 68, 61
3, 41119, Note_on_c, 0, 68, 0
3, 41120, Note_on_c, 0, 66, 61
3, 41135, Note_on_c, 0, 66, 0
3, 41136, Note_on_c, 0, 65, 61
3, 41151, Note_on_c, 0, 65, 0
3, 41152, Note_on_c, 0, 63, 61
3, 41167, Note_on_c, 0, 63, 0
3, 41168, Note_on_c, 0, 61, 61
3, 41183, Note_on_c, 0, 61, 0
3, 41184, Note_on_c, 0, 61, 61
3, 41280, Note_on_c, 0, 61, 0
3, 41280, Note_on_c, 0, 60, 61
3, 41369, Note_on_c, 0, 60, 0
3, 41496, Note_on_c, 0, 59, 61
3, 41506, Note_on_c, 0, 59, 0
3, 41520, Note_on_c, 0, 61, 61
3, 41527, Note_on_c, 0, 61, 0
3, 41527, Note_on_c, 0, 59, 61
3, 41534, Note_on_c, 0, 59, 0
3, 41534, Note_on_c, 0, 61, 61
3, 41541, Note_on_c, 0, 61, 0
3, 41541, Note_on_c, 0, 59, 61
3, 41548, Note_on_c, 0, 59, 0
3, 41548, Note_on_c, 0, 58, 61
3, 41555, Note_on_c, 0, 58, 0
3, 41555, Note_on_c, 0, 59, 61
3, 41568, Note_on_c, 0, 59, 0
3, 41592, Note_on_c, 0, 59, 61
3, 41602, Note_on_c, 0, 59, 0
3, 41616, Note_on_c, 0, 61, 61
3, 41623, Note_on_c, 0, 61, 0
3, 41623, Note_on_c, 0, 59, 61
3, 41630, Note_on_c, 0, 59, 0
3, 41630, Note_on_c, 0, 61, 61
3, 41637, Note_on_c, 0, 61, 0
3, 41637, Note_on_c, 0, 59, 61
3, 41644, Note_on_c, 0, 59, 0
3, 41644, Note_on_c, 0, 58, 61
3, 41651, Note_on_c, 0, 58, 0
3, 41651, Note_on_c, 0, 59, 61
3, 41664, Note_on_c, 0, 59, 0
3, 41664, Note_on_c, 0, 68, 61
3, 41679, Note_on_c, 0, 68, 0
3, 41680, Note_on_c, 0, 66, 61
3, 41695, Note_on_c, 0, 66, 0
3, 41696, Note_on_c, 0, 65, 61
3, 41711, Note_on_c, 0, 65, 0
3, 41712, Note_on_c, 0, 63, 61
3, 41727, Note_on_c, 0, 63, 0
3, 41728, Note_on_c, 0, 61, 61
3, 41743, Note_on_c, 0, 61, 0
3, 41744, Note_on_c, 0, 59, 61
3, 41759, Note_on_c, 0, 59, 0
3, 41760, Note_on_c, 0, 58, 61
3, 41805, Note_on_c, 0, 58, 0
3, 42072, Note_on_c, 0, 56, 61
3, 42082, Note_on_c, 0, 56, 0
3, 42096, Note_on_c, 0, 58, 61
3, 42103, Note_on_c, 0, 58, 0
3, 42103, Note_on_c, 0, 56, 61
3, 42110, Note_on_c, 0, 56, 0
3, 42110, Note_on_c, 0, 58, 61
3, 42117, Note_on_c, 0, 58, 0
3, 42117, Note_on_c, 0, 56, 61
3, 42124, Note_on_c, 0, 56, 0
3, 42124, Note_on_c, 0, 54, 61
3, 42131, Note_on_c, 0, 54, 0
3, 42131, Note_on_c, 0, 56, 61
3, 42144, Note_on_c, 0, 56, 0
3, 42168, Note_on_c, 0, 56, 61
3, 42178, Note_on_c, 0, 56, 0
3, 42192, Note_on_c, 0, 58, 61
3, 42199, Note_on_c, 0, 58, 0
3, 42199, Note_on_c, 0, 56, 61
3, 42206, Note_on_c, 0, 56, 0
3, 42206, Note_on_c, 0, 58, 61
3, 42213, Note_on_c, 0, 58, 0
3, 42213, Note_on_c, 0, 56, 61
3, 42220, Note_on_c, 0, 56, 0
3, 42220, Note_on_c, 0, 54, 61
3, 42227, Note_on_c, 0, 54, 0
3, 42227, Note_on_c, 0, 56, 61
3, 42240, Note_on_c, 0, 56, 0
3, 42264, Note_on_c, 0, 56, 61
3, 42274, Note_on_c, 0, 56, 0
3, 42288, Note_on_c, 0, 58, 61
3, 42295, Note_on_c, 0, 58, 0
3, 42295, Note_on_c, 0, 56, 61
3, 42302, Note_on_c, 0, 56, 0
3, 42302, Note_on_c, 0, 58, 61
3, 42309, Note_on_c, 0, 58, 0
3, 42309, Note_on_c, 0, 56, 61
3, 42316, Note_on_c, 0, 56, 0
3, 42316, Note_on_c, 0, 54, 61
3, 42323, Note_on_c, 0, 54, 0
3, 42323, Note_on_c, 0, 56, 61
3, 42336, Note_on_c, 0, 56, 0
3, 42360, Note_on_c, 0, 56, 61
3, 42370, Note_on_c, 0, 56, 0
3, 42384, Note_on_c, 0, 58, 61
3, 42391, Note_on_c, 0, 58, 0
3, 42391, Note_on_c, 0, 56, 61
3, 42398, Note_on_c, 0, 56, 0
3, 42398, Note_on_c, 0, 58, 61
3, 42405, Note_on_c, 0, 58, 0
3, 42405, Note_on_c, 0, 56, 61
3, 42412, Note_on_c, 0, 56, 0
3, 42412, Note_on_c, 0, 55, 61
3, 42419, Note_on_c, 0, 55, 0
3, 42419, Note_on_c, 0, 56, 61
3, 42432, Note_on_c, 0, 56, 0
3, 42456, Note_on_c, 0, 61, 63
3, 42466, Note_on_c, 0, 61, 0
3, 42480, Note_on_c, 0, 63, 66
3, 42487, Note_on_c, 0, 63, 0
3, 42487, Note_on_c, 0, 61, 67
3, 42494, Note_on_c, 0, 61, 0
3, 42494, Note_on_c, 0, 63, 68
3, 42501, Note_on_c, 0, 63, 0
3, 42501, Note_on_c, 0, 61, 68
3, 42508, Note_on_c, 0, 61, 0
3, 42508, Note_on_c, 0, 60, 69
3, 42515, Note_on_c, 0, 60, 0
3, 42515, Note_on_c, 0, 61, 70
3, 42528, Note_on_c, 0, 61, 0
3, 42552, Note_on_c, 0, 67, 74
3, 42562, Note_on_c, 0, 67, 0
3, 42576, Note_on_c, 0, 68, 77
3, 42583, Note_on_c, 0, 68, 0
3, 42583, Note_on_c, 0, 67, 78
3, 42590, Note_on_c, 0, 67, 0
3, 42590, Note_on_c, 0, 68, 78
3, 42597, Note_on_c, 0, 68, 0
3, 42597, Note_on_c, 0, 67, 79
3, 42604, Note_on_c, 0, 67, 0
3, 42604, Note_on_c, 0, 65, 80
3, 42611, Note_on_c, 0, 65, 0
3, 42611, Note_on_c, 0, 67, 81
3, 42624, Note_on_c, 0, 67, 0
3, 50400, End_track
4, 0, Start_track
4, 0, Program_c, 1, 0
4, 0, Control_c, 1, 7, 127
4, 0, Control_c, 1, 10, 64
4, 0, Note_on_c, 1, 61, 61
4, 45, Note_on_c, 1, 61, 0
4, 48, Note_on_c, 1, 65, 61
4, 93, Note_on_c, 1, 65, 0
4, 96, Note_on_c, 1, 68, 61
4, 141, Note_on_c, 1, 68, 0
4, 144, Note_on_c, 1, 73, 61
4, 189, Note_on_c, 1, 73, 0
4, 192, Note_on_c, 1, 72, 61
4, 237, Note_on_c, 1, 72, 0
4, 240, Note_on_c, 1, 70, 61
4, 333, Note_on_c, 1, 70, 0
4, 336, Note_on_c, 1, 67, 61
4, 381, Note_on_c, 1, 67, 0
4, 384, Note_on_c, 1, 68, 61
4, 429, Note_on_c, 1, 68, 0
4, 432, Note_on_c, 1, 63, 61
4, 477, Note_on_c, 1, 63, 0
4, 480, Note_on_c, 1, 65, 61
4, 525, Note_on_c, 1, 65, 0
4, 528, Note_on_c, 1, 66, 61
4, 621, Note_on_c, 1, 66, 0
4, 624, Note_on_c, 1, 65, 61
4, 713, Note_on_c, 1, 65, 0
4, 720, Note_on_c, 1, 63, 61
4, 765, Note_on_c, 1, 63, 0
4, 768, Note_on_c, 1, 61, 61
4, 774, Note_on_c, 1, 61, 0
4, 774, Note_on_c, 1, 63, 61
4, 780, Note_on_c, 1, 63, 0
4, 780, Note_on_c, 1, 61, 61
4, 815, Note_on_c, 1, 61, 0
4, 816, Note_on_c, 1, 60, 61
4, 861, Note_on_c, 1, 60, 0
4, 864, Note_on_c, 1, 61, 61
4, 1129, Note_on_c, 1, 61, 0
4, 1152, Note_on_c, 1, 61, 61
4, 1197, Note_on_c, 1, 61, 0
4, 1200, Note_on_c, 1, 65, 61
4, 1245, Note_on_c, 1, 65, 0
4, 1248, Note_on_c, 1, 68, 61
4, 1293, Note_on_c, 1, 68, 0
4, 1296, Note_on_c, 1, 73, 61
4, 1341, Note_on_c, 1, 73, 0
4, 1344, Note_on_c, 1, 72, 61
4, 1389, Note_on_c, 1, 72, 0
4, 1392, Note_on_c, 1, 70, 61
4, 1485, Note_on_c, 1, 70, 0
4, 1488, Note_on_c, 1, 67, 61
4, 1533, Note_on_c, 1, 67, 0
4, 1536, Note_on_c, 1, 68, 61
4, 1581, Note_on_c, 1, 68, 0
4, 1584, Note_on_c, 1, 63, 61
4, 1629, Note_on_c, 1, 63, 0
4, 1632, Note_on_c, 1, 65, 61
4, 1677, Note_on_c, 1, 65, 0
4, 1680, Note_on_c, 1, 66, 61
4, 1773, Note_on_c, 1, 66, 0
4, 1776, Note_on_c, 1, 65, 61
4, 1865, Note_on_c, 1, 65, 0
4, 1872, Note_on_c, 1, 63, 61
4, 1917, Note_on_c, 1, 63, 0
4, 1920, Note_on_c, 1, 61, 61
4, 1965, Note_on_c, 1, 61, 0
4, 1968, Note_on_c, 1, 60, 61
4, 2013, Note_on_c, 1, 60, 0
4, 2016, Note_on_c, 1, 61, 61
4, 2149, Note_on_c, 1, 61, 0
4, 2160, Note_on_c, 1, 49, 61
4, 2205, Note_on_c, 1, 49, 0
4, 2208, Note_on_c, 1, 53, 63
4, 2253, Note_on_c, 1, 53, 0
4, 2256, Note_on_c, 1, 56, 66
4, 2301, Note_on_c, 1, 56, 0
4, 2352, Note_on_c, 1, 65, 61
4, 2397, Note_on_c, 1, 65, 0
4, 2400, Note_on_c, 1, 69, 63
4, 2445, Note_on_c, 1, 69, 0
4, 2448, Note_on_c, 1, 70, 66
4, 2493, Note_on_c, 1, 70, 0
4, 2496, Note_on_c, 1, 72, 69
4, 2541, Note_on_c, 1, 72, 0
4, 2544, Note_on_c, 1, 73, 72
4, 2589, Note_on_c, 1, 73, 0
4, 2640, Note_on_c, 1, 63, 63
4, 2685, Note_on_c, 1, 63, 0
4, 2688, Note_on_c, 1, 67, 65
4, 2733, Note_on_c, 1, 67, 0
4, 2736, Note_on_c, 1, 68, 68
4, 2781, Note_on_c, 1, 68, 0
4, 2784, Note_on_c, 1, 70, 70
4, 2829, Note_on_c, 1, 70, 0
4, 2832, Note_on_c, 1, 72, 72
4, 2877, Note_on_c, 1, 72, 0
4, 2928, Note_on_c, 1, 61, 75
4, 2973, Note_on_c, 1, 61, 0
4, 2976, Note_on_c, 1, 65, 76
4, 3021, Note_on_c, 1, 65, 0
4, 3024, Note_on_c, 1, 69, 77
4, 3069, Note_on_c, 1, 69, 0
4, 3072, Note_on_c, 1, 70, 78
4, 3213, Note_on_c, 1, 70, 0
4, 3216, Note_on_c, 1, 68, 82
4, 3261, Note_on_c, 1, 68, 0
4, 3264, Note_on_c, 1, 67, 84
4, 3309, Note_on_c, 1, 67, 0
4, 3312, Note_on_c, 1, 65, 78
4, 3312, Note_on_c, 1, 61, 78
4, 3357, Note_on_c, 1, 65, 0
4, 3357, Note_on_c, 1, 61, 0
4, 3360, Note_on_c, 1, 63, 72
4, 3360, Note_on_c, 1, 60, 72
4, 3405, Note_on_c, 1, 63, 0
4, 3405, Note_on_c, 1, 60, 0
4, 3408, Note_on_c, 1, 61, 66
4, 3408, Note_on_c, 1, 58, 66
4, 3453, Note_on_c, 1, 61, 0
4, 3453, Note_on_c, 1, 58, 0
4, 3456, Note_on_c, 1, 60, 61
4, 3456, Note_on_c, 1, 56, 61
4, 3545, Note_on_c, 1, 60, 0
4, 3545, Note_on_c, 1, 56, 0
4, 3552, Note_on_c, 1, 68, 61
4, 3552, Note_on_c, 1, 60, 61
4, 3641, Note_on_c, 1, 68, 0
4, 3641, Note_on_c, 1, 60, 0
4, 3648, Note_on_c, 1, 60, 61
4, 3648, Note_on_c, 1, 56, 61
4, 3737, Note_on_c, 1, 60, 0
4, 3737, Note_on_c, 1, 56, 0
4, 3744, Note_on_c, 1, 58, 61
4, 3833, Note_on_c, 1, 58, 0
4, 3840, Note_on_c, 1, 65, 61
4, 3929, Note_on_c, 1, 65, 0
4, 3936, Note_on_c, 1, 58, 61
4, 4121, Note_on_c, 1, 58, 0
4, 4128, Note_on_c, 1, 63, 61
4, 4409, Note_on_c, 1, 63, 0
4, 4416, Note_on_c, 1, 63, 61
4, 4505, Note_on_c, 1, 63, 0
4, 4512, Note_on_c, 1, 56, 61
4, 4697, Note_on_c, 1, 56, 0
4, 4704, Note_on_c, 1, 53, 61
4, 4793, Note_on_c, 1, 53, 0
4, 4800, Note_on_c, 1, 58, 61
4, 4941, Note_on_c, 1, 58, 0
4, 4944, Note_on_c, 1, 61, 61
4, 4989, Note_on_c, 1, 61, 0
4, 4992, Note_on_c, 1, 60, 61
4, 5037, Note_on_c, 1, 60, 0
4, 5040, Note_on_c, 1, 56, 61
4, 5085, Note_on_c, 1, 56, 0
4, 5088, Note_on_c, 1, 55, 61
4, 5177, Note_on_c, 1, 55, 0
4, 5184, Note_on_c, 1, 56, 61
4, 5273, Note_on_c, 1, 56, 0
4, 5280, Note_on_c, 1, 53, 61
4, 5561, Note_on_c, 1, 53, 0
4, 5568, Note_on_c, 1, 51, 84
4, 5574, Note_on_c, 1, 55, 84
4, 5580, Note_on_c, 1, 58, 84
4, 5586, Note_on_c, 1, 63, 84
4, 5753, Note_on_c, 1, 63, 0
4, 5753, Note_on_c, 1, 58, 0
4, 5753, Note_on_c, 1, 55, 0
4, 5753, Note_on_c, 1, 51, 0
4, 6432, Note_on_c, 1, 58, 84
4, 6432, Note_on_c, 1, 51, 84
4, 6565, Note_on_c, 1, 58, 0
4, 6565, Note_on_c, 1, 51, 0
4, 6672, Note_on_c, 1, 56, 84
4, 6672, Note_on_c, 1, 44, 84
4, 6692, Note_on_c, 1, 56, 0
4, 6692, Note_on_c, 1, 44, 0
4, 6720, Note_on_c, 1, 56, 84
4, 6720, Note_on_c, 1, 44, 84
4, 6809, Note_on_c, 1, 56, 0
4, 6809, Note_on_c, 1, 44, 0
4, 6912, Note_on_c, 1, 61, 61
4, 7001, Note_on_c, 1, 61, 0
4, 7008, Note_on_c, 1, 63, 61
4, 7053, Note_on_c, 1, 63, 0
4, 7056, Note_on_c, 1, 64, 61
4, 7101, Note_on_c, 1, 64, 0
4, 7104, Note_on_c, 1, 65, 61
4, 7193, Note_on_c, 1, 65, 0
4, 7200, Note_on_c, 1, 58, 61
4, 7289, Note_on_c, 1, 58, 0
4, 7296, Note_on_c, 1, 63, 61
4, 7385, Note_on_c, 1, 63, 0
4, 7392, Note_on_c, 1, 51, 61
4, 7481, Note_on_c, 1, 51, 0
4, 7488, Note_on_c, 1, 56, 61
4, 7665, Note_on_c, 1, 56, 0
4, 7824, Note_on_c, 1, 56, 84
4, 7824, Note_on_c, 1, 44, 84
4, 7844, Note_on_c, 1, 56, 0
4, 7844, Note_on_c, 1, 44, 0
4, 7872, Note_on_c, 1, 56, 84
4, 7872, Note_on_c, 1, 44, 84
4, 7961, Note_on_c, 1, 56, 0
4, 7961, Note_on_c, 1, 44, 0
4, 8064, Note_on_c, 1, 61, 61
4, 8153, Note_on_c, 1, 61, 0
4, 8160, Note_on_c, 1, 63, 61
4, 8205, Note_on_c, 1, 63, 0
4, 8208, Note_on_c, 1, 64, 61
4, 8253, Note_on_c, 1, 64, 0
4, 8256, Note_on_c, 1, 65, 61
4, 8345, Note_on_c, 1, 65, 0
4, 8352, Note_on_c, 1, 62, 61
4, 8441, Note_on_c, 1, 62, 0
4, 8448, Note_on_c, 1, 63, 61
4, 8537, Note_on_c, 1, 63, 0
4, 8544, Note_on_c, 1, 51, 61
4, 8633, Note_on_c, 1, 51, 0
4, 8640, Note_on_c, 1, 56, 61
4, 8640, Note_on_c, 1, 44, 61
4, 8817, Note_on_c, 1, 56, 0
4, 8817, Note_on_c, 1, 44, 0
4, 8928, Note_on_c, 1, 61, 61
4, 8973, Note_on_c, 1, 61, 0
4, 8976, Note_on_c, 1, 65, 61
4, 9021, Note_on_c, 1, 65, 0
4, 9024, Note_on_c, 1, 68, 61
4, 9069, Note_on_c, 1, 68, 0
4, 9072, Note_on_c, 1, 73, 61
4, 9117, Note_on_c, 1, 73, 0
4, 9120, Note_on_c, 1, 72, 61
4, 9165, Note_on_c, 1, 72, 0
4, 9168, Note_on_c, 1, 70, 61
4, 9261, Note_on_c, 1, 70, 0
4, 9264, Note_on_c, 1, 67, 61
4, 9309, Note_on_c, 1, 67, 0
4, 9312, Note_on_c, 1, 68, 61
4, 9357, Note_on_c, 1, 68, 0
4, 9360, Note_on_c, 1, 63, 61
4, 9405, Note_on_c, 1, 63, 0
4, 9408, Note_on_c, 1, 65, 61
4, 9453, Note_on_c, 1, 65, 0
4, 9456, Note_on_c, 1, 66, 61
4, 9549, Note_on_c, 1, 66, 0
4, 9552, Note_on_c, 1, 65, 61
4, 9641, Note_on_c, 1, 65, 0
4, 9648, Note_on_c, 1, 63, 61
4, 9693, Note_on_c, 1, 63, 0
4, 9696, Note_on_c, 1, 61, 61
4, 9702, Note_on_c, 1, 61, 0
4, 9702, Note_on_c, 1, 63, 61
4, 9708, Note_on_c, 1, 63, 0
4, 9708, Note_on_c, 1, 61, 61
4, 9743, Note_on_c, 1, 61, 0
4, 9744, Note_on_c, 1, 60, 61
4, 9789, Note_on_c, 1, 60, 0
4, 9792, Note_on_c, 1, 61, 61
4, 10057, Note_on_c, 1, 61, 0
4, 10080, Note_on_c, 1, 61, 61
4, 10125, Note_on_c, 1, 61, 0
4, 10128, Note_on_c, 1, 65, 61
4, 10173, Note_on_c, 1, 65, 0
4, 10176, Note_on_c, 1, 68, 61
4, 10221, Note_on_c, 1, 68, 0
4, 10224, Note_on_c, 1, 73, 61
4, 10269, Note_on_c, 1, 73, 0
4, 10272, Note_on_c, 1, 72, 61
4, 10317, Note_on_c, 1, 72, 0
4, 10320, Note_on_c, 1, 70, 61
4, 10413, Note_on_c, 1, 70, 0
4, 10416, Note_on_c, 1, 67, 61
4, 10461, Note_on_c, 1, 67, 0
4, 10464, Note_on_c, 1, 68, 61
4, 10509, Note_on_c, 1, 68, 0
4, 10512, Note_on_c, 1, 63, 61
4, 10557, Note_on_c, 1, 63, 0
4, 10560, Note_on_c, 1, 65, 61
4, 10605, Note_on_c, 1, 65, 0
4, 10608, Note_on_c, 1, 66, 61
4, 10701, Note_on_c, 1, 66, 0
4, 10704, Note_on_c, 1, 65, 61
4, 10793, Note_on_c, 1, 65, 0
4, 10800, Note_on_c, 1, 63, 61
4, 10845, Note_on_c, 1, 63, 0
4, 10848, Note_on_c, 1, 61, 61
4, 10893, Note_on_c, 1, 61, 0
4, 10896, Note_on_c, 1, 60, 61
4, 10941, Note_on_c, 1, 60, 0
4, 10944, Note_on_c, 1, 61, 61
4, 11077, Note_on_c, 1, 61, 0
4, 11088, Note_on_c, 1, 49, 61
4, 11133, Note_on_c, 1, 49, 0
4, 11136, Note_on_c, 1, 53, 63
4, 11181, Note_on_c, 1, 53, 0
4, 11184, Note_on_c, 1, 56, 66
4, 11229, Note_on_c, 1, 56, 0
4, 11280, Note_on_c, 1, 65, 61
4, 11325, Note_on_c, 1, 65, 0
4, 11328, Note_on_c, 1, 69, 63
4, 11373, Note_on_c, 1, 69, 0
4, 11376, Note_on_c, 1, 70, 66
4, 11421, Note_on_c, 1, 70, 0
4, 11424, Note_on_c, 1, 72, 69
4, 11469, Note_on_c, 1, 72, 0
4, 11472, Note_on_c, 1, 73, 72
4, 11517, Note_on_c, 1, 73, 0
4, 11568, Note_on_c, 1, 63, 63
4, 11613, Note_on_c, 1, 63, 0
4, 11616, Note_on_c, 1, 67, 65
4, 11661, Note_on_c, 1, 67, 0
4, 11664, Note_on_c, 1, 68, 68
4, 11709, Note_on_c, 1, 68, 0
4, 11712, Note_on_c, 1, 70, 70
4, 11757, Note_on_c, 1, 70, 0
4, 11760, Note_on_c, 1, 72, 72
4, 11805, Note_on_c, 1, 72, 0
4, 11856, Note_on_c, 1, 61, 75
4, 11901, Note_on_c, 1, 61, 0
4, 11904, Note_on_c, 1, 65, 76
4, 11949, Note_on_c, 1, 65, 0
4, 11952, Note_on_c, 1, 69, 77
4, 11997, Note_on_c, 1, 69, 0
4, 12000, Note_on_c, 1, 70, 78
4, 12141, Note_on_c, 1, 70, 0
4, 12144, Note_on_c, 1, 68, 82
4, 12189, Note_on_c, 1, 68, 0
4, 12192, Note_on_c, 1, 67, 84
4, 12237, Note_on_c, 1, 67, 0
4, 12240, Note_on_c, 1, 65, 78
4, 12240, Note_on_c, 1, 61, 78
4, 12285, Note_on_c, 1, 65, 0
4, 12285, Note_on_c, 1, 61, 0
4, 12288, Note_on_c, 1, 63, 72
4, 12288, Note_on_c, 1, 60, 72
4, 12333, Note_on_c, 1, 63, 0
4, 12333, Note_on_c, 1, 60, 0
4, 12336, Note_on_c, 1, 61, 66
4, 12336, Note_on_c, 1, 58, 66
4, 12381, Note_on_c, 1, 61, 0
4, 12381, Note_on_c, 1, 58, 0
4, 12384, Note_on_c, 1, 60, 61
4, 12384, Note_on_c, 1, 56, 61
4, 12473, Note_on_c, 1, 60, 0
4, 12473, Note_on_c, 1, 56, 0
4, 12480, Note_on_c, 1, 68, 61
4, 12480, Note_on_c, 1, 60, 61
4, 12569, Note_on_c, 1, 68, 0
4, 12569, Note_on_c, 1, 60, 0
4, 12576, Note_on_c, 1, 60, 61
4, 12576, Note_on_c, 1, 56, 61
4, 12665, Note_on_c, 1, 60, 0
4, 12665, Note_on_c, 1, 56, 0
4, 12672, Note_on_c, 1, 58, 61
4, 12761, Note_on_c, 1, 58, 0
4, 12768, Note_on_c, 1, 65, 61
4, 12857, Note_on_c, 1, 65, 0
4, 12864, Note_on_c, 1, 58, 61
4, 13049, Note_on_c, 1, 58, 0
4, 13056, Note_on_c, 1, 63, 61
4, 13337, Note_on_c, 1, 63, 0
4, 13344, Note_on_c, 1, 63, 61
4, 13433, Note_on_c, 1, 63, 0
4, 13440, Note_on_c, 1, 56, 61
4, 13625, Note_on_c, 1, 56, 0
4, 13632, Note_on_c, 1, 53, 61
4, 13721, Note_on_c, 1, 53, 0
4, 13728, Note_on_c, 1, 58, 61
4, 13869, Note_on_c, 1, 58, 0
4, 13872, Note_on_c, 1, 61, 61
4, 13917, Note_on_c, 1, 61, 0
4, 13920, Note_on_c, 1, 60, 61
4, 13965, Note_on_c, 1, 60, 0
4, 13968, Note_on_c, 1, 56, 61
4, 14013, Note_on_c, 1, 56, 0
4, 14016, Note_on_c, 1, 55, 61
4, 14105, Note_on_c, 1, 55, 0
4, 14112, Note_on_c, 1, 56, 61
4, 14201, Note_on_c, 1, 56, 0
4, 14208, Note_on_c, 1, 53, 61
4, 14489, Note_on_c, 1, 53, 0
4, 14496, Note_on_c, 1, 51, 84
4, 14502, Note_on_c, 1, 55, 84
4, 14508, Note_on_c, 1, 58, 84
4, 14514, Note_on_c, 1, 63, 84
4, 14681, Note_on_c, 1, 63, 0
4, 14681, Note_on_c, 1, 58, 0
4, 14681, Note_on_c, 1, 55, 0
4, 14681, Note_on_c, 1, 51, 0
4, 15360, Note_on_c, 1, 58, 84
4, 15360, Note_on_c, 1, 51, 84
4, 15493, Note_on_c, 1, 58, 0
4, 15493, Note_on_c, 1, 51, 0
4, 15600, Note_on_c, 1, 56, 84
4, 15600, Note_on_c, 1, 44, 84
4, 15620, Note_on_c, 1, 56, 0
4, 15620, Note_on_c, 1, 44, 0
4, 15648, Note_on_c, 1, 56, 84
4, 15648, Note_on_c, 1, 44, 84
4, 15737, Note_on_c, 1, 56, 0
4, 15737, Note_on_c, 1, 44, 0
4, 15840, Note_on_c, 1, 61, 61
4, 15929, Note_on_c, 1, 61, 0
4, 15936, Note_on_c, 1, 63, 61
4, 15981, Note_on_c, 1, 63, 0
4, 15984, Note_on_c, 1, 64, 61
4, 16029, Note_on_c, 1, 64, 0
4, 16032, Note_on_c, 1, 65, 61
4, 16121, Note_on_c, 1, 65, 0
4, 16128, Note_on_c, 1, 58, 61
4, 16217, Note_on_c, 1, 58, 0
4, 16224, Note_on_c, 1, 63, 61
4, 16313, Note_on_c, 1, 63, 0
4, 16320, Note_on_c, 1, 51, 61
4, 16409, Note_on_c, 1, 51, 0
4, 16416, Note_on_c, 1, 56, 61
4, 16593, Note_on_c, 1, 56, 0
4, 16752, Note_on_c, 1, 56, 84
4, 16752, Note_on_c, 1, 44, 84
4, 16772, Note_on_c, 1, 56, 0
4, 16772, Note_on_c, 1, 44, 0
4, 16800, Note_on_c, 1, 56, 84
4, 16800, Note_on_c, 1, 44, 84
4, 16889, Note_on_c, 1, 56, 0
4, 16889, Note_on_c, 1, 44, 0
4, 16992, Note_on_c, 1, 61, 61
4, 17081, Note_on_c, 1, 61, 0
4, 17088, Note_on_c, 1, 63, 61
4, 17133, Note_on_c, 1, 63, 0
4, 17136, Note_on_c, 1, 64, 61
4, 17181, Note_on_c, 1, 64, 0
4, 17184, Note_on_c, 1, 65, 61
4, 17273, Note_on_c, 1, 65, 0
4, 17280, Note_on_c, 1, 62, 61
4, 17369, Note_on_c, 1, 62, 0
4, 17376, Note_on_c, 1, 63, 61
4, 17465, Note_on_c, 1, 63, 0
4, 17472, Note_on_c, 1, 51, 61
4, 17561, Note_on_c, 1, 51, 0
4, 17568, Note_on_c, 1, 56, 61
4, 17568, Note_on_c, 1, 44, 61
4, 17745, Note_on_c, 1, 56, 0
4, 17745, Note_on_c, 1, 44, 0
4, 17856, Note_on_c, 1, 56, 61
4, 17901, Note_on_c, 1, 56, 0
4, 17904, Note_on_c, 1, 60, 61
4, 17949, Note_on_c, 1, 60, 0
4, 17952, Note_on_c, 1, 63, 61
4, 17997, Note_on_c, 1, 63, 0
4, 18000, Note_on_c, 1, 68, 61
4, 18045, Note_on_c, 1, 68, 0
4, 18048, Note_on_c, 1, 67, 61
4, 18093, Note_on_c, 1, 67, 0
4, 18096, Note_on_c, 1, 65, 61
4, 18189, Note_on_c, 1, 65, 0
4, 18192, Note_on_c, 1, 62, 61
4, 18237, Note_on_c, 1, 62, 0
4, 18240, Note_on_c, 1, 63, 61
4, 18285, Note_on_c, 1, 63, 0
4, 18288, Note_on_c, 1, 58, 61
4, 18333, Note_on_c, 1, 58, 0
4, 18336, Note_on_c, 1, 60, 61
4, 18381, Note_on_c, 1, 60, 0
4, 18384, Note_on_c, 1, 61, 61
4, 18477, Note_on_c, 1, 61, 0
4, 18480, Note_on_c, 1, 58, 61
4, 18525, Note_on_c, 1, 58, 0
4, 18528, Note_on_c, 1, 60, 61
4, 18617, Note_on_c, 1, 60, 0
4, 18624, Note_on_c, 1, 59, 61
4, 18809, Note_on_c, 1, 59, 0
4, 18816, Note_on_c, 1, 53, 61
4, 18905, Note_on_c, 1, 53, 0
4, 18912, Note_on_c, 1, 58, 61
4, 19053, Note_on_c, 1, 58, 0
4, 19584, Note_on_c, 1, 54, 61
4, 19629, Note_on_c, 1, 54, 0
4, 19632, Note_on_c, 1, 53, 61
4, 19677, Note_on_c, 1, 53, 0
4, 19680, Note_on_c, 1, 51, 61
4, 19725, Note_on_c, 1, 51, 0
4, 19728, Note_on_c, 1, 49, 61
4, 19773, Note_on_c, 1, 49, 0
4, 19776, Note_on_c, 1, 48, 61
4, 19821, Note_on_c, 1, 48, 0
4, 19824, Note_on_c, 1, 46, 61
4, 19869, Note_on_c, 1, 46, 0
4, 19872, Note_on_c, 1, 45, 61
4, 19961, Note_on_c, 1, 45, 0
4, 19968, Note_on_c, 1, 60, 61
4, 19968, Note_on_c, 1, 57, 61
4, 20057, Note_on_c, 1, 60, 0
4, 20057, Note_on_c, 1, 57, 0
4, 20064, Note_on_c, 1, 65, 61
4, 20064, Note_on_c, 1, 63, 61
4, 20153, Note_on_c, 1, 65, 0
4, 20153, Note_on_c, 1, 63, 0
4, 20160, Note_on_c, 1, 65, 61
4, 20160, Note_on_c, 1, 61, 61
4, 20249, Note_on_c, 1, 65, 0
4, 20249, Note_on_c, 1, 61, 0
4, 20352, Note_on_c, 1, 70, 61
4, 20441, Note_on_c, 1, 70, 0
4, 20448, Note_on_c, 1, 69, 61
4, 20625, Note_on_c, 1, 69, 0
4, 20640, Note_on_c, 1, 65, 61
4, 20729, Note_on_c, 1, 65, 0
4, 20736, Note_on_c, 1, 70, 61
4, 20913, Note_on_c, 1, 70, 0
4, 20928, Note_on_c, 1, 70, 61
4, 21113, Note_on_c, 1, 70, 0
4, 21120, Note_on_c, 1, 68, 61
4, 21209, Note_on_c, 1, 68, 0
4, 21216, Note_on_c, 1, 68, 61
4, 21401, Note_on_c, 1, 68, 0
4, 21408, Note_on_c, 1, 66, 61
4, 21497, Note_on_c, 1, 66, 0
4, 21504, Note_on_c, 1, 66, 61
4, 21689, Note_on_c, 1, 66, 0
4, 21696, Note_on_c, 1, 65, 61
4, 21785, Note_on_c, 1, 65, 0
4, 21792, Note_on_c, 1, 63, 61
4, 21881, Note_on_c, 1, 63, 0
4, 21888, Note_on_c, 1, 61, 61
4, 21977, Note_on_c, 1, 61, 0
4, 21984, Note_on_c, 1, 54, 61
4, 22117, Note_on_c, 1, 54, 0
4, 22128, Note_on_c, 1, 55, 61
4, 22173, Note_on_c, 1, 55, 0
4, 22176, Note_on_c, 1, 56, 61
4, 22309, Note_on_c, 1, 56, 0
4, 22320, Note_on_c, 1, 54, 61
4, 22365, Note_on_c, 1, 54, 0
4, 22368, Note_on_c, 1, 53, 65
4, 22413, Note_on_c, 1, 53, 0
4, 22416, Note_on_c, 1, 51, 70
4, 22461, Note_on_c, 1, 51, 0
4, 22464, Note_on_c, 1, 53, 69
4, 22464, Note_on_c, 1, 49, 69
4, 22641, Note_on_c, 1, 53, 0
4, 22641, Note_on_c, 1, 49, 0
4, 22656, Note_on_c, 1, 65, 61
4, 22656, Note_on_c, 1, 61, 61
4, 22745, Note_on_c, 1, 65, 0
4, 22745, Note_on_c, 1, 61, 0
4, 22752, Note_on_c, 1, 63, 61
4, 22752, Note_on_c, 1, 60, 61
4, 22929, Note_on_c, 1, 63, 0
4, 22929, Note_on_c, 1, 60, 0
4, 23232, Note_on_c, 1, 63, 61
4, 23232, Note_on_c, 1, 59, 61
4, 23321, Note_on_c, 1, 63, 0
4, 23321, Note_on_c, 1, 59, 0
4, 23328, Note_on_c, 1, 61, 61
4, 23328, Note_on_c, 1, 58, 61
4, 23505, Note_on_c, 1, 61, 0
4, 23505, Note_on_c, 1, 58, 0
4, 23808, Note_on_c, 1, 61, 61
4, 23808, Note_on_c, 1, 57, 61
4, 23897, Note_on_c, 1, 61, 0
4, 23897, Note_on_c, 1, 57, 0
4, 23904, Note_on_c, 1, 66, 61
4, 23904, Note_on_c, 1, 63, 61
4, 23904, Note_on_c, 1, 56, 61
4, 24081, Note_on_c, 1, 66, 0
4, 24081, Note_on_c, 1, 63, 0
4, 24081, Note_on_c, 1, 56, 0
4, 24192, Note_on_c, 1, 56, 84
4, 24192, Note_on_c, 1, 51, 84
4, 24192, Note_on_c, 1, 48, 84
4, 24457, Note_on_c, 1, 56, 0
4, 24457, Note_on_c, 1, 51, 0
4, 24457, Note_on_c, 1, 48, 0
4, 24480, Note_on_c, 1, 56, 61
4, 24480, Note_on_c, 1, 53, 61
4, 24480, Note_on_c, 1, 49, 61
4, 24569, Note_on_c, 1, 56, 0
4, 24569, Note_on_c, 1, 53, 0
4, 24569, Note_on_c, 1, 49, 0
4, 24576, Note_on_c, 1, 61, 61
4, 24576, Note_on_c, 1, 53, 61
4, 24665, Note_on_c, 1, 61, 0
4, 24665, Note_on_c, 1, 53, 0
4, 24672, Note_on_c, 1, 53, 61
4, 24672, Note_on_c, 1, 49, 61
4, 24761, Note_on_c, 1, 53, 0
4, 24761, Note_on_c, 1, 49, 0
4, 24768, Note_on_c, 1, 51, 61
4, 24857, Note_on_c, 1, 51, 0
4, 24864, Note_on_c, 1, 58, 61
4, 24953, Note_on_c, 1, 58, 0
4, 24960, Note_on_c, 1, 51, 61
4, 25145, Note_on_c, 1, 51, 0
4, 25152, Note_on_c, 1, 56, 61
4, 25433, Note_on_c, 1, 56, 0
4, 25440, Note_on_c, 1, 56, 61
4, 25529, Note_on_c, 1, 56, 0
4, 25536, Note_on_c, 1, 49, 61
4, 25721, Note_on_c, 1, 49, 0
4, 25728, Note_on_c, 1, 46, 61
4, 25817, Note_on_c, 1, 46, 0
4, 25824, Note_on_c, 1, 51, 61
4, 25965, Note_on_c, 1, 51, 0
4, 25968, Note_on_c, 1, 54, 61
4, 26013, Note_on_c, 1, 54, 0
4, 26016, Note_on_c, 1, 53, 61
4, 26061, Note_on_c, 1, 53, 0
4, 26064, Note_on_c, 1, 49, 61
4, 26109, Note_on_c, 1, 49, 0
4, 26112, Note_on_c, 1, 48, 61
4, 26201, Note_on_c, 1, 48, 0
4, 26208, Note_on_c, 1, 49, 61
4, 26297, Note_on_c, 1, 49, 0
4, 26304, Note_on_c, 1, 46, 61
4, 26585, Note_on_c, 1, 46, 0
4, 26592, Note_on_c, 1, 44, 84
4, 26598, Note_on_c, 1, 48, 84
4, 26604, Note_on_c, 1, 51, 84
4, 26610, Note_on_c, 1, 56, 84
4, 26873, Note_on_c, 1, 56, 0
4, 26873, Note_on_c, 1, 51, 0
4, 26873, Note_on_c, 1, 48, 0
4, 26873, Note_on_c, 1, 44, 0
4, 27072, Note_on_c, 1, 56, 61
4, 27117, Note_on_c, 1, 56, 0
4, 27120, Note_on_c, 1, 58, 61
4, 27128, Note_on_c, 1, 58, 0
4, 27128, Note_on_c, 1, 60, 61
4, 27136, Note_on_c, 1, 60, 0
4, 27136, Note_on_c, 1, 61, 61
4, 27144, Note_on_c, 1, 61, 0
4, 27144, Note_on_c, 1, 63, 61
4, 27152, Note_on_c, 1, 63, 0
4, 27152, Note_on_c, 1, 65, 61
4, 27160, Note_on_c, 1, 65, 0
4, 27160, Note_on_c, 1, 66, 61
4, 27213, Note_on_c, 1, 66, 0
4, 27360, Note_on_c, 1, 49, 84
4, 27405, Note_on_c, 1, 49, 0
4, 27408, Note_on_c, 1, 53, 84
4, 27416, Note_on_c, 1, 53, 0
4, 27416, Note_on_c, 1, 56, 84
4, 27424, Note_on_c, 1, 56, 0
4, 27424, Note_on_c, 1, 61, 84
4, 27432, Note_on_c, 1, 61, 0
4, 27432, Note_on_c, 1, 65, 84
4, 27440, Note_on_c, 1, 65, 0
4, 27440, Note_on_c, 1, 68, 84
4, 27448, Note_on_c, 1, 68, 0
4, 27448, Note_on_c, 1, 73, 84
4, 27456, Note_on_c, 1, 73, 0
4, 27696, Note_on_c, 1, 56, 66
4, 27741, Note_on_c, 1, 56, 0
4, 27744, Note_on_c, 1, 56, 61
4, 27792, Note_on_c, 1, 56, 0
4, 27792, Note_on_c, 1, 57, 61
4, 27837, Note_on_c, 1, 57, 0
4, 27840, Note_on_c, 1, 58, 61
4, 27929, Note_on_c, 1, 58, 0
4, 27936, Note_on_c, 1, 51, 61
4, 28025, Note_on_c, 1, 51, 0
4, 28032, Note_on_c, 1, 56, 61
4, 28121, Note_on_c, 1, 56, 0
4, 28128, Note_on_c, 1, 44, 61
4, 28217, Note_on_c, 1, 44, 0
4, 28224, Note_on_c, 1, 49, 61
4, 28401, Note_on_c, 1, 49, 0
4, 28416, Note_on_c, 1, 49, 84
4, 28461, Note_on_c, 1, 49, 0
4, 28464, Note_on_c, 1, 53, 84
4, 28472, Note_on_c, 1, 53, 0
4, 28472, Note_on_c, 1, 56, 84
4, 28480, Note_on_c, 1, 56, 0
4, 28480, Note_on_c, 1, 61, 84
4, 28488, Note_on_c, 1, 61, 0
4, 28488, Note_on_c, 1, 65, 84
4, 28496, Note_on_c, 1, 65, 0
4, 28496, Note_on_c, 1, 68, 84
4, 28504, Note_on_c, 1, 68, 0
4, 28504, Note_on_c, 1, 73, 84
4, 28512, Note_on_c, 1, 73, 0
4, 28536, Note_on_c, 1, 61, 84
4, 28559, Note_on_c, 1, 61, 0
4, 28560, Note_on_c, 1, 65, 84
4, 28568, Note_on_c, 1, 65, 0
4, 28568, Note_on_c, 1, 68, 84
4, 28576, Note_on_c, 1, 68, 0
4, 28576, Note_on_c, 1, 73, 84
4, 28584, Note_on_c, 1, 73, 0
4, 28584, Note_on_c, 1, 77, 84
4, 28592, Note_on_c, 1, 77, 0
4, 28592, Note_on_c, 1, 80, 84
4, 28600, Note_on_c, 1, 80, 0
4, 28600, Note_on_c, 1, 85, 84
4, 28608, Note_on_c, 1, 85, 0
4, 28848, Note_on_c, 1, 68, 84
4, 28893, Note_on_c, 1, 68, 0
4, 28896, Note_on_c, 1, 68, 84
4, 28944, Note_on_c, 1, 68, 0
4, 28944, Note_on_c, 1, 69, 84
4, 28989, Note_on_c, 1, 69, 0
4, 28992, Note_on_c, 1, 70, 84
4, 29081, Note_on_c, 1, 70, 0
4, 29088, Note_on_c, 1, 73, 84
4, 29177, Note_on_c, 1, 73, 0
4, 29184, Note_on_c, 1, 71, 84
4, 29273, Note_on_c, 1, 71, 0
4, 29280, Note_on_c, 1, 71, 84
4, 29465, Note_on_c, 1, 71, 0
4, 29472, Note_on_c, 1, 70, 84
4, 29561, Note_on_c, 1, 70, 0
4, 29568, Note_on_c, 1, 70, 84
4, 29753, Note_on_c, 1, 70, 0
4, 29760, Note_on_c, 1, 68, 84
4, 29849, Note_on_c, 1, 68, 0
4, 29856, Note_on_c, 1, 68, 84
4, 30041, Note_on_c, 1, 68, 0
4, 30048, Note_on_c, 1, 66, 84
4, 30137, Note_on_c, 1, 66, 0
4, 30144, Note_on_c, 1, 66, 84
4, 30329, Note_on_c, 1, 66, 0
4, 30336, Note_on_c, 1, 65, 84
4, 30425, Note_on_c, 1, 65, 0
4, 30432, Note_on_c, 1, 61, 84
4, 30432, Note_on_c, 1, 56, 84
4, 30432, Note_on_c, 1, 53, 84
4, 30521, Note_on_c, 1, 61, 0
4, 30521, Note_on_c, 1, 56, 0
4, 30521, Note_on_c, 1, 53, 0
4, 30528, Note_on_c, 1, 61, 61
4, 30528, Note_on_c, 1, 58, 61
4, 30528, Note_on_c, 1, 54, 61
4, 30617, Note_on_c, 1, 61, 0
4, 30617, Note_on_c, 1, 58, 0
4, 30617, Note_on_c, 1, 54, 0
4, 30720, Note_on_c, 1, 63, 75
4, 30720, Note_on_c, 1, 54, 75
4, 30809, Note_on_c, 1, 63, 0
4, 30809, Note_on_c, 1, 54, 0
4, 30816, Note_on_c, 1, 64, 61
4, 30816, Note_on_c, 1, 56, 61
4, 30905, Note_on_c, 1, 64, 0
4, 30905, Note_on_c, 1, 56, 0
4, 30960, Note_on_c, 1, 64, 61
4, 30960, Note_on_c, 1, 56, 61
4, 31007, Note_on_c, 1, 64, 0
4, 31007, Note_on_c, 1, 56, 0
4, 31008, Note_on_c, 1, 64, 61
4, 31008, Note_on_c, 1, 56, 61
4, 31055, Note_on_c, 1, 64, 0
4, 31055, Note_on_c, 1, 56, 0
4, 31056, Note_on_c, 1, 64, 61
4, 31056, Note_on_c, 1, 56, 61
4, 31103, Note_on_c, 1, 64, 0
4, 31103, Note_on_c, 1, 56, 0
4, 31104, Note_on_c, 1, 64, 61
4, 31104, Note_on_c, 1, 57, 61
4, 31198, Note_on_c, 1, 64, 0
4, 31198, Note_on_c, 1, 57, 0
4, 31248, Note_on_c, 1, 64, 61
4, 31248, Note_on_c, 1, 57, 61
4, 31295, Note_on_c, 1, 64, 0
4, 31295, Note_on_c, 1, 57, 0
4, 31296, Note_on_c, 1, 64, 61
4, 31296, Note_on_c, 1, 57, 61
4, 31343, Note_on_c, 1, 64, 0
4, 31343, Note_on_c, 1, 57, 0
4, 31344, Note_on_c, 1, 64, 61
4, 31344, Note_on_c, 1, 57, 61
4, 31391, Note_on_c, 1, 64, 0
4, 31391, Note_on_c, 1, 57, 0
4, 31392, Note_on_c, 1, 64, 61
4, 31392, Note_on_c, 1, 56, 61
4, 31486, Note_on_c, 1, 64, 0
4, 31486, Note_on_c, 1, 56, 0
4, 31536, Note_on_c, 1, 64, 61
4, 31536, Note_on_c, 1, 56, 61
4, 31583, Note_on_c, 1, 64, 0
4, 31583, Note_on_c, 1, 56, 0
4, 31584, Note_on_c, 1, 64, 61
4, 31584, Note_on_c, 1, 56, 61
4, 31631, Note_on_c, 1, 64, 0
4, 31631, Note_on_c, 1, 56, 0
4, 31632, Note_on_c, 1, 64, 61
4, 31632, Note_on_c, 1, 56, 61
4, 31679, Note_on_c, 1, 64, 0
4, 31679, Note_on_c, 1, 56, 0
4, 31680, Note_on_c, 1, 64, 61
4, 31680, Note_on_c, 1, 57, 61
4, 31774, Note_on_c, 1, 64, 0
4, 31774, Note_on_c, 1, 57, 0
4, 31824, Note_on_c, 1, 64, 61
4, 31824, Note_on_c, 1, 57, 61
4, 31871, Note_on_c, 1, 64, 0
4, 31871, Note_on_c, 1, 57, 0
4, 31872, Note_on_c, 1, 64, 63
4, 31872, Note_on_c, 1, 57, 63
4, 31919, Note_on_c, 1, 64, 0
4, 31919, Note_on_c, 1, 57, 0
4, 31920, Note_on_c, 1, 65, 65
4, 31920, Note_on_c, 1, 57, 65
4, 31967, Note_on_c, 1, 65, 0
4, 31967, Note_on_c, 1, 57, 0
4, 31968, Note_on_c, 1, 66, 67
4, 31968, Note_on_c, 1, 57, 67
4, 32062, Note_on_c, 1, 66, 0
4, 32062, Note_on_c, 1, 57, 0
4, 32112, Note_on_c, 1, 67, 73
4, 32112, Note_on_c, 1, 58, 73
4, 32159, Note_on_c, 1, 67, 0
4, 32159, Note_on_c, 1, 58, 0
4, 32160, Note_on_c, 1, 67, 75
4, 32160, Note_on_c, 1, 58, 75
4, 32207, Note_on_c, 1, 67, 0
4, 32207, Note_on_c, 1, 58, 0
4, 32208, Note_on_c, 1, 67, 77
4, 32208, Note_on_c, 1, 58, 77
4, 32255, Note_on_c, 1, 67, 0
4, 32255, Note_on_c, 1, 58, 0
4, 32256, Note_on_c, 1, 68, 79
4, 32256, Note_on_c, 1, 65, 79
4, 32256, Note_on_c, 1, 56, 79
4, 32397, Note_on_c, 1, 68, 0
4, 32397, Note_on_c, 1, 65, 0
4, 32397, Note_on_c, 1, 56, 0
4, 32976, Note_on_c, 1, 60, 69
4, 32976, Note_on_c, 1, 56, 69
4, 33116, Note_on_c, 1, 60, 0
4, 33116, Note_on_c, 1, 56, 0
4, 33120, Note_on_c, 1, 61, 61
4, 33120, Note_on_c, 1, 49, 61
4, 33209, Note_on_c, 1, 61, 0
4, 33209, Note_on_c, 1, 49, 0
4, 33216, Note_on_c, 1, 54, 61
4, 33216, Note_on_c, 1, 42, 61
4, 33305, Note_on_c, 1, 54, 0
4, 33305, Note_on_c, 1, 42, 0
4, 33312, Note_on_c, 1, 56, 61
4, 33312, Note_on_c, 1, 44, 61
4, 33401, Note_on_c, 1, 56, 0
4, 33401, Note_on_c, 1, 44, 0
4, 33408, Note_on_c, 1, 61, 61
4, 33408, Note_on_c, 1, 49, 61
4, 33497, Note_on_c, 1, 61, 0
4, 33497, Note_on_c, 1, 49, 0
4, 33504, Note_on_c, 1, 54, 61
4, 33504, Note_on_c, 1, 42, 61
4, 33593, Note_on_c, 1, 54, 0
4, 33593, Note_on_c, 1, 42, 0
4, 33600, Note_on_c, 1, 51, 57
4, 33600, Note_on_c, 1, 44, 57
4, 33689, Note_on_c, 1, 51, 0
4, 33689, Note_on_c, 1, 44, 0
4, 33696, Note_on_c, 1, 49, 53
4, 33696, Note_on_c, 1, 37, 53
4, 33961, Note_on_c, 1, 49, 0
4, 33961, Note_on_c, 1, 37, 0
4, 33984, Note_on_c, 1, 56, 61
4, 34029, Note_on_c, 1, 56, 0
4, 34032, Note_on_c, 1, 60, 61
4, 34077, Note_on_c, 1, 60, 0
4, 34080, Note_on_c, 1, 63, 61
4, 34125, Note_on_c, 1, 63, 0
4, 34128, Note_on_c, 1, 68, 61
4, 34173, Note_on_c, 1, 68, 0
4, 34176, Note_on_c, 1, 67, 61
4, 34221, Note_on_c, 1, 67, 0
4, 34224, Note_on_c, 1, 65, 61
4, 34317, Note_on_c, 1, 65, 0
4, 34320, Note_on_c, 1, 62, 61
4, 34365, Note_on_c, 1, 62, 0
4, 34368, Note_on_c, 1, 63, 61
4, 34413, Note_on_c, 1, 63, 0
4, 34416, Note_on_c, 1, 58, 61
4, 34461, Note_on_c, 1, 58, 0
4, 34464, Note_on_c, 1, 60, 61
4, 34509, Note_on_c, 1, 60, 0
4, 34512, Note_on_c, 1, 61, 61
4, 34605, Note_on_c, 1, 61, 0
4, 34608, Note_on_c, 1, 58, 61
4, 34653, Note_on_c, 1, 58, 0
4, 34656, Note_on_c, 1, 60, 61
4, 34745, Note_on_c, 1, 60, 0
4, 34752, Note_on_c, 1, 59, 61
4, 34937, Note_on_c, 1, 59, 0
4, 34944, Note_on_c, 1, 53, 61
4, 35033, Note_on_c, 1, 53, 0
4, 35040, Note_on_c, 1, 58, 61
4, 35181, Note_on_c, 1, 58, 0
4, 35712, Note_on_c, 1, 54, 61
4, 35757, Note_on_c, 1, 54, 0
4, 35760, Note_on_c, 1, 53, 61
4, 35805, Note_on_c, 1, 53, 0
4, 35808, Note_on_c, 1, 51, 61
4, 35853, Note_on_c, 1, 51, 0
4, 35856, Note_on_c, 1, 49, 61
4, 35901, Note_on_c, 1, 49, 0
4, 35904, Note_on_c, 1, 48, 61
4, 35949, Note_on_c, 1, 48, 0
4, 35952, Note_on_c, 1, 46, 61
4, 35997, Note_on_c, 1, 46, 0
4, 36000, Note_on_c, 1, 45, 61
4, 36089, Note_on_c, 1, 45, 0
4, 36096, Note_on_c, 1, 60, 61
4, 36096, Note_on_c, 1, 57, 61
4, 36185, Note_on_c, 1, 60, 0
4, 36185, Note_on_c, 1, 57, 0
4, 36192, Note_on_c, 1, 65, 61
4, 36192, Note_on_c, 1, 63, 61
4, 36281, Note_on_c, 1, 65, 0
4, 36281, Note_on_c, 1, 63, 0
4, 36288, Note_on_c, 1, 65, 61
4, 36288, Note_on_c, 1, 61, 61
4, 36377, Note_on_c, 1, 65, 0
4, 36377, Note_on_c, 1, 61, 0
4, 36480, Note_on_c, 1, 70, 61
4, 36569, Note_on_c, 1, 70, 0
4, 36576, Note_on_c, 1, 69, 61
4, 36753, Note_on_c, 1, 69, 0
4, 36768, Note_on_c, 1, 65, 61
4, 36857, Note_on_c, 1, 65, 0
4, 36864, Note_on_c, 1, 70, 61
4, 37041, Note_on_c, 1, 70, 0
4, 37056, Note_on_c, 1, 70, 61
4, 37241, Note_on_c, 1, 70, 0
4, 37248, Note_on_c, 1, 68, 61
4, 37337, Note_on_c, 1, 68, 0
4, 37344, Note_on_c, 1, 68, 61
4, 37529, Note_on_c, 1, 68, 0
4, 37536, Note_on_c, 1, 66, 61
4, 37625, Note_on_c, 1, 66, 0
4, 37632, Note_on_c, 1, 66, 61
4, 37817, Note_on_c, 1, 66, 0
4, 37824, Note_on_c, 1, 65, 61
4, 37913, Note_on_c, 1, 65, 0
4, 37920, Note_on_c, 1, 63, 61
4, 38009, Note_on_c, 1, 63, 0
4, 38016, Note_on_c, 1, 61, 61
4, 38105, Note_on_c, 1, 61, 0
4, 38112, Note_on_c, 1, 54, 61
4, 38245, Note_on_c, 1, 54, 0
4, 38256, Note_on_c, 1, 55, 61
4, 38301, Note_on_c, 1, 55, 0
4, 38304, Note_on_c, 1, 56, 61
4, 38437, Note_on_c, 1, 56, 0
4, 38448, Note_on_c, 1, 54, 61
4, 38493, Note_on_c, 1, 54, 0
4, 38496, Note_on_c, 1, 53, 65
4, 38541, Note_on_c, 1, 53, 0
4, 38544, Note_on_c, 1, 51, 70
4, 38589, Note_on_c, 1, 51, 0
4, 38592, Note_on_c, 1, 53, 69
4, 38592, Note_on_c, 1, 49, 69
4, 38769, Note_on_c, 1, 53, 0
4, 38769, Note_on_c, 1, 49, 0
4, 38784, Note_on_c, 1, 65, 61
4, 38784, Note_on_c, 1, 61, 61
4, 38873, Note_on_c, 1, 65, 0
4, 38873, Note_on_c, 1, 61, 0
4, 38880, Note_on_c, 1, 63, 61
4, 38880, Note_on_c, 1, 60, 61
4, 39057, Note_on_c, 1, 63, 0
4, 39057, Note_on_c, 1, 60, 0
4, 39360, Note_on_c, 1, 63, 61
4, 39360, Note_on_c, 1, 59, 61
4, 39449, Note_on_c, 1, 63, 0
4, 39449, Note_on_c, 1, 59, 0
4, 39456, Note_on_c, 1, 61, 61
4, 39456, Note_on_c, 1, 58, 61
4, 39633, Note_on_c, 1, 61, 0
4, 39633, Note_on_c, 1, 58, 0
4, 39936, Note_on_c, 1, 61, 61
4, 39936, Note_on_c, 1, 57, 61
4, 40025, Note_on_c, 1, 61, 0
4, 40025, Note_on_c, 1, 57, 0
4, 40032, Note_on_c, 1, 66, 61
4, 40032, Note_on_c, 1, 63, 61
4, 40032, Note_on_c, 1, 56, 61
4, 40209, Note_on_c, 1, 66, 0
4, 40209, Note_on_c, 1, 63, 0
4, 40209, Note_on_c, 1, 56, 0
4, 40320, Note_on_c, 1, 56, 84
4, 40320, Note_on_c, 1, 51, 84
4, 40320, Note_on_c, 1, 48, 84
4, 40585, Note_on_c, 1, 56, 0
4, 40585, Note_on_c, 1, 51, 0
4, 40585, Note_on_c, 1, 48, 0
4, 40608, Note_on_c, 1, 56, 61
4, 40608, Note_on_c, 1, 53, 61
4, 40608, Note_on_c, 1, 49, 61
4, 40697, Note_on_c, 1, 56, 0
4, 40697, Note_on_c, 1, 53, 0
4, 40697, Note_on_c, 1, 49, 0
4, 40704, Note_on_c, 1, 61, 61
4, 40704, Note_on_c, 1, 53, 61
4, 40793, Note_on_c, 1, 61, 0
4, 40793, Note_on_c, 1, 53, 0
4, 40800, Note_on_c, 1, 53, 61
4, 40800, Note_on_c, 1, 49, 61
4, 40889, Note_on_c, 1, 53, 0
4, 40889, Note_on_c, 1, 49, 0
4, 40896, Note_on_c, 1, 51, 61
4, 40985, Note_on_c, 1, 51, 0
4, 40992, Note_on_c, 1, 58, 61
4, 41081, Note_on_c, 1, 58, 0
4, 41088, Note_on_c, 1, 51, 61
4, 41273, Note_on_c, 1, 51, 0
4, 41280, Note_on_c, 1, 56, 61
4, 41561, Note_on_c, 1, 56, 0
4, 41568, Note_on_c, 1, 56, 61
4, 41657, Note_on_c, 1, 56, 0
4, 41664, Note_on_c, 1, 49, 61
4, 41849, Note_on_c, 1, 49, 0
4, 41856, Note_on_c, 1, 46, 61
4, 41945, Note_on_c, 1, 46, 0
4, 41952, Note_on_c, 1, 51, 61
4, 42093, Note_on_c, 1, 51, 0
4, 42096, Note_on_c, 1, 54, 61
4, 42141, Note_on_c, 1, 54, 0
4, 42144, Note_on_c, 1, 53, 61
4, 42189, Note_on_c, 1, 53, 0
4, 42192, Note_on_c, 1, 49, 61
4, 42237, Note_on_c, 1, 49, 0
4, 42240, Note_on_c, 1, 48, 61
4, 42329, Note_on_c, 1, 48, 0
4, 42336, Note_on_c, 1, 49, 61
4, 42425, Note_on_c, 1, 49, 0
4, 42432, Note_on_c, 1, 46, 61
4, 42713, Note_on_c, 1, 46, 0
4, 42720, Note_on_c, 1, 44, 84
4, 42726, Note_on_c, 1, 48, 84
4, 42732, Note_on_c, 1, 51, 84
4, 42738, Note_on_c, 1, 56, 84
4, 43001, Note_on_c, 1, 56, 0
4, 43001, Note_on_c, 1, 51, 0
4, 43001, Note_on_c, 1, 48, 0
4, 43001, Note_on_c, 1, 44, 0
4, 43200, Note_on_c, 1, 56, 61
4, 43245, Note_on_c, 1, 56, 0
4, 43248, Note_on_c, 1, 58, 61
4, 43256, Note_on_c, 1, 58, 0
4, 43256, Note_on_c, 1, 60, 61
4, 43264, Note_on_c, 1, 60, 0
4, 43264, Note_on_c, 1, 61, 61
4, 43272, Note_on_c, 1, 61, 0
4, 43272, Note_on_c, 1, 63, 61
4, 43280, Note_on_c, 1, 63, 0
4, 43280, Note_on_c, 1, 65, 61
4, 43288, Note_on_c, 1, 65, 0
4, 43288, Note_on_c, 1, 66, 61
4, 43341, Note_on_c, 1, 66, 0
4, 43488, Note_on_c, 1, 49, 84
4, 43533, Note_on_c, 1, 49, 0
4, 43536, Note_on_c, 1, 53, 84
4, 43544, Note_on_c, 1, 53, 0
4, 43544, Note_on_c, 1, 56, 84
4, 43552, Note_on_c, 1, 56, 0
4, 43552, Note_on_c, 1, 61, 84
4, 43560, Note_on_c, 1, 61, 0
4, 43560, Note_on_c, 1, 65, 84
4, 43568, Note_on_c, 1, 65, 0
4, 43568, Note_on_c, 1, 68, 84
4, 43576, Note_on_c, 1, 68, 0
4, 43576, Note_on_c, 1, 73, 84
4, 43584, Note_on_c, 1, 73, 0
4, 43824, Note_on_c, 1, 56, 66
4, 43869, Note_on_c, 1, 56, 0
4, 43872, Note_on_c, 1, 56, 61
4, 43920, Note_on_c, 1, 56, 0
4, 43920, Note_on_c, 1, 57, 61
4, 43965, Note_on_c, 1, 57, 0
4, 43968, Note_on_c, 1, 58, 61
4, 44057, Note_on_c, 1, 58, 0
4, 44064, Note_on_c, 1, 51, 61
4, 44153, Note_on_c, 1, 51, 0
4, 44160, Note_on_c, 1, 56, 61
4, 44249, Note_on_c, 1, 56, 0
4, 44256, Note_on_c, 1, 44, 61
4, 44345, Note_on_c, 1, 44, 0
4, 44352, Note_on_c, 1, 49, 61
4, 44529, Note_on_c, 1, 49, 0
4, 44544, Note_on_c, 1, 49, 84
4, 44589, Note_on_c, 1, 49, 0
4, 44592, Note_on_c, 1, 53, 84
4, 44600, Note_on_c, 1, 53, 0
4, 44600, Note_on_c, 1, 56, 84
4, 44608, Note_on_c, 1, 56, 0
4, 44608, Note_on_c, 1, 61, 84
4, 44616, Note_on_c, 1, 61, 0
4, 44616, Note_on_c, 1, 65, 84
4, 44624, Note_on_c, 1, 65, 0
4, 44624, Note_on_c, 1, 68, 84
4, 44632, Note_on_c, 1, 68, 0
4, 44632, Note_on_c, 1, 73, 84
4, 44640, Note_on_c, 1, 73, 0
4, 44664, Note_on_c, 1, 61, 84
4, 44687, Note_on_c, 1, 61, 0
4, 44688, Note_on_c, 1, 65, 84
4, 44696, Note_on_c, 1, 65, 0
4, 44696, Note_on_c, 1, 68, 84
4, 44704, Note_on_c, 1, 68, 0
4, 44704, Note_on_c, 1, 73, 84
4, 44712, Note_on_c, 1, 73, 0
4, 44712, Note_on_c, 1, 77, 84
4, 44720, Note_on_c, 1, 77, 0
4, 44720, Note_on_c, 1, 80, 84
4, 44728, Note_on_c, 1, 80, 0
4, 44728, Note_on_c, 1, 85, 84
4, 44736, Note_on_c, 1, 85, 0
4, 44976, Note_on_c, 1, 68, 84
4, 45021, Note_on_c, 1, 68, 0
4, 45024, Note_on_c, 1, 68, 84
4, 45072, Note_on_c, 1, 68, 0
4, 45072, Note_on_c, 1, 69, 84
4, 45117, Note_on_c, 1, 69, 0
4, 45120, Note_on_c, 1, 70, 84
4, 45209, Note_on_c, 1, 70, 0
4, 45216, Note_on_c, 1, 73, 84
4, 45305, Note_on_c, 1, 73, 0
4, 45312, Note_on_c, 1, 71, 84
4, 45401, Note_on_c, 1, 71, 0
4, 45408, Note_on_c, 1, 71, 84
4, 45593, Note_on_c, 1, 71, 0
4, 45600, Note_on_c, 1, 70, 84
4, 45689, Note_on_c, 1, 70, 0
4, 45696, Note_on_c, 1, 70, 84
4, 45881, Note_on_c, 1, 70, 0
4, 45888, Note_on_c, 1, 68, 84
4, 45977, Note_on_c, 1, 68, 0
4, 45984, Note_on_c, 1, 68, 84
4, 46169, Note_on_c, 1, 68, 0
4, 46176, Note_on_c, 1, 66, 84
4, 46265, Note_on_c, 1, 66, 0
4, 46272, Note_on_c, 1, 66, 84
4, 46457, Note_on_c, 1, 66, 0
4, 46464, Note_on_c, 1, 65, 84
4, 46553, Note_on_c, 1, 65, 0
4, 46560, Note_on_c, 1, 61, 84
4, 46560, Note_on_c, 1, 56, 84
4, 46560, Note_on_c, 1, 53, 84
4, 46649, Note_on_c, 1, 61, 0
4, 46649, Note_on_c, 1, 56, 0
4, 46649, Note_on_c, 1, 53, 0
4, 46656, Note_on_c, 1, 61, 61
4, 46656, Note_on_c, 1, 58, 61
4, 46656, Note_on_c, 1, 54, 61
4, 46745, Note_on_c, 1, 61, 0
4, 46745, Note_on_c, 1, 58, 0
4, 46745, Note_on_c, 1, 54, 0
4, 46848, Note_on_c, 1, 63, 75
4, 46848, Note_on_c, 1, 54, 75
4, 46937, Note_on_c, 1, 63, 0
4, 46937, Note_on_c, 1, 54, 0
4, 46944, Note_on_c, 1, 64, 61
4, 46944, Note_on_c, 1, 56, 61
4, 47033, Note_on_c, 1, 64, 0
4, 47033, Note_on_c, 1, 56, 0
4, 47088, Note_on_c, 1, 64, 61
4, 47088, Note_on_c, 1, 56, 61
4, 47135, Note_on_c, 1, 64, 0
4, 47135, Note_on_c, 1, 56, 0
4, 47136, Note_on_c, 1, 64, 61
4, 47136, Note_on_c, 1, 56, 61
4, 47183, Note_on_c, 1, 64, 0
4, 47183, Note_on_c, 1, 56, 0
4, 47184, Note_on_c, 1, 64, 61
4, 47184, Note_on_c, 1, 56, 61
4, 47231, Note_on_c, 1, 64, 0
4, 47231, Note_on_c, 1, 56, 0
4, 47232, Note_on_c, 1, 64, 61
4, 47232, Note_on_c, 1, 57, 61
4, 47326, Note_on_c, 1, 64, 0
4, 47326, Note_on_c, 1, 57, 0
4, 47376, Note_on_c, 1, 64, 61
4, 47376, Note_on_c, 1, 57, 61
4, 47423, Note_on_c, 1, 64, 0
4, 47423, Note_on_c, 1, 57, 0
4, 47424, Note_on_c, 1, 64, 61
4, 47424, Note_on_c, 1, 57, 61
4, 47471, Note_on_c, 1, 64, 0
4, 47471, Note_on_c, 1, 57, 0
4, 47472, Note_on_c, 1, 64, 61
4, 47472, Note_on_c, 1, 57, 61
4, 47519, Note_on_c, 1, 64, 0
4, 47519, Note_on_c, 1, 57, 0
4, 47520, Note_on_c, 1, 64, 61
4, 47520, Note_on_c, 1, 56, 61
4, 47614, Note_on_c, 1, 64, 0
4, 47614, Note_on_c, 1, 56, 0
4, 47664, Note_on_c, 1, 64, 61
4, 47664, Note_on_c, 1, 56, 61
4, 47711, Note_on_c, 1, 64, 0
4, 47711, Note_on_c, 1, 56, 0
4, 47712, Note_on_c, 1, 64, 61
4, 47712, Note_on_c, 1, 56, 61
4, 47759, Note_on_c, 1, 64, 0
4, 47759, Note_on_c, 1, 56, 0
4, 47760, Note_on_c, 1, 64, 61
4, 47760, Note_on_c, 1, 56, 61
4, 47807, Note_on_c, 1, 64, 0
4, 47807, Note_on_c, 1, 56, 0
4, 47808, Note_on_c, 1, 64, 61
4, 47808, Note_on_c, 1, 57, 61
4, 47902, Note_on_c, 1, 64, 0
4, 47902, Note_on_c, 1, 57, 0
4, 47952, Note_on_c, 1, 64, 61
4, 47952, Note_on_c, 1, 57, 61
4, 47999, Note_on_c, 1, 64, 0
4, 47999, Note_on_c, 1, 57, 0
4, 48000, Note_on_c, 1, 64, 63
4, 48000, Note_on_c, 1, 57, 63
4, 48047, Note_on_c, 1, 64, 0
4, 48047, Note_on_c, 1, 57, 0
4, 48048, Note_on_c, 1, 65, 65
4, 48048, Note_on_c, 1, 57, 65
4, 48095, Note_on_c, 1, 65, 0
4, 48095, Note_on_c, 1, 57, 0
4, 48096, Note_on_c, 1, 66, 67
4, 48096, Note_on_c, 1, 57, 67
4, 48190, Note_on_c, 1, 66, 0
4, 48190, Note_on_c, 1, 57, 0
4, 48240, Note_on_c, 1, 67, 73
4, 48240, Note_on_c, 1, 58, 73
4, 48287, Note_on_c, 1, 67, 0
4, 48287, Note_on_c, 1, 58, 0
4, 48288, Note_on_c, 1, 67, 75
4, 48288, Note_on_c, 1, 58, 75
4, 48335, Note_on_c, 1, 67, 0
4, 48335, Note_on_c, 1, 58, 0
4, 48336, Note_on_c, 1, 67, 77
4, 48336, Note_on_c, 1, 58, 77
4, 48383, Note_on_c, 1, 67, 0
4, 48383, Note_on_c, 1, 58, 0
4, 48384, Note_on_c, 1, 68, 79
4, 48384, Note_on_c, 1, 65, 79
4, 48384, Note_on_c, 1, 56, 79
4, 48525, Note_on_c, 1, 68, 0
4, 48525, Note_on_c, 1, 65, 0
4, 48525, Note_on_c, 1, 56, 0
4, 49104, Note_on_c, 1, 60, 69
4, 49104, Note_on_c, 1, 56, 69
4, 49244, Note_on_c, 1, 60, 0
4, 49244, Note_on_c, 1, 56, 0
4, 49248, Note_on_c, 1, 61, 61
4, 49248, Note_on_c, 1, 49, 61
4, 49337, Note_on_c, 1, 61, 0
4, 49337, Note_on_c, 1, 49, 0
4, 49344, Note_on_c, 1, 54, 61
4, 49344, Note_on_c, 1, 42, 61
4, 49433, Note_on_c, 1, 54, 0
4, 49433, Note_on_c, 1, 42, 0
4, 49440, Note_on_c, 1, 56, 61
4, 49440, Note_on_c, 1, 44, 61
4, 49529, Note_on_c, 1, 56, 0
4, 49529, Note_on_c, 1, 44, 0
4, 49536, Note_on_c, 1, 61, 61
4, 49536, Note_on_c, 1, 49, 61
4, 49625, Note_on_c, 1, 61, 0
4, 49625, Note_on_c, 1, 49, 0
4, 49632, Note_on_c, 1, 54, 61
4, 49632, Note_on_c, 1, 42, 61
4, 49721, Note_on_c, 1, 54, 0
4, 49721, Note_on_c, 1, 42, 0
4, 49728, Note_on_c, 1, 51, 57
4, 49728, Note_on_c, 1, 44, 57
4, 49817, Note_on_c, 1, 51, 0
4, 49817, Note_on_c, 1, 44, 0
4, 49824, Note_on_c, 1, 49, 53
4, 49824, Note_on_c, 1, 37, 53
4, 50001, Note_on_c, 1, 49, 0
4, 50001, Note_on_c, 1, 37, 0
4, 50016, Note_on_c, 1, 37, 53
4, 50022, Note_on_c, 1, 41, 53
4, 50028, Note_on_c, 1, 44, 53
4, 50034, Note_on_c, 1, 49, 53
4, 50201, Note_on_c, 1, 49, 0
4, 50201, Note_on_c, 1, 44, 0
4, 50201, Note_on_c, 1, 41, 0
4, 50201, Note_on_c, 1, 37, 0
4, 50208, Note_on_c, 1, 37, 4
4, 50385, Note_on_c, 1, 37, 0
4, 50400, End_track
5, 0, Start_track
5, 0, Program_c, 1, 0
5, 0, Control_c, 1, 7, 127
5, 0, Control_c, 1, 10, 64
5, 0, Note_on_c, 1, 61, 61
5, 265, Note_on_c, 1, 61, 0
5, 288, Note_on_c, 1, 60, 61
5, 553, Note_on_c, 1, 60, 0
5, 576, Note_on_c, 1, 61, 61
5, 665, Note_on_c, 1, 61, 0
5, 672, Note_on_c, 1, 54, 61
5, 761, Note_on_c, 1, 54, 0
5, 768, Note_on_c, 1, 56, 61
5, 857, Note_on_c, 1, 56, 0
5, 864, Note_on_c, 1, 61, 61
5, 909, Note_on_c, 1, 61, 0
5, 912, Note_on_c, 1, 49, 61
5, 957, Note_on_c, 1, 49, 0
5, 960, Note_on_c, 1, 53, 61
5, 1005, Note_on_c, 1, 53, 0
5, 1008, Note_on_c, 1, 56, 61
5, 1053, Note_on_c, 1, 56, 0
5, 1056, Note_on_c, 1, 49, 61
5, 1145, Note_on_c, 1, 49, 0
5, 1152, Note_on_c, 1, 61, 61
5, 1329, Note_on_c, 1, 61, 0
5, 1344, Note_on_c, 1, 63, 61
5, 1433, Note_on_c, 1, 63, 0
5, 1440, Note_on_c, 1, 60, 61
5, 1705, Note_on_c, 1, 60, 0
5, 1728, Note_on_c, 1, 61, 61
5, 1817, Note_on_c, 1, 61, 0
5, 1824, Note_on_c, 1, 54, 61
5, 1913, Note_on_c, 1, 54, 0
5, 1920, Note_on_c, 1, 56, 61
5, 2009, Note_on_c, 1, 56, 0
5, 2016, Note_on_c, 1, 61, 61
5, 2149, Note_on_c, 1, 61, 0
5, 2304, Note_on_c, 1, 61, 61
5, 2569, Note_on_c, 1, 61, 0
5, 2592, Note_on_c, 1, 60, 61
5, 2857, Note_on_c, 1, 60, 0
5, 2880, Note_on_c, 1, 58, 61
5, 3057, Note_on_c, 1, 58, 0
5, 3072, Note_on_c, 1, 61, 61
5, 3117, Note_on_c, 1, 61, 0
5, 3120, Note_on_c, 1, 62, 61
5, 3165, Note_on_c, 1, 62, 0
5, 3168, Note_on_c, 1, 63, 61
5, 3301, Note_on_c, 1, 63, 0
5, 3744, Note_on_c, 1, 58, 61
5, 3921, Note_on_c, 1, 58, 0
5, 3936, Note_on_c, 1, 50, 61
5, 4025, Note_on_c, 1, 50, 0
5, 4032, Note_on_c, 1, 51, 61
5, 4209, Note_on_c, 1, 51, 0
5, 4224, Note_on_c, 1, 55, 61
5, 4313, Note_on_c, 1, 55, 0
5, 4320, Note_on_c, 1, 56, 61
5, 4497, Note_on_c, 1, 56, 0
5, 4512, Note_on_c, 1, 48, 61
5, 4601, Note_on_c, 1, 48, 0
5, 4608, Note_on_c, 1, 49, 61
5, 4873, Note_on_c, 1, 49, 0
5, 4896, Note_on_c, 1, 51, 61
5, 5561, Note_on_c, 1, 51, 0
5, 8928, Note_on_c, 1, 61, 61
5, 9193, Note_on_c, 1, 61, 0
5, 9216, Note_on_c, 1, 60, 61
5, 9481, Note_on_c, 1, 60, 0
5, 9504, Note_on_c, 1, 61, 61
5, 9593, Note_on_c, 1, 61, 0
5, 9600, Note_on_c, 1, 54, 61
5, 9689, Note_on_c, 1, 54, 0
5, 9696, Note_on_c, 1, 56, 61
5, 9785, Note_on_c, 1, 56, 0
5, 9792, Note_on_c, 1, 61, 61
5, 9837, Note_on_c, 1, 61, 0
5, 9840, Note_on_c, 1, 49, 61
5, 9885, Note_on_c, 1, 49, 0
5, 9888, Note_on_c, 1, 53, 61
5, 9933, Note_on_c, 1, 53, 0
5, 9936, Note_on_c, 1, 56, 61
5, 9981, Note_on_c, 1, 56, 0
5, 9984, Note_on_c, 1, 49, 61
5, 10073, Note_on_c, 1, 49, 0
5, 10080, Note_on_c, 1, 61, 61
5, 10257, Note_on_c, 1, 61, 0
5, 10272, Note_on_c, 1, 63, 61
5, 10361, Note_on_c, 1, 63, 0
5, 10368, Note_on_c, 1, 60, 61
5, 10633, Note_on_c, 1, 60, 0
5, 10656, Note_on_c, 1, 61, 61
5, 10745, Note_on_c, 1, 61, 0
5, 10752, Note_on_c, 1, 54, 61
5, 10841, Note_on_c, 1, 54, 0
5, 10848, Note_on_c, 1, 56, 61
5, 10937, Note_on_c, 1, 56, 0
5, 10944, Note_on_c, 1, 61, 61
5, 11077, Note_on_c, 1, 61, 0
5, 11232, Note_on_c, 1, 61, 61
5, 11497, Note_on_c, 1, 61, 0
5, 11520, Note_on_c, 1, 60, 61
5, 11785, Note_on_c, 1, 60, 0
5, 11808, Note_on_c, 1, 58, 61
5, 11985, Note_on_c, 1, 58, 0
5, 12000, Note_on_c, 1, 61, 61
5, 12045, Note_on_c, 1, 61, 0
5, 12048, Note_on_c, 1, 62, 61
5, 12093, Note_on_c, 1, 62, 0
5, 12096, Note_on_c, 1, 63, 61
5, 12229, Note_on_c, 1, 63, 0
5, 12672, Note_on_c, 1, 58, 61
5, 12849, Note_on_c, 1, 58, 0
5, 12864, Note_on_c, 1, 50, 61
5, 12953, Note_on_c, 1, 50, 0
5, 12960, Note_on_c, 1, 51, 61
5, 13137, Note_on_c, 1, 51, 0
5, 13152, Note_on_c, 1, 55, 61
5, 13241, Note_on_c, 1, 55, 0
5, 13248, Note_on_c, 1, 56, 61
5, 13425, Note_on_c, 1, 56, 0
5, 13440, Note_on_c, 1, 48, 61
5, 13529, Note_on_c, 1, 48, 0
5, 13536, Note_on_c, 1, 49, 61
5, 13801, Note_on_c, 1, 49, 0
5, 13824, Note_on_c, 1, 51, 61
5, 14489, Note_on_c, 1, 51, 0
5, 17856, Note_on_c, 1, 56, 61
5, 18033, Note_on_c, 1, 56, 0
5, 18048, Note_on_c, 1, 58, 61
5, 18137, Note_on_c, 1, 58, 0
5, 18144, Note_on_c, 1, 55, 61
5, 18321, Note_on_c, 1, 55, 0
5, 18336, Note_on_c, 1, 55, 61
5, 18425, Note_on_c, 1, 55, 0
5, 18432, Note_on_c, 1, 56, 61
5, 18565, Note_on_c, 1, 56, 0
5, 18576, Note_on_c, 1, 54, 61
5, 18621, Note_on_c, 1, 54, 0
5, 18624, Note_on_c, 1, 53, 61
5, 18669, Note_on_c, 1, 53, 0
5, 18672, Note_on_c, 1, 51, 61
5, 18717, Note_on_c, 1, 51, 0
5, 18720, Note_on_c, 1, 50, 61
5, 18985, Note_on_c, 1, 50, 0
5, 19008, Note_on_c, 1, 51, 61
5, 19053, Note_on_c, 1, 51, 0
5, 19056, Note_on_c, 1, 54, 61
5, 19101, Note_on_c, 1, 54, 0
5, 19104, Note_on_c, 1, 58, 61
5, 19149, Note_on_c, 1, 58, 0
5, 19152, Note_on_c, 1, 63, 61
5, 19197, Note_on_c, 1, 63, 0
5, 19200, Note_on_c, 1, 61, 61
5, 19245, Note_on_c, 1, 61, 0
5, 19248, Note_on_c, 1, 59, 61
5, 19341, Note_on_c, 1, 59, 0
5, 19344, Note_on_c, 1, 57, 61
5, 19389, Note_on_c, 1, 57, 0
5, 19392, Note_on_c, 1, 58, 61
5, 19437, Note_on_c, 1, 58, 0
5, 19440, Note_on_c, 1, 53, 61
5, 19485, Note_on_c, 1, 53, 0
5, 19488, Note_on_c, 1, 54, 61
5, 19533, Note_on_c, 1, 54, 0
5, 19536, Note_on_c, 1, 56, 61
5, 19581, Note_on_c, 1, 56, 0
5, 22128, Note_on_c, 1, 63, 61
5, 22173, Note_on_c, 1, 63, 0
5, 22176, Note_on_c, 1, 63, 61
5, 22221, Note_on_c, 1, 63, 0
5, 22224, Note_on_c, 1, 61, 61
5, 22269, Note_on_c, 1, 61, 0
5, 22272, Note_on_c, 1, 60, 61
5, 22317, Note_on_c, 1, 60, 0
5, 22320, Note_on_c, 1, 58, 61
5, 22365, Note_on_c, 1, 58, 0
5, 22368, Note_on_c, 1, 56, 61
5, 22413, Note_on_c, 1, 56, 0
5, 22416, Note_on_c, 1, 54, 61
5, 22461, Note_on_c, 1, 54, 0
5, 24768, Note_on_c, 1, 51, 61
5, 24945, Note_on_c, 1, 51, 0
5, 24960, Note_on_c, 1, 42, 61
5, 25049, Note_on_c, 1, 42, 0
5, 25056, Note_on_c, 1, 44, 61
5, 25233, Note_on_c, 1, 44, 0
5, 25248, Note_on_c, 1, 48, 61
5, 25337, Note_on_c, 1, 48, 0
5, 25344, Note_on_c, 1, 49, 61
5, 25521, Note_on_c, 1, 49, 0
5, 25536, Note_on_c, 1, 41, 61
5, 25625, Note_on_c, 1, 41, 0
5, 25632, Note_on_c, 1, 42, 61
5, 25897, Note_on_c, 1, 42, 0
5, 25920, Note_on_c, 1, 44, 61
5, 26585, Note_on_c, 1, 44, 0
5, 29088, Note_on_c, 1, 67, 61
5, 29177, Note_on_c, 1, 67, 0
5, 29184, Note_on_c, 1, 68, 61
5, 29273, Note_on_c, 1, 68, 0
5, 29280, Note_on_c, 1, 66, 61
5, 29369, Note_on_c, 1, 66, 0
5, 29376, Note_on_c, 1, 65, 61
5, 29465, Note_on_c, 1, 65, 0
5, 29472, Note_on_c, 1, 66, 61
5, 29561, Note_on_c, 1, 66, 0
5, 29568, Note_on_c, 1, 65, 61
5, 29657, Note_on_c, 1, 65, 0
5, 29664, Note_on_c, 1, 63, 61
5, 29753, Note_on_c, 1, 63, 0
5, 29760, Note_on_c, 1, 65, 61
5, 29849, Note_on_c, 1, 65, 0
5, 29856, Note_on_c, 1, 63, 61
5, 29945, Note_on_c, 1, 63, 0
5, 29952, Note_on_c, 1, 62, 61
5, 30041, Note_on_c, 1, 62, 0
5, 30048, Note_on_c, 1, 63, 61
5, 30137, Note_on_c, 1, 63, 0
5, 30144, Note_on_c, 1, 61, 61
5, 30233, Note_on_c, 1, 61, 0
5, 30240, Note_on_c, 1, 60, 61
5, 30329, Note_on_c, 1, 60, 0
5, 30336, Note_on_c, 1, 61, 61
5, 30425, Note_on_c, 1, 61, 0
5, 33984, Note_on_c, 1, 56, 61
5, 34161, Note_on_c, 1, 56, 0
5, 34176, Note_on_c, 1, 58, 61
5, 34265, Note_on_c, 1, 58, 0
5, 34272, Note_on_c, 1, 55, 61
5, 34449, Note_on_c, 1, 55, 0
5, 34464, Note_on_c, 1, 55, 61
5, 34553, Note_on_c, 1, 55, 0
5, 34560, Note_on_c, 1, 56, 61
5, 34693, Note_on_c, 1, 56, 0
5, 34704, Note_on_c, 1, 54, 61
5, 34749, Note_on_c, 1, 54, 0
5, 34752, Note_on_c, 1, 53, 61
5, 34797, Note_on_c, 1, 53, 0
5, 34800, Note_on_c, 1, 51, 61
5, 34845, Note_on_c, 1, 51, 0
5, 34848, Note_on_c, 1, 50, 61
5, 35113, Note_on_c, 1, 50, 0
5, 35136, Note_on_c, 1, 51, 61
5, 35181, Note_on_c, 1, 51, 0
5, 35184, Note_on_c, 1, 54, 61
5, 35229, Note_on_c, 1, 54, 0
5, 35232, Note_on_c, 1, 58, 61
5, 35277, Note_on_c, 1, 58, 0
5, 35280, Note_on_c, 1, 63, 61
5, 35325, Note_on_c, 1, 63, 0
5, 35328, Note_on_c, 1, 61, 61
5, 35373, Note_on_c, 1, 61, 0
5, 35376, Note_on_c, 1, 59, 61
5, 35469, Note_on_c, 1, 59, 0
5, 35472, Note_on_c, 1, 57, 61
5, 35517, Note_on_c, 1, 57, 0
5, 35520, Note_on_c, 1, 58, 61
5, 35565, Note_on_c, 1, 58, 0
5, 35568, Note_on_c, 1, 53, 61
5, 35613, Note_on_c, 1, 53, 0
5, 35616, Note_on_c, 1, 54, 61
5, 35661, Note_on_c, 1, 54, 0
5, 35664, Note_on_c, 1, 56, 61
5, 35709, Note_on_c, 1, 56, 0
5, 38256, Note_on_c, 1, 63, 61
5, 38301, Note_on_c, 1, 63, 0
5, 38304, Note_on_c, 1, 63, 61
5, 38349, Note_on_c, 1, 63, 0
5, 38352, Note_on_c, 1, 61, 61
5, 38397, Note_on_c, 1, 61, 0
5, 38400, Note_on_c, 1, 60, 61
5, 38445, Note_on_c, 1, 60, 0
5, 38448, Note_on_c, 1, 58, 61
5, 38493, Note_on_c, 1, 58, 0
5, 38496, Note_on_c, 1, 56, 61
5, 38541, Note_on_c, 1, 56, 0
5, 38544, Note_on_c, 1, 54, 61
5, 38589, Note_on_c, 1, 54, 0
5, 40896, Note_on_c, 1, 51, 61
5, 41073, Note_on_c, 1, 51, 0
5, 41088, Note_on_c, 1, 42, 61
5, 41177, Note_on_c, 1, 42, 0
5, 41184, Note_on_c, 1, 44, 61
5, 41361, Note_on_c, 1, 44, 0
5, 41376, Note_on_c, 1, 48, 61
5, 41465, Note_on_c, 1, 48, 0
5, 41472, Note_on_c, 1, 49, 61
5, 41649, Note_on_c, 1, 49, 0
5, 41664, Note_on_c, 1, 41, 61
5, 41753, Note_on_c, 1, 41, 0
5, 41760, Note_on_c, 1, 42, 61
5, 42025, Note_on_c, 1, 42, 0
5, 42048, Note_on_c, 1, 44, 61
5, 42713, Note_on_c, 1, 44, 0
5, 45216, Note_on_c, 1, 67, 61
5, 45305, Note_on_c, 1, 67, 0
5, 45312, Note_on_c, 1, 68, 61
5, 45401, Note_on_c, 1, 68, 0
5, 45408, Note_on_c, 1, 66, 61
5, 45497, Note_on_c, 1, 66, 0
5, 45504, Note_on_c, 1, 65, 61
5, 45593, Note_on_c, 1, 65, 0
5, 45600, Note_on_c, 1, 66, 61
5, 45689, Note_on_c, 1, 66, 0
5, 45696, Note_on_c, 1, 65, 61
5, 45785, Note_on_c, 1, 65, 0
5, 45792, Note_on_c, 1, 63, 61
5, 45881, Note_on_c, 1, 63, 0
5, 45888, Note_on_c, 1, 65, 61
5, 45977, Note_on_c, 1, 65, 0
5, 45984, Note_on_c, 1, 63, 61
5, 46073, Note_on_c, 1, 63, 0
5, 46080, Note_on_c, 1, 62, 61
5, 46169, Note_on_c, 1, 62, 0
5, 46176, Note_on_c, 1, 63, 61
5, 46265, Note_on_c, 1, 63, 0
5, 46272, Note_on_c, 1, 61, 61
5, 46361, Note_on_c, 1, 61, 0
5, 46368, Note_on_c, 1, 60, 61
5, 46457, Note_on_c, 1, 60, 0
5, 46464, Note_on_c, 1, 61, 61
5, 46553, Note_on_c, 1, 61, 0
5, 50400, End_track
6, 0, Start_track
6, 0, Title_t, "Sonata III   <composer>  "
6, 0, End_track
0, 0, End_of_file
