0, 0, Header, 1, 6, 96
1, 0, Start_track
1, 0, Copyright_t, "Copyright  2000 <copyright holder>"
1, 0, Text_t, "Sonata I\015\012"
1, 0, Text_t, "Haydn\015\012"
1, 0, Sequencer_specific, 16, 68, 87, 77, 90, 86, 82, 83, 78, 32, 55, 46, 49, 46, 51, 46, 48
1, 0, Time_signature, 4, 2, 24, 8
1, 0, Tempo, 714285
1, 0, Key_signature, -3, "major"
1, 3648, Tempo, 1200000
1, 3744, Tempo, 714285
1, 20160, Tempo, 1200000
1, 20256, Tempo, 714285
1, 61056, End_track
2, 0, Start_track
2, 0, Program_c, 0, 0
2, 0, Control_c, 0, 7, 127
2, 0, Control_c, 0, 10, 64
2, 0, Note_on_c, 0, 55, 80
2, 8, Note_on_c, 0, 58, 80
2, 16, Note_on_c, 0, 63, 80
2, 93, Note_on_c, 0, 63, 0
2, 93, Note_on_c, 0, 58, 0
2, 93, Note_on_c, 0, 55, 0
2, 96, Note_on_c, 0, 67, 80
2, 96, Note_on_c, 0, 63, 80
2, 96, Note_on_c, 0, 61, 80
2, 163, Note_on_c, 0, 67, 0
2, 163, Note_on_c, 0, 63, 0
2, 163, Note_on_c, 0, 61, 0
2, 168, Note_on_c, 0, 67, 80
2, 168, Note_on_c, 0, 63, 80
2, 168, Note_on_c, 0, 61, 80
2, 191, Note_on_c, 0, 67, 0
2, 191, Note_on_c, 0, 63, 0
2, 191, Note_on_c, 0, 61, 0
2, 192, Note_on_c, 0, 56, 80
2, 198, Note_on_c, 0, 60, 80
2, 204, Note_on_c, 0, 63, 80
2, 210, Note_on_c, 0, 68, 80
2, 336, Note_on_c, 0, 63, 0
2, 336, Note_on_c, 0, 60, 0
2, 336, Note_on_c, 0, 56, 0
2, 348, Note_on_c, 0, 68, 0
2, 348, Note_on_c, 0, 67, 80
2, 360, Note_on_c, 0, 67, 0
2, 360, Note_on_c, 0, 65, 80
2, 372, Note_on_c, 0, 65, 0
2, 372, Note_on_c, 0, 63, 80
2, 384, Note_on_c, 0, 63, 0
2, 384, Note_on_c, 0, 56, 80
2, 384, Note_on_c, 0, 58, 80
2, 384, Note_on_c, 0, 62, 80
2, 451, Note_on_c, 0, 62, 0
2, 451, Note_on_c, 0, 58, 0
2, 451, Note_on_c, 0, 56, 0
2, 456, Note_on_c, 0, 65, 80
2, 479, Note_on_c, 0, 65, 0
2, 480, Note_on_c, 0, 62, 80
2, 488, Note_on_c, 0, 65, 80
2, 496, Note_on_c, 0, 70, 80
2, 551, Note_on_c, 0, 70, 0
2, 551, Note_on_c, 0, 65, 0
2, 551, Note_on_c, 0, 62, 0
2, 552, Note_on_c, 0, 68, 80
2, 575, Note_on_c, 0, 68, 0
2, 576, Note_on_c, 0, 58, 80
2, 584, Note_on_c, 0, 63, 80
2, 592, Note_on_c, 0, 67, 80
2, 691, Note_on_c, 0, 67, 0
2, 691, Note_on_c, 0, 63, 0
2, 691, Note_on_c, 0, 58, 0
2, 768, Note_on_c, 0, 74, 64
2, 835, Note_on_c, 0, 74, 0
2, 840, Note_on_c, 0, 77, 64
2, 863, Note_on_c, 0, 77, 0
2, 864, Note_on_c, 0, 82, 64
2, 931, Note_on_c, 0, 82, 0
2, 936, Note_on_c, 0, 80, 64
2, 959, Note_on_c, 0, 80, 0
2, 960, Note_on_c, 0, 79, 64
2, 1005, Note_on_c, 0, 79, 0
2, 1080, Note_on_c, 0, 84, 64
2, 1080, Note_on_c, 0, 80, 64
2, 1103, Note_on_c, 0, 84, 0
2, 1103, Note_on_c, 0, 80, 0
2, 1104, Note_on_c, 0, 82, 64
2, 1104, Note_on_c, 0, 79, 64
2, 1127, Note_on_c, 0, 82, 0
2, 1127, Note_on_c, 0, 79, 0
2, 1128, Note_on_c, 0, 80, 64
2, 1128, Note_on_c, 0, 77, 64
2, 1151, Note_on_c, 0, 80, 0
2, 1151, Note_on_c, 0, 77, 0
2, 1152, Note_on_c, 0, 79, 64
2, 1152, Note_on_c, 0, 75, 64
2, 1172, Note_on_c, 0, 79, 0
2, 1172, Note_on_c, 0, 75, 0
2, 1272, Note_on_c, 0, 84, 75
2, 1272, Note_on_c, 0, 80, 75
2, 1295, Note_on_c, 0, 84, 0
2, 1295, Note_on_c, 0, 80, 0
2, 1296, Note_on_c, 0, 82, 75
2, 1296, Note_on_c, 0, 79, 75
2, 1319, Note_on_c, 0, 82, 0
2, 1319, Note_on_c, 0, 79, 0
2, 1320, Note_on_c, 0, 80, 75
2, 1320, Note_on_c, 0, 77, 75
2, 1343, Note_on_c, 0, 80, 0
2, 1343, Note_on_c, 0, 77, 0
2, 1344, Note_on_c, 0, 79, 75
2, 1344, Note_on_c, 0, 75, 75
2, 1364, Note_on_c, 0, 79, 0
2, 1364, Note_on_c, 0, 75, 0
2, 1464, Note_on_c, 0, 84, 80
2, 1464, Note_on_c, 0, 80, 80
2, 1487, Note_on_c, 0, 84, 0
2, 1487, Note_on_c, 0, 80, 0
2, 1488, Note_on_c, 0, 82, 80
2, 1488, Note_on_c, 0, 79, 80
2, 1511, Note_on_c, 0, 82, 0
2, 1511, Note_on_c, 0, 79, 0
2, 1512, Note_on_c, 0, 80, 80
2, 1512, Note_on_c, 0, 77, 80
2, 1535, Note_on_c, 0, 80, 0
2, 1535, Note_on_c, 0, 77, 0
2, 1536, Note_on_c, 0, 79, 80
2, 1536, Note_on_c, 0, 75, 80
2, 1546, Note_on_c, 0, 79, 0
2, 1546, Note_on_c, 0, 75, 0
2, 1560, Note_on_c, 0, 84, 80
2, 1560, Note_on_c, 0, 80, 80
2, 1583, Note_on_c, 0, 84, 0
2, 1583, Note_on_c, 0, 80, 0
2, 1584, Note_on_c, 0, 82, 80
2, 1584, Note_on_c, 0, 79, 80
2, 1607, Note_on_c, 0, 82, 0
2, 1607, Note_on_c, 0, 79, 0
2, 1608, Note_on_c, 0, 80, 80
2, 1608, Note_on_c, 0, 77, 80
2, 1631, Note_on_c, 0, 80, 0
2, 1631, Note_on_c, 0, 77, 0
2, 1632, Note_on_c, 0, 79, 80
2, 1632, Note_on_c, 0, 75, 80
2, 1642, Note_on_c, 0, 79, 0
2, 1642, Note_on_c, 0, 75, 0
2, 1656, Note_on_c, 0, 82, 78
2, 1656, Note_on_c, 0, 79, 78
2, 1679, Note_on_c, 0, 82, 0
2, 1679, Note_on_c, 0, 79, 0
2, 1680, Note_on_c, 0, 80, 77
2, 1680, Note_on_c, 0, 77, 77
2, 1703, Note_on_c, 0, 80, 0
2, 1703, Note_on_c, 0, 77, 0
2, 1704, Note_on_c, 0, 79, 76
2, 1704, Note_on_c, 0, 75, 76
2, 1727, Note_on_c, 0, 79, 0
2, 1727, Note_on_c, 0, 75, 0
2, 1728, Note_on_c, 0, 77, 74
2, 1728, Note_on_c, 0, 74, 74
2, 1751, Note_on_c, 0, 77, 0
2, 1751, Note_on_c, 0, 74, 0
2, 1752, Note_on_c, 0, 75, 73
2, 1752, Note_on_c, 0, 72, 73
2, 1775, Note_on_c, 0, 75, 0
2, 1775, Note_on_c, 0, 72, 0
2, 1776, Note_on_c, 0, 74, 72
2, 1776, Note_on_c, 0, 70, 72
2, 1799, Note_on_c, 0, 74, 0
2, 1799, Note_on_c, 0, 70, 0
2, 1800, Note_on_c, 0, 72, 70
2, 1800, Note_on_c, 0, 68, 70
2, 1823, Note_on_c, 0, 72, 0
2, 1823, Note_on_c, 0, 68, 0
2, 1824, Note_on_c, 0, 70, 69
2, 1824, Note_on_c, 0, 67, 69
2, 1847, Note_on_c, 0, 70, 0
2, 1847, Note_on_c, 0, 67, 0
2, 1848, Note_on_c, 0, 68, 68
2, 1848, Note_on_c, 0, 65, 68
2, 1871, Note_on_c, 0, 68, 0
2, 1871, Note_on_c, 0, 65, 0
2, 1872, Note_on_c, 0, 67, 66
2, 1872, Note_on_c, 0, 63, 66
2, 1895, Note_on_c, 0, 67, 0
2, 1895, Note_on_c, 0, 63, 0
2, 1896, Note_on_c, 0, 65, 65
2, 1896, Note_on_c, 0, 62, 65
2, 1919, Note_on_c, 0, 65, 0
2, 1919, Note_on_c, 0, 62, 0
2, 1920, Note_on_c, 0, 63, 86
2, 2083, Note_on_c, 0, 63, 0
2, 2088, Note_on_c, 0, 65, 70
2, 2100, Note_on_c, 0, 65, 0
2, 2100, Note_on_c, 0, 63, 70
2, 2112, Note_on_c, 0, 63, 0
2, 2112, Note_on_c, 0, 62, 70
2, 2208, Note_on_c, 0, 62, 0
2, 2208, Note_on_c, 0, 61, 86
2, 2304, Note_on_c, 0, 61, 0
2, 2304, Note_on_c, 0, 60, 86
2, 2467, Note_on_c, 0, 60, 0
2, 2472, Note_on_c, 0, 62, 70
2, 2484, Note_on_c, 0, 62, 0
2, 2484, Note_on_c, 0, 60, 70
2, 2496, Note_on_c, 0, 60, 0
2, 2496, Note_on_c, 0, 58, 86
2, 2568, Note_on_c, 0, 58, 0
2, 2568, Note_on_c, 0, 60, 70
2, 2580, Note_on_c, 0, 60, 0
2, 2580, Note_on_c, 0, 62, 70
2, 2592, Note_on_c, 0, 62, 0
2, 2592, Note_on_c, 0, 63, 70
2, 2659, Note_on_c, 0, 63, 0
2, 2664, Note_on_c, 0, 65, 70
2, 2676, Note_on_c, 0, 65, 0
2, 2676, Note_on_c, 0, 67, 70
2, 2688, Note_on_c, 0, 67, 0
2, 2688, Note_on_c, 0, 68, 86
2, 2784, Note_on_c, 0, 68, 0
2, 2784, Note_on_c, 0, 67, 70
2, 2873, Note_on_c, 0, 67, 0
2, 2880, Note_on_c, 0, 65, 70
2, 2880, Note_on_c, 0, 60, 70
2, 2900, Note_on_c, 0, 65, 0
2, 2900, Note_on_c, 0, 60, 0
2, 2976, Note_on_c, 0, 62, 70
2, 2976, Note_on_c, 0, 56, 70
2, 2996, Note_on_c, 0, 62, 0
2, 2996, Note_on_c, 0, 56, 0
2, 3072, Note_on_c, 0, 55, 80
2, 3080, Note_on_c, 0, 58, 80
2, 3088, Note_on_c, 0, 63, 80
2, 3165, Note_on_c, 0, 63, 0
2, 3165, Note_on_c, 0, 58, 0
2, 3165, Note_on_c, 0, 55, 0
2, 3168, Note_on_c, 0, 67, 80
2, 3168, Note_on_c, 0, 63, 80
2, 3168, Note_on_c, 0, 61, 80
2, 3235, Note_on_c, 0, 67, 0
2, 3235, Note_on_c, 0, 63, 0
2, 3235, Note_on_c, 0, 61, 0
2, 3240, Note_on_c, 0, 67, 80
2, 3240, Note_on_c, 0, 63, 80
2, 3240, Note_on_c, 0, 61, 80
2, 3263, Note_on_c, 0, 67, 0
2, 3263, Note_on_c, 0, 63, 0
2, 3263, Note_on_c, 0, 61, 0
2, 3264, Note_on_c, 0, 56, 80
2, 3270, Note_on_c, 0, 60, 80
2, 3276, Note_on_c, 0, 63, 80
2, 3282, Note_on_c, 0, 68, 80
2, 3357, Note_on_c, 0, 68, 0
2, 3357, Note_on_c, 0, 63, 0
2, 3357, Note_on_c, 0, 60, 0
2, 3357, Note_on_c, 0, 56, 0
2, 3360, Note_on_c, 0, 84, 80
2, 3372, Note_on_c, 0, 84, 0
2, 3372, Note_on_c, 0, 82, 80
2, 3384, Note_on_c, 0, 82, 0
2, 3384, Note_on_c, 0, 80, 80
2, 3396, Note_on_c, 0, 80, 0
2, 3396, Note_on_c, 0, 79, 80
2, 3408, Note_on_c, 0, 79, 0
2, 3408, Note_on_c, 0, 77, 80
2, 3420, Note_on_c, 0, 77, 0
2, 3420, Note_on_c, 0, 75, 80
2, 3432, Note_on_c, 0, 75, 0
2, 3432, Note_on_c, 0, 74, 80
2, 3444, Note_on_c, 0, 74, 0
2, 3444, Note_on_c, 0, 72, 80
2, 3456, Note_on_c, 0, 72, 0
2, 3456, Note_on_c, 0, 70, 80
2, 3468, Note_on_c, 0, 70, 0
2, 3468, Note_on_c, 0, 68, 80
2, 3480, Note_on_c, 0, 68, 0
2, 3480, Note_on_c, 0, 67, 80
2, 3492, Note_on_c, 0, 67, 0
2, 3492, Note_on_c, 0, 65, 80
2, 3504, Note_on_c, 0, 65, 0
2, 3504, Note_on_c, 0, 63, 80
2, 3516, Note_on_c, 0, 63, 0
2, 3516, Note_on_c, 0, 62, 80
2, 3528, Note_on_c, 0, 62, 0
2, 3528, Note_on_c, 0, 60, 80
2, 3540, Note_on_c, 0, 60, 0
2, 3540, Note_on_c, 0, 58, 80
2, 3552, Note_on_c, 0, 58, 0
2, 3552, Note_on_c, 0, 56, 80
2, 3562, Note_on_c, 0, 56, 0
2, 3562, Note_on_c, 0, 55, 80
2, 3572, Note_on_c, 0, 55, 0
2, 3572, Note_on_c, 0, 53, 80
2, 3582, Note_on_c, 0, 53, 0
2, 3582, Note_on_c, 0, 51, 80
2, 3592, Note_on_c, 0, 51, 0
2, 3592, Note_on_c, 0, 50, 80
2, 3602, Note_on_c, 0, 50, 0
2, 3602, Note_on_c, 0, 48, 80
2, 3612, Note_on_c, 0, 48, 0
2, 3612, Note_on_c, 0, 46, 80
2, 3621, Note_on_c, 0, 46, 0
2, 3621, Note_on_c, 0, 44, 80
2, 3630, Note_on_c, 0, 44, 0
2, 3630, Note_on_c, 0, 43, 80
2, 3639, Note_on_c, 0, 43, 0
2, 3639, Note_on_c, 0, 41, 80
2, 3648, Note_on_c, 0, 41, 0
2, 3744, Note_on_c, 0, 84, 64
2, 3767, Note_on_c, 0, 84, 0
2, 3768, Note_on_c, 0, 79, 64
2, 3791, Note_on_c, 0, 79, 0
2, 3792, Note_on_c, 0, 84, 64
2, 3815, Note_on_c, 0, 84, 0
2, 3816, Note_on_c, 0, 79, 64
2, 3839, Note_on_c, 0, 79, 0
2, 3840, Note_on_c, 0, 84, 64
2, 3863, Note_on_c, 0, 84, 0
2, 3864, Note_on_c, 0, 77, 64
2, 3887, Note_on_c, 0, 77, 0
2, 3888, Note_on_c, 0, 84, 64
2, 3911, Note_on_c, 0, 84, 0
2, 3912, Note_on_c, 0, 77, 64
2, 3935, Note_on_c, 0, 77, 0
2, 3936, Note_on_c, 0, 82, 64
2, 3959, Note_on_c, 0, 82, 0
2, 3960, Note_on_c, 0, 77, 64
2, 3983, Note_on_c, 0, 77, 0
2, 3984, Note_on_c, 0, 82, 64
2, 4007, Note_on_c, 0, 82, 0
2, 4008, Note_on_c, 0, 77, 64
2, 4031, Note_on_c, 0, 77, 0
2, 4032, Note_on_c, 0, 82, 64
2, 4055, Note_on_c, 0, 82, 0
2, 4056, Note_on_c, 0, 76, 64
2, 4079, Note_on_c, 0, 76, 0
2, 4080, Note_on_c, 0, 82, 64
2, 4103, Note_on_c, 0, 82, 0
2, 4104, Note_on_c, 0, 76, 64
2, 4127, Note_on_c, 0, 76, 0
2, 4128, Note_on_c, 0, 80, 64
2, 4151, Note_on_c, 0, 80, 0
2, 4152, Note_on_c, 0, 75, 64
2, 4175, Note_on_c, 0, 75, 0
2, 4176, Note_on_c, 0, 80, 64
2, 4199, Note_on_c, 0, 80, 0
2, 4200, Note_on_c, 0, 75, 64
2, 4223, Note_on_c, 0, 75, 0
2, 4224, Note_on_c, 0, 80, 64
2, 4247, Note_on_c, 0, 80, 0
2, 4248, Note_on_c, 0, 74, 64
2, 4271, Note_on_c, 0, 74, 0
2, 4272, Note_on_c, 0, 80, 64
2, 4295, Note_on_c, 0, 80, 0
2, 4296, Note_on_c, 0, 74, 64
2, 4319, Note_on_c, 0, 74, 0
2, 4320, Note_on_c, 0, 79, 64
2, 4343, Note_on_c, 0, 79, 0
2, 4344, Note_on_c, 0, 73, 64
2, 4367, Note_on_c, 0, 73, 0
2, 4368, Note_on_c, 0, 79, 64
2, 4391, Note_on_c, 0, 79, 0
2, 4392, Note_on_c, 0, 73, 64
2, 4415, Note_on_c, 0, 73, 0
2, 4416, Note_on_c, 0, 79, 64
2, 4439, Note_on_c, 0, 79, 0
2, 4440, Note_on_c, 0, 72, 64
2, 4463, Note_on_c, 0, 72, 0
2, 4464, Note_on_c, 0, 79, 64
2, 4487, Note_on_c, 0, 79, 0
2, 4488, Note_on_c, 0, 72, 64
2, 4511, Note_on_c, 0, 72, 0
2, 4512, Note_on_c, 0, 77, 64
2, 4535, Note_on_c, 0, 77, 0
2, 4536, Note_on_c, 0, 72, 64
2, 4559, Note_on_c, 0, 72, 0
2, 4560, Note_on_c, 0, 77, 64
2, 4583, Note_on_c, 0, 77, 0
2, 4584, Note_on_c, 0, 72, 64
2, 4607, Note_on_c, 0, 72, 0
2, 4608, Note_on_c, 0, 77, 64
2, 4631, Note_on_c, 0, 77, 0
2, 4632, Note_on_c, 0, 70, 64
2, 4655, Note_on_c, 0, 70, 0
2, 4656, Note_on_c, 0, 77, 64
2, 4679, Note_on_c, 0, 77, 0
2, 4680, Note_on_c, 0, 70, 64
2, 4703, Note_on_c, 0, 70, 0
2, 4704, Note_on_c, 0, 75, 64
2, 4727, Note_on_c, 0, 75, 0
2, 4728, Note_on_c, 0, 70, 64
2, 4751, Note_on_c, 0, 70, 0
2, 4752, Note_on_c, 0, 75, 64
2, 4775, Note_on_c, 0, 75, 0
2, 4776, Note_on_c, 0, 70, 64
2, 4799, Note_on_c, 0, 70, 0
2, 4800, Note_on_c, 0, 75, 64
2, 4823, Note_on_c, 0, 75, 0
2, 4824, Note_on_c, 0, 69, 64
2, 4847, Note_on_c, 0, 69, 0
2, 4848, Note_on_c, 0, 75, 64
2, 4871, Note_on_c, 0, 75, 0
2, 4872, Note_on_c, 0, 69, 64
2, 4895, Note_on_c, 0, 69, 0
2, 4896, Note_on_c, 0, 73, 64
2, 4919, Note_on_c, 0, 73, 0
2, 4920, Note_on_c, 0, 70, 64
2, 4943, Note_on_c, 0, 70, 0
2, 4944, Note_on_c, 0, 73, 64
2, 4967, Note_on_c, 0, 73, 0
2, 4968, Note_on_c, 0, 70, 64
2, 4991, Note_on_c, 0, 70, 0
2, 4992, Note_on_c, 0, 69, 64
2, 5015, Note_on_c, 0, 69, 0
2, 5016, Note_on_c, 0, 72, 64
2, 5039, Note_on_c, 0, 72, 0
2, 5040, Note_on_c, 0, 77, 64
2, 5063, Note_on_c, 0, 77, 0
2, 5064, Note_on_c, 0, 72, 64
2, 5087, Note_on_c, 0, 72, 0
2, 5088, Note_on_c, 0, 78, 64
2, 5111, Note_on_c, 0, 78, 0
2, 5112, Note_on_c, 0, 69, 64
2, 5135, Note_on_c, 0, 69, 0
2, 5136, Note_on_c, 0, 81, 64
2, 5159, Note_on_c, 0, 81, 0
2, 5160, Note_on_c, 0, 72, 64
2, 5183, Note_on_c, 0, 72, 0
2, 5184, Note_on_c, 0, 82, 64
2, 5207, Note_on_c, 0, 82, 0
2, 5208, Note_on_c, 0, 70, 64
2, 5231, Note_on_c, 0, 70, 0
2, 5232, Note_on_c, 0, 78, 64
2, 5255, Note_on_c, 0, 78, 0
2, 5256, Note_on_c, 0, 70, 64
2, 5279, Note_on_c, 0, 70, 0
2, 5280, Note_on_c, 0, 77, 64
2, 5303, Note_on_c, 0, 77, 0
2, 5304, Note_on_c, 0, 70, 64
2, 5327, Note_on_c, 0, 70, 0
2, 5328, Note_on_c, 0, 76, 64
2, 5351, Note_on_c, 0, 76, 0
2, 5352, Note_on_c, 0, 70, 64
2, 5375, Note_on_c, 0, 70, 0
2, 5376, Note_on_c, 0, 69, 64
2, 5399, Note_on_c, 0, 69, 0
2, 5400, Note_on_c, 0, 72, 64
2, 5423, Note_on_c, 0, 72, 0
2, 5424, Note_on_c, 0, 77, 64
2, 5447, Note_on_c, 0, 77, 0
2, 5448, Note_on_c, 0, 72, 64
2, 5471, Note_on_c, 0, 72, 0
2, 5472, Note_on_c, 0, 78, 64
2, 5495, Note_on_c, 0, 78, 0
2, 5496, Note_on_c, 0, 69, 64
2, 5519, Note_on_c, 0, 69, 0
2, 5520, Note_on_c, 0, 81, 64
2, 5543, Note_on_c, 0, 81, 0
2, 5544, Note_on_c, 0, 72, 64
2, 5567, Note_on_c, 0, 72, 0
2, 5568, Note_on_c, 0, 82, 64
2, 5591, Note_on_c, 0, 82, 0
2, 5592, Note_on_c, 0, 70, 64
2, 5615, Note_on_c, 0, 70, 0
2, 5616, Note_on_c, 0, 78, 64
2, 5639, Note_on_c, 0, 78, 0
2, 5640, Note_on_c, 0, 70, 64
2, 5663, Note_on_c, 0, 70, 0
2, 5664, Note_on_c, 0, 77, 64
2, 5687, Note_on_c, 0, 77, 0
2, 5688, Note_on_c, 0, 70, 64
2, 5711, Note_on_c, 0, 70, 0
2, 5712, Note_on_c, 0, 76, 64
2, 5735, Note_on_c, 0, 76, 0
2, 5736, Note_on_c, 0, 70, 64
2, 5759, Note_on_c, 0, 70, 0
2, 5760, Note_on_c, 0, 77, 64
2, 5783, Note_on_c, 0, 77, 0
2, 5784, Note_on_c, 0, 69, 65
2, 5807, Note_on_c, 0, 69, 0
2, 5808, Note_on_c, 0, 72, 66
2, 5831, Note_on_c, 0, 72, 0
2, 5832, Note_on_c, 0, 69, 67
2, 5855, Note_on_c, 0, 69, 0
2, 5856, Note_on_c, 0, 77, 68
2, 5871, Note_on_c, 0, 77, 0
2, 5872, Note_on_c, 0, 72, 68
2, 5887, Note_on_c, 0, 72, 0
2, 5888, Note_on_c, 0, 69, 69
2, 5903, Note_on_c, 0, 69, 0
2, 5904, Note_on_c, 0, 77, 69
2, 5919, Note_on_c, 0, 77, 0
2, 5920, Note_on_c, 0, 72, 70
2, 5935, Note_on_c, 0, 72, 0
2, 5936, Note_on_c, 0, 69, 70
2, 5951, Note_on_c, 0, 69, 0
2, 5952, Note_on_c, 0, 76, 71
2, 5967, Note_on_c, 0, 76, 0
2, 5968, Note_on_c, 0, 70, 71
2, 5983, Note_on_c, 0, 70, 0
2, 5984, Note_on_c, 0, 67, 72
2, 5999, Note_on_c, 0, 67, 0
2, 6000, Note_on_c, 0, 76, 72
2, 6015, Note_on_c, 0, 76, 0
2, 6016, Note_on_c, 0, 70, 73
2, 6031, Note_on_c, 0, 70, 0
2, 6032, Note_on_c, 0, 67, 73
2, 6047, Note_on_c, 0, 67, 0
2, 6048, Note_on_c, 0, 75, 74
2, 6063, Note_on_c, 0, 75, 0
2, 6064, Note_on_c, 0, 72, 74
2, 6079, Note_on_c, 0, 72, 0
2, 6080, Note_on_c, 0, 65, 75
2, 6095, Note_on_c, 0, 65, 0
2, 6096, Note_on_c, 0, 75, 75
2, 6111, Note_on_c, 0, 75, 0
2, 6112, Note_on_c, 0, 72, 76
2, 6127, Note_on_c, 0, 72, 0
2, 6128, Note_on_c, 0, 65, 76
2, 6143, Note_on_c, 0, 65, 0
2, 6144, Note_on_c, 0, 62, 80
2, 6152, Note_on_c, 0, 65, 80
2, 6160, Note_on_c, 0, 70, 80
2, 6237, Note_on_c, 0, 70, 0
2, 6237, Note_on_c, 0, 65, 0
2, 6237, Note_on_c, 0, 62, 0
2, 6240, Note_on_c, 0, 74, 80
2, 6240, Note_on_c, 0, 70, 80
2, 6240, Note_on_c, 0, 68, 80
2, 6307, Note_on_c, 0, 74, 0
2, 6307, Note_on_c, 0, 70, 0
2, 6307, Note_on_c, 0, 68, 0
2, 6312, Note_on_c, 0, 74, 80
2, 6312, Note_on_c, 0, 70, 80
2, 6312, Note_on_c, 0, 68, 80
2, 6335, Note_on_c, 0, 74, 0
2, 6335, Note_on_c, 0, 70, 0
2, 6335, Note_on_c, 0, 68, 0
2, 6336, Note_on_c, 0, 63, 80
2, 6342, Note_on_c, 0, 67, 80
2, 6348, Note_on_c, 0, 70, 80
2, 6354, Note_on_c, 0, 75, 80
2, 6451, Note_on_c, 0, 75, 0
2, 6451, Note_on_c, 0, 70, 0
2, 6451, Note_on_c, 0, 67, 0
2, 6451, Note_on_c, 0, 63, 0
2, 6456, Note_on_c, 0, 79, 80
2, 6468, Note_on_c, 0, 79, 0
2, 6468, Note_on_c, 0, 77, 80
2, 6480, Note_on_c, 0, 77, 0
2, 6480, Note_on_c, 0, 75, 80
2, 6492, Note_on_c, 0, 75, 0
2, 6492, Note_on_c, 0, 74, 80
2, 6504, Note_on_c, 0, 74, 0
2, 6504, Note_on_c, 0, 72, 80
2, 6516, Note_on_c, 0, 72, 0
2, 6516, Note_on_c, 0, 70, 80
2, 6528, Note_on_c, 0, 70, 0
2, 6528, Note_on_c, 0, 69, 80
2, 6540, Note_on_c, 0, 69, 0
2, 6540, Note_on_c, 0, 70, 80
2, 6552, Note_on_c, 0, 70, 0
2, 6552, Note_on_c, 0, 72, 80
2, 6564, Note_on_c, 0, 72, 0
2, 6564, Note_on_c, 0, 74, 80
2, 6576, Note_on_c, 0, 74, 0
2, 6576, Note_on_c, 0, 75, 80
2, 6588, Note_on_c, 0, 75, 0
2, 6588, Note_on_c, 0, 77, 80
2, 6600, Note_on_c, 0, 77, 0
2, 6600, Note_on_c, 0, 79, 80
2, 6612, Note_on_c, 0, 79, 0
2, 6612, Note_on_c, 0, 81, 80
2, 6624, Note_on_c, 0, 81, 0
2, 6624, Note_on_c, 0, 82, 80
2, 6636, Note_on_c, 0, 82, 0
2, 6636, Note_on_c, 0, 84, 80
2, 6648, Note_on_c, 0, 84, 0
2, 6648, Note_on_c, 0, 86, 80
2, 6660, Note_on_c, 0, 86, 0
2, 6660, Note_on_c, 0, 87, 80
2, 6672, Note_on_c, 0, 87, 0
2, 6672, Note_on_c, 0, 89, 80
2, 6682, Note_on_c, 0, 89, 0
2, 6696, Note_on_c, 0, 87, 80
2, 6706, Note_on_c, 0, 87, 0
2, 6720, Note_on_c, 0, 86, 80
2, 6730, Note_on_c, 0, 86, 0
2, 6744, Note_on_c, 0, 84, 80
2, 6754, Note_on_c, 0, 84, 0
2, 6768, Note_on_c, 0, 82, 80
2, 6778, Note_on_c, 0, 82, 0
2, 6792, Note_on_c, 0, 81, 80
2, 6802, Note_on_c, 0, 81, 0
2, 6816, Note_on_c, 0, 79, 80
2, 6826, Note_on_c, 0, 79, 0
2, 6840, Note_on_c, 0, 77, 80
2, 6850, Note_on_c, 0, 77, 0
2, 6864, Note_on_c, 0, 75, 80
2, 6874, Note_on_c, 0, 75, 0
2, 6888, Note_on_c, 0, 74, 80
2, 6898, Note_on_c, 0, 74, 0
2, 6912, Note_on_c, 0, 72, 80
2, 6922, Note_on_c, 0, 72, 0
2, 6922, Note_on_c, 0, 70, 80
2, 6932, Note_on_c, 0, 70, 0
2, 6932, Note_on_c, 0, 69, 80
2, 6942, Note_on_c, 0, 69, 0
2, 6942, Note_on_c, 0, 70, 80
2, 6952, Note_on_c, 0, 70, 0
2, 6952, Note_on_c, 0, 72, 80
2, 6962, Note_on_c, 0, 72, 0
2, 6962, Note_on_c, 0, 74, 80
2, 6972, Note_on_c, 0, 74, 0
2, 6972, Note_on_c, 0, 75, 80
2, 6981, Note_on_c, 0, 75, 0
2, 6981, Note_on_c, 0, 77, 80
2, 6990, Note_on_c, 0, 77, 0
2, 6990, Note_on_c, 0, 79, 80
2, 6999, Note_on_c, 0, 79, 0
2, 6999, Note_on_c, 0, 81, 80
2, 7008, Note_on_c, 0, 81, 0
2, 7008, Note_on_c, 0, 82, 80
2, 7020, Note_on_c, 0, 82, 0
2, 7020, Note_on_c, 0, 84, 80
2, 7032, Note_on_c, 0, 84, 0
2, 7032, Note_on_c, 0, 86, 80
2, 7044, Note_on_c, 0, 86, 0
2, 7044, Note_on_c, 0, 87, 80
2, 7056, Note_on_c, 0, 87, 0
2, 7056, Note_on_c, 0, 89, 80
2, 7079, Note_on_c, 0, 89, 0
2, 7080, Note_on_c, 0, 87, 79
2, 7103, Note_on_c, 0, 87, 0
2, 7104, Note_on_c, 0, 86, 79
2, 7110, Note_on_c, 0, 86, 0
2, 7110, Note_on_c, 0, 87, 79
2, 7116, Note_on_c, 0, 87, 0
2, 7116, Note_on_c, 0, 86, 79
2, 7127, Note_on_c, 0, 86, 0
2, 7128, Note_on_c, 0, 84, 78
2, 7151, Note_on_c, 0, 84, 0
2, 7152, Note_on_c, 0, 82, 78
2, 7158, Note_on_c, 0, 82, 0
2, 7158, Note_on_c, 0, 84, 78
2, 7164, Note_on_c, 0, 84, 0
2, 7164, Note_on_c, 0, 82, 78
2, 7175, Note_on_c, 0, 82, 0
2, 7176, Note_on_c, 0, 81, 77
2, 7199, Note_on_c, 0, 81, 0
2, 7200, Note_on_c, 0, 79, 77
2, 7206, Note_on_c, 0, 79, 0
2, 7206, Note_on_c, 0, 81, 77
2, 7212, Note_on_c, 0, 81, 0
2, 7212, Note_on_c, 0, 79, 77
2, 7223, Note_on_c, 0, 79, 0
2, 7224, Note_on_c, 0, 77, 76
2, 7247, Note_on_c, 0, 77, 0
2, 7248, Note_on_c, 0, 75, 76
2, 7254, Note_on_c, 0, 75, 0
2, 7254, Note_on_c, 0, 77, 76
2, 7260, Note_on_c, 0, 77, 0
2, 7260, Note_on_c, 0, 75, 76
2, 7271, Note_on_c, 0, 75, 0
2, 7272, Note_on_c, 0, 74, 75
2, 7295, Note_on_c, 0, 74, 0
2, 7296, Note_on_c, 0, 79, 75
2, 7415, Note_on_c, 0, 79, 0
2, 7416, Note_on_c, 0, 82, 75
2, 7439, Note_on_c, 0, 82, 0
2, 7440, Note_on_c, 0, 81, 75
2, 7463, Note_on_c, 0, 81, 0
2, 7464, Note_on_c, 0, 79, 75
2, 7487, Note_on_c, 0, 79, 0
2, 7488, Note_on_c, 0, 77, 75
2, 7607, Note_on_c, 0, 77, 0
2, 7608, Note_on_c, 0, 82, 75
2, 7631, Note_on_c, 0, 82, 0
2, 7632, Note_on_c, 0, 81, 75
2, 7655, Note_on_c, 0, 81, 0
2, 7656, Note_on_c, 0, 79, 75
2, 7679, Note_on_c, 0, 79, 0
2, 7680, Note_on_c, 0, 77, 75
2, 7703, Note_on_c, 0, 77, 0
2, 7704, Note_on_c, 0, 76, 74
2, 7727, Note_on_c, 0, 76, 0
2, 7728, Note_on_c, 0, 79, 73
2, 7751, Note_on_c, 0, 79, 0
2, 7752, Note_on_c, 0, 77, 73
2, 7775, Note_on_c, 0, 77, 0
2, 7776, Note_on_c, 0, 76, 72
2, 7799, Note_on_c, 0, 76, 0
2, 7800, Note_on_c, 0, 82, 72
2, 7823, Note_on_c, 0, 82, 0
2, 7824, Note_on_c, 0, 81, 71
2, 7847, Note_on_c, 0, 81, 0
2, 7848, Note_on_c, 0, 79, 71
2, 7871, Note_on_c, 0, 79, 0
2, 7872, Note_on_c, 0, 77, 70
2, 7895, Note_on_c, 0, 77, 0
2, 7896, Note_on_c, 0, 76, 70
2, 7919, Note_on_c, 0, 76, 0
2, 7920, Note_on_c, 0, 79, 70
2, 7943, Note_on_c, 0, 79, 0
2, 7944, Note_on_c, 0, 77, 70
2, 7967, Note_on_c, 0, 77, 0
2, 7968, Note_on_c, 0, 76, 70
2, 7991, Note_on_c, 0, 76, 0
2, 7992, Note_on_c, 0, 82, 70
2, 8015, Note_on_c, 0, 82, 0
2, 8016, Note_on_c, 0, 81, 70
2, 8039, Note_on_c, 0, 81, 0
2, 8040, Note_on_c, 0, 79, 70
2, 8063, Note_on_c, 0, 79, 0
2, 8064, Note_on_c, 0, 77, 64
2, 8087, Note_on_c, 0, 77, 0
2, 8088, Note_on_c, 0, 76, 64
2, 8111, Note_on_c, 0, 76, 0
2, 8112, Note_on_c, 0, 79, 64
2, 8135, Note_on_c, 0, 79, 0
2, 8136, Note_on_c, 0, 77, 64
2, 8159, Note_on_c, 0, 77, 0
2, 8160, Note_on_c, 0, 76, 64
2, 8183, Note_on_c, 0, 76, 0
2, 8184, Note_on_c, 0, 82, 64
2, 8207, Note_on_c, 0, 82, 0
2, 8208, Note_on_c, 0, 79, 64
2, 8231, Note_on_c, 0, 79, 0
2, 8232, Note_on_c, 0, 76, 64
2, 8255, Note_on_c, 0, 76, 0
2, 8256, Note_on_c, 0, 79, 64
2, 8279, Note_on_c, 0, 79, 0
2, 8280, Note_on_c, 0, 77, 64
2, 8303, Note_on_c, 0, 77, 0
2, 8304, Note_on_c, 0, 76, 64
2, 8327, Note_on_c, 0, 76, 0
2, 8328, Note_on_c, 0, 77, 64
2, 8351, Note_on_c, 0, 77, 0
2, 8352, Note_on_c, 0, 76, 64
2, 8375, Note_on_c, 0, 76, 0
2, 8376, Note_on_c, 0, 77, 64
2, 8399, Note_on_c, 0, 77, 0
2, 8400, Note_on_c, 0, 82, 77
2, 8400, Note_on_c, 0, 79, 77
2, 8400, Note_on_c, 0, 75, 77
2, 8400, Note_on_c, 0, 70, 77
2, 8423, Note_on_c, 0, 82, 0
2, 8423, Note_on_c, 0, 79, 0
2, 8423, Note_on_c, 0, 75, 0
2, 8423, Note_on_c, 0, 70, 0
2, 8424, Note_on_c, 0, 75, 80
2, 8448, Note_on_c, 0, 75, 0
2, 8448, Note_on_c, 0, 75, 80
2, 8472, Note_on_c, 0, 75, 0
2, 8472, Note_on_c, 0, 74, 64
2, 8495, Note_on_c, 0, 74, 0
2, 8496, Note_on_c, 0, 73, 65
2, 8519, Note_on_c, 0, 73, 0
2, 8520, Note_on_c, 0, 74, 66
2, 8543, Note_on_c, 0, 74, 0
2, 8544, Note_on_c, 0, 73, 67
2, 8567, Note_on_c, 0, 73, 0
2, 8568, Note_on_c, 0, 74, 68
2, 8591, Note_on_c, 0, 74, 0
2, 8592, Note_on_c, 0, 79, 82
2, 8592, Note_on_c, 0, 75, 82
2, 8592, Note_on_c, 0, 72, 82
2, 8592, Note_on_c, 0, 67, 82
2, 8615, Note_on_c, 0, 79, 0
2, 8615, Note_on_c, 0, 75, 0
2, 8615, Note_on_c, 0, 72, 0
2, 8615, Note_on_c, 0, 67, 0
2, 8616, Note_on_c, 0, 72, 86
2, 8640, Note_on_c, 0, 72, 0
2, 8640, Note_on_c, 0, 72, 87
2, 8664, Note_on_c, 0, 72, 0
2, 8664, Note_on_c, 0, 70, 72
2, 8687, Note_on_c, 0, 70, 0
2, 8688, Note_on_c, 0, 69, 73
2, 8711, Note_on_c, 0, 69, 0
2, 8712, Note_on_c, 0, 70, 74
2, 8735, Note_on_c, 0, 70, 0
2, 8736, Note_on_c, 0, 69, 75
2, 8759, Note_on_c, 0, 69, 0
2, 8760, Note_on_c, 0, 70, 76
2, 8783, Note_on_c, 0, 70, 0
2, 8784, Note_on_c, 0, 77, 90
2, 8784, Note_on_c, 0, 74, 90
2, 8784, Note_on_c, 0, 70, 90
2, 8784, Note_on_c, 0, 65, 90
2, 8807, Note_on_c, 0, 77, 0
2, 8807, Note_on_c, 0, 74, 0
2, 8807, Note_on_c, 0, 70, 0
2, 8807, Note_on_c, 0, 65, 0
2, 8808, Note_on_c, 0, 70, 94
2, 8832, Note_on_c, 0, 70, 0
2, 8832, Note_on_c, 0, 69, 95
2, 8844, Note_on_c, 0, 69, 0
2, 8844, Note_on_c, 0, 79, 80
2, 8856, Note_on_c, 0, 79, 0
2, 8856, Note_on_c, 0, 77, 80
2, 8868, Note_on_c, 0, 77, 0
2, 8868, Note_on_c, 0, 75, 80
2, 8880, Note_on_c, 0, 75, 0
2, 8880, Note_on_c, 0, 74, 80
2, 8892, Note_on_c, 0, 74, 0
2, 8892, Note_on_c, 0, 72, 80
2, 8904, Note_on_c, 0, 72, 0
2, 8904, Note_on_c, 0, 70, 80
2, 8916, Note_on_c, 0, 70, 0
2, 8916, Note_on_c, 0, 69, 80
2, 8928, Note_on_c, 0, 69, 0
2, 8928, Note_on_c, 0, 70, 80
2, 8940, Note_on_c, 0, 70, 0
2, 8940, Note_on_c, 0, 77, 78
2, 8952, Note_on_c, 0, 77, 0
2, 8952, Note_on_c, 0, 79, 77
2, 8964, Note_on_c, 0, 79, 0
2, 8964, Note_on_c, 0, 77, 76
2, 8976, Note_on_c, 0, 77, 0
2, 8976, Note_on_c, 0, 75, 75
2, 8988, Note_on_c, 0, 75, 0
2, 8988, Note_on_c, 0, 74, 73
2, 9000, Note_on_c, 0, 74, 0
2, 9000, Note_on_c, 0, 72, 72
2, 9012, Note_on_c, 0, 72, 0
2, 9012, Note_on_c, 0, 70, 71
2, 9024, Note_on_c, 0, 70, 0
2, 9024, Note_on_c, 0, 69, 70
2, 9036, Note_on_c, 0, 69, 0
2, 9036, Note_on_c, 0, 79, 70
2, 9048, Note_on_c, 0, 79, 0
2, 9048, Note_on_c, 0, 77, 70
2, 9060, Note_on_c, 0, 77, 0
2, 9060, Note_on_c, 0, 75, 70
2, 9072, Note_on_c, 0, 75, 0
2, 9072, Note_on_c, 0, 74, 70
2, 9084, Note_on_c, 0, 74, 0
2, 9084, Note_on_c, 0, 72, 70
2, 9096, Note_on_c, 0, 72, 0
2, 9096, Note_on_c, 0, 70, 70
2, 9108, Note_on_c, 0, 70, 0
2, 9108, Note_on_c, 0, 69, 70
2, 9120, Note_on_c, 0, 69, 0
2, 9120, Note_on_c, 0, 70, 70
2, 9132, Note_on_c, 0, 70, 0
2, 9132, Note_on_c, 0, 72, 71
2, 9144, Note_on_c, 0, 72, 0
2, 9144, Note_on_c, 0, 74, 72
2, 9156, Note_on_c, 0, 74, 0
2, 9156, Note_on_c, 0, 75, 73
2, 9168, Note_on_c, 0, 75, 0
2, 9168, Note_on_c, 0, 77, 75
2, 9180, Note_on_c, 0, 77, 0
2, 9180, Note_on_c, 0, 79, 76
2, 9192, Note_on_c, 0, 79, 0
2, 9192, Note_on_c, 0, 80, 77
2, 9204, Note_on_c, 0, 80, 0
2, 9204, Note_on_c, 0, 82, 78
2, 9216, Note_on_c, 0, 82, 0
2, 9216, Note_on_c, 0, 80, 80
2, 9228, Note_on_c, 0, 80, 0
2, 9228, Note_on_c, 0, 82, 80
2, 9240, Note_on_c, 0, 82, 0
2, 9240, Note_on_c, 0, 84, 80
2, 9252, Note_on_c, 0, 84, 0
2, 9252, Note_on_c, 0, 82, 80
2, 9264, Note_on_c, 0, 82, 0
2, 9264, Note_on_c, 0, 80, 80
2, 9276, Note_on_c, 0, 80, 0
2, 9276, Note_on_c, 0, 79, 80
2, 9288, Note_on_c, 0, 79, 0
2, 9288, Note_on_c, 0, 77, 80
2, 9300, Note_on_c, 0, 77, 0
2, 9300, Note_on_c, 0, 75, 80
2, 9312, Note_on_c, 0, 75, 0
2, 9312, Note_on_c, 0, 74, 80
2, 9324, Note_on_c, 0, 74, 0
2, 9324, Note_on_c, 0, 75, 80
2, 9336, Note_on_c, 0, 75, 0
2, 9336, Note_on_c, 0, 77, 80
2, 9348, Note_on_c, 0, 77, 0
2, 9348, Note_on_c, 0, 75, 80
2, 9360, Note_on_c, 0, 75, 0
2, 9360, Note_on_c, 0, 74, 80
2, 9372, Note_on_c, 0, 74, 0
2, 9372, Note_on_c, 0, 72, 80
2, 9384, Note_on_c, 0, 72, 0
2, 9384, Note_on_c, 0, 70, 80
2, 9396, Note_on_c, 0, 70, 0
2, 9396, Note_on_c, 0, 68, 80
2, 9408, Note_on_c, 0, 68, 0
2, 9408, Note_on_c, 0, 67, 80
2, 9431, Note_on_c, 0, 67, 0
2, 9432, Note_on_c, 0, 79, 64
2, 9442, Note_on_c, 0, 79, 0
2, 9456, Note_on_c, 0, 78, 64
2, 9466, Note_on_c, 0, 78, 0
2, 9480, Note_on_c, 0, 81, 64
2, 9490, Note_on_c, 0, 81, 0
2, 9504, Note_on_c, 0, 79, 64
2, 9514, Note_on_c, 0, 79, 0
2, 9528, Note_on_c, 0, 82, 64
2, 9538, Note_on_c, 0, 82, 0
2, 9552, Note_on_c, 0, 78, 64
2, 9562, Note_on_c, 0, 78, 0
2, 9576, Note_on_c, 0, 81, 64
2, 9586, Note_on_c, 0, 81, 0
2, 9600, Note_on_c, 0, 79, 64
2, 9610, Note_on_c, 0, 79, 0
2, 9624, Note_on_c, 0, 82, 67
2, 9634, Note_on_c, 0, 82, 0
2, 9648, Note_on_c, 0, 78, 70
2, 9658, Note_on_c, 0, 78, 0
2, 9672, Note_on_c, 0, 81, 73
2, 9682, Note_on_c, 0, 81, 0
2, 9696, Note_on_c, 0, 79, 76
2, 9706, Note_on_c, 0, 79, 0
2, 9720, Note_on_c, 0, 82, 80
2, 9730, Note_on_c, 0, 82, 0
2, 9744, Note_on_c, 0, 79, 80
2, 9759, Note_on_c, 0, 79, 0
2, 9760, Note_on_c, 0, 75, 80
2, 9775, Note_on_c, 0, 75, 0
2, 9776, Note_on_c, 0, 72, 80
2, 9791, Note_on_c, 0, 72, 0
2, 9792, Note_on_c, 0, 70, 80
2, 9859, Note_on_c, 0, 70, 0
2, 9864, Note_on_c, 0, 72, 80
2, 9870, Note_on_c, 0, 72, 0
2, 9870, Note_on_c, 0, 70, 80
2, 9876, Note_on_c, 0, 70, 0
2, 9876, Note_on_c, 0, 69, 80
2, 9882, Note_on_c, 0, 69, 0
2, 9882, Note_on_c, 0, 70, 80
2, 9888, Note_on_c, 0, 70, 0
2, 9888, Note_on_c, 0, 74, 80
2, 9955, Note_on_c, 0, 74, 0
2, 9960, Note_on_c, 0, 72, 80
2, 9983, Note_on_c, 0, 72, 0
2, 9984, Note_on_c, 0, 70, 80
2, 10029, Note_on_c, 0, 70, 0
2, 10068, Note_on_c, 0, 89, 64
2, 10080, Note_on_c, 0, 89, 0
2, 10080, Note_on_c, 0, 86, 64
2, 10090, Note_on_c, 0, 86, 0
2, 10116, Note_on_c, 0, 89, 64
2, 10128, Note_on_c, 0, 89, 0
2, 10128, Note_on_c, 0, 84, 64
2, 10138, Note_on_c, 0, 84, 0
2, 10164, Note_on_c, 0, 89, 64
2, 10176, Note_on_c, 0, 89, 0
2, 10176, Note_on_c, 0, 82, 64
2, 10186, Note_on_c, 0, 82, 0
2, 10212, Note_on_c, 0, 89, 64
2, 10224, Note_on_c, 0, 89, 0
2, 10224, Note_on_c, 0, 77, 64
2, 10234, Note_on_c, 0, 77, 0
2, 10260, Note_on_c, 0, 89, 58
2, 10272, Note_on_c, 0, 89, 0
2, 10272, Note_on_c, 0, 86, 58
2, 10282, Note_on_c, 0, 86, 0
2, 10308, Note_on_c, 0, 89, 58
2, 10320, Note_on_c, 0, 89, 0
2, 10320, Note_on_c, 0, 84, 58
2, 10330, Note_on_c, 0, 84, 0
2, 10356, Note_on_c, 0, 89, 58
2, 10368, Note_on_c, 0, 89, 0
2, 10368, Note_on_c, 0, 82, 58
2, 10378, Note_on_c, 0, 82, 0
2, 10404, Note_on_c, 0, 89, 58
2, 10416, Note_on_c, 0, 89, 0
2, 10416, Note_on_c, 0, 77, 58
2, 10426, Note_on_c, 0, 77, 0
2, 10452, Note_on_c, 0, 89, 58
2, 10464, Note_on_c, 0, 89, 0
2, 10464, Note_on_c, 0, 80, 58
2, 10474, Note_on_c, 0, 80, 0
2, 10500, Note_on_c, 0, 89, 64
2, 10512, Note_on_c, 0, 89, 0
2, 10512, Note_on_c, 0, 78, 64
2, 10522, Note_on_c, 0, 78, 0
2, 10548, Note_on_c, 0, 89, 64
2, 10560, Note_on_c, 0, 89, 0
2, 10560, Note_on_c, 0, 79, 64
2, 10570, Note_on_c, 0, 79, 0
2, 10596, Note_on_c, 0, 83, 65
2, 10608, Note_on_c, 0, 83, 0
2, 10608, Note_on_c, 0, 84, 65
2, 10618, Note_on_c, 0, 84, 0
2, 10644, Note_on_c, 0, 86, 67
2, 10656, Note_on_c, 0, 86, 0
2, 10656, Note_on_c, 0, 87, 67
2, 10666, Note_on_c, 0, 87, 0
2, 10692, Note_on_c, 0, 86, 69
2, 10704, Note_on_c, 0, 86, 0
2, 10704, Note_on_c, 0, 84, 69
2, 10714, Note_on_c, 0, 84, 0
2, 10740, Note_on_c, 0, 82, 71
2, 10752, Note_on_c, 0, 82, 0
2, 10752, Note_on_c, 0, 81, 71
2, 10762, Note_on_c, 0, 81, 0
2, 10788, Note_on_c, 0, 79, 73
2, 10800, Note_on_c, 0, 79, 0
2, 10800, Note_on_c, 0, 77, 73
2, 10810, Note_on_c, 0, 77, 0
2, 10836, Note_on_c, 0, 76, 75
2, 10848, Note_on_c, 0, 76, 0
2, 10848, Note_on_c, 0, 77, 75
2, 10858, Note_on_c, 0, 77, 0
2, 10884, Note_on_c, 0, 79, 77
2, 10896, Note_on_c, 0, 79, 0
2, 10896, Note_on_c, 0, 77, 77
2, 10906, Note_on_c, 0, 77, 0
2, 10932, Note_on_c, 0, 75, 79
2, 10944, Note_on_c, 0, 75, 0
2, 10944, Note_on_c, 0, 73, 79
2, 10956, Note_on_c, 0, 73, 0
2, 10956, Note_on_c, 0, 75, 80
2, 10968, Note_on_c, 0, 75, 0
2, 10968, Note_on_c, 0, 73, 80
2, 10980, Note_on_c, 0, 73, 0
2, 10980, Note_on_c, 0, 72, 80
2, 10992, Note_on_c, 0, 72, 0
2, 10992, Note_on_c, 0, 70, 80
2, 11002, Note_on_c, 0, 70, 0
2, 11016, Note_on_c, 0, 70, 80
2, 11026, Note_on_c, 0, 70, 0
2, 11040, Note_on_c, 0, 75, 80
2, 11052, Note_on_c, 0, 75, 0
2, 11052, Note_on_c, 0, 77, 80
2, 11064, Note_on_c, 0, 77, 0
2, 11064, Note_on_c, 0, 75, 80
2, 11076, Note_on_c, 0, 75, 0
2, 11076, Note_on_c, 0, 73, 80
2, 11088, Note_on_c, 0, 73, 0
2, 11088, Note_on_c, 0, 72, 78
2, 11098, Note_on_c, 0, 72, 0
2, 11112, Note_on_c, 0, 72, 74
2, 11122, Note_on_c, 0, 72, 0
2, 11136, Note_on_c, 0, 73, 70
2, 11148, Note_on_c, 0, 73, 0
2, 11148, Note_on_c, 0, 75, 70
2, 11160, Note_on_c, 0, 75, 0
2, 11160, Note_on_c, 0, 73, 70
2, 11172, Note_on_c, 0, 73, 0
2, 11172, Note_on_c, 0, 72, 70
2, 11184, Note_on_c, 0, 72, 0
2, 11184, Note_on_c, 0, 70, 70
2, 11194, Note_on_c, 0, 70, 0
2, 11208, Note_on_c, 0, 70, 70
2, 11218, Note_on_c, 0, 70, 0
2, 11232, Note_on_c, 0, 75, 70
2, 11244, Note_on_c, 0, 75, 0
2, 11244, Note_on_c, 0, 77, 70
2, 11256, Note_on_c, 0, 77, 0
2, 11256, Note_on_c, 0, 75, 70
2, 11268, Note_on_c, 0, 75, 0
2, 11268, Note_on_c, 0, 73, 71
2, 11280, Note_on_c, 0, 73, 0
2, 11280, Note_on_c, 0, 72, 73
2, 11290, Note_on_c, 0, 72, 0
2, 11304, Note_on_c, 0, 72, 76
2, 11314, Note_on_c, 0, 72, 0
2, 11328, Note_on_c, 0, 73, 80
2, 11340, Note_on_c, 0, 73, 0
2, 11340, Note_on_c, 0, 75, 80
2, 11352, Note_on_c, 0, 75, 0
2, 11352, Note_on_c, 0, 73, 80
2, 11364, Note_on_c, 0, 73, 0
2, 11364, Note_on_c, 0, 72, 80
2, 11376, Note_on_c, 0, 72, 0
2, 11376, Note_on_c, 0, 70, 80
2, 11388, Note_on_c, 0, 70, 0
2, 11388, Note_on_c, 0, 72, 80
2, 11400, Note_on_c, 0, 72, 0
2, 11400, Note_on_c, 0, 70, 80
2, 11412, Note_on_c, 0, 70, 0
2, 11412, Note_on_c, 0, 68, 80
2, 11424, Note_on_c, 0, 68, 0
2, 11424, Note_on_c, 0, 66, 80
2, 11436, Note_on_c, 0, 66, 0
2, 11436, Note_on_c, 0, 68, 80
2, 11448, Note_on_c, 0, 68, 0
2, 11448, Note_on_c, 0, 66, 80
2, 11460, Note_on_c, 0, 66, 0
2, 11460, Note_on_c, 0, 65, 80
2, 11472, Note_on_c, 0, 65, 0
2, 11472, Note_on_c, 0, 63, 80
2, 11484, Note_on_c, 0, 63, 0
2, 11484, Note_on_c, 0, 65, 80
2, 11496, Note_on_c, 0, 65, 0
2, 11496, Note_on_c, 0, 63, 80
2, 11508, Note_on_c, 0, 63, 0
2, 11508, Note_on_c, 0, 61, 80
2, 11520, Note_on_c, 0, 61, 0
2, 11520, Note_on_c, 0, 60, 80
2, 11532, Note_on_c, 0, 60, 0
2, 11532, Note_on_c, 0, 61, 80
2, 11544, Note_on_c, 0, 61, 0
2, 11544, Note_on_c, 0, 63, 80
2, 11556, Note_on_c, 0, 63, 0
2, 11556, Note_on_c, 0, 61, 80
2, 11568, Note_on_c, 0, 61, 0
2, 11568, Note_on_c, 0, 60, 80
2, 11580, Note_on_c, 0, 60, 0
2, 11580, Note_on_c, 0, 61, 80
2, 11592, Note_on_c, 0, 61, 0
2, 11592, Note_on_c, 0, 63, 80
2, 11604, Note_on_c, 0, 63, 0
2, 11604, Note_on_c, 0, 61, 80
2, 11616, Note_on_c, 0, 61, 0
2, 11616, Note_on_c, 0, 60, 80
2, 11628, Note_on_c, 0, 60, 0
2, 11628, Note_on_c, 0, 61, 80
2, 11640, Note_on_c, 0, 61, 0
2, 11640, Note_on_c, 0, 63, 80
2, 11652, Note_on_c, 0, 63, 0
2, 11652, Note_on_c, 0, 61, 80
2, 11664, Note_on_c, 0, 61, 0
2, 11664, Note_on_c, 0, 60, 80
2, 11676, Note_on_c, 0, 60, 0
2, 11676, Note_on_c, 0, 61, 80
2, 11688, Note_on_c, 0, 61, 0
2, 11688, Note_on_c, 0, 63, 80
2, 11700, Note_on_c, 0, 63, 0
2, 11700, Note_on_c, 0, 61, 80
2, 11712, Note_on_c, 0, 61, 0
2, 11712, Note_on_c, 0, 60, 80
2, 11724, Note_on_c, 0, 60, 0
2, 11724, Note_on_c, 0, 61, 79
2, 11736, Note_on_c, 0, 61, 0
2, 11736, Note_on_c, 0, 63, 78
2, 11748, Note_on_c, 0, 63, 0
2, 11748, Note_on_c, 0, 61, 77
2, 11760, Note_on_c, 0, 61, 0
2, 11760, Note_on_c, 0, 60, 76
2, 11772, Note_on_c, 0, 60, 0
2, 11772, Note_on_c, 0, 61, 75
2, 11784, Note_on_c, 0, 61, 0
2, 11784, Note_on_c, 0, 63, 74
2, 11796, Note_on_c, 0, 63, 0
2, 11796, Note_on_c, 0, 61, 73
2, 11808, Note_on_c, 0, 61, 0
2, 11808, Note_on_c, 0, 60, 72
2, 11820, Note_on_c, 0, 60, 0
2, 11820, Note_on_c, 0, 61, 71
2, 11832, Note_on_c, 0, 61, 0
2, 11832, Note_on_c, 0, 63, 70
2, 11844, Note_on_c, 0, 63, 0
2, 11844, Note_on_c, 0, 61, 69
2, 11856, Note_on_c, 0, 61, 0
2, 11856, Note_on_c, 0, 60, 68
2, 11868, Note_on_c, 0, 60, 0
2, 11868, Note_on_c, 0, 61, 67
2, 11880, Note_on_c, 0, 61, 0
2, 11880, Note_on_c, 0, 63, 66
2, 11892, Note_on_c, 0, 63, 0
2, 11892, Note_on_c, 0, 61, 65
2, 11904, Note_on_c, 0, 61, 0
2, 11904, Note_on_c, 0, 60, 70
2, 11916, Note_on_c, 0, 60, 0
2, 11916, Note_on_c, 0, 61, 70
2, 11928, Note_on_c, 0, 61, 0
2, 11928, Note_on_c, 0, 63, 70
2, 11940, Note_on_c, 0, 63, 0
2, 11940, Note_on_c, 0, 61, 70
2, 11952, Note_on_c, 0, 61, 0
2, 11952, Note_on_c, 0, 60, 70
2, 11964, Note_on_c, 0, 60, 0
2, 11964, Note_on_c, 0, 61, 70
2, 11976, Note_on_c, 0, 61, 0
2, 11976, Note_on_c, 0, 63, 70
2, 11988, Note_on_c, 0, 63, 0
2, 11988, Note_on_c, 0, 61, 70
2, 12000, Note_on_c, 0, 61, 0
2, 12000, Note_on_c, 0, 60, 70
2, 12012, Note_on_c, 0, 60, 0
2, 12012, Note_on_c, 0, 61, 70
2, 12024, Note_on_c, 0, 61, 0
2, 12024, Note_on_c, 0, 63, 70
2, 12036, Note_on_c, 0, 63, 0
2, 12036, Note_on_c, 0, 61, 70
2, 12048, Note_on_c, 0, 61, 0
2, 12048, Note_on_c, 0, 60, 70
2, 12060, Note_on_c, 0, 60, 0
2, 12060, Note_on_c, 0, 61, 70
2, 12072, Note_on_c, 0, 61, 0
2, 12072, Note_on_c, 0, 63, 70
2, 12084, Note_on_c, 0, 63, 0
2, 12084, Note_on_c, 0, 61, 70
2, 12096, Note_on_c, 0, 61, 0
2, 12096, Note_on_c, 0, 60, 64
2, 12108, Note_on_c, 0, 60, 0
2, 12108, Note_on_c, 0, 62, 65
2, 12120, Note_on_c, 0, 62, 0
2, 12120, Note_on_c, 0, 63, 67
2, 12132, Note_on_c, 0, 63, 0
2, 12132, Note_on_c, 0, 62, 69
2, 12144, Note_on_c, 0, 62, 0
2, 12144, Note_on_c, 0, 60, 71
2, 12156, Note_on_c, 0, 60, 0
2, 12156, Note_on_c, 0, 62, 72
2, 12168, Note_on_c, 0, 62, 0
2, 12168, Note_on_c, 0, 63, 74
2, 12180, Note_on_c, 0, 63, 0
2, 12180, Note_on_c, 0, 62, 76
2, 12192, Note_on_c, 0, 62, 0
2, 12192, Note_on_c, 0, 60, 78
2, 12204, Note_on_c, 0, 60, 0
2, 12204, Note_on_c, 0, 62, 80
2, 12216, Note_on_c, 0, 62, 0
2, 12216, Note_on_c, 0, 63, 80
2, 12228, Note_on_c, 0, 63, 0
2, 12228, Note_on_c, 0, 65, 80
2, 12240, Note_on_c, 0, 65, 0
2, 12240, Note_on_c, 0, 67, 80
2, 12252, Note_on_c, 0, 67, 0
2, 12252, Note_on_c, 0, 69, 80
2, 12264, Note_on_c, 0, 69, 0
2, 12264, Note_on_c, 0, 70, 80
2, 12276, Note_on_c, 0, 70, 0
2, 12276, Note_on_c, 0, 72, 80
2, 12288, Note_on_c, 0, 72, 0
2, 12288, Note_on_c, 0, 74, 80
2, 12288, Note_on_c, 0, 70, 80
2, 12377, Note_on_c, 0, 74, 0
2, 12377, Note_on_c, 0, 70, 0
2, 12384, Note_on_c, 0, 72, 80
2, 12396, Note_on_c, 0, 77, 80
2, 12477, Note_on_c, 0, 77, 0
2, 12477, Note_on_c, 0, 72, 0
2, 12480, Note_on_c, 0, 70, 80
2, 12488, Note_on_c, 0, 75, 80
2, 12496, Note_on_c, 0, 82, 80
2, 12624, Note_on_c, 0, 75, 0
2, 12624, Note_on_c, 0, 70, 0
2, 12647, Note_on_c, 0, 82, 0
2, 12648, Note_on_c, 0, 81, 80
2, 12656, Note_on_c, 0, 81, 0
2, 12656, Note_on_c, 0, 79, 80
2, 12664, Note_on_c, 0, 79, 0
2, 12664, Note_on_c, 0, 77, 80
2, 12672, Note_on_c, 0, 77, 0
2, 12672, Note_on_c, 0, 75, 80
2, 12692, Note_on_c, 0, 75, 0
2, 12744, Note_on_c, 0, 74, 80
2, 12767, Note_on_c, 0, 74, 0
2, 12768, Note_on_c, 0, 79, 80
2, 12788, Note_on_c, 0, 79, 0
2, 12840, Note_on_c, 0, 77, 80
2, 12840, Note_on_c, 0, 70, 80
2, 12863, Note_on_c, 0, 77, 0
2, 12863, Note_on_c, 0, 70, 0
2, 12864, Note_on_c, 0, 76, 80
2, 12864, Note_on_c, 0, 70, 80
2, 12903, Note_on_c, 0, 76, 0
2, 12903, Note_on_c, 0, 70, 0
2, 12984, Note_on_c, 0, 79, 64
2, 12984, Note_on_c, 0, 75, 64
2, 13007, Note_on_c, 0, 79, 0
2, 13007, Note_on_c, 0, 75, 0
2, 13008, Note_on_c, 0, 77, 64
2, 13008, Note_on_c, 0, 74, 64
2, 13031, Note_on_c, 0, 77, 0
2, 13031, Note_on_c, 0, 74, 0
2, 13032, Note_on_c, 0, 75, 64
2, 13032, Note_on_c, 0, 72, 64
2, 13055, Note_on_c, 0, 75, 0
2, 13055, Note_on_c, 0, 72, 0
2, 13056, Note_on_c, 0, 74, 64
2, 13056, Note_on_c, 0, 70, 64
2, 13095, Note_on_c, 0, 74, 0
2, 13095, Note_on_c, 0, 70, 0
2, 13176, Note_on_c, 0, 79, 64
2, 13176, Note_on_c, 0, 75, 64
2, 13199, Note_on_c, 0, 79, 0
2, 13199, Note_on_c, 0, 75, 0
2, 13200, Note_on_c, 0, 77, 64
2, 13200, Note_on_c, 0, 74, 64
2, 13223, Note_on_c, 0, 77, 0
2, 13223, Note_on_c, 0, 74, 0
2, 13224, Note_on_c, 0, 75, 64
2, 13224, Note_on_c, 0, 72, 64
2, 13247, Note_on_c, 0, 75, 0
2, 13247, Note_on_c, 0, 72, 0
2, 13248, Note_on_c, 0, 74, 64
2, 13248, Note_on_c, 0, 70, 64
2, 13287, Note_on_c, 0, 74, 0
2, 13287, Note_on_c, 0, 70, 0
2, 13368, Note_on_c, 0, 79, 64
2, 13368, Note_on_c, 0, 75, 64
2, 13391, Note_on_c, 0, 79, 0
2, 13391, Note_on_c, 0, 75, 0
2, 13392, Note_on_c, 0, 77, 69
2, 13392, Note_on_c, 0, 74, 69
2, 13415, Note_on_c, 0, 77, 0
2, 13415, Note_on_c, 0, 74, 0
2, 13416, Note_on_c, 0, 75, 74
2, 13416, Note_on_c, 0, 72, 74
2, 13439, Note_on_c, 0, 75, 0
2, 13439, Note_on_c, 0, 72, 0
2, 13440, Note_on_c, 0, 74, 80
2, 13440, Note_on_c, 0, 70, 80
2, 13450, Note_on_c, 0, 74, 0
2, 13450, Note_on_c, 0, 70, 0
2, 13464, Note_on_c, 0, 82, 80
2, 13464, Note_on_c, 0, 77, 80
2, 13487, Note_on_c, 0, 82, 0
2, 13487, Note_on_c, 0, 77, 0
2, 13488, Note_on_c, 0, 81, 80
2, 13488, Note_on_c, 0, 75, 80
2, 13511, Note_on_c, 0, 81, 0
2, 13511, Note_on_c, 0, 75, 0
2, 13512, Note_on_c, 0, 79, 80
2, 13512, Note_on_c, 0, 74, 80
2, 13535, Note_on_c, 0, 79, 0
2, 13535, Note_on_c, 0, 74, 0
2, 13536, Note_on_c, 0, 77, 80
2, 13536, Note_on_c, 0, 72, 80
2, 13559, Note_on_c, 0, 77, 0
2, 13559, Note_on_c, 0, 72, 0
2, 13560, Note_on_c, 0, 75, 80
2, 13583, Note_on_c, 0, 75, 0
2, 13584, Note_on_c, 0, 74, 80
2, 13607, Note_on_c, 0, 74, 0
2, 13608, Note_on_c, 0, 72, 80
2, 13631, Note_on_c, 0, 72, 0
2, 13632, Note_on_c, 0, 71, 96
2, 13728, Note_on_c, 0, 71, 0
2, 13728, Note_on_c, 0, 72, 70
2, 13748, Note_on_c, 0, 72, 0
2, 13824, Note_on_c, 0, 69, 96
2, 13824, Note_on_c, 0, 65, 96
2, 13920, Note_on_c, 0, 69, 0
2, 13920, Note_on_c, 0, 70, 70
2, 13940, Note_on_c, 0, 70, 0
2, 13940, Note_on_c, 0, 65, 0
2, 14208, Note_on_c, 0, 67, 64
2, 14208, Note_on_c, 0, 55, 64
2, 14400, Note_on_c, 0, 67, 0
2, 14400, Note_on_c, 0, 55, 0
2, 14400, Note_on_c, 0, 66, 70
2, 14400, Note_on_c, 0, 54, 70
2, 14577, Note_on_c, 0, 66, 0
2, 14577, Note_on_c, 0, 54, 0
2, 14592, Control_c, 0, 64, 127
2, 14592, Note_on_c, 0, 65, 80
2, 14592, Note_on_c, 0, 53, 80
2, 14612, Note_on_c, 0, 65, 0
2, 14612, Note_on_c, 0, 53, 0
2, 14640, Note_on_c, 0, 77, 80
2, 14640, Note_on_c, 0, 74, 80
2, 14640, Note_on_c, 0, 70, 80
2, 14640, Note_on_c, 0, 65, 80
2, 14685, Note_on_c, 0, 77, 0
2, 14685, Note_on_c, 0, 74, 0
2, 14685, Note_on_c, 0, 70, 0
2, 14685, Note_on_c, 0, 65, 0
2, 14688, Note_on_c, 0, 82, 80
2, 14688, Note_on_c, 0, 77, 80
2, 14688, Note_on_c, 0, 74, 80
2, 14733, Note_on_c, 0, 82, 0
2, 14733, Note_on_c, 0, 77, 0
2, 14733, Note_on_c, 0, 74, 0
2, 14736, Note_on_c, 0, 86, 80
2, 14736, Note_on_c, 0, 82, 80
2, 14736, Note_on_c, 0, 77, 80
2, 14781, Note_on_c, 0, 86, 0
2, 14781, Note_on_c, 0, 82, 0
2, 14781, Note_on_c, 0, 77, 0
2, 14784, Note_on_c, 0, 89, 80
2, 14784, Note_on_c, 0, 86, 80
2, 14784, Note_on_c, 0, 82, 80
2, 14784, Note_on_c, 0, 77, 80
2, 14829, Note_on_c, 0, 89, 0
2, 14829, Note_on_c, 0, 86, 0
2, 14829, Note_on_c, 0, 82, 0
2, 14829, Note_on_c, 0, 77, 0
2, 14832, Control_c, 0, 64, 0
2, 14880, Note_on_c, 0, 81, 80
2, 14880, Note_on_c, 0, 77, 80
2, 14880, Note_on_c, 0, 75, 80
2, 14880, Note_on_c, 0, 72, 80
2, 14925, Note_on_c, 0, 81, 0
2, 14925, Note_on_c, 0, 77, 0
2, 14925, Note_on_c, 0, 75, 0
2, 14925, Note_on_c, 0, 72, 0
2, 14976, Note_on_c, 0, 82, 80
2, 14988, Note_on_c, 0, 82, 0
2, 14988, Note_on_c, 0, 86, 80
2, 15000, Note_on_c, 0, 86, 0
2, 15000, Note_on_c, 0, 84, 80
2, 15012, Note_on_c, 0, 84, 0
2, 15012, Note_on_c, 0, 82, 80
2, 15024, Note_on_c, 0, 82, 0
2, 15024, Note_on_c, 0, 81, 80
2, 15036, Note_on_c, 0, 81, 0
2, 15036, Note_on_c, 0, 79, 80
2, 15048, Note_on_c, 0, 79, 0
2, 15048, Note_on_c, 0, 77, 80
2, 15060, Note_on_c, 0, 77, 0
2, 15060, Note_on_c, 0, 76, 80
2, 15072, Note_on_c, 0, 76, 0
2, 15072, Note_on_c, 0, 75, 80
2, 15084, Note_on_c, 0, 75, 0
2, 15084, Note_on_c, 0, 79, 78
2, 15096, Note_on_c, 0, 79, 0
2, 15096, Note_on_c, 0, 77, 77
2, 15108, Note_on_c, 0, 77, 0
2, 15108, Note_on_c, 0, 75, 76
2, 15120, Note_on_c, 0, 75, 0
2, 15120, Note_on_c, 0, 74, 75
2, 15132, Note_on_c, 0, 74, 0
2, 15132, Note_on_c, 0, 72, 73
2, 15144, Note_on_c, 0, 72, 0
2, 15144, Note_on_c, 0, 70, 72
2, 15156, Note_on_c, 0, 70, 0
2, 15156, Note_on_c, 0, 69, 71
2, 15168, Note_on_c, 0, 69, 0
2, 15168, Note_on_c, 0, 70, 70
2, 15180, Note_on_c, 0, 70, 0
2, 15180, Note_on_c, 0, 74, 70
2, 15192, Note_on_c, 0, 74, 0
2, 15192, Note_on_c, 0, 72, 70
2, 15204, Note_on_c, 0, 72, 0
2, 15204, Note_on_c, 0, 70, 70
2, 15216, Note_on_c, 0, 70, 0
2, 15216, Note_on_c, 0, 69, 70
2, 15228, Note_on_c, 0, 69, 0
2, 15228, Note_on_c, 0, 67, 70
2, 15240, Note_on_c, 0, 67, 0
2, 15240, Note_on_c, 0, 65, 70
2, 15252, Note_on_c, 0, 65, 0
2, 15252, Note_on_c, 0, 64, 70
2, 15264, Note_on_c, 0, 64, 0
2, 15264, Note_on_c, 0, 63, 70
2, 15276, Note_on_c, 0, 63, 0
2, 15276, Note_on_c, 0, 67, 70
2, 15288, Note_on_c, 0, 67, 0
2, 15288, Note_on_c, 0, 65, 70
2, 15300, Note_on_c, 0, 65, 0
2, 15300, Note_on_c, 0, 63, 70
2, 15312, Note_on_c, 0, 63, 0
2, 15312, Note_on_c, 0, 62, 70
2, 15324, Note_on_c, 0, 62, 0
2, 15324, Note_on_c, 0, 60, 70
2, 15336, Note_on_c, 0, 60, 0
2, 15336, Note_on_c, 0, 58, 70
2, 15348, Note_on_c, 0, 58, 0
2, 15348, Note_on_c, 0, 57, 70
2, 15360, Note_on_c, 0, 57, 0
2, 15360, Note_on_c, 0, 58, 70
2, 15372, Note_on_c, 0, 58, 0
2, 15372, Note_on_c, 0, 57, 70
2, 15384, Note_on_c, 0, 57, 0
2, 15384, Note_on_c, 0, 58, 70
2, 15396, Note_on_c, 0, 58, 0
2, 15396, Note_on_c, 0, 53, 70
2, 15408, Note_on_c, 0, 53, 0
2, 15408, Note_on_c, 0, 62, 70
2, 15420, Note_on_c, 0, 62, 0
2, 15420, Note_on_c, 0, 61, 70
2, 15432, Note_on_c, 0, 61, 0
2, 15432, Note_on_c, 0, 62, 70
2, 15444, Note_on_c, 0, 62, 0
2, 15444, Note_on_c, 0, 58, 71
2, 15456, Note_on_c, 0, 58, 0
2, 15456, Note_on_c, 0, 65, 71
2, 15468, Note_on_c, 0, 65, 0
2, 15468, Note_on_c, 0, 64, 71
2, 15480, Note_on_c, 0, 64, 0
2, 15480, Note_on_c, 0, 65, 72
2, 15492, Note_on_c, 0, 65, 0
2, 15492, Note_on_c, 0, 62, 72
2, 15504, Note_on_c, 0, 62, 0
2, 15504, Note_on_c, 0, 70, 72
2, 15516, Note_on_c, 0, 70, 0
2, 15516, Note_on_c, 0, 69, 73
2, 15528, Note_on_c, 0, 69, 0
2, 15528, Note_on_c, 0, 70, 73
2, 15540, Note_on_c, 0, 70, 0
2, 15540, Note_on_c, 0, 65, 73
2, 15552, Note_on_c, 0, 65, 0
2, 15552, Note_on_c, 0, 74, 74
2, 15564, Note_on_c, 0, 74, 0
2, 15564, Note_on_c, 0, 73, 74
2, 15576, Note_on_c, 0, 73, 0
2, 15576, Note_on_c, 0, 74, 74
2, 15588, Note_on_c, 0, 74, 0
2, 15588, Note_on_c, 0, 70, 75
2, 15600, Note_on_c, 0, 70, 0
2, 15600, Note_on_c, 0, 77, 75
2, 15612, Note_on_c, 0, 77, 0
2, 15612, Note_on_c, 0, 76, 75
2, 15624, Note_on_c, 0, 76, 0
2, 15624, Note_on_c, 0, 77, 76
2, 15636, Note_on_c, 0, 77, 0
2, 15636, Note_on_c, 0, 74, 76
2, 15648, Note_on_c, 0, 74, 0
2, 15648, Note_on_c, 0, 82, 76
2, 15660, Note_on_c, 0, 82, 0
2, 15660, Note_on_c, 0, 81, 77
2, 15672, Note_on_c, 0, 81, 0
2, 15672, Note_on_c, 0, 82, 77
2, 15684, Note_on_c, 0, 82, 0
2, 15684, Note_on_c, 0, 77, 77
2, 15696, Note_on_c, 0, 77, 0
2, 15696, Note_on_c, 0, 84, 78
2, 15708, Note_on_c, 0, 84, 0
2, 15708, Note_on_c, 0, 83, 78
2, 15720, Note_on_c, 0, 83, 0
2, 15720, Note_on_c, 0, 84, 78
2, 15732, Note_on_c, 0, 84, 0
2, 15732, Note_on_c, 0, 77, 79
2, 15744, Note_on_c, 0, 77, 0
2, 15744, Note_on_c, 0, 82, 79
2, 15756, Note_on_c, 0, 82, 0
2, 15756, Note_on_c, 0, 81, 80
2, 15768, Note_on_c, 0, 81, 0
2, 15768, Note_on_c, 0, 82, 80
2, 15780, Note_on_c, 0, 82, 0
2, 15780, Note_on_c, 0, 77, 80
2, 15792, Note_on_c, 0, 77, 0
2, 15792, Note_on_c, 0, 84, 80
2, 15804, Note_on_c, 0, 84, 0
2, 15804, Note_on_c, 0, 83, 80
2, 15816, Note_on_c, 0, 83, 0
2, 15816, Note_on_c, 0, 84, 80
2, 15828, Note_on_c, 0, 84, 0
2, 15828, Note_on_c, 0, 77, 80
2, 15840, Note_on_c, 0, 77, 0
2, 15840, Note_on_c, 0, 82, 80
2, 15852, Note_on_c, 0, 82, 0
2, 15852, Note_on_c, 0, 81, 80
2, 15864, Note_on_c, 0, 81, 0
2, 15864, Note_on_c, 0, 82, 80
2, 15876, Note_on_c, 0, 82, 0
2, 15876, Note_on_c, 0, 77, 80
2, 15888, Note_on_c, 0, 77, 0
2, 15888, Note_on_c, 0, 84, 80
2, 15900, Note_on_c, 0, 84, 0
2, 15900, Note_on_c, 0, 83, 80
2, 15912, Note_on_c, 0, 83, 0
2, 15912, Note_on_c, 0, 84, 80
2, 15924, Note_on_c, 0, 84, 0
2, 15924, Note_on_c, 0, 77, 80
2, 15936, Note_on_c, 0, 77, 0
2, 15936, Control_c, 0, 64, 127
2, 15936, Note_on_c, 0, 82, 80
2, 15981, Note_on_c, 0, 82, 0
2, 15984, Note_on_c, 0, 86, 76
2, 15984, Note_on_c, 0, 82, 76
2, 16029, Note_on_c, 0, 86, 0
2, 16029, Note_on_c, 0, 82, 0
2, 16032, Note_on_c, 0, 89, 73
2, 16032, Note_on_c, 0, 86, 73
2, 16077, Note_on_c, 0, 89, 0
2, 16077, Note_on_c, 0, 86, 0
2, 16080, Note_on_c, 0, 86, 70
2, 16080, Note_on_c, 0, 82, 70
2, 16125, Note_on_c, 0, 86, 0
2, 16125, Note_on_c, 0, 82, 0
2, 16128, Note_on_c, 0, 89, 67
2, 16128, Note_on_c, 0, 86, 67
2, 16173, Note_on_c, 0, 89, 0
2, 16173, Note_on_c, 0, 86, 0
2, 16176, Control_c, 0, 64, 0
2, 16224, Note_on_c, 0, 86, 64
2, 16224, Note_on_c, 0, 82, 64
2, 16269, Note_on_c, 0, 86, 0
2, 16269, Note_on_c, 0, 82, 0
2, 16320, Note_on_c, 0, 82, 64
2, 16320, Note_on_c, 0, 77, 64
2, 16365, Note_on_c, 0, 82, 0
2, 16365, Note_on_c, 0, 77, 0
2, 16512, Note_on_c, 0, 55, 80
2, 16520, Note_on_c, 0, 58, 80
2, 16528, Note_on_c, 0, 63, 80
2, 16605, Note_on_c, 0, 63, 0
2, 16605, Note_on_c, 0, 58, 0
2, 16605, Note_on_c, 0, 55, 0
2, 16608, Note_on_c, 0, 67, 80
2, 16608, Note_on_c, 0, 63, 80
2, 16608, Note_on_c, 0, 61, 80
2, 16675, Note_on_c, 0, 67, 0
2, 16675, Note_on_c, 0, 63, 0
2, 16675, Note_on_c, 0, 61, 0
2, 16680, Note_on_c, 0, 67, 80
2, 16680, Note_on_c, 0, 63, 80
2, 16680, Note_on_c, 0, 61, 80
2, 16703, Note_on_c, 0, 67, 0
2, 16703, Note_on_c, 0, 63, 0
2, 16703, Note_on_c, 0, 61, 0
2, 16704, Note_on_c, 0, 56, 80
2, 16710, Note_on_c, 0, 60, 80
2, 16716, Note_on_c, 0, 63, 80
2, 16722, Note_on_c, 0, 68, 80
2, 16848, Note_on_c, 0, 63, 0
2, 16848, Note_on_c, 0, 60, 0
2, 16848, Note_on_c, 0, 56, 0
2, 16860, Note_on_c, 0, 68, 0
2, 16860, Note_on_c, 0, 67, 80
2, 16872, Note_on_c, 0, 67, 0
2, 16872, Note_on_c, 0, 65, 80
2, 16884, Note_on_c, 0, 65, 0
2, 16884, Note_on_c, 0, 63, 80
2, 16896, Note_on_c, 0, 63, 0
2, 16896, Note_on_c, 0, 56, 80
2, 16896, Note_on_c, 0, 58, 80
2, 16896, Note_on_c, 0, 62, 80
2, 16963, Note_on_c, 0, 62, 0
2, 16963, Note_on_c, 0, 58, 0
2, 16963, Note_on_c, 0, 56, 0
2, 16968, Note_on_c, 0, 65, 80
2, 16991, Note_on_c, 0, 65, 0
2, 16992, Note_on_c, 0, 62, 80
2, 17000, Note_on_c, 0, 65, 80
2, 17008, Note_on_c, 0, 70, 80
2, 17063, Note_on_c, 0, 70, 0
2, 17063, Note_on_c, 0, 65, 0
2, 17063, Note_on_c, 0, 62, 0
2, 17064, Note_on_c, 0, 68, 80
2, 17087, Note_on_c, 0, 68, 0
2, 17088, Note_on_c, 0, 58, 80
2, 17096, Note_on_c, 0, 63, 80
2, 17104, Note_on_c, 0, 67, 80
2, 17203, Note_on_c, 0, 67, 0
2, 17203, Note_on_c, 0, 63, 0
2, 17203, Note_on_c, 0, 58, 0
2, 17280, Note_on_c, 0, 74, 64
2, 17347, Note_on_c, 0, 74, 0
2, 17352, Note_on_c, 0, 77, 64
2, 17375, Note_on_c, 0, 77, 0
2, 17376, Note_on_c, 0, 82, 64
2, 17443, Note_on_c, 0, 82, 0
2, 17448, Note_on_c, 0, 80, 64
2, 17471, Note_on_c, 0, 80, 0
2, 17472, Note_on_c, 0, 79, 64
2, 17517, Note_on_c, 0, 79, 0
2, 17592, Note_on_c, 0, 84, 64
2, 17592, Note_on_c, 0, 80, 64
2, 17615, Note_on_c, 0, 84, 0
2, 17615, Note_on_c, 0, 80, 0
2, 17616, Note_on_c, 0, 82, 64
2, 17616, Note_on_c, 0, 79, 64
2, 17639, Note_on_c, 0, 82, 0
2, 17639, Note_on_c, 0, 79, 0
2, 17640, Note_on_c, 0, 80, 64
2, 17640, Note_on_c, 0, 77, 64
2, 17663, Note_on_c, 0, 80, 0
2, 17663, Note_on_c, 0, 77, 0
2, 17664, Note_on_c, 0, 79, 64
2, 17664, Note_on_c, 0, 75, 64
2, 17684, Note_on_c, 0, 79, 0
2, 17684, Note_on_c, 0, 75, 0
2, 17784, Note_on_c, 0, 84, 75
2, 17784, Note_on_c, 0, 80, 75
2, 17807, Note_on_c, 0, 84, 0
2, 17807, Note_on_c, 0, 80, 0
2, 17808, Note_on_c, 0, 82, 75
2, 17808, Note_on_c, 0, 79, 75
2, 17831, Note_on_c, 0, 82, 0
2, 17831, Note_on_c, 0, 79, 0
2, 17832, Note_on_c, 0, 80, 75
2, 17832, Note_on_c, 0, 77, 75
2, 17855, Note_on_c, 0, 80, 0
2, 17855, Note_on_c, 0, 77, 0
2, 17856, Note_on_c, 0, 79, 75
2, 17856, Note_on_c, 0, 75, 75
2, 17876, Note_on_c, 0, 79, 0
2, 17876, Note_on_c, 0, 75, 0
2, 17976, Note_on_c, 0, 84, 80
2, 17976, Note_on_c, 0, 80, 80
2, 17999, Note_on_c, 0, 84, 0
2, 17999, Note_on_c, 0, 80, 0
2, 18000, Note_on_c, 0, 82, 80
2, 18000, Note_on_c, 0, 79, 80
2, 18023, Note_on_c, 0, 82, 0
2, 18023, Note_on_c, 0, 79, 0
2, 18024, Note_on_c, 0, 80, 80
2, 18024, Note_on_c, 0, 77, 80
2, 18047, Note_on_c, 0, 80, 0
2, 18047, Note_on_c, 0, 77, 0
2, 18048, Note_on_c, 0, 79, 80
2, 18048, Note_on_c, 0, 75, 80
2, 18058, Note_on_c, 0, 79, 0
2, 18058, Note_on_c, 0, 75, 0
2, 18072, Note_on_c, 0, 84, 80
2, 18072, Note_on_c, 0, 80, 80
2, 18095, Note_on_c, 0, 84, 0
2, 18095, Note_on_c, 0, 80, 0
2, 18096, Note_on_c, 0, 82, 80
2, 18096, Note_on_c, 0, 79, 80
2, 18119, Note_on_c, 0, 82, 0
2, 18119, Note_on_c, 0, 79, 0
2, 18120, Note_on_c, 0, 80, 80
2, 18120, Note_on_c, 0, 77, 80
2, 18143, Note_on_c, 0, 80, 0
2, 18143, Note_on_c, 0, 77, 0
2, 18144, Note_on_c, 0, 79, 80
2, 18144, Note_on_c, 0, 75, 80
2, 18154, Note_on_c, 0, 79, 0
2, 18154, Note_on_c, 0, 75, 0
2, 18168, Note_on_c, 0, 82, 78
2, 18168, Note_on_c, 0, 79, 78
2, 18191, Note_on_c, 0, 82, 0
2, 18191, Note_on_c, 0, 79, 0
2, 18192, Note_on_c, 0, 80, 77
2, 18192, Note_on_c, 0, 77, 77
2, 18215, Note_on_c, 0, 80, 0
2, 18215, Note_on_c, 0, 77, 0
2, 18216, Note_on_c, 0, 79, 76
2, 18216, Note_on_c, 0, 75, 76
2, 18239, Note_on_c, 0, 79, 0
2, 18239, Note_on_c, 0, 75, 0
2, 18240, Note_on_c, 0, 77, 74
2, 18240, Note_on_c, 0, 74, 74
2, 18263, Note_on_c, 0, 77, 0
2, 18263, Note_on_c, 0, 74, 0
2, 18264, Note_on_c, 0, 75, 73
2, 18264, Note_on_c, 0, 72, 73
2, 18287, Note_on_c, 0, 75, 0
2, 18287, Note_on_c, 0, 72, 0
2, 18288, Note_on_c, 0, 74, 72
2, 18288, Note_on_c, 0, 70, 72
2, 18311, Note_on_c, 0, 74, 0
2, 18311, Note_on_c, 0, 70, 0
2, 18312, Note_on_c, 0, 72, 70
2, 18312, Note_on_c, 0, 68, 70
2, 18335, Note_on_c, 0, 72, 0
2, 18335, Note_on_c, 0, 68, 0
2, 18336, Note_on_c, 0, 70, 69
2, 18336, Note_on_c, 0, 67, 69
2, 18359, Note_on_c, 0, 70, 0
2, 18359, Note_on_c, 0, 67, 0
2, 18360, Note_on_c, 0, 68, 68
2, 18360, Note_on_c, 0, 65, 68
2, 18383, Note_on_c, 0, 68, 0
2, 18383, Note_on_c, 0, 65, 0
2, 18384, Note_on_c, 0, 67, 66
2, 18384, Note_on_c, 0, 63, 66
2, 18407, Note_on_c, 0, 67, 0
2, 18407, Note_on_c, 0, 63, 0
2, 18408, Note_on_c, 0, 65, 65
2, 18408, Note_on_c, 0, 62, 65
2, 18431, Note_on_c, 0, 65, 0
2, 18431, Note_on_c, 0, 62, 0
2, 18432, Note_on_c, 0, 63, 86
2, 18595, Note_on_c, 0, 63, 0
2, 18600, Note_on_c, 0, 65, 70
2, 18612, Note_on_c, 0, 65, 0
2, 18612, Note_on_c, 0, 63, 70
2, 18624, Note_on_c, 0, 63, 0
2, 18624, Note_on_c, 0, 62, 70
2, 18720, Note_on_c, 0, 62, 0
2, 18720, Note_on_c, 0, 61, 86
2, 18816, Note_on_c, 0, 61, 0
2, 18816, Note_on_c, 0, 60, 86
2, 18979, Note_on_c, 0, 60, 0
2, 18984, Note_on_c, 0, 62, 70
2, 18996, Note_on_c, 0, 62, 0
2, 18996, Note_on_c, 0, 60, 70
2, 19008, Note_on_c, 0, 60, 0
2, 19008, Note_on_c, 0, 58, 86
2, 19080, Note_on_c, 0, 58, 0
2, 19080, Note_on_c, 0, 60, 70
2, 19092, Note_on_c, 0, 60, 0
2, 19092, Note_on_c, 0, 62, 70
2, 19104, Note_on_c, 0, 62, 0
2, 19104, Note_on_c, 0, 63, 70
2, 19171, Note_on_c, 0, 63, 0
2, 19176, Note_on_c, 0, 65, 70
2, 19188, Note_on_c, 0, 65, 0
2, 19188, Note_on_c, 0, 67, 70
2, 19200, Note_on_c, 0, 67, 0
2, 19200, Note_on_c, 0, 68, 86
2, 19296, Note_on_c, 0, 68, 0
2, 19296, Note_on_c, 0, 67, 70
2, 19385, Note_on_c, 0, 67, 0
2, 19392, Note_on_c, 0, 65, 70
2, 19392, Note_on_c, 0, 60, 70
2, 19412, Note_on_c, 0, 65, 0
2, 19412, Note_on_c, 0, 60, 0
2, 19488, Note_on_c, 0, 62, 70
2, 19488, Note_on_c, 0, 56, 70
2, 19508, Note_on_c, 0, 62, 0
2, 19508, Note_on_c, 0, 56, 0
2, 19584, Note_on_c, 0, 55, 80
2, 19592, Note_on_c, 0, 58, 80
2, 19600, Note_on_c, 0, 63, 80
2, 19677, Note_on_c, 0, 63, 0
2, 19677, Note_on_c, 0, 58, 0
2, 19677, Note_on_c, 0, 55, 0
2, 19680, Note_on_c, 0, 67, 80
2, 19680, Note_on_c, 0, 63, 80
2, 19680, Note_on_c, 0, 61, 80
2, 19747, Note_on_c, 0, 67, 0
2, 19747, Note_on_c, 0, 63, 0
2, 19747, Note_on_c, 0, 61, 0
2, 19752, Note_on_c, 0, 67, 80
2, 19752, Note_on_c, 0, 63, 80
2, 19752, Note_on_c, 0, 61, 80
2, 19775, Note_on_c, 0, 67, 0
2, 19775, Note_on_c, 0, 63, 0
2, 19775, Note_on_c, 0, 61, 0
2, 19776, Note_on_c, 0, 56, 80
2, 19782, Note_on_c, 0, 60, 80
2, 19788, Note_on_c, 0, 63, 80
2, 19794, Note_on_c, 0, 68, 80
2, 19869, Note_on_c, 0, 68, 0
2, 19869, Note_on_c, 0, 63, 0
2, 19869, Note_on_c, 0, 60, 0
2, 19869, Note_on_c, 0, 56, 0
2, 19872, Note_on_c, 0, 84, 80
2, 19884, Note_on_c, 0, 84, 0
2, 19884, Note_on_c, 0, 82, 80
2, 19896, Note_on_c, 0, 82, 0
2, 19896, Note_on_c, 0, 80, 80
2, 19908, Note_on_c, 0, 80, 0
2, 19908, Note_on_c, 0, 79, 80
2, 19920, Note_on_c, 0, 79, 0
2, 19920, Note_on_c, 0, 77, 80
2, 19932, Note_on_c, 0, 77, 0
2, 19932, Note_on_c, 0, 75, 80
2, 19944, Note_on_c, 0, 75, 0
2, 19944, Note_on_c, 0, 74, 80
2, 19956, Note_on_c, 0, 74, 0
2, 19956, Note_on_c, 0, 72, 80
2, 19968, Note_on_c, 0, 72, 0
2, 19968, Note_on_c, 0, 70, 80
2, 19980, Note_on_c, 0, 70, 0
2, 19980, Note_on_c, 0, 68, 80
2, 19992, Note_on_c, 0, 68, 0
2, 19992, Note_on_c, 0, 67, 80
2, 20004, Note_on_c, 0, 67, 0
2, 20004, Note_on_c, 0, 65, 80
2, 20016, Note_on_c, 0, 65, 0
2, 20016, Note_on_c, 0, 63, 80
2, 20028, Note_on_c, 0, 63, 0
2, 20028, Note_on_c, 0, 62, 80
2, 20040, Note_on_c, 0, 62, 0
2, 20040, Note_on_c, 0, 60, 80
2, 20052, Note_on_c, 0, 60, 0
2, 20052, Note_on_c, 0, 58, 80
2, 20064, Note_on_c, 0, 58, 0
2, 20064, Note_on_c, 0, 56, 80
2, 20074, Note_on_c, 0, 56, 0
2, 20074, Note_on_c, 0, 55, 80
2, 20084, Note_on_c, 0, 55, 0
2, 20084, Note_on_c, 0, 53, 80
2, 20094, Note_on_c, 0, 53, 0
2, 20094, Note_on_c, 0, 51, 80
2, 20104, Note_on_c, 0, 51, 0
2, 20104, Note_on_c, 0, 50, 80
2, 20114, Note_on_c, 0, 50, 0
2, 20114, Note_on_c, 0, 48, 80
2, 20124, Note_on_c, 0, 48, 0
2, 20124, Note_on_c, 0, 46, 80
2, 20133, Note_on_c, 0, 46, 0
2, 20133, Note_on_c, 0, 44, 80
2, 20142, Note_on_c, 0, 44, 0
2, 20142, Note_on_c, 0, 43, 80
2, 20151, Note_on_c, 0, 43, 0
2, 20151, Note_on_c, 0, 41, 80
2, 20160, Note_on_c, 0, 41, 0
2, 20256, Note_on_c, 0, 84, 64
2, 20279, Note_on_c, 0, 84, 0
2, 20280, Note_on_c, 0, 79, 64
2, 20303, Note_on_c, 0, 79, 0
2, 20304, Note_on_c, 0, 84, 64
2, 20327, Note_on_c, 0, 84, 0
2, 20328, Note_on_c, 0, 79, 64
2, 20351, Note_on_c, 0, 79, 0
2, 20352, Note_on_c, 0, 84, 64
2, 20375, Note_on_c, 0, 84, 0
2, 20376, Note_on_c, 0, 77, 64
2, 20399, Note_on_c, 0, 77, 0
2, 20400, Note_on_c, 0, 84, 64
2, 20423, Note_on_c, 0, 84, 0
2, 20424, Note_on_c, 0, 77, 64
2, 20447, Note_on_c, 0, 77, 0
2, 20448, Note_on_c, 0, 82, 64
2, 20471, Note_on_c, 0, 82, 0
2, 20472, Note_on_c, 0, 77, 64
2, 20495, Note_on_c, 0, 77, 0
2, 20496, Note_on_c, 0, 82, 64
2, 20519, Note_on_c, 0, 82, 0
2, 20520, Note_on_c, 0, 77, 64
2, 20543, Note_on_c, 0, 77, 0
2, 20544, Note_on_c, 0, 82, 64
2, 20567, Note_on_c, 0, 82, 0
2, 20568, Note_on_c, 0, 76, 64
2, 20591, Note_on_c, 0, 76, 0
2, 20592, Note_on_c, 0, 82, 64
2, 20615, Note_on_c, 0, 82, 0
2, 20616, Note_on_c, 0, 76, 64
2, 20639, Note_on_c, 0, 76, 0
2, 20640, Note_on_c, 0, 80, 64
2, 20663, Note_on_c, 0, 80, 0
2, 20664, Note_on_c, 0, 75, 64
2, 20687, Note_on_c, 0, 75, 0
2, 20688, Note_on_c, 0, 80, 64
2, 20711, Note_on_c, 0, 80, 0
2, 20712, Note_on_c, 0, 75, 64
2, 20735, Note_on_c, 0, 75, 0
2, 20736, Note_on_c, 0, 80, 64
2, 20759, Note_on_c, 0, 80, 0
2, 20760, Note_on_c, 0, 74, 64
2, 20783, Note_on_c, 0, 74, 0
2, 20784, Note_on_c, 0, 80, 64
2, 20807, Note_on_c, 0, 80, 0
2, 20808, Note_on_c, 0, 74, 64
2, 20831, Note_on_c, 0, 74, 0
2, 20832, Note_on_c, 0, 79, 64
2, 20855, Note_on_c, 0, 79, 0
2, 20856, Note_on_c, 0, 73, 64
2, 20879, Note_on_c, 0, 73, 0
2, 20880, Note_on_c, 0, 79, 64
2, 20903, Note_on_c, 0, 79, 0
2, 20904, Note_on_c, 0, 73, 64
2, 20927, Note_on_c, 0, 73, 0
2, 20928, Note_on_c, 0, 79, 64
2, 20951, Note_on_c, 0, 79, 0
2, 20952, Note_on_c, 0, 72, 64
2, 20975, Note_on_c, 0, 72, 0
2, 20976, Note_on_c, 0, 79, 64
2, 20999, Note_on_c, 0, 79, 0
2, 21000, Note_on_c, 0, 72, 64
2, 21023, Note_on_c, 0, 72, 0
2, 21024, Note_on_c, 0, 77, 64
2, 21047, Note_on_c, 0, 77, 0
2, 21048, Note_on_c, 0, 72, 64
2, 21071, Note_on_c, 0, 72, 0
2, 21072, Note_on_c, 0, 77, 64
2, 21095, Note_on_c, 0, 77, 0
2, 21096, Note_on_c, 0, 72, 64
2, 21119, Note_on_c, 0, 72, 0
2, 21120, Note_on_c, 0, 77, 64
2, 21143, Note_on_c, 0, 77, 0
2, 21144, Note_on_c, 0, 70, 64
2, 21167, Note_on_c, 0, 70, 0
2, 21168, Note_on_c, 0, 77, 64
2, 21191, Note_on_c, 0, 77, 0
2, 21192, Note_on_c, 0, 70, 64
2, 21215, Note_on_c, 0, 70, 0
2, 21216, Note_on_c, 0, 75, 64
2, 21239, Note_on_c, 0, 75, 0
2, 21240, Note_on_c, 0, 70, 64
2, 21263, Note_on_c, 0, 70, 0
2, 21264, Note_on_c, 0, 75, 64
2, 21287, Note_on_c, 0, 75, 0
2, 21288, Note_on_c, 0, 70, 64
2, 21311, Note_on_c, 0, 70, 0
2, 21312, Note_on_c, 0, 75, 64
2, 21335, Note_on_c, 0, 75, 0
2, 21336, Note_on_c, 0, 69, 64
2, 21359, Note_on_c, 0, 69, 0
2, 21360, Note_on_c, 0, 75, 64
2, 21383, Note_on_c, 0, 75, 0
2, 21384, Note_on_c, 0, 69, 64
2, 21407, Note_on_c, 0, 69, 0
2, 21408, Note_on_c, 0, 73, 64
2, 21431, Note_on_c, 0, 73, 0
2, 21432, Note_on_c, 0, 70, 64
2, 21455, Note_on_c, 0, 70, 0
2, 21456, Note_on_c, 0, 73, 64
2, 21479, Note_on_c, 0, 73, 0
2, 21480, Note_on_c, 0, 70, 64
2, 21503, Note_on_c, 0, 70, 0
2, 21504, Note_on_c, 0, 69, 64
2, 21527, Note_on_c, 0, 69, 0
2, 21528, Note_on_c, 0, 72, 64
2, 21551, Note_on_c, 0, 72, 0
2, 21552, Note_on_c, 0, 77, 64
2, 21575, Note_on_c, 0, 77, 0
2, 21576, Note_on_c, 0, 72, 64
2, 21599, Note_on_c, 0, 72, 0
2, 21600, Note_on_c, 0, 78, 64
2, 21623, Note_on_c, 0, 78, 0
2, 21624, Note_on_c, 0, 69, 64
2, 21647, Note_on_c, 0, 69, 0
2, 21648, Note_on_c, 0, 81, 64
2, 21671, Note_on_c, 0, 81, 0
2, 21672, Note_on_c, 0, 72, 64
2, 21695, Note_on_c, 0, 72, 0
2, 21696, Note_on_c, 0, 82, 64
2, 21719, Note_on_c, 0, 82, 0
2, 21720, Note_on_c, 0, 70, 64
2, 21743, Note_on_c, 0, 70, 0
2, 21744, Note_on_c, 0, 78, 64
2, 21767, Note_on_c, 0, 78, 0
2, 21768, Note_on_c, 0, 70, 64
2, 21791, Note_on_c, 0, 70, 0
2, 21792, Note_on_c, 0, 77, 64
2, 21815, Note_on_c, 0, 77, 0
2, 21816, Note_on_c, 0, 70, 64
2, 21839, Note_on_c, 0, 70, 0
2, 21840, Note_on_c, 0, 76, 64
2, 21863, Note_on_c, 0, 76, 0
2, 21864, Note_on_c, 0, 70, 64
2, 21887, Note_on_c, 0, 70, 0
2, 21888, Note_on_c, 0, 69, 64
2, 21911, Note_on_c, 0, 69, 0
2, 21912, Note_on_c, 0, 72, 64
2, 21935, Note_on_c, 0, 72, 0
2, 21936, Note_on_c, 0, 77, 64
2, 21959, Note_on_c, 0, 77, 0
2, 21960, Note_on_c, 0, 72, 64
2, 21983, Note_on_c, 0, 72, 0
2, 21984, Note_on_c, 0, 78, 64
2, 22007, Note_on_c, 0, 78, 0
2, 22008, Note_on_c, 0, 69, 64
2, 22031, Note_on_c, 0, 69, 0
2, 22032, Note_on_c, 0, 81, 64
2, 22055, Note_on_c, 0, 81, 0
2, 22056, Note_on_c, 0, 72, 64
2, 22079, Note_on_c, 0, 72, 0
2, 22080, Note_on_c, 0, 82, 64
2, 22103, Note_on_c, 0, 82, 0
2, 22104, Note_on_c, 0, 70, 64
2, 22127, Note_on_c, 0, 70, 0
2, 22128, Note_on_c, 0, 78, 64
2, 22151, Note_on_c, 0, 78, 0
2, 22152, Note_on_c, 0, 70, 64
2, 22175, Note_on_c, 0, 70, 0
2, 22176, Note_on_c, 0, 77, 64
2, 22199, Note_on_c, 0, 77, 0
2, 22200, Note_on_c, 0, 70, 64
2, 22223, Note_on_c, 0, 70, 0
2, 22224, Note_on_c, 0, 76, 64
2, 22247, Note_on_c, 0, 76, 0
2, 22248, Note_on_c, 0, 70, 64
2, 22271, Note_on_c, 0, 70, 0
2, 22272, Note_on_c, 0, 77, 64
2, 22295, Note_on_c, 0, 77, 0
2, 22296, Note_on_c, 0, 69, 65
2, 22319, Note_on_c, 0, 69, 0
2, 22320, Note_on_c, 0, 72, 66
2, 22343, Note_on_c, 0, 72, 0
2, 22344, Note_on_c, 0, 69, 67
2, 22367, Note_on_c, 0, 69, 0
2, 22368, Note_on_c, 0, 77, 68
2, 22383, Note_on_c, 0, 77, 0
2, 22384, Note_on_c, 0, 72, 68
2, 22399, Note_on_c, 0, 72, 0
2, 22400, Note_on_c, 0, 69, 69
2, 22415, Note_on_c, 0, 69, 0
2, 22416, Note_on_c, 0, 77, 69
2, 22431, Note_on_c, 0, 77, 0
2, 22432, Note_on_c, 0, 72, 70
2, 22447, Note_on_c, 0, 72, 0
2, 22448, Note_on_c, 0, 69, 70
2, 22463, Note_on_c, 0, 69, 0
2, 22464, Note_on_c, 0, 76, 71
2, 22479, Note_on_c, 0, 76, 0
2, 22480, Note_on_c, 0, 70, 71
2, 22495, Note_on_c, 0, 70, 0
2, 22496, Note_on_c, 0, 67, 72
2, 22511, Note_on_c, 0, 67, 0
2, 22512, Note_on_c, 0, 76, 72
2, 22527, Note_on_c, 0, 76, 0
2, 22528, Note_on_c, 0, 70, 73
2, 22543, Note_on_c, 0, 70, 0
2, 22544, Note_on_c, 0, 67, 73
2, 22559, Note_on_c, 0, 67, 0
2, 22560, Note_on_c, 0, 75, 74
2, 22575, Note_on_c, 0, 75, 0
2, 22576, Note_on_c, 0, 72, 74
2, 22591, Note_on_c, 0, 72, 0
2, 22592, Note_on_c, 0, 65, 75
2, 22607, Note_on_c, 0, 65, 0
2, 22608, Note_on_c, 0, 75, 75
2, 22623, Note_on_c, 0, 75, 0
2, 22624, Note_on_c, 0, 72, 76
2, 22639, Note_on_c, 0, 72, 0
2, 22640, Note_on_c, 0, 65, 76
2, 22655, Note_on_c, 0, 65, 0
2, 22656, Note_on_c, 0, 62, 80
2, 22664, Note_on_c, 0, 65, 80
2, 22672, Note_on_c, 0, 70, 80
2, 22749, Note_on_c, 0, 70, 0
2, 22749, Note_on_c, 0, 65, 0
2, 22749, Note_on_c, 0, 62, 0
2, 22752, Note_on_c, 0, 74, 80
2, 22752, Note_on_c, 0, 70, 80
2, 22752, Note_on_c, 0, 68, 80
2, 22819, Note_on_c, 0, 74, 0
2, 22819, Note_on_c, 0, 70, 0
2, 22819, Note_on_c, 0, 68, 0
2, 22824, Note_on_c, 0, 74, 80
2, 22824, Note_on_c, 0, 70, 80
2, 22824, Note_on_c, 0, 68, 80
2, 22847, Note_on_c, 0, 74, 0
2, 22847, Note_on_c, 0, 70, 0
2, 22847, Note_on_c, 0, 68, 0
2, 22848, Note_on_c, 0, 63, 80
2, 22854, Note_on_c, 0, 67, 80
2, 22860, Note_on_c, 0, 70, 80
2, 22866, Note_on_c, 0, 75, 80
2, 22963, Note_on_c, 0, 75, 0
2, 22963, Note_on_c, 0, 70, 0
2, 22963, Note_on_c, 0, 67, 0
2, 22963, Note_on_c, 0, 63, 0
2, 22968, Note_on_c, 0, 79, 80
2, 22980, Note_on_c, 0, 79, 0
2, 22980, Note_on_c, 0, 77, 80
2, 22992, Note_on_c, 0, 77, 0
2, 22992, Note_on_c, 0, 75, 80
2, 23004, Note_on_c, 0, 75, 0
2, 23004, Note_on_c, 0, 74, 80
2, 23016, Note_on_c, 0, 74, 0
2, 23016, Note_on_c, 0, 72, 80
2, 23028, Note_on_c, 0, 72, 0
2, 23028, Note_on_c, 0, 70, 80
2, 23040, Note_on_c, 0, 70, 0
2, 23040, Note_on_c, 0, 69, 80
2, 23052, Note_on_c, 0, 69, 0
2, 23052, Note_on_c, 0, 70, 80
2, 23064, Note_on_c, 0, 70, 0
2, 23064, Note_on_c, 0, 72, 80
2, 23076, Note_on_c, 0, 72, 0
2, 23076, Note_on_c, 0, 74, 80
2, 23088, Note_on_c, 0, 74, 0
2, 23088, Note_on_c, 0, 75, 80
2, 23100, Note_on_c, 0, 75, 0
2, 23100, Note_on_c, 0, 77, 80
2, 23112, Note_on_c, 0, 77, 0
2, 23112, Note_on_c, 0, 79, 80
2, 23124, Note_on_c, 0, 79, 0
2, 23124, Note_on_c, 0, 81, 80
2, 23136, Note_on_c, 0, 81, 0
2, 23136, Note_on_c, 0, 82, 80
2, 23148, Note_on_c, 0, 82, 0
2, 23148, Note_on_c, 0, 84, 80
2, 23160, Note_on_c, 0, 84, 0
2, 23160, Note_on_c, 0, 86, 80
2, 23172, Note_on_c, 0, 86, 0
2, 23172, Note_on_c, 0, 87, 80
2, 23184, Note_on_c, 0, 87, 0
2, 23184, Note_on_c, 0, 89, 80
2, 23194, Note_on_c, 0, 89, 0
2, 23208, Note_on_c, 0, 87, 80
2, 23218, Note_on_c, 0, 87, 0
2, 23232, Note_on_c, 0, 86, 80
2, 23242, Note_on_c, 0, 86, 0
2, 23256, Note_on_c, 0, 84, 80
2, 23266, Note_on_c, 0, 84, 0
2, 23280, Note_on_c, 0, 82, 80
2, 23290, Note_on_c, 0, 82, 0
2, 23304, Note_on_c, 0, 81, 80
2, 23314, Note_on_c, 0, 81, 0
2, 23328, Note_on_c, 0, 79, 80
2, 23338, Note_on_c, 0, 79, 0
2, 23352, Note_on_c, 0, 77, 80
2, 23362, Note_on_c, 0, 77, 0
2, 23376, Note_on_c, 0, 75, 80
2, 23386, Note_on_c, 0, 75, 0
2, 23400, Note_on_c, 0, 74, 80
2, 23410, Note_on_c, 0, 74, 0
2, 23424, Note_on_c, 0, 72, 80
2, 23434, Note_on_c, 0, 72, 0
2, 23434, Note_on_c, 0, 70, 80
2, 23444, Note_on_c, 0, 70, 0
2, 23444, Note_on_c, 0, 69, 80
2, 23454, Note_on_c, 0, 69, 0
2, 23454, Note_on_c, 0, 70, 80
2, 23464, Note_on_c, 0, 70, 0
2, 23464, Note_on_c, 0, 72, 80
2, 23474, Note_on_c, 0, 72, 0
2, 23474, Note_on_c, 0, 74, 80
2, 23484, Note_on_c, 0, 74, 0
2, 23484, Note_on_c, 0, 75, 80
2, 23493, Note_on_c, 0, 75, 0
2, 23493, Note_on_c, 0, 77, 80
2, 23502, Note_on_c, 0, 77, 0
2, 23502, Note_on_c, 0, 79, 80
2, 23511, Note_on_c, 0, 79, 0
2, 23511, Note_on_c, 0, 81, 80
2, 23520, Note_on_c, 0, 81, 0
2, 23520, Note_on_c, 0, 82, 80
2, 23532, Note_on_c, 0, 82, 0
2, 23532, Note_on_c, 0, 84, 80
2, 23544, Note_on_c, 0, 84, 0
2, 23544, Note_on_c, 0, 86, 80
2, 23556, Note_on_c, 0, 86, 0
2, 23556, Note_on_c, 0, 87, 80
2, 23568, Note_on_c, 0, 87, 0
2, 23568, Note_on_c, 0, 89, 80
2, 23591, Note_on_c, 0, 89, 0
2, 23592, Note_on_c, 0, 87, 79
2, 23615, Note_on_c, 0, 87, 0
2, 23616, Note_on_c, 0, 86, 79
2, 23622, Note_on_c, 0, 86, 0
2, 23622, Note_on_c, 0, 87, 79
2, 23628, Note_on_c, 0, 87, 0
2, 23628, Note_on_c, 0, 86, 79
2, 23639, Note_on_c, 0, 86, 0
2, 23640, Note_on_c, 0, 84, 78
2, 23663, Note_on_c, 0, 84, 0
2, 23664, Note_on_c, 0, 82, 78
2, 23670, Note_on_c, 0, 82, 0
2, 23670, Note_on_c, 0, 84, 78
2, 23676, Note_on_c, 0, 84, 0
2, 23676, Note_on_c, 0, 82, 78
2, 23687, Note_on_c, 0, 82, 0
2, 23688, Note_on_c, 0, 81, 77
2, 23711, Note_on_c, 0, 81, 0
2, 23712, Note_on_c, 0, 79, 77
2, 23718, Note_on_c, 0, 79, 0
2, 23718, Note_on_c, 0, 81, 77
2, 23724, Note_on_c, 0, 81, 0
2, 23724, Note_on_c, 0, 79, 77
2, 23735, Note_on_c, 0, 79, 0
2, 23736, Note_on_c, 0, 77, 76
2, 23759, Note_on_c, 0, 77, 0
2, 23760, Note_on_c, 0, 75, 76
2, 23766, Note_on_c, 0, 75, 0
2, 23766, Note_on_c, 0, 77, 76
2, 23772, Note_on_c, 0, 77, 0
2, 23772, Note_on_c, 0, 75, 76
2, 23783, Note_on_c, 0, 75, 0
2, 23784, Note_on_c, 0, 74, 75
2, 23807, Note_on_c, 0, 74, 0
2, 23808, Note_on_c, 0, 79, 75
2, 23927, Note_on_c, 0, 79, 0
2, 23928, Note_on_c, 0, 82, 75
2, 23951, Note_on_c, 0, 82, 0
2, 23952, Note_on_c, 0, 81, 75
2, 23975, Note_on_c, 0, 81, 0
2, 23976, Note_on_c, 0, 79, 75
2, 23999, Note_on_c, 0, 79, 0
2, 24000, Note_on_c, 0, 77, 75
2, 24119, Note_on_c, 0, 77, 0
2, 24120, Note_on_c, 0, 82, 75
2, 24143, Note_on_c, 0, 82, 0
2, 24144, Note_on_c, 0, 81, 75
2, 24167, Note_on_c, 0, 81, 0
2, 24168, Note_on_c, 0, 79, 75
2, 24191, Note_on_c, 0, 79, 0
2, 24192, Note_on_c, 0, 77, 75
2, 24215, Note_on_c, 0, 77, 0
2, 24216, Note_on_c, 0, 76, 74
2, 24239, Note_on_c, 0, 76, 0
2, 24240, Note_on_c, 0, 79, 73
2, 24263, Note_on_c, 0, 79, 0
2, 24264, Note_on_c, 0, 77, 73
2, 24287, Note_on_c, 0, 77, 0
2, 24288, Note_on_c, 0, 76, 72
2, 24311, Note_on_c, 0, 76, 0
2, 24312, Note_on_c, 0, 82, 72
2, 24335, Note_on_c, 0, 82, 0
2, 24336, Note_on_c, 0, 81, 71
2, 24359, Note_on_c, 0, 81, 0
2, 24360, Note_on_c, 0, 79, 71
2, 24383, Note_on_c, 0, 79, 0
2, 24384, Note_on_c, 0, 77, 70
2, 24407, Note_on_c, 0, 77, 0
2, 24408, Note_on_c, 0, 76, 70
2, 24431, Note_on_c, 0, 76, 0
2, 24432, Note_on_c, 0, 79, 70
2, 24455, Note_on_c, 0, 79, 0
2, 24456, Note_on_c, 0, 77, 70
2, 24479, Note_on_c, 0, 77, 0
2, 24480, Note_on_c, 0, 76, 70
2, 24503, Note_on_c, 0, 76, 0
2, 24504, Note_on_c, 0, 82, 70
2, 24527, Note_on_c, 0, 82, 0
2, 24528, Note_on_c, 0, 81, 70
2, 24551, Note_on_c, 0, 81, 0
2, 24552, Note_on_c, 0, 79, 70
2, 24575, Note_on_c, 0, 79, 0
2, 24576, Note_on_c, 0, 77, 64
2, 24599, Note_on_c, 0, 77, 0
2, 24600, Note_on_c, 0, 76, 64
2, 24623, Note_on_c, 0, 76, 0
2, 24624, Note_on_c, 0, 79, 64
2, 24647, Note_on_c, 0, 79, 0
2, 24648, Note_on_c, 0, 77, 64
2, 24671, Note_on_c, 0, 77, 0
2, 24672, Note_on_c, 0, 76, 64
2, 24695, Note_on_c, 0, 76, 0
2, 24696, Note_on_c, 0, 82, 64
2, 24719, Note_on_c, 0, 82, 0
2, 24720, Note_on_c, 0, 79, 64
2, 24743, Note_on_c, 0, 79, 0
2, 24744, Note_on_c, 0, 76, 64
2, 24767, Note_on_c, 0, 76, 0
2, 24768, Note_on_c, 0, 79, 64
2, 24791, Note_on_c, 0, 79, 0
2, 24792, Note_on_c, 0, 77, 64
2, 24815, Note_on_c, 0, 77, 0
2, 24816, Note_on_c, 0, 76, 64
2, 24839, Note_on_c, 0, 76, 0
2, 24840, Note_on_c, 0, 77, 64
2, 24863, Note_on_c, 0, 77, 0
2, 24864, Note_on_c, 0, 76, 64
2, 24887, Note_on_c, 0, 76, 0
2, 24888, Note_on_c, 0, 77, 64
2, 24911, Note_on_c, 0, 77, 0
2, 24912, Note_on_c, 0, 82, 77
2, 24912, Note_on_c, 0, 79, 77
2, 24912, Note_on_c, 0, 75, 77
2, 24912, Note_on_c, 0, 70, 77
2, 24935, Note_on_c, 0, 82, 0
2, 24935, Note_on_c, 0, 79, 0
2, 24935, Note_on_c, 0, 75, 0
2, 24935, Note_on_c, 0, 70, 0
2, 24936, Note_on_c, 0, 75, 80
2, 24960, Note_on_c, 0, 75, 0
2, 24960, Note_on_c, 0, 75, 80
2, 24984, Note_on_c, 0, 75, 0
2, 24984, Note_on_c, 0, 74, 64
2, 25007, Note_on_c, 0, 74, 0
2, 25008, Note_on_c, 0, 73, 65
2, 25031, Note_on_c, 0, 73, 0
2, 25032, Note_on_c, 0, 74, 66
2, 25055, Note_on_c, 0, 74, 0
2, 25056, Note_on_c, 0, 73, 67
2, 25079, Note_on_c, 0, 73, 0
2, 25080, Note_on_c, 0, 74, 68
2, 25103, Note_on_c, 0, 74, 0
2, 25104, Note_on_c, 0, 79, 82
2, 25104, Note_on_c, 0, 75, 82
2, 25104, Note_on_c, 0, 72, 82
2, 25104, Note_on_c, 0, 67, 82
2, 25127, Note_on_c, 0, 79, 0
2, 25127, Note_on_c, 0, 75, 0
2, 25127, Note_on_c, 0, 72, 0
2, 25127, Note_on_c, 0, 67, 0
2, 25128, Note_on_c, 0, 72, 86
2, 25152, Note_on_c, 0, 72, 0
2, 25152, Note_on_c, 0, 72, 87
2, 25176, Note_on_c, 0, 72, 0
2, 25176, Note_on_c, 0, 70, 72
2, 25199, Note_on_c, 0, 70, 0
2, 25200, Note_on_c, 0, 69, 73
2, 25223, Note_on_c, 0, 69, 0
2, 25224, Note_on_c, 0, 70, 74
2, 25247, Note_on_c, 0, 70, 0
2, 25248, Note_on_c, 0, 69, 75
2, 25271, Note_on_c, 0, 69, 0
2, 25272, Note_on_c, 0, 70, 76
2, 25295, Note_on_c, 0, 70, 0
2, 25296, Note_on_c, 0, 77, 90
2, 25296, Note_on_c, 0, 74, 90
2, 25296, Note_on_c, 0, 70, 90
2, 25296, Note_on_c, 0, 65, 90
2, 25319, Note_on_c, 0, 77, 0
2, 25319, Note_on_c, 0, 74, 0
2, 25319, Note_on_c, 0, 70, 0
2, 25319, Note_on_c, 0, 65, 0
2, 25320, Note_on_c, 0, 70, 94
2, 25344, Note_on_c, 0, 70, 0
2, 25344, Note_on_c, 0, 69, 95
2, 25356, Note_on_c, 0, 69, 0
2, 25356, Note_on_c, 0, 79, 80
2, 25368, Note_on_c, 0, 79, 0
2, 25368, Note_on_c, 0, 77, 80
2, 25380, Note_on_c, 0, 77, 0
2, 25380, Note_on_c, 0, 75, 80
2, 25392, Note_on_c, 0, 75, 0
2, 25392, Note_on_c, 0, 74, 80
2, 25404, Note_on_c, 0, 74, 0
2, 25404, Note_on_c, 0, 72, 80
2, 25416, Note_on_c, 0, 72, 0
2, 25416, Note_on_c, 0, 70, 80
2, 25428, Note_on_c, 0, 70, 0
2, 25428, Note_on_c, 0, 69, 80
2, 25440, Note_on_c, 0, 69, 0
2, 25440, Note_on_c, 0, 70, 80
2, 25452, Note_on_c, 0, 70, 0
2, 25452, Note_on_c, 0, 77, 78
2, 25464, Note_on_c, 0, 77, 0
2, 25464, Note_on_c, 0, 79, 77
2, 25476, Note_on_c, 0, 79, 0
2, 25476, Note_on_c, 0, 77, 76
2, 25488, Note_on_c, 0, 77, 0
2, 25488, Note_on_c, 0, 75, 75
2, 25500, Note_on_c, 0, 75, 0
2, 25500, Note_on_c, 0, 74, 73
2, 25512, Note_on_c, 0, 74, 0
2, 25512, Note_on_c, 0, 72, 72
2, 25524, Note_on_c, 0, 72, 0
2, 25524, Note_on_c, 0, 70, 71
2, 25536, Note_on_c, 0, 70, 0
2, 25536, Note_on_c, 0, 69, 70
2, 25548, Note_on_c, 0, 69, 0
2, 25548, Note_on_c, 0, 79, 70
2, 25560, Note_on_c, 0, 79, 0
2, 25560, Note_on_c, 0, 77, 70
2, 25572, Note_on_c, 0, 77, 0
2, 25572, Note_on_c, 0, 75, 70
2, 25584, Note_on_c, 0, 75, 0
2, 25584, Note_on_c, 0, 74, 70
2, 25596, Note_on_c, 0, 74, 0
2, 25596, Note_on_c, 0, 72, 70
2, 25608, Note_on_c, 0, 72, 0
2, 25608, Note_on_c, 0, 70, 70
2, 25620, Note_on_c, 0, 70, 0
2, 25620, Note_on_c, 0, 69, 70
2, 25632, Note_on_c, 0, 69, 0
2, 25632, Note_on_c, 0, 70, 70
2, 25644, Note_on_c, 0, 70, 0
2, 25644, Note_on_c, 0, 72, 71
2, 25656, Note_on_c, 0, 72, 0
2, 25656, Note_on_c, 0, 74, 72
2, 25668, Note_on_c, 0, 74, 0
2, 25668, Note_on_c, 0, 75, 73
2, 25680, Note_on_c, 0, 75, 0
2, 25680, Note_on_c, 0, 77, 75
2, 25692, Note_on_c, 0, 77, 0
2, 25692, Note_on_c, 0, 79, 76
2, 25704, Note_on_c, 0, 79, 0
2, 25704, Note_on_c, 0, 80, 77
2, 25716, Note_on_c, 0, 80, 0
2, 25716, Note_on_c, 0, 82, 78
2, 25728, Note_on_c, 0, 82, 0
2, 25728, Note_on_c, 0, 80, 80
2, 25740, Note_on_c, 0, 80, 0
2, 25740, Note_on_c, 0, 82, 80
2, 25752, Note_on_c, 0, 82, 0
2, 25752, Note_on_c, 0, 84, 80
2, 25764, Note_on_c, 0, 84, 0
2, 25764, Note_on_c, 0, 82, 80
2, 25776, Note_on_c, 0, 82, 0
2, 25776, Note_on_c, 0, 80, 80
2, 25788, Note_on_c, 0, 80, 0
2, 25788, Note_on_c, 0, 79, 80
2, 25800, Note_on_c, 0, 79, 0
2, 25800, Note_on_c, 0, 77, 80
2, 25812, Note_on_c, 0, 77, 0
2, 25812, Note_on_c, 0, 75, 80
2, 25824, Note_on_c, 0, 75, 0
2, 25824, Note_on_c, 0, 74, 80
2, 25836, Note_on_c, 0, 74, 0
2, 25836, Note_on_c, 0, 75, 80
2, 25848, Note_on_c, 0, 75, 0
2, 25848, Note_on_c, 0, 77, 80
2, 25860, Note_on_c, 0, 77, 0
2, 25860, Note_on_c, 0, 75, 80
2, 25872, Note_on_c, 0, 75, 0
2, 25872, Note_on_c, 0, 74, 80
2, 25884, Note_on_c, 0, 74, 0
2, 25884, Note_on_c, 0, 72, 80
2, 25896, Note_on_c, 0, 72, 0
2, 25896, Note_on_c, 0, 70, 80
2, 25908, Note_on_c, 0, 70, 0
2, 25908, Note_on_c, 0, 68, 80
2, 25920, Note_on_c, 0, 68, 0
2, 25920, Note_on_c, 0, 67, 80
2, 25943, Note_on_c, 0, 67, 0
2, 25944, Note_on_c, 0, 79, 64
2, 25954, Note_on_c, 0, 79, 0
2, 25968, Note_on_c, 0, 78, 64
2, 25978, Note_on_c, 0, 78, 0
2, 25992, Note_on_c, 0, 81, 64
2, 26002, Note_on_c, 0, 81, 0
2, 26016, Note_on_c, 0, 79, 64
2, 26026, Note_on_c, 0, 79, 0
2, 26040, Note_on_c, 0, 82, 64
2, 26050, Note_on_c, 0, 82, 0
2, 26064, Note_on_c, 0, 78, 64
2, 26074, Note_on_c, 0, 78, 0
2, 26088, Note_on_c, 0, 81, 64
2, 26098, Note_on_c, 0, 81, 0
2, 26112, Note_on_c, 0, 79, 64
2, 26122, Note_on_c, 0, 79, 0
2, 26136, Note_on_c, 0, 82, 67
2, 26146, Note_on_c, 0, 82, 0
2, 26160, Note_on_c, 0, 78, 70
2, 26170, Note_on_c, 0, 78, 0
2, 26184, Note_on_c, 0, 81, 73
2, 26194, Note_on_c, 0, 81, 0
2, 26208, Note_on_c, 0, 79, 76
2, 26218, Note_on_c, 0, 79, 0
2, 26232, Note_on_c, 0, 82, 80
2, 26242, Note_on_c, 0, 82, 0
2, 26256, Note_on_c, 0, 79, 80
2, 26271, Note_on_c, 0, 79, 0
2, 26272, Note_on_c, 0, 75, 80
2, 26287, Note_on_c, 0, 75, 0
2, 26288, Note_on_c, 0, 72, 80
2, 26303, Note_on_c, 0, 72, 0
2, 26304, Note_on_c, 0, 70, 80
2, 26371, Note_on_c, 0, 70, 0
2, 26376, Note_on_c, 0, 72, 80
2, 26382, Note_on_c, 0, 72, 0
2, 26382, Note_on_c, 0, 70, 80
2, 26388, Note_on_c, 0, 70, 0
2, 26388, Note_on_c, 0, 69, 80
2, 26394, Note_on_c, 0, 69, 0
2, 26394, Note_on_c, 0, 70, 80
2, 26400, Note_on_c, 0, 70, 0
2, 26400, Note_on_c, 0, 74, 80
2, 26467, Note_on_c, 0, 74, 0
2, 26472, Note_on_c, 0, 72, 80
2, 26495, Note_on_c, 0, 72, 0
2, 26496, Note_on_c, 0, 70, 80
2, 26541, Note_on_c, 0, 70, 0
2, 26580, Note_on_c, 0, 89, 64
2, 26592, Note_on_c, 0, 89, 0
2, 26592, Note_on_c, 0, 86, 64
2, 26602, Note_on_c, 0, 86, 0
2, 26628, Note_on_c, 0, 89, 64
2, 26640, Note_on_c, 0, 89, 0
2, 26640, Note_on_c, 0, 84, 64
2, 26650, Note_on_c, 0, 84, 0
2, 26676, Note_on_c, 0, 89, 64
2, 26688, Note_on_c, 0, 89, 0
2, 26688, Note_on_c, 0, 82, 64
2, 26698, Note_on_c, 0, 82, 0
2, 26724, Note_on_c, 0, 89, 64
2, 26736, Note_on_c, 0, 89, 0
2, 26736, Note_on_c, 0, 77, 64
2, 26746, Note_on_c, 0, 77, 0
2, 26772, Note_on_c, 0, 89, 58
2, 26784, Note_on_c, 0, 89, 0
2, 26784, Note_on_c, 0, 86, 58
2, 26794, Note_on_c, 0, 86, 0
2, 26820, Note_on_c, 0, 89, 58
2, 26832, Note_on_c, 0, 89, 0
2, 26832, Note_on_c, 0, 84, 58
2, 26842, Note_on_c, 0, 84, 0
2, 26868, Note_on_c, 0, 89, 58
2, 26880, Note_on_c, 0, 89, 0
2, 26880, Note_on_c, 0, 82, 58
2, 26890, Note_on_c, 0, 82, 0
2, 26916, Note_on_c, 0, 89, 58
2, 26928, Note_on_c, 0, 89, 0
2, 26928, Note_on_c, 0, 77, 58
2, 26938, Note_on_c, 0, 77, 0
2, 26964, Note_on_c, 0, 89, 58
2, 26976, Note_on_c, 0, 89, 0
2, 26976, Note_on_c, 0, 80, 58
2, 26986, Note_on_c, 0, 80, 0
2, 27012, Note_on_c, 0, 89, 64
2, 27024, Note_on_c, 0, 89, 0
2, 27024, Note_on_c, 0, 78, 64
2, 27034, Note_on_c, 0, 78, 0
2, 27060, Note_on_c, 0, 89, 64
2, 27072, Note_on_c, 0, 89, 0
2, 27072, Note_on_c, 0, 79, 64
2, 27082, Note_on_c, 0, 79, 0
2, 27108, Note_on_c, 0, 83, 65
2, 27120, Note_on_c, 0, 83, 0
2, 27120, Note_on_c, 0, 84, 65
2, 27130, Note_on_c, 0, 84, 0
2, 27156, Note_on_c, 0, 86, 67
2, 27168, Note_on_c, 0, 86, 0
2, 27168, Note_on_c, 0, 87, 67
2, 27178, Note_on_c, 0, 87, 0
2, 27204, Note_on_c, 0, 86, 69
2, 27216, Note_on_c, 0, 86, 0
2, 27216, Note_on_c, 0, 84, 69
2, 27226, Note_on_c, 0, 84, 0
2, 27252, Note_on_c, 0, 82, 71
2, 27264, Note_on_c, 0, 82, 0
2, 27264, Note_on_c, 0, 81, 71
2, 27274, Note_on_c, 0, 81, 0
2, 27300, Note_on_c, 0, 79, 73
2, 27312, Note_on_c, 0, 79, 0
2, 27312, Note_on_c, 0, 77, 73
2, 27322, Note_on_c, 0, 77, 0
2, 27348, Note_on_c, 0, 76, 75
2, 27360, Note_on_c, 0, 76, 0
2, 27360, Note_on_c, 0, 77, 75
2, 27370, Note_on_c, 0, 77, 0
2, 27396, Note_on_c, 0, 79, 77
2, 27408, Note_on_c, 0, 79, 0
2, 27408, Note_on_c, 0, 77, 77
2, 27418, Note_on_c, 0, 77, 0
2, 27444, Note_on_c, 0, 75, 79
2, 27456, Note_on_c, 0, 75, 0
2, 27456, Note_on_c, 0, 73, 79
2, 27468, Note_on_c, 0, 73, 0
2, 27468, Note_on_c, 0, 75, 80
2, 27480, Note_on_c, 0, 75, 0
2, 27480, Note_on_c, 0, 73, 80
2, 27492, Note_on_c, 0, 73, 0
2, 27492, Note_on_c, 0, 72, 80
2, 27504, Note_on_c, 0, 72, 0
2, 27504, Note_on_c, 0, 70, 80
2, 27514, Note_on_c, 0, 70, 0
2, 27528, Note_on_c, 0, 70, 80
2, 27538, Note_on_c, 0, 70, 0
2, 27552, Note_on_c, 0, 75, 80
2, 27564, Note_on_c, 0, 75, 0
2, 27564, Note_on_c, 0, 77, 80
2, 27576, Note_on_c, 0, 77, 0
2, 27576, Note_on_c, 0, 75, 80
2, 27588, Note_on_c, 0, 75, 0
2, 27588, Note_on_c, 0, 73, 80
2, 27600, Note_on_c, 0, 73, 0
2, 27600, Note_on_c, 0, 72, 78
2, 27610, Note_on_c, 0, 72, 0
2, 27624, Note_on_c, 0, 72, 74
2, 27634, Note_on_c, 0, 72, 0
2, 27648, Note_on_c, 0, 73, 70
2, 27660, Note_on_c, 0, 73, 0
2, 27660, Note_on_c, 0, 75, 70
2, 27672, Note_on_c, 0, 75, 0
2, 27672, Note_on_c, 0, 73, 70
2, 27684, Note_on_c, 0, 73, 0
2, 27684, Note_on_c, 0, 72, 70
2, 27696, Note_on_c, 0, 72, 0
2, 27696, Note_on_c, 0, 70, 70
2, 27706, Note_on_c, 0, 70, 0
2, 27720, Note_on_c, 0, 70, 70
2, 27730, Note_on_c, 0, 70, 0
2, 27744, Note_on_c, 0, 75, 70
2, 27756, Note_on_c, 0, 75, 0
2, 27756, Note_on_c, 0, 77, 70
2, 27768, Note_on_c, 0, 77, 0
2, 27768, Note_on_c, 0, 75, 70
2, 27780, Note_on_c, 0, 75, 0
2, 27780, Note_on_c, 0, 73, 71
2, 27792, Note_on_c, 0, 73, 0
2, 27792, Note_on_c, 0, 72, 73
2, 27802, Note_on_c, 0, 72, 0
2, 27816, Note_on_c, 0, 72, 76
2, 27826, Note_on_c, 0, 72, 0
2, 27840, Note_on_c, 0, 73, 80
2, 27852, Note_on_c, 0, 73, 0
2, 27852, Note_on_c, 0, 75, 80
2, 27864, Note_on_c, 0, 75, 0
2, 27864, Note_on_c, 0, 73, 80
2, 27876, Note_on_c, 0, 73, 0
2, 27876, Note_on_c, 0, 72, 80
2, 27888, Note_on_c, 0, 72, 0
2, 27888, Note_on_c, 0, 70, 80
2, 27900, Note_on_c, 0, 70, 0
2, 27900, Note_on_c, 0, 72, 80
2, 27912, Note_on_c, 0, 72, 0
2, 27912, Note_on_c, 0, 70, 80
2, 27924, Note_on_c, 0, 70, 0
2, 27924, Note_on_c, 0, 68, 80
2, 27936, Note_on_c, 0, 68, 0
2, 27936, Note_on_c, 0, 66, 80
2, 27948, Note_on_c, 0, 66, 0
2, 27948, Note_on_c, 0, 68, 80
2, 27960, Note_on_c, 0, 68, 0
2, 27960, Note_on_c, 0, 66, 80
2, 27972, Note_on_c, 0, 66, 0
2, 27972, Note_on_c, 0, 65, 80
2, 27984, Note_on_c, 0, 65, 0
2, 27984, Note_on_c, 0, 63, 80
2, 27996, Note_on_c, 0, 63, 0
2, 27996, Note_on_c, 0, 65, 80
2, 28008, Note_on_c, 0, 65, 0
2, 28008, Note_on_c, 0, 63, 80
2, 28020, Note_on_c, 0, 63, 0
2, 28020, Note_on_c, 0, 61, 80
2, 28032, Note_on_c, 0, 61, 0
2, 28032, Note_on_c, 0, 60, 80
2, 28044, Note_on_c, 0, 60, 0
2, 28044, Note_on_c, 0, 61, 80
2, 28056, Note_on_c, 0, 61, 0
2, 28056, Note_on_c, 0, 63, 80
2, 28068, Note_on_c, 0, 63, 0
2, 28068, Note_on_c, 0, 61, 80
2, 28080, Note_on_c, 0, 61, 0
2, 28080, Note_on_c, 0, 60, 80
2, 28092, Note_on_c, 0, 60, 0
2, 28092, Note_on_c, 0, 61, 80
2, 28104, Note_on_c, 0, 61, 0
2, 28104, Note_on_c, 0, 63, 80
2, 28116, Note_on_c, 0, 63, 0
2, 28116, Note_on_c, 0, 61, 80
2, 28128, Note_on_c, 0, 61, 0
2, 28128, Note_on_c, 0, 60, 80
2, 28140, Note_on_c, 0, 60, 0
2, 28140, Note_on_c, 0, 61, 80
2, 28152, Note_on_c, 0, 61, 0
2, 28152, Note_on_c, 0, 63, 80
2, 28164, Note_on_c, 0, 63, 0
2, 28164, Note_on_c, 0, 61, 80
2, 28176, Note_on_c, 0, 61, 0
2, 28176, Note_on_c, 0, 60, 80
2, 28188, Note_on_c, 0, 60, 0
2, 28188, Note_on_c, 0, 61, 80
2, 28200, Note_on_c, 0, 61, 0
2, 28200, Note_on_c, 0, 63, 80
2, 28212, Note_on_c, 0, 63, 0
2, 28212, Note_on_c, 0, 61, 80
2, 28224, Note_on_c, 0, 61, 0
2, 28224, Note_on_c, 0, 60, 80
2, 28236, Note_on_c, 0, 60, 0
2, 28236, Note_on_c, 0, 61, 79
2, 28248, Note_on_c, 0, 61, 0
2, 28248, Note_on_c, 0, 63, 78
2, 28260, Note_on_c, 0, 63, 0
2, 28260, Note_on_c, 0, 61, 77
2, 28272, Note_on_c, 0, 61, 0
2, 28272, Note_on_c, 0, 60, 76
2, 28284, Note_on_c, 0, 60, 0
2, 28284, Note_on_c, 0, 61, 75
2, 28296, Note_on_c, 0, 61, 0
2, 28296, Note_on_c, 0, 63, 74
2, 28308, Note_on_c, 0, 63, 0
2, 28308, Note_on_c, 0, 61, 73
2, 28320, Note_on_c, 0, 61, 0
2, 28320, Note_on_c, 0, 60, 72
2, 28332, Note_on_c, 0, 60, 0
2, 28332, Note_on_c, 0, 61, 71
2, 28344, Note_on_c, 0, 61, 0
2, 28344, Note_on_c, 0, 63, 70
2, 28356, Note_on_c, 0, 63, 0
2, 28356, Note_on_c, 0, 61, 69
2, 28368, Note_on_c, 0, 61, 0
2, 28368, Note_on_c, 0, 60, 68
2, 28380, Note_on_c, 0, 60, 0
2, 28380, Note_on_c, 0, 61, 67
2, 28392, Note_on_c, 0, 61, 0
2, 28392, Note_on_c, 0, 63, 66
2, 28404, Note_on_c, 0, 63, 0
2, 28404, Note_on_c, 0, 61, 65
2, 28416, Note_on_c, 0, 61, 0
2, 28416, Note_on_c, 0, 60, 70
2, 28428, Note_on_c, 0, 60, 0
2, 28428, Note_on_c, 0, 61, 70
2, 28440, Note_on_c, 0, 61, 0
2, 28440, Note_on_c, 0, 63, 70
2, 28452, Note_on_c, 0, 63, 0
2, 28452, Note_on_c, 0, 61, 70
2, 28464, Note_on_c, 0, 61, 0
2, 28464, Note_on_c, 0, 60, 70
2, 28476, Note_on_c, 0, 60, 0
2, 28476, Note_on_c, 0, 61, 70
2, 28488, Note_on_c, 0, 61, 0
2, 28488, Note_on_c, 0, 63, 70
2, 28500, Note_on_c, 0, 63, 0
2, 28500, Note_on_c, 0, 61, 70
2, 28512, Note_on_c, 0, 61, 0
2, 28512, Note_on_c, 0, 60, 70
2, 28524, Note_on_c, 0, 60, 0
2, 28524, Note_on_c, 0, 61, 70
2, 28536, Note_on_c, 0, 61, 0
2, 28536, Note_on_c, 0, 63, 70
2, 28548, Note_on_c, 0, 63, 0
2, 28548, Note_on_c, 0, 61, 70
2, 28560, Note_on_c, 0, 61, 0
2, 28560, Note_on_c, 0, 60, 70
2, 28572, Note_on_c, 0, 60, 0
2, 28572, Note_on_c, 0, 61, 70
2, 28584, Note_on_c, 0, 61, 0
2, 28584, Note_on_c, 0, 63, 70
2, 28596, Note_on_c, 0, 63, 0
2, 28596, Note_on_c, 0, 61, 70
2, 28608, Note_on_c, 0, 61, 0
2, 28608, Note_on_c, 0, 60, 64
2, 28620, Note_on_c, 0, 60, 0
2, 28620, Note_on_c, 0, 62, 65
2, 28632, Note_on_c, 0, 62, 0
2, 28632, Note_on_c, 0, 63, 67
2, 28644, Note_on_c, 0, 63, 0
2, 28644, Note_on_c, 0, 62, 69
2, 28656, Note_on_c, 0, 62, 0
2, 28656, Note_on_c, 0, 60, 71
2, 28668, Note_on_c, 0, 60, 0
2, 28668, Note_on_c, 0, 62, 72
2, 28680, Note_on_c, 0, 62, 0
2, 28680, Note_on_c, 0, 63, 74
2, 28692, Note_on_c, 0, 63, 0
2, 28692, Note_on_c, 0, 62, 76
2, 28704, Note_on_c, 0, 62, 0
2, 28704, Note_on_c, 0, 60, 78
2, 28716, Note_on_c, 0, 60, 0
2, 28716, Note_on_c, 0, 62, 80
2, 28728, Note_on_c, 0, 62, 0
2, 28728, Note_on_c, 0, 63, 80
2, 28740, Note_on_c, 0, 63, 0
2, 28740, Note_on_c, 0, 65, 80
2, 28752, Note_on_c, 0, 65, 0
2, 28752, Note_on_c, 0, 67, 80
2, 28764, Note_on_c, 0, 67, 0
2, 28764, Note_on_c, 0, 69, 80
2, 28776, Note_on_c, 0, 69, 0
2, 28776, Note_on_c, 0, 70, 80
2, 28788, Note_on_c, 0, 70, 0
2, 28788, Note_on_c, 0, 72, 80
2, 28800, Note_on_c, 0, 72, 0
2, 28800, Note_on_c, 0, 74, 80
2, 28800, Note_on_c, 0, 70, 80
2, 28889, Note_on_c, 0, 74, 0
2, 28889, Note_on_c, 0, 70, 0
2, 28896, Note_on_c, 0, 72, 80
2, 28908, Note_on_c, 0, 77, 80
2, 28989, Note_on_c, 0, 77, 0
2, 28989, Note_on_c, 0, 72, 0
2, 28992, Note_on_c, 0, 70, 80
2, 29000, Note_on_c, 0, 75, 80
2, 29008, Note_on_c, 0, 82, 80
2, 29136, Note_on_c, 0, 75, 0
2, 29136, Note_on_c, 0, 70, 0
2, 29159, Note_on_c, 0, 82, 0
2, 29160, Note_on_c, 0, 81, 80
2, 29168, Note_on_c, 0, 81, 0
2, 29168, Note_on_c, 0, 79, 80
2, 29176, Note_on_c, 0, 79, 0
2, 29176, Note_on_c, 0, 77, 80
2, 29184, Note_on_c, 0, 77, 0
2, 29184, Note_on_c, 0, 75, 80
2, 29204, Note_on_c, 0, 75, 0
2, 29256, Note_on_c, 0, 74, 80
2, 29279, Note_on_c, 0, 74, 0
2, 29280, Note_on_c, 0, 79, 80
2, 29300, Note_on_c, 0, 79, 0
2, 29352, Note_on_c, 0, 77, 80
2, 29352, Note_on_c, 0, 70, 80
2, 29375, Note_on_c, 0, 77, 0
2, 29375, Note_on_c, 0, 70, 0
2, 29376, Note_on_c, 0, 76, 80
2, 29376, Note_on_c, 0, 70, 80
2, 29415, Note_on_c, 0, 76, 0
2, 29415, Note_on_c, 0, 70, 0
2, 29496, Note_on_c, 0, 79, 64
2, 29496, Note_on_c, 0, 75, 64
2, 29519, Note_on_c, 0, 79, 0
2, 29519, Note_on_c, 0, 75, 0
2, 29520, Note_on_c, 0, 77, 64
2, 29520, Note_on_c, 0, 74, 64
2, 29543, Note_on_c, 0, 77, 0
2, 29543, Note_on_c, 0, 74, 0
2, 29544, Note_on_c, 0, 75, 64
2, 29544, Note_on_c, 0, 72, 64
2, 29567, Note_on_c, 0, 75, 0
2, 29567, Note_on_c, 0, 72, 0
2, 29568, Note_on_c, 0, 74, 64
2, 29568, Note_on_c, 0, 70, 64
2, 29607, Note_on_c, 0, 74, 0
2, 29607, Note_on_c, 0, 70, 0
2, 29688, Note_on_c, 0, 79, 64
2, 29688, Note_on_c, 0, 75, 64
2, 29711, Note_on_c, 0, 79, 0
2, 29711, Note_on_c, 0, 75, 0
2, 29712, Note_on_c, 0, 77, 64
2, 29712, Note_on_c, 0, 74, 64
2, 29735, Note_on_c, 0, 77, 0
2, 29735, Note_on_c, 0, 74, 0
2, 29736, Note_on_c, 0, 75, 64
2, 29736, Note_on_c, 0, 72, 64
2, 29759, Note_on_c, 0, 75, 0
2, 29759, Note_on_c, 0, 72, 0
2, 29760, Note_on_c, 0, 74, 64
2, 29760, Note_on_c, 0, 70, 64
2, 29799, Note_on_c, 0, 74, 0
2, 29799, Note_on_c, 0, 70, 0
2, 29880, Note_on_c, 0, 79, 64
2, 29880, Note_on_c, 0, 75, 64
2, 29903, Note_on_c, 0, 79, 0
2, 29903, Note_on_c, 0, 75, 0
2, 29904, Note_on_c, 0, 77, 69
2, 29904, Note_on_c, 0, 74, 69
2, 29927, Note_on_c, 0, 77, 0
2, 29927, Note_on_c, 0, 74, 0
2, 29928, Note_on_c, 0, 75, 74
2, 29928, Note_on_c, 0, 72, 74
2, 29951, Note_on_c, 0, 75, 0
2, 29951, Note_on_c, 0, 72, 0
2, 29952, Note_on_c, 0, 74, 80
2, 29952, Note_on_c, 0, 70, 80
2, 29962, Note_on_c, 0, 74, 0
2, 29962, Note_on_c, 0, 70, 0
2, 29976, Note_on_c, 0, 82, 80
2, 29976, Note_on_c, 0, 77, 80
2, 29999, Note_on_c, 0, 82, 0
2, 29999, Note_on_c, 0, 77, 0
2, 30000, Note_on_c, 0, 81, 80
2, 30000, Note_on_c, 0, 75, 80
2, 30023, Note_on_c, 0, 81, 0
2, 30023, Note_on_c, 0, 75, 0
2, 30024, Note_on_c, 0, 79, 80
2, 30024, Note_on_c, 0, 74, 80
2, 30047, Note_on_c, 0, 79, 0
2, 30047, Note_on_c, 0, 74, 0
2, 30048, Note_on_c, 0, 77, 80
2, 30048, Note_on_c, 0, 72, 80
2, 30071, Note_on_c, 0, 77, 0
2, 30071, Note_on_c, 0, 72, 0
2, 30072, Note_on_c, 0, 75, 80
2, 30095, Note_on_c, 0, 75, 0
2, 30096, Note_on_c, 0, 74, 80
2, 30119, Note_on_c, 0, 74, 0
2, 30120, Note_on_c, 0, 72, 80
2, 30143, Note_on_c, 0, 72, 0
2, 30144, Note_on_c, 0, 71, 96
2, 30240, Note_on_c, 0, 71, 0
2, 30240, Note_on_c, 0, 72, 70
2, 30260, Note_on_c, 0, 72, 0
2, 30336, Note_on_c, 0, 69, 96
2, 30336, Note_on_c, 0, 65, 96
2, 30432, Note_on_c, 0, 69, 0
2, 30432, Note_on_c, 0, 70, 70
2, 30452, Note_on_c, 0, 70, 0
2, 30452, Note_on_c, 0, 65, 0
2, 30720, Note_on_c, 0, 67, 64
2, 30720, Note_on_c, 0, 55, 64
2, 30912, Note_on_c, 0, 67, 0
2, 30912, Note_on_c, 0, 55, 0
2, 30912, Note_on_c, 0, 66, 70
2, 30912, Note_on_c, 0, 54, 70
2, 31089, Note_on_c, 0, 66, 0
2, 31089, Note_on_c, 0, 54, 0
2, 31104, Control_c, 0, 64, 127
2, 31104, Note_on_c, 0, 65, 80
2, 31104, Note_on_c, 0, 53, 80
2, 31124, Note_on_c, 0, 65, 0
2, 31124, Note_on_c, 0, 53, 0
2, 31152, Note_on_c, 0, 77, 80
2, 31152, Note_on_c, 0, 74, 80
2, 31152, Note_on_c, 0, 70, 80
2, 31152, Note_on_c, 0, 65, 80
2, 31197, Note_on_c, 0, 77, 0
2, 31197, Note_on_c, 0, 74, 0
2, 31197, Note_on_c, 0, 70, 0
2, 31197, Note_on_c, 0, 65, 0
2, 31200, Note_on_c, 0, 82, 80
2, 31200, Note_on_c, 0, 77, 80
2, 31200, Note_on_c, 0, 74, 80
2, 31245, Note_on_c, 0, 82, 0
2, 31245, Note_on_c, 0, 77, 0
2, 31245, Note_on_c, 0, 74, 0
2, 31248, Note_on_c, 0, 86, 80
2, 31248, Note_on_c, 0, 82, 80
2, 31248, Note_on_c, 0, 77, 80
2, 31293, Note_on_c, 0, 86, 0
2, 31293, Note_on_c, 0, 82, 0
2, 31293, Note_on_c, 0, 77, 0
2, 31296, Note_on_c, 0, 89, 80
2, 31296, Note_on_c, 0, 86, 80
2, 31296, Note_on_c, 0, 82, 80
2, 31296, Note_on_c, 0, 77, 80
2, 31341, Note_on_c, 0, 89, 0
2, 31341, Note_on_c, 0, 86, 0
2, 31341, Note_on_c, 0, 82, 0
2, 31341, Note_on_c, 0, 77, 0
2, 31344, Control_c, 0, 64, 0
2, 31392, Note_on_c, 0, 81, 80
2, 31392, Note_on_c, 0, 77, 80
2, 31392, Note_on_c, 0, 75, 80
2, 31392, Note_on_c, 0, 72, 80
2, 31437, Note_on_c, 0, 81, 0
2, 31437, Note_on_c, 0, 77, 0
2, 31437, Note_on_c, 0, 75, 0
2, 31437, Note_on_c, 0, 72, 0
2, 31488, Note_on_c, 0, 82, 80
2, 31500, Note_on_c, 0, 82, 0
2, 31500, Note_on_c, 0, 86, 80
2, 31512, Note_on_c, 0, 86, 0
2, 31512, Note_on_c, 0, 84, 80
2, 31524, Note_on_c, 0, 84, 0
2, 31524, Note_on_c, 0, 82, 80
2, 31536, Note_on_c, 0, 82, 0
2, 31536, Note_on_c, 0, 81, 80
2, 31548, Note_on_c, 0, 81, 0
2, 31548, Note_on_c, 0, 79, 80
2, 31560, Note_on_c, 0, 79, 0
2, 31560, Note_on_c, 0, 77, 80
2, 31572, Note_on_c, 0, 77, 0
2, 31572, Note_on_c, 0, 76, 80
2, 31584, Note_on_c, 0, 76, 0
2, 31584, Note_on_c, 0, 75, 80
2, 31596, Note_on_c, 0, 75, 0
2, 31596, Note_on_c, 0, 79, 78
2, 31608, Note_on_c, 0, 79, 0
2, 31608, Note_on_c, 0, 77, 77
2, 31620, Note_on_c, 0, 77, 0
2, 31620, Note_on_c, 0, 75, 76
2, 31632, Note_on_c, 0, 75, 0
2, 31632, Note_on_c, 0, 74, 75
2, 31644, Note_on_c, 0, 74, 0
2, 31644, Note_on_c, 0, 72, 73
2, 31656, Note_on_c, 0, 72, 0
2, 31656, Note_on_c, 0, 70, 72
2, 31668, Note_on_c, 0, 70, 0
2, 31668, Note_on_c, 0, 69, 71
2, 31680, Note_on_c, 0, 69, 0
2, 31680, Note_on_c, 0, 70, 70
2, 31692, Note_on_c, 0, 70, 0
2, 31692, Note_on_c, 0, 74, 70
2, 31704, Note_on_c, 0, 74, 0
2, 31704, Note_on_c, 0, 72, 70
2, 31716, Note_on_c, 0, 72, 0
2, 31716, Note_on_c, 0, 70, 70
2, 31728, Note_on_c, 0, 70, 0
2, 31728, Note_on_c, 0, 69, 70
2, 31740, Note_on_c, 0, 69, 0
2, 31740, Note_on_c, 0, 67, 70
2, 31752, Note_on_c, 0, 67, 0
2, 31752, Note_on_c, 0, 65, 70
2, 31764, Note_on_c, 0, 65, 0
2, 31764, Note_on_c, 0, 64, 70
2, 31776, Note_on_c, 0, 64, 0
2, 31776, Note_on_c, 0, 63, 70
2, 31788, Note_on_c, 0, 63, 0
2, 31788, Note_on_c, 0, 67, 70
2, 31800, Note_on_c, 0, 67, 0
2, 31800, Note_on_c, 0, 65, 70
2, 31812, Note_on_c, 0, 65, 0
2, 31812, Note_on_c, 0, 63, 70
2, 31824, Note_on_c, 0, 63, 0
2, 31824, Note_on_c, 0, 62, 70
2, 31836, Note_on_c, 0, 62, 0
2, 31836, Note_on_c, 0, 60, 70
2, 31848, Note_on_c, 0, 60, 0
2, 31848, Note_on_c, 0, 58, 70
2, 31860, Note_on_c, 0, 58, 0
2, 31860, Note_on_c, 0, 57, 70
2, 31872, Note_on_c, 0, 57, 0
2, 31872, Note_on_c, 0, 58, 70
2, 31884, Note_on_c, 0, 58, 0
2, 31884, Note_on_c, 0, 57, 70
2, 31896, Note_on_c, 0, 57, 0
2, 31896, Note_on_c, 0, 58, 70
2, 31908, Note_on_c, 0, 58, 0
2, 31908, Note_on_c, 0, 53, 70
2, 31920, Note_on_c, 0, 53, 0
2, 31920, Note_on_c, 0, 62, 70
2, 31932, Note_on_c, 0, 62, 0
2, 31932, Note_on_c, 0, 61, 70
2, 31944, Note_on_c, 0, 61, 0
2, 31944, Note_on_c, 0, 62, 70
2, 31956, Note_on_c, 0, 62, 0
2, 31956, Note_on_c, 0, 58, 71
2, 31968, Note_on_c, 0, 58, 0
2, 31968, Note_on_c, 0, 65, 71
2, 31980, Note_on_c, 0, 65, 0
2, 31980, Note_on_c, 0, 64, 71
2, 31992, Note_on_c, 0, 64, 0
2, 31992, Note_on_c, 0, 65, 72
2, 32004, Note_on_c, 0, 65, 0
2, 32004, Note_on_c, 0, 62, 72
2, 32016, Note_on_c, 0, 62, 0
2, 32016, Note_on_c, 0, 70, 72
2, 32028, Note_on_c, 0, 70, 0
2, 32028, Note_on_c, 0, 69, 73
2, 32040, Note_on_c, 0, 69, 0
2, 32040, Note_on_c, 0, 70, 73
2, 32052, Note_on_c, 0, 70, 0
2, 32052, Note_on_c, 0, 65, 73
2, 32064, Note_on_c, 0, 65, 0
2, 32064, Note_on_c, 0, 74, 74
2, 32076, Note_on_c, 0, 74, 0
2, 32076, Note_on_c, 0, 73, 74
2, 32088, Note_on_c, 0, 73, 0
2, 32088, Note_on_c, 0, 74, 74
2, 32100, Note_on_c, 0, 74, 0
2, 32100, Note_on_c, 0, 70, 75
2, 32112, Note_on_c, 0, 70, 0
2, 32112, Note_on_c, 0, 77, 75
2, 32124, Note_on_c, 0, 77, 0
2, 32124, Note_on_c, 0, 76, 75
2, 32136, Note_on_c, 0, 76, 0
2, 32136, Note_on_c, 0, 77, 76
2, 32148, Note_on_c, 0, 77, 0
2, 32148, Note_on_c, 0, 74, 76
2, 32160, Note_on_c, 0, 74, 0
2, 32160, Note_on_c, 0, 82, 76
2, 32172, Note_on_c, 0, 82, 0
2, 32172, Note_on_c, 0, 81, 77
2, 32184, Note_on_c, 0, 81, 0
2, 32184, Note_on_c, 0, 82, 77
2, 32196, Note_on_c, 0, 82, 0
2, 32196, Note_on_c, 0, 77, 77
2, 32208, Note_on_c, 0, 77, 0
2, 32208, Note_on_c, 0, 84, 78
2, 32220, Note_on_c, 0, 84, 0
2, 32220, Note_on_c, 0, 83, 78
2, 32232, Note_on_c, 0, 83, 0
2, 32232, Note_on_c, 0, 84, 78
2, 32244, Note_on_c, 0, 84, 0
2, 32244, Note_on_c, 0, 77, 79
2, 32256, Note_on_c, 0, 77, 0
2, 32256, Note_on_c, 0, 82, 79
2, 32268, Note_on_c, 0, 82, 0
2, 32268, Note_on_c, 0, 81, 80
2, 32280, Note_on_c, 0, 81, 0
2, 32280, Note_on_c, 0, 82, 80
2, 32292, Note_on_c, 0, 82, 0
2, 32292, Note_on_c, 0, 77, 80
2, 32304, Note_on_c, 0, 77, 0
2, 32304, Note_on_c, 0, 84, 80
2, 32316, Note_on_c, 0, 84, 0
2, 32316, Note_on_c, 0, 83, 80
2, 32328, Note_on_c, 0, 83, 0
2, 32328, Note_on_c, 0, 84, 80
2, 32340, Note_on_c, 0, 84, 0
2, 32340, Note_on_c, 0, 77, 80
2, 32352, Note_on_c, 0, 77, 0
2, 32352, Note_on_c, 0, 82, 80
2, 32364, Note_on_c, 0, 82, 0
2, 32364, Note_on_c, 0, 81, 80
2, 32376, Note_on_c, 0, 81, 0
2, 32376, Note_on_c, 0, 82, 80
2, 32388, Note_on_c, 0, 82, 0
2, 32388, Note_on_c, 0, 77, 80
2, 32400, Note_on_c, 0, 77, 0
2, 32400, Note_on_c, 0, 84, 80
2, 32412, Note_on_c, 0, 84, 0
2, 32412, Note_on_c, 0, 83, 80
2, 32424, Note_on_c, 0, 83, 0
2, 32424, Note_on_c, 0, 84, 80
2, 32436, Note_on_c, 0, 84, 0
2, 32436, Note_on_c, 0, 77, 80
2, 32448, Note_on_c, 0, 77, 0
2, 32448, Control_c, 0, 64, 127
2, 32448, Note_on_c, 0, 82, 80
2, 32493, Note_on_c, 0, 82, 0
2, 32496, Note_on_c, 0, 86, 76
2, 32496, Note_on_c, 0, 82, 76
2, 32541, Note_on_c, 0, 86, 0
2, 32541, Note_on_c, 0, 82, 0
2, 32544, Note_on_c, 0, 89, 73
2, 32544, Note_on_c, 0, 86, 73
2, 32589, Note_on_c, 0, 89, 0
2, 32589, Note_on_c, 0, 86, 0
2, 32592, Note_on_c, 0, 86, 70
2, 32592, Note_on_c, 0, 82, 70
2, 32637, Note_on_c, 0, 86, 0
2, 32637, Note_on_c, 0, 82, 0
2, 32640, Note_on_c, 0, 89, 67
2, 32640, Note_on_c, 0, 86, 67
2, 32685, Note_on_c, 0, 89, 0
2, 32685, Note_on_c, 0, 86, 0
2, 32688, Control_c, 0, 64, 0
2, 32736, Note_on_c, 0, 86, 64
2, 32736, Note_on_c, 0, 82, 64
2, 32781, Note_on_c, 0, 86, 0
2, 32781, Note_on_c, 0, 82, 0
2, 32832, Note_on_c, 0, 82, 64
2, 32832, Note_on_c, 0, 77, 64
2, 32877, Note_on_c, 0, 82, 0
2, 32877, Note_on_c, 0, 77, 0
2, 33024, Note_on_c, 0, 65, 64
2, 33024, Note_on_c, 0, 62, 64
2, 33216, Note_on_c, 0, 65, 0
2, 33216, Note_on_c, 0, 62, 0
2, 33216, Note_on_c, 0, 66, 66
2, 33216, Note_on_c, 0, 60, 66
2, 33393, Note_on_c, 0, 66, 0
2, 33393, Note_on_c, 0, 60, 0
2, 33408, Note_on_c, 0, 67, 69
2, 33408, Note_on_c, 0, 59, 69
2, 33762, Note_on_c, 0, 67, 0
2, 33762, Note_on_c, 0, 59, 0
2, 33876, Note_on_c, 0, 79, 70
2, 33888, Note_on_c, 0, 79, 0
2, 33888, Note_on_c, 0, 76, 70
2, 33898, Note_on_c, 0, 76, 0
2, 33924, Note_on_c, 0, 79, 70
2, 33936, Note_on_c, 0, 79, 0
2, 33936, Note_on_c, 0, 74, 70
2, 33946, Note_on_c, 0, 74, 0
2, 33972, Note_on_c, 0, 79, 70
2, 33984, Note_on_c, 0, 79, 0
2, 33984, Note_on_c, 0, 72, 70
2, 33994, Note_on_c, 0, 72, 0
2, 34020, Note_on_c, 0, 79, 68
2, 34032, Note_on_c, 0, 79, 0
2, 34032, Note_on_c, 0, 67, 67
2, 34042, Note_on_c, 0, 67, 0
2, 34068, Note_on_c, 0, 79, 65
2, 34080, Note_on_c, 0, 79, 0
2, 34080, Note_on_c, 0, 76, 65
2, 34090, Note_on_c, 0, 76, 0
2, 34116, Note_on_c, 0, 79, 64
2, 34128, Note_on_c, 0, 79, 0
2, 34128, Note_on_c, 0, 74, 64
2, 34138, Note_on_c, 0, 74, 0
2, 34164, Note_on_c, 0, 79, 64
2, 34176, Note_on_c, 0, 79, 0
2, 34176, Note_on_c, 0, 72, 64
2, 34186, Note_on_c, 0, 72, 0
2, 34212, Note_on_c, 0, 79, 70
2, 34224, Note_on_c, 0, 79, 0
2, 34224, Note_on_c, 0, 67, 71
2, 34234, Note_on_c, 0, 67, 0
2, 34260, Note_on_c, 0, 84, 75
2, 34272, Note_on_c, 0, 84, 0
2, 34272, Note_on_c, 0, 79, 75
2, 34282, Note_on_c, 0, 79, 0
2, 34308, Note_on_c, 0, 84, 75
2, 34320, Note_on_c, 0, 84, 0
2, 34320, Note_on_c, 0, 81, 75
2, 34330, Note_on_c, 0, 81, 0
2, 34356, Note_on_c, 0, 84, 75
2, 34368, Note_on_c, 0, 84, 0
2, 34368, Note_on_c, 0, 82, 75
2, 34378, Note_on_c, 0, 82, 0
2, 34404, Note_on_c, 0, 84, 75
2, 34416, Note_on_c, 0, 84, 0
2, 34416, Note_on_c, 0, 81, 75
2, 34426, Note_on_c, 0, 81, 0
2, 34452, Note_on_c, 0, 84, 75
2, 34464, Note_on_c, 0, 84, 0
2, 34464, Note_on_c, 0, 79, 75
2, 34474, Note_on_c, 0, 79, 0
2, 34500, Note_on_c, 0, 84, 76
2, 34512, Note_on_c, 0, 84, 0
2, 34512, Note_on_c, 0, 76, 77
2, 34522, Note_on_c, 0, 76, 0
2, 34548, Note_on_c, 0, 84, 78
2, 34560, Note_on_c, 0, 84, 0
2, 34560, Note_on_c, 0, 77, 79
2, 34572, Note_on_c, 0, 77, 0
2, 34572, Note_on_c, 0, 84, 80
2, 34584, Note_on_c, 0, 84, 0
2, 34584, Note_on_c, 0, 86, 80
2, 34596, Note_on_c, 0, 86, 0
2, 34596, Note_on_c, 0, 84, 80
2, 34608, Note_on_c, 0, 84, 0
2, 34608, Note_on_c, 0, 82, 80
2, 34620, Note_on_c, 0, 82, 0
2, 34620, Note_on_c, 0, 81, 80
2, 34632, Note_on_c, 0, 81, 0
2, 34632, Note_on_c, 0, 79, 80
2, 34644, Note_on_c, 0, 79, 0
2, 34644, Note_on_c, 0, 77, 80
2, 34656, Note_on_c, 0, 77, 0
2, 34656, Note_on_c, 0, 76, 80
2, 34668, Note_on_c, 0, 76, 0
2, 34668, Note_on_c, 0, 79, 80
2, 34680, Note_on_c, 0, 79, 0
2, 34680, Note_on_c, 0, 82, 80
2, 34692, Note_on_c, 0, 82, 0
2, 34692, Note_on_c, 0, 86, 80
2, 34704, Note_on_c, 0, 86, 0
2, 34704, Note_on_c, 0, 84, 80
2, 34716, Note_on_c, 0, 84, 0
2, 34716, Note_on_c, 0, 82, 80
2, 34728, Note_on_c, 0, 82, 0
2, 34728, Note_on_c, 0, 81, 80
2, 34740, Note_on_c, 0, 81, 0
2, 34740, Note_on_c, 0, 79, 80
2, 34752, Note_on_c, 0, 79, 0
2, 34752, Note_on_c, 0, 77, 80
2, 34764, Note_on_c, 0, 77, 0
2, 34764, Note_on_c, 0, 76, 80
2, 34776, Note_on_c, 0, 76, 0
2, 34776, Note_on_c, 0, 77, 80
2, 34788, Note_on_c, 0, 77, 0
2, 34788, Note_on_c, 0, 79, 80
2, 34800, Note_on_c, 0, 79, 0
2, 34800, Note_on_c, 0, 81, 80
2, 34812, Note_on_c, 0, 81, 0
2, 34812, Note_on_c, 0, 77, 80
2, 34824, Note_on_c, 0, 77, 0
2, 34824, Note_on_c, 0, 76, 80
2, 34836, Note_on_c, 0, 76, 0
2, 34836, Note_on_c, 0, 74, 80
2, 34848, Note_on_c, 0, 74, 0
2, 34848, Note_on_c, 0, 73, 80
2, 34860, Note_on_c, 0, 73, 0
2, 34860, Note_on_c, 0, 76, 80
2, 34872, Note_on_c, 0, 76, 0
2, 34872, Note_on_c, 0, 79, 80
2, 34884, Note_on_c, 0, 79, 0
2, 34884, Note_on_c, 0, 82, 80
2, 34896, Note_on_c, 0, 82, 0
2, 34896, Note_on_c, 0, 81, 80
2, 34908, Note_on_c, 0, 81, 0
2, 34908, Note_on_c, 0, 79, 80
2, 34920, Note_on_c, 0, 79, 0
2, 34920, Note_on_c, 0, 77, 80
2, 34932, Note_on_c, 0, 77, 0
2, 34932, Note_on_c, 0, 76, 80
2, 34944, Note_on_c, 0, 76, 0
2, 34944, Note_on_c, 0, 74, 80
2, 34956, Note_on_c, 0, 74, 0
2, 34956, Note_on_c, 0, 76, 80
2, 34968, Note_on_c, 0, 76, 0
2, 34968, Note_on_c, 0, 77, 80
2, 34980, Note_on_c, 0, 77, 0
2, 34980, Note_on_c, 0, 79, 80
2, 34992, Note_on_c, 0, 79, 0
2, 34992, Note_on_c, 0, 77, 80
2, 35004, Note_on_c, 0, 77, 0
2, 35004, Note_on_c, 0, 74, 80
2, 35016, Note_on_c, 0, 74, 0
2, 35016, Note_on_c, 0, 72, 80
2, 35028, Note_on_c, 0, 72, 0
2, 35028, Note_on_c, 0, 70, 80
2, 35040, Note_on_c, 0, 70, 0
2, 35040, Note_on_c, 0, 69, 80
2, 35052, Note_on_c, 0, 69, 0
2, 35052, Note_on_c, 0, 72, 80
2, 35064, Note_on_c, 0, 72, 0
2, 35064, Note_on_c, 0, 75, 80
2, 35076, Note_on_c, 0, 75, 0
2, 35076, Note_on_c, 0, 79, 80
2, 35088, Note_on_c, 0, 79, 0
2, 35088, Note_on_c, 0, 77, 80
2, 35100, Note_on_c, 0, 77, 0
2, 35100, Note_on_c, 0, 75, 80
2, 35112, Note_on_c, 0, 75, 0
2, 35112, Note_on_c, 0, 74, 80
2, 35124, Note_on_c, 0, 74, 0
2, 35124, Note_on_c, 0, 72, 80
2, 35136, Note_on_c, 0, 72, 0
2, 35136, Note_on_c, 0, 70, 80
2, 35148, Note_on_c, 0, 70, 0
2, 35148, Note_on_c, 0, 69, 80
2, 35160, Note_on_c, 0, 69, 0
2, 35160, Note_on_c, 0, 70, 80
2, 35172, Note_on_c, 0, 70, 0
2, 35172, Note_on_c, 0, 72, 80
2, 35184, Note_on_c, 0, 72, 0
2, 35184, Note_on_c, 0, 74, 80
2, 35196, Note_on_c, 0, 74, 0
2, 35196, Note_on_c, 0, 70, 80
2, 35208, Note_on_c, 0, 70, 0
2, 35208, Note_on_c, 0, 69, 80
2, 35220, Note_on_c, 0, 69, 0
2, 35220, Note_on_c, 0, 67, 80
2, 35232, Note_on_c, 0, 67, 0
2, 35232, Note_on_c, 0, 66, 80
2, 35244, Note_on_c, 0, 66, 0
2, 35244, Note_on_c, 0, 69, 80
2, 35256, Note_on_c, 0, 69, 0
2, 35256, Note_on_c, 0, 72, 80
2, 35268, Note_on_c, 0, 72, 0
2, 35268, Note_on_c, 0, 75, 80
2, 35280, Note_on_c, 0, 75, 0
2, 35280, Note_on_c, 0, 74, 80
2, 35292, Note_on_c, 0, 74, 0
2, 35292, Note_on_c, 0, 72, 80
2, 35304, Note_on_c, 0, 72, 0
2, 35304, Note_on_c, 0, 70, 80
2, 35316, Note_on_c, 0, 70, 0
2, 35316, Note_on_c, 0, 69, 80
2, 35328, Note_on_c, 0, 69, 0
2, 35328, Note_on_c, 0, 67, 80
2, 35373, Note_on_c, 0, 67, 0
2, 35376, Note_on_c, 0, 82, 96
2, 35376, Note_on_c, 0, 70, 96
2, 35472, Note_on_c, 0, 82, 0
2, 35472, Note_on_c, 0, 70, 0
2, 35472, Note_on_c, 0, 81, 80
2, 35472, Note_on_c, 0, 69, 80
2, 35517, Note_on_c, 0, 81, 0
2, 35517, Note_on_c, 0, 69, 0
2, 35520, Note_on_c, 0, 79, 80
2, 35520, Note_on_c, 0, 67, 80
2, 35565, Note_on_c, 0, 79, 0
2, 35565, Note_on_c, 0, 67, 0
2, 35568, Note_on_c, 0, 75, 80
2, 35568, Note_on_c, 0, 63, 80
2, 35613, Note_on_c, 0, 75, 0
2, 35613, Note_on_c, 0, 63, 0
2, 35616, Note_on_c, 0, 74, 78
2, 35616, Note_on_c, 0, 62, 78
2, 35661, Note_on_c, 0, 74, 0
2, 35661, Note_on_c, 0, 62, 0
2, 35664, Note_on_c, 0, 73, 77
2, 35664, Note_on_c, 0, 61, 77
2, 35709, Note_on_c, 0, 73, 0
2, 35709, Note_on_c, 0, 61, 0
2, 35712, Note_on_c, 0, 74, 75
2, 35712, Note_on_c, 0, 62, 75
2, 35735, Note_on_c, 0, 74, 0
2, 35735, Note_on_c, 0, 62, 0
2, 35736, Note_on_c, 0, 86, 75
2, 35759, Note_on_c, 0, 86, 0
2, 35760, Note_on_c, 0, 85, 75
2, 35783, Note_on_c, 0, 85, 0
2, 35784, Note_on_c, 0, 88, 75
2, 35807, Note_on_c, 0, 88, 0
2, 35808, Note_on_c, 0, 86, 75
2, 35831, Note_on_c, 0, 86, 0
2, 35832, Note_on_c, 0, 82, 75
2, 35855, Note_on_c, 0, 82, 0
2, 35856, Note_on_c, 0, 81, 75
2, 35879, Note_on_c, 0, 81, 0
2, 35880, Note_on_c, 0, 84, 75
2, 35903, Note_on_c, 0, 84, 0
2, 35904, Note_on_c, 0, 82, 75
2, 35927, Note_on_c, 0, 82, 0
2, 35928, Note_on_c, 0, 79, 75
2, 35951, Note_on_c, 0, 79, 0
2, 35952, Note_on_c, 0, 78, 75
2, 35975, Note_on_c, 0, 78, 0
2, 35976, Note_on_c, 0, 81, 75
2, 35999, Note_on_c, 0, 81, 0
2, 36000, Note_on_c, 0, 79, 75
2, 36023, Note_on_c, 0, 79, 0
2, 36024, Note_on_c, 0, 75, 75
2, 36047, Note_on_c, 0, 75, 0
2, 36048, Note_on_c, 0, 74, 75
2, 36071, Note_on_c, 0, 74, 0
2, 36072, Note_on_c, 0, 73, 75
2, 36095, Note_on_c, 0, 73, 0
2, 36096, Note_on_c, 0, 74, 75
2, 36119, Note_on_c, 0, 74, 0
2, 36120, Note_on_c, 0, 86, 75
2, 36143, Note_on_c, 0, 86, 0
2, 36144, Note_on_c, 0, 85, 75
2, 36167, Note_on_c, 0, 85, 0
2, 36168, Note_on_c, 0, 88, 75
2, 36191, Note_on_c, 0, 88, 0
2, 36192, Note_on_c, 0, 86, 75
2, 36215, Note_on_c, 0, 86, 0
2, 36216, Note_on_c, 0, 82, 76
2, 36239, Note_on_c, 0, 82, 0
2, 36240, Note_on_c, 0, 81, 76
2, 36263, Note_on_c, 0, 81, 0
2, 36264, Note_on_c, 0, 84, 76
2, 36287, Note_on_c, 0, 84, 0
2, 36288, Note_on_c, 0, 82, 77
2, 36311, Note_on_c, 0, 82, 0
2, 36312, Note_on_c, 0, 79, 77
2, 36335, Note_on_c, 0, 79, 0
2, 36336, Note_on_c, 0, 78, 77
2, 36359, Note_on_c, 0, 78, 0
2, 36360, Note_on_c, 0, 81, 78
2, 36383, Note_on_c, 0, 81, 0
2, 36384, Note_on_c, 0, 79, 78
2, 36407, Note_on_c, 0, 79, 0
2, 36408, Note_on_c, 0, 87, 78
2, 36431, Note_on_c, 0, 87, 0
2, 36432, Note_on_c, 0, 86, 79
2, 36455, Note_on_c, 0, 86, 0
2, 36456, Note_on_c, 0, 84, 79
2, 36479, Note_on_c, 0, 84, 0
2, 36480, Note_on_c, 0, 82, 79
2, 36503, Note_on_c, 0, 82, 0
2, 36504, Note_on_c, 0, 79, 80
2, 36527, Note_on_c, 0, 79, 0
2, 36528, Note_on_c, 0, 78, 80
2, 36551, Note_on_c, 0, 78, 0
2, 36552, Note_on_c, 0, 81, 80
2, 36575, Note_on_c, 0, 81, 0
2, 36576, Note_on_c, 0, 79, 80
2, 36599, Note_on_c, 0, 79, 0
2, 36600, Note_on_c, 0, 87, 80
2, 36623, Note_on_c, 0, 87, 0
2, 36624, Note_on_c, 0, 86, 80
2, 36647, Note_on_c, 0, 86, 0
2, 36648, Note_on_c, 0, 84, 80
2, 36671, Note_on_c, 0, 84, 0
2, 36672, Note_on_c, 0, 82, 80
2, 36695, Note_on_c, 0, 82, 0
2, 36696, Note_on_c, 0, 79, 80
2, 36719, Note_on_c, 0, 79, 0
2, 36720, Note_on_c, 0, 78, 80
2, 36743, Note_on_c, 0, 78, 0
2, 36744, Note_on_c, 0, 81, 80
2, 36767, Note_on_c, 0, 81, 0
2, 36768, Note_on_c, 0, 79, 80
2, 36791, Note_on_c, 0, 79, 0
2, 36792, Note_on_c, 0, 82, 80
2, 36815, Note_on_c, 0, 82, 0
2, 36816, Note_on_c, 0, 76, 80
2, 36839, Note_on_c, 0, 76, 0
2, 36840, Note_on_c, 0, 79, 80
2, 36863, Note_on_c, 0, 79, 0
2, 36864, Note_on_c, 0, 77, 80
2, 36887, Note_on_c, 0, 77, 0
2, 36888, Note_on_c, 0, 80, 79
2, 36911, Note_on_c, 0, 80, 0
2, 36912, Note_on_c, 0, 74, 79
2, 36935, Note_on_c, 0, 74, 0
2, 36936, Note_on_c, 0, 77, 79
2, 36959, Note_on_c, 0, 77, 0
2, 36960, Note_on_c, 0, 75, 78
2, 36983, Note_on_c, 0, 75, 0
2, 36984, Note_on_c, 0, 79, 78
2, 37007, Note_on_c, 0, 79, 0
2, 37008, Note_on_c, 0, 72, 78
2, 37031, Note_on_c, 0, 72, 0
2, 37032, Note_on_c, 0, 75, 77
2, 37055, Note_on_c, 0, 75, 0
2, 37056, Note_on_c, 0, 74, 77
2, 37079, Note_on_c, 0, 74, 0
2, 37080, Note_on_c, 0, 77, 77
2, 37103, Note_on_c, 0, 77, 0
2, 37104, Note_on_c, 0, 71, 77
2, 37127, Note_on_c, 0, 71, 0
2, 37128, Note_on_c, 0, 74, 76
2, 37151, Note_on_c, 0, 74, 0
2, 37152, Note_on_c, 0, 72, 76
2, 37175, Note_on_c, 0, 72, 0
2, 37176, Note_on_c, 0, 80, 76
2, 37199, Note_on_c, 0, 80, 0
2, 37200, Note_on_c, 0, 79, 75
2, 37223, Note_on_c, 0, 79, 0
2, 37224, Note_on_c, 0, 77, 75
2, 37247, Note_on_c, 0, 77, 0
2, 37248, Note_on_c, 0, 75, 75
2, 37271, Note_on_c, 0, 75, 0
2, 37272, Note_on_c, 0, 72, 75
2, 37295, Note_on_c, 0, 72, 0
2, 37296, Note_on_c, 0, 71, 75
2, 37319, Note_on_c, 0, 71, 0
2, 37320, Note_on_c, 0, 74, 75
2, 37343, Note_on_c, 0, 74, 0
2, 37344, Note_on_c, 0, 72, 75
2, 37367, Note_on_c, 0, 72, 0
2, 37368, Note_on_c, 0, 80, 75
2, 37391, Note_on_c, 0, 80, 0
2, 37392, Note_on_c, 0, 79, 75
2, 37415, Note_on_c, 0, 79, 0
2, 37416, Note_on_c, 0, 77, 75
2, 37439, Note_on_c, 0, 77, 0
2, 37440, Note_on_c, 0, 75, 75
2, 37463, Note_on_c, 0, 75, 0
2, 37464, Note_on_c, 0, 72, 75
2, 37487, Note_on_c, 0, 72, 0
2, 37488, Note_on_c, 0, 71, 75
2, 37511, Note_on_c, 0, 71, 0
2, 37512, Note_on_c, 0, 74, 75
2, 37535, Note_on_c, 0, 74, 0
2, 37536, Note_on_c, 0, 72, 75
2, 37559, Note_on_c, 0, 72, 0
2, 37560, Note_on_c, 0, 79, 75
2, 37583, Note_on_c, 0, 79, 0
2, 37584, Note_on_c, 0, 71, 76
2, 37607, Note_on_c, 0, 71, 0
2, 37608, Note_on_c, 0, 74, 77
2, 37631, Note_on_c, 0, 74, 0
2, 37632, Note_on_c, 0, 72, 77
2, 37655, Note_on_c, 0, 72, 0
2, 37656, Note_on_c, 0, 79, 78
2, 37679, Note_on_c, 0, 79, 0
2, 37680, Note_on_c, 0, 71, 79
2, 37703, Note_on_c, 0, 71, 0
2, 37704, Note_on_c, 0, 74, 80
2, 37727, Note_on_c, 0, 74, 0
2, 37728, Note_on_c, 0, 72, 75
2, 37751, Note_on_c, 0, 72, 0
2, 37752, Note_on_c, 0, 79, 74
2, 37775, Note_on_c, 0, 79, 0
2, 37776, Note_on_c, 0, 71, 73
2, 37799, Note_on_c, 0, 71, 0
2, 37800, Note_on_c, 0, 74, 72
2, 37823, Note_on_c, 0, 74, 0
2, 37824, Note_on_c, 0, 72, 71
2, 37848, Note_on_c, 0, 72, 0
2, 37848, Note_on_c, 0, 79, 70
2, 37871, Note_on_c, 0, 79, 0
2, 37872, Note_on_c, 0, 72, 69
2, 37896, Note_on_c, 0, 72, 0
2, 37896, Note_on_c, 0, 79, 68
2, 37919, Note_on_c, 0, 79, 0
2, 37920, Note_on_c, 0, 72, 67
2, 37944, Note_on_c, 0, 72, 0
2, 37944, Note_on_c, 0, 79, 66
2, 37967, Note_on_c, 0, 79, 0
2, 37968, Note_on_c, 0, 72, 65
2, 37992, Note_on_c, 0, 72, 0
2, 37992, Note_on_c, 0, 79, 64
2, 38015, Note_on_c, 0, 79, 0
2, 38016, Note_on_c, 0, 72, 64
2, 38039, Note_on_c, 0, 72, 0
2, 38040, Note_on_c, 0, 84, 66
2, 38040, Note_on_c, 0, 79, 66
2, 38063, Note_on_c, 0, 84, 0
2, 38063, Note_on_c, 0, 79, 0
2, 38064, Note_on_c, 0, 72, 68
2, 38087, Note_on_c, 0, 72, 0
2, 38088, Note_on_c, 0, 84, 70
2, 38088, Note_on_c, 0, 79, 70
2, 38111, Note_on_c, 0, 84, 0
2, 38111, Note_on_c, 0, 79, 0
2, 38112, Note_on_c, 0, 72, 72
2, 38135, Note_on_c, 0, 72, 0
2, 38136, Note_on_c, 0, 84, 74
2, 38136, Note_on_c, 0, 79, 74
2, 38159, Note_on_c, 0, 84, 0
2, 38159, Note_on_c, 0, 79, 0
2, 38160, Note_on_c, 0, 72, 76
2, 38183, Note_on_c, 0, 72, 0
2, 38184, Note_on_c, 0, 84, 78
2, 38184, Note_on_c, 0, 79, 78
2, 38207, Note_on_c, 0, 84, 0
2, 38207, Note_on_c, 0, 79, 0
2, 38208, Note_on_c, 0, 79, 93
2, 38275, Note_on_c, 0, 79, 0
2, 38280, Note_on_c, 0, 80, 80
2, 38292, Note_on_c, 0, 80, 0
2, 38292, Note_on_c, 0, 79, 80
2, 38304, Note_on_c, 0, 79, 0
2, 38304, Note_on_c, 0, 77, 80
2, 38349, Note_on_c, 0, 77, 0
2, 38352, Note_on_c, 0, 77, 80
2, 38397, Note_on_c, 0, 77, 0
2, 38400, Note_on_c, 0, 77, 93
2, 38467, Note_on_c, 0, 77, 0
2, 38472, Note_on_c, 0, 79, 80
2, 38484, Note_on_c, 0, 79, 0
2, 38484, Note_on_c, 0, 77, 80
2, 38496, Note_on_c, 0, 77, 0
2, 38496, Note_on_c, 0, 76, 80
2, 38541, Note_on_c, 0, 76, 0
2, 38544, Note_on_c, 0, 76, 76
2, 38589, Note_on_c, 0, 76, 0
2, 38592, Note_on_c, 0, 80, 72
2, 38615, Note_on_c, 0, 80, 0
2, 38616, Note_on_c, 0, 72, 70
2, 38639, Note_on_c, 0, 72, 0
2, 38640, Note_on_c, 0, 80, 68
2, 38663, Note_on_c, 0, 80, 0
2, 38664, Note_on_c, 0, 72, 66
2, 38687, Note_on_c, 0, 72, 0
2, 38688, Note_on_c, 0, 80, 64
2, 38711, Note_on_c, 0, 80, 0
2, 38712, Note_on_c, 0, 73, 64
2, 38735, Note_on_c, 0, 73, 0
2, 38736, Note_on_c, 0, 80, 64
2, 38759, Note_on_c, 0, 80, 0
2, 38760, Note_on_c, 0, 73, 64
2, 38783, Note_on_c, 0, 73, 0
2, 38784, Note_on_c, 0, 79, 64
2, 38807, Note_on_c, 0, 79, 0
2, 38808, Note_on_c, 0, 73, 64
2, 38831, Note_on_c, 0, 73, 0
2, 38832, Note_on_c, 0, 79, 64
2, 38855, Note_on_c, 0, 79, 0
2, 38856, Note_on_c, 0, 73, 64
2, 38879, Note_on_c, 0, 73, 0
2, 38880, Note_on_c, 0, 79, 64
2, 38903, Note_on_c, 0, 79, 0
2, 38904, Note_on_c, 0, 72, 64
2, 38927, Note_on_c, 0, 72, 0
2, 38928, Note_on_c, 0, 79, 64
2, 38951, Note_on_c, 0, 79, 0
2, 38952, Note_on_c, 0, 72, 64
2, 38975, Note_on_c, 0, 72, 0
2, 38976, Note_on_c, 0, 77, 64
2, 38999, Note_on_c, 0, 77, 0
2, 39000, Note_on_c, 0, 72, 64
2, 39023, Note_on_c, 0, 72, 0
2, 39024, Note_on_c, 0, 77, 64
2, 39047, Note_on_c, 0, 77, 0
2, 39048, Note_on_c, 0, 72, 64
2, 39071, Note_on_c, 0, 72, 0
2, 39072, Note_on_c, 0, 77, 64
2, 39095, Note_on_c, 0, 77, 0
2, 39096, Note_on_c, 0, 70, 64
2, 39119, Note_on_c, 0, 70, 0
2, 39120, Note_on_c, 0, 77, 64
2, 39143, Note_on_c, 0, 77, 0
2, 39144, Note_on_c, 0, 70, 64
2, 39167, Note_on_c, 0, 70, 0
2, 39168, Note_on_c, 0, 75, 64
2, 39191, Note_on_c, 0, 75, 0
2, 39192, Note_on_c, 0, 70, 64
2, 39215, Note_on_c, 0, 70, 0
2, 39216, Note_on_c, 0, 75, 64
2, 39239, Note_on_c, 0, 75, 0
2, 39240, Note_on_c, 0, 70, 64
2, 39263, Note_on_c, 0, 70, 0
2, 39264, Note_on_c, 0, 75, 64
2, 39287, Note_on_c, 0, 75, 0
2, 39288, Note_on_c, 0, 68, 64
2, 39311, Note_on_c, 0, 68, 0
2, 39312, Note_on_c, 0, 75, 64
2, 39335, Note_on_c, 0, 75, 0
2, 39336, Note_on_c, 0, 68, 64
2, 39359, Note_on_c, 0, 68, 0
2, 39360, Note_on_c, 0, 73, 64
2, 39383, Note_on_c, 0, 73, 0
2, 39384, Note_on_c, 0, 68, 64
2, 39407, Note_on_c, 0, 68, 0
2, 39408, Note_on_c, 0, 73, 64
2, 39431, Note_on_c, 0, 73, 0
2, 39432, Note_on_c, 0, 68, 64
2, 39455, Note_on_c, 0, 68, 0
2, 39456, Note_on_c, 0, 73, 64
2, 39479, Note_on_c, 0, 73, 0
2, 39480, Note_on_c, 0, 67, 66
2, 39503, Note_on_c, 0, 67, 0
2, 39504, Note_on_c, 0, 73, 69
2, 39527, Note_on_c, 0, 73, 0
2, 39528, Note_on_c, 0, 67, 72
2, 39551, Note_on_c, 0, 67, 0
2, 39552, Note_on_c, 0, 72, 80
2, 39564, Note_on_c, 0, 72, 0
2, 39564, Note_on_c, 0, 75, 80
2, 39576, Note_on_c, 0, 75, 0
2, 39576, Note_on_c, 0, 77, 80
2, 39588, Note_on_c, 0, 77, 0
2, 39588, Note_on_c, 0, 75, 80
2, 39600, Note_on_c, 0, 75, 0
2, 39600, Note_on_c, 0, 73, 80
2, 39612, Note_on_c, 0, 73, 0
2, 39612, Note_on_c, 0, 72, 80
2, 39624, Note_on_c, 0, 72, 0
2, 39624, Note_on_c, 0, 70, 80
2, 39636, Note_on_c, 0, 70, 0
2, 39636, Note_on_c, 0, 68, 80
2, 39648, Note_on_c, 0, 68, 0
2, 39648, Note_on_c, 0, 67, 80
2, 39660, Note_on_c, 0, 67, 0
2, 39660, Note_on_c, 0, 77, 80
2, 39672, Note_on_c, 0, 77, 0
2, 39672, Note_on_c, 0, 75, 80
2, 39684, Note_on_c, 0, 75, 0
2, 39684, Note_on_c, 0, 73, 80
2, 39696, Note_on_c, 0, 73, 0
2, 39696, Note_on_c, 0, 72, 80
2, 39708, Note_on_c, 0, 72, 0
2, 39708, Note_on_c, 0, 70, 80
2, 39720, Note_on_c, 0, 70, 0
2, 39720, Note_on_c, 0, 68, 80
2, 39732, Note_on_c, 0, 68, 0
2, 39732, Note_on_c, 0, 67, 80
2, 39744, Note_on_c, 0, 67, 0
2, 39744, Note_on_c, 0, 68, 80
2, 39756, Note_on_c, 0, 68, 0
2, 39756, Note_on_c, 0, 70, 80
2, 39768, Note_on_c, 0, 70, 0
2, 39768, Note_on_c, 0, 72, 81
2, 39780, Note_on_c, 0, 72, 0
2, 39780, Note_on_c, 0, 73, 81
2, 39792, Note_on_c, 0, 73, 0
2, 39792, Note_on_c, 0, 75, 82
2, 39804, Note_on_c, 0, 75, 0
2, 39804, Note_on_c, 0, 77, 83
2, 39816, Note_on_c, 0, 77, 0
2, 39816, Note_on_c, 0, 79, 83
2, 39828, Note_on_c, 0, 79, 0
2, 39828, Note_on_c, 0, 80, 84
2, 39840, Note_on_c, 0, 80, 0
2, 39840, Note_on_c, 0, 82, 84
2, 39852, Note_on_c, 0, 82, 0
2, 39852, Note_on_c, 0, 84, 85
2, 39864, Note_on_c, 0, 84, 0
2, 39864, Note_on_c, 0, 82, 86
2, 39876, Note_on_c, 0, 82, 0
2, 39876, Note_on_c, 0, 80, 85
2, 39888, Note_on_c, 0, 80, 0
2, 39888, Note_on_c, 0, 79, 84
2, 39900, Note_on_c, 0, 79, 0
2, 39900, Note_on_c, 0, 77, 83
2, 39912, Note_on_c, 0, 77, 0
2, 39912, Note_on_c, 0, 75, 82
2, 39924, Note_on_c, 0, 75, 0
2, 39924, Note_on_c, 0, 73, 81
2, 39936, Note_on_c, 0, 73, 0
2, 39936, Note_on_c, 0, 72, 70
2, 39948, Note_on_c, 0, 72, 0
2, 39948, Note_on_c, 0, 75, 70
2, 39960, Note_on_c, 0, 75, 0
2, 39960, Note_on_c, 0, 77, 70
2, 39972, Note_on_c, 0, 77, 0
2, 39972, Note_on_c, 0, 75, 70
2, 39984, Note_on_c, 0, 75, 0
2, 39984, Note_on_c, 0, 73, 70
2, 39996, Note_on_c, 0, 73, 0
2, 39996, Note_on_c, 0, 72, 70
2, 40008, Note_on_c, 0, 72, 0
2, 40008, Note_on_c, 0, 70, 70
2, 40020, Note_on_c, 0, 70, 0
2, 40020, Note_on_c, 0, 68, 70
2, 40032, Note_on_c, 0, 68, 0
2, 40032, Note_on_c, 0, 67, 70
2, 40044, Note_on_c, 0, 67, 0
2, 40044, Note_on_c, 0, 77, 70
2, 40056, Note_on_c, 0, 77, 0
2, 40056, Note_on_c, 0, 75, 70
2, 40068, Note_on_c, 0, 75, 0
2, 40068, Note_on_c, 0, 73, 70
2, 40080, Note_on_c, 0, 73, 0
2, 40080, Note_on_c, 0, 72, 70
2, 40092, Note_on_c, 0, 72, 0
2, 40092, Note_on_c, 0, 70, 70
2, 40104, Note_on_c, 0, 70, 0
2, 40104, Note_on_c, 0, 68, 70
2, 40116, Note_on_c, 0, 68, 0
2, 40116, Note_on_c, 0, 67, 70
2, 40128, Note_on_c, 0, 67, 0
2, 40128, Note_on_c, 0, 68, 70
2, 40140, Note_on_c, 0, 68, 0
2, 40140, Note_on_c, 0, 70, 70
2, 40152, Note_on_c, 0, 70, 0
2, 40152, Note_on_c, 0, 72, 71
2, 40164, Note_on_c, 0, 72, 0
2, 40164, Note_on_c, 0, 73, 71
2, 40176, Note_on_c, 0, 73, 0
2, 40176, Note_on_c, 0, 75, 72
2, 40188, Note_on_c, 0, 75, 0
2, 40188, Note_on_c, 0, 77, 72
2, 40200, Note_on_c, 0, 77, 0
2, 40200, Note_on_c, 0, 79, 73
2, 40212, Note_on_c, 0, 79, 0
2, 40212, Note_on_c, 0, 80, 73
2, 40224, Note_on_c, 0, 80, 0
2, 40224, Note_on_c, 0, 82, 74
2, 40236, Note_on_c, 0, 82, 0
2, 40236, Note_on_c, 0, 84, 74
2, 40248, Note_on_c, 0, 84, 0
2, 40248, Note_on_c, 0, 82, 75
2, 40260, Note_on_c, 0, 82, 0
2, 40260, Note_on_c, 0, 80, 73
2, 40272, Note_on_c, 0, 80, 0
2, 40272, Note_on_c, 0, 79, 71
2, 40284, Note_on_c, 0, 79, 0
2, 40284, Note_on_c, 0, 77, 69
2, 40296, Note_on_c, 0, 77, 0
2, 40296, Note_on_c, 0, 75, 67
2, 40308, Note_on_c, 0, 75, 0
2, 40308, Note_on_c, 0, 73, 65
2, 40320, Note_on_c, 0, 73, 0
2, 40320, Note_on_c, 0, 72, 64
2, 40332, Note_on_c, 0, 72, 0
2, 40332, Note_on_c, 0, 73, 64
2, 40344, Note_on_c, 0, 73, 0
2, 40344, Note_on_c, 0, 75, 64
2, 40356, Note_on_c, 0, 75, 0
2, 40356, Note_on_c, 0, 73, 64
2, 40368, Note_on_c, 0, 73, 0
2, 40368, Note_on_c, 0, 72, 64
2, 40380, Note_on_c, 0, 72, 0
2, 40380, Note_on_c, 0, 73, 64
2, 40392, Note_on_c, 0, 73, 0
2, 40392, Note_on_c, 0, 75, 64
2, 40404, Note_on_c, 0, 75, 0
2, 40404, Note_on_c, 0, 73, 64
2, 40416, Note_on_c, 0, 73, 0
2, 40416, Note_on_c, 0, 72, 64
2, 40428, Note_on_c, 0, 72, 0
2, 40428, Note_on_c, 0, 73, 64
2, 40440, Note_on_c, 0, 73, 0
2, 40440, Note_on_c, 0, 75, 64
2, 40452, Note_on_c, 0, 75, 0
2, 40452, Note_on_c, 0, 73, 64
2, 40464, Note_on_c, 0, 73, 0
2, 40464, Note_on_c, 0, 72, 64
2, 40476, Note_on_c, 0, 72, 0
2, 40476, Note_on_c, 0, 73, 64
2, 40488, Note_on_c, 0, 73, 0
2, 40488, Note_on_c, 0, 75, 65
2, 40500, Note_on_c, 0, 75, 0
2, 40500, Note_on_c, 0, 73, 66
2, 40512, Note_on_c, 0, 73, 0
2, 40512, Note_on_c, 0, 72, 66
2, 40524, Note_on_c, 0, 72, 0
2, 40524, Note_on_c, 0, 73, 67
2, 40536, Note_on_c, 0, 73, 0
2, 40536, Note_on_c, 0, 75, 68
2, 40548, Note_on_c, 0, 75, 0
2, 40548, Note_on_c, 0, 73, 69
2, 40560, Note_on_c, 0, 73, 0
2, 40560, Note_on_c, 0, 72, 69
2, 40572, Note_on_c, 0, 72, 0
2, 40572, Note_on_c, 0, 73, 70
2, 40584, Note_on_c, 0, 73, 0
2, 40584, Note_on_c, 0, 75, 71
2, 40596, Note_on_c, 0, 75, 0
2, 40596, Note_on_c, 0, 73, 72
2, 40608, Note_on_c, 0, 73, 0
2, 40608, Note_on_c, 0, 72, 72
2, 40620, Note_on_c, 0, 72, 0
2, 40620, Note_on_c, 0, 73, 73
2, 40632, Note_on_c, 0, 73, 0
2, 40632, Note_on_c, 0, 75, 74
2, 40644, Note_on_c, 0, 75, 0
2, 40644, Note_on_c, 0, 73, 74
2, 40656, Note_on_c, 0, 73, 0
2, 40656, Note_on_c, 0, 72, 75
2, 40668, Note_on_c, 0, 72, 0
2, 40668, Note_on_c, 0, 73, 76
2, 40680, Note_on_c, 0, 73, 0
2, 40680, Note_on_c, 0, 75, 77
2, 40692, Note_on_c, 0, 75, 0
2, 40692, Note_on_c, 0, 73, 77
2, 40704, Note_on_c, 0, 73, 0
2, 40704, Note_on_c, 0, 72, 78
2, 40716, Note_on_c, 0, 72, 0
2, 40716, Note_on_c, 0, 74, 79
2, 40728, Note_on_c, 0, 74, 0
2, 40728, Note_on_c, 0, 75, 80
2, 40740, Note_on_c, 0, 75, 0
2, 40740, Note_on_c, 0, 74, 80
2, 40752, Note_on_c, 0, 74, 0
2, 40752, Note_on_c, 0, 72, 80
2, 40764, Note_on_c, 0, 72, 0
2, 40764, Note_on_c, 0, 74, 80
2, 40776, Note_on_c, 0, 74, 0
2, 40776, Note_on_c, 0, 75, 80
2, 40788, Note_on_c, 0, 75, 0
2, 40788, Note_on_c, 0, 74, 80
2, 40800, Note_on_c, 0, 74, 0
2, 40800, Note_on_c, 0, 72, 80
2, 40812, Note_on_c, 0, 72, 0
2, 40812, Note_on_c, 0, 74, 80
2, 40824, Note_on_c, 0, 74, 0
2, 40824, Note_on_c, 0, 75, 80
2, 40836, Note_on_c, 0, 75, 0
2, 40836, Note_on_c, 0, 74, 80
2, 40848, Note_on_c, 0, 74, 0
2, 40848, Note_on_c, 0, 72, 80
2, 40860, Note_on_c, 0, 72, 0
2, 40860, Note_on_c, 0, 75, 80
2, 40872, Note_on_c, 0, 75, 0
2, 40872, Note_on_c, 0, 74, 80
2, 40884, Note_on_c, 0, 74, 0
2, 40884, Note_on_c, 0, 72, 80
2, 40896, Note_on_c, 0, 72, 0
2, 40896, Note_on_c, 0, 71, 80
2, 40908, Note_on_c, 0, 71, 0
2, 40908, Note_on_c, 0, 67, 80
2, 40920, Note_on_c, 0, 67, 0
2, 40920, Note_on_c, 0, 71, 80
2, 40932, Note_on_c, 0, 71, 0
2, 40932, Note_on_c, 0, 74, 80
2, 40944, Note_on_c, 0, 74, 0
2, 40944, Note_on_c, 0, 79, 80
2, 40956, Note_on_c, 0, 79, 0
2, 40956, Note_on_c, 0, 74, 80
2, 40968, Note_on_c, 0, 74, 0
2, 40968, Note_on_c, 0, 71, 80
2, 40980, Note_on_c, 0, 71, 0
2, 40980, Note_on_c, 0, 67, 80
2, 40992, Note_on_c, 0, 67, 0
2, 40992, Note_on_c, 0, 66, 80
2, 41004, Note_on_c, 0, 66, 0
2, 41004, Note_on_c, 0, 67, 80
2, 41016, Note_on_c, 0, 67, 0
2, 41016, Note_on_c, 0, 72, 80
2, 41028, Note_on_c, 0, 72, 0
2, 41028, Note_on_c, 0, 75, 80
2, 41040, Note_on_c, 0, 75, 0
2, 41040, Note_on_c, 0, 79, 80
2, 41052, Note_on_c, 0, 79, 0
2, 41052, Note_on_c, 0, 75, 80
2, 41064, Note_on_c, 0, 75, 0
2, 41064, Note_on_c, 0, 72, 80
2, 41076, Note_on_c, 0, 72, 0
2, 41076, Note_on_c, 0, 67, 80
2, 41088, Note_on_c, 0, 67, 0
2, 41088, Note_on_c, 0, 66, 80
2, 41100, Note_on_c, 0, 66, 0
2, 41100, Note_on_c, 0, 67, 80
2, 41112, Note_on_c, 0, 67, 0
2, 41112, Note_on_c, 0, 71, 80
2, 41124, Note_on_c, 0, 71, 0
2, 41124, Note_on_c, 0, 74, 80
2, 41136, Note_on_c, 0, 74, 0
2, 41136, Note_on_c, 0, 79, 80
2, 41148, Note_on_c, 0, 79, 0
2, 41148, Note_on_c, 0, 74, 80
2, 41160, Note_on_c, 0, 74, 0
2, 41160, Note_on_c, 0, 71, 80
2, 41172, Note_on_c, 0, 71, 0
2, 41172, Note_on_c, 0, 67, 80
2, 41184, Note_on_c, 0, 67, 0
2, 41184, Note_on_c, 0, 66, 80
2, 41196, Note_on_c, 0, 66, 0
2, 41196, Note_on_c, 0, 67, 80
2, 41208, Note_on_c, 0, 67, 0
2, 41208, Note_on_c, 0, 72, 80
2, 41220, Note_on_c, 0, 72, 0
2, 41220, Note_on_c, 0, 75, 80
2, 41232, Note_on_c, 0, 75, 0
2, 41232, Note_on_c, 0, 79, 80
2, 41244, Note_on_c, 0, 79, 0
2, 41244, Note_on_c, 0, 75, 80
2, 41256, Note_on_c, 0, 75, 0
2, 41256, Note_on_c, 0, 72, 80
2, 41268, Note_on_c, 0, 72, 0
2, 41268, Note_on_c, 0, 67, 80
2, 41280, Note_on_c, 0, 67, 0
2, 41280, Note_on_c, 0, 79, 80
2, 41325, Note_on_c, 0, 79, 0
2, 41376, Note_on_c, 0, 67, 80
2, 41382, Note_on_c, 0, 72, 80
2, 41388, Note_on_c, 0, 75, 80
2, 41394, Note_on_c, 0, 79, 80
2, 41447, Note_on_c, 0, 79, 0
2, 41447, Note_on_c, 0, 75, 0
2, 41447, Note_on_c, 0, 72, 0
2, 41447, Note_on_c, 0, 67, 0
2, 41472, Note_on_c, 0, 67, 80
2, 41478, Note_on_c, 0, 71, 80
2, 41484, Note_on_c, 0, 74, 80
2, 41490, Note_on_c, 0, 79, 80
2, 41543, Note_on_c, 0, 79, 0
2, 41543, Note_on_c, 0, 74, 0
2, 41543, Note_on_c, 0, 71, 0
2, 41543, Note_on_c, 0, 67, 0
2, 41568, Note_on_c, 0, 67, 80
2, 41574, Note_on_c, 0, 72, 80
2, 41580, Note_on_c, 0, 75, 80
2, 41586, Note_on_c, 0, 79, 80
2, 41639, Note_on_c, 0, 79, 0
2, 41639, Note_on_c, 0, 75, 0
2, 41639, Note_on_c, 0, 72, 0
2, 41639, Note_on_c, 0, 67, 0
2, 41664, Note_on_c, 0, 79, 80
2, 41664, Note_on_c, 0, 74, 80
2, 41664, Note_on_c, 0, 71, 80
2, 41664, Note_on_c, 0, 67, 80
2, 41709, Note_on_c, 0, 79, 0
2, 41709, Note_on_c, 0, 74, 0
2, 41709, Note_on_c, 0, 71, 0
2, 41709, Note_on_c, 0, 67, 0
2, 41760, Note_on_c, 0, 83, 80
2, 41760, Note_on_c, 0, 79, 80
2, 41760, Note_on_c, 0, 74, 80
2, 41805, Note_on_c, 0, 83, 0
2, 41805, Note_on_c, 0, 79, 0
2, 41805, Note_on_c, 0, 74, 0
2, 41856, Note_on_c, 0, 55, 80
2, 41856, Note_on_c, 0, 50, 80
2, 41856, Note_on_c, 0, 47, 80
2, 42210, Note_on_c, 0, 55, 0
2, 42210, Note_on_c, 0, 50, 0
2, 42210, Note_on_c, 0, 47, 0
2, 42324, Note_on_c, 0, 83, 64
2, 42336, Note_on_c, 0, 83, 0
2, 42336, Note_on_c, 0, 80, 64
2, 42346, Note_on_c, 0, 80, 0
2, 42372, Note_on_c, 0, 83, 64
2, 42384, Note_on_c, 0, 83, 0
2, 42384, Note_on_c, 0, 78, 64
2, 42394, Note_on_c, 0, 78, 0
2, 42420, Note_on_c, 0, 83, 64
2, 42432, Note_on_c, 0, 83, 0
2, 42432, Note_on_c, 0, 76, 64
2, 42442, Note_on_c, 0, 76, 0
2, 42468, Note_on_c, 0, 83, 64
2, 42480, Note_on_c, 0, 83, 0
2, 42480, Note_on_c, 0, 71, 64
2, 42490, Note_on_c, 0, 71, 0
2, 42516, Note_on_c, 0, 83, 58
2, 42528, Note_on_c, 0, 83, 0
2, 42528, Note_on_c, 0, 80, 58
2, 42538, Note_on_c, 0, 80, 0
2, 42564, Note_on_c, 0, 83, 58
2, 42576, Note_on_c, 0, 83, 0
2, 42576, Note_on_c, 0, 78, 58
2, 42586, Note_on_c, 0, 78, 0
2, 42612, Note_on_c, 0, 83, 58
2, 42624, Note_on_c, 0, 83, 0
2, 42624, Note_on_c, 0, 76, 58
2, 42634, Note_on_c, 0, 76, 0
2, 42660, Note_on_c, 0, 83, 58
2, 42672, Note_on_c, 0, 83, 0
2, 42672, Note_on_c, 0, 71, 58
2, 42682, Note_on_c, 0, 71, 0
2, 42708, Note_on_c, 0, 88, 64
2, 42720, Note_on_c, 0, 88, 0
2, 42720, Note_on_c, 0, 83, 64
2, 42730, Note_on_c, 0, 83, 0
2, 42756, Note_on_c, 0, 88, 64
2, 42768, Note_on_c, 0, 88, 0
2, 42768, Note_on_c, 0, 85, 64
2, 42778, Note_on_c, 0, 85, 0
2, 42804, Note_on_c, 0, 88, 64
2, 42816, Note_on_c, 0, 88, 0
2, 42816, Note_on_c, 0, 86, 64
2, 42826, Note_on_c, 0, 86, 0
2, 42852, Note_on_c, 0, 88, 64
2, 42864, Note_on_c, 0, 88, 0
2, 42864, Note_on_c, 0, 85, 64
2, 42874, Note_on_c, 0, 85, 0
2, 42900, Note_on_c, 0, 88, 66
2, 42912, Note_on_c, 0, 88, 0
2, 42912, Note_on_c, 0, 83, 67
2, 42922, Note_on_c, 0, 83, 0
2, 42948, Note_on_c, 0, 88, 69
2, 42960, Note_on_c, 0, 88, 0
2, 42960, Note_on_c, 0, 80, 70
2, 42970, Note_on_c, 0, 80, 0
2, 42996, Note_on_c, 0, 88, 70
2, 43008, Note_on_c, 0, 88, 0
2, 43008, Note_on_c, 0, 81, 70
2, 43018, Note_on_c, 0, 81, 0
2, 43044, Note_on_c, 0, 85, 70
2, 43056, Note_on_c, 0, 85, 0
2, 43056, Note_on_c, 0, 76, 70
2, 43066, Note_on_c, 0, 76, 0
2, 43092, Note_on_c, 0, 76, 70
2, 43104, Note_on_c, 0, 76, 0
2, 43104, Note_on_c, 0, 73, 70
2, 43114, Note_on_c, 0, 73, 0
2, 43140, Note_on_c, 0, 76, 70
2, 43152, Note_on_c, 0, 76, 0
2, 43152, Note_on_c, 0, 71, 70
2, 43162, Note_on_c, 0, 71, 0
2, 43188, Note_on_c, 0, 76, 70
2, 43200, Note_on_c, 0, 76, 0
2, 43200, Note_on_c, 0, 69, 70
2, 43210, Note_on_c, 0, 69, 0
2, 43236, Note_on_c, 0, 76, 70
2, 43248, Note_on_c, 0, 76, 0
2, 43248, Note_on_c, 0, 64, 70
2, 43258, Note_on_c, 0, 64, 0
2, 43284, Note_on_c, 0, 76, 64
2, 43296, Note_on_c, 0, 76, 0
2, 43296, Note_on_c, 0, 73, 64
2, 43306, Note_on_c, 0, 73, 0
2, 43332, Note_on_c, 0, 76, 64
2, 43344, Note_on_c, 0, 76, 0
2, 43344, Note_on_c, 0, 71, 64
2, 43354, Note_on_c, 0, 71, 0
2, 43380, Note_on_c, 0, 76, 64
2, 43392, Note_on_c, 0, 76, 0
2, 43392, Note_on_c, 0, 69, 64
2, 43402, Note_on_c, 0, 69, 0
2, 43428, Note_on_c, 0, 76, 64
2, 43440, Note_on_c, 0, 76, 0
2, 43440, Note_on_c, 0, 64, 64
2, 43450, Note_on_c, 0, 64, 0
2, 43476, Note_on_c, 0, 81, 70
2, 43488, Note_on_c, 0, 81, 0
2, 43488, Note_on_c, 0, 69, 70
2, 43498, Note_on_c, 0, 69, 0
2, 43524, Note_on_c, 0, 85, 70
2, 43536, Note_on_c, 0, 85, 0
2, 43536, Note_on_c, 0, 73, 70
2, 43546, Note_on_c, 0, 73, 0
2, 43572, Note_on_c, 0, 88, 70
2, 43584, Note_on_c, 0, 88, 0
2, 43584, Note_on_c, 0, 79, 70
2, 43594, Note_on_c, 0, 79, 0
2, 43620, Note_on_c, 0, 88, 70
2, 43632, Note_on_c, 0, 88, 0
2, 43632, Note_on_c, 0, 79, 70
2, 43642, Note_on_c, 0, 79, 0
2, 43668, Note_on_c, 0, 87, 70
2, 43680, Note_on_c, 0, 87, 0
2, 43680, Note_on_c, 0, 79, 70
2, 43690, Note_on_c, 0, 79, 0
2, 43716, Note_on_c, 0, 87, 70
2, 43728, Note_on_c, 0, 87, 0
2, 43728, Note_on_c, 0, 79, 70
2, 43738, Note_on_c, 0, 79, 0
2, 43764, Note_on_c, 0, 87, 70
2, 43776, Note_on_c, 0, 87, 0
2, 43776, Note_on_c, 0, 78, 70
2, 43786, Note_on_c, 0, 78, 0
2, 43812, Note_on_c, 0, 88, 71
2, 43824, Note_on_c, 0, 88, 0
2, 43824, Note_on_c, 0, 79, 71
2, 43834, Note_on_c, 0, 79, 0
2, 43860, Note_on_c, 0, 88, 72
2, 43872, Note_on_c, 0, 88, 0
2, 43872, Note_on_c, 0, 78, 73
2, 43882, Note_on_c, 0, 78, 0
2, 43908, Note_on_c, 0, 88, 74
2, 43920, Note_on_c, 0, 88, 0
2, 43920, Note_on_c, 0, 85, 75
2, 43955, Note_on_c, 0, 85, 0
2, 43956, Note_on_c, 0, 88, 76
2, 43968, Note_on_c, 0, 88, 0
2, 43968, Note_on_c, 0, 86, 76
2, 44057, Note_on_c, 0, 86, 0
2, 44064, Note_on_c, 0, 79, 80
2, 44131, Note_on_c, 0, 79, 0
2, 44136, Note_on_c, 0, 81, 80
2, 44148, Note_on_c, 0, 81, 0
2, 44148, Note_on_c, 0, 79, 80
2, 44160, Note_on_c, 0, 79, 0
2, 44160, Note_on_c, 0, 78, 80
2, 44249, Note_on_c, 0, 78, 0
2, 44256, Note_on_c, 0, 77, 80
2, 44345, Note_on_c, 0, 77, 0
2, 44352, Note_on_c, 0, 78, 80
2, 44441, Note_on_c, 0, 78, 0
2, 44448, Note_on_c, 0, 86, 70
2, 44471, Note_on_c, 0, 86, 0
2, 44472, Note_on_c, 0, 79, 70
2, 44495, Note_on_c, 0, 79, 0
2, 44496, Note_on_c, 0, 86, 70
2, 44519, Note_on_c, 0, 86, 0
2, 44520, Note_on_c, 0, 79, 70
2, 44543, Note_on_c, 0, 79, 0
2, 44544, Note_on_c, 0, 85, 70
2, 44567, Note_on_c, 0, 85, 0
2, 44568, Note_on_c, 0, 79, 70
2, 44591, Note_on_c, 0, 79, 0
2, 44592, Note_on_c, 0, 85, 70
2, 44615, Note_on_c, 0, 85, 0
2, 44616, Note_on_c, 0, 79, 70
2, 44639, Note_on_c, 0, 79, 0
2, 44640, Note_on_c, 0, 84, 70
2, 44663, Note_on_c, 0, 84, 0
2, 44664, Note_on_c, 0, 78, 70
2, 44687, Note_on_c, 0, 78, 0
2, 44688, Note_on_c, 0, 84, 70
2, 44711, Note_on_c, 0, 84, 0
2, 44712, Note_on_c, 0, 78, 70
2, 44735, Note_on_c, 0, 78, 0
2, 44736, Note_on_c, 0, 83, 70
2, 44759, Note_on_c, 0, 83, 0
2, 44760, Note_on_c, 0, 78, 70
2, 44783, Note_on_c, 0, 78, 0
2, 44784, Note_on_c, 0, 83, 70
2, 44807, Note_on_c, 0, 83, 0
2, 44808, Note_on_c, 0, 78, 70
2, 44831, Note_on_c, 0, 78, 0
2, 44832, Note_on_c, 0, 83, 70
2, 44855, Note_on_c, 0, 83, 0
2, 44856, Note_on_c, 0, 76, 70
2, 44879, Note_on_c, 0, 76, 0
2, 44880, Note_on_c, 0, 83, 70
2, 44903, Note_on_c, 0, 83, 0
2, 44904, Note_on_c, 0, 76, 70
2, 44927, Note_on_c, 0, 76, 0
2, 44928, Note_on_c, 0, 82, 70
2, 44951, Note_on_c, 0, 82, 0
2, 44952, Note_on_c, 0, 76, 70
2, 44975, Note_on_c, 0, 76, 0
2, 44976, Note_on_c, 0, 82, 70
2, 44999, Note_on_c, 0, 82, 0
2, 45000, Note_on_c, 0, 76, 70
2, 45023, Note_on_c, 0, 76, 0
2, 45024, Note_on_c, 0, 82, 70
2, 45047, Note_on_c, 0, 82, 0
2, 45048, Note_on_c, 0, 76, 70
2, 45071, Note_on_c, 0, 76, 0
2, 45072, Note_on_c, 0, 83, 86
2, 45096, Note_on_c, 0, 83, 0
2, 45096, Note_on_c, 0, 76, 70
2, 45119, Note_on_c, 0, 76, 0
2, 45120, Note_on_c, 0, 82, 70
2, 45143, Note_on_c, 0, 82, 0
2, 45144, Note_on_c, 0, 76, 70
2, 45167, Note_on_c, 0, 76, 0
2, 45168, Note_on_c, 0, 82, 70
2, 45191, Note_on_c, 0, 82, 0
2, 45192, Note_on_c, 0, 76, 70
2, 45215, Note_on_c, 0, 76, 0
2, 45216, Note_on_c, 0, 82, 70
2, 45239, Note_on_c, 0, 82, 0
2, 45240, Note_on_c, 0, 76, 70
2, 45263, Note_on_c, 0, 76, 0
2, 45264, Note_on_c, 0, 83, 86
2, 45288, Note_on_c, 0, 83, 0
2, 45288, Note_on_c, 0, 76, 70
2, 45311, Note_on_c, 0, 76, 0
2, 45312, Note_on_c, 0, 82, 80
2, 45335, Note_on_c, 0, 82, 0
2, 45336, Note_on_c, 0, 76, 78
2, 45359, Note_on_c, 0, 76, 0
2, 45360, Note_on_c, 0, 82, 77
2, 45383, Note_on_c, 0, 82, 0
2, 45384, Note_on_c, 0, 76, 76
2, 45407, Note_on_c, 0, 76, 0
2, 45408, Note_on_c, 0, 82, 75
2, 45431, Note_on_c, 0, 82, 0
2, 45432, Note_on_c, 0, 76, 74
2, 45455, Note_on_c, 0, 76, 0
2, 45456, Note_on_c, 0, 82, 73
2, 45479, Note_on_c, 0, 82, 0
2, 45480, Note_on_c, 0, 76, 72
2, 45503, Note_on_c, 0, 76, 0
2, 45504, Note_on_c, 0, 81, 71
2, 45527, Note_on_c, 0, 81, 0
2, 45528, Note_on_c, 0, 75, 70
2, 45551, Note_on_c, 0, 75, 0
2, 45552, Note_on_c, 0, 81, 70
2, 45575, Note_on_c, 0, 81, 0
2, 45576, Note_on_c, 0, 75, 70
2, 45599, Note_on_c, 0, 75, 0
2, 45600, Note_on_c, 0, 81, 70
2, 45623, Note_on_c, 0, 81, 0
2, 45624, Note_on_c, 0, 75, 70
2, 45647, Note_on_c, 0, 75, 0
2, 45648, Note_on_c, 0, 81, 70
2, 45671, Note_on_c, 0, 81, 0
2, 45672, Note_on_c, 0, 75, 70
2, 45695, Note_on_c, 0, 75, 0
2, 45696, Note_on_c, 0, 80, 70
2, 45719, Note_on_c, 0, 80, 0
2, 45720, Note_on_c, 0, 74, 70
2, 45743, Note_on_c, 0, 74, 0
2, 45744, Note_on_c, 0, 80, 70
2, 45767, Note_on_c, 0, 80, 0
2, 45768, Note_on_c, 0, 74, 70
2, 45791, Note_on_c, 0, 74, 0
2, 45792, Note_on_c, 0, 80, 70
2, 45815, Note_on_c, 0, 80, 0
2, 45816, Note_on_c, 0, 74, 70
2, 45839, Note_on_c, 0, 74, 0
2, 45840, Note_on_c, 0, 80, 86
2, 45864, Note_on_c, 0, 80, 0
2, 45864, Note_on_c, 0, 75, 70
2, 45887, Note_on_c, 0, 75, 0
2, 45888, Note_on_c, 0, 80, 70
2, 45911, Note_on_c, 0, 80, 0
2, 45912, Note_on_c, 0, 74, 70
2, 45935, Note_on_c, 0, 74, 0
2, 45936, Note_on_c, 0, 80, 70
2, 45959, Note_on_c, 0, 80, 0
2, 45960, Note_on_c, 0, 74, 70
2, 45983, Note_on_c, 0, 74, 0
2, 45984, Note_on_c, 0, 80, 70
2, 46007, Note_on_c, 0, 80, 0
2, 46008, Note_on_c, 0, 74, 70
2, 46031, Note_on_c, 0, 74, 0
2, 46032, Note_on_c, 0, 80, 86
2, 46056, Note_on_c, 0, 80, 0
2, 46056, Note_on_c, 0, 75, 70
2, 46079, Note_on_c, 0, 75, 0
2, 46080, Note_on_c, 0, 80, 70
2, 46103, Note_on_c, 0, 80, 0
2, 46104, Note_on_c, 0, 74, 70
2, 46127, Note_on_c, 0, 74, 0
2, 46128, Note_on_c, 0, 77, 71
2, 46151, Note_on_c, 0, 77, 0
2, 46152, Note_on_c, 0, 68, 72
2, 46175, Note_on_c, 0, 68, 0
2, 46176, Note_on_c, 0, 72, 73
2, 46199, Note_on_c, 0, 72, 0
2, 46200, Note_on_c, 0, 65, 73
2, 46223, Note_on_c, 0, 65, 0
2, 46224, Note_on_c, 0, 68, 74
2, 46247, Note_on_c, 0, 68, 0
2, 46248, Note_on_c, 0, 62, 75
2, 46271, Note_on_c, 0, 62, 0
2, 46272, Note_on_c, 0, 65, 76
2, 46295, Note_on_c, 0, 65, 0
2, 46296, Note_on_c, 0, 56, 76
2, 46319, Note_on_c, 0, 56, 0
2, 46320, Note_on_c, 0, 60, 77
2, 46343, Note_on_c, 0, 60, 0
2, 46344, Note_on_c, 0, 53, 78
2, 46367, Note_on_c, 0, 53, 0
2, 46368, Note_on_c, 0, 56, 79
2, 46391, Note_on_c, 0, 56, 0
2, 46464, Note_on_c, 0, 55, 80
2, 46472, Note_on_c, 0, 58, 80
2, 46480, Note_on_c, 0, 63, 80
2, 46557, Note_on_c, 0, 63, 0
2, 46557, Note_on_c, 0, 58, 0
2, 46557, Note_on_c, 0, 55, 0
2, 46560, Note_on_c, 0, 67, 80
2, 46560, Note_on_c, 0, 63, 80
2, 46560, Note_on_c, 0, 61, 80
2, 46627, Note_on_c, 0, 67, 0
2, 46627, Note_on_c, 0, 63, 0
2, 46627, Note_on_c, 0, 61, 0
2, 46632, Note_on_c, 0, 67, 80
2, 46632, Note_on_c, 0, 63, 80
2, 46632, Note_on_c, 0, 61, 80
2, 46655, Note_on_c, 0, 67, 0
2, 46655, Note_on_c, 0, 63, 0
2, 46655, Note_on_c, 0, 61, 0
2, 46656, Note_on_c, 0, 56, 80
2, 46662, Note_on_c, 0, 60, 80
2, 46668, Note_on_c, 0, 63, 80
2, 46674, Note_on_c, 0, 68, 80
2, 46793, Note_on_c, 0, 68, 0
2, 46793, Note_on_c, 0, 63, 0
2, 46793, Note_on_c, 0, 60, 0
2, 46793, Note_on_c, 0, 56, 0
2, 46800, Note_on_c, 0, 68, 80
2, 46812, Note_on_c, 0, 68, 0
2, 46812, Note_on_c, 0, 67, 80
2, 46824, Note_on_c, 0, 67, 0
2, 46824, Note_on_c, 0, 65, 80
2, 46836, Note_on_c, 0, 65, 0
2, 46836, Note_on_c, 0, 63, 80
2, 46848, Note_on_c, 0, 63, 0
2, 46848, Note_on_c, 0, 56, 80
2, 46848, Note_on_c, 0, 58, 80
2, 46848, Note_on_c, 0, 62, 80
2, 46915, Note_on_c, 0, 62, 0
2, 46915, Note_on_c, 0, 58, 0
2, 46915, Note_on_c, 0, 56, 0
2, 46920, Note_on_c, 0, 65, 80
2, 46943, Note_on_c, 0, 65, 0
2, 46944, Note_on_c, 0, 62, 80
2, 46952, Note_on_c, 0, 65, 80
2, 46960, Note_on_c, 0, 70, 80
2, 47015, Note_on_c, 0, 70, 0
2, 47015, Note_on_c, 0, 65, 0
2, 47015, Note_on_c, 0, 62, 0
2, 47016, Note_on_c, 0, 68, 80
2, 47039, Note_on_c, 0, 68, 0
2, 47040, Note_on_c, 0, 58, 80
2, 47048, Note_on_c, 0, 63, 80
2, 47056, Note_on_c, 0, 67, 80
2, 47155, Note_on_c, 0, 67, 0
2, 47155, Note_on_c, 0, 63, 0
2, 47155, Note_on_c, 0, 58, 0
2, 47232, Note_on_c, 0, 74, 64
2, 47299, Note_on_c, 0, 74, 0
2, 47304, Note_on_c, 0, 77, 64
2, 47327, Note_on_c, 0, 77, 0
2, 47328, Note_on_c, 0, 82, 64
2, 47395, Note_on_c, 0, 82, 0
2, 47400, Note_on_c, 0, 80, 64
2, 47423, Note_on_c, 0, 80, 0
2, 47424, Note_on_c, 0, 79, 64
2, 47469, Note_on_c, 0, 79, 0
2, 47544, Note_on_c, 0, 84, 64
2, 47544, Note_on_c, 0, 80, 64
2, 47567, Note_on_c, 0, 84, 0
2, 47567, Note_on_c, 0, 80, 0
2, 47568, Note_on_c, 0, 82, 64
2, 47568, Note_on_c, 0, 79, 64
2, 47591, Note_on_c, 0, 82, 0
2, 47591, Note_on_c, 0, 79, 0
2, 47592, Note_on_c, 0, 80, 64
2, 47592, Note_on_c, 0, 77, 64
2, 47615, Note_on_c, 0, 80, 0
2, 47615, Note_on_c, 0, 77, 0
2, 47616, Note_on_c, 0, 79, 64
2, 47616, Note_on_c, 0, 75, 64
2, 47636, Note_on_c, 0, 79, 0
2, 47636, Note_on_c, 0, 75, 0
2, 47736, Note_on_c, 0, 84, 75
2, 47736, Note_on_c, 0, 80, 75
2, 47759, Note_on_c, 0, 84, 0
2, 47759, Note_on_c, 0, 80, 0
2, 47760, Note_on_c, 0, 82, 75
2, 47760, Note_on_c, 0, 79, 75
2, 47783, Note_on_c, 0, 82, 0
2, 47783, Note_on_c, 0, 79, 0
2, 47784, Note_on_c, 0, 80, 75
2, 47784, Note_on_c, 0, 77, 75
2, 47807, Note_on_c, 0, 80, 0
2, 47807, Note_on_c, 0, 77, 0
2, 47808, Note_on_c, 0, 79, 75
2, 47808, Note_on_c, 0, 75, 75
2, 47828, Note_on_c, 0, 79, 0
2, 47828, Note_on_c, 0, 75, 0
2, 47928, Note_on_c, 0, 84, 80
2, 47928, Note_on_c, 0, 80, 80
2, 47951, Note_on_c, 0, 84, 0
2, 47951, Note_on_c, 0, 80, 0
2, 47952, Note_on_c, 0, 82, 80
2, 47952, Note_on_c, 0, 79, 80
2, 47975, Note_on_c, 0, 82, 0
2, 47975, Note_on_c, 0, 79, 0
2, 47976, Note_on_c, 0, 80, 80
2, 47976, Note_on_c, 0, 77, 80
2, 47999, Note_on_c, 0, 80, 0
2, 47999, Note_on_c, 0, 77, 0
2, 48000, Note_on_c, 0, 79, 80
2, 48000, Note_on_c, 0, 75, 80
2, 48010, Note_on_c, 0, 79, 0
2, 48010, Note_on_c, 0, 75, 0
2, 48024, Note_on_c, 0, 84, 80
2, 48024, Note_on_c, 0, 80, 80
2, 48047, Note_on_c, 0, 84, 0
2, 48047, Note_on_c, 0, 80, 0
2, 48048, Note_on_c, 0, 82, 80
2, 48048, Note_on_c, 0, 79, 80
2, 48071, Note_on_c, 0, 82, 0
2, 48071, Note_on_c, 0, 79, 0
2, 48072, Note_on_c, 0, 80, 80
2, 48072, Note_on_c, 0, 77, 80
2, 48095, Note_on_c, 0, 80, 0
2, 48095, Note_on_c, 0, 77, 0
2, 48096, Note_on_c, 0, 79, 80
2, 48096, Note_on_c, 0, 75, 80
2, 48106, Note_on_c, 0, 79, 0
2, 48106, Note_on_c, 0, 75, 0
2, 48120, Note_on_c, 0, 82, 78
2, 48120, Note_on_c, 0, 79, 78
2, 48143, Note_on_c, 0, 82, 0
2, 48143, Note_on_c, 0, 79, 0
2, 48144, Note_on_c, 0, 80, 77
2, 48144, Note_on_c, 0, 77, 77
2, 48167, Note_on_c, 0, 80, 0
2, 48167, Note_on_c, 0, 77, 0
2, 48168, Note_on_c, 0, 79, 76
2, 48168, Note_on_c, 0, 75, 76
2, 48191, Note_on_c, 0, 79, 0
2, 48191, Note_on_c, 0, 75, 0
2, 48192, Note_on_c, 0, 77, 74
2, 48192, Note_on_c, 0, 74, 74
2, 48215, Note_on_c, 0, 77, 0
2, 48215, Note_on_c, 0, 74, 0
2, 48216, Note_on_c, 0, 75, 73
2, 48216, Note_on_c, 0, 72, 73
2, 48239, Note_on_c, 0, 75, 0
2, 48239, Note_on_c, 0, 72, 0
2, 48240, Note_on_c, 0, 74, 72
2, 48240, Note_on_c, 0, 70, 72
2, 48263, Note_on_c, 0, 74, 0
2, 48263, Note_on_c, 0, 70, 0
2, 48264, Note_on_c, 0, 72, 70
2, 48264, Note_on_c, 0, 68, 70
2, 48287, Note_on_c, 0, 72, 0
2, 48287, Note_on_c, 0, 68, 0
2, 48288, Note_on_c, 0, 70, 69
2, 48288, Note_on_c, 0, 67, 69
2, 48311, Note_on_c, 0, 70, 0
2, 48311, Note_on_c, 0, 67, 0
2, 48312, Note_on_c, 0, 68, 68
2, 48312, Note_on_c, 0, 65, 68
2, 48335, Note_on_c, 0, 68, 0
2, 48335, Note_on_c, 0, 65, 0
2, 48336, Note_on_c, 0, 67, 66
2, 48336, Note_on_c, 0, 63, 66
2, 48359, Note_on_c, 0, 67, 0
2, 48359, Note_on_c, 0, 63, 0
2, 48360, Note_on_c, 0, 65, 65
2, 48360, Note_on_c, 0, 62, 65
2, 48383, Note_on_c, 0, 65, 0
2, 48383, Note_on_c, 0, 62, 0
2, 48384, Note_on_c, 0, 63, 86
2, 48547, Note_on_c, 0, 63, 0
2, 48552, Note_on_c, 0, 65, 70
2, 48564, Note_on_c, 0, 65, 0
2, 48564, Note_on_c, 0, 63, 70
2, 48576, Note_on_c, 0, 63, 0
2, 48576, Note_on_c, 0, 62, 70
2, 48672, Note_on_c, 0, 62, 0
2, 48672, Note_on_c, 0, 61, 86
2, 48768, Note_on_c, 0, 61, 0
2, 48768, Note_on_c, 0, 60, 86
2, 48931, Note_on_c, 0, 60, 0
2, 48936, Note_on_c, 0, 62, 70
2, 48948, Note_on_c, 0, 62, 0
2, 48948, Note_on_c, 0, 60, 70
2, 48960, Note_on_c, 0, 60, 0
2, 48960, Note_on_c, 0, 58, 86
2, 49032, Note_on_c, 0, 58, 0
2, 49032, Note_on_c, 0, 60, 70
2, 49044, Note_on_c, 0, 60, 0
2, 49044, Note_on_c, 0, 62, 70
2, 49056, Note_on_c, 0, 62, 0
2, 49056, Note_on_c, 0, 63, 70
2, 49123, Note_on_c, 0, 63, 0
2, 49128, Note_on_c, 0, 65, 70
2, 49140, Note_on_c, 0, 65, 0
2, 49140, Note_on_c, 0, 67, 70
2, 49152, Note_on_c, 0, 67, 0
2, 49152, Note_on_c, 0, 68, 86
2, 49248, Note_on_c, 0, 68, 0
2, 49248, Note_on_c, 0, 67, 70
2, 49337, Note_on_c, 0, 67, 0
2, 49344, Note_on_c, 0, 65, 70
2, 49367, Note_on_c, 0, 65, 0
2, 49368, Note_on_c, 0, 70, 70
2, 49391, Note_on_c, 0, 70, 0
2, 49392, Note_on_c, 0, 69, 70
2, 49415, Note_on_c, 0, 69, 0
2, 49416, Note_on_c, 0, 72, 70
2, 49439, Note_on_c, 0, 72, 0
2, 49440, Note_on_c, 0, 70, 70
2, 49463, Note_on_c, 0, 70, 0
2, 49464, Note_on_c, 0, 74, 70
2, 49487, Note_on_c, 0, 74, 0
2, 49488, Note_on_c, 0, 72, 70
2, 49511, Note_on_c, 0, 72, 0
2, 49512, Note_on_c, 0, 75, 70
2, 49535, Note_on_c, 0, 75, 0
2, 49536, Note_on_c, 0, 74, 70
2, 49559, Note_on_c, 0, 74, 0
2, 49560, Note_on_c, 0, 77, 70
2, 49583, Note_on_c, 0, 77, 0
2, 49584, Note_on_c, 0, 76, 70
2, 49607, Note_on_c, 0, 76, 0
2, 49608, Note_on_c, 0, 79, 70
2, 49631, Note_on_c, 0, 79, 0
2, 49632, Note_on_c, 0, 77, 70
2, 49655, Note_on_c, 0, 77, 0
2, 49656, Note_on_c, 0, 80, 71
2, 49679, Note_on_c, 0, 80, 0
2, 49680, Note_on_c, 0, 79, 71
2, 49703, Note_on_c, 0, 79, 0
2, 49704, Note_on_c, 0, 82, 71
2, 49727, Note_on_c, 0, 82, 0
2, 49728, Note_on_c, 0, 80, 71
2, 49751, Note_on_c, 0, 80, 0
2, 49752, Note_on_c, 0, 79, 72
2, 49775, Note_on_c, 0, 79, 0
2, 49776, Note_on_c, 0, 77, 72
2, 49799, Note_on_c, 0, 77, 0
2, 49800, Note_on_c, 0, 75, 72
2, 49823, Note_on_c, 0, 75, 0
2, 49824, Note_on_c, 0, 74, 72
2, 49847, Note_on_c, 0, 74, 0
2, 49848, Note_on_c, 0, 84, 73
2, 49871, Note_on_c, 0, 84, 0
2, 49872, Note_on_c, 0, 82, 73
2, 49895, Note_on_c, 0, 82, 0
2, 49896, Note_on_c, 0, 80, 73
2, 49919, Note_on_c, 0, 80, 0
2, 49920, Note_on_c, 0, 79, 73
2, 49943, Note_on_c, 0, 79, 0
2, 49944, Note_on_c, 0, 80, 74
2, 49967, Note_on_c, 0, 80, 0
2, 49968, Note_on_c, 0, 82, 74
2, 49991, Note_on_c, 0, 82, 0
2, 49992, Note_on_c, 0, 83, 74
2, 50015, Note_on_c, 0, 83, 0
2, 50016, Note_on_c, 0, 84, 74
2, 50039, Note_on_c, 0, 84, 0
2, 50040, Note_on_c, 0, 79, 70
2, 50063, Note_on_c, 0, 79, 0
2, 50064, Note_on_c, 0, 84, 70
2, 50087, Note_on_c, 0, 84, 0
2, 50088, Note_on_c, 0, 79, 70
2, 50111, Note_on_c, 0, 79, 0
2, 50112, Note_on_c, 0, 84, 70
2, 50135, Note_on_c, 0, 84, 0
2, 50136, Note_on_c, 0, 77, 70
2, 50159, Note_on_c, 0, 77, 0
2, 50160, Note_on_c, 0, 84, 70
2, 50183, Note_on_c, 0, 84, 0
2, 50184, Note_on_c, 0, 77, 70
2, 50207, Note_on_c, 0, 77, 0
2, 50208, Note_on_c, 0, 82, 70
2, 50231, Note_on_c, 0, 82, 0
2, 50232, Note_on_c, 0, 77, 70
2, 50255, Note_on_c, 0, 77, 0
2, 50256, Note_on_c, 0, 82, 70
2, 50279, Note_on_c, 0, 82, 0
2, 50280, Note_on_c, 0, 77, 70
2, 50303, Note_on_c, 0, 77, 0
2, 50304, Note_on_c, 0, 82, 70
2, 50327, Note_on_c, 0, 82, 0
2, 50328, Note_on_c, 0, 76, 70
2, 50351, Note_on_c, 0, 76, 0
2, 50352, Note_on_c, 0, 82, 70
2, 50375, Note_on_c, 0, 82, 0
2, 50376, Note_on_c, 0, 76, 70
2, 50399, Note_on_c, 0, 76, 0
2, 50400, Note_on_c, 0, 80, 70
2, 50423, Note_on_c, 0, 80, 0
2, 50424, Note_on_c, 0, 75, 69
2, 50447, Note_on_c, 0, 75, 0
2, 50448, Note_on_c, 0, 80, 69
2, 50471, Note_on_c, 0, 80, 0
2, 50472, Note_on_c, 0, 75, 69
2, 50495, Note_on_c, 0, 75, 0
2, 50496, Note_on_c, 0, 80, 68
2, 50519, Note_on_c, 0, 80, 0
2, 50520, Note_on_c, 0, 74, 68
2, 50543, Note_on_c, 0, 74, 0
2, 50544, Note_on_c, 0, 80, 68
2, 50567, Note_on_c, 0, 80, 0
2, 50568, Note_on_c, 0, 74, 67
2, 50591, Note_on_c, 0, 74, 0
2, 50592, Note_on_c, 0, 79, 67
2, 50615, Note_on_c, 0, 79, 0
2, 50616, Note_on_c, 0, 73, 67
2, 50639, Note_on_c, 0, 73, 0
2, 50640, Note_on_c, 0, 79, 66
2, 50663, Note_on_c, 0, 79, 0
2, 50664, Note_on_c, 0, 73, 66
2, 50687, Note_on_c, 0, 73, 0
2, 50688, Note_on_c, 0, 79, 66
2, 50711, Note_on_c, 0, 79, 0
2, 50712, Note_on_c, 0, 72, 65
2, 50735, Note_on_c, 0, 72, 0
2, 50736, Note_on_c, 0, 79, 65
2, 50759, Note_on_c, 0, 79, 0
2, 50760, Note_on_c, 0, 72, 65
2, 50783, Note_on_c, 0, 72, 0
2, 50784, Note_on_c, 0, 77, 64
2, 50807, Note_on_c, 0, 77, 0
2, 50808, Note_on_c, 0, 72, 64
2, 50831, Note_on_c, 0, 72, 0
2, 50832, Note_on_c, 0, 77, 64
2, 50855, Note_on_c, 0, 77, 0
2, 50856, Note_on_c, 0, 72, 63
2, 50879, Note_on_c, 0, 72, 0
2, 50880, Note_on_c, 0, 77, 63
2, 50903, Note_on_c, 0, 77, 0
2, 50904, Note_on_c, 0, 70, 63
2, 50927, Note_on_c, 0, 70, 0
2, 50928, Note_on_c, 0, 77, 62
2, 50951, Note_on_c, 0, 77, 0
2, 50952, Note_on_c, 0, 70, 62
2, 50975, Note_on_c, 0, 70, 0
2, 50976, Note_on_c, 0, 75, 62
2, 50999, Note_on_c, 0, 75, 0
2, 51000, Note_on_c, 0, 70, 61
2, 51023, Note_on_c, 0, 70, 0
2, 51024, Note_on_c, 0, 75, 61
2, 51047, Note_on_c, 0, 75, 0
2, 51048, Note_on_c, 0, 70, 61
2, 51071, Note_on_c, 0, 70, 0
2, 51072, Note_on_c, 0, 74, 60
2, 51095, Note_on_c, 0, 74, 0
2, 51096, Note_on_c, 0, 70, 60
2, 51119, Note_on_c, 0, 70, 0
2, 51120, Note_on_c, 0, 80, 60
2, 51143, Note_on_c, 0, 80, 0
2, 51144, Note_on_c, 0, 70, 59
2, 51167, Note_on_c, 0, 70, 0
2, 51168, Note_on_c, 0, 79, 59
2, 51191, Note_on_c, 0, 79, 0
2, 51192, Note_on_c, 0, 70, 59
2, 51215, Note_on_c, 0, 70, 0
2, 51216, Note_on_c, 0, 75, 58
2, 51239, Note_on_c, 0, 75, 0
2, 51240, Note_on_c, 0, 70, 58
2, 51263, Note_on_c, 0, 70, 0
2, 51264, Note_on_c, 0, 74, 64
2, 51284, Note_on_c, 0, 74, 0
2, 51312, Note_on_c, 0, 82, 64
2, 51312, Note_on_c, 0, 74, 64
2, 51357, Note_on_c, 0, 82, 0
2, 51357, Note_on_c, 0, 74, 0
2, 51360, Note_on_c, 0, 81, 64
2, 51360, Note_on_c, 0, 75, 64
2, 51405, Note_on_c, 0, 81, 0
2, 51405, Note_on_c, 0, 75, 0
2, 51408, Note_on_c, 0, 78, 64
2, 51408, Note_on_c, 0, 75, 64
2, 51453, Note_on_c, 0, 78, 0
2, 51453, Note_on_c, 0, 75, 0
2, 51456, Note_on_c, 0, 77, 64
2, 51501, Note_on_c, 0, 77, 0
2, 51504, Note_on_c, 0, 82, 64
2, 51504, Note_on_c, 0, 74, 64
2, 51549, Note_on_c, 0, 82, 0
2, 51549, Note_on_c, 0, 74, 0
2, 51552, Note_on_c, 0, 81, 64
2, 51552, Note_on_c, 0, 75, 64
2, 51597, Note_on_c, 0, 81, 0
2, 51597, Note_on_c, 0, 75, 0
2, 51600, Note_on_c, 0, 78, 65
2, 51600, Note_on_c, 0, 75, 65
2, 51645, Note_on_c, 0, 78, 0
2, 51645, Note_on_c, 0, 75, 0
2, 51648, Note_on_c, 0, 77, 66
2, 51648, Note_on_c, 0, 74, 66
2, 51693, Note_on_c, 0, 77, 0
2, 51693, Note_on_c, 0, 74, 0
2, 51696, Note_on_c, 0, 79, 68
2, 51696, Note_on_c, 0, 76, 68
2, 51741, Note_on_c, 0, 79, 0
2, 51741, Note_on_c, 0, 76, 0
2, 51744, Note_on_c, 0, 80, 69
2, 51744, Note_on_c, 0, 77, 69
2, 51789, Note_on_c, 0, 80, 0
2, 51789, Note_on_c, 0, 77, 0
2, 51792, Note_on_c, 0, 79, 71
2, 51792, Note_on_c, 0, 76, 71
2, 51837, Note_on_c, 0, 79, 0
2, 51837, Note_on_c, 0, 76, 0
2, 51840, Note_on_c, 0, 82, 88
2, 51840, Note_on_c, 0, 79, 88
2, 51936, Note_on_c, 0, 82, 0
2, 51936, Note_on_c, 0, 79, 0
2, 51936, Note_on_c, 0, 80, 75
2, 51936, Note_on_c, 0, 77, 75
2, 51981, Note_on_c, 0, 80, 0
2, 51981, Note_on_c, 0, 77, 0
2, 51984, Note_on_c, 0, 77, 77
2, 51984, Note_on_c, 0, 74, 77
2, 52029, Note_on_c, 0, 77, 0
2, 52029, Note_on_c, 0, 74, 0
2, 52032, Note_on_c, 0, 63, 78
2, 52038, Note_on_c, 0, 67, 78
2, 52044, Note_on_c, 0, 70, 78
2, 52050, Note_on_c, 0, 75, 78
2, 52125, Note_on_c, 0, 75, 0
2, 52125, Note_on_c, 0, 70, 0
2, 52125, Note_on_c, 0, 67, 0
2, 52125, Note_on_c, 0, 63, 0
2, 52128, Note_on_c, 0, 70, 80
2, 52131, Note_on_c, 0, 73, 80
2, 52134, Note_on_c, 0, 75, 80
2, 52137, Note_on_c, 0, 79, 80
2, 52197, Note_on_c, 0, 79, 0
2, 52197, Note_on_c, 0, 75, 0
2, 52197, Note_on_c, 0, 73, 0
2, 52197, Note_on_c, 0, 70, 0
2, 52200, Note_on_c, 0, 79, 80
2, 52200, Note_on_c, 0, 75, 80
2, 52200, Note_on_c, 0, 73, 80
2, 52200, Note_on_c, 0, 70, 80
2, 52223, Note_on_c, 0, 79, 0
2, 52223, Note_on_c, 0, 75, 0
2, 52223, Note_on_c, 0, 73, 0
2, 52223, Note_on_c, 0, 70, 0
2, 52224, Note_on_c, 0, 68, 80
2, 52230, Note_on_c, 0, 72, 80
2, 52236, Note_on_c, 0, 75, 80
2, 52242, Note_on_c, 0, 80, 80
2, 52272, Note_on_c, 0, 68, 0
2, 52317, Note_on_c, 0, 80, 0
2, 52317, Note_on_c, 0, 75, 0
2, 52317, Note_on_c, 0, 72, 0
2, 52320, Note_on_c, 0, 80, 80
2, 52332, Note_on_c, 0, 80, 0
2, 52332, Note_on_c, 0, 82, 80
2, 52344, Note_on_c, 0, 82, 0
2, 52344, Note_on_c, 0, 84, 80
2, 52356, Note_on_c, 0, 84, 0
2, 52356, Note_on_c, 0, 82, 80
2, 52368, Note_on_c, 0, 82, 0
2, 52368, Note_on_c, 0, 80, 80
2, 52380, Note_on_c, 0, 80, 0
2, 52380, Note_on_c, 0, 79, 80
2, 52392, Note_on_c, 0, 79, 0
2, 52392, Note_on_c, 0, 77, 80
2, 52404, Note_on_c, 0, 77, 0
2, 52404, Note_on_c, 0, 75, 80
2, 52416, Note_on_c, 0, 75, 0
2, 52416, Note_on_c, 0, 74, 80
2, 52428, Note_on_c, 0, 74, 0
2, 52428, Note_on_c, 0, 75, 80
2, 52440, Note_on_c, 0, 75, 0
2, 52440, Note_on_c, 0, 77, 80
2, 52452, Note_on_c, 0, 77, 0
2, 52452, Note_on_c, 0, 79, 80
2, 52464, Note_on_c, 0, 79, 0
2, 52464, Note_on_c, 0, 80, 80
2, 52476, Note_on_c, 0, 80, 0
2, 52476, Note_on_c, 0, 79, 80
2, 52488, Note_on_c, 0, 79, 0
2, 52488, Note_on_c, 0, 77, 80
2, 52500, Note_on_c, 0, 77, 0
2, 52500, Note_on_c, 0, 75, 80
2, 52512, Note_on_c, 0, 75, 0
2, 52512, Note_on_c, 0, 74, 80
2, 52524, Note_on_c, 0, 74, 0
2, 52524, Note_on_c, 0, 75, 80
2, 52536, Note_on_c, 0, 75, 0
2, 52536, Note_on_c, 0, 77, 80
2, 52548, Note_on_c, 0, 77, 0
2, 52548, Note_on_c, 0, 75, 80
2, 52560, Note_on_c, 0, 75, 0
2, 52560, Note_on_c, 0, 74, 80
2, 52572, Note_on_c, 0, 74, 0
2, 52572, Note_on_c, 0, 72, 80
2, 52584, Note_on_c, 0, 72, 0
2, 52584, Note_on_c, 0, 70, 80
2, 52596, Note_on_c, 0, 70, 0
2, 52596, Note_on_c, 0, 68, 80
2, 52608, Note_on_c, 0, 68, 0
2, 52608, Note_on_c, 0, 67, 80
2, 52620, Note_on_c, 0, 67, 0
2, 52620, Note_on_c, 0, 82, 80
2, 52632, Note_on_c, 0, 82, 0
2, 52632, Note_on_c, 0, 84, 80
2, 52644, Note_on_c, 0, 84, 0
2, 52644, Note_on_c, 0, 82, 80
2, 52656, Note_on_c, 0, 82, 0
2, 52656, Note_on_c, 0, 80, 80
2, 52668, Note_on_c, 0, 80, 0
2, 52668, Note_on_c, 0, 79, 80
2, 52680, Note_on_c, 0, 79, 0
2, 52680, Note_on_c, 0, 77, 80
2, 52692, Note_on_c, 0, 77, 0
2, 52692, Note_on_c, 0, 75, 80
2, 52704, Note_on_c, 0, 75, 0
2, 52704, Note_on_c, 0, 74, 80
2, 52716, Note_on_c, 0, 74, 0
2, 52716, Note_on_c, 0, 84, 80
2, 52728, Note_on_c, 0, 84, 0
2, 52728, Note_on_c, 0, 82, 78
2, 52740, Note_on_c, 0, 82, 0
2, 52740, Note_on_c, 0, 80, 77
2, 52752, Note_on_c, 0, 80, 0
2, 52752, Note_on_c, 0, 79, 76
2, 52764, Note_on_c, 0, 79, 0
2, 52764, Note_on_c, 0, 77, 75
2, 52776, Note_on_c, 0, 77, 0
2, 52776, Note_on_c, 0, 75, 73
2, 52788, Note_on_c, 0, 75, 0
2, 52788, Note_on_c, 0, 74, 72
2, 52800, Note_on_c, 0, 74, 0
2, 52800, Note_on_c, 0, 75, 71
2, 52812, Note_on_c, 0, 75, 0
2, 52812, Note_on_c, 0, 82, 70
2, 52824, Note_on_c, 0, 82, 0
2, 52824, Note_on_c, 0, 84, 70
2, 52836, Note_on_c, 0, 84, 0
2, 52836, Note_on_c, 0, 82, 70
2, 52848, Note_on_c, 0, 82, 0
2, 52848, Note_on_c, 0, 80, 70
2, 52860, Note_on_c, 0, 80, 0
2, 52860, Note_on_c, 0, 79, 70
2, 52872, Note_on_c, 0, 79, 0
2, 52872, Note_on_c, 0, 77, 70
2, 52884, Note_on_c, 0, 77, 0
2, 52884, Note_on_c, 0, 75, 70
2, 52896, Note_on_c, 0, 75, 0
2, 52896, Note_on_c, 0, 74, 70
2, 52908, Note_on_c, 0, 74, 0
2, 52908, Note_on_c, 0, 84, 70
2, 52920, Note_on_c, 0, 84, 0
2, 52920, Note_on_c, 0, 82, 71
2, 52932, Note_on_c, 0, 82, 0
2, 52932, Note_on_c, 0, 80, 72
2, 52944, Note_on_c, 0, 80, 0
2, 52944, Note_on_c, 0, 79, 74
2, 52956, Note_on_c, 0, 79, 0
2, 52956, Note_on_c, 0, 77, 75
2, 52968, Note_on_c, 0, 77, 0
2, 52968, Note_on_c, 0, 75, 77
2, 52980, Note_on_c, 0, 75, 0
2, 52980, Note_on_c, 0, 74, 78
2, 52992, Note_on_c, 0, 74, 0
2, 52992, Note_on_c, 0, 75, 80
2, 53004, Note_on_c, 0, 75, 0
2, 53004, Note_on_c, 0, 77, 80
2, 53016, Note_on_c, 0, 77, 0
2, 53016, Note_on_c, 0, 79, 80
2, 53028, Note_on_c, 0, 79, 0
2, 53028, Note_on_c, 0, 80, 80
2, 53040, Note_on_c, 0, 80, 0
2, 53040, Note_on_c, 0, 82, 80
2, 53052, Note_on_c, 0, 82, 0
2, 53052, Note_on_c, 0, 84, 80
2, 53064, Note_on_c, 0, 84, 0
2, 53064, Note_on_c, 0, 85, 80
2, 53076, Note_on_c, 0, 85, 0
2, 53076, Note_on_c, 0, 87, 80
2, 53088, Note_on_c, 0, 87, 0
2, 53088, Note_on_c, 0, 85, 80
2, 53100, Note_on_c, 0, 85, 0
2, 53100, Note_on_c, 0, 84, 80
2, 53112, Note_on_c, 0, 84, 0
2, 53112, Note_on_c, 0, 82, 80
2, 53124, Note_on_c, 0, 82, 0
2, 53124, Note_on_c, 0, 80, 80
2, 53136, Note_on_c, 0, 80, 0
2, 53136, Note_on_c, 0, 79, 80
2, 53148, Note_on_c, 0, 79, 0
2, 53148, Note_on_c, 0, 77, 80
2, 53160, Note_on_c, 0, 77, 0
2, 53160, Note_on_c, 0, 75, 80
2, 53172, Note_on_c, 0, 75, 0
2, 53172, Note_on_c, 0, 73, 80
2, 53184, Note_on_c, 0, 73, 0
2, 53184, Note_on_c, 0, 72, 80
2, 53207, Note_on_c, 0, 72, 0
2, 53208, Note_on_c, 0, 84, 64
2, 53218, Note_on_c, 0, 84, 0
2, 53232, Note_on_c, 0, 83, 64
2, 53242, Note_on_c, 0, 83, 0
2, 53256, Note_on_c, 0, 86, 64
2, 53266, Note_on_c, 0, 86, 0
2, 53280, Note_on_c, 0, 84, 64
2, 53290, Note_on_c, 0, 84, 0
2, 53304, Note_on_c, 0, 87, 66
2, 53314, Note_on_c, 0, 87, 0
2, 53328, Note_on_c, 0, 83, 68
2, 53338, Note_on_c, 0, 83, 0
2, 53352, Note_on_c, 0, 86, 70
2, 53362, Note_on_c, 0, 86, 0
2, 53376, Note_on_c, 0, 84, 72
2, 53386, Note_on_c, 0, 84, 0
2, 53400, Note_on_c, 0, 87, 74
2, 53410, Note_on_c, 0, 87, 0
2, 53424, Note_on_c, 0, 83, 76
2, 53434, Note_on_c, 0, 83, 0
2, 53448, Note_on_c, 0, 86, 78
2, 53458, Note_on_c, 0, 86, 0
2, 53472, Note_on_c, 0, 84, 80
2, 53482, Note_on_c, 0, 84, 0
2, 53496, Note_on_c, 0, 87, 80
2, 53506, Note_on_c, 0, 87, 0
2, 53520, Note_on_c, 0, 84, 80
2, 53535, Note_on_c, 0, 84, 0
2, 53536, Note_on_c, 0, 80, 80
2, 53551, Note_on_c, 0, 80, 0
2, 53552, Note_on_c, 0, 77, 80
2, 53567, Note_on_c, 0, 77, 0
2, 53568, Note_on_c, 0, 75, 80
2, 53635, Note_on_c, 0, 75, 0
2, 53640, Note_on_c, 0, 77, 80
2, 53646, Note_on_c, 0, 77, 0
2, 53646, Note_on_c, 0, 75, 80
2, 53652, Note_on_c, 0, 75, 0
2, 53652, Note_on_c, 0, 74, 80
2, 53658, Note_on_c, 0, 74, 0
2, 53658, Note_on_c, 0, 75, 80
2, 53664, Note_on_c, 0, 75, 0
2, 53664, Note_on_c, 0, 79, 80
2, 53731, Note_on_c, 0, 79, 0
2, 53736, Note_on_c, 0, 77, 80
2, 53759, Note_on_c, 0, 77, 0
2, 53760, Note_on_c, 0, 75, 80
2, 53805, Note_on_c, 0, 75, 0
2, 53844, Note_on_c, 0, 82, 64
2, 53856, Note_on_c, 0, 82, 0
2, 53856, Note_on_c, 0, 79, 64
2, 53866, Note_on_c, 0, 79, 0
2, 53892, Note_on_c, 0, 82, 64
2, 53904, Note_on_c, 0, 82, 0
2, 53904, Note_on_c, 0, 77, 64
2, 53914, Note_on_c, 0, 77, 0
2, 53940, Note_on_c, 0, 82, 64
2, 53952, Note_on_c, 0, 82, 0
2, 53952, Note_on_c, 0, 75, 64
2, 53962, Note_on_c, 0, 75, 0
2, 53988, Note_on_c, 0, 82, 64
2, 54000, Note_on_c, 0, 82, 0
2, 54000, Note_on_c, 0, 70, 64
2, 54010, Note_on_c, 0, 70, 0
2, 54036, Note_on_c, 0, 82, 58
2, 54048, Note_on_c, 0, 82, 0
2, 54048, Note_on_c, 0, 79, 58
2, 54058, Note_on_c, 0, 79, 0
2, 54084, Note_on_c, 0, 82, 58
2, 54096, Note_on_c, 0, 82, 0
2, 54096, Note_on_c, 0, 77, 58
2, 54106, Note_on_c, 0, 77, 0
2, 54132, Note_on_c, 0, 82, 58
2, 54144, Note_on_c, 0, 82, 0
2, 54144, Note_on_c, 0, 75, 58
2, 54154, Note_on_c, 0, 75, 0
2, 54180, Note_on_c, 0, 82, 58
2, 54192, Note_on_c, 0, 82, 0
2, 54192, Note_on_c, 0, 70, 58
2, 54202, Note_on_c, 0, 70, 0
2, 54228, Note_on_c, 0, 82, 58
2, 54240, Note_on_c, 0, 82, 0
2, 54240, Note_on_c, 0, 73, 58
2, 54250, Note_on_c, 0, 73, 0
2, 54276, Note_on_c, 0, 82, 64
2, 54288, Note_on_c, 0, 82, 0
2, 54288, Note_on_c, 0, 71, 64
2, 54298, Note_on_c, 0, 71, 0
2, 54324, Note_on_c, 0, 82, 64
2, 54336, Note_on_c, 0, 82, 0
2, 54336, Note_on_c, 0, 72, 64
2, 54346, Note_on_c, 0, 72, 0
2, 54372, Note_on_c, 0, 76, 65
2, 54384, Note_on_c, 0, 76, 0
2, 54384, Note_on_c, 0, 77, 65
2, 54394, Note_on_c, 0, 77, 0
2, 54420, Note_on_c, 0, 79, 67
2, 54432, Note_on_c, 0, 79, 0
2, 54432, Note_on_c, 0, 80, 67
2, 54442, Note_on_c, 0, 80, 0
2, 54468, Note_on_c, 0, 79, 69
2, 54480, Note_on_c, 0, 79, 0
2, 54480, Note_on_c, 0, 77, 69
2, 54490, Note_on_c, 0, 77, 0
2, 54516, Note_on_c, 0, 75, 71
2, 54528, Note_on_c, 0, 75, 0
2, 54528, Note_on_c, 0, 74, 71
2, 54538, Note_on_c, 0, 74, 0
2, 54564, Note_on_c, 0, 84, 73
2, 54576, Note_on_c, 0, 84, 0
2, 54576, Note_on_c, 0, 82, 73
2, 54586, Note_on_c, 0, 82, 0
2, 54612, Note_on_c, 0, 81, 75
2, 54624, Note_on_c, 0, 81, 0
2, 54624, Note_on_c, 0, 82, 75
2, 54634, Note_on_c, 0, 82, 0
2, 54660, Note_on_c, 0, 84, 77
2, 54672, Note_on_c, 0, 84, 0
2, 54672, Note_on_c, 0, 82, 77
2, 54682, Note_on_c, 0, 82, 0
2, 54708, Note_on_c, 0, 80, 79
2, 54720, Note_on_c, 0, 80, 0
2, 54720, Note_on_c, 0, 78, 79
2, 54732, Note_on_c, 0, 78, 0
2, 54732, Note_on_c, 0, 80, 80
2, 54744, Note_on_c, 0, 80, 0
2, 54744, Note_on_c, 0, 78, 80
2, 54756, Note_on_c, 0, 78, 0
2, 54756, Note_on_c, 0, 77, 80
2, 54768, Note_on_c, 0, 77, 0
2, 54768, Note_on_c, 0, 75, 80
2, 54778, Note_on_c, 0, 75, 0
2, 54792, Note_on_c, 0, 75, 80
2, 54802, Note_on_c, 0, 75, 0
2, 54816, Note_on_c, 0, 80, 80
2, 54828, Note_on_c, 0, 80, 0
2, 54828, Note_on_c, 0, 82, 80
2, 54840, Note_on_c, 0, 82, 0
2, 54840, Note_on_c, 0, 80, 80
2, 54852, Note_on_c, 0, 80, 0
2, 54852, Note_on_c, 0, 78, 80
2, 54864, Note_on_c, 0, 78, 0
2, 54864, Note_on_c, 0, 77, 78
2, 54874, Note_on_c, 0, 77, 0
2, 54888, Note_on_c, 0, 77, 74
2, 54898, Note_on_c, 0, 77, 0
2, 54912, Note_on_c, 0, 78, 70
2, 54924, Note_on_c, 0, 78, 0
2, 54924, Note_on_c, 0, 80, 70
2, 54936, Note_on_c, 0, 80, 0
2, 54936, Note_on_c, 0, 78, 70
2, 54948, Note_on_c, 0, 78, 0
2, 54948, Note_on_c, 0, 77, 70
2, 54960, Note_on_c, 0, 77, 0
2, 54960, Note_on_c, 0, 75, 70
2, 54970, Note_on_c, 0, 75, 0
2, 54984, Note_on_c, 0, 75, 70
2, 54994, Note_on_c, 0, 75, 0
2, 55008, Note_on_c, 0, 80, 70
2, 55020, Note_on_c, 0, 80, 0
2, 55020, Note_on_c, 0, 82, 70
2, 55032, Note_on_c, 0, 82, 0
2, 55032, Note_on_c, 0, 80, 70
2, 55044, Note_on_c, 0, 80, 0
2, 55044, Note_on_c, 0, 78, 71
2, 55056, Note_on_c, 0, 78, 0
2, 55056, Note_on_c, 0, 77, 73
2, 55066, Note_on_c, 0, 77, 0
2, 55080, Note_on_c, 0, 77, 76
2, 55090, Note_on_c, 0, 77, 0
2, 55104, Note_on_c, 0, 78, 80
2, 55116, Note_on_c, 0, 78, 0
2, 55116, Note_on_c, 0, 80, 80
2, 55128, Note_on_c, 0, 80, 0
2, 55128, Note_on_c, 0, 78, 80
2, 55140, Note_on_c, 0, 78, 0
2, 55140, Note_on_c, 0, 77, 80
2, 55152, Note_on_c, 0, 77, 0
2, 55152, Note_on_c, 0, 75, 80
2, 55164, Note_on_c, 0, 75, 0
2, 55164, Note_on_c, 0, 77, 80
2, 55176, Note_on_c, 0, 77, 0
2, 55176, Note_on_c, 0, 75, 80
2, 55188, Note_on_c, 0, 75, 0
2, 55188, Note_on_c, 0, 73, 80
2, 55200, Note_on_c, 0, 73, 0
2, 55200, Note_on_c, 0, 71, 80
2, 55212, Note_on_c, 0, 71, 0
2, 55212, Note_on_c, 0, 73, 80
2, 55224, Note_on_c, 0, 73, 0
2, 55224, Note_on_c, 0, 71, 80
2, 55236, Note_on_c, 0, 71, 0
2, 55236, Note_on_c, 0, 70, 80
2, 55248, Note_on_c, 0, 70, 0
2, 55248, Note_on_c, 0, 68, 80
2, 55260, Note_on_c, 0, 68, 0
2, 55260, Note_on_c, 0, 70, 80
2, 55272, Note_on_c, 0, 70, 0
2, 55272, Note_on_c, 0, 68, 80
2, 55284, Note_on_c, 0, 68, 0
2, 55284, Note_on_c, 0, 66, 80
2, 55296, Note_on_c, 0, 66, 0
2, 55296, Note_on_c, 0, 65, 80
2, 55308, Note_on_c, 0, 65, 0
2, 55308, Note_on_c, 0, 66, 80
2, 55320, Note_on_c, 0, 66, 0
2, 55320, Note_on_c, 0, 68, 80
2, 55332, Note_on_c, 0, 68, 0
2, 55332, Note_on_c, 0, 66, 80
2, 55344, Note_on_c, 0, 66, 0
2, 55344, Note_on_c, 0, 65, 80
2, 55356, Note_on_c, 0, 65, 0
2, 55356, Note_on_c, 0, 66, 80
2, 55368, Note_on_c, 0, 66, 0
2, 55368, Note_on_c, 0, 68, 80
2, 55380, Note_on_c, 0, 68, 0
2, 55380, Note_on_c, 0, 66, 80
2, 55392, Note_on_c, 0, 66, 0
2, 55392, Note_on_c, 0, 65, 80
2, 55404, Note_on_c, 0, 65, 0
2, 55404, Note_on_c, 0, 66, 80
2, 55416, Note_on_c, 0, 66, 0
2, 55416, Note_on_c, 0, 68, 80
2, 55428, Note_on_c, 0, 68, 0
2, 55428, Note_on_c, 0, 66, 80
2, 55440, Note_on_c, 0, 66, 0
2, 55440, Note_on_c, 0, 65, 80
2, 55452, Note_on_c, 0, 65, 0
2, 55452, Note_on_c, 0, 66, 80
2, 55464, Note_on_c, 0, 66, 0
2, 55464, Note_on_c, 0, 68, 80
2, 55476, Note_on_c, 0, 68, 0
2, 55476, Note_on_c, 0, 66, 80
2, 55488, Note_on_c, 0, 66, 0
2, 55488, Note_on_c, 0, 65, 80
2, 55500, Note_on_c, 0, 65, 0
2, 55500, Note_on_c, 0, 66, 79
2, 55512, Note_on_c, 0, 66, 0
2, 55512, Note_on_c, 0, 68, 78
2, 55524, Note_on_c, 0, 68, 0
2, 55524, Note_on_c, 0, 66, 78
2, 55536, Note_on_c, 0, 66, 0
2, 55536, Note_on_c, 0, 65, 77
2, 55548, Note_on_c, 0, 65, 0
2, 55548, Note_on_c, 0, 66, 76
2, 55560, Note_on_c, 0, 66, 0
2, 55560, Note_on_c, 0, 68, 76
2, 55572, Note_on_c, 0, 68, 0
2, 55572, Note_on_c, 0, 66, 75
2, 55584, Note_on_c, 0, 66, 0
2, 55584, Note_on_c, 0, 65, 75
2, 55596, Note_on_c, 0, 65, 0
2, 55596, Note_on_c, 0, 66, 74
2, 55608, Note_on_c, 0, 66, 0
2, 55608, Note_on_c, 0, 68, 73
2, 55620, Note_on_c, 0, 68, 0
2, 55620, Note_on_c, 0, 66, 73
2, 55632, Note_on_c, 0, 66, 0
2, 55632, Note_on_c, 0, 65, 72
2, 55644, Note_on_c, 0, 65, 0
2, 55644, Note_on_c, 0, 66, 71
2, 55656, Note_on_c, 0, 66, 0
2, 55656, Note_on_c, 0, 68, 71
2, 55668, Note_on_c, 0, 68, 0
2, 55668, Note_on_c, 0, 66, 70
2, 55680, Note_on_c, 0, 66, 0
2, 55680, Note_on_c, 0, 65, 70
2, 55692, Note_on_c, 0, 65, 0
2, 55692, Note_on_c, 0, 66, 70
2, 55704, Note_on_c, 0, 66, 0
2, 55704, Note_on_c, 0, 68, 70
2, 55716, Note_on_c, 0, 68, 0
2, 55716, Note_on_c, 0, 66, 70
2, 55728, Note_on_c, 0, 66, 0
2, 55728, Note_on_c, 0, 65, 70
2, 55740, Note_on_c, 0, 65, 0
2, 55740, Note_on_c, 0, 66, 70
2, 55752, Note_on_c, 0, 66, 0
2, 55752, Note_on_c, 0, 68, 70
2, 55764, Note_on_c, 0, 68, 0
2, 55764, Note_on_c, 0, 66, 70
2, 55776, Note_on_c, 0, 66, 0
2, 55776, Note_on_c, 0, 65, 70
2, 55788, Note_on_c, 0, 65, 0
2, 55788, Note_on_c, 0, 66, 70
2, 55800, Note_on_c, 0, 66, 0
2, 55800, Note_on_c, 0, 68, 70
2, 55812, Note_on_c, 0, 68, 0
2, 55812, Note_on_c, 0, 66, 70
2, 55824, Note_on_c, 0, 66, 0
2, 55824, Note_on_c, 0, 65, 70
2, 55836, Note_on_c, 0, 65, 0
2, 55836, Note_on_c, 0, 66, 70
2, 55848, Note_on_c, 0, 66, 0
2, 55848, Note_on_c, 0, 68, 71
2, 55860, Note_on_c, 0, 68, 0
2, 55860, Note_on_c, 0, 66, 72
2, 55872, Note_on_c, 0, 66, 0
2, 55872, Note_on_c, 0, 65, 73
2, 55884, Note_on_c, 0, 65, 0
2, 55884, Note_on_c, 0, 67, 73
2, 55896, Note_on_c, 0, 67, 0
2, 55896, Note_on_c, 0, 68, 74
2, 55908, Note_on_c, 0, 68, 0
2, 55908, Note_on_c, 0, 67, 75
2, 55920, Note_on_c, 0, 67, 0
2, 55920, Note_on_c, 0, 65, 76
2, 55932, Note_on_c, 0, 65, 0
2, 55932, Note_on_c, 0, 67, 76
2, 55944, Note_on_c, 0, 67, 0
2, 55944, Note_on_c, 0, 68, 77
2, 55956, Note_on_c, 0, 68, 0
2, 55956, Note_on_c, 0, 67, 78
2, 55968, Note_on_c, 0, 67, 0
2, 55968, Note_on_c, 0, 65, 79
2, 55980, Note_on_c, 0, 65, 0
2, 55980, Note_on_c, 0, 67, 80
2, 55992, Note_on_c, 0, 67, 0
2, 55992, Note_on_c, 0, 68, 80
2, 56004, Note_on_c, 0, 68, 0
2, 56004, Note_on_c, 0, 70, 80
2, 56016, Note_on_c, 0, 70, 0
2, 56016, Note_on_c, 0, 72, 80
2, 56028, Note_on_c, 0, 72, 0
2, 56028, Note_on_c, 0, 74, 80
2, 56040, Note_on_c, 0, 74, 0
2, 56040, Note_on_c, 0, 75, 80
2, 56052, Note_on_c, 0, 75, 0
2, 56052, Note_on_c, 0, 77, 80
2, 56064, Note_on_c, 0, 77, 0
2, 56064, Note_on_c, 0, 79, 80
2, 56064, Note_on_c, 0, 75, 80
2, 56153, Note_on_c, 0, 79, 0
2, 56153, Note_on_c, 0, 75, 0
2, 56160, Note_on_c, 0, 77, 80
2, 56172, Note_on_c, 0, 82, 80
2, 56253, Note_on_c, 0, 82, 0
2, 56253, Note_on_c, 0, 77, 0
2, 56256, Note_on_c, 0, 75, 80
2, 56264, Note_on_c, 0, 80, 80
2, 56272, Note_on_c, 0, 87, 80
2, 56400, Note_on_c, 0, 80, 0
2, 56400, Note_on_c, 0, 75, 0
2, 56423, Note_on_c, 0, 87, 0
2, 56424, Note_on_c, 0, 86, 80
2, 56432, Note_on_c, 0, 86, 0
2, 56432, Note_on_c, 0, 84, 80
2, 56440, Note_on_c, 0, 84, 0
2, 56440, Note_on_c, 0, 82, 80
2, 56448, Note_on_c, 0, 82, 0
2, 56448, Note_on_c, 0, 80, 80
2, 56468, Note_on_c, 0, 80, 0
2, 56520, Note_on_c, 0, 79, 80
2, 56543, Note_on_c, 0, 79, 0
2, 56544, Note_on_c, 0, 84, 80
2, 56564, Note_on_c, 0, 84, 0
2, 56616, Note_on_c, 0, 82, 80
2, 56616, Note_on_c, 0, 75, 80
2, 56639, Note_on_c, 0, 82, 0
2, 56639, Note_on_c, 0, 75, 0
2, 56640, Note_on_c, 0, 81, 80
2, 56640, Note_on_c, 0, 75, 80
2, 56679, Note_on_c, 0, 81, 0
2, 56679, Note_on_c, 0, 75, 0
2, 56760, Note_on_c, 0, 84, 64
2, 56760, Note_on_c, 0, 80, 64
2, 56783, Note_on_c, 0, 84, 0
2, 56783, Note_on_c, 0, 80, 0
2, 56784, Note_on_c, 0, 82, 64
2, 56784, Note_on_c, 0, 79, 64
2, 56807, Note_on_c, 0, 82, 0
2, 56807, Note_on_c, 0, 79, 0
2, 56808, Note_on_c, 0, 80, 64
2, 56808, Note_on_c, 0, 77, 64
2, 56831, Note_on_c, 0, 80, 0
2, 56831, Note_on_c, 0, 77, 0
2, 56832, Note_on_c, 0, 79, 64
2, 56832, Note_on_c, 0, 75, 64
2, 56871, Note_on_c, 0, 79, 0
2, 56871, Note_on_c, 0, 75, 0
2, 56952, Note_on_c, 0, 84, 64
2, 56952, Note_on_c, 0, 80, 64
2, 56975, Note_on_c, 0, 84, 0
2, 56975, Note_on_c, 0, 80, 0
2, 56976, Note_on_c, 0, 82, 64
2, 56976, Note_on_c, 0, 79, 64
2, 56999, Note_on_c, 0, 82, 0
2, 56999, Note_on_c, 0, 79, 0
2, 57000, Note_on_c, 0, 80, 64
2, 57000, Note_on_c, 0, 77, 64
2, 57023, Note_on_c, 0, 80, 0
2, 57023, Note_on_c, 0, 77, 0
2, 57024, Note_on_c, 0, 79, 64
2, 57024, Note_on_c, 0, 75, 64
2, 57063, Note_on_c, 0, 79, 0
2, 57063, Note_on_c, 0, 75, 0
2, 57144, Note_on_c, 0, 84, 64
2, 57144, Note_on_c, 0, 80, 64
2, 57167, Note_on_c, 0, 84, 0
2, 57167, Note_on_c, 0, 80, 0
2, 57168, Note_on_c, 0, 82, 69
2, 57168, Note_on_c, 0, 79, 69
2, 57191, Note_on_c, 0, 82, 0
2, 57191, Note_on_c, 0, 79, 0
2, 57192, Note_on_c, 0, 80, 74
2, 57192, Note_on_c, 0, 77, 74
2, 57215, Note_on_c, 0, 80, 0
2, 57215, Note_on_c, 0, 77, 0
2, 57216, Note_on_c, 0, 79, 80
2, 57216, Note_on_c, 0, 75, 80
2, 57226, Note_on_c, 0, 79, 0
2, 57226, Note_on_c, 0, 75, 0
2, 57240, Note_on_c, 0, 87, 80
2, 57240, Note_on_c, 0, 82, 80
2, 57263, Note_on_c, 0, 87, 0
2, 57263, Note_on_c, 0, 82, 0
2, 57264, Note_on_c, 0, 86, 80
2, 57264, Note_on_c, 0, 80, 80
2, 57287, Note_on_c, 0, 86, 0
2, 57287, Note_on_c, 0, 80, 0
2, 57288, Note_on_c, 0, 84, 80
2, 57288, Note_on_c, 0, 79, 80
2, 57311, Note_on_c, 0, 84, 0
2, 57311, Note_on_c, 0, 79, 0
2, 57312, Note_on_c, 0, 82, 80
2, 57312, Note_on_c, 0, 77, 80
2, 57335, Note_on_c, 0, 82, 0
2, 57335, Note_on_c, 0, 77, 0
2, 57336, Note_on_c, 0, 80, 80
2, 57359, Note_on_c, 0, 80, 0
2, 57360, Note_on_c, 0, 79, 80
2, 57383, Note_on_c, 0, 79, 0
2, 57384, Note_on_c, 0, 77, 80
2, 57407, Note_on_c, 0, 77, 0
2, 57408, Note_on_c, 0, 76, 96
2, 57504, Note_on_c, 0, 76, 0
2, 57504, Note_on_c, 0, 77, 70
2, 57524, Note_on_c, 0, 77, 0
2, 57600, Note_on_c, 0, 74, 96
2, 57600, Note_on_c, 0, 70, 96
2, 57696, Note_on_c, 0, 74, 0
2, 57696, Note_on_c, 0, 75, 70
2, 57716, Note_on_c, 0, 75, 0
2, 57716, Note_on_c, 0, 70, 0
2, 57984, Note_on_c, 0, 72, 64
2, 57984, Note_on_c, 0, 60, 64
2, 58161, Note_on_c, 0, 72, 0
2, 58161, Note_on_c, 0, 60, 0
2, 58176, Note_on_c, 0, 71, 68
2, 58176, Note_on_c, 0, 59, 68
2, 58353, Note_on_c, 0, 71, 0
2, 58353, Note_on_c, 0, 59, 0
2, 58368, Note_on_c, 0, 69, 72
2, 58368, Note_on_c, 0, 57, 72
2, 58545, Note_on_c, 0, 69, 0
2, 58545, Note_on_c, 0, 57, 0
2, 58560, Note_on_c, 0, 68, 76
2, 58560, Note_on_c, 0, 56, 76
2, 58649, Note_on_c, 0, 68, 0
2, 58649, Note_on_c, 0, 56, 0
2, 58656, Note_on_c, 0, 69, 78
2, 58656, Note_on_c, 0, 57, 78
2, 58745, Note_on_c, 0, 69, 0
2, 58745, Note_on_c, 0, 57, 0
2, 58752, Control_c, 0, 64, 127
2, 58752, Note_on_c, 0, 70, 80
2, 58752, Note_on_c, 0, 67, 80
2, 58752, Note_on_c, 0, 63, 80
2, 58752, Note_on_c, 0, 58, 80
2, 58841, Note_on_c, 0, 70, 0
2, 58841, Note_on_c, 0, 67, 0
2, 58841, Note_on_c, 0, 63, 0
2, 58841, Note_on_c, 0, 58, 0
2, 58848, Note_on_c, 0, 75, 80
2, 58848, Note_on_c, 0, 70, 80
2, 58848, Note_on_c, 0, 67, 80
2, 58893, Note_on_c, 0, 75, 0
2, 58893, Note_on_c, 0, 70, 0
2, 58893, Note_on_c, 0, 67, 0
2, 58896, Note_on_c, 0, 79, 80
2, 58896, Note_on_c, 0, 75, 80
2, 58896, Note_on_c, 0, 70, 80
2, 58941, Note_on_c, 0, 79, 0
2, 58941, Note_on_c, 0, 75, 0
2, 58941, Note_on_c, 0, 70, 0
2, 58944, Control_c, 0, 64, 0
2, 58944, Note_on_c, 0, 82, 80
2, 58944, Note_on_c, 0, 79, 80
2, 58944, Note_on_c, 0, 75, 80
2, 58989, Note_on_c, 0, 82, 0
2, 58989, Note_on_c, 0, 79, 0
2, 58989, Note_on_c, 0, 75, 0
2, 59016, Note_on_c, 0, 79, 80
2, 59016, Note_on_c, 0, 75, 80
2, 59039, Note_on_c, 0, 79, 0
2, 59039, Note_on_c, 0, 75, 0
2, 59040, Note_on_c, 0, 82, 80
2, 59040, Note_on_c, 0, 79, 80
2, 59063, Note_on_c, 0, 82, 0
2, 59063, Note_on_c, 0, 79, 0
2, 59064, Note_on_c, 0, 79, 80
2, 59064, Note_on_c, 0, 75, 80
2, 59087, Note_on_c, 0, 79, 0
2, 59087, Note_on_c, 0, 75, 0
2, 59088, Note_on_c, 0, 82, 80
2, 59088, Note_on_c, 0, 79, 80
2, 59111, Note_on_c, 0, 82, 0
2, 59111, Note_on_c, 0, 79, 0
2, 59112, Note_on_c, 0, 79, 80
2, 59112, Note_on_c, 0, 75, 80
2, 59135, Note_on_c, 0, 79, 0
2, 59135, Note_on_c, 0, 75, 0
2, 59136, Note_on_c, 0, 82, 80
2, 59136, Note_on_c, 0, 79, 80
2, 59181, Note_on_c, 0, 82, 0
2, 59181, Note_on_c, 0, 79, 0
2, 59232, Note_on_c, 0, 74, 80
2, 59232, Note_on_c, 0, 70, 80
2, 59232, Note_on_c, 0, 68, 80
2, 59232, Note_on_c, 0, 65, 80
2, 59277, Note_on_c, 0, 74, 0
2, 59277, Note_on_c, 0, 70, 0
2, 59277, Note_on_c, 0, 68, 0
2, 59277, Note_on_c, 0, 65, 0
2, 59328, Note_on_c, 0, 75, 80
2, 59340, Note_on_c, 0, 75, 0
2, 59340, Note_on_c, 0, 79, 80
2, 59352, Note_on_c, 0, 79, 0
2, 59352, Note_on_c, 0, 77, 80
2, 59364, Note_on_c, 0, 77, 0
2, 59364, Note_on_c, 0, 75, 80
2, 59376, Note_on_c, 0, 75, 0
2, 59376, Note_on_c, 0, 74, 80
2, 59388, Note_on_c, 0, 74, 0
2, 59388, Note_on_c, 0, 72, 80
2, 59400, Note_on_c, 0, 72, 0
2, 59400, Note_on_c, 0, 70, 80
2, 59412, Note_on_c, 0, 70, 0
2, 59412, Note_on_c, 0, 69, 80
2, 59424, Note_on_c, 0, 69, 0
2, 59424, Note_on_c, 0, 68, 80
2, 59436, Note_on_c, 0, 68, 0
2, 59436, Note_on_c, 0, 72, 80
2, 59448, Note_on_c, 0, 72, 0
2, 59448, Note_on_c, 0, 70, 78
2, 59460, Note_on_c, 0, 70, 0
2, 59460, Note_on_c, 0, 68, 77
2, 59472, Note_on_c, 0, 68, 0
2, 59472, Note_on_c, 0, 67, 76
2, 59484, Note_on_c, 0, 67, 0
2, 59484, Note_on_c, 0, 65, 75
2, 59496, Note_on_c, 0, 65, 0
2, 59496, Note_on_c, 0, 63, 73
2, 59508, Note_on_c, 0, 63, 0
2, 59508, Note_on_c, 0, 62, 72
2, 59520, Note_on_c, 0, 62, 0
2, 59520, Note_on_c, 0, 63, 71
2, 59532, Note_on_c, 0, 63, 0
2, 59532, Note_on_c, 0, 79, 70
2, 59544, Note_on_c, 0, 79, 0
2, 59544, Note_on_c, 0, 77, 70
2, 59556, Note_on_c, 0, 77, 0
2, 59556, Note_on_c, 0, 75, 70
2, 59568, Note_on_c, 0, 75, 0
2, 59568, Note_on_c, 0, 74, 70
2, 59580, Note_on_c, 0, 74, 0
2, 59580, Note_on_c, 0, 72, 70
2, 59592, Note_on_c, 0, 72, 0
2, 59592, Note_on_c, 0, 70, 70
2, 59604, Note_on_c, 0, 70, 0
2, 59604, Note_on_c, 0, 69, 70
2, 59616, Note_on_c, 0, 69, 0
2, 59616, Note_on_c, 0, 68, 70
2, 59628, Note_on_c, 0, 68, 0
2, 59628, Note_on_c, 0, 72, 70
2, 59640, Note_on_c, 0, 72, 0
2, 59640, Note_on_c, 0, 70, 70
2, 59652, Note_on_c, 0, 70, 0
2, 59652, Note_on_c, 0, 68, 70
2, 59664, Note_on_c, 0, 68, 0
2, 59664, Note_on_c, 0, 67, 70
2, 59676, Note_on_c, 0, 67, 0
2, 59676, Note_on_c, 0, 65, 70
2, 59688, Note_on_c, 0, 65, 0
2, 59688, Note_on_c, 0, 63, 70
2, 59700, Note_on_c, 0, 63, 0
2, 59700, Note_on_c, 0, 62, 70
2, 59712, Note_on_c, 0, 62, 0
2, 59712, Note_on_c, 0, 63, 64
2, 59724, Note_on_c, 0, 63, 0
2, 59724, Note_on_c, 0, 62, 64
2, 59736, Note_on_c, 0, 62, 0
2, 59736, Note_on_c, 0, 63, 64
2, 59748, Note_on_c, 0, 63, 0
2, 59748, Note_on_c, 0, 67, 65
2, 59760, Note_on_c, 0, 67, 0
2, 59760, Note_on_c, 0, 67, 65
2, 59772, Note_on_c, 0, 67, 0
2, 59772, Note_on_c, 0, 66, 66
2, 59784, Note_on_c, 0, 66, 0
2, 59784, Note_on_c, 0, 67, 66
2, 59796, Note_on_c, 0, 67, 0
2, 59796, Note_on_c, 0, 70, 66
2, 59808, Note_on_c, 0, 70, 0
2, 59808, Note_on_c, 0, 70, 67
2, 59820, Note_on_c, 0, 70, 0
2, 59820, Note_on_c, 0, 69, 67
2, 59832, Note_on_c, 0, 69, 0
2, 59832, Note_on_c, 0, 70, 68
2, 59844, Note_on_c, 0, 70, 0
2, 59844, Note_on_c, 0, 75, 68
2, 59856, Note_on_c, 0, 75, 0
2, 59856, Note_on_c, 0, 75, 69
2, 59868, Note_on_c, 0, 75, 0
2, 59868, Note_on_c, 0, 74, 69
2, 59880, Note_on_c, 0, 74, 0
2, 59880, Note_on_c, 0, 75, 69
2, 59892, Note_on_c, 0, 75, 0
2, 59892, Note_on_c, 0, 79, 70
2, 59904, Note_on_c, 0, 79, 0
2, 59904, Note_on_c, 0, 79, 70
2, 59916, Note_on_c, 0, 79, 0
2, 59916, Note_on_c, 0, 78, 71
2, 59928, Note_on_c, 0, 78, 0
2, 59928, Note_on_c, 0, 79, 71
2, 59940, Note_on_c, 0, 79, 0
2, 59940, Note_on_c, 0, 82, 72
2, 59952, Note_on_c, 0, 82, 0
2, 59952, Note_on_c, 0, 82, 72
2, 59964, Note_on_c, 0, 82, 0
2, 59964, Note_on_c, 0, 81, 72
2, 59976, Note_on_c, 0, 81, 0
2, 59976, Note_on_c, 0, 82, 73
2, 59988, Note_on_c, 0, 82, 0
2, 59988, Note_on_c, 0, 87, 73
2, 60000, Note_on_c, 0, 87, 0
2, 60000, Note_on_c, 0, 87, 74
2, 60012, Note_on_c, 0, 87, 0
2, 60012, Note_on_c, 0, 82, 74
2, 60024, Note_on_c, 0, 82, 0
2, 60024, Note_on_c, 0, 81, 75
2, 60036, Note_on_c, 0, 81, 0
2, 60036, Note_on_c, 0, 82, 75
2, 60048, Note_on_c, 0, 82, 0
2, 60048, Note_on_c, 0, 86, 75
2, 60060, Note_on_c, 0, 86, 0
2, 60060, Note_on_c, 0, 82, 76
2, 60072, Note_on_c, 0, 82, 0
2, 60072, Note_on_c, 0, 81, 76
2, 60084, Note_on_c, 0, 81, 0
2, 60084, Note_on_c, 0, 82, 77
2, 60096, Note_on_c, 0, 82, 0
2, 60096, Note_on_c, 0, 87, 77
2, 60108, Note_on_c, 0, 87, 0
2, 60108, Note_on_c, 0, 82, 77
2, 60120, Note_on_c, 0, 82, 0
2, 60120, Note_on_c, 0, 81, 78
2, 60132, Note_on_c, 0, 81, 0
2, 60132, Note_on_c, 0, 82, 78
2, 60144, Note_on_c, 0, 82, 0
2, 60144, Note_on_c, 0, 86, 79
2, 60156, Note_on_c, 0, 86, 0
2, 60156, Note_on_c, 0, 82, 79
2, 60168, Note_on_c, 0, 82, 0
2, 60168, Note_on_c, 0, 81, 80
2, 60180, Note_on_c, 0, 81, 0
2, 60180, Note_on_c, 0, 82, 80
2, 60192, Note_on_c, 0, 82, 0
2, 60192, Note_on_c, 0, 87, 80
2, 60204, Note_on_c, 0, 87, 0
2, 60204, Note_on_c, 0, 82, 81
2, 60216, Note_on_c, 0, 82, 0
2, 60216, Note_on_c, 0, 81, 81
2, 60228, Note_on_c, 0, 81, 0
2, 60228, Note_on_c, 0, 82, 82
2, 60240, Note_on_c, 0, 82, 0
2, 60240, Note_on_c, 0, 86, 82
2, 60252, Note_on_c, 0, 86, 0
2, 60252, Note_on_c, 0, 82, 83
2, 60264, Note_on_c, 0, 82, 0
2, 60264, Note_on_c, 0, 81, 83
2, 60276, Note_on_c, 0, 81, 0
2, 60276, Note_on_c, 0, 82, 83
2, 60288, Note_on_c, 0, 82, 0
2, 60288, Note_on_c, 0, 87, 84
2, 60333, Note_on_c, 0, 87, 0
2, 60336, Control_c, 0, 64, 127
2, 60336, Note_on_c, 0, 79, 86
2, 60336, Note_on_c, 0, 75, 86
2, 60381, Note_on_c, 0, 79, 0
2, 60381, Note_on_c, 0, 75, 0
2, 60384, Note_on_c, 0, 82, 86
2, 60384, Note_on_c, 0, 79, 86
2, 60429, Note_on_c, 0, 82, 0
2, 60429, Note_on_c, 0, 79, 0
2, 60432, Note_on_c, 0, 79, 86
2, 60432, Note_on_c, 0, 75, 86
2, 60477, Note_on_c, 0, 79, 0
2, 60477, Note_on_c, 0, 75, 0
2, 60480, Control_c, 0, 64, 0
2, 60480, Note_on_c, 0, 82, 86
2, 60480, Note_on_c, 0, 79, 86
2, 60525, Note_on_c, 0, 82, 0
2, 60525, Note_on_c, 0, 79, 0
2, 60528, Note_on_c, 0, 50, 93
2, 60534, Note_on_c, 0, 50, 0
2, 60534, Note_on_c, 0, 51, 109
2, 60548, Note_on_c, 0, 51, 0
2, 60576, Note_on_c, 0, 45, 93
2, 60582, Note_on_c, 0, 45, 0
2, 60582, Note_on_c, 0, 46, 109
2, 60596, Note_on_c, 0, 46, 0
2, 60624, Note_on_c, 0, 42, 93
2, 60630, Note_on_c, 0, 42, 0
2, 60630, Note_on_c, 0, 43, 109
2, 60644, Note_on_c, 0, 43, 0
2, 60672, Note_on_c, 0, 39, 109
2, 60768, Note_on_c, 0, 39, 0
2, 60768, Note_on_c, 0, 87, 86
2, 60768, Note_on_c, 0, 82, 86
2, 60768, Note_on_c, 0, 79, 86
2, 60857, Note_on_c, 0, 87, 0
2, 60857, Note_on_c, 0, 82, 0
2, 60857, Note_on_c, 0, 79, 0
2, 60864, Control_c, 0, 64, 0
2, 60864, Note_on_c, 0, 63, 86
2, 60864, Note_on_c, 0, 58, 86
2, 60864, Note_on_c, 0, 55, 86
2, 60997, Note_on_c, 0, 63, 0
2, 60997, Note_on_c, 0, 58, 0
2, 60997, Note_on_c, 0, 55, 0
2, 61056, End_track
3, 0, Start_track
3, 0, Program_c, 0, 0
3, 0, Control_c, 0, 7, 127
3, 0, Control_c, 0, 10, 64
3, 7296, Note_on_c, 0, 74, 75
3, 7319, Note_on_c, 0, 74, 0
3, 7320, Note_on_c, 0, 77, 75
3, 7343, Note_on_c, 0, 77, 0
3, 7344, Note_on_c, 0, 75, 75
3, 7367, Note_on_c, 0, 75, 0
3, 7368, Note_on_c, 0, 74, 75
3, 7391, Note_on_c, 0, 74, 0
3, 7392, Note_on_c, 0, 75, 75
3, 7511, Note_on_c, 0, 75, 0
3, 7512, Note_on_c, 0, 74, 75
3, 7535, Note_on_c, 0, 74, 0
3, 7536, Note_on_c, 0, 75, 75
3, 7559, Note_on_c, 0, 75, 0
3, 7560, Note_on_c, 0, 72, 75
3, 7583, Note_on_c, 0, 72, 0
3, 7584, Note_on_c, 0, 74, 75
3, 7673, Note_on_c, 0, 74, 0
3, 9888, Note_on_c, 0, 69, 75
3, 9977, Note_on_c, 0, 69, 0
3, 23808, Note_on_c, 0, 74, 75
3, 23831, Note_on_c, 0, 74, 0
3, 23832, Note_on_c, 0, 77, 75
3, 23855, Note_on_c, 0, 77, 0
3, 23856, Note_on_c, 0, 75, 75
3, 23879, Note_on_c, 0, 75, 0
3, 23880, Note_on_c, 0, 74, 75
3, 23903, Note_on_c, 0, 74, 0
3, 23904, Note_on_c, 0, 75, 75
3, 24023, Note_on_c, 0, 75, 0
3, 24024, Note_on_c, 0, 74, 75
3, 24047, Note_on_c, 0, 74, 0
3, 24048, Note_on_c, 0, 75, 75
3, 24071, Note_on_c, 0, 75, 0
3, 24072, Note_on_c, 0, 72, 75
3, 24095, Note_on_c, 0, 72, 0
3, 24096, Note_on_c, 0, 74, 75
3, 24185, Note_on_c, 0, 74, 0
3, 26400, Note_on_c, 0, 69, 75
3, 26489, Note_on_c, 0, 69, 0
3, 38208, Note_on_c, 0, 84, 104
3, 38400, Note_on_c, 0, 84, 0
3, 38400, Note_on_c, 0, 85, 104
3, 38544, Note_on_c, 0, 85, 0
3, 38544, Note_on_c, 0, 82, 75
3, 38567, Note_on_c, 0, 82, 0
3, 38568, Note_on_c, 0, 79, 75
3, 38591, Note_on_c, 0, 79, 0
3, 53664, Note_on_c, 0, 74, 80
3, 53753, Note_on_c, 0, 74, 0
3, 61056, End_track
4, 0, Start_track
4, 0, Program_c, 1, 0
4, 0, Control_c, 1, 7, 127
4, 0, Control_c, 1, 10, 64
4, 0, Note_on_c, 1, 39, 80
4, 6, Note_on_c, 1, 43, 80
4, 12, Note_on_c, 1, 46, 80
4, 18, Note_on_c, 1, 51, 80
4, 93, Note_on_c, 1, 51, 0
4, 93, Note_on_c, 1, 46, 0
4, 93, Note_on_c, 1, 43, 0
4, 93, Note_on_c, 1, 39, 0
4, 96, Note_on_c, 1, 49, 80
4, 96, Note_on_c, 1, 46, 80
4, 96, Note_on_c, 1, 43, 80
4, 96, Note_on_c, 1, 39, 80
4, 163, Note_on_c, 1, 49, 0
4, 163, Note_on_c, 1, 46, 0
4, 163, Note_on_c, 1, 43, 0
4, 163, Note_on_c, 1, 39, 0
4, 168, Note_on_c, 1, 49, 80
4, 168, Note_on_c, 1, 46, 80
4, 168, Note_on_c, 1, 43, 80
4, 168, Note_on_c, 1, 39, 80
4, 191, Note_on_c, 1, 49, 0
4, 191, Note_on_c, 1, 46, 0
4, 191, Note_on_c, 1, 43, 0
4, 191, Note_on_c, 1, 39, 0
4, 192, Note_on_c, 1, 39, 80
4, 198, Note_on_c, 1, 44, 80
4, 204, Note_on_c, 1, 48, 80
4, 210, Note_on_c, 1, 51, 80
4, 373, Note_on_c, 1, 51, 0
4, 373, Note_on_c, 1, 48, 0
4, 373, Note_on_c, 1, 44, 0
4, 373, Note_on_c, 1, 39, 0
4, 384, Note_on_c, 1, 39, 80
4, 390, Note_on_c, 1, 41, 80
4, 396, Note_on_c, 1, 44, 80
4, 402, Note_on_c, 1, 50, 80
4, 477, Note_on_c, 1, 50, 0
4, 477, Note_on_c, 1, 44, 0
4, 477, Note_on_c, 1, 41, 0
4, 477, Note_on_c, 1, 39, 0
4, 480, Note_on_c, 1, 39, 80
4, 486, Note_on_c, 1, 41, 80
4, 492, Note_on_c, 1, 44, 80
4, 498, Note_on_c, 1, 50, 80
4, 573, Note_on_c, 1, 50, 0
4, 573, Note_on_c, 1, 44, 0
4, 573, Note_on_c, 1, 41, 0
4, 573, Note_on_c, 1, 39, 0
4, 576, Note_on_c, 1, 39, 80
4, 582, Note_on_c, 1, 43, 80
4, 588, Note_on_c, 1, 46, 80
4, 594, Note_on_c, 1, 51, 80
4, 691, Note_on_c, 1, 51, 0
4, 691, Note_on_c, 1, 46, 0
4, 691, Note_on_c, 1, 43, 0
4, 691, Note_on_c, 1, 39, 0
4, 768, Note_on_c, 1, 68, 64
4, 768, Note_on_c, 1, 65, 64
4, 768, Note_on_c, 1, 58, 64
4, 815, Note_on_c, 1, 68, 0
4, 815, Note_on_c, 1, 65, 0
4, 815, Note_on_c, 1, 58, 0
4, 864, Note_on_c, 1, 68, 64
4, 864, Note_on_c, 1, 65, 64
4, 864, Note_on_c, 1, 58, 64
4, 911, Note_on_c, 1, 68, 0
4, 911, Note_on_c, 1, 65, 0
4, 911, Note_on_c, 1, 58, 0
4, 936, Note_on_c, 1, 62, 64
4, 960, Note_on_c, 1, 62, 0
4, 960, Note_on_c, 1, 63, 64
4, 1005, Note_on_c, 1, 63, 0
4, 1080, Note_on_c, 1, 58, 64
4, 1103, Note_on_c, 1, 58, 0
4, 1104, Note_on_c, 1, 60, 64
4, 1127, Note_on_c, 1, 60, 0
4, 1128, Note_on_c, 1, 62, 64
4, 1151, Note_on_c, 1, 62, 0
4, 1152, Note_on_c, 1, 63, 64
4, 1172, Note_on_c, 1, 63, 0
4, 1272, Note_on_c, 1, 58, 75
4, 1295, Note_on_c, 1, 58, 0
4, 1296, Note_on_c, 1, 60, 75
4, 1319, Note_on_c, 1, 60, 0
4, 1320, Note_on_c, 1, 62, 75
4, 1343, Note_on_c, 1, 62, 0
4, 1344, Note_on_c, 1, 63, 75
4, 1364, Note_on_c, 1, 63, 0
4, 1920, Note_on_c, 1, 48, 64
4, 1944, Note_on_c, 1, 48, 0
4, 1944, Note_on_c, 1, 56, 64
4, 1967, Note_on_c, 1, 56, 0
4, 1968, Note_on_c, 1, 48, 64
4, 1992, Note_on_c, 1, 48, 0
4, 1992, Note_on_c, 1, 56, 64
4, 2015, Note_on_c, 1, 56, 0
4, 2016, Note_on_c, 1, 48, 64
4, 2040, Note_on_c, 1, 48, 0
4, 2040, Note_on_c, 1, 56, 64
4, 2063, Note_on_c, 1, 56, 0
4, 2064, Note_on_c, 1, 48, 64
4, 2088, Note_on_c, 1, 48, 0
4, 2088, Note_on_c, 1, 56, 64
4, 2111, Note_on_c, 1, 56, 0
4, 2112, Note_on_c, 1, 46, 64
4, 2136, Note_on_c, 1, 46, 0
4, 2136, Note_on_c, 1, 56, 64
4, 2159, Note_on_c, 1, 56, 0
4, 2160, Note_on_c, 1, 46, 64
4, 2184, Note_on_c, 1, 46, 0
4, 2184, Note_on_c, 1, 56, 64
4, 2207, Note_on_c, 1, 56, 0
4, 2208, Note_on_c, 1, 46, 64
4, 2232, Note_on_c, 1, 46, 0
4, 2232, Note_on_c, 1, 55, 64
4, 2255, Note_on_c, 1, 55, 0
4, 2256, Note_on_c, 1, 46, 64
4, 2280, Note_on_c, 1, 46, 0
4, 2280, Note_on_c, 1, 55, 64
4, 2303, Note_on_c, 1, 55, 0
4, 2304, Note_on_c, 1, 44, 64
4, 2328, Note_on_c, 1, 44, 0
4, 2328, Note_on_c, 1, 55, 64
4, 2351, Note_on_c, 1, 55, 0
4, 2352, Note_on_c, 1, 44, 64
4, 2376, Note_on_c, 1, 44, 0
4, 2376, Note_on_c, 1, 55, 64
4, 2399, Note_on_c, 1, 55, 0
4, 2400, Note_on_c, 1, 44, 64
4, 2424, Note_on_c, 1, 44, 0
4, 2424, Note_on_c, 1, 53, 64
4, 2447, Note_on_c, 1, 53, 0
4, 2448, Note_on_c, 1, 44, 64
4, 2472, Note_on_c, 1, 44, 0
4, 2472, Note_on_c, 1, 53, 64
4, 2495, Note_on_c, 1, 53, 0
4, 2496, Note_on_c, 1, 43, 64
4, 2520, Note_on_c, 1, 43, 0
4, 2520, Note_on_c, 1, 53, 64
4, 2543, Note_on_c, 1, 53, 0
4, 2544, Note_on_c, 1, 43, 64
4, 2568, Note_on_c, 1, 43, 0
4, 2568, Note_on_c, 1, 53, 64
4, 2591, Note_on_c, 1, 53, 0
4, 2592, Note_on_c, 1, 43, 64
4, 2616, Note_on_c, 1, 43, 0
4, 2616, Note_on_c, 1, 51, 64
4, 2639, Note_on_c, 1, 51, 0
4, 2640, Note_on_c, 1, 43, 64
4, 2664, Note_on_c, 1, 43, 0
4, 2664, Note_on_c, 1, 51, 64
4, 2687, Note_on_c, 1, 51, 0
4, 2688, Note_on_c, 1, 41, 64
4, 2712, Note_on_c, 1, 41, 0
4, 2712, Note_on_c, 1, 50, 64
4, 2735, Note_on_c, 1, 50, 0
4, 2736, Note_on_c, 1, 41, 64
4, 2760, Note_on_c, 1, 41, 0
4, 2760, Note_on_c, 1, 50, 64
4, 2783, Note_on_c, 1, 50, 0
4, 2784, Note_on_c, 1, 39, 64
4, 2807, Note_on_c, 1, 39, 0
4, 2808, Note_on_c, 1, 43, 64
4, 2831, Note_on_c, 1, 43, 0
4, 2832, Note_on_c, 1, 46, 64
4, 2855, Note_on_c, 1, 46, 0
4, 2856, Note_on_c, 1, 51, 64
4, 2879, Note_on_c, 1, 51, 0
4, 2880, Note_on_c, 1, 56, 64
4, 2880, Note_on_c, 1, 44, 64
4, 2925, Note_on_c, 1, 56, 0
4, 2925, Note_on_c, 1, 44, 0
4, 2976, Note_on_c, 1, 53, 64
4, 2976, Note_on_c, 1, 46, 64
4, 3021, Note_on_c, 1, 53, 0
4, 3021, Note_on_c, 1, 46, 0
4, 3072, Note_on_c, 1, 39, 80
4, 3078, Note_on_c, 1, 43, 80
4, 3084, Note_on_c, 1, 46, 80
4, 3090, Note_on_c, 1, 51, 80
4, 3165, Note_on_c, 1, 51, 0
4, 3165, Note_on_c, 1, 46, 0
4, 3165, Note_on_c, 1, 43, 0
4, 3165, Note_on_c, 1, 39, 0
4, 3168, Note_on_c, 1, 49, 80
4, 3168, Note_on_c, 1, 46, 80
4, 3168, Note_on_c, 1, 43, 80
4, 3168, Note_on_c, 1, 39, 80
4, 3235, Note_on_c, 1, 49, 0
4, 3235, Note_on_c, 1, 46, 0
4, 3235, Note_on_c, 1, 43, 0
4, 3235, Note_on_c, 1, 39, 0
4, 3240, Note_on_c, 1, 49, 80
4, 3240, Note_on_c, 1, 46, 80
4, 3240, Note_on_c, 1, 43, 80
4, 3240, Note_on_c, 1, 39, 80
4, 3263, Note_on_c, 1, 49, 0
4, 3263, Note_on_c, 1, 46, 0
4, 3263, Note_on_c, 1, 43, 0
4, 3263, Note_on_c, 1, 39, 0
4, 3264, Note_on_c, 1, 39, 80
4, 3270, Note_on_c, 1, 44, 80
4, 3276, Note_on_c, 1, 48, 80
4, 3282, Note_on_c, 1, 51, 80
4, 3445, Note_on_c, 1, 51, 0
4, 3445, Note_on_c, 1, 48, 0
4, 3445, Note_on_c, 1, 44, 0
4, 3445, Note_on_c, 1, 39, 0
4, 3456, Note_on_c, 1, 51, 80
4, 3456, Note_on_c, 1, 53, 80
4, 3456, Note_on_c, 1, 56, 80
4, 3456, Note_on_c, 1, 58, 80
4, 3456, Note_on_c, 1, 62, 80
4, 3596, Note_on_c, 1, 62, 0
4, 3596, Note_on_c, 1, 58, 0
4, 3596, Note_on_c, 1, 56, 0
4, 3596, Note_on_c, 1, 53, 0
4, 3596, Note_on_c, 1, 51, 0
4, 3648, Note_on_c, 1, 39, 80
4, 3730, Note_on_c, 1, 39, 0
4, 3744, Note_on_c, 1, 75, 70
4, 3811, Note_on_c, 1, 75, 0
4, 3816, Note_on_c, 1, 77, 70
4, 3828, Note_on_c, 1, 77, 0
4, 3828, Note_on_c, 1, 75, 70
4, 3840, Note_on_c, 1, 75, 0
4, 3840, Note_on_c, 1, 74, 70
4, 3936, Note_on_c, 1, 74, 0
4, 3936, Note_on_c, 1, 73, 86
4, 4032, Note_on_c, 1, 73, 0
4, 4032, Note_on_c, 1, 72, 70
4, 4195, Note_on_c, 1, 72, 0
4, 4200, Note_on_c, 1, 74, 70
4, 4212, Note_on_c, 1, 74, 0
4, 4212, Note_on_c, 1, 72, 70
4, 4224, Note_on_c, 1, 72, 0
4, 4224, Note_on_c, 1, 70, 86
4, 4387, Note_on_c, 1, 70, 0
4, 4392, Note_on_c, 1, 72, 70
4, 4404, Note_on_c, 1, 72, 0
4, 4404, Note_on_c, 1, 70, 70
4, 4416, Note_on_c, 1, 70, 0
4, 4416, Note_on_c, 1, 69, 70
4, 4505, Note_on_c, 1, 69, 0
4, 4512, Note_on_c, 1, 68, 86
4, 4584, Note_on_c, 1, 68, 0
4, 4584, Note_on_c, 1, 70, 70
4, 4596, Note_on_c, 1, 70, 0
4, 4596, Note_on_c, 1, 68, 70
4, 4608, Note_on_c, 1, 68, 0
4, 4608, Note_on_c, 1, 67, 70
4, 4697, Note_on_c, 1, 67, 0
4, 4704, Note_on_c, 1, 66, 86
4, 4800, Note_on_c, 1, 66, 0
4, 4800, Note_on_c, 1, 65, 70
4, 4889, Note_on_c, 1, 65, 0
4, 4896, Note_on_c, 1, 64, 86
4, 4992, Note_on_c, 1, 64, 0
4, 4992, Note_on_c, 1, 65, 70
4, 5081, Note_on_c, 1, 65, 0
4, 5088, Note_on_c, 1, 63, 83
4, 5155, Note_on_c, 1, 63, 0
4, 5160, Note_on_c, 1, 65, 70
4, 5172, Note_on_c, 1, 65, 0
4, 5172, Note_on_c, 1, 63, 70
4, 5184, Note_on_c, 1, 63, 0
4, 5184, Note_on_c, 1, 61, 70
4, 5229, Note_on_c, 1, 61, 0
4, 5232, Note_on_c, 1, 58, 70
4, 5277, Note_on_c, 1, 58, 0
4, 5280, Note_on_c, 1, 60, 70
4, 5325, Note_on_c, 1, 60, 0
4, 5328, Note_on_c, 1, 61, 70
4, 5373, Note_on_c, 1, 61, 0
4, 5376, Note_on_c, 1, 60, 70
4, 5465, Note_on_c, 1, 60, 0
4, 5472, Note_on_c, 1, 63, 83
4, 5539, Note_on_c, 1, 63, 0
4, 5544, Note_on_c, 1, 65, 70
4, 5556, Note_on_c, 1, 65, 0
4, 5556, Note_on_c, 1, 63, 70
4, 5568, Note_on_c, 1, 63, 0
4, 5568, Note_on_c, 1, 61, 70
4, 5613, Note_on_c, 1, 61, 0
4, 5616, Note_on_c, 1, 58, 70
4, 5661, Note_on_c, 1, 58, 0
4, 5664, Note_on_c, 1, 60, 70
4, 5709, Note_on_c, 1, 60, 0
4, 5712, Note_on_c, 1, 61, 70
4, 5757, Note_on_c, 1, 61, 0
4, 5760, Note_on_c, 1, 60, 64
4, 5849, Note_on_c, 1, 60, 0
4, 5856, Note_on_c, 1, 60, 68
4, 5856, Note_on_c, 1, 57, 68
4, 5945, Note_on_c, 1, 60, 0
4, 5945, Note_on_c, 1, 57, 0
4, 5952, Note_on_c, 1, 61, 72
4, 5952, Note_on_c, 1, 58, 72
4, 6041, Note_on_c, 1, 61, 0
4, 6041, Note_on_c, 1, 58, 0
4, 6048, Note_on_c, 1, 60, 76
4, 6048, Note_on_c, 1, 57, 76
4, 6137, Note_on_c, 1, 60, 0
4, 6137, Note_on_c, 1, 57, 0
4, 6144, Note_on_c, 1, 46, 80
4, 6150, Note_on_c, 1, 50, 80
4, 6156, Note_on_c, 1, 53, 80
4, 6162, Note_on_c, 1, 58, 80
4, 6237, Note_on_c, 1, 58, 0
4, 6237, Note_on_c, 1, 53, 0
4, 6237, Note_on_c, 1, 50, 0
4, 6237, Note_on_c, 1, 46, 0
4, 6240, Note_on_c, 1, 46, 80
4, 6240, Note_on_c, 1, 50, 80
4, 6240, Note_on_c, 1, 53, 80
4, 6240, Note_on_c, 1, 56, 80
4, 6329, Note_on_c, 1, 56, 0
4, 6329, Note_on_c, 1, 53, 0
4, 6329, Note_on_c, 1, 50, 0
4, 6329, Note_on_c, 1, 46, 0
4, 6336, Note_on_c, 1, 46, 80
4, 6342, Note_on_c, 1, 51, 80
4, 6348, Note_on_c, 1, 55, 80
4, 6354, Note_on_c, 1, 58, 80
4, 6517, Note_on_c, 1, 58, 0
4, 6517, Note_on_c, 1, 55, 0
4, 6517, Note_on_c, 1, 51, 0
4, 6517, Note_on_c, 1, 46, 0
4, 6528, Note_on_c, 1, 57, 80
4, 6528, Note_on_c, 1, 51, 80
4, 6528, Note_on_c, 1, 48, 80
4, 6528, Note_on_c, 1, 46, 80
4, 6705, Note_on_c, 1, 57, 0
4, 6705, Note_on_c, 1, 51, 0
4, 6705, Note_on_c, 1, 48, 0
4, 6705, Note_on_c, 1, 46, 0
4, 6720, Note_on_c, 1, 58, 80
4, 6720, Note_on_c, 1, 53, 80
4, 6720, Note_on_c, 1, 50, 80
4, 6720, Note_on_c, 1, 46, 80
4, 6809, Note_on_c, 1, 58, 0
4, 6809, Note_on_c, 1, 53, 0
4, 6809, Note_on_c, 1, 50, 0
4, 6809, Note_on_c, 1, 46, 0
4, 6912, Note_on_c, 1, 57, 80
4, 6912, Note_on_c, 1, 51, 80
4, 6912, Note_on_c, 1, 48, 80
4, 6912, Note_on_c, 1, 46, 80
4, 7089, Note_on_c, 1, 57, 0
4, 7089, Note_on_c, 1, 51, 0
4, 7089, Note_on_c, 1, 48, 0
4, 7089, Note_on_c, 1, 46, 0
4, 7104, Note_on_c, 1, 58, 80
4, 7104, Note_on_c, 1, 53, 80
4, 7104, Note_on_c, 1, 50, 80
4, 7104, Note_on_c, 1, 46, 80
4, 7193, Note_on_c, 1, 58, 0
4, 7193, Note_on_c, 1, 53, 0
4, 7193, Note_on_c, 1, 50, 0
4, 7193, Note_on_c, 1, 46, 0
4, 7296, Note_on_c, 1, 51, 75
4, 7319, Note_on_c, 1, 51, 0
4, 7320, Note_on_c, 1, 55, 75
4, 7343, Note_on_c, 1, 55, 0
4, 7344, Note_on_c, 1, 57, 75
4, 7367, Note_on_c, 1, 57, 0
4, 7368, Note_on_c, 1, 59, 75
4, 7391, Note_on_c, 1, 59, 0
4, 7392, Note_on_c, 1, 60, 75
4, 7459, Note_on_c, 1, 60, 0
4, 7464, Note_on_c, 1, 58, 75
4, 7487, Note_on_c, 1, 58, 0
4, 7488, Note_on_c, 1, 57, 75
4, 7511, Note_on_c, 1, 57, 0
4, 7512, Note_on_c, 1, 65, 75
4, 7535, Note_on_c, 1, 65, 0
4, 7536, Note_on_c, 1, 67, 75
4, 7559, Note_on_c, 1, 67, 0
4, 7560, Note_on_c, 1, 69, 75
4, 7583, Note_on_c, 1, 69, 0
4, 7584, Note_on_c, 1, 70, 75
4, 7673, Note_on_c, 1, 70, 0
4, 7680, Note_on_c, 1, 72, 75
4, 7680, Note_on_c, 1, 70, 75
4, 7680, Note_on_c, 1, 67, 75
4, 7857, Note_on_c, 1, 72, 0
4, 7857, Note_on_c, 1, 70, 0
4, 7857, Note_on_c, 1, 67, 0
4, 7872, Note_on_c, 1, 73, 70
4, 7872, Note_on_c, 1, 67, 70
4, 8064, Note_on_c, 1, 73, 0
4, 8241, Note_on_c, 1, 67, 0
4, 8256, Note_on_c, 1, 69, 70
4, 8256, Note_on_c, 1, 65, 70
4, 8389, Note_on_c, 1, 69, 0
4, 8389, Note_on_c, 1, 65, 0
4, 8400, Note_on_c, 1, 67, 83
4, 8400, Note_on_c, 1, 63, 83
4, 8400, Note_on_c, 1, 58, 83
4, 8400, Note_on_c, 1, 55, 83
4, 8445, Note_on_c, 1, 67, 0
4, 8445, Note_on_c, 1, 63, 0
4, 8445, Note_on_c, 1, 58, 0
4, 8445, Note_on_c, 1, 55, 0
4, 8448, Note_on_c, 1, 69, 80
4, 8448, Note_on_c, 1, 65, 80
4, 8592, Note_on_c, 1, 69, 0
4, 8592, Note_on_c, 1, 65, 0
4, 8592, Note_on_c, 1, 60, 82
4, 8592, Note_on_c, 1, 55, 82
4, 8592, Note_on_c, 1, 51, 82
4, 8637, Note_on_c, 1, 60, 0
4, 8637, Note_on_c, 1, 55, 0
4, 8637, Note_on_c, 1, 51, 0
4, 8640, Note_on_c, 1, 65, 87
4, 8640, Note_on_c, 1, 62, 87
4, 8784, Note_on_c, 1, 65, 0
4, 8784, Note_on_c, 1, 62, 0
4, 8784, Note_on_c, 1, 62, 89
4, 8784, Note_on_c, 1, 58, 89
4, 8784, Note_on_c, 1, 53, 89
4, 8784, Note_on_c, 1, 50, 89
4, 8829, Note_on_c, 1, 62, 0
4, 8829, Note_on_c, 1, 58, 0
4, 8829, Note_on_c, 1, 53, 0
4, 8829, Note_on_c, 1, 50, 0
4, 8832, Note_on_c, 1, 60, 78
4, 8832, Note_on_c, 1, 57, 78
4, 8832, Note_on_c, 1, 53, 78
4, 8832, Note_on_c, 1, 51, 78
4, 8877, Note_on_c, 1, 60, 0
4, 8877, Note_on_c, 1, 57, 0
4, 8877, Note_on_c, 1, 53, 0
4, 8877, Note_on_c, 1, 51, 0
4, 8928, Note_on_c, 1, 62, 75
4, 8928, Note_on_c, 1, 58, 75
4, 8928, Note_on_c, 1, 53, 75
4, 8928, Note_on_c, 1, 50, 75
4, 8973, Note_on_c, 1, 62, 0
4, 8973, Note_on_c, 1, 58, 0
4, 8973, Note_on_c, 1, 53, 0
4, 8973, Note_on_c, 1, 50, 0
4, 9024, Note_on_c, 1, 60, 70
4, 9024, Note_on_c, 1, 57, 70
4, 9024, Note_on_c, 1, 53, 70
4, 9024, Note_on_c, 1, 51, 70
4, 9069, Note_on_c, 1, 60, 0
4, 9069, Note_on_c, 1, 57, 0
4, 9069, Note_on_c, 1, 53, 0
4, 9069, Note_on_c, 1, 51, 0
4, 9120, Note_on_c, 1, 62, 75
4, 9120, Note_on_c, 1, 58, 75
4, 9120, Note_on_c, 1, 53, 75
4, 9120, Note_on_c, 1, 50, 75
4, 9165, Note_on_c, 1, 62, 0
4, 9165, Note_on_c, 1, 58, 0
4, 9165, Note_on_c, 1, 53, 0
4, 9165, Note_on_c, 1, 50, 0
4, 9216, Note_on_c, 1, 62, 80
4, 9216, Note_on_c, 1, 58, 80
4, 9216, Note_on_c, 1, 56, 80
4, 9216, Note_on_c, 1, 53, 80
4, 9216, Note_on_c, 1, 50, 80
4, 9393, Note_on_c, 1, 62, 0
4, 9393, Note_on_c, 1, 58, 0
4, 9393, Note_on_c, 1, 56, 0
4, 9393, Note_on_c, 1, 53, 0
4, 9393, Note_on_c, 1, 50, 0
4, 9408, Note_on_c, 1, 63, 80
4, 9408, Note_on_c, 1, 58, 80
4, 9408, Note_on_c, 1, 55, 80
4, 9408, Note_on_c, 1, 51, 80
4, 9497, Note_on_c, 1, 63, 0
4, 9497, Note_on_c, 1, 58, 0
4, 9497, Note_on_c, 1, 55, 0
4, 9497, Note_on_c, 1, 51, 0
4, 9648, Note_on_c, 1, 66, 70
4, 9658, Note_on_c, 1, 66, 0
4, 9672, Note_on_c, 1, 69, 73
4, 9682, Note_on_c, 1, 69, 0
4, 9696, Note_on_c, 1, 67, 76
4, 9706, Note_on_c, 1, 67, 0
4, 9720, Note_on_c, 1, 70, 80
4, 9730, Note_on_c, 1, 70, 0
4, 9744, Note_on_c, 1, 67, 80
4, 9759, Note_on_c, 1, 67, 0
4, 9760, Note_on_c, 1, 63, 80
4, 9775, Note_on_c, 1, 63, 0
4, 9776, Note_on_c, 1, 60, 80
4, 9791, Note_on_c, 1, 60, 0
4, 9792, Note_on_c, 1, 62, 80
4, 9881, Note_on_c, 1, 62, 0
4, 9888, Note_on_c, 1, 63, 80
4, 9977, Note_on_c, 1, 63, 0
4, 9984, Note_on_c, 1, 62, 80
4, 9984, Note_on_c, 1, 58, 80
4, 10029, Note_on_c, 1, 62, 0
4, 10029, Note_on_c, 1, 58, 0
4, 10080, Note_on_c, 1, 74, 64
4, 10080, Note_on_c, 1, 70, 64
4, 10100, Note_on_c, 1, 74, 0
4, 10100, Note_on_c, 1, 70, 0
4, 10128, Note_on_c, 1, 72, 64
4, 10128, Note_on_c, 1, 65, 64
4, 10148, Note_on_c, 1, 72, 0
4, 10148, Note_on_c, 1, 65, 0
4, 10176, Note_on_c, 1, 70, 64
4, 10176, Note_on_c, 1, 62, 64
4, 10221, Note_on_c, 1, 70, 0
4, 10221, Note_on_c, 1, 62, 0
4, 10272, Note_on_c, 1, 74, 58
4, 10272, Note_on_c, 1, 70, 58
4, 10292, Note_on_c, 1, 74, 0
4, 10292, Note_on_c, 1, 70, 0
4, 10320, Note_on_c, 1, 72, 58
4, 10320, Note_on_c, 1, 65, 58
4, 10340, Note_on_c, 1, 72, 0
4, 10340, Note_on_c, 1, 65, 0
4, 10368, Note_on_c, 1, 70, 58
4, 10368, Note_on_c, 1, 62, 58
4, 10413, Note_on_c, 1, 70, 0
4, 10413, Note_on_c, 1, 62, 0
4, 10464, Note_on_c, 1, 70, 58
4, 10464, Note_on_c, 1, 62, 58
4, 10509, Note_on_c, 1, 70, 0
4, 10509, Note_on_c, 1, 62, 0
4, 10512, Note_on_c, 1, 70, 64
4, 10512, Note_on_c, 1, 62, 64
4, 10557, Note_on_c, 1, 70, 0
4, 10557, Note_on_c, 1, 62, 0
4, 10560, Note_on_c, 1, 70, 64
4, 10605, Note_on_c, 1, 70, 0
4, 10608, Note_on_c, 1, 67, 65
4, 10653, Note_on_c, 1, 67, 0
4, 10656, Note_on_c, 1, 72, 67
4, 10885, Note_on_c, 1, 72, 0
4, 10896, Note_on_c, 1, 65, 77
4, 10941, Note_on_c, 1, 65, 0
4, 10944, Note_on_c, 1, 61, 79
4, 10944, Note_on_c, 1, 58, 79
4, 10967, Note_on_c, 1, 61, 0
4, 10967, Note_on_c, 1, 58, 0
4, 10968, Note_on_c, 1, 65, 80
4, 10991, Note_on_c, 1, 65, 0
4, 10992, Note_on_c, 1, 61, 80
4, 10992, Note_on_c, 1, 58, 80
4, 11015, Note_on_c, 1, 61, 0
4, 11015, Note_on_c, 1, 58, 0
4, 11016, Note_on_c, 1, 65, 80
4, 11039, Note_on_c, 1, 65, 0
4, 11040, Note_on_c, 1, 60, 80
4, 11040, Note_on_c, 1, 57, 80
4, 11063, Note_on_c, 1, 60, 0
4, 11063, Note_on_c, 1, 57, 0
4, 11064, Note_on_c, 1, 65, 76
4, 11087, Note_on_c, 1, 65, 0
4, 11088, Note_on_c, 1, 60, 72
4, 11088, Note_on_c, 1, 57, 72
4, 11111, Note_on_c, 1, 60, 0
4, 11111, Note_on_c, 1, 57, 0
4, 11112, Note_on_c, 1, 65, 68
4, 11135, Note_on_c, 1, 65, 0
4, 11136, Note_on_c, 1, 61, 70
4, 11136, Note_on_c, 1, 58, 70
4, 11159, Note_on_c, 1, 61, 0
4, 11159, Note_on_c, 1, 58, 0
4, 11160, Note_on_c, 1, 65, 70
4, 11183, Note_on_c, 1, 65, 0
4, 11184, Note_on_c, 1, 61, 70
4, 11184, Note_on_c, 1, 58, 70
4, 11207, Note_on_c, 1, 61, 0
4, 11207, Note_on_c, 1, 58, 0
4, 11208, Note_on_c, 1, 65, 70
4, 11231, Note_on_c, 1, 65, 0
4, 11232, Note_on_c, 1, 60, 70
4, 11232, Note_on_c, 1, 57, 70
4, 11255, Note_on_c, 1, 60, 0
4, 11255, Note_on_c, 1, 57, 0
4, 11256, Note_on_c, 1, 65, 72
4, 11279, Note_on_c, 1, 65, 0
4, 11280, Note_on_c, 1, 60, 75
4, 11280, Note_on_c, 1, 57, 75
4, 11303, Note_on_c, 1, 60, 0
4, 11303, Note_on_c, 1, 57, 0
4, 11304, Note_on_c, 1, 65, 77
4, 11327, Note_on_c, 1, 65, 0
4, 11328, Note_on_c, 1, 61, 80
4, 11328, Note_on_c, 1, 49, 80
4, 11373, Note_on_c, 1, 61, 0
4, 11373, Note_on_c, 1, 49, 0
4, 11376, Note_on_c, 1, 58, 80
4, 11376, Note_on_c, 1, 46, 80
4, 11421, Note_on_c, 1, 58, 0
4, 11421, Note_on_c, 1, 46, 0
4, 11424, Note_on_c, 1, 54, 80
4, 11424, Note_on_c, 1, 42, 80
4, 11469, Note_on_c, 1, 54, 0
4, 11469, Note_on_c, 1, 42, 0
4, 11472, Note_on_c, 1, 51, 80
4, 11472, Note_on_c, 1, 39, 80
4, 11517, Note_on_c, 1, 51, 0
4, 11517, Note_on_c, 1, 39, 0
4, 11520, Note_on_c, 1, 48, 80
4, 11520, Note_on_c, 1, 36, 80
4, 11609, Note_on_c, 1, 48, 0
4, 11609, Note_on_c, 1, 36, 0
4, 11616, Note_on_c, 1, 46, 80
4, 11616, Note_on_c, 1, 34, 80
4, 11705, Note_on_c, 1, 46, 0
4, 11705, Note_on_c, 1, 34, 0
4, 11712, Note_on_c, 1, 45, 80
4, 11712, Note_on_c, 1, 33, 80
4, 11801, Note_on_c, 1, 45, 0
4, 11801, Note_on_c, 1, 33, 0
4, 11808, Note_on_c, 1, 42, 75
4, 11808, Note_on_c, 1, 30, 75
4, 11897, Note_on_c, 1, 42, 0
4, 11897, Note_on_c, 1, 30, 0
4, 11904, Note_on_c, 1, 41, 70
4, 11904, Note_on_c, 1, 29, 70
4, 12258, Note_on_c, 1, 41, 0
4, 12258, Note_on_c, 1, 29, 0
4, 12288, Note_on_c, 1, 65, 80
4, 12288, Note_on_c, 1, 62, 80
4, 12288, Note_on_c, 1, 58, 80
4, 12377, Note_on_c, 1, 65, 0
4, 12377, Note_on_c, 1, 62, 0
4, 12377, Note_on_c, 1, 58, 0
4, 12384, Note_on_c, 1, 57, 80
4, 12392, Note_on_c, 1, 60, 80
4, 12400, Note_on_c, 1, 65, 80
4, 12477, Note_on_c, 1, 65, 0
4, 12477, Note_on_c, 1, 60, 0
4, 12477, Note_on_c, 1, 57, 0
4, 12480, Note_on_c, 1, 55, 80
4, 12488, Note_on_c, 1, 58, 80
4, 12496, Note_on_c, 1, 63, 80
4, 12661, Note_on_c, 1, 63, 0
4, 12661, Note_on_c, 1, 58, 0
4, 12661, Note_on_c, 1, 55, 0
4, 12672, Note_on_c, 1, 70, 80
4, 12672, Note_on_c, 1, 67, 80
4, 12692, Note_on_c, 1, 70, 0
4, 12692, Note_on_c, 1, 67, 0
4, 12744, Note_on_c, 1, 70, 80
4, 12744, Note_on_c, 1, 65, 80
4, 12767, Note_on_c, 1, 70, 0
4, 12767, Note_on_c, 1, 65, 0
4, 12768, Note_on_c, 1, 70, 80
4, 12768, Note_on_c, 1, 63, 80
4, 12788, Note_on_c, 1, 70, 0
4, 12788, Note_on_c, 1, 63, 0
4, 12840, Note_on_c, 1, 65, 80
4, 12840, Note_on_c, 1, 61, 80
4, 12863, Note_on_c, 1, 65, 0
4, 12863, Note_on_c, 1, 61, 0
4, 12864, Note_on_c, 1, 67, 80
4, 12864, Note_on_c, 1, 60, 80
4, 12903, Note_on_c, 1, 67, 0
4, 12903, Note_on_c, 1, 60, 0
4, 13080, Note_on_c, 1, 65, 64
4, 13080, Note_on_c, 1, 62, 64
4, 13104, Note_on_c, 1, 65, 0
4, 13104, Note_on_c, 1, 62, 0
4, 13104, Note_on_c, 1, 63, 64
4, 13104, Note_on_c, 1, 60, 64
4, 13127, Note_on_c, 1, 63, 0
4, 13127, Note_on_c, 1, 60, 0
4, 13128, Note_on_c, 1, 62, 64
4, 13128, Note_on_c, 1, 58, 64
4, 13151, Note_on_c, 1, 62, 0
4, 13151, Note_on_c, 1, 58, 0
4, 13152, Note_on_c, 1, 60, 64
4, 13152, Note_on_c, 1, 57, 64
4, 13191, Note_on_c, 1, 60, 0
4, 13191, Note_on_c, 1, 57, 0
4, 13272, Note_on_c, 1, 65, 64
4, 13272, Note_on_c, 1, 62, 64
4, 13295, Note_on_c, 1, 65, 0
4, 13295, Note_on_c, 1, 62, 0
4, 13296, Note_on_c, 1, 63, 64
4, 13296, Note_on_c, 1, 60, 64
4, 13319, Note_on_c, 1, 63, 0
4, 13319, Note_on_c, 1, 60, 0
4, 13320, Note_on_c, 1, 62, 64
4, 13320, Note_on_c, 1, 58, 64
4, 13343, Note_on_c, 1, 62, 0
4, 13343, Note_on_c, 1, 58, 0
4, 13344, Note_on_c, 1, 60, 64
4, 13344, Note_on_c, 1, 57, 64
4, 13354, Note_on_c, 1, 60, 0
4, 13354, Note_on_c, 1, 57, 0
4, 13368, Note_on_c, 1, 65, 64
4, 13391, Note_on_c, 1, 65, 0
4, 13392, Note_on_c, 1, 67, 69
4, 13415, Note_on_c, 1, 67, 0
4, 13416, Note_on_c, 1, 69, 74
4, 13439, Note_on_c, 1, 69, 0
4, 13440, Note_on_c, 1, 70, 80
4, 13450, Note_on_c, 1, 70, 0
4, 13464, Note_on_c, 1, 74, 80
4, 13487, Note_on_c, 1, 74, 0
4, 13488, Note_on_c, 1, 72, 80
4, 13511, Note_on_c, 1, 72, 0
4, 13512, Note_on_c, 1, 70, 80
4, 13535, Note_on_c, 1, 70, 0
4, 13536, Note_on_c, 1, 69, 80
4, 13559, Note_on_c, 1, 69, 0
4, 13560, Note_on_c, 1, 70, 80
4, 13560, Note_on_c, 1, 67, 80
4, 13583, Note_on_c, 1, 70, 0
4, 13583, Note_on_c, 1, 67, 0
4, 13584, Note_on_c, 1, 69, 80
4, 13584, Note_on_c, 1, 65, 80
4, 13607, Note_on_c, 1, 69, 0
4, 13607, Note_on_c, 1, 65, 0
4, 13608, Note_on_c, 1, 67, 80
4, 13608, Note_on_c, 1, 63, 80
4, 13631, Note_on_c, 1, 67, 0
4, 13631, Note_on_c, 1, 63, 0
4, 13632, Note_on_c, 1, 65, 96
4, 13632, Note_on_c, 1, 62, 96
4, 13728, Note_on_c, 1, 65, 0
4, 13728, Note_on_c, 1, 62, 0
4, 13728, Note_on_c, 1, 67, 70
4, 13728, Note_on_c, 1, 63, 70
4, 13748, Note_on_c, 1, 67, 0
4, 13748, Note_on_c, 1, 63, 0
4, 13824, Note_on_c, 1, 63, 96
4, 13824, Note_on_c, 1, 60, 96
4, 13920, Note_on_c, 1, 63, 0
4, 13920, Note_on_c, 1, 60, 0
4, 13920, Note_on_c, 1, 62, 70
4, 13940, Note_on_c, 1, 62, 0
4, 14400, Note_on_c, 1, 42, 75
4, 14400, Note_on_c, 1, 30, 75
4, 14577, Note_on_c, 1, 42, 0
4, 14577, Note_on_c, 1, 30, 0
4, 14592, Control_c, 1, 64, 127
4, 14592, Note_on_c, 1, 29, 80
4, 14604, Note_on_c, 1, 29, 0
4, 14604, Note_on_c, 1, 41, 80
4, 14616, Note_on_c, 1, 41, 0
4, 14616, Note_on_c, 1, 29, 80
4, 14628, Note_on_c, 1, 29, 0
4, 14628, Note_on_c, 1, 41, 80
4, 14640, Note_on_c, 1, 41, 0
4, 14640, Note_on_c, 1, 29, 80
4, 14652, Note_on_c, 1, 29, 0
4, 14652, Note_on_c, 1, 41, 80
4, 14664, Note_on_c, 1, 41, 0
4, 14664, Note_on_c, 1, 29, 80
4, 14676, Note_on_c, 1, 29, 0
4, 14676, Note_on_c, 1, 41, 80
4, 14688, Note_on_c, 1, 41, 0
4, 14688, Note_on_c, 1, 29, 80
4, 14700, Note_on_c, 1, 29, 0
4, 14700, Note_on_c, 1, 41, 80
4, 14712, Note_on_c, 1, 41, 0
4, 14712, Note_on_c, 1, 29, 80
4, 14724, Note_on_c, 1, 29, 0
4, 14724, Note_on_c, 1, 41, 80
4, 14736, Note_on_c, 1, 41, 0
4, 14736, Note_on_c, 1, 29, 80
4, 14748, Note_on_c, 1, 29, 0
4, 14748, Note_on_c, 1, 41, 80
4, 14760, Note_on_c, 1, 41, 0
4, 14760, Note_on_c, 1, 29, 80
4, 14772, Note_on_c, 1, 29, 0
4, 14772, Note_on_c, 1, 41, 80
4, 14784, Note_on_c, 1, 41, 0
4, 14784, Note_on_c, 1, 29, 80
4, 14829, Note_on_c, 1, 29, 0
4, 14832, Control_c, 1, 64, 0
4, 14880, Note_on_c, 1, 63, 80
4, 14880, Note_on_c, 1, 60, 80
4, 14880, Note_on_c, 1, 57, 80
4, 14880, Note_on_c, 1, 53, 80
4, 14925, Note_on_c, 1, 63, 0
4, 14925, Note_on_c, 1, 60, 0
4, 14925, Note_on_c, 1, 57, 0
4, 14925, Note_on_c, 1, 53, 0
4, 14976, Note_on_c, 1, 58, 80
4, 14976, Note_on_c, 1, 53, 80
4, 14976, Note_on_c, 1, 50, 80
4, 14976, Note_on_c, 1, 46, 80
4, 15021, Note_on_c, 1, 58, 0
4, 15021, Note_on_c, 1, 53, 0
4, 15021, Note_on_c, 1, 50, 0
4, 15021, Note_on_c, 1, 46, 0
4, 15072, Note_on_c, 1, 57, 75
4, 15072, Note_on_c, 1, 51, 75
4, 15072, Note_on_c, 1, 48, 75
4, 15072, Note_on_c, 1, 46, 75
4, 15117, Note_on_c, 1, 57, 0
4, 15117, Note_on_c, 1, 51, 0
4, 15117, Note_on_c, 1, 48, 0
4, 15117, Note_on_c, 1, 46, 0
4, 15168, Note_on_c, 1, 58, 70
4, 15168, Note_on_c, 1, 53, 70
4, 15168, Note_on_c, 1, 50, 70
4, 15168, Note_on_c, 1, 46, 70
4, 15213, Note_on_c, 1, 58, 0
4, 15213, Note_on_c, 1, 53, 0
4, 15213, Note_on_c, 1, 50, 0
4, 15213, Note_on_c, 1, 46, 0
4, 15264, Note_on_c, 1, 57, 70
4, 15264, Note_on_c, 1, 51, 70
4, 15264, Note_on_c, 1, 48, 70
4, 15264, Note_on_c, 1, 46, 70
4, 15309, Note_on_c, 1, 57, 0
4, 15309, Note_on_c, 1, 51, 0
4, 15309, Note_on_c, 1, 48, 0
4, 15309, Note_on_c, 1, 46, 0
4, 15360, Note_on_c, 1, 46, 70
4, 15360, Note_on_c, 1, 34, 70
4, 15405, Note_on_c, 1, 46, 0
4, 15405, Note_on_c, 1, 34, 0
4, 15408, Note_on_c, 1, 50, 70
4, 15408, Note_on_c, 1, 38, 70
4, 15453, Note_on_c, 1, 50, 0
4, 15453, Note_on_c, 1, 38, 0
4, 15456, Note_on_c, 1, 53, 71
4, 15456, Note_on_c, 1, 41, 71
4, 15501, Note_on_c, 1, 53, 0
4, 15501, Note_on_c, 1, 41, 0
4, 15504, Note_on_c, 1, 58, 72
4, 15504, Note_on_c, 1, 46, 72
4, 15549, Note_on_c, 1, 58, 0
4, 15549, Note_on_c, 1, 46, 0
4, 15552, Note_on_c, 1, 62, 73
4, 15552, Note_on_c, 1, 50, 73
4, 15597, Note_on_c, 1, 62, 0
4, 15597, Note_on_c, 1, 50, 0
4, 15600, Note_on_c, 1, 65, 75
4, 15600, Note_on_c, 1, 53, 75
4, 15645, Note_on_c, 1, 65, 0
4, 15645, Note_on_c, 1, 53, 0
4, 15648, Note_on_c, 1, 70, 76
4, 15648, Note_on_c, 1, 58, 76
4, 15693, Note_on_c, 1, 70, 0
4, 15693, Note_on_c, 1, 58, 0
4, 15696, Note_on_c, 1, 75, 77
4, 15696, Note_on_c, 1, 65, 77
4, 15741, Note_on_c, 1, 75, 0
4, 15741, Note_on_c, 1, 65, 0
4, 15744, Note_on_c, 1, 74, 78
4, 15744, Note_on_c, 1, 70, 78
4, 15789, Note_on_c, 1, 74, 0
4, 15789, Note_on_c, 1, 70, 0
4, 15792, Note_on_c, 1, 75, 80
4, 15792, Note_on_c, 1, 65, 80
4, 15837, Note_on_c, 1, 75, 0
4, 15837, Note_on_c, 1, 65, 0
4, 15840, Note_on_c, 1, 74, 80
4, 15840, Note_on_c, 1, 70, 80
4, 15885, Note_on_c, 1, 74, 0
4, 15885, Note_on_c, 1, 70, 0
4, 15888, Note_on_c, 1, 75, 80
4, 15888, Note_on_c, 1, 65, 80
4, 15933, Note_on_c, 1, 75, 0
4, 15933, Note_on_c, 1, 65, 0
4, 15936, Control_c, 1, 64, 127
4, 15936, Note_on_c, 1, 70, 80
4, 15948, Note_on_c, 1, 70, 0
4, 15948, Note_on_c, 1, 74, 79
4, 15960, Note_on_c, 1, 74, 0
4, 15960, Note_on_c, 1, 70, 78
4, 15972, Note_on_c, 1, 70, 0
4, 15972, Note_on_c, 1, 74, 77
4, 15984, Note_on_c, 1, 74, 0
4, 15984, Note_on_c, 1, 70, 76
4, 15996, Note_on_c, 1, 70, 0
4, 15996, Note_on_c, 1, 74, 76
4, 16008, Note_on_c, 1, 74, 0
4, 16008, Note_on_c, 1, 70, 75
4, 16020, Note_on_c, 1, 70, 0
4, 16020, Note_on_c, 1, 74, 74
4, 16032, Note_on_c, 1, 74, 0
4, 16032, Note_on_c, 1, 70, 73
4, 16044, Note_on_c, 1, 70, 0
4, 16044, Note_on_c, 1, 74, 72
4, 16056, Note_on_c, 1, 74, 0
4, 16056, Note_on_c, 1, 70, 72
4, 16068, Note_on_c, 1, 70, 0
4, 16068, Note_on_c, 1, 74, 71
4, 16080, Note_on_c, 1, 74, 0
4, 16080, Note_on_c, 1, 70, 70
4, 16092, Note_on_c, 1, 70, 0
4, 16092, Note_on_c, 1, 74, 69
4, 16104, Note_on_c, 1, 74, 0
4, 16104, Note_on_c, 1, 70, 68
4, 16116, Note_on_c, 1, 70, 0
4, 16116, Note_on_c, 1, 74, 68
4, 16128, Note_on_c, 1, 74, 0
4, 16128, Note_on_c, 1, 70, 67
4, 16173, Note_on_c, 1, 70, 0
4, 16176, Control_c, 1, 64, 0
4, 16224, Note_on_c, 1, 74, 64
4, 16224, Note_on_c, 1, 70, 64
4, 16269, Note_on_c, 1, 74, 0
4, 16269, Note_on_c, 1, 70, 0
4, 16320, Note_on_c, 1, 74, 64
4, 16320, Note_on_c, 1, 70, 64
4, 16365, Note_on_c, 1, 74, 0
4, 16365, Note_on_c, 1, 70, 0
4, 16512, Note_on_c, 1, 39, 80
4, 16518, Note_on_c, 1, 43, 80
4, 16524, Note_on_c, 1, 46, 80
4, 16530, Note_on_c, 1, 51, 80
4, 16605, Note_on_c, 1, 51, 0
4, 16605, Note_on_c, 1, 46, 0
4, 16605, Note_on_c, 1, 43, 0
4, 16605, Note_on_c, 1, 39, 0
4, 16608, Note_on_c, 1, 49, 80
4, 16608, Note_on_c, 1, 46, 80
4, 16608, Note_on_c, 1, 43, 80
4, 16608, Note_on_c, 1, 39, 80
4, 16675, Note_on_c, 1, 49, 0
4, 16675, Note_on_c, 1, 46, 0
4, 16675, Note_on_c, 1, 43, 0
4, 16675, Note_on_c, 1, 39, 0
4, 16680, Note_on_c, 1, 49, 80
4, 16680, Note_on_c, 1, 46, 80
4, 16680, Note_on_c, 1, 43, 80
4, 16680, Note_on_c, 1, 39, 80
4, 16703, Note_on_c, 1, 49, 0
4, 16703, Note_on_c, 1, 46, 0
4, 16703, Note_on_c, 1, 43, 0
4, 16703, Note_on_c, 1, 39, 0
4, 16704, Note_on_c, 1, 39, 80
4, 16710, Note_on_c, 1, 44, 80
4, 16716, Note_on_c, 1, 48, 80
4, 16722, Note_on_c, 1, 51, 80
4, 16885, Note_on_c, 1, 51, 0
4, 16885, Note_on_c, 1, 48, 0
4, 16885, Note_on_c, 1, 44, 0
4, 16885, Note_on_c, 1, 39, 0
4, 16896, Note_on_c, 1, 39, 80
4, 16902, Note_on_c, 1, 41, 80
4, 16908, Note_on_c, 1, 44, 80
4, 16914, Note_on_c, 1, 50, 80
4, 16989, Note_on_c, 1, 50, 0
4, 16989, Note_on_c, 1, 44, 0
4, 16989, Note_on_c, 1, 41, 0
4, 16989, Note_on_c, 1, 39, 0
4, 16992, Note_on_c, 1, 39, 80
4, 16998, Note_on_c, 1, 41, 80
4, 17004, Note_on_c, 1, 44, 80
4, 17010, Note_on_c, 1, 50, 80
4, 17085, Note_on_c, 1, 50, 0
4, 17085, Note_on_c, 1, 44, 0
4, 17085, Note_on_c, 1, 41, 0
4, 17085, Note_on_c, 1, 39, 0
4, 17088, Note_on_c, 1, 39, 80
4, 17094, Note_on_c, 1, 43, 80
4, 17100, Note_on_c, 1, 46, 80
4, 17106, Note_on_c, 1, 51, 80
4, 17203, Note_on_c, 1, 51, 0
4, 17203, Note_on_c, 1, 46, 0
4, 17203, Note_on_c, 1, 43, 0
4, 17203, Note_on_c, 1, 39, 0
4, 17280, Note_on_c, 1, 68, 64
4, 17280, Note_on_c, 1, 65, 64
4, 17280, Note_on_c, 1, 58, 64
4, 17327, Note_on_c, 1, 68, 0
4, 17327, Note_on_c, 1, 65, 0
4, 17327, Note_on_c, 1, 58, 0
4, 17376, Note_on_c, 1, 68, 64
4, 17376, Note_on_c, 1, 65, 64
4, 17376, Note_on_c, 1, 58, 64
4, 17423, Note_on_c, 1, 68, 0
4, 17423, Note_on_c, 1, 65, 0
4, 17423, Note_on_c, 1, 58, 0
4, 17448, Note_on_c, 1, 62, 64
4, 17472, Note_on_c, 1, 62, 0
4, 17472, Note_on_c, 1, 63, 64
4, 17517, Note_on_c, 1, 63, 0
4, 17592, Note_on_c, 1, 58, 64
4, 17615, Note_on_c, 1, 58, 0
4, 17616, Note_on_c, 1, 60, 64
4, 17639, Note_on_c, 1, 60, 0
4, 17640, Note_on_c, 1, 62, 64
4, 17663, Note_on_c, 1, 62, 0
4, 17664, Note_on_c, 1, 63, 64
4, 17684, Note_on_c, 1, 63, 0
4, 17784, Note_on_c, 1, 58, 75
4, 17807, Note_on_c, 1, 58, 0
4, 17808, Note_on_c, 1, 60, 75
4, 17831, Note_on_c, 1, 60, 0
4, 17832, Note_on_c, 1, 62, 75
4, 17855, Note_on_c, 1, 62, 0
4, 17856, Note_on_c, 1, 63, 75
4, 17876, Note_on_c, 1, 63, 0
4, 18432, Note_on_c, 1, 48, 64
4, 18456, Note_on_c, 1, 48, 0
4, 18456, Note_on_c, 1, 56, 64
4, 18479, Note_on_c, 1, 56, 0
4, 18480, Note_on_c, 1, 48, 64
4, 18504, Note_on_c, 1, 48, 0
4, 18504, Note_on_c, 1, 56, 64
4, 18527, Note_on_c, 1, 56, 0
4, 18528, Note_on_c, 1, 48, 64
4, 18552, Note_on_c, 1, 48, 0
4, 18552, Note_on_c, 1, 56, 64
4, 18575, Note_on_c, 1, 56, 0
4, 18576, Note_on_c, 1, 48, 64
4, 18600, Note_on_c, 1, 48, 0
4, 18600, Note_on_c, 1, 56, 64
4, 18623, Note_on_c, 1, 56, 0
4, 18624, Note_on_c, 1, 46, 64
4, 18648, Note_on_c, 1, 46, 0
4, 18648, Note_on_c, 1, 56, 64
4, 18671, Note_on_c, 1, 56, 0
4, 18672, Note_on_c, 1, 46, 64
4, 18696, Note_on_c, 1, 46, 0
4, 18696, Note_on_c, 1, 56, 64
4, 18719, Note_on_c, 1, 56, 0
4, 18720, Note_on_c, 1, 46, 64
4, 18744, Note_on_c, 1, 46, 0
4, 18744, Note_on_c, 1, 55, 64
4, 18767, Note_on_c, 1, 55, 0
4, 18768, Note_on_c, 1, 46, 64
4, 18792, Note_on_c, 1, 46, 0
4, 18792, Note_on_c, 1, 55, 64
4, 18815, Note_on_c, 1, 55, 0
4, 18816, Note_on_c, 1, 44, 64
4, 18840, Note_on_c, 1, 44, 0
4, 18840, Note_on_c, 1, 55, 64
4, 18863, Note_on_c, 1, 55, 0
4, 18864, Note_on_c, 1, 44, 64
4, 18888, Note_on_c, 1, 44, 0
4, 18888, Note_on_c, 1, 55, 64
4, 18911, Note_on_c, 1, 55, 0
4, 18912, Note_on_c, 1, 44, 64
4, 18936, Note_on_c, 1, 44, 0
4, 18936, Note_on_c, 1, 53, 64
4, 18959, Note_on_c, 1, 53, 0
4, 18960, Note_on_c, 1, 44, 64
4, 18984, Note_on_c, 1, 44, 0
4, 18984, Note_on_c, 1, 53, 64
4, 19007, Note_on_c, 1, 53, 0
4, 19008, Note_on_c, 1, 43, 64
4, 19032, Note_on_c, 1, 43, 0
4, 19032, Note_on_c, 1, 53, 64
4, 19055, Note_on_c, 1, 53, 0
4, 19056, Note_on_c, 1, 43, 64
4, 19080, Note_on_c, 1, 43, 0
4, 19080, Note_on_c, 1, 53, 64
4, 19103, Note_on_c, 1, 53, 0
4, 19104, Note_on_c, 1, 43, 64
4, 19128, Note_on_c, 1, 43, 0
4, 19128, Note_on_c, 1, 51, 64
4, 19151, Note_on_c, 1, 51, 0
4, 19152, Note_on_c, 1, 43, 64
4, 19176, Note_on_c, 1, 43, 0
4, 19176, Note_on_c, 1, 51, 64
4, 19199, Note_on_c, 1, 51, 0
4, 19200, Note_on_c, 1, 41, 64
4, 19224, Note_on_c, 1, 41, 0
4, 19224, Note_on_c, 1, 50, 64
4, 19247, Note_on_c, 1, 50, 0
4, 19248, Note_on_c, 1, 41, 64
4, 19272, Note_on_c, 1, 41, 0
4, 19272, Note_on_c, 1, 50, 64
4, 19295, Note_on_c, 1, 50, 0
4, 19296, Note_on_c, 1, 39, 64
4, 19319, Note_on_c, 1, 39, 0
4, 19320, Note_on_c, 1, 43, 64
4, 19343, Note_on_c, 1, 43, 0
4, 19344, Note_on_c, 1, 46, 64
4, 19367, Note_on_c, 1, 46, 0
4, 19368, Note_on_c, 1, 51, 64
4, 19391, Note_on_c, 1, 51, 0
4, 19392, Note_on_c, 1, 56, 64
4, 19392, Note_on_c, 1, 44, 64
4, 19437, Note_on_c, 1, 56, 0
4, 19437, Note_on_c, 1, 44, 0
4, 19488, Note_on_c, 1, 53, 64
4, 19488, Note_on_c, 1, 46, 64
4, 19533, Note_on_c, 1, 53, 0
4, 19533, Note_on_c, 1, 46, 0
4, 19584, Note_on_c, 1, 39, 80
4, 19590, Note_on_c, 1, 43, 80
4, 19596, Note_on_c, 1, 46, 80
4, 19602, Note_on_c, 1, 51, 80
4, 19677, Note_on_c, 1, 51, 0
4, 19677, Note_on_c, 1, 46, 0
4, 19677, Note_on_c, 1, 43, 0
4, 19677, Note_on_c, 1, 39, 0
4, 19680, Note_on_c, 1, 49, 80
4, 19680, Note_on_c, 1, 46, 80
4, 19680, Note_on_c, 1, 43, 80
4, 19680, Note_on_c, 1, 39, 80
4, 19747, Note_on_c, 1, 49, 0
4, 19747, Note_on_c, 1, 46, 0
4, 19747, Note_on_c, 1, 43, 0
4, 19747, Note_on_c, 1, 39, 0
4, 19752, Note_on_c, 1, 49, 80
4, 19752, Note_on_c, 1, 46, 80
4, 19752, Note_on_c, 1, 43, 80
4, 19752, Note_on_c, 1, 39, 80
4, 19775, Note_on_c, 1, 49, 0
4, 19775, Note_on_c, 1, 46, 0
4, 19775, Note_on_c, 1, 43, 0
4, 19775, Note_on_c, 1, 39, 0
4, 19776, Note_on_c, 1, 39, 80
4, 19782, Note_on_c, 1, 44, 80
4, 19788, Note_on_c, 1, 48, 80
4, 19794, Note_on_c, 1, 51, 80
4, 19957, Note_on_c, 1, 51, 0
4, 19957, Note_on_c, 1, 48, 0
4, 19957, Note_on_c, 1, 44, 0
4, 19957, Note_on_c, 1, 39, 0
4, 19968, Note_on_c, 1, 51, 80
4, 19968, Note_on_c, 1, 53, 80
4, 19968, Note_on_c, 1, 56, 80
4, 19968, Note_on_c, 1, 58, 80
4, 19968, Note_on_c, 1, 62, 80
4, 20108, Note_on_c, 1, 62, 0
4, 20108, Note_on_c, 1, 58, 0
4, 20108, Note_on_c, 1, 56, 0
4, 20108, Note_on_c, 1, 53, 0
4, 20108, Note_on_c, 1, 51, 0
4, 20160, Note_on_c, 1, 39, 80
4, 20242, Note_on_c, 1, 39, 0
4, 20256, Note_on_c, 1, 75, 70
4, 20323, Note_on_c, 1, 75, 0
4, 20328, Note_on_c, 1, 77, 70
4, 20340, Note_on_c, 1, 77, 0
4, 20340, Note_on_c, 1, 75, 70
4, 20352, Note_on_c, 1, 75, 0
4, 20352, Note_on_c, 1, 74, 70
4, 20448, Note_on_c, 1, 74, 0
4, 20448, Note_on_c, 1, 73, 86
4, 20544, Note_on_c, 1, 73, 0
4, 20544, Note_on_c, 1, 72, 70
4, 20707, Note_on_c, 1, 72, 0
4, 20712, Note_on_c, 1, 74, 70
4, 20724, Note_on_c, 1, 74, 0
4, 20724, Note_on_c, 1, 72, 70
4, 20736, Note_on_c, 1, 72, 0
4, 20736, Note_on_c, 1, 70, 86
4, 20899, Note_on_c, 1, 70, 0
4, 20904, Note_on_c, 1, 72, 70
4, 20916, Note_on_c, 1, 72, 0
4, 20916, Note_on_c, 1, 70, 70
4, 20928, Note_on_c, 1, 70, 0
4, 20928, Note_on_c, 1, 69, 70
4, 21017, Note_on_c, 1, 69, 0
4, 21024, Note_on_c, 1, 68, 86
4, 21096, Note_on_c, 1, 68, 0
4, 21096, Note_on_c, 1, 70, 70
4, 21108, Note_on_c, 1, 70, 0
4, 21108, Note_on_c, 1, 68, 70
4, 21120, Note_on_c, 1, 68, 0
4, 21120, Note_on_c, 1, 67, 70
4, 21209, Note_on_c, 1, 67, 0
4, 21216, Note_on_c, 1, 66, 86
4, 21312, Note_on_c, 1, 66, 0
4, 21312, Note_on_c, 1, 65, 70
4, 21401, Note_on_c, 1, 65, 0
4, 21408, Note_on_c, 1, 64, 86
4, 21504, Note_on_c, 1, 64, 0
4, 21504, Note_on_c, 1, 65, 70
4, 21593, Note_on_c, 1, 65, 0
4, 21600, Note_on_c, 1, 63, 83
4, 21667, Note_on_c, 1, 63, 0
4, 21672, Note_on_c, 1, 65, 70
4, 21684, Note_on_c, 1, 65, 0
4, 21684, Note_on_c, 1, 63, 70
4, 21696, Note_on_c, 1, 63, 0
4, 21696, Note_on_c, 1, 61, 70
4, 21741, Note_on_c, 1, 61, 0
4, 21744, Note_on_c, 1, 58, 70
4, 21789, Note_on_c, 1, 58, 0
4, 21792, Note_on_c, 1, 60, 70
4, 21837, Note_on_c, 1, 60, 0
4, 21840, Note_on_c, 1, 61, 70
4, 21885, Note_on_c, 1, 61, 0
4, 21888, Note_on_c, 1, 60, 70
4, 21977, Note_on_c, 1, 60, 0
4, 21984, Note_on_c, 1, 63, 83
4, 22051, Note_on_c, 1, 63, 0
4, 22056, Note_on_c, 1, 65, 70
4, 22068, Note_on_c, 1, 65, 0
4, 22068, Note_on_c, 1, 63, 70
4, 22080, Note_on_c, 1, 63, 0
4, 22080, Note_on_c, 1, 61, 70
4, 22125, Note_on_c, 1, 61, 0
4, 22128, Note_on_c, 1, 58, 70
4, 22173, Note_on_c, 1, 58, 0
4, 22176, Note_on_c, 1, 60, 70
4, 22221, Note_on_c, 1, 60, 0
4, 22224, Note_on_c, 1, 61, 70
4, 22269, Note_on_c, 1, 61, 0
4, 22272, Note_on_c, 1, 60, 64
4, 22361, Note_on_c, 1, 60, 0
4, 22368, Note_on_c, 1, 60, 68
4, 22368, Note_on_c, 1, 57, 68
4, 22457, Note_on_c, 1, 60, 0
4, 22457, Note_on_c, 1, 57, 0
4, 22464, Note_on_c, 1, 61, 72
4, 22464, Note_on_c, 1, 58, 72
4, 22553, Note_on_c, 1, 61, 0
4, 22553, Note_on_c, 1, 58, 0
4, 22560, Note_on_c, 1, 60, 76
4, 22560, Note_on_c, 1, 57, 76
4, 22649, Note_on_c, 1, 60, 0
4, 22649, Note_on_c, 1, 57, 0
4, 22656, Note_on_c, 1, 46, 80
4, 22662, Note_on_c, 1, 50, 80
4, 22668, Note_on_c, 1, 53, 80
4, 22674, Note_on_c, 1, 58, 80
4, 22749, Note_on_c, 1, 58, 0
4, 22749, Note_on_c, 1, 53, 0
4, 22749, Note_on_c, 1, 50, 0
4, 22749, Note_on_c, 1, 46, 0
4, 22752, Note_on_c, 1, 46, 80
4, 22752, Note_on_c, 1, 50, 80
4, 22752, Note_on_c, 1, 53, 80
4, 22752, Note_on_c, 1, 56, 80
4, 22841, Note_on_c, 1, 56, 0
4, 22841, Note_on_c, 1, 53, 0
4, 22841, Note_on_c, 1, 50, 0
4, 22841, Note_on_c, 1, 46, 0
4, 22848, Note_on_c, 1, 46, 80
4, 22854, Note_on_c, 1, 51, 80
4, 22860, Note_on_c, 1, 55, 80
4, 22866, Note_on_c, 1, 58, 80
4, 23029, Note_on_c, 1, 58, 0
4, 23029, Note_on_c, 1, 55, 0
4, 23029, Note_on_c, 1, 51, 0
4, 23029, Note_on_c, 1, 46, 0
4, 23040, Note_on_c, 1, 57, 80
4, 23040, Note_on_c, 1, 51, 80
4, 23040, Note_on_c, 1, 48, 80
4, 23040, Note_on_c, 1, 46, 80
4, 23217, Note_on_c, 1, 57, 0
4, 23217, Note_on_c, 1, 51, 0
4, 23217, Note_on_c, 1, 48, 0
4, 23217, Note_on_c, 1, 46, 0
4, 23232, Note_on_c, 1, 58, 80
4, 23232, Note_on_c, 1, 53, 80
4, 23232, Note_on_c, 1, 50, 80
4, 23232, Note_on_c, 1, 46, 80
4, 23321, Note_on_c, 1, 58, 0
4, 23321, Note_on_c, 1, 53, 0
4, 23321, Note_on_c, 1, 50, 0
4, 23321, Note_on_c, 1, 46, 0
4, 23424, Note_on_c, 1, 57, 80
4, 23424, Note_on_c, 1, 51, 80
4, 23424, Note_on_c, 1, 48, 80
4, 23424, Note_on_c, 1, 46, 80
4, 23601, Note_on_c, 1, 57, 0
4, 23601, Note_on_c, 1, 51, 0
4, 23601, Note_on_c, 1, 48, 0
4, 23601, Note_on_c, 1, 46, 0
4, 23616, Note_on_c, 1, 58, 80
4, 23616, Note_on_c, 1, 53, 80
4, 23616, Note_on_c, 1, 50, 80
4, 23616, Note_on_c, 1, 46, 80
4, 23705, Note_on_c, 1, 58, 0
4, 23705, Note_on_c, 1, 53, 0
4, 23705, Note_on_c, 1, 50, 0
4, 23705, Note_on_c, 1, 46, 0
4, 23808, Note_on_c, 1, 51, 75
4, 23831, Note_on_c, 1, 51, 0
4, 23832, Note_on_c, 1, 55, 75
4, 23855, Note_on_c, 1, 55, 0
4, 23856, Note_on_c, 1, 57, 75
4, 23879, Note_on_c, 1, 57, 0
4, 23880, Note_on_c, 1, 59, 75
4, 23903, Note_on_c, 1, 59, 0
4, 23904, Note_on_c, 1, 60, 75
4, 23971, Note_on_c, 1, 60, 0
4, 23976, Note_on_c, 1, 58, 75
4, 23999, Note_on_c, 1, 58, 0
4, 24000, Note_on_c, 1, 57, 75
4, 24023, Note_on_c, 1, 57, 0
4, 24024, Note_on_c, 1, 65, 75
4, 24047, Note_on_c, 1, 65, 0
4, 24048, Note_on_c, 1, 67, 75
4, 24071, Note_on_c, 1, 67, 0
4, 24072, Note_on_c, 1, 69, 75
4, 24095, Note_on_c, 1, 69, 0
4, 24096, Note_on_c, 1, 70, 75
4, 24185, Note_on_c, 1, 70, 0
4, 24192, Note_on_c, 1, 72, 75
4, 24192, Note_on_c, 1, 70, 75
4, 24192, Note_on_c, 1, 67, 75
4, 24369, Note_on_c, 1, 72, 0
4, 24369, Note_on_c, 1, 70, 0
4, 24369, Note_on_c, 1, 67, 0
4, 24384, Note_on_c, 1, 73, 70
4, 24384, Note_on_c, 1, 67, 70
4, 24576, Note_on_c, 1, 73, 0
4, 24753, Note_on_c, 1, 67, 0
4, 24768, Note_on_c, 1, 69, 70
4, 24768, Note_on_c, 1, 65, 70
4, 24901, Note_on_c, 1, 69, 0
4, 24901, Note_on_c, 1, 65, 0
4, 24912, Note_on_c, 1, 67, 83
4, 24912, Note_on_c, 1, 63, 83
4, 24912, Note_on_c, 1, 58, 83
4, 24912, Note_on_c, 1, 55, 83
4, 24957, Note_on_c, 1, 67, 0
4, 24957, Note_on_c, 1, 63, 0
4, 24957, Note_on_c, 1, 58, 0
4, 24957, Note_on_c, 1, 55, 0
4, 24960, Note_on_c, 1, 69, 80
4, 24960, Note_on_c, 1, 65, 80
4, 25104, Note_on_c, 1, 69, 0
4, 25104, Note_on_c, 1, 65, 0
4, 25104, Note_on_c, 1, 60, 82
4, 25104, Note_on_c, 1, 55, 82
4, 25104, Note_on_c, 1, 51, 82
4, 25149, Note_on_c, 1, 60, 0
4, 25149, Note_on_c, 1, 55, 0
4, 25149, Note_on_c, 1, 51, 0
4, 25152, Note_on_c, 1, 65, 87
4, 25152, Note_on_c, 1, 62, 87
4, 25296, Note_on_c, 1, 65, 0
4, 25296, Note_on_c, 1, 62, 0
4, 25296, Note_on_c, 1, 62, 89
4, 25296, Note_on_c, 1, 58, 89
4, 25296, Note_on_c, 1, 53, 89
4, 25296, Note_on_c, 1, 50, 89
4, 25341, Note_on_c, 1, 62, 0
4, 25341, Note_on_c, 1, 58, 0
4, 25341, Note_on_c, 1, 53, 0
4, 25341, Note_on_c, 1, 50, 0
4, 25344, Note_on_c, 1, 60, 78
4, 25344, Note_on_c, 1, 57, 78
4, 25344, Note_on_c, 1, 53, 78
4, 25344, Note_on_c, 1, 51, 78
4, 25389, Note_on_c, 1, 60, 0
4, 25389, Note_on_c, 1, 57, 0
4, 25389, Note_on_c, 1, 53, 0
4, 25389, Note_on_c, 1, 51, 0
4, 25440, Note_on_c, 1, 62, 75
4, 25440, Note_on_c, 1, 58, 75
4, 25440, Note_on_c, 1, 53, 75
4, 25440, Note_on_c, 1, 50, 75
4, 25485, Note_on_c, 1, 62, 0
4, 25485, Note_on_c, 1, 58, 0
4, 25485, Note_on_c, 1, 53, 0
4, 25485, Note_on_c, 1, 50, 0
4, 25536, Note_on_c, 1, 60, 70
4, 25536, Note_on_c, 1, 57, 70
4, 25536, Note_on_c, 1, 53, 70
4, 25536, Note_on_c, 1, 51, 70
4, 25581, Note_on_c, 1, 60, 0
4, 25581, Note_on_c, 1, 57, 0
4, 25581, Note_on_c, 1, 53, 0
4, 25581, Note_on_c, 1, 51, 0
4, 25632, Note_on_c, 1, 62, 75
4, 25632, Note_on_c, 1, 58, 75
4, 25632, Note_on_c, 1, 53, 75
4, 25632, Note_on_c, 1, 50, 75
4, 25677, Note_on_c, 1, 62, 0
4, 25677, Note_on_c, 1, 58, 0
4, 25677, Note_on_c, 1, 53, 0
4, 25677, Note_on_c, 1, 50, 0
4, 25728, Note_on_c, 1, 62, 80
4, 25728, Note_on_c, 1, 58, 80
4, 25728, Note_on_c, 1, 56, 80
4, 25728, Note_on_c, 1, 53, 80
4, 25728, Note_on_c, 1, 50, 80
4, 25905, Note_on_c, 1, 62, 0
4, 25905, Note_on_c, 1, 58, 0
4, 25905, Note_on_c, 1, 56, 0
4, 25905, Note_on_c, 1, 53, 0
4, 25905, Note_on_c, 1, 50, 0
4, 25920, Note_on_c, 1, 63, 80
4, 25920, Note_on_c, 1, 58, 80
4, 25920, Note_on_c, 1, 55, 80
4, 25920, Note_on_c, 1, 51, 80
4, 26009, Note_on_c, 1, 63, 0
4, 26009, Note_on_c, 1, 58, 0
4, 26009, Note_on_c, 1, 55, 0
4, 26009, Note_on_c, 1, 51, 0
4, 26160, Note_on_c, 1, 66, 70
4, 26170, Note_on_c, 1, 66, 0
4, 26184, Note_on_c, 1, 69, 73
4, 26194, Note_on_c, 1, 69, 0
4, 26208, Note_on_c, 1, 67, 76
4, 26218, Note_on_c, 1, 67, 0
4, 26232, Note_on_c, 1, 70, 80
4, 26242, Note_on_c, 1, 70, 0
4, 26256, Note_on_c, 1, 67, 80
4, 26271, Note_on_c, 1, 67, 0
4, 26272, Note_on_c, 1, 63, 80
4, 26287, Note_on_c, 1, 63, 0
4, 26288, Note_on_c, 1, 60, 80
4, 26303, Note_on_c, 1, 60, 0
4, 26304, Note_on_c, 1, 62, 80
4, 26393, Note_on_c, 1, 62, 0
4, 26400, Note_on_c, 1, 63, 80
4, 26489, Note_on_c, 1, 63, 0
4, 26496, Note_on_c, 1, 62, 80
4, 26496, Note_on_c, 1, 58, 80
4, 26541, Note_on_c, 1, 62, 0
4, 26541, Note_on_c, 1, 58, 0
4, 26592, Note_on_c, 1, 74, 64
4, 26592, Note_on_c, 1, 70, 64
4, 26612, Note_on_c, 1, 74, 0
4, 26612, Note_on_c, 1, 70, 0
4, 26640, Note_on_c, 1, 72, 64
4, 26640, Note_on_c, 1, 65, 64
4, 26660, Note_on_c, 1, 72, 0
4, 26660, Note_on_c, 1, 65, 0
4, 26688, Note_on_c, 1, 70, 64
4, 26688, Note_on_c, 1, 62, 64
4, 26733, Note_on_c, 1, 70, 0
4, 26733, Note_on_c, 1, 62, 0
4, 26784, Note_on_c, 1, 74, 58
4, 26784, Note_on_c, 1, 70, 58
4, 26804, Note_on_c, 1, 74, 0
4, 26804, Note_on_c, 1, 70, 0
4, 26832, Note_on_c, 1, 72, 58
4, 26832, Note_on_c, 1, 65, 58
4, 26852, Note_on_c, 1, 72, 0
4, 26852, Note_on_c, 1, 65, 0
4, 26880, Note_on_c, 1, 70, 58
4, 26880, Note_on_c, 1, 62, 58
4, 26925, Note_on_c, 1, 70, 0
4, 26925, Note_on_c, 1, 62, 0
4, 26976, Note_on_c, 1, 70, 58
4, 26976, Note_on_c, 1, 62, 58
4, 27021, Note_on_c, 1, 70, 0
4, 27021, Note_on_c, 1, 62, 0
4, 27024, Note_on_c, 1, 70, 64
4, 27024, Note_on_c, 1, 62, 64
4, 27069, Note_on_c, 1, 70, 0
4, 27069, Note_on_c, 1, 62, 0
4, 27072, Note_on_c, 1, 70, 64
4, 27117, Note_on_c, 1, 70, 0
4, 27120, Note_on_c, 1, 67, 65
4, 27165, Note_on_c, 1, 67, 0
4, 27168, Note_on_c, 1, 72, 67
4, 27397, Note_on_c, 1, 72, 0
4, 27408, Note_on_c, 1, 65, 77
4, 27453, Note_on_c, 1, 65, 0
4, 27456, Note_on_c, 1, 61, 79
4, 27456, Note_on_c, 1, 58, 79
4, 27479, Note_on_c, 1, 61, 0
4, 27479, Note_on_c, 1, 58, 0
4, 27480, Note_on_c, 1, 65, 80
4, 27503, Note_on_c, 1, 65, 0
4, 27504, Note_on_c, 1, 61, 80
4, 27504, Note_on_c, 1, 58, 80
4, 27527, Note_on_c, 1, 61, 0
4, 27527, Note_on_c, 1, 58, 0
4, 27528, Note_on_c, 1, 65, 80
4, 27551, Note_on_c, 1, 65, 0
4, 27552, Note_on_c, 1, 60, 80
4, 27552, Note_on_c, 1, 57, 80
4, 27575, Note_on_c, 1, 60, 0
4, 27575, Note_on_c, 1, 57, 0
4, 27576, Note_on_c, 1, 65, 76
4, 27599, Note_on_c, 1, 65, 0
4, 27600, Note_on_c, 1, 60, 72
4, 27600, Note_on_c, 1, 57, 72
4, 27623, Note_on_c, 1, 60, 0
4, 27623, Note_on_c, 1, 57, 0
4, 27624, Note_on_c, 1, 65, 68
4, 27647, Note_on_c, 1, 65, 0
4, 27648, Note_on_c, 1, 61, 70
4, 27648, Note_on_c, 1, 58, 70
4, 27671, Note_on_c, 1, 61, 0
4, 27671, Note_on_c, 1, 58, 0
4, 27672, Note_on_c, 1, 65, 70
4, 27695, Note_on_c, 1, 65, 0
4, 27696, Note_on_c, 1, 61, 70
4, 27696, Note_on_c, 1, 58, 70
4, 27719, Note_on_c, 1, 61, 0
4, 27719, Note_on_c, 1, 58, 0
4, 27720, Note_on_c, 1, 65, 70
4, 27743, Note_on_c, 1, 65, 0
4, 27744, Note_on_c, 1, 60, 70
4, 27744, Note_on_c, 1, 57, 70
4, 27767, Note_on_c, 1, 60, 0
4, 27767, Note_on_c, 1, 57, 0
4, 27768, Note_on_c, 1, 65, 72
4, 27791, Note_on_c, 1, 65, 0
4, 27792, Note_on_c, 1, 60, 75
4, 27792, Note_on_c, 1, 57, 75
4, 27815, Note_on_c, 1, 60, 0
4, 27815, Note_on_c, 1, 57, 0
4, 27816, Note_on_c, 1, 65, 77
4, 27839, Note_on_c, 1, 65, 0
4, 27840, Note_on_c, 1, 61, 80
4, 27840, Note_on_c, 1, 49, 80
4, 27885, Note_on_c, 1, 61, 0
4, 27885, Note_on_c, 1, 49, 0
4, 27888, Note_on_c, 1, 58, 80
4, 27888, Note_on_c, 1, 46, 80
4, 27933, Note_on_c, 1, 58, 0
4, 27933, Note_on_c, 1, 46, 0
4, 27936, Note_on_c, 1, 54, 80
4, 27936, Note_on_c, 1, 42, 80
4, 27981, Note_on_c, 1, 54, 0
4, 27981, Note_on_c, 1, 42, 0
4, 27984, Note_on_c, 1, 51, 80
4, 27984, Note_on_c, 1, 39, 80
4, 28029, Note_on_c, 1, 51, 0
4, 28029, Note_on_c, 1, 39, 0
4, 28032, Note_on_c, 1, 48, 80
4, 28032, Note_on_c, 1, 36, 80
4, 28121, Note_on_c, 1, 48, 0
4, 28121, Note_on_c, 1, 36, 0
4, 28128, Note_on_c, 1, 46, 80
4, 28128, Note_on_c, 1, 34, 80
4, 28217, Note_on_c, 1, 46, 0
4, 28217, Note_on_c, 1, 34, 0
4, 28224, Note_on_c, 1, 45, 80
4, 28224, Note_on_c, 1, 33, 80
4, 28313, Note_on_c, 1, 45, 0
4, 28313, Note_on_c, 1, 33, 0
4, 28320, Note_on_c, 1, 42, 75
4, 28320, Note_on_c, 1, 30, 75
4, 28409, Note_on_c, 1, 42, 0
4, 28409, Note_on_c, 1, 30, 0
4, 28416, Note_on_c, 1, 41, 70
4, 28416, Note_on_c, 1, 29, 70
4, 28770, Note_on_c, 1, 41, 0
4, 28770, Note_on_c, 1, 29, 0
4, 28800, Note_on_c, 1, 65, 80
4, 28800, Note_on_c, 1, 62, 80
4, 28800, Note_on_c, 1, 58, 80
4, 28889, Note_on_c, 1, 65, 0
4, 28889, Note_on_c, 1, 62, 0
4, 28889, Note_on_c, 1, 58, 0
4, 28896, Note_on_c, 1, 57, 80
4, 28904, Note_on_c, 1, 60, 80
4, 28912, Note_on_c, 1, 65, 80
4, 28989, Note_on_c, 1, 65, 0
4, 28989, Note_on_c, 1, 60, 0
4, 28989, Note_on_c, 1, 57, 0
4, 28992, Note_on_c, 1, 55, 80
4, 29000, Note_on_c, 1, 58, 80
4, 29008, Note_on_c, 1, 63, 80
4, 29173, Note_on_c, 1, 63, 0
4, 29173, Note_on_c, 1, 58, 0
4, 29173, Note_on_c, 1, 55, 0
4, 29184, Note_on_c, 1, 70, 80
4, 29184, Note_on_c, 1, 67, 80
4, 29204, Note_on_c, 1, 70, 0
4, 29204, Note_on_c, 1, 67, 0
4, 29256, Note_on_c, 1, 70, 80
4, 29256, Note_on_c, 1, 65, 80
4, 29279, Note_on_c, 1, 70, 0
4, 29279, Note_on_c, 1, 65, 0
4, 29280, Note_on_c, 1, 70, 80
4, 29280, Note_on_c, 1, 63, 80
4, 29300, Note_on_c, 1, 70, 0
4, 29300, Note_on_c, 1, 63, 0
4, 29352, Note_on_c, 1, 65, 80
4, 29352, Note_on_c, 1, 61, 80
4, 29375, Note_on_c, 1, 65, 0
4, 29375, Note_on_c, 1, 61, 0
4, 29376, Note_on_c, 1, 67, 80
4, 29376, Note_on_c, 1, 60, 80
4, 29415, Note_on_c, 1, 67, 0
4, 29415, Note_on_c, 1, 60, 0
4, 29592, Note_on_c, 1, 65, 64
4, 29592, Note_on_c, 1, 62, 64
4, 29616, Note_on_c, 1, 65, 0
4, 29616, Note_on_c, 1, 62, 0
4, 29616, Note_on_c, 1, 63, 64
4, 29616, Note_on_c, 1, 60, 64
4, 29639, Note_on_c, 1, 63, 0
4, 29639, Note_on_c, 1, 60, 0
4, 29640, Note_on_c, 1, 62, 64
4, 29640, Note_on_c, 1, 58, 64
4, 29663, Note_on_c, 1, 62, 0
4, 29663, Note_on_c, 1, 58, 0
4, 29664, Note_on_c, 1, 60, 64
4, 29664, Note_on_c, 1, 57, 64
4, 29703, Note_on_c, 1, 60, 0
4, 29703, Note_on_c, 1, 57, 0
4, 29784, Note_on_c, 1, 65, 64
4, 29784, Note_on_c, 1, 62, 64
4, 29807, Note_on_c, 1, 65, 0
4, 29807, Note_on_c, 1, 62, 0
4, 29808, Note_on_c, 1, 63, 64
4, 29808, Note_on_c, 1, 60, 64
4, 29831, Note_on_c, 1, 63, 0
4, 29831, Note_on_c, 1, 60, 0
4, 29832, Note_on_c, 1, 62, 64
4, 29832, Note_on_c, 1, 58, 64
4, 29855, Note_on_c, 1, 62, 0
4, 29855, Note_on_c, 1, 58, 0
4, 29856, Note_on_c, 1, 60, 64
4, 29856, Note_on_c, 1, 57, 64
4, 29866, Note_on_c, 1, 60, 0
4, 29866, Note_on_c, 1, 57, 0
4, 29880, Note_on_c, 1, 65, 64
4, 29903, Note_on_c, 1, 65, 0
4, 29904, Note_on_c, 1, 67, 69
4, 29927, Note_on_c, 1, 67, 0
4, 29928, Note_on_c, 1, 69, 74
4, 29951, Note_on_c, 1, 69, 0
4, 29952, Note_on_c, 1, 70, 80
4, 29962, Note_on_c, 1, 70, 0
4, 29976, Note_on_c, 1, 74, 80
4, 29999, Note_on_c, 1, 74, 0
4, 30000, Note_on_c, 1, 72, 80
4, 30023, Note_on_c, 1, 72, 0
4, 30024, Note_on_c, 1, 70, 80
4, 30047, Note_on_c, 1, 70, 0
4, 30048, Note_on_c, 1, 69, 80
4, 30071, Note_on_c, 1, 69, 0
4, 30072, Note_on_c, 1, 70, 80
4, 30072, Note_on_c, 1, 67, 80
4, 30095, Note_on_c, 1, 70, 0
4, 30095, Note_on_c, 1, 67, 0
4, 30096, Note_on_c, 1, 69, 80
4, 30096, Note_on_c, 1, 65, 80
4, 30119, Note_on_c, 1, 69, 0
4, 30119, Note_on_c, 1, 65, 0
4, 30120, Note_on_c, 1, 67, 80
4, 30120, Note_on_c, 1, 63, 80
4, 30143, Note_on_c, 1, 67, 0
4, 30143, Note_on_c, 1, 63, 0
4, 30144, Note_on_c, 1, 65, 96
4, 30144, Note_on_c, 1, 62, 96
4, 30240, Note_on_c, 1, 65, 0
4, 30240, Note_on_c, 1, 62, 0
4, 30240, Note_on_c, 1, 67, 70
4, 30240, Note_on_c, 1, 63, 70
4, 30260, Note_on_c, 1, 67, 0
4, 30260, Note_on_c, 1, 63, 0
4, 30336, Note_on_c, 1, 63, 96
4, 30336, Note_on_c, 1, 60, 96
4, 30432, Note_on_c, 1, 63, 0
4, 30432, Note_on_c, 1, 60, 0
4, 30432, Note_on_c, 1, 62, 70
4, 30452, Note_on_c, 1, 62, 0
4, 30912, Note_on_c, 1, 42, 75
4, 30912, Note_on_c, 1, 30, 75
4, 31089, Note_on_c, 1, 42, 0
4, 31089, Note_on_c, 1, 30, 0
4, 31104, Control_c, 1, 64, 127
4, 31104, Note_on_c, 1, 29, 80
4, 31116, Note_on_c, 1, 29, 0
4, 31116, Note_on_c, 1, 41, 80
4, 31128, Note_on_c, 1, 41, 0
4, 31128, Note_on_c, 1, 29, 80
4, 31140, Note_on_c, 1, 29, 0
4, 31140, Note_on_c, 1, 41, 80
4, 31152, Note_on_c, 1, 41, 0
4, 31152, Note_on_c, 1, 29, 80
4, 31164, Note_on_c, 1, 29, 0
4, 31164, Note_on_c, 1, 41, 80
4, 31176, Note_on_c, 1, 41, 0
4, 31176, Note_on_c, 1, 29, 80
4, 31188, Note_on_c, 1, 29, 0
4, 31188, Note_on_c, 1, 41, 80
4, 31200, Note_on_c, 1, 41, 0
4, 31200, Note_on_c, 1, 29, 80
4, 31212, Note_on_c, 1, 29, 0
4, 31212, Note_on_c, 1, 41, 80
4, 31224, Note_on_c, 1, 41, 0
4, 31224, Note_on_c, 1, 29, 80
4, 31236, Note_on_c, 1, 29, 0
4, 31236, Note_on_c, 1, 41, 80
4, 31248, Note_on_c, 1, 41, 0
4, 31248, Note_on_c, 1, 29, 80
4, 31260, Note_on_c, 1, 29, 0
4, 31260, Note_on_c, 1, 41, 80
4, 31272, Note_on_c, 1, 41, 0
4, 31272, Note_on_c, 1, 29, 80
4, 31284, Note_on_c, 1, 29, 0
4, 31284, Note_on_c, 1, 41, 80
4, 31296, Note_on_c, 1, 41, 0
4, 31296, Note_on_c, 1, 29, 80
4, 31341, Note_on_c, 1, 29, 0
4, 31344, Control_c, 1, 64, 0
4, 31392, Note_on_c, 1, 63, 80
4, 31392, Note_on_c, 1, 60, 80
4, 31392, Note_on_c, 1, 57, 80
4, 31392, Note_on_c, 1, 53, 80
4, 31437, Note_on_c, 1, 63, 0
4, 31437, Note_on_c, 1, 60, 0
4, 31437, Note_on_c, 1, 57, 0
4, 31437, Note_on_c, 1, 53, 0
4, 31488, Note_on_c, 1, 58, 80
4, 31488, Note_on_c, 1, 53, 80
4, 31488, Note_on_c, 1, 50, 80
4, 31488, Note_on_c, 1, 46, 80
4, 31533, Note_on_c, 1, 58, 0
4, 31533, Note_on_c, 1, 53, 0
4, 31533, Note_on_c, 1, 50, 0
4, 31533, Note_on_c, 1, 46, 0
4, 31584, Note_on_c, 1, 57, 75
4, 31584, Note_on_c, 1, 51, 75
4, 31584, Note_on_c, 1, 48, 75
4, 31584, Note_on_c, 1, 46, 75
4, 31629, Note_on_c, 1, 57, 0
4, 31629, Note_on_c, 1, 51, 0
4, 31629, Note_on_c, 1, 48, 0
4, 31629, Note_on_c, 1, 46, 0
4, 31680, Note_on_c, 1, 58, 70
4, 31680, Note_on_c, 1, 53, 70
4, 31680, Note_on_c, 1, 50, 70
4, 31680, Note_on_c, 1, 46, 70
4, 31725, Note_on_c, 1, 58, 0
4, 31725, Note_on_c, 1, 53, 0
4, 31725, Note_on_c, 1, 50, 0
4, 31725, Note_on_c, 1, 46, 0
4, 31776, Note_on_c, 1, 57, 70
4, 31776, Note_on_c, 1, 51, 70
4, 31776, Note_on_c, 1, 48, 70
4, 31776, Note_on_c, 1, 46, 70
4, 31821, Note_on_c, 1, 57, 0
4, 31821, Note_on_c, 1, 51, 0
4, 31821, Note_on_c, 1, 48, 0
4, 31821, Note_on_c, 1, 46, 0
4, 31872, Note_on_c, 1, 46, 70
4, 31872, Note_on_c, 1, 34, 70
4, 31917, Note_on_c, 1, 46, 0
4, 31917, Note_on_c, 1, 34, 0
4, 31920, Note_on_c, 1, 50, 70
4, 31920, Note_on_c, 1, 38, 70
4, 31965, Note_on_c, 1, 50, 0
4, 31965, Note_on_c, 1, 38, 0
4, 31968, Note_on_c, 1, 53, 71
4, 31968, Note_on_c, 1, 41, 71
4, 32013, Note_on_c, 1, 53, 0
4, 32013, Note_on_c, 1, 41, 0
4, 32016, Note_on_c, 1, 58, 72
4, 32016, Note_on_c, 1, 46, 72
4, 32061, Note_on_c, 1, 58, 0
4, 32061, Note_on_c, 1, 46, 0
4, 32064, Note_on_c, 1, 62, 73
4, 32064, Note_on_c, 1, 50, 73
4, 32109, Note_on_c, 1, 62, 0
4, 32109, Note_on_c, 1, 50, 0
4, 32112, Note_on_c, 1, 65, 75
4, 32112, Note_on_c, 1, 53, 75
4, 32157, Note_on_c, 1, 65, 0
4, 32157, Note_on_c, 1, 53, 0
4, 32160, Note_on_c, 1, 70, 76
4, 32160, Note_on_c, 1, 58, 76
4, 32205, Note_on_c, 1, 70, 0
4, 32205, Note_on_c, 1, 58, 0
4, 32208, Note_on_c, 1, 75, 77
4, 32208, Note_on_c, 1, 65, 77
4, 32253, Note_on_c, 1, 75, 0
4, 32253, Note_on_c, 1, 65, 0
4, 32256, Note_on_c, 1, 74, 78
4, 32256, Note_on_c, 1, 70, 78
4, 32301, Note_on_c, 1, 74, 0
4, 32301, Note_on_c, 1, 70, 0
4, 32304, Note_on_c, 1, 75, 80
4, 32304, Note_on_c, 1, 65, 80
4, 32349, Note_on_c, 1, 75, 0
4, 32349, Note_on_c, 1, 65, 0
4, 32352, Note_on_c, 1, 74, 80
4, 32352, Note_on_c, 1, 70, 80
4, 32397, Note_on_c, 1, 74, 0
4, 32397, Note_on_c, 1, 70, 0
4, 32400, Note_on_c, 1, 75, 80
4, 32400, Note_on_c, 1, 65, 80
4, 32445, Note_on_c, 1, 75, 0
4, 32445, Note_on_c, 1, 65, 0
4, 32448, Control_c, 1, 64, 127
4, 32448, Note_on_c, 1, 70, 80
4, 32460, Note_on_c, 1, 70, 0
4, 32460, Note_on_c, 1, 74, 79
4, 32472, Note_on_c, 1, 74, 0
4, 32472, Note_on_c, 1, 70, 78
4, 32484, Note_on_c, 1, 70, 0
4, 32484, Note_on_c, 1, 74, 77
4, 32496, Note_on_c, 1, 74, 0
4, 32496, Note_on_c, 1, 70, 76
4, 32508, Note_on_c, 1, 70, 0
4, 32508, Note_on_c, 1, 74, 76
4, 32520, Note_on_c, 1, 74, 0
4, 32520, Note_on_c, 1, 70, 75
4, 32532, Note_on_c, 1, 70, 0
4, 32532, Note_on_c, 1, 74, 74
4, 32544, Note_on_c, 1, 74, 0
4, 32544, Note_on_c, 1, 70, 73
4, 32556, Note_on_c, 1, 70, 0
4, 32556, Note_on_c, 1, 74, 72
4, 32568, Note_on_c, 1, 74, 0
4, 32568, Note_on_c, 1, 70, 72
4, 32580, Note_on_c, 1, 70, 0
4, 32580, Note_on_c, 1, 74, 71
4, 32592, Note_on_c, 1, 74, 0
4, 32592, Note_on_c, 1, 70, 70
4, 32604, Note_on_c, 1, 70, 0
4, 32604, Note_on_c, 1, 74, 69
4, 32616, Note_on_c, 1, 74, 0
4, 32616, Note_on_c, 1, 70, 68
4, 32628, Note_on_c, 1, 70, 0
4, 32628, Note_on_c, 1, 74, 68
4, 32640, Note_on_c, 1, 74, 0
4, 32640, Note_on_c, 1, 70, 67
4, 32685, Note_on_c, 1, 70, 0
4, 32688, Control_c, 1, 64, 0
4, 32736, Note_on_c, 1, 74, 64
4, 32736, Note_on_c, 1, 70, 64
4, 32781, Note_on_c, 1, 74, 0
4, 32781, Note_on_c, 1, 70, 0
4, 32832, Note_on_c, 1, 74, 64
4, 32832, Note_on_c, 1, 70, 64
4, 32877, Note_on_c, 1, 74, 0
4, 32877, Note_on_c, 1, 70, 0
4, 33024, Note_on_c, 1, 46, 64
4, 33024, Note_on_c, 1, 34, 64
4, 33216, Note_on_c, 1, 46, 0
4, 33216, Note_on_c, 1, 34, 0
4, 33216, Note_on_c, 1, 44, 66
4, 33216, Note_on_c, 1, 32, 66
4, 33393, Note_on_c, 1, 44, 0
4, 33393, Note_on_c, 1, 32, 0
4, 33408, Note_on_c, 1, 43, 69
4, 33408, Note_on_c, 1, 31, 69
4, 33762, Note_on_c, 1, 43, 0
4, 33762, Note_on_c, 1, 31, 0
4, 33888, Note_on_c, 1, 64, 70
4, 33888, Note_on_c, 1, 60, 70
4, 33908, Note_on_c, 1, 64, 0
4, 33908, Note_on_c, 1, 60, 0
4, 33936, Note_on_c, 1, 62, 70
4, 33936, Note_on_c, 1, 55, 70
4, 33956, Note_on_c, 1, 62, 0
4, 33956, Note_on_c, 1, 55, 0
4, 33984, Note_on_c, 1, 60, 70
4, 33984, Note_on_c, 1, 52, 70
4, 34029, Note_on_c, 1, 60, 0
4, 34029, Note_on_c, 1, 52, 0
4, 34080, Note_on_c, 1, 64, 64
4, 34080, Note_on_c, 1, 60, 64
4, 34100, Note_on_c, 1, 64, 0
4, 34100, Note_on_c, 1, 60, 0
4, 34128, Note_on_c, 1, 62, 64
4, 34128, Note_on_c, 1, 55, 64
4, 34148, Note_on_c, 1, 62, 0
4, 34148, Note_on_c, 1, 55, 0
4, 34176, Note_on_c, 1, 60, 64
4, 34176, Note_on_c, 1, 52, 64
4, 34221, Note_on_c, 1, 60, 0
4, 34221, Note_on_c, 1, 52, 0
4, 34260, Note_on_c, 1, 60, 75
4, 34272, Note_on_c, 1, 60, 0
4, 34272, Note_on_c, 1, 64, 75
4, 34282, Note_on_c, 1, 64, 0
4, 34308, Note_on_c, 1, 60, 75
4, 34320, Note_on_c, 1, 60, 0
4, 34320, Note_on_c, 1, 65, 75
4, 34330, Note_on_c, 1, 65, 0
4, 34356, Note_on_c, 1, 60, 75
4, 34368, Note_on_c, 1, 60, 0
4, 34368, Note_on_c, 1, 67, 75
4, 34378, Note_on_c, 1, 67, 0
4, 34404, Note_on_c, 1, 60, 75
4, 34416, Note_on_c, 1, 60, 0
4, 34416, Note_on_c, 1, 69, 75
4, 34426, Note_on_c, 1, 69, 0
4, 34452, Note_on_c, 1, 60, 75
4, 34464, Note_on_c, 1, 60, 0
4, 34464, Note_on_c, 1, 70, 75
4, 34474, Note_on_c, 1, 70, 0
4, 34500, Note_on_c, 1, 60, 75
4, 34512, Note_on_c, 1, 60, 0
4, 34512, Note_on_c, 1, 70, 75
4, 34522, Note_on_c, 1, 70, 0
4, 34548, Note_on_c, 1, 60, 75
4, 34560, Note_on_c, 1, 60, 0
4, 34560, Note_on_c, 1, 69, 80
4, 34560, Note_on_c, 1, 65, 80
4, 34605, Note_on_c, 1, 69, 0
4, 34605, Note_on_c, 1, 65, 0
4, 34656, Note_on_c, 1, 70, 80
4, 34656, Note_on_c, 1, 60, 80
4, 34701, Note_on_c, 1, 70, 0
4, 34701, Note_on_c, 1, 60, 0
4, 34752, Note_on_c, 1, 69, 80
4, 34752, Note_on_c, 1, 62, 80
4, 34797, Note_on_c, 1, 69, 0
4, 34797, Note_on_c, 1, 62, 0
4, 34848, Note_on_c, 1, 67, 80
4, 34848, Note_on_c, 1, 57, 80
4, 34893, Note_on_c, 1, 67, 0
4, 34893, Note_on_c, 1, 57, 0
4, 34944, Note_on_c, 1, 65, 80
4, 34944, Note_on_c, 1, 58, 80
4, 34989, Note_on_c, 1, 65, 0
4, 34989, Note_on_c, 1, 58, 0
4, 35040, Note_on_c, 1, 63, 80
4, 35040, Note_on_c, 1, 53, 80
4, 35085, Note_on_c, 1, 63, 0
4, 35085, Note_on_c, 1, 53, 0
4, 35136, Note_on_c, 1, 62, 80
4, 35136, Note_on_c, 1, 55, 80
4, 35181, Note_on_c, 1, 62, 0
4, 35181, Note_on_c, 1, 55, 0
4, 35232, Note_on_c, 1, 60, 80
4, 35232, Note_on_c, 1, 50, 80
4, 35277, Note_on_c, 1, 60, 0
4, 35277, Note_on_c, 1, 50, 0
4, 35328, Control_c, 1, 64, 127
4, 35328, Note_on_c, 1, 51, 80
4, 35340, Note_on_c, 1, 51, 0
4, 35340, Note_on_c, 1, 55, 80
4, 35352, Note_on_c, 1, 55, 0
4, 35352, Note_on_c, 1, 51, 80
4, 35364, Note_on_c, 1, 51, 0
4, 35364, Note_on_c, 1, 55, 80
4, 35376, Note_on_c, 1, 55, 0
4, 35376, Note_on_c, 1, 51, 80
4, 35388, Note_on_c, 1, 51, 0
4, 35388, Note_on_c, 1, 55, 80
4, 35400, Note_on_c, 1, 55, 0
4, 35400, Note_on_c, 1, 51, 80
4, 35412, Note_on_c, 1, 51, 0
4, 35412, Note_on_c, 1, 55, 80
4, 35424, Note_on_c, 1, 55, 0
4, 35424, Note_on_c, 1, 51, 80
4, 35436, Note_on_c, 1, 51, 0
4, 35436, Note_on_c, 1, 55, 80
4, 35448, Note_on_c, 1, 55, 0
4, 35448, Note_on_c, 1, 51, 80
4, 35460, Note_on_c, 1, 51, 0
4, 35460, Note_on_c, 1, 55, 80
4, 35472, Note_on_c, 1, 55, 0
4, 35472, Note_on_c, 1, 51, 80
4, 35484, Note_on_c, 1, 51, 0
4, 35484, Note_on_c, 1, 55, 80
4, 35496, Note_on_c, 1, 55, 0
4, 35496, Note_on_c, 1, 51, 80
4, 35508, Note_on_c, 1, 51, 0
4, 35508, Note_on_c, 1, 55, 80
4, 35520, Note_on_c, 1, 55, 0
4, 35520, Note_on_c, 1, 51, 80
4, 35532, Note_on_c, 1, 51, 0
4, 35532, Note_on_c, 1, 55, 80
4, 35544, Note_on_c, 1, 55, 0
4, 35544, Note_on_c, 1, 51, 80
4, 35556, Note_on_c, 1, 51, 0
4, 35556, Note_on_c, 1, 55, 80
4, 35568, Note_on_c, 1, 55, 0
4, 35568, Note_on_c, 1, 51, 80
4, 35580, Note_on_c, 1, 51, 0
4, 35580, Note_on_c, 1, 55, 79
4, 35592, Note_on_c, 1, 55, 0
4, 35592, Note_on_c, 1, 51, 79
4, 35604, Note_on_c, 1, 51, 0
4, 35604, Note_on_c, 1, 55, 79
4, 35616, Note_on_c, 1, 55, 0
4, 35616, Note_on_c, 1, 51, 79
4, 35628, Note_on_c, 1, 51, 0
4, 35628, Note_on_c, 1, 55, 78
4, 35640, Note_on_c, 1, 55, 0
4, 35640, Note_on_c, 1, 51, 78
4, 35652, Note_on_c, 1, 51, 0
4, 35652, Note_on_c, 1, 55, 78
4, 35664, Note_on_c, 1, 55, 0
4, 35664, Note_on_c, 1, 51, 78
4, 35676, Note_on_c, 1, 51, 0
4, 35676, Note_on_c, 1, 55, 77
4, 35688, Note_on_c, 1, 55, 0
4, 35688, Note_on_c, 1, 51, 77
4, 35700, Note_on_c, 1, 51, 0
4, 35700, Control_c, 1, 64, 0
4, 35700, Note_on_c, 1, 55, 77
4, 35712, Note_on_c, 1, 55, 0
4, 35712, Note_on_c, 1, 54, 77
4, 35801, Note_on_c, 1, 54, 0
4, 35832, Note_on_c, 1, 55, 75
4, 35855, Note_on_c, 1, 55, 0
4, 35856, Note_on_c, 1, 54, 75
4, 35879, Note_on_c, 1, 54, 0
4, 35880, Note_on_c, 1, 57, 75
4, 35903, Note_on_c, 1, 57, 0
4, 35904, Note_on_c, 1, 55, 75
4, 35927, Note_on_c, 1, 55, 0
4, 35928, Note_on_c, 1, 58, 75
4, 35951, Note_on_c, 1, 58, 0
4, 35952, Note_on_c, 1, 57, 75
4, 35975, Note_on_c, 1, 57, 0
4, 35976, Note_on_c, 1, 60, 75
4, 35999, Note_on_c, 1, 60, 0
4, 36000, Note_on_c, 1, 58, 75
4, 36045, Note_on_c, 1, 58, 0
4, 36048, Note_on_c, 1, 55, 75
4, 36093, Note_on_c, 1, 55, 0
4, 36096, Note_on_c, 1, 54, 75
4, 36096, Note_on_c, 1, 50, 75
4, 36185, Note_on_c, 1, 54, 0
4, 36185, Note_on_c, 1, 50, 0
4, 36216, Note_on_c, 1, 67, 75
4, 36239, Note_on_c, 1, 67, 0
4, 36240, Note_on_c, 1, 66, 75
4, 36263, Note_on_c, 1, 66, 0
4, 36264, Note_on_c, 1, 69, 76
4, 36287, Note_on_c, 1, 69, 0
4, 36288, Note_on_c, 1, 67, 76
4, 36311, Note_on_c, 1, 67, 0
4, 36312, Note_on_c, 1, 70, 76
4, 36335, Note_on_c, 1, 70, 0
4, 36336, Note_on_c, 1, 69, 77
4, 36359, Note_on_c, 1, 69, 0
4, 36360, Note_on_c, 1, 72, 77
4, 36383, Note_on_c, 1, 72, 0
4, 36384, Note_on_c, 1, 70, 78
4, 36407, Note_on_c, 1, 70, 0
4, 36408, Note_on_c, 1, 67, 78
4, 36431, Note_on_c, 1, 67, 0
4, 36432, Note_on_c, 1, 66, 78
4, 36455, Note_on_c, 1, 66, 0
4, 36456, Note_on_c, 1, 69, 79
4, 36479, Note_on_c, 1, 69, 0
4, 36480, Note_on_c, 1, 67, 79
4, 36503, Note_on_c, 1, 67, 0
4, 36504, Note_on_c, 1, 75, 80
4, 36527, Note_on_c, 1, 75, 0
4, 36528, Note_on_c, 1, 74, 80
4, 36551, Note_on_c, 1, 74, 0
4, 36552, Note_on_c, 1, 72, 80
4, 36575, Note_on_c, 1, 72, 0
4, 36576, Note_on_c, 1, 70, 80
4, 36599, Note_on_c, 1, 70, 0
4, 36600, Note_on_c, 1, 67, 80
4, 36623, Note_on_c, 1, 67, 0
4, 36624, Note_on_c, 1, 66, 80
4, 36647, Note_on_c, 1, 66, 0
4, 36648, Note_on_c, 1, 69, 80
4, 36671, Note_on_c, 1, 69, 0
4, 36672, Note_on_c, 1, 67, 80
4, 36695, Note_on_c, 1, 67, 0
4, 36696, Note_on_c, 1, 75, 80
4, 36719, Note_on_c, 1, 75, 0
4, 36720, Note_on_c, 1, 74, 80
4, 36743, Note_on_c, 1, 74, 0
4, 36744, Note_on_c, 1, 72, 80
4, 36767, Note_on_c, 1, 72, 0
4, 36768, Note_on_c, 1, 70, 80
4, 36791, Note_on_c, 1, 70, 0
4, 36792, Note_on_c, 1, 67, 80
4, 36815, Note_on_c, 1, 67, 0
4, 36816, Note_on_c, 1, 72, 80
4, 36839, Note_on_c, 1, 72, 0
4, 36840, Note_on_c, 1, 70, 80
4, 36863, Note_on_c, 1, 70, 0
4, 36864, Note_on_c, 1, 68, 80
4, 36887, Note_on_c, 1, 68, 0
4, 36888, Note_on_c, 1, 65, 79
4, 36911, Note_on_c, 1, 65, 0
4, 36912, Note_on_c, 1, 70, 79
4, 36935, Note_on_c, 1, 70, 0
4, 36936, Note_on_c, 1, 68, 79
4, 36959, Note_on_c, 1, 68, 0
4, 36960, Note_on_c, 1, 67, 78
4, 36983, Note_on_c, 1, 67, 0
4, 36984, Note_on_c, 1, 63, 78
4, 37007, Note_on_c, 1, 63, 0
4, 37008, Note_on_c, 1, 68, 78
4, 37031, Note_on_c, 1, 68, 0
4, 37032, Note_on_c, 1, 67, 77
4, 37055, Note_on_c, 1, 67, 0
4, 37056, Note_on_c, 1, 65, 77
4, 37079, Note_on_c, 1, 65, 0
4, 37080, Note_on_c, 1, 62, 77
4, 37103, Note_on_c, 1, 62, 0
4, 37104, Note_on_c, 1, 67, 77
4, 37127, Note_on_c, 1, 67, 0
4, 37128, Note_on_c, 1, 65, 76
4, 37151, Note_on_c, 1, 65, 0
4, 37152, Note_on_c, 1, 63, 76
4, 37175, Note_on_c, 1, 63, 0
4, 37176, Note_on_c, 1, 60, 76
4, 37199, Note_on_c, 1, 60, 0
4, 37200, Note_on_c, 1, 59, 75
4, 37223, Note_on_c, 1, 59, 0
4, 37224, Note_on_c, 1, 62, 75
4, 37247, Note_on_c, 1, 62, 0
4, 37248, Note_on_c, 1, 60, 75
4, 37271, Note_on_c, 1, 60, 0
4, 37272, Note_on_c, 1, 68, 75
4, 37295, Note_on_c, 1, 68, 0
4, 37296, Note_on_c, 1, 67, 75
4, 37319, Note_on_c, 1, 67, 0
4, 37320, Note_on_c, 1, 65, 75
4, 37343, Note_on_c, 1, 65, 0
4, 37344, Note_on_c, 1, 63, 75
4, 37367, Note_on_c, 1, 63, 0
4, 37368, Note_on_c, 1, 60, 75
4, 37391, Note_on_c, 1, 60, 0
4, 37392, Note_on_c, 1, 59, 75
4, 37415, Note_on_c, 1, 59, 0
4, 37416, Note_on_c, 1, 62, 75
4, 37439, Note_on_c, 1, 62, 0
4, 37440, Note_on_c, 1, 60, 75
4, 37463, Note_on_c, 1, 60, 0
4, 37464, Note_on_c, 1, 68, 75
4, 37487, Note_on_c, 1, 68, 0
4, 37488, Note_on_c, 1, 67, 75
4, 37511, Note_on_c, 1, 67, 0
4, 37512, Note_on_c, 1, 65, 75
4, 37535, Note_on_c, 1, 65, 0
4, 37536, Note_on_c, 1, 63, 75
4, 37581, Note_on_c, 1, 63, 0
4, 37608, Note_on_c, 1, 68, 77
4, 37608, Note_on_c, 1, 65, 77
4, 37632, Note_on_c, 1, 68, 0
4, 37632, Note_on_c, 1, 65, 0
4, 37632, Note_on_c, 1, 67, 77
4, 37632, Note_on_c, 1, 63, 77
4, 37677, Note_on_c, 1, 67, 0
4, 37677, Note_on_c, 1, 63, 0
4, 37704, Note_on_c, 1, 68, 80
4, 37704, Note_on_c, 1, 65, 80
4, 37728, Note_on_c, 1, 68, 0
4, 37728, Note_on_c, 1, 65, 0
4, 37728, Note_on_c, 1, 67, 80
4, 37728, Note_on_c, 1, 63, 80
4, 37773, Note_on_c, 1, 67, 0
4, 37773, Note_on_c, 1, 63, 0
4, 37800, Note_on_c, 1, 68, 80
4, 37800, Note_on_c, 1, 65, 80
4, 37824, Note_on_c, 1, 68, 0
4, 37824, Note_on_c, 1, 65, 0
4, 37824, Note_on_c, 1, 67, 80
4, 37824, Note_on_c, 1, 63, 80
4, 38001, Note_on_c, 1, 67, 0
4, 38001, Note_on_c, 1, 63, 0
4, 38016, Note_on_c, 1, 67, 64
4, 38061, Note_on_c, 1, 67, 0
4, 38064, Note_on_c, 1, 67, 67
4, 38109, Note_on_c, 1, 67, 0
4, 38112, Note_on_c, 1, 67, 71
4, 38157, Note_on_c, 1, 67, 0
4, 38160, Note_on_c, 1, 67, 74
4, 38205, Note_on_c, 1, 67, 0
4, 38208, Note_on_c, 1, 68, 78
4, 38231, Note_on_c, 1, 68, 0
4, 38232, Note_on_c, 1, 72, 80
4, 38255, Note_on_c, 1, 72, 0
4, 38256, Note_on_c, 1, 68, 80
4, 38279, Note_on_c, 1, 68, 0
4, 38280, Note_on_c, 1, 72, 80
4, 38303, Note_on_c, 1, 72, 0
4, 38304, Note_on_c, 1, 68, 80
4, 38327, Note_on_c, 1, 68, 0
4, 38328, Note_on_c, 1, 72, 80
4, 38351, Note_on_c, 1, 72, 0
4, 38352, Note_on_c, 1, 68, 80
4, 38375, Note_on_c, 1, 68, 0
4, 38376, Note_on_c, 1, 72, 80
4, 38399, Note_on_c, 1, 72, 0
4, 38400, Note_on_c, 1, 67, 80
4, 38423, Note_on_c, 1, 67, 0
4, 38424, Note_on_c, 1, 70, 80
4, 38447, Note_on_c, 1, 70, 0
4, 38448, Note_on_c, 1, 67, 80
4, 38471, Note_on_c, 1, 67, 0
4, 38472, Note_on_c, 1, 70, 80
4, 38495, Note_on_c, 1, 70, 0
4, 38496, Note_on_c, 1, 60, 80
4, 38519, Note_on_c, 1, 60, 0
4, 38520, Note_on_c, 1, 70, 80
4, 38543, Note_on_c, 1, 70, 0
4, 38544, Note_on_c, 1, 60, 80
4, 38567, Note_on_c, 1, 60, 0
4, 38568, Note_on_c, 1, 70, 80
4, 38591, Note_on_c, 1, 70, 0
4, 38592, Note_on_c, 1, 65, 80
4, 38681, Note_on_c, 1, 65, 0
4, 38688, Note_on_c, 1, 41, 75
4, 38755, Note_on_c, 1, 41, 0
4, 38760, Note_on_c, 1, 43, 75
4, 38772, Note_on_c, 1, 43, 0
4, 38772, Note_on_c, 1, 41, 75
4, 38784, Note_on_c, 1, 41, 0
4, 38784, Note_on_c, 1, 40, 75
4, 38829, Note_on_c, 1, 40, 0
4, 38880, Note_on_c, 1, 63, 75
4, 38947, Note_on_c, 1, 63, 0
4, 38952, Note_on_c, 1, 65, 70
4, 38964, Note_on_c, 1, 65, 0
4, 38964, Note_on_c, 1, 63, 70
4, 38976, Note_on_c, 1, 63, 0
4, 38976, Note_on_c, 1, 62, 70
4, 39021, Note_on_c, 1, 62, 0
4, 39072, Note_on_c, 1, 37, 75
4, 39139, Note_on_c, 1, 37, 0
4, 39144, Note_on_c, 1, 39, 75
4, 39156, Note_on_c, 1, 39, 0
4, 39156, Note_on_c, 1, 37, 75
4, 39168, Note_on_c, 1, 37, 0
4, 39168, Note_on_c, 1, 36, 75
4, 39213, Note_on_c, 1, 36, 0
4, 39264, Note_on_c, 1, 60, 70
4, 39331, Note_on_c, 1, 60, 0
4, 39336, Note_on_c, 1, 61, 70
4, 39348, Note_on_c, 1, 61, 0
4, 39348, Note_on_c, 1, 60, 70
4, 39360, Note_on_c, 1, 60, 0
4, 39360, Note_on_c, 1, 58, 70
4, 39405, Note_on_c, 1, 58, 0
4, 39456, Note_on_c, 1, 34, 75
4, 39523, Note_on_c, 1, 34, 0
4, 39528, Note_on_c, 1, 36, 75
4, 39540, Note_on_c, 1, 36, 0
4, 39540, Note_on_c, 1, 34, 75
4, 39552, Note_on_c, 1, 34, 0
4, 39552, Note_on_c, 1, 32, 80
4, 39641, Note_on_c, 1, 32, 0
4, 39648, Note_on_c, 1, 61, 80
4, 39648, Note_on_c, 1, 58, 80
4, 39648, Note_on_c, 1, 51, 80
4, 39737, Note_on_c, 1, 61, 0
4, 39737, Note_on_c, 1, 58, 0
4, 39737, Note_on_c, 1, 51, 0
4, 39744, Note_on_c, 1, 60, 80
4, 39744, Note_on_c, 1, 56, 80
4, 39833, Note_on_c, 1, 60, 0
4, 39833, Note_on_c, 1, 56, 0
4, 39840, Note_on_c, 1, 63, 75
4, 39840, Note_on_c, 1, 58, 75
4, 39840, Note_on_c, 1, 55, 75
4, 39929, Note_on_c, 1, 63, 0
4, 39929, Note_on_c, 1, 58, 0
4, 39929, Note_on_c, 1, 55, 0
4, 39936, Note_on_c, 1, 63, 70
4, 39936, Note_on_c, 1, 60, 70
4, 39936, Note_on_c, 1, 56, 70
4, 40025, Note_on_c, 1, 63, 0
4, 40025, Note_on_c, 1, 60, 0
4, 40025, Note_on_c, 1, 56, 0
4, 40032, Note_on_c, 1, 63, 70
4, 40032, Note_on_c, 1, 61, 70
4, 40032, Note_on_c, 1, 58, 70
4, 40121, Note_on_c, 1, 63, 0
4, 40121, Note_on_c, 1, 61, 0
4, 40121, Note_on_c, 1, 58, 0
4, 40128, Note_on_c, 1, 63, 70
4, 40128, Note_on_c, 1, 60, 70
4, 40217, Note_on_c, 1, 63, 0
4, 40217, Note_on_c, 1, 60, 0
4, 40224, Note_on_c, 1, 63, 67
4, 40224, Note_on_c, 1, 58, 67
4, 40224, Note_on_c, 1, 55, 67
4, 40313, Note_on_c, 1, 63, 0
4, 40313, Note_on_c, 1, 58, 0
4, 40313, Note_on_c, 1, 55, 0
4, 40320, Note_on_c, 1, 68, 64
4, 40365, Note_on_c, 1, 68, 0
4, 40368, Note_on_c, 1, 63, 64
4, 40413, Note_on_c, 1, 63, 0
4, 40416, Note_on_c, 1, 60, 64
4, 40461, Note_on_c, 1, 60, 0
4, 40464, Note_on_c, 1, 56, 64
4, 40509, Note_on_c, 1, 56, 0
4, 40512, Note_on_c, 1, 66, 66
4, 40557, Note_on_c, 1, 66, 0
4, 40560, Note_on_c, 1, 63, 68
4, 40605, Note_on_c, 1, 63, 0
4, 40608, Note_on_c, 1, 60, 71
4, 40653, Note_on_c, 1, 60, 0
4, 40656, Note_on_c, 1, 54, 73
4, 40701, Note_on_c, 1, 54, 0
4, 40704, Note_on_c, 1, 42, 92
4, 40704, Note_on_c, 1, 30, 92
4, 40896, Note_on_c, 1, 42, 0
4, 40896, Note_on_c, 1, 30, 0
4, 40896, Note_on_c, 1, 43, 86
4, 40896, Note_on_c, 1, 31, 86
4, 40941, Note_on_c, 1, 43, 0
4, 40941, Note_on_c, 1, 31, 0
4, 40992, Note_on_c, 1, 55, 80
4, 40992, Note_on_c, 1, 51, 80
4, 40992, Note_on_c, 1, 48, 80
4, 40992, Note_on_c, 1, 43, 80
4, 41059, Note_on_c, 1, 55, 0
4, 41059, Note_on_c, 1, 51, 0
4, 41059, Note_on_c, 1, 48, 0
4, 41059, Note_on_c, 1, 43, 0
4, 41088, Note_on_c, 1, 55, 80
4, 41088, Note_on_c, 1, 50, 80
4, 41088, Note_on_c, 1, 47, 80
4, 41088, Note_on_c, 1, 43, 80
4, 41133, Note_on_c, 1, 55, 0
4, 41133, Note_on_c, 1, 50, 0
4, 41133, Note_on_c, 1, 47, 0
4, 41133, Note_on_c, 1, 43, 0
4, 41184, Note_on_c, 1, 55, 80
4, 41184, Note_on_c, 1, 51, 80
4, 41184, Note_on_c, 1, 48, 80
4, 41184, Note_on_c, 1, 43, 80
4, 41251, Note_on_c, 1, 55, 0
4, 41251, Note_on_c, 1, 51, 0
4, 41251, Note_on_c, 1, 48, 0
4, 41251, Note_on_c, 1, 43, 0
4, 41280, Note_on_c, 1, 43, 80
4, 41292, Note_on_c, 1, 43, 0
4, 41292, Note_on_c, 1, 47, 80
4, 41304, Note_on_c, 1, 47, 0
4, 41304, Note_on_c, 1, 50, 80
4, 41316, Note_on_c, 1, 50, 0
4, 41316, Note_on_c, 1, 55, 80
4, 41328, Note_on_c, 1, 55, 0
4, 41328, Note_on_c, 1, 56, 80
4, 41340, Note_on_c, 1, 56, 0
4, 41340, Note_on_c, 1, 55, 80
4, 41352, Note_on_c, 1, 55, 0
4, 41352, Note_on_c, 1, 50, 80
4, 41364, Note_on_c, 1, 50, 0
4, 41364, Note_on_c, 1, 47, 80
4, 41376, Note_on_c, 1, 47, 0
4, 41376, Note_on_c, 1, 43, 80
4, 41388, Note_on_c, 1, 43, 0
4, 41388, Note_on_c, 1, 48, 80
4, 41400, Note_on_c, 1, 48, 0
4, 41400, Note_on_c, 1, 51, 80
4, 41412, Note_on_c, 1, 51, 0
4, 41412, Note_on_c, 1, 55, 80
4, 41424, Note_on_c, 1, 55, 0
4, 41424, Note_on_c, 1, 56, 80
4, 41436, Note_on_c, 1, 56, 0
4, 41436, Note_on_c, 1, 55, 80
4, 41448, Note_on_c, 1, 55, 0
4, 41448, Note_on_c, 1, 51, 80
4, 41460, Note_on_c, 1, 51, 0
4, 41460, Note_on_c, 1, 48, 80
4, 41472, Note_on_c, 1, 48, 0
4, 41472, Note_on_c, 1, 43, 80
4, 41484, Note_on_c, 1, 43, 0
4, 41484, Note_on_c, 1, 47, 80
4, 41496, Note_on_c, 1, 47, 0
4, 41496, Note_on_c, 1, 50, 80
4, 41508, Note_on_c, 1, 50, 0
4, 41508, Note_on_c, 1, 55, 80
4, 41520, Note_on_c, 1, 55, 0
4, 41520, Note_on_c, 1, 56, 80
4, 41532, Note_on_c, 1, 56, 0
4, 41532, Note_on_c, 1, 55, 80
4, 41544, Note_on_c, 1, 55, 0
4, 41544, Note_on_c, 1, 50, 80
4, 41556, Note_on_c, 1, 50, 0
4, 41556, Note_on_c, 1, 47, 80
4, 41568, Note_on_c, 1, 47, 0
4, 41568, Note_on_c, 1, 43, 80
4, 41580, Note_on_c, 1, 43, 0
4, 41580, Note_on_c, 1, 48, 80
4, 41592, Note_on_c, 1, 48, 0
4, 41592, Note_on_c, 1, 51, 80
4, 41604, Note_on_c, 1, 51, 0
4, 41604, Note_on_c, 1, 55, 80
4, 41616, Note_on_c, 1, 55, 0
4, 41616, Note_on_c, 1, 56, 80
4, 41628, Note_on_c, 1, 56, 0
4, 41628, Note_on_c, 1, 55, 80
4, 41640, Note_on_c, 1, 55, 0
4, 41640, Note_on_c, 1, 51, 80
4, 41652, Note_on_c, 1, 51, 0
4, 41652, Note_on_c, 1, 48, 80
4, 41664, Note_on_c, 1, 48, 0
4, 41664, Note_on_c, 1, 43, 80
4, 41709, Note_on_c, 1, 43, 0
4, 41760, Note_on_c, 1, 55, 80
4, 41760, Note_on_c, 1, 50, 80
4, 41760, Note_on_c, 1, 47, 80
4, 41760, Note_on_c, 1, 43, 80
4, 41805, Note_on_c, 1, 55, 0
4, 41805, Note_on_c, 1, 50, 0
4, 41805, Note_on_c, 1, 47, 0
4, 41805, Note_on_c, 1, 43, 0
4, 41856, Note_on_c, 1, 43, 80
4, 41856, Note_on_c, 1, 31, 80
4, 42210, Note_on_c, 1, 43, 0
4, 42210, Note_on_c, 1, 31, 0
4, 42336, Note_on_c, 1, 68, 64
4, 42336, Note_on_c, 1, 64, 64
4, 42356, Note_on_c, 1, 68, 0
4, 42356, Note_on_c, 1, 64, 0
4, 42384, Note_on_c, 1, 66, 64
4, 42384, Note_on_c, 1, 59, 64
4, 42404, Note_on_c, 1, 66, 0
4, 42404, Note_on_c, 1, 59, 0
4, 42432, Note_on_c, 1, 64, 64
4, 42432, Note_on_c, 1, 56, 64
4, 42477, Note_on_c, 1, 64, 0
4, 42477, Note_on_c, 1, 56, 0
4, 42528, Note_on_c, 1, 68, 58
4, 42528, Note_on_c, 1, 64, 58
4, 42548, Note_on_c, 1, 68, 0
4, 42548, Note_on_c, 1, 64, 0
4, 42576, Note_on_c, 1, 66, 58
4, 42576, Note_on_c, 1, 59, 58
4, 42596, Note_on_c, 1, 66, 0
4, 42596, Note_on_c, 1, 59, 0
4, 42624, Note_on_c, 1, 64, 58
4, 42624, Note_on_c, 1, 56, 58
4, 42669, Note_on_c, 1, 64, 0
4, 42669, Note_on_c, 1, 56, 0
4, 42708, Note_on_c, 1, 64, 64
4, 42720, Note_on_c, 1, 64, 0
4, 42720, Note_on_c, 1, 68, 64
4, 42730, Note_on_c, 1, 68, 0
4, 42756, Note_on_c, 1, 64, 64
4, 42768, Note_on_c, 1, 64, 0
4, 42768, Note_on_c, 1, 69, 64
4, 42778, Note_on_c, 1, 69, 0
4, 42804, Note_on_c, 1, 64, 64
4, 42816, Note_on_c, 1, 64, 0
4, 42816, Note_on_c, 1, 71, 64
4, 42826, Note_on_c, 1, 71, 0
4, 42852, Note_on_c, 1, 64, 64
4, 42864, Note_on_c, 1, 64, 0
4, 42864, Note_on_c, 1, 73, 64
4, 42874, Note_on_c, 1, 73, 0
4, 42900, Note_on_c, 1, 64, 66
4, 42912, Note_on_c, 1, 64, 0
4, 42912, Note_on_c, 1, 74, 67
4, 42922, Note_on_c, 1, 74, 0
4, 42948, Note_on_c, 1, 64, 69
4, 42960, Note_on_c, 1, 64, 0
4, 42960, Note_on_c, 1, 74, 70
4, 42970, Note_on_c, 1, 74, 0
4, 42996, Note_on_c, 1, 64, 70
4, 43008, Note_on_c, 1, 64, 0
4, 43008, Note_on_c, 1, 73, 70
4, 43053, Note_on_c, 1, 73, 0
4, 43104, Note_on_c, 1, 61, 70
4, 43104, Note_on_c, 1, 57, 70
4, 43124, Note_on_c, 1, 61, 0
4, 43124, Note_on_c, 1, 57, 0
4, 43152, Note_on_c, 1, 59, 70
4, 43152, Note_on_c, 1, 52, 70
4, 43172, Note_on_c, 1, 59, 0
4, 43172, Note_on_c, 1, 52, 0
4, 43200, Note_on_c, 1, 57, 70
4, 43200, Note_on_c, 1, 49, 70
4, 43245, Note_on_c, 1, 57, 0
4, 43245, Note_on_c, 1, 49, 0
4, 43296, Note_on_c, 1, 61, 64
4, 43296, Note_on_c, 1, 57, 64
4, 43316, Note_on_c, 1, 61, 0
4, 43316, Note_on_c, 1, 57, 0
4, 43344, Note_on_c, 1, 59, 64
4, 43344, Note_on_c, 1, 52, 64
4, 43364, Note_on_c, 1, 59, 0
4, 43364, Note_on_c, 1, 52, 0
4, 43392, Note_on_c, 1, 57, 64
4, 43392, Note_on_c, 1, 49, 64
4, 43437, Note_on_c, 1, 57, 0
4, 43437, Note_on_c, 1, 49, 0
4, 43584, Note_on_c, 1, 76, 70
4, 43584, Note_on_c, 1, 73, 70
4, 43680, Note_on_c, 1, 76, 0
4, 43680, Note_on_c, 1, 73, 0
4, 43680, Note_on_c, 1, 74, 70
4, 43680, Note_on_c, 1, 71, 70
4, 43769, Note_on_c, 1, 74, 0
4, 43769, Note_on_c, 1, 71, 0
4, 43776, Note_on_c, 1, 73, 70
4, 43776, Note_on_c, 1, 70, 70
4, 43821, Note_on_c, 1, 73, 0
4, 43821, Note_on_c, 1, 70, 0
4, 43824, Note_on_c, 1, 74, 72
4, 43824, Note_on_c, 1, 71, 72
4, 43869, Note_on_c, 1, 74, 0
4, 43869, Note_on_c, 1, 71, 0
4, 43872, Note_on_c, 1, 73, 74
4, 43872, Note_on_c, 1, 70, 74
4, 43917, Note_on_c, 1, 73, 0
4, 43917, Note_on_c, 1, 70, 0
4, 43920, Note_on_c, 1, 70, 76
4, 43920, Note_on_c, 1, 66, 76
4, 43965, Note_on_c, 1, 70, 0
4, 43965, Note_on_c, 1, 66, 0
4, 43968, Note_on_c, 1, 71, 78
4, 43991, Note_on_c, 1, 71, 0
4, 43992, Note_on_c, 1, 74, 70
4, 44015, Note_on_c, 1, 74, 0
4, 44016, Note_on_c, 1, 71, 70
4, 44039, Note_on_c, 1, 71, 0
4, 44040, Note_on_c, 1, 74, 70
4, 44063, Note_on_c, 1, 74, 0
4, 44064, Note_on_c, 1, 71, 70
4, 44087, Note_on_c, 1, 71, 0
4, 44088, Note_on_c, 1, 74, 70
4, 44111, Note_on_c, 1, 74, 0
4, 44112, Note_on_c, 1, 71, 70
4, 44135, Note_on_c, 1, 71, 0
4, 44136, Note_on_c, 1, 74, 70
4, 44159, Note_on_c, 1, 74, 0
4, 44160, Note_on_c, 1, 70, 70
4, 44183, Note_on_c, 1, 70, 0
4, 44184, Note_on_c, 1, 73, 70
4, 44207, Note_on_c, 1, 73, 0
4, 44208, Note_on_c, 1, 70, 70
4, 44231, Note_on_c, 1, 70, 0
4, 44232, Note_on_c, 1, 73, 70
4, 44255, Note_on_c, 1, 73, 0
4, 44256, Note_on_c, 1, 71, 70
4, 44279, Note_on_c, 1, 71, 0
4, 44280, Note_on_c, 1, 74, 70
4, 44303, Note_on_c, 1, 74, 0
4, 44304, Note_on_c, 1, 71, 70
4, 44327, Note_on_c, 1, 71, 0
4, 44328, Note_on_c, 1, 74, 70
4, 44351, Note_on_c, 1, 74, 0
4, 44352, Note_on_c, 1, 70, 70
4, 44375, Note_on_c, 1, 70, 0
4, 44376, Note_on_c, 1, 73, 70
4, 44399, Note_on_c, 1, 73, 0
4, 44400, Note_on_c, 1, 70, 70
4, 44423, Note_on_c, 1, 70, 0
4, 44424, Note_on_c, 1, 73, 70
4, 44447, Note_on_c, 1, 73, 0
4, 44448, Note_on_c, 1, 71, 80
4, 44515, Note_on_c, 1, 71, 0
4, 44520, Note_on_c, 1, 73, 80
4, 44532, Note_on_c, 1, 73, 0
4, 44532, Note_on_c, 1, 71, 80
4, 44544, Note_on_c, 1, 71, 0
4, 44544, Note_on_c, 1, 70, 80
4, 44633, Note_on_c, 1, 70, 0
4, 44640, Note_on_c, 1, 69, 96
4, 44736, Note_on_c, 1, 69, 0
4, 44736, Note_on_c, 1, 68, 80
4, 44825, Note_on_c, 1, 68, 0
4, 44832, Note_on_c, 1, 67, 96
4, 44904, Note_on_c, 1, 67, 0
4, 44904, Note_on_c, 1, 69, 80
4, 44916, Note_on_c, 1, 69, 0
4, 44916, Note_on_c, 1, 67, 80
4, 44928, Note_on_c, 1, 67, 0
4, 44928, Note_on_c, 1, 66, 80
4, 45072, Note_on_c, 1, 66, 0
4, 45072, Note_on_c, 1, 67, 96
4, 45120, Note_on_c, 1, 67, 0
4, 45120, Note_on_c, 1, 66, 80
4, 45264, Note_on_c, 1, 66, 0
4, 45264, Note_on_c, 1, 67, 96
4, 45312, Note_on_c, 1, 67, 0
4, 45312, Note_on_c, 1, 66, 80
4, 45504, Note_on_c, 1, 66, 0
4, 45504, Note_on_c, 1, 65, 75
4, 45681, Note_on_c, 1, 65, 0
4, 45696, Note_on_c, 1, 65, 70
4, 45873, Note_on_c, 1, 65, 0
4, 45888, Note_on_c, 1, 65, 70
4, 46065, Note_on_c, 1, 65, 0
4, 46080, Note_on_c, 1, 65, 70
4, 46080, Note_on_c, 1, 62, 70
4, 46257, Note_on_c, 1, 65, 0
4, 46257, Note_on_c, 1, 62, 0
4, 46392, Note_on_c, 1, 46, 80
4, 46415, Note_on_c, 1, 46, 0
4, 46416, Note_on_c, 1, 48, 80
4, 46439, Note_on_c, 1, 48, 0
4, 46440, Note_on_c, 1, 50, 80
4, 46463, Note_on_c, 1, 50, 0
4, 46464, Note_on_c, 1, 39, 80
4, 46470, Note_on_c, 1, 43, 80
4, 46476, Note_on_c, 1, 46, 80
4, 46482, Note_on_c, 1, 51, 80
4, 46557, Note_on_c, 1, 51, 0
4, 46557, Note_on_c, 1, 46, 0
4, 46557, Note_on_c, 1, 43, 0
4, 46557, Note_on_c, 1, 39, 0
4, 46560, Note_on_c, 1, 49, 80
4, 46560, Note_on_c, 1, 46, 80
4, 46560, Note_on_c, 1, 43, 80
4, 46560, Note_on_c, 1, 39, 80
4, 46627, Note_on_c, 1, 49, 0
4, 46627, Note_on_c, 1, 46, 0
4, 46627, Note_on_c, 1, 43, 0
4, 46627, Note_on_c, 1, 39, 0
4, 46632, Note_on_c, 1, 49, 80
4, 46632, Note_on_c, 1, 46, 80
4, 46632, Note_on_c, 1, 43, 80
4, 46632, Note_on_c, 1, 39, 80
4, 46655, Note_on_c, 1, 49, 0
4, 46655, Note_on_c, 1, 46, 0
4, 46655, Note_on_c, 1, 43, 0
4, 46655, Note_on_c, 1, 39, 0
4, 46656, Note_on_c, 1, 39, 80
4, 46662, Note_on_c, 1, 44, 80
4, 46668, Note_on_c, 1, 48, 80
4, 46674, Note_on_c, 1, 51, 80
4, 46837, Note_on_c, 1, 51, 0
4, 46837, Note_on_c, 1, 48, 0
4, 46837, Note_on_c, 1, 44, 0
4, 46837, Note_on_c, 1, 39, 0
4, 46848, Note_on_c, 1, 39, 80
4, 46854, Note_on_c, 1, 41, 80
4, 46860, Note_on_c, 1, 44, 80
4, 46866, Note_on_c, 1, 50, 80
4, 46941, Note_on_c, 1, 50, 0
4, 46941, Note_on_c, 1, 44, 0
4, 46941, Note_on_c, 1, 41, 0
4, 46941, Note_on_c, 1, 39, 0
4, 46944, Note_on_c, 1, 39, 80
4, 46950, Note_on_c, 1, 41, 80
4, 46956, Note_on_c, 1, 44, 80
4, 46962, Note_on_c, 1, 50, 80
4, 47037, Note_on_c, 1, 50, 0
4, 47037, Note_on_c, 1, 44, 0
4, 47037, Note_on_c, 1, 41, 0
4, 47037, Note_on_c, 1, 39, 0
4, 47040, Note_on_c, 1, 39, 80
4, 47046, Note_on_c, 1, 43, 80
4, 47052, Note_on_c, 1, 46, 80
4, 47058, Note_on_c, 1, 51, 80
4, 47155, Note_on_c, 1, 51, 0
4, 47155, Note_on_c, 1, 46, 0
4, 47155, Note_on_c, 1, 43, 0
4, 47155, Note_on_c, 1, 39, 0
4, 47232, Note_on_c, 1, 68, 64
4, 47232, Note_on_c, 1, 65, 64
4, 47232, Note_on_c, 1, 58, 64
4, 47279, Note_on_c, 1, 68, 0
4, 47279, Note_on_c, 1, 65, 0
4, 47279, Note_on_c, 1, 58, 0
4, 47328, Note_on_c, 1, 68, 64
4, 47328, Note_on_c, 1, 65, 64
4, 47328, Note_on_c, 1, 58, 64
4, 47375, Note_on_c, 1, 68, 0
4, 47375, Note_on_c, 1, 65, 0
4, 47375, Note_on_c, 1, 58, 0
4, 47400, Note_on_c, 1, 62, 64
4, 47424, Note_on_c, 1, 62, 0
4, 47424, Note_on_c, 1, 63, 64
4, 47469, Note_on_c, 1, 63, 0
4, 47544, Note_on_c, 1, 58, 64
4, 47567, Note_on_c, 1, 58, 0
4, 47568, Note_on_c, 1, 60, 64
4, 47591, Note_on_c, 1, 60, 0
4, 47592, Note_on_c, 1, 62, 64
4, 47615, Note_on_c, 1, 62, 0
4, 47616, Note_on_c, 1, 63, 64
4, 47636, Note_on_c, 1, 63, 0
4, 47736, Note_on_c, 1, 58, 75
4, 47759, Note_on_c, 1, 58, 0
4, 47760, Note_on_c, 1, 60, 75
4, 47783, Note_on_c, 1, 60, 0
4, 47784, Note_on_c, 1, 62, 75
4, 47807, Note_on_c, 1, 62, 0
4, 47808, Note_on_c, 1, 63, 75
4, 47828, Note_on_c, 1, 63, 0
4, 48384, Note_on_c, 1, 48, 64
4, 48408, Note_on_c, 1, 48, 0
4, 48408, Note_on_c, 1, 56, 64
4, 48431, Note_on_c, 1, 56, 0
4, 48432, Note_on_c, 1, 48, 64
4, 48456, Note_on_c, 1, 48, 0
4, 48456, Note_on_c, 1, 56, 64
4, 48479, Note_on_c, 1, 56, 0
4, 48480, Note_on_c, 1, 48, 64
4, 48504, Note_on_c, 1, 48, 0
4, 48504, Note_on_c, 1, 56, 64
4, 48527, Note_on_c, 1, 56, 0
4, 48528, Note_on_c, 1, 48, 64
4, 48552, Note_on_c, 1, 48, 0
4, 48552, Note_on_c, 1, 56, 64
4, 48575, Note_on_c, 1, 56, 0
4, 48576, Note_on_c, 1, 46, 64
4, 48600, Note_on_c, 1, 46, 0
4, 48600, Note_on_c, 1, 56, 64
4, 48623, Note_on_c, 1, 56, 0
4, 48624, Note_on_c, 1, 46, 64
4, 48648, Note_on_c, 1, 46, 0
4, 48648, Note_on_c, 1, 56, 64
4, 48671, Note_on_c, 1, 56, 0
4, 48672, Note_on_c, 1, 46, 64
4, 48696, Note_on_c, 1, 46, 0
4, 48696, Note_on_c, 1, 55, 64
4, 48719, Note_on_c, 1, 55, 0
4, 48720, Note_on_c, 1, 46, 64
4, 48744, Note_on_c, 1, 46, 0
4, 48744, Note_on_c, 1, 55, 64
4, 48767, Note_on_c, 1, 55, 0
4, 48768, Note_on_c, 1, 44, 64
4, 48792, Note_on_c, 1, 44, 0
4, 48792, Note_on_c, 1, 55, 64
4, 48815, Note_on_c, 1, 55, 0
4, 48816, Note_on_c, 1, 44, 64
4, 48840, Note_on_c, 1, 44, 0
4, 48840, Note_on_c, 1, 55, 64
4, 48863, Note_on_c, 1, 55, 0
4, 48864, Note_on_c, 1, 44, 64
4, 48888, Note_on_c, 1, 44, 0
4, 48888, Note_on_c, 1, 53, 64
4, 48911, Note_on_c, 1, 53, 0
4, 48912, Note_on_c, 1, 44, 64
4, 48936, Note_on_c, 1, 44, 0
4, 48936, Note_on_c, 1, 53, 64
4, 48959, Note_on_c, 1, 53, 0
4, 48960, Note_on_c, 1, 43, 64
4, 48984, Note_on_c, 1, 43, 0
4, 48984, Note_on_c, 1, 53, 64
4, 49007, Note_on_c, 1, 53, 0
4, 49008, Note_on_c, 1, 43, 64
4, 49032, Note_on_c, 1, 43, 0
4, 49032, Note_on_c, 1, 53, 64
4, 49055, Note_on_c, 1, 53, 0
4, 49056, Note_on_c, 1, 43, 64
4, 49080, Note_on_c, 1, 43, 0
4, 49080, Note_on_c, 1, 51, 64
4, 49103, Note_on_c, 1, 51, 0
4, 49104, Note_on_c, 1, 43, 64
4, 49128, Note_on_c, 1, 43, 0
4, 49128, Note_on_c, 1, 51, 64
4, 49151, Note_on_c, 1, 51, 0
4, 49152, Note_on_c, 1, 41, 64
4, 49176, Note_on_c, 1, 41, 0
4, 49176, Note_on_c, 1, 50, 64
4, 49199, Note_on_c, 1, 50, 0
4, 49200, Note_on_c, 1, 41, 64
4, 49224, Note_on_c, 1, 41, 0
4, 49224, Note_on_c, 1, 50, 64
4, 49247, Note_on_c, 1, 50, 0
4, 49248, Note_on_c, 1, 39, 64
4, 49271, Note_on_c, 1, 39, 0
4, 49272, Note_on_c, 1, 43, 64
4, 49295, Note_on_c, 1, 43, 0
4, 49296, Note_on_c, 1, 46, 64
4, 49319, Note_on_c, 1, 46, 0
4, 49320, Note_on_c, 1, 51, 64
4, 49343, Note_on_c, 1, 51, 0
4, 49344, Note_on_c, 1, 46, 64
4, 49433, Note_on_c, 1, 46, 0
4, 49464, Note_on_c, 1, 58, 64
4, 49487, Note_on_c, 1, 58, 0
4, 49488, Note_on_c, 1, 57, 64
4, 49511, Note_on_c, 1, 57, 0
4, 49512, Note_on_c, 1, 60, 64
4, 49535, Note_on_c, 1, 60, 0
4, 49536, Note_on_c, 1, 58, 64
4, 49559, Note_on_c, 1, 58, 0
4, 49560, Note_on_c, 1, 62, 64
4, 49583, Note_on_c, 1, 62, 0
4, 49584, Note_on_c, 1, 60, 64
4, 49607, Note_on_c, 1, 60, 0
4, 49608, Note_on_c, 1, 63, 65
4, 49631, Note_on_c, 1, 63, 0
4, 49632, Note_on_c, 1, 62, 65
4, 49655, Note_on_c, 1, 62, 0
4, 49656, Note_on_c, 1, 65, 66
4, 49679, Note_on_c, 1, 65, 0
4, 49680, Note_on_c, 1, 64, 66
4, 49703, Note_on_c, 1, 64, 0
4, 49704, Note_on_c, 1, 67, 67
4, 49727, Note_on_c, 1, 67, 0
4, 49728, Note_on_c, 1, 65, 67
4, 49905, Note_on_c, 1, 65, 0
4, 49920, Note_on_c, 1, 67, 71
4, 49920, Note_on_c, 1, 63, 71
4, 50009, Note_on_c, 1, 67, 0
4, 50009, Note_on_c, 1, 63, 0
4, 50016, Note_on_c, 1, 75, 73
4, 50083, Note_on_c, 1, 75, 0
4, 50088, Note_on_c, 1, 77, 75
4, 50100, Note_on_c, 1, 77, 0
4, 50100, Note_on_c, 1, 75, 75
4, 50112, Note_on_c, 1, 75, 0
4, 50112, Note_on_c, 1, 74, 75
4, 50157, Note_on_c, 1, 74, 0
4, 50208, Note_on_c, 1, 37, 75
4, 50275, Note_on_c, 1, 37, 0
4, 50280, Note_on_c, 1, 39, 75
4, 50292, Note_on_c, 1, 39, 0
4, 50292, Note_on_c, 1, 37, 75
4, 50304, Note_on_c, 1, 37, 0
4, 50304, Note_on_c, 1, 36, 75
4, 50349, Note_on_c, 1, 36, 0
4, 50400, Note_on_c, 1, 72, 70
4, 50467, Note_on_c, 1, 72, 0
4, 50472, Note_on_c, 1, 73, 70
4, 50484, Note_on_c, 1, 73, 0
4, 50484, Note_on_c, 1, 72, 70
4, 50496, Note_on_c, 1, 72, 0
4, 50496, Note_on_c, 1, 70, 70
4, 50541, Note_on_c, 1, 70, 0
4, 50592, Note_on_c, 1, 34, 75
4, 50659, Note_on_c, 1, 34, 0
4, 50664, Note_on_c, 1, 36, 75
4, 50676, Note_on_c, 1, 36, 0
4, 50676, Note_on_c, 1, 34, 75
4, 50688, Note_on_c, 1, 34, 0
4, 50688, Note_on_c, 1, 32, 75
4, 50733, Note_on_c, 1, 32, 0
4, 50784, Note_on_c, 1, 68, 70
4, 50851, Note_on_c, 1, 68, 0
4, 50856, Note_on_c, 1, 70, 70
4, 50868, Note_on_c, 1, 70, 0
4, 50868, Note_on_c, 1, 68, 70
4, 50880, Note_on_c, 1, 68, 0
4, 50880, Note_on_c, 1, 67, 70
4, 50925, Note_on_c, 1, 67, 0
4, 50976, Note_on_c, 1, 31, 80
4, 51043, Note_on_c, 1, 31, 0
4, 51048, Note_on_c, 1, 32, 80
4, 51060, Note_on_c, 1, 32, 0
4, 51060, Note_on_c, 1, 31, 80
4, 51072, Note_on_c, 1, 31, 0
4, 51072, Note_on_c, 1, 29, 80
4, 51117, Note_on_c, 1, 29, 0
4, 51120, Note_on_c, 1, 38, 64
4, 51165, Note_on_c, 1, 38, 0
4, 51168, Note_on_c, 1, 39, 64
4, 51213, Note_on_c, 1, 39, 0
4, 51216, Note_on_c, 1, 43, 64
4, 51261, Note_on_c, 1, 43, 0
4, 51264, Note_on_c, 1, 46, 64
4, 51284, Note_on_c, 1, 46, 0
4, 51312, Note_on_c, 1, 53, 64
4, 51335, Note_on_c, 1, 53, 0
4, 51336, Note_on_c, 1, 46, 64
4, 51359, Note_on_c, 1, 46, 0
4, 51360, Note_on_c, 1, 54, 64
4, 51383, Note_on_c, 1, 54, 0
4, 51384, Note_on_c, 1, 46, 64
4, 51407, Note_on_c, 1, 46, 0
4, 51408, Note_on_c, 1, 57, 64
4, 51431, Note_on_c, 1, 57, 0
4, 51432, Note_on_c, 1, 46, 64
4, 51455, Note_on_c, 1, 46, 0
4, 51456, Note_on_c, 1, 58, 64
4, 51479, Note_on_c, 1, 58, 0
4, 51480, Note_on_c, 1, 46, 64
4, 51503, Note_on_c, 1, 46, 0
4, 51504, Note_on_c, 1, 53, 64
4, 51527, Note_on_c, 1, 53, 0
4, 51528, Note_on_c, 1, 46, 64
4, 51551, Note_on_c, 1, 46, 0
4, 51552, Note_on_c, 1, 54, 64
4, 51575, Note_on_c, 1, 54, 0
4, 51576, Note_on_c, 1, 46, 65
4, 51599, Note_on_c, 1, 46, 0
4, 51600, Note_on_c, 1, 57, 66
4, 51623, Note_on_c, 1, 57, 0
4, 51624, Note_on_c, 1, 46, 66
4, 51647, Note_on_c, 1, 46, 0
4, 51648, Note_on_c, 1, 58, 67
4, 51671, Note_on_c, 1, 58, 0
4, 51672, Note_on_c, 1, 46, 68
4, 51695, Note_on_c, 1, 46, 0
4, 51696, Note_on_c, 1, 58, 68
4, 51719, Note_on_c, 1, 58, 0
4, 51720, Note_on_c, 1, 46, 69
4, 51743, Note_on_c, 1, 46, 0
4, 51744, Note_on_c, 1, 58, 70
4, 51767, Note_on_c, 1, 58, 0
4, 51768, Note_on_c, 1, 46, 70
4, 51791, Note_on_c, 1, 46, 0
4, 51792, Note_on_c, 1, 58, 71
4, 51815, Note_on_c, 1, 58, 0
4, 51816, Note_on_c, 1, 46, 72
4, 51839, Note_on_c, 1, 46, 0
4, 51840, Note_on_c, 1, 58, 73
4, 51863, Note_on_c, 1, 58, 0
4, 51864, Note_on_c, 1, 46, 73
4, 51887, Note_on_c, 1, 46, 0
4, 51888, Note_on_c, 1, 58, 74
4, 51911, Note_on_c, 1, 58, 0
4, 51912, Note_on_c, 1, 46, 75
4, 51935, Note_on_c, 1, 46, 0
4, 51936, Note_on_c, 1, 58, 75
4, 51959, Note_on_c, 1, 58, 0
4, 51960, Note_on_c, 1, 46, 76
4, 51983, Note_on_c, 1, 46, 0
4, 51984, Note_on_c, 1, 58, 77
4, 52007, Note_on_c, 1, 58, 0
4, 52008, Note_on_c, 1, 46, 77
4, 52031, Note_on_c, 1, 46, 0
4, 52032, Note_on_c, 1, 51, 78
4, 52040, Note_on_c, 1, 55, 78
4, 52048, Note_on_c, 1, 58, 78
4, 52125, Note_on_c, 1, 58, 0
4, 52125, Note_on_c, 1, 55, 0
4, 52125, Note_on_c, 1, 51, 0
4, 52128, Note_on_c, 1, 51, 80
4, 52131, Note_on_c, 1, 55, 80
4, 52134, Note_on_c, 1, 58, 80
4, 52137, Note_on_c, 1, 61, 80
4, 52197, Note_on_c, 1, 61, 0
4, 52197, Note_on_c, 1, 58, 0
4, 52197, Note_on_c, 1, 55, 0
4, 52197, Note_on_c, 1, 51, 0
4, 52200, Note_on_c, 1, 61, 80
4, 52200, Note_on_c, 1, 58, 80
4, 52200, Note_on_c, 1, 55, 80
4, 52200, Note_on_c, 1, 51, 80
4, 52223, Note_on_c, 1, 61, 0
4, 52223, Note_on_c, 1, 58, 0
4, 52223, Note_on_c, 1, 55, 0
4, 52223, Note_on_c, 1, 51, 0
4, 52224, Note_on_c, 1, 51, 80
4, 52230, Note_on_c, 1, 56, 80
4, 52236, Note_on_c, 1, 60, 80
4, 52242, Note_on_c, 1, 63, 80
4, 52409, Note_on_c, 1, 63, 0
4, 52409, Note_on_c, 1, 60, 0
4, 52409, Note_on_c, 1, 56, 0
4, 52409, Note_on_c, 1, 51, 0
4, 52416, Note_on_c, 1, 62, 80
4, 52416, Note_on_c, 1, 56, 80
4, 52416, Note_on_c, 1, 53, 80
4, 52416, Note_on_c, 1, 51, 80
4, 52593, Note_on_c, 1, 62, 0
4, 52593, Note_on_c, 1, 56, 0
4, 52593, Note_on_c, 1, 53, 0
4, 52593, Note_on_c, 1, 51, 0
4, 52608, Note_on_c, 1, 63, 80
4, 52608, Note_on_c, 1, 58, 80
4, 52608, Note_on_c, 1, 55, 80
4, 52608, Note_on_c, 1, 51, 80
4, 52697, Note_on_c, 1, 63, 0
4, 52697, Note_on_c, 1, 58, 0
4, 52697, Note_on_c, 1, 55, 0
4, 52697, Note_on_c, 1, 51, 0
4, 52704, Note_on_c, 1, 65, 75
4, 52704, Note_on_c, 1, 58, 75
4, 52704, Note_on_c, 1, 56, 75
4, 52793, Note_on_c, 1, 65, 0
4, 52793, Note_on_c, 1, 58, 0
4, 52793, Note_on_c, 1, 56, 0
4, 52800, Note_on_c, 1, 63, 64
4, 52800, Note_on_c, 1, 58, 64
4, 52800, Note_on_c, 1, 55, 64
4, 52889, Note_on_c, 1, 63, 0
4, 52889, Note_on_c, 1, 58, 0
4, 52889, Note_on_c, 1, 55, 0
4, 52896, Note_on_c, 1, 65, 75
4, 52896, Note_on_c, 1, 58, 75
4, 52896, Note_on_c, 1, 56, 75
4, 52985, Note_on_c, 1, 65, 0
4, 52985, Note_on_c, 1, 58, 0
4, 52985, Note_on_c, 1, 56, 0
4, 52992, Note_on_c, 1, 63, 80
4, 52992, Note_on_c, 1, 58, 80
4, 52992, Note_on_c, 1, 55, 80
4, 53169, Note_on_c, 1, 63, 0
4, 53169, Note_on_c, 1, 58, 0
4, 53169, Note_on_c, 1, 55, 0
4, 53184, Note_on_c, 1, 63, 80
4, 53184, Note_on_c, 1, 60, 80
4, 53184, Note_on_c, 1, 56, 80
4, 53273, Note_on_c, 1, 63, 0
4, 53273, Note_on_c, 1, 60, 0
4, 53273, Note_on_c, 1, 56, 0
4, 53424, Note_on_c, 1, 71, 76
4, 53434, Note_on_c, 1, 71, 0
4, 53448, Note_on_c, 1, 74, 78
4, 53458, Note_on_c, 1, 74, 0
4, 53472, Note_on_c, 1, 72, 80
4, 53482, Note_on_c, 1, 72, 0
4, 53496, Note_on_c, 1, 75, 80
4, 53506, Note_on_c, 1, 75, 0
4, 53520, Note_on_c, 1, 72, 80
4, 53535, Note_on_c, 1, 72, 0
4, 53536, Note_on_c, 1, 68, 80
4, 53551, Note_on_c, 1, 68, 0
4, 53552, Note_on_c, 1, 65, 80
4, 53567, Note_on_c, 1, 65, 0
4, 53568, Note_on_c, 1, 67, 80
4, 53657, Note_on_c, 1, 67, 0
4, 53664, Note_on_c, 1, 68, 80
4, 53753, Note_on_c, 1, 68, 0
4, 53760, Note_on_c, 1, 67, 80
4, 53760, Note_on_c, 1, 63, 80
4, 53805, Note_on_c, 1, 67, 0
4, 53805, Note_on_c, 1, 63, 0
4, 53856, Note_on_c, 1, 67, 64
4, 53856, Note_on_c, 1, 63, 64
4, 53876, Note_on_c, 1, 67, 0
4, 53876, Note_on_c, 1, 63, 0
4, 53904, Note_on_c, 1, 65, 64
4, 53904, Note_on_c, 1, 58, 64
4, 53924, Note_on_c, 1, 65, 0
4, 53924, Note_on_c, 1, 58, 0
4, 53952, Note_on_c, 1, 63, 64
4, 53952, Note_on_c, 1, 55, 64
4, 53997, Note_on_c, 1, 63, 0
4, 53997, Note_on_c, 1, 55, 0
4, 54048, Note_on_c, 1, 67, 58
4, 54048, Note_on_c, 1, 63, 58
4, 54068, Note_on_c, 1, 67, 0
4, 54068, Note_on_c, 1, 63, 0
4, 54096, Note_on_c, 1, 65, 58
4, 54096, Note_on_c, 1, 58, 58
4, 54116, Note_on_c, 1, 65, 0
4, 54116, Note_on_c, 1, 58, 0
4, 54144, Note_on_c, 1, 63, 58
4, 54144, Note_on_c, 1, 55, 58
4, 54189, Note_on_c, 1, 63, 0
4, 54189, Note_on_c, 1, 55, 0
4, 54240, Note_on_c, 1, 63, 58
4, 54240, Note_on_c, 1, 55, 58
4, 54285, Note_on_c, 1, 63, 0
4, 54285, Note_on_c, 1, 55, 0
4, 54288, Note_on_c, 1, 63, 64
4, 54288, Note_on_c, 1, 55, 64
4, 54333, Note_on_c, 1, 63, 0
4, 54333, Note_on_c, 1, 55, 0
4, 54336, Note_on_c, 1, 63, 64
4, 54381, Note_on_c, 1, 63, 0
4, 54384, Note_on_c, 1, 60, 65
4, 54429, Note_on_c, 1, 60, 0
4, 54432, Note_on_c, 1, 65, 67
4, 54661, Note_on_c, 1, 65, 0
4, 54672, Note_on_c, 1, 70, 77
4, 54717, Note_on_c, 1, 70, 0
4, 54720, Note_on_c, 1, 66, 79
4, 54720, Note_on_c, 1, 63, 79
4, 54743, Note_on_c, 1, 66, 0
4, 54743, Note_on_c, 1, 63, 0
4, 54744, Note_on_c, 1, 70, 80
4, 54767, Note_on_c, 1, 70, 0
4, 54768, Note_on_c, 1, 66, 80
4, 54768, Note_on_c, 1, 63, 80
4, 54791, Note_on_c, 1, 66, 0
4, 54791, Note_on_c, 1, 63, 0
4, 54792, Note_on_c, 1, 70, 80
4, 54815, Note_on_c, 1, 70, 0
4, 54816, Note_on_c, 1, 65, 80
4, 54816, Note_on_c, 1, 62, 80
4, 54839, Note_on_c, 1, 65, 0
4, 54839, Note_on_c, 1, 62, 0
4, 54840, Note_on_c, 1, 70, 76
4, 54863, Note_on_c, 1, 70, 0
4, 54864, Note_on_c, 1, 65, 72
4, 54864, Note_on_c, 1, 62, 72
4, 54887, Note_on_c, 1, 65, 0
4, 54887, Note_on_c, 1, 62, 0
4, 54888, Note_on_c, 1, 70, 68
4, 54911, Note_on_c, 1, 70, 0
4, 54912, Note_on_c, 1, 66, 70
4, 54912, Note_on_c, 1, 63, 70
4, 54935, Note_on_c, 1, 66, 0
4, 54935, Note_on_c, 1, 63, 0
4, 54936, Note_on_c, 1, 70, 70
4, 54959, Note_on_c, 1, 70, 0
4, 54960, Note_on_c, 1, 66, 70
4, 54960, Note_on_c, 1, 63, 70
4, 54983, Note_on_c, 1, 66, 0
4, 54983, Note_on_c, 1, 63, 0
4, 54984, Note_on_c, 1, 70, 70
4, 55007, Note_on_c, 1, 70, 0
4, 55008, Note_on_c, 1, 65, 70
4, 55008, Note_on_c, 1, 62, 70
4, 55031, Note_on_c, 1, 65, 0
4, 55031, Note_on_c, 1, 62, 0
4, 55032, Note_on_c, 1, 70, 72
4, 55055, Note_on_c, 1, 70, 0
4, 55056, Note_on_c, 1, 65, 75
4, 55056, Note_on_c, 1, 62, 75
4, 55079, Note_on_c, 1, 65, 0
4, 55079, Note_on_c, 1, 62, 0
4, 55080, Note_on_c, 1, 70, 77
4, 55103, Note_on_c, 1, 70, 0
4, 55104, Note_on_c, 1, 66, 80
4, 55104, Note_on_c, 1, 54, 80
4, 55149, Note_on_c, 1, 66, 0
4, 55149, Note_on_c, 1, 54, 0
4, 55152, Note_on_c, 1, 63, 80
4, 55152, Note_on_c, 1, 51, 80
4, 55197, Note_on_c, 1, 63, 0
4, 55197, Note_on_c, 1, 51, 0
4, 55200, Note_on_c, 1, 59, 80
4, 55200, Note_on_c, 1, 47, 80
4, 55245, Note_on_c, 1, 59, 0
4, 55245, Note_on_c, 1, 47, 0
4, 55248, Note_on_c, 1, 56, 80
4, 55248, Note_on_c, 1, 44, 80
4, 55293, Note_on_c, 1, 56, 0
4, 55293, Note_on_c, 1, 44, 0
4, 55296, Note_on_c, 1, 53, 80
4, 55296, Note_on_c, 1, 41, 80
4, 55385, Note_on_c, 1, 53, 0
4, 55385, Note_on_c, 1, 41, 0
4, 55392, Note_on_c, 1, 51, 80
4, 55392, Note_on_c, 1, 39, 80
4, 55481, Note_on_c, 1, 51, 0
4, 55481, Note_on_c, 1, 39, 0
4, 55488, Note_on_c, 1, 50, 80
4, 55488, Note_on_c, 1, 38, 80
4, 55577, Note_on_c, 1, 50, 0
4, 55577, Note_on_c, 1, 38, 0
4, 55584, Note_on_c, 1, 47, 80
4, 55584, Note_on_c, 1, 35, 80
4, 55673, Note_on_c, 1, 47, 0
4, 55673, Note_on_c, 1, 35, 0
4, 55680, Note_on_c, 1, 46, 80
4, 55680, Note_on_c, 1, 34, 80
4, 56034, Note_on_c, 1, 46, 0
4, 56034, Note_on_c, 1, 34, 0
4, 56064, Note_on_c, 1, 70, 80
4, 56064, Note_on_c, 1, 67, 80
4, 56064, Note_on_c, 1, 63, 80
4, 56153, Note_on_c, 1, 70, 0
4, 56153, Note_on_c, 1, 67, 0
4, 56153, Note_on_c, 1, 63, 0
4, 56160, Note_on_c, 1, 62, 80
4, 56168, Note_on_c, 1, 65, 80
4, 56176, Note_on_c, 1, 70, 80
4, 56253, Note_on_c, 1, 70, 0
4, 56253, Note_on_c, 1, 65, 0
4, 56253, Note_on_c, 1, 62, 0
4, 56256, Note_on_c, 1, 60, 80
4, 56264, Note_on_c, 1, 63, 80
4, 56272, Note_on_c, 1, 68, 80
4, 56437, Note_on_c, 1, 68, 0
4, 56437, Note_on_c, 1, 63, 0
4, 56437, Note_on_c, 1, 60, 0
4, 56448, Note_on_c, 1, 75, 80
4, 56448, Note_on_c, 1, 72, 80
4, 56468, Note_on_c, 1, 75, 0
4, 56468, Note_on_c, 1, 72, 0
4, 56520, Note_on_c, 1, 75, 80
4, 56520, Note_on_c, 1, 70, 80
4, 56544, Note_on_c, 1, 70, 0
4, 56544, Note_on_c, 1, 68, 80
4, 56564, Note_on_c, 1, 75, 0
4, 56564, Note_on_c, 1, 68, 0
4, 56616, Note_on_c, 1, 70, 80
4, 56616, Note_on_c, 1, 66, 80
4, 56640, Note_on_c, 1, 70, 0
4, 56640, Note_on_c, 1, 66, 0
4, 56640, Note_on_c, 1, 72, 80
4, 56640, Note_on_c, 1, 65, 80
4, 56679, Note_on_c, 1, 72, 0
4, 56679, Note_on_c, 1, 65, 0
4, 56856, Note_on_c, 1, 70, 64
4, 56856, Note_on_c, 1, 67, 64
4, 56879, Note_on_c, 1, 70, 0
4, 56879, Note_on_c, 1, 67, 0
4, 56880, Note_on_c, 1, 68, 64
4, 56880, Note_on_c, 1, 65, 64
4, 56903, Note_on_c, 1, 68, 0
4, 56903, Note_on_c, 1, 65, 0
4, 56904, Note_on_c, 1, 67, 64
4, 56904, Note_on_c, 1, 63, 64
4, 56927, Note_on_c, 1, 67, 0
4, 56927, Note_on_c, 1, 63, 0
4, 56928, Note_on_c, 1, 65, 64
4, 56928, Note_on_c, 1, 62, 64
4, 56967, Note_on_c, 1, 65, 0
4, 56967, Note_on_c, 1, 62, 0
4, 57048, Note_on_c, 1, 70, 64
4, 57048, Note_on_c, 1, 67, 64
4, 57071, Note_on_c, 1, 70, 0
4, 57071, Note_on_c, 1, 67, 0
4, 57072, Note_on_c, 1, 68, 64
4, 57072, Note_on_c, 1, 65, 64
4, 57095, Note_on_c, 1, 68, 0
4, 57095, Note_on_c, 1, 65, 0
4, 57096, Note_on_c, 1, 67, 64
4, 57096, Note_on_c, 1, 63, 64
4, 57119, Note_on_c, 1, 67, 0
4, 57119, Note_on_c, 1, 63, 0
4, 57120, Note_on_c, 1, 65, 64
4, 57120, Note_on_c, 1, 62, 64
4, 57130, Note_on_c, 1, 65, 0
4, 57130, Note_on_c, 1, 62, 0
4, 57144, Note_on_c, 1, 70, 64
4, 57167, Note_on_c, 1, 70, 0
4, 57168, Note_on_c, 1, 72, 69
4, 57191, Note_on_c, 1, 72, 0
4, 57192, Note_on_c, 1, 74, 74
4, 57215, Note_on_c, 1, 74, 0
4, 57216, Note_on_c, 1, 75, 80
4, 57226, Note_on_c, 1, 75, 0
4, 57240, Note_on_c, 1, 79, 80
4, 57263, Note_on_c, 1, 79, 0
4, 57264, Note_on_c, 1, 77, 80
4, 57287, Note_on_c, 1, 77, 0
4, 57288, Note_on_c, 1, 75, 80
4, 57311, Note_on_c, 1, 75, 0
4, 57312, Note_on_c, 1, 74, 80
4, 57335, Note_on_c, 1, 74, 0
4, 57336, Note_on_c, 1, 75, 80
4, 57336, Note_on_c, 1, 72, 80
4, 57359, Note_on_c, 1, 75, 0
4, 57359, Note_on_c, 1, 72, 0
4, 57360, Note_on_c, 1, 74, 80
4, 57360, Note_on_c, 1, 70, 80
4, 57383, Note_on_c, 1, 74, 0
4, 57383, Note_on_c, 1, 70, 0
4, 57384, Note_on_c, 1, 72, 80
4, 57384, Note_on_c, 1, 68, 80
4, 57407, Note_on_c, 1, 72, 0
4, 57407, Note_on_c, 1, 68, 0
4, 57408, Note_on_c, 1, 70, 96
4, 57408, Note_on_c, 1, 67, 96
4, 57504, Note_on_c, 1, 70, 0
4, 57504, Note_on_c, 1, 67, 0
4, 57504, Note_on_c, 1, 72, 70
4, 57504, Note_on_c, 1, 68, 70
4, 57524, Note_on_c, 1, 72, 0
4, 57524, Note_on_c, 1, 68, 0
4, 57600, Note_on_c, 1, 68, 96
4, 57600, Note_on_c, 1, 65, 96
4, 57696, Note_on_c, 1, 68, 0
4, 57696, Note_on_c, 1, 65, 0
4, 57696, Note_on_c, 1, 67, 70
4, 57716, Note_on_c, 1, 67, 0
4, 58176, Note_on_c, 1, 47, 64
4, 58176, Note_on_c, 1, 35, 64
4, 58353, Note_on_c, 1, 47, 0
4, 58353, Note_on_c, 1, 35, 0
4, 58368, Note_on_c, 1, 45, 69
4, 58368, Note_on_c, 1, 33, 69
4, 58545, Note_on_c, 1, 45, 0
4, 58545, Note_on_c, 1, 33, 0
4, 58560, Note_on_c, 1, 44, 74
4, 58560, Note_on_c, 1, 32, 74
4, 58649, Note_on_c, 1, 44, 0
4, 58649, Note_on_c, 1, 32, 0
4, 58656, Note_on_c, 1, 45, 77
4, 58656, Note_on_c, 1, 33, 77
4, 58745, Note_on_c, 1, 45, 0
4, 58745, Note_on_c, 1, 33, 0
4, 58752, Control_c, 1, 64, 127
4, 58752, Note_on_c, 1, 34, 80
4, 58764, Note_on_c, 1, 34, 0
4, 58764, Note_on_c, 1, 46, 80
4, 58776, Note_on_c, 1, 46, 0
4, 58776, Note_on_c, 1, 34, 80
4, 58788, Note_on_c, 1, 34, 0
4, 58788, Note_on_c, 1, 46, 80
4, 58800, Note_on_c, 1, 46, 0
4, 58800, Note_on_c, 1, 34, 80
4, 58812, Note_on_c, 1, 34, 0
4, 58812, Note_on_c, 1, 46, 80
4, 58824, Note_on_c, 1, 46, 0
4, 58824, Note_on_c, 1, 34, 80
4, 58836, Note_on_c, 1, 34, 0
4, 58836, Note_on_c, 1, 46, 80
4, 58848, Note_on_c, 1, 46, 0
4, 58848, Note_on_c, 1, 34, 80
4, 58860, Note_on_c, 1, 34, 0
4, 58860, Note_on_c, 1, 46, 80
4, 58872, Note_on_c, 1, 46, 0
4, 58872, Note_on_c, 1, 34, 80
4, 58884, Note_on_c, 1, 34, 0
4, 58884, Note_on_c, 1, 46, 80
4, 58896, Note_on_c, 1, 46, 0
4, 58896, Note_on_c, 1, 34, 80
4, 58908, Note_on_c, 1, 34, 0
4, 58908, Note_on_c, 1, 46, 80
4, 58920, Note_on_c, 1, 46, 0
4, 58920, Note_on_c, 1, 34, 80
4, 58932, Note_on_c, 1, 34, 0
4, 58932, Note_on_c, 1, 46, 80
4, 58944, Note_on_c, 1, 46, 0
4, 58944, Control_c, 1, 64, 0
4, 58944, Note_on_c, 1, 34, 80
4, 58989, Note_on_c, 1, 34, 0
4, 59016, Note_on_c, 1, 67, 80
4, 59016, Note_on_c, 1, 63, 80
4, 59039, Note_on_c, 1, 67, 0
4, 59039, Note_on_c, 1, 63, 0
4, 59040, Note_on_c, 1, 70, 80
4, 59040, Note_on_c, 1, 67, 80
4, 59063, Note_on_c, 1, 70, 0
4, 59063, Note_on_c, 1, 67, 0
4, 59064, Note_on_c, 1, 67, 80
4, 59064, Note_on_c, 1, 63, 80
4, 59087, Note_on_c, 1, 67, 0
4, 59087, Note_on_c, 1, 63, 0
4, 59088, Note_on_c, 1, 70, 80
4, 59088, Note_on_c, 1, 67, 80
4, 59111, Note_on_c, 1, 70, 0
4, 59111, Note_on_c, 1, 67, 0
4, 59112, Note_on_c, 1, 67, 80
4, 59112, Note_on_c, 1, 63, 80
4, 59135, Note_on_c, 1, 67, 0
4, 59135, Note_on_c, 1, 63, 0
4, 59136, Note_on_c, 1, 70, 80
4, 59136, Note_on_c, 1, 67, 80
4, 59181, Note_on_c, 1, 70, 0
4, 59181, Note_on_c, 1, 67, 0
4, 59232, Note_on_c, 1, 58, 80
4, 59232, Note_on_c, 1, 53, 80
4, 59232, Note_on_c, 1, 50, 80
4, 59232, Note_on_c, 1, 46, 80
4, 59277, Note_on_c, 1, 58, 0
4, 59277, Note_on_c, 1, 53, 0
4, 59277, Note_on_c, 1, 50, 0
4, 59277, Note_on_c, 1, 46, 0
4, 59328, Note_on_c, 1, 55, 80
4, 59328, Note_on_c, 1, 51, 80
4, 59373, Note_on_c, 1, 55, 0
4, 59373, Note_on_c, 1, 51, 0
4, 59424, Note_on_c, 1, 53, 80
4, 59424, Note_on_c, 1, 46, 80
4, 59469, Note_on_c, 1, 53, 0
4, 59469, Note_on_c, 1, 46, 0
4, 59520, Note_on_c, 1, 55, 80
4, 59520, Note_on_c, 1, 51, 80
4, 59565, Note_on_c, 1, 55, 0
4, 59565, Note_on_c, 1, 51, 0
4, 59616, Note_on_c, 1, 53, 80
4, 59616, Note_on_c, 1, 46, 80
4, 59661, Note_on_c, 1, 53, 0
4, 59661, Note_on_c, 1, 46, 0
4, 59712, Note_on_c, 1, 51, 64
4, 59712, Note_on_c, 1, 39, 64
4, 59757, Note_on_c, 1, 51, 0
4, 59757, Note_on_c, 1, 39, 0
4, 59760, Note_on_c, 1, 55, 65
4, 59760, Note_on_c, 1, 43, 65
4, 59805, Note_on_c, 1, 55, 0
4, 59805, Note_on_c, 1, 43, 0
4, 59808, Note_on_c, 1, 58, 67
4, 59808, Note_on_c, 1, 46, 67
4, 59853, Note_on_c, 1, 58, 0
4, 59853, Note_on_c, 1, 46, 0
4, 59856, Note_on_c, 1, 63, 69
4, 59856, Note_on_c, 1, 51, 69
4, 59901, Note_on_c, 1, 63, 0
4, 59901, Note_on_c, 1, 51, 0
4, 59904, Note_on_c, 1, 67, 71
4, 59904, Note_on_c, 1, 55, 71
4, 59949, Note_on_c, 1, 67, 0
4, 59949, Note_on_c, 1, 55, 0
4, 59952, Note_on_c, 1, 70, 72
4, 59952, Note_on_c, 1, 58, 72
4, 59997, Note_on_c, 1, 70, 0
4, 59997, Note_on_c, 1, 58, 0
4, 60000, Note_on_c, 1, 75, 74
4, 60000, Note_on_c, 1, 63, 74
4, 60045, Note_on_c, 1, 75, 0
4, 60045, Note_on_c, 1, 63, 0
4, 60048, Note_on_c, 1, 68, 76
4, 60048, Note_on_c, 1, 58, 76
4, 60093, Note_on_c, 1, 68, 0
4, 60093, Note_on_c, 1, 58, 0
4, 60096, Note_on_c, 1, 67, 78
4, 60096, Note_on_c, 1, 63, 78
4, 60141, Note_on_c, 1, 67, 0
4, 60141, Note_on_c, 1, 63, 0
4, 60144, Note_on_c, 1, 68, 80
4, 60144, Note_on_c, 1, 58, 80
4, 60189, Note_on_c, 1, 68, 0
4, 60189, Note_on_c, 1, 58, 0
4, 60192, Note_on_c, 1, 67, 81
4, 60192, Note_on_c, 1, 63, 81
4, 60237, Note_on_c, 1, 67, 0
4, 60237, Note_on_c, 1, 63, 0
4, 60240, Note_on_c, 1, 68, 83
4, 60240, Note_on_c, 1, 58, 83
4, 60285, Note_on_c, 1, 68, 0
4, 60285, Note_on_c, 1, 58, 0
4, 60288, Note_on_c, 1, 63, 85
4, 60300, Note_on_c, 1, 63, 0
4, 60300, Control_c, 1, 64, 127
4, 60300, Note_on_c, 1, 67, 86
4, 60312, Note_on_c, 1, 67, 0
4, 60312, Note_on_c, 1, 63, 86
4, 60324, Note_on_c, 1, 63, 0
4, 60324, Note_on_c, 1, 67, 86
4, 60336, Note_on_c, 1, 67, 0
4, 60336, Note_on_c, 1, 63, 86
4, 60348, Note_on_c, 1, 63, 0
4, 60348, Note_on_c, 1, 67, 86
4, 60360, Note_on_c, 1, 67, 0
4, 60360, Note_on_c, 1, 63, 86
4, 60372, Note_on_c, 1, 63, 0
4, 60372, Note_on_c, 1, 67, 86
4, 60384, Note_on_c, 1, 67, 0
4, 60384, Note_on_c, 1, 63, 86
4, 60396, Note_on_c, 1, 63, 0
4, 60396, Note_on_c, 1, 67, 86
4, 60408, Note_on_c, 1, 67, 0
4, 60408, Note_on_c, 1, 63, 86
4, 60420, Note_on_c, 1, 63, 0
4, 60420, Note_on_c, 1, 67, 86
4, 60432, Note_on_c, 1, 67, 0
4, 60432, Note_on_c, 1, 63, 86
4, 60444, Note_on_c, 1, 63, 0
4, 60444, Note_on_c, 1, 67, 86
4, 60456, Note_on_c, 1, 67, 0
4, 60456, Note_on_c, 1, 63, 86
4, 60468, Note_on_c, 1, 63, 0
4, 60468, Note_on_c, 1, 67, 86
4, 60480, Note_on_c, 1, 67, 0
4, 60480, Note_on_c, 1, 63, 86
4, 60492, Note_on_c, 1, 63, 0
4, 60492, Note_on_c, 1, 67, 86
4, 60504, Note_on_c, 1, 67, 0
4, 60504, Note_on_c, 1, 63, 86
4, 60516, Note_on_c, 1, 63, 0
4, 60516, Note_on_c, 1, 67, 86
4, 60528, Note_on_c, 1, 67, 0
4, 60528, Note_on_c, 1, 63, 86
4, 60540, Note_on_c, 1, 63, 0
4, 60540, Note_on_c, 1, 67, 86
4, 60552, Note_on_c, 1, 67, 0
4, 60552, Note_on_c, 1, 63, 86
4, 60564, Note_on_c, 1, 63, 0
4, 60564, Note_on_c, 1, 67, 86
4, 60576, Note_on_c, 1, 67, 0
4, 60576, Note_on_c, 1, 63, 86
4, 60588, Note_on_c, 1, 63, 0
4, 60588, Note_on_c, 1, 67, 86
4, 60600, Note_on_c, 1, 67, 0
4, 60600, Note_on_c, 1, 63, 86
4, 60612, Note_on_c, 1, 63, 0
4, 60612, Note_on_c, 1, 67, 86
4, 60624, Note_on_c, 1, 67, 0
4, 60624, Note_on_c, 1, 63, 86
4, 60636, Note_on_c, 1, 63, 0
4, 60636, Note_on_c, 1, 67, 86
4, 60648, Note_on_c, 1, 67, 0
4, 60648, Note_on_c, 1, 63, 86
4, 60660, Note_on_c, 1, 63, 0
4, 60660, Note_on_c, 1, 67, 86
4, 60672, Note_on_c, 1, 67, 0
4, 60672, Control_c, 1, 64, 0
4, 60672, Note_on_c, 1, 63, 86
4, 60761, Note_on_c, 1, 63, 0
4, 60768, Note_on_c, 1, 63, 86
4, 60768, Note_on_c, 1, 58, 86
4, 60768, Note_on_c, 1, 55, 86
4, 60768, Note_on_c, 1, 51, 86
4, 60857, Note_on_c, 1, 63, 0
4, 60857, Note_on_c, 1, 58, 0
4, 60857, Note_on_c, 1, 55, 0
4, 60857, Note_on_c, 1, 51, 0
4, 60864, Control_c, 1, 64, 0
4, 60864, Note_on_c, 1, 51, 86
4, 60864, Note_on_c, 1, 46, 86
4, 60864, Note_on_c, 1, 43, 86
4, 60864, Note_on_c, 1, 39, 86
4, 60997, Note_on_c, 1, 51, 0
4, 60997, Note_on_c, 1, 46, 0
4, 60997, Note_on_c, 1, 43, 0
4, 60997, Note_on_c, 1, 39, 0
4, 61056, Note_on_c, 1, 39, 4
4, 61145, Note_on_c, 1, 39, 0
4, 61152, End_track
5, 0, Start_track
5, 0, Program_c, 1, 0
5, 0, Control_c, 1, 7, 127
5, 0, Control_c, 1, 10, 64
5, 4992, Note_on_c, 1, 53, 64
5, 5346, Note_on_c, 1, 53, 0
5, 5376, Note_on_c, 1, 53, 64
5, 5730, Note_on_c, 1, 53, 0
5, 5760, Note_on_c, 1, 53, 64
5, 6114, Note_on_c, 1, 53, 0
5, 8064, Note_on_c, 1, 72, 86
5, 8160, Note_on_c, 1, 72, 0
5, 8160, Note_on_c, 1, 70, 70
5, 8249, Note_on_c, 1, 70, 0
5, 9792, Note_on_c, 1, 53, 80
5, 9969, Note_on_c, 1, 53, 0
5, 10560, Note_on_c, 1, 63, 80
5, 10693, Note_on_c, 1, 63, 0
5, 10704, Note_on_c, 1, 64, 80
5, 10749, Note_on_c, 1, 64, 0
5, 10752, Note_on_c, 1, 65, 80
5, 10797, Note_on_c, 1, 65, 0
5, 10800, Note_on_c, 1, 67, 80
5, 10845, Note_on_c, 1, 67, 0
5, 10848, Note_on_c, 1, 69, 80
5, 10893, Note_on_c, 1, 69, 0
5, 10896, Note_on_c, 1, 57, 80
5, 10941, Note_on_c, 1, 57, 0
5, 21504, Note_on_c, 1, 53, 64
5, 21858, Note_on_c, 1, 53, 0
5, 21888, Note_on_c, 1, 53, 64
5, 22242, Note_on_c, 1, 53, 0
5, 22272, Note_on_c, 1, 53, 64
5, 22626, Note_on_c, 1, 53, 0
5, 24576, Note_on_c, 1, 72, 86
5, 24672, Note_on_c, 1, 72, 0
5, 24672, Note_on_c, 1, 70, 70
5, 24761, Note_on_c, 1, 70, 0
5, 26304, Note_on_c, 1, 53, 80
5, 26481, Note_on_c, 1, 53, 0
5, 27072, Note_on_c, 1, 63, 80
5, 27205, Note_on_c, 1, 63, 0
5, 27216, Note_on_c, 1, 64, 80
5, 27261, Note_on_c, 1, 64, 0
5, 27264, Note_on_c, 1, 65, 80
5, 27309, Note_on_c, 1, 65, 0
5, 27312, Note_on_c, 1, 67, 80
5, 27357, Note_on_c, 1, 67, 0
5, 27360, Note_on_c, 1, 69, 80
5, 27405, Note_on_c, 1, 69, 0
5, 27408, Note_on_c, 1, 57, 80
5, 27453, Note_on_c, 1, 57, 0
5, 35712, Note_on_c, 1, 50, 75
5, 36066, Note_on_c, 1, 50, 0
5, 38016, Note_on_c, 1, 63, 64
5, 38039, Note_on_c, 1, 63, 0
5, 38040, Note_on_c, 1, 60, 65
5, 38063, Note_on_c, 1, 60, 0
5, 38064, Note_on_c, 1, 63, 66
5, 38087, Note_on_c, 1, 63, 0
5, 38088, Note_on_c, 1, 60, 67
5, 38111, Note_on_c, 1, 60, 0
5, 38112, Note_on_c, 1, 63, 68
5, 38135, Note_on_c, 1, 63, 0
5, 38136, Note_on_c, 1, 60, 69
5, 38159, Note_on_c, 1, 60, 0
5, 38160, Note_on_c, 1, 63, 70
5, 38183, Note_on_c, 1, 63, 0
5, 38184, Note_on_c, 1, 60, 71
5, 38207, Note_on_c, 1, 60, 0
5, 45696, Note_on_c, 1, 58, 70
5, 45840, Note_on_c, 1, 58, 0
5, 45840, Note_on_c, 1, 59, 86
5, 45888, Note_on_c, 1, 59, 0
5, 45888, Note_on_c, 1, 58, 70
5, 46032, Note_on_c, 1, 58, 0
5, 46032, Note_on_c, 1, 59, 86
5, 46080, Note_on_c, 1, 59, 0
5, 53568, Note_on_c, 1, 58, 80
5, 53745, Note_on_c, 1, 58, 0
5, 54336, Note_on_c, 1, 56, 80
5, 54469, Note_on_c, 1, 56, 0
5, 54480, Note_on_c, 1, 57, 80
5, 54525, Note_on_c, 1, 57, 0
5, 54528, Note_on_c, 1, 58, 80
5, 54573, Note_on_c, 1, 58, 0
5, 54576, Note_on_c, 1, 60, 80
5, 54621, Note_on_c, 1, 60, 0
5, 54624, Note_on_c, 1, 62, 80
5, 54713, Note_on_c, 1, 62, 0
5, 61056, End_track
6, 0, Start_track
6, 0, Title_t, "Sonata I   Haydn  "
6, 0, End_track
0, 0, End_of_file
