0, 0, Header, 1, 6, 96
1, 0, Start_track
1, 0, Copyright_t, "Copyright  2000 <copyright holder>"
1, 0, Text_t, "Sonata I\015\012"
1, 0, Text_t, "Haydn\015\012"
1, 0, Sequencer_specific, 16, 68, 87, 77, 90, 86, 82, 83, 78, 32, 55, 46, 49, 46, 53, 46, 48
1, 0, Time_signature, 3, 2, 24, 8
1, 0, Tempo, 521739
1, 0, Key_signature, 1, "major"
1, 4608, Tempo, 545454
1, 4704, Tempo, 571428
1, 4800, Tempo, 600000
1, 4896, Tempo, 631578
1, 4992, Tempo, 666666
1, 5184, Tempo, 521739
1, 10368, Tempo, 545454
1, 10464, Tempo, 571428
1, 10560, Tempo, 600000
1, 10656, Tempo, 631578
1, 10752, Tempo, 666666
1, 10944, Tempo, 521739
1, 12096, Tempo, 705882
1, 12384, Tempo, 521739
1, 17856, Tempo, 545454
1, 18048, Tempo, 600000
1, 18144, Tempo, 631578
1, 18336, Tempo, 666666
1, 18432, Tempo, 521739
1, 19584, Tempo, 705882
1, 19872, Tempo, 521739
1, 25344, Tempo, 545454
1, 25536, Tempo, 600000
1, 25632, Tempo, 631578
1, 25824, Tempo, 666666
1, 25920, Tempo, 521739
1, 27936, End_track
2, 0, Start_track
2, 0, Program_c, 0, 0
2, 0, Control_c, 0, 7, 127
2, 0, Control_c, 0, 10, 64
2, 0, Note_on_c, 0, 79, 64
2, 0, Note_on_c, 0, 71, 64
2, 89, Note_on_c, 0, 79, 0
2, 89, Note_on_c, 0, 71, 0
2, 96, Note_on_c, 0, 83, 64
2, 96, Note_on_c, 0, 74, 64
2, 185, Note_on_c, 0, 83, 0
2, 185, Note_on_c, 0, 74, 0
2, 192, Note_on_c, 0, 81, 64
2, 192, Note_on_c, 0, 72, 64
2, 281, Note_on_c, 0, 81, 0
2, 281, Note_on_c, 0, 72, 0
2, 288, Note_on_c, 0, 79, 64
2, 301, Note_on_c, 0, 79, 0
2, 302, Note_on_c, 0, 81, 64
2, 315, Note_on_c, 0, 81, 0
2, 316, Note_on_c, 0, 79, 64
2, 329, Note_on_c, 0, 79, 0
2, 330, Note_on_c, 0, 81, 64
2, 343, Note_on_c, 0, 81, 0
2, 344, Note_on_c, 0, 79, 64
2, 357, Note_on_c, 0, 79, 0
2, 358, Note_on_c, 0, 81, 64
2, 370, Note_on_c, 0, 81, 0
2, 371, Note_on_c, 0, 79, 64
2, 429, Note_on_c, 0, 79, 0
2, 432, Note_on_c, 0, 78, 64
2, 477, Note_on_c, 0, 78, 0
2, 480, Note_on_c, 0, 79, 64
2, 569, Note_on_c, 0, 79, 0
2, 624, Note_on_c, 0, 81, 64
2, 624, Note_on_c, 0, 72, 64
2, 647, Note_on_c, 0, 81, 0
2, 647, Note_on_c, 0, 72, 0
2, 648, Note_on_c, 0, 83, 64
2, 648, Note_on_c, 0, 74, 64
2, 671, Note_on_c, 0, 83, 0
2, 671, Note_on_c, 0, 74, 0
2, 672, Note_on_c, 0, 84, 64
2, 672, Note_on_c, 0, 76, 64
2, 717, Note_on_c, 0, 84, 0
2, 717, Note_on_c, 0, 76, 0
2, 720, Note_on_c, 0, 83, 64
2, 720, Note_on_c, 0, 74, 64
2, 743, Note_on_c, 0, 83, 0
2, 743, Note_on_c, 0, 74, 0
2, 744, Note_on_c, 0, 81, 64
2, 744, Note_on_c, 0, 72, 64
2, 767, Note_on_c, 0, 81, 0
2, 767, Note_on_c, 0, 72, 0
2, 768, Note_on_c, 0, 83, 64
2, 768, Note_on_c, 0, 74, 64
2, 813, Note_on_c, 0, 83, 0
2, 813, Note_on_c, 0, 74, 0
2, 816, Note_on_c, 0, 86, 80
2, 864, Note_on_c, 0, 86, 0
2, 864, Note_on_c, 0, 84, 64
2, 864, Note_on_c, 0, 76, 64
2, 909, Note_on_c, 0, 84, 0
2, 909, Note_on_c, 0, 76, 0
2, 912, Note_on_c, 0, 83, 64
2, 912, Note_on_c, 0, 74, 64
2, 957, Note_on_c, 0, 83, 0
2, 957, Note_on_c, 0, 74, 0
2, 960, Note_on_c, 0, 81, 64
2, 960, Note_on_c, 0, 72, 64
2, 1005, Note_on_c, 0, 81, 0
2, 1005, Note_on_c, 0, 72, 0
2, 1008, Note_on_c, 0, 79, 64
2, 1008, Note_on_c, 0, 71, 64
2, 1053, Note_on_c, 0, 79, 0
2, 1053, Note_on_c, 0, 71, 0
2, 1056, Note_on_c, 0, 79, 80
2, 1056, Note_on_c, 0, 71, 80
2, 1104, Note_on_c, 0, 79, 0
2, 1104, Note_on_c, 0, 71, 0
2, 1104, Note_on_c, 0, 81, 64
2, 1104, Note_on_c, 0, 72, 64
2, 1127, Note_on_c, 0, 81, 0
2, 1127, Note_on_c, 0, 72, 0
2, 1128, Note_on_c, 0, 79, 64
2, 1128, Note_on_c, 0, 71, 64
2, 1151, Note_on_c, 0, 79, 0
2, 1151, Note_on_c, 0, 71, 0
2, 1152, Note_on_c, 0, 81, 64
2, 1152, Note_on_c, 0, 72, 64
2, 1241, Note_on_c, 0, 81, 0
2, 1241, Note_on_c, 0, 72, 0
2, 1248, Note_on_c, 0, 78, 64
2, 1260, Note_on_c, 0, 78, 0
2, 1260, Note_on_c, 0, 79, 64
2, 1272, Note_on_c, 0, 79, 0
2, 1272, Note_on_c, 0, 78, 64
2, 1337, Note_on_c, 0, 78, 0
2, 1440, Note_on_c, 0, 79, 64
2, 1440, Note_on_c, 0, 71, 64
2, 1485, Note_on_c, 0, 79, 0
2, 1485, Note_on_c, 0, 71, 0
2, 1488, Note_on_c, 0, 74, 64
2, 1488, Note_on_c, 0, 71, 64
2, 1533, Note_on_c, 0, 74, 0
2, 1533, Note_on_c, 0, 71, 0
2, 1536, Note_on_c, 0, 74, 64
2, 1536, Note_on_c, 0, 71, 64
2, 1584, Note_on_c, 0, 74, 0
2, 1584, Note_on_c, 0, 71, 0
2, 1584, Note_on_c, 0, 76, 64
2, 1584, Note_on_c, 0, 72, 64
2, 1629, Note_on_c, 0, 76, 0
2, 1629, Note_on_c, 0, 72, 0
2, 1728, Note_on_c, 0, 81, 64
2, 1728, Note_on_c, 0, 72, 64
2, 1776, Note_on_c, 0, 81, 0
2, 1776, Note_on_c, 0, 72, 0
2, 1776, Note_on_c, 0, 78, 64
2, 1776, Note_on_c, 0, 69, 64
2, 1821, Note_on_c, 0, 78, 0
2, 1821, Note_on_c, 0, 69, 0
2, 1824, Note_on_c, 0, 78, 64
2, 1824, Note_on_c, 0, 69, 64
2, 1872, Note_on_c, 0, 78, 0
2, 1872, Note_on_c, 0, 69, 0
2, 1872, Note_on_c, 0, 79, 64
2, 1872, Note_on_c, 0, 71, 64
2, 1917, Note_on_c, 0, 79, 0
2, 1917, Note_on_c, 0, 71, 0
2, 1920, Note_on_c, 0, 78, 64
2, 1932, Note_on_c, 0, 78, 0
2, 1932, Note_on_c, 0, 79, 64
2, 1944, Note_on_c, 0, 79, 0
2, 1944, Note_on_c, 0, 78, 64
2, 2061, Note_on_c, 0, 78, 0
2, 2064, Note_on_c, 0, 76, 64
2, 2109, Note_on_c, 0, 76, 0
2, 2112, Note_on_c, 0, 74, 64
2, 2201, Note_on_c, 0, 74, 0
2, 2208, Note_on_c, 0, 83, 64
2, 2208, Note_on_c, 0, 79, 64
2, 2238, Note_on_c, 0, 83, 0
2, 2238, Note_on_c, 0, 79, 0
2, 2240, Note_on_c, 0, 84, 64
2, 2240, Note_on_c, 0, 81, 64
2, 2270, Note_on_c, 0, 84, 0
2, 2270, Note_on_c, 0, 81, 0
2, 2272, Note_on_c, 0, 86, 64
2, 2272, Note_on_c, 0, 83, 64
2, 2302, Note_on_c, 0, 86, 0
2, 2302, Note_on_c, 0, 83, 0
2, 2304, Note_on_c, 0, 86, 80
2, 2304, Note_on_c, 0, 83, 80
2, 2448, Note_on_c, 0, 86, 0
2, 2448, Note_on_c, 0, 83, 0
2, 2448, Note_on_c, 0, 59, 64
2, 2448, Note_on_c, 0, 55, 64
2, 2468, Note_on_c, 0, 59, 0
2, 2468, Note_on_c, 0, 55, 0
2, 2496, Note_on_c, 0, 62, 64
2, 2496, Note_on_c, 0, 59, 64
2, 2541, Note_on_c, 0, 62, 0
2, 2541, Note_on_c, 0, 59, 0
2, 2544, Note_on_c, 0, 60, 64
2, 2544, Note_on_c, 0, 57, 64
2, 2589, Note_on_c, 0, 60, 0
2, 2589, Note_on_c, 0, 57, 0
2, 2592, Note_on_c, 0, 59, 64
2, 2592, Note_on_c, 0, 55, 64
2, 2640, Note_on_c, 0, 59, 0
2, 2640, Note_on_c, 0, 55, 0
2, 2640, Note_on_c, 0, 57, 64
2, 2640, Note_on_c, 0, 54, 64
2, 2685, Note_on_c, 0, 57, 0
2, 2685, Note_on_c, 0, 54, 0
2, 2688, Note_on_c, 0, 57, 64
2, 2688, Note_on_c, 0, 54, 64
2, 2784, Note_on_c, 0, 57, 0
2, 2784, Note_on_c, 0, 54, 0
2, 2784, Note_on_c, 0, 59, 64
2, 2784, Note_on_c, 0, 55, 64
2, 2829, Note_on_c, 0, 59, 0
2, 2829, Note_on_c, 0, 55, 0
2, 2832, Note_on_c, 0, 54, 80
2, 2879, Note_on_c, 0, 54, 0
2, 2880, Note_on_c, 0, 55, 64
2, 2928, Note_on_c, 0, 55, 0
2, 2928, Note_on_c, 0, 50, 64
2, 2973, Note_on_c, 0, 50, 0
2, 2976, Note_on_c, 0, 50, 80
2, 2988, Note_on_c, 0, 50, 0
2, 2988, Note_on_c, 0, 52, 80
2, 3000, Note_on_c, 0, 52, 0
2, 3000, Note_on_c, 0, 50, 80
2, 3120, Note_on_c, 0, 50, 0
2, 3120, Note_on_c, 0, 48, 80
2, 3167, Note_on_c, 0, 48, 0
2, 3168, Note_on_c, 0, 47, 64
2, 3216, Note_on_c, 0, 47, 0
2, 3216, Note_on_c, 0, 50, 64
2, 3261, Note_on_c, 0, 50, 0
2, 3264, Note_on_c, 0, 48, 64
2, 3312, Note_on_c, 0, 48, 0
2, 3312, Note_on_c, 0, 45, 64
2, 3357, Note_on_c, 0, 45, 0
2, 3360, Note_on_c, 0, 47, 64
2, 3408, Note_on_c, 0, 47, 0
2, 3408, Note_on_c, 0, 43, 64
2, 3453, Note_on_c, 0, 43, 0
2, 3456, Note_on_c, 0, 45, 64
2, 3456, Note_on_c, 0, 42, 64
2, 3643, Note_on_c, 0, 45, 0
2, 3643, Note_on_c, 0, 42, 0
2, 3744, Note_on_c, 0, 49, 80
2, 3744, Note_on_c, 0, 45, 80
2, 3792, Note_on_c, 0, 49, 0
2, 3792, Note_on_c, 0, 45, 0
2, 3792, Note_on_c, 0, 52, 64
2, 3792, Note_on_c, 0, 49, 64
2, 3837, Note_on_c, 0, 52, 0
2, 3837, Note_on_c, 0, 49, 0
2, 3840, Note_on_c, 0, 52, 64
2, 3840, Note_on_c, 0, 49, 64
2, 3885, Note_on_c, 0, 52, 0
2, 3885, Note_on_c, 0, 49, 0
2, 3888, Note_on_c, 0, 55, 64
2, 3888, Note_on_c, 0, 52, 64
2, 3933, Note_on_c, 0, 55, 0
2, 3933, Note_on_c, 0, 52, 0
2, 3984, Note_on_c, 0, 52, 64
2, 3984, Note_on_c, 0, 49, 64
2, 4004, Note_on_c, 0, 52, 0
2, 4004, Note_on_c, 0, 49, 0
2, 4032, Note_on_c, 0, 54, 80
2, 4032, Note_on_c, 0, 50, 80
2, 4080, Note_on_c, 0, 54, 0
2, 4080, Note_on_c, 0, 50, 0
2, 4080, Note_on_c, 0, 57, 64
2, 4080, Note_on_c, 0, 54, 64
2, 4125, Note_on_c, 0, 57, 0
2, 4125, Note_on_c, 0, 54, 0
2, 4128, Note_on_c, 0, 57, 64
2, 4128, Note_on_c, 0, 54, 64
2, 4173, Note_on_c, 0, 57, 0
2, 4173, Note_on_c, 0, 54, 0
2, 4176, Note_on_c, 0, 62, 64
2, 4176, Note_on_c, 0, 57, 64
2, 4221, Note_on_c, 0, 62, 0
2, 4221, Note_on_c, 0, 57, 0
2, 4272, Note_on_c, 0, 62, 64
2, 4272, Note_on_c, 0, 57, 64
2, 4292, Note_on_c, 0, 62, 0
2, 4292, Note_on_c, 0, 57, 0
2, 4320, Note_on_c, 0, 61, 80
2, 4320, Note_on_c, 0, 57, 80
2, 4368, Note_on_c, 0, 61, 0
2, 4368, Note_on_c, 0, 57, 0
2, 4368, Note_on_c, 0, 71, 75
2, 4368, Note_on_c, 0, 67, 75
2, 4413, Note_on_c, 0, 71, 0
2, 4413, Note_on_c, 0, 67, 0
2, 4416, Note_on_c, 0, 69, 75
2, 4416, Note_on_c, 0, 66, 75
2, 4461, Note_on_c, 0, 69, 0
2, 4461, Note_on_c, 0, 66, 0
2, 4464, Note_on_c, 0, 67, 75
2, 4464, Note_on_c, 0, 64, 75
2, 4509, Note_on_c, 0, 67, 0
2, 4509, Note_on_c, 0, 64, 0
2, 4512, Note_on_c, 0, 66, 76
2, 4512, Note_on_c, 0, 62, 76
2, 4557, Note_on_c, 0, 66, 0
2, 4557, Note_on_c, 0, 62, 0
2, 4560, Note_on_c, 0, 64, 76
2, 4560, Note_on_c, 0, 61, 76
2, 4605, Note_on_c, 0, 64, 0
2, 4605, Note_on_c, 0, 61, 0
2, 4608, Note_on_c, 0, 66, 93
2, 4608, Note_on_c, 0, 62, 93
2, 4656, Note_on_c, 0, 66, 0
2, 4656, Note_on_c, 0, 62, 0
2, 4656, Note_on_c, 0, 76, 77
2, 4656, Note_on_c, 0, 72, 77
2, 4701, Note_on_c, 0, 76, 0
2, 4701, Note_on_c, 0, 72, 0
2, 4704, Note_on_c, 0, 76, 78
2, 4704, Note_on_c, 0, 72, 78
2, 4752, Note_on_c, 0, 76, 0
2, 4752, Note_on_c, 0, 72, 0
2, 4752, Note_on_c, 0, 74, 78
2, 4752, Note_on_c, 0, 71, 78
2, 4797, Note_on_c, 0, 74, 0
2, 4797, Note_on_c, 0, 71, 0
2, 4800, Note_on_c, 0, 74, 79
2, 4800, Note_on_c, 0, 71, 79
2, 4848, Note_on_c, 0, 74, 0
2, 4848, Note_on_c, 0, 71, 0
2, 4848, Note_on_c, 0, 73, 79
2, 4848, Note_on_c, 0, 70, 79
2, 4893, Note_on_c, 0, 73, 0
2, 4893, Note_on_c, 0, 70, 0
2, 4896, Note_on_c, 0, 74, 80
2, 4896, Note_on_c, 0, 71, 80
2, 4926, Note_on_c, 0, 74, 0
2, 4926, Note_on_c, 0, 71, 0
2, 4928, Note_on_c, 0, 76, 80
2, 4928, Note_on_c, 0, 72, 80
2, 4958, Note_on_c, 0, 76, 0
2, 4958, Note_on_c, 0, 72, 0
2, 4960, Note_on_c, 0, 77, 80
2, 4960, Note_on_c, 0, 74, 80
2, 4990, Note_on_c, 0, 77, 0
2, 4990, Note_on_c, 0, 74, 0
2, 4992, Note_on_c, 0, 77, 96
2, 4992, Note_on_c, 0, 74, 96
2, 5088, Note_on_c, 0, 77, 0
2, 5088, Note_on_c, 0, 74, 0
2, 5184, Note_on_c, 0, 78, 70
2, 5196, Note_on_c, 0, 78, 0
2, 5196, Note_on_c, 0, 81, 70
2, 5273, Note_on_c, 0, 81, 0
2, 5280, Note_on_c, 0, 78, 70
2, 5292, Note_on_c, 0, 78, 0
2, 5292, Note_on_c, 0, 74, 70
2, 5369, Note_on_c, 0, 74, 0
2, 5376, Note_on_c, 0, 76, 70
2, 5388, Note_on_c, 0, 76, 0
2, 5388, Note_on_c, 0, 73, 70
2, 5465, Note_on_c, 0, 73, 0
2, 5472, Note_on_c, 0, 73, 86
2, 5568, Note_on_c, 0, 73, 0
2, 5568, Note_on_c, 0, 74, 70
2, 5657, Note_on_c, 0, 74, 0
2, 5760, Note_on_c, 0, 79, 64
2, 5760, Note_on_c, 0, 71, 64
2, 5849, Note_on_c, 0, 79, 0
2, 5849, Note_on_c, 0, 71, 0
2, 5856, Note_on_c, 0, 83, 64
2, 5856, Note_on_c, 0, 74, 64
2, 5945, Note_on_c, 0, 83, 0
2, 5945, Note_on_c, 0, 74, 0
2, 5952, Note_on_c, 0, 81, 64
2, 5952, Note_on_c, 0, 72, 64
2, 6041, Note_on_c, 0, 81, 0
2, 6041, Note_on_c, 0, 72, 0
2, 6048, Note_on_c, 0, 79, 64
2, 6061, Note_on_c, 0, 79, 0
2, 6062, Note_on_c, 0, 81, 64
2, 6075, Note_on_c, 0, 81, 0
2, 6076, Note_on_c, 0, 79, 64
2, 6089, Note_on_c, 0, 79, 0
2, 6090, Note_on_c, 0, 81, 64
2, 6103, Note_on_c, 0, 81, 0
2, 6104, Note_on_c, 0, 79, 64
2, 6117, Note_on_c, 0, 79, 0
2, 6118, Note_on_c, 0, 81, 64
2, 6130, Note_on_c, 0, 81, 0
2, 6131, Note_on_c, 0, 79, 64
2, 6189, Note_on_c, 0, 79, 0
2, 6192, Note_on_c, 0, 78, 64
2, 6237, Note_on_c, 0, 78, 0
2, 6240, Note_on_c, 0, 79, 64
2, 6329, Note_on_c, 0, 79, 0
2, 6384, Note_on_c, 0, 81, 64
2, 6384, Note_on_c, 0, 72, 64
2, 6407, Note_on_c, 0, 81, 0
2, 6407, Note_on_c, 0, 72, 0
2, 6408, Note_on_c, 0, 83, 64
2, 6408, Note_on_c, 0, 74, 64
2, 6431, Note_on_c, 0, 83, 0
2, 6431, Note_on_c, 0, 74, 0
2, 6432, Note_on_c, 0, 84, 64
2, 6432, Note_on_c, 0, 76, 64
2, 6477, Note_on_c, 0, 84, 0
2, 6477, Note_on_c, 0, 76, 0
2, 6480, Note_on_c, 0, 83, 64
2, 6480, Note_on_c, 0, 74, 64
2, 6503, Note_on_c, 0, 83, 0
2, 6503, Note_on_c, 0, 74, 0
2, 6504, Note_on_c, 0, 81, 64
2, 6504, Note_on_c, 0, 72, 64
2, 6527, Note_on_c, 0, 81, 0
2, 6527, Note_on_c, 0, 72, 0
2, 6528, Note_on_c, 0, 83, 64
2, 6528, Note_on_c, 0, 74, 64
2, 6573, Note_on_c, 0, 83, 0
2, 6573, Note_on_c, 0, 74, 0
2, 6576, Note_on_c, 0, 86, 80
2, 6624, Note_on_c, 0, 86, 0
2, 6624, Note_on_c, 0, 84, 64
2, 6624, Note_on_c, 0, 76, 64
2, 6669, Note_on_c, 0, 84, 0
2, 6669, Note_on_c, 0, 76, 0
2, 6672, Note_on_c, 0, 83, 64
2, 6672, Note_on_c, 0, 74, 64
2, 6717, Note_on_c, 0, 83, 0
2, 6717, Note_on_c, 0, 74, 0
2, 6720, Note_on_c, 0, 81, 64
2, 6720, Note_on_c, 0, 72, 64
2, 6765, Note_on_c, 0, 81, 0
2, 6765, Note_on_c, 0, 72, 0
2, 6768, Note_on_c, 0, 79, 64
2, 6768, Note_on_c, 0, 71, 64
2, 6813, Note_on_c, 0, 79, 0
2, 6813, Note_on_c, 0, 71, 0
2, 6816, Note_on_c, 0, 79, 80
2, 6816, Note_on_c, 0, 71, 80
2, 6864, Note_on_c, 0, 79, 0
2, 6864, Note_on_c, 0, 71, 0
2, 6864, Note_on_c, 0, 81, 64
2, 6864, Note_on_c, 0, 72, 64
2, 6887, Note_on_c, 0, 81, 0
2, 6887, Note_on_c, 0, 72, 0
2, 6888, Note_on_c, 0, 79, 64
2, 6888, Note_on_c, 0, 71, 64
2, 6911, Note_on_c, 0, 79, 0
2, 6911, Note_on_c, 0, 71, 0
2, 6912, Note_on_c, 0, 81, 64
2, 6912, Note_on_c, 0, 72, 64
2, 7001, Note_on_c, 0, 81, 0
2, 7001, Note_on_c, 0, 72, 0
2, 7008, Note_on_c, 0, 78, 64
2, 7020, Note_on_c, 0, 78, 0
2, 7020, Note_on_c, 0, 79, 64
2, 7032, Note_on_c, 0, 79, 0
2, 7032, Note_on_c, 0, 78, 64
2, 7097, Note_on_c, 0, 78, 0
2, 7200, Note_on_c, 0, 79, 64
2, 7200, Note_on_c, 0, 71, 64
2, 7245, Note_on_c, 0, 79, 0
2, 7245, Note_on_c, 0, 71, 0
2, 7248, Note_on_c, 0, 74, 64
2, 7248, Note_on_c, 0, 71, 64
2, 7293, Note_on_c, 0, 74, 0
2, 7293, Note_on_c, 0, 71, 0
2, 7296, Note_on_c, 0, 74, 64
2, 7296, Note_on_c, 0, 71, 64
2, 7344, Note_on_c, 0, 74, 0
2, 7344, Note_on_c, 0, 71, 0
2, 7344, Note_on_c, 0, 76, 64
2, 7344, Note_on_c, 0, 72, 64
2, 7389, Note_on_c, 0, 76, 0
2, 7389, Note_on_c, 0, 72, 0
2, 7488, Note_on_c, 0, 81, 64
2, 7488, Note_on_c, 0, 72, 64
2, 7536, Note_on_c, 0, 81, 0
2, 7536, Note_on_c, 0, 72, 0
2, 7536, Note_on_c, 0, 78, 64
2, 7536, Note_on_c, 0, 69, 64
2, 7581, Note_on_c, 0, 78, 0
2, 7581, Note_on_c, 0, 69, 0
2, 7584, Note_on_c, 0, 78, 64
2, 7584, Note_on_c, 0, 69, 64
2, 7632, Note_on_c, 0, 78, 0
2, 7632, Note_on_c, 0, 69, 0
2, 7632, Note_on_c, 0, 79, 64
2, 7632, Note_on_c, 0, 71, 64
2, 7677, Note_on_c, 0, 79, 0
2, 7677, Note_on_c, 0, 71, 0
2, 7680, Note_on_c, 0, 78, 64
2, 7692, Note_on_c, 0, 78, 0
2, 7692, Note_on_c, 0, 79, 64
2, 7704, Note_on_c, 0, 79, 0
2, 7704, Note_on_c, 0, 78, 64
2, 7821, Note_on_c, 0, 78, 0
2, 7824, Note_on_c, 0, 76, 64
2, 7869, Note_on_c, 0, 76, 0
2, 7872, Note_on_c, 0, 74, 64
2, 7961, Note_on_c, 0, 74, 0
2, 7968, Note_on_c, 0, 83, 64
2, 7968, Note_on_c, 0, 79, 64
2, 7998, Note_on_c, 0, 83, 0
2, 7998, Note_on_c, 0, 79, 0
2, 8000, Note_on_c, 0, 84, 64
2, 8000, Note_on_c, 0, 81, 64
2, 8030, Note_on_c, 0, 84, 0
2, 8030, Note_on_c, 0, 81, 0
2, 8032, Note_on_c, 0, 86, 64
2, 8032, Note_on_c, 0, 83, 64
2, 8062, Note_on_c, 0, 86, 0
2, 8062, Note_on_c, 0, 83, 0
2, 8064, Note_on_c, 0, 86, 80
2, 8064, Note_on_c, 0, 83, 80
2, 8208, Note_on_c, 0, 86, 0
2, 8208, Note_on_c, 0, 83, 0
2, 8208, Note_on_c, 0, 59, 64
2, 8208, Note_on_c, 0, 55, 64
2, 8228, Note_on_c, 0, 59, 0
2, 8228, Note_on_c, 0, 55, 0
2, 8256, Note_on_c, 0, 62, 64
2, 8256, Note_on_c, 0, 59, 64
2, 8301, Note_on_c, 0, 62, 0
2, 8301, Note_on_c, 0, 59, 0
2, 8304, Note_on_c, 0, 60, 64
2, 8304, Note_on_c, 0, 57, 64
2, 8349, Note_on_c, 0, 60, 0
2, 8349, Note_on_c, 0, 57, 0
2, 8352, Note_on_c, 0, 59, 64
2, 8352, Note_on_c, 0, 55, 64
2, 8400, Note_on_c, 0, 59, 0
2, 8400, Note_on_c, 0, 55, 0
2, 8400, Note_on_c, 0, 57, 64
2, 8400, Note_on_c, 0, 54, 64
2, 8445, Note_on_c, 0, 57, 0
2, 8445, Note_on_c, 0, 54, 0
2, 8448, Note_on_c, 0, 57, 64
2, 8448, Note_on_c, 0, 54, 64
2, 8544, Note_on_c, 0, 57, 0
2, 8544, Note_on_c, 0, 54, 0
2, 8544, Note_on_c, 0, 59, 64
2, 8544, Note_on_c, 0, 55, 64
2, 8589, Note_on_c, 0, 59, 0
2, 8589, Note_on_c, 0, 55, 0
2, 8592, Note_on_c, 0, 54, 80
2, 8639, Note_on_c, 0, 54, 0
2, 8640, Note_on_c, 0, 55, 64
2, 8688, Note_on_c, 0, 55, 0
2, 8688, Note_on_c, 0, 50, 64
2, 8733, Note_on_c, 0, 50, 0
2, 8736, Note_on_c, 0, 50, 80
2, 8748, Note_on_c, 0, 50, 0
2, 8748, Note_on_c, 0, 52, 80
2, 8760, Note_on_c, 0, 52, 0
2, 8760, Note_on_c, 0, 50, 80
2, 8880, Note_on_c, 0, 50, 0
2, 8880, Note_on_c, 0, 48, 80
2, 8927, Note_on_c, 0, 48, 0
2, 8928, Note_on_c, 0, 47, 64
2, 8976, Note_on_c, 0, 47, 0
2, 8976, Note_on_c, 0, 50, 64
2, 9021, Note_on_c, 0, 50, 0
2, 9024, Note_on_c, 0, 48, 64
2, 9072, Note_on_c, 0, 48, 0
2, 9072, Note_on_c, 0, 45, 64
2, 9117, Note_on_c, 0, 45, 0
2, 9120, Note_on_c, 0, 47, 64
2, 9168, Note_on_c, 0, 47, 0
2, 9168, Note_on_c, 0, 43, 64
2, 9213, Note_on_c, 0, 43, 0
2, 9216, Note_on_c, 0, 45, 64
2, 9216, Note_on_c, 0, 42, 64
2, 9403, Note_on_c, 0, 45, 0
2, 9403, Note_on_c, 0, 42, 0
2, 9504, Note_on_c, 0, 49, 80
2, 9504, Note_on_c, 0, 45, 80
2, 9552, Note_on_c, 0, 49, 0
2, 9552, Note_on_c, 0, 45, 0
2, 9552, Note_on_c, 0, 52, 64
2, 9552, Note_on_c, 0, 49, 64
2, 9597, Note_on_c, 0, 52, 0
2, 9597, Note_on_c, 0, 49, 0
2, 9600, Note_on_c, 0, 52, 64
2, 9600, Note_on_c, 0, 49, 64
2, 9645, Note_on_c, 0, 52, 0
2, 9645, Note_on_c, 0, 49, 0
2, 9648, Note_on_c, 0, 55, 64
2, 9648, Note_on_c, 0, 52, 64
2, 9693, Note_on_c, 0, 55, 0
2, 9693, Note_on_c, 0, 52, 0
2, 9744, Note_on_c, 0, 52, 64
2, 9744, Note_on_c, 0, 49, 64
2, 9764, Note_on_c, 0, 52, 0
2, 9764, Note_on_c, 0, 49, 0
2, 9792, Note_on_c, 0, 54, 80
2, 9792, Note_on_c, 0, 50, 80
2, 9840, Note_on_c, 0, 54, 0
2, 9840, Note_on_c, 0, 50, 0
2, 9840, Note_on_c, 0, 57, 64
2, 9840, Note_on_c, 0, 54, 64
2, 9885, Note_on_c, 0, 57, 0
2, 9885, Note_on_c, 0, 54, 0
2, 9888, Note_on_c, 0, 57, 64
2, 9888, Note_on_c, 0, 54, 64
2, 9933, Note_on_c, 0, 57, 0
2, 9933, Note_on_c, 0, 54, 0
2, 9936, Note_on_c, 0, 62, 64
2, 9936, Note_on_c, 0, 57, 64
2, 9981, Note_on_c, 0, 62, 0
2, 9981, Note_on_c, 0, 57, 0
2, 10032, Note_on_c, 0, 62, 64
2, 10032, Note_on_c, 0, 57, 64
2, 10052, Note_on_c, 0, 62, 0
2, 10052, Note_on_c, 0, 57, 0
2, 10080, Note_on_c, 0, 61, 80
2, 10080, Note_on_c, 0, 57, 80
2, 10128, Note_on_c, 0, 61, 0
2, 10128, Note_on_c, 0, 57, 0
2, 10128, Note_on_c, 0, 71, 75
2, 10128, Note_on_c, 0, 67, 75
2, 10173, Note_on_c, 0, 71, 0
2, 10173, Note_on_c, 0, 67, 0
2, 10176, Note_on_c, 0, 69, 75
2, 10176, Note_on_c, 0, 66, 75
2, 10221, Note_on_c, 0, 69, 0
2, 10221, Note_on_c, 0, 66, 0
2, 10224, Note_on_c, 0, 67, 75
2, 10224, Note_on_c, 0, 64, 75
2, 10269, Note_on_c, 0, 67, 0
2, 10269, Note_on_c, 0, 64, 0
2, 10272, Note_on_c, 0, 66, 76
2, 10272, Note_on_c, 0, 62, 76
2, 10317, Note_on_c, 0, 66, 0
2, 10317, Note_on_c, 0, 62, 0
2, 10320, Note_on_c, 0, 64, 76
2, 10320, Note_on_c, 0, 61, 76
2, 10365, Note_on_c, 0, 64, 0
2, 10365, Note_on_c, 0, 61, 0
2, 10368, Note_on_c, 0, 66, 93
2, 10368, Note_on_c, 0, 62, 93
2, 10416, Note_on_c, 0, 66, 0
2, 10416, Note_on_c, 0, 62, 0
2, 10416, Note_on_c, 0, 76, 77
2, 10416, Note_on_c, 0, 72, 77
2, 10461, Note_on_c, 0, 76, 0
2, 10461, Note_on_c, 0, 72, 0
2, 10464, Note_on_c, 0, 76, 78
2, 10464, Note_on_c, 0, 72, 78
2, 10512, Note_on_c, 0, 76, 0
2, 10512, Note_on_c, 0, 72, 0
2, 10512, Note_on_c, 0, 74, 78
2, 10512, Note_on_c, 0, 71, 78
2, 10557, Note_on_c, 0, 74, 0
2, 10557, Note_on_c, 0, 71, 0
2, 10560, Note_on_c, 0, 74, 79
2, 10560, Note_on_c, 0, 71, 79
2, 10608, Note_on_c, 0, 74, 0
2, 10608, Note_on_c, 0, 71, 0
2, 10608, Note_on_c, 0, 73, 79
2, 10608, Note_on_c, 0, 70, 79
2, 10653, Note_on_c, 0, 73, 0
2, 10653, Note_on_c, 0, 70, 0
2, 10656, Note_on_c, 0, 74, 80
2, 10656, Note_on_c, 0, 71, 80
2, 10686, Note_on_c, 0, 74, 0
2, 10686, Note_on_c, 0, 71, 0
2, 10688, Note_on_c, 0, 76, 80
2, 10688, Note_on_c, 0, 72, 80
2, 10718, Note_on_c, 0, 76, 0
2, 10718, Note_on_c, 0, 72, 0
2, 10720, Note_on_c, 0, 77, 80
2, 10720, Note_on_c, 0, 74, 80
2, 10750, Note_on_c, 0, 77, 0
2, 10750, Note_on_c, 0, 74, 0
2, 10752, Note_on_c, 0, 77, 96
2, 10752, Note_on_c, 0, 74, 96
2, 10848, Note_on_c, 0, 77, 0
2, 10848, Note_on_c, 0, 74, 0
2, 10944, Note_on_c, 0, 78, 70
2, 10956, Note_on_c, 0, 78, 0
2, 10956, Note_on_c, 0, 81, 70
2, 11033, Note_on_c, 0, 81, 0
2, 11040, Note_on_c, 0, 78, 70
2, 11052, Note_on_c, 0, 78, 0
2, 11052, Note_on_c, 0, 74, 70
2, 11129, Note_on_c, 0, 74, 0
2, 11136, Note_on_c, 0, 76, 70
2, 11148, Note_on_c, 0, 76, 0
2, 11148, Note_on_c, 0, 73, 70
2, 11225, Note_on_c, 0, 73, 0
2, 11232, Note_on_c, 0, 73, 86
2, 11328, Note_on_c, 0, 73, 0
2, 11328, Note_on_c, 0, 74, 70
2, 11417, Note_on_c, 0, 74, 0
2, 11520, Note_on_c, 0, 60, 70
2, 11609, Note_on_c, 0, 60, 0
2, 11616, Note_on_c, 0, 64, 70
2, 11705, Note_on_c, 0, 64, 0
2, 11712, Note_on_c, 0, 62, 70
2, 11801, Note_on_c, 0, 62, 0
2, 11808, Note_on_c, 0, 60, 70
2, 11821, Note_on_c, 0, 60, 0
2, 11822, Note_on_c, 0, 62, 70
2, 11835, Note_on_c, 0, 62, 0
2, 11836, Note_on_c, 0, 60, 70
2, 11849, Note_on_c, 0, 60, 0
2, 11850, Note_on_c, 0, 62, 70
2, 11863, Note_on_c, 0, 62, 0
2, 11864, Note_on_c, 0, 60, 70
2, 11877, Note_on_c, 0, 60, 0
2, 11878, Note_on_c, 0, 62, 70
2, 11890, Note_on_c, 0, 62, 0
2, 11891, Note_on_c, 0, 60, 70
2, 11949, Note_on_c, 0, 60, 0
2, 11952, Note_on_c, 0, 59, 70
2, 11997, Note_on_c, 0, 59, 0
2, 12000, Note_on_c, 0, 60, 70
2, 12089, Note_on_c, 0, 60, 0
2, 12096, Note_on_c, 0, 59, 70
2, 12361, Note_on_c, 0, 59, 0
2, 12384, Note_on_c, 0, 75, 86
2, 12416, Note_on_c, 0, 75, 0
2, 12416, Note_on_c, 0, 72, 70
2, 12446, Note_on_c, 0, 72, 0
2, 12448, Note_on_c, 0, 71, 70
2, 12478, Note_on_c, 0, 71, 0
2, 12480, Note_on_c, 0, 69, 70
2, 12510, Note_on_c, 0, 69, 0
2, 12512, Note_on_c, 0, 67, 70
2, 12542, Note_on_c, 0, 67, 0
2, 12544, Note_on_c, 0, 66, 70
2, 12574, Note_on_c, 0, 66, 0
2, 12576, Note_on_c, 0, 64, 70
2, 12606, Note_on_c, 0, 64, 0
2, 12608, Note_on_c, 0, 66, 70
2, 12638, Note_on_c, 0, 66, 0
2, 12640, Note_on_c, 0, 67, 70
2, 12670, Note_on_c, 0, 67, 0
2, 12672, Note_on_c, 0, 71, 70
2, 12702, Note_on_c, 0, 71, 0
2, 12704, Note_on_c, 0, 69, 70
2, 12734, Note_on_c, 0, 69, 0
2, 12736, Note_on_c, 0, 67, 71
2, 12766, Note_on_c, 0, 67, 0
2, 12768, Note_on_c, 0, 66, 71
2, 12798, Note_on_c, 0, 66, 0
2, 12800, Note_on_c, 0, 64, 72
2, 12830, Note_on_c, 0, 64, 0
2, 12832, Note_on_c, 0, 63, 72
2, 12862, Note_on_c, 0, 63, 0
2, 12864, Note_on_c, 0, 64, 73
2, 12894, Note_on_c, 0, 64, 0
2, 12896, Note_on_c, 0, 66, 73
2, 12926, Note_on_c, 0, 66, 0
2, 12928, Note_on_c, 0, 67, 74
2, 12958, Note_on_c, 0, 67, 0
2, 12992, Note_on_c, 0, 80, 75
2, 13022, Note_on_c, 0, 80, 0
2, 13024, Note_on_c, 0, 81, 75
2, 13054, Note_on_c, 0, 81, 0
2, 13056, Note_on_c, 0, 84, 91
2, 13088, Note_on_c, 0, 84, 0
2, 13088, Note_on_c, 0, 80, 75
2, 13118, Note_on_c, 0, 80, 0
2, 13120, Note_on_c, 0, 81, 75
2, 13150, Note_on_c, 0, 81, 0
2, 13152, Note_on_c, 0, 84, 91
2, 13184, Note_on_c, 0, 84, 0
2, 13184, Note_on_c, 0, 83, 75
2, 13214, Note_on_c, 0, 83, 0
2, 13216, Note_on_c, 0, 81, 75
2, 13246, Note_on_c, 0, 81, 0
2, 13248, Note_on_c, 0, 80, 75
2, 13337, Note_on_c, 0, 80, 0
2, 13536, Note_on_c, 0, 62, 64
2, 13584, Note_on_c, 0, 62, 0
2, 13584, Note_on_c, 0, 65, 64
2, 13629, Note_on_c, 0, 65, 0
2, 13632, Note_on_c, 0, 65, 70
2, 13632, Note_on_c, 0, 62, 70
2, 13680, Note_on_c, 0, 65, 0
2, 13680, Note_on_c, 0, 62, 0
2, 13680, Note_on_c, 0, 64, 70
2, 13680, Note_on_c, 0, 60, 70
2, 13725, Note_on_c, 0, 64, 0
2, 13725, Note_on_c, 0, 60, 0
2, 13728, Note_on_c, 0, 64, 70
2, 13728, Note_on_c, 0, 60, 70
2, 13776, Note_on_c, 0, 64, 0
2, 13776, Note_on_c, 0, 60, 0
2, 13776, Note_on_c, 0, 62, 70
2, 13776, Note_on_c, 0, 59, 70
2, 13821, Note_on_c, 0, 62, 0
2, 13821, Note_on_c, 0, 59, 0
2, 13824, Note_on_c, 0, 60, 70
2, 13824, Note_on_c, 0, 57, 70
2, 13872, Note_on_c, 0, 57, 0
2, 13872, Note_on_c, 0, 64, 70
2, 13917, Note_on_c, 0, 64, 0
2, 13917, Note_on_c, 0, 60, 0
2, 13920, Note_on_c, 0, 64, 70
2, 13920, Note_on_c, 0, 60, 70
2, 13968, Note_on_c, 0, 64, 0
2, 13968, Note_on_c, 0, 60, 0
2, 13968, Note_on_c, 0, 62, 70
2, 13968, Note_on_c, 0, 59, 70
2, 14013, Note_on_c, 0, 62, 0
2, 14013, Note_on_c, 0, 59, 0
2, 14016, Note_on_c, 0, 62, 70
2, 14016, Note_on_c, 0, 59, 70
2, 14064, Note_on_c, 0, 62, 0
2, 14064, Note_on_c, 0, 59, 0
2, 14064, Note_on_c, 0, 60, 70
2, 14064, Note_on_c, 0, 57, 70
2, 14109, Note_on_c, 0, 60, 0
2, 14109, Note_on_c, 0, 57, 0
2, 14112, Note_on_c, 0, 59, 70
2, 14112, Note_on_c, 0, 56, 70
2, 14157, Note_on_c, 0, 59, 0
2, 14157, Note_on_c, 0, 56, 0
2, 14160, Note_on_c, 0, 77, 70
2, 14160, Note_on_c, 0, 74, 70
2, 14205, Note_on_c, 0, 77, 0
2, 14205, Note_on_c, 0, 74, 0
2, 14208, Note_on_c, 0, 76, 70
2, 14208, Note_on_c, 0, 72, 70
2, 14253, Note_on_c, 0, 76, 0
2, 14253, Note_on_c, 0, 72, 0
2, 14256, Note_on_c, 0, 74, 70
2, 14256, Note_on_c, 0, 71, 70
2, 14301, Note_on_c, 0, 74, 0
2, 14301, Note_on_c, 0, 71, 0
2, 14304, Note_on_c, 0, 72, 70
2, 14304, Note_on_c, 0, 69, 70
2, 14349, Note_on_c, 0, 72, 0
2, 14349, Note_on_c, 0, 69, 0
2, 14352, Note_on_c, 0, 71, 70
2, 14352, Note_on_c, 0, 68, 70
2, 14397, Note_on_c, 0, 71, 0
2, 14397, Note_on_c, 0, 68, 0
2, 14400, Note_on_c, 0, 72, 70
2, 14400, Note_on_c, 0, 69, 70
2, 14430, Note_on_c, 0, 72, 0
2, 14430, Note_on_c, 0, 69, 0
2, 14432, Note_on_c, 0, 74, 70
2, 14432, Note_on_c, 0, 71, 70
2, 14462, Note_on_c, 0, 74, 0
2, 14462, Note_on_c, 0, 71, 0
2, 14464, Note_on_c, 0, 76, 70
2, 14464, Note_on_c, 0, 72, 70
2, 14494, Note_on_c, 0, 76, 0
2, 14494, Note_on_c, 0, 72, 0
2, 14496, Note_on_c, 0, 76, 86
2, 14496, Note_on_c, 0, 72, 86
2, 14592, Note_on_c, 0, 76, 0
2, 14592, Note_on_c, 0, 72, 0
2, 14688, Note_on_c, 0, 76, 64
2, 14736, Note_on_c, 0, 76, 0
2, 14736, Note_on_c, 0, 73, 64
2, 14781, Note_on_c, 0, 73, 0
2, 14784, Note_on_c, 0, 73, 64
2, 14832, Note_on_c, 0, 73, 0
2, 14832, Note_on_c, 0, 74, 64
2, 14877, Note_on_c, 0, 74, 0
2, 14976, Note_on_c, 0, 74, 70
2, 14976, Note_on_c, 0, 71, 70
2, 15006, Note_on_c, 0, 74, 0
2, 15006, Note_on_c, 0, 71, 0
2, 15008, Note_on_c, 0, 76, 70
2, 15008, Note_on_c, 0, 72, 70
2, 15038, Note_on_c, 0, 76, 0
2, 15038, Note_on_c, 0, 72, 0
2, 15040, Note_on_c, 0, 77, 70
2, 15040, Note_on_c, 0, 74, 70
2, 15070, Note_on_c, 0, 77, 0
2, 15070, Note_on_c, 0, 74, 0
2, 15072, Note_on_c, 0, 77, 86
2, 15072, Note_on_c, 0, 74, 86
2, 15168, Note_on_c, 0, 77, 0
2, 15168, Note_on_c, 0, 74, 0
2, 15264, Note_on_c, 0, 77, 64
2, 15312, Note_on_c, 0, 77, 0
2, 15312, Note_on_c, 0, 75, 64
2, 15357, Note_on_c, 0, 75, 0
2, 15360, Note_on_c, 0, 75, 64
2, 15408, Note_on_c, 0, 75, 0
2, 15408, Note_on_c, 0, 76, 64
2, 15453, Note_on_c, 0, 76, 0
2, 15552, Note_on_c, 0, 86, 64
2, 15552, Note_on_c, 0, 83, 64
2, 15582, Note_on_c, 0, 86, 0
2, 15582, Note_on_c, 0, 83, 0
2, 15584, Note_on_c, 0, 88, 64
2, 15584, Note_on_c, 0, 84, 64
2, 15614, Note_on_c, 0, 88, 0
2, 15614, Note_on_c, 0, 84, 0
2, 15616, Note_on_c, 0, 89, 64
2, 15616, Note_on_c, 0, 86, 64
2, 15646, Note_on_c, 0, 89, 0
2, 15646, Note_on_c, 0, 86, 0
2, 15648, Note_on_c, 0, 89, 80
2, 15648, Note_on_c, 0, 86, 80
2, 15744, Note_on_c, 0, 89, 0
2, 15744, Note_on_c, 0, 86, 0
2, 15840, Note_on_c, 0, 88, 58
2, 15888, Note_on_c, 0, 88, 0
2, 15888, Note_on_c, 0, 85, 58
2, 15933, Note_on_c, 0, 85, 0
2, 15936, Note_on_c, 0, 85, 58
2, 15984, Note_on_c, 0, 85, 0
2, 15984, Note_on_c, 0, 86, 58
2, 16029, Note_on_c, 0, 86, 0
2, 16080, Note_on_c, 0, 86, 80
2, 16125, Note_on_c, 0, 86, 0
2, 16128, Note_on_c, 0, 84, 96
2, 16176, Note_on_c, 0, 84, 0
2, 16176, Note_on_c, 0, 88, 80
2, 16221, Note_on_c, 0, 88, 0
2, 16224, Note_on_c, 0, 86, 80
2, 16269, Note_on_c, 0, 86, 0
2, 16272, Note_on_c, 0, 84, 80
2, 16317, Note_on_c, 0, 84, 0
2, 16320, Note_on_c, 0, 83, 80
2, 16365, Note_on_c, 0, 83, 0
2, 16368, Note_on_c, 0, 81, 80
2, 16413, Note_on_c, 0, 81, 0
2, 16416, Note_on_c, 0, 79, 80
2, 16461, Note_on_c, 0, 79, 0
2, 16464, Note_on_c, 0, 78, 80
2, 16509, Note_on_c, 0, 78, 0
2, 16512, Note_on_c, 0, 77, 80
2, 16557, Note_on_c, 0, 77, 0
2, 16560, Note_on_c, 0, 76, 80
2, 16605, Note_on_c, 0, 76, 0
2, 16608, Note_on_c, 0, 75, 80
2, 16653, Note_on_c, 0, 75, 0
2, 16656, Note_on_c, 0, 74, 80
2, 16701, Note_on_c, 0, 74, 0
2, 16704, Note_on_c, 0, 74, 75
2, 16728, Note_on_c, 0, 74, 0
2, 16728, Note_on_c, 0, 72, 75
2, 16740, Note_on_c, 0, 72, 0
2, 16740, Note_on_c, 0, 74, 75
2, 16752, Note_on_c, 0, 74, 0
2, 16752, Note_on_c, 0, 72, 75
2, 16764, Note_on_c, 0, 72, 0
2, 16764, Note_on_c, 0, 74, 75
2, 16776, Note_on_c, 0, 74, 0
2, 16776, Note_on_c, 0, 72, 75
2, 16788, Note_on_c, 0, 72, 0
2, 16788, Note_on_c, 0, 74, 75
2, 16800, Note_on_c, 0, 74, 0
2, 16800, Note_on_c, 0, 72, 75
2, 16812, Note_on_c, 0, 72, 0
2, 16812, Note_on_c, 0, 74, 75
2, 16824, Note_on_c, 0, 74, 0
2, 16824, Note_on_c, 0, 72, 75
2, 16836, Note_on_c, 0, 72, 0
2, 16836, Note_on_c, 0, 74, 75
2, 16837, Note_on_c, 0, 74, 0
2, 16848, Note_on_c, 0, 71, 75
2, 16871, Note_on_c, 0, 71, 0
2, 16872, Note_on_c, 0, 72, 75
2, 16895, Note_on_c, 0, 72, 0
2, 16896, Note_on_c, 0, 81, 75
2, 17081, Note_on_c, 0, 81, 0
2, 17280, Note_on_c, 0, 59, 91
2, 17280, Note_on_c, 0, 55, 91
2, 17328, Note_on_c, 0, 59, 0
2, 17328, Note_on_c, 0, 55, 0
2, 17328, Note_on_c, 0, 62, 75
2, 17328, Note_on_c, 0, 59, 75
2, 17373, Note_on_c, 0, 62, 0
2, 17373, Note_on_c, 0, 59, 0
2, 17376, Note_on_c, 0, 62, 75
2, 17376, Note_on_c, 0, 59, 75
2, 17421, Note_on_c, 0, 62, 0
2, 17421, Note_on_c, 0, 59, 0
2, 17424, Note_on_c, 0, 67, 75
2, 17424, Note_on_c, 0, 62, 75
2, 17469, Note_on_c, 0, 67, 0
2, 17469, Note_on_c, 0, 62, 0
2, 17520, Note_on_c, 0, 67, 75
2, 17520, Note_on_c, 0, 62, 75
2, 17540, Note_on_c, 0, 67, 0
2, 17540, Note_on_c, 0, 62, 0
2, 17568, Note_on_c, 0, 66, 91
2, 17568, Note_on_c, 0, 62, 91
2, 17616, Note_on_c, 0, 66, 0
2, 17616, Note_on_c, 0, 62, 0
2, 17616, Note_on_c, 0, 76, 75
2, 17616, Note_on_c, 0, 72, 75
2, 17661, Note_on_c, 0, 76, 0
2, 17661, Note_on_c, 0, 72, 0
2, 17664, Note_on_c, 0, 74, 75
2, 17664, Note_on_c, 0, 71, 75
2, 17709, Note_on_c, 0, 74, 0
2, 17709, Note_on_c, 0, 71, 0
2, 17712, Note_on_c, 0, 72, 75
2, 17712, Note_on_c, 0, 69, 75
2, 17757, Note_on_c, 0, 72, 0
2, 17757, Note_on_c, 0, 69, 0
2, 17760, Note_on_c, 0, 71, 75
2, 17760, Note_on_c, 0, 67, 75
2, 17805, Note_on_c, 0, 71, 0
2, 17805, Note_on_c, 0, 67, 0
2, 17808, Note_on_c, 0, 69, 76
2, 17808, Note_on_c, 0, 66, 76
2, 17853, Note_on_c, 0, 69, 0
2, 17853, Note_on_c, 0, 66, 0
2, 17856, Note_on_c, 0, 71, 92
2, 17856, Note_on_c, 0, 67, 92
2, 17904, Note_on_c, 0, 71, 0
2, 17904, Note_on_c, 0, 67, 0
2, 17904, Note_on_c, 0, 81, 77
2, 17904, Note_on_c, 0, 78, 77
2, 17949, Note_on_c, 0, 81, 0
2, 17949, Note_on_c, 0, 78, 0
2, 17952, Note_on_c, 0, 81, 77
2, 17952, Note_on_c, 0, 78, 77
2, 18000, Note_on_c, 0, 81, 0
2, 18000, Note_on_c, 0, 78, 0
2, 18000, Note_on_c, 0, 79, 78
2, 18000, Note_on_c, 0, 76, 78
2, 18045, Note_on_c, 0, 79, 0
2, 18045, Note_on_c, 0, 76, 0
2, 18048, Note_on_c, 0, 79, 78
2, 18048, Note_on_c, 0, 76, 78
2, 18096, Note_on_c, 0, 79, 0
2, 18096, Note_on_c, 0, 76, 0
2, 18096, Note_on_c, 0, 78, 79
2, 18096, Note_on_c, 0, 74, 79
2, 18141, Note_on_c, 0, 78, 0
2, 18141, Note_on_c, 0, 74, 0
2, 18144, Note_on_c, 0, 81, 79
2, 18150, Note_on_c, 0, 81, 0
2, 18150, Note_on_c, 0, 79, 95
2, 18168, Note_on_c, 0, 79, 0
2, 18168, Note_on_c, 0, 78, 80
2, 18191, Note_on_c, 0, 78, 0
2, 18192, Note_on_c, 0, 79, 80
2, 18215, Note_on_c, 0, 79, 0
2, 18216, Note_on_c, 0, 81, 80
2, 18239, Note_on_c, 0, 81, 0
2, 18240, Note_on_c, 0, 82, 80
2, 18329, Note_on_c, 0, 82, 0
2, 18432, Note_on_c, 0, 71, 75
2, 18450, Note_on_c, 0, 71, 0
2, 18450, Note_on_c, 0, 74, 75
2, 18521, Note_on_c, 0, 74, 0
2, 18528, Note_on_c, 0, 71, 75
2, 18546, Note_on_c, 0, 71, 0
2, 18546, Note_on_c, 0, 67, 75
2, 18617, Note_on_c, 0, 67, 0
2, 18624, Note_on_c, 0, 69, 75
2, 18642, Note_on_c, 0, 69, 0
2, 18642, Note_on_c, 0, 66, 75
2, 18713, Note_on_c, 0, 66, 0
2, 18720, Note_on_c, 0, 67, 75
2, 18897, Note_on_c, 0, 67, 0
2, 19008, Note_on_c, 0, 60, 70
2, 19097, Note_on_c, 0, 60, 0
2, 19104, Note_on_c, 0, 64, 70
2, 19193, Note_on_c, 0, 64, 0
2, 19200, Note_on_c, 0, 62, 70
2, 19289, Note_on_c, 0, 62, 0
2, 19296, Note_on_c, 0, 60, 70
2, 19309, Note_on_c, 0, 60, 0
2, 19310, Note_on_c, 0, 62, 70
2, 19323, Note_on_c, 0, 62, 0
2, 19324, Note_on_c, 0, 60, 70
2, 19337, Note_on_c, 0, 60, 0
2, 19338, Note_on_c, 0, 62, 70
2, 19351, Note_on_c, 0, 62, 0
2, 19352, Note_on_c, 0, 60, 70
2, 19365, Note_on_c, 0, 60, 0
2, 19366, Note_on_c, 0, 62, 70
2, 19378, Note_on_c, 0, 62, 0
2, 19379, Note_on_c, 0, 60, 70
2, 19437, Note_on_c, 0, 60, 0
2, 19440, Note_on_c, 0, 59, 70
2, 19485, Note_on_c, 0, 59, 0
2, 19488, Note_on_c, 0, 60, 70
2, 19577, Note_on_c, 0, 60, 0
2, 19584, Note_on_c, 0, 59, 70
2, 19849, Note_on_c, 0, 59, 0
2, 19872, Note_on_c, 0, 75, 86
2, 19904, Note_on_c, 0, 75, 0
2, 19904, Note_on_c, 0, 72, 70
2, 19934, Note_on_c, 0, 72, 0
2, 19936, Note_on_c, 0, 71, 70
2, 19966, Note_on_c, 0, 71, 0
2, 19968, Note_on_c, 0, 69, 70
2, 19998, Note_on_c, 0, 69, 0
2, 20000, Note_on_c, 0, 67, 70
2, 20030, Note_on_c, 0, 67, 0
2, 20032, Note_on_c, 0, 66, 70
2, 20062, Note_on_c, 0, 66, 0
2, 20064, Note_on_c, 0, 64, 70
2, 20094, Note_on_c, 0, 64, 0
2, 20096, Note_on_c, 0, 66, 70
2, 20126, Note_on_c, 0, 66, 0
2, 20128, Note_on_c, 0, 67, 70
2, 20158, Note_on_c, 0, 67, 0
2, 20160, Note_on_c, 0, 71, 70
2, 20190, Note_on_c, 0, 71, 0
2, 20192, Note_on_c, 0, 69, 70
2, 20222, Note_on_c, 0, 69, 0
2, 20224, Note_on_c, 0, 67, 71
2, 20254, Note_on_c, 0, 67, 0
2, 20256, Note_on_c, 0, 66, 71
2, 20286, Note_on_c, 0, 66, 0
2, 20288, Note_on_c, 0, 64, 72
2, 20318, Note_on_c, 0, 64, 0
2, 20320, Note_on_c, 0, 63, 72
2, 20350, Note_on_c, 0, 63, 0
2, 20352, Note_on_c, 0, 64, 73
2, 20382, Note_on_c, 0, 64, 0
2, 20384, Note_on_c, 0, 66, 73
2, 20414, Note_on_c, 0, 66, 0
2, 20416, Note_on_c, 0, 67, 74
2, 20446, Note_on_c, 0, 67, 0
2, 20480, Note_on_c, 0, 80, 75
2, 20510, Note_on_c, 0, 80, 0
2, 20512, Note_on_c, 0, 81, 75
2, 20542, Note_on_c, 0, 81, 0
2, 20544, Note_on_c, 0, 84, 91
2, 20576, Note_on_c, 0, 84, 0
2, 20576, Note_on_c, 0, 80, 75
2, 20606, Note_on_c, 0, 80, 0
2, 20608, Note_on_c, 0, 81, 75
2, 20638, Note_on_c, 0, 81, 0
2, 20640, Note_on_c, 0, 84, 91
2, 20672, Note_on_c, 0, 84, 0
2, 20672, Note_on_c, 0, 83, 75
2, 20702, Note_on_c, 0, 83, 0
2, 20704, Note_on_c, 0, 81, 75
2, 20734, Note_on_c, 0, 81, 0
2, 20736, Note_on_c, 0, 80, 75
2, 20825, Note_on_c, 0, 80, 0
2, 21024, Note_on_c, 0, 62, 64
2, 21072, Note_on_c, 0, 62, 0
2, 21072, Note_on_c, 0, 65, 64
2, 21117, Note_on_c, 0, 65, 0
2, 21120, Note_on_c, 0, 65, 70
2, 21120, Note_on_c, 0, 62, 70
2, 21168, Note_on_c, 0, 65, 0
2, 21168, Note_on_c, 0, 62, 0
2, 21168, Note_on_c, 0, 64, 70
2, 21168, Note_on_c, 0, 60, 70
2, 21213, Note_on_c, 0, 64, 0
2, 21213, Note_on_c, 0, 60, 0
2, 21216, Note_on_c, 0, 64, 70
2, 21216, Note_on_c, 0, 60, 70
2, 21264, Note_on_c, 0, 64, 0
2, 21264, Note_on_c, 0, 60, 0
2, 21264, Note_on_c, 0, 62, 70
2, 21264, Note_on_c, 0, 59, 70
2, 21309, Note_on_c, 0, 62, 0
2, 21309, Note_on_c, 0, 59, 0
2, 21312, Note_on_c, 0, 60, 70
2, 21312, Note_on_c, 0, 57, 70
2, 21360, Note_on_c, 0, 57, 0
2, 21360, Note_on_c, 0, 64, 70
2, 21405, Note_on_c, 0, 64, 0
2, 21405, Note_on_c, 0, 60, 0
2, 21408, Note_on_c, 0, 64, 70
2, 21408, Note_on_c, 0, 60, 70
2, 21456, Note_on_c, 0, 64, 0
2, 21456, Note_on_c, 0, 60, 0
2, 21456, Note_on_c, 0, 62, 70
2, 21456, Note_on_c, 0, 59, 70
2, 21501, Note_on_c, 0, 62, 0
2, 21501, Note_on_c, 0, 59, 0
2, 21504, Note_on_c, 0, 62, 70
2, 21504, Note_on_c, 0, 59, 70
2, 21552, Note_on_c, 0, 62, 0
2, 21552, Note_on_c, 0, 59, 0
2, 21552, Note_on_c, 0, 60, 70
2, 21552, Note_on_c, 0, 57, 70
2, 21597, Note_on_c, 0, 60, 0
2, 21597, Note_on_c, 0, 57, 0
2, 21600, Note_on_c, 0, 59, 70
2, 21600, Note_on_c, 0, 56, 70
2, 21645, Note_on_c, 0, 59, 0
2, 21645, Note_on_c, 0, 56, 0
2, 21648, Note_on_c, 0, 77, 70
2, 21648, Note_on_c, 0, 74, 70
2, 21693, Note_on_c, 0, 77, 0
2, 21693, Note_on_c, 0, 74, 0
2, 21696, Note_on_c, 0, 76, 70
2, 21696, Note_on_c, 0, 72, 70
2, 21741, Note_on_c, 0, 76, 0
2, 21741, Note_on_c, 0, 72, 0
2, 21744, Note_on_c, 0, 74, 70
2, 21744, Note_on_c, 0, 71, 70
2, 21789, Note_on_c, 0, 74, 0
2, 21789, Note_on_c, 0, 71, 0
2, 21792, Note_on_c, 0, 72, 70
2, 21792, Note_on_c, 0, 69, 70
2, 21837, Note_on_c, 0, 72, 0
2, 21837, Note_on_c, 0, 69, 0
2, 21840, Note_on_c, 0, 71, 70
2, 21840, Note_on_c, 0, 68, 70
2, 21885, Note_on_c, 0, 71, 0
2, 21885, Note_on_c, 0, 68, 0
2, 21888, Note_on_c, 0, 72, 70
2, 21888, Note_on_c, 0, 69, 70
2, 21918, Note_on_c, 0, 72, 0
2, 21918, Note_on_c, 0, 69, 0
2, 21920, Note_on_c, 0, 74, 70
2, 21920, Note_on_c, 0, 71, 70
2, 21950, Note_on_c, 0, 74, 0
2, 21950, Note_on_c, 0, 71, 0
2, 21952, Note_on_c, 0, 76, 70
2, 21952, Note_on_c, 0, 72, 70
2, 21982, Note_on_c, 0, 76, 0
2, 21982, Note_on_c, 0, 72, 0
2, 21984, Note_on_c, 0, 76, 86
2, 21984, Note_on_c, 0, 72, 86
2, 22080, Note_on_c, 0, 76, 0
2, 22080, Note_on_c, 0, 72, 0
2, 22176, Note_on_c, 0, 76, 64
2, 22224, Note_on_c, 0, 76, 0
2, 22224, Note_on_c, 0, 73, 64
2, 22269, Note_on_c, 0, 73, 0
2, 22272, Note_on_c, 0, 73, 64
2, 22320, Note_on_c, 0, 73, 0
2, 22320, Note_on_c, 0, 74, 64
2, 22365, Note_on_c, 0, 74, 0
2, 22464, Note_on_c, 0, 74, 70
2, 22464, Note_on_c, 0, 71, 70
2, 22494, Note_on_c, 0, 74, 0
2, 22494, Note_on_c, 0, 71, 0
2, 22496, Note_on_c, 0, 76, 70
2, 22496, Note_on_c, 0, 72, 70
2, 22526, Note_on_c, 0, 76, 0
2, 22526, Note_on_c, 0, 72, 0
2, 22528, Note_on_c, 0, 77, 70
2, 22528, Note_on_c, 0, 74, 70
2, 22558, Note_on_c, 0, 77, 0
2, 22558, Note_on_c, 0, 74, 0
2, 22560, Note_on_c, 0, 77, 86
2, 22560, Note_on_c, 0, 74, 86
2, 22656, Note_on_c, 0, 77, 0
2, 22656, Note_on_c, 0, 74, 0
2, 22752, Note_on_c, 0, 77, 64
2, 22800, Note_on_c, 0, 77, 0
2, 22800, Note_on_c, 0, 75, 64
2, 22845, Note_on_c, 0, 75, 0
2, 22848, Note_on_c, 0, 75, 64
2, 22896, Note_on_c, 0, 75, 0
2, 22896, Note_on_c, 0, 76, 64
2, 22941, Note_on_c, 0, 76, 0
2, 23040, Note_on_c, 0, 86, 64
2, 23040, Note_on_c, 0, 83, 64
2, 23070, Note_on_c, 0, 86, 0
2, 23070, Note_on_c, 0, 83, 0
2, 23072, Note_on_c, 0, 88, 64
2, 23072, Note_on_c, 0, 84, 64
2, 23102, Note_on_c, 0, 88, 0
2, 23102, Note_on_c, 0, 84, 0
2, 23104, Note_on_c, 0, 89, 64
2, 23104, Note_on_c, 0, 86, 64
2, 23134, Note_on_c, 0, 89, 0
2, 23134, Note_on_c, 0, 86, 0
2, 23136, Note_on_c, 0, 89, 80
2, 23136, Note_on_c, 0, 86, 80
2, 23232, Note_on_c, 0, 89, 0
2, 23232, Note_on_c, 0, 86, 0
2, 23328, Note_on_c, 0, 88, 58
2, 23376, Note_on_c, 0, 88, 0
2, 23376, Note_on_c, 0, 85, 58
2, 23421, Note_on_c, 0, 85, 0
2, 23424, Note_on_c, 0, 85, 58
2, 23472, Note_on_c, 0, 85, 0
2, 23472, Note_on_c, 0, 86, 58
2, 23517, Note_on_c, 0, 86, 0
2, 23568, Note_on_c, 0, 86, 80
2, 23613, Note_on_c, 0, 86, 0
2, 23616, Note_on_c, 0, 84, 96
2, 23664, Note_on_c, 0, 84, 0
2, 23664, Note_on_c, 0, 88, 80
2, 23709, Note_on_c, 0, 88, 0
2, 23712, Note_on_c, 0, 86, 80
2, 23757, Note_on_c, 0, 86, 0
2, 23760, Note_on_c, 0, 84, 80
2, 23805, Note_on_c, 0, 84, 0
2, 23808, Note_on_c, 0, 83, 80
2, 23853, Note_on_c, 0, 83, 0
2, 23856, Note_on_c, 0, 81, 80
2, 23901, Note_on_c, 0, 81, 0
2, 23904, Note_on_c, 0, 79, 80
2, 23949, Note_on_c, 0, 79, 0
2, 23952, Note_on_c, 0, 78, 80
2, 23997, Note_on_c, 0, 78, 0
2, 24000, Note_on_c, 0, 77, 80
2, 24045, Note_on_c, 0, 77, 0
2, 24048, Note_on_c, 0, 76, 80
2, 24093, Note_on_c, 0, 76, 0
2, 24096, Note_on_c, 0, 75, 80
2, 24141, Note_on_c, 0, 75, 0
2, 24144, Note_on_c, 0, 74, 80
2, 24189, Note_on_c, 0, 74, 0
2, 24192, Note_on_c, 0, 74, 75
2, 24216, Note_on_c, 0, 74, 0
2, 24216, Note_on_c, 0, 72, 75
2, 24228, Note_on_c, 0, 72, 0
2, 24228, Note_on_c, 0, 74, 75
2, 24240, Note_on_c, 0, 74, 0
2, 24240, Note_on_c, 0, 72, 75
2, 24252, Note_on_c, 0, 72, 0
2, 24252, Note_on_c, 0, 74, 75
2, 24264, Note_on_c, 0, 74, 0
2, 24264, Note_on_c, 0, 72, 75
2, 24276, Note_on_c, 0, 72, 0
2, 24276, Note_on_c, 0, 74, 75
2, 24288, Note_on_c, 0, 74, 0
2, 24288, Note_on_c, 0, 72, 75
2, 24300, Note_on_c, 0, 72, 0
2, 24300, Note_on_c, 0, 74, 75
2, 24312, Note_on_c, 0, 74, 0
2, 24312, Note_on_c, 0, 72, 75
2, 24324, Note_on_c, 0, 72, 0
2, 24324, Note_on_c, 0, 74, 75
2, 24325, Note_on_c, 0, 74, 0
2, 24336, Note_on_c, 0, 71, 75
2, 24359, Note_on_c, 0, 71, 0
2, 24360, Note_on_c, 0, 72, 75
2, 24383, Note_on_c, 0, 72, 0
2, 24384, Note_on_c, 0, 81, 75
2, 24569, Note_on_c, 0, 81, 0
2, 24768, Note_on_c, 0, 59, 91
2, 24768, Note_on_c, 0, 55, 91
2, 24816, Note_on_c, 0, 59, 0
2, 24816, Note_on_c, 0, 55, 0
2, 24816, Note_on_c, 0, 62, 75
2, 24816, Note_on_c, 0, 59, 75
2, 24861, Note_on_c, 0, 62, 0
2, 24861, Note_on_c, 0, 59, 0
2, 24864, Note_on_c, 0, 62, 75
2, 24864, Note_on_c, 0, 59, 75
2, 24909, Note_on_c, 0, 62, 0
2, 24909, Note_on_c, 0, 59, 0
2, 24912, Note_on_c, 0, 67, 75
2, 24912, Note_on_c, 0, 62, 75
2, 24957, Note_on_c, 0, 67, 0
2, 24957, Note_on_c, 0, 62, 0
2, 25008, Note_on_c, 0, 67, 75
2, 25008, Note_on_c, 0, 62, 75
2, 25028, Note_on_c, 0, 67, 0
2, 25028, Note_on_c, 0, 62, 0
2, 25056, Note_on_c, 0, 66, 91
2, 25056, Note_on_c, 0, 62, 91
2, 25104, Note_on_c, 0, 66, 0
2, 25104, Note_on_c, 0, 62, 0
2, 25104, Note_on_c, 0, 76, 75
2, 25104, Note_on_c, 0, 72, 75
2, 25149, Note_on_c, 0, 76, 0
2, 25149, Note_on_c, 0, 72, 0
2, 25152, Note_on_c, 0, 74, 75
2, 25152, Note_on_c, 0, 71, 75
2, 25197, Note_on_c, 0, 74, 0
2, 25197, Note_on_c, 0, 71, 0
2, 25200, Note_on_c, 0, 72, 75
2, 25200, Note_on_c, 0, 69, 75
2, 25245, Note_on_c, 0, 72, 0
2, 25245, Note_on_c, 0, 69, 0
2, 25248, Note_on_c, 0, 71, 75
2, 25248, Note_on_c, 0, 67, 75
2, 25293, Note_on_c, 0, 71, 0
2, 25293, Note_on_c, 0, 67, 0
2, 25296, Note_on_c, 0, 69, 76
2, 25296, Note_on_c, 0, 66, 76
2, 25341, Note_on_c, 0, 69, 0
2, 25341, Note_on_c, 0, 66, 0
2, 25344, Note_on_c, 0, 71, 92
2, 25344, Note_on_c, 0, 67, 92
2, 25392, Note_on_c, 0, 71, 0
2, 25392, Note_on_c, 0, 67, 0
2, 25392, Note_on_c, 0, 81, 77
2, 25392, Note_on_c, 0, 78, 77
2, 25437, Note_on_c, 0, 81, 0
2, 25437, Note_on_c, 0, 78, 0
2, 25440, Note_on_c, 0, 81, 77
2, 25440, Note_on_c, 0, 78, 77
2, 25488, Note_on_c, 0, 81, 0
2, 25488, Note_on_c, 0, 78, 0
2, 25488, Note_on_c, 0, 79, 78
2, 25488, Note_on_c, 0, 76, 78
2, 25533, Note_on_c, 0, 79, 0
2, 25533, Note_on_c, 0, 76, 0
2, 25536, Note_on_c, 0, 79, 78
2, 25536, Note_on_c, 0, 76, 78
2, 25584, Note_on_c, 0, 79, 0
2, 25584, Note_on_c, 0, 76, 0
2, 25584, Note_on_c, 0, 78, 79
2, 25584, Note_on_c, 0, 74, 79
2, 25629, Note_on_c, 0, 78, 0
2, 25629, Note_on_c, 0, 74, 0
2, 25632, Note_on_c, 0, 81, 79
2, 25638, Note_on_c, 0, 81, 0
2, 25638, Note_on_c, 0, 79, 95
2, 25656, Note_on_c, 0, 79, 0
2, 25656, Note_on_c, 0, 78, 80
2, 25679, Note_on_c, 0, 78, 0
2, 25680, Note_on_c, 0, 79, 80
2, 25703, Note_on_c, 0, 79, 0
2, 25704, Note_on_c, 0, 81, 80
2, 25727, Note_on_c, 0, 81, 0
2, 25728, Note_on_c, 0, 82, 80
2, 25817, Note_on_c, 0, 82, 0
2, 25920, Note_on_c, 0, 71, 75
2, 25938, Note_on_c, 0, 71, 0
2, 25938, Note_on_c, 0, 74, 75
2, 26009, Note_on_c, 0, 74, 0
2, 26016, Note_on_c, 0, 71, 75
2, 26034, Note_on_c, 0, 71, 0
2, 26034, Note_on_c, 0, 67, 75
2, 26105, Note_on_c, 0, 67, 0
2, 26112, Note_on_c, 0, 69, 75
2, 26130, Note_on_c, 0, 69, 0
2, 26130, Note_on_c, 0, 66, 75
2, 26201, Note_on_c, 0, 66, 0
2, 26208, Note_on_c, 0, 67, 75
2, 26385, Note_on_c, 0, 67, 0
2, 26448, Note_on_c, 0, 60, 80
2, 26468, Note_on_c, 0, 60, 0
2, 26496, Note_on_c, 0, 60, 96
2, 26784, Note_on_c, 0, 60, 0
2, 26784, Note_on_c, 0, 59, 75
2, 26832, Note_on_c, 0, 59, 0
2, 26832, Note_on_c, 0, 60, 74
2, 26877, Note_on_c, 0, 60, 0
2, 26880, Note_on_c, 0, 59, 73
2, 26928, Note_on_c, 0, 59, 0
2, 26928, Note_on_c, 0, 60, 72
2, 26973, Note_on_c, 0, 60, 0
2, 26976, Note_on_c, 0, 62, 71
2, 27024, Note_on_c, 0, 62, 0
2, 27024, Note_on_c, 0, 60, 70
2, 27069, Note_on_c, 0, 60, 0
2, 27072, Note_on_c, 0, 59, 70
2, 27449, Note_on_c, 0, 59, 0
2, 27936, End_track
3, 0, Start_track
3, 0, Program_c, 0, 0
3, 0, Control_c, 0, 7, 127
3, 0, Control_c, 0, 10, 64
3, 1248, Note_on_c, 0, 69, 64
3, 1337, Note_on_c, 0, 69, 0
3, 1920, Note_on_c, 0, 69, 64
3, 2061, Note_on_c, 0, 69, 0
3, 2064, Note_on_c, 0, 67, 64
3, 2109, Note_on_c, 0, 67, 0
3, 2112, Note_on_c, 0, 66, 64
3, 2201, Note_on_c, 0, 66, 0
3, 7008, Note_on_c, 0, 69, 64
3, 7097, Note_on_c, 0, 69, 0
3, 7680, Note_on_c, 0, 69, 64
3, 7821, Note_on_c, 0, 69, 0
3, 7824, Note_on_c, 0, 67, 64
3, 7869, Note_on_c, 0, 67, 0
3, 7872, Note_on_c, 0, 66, 64
3, 7961, Note_on_c, 0, 66, 0
3, 18144, Note_on_c, 0, 76, 64
3, 18321, Note_on_c, 0, 76, 0
3, 25632, Note_on_c, 0, 76, 64
3, 25809, Note_on_c, 0, 76, 0
3, 27936, End_track
4, 0, Start_track
4, 0, Program_c, 1, 0
4, 0, Control_c, 1, 7, 127
4, 0, Control_c, 1, 10, 64
4, 0, Note_on_c, 1, 67, 64
4, 89, Note_on_c, 1, 67, 0
4, 288, Note_on_c, 1, 72, 64
4, 303, Note_on_c, 1, 72, 0
4, 304, Note_on_c, 1, 71, 64
4, 319, Note_on_c, 1, 71, 0
4, 320, Note_on_c, 1, 72, 64
4, 335, Note_on_c, 1, 72, 0
4, 336, Note_on_c, 1, 71, 64
4, 351, Note_on_c, 1, 71, 0
4, 352, Note_on_c, 1, 72, 64
4, 367, Note_on_c, 1, 72, 0
4, 368, Note_on_c, 1, 71, 64
4, 429, Note_on_c, 1, 71, 0
4, 432, Note_on_c, 1, 69, 64
4, 477, Note_on_c, 1, 69, 0
4, 480, Note_on_c, 1, 71, 64
4, 569, Note_on_c, 1, 71, 0
4, 576, Note_on_c, 1, 67, 64
4, 665, Note_on_c, 1, 67, 0
4, 1056, Note_on_c, 1, 67, 64
4, 1145, Note_on_c, 1, 67, 0
4, 1344, Note_on_c, 1, 67, 64
4, 1433, Note_on_c, 1, 67, 0
4, 1632, Note_on_c, 1, 67, 64
4, 1721, Note_on_c, 1, 67, 0
4, 1920, Note_on_c, 1, 62, 64
4, 2105, Note_on_c, 1, 62, 0
4, 2208, Note_on_c, 1, 74, 64
4, 2297, Note_on_c, 1, 74, 0
4, 2496, Note_on_c, 1, 48, 64
4, 2585, Note_on_c, 1, 48, 0
4, 2592, Note_on_c, 1, 50, 64
4, 2681, Note_on_c, 1, 50, 0
4, 2688, Note_on_c, 1, 43, 64
4, 2821, Note_on_c, 1, 43, 0
4, 2880, Note_on_c, 1, 47, 64
4, 2969, Note_on_c, 1, 47, 0
4, 2976, Note_on_c, 1, 43, 64
4, 3065, Note_on_c, 1, 43, 0
4, 3168, Note_on_c, 1, 43, 64
4, 3216, Note_on_c, 1, 43, 0
4, 3216, Note_on_c, 1, 47, 64
4, 3261, Note_on_c, 1, 47, 0
4, 3264, Note_on_c, 1, 45, 64
4, 3312, Note_on_c, 1, 45, 0
4, 3312, Note_on_c, 1, 42, 64
4, 3357, Note_on_c, 1, 42, 0
4, 3360, Note_on_c, 1, 43, 64
4, 3408, Note_on_c, 1, 43, 0
4, 3408, Note_on_c, 1, 40, 64
4, 3453, Note_on_c, 1, 40, 0
4, 3456, Note_on_c, 1, 38, 64
4, 3643, Note_on_c, 1, 38, 0
4, 3744, Note_on_c, 1, 37, 64
4, 3833, Note_on_c, 1, 37, 0
4, 3840, Note_on_c, 1, 37, 64
4, 3929, Note_on_c, 1, 37, 0
4, 3936, Note_on_c, 1, 37, 64
4, 4025, Note_on_c, 1, 37, 0
4, 4032, Note_on_c, 1, 38, 64
4, 4121, Note_on_c, 1, 38, 0
4, 4128, Note_on_c, 1, 50, 64
4, 4128, Note_on_c, 1, 38, 64
4, 4217, Note_on_c, 1, 50, 0
4, 4217, Note_on_c, 1, 38, 0
4, 4224, Note_on_c, 1, 50, 64
4, 4224, Note_on_c, 1, 38, 64
4, 4313, Note_on_c, 1, 50, 0
4, 4313, Note_on_c, 1, 38, 0
4, 4320, Note_on_c, 1, 49, 64
4, 4320, Note_on_c, 1, 37, 64
4, 4409, Note_on_c, 1, 49, 0
4, 4409, Note_on_c, 1, 37, 0
4, 4416, Note_on_c, 1, 49, 75
4, 4416, Note_on_c, 1, 37, 75
4, 4505, Note_on_c, 1, 49, 0
4, 4505, Note_on_c, 1, 37, 0
4, 4512, Note_on_c, 1, 49, 76
4, 4512, Note_on_c, 1, 37, 76
4, 4601, Note_on_c, 1, 49, 0
4, 4601, Note_on_c, 1, 37, 0
4, 4608, Note_on_c, 1, 50, 77
4, 4608, Note_on_c, 1, 38, 77
4, 4697, Note_on_c, 1, 50, 0
4, 4697, Note_on_c, 1, 38, 0
4, 4704, Note_on_c, 1, 50, 78
4, 4704, Note_on_c, 1, 38, 78
4, 4793, Note_on_c, 1, 50, 0
4, 4793, Note_on_c, 1, 38, 0
4, 4800, Note_on_c, 1, 50, 79
4, 4800, Note_on_c, 1, 38, 79
4, 4889, Note_on_c, 1, 50, 0
4, 4889, Note_on_c, 1, 38, 0
4, 4896, Note_on_c, 1, 65, 80
4, 4896, Note_on_c, 1, 62, 80
4, 4896, Note_on_c, 1, 56, 80
4, 4896, Note_on_c, 1, 44, 80
4, 5081, Note_on_c, 1, 65, 0
4, 5081, Note_on_c, 1, 62, 0
4, 5081, Note_on_c, 1, 56, 0
4, 5081, Note_on_c, 1, 44, 0
4, 5280, Note_on_c, 1, 50, 64
4, 5319, Note_on_c, 1, 50, 0
4, 5376, Note_on_c, 1, 57, 64
4, 5415, Note_on_c, 1, 57, 0
4, 5472, Note_on_c, 1, 62, 58
4, 5649, Note_on_c, 1, 62, 0
4, 5760, Note_on_c, 1, 67, 64
4, 5849, Note_on_c, 1, 67, 0
4, 6048, Note_on_c, 1, 72, 64
4, 6063, Note_on_c, 1, 72, 0
4, 6064, Note_on_c, 1, 71, 64
4, 6079, Note_on_c, 1, 71, 0
4, 6080, Note_on_c, 1, 72, 64
4, 6095, Note_on_c, 1, 72, 0
4, 6096, Note_on_c, 1, 71, 64
4, 6111, Note_on_c, 1, 71, 0
4, 6112, Note_on_c, 1, 72, 64
4, 6127, Note_on_c, 1, 72, 0
4, 6128, Note_on_c, 1, 71, 64
4, 6189, Note_on_c, 1, 71, 0
4, 6192, Note_on_c, 1, 69, 64
4, 6237, Note_on_c, 1, 69, 0
4, 6240, Note_on_c, 1, 71, 64
4, 6329, Note_on_c, 1, 71, 0
4, 6336, Note_on_c, 1, 67, 64
4, 6425, Note_on_c, 1, 67, 0
4, 6816, Note_on_c, 1, 67, 64
4, 6905, Note_on_c, 1, 67, 0
4, 7104, Note_on_c, 1, 67, 64
4, 7193, Note_on_c, 1, 67, 0
4, 7392, Note_on_c, 1, 67, 64
4, 7481, Note_on_c, 1, 67, 0
4, 7680, Note_on_c, 1, 62, 64
4, 7865, Note_on_c, 1, 62, 0
4, 7968, Note_on_c, 1, 74, 64
4, 8057, Note_on_c, 1, 74, 0
4, 8256, Note_on_c, 1, 48, 64
4, 8345, Note_on_c, 1, 48, 0
4, 8352, Note_on_c, 1, 50, 64
4, 8441, Note_on_c, 1, 50, 0
4, 8448, Note_on_c, 1, 43, 64
4, 8581, Note_on_c, 1, 43, 0
4, 8640, Note_on_c, 1, 47, 64
4, 8729, Note_on_c, 1, 47, 0
4, 8736, Note_on_c, 1, 43, 64
4, 8825, Note_on_c, 1, 43, 0
4, 8928, Note_on_c, 1, 43, 64
4, 8976, Note_on_c, 1, 43, 0
4, 8976, Note_on_c, 1, 47, 64
4, 9021, Note_on_c, 1, 47, 0
4, 9024, Note_on_c, 1, 45, 64
4, 9072, Note_on_c, 1, 45, 0
4, 9072, Note_on_c, 1, 42, 64
4, 9117, Note_on_c, 1, 42, 0
4, 9120, Note_on_c, 1, 43, 64
4, 9168, Note_on_c, 1, 43, 0
4, 9168, Note_on_c, 1, 40, 64
4, 9213, Note_on_c, 1, 40, 0
4, 9216, Note_on_c, 1, 38, 64
4, 9403, Note_on_c, 1, 38, 0
4, 9504, Note_on_c, 1, 37, 64
4, 9593, Note_on_c, 1, 37, 0
4, 9600, Note_on_c, 1, 37, 64
4, 9689, Note_on_c, 1, 37, 0
4, 9696, Note_on_c, 1, 37, 64
4, 9785, Note_on_c, 1, 37, 0
4, 9792, Note_on_c, 1, 38, 64
4, 9881, Note_on_c, 1, 38, 0
4, 9888, Note_on_c, 1, 50, 64
4, 9888, Note_on_c, 1, 38, 64
4, 9977, Note_on_c, 1, 50, 0
4, 9977, Note_on_c, 1, 38, 0
4, 9984, Note_on_c, 1, 50, 64
4, 9984, Note_on_c, 1, 38, 64
4, 10073, Note_on_c, 1, 50, 0
4, 10073, Note_on_c, 1, 38, 0
4, 10080, Note_on_c, 1, 49, 64
4, 10080, Note_on_c, 1, 37, 64
4, 10169, Note_on_c, 1, 49, 0
4, 10169, Note_on_c, 1, 37, 0
4, 10176, Note_on_c, 1, 49, 75
4, 10176, Note_on_c, 1, 37, 75
4, 10265, Note_on_c, 1, 49, 0
4, 10265, Note_on_c, 1, 37, 0
4, 10272, Note_on_c, 1, 49, 76
4, 10272, Note_on_c, 1, 37, 76
4, 10361, Note_on_c, 1, 49, 0
4, 10361, Note_on_c, 1, 37, 0
4, 10368, Note_on_c, 1, 50, 77
4, 10368, Note_on_c, 1, 38, 77
4, 10457, Note_on_c, 1, 50, 0
4, 10457, Note_on_c, 1, 38, 0
4, 10464, Note_on_c, 1, 50, 78
4, 10464, Note_on_c, 1, 38, 78
4, 10553, Note_on_c, 1, 50, 0
4, 10553, Note_on_c, 1, 38, 0
4, 10560, Note_on_c, 1, 50, 79
4, 10560, Note_on_c, 1, 38, 79
4, 10649, Note_on_c, 1, 50, 0
4, 10649, Note_on_c, 1, 38, 0
4, 10656, Note_on_c, 1, 65, 80
4, 10656, Note_on_c, 1, 62, 80
4, 10656, Note_on_c, 1, 56, 80
4, 10656, Note_on_c, 1, 44, 80
4, 10841, Note_on_c, 1, 65, 0
4, 10841, Note_on_c, 1, 62, 0
4, 10841, Note_on_c, 1, 56, 0
4, 10841, Note_on_c, 1, 44, 0
4, 11040, Note_on_c, 1, 50, 64
4, 11079, Note_on_c, 1, 50, 0
4, 11136, Note_on_c, 1, 57, 64
4, 11175, Note_on_c, 1, 57, 0
4, 11232, Note_on_c, 1, 62, 58
4, 11409, Note_on_c, 1, 62, 0
4, 11520, Note_on_c, 1, 52, 64
4, 11520, Note_on_c, 1, 45, 64
4, 12073, Note_on_c, 1, 52, 0
4, 12073, Note_on_c, 1, 45, 0
4, 12096, Note_on_c, 1, 51, 64
4, 12096, Note_on_c, 1, 45, 64
4, 12361, Note_on_c, 1, 51, 0
4, 12361, Note_on_c, 1, 45, 0
4, 12672, Note_on_c, 1, 60, 64
4, 12761, Note_on_c, 1, 60, 0
4, 12960, Note_on_c, 1, 57, 64
4, 13049, Note_on_c, 1, 57, 0
4, 13248, Note_on_c, 1, 77, 75
4, 13278, Note_on_c, 1, 77, 0
4, 13280, Note_on_c, 1, 76, 75
4, 13310, Note_on_c, 1, 76, 0
4, 13312, Note_on_c, 1, 74, 75
4, 13342, Note_on_c, 1, 74, 0
4, 13344, Note_on_c, 1, 72, 75
4, 13374, Note_on_c, 1, 72, 0
4, 13376, Note_on_c, 1, 71, 75
4, 13406, Note_on_c, 1, 71, 0
4, 13408, Note_on_c, 1, 69, 75
4, 13438, Note_on_c, 1, 69, 0
4, 13440, Note_on_c, 1, 68, 75
4, 13470, Note_on_c, 1, 68, 0
4, 13472, Note_on_c, 1, 69, 75
4, 13502, Note_on_c, 1, 69, 0
4, 13504, Note_on_c, 1, 71, 75
4, 13534, Note_on_c, 1, 71, 0
4, 13632, Note_on_c, 1, 52, 64
4, 13632, Note_on_c, 1, 40, 64
4, 13721, Note_on_c, 1, 52, 0
4, 13721, Note_on_c, 1, 40, 0
4, 13824, Note_on_c, 1, 52, 64
4, 13824, Note_on_c, 1, 40, 64
4, 13913, Note_on_c, 1, 52, 0
4, 13913, Note_on_c, 1, 40, 0
4, 13920, Note_on_c, 1, 52, 64
4, 13920, Note_on_c, 1, 40, 64
4, 14009, Note_on_c, 1, 52, 0
4, 14009, Note_on_c, 1, 40, 0
4, 14112, Note_on_c, 1, 52, 64
4, 14112, Note_on_c, 1, 40, 64
4, 14201, Note_on_c, 1, 52, 0
4, 14201, Note_on_c, 1, 40, 0
4, 14208, Note_on_c, 1, 52, 64
4, 14208, Note_on_c, 1, 40, 64
4, 14297, Note_on_c, 1, 52, 0
4, 14297, Note_on_c, 1, 40, 0
4, 14400, Note_on_c, 1, 57, 64
4, 14400, Note_on_c, 1, 45, 64
4, 14577, Note_on_c, 1, 57, 0
4, 14577, Note_on_c, 1, 45, 0
4, 14688, Note_on_c, 1, 67, 64
4, 14784, Note_on_c, 1, 67, 0
4, 14784, Note_on_c, 1, 65, 64
4, 14873, Note_on_c, 1, 65, 0
4, 14976, Note_on_c, 1, 68, 70
4, 15153, Note_on_c, 1, 68, 0
4, 15264, Note_on_c, 1, 71, 70
4, 15360, Note_on_c, 1, 71, 0
4, 15360, Note_on_c, 1, 68, 70
4, 15449, Note_on_c, 1, 68, 0
4, 15552, Note_on_c, 1, 80, 58
4, 15729, Note_on_c, 1, 80, 0
4, 15840, Note_on_c, 1, 79, 58
4, 15936, Note_on_c, 1, 79, 0
4, 15936, Note_on_c, 1, 78, 58
4, 16025, Note_on_c, 1, 78, 0
4, 16128, Note_on_c, 1, 57, 80
4, 16128, Note_on_c, 1, 54, 80
4, 16128, Note_on_c, 1, 50, 80
4, 16969, Note_on_c, 1, 57, 0
4, 16969, Note_on_c, 1, 54, 0
4, 16969, Note_on_c, 1, 50, 0
4, 17280, Note_on_c, 1, 50, 75
4, 17280, Note_on_c, 1, 38, 75
4, 17369, Note_on_c, 1, 50, 0
4, 17369, Note_on_c, 1, 38, 0
4, 17376, Note_on_c, 1, 50, 75
4, 17376, Note_on_c, 1, 38, 75
4, 17465, Note_on_c, 1, 50, 0
4, 17465, Note_on_c, 1, 38, 0
4, 17472, Note_on_c, 1, 50, 75
4, 17472, Note_on_c, 1, 38, 75
4, 17561, Note_on_c, 1, 50, 0
4, 17561, Note_on_c, 1, 38, 0
4, 17568, Note_on_c, 1, 50, 75
4, 17568, Note_on_c, 1, 38, 75
4, 17657, Note_on_c, 1, 50, 0
4, 17657, Note_on_c, 1, 38, 0
4, 17664, Note_on_c, 1, 50, 75
4, 17664, Note_on_c, 1, 38, 75
4, 17753, Note_on_c, 1, 50, 0
4, 17753, Note_on_c, 1, 38, 0
4, 17760, Note_on_c, 1, 50, 76
4, 17760, Note_on_c, 1, 38, 76
4, 17849, Note_on_c, 1, 50, 0
4, 17849, Note_on_c, 1, 38, 0
4, 17856, Note_on_c, 1, 50, 77
4, 17856, Note_on_c, 1, 38, 77
4, 17945, Note_on_c, 1, 50, 0
4, 17945, Note_on_c, 1, 38, 0
4, 17952, Note_on_c, 1, 50, 78
4, 17952, Note_on_c, 1, 38, 78
4, 18041, Note_on_c, 1, 50, 0
4, 18041, Note_on_c, 1, 38, 0
4, 18048, Note_on_c, 1, 50, 79
4, 18048, Note_on_c, 1, 38, 79
4, 18137, Note_on_c, 1, 50, 0
4, 18137, Note_on_c, 1, 38, 0
4, 18144, Note_on_c, 1, 49, 80
4, 18144, Note_on_c, 1, 37, 80
4, 18321, Note_on_c, 1, 49, 0
4, 18321, Note_on_c, 1, 37, 0
4, 18528, Note_on_c, 1, 62, 64
4, 18567, Note_on_c, 1, 62, 0
4, 18624, Note_on_c, 1, 62, 64
4, 18663, Note_on_c, 1, 62, 0
4, 18720, Note_on_c, 1, 59, 58
4, 18897, Note_on_c, 1, 59, 0
4, 19008, Note_on_c, 1, 52, 64
4, 19008, Note_on_c, 1, 45, 64
4, 19561, Note_on_c, 1, 52, 0
4, 19561, Note_on_c, 1, 45, 0
4, 19584, Note_on_c, 1, 51, 64
4, 19584, Note_on_c, 1, 45, 64
4, 19849, Note_on_c, 1, 51, 0
4, 19849, Note_on_c, 1, 45, 0
4, 20160, Note_on_c, 1, 60, 64
4, 20249, Note_on_c, 1, 60, 0
4, 20448, Note_on_c, 1, 57, 64
4, 20537, Note_on_c, 1, 57, 0
4, 20736, Note_on_c, 1, 77, 75
4, 20766, Note_on_c, 1, 77, 0
4, 20768, Note_on_c, 1, 76, 75
4, 20798, Note_on_c, 1, 76, 0
4, 20800, Note_on_c, 1, 74, 75
4, 20830, Note_on_c, 1, 74, 0
4, 20832, Note_on_c, 1, 72, 75
4, 20862, Note_on_c, 1, 72, 0
4, 20864, Note_on_c, 1, 71, 75
4, 20894, Note_on_c, 1, 71, 0
4, 20896, Note_on_c, 1, 69, 75
4, 20926, Note_on_c, 1, 69, 0
4, 20928, Note_on_c, 1, 68, 75
4, 20958, Note_on_c, 1, 68, 0
4, 20960, Note_on_c, 1, 69, 75
4, 20990, Note_on_c, 1, 69, 0
4, 20992, Note_on_c, 1, 71, 75
4, 21022, Note_on_c, 1, 71, 0
4, 21120, Note_on_c, 1, 52, 64
4, 21120, Note_on_c, 1, 40, 64
4, 21209, Note_on_c, 1, 52, 0
4, 21209, Note_on_c, 1, 40, 0
4, 21312, Note_on_c, 1, 52, 64
4, 21312, Note_on_c, 1, 40, 64
4, 21401, Note_on_c, 1, 52, 0
4, 21401, Note_on_c, 1, 40, 0
4, 21408, Note_on_c, 1, 52, 64
4, 21408, Note_on_c, 1, 40, 64
4, 21497, Note_on_c, 1, 52, 0
4, 21497, Note_on_c, 1, 40, 0
4, 21600, Note_on_c, 1, 52, 64
4, 21600, Note_on_c, 1, 40, 64
4, 21689, Note_on_c, 1, 52, 0
4, 21689, Note_on_c, 1, 40, 0
4, 21696, Note_on_c, 1, 52, 64
4, 21696, Note_on_c, 1, 40, 64
4, 21785, Note_on_c, 1, 52, 0
4, 21785, Note_on_c, 1, 40, 0
4, 21888, Note_on_c, 1, 57, 64
4, 21888, Note_on_c, 1, 45, 64
4, 22065, Note_on_c, 1, 57, 0
4, 22065, Note_on_c, 1, 45, 0
4, 22176, Note_on_c, 1, 67, 64
4, 22272, Note_on_c, 1, 67, 0
4, 22272, Note_on_c, 1, 65, 64
4, 22361, Note_on_c, 1, 65, 0
4, 22464, Note_on_c, 1, 68, 70
4, 22641, Note_on_c, 1, 68, 0
4, 22752, Note_on_c, 1, 71, 70
4, 22848, Note_on_c, 1, 71, 0
4, 22848, Note_on_c, 1, 68, 70
4, 22937, Note_on_c, 1, 68, 0
4, 23040, Note_on_c, 1, 80, 58
4, 23217, Note_on_c, 1, 80, 0
4, 23328, Note_on_c, 1, 79, 58
4, 23424, Note_on_c, 1, 79, 0
4, 23424, Note_on_c, 1, 78, 58
4, 23513, Note_on_c, 1, 78, 0
4, 23616, Note_on_c, 1, 57, 80
4, 23616, Note_on_c, 1, 54, 80
4, 23616, Note_on_c, 1, 50, 80
4, 24457, Note_on_c, 1, 57, 0
4, 24457, Note_on_c, 1, 54, 0
4, 24457, Note_on_c, 1, 50, 0
4, 24768, Note_on_c, 1, 50, 75
4, 24768, Note_on_c, 1, 38, 75
4, 24857, Note_on_c, 1, 50, 0
4, 24857, Note_on_c, 1, 38, 0
4, 24864, Note_on_c, 1, 50, 75
4, 24864, Note_on_c, 1, 38, 75
4, 24953, Note_on_c, 1, 50, 0
4, 24953, Note_on_c, 1, 38, 0
4, 24960, Note_on_c, 1, 50, 75
4, 24960, Note_on_c, 1, 38, 75
4, 25049, Note_on_c, 1, 50, 0
4, 25049, Note_on_c, 1, 38, 0
4, 25056, Note_on_c, 1, 50, 75
4, 25056, Note_on_c, 1, 38, 75
4, 25145, Note_on_c, 1, 50, 0
4, 25145, Note_on_c, 1, 38, 0
4, 25152, Note_on_c, 1, 50, 75
4, 25152, Note_on_c, 1, 38, 75
4, 25241, Note_on_c, 1, 50, 0
4, 25241, Note_on_c, 1, 38, 0
4, 25248, Note_on_c, 1, 50, 76
4, 25248, Note_on_c, 1, 38, 76
4, 25337, Note_on_c, 1, 50, 0
4, 25337, Note_on_c, 1, 38, 0
4, 25344, Note_on_c, 1, 50, 77
4, 25344, Note_on_c, 1, 38, 77
4, 25433, Note_on_c, 1, 50, 0
4, 25433, Note_on_c, 1, 38, 0
4, 25440, Note_on_c, 1, 50, 78
4, 25440, Note_on_c, 1, 38, 78
4, 25529, Note_on_c, 1, 50, 0
4, 25529, Note_on_c, 1, 38, 0
4, 25536, Note_on_c, 1, 50, 79
4, 25536, Note_on_c, 1, 38, 79
4, 25625, Note_on_c, 1, 50, 0
4, 25625, Note_on_c, 1, 38, 0
4, 25632, Note_on_c, 1, 49, 80
4, 25632, Note_on_c, 1, 37, 80
4, 25809, Note_on_c, 1, 49, 0
4, 25809, Note_on_c, 1, 37, 0
4, 26016, Note_on_c, 1, 62, 64
4, 26055, Note_on_c, 1, 62, 0
4, 26112, Note_on_c, 1, 62, 64
4, 26151, Note_on_c, 1, 62, 0
4, 26208, Note_on_c, 1, 59, 64
4, 26385, Note_on_c, 1, 59, 0
4, 26496, Note_on_c, 1, 54, 80
4, 26496, Note_on_c, 1, 50, 80
4, 26496, Note_on_c, 1, 45, 80
4, 27049, Note_on_c, 1, 54, 0
4, 27049, Note_on_c, 1, 50, 0
4, 27049, Note_on_c, 1, 45, 0
4, 27072, Note_on_c, 1, 55, 70
4, 27072, Note_on_c, 1, 50, 70
4, 27072, Note_on_c, 1, 43, 70
4, 27449, Note_on_c, 1, 55, 0
4, 27449, Note_on_c, 1, 50, 0
4, 27449, Note_on_c, 1, 43, 0
4, 27552, Note_on_c, 1, 50, 64
4, 27552, Note_on_c, 1, 47, 64
4, 27591, Note_on_c, 1, 50, 0
4, 27591, Note_on_c, 1, 47, 0
4, 27744, Note_on_c, 1, 47, 64
4, 27744, Note_on_c, 1, 43, 64
4, 27783, Note_on_c, 1, 47, 0
4, 27783, Note_on_c, 1, 43, 0
4, 27936, Note_on_c, 1, 43, 0
4, 28025, Note_on_c, 1, 43, 0
4, 28032, End_track
5, 0, Start_track
5, 0, Program_c, 1, 0
5, 0, Control_c, 1, 7, 127
5, 0, Control_c, 1, 10, 64
5, 27936, End_track
6, 0, Start_track
6, 0, Title_t, "Sonata I   Haydn  "
6, 0, End_track
0, 0, End_of_file
