0, 0, Header, 1, 6, 96
1, 0, Start_track
1, 0, Copyright_t, "Copyright  2000 <copyright holder>"
1, 0, Text_t, "Sonata I\015\012"
1, 0, Text_t, "Haydn\015\012"
1, 0, Sequencer_specific, 16, 68, 87, 77, 90, 86, 82, 83, 78, 32, 55, 46, 49, 46, 50, 46, 48
1, 0, Time_signature, 2, 2, 24, 8
1, 0, Tempo, 400000
1, 0, Key_signature, 0, "major"
1, 23472, Tempo, 2000000
1, 23520, Tempo, 400000
1, 29184, Key_signature, -3, "major"
1, 39024, Tempo, 2000000
1, 39072, Tempo, 400000
1, 39168, Key_signature, 0, "major"
1, 56640, End_track
2, 0, Start_track
2, 0, Program_c, 0, 0
2, 0, Control_c, 0, 7, 127
2, 0, Control_c, 0, 10, 64
2, 96, Note_on_c, 0, 79, 64
2, 116, Note_on_c, 0, 79, 0
2, 144, Note_on_c, 0, 79, 64
2, 164, Note_on_c, 0, 79, 0
2, 192, Note_on_c, 0, 81, 64
2, 215, Note_on_c, 0, 81, 0
2, 216, Note_on_c, 0, 79, 64
2, 239, Note_on_c, 0, 79, 0
2, 240, Note_on_c, 0, 77, 64
2, 263, Note_on_c, 0, 77, 0
2, 264, Note_on_c, 0, 76, 64
2, 287, Note_on_c, 0, 76, 0
2, 288, Note_on_c, 0, 76, 64
2, 311, Note_on_c, 0, 76, 0
2, 312, Note_on_c, 0, 74, 64
2, 335, Note_on_c, 0, 74, 0
2, 336, Note_on_c, 0, 72, 64
2, 359, Note_on_c, 0, 72, 0
2, 360, Note_on_c, 0, 71, 64
2, 383, Note_on_c, 0, 71, 0
2, 384, Note_on_c, 0, 72, 64
2, 432, Note_on_c, 0, 72, 0
2, 432, Note_on_c, 0, 67, 64
2, 477, Note_on_c, 0, 67, 0
2, 480, Note_on_c, 0, 72, 64
2, 528, Note_on_c, 0, 72, 0
2, 528, Note_on_c, 0, 73, 64
2, 548, Note_on_c, 0, 73, 0
2, 576, Note_on_c, 0, 74, 64
2, 624, Note_on_c, 0, 74, 0
2, 624, Note_on_c, 0, 67, 64
2, 669, Note_on_c, 0, 67, 0
2, 672, Note_on_c, 0, 74, 64
2, 720, Note_on_c, 0, 74, 0
2, 720, Note_on_c, 0, 75, 64
2, 740, Note_on_c, 0, 75, 0
2, 768, Note_on_c, 0, 76, 64
2, 816, Note_on_c, 0, 76, 0
2, 816, Note_on_c, 0, 72, 64
2, 861, Note_on_c, 0, 72, 0
2, 864, Note_on_c, 0, 76, 75
2, 884, Note_on_c, 0, 76, 0
2, 912, Note_on_c, 0, 77, 76
2, 932, Note_on_c, 0, 77, 0
2, 960, Note_on_c, 0, 78, 77
2, 983, Note_on_c, 0, 78, 0
2, 984, Note_on_c, 0, 79, 78
2, 1007, Note_on_c, 0, 79, 0
2, 1008, Note_on_c, 0, 81, 78
2, 1031, Note_on_c, 0, 81, 0
2, 1032, Note_on_c, 0, 79, 79
2, 1055, Note_on_c, 0, 79, 0
2, 1056, Note_on_c, 0, 77, 80
2, 1076, Note_on_c, 0, 77, 0
2, 1104, Note_on_c, 0, 76, 78
2, 1124, Note_on_c, 0, 76, 0
2, 1152, Note_on_c, 0, 74, 76
2, 1197, Note_on_c, 0, 74, 0
2, 1248, Note_on_c, 0, 79, 75
2, 1268, Note_on_c, 0, 79, 0
2, 1296, Note_on_c, 0, 79, 75
2, 1316, Note_on_c, 0, 79, 0
2, 1344, Note_on_c, 0, 81, 75
2, 1367, Note_on_c, 0, 81, 0
2, 1368, Note_on_c, 0, 79, 75
2, 1391, Note_on_c, 0, 79, 0
2, 1392, Note_on_c, 0, 77, 75
2, 1415, Note_on_c, 0, 77, 0
2, 1416, Note_on_c, 0, 76, 75
2, 1439, Note_on_c, 0, 76, 0
2, 1440, Note_on_c, 0, 76, 75
2, 1463, Note_on_c, 0, 76, 0
2, 1464, Note_on_c, 0, 74, 75
2, 1487, Note_on_c, 0, 74, 0
2, 1488, Note_on_c, 0, 72, 75
2, 1511, Note_on_c, 0, 72, 0
2, 1512, Note_on_c, 0, 71, 75
2, 1535, Note_on_c, 0, 71, 0
2, 1536, Note_on_c, 0, 72, 75
2, 1584, Note_on_c, 0, 72, 0
2, 1584, Note_on_c, 0, 67, 75
2, 1629, Note_on_c, 0, 67, 0
2, 1632, Note_on_c, 0, 79, 75
2, 1680, Note_on_c, 0, 79, 0
2, 1680, Note_on_c, 0, 73, 76
2, 1700, Note_on_c, 0, 73, 0
2, 1728, Note_on_c, 0, 74, 76
2, 1776, Note_on_c, 0, 74, 0
2, 1776, Note_on_c, 0, 67, 77
2, 1821, Note_on_c, 0, 67, 0
2, 1824, Note_on_c, 0, 79, 77
2, 1872, Note_on_c, 0, 79, 0
2, 1872, Note_on_c, 0, 75, 78
2, 1892, Note_on_c, 0, 75, 0
2, 1920, Note_on_c, 0, 76, 78
2, 1968, Note_on_c, 0, 76, 0
2, 1968, Note_on_c, 0, 72, 79
2, 2013, Note_on_c, 0, 72, 0
2, 2016, Note_on_c, 0, 84, 80
2, 2016, Note_on_c, 0, 76, 80
2, 2036, Note_on_c, 0, 84, 0
2, 2036, Note_on_c, 0, 76, 0
2, 2064, Note_on_c, 0, 83, 80
2, 2064, Note_on_c, 0, 74, 80
2, 2084, Note_on_c, 0, 83, 0
2, 2084, Note_on_c, 0, 74, 0
2, 2112, Note_on_c, 0, 82, 80
2, 2112, Note_on_c, 0, 73, 80
2, 2132, Note_on_c, 0, 82, 0
2, 2132, Note_on_c, 0, 73, 0
2, 2160, Note_on_c, 0, 81, 80
2, 2160, Note_on_c, 0, 72, 80
2, 2180, Note_on_c, 0, 81, 0
2, 2180, Note_on_c, 0, 72, 0
2, 2208, Note_on_c, 0, 79, 80
2, 2208, Note_on_c, 0, 71, 80
2, 2228, Note_on_c, 0, 79, 0
2, 2228, Note_on_c, 0, 71, 0
2, 2256, Note_on_c, 0, 78, 80
2, 2256, Note_on_c, 0, 69, 80
2, 2276, Note_on_c, 0, 78, 0
2, 2276, Note_on_c, 0, 69, 0
2, 2304, Note_on_c, 0, 79, 80
2, 2304, Note_on_c, 0, 67, 80
2, 2393, Note_on_c, 0, 79, 0
2, 2393, Note_on_c, 0, 67, 0
2, 2400, Note_on_c, 0, 79, 64
2, 2420, Note_on_c, 0, 79, 0
2, 2448, Note_on_c, 0, 79, 64
2, 2468, Note_on_c, 0, 79, 0
2, 2496, Note_on_c, 0, 81, 64
2, 2519, Note_on_c, 0, 81, 0
2, 2520, Note_on_c, 0, 79, 64
2, 2543, Note_on_c, 0, 79, 0
2, 2544, Note_on_c, 0, 77, 64
2, 2567, Note_on_c, 0, 77, 0
2, 2568, Note_on_c, 0, 76, 64
2, 2591, Note_on_c, 0, 76, 0
2, 2592, Note_on_c, 0, 76, 64
2, 2615, Note_on_c, 0, 76, 0
2, 2616, Note_on_c, 0, 74, 64
2, 2639, Note_on_c, 0, 74, 0
2, 2640, Note_on_c, 0, 72, 64
2, 2663, Note_on_c, 0, 72, 0
2, 2664, Note_on_c, 0, 71, 64
2, 2687, Note_on_c, 0, 71, 0
2, 2688, Note_on_c, 0, 72, 64
2, 2736, Note_on_c, 0, 72, 0
2, 2736, Note_on_c, 0, 67, 64
2, 2781, Note_on_c, 0, 67, 0
2, 2784, Note_on_c, 0, 72, 64
2, 2832, Note_on_c, 0, 72, 0
2, 2832, Note_on_c, 0, 73, 64
2, 2852, Note_on_c, 0, 73, 0
2, 2880, Note_on_c, 0, 74, 64
2, 2928, Note_on_c, 0, 74, 0
2, 2928, Note_on_c, 0, 67, 64
2, 2973, Note_on_c, 0, 67, 0
2, 2976, Note_on_c, 0, 74, 64
2, 3024, Note_on_c, 0, 74, 0
2, 3024, Note_on_c, 0, 75, 64
2, 3044, Note_on_c, 0, 75, 0
2, 3072, Note_on_c, 0, 76, 64
2, 3120, Note_on_c, 0, 76, 0
2, 3120, Note_on_c, 0, 72, 64
2, 3165, Note_on_c, 0, 72, 0
2, 3168, Note_on_c, 0, 76, 75
2, 3188, Note_on_c, 0, 76, 0
2, 3216, Note_on_c, 0, 77, 76
2, 3236, Note_on_c, 0, 77, 0
2, 3264, Note_on_c, 0, 78, 77
2, 3287, Note_on_c, 0, 78, 0
2, 3288, Note_on_c, 0, 79, 78
2, 3311, Note_on_c, 0, 79, 0
2, 3312, Note_on_c, 0, 81, 78
2, 3335, Note_on_c, 0, 81, 0
2, 3336, Note_on_c, 0, 79, 79
2, 3359, Note_on_c, 0, 79, 0
2, 3360, Note_on_c, 0, 77, 80
2, 3380, Note_on_c, 0, 77, 0
2, 3408, Note_on_c, 0, 76, 78
2, 3428, Note_on_c, 0, 76, 0
2, 3456, Note_on_c, 0, 74, 76
2, 3501, Note_on_c, 0, 74, 0
2, 3552, Note_on_c, 0, 79, 75
2, 3572, Note_on_c, 0, 79, 0
2, 3600, Note_on_c, 0, 79, 75
2, 3620, Note_on_c, 0, 79, 0
2, 3648, Note_on_c, 0, 81, 75
2, 3671, Note_on_c, 0, 81, 0
2, 3672, Note_on_c, 0, 79, 75
2, 3695, Note_on_c, 0, 79, 0
2, 3696, Note_on_c, 0, 77, 75
2, 3719, Note_on_c, 0, 77, 0
2, 3720, Note_on_c, 0, 76, 75
2, 3743, Note_on_c, 0, 76, 0
2, 3744, Note_on_c, 0, 76, 75
2, 3767, Note_on_c, 0, 76, 0
2, 3768, Note_on_c, 0, 74, 75
2, 3791, Note_on_c, 0, 74, 0
2, 3792, Note_on_c, 0, 72, 75
2, 3815, Note_on_c, 0, 72, 0
2, 3816, Note_on_c, 0, 71, 75
2, 3839, Note_on_c, 0, 71, 0
2, 3840, Note_on_c, 0, 72, 75
2, 3888, Note_on_c, 0, 72, 0
2, 3888, Note_on_c, 0, 67, 75
2, 3933, Note_on_c, 0, 67, 0
2, 3936, Note_on_c, 0, 79, 75
2, 3984, Note_on_c, 0, 79, 0
2, 3984, Note_on_c, 0, 73, 76
2, 4004, Note_on_c, 0, 73, 0
2, 4032, Note_on_c, 0, 74, 76
2, 4080, Note_on_c, 0, 74, 0
2, 4080, Note_on_c, 0, 67, 77
2, 4125, Note_on_c, 0, 67, 0
2, 4128, Note_on_c, 0, 79, 77
2, 4176, Note_on_c, 0, 79, 0
2, 4176, Note_on_c, 0, 75, 78
2, 4196, Note_on_c, 0, 75, 0
2, 4224, Note_on_c, 0, 76, 78
2, 4272, Note_on_c, 0, 76, 0
2, 4272, Note_on_c, 0, 72, 79
2, 4317, Note_on_c, 0, 72, 0
2, 4320, Note_on_c, 0, 84, 80
2, 4320, Note_on_c, 0, 76, 80
2, 4340, Note_on_c, 0, 84, 0
2, 4340, Note_on_c, 0, 76, 0
2, 4368, Note_on_c, 0, 83, 80
2, 4368, Note_on_c, 0, 74, 80
2, 4388, Note_on_c, 0, 83, 0
2, 4388, Note_on_c, 0, 74, 0
2, 4416, Note_on_c, 0, 82, 80
2, 4416, Note_on_c, 0, 73, 80
2, 4436, Note_on_c, 0, 82, 0
2, 4436, Note_on_c, 0, 73, 0
2, 4464, Note_on_c, 0, 81, 80
2, 4464, Note_on_c, 0, 72, 80
2, 4484, Note_on_c, 0, 81, 0
2, 4484, Note_on_c, 0, 72, 0
2, 4512, Note_on_c, 0, 79, 80
2, 4512, Note_on_c, 0, 71, 80
2, 4532, Note_on_c, 0, 79, 0
2, 4532, Note_on_c, 0, 71, 0
2, 4560, Note_on_c, 0, 78, 80
2, 4560, Note_on_c, 0, 69, 80
2, 4580, Note_on_c, 0, 78, 0
2, 4580, Note_on_c, 0, 69, 0
2, 4608, Note_on_c, 0, 79, 80
2, 4608, Note_on_c, 0, 67, 80
2, 4697, Note_on_c, 0, 79, 0
2, 4697, Note_on_c, 0, 67, 0
2, 4896, Note_on_c, 0, 77, 75
2, 4896, Note_on_c, 0, 74, 75
2, 4916, Note_on_c, 0, 77, 0
2, 4916, Note_on_c, 0, 74, 0
2, 4944, Note_on_c, 0, 76, 75
2, 4944, Note_on_c, 0, 72, 75
2, 4964, Note_on_c, 0, 76, 0
2, 4964, Note_on_c, 0, 72, 0
2, 4992, Note_on_c, 0, 73, 75
2, 4992, Note_on_c, 0, 70, 75
2, 5040, Note_on_c, 0, 73, 0
2, 5040, Note_on_c, 0, 70, 0
2, 5040, Note_on_c, 0, 74, 75
2, 5040, Note_on_c, 0, 71, 75
2, 5085, Note_on_c, 0, 74, 0
2, 5085, Note_on_c, 0, 71, 0
2, 5280, Note_on_c, 0, 79, 75
2, 5280, Note_on_c, 0, 76, 75
2, 5300, Note_on_c, 0, 79, 0
2, 5300, Note_on_c, 0, 76, 0
2, 5328, Note_on_c, 0, 77, 75
2, 5328, Note_on_c, 0, 74, 75
2, 5348, Note_on_c, 0, 77, 0
2, 5348, Note_on_c, 0, 74, 0
2, 5376, Note_on_c, 0, 75, 75
2, 5376, Note_on_c, 0, 71, 75
2, 5424, Note_on_c, 0, 75, 0
2, 5424, Note_on_c, 0, 71, 0
2, 5424, Note_on_c, 0, 76, 75
2, 5424, Note_on_c, 0, 72, 75
2, 5469, Note_on_c, 0, 76, 0
2, 5469, Note_on_c, 0, 72, 0
2, 5472, Note_on_c, 0, 82, 75
2, 5492, Note_on_c, 0, 82, 0
2, 5520, Note_on_c, 0, 82, 75
2, 5540, Note_on_c, 0, 82, 0
2, 5568, Note_on_c, 0, 82, 75
2, 5591, Note_on_c, 0, 82, 0
2, 5592, Note_on_c, 0, 81, 75
2, 5615, Note_on_c, 0, 81, 0
2, 5616, Note_on_c, 0, 79, 75
2, 5639, Note_on_c, 0, 79, 0
2, 5640, Note_on_c, 0, 77, 75
2, 5663, Note_on_c, 0, 77, 0
2, 5664, Note_on_c, 0, 77, 75
2, 5687, Note_on_c, 0, 77, 0
2, 5688, Note_on_c, 0, 76, 75
2, 5711, Note_on_c, 0, 76, 0
2, 5712, Note_on_c, 0, 74, 75
2, 5735, Note_on_c, 0, 74, 0
2, 5736, Note_on_c, 0, 72, 75
2, 5759, Note_on_c, 0, 72, 0
2, 5760, Note_on_c, 0, 77, 75
2, 5780, Note_on_c, 0, 77, 0
2, 5808, Note_on_c, 0, 77, 75
2, 5828, Note_on_c, 0, 77, 0
2, 5856, Note_on_c, 0, 81, 76
2, 5876, Note_on_c, 0, 81, 0
2, 5904, Note_on_c, 0, 81, 77
2, 5924, Note_on_c, 0, 81, 0
2, 5952, Note_on_c, 0, 81, 77
2, 5975, Note_on_c, 0, 81, 0
2, 5976, Note_on_c, 0, 79, 78
2, 5999, Note_on_c, 0, 79, 0
2, 6000, Note_on_c, 0, 77, 78
2, 6023, Note_on_c, 0, 77, 0
2, 6024, Note_on_c, 0, 76, 78
2, 6047, Note_on_c, 0, 76, 0
2, 6048, Note_on_c, 0, 74, 79
2, 6060, Note_on_c, 0, 74, 0
2, 6060, Note_on_c, 0, 76, 79
2, 6072, Note_on_c, 0, 76, 0
2, 6072, Note_on_c, 0, 74, 79
2, 6093, Note_on_c, 0, 74, 0
2, 6096, Note_on_c, 0, 76, 80
2, 6119, Note_on_c, 0, 76, 0
2, 6120, Note_on_c, 0, 72, 79
2, 6143, Note_on_c, 0, 72, 0
2, 6144, Note_on_c, 0, 72, 78
2, 6167, Note_on_c, 0, 72, 0
2, 6168, Note_on_c, 0, 71, 77
2, 6191, Note_on_c, 0, 71, 0
2, 6192, Note_on_c, 0, 69, 76
2, 6215, Note_on_c, 0, 69, 0
2, 6216, Note_on_c, 0, 67, 75
2, 6239, Note_on_c, 0, 67, 0
2, 6240, Note_on_c, 0, 79, 75
2, 6260, Note_on_c, 0, 79, 0
2, 6288, Note_on_c, 0, 79, 75
2, 6308, Note_on_c, 0, 79, 0
2, 6336, Note_on_c, 0, 81, 75
2, 6359, Note_on_c, 0, 81, 0
2, 6360, Note_on_c, 0, 79, 75
2, 6383, Note_on_c, 0, 79, 0
2, 6384, Note_on_c, 0, 77, 75
2, 6407, Note_on_c, 0, 77, 0
2, 6408, Note_on_c, 0, 76, 75
2, 6431, Note_on_c, 0, 76, 0
2, 6432, Note_on_c, 0, 76, 75
2, 6455, Note_on_c, 0, 76, 0
2, 6456, Note_on_c, 0, 74, 75
2, 6479, Note_on_c, 0, 74, 0
2, 6480, Note_on_c, 0, 72, 75
2, 6503, Note_on_c, 0, 72, 0
2, 6504, Note_on_c, 0, 71, 75
2, 6527, Note_on_c, 0, 71, 0
2, 6528, Note_on_c, 0, 72, 75
2, 6576, Note_on_c, 0, 72, 0
2, 6576, Note_on_c, 0, 67, 75
2, 6621, Note_on_c, 0, 67, 0
2, 6624, Note_on_c, 0, 72, 75
2, 6672, Note_on_c, 0, 72, 0
2, 6672, Note_on_c, 0, 73, 75
2, 6692, Note_on_c, 0, 73, 0
2, 6720, Note_on_c, 0, 74, 75
2, 6768, Note_on_c, 0, 74, 0
2, 6768, Note_on_c, 0, 67, 76
2, 6813, Note_on_c, 0, 67, 0
2, 6816, Note_on_c, 0, 74, 76
2, 6864, Note_on_c, 0, 74, 0
2, 6864, Note_on_c, 0, 75, 76
2, 6884, Note_on_c, 0, 75, 0
2, 6912, Note_on_c, 0, 76, 77
2, 6960, Note_on_c, 0, 76, 0
2, 6960, Note_on_c, 0, 72, 77
2, 7005, Note_on_c, 0, 72, 0
2, 7008, Note_on_c, 0, 76, 77
2, 7028, Note_on_c, 0, 76, 0
2, 7056, Note_on_c, 0, 76, 77
2, 7076, Note_on_c, 0, 76, 0
2, 7104, Note_on_c, 0, 79, 78
2, 7152, Note_on_c, 0, 79, 0
2, 7152, Note_on_c, 0, 77, 78
2, 7197, Note_on_c, 0, 77, 0
2, 7200, Note_on_c, 0, 78, 78
2, 7220, Note_on_c, 0, 78, 0
2, 7248, Note_on_c, 0, 78, 79
2, 7268, Note_on_c, 0, 78, 0
2, 7296, Note_on_c, 0, 81, 79
2, 7344, Note_on_c, 0, 81, 0
2, 7344, Note_on_c, 0, 79, 79
2, 7389, Note_on_c, 0, 79, 0
2, 7392, Note_on_c, 0, 89, 80
2, 7392, Note_on_c, 0, 77, 80
2, 7412, Note_on_c, 0, 89, 0
2, 7412, Note_on_c, 0, 77, 0
2, 7440, Note_on_c, 0, 88, 80
2, 7440, Note_on_c, 0, 76, 80
2, 7460, Note_on_c, 0, 88, 0
2, 7460, Note_on_c, 0, 76, 0
2, 7488, Note_on_c, 0, 86, 80
2, 7488, Note_on_c, 0, 74, 80
2, 7508, Note_on_c, 0, 86, 0
2, 7508, Note_on_c, 0, 74, 0
2, 7536, Note_on_c, 0, 84, 80
2, 7536, Note_on_c, 0, 72, 80
2, 7556, Note_on_c, 0, 84, 0
2, 7556, Note_on_c, 0, 72, 0
2, 7584, Note_on_c, 0, 83, 80
2, 7584, Note_on_c, 0, 71, 80
2, 7604, Note_on_c, 0, 83, 0
2, 7604, Note_on_c, 0, 71, 0
2, 7632, Note_on_c, 0, 84, 80
2, 7632, Note_on_c, 0, 72, 80
2, 7652, Note_on_c, 0, 84, 0
2, 7652, Note_on_c, 0, 72, 0
2, 7680, Note_on_c, 0, 86, 80
2, 7680, Note_on_c, 0, 74, 80
2, 7728, Note_on_c, 0, 86, 0
2, 7728, Note_on_c, 0, 74, 0
2, 7728, Note_on_c, 0, 84, 80
2, 7728, Note_on_c, 0, 72, 80
2, 7773, Note_on_c, 0, 84, 0
2, 7773, Note_on_c, 0, 72, 0
2, 7776, Note_on_c, 0, 81, 75
2, 7796, Note_on_c, 0, 81, 0
2, 7824, Note_on_c, 0, 81, 75
2, 7844, Note_on_c, 0, 81, 0
2, 7872, Note_on_c, 0, 81, 75
2, 7895, Note_on_c, 0, 81, 0
2, 7896, Note_on_c, 0, 79, 75
2, 7919, Note_on_c, 0, 79, 0
2, 7920, Note_on_c, 0, 77, 75
2, 7943, Note_on_c, 0, 77, 0
2, 7944, Note_on_c, 0, 76, 75
2, 7967, Note_on_c, 0, 76, 0
2, 7968, Note_on_c, 0, 76, 75
2, 7991, Note_on_c, 0, 76, 0
2, 7992, Note_on_c, 0, 74, 75
2, 8015, Note_on_c, 0, 74, 0
2, 8016, Note_on_c, 0, 72, 75
2, 8039, Note_on_c, 0, 72, 0
2, 8040, Note_on_c, 0, 71, 75
2, 8063, Note_on_c, 0, 71, 0
2, 8064, Note_on_c, 0, 72, 75
2, 8153, Note_on_c, 0, 72, 0
2, 8352, Note_on_c, 0, 77, 75
2, 8352, Note_on_c, 0, 74, 75
2, 8372, Note_on_c, 0, 77, 0
2, 8372, Note_on_c, 0, 74, 0
2, 8400, Note_on_c, 0, 76, 75
2, 8400, Note_on_c, 0, 72, 75
2, 8420, Note_on_c, 0, 76, 0
2, 8420, Note_on_c, 0, 72, 0
2, 8448, Note_on_c, 0, 73, 75
2, 8448, Note_on_c, 0, 70, 75
2, 8496, Note_on_c, 0, 73, 0
2, 8496, Note_on_c, 0, 70, 0
2, 8496, Note_on_c, 0, 74, 75
2, 8496, Note_on_c, 0, 71, 75
2, 8541, Note_on_c, 0, 74, 0
2, 8541, Note_on_c, 0, 71, 0
2, 8736, Note_on_c, 0, 79, 75
2, 8736, Note_on_c, 0, 76, 75
2, 8756, Note_on_c, 0, 79, 0
2, 8756, Note_on_c, 0, 76, 0
2, 8784, Note_on_c, 0, 77, 75
2, 8784, Note_on_c, 0, 74, 75
2, 8804, Note_on_c, 0, 77, 0
2, 8804, Note_on_c, 0, 74, 0
2, 8832, Note_on_c, 0, 75, 75
2, 8832, Note_on_c, 0, 71, 75
2, 8880, Note_on_c, 0, 75, 0
2, 8880, Note_on_c, 0, 71, 0
2, 8880, Note_on_c, 0, 76, 75
2, 8880, Note_on_c, 0, 72, 75
2, 8925, Note_on_c, 0, 76, 0
2, 8925, Note_on_c, 0, 72, 0
2, 8928, Note_on_c, 0, 82, 75
2, 8948, Note_on_c, 0, 82, 0
2, 8976, Note_on_c, 0, 82, 75
2, 8996, Note_on_c, 0, 82, 0
2, 9024, Note_on_c, 0, 82, 75
2, 9047, Note_on_c, 0, 82, 0
2, 9048, Note_on_c, 0, 81, 75
2, 9071, Note_on_c, 0, 81, 0
2, 9072, Note_on_c, 0, 79, 75
2, 9095, Note_on_c, 0, 79, 0
2, 9096, Note_on_c, 0, 77, 75
2, 9119, Note_on_c, 0, 77, 0
2, 9120, Note_on_c, 0, 77, 75
2, 9143, Note_on_c, 0, 77, 0
2, 9144, Note_on_c, 0, 76, 75
2, 9167, Note_on_c, 0, 76, 0
2, 9168, Note_on_c, 0, 74, 75
2, 9191, Note_on_c, 0, 74, 0
2, 9192, Note_on_c, 0, 72, 75
2, 9215, Note_on_c, 0, 72, 0
2, 9216, Note_on_c, 0, 77, 75
2, 9236, Note_on_c, 0, 77, 0
2, 9264, Note_on_c, 0, 77, 75
2, 9284, Note_on_c, 0, 77, 0
2, 9312, Note_on_c, 0, 81, 76
2, 9332, Note_on_c, 0, 81, 0
2, 9360, Note_on_c, 0, 81, 77
2, 9380, Note_on_c, 0, 81, 0
2, 9408, Note_on_c, 0, 81, 77
2, 9431, Note_on_c, 0, 81, 0
2, 9432, Note_on_c, 0, 79, 78
2, 9455, Note_on_c, 0, 79, 0
2, 9456, Note_on_c, 0, 77, 78
2, 9479, Note_on_c, 0, 77, 0
2, 9480, Note_on_c, 0, 76, 78
2, 9503, Note_on_c, 0, 76, 0
2, 9504, Note_on_c, 0, 74, 79
2, 9516, Note_on_c, 0, 74, 0
2, 9516, Note_on_c, 0, 76, 79
2, 9528, Note_on_c, 0, 76, 0
2, 9528, Note_on_c, 0, 74, 79
2, 9549, Note_on_c, 0, 74, 0
2, 9552, Note_on_c, 0, 76, 80
2, 9575, Note_on_c, 0, 76, 0
2, 9576, Note_on_c, 0, 72, 79
2, 9599, Note_on_c, 0, 72, 0
2, 9600, Note_on_c, 0, 72, 78
2, 9623, Note_on_c, 0, 72, 0
2, 9624, Note_on_c, 0, 71, 77
2, 9647, Note_on_c, 0, 71, 0
2, 9648, Note_on_c, 0, 69, 76
2, 9671, Note_on_c, 0, 69, 0
2, 9672, Note_on_c, 0, 67, 75
2, 9695, Note_on_c, 0, 67, 0
2, 9696, Note_on_c, 0, 79, 75
2, 9716, Note_on_c, 0, 79, 0
2, 9744, Note_on_c, 0, 79, 75
2, 9764, Note_on_c, 0, 79, 0
2, 9792, Note_on_c, 0, 81, 75
2, 9815, Note_on_c, 0, 81, 0
2, 9816, Note_on_c, 0, 79, 75
2, 9839, Note_on_c, 0, 79, 0
2, 9840, Note_on_c, 0, 77, 75
2, 9863, Note_on_c, 0, 77, 0
2, 9864, Note_on_c, 0, 76, 75
2, 9887, Note_on_c, 0, 76, 0
2, 9888, Note_on_c, 0, 76, 75
2, 9911, Note_on_c, 0, 76, 0
2, 9912, Note_on_c, 0, 74, 75
2, 9935, Note_on_c, 0, 74, 0
2, 9936, Note_on_c, 0, 72, 75
2, 9959, Note_on_c, 0, 72, 0
2, 9960, Note_on_c, 0, 71, 75
2, 9983, Note_on_c, 0, 71, 0
2, 9984, Note_on_c, 0, 72, 75
2, 10032, Note_on_c, 0, 72, 0
2, 10032, Note_on_c, 0, 67, 75
2, 10077, Note_on_c, 0, 67, 0
2, 10080, Note_on_c, 0, 72, 75
2, 10128, Note_on_c, 0, 72, 0
2, 10128, Note_on_c, 0, 73, 75
2, 10148, Note_on_c, 0, 73, 0
2, 10176, Note_on_c, 0, 74, 75
2, 10224, Note_on_c, 0, 74, 0
2, 10224, Note_on_c, 0, 67, 76
2, 10269, Note_on_c, 0, 67, 0
2, 10272, Note_on_c, 0, 74, 76
2, 10320, Note_on_c, 0, 74, 0
2, 10320, Note_on_c, 0, 75, 76
2, 10340, Note_on_c, 0, 75, 0
2, 10368, Note_on_c, 0, 76, 77
2, 10416, Note_on_c, 0, 76, 0
2, 10416, Note_on_c, 0, 72, 77
2, 10461, Note_on_c, 0, 72, 0
2, 10464, Note_on_c, 0, 76, 77
2, 10484, Note_on_c, 0, 76, 0
2, 10512, Note_on_c, 0, 76, 77
2, 10532, Note_on_c, 0, 76, 0
2, 10560, Note_on_c, 0, 79, 78
2, 10608, Note_on_c, 0, 79, 0
2, 10608, Note_on_c, 0, 77, 78
2, 10653, Note_on_c, 0, 77, 0
2, 10656, Note_on_c, 0, 78, 78
2, 10676, Note_on_c, 0, 78, 0
2, 10704, Note_on_c, 0, 78, 79
2, 10724, Note_on_c, 0, 78, 0
2, 10752, Note_on_c, 0, 81, 79
2, 10800, Note_on_c, 0, 81, 0
2, 10800, Note_on_c, 0, 79, 79
2, 10845, Note_on_c, 0, 79, 0
2, 10848, Note_on_c, 0, 89, 80
2, 10848, Note_on_c, 0, 77, 80
2, 10868, Note_on_c, 0, 89, 0
2, 10868, Note_on_c, 0, 77, 0
2, 10896, Note_on_c, 0, 88, 80
2, 10896, Note_on_c, 0, 76, 80
2, 10916, Note_on_c, 0, 88, 0
2, 10916, Note_on_c, 0, 76, 0
2, 10944, Note_on_c, 0, 86, 80
2, 10944, Note_on_c, 0, 74, 80
2, 10964, Note_on_c, 0, 86, 0
2, 10964, Note_on_c, 0, 74, 0
2, 10992, Note_on_c, 0, 84, 80
2, 10992, Note_on_c, 0, 72, 80
2, 11012, Note_on_c, 0, 84, 0
2, 11012, Note_on_c, 0, 72, 0
2, 11040, Note_on_c, 0, 83, 80
2, 11040, Note_on_c, 0, 71, 80
2, 11060, Note_on_c, 0, 83, 0
2, 11060, Note_on_c, 0, 71, 0
2, 11088, Note_on_c, 0, 84, 80
2, 11088, Note_on_c, 0, 72, 80
2, 11108, Note_on_c, 0, 84, 0
2, 11108, Note_on_c, 0, 72, 0
2, 11136, Note_on_c, 0, 86, 80
2, 11136, Note_on_c, 0, 74, 80
2, 11184, Note_on_c, 0, 86, 0
2, 11184, Note_on_c, 0, 74, 0
2, 11184, Note_on_c, 0, 84, 80
2, 11184, Note_on_c, 0, 72, 80
2, 11229, Note_on_c, 0, 84, 0
2, 11229, Note_on_c, 0, 72, 0
2, 11232, Note_on_c, 0, 81, 75
2, 11252, Note_on_c, 0, 81, 0
2, 11280, Note_on_c, 0, 81, 75
2, 11300, Note_on_c, 0, 81, 0
2, 11328, Note_on_c, 0, 81, 75
2, 11351, Note_on_c, 0, 81, 0
2, 11352, Note_on_c, 0, 79, 75
2, 11375, Note_on_c, 0, 79, 0
2, 11376, Note_on_c, 0, 77, 75
2, 11399, Note_on_c, 0, 77, 0
2, 11400, Note_on_c, 0, 76, 75
2, 11423, Note_on_c, 0, 76, 0
2, 11424, Note_on_c, 0, 76, 75
2, 11447, Note_on_c, 0, 76, 0
2, 11448, Note_on_c, 0, 74, 75
2, 11471, Note_on_c, 0, 74, 0
2, 11472, Note_on_c, 0, 72, 75
2, 11495, Note_on_c, 0, 72, 0
2, 11496, Note_on_c, 0, 71, 75
2, 11519, Note_on_c, 0, 71, 0
2, 11520, Note_on_c, 0, 72, 75
2, 11609, Note_on_c, 0, 72, 0
2, 11616, Note_on_c, 0, 67, 80
2, 11636, Note_on_c, 0, 67, 0
2, 11664, Note_on_c, 0, 67, 80
2, 11684, Note_on_c, 0, 67, 0
2, 11712, Note_on_c, 0, 69, 80
2, 11735, Note_on_c, 0, 69, 0
2, 11736, Note_on_c, 0, 67, 80
2, 11759, Note_on_c, 0, 67, 0
2, 11760, Note_on_c, 0, 65, 80
2, 11783, Note_on_c, 0, 65, 0
2, 11784, Note_on_c, 0, 64, 80
2, 11807, Note_on_c, 0, 64, 0
2, 11808, Note_on_c, 0, 64, 80
2, 11831, Note_on_c, 0, 64, 0
2, 11832, Note_on_c, 0, 62, 80
2, 11855, Note_on_c, 0, 62, 0
2, 11856, Note_on_c, 0, 60, 80
2, 11879, Note_on_c, 0, 60, 0
2, 11880, Note_on_c, 0, 59, 80
2, 11903, Note_on_c, 0, 59, 0
2, 11904, Note_on_c, 0, 60, 80
2, 11952, Note_on_c, 0, 60, 0
2, 11952, Note_on_c, 0, 55, 80
2, 11997, Note_on_c, 0, 55, 0
2, 12000, Note_on_c, 0, 72, 80
2, 12020, Note_on_c, 0, 72, 0
2, 12048, Note_on_c, 0, 72, 80
2, 12068, Note_on_c, 0, 72, 0
2, 12096, Note_on_c, 0, 72, 80
2, 12119, Note_on_c, 0, 72, 0
2, 12120, Note_on_c, 0, 71, 80
2, 12143, Note_on_c, 0, 71, 0
2, 12144, Note_on_c, 0, 69, 80
2, 12167, Note_on_c, 0, 69, 0
2, 12168, Note_on_c, 0, 67, 80
2, 12191, Note_on_c, 0, 67, 0
2, 12192, Note_on_c, 0, 77, 80
2, 12212, Note_on_c, 0, 77, 0
2, 12240, Note_on_c, 0, 77, 80
2, 12260, Note_on_c, 0, 77, 0
2, 12288, Note_on_c, 0, 77, 80
2, 12311, Note_on_c, 0, 77, 0
2, 12312, Note_on_c, 0, 76, 80
2, 12335, Note_on_c, 0, 76, 0
2, 12336, Note_on_c, 0, 74, 80
2, 12359, Note_on_c, 0, 74, 0
2, 12360, Note_on_c, 0, 72, 80
2, 12383, Note_on_c, 0, 72, 0
2, 12384, Note_on_c, 0, 76, 75
2, 12404, Note_on_c, 0, 76, 0
2, 12432, Note_on_c, 0, 78, 75
2, 12452, Note_on_c, 0, 78, 0
2, 12480, Note_on_c, 0, 81, 75
2, 12503, Note_on_c, 0, 81, 0
2, 12504, Note_on_c, 0, 79, 75
2, 12527, Note_on_c, 0, 79, 0
2, 12528, Note_on_c, 0, 78, 75
2, 12551, Note_on_c, 0, 78, 0
2, 12552, Note_on_c, 0, 79, 75
2, 12575, Note_on_c, 0, 79, 0
2, 12576, Note_on_c, 0, 83, 75
2, 12599, Note_on_c, 0, 83, 0
2, 12600, Note_on_c, 0, 81, 75
2, 12623, Note_on_c, 0, 81, 0
2, 12624, Note_on_c, 0, 79, 75
2, 12647, Note_on_c, 0, 79, 0
2, 12648, Note_on_c, 0, 81, 75
2, 12671, Note_on_c, 0, 81, 0
2, 12672, Note_on_c, 0, 84, 75
2, 12695, Note_on_c, 0, 84, 0
2, 12696, Note_on_c, 0, 83, 75
2, 12719, Note_on_c, 0, 83, 0
2, 12720, Note_on_c, 0, 81, 75
2, 12743, Note_on_c, 0, 81, 0
2, 12744, Note_on_c, 0, 83, 75
2, 12767, Note_on_c, 0, 83, 0
2, 12768, Note_on_c, 0, 86, 75
2, 12791, Note_on_c, 0, 86, 0
2, 12792, Note_on_c, 0, 83, 75
2, 12815, Note_on_c, 0, 83, 0
2, 12816, Note_on_c, 0, 81, 75
2, 12839, Note_on_c, 0, 81, 0
2, 12840, Note_on_c, 0, 79, 75
2, 12863, Note_on_c, 0, 79, 0
2, 12864, Note_on_c, 0, 79, 75
2, 12887, Note_on_c, 0, 79, 0
2, 12888, Note_on_c, 0, 78, 75
2, 12911, Note_on_c, 0, 78, 0
2, 12912, Note_on_c, 0, 76, 75
2, 12935, Note_on_c, 0, 76, 0
2, 12936, Note_on_c, 0, 74, 75
2, 12959, Note_on_c, 0, 74, 0
2, 12960, Note_on_c, 0, 86, 75
2, 12983, Note_on_c, 0, 86, 0
2, 12984, Note_on_c, 0, 83, 75
2, 13007, Note_on_c, 0, 83, 0
2, 13008, Note_on_c, 0, 81, 75
2, 13031, Note_on_c, 0, 81, 0
2, 13032, Note_on_c, 0, 79, 75
2, 13055, Note_on_c, 0, 79, 0
2, 13056, Note_on_c, 0, 79, 75
2, 13079, Note_on_c, 0, 79, 0
2, 13080, Note_on_c, 0, 78, 73
2, 13103, Note_on_c, 0, 78, 0
2, 13104, Note_on_c, 0, 76, 72
2, 13127, Note_on_c, 0, 76, 0
2, 13128, Note_on_c, 0, 74, 71
2, 13151, Note_on_c, 0, 74, 0
2, 13152, Note_on_c, 0, 86, 64
2, 13175, Note_on_c, 0, 86, 0
2, 13176, Note_on_c, 0, 83, 64
2, 13199, Note_on_c, 0, 83, 0
2, 13200, Note_on_c, 0, 81, 64
2, 13223, Note_on_c, 0, 81, 0
2, 13224, Note_on_c, 0, 79, 64
2, 13247, Note_on_c, 0, 79, 0
2, 13248, Note_on_c, 0, 79, 64
2, 13271, Note_on_c, 0, 79, 0
2, 13272, Note_on_c, 0, 78, 64
2, 13295, Note_on_c, 0, 78, 0
2, 13296, Note_on_c, 0, 76, 64
2, 13319, Note_on_c, 0, 76, 0
2, 13320, Note_on_c, 0, 74, 64
2, 13343, Note_on_c, 0, 74, 0
2, 13344, Note_on_c, 0, 86, 64
2, 13367, Note_on_c, 0, 86, 0
2, 13368, Note_on_c, 0, 83, 64
2, 13391, Note_on_c, 0, 83, 0
2, 13392, Note_on_c, 0, 81, 64
2, 13415, Note_on_c, 0, 81, 0
2, 13416, Note_on_c, 0, 79, 64
2, 13439, Note_on_c, 0, 79, 0
2, 13440, Note_on_c, 0, 79, 64
2, 13463, Note_on_c, 0, 79, 0
2, 13464, Note_on_c, 0, 78, 67
2, 13487, Note_on_c, 0, 78, 0
2, 13488, Note_on_c, 0, 76, 70
2, 13511, Note_on_c, 0, 76, 0
2, 13512, Note_on_c, 0, 74, 73
2, 13535, Note_on_c, 0, 74, 0
2, 13536, Note_on_c, 0, 86, 76
2, 13559, Note_on_c, 0, 86, 0
2, 13560, Note_on_c, 0, 83, 80
2, 13583, Note_on_c, 0, 83, 0
2, 13584, Note_on_c, 0, 81, 80
2, 13607, Note_on_c, 0, 81, 0
2, 13608, Note_on_c, 0, 79, 80
2, 13631, Note_on_c, 0, 79, 0
2, 13632, Note_on_c, 0, 78, 80
2, 13655, Note_on_c, 0, 78, 0
2, 13656, Note_on_c, 0, 76, 80
2, 13679, Note_on_c, 0, 76, 0
2, 13680, Note_on_c, 0, 75, 80
2, 13703, Note_on_c, 0, 75, 0
2, 13704, Note_on_c, 0, 76, 80
2, 13727, Note_on_c, 0, 76, 0
2, 13728, Note_on_c, 0, 84, 80
2, 13751, Note_on_c, 0, 84, 0
2, 13752, Note_on_c, 0, 81, 80
2, 13775, Note_on_c, 0, 81, 0
2, 13776, Note_on_c, 0, 79, 80
2, 13799, Note_on_c, 0, 79, 0
2, 13800, Note_on_c, 0, 78, 80
2, 13823, Note_on_c, 0, 78, 0
2, 13824, Note_on_c, 0, 76, 80
2, 13847, Note_on_c, 0, 76, 0
2, 13848, Note_on_c, 0, 74, 80
2, 13871, Note_on_c, 0, 74, 0
2, 13872, Note_on_c, 0, 73, 80
2, 13895, Note_on_c, 0, 73, 0
2, 13896, Note_on_c, 0, 74, 80
2, 13919, Note_on_c, 0, 74, 0
2, 13920, Note_on_c, 0, 83, 80
2, 13943, Note_on_c, 0, 83, 0
2, 13944, Note_on_c, 0, 79, 80
2, 13967, Note_on_c, 0, 79, 0
2, 13968, Note_on_c, 0, 78, 80
2, 13991, Note_on_c, 0, 78, 0
2, 13992, Note_on_c, 0, 76, 80
2, 14015, Note_on_c, 0, 76, 0
2, 14016, Note_on_c, 0, 74, 80
2, 14039, Note_on_c, 0, 74, 0
2, 14040, Note_on_c, 0, 72, 80
2, 14063, Note_on_c, 0, 72, 0
2, 14064, Note_on_c, 0, 71, 80
2, 14087, Note_on_c, 0, 71, 0
2, 14088, Note_on_c, 0, 72, 80
2, 14111, Note_on_c, 0, 72, 0
2, 14112, Note_on_c, 0, 81, 80
2, 14135, Note_on_c, 0, 81, 0
2, 14136, Note_on_c, 0, 72, 80
2, 14159, Note_on_c, 0, 72, 0
2, 14160, Note_on_c, 0, 81, 80
2, 14183, Note_on_c, 0, 81, 0
2, 14184, Note_on_c, 0, 72, 80
2, 14207, Note_on_c, 0, 72, 0
2, 14208, Note_on_c, 0, 71, 80
2, 14228, Note_on_c, 0, 71, 0
2, 14256, Note_on_c, 0, 71, 80
2, 14276, Note_on_c, 0, 71, 0
2, 14304, Note_on_c, 0, 74, 80
2, 14327, Note_on_c, 0, 74, 0
2, 14328, Note_on_c, 0, 73, 80
2, 14351, Note_on_c, 0, 73, 0
2, 14352, Note_on_c, 0, 71, 80
2, 14375, Note_on_c, 0, 71, 0
2, 14376, Note_on_c, 0, 73, 80
2, 14399, Note_on_c, 0, 73, 0
2, 14400, Note_on_c, 0, 74, 75
2, 14420, Note_on_c, 0, 74, 0
2, 14448, Note_on_c, 0, 74, 75
2, 14496, Note_on_c, 0, 74, 0
2, 14496, Note_on_c, 0, 75, 75
2, 14516, Note_on_c, 0, 75, 0
2, 14544, Note_on_c, 0, 75, 75
2, 14592, Note_on_c, 0, 75, 0
2, 14592, Note_on_c, 0, 76, 75
2, 14612, Note_on_c, 0, 76, 0
2, 14640, Note_on_c, 0, 76, 75
2, 14660, Note_on_c, 0, 76, 0
2, 14688, Note_on_c, 0, 74, 75
2, 14711, Note_on_c, 0, 74, 0
2, 14712, Note_on_c, 0, 72, 75
2, 14735, Note_on_c, 0, 72, 0
2, 14736, Note_on_c, 0, 71, 75
2, 14759, Note_on_c, 0, 71, 0
2, 14760, Note_on_c, 0, 72, 75
2, 14783, Note_on_c, 0, 72, 0
2, 14784, Note_on_c, 0, 69, 75
2, 14804, Note_on_c, 0, 69, 0
2, 14832, Note_on_c, 0, 69, 75
2, 14880, Note_on_c, 0, 69, 0
2, 14880, Note_on_c, 0, 75, 75
2, 14900, Note_on_c, 0, 75, 0
2, 14928, Note_on_c, 0, 75, 75
2, 14976, Note_on_c, 0, 75, 0
2, 14976, Note_on_c, 0, 78, 75
2, 14999, Note_on_c, 0, 78, 0
2, 15000, Note_on_c, 0, 76, 75
2, 15023, Note_on_c, 0, 76, 0
2, 15024, Note_on_c, 0, 75, 75
2, 15047, Note_on_c, 0, 75, 0
2, 15048, Note_on_c, 0, 76, 75
2, 15071, Note_on_c, 0, 76, 0
2, 15072, Note_on_c, 0, 72, 75
2, 15092, Note_on_c, 0, 72, 0
2, 15120, Note_on_c, 0, 72, 75
2, 15168, Note_on_c, 0, 72, 0
2, 15168, Note_on_c, 0, 69, 75
2, 15188, Note_on_c, 0, 69, 0
2, 15216, Note_on_c, 0, 69, 75
2, 15264, Note_on_c, 0, 69, 0
2, 15264, Note_on_c, 0, 75, 75
2, 15284, Note_on_c, 0, 75, 0
2, 15312, Note_on_c, 0, 75, 73
2, 15360, Note_on_c, 0, 75, 0
2, 15360, Note_on_c, 0, 76, 71
2, 15380, Note_on_c, 0, 76, 0
2, 15408, Note_on_c, 0, 76, 70
2, 15456, Note_on_c, 0, 76, 0
2, 15456, Note_on_c, 0, 80, 68
2, 15476, Note_on_c, 0, 80, 0
2, 15504, Note_on_c, 0, 80, 67
2, 15552, Note_on_c, 0, 80, 0
2, 15552, Note_on_c, 0, 81, 65
2, 15572, Note_on_c, 0, 81, 0
2, 15600, Note_on_c, 0, 81, 64
2, 15648, Note_on_c, 0, 81, 0
2, 15648, Note_on_c, 0, 80, 62
2, 15668, Note_on_c, 0, 80, 0
2, 15696, Note_on_c, 0, 80, 61
2, 15744, Note_on_c, 0, 80, 0
2, 15744, Note_on_c, 0, 81, 59
2, 15764, Note_on_c, 0, 81, 0
2, 15792, Note_on_c, 0, 81, 58
2, 15812, Note_on_c, 0, 81, 0
2, 16032, Note_on_c, 0, 74, 75
2, 16052, Note_on_c, 0, 74, 0
2, 16080, Note_on_c, 0, 74, 75
2, 16100, Note_on_c, 0, 74, 0
2, 16128, Note_on_c, 0, 76, 75
2, 16151, Note_on_c, 0, 76, 0
2, 16152, Note_on_c, 0, 74, 75
2, 16175, Note_on_c, 0, 74, 0
2, 16176, Note_on_c, 0, 72, 75
2, 16199, Note_on_c, 0, 72, 0
2, 16200, Note_on_c, 0, 71, 75
2, 16223, Note_on_c, 0, 71, 0
2, 16224, Note_on_c, 0, 71, 75
2, 16247, Note_on_c, 0, 71, 0
2, 16248, Note_on_c, 0, 69, 75
2, 16271, Note_on_c, 0, 69, 0
2, 16272, Note_on_c, 0, 67, 75
2, 16295, Note_on_c, 0, 67, 0
2, 16296, Note_on_c, 0, 66, 75
2, 16319, Note_on_c, 0, 66, 0
2, 16320, Note_on_c, 0, 67, 75
2, 16368, Note_on_c, 0, 67, 0
2, 16368, Note_on_c, 0, 62, 75
2, 16413, Note_on_c, 0, 62, 0
2, 16416, Note_on_c, 0, 67, 75
2, 16464, Note_on_c, 0, 67, 0
2, 16464, Note_on_c, 0, 68, 75
2, 16484, Note_on_c, 0, 68, 0
2, 16512, Note_on_c, 0, 69, 75
2, 16560, Note_on_c, 0, 69, 0
2, 16560, Note_on_c, 0, 62, 75
2, 16605, Note_on_c, 0, 62, 0
2, 16608, Note_on_c, 0, 69, 75
2, 16656, Note_on_c, 0, 69, 0
2, 16656, Note_on_c, 0, 70, 75
2, 16676, Note_on_c, 0, 70, 0
2, 16704, Note_on_c, 0, 71, 75
2, 16752, Note_on_c, 0, 71, 0
2, 16752, Note_on_c, 0, 67, 75
2, 16797, Note_on_c, 0, 67, 0
2, 16800, Note_on_c, 0, 71, 75
2, 16820, Note_on_c, 0, 71, 0
2, 16848, Note_on_c, 0, 71, 75
2, 16868, Note_on_c, 0, 71, 0
2, 16896, Note_on_c, 0, 74, 75
2, 16944, Note_on_c, 0, 74, 0
2, 16944, Note_on_c, 0, 72, 75
2, 16989, Note_on_c, 0, 72, 0
2, 16992, Note_on_c, 0, 73, 75
2, 17012, Note_on_c, 0, 73, 0
2, 17040, Note_on_c, 0, 73, 76
2, 17060, Note_on_c, 0, 73, 0
2, 17088, Note_on_c, 0, 76, 76
2, 17136, Note_on_c, 0, 76, 0
2, 17136, Note_on_c, 0, 74, 76
2, 17181, Note_on_c, 0, 74, 0
2, 17184, Note_on_c, 0, 76, 77
2, 17204, Note_on_c, 0, 76, 0
2, 17232, Note_on_c, 0, 77, 77
2, 17252, Note_on_c, 0, 77, 0
2, 17280, Note_on_c, 0, 78, 77
2, 17328, Note_on_c, 0, 78, 0
2, 17328, Note_on_c, 0, 79, 78
2, 17373, Note_on_c, 0, 79, 0
2, 17376, Note_on_c, 0, 80, 78
2, 17396, Note_on_c, 0, 80, 0
2, 17424, Note_on_c, 0, 81, 78
2, 17444, Note_on_c, 0, 81, 0
2, 17472, Note_on_c, 0, 82, 79
2, 17520, Note_on_c, 0, 82, 0
2, 17520, Note_on_c, 0, 83, 79
2, 17565, Note_on_c, 0, 83, 0
2, 17568, Note_on_c, 0, 84, 80
2, 17613, Note_on_c, 0, 84, 0
2, 17616, Note_on_c, 0, 84, 80
2, 17661, Note_on_c, 0, 84, 0
2, 17664, Note_on_c, 0, 83, 80
2, 17709, Note_on_c, 0, 83, 0
2, 17712, Note_on_c, 0, 83, 80
2, 17757, Note_on_c, 0, 83, 0
2, 17760, Note_on_c, 0, 81, 80
2, 17805, Note_on_c, 0, 81, 0
2, 17808, Note_on_c, 0, 81, 80
2, 17853, Note_on_c, 0, 81, 0
2, 17856, Note_on_c, 0, 79, 80
2, 17856, Note_on_c, 0, 74, 80
2, 17856, Note_on_c, 0, 71, 80
2, 17945, Note_on_c, 0, 79, 0
2, 17945, Note_on_c, 0, 74, 0
2, 17945, Note_on_c, 0, 71, 0
2, 17952, Note_on_c, 0, 62, 80
2, 17975, Note_on_c, 0, 62, 0
2, 17976, Note_on_c, 0, 60, 80
2, 17999, Note_on_c, 0, 60, 0
2, 18000, Note_on_c, 0, 59, 80
2, 18023, Note_on_c, 0, 59, 0
2, 18024, Note_on_c, 0, 57, 80
2, 18047, Note_on_c, 0, 57, 0
2, 18048, Note_on_c, 0, 55, 80
2, 18071, Note_on_c, 0, 55, 0
2, 18072, Note_on_c, 0, 59, 80
2, 18095, Note_on_c, 0, 59, 0
2, 18096, Note_on_c, 0, 62, 80
2, 18119, Note_on_c, 0, 62, 0
2, 18120, Note_on_c, 0, 67, 80
2, 18143, Note_on_c, 0, 67, 0
2, 18144, Note_on_c, 0, 66, 80
2, 18167, Note_on_c, 0, 66, 0
2, 18168, Note_on_c, 0, 69, 80
2, 18191, Note_on_c, 0, 69, 0
2, 18192, Note_on_c, 0, 66, 80
2, 18215, Note_on_c, 0, 66, 0
2, 18216, Note_on_c, 0, 62, 80
2, 18239, Note_on_c, 0, 62, 0
2, 18240, Note_on_c, 0, 67, 80
2, 18260, Note_on_c, 0, 67, 0
2, 18288, Note_on_c, 0, 67, 80
2, 18308, Note_on_c, 0, 67, 0
2, 18336, Note_on_c, 0, 62, 80
2, 18359, Note_on_c, 0, 62, 0
2, 18360, Note_on_c, 0, 60, 80
2, 18383, Note_on_c, 0, 60, 0
2, 18384, Note_on_c, 0, 59, 80
2, 18407, Note_on_c, 0, 59, 0
2, 18408, Note_on_c, 0, 57, 80
2, 18431, Note_on_c, 0, 57, 0
2, 18432, Note_on_c, 0, 55, 80
2, 18455, Note_on_c, 0, 55, 0
2, 18456, Note_on_c, 0, 59, 80
2, 18479, Note_on_c, 0, 59, 0
2, 18480, Note_on_c, 0, 62, 80
2, 18503, Note_on_c, 0, 62, 0
2, 18504, Note_on_c, 0, 67, 80
2, 18527, Note_on_c, 0, 67, 0
2, 18528, Note_on_c, 0, 66, 80
2, 18551, Note_on_c, 0, 66, 0
2, 18552, Note_on_c, 0, 69, 80
2, 18575, Note_on_c, 0, 69, 0
2, 18576, Note_on_c, 0, 66, 80
2, 18599, Note_on_c, 0, 66, 0
2, 18600, Note_on_c, 0, 62, 80
2, 18623, Note_on_c, 0, 62, 0
2, 18624, Note_on_c, 0, 71, 80
2, 18644, Note_on_c, 0, 71, 0
2, 18672, Note_on_c, 0, 71, 80
2, 18692, Note_on_c, 0, 71, 0
2, 18720, Note_on_c, 0, 69, 80
2, 18743, Note_on_c, 0, 69, 0
2, 18744, Note_on_c, 0, 72, 80
2, 18767, Note_on_c, 0, 72, 0
2, 18768, Note_on_c, 0, 69, 80
2, 18791, Note_on_c, 0, 69, 0
2, 18792, Note_on_c, 0, 66, 80
2, 18815, Note_on_c, 0, 66, 0
2, 18816, Note_on_c, 0, 74, 80
2, 18836, Note_on_c, 0, 74, 0
2, 18864, Note_on_c, 0, 74, 80
2, 18912, Note_on_c, 0, 74, 0
2, 18912, Note_on_c, 0, 75, 80
2, 18932, Note_on_c, 0, 75, 0
2, 18960, Note_on_c, 0, 75, 80
2, 19008, Note_on_c, 0, 75, 0
2, 19008, Note_on_c, 0, 76, 80
2, 19028, Note_on_c, 0, 76, 0
2, 19056, Note_on_c, 0, 76, 80
2, 19104, Note_on_c, 0, 76, 0
2, 19104, Note_on_c, 0, 87, 75
2, 19104, Note_on_c, 0, 75, 75
2, 19124, Note_on_c, 0, 87, 0
2, 19124, Note_on_c, 0, 75, 0
2, 19152, Note_on_c, 0, 87, 75
2, 19152, Note_on_c, 0, 75, 75
2, 19200, Note_on_c, 0, 87, 0
2, 19200, Note_on_c, 0, 75, 0
2, 19200, Note_on_c, 0, 88, 75
2, 19200, Note_on_c, 0, 76, 75
2, 19220, Note_on_c, 0, 88, 0
2, 19220, Note_on_c, 0, 76, 0
2, 19248, Note_on_c, 0, 88, 75
2, 19248, Note_on_c, 0, 76, 75
2, 19293, Note_on_c, 0, 88, 0
2, 19293, Note_on_c, 0, 76, 0
2, 19392, Note_on_c, 0, 63, 75
2, 19392, Note_on_c, 0, 51, 75
2, 19412, Note_on_c, 0, 63, 0
2, 19412, Note_on_c, 0, 51, 0
2, 19440, Note_on_c, 0, 63, 75
2, 19440, Note_on_c, 0, 51, 75
2, 19488, Note_on_c, 0, 63, 0
2, 19488, Note_on_c, 0, 51, 0
2, 19488, Note_on_c, 0, 64, 75
2, 19488, Note_on_c, 0, 52, 75
2, 19577, Note_on_c, 0, 64, 0
2, 19577, Note_on_c, 0, 52, 0
2, 19584, Note_on_c, 0, 65, 77
2, 19584, Note_on_c, 0, 53, 77
2, 19604, Note_on_c, 0, 65, 0
2, 19604, Note_on_c, 0, 53, 0
2, 19632, Note_on_c, 0, 65, 77
2, 19632, Note_on_c, 0, 53, 77
2, 19680, Note_on_c, 0, 65, 0
2, 19680, Note_on_c, 0, 53, 0
2, 19680, Note_on_c, 0, 66, 78
2, 19680, Note_on_c, 0, 54, 78
2, 19769, Note_on_c, 0, 66, 0
2, 19769, Note_on_c, 0, 54, 0
2, 19776, Note_on_c, 0, 67, 80
2, 19799, Note_on_c, 0, 67, 0
2, 19800, Note_on_c, 0, 64, 80
2, 19823, Note_on_c, 0, 64, 0
2, 19824, Note_on_c, 0, 60, 80
2, 19847, Note_on_c, 0, 60, 0
2, 19848, Note_on_c, 0, 55, 80
2, 19871, Note_on_c, 0, 55, 0
2, 19872, Note_on_c, 0, 69, 80
2, 19895, Note_on_c, 0, 69, 0
2, 19896, Note_on_c, 0, 66, 80
2, 19919, Note_on_c, 0, 66, 0
2, 19920, Note_on_c, 0, 62, 80
2, 19943, Note_on_c, 0, 62, 0
2, 19944, Note_on_c, 0, 57, 80
2, 19967, Note_on_c, 0, 57, 0
2, 19968, Note_on_c, 0, 71, 80
2, 19991, Note_on_c, 0, 71, 0
2, 19992, Note_on_c, 0, 67, 80
2, 20015, Note_on_c, 0, 67, 0
2, 20016, Note_on_c, 0, 62, 80
2, 20039, Note_on_c, 0, 62, 0
2, 20040, Note_on_c, 0, 59, 80
2, 20063, Note_on_c, 0, 59, 0
2, 20064, Note_on_c, 0, 72, 80
2, 20087, Note_on_c, 0, 72, 0
2, 20088, Note_on_c, 0, 69, 80
2, 20111, Note_on_c, 0, 69, 0
2, 20112, Note_on_c, 0, 66, 80
2, 20135, Note_on_c, 0, 66, 0
2, 20136, Note_on_c, 0, 60, 80
2, 20159, Note_on_c, 0, 60, 0
2, 20160, Note_on_c, 0, 74, 80
2, 20183, Note_on_c, 0, 74, 0
2, 20184, Note_on_c, 0, 71, 80
2, 20207, Note_on_c, 0, 71, 0
2, 20208, Note_on_c, 0, 67, 80
2, 20231, Note_on_c, 0, 67, 0
2, 20232, Note_on_c, 0, 62, 80
2, 20255, Note_on_c, 0, 62, 0
2, 20256, Note_on_c, 0, 74, 80
2, 20279, Note_on_c, 0, 74, 0
2, 20280, Note_on_c, 0, 72, 80
2, 20303, Note_on_c, 0, 72, 0
2, 20304, Note_on_c, 0, 69, 80
2, 20327, Note_on_c, 0, 69, 0
2, 20328, Note_on_c, 0, 62, 80
2, 20351, Note_on_c, 0, 62, 0
2, 20352, Note_on_c, 0, 74, 80
2, 20375, Note_on_c, 0, 74, 0
2, 20376, Note_on_c, 0, 71, 80
2, 20399, Note_on_c, 0, 71, 0
2, 20400, Note_on_c, 0, 67, 80
2, 20423, Note_on_c, 0, 67, 0
2, 20424, Note_on_c, 0, 62, 80
2, 20447, Note_on_c, 0, 62, 0
2, 20448, Note_on_c, 0, 74, 80
2, 20471, Note_on_c, 0, 74, 0
2, 20472, Note_on_c, 0, 69, 80
2, 20495, Note_on_c, 0, 69, 0
2, 20496, Note_on_c, 0, 66, 80
2, 20519, Note_on_c, 0, 66, 0
2, 20520, Note_on_c, 0, 62, 80
2, 20543, Note_on_c, 0, 62, 0
2, 20544, Note_on_c, 0, 74, 80
2, 20567, Note_on_c, 0, 74, 0
2, 20568, Note_on_c, 0, 71, 80
2, 20591, Note_on_c, 0, 71, 0
2, 20592, Note_on_c, 0, 67, 80
2, 20615, Note_on_c, 0, 67, 0
2, 20616, Note_on_c, 0, 62, 80
2, 20639, Note_on_c, 0, 62, 0
2, 20640, Note_on_c, 0, 74, 80
2, 20663, Note_on_c, 0, 74, 0
2, 20664, Note_on_c, 0, 72, 80
2, 20687, Note_on_c, 0, 72, 0
2, 20688, Note_on_c, 0, 69, 80
2, 20711, Note_on_c, 0, 69, 0
2, 20712, Note_on_c, 0, 66, 80
2, 20735, Note_on_c, 0, 66, 0
2, 20736, Note_on_c, 0, 74, 80
2, 20759, Note_on_c, 0, 74, 0
2, 20760, Note_on_c, 0, 71, 80
2, 20783, Note_on_c, 0, 71, 0
2, 20784, Note_on_c, 0, 67, 80
2, 20807, Note_on_c, 0, 67, 0
2, 20808, Note_on_c, 0, 62, 80
2, 20831, Note_on_c, 0, 62, 0
2, 20832, Note_on_c, 0, 74, 80
2, 20855, Note_on_c, 0, 74, 0
2, 20856, Note_on_c, 0, 69, 80
2, 20879, Note_on_c, 0, 69, 0
2, 20880, Note_on_c, 0, 66, 80
2, 20903, Note_on_c, 0, 66, 0
2, 20904, Note_on_c, 0, 62, 80
2, 20927, Note_on_c, 0, 62, 0
2, 20928, Note_on_c, 0, 74, 80
2, 20951, Note_on_c, 0, 74, 0
2, 20952, Note_on_c, 0, 71, 80
2, 20975, Note_on_c, 0, 71, 0
2, 20976, Note_on_c, 0, 67, 80
2, 20999, Note_on_c, 0, 67, 0
2, 21000, Note_on_c, 0, 62, 80
2, 21023, Note_on_c, 0, 62, 0
2, 21024, Note_on_c, 0, 79, 75
2, 21044, Note_on_c, 0, 79, 0
2, 21072, Note_on_c, 0, 79, 75
2, 21092, Note_on_c, 0, 79, 0
2, 21120, Note_on_c, 0, 75, 75
2, 21168, Note_on_c, 0, 75, 0
2, 21168, Note_on_c, 0, 76, 75
2, 21213, Note_on_c, 0, 76, 0
2, 21216, Note_on_c, 0, 76, 75
2, 21216, Note_on_c, 0, 72, 75
2, 21236, Note_on_c, 0, 76, 0
2, 21236, Note_on_c, 0, 72, 0
2, 21264, Note_on_c, 0, 76, 75
2, 21264, Note_on_c, 0, 72, 75
2, 21284, Note_on_c, 0, 76, 0
2, 21284, Note_on_c, 0, 72, 0
2, 21312, Note_on_c, 0, 71, 75
2, 21312, Note_on_c, 0, 68, 75
2, 21360, Note_on_c, 0, 71, 0
2, 21360, Note_on_c, 0, 68, 0
2, 21360, Note_on_c, 0, 72, 75
2, 21360, Note_on_c, 0, 69, 75
2, 21405, Note_on_c, 0, 72, 0
2, 21405, Note_on_c, 0, 69, 0
2, 21408, Note_on_c, 0, 72, 75
2, 21408, Note_on_c, 0, 63, 75
2, 21428, Note_on_c, 0, 72, 0
2, 21428, Note_on_c, 0, 63, 0
2, 21456, Note_on_c, 0, 72, 75
2, 21456, Note_on_c, 0, 63, 75
2, 21476, Note_on_c, 0, 72, 0
2, 21476, Note_on_c, 0, 63, 0
2, 21504, Note_on_c, 0, 71, 75
2, 21504, Note_on_c, 0, 62, 75
2, 21552, Note_on_c, 0, 71, 0
2, 21552, Note_on_c, 0, 62, 0
2, 21552, Note_on_c, 0, 69, 75
2, 21552, Note_on_c, 0, 60, 75
2, 21572, Note_on_c, 0, 69, 0
2, 21572, Note_on_c, 0, 60, 0
2, 21600, Note_on_c, 0, 67, 75
2, 21600, Note_on_c, 0, 59, 75
2, 21620, Note_on_c, 0, 67, 0
2, 21620, Note_on_c, 0, 59, 0
2, 21648, Note_on_c, 0, 66, 75
2, 21648, Note_on_c, 0, 57, 75
2, 21668, Note_on_c, 0, 66, 0
2, 21668, Note_on_c, 0, 57, 0
2, 21696, Note_on_c, 0, 67, 75
2, 21696, Note_on_c, 0, 55, 75
2, 21785, Note_on_c, 0, 67, 0
2, 21785, Note_on_c, 0, 55, 0
2, 21792, Note_on_c, 0, 83, 80
2, 21815, Note_on_c, 0, 83, 0
2, 21816, Note_on_c, 0, 86, 80
2, 21839, Note_on_c, 0, 86, 0
2, 21840, Note_on_c, 0, 83, 80
2, 21863, Note_on_c, 0, 83, 0
2, 21864, Note_on_c, 0, 79, 80
2, 21887, Note_on_c, 0, 79, 0
2, 21888, Note_on_c, 0, 78, 80
2, 21911, Note_on_c, 0, 78, 0
2, 21912, Note_on_c, 0, 81, 80
2, 21935, Note_on_c, 0, 81, 0
2, 21936, Note_on_c, 0, 78, 80
2, 21959, Note_on_c, 0, 78, 0
2, 21960, Note_on_c, 0, 74, 80
2, 21983, Note_on_c, 0, 74, 0
2, 21984, Note_on_c, 0, 72, 80
2, 22007, Note_on_c, 0, 72, 0
2, 22008, Note_on_c, 0, 76, 80
2, 22031, Note_on_c, 0, 76, 0
2, 22032, Note_on_c, 0, 72, 80
2, 22055, Note_on_c, 0, 72, 0
2, 22056, Note_on_c, 0, 69, 80
2, 22079, Note_on_c, 0, 69, 0
2, 22080, Note_on_c, 0, 67, 80
2, 22125, Note_on_c, 0, 67, 0
2, 22176, Note_on_c, 0, 71, 80
2, 22199, Note_on_c, 0, 71, 0
2, 22200, Note_on_c, 0, 74, 80
2, 22223, Note_on_c, 0, 74, 0
2, 22224, Note_on_c, 0, 71, 80
2, 22247, Note_on_c, 0, 71, 0
2, 22248, Note_on_c, 0, 67, 80
2, 22271, Note_on_c, 0, 67, 0
2, 22272, Note_on_c, 0, 66, 80
2, 22295, Note_on_c, 0, 66, 0
2, 22296, Note_on_c, 0, 69, 80
2, 22319, Note_on_c, 0, 69, 0
2, 22320, Note_on_c, 0, 66, 80
2, 22343, Note_on_c, 0, 66, 0
2, 22344, Note_on_c, 0, 62, 80
2, 22367, Note_on_c, 0, 62, 0
2, 22368, Note_on_c, 0, 60, 80
2, 22391, Note_on_c, 0, 60, 0
2, 22392, Note_on_c, 0, 64, 80
2, 22415, Note_on_c, 0, 64, 0
2, 22416, Note_on_c, 0, 60, 80
2, 22439, Note_on_c, 0, 60, 0
2, 22440, Note_on_c, 0, 57, 80
2, 22463, Note_on_c, 0, 57, 0
2, 22464, Note_on_c, 0, 55, 80
2, 22509, Note_on_c, 0, 55, 0
2, 22560, Note_on_c, 0, 71, 75
2, 22560, Note_on_c, 0, 67, 75
2, 22580, Note_on_c, 0, 71, 0
2, 22580, Note_on_c, 0, 67, 0
2, 22608, Note_on_c, 0, 71, 75
2, 22608, Note_on_c, 0, 67, 75
2, 22628, Note_on_c, 0, 71, 0
2, 22628, Note_on_c, 0, 67, 0
2, 22656, Note_on_c, 0, 72, 75
2, 22679, Note_on_c, 0, 72, 0
2, 22680, Note_on_c, 0, 71, 75
2, 22703, Note_on_c, 0, 71, 0
2, 22704, Note_on_c, 0, 69, 75
2, 22727, Note_on_c, 0, 69, 0
2, 22728, Note_on_c, 0, 67, 75
2, 22751, Note_on_c, 0, 67, 0
2, 22752, Note_on_c, 0, 74, 75
2, 22752, Note_on_c, 0, 71, 75
2, 22772, Note_on_c, 0, 74, 0
2, 22772, Note_on_c, 0, 71, 0
2, 22800, Note_on_c, 0, 74, 75
2, 22800, Note_on_c, 0, 71, 75
2, 22820, Note_on_c, 0, 74, 0
2, 22820, Note_on_c, 0, 71, 0
2, 22848, Note_on_c, 0, 76, 75
2, 22871, Note_on_c, 0, 76, 0
2, 22872, Note_on_c, 0, 74, 75
2, 22895, Note_on_c, 0, 74, 0
2, 22896, Note_on_c, 0, 72, 75
2, 22919, Note_on_c, 0, 72, 0
2, 22920, Note_on_c, 0, 71, 75
2, 22943, Note_on_c, 0, 71, 0
2, 22944, Note_on_c, 0, 77, 75
2, 22944, Note_on_c, 0, 74, 75
2, 22964, Note_on_c, 0, 77, 0
2, 22964, Note_on_c, 0, 74, 0
2, 22992, Note_on_c, 0, 77, 75
2, 22992, Note_on_c, 0, 74, 75
2, 23012, Note_on_c, 0, 77, 0
2, 23012, Note_on_c, 0, 74, 0
2, 23040, Note_on_c, 0, 79, 75
2, 23063, Note_on_c, 0, 79, 0
2, 23064, Note_on_c, 0, 77, 75
2, 23087, Note_on_c, 0, 77, 0
2, 23088, Note_on_c, 0, 76, 75
2, 23111, Note_on_c, 0, 76, 0
2, 23112, Note_on_c, 0, 74, 75
2, 23135, Note_on_c, 0, 74, 0
2, 23136, Note_on_c, 0, 81, 64
2, 23136, Note_on_c, 0, 77, 64
2, 23156, Note_on_c, 0, 81, 0
2, 23156, Note_on_c, 0, 77, 0
2, 23184, Note_on_c, 0, 81, 64
2, 23184, Note_on_c, 0, 77, 64
2, 23204, Note_on_c, 0, 81, 0
2, 23204, Note_on_c, 0, 77, 0
2, 23232, Note_on_c, 0, 81, 64
2, 23232, Note_on_c, 0, 77, 64
2, 23277, Note_on_c, 0, 81, 0
2, 23277, Note_on_c, 0, 77, 0
2, 23328, Note_on_c, 0, 77, 58
2, 23328, Note_on_c, 0, 71, 58
2, 23348, Note_on_c, 0, 77, 0
2, 23348, Note_on_c, 0, 71, 0
2, 23376, Note_on_c, 0, 77, 58
2, 23376, Note_on_c, 0, 71, 58
2, 23396, Note_on_c, 0, 77, 0
2, 23396, Note_on_c, 0, 71, 0
2, 23424, Note_on_c, 0, 77, 58
2, 23424, Note_on_c, 0, 71, 58
2, 23469, Note_on_c, 0, 77, 0
2, 23469, Note_on_c, 0, 71, 0
2, 23520, Note_on_c, 0, 79, 75
2, 23540, Note_on_c, 0, 79, 0
2, 23568, Note_on_c, 0, 79, 75
2, 23588, Note_on_c, 0, 79, 0
2, 23616, Note_on_c, 0, 81, 75
2, 23639, Note_on_c, 0, 81, 0
2, 23640, Note_on_c, 0, 79, 75
2, 23663, Note_on_c, 0, 79, 0
2, 23664, Note_on_c, 0, 77, 75
2, 23687, Note_on_c, 0, 77, 0
2, 23688, Note_on_c, 0, 76, 75
2, 23711, Note_on_c, 0, 76, 0
2, 23712, Note_on_c, 0, 76, 75
2, 23735, Note_on_c, 0, 76, 0
2, 23736, Note_on_c, 0, 74, 75
2, 23759, Note_on_c, 0, 74, 0
2, 23760, Note_on_c, 0, 72, 75
2, 23783, Note_on_c, 0, 72, 0
2, 23784, Note_on_c, 0, 71, 75
2, 23807, Note_on_c, 0, 71, 0
2, 23808, Note_on_c, 0, 72, 75
2, 23856, Note_on_c, 0, 72, 0
2, 23856, Note_on_c, 0, 67, 75
2, 23901, Note_on_c, 0, 67, 0
2, 23904, Note_on_c, 0, 72, 75
2, 23952, Note_on_c, 0, 72, 0
2, 23952, Note_on_c, 0, 73, 75
2, 23972, Note_on_c, 0, 73, 0
2, 24000, Note_on_c, 0, 74, 75
2, 24048, Note_on_c, 0, 74, 0
2, 24048, Note_on_c, 0, 67, 75
2, 24093, Note_on_c, 0, 67, 0
2, 24096, Note_on_c, 0, 74, 75
2, 24144, Note_on_c, 0, 74, 0
2, 24144, Note_on_c, 0, 75, 75
2, 24164, Note_on_c, 0, 75, 0
2, 24192, Note_on_c, 0, 76, 75
2, 24240, Note_on_c, 0, 76, 0
2, 24240, Note_on_c, 0, 72, 75
2, 24285, Note_on_c, 0, 72, 0
2, 24288, Note_on_c, 0, 76, 75
2, 24308, Note_on_c, 0, 76, 0
2, 24336, Note_on_c, 0, 77, 76
2, 24356, Note_on_c, 0, 77, 0
2, 24384, Note_on_c, 0, 78, 77
2, 24407, Note_on_c, 0, 78, 0
2, 24408, Note_on_c, 0, 79, 78
2, 24431, Note_on_c, 0, 79, 0
2, 24432, Note_on_c, 0, 81, 78
2, 24455, Note_on_c, 0, 81, 0
2, 24456, Note_on_c, 0, 79, 79
2, 24479, Note_on_c, 0, 79, 0
2, 24480, Note_on_c, 0, 77, 80
2, 24500, Note_on_c, 0, 77, 0
2, 24528, Note_on_c, 0, 76, 78
2, 24548, Note_on_c, 0, 76, 0
2, 24576, Note_on_c, 0, 74, 76
2, 24621, Note_on_c, 0, 74, 0
2, 24672, Note_on_c, 0, 79, 75
2, 24692, Note_on_c, 0, 79, 0
2, 24720, Note_on_c, 0, 79, 75
2, 24740, Note_on_c, 0, 79, 0
2, 24768, Note_on_c, 0, 81, 75
2, 24791, Note_on_c, 0, 81, 0
2, 24792, Note_on_c, 0, 79, 75
2, 24815, Note_on_c, 0, 79, 0
2, 24816, Note_on_c, 0, 77, 75
2, 24839, Note_on_c, 0, 77, 0
2, 24840, Note_on_c, 0, 76, 75
2, 24863, Note_on_c, 0, 76, 0
2, 24864, Note_on_c, 0, 76, 75
2, 24887, Note_on_c, 0, 76, 0
2, 24888, Note_on_c, 0, 74, 75
2, 24911, Note_on_c, 0, 74, 0
2, 24912, Note_on_c, 0, 72, 75
2, 24935, Note_on_c, 0, 72, 0
2, 24936, Note_on_c, 0, 71, 75
2, 24959, Note_on_c, 0, 71, 0
2, 24960, Note_on_c, 0, 72, 75
2, 25008, Note_on_c, 0, 72, 0
2, 25008, Note_on_c, 0, 67, 75
2, 25053, Note_on_c, 0, 67, 0
2, 25056, Note_on_c, 0, 79, 75
2, 25104, Note_on_c, 0, 79, 0
2, 25104, Note_on_c, 0, 73, 75
2, 25124, Note_on_c, 0, 73, 0
2, 25152, Note_on_c, 0, 74, 76
2, 25200, Note_on_c, 0, 74, 0
2, 25200, Note_on_c, 0, 67, 76
2, 25245, Note_on_c, 0, 67, 0
2, 25248, Note_on_c, 0, 79, 77
2, 25296, Note_on_c, 0, 79, 0
2, 25296, Note_on_c, 0, 75, 78
2, 25316, Note_on_c, 0, 75, 0
2, 25344, Note_on_c, 0, 76, 78
2, 25392, Note_on_c, 0, 76, 0
2, 25392, Note_on_c, 0, 72, 79
2, 25437, Note_on_c, 0, 72, 0
2, 25440, Note_on_c, 0, 84, 80
2, 25440, Note_on_c, 0, 76, 80
2, 25460, Note_on_c, 0, 84, 0
2, 25460, Note_on_c, 0, 76, 0
2, 25488, Note_on_c, 0, 83, 80
2, 25488, Note_on_c, 0, 74, 80
2, 25508, Note_on_c, 0, 83, 0
2, 25508, Note_on_c, 0, 74, 0
2, 25536, Note_on_c, 0, 82, 80
2, 25536, Note_on_c, 0, 73, 80
2, 25556, Note_on_c, 0, 82, 0
2, 25556, Note_on_c, 0, 73, 0
2, 25584, Note_on_c, 0, 81, 80
2, 25584, Note_on_c, 0, 72, 80
2, 25604, Note_on_c, 0, 81, 0
2, 25604, Note_on_c, 0, 72, 0
2, 25632, Note_on_c, 0, 79, 80
2, 25632, Note_on_c, 0, 71, 80
2, 25652, Note_on_c, 0, 79, 0
2, 25652, Note_on_c, 0, 71, 0
2, 25680, Note_on_c, 0, 78, 80
2, 25680, Note_on_c, 0, 69, 80
2, 25700, Note_on_c, 0, 78, 0
2, 25700, Note_on_c, 0, 69, 0
2, 25728, Note_on_c, 0, 79, 80
2, 25728, Note_on_c, 0, 67, 80
2, 25817, Note_on_c, 0, 79, 0
2, 25817, Note_on_c, 0, 67, 0
2, 26016, Note_on_c, 0, 77, 75
2, 26016, Note_on_c, 0, 74, 75
2, 26036, Note_on_c, 0, 77, 0
2, 26036, Note_on_c, 0, 74, 0
2, 26064, Note_on_c, 0, 76, 75
2, 26064, Note_on_c, 0, 72, 75
2, 26084, Note_on_c, 0, 76, 0
2, 26084, Note_on_c, 0, 72, 0
2, 26112, Note_on_c, 0, 73, 75
2, 26112, Note_on_c, 0, 70, 75
2, 26160, Note_on_c, 0, 73, 0
2, 26160, Note_on_c, 0, 70, 0
2, 26160, Note_on_c, 0, 74, 75
2, 26160, Note_on_c, 0, 71, 75
2, 26205, Note_on_c, 0, 74, 0
2, 26205, Note_on_c, 0, 71, 0
2, 26400, Note_on_c, 0, 79, 75
2, 26400, Note_on_c, 0, 76, 75
2, 26420, Note_on_c, 0, 79, 0
2, 26420, Note_on_c, 0, 76, 0
2, 26448, Note_on_c, 0, 77, 75
2, 26448, Note_on_c, 0, 74, 75
2, 26468, Note_on_c, 0, 77, 0
2, 26468, Note_on_c, 0, 74, 0
2, 26496, Note_on_c, 0, 75, 75
2, 26496, Note_on_c, 0, 71, 75
2, 26544, Note_on_c, 0, 75, 0
2, 26544, Note_on_c, 0, 71, 0
2, 26544, Note_on_c, 0, 76, 75
2, 26544, Note_on_c, 0, 72, 75
2, 26589, Note_on_c, 0, 76, 0
2, 26589, Note_on_c, 0, 72, 0
2, 26592, Note_on_c, 0, 82, 75
2, 26612, Note_on_c, 0, 82, 0
2, 26640, Note_on_c, 0, 82, 75
2, 26660, Note_on_c, 0, 82, 0
2, 26688, Note_on_c, 0, 82, 75
2, 26711, Note_on_c, 0, 82, 0
2, 26712, Note_on_c, 0, 81, 75
2, 26735, Note_on_c, 0, 81, 0
2, 26736, Note_on_c, 0, 79, 75
2, 26759, Note_on_c, 0, 79, 0
2, 26760, Note_on_c, 0, 77, 75
2, 26783, Note_on_c, 0, 77, 0
2, 26784, Note_on_c, 0, 77, 75
2, 26807, Note_on_c, 0, 77, 0
2, 26808, Note_on_c, 0, 76, 75
2, 26831, Note_on_c, 0, 76, 0
2, 26832, Note_on_c, 0, 74, 75
2, 26855, Note_on_c, 0, 74, 0
2, 26856, Note_on_c, 0, 72, 75
2, 26879, Note_on_c, 0, 72, 0
2, 26880, Note_on_c, 0, 77, 80
2, 26900, Note_on_c, 0, 77, 0
2, 26928, Note_on_c, 0, 77, 80
2, 26948, Note_on_c, 0, 77, 0
2, 26976, Note_on_c, 0, 81, 81
2, 26996, Note_on_c, 0, 81, 0
2, 27024, Note_on_c, 0, 81, 82
2, 27044, Note_on_c, 0, 81, 0
2, 27072, Note_on_c, 0, 81, 83
2, 27095, Note_on_c, 0, 81, 0
2, 27096, Note_on_c, 0, 79, 83
2, 27119, Note_on_c, 0, 79, 0
2, 27120, Note_on_c, 0, 77, 84
2, 27143, Note_on_c, 0, 77, 0
2, 27144, Note_on_c, 0, 76, 84
2, 27167, Note_on_c, 0, 76, 0
2, 27168, Note_on_c, 0, 74, 85
2, 27180, Note_on_c, 0, 74, 0
2, 27180, Note_on_c, 0, 76, 85
2, 27192, Note_on_c, 0, 76, 0
2, 27192, Note_on_c, 0, 74, 85
2, 27213, Note_on_c, 0, 74, 0
2, 27216, Note_on_c, 0, 76, 86
2, 27239, Note_on_c, 0, 76, 0
2, 27240, Note_on_c, 0, 72, 86
2, 27263, Note_on_c, 0, 72, 0
2, 27264, Note_on_c, 0, 72, 86
2, 27287, Note_on_c, 0, 72, 0
2, 27288, Note_on_c, 0, 71, 86
2, 27311, Note_on_c, 0, 71, 0
2, 27312, Note_on_c, 0, 69, 86
2, 27335, Note_on_c, 0, 69, 0
2, 27336, Note_on_c, 0, 67, 86
2, 27359, Note_on_c, 0, 67, 0
2, 27360, Note_on_c, 0, 79, 75
2, 27380, Note_on_c, 0, 79, 0
2, 27408, Note_on_c, 0, 79, 75
2, 27428, Note_on_c, 0, 79, 0
2, 27456, Note_on_c, 0, 81, 75
2, 27479, Note_on_c, 0, 81, 0
2, 27480, Note_on_c, 0, 79, 75
2, 27503, Note_on_c, 0, 79, 0
2, 27504, Note_on_c, 0, 77, 75
2, 27527, Note_on_c, 0, 77, 0
2, 27528, Note_on_c, 0, 76, 75
2, 27551, Note_on_c, 0, 76, 0
2, 27552, Note_on_c, 0, 76, 75
2, 27575, Note_on_c, 0, 76, 0
2, 27576, Note_on_c, 0, 74, 75
2, 27599, Note_on_c, 0, 74, 0
2, 27600, Note_on_c, 0, 72, 75
2, 27623, Note_on_c, 0, 72, 0
2, 27624, Note_on_c, 0, 71, 75
2, 27647, Note_on_c, 0, 71, 0
2, 27648, Note_on_c, 0, 72, 75
2, 27696, Note_on_c, 0, 72, 0
2, 27696, Note_on_c, 0, 67, 75
2, 27741, Note_on_c, 0, 67, 0
2, 27744, Note_on_c, 0, 72, 75
2, 27792, Note_on_c, 0, 72, 0
2, 27792, Note_on_c, 0, 73, 75
2, 27812, Note_on_c, 0, 73, 0
2, 27840, Note_on_c, 0, 74, 75
2, 27888, Note_on_c, 0, 74, 0
2, 27888, Note_on_c, 0, 67, 75
2, 27933, Note_on_c, 0, 67, 0
2, 27936, Note_on_c, 0, 74, 75
2, 27984, Note_on_c, 0, 74, 0
2, 27984, Note_on_c, 0, 75, 75
2, 28004, Note_on_c, 0, 75, 0
2, 28032, Note_on_c, 0, 76, 75
2, 28080, Note_on_c, 0, 76, 0
2, 28080, Note_on_c, 0, 72, 75
2, 28125, Note_on_c, 0, 72, 0
2, 28128, Note_on_c, 0, 76, 75
2, 28148, Note_on_c, 0, 76, 0
2, 28176, Note_on_c, 0, 76, 75
2, 28196, Note_on_c, 0, 76, 0
2, 28224, Note_on_c, 0, 79, 76
2, 28272, Note_on_c, 0, 79, 0
2, 28272, Note_on_c, 0, 77, 76
2, 28317, Note_on_c, 0, 77, 0
2, 28320, Note_on_c, 0, 78, 77
2, 28340, Note_on_c, 0, 78, 0
2, 28368, Note_on_c, 0, 78, 78
2, 28388, Note_on_c, 0, 78, 0
2, 28416, Note_on_c, 0, 81, 78
2, 28464, Note_on_c, 0, 81, 0
2, 28464, Note_on_c, 0, 79, 79
2, 28509, Note_on_c, 0, 79, 0
2, 28512, Note_on_c, 0, 89, 80
2, 28512, Note_on_c, 0, 77, 80
2, 28532, Note_on_c, 0, 89, 0
2, 28532, Note_on_c, 0, 77, 0
2, 28560, Note_on_c, 0, 88, 80
2, 28560, Note_on_c, 0, 76, 80
2, 28580, Note_on_c, 0, 88, 0
2, 28580, Note_on_c, 0, 76, 0
2, 28608, Note_on_c, 0, 86, 80
2, 28608, Note_on_c, 0, 74, 80
2, 28628, Note_on_c, 0, 86, 0
2, 28628, Note_on_c, 0, 74, 0
2, 28656, Note_on_c, 0, 84, 80
2, 28656, Note_on_c, 0, 72, 80
2, 28676, Note_on_c, 0, 84, 0
2, 28676, Note_on_c, 0, 72, 0
2, 28704, Note_on_c, 0, 83, 80
2, 28704, Note_on_c, 0, 71, 80
2, 28724, Note_on_c, 0, 83, 0
2, 28724, Note_on_c, 0, 71, 0
2, 28752, Note_on_c, 0, 84, 80
2, 28752, Note_on_c, 0, 72, 80
2, 28772, Note_on_c, 0, 84, 0
2, 28772, Note_on_c, 0, 72, 0
2, 28800, Note_on_c, 0, 86, 80
2, 28800, Note_on_c, 0, 74, 80
2, 28848, Note_on_c, 0, 86, 0
2, 28848, Note_on_c, 0, 74, 0
2, 28848, Note_on_c, 0, 84, 80
2, 28848, Note_on_c, 0, 72, 80
2, 28893, Note_on_c, 0, 84, 0
2, 28893, Note_on_c, 0, 72, 0
2, 28896, Note_on_c, 0, 81, 75
2, 28916, Note_on_c, 0, 81, 0
2, 28944, Note_on_c, 0, 81, 75
2, 28964, Note_on_c, 0, 81, 0
2, 28992, Note_on_c, 0, 81, 75
2, 29015, Note_on_c, 0, 81, 0
2, 29016, Note_on_c, 0, 79, 75
2, 29039, Note_on_c, 0, 79, 0
2, 29040, Note_on_c, 0, 77, 75
2, 29063, Note_on_c, 0, 77, 0
2, 29064, Note_on_c, 0, 76, 75
2, 29087, Note_on_c, 0, 76, 0
2, 29088, Note_on_c, 0, 76, 75
2, 29111, Note_on_c, 0, 76, 0
2, 29112, Note_on_c, 0, 74, 75
2, 29135, Note_on_c, 0, 74, 0
2, 29136, Note_on_c, 0, 72, 75
2, 29159, Note_on_c, 0, 72, 0
2, 29160, Note_on_c, 0, 71, 75
2, 29183, Note_on_c, 0, 71, 0
2, 29184, Note_on_c, 0, 72, 75
2, 29273, Note_on_c, 0, 72, 0
2, 29280, Note_on_c, 0, 55, 64
2, 29300, Note_on_c, 0, 55, 0
2, 29328, Note_on_c, 0, 55, 64
2, 29348, Note_on_c, 0, 55, 0
2, 29376, Note_on_c, 0, 56, 64
2, 29465, Note_on_c, 0, 56, 0
2, 29472, Note_on_c, 0, 59, 64
2, 29492, Note_on_c, 0, 59, 0
2, 29520, Note_on_c, 0, 59, 64
2, 29540, Note_on_c, 0, 59, 0
2, 29568, Note_on_c, 0, 60, 64
2, 29657, Note_on_c, 0, 60, 0
2, 29664, Note_on_c, 0, 55, 64
2, 29684, Note_on_c, 0, 55, 0
2, 29712, Note_on_c, 0, 55, 64
2, 29732, Note_on_c, 0, 55, 0
2, 29760, Note_on_c, 0, 58, 64
2, 29783, Note_on_c, 0, 58, 0
2, 29784, Note_on_c, 0, 56, 64
2, 29807, Note_on_c, 0, 56, 0
2, 29808, Note_on_c, 0, 55, 64
2, 29831, Note_on_c, 0, 55, 0
2, 29832, Note_on_c, 0, 56, 64
2, 29855, Note_on_c, 0, 56, 0
2, 29856, Note_on_c, 0, 59, 64
2, 29876, Note_on_c, 0, 59, 0
2, 29904, Note_on_c, 0, 59, 64
2, 29924, Note_on_c, 0, 59, 0
2, 29952, Note_on_c, 0, 62, 64
2, 29975, Note_on_c, 0, 62, 0
2, 29976, Note_on_c, 0, 60, 64
2, 29999, Note_on_c, 0, 60, 0
2, 30000, Note_on_c, 0, 59, 65
2, 30023, Note_on_c, 0, 59, 0
2, 30024, Note_on_c, 0, 60, 66
2, 30047, Note_on_c, 0, 60, 0
2, 30048, Note_on_c, 0, 62, 67
2, 30071, Note_on_c, 0, 62, 0
2, 30072, Note_on_c, 0, 63, 67
2, 30095, Note_on_c, 0, 63, 0
2, 30096, Note_on_c, 0, 65, 68
2, 30119, Note_on_c, 0, 65, 0
2, 30120, Note_on_c, 0, 63, 69
2, 30143, Note_on_c, 0, 63, 0
2, 30144, Note_on_c, 0, 61, 70
2, 30167, Note_on_c, 0, 61, 0
2, 30168, Note_on_c, 0, 62, 69
2, 30191, Note_on_c, 0, 62, 0
2, 30192, Note_on_c, 0, 63, 68
2, 30215, Note_on_c, 0, 63, 0
2, 30216, Note_on_c, 0, 62, 67
2, 30239, Note_on_c, 0, 62, 0
2, 30240, Note_on_c, 0, 59, 67
2, 30263, Note_on_c, 0, 59, 0
2, 30264, Note_on_c, 0, 60, 66
2, 30287, Note_on_c, 0, 60, 0
2, 30288, Note_on_c, 0, 62, 65
2, 30311, Note_on_c, 0, 62, 0
2, 30312, Note_on_c, 0, 60, 64
2, 30335, Note_on_c, 0, 60, 0
2, 30336, Note_on_c, 0, 60, 64
2, 30359, Note_on_c, 0, 60, 0
2, 30360, Note_on_c, 0, 59, 64
2, 30383, Note_on_c, 0, 59, 0
2, 30384, Note_on_c, 0, 57, 64
2, 30407, Note_on_c, 0, 57, 0
2, 30408, Note_on_c, 0, 55, 65
2, 30431, Note_on_c, 0, 55, 0
2, 30432, Note_on_c, 0, 55, 65
2, 30452, Note_on_c, 0, 55, 0
2, 30480, Note_on_c, 0, 55, 66
2, 30500, Note_on_c, 0, 55, 0
2, 30528, Note_on_c, 0, 56, 67
2, 30573, Note_on_c, 0, 56, 0
2, 30624, Note_on_c, 0, 59, 69
2, 30644, Note_on_c, 0, 59, 0
2, 30672, Note_on_c, 0, 59, 69
2, 30692, Note_on_c, 0, 59, 0
2, 30720, Note_on_c, 0, 60, 70
2, 30765, Note_on_c, 0, 60, 0
2, 30816, Note_on_c, 0, 67, 72
2, 30864, Note_on_c, 0, 67, 0
2, 30864, Note_on_c, 0, 55, 73
2, 30909, Note_on_c, 0, 55, 0
2, 30912, Note_on_c, 0, 58, 74
2, 30960, Note_on_c, 0, 58, 0
2, 30960, Note_on_c, 0, 56, 75
2, 31005, Note_on_c, 0, 56, 0
2, 31008, Note_on_c, 0, 68, 75
2, 31056, Note_on_c, 0, 68, 0
2, 31056, Note_on_c, 0, 59, 75
2, 31101, Note_on_c, 0, 59, 0
2, 31104, Note_on_c, 0, 62, 75
2, 31152, Note_on_c, 0, 62, 0
2, 31152, Note_on_c, 0, 60, 75
2, 31197, Note_on_c, 0, 60, 0
2, 31200, Note_on_c, 0, 63, 75
2, 31220, Note_on_c, 0, 63, 0
2, 31248, Note_on_c, 0, 63, 75
2, 31268, Note_on_c, 0, 63, 0
2, 31296, Note_on_c, 0, 62, 75
2, 31319, Note_on_c, 0, 62, 0
2, 31320, Note_on_c, 0, 63, 75
2, 31343, Note_on_c, 0, 63, 0
2, 31344, Note_on_c, 0, 65, 75
2, 31367, Note_on_c, 0, 65, 0
2, 31368, Note_on_c, 0, 63, 75
2, 31391, Note_on_c, 0, 63, 0
2, 31392, Note_on_c, 0, 70, 75
2, 31412, Note_on_c, 0, 70, 0
2, 31440, Note_on_c, 0, 61, 75
2, 31460, Note_on_c, 0, 61, 0
2, 31488, Note_on_c, 0, 59, 75
2, 31536, Note_on_c, 0, 59, 0
2, 31536, Note_on_c, 0, 60, 75
2, 31581, Note_on_c, 0, 60, 0
2, 31584, Note_on_c, 0, 63, 64
2, 31604, Note_on_c, 0, 63, 0
2, 31632, Note_on_c, 0, 63, 64
2, 31652, Note_on_c, 0, 63, 0
2, 31680, Note_on_c, 0, 62, 64
2, 31703, Note_on_c, 0, 62, 0
2, 31704, Note_on_c, 0, 63, 64
2, 31727, Note_on_c, 0, 63, 0
2, 31728, Note_on_c, 0, 65, 64
2, 31751, Note_on_c, 0, 65, 0
2, 31752, Note_on_c, 0, 63, 64
2, 31775, Note_on_c, 0, 63, 0
2, 31776, Note_on_c, 0, 70, 64
2, 31796, Note_on_c, 0, 70, 0
2, 31824, Note_on_c, 0, 61, 64
2, 31844, Note_on_c, 0, 61, 0
2, 31872, Note_on_c, 0, 59, 64
2, 31920, Note_on_c, 0, 59, 0
2, 31920, Note_on_c, 0, 60, 64
2, 31965, Note_on_c, 0, 60, 0
2, 31968, Note_on_c, 0, 63, 75
2, 31988, Note_on_c, 0, 63, 0
2, 32016, Note_on_c, 0, 63, 75
2, 32036, Note_on_c, 0, 63, 0
2, 32064, Note_on_c, 0, 62, 75
2, 32087, Note_on_c, 0, 62, 0
2, 32088, Note_on_c, 0, 63, 75
2, 32111, Note_on_c, 0, 63, 0
2, 32112, Note_on_c, 0, 65, 76
2, 32135, Note_on_c, 0, 65, 0
2, 32136, Note_on_c, 0, 63, 76
2, 32159, Note_on_c, 0, 63, 0
2, 32160, Note_on_c, 0, 60, 77
2, 32183, Note_on_c, 0, 60, 0
2, 32184, Note_on_c, 0, 61, 77
2, 32207, Note_on_c, 0, 61, 0
2, 32208, Note_on_c, 0, 63, 78
2, 32231, Note_on_c, 0, 63, 0
2, 32232, Note_on_c, 0, 61, 78
2, 32255, Note_on_c, 0, 61, 0
2, 32256, Note_on_c, 0, 59, 79
2, 32279, Note_on_c, 0, 59, 0
2, 32280, Note_on_c, 0, 60, 80
2, 32303, Note_on_c, 0, 60, 0
2, 32304, Note_on_c, 0, 61, 80
2, 32327, Note_on_c, 0, 61, 0
2, 32328, Note_on_c, 0, 60, 80
2, 32351, Note_on_c, 0, 60, 0
2, 32352, Note_on_c, 0, 57, 80
2, 32375, Note_on_c, 0, 57, 0
2, 32376, Note_on_c, 0, 58, 80
2, 32399, Note_on_c, 0, 58, 0
2, 32400, Note_on_c, 0, 60, 80
2, 32423, Note_on_c, 0, 60, 0
2, 32424, Note_on_c, 0, 58, 80
2, 32447, Note_on_c, 0, 58, 0
2, 32448, Note_on_c, 0, 55, 80
2, 32471, Note_on_c, 0, 55, 0
2, 32472, Note_on_c, 0, 56, 80
2, 32495, Note_on_c, 0, 56, 0
2, 32496, Note_on_c, 0, 58, 80
2, 32519, Note_on_c, 0, 58, 0
2, 32520, Note_on_c, 0, 56, 80
2, 32543, Note_on_c, 0, 56, 0
2, 32544, Note_on_c, 0, 65, 80
2, 32592, Note_on_c, 0, 65, 0
2, 32592, Note_on_c, 0, 56, 80
2, 32637, Note_on_c, 0, 56, 0
2, 32640, Note_on_c, 0, 55, 80
2, 32660, Note_on_c, 0, 55, 0
2, 32688, Note_on_c, 0, 55, 80
2, 32708, Note_on_c, 0, 55, 0
2, 32736, Note_on_c, 0, 58, 80
2, 32756, Note_on_c, 0, 58, 0
2, 32784, Note_on_c, 0, 58, 80
2, 32804, Note_on_c, 0, 58, 0
2, 32832, Note_on_c, 0, 65, 80
2, 32855, Note_on_c, 0, 65, 0
2, 32856, Note_on_c, 0, 63, 80
2, 32879, Note_on_c, 0, 63, 0
2, 32880, Note_on_c, 0, 62, 80
2, 32903, Note_on_c, 0, 62, 0
2, 32904, Note_on_c, 0, 60, 80
2, 32927, Note_on_c, 0, 60, 0
2, 32928, Note_on_c, 0, 62, 80
2, 32951, Note_on_c, 0, 62, 0
2, 32952, Note_on_c, 0, 60, 80
2, 32975, Note_on_c, 0, 60, 0
2, 32976, Note_on_c, 0, 58, 80
2, 32999, Note_on_c, 0, 58, 0
2, 33000, Note_on_c, 0, 57, 80
2, 33023, Note_on_c, 0, 57, 0
2, 33024, Note_on_c, 0, 60, 80
2, 33072, Note_on_c, 0, 60, 0
2, 33072, Note_on_c, 0, 58, 80
2, 33117, Note_on_c, 0, 58, 0
2, 33120, Note_on_c, 0, 62, 75
2, 33120, Note_on_c, 0, 58, 75
2, 33140, Note_on_c, 0, 62, 0
2, 33140, Note_on_c, 0, 58, 0
2, 33168, Note_on_c, 0, 63, 75
2, 33168, Note_on_c, 0, 60, 75
2, 33188, Note_on_c, 0, 63, 0
2, 33188, Note_on_c, 0, 60, 0
2, 33216, Note_on_c, 0, 64, 75
2, 33216, Note_on_c, 0, 61, 75
2, 33264, Note_on_c, 0, 64, 0
2, 33264, Note_on_c, 0, 61, 0
2, 33264, Note_on_c, 0, 65, 75
2, 33264, Note_on_c, 0, 62, 75
2, 33309, Note_on_c, 0, 65, 0
2, 33309, Note_on_c, 0, 62, 0
2, 33312, Note_on_c, 0, 65, 75
2, 33312, Note_on_c, 0, 62, 75
2, 33332, Note_on_c, 0, 65, 0
2, 33332, Note_on_c, 0, 62, 0
2, 33360, Note_on_c, 0, 66, 75
2, 33360, Note_on_c, 0, 63, 75
2, 33380, Note_on_c, 0, 66, 0
2, 33380, Note_on_c, 0, 63, 0
2, 33408, Note_on_c, 0, 67, 75
2, 33408, Note_on_c, 0, 64, 75
2, 33456, Note_on_c, 0, 67, 0
2, 33456, Note_on_c, 0, 64, 0
2, 33456, Note_on_c, 0, 68, 75
2, 33456, Note_on_c, 0, 65, 75
2, 33501, Note_on_c, 0, 68, 0
2, 33501, Note_on_c, 0, 65, 0
2, 33504, Note_on_c, 0, 68, 75
2, 33504, Note_on_c, 0, 65, 75
2, 33524, Note_on_c, 0, 68, 0
2, 33524, Note_on_c, 0, 65, 0
2, 33552, Note_on_c, 0, 70, 76
2, 33552, Note_on_c, 0, 67, 76
2, 33572, Note_on_c, 0, 70, 0
2, 33572, Note_on_c, 0, 67, 0
2, 33600, Note_on_c, 0, 71, 77
2, 33600, Note_on_c, 0, 67, 77
2, 33645, Note_on_c, 0, 71, 0
2, 33645, Note_on_c, 0, 67, 0
2, 33648, Note_on_c, 0, 72, 93
2, 33648, Note_on_c, 0, 68, 93
2, 33837, Note_on_c, 0, 72, 0
2, 33837, Note_on_c, 0, 68, 0
2, 33840, Note_on_c, 0, 70, 80
2, 33840, Note_on_c, 0, 67, 80
2, 33860, Note_on_c, 0, 70, 0
2, 33860, Note_on_c, 0, 67, 0
2, 33888, Note_on_c, 0, 68, 78
2, 33888, Note_on_c, 0, 65, 78
2, 33908, Note_on_c, 0, 68, 0
2, 33908, Note_on_c, 0, 65, 0
2, 33936, Note_on_c, 0, 67, 77
2, 33936, Note_on_c, 0, 63, 77
2, 33956, Note_on_c, 0, 67, 0
2, 33956, Note_on_c, 0, 63, 0
2, 33984, Note_on_c, 0, 67, 76
2, 33984, Note_on_c, 0, 60, 76
2, 34032, Note_on_c, 0, 67, 0
2, 34032, Note_on_c, 0, 60, 0
2, 34032, Note_on_c, 0, 65, 75
2, 34032, Note_on_c, 0, 56, 75
2, 34077, Note_on_c, 0, 65, 0
2, 34077, Note_on_c, 0, 56, 0
2, 34080, Note_on_c, 0, 63, 74
2, 34080, Note_on_c, 0, 55, 74
2, 34100, Note_on_c, 0, 63, 0
2, 34100, Note_on_c, 0, 55, 0
2, 34128, Note_on_c, 0, 62, 73
2, 34128, Note_on_c, 0, 53, 73
2, 34148, Note_on_c, 0, 62, 0
2, 34148, Note_on_c, 0, 53, 0
2, 34176, Note_on_c, 0, 65, 72
2, 34224, Note_on_c, 0, 65, 0
2, 34224, Note_on_c, 0, 63, 71
2, 34269, Note_on_c, 0, 63, 0
2, 34272, Note_on_c, 0, 62, 75
2, 34272, Note_on_c, 0, 58, 75
2, 34292, Note_on_c, 0, 62, 0
2, 34292, Note_on_c, 0, 58, 0
2, 34320, Note_on_c, 0, 63, 75
2, 34320, Note_on_c, 0, 60, 75
2, 34340, Note_on_c, 0, 63, 0
2, 34340, Note_on_c, 0, 60, 0
2, 34368, Note_on_c, 0, 64, 75
2, 34368, Note_on_c, 0, 61, 75
2, 34416, Note_on_c, 0, 64, 0
2, 34416, Note_on_c, 0, 61, 0
2, 34416, Note_on_c, 0, 65, 75
2, 34416, Note_on_c, 0, 62, 75
2, 34461, Note_on_c, 0, 65, 0
2, 34461, Note_on_c, 0, 62, 0
2, 34464, Note_on_c, 0, 65, 75
2, 34464, Note_on_c, 0, 62, 75
2, 34484, Note_on_c, 0, 65, 0
2, 34484, Note_on_c, 0, 62, 0
2, 34512, Note_on_c, 0, 66, 75
2, 34512, Note_on_c, 0, 63, 75
2, 34532, Note_on_c, 0, 66, 0
2, 34532, Note_on_c, 0, 63, 0
2, 34560, Note_on_c, 0, 67, 75
2, 34560, Note_on_c, 0, 64, 75
2, 34608, Note_on_c, 0, 67, 0
2, 34608, Note_on_c, 0, 64, 0
2, 34608, Note_on_c, 0, 68, 75
2, 34608, Note_on_c, 0, 65, 75
2, 34653, Note_on_c, 0, 68, 0
2, 34653, Note_on_c, 0, 65, 0
2, 34656, Note_on_c, 0, 68, 75
2, 34656, Note_on_c, 0, 65, 75
2, 34676, Note_on_c, 0, 68, 0
2, 34676, Note_on_c, 0, 65, 0
2, 34704, Note_on_c, 0, 70, 76
2, 34704, Note_on_c, 0, 67, 76
2, 34724, Note_on_c, 0, 70, 0
2, 34724, Note_on_c, 0, 67, 0
2, 34752, Note_on_c, 0, 71, 77
2, 34752, Note_on_c, 0, 67, 77
2, 34797, Note_on_c, 0, 71, 0
2, 34797, Note_on_c, 0, 67, 0
2, 34800, Note_on_c, 0, 72, 93
2, 34800, Note_on_c, 0, 68, 93
2, 34989, Note_on_c, 0, 72, 0
2, 34989, Note_on_c, 0, 68, 0
2, 34992, Note_on_c, 0, 70, 80
2, 34992, Note_on_c, 0, 67, 80
2, 35012, Note_on_c, 0, 70, 0
2, 35012, Note_on_c, 0, 67, 0
2, 35040, Note_on_c, 0, 68, 78
2, 35040, Note_on_c, 0, 65, 78
2, 35060, Note_on_c, 0, 68, 0
2, 35060, Note_on_c, 0, 65, 0
2, 35088, Note_on_c, 0, 67, 77
2, 35088, Note_on_c, 0, 63, 77
2, 35108, Note_on_c, 0, 67, 0
2, 35108, Note_on_c, 0, 63, 0
2, 35136, Note_on_c, 0, 67, 76
2, 35136, Note_on_c, 0, 60, 76
2, 35184, Note_on_c, 0, 67, 0
2, 35184, Note_on_c, 0, 60, 0
2, 35184, Note_on_c, 0, 65, 75
2, 35184, Note_on_c, 0, 56, 75
2, 35229, Note_on_c, 0, 65, 0
2, 35229, Note_on_c, 0, 56, 0
2, 35232, Note_on_c, 0, 63, 74
2, 35232, Note_on_c, 0, 55, 74
2, 35252, Note_on_c, 0, 63, 0
2, 35252, Note_on_c, 0, 55, 0
2, 35280, Note_on_c, 0, 62, 73
2, 35280, Note_on_c, 0, 53, 73
2, 35300, Note_on_c, 0, 62, 0
2, 35300, Note_on_c, 0, 53, 0
2, 35328, Note_on_c, 0, 63, 72
2, 35373, Note_on_c, 0, 63, 0
2, 35424, Note_on_c, 0, 70, 75
2, 35444, Note_on_c, 0, 70, 0
2, 35472, Note_on_c, 0, 70, 75
2, 35492, Note_on_c, 0, 70, 0
2, 35520, Note_on_c, 0, 68, 75
2, 35543, Note_on_c, 0, 68, 0
2, 35544, Note_on_c, 0, 67, 75
2, 35567, Note_on_c, 0, 67, 0
2, 35568, Note_on_c, 0, 65, 75
2, 35591, Note_on_c, 0, 65, 0
2, 35592, Note_on_c, 0, 63, 75
2, 35615, Note_on_c, 0, 63, 0
2, 35616, Note_on_c, 0, 62, 75
2, 35636, Note_on_c, 0, 62, 0
2, 35664, Note_on_c, 0, 62, 75
2, 35684, Note_on_c, 0, 62, 0
2, 35712, Note_on_c, 0, 63, 75
2, 35757, Note_on_c, 0, 63, 0
2, 35808, Note_on_c, 0, 82, 75
2, 35828, Note_on_c, 0, 82, 0
2, 35856, Note_on_c, 0, 82, 75
2, 35876, Note_on_c, 0, 82, 0
2, 35904, Note_on_c, 0, 80, 75
2, 35927, Note_on_c, 0, 80, 0
2, 35928, Note_on_c, 0, 79, 75
2, 35951, Note_on_c, 0, 79, 0
2, 35952, Note_on_c, 0, 77, 75
2, 35975, Note_on_c, 0, 77, 0
2, 35976, Note_on_c, 0, 75, 75
2, 35999, Note_on_c, 0, 75, 0
2, 36000, Note_on_c, 0, 77, 75
2, 36000, Note_on_c, 0, 74, 75
2, 36020, Note_on_c, 0, 77, 0
2, 36020, Note_on_c, 0, 74, 0
2, 36048, Note_on_c, 0, 77, 75
2, 36048, Note_on_c, 0, 74, 75
2, 36068, Note_on_c, 0, 77, 0
2, 36068, Note_on_c, 0, 74, 0
2, 36096, Note_on_c, 0, 79, 75
2, 36096, Note_on_c, 0, 75, 75
2, 36141, Note_on_c, 0, 79, 0
2, 36141, Note_on_c, 0, 75, 0
2, 36192, Note_on_c, 0, 74, 75
2, 36192, Note_on_c, 0, 71, 75
2, 36212, Note_on_c, 0, 74, 0
2, 36212, Note_on_c, 0, 71, 0
2, 36240, Note_on_c, 0, 74, 75
2, 36240, Note_on_c, 0, 71, 75
2, 36260, Note_on_c, 0, 74, 0
2, 36260, Note_on_c, 0, 71, 0
2, 36288, Note_on_c, 0, 75, 75
2, 36288, Note_on_c, 0, 72, 75
2, 36333, Note_on_c, 0, 75, 0
2, 36333, Note_on_c, 0, 72, 0
2, 36384, Note_on_c, 0, 70, 75
2, 36384, Note_on_c, 0, 67, 75
2, 36404, Note_on_c, 0, 70, 0
2, 36404, Note_on_c, 0, 67, 0
2, 36432, Note_on_c, 0, 70, 75
2, 36432, Note_on_c, 0, 67, 75
2, 36452, Note_on_c, 0, 70, 0
2, 36452, Note_on_c, 0, 67, 0
2, 36480, Note_on_c, 0, 72, 75
2, 36480, Note_on_c, 0, 68, 75
2, 36525, Note_on_c, 0, 72, 0
2, 36525, Note_on_c, 0, 68, 0
2, 36576, Note_on_c, 0, 67, 75
2, 36576, Note_on_c, 0, 64, 75
2, 36596, Note_on_c, 0, 67, 0
2, 36596, Note_on_c, 0, 64, 0
2, 36624, Note_on_c, 0, 67, 75
2, 36624, Note_on_c, 0, 64, 75
2, 36644, Note_on_c, 0, 67, 0
2, 36644, Note_on_c, 0, 64, 0
2, 36672, Note_on_c, 0, 68, 75
2, 36672, Note_on_c, 0, 65, 75
2, 36717, Note_on_c, 0, 68, 0
2, 36717, Note_on_c, 0, 65, 0
2, 36768, Note_on_c, 0, 84, 75
2, 36768, Note_on_c, 0, 72, 75
2, 36788, Note_on_c, 0, 84, 0
2, 36788, Note_on_c, 0, 72, 0
2, 36816, Note_on_c, 0, 84, 75
2, 36816, Note_on_c, 0, 72, 75
2, 36836, Note_on_c, 0, 84, 0
2, 36836, Note_on_c, 0, 72, 0
2, 36864, Note_on_c, 0, 82, 75
2, 36887, Note_on_c, 0, 82, 0
2, 36888, Note_on_c, 0, 80, 75
2, 36911, Note_on_c, 0, 80, 0
2, 36912, Note_on_c, 0, 79, 75
2, 36935, Note_on_c, 0, 79, 0
2, 36936, Note_on_c, 0, 77, 75
2, 36959, Note_on_c, 0, 77, 0
2, 36960, Note_on_c, 0, 83, 75
2, 36972, Note_on_c, 0, 83, 0
2, 36972, Note_on_c, 0, 84, 75
2, 37005, Note_on_c, 0, 84, 0
2, 37008, Note_on_c, 0, 83, 75
2, 37020, Note_on_c, 0, 83, 0
2, 37020, Note_on_c, 0, 84, 75
2, 37053, Note_on_c, 0, 84, 0
2, 37056, Note_on_c, 0, 82, 75
2, 37079, Note_on_c, 0, 82, 0
2, 37080, Note_on_c, 0, 80, 75
2, 37103, Note_on_c, 0, 80, 0
2, 37104, Note_on_c, 0, 79, 75
2, 37127, Note_on_c, 0, 79, 0
2, 37128, Note_on_c, 0, 77, 75
2, 37151, Note_on_c, 0, 77, 0
2, 37152, Note_on_c, 0, 83, 75
2, 37176, Note_on_c, 0, 83, 0
2, 37176, Note_on_c, 0, 84, 75
2, 37199, Note_on_c, 0, 84, 0
2, 37200, Note_on_c, 0, 83, 75
2, 37224, Note_on_c, 0, 83, 0
2, 37224, Note_on_c, 0, 84, 75
2, 37247, Note_on_c, 0, 84, 0
2, 37248, Note_on_c, 0, 82, 75
2, 37271, Note_on_c, 0, 82, 0
2, 37272, Note_on_c, 0, 80, 75
2, 37295, Note_on_c, 0, 80, 0
2, 37296, Note_on_c, 0, 79, 75
2, 37319, Note_on_c, 0, 79, 0
2, 37320, Note_on_c, 0, 77, 75
2, 37343, Note_on_c, 0, 77, 0
2, 37344, Note_on_c, 0, 77, 75
2, 37367, Note_on_c, 0, 77, 0
2, 37368, Note_on_c, 0, 75, 75
2, 37391, Note_on_c, 0, 75, 0
2, 37392, Note_on_c, 0, 74, 75
2, 37415, Note_on_c, 0, 74, 0
2, 37416, Note_on_c, 0, 72, 75
2, 37439, Note_on_c, 0, 72, 0
2, 37440, Note_on_c, 0, 72, 75
2, 37463, Note_on_c, 0, 72, 0
2, 37464, Note_on_c, 0, 71, 75
2, 37487, Note_on_c, 0, 71, 0
2, 37488, Note_on_c, 0, 69, 75
2, 37511, Note_on_c, 0, 69, 0
2, 37512, Note_on_c, 0, 67, 75
2, 37535, Note_on_c, 0, 67, 0
2, 37536, Note_on_c, 0, 67, 75
2, 37581, Note_on_c, 0, 67, 0
2, 37584, Note_on_c, 0, 67, 75
2, 37629, Note_on_c, 0, 67, 0
2, 37632, Note_on_c, 0, 71, 75
2, 37655, Note_on_c, 0, 71, 0
2, 37656, Note_on_c, 0, 69, 75
2, 37679, Note_on_c, 0, 69, 0
2, 37680, Note_on_c, 0, 67, 75
2, 37703, Note_on_c, 0, 67, 0
2, 37704, Note_on_c, 0, 69, 75
2, 37727, Note_on_c, 0, 69, 0
2, 37728, Note_on_c, 0, 72, 75
2, 37751, Note_on_c, 0, 72, 0
2, 37752, Note_on_c, 0, 71, 75
2, 37775, Note_on_c, 0, 71, 0
2, 37776, Note_on_c, 0, 69, 75
2, 37799, Note_on_c, 0, 69, 0
2, 37800, Note_on_c, 0, 71, 75
2, 37823, Note_on_c, 0, 71, 0
2, 37824, Note_on_c, 0, 74, 75
2, 37847, Note_on_c, 0, 74, 0
2, 37848, Note_on_c, 0, 72, 75
2, 37871, Note_on_c, 0, 72, 0
2, 37872, Note_on_c, 0, 71, 75
2, 37895, Note_on_c, 0, 71, 0
2, 37896, Note_on_c, 0, 72, 75
2, 37919, Note_on_c, 0, 72, 0
2, 37920, Note_on_c, 0, 74, 75
2, 37965, Note_on_c, 0, 74, 0
2, 37968, Note_on_c, 0, 74, 75
2, 38013, Note_on_c, 0, 74, 0
2, 38016, Note_on_c, 0, 77, 75
2, 38039, Note_on_c, 0, 77, 0
2, 38040, Note_on_c, 0, 75, 75
2, 38063, Note_on_c, 0, 75, 0
2, 38064, Note_on_c, 0, 74, 75
2, 38087, Note_on_c, 0, 74, 0
2, 38088, Note_on_c, 0, 75, 75
2, 38111, Note_on_c, 0, 75, 0
2, 38112, Note_on_c, 0, 79, 75
2, 38135, Note_on_c, 0, 79, 0
2, 38136, Note_on_c, 0, 78, 75
2, 38159, Note_on_c, 0, 78, 0
2, 38160, Note_on_c, 0, 76, 75
2, 38183, Note_on_c, 0, 76, 0
2, 38184, Note_on_c, 0, 78, 75
2, 38207, Note_on_c, 0, 78, 0
2, 38208, Note_on_c, 0, 79, 75
2, 38253, Note_on_c, 0, 79, 0
2, 38304, Note_on_c, 0, 80, 64
2, 38304, Note_on_c, 0, 77, 64
2, 38324, Note_on_c, 0, 80, 0
2, 38324, Note_on_c, 0, 77, 0
2, 38352, Note_on_c, 0, 80, 64
2, 38352, Note_on_c, 0, 77, 64
2, 38372, Note_on_c, 0, 80, 0
2, 38372, Note_on_c, 0, 77, 0
2, 38400, Note_on_c, 0, 80, 64
2, 38400, Note_on_c, 0, 77, 64
2, 38445, Note_on_c, 0, 80, 0
2, 38445, Note_on_c, 0, 77, 0
2, 38688, Note_on_c, 0, 79, 58
2, 38688, Note_on_c, 0, 77, 58
2, 38708, Note_on_c, 0, 79, 0
2, 38708, Note_on_c, 0, 77, 0
2, 38736, Note_on_c, 0, 79, 58
2, 38736, Note_on_c, 0, 77, 58
2, 38756, Note_on_c, 0, 79, 0
2, 38756, Note_on_c, 0, 77, 0
2, 38784, Note_on_c, 0, 79, 58
2, 38784, Note_on_c, 0, 77, 58
2, 38829, Note_on_c, 0, 79, 0
2, 38829, Note_on_c, 0, 77, 0
2, 39072, Note_on_c, 0, 79, 75
2, 39092, Note_on_c, 0, 79, 0
2, 39120, Note_on_c, 0, 79, 75
2, 39140, Note_on_c, 0, 79, 0
2, 39168, Note_on_c, 0, 81, 75
2, 39191, Note_on_c, 0, 81, 0
2, 39192, Note_on_c, 0, 79, 75
2, 39215, Note_on_c, 0, 79, 0
2, 39216, Note_on_c, 0, 77, 75
2, 39239, Note_on_c, 0, 77, 0
2, 39240, Note_on_c, 0, 76, 75
2, 39263, Note_on_c, 0, 76, 0
2, 39264, Note_on_c, 0, 76, 75
2, 39287, Note_on_c, 0, 76, 0
2, 39288, Note_on_c, 0, 74, 75
2, 39311, Note_on_c, 0, 74, 0
2, 39312, Note_on_c, 0, 72, 75
2, 39335, Note_on_c, 0, 72, 0
2, 39336, Note_on_c, 0, 71, 75
2, 39359, Note_on_c, 0, 71, 0
2, 39360, Note_on_c, 0, 72, 75
2, 39408, Note_on_c, 0, 72, 0
2, 39408, Note_on_c, 0, 67, 75
2, 39453, Note_on_c, 0, 67, 0
2, 39456, Note_on_c, 0, 72, 75
2, 39504, Note_on_c, 0, 72, 0
2, 39504, Note_on_c, 0, 73, 75
2, 39524, Note_on_c, 0, 73, 0
2, 39552, Note_on_c, 0, 74, 75
2, 39600, Note_on_c, 0, 74, 0
2, 39600, Note_on_c, 0, 67, 75
2, 39645, Note_on_c, 0, 67, 0
2, 39648, Note_on_c, 0, 74, 75
2, 39696, Note_on_c, 0, 74, 0
2, 39696, Note_on_c, 0, 75, 75
2, 39716, Note_on_c, 0, 75, 0
2, 39744, Note_on_c, 0, 76, 75
2, 39789, Note_on_c, 0, 76, 0
2, 39792, Note_on_c, 0, 72, 75
2, 39837, Note_on_c, 0, 72, 0
2, 39840, Note_on_c, 0, 76, 75
2, 39860, Note_on_c, 0, 76, 0
2, 39888, Note_on_c, 0, 77, 76
2, 39908, Note_on_c, 0, 77, 0
2, 39936, Note_on_c, 0, 78, 77
2, 39959, Note_on_c, 0, 78, 0
2, 39960, Note_on_c, 0, 79, 78
2, 39983, Note_on_c, 0, 79, 0
2, 39984, Note_on_c, 0, 81, 78
2, 40007, Note_on_c, 0, 81, 0
2, 40008, Note_on_c, 0, 79, 79
2, 40031, Note_on_c, 0, 79, 0
2, 40032, Note_on_c, 0, 77, 80
2, 40052, Note_on_c, 0, 77, 0
2, 40080, Note_on_c, 0, 76, 78
2, 40100, Note_on_c, 0, 76, 0
2, 40128, Note_on_c, 0, 74, 76
2, 40173, Note_on_c, 0, 74, 0
2, 40224, Note_on_c, 0, 79, 75
2, 40244, Note_on_c, 0, 79, 0
2, 40272, Note_on_c, 0, 79, 75
2, 40292, Note_on_c, 0, 79, 0
2, 40320, Note_on_c, 0, 81, 75
2, 40343, Note_on_c, 0, 81, 0
2, 40344, Note_on_c, 0, 79, 75
2, 40367, Note_on_c, 0, 79, 0
2, 40368, Note_on_c, 0, 77, 75
2, 40391, Note_on_c, 0, 77, 0
2, 40392, Note_on_c, 0, 76, 75
2, 40415, Note_on_c, 0, 76, 0
2, 40416, Note_on_c, 0, 76, 75
2, 40439, Note_on_c, 0, 76, 0
2, 40440, Note_on_c, 0, 74, 75
2, 40463, Note_on_c, 0, 74, 0
2, 40464, Note_on_c, 0, 72, 75
2, 40487, Note_on_c, 0, 72, 0
2, 40488, Note_on_c, 0, 71, 75
2, 40511, Note_on_c, 0, 71, 0
2, 40512, Note_on_c, 0, 72, 75
2, 40560, Note_on_c, 0, 72, 0
2, 40560, Note_on_c, 0, 67, 75
2, 40605, Note_on_c, 0, 67, 0
2, 40608, Note_on_c, 0, 79, 75
2, 40632, Note_on_c, 0, 79, 0
2, 40632, Note_on_c, 0, 73, 75
2, 40655, Note_on_c, 0, 73, 0
2, 40656, Note_on_c, 0, 79, 75
2, 40680, Note_on_c, 0, 79, 0
2, 40680, Note_on_c, 0, 73, 75
2, 40703, Note_on_c, 0, 73, 0
2, 40704, Note_on_c, 0, 74, 75
2, 40752, Note_on_c, 0, 74, 0
2, 40752, Note_on_c, 0, 67, 75
2, 40797, Note_on_c, 0, 67, 0
2, 40800, Note_on_c, 0, 79, 75
2, 40824, Note_on_c, 0, 79, 0
2, 40824, Note_on_c, 0, 75, 75
2, 40847, Note_on_c, 0, 75, 0
2, 40848, Note_on_c, 0, 79, 75
2, 40872, Note_on_c, 0, 79, 0
2, 40872, Note_on_c, 0, 75, 75
2, 40895, Note_on_c, 0, 75, 0
2, 40896, Note_on_c, 0, 76, 75
2, 40941, Note_on_c, 0, 76, 0
2, 40944, Note_on_c, 0, 72, 75
2, 40989, Note_on_c, 0, 72, 0
2, 40992, Note_on_c, 0, 84, 75
2, 40992, Note_on_c, 0, 76, 75
2, 41012, Note_on_c, 0, 84, 0
2, 41012, Note_on_c, 0, 76, 0
2, 41040, Note_on_c, 0, 83, 75
2, 41040, Note_on_c, 0, 74, 75
2, 41060, Note_on_c, 0, 83, 0
2, 41060, Note_on_c, 0, 74, 0
2, 41088, Note_on_c, 0, 82, 75
2, 41088, Note_on_c, 0, 73, 75
2, 41136, Note_on_c, 0, 82, 0
2, 41136, Note_on_c, 0, 73, 0
2, 41136, Note_on_c, 0, 81, 75
2, 41136, Note_on_c, 0, 72, 75
2, 41156, Note_on_c, 0, 81, 0
2, 41156, Note_on_c, 0, 72, 0
2, 41184, Note_on_c, 0, 79, 75
2, 41184, Note_on_c, 0, 71, 75
2, 41204, Note_on_c, 0, 79, 0
2, 41204, Note_on_c, 0, 71, 0
2, 41232, Note_on_c, 0, 78, 75
2, 41232, Note_on_c, 0, 69, 75
2, 41252, Note_on_c, 0, 78, 0
2, 41252, Note_on_c, 0, 69, 0
2, 41280, Note_on_c, 0, 79, 75
2, 41280, Note_on_c, 0, 67, 75
2, 41369, Note_on_c, 0, 79, 0
2, 41369, Note_on_c, 0, 67, 0
2, 41568, Note_on_c, 0, 77, 75
2, 41568, Note_on_c, 0, 74, 75
2, 41588, Note_on_c, 0, 77, 0
2, 41588, Note_on_c, 0, 74, 0
2, 41616, Note_on_c, 0, 76, 75
2, 41616, Note_on_c, 0, 72, 75
2, 41636, Note_on_c, 0, 76, 0
2, 41636, Note_on_c, 0, 72, 0
2, 41664, Note_on_c, 0, 73, 75
2, 41664, Note_on_c, 0, 70, 75
2, 41712, Note_on_c, 0, 73, 0
2, 41712, Note_on_c, 0, 70, 0
2, 41712, Note_on_c, 0, 74, 75
2, 41712, Note_on_c, 0, 71, 75
2, 41757, Note_on_c, 0, 74, 0
2, 41757, Note_on_c, 0, 71, 0
2, 41952, Note_on_c, 0, 79, 75
2, 41952, Note_on_c, 0, 76, 75
2, 41972, Note_on_c, 0, 79, 0
2, 41972, Note_on_c, 0, 76, 0
2, 42000, Note_on_c, 0, 77, 75
2, 42000, Note_on_c, 0, 74, 75
2, 42020, Note_on_c, 0, 77, 0
2, 42020, Note_on_c, 0, 74, 0
2, 42048, Note_on_c, 0, 75, 75
2, 42048, Note_on_c, 0, 71, 75
2, 42096, Note_on_c, 0, 75, 0
2, 42096, Note_on_c, 0, 71, 0
2, 42096, Note_on_c, 0, 76, 75
2, 42096, Note_on_c, 0, 72, 75
2, 42141, Note_on_c, 0, 76, 0
2, 42141, Note_on_c, 0, 72, 0
2, 42144, Note_on_c, 0, 82, 75
2, 42164, Note_on_c, 0, 82, 0
2, 42192, Note_on_c, 0, 82, 75
2, 42212, Note_on_c, 0, 82, 0
2, 42240, Note_on_c, 0, 82, 75
2, 42263, Note_on_c, 0, 82, 0
2, 42264, Note_on_c, 0, 81, 75
2, 42287, Note_on_c, 0, 81, 0
2, 42288, Note_on_c, 0, 79, 76
2, 42311, Note_on_c, 0, 79, 0
2, 42312, Note_on_c, 0, 77, 76
2, 42335, Note_on_c, 0, 77, 0
2, 42336, Note_on_c, 0, 77, 76
2, 42359, Note_on_c, 0, 77, 0
2, 42360, Note_on_c, 0, 76, 76
2, 42383, Note_on_c, 0, 76, 0
2, 42384, Note_on_c, 0, 74, 76
2, 42407, Note_on_c, 0, 74, 0
2, 42408, Note_on_c, 0, 72, 76
2, 42431, Note_on_c, 0, 72, 0
2, 42432, Note_on_c, 0, 77, 77
2, 42452, Note_on_c, 0, 77, 0
2, 42480, Note_on_c, 0, 77, 77
2, 42500, Note_on_c, 0, 77, 0
2, 42528, Note_on_c, 0, 81, 77
2, 42548, Note_on_c, 0, 81, 0
2, 42576, Note_on_c, 0, 81, 78
2, 42596, Note_on_c, 0, 81, 0
2, 42624, Note_on_c, 0, 81, 78
2, 42647, Note_on_c, 0, 81, 0
2, 42648, Note_on_c, 0, 79, 78
2, 42671, Note_on_c, 0, 79, 0
2, 42672, Note_on_c, 0, 77, 78
2, 42695, Note_on_c, 0, 77, 0
2, 42696, Note_on_c, 0, 76, 79
2, 42719, Note_on_c, 0, 76, 0
2, 42720, Note_on_c, 0, 74, 79
2, 42732, Note_on_c, 0, 74, 0
2, 42732, Note_on_c, 0, 76, 79
2, 42744, Note_on_c, 0, 76, 0
2, 42744, Note_on_c, 0, 74, 79
2, 42765, Note_on_c, 0, 74, 0
2, 42768, Note_on_c, 0, 76, 79
2, 42791, Note_on_c, 0, 76, 0
2, 42792, Note_on_c, 0, 72, 79
2, 42815, Note_on_c, 0, 72, 0
2, 42816, Note_on_c, 0, 72, 80
2, 42839, Note_on_c, 0, 72, 0
2, 42840, Note_on_c, 0, 71, 80
2, 42863, Note_on_c, 0, 71, 0
2, 42864, Note_on_c, 0, 69, 80
2, 42887, Note_on_c, 0, 69, 0
2, 42888, Note_on_c, 0, 67, 80
2, 42911, Note_on_c, 0, 67, 0
2, 42912, Note_on_c, 0, 79, 86
2, 42932, Note_on_c, 0, 79, 0
2, 42960, Note_on_c, 0, 79, 86
2, 42980, Note_on_c, 0, 79, 0
2, 43008, Note_on_c, 0, 81, 86
2, 43031, Note_on_c, 0, 81, 0
2, 43032, Note_on_c, 0, 79, 86
2, 43055, Note_on_c, 0, 79, 0
2, 43056, Note_on_c, 0, 77, 86
2, 43079, Note_on_c, 0, 77, 0
2, 43080, Note_on_c, 0, 76, 86
2, 43103, Note_on_c, 0, 76, 0
2, 43104, Note_on_c, 0, 76, 86
2, 43127, Note_on_c, 0, 76, 0
2, 43128, Note_on_c, 0, 74, 86
2, 43151, Note_on_c, 0, 74, 0
2, 43152, Note_on_c, 0, 72, 86
2, 43175, Note_on_c, 0, 72, 0
2, 43176, Note_on_c, 0, 71, 86
2, 43199, Note_on_c, 0, 71, 0
2, 43200, Note_on_c, 0, 72, 86
2, 43248, Note_on_c, 0, 72, 0
2, 43248, Note_on_c, 0, 67, 86
2, 43293, Note_on_c, 0, 67, 0
2, 43296, Note_on_c, 0, 84, 86
2, 43316, Note_on_c, 0, 84, 0
2, 43344, Note_on_c, 0, 84, 86
2, 43364, Note_on_c, 0, 84, 0
2, 43392, Note_on_c, 0, 84, 86
2, 43415, Note_on_c, 0, 84, 0
2, 43416, Note_on_c, 0, 83, 86
2, 43439, Note_on_c, 0, 83, 0
2, 43440, Note_on_c, 0, 81, 86
2, 43463, Note_on_c, 0, 81, 0
2, 43464, Note_on_c, 0, 79, 86
2, 43487, Note_on_c, 0, 79, 0
2, 43488, Note_on_c, 0, 89, 86
2, 43508, Note_on_c, 0, 89, 0
2, 43536, Note_on_c, 0, 89, 86
2, 43556, Note_on_c, 0, 89, 0
2, 43584, Note_on_c, 0, 89, 86
2, 43607, Note_on_c, 0, 89, 0
2, 43608, Note_on_c, 0, 88, 86
2, 43631, Note_on_c, 0, 88, 0
2, 43632, Note_on_c, 0, 86, 86
2, 43655, Note_on_c, 0, 86, 0
2, 43656, Note_on_c, 0, 84, 86
2, 43679, Note_on_c, 0, 84, 0
2, 43680, Note_on_c, 0, 88, 75
2, 43703, Note_on_c, 0, 88, 0
2, 43704, Note_on_c, 0, 84, 75
2, 43727, Note_on_c, 0, 84, 0
2, 43728, Note_on_c, 0, 83, 75
2, 43751, Note_on_c, 0, 83, 0
2, 43752, Note_on_c, 0, 81, 75
2, 43775, Note_on_c, 0, 81, 0
2, 43776, Note_on_c, 0, 81, 75
2, 43799, Note_on_c, 0, 81, 0
2, 43800, Note_on_c, 0, 79, 75
2, 43823, Note_on_c, 0, 79, 0
2, 43824, Note_on_c, 0, 78, 75
2, 43847, Note_on_c, 0, 78, 0
2, 43848, Note_on_c, 0, 79, 75
2, 43871, Note_on_c, 0, 79, 0
2, 43872, Note_on_c, 0, 84, 75
2, 43895, Note_on_c, 0, 84, 0
2, 43896, Note_on_c, 0, 81, 75
2, 43919, Note_on_c, 0, 81, 0
2, 43920, Note_on_c, 0, 79, 75
2, 43943, Note_on_c, 0, 79, 0
2, 43944, Note_on_c, 0, 77, 75
2, 43967, Note_on_c, 0, 77, 0
2, 43968, Note_on_c, 0, 77, 75
2, 43991, Note_on_c, 0, 77, 0
2, 43992, Note_on_c, 0, 76, 75
2, 44015, Note_on_c, 0, 76, 0
2, 44016, Note_on_c, 0, 75, 75
2, 44039, Note_on_c, 0, 75, 0
2, 44040, Note_on_c, 0, 76, 75
2, 44063, Note_on_c, 0, 76, 0
2, 44064, Note_on_c, 0, 81, 75
2, 44087, Note_on_c, 0, 81, 0
2, 44088, Note_on_c, 0, 77, 75
2, 44111, Note_on_c, 0, 77, 0
2, 44112, Note_on_c, 0, 76, 75
2, 44135, Note_on_c, 0, 76, 0
2, 44136, Note_on_c, 0, 74, 75
2, 44159, Note_on_c, 0, 74, 0
2, 44160, Note_on_c, 0, 74, 75
2, 44183, Note_on_c, 0, 74, 0
2, 44184, Note_on_c, 0, 72, 75
2, 44207, Note_on_c, 0, 72, 0
2, 44208, Note_on_c, 0, 71, 75
2, 44231, Note_on_c, 0, 71, 0
2, 44232, Note_on_c, 0, 72, 75
2, 44255, Note_on_c, 0, 72, 0
2, 44256, Note_on_c, 0, 79, 75
2, 44279, Note_on_c, 0, 79, 0
2, 44280, Note_on_c, 0, 76, 75
2, 44303, Note_on_c, 0, 76, 0
2, 44304, Note_on_c, 0, 74, 75
2, 44327, Note_on_c, 0, 74, 0
2, 44328, Note_on_c, 0, 72, 75
2, 44351, Note_on_c, 0, 72, 0
2, 44352, Note_on_c, 0, 72, 75
2, 44375, Note_on_c, 0, 72, 0
2, 44376, Note_on_c, 0, 71, 75
2, 44399, Note_on_c, 0, 71, 0
2, 44400, Note_on_c, 0, 69, 75
2, 44423, Note_on_c, 0, 69, 0
2, 44424, Note_on_c, 0, 67, 75
2, 44447, Note_on_c, 0, 67, 0
2, 44448, Note_on_c, 0, 79, 75
2, 44471, Note_on_c, 0, 79, 0
2, 44472, Note_on_c, 0, 76, 75
2, 44495, Note_on_c, 0, 76, 0
2, 44496, Note_on_c, 0, 74, 75
2, 44519, Note_on_c, 0, 74, 0
2, 44520, Note_on_c, 0, 72, 75
2, 44543, Note_on_c, 0, 72, 0
2, 44544, Note_on_c, 0, 72, 75
2, 44567, Note_on_c, 0, 72, 0
2, 44568, Note_on_c, 0, 71, 72
2, 44591, Note_on_c, 0, 71, 0
2, 44592, Note_on_c, 0, 69, 70
2, 44615, Note_on_c, 0, 69, 0
2, 44616, Note_on_c, 0, 67, 68
2, 44639, Note_on_c, 0, 67, 0
2, 44640, Note_on_c, 0, 79, 66
2, 44663, Note_on_c, 0, 79, 0
2, 44664, Note_on_c, 0, 76, 64
2, 44687, Note_on_c, 0, 76, 0
2, 44688, Note_on_c, 0, 74, 64
2, 44711, Note_on_c, 0, 74, 0
2, 44712, Note_on_c, 0, 72, 64
2, 44735, Note_on_c, 0, 72, 0
2, 44736, Note_on_c, 0, 72, 64
2, 44759, Note_on_c, 0, 72, 0
2, 44760, Note_on_c, 0, 71, 64
2, 44783, Note_on_c, 0, 71, 0
2, 44784, Note_on_c, 0, 69, 64
2, 44807, Note_on_c, 0, 69, 0
2, 44808, Note_on_c, 0, 67, 64
2, 44831, Note_on_c, 0, 67, 0
2, 44832, Note_on_c, 0, 79, 64
2, 44855, Note_on_c, 0, 79, 0
2, 44856, Note_on_c, 0, 76, 64
2, 44879, Note_on_c, 0, 76, 0
2, 44880, Note_on_c, 0, 74, 64
2, 44903, Note_on_c, 0, 74, 0
2, 44904, Note_on_c, 0, 72, 64
2, 44927, Note_on_c, 0, 72, 0
2, 44928, Note_on_c, 0, 72, 64
2, 44951, Note_on_c, 0, 72, 0
2, 44952, Note_on_c, 0, 71, 67
2, 44975, Note_on_c, 0, 71, 0
2, 44976, Note_on_c, 0, 69, 70
2, 44999, Note_on_c, 0, 69, 0
2, 45000, Note_on_c, 0, 67, 73
2, 45023, Note_on_c, 0, 67, 0
2, 45024, Note_on_c, 0, 79, 76
2, 45047, Note_on_c, 0, 79, 0
2, 45048, Note_on_c, 0, 76, 80
2, 45071, Note_on_c, 0, 76, 0
2, 45072, Note_on_c, 0, 74, 80
2, 45095, Note_on_c, 0, 74, 0
2, 45096, Note_on_c, 0, 72, 80
2, 45119, Note_on_c, 0, 72, 0
2, 45120, Note_on_c, 0, 71, 80
2, 45143, Note_on_c, 0, 71, 0
2, 45144, Note_on_c, 0, 69, 80
2, 45167, Note_on_c, 0, 69, 0
2, 45168, Note_on_c, 0, 68, 80
2, 45191, Note_on_c, 0, 68, 0
2, 45192, Note_on_c, 0, 69, 80
2, 45215, Note_on_c, 0, 69, 0
2, 45216, Note_on_c, 0, 77, 80
2, 45239, Note_on_c, 0, 77, 0
2, 45240, Note_on_c, 0, 74, 80
2, 45263, Note_on_c, 0, 74, 0
2, 45264, Note_on_c, 0, 72, 80
2, 45287, Note_on_c, 0, 72, 0
2, 45288, Note_on_c, 0, 71, 80
2, 45311, Note_on_c, 0, 71, 0
2, 45312, Note_on_c, 0, 69, 80
2, 45335, Note_on_c, 0, 69, 0
2, 45336, Note_on_c, 0, 67, 80
2, 45359, Note_on_c, 0, 67, 0
2, 45360, Note_on_c, 0, 66, 80
2, 45383, Note_on_c, 0, 66, 0
2, 45384, Note_on_c, 0, 67, 80
2, 45407, Note_on_c, 0, 67, 0
2, 45408, Note_on_c, 0, 76, 80
2, 45431, Note_on_c, 0, 76, 0
2, 45432, Note_on_c, 0, 72, 80
2, 45455, Note_on_c, 0, 72, 0
2, 45456, Note_on_c, 0, 71, 80
2, 45479, Note_on_c, 0, 71, 0
2, 45480, Note_on_c, 0, 69, 80
2, 45503, Note_on_c, 0, 69, 0
2, 45504, Note_on_c, 0, 67, 80
2, 45527, Note_on_c, 0, 67, 0
2, 45528, Note_on_c, 0, 65, 80
2, 45551, Note_on_c, 0, 65, 0
2, 45552, Note_on_c, 0, 64, 80
2, 45575, Note_on_c, 0, 64, 0
2, 45576, Note_on_c, 0, 65, 80
2, 45599, Note_on_c, 0, 65, 0
2, 45600, Note_on_c, 0, 74, 80
2, 45623, Note_on_c, 0, 74, 0
2, 45624, Note_on_c, 0, 65, 80
2, 45647, Note_on_c, 0, 65, 0
2, 45648, Note_on_c, 0, 74, 80
2, 45671, Note_on_c, 0, 74, 0
2, 45672, Note_on_c, 0, 65, 80
2, 45695, Note_on_c, 0, 65, 0
2, 45696, Note_on_c, 0, 64, 80
2, 45716, Note_on_c, 0, 64, 0
2, 45744, Note_on_c, 0, 64, 80
2, 45764, Note_on_c, 0, 64, 0
2, 45792, Note_on_c, 0, 67, 80
2, 45815, Note_on_c, 0, 67, 0
2, 45816, Note_on_c, 0, 66, 80
2, 45839, Note_on_c, 0, 66, 0
2, 45840, Note_on_c, 0, 64, 80
2, 45863, Note_on_c, 0, 64, 0
2, 45864, Note_on_c, 0, 66, 80
2, 45887, Note_on_c, 0, 66, 0
2, 45888, Note_on_c, 0, 67, 80
2, 45908, Note_on_c, 0, 67, 0
2, 45936, Note_on_c, 0, 67, 75
2, 45984, Note_on_c, 0, 67, 0
2, 45984, Note_on_c, 0, 68, 75
2, 46004, Note_on_c, 0, 68, 0
2, 46032, Note_on_c, 0, 68, 75
2, 46080, Note_on_c, 0, 68, 0
2, 46080, Note_on_c, 0, 69, 75
2, 46100, Note_on_c, 0, 69, 0
2, 46128, Note_on_c, 0, 69, 75
2, 46148, Note_on_c, 0, 69, 0
2, 46176, Note_on_c, 0, 67, 75
2, 46199, Note_on_c, 0, 67, 0
2, 46200, Note_on_c, 0, 65, 75
2, 46223, Note_on_c, 0, 65, 0
2, 46224, Note_on_c, 0, 64, 75
2, 46247, Note_on_c, 0, 64, 0
2, 46248, Note_on_c, 0, 65, 75
2, 46271, Note_on_c, 0, 65, 0
2, 46272, Note_on_c, 0, 62, 75
2, 46292, Note_on_c, 0, 62, 0
2, 46320, Note_on_c, 0, 62, 75
2, 46368, Note_on_c, 0, 62, 0
2, 46368, Note_on_c, 0, 68, 75
2, 46388, Note_on_c, 0, 68, 0
2, 46416, Note_on_c, 0, 68, 75
2, 46464, Note_on_c, 0, 68, 0
2, 46464, Note_on_c, 0, 71, 75
2, 46487, Note_on_c, 0, 71, 0
2, 46488, Note_on_c, 0, 69, 75
2, 46511, Note_on_c, 0, 69, 0
2, 46512, Note_on_c, 0, 68, 75
2, 46535, Note_on_c, 0, 68, 0
2, 46536, Note_on_c, 0, 69, 75
2, 46559, Note_on_c, 0, 69, 0
2, 46560, Note_on_c, 0, 65, 75
2, 46580, Note_on_c, 0, 65, 0
2, 46608, Note_on_c, 0, 65, 75
2, 46628, Note_on_c, 0, 65, 0
2, 46656, Note_on_c, 0, 62, 75
2, 46676, Note_on_c, 0, 62, 0
2, 46704, Note_on_c, 0, 62, 75
2, 46752, Note_on_c, 0, 62, 0
2, 46752, Note_on_c, 0, 68, 75
2, 46772, Note_on_c, 0, 68, 0
2, 46800, Note_on_c, 0, 68, 75
2, 46848, Note_on_c, 0, 68, 0
2, 46848, Note_on_c, 0, 69, 75
2, 46868, Note_on_c, 0, 69, 0
2, 46896, Note_on_c, 0, 69, 75
2, 46944, Note_on_c, 0, 69, 0
2, 46944, Note_on_c, 0, 73, 75
2, 46964, Note_on_c, 0, 73, 0
2, 46992, Note_on_c, 0, 73, 75
2, 47040, Note_on_c, 0, 73, 0
2, 47040, Note_on_c, 0, 74, 75
2, 47060, Note_on_c, 0, 74, 0
2, 47088, Note_on_c, 0, 74, 75
2, 47136, Note_on_c, 0, 74, 0
2, 47136, Note_on_c, 0, 73, 75
2, 47156, Note_on_c, 0, 73, 0
2, 47184, Note_on_c, 0, 73, 75
2, 47232, Note_on_c, 0, 73, 0
2, 47232, Note_on_c, 0, 74, 75
2, 47252, Note_on_c, 0, 74, 0
2, 47280, Note_on_c, 0, 74, 75
2, 47325, Note_on_c, 0, 74, 0
2, 47520, Note_on_c, 0, 76, 64
2, 47520, Note_on_c, 0, 73, 64
2, 47540, Note_on_c, 0, 76, 0
2, 47540, Note_on_c, 0, 73, 0
2, 47568, Note_on_c, 0, 76, 64
2, 47568, Note_on_c, 0, 73, 64
2, 47616, Note_on_c, 0, 76, 0
2, 47616, Note_on_c, 0, 73, 0
2, 47616, Note_on_c, 0, 77, 64
2, 47616, Note_on_c, 0, 74, 64
2, 47636, Note_on_c, 0, 77, 0
2, 47636, Note_on_c, 0, 74, 0
2, 47664, Note_on_c, 0, 77, 64
2, 47664, Note_on_c, 0, 74, 64
2, 47684, Note_on_c, 0, 77, 0
2, 47684, Note_on_c, 0, 74, 0
2, 47904, Note_on_c, 0, 77, 58
2, 47904, Note_on_c, 0, 74, 58
2, 47924, Note_on_c, 0, 77, 0
2, 47924, Note_on_c, 0, 74, 0
2, 47952, Note_on_c, 0, 77, 58
2, 47952, Note_on_c, 0, 74, 58
2, 48000, Note_on_c, 0, 77, 0
2, 48000, Note_on_c, 0, 74, 0
2, 48000, Note_on_c, 0, 78, 58
2, 48000, Note_on_c, 0, 75, 58
2, 48020, Note_on_c, 0, 78, 0
2, 48020, Note_on_c, 0, 75, 0
2, 48048, Note_on_c, 0, 78, 58
2, 48048, Note_on_c, 0, 75, 58
2, 48068, Note_on_c, 0, 78, 0
2, 48068, Note_on_c, 0, 75, 0
2, 48288, Note_on_c, 0, 79, 80
2, 48288, Note_on_c, 0, 76, 80
2, 48308, Note_on_c, 0, 79, 0
2, 48308, Note_on_c, 0, 76, 0
2, 48336, Note_on_c, 0, 79, 80
2, 48336, Note_on_c, 0, 76, 80
2, 48356, Note_on_c, 0, 79, 0
2, 48356, Note_on_c, 0, 76, 0
2, 48384, Note_on_c, 0, 81, 80
2, 48407, Note_on_c, 0, 81, 0
2, 48408, Note_on_c, 0, 79, 80
2, 48431, Note_on_c, 0, 79, 0
2, 48432, Note_on_c, 0, 77, 80
2, 48455, Note_on_c, 0, 77, 0
2, 48456, Note_on_c, 0, 76, 80
2, 48479, Note_on_c, 0, 76, 0
2, 48480, Note_on_c, 0, 76, 80
2, 48503, Note_on_c, 0, 76, 0
2, 48504, Note_on_c, 0, 74, 80
2, 48527, Note_on_c, 0, 74, 0
2, 48528, Note_on_c, 0, 72, 80
2, 48551, Note_on_c, 0, 72, 0
2, 48552, Note_on_c, 0, 71, 80
2, 48575, Note_on_c, 0, 71, 0
2, 48576, Note_on_c, 0, 72, 80
2, 48624, Note_on_c, 0, 72, 0
2, 48624, Note_on_c, 0, 67, 80
2, 48669, Note_on_c, 0, 67, 0
2, 48672, Note_on_c, 0, 72, 75
2, 48692, Note_on_c, 0, 72, 0
2, 48720, Note_on_c, 0, 73, 75
2, 48740, Note_on_c, 0, 73, 0
2, 48768, Note_on_c, 0, 74, 75
2, 48816, Note_on_c, 0, 74, 0
2, 48816, Note_on_c, 0, 67, 75
2, 48861, Note_on_c, 0, 67, 0
2, 48864, Note_on_c, 0, 74, 75
2, 48884, Note_on_c, 0, 74, 0
2, 48912, Note_on_c, 0, 75, 75
2, 48932, Note_on_c, 0, 75, 0
2, 48960, Note_on_c, 0, 76, 75
2, 49008, Note_on_c, 0, 76, 0
2, 49008, Note_on_c, 0, 72, 75
2, 49053, Note_on_c, 0, 72, 0
2, 49056, Note_on_c, 0, 76, 75
2, 49076, Note_on_c, 0, 76, 0
2, 49104, Note_on_c, 0, 76, 75
2, 49124, Note_on_c, 0, 76, 0
2, 49152, Note_on_c, 0, 79, 75
2, 49200, Note_on_c, 0, 79, 0
2, 49200, Note_on_c, 0, 77, 75
2, 49245, Note_on_c, 0, 77, 0
2, 49248, Note_on_c, 0, 78, 76
2, 49268, Note_on_c, 0, 78, 0
2, 49296, Note_on_c, 0, 78, 77
2, 49316, Note_on_c, 0, 78, 0
2, 49344, Note_on_c, 0, 81, 78
2, 49392, Note_on_c, 0, 81, 0
2, 49392, Note_on_c, 0, 79, 79
2, 49437, Note_on_c, 0, 79, 0
2, 49440, Note_on_c, 0, 89, 80
2, 49440, Note_on_c, 0, 77, 80
2, 49460, Note_on_c, 0, 89, 0
2, 49460, Note_on_c, 0, 77, 0
2, 49488, Note_on_c, 0, 88, 80
2, 49488, Note_on_c, 0, 76, 80
2, 49508, Note_on_c, 0, 88, 0
2, 49508, Note_on_c, 0, 76, 0
2, 49536, Note_on_c, 0, 86, 80
2, 49536, Note_on_c, 0, 74, 80
2, 49556, Note_on_c, 0, 86, 0
2, 49556, Note_on_c, 0, 74, 0
2, 49584, Note_on_c, 0, 84, 80
2, 49584, Note_on_c, 0, 72, 80
2, 49604, Note_on_c, 0, 84, 0
2, 49604, Note_on_c, 0, 72, 0
2, 49632, Note_on_c, 0, 83, 80
2, 49632, Note_on_c, 0, 71, 80
2, 49652, Note_on_c, 0, 83, 0
2, 49652, Note_on_c, 0, 71, 0
2, 49680, Note_on_c, 0, 84, 80
2, 49680, Note_on_c, 0, 72, 80
2, 49700, Note_on_c, 0, 84, 0
2, 49700, Note_on_c, 0, 72, 0
2, 49728, Note_on_c, 0, 86, 80
2, 49728, Note_on_c, 0, 74, 80
2, 49776, Note_on_c, 0, 86, 0
2, 49776, Note_on_c, 0, 74, 0
2, 49776, Note_on_c, 0, 84, 80
2, 49776, Note_on_c, 0, 72, 80
2, 49821, Note_on_c, 0, 84, 0
2, 49821, Note_on_c, 0, 72, 0
2, 49824, Note_on_c, 0, 81, 75
2, 49824, Note_on_c, 0, 77, 75
2, 49844, Note_on_c, 0, 81, 0
2, 49844, Note_on_c, 0, 77, 0
2, 49872, Note_on_c, 0, 81, 75
2, 49872, Note_on_c, 0, 77, 75
2, 49892, Note_on_c, 0, 81, 0
2, 49892, Note_on_c, 0, 77, 0
2, 49920, Note_on_c, 0, 81, 75
2, 49943, Note_on_c, 0, 81, 0
2, 49944, Note_on_c, 0, 79, 75
2, 49967, Note_on_c, 0, 79, 0
2, 49968, Note_on_c, 0, 77, 75
2, 49991, Note_on_c, 0, 77, 0
2, 49992, Note_on_c, 0, 76, 75
2, 50015, Note_on_c, 0, 76, 0
2, 50016, Note_on_c, 0, 76, 75
2, 50039, Note_on_c, 0, 76, 0
2, 50040, Note_on_c, 0, 74, 75
2, 50063, Note_on_c, 0, 74, 0
2, 50064, Note_on_c, 0, 72, 75
2, 50087, Note_on_c, 0, 72, 0
2, 50088, Note_on_c, 0, 71, 75
2, 50111, Note_on_c, 0, 71, 0
2, 50112, Note_on_c, 0, 72, 75
2, 50201, Note_on_c, 0, 72, 0
2, 50208, Note_on_c, 0, 67, 80
2, 50231, Note_on_c, 0, 67, 0
2, 50232, Note_on_c, 0, 65, 80
2, 50255, Note_on_c, 0, 65, 0
2, 50256, Note_on_c, 0, 64, 80
2, 50279, Note_on_c, 0, 64, 0
2, 50280, Note_on_c, 0, 62, 80
2, 50303, Note_on_c, 0, 62, 0
2, 50304, Note_on_c, 0, 60, 80
2, 50327, Note_on_c, 0, 60, 0
2, 50328, Note_on_c, 0, 64, 80
2, 50351, Note_on_c, 0, 64, 0
2, 50352, Note_on_c, 0, 67, 80
2, 50375, Note_on_c, 0, 67, 0
2, 50376, Note_on_c, 0, 72, 80
2, 50399, Note_on_c, 0, 72, 0
2, 50400, Note_on_c, 0, 71, 80
2, 50423, Note_on_c, 0, 71, 0
2, 50424, Note_on_c, 0, 74, 80
2, 50447, Note_on_c, 0, 74, 0
2, 50448, Note_on_c, 0, 71, 80
2, 50471, Note_on_c, 0, 71, 0
2, 50472, Note_on_c, 0, 67, 80
2, 50495, Note_on_c, 0, 67, 0
2, 50496, Note_on_c, 0, 72, 80
2, 50516, Note_on_c, 0, 72, 0
2, 50544, Note_on_c, 0, 72, 80
2, 50564, Note_on_c, 0, 72, 0
2, 50592, Note_on_c, 0, 67, 80
2, 50615, Note_on_c, 0, 67, 0
2, 50616, Note_on_c, 0, 65, 80
2, 50639, Note_on_c, 0, 65, 0
2, 50640, Note_on_c, 0, 64, 80
2, 50663, Note_on_c, 0, 64, 0
2, 50664, Note_on_c, 0, 62, 80
2, 50687, Note_on_c, 0, 62, 0
2, 50688, Note_on_c, 0, 60, 80
2, 50711, Note_on_c, 0, 60, 0
2, 50712, Note_on_c, 0, 64, 80
2, 50735, Note_on_c, 0, 64, 0
2, 50736, Note_on_c, 0, 67, 80
2, 50759, Note_on_c, 0, 67, 0
2, 50760, Note_on_c, 0, 72, 80
2, 50783, Note_on_c, 0, 72, 0
2, 50784, Note_on_c, 0, 71, 80
2, 50807, Note_on_c, 0, 71, 0
2, 50808, Note_on_c, 0, 74, 80
2, 50831, Note_on_c, 0, 74, 0
2, 50832, Note_on_c, 0, 71, 80
2, 50855, Note_on_c, 0, 71, 0
2, 50856, Note_on_c, 0, 67, 80
2, 50879, Note_on_c, 0, 67, 0
2, 50880, Note_on_c, 0, 76, 80
2, 50900, Note_on_c, 0, 76, 0
2, 50928, Note_on_c, 0, 76, 80
2, 50948, Note_on_c, 0, 76, 0
2, 50976, Note_on_c, 0, 74, 80
2, 50999, Note_on_c, 0, 74, 0
2, 51000, Note_on_c, 0, 77, 80
2, 51023, Note_on_c, 0, 77, 0
2, 51024, Note_on_c, 0, 74, 80
2, 51047, Note_on_c, 0, 74, 0
2, 51048, Note_on_c, 0, 71, 80
2, 51071, Note_on_c, 0, 71, 0
2, 51072, Note_on_c, 0, 79, 75
2, 51117, Note_on_c, 0, 79, 0
2, 51120, Note_on_c, 0, 79, 75
2, 51168, Note_on_c, 0, 79, 0
2, 51168, Note_on_c, 0, 80, 75
2, 51188, Note_on_c, 0, 80, 0
2, 51216, Note_on_c, 0, 80, 75
2, 51264, Note_on_c, 0, 80, 0
2, 51264, Note_on_c, 0, 81, 75
2, 51284, Note_on_c, 0, 81, 0
2, 51312, Note_on_c, 0, 81, 75
2, 51360, Note_on_c, 0, 81, 0
2, 51360, Note_on_c, 0, 85, 75
2, 51360, Note_on_c, 0, 73, 75
2, 51380, Note_on_c, 0, 85, 0
2, 51380, Note_on_c, 0, 73, 0
2, 51408, Note_on_c, 0, 85, 75
2, 51408, Note_on_c, 0, 73, 75
2, 51456, Note_on_c, 0, 85, 0
2, 51456, Note_on_c, 0, 73, 0
2, 51456, Note_on_c, 0, 86, 75
2, 51456, Note_on_c, 0, 74, 75
2, 51476, Note_on_c, 0, 86, 0
2, 51476, Note_on_c, 0, 74, 0
2, 51504, Note_on_c, 0, 86, 75
2, 51504, Note_on_c, 0, 74, 75
2, 51549, Note_on_c, 0, 86, 0
2, 51549, Note_on_c, 0, 74, 0
2, 51648, Note_on_c, 0, 68, 80
2, 51648, Note_on_c, 0, 56, 80
2, 51668, Note_on_c, 0, 68, 0
2, 51668, Note_on_c, 0, 56, 0
2, 51696, Note_on_c, 0, 68, 80
2, 51696, Note_on_c, 0, 56, 80
2, 51744, Note_on_c, 0, 68, 0
2, 51744, Note_on_c, 0, 56, 0
2, 51744, Note_on_c, 0, 69, 80
2, 51744, Note_on_c, 0, 57, 80
2, 51833, Note_on_c, 0, 69, 0
2, 51833, Note_on_c, 0, 57, 0
2, 51840, Note_on_c, 0, 70, 80
2, 51840, Note_on_c, 0, 58, 80
2, 51860, Note_on_c, 0, 70, 0
2, 51860, Note_on_c, 0, 58, 0
2, 51888, Note_on_c, 0, 70, 80
2, 51888, Note_on_c, 0, 58, 80
2, 51936, Note_on_c, 0, 70, 0
2, 51936, Note_on_c, 0, 58, 0
2, 51936, Note_on_c, 0, 71, 80
2, 51936, Note_on_c, 0, 59, 80
2, 52025, Note_on_c, 0, 71, 0
2, 52025, Note_on_c, 0, 59, 0
2, 52032, Note_on_c, 0, 72, 80
2, 52055, Note_on_c, 0, 72, 0
2, 52056, Note_on_c, 0, 69, 80
2, 52079, Note_on_c, 0, 69, 0
2, 52080, Note_on_c, 0, 65, 80
2, 52103, Note_on_c, 0, 65, 0
2, 52104, Note_on_c, 0, 60, 80
2, 52127, Note_on_c, 0, 60, 0
2, 52128, Note_on_c, 0, 74, 80
2, 52151, Note_on_c, 0, 74, 0
2, 52152, Note_on_c, 0, 71, 80
2, 52175, Note_on_c, 0, 71, 0
2, 52176, Note_on_c, 0, 67, 80
2, 52199, Note_on_c, 0, 67, 0
2, 52200, Note_on_c, 0, 62, 80
2, 52223, Note_on_c, 0, 62, 0
2, 52224, Note_on_c, 0, 76, 80
2, 52247, Note_on_c, 0, 76, 0
2, 52248, Note_on_c, 0, 72, 80
2, 52271, Note_on_c, 0, 72, 0
2, 52272, Note_on_c, 0, 67, 80
2, 52295, Note_on_c, 0, 67, 0
2, 52296, Note_on_c, 0, 64, 80
2, 52319, Note_on_c, 0, 64, 0
2, 52320, Note_on_c, 0, 77, 80
2, 52343, Note_on_c, 0, 77, 0
2, 52344, Note_on_c, 0, 74, 80
2, 52367, Note_on_c, 0, 74, 0
2, 52368, Note_on_c, 0, 71, 80
2, 52391, Note_on_c, 0, 71, 0
2, 52392, Note_on_c, 0, 65, 80
2, 52415, Note_on_c, 0, 65, 0
2, 52416, Note_on_c, 0, 79, 80
2, 52439, Note_on_c, 0, 79, 0
2, 52440, Note_on_c, 0, 76, 80
2, 52463, Note_on_c, 0, 76, 0
2, 52464, Note_on_c, 0, 72, 80
2, 52487, Note_on_c, 0, 72, 0
2, 52488, Note_on_c, 0, 67, 80
2, 52511, Note_on_c, 0, 67, 0
2, 52512, Note_on_c, 0, 79, 80
2, 52535, Note_on_c, 0, 79, 0
2, 52536, Note_on_c, 0, 77, 80
2, 52559, Note_on_c, 0, 77, 0
2, 52560, Note_on_c, 0, 74, 80
2, 52583, Note_on_c, 0, 74, 0
2, 52584, Note_on_c, 0, 67, 80
2, 52607, Note_on_c, 0, 67, 0
2, 52608, Note_on_c, 0, 79, 80
2, 52631, Note_on_c, 0, 79, 0
2, 52632, Note_on_c, 0, 76, 80
2, 52655, Note_on_c, 0, 76, 0
2, 52656, Note_on_c, 0, 72, 80
2, 52679, Note_on_c, 0, 72, 0
2, 52680, Note_on_c, 0, 67, 80
2, 52703, Note_on_c, 0, 67, 0
2, 52704, Note_on_c, 0, 79, 80
2, 52727, Note_on_c, 0, 79, 0
2, 52728, Note_on_c, 0, 74, 80
2, 52751, Note_on_c, 0, 74, 0
2, 52752, Note_on_c, 0, 71, 80
2, 52775, Note_on_c, 0, 71, 0
2, 52776, Note_on_c, 0, 67, 80
2, 52799, Note_on_c, 0, 67, 0
2, 52800, Note_on_c, 0, 79, 80
2, 52823, Note_on_c, 0, 79, 0
2, 52824, Note_on_c, 0, 76, 80
2, 52847, Note_on_c, 0, 76, 0
2, 52848, Note_on_c, 0, 72, 80
2, 52871, Note_on_c, 0, 72, 0
2, 52872, Note_on_c, 0, 67, 80
2, 52895, Note_on_c, 0, 67, 0
2, 52896, Note_on_c, 0, 79, 80
2, 52919, Note_on_c, 0, 79, 0
2, 52920, Note_on_c, 0, 77, 80
2, 52943, Note_on_c, 0, 77, 0
2, 52944, Note_on_c, 0, 74, 80
2, 52967, Note_on_c, 0, 74, 0
2, 52968, Note_on_c, 0, 67, 80
2, 52991, Note_on_c, 0, 67, 0
2, 52992, Note_on_c, 0, 79, 80
2, 53015, Note_on_c, 0, 79, 0
2, 53016, Note_on_c, 0, 76, 80
2, 53039, Note_on_c, 0, 76, 0
2, 53040, Note_on_c, 0, 72, 80
2, 53063, Note_on_c, 0, 72, 0
2, 53064, Note_on_c, 0, 67, 80
2, 53087, Note_on_c, 0, 67, 0
2, 53088, Note_on_c, 0, 79, 80
2, 53111, Note_on_c, 0, 79, 0
2, 53112, Note_on_c, 0, 74, 80
2, 53135, Note_on_c, 0, 74, 0
2, 53136, Note_on_c, 0, 71, 80
2, 53159, Note_on_c, 0, 71, 0
2, 53160, Note_on_c, 0, 67, 80
2, 53183, Note_on_c, 0, 67, 0
2, 53184, Note_on_c, 0, 79, 80
2, 53207, Note_on_c, 0, 79, 0
2, 53208, Note_on_c, 0, 76, 80
2, 53231, Note_on_c, 0, 76, 0
2, 53232, Note_on_c, 0, 72, 80
2, 53255, Note_on_c, 0, 72, 0
2, 53256, Note_on_c, 0, 67, 80
2, 53279, Note_on_c, 0, 67, 0
2, 53280, Note_on_c, 0, 84, 75
2, 53300, Note_on_c, 0, 84, 0
2, 53328, Note_on_c, 0, 84, 75
2, 53348, Note_on_c, 0, 84, 0
2, 53376, Note_on_c, 0, 80, 75
2, 53424, Note_on_c, 0, 80, 0
2, 53424, Note_on_c, 0, 81, 75
2, 53469, Note_on_c, 0, 81, 0
2, 53472, Note_on_c, 0, 81, 75
2, 53472, Note_on_c, 0, 77, 75
2, 53492, Note_on_c, 0, 81, 0
2, 53492, Note_on_c, 0, 77, 0
2, 53520, Note_on_c, 0, 81, 75
2, 53520, Note_on_c, 0, 77, 75
2, 53540, Note_on_c, 0, 81, 0
2, 53540, Note_on_c, 0, 77, 0
2, 53568, Note_on_c, 0, 76, 75
2, 53568, Note_on_c, 0, 73, 75
2, 53616, Note_on_c, 0, 76, 0
2, 53616, Note_on_c, 0, 73, 0
2, 53616, Note_on_c, 0, 77, 75
2, 53616, Note_on_c, 0, 74, 75
2, 53661, Note_on_c, 0, 77, 0
2, 53661, Note_on_c, 0, 74, 0
2, 53664, Note_on_c, 0, 77, 75
2, 53664, Note_on_c, 0, 68, 75
2, 53684, Note_on_c, 0, 77, 0
2, 53684, Note_on_c, 0, 68, 0
2, 53712, Note_on_c, 0, 77, 75
2, 53712, Note_on_c, 0, 68, 75
2, 53732, Note_on_c, 0, 77, 0
2, 53732, Note_on_c, 0, 68, 0
2, 53760, Note_on_c, 0, 76, 75
2, 53760, Note_on_c, 0, 67, 75
2, 53780, Note_on_c, 0, 76, 0
2, 53780, Note_on_c, 0, 67, 0
2, 53808, Note_on_c, 0, 74, 75
2, 53808, Note_on_c, 0, 65, 75
2, 53828, Note_on_c, 0, 74, 0
2, 53828, Note_on_c, 0, 65, 0
2, 53856, Note_on_c, 0, 72, 75
2, 53856, Note_on_c, 0, 64, 75
2, 53876, Note_on_c, 0, 72, 0
2, 53876, Note_on_c, 0, 64, 0
2, 53904, Note_on_c, 0, 71, 75
2, 53904, Note_on_c, 0, 62, 75
2, 53924, Note_on_c, 0, 71, 0
2, 53924, Note_on_c, 0, 62, 0
2, 53952, Note_on_c, 0, 72, 80
2, 53952, Note_on_c, 0, 60, 80
2, 54041, Note_on_c, 0, 72, 0
2, 54041, Note_on_c, 0, 60, 0
2, 54048, Note_on_c, 0, 76, 80
2, 54071, Note_on_c, 0, 76, 0
2, 54072, Note_on_c, 0, 79, 80
2, 54095, Note_on_c, 0, 79, 0
2, 54096, Note_on_c, 0, 76, 80
2, 54119, Note_on_c, 0, 76, 0
2, 54120, Note_on_c, 0, 72, 80
2, 54143, Note_on_c, 0, 72, 0
2, 54144, Note_on_c, 0, 71, 80
2, 54167, Note_on_c, 0, 71, 0
2, 54168, Note_on_c, 0, 74, 80
2, 54191, Note_on_c, 0, 74, 0
2, 54192, Note_on_c, 0, 71, 80
2, 54215, Note_on_c, 0, 71, 0
2, 54216, Note_on_c, 0, 67, 80
2, 54239, Note_on_c, 0, 67, 0
2, 54240, Note_on_c, 0, 65, 80
2, 54263, Note_on_c, 0, 65, 0
2, 54264, Note_on_c, 0, 69, 80
2, 54287, Note_on_c, 0, 69, 0
2, 54288, Note_on_c, 0, 65, 80
2, 54311, Note_on_c, 0, 65, 0
2, 54312, Note_on_c, 0, 62, 80
2, 54335, Note_on_c, 0, 62, 0
2, 54336, Note_on_c, 0, 60, 80
2, 54381, Note_on_c, 0, 60, 0
2, 54432, Note_on_c, 0, 84, 80
2, 54455, Note_on_c, 0, 84, 0
2, 54456, Note_on_c, 0, 88, 80
2, 54479, Note_on_c, 0, 88, 0
2, 54480, Note_on_c, 0, 84, 80
2, 54503, Note_on_c, 0, 84, 0
2, 54504, Note_on_c, 0, 79, 80
2, 54527, Note_on_c, 0, 79, 0
2, 54528, Note_on_c, 0, 77, 80
2, 54551, Note_on_c, 0, 77, 0
2, 54552, Note_on_c, 0, 81, 80
2, 54575, Note_on_c, 0, 81, 0
2, 54576, Note_on_c, 0, 77, 80
2, 54599, Note_on_c, 0, 77, 0
2, 54600, Note_on_c, 0, 74, 80
2, 54623, Note_on_c, 0, 74, 0
2, 54624, Note_on_c, 0, 71, 80
2, 54647, Note_on_c, 0, 71, 0
2, 54648, Note_on_c, 0, 74, 80
2, 54671, Note_on_c, 0, 74, 0
2, 54672, Note_on_c, 0, 71, 80
2, 54695, Note_on_c, 0, 71, 0
2, 54696, Note_on_c, 0, 67, 80
2, 54719, Note_on_c, 0, 67, 0
2, 54720, Note_on_c, 0, 72, 80
2, 54765, Note_on_c, 0, 72, 0
2, 54816, Note_on_c, 0, 76, 64
2, 54816, Note_on_c, 0, 72, 64
2, 54836, Note_on_c, 0, 76, 0
2, 54836, Note_on_c, 0, 72, 0
2, 54864, Note_on_c, 0, 76, 64
2, 54864, Note_on_c, 0, 72, 64
2, 54884, Note_on_c, 0, 76, 0
2, 54884, Note_on_c, 0, 72, 0
2, 54912, Note_on_c, 0, 76, 64
2, 54912, Note_on_c, 0, 72, 64
2, 54957, Note_on_c, 0, 76, 0
2, 54957, Note_on_c, 0, 72, 0
2, 55008, Note_on_c, 0, 79, 64
2, 55008, Note_on_c, 0, 76, 64
2, 55028, Note_on_c, 0, 79, 0
2, 55028, Note_on_c, 0, 76, 0
2, 55056, Note_on_c, 0, 79, 64
2, 55056, Note_on_c, 0, 76, 64
2, 55076, Note_on_c, 0, 79, 0
2, 55076, Note_on_c, 0, 76, 0
2, 55104, Note_on_c, 0, 79, 64
2, 55104, Note_on_c, 0, 76, 64
2, 55149, Note_on_c, 0, 79, 0
2, 55149, Note_on_c, 0, 76, 0
2, 55296, Note_on_c, 0, 74, 64
2, 55296, Note_on_c, 0, 71, 64
2, 55473, Note_on_c, 0, 74, 0
2, 55473, Note_on_c, 0, 71, 0
2, 55488, Note_on_c, 0, 76, 64
2, 55488, Note_on_c, 0, 72, 64
2, 55533, Note_on_c, 0, 76, 0
2, 55533, Note_on_c, 0, 72, 0
2, 55584, Note_on_c, 0, 79, 64
2, 55604, Note_on_c, 0, 79, 0
2, 55632, Note_on_c, 0, 79, 64
2, 55652, Note_on_c, 0, 79, 0
2, 55680, Note_on_c, 0, 81, 64
2, 55703, Note_on_c, 0, 81, 0
2, 55704, Note_on_c, 0, 79, 64
2, 55727, Note_on_c, 0, 79, 0
2, 55728, Note_on_c, 0, 77, 64
2, 55751, Note_on_c, 0, 77, 0
2, 55752, Note_on_c, 0, 76, 64
2, 55775, Note_on_c, 0, 76, 0
2, 55776, Note_on_c, 0, 79, 64
2, 55799, Note_on_c, 0, 79, 0
2, 55800, Note_on_c, 0, 77, 64
2, 55823, Note_on_c, 0, 77, 0
2, 55824, Note_on_c, 0, 76, 64
2, 55847, Note_on_c, 0, 76, 0
2, 55848, Note_on_c, 0, 74, 64
2, 55871, Note_on_c, 0, 74, 0
2, 55872, Note_on_c, 0, 72, 64
2, 55917, Note_on_c, 0, 72, 0
2, 56064, Note_on_c, 0, 83, 86
2, 56064, Note_on_c, 0, 79, 86
2, 56064, Note_on_c, 0, 77, 86
2, 56064, Note_on_c, 0, 74, 86
2, 56241, Note_on_c, 0, 83, 0
2, 56241, Note_on_c, 0, 79, 0
2, 56241, Note_on_c, 0, 77, 0
2, 56241, Note_on_c, 0, 74, 0
2, 56256, Note_on_c, 0, 84, 86
2, 56256, Note_on_c, 0, 79, 86
2, 56256, Note_on_c, 0, 76, 86
2, 56345, Note_on_c, 0, 84, 0
2, 56345, Note_on_c, 0, 79, 0
2, 56345, Note_on_c, 0, 76, 0
2, 56640, End_track
3, 0, Start_track
3, 0, Program_c, 0, 0
3, 0, Control_c, 0, 7, 127
3, 0, Control_c, 0, 10, 64
3, 17568, Note_on_c, 0, 81, 64
3, 17591, Note_on_c, 0, 81, 0
3, 17592, Note_on_c, 0, 76, 64
3, 17615, Note_on_c, 0, 76, 0
3, 17616, Note_on_c, 0, 81, 64
3, 17639, Note_on_c, 0, 81, 0
3, 17640, Note_on_c, 0, 76, 64
3, 17663, Note_on_c, 0, 76, 0
3, 17664, Note_on_c, 0, 79, 64
3, 17687, Note_on_c, 0, 79, 0
3, 17688, Note_on_c, 0, 74, 64
3, 17711, Note_on_c, 0, 74, 0
3, 17712, Note_on_c, 0, 79, 64
3, 17735, Note_on_c, 0, 79, 0
3, 17736, Note_on_c, 0, 74, 64
3, 17759, Note_on_c, 0, 74, 0
3, 17760, Note_on_c, 0, 78, 64
3, 17783, Note_on_c, 0, 78, 0
3, 17784, Note_on_c, 0, 72, 64
3, 17807, Note_on_c, 0, 72, 0
3, 17808, Note_on_c, 0, 78, 64
3, 17831, Note_on_c, 0, 78, 0
3, 17832, Note_on_c, 0, 72, 64
3, 17855, Note_on_c, 0, 72, 0
3, 56640, End_track
4, 0, Start_track
4, 0, Program_c, 1, 0
4, 0, Control_c, 1, 7, 127
4, 0, Control_c, 1, 10, 64
4, 192, Note_on_c, 1, 64, 64
4, 192, Note_on_c, 1, 60, 64
4, 281, Note_on_c, 1, 64, 0
4, 281, Note_on_c, 1, 60, 0
4, 288, Note_on_c, 1, 65, 64
4, 288, Note_on_c, 1, 60, 64
4, 377, Note_on_c, 1, 65, 0
4, 377, Note_on_c, 1, 60, 0
4, 384, Note_on_c, 1, 64, 64
4, 384, Note_on_c, 1, 60, 64
4, 473, Note_on_c, 1, 64, 0
4, 473, Note_on_c, 1, 60, 0
4, 576, Note_on_c, 1, 59, 64
4, 665, Note_on_c, 1, 59, 0
4, 768, Note_on_c, 1, 60, 64
4, 857, Note_on_c, 1, 60, 0
4, 864, Note_on_c, 1, 72, 64
4, 909, Note_on_c, 1, 72, 0
4, 912, Note_on_c, 1, 74, 64
4, 957, Note_on_c, 1, 74, 0
4, 960, Note_on_c, 1, 76, 64
4, 1049, Note_on_c, 1, 76, 0
4, 1056, Note_on_c, 1, 74, 64
4, 1101, Note_on_c, 1, 74, 0
4, 1104, Note_on_c, 1, 72, 64
4, 1149, Note_on_c, 1, 72, 0
4, 1152, Note_on_c, 1, 71, 64
4, 1152, Note_on_c, 1, 67, 64
4, 1241, Note_on_c, 1, 71, 0
4, 1241, Note_on_c, 1, 67, 0
4, 1344, Note_on_c, 1, 64, 64
4, 1344, Note_on_c, 1, 60, 64
4, 1433, Note_on_c, 1, 64, 0
4, 1433, Note_on_c, 1, 60, 0
4, 1440, Note_on_c, 1, 65, 64
4, 1440, Note_on_c, 1, 60, 64
4, 1529, Note_on_c, 1, 65, 0
4, 1529, Note_on_c, 1, 60, 0
4, 1536, Note_on_c, 1, 64, 64
4, 1536, Note_on_c, 1, 60, 64
4, 1625, Note_on_c, 1, 64, 0
4, 1625, Note_on_c, 1, 60, 0
4, 1728, Note_on_c, 1, 67, 64
4, 1728, Note_on_c, 1, 59, 64
4, 1817, Note_on_c, 1, 67, 0
4, 1817, Note_on_c, 1, 59, 0
4, 1920, Note_on_c, 1, 67, 64
4, 1920, Note_on_c, 1, 60, 64
4, 2009, Note_on_c, 1, 67, 0
4, 2009, Note_on_c, 1, 60, 0
4, 2160, Note_on_c, 1, 63, 64
4, 2205, Note_on_c, 1, 63, 0
4, 2208, Note_on_c, 1, 62, 64
4, 2253, Note_on_c, 1, 62, 0
4, 2256, Note_on_c, 1, 50, 64
4, 2301, Note_on_c, 1, 50, 0
4, 2304, Note_on_c, 1, 55, 64
4, 2349, Note_on_c, 1, 55, 0
4, 2352, Note_on_c, 1, 43, 64
4, 2397, Note_on_c, 1, 43, 0
4, 2496, Note_on_c, 1, 64, 64
4, 2496, Note_on_c, 1, 60, 64
4, 2585, Note_on_c, 1, 64, 0
4, 2585, Note_on_c, 1, 60, 0
4, 2592, Note_on_c, 1, 65, 64
4, 2592, Note_on_c, 1, 60, 64
4, 2681, Note_on_c, 1, 65, 0
4, 2681, Note_on_c, 1, 60, 0
4, 2688, Note_on_c, 1, 64, 64
4, 2688, Note_on_c, 1, 60, 64
4, 2777, Note_on_c, 1, 64, 0
4, 2777, Note_on_c, 1, 60, 0
4, 2880, Note_on_c, 1, 59, 64
4, 2969, Note_on_c, 1, 59, 0
4, 3072, Note_on_c, 1, 60, 64
4, 3161, Note_on_c, 1, 60, 0
4, 3168, Note_on_c, 1, 72, 64
4, 3213, Note_on_c, 1, 72, 0
4, 3216, Note_on_c, 1, 74, 64
4, 3261, Note_on_c, 1, 74, 0
4, 3264, Note_on_c, 1, 76, 64
4, 3353, Note_on_c, 1, 76, 0
4, 3360, Note_on_c, 1, 74, 64
4, 3405, Note_on_c, 1, 74, 0
4, 3408, Note_on_c, 1, 72, 64
4, 3453, Note_on_c, 1, 72, 0
4, 3456, Note_on_c, 1, 71, 64
4, 3456, Note_on_c, 1, 67, 64
4, 3545, Note_on_c, 1, 71, 0
4, 3545, Note_on_c, 1, 67, 0
4, 3648, Note_on_c, 1, 64, 64
4, 3648, Note_on_c, 1, 60, 64
4, 3737, Note_on_c, 1, 64, 0
4, 3737, Note_on_c, 1, 60, 0
4, 3744, Note_on_c, 1, 65, 64
4, 3744, Note_on_c, 1, 60, 64
4, 3833, Note_on_c, 1, 65, 0
4, 3833, Note_on_c, 1, 60, 0
4, 3840, Note_on_c, 1, 64, 64
4, 3840, Note_on_c, 1, 60, 64
4, 3929, Note_on_c, 1, 64, 0
4, 3929, Note_on_c, 1, 60, 0
4, 4032, Note_on_c, 1, 67, 64
4, 4032, Note_on_c, 1, 59, 64
4, 4121, Note_on_c, 1, 67, 0
4, 4121, Note_on_c, 1, 59, 0
4, 4224, Note_on_c, 1, 67, 64
4, 4224, Note_on_c, 1, 60, 64
4, 4313, Note_on_c, 1, 67, 0
4, 4313, Note_on_c, 1, 60, 0
4, 4464, Note_on_c, 1, 63, 64
4, 4509, Note_on_c, 1, 63, 0
4, 4512, Note_on_c, 1, 62, 64
4, 4557, Note_on_c, 1, 62, 0
4, 4560, Note_on_c, 1, 50, 64
4, 4605, Note_on_c, 1, 50, 0
4, 4608, Note_on_c, 1, 55, 64
4, 4653, Note_on_c, 1, 55, 0
4, 4656, Note_on_c, 1, 43, 64
4, 4701, Note_on_c, 1, 43, 0
4, 4704, Note_on_c, 1, 59, 64
4, 4704, Note_on_c, 1, 55, 64
4, 4724, Note_on_c, 1, 59, 0
4, 4724, Note_on_c, 1, 55, 0
4, 4752, Note_on_c, 1, 60, 64
4, 4752, Note_on_c, 1, 57, 64
4, 4772, Note_on_c, 1, 60, 0
4, 4772, Note_on_c, 1, 57, 0
4, 4800, Note_on_c, 1, 61, 64
4, 4800, Note_on_c, 1, 58, 64
4, 4848, Note_on_c, 1, 61, 0
4, 4848, Note_on_c, 1, 58, 0
4, 4848, Note_on_c, 1, 62, 64
4, 4848, Note_on_c, 1, 59, 64
4, 4893, Note_on_c, 1, 62, 0
4, 4893, Note_on_c, 1, 59, 0
4, 5088, Note_on_c, 1, 64, 64
4, 5088, Note_on_c, 1, 60, 64
4, 5108, Note_on_c, 1, 64, 0
4, 5108, Note_on_c, 1, 60, 0
4, 5136, Note_on_c, 1, 65, 64
4, 5136, Note_on_c, 1, 62, 64
4, 5156, Note_on_c, 1, 65, 0
4, 5156, Note_on_c, 1, 62, 0
4, 5184, Note_on_c, 1, 66, 64
4, 5184, Note_on_c, 1, 63, 64
4, 5232, Note_on_c, 1, 66, 0
4, 5232, Note_on_c, 1, 63, 0
4, 5232, Note_on_c, 1, 67, 64
4, 5232, Note_on_c, 1, 64, 64
4, 5277, Note_on_c, 1, 67, 0
4, 5277, Note_on_c, 1, 64, 0
4, 5472, Note_on_c, 1, 52, 64
4, 5517, Note_on_c, 1, 52, 0
4, 5520, Note_on_c, 1, 60, 64
4, 5565, Note_on_c, 1, 60, 0
4, 5568, Note_on_c, 1, 53, 64
4, 5613, Note_on_c, 1, 53, 0
4, 5616, Note_on_c, 1, 60, 64
4, 5661, Note_on_c, 1, 60, 0
4, 5664, Note_on_c, 1, 55, 64
4, 5709, Note_on_c, 1, 55, 0
4, 5712, Note_on_c, 1, 60, 64
4, 5757, Note_on_c, 1, 60, 0
4, 5760, Note_on_c, 1, 57, 64
4, 5805, Note_on_c, 1, 57, 0
4, 5808, Note_on_c, 1, 60, 64
4, 5853, Note_on_c, 1, 60, 0
4, 5856, Note_on_c, 1, 53, 64
4, 5901, Note_on_c, 1, 53, 0
4, 5904, Note_on_c, 1, 60, 64
4, 5949, Note_on_c, 1, 60, 0
4, 5952, Note_on_c, 1, 52, 64
4, 5997, Note_on_c, 1, 52, 0
4, 6000, Note_on_c, 1, 60, 64
4, 6045, Note_on_c, 1, 60, 0
4, 6048, Note_on_c, 1, 53, 64
4, 6093, Note_on_c, 1, 53, 0
4, 6096, Note_on_c, 1, 54, 64
4, 6141, Note_on_c, 1, 54, 0
4, 6144, Note_on_c, 1, 55, 64
4, 6189, Note_on_c, 1, 55, 0
4, 6336, Note_on_c, 1, 64, 64
4, 6336, Note_on_c, 1, 60, 64
4, 6425, Note_on_c, 1, 64, 0
4, 6425, Note_on_c, 1, 60, 0
4, 6432, Note_on_c, 1, 65, 64
4, 6432, Note_on_c, 1, 60, 64
4, 6521, Note_on_c, 1, 65, 0
4, 6521, Note_on_c, 1, 60, 0
4, 6528, Note_on_c, 1, 64, 64
4, 6528, Note_on_c, 1, 60, 64
4, 6617, Note_on_c, 1, 64, 0
4, 6617, Note_on_c, 1, 60, 0
4, 6720, Note_on_c, 1, 59, 75
4, 6809, Note_on_c, 1, 59, 0
4, 6912, Note_on_c, 1, 60, 76
4, 7001, Note_on_c, 1, 60, 0
4, 7008, Note_on_c, 1, 60, 77
4, 7056, Note_on_c, 1, 60, 0
4, 7056, Note_on_c, 1, 59, 77
4, 7101, Note_on_c, 1, 59, 0
4, 7104, Note_on_c, 1, 58, 77
4, 7152, Note_on_c, 1, 58, 0
4, 7152, Note_on_c, 1, 57, 78
4, 7197, Note_on_c, 1, 57, 0
4, 7200, Note_on_c, 1, 62, 78
4, 7248, Note_on_c, 1, 62, 0
4, 7248, Note_on_c, 1, 61, 78
4, 7293, Note_on_c, 1, 61, 0
4, 7296, Note_on_c, 1, 60, 79
4, 7344, Note_on_c, 1, 60, 0
4, 7344, Note_on_c, 1, 59, 79
4, 7389, Note_on_c, 1, 59, 0
4, 7392, Note_on_c, 1, 60, 79
4, 7392, Note_on_c, 1, 57, 79
4, 7437, Note_on_c, 1, 60, 0
4, 7437, Note_on_c, 1, 57, 0
4, 7440, Note_on_c, 1, 59, 80
4, 7440, Note_on_c, 1, 55, 80
4, 7485, Note_on_c, 1, 59, 0
4, 7485, Note_on_c, 1, 55, 0
4, 7488, Note_on_c, 1, 57, 80
4, 7488, Note_on_c, 1, 53, 80
4, 7533, Note_on_c, 1, 57, 0
4, 7533, Note_on_c, 1, 53, 0
4, 7536, Note_on_c, 1, 55, 80
4, 7536, Note_on_c, 1, 52, 80
4, 7581, Note_on_c, 1, 55, 0
4, 7581, Note_on_c, 1, 52, 0
4, 7584, Note_on_c, 1, 53, 80
4, 7584, Note_on_c, 1, 50, 80
4, 7629, Note_on_c, 1, 53, 0
4, 7629, Note_on_c, 1, 50, 0
4, 7632, Note_on_c, 1, 55, 80
4, 7632, Note_on_c, 1, 52, 80
4, 7677, Note_on_c, 1, 55, 0
4, 7677, Note_on_c, 1, 52, 0
4, 7680, Note_on_c, 1, 57, 80
4, 7680, Note_on_c, 1, 53, 80
4, 7725, Note_on_c, 1, 57, 0
4, 7725, Note_on_c, 1, 53, 0
4, 7728, Note_on_c, 1, 55, 80
4, 7728, Note_on_c, 1, 52, 80
4, 7773, Note_on_c, 1, 55, 0
4, 7773, Note_on_c, 1, 52, 0
4, 7776, Note_on_c, 1, 53, 75
4, 7865, Note_on_c, 1, 53, 0
4, 7872, Note_on_c, 1, 55, 75
4, 7961, Note_on_c, 1, 55, 0
4, 7968, Note_on_c, 1, 43, 75
4, 8057, Note_on_c, 1, 43, 0
4, 8064, Note_on_c, 1, 48, 75
4, 8153, Note_on_c, 1, 48, 0
4, 8160, Note_on_c, 1, 59, 64
4, 8160, Note_on_c, 1, 55, 64
4, 8180, Note_on_c, 1, 59, 0
4, 8180, Note_on_c, 1, 55, 0
4, 8208, Note_on_c, 1, 60, 64
4, 8208, Note_on_c, 1, 57, 64
4, 8228, Note_on_c, 1, 60, 0
4, 8228, Note_on_c, 1, 57, 0
4, 8256, Note_on_c, 1, 61, 64
4, 8256, Note_on_c, 1, 58, 64
4, 8304, Note_on_c, 1, 61, 0
4, 8304, Note_on_c, 1, 58, 0
4, 8304, Note_on_c, 1, 62, 64
4, 8304, Note_on_c, 1, 59, 64
4, 8349, Note_on_c, 1, 62, 0
4, 8349, Note_on_c, 1, 59, 0
4, 8544, Note_on_c, 1, 64, 64
4, 8544, Note_on_c, 1, 60, 64
4, 8564, Note_on_c, 1, 64, 0
4, 8564, Note_on_c, 1, 60, 0
4, 8592, Note_on_c, 1, 65, 64
4, 8592, Note_on_c, 1, 62, 64
4, 8612, Note_on_c, 1, 65, 0
4, 8612, Note_on_c, 1, 62, 0
4, 8640, Note_on_c, 1, 66, 64
4, 8640, Note_on_c, 1, 63, 64
4, 8688, Note_on_c, 1, 66, 0
4, 8688, Note_on_c, 1, 63, 0
4, 8688, Note_on_c, 1, 67, 64
4, 8688, Note_on_c, 1, 64, 64
4, 8733, Note_on_c, 1, 67, 0
4, 8733, Note_on_c, 1, 64, 0
4, 8928, Note_on_c, 1, 52, 64
4, 8973, Note_on_c, 1, 52, 0
4, 8976, Note_on_c, 1, 60, 64
4, 9021, Note_on_c, 1, 60, 0
4, 9024, Note_on_c, 1, 53, 64
4, 9069, Note_on_c, 1, 53, 0
4, 9072, Note_on_c, 1, 60, 64
4, 9117, Note_on_c, 1, 60, 0
4, 9120, Note_on_c, 1, 55, 64
4, 9165, Note_on_c, 1, 55, 0
4, 9168, Note_on_c, 1, 60, 64
4, 9213, Note_on_c, 1, 60, 0
4, 9216, Note_on_c, 1, 57, 64
4, 9261, Note_on_c, 1, 57, 0
4, 9264, Note_on_c, 1, 60, 64
4, 9309, Note_on_c, 1, 60, 0
4, 9312, Note_on_c, 1, 53, 64
4, 9357, Note_on_c, 1, 53, 0
4, 9360, Note_on_c, 1, 60, 64
4, 9405, Note_on_c, 1, 60, 0
4, 9408, Note_on_c, 1, 52, 64
4, 9453, Note_on_c, 1, 52, 0
4, 9456, Note_on_c, 1, 60, 64
4, 9501, Note_on_c, 1, 60, 0
4, 9504, Note_on_c, 1, 53, 64
4, 9549, Note_on_c, 1, 53, 0
4, 9552, Note_on_c, 1, 54, 64
4, 9597, Note_on_c, 1, 54, 0
4, 9600, Note_on_c, 1, 55, 64
4, 9645, Note_on_c, 1, 55, 0
4, 9792, Note_on_c, 1, 64, 64
4, 9792, Note_on_c, 1, 60, 64
4, 9881, Note_on_c, 1, 64, 0
4, 9881, Note_on_c, 1, 60, 0
4, 9888, Note_on_c, 1, 65, 64
4, 9888, Note_on_c, 1, 60, 64
4, 9977, Note_on_c, 1, 65, 0
4, 9977, Note_on_c, 1, 60, 0
4, 9984, Note_on_c, 1, 64, 64
4, 9984, Note_on_c, 1, 60, 64
4, 10073, Note_on_c, 1, 64, 0
4, 10073, Note_on_c, 1, 60, 0
4, 10176, Note_on_c, 1, 59, 75
4, 10265, Note_on_c, 1, 59, 0
4, 10368, Note_on_c, 1, 60, 76
4, 10457, Note_on_c, 1, 60, 0
4, 10464, Note_on_c, 1, 60, 77
4, 10512, Note_on_c, 1, 60, 0
4, 10512, Note_on_c, 1, 59, 77
4, 10557, Note_on_c, 1, 59, 0
4, 10560, Note_on_c, 1, 58, 77
4, 10608, Note_on_c, 1, 58, 0
4, 10608, Note_on_c, 1, 57, 78
4, 10653, Note_on_c, 1, 57, 0
4, 10656, Note_on_c, 1, 62, 78
4, 10704, Note_on_c, 1, 62, 0
4, 10704, Note_on_c, 1, 61, 78
4, 10749, Note_on_c, 1, 61, 0
4, 10752, Note_on_c, 1, 60, 79
4, 10800, Note_on_c, 1, 60, 0
4, 10800, Note_on_c, 1, 59, 79
4, 10845, Note_on_c, 1, 59, 0
4, 10848, Note_on_c, 1, 60, 79
4, 10848, Note_on_c, 1, 57, 79
4, 10893, Note_on_c, 1, 60, 0
4, 10893, Note_on_c, 1, 57, 0
4, 10896, Note_on_c, 1, 59, 80
4, 10896, Note_on_c, 1, 55, 80
4, 10941, Note_on_c, 1, 59, 0
4, 10941, Note_on_c, 1, 55, 0
4, 10944, Note_on_c, 1, 57, 80
4, 10944, Note_on_c, 1, 53, 80
4, 10989, Note_on_c, 1, 57, 0
4, 10989, Note_on_c, 1, 53, 0
4, 10992, Note_on_c, 1, 55, 80
4, 10992, Note_on_c, 1, 52, 80
4, 11037, Note_on_c, 1, 55, 0
4, 11037, Note_on_c, 1, 52, 0
4, 11040, Note_on_c, 1, 53, 80
4, 11040, Note_on_c, 1, 50, 80
4, 11085, Note_on_c, 1, 53, 0
4, 11085, Note_on_c, 1, 50, 0
4, 11088, Note_on_c, 1, 55, 80
4, 11088, Note_on_c, 1, 52, 80
4, 11133, Note_on_c, 1, 55, 0
4, 11133, Note_on_c, 1, 52, 0
4, 11136, Note_on_c, 1, 57, 80
4, 11136, Note_on_c, 1, 53, 80
4, 11181, Note_on_c, 1, 57, 0
4, 11181, Note_on_c, 1, 53, 0
4, 11184, Note_on_c, 1, 55, 80
4, 11184, Note_on_c, 1, 52, 80
4, 11229, Note_on_c, 1, 55, 0
4, 11229, Note_on_c, 1, 52, 0
4, 11232, Note_on_c, 1, 53, 75
4, 11321, Note_on_c, 1, 53, 0
4, 11328, Note_on_c, 1, 55, 75
4, 11417, Note_on_c, 1, 55, 0
4, 11424, Note_on_c, 1, 43, 75
4, 11513, Note_on_c, 1, 43, 0
4, 11520, Note_on_c, 1, 48, 75
4, 11609, Note_on_c, 1, 48, 0
4, 11712, Note_on_c, 1, 48, 80
4, 11712, Note_on_c, 1, 40, 80
4, 11712, Note_on_c, 1, 36, 80
4, 11801, Note_on_c, 1, 48, 0
4, 11801, Note_on_c, 1, 40, 0
4, 11801, Note_on_c, 1, 36, 0
4, 11808, Note_on_c, 1, 50, 80
4, 11808, Note_on_c, 1, 41, 80
4, 11808, Note_on_c, 1, 38, 80
4, 11897, Note_on_c, 1, 50, 0
4, 11897, Note_on_c, 1, 41, 0
4, 11897, Note_on_c, 1, 38, 0
4, 11904, Note_on_c, 1, 52, 80
4, 11904, Note_on_c, 1, 43, 80
4, 11904, Note_on_c, 1, 40, 80
4, 11993, Note_on_c, 1, 52, 0
4, 11993, Note_on_c, 1, 43, 0
4, 11993, Note_on_c, 1, 40, 0
4, 12000, Note_on_c, 1, 52, 80
4, 12000, Note_on_c, 1, 43, 80
4, 12000, Note_on_c, 1, 40, 80
4, 12045, Note_on_c, 1, 52, 0
4, 12045, Note_on_c, 1, 43, 0
4, 12045, Note_on_c, 1, 40, 0
4, 12048, Note_on_c, 1, 53, 80
4, 12048, Note_on_c, 1, 45, 80
4, 12048, Note_on_c, 1, 41, 80
4, 12093, Note_on_c, 1, 53, 0
4, 12093, Note_on_c, 1, 45, 0
4, 12093, Note_on_c, 1, 41, 0
4, 12096, Note_on_c, 1, 55, 80
4, 12096, Note_on_c, 1, 47, 80
4, 12096, Note_on_c, 1, 43, 80
4, 12185, Note_on_c, 1, 55, 0
4, 12185, Note_on_c, 1, 47, 0
4, 12185, Note_on_c, 1, 43, 0
4, 12192, Note_on_c, 1, 57, 80
4, 12192, Note_on_c, 1, 48, 80
4, 12192, Note_on_c, 1, 45, 80
4, 12237, Note_on_c, 1, 57, 0
4, 12237, Note_on_c, 1, 48, 0
4, 12237, Note_on_c, 1, 45, 0
4, 12240, Note_on_c, 1, 59, 80
4, 12240, Note_on_c, 1, 50, 80
4, 12240, Note_on_c, 1, 47, 80
4, 12285, Note_on_c, 1, 59, 0
4, 12285, Note_on_c, 1, 50, 0
4, 12285, Note_on_c, 1, 47, 0
4, 12288, Note_on_c, 1, 60, 80
4, 12288, Note_on_c, 1, 52, 80
4, 12288, Note_on_c, 1, 48, 80
4, 12377, Note_on_c, 1, 60, 0
4, 12377, Note_on_c, 1, 52, 0
4, 12377, Note_on_c, 1, 48, 0
4, 12384, Note_on_c, 1, 72, 75
4, 12429, Note_on_c, 1, 72, 0
4, 12432, Note_on_c, 1, 72, 75
4, 12477, Note_on_c, 1, 72, 0
4, 12480, Note_on_c, 1, 71, 75
4, 12569, Note_on_c, 1, 71, 0
4, 12576, Note_on_c, 1, 66, 75
4, 12665, Note_on_c, 1, 66, 0
4, 12672, Note_on_c, 1, 67, 75
4, 12761, Note_on_c, 1, 67, 0
4, 12768, Note_on_c, 1, 59, 75
4, 12813, Note_on_c, 1, 59, 0
4, 12816, Note_on_c, 1, 62, 75
4, 12861, Note_on_c, 1, 62, 0
4, 12864, Note_on_c, 1, 60, 75
4, 12909, Note_on_c, 1, 60, 0
4, 12912, Note_on_c, 1, 62, 75
4, 12957, Note_on_c, 1, 62, 0
4, 12960, Note_on_c, 1, 59, 75
4, 13005, Note_on_c, 1, 59, 0
4, 13008, Note_on_c, 1, 62, 75
4, 13053, Note_on_c, 1, 62, 0
4, 13056, Note_on_c, 1, 60, 75
4, 13101, Note_on_c, 1, 60, 0
4, 13104, Note_on_c, 1, 62, 72
4, 13149, Note_on_c, 1, 62, 0
4, 13152, Note_on_c, 1, 59, 64
4, 13197, Note_on_c, 1, 59, 0
4, 13200, Note_on_c, 1, 62, 64
4, 13245, Note_on_c, 1, 62, 0
4, 13248, Note_on_c, 1, 60, 64
4, 13293, Note_on_c, 1, 60, 0
4, 13296, Note_on_c, 1, 62, 64
4, 13341, Note_on_c, 1, 62, 0
4, 13344, Note_on_c, 1, 59, 64
4, 13389, Note_on_c, 1, 59, 0
4, 13392, Note_on_c, 1, 62, 64
4, 13437, Note_on_c, 1, 62, 0
4, 13440, Note_on_c, 1, 60, 64
4, 13485, Note_on_c, 1, 60, 0
4, 13488, Note_on_c, 1, 62, 67
4, 13533, Note_on_c, 1, 62, 0
4, 13536, Note_on_c, 1, 59, 71
4, 13581, Note_on_c, 1, 59, 0
4, 13584, Note_on_c, 1, 67, 75
4, 13629, Note_on_c, 1, 67, 0
4, 13632, Note_on_c, 1, 60, 75
4, 13677, Note_on_c, 1, 60, 0
4, 13680, Note_on_c, 1, 67, 75
4, 13725, Note_on_c, 1, 67, 0
4, 13728, Note_on_c, 1, 57, 75
4, 13773, Note_on_c, 1, 57, 0
4, 13776, Note_on_c, 1, 66, 75
4, 13821, Note_on_c, 1, 66, 0
4, 13824, Note_on_c, 1, 59, 75
4, 13869, Note_on_c, 1, 59, 0
4, 13872, Note_on_c, 1, 66, 75
4, 13917, Note_on_c, 1, 66, 0
4, 13920, Note_on_c, 1, 55, 75
4, 13965, Note_on_c, 1, 55, 0
4, 13968, Note_on_c, 1, 64, 75
4, 14013, Note_on_c, 1, 64, 0
4, 14016, Note_on_c, 1, 57, 75
4, 14061, Note_on_c, 1, 57, 0
4, 14064, Note_on_c, 1, 64, 75
4, 14109, Note_on_c, 1, 64, 0
4, 14112, Note_on_c, 1, 54, 75
4, 14157, Note_on_c, 1, 54, 0
4, 14160, Note_on_c, 1, 62, 75
4, 14205, Note_on_c, 1, 62, 0
4, 14208, Note_on_c, 1, 55, 75
4, 14253, Note_on_c, 1, 55, 0
4, 14256, Note_on_c, 1, 62, 75
4, 14301, Note_on_c, 1, 62, 0
4, 14304, Note_on_c, 1, 52, 75
4, 14349, Note_on_c, 1, 52, 0
4, 14352, Note_on_c, 1, 55, 75
4, 14397, Note_on_c, 1, 55, 0
4, 14448, Note_on_c, 1, 54, 75
4, 14493, Note_on_c, 1, 54, 0
4, 14496, Note_on_c, 1, 59, 75
4, 14541, Note_on_c, 1, 59, 0
4, 14544, Note_on_c, 1, 59, 75
4, 14589, Note_on_c, 1, 59, 0
4, 14592, Note_on_c, 1, 60, 75
4, 14637, Note_on_c, 1, 60, 0
4, 14640, Note_on_c, 1, 60, 75
4, 14685, Note_on_c, 1, 60, 0
4, 14688, Note_on_c, 1, 57, 75
4, 14733, Note_on_c, 1, 57, 0
4, 14736, Note_on_c, 1, 57, 75
4, 14781, Note_on_c, 1, 57, 0
4, 14784, Note_on_c, 1, 54, 75
4, 14829, Note_on_c, 1, 54, 0
4, 14832, Note_on_c, 1, 54, 75
4, 14877, Note_on_c, 1, 54, 0
4, 14880, Note_on_c, 1, 59, 75
4, 14925, Note_on_c, 1, 59, 0
4, 14928, Note_on_c, 1, 59, 75
4, 14973, Note_on_c, 1, 59, 0
4, 14976, Note_on_c, 1, 60, 75
4, 15021, Note_on_c, 1, 60, 0
4, 15024, Note_on_c, 1, 60, 75
4, 15069, Note_on_c, 1, 60, 0
4, 15072, Note_on_c, 1, 57, 75
4, 15117, Note_on_c, 1, 57, 0
4, 15120, Note_on_c, 1, 57, 75
4, 15165, Note_on_c, 1, 57, 0
4, 15168, Note_on_c, 1, 54, 75
4, 15213, Note_on_c, 1, 54, 0
4, 15216, Note_on_c, 1, 54, 75
4, 15261, Note_on_c, 1, 54, 0
4, 15264, Note_on_c, 1, 59, 75
4, 15309, Note_on_c, 1, 59, 0
4, 15312, Note_on_c, 1, 59, 73
4, 15360, Note_on_c, 1, 59, 0
4, 15360, Note_on_c, 1, 60, 71
4, 15380, Note_on_c, 1, 60, 0
4, 15408, Note_on_c, 1, 60, 70
4, 15456, Note_on_c, 1, 60, 0
4, 15456, Note_on_c, 1, 59, 68
4, 15476, Note_on_c, 1, 59, 0
4, 15504, Note_on_c, 1, 59, 67
4, 15552, Note_on_c, 1, 59, 0
4, 15552, Note_on_c, 1, 60, 65
4, 15572, Note_on_c, 1, 60, 0
4, 15600, Note_on_c, 1, 60, 64
4, 15648, Note_on_c, 1, 60, 0
4, 15648, Note_on_c, 1, 59, 62
4, 15668, Note_on_c, 1, 59, 0
4, 15696, Note_on_c, 1, 59, 61
4, 15744, Note_on_c, 1, 59, 0
4, 15744, Note_on_c, 1, 60, 59
4, 15764, Note_on_c, 1, 60, 0
4, 15792, Note_on_c, 1, 60, 58
4, 15837, Note_on_c, 1, 60, 0
4, 16128, Note_on_c, 1, 59, 75
4, 16128, Note_on_c, 1, 55, 75
4, 16217, Note_on_c, 1, 59, 0
4, 16217, Note_on_c, 1, 55, 0
4, 16224, Note_on_c, 1, 60, 75
4, 16224, Note_on_c, 1, 55, 75
4, 16313, Note_on_c, 1, 60, 0
4, 16313, Note_on_c, 1, 55, 0
4, 16320, Note_on_c, 1, 59, 75
4, 16320, Note_on_c, 1, 55, 75
4, 16409, Note_on_c, 1, 59, 0
4, 16409, Note_on_c, 1, 55, 0
4, 16512, Note_on_c, 1, 54, 75
4, 16601, Note_on_c, 1, 54, 0
4, 16704, Note_on_c, 1, 55, 75
4, 16793, Note_on_c, 1, 55, 0
4, 16800, Note_on_c, 1, 67, 75
4, 16845, Note_on_c, 1, 67, 0
4, 16848, Note_on_c, 1, 66, 75
4, 16893, Note_on_c, 1, 66, 0
4, 16896, Note_on_c, 1, 65, 75
4, 16941, Note_on_c, 1, 65, 0
4, 16944, Note_on_c, 1, 64, 75
4, 16989, Note_on_c, 1, 64, 0
4, 16992, Note_on_c, 1, 69, 75
4, 17037, Note_on_c, 1, 69, 0
4, 17040, Note_on_c, 1, 68, 76
4, 17085, Note_on_c, 1, 68, 0
4, 17088, Note_on_c, 1, 67, 76
4, 17133, Note_on_c, 1, 67, 0
4, 17136, Note_on_c, 1, 66, 76
4, 17181, Note_on_c, 1, 66, 0
4, 17184, Note_on_c, 1, 72, 77
4, 17229, Note_on_c, 1, 72, 0
4, 17232, Note_on_c, 1, 72, 77
4, 17277, Note_on_c, 1, 72, 0
4, 17280, Note_on_c, 1, 71, 77
4, 17369, Note_on_c, 1, 71, 0
4, 17376, Note_on_c, 1, 66, 78
4, 17421, Note_on_c, 1, 66, 0
4, 17424, Note_on_c, 1, 66, 78
4, 17469, Note_on_c, 1, 66, 0
4, 17472, Note_on_c, 1, 67, 79
4, 17561, Note_on_c, 1, 67, 0
4, 17568, Note_on_c, 1, 57, 80
4, 17568, Note_on_c, 1, 52, 80
4, 17568, Note_on_c, 1, 48, 80
4, 17657, Note_on_c, 1, 57, 0
4, 17657, Note_on_c, 1, 52, 0
4, 17657, Note_on_c, 1, 48, 0
4, 17664, Note_on_c, 1, 59, 80
4, 17664, Note_on_c, 1, 55, 80
4, 17664, Note_on_c, 1, 50, 80
4, 17753, Note_on_c, 1, 59, 0
4, 17753, Note_on_c, 1, 55, 0
4, 17753, Note_on_c, 1, 50, 0
4, 17760, Note_on_c, 1, 60, 80
4, 17760, Note_on_c, 1, 57, 80
4, 17760, Note_on_c, 1, 50, 80
4, 17849, Note_on_c, 1, 60, 0
4, 17849, Note_on_c, 1, 57, 0
4, 17849, Note_on_c, 1, 50, 0
4, 17856, Note_on_c, 1, 59, 80
4, 17856, Note_on_c, 1, 55, 80
4, 17945, Note_on_c, 1, 59, 0
4, 17945, Note_on_c, 1, 55, 0
4, 17952, Note_on_c, 1, 50, 80
4, 17975, Note_on_c, 1, 50, 0
4, 17976, Note_on_c, 1, 48, 80
4, 17999, Note_on_c, 1, 48, 0
4, 18000, Note_on_c, 1, 47, 80
4, 18023, Note_on_c, 1, 47, 0
4, 18024, Note_on_c, 1, 45, 80
4, 18047, Note_on_c, 1, 45, 0
4, 18048, Note_on_c, 1, 43, 80
4, 18071, Note_on_c, 1, 43, 0
4, 18072, Note_on_c, 1, 47, 80
4, 18095, Note_on_c, 1, 47, 0
4, 18096, Note_on_c, 1, 50, 80
4, 18119, Note_on_c, 1, 50, 0
4, 18120, Note_on_c, 1, 55, 80
4, 18143, Note_on_c, 1, 55, 0
4, 18144, Note_on_c, 1, 54, 80
4, 18167, Note_on_c, 1, 54, 0
4, 18168, Note_on_c, 1, 57, 80
4, 18191, Note_on_c, 1, 57, 0
4, 18192, Note_on_c, 1, 54, 80
4, 18215, Note_on_c, 1, 54, 0
4, 18216, Note_on_c, 1, 50, 80
4, 18239, Note_on_c, 1, 50, 0
4, 18240, Note_on_c, 1, 55, 80
4, 18285, Note_on_c, 1, 55, 0
4, 18288, Note_on_c, 1, 55, 80
4, 18333, Note_on_c, 1, 55, 0
4, 18336, Note_on_c, 1, 50, 80
4, 18359, Note_on_c, 1, 50, 0
4, 18360, Note_on_c, 1, 48, 80
4, 18383, Note_on_c, 1, 48, 0
4, 18384, Note_on_c, 1, 47, 80
4, 18407, Note_on_c, 1, 47, 0
4, 18408, Note_on_c, 1, 45, 80
4, 18431, Note_on_c, 1, 45, 0
4, 18432, Note_on_c, 1, 43, 80
4, 18455, Note_on_c, 1, 43, 0
4, 18456, Note_on_c, 1, 47, 80
4, 18479, Note_on_c, 1, 47, 0
4, 18480, Note_on_c, 1, 50, 80
4, 18503, Note_on_c, 1, 50, 0
4, 18504, Note_on_c, 1, 55, 80
4, 18527, Note_on_c, 1, 55, 0
4, 18528, Note_on_c, 1, 54, 80
4, 18551, Note_on_c, 1, 54, 0
4, 18552, Note_on_c, 1, 57, 80
4, 18575, Note_on_c, 1, 57, 0
4, 18576, Note_on_c, 1, 54, 80
4, 18599, Note_on_c, 1, 54, 0
4, 18600, Note_on_c, 1, 50, 80
4, 18623, Note_on_c, 1, 50, 0
4, 18624, Note_on_c, 1, 59, 80
4, 18669, Note_on_c, 1, 59, 0
4, 18672, Note_on_c, 1, 59, 80
4, 18717, Note_on_c, 1, 59, 0
4, 18720, Note_on_c, 1, 57, 80
4, 18743, Note_on_c, 1, 57, 0
4, 18744, Note_on_c, 1, 60, 80
4, 18767, Note_on_c, 1, 60, 0
4, 18768, Note_on_c, 1, 57, 80
4, 18791, Note_on_c, 1, 57, 0
4, 18792, Note_on_c, 1, 54, 80
4, 18815, Note_on_c, 1, 54, 0
4, 18816, Note_on_c, 1, 62, 80
4, 18861, Note_on_c, 1, 62, 0
4, 18864, Note_on_c, 1, 62, 80
4, 18912, Note_on_c, 1, 62, 0
4, 18912, Note_on_c, 1, 63, 80
4, 18932, Note_on_c, 1, 63, 0
4, 18960, Note_on_c, 1, 63, 80
4, 19008, Note_on_c, 1, 63, 0
4, 19008, Note_on_c, 1, 64, 80
4, 19028, Note_on_c, 1, 64, 0
4, 19056, Note_on_c, 1, 64, 80
4, 19101, Note_on_c, 1, 64, 0
4, 19296, Note_on_c, 1, 47, 75
4, 19296, Note_on_c, 1, 35, 75
4, 19316, Note_on_c, 1, 47, 0
4, 19316, Note_on_c, 1, 35, 0
4, 19344, Note_on_c, 1, 47, 75
4, 19344, Note_on_c, 1, 35, 75
4, 19392, Note_on_c, 1, 47, 0
4, 19392, Note_on_c, 1, 35, 0
4, 19392, Note_on_c, 1, 48, 75
4, 19392, Note_on_c, 1, 36, 75
4, 19481, Note_on_c, 1, 48, 0
4, 19481, Note_on_c, 1, 36, 0
4, 19488, Note_on_c, 1, 49, 76
4, 19488, Note_on_c, 1, 37, 76
4, 19508, Note_on_c, 1, 49, 0
4, 19508, Note_on_c, 1, 37, 0
4, 19536, Note_on_c, 1, 49, 76
4, 19536, Note_on_c, 1, 37, 76
4, 19584, Note_on_c, 1, 49, 0
4, 19584, Note_on_c, 1, 37, 0
4, 19584, Note_on_c, 1, 50, 77
4, 19584, Note_on_c, 1, 38, 77
4, 19673, Note_on_c, 1, 50, 0
4, 19673, Note_on_c, 1, 38, 0
4, 19680, Note_on_c, 1, 51, 78
4, 19680, Note_on_c, 1, 39, 78
4, 19700, Note_on_c, 1, 51, 0
4, 19700, Note_on_c, 1, 39, 0
4, 19728, Note_on_c, 1, 51, 79
4, 19728, Note_on_c, 1, 39, 79
4, 19776, Note_on_c, 1, 51, 0
4, 19776, Note_on_c, 1, 39, 0
4, 19776, Note_on_c, 1, 52, 80
4, 19776, Note_on_c, 1, 40, 80
4, 19865, Note_on_c, 1, 52, 0
4, 19865, Note_on_c, 1, 40, 0
4, 19872, Note_on_c, 1, 54, 80
4, 19872, Note_on_c, 1, 42, 80
4, 19961, Note_on_c, 1, 54, 0
4, 19961, Note_on_c, 1, 42, 0
4, 19968, Note_on_c, 1, 55, 80
4, 19968, Note_on_c, 1, 43, 80
4, 20057, Note_on_c, 1, 55, 0
4, 20057, Note_on_c, 1, 43, 0
4, 20064, Note_on_c, 1, 57, 80
4, 20064, Note_on_c, 1, 45, 80
4, 20153, Note_on_c, 1, 57, 0
4, 20153, Note_on_c, 1, 45, 0
4, 20160, Note_on_c, 1, 59, 80
4, 20160, Note_on_c, 1, 47, 80
4, 20249, Note_on_c, 1, 59, 0
4, 20249, Note_on_c, 1, 47, 0
4, 20256, Note_on_c, 1, 57, 80
4, 20256, Note_on_c, 1, 54, 80
4, 20276, Note_on_c, 1, 57, 0
4, 20276, Note_on_c, 1, 54, 0
4, 20304, Note_on_c, 1, 57, 80
4, 20304, Note_on_c, 1, 54, 80
4, 20324, Note_on_c, 1, 57, 0
4, 20324, Note_on_c, 1, 54, 0
4, 20352, Note_on_c, 1, 59, 80
4, 20352, Note_on_c, 1, 55, 80
4, 20441, Note_on_c, 1, 59, 0
4, 20441, Note_on_c, 1, 55, 0
4, 20448, Note_on_c, 1, 60, 80
4, 20448, Note_on_c, 1, 57, 80
4, 20468, Note_on_c, 1, 60, 0
4, 20468, Note_on_c, 1, 57, 0
4, 20496, Note_on_c, 1, 60, 80
4, 20496, Note_on_c, 1, 57, 80
4, 20516, Note_on_c, 1, 60, 0
4, 20516, Note_on_c, 1, 57, 0
4, 20544, Note_on_c, 1, 59, 80
4, 20544, Note_on_c, 1, 55, 80
4, 20633, Note_on_c, 1, 59, 0
4, 20633, Note_on_c, 1, 55, 0
4, 20640, Note_on_c, 1, 57, 80
4, 20640, Note_on_c, 1, 54, 80
4, 20660, Note_on_c, 1, 57, 0
4, 20660, Note_on_c, 1, 54, 0
4, 20688, Note_on_c, 1, 57, 80
4, 20688, Note_on_c, 1, 54, 80
4, 20708, Note_on_c, 1, 57, 0
4, 20708, Note_on_c, 1, 54, 0
4, 20736, Note_on_c, 1, 59, 80
4, 20736, Note_on_c, 1, 55, 80
4, 20825, Note_on_c, 1, 59, 0
4, 20825, Note_on_c, 1, 55, 0
4, 20832, Note_on_c, 1, 60, 80
4, 20832, Note_on_c, 1, 57, 80
4, 20852, Note_on_c, 1, 60, 0
4, 20852, Note_on_c, 1, 57, 0
4, 20880, Note_on_c, 1, 60, 80
4, 20880, Note_on_c, 1, 57, 80
4, 20900, Note_on_c, 1, 60, 0
4, 20900, Note_on_c, 1, 57, 0
4, 20928, Note_on_c, 1, 59, 80
4, 20928, Note_on_c, 1, 55, 80
4, 21017, Note_on_c, 1, 59, 0
4, 21017, Note_on_c, 1, 55, 0
4, 21120, Note_on_c, 1, 60, 75
4, 21209, Note_on_c, 1, 60, 0
4, 21408, Note_on_c, 1, 54, 75
4, 21453, Note_on_c, 1, 54, 0
4, 21456, Note_on_c, 1, 54, 75
4, 21501, Note_on_c, 1, 54, 0
4, 21504, Note_on_c, 1, 55, 75
4, 21549, Note_on_c, 1, 55, 0
4, 21552, Note_on_c, 1, 48, 75
4, 21597, Note_on_c, 1, 48, 0
4, 21600, Note_on_c, 1, 50, 75
4, 21645, Note_on_c, 1, 50, 0
4, 21648, Note_on_c, 1, 50, 75
4, 21693, Note_on_c, 1, 50, 0
4, 21696, Control_c, 1, 64, 127
4, 21696, Note_on_c, 1, 31, 80
4, 21719, Note_on_c, 1, 31, 0
4, 21720, Note_on_c, 1, 43, 80
4, 21743, Note_on_c, 1, 43, 0
4, 21744, Note_on_c, 1, 31, 80
4, 21767, Note_on_c, 1, 31, 0
4, 21768, Note_on_c, 1, 43, 80
4, 21791, Note_on_c, 1, 43, 0
4, 21792, Note_on_c, 1, 31, 80
4, 21815, Note_on_c, 1, 31, 0
4, 21816, Note_on_c, 1, 43, 80
4, 21839, Note_on_c, 1, 43, 0
4, 21840, Note_on_c, 1, 31, 80
4, 21863, Note_on_c, 1, 31, 0
4, 21864, Note_on_c, 1, 43, 80
4, 21887, Note_on_c, 1, 43, 0
4, 21888, Note_on_c, 1, 31, 80
4, 21911, Note_on_c, 1, 31, 0
4, 21912, Note_on_c, 1, 43, 80
4, 21935, Note_on_c, 1, 43, 0
4, 21936, Note_on_c, 1, 31, 80
4, 21959, Note_on_c, 1, 31, 0
4, 21960, Note_on_c, 1, 43, 80
4, 21983, Note_on_c, 1, 43, 0
4, 21984, Note_on_c, 1, 31, 80
4, 22007, Note_on_c, 1, 31, 0
4, 22008, Note_on_c, 1, 43, 80
4, 22031, Note_on_c, 1, 43, 0
4, 22032, Note_on_c, 1, 31, 80
4, 22055, Note_on_c, 1, 31, 0
4, 22056, Note_on_c, 1, 43, 80
4, 22079, Note_on_c, 1, 43, 0
4, 22080, Note_on_c, 1, 31, 80
4, 22103, Note_on_c, 1, 31, 0
4, 22104, Note_on_c, 1, 43, 80
4, 22127, Note_on_c, 1, 43, 0
4, 22128, Note_on_c, 1, 31, 80
4, 22151, Note_on_c, 1, 31, 0
4, 22152, Note_on_c, 1, 43, 80
4, 22175, Note_on_c, 1, 43, 0
4, 22176, Note_on_c, 1, 31, 80
4, 22199, Note_on_c, 1, 31, 0
4, 22200, Note_on_c, 1, 43, 80
4, 22223, Note_on_c, 1, 43, 0
4, 22224, Note_on_c, 1, 31, 80
4, 22247, Note_on_c, 1, 31, 0
4, 22248, Note_on_c, 1, 43, 80
4, 22271, Note_on_c, 1, 43, 0
4, 22272, Note_on_c, 1, 31, 80
4, 22295, Note_on_c, 1, 31, 0
4, 22296, Note_on_c, 1, 43, 80
4, 22319, Note_on_c, 1, 43, 0
4, 22320, Note_on_c, 1, 31, 80
4, 22343, Note_on_c, 1, 31, 0
4, 22344, Note_on_c, 1, 43, 80
4, 22367, Note_on_c, 1, 43, 0
4, 22368, Note_on_c, 1, 31, 80
4, 22391, Note_on_c, 1, 31, 0
4, 22392, Note_on_c, 1, 43, 80
4, 22415, Note_on_c, 1, 43, 0
4, 22416, Note_on_c, 1, 31, 80
4, 22439, Note_on_c, 1, 31, 0
4, 22440, Note_on_c, 1, 43, 80
4, 22463, Note_on_c, 1, 43, 0
4, 22464, Control_c, 1, 64, 0
4, 22464, Note_on_c, 1, 43, 80
4, 22464, Note_on_c, 1, 31, 80
4, 22509, Note_on_c, 1, 43, 0
4, 22509, Note_on_c, 1, 31, 0
4, 22656, Note_on_c, 1, 43, 75
4, 22656, Note_on_c, 1, 31, 75
4, 22745, Note_on_c, 1, 43, 0
4, 22745, Note_on_c, 1, 31, 0
4, 22848, Note_on_c, 1, 43, 70
4, 22848, Note_on_c, 1, 31, 70
4, 22937, Note_on_c, 1, 43, 0
4, 22937, Note_on_c, 1, 31, 0
4, 23040, Note_on_c, 1, 43, 64
4, 23040, Note_on_c, 1, 31, 64
4, 23129, Note_on_c, 1, 43, 0
4, 23129, Note_on_c, 1, 31, 0
4, 23616, Note_on_c, 1, 64, 75
4, 23616, Note_on_c, 1, 60, 75
4, 23705, Note_on_c, 1, 64, 0
4, 23705, Note_on_c, 1, 60, 0
4, 23712, Note_on_c, 1, 65, 75
4, 23712, Note_on_c, 1, 60, 75
4, 23801, Note_on_c, 1, 65, 0
4, 23801, Note_on_c, 1, 60, 0
4, 23808, Note_on_c, 1, 64, 75
4, 23808, Note_on_c, 1, 60, 75
4, 23897, Note_on_c, 1, 64, 0
4, 23897, Note_on_c, 1, 60, 0
4, 24000, Note_on_c, 1, 59, 75
4, 24089, Note_on_c, 1, 59, 0
4, 24192, Note_on_c, 1, 60, 75
4, 24281, Note_on_c, 1, 60, 0
4, 24288, Note_on_c, 1, 72, 75
4, 24333, Note_on_c, 1, 72, 0
4, 24336, Note_on_c, 1, 74, 75
4, 24381, Note_on_c, 1, 74, 0
4, 24384, Note_on_c, 1, 76, 75
4, 24473, Note_on_c, 1, 76, 0
4, 24480, Note_on_c, 1, 74, 75
4, 24525, Note_on_c, 1, 74, 0
4, 24528, Note_on_c, 1, 72, 75
4, 24573, Note_on_c, 1, 72, 0
4, 24576, Note_on_c, 1, 71, 75
4, 24576, Note_on_c, 1, 67, 75
4, 24665, Note_on_c, 1, 71, 0
4, 24665, Note_on_c, 1, 67, 0
4, 24768, Note_on_c, 1, 64, 75
4, 24768, Note_on_c, 1, 60, 75
4, 24857, Note_on_c, 1, 64, 0
4, 24857, Note_on_c, 1, 60, 0
4, 24864, Note_on_c, 1, 65, 75
4, 24864, Note_on_c, 1, 60, 75
4, 24953, Note_on_c, 1, 65, 0
4, 24953, Note_on_c, 1, 60, 0
4, 24960, Note_on_c, 1, 64, 75
4, 24960, Note_on_c, 1, 60, 75
4, 25049, Note_on_c, 1, 64, 0
4, 25049, Note_on_c, 1, 60, 0
4, 25152, Note_on_c, 1, 67, 75
4, 25152, Note_on_c, 1, 59, 75
4, 25241, Note_on_c, 1, 67, 0
4, 25241, Note_on_c, 1, 59, 0
4, 25344, Note_on_c, 1, 67, 75
4, 25344, Note_on_c, 1, 60, 75
4, 25433, Note_on_c, 1, 67, 0
4, 25433, Note_on_c, 1, 60, 0
4, 25584, Note_on_c, 1, 63, 75
4, 25629, Note_on_c, 1, 63, 0
4, 25632, Note_on_c, 1, 62, 75
4, 25677, Note_on_c, 1, 62, 0
4, 25680, Note_on_c, 1, 50, 75
4, 25725, Note_on_c, 1, 50, 0
4, 25728, Note_on_c, 1, 55, 75
4, 25817, Note_on_c, 1, 55, 0
4, 25824, Note_on_c, 1, 59, 75
4, 25824, Note_on_c, 1, 55, 75
4, 25844, Note_on_c, 1, 59, 0
4, 25844, Note_on_c, 1, 55, 0
4, 25872, Note_on_c, 1, 60, 75
4, 25872, Note_on_c, 1, 57, 75
4, 25892, Note_on_c, 1, 60, 0
4, 25892, Note_on_c, 1, 57, 0
4, 25920, Note_on_c, 1, 61, 75
4, 25920, Note_on_c, 1, 58, 75
4, 25968, Note_on_c, 1, 61, 0
4, 25968, Note_on_c, 1, 58, 0
4, 25968, Note_on_c, 1, 62, 75
4, 25968, Note_on_c, 1, 59, 75
4, 26013, Note_on_c, 1, 62, 0
4, 26013, Note_on_c, 1, 59, 0
4, 26208, Note_on_c, 1, 64, 75
4, 26208, Note_on_c, 1, 60, 75
4, 26228, Note_on_c, 1, 64, 0
4, 26228, Note_on_c, 1, 60, 0
4, 26256, Note_on_c, 1, 65, 75
4, 26256, Note_on_c, 1, 62, 75
4, 26276, Note_on_c, 1, 65, 0
4, 26276, Note_on_c, 1, 62, 0
4, 26304, Note_on_c, 1, 66, 75
4, 26304, Note_on_c, 1, 63, 75
4, 26352, Note_on_c, 1, 66, 0
4, 26352, Note_on_c, 1, 63, 0
4, 26352, Note_on_c, 1, 67, 75
4, 26352, Note_on_c, 1, 64, 75
4, 26397, Note_on_c, 1, 67, 0
4, 26397, Note_on_c, 1, 64, 0
4, 26592, Note_on_c, 1, 52, 75
4, 26637, Note_on_c, 1, 52, 0
4, 26640, Note_on_c, 1, 60, 75
4, 26685, Note_on_c, 1, 60, 0
4, 26688, Note_on_c, 1, 53, 75
4, 26733, Note_on_c, 1, 53, 0
4, 26736, Note_on_c, 1, 60, 75
4, 26781, Note_on_c, 1, 60, 0
4, 26784, Note_on_c, 1, 55, 75
4, 26829, Note_on_c, 1, 55, 0
4, 26832, Note_on_c, 1, 60, 75
4, 26877, Note_on_c, 1, 60, 0
4, 26880, Note_on_c, 1, 57, 75
4, 26925, Note_on_c, 1, 57, 0
4, 26928, Note_on_c, 1, 60, 75
4, 26973, Note_on_c, 1, 60, 0
4, 26976, Note_on_c, 1, 53, 76
4, 27021, Note_on_c, 1, 53, 0
4, 27024, Note_on_c, 1, 60, 76
4, 27069, Note_on_c, 1, 60, 0
4, 27072, Note_on_c, 1, 52, 77
4, 27117, Note_on_c, 1, 52, 0
4, 27120, Note_on_c, 1, 60, 78
4, 27165, Note_on_c, 1, 60, 0
4, 27168, Note_on_c, 1, 53, 78
4, 27213, Note_on_c, 1, 53, 0
4, 27216, Note_on_c, 1, 54, 79
4, 27261, Note_on_c, 1, 54, 0
4, 27264, Note_on_c, 1, 55, 80
4, 27309, Note_on_c, 1, 55, 0
4, 27456, Note_on_c, 1, 64, 75
4, 27456, Note_on_c, 1, 60, 75
4, 27545, Note_on_c, 1, 64, 0
4, 27545, Note_on_c, 1, 60, 0
4, 27552, Note_on_c, 1, 65, 75
4, 27552, Note_on_c, 1, 60, 75
4, 27641, Note_on_c, 1, 65, 0
4, 27641, Note_on_c, 1, 60, 0
4, 27648, Note_on_c, 1, 64, 75
4, 27648, Note_on_c, 1, 60, 75
4, 27737, Note_on_c, 1, 64, 0
4, 27737, Note_on_c, 1, 60, 0
4, 27840, Note_on_c, 1, 59, 75
4, 27929, Note_on_c, 1, 59, 0
4, 28032, Note_on_c, 1, 60, 75
4, 28121, Note_on_c, 1, 60, 0
4, 28128, Note_on_c, 1, 60, 75
4, 28176, Note_on_c, 1, 60, 0
4, 28176, Note_on_c, 1, 59, 75
4, 28221, Note_on_c, 1, 59, 0
4, 28224, Note_on_c, 1, 58, 76
4, 28272, Note_on_c, 1, 58, 0
4, 28272, Note_on_c, 1, 57, 76
4, 28317, Note_on_c, 1, 57, 0
4, 28320, Note_on_c, 1, 62, 77
4, 28368, Note_on_c, 1, 62, 0
4, 28368, Note_on_c, 1, 61, 78
4, 28413, Note_on_c, 1, 61, 0
4, 28416, Note_on_c, 1, 60, 78
4, 28464, Note_on_c, 1, 60, 0
4, 28464, Note_on_c, 1, 59, 79
4, 28509, Note_on_c, 1, 59, 0
4, 28512, Note_on_c, 1, 60, 80
4, 28512, Note_on_c, 1, 57, 80
4, 28557, Note_on_c, 1, 60, 0
4, 28557, Note_on_c, 1, 57, 0
4, 28560, Note_on_c, 1, 59, 80
4, 28560, Note_on_c, 1, 55, 80
4, 28605, Note_on_c, 1, 59, 0
4, 28605, Note_on_c, 1, 55, 0
4, 28608, Note_on_c, 1, 57, 80
4, 28608, Note_on_c, 1, 53, 80
4, 28653, Note_on_c, 1, 57, 0
4, 28653, Note_on_c, 1, 53, 0
4, 28656, Note_on_c, 1, 55, 80
4, 28656, Note_on_c, 1, 52, 80
4, 28701, Note_on_c, 1, 55, 0
4, 28701, Note_on_c, 1, 52, 0
4, 28704, Note_on_c, 1, 53, 80
4, 28704, Note_on_c, 1, 50, 80
4, 28749, Note_on_c, 1, 53, 0
4, 28749, Note_on_c, 1, 50, 0
4, 28752, Note_on_c, 1, 55, 80
4, 28752, Note_on_c, 1, 52, 80
4, 28797, Note_on_c, 1, 55, 0
4, 28797, Note_on_c, 1, 52, 0
4, 28800, Note_on_c, 1, 57, 80
4, 28800, Note_on_c, 1, 53, 80
4, 28845, Note_on_c, 1, 57, 0
4, 28845, Note_on_c, 1, 53, 0
4, 28848, Note_on_c, 1, 55, 80
4, 28848, Note_on_c, 1, 52, 80
4, 28893, Note_on_c, 1, 55, 0
4, 28893, Note_on_c, 1, 52, 0
4, 28896, Note_on_c, 1, 53, 75
4, 28985, Note_on_c, 1, 53, 0
4, 28992, Note_on_c, 1, 55, 75
4, 29081, Note_on_c, 1, 55, 0
4, 29088, Note_on_c, 1, 43, 75
4, 29177, Note_on_c, 1, 43, 0
4, 29184, Note_on_c, 1, 36, 75
4, 29229, Note_on_c, 1, 36, 0
4, 29232, Note_on_c, 1, 48, 71
4, 29277, Note_on_c, 1, 48, 0
4, 29280, Note_on_c, 1, 39, 67
4, 29325, Note_on_c, 1, 39, 0
4, 29328, Note_on_c, 1, 48, 64
4, 29373, Note_on_c, 1, 48, 0
4, 29376, Note_on_c, 1, 41, 64
4, 29421, Note_on_c, 1, 41, 0
4, 29424, Note_on_c, 1, 48, 64
4, 29469, Note_on_c, 1, 48, 0
4, 29472, Note_on_c, 1, 43, 64
4, 29517, Note_on_c, 1, 43, 0
4, 29520, Note_on_c, 1, 48, 64
4, 29565, Note_on_c, 1, 48, 0
4, 29568, Note_on_c, 1, 44, 64
4, 29613, Note_on_c, 1, 44, 0
4, 29616, Note_on_c, 1, 48, 64
4, 29661, Note_on_c, 1, 48, 0
4, 29664, Note_on_c, 1, 39, 64
4, 29709, Note_on_c, 1, 39, 0
4, 29712, Note_on_c, 1, 48, 64
4, 29757, Note_on_c, 1, 48, 0
4, 29760, Note_on_c, 1, 41, 64
4, 29805, Note_on_c, 1, 41, 0
4, 29808, Note_on_c, 1, 48, 64
4, 29853, Note_on_c, 1, 48, 0
4, 29856, Note_on_c, 1, 43, 64
4, 29901, Note_on_c, 1, 43, 0
4, 29904, Note_on_c, 1, 48, 64
4, 29949, Note_on_c, 1, 48, 0
4, 29952, Note_on_c, 1, 44, 64
4, 29997, Note_on_c, 1, 44, 0
4, 30000, Note_on_c, 1, 48, 64
4, 30045, Note_on_c, 1, 48, 0
4, 30048, Note_on_c, 1, 39, 64
4, 30093, Note_on_c, 1, 39, 0
4, 30096, Note_on_c, 1, 48, 64
4, 30141, Note_on_c, 1, 48, 0
4, 30144, Note_on_c, 1, 41, 64
4, 30189, Note_on_c, 1, 41, 0
4, 30192, Note_on_c, 1, 50, 64
4, 30237, Note_on_c, 1, 50, 0
4, 30240, Note_on_c, 1, 42, 64
4, 30285, Note_on_c, 1, 42, 0
4, 30288, Note_on_c, 1, 51, 64
4, 30333, Note_on_c, 1, 51, 0
4, 30336, Note_on_c, 1, 43, 64
4, 30381, Note_on_c, 1, 43, 0
4, 30384, Note_on_c, 1, 50, 64
4, 30429, Note_on_c, 1, 50, 0
4, 30432, Note_on_c, 1, 39, 65
4, 30477, Note_on_c, 1, 39, 0
4, 30480, Note_on_c, 1, 48, 66
4, 30525, Note_on_c, 1, 48, 0
4, 30528, Note_on_c, 1, 41, 67
4, 30573, Note_on_c, 1, 41, 0
4, 30576, Note_on_c, 1, 48, 68
4, 30621, Note_on_c, 1, 48, 0
4, 30624, Note_on_c, 1, 43, 69
4, 30669, Note_on_c, 1, 43, 0
4, 30672, Note_on_c, 1, 48, 69
4, 30717, Note_on_c, 1, 48, 0
4, 30720, Note_on_c, 1, 44, 70
4, 30765, Note_on_c, 1, 44, 0
4, 30768, Note_on_c, 1, 48, 71
4, 30813, Note_on_c, 1, 48, 0
4, 30816, Note_on_c, 1, 39, 72
4, 30861, Note_on_c, 1, 39, 0
4, 30864, Note_on_c, 1, 48, 73
4, 30909, Note_on_c, 1, 48, 0
4, 30912, Note_on_c, 1, 41, 74
4, 30957, Note_on_c, 1, 41, 0
4, 30960, Note_on_c, 1, 48, 75
4, 31005, Note_on_c, 1, 48, 0
4, 31008, Note_on_c, 1, 43, 75
4, 31053, Note_on_c, 1, 43, 0
4, 31056, Note_on_c, 1, 53, 75
4, 31101, Note_on_c, 1, 53, 0
4, 31104, Note_on_c, 1, 44, 75
4, 31149, Note_on_c, 1, 44, 0
4, 31152, Note_on_c, 1, 51, 75
4, 31197, Note_on_c, 1, 51, 0
4, 31200, Note_on_c, 1, 44, 75
4, 31245, Note_on_c, 1, 44, 0
4, 31248, Note_on_c, 1, 48, 75
4, 31293, Note_on_c, 1, 48, 0
4, 31296, Note_on_c, 1, 43, 75
4, 31341, Note_on_c, 1, 43, 0
4, 31344, Note_on_c, 1, 51, 75
4, 31389, Note_on_c, 1, 51, 0
4, 31392, Note_on_c, 1, 43, 75
4, 31437, Note_on_c, 1, 43, 0
4, 31440, Note_on_c, 1, 51, 75
4, 31485, Note_on_c, 1, 51, 0
4, 31488, Note_on_c, 1, 44, 75
4, 31533, Note_on_c, 1, 44, 0
4, 31536, Note_on_c, 1, 51, 75
4, 31581, Note_on_c, 1, 51, 0
4, 31584, Note_on_c, 1, 44, 64
4, 31629, Note_on_c, 1, 44, 0
4, 31632, Note_on_c, 1, 48, 64
4, 31677, Note_on_c, 1, 48, 0
4, 31680, Note_on_c, 1, 43, 64
4, 31725, Note_on_c, 1, 43, 0
4, 31728, Note_on_c, 1, 51, 64
4, 31773, Note_on_c, 1, 51, 0
4, 31776, Note_on_c, 1, 43, 64
4, 31821, Note_on_c, 1, 43, 0
4, 31824, Note_on_c, 1, 51, 64
4, 31869, Note_on_c, 1, 51, 0
4, 31872, Note_on_c, 1, 44, 64
4, 31917, Note_on_c, 1, 44, 0
4, 31920, Note_on_c, 1, 51, 64
4, 31965, Note_on_c, 1, 51, 0
4, 31968, Note_on_c, 1, 44, 75
4, 32013, Note_on_c, 1, 44, 0
4, 32016, Note_on_c, 1, 48, 75
4, 32061, Note_on_c, 1, 48, 0
4, 32064, Note_on_c, 1, 43, 75
4, 32109, Note_on_c, 1, 43, 0
4, 32112, Note_on_c, 1, 51, 76
4, 32157, Note_on_c, 1, 51, 0
4, 32160, Note_on_c, 1, 43, 77
4, 32205, Note_on_c, 1, 43, 0
4, 32208, Note_on_c, 1, 51, 78
4, 32253, Note_on_c, 1, 51, 0
4, 32256, Note_on_c, 1, 44, 79
4, 32301, Note_on_c, 1, 44, 0
4, 32304, Note_on_c, 1, 51, 80
4, 32349, Note_on_c, 1, 51, 0
4, 32352, Note_on_c, 1, 43, 80
4, 32397, Note_on_c, 1, 43, 0
4, 32400, Note_on_c, 1, 52, 80
4, 32445, Note_on_c, 1, 52, 0
4, 32448, Note_on_c, 1, 41, 80
4, 32493, Note_on_c, 1, 41, 0
4, 32496, Note_on_c, 1, 53, 80
4, 32541, Note_on_c, 1, 53, 0
4, 32544, Note_on_c, 1, 38, 80
4, 32589, Note_on_c, 1, 38, 0
4, 32592, Note_on_c, 1, 50, 80
4, 32637, Note_on_c, 1, 50, 0
4, 32640, Note_on_c, 1, 39, 80
4, 32685, Note_on_c, 1, 39, 0
4, 32688, Note_on_c, 1, 51, 80
4, 32733, Note_on_c, 1, 51, 0
4, 32736, Note_on_c, 1, 38, 80
4, 32781, Note_on_c, 1, 38, 0
4, 32784, Note_on_c, 1, 50, 80
4, 32829, Note_on_c, 1, 50, 0
4, 32832, Note_on_c, 1, 36, 80
4, 32877, Note_on_c, 1, 36, 0
4, 32880, Note_on_c, 1, 48, 80
4, 32925, Note_on_c, 1, 48, 0
4, 32928, Note_on_c, 1, 41, 80
4, 32973, Note_on_c, 1, 41, 0
4, 32976, Note_on_c, 1, 48, 80
4, 33021, Note_on_c, 1, 48, 0
4, 33024, Note_on_c, 1, 46, 80
4, 33113, Note_on_c, 1, 46, 0
4, 33216, Note_on_c, 1, 46, 75
4, 33216, Note_on_c, 1, 34, 75
4, 33305, Note_on_c, 1, 46, 0
4, 33305, Note_on_c, 1, 34, 0
4, 33408, Note_on_c, 1, 46, 75
4, 33408, Note_on_c, 1, 34, 75
4, 33497, Note_on_c, 1, 46, 0
4, 33497, Note_on_c, 1, 34, 0
4, 33696, Note_on_c, 1, 46, 80
4, 33741, Note_on_c, 1, 46, 0
4, 33744, Note_on_c, 1, 47, 80
4, 33789, Note_on_c, 1, 47, 0
4, 33792, Note_on_c, 1, 48, 80
4, 33837, Note_on_c, 1, 48, 0
4, 33840, Note_on_c, 1, 49, 80
4, 33885, Note_on_c, 1, 49, 0
4, 33888, Note_on_c, 1, 50, 78
4, 33933, Note_on_c, 1, 50, 0
4, 33936, Note_on_c, 1, 51, 77
4, 33981, Note_on_c, 1, 51, 0
4, 33984, Note_on_c, 1, 44, 76
4, 34073, Note_on_c, 1, 44, 0
4, 34080, Note_on_c, 1, 46, 74
4, 34169, Note_on_c, 1, 46, 0
4, 34176, Note_on_c, 1, 51, 72
4, 34265, Note_on_c, 1, 51, 0
4, 34368, Note_on_c, 1, 46, 75
4, 34368, Note_on_c, 1, 34, 75
4, 34457, Note_on_c, 1, 46, 0
4, 34457, Note_on_c, 1, 34, 0
4, 34560, Note_on_c, 1, 46, 75
4, 34560, Note_on_c, 1, 34, 75
4, 34649, Note_on_c, 1, 46, 0
4, 34649, Note_on_c, 1, 34, 0
4, 34848, Note_on_c, 1, 46, 80
4, 34893, Note_on_c, 1, 46, 0
4, 34896, Note_on_c, 1, 47, 80
4, 34941, Note_on_c, 1, 47, 0
4, 34944, Note_on_c, 1, 48, 80
4, 34989, Note_on_c, 1, 48, 0
4, 34992, Note_on_c, 1, 49, 80
4, 35037, Note_on_c, 1, 49, 0
4, 35040, Note_on_c, 1, 50, 78
4, 35085, Note_on_c, 1, 50, 0
4, 35088, Note_on_c, 1, 51, 77
4, 35133, Note_on_c, 1, 51, 0
4, 35136, Note_on_c, 1, 44, 76
4, 35225, Note_on_c, 1, 44, 0
4, 35232, Note_on_c, 1, 46, 74
4, 35321, Note_on_c, 1, 46, 0
4, 35328, Note_on_c, 1, 51, 72
4, 35373, Note_on_c, 1, 51, 0
4, 35376, Note_on_c, 1, 55, 71
4, 35421, Note_on_c, 1, 55, 0
4, 35424, Note_on_c, 1, 50, 75
4, 35469, Note_on_c, 1, 50, 0
4, 35472, Note_on_c, 1, 50, 75
4, 35517, Note_on_c, 1, 50, 0
4, 35520, Note_on_c, 1, 51, 75
4, 35609, Note_on_c, 1, 51, 0
4, 35616, Note_on_c, 1, 58, 75
4, 35661, Note_on_c, 1, 58, 0
4, 35664, Note_on_c, 1, 58, 75
4, 35709, Note_on_c, 1, 58, 0
4, 35712, Note_on_c, 1, 56, 75
4, 35735, Note_on_c, 1, 56, 0
4, 35736, Note_on_c, 1, 55, 75
4, 35759, Note_on_c, 1, 55, 0
4, 35760, Note_on_c, 1, 53, 75
4, 35783, Note_on_c, 1, 53, 0
4, 35784, Note_on_c, 1, 51, 75
4, 35807, Note_on_c, 1, 51, 0
4, 35808, Note_on_c, 1, 50, 75
4, 35853, Note_on_c, 1, 50, 0
4, 35856, Note_on_c, 1, 50, 75
4, 35901, Note_on_c, 1, 50, 0
4, 35904, Note_on_c, 1, 51, 75
4, 35993, Note_on_c, 1, 51, 0
4, 36000, Note_on_c, 1, 70, 75
4, 36045, Note_on_c, 1, 70, 0
4, 36048, Note_on_c, 1, 70, 75
4, 36093, Note_on_c, 1, 70, 0
4, 36096, Note_on_c, 1, 68, 75
4, 36119, Note_on_c, 1, 68, 0
4, 36120, Note_on_c, 1, 67, 75
4, 36143, Note_on_c, 1, 67, 0
4, 36144, Note_on_c, 1, 65, 75
4, 36167, Note_on_c, 1, 65, 0
4, 36168, Note_on_c, 1, 63, 75
4, 36191, Note_on_c, 1, 63, 0
4, 36192, Note_on_c, 1, 67, 75
4, 36237, Note_on_c, 1, 67, 0
4, 36240, Note_on_c, 1, 67, 75
4, 36285, Note_on_c, 1, 67, 0
4, 36288, Note_on_c, 1, 65, 75
4, 36311, Note_on_c, 1, 65, 0
4, 36312, Note_on_c, 1, 63, 75
4, 36335, Note_on_c, 1, 63, 0
4, 36336, Note_on_c, 1, 62, 75
4, 36359, Note_on_c, 1, 62, 0
4, 36360, Note_on_c, 1, 60, 75
4, 36383, Note_on_c, 1, 60, 0
4, 36384, Note_on_c, 1, 63, 75
4, 36429, Note_on_c, 1, 63, 0
4, 36432, Note_on_c, 1, 63, 75
4, 36477, Note_on_c, 1, 63, 0
4, 36480, Note_on_c, 1, 61, 75
4, 36503, Note_on_c, 1, 61, 0
4, 36504, Note_on_c, 1, 60, 75
4, 36527, Note_on_c, 1, 60, 0
4, 36528, Note_on_c, 1, 58, 75
4, 36551, Note_on_c, 1, 58, 0
4, 36552, Note_on_c, 1, 56, 75
4, 36575, Note_on_c, 1, 56, 0
4, 36576, Note_on_c, 1, 60, 75
4, 36621, Note_on_c, 1, 60, 0
4, 36624, Note_on_c, 1, 60, 75
4, 36669, Note_on_c, 1, 60, 0
4, 36672, Note_on_c, 1, 58, 75
4, 36695, Note_on_c, 1, 58, 0
4, 36696, Note_on_c, 1, 56, 75
4, 36719, Note_on_c, 1, 56, 0
4, 36720, Note_on_c, 1, 55, 75
4, 36743, Note_on_c, 1, 55, 0
4, 36744, Note_on_c, 1, 53, 75
4, 36767, Note_on_c, 1, 53, 0
4, 36768, Note_on_c, 1, 60, 75
4, 36768, Note_on_c, 1, 55, 75
4, 36768, Note_on_c, 1, 52, 75
4, 36813, Note_on_c, 1, 60, 0
4, 36813, Note_on_c, 1, 55, 0
4, 36813, Note_on_c, 1, 52, 0
4, 36816, Note_on_c, 1, 60, 75
4, 36816, Note_on_c, 1, 55, 75
4, 36816, Note_on_c, 1, 52, 75
4, 36861, Note_on_c, 1, 60, 0
4, 36861, Note_on_c, 1, 55, 0
4, 36861, Note_on_c, 1, 52, 0
4, 36864, Note_on_c, 1, 60, 75
4, 36864, Note_on_c, 1, 56, 75
4, 36864, Note_on_c, 1, 53, 75
4, 36953, Note_on_c, 1, 60, 0
4, 36953, Note_on_c, 1, 56, 0
4, 36953, Note_on_c, 1, 53, 0
4, 36960, Note_on_c, 1, 60, 75
4, 36960, Note_on_c, 1, 55, 75
4, 36960, Note_on_c, 1, 52, 75
4, 37005, Note_on_c, 1, 60, 0
4, 37005, Note_on_c, 1, 55, 0
4, 37005, Note_on_c, 1, 52, 0
4, 37008, Note_on_c, 1, 60, 75
4, 37008, Note_on_c, 1, 55, 75
4, 37008, Note_on_c, 1, 52, 75
4, 37053, Note_on_c, 1, 60, 0
4, 37053, Note_on_c, 1, 55, 0
4, 37053, Note_on_c, 1, 52, 0
4, 37056, Note_on_c, 1, 60, 75
4, 37056, Note_on_c, 1, 56, 75
4, 37056, Note_on_c, 1, 53, 75
4, 37145, Note_on_c, 1, 60, 0
4, 37145, Note_on_c, 1, 56, 0
4, 37145, Note_on_c, 1, 53, 0
4, 37152, Note_on_c, 1, 60, 75
4, 37152, Note_on_c, 1, 55, 75
4, 37152, Note_on_c, 1, 52, 75
4, 37197, Note_on_c, 1, 60, 0
4, 37197, Note_on_c, 1, 55, 0
4, 37197, Note_on_c, 1, 52, 0
4, 37200, Note_on_c, 1, 60, 75
4, 37200, Note_on_c, 1, 55, 75
4, 37200, Note_on_c, 1, 52, 75
4, 37245, Note_on_c, 1, 60, 0
4, 37245, Note_on_c, 1, 55, 0
4, 37245, Note_on_c, 1, 52, 0
4, 37248, Note_on_c, 1, 60, 75
4, 37248, Note_on_c, 1, 56, 75
4, 37248, Note_on_c, 1, 53, 75
4, 37337, Note_on_c, 1, 60, 0
4, 37337, Note_on_c, 1, 56, 0
4, 37337, Note_on_c, 1, 53, 0
4, 37344, Note_on_c, 1, 63, 75
4, 37344, Note_on_c, 1, 57, 75
4, 37344, Note_on_c, 1, 54, 75
4, 37433, Note_on_c, 1, 63, 0
4, 37433, Note_on_c, 1, 57, 0
4, 37433, Note_on_c, 1, 54, 0
4, 37440, Note_on_c, 1, 62, 75
4, 37440, Note_on_c, 1, 59, 75
4, 37440, Note_on_c, 1, 55, 75
4, 37529, Note_on_c, 1, 62, 0
4, 37529, Note_on_c, 1, 59, 0
4, 37529, Note_on_c, 1, 55, 0
4, 37536, Note_on_c, 1, 62, 75
4, 37536, Note_on_c, 1, 59, 75
4, 37536, Note_on_c, 1, 55, 75
4, 37581, Note_on_c, 1, 62, 0
4, 37581, Note_on_c, 1, 59, 0
4, 37581, Note_on_c, 1, 55, 0
4, 37584, Note_on_c, 1, 62, 75
4, 37584, Note_on_c, 1, 59, 75
4, 37584, Note_on_c, 1, 55, 75
4, 37629, Note_on_c, 1, 62, 0
4, 37629, Note_on_c, 1, 59, 0
4, 37629, Note_on_c, 1, 55, 0
4, 37632, Note_on_c, 1, 63, 75
4, 37632, Note_on_c, 1, 60, 75
4, 37721, Note_on_c, 1, 63, 0
4, 37721, Note_on_c, 1, 60, 0
4, 37728, Note_on_c, 1, 65, 75
4, 37728, Note_on_c, 1, 62, 75
4, 37817, Note_on_c, 1, 65, 0
4, 37817, Note_on_c, 1, 62, 0
4, 37824, Note_on_c, 1, 67, 75
4, 37824, Note_on_c, 1, 63, 75
4, 37913, Note_on_c, 1, 67, 0
4, 37913, Note_on_c, 1, 63, 0
4, 37920, Note_on_c, 1, 59, 75
4, 37965, Note_on_c, 1, 59, 0
4, 37968, Note_on_c, 1, 59, 75
4, 38013, Note_on_c, 1, 59, 0
4, 38016, Note_on_c, 1, 60, 75
4, 38105, Note_on_c, 1, 60, 0
4, 38112, Note_on_c, 1, 57, 75
4, 38201, Note_on_c, 1, 57, 0
4, 38208, Note_on_c, 1, 59, 75
4, 38297, Note_on_c, 1, 59, 0
4, 38496, Note_on_c, 1, 74, 75
4, 38496, Note_on_c, 1, 71, 75
4, 38516, Note_on_c, 1, 74, 0
4, 38516, Note_on_c, 1, 71, 0
4, 38544, Note_on_c, 1, 74, 75
4, 38544, Note_on_c, 1, 71, 75
4, 38564, Note_on_c, 1, 74, 0
4, 38564, Note_on_c, 1, 71, 0
4, 38592, Note_on_c, 1, 74, 75
4, 38592, Note_on_c, 1, 71, 75
4, 38637, Note_on_c, 1, 74, 0
4, 38637, Note_on_c, 1, 71, 0
4, 38880, Note_on_c, 1, 77, 58
4, 38880, Note_on_c, 1, 71, 58
4, 38900, Note_on_c, 1, 77, 0
4, 38900, Note_on_c, 1, 71, 0
4, 38928, Note_on_c, 1, 77, 58
4, 38928, Note_on_c, 1, 71, 58
4, 38948, Note_on_c, 1, 77, 0
4, 38948, Note_on_c, 1, 71, 0
4, 38976, Note_on_c, 1, 77, 58
4, 38976, Note_on_c, 1, 71, 58
4, 39021, Note_on_c, 1, 77, 0
4, 39021, Note_on_c, 1, 71, 0
4, 39168, Note_on_c, 1, 64, 75
4, 39168, Note_on_c, 1, 60, 75
4, 39257, Note_on_c, 1, 64, 0
4, 39257, Note_on_c, 1, 60, 0
4, 39264, Note_on_c, 1, 65, 75
4, 39264, Note_on_c, 1, 60, 75
4, 39353, Note_on_c, 1, 65, 0
4, 39353, Note_on_c, 1, 60, 0
4, 39360, Note_on_c, 1, 64, 75
4, 39360, Note_on_c, 1, 60, 75
4, 39449, Note_on_c, 1, 64, 0
4, 39449, Note_on_c, 1, 60, 0
4, 39552, Note_on_c, 1, 59, 75
4, 39641, Note_on_c, 1, 59, 0
4, 39744, Note_on_c, 1, 60, 75
4, 39833, Note_on_c, 1, 60, 0
4, 39840, Note_on_c, 1, 72, 75
4, 39887, Note_on_c, 1, 72, 0
4, 39888, Note_on_c, 1, 74, 75
4, 39935, Note_on_c, 1, 74, 0
4, 39936, Note_on_c, 1, 76, 75
4, 40025, Note_on_c, 1, 76, 0
4, 40032, Note_on_c, 1, 74, 75
4, 40077, Note_on_c, 1, 74, 0
4, 40080, Note_on_c, 1, 72, 75
4, 40125, Note_on_c, 1, 72, 0
4, 40128, Note_on_c, 1, 71, 75
4, 40128, Note_on_c, 1, 67, 75
4, 40217, Note_on_c, 1, 71, 0
4, 40217, Note_on_c, 1, 67, 0
4, 40320, Note_on_c, 1, 64, 75
4, 40320, Note_on_c, 1, 60, 75
4, 40409, Note_on_c, 1, 64, 0
4, 40409, Note_on_c, 1, 60, 0
4, 40416, Note_on_c, 1, 65, 75
4, 40416, Note_on_c, 1, 60, 75
4, 40505, Note_on_c, 1, 65, 0
4, 40505, Note_on_c, 1, 60, 0
4, 40512, Note_on_c, 1, 64, 75
4, 40512, Note_on_c, 1, 60, 75
4, 40601, Note_on_c, 1, 64, 0
4, 40601, Note_on_c, 1, 60, 0
4, 40704, Note_on_c, 1, 67, 75
4, 40704, Note_on_c, 1, 59, 75
4, 40793, Note_on_c, 1, 67, 0
4, 40793, Note_on_c, 1, 59, 0
4, 40896, Note_on_c, 1, 67, 75
4, 40896, Note_on_c, 1, 60, 75
4, 40985, Note_on_c, 1, 67, 0
4, 40985, Note_on_c, 1, 60, 0
4, 41136, Note_on_c, 1, 63, 75
4, 41181, Note_on_c, 1, 63, 0
4, 41184, Note_on_c, 1, 62, 75
4, 41229, Note_on_c, 1, 62, 0
4, 41232, Note_on_c, 1, 50, 75
4, 41277, Note_on_c, 1, 50, 0
4, 41280, Note_on_c, 1, 55, 75
4, 41325, Note_on_c, 1, 55, 0
4, 41328, Note_on_c, 1, 43, 75
4, 41373, Note_on_c, 1, 43, 0
4, 41376, Note_on_c, 1, 59, 75
4, 41376, Note_on_c, 1, 55, 75
4, 41396, Note_on_c, 1, 59, 0
4, 41396, Note_on_c, 1, 55, 0
4, 41424, Note_on_c, 1, 60, 75
4, 41424, Note_on_c, 1, 57, 75
4, 41444, Note_on_c, 1, 60, 0
4, 41444, Note_on_c, 1, 57, 0
4, 41472, Note_on_c, 1, 61, 75
4, 41472, Note_on_c, 1, 58, 75
4, 41520, Note_on_c, 1, 61, 0
4, 41520, Note_on_c, 1, 58, 0
4, 41520, Note_on_c, 1, 62, 75
4, 41520, Note_on_c, 1, 59, 75
4, 41565, Note_on_c, 1, 62, 0
4, 41565, Note_on_c, 1, 59, 0
4, 41760, Note_on_c, 1, 64, 75
4, 41760, Note_on_c, 1, 60, 75
4, 41780, Note_on_c, 1, 64, 0
4, 41780, Note_on_c, 1, 60, 0
4, 41808, Note_on_c, 1, 65, 75
4, 41808, Note_on_c, 1, 62, 75
4, 41828, Note_on_c, 1, 65, 0
4, 41828, Note_on_c, 1, 62, 0
4, 41856, Note_on_c, 1, 66, 75
4, 41856, Note_on_c, 1, 63, 75
4, 41904, Note_on_c, 1, 66, 0
4, 41904, Note_on_c, 1, 63, 0
4, 41904, Note_on_c, 1, 67, 75
4, 41904, Note_on_c, 1, 64, 75
4, 41949, Note_on_c, 1, 67, 0
4, 41949, Note_on_c, 1, 64, 0
4, 42144, Note_on_c, 1, 52, 75
4, 42189, Note_on_c, 1, 52, 0
4, 42192, Note_on_c, 1, 60, 75
4, 42237, Note_on_c, 1, 60, 0
4, 42240, Note_on_c, 1, 53, 75
4, 42285, Note_on_c, 1, 53, 0
4, 42288, Note_on_c, 1, 60, 76
4, 42333, Note_on_c, 1, 60, 0
4, 42336, Note_on_c, 1, 55, 76
4, 42381, Note_on_c, 1, 55, 0
4, 42384, Note_on_c, 1, 60, 76
4, 42429, Note_on_c, 1, 60, 0
4, 42432, Note_on_c, 1, 57, 77
4, 42477, Note_on_c, 1, 57, 0
4, 42480, Note_on_c, 1, 60, 77
4, 42525, Note_on_c, 1, 60, 0
4, 42528, Note_on_c, 1, 53, 77
4, 42573, Note_on_c, 1, 53, 0
4, 42576, Note_on_c, 1, 59, 78
4, 42621, Note_on_c, 1, 59, 0
4, 42624, Note_on_c, 1, 52, 78
4, 42669, Note_on_c, 1, 52, 0
4, 42672, Note_on_c, 1, 60, 78
4, 42717, Note_on_c, 1, 60, 0
4, 42720, Note_on_c, 1, 53, 79
4, 42765, Note_on_c, 1, 53, 0
4, 42768, Note_on_c, 1, 54, 79
4, 42813, Note_on_c, 1, 54, 0
4, 42816, Note_on_c, 1, 55, 80
4, 42861, Note_on_c, 1, 55, 0
4, 43008, Note_on_c, 1, 48, 86
4, 43008, Note_on_c, 1, 40, 86
4, 43008, Note_on_c, 1, 36, 86
4, 43097, Note_on_c, 1, 48, 0
4, 43097, Note_on_c, 1, 40, 0
4, 43097, Note_on_c, 1, 36, 0
4, 43104, Note_on_c, 1, 50, 86
4, 43104, Note_on_c, 1, 41, 86
4, 43104, Note_on_c, 1, 38, 86
4, 43193, Note_on_c, 1, 50, 0
4, 43193, Note_on_c, 1, 41, 0
4, 43193, Note_on_c, 1, 38, 0
4, 43200, Note_on_c, 1, 52, 86
4, 43200, Note_on_c, 1, 43, 86
4, 43200, Note_on_c, 1, 40, 86
4, 43289, Note_on_c, 1, 52, 0
4, 43289, Note_on_c, 1, 43, 0
4, 43289, Note_on_c, 1, 40, 0
4, 43296, Note_on_c, 1, 52, 86
4, 43296, Note_on_c, 1, 43, 86
4, 43296, Note_on_c, 1, 40, 86
4, 43341, Note_on_c, 1, 52, 0
4, 43341, Note_on_c, 1, 43, 0
4, 43341, Note_on_c, 1, 40, 0
4, 43344, Note_on_c, 1, 53, 86
4, 43344, Note_on_c, 1, 45, 86
4, 43344, Note_on_c, 1, 41, 86
4, 43389, Note_on_c, 1, 53, 0
4, 43389, Note_on_c, 1, 45, 0
4, 43389, Note_on_c, 1, 41, 0
4, 43392, Note_on_c, 1, 55, 86
4, 43392, Note_on_c, 1, 47, 86
4, 43392, Note_on_c, 1, 43, 86
4, 43481, Note_on_c, 1, 55, 0
4, 43481, Note_on_c, 1, 47, 0
4, 43481, Note_on_c, 1, 43, 0
4, 43488, Note_on_c, 1, 57, 86
4, 43488, Note_on_c, 1, 48, 86
4, 43488, Note_on_c, 1, 45, 86
4, 43533, Note_on_c, 1, 57, 0
4, 43533, Note_on_c, 1, 48, 0
4, 43533, Note_on_c, 1, 45, 0
4, 43536, Note_on_c, 1, 59, 86
4, 43536, Note_on_c, 1, 50, 86
4, 43536, Note_on_c, 1, 47, 86
4, 43581, Note_on_c, 1, 59, 0
4, 43581, Note_on_c, 1, 50, 0
4, 43581, Note_on_c, 1, 47, 0
4, 43584, Note_on_c, 1, 60, 86
4, 43584, Note_on_c, 1, 52, 86
4, 43584, Note_on_c, 1, 48, 86
4, 43673, Note_on_c, 1, 60, 0
4, 43673, Note_on_c, 1, 52, 0
4, 43673, Note_on_c, 1, 48, 0
4, 43680, Note_on_c, 1, 72, 75
4, 43725, Note_on_c, 1, 72, 0
4, 43728, Note_on_c, 1, 76, 75
4, 43773, Note_on_c, 1, 76, 0
4, 43776, Note_on_c, 1, 71, 75
4, 43821, Note_on_c, 1, 71, 0
4, 43824, Note_on_c, 1, 74, 75
4, 43869, Note_on_c, 1, 74, 0
4, 43872, Note_on_c, 1, 69, 75
4, 43917, Note_on_c, 1, 69, 0
4, 43920, Note_on_c, 1, 72, 75
4, 43965, Note_on_c, 1, 72, 0
4, 43968, Note_on_c, 1, 67, 75
4, 44013, Note_on_c, 1, 67, 0
4, 44016, Note_on_c, 1, 71, 75
4, 44061, Note_on_c, 1, 71, 0
4, 44064, Note_on_c, 1, 65, 75
4, 44109, Note_on_c, 1, 65, 0
4, 44112, Note_on_c, 1, 69, 75
4, 44157, Note_on_c, 1, 69, 0
4, 44160, Note_on_c, 1, 64, 75
4, 44205, Note_on_c, 1, 64, 0
4, 44208, Note_on_c, 1, 67, 75
4, 44253, Note_on_c, 1, 67, 0
4, 44256, Note_on_c, 1, 52, 75
4, 44301, Note_on_c, 1, 52, 0
4, 44304, Note_on_c, 1, 55, 75
4, 44349, Note_on_c, 1, 55, 0
4, 44352, Note_on_c, 1, 53, 75
4, 44397, Note_on_c, 1, 53, 0
4, 44400, Note_on_c, 1, 55, 75
4, 44445, Note_on_c, 1, 55, 0
4, 44448, Note_on_c, 1, 52, 75
4, 44493, Note_on_c, 1, 52, 0
4, 44496, Note_on_c, 1, 55, 75
4, 44541, Note_on_c, 1, 55, 0
4, 44544, Note_on_c, 1, 53, 75
4, 44589, Note_on_c, 1, 53, 0
4, 44592, Note_on_c, 1, 55, 71
4, 44637, Note_on_c, 1, 55, 0
4, 44640, Note_on_c, 1, 52, 67
4, 44685, Note_on_c, 1, 52, 0
4, 44688, Note_on_c, 1, 55, 64
4, 44733, Note_on_c, 1, 55, 0
4, 44736, Note_on_c, 1, 53, 64
4, 44781, Note_on_c, 1, 53, 0
4, 44784, Note_on_c, 1, 55, 64
4, 44829, Note_on_c, 1, 55, 0
4, 44832, Note_on_c, 1, 52, 64
4, 44877, Note_on_c, 1, 52, 0
4, 44880, Note_on_c, 1, 55, 64
4, 44925, Note_on_c, 1, 55, 0
4, 44928, Note_on_c, 1, 53, 64
4, 44973, Note_on_c, 1, 53, 0
4, 44976, Note_on_c, 1, 55, 69
4, 45021, Note_on_c, 1, 55, 0
4, 45024, Note_on_c, 1, 52, 74
4, 45069, Note_on_c, 1, 52, 0
4, 45072, Note_on_c, 1, 60, 80
4, 45117, Note_on_c, 1, 60, 0
4, 45120, Note_on_c, 1, 53, 80
4, 45165, Note_on_c, 1, 53, 0
4, 45168, Note_on_c, 1, 60, 80
4, 45213, Note_on_c, 1, 60, 0
4, 45216, Note_on_c, 1, 50, 80
4, 45261, Note_on_c, 1, 50, 0
4, 45264, Note_on_c, 1, 59, 80
4, 45309, Note_on_c, 1, 59, 0
4, 45312, Note_on_c, 1, 52, 80
4, 45357, Note_on_c, 1, 52, 0
4, 45360, Note_on_c, 1, 59, 80
4, 45405, Note_on_c, 1, 59, 0
4, 45408, Note_on_c, 1, 48, 80
4, 45453, Note_on_c, 1, 48, 0
4, 45456, Note_on_c, 1, 57, 80
4, 45501, Note_on_c, 1, 57, 0
4, 45504, Note_on_c, 1, 50, 80
4, 45549, Note_on_c, 1, 50, 0
4, 45552, Note_on_c, 1, 57, 80
4, 45597, Note_on_c, 1, 57, 0
4, 45600, Note_on_c, 1, 47, 80
4, 45645, Note_on_c, 1, 47, 0
4, 45648, Note_on_c, 1, 55, 80
4, 45693, Note_on_c, 1, 55, 0
4, 45696, Note_on_c, 1, 48, 80
4, 45741, Note_on_c, 1, 48, 0
4, 45744, Note_on_c, 1, 55, 80
4, 45789, Note_on_c, 1, 55, 0
4, 45792, Note_on_c, 1, 45, 80
4, 45837, Note_on_c, 1, 45, 0
4, 45840, Note_on_c, 1, 48, 80
4, 45885, Note_on_c, 1, 48, 0
4, 45936, Note_on_c, 1, 47, 75
4, 45984, Note_on_c, 1, 47, 0
4, 45984, Note_on_c, 1, 52, 75
4, 46004, Note_on_c, 1, 52, 0
4, 46032, Note_on_c, 1, 52, 75
4, 46080, Note_on_c, 1, 52, 0
4, 46080, Note_on_c, 1, 53, 75
4, 46100, Note_on_c, 1, 53, 0
4, 46128, Note_on_c, 1, 53, 75
4, 46176, Note_on_c, 1, 53, 0
4, 46176, Note_on_c, 1, 50, 75
4, 46196, Note_on_c, 1, 50, 0
4, 46224, Note_on_c, 1, 50, 75
4, 46269, Note_on_c, 1, 50, 0
4, 46272, Note_on_c, 1, 47, 75
4, 46317, Note_on_c, 1, 47, 0
4, 46320, Note_on_c, 1, 47, 75
4, 46368, Note_on_c, 1, 47, 0
4, 46368, Note_on_c, 1, 52, 75
4, 46413, Note_on_c, 1, 52, 0
4, 46416, Note_on_c, 1, 52, 75
4, 46464, Note_on_c, 1, 52, 0
4, 46464, Note_on_c, 1, 53, 75
4, 46509, Note_on_c, 1, 53, 0
4, 46512, Note_on_c, 1, 53, 75
4, 46560, Note_on_c, 1, 53, 0
4, 46560, Note_on_c, 1, 50, 75
4, 46605, Note_on_c, 1, 50, 0
4, 46608, Note_on_c, 1, 50, 75
4, 46653, Note_on_c, 1, 50, 0
4, 46656, Note_on_c, 1, 47, 75
4, 46701, Note_on_c, 1, 47, 0
4, 46704, Note_on_c, 1, 47, 75
4, 46752, Note_on_c, 1, 47, 0
4, 46752, Note_on_c, 1, 52, 75
4, 46772, Note_on_c, 1, 52, 0
4, 46800, Note_on_c, 1, 52, 75
4, 46848, Note_on_c, 1, 52, 0
4, 46848, Note_on_c, 1, 53, 75
4, 46868, Note_on_c, 1, 53, 0
4, 46896, Note_on_c, 1, 53, 75
4, 46944, Note_on_c, 1, 53, 0
4, 46944, Note_on_c, 1, 52, 75
4, 46964, Note_on_c, 1, 52, 0
4, 46992, Note_on_c, 1, 52, 75
4, 47040, Note_on_c, 1, 52, 0
4, 47040, Note_on_c, 1, 53, 75
4, 47060, Note_on_c, 1, 53, 0
4, 47088, Note_on_c, 1, 53, 75
4, 47136, Note_on_c, 1, 53, 0
4, 47136, Note_on_c, 1, 52, 75
4, 47156, Note_on_c, 1, 52, 0
4, 47184, Note_on_c, 1, 52, 75
4, 47232, Note_on_c, 1, 52, 0
4, 47232, Note_on_c, 1, 53, 75
4, 47252, Note_on_c, 1, 53, 0
4, 47280, Note_on_c, 1, 53, 75
4, 47325, Note_on_c, 1, 53, 0
4, 48288, Note_on_c, 1, 60, 80
4, 48288, Note_on_c, 1, 55, 80
4, 48288, Note_on_c, 1, 52, 80
4, 48288, Note_on_c, 1, 48, 80
4, 48333, Note_on_c, 1, 60, 0
4, 48333, Note_on_c, 1, 55, 0
4, 48333, Note_on_c, 1, 52, 0
4, 48333, Note_on_c, 1, 48, 0
4, 48336, Note_on_c, 1, 60, 80
4, 48336, Note_on_c, 1, 55, 80
4, 48336, Note_on_c, 1, 52, 80
4, 48336, Note_on_c, 1, 48, 80
4, 48381, Note_on_c, 1, 60, 0
4, 48381, Note_on_c, 1, 55, 0
4, 48381, Note_on_c, 1, 52, 0
4, 48381, Note_on_c, 1, 48, 0
4, 48384, Note_on_c, 1, 60, 80
4, 48384, Note_on_c, 1, 55, 80
4, 48384, Note_on_c, 1, 52, 80
4, 48384, Note_on_c, 1, 48, 80
4, 48473, Note_on_c, 1, 60, 0
4, 48473, Note_on_c, 1, 55, 0
4, 48473, Note_on_c, 1, 52, 0
4, 48473, Note_on_c, 1, 48, 0
4, 48480, Note_on_c, 1, 65, 80
4, 48480, Note_on_c, 1, 55, 80
4, 48569, Note_on_c, 1, 65, 0
4, 48569, Note_on_c, 1, 55, 0
4, 48576, Note_on_c, 1, 64, 80
4, 48576, Note_on_c, 1, 60, 80
4, 48665, Note_on_c, 1, 64, 0
4, 48665, Note_on_c, 1, 60, 0
4, 48768, Note_on_c, 1, 59, 75
4, 48857, Note_on_c, 1, 59, 0
4, 48960, Note_on_c, 1, 60, 75
4, 49049, Note_on_c, 1, 60, 0
4, 49056, Note_on_c, 1, 60, 75
4, 49104, Note_on_c, 1, 60, 0
4, 49104, Note_on_c, 1, 59, 75
4, 49149, Note_on_c, 1, 59, 0
4, 49152, Note_on_c, 1, 58, 75
4, 49200, Note_on_c, 1, 58, 0
4, 49200, Note_on_c, 1, 57, 75
4, 49245, Note_on_c, 1, 57, 0
4, 49248, Note_on_c, 1, 62, 76
4, 49296, Note_on_c, 1, 62, 0
4, 49296, Note_on_c, 1, 61, 77
4, 49341, Note_on_c, 1, 61, 0
4, 49344, Note_on_c, 1, 60, 78
4, 49392, Note_on_c, 1, 60, 0
4, 49392, Note_on_c, 1, 59, 79
4, 49437, Note_on_c, 1, 59, 0
4, 49440, Note_on_c, 1, 60, 80
4, 49440, Note_on_c, 1, 57, 80
4, 49485, Note_on_c, 1, 60, 0
4, 49485, Note_on_c, 1, 57, 0
4, 49488, Note_on_c, 1, 59, 80
4, 49488, Note_on_c, 1, 55, 80
4, 49533, Note_on_c, 1, 59, 0
4, 49533, Note_on_c, 1, 55, 0
4, 49536, Note_on_c, 1, 57, 80
4, 49536, Note_on_c, 1, 53, 80
4, 49581, Note_on_c, 1, 57, 0
4, 49581, Note_on_c, 1, 53, 0
4, 49584, Note_on_c, 1, 55, 80
4, 49584, Note_on_c, 1, 52, 80
4, 49629, Note_on_c, 1, 55, 0
4, 49629, Note_on_c, 1, 52, 0
4, 49632, Note_on_c, 1, 53, 80
4, 49632, Note_on_c, 1, 50, 80
4, 49677, Note_on_c, 1, 53, 0
4, 49677, Note_on_c, 1, 50, 0
4, 49680, Note_on_c, 1, 55, 80
4, 49680, Note_on_c, 1, 52, 80
4, 49725, Note_on_c, 1, 55, 0
4, 49725, Note_on_c, 1, 52, 0
4, 49728, Note_on_c, 1, 57, 80
4, 49728, Note_on_c, 1, 53, 80
4, 49773, Note_on_c, 1, 57, 0
4, 49773, Note_on_c, 1, 53, 0
4, 49776, Note_on_c, 1, 55, 80
4, 49776, Note_on_c, 1, 52, 80
4, 49821, Note_on_c, 1, 55, 0
4, 49821, Note_on_c, 1, 52, 0
4, 49824, Note_on_c, 1, 53, 75
4, 49913, Note_on_c, 1, 53, 0
4, 49920, Note_on_c, 1, 55, 75
4, 50009, Note_on_c, 1, 55, 0
4, 50016, Note_on_c, 1, 43, 75
4, 50105, Note_on_c, 1, 43, 0
4, 50112, Note_on_c, 1, 48, 75
4, 50201, Note_on_c, 1, 48, 0
4, 50208, Note_on_c, 1, 55, 80
4, 50231, Note_on_c, 1, 55, 0
4, 50232, Note_on_c, 1, 53, 80
4, 50255, Note_on_c, 1, 53, 0
4, 50256, Note_on_c, 1, 52, 80
4, 50279, Note_on_c, 1, 52, 0
4, 50280, Note_on_c, 1, 50, 80
4, 50303, Note_on_c, 1, 50, 0
4, 50304, Note_on_c, 1, 48, 80
4, 50327, Note_on_c, 1, 48, 0
4, 50328, Note_on_c, 1, 52, 80
4, 50351, Note_on_c, 1, 52, 0
4, 50352, Note_on_c, 1, 55, 80
4, 50375, Note_on_c, 1, 55, 0
4, 50376, Note_on_c, 1, 60, 80
4, 50399, Note_on_c, 1, 60, 0
4, 50400, Note_on_c, 1, 59, 80
4, 50423, Note_on_c, 1, 59, 0
4, 50424, Note_on_c, 1, 62, 80
4, 50447, Note_on_c, 1, 62, 0
4, 50448, Note_on_c, 1, 59, 80
4, 50471, Note_on_c, 1, 59, 0
4, 50472, Note_on_c, 1, 55, 80
4, 50495, Note_on_c, 1, 55, 0
4, 50496, Note_on_c, 1, 60, 80
4, 50541, Note_on_c, 1, 60, 0
4, 50544, Note_on_c, 1, 60, 80
4, 50589, Note_on_c, 1, 60, 0
4, 50592, Note_on_c, 1, 55, 80
4, 50615, Note_on_c, 1, 55, 0
4, 50616, Note_on_c, 1, 53, 80
4, 50639, Note_on_c, 1, 53, 0
4, 50640, Note_on_c, 1, 52, 80
4, 50663, Note_on_c, 1, 52, 0
4, 50664, Note_on_c, 1, 50, 80
4, 50687, Note_on_c, 1, 50, 0
4, 50688, Note_on_c, 1, 48, 80
4, 50711, Note_on_c, 1, 48, 0
4, 50712, Note_on_c, 1, 52, 80
4, 50735, Note_on_c, 1, 52, 0
4, 50736, Note_on_c, 1, 55, 80
4, 50759, Note_on_c, 1, 55, 0
4, 50760, Note_on_c, 1, 60, 80
4, 50783, Note_on_c, 1, 60, 0
4, 50784, Note_on_c, 1, 59, 80
4, 50807, Note_on_c, 1, 59, 0
4, 50808, Note_on_c, 1, 62, 80
4, 50831, Note_on_c, 1, 62, 0
4, 50832, Note_on_c, 1, 59, 80
4, 50855, Note_on_c, 1, 59, 0
4, 50856, Note_on_c, 1, 55, 80
4, 50879, Note_on_c, 1, 55, 0
4, 50880, Note_on_c, 1, 64, 80
4, 50925, Note_on_c, 1, 64, 0
4, 50928, Note_on_c, 1, 64, 80
4, 50973, Note_on_c, 1, 64, 0
4, 50976, Note_on_c, 1, 62, 80
4, 50999, Note_on_c, 1, 62, 0
4, 51000, Note_on_c, 1, 65, 80
4, 51023, Note_on_c, 1, 65, 0
4, 51024, Note_on_c, 1, 62, 80
4, 51047, Note_on_c, 1, 62, 0
4, 51048, Note_on_c, 1, 59, 80
4, 51071, Note_on_c, 1, 59, 0
4, 51072, Note_on_c, 1, 67, 75
4, 51117, Note_on_c, 1, 67, 0
4, 51120, Note_on_c, 1, 67, 75
4, 51168, Note_on_c, 1, 67, 0
4, 51168, Note_on_c, 1, 68, 75
4, 51188, Note_on_c, 1, 68, 0
4, 51216, Note_on_c, 1, 68, 75
4, 51264, Note_on_c, 1, 68, 0
4, 51264, Note_on_c, 1, 69, 75
4, 51284, Note_on_c, 1, 69, 0
4, 51312, Note_on_c, 1, 69, 75
4, 51357, Note_on_c, 1, 69, 0
4, 51552, Note_on_c, 1, 52, 80
4, 51552, Note_on_c, 1, 40, 80
4, 51572, Note_on_c, 1, 52, 0
4, 51572, Note_on_c, 1, 40, 0
4, 51600, Note_on_c, 1, 52, 80
4, 51600, Note_on_c, 1, 40, 80
4, 51648, Note_on_c, 1, 52, 0
4, 51648, Note_on_c, 1, 40, 0
4, 51648, Note_on_c, 1, 53, 80
4, 51648, Note_on_c, 1, 41, 80
4, 51737, Note_on_c, 1, 53, 0
4, 51737, Note_on_c, 1, 41, 0
4, 51744, Note_on_c, 1, 54, 80
4, 51744, Note_on_c, 1, 42, 80
4, 51764, Note_on_c, 1, 54, 0
4, 51764, Note_on_c, 1, 42, 0
4, 51792, Note_on_c, 1, 54, 80
4, 51792, Note_on_c, 1, 42, 80
4, 51840, Note_on_c, 1, 54, 0
4, 51840, Note_on_c, 1, 42, 0
4, 51840, Note_on_c, 1, 55, 80
4, 51840, Note_on_c, 1, 43, 80
4, 51929, Note_on_c, 1, 55, 0
4, 51929, Note_on_c, 1, 43, 0
4, 51936, Note_on_c, 1, 56, 80
4, 51936, Note_on_c, 1, 44, 80
4, 51956, Note_on_c, 1, 56, 0
4, 51956, Note_on_c, 1, 44, 0
4, 51984, Note_on_c, 1, 56, 80
4, 51984, Note_on_c, 1, 44, 80
4, 52032, Note_on_c, 1, 56, 0
4, 52032, Note_on_c, 1, 44, 0
4, 52032, Note_on_c, 1, 57, 80
4, 52032, Note_on_c, 1, 45, 80
4, 52121, Note_on_c, 1, 57, 0
4, 52121, Note_on_c, 1, 45, 0
4, 52128, Note_on_c, 1, 59, 80
4, 52128, Note_on_c, 1, 47, 80
4, 52217, Note_on_c, 1, 59, 0
4, 52217, Note_on_c, 1, 47, 0
4, 52224, Note_on_c, 1, 60, 80
4, 52224, Note_on_c, 1, 48, 80
4, 52313, Note_on_c, 1, 60, 0
4, 52313, Note_on_c, 1, 48, 0
4, 52320, Note_on_c, 1, 62, 80
4, 52320, Note_on_c, 1, 50, 80
4, 52409, Note_on_c, 1, 62, 0
4, 52409, Note_on_c, 1, 50, 0
4, 52416, Note_on_c, 1, 64, 80
4, 52416, Note_on_c, 1, 60, 80
4, 52505, Note_on_c, 1, 64, 0
4, 52505, Note_on_c, 1, 60, 0
4, 52512, Note_on_c, 1, 62, 80
4, 52512, Note_on_c, 1, 59, 80
4, 52532, Note_on_c, 1, 62, 0
4, 52532, Note_on_c, 1, 59, 0
4, 52560, Note_on_c, 1, 62, 80
4, 52560, Note_on_c, 1, 59, 80
4, 52580, Note_on_c, 1, 62, 0
4, 52580, Note_on_c, 1, 59, 0
4, 52608, Note_on_c, 1, 64, 80
4, 52608, Note_on_c, 1, 60, 80
4, 52697, Note_on_c, 1, 64, 0
4, 52697, Note_on_c, 1, 60, 0
4, 52704, Note_on_c, 1, 65, 80
4, 52704, Note_on_c, 1, 62, 80
4, 52724, Note_on_c, 1, 65, 0
4, 52724, Note_on_c, 1, 62, 0
4, 52752, Note_on_c, 1, 65, 80
4, 52752, Note_on_c, 1, 62, 80
4, 52772, Note_on_c, 1, 65, 0
4, 52772, Note_on_c, 1, 62, 0
4, 52800, Note_on_c, 1, 64, 80
4, 52800, Note_on_c, 1, 60, 80
4, 52889, Note_on_c, 1, 64, 0
4, 52889, Note_on_c, 1, 60, 0
4, 52896, Note_on_c, 1, 62, 80
4, 52896, Note_on_c, 1, 59, 80
4, 52916, Note_on_c, 1, 62, 0
4, 52916, Note_on_c, 1, 59, 0
4, 52944, Note_on_c, 1, 62, 80
4, 52944, Note_on_c, 1, 59, 80
4, 52964, Note_on_c, 1, 62, 0
4, 52964, Note_on_c, 1, 59, 0
4, 52992, Note_on_c, 1, 64, 80
4, 52992, Note_on_c, 1, 60, 80
4, 53081, Note_on_c, 1, 64, 0
4, 53081, Note_on_c, 1, 60, 0
4, 53088, Note_on_c, 1, 65, 80
4, 53088, Note_on_c, 1, 62, 80
4, 53108, Note_on_c, 1, 65, 0
4, 53108, Note_on_c, 1, 62, 0
4, 53136, Note_on_c, 1, 65, 80
4, 53136, Note_on_c, 1, 62, 80
4, 53156, Note_on_c, 1, 65, 0
4, 53156, Note_on_c, 1, 62, 0
4, 53184, Note_on_c, 1, 64, 80
4, 53184, Note_on_c, 1, 60, 80
4, 53273, Note_on_c, 1, 64, 0
4, 53273, Note_on_c, 1, 60, 0
4, 53376, Note_on_c, 1, 65, 75
4, 53465, Note_on_c, 1, 65, 0
4, 53664, Note_on_c, 1, 59, 75
4, 53709, Note_on_c, 1, 59, 0
4, 53712, Note_on_c, 1, 59, 75
4, 53757, Note_on_c, 1, 59, 0
4, 53760, Note_on_c, 1, 60, 75
4, 53805, Note_on_c, 1, 60, 0
4, 53808, Note_on_c, 1, 53, 75
4, 53853, Note_on_c, 1, 53, 0
4, 53856, Note_on_c, 1, 55, 75
4, 53901, Note_on_c, 1, 55, 0
4, 53904, Note_on_c, 1, 43, 75
4, 53949, Note_on_c, 1, 43, 0
4, 53952, Control_c, 1, 64, 127
4, 53952, Note_on_c, 1, 36, 80
4, 53975, Note_on_c, 1, 36, 0
4, 53976, Note_on_c, 1, 48, 80
4, 53999, Note_on_c, 1, 48, 0
4, 54000, Note_on_c, 1, 36, 80
4, 54023, Note_on_c, 1, 36, 0
4, 54024, Note_on_c, 1, 48, 80
4, 54047, Note_on_c, 1, 48, 0
4, 54048, Note_on_c, 1, 36, 80
4, 54071, Note_on_c, 1, 36, 0
4, 54072, Note_on_c, 1, 48, 80
4, 54095, Note_on_c, 1, 48, 0
4, 54096, Note_on_c, 1, 36, 80
4, 54119, Note_on_c, 1, 36, 0
4, 54120, Note_on_c, 1, 48, 80
4, 54143, Note_on_c, 1, 48, 0
4, 54144, Note_on_c, 1, 36, 80
4, 54167, Note_on_c, 1, 36, 0
4, 54168, Note_on_c, 1, 48, 80
4, 54191, Note_on_c, 1, 48, 0
4, 54192, Note_on_c, 1, 36, 80
4, 54215, Note_on_c, 1, 36, 0
4, 54216, Note_on_c, 1, 48, 80
4, 54239, Note_on_c, 1, 48, 0
4, 54240, Note_on_c, 1, 36, 80
4, 54263, Note_on_c, 1, 36, 0
4, 54264, Note_on_c, 1, 48, 80
4, 54287, Note_on_c, 1, 48, 0
4, 54288, Note_on_c, 1, 36, 80
4, 54311, Note_on_c, 1, 36, 0
4, 54312, Note_on_c, 1, 48, 80
4, 54335, Note_on_c, 1, 48, 0
4, 54336, Note_on_c, 1, 36, 80
4, 54359, Note_on_c, 1, 36, 0
4, 54360, Note_on_c, 1, 48, 80
4, 54383, Note_on_c, 1, 48, 0
4, 54384, Note_on_c, 1, 36, 80
4, 54407, Note_on_c, 1, 36, 0
4, 54408, Note_on_c, 1, 48, 80
4, 54431, Note_on_c, 1, 48, 0
4, 54432, Note_on_c, 1, 36, 80
4, 54455, Note_on_c, 1, 36, 0
4, 54456, Note_on_c, 1, 48, 80
4, 54479, Note_on_c, 1, 48, 0
4, 54480, Note_on_c, 1, 36, 80
4, 54503, Note_on_c, 1, 36, 0
4, 54504, Note_on_c, 1, 48, 80
4, 54527, Note_on_c, 1, 48, 0
4, 54528, Note_on_c, 1, 36, 80
4, 54551, Note_on_c, 1, 36, 0
4, 54552, Note_on_c, 1, 48, 80
4, 54575, Note_on_c, 1, 48, 0
4, 54576, Note_on_c, 1, 36, 80
4, 54599, Note_on_c, 1, 36, 0
4, 54600, Note_on_c, 1, 48, 80
4, 54623, Note_on_c, 1, 48, 0
4, 54624, Note_on_c, 1, 36, 80
4, 54647, Note_on_c, 1, 36, 0
4, 54648, Note_on_c, 1, 48, 80
4, 54671, Note_on_c, 1, 48, 0
4, 54672, Note_on_c, 1, 36, 80
4, 54695, Note_on_c, 1, 36, 0
4, 54696, Note_on_c, 1, 48, 80
4, 54719, Note_on_c, 1, 48, 0
4, 54720, Control_c, 1, 64, 0
4, 54720, Note_on_c, 1, 36, 80
4, 54765, Note_on_c, 1, 36, 0
4, 55200, Note_on_c, 1, 67, 64
4, 55220, Note_on_c, 1, 67, 0
4, 55248, Note_on_c, 1, 67, 64
4, 55268, Note_on_c, 1, 67, 0
4, 55296, Note_on_c, 1, 69, 64
4, 55319, Note_on_c, 1, 69, 0
4, 55320, Note_on_c, 1, 67, 64
4, 55343, Note_on_c, 1, 67, 0
4, 55344, Note_on_c, 1, 65, 64
4, 55367, Note_on_c, 1, 65, 0
4, 55368, Note_on_c, 1, 64, 64
4, 55391, Note_on_c, 1, 64, 0
4, 55392, Note_on_c, 1, 67, 64
4, 55415, Note_on_c, 1, 67, 0
4, 55416, Note_on_c, 1, 65, 64
4, 55439, Note_on_c, 1, 65, 0
4, 55440, Note_on_c, 1, 64, 64
4, 55463, Note_on_c, 1, 64, 0
4, 55464, Note_on_c, 1, 62, 64
4, 55487, Note_on_c, 1, 62, 0
4, 55488, Note_on_c, 1, 60, 64
4, 55577, Note_on_c, 1, 60, 0
4, 55680, Note_on_c, 1, 65, 64
4, 55680, Note_on_c, 1, 59, 64
4, 55680, Note_on_c, 1, 55, 64
4, 55857, Note_on_c, 1, 65, 0
4, 55857, Note_on_c, 1, 59, 0
4, 55857, Note_on_c, 1, 55, 0
4, 55872, Note_on_c, 1, 64, 64
4, 55872, Note_on_c, 1, 60, 64
4, 55917, Note_on_c, 1, 64, 0
4, 55917, Note_on_c, 1, 60, 0
4, 55968, Note_on_c, 1, 55, 86
4, 55988, Note_on_c, 1, 55, 0
4, 56016, Note_on_c, 1, 55, 86
4, 56036, Note_on_c, 1, 55, 0
4, 56064, Note_on_c, 1, 57, 86
4, 56087, Note_on_c, 1, 57, 0
4, 56088, Note_on_c, 1, 55, 86
4, 56111, Note_on_c, 1, 55, 0
4, 56112, Note_on_c, 1, 53, 86
4, 56135, Note_on_c, 1, 53, 0
4, 56136, Note_on_c, 1, 52, 86
4, 56159, Note_on_c, 1, 52, 0
4, 56160, Note_on_c, 1, 55, 86
4, 56183, Note_on_c, 1, 55, 0
4, 56184, Note_on_c, 1, 53, 86
4, 56207, Note_on_c, 1, 53, 0
4, 56208, Note_on_c, 1, 52, 86
4, 56231, Note_on_c, 1, 52, 0
4, 56232, Note_on_c, 1, 50, 86
4, 56255, Note_on_c, 1, 50, 0
4, 56256, Note_on_c, 1, 48, 86
4, 56345, Note_on_c, 1, 48, 0
4, 56448, Note_on_c, 1, 48, 0
4, 56625, Note_on_c, 1, 48, 0
4, 56640, End_track
5, 0, Start_track
5, 0, Program_c, 1, 0
5, 0, Control_c, 1, 7, 127
5, 0, Control_c, 1, 10, 64
5, 14400, Note_on_c, 1, 50, 75
5, 14769, Note_on_c, 1, 50, 0
5, 14784, Note_on_c, 1, 50, 75
5, 15153, Note_on_c, 1, 50, 0
5, 15168, Note_on_c, 1, 50, 75
5, 15833, Note_on_c, 1, 50, 0
5, 37632, Note_on_c, 1, 55, 75
5, 38297, Note_on_c, 1, 55, 0
5, 45888, Note_on_c, 1, 43, 75
5, 46257, Note_on_c, 1, 43, 0
5, 46272, Note_on_c, 1, 43, 75
5, 46641, Note_on_c, 1, 43, 0
5, 46656, Note_on_c, 1, 43, 75
5, 47321, Note_on_c, 1, 43, 0
5, 56640, End_track
6, 0, Start_track
6, 0, Title_t, "Sonata I   Haydn  "
6, 0, End_track
0, 0, End_of_file
