0, 0, Header, 1, 6, 96
1, 0, Start_track
1, 0, Copyright_t, "Copyright  2000 <copyright holder>"
1, 0, Text_t, "Sonata I\015\012"
1, 0, Text_t, "Haydn\015\012"
1, 0, Sequencer_specific, 16, 68, 87, 77, 90, 86, 82, 83, 78, 32, 55, 46, 49, 46, 51, 46, 48
1, 0, Time_signature, 3, 2, 24, 8
1, 0, Tempo, 1200000
1, 0, Key_signature, -1, "major"
1, 16488, Tempo, 1200000
1, 16536, Tempo, 1250000
1, 16656, Tempo, 3000000
1, 16704, Tempo, 1153846
1, 17472, Tempo, 1250000
1, 17568, Tempo, 1428571
1, 18144, End_track
2, 0, Start_track
2, 0, Program_c, 0, 0
2, 0, Control_c, 0, 7, 127
2, 0, Control_c, 0, 10, 64
2, 0, Note_on_c, 0, 57, 104
2, 6, Note_on_c, 0, 57, 0
2, 6, Note_on_c, 0, 60, 104
2, 12, Note_on_c, 0, 60, 0
2, 12, Note_on_c, 0, 65, 104
2, 108, Note_on_c, 0, 65, 0
2, 108, Note_on_c, 0, 60, 80
2, 120, Note_on_c, 0, 60, 0
2, 120, Note_on_c, 0, 65, 80
2, 132, Note_on_c, 0, 65, 0
2, 132, Note_on_c, 0, 69, 80
2, 144, Note_on_c, 0, 69, 0
2, 144, Note_on_c, 0, 72, 80
2, 178, Note_on_c, 0, 72, 0
2, 180, Note_on_c, 0, 69, 80
2, 192, Note_on_c, 0, 69, 0
2, 192, Note_on_c, 0, 72, 80
2, 215, Note_on_c, 0, 72, 0
2, 216, Note_on_c, 0, 70, 79
2, 239, Note_on_c, 0, 70, 0
2, 240, Note_on_c, 0, 67, 78
2, 263, Note_on_c, 0, 67, 0
2, 264, Note_on_c, 0, 64, 77
2, 287, Note_on_c, 0, 64, 0
2, 288, Note_on_c, 0, 65, 76
2, 333, Note_on_c, 0, 65, 0
2, 336, Note_on_c, 0, 67, 74
2, 342, Note_on_c, 0, 67, 0
2, 342, Note_on_c, 0, 65, 74
2, 348, Note_on_c, 0, 65, 0
2, 348, Note_on_c, 0, 64, 74
2, 354, Note_on_c, 0, 64, 0
2, 354, Note_on_c, 0, 65, 74
2, 370, Note_on_c, 0, 65, 0
2, 372, Note_on_c, 0, 69, 72
2, 384, Note_on_c, 0, 69, 0
2, 384, Note_on_c, 0, 60, 72
2, 429, Note_on_c, 0, 60, 0
2, 528, Note_on_c, 0, 69, 72
2, 540, Note_on_c, 0, 69, 0
2, 540, Note_on_c, 0, 72, 73
2, 552, Note_on_c, 0, 72, 0
2, 552, Note_on_c, 0, 76, 73
2, 564, Note_on_c, 0, 76, 0
2, 564, Note_on_c, 0, 77, 74
2, 576, Note_on_c, 0, 77, 0
2, 576, Note_on_c, 0, 77, 91
2, 695, Note_on_c, 0, 77, 0
2, 696, Note_on_c, 0, 76, 78
2, 719, Note_on_c, 0, 76, 0
2, 720, Note_on_c, 0, 79, 77
2, 743, Note_on_c, 0, 79, 0
2, 744, Note_on_c, 0, 77, 76
2, 767, Note_on_c, 0, 77, 0
2, 768, Note_on_c, 0, 76, 75
2, 791, Note_on_c, 0, 76, 0
2, 792, Note_on_c, 0, 74, 73
2, 815, Note_on_c, 0, 74, 0
2, 816, Note_on_c, 0, 72, 72
2, 839, Note_on_c, 0, 72, 0
2, 840, Note_on_c, 0, 70, 71
2, 863, Note_on_c, 0, 70, 0
2, 864, Note_on_c, 0, 69, 64
2, 887, Note_on_c, 0, 69, 0
2, 888, Note_on_c, 0, 70, 66
2, 911, Note_on_c, 0, 70, 0
2, 912, Note_on_c, 0, 71, 69
2, 924, Note_on_c, 0, 71, 0
2, 924, Note_on_c, 0, 72, 70
2, 928, Note_on_c, 0, 72, 0
2, 928, Note_on_c, 0, 71, 70
2, 932, Note_on_c, 0, 71, 0
2, 932, Note_on_c, 0, 69, 70
2, 936, Note_on_c, 0, 69, 0
2, 936, Note_on_c, 0, 71, 70
2, 942, Note_on_c, 0, 71, 0
2, 942, Note_on_c, 0, 72, 71
2, 959, Note_on_c, 0, 72, 0
2, 960, Note_on_c, 0, 74, 73
2, 972, Note_on_c, 0, 74, 0
2, 972, Note_on_c, 0, 72, 75
2, 984, Note_on_c, 0, 72, 0
2, 984, Note_on_c, 0, 70, 74
2, 996, Note_on_c, 0, 70, 0
2, 996, Note_on_c, 0, 69, 73
2, 1008, Note_on_c, 0, 69, 0
2, 1008, Note_on_c, 0, 67, 72
2, 1042, Note_on_c, 0, 67, 0
2, 1044, Note_on_c, 0, 70, 69
2, 1050, Note_on_c, 0, 70, 0
2, 1050, Note_on_c, 0, 69, 69
2, 1056, Note_on_c, 0, 69, 0
2, 1056, Note_on_c, 0, 67, 68
2, 1101, Note_on_c, 0, 67, 0
2, 1152, Note_on_c, 0, 57, 104
2, 1158, Note_on_c, 0, 57, 0
2, 1158, Note_on_c, 0, 60, 104
2, 1164, Note_on_c, 0, 60, 0
2, 1164, Note_on_c, 0, 65, 104
2, 1260, Note_on_c, 0, 65, 0
2, 1260, Note_on_c, 0, 60, 80
2, 1272, Note_on_c, 0, 60, 0
2, 1272, Note_on_c, 0, 65, 80
2, 1284, Note_on_c, 0, 65, 0
2, 1284, Note_on_c, 0, 69, 80
2, 1296, Note_on_c, 0, 69, 0
2, 1296, Note_on_c, 0, 72, 80
2, 1308, Note_on_c, 0, 72, 0
2, 1308, Note_on_c, 0, 69, 80
2, 1320, Note_on_c, 0, 69, 0
2, 1320, Note_on_c, 0, 77, 80
2, 1332, Note_on_c, 0, 77, 0
2, 1332, Note_on_c, 0, 69, 80
2, 1344, Note_on_c, 0, 69, 0
2, 1344, Note_on_c, 0, 72, 80
2, 1356, Note_on_c, 0, 72, 0
2, 1356, Note_on_c, 0, 71, 79
2, 1368, Note_on_c, 0, 71, 0
2, 1368, Note_on_c, 0, 74, 78
2, 1380, Note_on_c, 0, 74, 0
2, 1380, Note_on_c, 0, 72, 77
2, 1392, Note_on_c, 0, 72, 0
2, 1392, Note_on_c, 0, 70, 76
2, 1404, Note_on_c, 0, 70, 0
2, 1404, Note_on_c, 0, 69, 75
2, 1416, Note_on_c, 0, 69, 0
2, 1416, Note_on_c, 0, 70, 74
2, 1428, Note_on_c, 0, 70, 0
2, 1428, Note_on_c, 0, 67, 73
2, 1440, Note_on_c, 0, 67, 0
2, 1440, Note_on_c, 0, 65, 72
2, 1463, Note_on_c, 0, 65, 0
2, 1464, Note_on_c, 0, 67, 70
2, 1472, Note_on_c, 0, 67, 0
2, 1472, Note_on_c, 0, 65, 70
2, 1480, Note_on_c, 0, 65, 0
2, 1480, Note_on_c, 0, 64, 70
2, 1488, Note_on_c, 0, 64, 0
2, 1488, Note_on_c, 0, 65, 70
2, 1522, Note_on_c, 0, 65, 0
2, 1524, Note_on_c, 0, 69, 70
2, 1536, Note_on_c, 0, 69, 0
2, 1536, Note_on_c, 0, 61, 94
2, 1728, Note_on_c, 0, 61, 0
2, 1728, Note_on_c, 0, 62, 70
2, 1745, Note_on_c, 0, 62, 0
2, 1752, Note_on_c, 0, 64, 70
2, 1758, Note_on_c, 0, 64, 0
2, 1758, Note_on_c, 0, 68, 70
2, 1764, Note_on_c, 0, 68, 0
2, 1764, Note_on_c, 0, 69, 70
2, 1770, Note_on_c, 0, 69, 0
2, 1770, Note_on_c, 0, 70, 70
2, 1776, Note_on_c, 0, 70, 0
2, 1776, Note_on_c, 0, 72, 70
2, 1782, Note_on_c, 0, 72, 0
2, 1782, Note_on_c, 0, 74, 70
2, 1788, Note_on_c, 0, 74, 0
2, 1788, Note_on_c, 0, 76, 70
2, 1794, Note_on_c, 0, 76, 0
2, 1794, Note_on_c, 0, 78, 70
2, 1800, Note_on_c, 0, 78, 0
2, 1800, Note_on_c, 0, 80, 70
2, 1806, Note_on_c, 0, 80, 0
2, 1806, Note_on_c, 0, 81, 70
2, 1812, Note_on_c, 0, 81, 0
2, 1812, Note_on_c, 0, 82, 70
2, 1818, Note_on_c, 0, 82, 0
2, 1818, Note_on_c, 0, 84, 70
2, 1824, Note_on_c, 0, 84, 0
2, 1824, Note_on_c, 0, 86, 70
2, 1844, Note_on_c, 0, 86, 0
2, 1944, Note_on_c, 0, 72, 80
2, 1956, Note_on_c, 0, 72, 0
2, 1956, Note_on_c, 0, 70, 79
2, 1961, Note_on_c, 0, 70, 0
2, 1968, Note_on_c, 0, 69, 102
2, 1980, Note_on_c, 0, 69, 0
2, 1980, Note_on_c, 0, 67, 77
2, 1985, Note_on_c, 0, 67, 0
2, 1992, Note_on_c, 0, 65, 100
2, 2004, Note_on_c, 0, 65, 0
2, 2004, Note_on_c, 0, 64, 75
2, 2009, Note_on_c, 0, 64, 0
2, 2016, Note_on_c, 0, 67, 74
2, 2112, Note_on_c, 0, 67, 0
2, 2112, Note_on_c, 0, 65, 67
2, 2157, Note_on_c, 0, 65, 0
2, 2184, Note_on_c, 0, 72, 58
2, 2194, Note_on_c, 0, 72, 0
2, 2208, Note_on_c, 0, 74, 58
2, 2218, Note_on_c, 0, 74, 0
2, 2232, Note_on_c, 0, 76, 58
2, 2242, Note_on_c, 0, 76, 0
2, 2256, Note_on_c, 0, 77, 58
2, 2266, Note_on_c, 0, 77, 0
2, 2280, Note_on_c, 0, 79, 58
2, 2290, Note_on_c, 0, 79, 0
2, 2304, Note_on_c, 0, 81, 58
2, 2423, Note_on_c, 0, 81, 0
2, 2424, Note_on_c, 0, 80, 58
2, 2447, Note_on_c, 0, 80, 0
2, 2448, Note_on_c, 0, 81, 58
2, 2471, Note_on_c, 0, 81, 0
2, 2472, Note_on_c, 0, 82, 58
2, 2495, Note_on_c, 0, 82, 0
2, 2496, Note_on_c, 0, 81, 58
2, 2519, Note_on_c, 0, 81, 0
2, 2520, Note_on_c, 0, 84, 58
2, 2543, Note_on_c, 0, 84, 0
2, 2544, Note_on_c, 0, 83, 82
2, 2567, Note_on_c, 0, 83, 0
2, 2568, Note_on_c, 0, 81, 58
2, 2591, Note_on_c, 0, 81, 0
2, 2592, Note_on_c, 0, 79, 58
2, 2711, Note_on_c, 0, 79, 0
2, 2712, Note_on_c, 0, 78, 58
2, 2735, Note_on_c, 0, 78, 0
2, 2736, Note_on_c, 0, 79, 58
2, 2759, Note_on_c, 0, 79, 0
2, 2760, Note_on_c, 0, 81, 58
2, 2783, Note_on_c, 0, 81, 0
2, 2784, Note_on_c, 0, 79, 58
2, 2796, Note_on_c, 0, 79, 0
2, 2796, Note_on_c, 0, 83, 58
2, 2808, Note_on_c, 0, 83, 0
2, 2808, Note_on_c, 0, 84, 58
2, 2820, Note_on_c, 0, 84, 0
2, 2820, Note_on_c, 0, 88, 58
2, 2832, Note_on_c, 0, 88, 0
2, 2832, Note_on_c, 0, 86, 58
2, 2844, Note_on_c, 0, 86, 0
2, 2844, Note_on_c, 0, 84, 58
2, 2856, Note_on_c, 0, 84, 0
2, 2856, Note_on_c, 0, 83, 58
2, 2868, Note_on_c, 0, 83, 0
2, 2868, Note_on_c, 0, 81, 58
2, 2880, Note_on_c, 0, 81, 0
2, 2880, Note_on_c, 0, 79, 58
2, 2969, Note_on_c, 0, 79, 0
2, 2976, Note_on_c, 0, 78, 74
2, 2976, Note_on_c, 0, 72, 74
2, 2976, Note_on_c, 0, 69, 74
2, 3072, Note_on_c, 0, 78, 0
2, 3072, Note_on_c, 0, 72, 0
2, 3072, Note_on_c, 0, 69, 0
2, 3072, Note_on_c, 0, 77, 74
2, 3072, Note_on_c, 0, 74, 74
2, 3072, Note_on_c, 0, 67, 74
2, 3144, Note_on_c, 0, 77, 0
2, 3144, Note_on_c, 0, 74, 0
2, 3144, Note_on_c, 0, 67, 0
2, 3144, Note_on_c, 0, 76, 74
2, 3144, Note_on_c, 0, 72, 74
2, 3191, Note_on_c, 0, 76, 0
2, 3191, Note_on_c, 0, 72, 0
2, 3192, Note_on_c, 0, 73, 58
2, 3192, Note_on_c, 0, 70, 58
2, 3215, Note_on_c, 0, 73, 0
2, 3215, Note_on_c, 0, 70, 0
2, 3216, Note_on_c, 0, 74, 58
2, 3216, Note_on_c, 0, 71, 58
2, 3239, Note_on_c, 0, 74, 0
2, 3239, Note_on_c, 0, 71, 0
2, 3240, Note_on_c, 0, 76, 58
2, 3240, Note_on_c, 0, 72, 58
2, 3263, Note_on_c, 0, 76, 0
2, 3263, Note_on_c, 0, 72, 0
2, 3264, Note_on_c, 0, 74, 58
2, 3264, Note_on_c, 0, 71, 58
2, 3309, Note_on_c, 0, 74, 0
2, 3309, Note_on_c, 0, 71, 0
2, 3384, Note_on_c, 0, 55, 64
2, 3407, Note_on_c, 0, 55, 0
2, 3408, Note_on_c, 0, 59, 66
2, 3431, Note_on_c, 0, 59, 0
2, 3432, Note_on_c, 0, 62, 68
2, 3455, Note_on_c, 0, 62, 0
2, 3456, Note_on_c, 0, 65, 70
2, 3564, Note_on_c, 0, 65, 0
2, 3564, Note_on_c, 0, 55, 80
2, 3576, Note_on_c, 0, 55, 0
2, 3576, Note_on_c, 0, 59, 80
2, 3588, Note_on_c, 0, 59, 0
2, 3588, Note_on_c, 0, 62, 80
2, 3600, Note_on_c, 0, 62, 0
2, 3600, Note_on_c, 0, 65, 80
2, 3612, Note_on_c, 0, 65, 0
2, 3612, Note_on_c, 0, 59, 80
2, 3624, Note_on_c, 0, 59, 0
2, 3624, Note_on_c, 0, 62, 80
2, 3636, Note_on_c, 0, 62, 0
2, 3636, Note_on_c, 0, 65, 80
2, 3648, Note_on_c, 0, 65, 0
2, 3648, Note_on_c, 0, 69, 80
2, 3671, Note_on_c, 0, 69, 0
2, 3672, Note_on_c, 0, 65, 80
2, 3695, Note_on_c, 0, 65, 0
2, 3696, Note_on_c, 0, 64, 80
2, 3719, Note_on_c, 0, 64, 0
2, 3720, Note_on_c, 0, 62, 80
2, 3743, Note_on_c, 0, 62, 0
2, 3744, Note_on_c, 0, 69, 80
2, 3756, Note_on_c, 0, 69, 0
2, 3756, Note_on_c, 0, 67, 80
2, 3768, Note_on_c, 0, 67, 0
2, 3768, Note_on_c, 0, 71, 80
2, 3780, Note_on_c, 0, 71, 0
2, 3780, Note_on_c, 0, 69, 80
2, 3792, Note_on_c, 0, 69, 0
2, 3792, Note_on_c, 0, 72, 80
2, 3804, Note_on_c, 0, 72, 0
2, 3804, Note_on_c, 0, 71, 80
2, 3816, Note_on_c, 0, 71, 0
2, 3816, Note_on_c, 0, 74, 80
2, 3828, Note_on_c, 0, 74, 0
2, 3828, Note_on_c, 0, 72, 80
2, 3840, Note_on_c, 0, 72, 0
2, 3840, Note_on_c, 0, 67, 80
2, 3885, Note_on_c, 0, 67, 0
2, 4044, Note_on_c, 0, 67, 75
2, 4056, Note_on_c, 0, 67, 0
2, 4056, Note_on_c, 0, 71, 75
2, 4068, Note_on_c, 0, 71, 0
2, 4068, Note_on_c, 0, 74, 75
2, 4080, Note_on_c, 0, 74, 0
2, 4080, Note_on_c, 0, 77, 75
2, 4140, Note_on_c, 0, 77, 0
2, 4140, Note_on_c, 0, 67, 75
2, 4152, Note_on_c, 0, 67, 0
2, 4152, Note_on_c, 0, 71, 75
2, 4164, Note_on_c, 0, 71, 0
2, 4164, Note_on_c, 0, 74, 75
2, 4176, Note_on_c, 0, 74, 0
2, 4176, Note_on_c, 0, 77, 75
2, 4188, Note_on_c, 0, 77, 0
2, 4188, Note_on_c, 0, 71, 75
2, 4200, Note_on_c, 0, 71, 0
2, 4200, Note_on_c, 0, 74, 75
2, 4212, Note_on_c, 0, 74, 0
2, 4212, Note_on_c, 0, 77, 75
2, 4224, Note_on_c, 0, 77, 0
2, 4224, Note_on_c, 0, 81, 75
2, 4236, Note_on_c, 0, 81, 0
2, 4236, Note_on_c, 0, 80, 75
2, 4248, Note_on_c, 0, 80, 0
2, 4248, Note_on_c, 0, 83, 75
2, 4260, Note_on_c, 0, 83, 0
2, 4260, Note_on_c, 0, 81, 75
2, 4272, Note_on_c, 0, 81, 0
2, 4272, Note_on_c, 0, 79, 75
2, 4284, Note_on_c, 0, 79, 0
2, 4284, Note_on_c, 0, 77, 75
2, 4296, Note_on_c, 0, 77, 0
2, 4296, Note_on_c, 0, 76, 75
2, 4308, Note_on_c, 0, 76, 0
2, 4308, Note_on_c, 0, 74, 75
2, 4320, Note_on_c, 0, 74, 0
2, 4320, Note_on_c, 0, 81, 75
2, 4332, Note_on_c, 0, 81, 0
2, 4332, Note_on_c, 0, 79, 75
2, 4344, Note_on_c, 0, 79, 0
2, 4344, Note_on_c, 0, 83, 75
2, 4356, Note_on_c, 0, 83, 0
2, 4356, Note_on_c, 0, 81, 75
2, 4368, Note_on_c, 0, 81, 0
2, 4368, Note_on_c, 0, 84, 75
2, 4380, Note_on_c, 0, 84, 0
2, 4380, Note_on_c, 0, 83, 75
2, 4392, Note_on_c, 0, 83, 0
2, 4392, Note_on_c, 0, 86, 75
2, 4404, Note_on_c, 0, 86, 0
2, 4404, Note_on_c, 0, 84, 75
2, 4416, Note_on_c, 0, 84, 0
2, 4416, Note_on_c, 0, 79, 75
2, 4461, Note_on_c, 0, 79, 0
2, 4488, Note_on_c, 0, 79, 75
2, 4511, Note_on_c, 0, 79, 0
2, 4512, Note_on_c, 0, 84, 75
2, 4524, Note_on_c, 0, 84, 0
2, 4524, Note_on_c, 0, 83, 75
2, 4536, Note_on_c, 0, 83, 0
2, 4536, Note_on_c, 0, 86, 75
2, 4548, Note_on_c, 0, 86, 0
2, 4548, Note_on_c, 0, 84, 75
2, 4560, Note_on_c, 0, 84, 0
2, 4560, Note_on_c, 0, 88, 76
2, 4572, Note_on_c, 0, 88, 0
2, 4572, Note_on_c, 0, 84, 76
2, 4584, Note_on_c, 0, 84, 0
2, 4584, Note_on_c, 0, 79, 76
2, 4596, Note_on_c, 0, 79, 0
2, 4596, Note_on_c, 0, 88, 77
2, 4608, Note_on_c, 0, 88, 0
2, 4608, Note_on_c, 0, 84, 77
2, 4620, Note_on_c, 0, 84, 0
2, 4620, Note_on_c, 0, 81, 77
2, 4632, Note_on_c, 0, 81, 0
2, 4632, Note_on_c, 0, 89, 94
2, 4704, Note_on_c, 0, 89, 0
2, 4704, Note_on_c, 0, 72, 80
2, 4716, Note_on_c, 0, 72, 0
2, 4716, Note_on_c, 0, 74, 80
2, 4722, Note_on_c, 0, 74, 0
2, 4722, Note_on_c, 0, 76, 80
2, 4728, Note_on_c, 0, 76, 0
2, 4728, Note_on_c, 0, 74, 80
2, 4734, Note_on_c, 0, 74, 0
2, 4734, Note_on_c, 0, 76, 80
2, 4740, Note_on_c, 0, 76, 0
2, 4740, Note_on_c, 0, 74, 80
2, 4746, Note_on_c, 0, 74, 0
2, 4746, Note_on_c, 0, 76, 80
2, 4752, Note_on_c, 0, 76, 0
2, 4752, Note_on_c, 0, 74, 80
2, 4758, Note_on_c, 0, 74, 0
2, 4758, Note_on_c, 0, 76, 80
2, 4764, Note_on_c, 0, 76, 0
2, 4764, Note_on_c, 0, 74, 80
2, 4770, Note_on_c, 0, 74, 0
2, 4770, Note_on_c, 0, 76, 80
2, 4776, Note_on_c, 0, 76, 0
2, 4776, Note_on_c, 0, 74, 80
2, 4782, Note_on_c, 0, 74, 0
2, 4782, Note_on_c, 0, 76, 80
2, 4788, Note_on_c, 0, 76, 0
2, 4788, Note_on_c, 0, 74, 80
2, 4794, Note_on_c, 0, 74, 0
2, 4794, Note_on_c, 0, 76, 80
2, 4800, Note_on_c, 0, 76, 0
2, 4800, Note_on_c, 0, 74, 80
2, 4806, Note_on_c, 0, 74, 0
2, 4806, Note_on_c, 0, 76, 80
2, 4812, Note_on_c, 0, 76, 0
2, 4812, Note_on_c, 0, 74, 80
2, 4818, Note_on_c, 0, 74, 0
2, 4818, Note_on_c, 0, 76, 80
2, 4824, Note_on_c, 0, 76, 0
2, 4824, Note_on_c, 0, 74, 80
2, 4830, Note_on_c, 0, 74, 0
2, 4830, Note_on_c, 0, 76, 80
2, 4836, Note_on_c, 0, 76, 0
2, 4836, Note_on_c, 0, 74, 80
2, 4842, Note_on_c, 0, 74, 0
2, 4842, Note_on_c, 0, 76, 80
2, 4848, Note_on_c, 0, 76, 0
2, 4848, Note_on_c, 0, 74, 80
2, 4854, Note_on_c, 0, 74, 0
2, 4854, Note_on_c, 0, 76, 80
2, 4860, Note_on_c, 0, 76, 0
2, 4860, Note_on_c, 0, 74, 80
2, 4866, Note_on_c, 0, 74, 0
2, 4866, Note_on_c, 0, 76, 80
2, 4871, Note_on_c, 0, 76, 0
2, 4871, Note_on_c, 0, 74, 80
2, 4876, Note_on_c, 0, 74, 0
2, 4876, Note_on_c, 0, 76, 80
2, 4881, Note_on_c, 0, 76, 0
2, 4881, Note_on_c, 0, 74, 80
2, 4886, Note_on_c, 0, 74, 0
2, 4886, Note_on_c, 0, 79, 80
2, 4896, Note_on_c, 0, 79, 0
2, 4896, Note_on_c, 0, 72, 80
2, 4985, Note_on_c, 0, 72, 0
2, 5004, Note_on_c, 0, 88, 70
2, 5009, Note_on_c, 0, 88, 0
2, 5016, Note_on_c, 0, 86, 70
2, 5021, Note_on_c, 0, 86, 0
2, 5028, Note_on_c, 0, 84, 70
2, 5033, Note_on_c, 0, 84, 0
2, 5040, Note_on_c, 0, 83, 70
2, 5045, Note_on_c, 0, 83, 0
2, 5052, Note_on_c, 0, 81, 70
2, 5057, Note_on_c, 0, 81, 0
2, 5064, Note_on_c, 0, 79, 70
2, 5069, Note_on_c, 0, 79, 0
2, 5076, Note_on_c, 0, 77, 70
2, 5081, Note_on_c, 0, 77, 0
2, 5088, Note_on_c, 0, 76, 70
2, 5098, Note_on_c, 0, 76, 0
2, 5112, Note_on_c, 0, 74, 70
2, 5122, Note_on_c, 0, 74, 0
2, 5136, Note_on_c, 0, 76, 70
2, 5146, Note_on_c, 0, 76, 0
2, 5160, Note_on_c, 0, 77, 70
2, 5170, Note_on_c, 0, 77, 0
2, 5184, Note_on_c, 0, 78, 70
2, 5208, Note_on_c, 0, 78, 0
2, 5208, Note_on_c, 0, 79, 94
2, 5275, Note_on_c, 0, 79, 0
2, 5292, Note_on_c, 0, 89, 70
2, 5297, Note_on_c, 0, 89, 0
2, 5304, Note_on_c, 0, 88, 70
2, 5309, Note_on_c, 0, 88, 0
2, 5316, Note_on_c, 0, 86, 70
2, 5321, Note_on_c, 0, 86, 0
2, 5328, Note_on_c, 0, 84, 70
2, 5333, Note_on_c, 0, 84, 0
2, 5340, Note_on_c, 0, 83, 70
2, 5345, Note_on_c, 0, 83, 0
2, 5352, Note_on_c, 0, 81, 70
2, 5357, Note_on_c, 0, 81, 0
2, 5364, Note_on_c, 0, 79, 70
2, 5369, Note_on_c, 0, 79, 0
2, 5376, Note_on_c, 0, 78, 70
2, 5386, Note_on_c, 0, 78, 0
2, 5400, Note_on_c, 0, 79, 70
2, 5410, Note_on_c, 0, 79, 0
2, 5424, Note_on_c, 0, 81, 70
2, 5434, Note_on_c, 0, 81, 0
2, 5448, Note_on_c, 0, 77, 70
2, 5458, Note_on_c, 0, 77, 0
2, 5472, Note_on_c, 0, 75, 70
2, 5496, Note_on_c, 0, 75, 0
2, 5496, Note_on_c, 0, 76, 94
2, 5563, Note_on_c, 0, 76, 0
2, 5580, Note_on_c, 0, 88, 75
2, 5580, Note_on_c, 0, 76, 75
2, 5585, Note_on_c, 0, 88, 0
2, 5585, Note_on_c, 0, 76, 0
2, 5592, Note_on_c, 0, 86, 75
2, 5592, Note_on_c, 0, 74, 75
2, 5597, Note_on_c, 0, 86, 0
2, 5597, Note_on_c, 0, 74, 0
2, 5604, Note_on_c, 0, 84, 75
2, 5604, Note_on_c, 0, 72, 75
2, 5609, Note_on_c, 0, 84, 0
2, 5609, Note_on_c, 0, 72, 0
2, 5616, Note_on_c, 0, 83, 75
2, 5616, Note_on_c, 0, 71, 75
2, 5621, Note_on_c, 0, 83, 0
2, 5621, Note_on_c, 0, 71, 0
2, 5628, Note_on_c, 0, 81, 75
2, 5628, Note_on_c, 0, 69, 75
2, 5633, Note_on_c, 0, 81, 0
2, 5633, Note_on_c, 0, 69, 0
2, 5640, Note_on_c, 0, 79, 75
2, 5640, Note_on_c, 0, 67, 75
2, 5645, Note_on_c, 0, 79, 0
2, 5645, Note_on_c, 0, 67, 0
2, 5652, Note_on_c, 0, 77, 75
2, 5652, Note_on_c, 0, 65, 75
2, 5657, Note_on_c, 0, 77, 0
2, 5657, Note_on_c, 0, 65, 0
2, 5664, Note_on_c, 0, 76, 75
2, 5664, Note_on_c, 0, 64, 75
2, 5674, Note_on_c, 0, 76, 0
2, 5674, Note_on_c, 0, 64, 0
2, 5688, Note_on_c, 0, 74, 75
2, 5688, Note_on_c, 0, 62, 75
2, 5698, Note_on_c, 0, 74, 0
2, 5698, Note_on_c, 0, 62, 0
2, 5712, Note_on_c, 0, 76, 75
2, 5712, Note_on_c, 0, 64, 75
2, 5722, Note_on_c, 0, 76, 0
2, 5722, Note_on_c, 0, 64, 0
2, 5736, Note_on_c, 0, 77, 75
2, 5736, Note_on_c, 0, 65, 75
2, 5746, Note_on_c, 0, 77, 0
2, 5746, Note_on_c, 0, 65, 0
2, 5760, Note_on_c, 0, 78, 75
2, 5760, Note_on_c, 0, 66, 75
2, 5784, Note_on_c, 0, 78, 0
2, 5784, Note_on_c, 0, 66, 0
2, 5784, Note_on_c, 0, 79, 99
2, 5784, Note_on_c, 0, 67, 99
2, 5851, Note_on_c, 0, 79, 0
2, 5851, Note_on_c, 0, 67, 0
2, 5868, Note_on_c, 0, 89, 75
2, 5868, Note_on_c, 0, 77, 75
2, 5873, Note_on_c, 0, 89, 0
2, 5873, Note_on_c, 0, 77, 0
2, 5880, Note_on_c, 0, 88, 75
2, 5880, Note_on_c, 0, 76, 75
2, 5885, Note_on_c, 0, 88, 0
2, 5885, Note_on_c, 0, 76, 0
2, 5892, Note_on_c, 0, 86, 75
2, 5892, Note_on_c, 0, 74, 75
2, 5897, Note_on_c, 0, 86, 0
2, 5897, Note_on_c, 0, 74, 0
2, 5904, Note_on_c, 0, 84, 75
2, 5904, Note_on_c, 0, 72, 75
2, 5909, Note_on_c, 0, 84, 0
2, 5909, Note_on_c, 0, 72, 0
2, 5916, Note_on_c, 0, 83, 75
2, 5916, Note_on_c, 0, 71, 75
2, 5921, Note_on_c, 0, 83, 0
2, 5921, Note_on_c, 0, 71, 0
2, 5928, Note_on_c, 0, 81, 75
2, 5928, Note_on_c, 0, 69, 75
2, 5933, Note_on_c, 0, 81, 0
2, 5933, Note_on_c, 0, 69, 0
2, 5940, Note_on_c, 0, 79, 75
2, 5940, Note_on_c, 0, 67, 75
2, 5945, Note_on_c, 0, 79, 0
2, 5945, Note_on_c, 0, 67, 0
2, 5952, Note_on_c, 0, 78, 75
2, 5952, Note_on_c, 0, 66, 75
2, 5962, Note_on_c, 0, 78, 0
2, 5962, Note_on_c, 0, 66, 0
2, 5976, Note_on_c, 0, 79, 75
2, 5976, Note_on_c, 0, 67, 75
2, 5986, Note_on_c, 0, 79, 0
2, 5986, Note_on_c, 0, 67, 0
2, 6000, Note_on_c, 0, 81, 75
2, 6000, Note_on_c, 0, 69, 75
2, 6010, Note_on_c, 0, 81, 0
2, 6010, Note_on_c, 0, 69, 0
2, 6024, Note_on_c, 0, 77, 75
2, 6024, Note_on_c, 0, 65, 75
2, 6034, Note_on_c, 0, 77, 0
2, 6034, Note_on_c, 0, 65, 0
2, 6048, Note_on_c, 0, 76, 75
2, 6048, Note_on_c, 0, 64, 75
2, 6093, Note_on_c, 0, 76, 0
2, 6093, Note_on_c, 0, 64, 0
2, 6096, Note_on_c, 0, 84, 75
2, 6096, Note_on_c, 0, 76, 75
2, 6141, Note_on_c, 0, 84, 0
2, 6141, Note_on_c, 0, 76, 0
2, 6144, Note_on_c, 0, 57, 75
2, 6155, Note_on_c, 0, 57, 0
2, 6155, Note_on_c, 0, 60, 75
2, 6166, Note_on_c, 0, 60, 0
2, 6166, Note_on_c, 0, 63, 75
2, 6177, Note_on_c, 0, 63, 0
2, 6177, Note_on_c, 0, 66, 75
2, 6188, Note_on_c, 0, 66, 0
2, 6188, Note_on_c, 0, 69, 75
2, 6199, Note_on_c, 0, 69, 0
2, 6199, Note_on_c, 0, 72, 75
2, 6210, Note_on_c, 0, 72, 0
2, 6210, Note_on_c, 0, 75, 75
2, 6220, Note_on_c, 0, 75, 0
2, 6220, Note_on_c, 0, 78, 75
2, 6230, Note_on_c, 0, 78, 0
2, 6230, Note_on_c, 0, 81, 75
2, 6240, Note_on_c, 0, 81, 0
2, 6288, Note_on_c, 0, 71, 75
2, 6300, Note_on_c, 0, 71, 0
2, 6300, Note_on_c, 0, 72, 74
2, 6308, Note_on_c, 0, 72, 0
2, 6308, Note_on_c, 0, 71, 74
2, 6316, Note_on_c, 0, 71, 0
2, 6316, Note_on_c, 0, 69, 74
2, 6324, Note_on_c, 0, 69, 0
2, 6324, Note_on_c, 0, 71, 74
2, 6336, Note_on_c, 0, 71, 0
2, 6336, Note_on_c, 0, 74, 74
2, 6336, Note_on_c, 0, 65, 74
2, 6432, Note_on_c, 0, 74, 0
2, 6432, Note_on_c, 0, 65, 0
2, 6432, Note_on_c, 0, 72, 71
2, 6432, Note_on_c, 0, 64, 71
2, 6499, Note_on_c, 0, 72, 0
2, 6499, Note_on_c, 0, 64, 0
2, 6648, Note_on_c, 0, 67, 75
2, 6671, Note_on_c, 0, 67, 0
2, 6672, Note_on_c, 0, 69, 75
2, 6695, Note_on_c, 0, 69, 0
2, 6696, Note_on_c, 0, 71, 75
2, 6719, Note_on_c, 0, 71, 0
2, 6720, Note_on_c, 0, 72, 75
2, 6743, Note_on_c, 0, 72, 0
2, 6744, Note_on_c, 0, 74, 75
2, 6767, Note_on_c, 0, 74, 0
2, 6768, Note_on_c, 0, 75, 75
2, 6791, Note_on_c, 0, 75, 0
2, 6792, Note_on_c, 0, 71, 75
2, 6815, Note_on_c, 0, 71, 0
2, 6816, Note_on_c, 0, 72, 75
2, 6839, Note_on_c, 0, 72, 0
2, 6840, Note_on_c, 0, 67, 75
2, 6863, Note_on_c, 0, 67, 0
2, 6864, Note_on_c, 0, 84, 75
2, 6887, Note_on_c, 0, 84, 0
2, 6888, Note_on_c, 0, 81, 75
2, 6911, Note_on_c, 0, 81, 0
2, 6912, Note_on_c, 0, 79, 75
2, 7008, Note_on_c, 0, 79, 0
2, 7008, Note_on_c, 0, 78, 75
2, 7097, Note_on_c, 0, 78, 0
2, 7104, Note_on_c, 0, 79, 75
2, 7127, Note_on_c, 0, 79, 0
2, 7128, Note_on_c, 0, 78, 75
2, 7151, Note_on_c, 0, 78, 0
2, 7152, Note_on_c, 0, 79, 75
2, 7175, Note_on_c, 0, 79, 0
2, 7176, Note_on_c, 0, 76, 75
2, 7199, Note_on_c, 0, 76, 0
2, 7200, Note_on_c, 0, 74, 75
2, 7289, Note_on_c, 0, 74, 0
2, 7296, Note_on_c, 0, 73, 75
2, 7459, Note_on_c, 0, 73, 0
2, 7464, Note_on_c, 0, 76, 75
2, 7487, Note_on_c, 0, 76, 0
2, 7488, Note_on_c, 0, 76, 75
2, 7511, Note_on_c, 0, 76, 0
2, 7512, Note_on_c, 0, 74, 75
2, 7535, Note_on_c, 0, 74, 0
2, 7536, Note_on_c, 0, 76, 75
2, 7559, Note_on_c, 0, 76, 0
2, 7560, Note_on_c, 0, 77, 75
2, 7583, Note_on_c, 0, 77, 0
2, 7584, Note_on_c, 0, 76, 75
2, 7607, Note_on_c, 0, 76, 0
2, 7608, Note_on_c, 0, 74, 75
2, 7631, Note_on_c, 0, 74, 0
2, 7632, Note_on_c, 0, 76, 75
2, 7655, Note_on_c, 0, 76, 0
2, 7656, Note_on_c, 0, 77, 75
2, 7679, Note_on_c, 0, 77, 0
2, 7680, Note_on_c, 0, 76, 75
2, 7703, Note_on_c, 0, 76, 0
2, 7704, Note_on_c, 0, 74, 75
2, 7727, Note_on_c, 0, 74, 0
2, 7728, Note_on_c, 0, 76, 75
2, 7751, Note_on_c, 0, 76, 0
2, 7752, Note_on_c, 0, 72, 75
2, 7775, Note_on_c, 0, 72, 0
2, 7776, Note_on_c, 0, 72, 75
2, 7865, Note_on_c, 0, 72, 0
2, 7872, Note_on_c, 0, 71, 75
2, 8049, Note_on_c, 0, 71, 0
2, 8064, Note_on_c, 0, 70, 75
2, 8087, Note_on_c, 0, 70, 0
2, 8088, Note_on_c, 0, 69, 75
2, 8111, Note_on_c, 0, 69, 0
2, 8112, Note_on_c, 0, 70, 75
2, 8135, Note_on_c, 0, 70, 0
2, 8136, Note_on_c, 0, 72, 75
2, 8159, Note_on_c, 0, 72, 0
2, 8160, Note_on_c, 0, 70, 75
2, 8183, Note_on_c, 0, 70, 0
2, 8184, Note_on_c, 0, 69, 73
2, 8207, Note_on_c, 0, 69, 0
2, 8208, Note_on_c, 0, 70, 72
2, 8231, Note_on_c, 0, 70, 0
2, 8232, Note_on_c, 0, 72, 70
2, 8255, Note_on_c, 0, 72, 0
2, 8256, Note_on_c, 0, 70, 69
2, 8279, Note_on_c, 0, 70, 0
2, 8280, Note_on_c, 0, 69, 68
2, 8303, Note_on_c, 0, 69, 0
2, 8304, Note_on_c, 0, 70, 66
2, 8327, Note_on_c, 0, 70, 0
2, 8328, Note_on_c, 0, 72, 65
2, 8351, Note_on_c, 0, 72, 0
2, 8352, Note_on_c, 0, 70, 64
2, 8375, Note_on_c, 0, 70, 0
2, 8376, Note_on_c, 0, 69, 64
2, 8399, Note_on_c, 0, 69, 0
2, 8400, Note_on_c, 0, 70, 64
2, 8423, Note_on_c, 0, 70, 0
2, 8424, Note_on_c, 0, 72, 64
2, 8447, Note_on_c, 0, 72, 0
2, 8448, Note_on_c, 0, 70, 64
2, 8471, Note_on_c, 0, 70, 0
2, 8472, Note_on_c, 0, 69, 64
2, 8495, Note_on_c, 0, 69, 0
2, 8496, Note_on_c, 0, 70, 64
2, 8519, Note_on_c, 0, 70, 0
2, 8520, Note_on_c, 0, 72, 64
2, 8543, Note_on_c, 0, 72, 0
2, 8544, Note_on_c, 0, 70, 64
2, 8567, Note_on_c, 0, 70, 0
2, 8568, Note_on_c, 0, 69, 64
2, 8591, Note_on_c, 0, 69, 0
2, 8592, Note_on_c, 0, 70, 64
2, 8615, Note_on_c, 0, 70, 0
2, 8616, Note_on_c, 0, 72, 64
2, 8639, Note_on_c, 0, 72, 0
2, 8640, Note_on_c, 0, 70, 64
2, 8652, Note_on_c, 0, 70, 0
2, 8652, Note_on_c, 0, 69, 64
2, 8664, Note_on_c, 0, 69, 0
2, 8664, Note_on_c, 0, 70, 64
2, 8676, Note_on_c, 0, 70, 0
2, 8676, Note_on_c, 0, 72, 64
2, 8688, Note_on_c, 0, 72, 0
2, 8688, Note_on_c, 0, 70, 64
2, 8700, Note_on_c, 0, 70, 0
2, 8700, Note_on_c, 0, 69, 64
2, 8712, Note_on_c, 0, 69, 0
2, 8712, Note_on_c, 0, 70, 65
2, 8724, Note_on_c, 0, 70, 0
2, 8724, Note_on_c, 0, 72, 66
2, 8736, Note_on_c, 0, 72, 0
2, 8736, Note_on_c, 0, 70, 67
2, 8748, Note_on_c, 0, 70, 0
2, 8748, Note_on_c, 0, 74, 68
2, 8760, Note_on_c, 0, 74, 0
2, 8760, Note_on_c, 0, 72, 68
2, 8772, Note_on_c, 0, 72, 0
2, 8772, Note_on_c, 0, 77, 69
2, 8784, Note_on_c, 0, 77, 0
2, 8784, Note_on_c, 0, 76, 70
2, 8796, Note_on_c, 0, 76, 0
2, 8796, Note_on_c, 0, 79, 71
2, 8808, Note_on_c, 0, 79, 0
2, 8808, Note_on_c, 0, 77, 72
2, 8820, Note_on_c, 0, 77, 0
2, 8820, Note_on_c, 0, 81, 72
2, 8832, Note_on_c, 0, 81, 0
2, 8832, Note_on_c, 0, 79, 73
2, 8844, Note_on_c, 0, 79, 0
2, 8844, Note_on_c, 0, 82, 74
2, 8856, Note_on_c, 0, 82, 0
2, 8856, Note_on_c, 0, 86, 75
2, 8868, Note_on_c, 0, 86, 0
2, 8868, Note_on_c, 0, 84, 76
2, 8880, Note_on_c, 0, 84, 0
2, 8880, Note_on_c, 0, 82, 76
2, 8892, Note_on_c, 0, 82, 0
2, 8892, Note_on_c, 0, 81, 77
2, 8904, Note_on_c, 0, 81, 0
2, 8904, Note_on_c, 0, 79, 78
2, 8916, Note_on_c, 0, 79, 0
2, 8916, Note_on_c, 0, 77, 79
2, 8928, Note_on_c, 0, 77, 0
2, 8928, Note_on_c, 0, 76, 80
2, 8940, Note_on_c, 0, 76, 0
2, 8940, Note_on_c, 0, 84, 80
2, 8952, Note_on_c, 0, 84, 0
2, 8952, Note_on_c, 0, 82, 80
2, 8964, Note_on_c, 0, 82, 0
2, 8964, Note_on_c, 0, 79, 80
2, 8976, Note_on_c, 0, 79, 0
2, 8976, Note_on_c, 0, 76, 80
2, 8988, Note_on_c, 0, 76, 0
2, 8988, Note_on_c, 0, 72, 80
2, 9000, Note_on_c, 0, 72, 0
2, 9000, Note_on_c, 0, 70, 80
2, 9012, Note_on_c, 0, 70, 0
2, 9012, Note_on_c, 0, 67, 80
2, 9024, Note_on_c, 0, 67, 0
2, 9024, Note_on_c, 0, 64, 80
2, 9036, Note_on_c, 0, 64, 0
2, 9036, Note_on_c, 0, 60, 80
2, 9048, Note_on_c, 0, 60, 0
2, 9048, Note_on_c, 0, 58, 80
2, 9060, Note_on_c, 0, 58, 0
2, 9060, Note_on_c, 0, 55, 80
2, 9072, Note_on_c, 0, 55, 0
2, 9129, Note_on_c, 0, 60, 80
2, 9138, Note_on_c, 0, 60, 0
2, 9138, Note_on_c, 0, 61, 79
2, 9147, Note_on_c, 0, 61, 0
2, 9147, Note_on_c, 0, 62, 78
2, 9156, Note_on_c, 0, 62, 0
2, 9156, Note_on_c, 0, 63, 77
2, 9165, Note_on_c, 0, 63, 0
2, 9165, Note_on_c, 0, 64, 77
2, 9174, Note_on_c, 0, 64, 0
2, 9174, Note_on_c, 0, 65, 76
2, 9183, Note_on_c, 0, 65, 0
2, 9183, Note_on_c, 0, 66, 75
2, 9192, Note_on_c, 0, 66, 0
2, 9192, Note_on_c, 0, 67, 75
2, 9200, Note_on_c, 0, 67, 0
2, 9200, Note_on_c, 0, 68, 74
2, 9208, Note_on_c, 0, 68, 0
2, 9208, Note_on_c, 0, 69, 73
2, 9216, Note_on_c, 0, 69, 0
2, 9216, Note_on_c, 0, 70, 73
2, 9236, Note_on_c, 0, 70, 0
2, 9264, Note_on_c, 0, 67, 64
2, 9284, Note_on_c, 0, 67, 0
2, 9312, Note_on_c, 0, 64, 64
2, 9499, Note_on_c, 0, 64, 0
2, 9504, Note_on_c, 0, 57, 104
2, 9510, Note_on_c, 0, 57, 0
2, 9510, Note_on_c, 0, 60, 104
2, 9516, Note_on_c, 0, 60, 0
2, 9516, Note_on_c, 0, 65, 104
2, 9612, Note_on_c, 0, 65, 0
2, 9612, Note_on_c, 0, 60, 80
2, 9624, Note_on_c, 0, 60, 0
2, 9624, Note_on_c, 0, 65, 80
2, 9636, Note_on_c, 0, 65, 0
2, 9636, Note_on_c, 0, 69, 80
2, 9648, Note_on_c, 0, 69, 0
2, 9648, Note_on_c, 0, 72, 80
2, 9682, Note_on_c, 0, 72, 0
2, 9684, Note_on_c, 0, 69, 80
2, 9696, Note_on_c, 0, 69, 0
2, 9696, Note_on_c, 0, 72, 80
2, 9719, Note_on_c, 0, 72, 0
2, 9720, Note_on_c, 0, 70, 79
2, 9743, Note_on_c, 0, 70, 0
2, 9744, Note_on_c, 0, 67, 78
2, 9767, Note_on_c, 0, 67, 0
2, 9768, Note_on_c, 0, 64, 77
2, 9791, Note_on_c, 0, 64, 0
2, 9792, Note_on_c, 0, 65, 76
2, 9815, Note_on_c, 0, 65, 0
2, 9816, Note_on_c, 0, 67, 75
2, 9824, Note_on_c, 0, 67, 0
2, 9824, Note_on_c, 0, 65, 74
2, 9832, Note_on_c, 0, 65, 0
2, 9832, Note_on_c, 0, 64, 74
2, 9840, Note_on_c, 0, 64, 0
2, 9840, Note_on_c, 0, 65, 74
2, 9874, Note_on_c, 0, 65, 0
2, 9876, Note_on_c, 0, 69, 72
2, 9888, Note_on_c, 0, 69, 0
2, 9888, Note_on_c, 0, 60, 72
2, 9933, Note_on_c, 0, 60, 0
2, 9984, Note_on_c, 0, 53, 70
2, 9990, Note_on_c, 0, 53, 0
2, 9990, Note_on_c, 0, 55, 70
2, 9996, Note_on_c, 0, 55, 0
2, 9996, Note_on_c, 0, 57, 70
2, 10002, Note_on_c, 0, 57, 0
2, 10002, Note_on_c, 0, 58, 70
2, 10008, Note_on_c, 0, 58, 0
2, 10008, Note_on_c, 0, 60, 70
2, 10014, Note_on_c, 0, 60, 0
2, 10014, Note_on_c, 0, 62, 70
2, 10020, Note_on_c, 0, 62, 0
2, 10020, Note_on_c, 0, 64, 70
2, 10025, Note_on_c, 0, 64, 0
2, 10025, Note_on_c, 0, 65, 70
2, 10030, Note_on_c, 0, 65, 0
2, 10030, Note_on_c, 0, 67, 70
2, 10035, Note_on_c, 0, 67, 0
2, 10035, Note_on_c, 0, 69, 70
2, 10040, Note_on_c, 0, 69, 0
2, 10040, Note_on_c, 0, 70, 70
2, 10045, Note_on_c, 0, 70, 0
2, 10045, Note_on_c, 0, 72, 70
2, 10050, Note_on_c, 0, 72, 0
2, 10050, Note_on_c, 0, 74, 70
2, 10055, Note_on_c, 0, 74, 0
2, 10055, Note_on_c, 0, 76, 70
2, 10060, Note_on_c, 0, 76, 0
2, 10060, Note_on_c, 0, 77, 70
2, 10065, Note_on_c, 0, 77, 0
2, 10065, Note_on_c, 0, 76, 70
2, 10070, Note_on_c, 0, 76, 0
2, 10070, Note_on_c, 0, 77, 70
2, 10075, Note_on_c, 0, 77, 0
2, 10075, Note_on_c, 0, 79, 70
2, 10080, Note_on_c, 0, 79, 0
2, 10080, Note_on_c, 0, 77, 70
2, 10188, Note_on_c, 0, 77, 0
2, 10188, Note_on_c, 0, 76, 80
2, 10200, Note_on_c, 0, 76, 0
2, 10200, Note_on_c, 0, 79, 80
2, 10212, Note_on_c, 0, 79, 0
2, 10212, Note_on_c, 0, 77, 80
2, 10224, Note_on_c, 0, 77, 0
2, 10224, Note_on_c, 0, 76, 80
2, 10236, Note_on_c, 0, 76, 0
2, 10236, Note_on_c, 0, 74, 80
2, 10248, Note_on_c, 0, 74, 0
2, 10248, Note_on_c, 0, 79, 80
2, 10260, Note_on_c, 0, 79, 0
2, 10260, Note_on_c, 0, 77, 80
2, 10272, Note_on_c, 0, 77, 0
2, 10272, Note_on_c, 0, 76, 80
2, 10284, Note_on_c, 0, 76, 0
2, 10284, Note_on_c, 0, 74, 80
2, 10296, Note_on_c, 0, 74, 0
2, 10296, Note_on_c, 0, 79, 80
2, 10308, Note_on_c, 0, 79, 0
2, 10308, Note_on_c, 0, 77, 80
2, 10320, Note_on_c, 0, 77, 0
2, 10320, Note_on_c, 0, 76, 80
2, 10332, Note_on_c, 0, 76, 0
2, 10332, Note_on_c, 0, 74, 80
2, 10344, Note_on_c, 0, 74, 0
2, 10344, Note_on_c, 0, 72, 80
2, 10356, Note_on_c, 0, 72, 0
2, 10356, Note_on_c, 0, 70, 80
2, 10368, Note_on_c, 0, 70, 0
2, 10368, Note_on_c, 0, 69, 80
2, 10380, Note_on_c, 0, 69, 0
2, 10380, Note_on_c, 0, 81, 80
2, 10392, Note_on_c, 0, 81, 0
2, 10392, Note_on_c, 0, 70, 80
2, 10404, Note_on_c, 0, 70, 0
2, 10404, Note_on_c, 0, 82, 80
2, 10416, Note_on_c, 0, 82, 0
2, 10416, Note_on_c, 0, 71, 80
2, 10428, Note_on_c, 0, 71, 0
2, 10428, Note_on_c, 0, 83, 80
2, 10440, Note_on_c, 0, 83, 0
2, 10440, Note_on_c, 0, 72, 80
2, 10452, Note_on_c, 0, 72, 0
2, 10452, Note_on_c, 0, 84, 80
2, 10464, Note_on_c, 0, 84, 0
2, 10656, Note_on_c, 0, 57, 104
2, 10662, Note_on_c, 0, 57, 0
2, 10662, Note_on_c, 0, 60, 104
2, 10668, Note_on_c, 0, 60, 0
2, 10668, Note_on_c, 0, 65, 104
2, 10764, Note_on_c, 0, 65, 0
2, 10764, Note_on_c, 0, 60, 80
2, 10776, Note_on_c, 0, 60, 0
2, 10776, Note_on_c, 0, 65, 80
2, 10788, Note_on_c, 0, 65, 0
2, 10788, Note_on_c, 0, 69, 80
2, 10800, Note_on_c, 0, 69, 0
2, 10800, Note_on_c, 0, 72, 80
2, 10812, Note_on_c, 0, 72, 0
2, 10812, Note_on_c, 0, 69, 80
2, 10824, Note_on_c, 0, 69, 0
2, 10824, Note_on_c, 0, 77, 80
2, 10836, Note_on_c, 0, 77, 0
2, 10836, Note_on_c, 0, 69, 80
2, 10848, Note_on_c, 0, 69, 0
2, 10848, Note_on_c, 0, 72, 80
2, 10860, Note_on_c, 0, 72, 0
2, 10860, Note_on_c, 0, 71, 79
2, 10872, Note_on_c, 0, 71, 0
2, 10872, Note_on_c, 0, 74, 78
2, 10884, Note_on_c, 0, 74, 0
2, 10884, Note_on_c, 0, 72, 77
2, 10896, Note_on_c, 0, 72, 0
2, 10896, Note_on_c, 0, 70, 76
2, 10908, Note_on_c, 0, 70, 0
2, 10908, Note_on_c, 0, 69, 75
2, 10920, Note_on_c, 0, 69, 0
2, 10920, Note_on_c, 0, 70, 74
2, 10932, Note_on_c, 0, 70, 0
2, 10932, Note_on_c, 0, 67, 73
2, 10944, Note_on_c, 0, 67, 0
2, 10944, Note_on_c, 0, 65, 72
2, 10967, Note_on_c, 0, 65, 0
2, 10968, Note_on_c, 0, 67, 70
2, 10976, Note_on_c, 0, 67, 0
2, 10976, Note_on_c, 0, 65, 70
2, 10984, Note_on_c, 0, 65, 0
2, 10984, Note_on_c, 0, 64, 70
2, 10992, Note_on_c, 0, 64, 0
2, 10992, Note_on_c, 0, 65, 70
2, 11026, Note_on_c, 0, 65, 0
2, 11028, Note_on_c, 0, 69, 70
2, 11040, Note_on_c, 0, 69, 0
2, 11040, Note_on_c, 0, 61, 94
2, 11107, Note_on_c, 0, 61, 0
2, 11112, Note_on_c, 0, 61, 70
2, 11124, Note_on_c, 0, 61, 0
2, 11124, Note_on_c, 0, 61, 70
2, 11136, Note_on_c, 0, 61, 0
2, 11136, Note_on_c, 0, 61, 70
2, 11159, Note_on_c, 0, 61, 0
2, 11160, Note_on_c, 0, 61, 70
2, 11172, Note_on_c, 0, 61, 0
2, 11172, Note_on_c, 0, 61, 70
2, 11184, Note_on_c, 0, 61, 0
2, 11184, Note_on_c, 0, 61, 70
2, 11207, Note_on_c, 0, 61, 0
2, 11208, Note_on_c, 0, 61, 70
2, 11231, Note_on_c, 0, 61, 0
2, 11232, Note_on_c, 0, 62, 70
2, 11249, Note_on_c, 0, 62, 0
2, 11256, Note_on_c, 0, 64, 70
2, 11262, Note_on_c, 0, 64, 0
2, 11262, Note_on_c, 0, 68, 70
2, 11268, Note_on_c, 0, 68, 0
2, 11268, Note_on_c, 0, 69, 70
2, 11274, Note_on_c, 0, 69, 0
2, 11274, Note_on_c, 0, 70, 70
2, 11280, Note_on_c, 0, 70, 0
2, 11280, Note_on_c, 0, 72, 70
2, 11286, Note_on_c, 0, 72, 0
2, 11286, Note_on_c, 0, 74, 70
2, 11292, Note_on_c, 0, 74, 0
2, 11292, Note_on_c, 0, 76, 70
2, 11298, Note_on_c, 0, 76, 0
2, 11298, Note_on_c, 0, 78, 70
2, 11304, Note_on_c, 0, 78, 0
2, 11304, Note_on_c, 0, 80, 70
2, 11310, Note_on_c, 0, 80, 0
2, 11310, Note_on_c, 0, 81, 70
2, 11316, Note_on_c, 0, 81, 0
2, 11316, Note_on_c, 0, 82, 70
2, 11322, Note_on_c, 0, 82, 0
2, 11322, Note_on_c, 0, 84, 70
2, 11328, Note_on_c, 0, 84, 0
2, 11328, Note_on_c, 0, 86, 70
2, 11373, Note_on_c, 0, 86, 0
2, 11448, Note_on_c, 0, 72, 80
2, 11460, Note_on_c, 0, 72, 0
2, 11460, Note_on_c, 0, 70, 79
2, 11465, Note_on_c, 0, 70, 0
2, 11472, Note_on_c, 0, 69, 102
2, 11484, Note_on_c, 0, 69, 0
2, 11484, Note_on_c, 0, 67, 77
2, 11489, Note_on_c, 0, 67, 0
2, 11496, Note_on_c, 0, 65, 100
2, 11508, Note_on_c, 0, 65, 0
2, 11508, Note_on_c, 0, 64, 75
2, 11513, Note_on_c, 0, 64, 0
2, 11520, Note_on_c, 0, 67, 74
2, 11616, Note_on_c, 0, 67, 0
2, 11616, Note_on_c, 0, 65, 67
2, 11661, Note_on_c, 0, 65, 0
2, 11688, Note_on_c, 0, 60, 64
2, 11698, Note_on_c, 0, 60, 0
2, 11712, Note_on_c, 0, 62, 64
2, 11722, Note_on_c, 0, 62, 0
2, 11736, Note_on_c, 0, 64, 64
2, 11746, Note_on_c, 0, 64, 0
2, 11760, Note_on_c, 0, 65, 64
2, 11770, Note_on_c, 0, 65, 0
2, 11784, Note_on_c, 0, 67, 64
2, 11794, Note_on_c, 0, 67, 0
2, 11808, Note_on_c, 0, 68, 64
2, 11897, Note_on_c, 0, 68, 0
2, 11904, Note_on_c, 0, 67, 64
2, 11952, Note_on_c, 0, 67, 0
2, 11952, Note_on_c, 0, 65, 64
2, 11997, Note_on_c, 0, 65, 0
2, 12000, Note_on_c, 0, 64, 64
2, 12048, Note_on_c, 0, 64, 0
2, 12048, Note_on_c, 0, 67, 64
2, 12093, Note_on_c, 0, 67, 0
2, 12096, Note_on_c, 0, 72, 70
2, 12096, Note_on_c, 0, 68, 70
2, 12185, Note_on_c, 0, 72, 0
2, 12185, Note_on_c, 0, 68, 0
2, 12192, Note_on_c, 0, 70, 70
2, 12192, Note_on_c, 0, 67, 70
2, 12240, Note_on_c, 0, 70, 0
2, 12240, Note_on_c, 0, 67, 0
2, 12240, Note_on_c, 0, 68, 70
2, 12240, Note_on_c, 0, 65, 70
2, 12285, Note_on_c, 0, 68, 0
2, 12285, Note_on_c, 0, 65, 0
2, 12288, Note_on_c, 0, 67, 70
2, 12288, Note_on_c, 0, 64, 70
2, 12336, Note_on_c, 0, 67, 0
2, 12336, Note_on_c, 0, 64, 0
2, 12336, Note_on_c, 0, 76, 72
2, 12336, Note_on_c, 0, 72, 72
2, 12381, Note_on_c, 0, 76, 0
2, 12381, Note_on_c, 0, 72, 0
2, 12384, Note_on_c, 0, 77, 75
2, 12407, Note_on_c, 0, 77, 0
2, 12408, Note_on_c, 0, 84, 75
2, 12431, Note_on_c, 0, 84, 0
2, 12432, Note_on_c, 0, 82, 75
2, 12455, Note_on_c, 0, 82, 0
2, 12456, Note_on_c, 0, 80, 75
2, 12479, Note_on_c, 0, 80, 0
2, 12480, Note_on_c, 0, 79, 75
2, 12503, Note_on_c, 0, 79, 0
2, 12504, Note_on_c, 0, 85, 75
2, 12527, Note_on_c, 0, 85, 0
2, 12528, Note_on_c, 0, 84, 75
2, 12551, Note_on_c, 0, 84, 0
2, 12552, Note_on_c, 0, 82, 75
2, 12575, Note_on_c, 0, 82, 0
2, 12576, Note_on_c, 0, 80, 75
2, 12599, Note_on_c, 0, 80, 0
2, 12600, Note_on_c, 0, 79, 75
2, 12623, Note_on_c, 0, 79, 0
2, 12624, Note_on_c, 0, 80, 75
2, 12647, Note_on_c, 0, 80, 0
2, 12648, Note_on_c, 0, 77, 75
2, 12671, Note_on_c, 0, 77, 0
2, 12672, Note_on_c, 0, 77, 75
2, 12768, Note_on_c, 0, 77, 0
2, 12768, Note_on_c, 0, 76, 75
2, 12857, Note_on_c, 0, 76, 0
2, 12864, Note_on_c, 0, 77, 75
2, 12864, Note_on_c, 0, 68, 75
2, 12887, Note_on_c, 0, 77, 0
2, 12887, Note_on_c, 0, 68, 0
2, 12888, Note_on_c, 0, 72, 75
2, 12888, Note_on_c, 0, 68, 75
2, 12911, Note_on_c, 0, 72, 0
2, 12911, Note_on_c, 0, 68, 0
2, 12912, Note_on_c, 0, 70, 75
2, 12912, Note_on_c, 0, 67, 75
2, 12935, Note_on_c, 0, 70, 0
2, 12935, Note_on_c, 0, 67, 0
2, 12936, Note_on_c, 0, 68, 75
2, 12936, Note_on_c, 0, 65, 75
2, 12959, Note_on_c, 0, 68, 0
2, 12959, Note_on_c, 0, 65, 0
2, 12960, Note_on_c, 0, 68, 91
2, 12960, Note_on_c, 0, 65, 91
2, 13056, Note_on_c, 0, 68, 0
2, 13056, Note_on_c, 0, 65, 0
2, 13056, Note_on_c, 0, 67, 75
2, 13056, Note_on_c, 0, 64, 75
2, 13145, Note_on_c, 0, 67, 0
2, 13145, Note_on_c, 0, 64, 0
2, 13200, Note_on_c, 0, 56, 70
2, 13200, Note_on_c, 0, 53, 70
2, 13220, Note_on_c, 0, 56, 0
2, 13220, Note_on_c, 0, 53, 0
2, 13248, Note_on_c, 0, 56, 86
2, 13248, Note_on_c, 0, 53, 86
2, 13344, Note_on_c, 0, 56, 0
2, 13344, Note_on_c, 0, 53, 0
2, 13344, Note_on_c, 0, 55, 70
2, 13344, Note_on_c, 0, 52, 70
2, 13433, Note_on_c, 0, 55, 0
2, 13433, Note_on_c, 0, 52, 0
2, 13464, Note_on_c, 0, 60, 70
2, 13487, Note_on_c, 0, 60, 0
2, 13488, Note_on_c, 0, 64, 71
2, 13511, Note_on_c, 0, 64, 0
2, 13512, Note_on_c, 0, 67, 72
2, 13535, Note_on_c, 0, 67, 0
2, 13536, Note_on_c, 0, 70, 74
2, 13644, Note_on_c, 0, 70, 0
2, 13644, Note_on_c, 0, 60, 80
2, 13656, Note_on_c, 0, 60, 0
2, 13656, Note_on_c, 0, 64, 80
2, 13668, Note_on_c, 0, 64, 0
2, 13668, Note_on_c, 0, 67, 80
2, 13680, Note_on_c, 0, 67, 0
2, 13680, Note_on_c, 0, 70, 80
2, 13692, Note_on_c, 0, 70, 0
2, 13692, Note_on_c, 0, 64, 80
2, 13704, Note_on_c, 0, 64, 0
2, 13704, Note_on_c, 0, 67, 80
2, 13716, Note_on_c, 0, 67, 0
2, 13716, Note_on_c, 0, 70, 80
2, 13728, Note_on_c, 0, 70, 0
2, 13728, Note_on_c, 0, 74, 80
2, 13751, Note_on_c, 0, 74, 0
2, 13752, Note_on_c, 0, 70, 80
2, 13775, Note_on_c, 0, 70, 0
2, 13776, Note_on_c, 0, 69, 80
2, 13799, Note_on_c, 0, 69, 0
2, 13800, Note_on_c, 0, 67, 80
2, 13823, Note_on_c, 0, 67, 0
2, 13824, Note_on_c, 0, 74, 80
2, 13836, Note_on_c, 0, 74, 0
2, 13836, Note_on_c, 0, 72, 80
2, 13848, Note_on_c, 0, 72, 0
2, 13848, Note_on_c, 0, 76, 80
2, 13860, Note_on_c, 0, 76, 0
2, 13860, Note_on_c, 0, 74, 80
2, 13872, Note_on_c, 0, 74, 0
2, 13872, Note_on_c, 0, 77, 80
2, 13884, Note_on_c, 0, 77, 0
2, 13884, Note_on_c, 0, 76, 80
2, 13896, Note_on_c, 0, 76, 0
2, 13896, Note_on_c, 0, 79, 80
2, 13908, Note_on_c, 0, 79, 0
2, 13908, Note_on_c, 0, 77, 80
2, 13920, Note_on_c, 0, 77, 0
2, 13920, Note_on_c, 0, 72, 80
2, 13965, Note_on_c, 0, 72, 0
2, 14124, Note_on_c, 0, 84, 75
2, 14136, Note_on_c, 0, 84, 0
2, 14136, Note_on_c, 0, 82, 75
2, 14148, Note_on_c, 0, 82, 0
2, 14148, Note_on_c, 0, 79, 75
2, 14160, Note_on_c, 0, 79, 0
2, 14160, Note_on_c, 0, 76, 75
2, 14172, Note_on_c, 0, 76, 0
2, 14220, Note_on_c, 0, 60, 75
2, 14232, Note_on_c, 0, 60, 0
2, 14232, Note_on_c, 0, 58, 75
2, 14244, Note_on_c, 0, 58, 0
2, 14244, Note_on_c, 0, 55, 75
2, 14256, Note_on_c, 0, 55, 0
2, 14256, Note_on_c, 0, 52, 75
2, 14268, Note_on_c, 0, 52, 0
2, 14364, Note_on_c, 0, 52, 75
2, 14376, Note_on_c, 0, 52, 0
2, 14376, Note_on_c, 0, 55, 75
2, 14388, Note_on_c, 0, 55, 0
2, 14388, Note_on_c, 0, 58, 75
2, 14400, Note_on_c, 0, 58, 0
2, 14400, Note_on_c, 0, 62, 75
2, 14412, Note_on_c, 0, 62, 0
2, 14412, Note_on_c, 0, 60, 75
2, 14424, Note_on_c, 0, 60, 0
2, 14424, Note_on_c, 0, 64, 75
2, 14436, Note_on_c, 0, 64, 0
2, 14436, Note_on_c, 0, 62, 75
2, 14448, Note_on_c, 0, 62, 0
2, 14448, Note_on_c, 0, 65, 75
2, 14460, Note_on_c, 0, 65, 0
2, 14460, Note_on_c, 0, 64, 75
2, 14472, Note_on_c, 0, 64, 0
2, 14472, Note_on_c, 0, 67, 75
2, 14484, Note_on_c, 0, 67, 0
2, 14484, Note_on_c, 0, 65, 75
2, 14496, Note_on_c, 0, 65, 0
2, 14496, Note_on_c, 0, 60, 75
2, 14541, Note_on_c, 0, 60, 0
2, 14568, Note_on_c, 0, 60, 75
2, 14591, Note_on_c, 0, 60, 0
2, 14592, Note_on_c, 0, 65, 75
2, 14604, Note_on_c, 0, 65, 0
2, 14604, Note_on_c, 0, 64, 75
2, 14616, Note_on_c, 0, 64, 0
2, 14616, Note_on_c, 0, 67, 75
2, 14628, Note_on_c, 0, 67, 0
2, 14628, Note_on_c, 0, 65, 75
2, 14640, Note_on_c, 0, 65, 0
2, 14640, Note_on_c, 0, 69, 76
2, 14652, Note_on_c, 0, 69, 0
2, 14652, Note_on_c, 0, 65, 76
2, 14664, Note_on_c, 0, 65, 0
2, 14664, Note_on_c, 0, 60, 76
2, 14676, Note_on_c, 0, 60, 0
2, 14676, Note_on_c, 0, 69, 77
2, 14688, Note_on_c, 0, 69, 0
2, 14688, Note_on_c, 0, 65, 77
2, 14700, Note_on_c, 0, 65, 0
2, 14700, Note_on_c, 0, 62, 77
2, 14712, Note_on_c, 0, 62, 0
2, 14712, Note_on_c, 0, 89, 94
2, 14784, Note_on_c, 0, 89, 0
2, 14784, Note_on_c, 0, 65, 80
2, 14796, Note_on_c, 0, 65, 0
2, 14796, Note_on_c, 0, 67, 80
2, 14802, Note_on_c, 0, 67, 0
2, 14802, Note_on_c, 0, 69, 80
2, 14808, Note_on_c, 0, 69, 0
2, 14808, Note_on_c, 0, 67, 80
2, 14814, Note_on_c, 0, 67, 0
2, 14814, Note_on_c, 0, 69, 80
2, 14820, Note_on_c, 0, 69, 0
2, 14820, Note_on_c, 0, 67, 80
2, 14826, Note_on_c, 0, 67, 0
2, 14826, Note_on_c, 0, 69, 80
2, 14832, Note_on_c, 0, 69, 0
2, 14832, Note_on_c, 0, 67, 80
2, 14838, Note_on_c, 0, 67, 0
2, 14838, Note_on_c, 0, 69, 80
2, 14844, Note_on_c, 0, 69, 0
2, 14844, Note_on_c, 0, 67, 80
2, 14850, Note_on_c, 0, 67, 0
2, 14850, Note_on_c, 0, 69, 80
2, 14856, Note_on_c, 0, 69, 0
2, 14856, Note_on_c, 0, 67, 80
2, 14862, Note_on_c, 0, 67, 0
2, 14862, Note_on_c, 0, 69, 80
2, 14868, Note_on_c, 0, 69, 0
2, 14868, Note_on_c, 0, 67, 80
2, 14874, Note_on_c, 0, 67, 0
2, 14874, Note_on_c, 0, 69, 80
2, 14880, Note_on_c, 0, 69, 0
2, 14880, Note_on_c, 0, 67, 80
2, 14886, Note_on_c, 0, 67, 0
2, 14886, Note_on_c, 0, 69, 80
2, 14892, Note_on_c, 0, 69, 0
2, 14892, Note_on_c, 0, 67, 80
2, 14898, Note_on_c, 0, 67, 0
2, 14898, Note_on_c, 0, 69, 80
2, 14904, Note_on_c, 0, 69, 0
2, 14904, Note_on_c, 0, 67, 80
2, 14910, Note_on_c, 0, 67, 0
2, 14910, Note_on_c, 0, 69, 80
2, 14916, Note_on_c, 0, 69, 0
2, 14916, Note_on_c, 0, 67, 80
2, 14922, Note_on_c, 0, 67, 0
2, 14922, Note_on_c, 0, 69, 80
2, 14928, Note_on_c, 0, 69, 0
2, 14928, Note_on_c, 0, 67, 80
2, 14934, Note_on_c, 0, 67, 0
2, 14934, Note_on_c, 0, 69, 80
2, 14940, Note_on_c, 0, 69, 0
2, 14940, Note_on_c, 0, 67, 80
2, 14946, Note_on_c, 0, 67, 0
2, 14946, Note_on_c, 0, 69, 80
2, 14951, Note_on_c, 0, 69, 0
2, 14951, Note_on_c, 0, 67, 80
2, 14956, Note_on_c, 0, 67, 0
2, 14956, Note_on_c, 0, 69, 80
2, 14961, Note_on_c, 0, 69, 0
2, 14961, Note_on_c, 0, 67, 80
2, 14966, Note_on_c, 0, 67, 0
2, 14966, Note_on_c, 0, 72, 80
2, 14976, Note_on_c, 0, 72, 0
2, 14976, Note_on_c, 0, 65, 80
2, 15065, Note_on_c, 0, 65, 0
2, 15084, Note_on_c, 0, 81, 64
2, 15089, Note_on_c, 0, 81, 0
2, 15096, Note_on_c, 0, 79, 64
2, 15101, Note_on_c, 0, 79, 0
2, 15108, Note_on_c, 0, 77, 64
2, 15113, Note_on_c, 0, 77, 0
2, 15120, Note_on_c, 0, 76, 64
2, 15125, Note_on_c, 0, 76, 0
2, 15132, Note_on_c, 0, 74, 64
2, 15137, Note_on_c, 0, 74, 0
2, 15144, Note_on_c, 0, 72, 64
2, 15149, Note_on_c, 0, 72, 0
2, 15156, Note_on_c, 0, 70, 64
2, 15161, Note_on_c, 0, 70, 0
2, 15168, Note_on_c, 0, 69, 64
2, 15178, Note_on_c, 0, 69, 0
2, 15192, Note_on_c, 0, 67, 64
2, 15202, Note_on_c, 0, 67, 0
2, 15216, Note_on_c, 0, 69, 64
2, 15226, Note_on_c, 0, 69, 0
2, 15240, Note_on_c, 0, 70, 64
2, 15250, Note_on_c, 0, 70, 0
2, 15264, Note_on_c, 0, 71, 64
2, 15288, Note_on_c, 0, 71, 0
2, 15288, Note_on_c, 0, 72, 88
2, 15355, Note_on_c, 0, 72, 0
2, 15372, Note_on_c, 0, 82, 64
2, 15377, Note_on_c, 0, 82, 0
2, 15384, Note_on_c, 0, 81, 64
2, 15389, Note_on_c, 0, 81, 0
2, 15396, Note_on_c, 0, 79, 64
2, 15401, Note_on_c, 0, 79, 0
2, 15408, Note_on_c, 0, 77, 64
2, 15413, Note_on_c, 0, 77, 0
2, 15420, Note_on_c, 0, 76, 64
2, 15425, Note_on_c, 0, 76, 0
2, 15432, Note_on_c, 0, 74, 64
2, 15437, Note_on_c, 0, 74, 0
2, 15444, Note_on_c, 0, 72, 64
2, 15449, Note_on_c, 0, 72, 0
2, 15456, Note_on_c, 0, 71, 64
2, 15466, Note_on_c, 0, 71, 0
2, 15480, Note_on_c, 0, 72, 64
2, 15490, Note_on_c, 0, 72, 0
2, 15504, Note_on_c, 0, 74, 64
2, 15514, Note_on_c, 0, 74, 0
2, 15528, Note_on_c, 0, 70, 64
2, 15538, Note_on_c, 0, 70, 0
2, 15552, Note_on_c, 0, 68, 64
2, 15576, Note_on_c, 0, 68, 0
2, 15576, Note_on_c, 0, 69, 88
2, 15643, Note_on_c, 0, 69, 0
2, 15660, Note_on_c, 0, 72, 75
2, 15660, Note_on_c, 0, 60, 75
2, 15665, Note_on_c, 0, 72, 0
2, 15665, Note_on_c, 0, 60, 0
2, 15672, Note_on_c, 0, 74, 75
2, 15672, Note_on_c, 0, 62, 75
2, 15677, Note_on_c, 0, 74, 0
2, 15677, Note_on_c, 0, 62, 0
2, 15684, Note_on_c, 0, 76, 75
2, 15684, Note_on_c, 0, 64, 75
2, 15689, Note_on_c, 0, 76, 0
2, 15689, Note_on_c, 0, 64, 0
2, 15696, Note_on_c, 0, 77, 75
2, 15696, Note_on_c, 0, 65, 75
2, 15701, Note_on_c, 0, 77, 0
2, 15701, Note_on_c, 0, 65, 0
2, 15708, Note_on_c, 0, 79, 75
2, 15708, Note_on_c, 0, 67, 75
2, 15713, Note_on_c, 0, 79, 0
2, 15713, Note_on_c, 0, 67, 0
2, 15720, Note_on_c, 0, 81, 75
2, 15720, Note_on_c, 0, 69, 75
2, 15725, Note_on_c, 0, 81, 0
2, 15725, Note_on_c, 0, 69, 0
2, 15732, Note_on_c, 0, 82, 75
2, 15732, Note_on_c, 0, 70, 75
2, 15737, Note_on_c, 0, 82, 0
2, 15737, Note_on_c, 0, 70, 0
2, 15744, Note_on_c, 0, 84, 75
2, 15744, Note_on_c, 0, 72, 75
2, 15754, Note_on_c, 0, 84, 0
2, 15754, Note_on_c, 0, 72, 0
2, 15768, Note_on_c, 0, 86, 75
2, 15768, Note_on_c, 0, 74, 75
2, 15778, Note_on_c, 0, 86, 0
2, 15778, Note_on_c, 0, 74, 0
2, 15792, Note_on_c, 0, 88, 75
2, 15792, Note_on_c, 0, 76, 75
2, 15802, Note_on_c, 0, 88, 0
2, 15802, Note_on_c, 0, 76, 0
2, 15816, Note_on_c, 0, 89, 75
2, 15816, Note_on_c, 0, 77, 75
2, 15826, Note_on_c, 0, 89, 0
2, 15826, Note_on_c, 0, 77, 0
2, 15840, Note_on_c, 0, 89, 91
2, 15840, Note_on_c, 0, 77, 91
2, 15912, Note_on_c, 0, 89, 0
2, 15912, Note_on_c, 0, 77, 0
2, 15912, Note_on_c, 0, 88, 76
2, 15912, Note_on_c, 0, 76, 76
2, 15957, Note_on_c, 0, 88, 0
2, 15957, Note_on_c, 0, 76, 0
2, 15960, Note_on_c, 0, 86, 77
2, 15960, Note_on_c, 0, 74, 77
2, 16005, Note_on_c, 0, 86, 0
2, 16005, Note_on_c, 0, 74, 0
2, 16008, Note_on_c, 0, 84, 77
2, 16008, Note_on_c, 0, 72, 77
2, 16053, Note_on_c, 0, 84, 0
2, 16053, Note_on_c, 0, 72, 0
2, 16056, Note_on_c, 0, 82, 78
2, 16056, Note_on_c, 0, 70, 78
2, 16101, Note_on_c, 0, 82, 0
2, 16101, Note_on_c, 0, 70, 0
2, 16104, Note_on_c, 0, 81, 79
2, 16104, Note_on_c, 0, 69, 79
2, 16151, Note_on_c, 0, 81, 0
2, 16151, Note_on_c, 0, 69, 0
2, 16152, Note_on_c, 0, 79, 80
2, 16152, Note_on_c, 0, 67, 80
2, 16197, Note_on_c, 0, 79, 0
2, 16197, Note_on_c, 0, 67, 0
2, 16200, Note_on_c, 0, 78, 80
2, 16200, Note_on_c, 0, 66, 80
2, 16245, Note_on_c, 0, 78, 0
2, 16245, Note_on_c, 0, 66, 0
2, 16248, Note_on_c, 0, 79, 80
2, 16248, Note_on_c, 0, 67, 80
2, 16293, Note_on_c, 0, 79, 0
2, 16293, Note_on_c, 0, 67, 0
2, 16296, Note_on_c, 0, 77, 80
2, 16296, Note_on_c, 0, 65, 80
2, 16341, Note_on_c, 0, 77, 0
2, 16341, Note_on_c, 0, 65, 0
2, 16344, Note_on_c, 0, 76, 80
2, 16344, Note_on_c, 0, 64, 80
2, 16389, Note_on_c, 0, 76, 0
2, 16389, Note_on_c, 0, 64, 0
2, 16392, Note_on_c, 0, 82, 80
2, 16392, Note_on_c, 0, 70, 80
2, 16439, Note_on_c, 0, 82, 0
2, 16439, Note_on_c, 0, 70, 0
2, 16440, Note_on_c, 0, 81, 80
2, 16440, Note_on_c, 0, 69, 80
2, 16485, Note_on_c, 0, 81, 0
2, 16485, Note_on_c, 0, 69, 0
2, 16488, Note_on_c, 0, 85, 76
2, 16488, Note_on_c, 0, 73, 76
2, 16533, Note_on_c, 0, 85, 0
2, 16533, Note_on_c, 0, 73, 0
2, 16536, Note_on_c, 0, 86, 72
2, 16536, Note_on_c, 0, 74, 72
2, 16559, Note_on_c, 0, 86, 0
2, 16559, Note_on_c, 0, 74, 0
2, 16656, Note_on_c, 0, 89, 64
2, 16656, Note_on_c, 0, 80, 64
2, 16701, Note_on_c, 0, 89, 0
2, 16701, Note_on_c, 0, 80, 0
2, 16704, Note_on_c, 0, 60, 64
2, 16738, Note_on_c, 0, 60, 0
2, 16740, Note_on_c, 0, 65, 64
2, 16752, Note_on_c, 0, 65, 0
2, 16752, Note_on_c, 0, 69, 64
2, 16764, Note_on_c, 0, 69, 0
2, 16764, Note_on_c, 0, 72, 64
2, 16776, Note_on_c, 0, 72, 0
2, 16776, Note_on_c, 0, 77, 64
2, 16788, Note_on_c, 0, 77, 0
2, 16788, Note_on_c, 0, 81, 64
2, 16800, Note_on_c, 0, 81, 0
2, 16800, Note_on_c, 0, 84, 64
2, 16845, Note_on_c, 0, 84, 0
2, 16944, Note_on_c, 0, 64, 64
2, 16944, Note_on_c, 0, 58, 64
2, 16989, Note_on_c, 0, 64, 0
2, 16989, Note_on_c, 0, 58, 0
2, 16992, Note_on_c, 0, 67, 64
2, 16992, Note_on_c, 0, 58, 64
2, 17088, Note_on_c, 0, 67, 0
2, 17088, Note_on_c, 0, 58, 0
2, 17088, Note_on_c, 0, 65, 64
2, 17088, Note_on_c, 0, 57, 64
2, 17111, Note_on_c, 0, 65, 0
2, 17111, Note_on_c, 0, 57, 0
2, 17112, Note_on_c, 0, 60, 64
2, 17135, Note_on_c, 0, 60, 0
2, 17136, Note_on_c, 0, 69, 64
2, 17159, Note_on_c, 0, 69, 0
2, 17160, Note_on_c, 0, 65, 64
2, 17183, Note_on_c, 0, 65, 0
2, 17184, Note_on_c, 0, 72, 64
2, 17251, Note_on_c, 0, 72, 0
2, 17256, Note_on_c, 0, 64, 64
2, 17256, Note_on_c, 0, 58, 64
2, 17279, Note_on_c, 0, 64, 0
2, 17279, Note_on_c, 0, 58, 0
2, 17280, Note_on_c, 0, 67, 64
2, 17280, Note_on_c, 0, 58, 64
2, 17376, Note_on_c, 0, 67, 0
2, 17376, Note_on_c, 0, 58, 0
2, 17376, Note_on_c, 0, 65, 64
2, 17376, Note_on_c, 0, 57, 64
2, 17399, Note_on_c, 0, 65, 0
2, 17399, Note_on_c, 0, 57, 0
2, 17400, Note_on_c, 0, 60, 64
2, 17423, Note_on_c, 0, 60, 0
2, 17424, Note_on_c, 0, 69, 64
2, 17447, Note_on_c, 0, 69, 0
2, 17448, Note_on_c, 0, 65, 64
2, 17471, Note_on_c, 0, 65, 0
2, 17472, Note_on_c, 0, 74, 64
2, 17496, Note_on_c, 0, 74, 0
2, 17496, Note_on_c, 0, 72, 64
2, 17519, Note_on_c, 0, 72, 0
2, 17544, Note_on_c, 0, 64, 64
2, 17554, Note_on_c, 0, 64, 0
2, 17568, Note_on_c, 0, 67, 64
2, 17568, Note_on_c, 0, 58, 64
2, 17664, Note_on_c, 0, 67, 0
2, 17664, Note_on_c, 0, 58, 0
2, 17664, Note_on_c, 0, 65, 64
2, 17664, Note_on_c, 0, 57, 64
2, 17711, Note_on_c, 0, 65, 0
2, 17711, Note_on_c, 0, 57, 0
2, 17760, Note_on_c, 0, 60, 58
2, 17778, Note_on_c, 0, 60, 0
2, 17778, Note_on_c, 0, 69, 58
2, 17849, Note_on_c, 0, 69, 0
2, 17856, Note_on_c, 0, 45, 58
2, 17880, Note_on_c, 0, 45, 0
2, 17880, Note_on_c, 0, 53, 58
2, 18121, Note_on_c, 0, 53, 0
2, 18144, End_track
3, 0, Start_track
3, 0, Program_c, 0, 0
3, 0, Control_c, 0, 7, 127
3, 0, Control_c, 0, 10, 64
3, 2880, Note_on_c, 0, 72, 70
3, 2903, Note_on_c, 0, 72, 0
3, 2904, Note_on_c, 0, 71, 71
3, 2927, Note_on_c, 0, 71, 0
3, 2928, Note_on_c, 0, 72, 72
3, 2951, Note_on_c, 0, 72, 0
3, 2952, Note_on_c, 0, 74, 73
3, 2975, Note_on_c, 0, 74, 0
3, 6288, Note_on_c, 0, 65, 75
3, 6333, Note_on_c, 0, 65, 0
3, 6936, Note_on_c, 0, 72, 75
3, 6959, Note_on_c, 0, 72, 0
3, 6960, Note_on_c, 0, 74, 75
3, 6983, Note_on_c, 0, 74, 0
3, 6984, Note_on_c, 0, 75, 75
3, 7007, Note_on_c, 0, 75, 0
3, 7008, Note_on_c, 0, 74, 75
3, 7031, Note_on_c, 0, 74, 0
3, 7032, Note_on_c, 0, 72, 75
3, 7055, Note_on_c, 0, 72, 0
3, 7056, Note_on_c, 0, 70, 75
3, 7079, Note_on_c, 0, 70, 0
3, 7080, Note_on_c, 0, 69, 75
3, 7103, Note_on_c, 0, 69, 0
3, 7104, Note_on_c, 0, 67, 75
3, 7193, Note_on_c, 0, 67, 0
3, 7224, Note_on_c, 0, 67, 75
3, 7247, Note_on_c, 0, 67, 0
3, 7248, Note_on_c, 0, 69, 75
3, 7271, Note_on_c, 0, 69, 0
3, 7272, Note_on_c, 0, 70, 75
3, 7295, Note_on_c, 0, 70, 0
3, 7296, Note_on_c, 0, 69, 75
3, 7319, Note_on_c, 0, 69, 0
3, 7320, Note_on_c, 0, 67, 75
3, 7343, Note_on_c, 0, 67, 0
3, 7344, Note_on_c, 0, 69, 75
3, 7367, Note_on_c, 0, 69, 0
3, 7368, Note_on_c, 0, 70, 75
3, 7391, Note_on_c, 0, 70, 0
3, 7392, Note_on_c, 0, 69, 75
3, 7415, Note_on_c, 0, 69, 0
3, 7416, Note_on_c, 0, 67, 75
3, 7439, Note_on_c, 0, 67, 0
3, 7440, Note_on_c, 0, 69, 75
3, 7463, Note_on_c, 0, 69, 0
3, 7464, Note_on_c, 0, 70, 75
3, 7487, Note_on_c, 0, 70, 0
3, 7488, Note_on_c, 0, 69, 75
3, 7753, Note_on_c, 0, 69, 0
3, 7776, Note_on_c, 0, 65, 75
3, 7799, Note_on_c, 0, 65, 0
3, 7800, Note_on_c, 0, 64, 75
3, 7823, Note_on_c, 0, 64, 0
3, 7824, Note_on_c, 0, 65, 75
3, 7847, Note_on_c, 0, 65, 0
3, 7848, Note_on_c, 0, 67, 75
3, 7871, Note_on_c, 0, 67, 0
3, 7872, Note_on_c, 0, 65, 75
3, 7895, Note_on_c, 0, 65, 0
3, 7896, Note_on_c, 0, 64, 75
3, 7919, Note_on_c, 0, 64, 0
3, 7920, Note_on_c, 0, 65, 75
3, 7943, Note_on_c, 0, 65, 0
3, 7944, Note_on_c, 0, 67, 75
3, 7967, Note_on_c, 0, 67, 0
3, 7968, Note_on_c, 0, 65, 75
3, 7991, Note_on_c, 0, 65, 0
3, 7992, Note_on_c, 0, 69, 75
3, 8015, Note_on_c, 0, 69, 0
3, 8016, Note_on_c, 0, 67, 75
3, 8039, Note_on_c, 0, 67, 0
3, 8040, Note_on_c, 0, 65, 75
3, 8063, Note_on_c, 0, 65, 0
3, 12696, Note_on_c, 0, 73, 75
3, 12719, Note_on_c, 0, 73, 0
3, 12720, Note_on_c, 0, 72, 75
3, 12743, Note_on_c, 0, 72, 0
3, 12744, Note_on_c, 0, 71, 75
3, 12767, Note_on_c, 0, 71, 0
3, 12768, Note_on_c, 0, 72, 75
3, 12791, Note_on_c, 0, 72, 0
3, 12792, Note_on_c, 0, 70, 75
3, 12815, Note_on_c, 0, 70, 0
3, 12816, Note_on_c, 0, 68, 75
3, 12839, Note_on_c, 0, 68, 0
3, 12840, Note_on_c, 0, 67, 75
3, 12863, Note_on_c, 0, 67, 0
3, 18144, End_track
4, 0, Start_track
4, 0, Program_c, 1, 0
4, 0, Control_c, 1, 7, 127
4, 0, Control_c, 1, 10, 64
4, 0, Control_c, 1, 64, 127
4, 0, Note_on_c, 1, 41, 80
4, 6, Note_on_c, 1, 45, 80
4, 12, Note_on_c, 1, 48, 80
4, 18, Note_on_c, 1, 53, 80
4, 93, Note_on_c, 1, 53, 0
4, 93, Note_on_c, 1, 48, 0
4, 93, Note_on_c, 1, 45, 0
4, 93, Note_on_c, 1, 41, 0
4, 96, Control_c, 1, 64, 0
4, 96, Note_on_c, 1, 57, 75
4, 96, Note_on_c, 1, 53, 75
4, 190, Note_on_c, 1, 57, 0
4, 190, Note_on_c, 1, 53, 0
4, 192, Note_on_c, 1, 58, 80
4, 192, Note_on_c, 1, 53, 80
4, 286, Note_on_c, 1, 58, 0
4, 286, Note_on_c, 1, 53, 0
4, 288, Note_on_c, 1, 60, 76
4, 288, Note_on_c, 1, 57, 76
4, 288, Note_on_c, 1, 53, 76
4, 377, Note_on_c, 1, 60, 0
4, 377, Note_on_c, 1, 57, 0
4, 377, Note_on_c, 1, 53, 0
4, 480, Note_on_c, 1, 57, 70
4, 492, Note_on_c, 1, 57, 0
4, 492, Note_on_c, 1, 60, 70
4, 504, Note_on_c, 1, 60, 0
4, 504, Note_on_c, 1, 64, 71
4, 516, Note_on_c, 1, 64, 0
4, 516, Note_on_c, 1, 65, 72
4, 528, Note_on_c, 1, 65, 0
4, 576, Note_on_c, 1, 62, 76
4, 576, Note_on_c, 1, 58, 76
4, 621, Note_on_c, 1, 62, 0
4, 621, Note_on_c, 1, 58, 0
4, 672, Note_on_c, 1, 74, 64
4, 672, Note_on_c, 1, 70, 64
4, 719, Note_on_c, 1, 74, 0
4, 719, Note_on_c, 1, 70, 0
4, 864, Note_on_c, 1, 65, 80
4, 960, Note_on_c, 1, 65, 0
4, 960, Note_on_c, 1, 64, 80
4, 1049, Note_on_c, 1, 64, 0
4, 1152, Control_c, 1, 64, 127
4, 1152, Note_on_c, 1, 41, 80
4, 1158, Note_on_c, 1, 45, 80
4, 1164, Note_on_c, 1, 48, 80
4, 1170, Note_on_c, 1, 53, 80
4, 1245, Note_on_c, 1, 53, 0
4, 1245, Note_on_c, 1, 48, 0
4, 1245, Note_on_c, 1, 45, 0
4, 1245, Note_on_c, 1, 41, 0
4, 1248, Control_c, 1, 64, 0
4, 1248, Note_on_c, 1, 57, 75
4, 1248, Note_on_c, 1, 53, 75
4, 1342, Note_on_c, 1, 57, 0
4, 1342, Note_on_c, 1, 53, 0
4, 1344, Note_on_c, 1, 58, 80
4, 1344, Note_on_c, 1, 53, 80
4, 1438, Note_on_c, 1, 58, 0
4, 1438, Note_on_c, 1, 53, 0
4, 1440, Note_on_c, 1, 60, 75
4, 1440, Note_on_c, 1, 57, 75
4, 1440, Note_on_c, 1, 53, 75
4, 1529, Note_on_c, 1, 60, 0
4, 1529, Note_on_c, 1, 57, 0
4, 1529, Note_on_c, 1, 53, 0
4, 1536, Note_on_c, 1, 45, 94
4, 1536, Note_on_c, 1, 33, 94
4, 1728, Note_on_c, 1, 45, 0
4, 1728, Note_on_c, 1, 33, 0
4, 1728, Note_on_c, 1, 46, 70
4, 1728, Note_on_c, 1, 34, 70
4, 1817, Note_on_c, 1, 46, 0
4, 1817, Note_on_c, 1, 34, 0
4, 1920, Note_on_c, 1, 58, 70
4, 1920, Note_on_c, 1, 48, 70
4, 2009, Note_on_c, 1, 58, 0
4, 2009, Note_on_c, 1, 48, 0
4, 2016, Note_on_c, 1, 58, 70
4, 2112, Note_on_c, 1, 58, 0
4, 2112, Note_on_c, 1, 57, 66
4, 2157, Note_on_c, 1, 57, 0
4, 2328, Note_on_c, 1, 71, 64
4, 2351, Note_on_c, 1, 71, 0
4, 2352, Note_on_c, 1, 72, 64
4, 2375, Note_on_c, 1, 72, 0
4, 2376, Note_on_c, 1, 74, 64
4, 2399, Note_on_c, 1, 74, 0
4, 2400, Note_on_c, 1, 72, 64
4, 2615, Note_on_c, 1, 72, 0
4, 2616, Note_on_c, 1, 71, 64
4, 2639, Note_on_c, 1, 71, 0
4, 2640, Note_on_c, 1, 72, 88
4, 2663, Note_on_c, 1, 72, 0
4, 2664, Note_on_c, 1, 74, 64
4, 2687, Note_on_c, 1, 74, 0
4, 2688, Note_on_c, 1, 72, 64
4, 2865, Note_on_c, 1, 72, 0
4, 2880, Note_on_c, 1, 69, 64
4, 2903, Note_on_c, 1, 69, 0
4, 2904, Note_on_c, 1, 68, 65
4, 2927, Note_on_c, 1, 68, 0
4, 2928, Note_on_c, 1, 69, 67
4, 2951, Note_on_c, 1, 69, 0
4, 2952, Note_on_c, 1, 71, 68
4, 2975, Note_on_c, 1, 71, 0
4, 3072, Note_on_c, 1, 59, 75
4, 3095, Note_on_c, 1, 59, 0
4, 3096, Note_on_c, 1, 55, 75
4, 3119, Note_on_c, 1, 55, 0
4, 3120, Note_on_c, 1, 60, 76
4, 3143, Note_on_c, 1, 60, 0
4, 3144, Note_on_c, 1, 54, 76
4, 3167, Note_on_c, 1, 54, 0
4, 3168, Note_on_c, 1, 55, 77
4, 3257, Note_on_c, 1, 55, 0
4, 3288, Note_on_c, 1, 42, 80
4, 3311, Note_on_c, 1, 42, 0
4, 3312, Note_on_c, 1, 43, 80
4, 3335, Note_on_c, 1, 43, 0
4, 3336, Note_on_c, 1, 45, 80
4, 3359, Note_on_c, 1, 45, 0
4, 3360, Note_on_c, 1, 43, 80
4, 3405, Note_on_c, 1, 43, 0
4, 3480, Note_on_c, 1, 43, 80
4, 3503, Note_on_c, 1, 43, 0
4, 3504, Note_on_c, 1, 38, 80
4, 3527, Note_on_c, 1, 38, 0
4, 3528, Note_on_c, 1, 35, 80
4, 3551, Note_on_c, 1, 35, 0
4, 3552, Note_on_c, 1, 31, 80
4, 3597, Note_on_c, 1, 31, 0
4, 3696, Note_on_c, 1, 59, 64
4, 3696, Note_on_c, 1, 53, 64
4, 3743, Note_on_c, 1, 59, 0
4, 3743, Note_on_c, 1, 53, 0
4, 3744, Note_on_c, 1, 60, 64
4, 3744, Note_on_c, 1, 52, 64
4, 3833, Note_on_c, 1, 60, 0
4, 3833, Note_on_c, 1, 52, 0
4, 3912, Note_on_c, 1, 55, 88
4, 3935, Note_on_c, 1, 55, 0
4, 3936, Note_on_c, 1, 54, 80
4, 3948, Note_on_c, 1, 54, 0
4, 3948, Note_on_c, 1, 55, 79
4, 3960, Note_on_c, 1, 55, 0
4, 3960, Note_on_c, 1, 57, 78
4, 3972, Note_on_c, 1, 57, 0
4, 3972, Note_on_c, 1, 55, 78
4, 3984, Note_on_c, 1, 55, 0
4, 3984, Note_on_c, 1, 53, 77
4, 3996, Note_on_c, 1, 53, 0
4, 3996, Note_on_c, 1, 52, 76
4, 4008, Note_on_c, 1, 52, 0
4, 4008, Note_on_c, 1, 50, 76
4, 4020, Note_on_c, 1, 50, 0
4, 4020, Note_on_c, 1, 48, 75
4, 4032, Note_on_c, 1, 48, 0
4, 4032, Note_on_c, 1, 47, 75
4, 4077, Note_on_c, 1, 47, 0
4, 4092, Note_on_c, 1, 55, 75
4, 4104, Note_on_c, 1, 55, 0
4, 4104, Note_on_c, 1, 59, 75
4, 4116, Note_on_c, 1, 59, 0
4, 4116, Note_on_c, 1, 62, 75
4, 4128, Note_on_c, 1, 62, 0
4, 4128, Note_on_c, 1, 65, 75
4, 4217, Note_on_c, 1, 65, 0
4, 4272, Note_on_c, 1, 71, 75
4, 4272, Note_on_c, 1, 65, 75
4, 4319, Note_on_c, 1, 71, 0
4, 4319, Note_on_c, 1, 65, 0
4, 4320, Note_on_c, 1, 72, 75
4, 4320, Note_on_c, 1, 64, 75
4, 4409, Note_on_c, 1, 72, 0
4, 4409, Note_on_c, 1, 64, 0
4, 4512, Note_on_c, 1, 60, 75
4, 4512, Note_on_c, 1, 55, 75
4, 4512, Note_on_c, 1, 52, 75
4, 4601, Note_on_c, 1, 60, 0
4, 4601, Note_on_c, 1, 55, 0
4, 4601, Note_on_c, 1, 52, 0
4, 4608, Note_on_c, 1, 60, 77
4, 4608, Note_on_c, 1, 57, 77
4, 4608, Note_on_c, 1, 53, 77
4, 4697, Note_on_c, 1, 60, 0
4, 4697, Note_on_c, 1, 57, 0
4, 4697, Note_on_c, 1, 53, 0
4, 4704, Note_on_c, 1, 55, 80
4, 4881, Note_on_c, 1, 55, 0
4, 4896, Note_on_c, 1, 64, 64
4, 4919, Note_on_c, 1, 64, 0
4, 4920, Note_on_c, 1, 67, 64
4, 4943, Note_on_c, 1, 67, 0
4, 4944, Note_on_c, 1, 64, 64
4, 4967, Note_on_c, 1, 64, 0
4, 4968, Note_on_c, 1, 67, 64
4, 4991, Note_on_c, 1, 67, 0
4, 4992, Note_on_c, 1, 64, 64
4, 5015, Note_on_c, 1, 64, 0
4, 5016, Note_on_c, 1, 67, 64
4, 5039, Note_on_c, 1, 67, 0
4, 5040, Note_on_c, 1, 64, 64
4, 5063, Note_on_c, 1, 64, 0
4, 5064, Note_on_c, 1, 67, 64
4, 5087, Note_on_c, 1, 67, 0
4, 5088, Note_on_c, 1, 64, 64
4, 5111, Note_on_c, 1, 64, 0
4, 5112, Note_on_c, 1, 67, 64
4, 5135, Note_on_c, 1, 67, 0
4, 5136, Note_on_c, 1, 64, 64
4, 5159, Note_on_c, 1, 64, 0
4, 5160, Note_on_c, 1, 67, 64
4, 5183, Note_on_c, 1, 67, 0
4, 5184, Note_on_c, 1, 65, 64
4, 5207, Note_on_c, 1, 65, 0
4, 5208, Note_on_c, 1, 67, 64
4, 5231, Note_on_c, 1, 67, 0
4, 5232, Note_on_c, 1, 65, 64
4, 5255, Note_on_c, 1, 65, 0
4, 5256, Note_on_c, 1, 67, 64
4, 5279, Note_on_c, 1, 67, 0
4, 5280, Note_on_c, 1, 65, 64
4, 5303, Note_on_c, 1, 65, 0
4, 5304, Note_on_c, 1, 67, 64
4, 5327, Note_on_c, 1, 67, 0
4, 5328, Note_on_c, 1, 65, 64
4, 5351, Note_on_c, 1, 65, 0
4, 5352, Note_on_c, 1, 67, 64
4, 5375, Note_on_c, 1, 67, 0
4, 5376, Note_on_c, 1, 65, 64
4, 5399, Note_on_c, 1, 65, 0
4, 5400, Note_on_c, 1, 67, 64
4, 5423, Note_on_c, 1, 67, 0
4, 5424, Note_on_c, 1, 65, 64
4, 5447, Note_on_c, 1, 65, 0
4, 5448, Note_on_c, 1, 67, 64
4, 5471, Note_on_c, 1, 67, 0
4, 5472, Note_on_c, 1, 64, 64
4, 5495, Note_on_c, 1, 64, 0
4, 5496, Note_on_c, 1, 67, 64
4, 5519, Note_on_c, 1, 67, 0
4, 5520, Note_on_c, 1, 64, 64
4, 5543, Note_on_c, 1, 64, 0
4, 5544, Note_on_c, 1, 67, 64
4, 5567, Note_on_c, 1, 67, 0
4, 5568, Note_on_c, 1, 52, 70
4, 5591, Note_on_c, 1, 52, 0
4, 5592, Note_on_c, 1, 55, 70
4, 5615, Note_on_c, 1, 55, 0
4, 5616, Note_on_c, 1, 52, 70
4, 5639, Note_on_c, 1, 52, 0
4, 5640, Note_on_c, 1, 55, 70
4, 5663, Note_on_c, 1, 55, 0
4, 5664, Note_on_c, 1, 52, 70
4, 5687, Note_on_c, 1, 52, 0
4, 5688, Note_on_c, 1, 55, 70
4, 5711, Note_on_c, 1, 55, 0
4, 5712, Note_on_c, 1, 52, 70
4, 5735, Note_on_c, 1, 52, 0
4, 5736, Note_on_c, 1, 55, 70
4, 5759, Note_on_c, 1, 55, 0
4, 5760, Note_on_c, 1, 53, 70
4, 5783, Note_on_c, 1, 53, 0
4, 5784, Note_on_c, 1, 55, 70
4, 5807, Note_on_c, 1, 55, 0
4, 5808, Note_on_c, 1, 53, 70
4, 5831, Note_on_c, 1, 53, 0
4, 5832, Note_on_c, 1, 55, 70
4, 5855, Note_on_c, 1, 55, 0
4, 5856, Note_on_c, 1, 53, 70
4, 5879, Note_on_c, 1, 53, 0
4, 5880, Note_on_c, 1, 55, 70
4, 5903, Note_on_c, 1, 55, 0
4, 5904, Note_on_c, 1, 53, 70
4, 5927, Note_on_c, 1, 53, 0
4, 5928, Note_on_c, 1, 55, 70
4, 5951, Note_on_c, 1, 55, 0
4, 5952, Note_on_c, 1, 53, 70
4, 5975, Note_on_c, 1, 53, 0
4, 5976, Note_on_c, 1, 55, 70
4, 5999, Note_on_c, 1, 55, 0
4, 6000, Note_on_c, 1, 53, 70
4, 6023, Note_on_c, 1, 53, 0
4, 6024, Note_on_c, 1, 55, 70
4, 6047, Note_on_c, 1, 55, 0
4, 6048, Note_on_c, 1, 52, 70
4, 6048, Note_on_c, 1, 48, 70
4, 6137, Note_on_c, 1, 52, 0
4, 6137, Note_on_c, 1, 48, 0
4, 6240, Note_on_c, 1, 43, 80
4, 6285, Note_on_c, 1, 43, 0
4, 6336, Note_on_c, 1, 48, 78
4, 6425, Note_on_c, 1, 48, 0
4, 6624, Note_on_c, 1, 39, 75
4, 6801, Note_on_c, 1, 39, 0
4, 6816, Note_on_c, 1, 51, 75
4, 6905, Note_on_c, 1, 51, 0
4, 6912, Note_on_c, 1, 50, 75
4, 7177, Note_on_c, 1, 50, 0
4, 7200, Note_on_c, 1, 52, 75
4, 7465, Note_on_c, 1, 52, 0
4, 7488, Note_on_c, 1, 53, 75
4, 7665, Note_on_c, 1, 53, 0
4, 7680, Note_on_c, 1, 54, 75
4, 7769, Note_on_c, 1, 54, 0
4, 7776, Note_on_c, 1, 62, 75
4, 7799, Note_on_c, 1, 62, 0
4, 7800, Note_on_c, 1, 61, 75
4, 7823, Note_on_c, 1, 61, 0
4, 7824, Note_on_c, 1, 62, 75
4, 7847, Note_on_c, 1, 62, 0
4, 7848, Note_on_c, 1, 64, 75
4, 7871, Note_on_c, 1, 64, 0
4, 7872, Note_on_c, 1, 62, 75
4, 7895, Note_on_c, 1, 62, 0
4, 7896, Note_on_c, 1, 61, 75
4, 7919, Note_on_c, 1, 61, 0
4, 7920, Note_on_c, 1, 62, 75
4, 7943, Note_on_c, 1, 62, 0
4, 7944, Note_on_c, 1, 64, 75
4, 7967, Note_on_c, 1, 64, 0
4, 7968, Note_on_c, 1, 62, 75
4, 7991, Note_on_c, 1, 62, 0
4, 7992, Note_on_c, 1, 65, 75
4, 8015, Note_on_c, 1, 65, 0
4, 8016, Note_on_c, 1, 64, 75
4, 8039, Note_on_c, 1, 64, 0
4, 8040, Note_on_c, 1, 62, 75
4, 8063, Note_on_c, 1, 62, 0
4, 8064, Note_on_c, 1, 64, 75
4, 8064, Note_on_c, 1, 60, 75
4, 8153, Note_on_c, 1, 64, 0
4, 8153, Note_on_c, 1, 60, 0
4, 8160, Note_on_c, 1, 65, 99
4, 8160, Note_on_c, 1, 61, 99
4, 8337, Note_on_c, 1, 65, 0
4, 8337, Note_on_c, 1, 61, 0
4, 8352, Note_on_c, 1, 65, 75
4, 8352, Note_on_c, 1, 62, 75
4, 8441, Note_on_c, 1, 65, 0
4, 8441, Note_on_c, 1, 62, 0
4, 8448, Note_on_c, 1, 66, 99
4, 8448, Note_on_c, 1, 63, 99
4, 8625, Note_on_c, 1, 66, 0
4, 8625, Note_on_c, 1, 63, 0
4, 8640, Note_on_c, 1, 67, 75
4, 8640, Note_on_c, 1, 64, 75
4, 8905, Note_on_c, 1, 67, 0
4, 8905, Note_on_c, 1, 64, 0
4, 9072, Note_on_c, 1, 52, 75
4, 9084, Note_on_c, 1, 52, 0
4, 9084, Note_on_c, 1, 48, 75
4, 9096, Note_on_c, 1, 48, 0
4, 9096, Note_on_c, 1, 52, 75
4, 9108, Note_on_c, 1, 52, 0
4, 9108, Note_on_c, 1, 55, 75
4, 9120, Note_on_c, 1, 55, 0
4, 9120, Note_on_c, 1, 58, 75
4, 9132, Note_on_c, 1, 58, 0
4, 9312, Note_on_c, 1, 60, 64
4, 9312, Note_on_c, 1, 58, 64
4, 9312, Note_on_c, 1, 55, 64
4, 9499, Note_on_c, 1, 60, 0
4, 9499, Note_on_c, 1, 58, 0
4, 9499, Note_on_c, 1, 55, 0
4, 9504, Control_c, 1, 64, 127
4, 9504, Note_on_c, 1, 41, 80
4, 9510, Note_on_c, 1, 45, 80
4, 9516, Note_on_c, 1, 48, 80
4, 9522, Note_on_c, 1, 53, 80
4, 9597, Note_on_c, 1, 53, 0
4, 9597, Note_on_c, 1, 48, 0
4, 9597, Note_on_c, 1, 45, 0
4, 9597, Note_on_c, 1, 41, 0
4, 9600, Control_c, 1, 64, 0
4, 9600, Note_on_c, 1, 57, 75
4, 9600, Note_on_c, 1, 53, 75
4, 9694, Note_on_c, 1, 57, 0
4, 9694, Note_on_c, 1, 53, 0
4, 9696, Note_on_c, 1, 58, 80
4, 9696, Note_on_c, 1, 53, 80
4, 9790, Note_on_c, 1, 58, 0
4, 9790, Note_on_c, 1, 53, 0
4, 9792, Note_on_c, 1, 60, 76
4, 9792, Note_on_c, 1, 57, 76
4, 9792, Note_on_c, 1, 53, 76
4, 9881, Note_on_c, 1, 60, 0
4, 9881, Note_on_c, 1, 57, 0
4, 9881, Note_on_c, 1, 53, 0
4, 10080, Note_on_c, 1, 62, 75
4, 10080, Note_on_c, 1, 58, 75
4, 10127, Note_on_c, 1, 62, 0
4, 10127, Note_on_c, 1, 58, 0
4, 10176, Note_on_c, 1, 74, 70
4, 10176, Note_on_c, 1, 70, 70
4, 10223, Note_on_c, 1, 74, 0
4, 10223, Note_on_c, 1, 70, 0
4, 10368, Note_on_c, 1, 69, 75
4, 10368, Note_on_c, 1, 65, 75
4, 10464, Note_on_c, 1, 69, 0
4, 10464, Note_on_c, 1, 65, 0
4, 10464, Note_on_c, 1, 67, 75
4, 10464, Note_on_c, 1, 64, 75
4, 10509, Note_on_c, 1, 67, 0
4, 10509, Note_on_c, 1, 64, 0
4, 10656, Control_c, 1, 64, 127
4, 10656, Note_on_c, 1, 41, 80
4, 10656, Note_on_c, 1, 29, 80
4, 10745, Note_on_c, 1, 41, 0
4, 10745, Note_on_c, 1, 29, 0
4, 10752, Control_c, 1, 64, 0
4, 10752, Note_on_c, 1, 57, 80
4, 10752, Note_on_c, 1, 53, 80
4, 10846, Note_on_c, 1, 57, 0
4, 10846, Note_on_c, 1, 53, 0
4, 10848, Note_on_c, 1, 58, 80
4, 10848, Note_on_c, 1, 53, 80
4, 10942, Note_on_c, 1, 58, 0
4, 10942, Note_on_c, 1, 53, 0
4, 10944, Note_on_c, 1, 60, 75
4, 10944, Note_on_c, 1, 57, 75
4, 10944, Note_on_c, 1, 53, 75
4, 11033, Note_on_c, 1, 60, 0
4, 11033, Note_on_c, 1, 57, 0
4, 11033, Note_on_c, 1, 53, 0
4, 11040, Note_on_c, 1, 45, 94
4, 11040, Note_on_c, 1, 33, 94
4, 11232, Note_on_c, 1, 45, 0
4, 11232, Note_on_c, 1, 33, 0
4, 11232, Note_on_c, 1, 46, 70
4, 11232, Note_on_c, 1, 34, 70
4, 11321, Note_on_c, 1, 46, 0
4, 11321, Note_on_c, 1, 34, 0
4, 11424, Note_on_c, 1, 58, 70
4, 11424, Note_on_c, 1, 48, 70
4, 11513, Note_on_c, 1, 58, 0
4, 11513, Note_on_c, 1, 48, 0
4, 11520, Note_on_c, 1, 58, 70
4, 11616, Note_on_c, 1, 58, 0
4, 11616, Note_on_c, 1, 57, 66
4, 11661, Note_on_c, 1, 57, 0
4, 11832, Note_on_c, 1, 41, 64
4, 11855, Note_on_c, 1, 41, 0
4, 11856, Note_on_c, 1, 43, 64
4, 11879, Note_on_c, 1, 43, 0
4, 11880, Note_on_c, 1, 44, 64
4, 11903, Note_on_c, 1, 44, 0
4, 11904, Note_on_c, 1, 46, 64
4, 11927, Note_on_c, 1, 46, 0
4, 11928, Note_on_c, 1, 48, 64
4, 11951, Note_on_c, 1, 48, 0
4, 11952, Note_on_c, 1, 49, 64
4, 11975, Note_on_c, 1, 49, 0
4, 11976, Note_on_c, 1, 47, 64
4, 11999, Note_on_c, 1, 47, 0
4, 12000, Note_on_c, 1, 48, 64
4, 12023, Note_on_c, 1, 48, 0
4, 12024, Note_on_c, 1, 61, 64
4, 12047, Note_on_c, 1, 61, 0
4, 12048, Note_on_c, 1, 60, 64
4, 12071, Note_on_c, 1, 60, 0
4, 12072, Note_on_c, 1, 58, 64
4, 12095, Note_on_c, 1, 58, 0
4, 12120, Note_on_c, 1, 41, 70
4, 12143, Note_on_c, 1, 41, 0
4, 12144, Note_on_c, 1, 43, 70
4, 12167, Note_on_c, 1, 43, 0
4, 12168, Note_on_c, 1, 44, 70
4, 12191, Note_on_c, 1, 44, 0
4, 12192, Note_on_c, 1, 46, 70
4, 12215, Note_on_c, 1, 46, 0
4, 12216, Note_on_c, 1, 48, 70
4, 12239, Note_on_c, 1, 48, 0
4, 12240, Note_on_c, 1, 49, 70
4, 12263, Note_on_c, 1, 49, 0
4, 12264, Note_on_c, 1, 47, 70
4, 12287, Note_on_c, 1, 47, 0
4, 12288, Note_on_c, 1, 48, 70
4, 12311, Note_on_c, 1, 48, 0
4, 12312, Note_on_c, 1, 61, 71
4, 12335, Note_on_c, 1, 61, 0
4, 12336, Note_on_c, 1, 60, 72
4, 12359, Note_on_c, 1, 60, 0
4, 12360, Note_on_c, 1, 58, 73
4, 12383, Note_on_c, 1, 58, 0
4, 12384, Note_on_c, 1, 60, 75
4, 12384, Note_on_c, 1, 56, 75
4, 12473, Note_on_c, 1, 60, 0
4, 12473, Note_on_c, 1, 56, 0
4, 12480, Note_on_c, 1, 61, 75
4, 12480, Note_on_c, 1, 58, 75
4, 12613, Note_on_c, 1, 61, 0
4, 12613, Note_on_c, 1, 58, 0
4, 12624, Note_on_c, 1, 62, 75
4, 12624, Note_on_c, 1, 59, 75
4, 12669, Note_on_c, 1, 62, 0
4, 12669, Note_on_c, 1, 59, 0
4, 12672, Note_on_c, 1, 60, 75
4, 12983, Note_on_c, 1, 60, 0
4, 12984, Note_on_c, 1, 61, 75
4, 13007, Note_on_c, 1, 61, 0
4, 13008, Note_on_c, 1, 60, 75
4, 13031, Note_on_c, 1, 60, 0
4, 13032, Note_on_c, 1, 59, 75
4, 13055, Note_on_c, 1, 59, 0
4, 13056, Note_on_c, 1, 60, 75
4, 13079, Note_on_c, 1, 60, 0
4, 13080, Note_on_c, 1, 61, 73
4, 13103, Note_on_c, 1, 61, 0
4, 13104, Note_on_c, 1, 60, 71
4, 13127, Note_on_c, 1, 60, 0
4, 13128, Note_on_c, 1, 59, 69
4, 13151, Note_on_c, 1, 59, 0
4, 13152, Note_on_c, 1, 60, 67
4, 13175, Note_on_c, 1, 60, 0
4, 13176, Note_on_c, 1, 61, 65
4, 13199, Note_on_c, 1, 61, 0
4, 13200, Note_on_c, 1, 60, 64
4, 13223, Note_on_c, 1, 60, 0
4, 13224, Note_on_c, 1, 59, 64
4, 13247, Note_on_c, 1, 59, 0
4, 13248, Note_on_c, 1, 60, 64
4, 13271, Note_on_c, 1, 60, 0
4, 13272, Note_on_c, 1, 61, 64
4, 13295, Note_on_c, 1, 61, 0
4, 13296, Note_on_c, 1, 60, 64
4, 13319, Note_on_c, 1, 60, 0
4, 13320, Note_on_c, 1, 59, 64
4, 13343, Note_on_c, 1, 59, 0
4, 13344, Note_on_c, 1, 60, 64
4, 13367, Note_on_c, 1, 60, 0
4, 13368, Note_on_c, 1, 61, 64
4, 13391, Note_on_c, 1, 61, 0
4, 13392, Note_on_c, 1, 60, 64
4, 13415, Note_on_c, 1, 60, 0
4, 13416, Note_on_c, 1, 59, 64
4, 13439, Note_on_c, 1, 59, 0
4, 13440, Note_on_c, 1, 60, 64
4, 13463, Note_on_c, 1, 60, 0
4, 13560, Note_on_c, 1, 48, 80
4, 13583, Note_on_c, 1, 48, 0
4, 13584, Note_on_c, 1, 43, 80
4, 13607, Note_on_c, 1, 43, 0
4, 13608, Note_on_c, 1, 40, 80
4, 13631, Note_on_c, 1, 40, 0
4, 13632, Note_on_c, 1, 36, 80
4, 13677, Note_on_c, 1, 36, 0
4, 13776, Note_on_c, 1, 64, 80
4, 13776, Note_on_c, 1, 58, 80
4, 13821, Note_on_c, 1, 64, 0
4, 13821, Note_on_c, 1, 58, 0
4, 13824, Note_on_c, 1, 65, 80
4, 13824, Note_on_c, 1, 57, 80
4, 13913, Note_on_c, 1, 65, 0
4, 13913, Note_on_c, 1, 57, 0
4, 13992, Note_on_c, 1, 60, 104
4, 14015, Note_on_c, 1, 60, 0
4, 14016, Note_on_c, 1, 59, 80
4, 14028, Note_on_c, 1, 59, 0
4, 14028, Note_on_c, 1, 60, 79
4, 14040, Note_on_c, 1, 60, 0
4, 14040, Note_on_c, 1, 62, 78
4, 14052, Note_on_c, 1, 62, 0
4, 14052, Note_on_c, 1, 60, 78
4, 14064, Note_on_c, 1, 60, 0
4, 14064, Note_on_c, 1, 58, 77
4, 14076, Note_on_c, 1, 58, 0
4, 14076, Note_on_c, 1, 57, 77
4, 14088, Note_on_c, 1, 57, 0
4, 14088, Note_on_c, 1, 55, 76
4, 14100, Note_on_c, 1, 55, 0
4, 14100, Note_on_c, 1, 53, 76
4, 14112, Note_on_c, 1, 53, 0
4, 14112, Note_on_c, 1, 52, 75
4, 14124, Note_on_c, 1, 52, 0
4, 14172, Note_on_c, 1, 72, 75
4, 14184, Note_on_c, 1, 72, 0
4, 14184, Note_on_c, 1, 70, 75
4, 14196, Note_on_c, 1, 70, 0
4, 14196, Note_on_c, 1, 67, 75
4, 14208, Note_on_c, 1, 67, 0
4, 14208, Note_on_c, 1, 64, 75
4, 14220, Note_on_c, 1, 64, 0
4, 14268, Note_on_c, 1, 48, 75
4, 14280, Note_on_c, 1, 48, 0
4, 14280, Note_on_c, 1, 46, 75
4, 14292, Note_on_c, 1, 46, 0
4, 14292, Note_on_c, 1, 43, 75
4, 14304, Note_on_c, 1, 43, 0
4, 14304, Note_on_c, 1, 40, 75
4, 14316, Note_on_c, 1, 40, 0
4, 14316, Note_on_c, 1, 43, 75
4, 14328, Note_on_c, 1, 43, 0
4, 14328, Note_on_c, 1, 40, 75
4, 14340, Note_on_c, 1, 40, 0
4, 14340, Note_on_c, 1, 36, 75
4, 14352, Note_on_c, 1, 36, 0
4, 14352, Note_on_c, 1, 34, 75
4, 14397, Note_on_c, 1, 34, 0
4, 14400, Note_on_c, 1, 33, 75
4, 14541, Note_on_c, 1, 33, 0
4, 14592, Note_on_c, 1, 53, 75
4, 14592, Note_on_c, 1, 48, 75
4, 14592, Note_on_c, 1, 45, 75
4, 14681, Note_on_c, 1, 53, 0
4, 14681, Note_on_c, 1, 48, 0
4, 14681, Note_on_c, 1, 45, 0
4, 14688, Note_on_c, 1, 53, 75
4, 14688, Note_on_c, 1, 50, 75
4, 14688, Note_on_c, 1, 46, 75
4, 14777, Note_on_c, 1, 53, 0
4, 14777, Note_on_c, 1, 50, 0
4, 14777, Note_on_c, 1, 46, 0
4, 14784, Note_on_c, 1, 48, 75
4, 14961, Note_on_c, 1, 48, 0
4, 14976, Note_on_c, 1, 57, 64
4, 14999, Note_on_c, 1, 57, 0
4, 15000, Note_on_c, 1, 60, 64
4, 15023, Note_on_c, 1, 60, 0
4, 15024, Note_on_c, 1, 57, 64
4, 15047, Note_on_c, 1, 57, 0
4, 15048, Note_on_c, 1, 60, 64
4, 15071, Note_on_c, 1, 60, 0
4, 15072, Note_on_c, 1, 57, 64
4, 15095, Note_on_c, 1, 57, 0
4, 15096, Note_on_c, 1, 60, 64
4, 15119, Note_on_c, 1, 60, 0
4, 15120, Note_on_c, 1, 57, 64
4, 15143, Note_on_c, 1, 57, 0
4, 15144, Note_on_c, 1, 60, 64
4, 15167, Note_on_c, 1, 60, 0
4, 15168, Note_on_c, 1, 57, 64
4, 15191, Note_on_c, 1, 57, 0
4, 15192, Note_on_c, 1, 60, 64
4, 15215, Note_on_c, 1, 60, 0
4, 15216, Note_on_c, 1, 57, 64
4, 15239, Note_on_c, 1, 57, 0
4, 15240, Note_on_c, 1, 60, 64
4, 15263, Note_on_c, 1, 60, 0
4, 15264, Note_on_c, 1, 58, 64
4, 15287, Note_on_c, 1, 58, 0
4, 15288, Note_on_c, 1, 60, 64
4, 15311, Note_on_c, 1, 60, 0
4, 15312, Note_on_c, 1, 58, 64
4, 15335, Note_on_c, 1, 58, 0
4, 15336, Note_on_c, 1, 60, 64
4, 15359, Note_on_c, 1, 60, 0
4, 15360, Note_on_c, 1, 58, 64
4, 15383, Note_on_c, 1, 58, 0
4, 15384, Note_on_c, 1, 60, 64
4, 15407, Note_on_c, 1, 60, 0
4, 15408, Note_on_c, 1, 58, 64
4, 15431, Note_on_c, 1, 58, 0
4, 15432, Note_on_c, 1, 60, 64
4, 15455, Note_on_c, 1, 60, 0
4, 15456, Note_on_c, 1, 58, 64
4, 15479, Note_on_c, 1, 58, 0
4, 15480, Note_on_c, 1, 60, 64
4, 15503, Note_on_c, 1, 60, 0
4, 15504, Note_on_c, 1, 58, 64
4, 15527, Note_on_c, 1, 58, 0
4, 15528, Note_on_c, 1, 60, 64
4, 15551, Note_on_c, 1, 60, 0
4, 15552, Note_on_c, 1, 57, 64
4, 15575, Note_on_c, 1, 57, 0
4, 15576, Note_on_c, 1, 60, 64
4, 15599, Note_on_c, 1, 60, 0
4, 15600, Note_on_c, 1, 57, 64
4, 15623, Note_on_c, 1, 57, 0
4, 15624, Note_on_c, 1, 60, 64
4, 15647, Note_on_c, 1, 60, 0
4, 15648, Note_on_c, 1, 45, 70
4, 15671, Note_on_c, 1, 45, 0
4, 15672, Note_on_c, 1, 48, 70
4, 15695, Note_on_c, 1, 48, 0
4, 15696, Note_on_c, 1, 45, 70
4, 15719, Note_on_c, 1, 45, 0
4, 15720, Note_on_c, 1, 48, 70
4, 15743, Note_on_c, 1, 48, 0
4, 15744, Note_on_c, 1, 45, 70
4, 15767, Note_on_c, 1, 45, 0
4, 15768, Note_on_c, 1, 48, 70
4, 15791, Note_on_c, 1, 48, 0
4, 15792, Note_on_c, 1, 45, 70
4, 15815, Note_on_c, 1, 45, 0
4, 15816, Note_on_c, 1, 48, 70
4, 15839, Note_on_c, 1, 48, 0
4, 15840, Note_on_c, 1, 46, 70
4, 15863, Note_on_c, 1, 46, 0
4, 15864, Note_on_c, 1, 48, 70
4, 15887, Note_on_c, 1, 48, 0
4, 15888, Note_on_c, 1, 46, 71
4, 15911, Note_on_c, 1, 46, 0
4, 15912, Note_on_c, 1, 48, 72
4, 15935, Note_on_c, 1, 48, 0
4, 15936, Note_on_c, 1, 46, 73
4, 15959, Note_on_c, 1, 46, 0
4, 15960, Note_on_c, 1, 52, 74
4, 15983, Note_on_c, 1, 52, 0
4, 15984, Note_on_c, 1, 46, 75
4, 16007, Note_on_c, 1, 46, 0
4, 16008, Note_on_c, 1, 52, 75
4, 16031, Note_on_c, 1, 52, 0
4, 16032, Note_on_c, 1, 46, 76
4, 16055, Note_on_c, 1, 46, 0
4, 16056, Note_on_c, 1, 52, 77
4, 16079, Note_on_c, 1, 52, 0
4, 16080, Note_on_c, 1, 48, 78
4, 16103, Note_on_c, 1, 48, 0
4, 16104, Note_on_c, 1, 53, 79
4, 16127, Note_on_c, 1, 53, 0
4, 16128, Note_on_c, 1, 50, 80
4, 16151, Note_on_c, 1, 50, 0
4, 16152, Note_on_c, 1, 55, 80
4, 16175, Note_on_c, 1, 55, 0
4, 16176, Note_on_c, 1, 51, 80
4, 16199, Note_on_c, 1, 51, 0
4, 16200, Note_on_c, 1, 57, 80
4, 16223, Note_on_c, 1, 57, 0
4, 16224, Note_on_c, 1, 50, 80
4, 16247, Note_on_c, 1, 50, 0
4, 16248, Note_on_c, 1, 55, 80
4, 16271, Note_on_c, 1, 55, 0
4, 16272, Note_on_c, 1, 50, 80
4, 16295, Note_on_c, 1, 50, 0
4, 16296, Note_on_c, 1, 56, 80
4, 16319, Note_on_c, 1, 56, 0
4, 16320, Note_on_c, 1, 52, 80
4, 16343, Note_on_c, 1, 52, 0
4, 16344, Note_on_c, 1, 55, 80
4, 16367, Note_on_c, 1, 55, 0
4, 16368, Note_on_c, 1, 55, 80
4, 16391, Note_on_c, 1, 55, 0
4, 16392, Note_on_c, 1, 60, 80
4, 16415, Note_on_c, 1, 60, 0
4, 16416, Note_on_c, 1, 57, 80
4, 16439, Note_on_c, 1, 57, 0
4, 16440, Note_on_c, 1, 60, 80
4, 16463, Note_on_c, 1, 60, 0
4, 16464, Note_on_c, 1, 57, 78
4, 16487, Note_on_c, 1, 57, 0
4, 16488, Note_on_c, 1, 65, 76
4, 16511, Note_on_c, 1, 65, 0
4, 16512, Note_on_c, 1, 58, 74
4, 16535, Note_on_c, 1, 58, 0
4, 16536, Note_on_c, 1, 65, 72
4, 16559, Note_on_c, 1, 65, 0
4, 16608, Note_on_c, 1, 74, 64
4, 16608, Note_on_c, 1, 71, 64
4, 16653, Note_on_c, 1, 74, 0
4, 16653, Note_on_c, 1, 71, 0
4, 16896, Note_on_c, 1, 36, 70
4, 16985, Note_on_c, 1, 36, 0
4, 17016, Note_on_c, 1, 49, 70
4, 17039, Note_on_c, 1, 49, 0
4, 17040, Note_on_c, 1, 48, 70
4, 17063, Note_on_c, 1, 48, 0
4, 17064, Note_on_c, 1, 52, 70
4, 17087, Note_on_c, 1, 52, 0
4, 17088, Note_on_c, 1, 53, 70
4, 17177, Note_on_c, 1, 53, 0
4, 17232, Note_on_c, 1, 36, 70
4, 17277, Note_on_c, 1, 36, 0
4, 17304, Note_on_c, 1, 49, 70
4, 17327, Note_on_c, 1, 49, 0
4, 17328, Note_on_c, 1, 48, 70
4, 17351, Note_on_c, 1, 48, 0
4, 17352, Note_on_c, 1, 52, 70
4, 17375, Note_on_c, 1, 52, 0
4, 17376, Note_on_c, 1, 53, 70
4, 17465, Note_on_c, 1, 53, 0
4, 17520, Note_on_c, 1, 36, 70
4, 17565, Note_on_c, 1, 36, 0
4, 17592, Note_on_c, 1, 49, 70
4, 17615, Note_on_c, 1, 49, 0
4, 17616, Note_on_c, 1, 48, 70
4, 17639, Note_on_c, 1, 48, 0
4, 17640, Note_on_c, 1, 52, 70
4, 17663, Note_on_c, 1, 52, 0
4, 17664, Note_on_c, 1, 53, 70
4, 17851, Note_on_c, 1, 53, 0
4, 17856, Note_on_c, 1, 29, 70
4, 18121, Note_on_c, 1, 29, 0
4, 18144, Note_on_c, 1, 29, 0
4, 18233, Note_on_c, 1, 29, 0
4, 18240, End_track
5, 0, Start_track
5, 0, Program_c, 1, 0
5, 0, Control_c, 1, 7, 127
5, 0, Control_c, 1, 10, 64
5, 192, Note_on_c, 1, 64, 64
5, 239, Note_on_c, 1, 64, 0
5, 864, Note_on_c, 1, 60, 64
5, 1041, Note_on_c, 1, 60, 0
5, 1344, Note_on_c, 1, 64, 64
5, 1391, Note_on_c, 1, 64, 0
5, 2016, Note_on_c, 1, 53, 64
5, 2149, Note_on_c, 1, 53, 0
5, 2304, Note_on_c, 1, 65, 64
5, 2481, Note_on_c, 1, 65, 0
5, 2496, Note_on_c, 1, 65, 64
5, 2585, Note_on_c, 1, 65, 0
5, 2592, Note_on_c, 1, 64, 64
5, 2769, Note_on_c, 1, 64, 0
5, 2784, Note_on_c, 1, 64, 64
5, 2873, Note_on_c, 1, 64, 0
5, 2880, Note_on_c, 1, 62, 64
5, 2999, Note_on_c, 1, 62, 0
5, 3000, Note_on_c, 1, 63, 71
5, 3023, Note_on_c, 1, 63, 0
5, 3024, Note_on_c, 1, 62, 72
5, 3047, Note_on_c, 1, 62, 0
5, 3048, Note_on_c, 1, 60, 73
5, 3071, Note_on_c, 1, 60, 0
5, 4800, Note_on_c, 1, 65, 75
5, 4800, Note_on_c, 1, 59, 75
5, 4889, Note_on_c, 1, 65, 0
5, 4889, Note_on_c, 1, 59, 0
5, 4896, Note_on_c, 1, 60, 64
5, 4941, Note_on_c, 1, 60, 0
5, 4944, Note_on_c, 1, 60, 64
5, 4989, Note_on_c, 1, 60, 0
5, 4992, Note_on_c, 1, 60, 64
5, 5037, Note_on_c, 1, 60, 0
5, 5040, Note_on_c, 1, 60, 64
5, 5085, Note_on_c, 1, 60, 0
5, 5088, Note_on_c, 1, 60, 64
5, 5133, Note_on_c, 1, 60, 0
5, 5136, Note_on_c, 1, 60, 64
5, 5181, Note_on_c, 1, 60, 0
5, 5184, Note_on_c, 1, 62, 64
5, 5184, Note_on_c, 1, 59, 64
5, 5229, Note_on_c, 1, 62, 0
5, 5229, Note_on_c, 1, 59, 0
5, 5232, Note_on_c, 1, 62, 64
5, 5232, Note_on_c, 1, 59, 64
5, 5277, Note_on_c, 1, 62, 0
5, 5277, Note_on_c, 1, 59, 0
5, 5280, Note_on_c, 1, 62, 64
5, 5280, Note_on_c, 1, 59, 64
5, 5325, Note_on_c, 1, 62, 0
5, 5325, Note_on_c, 1, 59, 0
5, 5328, Note_on_c, 1, 62, 64
5, 5328, Note_on_c, 1, 59, 64
5, 5373, Note_on_c, 1, 62, 0
5, 5373, Note_on_c, 1, 59, 0
5, 5376, Note_on_c, 1, 62, 64
5, 5376, Note_on_c, 1, 59, 64
5, 5421, Note_on_c, 1, 62, 0
5, 5421, Note_on_c, 1, 59, 0
5, 5424, Note_on_c, 1, 62, 64
5, 5424, Note_on_c, 1, 59, 64
5, 5469, Note_on_c, 1, 62, 0
5, 5469, Note_on_c, 1, 59, 0
5, 5472, Note_on_c, 1, 60, 64
5, 5517, Note_on_c, 1, 60, 0
5, 5520, Note_on_c, 1, 60, 64
5, 5565, Note_on_c, 1, 60, 0
5, 5568, Note_on_c, 1, 48, 70
5, 5613, Note_on_c, 1, 48, 0
5, 5616, Note_on_c, 1, 48, 70
5, 5661, Note_on_c, 1, 48, 0
5, 5664, Note_on_c, 1, 48, 70
5, 5709, Note_on_c, 1, 48, 0
5, 5712, Note_on_c, 1, 48, 70
5, 5757, Note_on_c, 1, 48, 0
5, 5760, Note_on_c, 1, 50, 70
5, 5760, Note_on_c, 1, 47, 70
5, 5805, Note_on_c, 1, 50, 0
5, 5805, Note_on_c, 1, 47, 0
5, 5808, Note_on_c, 1, 50, 70
5, 5808, Note_on_c, 1, 47, 70
5, 5853, Note_on_c, 1, 50, 0
5, 5853, Note_on_c, 1, 47, 0
5, 5856, Note_on_c, 1, 50, 70
5, 5856, Note_on_c, 1, 47, 70
5, 5901, Note_on_c, 1, 50, 0
5, 5901, Note_on_c, 1, 47, 0
5, 5904, Note_on_c, 1, 50, 70
5, 5904, Note_on_c, 1, 47, 70
5, 5949, Note_on_c, 1, 50, 0
5, 5949, Note_on_c, 1, 47, 0
5, 5952, Note_on_c, 1, 50, 70
5, 5952, Note_on_c, 1, 47, 70
5, 5997, Note_on_c, 1, 50, 0
5, 5997, Note_on_c, 1, 47, 0
5, 6000, Note_on_c, 1, 50, 70
5, 6000, Note_on_c, 1, 47, 70
5, 6045, Note_on_c, 1, 50, 0
5, 6045, Note_on_c, 1, 47, 0
5, 7032, Note_on_c, 1, 54, 75
5, 7055, Note_on_c, 1, 54, 0
5, 7056, Note_on_c, 1, 55, 75
5, 7079, Note_on_c, 1, 55, 0
5, 7080, Note_on_c, 1, 57, 75
5, 7103, Note_on_c, 1, 57, 0
5, 7104, Note_on_c, 1, 58, 75
5, 7193, Note_on_c, 1, 58, 0
5, 7224, Note_on_c, 1, 58, 75
5, 7247, Note_on_c, 1, 58, 0
5, 7248, Note_on_c, 1, 57, 75
5, 7271, Note_on_c, 1, 57, 0
5, 7272, Note_on_c, 1, 55, 75
5, 7295, Note_on_c, 1, 55, 0
5, 7296, Note_on_c, 1, 57, 75
5, 7319, Note_on_c, 1, 57, 0
5, 7320, Note_on_c, 1, 58, 75
5, 7343, Note_on_c, 1, 58, 0
5, 7344, Note_on_c, 1, 57, 75
5, 7367, Note_on_c, 1, 57, 0
5, 7368, Note_on_c, 1, 55, 75
5, 7391, Note_on_c, 1, 55, 0
5, 7392, Note_on_c, 1, 57, 75
5, 7415, Note_on_c, 1, 57, 0
5, 7416, Note_on_c, 1, 58, 75
5, 7439, Note_on_c, 1, 58, 0
5, 7440, Note_on_c, 1, 57, 75
5, 7463, Note_on_c, 1, 57, 0
5, 7464, Note_on_c, 1, 55, 75
5, 7487, Note_on_c, 1, 55, 0
5, 7488, Note_on_c, 1, 57, 75
5, 7577, Note_on_c, 1, 57, 0
5, 7584, Note_on_c, 1, 62, 75
5, 7761, Note_on_c, 1, 62, 0
5, 7776, Note_on_c, 1, 55, 75
5, 8041, Note_on_c, 1, 55, 0
5, 9696, Note_on_c, 1, 64, 75
5, 9743, Note_on_c, 1, 64, 0
5, 10368, Note_on_c, 1, 60, 75
5, 10501, Note_on_c, 1, 60, 0
5, 10536, Note_on_c, 1, 48, 80
5, 10548, Note_on_c, 1, 48, 0
5, 10548, Note_on_c, 1, 36, 80
5, 10560, Note_on_c, 1, 36, 0
5, 10560, Note_on_c, 1, 47, 80
5, 10572, Note_on_c, 1, 47, 0
5, 10572, Note_on_c, 1, 35, 80
5, 10584, Note_on_c, 1, 35, 0
5, 10584, Note_on_c, 1, 46, 80
5, 10596, Note_on_c, 1, 46, 0
5, 10596, Note_on_c, 1, 34, 80
5, 10608, Note_on_c, 1, 34, 0
5, 10608, Note_on_c, 1, 45, 80
5, 10620, Note_on_c, 1, 45, 0
5, 10620, Note_on_c, 1, 33, 80
5, 10632, Note_on_c, 1, 33, 0
5, 10632, Note_on_c, 1, 43, 80
5, 10644, Note_on_c, 1, 43, 0
5, 10644, Note_on_c, 1, 31, 80
5, 10656, Note_on_c, 1, 31, 0
5, 10848, Note_on_c, 1, 64, 80
5, 10895, Note_on_c, 1, 64, 0
5, 11520, Note_on_c, 1, 53, 75
5, 11653, Note_on_c, 1, 53, 0
5, 14880, Note_on_c, 1, 58, 75
5, 14880, Note_on_c, 1, 52, 75
5, 14969, Note_on_c, 1, 58, 0
5, 14969, Note_on_c, 1, 52, 0
5, 14976, Note_on_c, 1, 53, 64
5, 15021, Note_on_c, 1, 53, 0
5, 15024, Note_on_c, 1, 53, 64
5, 15069, Note_on_c, 1, 53, 0
5, 15072, Note_on_c, 1, 53, 64
5, 15117, Note_on_c, 1, 53, 0
5, 15120, Note_on_c, 1, 53, 64
5, 15165, Note_on_c, 1, 53, 0
5, 15168, Note_on_c, 1, 53, 64
5, 15213, Note_on_c, 1, 53, 0
5, 15216, Note_on_c, 1, 53, 64
5, 15261, Note_on_c, 1, 53, 0
5, 15264, Note_on_c, 1, 55, 64
5, 15264, Note_on_c, 1, 52, 64
5, 15309, Note_on_c, 1, 55, 0
5, 15309, Note_on_c, 1, 52, 0
5, 15312, Note_on_c, 1, 55, 64
5, 15312, Note_on_c, 1, 52, 64
5, 15357, Note_on_c, 1, 55, 0
5, 15357, Note_on_c, 1, 52, 0
5, 15360, Note_on_c, 1, 55, 64
5, 15360, Note_on_c, 1, 52, 64
5, 15405, Note_on_c, 1, 55, 0
5, 15405, Note_on_c, 1, 52, 0
5, 15408, Note_on_c, 1, 55, 64
5, 15408, Note_on_c, 1, 52, 64
5, 15453, Note_on_c, 1, 55, 0
5, 15453, Note_on_c, 1, 52, 0
5, 15456, Note_on_c, 1, 55, 64
5, 15456, Note_on_c, 1, 52, 64
5, 15501, Note_on_c, 1, 55, 0
5, 15501, Note_on_c, 1, 52, 0
5, 15504, Note_on_c, 1, 55, 64
5, 15504, Note_on_c, 1, 52, 64
5, 15549, Note_on_c, 1, 55, 0
5, 15549, Note_on_c, 1, 52, 0
5, 15552, Note_on_c, 1, 53, 64
5, 15597, Note_on_c, 1, 53, 0
5, 15600, Note_on_c, 1, 53, 64
5, 15645, Note_on_c, 1, 53, 0
5, 15648, Note_on_c, 1, 41, 70
5, 15693, Note_on_c, 1, 41, 0
5, 15696, Note_on_c, 1, 41, 70
5, 15741, Note_on_c, 1, 41, 0
5, 15744, Note_on_c, 1, 41, 70
5, 15789, Note_on_c, 1, 41, 0
5, 15792, Note_on_c, 1, 41, 70
5, 15837, Note_on_c, 1, 41, 0
5, 15840, Note_on_c, 1, 43, 70
5, 15885, Note_on_c, 1, 43, 0
5, 15888, Note_on_c, 1, 43, 70
5, 15933, Note_on_c, 1, 43, 0
5, 15936, Note_on_c, 1, 43, 70
5, 15981, Note_on_c, 1, 43, 0
5, 15984, Note_on_c, 1, 43, 70
5, 16029, Note_on_c, 1, 43, 0
5, 16032, Note_on_c, 1, 43, 70
5, 16077, Note_on_c, 1, 43, 0
5, 16080, Note_on_c, 1, 45, 70
5, 16125, Note_on_c, 1, 45, 0
5, 16128, Note_on_c, 1, 46, 70
5, 16173, Note_on_c, 1, 46, 0
5, 16176, Note_on_c, 1, 48, 70
5, 16221, Note_on_c, 1, 48, 0
5, 16224, Note_on_c, 1, 46, 70
5, 16269, Note_on_c, 1, 46, 0
5, 16272, Note_on_c, 1, 47, 70
5, 16317, Note_on_c, 1, 47, 0
5, 16320, Note_on_c, 1, 48, 70
5, 16365, Note_on_c, 1, 48, 0
5, 16368, Note_on_c, 1, 52, 70
5, 16413, Note_on_c, 1, 52, 0
5, 16416, Note_on_c, 1, 53, 70
5, 16461, Note_on_c, 1, 53, 0
5, 16992, Note_on_c, 1, 41, 70
5, 17169, Note_on_c, 1, 41, 0
5, 17280, Note_on_c, 1, 41, 70
5, 17457, Note_on_c, 1, 41, 0
5, 17568, Note_on_c, 1, 41, 70
5, 17833, Note_on_c, 1, 41, 0
5, 18144, End_track
6, 0, Start_track
6, 0, Title_t, "Sonata I   Haydn  "
6, 0, End_track
0, 0, End_of_file
