0, 0, Header, 1, 2, 240
1, 0, Start_track
1, 0, Time_signature, 4, 2, 24, 8
1, 0, Tempo, 454545
1, 0, SMPTE_offset, 0, 0, 0, 0, 0
1, 26040, Tempo, 461538
1, 26208, Tempo, 472441
1, 26376, Tempo, 483871
1, 26880, Tempo, 454545
1, 26880, Marker_t, "A`"
1, 52932, Tempo, 465116
1, 53112, Tempo, 472441
1, 53268, Tempo, 487805
1, 53760, Tempo, 454545
1, 53760, Marker_t, "B"
1, 96960, Marker_t, "B`"
1, 139296, Tempo, 468750
1, 139428, Tempo, 495868
1, 139536, Tempo, 521739
1, 139704, Tempo, 560748
1, 139704, End_track
2, 0, Start_track
2, 0, Title_t, "Piano"
2, 0, Note_on_c, 0, 72, 64
2, 0, Note_on_c, 0, 60, 64
2, 120, Note_off_c, 0, 60, 64
2, 120, Note_on_c, 0, 67, 64
2, 240, Note_off_c, 0, 67, 64
2, 240, Note_on_c, 0, 64, 64
2, 360, Note_off_c, 0, 64, 64
2, 360, Note_on_c, 0, 67, 64
2, 480, Note_off_c, 0, 67, 64
2, 480, Note_off_c, 0, 72, 64
2, 480, Note_on_c, 0, 76, 64
2, 480, Note_on_c, 0, 60, 64
2, 600, Note_off_c, 0, 60, 64
2, 600, Note_on_c, 0, 67, 64
2, 720, Note_off_c, 0, 67, 64
2, 720, Note_off_c, 0, 76, 64
2, 720, Note_on_c, 0, 79, 64
2, 720, Note_on_c, 0, 64, 64
2, 840, Note_off_c, 0, 64, 64
2, 840, Note_on_c, 0, 67, 64
2, 960, Note_off_c, 0, 67, 64
2, 960, Note_off_c, 0, 79, 64
2, 960, Note_on_c, 0, 71, 64
2, 960, Note_on_c, 0, 62, 64
2, 1080, Note_off_c, 0, 62, 64
2, 1080, Note_on_c, 0, 67, 64
2, 1200, Note_off_c, 0, 67, 64
2, 1200, Note_on_c, 0, 65, 64
2, 1320, Note_off_c, 0, 65, 64
2, 1320, Note_off_c, 0, 71, 64
2, 1320, Note_on_c, 0, 72, 64
2, 1320, Note_on_c, 0, 67, 64
2, 1380, Note_off_c, 0, 72, 64
2, 1380, Note_on_c, 0, 74, 64
2, 1440, Note_off_c, 0, 74, 64
2, 1440, Note_off_c, 0, 67, 64
2, 1440, Note_on_c, 0, 72, 64
2, 1440, Note_on_c, 0, 60, 64
2, 1560, Note_off_c, 0, 60, 64
2, 1560, Note_on_c, 0, 67, 64
2, 1680, Note_off_c, 0, 67, 64
2, 1680, Note_on_c, 0, 64, 64
2, 1800, Note_off_c, 0, 64, 64
2, 1800, Note_on_c, 0, 67, 64
2, 1920, Note_off_c, 0, 67, 64
2, 1920, Note_off_c, 0, 72, 64
2, 1920, Note_on_c, 0, 81, 64
2, 1920, Note_on_c, 0, 60, 64
2, 2040, Note_off_c, 0, 60, 64
2, 2040, Note_on_c, 0, 69, 64
2, 2160, Note_off_c, 0, 69, 64
2, 2160, Note_on_c, 0, 65, 64
2, 2280, Note_off_c, 0, 65, 64
2, 2280, Note_on_c, 0, 69, 64
2, 2400, Note_off_c, 0, 69, 64
2, 2400, Note_off_c, 0, 81, 64
2, 2400, Note_on_c, 0, 79, 64
2, 2400, Note_on_c, 0, 60, 64
2, 2520, Note_off_c, 0, 60, 64
2, 2520, Note_on_c, 0, 67, 64
2, 2640, Note_off_c, 0, 67, 64
2, 2640, Note_off_c, 0, 79, 64
2, 2640, Note_on_c, 0, 84, 64
2, 2640, Note_on_c, 0, 64, 64
2, 2760, Note_off_c, 0, 64, 64
2, 2760, Note_on_c, 0, 67, 64
2, 2880, Note_off_c, 0, 67, 64
2, 2880, Note_off_c, 0, 84, 64
2, 2880, Note_on_c, 0, 79, 64
2, 2880, Note_on_c, 0, 59, 64
2, 3000, Note_off_c, 0, 59, 64
2, 3000, Note_on_c, 0, 67, 64
2, 3120, Note_off_c, 0, 67, 64
2, 3120, Note_off_c, 0, 79, 64
2, 3120, Note_on_c, 0, 77, 64
2, 3120, Note_on_c, 0, 62, 64
2, 3159, Note_off_c, 0, 77, 64
2, 3159, Note_on_c, 0, 79, 64
2, 3199, Note_off_c, 0, 79, 64
2, 3199, Note_on_c, 0, 77, 64
2, 3239, Note_off_c, 0, 77, 64
2, 3240, Note_off_c, 0, 62, 64
2, 3240, Note_on_c, 0, 76, 64
2, 3240, Note_on_c, 0, 67, 64
2, 3300, Note_off_c, 0, 76, 64
2, 3300, Note_on_c, 0, 77, 64
2, 3360, Note_off_c, 0, 77, 64
2, 3360, Note_off_c, 0, 67, 64
2, 3360, Note_on_c, 0, 76, 64
2, 3360, Note_on_c, 0, 60, 64
2, 3480, Note_off_c, 0, 60, 64
2, 3480, Note_on_c, 0, 67, 64
2, 3600, Note_off_c, 0, 67, 64
2, 3600, Note_off_c, 0, 76, 64
2, 3600, Note_on_c, 0, 64, 64
2, 3720, Note_off_c, 0, 64, 64
2, 3720, Note_on_c, 0, 67, 64
2, 3840, Note_off_c, 0, 67, 64
2, 3840, Note_on_c, 0, 69, 64
2, 3840, Note_on_c, 0, 65, 64
2, 3960, Note_off_c, 0, 69, 64
2, 3960, Note_on_c, 0, 71, 64
2, 4020, Note_off_c, 0, 71, 64
2, 4020, Note_on_c, 0, 72, 64
2, 4080, Note_off_c, 0, 72, 64
2, 4080, Note_off_c, 0, 65, 64
2, 4080, Note_on_c, 0, 74, 64
2, 4140, Note_off_c, 0, 74, 64
2, 4140, Note_on_c, 0, 76, 64
2, 4200, Note_off_c, 0, 76, 64
2, 4200, Note_on_c, 0, 77, 64
2, 4260, Note_off_c, 0, 77, 64
2, 4260, Note_on_c, 0, 79, 64
2, 4320, Note_off_c, 0, 79, 64
2, 4320, Note_on_c, 0, 81, 64
2, 4380, Note_off_c, 0, 81, 64
2, 4380, Note_on_c, 0, 79, 64
2, 4440, Note_off_c, 0, 79, 64
2, 4440, Note_on_c, 0, 77, 64
2, 4500, Note_off_c, 0, 77, 64
2, 4500, Note_on_c, 0, 76, 64
2, 4560, Note_off_c, 0, 76, 64
2, 4560, Note_on_c, 0, 60, 64
2, 4560, Note_on_c, 0, 53, 64
2, 4560, Note_on_c, 0, 74, 64
2, 4620, Note_off_c, 0, 74, 64
2, 4620, Note_on_c, 0, 72, 64
2, 4680, Note_off_c, 0, 72, 64
2, 4680, Note_on_c, 0, 71, 64
2, 4740, Note_off_c, 0, 71, 64
2, 4740, Note_on_c, 0, 69, 64
2, 4800, Note_off_c, 0, 69, 64
2, 4800, Note_off_c, 0, 53, 64
2, 4800, Note_off_c, 0, 60, 64
2, 4800, Note_on_c, 0, 67, 64
2, 4800, Note_on_c, 0, 52, 64
2, 4800, Note_on_c, 0, 60, 64
2, 4920, Note_off_c, 0, 67, 64
2, 4920, Note_on_c, 0, 69, 64
2, 4980, Note_off_c, 0, 69, 64
2, 4980, Note_on_c, 0, 71, 64
2, 5040, Note_off_c, 0, 71, 64
2, 5040, Note_off_c, 0, 60, 64
2, 5040, Note_off_c, 0, 52, 64
2, 5040, Note_on_c, 0, 72, 64
2, 5100, Note_off_c, 0, 72, 64
2, 5100, Note_on_c, 0, 74, 64
2, 5160, Note_off_c, 0, 74, 64
2, 5160, Note_on_c, 0, 76, 64
2, 5220, Note_off_c, 0, 76, 64
2, 5220, Note_on_c, 0, 77, 64
2, 5280, Note_off_c, 0, 77, 64
2, 5280, Note_on_c, 0, 79, 64
2, 5340, Note_off_c, 0, 79, 64
2, 5340, Note_on_c, 0, 77, 64
2, 5400, Note_off_c, 0, 77, 64
2, 5400, Note_on_c, 0, 76, 64
2, 5460, Note_off_c, 0, 76, 64
2, 5460, Note_on_c, 0, 74, 64
2, 5520, Note_off_c, 0, 74, 64
2, 5520, Note_on_c, 0, 60, 64
2, 5520, Note_on_c, 0, 52, 64
2, 5520, Note_on_c, 0, 72, 64
2, 5580, Note_off_c, 0, 72, 64
2, 5580, Note_on_c, 0, 71, 64
2, 5640, Note_off_c, 0, 71, 64
2, 5640, Note_on_c, 0, 69, 64
2, 5700, Note_off_c, 0, 69, 64
2, 5700, Note_on_c, 0, 67, 64
2, 5760, Note_off_c, 0, 67, 64
2, 5760, Note_off_c, 0, 52, 64
2, 5760, Note_off_c, 0, 60, 64
2, 5760, Note_on_c, 0, 65, 64
2, 5760, Note_on_c, 0, 50, 64
2, 5760, Note_on_c, 0, 60, 64
2, 5880, Note_off_c, 0, 65, 64
2, 5880, Note_on_c, 0, 67, 64
2, 5940, Note_off_c, 0, 67, 64
2, 5940, Note_on_c, 0, 69, 64
2, 6000, Note_off_c, 0, 69, 64
2, 6000, Note_off_c, 0, 60, 64
2, 6000, Note_off_c, 0, 50, 64
2, 6000, Note_on_c, 0, 71, 64
2, 6060, Note_off_c, 0, 71, 64
2, 6060, Note_on_c, 0, 72, 64
2, 6120, Note_off_c, 0, 72, 64
2, 6120, Note_on_c, 0, 74, 64
2, 6180, Note_off_c, 0, 74, 64
2, 6180, Note_on_c, 0, 76, 64
2, 6240, Note_off_c, 0, 76, 64
2, 6240, Note_on_c, 0, 77, 64
2, 6300, Note_off_c, 0, 77, 64
2, 6300, Note_on_c, 0, 76, 64
2, 6360, Note_off_c, 0, 76, 64
2, 6360, Note_on_c, 0, 74, 64
2, 6420, Note_off_c, 0, 74, 64
2, 6420, Note_on_c, 0, 72, 64
2, 6480, Note_off_c, 0, 72, 64
2, 6480, Note_on_c, 0, 59, 64
2, 6480, Note_on_c, 0, 50, 64
2, 6480, Note_on_c, 0, 71, 64
2, 6540, Note_off_c, 0, 71, 64
2, 6540, Note_on_c, 0, 69, 64
2, 6600, Note_off_c, 0, 69, 64
2, 6600, Note_on_c, 0, 67, 64
2, 6660, Note_off_c, 0, 67, 64
2, 6660, Note_on_c, 0, 65, 64
2, 6720, Note_off_c, 0, 65, 64
2, 6720, Note_off_c, 0, 50, 64
2, 6720, Note_off_c, 0, 59, 64
2, 6720, Note_on_c, 0, 64, 64
2, 6720, Note_on_c, 0, 48, 64
2, 6720, Note_on_c, 0, 60, 64
2, 6840, Note_off_c, 0, 64, 64
2, 6840, Note_on_c, 0, 65, 64
2, 6900, Note_off_c, 0, 65, 64
2, 6900, Note_on_c, 0, 67, 64
2, 6960, Note_off_c, 0, 67, 64
2, 6960, Note_off_c, 0, 60, 64
2, 6960, Note_off_c, 0, 48, 64
2, 6960, Note_on_c, 0, 69, 64
2, 7020, Note_off_c, 0, 69, 64
2, 7020, Note_on_c, 0, 71, 64
2, 7080, Note_off_c, 0, 71, 64
2, 7080, Note_on_c, 0, 72, 64
2, 7140, Note_off_c, 0, 72, 64
2, 7140, Note_on_c, 0, 74, 64
2, 7200, Note_off_c, 0, 74, 64
2, 7200, Note_on_c, 0, 76, 64
2, 7260, Note_off_c, 0, 76, 64
2, 7260, Note_on_c, 0, 74, 64
2, 7320, Note_off_c, 0, 74, 64
2, 7320, Note_on_c, 0, 72, 64
2, 7380, Note_off_c, 0, 72, 64
2, 7380, Note_on_c, 0, 71, 64
2, 7440, Note_off_c, 0, 71, 64
2, 7440, Note_on_c, 0, 52, 64
2, 7440, Note_on_c, 0, 48, 64
2, 7440, Note_on_c, 0, 69, 64
2, 7500, Note_off_c, 0, 69, 64
2, 7500, Note_on_c, 0, 67, 64
2, 7560, Note_off_c, 0, 67, 64
2, 7560, Note_on_c, 0, 65, 64
2, 7620, Note_off_c, 0, 65, 64
2, 7620, Note_on_c, 0, 64, 64
2, 7680, Note_off_c, 0, 64, 64
2, 7680, Note_off_c, 0, 48, 64
2, 7680, Note_off_c, 0, 52, 64
2, 7680, Note_on_c, 0, 57, 64
2, 7680, Note_on_c, 0, 53, 64
2, 7680, Note_on_c, 0, 62, 64
2, 7800, Note_off_c, 0, 62, 64
2, 7800, Note_on_c, 0, 64, 64
2, 7860, Note_off_c, 0, 64, 64
2, 7860, Note_on_c, 0, 65, 64
2, 7920, Note_off_c, 0, 65, 64
2, 7920, Note_on_c, 0, 67, 64
2, 7980, Note_off_c, 0, 67, 64
2, 7980, Note_on_c, 0, 69, 64
2, 8040, Note_off_c, 0, 69, 64
2, 8040, Note_on_c, 0, 71, 64
2, 8100, Note_off_c, 0, 71, 64
2, 8100, Note_on_c, 0, 73, 64
2, 8160, Note_off_c, 0, 73, 64
2, 8160, Note_on_c, 0, 74, 64
2, 8220, Note_off_c, 0, 74, 64
2, 8220, Note_on_c, 0, 69, 64
2, 8280, Note_off_c, 0, 69, 64
2, 8280, Note_on_c, 0, 71, 64
2, 8340, Note_off_c, 0, 71, 64
2, 8340, Note_on_c, 0, 73, 64
2, 8400, Note_off_c, 0, 73, 64
2, 8400, Note_on_c, 0, 74, 64
2, 8460, Note_off_c, 0, 74, 64
2, 8460, Note_on_c, 0, 76, 64
2, 8520, Note_off_c, 0, 76, 64
2, 8520, Note_on_c, 0, 77, 64
2, 8580, Note_off_c, 0, 77, 64
2, 8580, Note_on_c, 0, 79, 64
2, 8640, Note_off_c, 0, 79, 64
2, 8640, Note_off_c, 0, 53, 64
2, 8640, Note_off_c, 0, 57, 64
2, 8640, Note_on_c, 0, 81, 64
2, 8640, Note_on_c, 0, 53, 64
2, 8700, Note_off_c, 0, 81, 64
2, 8700, Note_on_c, 0, 83, 64
2, 8760, Note_off_c, 0, 83, 64
2, 8760, Note_on_c, 0, 84, 64
2, 8820, Note_off_c, 0, 84, 64
2, 8820, Note_on_c, 0, 83, 64
2, 8880, Note_off_c, 0, 83, 64
2, 8880, Note_on_c, 0, 81, 64
2, 8940, Note_off_c, 0, 81, 64
2, 8940, Note_on_c, 0, 79, 64
2, 9000, Note_off_c, 0, 79, 64
2, 9000, Note_off_c, 0, 53, 64
2, 9000, Note_on_c, 0, 77, 64
2, 9000, Note_on_c, 0, 55, 64
2, 9060, Note_off_c, 0, 77, 64
2, 9060, Note_on_c, 0, 76, 64
2, 9120, Note_off_c, 0, 76, 64
2, 9120, Note_off_c, 0, 55, 64
2, 9120, Note_on_c, 0, 77, 64
2, 9120, Note_on_c, 0, 57, 64
2, 9180, Note_off_c, 0, 77, 64
2, 9180, Note_on_c, 0, 79, 64
2, 9240, Note_off_c, 0, 79, 64
2, 9240, Note_on_c, 0, 81, 64
2, 9300, Note_off_c, 0, 81, 64
2, 9300, Note_on_c, 0, 79, 64
2, 9360, Note_off_c, 0, 79, 64
2, 9360, Note_off_c, 0, 57, 64
2, 9360, Note_on_c, 0, 54, 64
2, 9360, Note_on_c, 0, 77, 64
2, 9420, Note_off_c, 0, 77, 64
2, 9420, Note_on_c, 0, 76, 64
2, 9480, Note_off_c, 0, 76, 64
2, 9480, Note_on_c, 0, 74, 64
2, 9540, Note_off_c, 0, 74, 64
2, 9540, Note_on_c, 0, 72, 64
2, 9600, Note_off_c, 0, 72, 64
2, 9600, Note_off_c, 0, 54, 64
2, 9600, Note_on_c, 0, 71, 64
2, 9600, Note_on_c, 0, 43, 64
2, 9660, Note_off_c, 0, 43, 64
2, 9660, Note_on_c, 0, 47, 64
2, 9720, Note_off_c, 0, 47, 64
2, 9720, Note_off_c, 0, 71, 64
2, 9720, Note_on_c, 0, 79, 64
2, 9720, Note_on_c, 0, 50, 64
2, 9780, Note_off_c, 0, 50, 64
2, 9780, Note_on_c, 0, 55, 64
2, 9840, Note_off_c, 0, 55, 64
2, 9840, Note_off_c, 0, 79, 64
2, 9840, Note_on_c, 0, 76, 64
2, 9840, Note_on_c, 0, 43, 64
2, 9900, Note_off_c, 0, 43, 64
2, 9900, Note_on_c, 0, 48, 64
2, 9930, Note_off_c, 0, 76, 64
2, 9960, Note_off_c, 0, 48, 64
2, 9960, Note_on_c, 0, 72, 64
2, 9960, Note_on_c, 0, 52, 64
2, 10020, Note_off_c, 0, 52, 64
2, 10020, Note_on_c, 0, 55, 64
2, 10050, Note_off_c, 0, 72, 64
2, 10080, Note_off_c, 0, 55, 64
2, 10080, Note_on_c, 0, 74, 64
2, 10080, Note_on_c, 0, 43, 64
2, 10140, Note_off_c, 0, 43, 64
2, 10140, Note_on_c, 0, 47, 64
2, 10200, Note_off_c, 0, 47, 64
2, 10200, Note_off_c, 0, 74, 64
2, 10200, Note_on_c, 0, 79, 64
2, 10200, Note_on_c, 0, 50, 64
2, 10260, Note_off_c, 0, 50, 64
2, 10260, Note_on_c, 0, 55, 64
2, 10320, Note_off_c, 0, 55, 64
2, 10320, Note_off_c, 0, 79, 64
2, 10320, Note_on_c, 0, 76, 64
2, 10320, Note_on_c, 0, 43, 64
2, 10380, Note_off_c, 0, 43, 64
2, 10380, Note_on_c, 0, 48, 64
2, 10410, Note_off_c, 0, 76, 64
2, 10440, Note_off_c, 0, 48, 64
2, 10440, Note_on_c, 0, 72, 64
2, 10440, Note_on_c, 0, 52, 64
2, 10500, Note_off_c, 0, 52, 64
2, 10500, Note_on_c, 0, 55, 64
2, 10530, Note_off_c, 0, 72, 64
2, 10560, Note_off_c, 0, 55, 64
2, 10560, Note_on_c, 0, 43, 64
2, 10560, Note_on_c, 0, 74, 64
2, 10752, Note_off_c, 0, 74, 64
2, 10752, Note_off_c, 0, 43, 64
2, 10800, Note_on_c, 0, 55, 64
2, 10800, Note_on_c, 0, 79, 64
2, 10800, Note_on_c, 0, 74, 64
2, 10800, Note_on_c, 0, 71, 64
2, 10992, Note_off_c, 0, 71, 64
2, 10992, Note_off_c, 0, 74, 64
2, 10992, Note_off_c, 0, 79, 64
2, 10992, Note_off_c, 0, 55, 64
2, 11040, Note_on_c, 0, 43, 64
2, 11040, Note_on_c, 0, 67, 64
2, 11232, Note_off_c, 0, 67, 64
2, 11232, Note_off_c, 0, 43, 64
2, 11520, Note_on_c, 0, 61, 64
2, 11580, Note_off_c, 0, 61, 64
2, 11580, Note_on_c, 0, 62, 64
2, 11640, Note_off_c, 0, 62, 64
2, 11640, Note_on_c, 0, 61, 64
2, 11700, Note_off_c, 0, 61, 64
2, 11700, Note_on_c, 0, 62, 64
2, 11760, Note_off_c, 0, 62, 64
2, 11760, Note_on_c, 0, 61, 64
2, 11820, Note_off_c, 0, 61, 64
2, 11820, Note_on_c, 0, 62, 64
2, 11880, Note_off_c, 0, 62, 64
2, 11880, Note_on_c, 0, 61, 64
2, 11940, Note_off_c, 0, 61, 64
2, 11940, Note_on_c, 0, 62, 64
2, 12000, Note_off_c, 0, 62, 64
2, 12000, Note_on_c, 0, 60, 64
2, 12060, Note_off_c, 0, 60, 64
2, 12060, Note_on_c, 0, 62, 64
2, 12120, Note_off_c, 0, 62, 64
2, 12120, Note_on_c, 0, 60, 64
2, 12180, Note_off_c, 0, 60, 64
2, 12180, Note_on_c, 0, 62, 64
2, 12240, Note_off_c, 0, 62, 64
2, 12240, Note_on_c, 0, 60, 64
2, 12300, Note_off_c, 0, 60, 64
2, 12300, Note_on_c, 0, 62, 64
2, 12360, Note_off_c, 0, 62, 64
2, 12360, Note_on_c, 0, 60, 64
2, 12420, Note_off_c, 0, 60, 64
2, 12420, Note_on_c, 0, 62, 64
2, 12480, Note_off_c, 0, 62, 64
2, 12480, Note_on_c, 0, 86, 64
2, 12480, Note_on_c, 0, 59, 64
2, 12540, Note_off_c, 0, 59, 64
2, 12540, Note_on_c, 0, 62, 64
2, 12600, Note_off_c, 0, 62, 64
2, 12600, Note_off_c, 0, 86, 64
2, 12600, Note_on_c, 0, 83, 64
2, 12600, Note_on_c, 0, 59, 64
2, 12660, Note_off_c, 0, 59, 64
2, 12660, Note_on_c, 0, 62, 64
2, 12720, Note_off_c, 0, 62, 64
2, 12720, Note_off_c, 0, 83, 64
2, 12720, Note_on_c, 0, 79, 64
2, 12720, Note_on_c, 0, 59, 64
2, 12780, Note_off_c, 0, 59, 64
2, 12780, Note_on_c, 0, 62, 64
2, 12840, Note_off_c, 0, 62, 64
2, 12840, Note_on_c, 0, 59, 64
2, 12900, Note_off_c, 0, 59, 64
2, 12900, Note_on_c, 0, 62, 64
2, 12960, Note_off_c, 0, 62, 64
2, 12960, Note_on_c, 0, 59, 64
2, 13020, Note_off_c, 0, 59, 64
2, 13020, Note_on_c, 0, 62, 64
2, 13080, Note_off_c, 0, 62, 64
2, 13080, Note_off_c, 0, 79, 64
2, 13080, Note_on_c, 0, 81, 64
2, 13080, Note_on_c, 0, 59, 64
2, 13140, Note_off_c, 0, 59, 64
2, 13140, Note_off_c, 0, 81, 64
2, 13140, Note_on_c, 0, 83, 64
2, 13140, Note_on_c, 0, 62, 64
2, 13200, Note_off_c, 0, 62, 64
2, 13200, Note_off_c, 0, 83, 64
2, 13200, Note_on_c, 0, 81, 64
2, 13200, Note_on_c, 0, 59, 64
2, 13260, Note_off_c, 0, 59, 64
2, 13260, Note_on_c, 0, 62, 64
2, 13320, Note_off_c, 0, 62, 64
2, 13320, Note_off_c, 0, 81, 64
2, 13320, Note_on_c, 0, 79, 64
2, 13320, Note_on_c, 0, 59, 64
2, 13380, Note_off_c, 0, 59, 64
2, 13380, Note_on_c, 0, 62, 64
2, 13440, Note_off_c, 0, 62, 64
2, 13440, Note_off_c, 0, 79, 64
2, 13440, Note_on_c, 0, 81, 64
2, 13440, Note_on_c, 0, 60, 64
2, 13470, Note_off_c, 0, 81, 64
2, 13470, Note_on_c, 0, 79, 48
2, 13500, Note_off_c, 0, 79, 64
2, 13500, Note_off_c, 0, 60, 64
2, 13500, Note_on_c, 0, 81, 52
2, 13500, Note_on_c, 0, 62, 64
2, 13530, Note_off_c, 0, 81, 64
2, 13530, Note_on_c, 0, 79, 56
2, 13560, Note_off_c, 0, 79, 64
2, 13560, Note_off_c, 0, 62, 64
2, 13560, Note_on_c, 0, 81, 60
2, 13560, Note_on_c, 0, 59, 64
2, 13590, Note_off_c, 0, 81, 64
2, 13590, Note_on_c, 0, 79, 64
2, 13620, Note_off_c, 0, 79, 64
2, 13620, Note_off_c, 0, 59, 64
2, 13620, Note_on_c, 0, 78, 68
2, 13620, Note_on_c, 0, 62, 64
2, 13670, Note_off_c, 0, 78, 64
2, 13680, Note_off_c, 0, 62, 64
2, 13680, Note_on_c, 0, 78, 64
2, 13680, Note_on_c, 0, 57, 64
2, 13740, Note_off_c, 0, 57, 64
2, 13740, Note_on_c, 0, 62, 64
2, 13800, Note_off_c, 0, 62, 64
2, 13800, Note_on_c, 0, 59, 64
2, 13860, Note_off_c, 0, 59, 64
2, 13860, Note_on_c, 0, 62, 64
2, 13920, Note_off_c, 0, 62, 64
2, 13920, Note_off_c, 0, 78, 64
2, 13920, Note_on_c, 0, 60, 64
2, 13980, Note_off_c, 0, 60, 64
2, 13980, Note_on_c, 0, 62, 64
2, 14040, Note_off_c, 0, 62, 64
2, 14040, Note_on_c, 0, 59, 64
2, 14100, Note_off_c, 0, 59, 64
2, 14100, Note_on_c, 0, 62, 64
2, 14160, Note_off_c, 0, 62, 64
2, 14160, Note_on_c, 0, 60, 64
2, 14220, Note_off_c, 0, 60, 64
2, 14220, Note_on_c, 0, 62, 64
2, 14280, Note_off_c, 0, 62, 64
2, 14280, Note_on_c, 0, 57, 64
2, 14340, Note_off_c, 0, 57, 64
2, 14340, Note_on_c, 0, 62, 64
2, 14400, Note_off_c, 0, 62, 64
2, 14400, Note_on_c, 0, 86, 64
2, 14400, Note_on_c, 0, 59, 64
2, 14460, Note_off_c, 0, 59, 64
2, 14460, Note_on_c, 0, 62, 64
2, 14520, Note_off_c, 0, 62, 64
2, 14520, Note_off_c, 0, 86, 64
2, 14520, Note_on_c, 0, 83, 64
2, 14520, Note_on_c, 0, 59, 64
2, 14580, Note_off_c, 0, 59, 64
2, 14580, Note_on_c, 0, 62, 64
2, 14640, Note_off_c, 0, 62, 64
2, 14640, Note_off_c, 0, 83, 64
2, 14640, Note_on_c, 0, 79, 64
2, 14640, Note_on_c, 0, 59, 64
2, 14700, Note_off_c, 0, 59, 64
2, 14700, Note_on_c, 0, 62, 64
2, 14760, Note_off_c, 0, 62, 64
2, 14760, Note_on_c, 0, 59, 64
2, 14820, Note_off_c, 0, 59, 64
2, 14820, Note_on_c, 0, 62, 64
2, 14880, Note_off_c, 0, 62, 64
2, 14880, Note_on_c, 0, 59, 64
2, 14940, Note_off_c, 0, 59, 64
2, 14940, Note_on_c, 0, 62, 64
2, 15000, Note_off_c, 0, 62, 64
2, 15000, Note_off_c, 0, 79, 64
2, 15000, Note_on_c, 0, 81, 64
2, 15000, Note_on_c, 0, 59, 64
2, 15060, Note_off_c, 0, 59, 64
2, 15060, Note_off_c, 0, 81, 64
2, 15060, Note_on_c, 0, 83, 64
2, 15060, Note_on_c, 0, 62, 64
2, 15120, Note_off_c, 0, 62, 64
2, 15120, Note_off_c, 0, 83, 64
2, 15120, Note_on_c, 0, 81, 64
2, 15120, Note_on_c, 0, 59, 64
2, 15180, Note_off_c, 0, 59, 64
2, 15180, Note_on_c, 0, 62, 64
2, 15240, Note_off_c, 0, 62, 64
2, 15240, Note_off_c, 0, 81, 64
2, 15240, Note_on_c, 0, 79, 64
2, 15240, Note_on_c, 0, 59, 64
2, 15300, Note_off_c, 0, 59, 64
2, 15300, Note_on_c, 0, 62, 64
2, 15360, Note_off_c, 0, 62, 64
2, 15360, Note_off_c, 0, 79, 64
2, 15360, Note_on_c, 0, 81, 64
2, 15360, Note_on_c, 0, 60, 64
2, 15390, Note_off_c, 0, 81, 64
2, 15390, Note_on_c, 0, 79, 48
2, 15420, Note_off_c, 0, 79, 64
2, 15420, Note_off_c, 0, 60, 64
2, 15420, Note_on_c, 0, 81, 52
2, 15420, Note_on_c, 0, 62, 64
2, 15450, Note_off_c, 0, 81, 64
2, 15450, Note_on_c, 0, 79, 56
2, 15480, Note_off_c, 0, 79, 64
2, 15480, Note_off_c, 0, 62, 64
2, 15480, Note_on_c, 0, 81, 59
2, 15480, Note_on_c, 0, 59, 64
2, 15510, Note_off_c, 0, 81, 64
2, 15510, Note_on_c, 0, 79, 63
2, 15540, Note_off_c, 0, 79, 64
2, 15540, Note_off_c, 0, 59, 64
2, 15540, Note_on_c, 0, 78, 68
2, 15540, Note_on_c, 0, 62, 64
2, 15590, Note_off_c, 0, 78, 64
2, 15600, Note_off_c, 0, 62, 64
2, 15600, Note_on_c, 0, 78, 64
2, 15600, Note_on_c, 0, 57, 64
2, 15660, Note_off_c, 0, 57, 64
2, 15660, Note_on_c, 0, 62, 64
2, 15720, Note_off_c, 0, 62, 64
2, 15720, Note_on_c, 0, 59, 64
2, 15780, Note_off_c, 0, 59, 64
2, 15780, Note_on_c, 0, 62, 64
2, 15840, Note_off_c, 0, 62, 64
2, 15840, Note_off_c, 0, 78, 64
2, 15840, Note_on_c, 0, 60, 64
2, 15900, Note_off_c, 0, 60, 64
2, 15900, Note_on_c, 0, 62, 64
2, 15960, Note_off_c, 0, 62, 64
2, 15960, Note_on_c, 0, 59, 64
2, 16020, Note_off_c, 0, 59, 64
2, 16020, Note_on_c, 0, 62, 64
2, 16080, Note_off_c, 0, 62, 64
2, 16080, Note_on_c, 0, 60, 64
2, 16140, Note_off_c, 0, 60, 64
2, 16140, Note_on_c, 0, 62, 64
2, 16200, Note_off_c, 0, 62, 64
2, 16200, Note_on_c, 0, 57, 64
2, 16260, Note_off_c, 0, 57, 64
2, 16260, Note_on_c, 0, 62, 64
2, 16320, Note_off_c, 0, 62, 64
2, 16320, Note_on_c, 0, 86, 64
2, 16380, Note_on_c, 0, 59, 64
2, 16440, Note_off_c, 0, 59, 64
2, 16440, Note_on_c, 0, 62, 64
2, 16500, Note_off_c, 0, 62, 64
2, 16500, Note_on_c, 0, 67, 64
2, 16560, Note_off_c, 0, 67, 64
2, 16560, Note_off_c, 0, 86, 64
2, 16560, Note_on_c, 0, 71, 64
2, 16620, Note_on_c, 0, 86, 64
2, 16680, Note_off_c, 0, 86, 64
2, 16680, Note_on_c, 0, 83, 64
2, 16740, Note_off_c, 0, 83, 64
2, 16740, Note_on_c, 0, 79, 64
2, 16800, Note_off_c, 0, 79, 64
2, 16800, Note_off_c, 0, 71, 64
2, 16800, Note_on_c, 0, 76, 64
2, 16860, Note_on_c, 0, 60, 64
2, 16920, Note_off_c, 0, 60, 64
2, 16920, Note_on_c, 0, 64, 64
2, 16980, Note_off_c, 0, 64, 64
2, 16980, Note_on_c, 0, 67, 64
2, 17040, Note_off_c, 0, 67, 64
2, 17040, Note_off_c, 0, 76, 64
2, 17040, Note_on_c, 0, 72, 64
2, 17100, Note_on_c, 0, 76, 64
2, 17160, Note_off_c, 0, 76, 64
2, 17160, Note_on_c, 0, 79, 64
2, 17220, Note_off_c, 0, 79, 64
2, 17220, Note_on_c, 0, 76, 64
2, 17280, Note_off_c, 0, 76, 64
2, 17280, Note_off_c, 0, 72, 64
2, 17280, Note_on_c, 0, 84, 64
2, 17340, Note_on_c, 0, 57, 64
2, 17400, Note_off_c, 0, 57, 64
2, 17400, Note_on_c, 0, 60, 64
2, 17460, Note_off_c, 0, 60, 64
2, 17460, Note_on_c, 0, 66, 64
2, 17520, Note_off_c, 0, 66, 64
2, 17520, Note_off_c, 0, 84, 64
2, 17520, Note_on_c, 0, 69, 64
2, 17580, Note_on_c, 0, 84, 64
2, 17640, Note_off_c, 0, 84, 64
2, 17640, Note_on_c, 0, 81, 64
2, 17700, Note_off_c, 0, 81, 64
2, 17700, Note_on_c, 0, 78, 64
2, 17760, Note_off_c, 0, 78, 64
2, 17760, Note_off_c, 0, 69, 64
2, 17760, Note_on_c, 0, 74, 64
2, 17820, Note_on_c, 0, 59, 64
2, 17880, Note_off_c, 0, 59, 64
2, 17880, Note_on_c, 0, 62, 64
2, 17940, Note_off_c, 0, 62, 64
2, 17940, Note_on_c, 0, 66, 64
2, 18000, Note_off_c, 0, 66, 64
2, 18000, Note_off_c, 0, 74, 64
2, 18000, Note_on_c, 0, 71, 64
2, 18060, Note_on_c, 0, 74, 64
2, 18120, Note_off_c, 0, 74, 64
2, 18120, Note_on_c, 0, 78, 64
2, 18180, Note_off_c, 0, 78, 64
2, 18180, Note_on_c, 0, 74, 64
2, 18240, Note_off_c, 0, 74, 64
2, 18240, Note_off_c, 0, 71, 64
2, 18240, Note_on_c, 0, 83, 64
2, 18300, Note_on_c, 0, 55, 64
2, 18360, Note_off_c, 0, 55, 64
2, 18360, Note_on_c, 0, 59, 64
2, 18420, Note_off_c, 0, 59, 64
2, 18420, Note_on_c, 0, 64, 64
2, 18480, Note_off_c, 0, 64, 64
2, 18480, Note_off_c, 0, 83, 64
2, 18480, Note_on_c, 0, 67, 64
2, 18540, Note_on_c, 0, 83, 64
2, 18600, Note_off_c, 0, 83, 64
2, 18600, Note_on_c, 0, 79, 64
2, 18660, Note_off_c, 0, 79, 64
2, 18660, Note_on_c, 0, 76, 64
2, 18720, Note_off_c, 0, 76, 64
2, 18720, Note_off_c, 0, 67, 64
2, 18720, Note_on_c, 0, 72, 64
2, 18780, Note_on_c, 0, 57, 64
2, 18840, Note_off_c, 0, 57, 64
2, 18840, Note_on_c, 0, 60, 64
2, 18900, Note_off_c, 0, 60, 64
2, 18900, Note_on_c, 0, 64, 64
2, 18960, Note_off_c, 0, 64, 64
2, 18960, Note_off_c, 0, 72, 64
2, 18960, Note_on_c, 0, 69, 64
2, 19020, Note_on_c, 0, 72, 64
2, 19080, Note_off_c, 0, 72, 64
2, 19080, Note_on_c, 0, 76, 64
2, 19140, Note_off_c, 0, 76, 64
2, 19140, Note_on_c, 0, 72, 64
2, 19200, Note_off_c, 0, 72, 64
2, 19200, Note_off_c, 0, 69, 64
2, 19200, Note_on_c, 0, 81, 64
2, 19260, Note_on_c, 0, 54, 64
2, 19320, Note_off_c, 0, 54, 64
2, 19320, Note_on_c, 0, 57, 64
2, 19380, Note_off_c, 0, 57, 64
2, 19380, Note_on_c, 0, 62, 64
2, 19440, Note_off_c, 0, 62, 64
2, 19440, Note_off_c, 0, 81, 64
2, 19440, Note_on_c, 0, 66, 64
2, 19500, Note_on_c, 0, 81, 64
2, 19560, Note_off_c, 0, 81, 64
2, 19560, Note_on_c, 0, 78, 64
2, 19620, Note_off_c, 0, 78, 64
2, 19620, Note_on_c, 0, 74, 64
2, 19680, Note_off_c, 0, 74, 64
2, 19680, Note_off_c, 0, 66, 64
2, 19680, Note_on_c, 0, 71, 64
2, 19740, Note_on_c, 0, 55, 64
2, 19800, Note_off_c, 0, 55, 64
2, 19800, Note_on_c, 0, 59, 64
2, 19860, Note_off_c, 0, 59, 64
2, 19860, Note_on_c, 0, 62, 64
2, 19920, Note_off_c, 0, 62, 64
2, 19920, Note_off_c, 0, 71, 64
2, 19920, Note_on_c, 0, 67, 64
2, 19980, Note_on_c, 0, 79, 64
2, 20040, Note_off_c, 0, 79, 64
2, 20040, Note_on_c, 0, 74, 64
2, 20100, Note_off_c, 0, 74, 64
2, 20100, Note_on_c, 0, 71, 64
2, 20160, Note_off_c, 0, 71, 64
2, 20160, Note_off_c, 0, 67, 64
2, 20160, Note_on_c, 0, 64, 64
2, 20160, Note_on_c, 0, 60, 64
2, 20160, Note_on_c, 0, 69, 64
2, 20256, Note_off_c, 0, 60, 64
2, 20256, Note_off_c, 0, 64, 64
2, 20280, Note_on_c, 0, 64, 64
2, 20280, Note_on_c, 0, 60, 64
2, 20376, Note_off_c, 0, 60, 64
2, 20376, Note_off_c, 0, 64, 64
2, 20400, Note_on_c, 0, 64, 64
2, 20400, Note_on_c, 0, 60, 64
2, 20496, Note_off_c, 0, 60, 64
2, 20496, Note_off_c, 0, 64, 64
2, 20520, Note_on_c, 0, 64, 64
2, 20520, Note_on_c, 0, 60, 64
2, 20616, Note_off_c, 0, 60, 64
2, 20616, Note_off_c, 0, 64, 64
2, 20640, Note_off_c, 0, 69, 64
2, 20640, Note_on_c, 0, 64, 64
2, 20640, Note_on_c, 0, 60, 64
2, 20640, Note_on_c, 0, 71, 72
2, 20670, Note_off_c, 0, 71, 64
2, 20670, Note_on_c, 0, 72, 64
2, 20736, Note_off_c, 0, 60, 64
2, 20736, Note_off_c, 0, 64, 64
2, 20760, Note_on_c, 0, 64, 64
2, 20760, Note_on_c, 0, 60, 64
2, 20856, Note_off_c, 0, 60, 64
2, 20856, Note_off_c, 0, 64, 64
2, 20880, Note_off_c, 0, 72, 64
2, 20880, Note_on_c, 0, 64, 64
2, 20880, Note_on_c, 0, 60, 64
2, 20880, Note_on_c, 0, 75, 72
2, 20910, Note_off_c, 0, 75, 64
2, 20910, Note_on_c, 0, 76, 64
2, 20976, Note_off_c, 0, 60, 64
2, 20976, Note_off_c, 0, 64, 64
2, 21000, Note_on_c, 0, 60, 64
2, 21000, Note_on_c, 0, 64, 64
2, 21096, Note_off_c, 0, 64, 64
2, 21096, Note_off_c, 0, 60, 64
2, 21120, Note_off_c, 0, 76, 64
2, 21120, Note_on_c, 0, 64, 64
2, 21120, Note_on_c, 0, 60, 64
2, 21120, Note_on_c, 0, 80, 72
2, 21150, Note_off_c, 0, 80, 64
2, 21150, Note_on_c, 0, 81, 64
2, 21216, Note_off_c, 0, 60, 64
2, 21216, Note_off_c, 0, 64, 64
2, 21240, Note_on_c, 0, 64, 64
2, 21240, Note_on_c, 0, 60, 64
2, 21336, Note_off_c, 0, 60, 64
2, 21336, Note_off_c, 0, 64, 64
2, 21360, Note_on_c, 0, 64, 64
2, 21360, Note_on_c, 0, 60, 64
2, 21456, Note_off_c, 0, 60, 64
2, 21456, Note_off_c, 0, 64, 64
2, 21480, Note_off_c, 0, 81, 64
2, 21480, Note_on_c, 0, 64, 64
2, 21480, Note_on_c, 0, 60, 64
2, 21480, Note_on_c, 0, 83, 64
2, 21510, Note_off_c, 0, 83, 64
2, 21510, Note_on_c, 0, 81, 64
2, 21540, Note_off_c, 0, 81, 64
2, 21540, Note_on_c, 0, 80, 64
2, 21570, Note_off_c, 0, 80, 64
2, 21570, Note_on_c, 0, 81, 64
2, 21576, Note_off_c, 0, 60, 64
2, 21576, Note_off_c, 0, 64, 64
2, 21600, Note_off_c, 0, 81, 64
2, 21600, Note_on_c, 0, 64, 64
2, 21600, Note_on_c, 0, 60, 64
2, 21600, Note_on_c, 0, 84, 64
2, 21696, Note_off_c, 0, 60, 64
2, 21696, Note_off_c, 0, 64, 64
2, 21720, Note_off_c, 0, 84, 64
2, 21720, Note_on_c, 0, 64, 64
2, 21720, Note_on_c, 0, 60, 64
2, 21720, Note_on_c, 0, 81, 64
2, 21816, Note_off_c, 0, 60, 64
2, 21816, Note_off_c, 0, 64, 64
2, 21840, Note_off_c, 0, 81, 64
2, 21840, Note_on_c, 0, 64, 64
2, 21840, Note_on_c, 0, 60, 64
2, 21840, Note_on_c, 0, 84, 64
2, 21936, Note_off_c, 0, 60, 64
2, 21936, Note_off_c, 0, 64, 64
2, 21960, Note_off_c, 0, 84, 64
2, 21960, Note_on_c, 0, 60, 64
2, 21960, Note_on_c, 0, 64, 64
2, 21960, Note_on_c, 0, 81, 64
2, 22056, Note_off_c, 0, 64, 64
2, 22056, Note_off_c, 0, 60, 64
2, 22080, Note_off_c, 0, 81, 64
2, 22080, Note_on_c, 0, 83, 64
2, 22080, Note_on_c, 0, 62, 64
2, 22140, Note_off_c, 0, 62, 64
2, 22140, Note_on_c, 0, 71, 64
2, 22200, Note_off_c, 0, 71, 64
2, 22200, Note_off_c, 0, 83, 64
2, 22200, Note_on_c, 0, 79, 64
2, 22200, Note_on_c, 0, 67, 64
2, 22260, Note_off_c, 0, 67, 64
2, 22260, Note_on_c, 0, 71, 64
2, 22320, Note_off_c, 0, 71, 64
2, 22320, Note_off_c, 0, 79, 64
2, 22320, Note_on_c, 0, 86, 64
2, 22320, Note_on_c, 0, 62, 64
2, 22380, Note_off_c, 0, 62, 64
2, 22380, Note_on_c, 0, 71, 64
2, 22440, Note_off_c, 0, 71, 64
2, 22440, Note_on_c, 0, 67, 64
2, 22500, Note_off_c, 0, 67, 64
2, 22500, Note_on_c, 0, 71, 64
2, 22560, Note_off_c, 0, 71, 64
2, 22560, Note_on_c, 0, 62, 64
2, 22620, Note_off_c, 0, 62, 64
2, 22620, Note_on_c, 0, 71, 64
2, 22680, Note_off_c, 0, 71, 64
2, 22680, Note_on_c, 0, 67, 64
2, 22740, Note_off_c, 0, 67, 64
2, 22740, Note_on_c, 0, 71, 64
2, 22800, Note_off_c, 0, 71, 64
2, 22800, Note_off_c, 0, 86, 64
2, 22800, Note_on_c, 0, 84, 64
2, 22800, Note_on_c, 0, 62, 64
2, 22860, Note_off_c, 0, 62, 64
2, 22860, Note_off_c, 0, 84, 64
2, 22860, Note_on_c, 0, 83, 64
2, 22860, Note_on_c, 0, 71, 64
2, 22920, Note_off_c, 0, 71, 64
2, 22920, Note_off_c, 0, 83, 64
2, 22920, Note_on_c, 0, 81, 64
2, 22920, Note_on_c, 0, 67, 64
2, 22980, Note_off_c, 0, 67, 64
2, 22980, Note_off_c, 0, 81, 64
2, 22980, Note_on_c, 0, 71, 64
2, 22980, Note_on_c, 0, 79, 64
2, 23040, Note_off_c, 0, 79, 64
2, 23040, Note_off_c, 0, 71, 64
2, 23040, Note_on_c, 0, 83, 64
2, 23040, Note_on_c, 0, 62, 64
2, 23070, Note_off_c, 0, 83, 64
2, 23070, Note_on_c, 0, 81, 48
2, 23100, Note_off_c, 0, 62, 64
2, 23100, Note_on_c, 0, 72, 48
2, 23100, Note_on_c, 0, 83, 48
2, 23103, Note_off_c, 0, 81, 64
2, 23130, Note_on_c, 0, 81, 49
2, 23133, Note_off_c, 0, 83, 64
2, 23160, Note_on_c, 0, 66, 49
2, 23160, Note_on_c, 0, 83, 49
2, 23163, Note_off_c, 0, 81, 64
2, 23166, Note_off_c, 0, 72, 64
2, 23190, Note_on_c, 0, 81, 50
2, 23193, Note_off_c, 0, 83, 64
2, 23220, Note_on_c, 0, 72, 50
2, 23220, Note_on_c, 0, 83, 50
2, 23223, Note_off_c, 0, 81, 64
2, 23226, Note_off_c, 0, 66, 64
2, 23250, Note_on_c, 0, 81, 51
2, 23253, Note_off_c, 0, 83, 64
2, 23280, Note_on_c, 0, 62, 52
2, 23280, Note_on_c, 0, 83, 52
2, 23283, Note_off_c, 0, 81, 64
2, 23286, Note_off_c, 0, 72, 64
2, 23310, Note_on_c, 0, 81, 52
2, 23313, Note_off_c, 0, 83, 64
2, 23340, Note_on_c, 0, 72, 53
2, 23340, Note_on_c, 0, 83, 53
2, 23343, Note_off_c, 0, 81, 64
2, 23346, Note_off_c, 0, 62, 64
2, 23370, Note_on_c, 0, 81, 53
2, 23373, Note_off_c, 0, 83, 64
2, 23400, Note_on_c, 0, 66, 54
2, 23400, Note_on_c, 0, 83, 54
2, 23403, Note_off_c, 0, 81, 64
2, 23406, Note_off_c, 0, 72, 64
2, 23430, Note_on_c, 0, 81, 54
2, 23433, Note_off_c, 0, 83, 64
2, 23460, Note_on_c, 0, 72, 55
2, 23460, Note_on_c, 0, 83, 55
2, 23463, Note_off_c, 0, 81, 64
2, 23466, Note_off_c, 0, 66, 64
2, 23490, Note_on_c, 0, 81, 56
2, 23493, Note_off_c, 0, 83, 64
2, 23520, Note_on_c, 0, 62, 56
2, 23520, Note_on_c, 0, 83, 56
2, 23523, Note_off_c, 0, 81, 64
2, 23526, Note_off_c, 0, 72, 64
2, 23550, Note_on_c, 0, 81, 57
2, 23553, Note_off_c, 0, 83, 64
2, 23580, Note_on_c, 0, 72, 57
2, 23580, Note_on_c, 0, 83, 57
2, 23583, Note_off_c, 0, 81, 64
2, 23586, Note_off_c, 0, 62, 64
2, 23610, Note_on_c, 0, 81, 58
2, 23613, Note_off_c, 0, 83, 64
2, 23640, Note_on_c, 0, 66, 58
2, 23640, Note_on_c, 0, 83, 58
2, 23643, Note_off_c, 0, 81, 64
2, 23646, Note_off_c, 0, 72, 64
2, 23670, Note_on_c, 0, 81, 59
2, 23673, Note_off_c, 0, 83, 64
2, 23700, Note_on_c, 0, 72, 59
2, 23700, Note_on_c, 0, 83, 59
2, 23703, Note_off_c, 0, 81, 64
2, 23706, Note_off_c, 0, 66, 64
2, 23730, Note_on_c, 0, 81, 60
2, 23733, Note_off_c, 0, 83, 64
2, 23760, Note_on_c, 0, 62, 61
2, 23760, Note_on_c, 0, 83, 61
2, 23763, Note_off_c, 0, 81, 64
2, 23766, Note_off_c, 0, 72, 64
2, 23790, Note_on_c, 0, 81, 61
2, 23793, Note_off_c, 0, 83, 64
2, 23820, Note_on_c, 0, 72, 62
2, 23820, Note_on_c, 0, 83, 62
2, 23823, Note_off_c, 0, 81, 64
2, 23826, Note_off_c, 0, 62, 64
2, 23850, Note_on_c, 0, 81, 62
2, 23853, Note_off_c, 0, 83, 64
2, 23880, Note_on_c, 0, 66, 63
2, 23880, Note_on_c, 0, 83, 63
2, 23883, Note_off_c, 0, 81, 64
2, 23886, Note_off_c, 0, 72, 64
2, 23910, Note_on_c, 0, 81, 63
2, 23913, Note_off_c, 0, 83, 64
2, 23940, Note_on_c, 0, 72, 64
2, 23940, Note_on_c, 0, 79, 64
2, 23943, Note_off_c, 0, 81, 64
2, 23946, Note_off_c, 0, 66, 64
2, 23970, Note_off_c, 0, 79, 64
2, 23970, Note_on_c, 0, 81, 64
2, 24000, Note_off_c, 0, 81, 64
2, 24000, Note_off_c, 0, 72, 64
2, 24000, Note_on_c, 0, 79, 64
2, 24000, Note_on_c, 0, 67, 64
2, 24000, Note_on_c, 0, 71, 64
2, 24240, Note_off_c, 0, 71, 64
2, 24240, Note_off_c, 0, 67, 64
2, 24240, Note_off_c, 0, 79, 64
2, 24240, Note_on_c, 0, 79, 64
2, 24300, Note_off_c, 0, 79, 64
2, 24300, Note_on_c, 0, 74, 64
2, 24360, Note_off_c, 0, 74, 64
2, 24360, Note_on_c, 0, 79, 64
2, 24420, Note_off_c, 0, 79, 64
2, 24420, Note_on_c, 0, 83, 64
2, 24480, Note_off_c, 0, 83, 64
2, 24480, Note_on_c, 0, 86, 64
2, 24540, Note_off_c, 0, 86, 64
2, 24540, Note_on_c, 0, 83, 64
2, 24600, Note_off_c, 0, 83, 64
2, 24600, Note_on_c, 0, 79, 64
2, 24660, Note_off_c, 0, 79, 64
2, 24660, Note_on_c, 0, 83, 64
2, 24720, Note_off_c, 0, 83, 64
2, 24720, Note_on_c, 0, 72, 64
2, 24720, Note_on_c, 0, 69, 64
2, 24720, Note_on_c, 0, 62, 64
2, 24720, Note_on_c, 0, 84, 64
2, 24780, Note_off_c, 0, 84, 64
2, 24780, Note_on_c, 0, 81, 64
2, 24840, Note_off_c, 0, 81, 64
2, 24840, Note_on_c, 0, 78, 64
2, 24900, Note_off_c, 0, 78, 64
2, 24900, Note_on_c, 0, 81, 64
2, 24960, Note_off_c, 0, 81, 64
2, 24960, Note_off_c, 0, 62, 64
2, 24960, Note_off_c, 0, 69, 64
2, 24960, Note_off_c, 0, 72, 64
2, 24960, Note_on_c, 0, 67, 64
2, 24960, Note_on_c, 0, 79, 64
2, 24960, Note_on_c, 0, 71, 64
2, 25200, Note_off_c, 0, 71, 64
2, 25200, Note_off_c, 0, 79, 64
2, 25200, Note_off_c, 0, 67, 64
2, 25200, Note_on_c, 0, 67, 64
2, 25260, Note_off_c, 0, 67, 64
2, 25260, Note_on_c, 0, 62, 64
2, 25320, Note_off_c, 0, 62, 64
2, 25320, Note_on_c, 0, 67, 64
2, 25380, Note_off_c, 0, 67, 64
2, 25380, Note_on_c, 0, 71, 64
2, 25440, Note_off_c, 0, 71, 64
2, 25440, Note_on_c, 0, 74, 64
2, 25500, Note_off_c, 0, 74, 64
2, 25500, Note_on_c, 0, 71, 64
2, 25560, Note_off_c, 0, 71, 64
2, 25560, Note_on_c, 0, 67, 64
2, 25620, Note_off_c, 0, 67, 64
2, 25620, Note_on_c, 0, 71, 64
2, 25680, Note_off_c, 0, 71, 64
2, 25680, Note_on_c, 0, 72, 64
2, 25680, Note_on_c, 0, 60, 64
2, 25680, Note_on_c, 0, 57, 64
2, 25680, Note_on_c, 0, 50, 64
2, 25740, Note_off_c, 0, 72, 64
2, 25740, Note_on_c, 0, 69, 64
2, 25800, Note_off_c, 0, 69, 64
2, 25800, Note_on_c, 0, 66, 64
2, 25860, Note_off_c, 0, 66, 64
2, 25860, Note_on_c, 0, 69, 64
2, 25920, Note_off_c, 0, 69, 64
2, 25920, Note_off_c, 0, 50, 64
2, 25920, Note_off_c, 0, 57, 64
2, 25920, Note_off_c, 0, 60, 64
2, 25920, Note_on_c, 0, 59, 64
2, 25920, Note_on_c, 0, 55, 64
2, 25920, Note_on_c, 0, 67, 64
2, 26112, Note_off_c, 0, 67, 64
2, 26112, Note_off_c, 0, 55, 64
2, 26112, Note_off_c, 0, 59, 64
2, 26160, Note_on_c, 0, 55, 64
2, 26160, Note_on_c, 0, 43, 64
2, 26160, Note_on_c, 0, 83, 64
2, 26160, Note_on_c, 0, 74, 64
2, 26352, Note_off_c, 0, 74, 64
2, 26352, Note_off_c, 0, 83, 64
2, 26352, Note_off_c, 0, 43, 64
2, 26352, Note_off_c, 0, 55, 64
2, 26400, Note_on_c, 0, 55, 64
2, 26400, Note_on_c, 0, 43, 64
2, 26400, Note_on_c, 0, 79, 64
2, 26400, Note_on_c, 0, 71, 64
2, 26592, Note_off_c, 0, 71, 64
2, 26592, Note_off_c, 0, 79, 64
2, 26592, Note_off_c, 0, 43, 64
2, 26592, Note_off_c, 0, 55, 64
2, 26880, Note_on_c, 0, 72, 64
2, 26880, Note_on_c, 0, 60, 64
2, 27000, Note_off_c, 0, 60, 64
2, 27000, Note_on_c, 0, 67, 64
2, 27120, Note_off_c, 0, 67, 64
2, 27120, Note_on_c, 0, 64, 64
2, 27240, Note_off_c, 0, 64, 64
2, 27240, Note_on_c, 0, 67, 64
2, 27360, Note_off_c, 0, 67, 64
2, 27360, Note_off_c, 0, 72, 64
2, 27360, Note_on_c, 0, 76, 64
2, 27360, Note_on_c, 0, 60, 64
2, 27480, Note_off_c, 0, 60, 64
2, 27480, Note_on_c, 0, 67, 64
2, 27600, Note_off_c, 0, 67, 64
2, 27600, Note_off_c, 0, 76, 64
2, 27600, Note_on_c, 0, 79, 64
2, 27600, Note_on_c, 0, 64, 64
2, 27720, Note_off_c, 0, 64, 64
2, 27720, Note_on_c, 0, 67, 64
2, 27840, Note_off_c, 0, 67, 64
2, 27840, Note_off_c, 0, 79, 64
2, 27840, Note_on_c, 0, 71, 64
2, 27840, Note_on_c, 0, 62, 64
2, 27960, Note_off_c, 0, 62, 64
2, 27960, Note_on_c, 0, 67, 64
2, 28080, Note_off_c, 0, 67, 64
2, 28080, Note_on_c, 0, 65, 64
2, 28200, Note_off_c, 0, 65, 64
2, 28200, Note_off_c, 0, 71, 64
2, 28200, Note_on_c, 0, 72, 64
2, 28200, Note_on_c, 0, 67, 64
2, 28260, Note_off_c, 0, 72, 64
2, 28260, Note_on_c, 0, 74, 64
2, 28320, Note_off_c, 0, 74, 64
2, 28320, Note_off_c, 0, 67, 64
2, 28320, Note_on_c, 0, 72, 64
2, 28320, Note_on_c, 0, 60, 64
2, 28440, Note_off_c, 0, 60, 64
2, 28440, Note_on_c, 0, 67, 64
2, 28560, Note_off_c, 0, 67, 64
2, 28560, Note_on_c, 0, 64, 64
2, 28680, Note_off_c, 0, 64, 64
2, 28680, Note_on_c, 0, 67, 64
2, 28800, Note_off_c, 0, 67, 64
2, 28800, Note_off_c, 0, 72, 64
2, 28800, Note_on_c, 0, 81, 64
2, 28800, Note_on_c, 0, 60, 64
2, 28920, Note_off_c, 0, 60, 64
2, 28920, Note_on_c, 0, 69, 64
2, 29040, Note_off_c, 0, 69, 64
2, 29040, Note_on_c, 0, 65, 64
2, 29160, Note_off_c, 0, 65, 64
2, 29160, Note_on_c, 0, 69, 64
2, 29280, Note_off_c, 0, 69, 64
2, 29280, Note_off_c, 0, 81, 64
2, 29280, Note_on_c, 0, 79, 64
2, 29280, Note_on_c, 0, 60, 64
2, 29400, Note_off_c, 0, 60, 64
2, 29400, Note_on_c, 0, 67, 64
2, 29520, Note_off_c, 0, 67, 64
2, 29520, Note_off_c, 0, 79, 64
2, 29520, Note_on_c, 0, 84, 64
2, 29520, Note_on_c, 0, 64, 64
2, 29640, Note_off_c, 0, 64, 64
2, 29640, Note_on_c, 0, 67, 64
2, 29760, Note_off_c, 0, 67, 64
2, 29760, Note_off_c, 0, 84, 64
2, 29760, Note_on_c, 0, 79, 64
2, 29760, Note_on_c, 0, 59, 64
2, 29880, Note_off_c, 0, 59, 64
2, 29880, Note_on_c, 0, 67, 64
2, 30000, Note_off_c, 0, 67, 64
2, 30000, Note_off_c, 0, 79, 64
2, 30000, Note_on_c, 0, 77, 64
2, 30000, Note_on_c, 0, 62, 64
2, 30039, Note_off_c, 0, 77, 64
2, 30039, Note_on_c, 0, 79, 64
2, 30079, Note_off_c, 0, 79, 64
2, 30079, Note_on_c, 0, 77, 64
2, 30119, Note_off_c, 0, 77, 64
2, 30120, Note_off_c, 0, 62, 64
2, 30120, Note_on_c, 0, 76, 64
2, 30120, Note_on_c, 0, 67, 64
2, 30180, Note_off_c, 0, 76, 64
2, 30180, Note_on_c, 0, 77, 64
2, 30240, Note_off_c, 0, 77, 64
2, 30240, Note_off_c, 0, 67, 64
2, 30240, Note_on_c, 0, 76, 64
2, 30240, Note_on_c, 0, 60, 64
2, 30360, Note_off_c, 0, 60, 64
2, 30360, Note_on_c, 0, 67, 64
2, 30480, Note_off_c, 0, 67, 64
2, 30480, Note_off_c, 0, 76, 64
2, 30480, Note_on_c, 0, 64, 64
2, 30600, Note_off_c, 0, 64, 64
2, 30600, Note_on_c, 0, 67, 64
2, 30720, Note_off_c, 0, 67, 64
2, 30720, Note_on_c, 0, 69, 64
2, 30720, Note_on_c, 0, 65, 64
2, 30840, Note_off_c, 0, 69, 64
2, 30840, Note_on_c, 0, 71, 64
2, 30900, Note_off_c, 0, 71, 64
2, 30900, Note_on_c, 0, 72, 64
2, 30960, Note_off_c, 0, 72, 64
2, 30960, Note_off_c, 0, 65, 64
2, 30960, Note_on_c, 0, 74, 64
2, 31020, Note_off_c, 0, 74, 64
2, 31020, Note_on_c, 0, 76, 64
2, 31080, Note_off_c, 0, 76, 64
2, 31080, Note_on_c, 0, 77, 64
2, 31140, Note_off_c, 0, 77, 64
2, 31140, Note_on_c, 0, 79, 64
2, 31200, Note_off_c, 0, 79, 64
2, 31200, Note_on_c, 0, 81, 64
2, 31260, Note_off_c, 0, 81, 64
2, 31260, Note_on_c, 0, 79, 64
2, 31320, Note_off_c, 0, 79, 64
2, 31320, Note_on_c, 0, 77, 64
2, 31380, Note_off_c, 0, 77, 64
2, 31380, Note_on_c, 0, 76, 64
2, 31440, Note_off_c, 0, 76, 64
2, 31440, Note_on_c, 0, 60, 64
2, 31440, Note_on_c, 0, 53, 64
2, 31440, Note_on_c, 0, 74, 64
2, 31500, Note_off_c, 0, 74, 64
2, 31500, Note_on_c, 0, 72, 64
2, 31560, Note_off_c, 0, 72, 64
2, 31560, Note_on_c, 0, 71, 64
2, 31620, Note_off_c, 0, 71, 64
2, 31620, Note_on_c, 0, 69, 64
2, 31680, Note_off_c, 0, 69, 64
2, 31680, Note_off_c, 0, 53, 64
2, 31680, Note_off_c, 0, 60, 64
2, 31680, Note_on_c, 0, 67, 64
2, 31680, Note_on_c, 0, 52, 64
2, 31680, Note_on_c, 0, 60, 64
2, 31800, Note_off_c, 0, 67, 64
2, 31800, Note_on_c, 0, 69, 64
2, 31860, Note_off_c, 0, 69, 64
2, 31860, Note_on_c, 0, 71, 64
2, 31920, Note_off_c, 0, 71, 64
2, 31920, Note_off_c, 0, 60, 64
2, 31920, Note_off_c, 0, 52, 64
2, 31920, Note_on_c, 0, 72, 64
2, 31980, Note_off_c, 0, 72, 64
2, 31980, Note_on_c, 0, 74, 64
2, 32040, Note_off_c, 0, 74, 64
2, 32040, Note_on_c, 0, 76, 64
2, 32100, Note_off_c, 0, 76, 64
2, 32100, Note_on_c, 0, 77, 64
2, 32160, Note_off_c, 0, 77, 64
2, 32160, Note_on_c, 0, 79, 64
2, 32220, Note_off_c, 0, 79, 64
2, 32220, Note_on_c, 0, 77, 64
2, 32280, Note_off_c, 0, 77, 64
2, 32280, Note_on_c, 0, 76, 64
2, 32340, Note_off_c, 0, 76, 64
2, 32340, Note_on_c, 0, 74, 64
2, 32400, Note_off_c, 0, 74, 64
2, 32400, Note_on_c, 0, 60, 64
2, 32400, Note_on_c, 0, 52, 64
2, 32400, Note_on_c, 0, 72, 64
2, 32460, Note_off_c, 0, 72, 64
2, 32460, Note_on_c, 0, 71, 64
2, 32520, Note_off_c, 0, 71, 64
2, 32520, Note_on_c, 0, 69, 64
2, 32580, Note_off_c, 0, 69, 64
2, 32580, Note_on_c, 0, 67, 64
2, 32640, Note_off_c, 0, 67, 64
2, 32640, Note_off_c, 0, 52, 64
2, 32640, Note_off_c, 0, 60, 64
2, 32640, Note_on_c, 0, 65, 64
2, 32640, Note_on_c, 0, 50, 64
2, 32640, Note_on_c, 0, 60, 64
2, 32760, Note_off_c, 0, 65, 64
2, 32760, Note_on_c, 0, 67, 64
2, 32820, Note_off_c, 0, 67, 64
2, 32820, Note_on_c, 0, 69, 64
2, 32880, Note_off_c, 0, 69, 64
2, 32880, Note_off_c, 0, 60, 64
2, 32880, Note_off_c, 0, 50, 64
2, 32880, Note_on_c, 0, 71, 64
2, 32940, Note_off_c, 0, 71, 64
2, 32940, Note_on_c, 0, 72, 64
2, 33000, Note_off_c, 0, 72, 64
2, 33000, Note_on_c, 0, 74, 64
2, 33060, Note_off_c, 0, 74, 64
2, 33060, Note_on_c, 0, 76, 64
2, 33120, Note_off_c, 0, 76, 64
2, 33120, Note_on_c, 0, 77, 64
2, 33180, Note_off_c, 0, 77, 64
2, 33180, Note_on_c, 0, 76, 64
2, 33240, Note_off_c, 0, 76, 64
2, 33240, Note_on_c, 0, 74, 64
2, 33300, Note_off_c, 0, 74, 64
2, 33300, Note_on_c, 0, 72, 64
2, 33360, Note_off_c, 0, 72, 64
2, 33360, Note_on_c, 0, 59, 64
2, 33360, Note_on_c, 0, 50, 64
2, 33360, Note_on_c, 0, 71, 64
2, 33420, Note_off_c, 0, 71, 64
2, 33420, Note_on_c, 0, 69, 64
2, 33480, Note_off_c, 0, 69, 64
2, 33480, Note_on_c, 0, 67, 64
2, 33540, Note_off_c, 0, 67, 64
2, 33540, Note_on_c, 0, 65, 64
2, 33600, Note_off_c, 0, 65, 64
2, 33600, Note_off_c, 0, 50, 64
2, 33600, Note_off_c, 0, 59, 64
2, 33600, Note_on_c, 0, 64, 64
2, 33600, Note_on_c, 0, 48, 64
2, 33600, Note_on_c, 0, 60, 64
2, 33720, Note_off_c, 0, 64, 64
2, 33720, Note_on_c, 0, 65, 64
2, 33780, Note_off_c, 0, 65, 64
2, 33780, Note_on_c, 0, 67, 64
2, 33840, Note_off_c, 0, 67, 64
2, 33840, Note_off_c, 0, 60, 64
2, 33840, Note_off_c, 0, 48, 64
2, 33840, Note_on_c, 0, 69, 64
2, 33900, Note_off_c, 0, 69, 64
2, 33900, Note_on_c, 0, 71, 64
2, 33960, Note_off_c, 0, 71, 64
2, 33960, Note_on_c, 0, 72, 64
2, 34020, Note_off_c, 0, 72, 64
2, 34020, Note_on_c, 0, 74, 64
2, 34080, Note_off_c, 0, 74, 64
2, 34080, Note_on_c, 0, 76, 64
2, 34140, Note_off_c, 0, 76, 64
2, 34140, Note_on_c, 0, 74, 64
2, 34200, Note_off_c, 0, 74, 64
2, 34200, Note_on_c, 0, 72, 64
2, 34260, Note_off_c, 0, 72, 64
2, 34260, Note_on_c, 0, 71, 64
2, 34320, Note_off_c, 0, 71, 64
2, 34320, Note_on_c, 0, 52, 64
2, 34320, Note_on_c, 0, 48, 64
2, 34320, Note_on_c, 0, 69, 64
2, 34380, Note_off_c, 0, 69, 64
2, 34380, Note_on_c, 0, 67, 64
2, 34440, Note_off_c, 0, 67, 64
2, 34440, Note_on_c, 0, 65, 64
2, 34500, Note_off_c, 0, 65, 64
2, 34500, Note_on_c, 0, 64, 64
2, 34560, Note_off_c, 0, 64, 64
2, 34560, Note_off_c, 0, 48, 64
2, 34560, Note_off_c, 0, 52, 64
2, 34560, Note_on_c, 0, 57, 64
2, 34560, Note_on_c, 0, 53, 64
2, 34560, Note_on_c, 0, 62, 64
2, 34680, Note_off_c, 0, 62, 64
2, 34680, Note_on_c, 0, 64, 64
2, 34740, Note_off_c, 0, 64, 64
2, 34740, Note_on_c, 0, 65, 64
2, 34800, Note_off_c, 0, 65, 64
2, 34800, Note_on_c, 0, 67, 64
2, 34860, Note_off_c, 0, 67, 64
2, 34860, Note_on_c, 0, 69, 64
2, 34920, Note_off_c, 0, 69, 64
2, 34920, Note_on_c, 0, 71, 64
2, 34980, Note_off_c, 0, 71, 64
2, 34980, Note_on_c, 0, 73, 64
2, 35040, Note_off_c, 0, 73, 64
2, 35040, Note_on_c, 0, 74, 64
2, 35100, Note_off_c, 0, 74, 64
2, 35100, Note_on_c, 0, 69, 64
2, 35160, Note_off_c, 0, 69, 64
2, 35160, Note_on_c, 0, 71, 64
2, 35220, Note_off_c, 0, 71, 64
2, 35220, Note_on_c, 0, 73, 64
2, 35280, Note_off_c, 0, 73, 64
2, 35280, Note_on_c, 0, 74, 64
2, 35340, Note_off_c, 0, 74, 64
2, 35340, Note_on_c, 0, 76, 64
2, 35400, Note_off_c, 0, 76, 64
2, 35400, Note_on_c, 0, 77, 64
2, 35460, Note_off_c, 0, 77, 64
2, 35460, Note_on_c, 0, 79, 64
2, 35520, Note_off_c, 0, 79, 64
2, 35520, Note_off_c, 0, 53, 64
2, 35520, Note_off_c, 0, 57, 64
2, 35520, Note_on_c, 0, 81, 64
2, 35520, Note_on_c, 0, 53, 64
2, 35580, Note_off_c, 0, 81, 64
2, 35580, Note_on_c, 0, 83, 64
2, 35640, Note_off_c, 0, 83, 64
2, 35640, Note_on_c, 0, 84, 64
2, 35700, Note_off_c, 0, 84, 64
2, 35700, Note_on_c, 0, 83, 64
2, 35760, Note_off_c, 0, 83, 64
2, 35760, Note_on_c, 0, 81, 64
2, 35820, Note_off_c, 0, 81, 64
2, 35820, Note_on_c, 0, 79, 64
2, 35880, Note_off_c, 0, 79, 64
2, 35880, Note_off_c, 0, 53, 64
2, 35880, Note_on_c, 0, 77, 64
2, 35880, Note_on_c, 0, 55, 64
2, 35940, Note_off_c, 0, 77, 64
2, 35940, Note_on_c, 0, 76, 64
2, 36000, Note_off_c, 0, 76, 64
2, 36000, Note_off_c, 0, 55, 64
2, 36000, Note_on_c, 0, 77, 64
2, 36000, Note_on_c, 0, 57, 64
2, 36060, Note_off_c, 0, 77, 64
2, 36060, Note_on_c, 0, 79, 64
2, 36120, Note_off_c, 0, 79, 64
2, 36120, Note_on_c, 0, 81, 64
2, 36180, Note_off_c, 0, 81, 64
2, 36180, Note_on_c, 0, 79, 64
2, 36240, Note_off_c, 0, 79, 64
2, 36240, Note_off_c, 0, 57, 64
2, 36240, Note_on_c, 0, 54, 64
2, 36240, Note_on_c, 0, 77, 64
2, 36300, Note_off_c, 0, 77, 64
2, 36300, Note_on_c, 0, 76, 64
2, 36360, Note_off_c, 0, 76, 64
2, 36360, Note_on_c, 0, 74, 64
2, 36420, Note_off_c, 0, 74, 64
2, 36420, Note_on_c, 0, 72, 64
2, 36480, Note_off_c, 0, 72, 64
2, 36480, Note_off_c, 0, 54, 64
2, 36480, Note_on_c, 0, 71, 64
2, 36480, Note_on_c, 0, 43, 64
2, 36540, Note_off_c, 0, 43, 64
2, 36540, Note_on_c, 0, 47, 64
2, 36600, Note_off_c, 0, 47, 64
2, 36600, Note_off_c, 0, 71, 64
2, 36600, Note_on_c, 0, 79, 64
2, 36600, Note_on_c, 0, 50, 64
2, 36660, Note_off_c, 0, 50, 64
2, 36660, Note_on_c, 0, 55, 64
2, 36720, Note_off_c, 0, 55, 64
2, 36720, Note_off_c, 0, 79, 64
2, 36720, Note_on_c, 0, 76, 64
2, 36720, Note_on_c, 0, 43, 64
2, 36780, Note_off_c, 0, 43, 64
2, 36780, Note_on_c, 0, 48, 64
2, 36810, Note_off_c, 0, 76, 64
2, 36840, Note_off_c, 0, 48, 64
2, 36840, Note_on_c, 0, 72, 64
2, 36840, Note_on_c, 0, 52, 64
2, 36900, Note_off_c, 0, 52, 64
2, 36900, Note_on_c, 0, 55, 64
2, 36930, Note_off_c, 0, 72, 64
2, 36960, Note_off_c, 0, 55, 64
2, 36960, Note_on_c, 0, 74, 64
2, 36960, Note_on_c, 0, 43, 64
2, 37020, Note_off_c, 0, 43, 64
2, 37020, Note_on_c, 0, 47, 64
2, 37080, Note_off_c, 0, 47, 64
2, 37080, Note_off_c, 0, 74, 64
2, 37080, Note_on_c, 0, 79, 64
2, 37080, Note_on_c, 0, 50, 64
2, 37140, Note_off_c, 0, 50, 64
2, 37140, Note_on_c, 0, 55, 64
2, 37200, Note_off_c, 0, 55, 64
2, 37200, Note_off_c, 0, 79, 64
2, 37200, Note_on_c, 0, 76, 64
2, 37200, Note_on_c, 0, 43, 64
2, 37260, Note_off_c, 0, 43, 64
2, 37260, Note_on_c, 0, 48, 64
2, 37290, Note_off_c, 0, 76, 64
2, 37320, Note_off_c, 0, 48, 64
2, 37320, Note_on_c, 0, 72, 64
2, 37320, Note_on_c, 0, 52, 64
2, 37380, Note_off_c, 0, 52, 64
2, 37380, Note_on_c, 0, 55, 64
2, 37410, Note_off_c, 0, 72, 64
2, 37440, Note_off_c, 0, 55, 64
2, 37440, Note_on_c, 0, 43, 64
2, 37440, Note_on_c, 0, 74, 64
2, 37632, Note_off_c, 0, 74, 64
2, 37632, Note_off_c, 0, 43, 64
2, 37680, Note_on_c, 0, 55, 64
2, 37680, Note_on_c, 0, 79, 64
2, 37680, Note_on_c, 0, 74, 64
2, 37680, Note_on_c, 0, 71, 64
2, 37872, Note_off_c, 0, 71, 64
2, 37872, Note_off_c, 0, 74, 64
2, 37872, Note_off_c, 0, 79, 64
2, 37872, Note_off_c, 0, 55, 64
2, 37920, Note_on_c, 0, 43, 64
2, 37920, Note_on_c, 0, 67, 64
2, 38112, Note_off_c, 0, 67, 64
2, 38112, Note_off_c, 0, 43, 64
2, 38400, Note_on_c, 0, 61, 64
2, 38460, Note_off_c, 0, 61, 64
2, 38460, Note_on_c, 0, 62, 64
2, 38520, Note_off_c, 0, 62, 64
2, 38520, Note_on_c, 0, 61, 64
2, 38580, Note_off_c, 0, 61, 64
2, 38580, Note_on_c, 0, 62, 64
2, 38640, Note_off_c, 0, 62, 64
2, 38640, Note_on_c, 0, 61, 64
2, 38700, Note_off_c, 0, 61, 64
2, 38700, Note_on_c, 0, 62, 64
2, 38760, Note_off_c, 0, 62, 64
2, 38760, Note_on_c, 0, 61, 64
2, 38820, Note_off_c, 0, 61, 64
2, 38820, Note_on_c, 0, 62, 64
2, 38880, Note_off_c, 0, 62, 64
2, 38880, Note_on_c, 0, 60, 64
2, 38940, Note_off_c, 0, 60, 64
2, 38940, Note_on_c, 0, 62, 64
2, 39000, Note_off_c, 0, 62, 64
2, 39000, Note_on_c, 0, 60, 64
2, 39060, Note_off_c, 0, 60, 64
2, 39060, Note_on_c, 0, 62, 64
2, 39120, Note_off_c, 0, 62, 64
2, 39120, Note_on_c, 0, 60, 64
2, 39180, Note_off_c, 0, 60, 64
2, 39180, Note_on_c, 0, 62, 64
2, 39240, Note_off_c, 0, 62, 64
2, 39240, Note_on_c, 0, 60, 64
2, 39300, Note_off_c, 0, 60, 64
2, 39300, Note_on_c, 0, 62, 64
2, 39360, Note_off_c, 0, 62, 64
2, 39360, Note_on_c, 0, 86, 64
2, 39360, Note_on_c, 0, 59, 64
2, 39420, Note_off_c, 0, 59, 64
2, 39420, Note_on_c, 0, 62, 64
2, 39480, Note_off_c, 0, 62, 64
2, 39480, Note_off_c, 0, 86, 64
2, 39480, Note_on_c, 0, 83, 64
2, 39480, Note_on_c, 0, 59, 64
2, 39540, Note_off_c, 0, 59, 64
2, 39540, Note_on_c, 0, 62, 64
2, 39600, Note_off_c, 0, 62, 64
2, 39600, Note_off_c, 0, 83, 64
2, 39600, Note_on_c, 0, 79, 64
2, 39600, Note_on_c, 0, 59, 64
2, 39660, Note_off_c, 0, 59, 64
2, 39660, Note_on_c, 0, 62, 64
2, 39720, Note_off_c, 0, 62, 64
2, 39720, Note_on_c, 0, 59, 64
2, 39780, Note_off_c, 0, 59, 64
2, 39780, Note_on_c, 0, 62, 64
2, 39840, Note_off_c, 0, 62, 64
2, 39840, Note_on_c, 0, 59, 64
2, 39900, Note_off_c, 0, 59, 64
2, 39900, Note_on_c, 0, 62, 64
2, 39960, Note_off_c, 0, 62, 64
2, 39960, Note_off_c, 0, 79, 64
2, 39960, Note_on_c, 0, 81, 64
2, 39960, Note_on_c, 0, 59, 64
2, 40020, Note_off_c, 0, 59, 64
2, 40020, Note_off_c, 0, 81, 64
2, 40020, Note_on_c, 0, 83, 64
2, 40020, Note_on_c, 0, 62, 64
2, 40080, Note_off_c, 0, 62, 64
2, 40080, Note_off_c, 0, 83, 64
2, 40080, Note_on_c, 0, 81, 64
2, 40080, Note_on_c, 0, 59, 64
2, 40140, Note_off_c, 0, 59, 64
2, 40140, Note_on_c, 0, 62, 64
2, 40200, Note_off_c, 0, 62, 64
2, 40200, Note_off_c, 0, 81, 64
2, 40200, Note_on_c, 0, 79, 64
2, 40200, Note_on_c, 0, 59, 64
2, 40260, Note_off_c, 0, 59, 64
2, 40260, Note_on_c, 0, 62, 64
2, 40320, Note_off_c, 0, 62, 64
2, 40320, Note_off_c, 0, 79, 64
2, 40320, Note_on_c, 0, 81, 64
2, 40320, Note_on_c, 0, 60, 64
2, 40350, Note_off_c, 0, 81, 64
2, 40350, Note_on_c, 0, 79, 48
2, 40380, Note_off_c, 0, 79, 64
2, 40380, Note_off_c, 0, 60, 64
2, 40380, Note_on_c, 0, 81, 52
2, 40380, Note_on_c, 0, 62, 64
2, 40410, Note_off_c, 0, 81, 64
2, 40410, Note_on_c, 0, 79, 56
2, 40440, Note_off_c, 0, 79, 64
2, 40440, Note_off_c, 0, 62, 64
2, 40440, Note_on_c, 0, 81, 60
2, 40440, Note_on_c, 0, 59, 64
2, 40470, Note_off_c, 0, 81, 64
2, 40470, Note_on_c, 0, 79, 64
2, 40500, Note_off_c, 0, 79, 64
2, 40500, Note_off_c, 0, 59, 64
2, 40500, Note_on_c, 0, 78, 68
2, 40500, Note_on_c, 0, 62, 64
2, 40550, Note_off_c, 0, 78, 64
2, 40560, Note_off_c, 0, 62, 64
2, 40560, Note_on_c, 0, 78, 64
2, 40560, Note_on_c, 0, 57, 64
2, 40620, Note_off_c, 0, 57, 64
2, 40620, Note_on_c, 0, 62, 64
2, 40680, Note_off_c, 0, 62, 64
2, 40680, Note_on_c, 0, 59, 64
2, 40740, Note_off_c, 0, 59, 64
2, 40740, Note_on_c, 0, 62, 64
2, 40800, Note_off_c, 0, 62, 64
2, 40800, Note_off_c, 0, 78, 64
2, 40800, Note_on_c, 0, 60, 64
2, 40860, Note_off_c, 0, 60, 64
2, 40860, Note_on_c, 0, 62, 64
2, 40920, Note_off_c, 0, 62, 64
2, 40920, Note_on_c, 0, 59, 64
2, 40980, Note_off_c, 0, 59, 64
2, 40980, Note_on_c, 0, 62, 64
2, 41040, Note_off_c, 0, 62, 64
2, 41040, Note_on_c, 0, 60, 64
2, 41100, Note_off_c, 0, 60, 64
2, 41100, Note_on_c, 0, 62, 64
2, 41160, Note_off_c, 0, 62, 64
2, 41160, Note_on_c, 0, 57, 64
2, 41220, Note_off_c, 0, 57, 64
2, 41220, Note_on_c, 0, 62, 64
2, 41280, Note_off_c, 0, 62, 64
2, 41280, Note_on_c, 0, 86, 64
2, 41280, Note_on_c, 0, 59, 64
2, 41340, Note_off_c, 0, 59, 64
2, 41340, Note_on_c, 0, 62, 64
2, 41400, Note_off_c, 0, 62, 64
2, 41400, Note_off_c, 0, 86, 64
2, 41400, Note_on_c, 0, 83, 64
2, 41400, Note_on_c, 0, 59, 64
2, 41460, Note_off_c, 0, 59, 64
2, 41460, Note_on_c, 0, 62, 64
2, 41520, Note_off_c, 0, 62, 64
2, 41520, Note_off_c, 0, 83, 64
2, 41520, Note_on_c, 0, 79, 64
2, 41520, Note_on_c, 0, 59, 64
2, 41580, Note_off_c, 0, 59, 64
2, 41580, Note_on_c, 0, 62, 64
2, 41640, Note_off_c, 0, 62, 64
2, 41640, Note_on_c, 0, 59, 64
2, 41700, Note_off_c, 0, 59, 64
2, 41700, Note_on_c, 0, 62, 64
2, 41760, Note_off_c, 0, 62, 64
2, 41760, Note_on_c, 0, 59, 64
2, 41820, Note_off_c, 0, 59, 64
2, 41820, Note_on_c, 0, 62, 64
2, 41880, Note_off_c, 0, 62, 64
2, 41880, Note_off_c, 0, 79, 64
2, 41880, Note_on_c, 0, 81, 64
2, 41880, Note_on_c, 0, 59, 64
2, 41940, Note_off_c, 0, 59, 64
2, 41940, Note_off_c, 0, 81, 64
2, 41940, Note_on_c, 0, 83, 64
2, 41940, Note_on_c, 0, 62, 64
2, 42000, Note_off_c, 0, 62, 64
2, 42000, Note_off_c, 0, 83, 64
2, 42000, Note_on_c, 0, 81, 64
2, 42000, Note_on_c, 0, 59, 64
2, 42060, Note_off_c, 0, 59, 64
2, 42060, Note_on_c, 0, 62, 64
2, 42120, Note_off_c, 0, 62, 64
2, 42120, Note_off_c, 0, 81, 64
2, 42120, Note_on_c, 0, 79, 64
2, 42120, Note_on_c, 0, 59, 64
2, 42180, Note_off_c, 0, 59, 64
2, 42180, Note_on_c, 0, 62, 64
2, 42240, Note_off_c, 0, 62, 64
2, 42240, Note_off_c, 0, 79, 64
2, 42240, Note_on_c, 0, 81, 64
2, 42240, Note_on_c, 0, 60, 64
2, 42270, Note_off_c, 0, 81, 64
2, 42270, Note_on_c, 0, 79, 48
2, 42300, Note_off_c, 0, 79, 64
2, 42300, Note_off_c, 0, 60, 64
2, 42300, Note_on_c, 0, 81, 52
2, 42300, Note_on_c, 0, 62, 64
2, 42330, Note_off_c, 0, 81, 64
2, 42330, Note_on_c, 0, 79, 56
2, 42360, Note_off_c, 0, 79, 64
2, 42360, Note_off_c, 0, 62, 64
2, 42360, Note_on_c, 0, 81, 59
2, 42360, Note_on_c, 0, 59, 64
2, 42390, Note_off_c, 0, 81, 64
2, 42390, Note_on_c, 0, 79, 63
2, 42420, Note_off_c, 0, 79, 64
2, 42420, Note_off_c, 0, 59, 64
2, 42420, Note_on_c, 0, 78, 68
2, 42420, Note_on_c, 0, 62, 64
2, 42470, Note_off_c, 0, 78, 64
2, 42480, Note_off_c, 0, 62, 64
2, 42480, Note_on_c, 0, 78, 64
2, 42480, Note_on_c, 0, 57, 64
2, 42540, Note_off_c, 0, 57, 64
2, 42540, Note_on_c, 0, 62, 64
2, 42600, Note_off_c, 0, 62, 64
2, 42600, Note_on_c, 0, 59, 64
2, 42660, Note_off_c, 0, 59, 64
2, 42660, Note_on_c, 0, 62, 64
2, 42720, Note_off_c, 0, 62, 64
2, 42720, Note_off_c, 0, 78, 64
2, 42720, Note_on_c, 0, 60, 64
2, 42780, Note_off_c, 0, 60, 64
2, 42780, Note_on_c, 0, 62, 64
2, 42840, Note_off_c, 0, 62, 64
2, 42840, Note_on_c, 0, 59, 64
2, 42900, Note_off_c, 0, 59, 64
2, 42900, Note_on_c, 0, 62, 64
2, 42960, Note_off_c, 0, 62, 64
2, 42960, Note_on_c, 0, 60, 64
2, 43020, Note_off_c, 0, 60, 64
2, 43020, Note_on_c, 0, 62, 64
2, 43080, Note_off_c, 0, 62, 64
2, 43080, Note_on_c, 0, 57, 64
2, 43140, Note_off_c, 0, 57, 64
2, 43140, Note_on_c, 0, 62, 64
2, 43200, Note_off_c, 0, 62, 64
2, 43200, Note_on_c, 0, 86, 64
2, 43260, Note_on_c, 0, 59, 64
2, 43320, Note_off_c, 0, 59, 64
2, 43320, Note_on_c, 0, 62, 64
2, 43380, Note_off_c, 0, 62, 64
2, 43380, Note_on_c, 0, 67, 64
2, 43440, Note_off_c, 0, 67, 64
2, 43440, Note_off_c, 0, 86, 64
2, 43440, Note_on_c, 0, 71, 64
2, 43500, Note_on_c, 0, 86, 64
2, 43560, Note_off_c, 0, 86, 64
2, 43560, Note_on_c, 0, 83, 64
2, 43620, Note_off_c, 0, 83, 64
2, 43620, Note_on_c, 0, 79, 64
2, 43680, Note_off_c, 0, 79, 64
2, 43680, Note_off_c, 0, 71, 64
2, 43680, Note_on_c, 0, 76, 64
2, 43740, Note_on_c, 0, 60, 64
2, 43800, Note_off_c, 0, 60, 64
2, 43800, Note_on_c, 0, 64, 64
2, 43860, Note_off_c, 0, 64, 64
2, 43860, Note_on_c, 0, 67, 64
2, 43920, Note_off_c, 0, 67, 64
2, 43920, Note_off_c, 0, 76, 64
2, 43920, Note_on_c, 0, 72, 64
2, 43980, Note_on_c, 0, 76, 64
2, 44040, Note_off_c, 0, 76, 64
2, 44040, Note_on_c, 0, 79, 64
2, 44100, Note_off_c, 0, 79, 64
2, 44100, Note_on_c, 0, 76, 64
2, 44160, Note_off_c, 0, 76, 64
2, 44160, Note_off_c, 0, 72, 64
2, 44160, Note_on_c, 0, 84, 64
2, 44220, Note_on_c, 0, 57, 64
2, 44280, Note_off_c, 0, 57, 64
2, 44280, Note_on_c, 0, 60, 64
2, 44340, Note_off_c, 0, 60, 64
2, 44340, Note_on_c, 0, 66, 64
2, 44400, Note_off_c, 0, 66, 64
2, 44400, Note_off_c, 0, 84, 64
2, 44400, Note_on_c, 0, 69, 64
2, 44460, Note_on_c, 0, 84, 64
2, 44520, Note_off_c, 0, 84, 64
2, 44520, Note_on_c, 0, 81, 64
2, 44580, Note_off_c, 0, 81, 64
2, 44580, Note_on_c, 0, 78, 64
2, 44640, Note_off_c, 0, 78, 64
2, 44640, Note_off_c, 0, 69, 64
2, 44640, Note_on_c, 0, 74, 64
2, 44700, Note_on_c, 0, 59, 64
2, 44760, Note_off_c, 0, 59, 64
2, 44760, Note_on_c, 0, 62, 64
2, 44820, Note_off_c, 0, 62, 64
2, 44820, Note_on_c, 0, 66, 64
2, 44880, Note_off_c, 0, 66, 64
2, 44880, Note_off_c, 0, 74, 64
2, 44880, Note_on_c, 0, 71, 64
2, 44940, Note_on_c, 0, 74, 64
2, 45000, Note_off_c, 0, 74, 64
2, 45000, Note_on_c, 0, 78, 64
2, 45060, Note_off_c, 0, 78, 64
2, 45060, Note_on_c, 0, 74, 64
2, 45120, Note_off_c, 0, 74, 64
2, 45120, Note_off_c, 0, 71, 64
2, 45120, Note_on_c, 0, 83, 64
2, 45180, Note_on_c, 0, 55, 64
2, 45240, Note_off_c, 0, 55, 64
2, 45240, Note_on_c, 0, 59, 64
2, 45300, Note_off_c, 0, 59, 64
2, 45300, Note_on_c, 0, 64, 64
2, 45360, Note_off_c, 0, 64, 64
2, 45360, Note_off_c, 0, 83, 64
2, 45360, Note_on_c, 0, 67, 64
2, 45420, Note_on_c, 0, 83, 64
2, 45480, Note_off_c, 0, 83, 64
2, 45480, Note_on_c, 0, 79, 64
2, 45540, Note_off_c, 0, 79, 64
2, 45540, Note_on_c, 0, 76, 64
2, 45600, Note_off_c, 0, 76, 64
2, 45600, Note_off_c, 0, 67, 64
2, 45600, Note_on_c, 0, 72, 64
2, 45660, Note_on_c, 0, 57, 64
2, 45720, Note_off_c, 0, 57, 64
2, 45720, Note_on_c, 0, 60, 64
2, 45780, Note_off_c, 0, 60, 64
2, 45780, Note_on_c, 0, 64, 64
2, 45840, Note_off_c, 0, 64, 64
2, 45840, Note_off_c, 0, 72, 64
2, 45840, Note_on_c, 0, 69, 64
2, 45900, Note_on_c, 0, 72, 64
2, 45960, Note_off_c, 0, 72, 64
2, 45960, Note_on_c, 0, 76, 64
2, 46020, Note_off_c, 0, 76, 64
2, 46020, Note_on_c, 0, 72, 64
2, 46080, Note_off_c, 0, 72, 64
2, 46080, Note_off_c, 0, 69, 64
2, 46080, Note_on_c, 0, 81, 64
2, 46140, Note_on_c, 0, 54, 64
2, 46200, Note_off_c, 0, 54, 64
2, 46200, Note_on_c, 0, 57, 64
2, 46260, Note_off_c, 0, 57, 64
2, 46260, Note_on_c, 0, 62, 64
2, 46320, Note_off_c, 0, 62, 64
2, 46320, Note_off_c, 0, 81, 64
2, 46320, Note_on_c, 0, 66, 64
2, 46380, Note_on_c, 0, 81, 64
2, 46440, Note_off_c, 0, 81, 64
2, 46440, Note_on_c, 0, 78, 64
2, 46500, Note_off_c, 0, 78, 64
2, 46500, Note_on_c, 0, 74, 64
2, 46560, Note_off_c, 0, 74, 64
2, 46560, Note_off_c, 0, 66, 64
2, 46560, Note_on_c, 0, 71, 64
2, 46620, Note_on_c, 0, 55, 64
2, 46680, Note_off_c, 0, 55, 64
2, 46680, Note_on_c, 0, 59, 64
2, 46740, Note_off_c, 0, 59, 64
2, 46740, Note_on_c, 0, 62, 64
2, 46800, Note_off_c, 0, 62, 64
2, 46800, Note_off_c, 0, 71, 64
2, 46800, Note_on_c, 0, 67, 64
2, 46860, Note_on_c, 0, 79, 64
2, 46920, Note_off_c, 0, 79, 64
2, 46920, Note_on_c, 0, 74, 64
2, 46980, Note_off_c, 0, 74, 64
2, 46980, Note_on_c, 0, 71, 64
2, 47040, Note_off_c, 0, 71, 64
2, 47040, Note_off_c, 0, 67, 64
2, 47040, Note_on_c, 0, 64, 64
2, 47040, Note_on_c, 0, 60, 64
2, 47040, Note_on_c, 0, 69, 64
2, 47136, Note_off_c, 0, 60, 64
2, 47136, Note_off_c, 0, 64, 64
2, 47160, Note_on_c, 0, 64, 64
2, 47160, Note_on_c, 0, 60, 64
2, 47256, Note_off_c, 0, 60, 64
2, 47256, Note_off_c, 0, 64, 64
2, 47280, Note_on_c, 0, 64, 64
2, 47280, Note_on_c, 0, 60, 64
2, 47376, Note_off_c, 0, 60, 64
2, 47376, Note_off_c, 0, 64, 64
2, 47400, Note_on_c, 0, 64, 64
2, 47400, Note_on_c, 0, 60, 64
2, 47496, Note_off_c, 0, 60, 64
2, 47496, Note_off_c, 0, 64, 64
2, 47520, Note_off_c, 0, 69, 64
2, 47520, Note_on_c, 0, 64, 64
2, 47520, Note_on_c, 0, 60, 64
2, 47520, Note_on_c, 0, 71, 72
2, 47550, Note_off_c, 0, 71, 64
2, 47550, Note_on_c, 0, 72, 64
2, 47616, Note_off_c, 0, 60, 64
2, 47616, Note_off_c, 0, 64, 64
2, 47640, Note_on_c, 0, 64, 64
2, 47640, Note_on_c, 0, 60, 64
2, 47736, Note_off_c, 0, 60, 64
2, 47736, Note_off_c, 0, 64, 64
2, 47760, Note_off_c, 0, 72, 64
2, 47760, Note_on_c, 0, 64, 64
2, 47760, Note_on_c, 0, 60, 64
2, 47760, Note_on_c, 0, 75, 72
2, 47790, Note_off_c, 0, 75, 64
2, 47790, Note_on_c, 0, 76, 64
2, 47856, Note_off_c, 0, 60, 64
2, 47856, Note_off_c, 0, 64, 64
2, 47880, Note_on_c, 0, 60, 64
2, 47880, Note_on_c, 0, 64, 64
2, 47976, Note_off_c, 0, 64, 64
2, 47976, Note_off_c, 0, 60, 64
2, 48000, Note_off_c, 0, 76, 64
2, 48000, Note_on_c, 0, 64, 64
2, 48000, Note_on_c, 0, 60, 64
2, 48000, Note_on_c, 0, 80, 72
2, 48030, Note_off_c, 0, 80, 64
2, 48030, Note_on_c, 0, 81, 64
2, 48096, Note_off_c, 0, 60, 64
2, 48096, Note_off_c, 0, 64, 64
2, 48120, Note_on_c, 0, 64, 64
2, 48120, Note_on_c, 0, 60, 64
2, 48216, Note_off_c, 0, 60, 64
2, 48216, Note_off_c, 0, 64, 64
2, 48240, Note_on_c, 0, 64, 64
2, 48240, Note_on_c, 0, 60, 64
2, 48336, Note_off_c, 0, 60, 64
2, 48336, Note_off_c, 0, 64, 64
2, 48360, Note_off_c, 0, 81, 64
2, 48360, Note_on_c, 0, 64, 64
2, 48360, Note_on_c, 0, 60, 64
2, 48360, Note_on_c, 0, 83, 64
2, 48390, Note_off_c, 0, 83, 64
2, 48390, Note_on_c, 0, 81, 64
2, 48420, Note_off_c, 0, 81, 64
2, 48420, Note_on_c, 0, 80, 64
2, 48450, Note_off_c, 0, 80, 64
2, 48450, Note_on_c, 0, 81, 64
2, 48456, Note_off_c, 0, 60, 64
2, 48456, Note_off_c, 0, 64, 64
2, 48480, Note_off_c, 0, 81, 64
2, 48480, Note_on_c, 0, 64, 64
2, 48480, Note_on_c, 0, 60, 64
2, 48480, Note_on_c, 0, 84, 64
2, 48576, Note_off_c, 0, 60, 64
2, 48576, Note_off_c, 0, 64, 64
2, 48600, Note_off_c, 0, 84, 64
2, 48600, Note_on_c, 0, 64, 64
2, 48600, Note_on_c, 0, 60, 64
2, 48600, Note_on_c, 0, 81, 64
2, 48696, Note_off_c, 0, 60, 64
2, 48696, Note_off_c, 0, 64, 64
2, 48720, Note_off_c, 0, 81, 64
2, 48720, Note_on_c, 0, 64, 64
2, 48720, Note_on_c, 0, 60, 64
2, 48720, Note_on_c, 0, 84, 64
2, 48816, Note_off_c, 0, 60, 64
2, 48816, Note_off_c, 0, 64, 64
2, 48840, Note_off_c, 0, 84, 64
2, 48840, Note_on_c, 0, 60, 64
2, 48840, Note_on_c, 0, 64, 64
2, 48840, Note_on_c, 0, 81, 64
2, 48936, Note_off_c, 0, 64, 64
2, 48936, Note_off_c, 0, 60, 64
2, 48960, Note_off_c, 0, 81, 64
2, 48960, Note_on_c, 0, 83, 64
2, 48960, Note_on_c, 0, 62, 64
2, 49020, Note_off_c, 0, 62, 64
2, 49020, Note_on_c, 0, 71, 64
2, 49080, Note_off_c, 0, 71, 64
2, 49080, Note_off_c, 0, 83, 64
2, 49080, Note_on_c, 0, 79, 64
2, 49080, Note_on_c, 0, 67, 64
2, 49140, Note_off_c, 0, 67, 64
2, 49140, Note_on_c, 0, 71, 64
2, 49200, Note_off_c, 0, 71, 64
2, 49200, Note_off_c, 0, 79, 64
2, 49200, Note_on_c, 0, 86, 64
2, 49200, Note_on_c, 0, 62, 64
2, 49260, Note_off_c, 0, 62, 64
2, 49260, Note_on_c, 0, 71, 64
2, 49320, Note_off_c, 0, 71, 64
2, 49320, Note_on_c, 0, 67, 64
2, 49380, Note_off_c, 0, 67, 64
2, 49380, Note_on_c, 0, 71, 64
2, 49440, Note_off_c, 0, 71, 64
2, 49440, Note_on_c, 0, 62, 64
2, 49500, Note_off_c, 0, 62, 64
2, 49500, Note_on_c, 0, 71, 64
2, 49560, Note_off_c, 0, 71, 64
2, 49560, Note_on_c, 0, 67, 64
2, 49620, Note_off_c, 0, 67, 64
2, 49620, Note_on_c, 0, 71, 64
2, 49680, Note_off_c, 0, 71, 64
2, 49680, Note_off_c, 0, 86, 64
2, 49680, Note_on_c, 0, 84, 64
2, 49680, Note_on_c, 0, 62, 64
2, 49740, Note_off_c, 0, 62, 64
2, 49740, Note_off_c, 0, 84, 64
2, 49740, Note_on_c, 0, 83, 64
2, 49740, Note_on_c, 0, 71, 64
2, 49800, Note_off_c, 0, 71, 64
2, 49800, Note_off_c, 0, 83, 64
2, 49800, Note_on_c, 0, 81, 64
2, 49800, Note_on_c, 0, 67, 64
2, 49860, Note_off_c, 0, 67, 64
2, 49860, Note_off_c, 0, 81, 64
2, 49860, Note_on_c, 0, 71, 64
2, 49860, Note_on_c, 0, 79, 64
2, 49920, Note_off_c, 0, 79, 64
2, 49920, Note_off_c, 0, 71, 64
2, 49920, Note_on_c, 0, 83, 64
2, 49920, Note_on_c, 0, 62, 64
2, 49950, Note_off_c, 0, 83, 64
2, 49950, Note_on_c, 0, 81, 48
2, 49980, Note_off_c, 0, 62, 64
2, 49980, Note_on_c, 0, 72, 48
2, 49980, Note_on_c, 0, 83, 48
2, 49983, Note_off_c, 0, 81, 64
2, 50010, Note_on_c, 0, 81, 49
2, 50013, Note_off_c, 0, 83, 64
2, 50040, Note_on_c, 0, 66, 49
2, 50040, Note_on_c, 0, 83, 49
2, 50043, Note_off_c, 0, 81, 64
2, 50046, Note_off_c, 0, 72, 64
2, 50070, Note_on_c, 0, 81, 50
2, 50073, Note_off_c, 0, 83, 64
2, 50100, Note_on_c, 0, 72, 50
2, 50100, Note_on_c, 0, 83, 50
2, 50103, Note_off_c, 0, 81, 64
2, 50106, Note_off_c, 0, 66, 64
2, 50130, Note_on_c, 0, 81, 51
2, 50133, Note_off_c, 0, 83, 64
2, 50160, Note_on_c, 0, 62, 52
2, 50160, Note_on_c, 0, 83, 52
2, 50163, Note_off_c, 0, 81, 64
2, 50166, Note_off_c, 0, 72, 64
2, 50190, Note_on_c, 0, 81, 52
2, 50193, Note_off_c, 0, 83, 64
2, 50220, Note_on_c, 0, 72, 53
2, 50220, Note_on_c, 0, 83, 53
2, 50223, Note_off_c, 0, 81, 64
2, 50226, Note_off_c, 0, 62, 64
2, 50250, Note_on_c, 0, 81, 53
2, 50253, Note_off_c, 0, 83, 64
2, 50280, Note_on_c, 0, 66, 54
2, 50280, Note_on_c, 0, 83, 54
2, 50283, Note_off_c, 0, 81, 64
2, 50286, Note_off_c, 0, 72, 64
2, 50310, Note_on_c, 0, 81, 54
2, 50313, Note_off_c, 0, 83, 64
2, 50340, Note_on_c, 0, 72, 55
2, 50340, Note_on_c, 0, 83, 55
2, 50343, Note_off_c, 0, 81, 64
2, 50346, Note_off_c, 0, 66, 64
2, 50370, Note_on_c, 0, 81, 56
2, 50373, Note_off_c, 0, 83, 64
2, 50400, Note_on_c, 0, 62, 56
2, 50400, Note_on_c, 0, 83, 56
2, 50403, Note_off_c, 0, 81, 64
2, 50406, Note_off_c, 0, 72, 64
2, 50430, Note_on_c, 0, 81, 57
2, 50433, Note_off_c, 0, 83, 64
2, 50460, Note_on_c, 0, 72, 57
2, 50460, Note_on_c, 0, 83, 57
2, 50463, Note_off_c, 0, 81, 64
2, 50466, Note_off_c, 0, 62, 64
2, 50490, Note_on_c, 0, 81, 58
2, 50493, Note_off_c, 0, 83, 64
2, 50520, Note_on_c, 0, 66, 58
2, 50520, Note_on_c, 0, 83, 58
2, 50523, Note_off_c, 0, 81, 64
2, 50526, Note_off_c, 0, 72, 64
2, 50550, Note_on_c, 0, 81, 59
2, 50553, Note_off_c, 0, 83, 64
2, 50580, Note_on_c, 0, 72, 59
2, 50580, Note_on_c, 0, 83, 59
2, 50583, Note_off_c, 0, 81, 64
2, 50586, Note_off_c, 0, 66, 64
2, 50610, Note_on_c, 0, 81, 60
2, 50613, Note_off_c, 0, 83, 64
2, 50640, Note_on_c, 0, 62, 61
2, 50640, Note_on_c, 0, 83, 61
2, 50643, Note_off_c, 0, 81, 64
2, 50646, Note_off_c, 0, 72, 64
2, 50670, Note_on_c, 0, 81, 61
2, 50673, Note_off_c, 0, 83, 64
2, 50700, Note_on_c, 0, 72, 62
2, 50700, Note_on_c, 0, 83, 62
2, 50703, Note_off_c, 0, 81, 64
2, 50706, Note_off_c, 0, 62, 64
2, 50730, Note_on_c, 0, 81, 62
2, 50733, Note_off_c, 0, 83, 64
2, 50760, Note_on_c, 0, 66, 63
2, 50760, Note_on_c, 0, 83, 63
2, 50763, Note_off_c, 0, 81, 64
2, 50766, Note_off_c, 0, 72, 64
2, 50790, Note_on_c, 0, 81, 63
2, 50793, Note_off_c, 0, 83, 64
2, 50820, Note_on_c, 0, 72, 64
2, 50820, Note_on_c, 0, 79, 64
2, 50823, Note_off_c, 0, 81, 64
2, 50826, Note_off_c, 0, 66, 64
2, 50850, Note_off_c, 0, 79, 64
2, 50850, Note_on_c, 0, 81, 64
2, 50880, Note_off_c, 0, 81, 64
2, 50880, Note_off_c, 0, 72, 64
2, 50880, Note_on_c, 0, 79, 64
2, 50880, Note_on_c, 0, 67, 64
2, 50880, Note_on_c, 0, 71, 64
2, 51120, Note_off_c, 0, 71, 64
2, 51120, Note_off_c, 0, 67, 64
2, 51120, Note_off_c, 0, 79, 64
2, 51120, Note_on_c, 0, 79, 64
2, 51180, Note_off_c, 0, 79, 64
2, 51180, Note_on_c, 0, 74, 64
2, 51240, Note_off_c, 0, 74, 64
2, 51240, Note_on_c, 0, 79, 64
2, 51300, Note_off_c, 0, 79, 64
2, 51300, Note_on_c, 0, 83, 64
2, 51360, Note_off_c, 0, 83, 64
2, 51360, Note_on_c, 0, 86, 64
2, 51420, Note_off_c, 0, 86, 64
2, 51420, Note_on_c, 0, 83, 64
2, 51480, Note_off_c, 0, 83, 64
2, 51480, Note_on_c, 0, 79, 64
2, 51540, Note_off_c, 0, 79, 64
2, 51540, Note_on_c, 0, 83, 64
2, 51600, Note_off_c, 0, 83, 64
2, 51600, Note_on_c, 0, 72, 64
2, 51600, Note_on_c, 0, 69, 64
2, 51600, Note_on_c, 0, 62, 64
2, 51600, Note_on_c, 0, 84, 64
2, 51660, Note_off_c, 0, 84, 64
2, 51660, Note_on_c, 0, 81, 64
2, 51720, Note_off_c, 0, 81, 64
2, 51720, Note_on_c, 0, 78, 64
2, 51780, Note_off_c, 0, 78, 64
2, 51780, Note_on_c, 0, 81, 64
2, 51840, Note_off_c, 0, 81, 64
2, 51840, Note_off_c, 0, 62, 64
2, 51840, Note_off_c, 0, 69, 64
2, 51840, Note_off_c, 0, 72, 64
2, 51840, Note_on_c, 0, 67, 64
2, 51840, Note_on_c, 0, 79, 64
2, 51840, Note_on_c, 0, 71, 64
2, 52080, Note_off_c, 0, 71, 64
2, 52080, Note_off_c, 0, 79, 64
2, 52080, Note_off_c, 0, 67, 64
2, 52080, Note_on_c, 0, 67, 64
2, 52140, Note_off_c, 0, 67, 64
2, 52140, Note_on_c, 0, 62, 64
2, 52200, Note_off_c, 0, 62, 64
2, 52200, Note_on_c, 0, 67, 64
2, 52260, Note_off_c, 0, 67, 64
2, 52260, Note_on_c, 0, 71, 64
2, 52320, Note_off_c, 0, 71, 64
2, 52320, Note_on_c, 0, 74, 64
2, 52380, Note_off_c, 0, 74, 64
2, 52380, Note_on_c, 0, 71, 64
2, 52440, Note_off_c, 0, 71, 64
2, 52440, Note_on_c, 0, 67, 64
2, 52500, Note_off_c, 0, 67, 64
2, 52500, Note_on_c, 0, 71, 64
2, 52560, Note_off_c, 0, 71, 64
2, 52560, Note_on_c, 0, 72, 64
2, 52560, Note_on_c, 0, 60, 64
2, 52560, Note_on_c, 0, 57, 64
2, 52560, Note_on_c, 0, 50, 64
2, 52620, Note_off_c, 0, 72, 64
2, 52620, Note_on_c, 0, 69, 64
2, 52680, Note_off_c, 0, 69, 64
2, 52680, Note_on_c, 0, 66, 64
2, 52740, Note_off_c, 0, 66, 64
2, 52740, Note_on_c, 0, 69, 64
2, 52800, Note_off_c, 0, 69, 64
2, 52800, Note_off_c, 0, 50, 64
2, 52800, Note_off_c, 0, 57, 64
2, 52800, Note_off_c, 0, 60, 64
2, 52800, Note_on_c, 0, 59, 64
2, 52800, Note_on_c, 0, 55, 64
2, 52800, Note_on_c, 0, 67, 64
2, 52992, Note_off_c, 0, 67, 64
2, 52992, Note_off_c, 0, 55, 64
2, 52992, Note_off_c, 0, 59, 64
2, 53040, Note_on_c, 0, 55, 64
2, 53040, Note_on_c, 0, 43, 64
2, 53040, Note_on_c, 0, 83, 64
2, 53040, Note_on_c, 0, 74, 64
2, 53232, Note_off_c, 0, 74, 64
2, 53232, Note_off_c, 0, 83, 64
2, 53232, Note_off_c, 0, 43, 64
2, 53232, Note_off_c, 0, 55, 64
2, 53280, Note_on_c, 0, 55, 64
2, 53280, Note_on_c, 0, 43, 64
2, 53280, Note_on_c, 0, 79, 64
2, 53280, Note_on_c, 0, 71, 64
2, 53472, Note_off_c, 0, 71, 64
2, 53472, Note_off_c, 0, 79, 64
2, 53472, Note_off_c, 0, 43, 64
2, 53472, Note_off_c, 0, 55, 64
2, 53760, Note_on_c, 0, 67, 64
2, 53760, Note_on_c, 0, 43, 64
2, 53760, Note_on_c, 0, 55, 64
2, 54000, Note_off_c, 0, 55, 64
2, 54000, Note_off_c, 0, 43, 64
2, 54000, Note_off_c, 0, 67, 64
2, 54000, Note_on_c, 0, 79, 64
2, 54060, Note_off_c, 0, 79, 64
2, 54060, Note_on_c, 0, 74, 64
2, 54120, Note_off_c, 0, 74, 64
2, 54120, Note_on_c, 0, 79, 64
2, 54180, Note_off_c, 0, 79, 64
2, 54180, Note_on_c, 0, 82, 64
2, 54240, Note_off_c, 0, 82, 64
2, 54240, Note_on_c, 0, 86, 64
2, 54300, Note_off_c, 0, 86, 64
2, 54300, Note_on_c, 0, 82, 64
2, 54360, Note_off_c, 0, 82, 64
2, 54360, Note_on_c, 0, 79, 64
2, 54420, Note_off_c, 0, 79, 64
2, 54420, Note_on_c, 0, 82, 64
2, 54480, Note_off_c, 0, 82, 64
2, 54480, Note_on_c, 0, 72, 64
2, 54480, Note_on_c, 0, 69, 64
2, 54480, Note_on_c, 0, 62, 64
2, 54480, Note_on_c, 0, 84, 64
2, 54540, Note_off_c, 0, 84, 64
2, 54540, Note_on_c, 0, 81, 64
2, 54600, Note_off_c, 0, 81, 64
2, 54600, Note_on_c, 0, 78, 64
2, 54660, Note_off_c, 0, 78, 64
2, 54660, Note_on_c, 0, 81, 64
2, 54720, Note_off_c, 0, 81, 64
2, 54720, Note_off_c, 0, 62, 64
2, 54720, Note_off_c, 0, 69, 64
2, 54720, Note_off_c, 0, 72, 64
2, 54720, Note_on_c, 0, 67, 64
2, 54720, Note_on_c, 0, 79, 64
2, 54720, Note_on_c, 0, 70, 64
2, 54960, Note_off_c, 0, 70, 64
2, 54960, Note_off_c, 0, 79, 64
2, 54960, Note_off_c, 0, 67, 64
2, 54960, Note_on_c, 0, 67, 64
2, 55020, Note_off_c, 0, 67, 64
2, 55020, Note_on_c, 0, 62, 64
2, 55080, Note_off_c, 0, 62, 64
2, 55080, Note_on_c, 0, 67, 64
2, 55140, Note_off_c, 0, 67, 64
2, 55140, Note_on_c, 0, 70, 64
2, 55200, Note_off_c, 0, 70, 64
2, 55200, Note_on_c, 0, 74, 64
2, 55260, Note_off_c, 0, 74, 64
2, 55260, Note_on_c, 0, 70, 64
2, 55320, Note_off_c, 0, 70, 64
2, 55320, Note_on_c, 0, 67, 64
2, 55380, Note_off_c, 0, 67, 64
2, 55380, Note_on_c, 0, 70, 64
2, 55440, Note_off_c, 0, 70, 64
2, 55440, Note_on_c, 0, 60, 64
2, 55440, Note_on_c, 0, 57, 64
2, 55440, Note_on_c, 0, 50, 64
2, 55440, Note_on_c, 0, 72, 64
2, 55500, Note_off_c, 0, 72, 64
2, 55500, Note_on_c, 0, 69, 64
2, 55560, Note_off_c, 0, 69, 64
2, 55560, Note_on_c, 0, 66, 64
2, 55620, Note_off_c, 0, 66, 64
2, 55620, Note_on_c, 0, 69, 64
2, 55680, Note_off_c, 0, 69, 64
2, 55680, Note_off_c, 0, 50, 64
2, 55680, Note_off_c, 0, 57, 64
2, 55680, Note_off_c, 0, 60, 64
2, 55680, Note_on_c, 0, 67, 64
2, 55740, Note_on_c, 0, 43, 64
2, 55800, Note_off_c, 0, 43, 64
2, 55800, Note_on_c, 0, 45, 64
2, 55860, Note_off_c, 0, 45, 64
2, 55860, Note_on_c, 0, 46, 64
2, 55920, Note_off_c, 0, 46, 64
2, 55920, Note_off_c, 0, 67, 64
2, 55920, Note_on_c, 0, 48, 64
2, 55980, Note_off_c, 0, 48, 64
2, 55980, Note_on_c, 0, 50, 64
2, 56040, Note_off_c, 0, 50, 64
2, 56040, Note_on_c, 0, 52, 64
2, 56100, Note_off_c, 0, 52, 64
2, 56100, Note_on_c, 0, 54, 64
2, 56160, Note_off_c, 0, 54, 64
2, 56160, Note_on_c, 0, 55, 64
2, 56220, Note_on_c, 0, 79, 64
2, 56280, Note_off_c, 0, 79, 64
2, 56280, Note_on_c, 0, 82, 64
2, 56340, Note_off_c, 0, 82, 64
2, 56340, Note_on_c, 0, 81, 64
2, 56400, Note_off_c, 0, 81, 64
2, 56400, Note_off_c, 0, 55, 64
2, 56400, Note_on_c, 0, 79, 64
2, 56460, Note_off_c, 0, 79, 64
2, 56460, Note_on_c, 0, 77, 64
2, 56520, Note_off_c, 0, 77, 64
2, 56520, Note_on_c, 0, 76, 64
2, 56580, Note_off_c, 0, 76, 64
2, 56580, Note_on_c, 0, 74, 64
2, 56640, Note_off_c, 0, 74, 64
2, 56640, Note_on_c, 0, 73, 64
2, 56700, Note_on_c, 0, 45, 64
2, 56760, Note_off_c, 0, 45, 64
2, 56760, Note_on_c, 0, 47, 64
2, 56820, Note_off_c, 0, 47, 64
2, 56820, Note_on_c, 0, 49, 64
2, 56880, Note_off_c, 0, 49, 64
2, 56880, Note_off_c, 0, 73, 64
2, 56880, Note_on_c, 0, 50, 64
2, 56940, Note_off_c, 0, 50, 64
2, 56940, Note_on_c, 0, 52, 64
2, 57000, Note_off_c, 0, 52, 64
2, 57000, Note_on_c, 0, 54, 64
2, 57060, Note_off_c, 0, 54, 64
2, 57060, Note_on_c, 0, 56, 64
2, 57120, Note_off_c, 0, 56, 64
2, 57120, Note_on_c, 0, 57, 64
2, 57180, Note_on_c, 0, 85, 64
2, 57240, Note_off_c, 0, 85, 64
2, 57240, Note_on_c, 0, 88, 64
2, 57300, Note_off_c, 0, 88, 64
2, 57300, Note_on_c, 0, 86, 64
2, 57360, Note_off_c, 0, 86, 64
2, 57360, Note_off_c, 0, 57, 64
2, 57360, Note_on_c, 0, 85, 64
2, 57420, Note_off_c, 0, 85, 64
2, 57420, Note_on_c, 0, 82, 64
2, 57480, Note_off_c, 0, 82, 64
2, 57480, Note_on_c, 0, 81, 64
2, 57540, Note_off_c, 0, 81, 64
2, 57540, Note_on_c, 0, 79, 64
2, 57600, Note_off_c, 0, 79, 64
2, 57600, Note_on_c, 0, 77, 64
2, 57600, Note_on_c, 0, 38, 64
2, 57600, Note_on_c, 0, 50, 64
2, 57840, Note_off_c, 0, 50, 64
2, 57840, Note_off_c, 0, 38, 64
2, 57840, Note_off_c, 0, 77, 64
2, 57840, Note_on_c, 0, 74, 64
2, 57900, Note_off_c, 0, 74, 64
2, 57900, Note_on_c, 0, 69, 64
2, 57960, Note_off_c, 0, 69, 64
2, 57960, Note_on_c, 0, 74, 64
2, 58020, Note_off_c, 0, 74, 64
2, 58020, Note_on_c, 0, 77, 64
2, 58080, Note_off_c, 0, 77, 64
2, 58080, Note_on_c, 0, 81, 64
2, 58140, Note_off_c, 0, 81, 64
2, 58140, Note_on_c, 0, 77, 64
2, 58200, Note_off_c, 0, 77, 64
2, 58200, Note_on_c, 0, 74, 64
2, 58260, Note_off_c, 0, 74, 64
2, 58260, Note_on_c, 0, 77, 64
2, 58320, Note_off_c, 0, 77, 64
2, 58320, Note_on_c, 0, 67, 64
2, 58320, Note_on_c, 0, 64, 64
2, 58320, Note_on_c, 0, 57, 64
2, 58320, Note_on_c, 0, 79, 64
2, 58380, Note_off_c, 0, 79, 64
2, 58380, Note_on_c, 0, 76, 64
2, 58440, Note_off_c, 0, 76, 64
2, 58440, Note_on_c, 0, 73, 64
2, 58500, Note_off_c, 0, 73, 64
2, 58500, Note_on_c, 0, 76, 64
2, 58560, Note_off_c, 0, 76, 64
2, 58560, Note_off_c, 0, 57, 64
2, 58560, Note_off_c, 0, 64, 64
2, 58560, Note_off_c, 0, 67, 64
2, 58560, Note_on_c, 0, 62, 64
2, 58560, Note_on_c, 0, 74, 64
2, 58560, Note_on_c, 0, 65, 64
2, 58800, Note_off_c, 0, 65, 64
2, 58800, Note_off_c, 0, 74, 64
2, 58800, Note_off_c, 0, 62, 64
2, 58800, Note_on_c, 0, 62, 64
2, 58860, Note_off_c, 0, 62, 64
2, 58860, Note_on_c, 0, 57, 64
2, 58920, Note_off_c, 0, 57, 64
2, 58920, Note_on_c, 0, 62, 64
2, 58980, Note_off_c, 0, 62, 64
2, 58980, Note_on_c, 0, 65, 64
2, 59040, Note_off_c, 0, 65, 64
2, 59040, Note_on_c, 0, 69, 64
2, 59100, Note_off_c, 0, 69, 64
2, 59100, Note_on_c, 0, 65, 64
2, 59160, Note_off_c, 0, 65, 64
2, 59160, Note_on_c, 0, 62, 64
2, 59220, Note_off_c, 0, 62, 64
2, 59220, Note_on_c, 0, 65, 64
2, 59280, Note_off_c, 0, 65, 64
2, 59280, Note_on_c, 0, 55, 64
2, 59280, Note_on_c, 0, 52, 64
2, 59280, Note_on_c, 0, 45, 64
2, 59280, Note_on_c, 0, 67, 64
2, 59340, Note_off_c, 0, 67, 64
2, 59340, Note_on_c, 0, 64, 64
2, 59400, Note_off_c, 0, 64, 64
2, 59400, Note_on_c, 0, 61, 64
2, 59460, Note_off_c, 0, 61, 64
2, 59460, Note_on_c, 0, 64, 64
2, 59520, Note_off_c, 0, 64, 64
2, 59520, Note_off_c, 0, 45, 64
2, 59520, Note_off_c, 0, 52, 64
2, 59520, Note_off_c, 0, 55, 64
2, 59520, Note_on_c, 0, 50, 64
2, 59520, Note_on_c, 0, 53, 64
2, 59580, Note_on_c, 0, 62, 64
2, 59640, Note_off_c, 0, 62, 64
2, 59640, Note_on_c, 0, 64, 64
2, 59700, Note_off_c, 0, 64, 64
2, 59700, Note_on_c, 0, 65, 64
2, 59760, Note_off_c, 0, 65, 64
2, 59760, Note_off_c, 0, 53, 64
2, 59760, Note_off_c, 0, 50, 64
2, 59760, Note_on_c, 0, 67, 64
2, 59820, Note_off_c, 0, 67, 64
2, 59820, Note_on_c, 0, 69, 64
2, 59880, Note_off_c, 0, 69, 64
2, 59880, Note_on_c, 0, 71, 64
2, 59940, Note_off_c, 0, 71, 64
2, 59940, Note_on_c, 0, 73, 64
2, 60000, Note_off_c, 0, 73, 64
2, 60000, Note_on_c, 0, 74, 64
2, 60060, Note_on_c, 0, 62, 64
2, 60120, Note_off_c, 0, 62, 64
2, 60120, Note_on_c, 0, 65, 64
2, 60180, Note_off_c, 0, 65, 64
2, 60180, Note_on_c, 0, 64, 64
2, 60240, Note_off_c, 0, 64, 64
2, 60240, Note_off_c, 0, 74, 64
2, 60240, Note_on_c, 0, 62, 64
2, 60300, Note_off_c, 0, 62, 64
2, 60300, Note_on_c, 0, 60, 64
2, 60360, Note_off_c, 0, 60, 64
2, 60360, Note_on_c, 0, 59, 64
2, 60420, Note_off_c, 0, 59, 64
2, 60420, Note_on_c, 0, 57, 64
2, 60480, Note_off_c, 0, 57, 64
2, 60480, Note_on_c, 0, 56, 64
2, 60540, Note_on_c, 0, 71, 64
2, 60600, Note_off_c, 0, 71, 64
2, 60600, Note_on_c, 0, 72, 64
2, 60660, Note_off_c, 0, 72, 64
2, 60660, Note_on_c, 0, 74, 64
2, 60720, Note_off_c, 0, 74, 64
2, 60720, Note_off_c, 0, 56, 64
2, 60720, Note_on_c, 0, 76, 64
2, 60780, Note_off_c, 0, 76, 64
2, 60780, Note_on_c, 0, 78, 64
2, 60840, Note_off_c, 0, 78, 64
2, 60840, Note_on_c, 0, 80, 64
2, 60900, Note_off_c, 0, 80, 64
2, 60900, Note_on_c, 0, 81, 64
2, 60960, Note_off_c, 0, 81, 64
2, 60960, Note_on_c, 0, 83, 64
2, 61020, Note_on_c, 0, 56, 64
2, 61080, Note_off_c, 0, 56, 64
2, 61080, Note_on_c, 0, 59, 64
2, 61140, Note_off_c, 0, 59, 64
2, 61140, Note_on_c, 0, 57, 64
2, 61200, Note_off_c, 0, 57, 64
2, 61200, Note_off_c, 0, 83, 64
2, 61200, Note_on_c, 0, 56, 64
2, 61260, Note_off_c, 0, 56, 64
2, 61260, Note_on_c, 0, 53, 64
2, 61320, Note_off_c, 0, 53, 64
2, 61320, Note_on_c, 0, 52, 64
2, 61380, Note_off_c, 0, 52, 64
2, 61380, Note_on_c, 0, 50, 64
2, 61440, Note_off_c, 0, 50, 64
2, 61440, Note_on_c, 0, 48, 64
2, 61500, Note_on_c, 0, 81, 64
2, 61560, Note_off_c, 0, 81, 64
2, 61560, Note_on_c, 0, 88, 64
2, 61620, Note_off_c, 0, 88, 64
2, 61620, Note_on_c, 0, 86, 64
2, 61680, Note_off_c, 0, 86, 64
2, 61680, Note_off_c, 0, 48, 64
2, 61680, Note_on_c, 0, 84, 64
2, 61740, Note_off_c, 0, 84, 64
2, 61740, Note_on_c, 0, 83, 64
2, 61800, Note_off_c, 0, 83, 64
2, 61800, Note_on_c, 0, 81, 64
2, 61860, Note_off_c, 0, 81, 64
2, 61860, Note_on_c, 0, 79, 64
2, 61920, Note_off_c, 0, 79, 64
2, 61920, Note_on_c, 0, 77, 64
2, 61980, Note_on_c, 0, 62, 64
2, 62040, Note_off_c, 0, 62, 64
2, 62040, Note_on_c, 0, 69, 64
2, 62100, Note_off_c, 0, 69, 64
2, 62100, Note_on_c, 0, 67, 64
2, 62160, Note_off_c, 0, 67, 64
2, 62160, Note_off_c, 0, 77, 64
2, 62160, Note_on_c, 0, 65, 64
2, 62220, Note_off_c, 0, 65, 64
2, 62220, Note_on_c, 0, 64, 64
2, 62280, Note_off_c, 0, 64, 64
2, 62280, Note_on_c, 0, 62, 64
2, 62340, Note_off_c, 0, 62, 64
2, 62340, Note_on_c, 0, 60, 64
2, 62400, Note_off_c, 0, 60, 64
2, 62400, Note_on_c, 0, 59, 64
2, 62460, Note_on_c, 0, 79, 64
2, 62520, Note_off_c, 0, 79, 64
2, 62520, Note_on_c, 0, 86, 64
2, 62580, Note_off_c, 0, 86, 64
2, 62580, Note_on_c, 0, 84, 64
2, 62640, Note_off_c, 0, 84, 64
2, 62640, Note_off_c, 0, 59, 64
2, 62640, Note_on_c, 0, 83, 64
2, 62700, Note_off_c, 0, 83, 64
2, 62700, Note_on_c, 0, 81, 64
2, 62760, Note_off_c, 0, 81, 64
2, 62760, Note_on_c, 0, 79, 64
2, 62820, Note_off_c, 0, 79, 64
2, 62820, Note_on_c, 0, 77, 64
2, 62880, Note_off_c, 0, 77, 64
2, 62880, Note_on_c, 0, 76, 64
2, 62940, Note_on_c, 0, 60, 64
2, 63000, Note_off_c, 0, 60, 64
2, 63000, Note_on_c, 0, 67, 64
2, 63060, Note_off_c, 0, 67, 64
2, 63060, Note_on_c, 0, 65, 64
2, 63120, Note_off_c, 0, 65, 64
2, 63120, Note_off_c, 0, 76, 64
2, 63120, Note_on_c, 0, 64, 64
2, 63180, Note_off_c, 0, 64, 64
2, 63180, Note_on_c, 0, 62, 64
2, 63240, Note_off_c, 0, 62, 64
2, 63240, Note_on_c, 0, 60, 64
2, 63300, Note_off_c, 0, 60, 64
2, 63300, Note_on_c, 0, 59, 64
2, 63360, Note_off_c, 0, 59, 64
2, 63360, Note_on_c, 0, 57, 64
2, 63420, Note_on_c, 0, 77, 64
2, 63480, Note_off_c, 0, 77, 64
2, 63480, Note_on_c, 0, 84, 64
2, 63540, Note_off_c, 0, 84, 64
2, 63540, Note_on_c, 0, 83, 64
2, 63600, Note_off_c, 0, 83, 64
2, 63600, Note_off_c, 0, 57, 64
2, 63600, Note_on_c, 0, 81, 64
2, 63660, Note_off_c, 0, 81, 64
2, 63660, Note_on_c, 0, 79, 64
2, 63720, Note_off_c, 0, 79, 64
2, 63720, Note_on_c, 0, 77, 64
2, 63780, Note_off_c, 0, 77, 64
2, 63780, Note_on_c, 0, 76, 64
2, 63840, Note_off_c, 0, 76, 64
2, 63840, Note_on_c, 0, 74, 64
2, 63900, Note_on_c, 0, 59, 64
2, 63960, Note_off_c, 0, 59, 64
2, 63960, Note_on_c, 0, 65, 64
2, 64020, Note_off_c, 0, 65, 64
2, 64020, Note_on_c, 0, 64, 64
2, 64080, Note_off_c, 0, 64, 64
2, 64080, Note_off_c, 0, 74, 64
2, 64080, Note_on_c, 0, 62, 64
2, 64140, Note_off_c, 0, 62, 64
2, 64140, Note_on_c, 0, 60, 64
2, 64200, Note_off_c, 0, 60, 64
2, 64200, Note_on_c, 0, 59, 64
2, 64260, Note_off_c, 0, 59, 64
2, 64260, Note_on_c, 0, 57, 64
2, 64320, Note_off_c, 0, 57, 64
2, 64320, Note_on_c, 0, 56, 64
2, 64380, Note_on_c, 0, 76, 64
2, 64440, Note_off_c, 0, 76, 64
2, 64440, Note_on_c, 0, 83, 64
2, 64500, Note_off_c, 0, 83, 64
2, 64500, Note_on_c, 0, 81, 64
2, 64560, Note_off_c, 0, 81, 64
2, 64560, Note_off_c, 0, 56, 64
2, 64560, Note_on_c, 0, 80, 64
2, 64620, Note_off_c, 0, 80, 64
2, 64620, Note_on_c, 0, 77, 64
2, 64680, Note_off_c, 0, 77, 64
2, 64680, Note_on_c, 0, 76, 64
2, 64740, Note_off_c, 0, 76, 64
2, 64740, Note_on_c, 0, 74, 64
2, 64800, Note_off_c, 0, 74, 64
2, 64800, Note_on_c, 0, 72, 64
2, 64860, Note_on_c, 0, 57, 64
2, 64920, Note_off_c, 0, 57, 64
2, 64920, Note_on_c, 0, 60, 64
2, 64980, Note_off_c, 0, 60, 64
2, 64980, Note_on_c, 0, 59, 64
2, 65040, Note_off_c, 0, 59, 64
2, 65040, Note_off_c, 0, 72, 64
2, 65040, Note_on_c, 0, 57, 64
2, 65100, Note_off_c, 0, 57, 64
2, 65100, Note_on_c, 0, 55, 64
2, 65160, Note_off_c, 0, 55, 64
2, 65160, Note_on_c, 0, 53, 64
2, 65220, Note_off_c, 0, 53, 64
2, 65220, Note_on_c, 0, 52, 64
2, 65280, Note_off_c, 0, 52, 64
2, 65280, Note_on_c, 0, 50, 64
2, 65340, Note_on_c, 0, 70, 64
2, 65400, Note_off_c, 0, 70, 64
2, 65400, Note_on_c, 0, 74, 64
2, 65460, Note_off_c, 0, 74, 64
2, 65460, Note_on_c, 0, 72, 64
2, 65520, Note_off_c, 0, 72, 64
2, 65520, Note_on_c, 0, 70, 64
2, 65580, Note_off_c, 0, 70, 64
2, 65580, Note_on_c, 0, 69, 64
2, 65640, Note_off_c, 0, 69, 64
2, 65640, Note_on_c, 0, 67, 64
2, 65700, Note_off_c, 0, 67, 64
2, 65700, Note_on_c, 0, 65, 64
2, 65760, Note_off_c, 0, 65, 64
2, 65760, Note_off_c, 0, 50, 64
2, 65760, Note_on_c, 0, 58, 64
2, 65760, Note_on_c, 0, 55, 64
2, 65760, Note_on_c, 0, 48, 64
2, 65760, Note_on_c, 0, 64, 64
2, 65820, Note_off_c, 0, 64, 64
2, 65820, Note_on_c, 0, 65, 64
2, 65880, Note_off_c, 0, 65, 64
2, 65880, Note_on_c, 0, 67, 64
2, 65940, Note_off_c, 0, 67, 64
2, 65940, Note_on_c, 0, 69, 64
2, 66000, Note_off_c, 0, 69, 64
2, 66000, Note_on_c, 0, 70, 64
2, 66060, Note_off_c, 0, 70, 64
2, 66060, Note_on_c, 0, 72, 64
2, 66120, Note_off_c, 0, 72, 64
2, 66120, Note_on_c, 0, 74, 64
2, 66180, Note_off_c, 0, 74, 64
2, 66180, Note_on_c, 0, 76, 64
2, 66240, Note_off_c, 0, 76, 64
2, 66240, Note_off_c, 0, 48, 64
2, 66240, Note_off_c, 0, 55, 64
2, 66240, Note_off_c, 0, 58, 64
2, 66240, Note_on_c, 0, 77, 64
2, 66240, Note_on_c, 0, 65, 64
2, 66360, Note_off_c, 0, 65, 64
2, 66360, Note_on_c, 0, 72, 64
2, 66480, Note_off_c, 0, 72, 64
2, 66480, Note_on_c, 0, 69, 64
2, 66600, Note_off_c, 0, 69, 64
2, 66600, Note_on_c, 0, 72, 64
2, 66720, Note_off_c, 0, 72, 64
2, 66720, Note_off_c, 0, 77, 64
2, 66720, Note_on_c, 0, 81, 64
2, 66720, Note_on_c, 0, 65, 64
2, 66840, Note_off_c, 0, 65, 64
2, 66840, Note_on_c, 0, 72, 64
2, 66960, Note_off_c, 0, 72, 64
2, 66960, Note_off_c, 0, 81, 64
2, 66960, Note_on_c, 0, 84, 64
2, 66960, Note_on_c, 0, 69, 64
2, 67080, Note_off_c, 0, 69, 64
2, 67080, Note_on_c, 0, 72, 64
2, 67200, Note_off_c, 0, 72, 64
2, 67200, Note_off_c, 0, 84, 64
2, 67200, Note_on_c, 0, 76, 64
2, 67200, Note_on_c, 0, 67, 64
2, 67320, Note_off_c, 0, 67, 64
2, 67320, Note_on_c, 0, 72, 64
2, 67440, Note_off_c, 0, 72, 64
2, 67440, Note_on_c, 0, 70, 64
2, 67560, Note_off_c, 0, 70, 64
2, 67560, Note_off_c, 0, 76, 64
2, 67560, Note_on_c, 0, 77, 64
2, 67560, Note_on_c, 0, 72, 64
2, 67620, Note_off_c, 0, 77, 64
2, 67620, Note_on_c, 0, 79, 64
2, 67680, Note_off_c, 0, 79, 64
2, 67680, Note_off_c, 0, 72, 64
2, 67680, Note_on_c, 0, 77, 64
2, 67680, Note_on_c, 0, 65, 64
2, 67800, Note_off_c, 0, 65, 64
2, 67800, Note_on_c, 0, 72, 64
2, 67920, Note_off_c, 0, 72, 64
2, 67920, Note_on_c, 0, 69, 64
2, 68040, Note_off_c, 0, 69, 64
2, 68040, Note_on_c, 0, 72, 64
2, 68160, Note_off_c, 0, 72, 64
2, 68160, Note_off_c, 0, 77, 64
2, 68160, Note_on_c, 0, 86, 64
2, 68160, Note_on_c, 0, 65, 64
2, 68280, Note_off_c, 0, 65, 64
2, 68280, Note_on_c, 0, 74, 64
2, 68400, Note_off_c, 0, 74, 64
2, 68400, Note_on_c, 0, 70, 64
2, 68520, Note_off_c, 0, 70, 64
2, 68520, Note_on_c, 0, 74, 64
2, 68640, Note_off_c, 0, 74, 64
2, 68640, Note_off_c, 0, 86, 64
2, 68640, Note_on_c, 0, 84, 64
2, 68640, Note_on_c, 0, 65, 64
2, 68760, Note_off_c, 0, 65, 64
2, 68760, Note_on_c, 0, 72, 64
2, 68880, Note_off_c, 0, 72, 64
2, 68880, Note_off_c, 0, 84, 64
2, 68880, Note_on_c, 0, 89, 64
2, 68880, Note_on_c, 0, 69, 64
2, 69000, Note_off_c, 0, 69, 64
2, 69000, Note_on_c, 0, 72, 64
2, 69120, Note_off_c, 0, 72, 64
2, 69120, Note_off_c, 0, 89, 64
2, 69120, Note_on_c, 0, 84, 64
2, 69120, Note_on_c, 0, 64, 64
2, 69240, Note_off_c, 0, 64, 64
2, 69240, Note_on_c, 0, 72, 64
2, 69360, Note_off_c, 0, 72, 64
2, 69360, Note_off_c, 0, 84, 64
2, 69360, Note_on_c, 0, 82, 64
2, 69360, Note_on_c, 0, 67, 64
2, 69399, Note_off_c, 0, 82, 64
2, 69399, Note_on_c, 0, 84, 64
2, 69439, Note_off_c, 0, 84, 64
2, 69439, Note_on_c, 0, 82, 64
2, 69479, Note_off_c, 0, 82, 64
2, 69480, Note_off_c, 0, 67, 64
2, 69480, Note_on_c, 0, 81, 64
2, 69480, Note_on_c, 0, 72, 64
2, 69540, Note_off_c, 0, 81, 64
2, 69540, Note_on_c, 0, 82, 64
2, 69600, Note_off_c, 0, 82, 64
2, 69600, Note_off_c, 0, 72, 64
2, 69600, Note_on_c, 0, 81, 64
2, 69600, Note_on_c, 0, 65, 64
2, 69720, Note_off_c, 0, 65, 64
2, 69720, Note_on_c, 0, 72, 64
2, 69840, Note_off_c, 0, 72, 64
2, 69840, Note_off_c, 0, 81, 64
2, 69840, Note_on_c, 0, 69, 64
2, 69960, Note_off_c, 0, 69, 64
2, 69960, Note_on_c, 0, 72, 64
2, 70080, Note_off_c, 0, 72, 64
2, 70080, Note_on_c, 0, 74, 64
2, 70080, Note_on_c, 0, 70, 64
2, 70200, Note_off_c, 0, 74, 64
2, 70200, Note_on_c, 0, 76, 64
2, 70260, Note_off_c, 0, 76, 64
2, 70260, Note_on_c, 0, 77, 64
2, 70320, Note_off_c, 0, 77, 64
2, 70320, Note_off_c, 0, 70, 64
2, 70320, Note_on_c, 0, 79, 64
2, 70380, Note_off_c, 0, 79, 64
2, 70380, Note_on_c, 0, 81, 64
2, 70440, Note_off_c, 0, 81, 64
2, 70440, Note_on_c, 0, 82, 64
2, 70500, Note_off_c, 0, 82, 64
2, 70500, Note_on_c, 0, 84, 64
2, 70560, Note_off_c, 0, 84, 64
2, 70560, Note_on_c, 0, 86, 64
2, 70620, Note_off_c, 0, 86, 64
2, 70620, Note_on_c, 0, 84, 64
2, 70680, Note_off_c, 0, 84, 64
2, 70680, Note_on_c, 0, 82, 64
2, 70740, Note_off_c, 0, 82, 64
2, 70740, Note_on_c, 0, 81, 64
2, 70800, Note_off_c, 0, 81, 64
2, 70800, Note_on_c, 0, 65, 64
2, 70800, Note_on_c, 0, 58, 64
2, 70800, Note_on_c, 0, 79, 64
2, 70860, Note_off_c, 0, 79, 64
2, 70860, Note_on_c, 0, 77, 64
2, 70920, Note_off_c, 0, 77, 64
2, 70920, Note_on_c, 0, 76, 64
2, 70980, Note_off_c, 0, 76, 64
2, 70980, Note_on_c, 0, 74, 64
2, 71040, Note_off_c, 0, 74, 64
2, 71040, Note_off_c, 0, 58, 64
2, 71040, Note_off_c, 0, 65, 64
2, 71040, Note_on_c, 0, 72, 64
2, 71040, Note_on_c, 0, 57, 64
2, 71040, Note_on_c, 0, 65, 64
2, 71160, Note_off_c, 0, 72, 64
2, 71160, Note_on_c, 0, 74, 64
2, 71220, Note_off_c, 0, 74, 64
2, 71220, Note_on_c, 0, 76, 64
2, 71280, Note_off_c, 0, 76, 64
2, 71280, Note_off_c, 0, 65, 64
2, 71280, Note_off_c, 0, 57, 64
2, 71280, Note_on_c, 0, 77, 64
2, 71340, Note_off_c, 0, 77, 64
2, 71340, Note_on_c, 0, 79, 64
2, 71400, Note_off_c, 0, 79, 64
2, 71400, Note_on_c, 0, 81, 64
2, 71460, Note_off_c, 0, 81, 64
2, 71460, Note_on_c, 0, 82, 64
2, 71520, Note_off_c, 0, 82, 64
2, 71520, Note_on_c, 0, 84, 64
2, 71580, Note_off_c, 0, 84, 64
2, 71580, Note_on_c, 0, 82, 64
2, 71640, Note_off_c, 0, 82, 64
2, 71640, Note_on_c, 0, 81, 64
2, 71700, Note_off_c, 0, 81, 64
2, 71700, Note_on_c, 0, 79, 64
2, 71760, Note_off_c, 0, 79, 64
2, 71760, Note_on_c, 0, 65, 64
2, 71760, Note_on_c, 0, 57, 64
2, 71760, Note_on_c, 0, 77, 64
2, 71820, Note_off_c, 0, 77, 64
2, 71820, Note_on_c, 0, 76, 64
2, 71880, Note_off_c, 0, 76, 64
2, 71880, Note_on_c, 0, 74, 64
2, 71940, Note_off_c, 0, 74, 64
2, 71940, Note_on_c, 0, 72, 64
2, 72000, Note_off_c, 0, 72, 64
2, 72000, Note_off_c, 0, 57, 64
2, 72000, Note_off_c, 0, 65, 64
2, 72000, Note_on_c, 0, 70, 64
2, 72000, Note_on_c, 0, 55, 64
2, 72000, Note_on_c, 0, 65, 64
2, 72120, Note_off_c, 0, 70, 64
2, 72120, Note_on_c, 0, 72, 64
2, 72180, Note_off_c, 0, 72, 64
2, 72180, Note_on_c, 0, 74, 64
2, 72240, Note_off_c, 0, 74, 64
2, 72240, Note_off_c, 0, 65, 64
2, 72240, Note_off_c, 0, 55, 64
2, 72240, Note_on_c, 0, 76, 64
2, 72300, Note_off_c, 0, 76, 64
2, 72300, Note_on_c, 0, 77, 64
2, 72360, Note_off_c, 0, 77, 64
2, 72360, Note_on_c, 0, 79, 64
2, 72420, Note_off_c, 0, 79, 64
2, 72420, Note_on_c, 0, 81, 64
2, 72480, Note_off_c, 0, 81, 64
2, 72480, Note_on_c, 0, 82, 64
2, 72540, Note_off_c, 0, 82, 64
2, 72540, Note_on_c, 0, 81, 64
2, 72600, Note_off_c, 0, 81, 64
2, 72600, Note_on_c, 0, 79, 64
2, 72660, Note_off_c, 0, 79, 64
2, 72660, Note_on_c, 0, 77, 64
2, 72720, Note_off_c, 0, 77, 64
2, 72720, Note_on_c, 0, 64, 64
2, 72720, Note_on_c, 0, 55, 64
2, 72720, Note_on_c, 0, 76, 64
2, 72780, Note_off_c, 0, 76, 64
2, 72780, Note_on_c, 0, 74, 64
2, 72840, Note_off_c, 0, 74, 64
2, 72840, Note_on_c, 0, 72, 64
2, 72900, Note_off_c, 0, 72, 64
2, 72900, Note_on_c, 0, 70, 64
2, 72960, Note_off_c, 0, 70, 64
2, 72960, Note_off_c, 0, 55, 64
2, 72960, Note_off_c, 0, 64, 64
2, 72960, Note_on_c, 0, 69, 64
2, 72960, Note_on_c, 0, 53, 64
2, 72960, Note_on_c, 0, 65, 64
2, 73080, Note_off_c, 0, 69, 64
2, 73080, Note_on_c, 0, 70, 64
2, 73140, Note_off_c, 0, 70, 64
2, 73140, Note_on_c, 0, 72, 64
2, 73200, Note_off_c, 0, 72, 64
2, 73200, Note_off_c, 0, 65, 64
2, 73200, Note_off_c, 0, 53, 64
2, 73200, Note_on_c, 0, 74, 64
2, 73260, Note_off_c, 0, 74, 64
2, 73260, Note_on_c, 0, 76, 64
2, 73320, Note_off_c, 0, 76, 64
2, 73320, Note_on_c, 0, 77, 64
2, 73380, Note_off_c, 0, 77, 64
2, 73380, Note_on_c, 0, 79, 64
2, 73440, Note_off_c, 0, 79, 64
2, 73440, Note_on_c, 0, 81, 64
2, 73500, Note_off_c, 0, 81, 64
2, 73500, Note_on_c, 0, 79, 64
2, 73560, Note_off_c, 0, 79, 64
2, 73560, Note_on_c, 0, 77, 64
2, 73620, Note_off_c, 0, 77, 64
2, 73620, Note_on_c, 0, 76, 64
2, 73680, Note_off_c, 0, 76, 64
2, 73680, Note_on_c, 0, 74, 64
2, 73740, Note_off_c, 0, 74, 64
2, 73740, Note_on_c, 0, 72, 64
2, 73800, Note_off_c, 0, 72, 64
2, 73800, Note_on_c, 0, 70, 64
2, 73860, Note_off_c, 0, 70, 64
2, 73860, Note_on_c, 0, 69, 64
2, 73920, Note_off_c, 0, 69, 64
2, 73920, Note_on_c, 0, 81, 64
2, 73920, Note_on_c, 0, 53, 64
2, 74040, Note_off_c, 0, 53, 64
2, 74040, Note_on_c, 0, 55, 64
2, 74100, Note_off_c, 0, 55, 64
2, 74100, Note_on_c, 0, 57, 64
2, 74160, Note_off_c, 0, 57, 64
2, 74160, Note_off_c, 0, 81, 64
2, 74160, Note_on_c, 0, 58, 64
2, 74220, Note_off_c, 0, 58, 64
2, 74220, Note_on_c, 0, 60, 64
2, 74280, Note_off_c, 0, 60, 64
2, 74280, Note_on_c, 0, 62, 64
2, 74340, Note_off_c, 0, 62, 64
2, 74340, Note_on_c, 0, 64, 64
2, 74400, Note_off_c, 0, 64, 64
2, 74400, Note_on_c, 0, 65, 64
2, 74460, Note_off_c, 0, 65, 64
2, 74460, Note_on_c, 0, 64, 64
2, 74520, Note_off_c, 0, 64, 64
2, 74520, Note_on_c, 0, 62, 64
2, 74580, Note_off_c, 0, 62, 64
2, 74580, Note_on_c, 0, 60, 64
2, 74640, Note_off_c, 0, 60, 64
2, 74640, Note_on_c, 0, 81, 64
2, 74640, Note_on_c, 0, 72, 64
2, 74640, Note_on_c, 0, 58, 64
2, 74700, Note_off_c, 0, 58, 64
2, 74700, Note_on_c, 0, 57, 64
2, 74760, Note_off_c, 0, 57, 64
2, 74760, Note_on_c, 0, 55, 64
2, 74820, Note_off_c, 0, 55, 64
2, 74820, Note_on_c, 0, 53, 64
2, 74880, Note_off_c, 0, 53, 64
2, 74880, Note_off_c, 0, 72, 64
2, 74880, Note_off_c, 0, 81, 64
2, 74880, Note_on_c, 0, 72, 64
2, 74880, Note_on_c, 0, 79, 64
2, 74880, Note_on_c, 0, 52, 64
2, 75000, Note_off_c, 0, 52, 64
2, 75000, Note_on_c, 0, 53, 64
2, 75060, Note_off_c, 0, 53, 64
2, 75060, Note_on_c, 0, 55, 64
2, 75120, Note_off_c, 0, 55, 64
2, 75120, Note_off_c, 0, 79, 64
2, 75120, Note_off_c, 0, 72, 64
2, 75120, Note_on_c, 0, 57, 64
2, 75180, Note_off_c, 0, 57, 64
2, 75180, Note_on_c, 0, 59, 64
2, 75240, Note_off_c, 0, 59, 64
2, 75240, Note_on_c, 0, 60, 64
2, 75300, Note_off_c, 0, 60, 64
2, 75300, Note_on_c, 0, 62, 64
2, 75360, Note_off_c, 0, 62, 64
2, 75360, Note_on_c, 0, 64, 64
2, 75420, Note_off_c, 0, 64, 64
2, 75420, Note_on_c, 0, 62, 64
2, 75480, Note_off_c, 0, 62, 64
2, 75480, Note_on_c, 0, 60, 64
2, 75540, Note_off_c, 0, 60, 64
2, 75540, Note_on_c, 0, 59, 64
2, 75600, Note_off_c, 0, 59, 64
2, 75600, Note_on_c, 0, 79, 64
2, 75600, Note_on_c, 0, 72, 64
2, 75600, Note_on_c, 0, 57, 64
2, 75660, Note_off_c, 0, 57, 64
2, 75660, Note_on_c, 0, 55, 64
2, 75720, Note_off_c, 0, 55, 64
2, 75720, Note_on_c, 0, 53, 64
2, 75780, Note_off_c, 0, 53, 64
2, 75780, Note_on_c, 0, 52, 64
2, 75840, Note_off_c, 0, 52, 64
2, 75840, Note_off_c, 0, 72, 64
2, 75840, Note_off_c, 0, 79, 64
2, 75840, Note_on_c, 0, 72, 64
2, 75840, Note_on_c, 0, 77, 64
2, 75840, Note_on_c, 0, 50, 64
2, 75960, Note_off_c, 0, 50, 64
2, 75960, Note_on_c, 0, 52, 64
2, 76020, Note_off_c, 0, 52, 64
2, 76020, Note_on_c, 0, 53, 64
2, 76080, Note_off_c, 0, 53, 64
2, 76080, Note_off_c, 0, 77, 64
2, 76080, Note_off_c, 0, 72, 64
2, 76080, Note_on_c, 0, 55, 64
2, 76140, Note_off_c, 0, 55, 64
2, 76140, Note_on_c, 0, 57, 64
2, 76200, Note_off_c, 0, 57, 64
2, 76200, Note_on_c, 0, 59, 64
2, 76260, Note_off_c, 0, 59, 64
2, 76260, Note_on_c, 0, 60, 64
2, 76320, Note_off_c, 0, 60, 64
2, 76320, Note_on_c, 0, 62, 64
2, 76380, Note_off_c, 0, 62, 64
2, 76380, Note_on_c, 0, 60, 64
2, 76440, Note_off_c, 0, 60, 64
2, 76440, Note_on_c, 0, 59, 64
2, 76500, Note_off_c, 0, 59, 64
2, 76500, Note_on_c, 0, 57, 64
2, 76560, Note_off_c, 0, 57, 64
2, 76560, Note_on_c, 0, 77, 64
2, 76560, Note_on_c, 0, 71, 64
2, 76560, Note_on_c, 0, 55, 64
2, 76620, Note_off_c, 0, 55, 64
2, 76620, Note_on_c, 0, 53, 64
2, 76680, Note_off_c, 0, 53, 64
2, 76680, Note_on_c, 0, 52, 64
2, 76740, Note_off_c, 0, 52, 64
2, 76740, Note_on_c, 0, 50, 64
2, 76800, Note_off_c, 0, 50, 64
2, 76800, Note_off_c, 0, 71, 64
2, 76800, Note_off_c, 0, 77, 64
2, 76800, Note_on_c, 0, 72, 64
2, 76800, Note_on_c, 0, 76, 64
2, 76800, Note_on_c, 0, 48, 64
2, 76920, Note_off_c, 0, 48, 64
2, 76920, Note_on_c, 0, 50, 64
2, 76980, Note_off_c, 0, 50, 64
2, 76980, Note_on_c, 0, 52, 64
2, 77040, Note_off_c, 0, 52, 64
2, 77040, Note_off_c, 0, 76, 64
2, 77040, Note_off_c, 0, 72, 64
2, 77040, Note_on_c, 0, 53, 64
2, 77100, Note_off_c, 0, 53, 64
2, 77100, Note_on_c, 0, 55, 64
2, 77160, Note_off_c, 0, 55, 64
2, 77160, Note_on_c, 0, 57, 64
2, 77220, Note_off_c, 0, 57, 64
2, 77220, Note_on_c, 0, 59, 64
2, 77280, Note_off_c, 0, 59, 64
2, 77280, Note_on_c, 0, 60, 64
2, 77340, Note_off_c, 0, 60, 64
2, 77340, Note_on_c, 0, 59, 64
2, 77400, Note_off_c, 0, 59, 64
2, 77400, Note_on_c, 0, 57, 64
2, 77460, Note_off_c, 0, 57, 64
2, 77460, Note_on_c, 0, 55, 64
2, 77520, Note_off_c, 0, 55, 64
2, 77520, Note_on_c, 0, 76, 64
2, 77520, Note_on_c, 0, 72, 64
2, 77520, Note_on_c, 0, 53, 64
2, 77580, Note_off_c, 0, 53, 64
2, 77580, Note_on_c, 0, 52, 64
2, 77640, Note_off_c, 0, 52, 64
2, 77640, Note_on_c, 0, 50, 64
2, 77700, Note_off_c, 0, 50, 64
2, 77700, Note_on_c, 0, 48, 64
2, 77760, Note_off_c, 0, 48, 64
2, 77760, Note_off_c, 0, 72, 64
2, 77760, Note_off_c, 0, 76, 64
2, 77760, Note_on_c, 0, 57, 64
2, 77760, Note_on_c, 0, 53, 64
2, 77760, Note_on_c, 0, 74, 64
2, 77820, Note_off_c, 0, 74, 64
2, 77820, Note_on_c, 0, 62, 64
2, 77880, Note_off_c, 0, 62, 64
2, 77880, Note_on_c, 0, 64, 64
2, 77940, Note_off_c, 0, 64, 64
2, 77940, Note_on_c, 0, 65, 64
2, 78000, Note_off_c, 0, 65, 64
2, 78000, Note_on_c, 0, 67, 64
2, 78060, Note_off_c, 0, 67, 64
2, 78060, Note_on_c, 0, 69, 64
2, 78120, Note_off_c, 0, 69, 64
2, 78120, Note_on_c, 0, 71, 64
2, 78180, Note_off_c, 0, 71, 64
2, 78180, Note_on_c, 0, 73, 64
2, 78240, Note_off_c, 0, 73, 64
2, 78240, Note_on_c, 0, 74, 64
2, 78300, Note_off_c, 0, 74, 64
2, 78300, Note_on_c, 0, 69, 64
2, 78360, Note_off_c, 0, 69, 64
2, 78360, Note_on_c, 0, 71, 64
2, 78420, Note_off_c, 0, 71, 64
2, 78420, Note_on_c, 0, 73, 64
2, 78480, Note_off_c, 0, 73, 64
2, 78480, Note_on_c, 0, 74, 64
2, 78540, Note_off_c, 0, 74, 64
2, 78540, Note_on_c, 0, 76, 64
2, 78600, Note_off_c, 0, 76, 64
2, 78600, Note_on_c, 0, 77, 64
2, 78660, Note_off_c, 0, 77, 64
2, 78660, Note_on_c, 0, 79, 64
2, 78720, Note_off_c, 0, 79, 64
2, 78720, Note_off_c, 0, 53, 64
2, 78720, Note_off_c, 0, 57, 64
2, 78720, Note_on_c, 0, 81, 64
2, 78720, Note_on_c, 0, 53, 64
2, 78780, Note_off_c, 0, 81, 64
2, 78780, Note_on_c, 0, 83, 64
2, 78840, Note_off_c, 0, 83, 64
2, 78840, Note_on_c, 0, 84, 64
2, 78900, Note_off_c, 0, 84, 64
2, 78900, Note_on_c, 0, 83, 64
2, 78960, Note_off_c, 0, 83, 64
2, 78960, Note_on_c, 0, 81, 64
2, 79020, Note_off_c, 0, 81, 64
2, 79020, Note_on_c, 0, 79, 64
2, 79080, Note_off_c, 0, 79, 64
2, 79080, Note_off_c, 0, 53, 64
2, 79080, Note_on_c, 0, 77, 64
2, 79080, Note_on_c, 0, 55, 64
2, 79140, Note_off_c, 0, 77, 64
2, 79140, Note_on_c, 0, 76, 64
2, 79200, Note_off_c, 0, 76, 64
2, 79200, Note_off_c, 0, 55, 64
2, 79200, Note_on_c, 0, 77, 64
2, 79200, Note_on_c, 0, 57, 64
2, 79260, Note_off_c, 0, 77, 64
2, 79260, Note_on_c, 0, 79, 64
2, 79320, Note_off_c, 0, 79, 64
2, 79320, Note_on_c, 0, 81, 64
2, 79380, Note_off_c, 0, 81, 64
2, 79380, Note_on_c, 0, 79, 64
2, 79440, Note_off_c, 0, 79, 64
2, 79440, Note_on_c, 0, 77, 64
2, 79500, Note_off_c, 0, 77, 64
2, 79500, Note_on_c, 0, 76, 64
2, 79560, Note_off_c, 0, 76, 64
2, 79560, Note_off_c, 0, 57, 64
2, 79560, Note_on_c, 0, 54, 64
2, 79560, Note_on_c, 0, 74, 64
2, 79620, Note_off_c, 0, 74, 64
2, 79620, Note_on_c, 0, 72, 64
2, 79680, Note_off_c, 0, 72, 64
2, 79680, Note_off_c, 0, 54, 64
2, 79680, Note_on_c, 0, 71, 64
2, 79680, Note_on_c, 0, 43, 64
2, 79740, Note_off_c, 0, 43, 64
2, 79740, Note_on_c, 0, 47, 64
2, 79800, Note_off_c, 0, 47, 64
2, 79800, Note_off_c, 0, 71, 64
2, 79800, Note_on_c, 0, 79, 64
2, 79800, Note_on_c, 0, 50, 64
2, 79860, Note_off_c, 0, 50, 64
2, 79860, Note_on_c, 0, 55, 64
2, 79920, Note_off_c, 0, 55, 64
2, 79920, Note_off_c, 0, 79, 64
2, 79920, Note_on_c, 0, 76, 64
2, 79920, Note_on_c, 0, 43, 64
2, 79980, Note_off_c, 0, 43, 64
2, 79980, Note_on_c, 0, 48, 64
2, 80040, Note_off_c, 0, 48, 64
2, 80040, Note_off_c, 0, 76, 64
2, 80040, Note_on_c, 0, 72, 64
2, 80040, Note_on_c, 0, 52, 64
2, 80100, Note_off_c, 0, 52, 64
2, 80100, Note_on_c, 0, 55, 64
2, 80160, Note_off_c, 0, 55, 64
2, 80160, Note_off_c, 0, 72, 64
2, 80160, Note_on_c, 0, 74, 64
2, 80160, Note_on_c, 0, 43, 64
2, 80220, Note_off_c, 0, 43, 64
2, 80220, Note_on_c, 0, 47, 64
2, 80280, Note_off_c, 0, 47, 64
2, 80280, Note_off_c, 0, 74, 64
2, 80280, Note_on_c, 0, 79, 64
2, 80280, Note_on_c, 0, 50, 64
2, 80340, Note_off_c, 0, 50, 64
2, 80340, Note_on_c, 0, 55, 64
2, 80400, Note_off_c, 0, 55, 64
2, 80400, Note_off_c, 0, 79, 64
2, 80400, Note_on_c, 0, 76, 64
2, 80400, Note_on_c, 0, 43, 64
2, 80460, Note_off_c, 0, 43, 64
2, 80460, Note_on_c, 0, 48, 64
2, 80520, Note_off_c, 0, 48, 64
2, 80520, Note_off_c, 0, 76, 64
2, 80520, Note_on_c, 0, 72, 64
2, 80520, Note_on_c, 0, 52, 64
2, 80580, Note_off_c, 0, 52, 64
2, 80580, Note_on_c, 0, 55, 64
2, 80640, Note_off_c, 0, 55, 64
2, 80640, Note_off_c, 0, 72, 64
2, 80640, Note_on_c, 0, 74, 64
2, 80640, Note_on_c, 0, 43, 64
2, 80880, Note_off_c, 0, 43, 64
2, 80880, Note_off_c, 0, 74, 64
2, 80880, Note_on_c, 0, 71, 64
2, 80880, Note_on_c, 0, 74, 64
2, 80880, Note_on_c, 0, 79, 64
2, 80880, Note_on_c, 0, 55, 64
2, 81120, Note_off_c, 0, 55, 64
2, 81120, Note_off_c, 0, 79, 64
2, 81120, Note_off_c, 0, 74, 64
2, 81120, Note_off_c, 0, 71, 64
2, 81120, Note_on_c, 0, 67, 64
2, 81120, Note_on_c, 0, 43, 64
2, 81360, Note_off_c, 0, 43, 64
2, 81360, Note_off_c, 0, 67, 64
2, 81600, Note_on_c, 0, 66, 64
2, 81660, Note_off_c, 0, 66, 64
2, 81660, Note_on_c, 0, 67, 64
2, 81720, Note_off_c, 0, 67, 64
2, 81720, Note_on_c, 0, 66, 64
2, 81780, Note_off_c, 0, 66, 64
2, 81780, Note_on_c, 0, 67, 64
2, 81840, Note_off_c, 0, 67, 64
2, 81840, Note_on_c, 0, 66, 64
2, 81900, Note_off_c, 0, 66, 64
2, 81900, Note_on_c, 0, 67, 64
2, 81960, Note_off_c, 0, 67, 64
2, 81960, Note_on_c, 0, 66, 64
2, 82020, Note_off_c, 0, 66, 64
2, 82020, Note_on_c, 0, 67, 64
2, 82080, Note_off_c, 0, 67, 64
2, 82080, Note_on_c, 0, 65, 64
2, 82140, Note_off_c, 0, 65, 64
2, 82140, Note_on_c, 0, 67, 64
2, 82200, Note_off_c, 0, 67, 64
2, 82200, Note_on_c, 0, 65, 64
2, 82260, Note_off_c, 0, 65, 64
2, 82260, Note_on_c, 0, 67, 64
2, 82320, Note_off_c, 0, 67, 64
2, 82320, Note_on_c, 0, 65, 64
2, 82380, Note_off_c, 0, 65, 64
2, 82380, Note_on_c, 0, 67, 64
2, 82440, Note_off_c, 0, 67, 64
2, 82440, Note_on_c, 0, 65, 64
2, 82500, Note_off_c, 0, 65, 64
2, 82500, Note_on_c, 0, 67, 64
2, 82560, Note_off_c, 0, 67, 64
2, 82560, Note_on_c, 0, 79, 64
2, 82560, Note_on_c, 0, 64, 64
2, 82620, Note_off_c, 0, 64, 64
2, 82620, Note_on_c, 0, 67, 64
2, 82680, Note_off_c, 0, 67, 64
2, 82680, Note_off_c, 0, 79, 64
2, 82680, Note_on_c, 0, 76, 64
2, 82680, Note_on_c, 0, 64, 64
2, 82740, Note_off_c, 0, 64, 64
2, 82740, Note_on_c, 0, 67, 64
2, 82800, Note_off_c, 0, 67, 64
2, 82800, Note_off_c, 0, 76, 64
2, 82800, Note_on_c, 0, 72, 64
2, 82800, Note_on_c, 0, 64, 64
2, 82860, Note_off_c, 0, 64, 64
2, 82860, Note_on_c, 0, 67, 64
2, 82920, Note_off_c, 0, 67, 64
2, 82920, Note_on_c, 0, 64, 64
2, 82980, Note_off_c, 0, 64, 64
2, 82980, Note_on_c, 0, 67, 64
2, 83040, Note_off_c, 0, 67, 64
2, 83040, Note_on_c, 0, 64, 64
2, 83100, Note_off_c, 0, 64, 64
2, 83100, Note_on_c, 0, 67, 64
2, 83160, Note_off_c, 0, 67, 64
2, 83160, Note_off_c, 0, 72, 64
2, 83160, Note_on_c, 0, 74, 64
2, 83160, Note_on_c, 0, 64, 64
2, 83220, Note_off_c, 0, 64, 64
2, 83220, Note_off_c, 0, 74, 64
2, 83220, Note_on_c, 0, 76, 64
2, 83220, Note_on_c, 0, 67, 64
2, 83280, Note_off_c, 0, 67, 64
2, 83280, Note_off_c, 0, 76, 64
2, 83280, Note_on_c, 0, 64, 64
2, 83280, Note_on_c, 0, 74, 64
2, 83340, Note_off_c, 0, 64, 64
2, 83340, Note_on_c, 0, 67, 64
2, 83400, Note_off_c, 0, 67, 64
2, 83400, Note_off_c, 0, 74, 64
2, 83400, Note_on_c, 0, 64, 64
2, 83400, Note_on_c, 0, 72, 64
2, 83460, Note_off_c, 0, 64, 64
2, 83460, Note_on_c, 0, 67, 64
2, 83520, Note_off_c, 0, 67, 64
2, 83520, Note_off_c, 0, 72, 64
2, 83520, Note_on_c, 0, 74, 64
2, 83520, Note_on_c, 0, 65, 64
2, 83550, Note_off_c, 0, 74, 64
2, 83550, Note_on_c, 0, 72, 48
2, 83580, Note_off_c, 0, 72, 64
2, 83580, Note_off_c, 0, 65, 64
2, 83580, Note_on_c, 0, 74, 52
2, 83580, Note_on_c, 0, 67, 64
2, 83610, Note_off_c, 0, 74, 64
2, 83610, Note_on_c, 0, 72, 56
2, 83640, Note_off_c, 0, 72, 64
2, 83640, Note_off_c, 0, 67, 64
2, 83640, Note_on_c, 0, 74, 60
2, 83640, Note_on_c, 0, 64, 64
2, 83670, Note_off_c, 0, 74, 64
2, 83670, Note_on_c, 0, 72, 64
2, 83700, Note_off_c, 0, 72, 64
2, 83700, Note_off_c, 0, 64, 64
2, 83700, Note_on_c, 0, 71, 68
2, 83700, Note_on_c, 0, 67, 64
2, 83750, Note_off_c, 0, 71, 64
2, 83760, Note_off_c, 0, 67, 64
2, 83760, Note_on_c, 0, 71, 64
2, 83760, Note_on_c, 0, 62, 64
2, 83820, Note_off_c, 0, 62, 64
2, 83820, Note_on_c, 0, 67, 64
2, 83880, Note_off_c, 0, 67, 64
2, 83880, Note_on_c, 0, 64, 64
2, 83940, Note_off_c, 0, 64, 64
2, 83940, Note_on_c, 0, 67, 64
2, 84000, Note_off_c, 0, 67, 64
2, 84000, Note_on_c, 0, 65, 64
2, 84060, Note_off_c, 0, 65, 64
2, 84060, Note_on_c, 0, 67, 64
2, 84120, Note_off_c, 0, 67, 64
2, 84120, Note_on_c, 0, 64, 64
2, 84180, Note_off_c, 0, 64, 64
2, 84180, Note_on_c, 0, 67, 64
2, 84240, Note_off_c, 0, 67, 64
2, 84240, Note_on_c, 0, 65, 64
2, 84300, Note_off_c, 0, 65, 64
2, 84300, Note_on_c, 0, 67, 64
2, 84360, Note_off_c, 0, 67, 64
2, 84360, Note_on_c, 0, 62, 64
2, 84420, Note_off_c, 0, 62, 64
2, 84420, Note_on_c, 0, 67, 64
2, 84480, Note_off_c, 0, 67, 64
2, 84480, Note_off_c, 0, 71, 64
2, 84480, Note_on_c, 0, 79, 64
2, 84480, Note_on_c, 0, 64, 64
2, 84540, Note_off_c, 0, 64, 64
2, 84540, Note_on_c, 0, 67, 64
2, 84600, Note_off_c, 0, 67, 64
2, 84600, Note_off_c, 0, 79, 64
2, 84600, Note_on_c, 0, 76, 64
2, 84600, Note_on_c, 0, 64, 64
2, 84660, Note_off_c, 0, 64, 64
2, 84660, Note_on_c, 0, 67, 64
2, 84720, Note_off_c, 0, 67, 64
2, 84720, Note_off_c, 0, 76, 64
2, 84720, Note_on_c, 0, 72, 64
2, 84720, Note_on_c, 0, 64, 64
2, 84780, Note_off_c, 0, 64, 64
2, 84780, Note_on_c, 0, 67, 64
2, 84840, Note_off_c, 0, 67, 64
2, 84840, Note_on_c, 0, 64, 64
2, 84900, Note_off_c, 0, 64, 64
2, 84900, Note_on_c, 0, 67, 64
2, 84960, Note_off_c, 0, 67, 64
2, 84960, Note_on_c, 0, 64, 64
2, 85020, Note_off_c, 0, 64, 64
2, 85020, Note_on_c, 0, 67, 64
2, 85080, Note_off_c, 0, 67, 64
2, 85080, Note_off_c, 0, 72, 64
2, 85080, Note_on_c, 0, 74, 64
2, 85080, Note_on_c, 0, 64, 64
2, 85140, Note_off_c, 0, 64, 64
2, 85140, Note_off_c, 0, 74, 64
2, 85140, Note_on_c, 0, 76, 64
2, 85140, Note_on_c, 0, 67, 64
2, 85200, Note_off_c, 0, 67, 64
2, 85200, Note_off_c, 0, 76, 64
2, 85200, Note_on_c, 0, 74, 64
2, 85200, Note_on_c, 0, 64, 64
2, 85260, Note_off_c, 0, 64, 64
2, 85260, Note_on_c, 0, 67, 64
2, 85320, Note_off_c, 0, 67, 64
2, 85320, Note_off_c, 0, 74, 64
2, 85320, Note_on_c, 0, 72, 64
2, 85320, Note_on_c, 0, 64, 64
2, 85380, Note_off_c, 0, 64, 64
2, 85380, Note_on_c, 0, 67, 64
2, 85440, Note_off_c, 0, 67, 64
2, 85440, Note_off_c, 0, 72, 64
2, 85440, Note_on_c, 0, 74, 64
2, 85440, Note_on_c, 0, 65, 64
2, 85470, Note_off_c, 0, 74, 64
2, 85470, Note_on_c, 0, 72, 48
2, 85500, Note_off_c, 0, 72, 64
2, 85500, Note_off_c, 0, 65, 64
2, 85500, Note_on_c, 0, 74, 52
2, 85500, Note_on_c, 0, 67, 64
2, 85530, Note_off_c, 0, 74, 64
2, 85530, Note_on_c, 0, 72, 56
2, 85560, Note_off_c, 0, 72, 64
2, 85560, Note_off_c, 0, 67, 64
2, 85560, Note_on_c, 0, 74, 60
2, 85560, Note_on_c, 0, 64, 64
2, 85590, Note_off_c, 0, 74, 64
2, 85590, Note_on_c, 0, 72, 64
2, 85620, Note_off_c, 0, 72, 64
2, 85620, Note_off_c, 0, 64, 64
2, 85620, Note_on_c, 0, 71, 68
2, 85620, Note_on_c, 0, 67, 64
2, 85670, Note_off_c, 0, 71, 64
2, 85680, Note_off_c, 0, 67, 64
2, 85680, Note_on_c, 0, 71, 64
2, 85680, Note_on_c, 0, 62, 64
2, 85740, Note_off_c, 0, 62, 64
2, 85740, Note_on_c, 0, 67, 64
2, 85800, Note_off_c, 0, 67, 64
2, 85800, Note_on_c, 0, 64, 64
2, 85860, Note_off_c, 0, 64, 64
2, 85860, Note_on_c, 0, 67, 64
2, 85920, Note_off_c, 0, 67, 64
2, 85920, Note_on_c, 0, 65, 64
2, 85980, Note_off_c, 0, 65, 64
2, 85980, Note_on_c, 0, 67, 64
2, 86040, Note_off_c, 0, 67, 64
2, 86040, Note_on_c, 0, 64, 64
2, 86100, Note_off_c, 0, 64, 64
2, 86100, Note_on_c, 0, 67, 64
2, 86160, Note_off_c, 0, 67, 64
2, 86160, Note_off_c, 0, 71, 64
2, 86160, Note_on_c, 0, 65, 64
2, 86220, Note_off_c, 0, 65, 64
2, 86220, Note_on_c, 0, 67, 64
2, 86280, Note_off_c, 0, 67, 64
2, 86280, Note_on_c, 0, 62, 64
2, 86340, Note_off_c, 0, 62, 64
2, 86340, Note_on_c, 0, 67, 64
2, 86400, Note_off_c, 0, 67, 64
2, 86400, Note_on_c, 0, 79, 64
2, 86460, Note_on_c, 0, 52, 64
2, 86520, Note_off_c, 0, 52, 64
2, 86520, Note_on_c, 0, 55, 64
2, 86580, Note_off_c, 0, 55, 64
2, 86580, Note_on_c, 0, 60, 64
2, 86640, Note_off_c, 0, 60, 64
2, 86640, Note_off_c, 0, 79, 64
2, 86640, Note_on_c, 0, 64, 64
2, 86700, Note_on_c, 0, 79, 64
2, 86760, Note_off_c, 0, 79, 64
2, 86760, Note_on_c, 0, 76, 64
2, 86820, Note_off_c, 0, 76, 64
2, 86820, Note_on_c, 0, 72, 64
2, 86880, Note_off_c, 0, 72, 64
2, 86880, Note_off_c, 0, 64, 64
2, 86880, Note_on_c, 0, 69, 64
2, 86940, Note_on_c, 0, 53, 64
2, 87000, Note_off_c, 0, 53, 64
2, 87000, Note_on_c, 0, 57, 64
2, 87060, Note_off_c, 0, 57, 64
2, 87060, Note_on_c, 0, 60, 64
2, 87120, Note_off_c, 0, 60, 64
2, 87120, Note_off_c, 0, 69, 64
2, 87120, Note_on_c, 0, 65, 64
2, 87180, Note_on_c, 0, 69, 64
2, 87240, Note_off_c, 0, 69, 64
2, 87240, Note_on_c, 0, 72, 64
2, 87300, Note_off_c, 0, 72, 64
2, 87300, Note_on_c, 0, 69, 64
2, 87360, Note_off_c, 0, 69, 64
2, 87360, Note_off_c, 0, 65, 64
2, 87360, Note_on_c, 0, 77, 64
2, 87420, Note_on_c, 0, 50, 64
2, 87480, Note_off_c, 0, 50, 64
2, 87480, Note_on_c, 0, 53, 64
2, 87540, Note_off_c, 0, 53, 64
2, 87540, Note_on_c, 0, 59, 64
2, 87600, Note_off_c, 0, 59, 64
2, 87600, Note_off_c, 0, 77, 64
2, 87600, Note_on_c, 0, 62, 64
2, 87660, Note_on_c, 0, 77, 64
2, 87720, Note_off_c, 0, 77, 64
2, 87720, Note_on_c, 0, 74, 64
2, 87780, Note_off_c, 0, 74, 64
2, 87780, Note_on_c, 0, 71, 64
2, 87840, Note_off_c, 0, 71, 64
2, 87840, Note_off_c, 0, 62, 64
2, 87840, Note_on_c, 0, 67, 64
2, 87900, Note_on_c, 0, 52, 64
2, 87960, Note_off_c, 0, 52, 64
2, 87960, Note_on_c, 0, 55, 64
2, 88020, Note_off_c, 0, 55, 64
2, 88020, Note_on_c, 0, 59, 64
2, 88080, Note_off_c, 0, 59, 64
2, 88080, Note_off_c, 0, 67, 64
2, 88080, Note_on_c, 0, 64, 64
2, 88140, Note_on_c, 0, 79, 64
2, 88200, Note_off_c, 0, 79, 64
2, 88200, Note_on_c, 0, 83, 64
2, 88260, Note_off_c, 0, 83, 64
2, 88260, Note_on_c, 0, 79, 64
2, 88320, Note_off_c, 0, 79, 64
2, 88320, Note_off_c, 0, 64, 64
2, 88320, Note_on_c, 0, 88, 64
2, 88380, Note_on_c, 0, 60, 64
2, 88440, Note_off_c, 0, 60, 64
2, 88440, Note_on_c, 0, 64, 64
2, 88500, Note_off_c, 0, 64, 64
2, 88500, Note_on_c, 0, 69, 64
2, 88560, Note_off_c, 0, 69, 64
2, 88560, Note_off_c, 0, 88, 64
2, 88560, Note_on_c, 0, 72, 64
2, 88620, Note_on_c, 0, 88, 64
2, 88680, Note_off_c, 0, 88, 64
2, 88680, Note_on_c, 0, 84, 64
2, 88740, Note_off_c, 0, 84, 64
2, 88740, Note_on_c, 0, 81, 64
2, 88800, Note_off_c, 0, 81, 64
2, 88800, Note_off_c, 0, 72, 64
2, 88800, Note_on_c, 0, 77, 64
2, 88860, Note_on_c, 0, 62, 64
2, 88920, Note_off_c, 0, 62, 64
2, 88920, Note_on_c, 0, 65, 64
2, 88980, Note_off_c, 0, 65, 64
2, 88980, Note_on_c, 0, 69, 64
2, 89040, Note_off_c, 0, 69, 64
2, 89040, Note_off_c, 0, 77, 64
2, 89040, Note_on_c, 0, 74, 64
2, 89100, Note_on_c, 0, 77, 64
2, 89160, Note_off_c, 0, 77, 64
2, 89160, Note_on_c, 0, 81, 64
2, 89220, Note_off_c, 0, 81, 64
2, 89220, Note_on_c, 0, 77, 64
2, 89280, Note_off_c, 0, 77, 64
2, 89280, Note_off_c, 0, 74, 64
2, 89280, Note_on_c, 0, 86, 64
2, 89340, Note_on_c, 0, 59, 64
2, 89400, Note_off_c, 0, 59, 64
2, 89400, Note_on_c, 0, 62, 64
2, 89460, Note_off_c, 0, 62, 64
2, 89460, Note_on_c, 0, 67, 64
2, 89520, Note_off_c, 0, 67, 64
2, 89520, Note_off_c, 0, 86, 64
2, 89520, Note_on_c, 0, 71, 64
2, 89580, Note_on_c, 0, 86, 64
2, 89640, Note_off_c, 0, 86, 64
2, 89640, Note_on_c, 0, 83, 64
2, 89700, Note_off_c, 0, 83, 64
2, 89700, Note_on_c, 0, 79, 64
2, 89760, Note_off_c, 0, 79, 64
2, 89760, Note_off_c, 0, 71, 64
2, 89760, Note_on_c, 0, 76, 64
2, 89820, Note_on_c, 0, 60, 64
2, 89880, Note_off_c, 0, 60, 64
2, 89880, Note_on_c, 0, 64, 64
2, 89940, Note_off_c, 0, 64, 64
2, 89940, Note_on_c, 0, 67, 64
2, 90000, Note_off_c, 0, 67, 64
2, 90000, Note_off_c, 0, 76, 64
2, 90000, Note_on_c, 0, 72, 64
2, 90060, Note_on_c, 0, 84, 64
2, 90120, Note_off_c, 0, 84, 64
2, 90120, Note_on_c, 0, 79, 64
2, 90180, Note_off_c, 0, 79, 64
2, 90180, Note_on_c, 0, 76, 64
2, 90240, Note_off_c, 0, 76, 64
2, 90240, Note_off_c, 0, 72, 64
2, 90240, Note_on_c, 0, 74, 64
2, 90360, Note_on_c, 0, 69, 64
2, 90360, Note_on_c, 0, 65, 64
2, 90456, Note_off_c, 0, 65, 64
2, 90456, Note_off_c, 0, 69, 64
2, 90480, Note_on_c, 0, 69, 64
2, 90480, Note_on_c, 0, 65, 64
2, 90576, Note_off_c, 0, 65, 64
2, 90576, Note_off_c, 0, 69, 64
2, 90600, Note_on_c, 0, 69, 64
2, 90600, Note_on_c, 0, 65, 64
2, 90696, Note_off_c, 0, 65, 64
2, 90696, Note_off_c, 0, 69, 64
2, 90710, Note_off_c, 0, 74, 64
2, 90720, Note_on_c, 0, 69, 64
2, 90720, Note_on_c, 0, 65, 64
2, 90720, Note_on_c, 0, 73, 72
2, 90750, Note_off_c, 0, 73, 64
2, 90750, Note_on_c, 0, 74, 64
2, 90816, Note_off_c, 0, 65, 64
2, 90816, Note_off_c, 0, 69, 64
2, 90840, Note_on_c, 0, 69, 64
2, 90840, Note_on_c, 0, 65, 64
2, 90936, Note_off_c, 0, 65, 64
2, 90936, Note_off_c, 0, 69, 64
2, 90960, Note_off_c, 0, 74, 64
2, 90960, Note_on_c, 0, 69, 64
2, 90960, Note_on_c, 0, 65, 64
2, 90960, Note_on_c, 0, 73, 72
2, 90990, Note_off_c, 0, 73, 64
2, 90990, Note_on_c, 0, 74, 64
2, 91056, Note_off_c, 0, 65, 64
2, 91056, Note_off_c, 0, 69, 64
2, 91080, Note_on_c, 0, 65, 64
2, 91080, Note_on_c, 0, 69, 64
2, 91176, Note_off_c, 0, 69, 64
2, 91176, Note_off_c, 0, 65, 64
2, 91200, Note_off_c, 0, 74, 64
2, 91200, Note_on_c, 0, 81, 64
2, 91320, Note_on_c, 0, 63, 64
2, 91320, Note_on_c, 0, 60, 64
2, 91320, Note_on_c, 0, 54, 64
2, 91416, Note_off_c, 0, 54, 64
2, 91416, Note_off_c, 0, 60, 64
2, 91416, Note_off_c, 0, 63, 64
2, 91440, Note_on_c, 0, 63, 64
2, 91440, Note_on_c, 0, 60, 64
2, 91440, Note_on_c, 0, 54, 64
2, 91536, Note_off_c, 0, 54, 64
2, 91536, Note_off_c, 0, 60, 64
2, 91536, Note_off_c, 0, 63, 64
2, 91560, Note_on_c, 0, 63, 64
2, 91560, Note_on_c, 0, 60, 64
2, 91560, Note_on_c, 0, 54, 64
2, 91656, Note_off_c, 0, 54, 64
2, 91656, Note_off_c, 0, 60, 64
2, 91656, Note_off_c, 0, 63, 64
2, 91670, Note_off_c, 0, 81, 64
2, 91680, Note_on_c, 0, 63, 64
2, 91680, Note_on_c, 0, 60, 64
2, 91680, Note_on_c, 0, 54, 64
2, 91680, Note_on_c, 0, 80, 72
2, 91710, Note_off_c, 0, 80, 64
2, 91710, Note_on_c, 0, 81, 64
2, 91776, Note_off_c, 0, 54, 64
2, 91776, Note_off_c, 0, 60, 64
2, 91776, Note_off_c, 0, 63, 64
2, 91800, Note_on_c, 0, 63, 64
2, 91800, Note_on_c, 0, 60, 64
2, 91800, Note_on_c, 0, 54, 64
2, 91896, Note_off_c, 0, 54, 64
2, 91896, Note_off_c, 0, 60, 64
2, 91896, Note_off_c, 0, 63, 64
2, 91920, Note_off_c, 0, 81, 64
2, 91920, Note_on_c, 0, 63, 64
2, 91920, Note_on_c, 0, 60, 64
2, 91920, Note_on_c, 0, 54, 64
2, 91920, Note_on_c, 0, 80, 72
2, 91950, Note_off_c, 0, 80, 64
2, 91950, Note_on_c, 0, 81, 64
2, 92016, Note_off_c, 0, 54, 64
2, 92016, Note_off_c, 0, 60, 64
2, 92016, Note_off_c, 0, 63, 64
2, 92040, Note_on_c, 0, 54, 64
2, 92040, Note_on_c, 0, 60, 64
2, 92040, Note_on_c, 0, 63, 64
2, 92136, Note_off_c, 0, 63, 64
2, 92136, Note_off_c, 0, 60, 64
2, 92136, Note_off_c, 0, 54, 64
2, 92160, Note_off_c, 0, 81, 64
2, 92160, Note_on_c, 0, 79, 64
2, 92160, Note_on_c, 0, 55, 64
2, 92220, Note_off_c, 0, 55, 64
2, 92220, Note_on_c, 0, 64, 64
2, 92280, Note_off_c, 0, 64, 64
2, 92280, Note_off_c, 0, 79, 64
2, 92280, Note_on_c, 0, 81, 64
2, 92280, Note_on_c, 0, 60, 64
2, 92340, Note_off_c, 0, 60, 64
2, 92340, Note_off_c, 0, 81, 64
2, 92340, Note_on_c, 0, 83, 64
2, 92340, Note_on_c, 0, 64, 64
2, 92400, Note_off_c, 0, 64, 64
2, 92400, Note_off_c, 0, 83, 64
2, 92400, Note_on_c, 0, 84, 64
2, 92400, Note_on_c, 0, 55, 64
2, 92460, Note_off_c, 0, 55, 64
2, 92460, Note_off_c, 0, 84, 64
2, 92460, Note_on_c, 0, 86, 64
2, 92460, Note_on_c, 0, 64, 64
2, 92520, Note_off_c, 0, 64, 64
2, 92520, Note_off_c, 0, 86, 64
2, 92520, Note_on_c, 0, 88, 64
2, 92520, Note_on_c, 0, 60, 64
2, 92580, Note_off_c, 0, 60, 64
2, 92580, Note_off_c, 0, 88, 64
2, 92580, Note_on_c, 0, 86, 64
2, 92580, Note_on_c, 0, 64, 64
2, 92640, Note_off_c, 0, 64, 64
2, 92640, Note_off_c, 0, 86, 64
2, 92640, Note_on_c, 0, 84, 64
2, 92640, Note_on_c, 0, 55, 64
2, 92700, Note_off_c, 0, 55, 64
2, 92700, Note_off_c, 0, 84, 64
2, 92700, Note_on_c, 0, 83, 64
2, 92700, Note_on_c, 0, 64, 64
2, 92760, Note_off_c, 0, 64, 64
2, 92760, Note_off_c, 0, 83, 64
2, 92760, Note_on_c, 0, 81, 64
2, 92760, Note_on_c, 0, 60, 64
2, 92820, Note_off_c, 0, 60, 64
2, 92820, Note_off_c, 0, 81, 64
2, 92820, Note_on_c, 0, 79, 64
2, 92820, Note_on_c, 0, 64, 64
2, 92880, Note_off_c, 0, 64, 64
2, 92880, Note_off_c, 0, 79, 64
2, 92880, Note_on_c, 0, 77, 64
2, 92880, Note_on_c, 0, 55, 64
2, 92940, Note_off_c, 0, 55, 64
2, 92940, Note_off_c, 0, 77, 64
2, 92940, Note_on_c, 0, 76, 64
2, 92940, Note_on_c, 0, 64, 64
2, 93000, Note_off_c, 0, 64, 64
2, 93000, Note_off_c, 0, 76, 64
2, 93000, Note_on_c, 0, 74, 64
2, 93000, Note_on_c, 0, 60, 64
2, 93060, Note_off_c, 0, 60, 64
2, 93060, Note_off_c, 0, 74, 64
2, 93060, Note_on_c, 0, 64, 64
2, 93060, Note_on_c, 0, 72, 64
2, 93120, Note_off_c, 0, 72, 64
2, 93120, Note_off_c, 0, 64, 64
2, 93120, Note_on_c, 0, 76, 64
2, 93120, Note_on_c, 0, 55, 64
2, 93150, Note_off_c, 0, 76, 64
2, 93150, Note_on_c, 0, 74, 48
2, 93180, Note_off_c, 0, 74, 64
2, 93180, Note_off_c, 0, 55, 64
2, 93180, Note_on_c, 0, 76, 48
2, 93180, Note_on_c, 0, 65, 64
2, 93210, Note_off_c, 0, 76, 64
2, 93210, Note_on_c, 0, 74, 49
2, 93240, Note_off_c, 0, 74, 64
2, 93240, Note_off_c, 0, 65, 64
2, 93240, Note_on_c, 0, 76, 49
2, 93240, Note_on_c, 0, 59, 64
2, 93270, Note_off_c, 0, 76, 64
2, 93270, Note_on_c, 0, 74, 50
2, 93300, Note_off_c, 0, 74, 64
2, 93300, Note_off_c, 0, 59, 64
2, 93300, Note_on_c, 0, 76, 50
2, 93300, Note_on_c, 0, 65, 64
2, 93330, Note_off_c, 0, 76, 64
2, 93330, Note_on_c, 0, 74, 51
2, 93360, Note_off_c, 0, 74, 64
2, 93360, Note_off_c, 0, 65, 64
2, 93360, Note_on_c, 0, 76, 52
2, 93360, Note_on_c, 0, 55, 64
2, 93390, Note_off_c, 0, 76, 64
2, 93390, Note_on_c, 0, 74, 52
2, 93420, Note_off_c, 0, 74, 64
2, 93420, Note_off_c, 0, 55, 64
2, 93420, Note_on_c, 0, 76, 53
2, 93420, Note_on_c, 0, 65, 64
2, 93450, Note_off_c, 0, 76, 64
2, 93450, Note_on_c, 0, 74, 53
2, 93480, Note_off_c, 0, 74, 64
2, 93480, Note_off_c, 0, 65, 64
2, 93480, Note_on_c, 0, 76, 54
2, 93480, Note_on_c, 0, 59, 64
2, 93510, Note_off_c, 0, 76, 64
2, 93510, Note_on_c, 0, 74, 54
2, 93540, Note_off_c, 0, 74, 64
2, 93540, Note_off_c, 0, 59, 64
2, 93540, Note_on_c, 0, 76, 55
2, 93540, Note_on_c, 0, 65, 64
2, 93570, Note_off_c, 0, 76, 64
2, 93570, Note_on_c, 0, 74, 56
2, 93600, Note_off_c, 0, 74, 64
2, 93600, Note_off_c, 0, 65, 64
2, 93600, Note_on_c, 0, 76, 56
2, 93600, Note_on_c, 0, 55, 64
2, 93630, Note_off_c, 0, 76, 64
2, 93630, Note_on_c, 0, 74, 57
2, 93660, Note_off_c, 0, 74, 64
2, 93660, Note_off_c, 0, 55, 64
2, 93660, Note_on_c, 0, 76, 57
2, 93660, Note_on_c, 0, 65, 64
2, 93690, Note_off_c, 0, 76, 64
2, 93690, Note_on_c, 0, 74, 58
2, 93720, Note_off_c, 0, 74, 64
2, 93720, Note_off_c, 0, 65, 64
2, 93720, Note_on_c, 0, 76, 58
2, 93720, Note_on_c, 0, 59, 64
2, 93750, Note_off_c, 0, 76, 64
2, 93750, Note_on_c, 0, 74, 59
2, 93780, Note_off_c, 0, 74, 64
2, 93780, Note_off_c, 0, 59, 64
2, 93780, Note_on_c, 0, 76, 60
2, 93780, Note_on_c, 0, 65, 64
2, 93810, Note_off_c, 0, 76, 64
2, 93810, Note_on_c, 0, 74, 60
2, 93840, Note_off_c, 0, 74, 64
2, 93840, Note_off_c, 0, 65, 64
2, 93840, Note_on_c, 0, 76, 61
2, 93840, Note_on_c, 0, 55, 64
2, 93870, Note_off_c, 0, 76, 64
2, 93870, Note_on_c, 0, 74, 61
2, 93900, Note_off_c, 0, 74, 64
2, 93900, Note_off_c, 0, 55, 64
2, 93900, Note_on_c, 0, 76, 62
2, 93900, Note_on_c, 0, 65, 64
2, 93930, Note_off_c, 0, 76, 64
2, 93930, Note_on_c, 0, 74, 62
2, 93960, Note_off_c, 0, 74, 64
2, 93960, Note_off_c, 0, 65, 64
2, 93960, Note_on_c, 0, 76, 63
2, 93960, Note_on_c, 0, 59, 64
2, 93990, Note_off_c, 0, 76, 64
2, 93990, Note_on_c, 0, 74, 64
2, 94020, Note_off_c, 0, 74, 64
2, 94020, Note_off_c, 0, 59, 64
2, 94020, Note_on_c, 0, 65, 64
2, 94020, Note_on_c, 0, 72, 64
2, 94050, Note_off_c, 0, 72, 64
2, 94050, Note_on_c, 0, 74, 64
2, 94080, Note_off_c, 0, 74, 64
2, 94080, Note_off_c, 0, 65, 64
2, 94080, Note_on_c, 0, 72, 64
2, 94080, Note_on_c, 0, 60, 64
2, 94080, Note_on_c, 0, 64, 64
2, 94320, Note_off_c, 0, 64, 64
2, 94320, Note_off_c, 0, 60, 64
2, 94320, Note_off_c, 0, 72, 64
2, 94320, Note_on_c, 0, 72, 64
2, 94380, Note_off_c, 0, 72, 64
2, 94380, Note_on_c, 0, 67, 64
2, 94440, Note_off_c, 0, 67, 64
2, 94440, Note_on_c, 0, 72, 64
2, 94500, Note_off_c, 0, 72, 64
2, 94500, Note_on_c, 0, 76, 64
2, 94560, Note_off_c, 0, 76, 64
2, 94560, Note_on_c, 0, 79, 64
2, 94620, Note_off_c, 0, 79, 64
2, 94620, Note_on_c, 0, 76, 64
2, 94680, Note_off_c, 0, 76, 64
2, 94680, Note_on_c, 0, 72, 64
2, 94740, Note_off_c, 0, 72, 64
2, 94740, Note_on_c, 0, 76, 64
2, 94800, Note_off_c, 0, 76, 64
2, 94800, Note_on_c, 0, 65, 64
2, 94800, Note_on_c, 0, 62, 64
2, 94800, Note_on_c, 0, 55, 64
2, 94800, Note_on_c, 0, 77, 64
2, 94860, Note_off_c, 0, 77, 64
2, 94860, Note_on_c, 0, 74, 64
2, 94920, Note_off_c, 0, 74, 64
2, 94920, Note_on_c, 0, 71, 64
2, 94980, Note_off_c, 0, 71, 64
2, 94980, Note_on_c, 0, 74, 64
2, 95040, Note_off_c, 0, 74, 64
2, 95040, Note_off_c, 0, 55, 64
2, 95040, Note_off_c, 0, 62, 64
2, 95040, Note_off_c, 0, 65, 64
2, 95040, Note_on_c, 0, 60, 64
2, 95040, Note_on_c, 0, 72, 64
2, 95040, Note_on_c, 0, 64, 64
2, 95280, Note_off_c, 0, 64, 64
2, 95280, Note_off_c, 0, 72, 64
2, 95280, Note_off_c, 0, 60, 64
2, 95280, Note_on_c, 0, 60, 64
2, 95340, Note_off_c, 0, 60, 64
2, 95340, Note_on_c, 0, 55, 64
2, 95400, Note_off_c, 0, 55, 64
2, 95400, Note_on_c, 0, 60, 64
2, 95460, Note_off_c, 0, 60, 64
2, 95460, Note_on_c, 0, 64, 64
2, 95520, Note_off_c, 0, 64, 64
2, 95520, Note_on_c, 0, 67, 64
2, 95580, Note_off_c, 0, 67, 64
2, 95580, Note_on_c, 0, 64, 64
2, 95640, Note_off_c, 0, 64, 64
2, 95640, Note_on_c, 0, 60, 64
2, 95700, Note_off_c, 0, 60, 64
2, 95700, Note_on_c, 0, 64, 64
2, 95760, Note_off_c, 0, 64, 64
2, 95760, Note_on_c, 0, 53, 64
2, 95760, Note_on_c, 0, 50, 64
2, 95760, Note_on_c, 0, 43, 64
2, 95760, Note_on_c, 0, 65, 64
2, 95820, Note_off_c, 0, 65, 64
2, 95820, Note_on_c, 0, 62, 64
2, 95880, Note_off_c, 0, 62, 64
2, 95880, Note_on_c, 0, 59, 64
2, 95940, Note_off_c, 0, 59, 64
2, 95940, Note_on_c, 0, 62, 64
2, 96000, Note_off_c, 0, 62, 64
2, 96000, Note_off_c, 0, 43, 64
2, 96000, Note_off_c, 0, 50, 64
2, 96000, Note_off_c, 0, 53, 64
2, 96000, Note_on_c, 0, 52, 64
2, 96000, Note_on_c, 0, 48, 64
2, 96000, Note_on_c, 0, 60, 64
2, 96192, Note_off_c, 0, 60, 64
2, 96192, Note_off_c, 0, 48, 64
2, 96192, Note_off_c, 0, 52, 64
2, 96240, Note_on_c, 0, 60, 64
2, 96240, Note_on_c, 0, 48, 64
2, 96240, Note_on_c, 0, 79, 64
2, 96240, Note_on_c, 0, 76, 64
2, 96240, Note_on_c, 0, 84, 64
2, 96432, Note_off_c, 0, 76, 64
2, 96432, Note_off_c, 0, 79, 64
2, 96432, Note_off_c, 0, 48, 64
2, 96432, Note_off_c, 0, 60, 64
2, 96480, Note_off_c, 0, 84, 64
2, 96480, Note_on_c, 0, 48, 64
2, 96480, Note_on_c, 0, 72, 64
2, 96480, Note_on_c, 0, 36, 64
2, 96672, Note_off_c, 0, 72, 64
2, 96672, Note_off_c, 0, 48, 64
2, 96720, Note_off_c, 0, 36, 64
2, 96960, Note_on_c, 0, 67, 64
2, 96960, Note_on_c, 0, 43, 64
2, 96960, Note_on_c, 0, 55, 64
2, 97200, Note_off_c, 0, 55, 64
2, 97200, Note_off_c, 0, 43, 64
2, 97200, Note_off_c, 0, 67, 64
2, 97200, Note_on_c, 0, 79, 64
2, 97260, Note_off_c, 0, 79, 64
2, 97260, Note_on_c, 0, 74, 64
2, 97320, Note_off_c, 0, 74, 64
2, 97320, Note_on_c, 0, 79, 64
2, 97380, Note_off_c, 0, 79, 64
2, 97380, Note_on_c, 0, 82, 64
2, 97440, Note_off_c, 0, 82, 64
2, 97440, Note_on_c, 0, 86, 64
2, 97500, Note_off_c, 0, 86, 64
2, 97500, Note_on_c, 0, 82, 64
2, 97560, Note_off_c, 0, 82, 64
2, 97560, Note_on_c, 0, 79, 64
2, 97620, Note_off_c, 0, 79, 64
2, 97620, Note_on_c, 0, 82, 64
2, 97680, Note_off_c, 0, 82, 64
2, 97680, Note_on_c, 0, 72, 64
2, 97680, Note_on_c, 0, 69, 64
2, 97680, Note_on_c, 0, 62, 64
2, 97680, Note_on_c, 0, 84, 64
2, 97740, Note_off_c, 0, 84, 64
2, 97740, Note_on_c, 0, 81, 64
2, 97800, Note_off_c, 0, 81, 64
2, 97800, Note_on_c, 0, 78, 64
2, 97860, Note_off_c, 0, 78, 64
2, 97860, Note_on_c, 0, 81, 64
2, 97920, Note_off_c, 0, 81, 64
2, 97920, Note_off_c, 0, 62, 64
2, 97920, Note_off_c, 0, 69, 64
2, 97920, Note_off_c, 0, 72, 64
2, 97920, Note_on_c, 0, 67, 64
2, 97920, Note_on_c, 0, 79, 64
2, 97920, Note_on_c, 0, 70, 64
2, 98160, Note_off_c, 0, 70, 64
2, 98160, Note_off_c, 0, 79, 64
2, 98160, Note_off_c, 0, 67, 64
2, 98160, Note_on_c, 0, 67, 64
2, 98220, Note_off_c, 0, 67, 64
2, 98220, Note_on_c, 0, 62, 64
2, 98280, Note_off_c, 0, 62, 64
2, 98280, Note_on_c, 0, 67, 64
2, 98340, Note_off_c, 0, 67, 64
2, 98340, Note_on_c, 0, 70, 64
2, 98400, Note_off_c, 0, 70, 64
2, 98400, Note_on_c, 0, 74, 64
2, 98460, Note_off_c, 0, 74, 64
2, 98460, Note_on_c, 0, 70, 64
2, 98520, Note_off_c, 0, 70, 64
2, 98520, Note_on_c, 0, 67, 64
2, 98580, Note_off_c, 0, 67, 64
2, 98580, Note_on_c, 0, 70, 64
2, 98640, Note_off_c, 0, 70, 64
2, 98640, Note_on_c, 0, 60, 64
2, 98640, Note_on_c, 0, 57, 64
2, 98640, Note_on_c, 0, 50, 64
2, 98640, Note_on_c, 0, 72, 64
2, 98700, Note_off_c, 0, 72, 64
2, 98700, Note_on_c, 0, 69, 64
2, 98760, Note_off_c, 0, 69, 64
2, 98760, Note_on_c, 0, 66, 64
2, 98820, Note_off_c, 0, 66, 64
2, 98820, Note_on_c, 0, 69, 64
2, 98880, Note_off_c, 0, 69, 64
2, 98880, Note_off_c, 0, 50, 64
2, 98880, Note_off_c, 0, 57, 64
2, 98880, Note_off_c, 0, 60, 64
2, 98880, Note_on_c, 0, 67, 64
2, 98940, Note_on_c, 0, 43, 64
2, 99000, Note_off_c, 0, 43, 64
2, 99000, Note_on_c, 0, 45, 64
2, 99060, Note_off_c, 0, 45, 64
2, 99060, Note_on_c, 0, 46, 64
2, 99120, Note_off_c, 0, 46, 64
2, 99120, Note_off_c, 0, 67, 64
2, 99120, Note_on_c, 0, 48, 64
2, 99180, Note_off_c, 0, 48, 64
2, 99180, Note_on_c, 0, 50, 64
2, 99240, Note_off_c, 0, 50, 64
2, 99240, Note_on_c, 0, 52, 64
2, 99300, Note_off_c, 0, 52, 64
2, 99300, Note_on_c, 0, 54, 64
2, 99360, Note_off_c, 0, 54, 64
2, 99360, Note_on_c, 0, 55, 64
2, 99420, Note_on_c, 0, 79, 64
2, 99480, Note_off_c, 0, 79, 64
2, 99480, Note_on_c, 0, 82, 64
2, 99540, Note_off_c, 0, 82, 64
2, 99540, Note_on_c, 0, 81, 64
2, 99600, Note_off_c, 0, 81, 64
2, 99600, Note_off_c, 0, 55, 64
2, 99600, Note_on_c, 0, 79, 64
2, 99660, Note_off_c, 0, 79, 64
2, 99660, Note_on_c, 0, 77, 64
2, 99720, Note_off_c, 0, 77, 64
2, 99720, Note_on_c, 0, 76, 64
2, 99780, Note_off_c, 0, 76, 64
2, 99780, Note_on_c, 0, 74, 64
2, 99840, Note_off_c, 0, 74, 64
2, 99840, Note_on_c, 0, 73, 64
2, 99900, Note_on_c, 0, 45, 64
2, 99960, Note_off_c, 0, 45, 64
2, 99960, Note_on_c, 0, 47, 64
2, 100020, Note_off_c, 0, 47, 64
2, 100020, Note_on_c, 0, 49, 64
2, 100080, Note_off_c, 0, 49, 64
2, 100080, Note_off_c, 0, 73, 64
2, 100080, Note_on_c, 0, 50, 64
2, 100140, Note_off_c, 0, 50, 64
2, 100140, Note_on_c, 0, 52, 64
2, 100200, Note_off_c, 0, 52, 64
2, 100200, Note_on_c, 0, 54, 64
2, 100260, Note_off_c, 0, 54, 64
2, 100260, Note_on_c, 0, 56, 64
2, 100320, Note_off_c, 0, 56, 64
2, 100320, Note_on_c, 0, 57, 64
2, 100380, Note_on_c, 0, 85, 64
2, 100440, Note_off_c, 0, 85, 64
2, 100440, Note_on_c, 0, 88, 64
2, 100500, Note_off_c, 0, 88, 64
2, 100500, Note_on_c, 0, 86, 64
2, 100560, Note_off_c, 0, 86, 64
2, 100560, Note_off_c, 0, 57, 64
2, 100560, Note_on_c, 0, 85, 64
2, 100620, Note_off_c, 0, 85, 64
2, 100620, Note_on_c, 0, 82, 64
2, 100680, Note_off_c, 0, 82, 64
2, 100680, Note_on_c, 0, 81, 64
2, 100740, Note_off_c, 0, 81, 64
2, 100740, Note_on_c, 0, 79, 64
2, 100800, Note_off_c, 0, 79, 64
2, 100800, Note_on_c, 0, 77, 64
2, 100800, Note_on_c, 0, 38, 64
2, 100800, Note_on_c, 0, 50, 64
2, 101040, Note_off_c, 0, 50, 64
2, 101040, Note_off_c, 0, 38, 64
2, 101040, Note_off_c, 0, 77, 64
2, 101040, Note_on_c, 0, 74, 64
2, 101100, Note_off_c, 0, 74, 64
2, 101100, Note_on_c, 0, 69, 64
2, 101160, Note_off_c, 0, 69, 64
2, 101160, Note_on_c, 0, 74, 64
2, 101220, Note_off_c, 0, 74, 64
2, 101220, Note_on_c, 0, 77, 64
2, 101280, Note_off_c, 0, 77, 64
2, 101280, Note_on_c, 0, 81, 64
2, 101340, Note_off_c, 0, 81, 64
2, 101340, Note_on_c, 0, 77, 64
2, 101400, Note_off_c, 0, 77, 64
2, 101400, Note_on_c, 0, 74, 64
2, 101460, Note_off_c, 0, 74, 64
2, 101460, Note_on_c, 0, 77, 64
2, 101520, Note_off_c, 0, 77, 64
2, 101520, Note_on_c, 0, 67, 64
2, 101520, Note_on_c, 0, 64, 64
2, 101520, Note_on_c, 0, 57, 64
2, 101520, Note_on_c, 0, 79, 64
2, 101580, Note_off_c, 0, 79, 64
2, 101580, Note_on_c, 0, 76, 64
2, 101640, Note_off_c, 0, 76, 64
2, 101640, Note_on_c, 0, 73, 64
2, 101700, Note_off_c, 0, 73, 64
2, 101700, Note_on_c, 0, 76, 64
2, 101760, Note_off_c, 0, 76, 64
2, 101760, Note_off_c, 0, 57, 64
2, 101760, Note_off_c, 0, 64, 64
2, 101760, Note_off_c, 0, 67, 64
2, 101760, Note_on_c, 0, 62, 64
2, 101760, Note_on_c, 0, 74, 64
2, 101760, Note_on_c, 0, 65, 64
2, 102000, Note_off_c, 0, 65, 64
2, 102000, Note_off_c, 0, 74, 64
2, 102000, Note_off_c, 0, 62, 64
2, 102000, Note_on_c, 0, 62, 64
2, 102060, Note_off_c, 0, 62, 64
2, 102060, Note_on_c, 0, 57, 64
2, 102120, Note_off_c, 0, 57, 64
2, 102120, Note_on_c, 0, 62, 64
2, 102180, Note_off_c, 0, 62, 64
2, 102180, Note_on_c, 0, 65, 64
2, 102240, Note_off_c, 0, 65, 64
2, 102240, Note_on_c, 0, 69, 64
2, 102300, Note_off_c, 0, 69, 64
2, 102300, Note_on_c, 0, 65, 64
2, 102360, Note_off_c, 0, 65, 64
2, 102360, Note_on_c, 0, 62, 64
2, 102420, Note_off_c, 0, 62, 64
2, 102420, Note_on_c, 0, 65, 64
2, 102480, Note_off_c, 0, 65, 64
2, 102480, Note_on_c, 0, 55, 64
2, 102480, Note_on_c, 0, 52, 64
2, 102480, Note_on_c, 0, 45, 64
2, 102480, Note_on_c, 0, 67, 64
2, 102540, Note_off_c, 0, 67, 64
2, 102540, Note_on_c, 0, 64, 64
2, 102600, Note_off_c, 0, 64, 64
2, 102600, Note_on_c, 0, 61, 64
2, 102660, Note_off_c, 0, 61, 64
2, 102660, Note_on_c, 0, 64, 64
2, 102720, Note_off_c, 0, 64, 64
2, 102720, Note_off_c, 0, 45, 64
2, 102720, Note_off_c, 0, 52, 64
2, 102720, Note_off_c, 0, 55, 64
2, 102720, Note_on_c, 0, 50, 64
2, 102720, Note_on_c, 0, 53, 64
2, 102780, Note_on_c, 0, 62, 64
2, 102840, Note_off_c, 0, 62, 64
2, 102840, Note_on_c, 0, 64, 64
2, 102900, Note_off_c, 0, 64, 64
2, 102900, Note_on_c, 0, 65, 64
2, 102960, Note_off_c, 0, 65, 64
2, 102960, Note_off_c, 0, 53, 64
2, 102960, Note_off_c, 0, 50, 64
2, 102960, Note_on_c, 0, 67, 64
2, 103020, Note_off_c, 0, 67, 64
2, 103020, Note_on_c, 0, 69, 64
2, 103080, Note_off_c, 0, 69, 64
2, 103080, Note_on_c, 0, 71, 64
2, 103140, Note_off_c, 0, 71, 64
2, 103140, Note_on_c, 0, 73, 64
2, 103200, Note_off_c, 0, 73, 64
2, 103200, Note_on_c, 0, 74, 64
2, 103260, Note_on_c, 0, 62, 64
2, 103320, Note_off_c, 0, 62, 64
2, 103320, Note_on_c, 0, 65, 64
2, 103380, Note_off_c, 0, 65, 64
2, 103380, Note_on_c, 0, 64, 64
2, 103440, Note_off_c, 0, 64, 64
2, 103440, Note_off_c, 0, 74, 64
2, 103440, Note_on_c, 0, 62, 64
2, 103500, Note_off_c, 0, 62, 64
2, 103500, Note_on_c, 0, 60, 64
2, 103560, Note_off_c, 0, 60, 64
2, 103560, Note_on_c, 0, 59, 64
2, 103620, Note_off_c, 0, 59, 64
2, 103620, Note_on_c, 0, 57, 64
2, 103680, Note_off_c, 0, 57, 64
2, 103680, Note_on_c, 0, 56, 64
2, 103740, Note_on_c, 0, 71, 64
2, 103800, Note_off_c, 0, 71, 64
2, 103800, Note_on_c, 0, 72, 64
2, 103860, Note_off_c, 0, 72, 64
2, 103860, Note_on_c, 0, 74, 64
2, 103920, Note_off_c, 0, 74, 64
2, 103920, Note_off_c, 0, 56, 64
2, 103920, Note_on_c, 0, 76, 64
2, 103980, Note_off_c, 0, 76, 64
2, 103980, Note_on_c, 0, 78, 64
2, 104040, Note_off_c, 0, 78, 64
2, 104040, Note_on_c, 0, 80, 64
2, 104100, Note_off_c, 0, 80, 64
2, 104100, Note_on_c, 0, 81, 64
2, 104160, Note_off_c, 0, 81, 64
2, 104160, Note_on_c, 0, 83, 64
2, 104220, Note_on_c, 0, 56, 64
2, 104280, Note_off_c, 0, 56, 64
2, 104280, Note_on_c, 0, 59, 64
2, 104340, Note_off_c, 0, 59, 64
2, 104340, Note_on_c, 0, 57, 64
2, 104400, Note_off_c, 0, 57, 64
2, 104400, Note_off_c, 0, 83, 64
2, 104400, Note_on_c, 0, 56, 64
2, 104460, Note_off_c, 0, 56, 64
2, 104460, Note_on_c, 0, 53, 64
2, 104520, Note_off_c, 0, 53, 64
2, 104520, Note_on_c, 0, 52, 64
2, 104580, Note_off_c, 0, 52, 64
2, 104580, Note_on_c, 0, 50, 64
2, 104640, Note_off_c, 0, 50, 64
2, 104640, Note_on_c, 0, 48, 64
2, 104700, Note_on_c, 0, 81, 64
2, 104760, Note_off_c, 0, 81, 64
2, 104760, Note_on_c, 0, 88, 64
2, 104820, Note_off_c, 0, 88, 64
2, 104820, Note_on_c, 0, 86, 64
2, 104880, Note_off_c, 0, 86, 64
2, 104880, Note_off_c, 0, 48, 64
2, 104880, Note_on_c, 0, 84, 64
2, 104940, Note_off_c, 0, 84, 64
2, 104940, Note_on_c, 0, 83, 64
2, 105000, Note_off_c, 0, 83, 64
2, 105000, Note_on_c, 0, 81, 64
2, 105060, Note_off_c, 0, 81, 64
2, 105060, Note_on_c, 0, 79, 64
2, 105120, Note_off_c, 0, 79, 64
2, 105120, Note_on_c, 0, 77, 64
2, 105180, Note_on_c, 0, 62, 64
2, 105240, Note_off_c, 0, 62, 64
2, 105240, Note_on_c, 0, 69, 64
2, 105300, Note_off_c, 0, 69, 64
2, 105300, Note_on_c, 0, 67, 64
2, 105360, Note_off_c, 0, 67, 64
2, 105360, Note_off_c, 0, 77, 64
2, 105360, Note_on_c, 0, 65, 64
2, 105420, Note_off_c, 0, 65, 64
2, 105420, Note_on_c, 0, 64, 64
2, 105480, Note_off_c, 0, 64, 64
2, 105480, Note_on_c, 0, 62, 64
2, 105540, Note_off_c, 0, 62, 64
2, 105540, Note_on_c, 0, 60, 64
2, 105600, Note_off_c, 0, 60, 64
2, 105600, Note_on_c, 0, 59, 64
2, 105660, Note_on_c, 0, 79, 64
2, 105720, Note_off_c, 0, 79, 64
2, 105720, Note_on_c, 0, 86, 64
2, 105780, Note_off_c, 0, 86, 64
2, 105780, Note_on_c, 0, 84, 64
2, 105840, Note_off_c, 0, 84, 64
2, 105840, Note_off_c, 0, 59, 64
2, 105840, Note_on_c, 0, 83, 64
2, 105900, Note_off_c, 0, 83, 64
2, 105900, Note_on_c, 0, 81, 64
2, 105960, Note_off_c, 0, 81, 64
2, 105960, Note_on_c, 0, 79, 64
2, 106020, Note_off_c, 0, 79, 64
2, 106020, Note_on_c, 0, 77, 64
2, 106080, Note_off_c, 0, 77, 64
2, 106080, Note_on_c, 0, 76, 64
2, 106140, Note_on_c, 0, 60, 64
2, 106200, Note_off_c, 0, 60, 64
2, 106200, Note_on_c, 0, 67, 64
2, 106260, Note_off_c, 0, 67, 64
2, 106260, Note_on_c, 0, 65, 64
2, 106320, Note_off_c, 0, 65, 64
2, 106320, Note_off_c, 0, 76, 64
2, 106320, Note_on_c, 0, 64, 64
2, 106380, Note_off_c, 0, 64, 64
2, 106380, Note_on_c, 0, 62, 64
2, 106440, Note_off_c, 0, 62, 64
2, 106440, Note_on_c, 0, 60, 64
2, 106500, Note_off_c, 0, 60, 64
2, 106500, Note_on_c, 0, 59, 64
2, 106560, Note_off_c, 0, 59, 64
2, 106560, Note_on_c, 0, 57, 64
2, 106620, Note_on_c, 0, 77, 64
2, 106680, Note_off_c, 0, 77, 64
2, 106680, Note_on_c, 0, 84, 64
2, 106740, Note_off_c, 0, 84, 64
2, 106740, Note_on_c, 0, 83, 64
2, 106800, Note_off_c, 0, 83, 64
2, 106800, Note_off_c, 0, 57, 64
2, 106800, Note_on_c, 0, 81, 64
2, 106860, Note_off_c, 0, 81, 64
2, 106860, Note_on_c, 0, 79, 64
2, 106920, Note_off_c, 0, 79, 64
2, 106920, Note_on_c, 0, 77, 64
2, 106980, Note_off_c, 0, 77, 64
2, 106980, Note_on_c, 0, 76, 64
2, 107040, Note_off_c, 0, 76, 64
2, 107040, Note_on_c, 0, 74, 64
2, 107100, Note_on_c, 0, 59, 64
2, 107160, Note_off_c, 0, 59, 64
2, 107160, Note_on_c, 0, 65, 64
2, 107220, Note_off_c, 0, 65, 64
2, 107220, Note_on_c, 0, 64, 64
2, 107280, Note_off_c, 0, 64, 64
2, 107280, Note_off_c, 0, 74, 64
2, 107280, Note_on_c, 0, 62, 64
2, 107340, Note_off_c, 0, 62, 64
2, 107340, Note_on_c, 0, 60, 64
2, 107400, Note_off_c, 0, 60, 64
2, 107400, Note_on_c, 0, 59, 64
2, 107460, Note_off_c, 0, 59, 64
2, 107460, Note_on_c, 0, 57, 64
2, 107520, Note_off_c, 0, 57, 64
2, 107520, Note_on_c, 0, 56, 64
2, 107580, Note_on_c, 0, 76, 64
2, 107640, Note_off_c, 0, 76, 64
2, 107640, Note_on_c, 0, 83, 64
2, 107700, Note_off_c, 0, 83, 64
2, 107700, Note_on_c, 0, 81, 64
2, 107760, Note_off_c, 0, 81, 64
2, 107760, Note_off_c, 0, 56, 64
2, 107760, Note_on_c, 0, 80, 64
2, 107820, Note_off_c, 0, 80, 64
2, 107820, Note_on_c, 0, 77, 64
2, 107880, Note_off_c, 0, 77, 64
2, 107880, Note_on_c, 0, 76, 64
2, 107940, Note_off_c, 0, 76, 64
2, 107940, Note_on_c, 0, 74, 64
2, 108000, Note_off_c, 0, 74, 64
2, 108000, Note_on_c, 0, 72, 64
2, 108060, Note_on_c, 0, 57, 64
2, 108120, Note_off_c, 0, 57, 64
2, 108120, Note_on_c, 0, 60, 64
2, 108180, Note_off_c, 0, 60, 64
2, 108180, Note_on_c, 0, 59, 64
2, 108240, Note_off_c, 0, 59, 64
2, 108240, Note_off_c, 0, 72, 64
2, 108240, Note_on_c, 0, 57, 64
2, 108300, Note_off_c, 0, 57, 64
2, 108300, Note_on_c, 0, 55, 64
2, 108360, Note_off_c, 0, 55, 64
2, 108360, Note_on_c, 0, 53, 64
2, 108420, Note_off_c, 0, 53, 64
2, 108420, Note_on_c, 0, 52, 64
2, 108480, Note_off_c, 0, 52, 64
2, 108480, Note_on_c, 0, 50, 64
2, 108540, Note_on_c, 0, 70, 64
2, 108600, Note_off_c, 0, 70, 64
2, 108600, Note_on_c, 0, 74, 64
2, 108660, Note_off_c, 0, 74, 64
2, 108660, Note_on_c, 0, 72, 64
2, 108720, Note_off_c, 0, 72, 64
2, 108720, Note_on_c, 0, 70, 64
2, 108780, Note_off_c, 0, 70, 64
2, 108780, Note_on_c, 0, 69, 64
2, 108840, Note_off_c, 0, 69, 64
2, 108840, Note_on_c, 0, 67, 64
2, 108900, Note_off_c, 0, 67, 64
2, 108900, Note_on_c, 0, 65, 64
2, 108960, Note_off_c, 0, 65, 64
2, 108960, Note_off_c, 0, 50, 64
2, 108960, Note_on_c, 0, 58, 64
2, 108960, Note_on_c, 0, 55, 64
2, 108960, Note_on_c, 0, 48, 64
2, 108960, Note_on_c, 0, 64, 64
2, 109020, Note_off_c, 0, 64, 64
2, 109020, Note_on_c, 0, 65, 64
2, 109080, Note_off_c, 0, 65, 64
2, 109080, Note_on_c, 0, 67, 64
2, 109140, Note_off_c, 0, 67, 64
2, 109140, Note_on_c, 0, 69, 64
2, 109200, Note_off_c, 0, 69, 64
2, 109200, Note_on_c, 0, 70, 64
2, 109260, Note_off_c, 0, 70, 64
2, 109260, Note_on_c, 0, 72, 64
2, 109320, Note_off_c, 0, 72, 64
2, 109320, Note_on_c, 0, 74, 64
2, 109380, Note_off_c, 0, 74, 64
2, 109380, Note_on_c, 0, 76, 64
2, 109440, Note_off_c, 0, 76, 64
2, 109440, Note_off_c, 0, 48, 64
2, 109440, Note_off_c, 0, 55, 64
2, 109440, Note_off_c, 0, 58, 64
2, 109440, Note_on_c, 0, 77, 64
2, 109440, Note_on_c, 0, 65, 64
2, 109560, Note_off_c, 0, 65, 64
2, 109560, Note_on_c, 0, 72, 64
2, 109680, Note_off_c, 0, 72, 64
2, 109680, Note_on_c, 0, 69, 64
2, 109800, Note_off_c, 0, 69, 64
2, 109800, Note_on_c, 0, 72, 64
2, 109920, Note_off_c, 0, 72, 64
2, 109920, Note_off_c, 0, 77, 64
2, 109920, Note_on_c, 0, 81, 64
2, 109920, Note_on_c, 0, 65, 64
2, 110040, Note_off_c, 0, 65, 64
2, 110040, Note_on_c, 0, 72, 64
2, 110160, Note_off_c, 0, 72, 64
2, 110160, Note_off_c, 0, 81, 64
2, 110160, Note_on_c, 0, 84, 64
2, 110160, Note_on_c, 0, 69, 64
2, 110280, Note_off_c, 0, 69, 64
2, 110280, Note_on_c, 0, 72, 64
2, 110400, Note_off_c, 0, 72, 64
2, 110400, Note_off_c, 0, 84, 64
2, 110400, Note_on_c, 0, 76, 64
2, 110400, Note_on_c, 0, 67, 64
2, 110520, Note_off_c, 0, 67, 64
2, 110520, Note_on_c, 0, 72, 64
2, 110640, Note_off_c, 0, 72, 64
2, 110640, Note_on_c, 0, 70, 64
2, 110760, Note_off_c, 0, 70, 64
2, 110760, Note_off_c, 0, 76, 64
2, 110760, Note_on_c, 0, 77, 64
2, 110760, Note_on_c, 0, 72, 64
2, 110820, Note_off_c, 0, 77, 64
2, 110820, Note_on_c, 0, 79, 64
2, 110880, Note_off_c, 0, 79, 64
2, 110880, Note_off_c, 0, 72, 64
2, 110880, Note_on_c, 0, 77, 64
2, 110880, Note_on_c, 0, 65, 64
2, 111000, Note_off_c, 0, 65, 64
2, 111000, Note_on_c, 0, 72, 64
2, 111120, Note_off_c, 0, 72, 64
2, 111120, Note_on_c, 0, 69, 64
2, 111240, Note_off_c, 0, 69, 64
2, 111240, Note_on_c, 0, 72, 64
2, 111360, Note_off_c, 0, 72, 64
2, 111360, Note_off_c, 0, 77, 64
2, 111360, Note_on_c, 0, 86, 64
2, 111360, Note_on_c, 0, 65, 64
2, 111480, Note_off_c, 0, 65, 64
2, 111480, Note_on_c, 0, 74, 64
2, 111600, Note_off_c, 0, 74, 64
2, 111600, Note_on_c, 0, 70, 64
2, 111720, Note_off_c, 0, 70, 64
2, 111720, Note_on_c, 0, 74, 64
2, 111840, Note_off_c, 0, 74, 64
2, 111840, Note_off_c, 0, 86, 64
2, 111840, Note_on_c, 0, 84, 64
2, 111840, Note_on_c, 0, 65, 64
2, 111960, Note_off_c, 0, 65, 64
2, 111960, Note_on_c, 0, 72, 64
2, 112080, Note_off_c, 0, 72, 64
2, 112080, Note_off_c, 0, 84, 64
2, 112080, Note_on_c, 0, 89, 64
2, 112080, Note_on_c, 0, 69, 64
2, 112200, Note_off_c, 0, 69, 64
2, 112200, Note_on_c, 0, 72, 64
2, 112320, Note_off_c, 0, 72, 64
2, 112320, Note_off_c, 0, 89, 64
2, 112320, Note_on_c, 0, 84, 64
2, 112320, Note_on_c, 0, 64, 64
2, 112440, Note_off_c, 0, 64, 64
2, 112440, Note_on_c, 0, 72, 64
2, 112560, Note_off_c, 0, 72, 64
2, 112560, Note_off_c, 0, 84, 64
2, 112560, Note_on_c, 0, 82, 64
2, 112560, Note_on_c, 0, 67, 64
2, 112599, Note_off_c, 0, 82, 64
2, 112599, Note_on_c, 0, 84, 64
2, 112639, Note_off_c, 0, 84, 64
2, 112639, Note_on_c, 0, 82, 64
2, 112679, Note_off_c, 0, 82, 64
2, 112680, Note_off_c, 0, 67, 64
2, 112680, Note_on_c, 0, 81, 64
2, 112680, Note_on_c, 0, 72, 64
2, 112740, Note_off_c, 0, 81, 64
2, 112740, Note_on_c, 0, 82, 64
2, 112800, Note_off_c, 0, 82, 64
2, 112800, Note_off_c, 0, 72, 64
2, 112800, Note_on_c, 0, 81, 64
2, 112800, Note_on_c, 0, 65, 64
2, 112920, Note_off_c, 0, 65, 64
2, 112920, Note_on_c, 0, 72, 64
2, 113040, Note_off_c, 0, 72, 64
2, 113040, Note_off_c, 0, 81, 64
2, 113040, Note_on_c, 0, 69, 64
2, 113160, Note_off_c, 0, 69, 64
2, 113160, Note_on_c, 0, 72, 64
2, 113280, Note_off_c, 0, 72, 64
2, 113280, Note_on_c, 0, 74, 64
2, 113280, Note_on_c, 0, 70, 64
2, 113400, Note_off_c, 0, 74, 64
2, 113400, Note_on_c, 0, 76, 64
2, 113460, Note_off_c, 0, 76, 64
2, 113460, Note_on_c, 0, 77, 64
2, 113520, Note_off_c, 0, 77, 64
2, 113520, Note_off_c, 0, 70, 64
2, 113520, Note_on_c, 0, 79, 64
2, 113580, Note_off_c, 0, 79, 64
2, 113580, Note_on_c, 0, 81, 64
2, 113640, Note_off_c, 0, 81, 64
2, 113640, Note_on_c, 0, 82, 64
2, 113700, Note_off_c, 0, 82, 64
2, 113700, Note_on_c, 0, 84, 64
2, 113760, Note_off_c, 0, 84, 64
2, 113760, Note_on_c, 0, 86, 64
2, 113820, Note_off_c, 0, 86, 64
2, 113820, Note_on_c, 0, 84, 64
2, 113880, Note_off_c, 0, 84, 64
2, 113880, Note_on_c, 0, 82, 64
2, 113940, Note_off_c, 0, 82, 64
2, 113940, Note_on_c, 0, 81, 64
2, 114000, Note_off_c, 0, 81, 64
2, 114000, Note_on_c, 0, 65, 64
2, 114000, Note_on_c, 0, 58, 64
2, 114000, Note_on_c, 0, 79, 64
2, 114060, Note_off_c, 0, 79, 64
2, 114060, Note_on_c, 0, 77, 64
2, 114120, Note_off_c, 0, 77, 64
2, 114120, Note_on_c, 0, 76, 64
2, 114180, Note_off_c, 0, 76, 64
2, 114180, Note_on_c, 0, 74, 64
2, 114240, Note_off_c, 0, 74, 64
2, 114240, Note_off_c, 0, 58, 64
2, 114240, Note_off_c, 0, 65, 64
2, 114240, Note_on_c, 0, 72, 64
2, 114240, Note_on_c, 0, 57, 64
2, 114240, Note_on_c, 0, 65, 64
2, 114360, Note_off_c, 0, 72, 64
2, 114360, Note_on_c, 0, 74, 64
2, 114420, Note_off_c, 0, 74, 64
2, 114420, Note_on_c, 0, 76, 64
2, 114480, Note_off_c, 0, 76, 64
2, 114480, Note_off_c, 0, 65, 64
2, 114480, Note_off_c, 0, 57, 64
2, 114480, Note_on_c, 0, 77, 64
2, 114540, Note_off_c, 0, 77, 64
2, 114540, Note_on_c, 0, 79, 64
2, 114600, Note_off_c, 0, 79, 64
2, 114600, Note_on_c, 0, 81, 64
2, 114660, Note_off_c, 0, 81, 64
2, 114660, Note_on_c, 0, 82, 64
2, 114720, Note_off_c, 0, 82, 64
2, 114720, Note_on_c, 0, 84, 64
2, 114780, Note_off_c, 0, 84, 64
2, 114780, Note_on_c, 0, 82, 64
2, 114840, Note_off_c, 0, 82, 64
2, 114840, Note_on_c, 0, 81, 64
2, 114900, Note_off_c, 0, 81, 64
2, 114900, Note_on_c, 0, 79, 64
2, 114960, Note_off_c, 0, 79, 64
2, 114960, Note_on_c, 0, 65, 64
2, 114960, Note_on_c, 0, 57, 64
2, 114960, Note_on_c, 0, 77, 64
2, 115020, Note_off_c, 0, 77, 64
2, 115020, Note_on_c, 0, 76, 64
2, 115080, Note_off_c, 0, 76, 64
2, 115080, Note_on_c, 0, 74, 64
2, 115140, Note_off_c, 0, 74, 64
2, 115140, Note_on_c, 0, 72, 64
2, 115200, Note_off_c, 0, 72, 64
2, 115200, Note_off_c, 0, 57, 64
2, 115200, Note_off_c, 0, 65, 64
2, 115200, Note_on_c, 0, 70, 64
2, 115200, Note_on_c, 0, 55, 64
2, 115200, Note_on_c, 0, 65, 64
2, 115320, Note_off_c, 0, 70, 64
2, 115320, Note_on_c, 0, 72, 64
2, 115380, Note_off_c, 0, 72, 64
2, 115380, Note_on_c, 0, 74, 64
2, 115440, Note_off_c, 0, 74, 64
2, 115440, Note_off_c, 0, 65, 64
2, 115440, Note_off_c, 0, 55, 64
2, 115440, Note_on_c, 0, 76, 64
2, 115500, Note_off_c, 0, 76, 64
2, 115500, Note_on_c, 0, 77, 64
2, 115560, Note_off_c, 0, 77, 64
2, 115560, Note_on_c, 0, 79, 64
2, 115620, Note_off_c, 0, 79, 64
2, 115620, Note_on_c, 0, 81, 64
2, 115680, Note_off_c, 0, 81, 64
2, 115680, Note_on_c, 0, 82, 64
2, 115740, Note_off_c, 0, 82, 64
2, 115740, Note_on_c, 0, 81, 64
2, 115800, Note_off_c, 0, 81, 64
2, 115800, Note_on_c, 0, 79, 64
2, 115860, Note_off_c, 0, 79, 64
2, 115860, Note_on_c, 0, 77, 64
2, 115920, Note_off_c, 0, 77, 64
2, 115920, Note_on_c, 0, 64, 64
2, 115920, Note_on_c, 0, 55, 64
2, 115920, Note_on_c, 0, 76, 64
2, 115980, Note_off_c, 0, 76, 64
2, 115980, Note_on_c, 0, 74, 64
2, 116040, Note_off_c, 0, 74, 64
2, 116040, Note_on_c, 0, 72, 64
2, 116100, Note_off_c, 0, 72, 64
2, 116100, Note_on_c, 0, 70, 64
2, 116160, Note_off_c, 0, 70, 64
2, 116160, Note_off_c, 0, 55, 64
2, 116160, Note_off_c, 0, 64, 64
2, 116160, Note_on_c, 0, 69, 64
2, 116160, Note_on_c, 0, 53, 64
2, 116160, Note_on_c, 0, 65, 64
2, 116280, Note_off_c, 0, 69, 64
2, 116280, Note_on_c, 0, 70, 64
2, 116340, Note_off_c, 0, 70, 64
2, 116340, Note_on_c, 0, 72, 64
2, 116400, Note_off_c, 0, 72, 64
2, 116400, Note_off_c, 0, 65, 64
2, 116400, Note_off_c, 0, 53, 64
2, 116400, Note_on_c, 0, 74, 64
2, 116460, Note_off_c, 0, 74, 64
2, 116460, Note_on_c, 0, 76, 64
2, 116520, Note_off_c, 0, 76, 64
2, 116520, Note_on_c, 0, 77, 64
2, 116580, Note_off_c, 0, 77, 64
2, 116580, Note_on_c, 0, 79, 64
2, 116640, Note_off_c, 0, 79, 64
2, 116640, Note_on_c, 0, 81, 64
2, 116700, Note_off_c, 0, 81, 64
2, 116700, Note_on_c, 0, 79, 64
2, 116760, Note_off_c, 0, 79, 64
2, 116760, Note_on_c, 0, 77, 64
2, 116820, Note_off_c, 0, 77, 64
2, 116820, Note_on_c, 0, 76, 64
2, 116880, Note_off_c, 0, 76, 64
2, 116880, Note_on_c, 0, 74, 64
2, 116940, Note_off_c, 0, 74, 64
2, 116940, Note_on_c, 0, 72, 64
2, 117000, Note_off_c, 0, 72, 64
2, 117000, Note_on_c, 0, 70, 64
2, 117060, Note_off_c, 0, 70, 64
2, 117060, Note_on_c, 0, 69, 64
2, 117120, Note_off_c, 0, 69, 64
2, 117120, Note_on_c, 0, 81, 64
2, 117120, Note_on_c, 0, 53, 64
2, 117240, Note_off_c, 0, 53, 64
2, 117240, Note_on_c, 0, 55, 64
2, 117300, Note_off_c, 0, 55, 64
2, 117300, Note_on_c, 0, 57, 64
2, 117360, Note_off_c, 0, 57, 64
2, 117360, Note_off_c, 0, 81, 64
2, 117360, Note_on_c, 0, 58, 64
2, 117420, Note_off_c, 0, 58, 64
2, 117420, Note_on_c, 0, 60, 64
2, 117480, Note_off_c, 0, 60, 64
2, 117480, Note_on_c, 0, 62, 64
2, 117540, Note_off_c, 0, 62, 64
2, 117540, Note_on_c, 0, 64, 64
2, 117600, Note_off_c, 0, 64, 64
2, 117600, Note_on_c, 0, 65, 64
2, 117660, Note_off_c, 0, 65, 64
2, 117660, Note_on_c, 0, 64, 64
2, 117720, Note_off_c, 0, 64, 64
2, 117720, Note_on_c, 0, 62, 64
2, 117780, Note_off_c, 0, 62, 64
2, 117780, Note_on_c, 0, 60, 64
2, 117840, Note_off_c, 0, 60, 64
2, 117840, Note_on_c, 0, 81, 64
2, 117840, Note_on_c, 0, 72, 64
2, 117840, Note_on_c, 0, 58, 64
2, 117900, Note_off_c, 0, 58, 64
2, 117900, Note_on_c, 0, 57, 64
2, 117960, Note_off_c, 0, 57, 64
2, 117960, Note_on_c, 0, 55, 64
2, 118020, Note_off_c, 0, 55, 64
2, 118020, Note_on_c, 0, 53, 64
2, 118080, Note_off_c, 0, 53, 64
2, 118080, Note_off_c, 0, 72, 64
2, 118080, Note_off_c, 0, 81, 64
2, 118080, Note_on_c, 0, 72, 64
2, 118080, Note_on_c, 0, 79, 64
2, 118080, Note_on_c, 0, 52, 64
2, 118200, Note_off_c, 0, 52, 64
2, 118200, Note_on_c, 0, 53, 64
2, 118260, Note_off_c, 0, 53, 64
2, 118260, Note_on_c, 0, 55, 64
2, 118320, Note_off_c, 0, 55, 64
2, 118320, Note_off_c, 0, 79, 64
2, 118320, Note_off_c, 0, 72, 64
2, 118320, Note_on_c, 0, 57, 64
2, 118380, Note_off_c, 0, 57, 64
2, 118380, Note_on_c, 0, 59, 64
2, 118440, Note_off_c, 0, 59, 64
2, 118440, Note_on_c, 0, 60, 64
2, 118500, Note_off_c, 0, 60, 64
2, 118500, Note_on_c, 0, 62, 64
2, 118560, Note_off_c, 0, 62, 64
2, 118560, Note_on_c, 0, 64, 64
2, 118620, Note_off_c, 0, 64, 64
2, 118620, Note_on_c, 0, 62, 64
2, 118680, Note_off_c, 0, 62, 64
2, 118680, Note_on_c, 0, 60, 64
2, 118740, Note_off_c, 0, 60, 64
2, 118740, Note_on_c, 0, 59, 64
2, 118800, Note_off_c, 0, 59, 64
2, 118800, Note_on_c, 0, 79, 64
2, 118800, Note_on_c, 0, 72, 64
2, 118800, Note_on_c, 0, 57, 64
2, 118860, Note_off_c, 0, 57, 64
2, 118860, Note_on_c, 0, 55, 64
2, 118920, Note_off_c, 0, 55, 64
2, 118920, Note_on_c, 0, 53, 64
2, 118980, Note_off_c, 0, 53, 64
2, 118980, Note_on_c, 0, 52, 64
2, 119040, Note_off_c, 0, 52, 64
2, 119040, Note_off_c, 0, 72, 64
2, 119040, Note_off_c, 0, 79, 64
2, 119040, Note_on_c, 0, 72, 64
2, 119040, Note_on_c, 0, 77, 64
2, 119040, Note_on_c, 0, 50, 64
2, 119160, Note_off_c, 0, 50, 64
2, 119160, Note_on_c, 0, 52, 64
2, 119220, Note_off_c, 0, 52, 64
2, 119220, Note_on_c, 0, 53, 64
2, 119280, Note_off_c, 0, 53, 64
2, 119280, Note_off_c, 0, 77, 64
2, 119280, Note_off_c, 0, 72, 64
2, 119280, Note_on_c, 0, 55, 64
2, 119340, Note_off_c, 0, 55, 64
2, 119340, Note_on_c, 0, 57, 64
2, 119400, Note_off_c, 0, 57, 64
2, 119400, Note_on_c, 0, 59, 64
2, 119460, Note_off_c, 0, 59, 64
2, 119460, Note_on_c, 0, 60, 64
2, 119520, Note_off_c, 0, 60, 64
2, 119520, Note_on_c, 0, 62, 64
2, 119580, Note_off_c, 0, 62, 64
2, 119580, Note_on_c, 0, 60, 64
2, 119640, Note_off_c, 0, 60, 64
2, 119640, Note_on_c, 0, 59, 64
2, 119700, Note_off_c, 0, 59, 64
2, 119700, Note_on_c, 0, 57, 64
2, 119760, Note_off_c, 0, 57, 64
2, 119760, Note_on_c, 0, 77, 64
2, 119760, Note_on_c, 0, 71, 64
2, 119760, Note_on_c, 0, 55, 64
2, 119820, Note_off_c, 0, 55, 64
2, 119820, Note_on_c, 0, 53, 64
2, 119880, Note_off_c, 0, 53, 64
2, 119880, Note_on_c, 0, 52, 64
2, 119940, Note_off_c, 0, 52, 64
2, 119940, Note_on_c, 0, 50, 64
2, 120000, Note_off_c, 0, 50, 64
2, 120000, Note_off_c, 0, 71, 64
2, 120000, Note_off_c, 0, 77, 64
2, 120000, Note_on_c, 0, 72, 64
2, 120000, Note_on_c, 0, 76, 64
2, 120000, Note_on_c, 0, 48, 64
2, 120120, Note_off_c, 0, 48, 64
2, 120120, Note_on_c, 0, 50, 64
2, 120180, Note_off_c, 0, 50, 64
2, 120180, Note_on_c, 0, 52, 64
2, 120240, Note_off_c, 0, 52, 64
2, 120240, Note_off_c, 0, 76, 64
2, 120240, Note_off_c, 0, 72, 64
2, 120240, Note_on_c, 0, 53, 64
2, 120300, Note_off_c, 0, 53, 64
2, 120300, Note_on_c, 0, 55, 64
2, 120360, Note_off_c, 0, 55, 64
2, 120360, Note_on_c, 0, 57, 64
2, 120420, Note_off_c, 0, 57, 64
2, 120420, Note_on_c, 0, 59, 64
2, 120480, Note_off_c, 0, 59, 64
2, 120480, Note_on_c, 0, 60, 64
2, 120540, Note_off_c, 0, 60, 64
2, 120540, Note_on_c, 0, 59, 64
2, 120600, Note_off_c, 0, 59, 64
2, 120600, Note_on_c, 0, 57, 64
2, 120660, Note_off_c, 0, 57, 64
2, 120660, Note_on_c, 0, 55, 64
2, 120720, Note_off_c, 0, 55, 64
2, 120720, Note_on_c, 0, 76, 64
2, 120720, Note_on_c, 0, 72, 64
2, 120720, Note_on_c, 0, 53, 64
2, 120780, Note_off_c, 0, 53, 64
2, 120780, Note_on_c, 0, 52, 64
2, 120840, Note_off_c, 0, 52, 64
2, 120840, Note_on_c, 0, 50, 64
2, 120900, Note_off_c, 0, 50, 64
2, 120900, Note_on_c, 0, 48, 64
2, 120960, Note_off_c, 0, 48, 64
2, 120960, Note_off_c, 0, 72, 64
2, 120960, Note_off_c, 0, 76, 64
2, 120960, Note_on_c, 0, 57, 64
2, 120960, Note_on_c, 0, 53, 64
2, 120960, Note_on_c, 0, 74, 64
2, 121020, Note_off_c, 0, 74, 64
2, 121020, Note_on_c, 0, 62, 64
2, 121080, Note_off_c, 0, 62, 64
2, 121080, Note_on_c, 0, 64, 64
2, 121140, Note_off_c, 0, 64, 64
2, 121140, Note_on_c, 0, 65, 64
2, 121200, Note_off_c, 0, 65, 64
2, 121200, Note_on_c, 0, 67, 64
2, 121260, Note_off_c, 0, 67, 64
2, 121260, Note_on_c, 0, 69, 64
2, 121320, Note_off_c, 0, 69, 64
2, 121320, Note_on_c, 0, 71, 64
2, 121380, Note_off_c, 0, 71, 64
2, 121380, Note_on_c, 0, 73, 64
2, 121440, Note_off_c, 0, 73, 64
2, 121440, Note_on_c, 0, 74, 64
2, 121500, Note_off_c, 0, 74, 64
2, 121500, Note_on_c, 0, 69, 64
2, 121560, Note_off_c, 0, 69, 64
2, 121560, Note_on_c, 0, 71, 64
2, 121620, Note_off_c, 0, 71, 64
2, 121620, Note_on_c, 0, 73, 64
2, 121680, Note_off_c, 0, 73, 64
2, 121680, Note_on_c, 0, 74, 64
2, 121740, Note_off_c, 0, 74, 64
2, 121740, Note_on_c, 0, 76, 64
2, 121800, Note_off_c, 0, 76, 64
2, 121800, Note_on_c, 0, 77, 64
2, 121860, Note_off_c, 0, 77, 64
2, 121860, Note_on_c, 0, 79, 64
2, 121920, Note_off_c, 0, 79, 64
2, 121920, Note_off_c, 0, 53, 64
2, 121920, Note_off_c, 0, 57, 64
2, 121920, Note_on_c, 0, 81, 64
2, 121920, Note_on_c, 0, 53, 64
2, 121980, Note_off_c, 0, 81, 64
2, 121980, Note_on_c, 0, 83, 64
2, 122040, Note_off_c, 0, 83, 64
2, 122040, Note_on_c, 0, 84, 64
2, 122100, Note_off_c, 0, 84, 64
2, 122100, Note_on_c, 0, 83, 64
2, 122160, Note_off_c, 0, 83, 64
2, 122160, Note_on_c, 0, 81, 64
2, 122220, Note_off_c, 0, 81, 64
2, 122220, Note_on_c, 0, 79, 64
2, 122280, Note_off_c, 0, 79, 64
2, 122280, Note_off_c, 0, 53, 64
2, 122280, Note_on_c, 0, 77, 64
2, 122280, Note_on_c, 0, 55, 64
2, 122340, Note_off_c, 0, 77, 64
2, 122340, Note_on_c, 0, 76, 64
2, 122400, Note_off_c, 0, 76, 64
2, 122400, Note_off_c, 0, 55, 64
2, 122400, Note_on_c, 0, 77, 64
2, 122400, Note_on_c, 0, 57, 64
2, 122460, Note_off_c, 0, 77, 64
2, 122460, Note_on_c, 0, 79, 64
2, 122520, Note_off_c, 0, 79, 64
2, 122520, Note_on_c, 0, 81, 64
2, 122580, Note_off_c, 0, 81, 64
2, 122580, Note_on_c, 0, 79, 64
2, 122640, Note_off_c, 0, 79, 64
2, 122640, Note_on_c, 0, 77, 64
2, 122700, Note_off_c, 0, 77, 64
2, 122700, Note_on_c, 0, 76, 64
2, 122760, Note_off_c, 0, 76, 64
2, 122760, Note_off_c, 0, 57, 64
2, 122760, Note_on_c, 0, 54, 64
2, 122760, Note_on_c, 0, 74, 64
2, 122820, Note_off_c, 0, 74, 64
2, 122820, Note_on_c, 0, 72, 64
2, 122880, Note_off_c, 0, 72, 64
2, 122880, Note_off_c, 0, 54, 64
2, 122880, Note_on_c, 0, 71, 64
2, 122880, Note_on_c, 0, 43, 64
2, 122940, Note_off_c, 0, 43, 64
2, 122940, Note_on_c, 0, 47, 64
2, 123000, Note_off_c, 0, 47, 64
2, 123000, Note_off_c, 0, 71, 64
2, 123000, Note_on_c, 0, 79, 64
2, 123000, Note_on_c, 0, 50, 64
2, 123060, Note_off_c, 0, 50, 64
2, 123060, Note_on_c, 0, 55, 64
2, 123120, Note_off_c, 0, 55, 64
2, 123120, Note_off_c, 0, 79, 64
2, 123120, Note_on_c, 0, 76, 64
2, 123120, Note_on_c, 0, 43, 64
2, 123180, Note_off_c, 0, 43, 64
2, 123180, Note_on_c, 0, 48, 64
2, 123240, Note_off_c, 0, 48, 64
2, 123240, Note_off_c, 0, 76, 64
2, 123240, Note_on_c, 0, 72, 64
2, 123240, Note_on_c, 0, 52, 64
2, 123300, Note_off_c, 0, 52, 64
2, 123300, Note_on_c, 0, 55, 64
2, 123360, Note_off_c, 0, 55, 64
2, 123360, Note_off_c, 0, 72, 64
2, 123360, Note_on_c, 0, 74, 64
2, 123360, Note_on_c, 0, 43, 64
2, 123420, Note_off_c, 0, 43, 64
2, 123420, Note_on_c, 0, 47, 64
2, 123480, Note_off_c, 0, 47, 64
2, 123480, Note_off_c, 0, 74, 64
2, 123480, Note_on_c, 0, 79, 64
2, 123480, Note_on_c, 0, 50, 64
2, 123540, Note_off_c, 0, 50, 64
2, 123540, Note_on_c, 0, 55, 64
2, 123600, Note_off_c, 0, 55, 64
2, 123600, Note_off_c, 0, 79, 64
2, 123600, Note_on_c, 0, 76, 64
2, 123600, Note_on_c, 0, 43, 64
2, 123660, Note_off_c, 0, 43, 64
2, 123660, Note_on_c, 0, 48, 64
2, 123720, Note_off_c, 0, 48, 64
2, 123720, Note_off_c, 0, 76, 64
2, 123720, Note_on_c, 0, 72, 64
2, 123720, Note_on_c, 0, 52, 64
2, 123780, Note_off_c, 0, 52, 64
2, 123780, Note_on_c, 0, 55, 64
2, 123840, Note_off_c, 0, 55, 64
2, 123840, Note_off_c, 0, 72, 64
2, 123840, Note_on_c, 0, 74, 64
2, 123840, Note_on_c, 0, 43, 64
2, 124080, Note_off_c, 0, 43, 64
2, 124080, Note_off_c, 0, 74, 64
2, 124080, Note_on_c, 0, 71, 64
2, 124080, Note_on_c, 0, 74, 64
2, 124080, Note_on_c, 0, 79, 64
2, 124080, Note_on_c, 0, 55, 64
2, 124320, Note_off_c, 0, 55, 64
2, 124320, Note_off_c, 0, 79, 64
2, 124320, Note_off_c, 0, 74, 64
2, 124320, Note_off_c, 0, 71, 64
2, 124320, Note_on_c, 0, 67, 64
2, 124320, Note_on_c, 0, 43, 64
2, 124560, Note_off_c, 0, 43, 64
2, 124560, Note_off_c, 0, 67, 64
2, 124800, Note_on_c, 0, 66, 64
2, 124860, Note_off_c, 0, 66, 64
2, 124860, Note_on_c, 0, 67, 64
2, 124920, Note_off_c, 0, 67, 64
2, 124920, Note_on_c, 0, 66, 64
2, 124980, Note_off_c, 0, 66, 64
2, 124980, Note_on_c, 0, 67, 64
2, 125040, Note_off_c, 0, 67, 64
2, 125040, Note_on_c, 0, 66, 64
2, 125100, Note_off_c, 0, 66, 64
2, 125100, Note_on_c, 0, 67, 64
2, 125160, Note_off_c, 0, 67, 64
2, 125160, Note_on_c, 0, 66, 64
2, 125220, Note_off_c, 0, 66, 64
2, 125220, Note_on_c, 0, 67, 64
2, 125280, Note_off_c, 0, 67, 64
2, 125280, Note_on_c, 0, 65, 64
2, 125340, Note_off_c, 0, 65, 64
2, 125340, Note_on_c, 0, 67, 64
2, 125400, Note_off_c, 0, 67, 64
2, 125400, Note_on_c, 0, 65, 64
2, 125460, Note_off_c, 0, 65, 64
2, 125460, Note_on_c, 0, 67, 64
2, 125520, Note_off_c, 0, 67, 64
2, 125520, Note_on_c, 0, 65, 64
2, 125580, Note_off_c, 0, 65, 64
2, 125580, Note_on_c, 0, 67, 64
2, 125640, Note_off_c, 0, 67, 64
2, 125640, Note_on_c, 0, 65, 64
2, 125700, Note_off_c, 0, 65, 64
2, 125700, Note_on_c, 0, 67, 64
2, 125760, Note_off_c, 0, 67, 64
2, 125760, Note_on_c, 0, 79, 64
2, 125760, Note_on_c, 0, 64, 64
2, 125820, Note_off_c, 0, 64, 64
2, 125820, Note_on_c, 0, 67, 64
2, 125880, Note_off_c, 0, 67, 64
2, 125880, Note_off_c, 0, 79, 64
2, 125880, Note_on_c, 0, 76, 64
2, 125880, Note_on_c, 0, 64, 64
2, 125940, Note_off_c, 0, 64, 64
2, 125940, Note_on_c, 0, 67, 64
2, 126000, Note_off_c, 0, 67, 64
2, 126000, Note_off_c, 0, 76, 64
2, 126000, Note_on_c, 0, 72, 64
2, 126000, Note_on_c, 0, 64, 64
2, 126060, Note_off_c, 0, 64, 64
2, 126060, Note_on_c, 0, 67, 64
2, 126120, Note_off_c, 0, 67, 64
2, 126120, Note_on_c, 0, 64, 64
2, 126180, Note_off_c, 0, 64, 64
2, 126180, Note_on_c, 0, 67, 64
2, 126240, Note_off_c, 0, 67, 64
2, 126240, Note_on_c, 0, 64, 64
2, 126300, Note_off_c, 0, 64, 64
2, 126300, Note_on_c, 0, 67, 64
2, 126360, Note_off_c, 0, 67, 64
2, 126360, Note_off_c, 0, 72, 64
2, 126360, Note_on_c, 0, 74, 64
2, 126360, Note_on_c, 0, 64, 64
2, 126420, Note_off_c, 0, 64, 64
2, 126420, Note_off_c, 0, 74, 64
2, 126420, Note_on_c, 0, 76, 64
2, 126420, Note_on_c, 0, 67, 64
2, 126480, Note_off_c, 0, 67, 64
2, 126480, Note_off_c, 0, 76, 64
2, 126480, Note_on_c, 0, 64, 64
2, 126480, Note_on_c, 0, 74, 64
2, 126540, Note_off_c, 0, 64, 64
2, 126540, Note_on_c, 0, 67, 64
2, 126600, Note_off_c, 0, 67, 64
2, 126600, Note_off_c, 0, 74, 64
2, 126600, Note_on_c, 0, 64, 64
2, 126600, Note_on_c, 0, 72, 64
2, 126660, Note_off_c, 0, 64, 64
2, 126660, Note_on_c, 0, 67, 64
2, 126720, Note_off_c, 0, 67, 64
2, 126720, Note_off_c, 0, 72, 64
2, 126720, Note_on_c, 0, 74, 64
2, 126720, Note_on_c, 0, 65, 64
2, 126750, Note_off_c, 0, 74, 64
2, 126750, Note_on_c, 0, 72, 48
2, 126780, Note_off_c, 0, 72, 64
2, 126780, Note_off_c, 0, 65, 64
2, 126780, Note_on_c, 0, 74, 52
2, 126780, Note_on_c, 0, 67, 64
2, 126810, Note_off_c, 0, 74, 64
2, 126810, Note_on_c, 0, 72, 56
2, 126840, Note_off_c, 0, 72, 64
2, 126840, Note_off_c, 0, 67, 64
2, 126840, Note_on_c, 0, 74, 60
2, 126840, Note_on_c, 0, 64, 64
2, 126870, Note_off_c, 0, 74, 64
2, 126870, Note_on_c, 0, 72, 64
2, 126900, Note_off_c, 0, 72, 64
2, 126900, Note_off_c, 0, 64, 64
2, 126900, Note_on_c, 0, 71, 68
2, 126900, Note_on_c, 0, 67, 64
2, 126950, Note_off_c, 0, 71, 64
2, 126960, Note_off_c, 0, 67, 64
2, 126960, Note_on_c, 0, 71, 64
2, 126960, Note_on_c, 0, 62, 64
2, 127020, Note_off_c, 0, 62, 64
2, 127020, Note_on_c, 0, 67, 64
2, 127080, Note_off_c, 0, 67, 64
2, 127080, Note_on_c, 0, 64, 64
2, 127140, Note_off_c, 0, 64, 64
2, 127140, Note_on_c, 0, 67, 64
2, 127200, Note_off_c, 0, 67, 64
2, 127200, Note_on_c, 0, 65, 64
2, 127260, Note_off_c, 0, 65, 64
2, 127260, Note_on_c, 0, 67, 64
2, 127320, Note_off_c, 0, 67, 64
2, 127320, Note_on_c, 0, 64, 64
2, 127380, Note_off_c, 0, 64, 64
2, 127380, Note_on_c, 0, 67, 64
2, 127440, Note_off_c, 0, 67, 64
2, 127440, Note_on_c, 0, 65, 64
2, 127500, Note_off_c, 0, 65, 64
2, 127500, Note_on_c, 0, 67, 64
2, 127560, Note_off_c, 0, 67, 64
2, 127560, Note_on_c, 0, 62, 64
2, 127620, Note_off_c, 0, 62, 64
2, 127620, Note_on_c, 0, 67, 64
2, 127680, Note_off_c, 0, 67, 64
2, 127680, Note_off_c, 0, 71, 64
2, 127680, Note_on_c, 0, 79, 64
2, 127680, Note_on_c, 0, 64, 64
2, 127740, Note_off_c, 0, 64, 64
2, 127740, Note_on_c, 0, 67, 64
2, 127800, Note_off_c, 0, 67, 64
2, 127800, Note_off_c, 0, 79, 64
2, 127800, Note_on_c, 0, 76, 64
2, 127800, Note_on_c, 0, 64, 64
2, 127860, Note_off_c, 0, 64, 64
2, 127860, Note_on_c, 0, 67, 64
2, 127920, Note_off_c, 0, 67, 64
2, 127920, Note_off_c, 0, 76, 64
2, 127920, Note_on_c, 0, 72, 64
2, 127920, Note_on_c, 0, 64, 64
2, 127980, Note_off_c, 0, 64, 64
2, 127980, Note_on_c, 0, 67, 64
2, 128040, Note_off_c, 0, 67, 64
2, 128040, Note_on_c, 0, 64, 64
2, 128100, Note_off_c, 0, 64, 64
2, 128100, Note_on_c, 0, 67, 64
2, 128160, Note_off_c, 0, 67, 64
2, 128160, Note_on_c, 0, 64, 64
2, 128220, Note_off_c, 0, 64, 64
2, 128220, Note_on_c, 0, 67, 64
2, 128280, Note_off_c, 0, 67, 64
2, 128280, Note_off_c, 0, 72, 64
2, 128280, Note_on_c, 0, 74, 64
2, 128280, Note_on_c, 0, 64, 64
2, 128340, Note_off_c, 0, 64, 64
2, 128340, Note_off_c, 0, 74, 64
2, 128340, Note_on_c, 0, 76, 64
2, 128340, Note_on_c, 0, 67, 64
2, 128400, Note_off_c, 0, 67, 64
2, 128400, Note_off_c, 0, 76, 64
2, 128400, Note_on_c, 0, 74, 64
2, 128400, Note_on_c, 0, 64, 64
2, 128460, Note_off_c, 0, 64, 64
2, 128460, Note_on_c, 0, 67, 64
2, 128520, Note_off_c, 0, 67, 64
2, 128520, Note_off_c, 0, 74, 64
2, 128520, Note_on_c, 0, 72, 64
2, 128520, Note_on_c, 0, 64, 64
2, 128580, Note_off_c, 0, 64, 64
2, 128580, Note_on_c, 0, 67, 64
2, 128640, Note_off_c, 0, 67, 64
2, 128640, Note_off_c, 0, 72, 64
2, 128640, Note_on_c, 0, 74, 64
2, 128640, Note_on_c, 0, 65, 64
2, 128670, Note_off_c, 0, 74, 64
2, 128670, Note_on_c, 0, 72, 48
2, 128700, Note_off_c, 0, 72, 64
2, 128700, Note_off_c, 0, 65, 64
2, 128700, Note_on_c, 0, 74, 52
2, 128700, Note_on_c, 0, 67, 64
2, 128730, Note_off_c, 0, 74, 64
2, 128730, Note_on_c, 0, 72, 56
2, 128760, Note_off_c, 0, 72, 64
2, 128760, Note_off_c, 0, 67, 64
2, 128760, Note_on_c, 0, 74, 60
2, 128760, Note_on_c, 0, 64, 64
2, 128790, Note_off_c, 0, 74, 64
2, 128790, Note_on_c, 0, 72, 64
2, 128820, Note_off_c, 0, 72, 64
2, 128820, Note_off_c, 0, 64, 64
2, 128820, Note_on_c, 0, 71, 68
2, 128820, Note_on_c, 0, 67, 64
2, 128870, Note_off_c, 0, 71, 64
2, 128880, Note_off_c, 0, 67, 64
2, 128880, Note_on_c, 0, 71, 64
2, 128880, Note_on_c, 0, 62, 64
2, 128940, Note_off_c, 0, 62, 64
2, 128940, Note_on_c, 0, 67, 64
2, 129000, Note_off_c, 0, 67, 64
2, 129000, Note_on_c, 0, 64, 64
2, 129060, Note_off_c, 0, 64, 64
2, 129060, Note_on_c, 0, 67, 64
2, 129120, Note_off_c, 0, 67, 64
2, 129120, Note_on_c, 0, 65, 64
2, 129180, Note_off_c, 0, 65, 64
2, 129180, Note_on_c, 0, 67, 64
2, 129240, Note_off_c, 0, 67, 64
2, 129240, Note_on_c, 0, 64, 64
2, 129300, Note_off_c, 0, 64, 64
2, 129300, Note_on_c, 0, 67, 64
2, 129360, Note_off_c, 0, 67, 64
2, 129360, Note_off_c, 0, 71, 64
2, 129360, Note_on_c, 0, 65, 64
2, 129420, Note_off_c, 0, 65, 64
2, 129420, Note_on_c, 0, 67, 64
2, 129480, Note_off_c, 0, 67, 64
2, 129480, Note_on_c, 0, 62, 64
2, 129540, Note_off_c, 0, 62, 64
2, 129540, Note_on_c, 0, 67, 64
2, 129600, Note_off_c, 0, 67, 64
2, 129600, Note_on_c, 0, 79, 64
2, 129660, Note_on_c, 0, 52, 64
2, 129720, Note_off_c, 0, 52, 64
2, 129720, Note_on_c, 0, 55, 64
2, 129780, Note_off_c, 0, 55, 64
2, 129780, Note_on_c, 0, 60, 64
2, 129840, Note_off_c, 0, 60, 64
2, 129840, Note_off_c, 0, 79, 64
2, 129840, Note_on_c, 0, 64, 64
2, 129900, Note_on_c, 0, 79, 64
2, 129960, Note_off_c, 0, 79, 64
2, 129960, Note_on_c, 0, 76, 64
2, 130020, Note_off_c, 0, 76, 64
2, 130020, Note_on_c, 0, 72, 64
2, 130080, Note_off_c, 0, 72, 64
2, 130080, Note_off_c, 0, 64, 64
2, 130080, Note_on_c, 0, 69, 64
2, 130140, Note_on_c, 0, 53, 64
2, 130200, Note_off_c, 0, 53, 64
2, 130200, Note_on_c, 0, 57, 64
2, 130260, Note_off_c, 0, 57, 64
2, 130260, Note_on_c, 0, 60, 64
2, 130320, Note_off_c, 0, 60, 64
2, 130320, Note_off_c, 0, 69, 64
2, 130320, Note_on_c, 0, 65, 64
2, 130380, Note_on_c, 0, 69, 64
2, 130440, Note_off_c, 0, 69, 64
2, 130440, Note_on_c, 0, 72, 64
2, 130500, Note_off_c, 0, 72, 64
2, 130500, Note_on_c, 0, 69, 64
2, 130560, Note_off_c, 0, 69, 64
2, 130560, Note_off_c, 0, 65, 64
2, 130560, Note_on_c, 0, 77, 64
2, 130620, Note_on_c, 0, 50, 64
2, 130680, Note_off_c, 0, 50, 64
2, 130680, Note_on_c, 0, 53, 64
2, 130740, Note_off_c, 0, 53, 64
2, 130740, Note_on_c, 0, 59, 64
2, 130800, Note_off_c, 0, 59, 64
2, 130800, Note_off_c, 0, 77, 64
2, 130800, Note_on_c, 0, 62, 64
2, 130860, Note_on_c, 0, 77, 64
2, 130920, Note_off_c, 0, 77, 64
2, 130920, Note_on_c, 0, 74, 64
2, 130980, Note_off_c, 0, 74, 64
2, 130980, Note_on_c, 0, 71, 64
2, 131040, Note_off_c, 0, 71, 64
2, 131040, Note_off_c, 0, 62, 64
2, 131040, Note_on_c, 0, 67, 64
2, 131100, Note_on_c, 0, 52, 64
2, 131160, Note_off_c, 0, 52, 64
2, 131160, Note_on_c, 0, 55, 64
2, 131220, Note_off_c, 0, 55, 64
2, 131220, Note_on_c, 0, 59, 64
2, 131280, Note_off_c, 0, 59, 64
2, 131280, Note_off_c, 0, 67, 64
2, 131280, Note_on_c, 0, 64, 64
2, 131340, Note_on_c, 0, 79, 64
2, 131400, Note_off_c, 0, 79, 64
2, 131400, Note_on_c, 0, 83, 64
2, 131460, Note_off_c, 0, 83, 64
2, 131460, Note_on_c, 0, 79, 64
2, 131520, Note_off_c, 0, 79, 64
2, 131520, Note_off_c, 0, 64, 64
2, 131520, Note_on_c, 0, 88, 64
2, 131580, Note_on_c, 0, 60, 64
2, 131640, Note_off_c, 0, 60, 64
2, 131640, Note_on_c, 0, 64, 64
2, 131700, Note_off_c, 0, 64, 64
2, 131700, Note_on_c, 0, 69, 64
2, 131760, Note_off_c, 0, 69, 64
2, 131760, Note_off_c, 0, 88, 64
2, 131760, Note_on_c, 0, 72, 64
2, 131820, Note_on_c, 0, 88, 64
2, 131880, Note_off_c, 0, 88, 64
2, 131880, Note_on_c, 0, 84, 64
2, 131940, Note_off_c, 0, 84, 64
2, 131940, Note_on_c, 0, 81, 64
2, 132000, Note_off_c, 0, 81, 64
2, 132000, Note_off_c, 0, 72, 64
2, 132000, Note_on_c, 0, 77, 64
2, 132060, Note_on_c, 0, 62, 64
2, 132120, Note_off_c, 0, 62, 64
2, 132120, Note_on_c, 0, 65, 64
2, 132180, Note_off_c, 0, 65, 64
2, 132180, Note_on_c, 0, 69, 64
2, 132240, Note_off_c, 0, 69, 64
2, 132240, Note_off_c, 0, 77, 64
2, 132240, Note_on_c, 0, 74, 64
2, 132300, Note_on_c, 0, 77, 64
2, 132360, Note_off_c, 0, 77, 64
2, 132360, Note_on_c, 0, 81, 64
2, 132420, Note_off_c, 0, 81, 64
2, 132420, Note_on_c, 0, 77, 64
2, 132480, Note_off_c, 0, 77, 64
2, 132480, Note_off_c, 0, 74, 64
2, 132480, Note_on_c, 0, 86, 64
2, 132540, Note_on_c, 0, 59, 64
2, 132600, Note_off_c, 0, 59, 64
2, 132600, Note_on_c, 0, 62, 64
2, 132660, Note_off_c, 0, 62, 64
2, 132660, Note_on_c, 0, 67, 64
2, 132720, Note_off_c, 0, 67, 64
2, 132720, Note_off_c, 0, 86, 64
2, 132720, Note_on_c, 0, 71, 64
2, 132780, Note_on_c, 0, 86, 64
2, 132840, Note_off_c, 0, 86, 64
2, 132840, Note_on_c, 0, 83, 64
2, 132900, Note_off_c, 0, 83, 64
2, 132900, Note_on_c, 0, 79, 64
2, 132960, Note_off_c, 0, 79, 64
2, 132960, Note_off_c, 0, 71, 64
2, 132960, Note_on_c, 0, 76, 64
2, 133020, Note_on_c, 0, 60, 64
2, 133080, Note_off_c, 0, 60, 64
2, 133080, Note_on_c, 0, 64, 64
2, 133140, Note_off_c, 0, 64, 64
2, 133140, Note_on_c, 0, 67, 64
2, 133200, Note_off_c, 0, 67, 64
2, 133200, Note_off_c, 0, 76, 64
2, 133200, Note_on_c, 0, 72, 64
2, 133260, Note_on_c, 0, 84, 64
2, 133320, Note_off_c, 0, 84, 64
2, 133320, Note_on_c, 0, 79, 64
2, 133380, Note_off_c, 0, 79, 64
2, 133380, Note_on_c, 0, 76, 64
2, 133440, Note_off_c, 0, 76, 64
2, 133440, Note_off_c, 0, 72, 64
2, 133440, Note_on_c, 0, 74, 64
2, 133560, Note_on_c, 0, 69, 64
2, 133560, Note_on_c, 0, 65, 64
2, 133656, Note_off_c, 0, 65, 64
2, 133656, Note_off_c, 0, 69, 64
2, 133680, Note_on_c, 0, 69, 64
2, 133680, Note_on_c, 0, 65, 64
2, 133776, Note_off_c, 0, 65, 64
2, 133776, Note_off_c, 0, 69, 64
2, 133800, Note_on_c, 0, 69, 64
2, 133800, Note_on_c, 0, 65, 64
2, 133896, Note_off_c, 0, 65, 64
2, 133896, Note_off_c, 0, 69, 64
2, 133910, Note_off_c, 0, 74, 64
2, 133920, Note_on_c, 0, 69, 64
2, 133920, Note_on_c, 0, 65, 64
2, 133920, Note_on_c, 0, 73, 72
2, 133950, Note_off_c, 0, 73, 64
2, 133950, Note_on_c, 0, 74, 64
2, 134016, Note_off_c, 0, 65, 64
2, 134016, Note_off_c, 0, 69, 64
2, 134040, Note_on_c, 0, 69, 64
2, 134040, Note_on_c, 0, 65, 64
2, 134136, Note_off_c, 0, 65, 64
2, 134136, Note_off_c, 0, 69, 64
2, 134160, Note_off_c, 0, 74, 64
2, 134160, Note_on_c, 0, 69, 64
2, 134160, Note_on_c, 0, 65, 64
2, 134160, Note_on_c, 0, 73, 72
2, 134190, Note_off_c, 0, 73, 64
2, 134190, Note_on_c, 0, 74, 64
2, 134256, Note_off_c, 0, 65, 64
2, 134256, Note_off_c, 0, 69, 64
2, 134280, Note_on_c, 0, 65, 64
2, 134280, Note_on_c, 0, 69, 64
2, 134376, Note_off_c, 0, 69, 64
2, 134376, Note_off_c, 0, 65, 64
2, 134400, Note_off_c, 0, 74, 64
2, 134400, Note_on_c, 0, 81, 64
2, 134520, Note_on_c, 0, 63, 64
2, 134520, Note_on_c, 0, 60, 64
2, 134520, Note_on_c, 0, 54, 64
2, 134616, Note_off_c, 0, 54, 64
2, 134616, Note_off_c, 0, 60, 64
2, 134616, Note_off_c, 0, 63, 64
2, 134640, Note_on_c, 0, 63, 64
2, 134640, Note_on_c, 0, 60, 64
2, 134640, Note_on_c, 0, 54, 64
2, 134736, Note_off_c, 0, 54, 64
2, 134736, Note_off_c, 0, 60, 64
2, 134736, Note_off_c, 0, 63, 64
2, 134760, Note_on_c, 0, 63, 64
2, 134760, Note_on_c, 0, 60, 64
2, 134760, Note_on_c, 0, 54, 64
2, 134856, Note_off_c, 0, 54, 64
2, 134856, Note_off_c, 0, 60, 64
2, 134856, Note_off_c, 0, 63, 64
2, 134870, Note_off_c, 0, 81, 64
2, 134880, Note_on_c, 0, 63, 64
2, 134880, Note_on_c, 0, 60, 64
2, 134880, Note_on_c, 0, 54, 64
2, 134880, Note_on_c, 0, 80, 72
2, 134910, Note_off_c, 0, 80, 64
2, 134910, Note_on_c, 0, 81, 64
2, 134976, Note_off_c, 0, 54, 64
2, 134976, Note_off_c, 0, 60, 64
2, 134976, Note_off_c, 0, 63, 64
2, 135000, Note_on_c, 0, 63, 64
2, 135000, Note_on_c, 0, 60, 64
2, 135000, Note_on_c, 0, 54, 64
2, 135096, Note_off_c, 0, 54, 64
2, 135096, Note_off_c, 0, 60, 64
2, 135096, Note_off_c, 0, 63, 64
2, 135120, Note_off_c, 0, 81, 64
2, 135120, Note_on_c, 0, 63, 64
2, 135120, Note_on_c, 0, 60, 64
2, 135120, Note_on_c, 0, 54, 64
2, 135120, Note_on_c, 0, 80, 72
2, 135150, Note_off_c, 0, 80, 64
2, 135150, Note_on_c, 0, 81, 64
2, 135216, Note_off_c, 0, 54, 64
2, 135216, Note_off_c, 0, 60, 64
2, 135216, Note_off_c, 0, 63, 64
2, 135240, Note_on_c, 0, 54, 64
2, 135240, Note_on_c, 0, 60, 64
2, 135240, Note_on_c, 0, 63, 64
2, 135336, Note_off_c, 0, 63, 64
2, 135336, Note_off_c, 0, 60, 64
2, 135336, Note_off_c, 0, 54, 64
2, 135360, Note_off_c, 0, 81, 64
2, 135360, Note_on_c, 0, 79, 64
2, 135360, Note_on_c, 0, 55, 64
2, 135420, Note_off_c, 0, 55, 64
2, 135420, Note_on_c, 0, 64, 64
2, 135480, Note_off_c, 0, 64, 64
2, 135480, Note_off_c, 0, 79, 64
2, 135480, Note_on_c, 0, 81, 64
2, 135480, Note_on_c, 0, 60, 64
2, 135540, Note_off_c, 0, 60, 64
2, 135540, Note_off_c, 0, 81, 64
2, 135540, Note_on_c, 0, 83, 64
2, 135540, Note_on_c, 0, 64, 64
2, 135600, Note_off_c, 0, 64, 64
2, 135600, Note_off_c, 0, 83, 64
2, 135600, Note_on_c, 0, 84, 64
2, 135600, Note_on_c, 0, 55, 64
2, 135660, Note_off_c, 0, 55, 64
2, 135660, Note_off_c, 0, 84, 64
2, 135660, Note_on_c, 0, 86, 64
2, 135660, Note_on_c, 0, 64, 64
2, 135720, Note_off_c, 0, 64, 64
2, 135720, Note_off_c, 0, 86, 64
2, 135720, Note_on_c, 0, 88, 64
2, 135720, Note_on_c, 0, 60, 64
2, 135780, Note_off_c, 0, 60, 64
2, 135780, Note_off_c, 0, 88, 64
2, 135780, Note_on_c, 0, 86, 64
2, 135780, Note_on_c, 0, 64, 64
2, 135840, Note_off_c, 0, 64, 64
2, 135840, Note_off_c, 0, 86, 64
2, 135840, Note_on_c, 0, 84, 64
2, 135840, Note_on_c, 0, 55, 64
2, 135900, Note_off_c, 0, 55, 64
2, 135900, Note_off_c, 0, 84, 64
2, 135900, Note_on_c, 0, 83, 64
2, 135900, Note_on_c, 0, 64, 64
2, 135960, Note_off_c, 0, 64, 64
2, 135960, Note_off_c, 0, 83, 64
2, 135960, Note_on_c, 0, 81, 64
2, 135960, Note_on_c, 0, 60, 64
2, 136020, Note_off_c, 0, 60, 64
2, 136020, Note_off_c, 0, 81, 64
2, 136020, Note_on_c, 0, 79, 64
2, 136020, Note_on_c, 0, 64, 64
2, 136080, Note_off_c, 0, 64, 64
2, 136080, Note_off_c, 0, 79, 64
2, 136080, Note_on_c, 0, 77, 64
2, 136080, Note_on_c, 0, 55, 64
2, 136140, Note_off_c, 0, 55, 64
2, 136140, Note_off_c, 0, 77, 64
2, 136140, Note_on_c, 0, 76, 64
2, 136140, Note_on_c, 0, 64, 64
2, 136200, Note_off_c, 0, 64, 64
2, 136200, Note_off_c, 0, 76, 64
2, 136200, Note_on_c, 0, 74, 64
2, 136200, Note_on_c, 0, 60, 64
2, 136260, Note_off_c, 0, 60, 64
2, 136260, Note_off_c, 0, 74, 64
2, 136260, Note_on_c, 0, 64, 64
2, 136260, Note_on_c, 0, 72, 64
2, 136320, Note_off_c, 0, 72, 64
2, 136320, Note_off_c, 0, 64, 64
2, 136320, Note_on_c, 0, 76, 64
2, 136320, Note_on_c, 0, 55, 64
2, 136350, Note_off_c, 0, 76, 64
2, 136350, Note_on_c, 0, 74, 48
2, 136380, Note_off_c, 0, 74, 64
2, 136380, Note_off_c, 0, 55, 64
2, 136380, Note_on_c, 0, 76, 48
2, 136380, Note_on_c, 0, 65, 64
2, 136410, Note_off_c, 0, 76, 64
2, 136410, Note_on_c, 0, 74, 49
2, 136440, Note_off_c, 0, 74, 64
2, 136440, Note_off_c, 0, 65, 64
2, 136440, Note_on_c, 0, 76, 49
2, 136440, Note_on_c, 0, 59, 64
2, 136470, Note_off_c, 0, 76, 64
2, 136470, Note_on_c, 0, 74, 50
2, 136500, Note_off_c, 0, 74, 64
2, 136500, Note_off_c, 0, 59, 64
2, 136500, Note_on_c, 0, 76, 50
2, 136500, Note_on_c, 0, 65, 64
2, 136530, Note_off_c, 0, 76, 64
2, 136530, Note_on_c, 0, 74, 51
2, 136560, Note_off_c, 0, 74, 64
2, 136560, Note_off_c, 0, 65, 64
2, 136560, Note_on_c, 0, 76, 52
2, 136560, Note_on_c, 0, 55, 64
2, 136590, Note_off_c, 0, 76, 64
2, 136590, Note_on_c, 0, 74, 52
2, 136620, Note_off_c, 0, 74, 64
2, 136620, Note_off_c, 0, 55, 64
2, 136620, Note_on_c, 0, 76, 53
2, 136620, Note_on_c, 0, 65, 64
2, 136650, Note_off_c, 0, 76, 64
2, 136650, Note_on_c, 0, 74, 53
2, 136680, Note_off_c, 0, 74, 64
2, 136680, Note_off_c, 0, 65, 64
2, 136680, Note_on_c, 0, 76, 54
2, 136680, Note_on_c, 0, 59, 64
2, 136710, Note_off_c, 0, 76, 64
2, 136710, Note_on_c, 0, 74, 54
2, 136740, Note_off_c, 0, 74, 64
2, 136740, Note_off_c, 0, 59, 64
2, 136740, Note_on_c, 0, 76, 55
2, 136740, Note_on_c, 0, 65, 64
2, 136770, Note_off_c, 0, 76, 64
2, 136770, Note_on_c, 0, 74, 56
2, 136800, Note_off_c, 0, 74, 64
2, 136800, Note_off_c, 0, 65, 64
2, 136800, Note_on_c, 0, 76, 56
2, 136800, Note_on_c, 0, 55, 64
2, 136830, Note_off_c, 0, 76, 64
2, 136830, Note_on_c, 0, 74, 57
2, 136860, Note_off_c, 0, 74, 64
2, 136860, Note_off_c, 0, 55, 64
2, 136860, Note_on_c, 0, 76, 57
2, 136860, Note_on_c, 0, 65, 64
2, 136890, Note_off_c, 0, 76, 64
2, 136890, Note_on_c, 0, 74, 58
2, 136920, Note_off_c, 0, 74, 64
2, 136920, Note_off_c, 0, 65, 64
2, 136920, Note_on_c, 0, 76, 58
2, 136920, Note_on_c, 0, 59, 64
2, 136950, Note_off_c, 0, 76, 64
2, 136950, Note_on_c, 0, 74, 59
2, 136980, Note_off_c, 0, 74, 64
2, 136980, Note_off_c, 0, 59, 64
2, 136980, Note_on_c, 0, 76, 60
2, 136980, Note_on_c, 0, 65, 64
2, 137010, Note_off_c, 0, 76, 64
2, 137010, Note_on_c, 0, 74, 60
2, 137040, Note_off_c, 0, 74, 64
2, 137040, Note_off_c, 0, 65, 64
2, 137040, Note_on_c, 0, 76, 61
2, 137040, Note_on_c, 0, 55, 64
2, 137070, Note_off_c, 0, 76, 64
2, 137070, Note_on_c, 0, 74, 61
2, 137100, Note_off_c, 0, 74, 64
2, 137100, Note_off_c, 0, 55, 64
2, 137100, Note_on_c, 0, 76, 62
2, 137100, Note_on_c, 0, 65, 64
2, 137130, Note_off_c, 0, 76, 64
2, 137130, Note_on_c, 0, 74, 62
2, 137160, Note_off_c, 0, 74, 64
2, 137160, Note_off_c, 0, 65, 64
2, 137160, Note_on_c, 0, 76, 63
2, 137160, Note_on_c, 0, 59, 64
2, 137190, Note_off_c, 0, 76, 64
2, 137190, Note_on_c, 0, 74, 64
2, 137220, Note_off_c, 0, 74, 64
2, 137220, Note_off_c, 0, 59, 64
2, 137220, Note_on_c, 0, 65, 64
2, 137220, Note_on_c, 0, 72, 64
2, 137250, Note_off_c, 0, 72, 64
2, 137250, Note_on_c, 0, 74, 64
2, 137280, Note_off_c, 0, 74, 64
2, 137280, Note_off_c, 0, 65, 64
2, 137280, Note_on_c, 0, 72, 64
2, 137280, Note_on_c, 0, 60, 64
2, 137280, Note_on_c, 0, 64, 64
2, 137520, Note_off_c, 0, 64, 64
2, 137520, Note_off_c, 0, 60, 64
2, 137520, Note_off_c, 0, 72, 64
2, 137520, Note_on_c, 0, 72, 64
2, 137580, Note_off_c, 0, 72, 64
2, 137580, Note_on_c, 0, 67, 64
2, 137640, Note_off_c, 0, 67, 64
2, 137640, Note_on_c, 0, 72, 64
2, 137700, Note_off_c, 0, 72, 64
2, 137700, Note_on_c, 0, 76, 64
2, 137760, Note_off_c, 0, 76, 64
2, 137760, Note_on_c, 0, 79, 64
2, 137820, Note_off_c, 0, 79, 64
2, 137820, Note_on_c, 0, 76, 64
2, 137880, Note_off_c, 0, 76, 64
2, 137880, Note_on_c, 0, 72, 64
2, 137940, Note_off_c, 0, 72, 64
2, 137940, Note_on_c, 0, 76, 64
2, 138000, Note_off_c, 0, 76, 64
2, 138000, Note_on_c, 0, 65, 64
2, 138000, Note_on_c, 0, 62, 64
2, 138000, Note_on_c, 0, 55, 64
2, 138000, Note_on_c, 0, 77, 64
2, 138060, Note_off_c, 0, 77, 64
2, 138060, Note_on_c, 0, 74, 64
2, 138120, Note_off_c, 0, 74, 64
2, 138120, Note_on_c, 0, 71, 64
2, 138180, Note_off_c, 0, 71, 64
2, 138180, Note_on_c, 0, 74, 64
2, 138240, Note_off_c, 0, 74, 64
2, 138240, Note_off_c, 0, 55, 64
2, 138240, Note_off_c, 0, 62, 64
2, 138240, Note_off_c, 0, 65, 64
2, 138240, Note_on_c, 0, 60, 64
2, 138240, Note_on_c, 0, 72, 64
2, 138240, Note_on_c, 0, 64, 64
2, 138480, Note_off_c, 0, 64, 64
2, 138480, Note_off_c, 0, 72, 64
2, 138480, Note_off_c, 0, 60, 64
2, 138480, Note_on_c, 0, 60, 64
2, 138540, Note_off_c, 0, 60, 64
2, 138540, Note_on_c, 0, 55, 64
2, 138600, Note_off_c, 0, 55, 64
2, 138600, Note_on_c, 0, 60, 64
2, 138660, Note_off_c, 0, 60, 64
2, 138660, Note_on_c, 0, 64, 64
2, 138720, Note_off_c, 0, 64, 64
2, 138720, Note_on_c, 0, 67, 64
2, 138780, Note_off_c, 0, 67, 64
2, 138780, Note_on_c, 0, 64, 64
2, 138840, Note_off_c, 0, 64, 64
2, 138840, Note_on_c, 0, 60, 64
2, 138900, Note_off_c, 0, 60, 64
2, 138900, Note_on_c, 0, 64, 64
2, 138960, Note_off_c, 0, 64, 64
2, 138960, Note_on_c, 0, 53, 64
2, 138960, Note_on_c, 0, 50, 64
2, 138960, Note_on_c, 0, 43, 64
2, 138960, Note_on_c, 0, 65, 64
2, 139020, Note_off_c, 0, 65, 64
2, 139020, Note_on_c, 0, 62, 64
2, 139080, Note_off_c, 0, 62, 64
2, 139080, Note_on_c, 0, 59, 64
2, 139140, Note_off_c, 0, 59, 64
2, 139140, Note_on_c, 0, 62, 64
2, 139200, Note_off_c, 0, 62, 64
2, 139200, Note_off_c, 0, 43, 64
2, 139200, Note_off_c, 0, 50, 64
2, 139200, Note_off_c, 0, 53, 64
2, 139200, Note_on_c, 0, 52, 64
2, 139200, Note_on_c, 0, 48, 64
2, 139200, Note_on_c, 0, 60, 64
2, 139392, Note_off_c, 0, 60, 64
2, 139392, Note_off_c, 0, 48, 64
2, 139392, Note_off_c, 0, 52, 64
2, 139440, Note_on_c, 0, 60, 64
2, 139440, Note_on_c, 0, 48, 64
2, 139440, Note_on_c, 0, 79, 64
2, 139440, Note_on_c, 0, 76, 64
2, 139440, Note_on_c, 0, 84, 64
2, 139632, Note_off_c, 0, 76, 64
2, 139632, Note_off_c, 0, 79, 64
2, 139632, Note_off_c, 0, 48, 64
2, 139632, Note_off_c, 0, 60, 64
2, 139680, Note_off_c, 0, 84, 64
2, 139680, Note_on_c, 0, 48, 64
2, 139680, Note_on_c, 0, 72, 64
2, 139680, Note_on_c, 0, 36, 64
2, 139872, Note_off_c, 0, 72, 64
2, 139872, Note_off_c, 0, 48, 64
2, 139920, Note_off_c, 0, 36, 64
2, 140031, End_track
0, 0, End_of_file
