0, 0, Header, 1, 6, 96
1, 0, Start_track
1, 0, Copyright_t, "Copyright  2000 <copyright holder>"
1, 0, Text_t, "Sonata I\015\012"
1, 0, Text_t, "Haydn\015\012"
1, 0, Sequencer_specific, 16, 68, 87, 77, 90, 86, 82, 83, 78, 32, 55, 46, 49, 46, 50, 46, 48
1, 0, Time_signature, 4, 2, 24, 8
1, 0, Tempo, 521739
1, 0, Key_signature, -1, "major"
1, 9312, Tempo, 545454
1, 9408, Tempo, 571428
1, 9600, Tempo, 521739
1, 14304, Tempo, 600000
1, 14400, Tempo, 666666
1, 14592, Tempo, 521739
1, 15648, Tempo, 545454
1, 15744, Tempo, 571428
1, 15840, Tempo, 600000
1, 15936, Tempo, 1200000
1, 16128, Tempo, 521739
1, 16224, Tempo, 545454
1, 16512, Tempo, 400000
1, 16608, Tempo, 428571
1, 16656, Tempo, 461538
1, 16800, Tempo, 600000
1, 17280, End_track
2, 0, Start_track
2, 0, Program_c, 0, 0
2, 0, Control_c, 0, 7, 127
2, 0, Control_c, 0, 10, 64
2, 0, Note_on_c, 0, 69, 96
2, 24, Note_on_c, 0, 69, 0
2, 24, Note_on_c, 0, 62, 80
2, 47, Note_on_c, 0, 62, 0
2, 48, Note_on_c, 0, 61, 80
2, 71, Note_on_c, 0, 61, 0
2, 72, Note_on_c, 0, 62, 80
2, 95, Note_on_c, 0, 62, 0
2, 96, Note_on_c, 0, 61, 80
2, 119, Note_on_c, 0, 61, 0
2, 120, Note_on_c, 0, 62, 80
2, 143, Note_on_c, 0, 62, 0
2, 144, Note_on_c, 0, 61, 80
2, 167, Note_on_c, 0, 61, 0
2, 168, Note_on_c, 0, 62, 80
2, 191, Note_on_c, 0, 62, 0
2, 192, Note_on_c, 0, 70, 96
2, 192, Note_on_c, 0, 67, 96
2, 212, Note_on_c, 0, 70, 0
2, 212, Note_on_c, 0, 67, 0
2, 240, Note_on_c, 0, 69, 80
2, 240, Note_on_c, 0, 65, 80
2, 260, Note_on_c, 0, 69, 0
2, 260, Note_on_c, 0, 65, 0
2, 336, Note_on_c, 0, 73, 80
2, 381, Note_on_c, 0, 73, 0
2, 384, Note_on_c, 0, 74, 96
2, 408, Note_on_c, 0, 74, 0
2, 408, Note_on_c, 0, 69, 80
2, 431, Note_on_c, 0, 69, 0
2, 432, Note_on_c, 0, 67, 80
2, 455, Note_on_c, 0, 67, 0
2, 456, Note_on_c, 0, 65, 80
2, 479, Note_on_c, 0, 65, 0
2, 480, Note_on_c, 0, 64, 80
2, 503, Note_on_c, 0, 64, 0
2, 504, Note_on_c, 0, 62, 80
2, 527, Note_on_c, 0, 62, 0
2, 528, Note_on_c, 0, 61, 80
2, 551, Note_on_c, 0, 61, 0
2, 552, Note_on_c, 0, 62, 80
2, 575, Note_on_c, 0, 62, 0
2, 576, Note_on_c, 0, 61, 80
2, 599, Note_on_c, 0, 61, 0
2, 600, Note_on_c, 0, 62, 80
2, 623, Note_on_c, 0, 62, 0
2, 624, Note_on_c, 0, 64, 80
2, 647, Note_on_c, 0, 64, 0
2, 648, Note_on_c, 0, 58, 80
2, 671, Note_on_c, 0, 58, 0
2, 672, Note_on_c, 0, 57, 80
2, 695, Note_on_c, 0, 57, 0
2, 696, Note_on_c, 0, 55, 80
2, 719, Note_on_c, 0, 55, 0
2, 720, Note_on_c, 0, 53, 80
2, 743, Note_on_c, 0, 53, 0
2, 744, Note_on_c, 0, 52, 80
2, 767, Note_on_c, 0, 52, 0
2, 768, Note_on_c, 0, 53, 80
2, 792, Note_on_c, 0, 53, 0
2, 792, Note_on_c, 0, 50, 80
2, 815, Note_on_c, 0, 50, 0
2, 816, Note_on_c, 0, 57, 80
2, 840, Note_on_c, 0, 57, 0
2, 840, Note_on_c, 0, 53, 80
2, 863, Note_on_c, 0, 53, 0
2, 864, Note_on_c, 0, 62, 80
2, 888, Note_on_c, 0, 62, 0
2, 888, Note_on_c, 0, 57, 80
2, 911, Note_on_c, 0, 57, 0
2, 912, Note_on_c, 0, 65, 80
2, 936, Note_on_c, 0, 65, 0
2, 936, Note_on_c, 0, 62, 80
2, 959, Note_on_c, 0, 62, 0
2, 960, Note_on_c, 0, 61, 80
2, 984, Note_on_c, 0, 61, 0
2, 984, Note_on_c, 0, 57, 80
2, 1007, Note_on_c, 0, 57, 0
2, 1008, Note_on_c, 0, 64, 80
2, 1032, Note_on_c, 0, 64, 0
2, 1032, Note_on_c, 0, 61, 80
2, 1055, Note_on_c, 0, 61, 0
2, 1056, Note_on_c, 0, 67, 80
2, 1080, Note_on_c, 0, 67, 0
2, 1080, Note_on_c, 0, 64, 80
2, 1103, Note_on_c, 0, 64, 0
2, 1104, Note_on_c, 0, 70, 80
2, 1128, Note_on_c, 0, 70, 0
2, 1128, Note_on_c, 0, 67, 80
2, 1151, Note_on_c, 0, 67, 0
2, 1152, Note_on_c, 0, 65, 80
2, 1176, Note_on_c, 0, 65, 0
2, 1176, Note_on_c, 0, 62, 80
2, 1199, Note_on_c, 0, 62, 0
2, 1200, Note_on_c, 0, 69, 80
2, 1224, Note_on_c, 0, 69, 0
2, 1224, Note_on_c, 0, 65, 80
2, 1247, Note_on_c, 0, 65, 0
2, 1248, Note_on_c, 0, 74, 80
2, 1272, Note_on_c, 0, 74, 0
2, 1272, Note_on_c, 0, 69, 80
2, 1295, Note_on_c, 0, 69, 0
2, 1296, Note_on_c, 0, 77, 80
2, 1320, Note_on_c, 0, 77, 0
2, 1320, Note_on_c, 0, 74, 80
2, 1343, Note_on_c, 0, 74, 0
2, 1344, Note_on_c, 0, 75, 80
2, 1367, Note_on_c, 0, 75, 0
2, 1368, Note_on_c, 0, 79, 80
2, 1391, Note_on_c, 0, 79, 0
2, 1392, Note_on_c, 0, 82, 80
2, 1415, Note_on_c, 0, 82, 0
2, 1416, Note_on_c, 0, 79, 80
2, 1439, Note_on_c, 0, 79, 0
2, 1440, Note_on_c, 0, 70, 80
2, 1463, Note_on_c, 0, 70, 0
2, 1464, Note_on_c, 0, 75, 80
2, 1487, Note_on_c, 0, 75, 0
2, 1488, Note_on_c, 0, 79, 80
2, 1511, Note_on_c, 0, 79, 0
2, 1512, Note_on_c, 0, 75, 80
2, 1535, Note_on_c, 0, 75, 0
2, 1536, Note_on_c, 0, 67, 80
2, 1559, Note_on_c, 0, 67, 0
2, 1560, Note_on_c, 0, 70, 80
2, 1583, Note_on_c, 0, 70, 0
2, 1584, Note_on_c, 0, 75, 80
2, 1607, Note_on_c, 0, 75, 0
2, 1608, Note_on_c, 0, 70, 80
2, 1631, Note_on_c, 0, 70, 0
2, 1632, Note_on_c, 0, 67, 80
2, 1655, Note_on_c, 0, 67, 0
2, 1656, Note_on_c, 0, 70, 80
2, 1679, Note_on_c, 0, 70, 0
2, 1680, Note_on_c, 0, 67, 80
2, 1703, Note_on_c, 0, 67, 0
2, 1704, Note_on_c, 0, 63, 80
2, 1727, Note_on_c, 0, 63, 0
2, 1728, Note_on_c, 0, 61, 96
2, 1776, Note_on_c, 0, 61, 0
2, 1776, Note_on_c, 0, 67, 80
2, 1791, Note_on_c, 0, 67, 0
2, 1792, Note_on_c, 0, 69, 80
2, 1807, Note_on_c, 0, 69, 0
2, 1808, Note_on_c, 0, 70, 80
2, 1823, Note_on_c, 0, 70, 0
2, 1824, Note_on_c, 0, 61, 96
2, 1872, Note_on_c, 0, 61, 0
2, 1872, Note_on_c, 0, 67, 80
2, 1887, Note_on_c, 0, 67, 0
2, 1888, Note_on_c, 0, 69, 80
2, 1903, Note_on_c, 0, 69, 0
2, 1904, Note_on_c, 0, 70, 80
2, 1919, Note_on_c, 0, 70, 0
2, 1920, Note_on_c, 0, 61, 96
2, 1932, Note_on_c, 0, 61, 0
2, 1932, Note_on_c, 0, 62, 96
2, 1944, Note_on_c, 0, 62, 0
2, 1944, Note_on_c, 0, 61, 96
2, 2016, Note_on_c, 0, 61, 0
2, 2064, Note_on_c, 0, 60, 77
2, 2109, Note_on_c, 0, 60, 0
2, 2112, Note_on_c, 0, 59, 92
2, 2160, Note_on_c, 0, 59, 0
2, 2160, Note_on_c, 0, 65, 75
2, 2175, Note_on_c, 0, 65, 0
2, 2176, Note_on_c, 0, 67, 75
2, 2191, Note_on_c, 0, 67, 0
2, 2192, Note_on_c, 0, 68, 75
2, 2207, Note_on_c, 0, 68, 0
2, 2208, Note_on_c, 0, 59, 91
2, 2256, Note_on_c, 0, 59, 0
2, 2256, Note_on_c, 0, 65, 75
2, 2271, Note_on_c, 0, 65, 0
2, 2272, Note_on_c, 0, 67, 75
2, 2287, Note_on_c, 0, 67, 0
2, 2288, Note_on_c, 0, 68, 75
2, 2303, Note_on_c, 0, 68, 0
2, 2304, Note_on_c, 0, 59, 75
2, 2316, Note_on_c, 0, 59, 0
2, 2316, Note_on_c, 0, 60, 75
2, 2328, Note_on_c, 0, 60, 0
2, 2328, Note_on_c, 0, 59, 75
2, 2393, Note_on_c, 0, 59, 0
2, 2448, Note_on_c, 0, 58, 77
2, 2493, Note_on_c, 0, 58, 0
2, 2496, Note_on_c, 0, 57, 79
2, 2519, Note_on_c, 0, 57, 0
2, 2520, Note_on_c, 0, 60, 80
2, 2543, Note_on_c, 0, 60, 0
2, 2544, Note_on_c, 0, 66, 80
2, 2567, Note_on_c, 0, 66, 0
2, 2568, Note_on_c, 0, 69, 80
2, 2591, Note_on_c, 0, 69, 0
2, 2592, Note_on_c, 0, 57, 80
2, 2615, Note_on_c, 0, 57, 0
2, 2616, Note_on_c, 0, 60, 80
2, 2639, Note_on_c, 0, 60, 0
2, 2640, Note_on_c, 0, 66, 80
2, 2663, Note_on_c, 0, 66, 0
2, 2664, Note_on_c, 0, 69, 80
2, 2687, Note_on_c, 0, 69, 0
2, 2688, Note_on_c, 0, 58, 80
2, 2711, Note_on_c, 0, 58, 0
2, 2712, Note_on_c, 0, 62, 80
2, 2735, Note_on_c, 0, 62, 0
2, 2736, Note_on_c, 0, 67, 80
2, 2759, Note_on_c, 0, 67, 0
2, 2760, Note_on_c, 0, 70, 80
2, 2783, Note_on_c, 0, 70, 0
2, 2784, Note_on_c, 0, 58, 80
2, 2807, Note_on_c, 0, 58, 0
2, 2808, Note_on_c, 0, 62, 80
2, 2831, Note_on_c, 0, 62, 0
2, 2832, Note_on_c, 0, 67, 80
2, 2855, Note_on_c, 0, 67, 0
2, 2856, Note_on_c, 0, 70, 80
2, 2879, Note_on_c, 0, 70, 0
2, 2880, Note_on_c, 0, 55, 80
2, 2903, Note_on_c, 0, 55, 0
2, 2904, Note_on_c, 0, 58, 80
2, 2927, Note_on_c, 0, 58, 0
2, 2928, Note_on_c, 0, 64, 80
2, 2951, Note_on_c, 0, 64, 0
2, 2952, Note_on_c, 0, 67, 80
2, 2975, Note_on_c, 0, 67, 0
2, 2976, Note_on_c, 0, 55, 80
2, 2999, Note_on_c, 0, 55, 0
2, 3000, Note_on_c, 0, 58, 80
2, 3023, Note_on_c, 0, 58, 0
2, 3024, Note_on_c, 0, 64, 80
2, 3047, Note_on_c, 0, 64, 0
2, 3048, Note_on_c, 0, 67, 80
2, 3071, Note_on_c, 0, 67, 0
2, 3072, Note_on_c, 0, 57, 80
2, 3095, Note_on_c, 0, 57, 0
2, 3096, Note_on_c, 0, 60, 80
2, 3119, Note_on_c, 0, 60, 0
2, 3120, Note_on_c, 0, 64, 80
2, 3143, Note_on_c, 0, 64, 0
2, 3144, Note_on_c, 0, 65, 80
2, 3167, Note_on_c, 0, 65, 0
2, 3168, Note_on_c, 0, 57, 80
2, 3191, Note_on_c, 0, 57, 0
2, 3192, Note_on_c, 0, 60, 80
2, 3215, Note_on_c, 0, 60, 0
2, 3216, Note_on_c, 0, 64, 80
2, 3239, Note_on_c, 0, 64, 0
2, 3240, Note_on_c, 0, 65, 80
2, 3263, Note_on_c, 0, 65, 0
2, 3264, Note_on_c, 0, 57, 80
2, 3287, Note_on_c, 0, 57, 0
2, 3288, Note_on_c, 0, 60, 80
2, 3311, Note_on_c, 0, 60, 0
2, 3312, Note_on_c, 0, 66, 80
2, 3335, Note_on_c, 0, 66, 0
2, 3336, Note_on_c, 0, 69, 80
2, 3359, Note_on_c, 0, 69, 0
2, 3360, Note_on_c, 0, 57, 80
2, 3383, Note_on_c, 0, 57, 0
2, 3384, Note_on_c, 0, 60, 80
2, 3407, Note_on_c, 0, 60, 0
2, 3408, Note_on_c, 0, 66, 80
2, 3431, Note_on_c, 0, 66, 0
2, 3432, Note_on_c, 0, 69, 80
2, 3455, Note_on_c, 0, 69, 0
2, 3456, Note_on_c, 0, 67, 80
2, 3479, Note_on_c, 0, 67, 0
2, 3480, Note_on_c, 0, 65, 80
2, 3503, Note_on_c, 0, 65, 0
2, 3504, Note_on_c, 0, 63, 80
2, 3527, Note_on_c, 0, 63, 0
2, 3528, Note_on_c, 0, 62, 80
2, 3551, Note_on_c, 0, 62, 0
2, 3552, Note_on_c, 0, 60, 80
2, 3575, Note_on_c, 0, 60, 0
2, 3576, Note_on_c, 0, 58, 80
2, 3599, Note_on_c, 0, 58, 0
2, 3600, Note_on_c, 0, 57, 80
2, 3623, Note_on_c, 0, 57, 0
2, 3624, Note_on_c, 0, 55, 80
2, 3647, Note_on_c, 0, 55, 0
2, 3648, Note_on_c, 0, 70, 80
2, 3671, Note_on_c, 0, 70, 0
2, 3672, Note_on_c, 0, 67, 80
2, 3695, Note_on_c, 0, 67, 0
2, 3696, Note_on_c, 0, 69, 80
2, 3785, Note_on_c, 0, 69, 0
2, 3792, Note_on_c, 0, 82, 80
2, 3792, Note_on_c, 0, 79, 80
2, 3807, Note_on_c, 0, 82, 0
2, 3807, Note_on_c, 0, 79, 0
2, 3808, Note_on_c, 0, 81, 80
2, 3808, Note_on_c, 0, 77, 80
2, 3823, Note_on_c, 0, 81, 0
2, 3823, Note_on_c, 0, 77, 0
2, 3824, Note_on_c, 0, 79, 80
2, 3824, Note_on_c, 0, 76, 80
2, 3839, Note_on_c, 0, 79, 0
2, 3839, Note_on_c, 0, 76, 0
2, 3840, Note_on_c, 0, 77, 96
2, 3840, Note_on_c, 0, 74, 96
2, 3888, Note_on_c, 0, 77, 0
2, 3888, Note_on_c, 0, 74, 0
2, 3888, Note_on_c, 0, 81, 80
2, 3888, Note_on_c, 0, 77, 80
2, 3903, Note_on_c, 0, 81, 0
2, 3903, Note_on_c, 0, 77, 0
2, 3904, Note_on_c, 0, 79, 80
2, 3904, Note_on_c, 0, 76, 80
2, 3919, Note_on_c, 0, 79, 0
2, 3919, Note_on_c, 0, 76, 0
2, 3920, Note_on_c, 0, 77, 80
2, 3920, Note_on_c, 0, 74, 80
2, 3935, Note_on_c, 0, 77, 0
2, 3935, Note_on_c, 0, 74, 0
2, 3936, Note_on_c, 0, 76, 96
2, 3936, Note_on_c, 0, 73, 96
2, 3984, Note_on_c, 0, 76, 0
2, 3984, Note_on_c, 0, 73, 0
2, 3984, Note_on_c, 0, 79, 80
2, 3984, Note_on_c, 0, 76, 80
2, 3999, Note_on_c, 0, 79, 0
2, 3999, Note_on_c, 0, 76, 0
2, 4000, Note_on_c, 0, 77, 80
2, 4000, Note_on_c, 0, 74, 80
2, 4015, Note_on_c, 0, 77, 0
2, 4015, Note_on_c, 0, 74, 0
2, 4016, Note_on_c, 0, 76, 80
2, 4016, Note_on_c, 0, 73, 80
2, 4031, Note_on_c, 0, 76, 0
2, 4031, Note_on_c, 0, 73, 0
2, 4032, Note_on_c, 0, 74, 96
2, 4032, Note_on_c, 0, 70, 96
2, 4056, Note_on_c, 0, 74, 0
2, 4056, Note_on_c, 0, 70, 0
2, 4056, Note_on_c, 0, 77, 80
2, 4079, Note_on_c, 0, 77, 0
2, 4080, Note_on_c, 0, 76, 80
2, 4103, Note_on_c, 0, 76, 0
2, 4104, Note_on_c, 0, 74, 80
2, 4127, Note_on_c, 0, 74, 0
2, 4128, Note_on_c, 0, 72, 80
2, 4151, Note_on_c, 0, 72, 0
2, 4152, Note_on_c, 0, 70, 80
2, 4175, Note_on_c, 0, 70, 0
2, 4176, Note_on_c, 0, 69, 80
2, 4199, Note_on_c, 0, 69, 0
2, 4200, Note_on_c, 0, 67, 80
2, 4223, Note_on_c, 0, 67, 0
2, 4224, Note_on_c, 0, 65, 80
2, 4269, Note_on_c, 0, 65, 0
2, 4272, Note_on_c, 0, 67, 80
2, 4280, Note_on_c, 0, 67, 0
2, 4280, Note_on_c, 0, 66, 80
2, 4288, Note_on_c, 0, 66, 0
2, 4288, Note_on_c, 0, 67, 80
2, 4296, Note_on_c, 0, 67, 0
2, 4296, Note_on_c, 0, 66, 80
2, 4304, Note_on_c, 0, 66, 0
2, 4304, Note_on_c, 0, 64, 81
2, 4312, Note_on_c, 0, 64, 0
2, 4312, Note_on_c, 0, 66, 81
2, 4320, Note_on_c, 0, 66, 0
2, 4320, Note_on_c, 0, 67, 81
2, 4365, Note_on_c, 0, 67, 0
2, 4368, Note_on_c, 0, 69, 83
2, 4376, Note_on_c, 0, 69, 0
2, 4376, Note_on_c, 0, 68, 83
2, 4384, Note_on_c, 0, 68, 0
2, 4384, Note_on_c, 0, 69, 84
2, 4392, Note_on_c, 0, 69, 0
2, 4392, Note_on_c, 0, 68, 84
2, 4400, Note_on_c, 0, 68, 0
2, 4400, Note_on_c, 0, 66, 84
2, 4408, Note_on_c, 0, 66, 0
2, 4408, Note_on_c, 0, 68, 84
2, 4416, Note_on_c, 0, 68, 0
2, 4416, Note_on_c, 0, 69, 86
2, 4461, Note_on_c, 0, 69, 0
2, 4464, Note_on_c, 0, 57, 83
2, 4509, Note_on_c, 0, 57, 0
2, 4608, Note_on_c, 0, 69, 96
2, 4632, Note_on_c, 0, 69, 0
2, 4632, Note_on_c, 0, 62, 80
2, 4655, Note_on_c, 0, 62, 0
2, 4656, Note_on_c, 0, 61, 80
2, 4679, Note_on_c, 0, 61, 0
2, 4680, Note_on_c, 0, 62, 80
2, 4703, Note_on_c, 0, 62, 0
2, 4704, Note_on_c, 0, 61, 80
2, 4727, Note_on_c, 0, 61, 0
2, 4728, Note_on_c, 0, 62, 80
2, 4751, Note_on_c, 0, 62, 0
2, 4752, Note_on_c, 0, 61, 80
2, 4775, Note_on_c, 0, 61, 0
2, 4776, Note_on_c, 0, 62, 80
2, 4799, Note_on_c, 0, 62, 0
2, 4800, Note_on_c, 0, 70, 96
2, 4800, Note_on_c, 0, 67, 96
2, 4820, Note_on_c, 0, 70, 0
2, 4820, Note_on_c, 0, 67, 0
2, 4848, Note_on_c, 0, 69, 80
2, 4848, Note_on_c, 0, 65, 80
2, 4868, Note_on_c, 0, 69, 0
2, 4868, Note_on_c, 0, 65, 0
2, 4944, Note_on_c, 0, 73, 80
2, 4989, Note_on_c, 0, 73, 0
2, 4992, Note_on_c, 0, 74, 96
2, 5016, Note_on_c, 0, 74, 0
2, 5016, Note_on_c, 0, 69, 80
2, 5039, Note_on_c, 0, 69, 0
2, 5040, Note_on_c, 0, 67, 80
2, 5063, Note_on_c, 0, 67, 0
2, 5064, Note_on_c, 0, 65, 80
2, 5087, Note_on_c, 0, 65, 0
2, 5088, Note_on_c, 0, 64, 80
2, 5111, Note_on_c, 0, 64, 0
2, 5112, Note_on_c, 0, 62, 80
2, 5135, Note_on_c, 0, 62, 0
2, 5136, Note_on_c, 0, 61, 80
2, 5159, Note_on_c, 0, 61, 0
2, 5160, Note_on_c, 0, 62, 80
2, 5183, Note_on_c, 0, 62, 0
2, 5184, Note_on_c, 0, 61, 80
2, 5207, Note_on_c, 0, 61, 0
2, 5208, Note_on_c, 0, 62, 80
2, 5231, Note_on_c, 0, 62, 0
2, 5232, Note_on_c, 0, 64, 80
2, 5255, Note_on_c, 0, 64, 0
2, 5256, Note_on_c, 0, 58, 80
2, 5279, Note_on_c, 0, 58, 0
2, 5280, Note_on_c, 0, 57, 80
2, 5303, Note_on_c, 0, 57, 0
2, 5304, Note_on_c, 0, 55, 80
2, 5327, Note_on_c, 0, 55, 0
2, 5328, Note_on_c, 0, 53, 80
2, 5351, Note_on_c, 0, 53, 0
2, 5352, Note_on_c, 0, 52, 80
2, 5375, Note_on_c, 0, 52, 0
2, 5376, Note_on_c, 0, 53, 80
2, 5400, Note_on_c, 0, 53, 0
2, 5400, Note_on_c, 0, 50, 80
2, 5423, Note_on_c, 0, 50, 0
2, 5424, Note_on_c, 0, 57, 80
2, 5448, Note_on_c, 0, 57, 0
2, 5448, Note_on_c, 0, 53, 80
2, 5471, Note_on_c, 0, 53, 0
2, 5472, Note_on_c, 0, 62, 80
2, 5496, Note_on_c, 0, 62, 0
2, 5496, Note_on_c, 0, 57, 80
2, 5519, Note_on_c, 0, 57, 0
2, 5520, Note_on_c, 0, 65, 80
2, 5544, Note_on_c, 0, 65, 0
2, 5544, Note_on_c, 0, 62, 80
2, 5567, Note_on_c, 0, 62, 0
2, 5568, Note_on_c, 0, 61, 80
2, 5592, Note_on_c, 0, 61, 0
2, 5592, Note_on_c, 0, 57, 80
2, 5615, Note_on_c, 0, 57, 0
2, 5616, Note_on_c, 0, 64, 80
2, 5640, Note_on_c, 0, 64, 0
2, 5640, Note_on_c, 0, 61, 80
2, 5663, Note_on_c, 0, 61, 0
2, 5664, Note_on_c, 0, 67, 80
2, 5688, Note_on_c, 0, 67, 0
2, 5688, Note_on_c, 0, 64, 80
2, 5711, Note_on_c, 0, 64, 0
2, 5712, Note_on_c, 0, 70, 80
2, 5736, Note_on_c, 0, 70, 0
2, 5736, Note_on_c, 0, 67, 80
2, 5759, Note_on_c, 0, 67, 0
2, 5760, Note_on_c, 0, 65, 80
2, 5784, Note_on_c, 0, 65, 0
2, 5784, Note_on_c, 0, 62, 80
2, 5807, Note_on_c, 0, 62, 0
2, 5808, Note_on_c, 0, 69, 80
2, 5832, Note_on_c, 0, 69, 0
2, 5832, Note_on_c, 0, 65, 80
2, 5855, Note_on_c, 0, 65, 0
2, 5856, Note_on_c, 0, 74, 80
2, 5880, Note_on_c, 0, 74, 0
2, 5880, Note_on_c, 0, 69, 80
2, 5903, Note_on_c, 0, 69, 0
2, 5904, Note_on_c, 0, 77, 80
2, 5928, Note_on_c, 0, 77, 0
2, 5928, Note_on_c, 0, 74, 80
2, 5951, Note_on_c, 0, 74, 0
2, 5952, Note_on_c, 0, 75, 80
2, 5975, Note_on_c, 0, 75, 0
2, 5976, Note_on_c, 0, 79, 80
2, 5999, Note_on_c, 0, 79, 0
2, 6000, Note_on_c, 0, 82, 80
2, 6023, Note_on_c, 0, 82, 0
2, 6024, Note_on_c, 0, 79, 80
2, 6047, Note_on_c, 0, 79, 0
2, 6048, Note_on_c, 0, 70, 80
2, 6071, Note_on_c, 0, 70, 0
2, 6072, Note_on_c, 0, 75, 80
2, 6095, Note_on_c, 0, 75, 0
2, 6096, Note_on_c, 0, 79, 80
2, 6119, Note_on_c, 0, 79, 0
2, 6120, Note_on_c, 0, 75, 80
2, 6143, Note_on_c, 0, 75, 0
2, 6144, Note_on_c, 0, 67, 80
2, 6167, Note_on_c, 0, 67, 0
2, 6168, Note_on_c, 0, 70, 80
2, 6191, Note_on_c, 0, 70, 0
2, 6192, Note_on_c, 0, 75, 80
2, 6215, Note_on_c, 0, 75, 0
2, 6216, Note_on_c, 0, 70, 80
2, 6239, Note_on_c, 0, 70, 0
2, 6240, Note_on_c, 0, 67, 80
2, 6263, Note_on_c, 0, 67, 0
2, 6264, Note_on_c, 0, 70, 80
2, 6287, Note_on_c, 0, 70, 0
2, 6288, Note_on_c, 0, 67, 80
2, 6311, Note_on_c, 0, 67, 0
2, 6312, Note_on_c, 0, 63, 80
2, 6335, Note_on_c, 0, 63, 0
2, 6336, Note_on_c, 0, 61, 96
2, 6384, Note_on_c, 0, 61, 0
2, 6384, Note_on_c, 0, 67, 80
2, 6399, Note_on_c, 0, 67, 0
2, 6400, Note_on_c, 0, 69, 80
2, 6415, Note_on_c, 0, 69, 0
2, 6416, Note_on_c, 0, 70, 80
2, 6431, Note_on_c, 0, 70, 0
2, 6432, Note_on_c, 0, 61, 96
2, 6480, Note_on_c, 0, 61, 0
2, 6480, Note_on_c, 0, 67, 80
2, 6495, Note_on_c, 0, 67, 0
2, 6496, Note_on_c, 0, 69, 80
2, 6511, Note_on_c, 0, 69, 0
2, 6512, Note_on_c, 0, 70, 80
2, 6527, Note_on_c, 0, 70, 0
2, 6528, Note_on_c, 0, 61, 96
2, 6540, Note_on_c, 0, 61, 0
2, 6540, Note_on_c, 0, 62, 96
2, 6552, Note_on_c, 0, 62, 0
2, 6552, Note_on_c, 0, 61, 96
2, 6624, Note_on_c, 0, 61, 0
2, 6672, Note_on_c, 0, 60, 77
2, 6717, Note_on_c, 0, 60, 0
2, 6720, Note_on_c, 0, 59, 92
2, 6768, Note_on_c, 0, 59, 0
2, 6768, Note_on_c, 0, 65, 75
2, 6783, Note_on_c, 0, 65, 0
2, 6784, Note_on_c, 0, 67, 75
2, 6799, Note_on_c, 0, 67, 0
2, 6800, Note_on_c, 0, 68, 75
2, 6815, Note_on_c, 0, 68, 0
2, 6816, Note_on_c, 0, 59, 91
2, 6864, Note_on_c, 0, 59, 0
2, 6864, Note_on_c, 0, 65, 75
2, 6879, Note_on_c, 0, 65, 0
2, 6880, Note_on_c, 0, 67, 75
2, 6895, Note_on_c, 0, 67, 0
2, 6896, Note_on_c, 0, 68, 75
2, 6911, Note_on_c, 0, 68, 0
2, 6912, Note_on_c, 0, 59, 75
2, 6924, Note_on_c, 0, 59, 0
2, 6924, Note_on_c, 0, 60, 75
2, 6936, Note_on_c, 0, 60, 0
2, 6936, Note_on_c, 0, 59, 75
2, 7001, Note_on_c, 0, 59, 0
2, 7056, Note_on_c, 0, 58, 77
2, 7101, Note_on_c, 0, 58, 0
2, 7104, Note_on_c, 0, 57, 79
2, 7127, Note_on_c, 0, 57, 0
2, 7128, Note_on_c, 0, 60, 80
2, 7151, Note_on_c, 0, 60, 0
2, 7152, Note_on_c, 0, 66, 80
2, 7175, Note_on_c, 0, 66, 0
2, 7176, Note_on_c, 0, 69, 80
2, 7199, Note_on_c, 0, 69, 0
2, 7200, Note_on_c, 0, 57, 80
2, 7223, Note_on_c, 0, 57, 0
2, 7224, Note_on_c, 0, 60, 80
2, 7247, Note_on_c, 0, 60, 0
2, 7248, Note_on_c, 0, 66, 80
2, 7271, Note_on_c, 0, 66, 0
2, 7272, Note_on_c, 0, 69, 80
2, 7295, Note_on_c, 0, 69, 0
2, 7296, Note_on_c, 0, 58, 80
2, 7319, Note_on_c, 0, 58, 0
2, 7320, Note_on_c, 0, 62, 80
2, 7343, Note_on_c, 0, 62, 0
2, 7344, Note_on_c, 0, 67, 80
2, 7367, Note_on_c, 0, 67, 0
2, 7368, Note_on_c, 0, 70, 80
2, 7391, Note_on_c, 0, 70, 0
2, 7392, Note_on_c, 0, 58, 80
2, 7415, Note_on_c, 0, 58, 0
2, 7416, Note_on_c, 0, 62, 80
2, 7439, Note_on_c, 0, 62, 0
2, 7440, Note_on_c, 0, 67, 80
2, 7463, Note_on_c, 0, 67, 0
2, 7464, Note_on_c, 0, 70, 80
2, 7487, Note_on_c, 0, 70, 0
2, 7488, Note_on_c, 0, 55, 80
2, 7511, Note_on_c, 0, 55, 0
2, 7512, Note_on_c, 0, 58, 80
2, 7535, Note_on_c, 0, 58, 0
2, 7536, Note_on_c, 0, 64, 80
2, 7559, Note_on_c, 0, 64, 0
2, 7560, Note_on_c, 0, 67, 80
2, 7583, Note_on_c, 0, 67, 0
2, 7584, Note_on_c, 0, 55, 80
2, 7607, Note_on_c, 0, 55, 0
2, 7608, Note_on_c, 0, 58, 80
2, 7631, Note_on_c, 0, 58, 0
2, 7632, Note_on_c, 0, 64, 80
2, 7655, Note_on_c, 0, 64, 0
2, 7656, Note_on_c, 0, 67, 80
2, 7679, Note_on_c, 0, 67, 0
2, 7680, Note_on_c, 0, 57, 80
2, 7703, Note_on_c, 0, 57, 0
2, 7704, Note_on_c, 0, 60, 80
2, 7727, Note_on_c, 0, 60, 0
2, 7728, Note_on_c, 0, 64, 80
2, 7751, Note_on_c, 0, 64, 0
2, 7752, Note_on_c, 0, 65, 80
2, 7775, Note_on_c, 0, 65, 0
2, 7776, Note_on_c, 0, 57, 80
2, 7799, Note_on_c, 0, 57, 0
2, 7800, Note_on_c, 0, 60, 80
2, 7823, Note_on_c, 0, 60, 0
2, 7824, Note_on_c, 0, 64, 80
2, 7847, Note_on_c, 0, 64, 0
2, 7848, Note_on_c, 0, 65, 80
2, 7871, Note_on_c, 0, 65, 0
2, 7872, Note_on_c, 0, 57, 80
2, 7895, Note_on_c, 0, 57, 0
2, 7896, Note_on_c, 0, 60, 80
2, 7919, Note_on_c, 0, 60, 0
2, 7920, Note_on_c, 0, 66, 80
2, 7943, Note_on_c, 0, 66, 0
2, 7944, Note_on_c, 0, 69, 80
2, 7967, Note_on_c, 0, 69, 0
2, 7968, Note_on_c, 0, 57, 80
2, 7991, Note_on_c, 0, 57, 0
2, 7992, Note_on_c, 0, 60, 80
2, 8015, Note_on_c, 0, 60, 0
2, 8016, Note_on_c, 0, 66, 80
2, 8039, Note_on_c, 0, 66, 0
2, 8040, Note_on_c, 0, 69, 80
2, 8063, Note_on_c, 0, 69, 0
2, 8064, Note_on_c, 0, 67, 80
2, 8087, Note_on_c, 0, 67, 0
2, 8088, Note_on_c, 0, 65, 80
2, 8111, Note_on_c, 0, 65, 0
2, 8112, Note_on_c, 0, 63, 80
2, 8135, Note_on_c, 0, 63, 0
2, 8136, Note_on_c, 0, 62, 80
2, 8159, Note_on_c, 0, 62, 0
2, 8160, Note_on_c, 0, 60, 80
2, 8183, Note_on_c, 0, 60, 0
2, 8184, Note_on_c, 0, 58, 80
2, 8207, Note_on_c, 0, 58, 0
2, 8208, Note_on_c, 0, 57, 80
2, 8231, Note_on_c, 0, 57, 0
2, 8232, Note_on_c, 0, 55, 80
2, 8255, Note_on_c, 0, 55, 0
2, 8256, Note_on_c, 0, 70, 80
2, 8279, Note_on_c, 0, 70, 0
2, 8280, Note_on_c, 0, 67, 80
2, 8303, Note_on_c, 0, 67, 0
2, 8304, Note_on_c, 0, 69, 80
2, 8393, Note_on_c, 0, 69, 0
2, 8400, Note_on_c, 0, 82, 80
2, 8400, Note_on_c, 0, 79, 80
2, 8415, Note_on_c, 0, 82, 0
2, 8415, Note_on_c, 0, 79, 0
2, 8416, Note_on_c, 0, 81, 80
2, 8416, Note_on_c, 0, 77, 80
2, 8431, Note_on_c, 0, 81, 0
2, 8431, Note_on_c, 0, 77, 0
2, 8432, Note_on_c, 0, 79, 80
2, 8432, Note_on_c, 0, 76, 80
2, 8447, Note_on_c, 0, 79, 0
2, 8447, Note_on_c, 0, 76, 0
2, 8448, Note_on_c, 0, 77, 96
2, 8448, Note_on_c, 0, 74, 96
2, 8496, Note_on_c, 0, 77, 0
2, 8496, Note_on_c, 0, 74, 0
2, 8496, Note_on_c, 0, 81, 80
2, 8496, Note_on_c, 0, 77, 80
2, 8511, Note_on_c, 0, 81, 0
2, 8511, Note_on_c, 0, 77, 0
2, 8512, Note_on_c, 0, 79, 80
2, 8512, Note_on_c, 0, 76, 80
2, 8527, Note_on_c, 0, 79, 0
2, 8527, Note_on_c, 0, 76, 0
2, 8528, Note_on_c, 0, 77, 80
2, 8528, Note_on_c, 0, 74, 80
2, 8543, Note_on_c, 0, 77, 0
2, 8543, Note_on_c, 0, 74, 0
2, 8544, Note_on_c, 0, 76, 96
2, 8544, Note_on_c, 0, 73, 96
2, 8592, Note_on_c, 0, 76, 0
2, 8592, Note_on_c, 0, 73, 0
2, 8592, Note_on_c, 0, 79, 80
2, 8592, Note_on_c, 0, 76, 80
2, 8607, Note_on_c, 0, 79, 0
2, 8607, Note_on_c, 0, 76, 0
2, 8608, Note_on_c, 0, 77, 80
2, 8608, Note_on_c, 0, 74, 80
2, 8623, Note_on_c, 0, 77, 0
2, 8623, Note_on_c, 0, 74, 0
2, 8624, Note_on_c, 0, 76, 80
2, 8624, Note_on_c, 0, 73, 80
2, 8639, Note_on_c, 0, 76, 0
2, 8639, Note_on_c, 0, 73, 0
2, 8640, Note_on_c, 0, 74, 96
2, 8640, Note_on_c, 0, 70, 96
2, 8664, Note_on_c, 0, 74, 0
2, 8664, Note_on_c, 0, 70, 0
2, 8664, Note_on_c, 0, 77, 80
2, 8687, Note_on_c, 0, 77, 0
2, 8688, Note_on_c, 0, 76, 80
2, 8711, Note_on_c, 0, 76, 0
2, 8712, Note_on_c, 0, 74, 80
2, 8735, Note_on_c, 0, 74, 0
2, 8736, Note_on_c, 0, 72, 80
2, 8759, Note_on_c, 0, 72, 0
2, 8760, Note_on_c, 0, 70, 80
2, 8783, Note_on_c, 0, 70, 0
2, 8784, Note_on_c, 0, 69, 80
2, 8807, Note_on_c, 0, 69, 0
2, 8808, Note_on_c, 0, 67, 80
2, 8831, Note_on_c, 0, 67, 0
2, 8832, Note_on_c, 0, 65, 80
2, 8877, Note_on_c, 0, 65, 0
2, 8880, Note_on_c, 0, 67, 80
2, 8888, Note_on_c, 0, 67, 0
2, 8888, Note_on_c, 0, 66, 80
2, 8896, Note_on_c, 0, 66, 0
2, 8896, Note_on_c, 0, 67, 80
2, 8904, Note_on_c, 0, 67, 0
2, 8904, Note_on_c, 0, 66, 80
2, 8912, Note_on_c, 0, 66, 0
2, 8912, Note_on_c, 0, 64, 81
2, 8920, Note_on_c, 0, 64, 0
2, 8920, Note_on_c, 0, 66, 81
2, 8928, Note_on_c, 0, 66, 0
2, 8928, Note_on_c, 0, 67, 81
2, 8973, Note_on_c, 0, 67, 0
2, 8976, Note_on_c, 0, 69, 83
2, 8984, Note_on_c, 0, 69, 0
2, 8984, Note_on_c, 0, 68, 83
2, 8992, Note_on_c, 0, 68, 0
2, 8992, Note_on_c, 0, 69, 84
2, 9000, Note_on_c, 0, 69, 0
2, 9000, Note_on_c, 0, 68, 84
2, 9008, Note_on_c, 0, 68, 0
2, 9008, Note_on_c, 0, 66, 84
2, 9016, Note_on_c, 0, 66, 0
2, 9016, Note_on_c, 0, 68, 84
2, 9024, Note_on_c, 0, 68, 0
2, 9024, Note_on_c, 0, 69, 86
2, 9069, Note_on_c, 0, 69, 0
2, 9072, Note_on_c, 0, 57, 83
2, 9117, Note_on_c, 0, 57, 0
2, 9216, Note_on_c, 0, 79, 75
2, 9216, Note_on_c, 0, 76, 75
2, 9264, Note_on_c, 0, 79, 0
2, 9264, Note_on_c, 0, 76, 0
2, 9264, Note_on_c, 0, 78, 75
2, 9264, Note_on_c, 0, 74, 75
2, 9284, Note_on_c, 0, 78, 0
2, 9284, Note_on_c, 0, 74, 0
2, 9312, Note_on_c, 0, 84, 75
2, 9312, Note_on_c, 0, 81, 75
2, 9360, Note_on_c, 0, 84, 0
2, 9360, Note_on_c, 0, 81, 0
2, 9360, Note_on_c, 0, 82, 75
2, 9360, Note_on_c, 0, 79, 75
2, 9380, Note_on_c, 0, 82, 0
2, 9380, Note_on_c, 0, 79, 0
2, 9408, Note_on_c, 0, 75, 75
2, 9408, Note_on_c, 0, 72, 75
2, 9456, Note_on_c, 0, 75, 0
2, 9456, Note_on_c, 0, 72, 0
2, 9456, Note_on_c, 0, 74, 75
2, 9456, Note_on_c, 0, 70, 75
2, 9476, Note_on_c, 0, 74, 0
2, 9476, Note_on_c, 0, 70, 0
2, 9600, Note_on_c, 0, 66, 70
2, 9615, Note_on_c, 0, 66, 0
2, 9616, Note_on_c, 0, 69, 70
2, 9631, Note_on_c, 0, 69, 0
2, 9632, Note_on_c, 0, 72, 70
2, 9647, Note_on_c, 0, 72, 0
2, 9648, Note_on_c, 0, 75, 70
2, 9663, Note_on_c, 0, 75, 0
2, 9664, Note_on_c, 0, 72, 70
2, 9679, Note_on_c, 0, 72, 0
2, 9680, Note_on_c, 0, 69, 70
2, 9695, Note_on_c, 0, 69, 0
2, 9696, Note_on_c, 0, 66, 70
2, 9711, Note_on_c, 0, 66, 0
2, 9712, Note_on_c, 0, 69, 70
2, 9727, Note_on_c, 0, 69, 0
2, 9728, Note_on_c, 0, 72, 70
2, 9743, Note_on_c, 0, 72, 0
2, 9744, Note_on_c, 0, 75, 70
2, 9759, Note_on_c, 0, 75, 0
2, 9760, Note_on_c, 0, 72, 70
2, 9775, Note_on_c, 0, 72, 0
2, 9776, Note_on_c, 0, 69, 70
2, 9791, Note_on_c, 0, 69, 0
2, 9792, Note_on_c, 0, 67, 70
2, 9807, Note_on_c, 0, 67, 0
2, 9808, Note_on_c, 0, 70, 70
2, 9823, Note_on_c, 0, 70, 0
2, 9824, Note_on_c, 0, 74, 70
2, 9839, Note_on_c, 0, 74, 0
2, 9840, Note_on_c, 0, 79, 70
2, 9855, Note_on_c, 0, 79, 0
2, 9856, Note_on_c, 0, 74, 70
2, 9871, Note_on_c, 0, 74, 0
2, 9872, Note_on_c, 0, 70, 70
2, 9887, Note_on_c, 0, 70, 0
2, 9888, Note_on_c, 0, 67, 70
2, 9903, Note_on_c, 0, 67, 0
2, 9904, Note_on_c, 0, 70, 70
2, 9919, Note_on_c, 0, 70, 0
2, 9920, Note_on_c, 0, 74, 70
2, 9935, Note_on_c, 0, 74, 0
2, 9936, Note_on_c, 0, 79, 70
2, 9951, Note_on_c, 0, 79, 0
2, 9952, Note_on_c, 0, 74, 70
2, 9967, Note_on_c, 0, 74, 0
2, 9968, Note_on_c, 0, 70, 70
2, 9983, Note_on_c, 0, 70, 0
2, 9984, Note_on_c, 0, 64, 70
2, 9999, Note_on_c, 0, 64, 0
2, 10000, Note_on_c, 0, 67, 70
2, 10015, Note_on_c, 0, 67, 0
2, 10016, Note_on_c, 0, 70, 70
2, 10031, Note_on_c, 0, 70, 0
2, 10032, Note_on_c, 0, 73, 70
2, 10047, Note_on_c, 0, 73, 0
2, 10048, Note_on_c, 0, 70, 70
2, 10063, Note_on_c, 0, 70, 0
2, 10064, Note_on_c, 0, 67, 70
2, 10079, Note_on_c, 0, 67, 0
2, 10080, Note_on_c, 0, 64, 70
2, 10095, Note_on_c, 0, 64, 0
2, 10096, Note_on_c, 0, 67, 70
2, 10111, Note_on_c, 0, 67, 0
2, 10112, Note_on_c, 0, 70, 70
2, 10127, Note_on_c, 0, 70, 0
2, 10128, Note_on_c, 0, 73, 70
2, 10143, Note_on_c, 0, 73, 0
2, 10144, Note_on_c, 0, 70, 70
2, 10159, Note_on_c, 0, 70, 0
2, 10160, Note_on_c, 0, 67, 70
2, 10175, Note_on_c, 0, 67, 0
2, 10176, Note_on_c, 0, 65, 70
2, 10191, Note_on_c, 0, 65, 0
2, 10192, Note_on_c, 0, 68, 70
2, 10207, Note_on_c, 0, 68, 0
2, 10208, Note_on_c, 0, 72, 70
2, 10223, Note_on_c, 0, 72, 0
2, 10224, Note_on_c, 0, 77, 70
2, 10239, Note_on_c, 0, 77, 0
2, 10240, Note_on_c, 0, 72, 70
2, 10255, Note_on_c, 0, 72, 0
2, 10256, Note_on_c, 0, 68, 70
2, 10271, Note_on_c, 0, 68, 0
2, 10272, Note_on_c, 0, 65, 70
2, 10287, Note_on_c, 0, 65, 0
2, 10288, Note_on_c, 0, 68, 70
2, 10303, Note_on_c, 0, 68, 0
2, 10304, Note_on_c, 0, 72, 70
2, 10319, Note_on_c, 0, 72, 0
2, 10320, Note_on_c, 0, 77, 70
2, 10335, Note_on_c, 0, 77, 0
2, 10336, Note_on_c, 0, 72, 70
2, 10351, Note_on_c, 0, 72, 0
2, 10352, Note_on_c, 0, 68, 70
2, 10367, Note_on_c, 0, 68, 0
2, 10368, Note_on_c, 0, 62, 86
2, 10382, Note_on_c, 0, 62, 0
2, 10382, Note_on_c, 0, 64, 70
2, 10395, Note_on_c, 0, 64, 0
2, 10396, Note_on_c, 0, 62, 70
2, 10409, Note_on_c, 0, 62, 0
2, 10410, Note_on_c, 0, 64, 70
2, 10423, Note_on_c, 0, 64, 0
2, 10424, Note_on_c, 0, 62, 70
2, 10437, Note_on_c, 0, 62, 0
2, 10438, Note_on_c, 0, 64, 70
2, 10450, Note_on_c, 0, 64, 0
2, 10451, Note_on_c, 0, 62, 70
2, 10463, Note_on_c, 0, 62, 0
2, 10464, Note_on_c, 0, 64, 86
2, 10478, Note_on_c, 0, 64, 0
2, 10478, Note_on_c, 0, 63, 70
2, 10491, Note_on_c, 0, 63, 0
2, 10492, Note_on_c, 0, 64, 70
2, 10505, Note_on_c, 0, 64, 0
2, 10506, Note_on_c, 0, 63, 70
2, 10519, Note_on_c, 0, 63, 0
2, 10520, Note_on_c, 0, 64, 70
2, 10533, Note_on_c, 0, 64, 0
2, 10534, Note_on_c, 0, 63, 70
2, 10546, Note_on_c, 0, 63, 0
2, 10547, Note_on_c, 0, 64, 70
2, 10559, Note_on_c, 0, 64, 0
2, 10560, Note_on_c, 0, 65, 86
2, 10574, Note_on_c, 0, 65, 0
2, 10574, Note_on_c, 0, 64, 70
2, 10587, Note_on_c, 0, 64, 0
2, 10588, Note_on_c, 0, 65, 70
2, 10601, Note_on_c, 0, 65, 0
2, 10602, Note_on_c, 0, 64, 70
2, 10615, Note_on_c, 0, 64, 0
2, 10616, Note_on_c, 0, 65, 70
2, 10629, Note_on_c, 0, 65, 0
2, 10630, Note_on_c, 0, 64, 70
2, 10642, Note_on_c, 0, 64, 0
2, 10643, Note_on_c, 0, 65, 70
2, 10655, Note_on_c, 0, 65, 0
2, 10656, Note_on_c, 0, 67, 86
2, 10670, Note_on_c, 0, 67, 0
2, 10670, Note_on_c, 0, 65, 70
2, 10683, Note_on_c, 0, 65, 0
2, 10684, Note_on_c, 0, 67, 70
2, 10697, Note_on_c, 0, 67, 0
2, 10698, Note_on_c, 0, 65, 70
2, 10711, Note_on_c, 0, 65, 0
2, 10712, Note_on_c, 0, 67, 70
2, 10725, Note_on_c, 0, 67, 0
2, 10726, Note_on_c, 0, 65, 70
2, 10738, Note_on_c, 0, 65, 0
2, 10739, Note_on_c, 0, 67, 70
2, 10751, Note_on_c, 0, 67, 0
2, 10752, Note_on_c, 0, 66, 86
2, 10766, Note_on_c, 0, 66, 0
2, 10766, Note_on_c, 0, 67, 70
2, 10779, Note_on_c, 0, 67, 0
2, 10780, Note_on_c, 0, 66, 70
2, 10793, Note_on_c, 0, 66, 0
2, 10794, Note_on_c, 0, 67, 70
2, 10807, Note_on_c, 0, 67, 0
2, 10808, Note_on_c, 0, 66, 71
2, 10821, Note_on_c, 0, 66, 0
2, 10822, Note_on_c, 0, 67, 71
2, 10834, Note_on_c, 0, 67, 0
2, 10835, Note_on_c, 0, 66, 71
2, 10847, Note_on_c, 0, 66, 0
2, 10848, Note_on_c, 0, 67, 88
2, 10862, Note_on_c, 0, 67, 0
2, 10862, Note_on_c, 0, 69, 72
2, 10875, Note_on_c, 0, 69, 0
2, 10876, Note_on_c, 0, 67, 72
2, 10889, Note_on_c, 0, 67, 0
2, 10890, Note_on_c, 0, 69, 73
2, 10903, Note_on_c, 0, 69, 0
2, 10904, Note_on_c, 0, 67, 73
2, 10917, Note_on_c, 0, 67, 0
2, 10918, Note_on_c, 0, 69, 73
2, 10930, Note_on_c, 0, 69, 0
2, 10931, Note_on_c, 0, 67, 74
2, 10943, Note_on_c, 0, 67, 0
2, 10944, Note_on_c, 0, 69, 90
2, 10958, Note_on_c, 0, 69, 0
2, 10958, Note_on_c, 0, 68, 74
2, 10971, Note_on_c, 0, 68, 0
2, 10972, Note_on_c, 0, 69, 75
2, 10985, Note_on_c, 0, 69, 0
2, 10986, Note_on_c, 0, 68, 75
2, 10999, Note_on_c, 0, 68, 0
2, 11000, Note_on_c, 0, 69, 75
2, 11013, Note_on_c, 0, 69, 0
2, 11014, Note_on_c, 0, 68, 75
2, 11026, Note_on_c, 0, 68, 0
2, 11027, Note_on_c, 0, 69, 76
2, 11039, Note_on_c, 0, 69, 0
2, 11040, Note_on_c, 0, 71, 92
2, 11054, Note_on_c, 0, 71, 0
2, 11054, Note_on_c, 0, 69, 76
2, 11067, Note_on_c, 0, 69, 0
2, 11068, Note_on_c, 0, 71, 77
2, 11081, Note_on_c, 0, 71, 0
2, 11082, Note_on_c, 0, 69, 77
2, 11095, Note_on_c, 0, 69, 0
2, 11096, Note_on_c, 0, 71, 77
2, 11109, Note_on_c, 0, 71, 0
2, 11110, Note_on_c, 0, 69, 78
2, 11122, Note_on_c, 0, 69, 0
2, 11123, Note_on_c, 0, 71, 78
2, 11135, Note_on_c, 0, 71, 0
2, 11136, Note_on_c, 0, 70, 80
2, 11136, Note_on_c, 0, 58, 80
2, 11232, Note_on_c, 0, 70, 0
2, 11232, Note_on_c, 0, 58, 0
2, 11232, Note_on_c, 0, 69, 80
2, 11232, Note_on_c, 0, 57, 80
2, 11321, Note_on_c, 0, 69, 0
2, 11321, Note_on_c, 0, 57, 0
2, 11328, Note_on_c, 0, 68, 80
2, 11328, Note_on_c, 0, 56, 80
2, 11424, Note_on_c, 0, 68, 0
2, 11424, Note_on_c, 0, 56, 0
2, 11424, Note_on_c, 0, 69, 80
2, 11424, Note_on_c, 0, 57, 80
2, 11513, Note_on_c, 0, 69, 0
2, 11513, Note_on_c, 0, 57, 0
2, 11568, Note_on_c, 0, 70, 80
2, 11568, Note_on_c, 0, 58, 80
2, 11664, Note_on_c, 0, 70, 0
2, 11664, Note_on_c, 0, 58, 0
2, 11664, Note_on_c, 0, 69, 80
2, 11664, Note_on_c, 0, 57, 80
2, 11709, Note_on_c, 0, 69, 0
2, 11709, Note_on_c, 0, 57, 0
2, 11712, Note_on_c, 0, 68, 80
2, 11712, Note_on_c, 0, 56, 80
2, 11808, Note_on_c, 0, 68, 0
2, 11808, Note_on_c, 0, 56, 0
2, 11808, Note_on_c, 0, 69, 80
2, 11808, Note_on_c, 0, 57, 80
2, 11897, Note_on_c, 0, 69, 0
2, 11897, Note_on_c, 0, 57, 0
2, 11904, Note_on_c, 0, 68, 80
2, 11916, Note_on_c, 0, 68, 0
2, 11916, Note_on_c, 0, 69, 80
2, 11928, Note_on_c, 0, 69, 0
2, 11928, Note_on_c, 0, 68, 80
2, 11949, Note_on_c, 0, 68, 0
2, 11952, Note_on_c, 0, 69, 80
2, 11997, Note_on_c, 0, 69, 0
2, 12000, Note_on_c, 0, 68, 79
2, 12012, Note_on_c, 0, 68, 0
2, 12012, Note_on_c, 0, 69, 79
2, 12024, Note_on_c, 0, 69, 0
2, 12024, Note_on_c, 0, 68, 79
2, 12045, Note_on_c, 0, 68, 0
2, 12048, Note_on_c, 0, 69, 78
2, 12093, Note_on_c, 0, 69, 0
2, 12096, Note_on_c, 0, 56, 77
2, 12108, Note_on_c, 0, 56, 0
2, 12108, Note_on_c, 0, 57, 77
2, 12120, Note_on_c, 0, 57, 0
2, 12120, Note_on_c, 0, 56, 77
2, 12141, Note_on_c, 0, 56, 0
2, 12144, Note_on_c, 0, 57, 76
2, 12189, Note_on_c, 0, 57, 0
2, 12192, Note_on_c, 0, 56, 76
2, 12204, Note_on_c, 0, 56, 0
2, 12204, Note_on_c, 0, 57, 76
2, 12216, Note_on_c, 0, 57, 0
2, 12216, Note_on_c, 0, 56, 76
2, 12237, Note_on_c, 0, 56, 0
2, 12240, Note_on_c, 0, 57, 75
2, 12288, Note_on_c, 0, 52, 74
2, 12288, Note_on_c, 0, 49, 74
2, 12568, Note_on_c, 0, 57, 0
2, 12568, Note_on_c, 0, 52, 0
2, 12568, Note_on_c, 0, 49, 0
2, 12672, Note_on_c, 0, 81, 96
2, 12696, Note_on_c, 0, 81, 0
2, 12696, Note_on_c, 0, 74, 80
2, 12719, Note_on_c, 0, 74, 0
2, 12720, Note_on_c, 0, 73, 80
2, 12743, Note_on_c, 0, 73, 0
2, 12744, Note_on_c, 0, 74, 80
2, 12767, Note_on_c, 0, 74, 0
2, 12768, Note_on_c, 0, 69, 80
2, 12791, Note_on_c, 0, 69, 0
2, 12792, Note_on_c, 0, 74, 80
2, 12815, Note_on_c, 0, 74, 0
2, 12816, Note_on_c, 0, 73, 80
2, 12839, Note_on_c, 0, 73, 0
2, 12840, Note_on_c, 0, 74, 80
2, 12863, Note_on_c, 0, 74, 0
2, 12864, Note_on_c, 0, 82, 96
2, 12864, Note_on_c, 0, 79, 96
2, 12884, Note_on_c, 0, 82, 0
2, 12884, Note_on_c, 0, 79, 0
2, 12912, Note_on_c, 0, 81, 80
2, 12912, Note_on_c, 0, 77, 80
2, 12932, Note_on_c, 0, 81, 0
2, 12932, Note_on_c, 0, 77, 0
2, 13008, Note_on_c, 0, 78, 80
2, 13053, Note_on_c, 0, 78, 0
2, 13056, Note_on_c, 0, 79, 80
2, 13079, Note_on_c, 0, 79, 0
2, 13080, Note_on_c, 0, 74, 80
2, 13103, Note_on_c, 0, 74, 0
2, 13104, Note_on_c, 0, 72, 80
2, 13127, Note_on_c, 0, 72, 0
2, 13128, Note_on_c, 0, 70, 80
2, 13151, Note_on_c, 0, 70, 0
2, 13152, Note_on_c, 0, 69, 80
2, 13175, Note_on_c, 0, 69, 0
2, 13176, Note_on_c, 0, 67, 80
2, 13199, Note_on_c, 0, 67, 0
2, 13200, Note_on_c, 0, 66, 80
2, 13223, Note_on_c, 0, 66, 0
2, 13224, Note_on_c, 0, 67, 80
2, 13247, Note_on_c, 0, 67, 0
2, 13248, Note_on_c, 0, 66, 80
2, 13271, Note_on_c, 0, 66, 0
2, 13272, Note_on_c, 0, 67, 80
2, 13295, Note_on_c, 0, 67, 0
2, 13296, Note_on_c, 0, 69, 80
2, 13319, Note_on_c, 0, 69, 0
2, 13320, Note_on_c, 0, 63, 80
2, 13343, Note_on_c, 0, 63, 0
2, 13344, Note_on_c, 0, 62, 80
2, 13367, Note_on_c, 0, 62, 0
2, 13368, Note_on_c, 0, 60, 80
2, 13391, Note_on_c, 0, 60, 0
2, 13392, Note_on_c, 0, 58, 80
2, 13415, Note_on_c, 0, 58, 0
2, 13416, Note_on_c, 0, 57, 80
2, 13439, Note_on_c, 0, 57, 0
2, 13440, Note_on_c, 0, 58, 80
2, 13463, Note_on_c, 0, 58, 0
2, 13464, Note_on_c, 0, 55, 80
2, 13487, Note_on_c, 0, 55, 0
2, 13488, Note_on_c, 0, 54, 80
2, 13511, Note_on_c, 0, 54, 0
2, 13512, Note_on_c, 0, 55, 80
2, 13535, Note_on_c, 0, 55, 0
2, 13536, Note_on_c, 0, 62, 80
2, 13559, Note_on_c, 0, 62, 0
2, 13560, Note_on_c, 0, 58, 80
2, 13583, Note_on_c, 0, 58, 0
2, 13584, Note_on_c, 0, 70, 80
2, 13607, Note_on_c, 0, 70, 0
2, 13608, Note_on_c, 0, 67, 80
2, 13631, Note_on_c, 0, 67, 0
2, 13632, Note_on_c, 0, 66, 80
2, 13655, Note_on_c, 0, 66, 0
2, 13656, Note_on_c, 0, 62, 80
2, 13679, Note_on_c, 0, 62, 0
2, 13680, Note_on_c, 0, 61, 80
2, 13703, Note_on_c, 0, 61, 0
2, 13704, Note_on_c, 0, 62, 80
2, 13727, Note_on_c, 0, 62, 0
2, 13728, Note_on_c, 0, 69, 80
2, 13751, Note_on_c, 0, 69, 0
2, 13752, Note_on_c, 0, 66, 80
2, 13775, Note_on_c, 0, 66, 0
2, 13776, Note_on_c, 0, 75, 80
2, 13799, Note_on_c, 0, 75, 0
2, 13800, Note_on_c, 0, 72, 80
2, 13823, Note_on_c, 0, 72, 0
2, 13824, Note_on_c, 0, 71, 80
2, 13847, Note_on_c, 0, 71, 0
2, 13848, Note_on_c, 0, 67, 80
2, 13871, Note_on_c, 0, 67, 0
2, 13872, Note_on_c, 0, 66, 80
2, 13895, Note_on_c, 0, 66, 0
2, 13896, Note_on_c, 0, 67, 80
2, 13919, Note_on_c, 0, 67, 0
2, 13920, Note_on_c, 0, 74, 80
2, 13943, Note_on_c, 0, 74, 0
2, 13944, Note_on_c, 0, 71, 80
2, 13967, Note_on_c, 0, 71, 0
2, 13968, Note_on_c, 0, 77, 80
2, 13991, Note_on_c, 0, 77, 0
2, 13992, Note_on_c, 0, 74, 80
2, 14015, Note_on_c, 0, 74, 0
2, 14016, Note_on_c, 0, 76, 80
2, 14039, Note_on_c, 0, 76, 0
2, 14040, Note_on_c, 0, 72, 80
2, 14063, Note_on_c, 0, 72, 0
2, 14064, Note_on_c, 0, 71, 80
2, 14087, Note_on_c, 0, 71, 0
2, 14088, Note_on_c, 0, 72, 80
2, 14111, Note_on_c, 0, 72, 0
2, 14112, Note_on_c, 0, 84, 80
2, 14135, Note_on_c, 0, 84, 0
2, 14136, Note_on_c, 0, 82, 80
2, 14159, Note_on_c, 0, 82, 0
2, 14160, Note_on_c, 0, 81, 80
2, 14183, Note_on_c, 0, 81, 0
2, 14184, Note_on_c, 0, 79, 80
2, 14207, Note_on_c, 0, 79, 0
2, 14208, Note_on_c, 0, 78, 80
2, 14228, Note_on_c, 0, 78, 0
2, 14256, Note_on_c, 0, 81, 80
2, 14271, Note_on_c, 0, 81, 0
2, 14272, Note_on_c, 0, 82, 80
2, 14287, Note_on_c, 0, 82, 0
2, 14288, Note_on_c, 0, 84, 80
2, 14303, Note_on_c, 0, 84, 0
2, 14304, Note_on_c, 0, 78, 80
2, 14324, Note_on_c, 0, 78, 0
2, 14352, Note_on_c, 0, 69, 80
2, 14367, Note_on_c, 0, 69, 0
2, 14368, Note_on_c, 0, 70, 80
2, 14383, Note_on_c, 0, 70, 0
2, 14384, Note_on_c, 0, 72, 80
2, 14399, Note_on_c, 0, 72, 0
2, 14400, Note_on_c, 0, 66, 80
2, 14412, Note_on_c, 0, 66, 0
2, 14412, Note_on_c, 0, 67, 80
2, 14424, Note_on_c, 0, 67, 0
2, 14424, Note_on_c, 0, 66, 80
2, 14494, Note_on_c, 0, 66, 0
2, 14592, Note_on_c, 0, 72, 70
2, 14615, Note_on_c, 0, 72, 0
2, 14616, Note_on_c, 0, 74, 70
2, 14639, Note_on_c, 0, 74, 0
2, 14640, Note_on_c, 0, 75, 70
2, 14663, Note_on_c, 0, 75, 0
2, 14664, Note_on_c, 0, 72, 71
2, 14687, Note_on_c, 0, 72, 0
2, 14688, Note_on_c, 0, 72, 71
2, 14711, Note_on_c, 0, 72, 0
2, 14712, Note_on_c, 0, 74, 72
2, 14735, Note_on_c, 0, 74, 0
2, 14736, Note_on_c, 0, 75, 72
2, 14759, Note_on_c, 0, 75, 0
2, 14760, Note_on_c, 0, 72, 72
2, 14783, Note_on_c, 0, 72, 0
2, 14784, Note_on_c, 0, 78, 73
2, 14807, Note_on_c, 0, 78, 0
2, 14808, Note_on_c, 0, 79, 73
2, 14831, Note_on_c, 0, 79, 0
2, 14832, Note_on_c, 0, 81, 74
2, 14855, Note_on_c, 0, 81, 0
2, 14856, Note_on_c, 0, 78, 74
2, 14879, Note_on_c, 0, 78, 0
2, 14880, Note_on_c, 0, 78, 75
2, 14903, Note_on_c, 0, 78, 0
2, 14904, Note_on_c, 0, 79, 75
2, 14927, Note_on_c, 0, 79, 0
2, 14928, Note_on_c, 0, 81, 75
2, 14951, Note_on_c, 0, 81, 0
2, 14952, Note_on_c, 0, 78, 76
2, 14975, Note_on_c, 0, 78, 0
2, 14976, Note_on_c, 0, 80, 76
2, 14976, Note_on_c, 0, 76, 76
2, 14999, Note_on_c, 0, 80, 0
2, 14999, Note_on_c, 0, 76, 0
2, 15000, Note_on_c, 0, 81, 77
2, 15023, Note_on_c, 0, 81, 0
2, 15024, Note_on_c, 0, 83, 77
2, 15047, Note_on_c, 0, 83, 0
2, 15048, Note_on_c, 0, 80, 77
2, 15071, Note_on_c, 0, 80, 0
2, 15072, Note_on_c, 0, 80, 78
2, 15072, Note_on_c, 0, 76, 78
2, 15095, Note_on_c, 0, 80, 0
2, 15095, Note_on_c, 0, 76, 0
2, 15096, Note_on_c, 0, 81, 78
2, 15119, Note_on_c, 0, 81, 0
2, 15120, Note_on_c, 0, 83, 79
2, 15143, Note_on_c, 0, 83, 0
2, 15144, Note_on_c, 0, 80, 79
2, 15168, Note_on_c, 0, 80, 0
2, 15168, Note_on_c, 0, 81, 80
2, 15191, Note_on_c, 0, 81, 0
2, 15192, Note_on_c, 0, 76, 80
2, 15216, Note_on_c, 0, 76, 0
2, 15216, Note_on_c, 0, 77, 80
2, 15239, Note_on_c, 0, 77, 0
2, 15240, Note_on_c, 0, 73, 80
2, 15264, Note_on_c, 0, 73, 0
2, 15264, Note_on_c, 0, 74, 80
2, 15287, Note_on_c, 0, 74, 0
2, 15288, Note_on_c, 0, 69, 80
2, 15312, Note_on_c, 0, 69, 0
2, 15312, Note_on_c, 0, 70, 80
2, 15335, Note_on_c, 0, 70, 0
2, 15336, Note_on_c, 0, 68, 80
2, 15360, Note_on_c, 0, 68, 0
2, 15360, Note_on_c, 0, 69, 80
2, 15383, Note_on_c, 0, 69, 0
2, 15384, Note_on_c, 0, 64, 80
2, 15408, Note_on_c, 0, 64, 0
2, 15408, Note_on_c, 0, 65, 80
2, 15431, Note_on_c, 0, 65, 0
2, 15432, Note_on_c, 0, 61, 80
2, 15456, Note_on_c, 0, 61, 0
2, 15456, Note_on_c, 0, 62, 80
2, 15479, Note_on_c, 0, 62, 0
2, 15480, Note_on_c, 0, 57, 80
2, 15504, Note_on_c, 0, 57, 0
2, 15504, Note_on_c, 0, 58, 80
2, 15527, Note_on_c, 0, 58, 0
2, 15528, Note_on_c, 0, 56, 80
2, 15551, Note_on_c, 0, 56, 0
2, 15552, Note_on_c, 0, 57, 80
2, 15591, Note_on_c, 0, 57, 0
2, 15648, Note_on_c, 0, 65, 80
2, 15687, Note_on_c, 0, 65, 0
2, 15744, Note_on_c, 0, 64, 78
2, 15783, Note_on_c, 0, 64, 0
2, 15840, Note_on_c, 0, 70, 76
2, 15879, Note_on_c, 0, 70, 0
2, 15936, Note_on_c, 0, 61, 74
2, 16123, Note_on_c, 0, 61, 0
2, 16152, Note_on_c, 0, 64, 70
2, 16175, Note_on_c, 0, 64, 0
2, 16176, Note_on_c, 0, 65, 70
2, 16199, Note_on_c, 0, 65, 0
2, 16200, Note_on_c, 0, 64, 70
2, 16223, Note_on_c, 0, 64, 0
2, 16224, Note_on_c, 0, 65, 70
2, 16247, Note_on_c, 0, 65, 0
2, 16248, Note_on_c, 0, 73, 70
2, 16271, Note_on_c, 0, 73, 0
2, 16272, Note_on_c, 0, 74, 71
2, 16295, Note_on_c, 0, 74, 0
2, 16296, Note_on_c, 0, 73, 71
2, 16319, Note_on_c, 0, 73, 0
2, 16320, Note_on_c, 0, 74, 71
2, 16343, Note_on_c, 0, 74, 0
2, 16344, Note_on_c, 0, 76, 72
2, 16367, Note_on_c, 0, 76, 0
2, 16368, Note_on_c, 0, 77, 72
2, 16391, Note_on_c, 0, 77, 0
2, 16392, Note_on_c, 0, 76, 72
2, 16415, Note_on_c, 0, 76, 0
2, 16416, Note_on_c, 0, 77, 73
2, 16439, Note_on_c, 0, 77, 0
2, 16440, Note_on_c, 0, 74, 73
2, 16463, Note_on_c, 0, 74, 0
2, 16464, Note_on_c, 0, 73, 73
2, 16487, Note_on_c, 0, 73, 0
2, 16488, Note_on_c, 0, 74, 74
2, 16511, Note_on_c, 0, 74, 0
2, 16512, Note_on_c, 0, 83, 74
2, 16557, Note_on_c, 0, 83, 0
2, 16560, Note_on_c, 0, 77, 75
2, 16605, Note_on_c, 0, 77, 0
2, 16608, Note_on_c, 0, 76, 75
2, 16620, Note_on_c, 0, 76, 0
2, 16620, Note_on_c, 0, 77, 75
2, 16632, Note_on_c, 0, 77, 0
2, 16632, Note_on_c, 0, 76, 75
2, 16653, Note_on_c, 0, 76, 0
2, 16656, Note_on_c, 0, 74, 75
2, 16701, Note_on_c, 0, 74, 0
2, 16704, Note_on_c, 0, 81, 75
2, 16793, Note_on_c, 0, 81, 0
2, 16848, Note_on_c, 0, 85, 80
2, 16848, Note_on_c, 0, 81, 80
2, 16848, Note_on_c, 0, 79, 80
2, 16848, Note_on_c, 0, 76, 80
2, 16868, Note_on_c, 0, 85, 0
2, 16868, Note_on_c, 0, 81, 0
2, 16868, Note_on_c, 0, 79, 0
2, 16868, Note_on_c, 0, 76, 0
2, 16896, Note_on_c, 0, 86, 96
2, 16896, Note_on_c, 0, 81, 96
2, 16896, Note_on_c, 0, 77, 96
2, 16896, Note_on_c, 0, 74, 96
2, 16990, Note_on_c, 0, 86, 0
2, 16990, Note_on_c, 0, 81, 0
2, 16990, Note_on_c, 0, 77, 0
2, 16990, Note_on_c, 0, 74, 0
2, 16992, Note_on_c, 0, 62, 80
2, 17169, Note_on_c, 0, 62, 0
2, 17280, End_track
3, 0, Start_track
3, 0, Program_c, 0, 0
3, 0, Control_c, 0, 7, 127
3, 0, Control_c, 0, 10, 64
3, 17280, End_track
4, 0, Start_track
4, 0, Program_c, 1, 0
4, 0, Control_c, 1, 7, 127
4, 0, Control_c, 1, 10, 64
4, 0, Note_on_c, 1, 50, 80
4, 0, Note_on_c, 1, 45, 80
4, 0, Note_on_c, 1, 41, 80
4, 0, Note_on_c, 1, 38, 80
4, 133, Note_on_c, 1, 50, 0
4, 133, Note_on_c, 1, 45, 0
4, 133, Note_on_c, 1, 41, 0
4, 133, Note_on_c, 1, 38, 0
4, 144, Note_on_c, 1, 50, 80
4, 164, Note_on_c, 1, 50, 0
4, 192, Note_on_c, 1, 49, 80
4, 212, Note_on_c, 1, 49, 0
4, 240, Note_on_c, 1, 50, 80
4, 260, Note_on_c, 1, 50, 0
4, 384, Note_on_c, 1, 62, 80
4, 384, Note_on_c, 1, 57, 80
4, 384, Note_on_c, 1, 53, 80
4, 384, Note_on_c, 1, 50, 80
4, 473, Note_on_c, 1, 62, 0
4, 473, Note_on_c, 1, 57, 0
4, 473, Note_on_c, 1, 53, 0
4, 473, Note_on_c, 1, 50, 0
4, 528, Note_on_c, 1, 43, 80
4, 573, Note_on_c, 1, 43, 0
4, 576, Note_on_c, 1, 45, 80
4, 665, Note_on_c, 1, 45, 0
4, 720, Note_on_c, 1, 45, 80
4, 765, Note_on_c, 1, 45, 0
4, 768, Note_on_c, 1, 50, 80
4, 857, Note_on_c, 1, 50, 0
4, 960, Note_on_c, 1, 45, 80
4, 960, Note_on_c, 1, 33, 80
4, 1049, Note_on_c, 1, 45, 0
4, 1049, Note_on_c, 1, 33, 0
4, 1152, Note_on_c, 1, 53, 80
4, 1176, Note_on_c, 1, 53, 0
4, 1176, Note_on_c, 1, 50, 80
4, 1199, Note_on_c, 1, 50, 0
4, 1200, Note_on_c, 1, 57, 80
4, 1224, Note_on_c, 1, 57, 0
4, 1224, Note_on_c, 1, 53, 80
4, 1247, Note_on_c, 1, 53, 0
4, 1248, Note_on_c, 1, 62, 80
4, 1272, Note_on_c, 1, 62, 0
4, 1272, Note_on_c, 1, 57, 80
4, 1295, Note_on_c, 1, 57, 0
4, 1296, Note_on_c, 1, 65, 80
4, 1320, Note_on_c, 1, 65, 0
4, 1320, Note_on_c, 1, 62, 80
4, 1343, Note_on_c, 1, 62, 0
4, 1344, Note_on_c, 1, 55, 80
4, 1389, Note_on_c, 1, 55, 0
4, 1392, Note_on_c, 1, 43, 80
4, 1437, Note_on_c, 1, 43, 0
4, 1440, Note_on_c, 1, 43, 80
4, 1485, Note_on_c, 1, 43, 0
4, 1488, Note_on_c, 1, 43, 80
4, 1533, Note_on_c, 1, 43, 0
4, 1536, Note_on_c, 1, 43, 80
4, 1559, Note_on_c, 1, 43, 0
4, 1560, Note_on_c, 1, 58, 80
4, 1583, Note_on_c, 1, 58, 0
4, 1584, Note_on_c, 1, 63, 80
4, 1607, Note_on_c, 1, 63, 0
4, 1608, Note_on_c, 1, 58, 80
4, 1631, Note_on_c, 1, 58, 0
4, 1632, Note_on_c, 1, 55, 80
4, 1655, Note_on_c, 1, 55, 0
4, 1656, Note_on_c, 1, 58, 80
4, 1679, Note_on_c, 1, 58, 0
4, 1680, Note_on_c, 1, 55, 80
4, 1703, Note_on_c, 1, 55, 0
4, 1704, Note_on_c, 1, 51, 80
4, 1727, Note_on_c, 1, 51, 0
4, 1728, Note_on_c, 1, 49, 80
4, 1773, Note_on_c, 1, 49, 0
4, 1776, Note_on_c, 1, 55, 80
4, 1791, Note_on_c, 1, 55, 0
4, 1792, Note_on_c, 1, 57, 80
4, 1807, Note_on_c, 1, 57, 0
4, 1808, Note_on_c, 1, 58, 80
4, 1823, Note_on_c, 1, 58, 0
4, 1824, Note_on_c, 1, 49, 80
4, 1869, Note_on_c, 1, 49, 0
4, 1872, Note_on_c, 1, 55, 80
4, 1887, Note_on_c, 1, 55, 0
4, 1888, Note_on_c, 1, 57, 80
4, 1903, Note_on_c, 1, 57, 0
4, 1904, Note_on_c, 1, 58, 80
4, 1919, Note_on_c, 1, 58, 0
4, 1920, Note_on_c, 1, 49, 80
4, 2009, Note_on_c, 1, 49, 0
4, 2064, Note_on_c, 1, 48, 77
4, 2109, Note_on_c, 1, 48, 0
4, 2112, Note_on_c, 1, 47, 76
4, 2157, Note_on_c, 1, 47, 0
4, 2160, Note_on_c, 1, 53, 75
4, 2175, Note_on_c, 1, 53, 0
4, 2176, Note_on_c, 1, 55, 75
4, 2191, Note_on_c, 1, 55, 0
4, 2192, Note_on_c, 1, 56, 75
4, 2207, Note_on_c, 1, 56, 0
4, 2208, Note_on_c, 1, 47, 75
4, 2253, Note_on_c, 1, 47, 0
4, 2256, Note_on_c, 1, 53, 75
4, 2271, Note_on_c, 1, 53, 0
4, 2272, Note_on_c, 1, 55, 75
4, 2287, Note_on_c, 1, 55, 0
4, 2288, Note_on_c, 1, 56, 75
4, 2303, Note_on_c, 1, 56, 0
4, 2304, Note_on_c, 1, 47, 75
4, 2393, Note_on_c, 1, 47, 0
4, 2448, Note_on_c, 1, 46, 76
4, 2493, Note_on_c, 1, 46, 0
4, 2496, Note_on_c, 1, 45, 77
4, 2585, Note_on_c, 1, 45, 0
4, 2592, Note_on_c, 1, 57, 80
4, 2592, Note_on_c, 1, 54, 80
4, 2592, Note_on_c, 1, 51, 80
4, 2592, Note_on_c, 1, 48, 80
4, 2681, Note_on_c, 1, 57, 0
4, 2681, Note_on_c, 1, 54, 0
4, 2681, Note_on_c, 1, 51, 0
4, 2681, Note_on_c, 1, 48, 0
4, 2736, Note_on_c, 1, 55, 96
4, 2736, Note_on_c, 1, 50, 96
4, 2736, Note_on_c, 1, 46, 96
4, 2832, Note_on_c, 1, 55, 0
4, 2832, Note_on_c, 1, 50, 0
4, 2832, Note_on_c, 1, 46, 0
4, 2832, Note_on_c, 1, 55, 96
4, 2832, Note_on_c, 1, 50, 96
4, 2832, Note_on_c, 1, 46, 96
4, 2880, Note_on_c, 1, 55, 0
4, 2880, Note_on_c, 1, 50, 0
4, 2880, Note_on_c, 1, 46, 0
4, 2880, Note_on_c, 1, 52, 80
4, 2880, Note_on_c, 1, 46, 80
4, 2880, Note_on_c, 1, 43, 80
4, 2969, Note_on_c, 1, 52, 0
4, 2969, Note_on_c, 1, 46, 0
4, 2969, Note_on_c, 1, 43, 0
4, 2976, Note_on_c, 1, 52, 96
4, 2976, Note_on_c, 1, 46, 96
4, 2976, Note_on_c, 1, 43, 96
4, 3072, Note_on_c, 1, 52, 0
4, 3072, Note_on_c, 1, 46, 0
4, 3072, Note_on_c, 1, 43, 0
4, 3120, Note_on_c, 1, 53, 96
4, 3120, Note_on_c, 1, 48, 96
4, 3120, Note_on_c, 1, 45, 96
4, 3216, Note_on_c, 1, 53, 0
4, 3216, Note_on_c, 1, 48, 0
4, 3216, Note_on_c, 1, 45, 0
4, 3216, Note_on_c, 1, 53, 96
4, 3216, Note_on_c, 1, 48, 96
4, 3216, Note_on_c, 1, 45, 96
4, 3264, Note_on_c, 1, 53, 0
4, 3264, Note_on_c, 1, 48, 0
4, 3264, Note_on_c, 1, 45, 0
4, 3264, Note_on_c, 1, 54, 80
4, 3264, Note_on_c, 1, 50, 80
4, 3309, Note_on_c, 1, 54, 0
4, 3309, Note_on_c, 1, 50, 0
4, 3312, Note_on_c, 1, 57, 80
4, 3357, Note_on_c, 1, 57, 0
4, 3360, Note_on_c, 1, 54, 80
4, 3360, Note_on_c, 1, 50, 80
4, 3405, Note_on_c, 1, 54, 0
4, 3405, Note_on_c, 1, 50, 0
4, 3408, Note_on_c, 1, 57, 80
4, 3453, Note_on_c, 1, 57, 0
4, 3456, Note_on_c, 1, 51, 80
4, 3456, Note_on_c, 1, 39, 80
4, 3648, Note_on_c, 1, 51, 0
4, 3648, Note_on_c, 1, 39, 0
4, 3648, Note_on_c, 1, 49, 80
4, 3648, Note_on_c, 1, 37, 80
4, 3737, Note_on_c, 1, 49, 0
4, 3737, Note_on_c, 1, 37, 0
4, 4032, Note_on_c, 1, 58, 80
4, 4032, Note_on_c, 1, 46, 80
4, 4126, Note_on_c, 1, 58, 0
4, 4126, Note_on_c, 1, 46, 0
4, 4176, Note_on_c, 1, 49, 80
4, 4188, Note_on_c, 1, 49, 0
4, 4188, Note_on_c, 1, 50, 80
4, 4200, Note_on_c, 1, 50, 0
4, 4200, Note_on_c, 1, 49, 80
4, 4221, Note_on_c, 1, 49, 0
4, 4224, Note_on_c, 1, 50, 80
4, 4269, Note_on_c, 1, 50, 0
4, 4272, Note_on_c, 1, 48, 80
4, 4317, Note_on_c, 1, 48, 0
4, 4320, Note_on_c, 1, 46, 80
4, 4340, Note_on_c, 1, 46, 0
4, 4368, Note_on_c, 1, 46, 80
4, 4388, Note_on_c, 1, 46, 0
4, 4416, Note_on_c, 1, 45, 80
4, 4505, Note_on_c, 1, 45, 0
4, 4608, Note_on_c, 1, 50, 80
4, 4608, Note_on_c, 1, 45, 80
4, 4608, Note_on_c, 1, 41, 80
4, 4608, Note_on_c, 1, 38, 80
4, 4741, Note_on_c, 1, 50, 0
4, 4741, Note_on_c, 1, 45, 0
4, 4741, Note_on_c, 1, 41, 0
4, 4741, Note_on_c, 1, 38, 0
4, 4752, Note_on_c, 1, 50, 80
4, 4772, Note_on_c, 1, 50, 0
4, 4800, Note_on_c, 1, 49, 80
4, 4820, Note_on_c, 1, 49, 0
4, 4848, Note_on_c, 1, 50, 80
4, 4868, Note_on_c, 1, 50, 0
4, 4992, Note_on_c, 1, 62, 80
4, 4992, Note_on_c, 1, 57, 80
4, 4992, Note_on_c, 1, 53, 80
4, 4992, Note_on_c, 1, 50, 80
4, 5081, Note_on_c, 1, 62, 0
4, 5081, Note_on_c, 1, 57, 0
4, 5081, Note_on_c, 1, 53, 0
4, 5081, Note_on_c, 1, 50, 0
4, 5136, Note_on_c, 1, 43, 80
4, 5181, Note_on_c, 1, 43, 0
4, 5184, Note_on_c, 1, 45, 80
4, 5273, Note_on_c, 1, 45, 0
4, 5328, Note_on_c, 1, 45, 80
4, 5373, Note_on_c, 1, 45, 0
4, 5376, Note_on_c, 1, 50, 80
4, 5465, Note_on_c, 1, 50, 0
4, 5568, Note_on_c, 1, 45, 80
4, 5568, Note_on_c, 1, 33, 80
4, 5657, Note_on_c, 1, 45, 0
4, 5657, Note_on_c, 1, 33, 0
4, 5760, Note_on_c, 1, 53, 80
4, 5784, Note_on_c, 1, 53, 0
4, 5784, Note_on_c, 1, 50, 80
4, 5807, Note_on_c, 1, 50, 0
4, 5808, Note_on_c, 1, 57, 80
4, 5832, Note_on_c, 1, 57, 0
4, 5832, Note_on_c, 1, 53, 80
4, 5855, Note_on_c, 1, 53, 0
4, 5856, Note_on_c, 1, 62, 80
4, 5880, Note_on_c, 1, 62, 0
4, 5880, Note_on_c, 1, 57, 80
4, 5903, Note_on_c, 1, 57, 0
4, 5904, Note_on_c, 1, 65, 80
4, 5928, Note_on_c, 1, 65, 0
4, 5928, Note_on_c, 1, 62, 80
4, 5951, Note_on_c, 1, 62, 0
4, 5952, Note_on_c, 1, 55, 80
4, 5997, Note_on_c, 1, 55, 0
4, 6000, Note_on_c, 1, 43, 80
4, 6045, Note_on_c, 1, 43, 0
4, 6048, Note_on_c, 1, 43, 80
4, 6093, Note_on_c, 1, 43, 0
4, 6096, Note_on_c, 1, 43, 80
4, 6141, Note_on_c, 1, 43, 0
4, 6144, Note_on_c, 1, 43, 80
4, 6167, Note_on_c, 1, 43, 0
4, 6168, Note_on_c, 1, 58, 80
4, 6191, Note_on_c, 1, 58, 0
4, 6192, Note_on_c, 1, 63, 80
4, 6215, Note_on_c, 1, 63, 0
4, 6216, Note_on_c, 1, 58, 80
4, 6239, Note_on_c, 1, 58, 0
4, 6240, Note_on_c, 1, 55, 80
4, 6263, Note_on_c, 1, 55, 0
4, 6264, Note_on_c, 1, 58, 80
4, 6287, Note_on_c, 1, 58, 0
4, 6288, Note_on_c, 1, 55, 80
4, 6311, Note_on_c, 1, 55, 0
4, 6312, Note_on_c, 1, 51, 80
4, 6335, Note_on_c, 1, 51, 0
4, 6336, Note_on_c, 1, 49, 80
4, 6381, Note_on_c, 1, 49, 0
4, 6384, Note_on_c, 1, 55, 80
4, 6399, Note_on_c, 1, 55, 0
4, 6400, Note_on_c, 1, 57, 80
4, 6415, Note_on_c, 1, 57, 0
4, 6416, Note_on_c, 1, 58, 80
4, 6431, Note_on_c, 1, 58, 0
4, 6432, Note_on_c, 1, 49, 80
4, 6477, Note_on_c, 1, 49, 0
4, 6480, Note_on_c, 1, 55, 80
4, 6495, Note_on_c, 1, 55, 0
4, 6496, Note_on_c, 1, 57, 80
4, 6511, Note_on_c, 1, 57, 0
4, 6512, Note_on_c, 1, 58, 80
4, 6527, Note_on_c, 1, 58, 0
4, 6528, Note_on_c, 1, 49, 80
4, 6617, Note_on_c, 1, 49, 0
4, 6672, Note_on_c, 1, 48, 77
4, 6717, Note_on_c, 1, 48, 0
4, 6720, Note_on_c, 1, 47, 76
4, 6765, Note_on_c, 1, 47, 0
4, 6768, Note_on_c, 1, 53, 75
4, 6783, Note_on_c, 1, 53, 0
4, 6784, Note_on_c, 1, 55, 75
4, 6799, Note_on_c, 1, 55, 0
4, 6800, Note_on_c, 1, 56, 75
4, 6815, Note_on_c, 1, 56, 0
4, 6816, Note_on_c, 1, 47, 75
4, 6861, Note_on_c, 1, 47, 0
4, 6864, Note_on_c, 1, 53, 75
4, 6879, Note_on_c, 1, 53, 0
4, 6880, Note_on_c, 1, 55, 75
4, 6895, Note_on_c, 1, 55, 0
4, 6896, Note_on_c, 1, 56, 75
4, 6911, Note_on_c, 1, 56, 0
4, 6912, Note_on_c, 1, 47, 75
4, 7001, Note_on_c, 1, 47, 0
4, 7056, Note_on_c, 1, 46, 76
4, 7101, Note_on_c, 1, 46, 0
4, 7104, Note_on_c, 1, 45, 77
4, 7193, Note_on_c, 1, 45, 0
4, 7200, Note_on_c, 1, 57, 80
4, 7200, Note_on_c, 1, 54, 80
4, 7200, Note_on_c, 1, 51, 80
4, 7200, Note_on_c, 1, 48, 80
4, 7289, Note_on_c, 1, 57, 0
4, 7289, Note_on_c, 1, 54, 0
4, 7289, Note_on_c, 1, 51, 0
4, 7289, Note_on_c, 1, 48, 0
4, 7344, Note_on_c, 1, 55, 96
4, 7344, Note_on_c, 1, 50, 96
4, 7344, Note_on_c, 1, 46, 96
4, 7440, Note_on_c, 1, 55, 0
4, 7440, Note_on_c, 1, 50, 0
4, 7440, Note_on_c, 1, 46, 0
4, 7440, Note_on_c, 1, 55, 96
4, 7440, Note_on_c, 1, 50, 96
4, 7440, Note_on_c, 1, 46, 96
4, 7488, Note_on_c, 1, 55, 0
4, 7488, Note_on_c, 1, 50, 0
4, 7488, Note_on_c, 1, 46, 0
4, 7488, Note_on_c, 1, 52, 80
4, 7488, Note_on_c, 1, 46, 80
4, 7488, Note_on_c, 1, 43, 80
4, 7577, Note_on_c, 1, 52, 0
4, 7577, Note_on_c, 1, 46, 0
4, 7577, Note_on_c, 1, 43, 0
4, 7584, Note_on_c, 1, 52, 96
4, 7584, Note_on_c, 1, 46, 96
4, 7584, Note_on_c, 1, 43, 96
4, 7680, Note_on_c, 1, 52, 0
4, 7680, Note_on_c, 1, 46, 0
4, 7680, Note_on_c, 1, 43, 0
4, 7728, Note_on_c, 1, 53, 96
4, 7728, Note_on_c, 1, 48, 96
4, 7728, Note_on_c, 1, 45, 96
4, 7824, Note_on_c, 1, 53, 0
4, 7824, Note_on_c, 1, 48, 0
4, 7824, Note_on_c, 1, 45, 0
4, 7824, Note_on_c, 1, 53, 96
4, 7824, Note_on_c, 1, 48, 96
4, 7824, Note_on_c, 1, 45, 96
4, 7872, Note_on_c, 1, 53, 0
4, 7872, Note_on_c, 1, 48, 0
4, 7872, Note_on_c, 1, 45, 0
4, 7872, Note_on_c, 1, 54, 80
4, 7872, Note_on_c, 1, 50, 80
4, 7917, Note_on_c, 1, 54, 0
4, 7917, Note_on_c, 1, 50, 0
4, 7920, Note_on_c, 1, 57, 80
4, 7965, Note_on_c, 1, 57, 0
4, 7968, Note_on_c, 1, 54, 80
4, 7968, Note_on_c, 1, 50, 80
4, 8013, Note_on_c, 1, 54, 0
4, 8013, Note_on_c, 1, 50, 0
4, 8016, Note_on_c, 1, 57, 80
4, 8061, Note_on_c, 1, 57, 0
4, 8064, Note_on_c, 1, 51, 80
4, 8064, Note_on_c, 1, 39, 80
4, 8256, Note_on_c, 1, 51, 0
4, 8256, Note_on_c, 1, 39, 0
4, 8256, Note_on_c, 1, 49, 80
4, 8256, Note_on_c, 1, 37, 80
4, 8345, Note_on_c, 1, 49, 0
4, 8345, Note_on_c, 1, 37, 0
4, 8640, Note_on_c, 1, 58, 80
4, 8640, Note_on_c, 1, 46, 80
4, 8734, Note_on_c, 1, 58, 0
4, 8734, Note_on_c, 1, 46, 0
4, 8784, Note_on_c, 1, 49, 80
4, 8796, Note_on_c, 1, 49, 0
4, 8796, Note_on_c, 1, 50, 80
4, 8808, Note_on_c, 1, 50, 0
4, 8808, Note_on_c, 1, 49, 80
4, 8829, Note_on_c, 1, 49, 0
4, 8832, Note_on_c, 1, 50, 80
4, 8877, Note_on_c, 1, 50, 0
4, 8880, Note_on_c, 1, 48, 80
4, 8925, Note_on_c, 1, 48, 0
4, 8928, Note_on_c, 1, 46, 80
4, 8948, Note_on_c, 1, 46, 0
4, 8976, Note_on_c, 1, 46, 80
4, 8996, Note_on_c, 1, 46, 0
4, 9024, Note_on_c, 1, 45, 80
4, 9113, Note_on_c, 1, 45, 0
4, 9216, Note_on_c, 1, 61, 75
4, 9216, Note_on_c, 1, 49, 75
4, 9264, Note_on_c, 1, 61, 0
4, 9264, Note_on_c, 1, 49, 0
4, 9264, Note_on_c, 1, 62, 75
4, 9264, Note_on_c, 1, 50, 75
4, 9309, Note_on_c, 1, 62, 0
4, 9309, Note_on_c, 1, 50, 0
4, 9312, Note_on_c, 1, 54, 75
4, 9312, Note_on_c, 1, 42, 75
4, 9360, Note_on_c, 1, 54, 0
4, 9360, Note_on_c, 1, 42, 0
4, 9360, Note_on_c, 1, 55, 75
4, 9360, Note_on_c, 1, 43, 75
4, 9405, Note_on_c, 1, 55, 0
4, 9405, Note_on_c, 1, 43, 0
4, 9648, Note_on_c, 1, 42, 80
4, 9693, Note_on_c, 1, 42, 0
4, 9744, Note_on_c, 1, 81, 96
4, 9792, Note_on_c, 1, 81, 0
4, 9840, Note_on_c, 1, 43, 80
4, 9885, Note_on_c, 1, 43, 0
4, 9936, Note_on_c, 1, 82, 96
4, 9984, Note_on_c, 1, 82, 0
4, 10032, Note_on_c, 1, 40, 80
4, 10077, Note_on_c, 1, 40, 0
4, 10128, Note_on_c, 1, 79, 96
4, 10176, Note_on_c, 1, 79, 0
4, 10224, Note_on_c, 1, 77, 80
4, 10269, Note_on_c, 1, 77, 0
4, 10320, Note_on_c, 1, 77, 80
4, 10326, Note_on_c, 1, 77, 0
4, 10326, Note_on_c, 1, 80, 96
4, 10368, Note_on_c, 1, 80, 0
4, 10416, Note_on_c, 1, 56, 80
4, 10428, Note_on_c, 1, 56, 0
4, 10428, Note_on_c, 1, 55, 80
4, 10440, Note_on_c, 1, 55, 0
4, 10440, Note_on_c, 1, 56, 96
4, 10464, Note_on_c, 1, 56, 0
4, 10512, Note_on_c, 1, 55, 80
4, 10524, Note_on_c, 1, 55, 0
4, 10524, Note_on_c, 1, 54, 80
4, 10536, Note_on_c, 1, 54, 0
4, 10536, Note_on_c, 1, 55, 96
4, 10560, Note_on_c, 1, 55, 0
4, 10608, Note_on_c, 1, 58, 80
4, 10620, Note_on_c, 1, 58, 0
4, 10620, Note_on_c, 1, 57, 80
4, 10632, Note_on_c, 1, 57, 0
4, 10632, Note_on_c, 1, 58, 96
4, 10656, Note_on_c, 1, 58, 0
4, 10704, Note_on_c, 1, 57, 80
4, 10716, Note_on_c, 1, 57, 0
4, 10716, Note_on_c, 1, 56, 80
4, 10728, Note_on_c, 1, 56, 0
4, 10728, Note_on_c, 1, 57, 96
4, 10752, Note_on_c, 1, 57, 0
4, 10776, Note_on_c, 1, 63, 96
4, 10800, Note_on_c, 1, 63, 0
4, 10800, Note_on_c, 1, 62, 80
4, 10823, Note_on_c, 1, 62, 0
4, 10824, Note_on_c, 1, 60, 80
4, 10847, Note_on_c, 1, 60, 0
4, 10848, Note_on_c, 1, 58, 80
4, 10871, Note_on_c, 1, 58, 0
4, 10872, Note_on_c, 1, 57, 80
4, 10895, Note_on_c, 1, 57, 0
4, 10896, Note_on_c, 1, 55, 80
4, 10919, Note_on_c, 1, 55, 0
4, 10920, Note_on_c, 1, 53, 80
4, 10943, Note_on_c, 1, 53, 0
4, 10944, Note_on_c, 1, 52, 80
4, 10967, Note_on_c, 1, 52, 0
4, 10968, Note_on_c, 1, 50, 80
4, 10991, Note_on_c, 1, 50, 0
4, 10992, Note_on_c, 1, 48, 80
4, 11015, Note_on_c, 1, 48, 0
4, 11016, Note_on_c, 1, 47, 80
4, 11039, Note_on_c, 1, 47, 0
4, 11040, Note_on_c, 1, 45, 80
4, 11063, Note_on_c, 1, 45, 0
4, 11064, Note_on_c, 1, 47, 80
4, 11087, Note_on_c, 1, 47, 0
4, 11088, Note_on_c, 1, 49, 80
4, 11111, Note_on_c, 1, 49, 0
4, 11112, Note_on_c, 1, 45, 80
4, 11135, Note_on_c, 1, 45, 0
4, 11136, Note_on_c, 1, 50, 80
4, 11159, Note_on_c, 1, 50, 0
4, 11160, Note_on_c, 1, 52, 80
4, 11183, Note_on_c, 1, 52, 0
4, 11184, Note_on_c, 1, 53, 80
4, 11207, Note_on_c, 1, 53, 0
4, 11208, Note_on_c, 1, 50, 80
4, 11231, Note_on_c, 1, 50, 0
4, 11232, Note_on_c, 1, 49, 80
4, 11255, Note_on_c, 1, 49, 0
4, 11256, Note_on_c, 1, 47, 80
4, 11279, Note_on_c, 1, 47, 0
4, 11280, Note_on_c, 1, 49, 80
4, 11303, Note_on_c, 1, 49, 0
4, 11304, Note_on_c, 1, 45, 80
4, 11327, Note_on_c, 1, 45, 0
4, 11328, Note_on_c, 1, 74, 80
4, 11351, Note_on_c, 1, 74, 0
4, 11352, Note_on_c, 1, 76, 80
4, 11375, Note_on_c, 1, 76, 0
4, 11376, Note_on_c, 1, 77, 80
4, 11399, Note_on_c, 1, 77, 0
4, 11400, Note_on_c, 1, 74, 80
4, 11423, Note_on_c, 1, 74, 0
4, 11424, Note_on_c, 1, 73, 80
4, 11447, Note_on_c, 1, 73, 0
4, 11448, Note_on_c, 1, 74, 80
4, 11471, Note_on_c, 1, 74, 0
4, 11472, Note_on_c, 1, 76, 80
4, 11495, Note_on_c, 1, 76, 0
4, 11496, Note_on_c, 1, 73, 80
4, 11519, Note_on_c, 1, 73, 0
4, 11520, Note_on_c, 1, 50, 80
4, 11543, Note_on_c, 1, 50, 0
4, 11544, Note_on_c, 1, 52, 80
4, 11567, Note_on_c, 1, 52, 0
4, 11568, Note_on_c, 1, 53, 80
4, 11591, Note_on_c, 1, 53, 0
4, 11592, Note_on_c, 1, 50, 80
4, 11615, Note_on_c, 1, 50, 0
4, 11616, Note_on_c, 1, 49, 80
4, 11639, Note_on_c, 1, 49, 0
4, 11640, Note_on_c, 1, 47, 80
4, 11663, Note_on_c, 1, 47, 0
4, 11664, Note_on_c, 1, 49, 80
4, 11687, Note_on_c, 1, 49, 0
4, 11688, Note_on_c, 1, 45, 80
4, 11711, Note_on_c, 1, 45, 0
4, 11712, Note_on_c, 1, 74, 80
4, 11735, Note_on_c, 1, 74, 0
4, 11736, Note_on_c, 1, 76, 80
4, 11759, Note_on_c, 1, 76, 0
4, 11760, Note_on_c, 1, 77, 80
4, 11783, Note_on_c, 1, 77, 0
4, 11784, Note_on_c, 1, 74, 80
4, 11807, Note_on_c, 1, 74, 0
4, 11808, Note_on_c, 1, 73, 80
4, 11831, Note_on_c, 1, 73, 0
4, 11832, Note_on_c, 1, 74, 80
4, 11855, Note_on_c, 1, 74, 0
4, 11856, Note_on_c, 1, 76, 80
4, 11879, Note_on_c, 1, 76, 0
4, 11880, Note_on_c, 1, 73, 80
4, 11903, Note_on_c, 1, 73, 0
4, 11904, Note_on_c, 1, 47, 75
4, 11927, Note_on_c, 1, 47, 0
4, 11928, Note_on_c, 1, 50, 74
4, 11951, Note_on_c, 1, 50, 0
4, 11952, Note_on_c, 1, 49, 73
4, 11997, Note_on_c, 1, 49, 0
4, 12000, Note_on_c, 1, 47, 72
4, 12023, Note_on_c, 1, 47, 0
4, 12024, Note_on_c, 1, 50, 71
4, 12047, Note_on_c, 1, 50, 0
4, 12048, Note_on_c, 1, 49, 70
4, 12093, Note_on_c, 1, 49, 0
4, 12096, Note_on_c, 1, 47, 69
4, 12119, Note_on_c, 1, 47, 0
4, 12120, Note_on_c, 1, 50, 68
4, 12143, Note_on_c, 1, 50, 0
4, 12144, Note_on_c, 1, 49, 68
4, 12189, Note_on_c, 1, 49, 0
4, 12192, Note_on_c, 1, 47, 66
4, 12215, Note_on_c, 1, 47, 0
4, 12216, Note_on_c, 1, 50, 66
4, 12239, Note_on_c, 1, 50, 0
4, 12240, Note_on_c, 1, 49, 65
4, 12288, Note_on_c, 1, 49, 0
4, 12288, Note_on_c, 1, 45, 64
4, 12288, Note_on_c, 1, 33, 64
4, 12568, Note_on_c, 1, 45, 0
4, 12568, Note_on_c, 1, 33, 0
4, 12672, Note_on_c, 1, 62, 80
4, 12672, Note_on_c, 1, 57, 80
4, 12672, Note_on_c, 1, 53, 80
4, 12672, Note_on_c, 1, 50, 80
4, 12805, Note_on_c, 1, 62, 0
4, 12805, Note_on_c, 1, 57, 0
4, 12805, Note_on_c, 1, 53, 0
4, 12805, Note_on_c, 1, 50, 0
4, 12816, Note_on_c, 1, 62, 80
4, 12836, Note_on_c, 1, 62, 0
4, 12864, Note_on_c, 1, 61, 80
4, 12884, Note_on_c, 1, 61, 0
4, 12912, Note_on_c, 1, 62, 80
4, 12932, Note_on_c, 1, 62, 0
4, 13008, Note_on_c, 1, 48, 80
4, 13053, Note_on_c, 1, 48, 0
4, 13056, Note_on_c, 1, 46, 80
4, 13145, Note_on_c, 1, 46, 0
4, 13200, Note_on_c, 1, 48, 96
4, 13248, Note_on_c, 1, 48, 0
4, 13248, Note_on_c, 1, 50, 80
4, 13268, Note_on_c, 1, 50, 0
4, 13296, Note_on_c, 1, 38, 80
4, 13316, Note_on_c, 1, 38, 0
4, 13392, Note_on_c, 1, 42, 96
4, 13440, Note_on_c, 1, 42, 0
4, 13440, Note_on_c, 1, 43, 80
4, 13460, Note_on_c, 1, 43, 0
4, 13488, Note_on_c, 1, 43, 80
4, 13508, Note_on_c, 1, 43, 0
4, 13584, Note_on_c, 1, 43, 96
4, 13632, Note_on_c, 1, 43, 0
4, 13632, Note_on_c, 1, 38, 80
4, 13652, Note_on_c, 1, 38, 0
4, 13680, Note_on_c, 1, 62, 80
4, 13692, Note_on_c, 1, 62, 0
4, 13692, Note_on_c, 1, 64, 80
4, 13704, Note_on_c, 1, 64, 0
4, 13704, Note_on_c, 1, 62, 80
4, 13725, Note_on_c, 1, 62, 0
4, 13776, Note_on_c, 1, 42, 96
4, 13824, Note_on_c, 1, 42, 0
4, 13824, Note_on_c, 1, 41, 80
4, 13844, Note_on_c, 1, 41, 0
4, 13872, Note_on_c, 1, 65, 80
4, 13884, Note_on_c, 1, 65, 0
4, 13884, Note_on_c, 1, 67, 80
4, 13896, Note_on_c, 1, 67, 0
4, 13896, Note_on_c, 1, 65, 80
4, 13917, Note_on_c, 1, 65, 0
4, 13968, Note_on_c, 1, 47, 80
4, 14016, Note_on_c, 1, 47, 0
4, 14016, Note_on_c, 1, 46, 80
4, 14036, Note_on_c, 1, 46, 0
4, 14064, Note_on_c, 1, 58, 80
4, 14076, Note_on_c, 1, 58, 0
4, 14076, Note_on_c, 1, 60, 80
4, 14088, Note_on_c, 1, 60, 0
4, 14088, Note_on_c, 1, 58, 80
4, 14109, Note_on_c, 1, 58, 0
4, 14160, Note_on_c, 1, 49, 80
4, 14208, Note_on_c, 1, 49, 0
4, 14208, Note_on_c, 1, 50, 80
4, 14228, Note_on_c, 1, 50, 0
4, 14256, Note_on_c, 1, 57, 80
4, 14271, Note_on_c, 1, 57, 0
4, 14272, Note_on_c, 1, 58, 80
4, 14287, Note_on_c, 1, 58, 0
4, 14288, Note_on_c, 1, 60, 80
4, 14303, Note_on_c, 1, 60, 0
4, 14304, Note_on_c, 1, 54, 80
4, 14324, Note_on_c, 1, 54, 0
4, 14352, Note_on_c, 1, 45, 80
4, 14367, Note_on_c, 1, 45, 0
4, 14368, Note_on_c, 1, 46, 80
4, 14383, Note_on_c, 1, 46, 0
4, 14384, Note_on_c, 1, 48, 80
4, 14399, Note_on_c, 1, 48, 0
4, 14400, Note_on_c, 1, 42, 80
4, 14494, Note_on_c, 1, 42, 0
4, 14592, Note_on_c, 1, 48, 86
4, 14592, Note_on_c, 1, 36, 86
4, 14612, Note_on_c, 1, 48, 0
4, 14612, Note_on_c, 1, 36, 0
4, 14640, Note_on_c, 1, 48, 70
4, 14640, Note_on_c, 1, 36, 70
4, 14660, Note_on_c, 1, 48, 0
4, 14660, Note_on_c, 1, 36, 0
4, 14736, Note_on_c, 1, 48, 72
4, 14736, Note_on_c, 1, 36, 72
4, 14756, Note_on_c, 1, 48, 0
4, 14756, Note_on_c, 1, 36, 0
4, 14784, Note_on_c, 1, 42, 89
4, 14784, Note_on_c, 1, 30, 89
4, 14804, Note_on_c, 1, 42, 0
4, 14804, Note_on_c, 1, 30, 0
4, 14832, Note_on_c, 1, 42, 74
4, 14832, Note_on_c, 1, 30, 74
4, 14852, Note_on_c, 1, 42, 0
4, 14852, Note_on_c, 1, 30, 0
4, 14928, Note_on_c, 1, 42, 75
4, 14928, Note_on_c, 1, 30, 75
4, 14948, Note_on_c, 1, 42, 0
4, 14948, Note_on_c, 1, 30, 0
4, 14976, Note_on_c, 1, 50, 92
4, 14976, Note_on_c, 1, 38, 92
4, 14996, Note_on_c, 1, 50, 0
4, 14996, Note_on_c, 1, 38, 0
4, 15024, Note_on_c, 1, 50, 77
4, 15024, Note_on_c, 1, 38, 77
4, 15044, Note_on_c, 1, 50, 0
4, 15044, Note_on_c, 1, 38, 0
4, 15120, Note_on_c, 1, 50, 79
4, 15120, Note_on_c, 1, 38, 79
4, 15140, Note_on_c, 1, 50, 0
4, 15140, Note_on_c, 1, 38, 0
4, 15168, Note_on_c, 1, 49, 80
4, 15168, Note_on_c, 1, 37, 80
4, 15257, Note_on_c, 1, 49, 0
4, 15257, Note_on_c, 1, 37, 0
4, 15360, Note_on_c, 1, 57, 80
4, 15383, Note_on_c, 1, 57, 0
4, 15384, Note_on_c, 1, 52, 80
4, 15408, Note_on_c, 1, 52, 0
4, 15408, Note_on_c, 1, 53, 80
4, 15431, Note_on_c, 1, 53, 0
4, 15432, Note_on_c, 1, 49, 80
4, 15456, Note_on_c, 1, 49, 0
4, 15456, Note_on_c, 1, 50, 80
4, 15479, Note_on_c, 1, 50, 0
4, 15480, Note_on_c, 1, 45, 80
4, 15504, Note_on_c, 1, 45, 0
4, 15504, Note_on_c, 1, 46, 80
4, 15527, Note_on_c, 1, 46, 0
4, 15528, Note_on_c, 1, 44, 80
4, 15551, Note_on_c, 1, 44, 0
4, 15552, Note_on_c, 1, 45, 80
4, 15591, Note_on_c, 1, 45, 0
4, 15648, Note_on_c, 1, 53, 80
4, 15648, Note_on_c, 1, 50, 80
4, 15648, Note_on_c, 1, 45, 80
4, 15687, Note_on_c, 1, 53, 0
4, 15687, Note_on_c, 1, 50, 0
4, 15687, Note_on_c, 1, 45, 0
4, 15744, Note_on_c, 1, 52, 76
4, 15744, Note_on_c, 1, 46, 76
4, 15744, Note_on_c, 1, 43, 76
4, 15783, Note_on_c, 1, 52, 0
4, 15783, Note_on_c, 1, 46, 0
4, 15783, Note_on_c, 1, 43, 0
4, 15840, Note_on_c, 1, 55, 73
4, 15840, Note_on_c, 1, 51, 73
4, 15840, Note_on_c, 1, 46, 73
4, 15879, Note_on_c, 1, 55, 0
4, 15879, Note_on_c, 1, 51, 0
4, 15879, Note_on_c, 1, 46, 0
4, 15936, Note_on_c, 1, 55, 70
4, 15936, Note_on_c, 1, 52, 70
4, 15936, Note_on_c, 1, 45, 70
4, 16123, Note_on_c, 1, 55, 0
4, 16123, Note_on_c, 1, 52, 0
4, 16123, Note_on_c, 1, 45, 0
4, 16128, Note_on_c, 1, 50, 86
4, 16128, Note_on_c, 1, 45, 86
4, 16128, Note_on_c, 1, 41, 86
4, 16224, Note_on_c, 1, 50, 0
4, 16224, Note_on_c, 1, 45, 0
4, 16224, Note_on_c, 1, 41, 0
4, 16320, Note_on_c, 1, 50, 87
4, 16320, Note_on_c, 1, 45, 87
4, 16320, Note_on_c, 1, 41, 87
4, 16416, Note_on_c, 1, 50, 0
4, 16416, Note_on_c, 1, 45, 0
4, 16416, Note_on_c, 1, 41, 0
4, 16512, Note_on_c, 1, 44, 73
4, 16512, Note_on_c, 1, 32, 73
4, 16701, Note_on_c, 1, 44, 0
4, 16701, Note_on_c, 1, 32, 0
4, 16704, Note_on_c, 1, 45, 75
4, 16704, Note_on_c, 1, 33, 75
4, 16793, Note_on_c, 1, 45, 0
4, 16793, Note_on_c, 1, 33, 0
4, 16848, Note_on_c, 1, 45, 80
4, 16848, Note_on_c, 1, 33, 80
4, 16868, Note_on_c, 1, 45, 0
4, 16868, Note_on_c, 1, 33, 0
4, 16896, Note_on_c, 1, 50, 80
4, 16896, Note_on_c, 1, 38, 80
4, 16985, Note_on_c, 1, 50, 0
4, 16985, Note_on_c, 1, 38, 0
4, 16992, Note_on_c, 1, 57, 80
4, 16992, Note_on_c, 1, 53, 80
4, 16992, Note_on_c, 1, 50, 80
4, 17169, Note_on_c, 1, 57, 0
4, 17169, Note_on_c, 1, 53, 0
4, 17169, Note_on_c, 1, 50, 0
4, 17280, Note_on_c, 1, 50, 0
4, 17457, Note_on_c, 1, 50, 0
4, 17472, End_track
5, 0, Start_track
5, 0, Program_c, 1, 0
5, 0, Control_c, 1, 7, 127
5, 0, Control_c, 1, 10, 64
5, 17280, End_track
6, 0, Start_track
6, 0, Title_t, "Sonata I   Haydn  "
6, 0, End_track
0, 0, End_of_file
