0, 0, Header, 1, 6, 96
1, 0, Start_track
1, 0, Copyright_t, "Copyright  2000 <copyright holder>"
1, 0, Text_t, "Sonata III\015\012"
1, 0, Text_t, "Haydn\015\012"
1, 0, Sequencer_specific, 17, 68, 87, 77, 90, 86, 82, 83, 78, 32, 55, 46, 48, 46, 49, 48, 46, 48
1, 0, Time_signature, 3, 2, 24, 8
1, 0, Tempo, 500000
1, 0, Key_signature, -1, "major"
1, 10368, Key_signature, -4, "major"
1, 26496, Key_signature, -1, "major"
1, 47520, End_track
2, 0, Start_track
2, 0, Program_c, 0, 0
2, 0, Control_c, 0, 7, 127
2, 0, Control_c, 0, 10, 64
2, 168, Note_on_c, 0, 72, 77
2, 191, Note_on_c, 0, 72, 0
2, 192, Note_on_c, 0, 72, 77
2, 205, Note_on_c, 0, 72, 0
2, 206, Note_on_c, 0, 74, 77
2, 219, Note_on_c, 0, 74, 0
2, 220, Note_on_c, 0, 72, 77
2, 233, Note_on_c, 0, 72, 0
2, 234, Note_on_c, 0, 74, 77
2, 247, Note_on_c, 0, 74, 0
2, 248, Note_on_c, 0, 72, 77
2, 261, Note_on_c, 0, 72, 0
2, 262, Note_on_c, 0, 71, 77
2, 274, Note_on_c, 0, 71, 0
2, 275, Note_on_c, 0, 72, 77
2, 287, Note_on_c, 0, 72, 0
2, 288, Note_on_c, 0, 77, 77
2, 308, Note_on_c, 0, 77, 0
2, 336, Note_on_c, 0, 76, 77
2, 356, Note_on_c, 0, 76, 0
2, 384, Note_on_c, 0, 74, 77
2, 404, Note_on_c, 0, 74, 0
2, 432, Note_on_c, 0, 72, 77
2, 452, Note_on_c, 0, 72, 0
2, 480, Note_on_c, 0, 70, 77
2, 500, Note_on_c, 0, 70, 0
2, 528, Note_on_c, 0, 69, 77
2, 548, Note_on_c, 0, 69, 0
2, 576, Note_on_c, 0, 67, 77
2, 589, Note_on_c, 0, 67, 0
2, 590, Note_on_c, 0, 69, 77
2, 603, Note_on_c, 0, 69, 0
2, 604, Note_on_c, 0, 67, 77
2, 617, Note_on_c, 0, 67, 0
2, 618, Note_on_c, 0, 69, 77
2, 631, Note_on_c, 0, 69, 0
2, 632, Note_on_c, 0, 67, 77
2, 645, Note_on_c, 0, 67, 0
2, 646, Note_on_c, 0, 69, 77
2, 658, Note_on_c, 0, 69, 0
2, 659, Note_on_c, 0, 67, 77
2, 672, Note_on_c, 0, 67, 0
2, 672, Note_on_c, 0, 65, 77
2, 692, Note_on_c, 0, 65, 0
2, 744, Note_on_c, 0, 72, 77
2, 767, Note_on_c, 0, 72, 0
2, 768, Note_on_c, 0, 72, 77
2, 781, Note_on_c, 0, 72, 0
2, 782, Note_on_c, 0, 74, 77
2, 795, Note_on_c, 0, 74, 0
2, 796, Note_on_c, 0, 72, 77
2, 809, Note_on_c, 0, 72, 0
2, 810, Note_on_c, 0, 74, 77
2, 823, Note_on_c, 0, 74, 0
2, 824, Note_on_c, 0, 72, 77
2, 837, Note_on_c, 0, 72, 0
2, 838, Note_on_c, 0, 71, 77
2, 850, Note_on_c, 0, 71, 0
2, 851, Note_on_c, 0, 72, 77
2, 863, Note_on_c, 0, 72, 0
2, 864, Note_on_c, 0, 81, 77
2, 884, Note_on_c, 0, 81, 0
2, 912, Note_on_c, 0, 79, 77
2, 932, Note_on_c, 0, 79, 0
2, 960, Note_on_c, 0, 77, 77
2, 980, Note_on_c, 0, 77, 0
2, 1008, Note_on_c, 0, 76, 77
2, 1028, Note_on_c, 0, 76, 0
2, 1056, Note_on_c, 0, 74, 77
2, 1076, Note_on_c, 0, 74, 0
2, 1104, Note_on_c, 0, 72, 77
2, 1124, Note_on_c, 0, 72, 0
2, 1152, Note_on_c, 0, 70, 77
2, 1165, Note_on_c, 0, 70, 0
2, 1166, Note_on_c, 0, 72, 77
2, 1179, Note_on_c, 0, 72, 0
2, 1180, Note_on_c, 0, 70, 77
2, 1193, Note_on_c, 0, 70, 0
2, 1194, Note_on_c, 0, 72, 77
2, 1207, Note_on_c, 0, 72, 0
2, 1208, Note_on_c, 0, 70, 77
2, 1221, Note_on_c, 0, 70, 0
2, 1222, Note_on_c, 0, 72, 77
2, 1234, Note_on_c, 0, 72, 0
2, 1235, Note_on_c, 0, 70, 77
2, 1248, Note_on_c, 0, 70, 0
2, 1248, Note_on_c, 0, 69, 77
2, 1268, Note_on_c, 0, 69, 0
2, 1320, Note_on_c, 0, 72, 77
2, 1343, Note_on_c, 0, 72, 0
2, 1344, Note_on_c, 0, 72, 77
2, 1357, Note_on_c, 0, 72, 0
2, 1358, Note_on_c, 0, 74, 77
2, 1371, Note_on_c, 0, 74, 0
2, 1372, Note_on_c, 0, 72, 77
2, 1385, Note_on_c, 0, 72, 0
2, 1386, Note_on_c, 0, 74, 77
2, 1399, Note_on_c, 0, 74, 0
2, 1400, Note_on_c, 0, 72, 77
2, 1413, Note_on_c, 0, 72, 0
2, 1414, Note_on_c, 0, 71, 77
2, 1426, Note_on_c, 0, 71, 0
2, 1427, Note_on_c, 0, 72, 77
2, 1439, Note_on_c, 0, 72, 0
2, 1440, Note_on_c, 0, 84, 77
2, 1573, Note_on_c, 0, 84, 0
2, 1584, Note_on_c, 0, 82, 77
2, 1673, Note_on_c, 0, 82, 0
2, 1680, Note_on_c, 0, 81, 77
2, 1725, Note_on_c, 0, 81, 0
2, 1728, Note_on_c, 0, 81, 77
2, 1773, Note_on_c, 0, 81, 0
2, 1776, Note_on_c, 0, 74, 77
2, 1821, Note_on_c, 0, 74, 0
2, 1824, Note_on_c, 0, 79, 77
2, 1869, Note_on_c, 0, 79, 0
2, 1872, Note_on_c, 0, 76, 77
2, 1917, Note_on_c, 0, 76, 0
2, 1920, Note_on_c, 0, 77, 77
2, 1965, Note_on_c, 0, 77, 0
2, 1968, Note_on_c, 0, 72, 77
2, 2013, Note_on_c, 0, 72, 0
2, 2016, Note_on_c, 0, 72, 77
2, 2028, Note_on_c, 0, 72, 0
2, 2028, Note_on_c, 0, 70, 77
2, 2040, Note_on_c, 0, 70, 0
2, 2040, Note_on_c, 0, 69, 77
2, 2052, Note_on_c, 0, 69, 0
2, 2052, Note_on_c, 0, 70, 77
2, 2193, Note_on_c, 0, 70, 0
2, 2208, Note_on_c, 0, 69, 77
2, 2297, Note_on_c, 0, 69, 0
2, 2304, Note_on_c, 0, 69, 77
2, 2317, Note_on_c, 0, 69, 0
2, 2318, Note_on_c, 0, 70, 77
2, 2331, Note_on_c, 0, 70, 0
2, 2332, Note_on_c, 0, 69, 77
2, 2345, Note_on_c, 0, 69, 0
2, 2346, Note_on_c, 0, 70, 77
2, 2359, Note_on_c, 0, 70, 0
2, 2360, Note_on_c, 0, 69, 77
2, 2373, Note_on_c, 0, 69, 0
2, 2374, Note_on_c, 0, 67, 77
2, 2386, Note_on_c, 0, 67, 0
2, 2387, Note_on_c, 0, 69, 77
2, 2399, Note_on_c, 0, 69, 0
2, 2400, Note_on_c, 0, 67, 77
2, 2445, Note_on_c, 0, 67, 0
2, 2472, Note_on_c, 0, 72, 77
2, 2495, Note_on_c, 0, 72, 0
2, 2496, Note_on_c, 0, 72, 77
2, 2509, Note_on_c, 0, 72, 0
2, 2510, Note_on_c, 0, 74, 77
2, 2523, Note_on_c, 0, 74, 0
2, 2524, Note_on_c, 0, 72, 77
2, 2537, Note_on_c, 0, 72, 0
2, 2538, Note_on_c, 0, 74, 77
2, 2551, Note_on_c, 0, 74, 0
2, 2552, Note_on_c, 0, 72, 77
2, 2565, Note_on_c, 0, 72, 0
2, 2566, Note_on_c, 0, 71, 77
2, 2578, Note_on_c, 0, 71, 0
2, 2579, Note_on_c, 0, 72, 77
2, 2591, Note_on_c, 0, 72, 0
2, 2592, Note_on_c, 0, 77, 77
2, 2612, Note_on_c, 0, 77, 0
2, 2640, Note_on_c, 0, 76, 77
2, 2660, Note_on_c, 0, 76, 0
2, 2688, Note_on_c, 0, 74, 77
2, 2708, Note_on_c, 0, 74, 0
2, 2736, Note_on_c, 0, 72, 77
2, 2756, Note_on_c, 0, 72, 0
2, 2784, Note_on_c, 0, 70, 77
2, 2804, Note_on_c, 0, 70, 0
2, 2832, Note_on_c, 0, 69, 77
2, 2852, Note_on_c, 0, 69, 0
2, 2880, Note_on_c, 0, 67, 77
2, 2893, Note_on_c, 0, 67, 0
2, 2894, Note_on_c, 0, 69, 77
2, 2907, Note_on_c, 0, 69, 0
2, 2908, Note_on_c, 0, 67, 77
2, 2921, Note_on_c, 0, 67, 0
2, 2922, Note_on_c, 0, 69, 77
2, 2935, Note_on_c, 0, 69, 0
2, 2936, Note_on_c, 0, 67, 77
2, 2949, Note_on_c, 0, 67, 0
2, 2950, Note_on_c, 0, 69, 77
2, 2962, Note_on_c, 0, 69, 0
2, 2963, Note_on_c, 0, 67, 77
2, 2976, Note_on_c, 0, 67, 0
2, 2976, Note_on_c, 0, 65, 77
2, 2996, Note_on_c, 0, 65, 0
2, 3048, Note_on_c, 0, 72, 77
2, 3071, Note_on_c, 0, 72, 0
2, 3072, Note_on_c, 0, 72, 77
2, 3085, Note_on_c, 0, 72, 0
2, 3086, Note_on_c, 0, 74, 77
2, 3099, Note_on_c, 0, 74, 0
2, 3100, Note_on_c, 0, 72, 77
2, 3113, Note_on_c, 0, 72, 0
2, 3114, Note_on_c, 0, 74, 77
2, 3127, Note_on_c, 0, 74, 0
2, 3128, Note_on_c, 0, 72, 77
2, 3141, Note_on_c, 0, 72, 0
2, 3142, Note_on_c, 0, 71, 77
2, 3154, Note_on_c, 0, 71, 0
2, 3155, Note_on_c, 0, 72, 77
2, 3167, Note_on_c, 0, 72, 0
2, 3168, Note_on_c, 0, 81, 77
2, 3188, Note_on_c, 0, 81, 0
2, 3216, Note_on_c, 0, 79, 77
2, 3236, Note_on_c, 0, 79, 0
2, 3264, Note_on_c, 0, 77, 77
2, 3284, Note_on_c, 0, 77, 0
2, 3312, Note_on_c, 0, 76, 77
2, 3332, Note_on_c, 0, 76, 0
2, 3360, Note_on_c, 0, 74, 77
2, 3380, Note_on_c, 0, 74, 0
2, 3408, Note_on_c, 0, 72, 77
2, 3428, Note_on_c, 0, 72, 0
2, 3456, Note_on_c, 0, 70, 77
2, 3469, Note_on_c, 0, 70, 0
2, 3470, Note_on_c, 0, 72, 77
2, 3483, Note_on_c, 0, 72, 0
2, 3484, Note_on_c, 0, 70, 77
2, 3497, Note_on_c, 0, 70, 0
2, 3498, Note_on_c, 0, 72, 77
2, 3511, Note_on_c, 0, 72, 0
2, 3512, Note_on_c, 0, 70, 77
2, 3525, Note_on_c, 0, 70, 0
2, 3526, Note_on_c, 0, 72, 77
2, 3538, Note_on_c, 0, 72, 0
2, 3539, Note_on_c, 0, 70, 77
2, 3552, Note_on_c, 0, 70, 0
2, 3552, Note_on_c, 0, 69, 77
2, 3572, Note_on_c, 0, 69, 0
2, 3624, Note_on_c, 0, 72, 77
2, 3647, Note_on_c, 0, 72, 0
2, 3648, Note_on_c, 0, 72, 77
2, 3661, Note_on_c, 0, 72, 0
2, 3662, Note_on_c, 0, 74, 77
2, 3675, Note_on_c, 0, 74, 0
2, 3676, Note_on_c, 0, 72, 77
2, 3689, Note_on_c, 0, 72, 0
2, 3690, Note_on_c, 0, 74, 77
2, 3703, Note_on_c, 0, 74, 0
2, 3704, Note_on_c, 0, 72, 77
2, 3717, Note_on_c, 0, 72, 0
2, 3718, Note_on_c, 0, 71, 77
2, 3730, Note_on_c, 0, 71, 0
2, 3731, Note_on_c, 0, 72, 77
2, 3743, Note_on_c, 0, 72, 0
2, 3744, Note_on_c, 0, 84, 77
2, 3877, Note_on_c, 0, 84, 0
2, 3888, Note_on_c, 0, 82, 77
2, 3977, Note_on_c, 0, 82, 0
2, 3984, Note_on_c, 0, 81, 77
2, 4029, Note_on_c, 0, 81, 0
2, 4032, Note_on_c, 0, 81, 77
2, 4077, Note_on_c, 0, 81, 0
2, 4080, Note_on_c, 0, 74, 77
2, 4125, Note_on_c, 0, 74, 0
2, 4128, Note_on_c, 0, 79, 77
2, 4173, Note_on_c, 0, 79, 0
2, 4176, Note_on_c, 0, 76, 77
2, 4221, Note_on_c, 0, 76, 0
2, 4224, Note_on_c, 0, 77, 77
2, 4269, Note_on_c, 0, 77, 0
2, 4272, Note_on_c, 0, 72, 77
2, 4317, Note_on_c, 0, 72, 0
2, 4320, Note_on_c, 0, 72, 77
2, 4332, Note_on_c, 0, 72, 0
2, 4332, Note_on_c, 0, 70, 77
2, 4344, Note_on_c, 0, 70, 0
2, 4344, Note_on_c, 0, 69, 77
2, 4356, Note_on_c, 0, 69, 0
2, 4356, Note_on_c, 0, 70, 77
2, 4497, Note_on_c, 0, 70, 0
2, 4512, Note_on_c, 0, 69, 77
2, 4601, Note_on_c, 0, 69, 0
2, 4608, Note_on_c, 0, 69, 77
2, 4621, Note_on_c, 0, 69, 0
2, 4622, Note_on_c, 0, 70, 77
2, 4635, Note_on_c, 0, 70, 0
2, 4636, Note_on_c, 0, 69, 77
2, 4649, Note_on_c, 0, 69, 0
2, 4650, Note_on_c, 0, 70, 77
2, 4663, Note_on_c, 0, 70, 0
2, 4664, Note_on_c, 0, 69, 77
2, 4677, Note_on_c, 0, 69, 0
2, 4678, Note_on_c, 0, 67, 77
2, 4690, Note_on_c, 0, 67, 0
2, 4691, Note_on_c, 0, 69, 77
2, 4703, Note_on_c, 0, 69, 0
2, 4704, Note_on_c, 0, 67, 77
2, 4749, Note_on_c, 0, 67, 0
2, 5040, Note_on_c, 0, 63, 77
2, 5085, Note_on_c, 0, 63, 0
2, 5088, Note_on_c, 0, 62, 77
2, 5133, Note_on_c, 0, 62, 0
2, 5136, Note_on_c, 0, 72, 77
2, 5184, Note_on_c, 0, 72, 0
2, 5184, Note_on_c, 0, 70, 77
2, 5229, Note_on_c, 0, 70, 0
2, 5232, Note_on_c, 0, 61, 77
2, 5280, Note_on_c, 0, 61, 0
2, 5280, Note_on_c, 0, 60, 77
2, 5325, Note_on_c, 0, 60, 0
2, 5328, Note_on_c, 0, 70, 77
2, 5376, Note_on_c, 0, 70, 0
2, 5376, Note_on_c, 0, 69, 77
2, 5421, Note_on_c, 0, 69, 0
2, 5424, Note_on_c, 0, 65, 77
2, 5469, Note_on_c, 0, 65, 0
2, 5472, Note_on_c, 0, 62, 77
2, 5517, Note_on_c, 0, 62, 0
2, 5520, Note_on_c, 0, 66, 77
2, 5565, Note_on_c, 0, 66, 0
2, 5568, Note_on_c, 0, 67, 79
2, 5613, Note_on_c, 0, 67, 0
2, 5616, Note_on_c, 0, 69, 81
2, 5661, Note_on_c, 0, 69, 0
2, 5664, Note_on_c, 0, 72, 83
2, 5687, Note_on_c, 0, 72, 0
2, 5688, Note_on_c, 0, 70, 84
2, 5711, Note_on_c, 0, 70, 0
2, 5712, Note_on_c, 0, 69, 85
2, 5735, Note_on_c, 0, 69, 0
2, 5736, Note_on_c, 0, 67, 84
2, 5759, Note_on_c, 0, 67, 0
2, 5760, Note_on_c, 0, 65, 83
2, 5856, Note_on_c, 0, 65, 0
2, 5856, Note_on_c, 0, 64, 79
2, 5901, Note_on_c, 0, 64, 0
2, 5928, Note_on_c, 0, 60, 77
2, 5951, Note_on_c, 0, 60, 0
2, 5952, Note_on_c, 0, 60, 77
2, 5965, Note_on_c, 0, 60, 0
2, 5966, Note_on_c, 0, 62, 77
2, 5979, Note_on_c, 0, 62, 0
2, 5980, Note_on_c, 0, 60, 77
2, 5993, Note_on_c, 0, 60, 0
2, 5994, Note_on_c, 0, 62, 77
2, 6007, Note_on_c, 0, 62, 0
2, 6008, Note_on_c, 0, 60, 77
2, 6021, Note_on_c, 0, 60, 0
2, 6022, Note_on_c, 0, 59, 77
2, 6034, Note_on_c, 0, 59, 0
2, 6035, Note_on_c, 0, 60, 77
2, 6047, Note_on_c, 0, 60, 0
2, 6048, Note_on_c, 0, 70, 77
2, 6048, Note_on_c, 0, 67, 77
2, 6096, Note_on_c, 0, 70, 0
2, 6096, Note_on_c, 0, 67, 0
2, 6096, Note_on_c, 0, 69, 77
2, 6096, Note_on_c, 0, 65, 77
2, 6141, Note_on_c, 0, 69, 0
2, 6141, Note_on_c, 0, 65, 0
2, 6144, Note_on_c, 0, 67, 77
2, 6144, Note_on_c, 0, 64, 77
2, 6189, Note_on_c, 0, 67, 0
2, 6189, Note_on_c, 0, 64, 0
2, 6192, Note_on_c, 0, 72, 77
2, 6215, Note_on_c, 0, 72, 0
2, 6216, Note_on_c, 0, 74, 77
2, 6239, Note_on_c, 0, 74, 0
2, 6240, Note_on_c, 0, 76, 77
2, 6263, Note_on_c, 0, 76, 0
2, 6264, Note_on_c, 0, 77, 77
2, 6287, Note_on_c, 0, 77, 0
2, 6288, Note_on_c, 0, 79, 77
2, 6311, Note_on_c, 0, 79, 0
2, 6312, Note_on_c, 0, 81, 77
2, 6335, Note_on_c, 0, 81, 0
2, 6336, Note_on_c, 0, 82, 77
2, 6336, Note_on_c, 0, 79, 77
2, 6384, Note_on_c, 0, 82, 0
2, 6384, Note_on_c, 0, 79, 0
2, 6384, Note_on_c, 0, 81, 77
2, 6384, Note_on_c, 0, 77, 77
2, 6429, Note_on_c, 0, 81, 0
2, 6429, Note_on_c, 0, 77, 0
2, 6432, Note_on_c, 0, 79, 77
2, 6432, Note_on_c, 0, 76, 77
2, 6477, Note_on_c, 0, 79, 0
2, 6477, Note_on_c, 0, 76, 0
2, 6480, Note_on_c, 0, 76, 77
2, 6503, Note_on_c, 0, 76, 0
2, 6504, Note_on_c, 0, 77, 78
2, 6527, Note_on_c, 0, 77, 0
2, 6528, Note_on_c, 0, 79, 79
2, 6551, Note_on_c, 0, 79, 0
2, 6552, Note_on_c, 0, 81, 81
2, 6575, Note_on_c, 0, 81, 0
2, 6576, Note_on_c, 0, 82, 82
2, 6599, Note_on_c, 0, 82, 0
2, 6600, Note_on_c, 0, 84, 83
2, 6623, Note_on_c, 0, 84, 0
2, 6624, Note_on_c, 0, 86, 85
2, 6669, Note_on_c, 0, 86, 0
2, 6672, Note_on_c, 0, 82, 85
2, 6717, Note_on_c, 0, 82, 0
2, 6720, Note_on_c, 0, 79, 85
2, 6765, Note_on_c, 0, 79, 0
2, 6768, Note_on_c, 0, 88, 85
2, 6813, Note_on_c, 0, 88, 0
2, 6816, Note_on_c, 0, 89, 85
2, 6861, Note_on_c, 0, 89, 0
2, 6864, Note_on_c, 0, 77, 85
2, 6909, Note_on_c, 0, 77, 0
2, 6912, Note_on_c, 0, 84, 85
2, 6924, Note_on_c, 0, 84, 0
2, 6924, Note_on_c, 0, 82, 85
2, 6936, Note_on_c, 0, 82, 0
2, 6936, Note_on_c, 0, 81, 85
2, 6948, Note_on_c, 0, 81, 0
2, 6948, Note_on_c, 0, 82, 85
2, 7104, Note_on_c, 0, 82, 0
2, 7104, Note_on_c, 0, 81, 85
2, 7193, Note_on_c, 0, 81, 0
2, 7248, Note_on_c, 0, 66, 83
2, 7293, Note_on_c, 0, 66, 0
2, 7296, Note_on_c, 0, 67, 82
2, 7341, Note_on_c, 0, 67, 0
2, 7344, Note_on_c, 0, 74, 81
2, 7389, Note_on_c, 0, 74, 0
2, 7440, Note_on_c, 0, 64, 78
2, 7440, Note_on_c, 0, 58, 78
2, 7485, Note_on_c, 0, 64, 0
2, 7485, Note_on_c, 0, 58, 0
2, 7488, Note_on_c, 0, 65, 77
2, 7488, Note_on_c, 0, 57, 77
2, 7577, Note_on_c, 0, 65, 0
2, 7577, Note_on_c, 0, 57, 0
2, 7920, Note_on_c, 0, 63, 77
2, 7965, Note_on_c, 0, 63, 0
2, 7968, Note_on_c, 0, 62, 77
2, 8013, Note_on_c, 0, 62, 0
2, 8016, Note_on_c, 0, 72, 77
2, 8064, Note_on_c, 0, 72, 0
2, 8064, Note_on_c, 0, 70, 77
2, 8109, Note_on_c, 0, 70, 0
2, 8112, Note_on_c, 0, 61, 77
2, 8160, Note_on_c, 0, 61, 0
2, 8160, Note_on_c, 0, 60, 77
2, 8205, Note_on_c, 0, 60, 0
2, 8208, Note_on_c, 0, 70, 77
2, 8256, Note_on_c, 0, 70, 0
2, 8256, Note_on_c, 0, 69, 77
2, 8301, Note_on_c, 0, 69, 0
2, 8304, Note_on_c, 0, 65, 77
2, 8349, Note_on_c, 0, 65, 0
2, 8352, Note_on_c, 0, 62, 77
2, 8397, Note_on_c, 0, 62, 0
2, 8400, Note_on_c, 0, 66, 77
2, 8445, Note_on_c, 0, 66, 0
2, 8448, Note_on_c, 0, 67, 79
2, 8493, Note_on_c, 0, 67, 0
2, 8496, Note_on_c, 0, 69, 81
2, 8541, Note_on_c, 0, 69, 0
2, 8544, Note_on_c, 0, 72, 83
2, 8567, Note_on_c, 0, 72, 0
2, 8568, Note_on_c, 0, 70, 84
2, 8591, Note_on_c, 0, 70, 0
2, 8592, Note_on_c, 0, 69, 85
2, 8615, Note_on_c, 0, 69, 0
2, 8616, Note_on_c, 0, 67, 84
2, 8639, Note_on_c, 0, 67, 0
2, 8640, Note_on_c, 0, 65, 83
2, 8736, Note_on_c, 0, 65, 0
2, 8736, Note_on_c, 0, 64, 79
2, 8781, Note_on_c, 0, 64, 0
2, 8808, Note_on_c, 0, 60, 77
2, 8831, Note_on_c, 0, 60, 0
2, 8832, Note_on_c, 0, 60, 77
2, 8845, Note_on_c, 0, 60, 0
2, 8846, Note_on_c, 0, 62, 77
2, 8859, Note_on_c, 0, 62, 0
2, 8860, Note_on_c, 0, 60, 77
2, 8873, Note_on_c, 0, 60, 0
2, 8874, Note_on_c, 0, 62, 77
2, 8887, Note_on_c, 0, 62, 0
2, 8888, Note_on_c, 0, 60, 77
2, 8901, Note_on_c, 0, 60, 0
2, 8902, Note_on_c, 0, 59, 77
2, 8914, Note_on_c, 0, 59, 0
2, 8915, Note_on_c, 0, 60, 77
2, 8927, Note_on_c, 0, 60, 0
2, 8928, Note_on_c, 0, 70, 77
2, 8928, Note_on_c, 0, 67, 77
2, 8976, Note_on_c, 0, 70, 0
2, 8976, Note_on_c, 0, 67, 0
2, 8976, Note_on_c, 0, 69, 77
2, 8976, Note_on_c, 0, 65, 77
2, 9021, Note_on_c, 0, 69, 0
2, 9021, Note_on_c, 0, 65, 0
2, 9024, Note_on_c, 0, 67, 77
2, 9024, Note_on_c, 0, 64, 77
2, 9069, Note_on_c, 0, 67, 0
2, 9069, Note_on_c, 0, 64, 0
2, 9072, Note_on_c, 0, 72, 77
2, 9095, Note_on_c, 0, 72, 0
2, 9096, Note_on_c, 0, 74, 77
2, 9119, Note_on_c, 0, 74, 0
2, 9120, Note_on_c, 0, 76, 77
2, 9143, Note_on_c, 0, 76, 0
2, 9144, Note_on_c, 0, 77, 77
2, 9167, Note_on_c, 0, 77, 0
2, 9168, Note_on_c, 0, 79, 77
2, 9191, Note_on_c, 0, 79, 0
2, 9192, Note_on_c, 0, 81, 77
2, 9215, Note_on_c, 0, 81, 0
2, 9216, Note_on_c, 0, 82, 77
2, 9216, Note_on_c, 0, 79, 77
2, 9264, Note_on_c, 0, 82, 0
2, 9264, Note_on_c, 0, 79, 0
2, 9264, Note_on_c, 0, 81, 77
2, 9264, Note_on_c, 0, 77, 77
2, 9309, Note_on_c, 0, 81, 0
2, 9309, Note_on_c, 0, 77, 0
2, 9312, Note_on_c, 0, 79, 77
2, 9312, Note_on_c, 0, 76, 77
2, 9357, Note_on_c, 0, 79, 0
2, 9357, Note_on_c, 0, 76, 0
2, 9360, Note_on_c, 0, 76, 77
2, 9383, Note_on_c, 0, 76, 0
2, 9384, Note_on_c, 0, 77, 78
2, 9407, Note_on_c, 0, 77, 0
2, 9408, Note_on_c, 0, 79, 79
2, 9431, Note_on_c, 0, 79, 0
2, 9432, Note_on_c, 0, 81, 81
2, 9455, Note_on_c, 0, 81, 0
2, 9456, Note_on_c, 0, 82, 82
2, 9479, Note_on_c, 0, 82, 0
2, 9480, Note_on_c, 0, 84, 83
2, 9503, Note_on_c, 0, 84, 0
2, 9504, Note_on_c, 0, 86, 85
2, 9549, Note_on_c, 0, 86, 0
2, 9552, Note_on_c, 0, 82, 85
2, 9597, Note_on_c, 0, 82, 0
2, 9600, Note_on_c, 0, 79, 85
2, 9645, Note_on_c, 0, 79, 0
2, 9648, Note_on_c, 0, 88, 85
2, 9693, Note_on_c, 0, 88, 0
2, 9696, Note_on_c, 0, 89, 85
2, 9741, Note_on_c, 0, 89, 0
2, 9744, Note_on_c, 0, 77, 85
2, 9789, Note_on_c, 0, 77, 0
2, 9792, Note_on_c, 0, 84, 85
2, 9804, Note_on_c, 0, 84, 0
2, 9804, Note_on_c, 0, 82, 85
2, 9816, Note_on_c, 0, 82, 0
2, 9816, Note_on_c, 0, 81, 85
2, 9828, Note_on_c, 0, 81, 0
2, 9828, Note_on_c, 0, 82, 85
2, 9984, Note_on_c, 0, 82, 0
2, 9984, Note_on_c, 0, 81, 85
2, 10073, Note_on_c, 0, 81, 0
2, 10128, Note_on_c, 0, 66, 83
2, 10173, Note_on_c, 0, 66, 0
2, 10176, Note_on_c, 0, 67, 82
2, 10221, Note_on_c, 0, 67, 0
2, 10224, Note_on_c, 0, 74, 81
2, 10269, Note_on_c, 0, 74, 0
2, 10320, Note_on_c, 0, 64, 78
2, 10320, Note_on_c, 0, 58, 78
2, 10365, Note_on_c, 0, 64, 0
2, 10365, Note_on_c, 0, 58, 0
2, 10368, Note_on_c, 0, 65, 77
2, 10368, Note_on_c, 0, 57, 77
2, 10457, Note_on_c, 0, 65, 0
2, 10457, Note_on_c, 0, 57, 0
2, 10560, Note_on_c, 0, 72, 69
2, 10605, Note_on_c, 0, 72, 0
2, 10608, Note_on_c, 0, 68, 69
2, 10653, Note_on_c, 0, 68, 0
2, 10656, Note_on_c, 0, 65, 69
2, 10789, Note_on_c, 0, 65, 0
2, 10800, Note_on_c, 0, 64, 69
2, 10845, Note_on_c, 0, 64, 0
2, 10848, Note_on_c, 0, 70, 69
2, 10989, Note_on_c, 0, 70, 0
2, 10992, Note_on_c, 0, 68, 69
2, 11037, Note_on_c, 0, 68, 0
2, 11040, Note_on_c, 0, 77, 69
2, 11173, Note_on_c, 0, 77, 0
2, 11184, Note_on_c, 0, 65, 69
2, 11229, Note_on_c, 0, 65, 0
2, 11232, Note_on_c, 0, 73, 69
2, 11365, Note_on_c, 0, 73, 0
2, 11376, Note_on_c, 0, 60, 69
2, 11421, Note_on_c, 0, 60, 0
2, 11424, Note_on_c, 0, 72, 69
2, 11469, Note_on_c, 0, 72, 0
2, 11472, Note_on_c, 0, 70, 69
2, 11517, Note_on_c, 0, 70, 0
2, 11520, Note_on_c, 0, 68, 69
2, 11533, Note_on_c, 0, 68, 0
2, 11534, Note_on_c, 0, 70, 69
2, 11547, Note_on_c, 0, 70, 0
2, 11548, Note_on_c, 0, 68, 69
2, 11561, Note_on_c, 0, 68, 0
2, 11562, Note_on_c, 0, 70, 69
2, 11575, Note_on_c, 0, 70, 0
2, 11576, Note_on_c, 0, 68, 69
2, 11589, Note_on_c, 0, 68, 0
2, 11590, Note_on_c, 0, 67, 69
2, 11602, Note_on_c, 0, 67, 0
2, 11603, Note_on_c, 0, 68, 69
2, 11615, Note_on_c, 0, 68, 0
2, 11616, Note_on_c, 0, 67, 69
2, 11705, Note_on_c, 0, 67, 0
2, 11712, Note_on_c, 0, 72, 69
2, 11757, Note_on_c, 0, 72, 0
2, 11760, Note_on_c, 0, 68, 69
2, 11805, Note_on_c, 0, 68, 0
2, 11808, Note_on_c, 0, 65, 69
2, 11941, Note_on_c, 0, 65, 0
2, 11952, Note_on_c, 0, 64, 69
2, 11997, Note_on_c, 0, 64, 0
2, 12000, Note_on_c, 0, 70, 69
2, 12141, Note_on_c, 0, 70, 0
2, 12144, Note_on_c, 0, 68, 69
2, 12189, Note_on_c, 0, 68, 0
2, 12192, Note_on_c, 0, 73, 69
2, 12325, Note_on_c, 0, 73, 0
2, 12336, Note_on_c, 0, 70, 69
2, 12336, Note_on_c, 0, 67, 69
2, 12381, Note_on_c, 0, 70, 0
2, 12381, Note_on_c, 0, 67, 0
2, 12384, Note_on_c, 0, 72, 69
2, 12384, Note_on_c, 0, 68, 69
2, 12517, Note_on_c, 0, 72, 0
2, 12517, Note_on_c, 0, 68, 0
2, 12528, Note_on_c, 0, 73, 69
2, 12528, Note_on_c, 0, 70, 69
2, 12573, Note_on_c, 0, 73, 0
2, 12573, Note_on_c, 0, 70, 0
2, 12576, Note_on_c, 0, 72, 69
2, 12576, Note_on_c, 0, 68, 69
2, 12621, Note_on_c, 0, 72, 0
2, 12621, Note_on_c, 0, 68, 0
2, 12624, Note_on_c, 0, 70, 69
2, 12624, Note_on_c, 0, 67, 69
2, 12669, Note_on_c, 0, 70, 0
2, 12669, Note_on_c, 0, 67, 0
2, 12672, Note_on_c, 0, 70, 69
2, 12684, Note_on_c, 0, 70, 0
2, 12684, Note_on_c, 0, 68, 69
2, 12696, Note_on_c, 0, 68, 0
2, 12696, Note_on_c, 0, 67, 69
2, 12708, Note_on_c, 0, 67, 0
2, 12708, Note_on_c, 0, 68, 69
2, 12849, Note_on_c, 0, 68, 0
2, 12864, Note_on_c, 0, 72, 69
2, 12909, Note_on_c, 0, 72, 0
2, 12912, Note_on_c, 0, 68, 69
2, 12957, Note_on_c, 0, 68, 0
2, 12960, Note_on_c, 0, 65, 69
2, 13093, Note_on_c, 0, 65, 0
2, 13104, Note_on_c, 0, 64, 69
2, 13149, Note_on_c, 0, 64, 0
2, 13152, Note_on_c, 0, 70, 69
2, 13293, Note_on_c, 0, 70, 0
2, 13296, Note_on_c, 0, 68, 69
2, 13341, Note_on_c, 0, 68, 0
2, 13344, Note_on_c, 0, 77, 69
2, 13477, Note_on_c, 0, 77, 0
2, 13488, Note_on_c, 0, 65, 69
2, 13533, Note_on_c, 0, 65, 0
2, 13536, Note_on_c, 0, 73, 69
2, 13669, Note_on_c, 0, 73, 0
2, 13680, Note_on_c, 0, 60, 69
2, 13725, Note_on_c, 0, 60, 0
2, 13728, Note_on_c, 0, 72, 69
2, 13773, Note_on_c, 0, 72, 0
2, 13776, Note_on_c, 0, 70, 69
2, 13821, Note_on_c, 0, 70, 0
2, 13824, Note_on_c, 0, 68, 69
2, 13837, Note_on_c, 0, 68, 0
2, 13838, Note_on_c, 0, 70, 69
2, 13851, Note_on_c, 0, 70, 0
2, 13852, Note_on_c, 0, 68, 69
2, 13865, Note_on_c, 0, 68, 0
2, 13866, Note_on_c, 0, 70, 69
2, 13879, Note_on_c, 0, 70, 0
2, 13880, Note_on_c, 0, 68, 69
2, 13893, Note_on_c, 0, 68, 0
2, 13894, Note_on_c, 0, 67, 69
2, 13906, Note_on_c, 0, 67, 0
2, 13907, Note_on_c, 0, 68, 69
2, 13919, Note_on_c, 0, 68, 0
2, 13920, Note_on_c, 0, 67, 69
2, 14009, Note_on_c, 0, 67, 0
2, 14016, Note_on_c, 0, 72, 69
2, 14061, Note_on_c, 0, 72, 0
2, 14064, Note_on_c, 0, 68, 69
2, 14109, Note_on_c, 0, 68, 0
2, 14112, Note_on_c, 0, 65, 69
2, 14245, Note_on_c, 0, 65, 0
2, 14256, Note_on_c, 0, 64, 69
2, 14301, Note_on_c, 0, 64, 0
2, 14304, Note_on_c, 0, 70, 69
2, 14445, Note_on_c, 0, 70, 0
2, 14448, Note_on_c, 0, 68, 69
2, 14493, Note_on_c, 0, 68, 0
2, 14496, Note_on_c, 0, 73, 69
2, 14629, Note_on_c, 0, 73, 0
2, 14640, Note_on_c, 0, 70, 69
2, 14640, Note_on_c, 0, 67, 69
2, 14685, Note_on_c, 0, 70, 0
2, 14685, Note_on_c, 0, 67, 0
2, 14688, Note_on_c, 0, 72, 69
2, 14688, Note_on_c, 0, 68, 69
2, 14821, Note_on_c, 0, 72, 0
2, 14821, Note_on_c, 0, 68, 0
2, 14832, Note_on_c, 0, 73, 69
2, 14832, Note_on_c, 0, 70, 69
2, 14877, Note_on_c, 0, 73, 0
2, 14877, Note_on_c, 0, 70, 0
2, 14880, Note_on_c, 0, 72, 69
2, 14880, Note_on_c, 0, 68, 69
2, 14925, Note_on_c, 0, 72, 0
2, 14925, Note_on_c, 0, 68, 0
2, 14928, Note_on_c, 0, 70, 69
2, 14928, Note_on_c, 0, 67, 69
2, 14973, Note_on_c, 0, 70, 0
2, 14973, Note_on_c, 0, 67, 0
2, 14976, Note_on_c, 0, 70, 69
2, 14988, Note_on_c, 0, 70, 0
2, 14988, Note_on_c, 0, 68, 69
2, 15000, Note_on_c, 0, 68, 0
2, 15000, Note_on_c, 0, 67, 69
2, 15012, Note_on_c, 0, 67, 0
2, 15012, Note_on_c, 0, 68, 69
2, 15153, Note_on_c, 0, 68, 0
2, 15312, Note_on_c, 0, 70, 69
2, 15312, Note_on_c, 0, 61, 69
2, 15357, Note_on_c, 0, 70, 0
2, 15357, Note_on_c, 0, 61, 0
2, 15360, Note_on_c, 0, 69, 69
2, 15360, Note_on_c, 0, 60, 69
2, 15493, Note_on_c, 0, 69, 0
2, 15493, Note_on_c, 0, 60, 0
2, 15504, Note_on_c, 0, 70, 69
2, 15504, Note_on_c, 0, 61, 69
2, 15549, Note_on_c, 0, 70, 0
2, 15549, Note_on_c, 0, 61, 0
2, 15552, Note_on_c, 0, 72, 69
2, 15552, Note_on_c, 0, 63, 69
2, 15685, Note_on_c, 0, 72, 0
2, 15685, Note_on_c, 0, 63, 0
2, 15696, Note_on_c, 0, 66, 69
2, 15696, Note_on_c, 0, 63, 69
2, 15741, Note_on_c, 0, 66, 0
2, 15741, Note_on_c, 0, 63, 0
2, 15744, Note_on_c, 0, 65, 69
2, 15744, Note_on_c, 0, 61, 69
2, 15789, Note_on_c, 0, 65, 0
2, 15789, Note_on_c, 0, 61, 0
2, 15792, Note_on_c, 0, 63, 69
2, 15792, Note_on_c, 0, 60, 69
2, 15837, Note_on_c, 0, 63, 0
2, 15837, Note_on_c, 0, 60, 0
2, 15840, Note_on_c, 0, 61, 69
2, 15885, Note_on_c, 0, 61, 0
2, 15888, Note_on_c, 0, 65, 69
2, 15933, Note_on_c, 0, 65, 0
2, 15936, Note_on_c, 0, 70, 69
2, 16069, Note_on_c, 0, 70, 0
2, 16080, Note_on_c, 0, 67, 69
2, 16125, Note_on_c, 0, 67, 0
2, 16128, Note_on_c, 0, 76, 69
2, 16173, Note_on_c, 0, 76, 0
2, 16176, Note_on_c, 0, 72, 69
2, 16221, Note_on_c, 0, 72, 0
2, 16224, Note_on_c, 0, 80, 69
2, 16269, Note_on_c, 0, 80, 0
2, 16272, Note_on_c, 0, 77, 69
2, 16317, Note_on_c, 0, 77, 0
2, 16320, Note_on_c, 0, 84, 69
2, 16365, Note_on_c, 0, 84, 0
2, 16368, Note_on_c, 0, 79, 69
2, 16413, Note_on_c, 0, 79, 0
2, 16416, Note_on_c, 0, 80, 69
2, 16428, Note_on_c, 0, 80, 0
2, 16428, Note_on_c, 0, 79, 69
2, 16440, Note_on_c, 0, 79, 0
2, 16440, Note_on_c, 0, 80, 69
2, 16461, Note_on_c, 0, 80, 0
2, 16464, Note_on_c, 0, 76, 69
2, 16509, Note_on_c, 0, 76, 0
2, 16512, Note_on_c, 0, 77, 69
2, 16557, Note_on_c, 0, 77, 0
2, 16560, Note_on_c, 0, 73, 69
2, 16605, Note_on_c, 0, 73, 0
2, 16608, Note_on_c, 0, 72, 69
2, 16653, Note_on_c, 0, 72, 0
2, 16656, Note_on_c, 0, 71, 69
2, 16701, Note_on_c, 0, 71, 0
2, 16704, Note_on_c, 0, 71, 69
2, 16793, Note_on_c, 0, 71, 0
2, 16800, Note_on_c, 0, 72, 69
2, 16889, Note_on_c, 0, 72, 0
2, 16896, Note_on_c, 0, 72, 69
2, 16941, Note_on_c, 0, 72, 0
2, 16944, Note_on_c, 0, 68, 69
2, 16989, Note_on_c, 0, 68, 0
2, 16992, Note_on_c, 0, 65, 69
2, 17125, Note_on_c, 0, 65, 0
2, 17136, Note_on_c, 0, 64, 69
2, 17181, Note_on_c, 0, 64, 0
2, 17184, Note_on_c, 0, 70, 69
2, 17325, Note_on_c, 0, 70, 0
2, 17328, Note_on_c, 0, 68, 69
2, 17373, Note_on_c, 0, 68, 0
2, 17376, Note_on_c, 0, 77, 69
2, 17509, Note_on_c, 0, 77, 0
2, 17520, Note_on_c, 0, 65, 69
2, 17565, Note_on_c, 0, 65, 0
2, 17568, Note_on_c, 0, 73, 69
2, 17701, Note_on_c, 0, 73, 0
2, 17712, Note_on_c, 0, 60, 69
2, 17757, Note_on_c, 0, 60, 0
2, 17760, Note_on_c, 0, 72, 69
2, 17805, Note_on_c, 0, 72, 0
2, 17808, Note_on_c, 0, 70, 69
2, 17853, Note_on_c, 0, 70, 0
2, 17856, Note_on_c, 0, 68, 69
2, 17869, Note_on_c, 0, 68, 0
2, 17870, Note_on_c, 0, 70, 69
2, 17883, Note_on_c, 0, 70, 0
2, 17884, Note_on_c, 0, 68, 69
2, 17897, Note_on_c, 0, 68, 0
2, 17898, Note_on_c, 0, 70, 69
2, 17911, Note_on_c, 0, 70, 0
2, 17912, Note_on_c, 0, 68, 69
2, 17925, Note_on_c, 0, 68, 0
2, 17926, Note_on_c, 0, 67, 69
2, 17938, Note_on_c, 0, 67, 0
2, 17939, Note_on_c, 0, 68, 69
2, 17951, Note_on_c, 0, 68, 0
2, 17952, Note_on_c, 0, 67, 69
2, 18041, Note_on_c, 0, 67, 0
2, 18048, Note_on_c, 0, 72, 69
2, 18093, Note_on_c, 0, 72, 0
2, 18096, Note_on_c, 0, 68, 69
2, 18141, Note_on_c, 0, 68, 0
2, 18144, Note_on_c, 0, 65, 69
2, 18277, Note_on_c, 0, 65, 0
2, 18288, Note_on_c, 0, 64, 69
2, 18333, Note_on_c, 0, 64, 0
2, 18336, Note_on_c, 0, 70, 69
2, 18477, Note_on_c, 0, 70, 0
2, 18480, Note_on_c, 0, 68, 69
2, 18525, Note_on_c, 0, 68, 0
2, 18528, Note_on_c, 0, 77, 69
2, 18661, Note_on_c, 0, 77, 0
2, 18672, Note_on_c, 0, 76, 69
2, 18717, Note_on_c, 0, 76, 0
2, 18720, Note_on_c, 0, 82, 69
2, 18853, Note_on_c, 0, 82, 0
2, 18864, Note_on_c, 0, 70, 69
2, 18909, Note_on_c, 0, 70, 0
2, 18912, Note_on_c, 0, 79, 69
2, 19053, Note_on_c, 0, 79, 0
2, 19056, Note_on_c, 0, 76, 69
2, 19101, Note_on_c, 0, 76, 0
2, 19104, Note_on_c, 0, 85, 69
2, 19104, Note_on_c, 0, 76, 69
2, 19535, Note_on_c, 0, 85, 0
2, 19535, Note_on_c, 0, 76, 0
2, 19536, Note_on_c, 0, 72, 61
2, 19584, Note_on_c, 0, 72, 0
2, 19584, Note_on_c, 0, 80, 61
2, 19604, Note_on_c, 0, 80, 0
2, 19728, Note_on_c, 0, 72, 69
2, 19773, Note_on_c, 0, 72, 0
2, 19776, Note_on_c, 0, 80, 69
2, 19821, Note_on_c, 0, 80, 0
2, 19824, Note_on_c, 0, 72, 69
2, 19872, Note_on_c, 0, 72, 0
2, 19872, Note_on_c, 0, 80, 69
2, 19892, Note_on_c, 0, 80, 0
2, 20016, Note_on_c, 0, 72, 77
2, 20061, Note_on_c, 0, 72, 0
2, 20064, Note_on_c, 0, 80, 77
2, 20109, Note_on_c, 0, 80, 0
2, 20112, Note_on_c, 0, 72, 77
2, 20160, Note_on_c, 0, 72, 0
2, 20160, Note_on_c, 0, 80, 77
2, 20180, Note_on_c, 0, 80, 0
2, 20304, Note_on_c, 0, 80, 85
2, 20304, Note_on_c, 0, 77, 85
2, 20324, Note_on_c, 0, 80, 0
2, 20324, Note_on_c, 0, 77, 0
2, 20352, Note_on_c, 0, 84, 85
2, 20352, Note_on_c, 0, 80, 85
2, 20372, Note_on_c, 0, 84, 0
2, 20372, Note_on_c, 0, 80, 0
2, 20400, Note_on_c, 0, 80, 85
2, 20400, Note_on_c, 0, 77, 85
2, 20420, Note_on_c, 0, 80, 0
2, 20420, Note_on_c, 0, 77, 0
2, 20448, Note_on_c, 0, 84, 85
2, 20448, Note_on_c, 0, 80, 85
2, 20537, Note_on_c, 0, 84, 0
2, 20537, Note_on_c, 0, 80, 0
2, 20592, Note_on_c, 0, 68, 77
2, 20592, Note_on_c, 0, 65, 77
2, 20612, Note_on_c, 0, 68, 0
2, 20612, Note_on_c, 0, 65, 0
2, 20640, Note_on_c, 0, 70, 77
2, 20640, Note_on_c, 0, 67, 77
2, 20660, Note_on_c, 0, 70, 0
2, 20660, Note_on_c, 0, 67, 0
2, 20688, Note_on_c, 0, 67, 77
2, 20688, Note_on_c, 0, 64, 77
2, 20708, Note_on_c, 0, 67, 0
2, 20708, Note_on_c, 0, 64, 0
2, 20736, Note_on_c, 0, 65, 77
2, 20825, Note_on_c, 0, 65, 0
2, 21072, Note_on_c, 0, 70, 69
2, 21072, Note_on_c, 0, 61, 69
2, 21117, Note_on_c, 0, 70, 0
2, 21117, Note_on_c, 0, 61, 0
2, 21120, Note_on_c, 0, 69, 69
2, 21120, Note_on_c, 0, 60, 69
2, 21253, Note_on_c, 0, 69, 0
2, 21253, Note_on_c, 0, 60, 0
2, 21264, Note_on_c, 0, 70, 69
2, 21264, Note_on_c, 0, 61, 69
2, 21309, Note_on_c, 0, 70, 0
2, 21309, Note_on_c, 0, 61, 0
2, 21312, Note_on_c, 0, 72, 69
2, 21312, Note_on_c, 0, 63, 69
2, 21445, Note_on_c, 0, 72, 0
2, 21445, Note_on_c, 0, 63, 0
2, 21456, Note_on_c, 0, 66, 69
2, 21456, Note_on_c, 0, 63, 69
2, 21501, Note_on_c, 0, 66, 0
2, 21501, Note_on_c, 0, 63, 0
2, 21504, Note_on_c, 0, 65, 69
2, 21504, Note_on_c, 0, 61, 69
2, 21549, Note_on_c, 0, 65, 0
2, 21549, Note_on_c, 0, 61, 0
2, 21552, Note_on_c, 0, 63, 69
2, 21552, Note_on_c, 0, 60, 69
2, 21597, Note_on_c, 0, 63, 0
2, 21597, Note_on_c, 0, 60, 0
2, 21600, Note_on_c, 0, 61, 69
2, 21645, Note_on_c, 0, 61, 0
2, 21648, Note_on_c, 0, 65, 69
2, 21693, Note_on_c, 0, 65, 0
2, 21696, Note_on_c, 0, 70, 69
2, 21829, Note_on_c, 0, 70, 0
2, 21840, Note_on_c, 0, 67, 69
2, 21885, Note_on_c, 0, 67, 0
2, 21888, Note_on_c, 0, 76, 69
2, 21933, Note_on_c, 0, 76, 0
2, 21936, Note_on_c, 0, 72, 69
2, 21981, Note_on_c, 0, 72, 0
2, 21984, Note_on_c, 0, 80, 69
2, 22029, Note_on_c, 0, 80, 0
2, 22032, Note_on_c, 0, 77, 69
2, 22077, Note_on_c, 0, 77, 0
2, 22080, Note_on_c, 0, 84, 69
2, 22125, Note_on_c, 0, 84, 0
2, 22128, Note_on_c, 0, 79, 69
2, 22173, Note_on_c, 0, 79, 0
2, 22176, Note_on_c, 0, 80, 69
2, 22188, Note_on_c, 0, 80, 0
2, 22188, Note_on_c, 0, 79, 69
2, 22200, Note_on_c, 0, 79, 0
2, 22200, Note_on_c, 0, 80, 69
2, 22221, Note_on_c, 0, 80, 0
2, 22224, Note_on_c, 0, 76, 69
2, 22269, Note_on_c, 0, 76, 0
2, 22272, Note_on_c, 0, 77, 69
2, 22317, Note_on_c, 0, 77, 0
2, 22320, Note_on_c, 0, 73, 69
2, 22365, Note_on_c, 0, 73, 0
2, 22368, Note_on_c, 0, 72, 69
2, 22413, Note_on_c, 0, 72, 0
2, 22416, Note_on_c, 0, 71, 69
2, 22461, Note_on_c, 0, 71, 0
2, 22464, Note_on_c, 0, 71, 69
2, 22553, Note_on_c, 0, 71, 0
2, 22560, Note_on_c, 0, 72, 69
2, 22649, Note_on_c, 0, 72, 0
2, 22656, Note_on_c, 0, 72, 69
2, 22701, Note_on_c, 0, 72, 0
2, 22704, Note_on_c, 0, 68, 69
2, 22749, Note_on_c, 0, 68, 0
2, 22752, Note_on_c, 0, 65, 69
2, 22885, Note_on_c, 0, 65, 0
2, 22896, Note_on_c, 0, 64, 69
2, 22941, Note_on_c, 0, 64, 0
2, 22944, Note_on_c, 0, 70, 69
2, 23085, Note_on_c, 0, 70, 0
2, 23088, Note_on_c, 0, 68, 69
2, 23133, Note_on_c, 0, 68, 0
2, 23136, Note_on_c, 0, 77, 69
2, 23269, Note_on_c, 0, 77, 0
2, 23280, Note_on_c, 0, 65, 69
2, 23325, Note_on_c, 0, 65, 0
2, 23328, Note_on_c, 0, 73, 69
2, 23461, Note_on_c, 0, 73, 0
2, 23472, Note_on_c, 0, 60, 69
2, 23517, Note_on_c, 0, 60, 0
2, 23520, Note_on_c, 0, 72, 69
2, 23565, Note_on_c, 0, 72, 0
2, 23568, Note_on_c, 0, 70, 69
2, 23613, Note_on_c, 0, 70, 0
2, 23616, Note_on_c, 0, 68, 69
2, 23629, Note_on_c, 0, 68, 0
2, 23630, Note_on_c, 0, 70, 69
2, 23643, Note_on_c, 0, 70, 0
2, 23644, Note_on_c, 0, 68, 69
2, 23657, Note_on_c, 0, 68, 0
2, 23658, Note_on_c, 0, 70, 69
2, 23671, Note_on_c, 0, 70, 0
2, 23672, Note_on_c, 0, 68, 69
2, 23685, Note_on_c, 0, 68, 0
2, 23686, Note_on_c, 0, 67, 69
2, 23698, Note_on_c, 0, 67, 0
2, 23699, Note_on_c, 0, 68, 69
2, 23711, Note_on_c, 0, 68, 0
2, 23712, Note_on_c, 0, 67, 69
2, 23801, Note_on_c, 0, 67, 0
2, 23808, Note_on_c, 0, 72, 69
2, 23853, Note_on_c, 0, 72, 0
2, 23856, Note_on_c, 0, 68, 69
2, 23901, Note_on_c, 0, 68, 0
2, 23904, Note_on_c, 0, 65, 69
2, 24037, Note_on_c, 0, 65, 0
2, 24048, Note_on_c, 0, 64, 69
2, 24093, Note_on_c, 0, 64, 0
2, 24096, Note_on_c, 0, 70, 69
2, 24237, Note_on_c, 0, 70, 0
2, 24240, Note_on_c, 0, 68, 69
2, 24285, Note_on_c, 0, 68, 0
2, 24288, Note_on_c, 0, 77, 69
2, 24421, Note_on_c, 0, 77, 0
2, 24432, Note_on_c, 0, 76, 69
2, 24477, Note_on_c, 0, 76, 0
2, 24480, Note_on_c, 0, 82, 69
2, 24613, Note_on_c, 0, 82, 0
2, 24624, Note_on_c, 0, 70, 69
2, 24669, Note_on_c, 0, 70, 0
2, 24672, Note_on_c, 0, 79, 69
2, 24813, Note_on_c, 0, 79, 0
2, 24816, Note_on_c, 0, 76, 69
2, 24861, Note_on_c, 0, 76, 0
2, 24864, Note_on_c, 0, 85, 69
2, 24864, Note_on_c, 0, 76, 69
2, 25295, Note_on_c, 0, 85, 0
2, 25295, Note_on_c, 0, 76, 0
2, 25296, Note_on_c, 0, 72, 61
2, 25344, Note_on_c, 0, 72, 0
2, 25344, Note_on_c, 0, 80, 61
2, 25364, Note_on_c, 0, 80, 0
2, 25488, Note_on_c, 0, 72, 69
2, 25533, Note_on_c, 0, 72, 0
2, 25536, Note_on_c, 0, 80, 69
2, 25581, Note_on_c, 0, 80, 0
2, 25584, Note_on_c, 0, 72, 69
2, 25632, Note_on_c, 0, 72, 0
2, 25632, Note_on_c, 0, 80, 69
2, 25652, Note_on_c, 0, 80, 0
2, 25776, Note_on_c, 0, 72, 77
2, 25821, Note_on_c, 0, 72, 0
2, 25824, Note_on_c, 0, 80, 77
2, 25869, Note_on_c, 0, 80, 0
2, 25872, Note_on_c, 0, 72, 77
2, 25920, Note_on_c, 0, 72, 0
2, 25920, Note_on_c, 0, 80, 77
2, 25940, Note_on_c, 0, 80, 0
2, 26064, Note_on_c, 0, 80, 85
2, 26064, Note_on_c, 0, 77, 85
2, 26084, Note_on_c, 0, 80, 0
2, 26084, Note_on_c, 0, 77, 0
2, 26112, Note_on_c, 0, 84, 85
2, 26112, Note_on_c, 0, 80, 85
2, 26132, Note_on_c, 0, 84, 0
2, 26132, Note_on_c, 0, 80, 0
2, 26160, Note_on_c, 0, 80, 85
2, 26160, Note_on_c, 0, 77, 85
2, 26180, Note_on_c, 0, 80, 0
2, 26180, Note_on_c, 0, 77, 0
2, 26208, Note_on_c, 0, 84, 85
2, 26208, Note_on_c, 0, 80, 85
2, 26297, Note_on_c, 0, 84, 0
2, 26297, Note_on_c, 0, 80, 0
2, 26352, Note_on_c, 0, 68, 77
2, 26352, Note_on_c, 0, 65, 77
2, 26372, Note_on_c, 0, 68, 0
2, 26372, Note_on_c, 0, 65, 0
2, 26400, Note_on_c, 0, 70, 77
2, 26400, Note_on_c, 0, 67, 77
2, 26420, Note_on_c, 0, 70, 0
2, 26420, Note_on_c, 0, 67, 0
2, 26448, Note_on_c, 0, 67, 77
2, 26448, Note_on_c, 0, 64, 77
2, 26468, Note_on_c, 0, 67, 0
2, 26468, Note_on_c, 0, 64, 0
2, 26496, Note_on_c, 0, 65, 77
2, 26585, Note_on_c, 0, 65, 0
2, 26664, Note_on_c, 0, 72, 77
2, 26687, Note_on_c, 0, 72, 0
2, 26688, Note_on_c, 0, 72, 77
2, 26701, Note_on_c, 0, 72, 0
2, 26702, Note_on_c, 0, 74, 77
2, 26715, Note_on_c, 0, 74, 0
2, 26716, Note_on_c, 0, 72, 77
2, 26729, Note_on_c, 0, 72, 0
2, 26730, Note_on_c, 0, 74, 77
2, 26743, Note_on_c, 0, 74, 0
2, 26744, Note_on_c, 0, 72, 77
2, 26757, Note_on_c, 0, 72, 0
2, 26758, Note_on_c, 0, 70, 77
2, 26770, Note_on_c, 0, 70, 0
2, 26771, Note_on_c, 0, 72, 77
2, 26783, Note_on_c, 0, 72, 0
2, 26784, Note_on_c, 0, 77, 77
2, 26814, Note_on_c, 0, 77, 0
2, 26816, Note_on_c, 0, 81, 77
2, 26846, Note_on_c, 0, 81, 0
2, 26848, Note_on_c, 0, 79, 77
2, 26878, Note_on_c, 0, 79, 0
2, 26880, Note_on_c, 0, 77, 77
2, 26910, Note_on_c, 0, 77, 0
2, 26912, Note_on_c, 0, 76, 77
2, 26942, Note_on_c, 0, 76, 0
2, 26944, Note_on_c, 0, 74, 77
2, 26974, Note_on_c, 0, 74, 0
2, 26976, Note_on_c, 0, 72, 77
2, 27006, Note_on_c, 0, 72, 0
2, 27008, Note_on_c, 0, 70, 77
2, 27038, Note_on_c, 0, 70, 0
2, 27040, Note_on_c, 0, 69, 77
2, 27070, Note_on_c, 0, 69, 0
2, 27072, Note_on_c, 0, 67, 77
2, 27085, Note_on_c, 0, 67, 0
2, 27086, Note_on_c, 0, 69, 77
2, 27099, Note_on_c, 0, 69, 0
2, 27100, Note_on_c, 0, 67, 77
2, 27113, Note_on_c, 0, 67, 0
2, 27114, Note_on_c, 0, 69, 77
2, 27127, Note_on_c, 0, 69, 0
2, 27128, Note_on_c, 0, 67, 77
2, 27141, Note_on_c, 0, 67, 0
2, 27142, Note_on_c, 0, 65, 77
2, 27154, Note_on_c, 0, 65, 0
2, 27155, Note_on_c, 0, 67, 77
2, 27167, Note_on_c, 0, 67, 0
2, 27168, Note_on_c, 0, 65, 77
2, 27213, Note_on_c, 0, 65, 0
2, 27240, Note_on_c, 0, 72, 77
2, 27263, Note_on_c, 0, 72, 0
2, 27264, Note_on_c, 0, 72, 77
2, 27277, Note_on_c, 0, 72, 0
2, 27278, Note_on_c, 0, 74, 77
2, 27291, Note_on_c, 0, 74, 0
2, 27292, Note_on_c, 0, 72, 77
2, 27305, Note_on_c, 0, 72, 0
2, 27306, Note_on_c, 0, 74, 77
2, 27319, Note_on_c, 0, 74, 0
2, 27320, Note_on_c, 0, 72, 77
2, 27333, Note_on_c, 0, 72, 0
2, 27334, Note_on_c, 0, 71, 77
2, 27346, Note_on_c, 0, 71, 0
2, 27347, Note_on_c, 0, 72, 77
2, 27359, Note_on_c, 0, 72, 0
2, 27360, Note_on_c, 0, 77, 77
2, 27390, Note_on_c, 0, 77, 0
2, 27392, Note_on_c, 0, 84, 77
2, 27422, Note_on_c, 0, 84, 0
2, 27424, Note_on_c, 0, 82, 77
2, 27454, Note_on_c, 0, 82, 0
2, 27456, Note_on_c, 0, 81, 77
2, 27486, Note_on_c, 0, 81, 0
2, 27488, Note_on_c, 0, 79, 77
2, 27518, Note_on_c, 0, 79, 0
2, 27520, Note_on_c, 0, 77, 77
2, 27550, Note_on_c, 0, 77, 0
2, 27552, Note_on_c, 0, 76, 77
2, 27582, Note_on_c, 0, 76, 0
2, 27584, Note_on_c, 0, 74, 77
2, 27614, Note_on_c, 0, 74, 0
2, 27616, Note_on_c, 0, 72, 77
2, 27646, Note_on_c, 0, 72, 0
2, 27648, Note_on_c, 0, 70, 77
2, 27661, Note_on_c, 0, 70, 0
2, 27662, Note_on_c, 0, 72, 77
2, 27675, Note_on_c, 0, 72, 0
2, 27676, Note_on_c, 0, 70, 77
2, 27689, Note_on_c, 0, 70, 0
2, 27690, Note_on_c, 0, 72, 77
2, 27703, Note_on_c, 0, 72, 0
2, 27704, Note_on_c, 0, 70, 77
2, 27717, Note_on_c, 0, 70, 0
2, 27718, Note_on_c, 0, 69, 77
2, 27730, Note_on_c, 0, 69, 0
2, 27731, Note_on_c, 0, 70, 77
2, 27743, Note_on_c, 0, 70, 0
2, 27744, Note_on_c, 0, 69, 77
2, 27789, Note_on_c, 0, 69, 0
2, 27816, Note_on_c, 0, 72, 77
2, 27839, Note_on_c, 0, 72, 0
2, 27840, Note_on_c, 0, 72, 77
2, 27853, Note_on_c, 0, 72, 0
2, 27854, Note_on_c, 0, 74, 77
2, 27867, Note_on_c, 0, 74, 0
2, 27868, Note_on_c, 0, 72, 77
2, 27881, Note_on_c, 0, 72, 0
2, 27882, Note_on_c, 0, 74, 77
2, 27895, Note_on_c, 0, 74, 0
2, 27896, Note_on_c, 0, 72, 77
2, 27909, Note_on_c, 0, 72, 0
2, 27910, Note_on_c, 0, 71, 77
2, 27922, Note_on_c, 0, 71, 0
2, 27923, Note_on_c, 0, 72, 77
2, 27935, Note_on_c, 0, 72, 0
2, 27936, Note_on_c, 0, 84, 77
2, 28077, Note_on_c, 0, 84, 0
2, 28080, Note_on_c, 0, 82, 77
2, 28169, Note_on_c, 0, 82, 0
2, 28176, Note_on_c, 0, 81, 77
2, 28254, Note_on_c, 0, 81, 0
2, 28256, Note_on_c, 0, 78, 77
2, 28286, Note_on_c, 0, 78, 0
2, 28288, Note_on_c, 0, 79, 77
2, 28318, Note_on_c, 0, 79, 0
2, 28320, Note_on_c, 0, 86, 77
2, 28350, Note_on_c, 0, 86, 0
2, 28352, Note_on_c, 0, 82, 77
2, 28382, Note_on_c, 0, 82, 0
2, 28384, Note_on_c, 0, 79, 77
2, 28414, Note_on_c, 0, 79, 0
2, 28416, Note_on_c, 0, 79, 77
2, 28446, Note_on_c, 0, 79, 0
2, 28448, Note_on_c, 0, 76, 77
2, 28478, Note_on_c, 0, 76, 0
2, 28480, Note_on_c, 0, 77, 77
2, 28510, Note_on_c, 0, 77, 0
2, 28512, Note_on_c, 0, 70, 77
2, 28689, Note_on_c, 0, 70, 0
2, 28704, Note_on_c, 0, 69, 77
2, 28793, Note_on_c, 0, 69, 0
2, 28800, Note_on_c, 0, 69, 77
2, 28813, Note_on_c, 0, 69, 0
2, 28814, Note_on_c, 0, 70, 77
2, 28827, Note_on_c, 0, 70, 0
2, 28828, Note_on_c, 0, 69, 77
2, 28841, Note_on_c, 0, 69, 0
2, 28842, Note_on_c, 0, 70, 77
2, 28855, Note_on_c, 0, 70, 0
2, 28856, Note_on_c, 0, 69, 77
2, 28869, Note_on_c, 0, 69, 0
2, 28870, Note_on_c, 0, 67, 77
2, 28882, Note_on_c, 0, 67, 0
2, 28883, Note_on_c, 0, 69, 77
2, 28895, Note_on_c, 0, 69, 0
2, 28896, Note_on_c, 0, 67, 77
2, 28941, Note_on_c, 0, 67, 0
2, 28968, Note_on_c, 0, 72, 77
2, 28991, Note_on_c, 0, 72, 0
2, 28992, Note_on_c, 0, 72, 77
2, 29005, Note_on_c, 0, 72, 0
2, 29006, Note_on_c, 0, 74, 77
2, 29019, Note_on_c, 0, 74, 0
2, 29020, Note_on_c, 0, 72, 77
2, 29033, Note_on_c, 0, 72, 0
2, 29034, Note_on_c, 0, 74, 77
2, 29047, Note_on_c, 0, 74, 0
2, 29048, Note_on_c, 0, 72, 77
2, 29061, Note_on_c, 0, 72, 0
2, 29062, Note_on_c, 0, 70, 77
2, 29074, Note_on_c, 0, 70, 0
2, 29075, Note_on_c, 0, 72, 77
2, 29087, Note_on_c, 0, 72, 0
2, 29088, Note_on_c, 0, 77, 77
2, 29118, Note_on_c, 0, 77, 0
2, 29120, Note_on_c, 0, 81, 77
2, 29150, Note_on_c, 0, 81, 0
2, 29152, Note_on_c, 0, 79, 77
2, 29182, Note_on_c, 0, 79, 0
2, 29184, Note_on_c, 0, 77, 77
2, 29214, Note_on_c, 0, 77, 0
2, 29216, Note_on_c, 0, 76, 77
2, 29246, Note_on_c, 0, 76, 0
2, 29248, Note_on_c, 0, 74, 77
2, 29278, Note_on_c, 0, 74, 0
2, 29280, Note_on_c, 0, 72, 77
2, 29310, Note_on_c, 0, 72, 0
2, 29312, Note_on_c, 0, 70, 77
2, 29342, Note_on_c, 0, 70, 0
2, 29344, Note_on_c, 0, 69, 77
2, 29374, Note_on_c, 0, 69, 0
2, 29376, Note_on_c, 0, 67, 77
2, 29389, Note_on_c, 0, 67, 0
2, 29390, Note_on_c, 0, 69, 77
2, 29403, Note_on_c, 0, 69, 0
2, 29404, Note_on_c, 0, 67, 77
2, 29417, Note_on_c, 0, 67, 0
2, 29418, Note_on_c, 0, 69, 77
2, 29431, Note_on_c, 0, 69, 0
2, 29432, Note_on_c, 0, 67, 77
2, 29445, Note_on_c, 0, 67, 0
2, 29446, Note_on_c, 0, 65, 77
2, 29458, Note_on_c, 0, 65, 0
2, 29459, Note_on_c, 0, 67, 77
2, 29471, Note_on_c, 0, 67, 0
2, 29472, Note_on_c, 0, 65, 77
2, 29517, Note_on_c, 0, 65, 0
2, 29544, Note_on_c, 0, 72, 77
2, 29567, Note_on_c, 0, 72, 0
2, 29568, Note_on_c, 0, 72, 77
2, 29581, Note_on_c, 0, 72, 0
2, 29582, Note_on_c, 0, 74, 77
2, 29595, Note_on_c, 0, 74, 0
2, 29596, Note_on_c, 0, 72, 77
2, 29609, Note_on_c, 0, 72, 0
2, 29610, Note_on_c, 0, 74, 77
2, 29623, Note_on_c, 0, 74, 0
2, 29624, Note_on_c, 0, 72, 77
2, 29637, Note_on_c, 0, 72, 0
2, 29638, Note_on_c, 0, 71, 77
2, 29650, Note_on_c, 0, 71, 0
2, 29651, Note_on_c, 0, 72, 77
2, 29663, Note_on_c, 0, 72, 0
2, 29664, Note_on_c, 0, 77, 77
2, 29694, Note_on_c, 0, 77, 0
2, 29696, Note_on_c, 0, 84, 77
2, 29726, Note_on_c, 0, 84, 0
2, 29728, Note_on_c, 0, 82, 77
2, 29758, Note_on_c, 0, 82, 0
2, 29760, Note_on_c, 0, 81, 77
2, 29790, Note_on_c, 0, 81, 0
2, 29792, Note_on_c, 0, 79, 77
2, 29822, Note_on_c, 0, 79, 0
2, 29824, Note_on_c, 0, 77, 77
2, 29854, Note_on_c, 0, 77, 0
2, 29856, Note_on_c, 0, 76, 77
2, 29886, Note_on_c, 0, 76, 0
2, 29888, Note_on_c, 0, 74, 77
2, 29918, Note_on_c, 0, 74, 0
2, 29920, Note_on_c, 0, 72, 77
2, 29950, Note_on_c, 0, 72, 0
2, 29952, Note_on_c, 0, 70, 77
2, 29965, Note_on_c, 0, 70, 0
2, 29966, Note_on_c, 0, 72, 77
2, 29979, Note_on_c, 0, 72, 0
2, 29980, Note_on_c, 0, 70, 77
2, 29993, Note_on_c, 0, 70, 0
2, 29994, Note_on_c, 0, 72, 77
2, 30007, Note_on_c, 0, 72, 0
2, 30008, Note_on_c, 0, 70, 77
2, 30021, Note_on_c, 0, 70, 0
2, 30022, Note_on_c, 0, 69, 77
2, 30034, Note_on_c, 0, 69, 0
2, 30035, Note_on_c, 0, 70, 77
2, 30047, Note_on_c, 0, 70, 0
2, 30048, Note_on_c, 0, 69, 77
2, 30093, Note_on_c, 0, 69, 0
2, 30120, Note_on_c, 0, 72, 77
2, 30143, Note_on_c, 0, 72, 0
2, 30144, Note_on_c, 0, 72, 77
2, 30157, Note_on_c, 0, 72, 0
2, 30158, Note_on_c, 0, 74, 77
2, 30171, Note_on_c, 0, 74, 0
2, 30172, Note_on_c, 0, 72, 77
2, 30185, Note_on_c, 0, 72, 0
2, 30186, Note_on_c, 0, 74, 77
2, 30199, Note_on_c, 0, 74, 0
2, 30200, Note_on_c, 0, 72, 77
2, 30213, Note_on_c, 0, 72, 0
2, 30214, Note_on_c, 0, 71, 77
2, 30226, Note_on_c, 0, 71, 0
2, 30227, Note_on_c, 0, 72, 77
2, 30239, Note_on_c, 0, 72, 0
2, 30240, Note_on_c, 0, 84, 77
2, 30381, Note_on_c, 0, 84, 0
2, 30384, Note_on_c, 0, 82, 77
2, 30473, Note_on_c, 0, 82, 0
2, 30480, Note_on_c, 0, 81, 77
2, 30558, Note_on_c, 0, 81, 0
2, 30560, Note_on_c, 0, 78, 77
2, 30590, Note_on_c, 0, 78, 0
2, 30592, Note_on_c, 0, 79, 77
2, 30622, Note_on_c, 0, 79, 0
2, 30624, Note_on_c, 0, 86, 77
2, 30654, Note_on_c, 0, 86, 0
2, 30656, Note_on_c, 0, 82, 77
2, 30686, Note_on_c, 0, 82, 0
2, 30688, Note_on_c, 0, 79, 77
2, 30718, Note_on_c, 0, 79, 0
2, 30720, Note_on_c, 0, 79, 77
2, 30750, Note_on_c, 0, 79, 0
2, 30752, Note_on_c, 0, 76, 77
2, 30782, Note_on_c, 0, 76, 0
2, 30784, Note_on_c, 0, 77, 77
2, 30814, Note_on_c, 0, 77, 0
2, 30816, Note_on_c, 0, 70, 77
2, 30993, Note_on_c, 0, 70, 0
2, 31008, Note_on_c, 0, 69, 77
2, 31097, Note_on_c, 0, 69, 0
2, 31104, Note_on_c, 0, 69, 77
2, 31117, Note_on_c, 0, 69, 0
2, 31118, Note_on_c, 0, 70, 77
2, 31131, Note_on_c, 0, 70, 0
2, 31132, Note_on_c, 0, 69, 77
2, 31145, Note_on_c, 0, 69, 0
2, 31146, Note_on_c, 0, 70, 77
2, 31159, Note_on_c, 0, 70, 0
2, 31160, Note_on_c, 0, 69, 77
2, 31173, Note_on_c, 0, 69, 0
2, 31174, Note_on_c, 0, 67, 77
2, 31186, Note_on_c, 0, 67, 0
2, 31187, Note_on_c, 0, 69, 77
2, 31199, Note_on_c, 0, 69, 0
2, 31200, Note_on_c, 0, 67, 77
2, 31245, Note_on_c, 0, 67, 0
2, 31488, Note_on_c, 0, 63, 77
2, 31614, Note_on_c, 0, 63, 0
2, 31616, Note_on_c, 0, 62, 77
2, 31646, Note_on_c, 0, 62, 0
2, 31648, Note_on_c, 0, 60, 77
2, 31678, Note_on_c, 0, 60, 0
2, 31680, Note_on_c, 0, 58, 77
2, 31769, Note_on_c, 0, 58, 0
2, 31776, Note_on_c, 0, 62, 77
2, 31902, Note_on_c, 0, 62, 0
2, 31904, Note_on_c, 0, 60, 77
2, 31934, Note_on_c, 0, 60, 0
2, 31936, Note_on_c, 0, 58, 77
2, 31966, Note_on_c, 0, 58, 0
2, 31968, Note_on_c, 0, 57, 77
2, 31998, Note_on_c, 0, 57, 0
2, 32000, Note_on_c, 0, 60, 78
2, 32030, Note_on_c, 0, 60, 0
2, 32032, Note_on_c, 0, 65, 79
2, 32062, Note_on_c, 0, 65, 0
2, 32064, Note_on_c, 0, 61, 80
2, 32094, Note_on_c, 0, 61, 0
2, 32096, Note_on_c, 0, 62, 82
2, 32126, Note_on_c, 0, 62, 0
2, 32128, Note_on_c, 0, 70, 83
2, 32158, Note_on_c, 0, 70, 0
2, 32160, Note_on_c, 0, 66, 85
2, 32190, Note_on_c, 0, 66, 0
2, 32192, Note_on_c, 0, 67, 85
2, 32222, Note_on_c, 0, 67, 0
2, 32224, Note_on_c, 0, 74, 85
2, 32254, Note_on_c, 0, 74, 0
2, 32256, Note_on_c, 0, 65, 85
2, 32352, Note_on_c, 0, 65, 0
2, 32352, Note_on_c, 0, 64, 79
2, 32397, Note_on_c, 0, 64, 0
2, 32424, Note_on_c, 0, 60, 77
2, 32447, Note_on_c, 0, 60, 0
2, 32448, Note_on_c, 0, 60, 77
2, 32461, Note_on_c, 0, 60, 0
2, 32462, Note_on_c, 0, 62, 77
2, 32475, Note_on_c, 0, 62, 0
2, 32476, Note_on_c, 0, 60, 77
2, 32489, Note_on_c, 0, 60, 0
2, 32490, Note_on_c, 0, 62, 77
2, 32503, Note_on_c, 0, 62, 0
2, 32504, Note_on_c, 0, 60, 77
2, 32517, Note_on_c, 0, 60, 0
2, 32518, Note_on_c, 0, 58, 77
2, 32530, Note_on_c, 0, 58, 0
2, 32531, Note_on_c, 0, 60, 77
2, 32543, Note_on_c, 0, 60, 0
2, 32544, Note_on_c, 0, 70, 77
2, 32574, Note_on_c, 0, 70, 0
2, 32576, Note_on_c, 0, 72, 77
2, 32606, Note_on_c, 0, 72, 0
2, 32608, Note_on_c, 0, 69, 77
2, 32638, Note_on_c, 0, 69, 0
2, 32640, Note_on_c, 0, 67, 77
2, 32670, Note_on_c, 0, 67, 0
2, 32672, Note_on_c, 0, 71, 77
2, 32702, Note_on_c, 0, 71, 0
2, 32704, Note_on_c, 0, 72, 77
2, 32734, Note_on_c, 0, 72, 0
2, 32736, Note_on_c, 0, 74, 77
2, 32766, Note_on_c, 0, 74, 0
2, 32768, Note_on_c, 0, 76, 77
2, 32798, Note_on_c, 0, 76, 0
2, 32800, Note_on_c, 0, 77, 77
2, 32830, Note_on_c, 0, 77, 0
2, 32832, Note_on_c, 0, 79, 77
2, 32862, Note_on_c, 0, 79, 0
2, 32864, Note_on_c, 0, 81, 77
2, 32894, Note_on_c, 0, 81, 0
2, 32896, Note_on_c, 0, 77, 77
2, 32926, Note_on_c, 0, 77, 0
2, 32928, Note_on_c, 0, 76, 77
2, 32958, Note_on_c, 0, 76, 0
2, 32960, Note_on_c, 0, 79, 77
2, 32990, Note_on_c, 0, 79, 0
2, 32992, Note_on_c, 0, 77, 77
2, 33022, Note_on_c, 0, 77, 0
2, 33024, Note_on_c, 0, 76, 77
2, 33054, Note_on_c, 0, 76, 0
2, 33056, Note_on_c, 0, 79, 77
2, 33086, Note_on_c, 0, 79, 0
2, 33088, Note_on_c, 0, 82, 77
2, 33118, Note_on_c, 0, 82, 0
2, 33120, Note_on_c, 0, 86, 77
2, 33150, Note_on_c, 0, 86, 0
2, 33152, Note_on_c, 0, 82, 78
2, 33182, Note_on_c, 0, 82, 0
2, 33184, Note_on_c, 0, 79, 79
2, 33214, Note_on_c, 0, 79, 0
2, 33216, Note_on_c, 0, 88, 80
2, 33246, Note_on_c, 0, 88, 0
2, 33248, Note_on_c, 0, 84, 82
2, 33278, Note_on_c, 0, 84, 0
2, 33280, Note_on_c, 0, 79, 83
2, 33310, Note_on_c, 0, 79, 0
2, 33312, Note_on_c, 0, 89, 85
2, 33342, Note_on_c, 0, 89, 0
2, 33344, Note_on_c, 0, 84, 85
2, 33374, Note_on_c, 0, 84, 0
2, 33376, Note_on_c, 0, 77, 85
2, 33406, Note_on_c, 0, 77, 0
2, 33408, Note_on_c, 0, 82, 85
2, 33585, Note_on_c, 0, 82, 0
2, 33600, Note_on_c, 0, 81, 79
2, 33689, Note_on_c, 0, 81, 0
2, 33728, Note_on_c, 0, 78, 77
2, 33758, Note_on_c, 0, 78, 0
2, 33760, Note_on_c, 0, 79, 77
2, 33790, Note_on_c, 0, 79, 0
2, 33792, Note_on_c, 0, 86, 77
2, 33822, Note_on_c, 0, 86, 0
2, 33824, Note_on_c, 0, 82, 77
2, 33854, Note_on_c, 0, 82, 0
2, 33856, Note_on_c, 0, 79, 77
2, 33886, Note_on_c, 0, 79, 0
2, 33888, Note_on_c, 0, 82, 77
2, 33918, Note_on_c, 0, 82, 0
2, 33920, Note_on_c, 0, 79, 77
2, 33950, Note_on_c, 0, 79, 0
2, 33952, Note_on_c, 0, 76, 77
2, 33982, Note_on_c, 0, 76, 0
2, 33984, Note_on_c, 0, 76, 77
2, 34080, Note_on_c, 0, 76, 0
2, 34080, Note_on_c, 0, 77, 77
2, 34125, Note_on_c, 0, 77, 0
2, 34368, Note_on_c, 0, 63, 77
2, 34494, Note_on_c, 0, 63, 0
2, 34496, Note_on_c, 0, 62, 77
2, 34526, Note_on_c, 0, 62, 0
2, 34528, Note_on_c, 0, 60, 77
2, 34558, Note_on_c, 0, 60, 0
2, 34560, Note_on_c, 0, 58, 77
2, 34649, Note_on_c, 0, 58, 0
2, 34656, Note_on_c, 0, 62, 77
2, 34782, Note_on_c, 0, 62, 0
2, 34784, Note_on_c, 0, 60, 77
2, 34814, Note_on_c, 0, 60, 0
2, 34816, Note_on_c, 0, 58, 77
2, 34846, Note_on_c, 0, 58, 0
2, 34848, Note_on_c, 0, 57, 77
2, 34878, Note_on_c, 0, 57, 0
2, 34880, Note_on_c, 0, 60, 78
2, 34910, Note_on_c, 0, 60, 0
2, 34912, Note_on_c, 0, 65, 79
2, 34942, Note_on_c, 0, 65, 0
2, 34944, Note_on_c, 0, 61, 80
2, 34974, Note_on_c, 0, 61, 0
2, 34976, Note_on_c, 0, 62, 82
2, 35006, Note_on_c, 0, 62, 0
2, 35008, Note_on_c, 0, 70, 83
2, 35038, Note_on_c, 0, 70, 0
2, 35040, Note_on_c, 0, 66, 85
2, 35070, Note_on_c, 0, 66, 0
2, 35072, Note_on_c, 0, 67, 85
2, 35102, Note_on_c, 0, 67, 0
2, 35104, Note_on_c, 0, 74, 85
2, 35134, Note_on_c, 0, 74, 0
2, 35136, Note_on_c, 0, 65, 85
2, 35232, Note_on_c, 0, 65, 0
2, 35232, Note_on_c, 0, 64, 79
2, 35277, Note_on_c, 0, 64, 0
2, 35304, Note_on_c, 0, 60, 77
2, 35327, Note_on_c, 0, 60, 0
2, 35328, Note_on_c, 0, 60, 77
2, 35341, Note_on_c, 0, 60, 0
2, 35342, Note_on_c, 0, 62, 77
2, 35355, Note_on_c, 0, 62, 0
2, 35356, Note_on_c, 0, 60, 77
2, 35369, Note_on_c, 0, 60, 0
2, 35370, Note_on_c, 0, 62, 77
2, 35383, Note_on_c, 0, 62, 0
2, 35384, Note_on_c, 0, 60, 77
2, 35397, Note_on_c, 0, 60, 0
2, 35398, Note_on_c, 0, 58, 77
2, 35410, Note_on_c, 0, 58, 0
2, 35411, Note_on_c, 0, 60, 77
2, 35423, Note_on_c, 0, 60, 0
2, 35424, Note_on_c, 0, 70, 77
2, 35454, Note_on_c, 0, 70, 0
2, 35456, Note_on_c, 0, 72, 77
2, 35486, Note_on_c, 0, 72, 0
2, 35488, Note_on_c, 0, 69, 77
2, 35518, Note_on_c, 0, 69, 0
2, 35520, Note_on_c, 0, 67, 77
2, 35550, Note_on_c, 0, 67, 0
2, 35552, Note_on_c, 0, 71, 77
2, 35582, Note_on_c, 0, 71, 0
2, 35584, Note_on_c, 0, 72, 77
2, 35614, Note_on_c, 0, 72, 0
2, 35616, Note_on_c, 0, 74, 77
2, 35646, Note_on_c, 0, 74, 0
2, 35648, Note_on_c, 0, 76, 77
2, 35678, Note_on_c, 0, 76, 0
2, 35680, Note_on_c, 0, 77, 77
2, 35710, Note_on_c, 0, 77, 0
2, 35712, Note_on_c, 0, 79, 77
2, 35742, Note_on_c, 0, 79, 0
2, 35744, Note_on_c, 0, 81, 77
2, 35774, Note_on_c, 0, 81, 0
2, 35776, Note_on_c, 0, 77, 77
2, 35806, Note_on_c, 0, 77, 0
2, 35808, Note_on_c, 0, 76, 77
2, 35838, Note_on_c, 0, 76, 0
2, 35840, Note_on_c, 0, 79, 77
2, 35870, Note_on_c, 0, 79, 0
2, 35872, Note_on_c, 0, 77, 77
2, 35902, Note_on_c, 0, 77, 0
2, 35904, Note_on_c, 0, 76, 77
2, 35934, Note_on_c, 0, 76, 0
2, 35936, Note_on_c, 0, 79, 77
2, 35966, Note_on_c, 0, 79, 0
2, 35968, Note_on_c, 0, 82, 77
2, 35998, Note_on_c, 0, 82, 0
2, 36000, Note_on_c, 0, 86, 77
2, 36030, Note_on_c, 0, 86, 0
2, 36032, Note_on_c, 0, 82, 78
2, 36062, Note_on_c, 0, 82, 0
2, 36064, Note_on_c, 0, 79, 79
2, 36094, Note_on_c, 0, 79, 0
2, 36096, Note_on_c, 0, 88, 80
2, 36126, Note_on_c, 0, 88, 0
2, 36128, Note_on_c, 0, 84, 82
2, 36158, Note_on_c, 0, 84, 0
2, 36160, Note_on_c, 0, 79, 83
2, 36190, Note_on_c, 0, 79, 0
2, 36192, Note_on_c, 0, 89, 85
2, 36222, Note_on_c, 0, 89, 0
2, 36224, Note_on_c, 0, 84, 85
2, 36254, Note_on_c, 0, 84, 0
2, 36256, Note_on_c, 0, 77, 85
2, 36286, Note_on_c, 0, 77, 0
2, 36288, Note_on_c, 0, 82, 85
2, 36465, Note_on_c, 0, 82, 0
2, 36480, Note_on_c, 0, 81, 79
2, 36569, Note_on_c, 0, 81, 0
2, 36608, Note_on_c, 0, 78, 77
2, 36638, Note_on_c, 0, 78, 0
2, 36640, Note_on_c, 0, 79, 77
2, 36670, Note_on_c, 0, 79, 0
2, 36672, Note_on_c, 0, 86, 77
2, 36702, Note_on_c, 0, 86, 0
2, 36704, Note_on_c, 0, 82, 77
2, 36734, Note_on_c, 0, 82, 0
2, 36736, Note_on_c, 0, 79, 77
2, 36766, Note_on_c, 0, 79, 0
2, 36768, Note_on_c, 0, 82, 77
2, 36798, Note_on_c, 0, 82, 0
2, 36800, Note_on_c, 0, 79, 77
2, 36830, Note_on_c, 0, 79, 0
2, 36832, Note_on_c, 0, 76, 77
2, 36862, Note_on_c, 0, 76, 0
2, 36864, Note_on_c, 0, 76, 77
2, 36960, Note_on_c, 0, 76, 0
2, 36960, Note_on_c, 0, 77, 77
2, 37005, Note_on_c, 0, 77, 0
2, 37032, Note_on_c, 0, 72, 77
2, 37055, Note_on_c, 0, 72, 0
2, 37056, Note_on_c, 0, 72, 77
2, 37069, Note_on_c, 0, 72, 0
2, 37070, Note_on_c, 0, 74, 77
2, 37083, Note_on_c, 0, 74, 0
2, 37084, Note_on_c, 0, 72, 77
2, 37097, Note_on_c, 0, 72, 0
2, 37098, Note_on_c, 0, 74, 77
2, 37111, Note_on_c, 0, 74, 0
2, 37112, Note_on_c, 0, 72, 77
2, 37125, Note_on_c, 0, 72, 0
2, 37126, Note_on_c, 0, 71, 77
2, 37138, Note_on_c, 0, 71, 0
2, 37139, Note_on_c, 0, 72, 77
2, 37151, Note_on_c, 0, 72, 0
2, 37152, Note_on_c, 0, 77, 77
2, 37172, Note_on_c, 0, 77, 0
2, 37200, Note_on_c, 0, 76, 77
2, 37220, Note_on_c, 0, 76, 0
2, 37248, Note_on_c, 0, 74, 77
2, 37268, Note_on_c, 0, 74, 0
2, 37296, Note_on_c, 0, 72, 77
2, 37316, Note_on_c, 0, 72, 0
2, 37344, Note_on_c, 0, 70, 77
2, 37364, Note_on_c, 0, 70, 0
2, 37392, Note_on_c, 0, 69, 77
2, 37412, Note_on_c, 0, 69, 0
2, 37440, Note_on_c, 0, 67, 77
2, 37453, Note_on_c, 0, 67, 0
2, 37454, Note_on_c, 0, 69, 77
2, 37467, Note_on_c, 0, 69, 0
2, 37468, Note_on_c, 0, 67, 77
2, 37481, Note_on_c, 0, 67, 0
2, 37482, Note_on_c, 0, 69, 77
2, 37495, Note_on_c, 0, 69, 0
2, 37496, Note_on_c, 0, 67, 77
2, 37509, Note_on_c, 0, 67, 0
2, 37510, Note_on_c, 0, 65, 77
2, 37522, Note_on_c, 0, 65, 0
2, 37523, Note_on_c, 0, 67, 77
2, 37536, Note_on_c, 0, 67, 0
2, 37536, Note_on_c, 0, 65, 77
2, 37556, Note_on_c, 0, 65, 0
2, 37608, Note_on_c, 0, 72, 77
2, 37631, Note_on_c, 0, 72, 0
2, 37632, Note_on_c, 0, 72, 77
2, 37645, Note_on_c, 0, 72, 0
2, 37646, Note_on_c, 0, 74, 77
2, 37659, Note_on_c, 0, 74, 0
2, 37660, Note_on_c, 0, 72, 77
2, 37673, Note_on_c, 0, 72, 0
2, 37674, Note_on_c, 0, 74, 77
2, 37687, Note_on_c, 0, 74, 0
2, 37688, Note_on_c, 0, 72, 77
2, 37701, Note_on_c, 0, 72, 0
2, 37702, Note_on_c, 0, 71, 77
2, 37714, Note_on_c, 0, 71, 0
2, 37715, Note_on_c, 0, 72, 77
2, 37727, Note_on_c, 0, 72, 0
2, 37728, Note_on_c, 0, 81, 77
2, 37748, Note_on_c, 0, 81, 0
2, 37776, Note_on_c, 0, 79, 77
2, 37796, Note_on_c, 0, 79, 0
2, 37824, Note_on_c, 0, 77, 77
2, 37844, Note_on_c, 0, 77, 0
2, 37872, Note_on_c, 0, 76, 77
2, 37892, Note_on_c, 0, 76, 0
2, 37920, Note_on_c, 0, 74, 77
2, 37940, Note_on_c, 0, 74, 0
2, 37968, Note_on_c, 0, 72, 77
2, 37988, Note_on_c, 0, 72, 0
2, 38016, Note_on_c, 0, 70, 77
2, 38029, Note_on_c, 0, 70, 0
2, 38030, Note_on_c, 0, 72, 77
2, 38043, Note_on_c, 0, 72, 0
2, 38044, Note_on_c, 0, 70, 77
2, 38057, Note_on_c, 0, 70, 0
2, 38058, Note_on_c, 0, 72, 77
2, 38071, Note_on_c, 0, 72, 0
2, 38072, Note_on_c, 0, 70, 77
2, 38085, Note_on_c, 0, 70, 0
2, 38086, Note_on_c, 0, 69, 77
2, 38098, Note_on_c, 0, 69, 0
2, 38099, Note_on_c, 0, 70, 77
2, 38112, Note_on_c, 0, 70, 0
2, 38112, Note_on_c, 0, 69, 77
2, 38132, Note_on_c, 0, 69, 0
2, 38184, Note_on_c, 0, 72, 77
2, 38207, Note_on_c, 0, 72, 0
2, 38208, Note_on_c, 0, 72, 77
2, 38221, Note_on_c, 0, 72, 0
2, 38222, Note_on_c, 0, 74, 77
2, 38235, Note_on_c, 0, 74, 0
2, 38236, Note_on_c, 0, 72, 77
2, 38249, Note_on_c, 0, 72, 0
2, 38250, Note_on_c, 0, 74, 77
2, 38263, Note_on_c, 0, 74, 0
2, 38264, Note_on_c, 0, 72, 77
2, 38277, Note_on_c, 0, 72, 0
2, 38278, Note_on_c, 0, 71, 77
2, 38290, Note_on_c, 0, 71, 0
2, 38291, Note_on_c, 0, 72, 77
2, 38303, Note_on_c, 0, 72, 0
2, 38304, Note_on_c, 0, 84, 77
2, 38437, Note_on_c, 0, 84, 0
2, 38448, Note_on_c, 0, 82, 77
2, 38537, Note_on_c, 0, 82, 0
2, 38544, Note_on_c, 0, 81, 77
2, 38637, Note_on_c, 0, 81, 0
2, 38640, Note_on_c, 0, 74, 77
2, 38685, Note_on_c, 0, 74, 0
2, 38688, Note_on_c, 0, 79, 77
2, 38733, Note_on_c, 0, 79, 0
2, 38736, Note_on_c, 0, 76, 77
2, 38781, Note_on_c, 0, 76, 0
2, 38784, Note_on_c, 0, 77, 77
2, 38829, Note_on_c, 0, 77, 0
2, 38832, Note_on_c, 0, 72, 77
2, 38877, Note_on_c, 0, 72, 0
2, 38880, Note_on_c, 0, 72, 77
2, 38892, Note_on_c, 0, 72, 0
2, 38892, Note_on_c, 0, 70, 77
2, 38904, Note_on_c, 0, 70, 0
2, 38904, Note_on_c, 0, 69, 77
2, 38916, Note_on_c, 0, 69, 0
2, 38916, Note_on_c, 0, 70, 77
2, 39057, Note_on_c, 0, 70, 0
2, 39072, Note_on_c, 0, 69, 77
2, 39161, Note_on_c, 0, 69, 0
2, 39168, Note_on_c, 0, 69, 77
2, 39181, Note_on_c, 0, 69, 0
2, 39182, Note_on_c, 0, 70, 77
2, 39195, Note_on_c, 0, 70, 0
2, 39196, Note_on_c, 0, 69, 77
2, 39209, Note_on_c, 0, 69, 0
2, 39210, Note_on_c, 0, 70, 77
2, 39223, Note_on_c, 0, 70, 0
2, 39224, Note_on_c, 0, 69, 77
2, 39237, Note_on_c, 0, 69, 0
2, 39238, Note_on_c, 0, 67, 77
2, 39250, Note_on_c, 0, 67, 0
2, 39251, Note_on_c, 0, 69, 77
2, 39263, Note_on_c, 0, 69, 0
2, 39264, Note_on_c, 0, 67, 77
2, 39309, Note_on_c, 0, 67, 0
2, 39336, Note_on_c, 0, 72, 77
2, 39359, Note_on_c, 0, 72, 0
2, 39360, Note_on_c, 0, 72, 77
2, 39373, Note_on_c, 0, 72, 0
2, 39374, Note_on_c, 0, 74, 77
2, 39387, Note_on_c, 0, 74, 0
2, 39388, Note_on_c, 0, 72, 77
2, 39401, Note_on_c, 0, 72, 0
2, 39402, Note_on_c, 0, 74, 77
2, 39415, Note_on_c, 0, 74, 0
2, 39416, Note_on_c, 0, 72, 77
2, 39429, Note_on_c, 0, 72, 0
2, 39430, Note_on_c, 0, 71, 77
2, 39442, Note_on_c, 0, 71, 0
2, 39443, Note_on_c, 0, 72, 77
2, 39455, Note_on_c, 0, 72, 0
2, 39456, Note_on_c, 0, 77, 77
2, 39479, Note_on_c, 0, 77, 0
2, 39480, Note_on_c, 0, 72, 77
2, 39503, Note_on_c, 0, 72, 0
2, 39504, Note_on_c, 0, 81, 77
2, 39527, Note_on_c, 0, 81, 0
2, 39528, Note_on_c, 0, 79, 77
2, 39551, Note_on_c, 0, 79, 0
2, 39552, Note_on_c, 0, 77, 77
2, 39575, Note_on_c, 0, 77, 0
2, 39576, Note_on_c, 0, 76, 77
2, 39599, Note_on_c, 0, 76, 0
2, 39600, Note_on_c, 0, 74, 77
2, 39623, Note_on_c, 0, 74, 0
2, 39624, Note_on_c, 0, 72, 77
2, 39647, Note_on_c, 0, 72, 0
2, 39648, Note_on_c, 0, 70, 77
2, 39671, Note_on_c, 0, 70, 0
2, 39672, Note_on_c, 0, 69, 77
2, 39695, Note_on_c, 0, 69, 0
2, 39696, Note_on_c, 0, 67, 77
2, 39719, Note_on_c, 0, 67, 0
2, 39720, Note_on_c, 0, 65, 77
2, 39743, Note_on_c, 0, 65, 0
2, 39744, Note_on_c, 0, 67, 77
2, 39757, Note_on_c, 0, 67, 0
2, 39758, Note_on_c, 0, 69, 77
2, 39771, Note_on_c, 0, 69, 0
2, 39772, Note_on_c, 0, 67, 77
2, 39785, Note_on_c, 0, 67, 0
2, 39786, Note_on_c, 0, 69, 77
2, 39799, Note_on_c, 0, 69, 0
2, 39800, Note_on_c, 0, 67, 77
2, 39813, Note_on_c, 0, 67, 0
2, 39814, Note_on_c, 0, 65, 77
2, 39826, Note_on_c, 0, 65, 0
2, 39827, Note_on_c, 0, 67, 77
2, 39840, Note_on_c, 0, 67, 0
2, 39840, Note_on_c, 0, 65, 77
2, 39860, Note_on_c, 0, 65, 0
2, 39912, Note_on_c, 0, 72, 77
2, 39935, Note_on_c, 0, 72, 0
2, 39936, Note_on_c, 0, 72, 77
2, 39949, Note_on_c, 0, 72, 0
2, 39950, Note_on_c, 0, 74, 77
2, 39963, Note_on_c, 0, 74, 0
2, 39964, Note_on_c, 0, 72, 77
2, 39977, Note_on_c, 0, 72, 0
2, 39978, Note_on_c, 0, 74, 77
2, 39991, Note_on_c, 0, 74, 0
2, 39992, Note_on_c, 0, 72, 77
2, 40005, Note_on_c, 0, 72, 0
2, 40006, Note_on_c, 0, 71, 77
2, 40018, Note_on_c, 0, 71, 0
2, 40019, Note_on_c, 0, 72, 77
2, 40031, Note_on_c, 0, 72, 0
2, 40032, Note_on_c, 0, 77, 77
2, 40055, Note_on_c, 0, 77, 0
2, 40056, Note_on_c, 0, 72, 77
2, 40079, Note_on_c, 0, 72, 0
2, 40080, Note_on_c, 0, 84, 77
2, 40103, Note_on_c, 0, 84, 0
2, 40104, Note_on_c, 0, 82, 77
2, 40127, Note_on_c, 0, 82, 0
2, 40128, Note_on_c, 0, 81, 77
2, 40151, Note_on_c, 0, 81, 0
2, 40152, Note_on_c, 0, 79, 77
2, 40175, Note_on_c, 0, 79, 0
2, 40176, Note_on_c, 0, 77, 77
2, 40199, Note_on_c, 0, 77, 0
2, 40200, Note_on_c, 0, 76, 77
2, 40223, Note_on_c, 0, 76, 0
2, 40224, Note_on_c, 0, 74, 77
2, 40247, Note_on_c, 0, 74, 0
2, 40248, Note_on_c, 0, 72, 77
2, 40271, Note_on_c, 0, 72, 0
2, 40272, Note_on_c, 0, 70, 77
2, 40295, Note_on_c, 0, 70, 0
2, 40296, Note_on_c, 0, 69, 77
2, 40319, Note_on_c, 0, 69, 0
2, 40320, Note_on_c, 0, 70, 77
2, 40333, Note_on_c, 0, 70, 0
2, 40334, Note_on_c, 0, 72, 77
2, 40347, Note_on_c, 0, 72, 0
2, 40348, Note_on_c, 0, 70, 77
2, 40361, Note_on_c, 0, 70, 0
2, 40362, Note_on_c, 0, 72, 77
2, 40375, Note_on_c, 0, 72, 0
2, 40376, Note_on_c, 0, 70, 77
2, 40389, Note_on_c, 0, 70, 0
2, 40390, Note_on_c, 0, 69, 77
2, 40402, Note_on_c, 0, 69, 0
2, 40403, Note_on_c, 0, 70, 77
2, 40416, Note_on_c, 0, 70, 0
2, 40416, Note_on_c, 0, 69, 77
2, 40436, Note_on_c, 0, 69, 0
2, 40488, Note_on_c, 0, 72, 77
2, 40511, Note_on_c, 0, 72, 0
2, 40512, Note_on_c, 0, 72, 77
2, 40525, Note_on_c, 0, 72, 0
2, 40526, Note_on_c, 0, 74, 77
2, 40539, Note_on_c, 0, 74, 0
2, 40540, Note_on_c, 0, 72, 77
2, 40553, Note_on_c, 0, 72, 0
2, 40554, Note_on_c, 0, 74, 77
2, 40567, Note_on_c, 0, 74, 0
2, 40568, Note_on_c, 0, 72, 77
2, 40581, Note_on_c, 0, 72, 0
2, 40582, Note_on_c, 0, 71, 77
2, 40594, Note_on_c, 0, 71, 0
2, 40595, Note_on_c, 0, 72, 77
2, 40607, Note_on_c, 0, 72, 0
2, 40608, Note_on_c, 0, 84, 77
2, 40741, Note_on_c, 0, 84, 0
2, 40752, Note_on_c, 0, 82, 77
2, 40841, Note_on_c, 0, 82, 0
2, 40848, Note_on_c, 0, 81, 77
2, 40893, Note_on_c, 0, 81, 0
2, 40896, Note_on_c, 0, 81, 77
2, 40919, Note_on_c, 0, 81, 0
2, 40920, Note_on_c, 0, 78, 77
2, 40943, Note_on_c, 0, 78, 0
2, 40944, Note_on_c, 0, 79, 77
2, 40967, Note_on_c, 0, 79, 0
2, 40968, Note_on_c, 0, 86, 77
2, 40991, Note_on_c, 0, 86, 0
2, 40992, Note_on_c, 0, 84, 77
2, 41015, Note_on_c, 0, 84, 0
2, 41016, Note_on_c, 0, 82, 77
2, 41039, Note_on_c, 0, 82, 0
2, 41040, Note_on_c, 0, 81, 77
2, 41063, Note_on_c, 0, 81, 0
2, 41064, Note_on_c, 0, 79, 77
2, 41087, Note_on_c, 0, 79, 0
2, 41088, Note_on_c, 0, 77, 77
2, 41111, Note_on_c, 0, 77, 0
2, 41112, Note_on_c, 0, 76, 77
2, 41135, Note_on_c, 0, 76, 0
2, 41136, Note_on_c, 0, 74, 77
2, 41159, Note_on_c, 0, 74, 0
2, 41160, Note_on_c, 0, 72, 77
2, 41183, Note_on_c, 0, 72, 0
2, 41184, Note_on_c, 0, 70, 77
2, 41376, Note_on_c, 0, 70, 0
2, 41376, Note_on_c, 0, 69, 77
2, 41465, Note_on_c, 0, 69, 0
2, 41472, Note_on_c, 0, 69, 77
2, 41485, Note_on_c, 0, 69, 0
2, 41486, Note_on_c, 0, 70, 77
2, 41499, Note_on_c, 0, 70, 0
2, 41500, Note_on_c, 0, 69, 77
2, 41513, Note_on_c, 0, 69, 0
2, 41514, Note_on_c, 0, 70, 77
2, 41527, Note_on_c, 0, 70, 0
2, 41528, Note_on_c, 0, 69, 77
2, 41541, Note_on_c, 0, 69, 0
2, 41542, Note_on_c, 0, 67, 77
2, 41554, Note_on_c, 0, 67, 0
2, 41555, Note_on_c, 0, 69, 77
2, 41568, Note_on_c, 0, 69, 0
2, 41568, Note_on_c, 0, 67, 77
2, 41588, Note_on_c, 0, 67, 0
2, 41904, Note_on_c, 0, 63, 77
2, 41952, Note_on_c, 0, 63, 0
2, 41952, Note_on_c, 0, 62, 77
2, 41997, Note_on_c, 0, 62, 0
2, 42000, Note_on_c, 0, 72, 77
2, 42048, Note_on_c, 0, 72, 0
2, 42048, Note_on_c, 0, 70, 77
2, 42093, Note_on_c, 0, 70, 0
2, 42096, Note_on_c, 0, 61, 77
2, 42144, Note_on_c, 0, 61, 0
2, 42144, Note_on_c, 0, 60, 77
2, 42189, Note_on_c, 0, 60, 0
2, 42192, Note_on_c, 0, 70, 77
2, 42237, Note_on_c, 0, 70, 0
2, 42240, Note_on_c, 0, 69, 77
2, 42285, Note_on_c, 0, 69, 0
2, 42288, Note_on_c, 0, 65, 77
2, 42333, Note_on_c, 0, 65, 0
2, 42336, Note_on_c, 0, 62, 77
2, 42381, Note_on_c, 0, 62, 0
2, 42384, Note_on_c, 0, 66, 78
2, 42429, Note_on_c, 0, 66, 0
2, 42432, Note_on_c, 0, 67, 80
2, 42477, Note_on_c, 0, 67, 0
2, 42480, Note_on_c, 0, 69, 82
2, 42525, Note_on_c, 0, 69, 0
2, 42528, Note_on_c, 0, 72, 84
2, 42551, Note_on_c, 0, 72, 0
2, 42552, Note_on_c, 0, 70, 85
2, 42575, Note_on_c, 0, 70, 0
2, 42576, Note_on_c, 0, 69, 84
2, 42599, Note_on_c, 0, 69, 0
2, 42600, Note_on_c, 0, 67, 83
2, 42623, Note_on_c, 0, 67, 0
2, 42624, Note_on_c, 0, 65, 82
2, 42720, Note_on_c, 0, 65, 0
2, 42720, Note_on_c, 0, 64, 78
2, 42765, Note_on_c, 0, 64, 0
2, 42792, Note_on_c, 0, 60, 77
2, 42815, Note_on_c, 0, 60, 0
2, 42816, Note_on_c, 0, 60, 77
2, 42829, Note_on_c, 0, 60, 0
2, 42830, Note_on_c, 0, 62, 77
2, 42843, Note_on_c, 0, 62, 0
2, 42844, Note_on_c, 0, 60, 77
2, 42857, Note_on_c, 0, 60, 0
2, 42858, Note_on_c, 0, 62, 77
2, 42871, Note_on_c, 0, 62, 0
2, 42872, Note_on_c, 0, 60, 77
2, 42885, Note_on_c, 0, 60, 0
2, 42886, Note_on_c, 0, 59, 77
2, 42898, Note_on_c, 0, 59, 0
2, 42899, Note_on_c, 0, 60, 77
2, 42911, Note_on_c, 0, 60, 0
2, 42912, Note_on_c, 0, 70, 77
2, 42912, Note_on_c, 0, 67, 77
2, 42960, Note_on_c, 0, 70, 0
2, 42960, Note_on_c, 0, 67, 0
2, 42960, Note_on_c, 0, 69, 77
2, 42960, Note_on_c, 0, 65, 77
2, 43005, Note_on_c, 0, 69, 0
2, 43005, Note_on_c, 0, 65, 0
2, 43008, Note_on_c, 0, 67, 77
2, 43008, Note_on_c, 0, 64, 77
2, 43053, Note_on_c, 0, 67, 0
2, 43053, Note_on_c, 0, 64, 0
2, 43056, Note_on_c, 0, 72, 77
2, 43079, Note_on_c, 0, 72, 0
2, 43080, Note_on_c, 0, 74, 77
2, 43103, Note_on_c, 0, 74, 0
2, 43104, Note_on_c, 0, 76, 77
2, 43127, Note_on_c, 0, 76, 0
2, 43128, Note_on_c, 0, 77, 77
2, 43151, Note_on_c, 0, 77, 0
2, 43152, Note_on_c, 0, 79, 77
2, 43175, Note_on_c, 0, 79, 0
2, 43176, Note_on_c, 0, 81, 77
2, 43199, Note_on_c, 0, 81, 0
2, 43200, Note_on_c, 0, 82, 77
2, 43200, Note_on_c, 0, 79, 77
2, 43245, Note_on_c, 0, 82, 0
2, 43245, Note_on_c, 0, 79, 0
2, 43248, Note_on_c, 0, 81, 77
2, 43248, Note_on_c, 0, 77, 77
2, 43293, Note_on_c, 0, 81, 0
2, 43293, Note_on_c, 0, 77, 0
2, 43296, Note_on_c, 0, 79, 77
2, 43296, Note_on_c, 0, 76, 77
2, 43341, Note_on_c, 0, 79, 0
2, 43341, Note_on_c, 0, 76, 0
2, 43344, Note_on_c, 0, 76, 77
2, 43367, Note_on_c, 0, 76, 0
2, 43368, Note_on_c, 0, 77, 78
2, 43391, Note_on_c, 0, 77, 0
2, 43392, Note_on_c, 0, 79, 79
2, 43415, Note_on_c, 0, 79, 0
2, 43416, Note_on_c, 0, 81, 81
2, 43439, Note_on_c, 0, 81, 0
2, 43440, Note_on_c, 0, 82, 82
2, 43463, Note_on_c, 0, 82, 0
2, 43464, Note_on_c, 0, 84, 83
2, 43487, Note_on_c, 0, 84, 0
2, 43488, Note_on_c, 0, 86, 85
2, 43533, Note_on_c, 0, 86, 0
2, 43536, Note_on_c, 0, 82, 85
2, 43581, Note_on_c, 0, 82, 0
2, 43584, Note_on_c, 0, 79, 85
2, 43629, Note_on_c, 0, 79, 0
2, 43632, Note_on_c, 0, 88, 85
2, 43677, Note_on_c, 0, 88, 0
2, 43680, Note_on_c, 0, 89, 85
2, 43725, Note_on_c, 0, 89, 0
2, 43728, Note_on_c, 0, 77, 85
2, 43773, Note_on_c, 0, 77, 0
2, 43776, Note_on_c, 0, 84, 85
2, 43788, Note_on_c, 0, 84, 0
2, 43788, Note_on_c, 0, 82, 85
2, 43800, Note_on_c, 0, 82, 0
2, 43800, Note_on_c, 0, 81, 85
2, 43812, Note_on_c, 0, 81, 0
2, 43812, Note_on_c, 0, 82, 85
2, 43968, Note_on_c, 0, 82, 0
2, 43968, Note_on_c, 0, 81, 85
2, 44057, Note_on_c, 0, 81, 0
2, 44112, Note_on_c, 0, 66, 83
2, 44157, Note_on_c, 0, 66, 0
2, 44160, Note_on_c, 0, 67, 81
2, 44205, Note_on_c, 0, 67, 0
2, 44208, Note_on_c, 0, 74, 79
2, 44253, Note_on_c, 0, 74, 0
2, 44304, Note_on_c, 0, 64, 77
2, 44304, Note_on_c, 0, 58, 77
2, 44349, Note_on_c, 0, 64, 0
2, 44349, Note_on_c, 0, 58, 0
2, 44352, Note_on_c, 0, 65, 77
2, 44352, Note_on_c, 0, 57, 77
2, 44441, Note_on_c, 0, 65, 0
2, 44441, Note_on_c, 0, 57, 0
2, 44520, Note_on_c, 0, 60, 85
2, 44543, Note_on_c, 0, 60, 0
2, 44544, Note_on_c, 0, 60, 85
2, 44557, Note_on_c, 0, 60, 0
2, 44558, Note_on_c, 0, 62, 85
2, 44571, Note_on_c, 0, 62, 0
2, 44572, Note_on_c, 0, 60, 85
2, 44585, Note_on_c, 0, 60, 0
2, 44586, Note_on_c, 0, 62, 85
2, 44599, Note_on_c, 0, 62, 0
2, 44600, Note_on_c, 0, 60, 85
2, 44613, Note_on_c, 0, 60, 0
2, 44614, Note_on_c, 0, 59, 85
2, 44626, Note_on_c, 0, 59, 0
2, 44627, Note_on_c, 0, 60, 85
2, 44639, Note_on_c, 0, 60, 0
2, 44640, Note_on_c, 0, 72, 85
2, 44663, Note_on_c, 0, 72, 0
2, 44664, Note_on_c, 0, 60, 85
2, 44687, Note_on_c, 0, 60, 0
2, 44688, Note_on_c, 0, 70, 85
2, 44711, Note_on_c, 0, 70, 0
2, 44712, Note_on_c, 0, 60, 85
2, 44735, Note_on_c, 0, 60, 0
2, 44736, Note_on_c, 0, 69, 85
2, 44759, Note_on_c, 0, 69, 0
2, 44760, Note_on_c, 0, 60, 85
2, 44783, Note_on_c, 0, 60, 0
2, 44784, Note_on_c, 0, 67, 85
2, 44807, Note_on_c, 0, 67, 0
2, 44808, Note_on_c, 0, 60, 85
2, 44831, Note_on_c, 0, 60, 0
2, 44832, Note_on_c, 0, 66, 85
2, 44855, Note_on_c, 0, 66, 0
2, 44856, Note_on_c, 0, 60, 85
2, 44879, Note_on_c, 0, 60, 0
2, 44880, Note_on_c, 0, 72, 85
2, 44903, Note_on_c, 0, 72, 0
2, 44904, Note_on_c, 0, 60, 85
2, 44927, Note_on_c, 0, 60, 0
2, 44928, Note_on_c, 0, 70, 85
2, 44973, Note_on_c, 0, 70, 0
2, 44976, Note_on_c, 0, 69, 85
2, 45021, Note_on_c, 0, 69, 0
2, 45024, Note_on_c, 0, 67, 85
2, 45069, Note_on_c, 0, 67, 0
2, 45072, Note_on_c, 0, 65, 85
2, 45117, Note_on_c, 0, 65, 0
2, 45120, Note_on_c, 0, 64, 85
2, 45165, Note_on_c, 0, 64, 0
2, 45168, Note_on_c, 0, 70, 85
2, 45213, Note_on_c, 0, 70, 0
2, 45216, Note_on_c, 0, 69, 85
2, 45261, Note_on_c, 0, 69, 0
2, 45264, Note_on_c, 0, 67, 85
2, 45309, Note_on_c, 0, 67, 0
2, 45312, Note_on_c, 0, 65, 85
2, 45357, Note_on_c, 0, 65, 0
2, 45360, Note_on_c, 0, 63, 85
2, 45405, Note_on_c, 0, 63, 0
2, 45408, Note_on_c, 0, 62, 85
2, 45453, Note_on_c, 0, 62, 0
2, 45456, Note_on_c, 0, 74, 85
2, 45501, Note_on_c, 0, 74, 0
2, 45504, Note_on_c, 0, 65, 82
2, 45600, Note_on_c, 0, 65, 0
2, 45600, Note_on_c, 0, 64, 77
2, 45645, Note_on_c, 0, 64, 0
2, 45648, Note_on_c, 0, 60, 77
2, 45671, Note_on_c, 0, 60, 0
2, 45672, Note_on_c, 0, 62, 77
2, 45695, Note_on_c, 0, 62, 0
2, 45696, Note_on_c, 0, 64, 77
2, 45719, Note_on_c, 0, 64, 0
2, 45720, Note_on_c, 0, 65, 77
2, 45743, Note_on_c, 0, 65, 0
2, 45744, Note_on_c, 0, 67, 77
2, 45767, Note_on_c, 0, 67, 0
2, 45768, Note_on_c, 0, 69, 77
2, 45791, Note_on_c, 0, 69, 0
2, 45792, Note_on_c, 0, 70, 77
2, 45815, Note_on_c, 0, 70, 0
2, 45816, Note_on_c, 0, 60, 77
2, 45839, Note_on_c, 0, 60, 0
2, 45840, Note_on_c, 0, 69, 77
2, 45863, Note_on_c, 0, 69, 0
2, 45864, Note_on_c, 0, 60, 77
2, 45887, Note_on_c, 0, 60, 0
2, 45888, Note_on_c, 0, 67, 77
2, 45933, Note_on_c, 0, 67, 0
2, 45936, Note_on_c, 0, 72, 77
2, 45959, Note_on_c, 0, 72, 0
2, 45960, Note_on_c, 0, 74, 77
2, 45983, Note_on_c, 0, 74, 0
2, 45984, Note_on_c, 0, 76, 77
2, 46007, Note_on_c, 0, 76, 0
2, 46008, Note_on_c, 0, 77, 77
2, 46031, Note_on_c, 0, 77, 0
2, 46032, Note_on_c, 0, 79, 77
2, 46055, Note_on_c, 0, 79, 0
2, 46056, Note_on_c, 0, 81, 77
2, 46079, Note_on_c, 0, 81, 0
2, 46080, Note_on_c, 0, 82, 77
2, 46103, Note_on_c, 0, 82, 0
2, 46104, Note_on_c, 0, 72, 77
2, 46127, Note_on_c, 0, 72, 0
2, 46128, Note_on_c, 0, 81, 77
2, 46151, Note_on_c, 0, 81, 0
2, 46152, Note_on_c, 0, 72, 77
2, 46175, Note_on_c, 0, 72, 0
2, 46176, Note_on_c, 0, 79, 77
2, 46221, Note_on_c, 0, 79, 0
2, 46224, Note_on_c, 0, 76, 77
2, 46247, Note_on_c, 0, 76, 0
2, 46248, Note_on_c, 0, 77, 77
2, 46271, Note_on_c, 0, 77, 0
2, 46272, Note_on_c, 0, 79, 77
2, 46295, Note_on_c, 0, 79, 0
2, 46296, Note_on_c, 0, 81, 79
2, 46319, Note_on_c, 0, 81, 0
2, 46320, Note_on_c, 0, 82, 81
2, 46343, Note_on_c, 0, 82, 0
2, 46344, Note_on_c, 0, 84, 83
2, 46367, Note_on_c, 0, 84, 0
2, 46368, Note_on_c, 0, 86, 85
2, 46391, Note_on_c, 0, 86, 0
2, 46392, Note_on_c, 0, 84, 85
2, 46415, Note_on_c, 0, 84, 0
2, 46416, Note_on_c, 0, 82, 85
2, 46439, Note_on_c, 0, 82, 0
2, 46440, Note_on_c, 0, 81, 85
2, 46463, Note_on_c, 0, 81, 0
2, 46464, Note_on_c, 0, 82, 85
2, 46487, Note_on_c, 0, 82, 0
2, 46488, Note_on_c, 0, 84, 85
2, 46511, Note_on_c, 0, 84, 0
2, 46512, Note_on_c, 0, 86, 85
2, 46535, Note_on_c, 0, 86, 0
2, 46536, Note_on_c, 0, 88, 85
2, 46559, Note_on_c, 0, 88, 0
2, 46560, Note_on_c, 0, 89, 85
2, 46583, Note_on_c, 0, 89, 0
2, 46584, Note_on_c, 0, 88, 85
2, 46607, Note_on_c, 0, 88, 0
2, 46608, Note_on_c, 0, 86, 85
2, 46631, Note_on_c, 0, 86, 0
2, 46632, Note_on_c, 0, 84, 85
2, 46655, Note_on_c, 0, 84, 0
2, 46656, Note_on_c, 0, 82, 85
2, 46848, Note_on_c, 0, 82, 0
2, 46848, Note_on_c, 0, 81, 85
2, 46937, Note_on_c, 0, 81, 0
2, 46992, Note_on_c, 0, 66, 85
2, 47004, Note_on_c, 0, 66, 0
2, 47004, Note_on_c, 0, 78, 85
2, 47038, Note_on_c, 0, 78, 0
2, 47040, Note_on_c, 0, 67, 85
2, 47052, Note_on_c, 0, 67, 0
2, 47052, Note_on_c, 0, 79, 85
2, 47086, Note_on_c, 0, 79, 0
2, 47088, Note_on_c, 0, 70, 85
2, 47100, Note_on_c, 0, 70, 0
2, 47100, Note_on_c, 0, 82, 85
2, 47134, Note_on_c, 0, 82, 0
2, 47184, Note_on_c, 0, 64, 83
2, 47184, Note_on_c, 0, 58, 83
2, 47229, Note_on_c, 0, 64, 0
2, 47229, Note_on_c, 0, 58, 0
2, 47232, Note_on_c, 0, 65, 81
2, 47232, Note_on_c, 0, 57, 81
2, 47321, Note_on_c, 0, 65, 0
2, 47321, Note_on_c, 0, 57, 0
2, 47520, End_track
3, 0, Start_track
3, 0, Program_c, 0, 0
3, 0, Control_c, 0, 7, 127
3, 0, Control_c, 0, 10, 64
3, 47520, End_track
4, 0, Start_track
4, 0, Program_c, 1, 0
4, 0, Control_c, 1, 7, 127
4, 0, Control_c, 1, 10, 64
4, 288, Note_on_c, 1, 69, 77
4, 288, Note_on_c, 1, 65, 77
4, 377, Note_on_c, 1, 69, 0
4, 377, Note_on_c, 1, 65, 0
4, 576, Note_on_c, 1, 62, 77
4, 576, Note_on_c, 1, 58, 77
4, 672, Note_on_c, 1, 62, 0
4, 672, Note_on_c, 1, 58, 0
4, 672, Note_on_c, 1, 60, 77
4, 672, Note_on_c, 1, 57, 77
4, 717, Note_on_c, 1, 60, 0
4, 717, Note_on_c, 1, 57, 0
4, 864, Note_on_c, 1, 69, 77
4, 864, Note_on_c, 1, 65, 77
4, 953, Note_on_c, 1, 69, 0
4, 953, Note_on_c, 1, 65, 0
4, 1152, Note_on_c, 1, 67, 77
4, 1152, Note_on_c, 1, 60, 77
4, 1248, Note_on_c, 1, 67, 0
4, 1248, Note_on_c, 1, 60, 0
4, 1248, Note_on_c, 1, 65, 77
4, 1293, Note_on_c, 1, 65, 0
4, 1488, Note_on_c, 1, 69, 77
4, 1533, Note_on_c, 1, 69, 0
4, 1536, Note_on_c, 1, 66, 77
4, 1581, Note_on_c, 1, 66, 0
4, 1584, Note_on_c, 1, 67, 77
4, 1629, Note_on_c, 1, 67, 0
4, 1632, Note_on_c, 1, 64, 77
4, 1677, Note_on_c, 1, 64, 0
4, 1680, Note_on_c, 1, 65, 77
4, 1725, Note_on_c, 1, 65, 0
4, 1728, Note_on_c, 1, 58, 77
4, 1905, Note_on_c, 1, 58, 0
4, 1920, Note_on_c, 1, 57, 77
4, 2061, Note_on_c, 1, 57, 0
4, 2064, Note_on_c, 1, 50, 77
4, 2109, Note_on_c, 1, 50, 0
4, 2112, Note_on_c, 1, 55, 77
4, 2157, Note_on_c, 1, 55, 0
4, 2160, Note_on_c, 1, 52, 77
4, 2205, Note_on_c, 1, 52, 0
4, 2208, Note_on_c, 1, 53, 77
4, 2253, Note_on_c, 1, 53, 0
4, 2256, Note_on_c, 1, 47, 77
4, 2301, Note_on_c, 1, 47, 0
4, 2304, Note_on_c, 1, 48, 77
4, 2437, Note_on_c, 1, 48, 0
4, 2592, Note_on_c, 1, 69, 77
4, 2592, Note_on_c, 1, 65, 77
4, 2681, Note_on_c, 1, 69, 0
4, 2681, Note_on_c, 1, 65, 0
4, 2880, Note_on_c, 1, 62, 77
4, 2880, Note_on_c, 1, 58, 77
4, 2976, Note_on_c, 1, 62, 0
4, 2976, Note_on_c, 1, 58, 0
4, 2976, Note_on_c, 1, 60, 77
4, 2976, Note_on_c, 1, 57, 77
4, 3021, Note_on_c, 1, 60, 0
4, 3021, Note_on_c, 1, 57, 0
4, 3168, Note_on_c, 1, 69, 77
4, 3168, Note_on_c, 1, 65, 77
4, 3257, Note_on_c, 1, 69, 0
4, 3257, Note_on_c, 1, 65, 0
4, 3456, Note_on_c, 1, 67, 77
4, 3456, Note_on_c, 1, 60, 77
4, 3552, Note_on_c, 1, 67, 0
4, 3552, Note_on_c, 1, 60, 0
4, 3552, Note_on_c, 1, 65, 77
4, 3597, Note_on_c, 1, 65, 0
4, 3792, Note_on_c, 1, 69, 77
4, 3837, Note_on_c, 1, 69, 0
4, 3840, Note_on_c, 1, 66, 77
4, 3885, Note_on_c, 1, 66, 0
4, 3888, Note_on_c, 1, 67, 77
4, 3933, Note_on_c, 1, 67, 0
4, 3936, Note_on_c, 1, 64, 77
4, 3981, Note_on_c, 1, 64, 0
4, 3984, Note_on_c, 1, 65, 77
4, 4029, Note_on_c, 1, 65, 0
4, 4032, Note_on_c, 1, 58, 77
4, 4209, Note_on_c, 1, 58, 0
4, 4224, Note_on_c, 1, 57, 77
4, 4365, Note_on_c, 1, 57, 0
4, 4368, Note_on_c, 1, 50, 77
4, 4413, Note_on_c, 1, 50, 0
4, 4416, Note_on_c, 1, 55, 77
4, 4461, Note_on_c, 1, 55, 0
4, 4464, Note_on_c, 1, 52, 77
4, 4509, Note_on_c, 1, 52, 0
4, 4512, Note_on_c, 1, 53, 77
4, 4557, Note_on_c, 1, 53, 0
4, 4560, Note_on_c, 1, 47, 77
4, 4605, Note_on_c, 1, 47, 0
4, 4608, Note_on_c, 1, 48, 77
4, 4741, Note_on_c, 1, 48, 0
4, 4776, Note_on_c, 1, 48, 77
4, 4799, Note_on_c, 1, 48, 0
4, 4800, Note_on_c, 1, 48, 77
4, 4813, Note_on_c, 1, 48, 0
4, 4814, Note_on_c, 1, 50, 77
4, 4827, Note_on_c, 1, 50, 0
4, 4828, Note_on_c, 1, 48, 77
4, 4841, Note_on_c, 1, 48, 0
4, 4842, Note_on_c, 1, 50, 77
4, 4855, Note_on_c, 1, 50, 0
4, 4856, Note_on_c, 1, 48, 77
4, 4869, Note_on_c, 1, 48, 0
4, 4870, Note_on_c, 1, 47, 77
4, 4882, Note_on_c, 1, 47, 0
4, 4883, Note_on_c, 1, 48, 77
4, 4895, Note_on_c, 1, 48, 0
4, 4896, Note_on_c, 1, 60, 77
4, 4941, Note_on_c, 1, 60, 0
4, 4944, Note_on_c, 1, 58, 77
4, 4989, Note_on_c, 1, 58, 0
4, 4992, Note_on_c, 1, 57, 77
4, 5037, Note_on_c, 1, 57, 0
4, 5040, Note_on_c, 1, 55, 77
4, 5085, Note_on_c, 1, 55, 0
4, 5088, Note_on_c, 1, 54, 77
4, 5133, Note_on_c, 1, 54, 0
4, 5136, Note_on_c, 1, 57, 77
4, 5184, Note_on_c, 1, 57, 0
4, 5184, Note_on_c, 1, 55, 77
4, 5229, Note_on_c, 1, 55, 0
4, 5232, Note_on_c, 1, 53, 77
4, 5280, Note_on_c, 1, 53, 0
4, 5280, Note_on_c, 1, 52, 77
4, 5325, Note_on_c, 1, 52, 0
4, 5328, Note_on_c, 1, 55, 77
4, 5376, Note_on_c, 1, 55, 0
4, 5376, Note_on_c, 1, 53, 77
4, 5421, Note_on_c, 1, 53, 0
4, 5424, Note_on_c, 1, 45, 77
4, 5469, Note_on_c, 1, 45, 0
4, 5472, Note_on_c, 1, 46, 77
4, 5605, Note_on_c, 1, 46, 0
4, 5616, Note_on_c, 1, 45, 77
4, 5661, Note_on_c, 1, 45, 0
4, 5664, Note_on_c, 1, 43, 77
4, 5709, Note_on_c, 1, 43, 0
4, 5712, Note_on_c, 1, 46, 77
4, 5757, Note_on_c, 1, 46, 0
4, 5760, Note_on_c, 1, 48, 77
4, 5849, Note_on_c, 1, 48, 0
4, 5856, Note_on_c, 1, 36, 77
4, 5901, Note_on_c, 1, 36, 0
4, 6048, Note_on_c, 1, 48, 77
4, 6137, Note_on_c, 1, 48, 0
4, 6336, Note_on_c, 1, 60, 77
4, 6425, Note_on_c, 1, 60, 0
4, 6480, Note_on_c, 1, 60, 77
4, 6503, Note_on_c, 1, 60, 0
4, 6504, Note_on_c, 1, 62, 77
4, 6527, Note_on_c, 1, 62, 0
4, 6528, Note_on_c, 1, 64, 77
4, 6551, Note_on_c, 1, 64, 0
4, 6552, Note_on_c, 1, 65, 77
4, 6575, Note_on_c, 1, 65, 0
4, 6576, Note_on_c, 1, 67, 77
4, 6599, Note_on_c, 1, 67, 0
4, 6600, Note_on_c, 1, 69, 77
4, 6623, Note_on_c, 1, 69, 0
4, 6624, Note_on_c, 1, 70, 77
4, 6801, Note_on_c, 1, 70, 0
4, 6816, Note_on_c, 1, 69, 77
4, 6957, Note_on_c, 1, 69, 0
4, 6960, Note_on_c, 1, 62, 77
4, 7005, Note_on_c, 1, 62, 0
4, 7008, Note_on_c, 1, 67, 77
4, 7053, Note_on_c, 1, 67, 0
4, 7056, Note_on_c, 1, 64, 77
4, 7101, Note_on_c, 1, 64, 0
4, 7104, Note_on_c, 1, 65, 77
4, 7149, Note_on_c, 1, 65, 0
4, 7152, Note_on_c, 1, 57, 77
4, 7197, Note_on_c, 1, 57, 0
4, 7200, Note_on_c, 1, 58, 77
4, 7289, Note_on_c, 1, 58, 0
4, 7392, Note_on_c, 1, 48, 77
4, 7481, Note_on_c, 1, 48, 0
4, 7488, Note_on_c, 1, 53, 77
4, 7577, Note_on_c, 1, 53, 0
4, 7584, Note_on_c, 1, 41, 77
4, 7629, Note_on_c, 1, 41, 0
4, 7656, Note_on_c, 1, 48, 77
4, 7679, Note_on_c, 1, 48, 0
4, 7680, Note_on_c, 1, 48, 77
4, 7693, Note_on_c, 1, 48, 0
4, 7694, Note_on_c, 1, 50, 77
4, 7707, Note_on_c, 1, 50, 0
4, 7708, Note_on_c, 1, 48, 77
4, 7721, Note_on_c, 1, 48, 0
4, 7722, Note_on_c, 1, 50, 77
4, 7735, Note_on_c, 1, 50, 0
4, 7736, Note_on_c, 1, 48, 77
4, 7749, Note_on_c, 1, 48, 0
4, 7750, Note_on_c, 1, 47, 77
4, 7762, Note_on_c, 1, 47, 0
4, 7763, Note_on_c, 1, 48, 77
4, 7775, Note_on_c, 1, 48, 0
4, 7776, Note_on_c, 1, 60, 77
4, 7821, Note_on_c, 1, 60, 0
4, 7824, Note_on_c, 1, 58, 77
4, 7869, Note_on_c, 1, 58, 0
4, 7872, Note_on_c, 1, 57, 77
4, 7917, Note_on_c, 1, 57, 0
4, 7920, Note_on_c, 1, 55, 77
4, 7965, Note_on_c, 1, 55, 0
4, 7968, Note_on_c, 1, 54, 77
4, 8013, Note_on_c, 1, 54, 0
4, 8016, Note_on_c, 1, 57, 77
4, 8064, Note_on_c, 1, 57, 0
4, 8064, Note_on_c, 1, 55, 77
4, 8109, Note_on_c, 1, 55, 0
4, 8112, Note_on_c, 1, 53, 77
4, 8160, Note_on_c, 1, 53, 0
4, 8160, Note_on_c, 1, 52, 77
4, 8205, Note_on_c, 1, 52, 0
4, 8208, Note_on_c, 1, 55, 77
4, 8256, Note_on_c, 1, 55, 0
4, 8256, Note_on_c, 1, 53, 77
4, 8301, Note_on_c, 1, 53, 0
4, 8304, Note_on_c, 1, 45, 77
4, 8349, Note_on_c, 1, 45, 0
4, 8352, Note_on_c, 1, 46, 77
4, 8485, Note_on_c, 1, 46, 0
4, 8496, Note_on_c, 1, 45, 77
4, 8541, Note_on_c, 1, 45, 0
4, 8544, Note_on_c, 1, 43, 77
4, 8589, Note_on_c, 1, 43, 0
4, 8592, Note_on_c, 1, 46, 77
4, 8637, Note_on_c, 1, 46, 0
4, 8640, Note_on_c, 1, 48, 77
4, 8729, Note_on_c, 1, 48, 0
4, 8736, Note_on_c, 1, 36, 77
4, 8781, Note_on_c, 1, 36, 0
4, 8928, Note_on_c, 1, 48, 77
4, 9017, Note_on_c, 1, 48, 0
4, 9216, Note_on_c, 1, 60, 77
4, 9305, Note_on_c, 1, 60, 0
4, 9360, Note_on_c, 1, 60, 77
4, 9383, Note_on_c, 1, 60, 0
4, 9384, Note_on_c, 1, 62, 77
4, 9407, Note_on_c, 1, 62, 0
4, 9408, Note_on_c, 1, 64, 77
4, 9431, Note_on_c, 1, 64, 0
4, 9432, Note_on_c, 1, 65, 77
4, 9455, Note_on_c, 1, 65, 0
4, 9456, Note_on_c, 1, 67, 77
4, 9479, Note_on_c, 1, 67, 0
4, 9480, Note_on_c, 1, 69, 77
4, 9503, Note_on_c, 1, 69, 0
4, 9504, Note_on_c, 1, 70, 77
4, 9681, Note_on_c, 1, 70, 0
4, 9696, Note_on_c, 1, 69, 77
4, 9837, Note_on_c, 1, 69, 0
4, 9840, Note_on_c, 1, 62, 77
4, 9885, Note_on_c, 1, 62, 0
4, 9888, Note_on_c, 1, 67, 77
4, 9933, Note_on_c, 1, 67, 0
4, 9936, Note_on_c, 1, 64, 77
4, 9981, Note_on_c, 1, 64, 0
4, 9984, Note_on_c, 1, 65, 77
4, 10029, Note_on_c, 1, 65, 0
4, 10032, Note_on_c, 1, 57, 77
4, 10077, Note_on_c, 1, 57, 0
4, 10080, Note_on_c, 1, 58, 77
4, 10169, Note_on_c, 1, 58, 0
4, 10272, Note_on_c, 1, 48, 77
4, 10361, Note_on_c, 1, 48, 0
4, 10368, Note_on_c, 1, 53, 77
4, 10457, Note_on_c, 1, 53, 0
4, 10464, Note_on_c, 1, 41, 77
4, 10509, Note_on_c, 1, 41, 0
4, 10704, Note_on_c, 1, 60, 61
4, 10704, Note_on_c, 1, 56, 61
4, 10752, Note_on_c, 1, 60, 0
4, 10752, Note_on_c, 1, 56, 0
4, 10752, Note_on_c, 1, 58, 61
4, 10752, Note_on_c, 1, 55, 61
4, 10885, Note_on_c, 1, 58, 0
4, 10885, Note_on_c, 1, 55, 0
4, 10896, Note_on_c, 1, 52, 61
4, 10896, Note_on_c, 1, 48, 61
4, 10944, Note_on_c, 1, 52, 0
4, 10944, Note_on_c, 1, 48, 0
4, 10944, Note_on_c, 1, 53, 61
4, 10944, Note_on_c, 1, 49, 61
4, 11077, Note_on_c, 1, 53, 0
4, 11077, Note_on_c, 1, 49, 0
4, 11088, Note_on_c, 1, 48, 61
4, 11088, Note_on_c, 1, 44, 61
4, 11136, Note_on_c, 1, 48, 0
4, 11136, Note_on_c, 1, 44, 0
4, 11136, Note_on_c, 1, 49, 61
4, 11136, Note_on_c, 1, 46, 61
4, 11277, Note_on_c, 1, 49, 0
4, 11277, Note_on_c, 1, 46, 0
4, 11280, Note_on_c, 1, 56, 61
4, 11280, Note_on_c, 1, 53, 61
4, 11325, Note_on_c, 1, 56, 0
4, 11325, Note_on_c, 1, 53, 0
4, 11328, Note_on_c, 1, 55, 61
4, 11417, Note_on_c, 1, 55, 0
4, 11424, Note_on_c, 1, 60, 61
4, 11513, Note_on_c, 1, 60, 0
4, 11520, Note_on_c, 1, 60, 61
4, 11609, Note_on_c, 1, 60, 0
4, 11616, Note_on_c, 1, 60, 61
4, 11705, Note_on_c, 1, 60, 0
4, 11856, Note_on_c, 1, 60, 61
4, 11856, Note_on_c, 1, 56, 61
4, 11904, Note_on_c, 1, 60, 0
4, 11904, Note_on_c, 1, 56, 0
4, 11904, Note_on_c, 1, 58, 61
4, 11904, Note_on_c, 1, 55, 61
4, 12037, Note_on_c, 1, 58, 0
4, 12037, Note_on_c, 1, 55, 0
4, 12048, Note_on_c, 1, 52, 61
4, 12048, Note_on_c, 1, 48, 61
4, 12096, Note_on_c, 1, 52, 0
4, 12096, Note_on_c, 1, 48, 0
4, 12096, Note_on_c, 1, 53, 61
4, 12096, Note_on_c, 1, 49, 61
4, 12229, Note_on_c, 1, 53, 0
4, 12229, Note_on_c, 1, 49, 0
4, 12240, Note_on_c, 1, 68, 61
4, 12240, Note_on_c, 1, 65, 61
4, 12288, Note_on_c, 1, 68, 0
4, 12288, Note_on_c, 1, 65, 0
4, 12288, Note_on_c, 1, 67, 61
4, 12288, Note_on_c, 1, 63, 61
4, 12429, Note_on_c, 1, 67, 0
4, 12429, Note_on_c, 1, 63, 0
4, 12432, Note_on_c, 1, 50, 61
4, 12432, Note_on_c, 1, 38, 61
4, 12477, Note_on_c, 1, 50, 0
4, 12477, Note_on_c, 1, 38, 0
4, 12480, Note_on_c, 1, 51, 61
4, 12480, Note_on_c, 1, 39, 61
4, 12569, Note_on_c, 1, 51, 0
4, 12569, Note_on_c, 1, 39, 0
4, 12576, Note_on_c, 1, 51, 61
4, 12665, Note_on_c, 1, 51, 0
4, 12672, Note_on_c, 1, 56, 61
4, 12761, Note_on_c, 1, 56, 0
4, 12768, Note_on_c, 1, 44, 61
4, 12857, Note_on_c, 1, 44, 0
4, 13008, Note_on_c, 1, 60, 61
4, 13008, Note_on_c, 1, 56, 61
4, 13056, Note_on_c, 1, 60, 0
4, 13056, Note_on_c, 1, 56, 0
4, 13056, Note_on_c, 1, 58, 61
4, 13056, Note_on_c, 1, 55, 61
4, 13189, Note_on_c, 1, 58, 0
4, 13189, Note_on_c, 1, 55, 0
4, 13200, Note_on_c, 1, 52, 61
4, 13200, Note_on_c, 1, 48, 61
4, 13248, Note_on_c, 1, 52, 0
4, 13248, Note_on_c, 1, 48, 0
4, 13248, Note_on_c, 1, 53, 61
4, 13248, Note_on_c, 1, 49, 61
4, 13381, Note_on_c, 1, 53, 0
4, 13381, Note_on_c, 1, 49, 0
4, 13392, Note_on_c, 1, 48, 61
4, 13392, Note_on_c, 1, 44, 61
4, 13440, Note_on_c, 1, 48, 0
4, 13440, Note_on_c, 1, 44, 0
4, 13440, Note_on_c, 1, 49, 61
4, 13440, Note_on_c, 1, 46, 61
4, 13581, Note_on_c, 1, 49, 0
4, 13581, Note_on_c, 1, 46, 0
4, 13584, Note_on_c, 1, 56, 61
4, 13584, Note_on_c, 1, 53, 61
4, 13629, Note_on_c, 1, 56, 0
4, 13629, Note_on_c, 1, 53, 0
4, 13632, Note_on_c, 1, 55, 61
4, 13721, Note_on_c, 1, 55, 0
4, 13728, Note_on_c, 1, 60, 61
4, 13817, Note_on_c, 1, 60, 0
4, 13824, Note_on_c, 1, 60, 61
4, 13913, Note_on_c, 1, 60, 0
4, 13920, Note_on_c, 1, 60, 61
4, 14009, Note_on_c, 1, 60, 0
4, 14160, Note_on_c, 1, 60, 61
4, 14160, Note_on_c, 1, 56, 61
4, 14208, Note_on_c, 1, 60, 0
4, 14208, Note_on_c, 1, 56, 0
4, 14208, Note_on_c, 1, 58, 61
4, 14208, Note_on_c, 1, 55, 61
4, 14341, Note_on_c, 1, 58, 0
4, 14341, Note_on_c, 1, 55, 0
4, 14352, Note_on_c, 1, 52, 61
4, 14352, Note_on_c, 1, 48, 61
4, 14400, Note_on_c, 1, 52, 0
4, 14400, Note_on_c, 1, 48, 0
4, 14400, Note_on_c, 1, 53, 61
4, 14400, Note_on_c, 1, 49, 61
4, 14533, Note_on_c, 1, 53, 0
4, 14533, Note_on_c, 1, 49, 0
4, 14544, Note_on_c, 1, 68, 61
4, 14544, Note_on_c, 1, 65, 61
4, 14592, Note_on_c, 1, 68, 0
4, 14592, Note_on_c, 1, 65, 0
4, 14592, Note_on_c, 1, 67, 61
4, 14592, Note_on_c, 1, 63, 61
4, 14733, Note_on_c, 1, 67, 0
4, 14733, Note_on_c, 1, 63, 0
4, 14736, Note_on_c, 1, 50, 61
4, 14736, Note_on_c, 1, 38, 61
4, 14781, Note_on_c, 1, 50, 0
4, 14781, Note_on_c, 1, 38, 0
4, 14784, Note_on_c, 1, 51, 61
4, 14784, Note_on_c, 1, 39, 61
4, 14873, Note_on_c, 1, 51, 0
4, 14873, Note_on_c, 1, 39, 0
4, 14880, Note_on_c, 1, 51, 61
4, 14969, Note_on_c, 1, 51, 0
4, 14976, Note_on_c, 1, 56, 61
4, 15065, Note_on_c, 1, 56, 0
4, 15072, Note_on_c, 1, 44, 61
4, 15161, Note_on_c, 1, 44, 0
4, 15168, Note_on_c, 1, 63, 61
4, 15213, Note_on_c, 1, 63, 0
4, 15216, Note_on_c, 1, 60, 61
4, 15261, Note_on_c, 1, 60, 0
4, 15264, Note_on_c, 1, 54, 69
4, 15397, Note_on_c, 1, 54, 0
4, 15408, Note_on_c, 1, 53, 69
4, 15453, Note_on_c, 1, 53, 0
4, 15456, Note_on_c, 1, 51, 69
4, 15501, Note_on_c, 1, 51, 0
4, 15504, Note_on_c, 1, 49, 69
4, 15549, Note_on_c, 1, 49, 0
4, 15552, Note_on_c, 1, 48, 69
4, 15597, Note_on_c, 1, 48, 0
4, 15600, Note_on_c, 1, 46, 69
4, 15645, Note_on_c, 1, 46, 0
4, 15648, Note_on_c, 1, 45, 69
4, 15825, Note_on_c, 1, 45, 0
4, 16176, Note_on_c, 1, 64, 69
4, 16221, Note_on_c, 1, 64, 0
4, 16224, Note_on_c, 1, 65, 69
4, 16401, Note_on_c, 1, 65, 0
4, 16416, Note_on_c, 1, 65, 69
4, 16793, Note_on_c, 1, 65, 0
4, 16800, Note_on_c, 1, 64, 69
4, 16889, Note_on_c, 1, 64, 0
4, 17040, Note_on_c, 1, 60, 61
4, 17040, Note_on_c, 1, 56, 61
4, 17088, Note_on_c, 1, 60, 0
4, 17088, Note_on_c, 1, 56, 0
4, 17088, Note_on_c, 1, 58, 61
4, 17088, Note_on_c, 1, 55, 61
4, 17221, Note_on_c, 1, 58, 0
4, 17221, Note_on_c, 1, 55, 0
4, 17232, Note_on_c, 1, 52, 61
4, 17232, Note_on_c, 1, 48, 61
4, 17280, Note_on_c, 1, 52, 0
4, 17280, Note_on_c, 1, 48, 0
4, 17280, Note_on_c, 1, 53, 61
4, 17280, Note_on_c, 1, 49, 61
4, 17413, Note_on_c, 1, 53, 0
4, 17413, Note_on_c, 1, 49, 0
4, 17424, Note_on_c, 1, 48, 61
4, 17424, Note_on_c, 1, 44, 61
4, 17469, Note_on_c, 1, 48, 0
4, 17469, Note_on_c, 1, 44, 0
4, 17472, Note_on_c, 1, 49, 61
4, 17472, Note_on_c, 1, 46, 61
4, 17613, Note_on_c, 1, 49, 0
4, 17613, Note_on_c, 1, 46, 0
4, 17616, Note_on_c, 1, 56, 61
4, 17616, Note_on_c, 1, 53, 61
4, 17661, Note_on_c, 1, 56, 0
4, 17661, Note_on_c, 1, 53, 0
4, 17664, Note_on_c, 1, 55, 61
4, 17753, Note_on_c, 1, 55, 0
4, 17760, Note_on_c, 1, 60, 61
4, 17849, Note_on_c, 1, 60, 0
4, 17856, Note_on_c, 1, 60, 61
4, 17945, Note_on_c, 1, 60, 0
4, 17952, Note_on_c, 1, 60, 61
4, 18041, Note_on_c, 1, 60, 0
4, 18192, Note_on_c, 1, 60, 61
4, 18192, Note_on_c, 1, 56, 61
4, 18240, Note_on_c, 1, 60, 0
4, 18240, Note_on_c, 1, 56, 0
4, 18240, Note_on_c, 1, 58, 61
4, 18240, Note_on_c, 1, 55, 61
4, 18373, Note_on_c, 1, 58, 0
4, 18373, Note_on_c, 1, 55, 0
4, 18384, Note_on_c, 1, 52, 61
4, 18384, Note_on_c, 1, 48, 61
4, 18432, Note_on_c, 1, 52, 0
4, 18432, Note_on_c, 1, 48, 0
4, 18432, Note_on_c, 1, 53, 61
4, 18432, Note_on_c, 1, 49, 61
4, 18565, Note_on_c, 1, 53, 0
4, 18565, Note_on_c, 1, 49, 0
4, 18576, Note_on_c, 1, 72, 61
4, 18576, Note_on_c, 1, 68, 61
4, 18621, Note_on_c, 1, 72, 0
4, 18621, Note_on_c, 1, 68, 0
4, 18624, Note_on_c, 1, 70, 61
4, 18624, Note_on_c, 1, 67, 61
4, 18765, Note_on_c, 1, 70, 0
4, 18765, Note_on_c, 1, 67, 0
4, 18768, Note_on_c, 1, 60, 61
4, 18813, Note_on_c, 1, 60, 0
4, 18816, Note_on_c, 1, 67, 61
4, 18949, Note_on_c, 1, 67, 0
4, 18960, Note_on_c, 1, 64, 61
4, 19005, Note_on_c, 1, 64, 0
4, 19008, Note_on_c, 1, 73, 61
4, 19141, Note_on_c, 1, 73, 0
4, 19152, Note_on_c, 1, 70, 61
4, 19197, Note_on_c, 1, 70, 0
4, 19200, Note_on_c, 1, 79, 61
4, 19200, Note_on_c, 1, 70, 61
4, 19535, Note_on_c, 1, 79, 0
4, 19535, Note_on_c, 1, 70, 0
4, 19632, Note_on_c, 1, 68, 61
4, 19680, Note_on_c, 1, 68, 0
4, 19680, Note_on_c, 1, 65, 62
4, 19725, Note_on_c, 1, 65, 0
4, 19920, Note_on_c, 1, 68, 71
4, 19968, Note_on_c, 1, 68, 0
4, 19968, Note_on_c, 1, 65, 73
4, 20013, Note_on_c, 1, 65, 0
4, 20208, Note_on_c, 1, 68, 81
4, 20256, Note_on_c, 1, 68, 0
4, 20256, Note_on_c, 1, 65, 83
4, 20301, Note_on_c, 1, 65, 0
4, 20304, Note_on_c, 1, 72, 85
4, 20304, Note_on_c, 1, 68, 85
4, 20324, Note_on_c, 1, 72, 0
4, 20324, Note_on_c, 1, 68, 0
4, 20352, Note_on_c, 1, 68, 85
4, 20352, Note_on_c, 1, 65, 85
4, 20372, Note_on_c, 1, 68, 0
4, 20372, Note_on_c, 1, 65, 0
4, 20400, Note_on_c, 1, 72, 85
4, 20400, Note_on_c, 1, 68, 85
4, 20420, Note_on_c, 1, 72, 0
4, 20420, Note_on_c, 1, 68, 0
4, 20448, Note_on_c, 1, 68, 85
4, 20448, Note_on_c, 1, 65, 85
4, 20537, Note_on_c, 1, 68, 0
4, 20537, Note_on_c, 1, 65, 0
4, 20592, Note_on_c, 1, 61, 77
4, 20612, Note_on_c, 1, 61, 0
4, 20640, Note_on_c, 1, 58, 77
4, 20660, Note_on_c, 1, 58, 0
4, 20688, Note_on_c, 1, 60, 77
4, 20708, Note_on_c, 1, 60, 0
4, 20736, Note_on_c, 1, 53, 77
4, 20825, Note_on_c, 1, 53, 0
4, 20928, Note_on_c, 1, 63, 77
4, 20973, Note_on_c, 1, 63, 0
4, 20976, Note_on_c, 1, 60, 77
4, 21021, Note_on_c, 1, 60, 0
4, 21024, Note_on_c, 1, 54, 69
4, 21157, Note_on_c, 1, 54, 0
4, 21168, Note_on_c, 1, 53, 69
4, 21213, Note_on_c, 1, 53, 0
4, 21216, Note_on_c, 1, 51, 69
4, 21261, Note_on_c, 1, 51, 0
4, 21264, Note_on_c, 1, 49, 69
4, 21309, Note_on_c, 1, 49, 0
4, 21312, Note_on_c, 1, 48, 69
4, 21357, Note_on_c, 1, 48, 0
4, 21360, Note_on_c, 1, 46, 69
4, 21405, Note_on_c, 1, 46, 0
4, 21408, Note_on_c, 1, 45, 69
4, 21585, Note_on_c, 1, 45, 0
4, 21936, Note_on_c, 1, 64, 69
4, 21981, Note_on_c, 1, 64, 0
4, 21984, Note_on_c, 1, 65, 69
4, 22161, Note_on_c, 1, 65, 0
4, 22176, Note_on_c, 1, 65, 69
4, 22553, Note_on_c, 1, 65, 0
4, 22560, Note_on_c, 1, 64, 69
4, 22649, Note_on_c, 1, 64, 0
4, 22800, Note_on_c, 1, 60, 61
4, 22800, Note_on_c, 1, 56, 61
4, 22848, Note_on_c, 1, 60, 0
4, 22848, Note_on_c, 1, 56, 0
4, 22848, Note_on_c, 1, 58, 61
4, 22848, Note_on_c, 1, 55, 61
4, 22981, Note_on_c, 1, 58, 0
4, 22981, Note_on_c, 1, 55, 0
4, 22992, Note_on_c, 1, 52, 61
4, 22992, Note_on_c, 1, 48, 61
4, 23040, Note_on_c, 1, 52, 0
4, 23040, Note_on_c, 1, 48, 0
4, 23040, Note_on_c, 1, 53, 61
4, 23040, Note_on_c, 1, 49, 61
4, 23173, Note_on_c, 1, 53, 0
4, 23173, Note_on_c, 1, 49, 0
4, 23184, Note_on_c, 1, 48, 61
4, 23184, Note_on_c, 1, 44, 61
4, 23229, Note_on_c, 1, 48, 0
4, 23229, Note_on_c, 1, 44, 0
4, 23232, Note_on_c, 1, 49, 61
4, 23232, Note_on_c, 1, 46, 61
4, 23373, Note_on_c, 1, 49, 0
4, 23373, Note_on_c, 1, 46, 0
4, 23376, Note_on_c, 1, 56, 61
4, 23376, Note_on_c, 1, 53, 61
4, 23421, Note_on_c, 1, 56, 0
4, 23421, Note_on_c, 1, 53, 0
4, 23424, Note_on_c, 1, 55, 61
4, 23513, Note_on_c, 1, 55, 0
4, 23520, Note_on_c, 1, 60, 61
4, 23609, Note_on_c, 1, 60, 0
4, 23616, Note_on_c, 1, 60, 61
4, 23705, Note_on_c, 1, 60, 0
4, 23712, Note_on_c, 1, 60, 61
4, 23801, Note_on_c, 1, 60, 0
4, 23952, Note_on_c, 1, 60, 61
4, 23952, Note_on_c, 1, 56, 61
4, 24000, Note_on_c, 1, 60, 0
4, 24000, Note_on_c, 1, 56, 0
4, 24000, Note_on_c, 1, 58, 61
4, 24000, Note_on_c, 1, 55, 61
4, 24133, Note_on_c, 1, 58, 0
4, 24133, Note_on_c, 1, 55, 0
4, 24144, Note_on_c, 1, 52, 61
4, 24144, Note_on_c, 1, 48, 61
4, 24192, Note_on_c, 1, 52, 0
4, 24192, Note_on_c, 1, 48, 0
4, 24192, Note_on_c, 1, 53, 61
4, 24192, Note_on_c, 1, 49, 61
4, 24325, Note_on_c, 1, 53, 0
4, 24325, Note_on_c, 1, 49, 0
4, 24336, Note_on_c, 1, 72, 61
4, 24336, Note_on_c, 1, 68, 61
4, 24381, Note_on_c, 1, 72, 0
4, 24381, Note_on_c, 1, 68, 0
4, 24384, Note_on_c, 1, 70, 61
4, 24384, Note_on_c, 1, 67, 61
4, 24525, Note_on_c, 1, 70, 0
4, 24525, Note_on_c, 1, 67, 0
4, 24528, Note_on_c, 1, 60, 61
4, 24573, Note_on_c, 1, 60, 0
4, 24576, Note_on_c, 1, 67, 61
4, 24709, Note_on_c, 1, 67, 0
4, 24720, Note_on_c, 1, 64, 61
4, 24765, Note_on_c, 1, 64, 0
4, 24768, Note_on_c, 1, 73, 61
4, 24901, Note_on_c, 1, 73, 0
4, 24912, Note_on_c, 1, 70, 61
4, 24957, Note_on_c, 1, 70, 0
4, 24960, Note_on_c, 1, 79, 61
4, 24960, Note_on_c, 1, 70, 61
4, 25295, Note_on_c, 1, 79, 0
4, 25295, Note_on_c, 1, 70, 0
4, 25392, Note_on_c, 1, 68, 61
4, 25440, Note_on_c, 1, 68, 0
4, 25440, Note_on_c, 1, 65, 62
4, 25485, Note_on_c, 1, 65, 0
4, 25680, Note_on_c, 1, 68, 71
4, 25728, Note_on_c, 1, 68, 0
4, 25728, Note_on_c, 1, 65, 73
4, 25773, Note_on_c, 1, 65, 0
4, 25968, Note_on_c, 1, 68, 81
4, 26016, Note_on_c, 1, 68, 0
4, 26016, Note_on_c, 1, 65, 83
4, 26061, Note_on_c, 1, 65, 0
4, 26064, Note_on_c, 1, 72, 85
4, 26064, Note_on_c, 1, 68, 85
4, 26084, Note_on_c, 1, 72, 0
4, 26084, Note_on_c, 1, 68, 0
4, 26112, Note_on_c, 1, 68, 85
4, 26112, Note_on_c, 1, 65, 85
4, 26132, Note_on_c, 1, 68, 0
4, 26132, Note_on_c, 1, 65, 0
4, 26160, Note_on_c, 1, 72, 85
4, 26160, Note_on_c, 1, 68, 85
4, 26180, Note_on_c, 1, 72, 0
4, 26180, Note_on_c, 1, 68, 0
4, 26208, Note_on_c, 1, 68, 85
4, 26208, Note_on_c, 1, 65, 85
4, 26297, Note_on_c, 1, 68, 0
4, 26297, Note_on_c, 1, 65, 0
4, 26352, Note_on_c, 1, 61, 77
4, 26372, Note_on_c, 1, 61, 0
4, 26400, Note_on_c, 1, 58, 77
4, 26420, Note_on_c, 1, 58, 0
4, 26448, Note_on_c, 1, 60, 77
4, 26468, Note_on_c, 1, 60, 0
4, 26496, Note_on_c, 1, 53, 77
4, 26585, Note_on_c, 1, 53, 0
4, 26784, Note_on_c, 1, 57, 77
4, 26784, Note_on_c, 1, 53, 77
4, 26873, Note_on_c, 1, 57, 0
4, 26873, Note_on_c, 1, 53, 0
4, 27072, Note_on_c, 1, 62, 77
4, 27072, Note_on_c, 1, 58, 77
4, 27168, Note_on_c, 1, 62, 0
4, 27168, Note_on_c, 1, 58, 0
4, 27168, Note_on_c, 1, 60, 77
4, 27168, Note_on_c, 1, 57, 77
4, 27213, Note_on_c, 1, 60, 0
4, 27213, Note_on_c, 1, 57, 0
4, 27360, Note_on_c, 1, 57, 77
4, 27360, Note_on_c, 1, 53, 77
4, 27449, Note_on_c, 1, 57, 0
4, 27449, Note_on_c, 1, 53, 0
4, 27648, Note_on_c, 1, 67, 77
4, 27648, Note_on_c, 1, 60, 77
4, 27744, Note_on_c, 1, 67, 0
4, 27744, Note_on_c, 1, 60, 0
4, 27744, Note_on_c, 1, 65, 77
4, 27789, Note_on_c, 1, 65, 0
4, 27968, Note_on_c, 1, 69, 77
4, 27998, Note_on_c, 1, 69, 0
4, 28000, Note_on_c, 1, 67, 77
4, 28030, Note_on_c, 1, 67, 0
4, 28032, Note_on_c, 1, 66, 77
4, 28062, Note_on_c, 1, 66, 0
4, 28064, Note_on_c, 1, 67, 77
4, 28094, Note_on_c, 1, 67, 0
4, 28096, Note_on_c, 1, 65, 77
4, 28126, Note_on_c, 1, 65, 0
4, 28128, Note_on_c, 1, 64, 77
4, 28158, Note_on_c, 1, 64, 0
4, 28160, Note_on_c, 1, 65, 77
4, 28190, Note_on_c, 1, 65, 0
4, 28192, Note_on_c, 1, 57, 77
4, 28222, Note_on_c, 1, 57, 0
4, 28224, Note_on_c, 1, 58, 77
4, 28401, Note_on_c, 1, 58, 0
4, 28416, Note_on_c, 1, 57, 77
4, 28542, Note_on_c, 1, 57, 0
4, 28544, Note_on_c, 1, 50, 77
4, 28574, Note_on_c, 1, 50, 0
4, 28576, Note_on_c, 1, 54, 77
4, 28606, Note_on_c, 1, 54, 0
4, 28608, Note_on_c, 1, 55, 77
4, 28638, Note_on_c, 1, 55, 0
4, 28640, Note_on_c, 1, 48, 77
4, 28670, Note_on_c, 1, 48, 0
4, 28672, Note_on_c, 1, 52, 77
4, 28702, Note_on_c, 1, 52, 0
4, 28704, Note_on_c, 1, 53, 77
4, 28734, Note_on_c, 1, 53, 0
4, 28736, Note_on_c, 1, 50, 77
4, 28766, Note_on_c, 1, 50, 0
4, 28768, Note_on_c, 1, 47, 77
4, 28798, Note_on_c, 1, 47, 0
4, 28800, Note_on_c, 1, 53, 77
4, 28889, Note_on_c, 1, 53, 0
4, 28896, Note_on_c, 1, 52, 77
4, 28941, Note_on_c, 1, 52, 0
4, 29088, Note_on_c, 1, 57, 77
4, 29088, Note_on_c, 1, 53, 77
4, 29177, Note_on_c, 1, 57, 0
4, 29177, Note_on_c, 1, 53, 0
4, 29376, Note_on_c, 1, 62, 77
4, 29376, Note_on_c, 1, 58, 77
4, 29472, Note_on_c, 1, 62, 0
4, 29472, Note_on_c, 1, 58, 0
4, 29472, Note_on_c, 1, 60, 77
4, 29472, Note_on_c, 1, 57, 77
4, 29517, Note_on_c, 1, 60, 0
4, 29517, Note_on_c, 1, 57, 0
4, 29664, Note_on_c, 1, 57, 77
4, 29664, Note_on_c, 1, 53, 77
4, 29753, Note_on_c, 1, 57, 0
4, 29753, Note_on_c, 1, 53, 0
4, 29952, Note_on_c, 1, 67, 77
4, 29952, Note_on_c, 1, 60, 77
4, 30048, Note_on_c, 1, 67, 0
4, 30048, Note_on_c, 1, 60, 0
4, 30048, Note_on_c, 1, 65, 77
4, 30093, Note_on_c, 1, 65, 0
4, 30272, Note_on_c, 1, 69, 77
4, 30302, Note_on_c, 1, 69, 0
4, 30304, Note_on_c, 1, 67, 77
4, 30334, Note_on_c, 1, 67, 0
4, 30336, Note_on_c, 1, 66, 77
4, 30366, Note_on_c, 1, 66, 0
4, 30368, Note_on_c, 1, 67, 77
4, 30398, Note_on_c, 1, 67, 0
4, 30400, Note_on_c, 1, 65, 77
4, 30430, Note_on_c, 1, 65, 0
4, 30432, Note_on_c, 1, 64, 77
4, 30462, Note_on_c, 1, 64, 0
4, 30464, Note_on_c, 1, 65, 77
4, 30494, Note_on_c, 1, 65, 0
4, 30496, Note_on_c, 1, 57, 77
4, 30526, Note_on_c, 1, 57, 0
4, 30528, Note_on_c, 1, 58, 77
4, 30705, Note_on_c, 1, 58, 0
4, 30720, Note_on_c, 1, 57, 77
4, 30846, Note_on_c, 1, 57, 0
4, 30848, Note_on_c, 1, 50, 77
4, 30878, Note_on_c, 1, 50, 0
4, 30880, Note_on_c, 1, 54, 77
4, 30910, Note_on_c, 1, 54, 0
4, 30912, Note_on_c, 1, 55, 77
4, 30942, Note_on_c, 1, 55, 0
4, 30944, Note_on_c, 1, 48, 77
4, 30974, Note_on_c, 1, 48, 0
4, 30976, Note_on_c, 1, 52, 77
4, 31006, Note_on_c, 1, 52, 0
4, 31008, Note_on_c, 1, 53, 77
4, 31038, Note_on_c, 1, 53, 0
4, 31040, Note_on_c, 1, 50, 77
4, 31070, Note_on_c, 1, 50, 0
4, 31072, Note_on_c, 1, 47, 77
4, 31102, Note_on_c, 1, 47, 0
4, 31104, Note_on_c, 1, 48, 77
4, 31237, Note_on_c, 1, 48, 0
4, 31272, Note_on_c, 1, 48, 77
4, 31295, Note_on_c, 1, 48, 0
4, 31296, Note_on_c, 1, 50, 77
4, 31308, Note_on_c, 1, 50, 0
4, 31308, Note_on_c, 1, 48, 77
4, 31320, Note_on_c, 1, 48, 0
4, 31320, Note_on_c, 1, 50, 77
4, 31332, Note_on_c, 1, 50, 0
4, 31332, Note_on_c, 1, 48, 77
4, 31344, Note_on_c, 1, 48, 0
4, 31344, Note_on_c, 1, 50, 77
4, 31356, Note_on_c, 1, 50, 0
4, 31356, Note_on_c, 1, 48, 77
4, 31368, Note_on_c, 1, 48, 0
4, 31368, Note_on_c, 1, 47, 77
4, 31380, Note_on_c, 1, 47, 0
4, 31380, Note_on_c, 1, 48, 77
4, 31392, Note_on_c, 1, 48, 0
4, 31392, Note_on_c, 1, 60, 77
4, 31422, Note_on_c, 1, 60, 0
4, 31424, Note_on_c, 1, 58, 77
4, 31454, Note_on_c, 1, 58, 0
4, 31456, Note_on_c, 1, 57, 77
4, 31486, Note_on_c, 1, 57, 0
4, 31488, Note_on_c, 1, 55, 77
4, 31518, Note_on_c, 1, 55, 0
4, 31520, Note_on_c, 1, 54, 77
4, 31550, Note_on_c, 1, 54, 0
4, 31552, Note_on_c, 1, 57, 77
4, 31582, Note_on_c, 1, 57, 0
4, 31584, Note_on_c, 1, 50, 77
4, 31614, Note_on_c, 1, 50, 0
4, 31616, Note_on_c, 1, 52, 77
4, 31646, Note_on_c, 1, 52, 0
4, 31648, Note_on_c, 1, 54, 77
4, 31678, Note_on_c, 1, 54, 0
4, 31680, Note_on_c, 1, 55, 77
4, 31710, Note_on_c, 1, 55, 0
4, 31712, Note_on_c, 1, 57, 77
4, 31742, Note_on_c, 1, 57, 0
4, 31744, Note_on_c, 1, 58, 77
4, 31774, Note_on_c, 1, 58, 0
4, 31776, Note_on_c, 1, 52, 77
4, 31806, Note_on_c, 1, 52, 0
4, 31808, Note_on_c, 1, 53, 77
4, 31838, Note_on_c, 1, 53, 0
4, 31840, Note_on_c, 1, 55, 77
4, 31870, Note_on_c, 1, 55, 0
4, 31872, Note_on_c, 1, 48, 77
4, 31902, Note_on_c, 1, 48, 0
4, 31904, Note_on_c, 1, 50, 77
4, 31934, Note_on_c, 1, 50, 0
4, 31936, Note_on_c, 1, 52, 77
4, 31966, Note_on_c, 1, 52, 0
4, 31968, Note_on_c, 1, 53, 77
4, 32057, Note_on_c, 1, 53, 0
4, 32064, Note_on_c, 1, 46, 79
4, 32153, Note_on_c, 1, 46, 0
4, 32160, Note_on_c, 1, 46, 82
4, 32227, Note_on_c, 1, 46, 0
4, 32232, Note_on_c, 1, 47, 85
4, 32255, Note_on_c, 1, 47, 0
4, 32256, Note_on_c, 1, 48, 85
4, 32345, Note_on_c, 1, 48, 0
4, 32352, Note_on_c, 1, 36, 77
4, 32441, Note_on_c, 1, 36, 0
4, 32544, Note_on_c, 1, 55, 77
4, 32574, Note_on_c, 1, 55, 0
4, 32576, Note_on_c, 1, 57, 77
4, 32606, Note_on_c, 1, 57, 0
4, 32608, Note_on_c, 1, 53, 77
4, 32638, Note_on_c, 1, 53, 0
4, 32640, Note_on_c, 1, 52, 77
4, 32729, Note_on_c, 1, 52, 0
4, 32832, Note_on_c, 1, 64, 77
4, 32862, Note_on_c, 1, 64, 0
4, 32864, Note_on_c, 1, 65, 77
4, 32894, Note_on_c, 1, 65, 0
4, 32896, Note_on_c, 1, 62, 77
4, 32926, Note_on_c, 1, 62, 0
4, 32928, Note_on_c, 1, 60, 77
4, 33017, Note_on_c, 1, 60, 0
4, 33120, Note_on_c, 1, 70, 77
4, 33297, Note_on_c, 1, 70, 0
4, 33312, Note_on_c, 1, 69, 77
4, 33438, Note_on_c, 1, 69, 0
4, 33440, Note_on_c, 1, 62, 77
4, 33470, Note_on_c, 1, 62, 0
4, 33472, Note_on_c, 1, 66, 77
4, 33502, Note_on_c, 1, 66, 0
4, 33504, Note_on_c, 1, 67, 77
4, 33534, Note_on_c, 1, 67, 0
4, 33536, Note_on_c, 1, 60, 77
4, 33566, Note_on_c, 1, 60, 0
4, 33568, Note_on_c, 1, 64, 77
4, 33598, Note_on_c, 1, 64, 0
4, 33600, Note_on_c, 1, 65, 77
4, 33630, Note_on_c, 1, 65, 0
4, 33632, Note_on_c, 1, 60, 77
4, 33662, Note_on_c, 1, 60, 0
4, 33664, Note_on_c, 1, 57, 77
4, 33694, Note_on_c, 1, 57, 0
4, 33696, Note_on_c, 1, 58, 77
4, 33873, Note_on_c, 1, 58, 0
4, 33888, Note_on_c, 1, 70, 77
4, 33888, Note_on_c, 1, 60, 77
4, 33977, Note_on_c, 1, 70, 0
4, 33977, Note_on_c, 1, 60, 0
4, 33984, Note_on_c, 1, 70, 77
4, 33984, Note_on_c, 1, 65, 77
4, 34080, Note_on_c, 1, 70, 0
4, 34080, Note_on_c, 1, 69, 77
4, 34125, Note_on_c, 1, 69, 0
4, 34125, Note_on_c, 1, 65, 0
4, 34152, Note_on_c, 1, 48, 77
4, 34175, Note_on_c, 1, 48, 0
4, 34176, Note_on_c, 1, 48, 77
4, 34189, Note_on_c, 1, 48, 0
4, 34190, Note_on_c, 1, 50, 77
4, 34203, Note_on_c, 1, 50, 0
4, 34204, Note_on_c, 1, 48, 77
4, 34217, Note_on_c, 1, 48, 0
4, 34218, Note_on_c, 1, 50, 77
4, 34231, Note_on_c, 1, 50, 0
4, 34232, Note_on_c, 1, 48, 77
4, 34245, Note_on_c, 1, 48, 0
4, 34246, Note_on_c, 1, 47, 77
4, 34258, Note_on_c, 1, 47, 0
4, 34259, Note_on_c, 1, 48, 77
4, 34271, Note_on_c, 1, 48, 0
4, 34272, Note_on_c, 1, 60, 77
4, 34302, Note_on_c, 1, 60, 0
4, 34304, Note_on_c, 1, 58, 77
4, 34334, Note_on_c, 1, 58, 0
4, 34336, Note_on_c, 1, 57, 77
4, 34366, Note_on_c, 1, 57, 0
4, 34368, Note_on_c, 1, 55, 77
4, 34398, Note_on_c, 1, 55, 0
4, 34400, Note_on_c, 1, 54, 77
4, 34430, Note_on_c, 1, 54, 0
4, 34432, Note_on_c, 1, 57, 77
4, 34462, Note_on_c, 1, 57, 0
4, 34464, Note_on_c, 1, 50, 77
4, 34494, Note_on_c, 1, 50, 0
4, 34496, Note_on_c, 1, 52, 77
4, 34526, Note_on_c, 1, 52, 0
4, 34528, Note_on_c, 1, 54, 77
4, 34558, Note_on_c, 1, 54, 0
4, 34560, Note_on_c, 1, 55, 77
4, 34590, Note_on_c, 1, 55, 0
4, 34592, Note_on_c, 1, 57, 77
4, 34622, Note_on_c, 1, 57, 0
4, 34624, Note_on_c, 1, 58, 77
4, 34654, Note_on_c, 1, 58, 0
4, 34656, Note_on_c, 1, 52, 77
4, 34686, Note_on_c, 1, 52, 0
4, 34688, Note_on_c, 1, 53, 77
4, 34718, Note_on_c, 1, 53, 0
4, 34720, Note_on_c, 1, 55, 77
4, 34750, Note_on_c, 1, 55, 0
4, 34752, Note_on_c, 1, 48, 77
4, 34782, Note_on_c, 1, 48, 0
4, 34784, Note_on_c, 1, 50, 77
4, 34814, Note_on_c, 1, 50, 0
4, 34816, Note_on_c, 1, 52, 77
4, 34846, Note_on_c, 1, 52, 0
4, 34848, Note_on_c, 1, 53, 77
4, 34937, Note_on_c, 1, 53, 0
4, 34944, Note_on_c, 1, 46, 79
4, 35033, Note_on_c, 1, 46, 0
4, 35040, Note_on_c, 1, 46, 82
4, 35107, Note_on_c, 1, 46, 0
4, 35112, Note_on_c, 1, 47, 85
4, 35135, Note_on_c, 1, 47, 0
4, 35136, Note_on_c, 1, 48, 85
4, 35225, Note_on_c, 1, 48, 0
4, 35232, Note_on_c, 1, 36, 77
4, 35321, Note_on_c, 1, 36, 0
4, 35424, Note_on_c, 1, 55, 77
4, 35454, Note_on_c, 1, 55, 0
4, 35456, Note_on_c, 1, 57, 77
4, 35486, Note_on_c, 1, 57, 0
4, 35488, Note_on_c, 1, 53, 77
4, 35518, Note_on_c, 1, 53, 0
4, 35520, Note_on_c, 1, 52, 77
4, 35609, Note_on_c, 1, 52, 0
4, 35712, Note_on_c, 1, 64, 77
4, 35742, Note_on_c, 1, 64, 0
4, 35744, Note_on_c, 1, 65, 77
4, 35774, Note_on_c, 1, 65, 0
4, 35776, Note_on_c, 1, 62, 77
4, 35806, Note_on_c, 1, 62, 0
4, 35808, Note_on_c, 1, 60, 77
4, 35897, Note_on_c, 1, 60, 0
4, 36000, Note_on_c, 1, 70, 77
4, 36177, Note_on_c, 1, 70, 0
4, 36192, Note_on_c, 1, 69, 77
4, 36318, Note_on_c, 1, 69, 0
4, 36320, Note_on_c, 1, 62, 77
4, 36350, Note_on_c, 1, 62, 0
4, 36352, Note_on_c, 1, 66, 77
4, 36382, Note_on_c, 1, 66, 0
4, 36384, Note_on_c, 1, 67, 77
4, 36414, Note_on_c, 1, 67, 0
4, 36416, Note_on_c, 1, 60, 77
4, 36446, Note_on_c, 1, 60, 0
4, 36448, Note_on_c, 1, 64, 77
4, 36478, Note_on_c, 1, 64, 0
4, 36480, Note_on_c, 1, 65, 77
4, 36510, Note_on_c, 1, 65, 0
4, 36512, Note_on_c, 1, 60, 77
4, 36542, Note_on_c, 1, 60, 0
4, 36544, Note_on_c, 1, 57, 77
4, 36574, Note_on_c, 1, 57, 0
4, 36576, Note_on_c, 1, 58, 77
4, 36753, Note_on_c, 1, 58, 0
4, 36768, Note_on_c, 1, 70, 77
4, 36768, Note_on_c, 1, 60, 77
4, 36857, Note_on_c, 1, 70, 0
4, 36857, Note_on_c, 1, 60, 0
4, 36864, Note_on_c, 1, 70, 77
4, 36864, Note_on_c, 1, 65, 77
4, 36960, Note_on_c, 1, 70, 0
4, 36960, Note_on_c, 1, 69, 77
4, 37005, Note_on_c, 1, 69, 0
4, 37005, Note_on_c, 1, 65, 0
4, 37152, Note_on_c, 1, 57, 77
4, 37152, Note_on_c, 1, 53, 77
4, 37241, Note_on_c, 1, 57, 0
4, 37241, Note_on_c, 1, 53, 0
4, 37440, Note_on_c, 1, 62, 77
4, 37440, Note_on_c, 1, 58, 77
4, 37536, Note_on_c, 1, 62, 0
4, 37536, Note_on_c, 1, 58, 0
4, 37536, Note_on_c, 1, 60, 77
4, 37536, Note_on_c, 1, 57, 77
4, 37581, Note_on_c, 1, 60, 0
4, 37581, Note_on_c, 1, 57, 0
4, 37728, Note_on_c, 1, 57, 77
4, 37728, Note_on_c, 1, 53, 77
4, 37817, Note_on_c, 1, 57, 0
4, 37817, Note_on_c, 1, 53, 0
4, 38016, Note_on_c, 1, 67, 77
4, 38016, Note_on_c, 1, 60, 77
4, 38112, Note_on_c, 1, 67, 0
4, 38112, Note_on_c, 1, 60, 0
4, 38112, Note_on_c, 1, 65, 77
4, 38157, Note_on_c, 1, 65, 0
4, 38352, Note_on_c, 1, 69, 77
4, 38397, Note_on_c, 1, 69, 0
4, 38400, Note_on_c, 1, 66, 77
4, 38445, Note_on_c, 1, 66, 0
4, 38448, Note_on_c, 1, 67, 77
4, 38493, Note_on_c, 1, 67, 0
4, 38496, Note_on_c, 1, 65, 77
4, 38541, Note_on_c, 1, 65, 0
4, 38544, Note_on_c, 1, 65, 77
4, 38589, Note_on_c, 1, 65, 0
4, 38592, Note_on_c, 1, 58, 77
4, 38769, Note_on_c, 1, 58, 0
4, 38784, Note_on_c, 1, 57, 77
4, 38925, Note_on_c, 1, 57, 0
4, 38928, Note_on_c, 1, 50, 77
4, 38973, Note_on_c, 1, 50, 0
4, 38976, Note_on_c, 1, 55, 77
4, 39021, Note_on_c, 1, 55, 0
4, 39024, Note_on_c, 1, 52, 77
4, 39069, Note_on_c, 1, 52, 0
4, 39072, Note_on_c, 1, 53, 77
4, 39117, Note_on_c, 1, 53, 0
4, 39120, Note_on_c, 1, 47, 77
4, 39165, Note_on_c, 1, 47, 0
4, 39168, Note_on_c, 1, 48, 77
4, 39301, Note_on_c, 1, 48, 0
4, 39456, Note_on_c, 1, 57, 77
4, 39456, Note_on_c, 1, 53, 77
4, 39545, Note_on_c, 1, 57, 0
4, 39545, Note_on_c, 1, 53, 0
4, 39744, Note_on_c, 1, 62, 77
4, 39744, Note_on_c, 1, 58, 77
4, 39840, Note_on_c, 1, 62, 0
4, 39840, Note_on_c, 1, 58, 0
4, 39840, Note_on_c, 1, 60, 77
4, 39840, Note_on_c, 1, 57, 77
4, 39885, Note_on_c, 1, 60, 0
4, 39885, Note_on_c, 1, 57, 0
4, 40032, Note_on_c, 1, 57, 77
4, 40032, Note_on_c, 1, 53, 77
4, 40121, Note_on_c, 1, 57, 0
4, 40121, Note_on_c, 1, 53, 0
4, 40320, Note_on_c, 1, 67, 77
4, 40320, Note_on_c, 1, 60, 77
4, 40416, Note_on_c, 1, 67, 0
4, 40416, Note_on_c, 1, 60, 0
4, 40416, Note_on_c, 1, 65, 77
4, 40461, Note_on_c, 1, 65, 0
4, 40632, Note_on_c, 1, 69, 77
4, 40655, Note_on_c, 1, 69, 0
4, 40656, Note_on_c, 1, 67, 77
4, 40679, Note_on_c, 1, 67, 0
4, 40680, Note_on_c, 1, 69, 77
4, 40703, Note_on_c, 1, 69, 0
4, 40704, Note_on_c, 1, 66, 77
4, 40749, Note_on_c, 1, 66, 0
4, 40752, Note_on_c, 1, 67, 77
4, 40797, Note_on_c, 1, 67, 0
4, 40800, Note_on_c, 1, 65, 77
4, 40845, Note_on_c, 1, 65, 0
4, 40848, Note_on_c, 1, 65, 77
4, 40893, Note_on_c, 1, 65, 0
4, 40896, Note_on_c, 1, 58, 77
4, 41073, Note_on_c, 1, 58, 0
4, 41088, Note_on_c, 1, 57, 77
4, 41177, Note_on_c, 1, 57, 0
4, 41184, Note_on_c, 1, 57, 77
4, 41207, Note_on_c, 1, 57, 0
4, 41208, Note_on_c, 1, 50, 77
4, 41231, Note_on_c, 1, 50, 0
4, 41232, Note_on_c, 1, 52, 77
4, 41255, Note_on_c, 1, 52, 0
4, 41256, Note_on_c, 1, 54, 77
4, 41279, Note_on_c, 1, 54, 0
4, 41280, Note_on_c, 1, 55, 77
4, 41303, Note_on_c, 1, 55, 0
4, 41304, Note_on_c, 1, 48, 77
4, 41327, Note_on_c, 1, 48, 0
4, 41328, Note_on_c, 1, 50, 77
4, 41351, Note_on_c, 1, 50, 0
4, 41352, Note_on_c, 1, 52, 77
4, 41375, Note_on_c, 1, 52, 0
4, 41376, Note_on_c, 1, 53, 77
4, 41421, Note_on_c, 1, 53, 0
4, 41424, Note_on_c, 1, 47, 77
4, 41469, Note_on_c, 1, 47, 0
4, 41472, Note_on_c, 1, 48, 77
4, 41613, Note_on_c, 1, 48, 0
4, 41640, Note_on_c, 1, 48, 77
4, 41663, Note_on_c, 1, 48, 0
4, 41664, Note_on_c, 1, 48, 77
4, 41677, Note_on_c, 1, 48, 0
4, 41678, Note_on_c, 1, 50, 77
4, 41691, Note_on_c, 1, 50, 0
4, 41692, Note_on_c, 1, 48, 77
4, 41705, Note_on_c, 1, 48, 0
4, 41706, Note_on_c, 1, 50, 77
4, 41719, Note_on_c, 1, 50, 0
4, 41720, Note_on_c, 1, 48, 77
4, 41733, Note_on_c, 1, 48, 0
4, 41734, Note_on_c, 1, 47, 77
4, 41746, Note_on_c, 1, 47, 0
4, 41747, Note_on_c, 1, 48, 77
4, 41759, Note_on_c, 1, 48, 0
4, 41760, Note_on_c, 1, 60, 77
4, 41805, Note_on_c, 1, 60, 0
4, 41808, Note_on_c, 1, 58, 77
4, 41853, Note_on_c, 1, 58, 0
4, 41856, Note_on_c, 1, 57, 77
4, 41901, Note_on_c, 1, 57, 0
4, 41904, Note_on_c, 1, 55, 77
4, 41952, Note_on_c, 1, 55, 0
4, 41952, Note_on_c, 1, 54, 77
4, 41997, Note_on_c, 1, 54, 0
4, 42000, Note_on_c, 1, 57, 77
4, 42048, Note_on_c, 1, 57, 0
4, 42048, Note_on_c, 1, 55, 77
4, 42093, Note_on_c, 1, 55, 0
4, 42096, Note_on_c, 1, 53, 77
4, 42144, Note_on_c, 1, 53, 0
4, 42144, Note_on_c, 1, 52, 77
4, 42189, Note_on_c, 1, 52, 0
4, 42192, Note_on_c, 1, 55, 77
4, 42237, Note_on_c, 1, 55, 0
4, 42240, Note_on_c, 1, 53, 77
4, 42285, Note_on_c, 1, 53, 0
4, 42288, Note_on_c, 1, 45, 77
4, 42333, Note_on_c, 1, 45, 0
4, 42336, Note_on_c, 1, 46, 77
4, 42469, Note_on_c, 1, 46, 0
4, 42480, Note_on_c, 1, 45, 77
4, 42525, Note_on_c, 1, 45, 0
4, 42528, Note_on_c, 1, 43, 77
4, 42573, Note_on_c, 1, 43, 0
4, 42576, Note_on_c, 1, 46, 77
4, 42621, Note_on_c, 1, 46, 0
4, 42624, Note_on_c, 1, 48, 77
4, 42713, Note_on_c, 1, 48, 0
4, 42720, Note_on_c, 1, 36, 77
4, 42765, Note_on_c, 1, 36, 0
4, 42912, Note_on_c, 1, 48, 77
4, 43001, Note_on_c, 1, 48, 0
4, 43200, Note_on_c, 1, 60, 77
4, 43289, Note_on_c, 1, 60, 0
4, 43344, Note_on_c, 1, 60, 77
4, 43367, Note_on_c, 1, 60, 0
4, 43368, Note_on_c, 1, 62, 77
4, 43391, Note_on_c, 1, 62, 0
4, 43392, Note_on_c, 1, 64, 77
4, 43415, Note_on_c, 1, 64, 0
4, 43416, Note_on_c, 1, 65, 77
4, 43439, Note_on_c, 1, 65, 0
4, 43440, Note_on_c, 1, 67, 77
4, 43463, Note_on_c, 1, 67, 0
4, 43464, Note_on_c, 1, 69, 77
4, 43487, Note_on_c, 1, 69, 0
4, 43488, Note_on_c, 1, 70, 77
4, 43665, Note_on_c, 1, 70, 0
4, 43680, Note_on_c, 1, 69, 77
4, 43769, Note_on_c, 1, 69, 0
4, 43776, Note_on_c, 1, 69, 77
4, 43821, Note_on_c, 1, 69, 0
4, 43824, Note_on_c, 1, 62, 77
4, 43869, Note_on_c, 1, 62, 0
4, 43872, Note_on_c, 1, 67, 77
4, 43917, Note_on_c, 1, 67, 0
4, 43920, Note_on_c, 1, 64, 77
4, 43965, Note_on_c, 1, 64, 0
4, 43968, Note_on_c, 1, 65, 77
4, 44013, Note_on_c, 1, 65, 0
4, 44016, Note_on_c, 1, 57, 77
4, 44061, Note_on_c, 1, 57, 0
4, 44064, Note_on_c, 1, 58, 77
4, 44153, Note_on_c, 1, 58, 0
4, 44256, Note_on_c, 1, 60, 77
4, 44345, Note_on_c, 1, 60, 0
4, 44352, Note_on_c, 1, 53, 77
4, 44441, Note_on_c, 1, 53, 0
4, 44448, Note_on_c, 1, 41, 77
4, 44537, Note_on_c, 1, 41, 0
4, 44640, Note_on_c, 1, 57, 85
4, 44685, Note_on_c, 1, 57, 0
4, 44688, Note_on_c, 1, 55, 85
4, 44733, Note_on_c, 1, 55, 0
4, 44736, Note_on_c, 1, 54, 85
4, 44781, Note_on_c, 1, 54, 0
4, 44784, Note_on_c, 1, 51, 85
4, 44829, Note_on_c, 1, 51, 0
4, 44832, Note_on_c, 1, 50, 85
4, 44877, Note_on_c, 1, 50, 0
4, 44880, Note_on_c, 1, 54, 85
4, 44925, Note_on_c, 1, 54, 0
4, 44928, Note_on_c, 1, 43, 85
4, 44951, Note_on_c, 1, 43, 0
4, 44952, Note_on_c, 1, 55, 85
4, 44975, Note_on_c, 1, 55, 0
4, 44976, Note_on_c, 1, 45, 85
4, 44999, Note_on_c, 1, 45, 0
4, 45000, Note_on_c, 1, 55, 85
4, 45023, Note_on_c, 1, 55, 0
4, 45024, Note_on_c, 1, 46, 85
4, 45047, Note_on_c, 1, 46, 0
4, 45048, Note_on_c, 1, 55, 85
4, 45071, Note_on_c, 1, 55, 0
4, 45072, Note_on_c, 1, 47, 85
4, 45095, Note_on_c, 1, 47, 0
4, 45096, Note_on_c, 1, 55, 85
4, 45119, Note_on_c, 1, 55, 0
4, 45120, Note_on_c, 1, 48, 85
4, 45143, Note_on_c, 1, 48, 0
4, 45144, Note_on_c, 1, 55, 85
4, 45167, Note_on_c, 1, 55, 0
4, 45168, Note_on_c, 1, 52, 85
4, 45191, Note_on_c, 1, 52, 0
4, 45192, Note_on_c, 1, 55, 85
4, 45215, Note_on_c, 1, 55, 0
4, 45216, Note_on_c, 1, 41, 85
4, 45239, Note_on_c, 1, 41, 0
4, 45240, Note_on_c, 1, 53, 85
4, 45263, Note_on_c, 1, 53, 0
4, 45264, Note_on_c, 1, 43, 85
4, 45287, Note_on_c, 1, 43, 0
4, 45288, Note_on_c, 1, 53, 85
4, 45311, Note_on_c, 1, 53, 0
4, 45312, Note_on_c, 1, 45, 85
4, 45335, Note_on_c, 1, 45, 0
4, 45336, Note_on_c, 1, 53, 85
4, 45359, Note_on_c, 1, 53, 0
4, 45360, Note_on_c, 1, 48, 85
4, 45383, Note_on_c, 1, 48, 0
4, 45384, Note_on_c, 1, 53, 85
4, 45407, Note_on_c, 1, 53, 0
4, 45408, Note_on_c, 1, 46, 85
4, 45431, Note_on_c, 1, 46, 0
4, 45432, Note_on_c, 1, 55, 85
4, 45455, Note_on_c, 1, 55, 0
4, 45456, Note_on_c, 1, 50, 85
4, 45479, Note_on_c, 1, 50, 0
4, 45480, Note_on_c, 1, 55, 85
4, 45503, Note_on_c, 1, 55, 0
4, 45504, Note_on_c, 1, 57, 83
4, 45504, Note_on_c, 1, 48, 83
4, 45600, Note_on_c, 1, 57, 0
4, 45600, Note_on_c, 1, 55, 79
4, 45645, Note_on_c, 1, 55, 0
4, 45645, Note_on_c, 1, 48, 0
4, 45792, Note_on_c, 1, 55, 77
4, 45837, Note_on_c, 1, 55, 0
4, 45840, Note_on_c, 1, 53, 77
4, 45885, Note_on_c, 1, 53, 0
4, 45888, Note_on_c, 1, 52, 77
4, 45933, Note_on_c, 1, 52, 0
4, 46080, Note_on_c, 1, 67, 77
4, 46125, Note_on_c, 1, 67, 0
4, 46128, Note_on_c, 1, 65, 77
4, 46173, Note_on_c, 1, 65, 0
4, 46176, Note_on_c, 1, 64, 77
4, 46221, Note_on_c, 1, 64, 0
4, 46224, Note_on_c, 1, 60, 77
4, 46247, Note_on_c, 1, 60, 0
4, 46248, Note_on_c, 1, 62, 77
4, 46271, Note_on_c, 1, 62, 0
4, 46272, Note_on_c, 1, 64, 77
4, 46295, Note_on_c, 1, 64, 0
4, 46296, Note_on_c, 1, 65, 77
4, 46319, Note_on_c, 1, 65, 0
4, 46320, Note_on_c, 1, 67, 77
4, 46343, Note_on_c, 1, 67, 0
4, 46344, Note_on_c, 1, 69, 77
4, 46367, Note_on_c, 1, 69, 0
4, 46368, Note_on_c, 1, 70, 77
4, 46545, Note_on_c, 1, 70, 0
4, 46560, Note_on_c, 1, 69, 77
4, 46649, Note_on_c, 1, 69, 0
4, 46656, Note_on_c, 1, 69, 77
4, 46679, Note_on_c, 1, 69, 0
4, 46680, Note_on_c, 1, 62, 77
4, 46703, Note_on_c, 1, 62, 0
4, 46704, Note_on_c, 1, 64, 77
4, 46727, Note_on_c, 1, 64, 0
4, 46728, Note_on_c, 1, 66, 77
4, 46751, Note_on_c, 1, 66, 0
4, 46752, Note_on_c, 1, 67, 77
4, 46775, Note_on_c, 1, 67, 0
4, 46776, Note_on_c, 1, 60, 77
4, 46799, Note_on_c, 1, 60, 0
4, 46800, Note_on_c, 1, 62, 77
4, 46823, Note_on_c, 1, 62, 0
4, 46824, Note_on_c, 1, 64, 77
4, 46847, Note_on_c, 1, 64, 0
4, 46848, Note_on_c, 1, 65, 77
4, 46871, Note_on_c, 1, 65, 0
4, 46872, Note_on_c, 1, 53, 77
4, 46895, Note_on_c, 1, 53, 0
4, 46896, Note_on_c, 1, 55, 77
4, 46919, Note_on_c, 1, 55, 0
4, 46920, Note_on_c, 1, 57, 77
4, 46943, Note_on_c, 1, 57, 0
4, 46944, Note_on_c, 1, 58, 77
4, 47033, Note_on_c, 1, 58, 0
4, 47136, Note_on_c, 1, 55, 77
4, 47136, Note_on_c, 1, 48, 77
4, 47225, Note_on_c, 1, 55, 0
4, 47225, Note_on_c, 1, 48, 0
4, 47232, Note_on_c, 1, 53, 77
4, 47321, Note_on_c, 1, 53, 0
4, 47328, Note_on_c, 1, 29, 77
4, 47417, Note_on_c, 1, 29, 0
4, 47520, Note_on_c, 1, 29, 4
4, 47609, Note_on_c, 1, 29, 0
4, 47616, End_track
5, 0, Start_track
5, 0, Program_c, 1, 0
5, 0, Control_c, 1, 7, 127
5, 0, Control_c, 1, 10, 64
5, 2208, Note_on_c, 1, 53, 64
5, 2393, Note_on_c, 1, 53, 0
5, 2400, Note_on_c, 1, 52, 64
5, 2445, Note_on_c, 1, 52, 0
5, 4512, Note_on_c, 1, 53, 64
5, 4697, Note_on_c, 1, 53, 0
5, 4704, Note_on_c, 1, 52, 64
5, 4749, Note_on_c, 1, 52, 0
5, 11328, Note_on_c, 1, 52, 64
5, 11505, Note_on_c, 1, 52, 0
5, 11520, Note_on_c, 1, 53, 64
5, 11609, Note_on_c, 1, 53, 0
5, 11616, Note_on_c, 1, 48, 64
5, 11705, Note_on_c, 1, 48, 0
5, 13632, Note_on_c, 1, 52, 64
5, 13809, Note_on_c, 1, 52, 0
5, 13824, Note_on_c, 1, 53, 64
5, 13913, Note_on_c, 1, 53, 0
5, 13920, Note_on_c, 1, 48, 64
5, 14009, Note_on_c, 1, 48, 0
5, 15840, Note_on_c, 1, 46, 64
5, 15929, Note_on_c, 1, 46, 0
5, 15984, Note_on_c, 1, 46, 64
5, 16029, Note_on_c, 1, 46, 0
5, 16032, Note_on_c, 1, 58, 64
5, 16305, Note_on_c, 1, 58, 0
5, 16320, Note_on_c, 1, 56, 64
5, 16593, Note_on_c, 1, 56, 0
5, 16608, Note_on_c, 1, 61, 64
5, 16697, Note_on_c, 1, 61, 0
5, 16704, Note_on_c, 1, 60, 64
5, 16881, Note_on_c, 1, 60, 0
5, 17664, Note_on_c, 1, 52, 64
5, 17841, Note_on_c, 1, 52, 0
5, 17856, Note_on_c, 1, 53, 64
5, 17945, Note_on_c, 1, 53, 0
5, 17952, Note_on_c, 1, 48, 64
5, 18041, Note_on_c, 1, 48, 0
5, 21600, Note_on_c, 1, 46, 64
5, 21689, Note_on_c, 1, 46, 0
5, 21744, Note_on_c, 1, 46, 64
5, 21789, Note_on_c, 1, 46, 0
5, 21792, Note_on_c, 1, 58, 64
5, 22065, Note_on_c, 1, 58, 0
5, 22080, Note_on_c, 1, 56, 64
5, 22353, Note_on_c, 1, 56, 0
5, 22368, Note_on_c, 1, 61, 64
5, 22457, Note_on_c, 1, 61, 0
5, 22464, Note_on_c, 1, 60, 64
5, 22641, Note_on_c, 1, 60, 0
5, 23424, Note_on_c, 1, 52, 64
5, 23601, Note_on_c, 1, 52, 0
5, 23616, Note_on_c, 1, 53, 64
5, 23705, Note_on_c, 1, 53, 0
5, 23712, Note_on_c, 1, 48, 64
5, 23801, Note_on_c, 1, 48, 0
5, 28800, Note_on_c, 1, 48, 64
5, 28933, Note_on_c, 1, 48, 0
5, 31104, Note_on_c, 1, 53, 64
5, 31193, Note_on_c, 1, 53, 0
5, 31200, Note_on_c, 1, 52, 64
5, 31245, Note_on_c, 1, 52, 0
5, 39072, Note_on_c, 1, 53, 64
5, 39257, Note_on_c, 1, 53, 0
5, 39264, Note_on_c, 1, 52, 64
5, 39309, Note_on_c, 1, 52, 0
5, 41376, Note_on_c, 1, 53, 64
5, 41561, Note_on_c, 1, 53, 0
5, 41568, Note_on_c, 1, 52, 64
5, 41613, Note_on_c, 1, 52, 0
5, 47520, End_track
6, 0, Start_track
6, 0, Title_t, "Sonata III   Haydn  "
6, 0, End_track
0, 0, End_of_file
