0, 0, Header, 1, 6, 96
1, 0, Start_track
1, 0, Copyright_t, "Copyright  2000 <copyright holder>"
1, 0, Text_t, "Sonata I\015\012"
1, 0, Text_t, "Haydn\015\012"
1, 0, Sequencer_specific, 16, 68, 87, 77, 90, 86, 82, 83, 78, 32, 55, 46, 48, 46, 56, 46, 48
1, 0, Time_signature, 3, 2, 24, 8
1, 0, Tempo, 444444
1, 0, Key_signature, 2, "major"
1, 90148, End_track
2, 0, Start_track
2, 0, Program_c, 0, 0
2, 0, Control_c, 0, 7, 127
2, 0, Control_c, 0, 10, 64
2, 192, Note_on_c, 0, 81, 78
2, 198, Note_on_c, 0, 81, 0
2, 198, Note_on_c, 0, 81, 94
2, 212, Note_on_c, 0, 81, 0
2, 240, Note_on_c, 0, 83, 78
2, 246, Note_on_c, 0, 83, 0
2, 246, Note_on_c, 0, 81, 78
2, 252, Note_on_c, 0, 81, 0
2, 252, Note_on_c, 0, 79, 78
2, 258, Note_on_c, 0, 79, 0
2, 258, Note_on_c, 0, 81, 78
2, 264, Note_on_c, 0, 81, 0
2, 264, Note_on_c, 0, 86, 78
2, 287, Note_on_c, 0, 86, 0
2, 288, Note_on_c, 0, 81, 78
2, 429, Note_on_c, 0, 81, 0
2, 432, Note_on_c, 0, 78, 79
2, 477, Note_on_c, 0, 78, 0
2, 480, Note_on_c, 0, 79, 80
2, 525, Note_on_c, 0, 79, 0
2, 528, Note_on_c, 0, 76, 80
2, 573, Note_on_c, 0, 76, 0
2, 576, Note_on_c, 0, 78, 81
2, 621, Note_on_c, 0, 78, 0
2, 624, Note_on_c, 0, 74, 81
2, 669, Note_on_c, 0, 74, 0
2, 672, Note_on_c, 0, 76, 82
2, 717, Note_on_c, 0, 76, 0
2, 720, Note_on_c, 0, 73, 82
2, 765, Note_on_c, 0, 73, 0
2, 768, Note_on_c, 0, 74, 83
2, 813, Note_on_c, 0, 74, 0
2, 816, Note_on_c, 0, 69, 83
2, 861, Note_on_c, 0, 69, 0
2, 864, Note_on_c, 0, 71, 84
2, 887, Note_on_c, 0, 71, 0
2, 888, Note_on_c, 0, 73, 83
2, 911, Note_on_c, 0, 73, 0
2, 912, Note_on_c, 0, 74, 83
2, 935, Note_on_c, 0, 74, 0
2, 936, Note_on_c, 0, 71, 82
2, 959, Note_on_c, 0, 71, 0
2, 960, Note_on_c, 0, 69, 82
2, 1101, Note_on_c, 0, 69, 0
2, 1104, Note_on_c, 0, 67, 80
2, 1116, Note_on_c, 0, 67, 0
2, 1116, Note_on_c, 0, 69, 80
2, 1128, Note_on_c, 0, 69, 0
2, 1128, Note_on_c, 0, 67, 80
2, 1149, Note_on_c, 0, 67, 0
2, 1152, Note_on_c, 0, 66, 79
2, 1241, Note_on_c, 0, 66, 0
2, 1344, Note_on_c, 0, 81, 78
2, 1350, Note_on_c, 0, 81, 0
2, 1350, Note_on_c, 0, 81, 78
2, 1364, Note_on_c, 0, 81, 0
2, 1392, Note_on_c, 0, 83, 78
2, 1398, Note_on_c, 0, 83, 0
2, 1398, Note_on_c, 0, 81, 78
2, 1404, Note_on_c, 0, 81, 0
2, 1404, Note_on_c, 0, 79, 78
2, 1410, Note_on_c, 0, 79, 0
2, 1410, Note_on_c, 0, 81, 78
2, 1416, Note_on_c, 0, 81, 0
2, 1416, Note_on_c, 0, 86, 78
2, 1439, Note_on_c, 0, 86, 0
2, 1440, Note_on_c, 0, 81, 78
2, 1581, Note_on_c, 0, 81, 0
2, 1584, Note_on_c, 0, 78, 78
2, 1629, Note_on_c, 0, 78, 0
2, 1632, Note_on_c, 0, 79, 79
2, 1677, Note_on_c, 0, 79, 0
2, 1680, Note_on_c, 0, 76, 79
2, 1725, Note_on_c, 0, 76, 0
2, 1728, Note_on_c, 0, 78, 79
2, 1773, Note_on_c, 0, 78, 0
2, 1776, Note_on_c, 0, 74, 79
2, 1821, Note_on_c, 0, 74, 0
2, 1824, Note_on_c, 0, 76, 80
2, 1869, Note_on_c, 0, 76, 0
2, 1872, Note_on_c, 0, 73, 80
2, 1917, Note_on_c, 0, 73, 0
2, 1920, Note_on_c, 0, 74, 80
2, 1965, Note_on_c, 0, 74, 0
2, 1968, Note_on_c, 0, 78, 81
2, 2013, Note_on_c, 0, 78, 0
2, 2016, Note_on_c, 0, 79, 81
2, 2061, Note_on_c, 0, 79, 0
2, 2064, Note_on_c, 0, 76, 81
2, 2109, Note_on_c, 0, 76, 0
2, 2112, Note_on_c, 0, 81, 81
2, 2157, Note_on_c, 0, 81, 0
2, 2160, Note_on_c, 0, 78, 82
2, 2205, Note_on_c, 0, 78, 0
2, 2208, Note_on_c, 0, 83, 82
2, 2231, Note_on_c, 0, 83, 0
2, 2232, Note_on_c, 0, 79, 82
2, 2255, Note_on_c, 0, 79, 0
2, 2256, Note_on_c, 0, 76, 82
2, 2279, Note_on_c, 0, 76, 0
2, 2280, Note_on_c, 0, 74, 82
2, 2303, Note_on_c, 0, 74, 0
2, 2352, Note_on_c, 0, 76, 83
2, 2367, Note_on_c, 0, 76, 0
2, 2368, Note_on_c, 0, 81, 83
2, 2383, Note_on_c, 0, 81, 0
2, 2384, Note_on_c, 0, 85, 83
2, 2399, Note_on_c, 0, 85, 0
2, 2400, Note_on_c, 0, 86, 83
2, 2439, Note_on_c, 0, 86, 0
2, 2592, Note_on_c, 0, 67, 78
2, 2725, Note_on_c, 0, 67, 0
2, 2736, Note_on_c, 0, 64, 78
2, 2781, Note_on_c, 0, 64, 0
2, 2784, Note_on_c, 0, 66, 78
2, 2829, Note_on_c, 0, 66, 0
2, 2832, Note_on_c, 0, 74, 78
2, 2877, Note_on_c, 0, 74, 0
2, 2880, Note_on_c, 0, 73, 78
2, 3013, Note_on_c, 0, 73, 0
2, 3024, Note_on_c, 0, 76, 78
2, 3069, Note_on_c, 0, 76, 0
2, 3072, Note_on_c, 0, 74, 78
2, 3117, Note_on_c, 0, 74, 0
2, 3120, Note_on_c, 0, 62, 78
2, 3165, Note_on_c, 0, 62, 0
2, 3168, Note_on_c, 0, 67, 78
2, 3301, Note_on_c, 0, 67, 0
2, 3312, Note_on_c, 0, 64, 79
2, 3357, Note_on_c, 0, 64, 0
2, 3360, Note_on_c, 0, 66, 80
2, 3405, Note_on_c, 0, 66, 0
2, 3408, Note_on_c, 0, 74, 80
2, 3453, Note_on_c, 0, 74, 0
2, 3456, Note_on_c, 0, 79, 81
2, 3589, Note_on_c, 0, 79, 0
2, 3600, Note_on_c, 0, 76, 82
2, 3645, Note_on_c, 0, 76, 0
2, 3648, Note_on_c, 0, 78, 83
2, 3693, Note_on_c, 0, 78, 0
2, 3696, Note_on_c, 0, 74, 83
2, 3741, Note_on_c, 0, 74, 0
2, 3744, Note_on_c, 0, 73, 84
2, 3767, Note_on_c, 0, 73, 0
2, 3768, Note_on_c, 0, 71, 83
2, 3791, Note_on_c, 0, 71, 0
2, 3792, Note_on_c, 0, 83, 83
2, 3815, Note_on_c, 0, 83, 0
2, 3816, Note_on_c, 0, 81, 83
2, 3839, Note_on_c, 0, 81, 0
2, 3840, Note_on_c, 0, 79, 82
2, 3863, Note_on_c, 0, 79, 0
2, 3864, Note_on_c, 0, 78, 82
2, 3887, Note_on_c, 0, 78, 0
2, 3888, Note_on_c, 0, 76, 82
2, 3911, Note_on_c, 0, 76, 0
2, 3912, Note_on_c, 0, 86, 81
2, 3935, Note_on_c, 0, 86, 0
2, 3936, Note_on_c, 0, 85, 81
2, 3959, Note_on_c, 0, 85, 0
2, 3960, Note_on_c, 0, 83, 81
2, 3983, Note_on_c, 0, 83, 0
2, 3984, Note_on_c, 0, 81, 81
2, 4007, Note_on_c, 0, 81, 0
2, 4008, Note_on_c, 0, 79, 80
2, 4031, Note_on_c, 0, 79, 0
2, 4032, Note_on_c, 0, 78, 80
2, 4128, Note_on_c, 0, 78, 0
2, 4128, Note_on_c, 0, 76, 79
2, 4217, Note_on_c, 0, 76, 0
2, 4224, Note_on_c, 0, 76, 78
2, 4244, Note_on_c, 0, 76, 0
2, 4272, Note_on_c, 0, 78, 78
2, 4278, Note_on_c, 0, 78, 0
2, 4278, Note_on_c, 0, 76, 78
2, 4284, Note_on_c, 0, 76, 0
2, 4284, Note_on_c, 0, 74, 78
2, 4290, Note_on_c, 0, 74, 0
2, 4290, Note_on_c, 0, 76, 78
2, 4296, Note_on_c, 0, 76, 0
2, 4296, Note_on_c, 0, 81, 78
2, 4319, Note_on_c, 0, 81, 0
2, 4320, Note_on_c, 0, 76, 78
2, 4461, Note_on_c, 0, 76, 0
2, 4464, Note_on_c, 0, 73, 78
2, 4509, Note_on_c, 0, 73, 0
2, 4512, Note_on_c, 0, 76, 78
2, 4535, Note_on_c, 0, 76, 0
2, 4536, Note_on_c, 0, 74, 78
2, 4559, Note_on_c, 0, 74, 0
2, 4560, Note_on_c, 0, 73, 78
2, 4583, Note_on_c, 0, 73, 0
2, 4584, Note_on_c, 0, 71, 78
2, 4607, Note_on_c, 0, 71, 0
2, 4608, Note_on_c, 0, 74, 78
2, 4631, Note_on_c, 0, 74, 0
2, 4632, Note_on_c, 0, 73, 78
2, 4655, Note_on_c, 0, 73, 0
2, 4656, Note_on_c, 0, 71, 78
2, 4679, Note_on_c, 0, 71, 0
2, 4680, Note_on_c, 0, 69, 78
2, 4703, Note_on_c, 0, 69, 0
2, 4704, Note_on_c, 0, 69, 78
2, 4727, Note_on_c, 0, 69, 0
2, 4728, Note_on_c, 0, 68, 78
2, 4751, Note_on_c, 0, 68, 0
2, 4752, Note_on_c, 0, 66, 78
2, 4775, Note_on_c, 0, 66, 0
2, 4776, Note_on_c, 0, 64, 78
2, 4799, Note_on_c, 0, 64, 0
2, 4800, Note_on_c, 0, 64, 78
2, 4823, Note_on_c, 0, 64, 0
2, 4824, Note_on_c, 0, 62, 78
2, 4847, Note_on_c, 0, 62, 0
2, 4848, Note_on_c, 0, 61, 78
2, 4871, Note_on_c, 0, 61, 0
2, 4872, Note_on_c, 0, 59, 78
2, 4895, Note_on_c, 0, 59, 0
2, 4896, Note_on_c, 0, 57, 78
2, 5037, Note_on_c, 0, 57, 0
2, 5040, Note_on_c, 0, 59, 78
2, 5063, Note_on_c, 0, 59, 0
2, 5064, Note_on_c, 0, 57, 78
2, 5087, Note_on_c, 0, 57, 0
2, 5088, Note_on_c, 0, 57, 78
2, 5111, Note_on_c, 0, 57, 0
2, 5112, Note_on_c, 0, 55, 79
2, 5135, Note_on_c, 0, 55, 0
2, 5136, Note_on_c, 0, 54, 79
2, 5159, Note_on_c, 0, 54, 0
2, 5160, Note_on_c, 0, 55, 79
2, 5183, Note_on_c, 0, 55, 0
2, 5184, Note_on_c, 0, 55, 79
2, 5280, Note_on_c, 0, 55, 0
2, 5280, Note_on_c, 0, 54, 79
2, 5369, Note_on_c, 0, 54, 0
2, 5376, Note_on_c, 0, 58, 96
2, 5472, Note_on_c, 0, 58, 0
2, 5472, Note_on_c, 0, 59, 80
2, 5495, Note_on_c, 0, 59, 0
2, 5496, Note_on_c, 0, 61, 81
2, 5519, Note_on_c, 0, 61, 0
2, 5520, Note_on_c, 0, 62, 81
2, 5543, Note_on_c, 0, 62, 0
2, 5544, Note_on_c, 0, 64, 81
2, 5567, Note_on_c, 0, 64, 0
2, 5568, Note_on_c, 0, 66, 81
2, 5591, Note_on_c, 0, 66, 0
2, 5592, Note_on_c, 0, 64, 81
2, 5615, Note_on_c, 0, 64, 0
2, 5616, Note_on_c, 0, 62, 81
2, 5639, Note_on_c, 0, 62, 0
2, 5640, Note_on_c, 0, 61, 81
2, 5663, Note_on_c, 0, 61, 0
2, 5664, Note_on_c, 0, 59, 81
2, 5687, Note_on_c, 0, 59, 0
2, 5688, Note_on_c, 0, 57, 82
2, 5711, Note_on_c, 0, 57, 0
2, 5712, Note_on_c, 0, 56, 82
2, 5735, Note_on_c, 0, 56, 0
2, 5736, Note_on_c, 0, 57, 82
2, 5759, Note_on_c, 0, 57, 0
2, 5760, Note_on_c, 0, 57, 82
2, 5856, Note_on_c, 0, 57, 0
2, 5856, Note_on_c, 0, 56, 82
2, 5945, Note_on_c, 0, 56, 0
2, 6072, Note_on_c, 0, 64, 84
2, 6095, Note_on_c, 0, 64, 0
2, 6096, Note_on_c, 0, 68, 84
2, 6119, Note_on_c, 0, 68, 0
2, 6120, Note_on_c, 0, 64, 84
2, 6143, Note_on_c, 0, 64, 0
2, 6168, Note_on_c, 0, 64, 84
2, 6191, Note_on_c, 0, 64, 0
2, 6192, Note_on_c, 0, 68, 84
2, 6215, Note_on_c, 0, 68, 0
2, 6216, Note_on_c, 0, 64, 84
2, 6239, Note_on_c, 0, 64, 0
2, 6264, Note_on_c, 0, 64, 84
2, 6287, Note_on_c, 0, 64, 0
2, 6288, Note_on_c, 0, 68, 84
2, 6311, Note_on_c, 0, 68, 0
2, 6312, Note_on_c, 0, 64, 84
2, 6335, Note_on_c, 0, 64, 0
2, 6360, Note_on_c, 0, 64, 84
2, 6383, Note_on_c, 0, 64, 0
2, 6384, Note_on_c, 0, 69, 84
2, 6407, Note_on_c, 0, 69, 0
2, 6408, Note_on_c, 0, 64, 84
2, 6431, Note_on_c, 0, 64, 0
2, 6456, Note_on_c, 0, 64, 84
2, 6479, Note_on_c, 0, 64, 0
2, 6480, Note_on_c, 0, 76, 84
2, 6503, Note_on_c, 0, 76, 0
2, 6504, Note_on_c, 0, 64, 84
2, 6527, Note_on_c, 0, 64, 0
2, 6552, Note_on_c, 0, 64, 84
2, 6575, Note_on_c, 0, 64, 0
2, 6576, Note_on_c, 0, 74, 84
2, 6599, Note_on_c, 0, 74, 0
2, 6600, Note_on_c, 0, 64, 84
2, 6623, Note_on_c, 0, 64, 0
2, 6648, Note_on_c, 0, 64, 84
2, 6671, Note_on_c, 0, 64, 0
2, 6672, Note_on_c, 0, 73, 84
2, 6695, Note_on_c, 0, 73, 0
2, 6696, Note_on_c, 0, 64, 84
2, 6719, Note_on_c, 0, 64, 0
2, 6744, Note_on_c, 0, 64, 84
2, 6767, Note_on_c, 0, 64, 0
2, 6768, Note_on_c, 0, 68, 84
2, 6791, Note_on_c, 0, 68, 0
2, 6792, Note_on_c, 0, 64, 84
2, 6815, Note_on_c, 0, 64, 0
2, 6840, Note_on_c, 0, 64, 84
2, 6863, Note_on_c, 0, 64, 0
2, 6864, Note_on_c, 0, 68, 84
2, 6887, Note_on_c, 0, 68, 0
2, 6888, Note_on_c, 0, 64, 84
2, 6911, Note_on_c, 0, 64, 0
2, 6936, Note_on_c, 0, 64, 84
2, 6959, Note_on_c, 0, 64, 0
2, 6960, Note_on_c, 0, 69, 84
2, 6983, Note_on_c, 0, 69, 0
2, 6984, Note_on_c, 0, 64, 84
2, 7007, Note_on_c, 0, 64, 0
2, 7032, Note_on_c, 0, 64, 84
2, 7055, Note_on_c, 0, 64, 0
2, 7056, Note_on_c, 0, 76, 84
2, 7079, Note_on_c, 0, 76, 0
2, 7080, Note_on_c, 0, 64, 84
2, 7103, Note_on_c, 0, 64, 0
2, 7128, Note_on_c, 0, 64, 84
2, 7151, Note_on_c, 0, 64, 0
2, 7152, Note_on_c, 0, 74, 84
2, 7175, Note_on_c, 0, 74, 0
2, 7176, Note_on_c, 0, 64, 84
2, 7199, Note_on_c, 0, 64, 0
2, 7224, Note_on_c, 0, 69, 84
2, 7247, Note_on_c, 0, 69, 0
2, 7248, Note_on_c, 0, 72, 84
2, 7271, Note_on_c, 0, 72, 0
2, 7272, Note_on_c, 0, 69, 84
2, 7295, Note_on_c, 0, 69, 0
2, 7320, Note_on_c, 0, 69, 84
2, 7343, Note_on_c, 0, 69, 0
2, 7344, Note_on_c, 0, 72, 84
2, 7367, Note_on_c, 0, 72, 0
2, 7368, Note_on_c, 0, 69, 84
2, 7391, Note_on_c, 0, 69, 0
2, 7416, Note_on_c, 0, 69, 84
2, 7439, Note_on_c, 0, 69, 0
2, 7440, Note_on_c, 0, 73, 84
2, 7463, Note_on_c, 0, 73, 0
2, 7464, Note_on_c, 0, 69, 84
2, 7487, Note_on_c, 0, 69, 0
2, 7512, Note_on_c, 0, 69, 84
2, 7535, Note_on_c, 0, 69, 0
2, 7536, Note_on_c, 0, 74, 84
2, 7559, Note_on_c, 0, 74, 0
2, 7560, Note_on_c, 0, 69, 84
2, 7583, Note_on_c, 0, 69, 0
2, 7608, Note_on_c, 0, 69, 84
2, 7631, Note_on_c, 0, 69, 0
2, 7632, Note_on_c, 0, 75, 84
2, 7655, Note_on_c, 0, 75, 0
2, 7656, Note_on_c, 0, 69, 84
2, 7679, Note_on_c, 0, 69, 0
2, 7704, Note_on_c, 0, 69, 84
2, 7727, Note_on_c, 0, 69, 0
2, 7728, Note_on_c, 0, 76, 84
2, 7751, Note_on_c, 0, 76, 0
2, 7752, Note_on_c, 0, 69, 84
2, 7775, Note_on_c, 0, 69, 0
2, 7776, Control_c, 0, 64, 127
2, 7800, Note_on_c, 0, 69, 84
2, 7823, Note_on_c, 0, 69, 0
2, 7824, Note_on_c, 0, 78, 84
2, 7847, Note_on_c, 0, 78, 0
2, 7848, Note_on_c, 0, 69, 84
2, 7871, Note_on_c, 0, 69, 0
2, 7896, Note_on_c, 0, 69, 84
2, 7919, Note_on_c, 0, 69, 0
2, 7920, Note_on_c, 0, 78, 84
2, 7943, Note_on_c, 0, 78, 0
2, 7944, Note_on_c, 0, 69, 84
2, 7967, Note_on_c, 0, 69, 0
2, 7992, Note_on_c, 0, 69, 84
2, 8015, Note_on_c, 0, 69, 0
2, 8016, Note_on_c, 0, 78, 84
2, 8039, Note_on_c, 0, 78, 0
2, 8040, Control_c, 0, 64, 0
2, 8040, Note_on_c, 0, 69, 84
2, 8063, Note_on_c, 0, 69, 0
2, 8064, Control_c, 0, 64, 127
2, 8088, Note_on_c, 0, 69, 84
2, 8111, Note_on_c, 0, 69, 0
2, 8112, Note_on_c, 0, 76, 84
2, 8135, Note_on_c, 0, 76, 0
2, 8136, Note_on_c, 0, 69, 84
2, 8159, Note_on_c, 0, 69, 0
2, 8184, Note_on_c, 0, 69, 84
2, 8207, Note_on_c, 0, 69, 0
2, 8208, Note_on_c, 0, 76, 84
2, 8231, Note_on_c, 0, 76, 0
2, 8232, Note_on_c, 0, 69, 84
2, 8255, Note_on_c, 0, 69, 0
2, 8280, Note_on_c, 0, 69, 84
2, 8303, Note_on_c, 0, 69, 0
2, 8304, Note_on_c, 0, 76, 84
2, 8327, Note_on_c, 0, 76, 0
2, 8328, Control_c, 0, 64, 0
2, 8328, Note_on_c, 0, 69, 84
2, 8351, Note_on_c, 0, 69, 0
2, 8352, Control_c, 0, 64, 127
2, 8376, Note_on_c, 0, 69, 84
2, 8399, Note_on_c, 0, 69, 0
2, 8400, Note_on_c, 0, 75, 84
2, 8423, Note_on_c, 0, 75, 0
2, 8424, Note_on_c, 0, 69, 84
2, 8447, Note_on_c, 0, 69, 0
2, 8472, Note_on_c, 0, 69, 84
2, 8495, Note_on_c, 0, 69, 0
2, 8496, Note_on_c, 0, 75, 84
2, 8519, Note_on_c, 0, 75, 0
2, 8520, Note_on_c, 0, 69, 84
2, 8543, Note_on_c, 0, 69, 0
2, 8568, Note_on_c, 0, 69, 84
2, 8591, Note_on_c, 0, 69, 0
2, 8592, Note_on_c, 0, 75, 84
2, 8615, Note_on_c, 0, 75, 0
2, 8616, Control_c, 0, 64, 0
2, 8616, Note_on_c, 0, 69, 84
2, 8639, Note_on_c, 0, 69, 0
2, 8664, Note_on_c, 0, 68, 84
2, 8687, Note_on_c, 0, 68, 0
2, 8688, Note_on_c, 0, 76, 84
2, 8711, Note_on_c, 0, 76, 0
2, 8712, Note_on_c, 0, 68, 84
2, 8735, Note_on_c, 0, 68, 0
2, 8760, Note_on_c, 0, 68, 84
2, 8783, Note_on_c, 0, 68, 0
2, 8784, Note_on_c, 0, 80, 84
2, 8807, Note_on_c, 0, 80, 0
2, 8808, Note_on_c, 0, 68, 84
2, 8831, Note_on_c, 0, 68, 0
2, 8856, Note_on_c, 0, 69, 84
2, 8879, Note_on_c, 0, 69, 0
2, 8880, Note_on_c, 0, 81, 84
2, 8903, Note_on_c, 0, 81, 0
2, 8904, Note_on_c, 0, 69, 84
2, 8927, Note_on_c, 0, 69, 0
2, 8952, Note_on_c, 0, 74, 84
2, 8975, Note_on_c, 0, 74, 0
2, 8976, Note_on_c, 0, 86, 84
2, 8999, Note_on_c, 0, 86, 0
2, 9000, Note_on_c, 0, 74, 84
2, 9023, Note_on_c, 0, 74, 0
2, 9048, Note_on_c, 0, 71, 84
2, 9071, Note_on_c, 0, 71, 0
2, 9072, Note_on_c, 0, 83, 84
2, 9095, Note_on_c, 0, 83, 0
2, 9096, Note_on_c, 0, 71, 84
2, 9119, Note_on_c, 0, 71, 0
2, 9144, Note_on_c, 0, 73, 84
2, 9167, Note_on_c, 0, 73, 0
2, 9168, Note_on_c, 0, 85, 84
2, 9191, Note_on_c, 0, 85, 0
2, 9192, Note_on_c, 0, 73, 84
2, 9215, Note_on_c, 0, 73, 0
2, 9240, Note_on_c, 0, 66, 83
2, 9263, Note_on_c, 0, 66, 0
2, 9264, Note_on_c, 0, 65, 83
2, 9287, Note_on_c, 0, 65, 0
2, 9288, Note_on_c, 0, 66, 82
2, 9311, Note_on_c, 0, 66, 0
2, 9312, Note_on_c, 0, 71, 82
2, 9335, Note_on_c, 0, 71, 0
2, 9336, Note_on_c, 0, 66, 81
2, 9359, Note_on_c, 0, 66, 0
2, 9360, Note_on_c, 0, 65, 81
2, 9383, Note_on_c, 0, 65, 0
2, 9384, Note_on_c, 0, 66, 80
2, 9407, Note_on_c, 0, 66, 0
2, 9408, Note_on_c, 0, 74, 80
2, 9431, Note_on_c, 0, 74, 0
2, 9432, Note_on_c, 0, 66, 79
2, 9455, Note_on_c, 0, 66, 0
2, 9456, Note_on_c, 0, 65, 79
2, 9479, Note_on_c, 0, 65, 0
2, 9480, Note_on_c, 0, 66, 78
2, 9503, Note_on_c, 0, 66, 0
2, 9504, Note_on_c, 0, 76, 78
2, 9637, Note_on_c, 0, 76, 0
2, 9648, Note_on_c, 0, 73, 75
2, 9671, Note_on_c, 0, 73, 0
2, 9672, Note_on_c, 0, 69, 75
2, 9695, Note_on_c, 0, 69, 0
2, 9696, Note_on_c, 0, 74, 74
2, 9741, Note_on_c, 0, 74, 0
2, 9744, Note_on_c, 0, 71, 73
2, 9767, Note_on_c, 0, 71, 0
2, 9768, Note_on_c, 0, 68, 73
2, 9791, Note_on_c, 0, 68, 0
2, 9792, Note_on_c, 0, 69, 72
2, 9881, Note_on_c, 0, 69, 0
2, 9936, Note_on_c, 0, 66, 64
2, 9948, Note_on_c, 0, 66, 0
2, 9948, Note_on_c, 0, 64, 64
2, 9960, Note_on_c, 0, 64, 0
2, 9960, Note_on_c, 0, 62, 64
2, 9972, Note_on_c, 0, 62, 0
2, 9972, Note_on_c, 0, 64, 64
2, 9984, Note_on_c, 0, 64, 0
2, 9984, Note_on_c, 0, 66, 64
2, 10029, Note_on_c, 0, 66, 0
2, 10032, Note_on_c, 0, 62, 64
2, 10077, Note_on_c, 0, 62, 0
2, 10080, Note_on_c, 0, 64, 64
2, 10125, Note_on_c, 0, 64, 0
2, 10128, Note_on_c, 0, 61, 64
2, 10173, Note_on_c, 0, 61, 0
2, 10176, Note_on_c, 0, 62, 64
2, 10221, Note_on_c, 0, 62, 0
2, 10224, Note_on_c, 0, 59, 64
2, 10269, Note_on_c, 0, 59, 0
2, 10272, Note_on_c, 0, 61, 64
2, 10317, Note_on_c, 0, 61, 0
2, 10320, Note_on_c, 0, 71, 64
2, 10332, Note_on_c, 0, 71, 0
2, 10332, Note_on_c, 0, 69, 64
2, 10344, Note_on_c, 0, 69, 0
2, 10344, Note_on_c, 0, 67, 64
2, 10356, Note_on_c, 0, 67, 0
2, 10356, Note_on_c, 0, 69, 64
2, 10368, Note_on_c, 0, 69, 0
2, 10368, Note_on_c, 0, 71, 64
2, 10413, Note_on_c, 0, 71, 0
2, 10416, Note_on_c, 0, 68, 64
2, 10461, Note_on_c, 0, 68, 0
2, 10464, Note_on_c, 0, 69, 64
2, 10509, Note_on_c, 0, 69, 0
2, 10512, Note_on_c, 0, 74, 64
2, 10524, Note_on_c, 0, 74, 0
2, 10524, Note_on_c, 0, 73, 64
2, 10536, Note_on_c, 0, 73, 0
2, 10536, Note_on_c, 0, 71, 64
2, 10548, Note_on_c, 0, 71, 0
2, 10548, Note_on_c, 0, 73, 64
2, 10560, Note_on_c, 0, 73, 0
2, 10560, Note_on_c, 0, 74, 64
2, 10605, Note_on_c, 0, 74, 0
2, 10608, Note_on_c, 0, 71, 64
2, 10653, Note_on_c, 0, 71, 0
2, 10656, Note_on_c, 0, 73, 64
2, 10701, Note_on_c, 0, 73, 0
2, 10704, Note_on_c, 0, 76, 66
2, 10749, Note_on_c, 0, 76, 0
2, 10752, Note_on_c, 0, 78, 68
2, 10797, Note_on_c, 0, 78, 0
2, 10800, Note_on_c, 0, 86, 71
2, 10845, Note_on_c, 0, 86, 0
2, 10848, Note_on_c, 0, 76, 73
2, 10893, Note_on_c, 0, 76, 0
2, 10896, Note_on_c, 0, 85, 75
2, 10941, Note_on_c, 0, 85, 0
2, 10944, Note_on_c, 0, 74, 78
2, 10989, Note_on_c, 0, 74, 0
2, 10992, Note_on_c, 0, 83, 80
2, 11037, Note_on_c, 0, 83, 0
2, 11040, Note_on_c, 0, 85, 82
2, 11063, Note_on_c, 0, 85, 0
2, 11064, Note_on_c, 0, 88, 84
2, 11087, Note_on_c, 0, 88, 0
2, 11088, Note_on_c, 0, 85, 84
2, 11111, Note_on_c, 0, 85, 0
2, 11112, Note_on_c, 0, 81, 84
2, 11135, Note_on_c, 0, 81, 0
2, 11136, Note_on_c, 0, 81, 84
2, 11159, Note_on_c, 0, 81, 0
2, 11160, Note_on_c, 0, 85, 84
2, 11183, Note_on_c, 0, 85, 0
2, 11184, Note_on_c, 0, 81, 84
2, 11207, Note_on_c, 0, 81, 0
2, 11208, Note_on_c, 0, 76, 84
2, 11231, Note_on_c, 0, 76, 0
2, 11232, Note_on_c, 0, 76, 84
2, 11255, Note_on_c, 0, 76, 0
2, 11256, Note_on_c, 0, 81, 84
2, 11279, Note_on_c, 0, 81, 0
2, 11280, Note_on_c, 0, 76, 84
2, 11303, Note_on_c, 0, 76, 0
2, 11304, Note_on_c, 0, 73, 84
2, 11327, Note_on_c, 0, 73, 0
2, 11328, Note_on_c, 0, 73, 84
2, 11351, Note_on_c, 0, 73, 0
2, 11352, Note_on_c, 0, 76, 84
2, 11375, Note_on_c, 0, 76, 0
2, 11376, Note_on_c, 0, 73, 84
2, 11399, Note_on_c, 0, 73, 0
2, 11400, Note_on_c, 0, 69, 84
2, 11423, Note_on_c, 0, 69, 0
2, 11424, Note_on_c, 0, 69, 84
2, 11447, Note_on_c, 0, 69, 0
2, 11448, Note_on_c, 0, 73, 84
2, 11471, Note_on_c, 0, 73, 0
2, 11472, Note_on_c, 0, 69, 84
2, 11495, Note_on_c, 0, 69, 0
2, 11496, Note_on_c, 0, 64, 84
2, 11519, Note_on_c, 0, 64, 0
2, 11520, Control_c, 0, 64, 127
2, 11520, Note_on_c, 0, 63, 84
2, 11609, Note_on_c, 0, 63, 0
2, 11640, Note_on_c, 0, 69, 84
2, 11663, Note_on_c, 0, 69, 0
2, 11664, Note_on_c, 0, 72, 84
2, 11687, Note_on_c, 0, 72, 0
2, 11688, Note_on_c, 0, 69, 84
2, 11711, Note_on_c, 0, 69, 0
2, 11736, Note_on_c, 0, 69, 84
2, 11759, Note_on_c, 0, 69, 0
2, 11760, Note_on_c, 0, 72, 84
2, 11783, Note_on_c, 0, 72, 0
2, 11784, Control_c, 0, 64, 0
2, 11784, Note_on_c, 0, 69, 84
2, 11807, Note_on_c, 0, 69, 0
2, 11808, Control_c, 0, 64, 127
2, 11832, Note_on_c, 0, 69, 84
2, 11855, Note_on_c, 0, 69, 0
2, 11856, Note_on_c, 0, 72, 84
2, 11879, Note_on_c, 0, 72, 0
2, 11880, Note_on_c, 0, 69, 84
2, 11903, Note_on_c, 0, 69, 0
2, 11928, Note_on_c, 0, 69, 84
2, 11951, Note_on_c, 0, 69, 0
2, 11952, Note_on_c, 0, 72, 84
2, 11975, Note_on_c, 0, 72, 0
2, 11976, Note_on_c, 0, 69, 84
2, 11999, Note_on_c, 0, 69, 0
2, 12024, Note_on_c, 0, 69, 84
2, 12047, Note_on_c, 0, 69, 0
2, 12048, Note_on_c, 0, 72, 84
2, 12071, Note_on_c, 0, 72, 0
2, 12072, Control_c, 0, 64, 0
2, 12072, Note_on_c, 0, 69, 84
2, 12095, Note_on_c, 0, 69, 0
2, 12096, Control_c, 0, 64, 127
2, 12120, Note_on_c, 0, 69, 84
2, 12143, Note_on_c, 0, 69, 0
2, 12144, Note_on_c, 0, 72, 84
2, 12167, Note_on_c, 0, 72, 0
2, 12168, Note_on_c, 0, 69, 84
2, 12191, Note_on_c, 0, 69, 0
2, 12216, Note_on_c, 0, 69, 84
2, 12239, Note_on_c, 0, 69, 0
2, 12240, Note_on_c, 0, 81, 84
2, 12263, Note_on_c, 0, 81, 0
2, 12264, Note_on_c, 0, 69, 84
2, 12287, Note_on_c, 0, 69, 0
2, 12312, Note_on_c, 0, 69, 84
2, 12335, Note_on_c, 0, 69, 0
2, 12336, Note_on_c, 0, 79, 84
2, 12359, Note_on_c, 0, 79, 0
2, 12360, Control_c, 0, 64, 0
2, 12360, Note_on_c, 0, 69, 84
2, 12383, Note_on_c, 0, 69, 0
2, 12408, Note_on_c, 0, 69, 84
2, 12431, Note_on_c, 0, 69, 0
2, 12432, Note_on_c, 0, 77, 84
2, 12455, Note_on_c, 0, 77, 0
2, 12456, Note_on_c, 0, 69, 84
2, 12479, Note_on_c, 0, 69, 0
2, 12504, Note_on_c, 0, 69, 84
2, 12527, Note_on_c, 0, 69, 0
2, 12528, Note_on_c, 0, 76, 84
2, 12551, Note_on_c, 0, 76, 0
2, 12552, Note_on_c, 0, 69, 84
2, 12575, Note_on_c, 0, 69, 0
2, 12600, Note_on_c, 0, 69, 84
2, 12623, Note_on_c, 0, 69, 0
2, 12624, Note_on_c, 0, 75, 84
2, 12647, Note_on_c, 0, 75, 0
2, 12648, Note_on_c, 0, 69, 84
2, 12671, Note_on_c, 0, 69, 0
2, 12696, Note_on_c, 0, 68, 84
2, 12719, Note_on_c, 0, 68, 0
2, 12720, Note_on_c, 0, 76, 84
2, 12743, Note_on_c, 0, 76, 0
2, 12744, Note_on_c, 0, 68, 84
2, 12767, Note_on_c, 0, 68, 0
2, 12792, Note_on_c, 0, 71, 84
2, 12815, Note_on_c, 0, 71, 0
2, 12816, Note_on_c, 0, 74, 84
2, 12839, Note_on_c, 0, 74, 0
2, 12840, Note_on_c, 0, 71, 84
2, 12863, Note_on_c, 0, 71, 0
2, 12888, Note_on_c, 0, 69, 84
2, 12911, Note_on_c, 0, 69, 0
2, 12912, Note_on_c, 0, 73, 84
2, 12935, Note_on_c, 0, 73, 0
2, 12936, Note_on_c, 0, 69, 84
2, 12959, Note_on_c, 0, 69, 0
2, 12984, Note_on_c, 0, 71, 83
2, 13007, Note_on_c, 0, 71, 0
2, 13008, Note_on_c, 0, 74, 83
2, 13031, Note_on_c, 0, 74, 0
2, 13032, Note_on_c, 0, 71, 82
2, 13055, Note_on_c, 0, 71, 0
2, 13056, Note_on_c, 0, 69, 82
2, 13197, Note_on_c, 0, 69, 0
2, 13200, Note_on_c, 0, 68, 79
2, 13212, Note_on_c, 0, 68, 0
2, 13212, Note_on_c, 0, 69, 79
2, 13224, Note_on_c, 0, 69, 0
2, 13224, Note_on_c, 0, 68, 79
2, 13245, Note_on_c, 0, 68, 0
2, 13248, Note_on_c, 0, 69, 78
2, 13337, Note_on_c, 0, 69, 0
2, 13344, Note_on_c, 0, 81, 84
2, 13433, Note_on_c, 0, 81, 0
2, 13440, Note_on_c, 0, 80, 84
2, 13529, Note_on_c, 0, 80, 0
2, 13536, Note_on_c, 0, 80, 84
2, 13548, Note_on_c, 0, 80, 0
2, 13548, Note_on_c, 0, 78, 84
2, 13560, Note_on_c, 0, 78, 0
2, 13560, Note_on_c, 0, 77, 84
2, 13572, Note_on_c, 0, 77, 0
2, 13572, Note_on_c, 0, 78, 84
2, 13625, Note_on_c, 0, 78, 0
2, 13632, Note_on_c, 0, 76, 84
2, 13644, Note_on_c, 0, 76, 0
2, 13644, Note_on_c, 0, 74, 84
2, 13656, Note_on_c, 0, 74, 0
2, 13656, Note_on_c, 0, 73, 84
2, 13668, Note_on_c, 0, 73, 0
2, 13668, Note_on_c, 0, 74, 84
2, 13721, Note_on_c, 0, 74, 0
2, 13728, Note_on_c, 0, 73, 84
2, 13740, Note_on_c, 0, 73, 0
2, 13740, Note_on_c, 0, 71, 84
2, 13752, Note_on_c, 0, 71, 0
2, 13752, Note_on_c, 0, 69, 84
2, 13764, Note_on_c, 0, 69, 0
2, 13764, Note_on_c, 0, 71, 84
2, 13817, Note_on_c, 0, 71, 0
2, 13824, Note_on_c, 0, 64, 84
2, 13913, Note_on_c, 0, 64, 0
2, 13920, Note_on_c, 0, 73, 84
2, 13933, Note_on_c, 0, 73, 0
2, 13934, Note_on_c, 0, 71, 84
2, 13947, Note_on_c, 0, 71, 0
2, 13948, Note_on_c, 0, 73, 84
2, 13961, Note_on_c, 0, 73, 0
2, 13962, Note_on_c, 0, 71, 84
2, 13975, Note_on_c, 0, 71, 0
2, 13976, Note_on_c, 0, 73, 84
2, 13989, Note_on_c, 0, 73, 0
2, 13990, Note_on_c, 0, 71, 84
2, 14003, Note_on_c, 0, 71, 0
2, 14004, Note_on_c, 0, 73, 84
2, 14017, Note_on_c, 0, 73, 0
2, 14018, Note_on_c, 0, 71, 84
2, 14031, Note_on_c, 0, 71, 0
2, 14032, Note_on_c, 0, 73, 84
2, 14045, Note_on_c, 0, 73, 0
2, 14046, Note_on_c, 0, 71, 84
2, 14059, Note_on_c, 0, 71, 0
2, 14060, Note_on_c, 0, 73, 84
2, 14072, Note_on_c, 0, 73, 0
2, 14073, Note_on_c, 0, 71, 84
2, 14085, Note_on_c, 0, 71, 0
2, 14086, Note_on_c, 0, 69, 84
2, 14098, Note_on_c, 0, 69, 0
2, 14099, Note_on_c, 0, 71, 84
2, 14111, Note_on_c, 0, 71, 0
2, 14112, Note_on_c, 0, 69, 84
2, 14135, Note_on_c, 0, 69, 0
2, 14136, Note_on_c, 0, 76, 84
2, 14159, Note_on_c, 0, 76, 0
2, 14160, Note_on_c, 0, 73, 84
2, 14183, Note_on_c, 0, 73, 0
2, 14184, Note_on_c, 0, 69, 84
2, 14207, Note_on_c, 0, 69, 0
2, 14208, Note_on_c, 0, 64, 84
2, 14253, Note_on_c, 0, 64, 0
2, 14256, Note_on_c, 0, 61, 84
2, 14276, Note_on_c, 0, 61, 0
2, 14304, Note_on_c, 0, 59, 84
2, 14324, Note_on_c, 0, 59, 0
2, 14352, Note_on_c, 0, 62, 84
2, 14372, Note_on_c, 0, 62, 0
2, 14400, Note_on_c, 0, 61, 84
2, 14423, Note_on_c, 0, 61, 0
2, 14424, Note_on_c, 0, 64, 84
2, 14447, Note_on_c, 0, 64, 0
2, 14448, Note_on_c, 0, 69, 84
2, 14471, Note_on_c, 0, 69, 0
2, 14472, Note_on_c, 0, 73, 84
2, 14495, Note_on_c, 0, 73, 0
2, 14496, Note_on_c, 0, 76, 84
2, 14541, Note_on_c, 0, 76, 0
2, 14544, Note_on_c, 0, 61, 84
2, 14564, Note_on_c, 0, 61, 0
2, 14592, Note_on_c, 0, 62, 84
2, 14612, Note_on_c, 0, 62, 0
2, 14640, Note_on_c, 0, 68, 84
2, 14640, Note_on_c, 0, 62, 84
2, 14660, Note_on_c, 0, 68, 0
2, 14660, Note_on_c, 0, 62, 0
2, 14688, Note_on_c, 0, 69, 84
2, 14688, Note_on_c, 0, 61, 84
2, 14777, Note_on_c, 0, 69, 0
2, 14777, Note_on_c, 0, 61, 0
2, 14880, Note_on_c, 0, 81, 78
2, 14886, Note_on_c, 0, 81, 0
2, 14886, Note_on_c, 0, 81, 94
2, 14900, Note_on_c, 0, 81, 0
2, 14928, Note_on_c, 0, 83, 78
2, 14934, Note_on_c, 0, 83, 0
2, 14934, Note_on_c, 0, 81, 78
2, 14940, Note_on_c, 0, 81, 0
2, 14940, Note_on_c, 0, 79, 78
2, 14946, Note_on_c, 0, 79, 0
2, 14946, Note_on_c, 0, 81, 78
2, 14952, Note_on_c, 0, 81, 0
2, 14952, Note_on_c, 0, 86, 78
2, 14975, Note_on_c, 0, 86, 0
2, 14976, Note_on_c, 0, 81, 78
2, 15117, Note_on_c, 0, 81, 0
2, 15120, Note_on_c, 0, 78, 79
2, 15165, Note_on_c, 0, 78, 0
2, 15168, Note_on_c, 0, 79, 80
2, 15213, Note_on_c, 0, 79, 0
2, 15216, Note_on_c, 0, 76, 80
2, 15261, Note_on_c, 0, 76, 0
2, 15264, Note_on_c, 0, 78, 81
2, 15309, Note_on_c, 0, 78, 0
2, 15312, Note_on_c, 0, 74, 81
2, 15357, Note_on_c, 0, 74, 0
2, 15360, Note_on_c, 0, 76, 82
2, 15405, Note_on_c, 0, 76, 0
2, 15408, Note_on_c, 0, 73, 82
2, 15453, Note_on_c, 0, 73, 0
2, 15456, Note_on_c, 0, 74, 83
2, 15501, Note_on_c, 0, 74, 0
2, 15504, Note_on_c, 0, 69, 83
2, 15549, Note_on_c, 0, 69, 0
2, 15552, Note_on_c, 0, 71, 84
2, 15575, Note_on_c, 0, 71, 0
2, 15576, Note_on_c, 0, 73, 83
2, 15599, Note_on_c, 0, 73, 0
2, 15600, Note_on_c, 0, 74, 83
2, 15623, Note_on_c, 0, 74, 0
2, 15624, Note_on_c, 0, 71, 82
2, 15647, Note_on_c, 0, 71, 0
2, 15648, Note_on_c, 0, 69, 82
2, 15789, Note_on_c, 0, 69, 0
2, 15792, Note_on_c, 0, 67, 80
2, 15804, Note_on_c, 0, 67, 0
2, 15804, Note_on_c, 0, 69, 80
2, 15816, Note_on_c, 0, 69, 0
2, 15816, Note_on_c, 0, 67, 80
2, 15837, Note_on_c, 0, 67, 0
2, 15840, Note_on_c, 0, 66, 79
2, 15929, Note_on_c, 0, 66, 0
2, 16032, Note_on_c, 0, 81, 78
2, 16038, Note_on_c, 0, 81, 0
2, 16038, Note_on_c, 0, 81, 78
2, 16052, Note_on_c, 0, 81, 0
2, 16080, Note_on_c, 0, 83, 78
2, 16086, Note_on_c, 0, 83, 0
2, 16086, Note_on_c, 0, 81, 78
2, 16092, Note_on_c, 0, 81, 0
2, 16092, Note_on_c, 0, 79, 78
2, 16098, Note_on_c, 0, 79, 0
2, 16098, Note_on_c, 0, 81, 78
2, 16104, Note_on_c, 0, 81, 0
2, 16104, Note_on_c, 0, 86, 78
2, 16127, Note_on_c, 0, 86, 0
2, 16128, Note_on_c, 0, 81, 78
2, 16269, Note_on_c, 0, 81, 0
2, 16272, Note_on_c, 0, 78, 78
2, 16317, Note_on_c, 0, 78, 0
2, 16320, Note_on_c, 0, 79, 79
2, 16365, Note_on_c, 0, 79, 0
2, 16368, Note_on_c, 0, 76, 79
2, 16413, Note_on_c, 0, 76, 0
2, 16416, Note_on_c, 0, 78, 79
2, 16461, Note_on_c, 0, 78, 0
2, 16464, Note_on_c, 0, 74, 79
2, 16509, Note_on_c, 0, 74, 0
2, 16512, Note_on_c, 0, 76, 80
2, 16557, Note_on_c, 0, 76, 0
2, 16560, Note_on_c, 0, 73, 80
2, 16605, Note_on_c, 0, 73, 0
2, 16608, Note_on_c, 0, 74, 80
2, 16653, Note_on_c, 0, 74, 0
2, 16656, Note_on_c, 0, 78, 81
2, 16701, Note_on_c, 0, 78, 0
2, 16704, Note_on_c, 0, 79, 81
2, 16749, Note_on_c, 0, 79, 0
2, 16752, Note_on_c, 0, 76, 81
2, 16797, Note_on_c, 0, 76, 0
2, 16800, Note_on_c, 0, 81, 81
2, 16845, Note_on_c, 0, 81, 0
2, 16848, Note_on_c, 0, 78, 82
2, 16893, Note_on_c, 0, 78, 0
2, 16896, Note_on_c, 0, 83, 82
2, 16919, Note_on_c, 0, 83, 0
2, 16920, Note_on_c, 0, 79, 82
2, 16943, Note_on_c, 0, 79, 0
2, 16944, Note_on_c, 0, 76, 82
2, 16967, Note_on_c, 0, 76, 0
2, 16968, Note_on_c, 0, 74, 82
2, 16991, Note_on_c, 0, 74, 0
2, 17040, Note_on_c, 0, 76, 83
2, 17055, Note_on_c, 0, 76, 0
2, 17056, Note_on_c, 0, 81, 83
2, 17071, Note_on_c, 0, 81, 0
2, 17072, Note_on_c, 0, 85, 83
2, 17087, Note_on_c, 0, 85, 0
2, 17088, Note_on_c, 0, 86, 83
2, 17127, Note_on_c, 0, 86, 0
2, 17280, Note_on_c, 0, 67, 78
2, 17413, Note_on_c, 0, 67, 0
2, 17424, Note_on_c, 0, 64, 78
2, 17469, Note_on_c, 0, 64, 0
2, 17472, Note_on_c, 0, 66, 78
2, 17517, Note_on_c, 0, 66, 0
2, 17520, Note_on_c, 0, 74, 78
2, 17565, Note_on_c, 0, 74, 0
2, 17568, Note_on_c, 0, 73, 78
2, 17701, Note_on_c, 0, 73, 0
2, 17712, Note_on_c, 0, 76, 78
2, 17757, Note_on_c, 0, 76, 0
2, 17760, Note_on_c, 0, 74, 78
2, 17805, Note_on_c, 0, 74, 0
2, 17808, Note_on_c, 0, 62, 78
2, 17853, Note_on_c, 0, 62, 0
2, 17856, Note_on_c, 0, 67, 78
2, 17989, Note_on_c, 0, 67, 0
2, 18000, Note_on_c, 0, 64, 79
2, 18045, Note_on_c, 0, 64, 0
2, 18048, Note_on_c, 0, 66, 80
2, 18093, Note_on_c, 0, 66, 0
2, 18096, Note_on_c, 0, 74, 80
2, 18141, Note_on_c, 0, 74, 0
2, 18144, Note_on_c, 0, 79, 81
2, 18277, Note_on_c, 0, 79, 0
2, 18288, Note_on_c, 0, 76, 82
2, 18333, Note_on_c, 0, 76, 0
2, 18336, Note_on_c, 0, 78, 83
2, 18381, Note_on_c, 0, 78, 0
2, 18384, Note_on_c, 0, 74, 83
2, 18429, Note_on_c, 0, 74, 0
2, 18432, Note_on_c, 0, 73, 84
2, 18455, Note_on_c, 0, 73, 0
2, 18456, Note_on_c, 0, 71, 83
2, 18479, Note_on_c, 0, 71, 0
2, 18480, Note_on_c, 0, 83, 83
2, 18503, Note_on_c, 0, 83, 0
2, 18504, Note_on_c, 0, 81, 83
2, 18527, Note_on_c, 0, 81, 0
2, 18528, Note_on_c, 0, 79, 82
2, 18551, Note_on_c, 0, 79, 0
2, 18552, Note_on_c, 0, 78, 82
2, 18575, Note_on_c, 0, 78, 0
2, 18576, Note_on_c, 0, 76, 82
2, 18599, Note_on_c, 0, 76, 0
2, 18600, Note_on_c, 0, 86, 81
2, 18623, Note_on_c, 0, 86, 0
2, 18624, Note_on_c, 0, 85, 81
2, 18647, Note_on_c, 0, 85, 0
2, 18648, Note_on_c, 0, 83, 81
2, 18671, Note_on_c, 0, 83, 0
2, 18672, Note_on_c, 0, 81, 81
2, 18695, Note_on_c, 0, 81, 0
2, 18696, Note_on_c, 0, 79, 80
2, 18719, Note_on_c, 0, 79, 0
2, 18720, Note_on_c, 0, 78, 80
2, 18816, Note_on_c, 0, 78, 0
2, 18816, Note_on_c, 0, 76, 79
2, 18905, Note_on_c, 0, 76, 0
2, 18912, Note_on_c, 0, 76, 78
2, 18932, Note_on_c, 0, 76, 0
2, 18960, Note_on_c, 0, 78, 78
2, 18966, Note_on_c, 0, 78, 0
2, 18966, Note_on_c, 0, 76, 78
2, 18972, Note_on_c, 0, 76, 0
2, 18972, Note_on_c, 0, 74, 78
2, 18978, Note_on_c, 0, 74, 0
2, 18978, Note_on_c, 0, 76, 78
2, 18984, Note_on_c, 0, 76, 0
2, 18984, Note_on_c, 0, 81, 78
2, 19007, Note_on_c, 0, 81, 0
2, 19008, Note_on_c, 0, 76, 78
2, 19149, Note_on_c, 0, 76, 0
2, 19152, Note_on_c, 0, 73, 78
2, 19197, Note_on_c, 0, 73, 0
2, 19200, Note_on_c, 0, 76, 78
2, 19223, Note_on_c, 0, 76, 0
2, 19224, Note_on_c, 0, 74, 78
2, 19247, Note_on_c, 0, 74, 0
2, 19248, Note_on_c, 0, 73, 78
2, 19271, Note_on_c, 0, 73, 0
2, 19272, Note_on_c, 0, 71, 78
2, 19295, Note_on_c, 0, 71, 0
2, 19296, Note_on_c, 0, 74, 78
2, 19319, Note_on_c, 0, 74, 0
2, 19320, Note_on_c, 0, 73, 78
2, 19343, Note_on_c, 0, 73, 0
2, 19344, Note_on_c, 0, 71, 78
2, 19367, Note_on_c, 0, 71, 0
2, 19368, Note_on_c, 0, 69, 78
2, 19391, Note_on_c, 0, 69, 0
2, 19392, Note_on_c, 0, 69, 78
2, 19415, Note_on_c, 0, 69, 0
2, 19416, Note_on_c, 0, 68, 78
2, 19439, Note_on_c, 0, 68, 0
2, 19440, Note_on_c, 0, 66, 78
2, 19463, Note_on_c, 0, 66, 0
2, 19464, Note_on_c, 0, 64, 78
2, 19487, Note_on_c, 0, 64, 0
2, 19488, Note_on_c, 0, 64, 78
2, 19511, Note_on_c, 0, 64, 0
2, 19512, Note_on_c, 0, 62, 78
2, 19535, Note_on_c, 0, 62, 0
2, 19536, Note_on_c, 0, 61, 78
2, 19559, Note_on_c, 0, 61, 0
2, 19560, Note_on_c, 0, 59, 78
2, 19583, Note_on_c, 0, 59, 0
2, 19584, Note_on_c, 0, 57, 78
2, 19725, Note_on_c, 0, 57, 0
2, 19728, Note_on_c, 0, 59, 78
2, 19751, Note_on_c, 0, 59, 0
2, 19752, Note_on_c, 0, 57, 78
2, 19775, Note_on_c, 0, 57, 0
2, 19776, Note_on_c, 0, 57, 78
2, 19799, Note_on_c, 0, 57, 0
2, 19800, Note_on_c, 0, 55, 79
2, 19823, Note_on_c, 0, 55, 0
2, 19824, Note_on_c, 0, 54, 79
2, 19847, Note_on_c, 0, 54, 0
2, 19848, Note_on_c, 0, 55, 79
2, 19871, Note_on_c, 0, 55, 0
2, 19872, Note_on_c, 0, 55, 79
2, 19968, Note_on_c, 0, 55, 0
2, 19968, Note_on_c, 0, 54, 79
2, 20057, Note_on_c, 0, 54, 0
2, 20064, Note_on_c, 0, 58, 96
2, 20160, Note_on_c, 0, 58, 0
2, 20160, Note_on_c, 0, 59, 80
2, 20183, Note_on_c, 0, 59, 0
2, 20184, Note_on_c, 0, 61, 81
2, 20207, Note_on_c, 0, 61, 0
2, 20208, Note_on_c, 0, 62, 81
2, 20231, Note_on_c, 0, 62, 0
2, 20232, Note_on_c, 0, 64, 81
2, 20255, Note_on_c, 0, 64, 0
2, 20256, Note_on_c, 0, 66, 81
2, 20279, Note_on_c, 0, 66, 0
2, 20280, Note_on_c, 0, 64, 81
2, 20303, Note_on_c, 0, 64, 0
2, 20304, Note_on_c, 0, 62, 81
2, 20327, Note_on_c, 0, 62, 0
2, 20328, Note_on_c, 0, 61, 81
2, 20351, Note_on_c, 0, 61, 0
2, 20352, Note_on_c, 0, 59, 81
2, 20375, Note_on_c, 0, 59, 0
2, 20376, Note_on_c, 0, 57, 82
2, 20399, Note_on_c, 0, 57, 0
2, 20400, Note_on_c, 0, 56, 82
2, 20423, Note_on_c, 0, 56, 0
2, 20424, Note_on_c, 0, 57, 82
2, 20447, Note_on_c, 0, 57, 0
2, 20448, Note_on_c, 0, 57, 82
2, 20544, Note_on_c, 0, 57, 0
2, 20544, Note_on_c, 0, 56, 82
2, 20633, Note_on_c, 0, 56, 0
2, 20760, Note_on_c, 0, 64, 84
2, 20783, Note_on_c, 0, 64, 0
2, 20784, Note_on_c, 0, 68, 84
2, 20807, Note_on_c, 0, 68, 0
2, 20808, Note_on_c, 0, 64, 84
2, 20831, Note_on_c, 0, 64, 0
2, 20856, Note_on_c, 0, 64, 84
2, 20879, Note_on_c, 0, 64, 0
2, 20880, Note_on_c, 0, 68, 84
2, 20903, Note_on_c, 0, 68, 0
2, 20904, Note_on_c, 0, 64, 84
2, 20927, Note_on_c, 0, 64, 0
2, 20952, Note_on_c, 0, 64, 84
2, 20975, Note_on_c, 0, 64, 0
2, 20976, Note_on_c, 0, 68, 84
2, 20999, Note_on_c, 0, 68, 0
2, 21000, Note_on_c, 0, 64, 84
2, 21023, Note_on_c, 0, 64, 0
2, 21048, Note_on_c, 0, 64, 84
2, 21071, Note_on_c, 0, 64, 0
2, 21072, Note_on_c, 0, 69, 84
2, 21095, Note_on_c, 0, 69, 0
2, 21096, Note_on_c, 0, 64, 84
2, 21119, Note_on_c, 0, 64, 0
2, 21144, Note_on_c, 0, 64, 84
2, 21167, Note_on_c, 0, 64, 0
2, 21168, Note_on_c, 0, 76, 84
2, 21191, Note_on_c, 0, 76, 0
2, 21192, Note_on_c, 0, 64, 84
2, 21215, Note_on_c, 0, 64, 0
2, 21240, Note_on_c, 0, 64, 84
2, 21263, Note_on_c, 0, 64, 0
2, 21264, Note_on_c, 0, 74, 84
2, 21287, Note_on_c, 0, 74, 0
2, 21288, Note_on_c, 0, 64, 84
2, 21311, Note_on_c, 0, 64, 0
2, 21336, Note_on_c, 0, 64, 84
2, 21359, Note_on_c, 0, 64, 0
2, 21360, Note_on_c, 0, 73, 84
2, 21383, Note_on_c, 0, 73, 0
2, 21384, Note_on_c, 0, 64, 84
2, 21407, Note_on_c, 0, 64, 0
2, 21432, Note_on_c, 0, 64, 84
2, 21455, Note_on_c, 0, 64, 0
2, 21456, Note_on_c, 0, 68, 84
2, 21479, Note_on_c, 0, 68, 0
2, 21480, Note_on_c, 0, 64, 84
2, 21503, Note_on_c, 0, 64, 0
2, 21528, Note_on_c, 0, 64, 84
2, 21551, Note_on_c, 0, 64, 0
2, 21552, Note_on_c, 0, 68, 84
2, 21575, Note_on_c, 0, 68, 0
2, 21576, Note_on_c, 0, 64, 84
2, 21599, Note_on_c, 0, 64, 0
2, 21624, Note_on_c, 0, 64, 84
2, 21647, Note_on_c, 0, 64, 0
2, 21648, Note_on_c, 0, 69, 84
2, 21671, Note_on_c, 0, 69, 0
2, 21672, Note_on_c, 0, 64, 84
2, 21695, Note_on_c, 0, 64, 0
2, 21720, Note_on_c, 0, 64, 84
2, 21743, Note_on_c, 0, 64, 0
2, 21744, Note_on_c, 0, 76, 84
2, 21767, Note_on_c, 0, 76, 0
2, 21768, Note_on_c, 0, 64, 84
2, 21791, Note_on_c, 0, 64, 0
2, 21816, Note_on_c, 0, 64, 84
2, 21839, Note_on_c, 0, 64, 0
2, 21840, Note_on_c, 0, 74, 84
2, 21863, Note_on_c, 0, 74, 0
2, 21864, Note_on_c, 0, 64, 84
2, 21887, Note_on_c, 0, 64, 0
2, 21912, Note_on_c, 0, 69, 84
2, 21935, Note_on_c, 0, 69, 0
2, 21936, Note_on_c, 0, 72, 84
2, 21959, Note_on_c, 0, 72, 0
2, 21960, Note_on_c, 0, 69, 84
2, 21983, Note_on_c, 0, 69, 0
2, 22008, Note_on_c, 0, 69, 84
2, 22031, Note_on_c, 0, 69, 0
2, 22032, Note_on_c, 0, 72, 84
2, 22055, Note_on_c, 0, 72, 0
2, 22056, Note_on_c, 0, 69, 84
2, 22079, Note_on_c, 0, 69, 0
2, 22104, Note_on_c, 0, 69, 84
2, 22127, Note_on_c, 0, 69, 0
2, 22128, Note_on_c, 0, 73, 84
2, 22151, Note_on_c, 0, 73, 0
2, 22152, Note_on_c, 0, 69, 84
2, 22175, Note_on_c, 0, 69, 0
2, 22200, Note_on_c, 0, 69, 84
2, 22223, Note_on_c, 0, 69, 0
2, 22224, Note_on_c, 0, 74, 84
2, 22247, Note_on_c, 0, 74, 0
2, 22248, Note_on_c, 0, 69, 84
2, 22271, Note_on_c, 0, 69, 0
2, 22296, Note_on_c, 0, 69, 84
2, 22319, Note_on_c, 0, 69, 0
2, 22320, Note_on_c, 0, 75, 84
2, 22343, Note_on_c, 0, 75, 0
2, 22344, Note_on_c, 0, 69, 84
2, 22367, Note_on_c, 0, 69, 0
2, 22392, Note_on_c, 0, 69, 84
2, 22415, Note_on_c, 0, 69, 0
2, 22416, Note_on_c, 0, 76, 84
2, 22439, Note_on_c, 0, 76, 0
2, 22440, Note_on_c, 0, 69, 84
2, 22463, Note_on_c, 0, 69, 0
2, 22464, Control_c, 0, 64, 127
2, 22488, Note_on_c, 0, 69, 84
2, 22511, Note_on_c, 0, 69, 0
2, 22512, Note_on_c, 0, 78, 84
2, 22535, Note_on_c, 0, 78, 0
2, 22536, Note_on_c, 0, 69, 84
2, 22559, Note_on_c, 0, 69, 0
2, 22584, Note_on_c, 0, 69, 84
2, 22607, Note_on_c, 0, 69, 0
2, 22608, Note_on_c, 0, 78, 84
2, 22631, Note_on_c, 0, 78, 0
2, 22632, Note_on_c, 0, 69, 84
2, 22655, Note_on_c, 0, 69, 0
2, 22680, Note_on_c, 0, 69, 84
2, 22703, Note_on_c, 0, 69, 0
2, 22704, Note_on_c, 0, 78, 84
2, 22727, Note_on_c, 0, 78, 0
2, 22728, Control_c, 0, 64, 0
2, 22728, Note_on_c, 0, 69, 84
2, 22751, Note_on_c, 0, 69, 0
2, 22752, Control_c, 0, 64, 127
2, 22776, Note_on_c, 0, 69, 84
2, 22799, Note_on_c, 0, 69, 0
2, 22800, Note_on_c, 0, 76, 84
2, 22823, Note_on_c, 0, 76, 0
2, 22824, Note_on_c, 0, 69, 84
2, 22847, Note_on_c, 0, 69, 0
2, 22872, Note_on_c, 0, 69, 84
2, 22895, Note_on_c, 0, 69, 0
2, 22896, Note_on_c, 0, 76, 84
2, 22919, Note_on_c, 0, 76, 0
2, 22920, Note_on_c, 0, 69, 84
2, 22943, Note_on_c, 0, 69, 0
2, 22968, Note_on_c, 0, 69, 84
2, 22991, Note_on_c, 0, 69, 0
2, 22992, Note_on_c, 0, 76, 84
2, 23015, Note_on_c, 0, 76, 0
2, 23016, Control_c, 0, 64, 0
2, 23016, Note_on_c, 0, 69, 84
2, 23039, Note_on_c, 0, 69, 0
2, 23040, Control_c, 0, 64, 127
2, 23064, Note_on_c, 0, 69, 84
2, 23087, Note_on_c, 0, 69, 0
2, 23088, Note_on_c, 0, 75, 84
2, 23111, Note_on_c, 0, 75, 0
2, 23112, Note_on_c, 0, 69, 84
2, 23135, Note_on_c, 0, 69, 0
2, 23160, Note_on_c, 0, 69, 84
2, 23183, Note_on_c, 0, 69, 0
2, 23184, Note_on_c, 0, 75, 84
2, 23207, Note_on_c, 0, 75, 0
2, 23208, Note_on_c, 0, 69, 84
2, 23231, Note_on_c, 0, 69, 0
2, 23256, Note_on_c, 0, 69, 84
2, 23279, Note_on_c, 0, 69, 0
2, 23280, Note_on_c, 0, 75, 84
2, 23303, Note_on_c, 0, 75, 0
2, 23304, Control_c, 0, 64, 0
2, 23304, Note_on_c, 0, 69, 84
2, 23327, Note_on_c, 0, 69, 0
2, 23352, Note_on_c, 0, 68, 84
2, 23375, Note_on_c, 0, 68, 0
2, 23376, Note_on_c, 0, 76, 84
2, 23399, Note_on_c, 0, 76, 0
2, 23400, Note_on_c, 0, 68, 84
2, 23423, Note_on_c, 0, 68, 0
2, 23448, Note_on_c, 0, 68, 84
2, 23471, Note_on_c, 0, 68, 0
2, 23472, Note_on_c, 0, 80, 84
2, 23495, Note_on_c, 0, 80, 0
2, 23496, Note_on_c, 0, 68, 84
2, 23519, Note_on_c, 0, 68, 0
2, 23544, Note_on_c, 0, 69, 84
2, 23567, Note_on_c, 0, 69, 0
2, 23568, Note_on_c, 0, 81, 84
2, 23591, Note_on_c, 0, 81, 0
2, 23592, Note_on_c, 0, 69, 84
2, 23615, Note_on_c, 0, 69, 0
2, 23640, Note_on_c, 0, 74, 84
2, 23663, Note_on_c, 0, 74, 0
2, 23664, Note_on_c, 0, 86, 84
2, 23687, Note_on_c, 0, 86, 0
2, 23688, Note_on_c, 0, 74, 84
2, 23711, Note_on_c, 0, 74, 0
2, 23736, Note_on_c, 0, 71, 84
2, 23759, Note_on_c, 0, 71, 0
2, 23760, Note_on_c, 0, 83, 84
2, 23783, Note_on_c, 0, 83, 0
2, 23784, Note_on_c, 0, 71, 84
2, 23807, Note_on_c, 0, 71, 0
2, 23832, Note_on_c, 0, 73, 84
2, 23855, Note_on_c, 0, 73, 0
2, 23856, Note_on_c, 0, 85, 84
2, 23879, Note_on_c, 0, 85, 0
2, 23880, Note_on_c, 0, 73, 84
2, 23903, Note_on_c, 0, 73, 0
2, 23928, Note_on_c, 0, 66, 83
2, 23951, Note_on_c, 0, 66, 0
2, 23952, Note_on_c, 0, 65, 83
2, 23975, Note_on_c, 0, 65, 0
2, 23976, Note_on_c, 0, 66, 82
2, 23999, Note_on_c, 0, 66, 0
2, 24000, Note_on_c, 0, 71, 82
2, 24023, Note_on_c, 0, 71, 0
2, 24024, Note_on_c, 0, 66, 81
2, 24047, Note_on_c, 0, 66, 0
2, 24048, Note_on_c, 0, 65, 81
2, 24071, Note_on_c, 0, 65, 0
2, 24072, Note_on_c, 0, 66, 80
2, 24095, Note_on_c, 0, 66, 0
2, 24096, Note_on_c, 0, 74, 80
2, 24119, Note_on_c, 0, 74, 0
2, 24120, Note_on_c, 0, 66, 79
2, 24143, Note_on_c, 0, 66, 0
2, 24144, Note_on_c, 0, 65, 79
2, 24167, Note_on_c, 0, 65, 0
2, 24168, Note_on_c, 0, 66, 78
2, 24191, Note_on_c, 0, 66, 0
2, 24192, Note_on_c, 0, 76, 78
2, 24325, Note_on_c, 0, 76, 0
2, 24336, Note_on_c, 0, 73, 75
2, 24359, Note_on_c, 0, 73, 0
2, 24360, Note_on_c, 0, 69, 75
2, 24383, Note_on_c, 0, 69, 0
2, 24384, Note_on_c, 0, 74, 74
2, 24429, Note_on_c, 0, 74, 0
2, 24432, Note_on_c, 0, 71, 73
2, 24455, Note_on_c, 0, 71, 0
2, 24456, Note_on_c, 0, 68, 73
2, 24479, Note_on_c, 0, 68, 0
2, 24480, Note_on_c, 0, 69, 72
2, 24569, Note_on_c, 0, 69, 0
2, 24624, Note_on_c, 0, 66, 64
2, 24636, Note_on_c, 0, 66, 0
2, 24636, Note_on_c, 0, 64, 64
2, 24648, Note_on_c, 0, 64, 0
2, 24648, Note_on_c, 0, 62, 64
2, 24660, Note_on_c, 0, 62, 0
2, 24660, Note_on_c, 0, 64, 64
2, 24672, Note_on_c, 0, 64, 0
2, 24672, Note_on_c, 0, 66, 64
2, 24717, Note_on_c, 0, 66, 0
2, 24720, Note_on_c, 0, 62, 64
2, 24765, Note_on_c, 0, 62, 0
2, 24768, Note_on_c, 0, 64, 64
2, 24813, Note_on_c, 0, 64, 0
2, 24816, Note_on_c, 0, 61, 64
2, 24861, Note_on_c, 0, 61, 0
2, 24864, Note_on_c, 0, 62, 64
2, 24909, Note_on_c, 0, 62, 0
2, 24912, Note_on_c, 0, 59, 64
2, 24957, Note_on_c, 0, 59, 0
2, 24960, Note_on_c, 0, 61, 64
2, 25005, Note_on_c, 0, 61, 0
2, 25008, Note_on_c, 0, 71, 64
2, 25020, Note_on_c, 0, 71, 0
2, 25020, Note_on_c, 0, 69, 64
2, 25032, Note_on_c, 0, 69, 0
2, 25032, Note_on_c, 0, 67, 64
2, 25044, Note_on_c, 0, 67, 0
2, 25044, Note_on_c, 0, 69, 64
2, 25056, Note_on_c, 0, 69, 0
2, 25056, Note_on_c, 0, 71, 64
2, 25101, Note_on_c, 0, 71, 0
2, 25104, Note_on_c, 0, 68, 64
2, 25149, Note_on_c, 0, 68, 0
2, 25152, Note_on_c, 0, 69, 64
2, 25197, Note_on_c, 0, 69, 0
2, 25200, Note_on_c, 0, 74, 64
2, 25212, Note_on_c, 0, 74, 0
2, 25212, Note_on_c, 0, 73, 64
2, 25224, Note_on_c, 0, 73, 0
2, 25224, Note_on_c, 0, 71, 64
2, 25236, Note_on_c, 0, 71, 0
2, 25236, Note_on_c, 0, 73, 64
2, 25248, Note_on_c, 0, 73, 0
2, 25248, Note_on_c, 0, 74, 64
2, 25293, Note_on_c, 0, 74, 0
2, 25296, Note_on_c, 0, 71, 64
2, 25341, Note_on_c, 0, 71, 0
2, 25344, Note_on_c, 0, 73, 64
2, 25389, Note_on_c, 0, 73, 0
2, 25392, Note_on_c, 0, 76, 66
2, 25437, Note_on_c, 0, 76, 0
2, 25440, Note_on_c, 0, 78, 68
2, 25485, Note_on_c, 0, 78, 0
2, 25488, Note_on_c, 0, 86, 71
2, 25533, Note_on_c, 0, 86, 0
2, 25536, Note_on_c, 0, 76, 73
2, 25581, Note_on_c, 0, 76, 0
2, 25584, Note_on_c, 0, 85, 75
2, 25629, Note_on_c, 0, 85, 0
2, 25632, Note_on_c, 0, 74, 78
2, 25677, Note_on_c, 0, 74, 0
2, 25680, Note_on_c, 0, 83, 80
2, 25725, Note_on_c, 0, 83, 0
2, 25728, Note_on_c, 0, 85, 82
2, 25751, Note_on_c, 0, 85, 0
2, 25752, Note_on_c, 0, 88, 84
2, 25775, Note_on_c, 0, 88, 0
2, 25776, Note_on_c, 0, 85, 84
2, 25799, Note_on_c, 0, 85, 0
2, 25800, Note_on_c, 0, 81, 84
2, 25823, Note_on_c, 0, 81, 0
2, 25824, Note_on_c, 0, 81, 84
2, 25847, Note_on_c, 0, 81, 0
2, 25848, Note_on_c, 0, 85, 84
2, 25871, Note_on_c, 0, 85, 0
2, 25872, Note_on_c, 0, 81, 84
2, 25895, Note_on_c, 0, 81, 0
2, 25896, Note_on_c, 0, 76, 84
2, 25919, Note_on_c, 0, 76, 0
2, 25920, Note_on_c, 0, 76, 84
2, 25943, Note_on_c, 0, 76, 0
2, 25944, Note_on_c, 0, 81, 84
2, 25967, Note_on_c, 0, 81, 0
2, 25968, Note_on_c, 0, 76, 84
2, 25991, Note_on_c, 0, 76, 0
2, 25992, Note_on_c, 0, 73, 84
2, 26015, Note_on_c, 0, 73, 0
2, 26016, Note_on_c, 0, 73, 84
2, 26039, Note_on_c, 0, 73, 0
2, 26040, Note_on_c, 0, 76, 84
2, 26063, Note_on_c, 0, 76, 0
2, 26064, Note_on_c, 0, 73, 84
2, 26087, Note_on_c, 0, 73, 0
2, 26088, Note_on_c, 0, 69, 84
2, 26111, Note_on_c, 0, 69, 0
2, 26112, Note_on_c, 0, 69, 84
2, 26135, Note_on_c, 0, 69, 0
2, 26136, Note_on_c, 0, 73, 84
2, 26159, Note_on_c, 0, 73, 0
2, 26160, Note_on_c, 0, 69, 84
2, 26183, Note_on_c, 0, 69, 0
2, 26184, Note_on_c, 0, 64, 84
2, 26207, Note_on_c, 0, 64, 0
2, 26208, Control_c, 0, 64, 127
2, 26208, Note_on_c, 0, 63, 84
2, 26297, Note_on_c, 0, 63, 0
2, 26328, Note_on_c, 0, 69, 84
2, 26351, Note_on_c, 0, 69, 0
2, 26352, Note_on_c, 0, 72, 84
2, 26375, Note_on_c, 0, 72, 0
2, 26376, Note_on_c, 0, 69, 84
2, 26399, Note_on_c, 0, 69, 0
2, 26424, Note_on_c, 0, 69, 84
2, 26447, Note_on_c, 0, 69, 0
2, 26448, Note_on_c, 0, 72, 84
2, 26471, Note_on_c, 0, 72, 0
2, 26472, Control_c, 0, 64, 0
2, 26472, Note_on_c, 0, 69, 84
2, 26495, Note_on_c, 0, 69, 0
2, 26496, Control_c, 0, 64, 127
2, 26520, Note_on_c, 0, 69, 84
2, 26543, Note_on_c, 0, 69, 0
2, 26544, Note_on_c, 0, 72, 84
2, 26567, Note_on_c, 0, 72, 0
2, 26568, Note_on_c, 0, 69, 84
2, 26591, Note_on_c, 0, 69, 0
2, 26616, Note_on_c, 0, 69, 84
2, 26639, Note_on_c, 0, 69, 0
2, 26640, Note_on_c, 0, 72, 84
2, 26663, Note_on_c, 0, 72, 0
2, 26664, Note_on_c, 0, 69, 84
2, 26687, Note_on_c, 0, 69, 0
2, 26712, Note_on_c, 0, 69, 84
2, 26735, Note_on_c, 0, 69, 0
2, 26736, Note_on_c, 0, 72, 84
2, 26759, Note_on_c, 0, 72, 0
2, 26760, Control_c, 0, 64, 0
2, 26760, Note_on_c, 0, 69, 84
2, 26783, Note_on_c, 0, 69, 0
2, 26784, Control_c, 0, 64, 127
2, 26808, Note_on_c, 0, 69, 84
2, 26831, Note_on_c, 0, 69, 0
2, 26832, Note_on_c, 0, 72, 84
2, 26855, Note_on_c, 0, 72, 0
2, 26856, Note_on_c, 0, 69, 84
2, 26879, Note_on_c, 0, 69, 0
2, 26904, Note_on_c, 0, 69, 84
2, 26927, Note_on_c, 0, 69, 0
2, 26928, Note_on_c, 0, 81, 84
2, 26951, Note_on_c, 0, 81, 0
2, 26952, Note_on_c, 0, 69, 84
2, 26975, Note_on_c, 0, 69, 0
2, 27000, Note_on_c, 0, 69, 84
2, 27023, Note_on_c, 0, 69, 0
2, 27024, Note_on_c, 0, 79, 84
2, 27047, Note_on_c, 0, 79, 0
2, 27048, Control_c, 0, 64, 0
2, 27048, Note_on_c, 0, 69, 84
2, 27071, Note_on_c, 0, 69, 0
2, 27096, Note_on_c, 0, 69, 84
2, 27119, Note_on_c, 0, 69, 0
2, 27120, Note_on_c, 0, 77, 84
2, 27143, Note_on_c, 0, 77, 0
2, 27144, Note_on_c, 0, 69, 84
2, 27167, Note_on_c, 0, 69, 0
2, 27192, Note_on_c, 0, 69, 84
2, 27215, Note_on_c, 0, 69, 0
2, 27216, Note_on_c, 0, 76, 84
2, 27239, Note_on_c, 0, 76, 0
2, 27240, Note_on_c, 0, 69, 84
2, 27263, Note_on_c, 0, 69, 0
2, 27288, Note_on_c, 0, 69, 84
2, 27311, Note_on_c, 0, 69, 0
2, 27312, Note_on_c, 0, 75, 84
2, 27335, Note_on_c, 0, 75, 0
2, 27336, Note_on_c, 0, 69, 84
2, 27359, Note_on_c, 0, 69, 0
2, 27384, Note_on_c, 0, 68, 84
2, 27407, Note_on_c, 0, 68, 0
2, 27408, Note_on_c, 0, 76, 84
2, 27431, Note_on_c, 0, 76, 0
2, 27432, Note_on_c, 0, 68, 84
2, 27455, Note_on_c, 0, 68, 0
2, 27480, Note_on_c, 0, 71, 84
2, 27503, Note_on_c, 0, 71, 0
2, 27504, Note_on_c, 0, 74, 84
2, 27527, Note_on_c, 0, 74, 0
2, 27528, Note_on_c, 0, 71, 84
2, 27551, Note_on_c, 0, 71, 0
2, 27576, Note_on_c, 0, 69, 84
2, 27599, Note_on_c, 0, 69, 0
2, 27600, Note_on_c, 0, 73, 84
2, 27623, Note_on_c, 0, 73, 0
2, 27624, Note_on_c, 0, 69, 84
2, 27647, Note_on_c, 0, 69, 0
2, 27672, Note_on_c, 0, 71, 83
2, 27695, Note_on_c, 0, 71, 0
2, 27696, Note_on_c, 0, 74, 83
2, 27719, Note_on_c, 0, 74, 0
2, 27720, Note_on_c, 0, 71, 82
2, 27743, Note_on_c, 0, 71, 0
2, 27744, Note_on_c, 0, 69, 82
2, 27885, Note_on_c, 0, 69, 0
2, 27888, Note_on_c, 0, 68, 79
2, 27900, Note_on_c, 0, 68, 0
2, 27900, Note_on_c, 0, 69, 79
2, 27912, Note_on_c, 0, 69, 0
2, 27912, Note_on_c, 0, 68, 79
2, 27933, Note_on_c, 0, 68, 0
2, 27936, Note_on_c, 0, 69, 78
2, 28025, Note_on_c, 0, 69, 0
2, 28032, Note_on_c, 0, 81, 84
2, 28121, Note_on_c, 0, 81, 0
2, 28128, Note_on_c, 0, 80, 84
2, 28217, Note_on_c, 0, 80, 0
2, 28224, Note_on_c, 0, 80, 84
2, 28236, Note_on_c, 0, 80, 0
2, 28236, Note_on_c, 0, 78, 84
2, 28248, Note_on_c, 0, 78, 0
2, 28248, Note_on_c, 0, 77, 84
2, 28260, Note_on_c, 0, 77, 0
2, 28260, Note_on_c, 0, 78, 84
2, 28313, Note_on_c, 0, 78, 0
2, 28320, Note_on_c, 0, 76, 84
2, 28332, Note_on_c, 0, 76, 0
2, 28332, Note_on_c, 0, 74, 84
2, 28344, Note_on_c, 0, 74, 0
2, 28344, Note_on_c, 0, 73, 84
2, 28356, Note_on_c, 0, 73, 0
2, 28356, Note_on_c, 0, 74, 84
2, 28409, Note_on_c, 0, 74, 0
2, 28416, Note_on_c, 0, 73, 84
2, 28428, Note_on_c, 0, 73, 0
2, 28428, Note_on_c, 0, 71, 84
2, 28440, Note_on_c, 0, 71, 0
2, 28440, Note_on_c, 0, 69, 84
2, 28452, Note_on_c, 0, 69, 0
2, 28452, Note_on_c, 0, 71, 84
2, 28505, Note_on_c, 0, 71, 0
2, 28512, Note_on_c, 0, 64, 84
2, 28601, Note_on_c, 0, 64, 0
2, 28608, Note_on_c, 0, 73, 84
2, 28621, Note_on_c, 0, 73, 0
2, 28622, Note_on_c, 0, 71, 84
2, 28635, Note_on_c, 0, 71, 0
2, 28636, Note_on_c, 0, 73, 84
2, 28649, Note_on_c, 0, 73, 0
2, 28650, Note_on_c, 0, 71, 84
2, 28663, Note_on_c, 0, 71, 0
2, 28664, Note_on_c, 0, 73, 84
2, 28677, Note_on_c, 0, 73, 0
2, 28678, Note_on_c, 0, 71, 84
2, 28691, Note_on_c, 0, 71, 0
2, 28692, Note_on_c, 0, 73, 84
2, 28705, Note_on_c, 0, 73, 0
2, 28706, Note_on_c, 0, 71, 84
2, 28719, Note_on_c, 0, 71, 0
2, 28720, Note_on_c, 0, 73, 84
2, 28733, Note_on_c, 0, 73, 0
2, 28734, Note_on_c, 0, 71, 84
2, 28747, Note_on_c, 0, 71, 0
2, 28748, Note_on_c, 0, 73, 84
2, 28760, Note_on_c, 0, 73, 0
2, 28761, Note_on_c, 0, 71, 84
2, 28773, Note_on_c, 0, 71, 0
2, 28774, Note_on_c, 0, 69, 84
2, 28786, Note_on_c, 0, 69, 0
2, 28787, Note_on_c, 0, 71, 84
2, 28799, Note_on_c, 0, 71, 0
2, 28800, Note_on_c, 0, 69, 84
2, 28823, Note_on_c, 0, 69, 0
2, 28824, Note_on_c, 0, 76, 84
2, 28847, Note_on_c, 0, 76, 0
2, 28848, Note_on_c, 0, 73, 84
2, 28871, Note_on_c, 0, 73, 0
2, 28872, Note_on_c, 0, 69, 84
2, 28895, Note_on_c, 0, 69, 0
2, 28896, Note_on_c, 0, 64, 84
2, 28941, Note_on_c, 0, 64, 0
2, 28944, Note_on_c, 0, 61, 84
2, 28964, Note_on_c, 0, 61, 0
2, 28992, Note_on_c, 0, 59, 84
2, 29012, Note_on_c, 0, 59, 0
2, 29040, Note_on_c, 0, 62, 84
2, 29060, Note_on_c, 0, 62, 0
2, 29088, Note_on_c, 0, 61, 84
2, 29111, Note_on_c, 0, 61, 0
2, 29112, Note_on_c, 0, 64, 84
2, 29135, Note_on_c, 0, 64, 0
2, 29136, Note_on_c, 0, 69, 84
2, 29159, Note_on_c, 0, 69, 0
2, 29160, Note_on_c, 0, 73, 84
2, 29183, Note_on_c, 0, 73, 0
2, 29184, Note_on_c, 0, 76, 84
2, 29229, Note_on_c, 0, 76, 0
2, 29232, Note_on_c, 0, 61, 84
2, 29252, Note_on_c, 0, 61, 0
2, 29280, Note_on_c, 0, 62, 84
2, 29300, Note_on_c, 0, 62, 0
2, 29328, Note_on_c, 0, 68, 84
2, 29328, Note_on_c, 0, 62, 84
2, 29348, Note_on_c, 0, 68, 0
2, 29348, Note_on_c, 0, 62, 0
2, 29376, Note_on_c, 0, 69, 84
2, 29376, Note_on_c, 0, 61, 84
2, 29465, Note_on_c, 0, 69, 0
2, 29465, Note_on_c, 0, 61, 0
2, 29568, Note_on_c, 0, 76, 78
2, 29574, Note_on_c, 0, 76, 0
2, 29574, Note_on_c, 0, 76, 78
2, 29588, Note_on_c, 0, 76, 0
2, 29616, Note_on_c, 0, 78, 81
2, 29622, Note_on_c, 0, 78, 0
2, 29622, Note_on_c, 0, 76, 81
2, 29628, Note_on_c, 0, 76, 0
2, 29628, Note_on_c, 0, 74, 81
2, 29634, Note_on_c, 0, 74, 0
2, 29634, Note_on_c, 0, 76, 82
2, 29640, Note_on_c, 0, 76, 0
2, 29640, Note_on_c, 0, 81, 82
2, 29663, Note_on_c, 0, 81, 0
2, 29664, Note_on_c, 0, 79, 100
2, 29805, Note_on_c, 0, 79, 0
2, 29808, Note_on_c, 0, 76, 81
2, 29853, Note_on_c, 0, 76, 0
2, 29856, Note_on_c, 0, 78, 80
2, 29901, Note_on_c, 0, 78, 0
2, 29904, Note_on_c, 0, 74, 79
2, 29949, Note_on_c, 0, 74, 0
2, 29952, Note_on_c, 0, 73, 78
2, 29997, Note_on_c, 0, 73, 0
2, 30000, Note_on_c, 0, 69, 78
2, 30045, Note_on_c, 0, 69, 0
2, 30048, Note_on_c, 0, 76, 79
2, 30093, Note_on_c, 0, 76, 0
2, 30096, Note_on_c, 0, 73, 80
2, 30141, Note_on_c, 0, 73, 0
2, 30144, Note_on_c, 0, 74, 81
2, 30189, Note_on_c, 0, 74, 0
2, 30192, Note_on_c, 0, 78, 82
2, 30237, Note_on_c, 0, 78, 0
2, 30240, Note_on_c, 0, 79, 100
2, 30381, Note_on_c, 0, 79, 0
2, 30384, Note_on_c, 0, 76, 81
2, 30429, Note_on_c, 0, 76, 0
2, 30432, Note_on_c, 0, 78, 80
2, 30477, Note_on_c, 0, 78, 0
2, 30480, Note_on_c, 0, 74, 79
2, 30525, Note_on_c, 0, 74, 0
2, 30528, Note_on_c, 0, 73, 78
2, 30573, Note_on_c, 0, 73, 0
2, 30576, Note_on_c, 0, 69, 79
2, 30621, Note_on_c, 0, 69, 0
2, 30624, Note_on_c, 0, 76, 80
2, 30669, Note_on_c, 0, 76, 0
2, 30672, Note_on_c, 0, 73, 81
2, 30717, Note_on_c, 0, 73, 0
2, 30720, Note_on_c, 0, 74, 82
2, 30765, Note_on_c, 0, 74, 0
2, 30768, Note_on_c, 0, 86, 83
2, 30813, Note_on_c, 0, 86, 0
2, 30816, Note_on_c, 0, 84, 100
2, 30957, Note_on_c, 0, 84, 0
2, 30960, Note_on_c, 0, 81, 81
2, 31005, Note_on_c, 0, 81, 0
2, 31008, Note_on_c, 0, 83, 80
2, 31053, Note_on_c, 0, 83, 0
2, 31056, Note_on_c, 0, 79, 79
2, 31101, Note_on_c, 0, 79, 0
2, 31104, Note_on_c, 0, 78, 78
2, 31149, Note_on_c, 0, 78, 0
2, 31152, Note_on_c, 0, 74, 79
2, 31197, Note_on_c, 0, 74, 0
2, 31200, Note_on_c, 0, 81, 80
2, 31245, Note_on_c, 0, 81, 0
2, 31248, Note_on_c, 0, 78, 81
2, 31293, Note_on_c, 0, 78, 0
2, 31296, Note_on_c, 0, 79, 82
2, 31341, Note_on_c, 0, 79, 0
2, 31344, Note_on_c, 0, 83, 83
2, 31389, Note_on_c, 0, 83, 0
2, 31392, Note_on_c, 0, 84, 100
2, 31533, Note_on_c, 0, 84, 0
2, 31536, Note_on_c, 0, 81, 81
2, 31581, Note_on_c, 0, 81, 0
2, 31584, Note_on_c, 0, 83, 80
2, 31629, Note_on_c, 0, 83, 0
2, 31632, Note_on_c, 0, 79, 79
2, 31677, Note_on_c, 0, 79, 0
2, 31680, Note_on_c, 0, 78, 78
2, 31725, Note_on_c, 0, 78, 0
2, 31728, Note_on_c, 0, 74, 79
2, 31773, Note_on_c, 0, 74, 0
2, 31776, Note_on_c, 0, 81, 80
2, 31821, Note_on_c, 0, 81, 0
2, 31824, Note_on_c, 0, 78, 81
2, 31869, Note_on_c, 0, 78, 0
2, 31872, Note_on_c, 0, 79, 82
2, 31917, Note_on_c, 0, 79, 0
2, 31920, Note_on_c, 0, 83, 83
2, 31965, Note_on_c, 0, 83, 0
2, 31968, Note_on_c, 0, 72, 84
2, 32013, Note_on_c, 0, 72, 0
2, 32016, Note_on_c, 0, 81, 83
2, 32061, Note_on_c, 0, 81, 0
2, 32064, Note_on_c, 0, 71, 82
2, 32109, Note_on_c, 0, 71, 0
2, 32112, Note_on_c, 0, 79, 81
2, 32157, Note_on_c, 0, 79, 0
2, 32160, Note_on_c, 0, 69, 80
2, 32205, Note_on_c, 0, 69, 0
2, 32208, Note_on_c, 0, 78, 79
2, 32253, Note_on_c, 0, 78, 0
2, 32256, Note_on_c, 0, 67, 78
2, 32304, Note_on_c, 0, 67, 0
2, 32304, Note_on_c, 0, 79, 78
2, 32304, Note_on_c, 0, 76, 78
2, 32349, Note_on_c, 0, 79, 0
2, 32349, Note_on_c, 0, 76, 0
2, 32352, Note_on_c, 0, 79, 78
2, 32352, Note_on_c, 0, 76, 78
2, 32397, Note_on_c, 0, 79, 0
2, 32397, Note_on_c, 0, 76, 0
2, 32400, Note_on_c, 0, 78, 78
2, 32400, Note_on_c, 0, 74, 78
2, 32445, Note_on_c, 0, 78, 0
2, 32445, Note_on_c, 0, 74, 0
2, 32448, Note_on_c, 0, 76, 78
2, 32448, Note_on_c, 0, 73, 78
2, 32493, Note_on_c, 0, 76, 0
2, 32493, Note_on_c, 0, 73, 0
2, 32496, Note_on_c, 0, 74, 78
2, 32496, Note_on_c, 0, 71, 78
2, 32541, Note_on_c, 0, 74, 0
2, 32541, Note_on_c, 0, 71, 0
2, 32544, Note_on_c, 0, 73, 78
2, 32544, Note_on_c, 0, 70, 78
2, 32633, Note_on_c, 0, 73, 0
2, 32633, Note_on_c, 0, 70, 0
2, 32640, Note_on_c, 0, 74, 80
2, 32640, Note_on_c, 0, 71, 80
2, 32729, Note_on_c, 0, 74, 0
2, 32729, Note_on_c, 0, 71, 0
2, 32736, Note_on_c, 0, 76, 82
2, 32736, Note_on_c, 0, 73, 82
2, 32825, Note_on_c, 0, 76, 0
2, 32825, Note_on_c, 0, 73, 0
2, 32856, Note_on_c, 0, 71, 84
2, 32879, Note_on_c, 0, 71, 0
2, 32880, Note_on_c, 0, 74, 84
2, 32903, Note_on_c, 0, 74, 0
2, 32904, Note_on_c, 0, 71, 84
2, 32927, Note_on_c, 0, 71, 0
2, 32952, Note_on_c, 0, 71, 84
2, 32975, Note_on_c, 0, 71, 0
2, 32976, Note_on_c, 0, 74, 84
2, 32999, Note_on_c, 0, 74, 0
2, 33000, Note_on_c, 0, 71, 84
2, 33023, Note_on_c, 0, 71, 0
2, 33048, Note_on_c, 0, 71, 84
2, 33071, Note_on_c, 0, 71, 0
2, 33072, Note_on_c, 0, 74, 84
2, 33095, Note_on_c, 0, 74, 0
2, 33096, Note_on_c, 0, 71, 84
2, 33119, Note_on_c, 0, 71, 0
2, 33144, Note_on_c, 0, 71, 84
2, 33167, Note_on_c, 0, 71, 0
2, 33168, Note_on_c, 0, 83, 84
2, 33191, Note_on_c, 0, 83, 0
2, 33192, Note_on_c, 0, 71, 84
2, 33215, Note_on_c, 0, 71, 0
2, 33240, Note_on_c, 0, 71, 84
2, 33263, Note_on_c, 0, 71, 0
2, 33264, Note_on_c, 0, 83, 84
2, 33287, Note_on_c, 0, 83, 0
2, 33288, Note_on_c, 0, 71, 84
2, 33311, Note_on_c, 0, 71, 0
2, 33336, Note_on_c, 0, 71, 84
2, 33359, Note_on_c, 0, 71, 0
2, 33360, Note_on_c, 0, 81, 84
2, 33383, Note_on_c, 0, 81, 0
2, 33384, Note_on_c, 0, 71, 84
2, 33407, Note_on_c, 0, 71, 0
2, 33432, Note_on_c, 0, 71, 84
2, 33455, Note_on_c, 0, 71, 0
2, 33456, Note_on_c, 0, 79, 84
2, 33479, Note_on_c, 0, 79, 0
2, 33480, Note_on_c, 0, 71, 84
2, 33503, Note_on_c, 0, 71, 0
2, 33528, Note_on_c, 0, 71, 84
2, 33551, Note_on_c, 0, 71, 0
2, 33552, Note_on_c, 0, 79, 84
2, 33575, Note_on_c, 0, 79, 0
2, 33576, Note_on_c, 0, 71, 84
2, 33599, Note_on_c, 0, 71, 0
2, 33624, Note_on_c, 0, 71, 84
2, 33647, Note_on_c, 0, 71, 0
2, 33648, Note_on_c, 0, 78, 84
2, 33671, Note_on_c, 0, 78, 0
2, 33672, Note_on_c, 0, 71, 84
2, 33695, Note_on_c, 0, 71, 0
2, 33696, Control_c, 0, 64, 127
2, 33720, Note_on_c, 0, 71, 84
2, 33743, Note_on_c, 0, 71, 0
2, 33744, Note_on_c, 0, 77, 84
2, 33767, Note_on_c, 0, 77, 0
2, 33768, Note_on_c, 0, 71, 84
2, 33791, Note_on_c, 0, 71, 0
2, 33816, Note_on_c, 0, 71, 84
2, 33839, Note_on_c, 0, 71, 0
2, 33840, Note_on_c, 0, 77, 84
2, 33863, Note_on_c, 0, 77, 0
2, 33864, Note_on_c, 0, 71, 84
2, 33887, Note_on_c, 0, 71, 0
2, 33912, Note_on_c, 0, 71, 84
2, 33935, Note_on_c, 0, 71, 0
2, 33936, Note_on_c, 0, 77, 84
2, 33959, Note_on_c, 0, 77, 0
2, 33960, Control_c, 0, 64, 0
2, 33960, Note_on_c, 0, 71, 84
2, 33983, Note_on_c, 0, 71, 0
2, 33984, Control_c, 0, 64, 127
2, 33984, Control_c, 0, 64, 127
2, 34008, Note_on_c, 0, 70, 84
2, 34031, Note_on_c, 0, 70, 0
2, 34032, Note_on_c, 0, 76, 84
2, 34055, Note_on_c, 0, 76, 0
2, 34056, Note_on_c, 0, 70, 84
2, 34079, Note_on_c, 0, 70, 0
2, 34104, Note_on_c, 0, 70, 84
2, 34127, Note_on_c, 0, 70, 0
2, 34128, Note_on_c, 0, 76, 84
2, 34151, Note_on_c, 0, 76, 0
2, 34152, Note_on_c, 0, 70, 84
2, 34175, Note_on_c, 0, 70, 0
2, 34200, Note_on_c, 0, 73, 84
2, 34223, Note_on_c, 0, 73, 0
2, 34224, Note_on_c, 0, 76, 84
2, 34247, Note_on_c, 0, 76, 0
2, 34248, Control_c, 0, 64, 0
2, 34248, Note_on_c, 0, 73, 84
2, 34271, Note_on_c, 0, 73, 0
2, 34272, Control_c, 0, 64, 127
2, 34272, Control_c, 0, 64, 127
2, 34296, Note_on_c, 0, 71, 84
2, 34319, Note_on_c, 0, 71, 0
2, 34320, Note_on_c, 0, 74, 84
2, 34343, Note_on_c, 0, 74, 0
2, 34344, Note_on_c, 0, 71, 84
2, 34367, Note_on_c, 0, 71, 0
2, 34392, Note_on_c, 0, 71, 84
2, 34415, Note_on_c, 0, 71, 0
2, 34416, Note_on_c, 0, 74, 84
2, 34439, Note_on_c, 0, 74, 0
2, 34440, Note_on_c, 0, 71, 84
2, 34463, Note_on_c, 0, 71, 0
2, 34488, Note_on_c, 0, 71, 84
2, 34511, Note_on_c, 0, 71, 0
2, 34512, Note_on_c, 0, 74, 84
2, 34535, Note_on_c, 0, 74, 0
2, 34536, Control_c, 0, 64, 0
2, 34536, Note_on_c, 0, 71, 84
2, 34559, Note_on_c, 0, 71, 0
2, 34560, Control_c, 0, 64, 127
2, 34560, Control_c, 0, 64, 127
2, 34584, Note_on_c, 0, 67, 84
2, 34607, Note_on_c, 0, 67, 0
2, 34608, Note_on_c, 0, 74, 84
2, 34631, Note_on_c, 0, 74, 0
2, 34632, Note_on_c, 0, 67, 84
2, 34655, Note_on_c, 0, 67, 0
2, 34680, Note_on_c, 0, 67, 84
2, 34703, Note_on_c, 0, 67, 0
2, 34704, Note_on_c, 0, 74, 84
2, 34727, Note_on_c, 0, 74, 0
2, 34728, Note_on_c, 0, 67, 84
2, 34751, Note_on_c, 0, 67, 0
2, 34776, Note_on_c, 0, 67, 84
2, 34799, Note_on_c, 0, 67, 0
2, 34800, Note_on_c, 0, 74, 84
2, 34823, Note_on_c, 0, 74, 0
2, 34824, Control_c, 0, 64, 0
2, 34824, Note_on_c, 0, 67, 84
2, 34847, Note_on_c, 0, 67, 0
2, 34848, Control_c, 0, 64, 127
2, 34872, Note_on_c, 0, 67, 84
2, 34895, Note_on_c, 0, 67, 0
2, 34896, Note_on_c, 0, 72, 84
2, 34919, Note_on_c, 0, 72, 0
2, 34920, Note_on_c, 0, 67, 84
2, 34943, Note_on_c, 0, 67, 0
2, 34968, Note_on_c, 0, 67, 84
2, 34991, Note_on_c, 0, 67, 0
2, 34992, Note_on_c, 0, 72, 84
2, 35015, Note_on_c, 0, 72, 0
2, 35016, Note_on_c, 0, 67, 84
2, 35039, Note_on_c, 0, 67, 0
2, 35064, Note_on_c, 0, 67, 84
2, 35087, Note_on_c, 0, 67, 0
2, 35088, Note_on_c, 0, 72, 84
2, 35111, Note_on_c, 0, 72, 0
2, 35112, Control_c, 0, 64, 0
2, 35112, Note_on_c, 0, 67, 84
2, 35135, Note_on_c, 0, 67, 0
2, 35136, Control_c, 0, 64, 127
2, 35160, Note_on_c, 0, 66, 84
2, 35183, Note_on_c, 0, 66, 0
2, 35184, Note_on_c, 0, 72, 84
2, 35207, Note_on_c, 0, 72, 0
2, 35208, Note_on_c, 0, 66, 84
2, 35231, Note_on_c, 0, 66, 0
2, 35256, Note_on_c, 0, 66, 84
2, 35279, Note_on_c, 0, 66, 0
2, 35280, Note_on_c, 0, 72, 84
2, 35303, Note_on_c, 0, 72, 0
2, 35304, Note_on_c, 0, 66, 84
2, 35327, Note_on_c, 0, 66, 0
2, 35352, Note_on_c, 0, 69, 84
2, 35375, Note_on_c, 0, 69, 0
2, 35376, Note_on_c, 0, 72, 84
2, 35399, Note_on_c, 0, 72, 0
2, 35400, Control_c, 0, 64, 0
2, 35400, Note_on_c, 0, 69, 84
2, 35423, Note_on_c, 0, 69, 0
2, 35448, Note_on_c, 0, 67, 84
2, 35471, Note_on_c, 0, 67, 0
2, 35472, Note_on_c, 0, 71, 84
2, 35495, Note_on_c, 0, 71, 0
2, 35496, Note_on_c, 0, 67, 84
2, 35519, Note_on_c, 0, 67, 0
2, 35544, Note_on_c, 0, 67, 84
2, 35567, Note_on_c, 0, 67, 0
2, 35568, Note_on_c, 0, 71, 84
2, 35591, Note_on_c, 0, 71, 0
2, 35592, Note_on_c, 0, 67, 84
2, 35615, Note_on_c, 0, 67, 0
2, 35640, Note_on_c, 0, 67, 84
2, 35663, Note_on_c, 0, 67, 0
2, 35664, Note_on_c, 0, 71, 84
2, 35687, Note_on_c, 0, 71, 0
2, 35688, Note_on_c, 0, 67, 84
2, 35711, Note_on_c, 0, 67, 0
2, 35736, Note_on_c, 0, 67, 84
2, 35759, Note_on_c, 0, 67, 0
2, 35760, Note_on_c, 0, 71, 84
2, 35783, Note_on_c, 0, 71, 0
2, 35784, Note_on_c, 0, 67, 84
2, 35807, Note_on_c, 0, 67, 0
2, 35832, Note_on_c, 0, 67, 84
2, 35855, Note_on_c, 0, 67, 0
2, 35856, Note_on_c, 0, 71, 84
2, 35879, Note_on_c, 0, 71, 0
2, 35880, Note_on_c, 0, 67, 84
2, 35903, Note_on_c, 0, 67, 0
2, 35928, Note_on_c, 0, 67, 84
2, 35951, Note_on_c, 0, 67, 0
2, 35952, Note_on_c, 0, 71, 84
2, 35975, Note_on_c, 0, 71, 0
2, 35976, Note_on_c, 0, 67, 84
2, 35999, Note_on_c, 0, 67, 0
2, 36024, Note_on_c, 0, 67, 84
2, 36047, Note_on_c, 0, 67, 0
2, 36048, Note_on_c, 0, 70, 84
2, 36071, Note_on_c, 0, 70, 0
2, 36072, Note_on_c, 0, 67, 84
2, 36095, Note_on_c, 0, 67, 0
2, 36120, Note_on_c, 0, 66, 85
2, 36143, Note_on_c, 0, 66, 0
2, 36144, Note_on_c, 0, 71, 85
2, 36167, Note_on_c, 0, 71, 0
2, 36168, Note_on_c, 0, 66, 85
2, 36191, Note_on_c, 0, 66, 0
2, 36216, Note_on_c, 0, 64, 86
2, 36239, Note_on_c, 0, 64, 0
2, 36240, Note_on_c, 0, 73, 86
2, 36263, Note_on_c, 0, 73, 0
2, 36264, Note_on_c, 0, 64, 86
2, 36287, Note_on_c, 0, 64, 0
2, 36312, Note_on_c, 0, 62, 87
2, 36335, Note_on_c, 0, 62, 0
2, 36336, Note_on_c, 0, 74, 87
2, 36359, Note_on_c, 0, 74, 0
2, 36360, Note_on_c, 0, 62, 87
2, 36383, Note_on_c, 0, 62, 0
2, 36408, Note_on_c, 0, 62, 88
2, 36431, Note_on_c, 0, 62, 0
2, 36432, Note_on_c, 0, 71, 88
2, 36455, Note_on_c, 0, 71, 0
2, 36456, Note_on_c, 0, 62, 88
2, 36479, Note_on_c, 0, 62, 0
2, 36504, Note_on_c, 0, 62, 89
2, 36527, Note_on_c, 0, 62, 0
2, 36528, Note_on_c, 0, 71, 89
2, 36551, Note_on_c, 0, 71, 0
2, 36552, Note_on_c, 0, 62, 89
2, 36575, Note_on_c, 0, 62, 0
2, 36576, Control_c, 0, 64, 127
2, 36576, Note_on_c, 0, 70, 89
2, 36599, Note_on_c, 0, 70, 0
2, 36600, Note_on_c, 0, 73, 89
2, 36623, Note_on_c, 0, 73, 0
2, 36624, Note_on_c, 0, 70, 89
2, 36647, Note_on_c, 0, 70, 0
2, 36648, Note_on_c, 0, 66, 89
2, 36671, Note_on_c, 0, 66, 0
2, 36672, Note_on_c, 0, 66, 89
2, 36695, Note_on_c, 0, 66, 0
2, 36696, Note_on_c, 0, 70, 89
2, 36719, Note_on_c, 0, 70, 0
2, 36720, Note_on_c, 0, 66, 89
2, 36743, Note_on_c, 0, 66, 0
2, 36744, Note_on_c, 0, 61, 89
2, 36767, Note_on_c, 0, 61, 0
2, 36768, Note_on_c, 0, 61, 89
2, 36791, Note_on_c, 0, 61, 0
2, 36792, Note_on_c, 0, 66, 89
2, 36815, Note_on_c, 0, 66, 0
2, 36816, Note_on_c, 0, 61, 89
2, 36839, Note_on_c, 0, 61, 0
2, 36840, Note_on_c, 0, 58, 89
2, 36863, Note_on_c, 0, 58, 0
2, 36864, Control_c, 0, 64, 0
2, 37152, Note_on_c, 0, 76, 64
2, 37285, Note_on_c, 0, 76, 0
2, 37296, Note_on_c, 0, 73, 65
2, 37341, Note_on_c, 0, 73, 0
2, 37344, Note_on_c, 0, 74, 65
2, 37389, Note_on_c, 0, 74, 0
2, 37392, Note_on_c, 0, 71, 66
2, 37437, Note_on_c, 0, 71, 0
2, 37440, Note_on_c, 0, 70, 66
2, 37573, Note_on_c, 0, 70, 0
2, 37584, Note_on_c, 0, 73, 67
2, 37629, Note_on_c, 0, 73, 0
2, 37632, Note_on_c, 0, 71, 68
2, 37677, Note_on_c, 0, 71, 0
2, 37680, Note_on_c, 0, 66, 68
2, 37725, Note_on_c, 0, 66, 0
2, 37728, Note_on_c, 0, 76, 69
2, 37861, Note_on_c, 0, 76, 0
2, 37872, Note_on_c, 0, 73, 70
2, 37917, Note_on_c, 0, 73, 0
2, 37920, Note_on_c, 0, 74, 70
2, 37965, Note_on_c, 0, 74, 0
2, 37968, Note_on_c, 0, 78, 71
2, 38013, Note_on_c, 0, 78, 0
2, 38016, Note_on_c, 0, 79, 71
2, 38253, Note_on_c, 0, 79, 0
2, 38256, Note_on_c, 0, 81, 74
2, 38301, Note_on_c, 0, 81, 0
2, 38304, Note_on_c, 0, 78, 74
2, 38541, Note_on_c, 0, 78, 0
2, 38544, Note_on_c, 0, 79, 76
2, 38589, Note_on_c, 0, 79, 0
2, 38592, Note_on_c, 0, 76, 77
2, 38829, Note_on_c, 0, 76, 0
2, 38832, Note_on_c, 0, 78, 79
2, 38877, Note_on_c, 0, 78, 0
2, 38880, Note_on_c, 0, 74, 79
2, 38880, Note_on_c, 0, 71, 79
2, 38969, Note_on_c, 0, 74, 0
2, 38969, Note_on_c, 0, 71, 0
2, 38976, Note_on_c, 0, 86, 80
2, 38976, Note_on_c, 0, 83, 80
2, 39065, Note_on_c, 0, 86, 0
2, 39065, Note_on_c, 0, 83, 0
2, 39168, Note_on_c, 0, 74, 82
2, 39168, Note_on_c, 0, 71, 82
2, 39257, Note_on_c, 0, 74, 0
2, 39257, Note_on_c, 0, 71, 0
2, 39264, Note_on_c, 0, 86, 83
2, 39264, Note_on_c, 0, 83, 83
2, 39353, Note_on_c, 0, 86, 0
2, 39353, Note_on_c, 0, 83, 0
2, 39456, Note_on_c, 0, 83, 84
2, 39479, Note_on_c, 0, 83, 0
2, 39480, Note_on_c, 0, 86, 84
2, 39503, Note_on_c, 0, 86, 0
2, 39504, Note_on_c, 0, 83, 84
2, 39527, Note_on_c, 0, 83, 0
2, 39528, Note_on_c, 0, 80, 84
2, 39551, Note_on_c, 0, 80, 0
2, 39552, Note_on_c, 0, 80, 84
2, 39575, Note_on_c, 0, 80, 0
2, 39576, Note_on_c, 0, 83, 84
2, 39599, Note_on_c, 0, 83, 0
2, 39600, Note_on_c, 0, 80, 84
2, 39623, Note_on_c, 0, 80, 0
2, 39624, Note_on_c, 0, 77, 84
2, 39647, Note_on_c, 0, 77, 0
2, 39648, Note_on_c, 0, 77, 84
2, 39671, Note_on_c, 0, 77, 0
2, 39672, Note_on_c, 0, 80, 84
2, 39695, Note_on_c, 0, 80, 0
2, 39696, Note_on_c, 0, 77, 84
2, 39719, Note_on_c, 0, 77, 0
2, 39720, Note_on_c, 0, 74, 84
2, 39743, Note_on_c, 0, 74, 0
2, 39744, Note_on_c, 0, 76, 84
2, 39767, Note_on_c, 0, 76, 0
2, 39768, Note_on_c, 0, 79, 84
2, 39791, Note_on_c, 0, 79, 0
2, 39792, Note_on_c, 0, 76, 84
2, 39815, Note_on_c, 0, 76, 0
2, 39816, Note_on_c, 0, 73, 84
2, 39839, Note_on_c, 0, 73, 0
2, 39840, Note_on_c, 0, 73, 84
2, 39863, Note_on_c, 0, 73, 0
2, 39864, Note_on_c, 0, 76, 84
2, 39887, Note_on_c, 0, 76, 0
2, 39888, Note_on_c, 0, 73, 84
2, 39911, Note_on_c, 0, 73, 0
2, 39912, Note_on_c, 0, 70, 84
2, 39935, Note_on_c, 0, 70, 0
2, 39936, Note_on_c, 0, 70, 84
2, 39959, Note_on_c, 0, 70, 0
2, 39960, Note_on_c, 0, 73, 84
2, 39983, Note_on_c, 0, 73, 0
2, 39984, Note_on_c, 0, 70, 84
2, 40007, Note_on_c, 0, 70, 0
2, 40008, Note_on_c, 0, 64, 84
2, 40031, Note_on_c, 0, 64, 0
2, 40032, Note_on_c, 0, 66, 84
2, 40055, Note_on_c, 0, 66, 0
2, 40056, Note_on_c, 0, 71, 84
2, 40079, Note_on_c, 0, 71, 0
2, 40080, Note_on_c, 0, 66, 84
2, 40103, Note_on_c, 0, 66, 0
2, 40104, Note_on_c, 0, 62, 84
2, 40127, Note_on_c, 0, 62, 0
2, 40128, Note_on_c, 0, 66, 84
2, 40151, Note_on_c, 0, 66, 0
2, 40152, Note_on_c, 0, 71, 85
2, 40175, Note_on_c, 0, 71, 0
2, 40176, Note_on_c, 0, 66, 85
2, 40199, Note_on_c, 0, 66, 0
2, 40200, Note_on_c, 0, 62, 85
2, 40223, Note_on_c, 0, 62, 0
2, 40224, Note_on_c, 0, 66, 85
2, 40247, Note_on_c, 0, 66, 0
2, 40248, Note_on_c, 0, 71, 85
2, 40271, Note_on_c, 0, 71, 0
2, 40272, Note_on_c, 0, 66, 86
2, 40295, Note_on_c, 0, 66, 0
2, 40296, Note_on_c, 0, 62, 86
2, 40319, Note_on_c, 0, 62, 0
2, 40320, Note_on_c, 0, 67, 86
2, 40343, Note_on_c, 0, 67, 0
2, 40344, Note_on_c, 0, 71, 86
2, 40367, Note_on_c, 0, 71, 0
2, 40368, Note_on_c, 0, 67, 86
2, 40391, Note_on_c, 0, 67, 0
2, 40392, Note_on_c, 0, 62, 87
2, 40415, Note_on_c, 0, 62, 0
2, 40416, Note_on_c, 0, 67, 87
2, 40439, Note_on_c, 0, 67, 0
2, 40440, Note_on_c, 0, 71, 87
2, 40463, Note_on_c, 0, 71, 0
2, 40464, Note_on_c, 0, 67, 87
2, 40487, Note_on_c, 0, 67, 0
2, 40488, Note_on_c, 0, 62, 87
2, 40511, Note_on_c, 0, 62, 0
2, 40512, Note_on_c, 0, 67, 88
2, 40535, Note_on_c, 0, 67, 0
2, 40536, Note_on_c, 0, 71, 88
2, 40559, Note_on_c, 0, 71, 0
2, 40560, Note_on_c, 0, 67, 88
2, 40583, Note_on_c, 0, 67, 0
2, 40584, Note_on_c, 0, 62, 88
2, 40607, Note_on_c, 0, 62, 0
2, 40608, Note_on_c, 0, 68, 88
2, 40631, Note_on_c, 0, 68, 0
2, 40632, Note_on_c, 0, 71, 89
2, 40655, Note_on_c, 0, 71, 0
2, 40656, Note_on_c, 0, 68, 89
2, 40679, Note_on_c, 0, 68, 0
2, 40680, Note_on_c, 0, 62, 89
2, 40703, Note_on_c, 0, 62, 0
2, 40704, Note_on_c, 0, 68, 89
2, 40727, Note_on_c, 0, 68, 0
2, 40728, Note_on_c, 0, 71, 89
2, 40751, Note_on_c, 0, 71, 0
2, 40752, Note_on_c, 0, 68, 89
2, 40775, Note_on_c, 0, 68, 0
2, 40776, Note_on_c, 0, 62, 89
2, 40799, Note_on_c, 0, 62, 0
2, 40800, Note_on_c, 0, 68, 89
2, 40823, Note_on_c, 0, 68, 0
2, 40824, Note_on_c, 0, 71, 89
2, 40847, Note_on_c, 0, 71, 0
2, 40848, Note_on_c, 0, 68, 89
2, 40871, Note_on_c, 0, 68, 0
2, 40872, Note_on_c, 0, 62, 89
2, 40895, Note_on_c, 0, 62, 0
2, 40992, Note_on_c, 0, 78, 89
2, 40992, Note_on_c, 0, 74, 89
2, 41081, Note_on_c, 0, 78, 0
2, 41081, Note_on_c, 0, 74, 0
2, 41088, Note_on_c, 0, 70, 89
2, 41088, Note_on_c, 0, 64, 89
2, 41177, Note_on_c, 0, 70, 0
2, 41177, Note_on_c, 0, 64, 0
2, 41328, Note_on_c, 0, 78, 64
2, 41328, Note_on_c, 0, 74, 64
2, 41373, Note_on_c, 0, 78, 0
2, 41373, Note_on_c, 0, 74, 0
2, 41376, Note_on_c, 0, 79, 64
2, 41376, Note_on_c, 0, 76, 64
2, 41421, Note_on_c, 0, 79, 0
2, 41421, Note_on_c, 0, 76, 0
2, 41424, Note_on_c, 0, 76, 64
2, 41424, Note_on_c, 0, 73, 64
2, 41469, Note_on_c, 0, 76, 0
2, 41469, Note_on_c, 0, 73, 0
2, 41472, Note_on_c, 0, 78, 64
2, 41472, Note_on_c, 0, 74, 64
2, 41511, Note_on_c, 0, 78, 0
2, 41511, Note_on_c, 0, 74, 0
2, 41712, Note_on_c, 0, 83, 64
2, 41712, Note_on_c, 0, 79, 64
2, 41757, Note_on_c, 0, 83, 0
2, 41757, Note_on_c, 0, 79, 0
2, 41760, Note_on_c, 0, 84, 64
2, 41760, Note_on_c, 0, 81, 64
2, 41805, Note_on_c, 0, 84, 0
2, 41805, Note_on_c, 0, 81, 0
2, 41808, Note_on_c, 0, 81, 64
2, 41808, Note_on_c, 0, 78, 64
2, 41853, Note_on_c, 0, 81, 0
2, 41853, Note_on_c, 0, 78, 0
2, 41856, Note_on_c, 0, 83, 64
2, 41856, Note_on_c, 0, 79, 64
2, 41876, Note_on_c, 0, 83, 0
2, 41876, Note_on_c, 0, 79, 0
2, 42096, Note_on_c, 0, 79, 64
2, 42096, Note_on_c, 0, 76, 64
2, 42141, Note_on_c, 0, 79, 0
2, 42141, Note_on_c, 0, 76, 0
2, 42144, Note_on_c, 0, 83, 64
2, 42144, Note_on_c, 0, 79, 64
2, 42189, Note_on_c, 0, 83, 0
2, 42189, Note_on_c, 0, 79, 0
2, 42192, Note_on_c, 0, 81, 64
2, 42192, Note_on_c, 0, 78, 64
2, 42237, Note_on_c, 0, 81, 0
2, 42237, Note_on_c, 0, 78, 0
2, 42240, Note_on_c, 0, 79, 64
2, 42240, Note_on_c, 0, 76, 64
2, 42285, Note_on_c, 0, 79, 0
2, 42285, Note_on_c, 0, 76, 0
2, 42288, Note_on_c, 0, 78, 64
2, 42288, Note_on_c, 0, 74, 64
2, 42333, Note_on_c, 0, 78, 0
2, 42333, Note_on_c, 0, 74, 0
2, 42336, Note_on_c, 0, 76, 64
2, 42336, Note_on_c, 0, 73, 64
2, 42375, Note_on_c, 0, 76, 0
2, 42375, Note_on_c, 0, 73, 0
2, 42672, Note_on_c, 0, 76, 64
2, 42672, Note_on_c, 0, 73, 64
2, 42717, Note_on_c, 0, 76, 0
2, 42717, Note_on_c, 0, 73, 0
2, 42720, Note_on_c, 0, 79, 65
2, 42720, Note_on_c, 0, 76, 65
2, 42765, Note_on_c, 0, 79, 0
2, 42765, Note_on_c, 0, 76, 0
2, 42768, Note_on_c, 0, 78, 67
2, 42768, Note_on_c, 0, 74, 67
2, 42813, Note_on_c, 0, 78, 0
2, 42813, Note_on_c, 0, 74, 0
2, 42816, Note_on_c, 0, 76, 69
2, 42816, Note_on_c, 0, 73, 69
2, 42861, Note_on_c, 0, 76, 0
2, 42861, Note_on_c, 0, 73, 0
2, 42864, Note_on_c, 0, 74, 71
2, 42864, Note_on_c, 0, 71, 71
2, 42909, Note_on_c, 0, 74, 0
2, 42909, Note_on_c, 0, 71, 0
2, 42912, Note_on_c, 0, 73, 73
2, 42912, Note_on_c, 0, 69, 73
2, 43333, Note_on_c, 0, 73, 0
2, 43333, Note_on_c, 0, 69, 0
2, 43392, Note_on_c, 0, 81, 78
2, 43398, Note_on_c, 0, 81, 0
2, 43398, Note_on_c, 0, 81, 78
2, 43412, Note_on_c, 0, 81, 0
2, 43440, Note_on_c, 0, 83, 78
2, 43446, Note_on_c, 0, 83, 0
2, 43446, Note_on_c, 0, 81, 78
2, 43452, Note_on_c, 0, 81, 0
2, 43452, Note_on_c, 0, 79, 78
2, 43458, Note_on_c, 0, 79, 0
2, 43458, Note_on_c, 0, 81, 78
2, 43464, Note_on_c, 0, 81, 0
2, 43464, Note_on_c, 0, 86, 78
2, 43487, Note_on_c, 0, 86, 0
2, 43488, Note_on_c, 0, 81, 78
2, 43629, Note_on_c, 0, 81, 0
2, 43632, Note_on_c, 0, 78, 78
2, 43677, Note_on_c, 0, 78, 0
2, 43680, Note_on_c, 0, 79, 78
2, 43725, Note_on_c, 0, 79, 0
2, 43728, Note_on_c, 0, 76, 78
2, 43773, Note_on_c, 0, 76, 0
2, 43776, Note_on_c, 0, 78, 78
2, 43821, Note_on_c, 0, 78, 0
2, 43824, Note_on_c, 0, 74, 79
2, 43869, Note_on_c, 0, 74, 0
2, 43872, Note_on_c, 0, 76, 80
2, 43917, Note_on_c, 0, 76, 0
2, 43920, Note_on_c, 0, 73, 81
2, 43965, Note_on_c, 0, 73, 0
2, 43968, Note_on_c, 0, 74, 82
2, 44013, Note_on_c, 0, 74, 0
2, 44016, Note_on_c, 0, 69, 83
2, 44061, Note_on_c, 0, 69, 0
2, 44064, Note_on_c, 0, 71, 84
2, 44087, Note_on_c, 0, 71, 0
2, 44088, Note_on_c, 0, 73, 83
2, 44111, Note_on_c, 0, 73, 0
2, 44112, Note_on_c, 0, 74, 83
2, 44135, Note_on_c, 0, 74, 0
2, 44136, Note_on_c, 0, 71, 82
2, 44159, Note_on_c, 0, 71, 0
2, 44160, Note_on_c, 0, 69, 82
2, 44301, Note_on_c, 0, 69, 0
2, 44304, Note_on_c, 0, 67, 79
2, 44316, Note_on_c, 0, 67, 0
2, 44316, Note_on_c, 0, 69, 79
2, 44328, Note_on_c, 0, 69, 0
2, 44328, Note_on_c, 0, 67, 79
2, 44349, Note_on_c, 0, 67, 0
2, 44352, Note_on_c, 0, 66, 78
2, 44441, Note_on_c, 0, 66, 0
2, 44544, Note_on_c, 0, 81, 78
2, 44550, Note_on_c, 0, 81, 0
2, 44550, Note_on_c, 0, 81, 78
2, 44564, Note_on_c, 0, 81, 0
2, 44592, Note_on_c, 0, 83, 78
2, 44598, Note_on_c, 0, 83, 0
2, 44598, Note_on_c, 0, 81, 78
2, 44604, Note_on_c, 0, 81, 0
2, 44604, Note_on_c, 0, 79, 78
2, 44610, Note_on_c, 0, 79, 0
2, 44610, Note_on_c, 0, 81, 78
2, 44616, Note_on_c, 0, 81, 0
2, 44616, Note_on_c, 0, 86, 78
2, 44639, Note_on_c, 0, 86, 0
2, 44640, Note_on_c, 0, 81, 78
2, 44781, Note_on_c, 0, 81, 0
2, 44784, Note_on_c, 0, 78, 78
2, 44829, Note_on_c, 0, 78, 0
2, 44832, Note_on_c, 0, 81, 79
2, 44855, Note_on_c, 0, 81, 0
2, 44856, Note_on_c, 0, 79, 79
2, 44879, Note_on_c, 0, 79, 0
2, 44880, Note_on_c, 0, 78, 79
2, 44903, Note_on_c, 0, 78, 0
2, 44904, Note_on_c, 0, 76, 79
2, 44927, Note_on_c, 0, 76, 0
2, 44928, Note_on_c, 0, 79, 79
2, 44951, Note_on_c, 0, 79, 0
2, 44952, Note_on_c, 0, 78, 79
2, 44975, Note_on_c, 0, 78, 0
2, 44976, Note_on_c, 0, 76, 79
2, 44999, Note_on_c, 0, 76, 0
2, 45000, Note_on_c, 0, 74, 80
2, 45023, Note_on_c, 0, 74, 0
2, 45024, Note_on_c, 0, 78, 80
2, 45047, Note_on_c, 0, 78, 0
2, 45048, Note_on_c, 0, 76, 80
2, 45071, Note_on_c, 0, 76, 0
2, 45072, Note_on_c, 0, 74, 80
2, 45095, Note_on_c, 0, 74, 0
2, 45096, Note_on_c, 0, 73, 80
2, 45119, Note_on_c, 0, 73, 0
2, 45120, Note_on_c, 0, 74, 80
2, 45165, Note_on_c, 0, 74, 0
2, 45168, Note_on_c, 0, 78, 81
2, 45213, Note_on_c, 0, 78, 0
2, 45216, Note_on_c, 0, 79, 81
2, 45239, Note_on_c, 0, 79, 0
2, 45240, Note_on_c, 0, 81, 81
2, 45263, Note_on_c, 0, 81, 0
2, 45264, Note_on_c, 0, 79, 81
2, 45287, Note_on_c, 0, 79, 0
2, 45288, Note_on_c, 0, 76, 81
2, 45311, Note_on_c, 0, 76, 0
2, 45312, Note_on_c, 0, 81, 81
2, 45335, Note_on_c, 0, 81, 0
2, 45336, Note_on_c, 0, 83, 81
2, 45359, Note_on_c, 0, 83, 0
2, 45360, Note_on_c, 0, 81, 82
2, 45383, Note_on_c, 0, 81, 0
2, 45384, Note_on_c, 0, 78, 82
2, 45407, Note_on_c, 0, 78, 0
2, 45408, Note_on_c, 0, 83, 82
2, 45431, Note_on_c, 0, 83, 0
2, 45432, Note_on_c, 0, 79, 82
2, 45455, Note_on_c, 0, 79, 0
2, 45456, Note_on_c, 0, 76, 82
2, 45479, Note_on_c, 0, 76, 0
2, 45480, Note_on_c, 0, 74, 82
2, 45503, Note_on_c, 0, 74, 0
2, 45552, Note_on_c, 0, 76, 83
2, 45567, Note_on_c, 0, 76, 0
2, 45568, Note_on_c, 0, 81, 83
2, 45583, Note_on_c, 0, 81, 0
2, 45584, Note_on_c, 0, 85, 83
2, 45599, Note_on_c, 0, 85, 0
2, 45600, Note_on_c, 0, 86, 83
2, 45639, Note_on_c, 0, 86, 0
2, 45792, Note_on_c, 0, 67, 78
2, 45925, Note_on_c, 0, 67, 0
2, 45936, Note_on_c, 0, 64, 78
2, 45981, Note_on_c, 0, 64, 0
2, 45984, Note_on_c, 0, 66, 78
2, 46029, Note_on_c, 0, 66, 0
2, 46032, Note_on_c, 0, 74, 78
2, 46077, Note_on_c, 0, 74, 0
2, 46080, Note_on_c, 0, 73, 78
2, 46213, Note_on_c, 0, 73, 0
2, 46224, Note_on_c, 0, 76, 78
2, 46269, Note_on_c, 0, 76, 0
2, 46272, Note_on_c, 0, 74, 78
2, 46317, Note_on_c, 0, 74, 0
2, 46320, Note_on_c, 0, 62, 78
2, 46365, Note_on_c, 0, 62, 0
2, 46368, Note_on_c, 0, 67, 78
2, 46501, Note_on_c, 0, 67, 0
2, 46512, Note_on_c, 0, 64, 78
2, 46557, Note_on_c, 0, 64, 0
2, 46560, Note_on_c, 0, 66, 78
2, 46605, Note_on_c, 0, 66, 0
2, 46608, Note_on_c, 0, 74, 78
2, 46653, Note_on_c, 0, 74, 0
2, 46656, Note_on_c, 0, 79, 78
2, 46789, Note_on_c, 0, 79, 0
2, 46800, Note_on_c, 0, 76, 78
2, 46845, Note_on_c, 0, 76, 0
2, 46848, Note_on_c, 0, 78, 78
2, 46893, Note_on_c, 0, 78, 0
2, 46896, Note_on_c, 0, 74, 78
2, 46941, Note_on_c, 0, 74, 0
2, 46944, Note_on_c, 0, 73, 78
2, 46967, Note_on_c, 0, 73, 0
2, 46968, Note_on_c, 0, 71, 78
2, 46991, Note_on_c, 0, 71, 0
2, 46992, Note_on_c, 0, 83, 78
2, 47015, Note_on_c, 0, 83, 0
2, 47016, Note_on_c, 0, 81, 78
2, 47039, Note_on_c, 0, 81, 0
2, 47040, Note_on_c, 0, 79, 78
2, 47063, Note_on_c, 0, 79, 0
2, 47064, Note_on_c, 0, 78, 78
2, 47087, Note_on_c, 0, 78, 0
2, 47088, Note_on_c, 0, 76, 78
2, 47111, Note_on_c, 0, 76, 0
2, 47112, Note_on_c, 0, 86, 78
2, 47135, Note_on_c, 0, 86, 0
2, 47136, Note_on_c, 0, 85, 78
2, 47159, Note_on_c, 0, 85, 0
2, 47160, Note_on_c, 0, 83, 78
2, 47183, Note_on_c, 0, 83, 0
2, 47184, Note_on_c, 0, 81, 78
2, 47207, Note_on_c, 0, 81, 0
2, 47208, Note_on_c, 0, 79, 78
2, 47231, Note_on_c, 0, 79, 0
2, 47232, Note_on_c, 0, 78, 78
2, 47255, Note_on_c, 0, 78, 0
2, 47256, Note_on_c, 0, 76, 78
2, 47279, Note_on_c, 0, 76, 0
2, 47280, Note_on_c, 0, 83, 78
2, 47303, Note_on_c, 0, 83, 0
2, 47304, Note_on_c, 0, 81, 78
2, 47327, Note_on_c, 0, 81, 0
2, 47328, Note_on_c, 0, 79, 78
2, 47351, Note_on_c, 0, 79, 0
2, 47352, Note_on_c, 0, 78, 78
2, 47375, Note_on_c, 0, 78, 0
2, 47376, Note_on_c, 0, 76, 78
2, 47399, Note_on_c, 0, 76, 0
2, 47400, Note_on_c, 0, 86, 78
2, 47423, Note_on_c, 0, 86, 0
2, 47424, Note_on_c, 0, 85, 78
2, 47447, Note_on_c, 0, 85, 0
2, 47448, Note_on_c, 0, 83, 78
2, 47471, Note_on_c, 0, 83, 0
2, 47472, Note_on_c, 0, 81, 78
2, 47495, Note_on_c, 0, 81, 0
2, 47496, Note_on_c, 0, 79, 78
2, 47519, Note_on_c, 0, 79, 0
2, 47520, Note_on_c, 0, 78, 78
2, 47543, Note_on_c, 0, 78, 0
2, 47544, Note_on_c, 0, 76, 78
2, 47567, Note_on_c, 0, 76, 0
2, 47568, Note_on_c, 0, 83, 79
2, 47591, Note_on_c, 0, 83, 0
2, 47592, Note_on_c, 0, 81, 80
2, 47615, Note_on_c, 0, 81, 0
2, 47616, Note_on_c, 0, 79, 80
2, 47639, Note_on_c, 0, 79, 0
2, 47640, Note_on_c, 0, 78, 81
2, 47663, Note_on_c, 0, 78, 0
2, 47664, Note_on_c, 0, 76, 82
2, 47687, Note_on_c, 0, 76, 0
2, 47688, Note_on_c, 0, 78, 82
2, 47711, Note_on_c, 0, 78, 0
2, 47712, Note_on_c, 0, 76, 83
2, 47735, Note_on_c, 0, 76, 0
2, 47736, Note_on_c, 0, 74, 84
2, 47759, Note_on_c, 0, 74, 0
2, 47760, Note_on_c, 0, 73, 84
2, 47783, Note_on_c, 0, 73, 0
2, 47784, Note_on_c, 0, 71, 84
2, 47807, Note_on_c, 0, 71, 0
2, 47808, Note_on_c, 0, 69, 84
2, 47831, Note_on_c, 0, 69, 0
2, 47832, Note_on_c, 0, 69, 84
2, 47855, Note_on_c, 0, 69, 0
2, 47856, Note_on_c, 0, 73, 84
2, 47879, Note_on_c, 0, 73, 0
2, 47880, Note_on_c, 0, 69, 84
2, 47903, Note_on_c, 0, 69, 0
2, 47928, Note_on_c, 0, 69, 84
2, 47951, Note_on_c, 0, 69, 0
2, 47952, Note_on_c, 0, 73, 84
2, 47975, Note_on_c, 0, 73, 0
2, 47976, Note_on_c, 0, 69, 84
2, 47999, Note_on_c, 0, 69, 0
2, 48024, Note_on_c, 0, 69, 84
2, 48047, Note_on_c, 0, 69, 0
2, 48048, Note_on_c, 0, 73, 84
2, 48071, Note_on_c, 0, 73, 0
2, 48072, Note_on_c, 0, 69, 84
2, 48095, Note_on_c, 0, 69, 0
2, 48120, Note_on_c, 0, 69, 84
2, 48143, Note_on_c, 0, 69, 0
2, 48144, Note_on_c, 0, 74, 84
2, 48167, Note_on_c, 0, 74, 0
2, 48168, Note_on_c, 0, 69, 84
2, 48191, Note_on_c, 0, 69, 0
2, 48216, Note_on_c, 0, 69, 84
2, 48239, Note_on_c, 0, 69, 0
2, 48240, Note_on_c, 0, 81, 84
2, 48263, Note_on_c, 0, 81, 0
2, 48264, Note_on_c, 0, 69, 84
2, 48287, Note_on_c, 0, 69, 0
2, 48312, Note_on_c, 0, 69, 84
2, 48335, Note_on_c, 0, 69, 0
2, 48336, Note_on_c, 0, 79, 84
2, 48359, Note_on_c, 0, 79, 0
2, 48360, Note_on_c, 0, 69, 84
2, 48383, Note_on_c, 0, 69, 0
2, 48408, Note_on_c, 0, 69, 84
2, 48431, Note_on_c, 0, 69, 0
2, 48432, Note_on_c, 0, 78, 84
2, 48455, Note_on_c, 0, 78, 0
2, 48456, Note_on_c, 0, 69, 84
2, 48479, Note_on_c, 0, 69, 0
2, 48504, Note_on_c, 0, 69, 84
2, 48527, Note_on_c, 0, 69, 0
2, 48528, Note_on_c, 0, 73, 84
2, 48551, Note_on_c, 0, 73, 0
2, 48552, Note_on_c, 0, 69, 84
2, 48575, Note_on_c, 0, 69, 0
2, 48600, Note_on_c, 0, 69, 84
2, 48623, Note_on_c, 0, 69, 0
2, 48624, Note_on_c, 0, 73, 84
2, 48647, Note_on_c, 0, 73, 0
2, 48648, Note_on_c, 0, 69, 84
2, 48671, Note_on_c, 0, 69, 0
2, 48696, Note_on_c, 0, 69, 84
2, 48719, Note_on_c, 0, 69, 0
2, 48720, Note_on_c, 0, 74, 84
2, 48743, Note_on_c, 0, 74, 0
2, 48744, Note_on_c, 0, 69, 84
2, 48767, Note_on_c, 0, 69, 0
2, 48792, Note_on_c, 0, 69, 84
2, 48815, Note_on_c, 0, 69, 0
2, 48816, Note_on_c, 0, 81, 84
2, 48839, Note_on_c, 0, 81, 0
2, 48840, Note_on_c, 0, 69, 84
2, 48863, Note_on_c, 0, 69, 0
2, 48888, Note_on_c, 0, 69, 84
2, 48911, Note_on_c, 0, 69, 0
2, 48912, Note_on_c, 0, 79, 84
2, 48935, Note_on_c, 0, 79, 0
2, 48936, Note_on_c, 0, 69, 84
2, 48959, Note_on_c, 0, 69, 0
2, 48984, Note_on_c, 0, 74, 84
2, 49007, Note_on_c, 0, 74, 0
2, 49008, Note_on_c, 0, 77, 84
2, 49031, Note_on_c, 0, 77, 0
2, 49032, Note_on_c, 0, 74, 84
2, 49055, Note_on_c, 0, 74, 0
2, 49080, Note_on_c, 0, 74, 84
2, 49103, Note_on_c, 0, 74, 0
2, 49104, Note_on_c, 0, 77, 84
2, 49127, Note_on_c, 0, 77, 0
2, 49128, Note_on_c, 0, 74, 84
2, 49151, Note_on_c, 0, 74, 0
2, 49176, Note_on_c, 0, 74, 84
2, 49199, Note_on_c, 0, 74, 0
2, 49200, Note_on_c, 0, 78, 84
2, 49223, Note_on_c, 0, 78, 0
2, 49224, Note_on_c, 0, 74, 84
2, 49247, Note_on_c, 0, 74, 0
2, 49272, Note_on_c, 0, 74, 84
2, 49295, Note_on_c, 0, 74, 0
2, 49296, Note_on_c, 0, 79, 84
2, 49319, Note_on_c, 0, 79, 0
2, 49320, Note_on_c, 0, 74, 84
2, 49343, Note_on_c, 0, 74, 0
2, 49368, Note_on_c, 0, 74, 84
2, 49391, Note_on_c, 0, 74, 0
2, 49392, Note_on_c, 0, 80, 84
2, 49415, Note_on_c, 0, 80, 0
2, 49416, Note_on_c, 0, 74, 84
2, 49439, Note_on_c, 0, 74, 0
2, 49464, Note_on_c, 0, 74, 84
2, 49487, Note_on_c, 0, 74, 0
2, 49488, Note_on_c, 0, 81, 84
2, 49511, Note_on_c, 0, 81, 0
2, 49512, Note_on_c, 0, 74, 84
2, 49535, Note_on_c, 0, 74, 0
2, 49536, Control_c, 0, 64, 127
2, 49560, Note_on_c, 0, 74, 84
2, 49583, Note_on_c, 0, 74, 0
2, 49584, Note_on_c, 0, 83, 84
2, 49607, Note_on_c, 0, 83, 0
2, 49608, Note_on_c, 0, 74, 84
2, 49631, Note_on_c, 0, 74, 0
2, 49656, Note_on_c, 0, 74, 84
2, 49679, Note_on_c, 0, 74, 0
2, 49680, Note_on_c, 0, 83, 84
2, 49703, Note_on_c, 0, 83, 0
2, 49704, Note_on_c, 0, 74, 84
2, 49727, Note_on_c, 0, 74, 0
2, 49752, Note_on_c, 0, 74, 84
2, 49775, Note_on_c, 0, 74, 0
2, 49776, Note_on_c, 0, 83, 84
2, 49799, Note_on_c, 0, 83, 0
2, 49800, Control_c, 0, 64, 0
2, 49800, Note_on_c, 0, 74, 84
2, 49823, Note_on_c, 0, 74, 0
2, 49824, Control_c, 0, 64, 127
2, 49848, Note_on_c, 0, 74, 84
2, 49871, Note_on_c, 0, 74, 0
2, 49872, Note_on_c, 0, 81, 84
2, 49895, Note_on_c, 0, 81, 0
2, 49896, Note_on_c, 0, 74, 84
2, 49919, Note_on_c, 0, 74, 0
2, 49944, Note_on_c, 0, 74, 84
2, 49967, Note_on_c, 0, 74, 0
2, 49968, Note_on_c, 0, 81, 84
2, 49991, Note_on_c, 0, 81, 0
2, 49992, Note_on_c, 0, 74, 84
2, 50015, Note_on_c, 0, 74, 0
2, 50040, Note_on_c, 0, 74, 84
2, 50063, Note_on_c, 0, 74, 0
2, 50064, Note_on_c, 0, 81, 84
2, 50087, Note_on_c, 0, 81, 0
2, 50088, Control_c, 0, 64, 0
2, 50088, Note_on_c, 0, 74, 84
2, 50111, Note_on_c, 0, 74, 0
2, 50112, Control_c, 0, 64, 127
2, 50136, Note_on_c, 0, 74, 84
2, 50159, Note_on_c, 0, 74, 0
2, 50160, Note_on_c, 0, 80, 84
2, 50183, Note_on_c, 0, 80, 0
2, 50184, Note_on_c, 0, 74, 84
2, 50207, Note_on_c, 0, 74, 0
2, 50232, Note_on_c, 0, 74, 84
2, 50255, Note_on_c, 0, 74, 0
2, 50256, Note_on_c, 0, 80, 84
2, 50279, Note_on_c, 0, 80, 0
2, 50280, Note_on_c, 0, 74, 84
2, 50303, Note_on_c, 0, 74, 0
2, 50328, Note_on_c, 0, 74, 84
2, 50351, Note_on_c, 0, 74, 0
2, 50352, Note_on_c, 0, 80, 84
2, 50375, Note_on_c, 0, 80, 0
2, 50376, Control_c, 0, 64, 0
2, 50376, Note_on_c, 0, 74, 84
2, 50399, Note_on_c, 0, 74, 0
2, 50424, Note_on_c, 0, 73, 84
2, 50447, Note_on_c, 0, 73, 0
2, 50448, Note_on_c, 0, 81, 84
2, 50471, Note_on_c, 0, 81, 0
2, 50472, Note_on_c, 0, 73, 84
2, 50495, Note_on_c, 0, 73, 0
2, 50520, Note_on_c, 0, 73, 84
2, 50543, Note_on_c, 0, 73, 0
2, 50544, Note_on_c, 0, 85, 84
2, 50567, Note_on_c, 0, 85, 0
2, 50568, Note_on_c, 0, 73, 84
2, 50591, Note_on_c, 0, 73, 0
2, 50616, Note_on_c, 0, 74, 84
2, 50639, Note_on_c, 0, 74, 0
2, 50640, Note_on_c, 0, 86, 84
2, 50663, Note_on_c, 0, 86, 0
2, 50664, Note_on_c, 0, 74, 84
2, 50687, Note_on_c, 0, 74, 0
2, 50712, Note_on_c, 0, 67, 84
2, 50735, Note_on_c, 0, 67, 0
2, 50736, Note_on_c, 0, 79, 84
2, 50759, Note_on_c, 0, 79, 0
2, 50760, Note_on_c, 0, 67, 84
2, 50783, Note_on_c, 0, 67, 0
2, 50808, Note_on_c, 0, 64, 84
2, 50831, Note_on_c, 0, 64, 0
2, 50832, Note_on_c, 0, 76, 84
2, 50855, Note_on_c, 0, 76, 0
2, 50856, Note_on_c, 0, 64, 84
2, 50879, Note_on_c, 0, 64, 0
2, 50904, Note_on_c, 0, 66, 84
2, 50927, Note_on_c, 0, 66, 0
2, 50928, Note_on_c, 0, 78, 84
2, 50951, Note_on_c, 0, 78, 0
2, 50952, Note_on_c, 0, 66, 84
2, 50975, Note_on_c, 0, 66, 0
2, 51000, Note_on_c, 0, 71, 84
2, 51023, Note_on_c, 0, 71, 0
2, 51024, Note_on_c, 0, 70, 84
2, 51047, Note_on_c, 0, 70, 0
2, 51048, Note_on_c, 0, 71, 84
2, 51071, Note_on_c, 0, 71, 0
2, 51072, Note_on_c, 0, 76, 84
2, 51095, Note_on_c, 0, 76, 0
2, 51096, Note_on_c, 0, 71, 84
2, 51119, Note_on_c, 0, 71, 0
2, 51120, Note_on_c, 0, 70, 84
2, 51143, Note_on_c, 0, 70, 0
2, 51144, Note_on_c, 0, 71, 84
2, 51167, Note_on_c, 0, 71, 0
2, 51168, Note_on_c, 0, 79, 84
2, 51191, Note_on_c, 0, 79, 0
2, 51192, Note_on_c, 0, 71, 84
2, 51215, Note_on_c, 0, 71, 0
2, 51216, Note_on_c, 0, 70, 84
2, 51239, Note_on_c, 0, 70, 0
2, 51240, Note_on_c, 0, 71, 84
2, 51263, Note_on_c, 0, 71, 0
2, 51264, Note_on_c, 0, 81, 84
2, 51397, Note_on_c, 0, 81, 0
2, 51408, Note_on_c, 0, 78, 84
2, 51431, Note_on_c, 0, 78, 0
2, 51432, Note_on_c, 0, 74, 84
2, 51455, Note_on_c, 0, 74, 0
2, 51456, Note_on_c, 0, 79, 84
2, 51501, Note_on_c, 0, 79, 0
2, 51504, Note_on_c, 0, 76, 84
2, 51527, Note_on_c, 0, 76, 0
2, 51528, Note_on_c, 0, 73, 84
2, 51551, Note_on_c, 0, 73, 0
2, 51552, Note_on_c, 0, 74, 84
2, 51641, Note_on_c, 0, 74, 0
2, 51696, Note_on_c, 0, 71, 64
2, 51708, Note_on_c, 0, 71, 0
2, 51708, Note_on_c, 0, 69, 64
2, 51720, Note_on_c, 0, 69, 0
2, 51720, Note_on_c, 0, 67, 64
2, 51732, Note_on_c, 0, 67, 0
2, 51732, Note_on_c, 0, 69, 64
2, 51744, Note_on_c, 0, 69, 0
2, 51744, Note_on_c, 0, 71, 64
2, 51789, Note_on_c, 0, 71, 0
2, 51792, Note_on_c, 0, 67, 64
2, 51837, Note_on_c, 0, 67, 0
2, 51840, Note_on_c, 0, 69, 64
2, 51885, Note_on_c, 0, 69, 0
2, 51888, Note_on_c, 0, 66, 64
2, 51933, Note_on_c, 0, 66, 0
2, 51936, Note_on_c, 0, 67, 64
2, 51981, Note_on_c, 0, 67, 0
2, 51984, Note_on_c, 0, 64, 64
2, 52029, Note_on_c, 0, 64, 0
2, 52032, Note_on_c, 0, 66, 65
2, 52077, Note_on_c, 0, 66, 0
2, 52080, Note_on_c, 0, 76, 66
2, 52092, Note_on_c, 0, 76, 0
2, 52092, Note_on_c, 0, 74, 66
2, 52104, Note_on_c, 0, 74, 0
2, 52104, Note_on_c, 0, 73, 66
2, 52116, Note_on_c, 0, 73, 0
2, 52116, Note_on_c, 0, 74, 66
2, 52128, Note_on_c, 0, 74, 0
2, 52128, Note_on_c, 0, 76, 67
2, 52173, Note_on_c, 0, 76, 0
2, 52176, Note_on_c, 0, 73, 69
2, 52221, Note_on_c, 0, 73, 0
2, 52224, Note_on_c, 0, 74, 70
2, 52269, Note_on_c, 0, 74, 0
2, 52272, Note_on_c, 0, 79, 71
2, 52284, Note_on_c, 0, 79, 0
2, 52284, Note_on_c, 0, 78, 71
2, 52296, Note_on_c, 0, 78, 0
2, 52296, Note_on_c, 0, 76, 71
2, 52308, Note_on_c, 0, 76, 0
2, 52308, Note_on_c, 0, 78, 71
2, 52320, Note_on_c, 0, 78, 0
2, 52320, Note_on_c, 0, 79, 72
2, 52365, Note_on_c, 0, 79, 0
2, 52368, Note_on_c, 0, 76, 74
2, 52413, Note_on_c, 0, 76, 0
2, 52416, Note_on_c, 0, 78, 75
2, 52461, Note_on_c, 0, 78, 0
2, 52464, Note_on_c, 0, 81, 76
2, 52509, Note_on_c, 0, 81, 0
2, 52512, Note_on_c, 0, 83, 77
2, 52557, Note_on_c, 0, 83, 0
2, 52560, Note_on_c, 0, 79, 79
2, 52605, Note_on_c, 0, 79, 0
2, 52608, Note_on_c, 0, 81, 80
2, 52653, Note_on_c, 0, 81, 0
2, 52656, Note_on_c, 0, 78, 81
2, 52701, Note_on_c, 0, 78, 0
2, 52704, Note_on_c, 0, 79, 82
2, 52749, Note_on_c, 0, 79, 0
2, 52752, Note_on_c, 0, 76, 84
2, 52797, Note_on_c, 0, 76, 0
2, 52800, Note_on_c, 0, 78, 84
2, 52823, Note_on_c, 0, 78, 0
2, 52824, Note_on_c, 0, 81, 84
2, 52847, Note_on_c, 0, 81, 0
2, 52848, Note_on_c, 0, 78, 84
2, 52871, Note_on_c, 0, 78, 0
2, 52872, Note_on_c, 0, 74, 84
2, 52895, Note_on_c, 0, 74, 0
2, 52896, Note_on_c, 0, 74, 84
2, 52919, Note_on_c, 0, 74, 0
2, 52920, Note_on_c, 0, 78, 84
2, 52943, Note_on_c, 0, 78, 0
2, 52944, Note_on_c, 0, 74, 84
2, 52967, Note_on_c, 0, 74, 0
2, 52968, Note_on_c, 0, 69, 84
2, 52991, Note_on_c, 0, 69, 0
2, 52992, Note_on_c, 0, 69, 84
2, 53015, Note_on_c, 0, 69, 0
2, 53016, Note_on_c, 0, 74, 84
2, 53039, Note_on_c, 0, 74, 0
2, 53040, Note_on_c, 0, 69, 84
2, 53063, Note_on_c, 0, 69, 0
2, 53064, Note_on_c, 0, 66, 84
2, 53087, Note_on_c, 0, 66, 0
2, 53088, Note_on_c, 0, 66, 84
2, 53111, Note_on_c, 0, 66, 0
2, 53112, Note_on_c, 0, 69, 84
2, 53135, Note_on_c, 0, 69, 0
2, 53136, Note_on_c, 0, 66, 84
2, 53159, Note_on_c, 0, 66, 0
2, 53160, Note_on_c, 0, 62, 84
2, 53183, Note_on_c, 0, 62, 0
2, 53184, Note_on_c, 0, 62, 84
2, 53207, Note_on_c, 0, 62, 0
2, 53208, Note_on_c, 0, 66, 84
2, 53231, Note_on_c, 0, 66, 0
2, 53232, Note_on_c, 0, 62, 84
2, 53255, Note_on_c, 0, 62, 0
2, 53256, Note_on_c, 0, 57, 84
2, 53279, Note_on_c, 0, 57, 0
2, 53280, Control_c, 0, 64, 127
2, 53280, Note_on_c, 0, 56, 100
2, 53376, Note_on_c, 0, 56, 0
2, 53400, Note_on_c, 0, 62, 78
2, 53423, Note_on_c, 0, 62, 0
2, 53424, Note_on_c, 0, 65, 78
2, 53447, Note_on_c, 0, 65, 0
2, 53448, Note_on_c, 0, 62, 78
2, 53471, Note_on_c, 0, 62, 0
2, 53496, Note_on_c, 0, 62, 78
2, 53519, Note_on_c, 0, 62, 0
2, 53520, Note_on_c, 0, 65, 78
2, 53543, Note_on_c, 0, 65, 0
2, 53544, Control_c, 0, 64, 0
2, 53544, Note_on_c, 0, 62, 78
2, 53567, Note_on_c, 0, 62, 0
2, 53568, Control_c, 0, 64, 127
2, 53592, Note_on_c, 0, 62, 78
2, 53615, Note_on_c, 0, 62, 0
2, 53616, Note_on_c, 0, 65, 78
2, 53639, Note_on_c, 0, 65, 0
2, 53640, Note_on_c, 0, 62, 78
2, 53663, Note_on_c, 0, 62, 0
2, 53688, Note_on_c, 0, 62, 78
2, 53711, Note_on_c, 0, 62, 0
2, 53712, Note_on_c, 0, 65, 78
2, 53735, Note_on_c, 0, 65, 0
2, 53736, Note_on_c, 0, 62, 78
2, 53759, Note_on_c, 0, 62, 0
2, 53784, Note_on_c, 0, 62, 78
2, 53807, Note_on_c, 0, 62, 0
2, 53808, Note_on_c, 0, 65, 78
2, 53831, Note_on_c, 0, 65, 0
2, 53832, Control_c, 0, 64, 0
2, 53832, Note_on_c, 0, 62, 78
2, 53855, Note_on_c, 0, 62, 0
2, 53856, Control_c, 0, 64, 127
2, 53880, Note_on_c, 0, 62, 78
2, 53903, Note_on_c, 0, 62, 0
2, 53904, Note_on_c, 0, 65, 78
2, 53927, Note_on_c, 0, 65, 0
2, 53928, Note_on_c, 0, 62, 78
2, 53951, Note_on_c, 0, 62, 0
2, 53976, Note_on_c, 0, 62, 78
2, 53999, Note_on_c, 0, 62, 0
2, 54000, Note_on_c, 0, 74, 78
2, 54023, Note_on_c, 0, 74, 0
2, 54024, Note_on_c, 0, 62, 78
2, 54047, Note_on_c, 0, 62, 0
2, 54072, Note_on_c, 0, 62, 78
2, 54095, Note_on_c, 0, 62, 0
2, 54096, Note_on_c, 0, 72, 78
2, 54119, Note_on_c, 0, 72, 0
2, 54120, Control_c, 0, 64, 0
2, 54120, Note_on_c, 0, 62, 78
2, 54143, Note_on_c, 0, 62, 0
2, 54168, Note_on_c, 0, 62, 78
2, 54191, Note_on_c, 0, 62, 0
2, 54192, Note_on_c, 0, 70, 78
2, 54215, Note_on_c, 0, 70, 0
2, 54216, Note_on_c, 0, 62, 78
2, 54239, Note_on_c, 0, 62, 0
2, 54264, Note_on_c, 0, 62, 78
2, 54287, Note_on_c, 0, 62, 0
2, 54288, Note_on_c, 0, 69, 78
2, 54311, Note_on_c, 0, 69, 0
2, 54312, Note_on_c, 0, 62, 78
2, 54335, Note_on_c, 0, 62, 0
2, 54360, Note_on_c, 0, 62, 78
2, 54383, Note_on_c, 0, 62, 0
2, 54384, Note_on_c, 0, 68, 78
2, 54407, Note_on_c, 0, 68, 0
2, 54408, Note_on_c, 0, 62, 78
2, 54431, Note_on_c, 0, 62, 0
2, 54456, Note_on_c, 0, 61, 78
2, 54479, Note_on_c, 0, 61, 0
2, 54480, Note_on_c, 0, 69, 78
2, 54503, Note_on_c, 0, 69, 0
2, 54504, Note_on_c, 0, 61, 78
2, 54527, Note_on_c, 0, 61, 0
2, 54552, Note_on_c, 0, 64, 78
2, 54575, Note_on_c, 0, 64, 0
2, 54576, Note_on_c, 0, 67, 78
2, 54599, Note_on_c, 0, 67, 0
2, 54600, Note_on_c, 0, 64, 78
2, 54623, Note_on_c, 0, 64, 0
2, 54648, Note_on_c, 0, 62, 78
2, 54671, Note_on_c, 0, 62, 0
2, 54672, Note_on_c, 0, 66, 78
2, 54695, Note_on_c, 0, 66, 0
2, 54696, Note_on_c, 0, 62, 78
2, 54719, Note_on_c, 0, 62, 0
2, 54744, Note_on_c, 0, 64, 78
2, 54767, Note_on_c, 0, 64, 0
2, 54768, Note_on_c, 0, 67, 77
2, 54791, Note_on_c, 0, 67, 0
2, 54792, Note_on_c, 0, 64, 77
2, 54815, Note_on_c, 0, 64, 0
2, 54816, Note_on_c, 0, 62, 76
2, 54957, Note_on_c, 0, 62, 0
2, 54960, Note_on_c, 0, 61, 73
2, 54972, Note_on_c, 0, 61, 0
2, 54972, Note_on_c, 0, 62, 73
2, 54984, Note_on_c, 0, 62, 0
2, 54984, Note_on_c, 0, 61, 73
2, 55005, Note_on_c, 0, 61, 0
2, 55008, Note_on_c, 0, 62, 72
2, 55097, Note_on_c, 0, 62, 0
2, 55104, Note_on_c, 0, 86, 84
2, 55193, Note_on_c, 0, 86, 0
2, 55200, Note_on_c, 0, 85, 84
2, 55289, Note_on_c, 0, 85, 0
2, 55296, Note_on_c, 0, 85, 84
2, 55308, Note_on_c, 0, 85, 0
2, 55308, Note_on_c, 0, 83, 84
2, 55320, Note_on_c, 0, 83, 0
2, 55320, Note_on_c, 0, 82, 84
2, 55332, Note_on_c, 0, 82, 0
2, 55332, Note_on_c, 0, 83, 84
2, 55385, Note_on_c, 0, 83, 0
2, 55392, Note_on_c, 0, 81, 84
2, 55404, Note_on_c, 0, 81, 0
2, 55404, Note_on_c, 0, 79, 84
2, 55416, Note_on_c, 0, 79, 0
2, 55416, Note_on_c, 0, 78, 84
2, 55428, Note_on_c, 0, 78, 0
2, 55428, Note_on_c, 0, 79, 84
2, 55481, Note_on_c, 0, 79, 0
2, 55488, Note_on_c, 0, 78, 84
2, 55494, Note_on_c, 0, 78, 0
2, 55494, Note_on_c, 0, 76, 84
2, 55500, Note_on_c, 0, 76, 0
2, 55500, Note_on_c, 0, 75, 84
2, 55506, Note_on_c, 0, 75, 0
2, 55506, Note_on_c, 0, 76, 84
2, 55577, Note_on_c, 0, 76, 0
2, 55584, Note_on_c, 0, 69, 78
2, 55673, Note_on_c, 0, 69, 0
2, 55680, Note_on_c, 0, 78, 73
2, 55693, Note_on_c, 0, 78, 0
2, 55694, Note_on_c, 0, 76, 72
2, 55707, Note_on_c, 0, 76, 0
2, 55708, Note_on_c, 0, 78, 72
2, 55721, Note_on_c, 0, 78, 0
2, 55722, Note_on_c, 0, 76, 71
2, 55735, Note_on_c, 0, 76, 0
2, 55736, Note_on_c, 0, 78, 71
2, 55749, Note_on_c, 0, 78, 0
2, 55750, Note_on_c, 0, 76, 70
2, 55763, Note_on_c, 0, 76, 0
2, 55764, Note_on_c, 0, 78, 69
2, 55777, Note_on_c, 0, 78, 0
2, 55778, Note_on_c, 0, 76, 69
2, 55791, Note_on_c, 0, 76, 0
2, 55792, Note_on_c, 0, 78, 68
2, 55805, Note_on_c, 0, 78, 0
2, 55806, Note_on_c, 0, 76, 68
2, 55819, Note_on_c, 0, 76, 0
2, 55820, Note_on_c, 0, 74, 67
2, 55845, Note_on_c, 0, 74, 0
2, 55847, Note_on_c, 0, 76, 66
2, 55872, Note_on_c, 0, 76, 0
2, 55874, Note_on_c, 0, 74, 64
2, 56029, Note_on_c, 0, 74, 0
2, 56210, Note_on_c, 0, 81, 64
2, 56255, Note_on_c, 0, 81, 0
2, 56258, Note_on_c, 0, 69, 65
2, 56306, Note_on_c, 0, 69, 0
2, 56306, Note_on_c, 0, 73, 66
2, 56351, Note_on_c, 0, 73, 0
2, 56354, Note_on_c, 0, 74, 67
2, 56399, Note_on_c, 0, 74, 0
2, 56498, Note_on_c, 0, 81, 69
2, 56543, Note_on_c, 0, 81, 0
2, 56546, Note_on_c, 0, 69, 70
2, 56594, Note_on_c, 0, 69, 0
2, 56594, Note_on_c, 0, 73, 71
2, 56639, Note_on_c, 0, 73, 0
2, 56642, Note_on_c, 0, 74, 72
2, 56687, Note_on_c, 0, 74, 0
2, 56786, Note_on_c, 0, 81, 74
2, 56831, Note_on_c, 0, 81, 0
2, 56834, Note_on_c, 0, 69, 75
2, 56882, Note_on_c, 0, 69, 0
2, 56882, Note_on_c, 0, 73, 76
2, 56927, Note_on_c, 0, 73, 0
2, 56930, Note_on_c, 0, 74, 77
2, 56975, Note_on_c, 0, 74, 0
2, 57074, Note_on_c, 0, 81, 79
2, 57119, Note_on_c, 0, 81, 0
2, 57122, Note_on_c, 0, 69, 80
2, 57170, Note_on_c, 0, 69, 0
2, 57170, Note_on_c, 0, 73, 81
2, 57215, Note_on_c, 0, 73, 0
2, 57218, Note_on_c, 0, 74, 82
2, 57307, Note_on_c, 0, 74, 0
2, 57314, Note_on_c, 0, 83, 84
2, 57337, Note_on_c, 0, 83, 0
2, 57338, Note_on_c, 0, 86, 84
2, 57361, Note_on_c, 0, 86, 0
2, 57362, Note_on_c, 0, 83, 84
2, 57385, Note_on_c, 0, 83, 0
2, 57386, Note_on_c, 0, 79, 84
2, 57409, Note_on_c, 0, 79, 0
2, 57410, Note_on_c, 0, 79, 84
2, 57433, Note_on_c, 0, 79, 0
2, 57434, Note_on_c, 0, 83, 84
2, 57457, Note_on_c, 0, 83, 0
2, 57458, Note_on_c, 0, 79, 84
2, 57481, Note_on_c, 0, 79, 0
2, 57482, Note_on_c, 0, 74, 84
2, 57505, Note_on_c, 0, 74, 0
2, 57506, Note_on_c, 0, 74, 84
2, 57529, Note_on_c, 0, 74, 0
2, 57530, Note_on_c, 0, 79, 84
2, 57553, Note_on_c, 0, 79, 0
2, 57554, Note_on_c, 0, 74, 84
2, 57577, Note_on_c, 0, 74, 0
2, 57578, Note_on_c, 0, 71, 84
2, 57601, Note_on_c, 0, 71, 0
2, 57602, Note_on_c, 0, 83, 84
2, 57625, Note_on_c, 0, 83, 0
2, 57626, Note_on_c, 0, 86, 84
2, 57649, Note_on_c, 0, 86, 0
2, 57650, Note_on_c, 0, 83, 84
2, 57673, Note_on_c, 0, 83, 0
2, 57674, Note_on_c, 0, 80, 84
2, 57697, Note_on_c, 0, 80, 0
2, 57698, Note_on_c, 0, 80, 84
2, 57721, Note_on_c, 0, 80, 0
2, 57722, Note_on_c, 0, 83, 84
2, 57745, Note_on_c, 0, 83, 0
2, 57746, Note_on_c, 0, 80, 84
2, 57769, Note_on_c, 0, 80, 0
2, 57770, Note_on_c, 0, 77, 84
2, 57793, Note_on_c, 0, 77, 0
2, 57794, Note_on_c, 0, 77, 84
2, 57817, Note_on_c, 0, 77, 0
2, 57818, Note_on_c, 0, 80, 84
2, 57841, Note_on_c, 0, 80, 0
2, 57842, Note_on_c, 0, 77, 84
2, 57865, Note_on_c, 0, 77, 0
2, 57866, Note_on_c, 0, 74, 84
2, 57889, Note_on_c, 0, 74, 0
2, 57890, Note_on_c, 0, 69, 84
2, 57979, Note_on_c, 0, 69, 0
2, 57986, Note_on_c, 0, 78, 84
2, 57999, Note_on_c, 0, 78, 0
2, 58000, Note_on_c, 0, 76, 84
2, 58013, Note_on_c, 0, 76, 0
2, 58014, Note_on_c, 0, 78, 84
2, 58027, Note_on_c, 0, 78, 0
2, 58028, Note_on_c, 0, 76, 84
2, 58041, Note_on_c, 0, 76, 0
2, 58042, Note_on_c, 0, 78, 84
2, 58055, Note_on_c, 0, 78, 0
2, 58056, Note_on_c, 0, 76, 84
2, 58069, Note_on_c, 0, 76, 0
2, 58070, Note_on_c, 0, 78, 84
2, 58083, Note_on_c, 0, 78, 0
2, 58084, Note_on_c, 0, 76, 84
2, 58097, Note_on_c, 0, 76, 0
2, 58098, Note_on_c, 0, 78, 84
2, 58111, Note_on_c, 0, 78, 0
2, 58112, Note_on_c, 0, 76, 84
2, 58125, Note_on_c, 0, 76, 0
2, 58126, Note_on_c, 0, 78, 84
2, 58138, Note_on_c, 0, 78, 0
2, 58139, Note_on_c, 0, 76, 84
2, 58151, Note_on_c, 0, 76, 0
2, 58152, Note_on_c, 0, 74, 84
2, 58164, Note_on_c, 0, 74, 0
2, 58165, Note_on_c, 0, 76, 84
2, 58177, Note_on_c, 0, 76, 0
2, 58178, Note_on_c, 0, 74, 84
2, 58267, Note_on_c, 0, 74, 0
2, 58274, Note_on_c, 0, 86, 84
2, 58297, Note_on_c, 0, 86, 0
2, 58298, Note_on_c, 0, 85, 84
2, 58321, Note_on_c, 0, 85, 0
2, 58322, Note_on_c, 0, 83, 84
2, 58345, Note_on_c, 0, 83, 0
2, 58346, Note_on_c, 0, 81, 84
2, 58369, Note_on_c, 0, 81, 0
2, 58370, Note_on_c, 0, 79, 84
2, 58393, Note_on_c, 0, 79, 0
2, 58394, Note_on_c, 0, 78, 84
2, 58417, Note_on_c, 0, 78, 0
2, 58418, Note_on_c, 0, 76, 84
2, 58441, Note_on_c, 0, 76, 0
2, 58442, Note_on_c, 0, 74, 84
2, 58465, Note_on_c, 0, 74, 0
2, 58466, Note_on_c, 0, 83, 84
2, 58555, Note_on_c, 0, 83, 0
2, 58562, Note_on_c, 0, 81, 84
2, 58580, Note_on_c, 0, 81, 0
2, 58580, Note_on_c, 0, 79, 84
2, 58651, Note_on_c, 0, 79, 0
2, 58658, Note_on_c, 0, 78, 84
2, 58676, Note_on_c, 0, 78, 0
2, 58676, Note_on_c, 0, 76, 84
2, 58747, Note_on_c, 0, 76, 0
2, 58754, Note_on_c, 0, 69, 84
2, 58843, Note_on_c, 0, 69, 0
2, 58850, Note_on_c, 0, 78, 84
2, 58863, Note_on_c, 0, 78, 0
2, 58864, Note_on_c, 0, 76, 84
2, 58877, Note_on_c, 0, 76, 0
2, 58878, Note_on_c, 0, 78, 84
2, 58891, Note_on_c, 0, 78, 0
2, 58892, Note_on_c, 0, 76, 84
2, 58905, Note_on_c, 0, 76, 0
2, 58906, Note_on_c, 0, 78, 84
2, 58919, Note_on_c, 0, 78, 0
2, 58920, Note_on_c, 0, 76, 84
2, 58933, Note_on_c, 0, 76, 0
2, 58934, Note_on_c, 0, 78, 84
2, 58947, Note_on_c, 0, 78, 0
2, 58948, Note_on_c, 0, 76, 84
2, 58961, Note_on_c, 0, 76, 0
2, 58962, Note_on_c, 0, 78, 84
2, 58975, Note_on_c, 0, 78, 0
2, 58976, Note_on_c, 0, 76, 84
2, 58989, Note_on_c, 0, 76, 0
2, 58990, Note_on_c, 0, 78, 84
2, 59002, Note_on_c, 0, 78, 0
2, 59003, Note_on_c, 0, 76, 84
2, 59015, Note_on_c, 0, 76, 0
2, 59016, Note_on_c, 0, 74, 84
2, 59028, Note_on_c, 0, 74, 0
2, 59029, Note_on_c, 0, 76, 84
2, 59041, Note_on_c, 0, 76, 0
2, 59042, Note_on_c, 0, 74, 84
2, 59065, Note_on_c, 0, 74, 0
2, 59066, Note_on_c, 0, 81, 84
2, 59089, Note_on_c, 0, 81, 0
2, 59090, Note_on_c, 0, 78, 84
2, 59113, Note_on_c, 0, 78, 0
2, 59114, Note_on_c, 0, 74, 84
2, 59137, Note_on_c, 0, 74, 0
2, 59138, Note_on_c, 0, 69, 84
2, 59183, Note_on_c, 0, 69, 0
2, 59186, Note_on_c, 0, 66, 84
2, 59206, Note_on_c, 0, 66, 0
2, 59234, Note_on_c, 0, 64, 84
2, 59254, Note_on_c, 0, 64, 0
2, 59282, Note_on_c, 0, 67, 84
2, 59302, Note_on_c, 0, 67, 0
2, 59330, Note_on_c, 0, 66, 84
2, 59353, Note_on_c, 0, 66, 0
2, 59354, Note_on_c, 0, 69, 84
2, 59377, Note_on_c, 0, 69, 0
2, 59378, Note_on_c, 0, 74, 84
2, 59401, Note_on_c, 0, 74, 0
2, 59402, Note_on_c, 0, 78, 84
2, 59425, Note_on_c, 0, 78, 0
2, 59426, Note_on_c, 0, 81, 84
2, 59471, Note_on_c, 0, 81, 0
2, 59474, Note_on_c, 0, 66, 84
2, 59494, Note_on_c, 0, 66, 0
2, 59522, Note_on_c, 0, 67, 84
2, 59542, Note_on_c, 0, 67, 0
2, 59570, Note_on_c, 0, 73, 84
2, 59570, Note_on_c, 0, 67, 84
2, 59590, Note_on_c, 0, 73, 0
2, 59590, Note_on_c, 0, 67, 0
2, 59618, Note_on_c, 0, 74, 84
2, 59618, Note_on_c, 0, 66, 84
2, 59707, Note_on_c, 0, 74, 0
2, 59707, Note_on_c, 0, 66, 0
2, 59810, Note_on_c, 0, 76, 78
2, 59816, Note_on_c, 0, 76, 0
2, 59816, Note_on_c, 0, 76, 78
2, 59830, Note_on_c, 0, 76, 0
2, 59858, Note_on_c, 0, 78, 81
2, 59864, Note_on_c, 0, 78, 0
2, 59864, Note_on_c, 0, 76, 81
2, 59870, Note_on_c, 0, 76, 0
2, 59870, Note_on_c, 0, 74, 81
2, 59876, Note_on_c, 0, 74, 0
2, 59876, Note_on_c, 0, 76, 82
2, 59882, Note_on_c, 0, 76, 0
2, 59882, Note_on_c, 0, 81, 82
2, 59905, Note_on_c, 0, 81, 0
2, 59906, Note_on_c, 0, 79, 100
2, 60047, Note_on_c, 0, 79, 0
2, 60050, Note_on_c, 0, 76, 81
2, 60095, Note_on_c, 0, 76, 0
2, 60098, Note_on_c, 0, 78, 80
2, 60143, Note_on_c, 0, 78, 0
2, 60146, Note_on_c, 0, 74, 79
2, 60191, Note_on_c, 0, 74, 0
2, 60194, Note_on_c, 0, 73, 78
2, 60239, Note_on_c, 0, 73, 0
2, 60242, Note_on_c, 0, 69, 78
2, 60287, Note_on_c, 0, 69, 0
2, 60290, Note_on_c, 0, 76, 79
2, 60335, Note_on_c, 0, 76, 0
2, 60338, Note_on_c, 0, 73, 80
2, 60383, Note_on_c, 0, 73, 0
2, 60386, Note_on_c, 0, 74, 81
2, 60431, Note_on_c, 0, 74, 0
2, 60434, Note_on_c, 0, 78, 82
2, 60479, Note_on_c, 0, 78, 0
2, 60482, Note_on_c, 0, 79, 100
2, 60623, Note_on_c, 0, 79, 0
2, 60626, Note_on_c, 0, 76, 81
2, 60671, Note_on_c, 0, 76, 0
2, 60674, Note_on_c, 0, 78, 80
2, 60719, Note_on_c, 0, 78, 0
2, 60722, Note_on_c, 0, 74, 79
2, 60767, Note_on_c, 0, 74, 0
2, 60770, Note_on_c, 0, 73, 78
2, 60815, Note_on_c, 0, 73, 0
2, 60818, Note_on_c, 0, 69, 79
2, 60863, Note_on_c, 0, 69, 0
2, 60866, Note_on_c, 0, 76, 80
2, 60911, Note_on_c, 0, 76, 0
2, 60914, Note_on_c, 0, 73, 81
2, 60959, Note_on_c, 0, 73, 0
2, 60962, Note_on_c, 0, 74, 82
2, 61007, Note_on_c, 0, 74, 0
2, 61010, Note_on_c, 0, 86, 83
2, 61055, Note_on_c, 0, 86, 0
2, 61058, Note_on_c, 0, 84, 100
2, 61199, Note_on_c, 0, 84, 0
2, 61202, Note_on_c, 0, 81, 81
2, 61247, Note_on_c, 0, 81, 0
2, 61250, Note_on_c, 0, 83, 80
2, 61295, Note_on_c, 0, 83, 0
2, 61298, Note_on_c, 0, 79, 79
2, 61343, Note_on_c, 0, 79, 0
2, 61346, Note_on_c, 0, 78, 78
2, 61391, Note_on_c, 0, 78, 0
2, 61394, Note_on_c, 0, 74, 79
2, 61439, Note_on_c, 0, 74, 0
2, 61442, Note_on_c, 0, 81, 80
2, 61487, Note_on_c, 0, 81, 0
2, 61490, Note_on_c, 0, 78, 81
2, 61535, Note_on_c, 0, 78, 0
2, 61538, Note_on_c, 0, 79, 82
2, 61583, Note_on_c, 0, 79, 0
2, 61586, Note_on_c, 0, 83, 83
2, 61631, Note_on_c, 0, 83, 0
2, 61634, Note_on_c, 0, 84, 100
2, 61775, Note_on_c, 0, 84, 0
2, 61778, Note_on_c, 0, 81, 81
2, 61823, Note_on_c, 0, 81, 0
2, 61826, Note_on_c, 0, 83, 80
2, 61871, Note_on_c, 0, 83, 0
2, 61874, Note_on_c, 0, 79, 79
2, 61919, Note_on_c, 0, 79, 0
2, 61922, Note_on_c, 0, 78, 78
2, 61967, Note_on_c, 0, 78, 0
2, 61970, Note_on_c, 0, 74, 79
2, 62015, Note_on_c, 0, 74, 0
2, 62018, Note_on_c, 0, 81, 80
2, 62063, Note_on_c, 0, 81, 0
2, 62066, Note_on_c, 0, 78, 81
2, 62111, Note_on_c, 0, 78, 0
2, 62114, Note_on_c, 0, 79, 82
2, 62159, Note_on_c, 0, 79, 0
2, 62162, Note_on_c, 0, 83, 83
2, 62207, Note_on_c, 0, 83, 0
2, 62210, Note_on_c, 0, 72, 84
2, 62255, Note_on_c, 0, 72, 0
2, 62258, Note_on_c, 0, 81, 83
2, 62303, Note_on_c, 0, 81, 0
2, 62306, Note_on_c, 0, 71, 82
2, 62351, Note_on_c, 0, 71, 0
2, 62354, Note_on_c, 0, 79, 81
2, 62399, Note_on_c, 0, 79, 0
2, 62402, Note_on_c, 0, 69, 80
2, 62447, Note_on_c, 0, 69, 0
2, 62450, Note_on_c, 0, 78, 79
2, 62495, Note_on_c, 0, 78, 0
2, 62498, Note_on_c, 0, 67, 78
2, 62546, Note_on_c, 0, 67, 0
2, 62546, Note_on_c, 0, 79, 78
2, 62546, Note_on_c, 0, 76, 78
2, 62591, Note_on_c, 0, 79, 0
2, 62591, Note_on_c, 0, 76, 0
2, 62594, Note_on_c, 0, 79, 78
2, 62594, Note_on_c, 0, 76, 78
2, 62639, Note_on_c, 0, 79, 0
2, 62639, Note_on_c, 0, 76, 0
2, 62642, Note_on_c, 0, 78, 78
2, 62642, Note_on_c, 0, 74, 78
2, 62687, Note_on_c, 0, 78, 0
2, 62687, Note_on_c, 0, 74, 0
2, 62690, Note_on_c, 0, 76, 78
2, 62690, Note_on_c, 0, 73, 78
2, 62735, Note_on_c, 0, 76, 0
2, 62735, Note_on_c, 0, 73, 0
2, 62738, Note_on_c, 0, 74, 78
2, 62738, Note_on_c, 0, 71, 78
2, 62783, Note_on_c, 0, 74, 0
2, 62783, Note_on_c, 0, 71, 0
2, 62786, Note_on_c, 0, 73, 78
2, 62786, Note_on_c, 0, 70, 78
2, 62875, Note_on_c, 0, 73, 0
2, 62875, Note_on_c, 0, 70, 0
2, 62882, Note_on_c, 0, 74, 80
2, 62882, Note_on_c, 0, 71, 80
2, 62971, Note_on_c, 0, 74, 0
2, 62971, Note_on_c, 0, 71, 0
2, 62978, Note_on_c, 0, 76, 82
2, 62978, Note_on_c, 0, 73, 82
2, 63067, Note_on_c, 0, 76, 0
2, 63067, Note_on_c, 0, 73, 0
2, 63098, Note_on_c, 0, 71, 84
2, 63121, Note_on_c, 0, 71, 0
2, 63122, Note_on_c, 0, 74, 84
2, 63145, Note_on_c, 0, 74, 0
2, 63146, Note_on_c, 0, 71, 84
2, 63169, Note_on_c, 0, 71, 0
2, 63194, Note_on_c, 0, 71, 84
2, 63217, Note_on_c, 0, 71, 0
2, 63218, Note_on_c, 0, 74, 84
2, 63241, Note_on_c, 0, 74, 0
2, 63242, Note_on_c, 0, 71, 84
2, 63265, Note_on_c, 0, 71, 0
2, 63290, Note_on_c, 0, 71, 84
2, 63313, Note_on_c, 0, 71, 0
2, 63314, Note_on_c, 0, 74, 84
2, 63337, Note_on_c, 0, 74, 0
2, 63338, Note_on_c, 0, 71, 84
2, 63361, Note_on_c, 0, 71, 0
2, 63386, Note_on_c, 0, 71, 84
2, 63409, Note_on_c, 0, 71, 0
2, 63410, Note_on_c, 0, 83, 84
2, 63433, Note_on_c, 0, 83, 0
2, 63434, Note_on_c, 0, 71, 84
2, 63457, Note_on_c, 0, 71, 0
2, 63482, Note_on_c, 0, 71, 84
2, 63505, Note_on_c, 0, 71, 0
2, 63506, Note_on_c, 0, 83, 84
2, 63529, Note_on_c, 0, 83, 0
2, 63530, Note_on_c, 0, 71, 84
2, 63553, Note_on_c, 0, 71, 0
2, 63578, Note_on_c, 0, 71, 84
2, 63601, Note_on_c, 0, 71, 0
2, 63602, Note_on_c, 0, 81, 84
2, 63625, Note_on_c, 0, 81, 0
2, 63626, Note_on_c, 0, 71, 84
2, 63649, Note_on_c, 0, 71, 0
2, 63674, Note_on_c, 0, 71, 84
2, 63697, Note_on_c, 0, 71, 0
2, 63698, Note_on_c, 0, 79, 84
2, 63721, Note_on_c, 0, 79, 0
2, 63722, Note_on_c, 0, 71, 84
2, 63745, Note_on_c, 0, 71, 0
2, 63770, Note_on_c, 0, 71, 84
2, 63793, Note_on_c, 0, 71, 0
2, 63794, Note_on_c, 0, 79, 84
2, 63817, Note_on_c, 0, 79, 0
2, 63818, Note_on_c, 0, 71, 84
2, 63841, Note_on_c, 0, 71, 0
2, 63866, Note_on_c, 0, 71, 84
2, 63889, Note_on_c, 0, 71, 0
2, 63890, Note_on_c, 0, 78, 84
2, 63913, Note_on_c, 0, 78, 0
2, 63914, Note_on_c, 0, 71, 84
2, 63937, Note_on_c, 0, 71, 0
2, 63938, Control_c, 0, 64, 127
2, 63962, Note_on_c, 0, 71, 84
2, 63985, Note_on_c, 0, 71, 0
2, 63986, Note_on_c, 0, 77, 84
2, 64009, Note_on_c, 0, 77, 0
2, 64010, Note_on_c, 0, 71, 84
2, 64033, Note_on_c, 0, 71, 0
2, 64058, Note_on_c, 0, 71, 84
2, 64081, Note_on_c, 0, 71, 0
2, 64082, Note_on_c, 0, 77, 84
2, 64105, Note_on_c, 0, 77, 0
2, 64106, Note_on_c, 0, 71, 84
2, 64129, Note_on_c, 0, 71, 0
2, 64154, Note_on_c, 0, 71, 84
2, 64177, Note_on_c, 0, 71, 0
2, 64178, Note_on_c, 0, 77, 84
2, 64201, Note_on_c, 0, 77, 0
2, 64202, Control_c, 0, 64, 0
2, 64202, Note_on_c, 0, 71, 84
2, 64225, Note_on_c, 0, 71, 0
2, 64226, Control_c, 0, 64, 127
2, 64226, Control_c, 0, 64, 127
2, 64250, Note_on_c, 0, 70, 84
2, 64273, Note_on_c, 0, 70, 0
2, 64274, Note_on_c, 0, 76, 84
2, 64297, Note_on_c, 0, 76, 0
2, 64298, Note_on_c, 0, 70, 84
2, 64321, Note_on_c, 0, 70, 0
2, 64346, Note_on_c, 0, 70, 84
2, 64369, Note_on_c, 0, 70, 0
2, 64370, Note_on_c, 0, 76, 84
2, 64393, Note_on_c, 0, 76, 0
2, 64394, Note_on_c, 0, 70, 84
2, 64417, Note_on_c, 0, 70, 0
2, 64442, Note_on_c, 0, 73, 84
2, 64465, Note_on_c, 0, 73, 0
2, 64466, Note_on_c, 0, 76, 84
2, 64489, Note_on_c, 0, 76, 0
2, 64490, Control_c, 0, 64, 0
2, 64490, Note_on_c, 0, 73, 84
2, 64513, Note_on_c, 0, 73, 0
2, 64514, Control_c, 0, 64, 127
2, 64514, Control_c, 0, 64, 127
2, 64538, Note_on_c, 0, 71, 84
2, 64561, Note_on_c, 0, 71, 0
2, 64562, Note_on_c, 0, 74, 84
2, 64585, Note_on_c, 0, 74, 0
2, 64586, Note_on_c, 0, 71, 84
2, 64609, Note_on_c, 0, 71, 0
2, 64634, Note_on_c, 0, 71, 84
2, 64657, Note_on_c, 0, 71, 0
2, 64658, Note_on_c, 0, 74, 84
2, 64681, Note_on_c, 0, 74, 0
2, 64682, Note_on_c, 0, 71, 84
2, 64705, Note_on_c, 0, 71, 0
2, 64730, Note_on_c, 0, 71, 84
2, 64753, Note_on_c, 0, 71, 0
2, 64754, Note_on_c, 0, 74, 84
2, 64777, Note_on_c, 0, 74, 0
2, 64778, Control_c, 0, 64, 0
2, 64778, Note_on_c, 0, 71, 84
2, 64801, Note_on_c, 0, 71, 0
2, 64802, Control_c, 0, 64, 127
2, 64802, Control_c, 0, 64, 127
2, 64826, Note_on_c, 0, 67, 84
2, 64849, Note_on_c, 0, 67, 0
2, 64850, Note_on_c, 0, 74, 84
2, 64873, Note_on_c, 0, 74, 0
2, 64874, Note_on_c, 0, 67, 84
2, 64897, Note_on_c, 0, 67, 0
2, 64922, Note_on_c, 0, 67, 84
2, 64945, Note_on_c, 0, 67, 0
2, 64946, Note_on_c, 0, 74, 84
2, 64969, Note_on_c, 0, 74, 0
2, 64970, Note_on_c, 0, 67, 84
2, 64993, Note_on_c, 0, 67, 0
2, 65018, Note_on_c, 0, 67, 84
2, 65041, Note_on_c, 0, 67, 0
2, 65042, Note_on_c, 0, 74, 84
2, 65065, Note_on_c, 0, 74, 0
2, 65066, Control_c, 0, 64, 0
2, 65066, Note_on_c, 0, 67, 84
2, 65089, Note_on_c, 0, 67, 0
2, 65090, Control_c, 0, 64, 127
2, 65114, Note_on_c, 0, 67, 84
2, 65137, Note_on_c, 0, 67, 0
2, 65138, Note_on_c, 0, 72, 84
2, 65161, Note_on_c, 0, 72, 0
2, 65162, Note_on_c, 0, 67, 84
2, 65185, Note_on_c, 0, 67, 0
2, 65210, Note_on_c, 0, 67, 84
2, 65233, Note_on_c, 0, 67, 0
2, 65234, Note_on_c, 0, 72, 84
2, 65257, Note_on_c, 0, 72, 0
2, 65258, Note_on_c, 0, 67, 84
2, 65281, Note_on_c, 0, 67, 0
2, 65306, Note_on_c, 0, 67, 84
2, 65329, Note_on_c, 0, 67, 0
2, 65330, Note_on_c, 0, 72, 84
2, 65353, Note_on_c, 0, 72, 0
2, 65354, Control_c, 0, 64, 0
2, 65354, Note_on_c, 0, 67, 84
2, 65377, Note_on_c, 0, 67, 0
2, 65378, Control_c, 0, 64, 127
2, 65402, Note_on_c, 0, 66, 84
2, 65425, Note_on_c, 0, 66, 0
2, 65426, Note_on_c, 0, 72, 84
2, 65449, Note_on_c, 0, 72, 0
2, 65450, Note_on_c, 0, 66, 84
2, 65473, Note_on_c, 0, 66, 0
2, 65498, Note_on_c, 0, 66, 84
2, 65521, Note_on_c, 0, 66, 0
2, 65522, Note_on_c, 0, 72, 84
2, 65545, Note_on_c, 0, 72, 0
2, 65546, Note_on_c, 0, 66, 84
2, 65569, Note_on_c, 0, 66, 0
2, 65594, Note_on_c, 0, 69, 84
2, 65617, Note_on_c, 0, 69, 0
2, 65618, Note_on_c, 0, 72, 84
2, 65641, Note_on_c, 0, 72, 0
2, 65642, Control_c, 0, 64, 0
2, 65642, Note_on_c, 0, 69, 84
2, 65665, Note_on_c, 0, 69, 0
2, 65690, Note_on_c, 0, 67, 84
2, 65713, Note_on_c, 0, 67, 0
2, 65714, Note_on_c, 0, 71, 84
2, 65737, Note_on_c, 0, 71, 0
2, 65738, Note_on_c, 0, 67, 84
2, 65761, Note_on_c, 0, 67, 0
2, 65786, Note_on_c, 0, 67, 84
2, 65809, Note_on_c, 0, 67, 0
2, 65810, Note_on_c, 0, 71, 84
2, 65833, Note_on_c, 0, 71, 0
2, 65834, Note_on_c, 0, 67, 84
2, 65857, Note_on_c, 0, 67, 0
2, 65882, Note_on_c, 0, 67, 84
2, 65905, Note_on_c, 0, 67, 0
2, 65906, Note_on_c, 0, 71, 84
2, 65929, Note_on_c, 0, 71, 0
2, 65930, Note_on_c, 0, 67, 84
2, 65953, Note_on_c, 0, 67, 0
2, 65978, Note_on_c, 0, 67, 84
2, 66001, Note_on_c, 0, 67, 0
2, 66002, Note_on_c, 0, 71, 84
2, 66025, Note_on_c, 0, 71, 0
2, 66026, Note_on_c, 0, 67, 84
2, 66049, Note_on_c, 0, 67, 0
2, 66074, Note_on_c, 0, 67, 84
2, 66097, Note_on_c, 0, 67, 0
2, 66098, Note_on_c, 0, 71, 84
2, 66121, Note_on_c, 0, 71, 0
2, 66122, Note_on_c, 0, 67, 84
2, 66145, Note_on_c, 0, 67, 0
2, 66170, Note_on_c, 0, 67, 84
2, 66193, Note_on_c, 0, 67, 0
2, 66194, Note_on_c, 0, 71, 84
2, 66217, Note_on_c, 0, 71, 0
2, 66218, Note_on_c, 0, 67, 84
2, 66241, Note_on_c, 0, 67, 0
2, 66266, Note_on_c, 0, 67, 84
2, 66289, Note_on_c, 0, 67, 0
2, 66290, Note_on_c, 0, 70, 84
2, 66313, Note_on_c, 0, 70, 0
2, 66314, Note_on_c, 0, 67, 84
2, 66337, Note_on_c, 0, 67, 0
2, 66362, Note_on_c, 0, 66, 85
2, 66385, Note_on_c, 0, 66, 0
2, 66386, Note_on_c, 0, 71, 85
2, 66409, Note_on_c, 0, 71, 0
2, 66410, Note_on_c, 0, 66, 85
2, 66433, Note_on_c, 0, 66, 0
2, 66458, Note_on_c, 0, 64, 86
2, 66481, Note_on_c, 0, 64, 0
2, 66482, Note_on_c, 0, 73, 86
2, 66505, Note_on_c, 0, 73, 0
2, 66506, Note_on_c, 0, 64, 86
2, 66529, Note_on_c, 0, 64, 0
2, 66554, Note_on_c, 0, 62, 87
2, 66577, Note_on_c, 0, 62, 0
2, 66578, Note_on_c, 0, 74, 87
2, 66601, Note_on_c, 0, 74, 0
2, 66602, Note_on_c, 0, 62, 87
2, 66625, Note_on_c, 0, 62, 0
2, 66650, Note_on_c, 0, 62, 88
2, 66673, Note_on_c, 0, 62, 0
2, 66674, Note_on_c, 0, 71, 88
2, 66697, Note_on_c, 0, 71, 0
2, 66698, Note_on_c, 0, 62, 88
2, 66721, Note_on_c, 0, 62, 0
2, 66746, Note_on_c, 0, 62, 89
2, 66769, Note_on_c, 0, 62, 0
2, 66770, Note_on_c, 0, 71, 89
2, 66793, Note_on_c, 0, 71, 0
2, 66794, Note_on_c, 0, 62, 89
2, 66817, Note_on_c, 0, 62, 0
2, 66818, Control_c, 0, 64, 127
2, 66818, Note_on_c, 0, 70, 89
2, 66841, Note_on_c, 0, 70, 0
2, 66842, Note_on_c, 0, 73, 89
2, 66865, Note_on_c, 0, 73, 0
2, 66866, Note_on_c, 0, 70, 89
2, 66889, Note_on_c, 0, 70, 0
2, 66890, Note_on_c, 0, 66, 89
2, 66913, Note_on_c, 0, 66, 0
2, 66914, Note_on_c, 0, 66, 89
2, 66937, Note_on_c, 0, 66, 0
2, 66938, Note_on_c, 0, 70, 89
2, 66961, Note_on_c, 0, 70, 0
2, 66962, Note_on_c, 0, 66, 89
2, 66985, Note_on_c, 0, 66, 0
2, 66986, Note_on_c, 0, 61, 89
2, 67009, Note_on_c, 0, 61, 0
2, 67010, Note_on_c, 0, 61, 89
2, 67033, Note_on_c, 0, 61, 0
2, 67034, Note_on_c, 0, 66, 89
2, 67057, Note_on_c, 0, 66, 0
2, 67058, Note_on_c, 0, 61, 89
2, 67081, Note_on_c, 0, 61, 0
2, 67082, Note_on_c, 0, 58, 89
2, 67105, Note_on_c, 0, 58, 0
2, 67106, Control_c, 0, 64, 0
2, 67394, Note_on_c, 0, 76, 64
2, 67527, Note_on_c, 0, 76, 0
2, 67538, Note_on_c, 0, 73, 65
2, 67583, Note_on_c, 0, 73, 0
2, 67586, Note_on_c, 0, 74, 65
2, 67631, Note_on_c, 0, 74, 0
2, 67634, Note_on_c, 0, 71, 66
2, 67679, Note_on_c, 0, 71, 0
2, 67682, Note_on_c, 0, 70, 66
2, 67815, Note_on_c, 0, 70, 0
2, 67826, Note_on_c, 0, 73, 67
2, 67871, Note_on_c, 0, 73, 0
2, 67874, Note_on_c, 0, 71, 68
2, 67919, Note_on_c, 0, 71, 0
2, 67922, Note_on_c, 0, 66, 68
2, 67967, Note_on_c, 0, 66, 0
2, 67970, Note_on_c, 0, 76, 69
2, 68103, Note_on_c, 0, 76, 0
2, 68114, Note_on_c, 0, 73, 70
2, 68159, Note_on_c, 0, 73, 0
2, 68162, Note_on_c, 0, 74, 70
2, 68207, Note_on_c, 0, 74, 0
2, 68210, Note_on_c, 0, 78, 71
2, 68255, Note_on_c, 0, 78, 0
2, 68258, Note_on_c, 0, 79, 71
2, 68495, Note_on_c, 0, 79, 0
2, 68498, Note_on_c, 0, 81, 74
2, 68543, Note_on_c, 0, 81, 0
2, 68546, Note_on_c, 0, 78, 74
2, 68783, Note_on_c, 0, 78, 0
2, 68786, Note_on_c, 0, 79, 76
2, 68831, Note_on_c, 0, 79, 0
2, 68834, Note_on_c, 0, 76, 77
2, 69071, Note_on_c, 0, 76, 0
2, 69074, Note_on_c, 0, 78, 79
2, 69119, Note_on_c, 0, 78, 0
2, 69122, Note_on_c, 0, 74, 79
2, 69122, Note_on_c, 0, 71, 79
2, 69211, Note_on_c, 0, 74, 0
2, 69211, Note_on_c, 0, 71, 0
2, 69218, Note_on_c, 0, 86, 80
2, 69218, Note_on_c, 0, 83, 80
2, 69307, Note_on_c, 0, 86, 0
2, 69307, Note_on_c, 0, 83, 0
2, 69410, Note_on_c, 0, 74, 82
2, 69410, Note_on_c, 0, 71, 82
2, 69499, Note_on_c, 0, 74, 0
2, 69499, Note_on_c, 0, 71, 0
2, 69506, Note_on_c, 0, 86, 83
2, 69506, Note_on_c, 0, 83, 83
2, 69595, Note_on_c, 0, 86, 0
2, 69595, Note_on_c, 0, 83, 0
2, 69698, Note_on_c, 0, 83, 84
2, 69721, Note_on_c, 0, 83, 0
2, 69722, Note_on_c, 0, 86, 84
2, 69745, Note_on_c, 0, 86, 0
2, 69746, Note_on_c, 0, 83, 84
2, 69769, Note_on_c, 0, 83, 0
2, 69770, Note_on_c, 0, 80, 84
2, 69793, Note_on_c, 0, 80, 0
2, 69794, Note_on_c, 0, 80, 84
2, 69817, Note_on_c, 0, 80, 0
2, 69818, Note_on_c, 0, 83, 84
2, 69841, Note_on_c, 0, 83, 0
2, 69842, Note_on_c, 0, 80, 84
2, 69865, Note_on_c, 0, 80, 0
2, 69866, Note_on_c, 0, 77, 84
2, 69889, Note_on_c, 0, 77, 0
2, 69890, Note_on_c, 0, 77, 84
2, 69913, Note_on_c, 0, 77, 0
2, 69914, Note_on_c, 0, 80, 84
2, 69937, Note_on_c, 0, 80, 0
2, 69938, Note_on_c, 0, 77, 84
2, 69961, Note_on_c, 0, 77, 0
2, 69962, Note_on_c, 0, 74, 84
2, 69985, Note_on_c, 0, 74, 0
2, 69986, Note_on_c, 0, 76, 84
2, 70009, Note_on_c, 0, 76, 0
2, 70010, Note_on_c, 0, 79, 84
2, 70033, Note_on_c, 0, 79, 0
2, 70034, Note_on_c, 0, 76, 84
2, 70057, Note_on_c, 0, 76, 0
2, 70058, Note_on_c, 0, 73, 84
2, 70081, Note_on_c, 0, 73, 0
2, 70082, Note_on_c, 0, 73, 84
2, 70105, Note_on_c, 0, 73, 0
2, 70106, Note_on_c, 0, 76, 84
2, 70129, Note_on_c, 0, 76, 0
2, 70130, Note_on_c, 0, 73, 84
2, 70153, Note_on_c, 0, 73, 0
2, 70154, Note_on_c, 0, 70, 84
2, 70177, Note_on_c, 0, 70, 0
2, 70178, Note_on_c, 0, 70, 84
2, 70201, Note_on_c, 0, 70, 0
2, 70202, Note_on_c, 0, 73, 84
2, 70225, Note_on_c, 0, 73, 0
2, 70226, Note_on_c, 0, 70, 84
2, 70249, Note_on_c, 0, 70, 0
2, 70250, Note_on_c, 0, 64, 84
2, 70273, Note_on_c, 0, 64, 0
2, 70274, Note_on_c, 0, 66, 84
2, 70297, Note_on_c, 0, 66, 0
2, 70298, Note_on_c, 0, 71, 84
2, 70321, Note_on_c, 0, 71, 0
2, 70322, Note_on_c, 0, 66, 84
2, 70345, Note_on_c, 0, 66, 0
2, 70346, Note_on_c, 0, 62, 84
2, 70369, Note_on_c, 0, 62, 0
2, 70370, Note_on_c, 0, 66, 84
2, 70393, Note_on_c, 0, 66, 0
2, 70394, Note_on_c, 0, 71, 85
2, 70417, Note_on_c, 0, 71, 0
2, 70418, Note_on_c, 0, 66, 85
2, 70441, Note_on_c, 0, 66, 0
2, 70442, Note_on_c, 0, 62, 85
2, 70465, Note_on_c, 0, 62, 0
2, 70466, Note_on_c, 0, 66, 85
2, 70489, Note_on_c, 0, 66, 0
2, 70490, Note_on_c, 0, 71, 85
2, 70513, Note_on_c, 0, 71, 0
2, 70514, Note_on_c, 0, 66, 86
2, 70537, Note_on_c, 0, 66, 0
2, 70538, Note_on_c, 0, 62, 86
2, 70561, Note_on_c, 0, 62, 0
2, 70562, Note_on_c, 0, 67, 86
2, 70585, Note_on_c, 0, 67, 0
2, 70586, Note_on_c, 0, 71, 86
2, 70609, Note_on_c, 0, 71, 0
2, 70610, Note_on_c, 0, 67, 86
2, 70633, Note_on_c, 0, 67, 0
2, 70634, Note_on_c, 0, 62, 87
2, 70657, Note_on_c, 0, 62, 0
2, 70658, Note_on_c, 0, 67, 87
2, 70681, Note_on_c, 0, 67, 0
2, 70682, Note_on_c, 0, 71, 87
2, 70705, Note_on_c, 0, 71, 0
2, 70706, Note_on_c, 0, 67, 87
2, 70729, Note_on_c, 0, 67, 0
2, 70730, Note_on_c, 0, 62, 87
2, 70753, Note_on_c, 0, 62, 0
2, 70754, Note_on_c, 0, 67, 88
2, 70777, Note_on_c, 0, 67, 0
2, 70778, Note_on_c, 0, 71, 88
2, 70801, Note_on_c, 0, 71, 0
2, 70802, Note_on_c, 0, 67, 88
2, 70825, Note_on_c, 0, 67, 0
2, 70826, Note_on_c, 0, 62, 88
2, 70849, Note_on_c, 0, 62, 0
2, 70850, Note_on_c, 0, 68, 88
2, 70873, Note_on_c, 0, 68, 0
2, 70874, Note_on_c, 0, 71, 89
2, 70897, Note_on_c, 0, 71, 0
2, 70898, Note_on_c, 0, 68, 89
2, 70921, Note_on_c, 0, 68, 0
2, 70922, Note_on_c, 0, 62, 89
2, 70945, Note_on_c, 0, 62, 0
2, 70946, Note_on_c, 0, 68, 89
2, 70969, Note_on_c, 0, 68, 0
2, 70970, Note_on_c, 0, 71, 89
2, 70993, Note_on_c, 0, 71, 0
2, 70994, Note_on_c, 0, 68, 89
2, 71017, Note_on_c, 0, 68, 0
2, 71018, Note_on_c, 0, 62, 89
2, 71041, Note_on_c, 0, 62, 0
2, 71042, Note_on_c, 0, 68, 89
2, 71065, Note_on_c, 0, 68, 0
2, 71066, Note_on_c, 0, 71, 89
2, 71089, Note_on_c, 0, 71, 0
2, 71090, Note_on_c, 0, 68, 89
2, 71113, Note_on_c, 0, 68, 0
2, 71114, Note_on_c, 0, 62, 89
2, 71137, Note_on_c, 0, 62, 0
2, 71234, Note_on_c, 0, 78, 89
2, 71234, Note_on_c, 0, 74, 89
2, 71323, Note_on_c, 0, 78, 0
2, 71323, Note_on_c, 0, 74, 0
2, 71330, Note_on_c, 0, 70, 89
2, 71330, Note_on_c, 0, 64, 89
2, 71419, Note_on_c, 0, 70, 0
2, 71419, Note_on_c, 0, 64, 0
2, 71570, Note_on_c, 0, 78, 64
2, 71570, Note_on_c, 0, 74, 64
2, 71615, Note_on_c, 0, 78, 0
2, 71615, Note_on_c, 0, 74, 0
2, 71618, Note_on_c, 0, 79, 64
2, 71618, Note_on_c, 0, 76, 64
2, 71663, Note_on_c, 0, 79, 0
2, 71663, Note_on_c, 0, 76, 0
2, 71666, Note_on_c, 0, 76, 64
2, 71666, Note_on_c, 0, 73, 64
2, 71711, Note_on_c, 0, 76, 0
2, 71711, Note_on_c, 0, 73, 0
2, 71714, Note_on_c, 0, 78, 64
2, 71714, Note_on_c, 0, 74, 64
2, 71753, Note_on_c, 0, 78, 0
2, 71753, Note_on_c, 0, 74, 0
2, 71954, Note_on_c, 0, 83, 64
2, 71954, Note_on_c, 0, 79, 64
2, 71999, Note_on_c, 0, 83, 0
2, 71999, Note_on_c, 0, 79, 0
2, 72002, Note_on_c, 0, 84, 64
2, 72002, Note_on_c, 0, 81, 64
2, 72047, Note_on_c, 0, 84, 0
2, 72047, Note_on_c, 0, 81, 0
2, 72050, Note_on_c, 0, 81, 64
2, 72050, Note_on_c, 0, 78, 64
2, 72095, Note_on_c, 0, 81, 0
2, 72095, Note_on_c, 0, 78, 0
2, 72098, Note_on_c, 0, 83, 64
2, 72098, Note_on_c, 0, 79, 64
2, 72118, Note_on_c, 0, 83, 0
2, 72118, Note_on_c, 0, 79, 0
2, 72338, Note_on_c, 0, 79, 64
2, 72338, Note_on_c, 0, 76, 64
2, 72383, Note_on_c, 0, 79, 0
2, 72383, Note_on_c, 0, 76, 0
2, 72386, Note_on_c, 0, 83, 64
2, 72386, Note_on_c, 0, 79, 64
2, 72431, Note_on_c, 0, 83, 0
2, 72431, Note_on_c, 0, 79, 0
2, 72434, Note_on_c, 0, 81, 64
2, 72434, Note_on_c, 0, 78, 64
2, 72479, Note_on_c, 0, 81, 0
2, 72479, Note_on_c, 0, 78, 0
2, 72482, Note_on_c, 0, 79, 64
2, 72482, Note_on_c, 0, 76, 64
2, 72527, Note_on_c, 0, 79, 0
2, 72527, Note_on_c, 0, 76, 0
2, 72530, Note_on_c, 0, 78, 64
2, 72530, Note_on_c, 0, 74, 64
2, 72575, Note_on_c, 0, 78, 0
2, 72575, Note_on_c, 0, 74, 0
2, 72578, Note_on_c, 0, 76, 64
2, 72578, Note_on_c, 0, 73, 64
2, 72617, Note_on_c, 0, 76, 0
2, 72617, Note_on_c, 0, 73, 0
2, 72914, Note_on_c, 0, 76, 64
2, 72914, Note_on_c, 0, 73, 64
2, 72959, Note_on_c, 0, 76, 0
2, 72959, Note_on_c, 0, 73, 0
2, 72962, Note_on_c, 0, 79, 65
2, 72962, Note_on_c, 0, 76, 65
2, 73007, Note_on_c, 0, 79, 0
2, 73007, Note_on_c, 0, 76, 0
2, 73010, Note_on_c, 0, 78, 67
2, 73010, Note_on_c, 0, 74, 67
2, 73055, Note_on_c, 0, 78, 0
2, 73055, Note_on_c, 0, 74, 0
2, 73058, Note_on_c, 0, 76, 69
2, 73058, Note_on_c, 0, 73, 69
2, 73103, Note_on_c, 0, 76, 0
2, 73103, Note_on_c, 0, 73, 0
2, 73106, Note_on_c, 0, 74, 71
2, 73106, Note_on_c, 0, 71, 71
2, 73151, Note_on_c, 0, 74, 0
2, 73151, Note_on_c, 0, 71, 0
2, 73154, Note_on_c, 0, 73, 73
2, 73154, Note_on_c, 0, 69, 73
2, 73575, Note_on_c, 0, 73, 0
2, 73575, Note_on_c, 0, 69, 0
2, 73634, Note_on_c, 0, 81, 78
2, 73640, Note_on_c, 0, 81, 0
2, 73640, Note_on_c, 0, 81, 78
2, 73654, Note_on_c, 0, 81, 0
2, 73682, Note_on_c, 0, 83, 78
2, 73688, Note_on_c, 0, 83, 0
2, 73688, Note_on_c, 0, 81, 78
2, 73694, Note_on_c, 0, 81, 0
2, 73694, Note_on_c, 0, 79, 78
2, 73700, Note_on_c, 0, 79, 0
2, 73700, Note_on_c, 0, 81, 78
2, 73706, Note_on_c, 0, 81, 0
2, 73706, Note_on_c, 0, 86, 78
2, 73729, Note_on_c, 0, 86, 0
2, 73730, Note_on_c, 0, 81, 78
2, 73871, Note_on_c, 0, 81, 0
2, 73874, Note_on_c, 0, 78, 78
2, 73919, Note_on_c, 0, 78, 0
2, 73922, Note_on_c, 0, 79, 78
2, 73967, Note_on_c, 0, 79, 0
2, 73970, Note_on_c, 0, 76, 78
2, 74015, Note_on_c, 0, 76, 0
2, 74018, Note_on_c, 0, 78, 78
2, 74063, Note_on_c, 0, 78, 0
2, 74066, Note_on_c, 0, 74, 79
2, 74111, Note_on_c, 0, 74, 0
2, 74114, Note_on_c, 0, 76, 80
2, 74159, Note_on_c, 0, 76, 0
2, 74162, Note_on_c, 0, 73, 81
2, 74207, Note_on_c, 0, 73, 0
2, 74210, Note_on_c, 0, 74, 82
2, 74255, Note_on_c, 0, 74, 0
2, 74258, Note_on_c, 0, 69, 83
2, 74303, Note_on_c, 0, 69, 0
2, 74306, Note_on_c, 0, 71, 84
2, 74329, Note_on_c, 0, 71, 0
2, 74330, Note_on_c, 0, 73, 83
2, 74353, Note_on_c, 0, 73, 0
2, 74354, Note_on_c, 0, 74, 83
2, 74377, Note_on_c, 0, 74, 0
2, 74378, Note_on_c, 0, 71, 82
2, 74401, Note_on_c, 0, 71, 0
2, 74402, Note_on_c, 0, 69, 82
2, 74543, Note_on_c, 0, 69, 0
2, 74546, Note_on_c, 0, 67, 79
2, 74558, Note_on_c, 0, 67, 0
2, 74558, Note_on_c, 0, 69, 79
2, 74570, Note_on_c, 0, 69, 0
2, 74570, Note_on_c, 0, 67, 79
2, 74591, Note_on_c, 0, 67, 0
2, 74594, Note_on_c, 0, 66, 78
2, 74683, Note_on_c, 0, 66, 0
2, 74786, Note_on_c, 0, 81, 78
2, 74792, Note_on_c, 0, 81, 0
2, 74792, Note_on_c, 0, 81, 78
2, 74806, Note_on_c, 0, 81, 0
2, 74834, Note_on_c, 0, 83, 78
2, 74840, Note_on_c, 0, 83, 0
2, 74840, Note_on_c, 0, 81, 78
2, 74846, Note_on_c, 0, 81, 0
2, 74846, Note_on_c, 0, 79, 78
2, 74852, Note_on_c, 0, 79, 0
2, 74852, Note_on_c, 0, 81, 78
2, 74858, Note_on_c, 0, 81, 0
2, 74858, Note_on_c, 0, 86, 78
2, 74881, Note_on_c, 0, 86, 0
2, 74882, Note_on_c, 0, 81, 78
2, 75023, Note_on_c, 0, 81, 0
2, 75026, Note_on_c, 0, 78, 78
2, 75071, Note_on_c, 0, 78, 0
2, 75074, Note_on_c, 0, 81, 79
2, 75097, Note_on_c, 0, 81, 0
2, 75098, Note_on_c, 0, 79, 79
2, 75121, Note_on_c, 0, 79, 0
2, 75122, Note_on_c, 0, 78, 79
2, 75145, Note_on_c, 0, 78, 0
2, 75146, Note_on_c, 0, 76, 79
2, 75169, Note_on_c, 0, 76, 0
2, 75170, Note_on_c, 0, 79, 79
2, 75193, Note_on_c, 0, 79, 0
2, 75194, Note_on_c, 0, 78, 79
2, 75217, Note_on_c, 0, 78, 0
2, 75218, Note_on_c, 0, 76, 79
2, 75241, Note_on_c, 0, 76, 0
2, 75242, Note_on_c, 0, 74, 80
2, 75265, Note_on_c, 0, 74, 0
2, 75266, Note_on_c, 0, 78, 80
2, 75289, Note_on_c, 0, 78, 0
2, 75290, Note_on_c, 0, 76, 80
2, 75313, Note_on_c, 0, 76, 0
2, 75314, Note_on_c, 0, 74, 80
2, 75337, Note_on_c, 0, 74, 0
2, 75338, Note_on_c, 0, 73, 80
2, 75361, Note_on_c, 0, 73, 0
2, 75362, Note_on_c, 0, 74, 80
2, 75407, Note_on_c, 0, 74, 0
2, 75410, Note_on_c, 0, 78, 81
2, 75455, Note_on_c, 0, 78, 0
2, 75458, Note_on_c, 0, 79, 81
2, 75481, Note_on_c, 0, 79, 0
2, 75482, Note_on_c, 0, 81, 81
2, 75505, Note_on_c, 0, 81, 0
2, 75506, Note_on_c, 0, 79, 81
2, 75529, Note_on_c, 0, 79, 0
2, 75530, Note_on_c, 0, 76, 81
2, 75553, Note_on_c, 0, 76, 0
2, 75554, Note_on_c, 0, 81, 81
2, 75577, Note_on_c, 0, 81, 0
2, 75578, Note_on_c, 0, 83, 81
2, 75601, Note_on_c, 0, 83, 0
2, 75602, Note_on_c, 0, 81, 82
2, 75625, Note_on_c, 0, 81, 0
2, 75626, Note_on_c, 0, 78, 82
2, 75649, Note_on_c, 0, 78, 0
2, 75650, Note_on_c, 0, 83, 82
2, 75673, Note_on_c, 0, 83, 0
2, 75674, Note_on_c, 0, 79, 82
2, 75697, Note_on_c, 0, 79, 0
2, 75698, Note_on_c, 0, 76, 82
2, 75721, Note_on_c, 0, 76, 0
2, 75722, Note_on_c, 0, 74, 82
2, 75745, Note_on_c, 0, 74, 0
2, 75794, Note_on_c, 0, 76, 83
2, 75809, Note_on_c, 0, 76, 0
2, 75810, Note_on_c, 0, 81, 83
2, 75825, Note_on_c, 0, 81, 0
2, 75826, Note_on_c, 0, 85, 83
2, 75841, Note_on_c, 0, 85, 0
2, 75842, Note_on_c, 0, 86, 83
2, 75881, Note_on_c, 0, 86, 0
2, 76034, Note_on_c, 0, 67, 78
2, 76167, Note_on_c, 0, 67, 0
2, 76178, Note_on_c, 0, 64, 78
2, 76223, Note_on_c, 0, 64, 0
2, 76226, Note_on_c, 0, 66, 78
2, 76271, Note_on_c, 0, 66, 0
2, 76274, Note_on_c, 0, 74, 78
2, 76319, Note_on_c, 0, 74, 0
2, 76322, Note_on_c, 0, 73, 78
2, 76455, Note_on_c, 0, 73, 0
2, 76466, Note_on_c, 0, 76, 78
2, 76511, Note_on_c, 0, 76, 0
2, 76514, Note_on_c, 0, 74, 78
2, 76559, Note_on_c, 0, 74, 0
2, 76562, Note_on_c, 0, 62, 78
2, 76607, Note_on_c, 0, 62, 0
2, 76610, Note_on_c, 0, 67, 78
2, 76743, Note_on_c, 0, 67, 0
2, 76754, Note_on_c, 0, 64, 78
2, 76799, Note_on_c, 0, 64, 0
2, 76802, Note_on_c, 0, 66, 78
2, 76847, Note_on_c, 0, 66, 0
2, 76850, Note_on_c, 0, 74, 78
2, 76895, Note_on_c, 0, 74, 0
2, 76898, Note_on_c, 0, 79, 78
2, 77031, Note_on_c, 0, 79, 0
2, 77042, Note_on_c, 0, 76, 78
2, 77087, Note_on_c, 0, 76, 0
2, 77090, Note_on_c, 0, 78, 78
2, 77135, Note_on_c, 0, 78, 0
2, 77138, Note_on_c, 0, 74, 78
2, 77183, Note_on_c, 0, 74, 0
2, 77186, Note_on_c, 0, 73, 78
2, 77209, Note_on_c, 0, 73, 0
2, 77210, Note_on_c, 0, 71, 78
2, 77233, Note_on_c, 0, 71, 0
2, 77234, Note_on_c, 0, 83, 78
2, 77257, Note_on_c, 0, 83, 0
2, 77258, Note_on_c, 0, 81, 78
2, 77281, Note_on_c, 0, 81, 0
2, 77282, Note_on_c, 0, 79, 78
2, 77305, Note_on_c, 0, 79, 0
2, 77306, Note_on_c, 0, 78, 78
2, 77329, Note_on_c, 0, 78, 0
2, 77330, Note_on_c, 0, 76, 78
2, 77353, Note_on_c, 0, 76, 0
2, 77354, Note_on_c, 0, 86, 78
2, 77377, Note_on_c, 0, 86, 0
2, 77378, Note_on_c, 0, 85, 78
2, 77401, Note_on_c, 0, 85, 0
2, 77402, Note_on_c, 0, 83, 78
2, 77425, Note_on_c, 0, 83, 0
2, 77426, Note_on_c, 0, 81, 78
2, 77449, Note_on_c, 0, 81, 0
2, 77450, Note_on_c, 0, 79, 78
2, 77473, Note_on_c, 0, 79, 0
2, 77474, Note_on_c, 0, 78, 78
2, 77497, Note_on_c, 0, 78, 0
2, 77498, Note_on_c, 0, 76, 78
2, 77521, Note_on_c, 0, 76, 0
2, 77522, Note_on_c, 0, 83, 78
2, 77545, Note_on_c, 0, 83, 0
2, 77546, Note_on_c, 0, 81, 78
2, 77569, Note_on_c, 0, 81, 0
2, 77570, Note_on_c, 0, 79, 78
2, 77593, Note_on_c, 0, 79, 0
2, 77594, Note_on_c, 0, 78, 78
2, 77617, Note_on_c, 0, 78, 0
2, 77618, Note_on_c, 0, 76, 78
2, 77641, Note_on_c, 0, 76, 0
2, 77642, Note_on_c, 0, 86, 78
2, 77665, Note_on_c, 0, 86, 0
2, 77666, Note_on_c, 0, 85, 78
2, 77689, Note_on_c, 0, 85, 0
2, 77690, Note_on_c, 0, 83, 78
2, 77713, Note_on_c, 0, 83, 0
2, 77714, Note_on_c, 0, 81, 78
2, 77737, Note_on_c, 0, 81, 0
2, 77738, Note_on_c, 0, 79, 78
2, 77761, Note_on_c, 0, 79, 0
2, 77762, Note_on_c, 0, 78, 78
2, 77785, Note_on_c, 0, 78, 0
2, 77786, Note_on_c, 0, 76, 78
2, 77809, Note_on_c, 0, 76, 0
2, 77810, Note_on_c, 0, 83, 79
2, 77833, Note_on_c, 0, 83, 0
2, 77834, Note_on_c, 0, 81, 80
2, 77857, Note_on_c, 0, 81, 0
2, 77858, Note_on_c, 0, 79, 80
2, 77881, Note_on_c, 0, 79, 0
2, 77882, Note_on_c, 0, 78, 81
2, 77905, Note_on_c, 0, 78, 0
2, 77906, Note_on_c, 0, 76, 82
2, 77929, Note_on_c, 0, 76, 0
2, 77930, Note_on_c, 0, 78, 82
2, 77953, Note_on_c, 0, 78, 0
2, 77954, Note_on_c, 0, 76, 83
2, 77977, Note_on_c, 0, 76, 0
2, 77978, Note_on_c, 0, 74, 84
2, 78001, Note_on_c, 0, 74, 0
2, 78002, Note_on_c, 0, 73, 84
2, 78025, Note_on_c, 0, 73, 0
2, 78026, Note_on_c, 0, 71, 84
2, 78049, Note_on_c, 0, 71, 0
2, 78050, Note_on_c, 0, 69, 84
2, 78073, Note_on_c, 0, 69, 0
2, 78074, Note_on_c, 0, 69, 84
2, 78097, Note_on_c, 0, 69, 0
2, 78098, Note_on_c, 0, 73, 84
2, 78121, Note_on_c, 0, 73, 0
2, 78122, Note_on_c, 0, 69, 84
2, 78145, Note_on_c, 0, 69, 0
2, 78170, Note_on_c, 0, 69, 84
2, 78193, Note_on_c, 0, 69, 0
2, 78194, Note_on_c, 0, 73, 84
2, 78217, Note_on_c, 0, 73, 0
2, 78218, Note_on_c, 0, 69, 84
2, 78241, Note_on_c, 0, 69, 0
2, 78266, Note_on_c, 0, 69, 84
2, 78289, Note_on_c, 0, 69, 0
2, 78290, Note_on_c, 0, 73, 84
2, 78313, Note_on_c, 0, 73, 0
2, 78314, Note_on_c, 0, 69, 84
2, 78337, Note_on_c, 0, 69, 0
2, 78362, Note_on_c, 0, 69, 84
2, 78385, Note_on_c, 0, 69, 0
2, 78386, Note_on_c, 0, 74, 84
2, 78409, Note_on_c, 0, 74, 0
2, 78410, Note_on_c, 0, 69, 84
2, 78433, Note_on_c, 0, 69, 0
2, 78458, Note_on_c, 0, 69, 84
2, 78481, Note_on_c, 0, 69, 0
2, 78482, Note_on_c, 0, 81, 84
2, 78505, Note_on_c, 0, 81, 0
2, 78506, Note_on_c, 0, 69, 84
2, 78529, Note_on_c, 0, 69, 0
2, 78554, Note_on_c, 0, 69, 84
2, 78577, Note_on_c, 0, 69, 0
2, 78578, Note_on_c, 0, 79, 84
2, 78601, Note_on_c, 0, 79, 0
2, 78602, Note_on_c, 0, 69, 84
2, 78625, Note_on_c, 0, 69, 0
2, 78650, Note_on_c, 0, 69, 84
2, 78673, Note_on_c, 0, 69, 0
2, 78674, Note_on_c, 0, 78, 84
2, 78697, Note_on_c, 0, 78, 0
2, 78698, Note_on_c, 0, 69, 84
2, 78721, Note_on_c, 0, 69, 0
2, 78746, Note_on_c, 0, 69, 84
2, 78769, Note_on_c, 0, 69, 0
2, 78770, Note_on_c, 0, 73, 84
2, 78793, Note_on_c, 0, 73, 0
2, 78794, Note_on_c, 0, 69, 84
2, 78817, Note_on_c, 0, 69, 0
2, 78842, Note_on_c, 0, 69, 84
2, 78865, Note_on_c, 0, 69, 0
2, 78866, Note_on_c, 0, 73, 84
2, 78889, Note_on_c, 0, 73, 0
2, 78890, Note_on_c, 0, 69, 84
2, 78913, Note_on_c, 0, 69, 0
2, 78938, Note_on_c, 0, 69, 84
2, 78961, Note_on_c, 0, 69, 0
2, 78962, Note_on_c, 0, 74, 84
2, 78985, Note_on_c, 0, 74, 0
2, 78986, Note_on_c, 0, 69, 84
2, 79009, Note_on_c, 0, 69, 0
2, 79034, Note_on_c, 0, 69, 84
2, 79057, Note_on_c, 0, 69, 0
2, 79058, Note_on_c, 0, 81, 84
2, 79081, Note_on_c, 0, 81, 0
2, 79082, Note_on_c, 0, 69, 84
2, 79105, Note_on_c, 0, 69, 0
2, 79130, Note_on_c, 0, 69, 84
2, 79153, Note_on_c, 0, 69, 0
2, 79154, Note_on_c, 0, 79, 84
2, 79177, Note_on_c, 0, 79, 0
2, 79178, Note_on_c, 0, 69, 84
2, 79201, Note_on_c, 0, 69, 0
2, 79226, Note_on_c, 0, 74, 84
2, 79249, Note_on_c, 0, 74, 0
2, 79250, Note_on_c, 0, 77, 84
2, 79273, Note_on_c, 0, 77, 0
2, 79274, Note_on_c, 0, 74, 84
2, 79297, Note_on_c, 0, 74, 0
2, 79322, Note_on_c, 0, 74, 84
2, 79345, Note_on_c, 0, 74, 0
2, 79346, Note_on_c, 0, 77, 84
2, 79369, Note_on_c, 0, 77, 0
2, 79370, Note_on_c, 0, 74, 84
2, 79393, Note_on_c, 0, 74, 0
2, 79418, Note_on_c, 0, 74, 84
2, 79441, Note_on_c, 0, 74, 0
2, 79442, Note_on_c, 0, 78, 84
2, 79465, Note_on_c, 0, 78, 0
2, 79466, Note_on_c, 0, 74, 84
2, 79489, Note_on_c, 0, 74, 0
2, 79514, Note_on_c, 0, 74, 84
2, 79537, Note_on_c, 0, 74, 0
2, 79538, Note_on_c, 0, 79, 84
2, 79561, Note_on_c, 0, 79, 0
2, 79562, Note_on_c, 0, 74, 84
2, 79585, Note_on_c, 0, 74, 0
2, 79610, Note_on_c, 0, 74, 84
2, 79633, Note_on_c, 0, 74, 0
2, 79634, Note_on_c, 0, 80, 84
2, 79657, Note_on_c, 0, 80, 0
2, 79658, Note_on_c, 0, 74, 84
2, 79681, Note_on_c, 0, 74, 0
2, 79706, Note_on_c, 0, 74, 84
2, 79729, Note_on_c, 0, 74, 0
2, 79730, Note_on_c, 0, 81, 84
2, 79753, Note_on_c, 0, 81, 0
2, 79754, Note_on_c, 0, 74, 84
2, 79777, Note_on_c, 0, 74, 0
2, 79778, Control_c, 0, 64, 127
2, 79802, Note_on_c, 0, 74, 84
2, 79825, Note_on_c, 0, 74, 0
2, 79826, Note_on_c, 0, 83, 84
2, 79849, Note_on_c, 0, 83, 0
2, 79850, Note_on_c, 0, 74, 84
2, 79873, Note_on_c, 0, 74, 0
2, 79898, Note_on_c, 0, 74, 84
2, 79921, Note_on_c, 0, 74, 0
2, 79922, Note_on_c, 0, 83, 84
2, 79945, Note_on_c, 0, 83, 0
2, 79946, Note_on_c, 0, 74, 84
2, 79969, Note_on_c, 0, 74, 0
2, 79994, Note_on_c, 0, 74, 84
2, 80017, Note_on_c, 0, 74, 0
2, 80018, Note_on_c, 0, 83, 84
2, 80041, Note_on_c, 0, 83, 0
2, 80042, Control_c, 0, 64, 0
2, 80042, Note_on_c, 0, 74, 84
2, 80065, Note_on_c, 0, 74, 0
2, 80066, Control_c, 0, 64, 127
2, 80090, Note_on_c, 0, 74, 84
2, 80113, Note_on_c, 0, 74, 0
2, 80114, Note_on_c, 0, 81, 84
2, 80137, Note_on_c, 0, 81, 0
2, 80138, Note_on_c, 0, 74, 84
2, 80161, Note_on_c, 0, 74, 0
2, 80186, Note_on_c, 0, 74, 84
2, 80209, Note_on_c, 0, 74, 0
2, 80210, Note_on_c, 0, 81, 84
2, 80233, Note_on_c, 0, 81, 0
2, 80234, Note_on_c, 0, 74, 84
2, 80257, Note_on_c, 0, 74, 0
2, 80282, Note_on_c, 0, 74, 84
2, 80305, Note_on_c, 0, 74, 0
2, 80306, Note_on_c, 0, 81, 84
2, 80329, Note_on_c, 0, 81, 0
2, 80330, Control_c, 0, 64, 0
2, 80330, Note_on_c, 0, 74, 84
2, 80353, Note_on_c, 0, 74, 0
2, 80354, Control_c, 0, 64, 127
2, 80378, Note_on_c, 0, 74, 84
2, 80401, Note_on_c, 0, 74, 0
2, 80402, Note_on_c, 0, 80, 84
2, 80425, Note_on_c, 0, 80, 0
2, 80426, Note_on_c, 0, 74, 84
2, 80449, Note_on_c, 0, 74, 0
2, 80474, Note_on_c, 0, 74, 84
2, 80497, Note_on_c, 0, 74, 0
2, 80498, Note_on_c, 0, 80, 84
2, 80521, Note_on_c, 0, 80, 0
2, 80522, Note_on_c, 0, 74, 84
2, 80545, Note_on_c, 0, 74, 0
2, 80570, Note_on_c, 0, 74, 84
2, 80593, Note_on_c, 0, 74, 0
2, 80594, Note_on_c, 0, 80, 84
2, 80617, Note_on_c, 0, 80, 0
2, 80618, Control_c, 0, 64, 0
2, 80618, Note_on_c, 0, 74, 84
2, 80641, Note_on_c, 0, 74, 0
2, 80666, Note_on_c, 0, 73, 84
2, 80689, Note_on_c, 0, 73, 0
2, 80690, Note_on_c, 0, 81, 84
2, 80713, Note_on_c, 0, 81, 0
2, 80714, Note_on_c, 0, 73, 84
2, 80737, Note_on_c, 0, 73, 0
2, 80762, Note_on_c, 0, 73, 84
2, 80785, Note_on_c, 0, 73, 0
2, 80786, Note_on_c, 0, 85, 84
2, 80809, Note_on_c, 0, 85, 0
2, 80810, Note_on_c, 0, 73, 84
2, 80833, Note_on_c, 0, 73, 0
2, 80858, Note_on_c, 0, 74, 84
2, 80881, Note_on_c, 0, 74, 0
2, 80882, Note_on_c, 0, 86, 84
2, 80905, Note_on_c, 0, 86, 0
2, 80906, Note_on_c, 0, 74, 84
2, 80929, Note_on_c, 0, 74, 0
2, 80954, Note_on_c, 0, 67, 84
2, 80977, Note_on_c, 0, 67, 0
2, 80978, Note_on_c, 0, 79, 84
2, 81001, Note_on_c, 0, 79, 0
2, 81002, Note_on_c, 0, 67, 84
2, 81025, Note_on_c, 0, 67, 0
2, 81050, Note_on_c, 0, 64, 84
2, 81073, Note_on_c, 0, 64, 0
2, 81074, Note_on_c, 0, 76, 84
2, 81097, Note_on_c, 0, 76, 0
2, 81098, Note_on_c, 0, 64, 84
2, 81121, Note_on_c, 0, 64, 0
2, 81146, Note_on_c, 0, 66, 84
2, 81169, Note_on_c, 0, 66, 0
2, 81170, Note_on_c, 0, 78, 84
2, 81193, Note_on_c, 0, 78, 0
2, 81194, Note_on_c, 0, 66, 84
2, 81217, Note_on_c, 0, 66, 0
2, 81242, Note_on_c, 0, 71, 84
2, 81265, Note_on_c, 0, 71, 0
2, 81266, Note_on_c, 0, 70, 84
2, 81289, Note_on_c, 0, 70, 0
2, 81290, Note_on_c, 0, 71, 84
2, 81313, Note_on_c, 0, 71, 0
2, 81314, Note_on_c, 0, 76, 84
2, 81337, Note_on_c, 0, 76, 0
2, 81338, Note_on_c, 0, 71, 84
2, 81361, Note_on_c, 0, 71, 0
2, 81362, Note_on_c, 0, 70, 84
2, 81385, Note_on_c, 0, 70, 0
2, 81386, Note_on_c, 0, 71, 84
2, 81409, Note_on_c, 0, 71, 0
2, 81410, Note_on_c, 0, 79, 84
2, 81433, Note_on_c, 0, 79, 0
2, 81434, Note_on_c, 0, 71, 84
2, 81457, Note_on_c, 0, 71, 0
2, 81458, Note_on_c, 0, 70, 84
2, 81481, Note_on_c, 0, 70, 0
2, 81482, Note_on_c, 0, 71, 84
2, 81505, Note_on_c, 0, 71, 0
2, 81506, Note_on_c, 0, 81, 84
2, 81639, Note_on_c, 0, 81, 0
2, 81650, Note_on_c, 0, 78, 84
2, 81673, Note_on_c, 0, 78, 0
2, 81674, Note_on_c, 0, 74, 84
2, 81697, Note_on_c, 0, 74, 0
2, 81698, Note_on_c, 0, 79, 84
2, 81743, Note_on_c, 0, 79, 0
2, 81746, Note_on_c, 0, 76, 84
2, 81769, Note_on_c, 0, 76, 0
2, 81770, Note_on_c, 0, 73, 84
2, 81793, Note_on_c, 0, 73, 0
2, 81794, Note_on_c, 0, 74, 84
2, 81883, Note_on_c, 0, 74, 0
2, 81938, Note_on_c, 0, 71, 64
2, 81950, Note_on_c, 0, 71, 0
2, 81950, Note_on_c, 0, 69, 64
2, 81962, Note_on_c, 0, 69, 0
2, 81962, Note_on_c, 0, 67, 64
2, 81974, Note_on_c, 0, 67, 0
2, 81974, Note_on_c, 0, 69, 64
2, 81986, Note_on_c, 0, 69, 0
2, 81986, Note_on_c, 0, 71, 64
2, 82031, Note_on_c, 0, 71, 0
2, 82034, Note_on_c, 0, 67, 64
2, 82079, Note_on_c, 0, 67, 0
2, 82082, Note_on_c, 0, 69, 64
2, 82127, Note_on_c, 0, 69, 0
2, 82130, Note_on_c, 0, 66, 64
2, 82175, Note_on_c, 0, 66, 0
2, 82178, Note_on_c, 0, 67, 64
2, 82223, Note_on_c, 0, 67, 0
2, 82226, Note_on_c, 0, 64, 64
2, 82271, Note_on_c, 0, 64, 0
2, 82274, Note_on_c, 0, 66, 65
2, 82319, Note_on_c, 0, 66, 0
2, 82322, Note_on_c, 0, 76, 66
2, 82334, Note_on_c, 0, 76, 0
2, 82334, Note_on_c, 0, 74, 66
2, 82346, Note_on_c, 0, 74, 0
2, 82346, Note_on_c, 0, 73, 66
2, 82358, Note_on_c, 0, 73, 0
2, 82358, Note_on_c, 0, 74, 66
2, 82370, Note_on_c, 0, 74, 0
2, 82370, Note_on_c, 0, 76, 67
2, 82415, Note_on_c, 0, 76, 0
2, 82418, Note_on_c, 0, 73, 69
2, 82463, Note_on_c, 0, 73, 0
2, 82466, Note_on_c, 0, 74, 70
2, 82511, Note_on_c, 0, 74, 0
2, 82514, Note_on_c, 0, 79, 71
2, 82526, Note_on_c, 0, 79, 0
2, 82526, Note_on_c, 0, 78, 71
2, 82538, Note_on_c, 0, 78, 0
2, 82538, Note_on_c, 0, 76, 71
2, 82550, Note_on_c, 0, 76, 0
2, 82550, Note_on_c, 0, 78, 71
2, 82562, Note_on_c, 0, 78, 0
2, 82562, Note_on_c, 0, 79, 72
2, 82607, Note_on_c, 0, 79, 0
2, 82610, Note_on_c, 0, 76, 74
2, 82655, Note_on_c, 0, 76, 0
2, 82658, Note_on_c, 0, 78, 75
2, 82703, Note_on_c, 0, 78, 0
2, 82706, Note_on_c, 0, 81, 76
2, 82751, Note_on_c, 0, 81, 0
2, 82754, Note_on_c, 0, 83, 77
2, 82799, Note_on_c, 0, 83, 0
2, 82802, Note_on_c, 0, 79, 79
2, 82847, Note_on_c, 0, 79, 0
2, 82850, Note_on_c, 0, 81, 80
2, 82895, Note_on_c, 0, 81, 0
2, 82898, Note_on_c, 0, 78, 81
2, 82943, Note_on_c, 0, 78, 0
2, 82946, Note_on_c, 0, 79, 82
2, 82991, Note_on_c, 0, 79, 0
2, 82994, Note_on_c, 0, 76, 84
2, 83039, Note_on_c, 0, 76, 0
2, 83042, Note_on_c, 0, 78, 84
2, 83065, Note_on_c, 0, 78, 0
2, 83066, Note_on_c, 0, 81, 84
2, 83089, Note_on_c, 0, 81, 0
2, 83090, Note_on_c, 0, 78, 84
2, 83113, Note_on_c, 0, 78, 0
2, 83114, Note_on_c, 0, 74, 84
2, 83137, Note_on_c, 0, 74, 0
2, 83138, Note_on_c, 0, 74, 84
2, 83161, Note_on_c, 0, 74, 0
2, 83162, Note_on_c, 0, 78, 84
2, 83185, Note_on_c, 0, 78, 0
2, 83186, Note_on_c, 0, 74, 84
2, 83209, Note_on_c, 0, 74, 0
2, 83210, Note_on_c, 0, 69, 84
2, 83233, Note_on_c, 0, 69, 0
2, 83234, Note_on_c, 0, 69, 84
2, 83257, Note_on_c, 0, 69, 0
2, 83258, Note_on_c, 0, 74, 84
2, 83281, Note_on_c, 0, 74, 0
2, 83282, Note_on_c, 0, 69, 84
2, 83305, Note_on_c, 0, 69, 0
2, 83306, Note_on_c, 0, 66, 84
2, 83329, Note_on_c, 0, 66, 0
2, 83330, Note_on_c, 0, 66, 84
2, 83353, Note_on_c, 0, 66, 0
2, 83354, Note_on_c, 0, 69, 84
2, 83377, Note_on_c, 0, 69, 0
2, 83378, Note_on_c, 0, 66, 84
2, 83401, Note_on_c, 0, 66, 0
2, 83402, Note_on_c, 0, 62, 84
2, 83425, Note_on_c, 0, 62, 0
2, 83426, Note_on_c, 0, 62, 84
2, 83449, Note_on_c, 0, 62, 0
2, 83450, Note_on_c, 0, 66, 84
2, 83473, Note_on_c, 0, 66, 0
2, 83474, Note_on_c, 0, 62, 84
2, 83497, Note_on_c, 0, 62, 0
2, 83498, Note_on_c, 0, 57, 84
2, 83521, Note_on_c, 0, 57, 0
2, 83522, Control_c, 0, 64, 127
2, 83522, Note_on_c, 0, 56, 100
2, 83618, Note_on_c, 0, 56, 0
2, 83642, Note_on_c, 0, 62, 78
2, 83665, Note_on_c, 0, 62, 0
2, 83666, Note_on_c, 0, 65, 78
2, 83689, Note_on_c, 0, 65, 0
2, 83690, Note_on_c, 0, 62, 78
2, 83713, Note_on_c, 0, 62, 0
2, 83738, Note_on_c, 0, 62, 78
2, 83761, Note_on_c, 0, 62, 0
2, 83762, Note_on_c, 0, 65, 78
2, 83785, Note_on_c, 0, 65, 0
2, 83786, Control_c, 0, 64, 0
2, 83786, Note_on_c, 0, 62, 78
2, 83809, Note_on_c, 0, 62, 0
2, 83810, Control_c, 0, 64, 127
2, 83834, Note_on_c, 0, 62, 78
2, 83857, Note_on_c, 0, 62, 0
2, 83858, Note_on_c, 0, 65, 78
2, 83881, Note_on_c, 0, 65, 0
2, 83882, Note_on_c, 0, 62, 78
2, 83905, Note_on_c, 0, 62, 0
2, 83930, Note_on_c, 0, 62, 78
2, 83953, Note_on_c, 0, 62, 0
2, 83954, Note_on_c, 0, 65, 78
2, 83977, Note_on_c, 0, 65, 0
2, 83978, Note_on_c, 0, 62, 78
2, 84001, Note_on_c, 0, 62, 0
2, 84026, Note_on_c, 0, 62, 78
2, 84049, Note_on_c, 0, 62, 0
2, 84050, Note_on_c, 0, 65, 78
2, 84073, Note_on_c, 0, 65, 0
2, 84074, Control_c, 0, 64, 0
2, 84074, Note_on_c, 0, 62, 78
2, 84097, Note_on_c, 0, 62, 0
2, 84098, Control_c, 0, 64, 127
2, 84122, Note_on_c, 0, 62, 78
2, 84145, Note_on_c, 0, 62, 0
2, 84146, Note_on_c, 0, 65, 78
2, 84169, Note_on_c, 0, 65, 0
2, 84170, Note_on_c, 0, 62, 78
2, 84193, Note_on_c, 0, 62, 0
2, 84218, Note_on_c, 0, 62, 78
2, 84241, Note_on_c, 0, 62, 0
2, 84242, Note_on_c, 0, 74, 78
2, 84265, Note_on_c, 0, 74, 0
2, 84266, Note_on_c, 0, 62, 78
2, 84289, Note_on_c, 0, 62, 0
2, 84314, Note_on_c, 0, 62, 78
2, 84337, Note_on_c, 0, 62, 0
2, 84338, Note_on_c, 0, 72, 78
2, 84361, Note_on_c, 0, 72, 0
2, 84362, Control_c, 0, 64, 0
2, 84362, Note_on_c, 0, 62, 78
2, 84385, Note_on_c, 0, 62, 0
2, 84410, Note_on_c, 0, 62, 78
2, 84433, Note_on_c, 0, 62, 0
2, 84434, Note_on_c, 0, 70, 78
2, 84457, Note_on_c, 0, 70, 0
2, 84458, Note_on_c, 0, 62, 78
2, 84481, Note_on_c, 0, 62, 0
2, 84506, Note_on_c, 0, 62, 78
2, 84529, Note_on_c, 0, 62, 0
2, 84530, Note_on_c, 0, 69, 78
2, 84553, Note_on_c, 0, 69, 0
2, 84554, Note_on_c, 0, 62, 78
2, 84577, Note_on_c, 0, 62, 0
2, 84602, Note_on_c, 0, 62, 78
2, 84625, Note_on_c, 0, 62, 0
2, 84626, Note_on_c, 0, 68, 78
2, 84649, Note_on_c, 0, 68, 0
2, 84650, Note_on_c, 0, 62, 78
2, 84673, Note_on_c, 0, 62, 0
2, 84698, Note_on_c, 0, 61, 78
2, 84721, Note_on_c, 0, 61, 0
2, 84722, Note_on_c, 0, 69, 78
2, 84745, Note_on_c, 0, 69, 0
2, 84746, Note_on_c, 0, 61, 78
2, 84769, Note_on_c, 0, 61, 0
2, 84794, Note_on_c, 0, 64, 78
2, 84817, Note_on_c, 0, 64, 0
2, 84818, Note_on_c, 0, 67, 78
2, 84841, Note_on_c, 0, 67, 0
2, 84842, Note_on_c, 0, 64, 78
2, 84865, Note_on_c, 0, 64, 0
2, 84890, Note_on_c, 0, 62, 78
2, 84913, Note_on_c, 0, 62, 0
2, 84914, Note_on_c, 0, 66, 78
2, 84937, Note_on_c, 0, 66, 0
2, 84938, Note_on_c, 0, 62, 78
2, 84961, Note_on_c, 0, 62, 0
2, 84986, Note_on_c, 0, 64, 78
2, 85009, Note_on_c, 0, 64, 0
2, 85010, Note_on_c, 0, 67, 77
2, 85033, Note_on_c, 0, 67, 0
2, 85034, Note_on_c, 0, 64, 77
2, 85057, Note_on_c, 0, 64, 0
2, 85058, Note_on_c, 0, 62, 76
2, 85199, Note_on_c, 0, 62, 0
2, 85202, Note_on_c, 0, 61, 73
2, 85214, Note_on_c, 0, 61, 0
2, 85214, Note_on_c, 0, 62, 73
2, 85226, Note_on_c, 0, 62, 0
2, 85226, Note_on_c, 0, 61, 73
2, 85247, Note_on_c, 0, 61, 0
2, 85250, Note_on_c, 0, 62, 72
2, 85339, Note_on_c, 0, 62, 0
2, 85346, Note_on_c, 0, 86, 84
2, 85435, Note_on_c, 0, 86, 0
2, 85442, Note_on_c, 0, 85, 84
2, 85531, Note_on_c, 0, 85, 0
2, 85538, Note_on_c, 0, 85, 84
2, 85550, Note_on_c, 0, 85, 0
2, 85550, Note_on_c, 0, 83, 84
2, 85562, Note_on_c, 0, 83, 0
2, 85562, Note_on_c, 0, 82, 84
2, 85574, Note_on_c, 0, 82, 0
2, 85574, Note_on_c, 0, 83, 84
2, 85627, Note_on_c, 0, 83, 0
2, 85634, Note_on_c, 0, 81, 84
2, 85646, Note_on_c, 0, 81, 0
2, 85646, Note_on_c, 0, 79, 84
2, 85658, Note_on_c, 0, 79, 0
2, 85658, Note_on_c, 0, 78, 84
2, 85670, Note_on_c, 0, 78, 0
2, 85670, Note_on_c, 0, 79, 84
2, 85723, Note_on_c, 0, 79, 0
2, 85730, Note_on_c, 0, 78, 84
2, 85736, Note_on_c, 0, 78, 0
2, 85736, Note_on_c, 0, 76, 84
2, 85742, Note_on_c, 0, 76, 0
2, 85742, Note_on_c, 0, 75, 84
2, 85748, Note_on_c, 0, 75, 0
2, 85748, Note_on_c, 0, 76, 84
2, 85819, Note_on_c, 0, 76, 0
2, 85826, Note_on_c, 0, 69, 78
2, 85915, Note_on_c, 0, 69, 0
2, 85922, Note_on_c, 0, 78, 73
2, 85935, Note_on_c, 0, 78, 0
2, 85936, Note_on_c, 0, 76, 72
2, 85949, Note_on_c, 0, 76, 0
2, 85950, Note_on_c, 0, 78, 72
2, 85963, Note_on_c, 0, 78, 0
2, 85964, Note_on_c, 0, 76, 71
2, 85977, Note_on_c, 0, 76, 0
2, 85978, Note_on_c, 0, 78, 71
2, 85991, Note_on_c, 0, 78, 0
2, 85992, Note_on_c, 0, 76, 70
2, 86005, Note_on_c, 0, 76, 0
2, 86006, Note_on_c, 0, 78, 69
2, 86019, Note_on_c, 0, 78, 0
2, 86020, Note_on_c, 0, 76, 69
2, 86033, Note_on_c, 0, 76, 0
2, 86034, Note_on_c, 0, 78, 68
2, 86047, Note_on_c, 0, 78, 0
2, 86048, Note_on_c, 0, 76, 68
2, 86061, Note_on_c, 0, 76, 0
2, 86062, Note_on_c, 0, 74, 67
2, 86087, Note_on_c, 0, 74, 0
2, 86089, Note_on_c, 0, 76, 66
2, 86114, Note_on_c, 0, 76, 0
2, 86116, Note_on_c, 0, 74, 64
2, 86271, Note_on_c, 0, 74, 0
2, 86452, Note_on_c, 0, 81, 64
2, 86497, Note_on_c, 0, 81, 0
2, 86500, Note_on_c, 0, 69, 65
2, 86548, Note_on_c, 0, 69, 0
2, 86548, Note_on_c, 0, 73, 66
2, 86593, Note_on_c, 0, 73, 0
2, 86596, Note_on_c, 0, 74, 67
2, 86641, Note_on_c, 0, 74, 0
2, 86740, Note_on_c, 0, 81, 69
2, 86785, Note_on_c, 0, 81, 0
2, 86788, Note_on_c, 0, 69, 70
2, 86836, Note_on_c, 0, 69, 0
2, 86836, Note_on_c, 0, 73, 71
2, 86881, Note_on_c, 0, 73, 0
2, 86884, Note_on_c, 0, 74, 72
2, 86929, Note_on_c, 0, 74, 0
2, 87028, Note_on_c, 0, 81, 74
2, 87073, Note_on_c, 0, 81, 0
2, 87076, Note_on_c, 0, 69, 75
2, 87124, Note_on_c, 0, 69, 0
2, 87124, Note_on_c, 0, 73, 76
2, 87169, Note_on_c, 0, 73, 0
2, 87172, Note_on_c, 0, 74, 77
2, 87217, Note_on_c, 0, 74, 0
2, 87316, Note_on_c, 0, 81, 79
2, 87361, Note_on_c, 0, 81, 0
2, 87364, Note_on_c, 0, 69, 80
2, 87412, Note_on_c, 0, 69, 0
2, 87412, Note_on_c, 0, 73, 81
2, 87457, Note_on_c, 0, 73, 0
2, 87460, Note_on_c, 0, 74, 82
2, 87549, Note_on_c, 0, 74, 0
2, 87556, Note_on_c, 0, 83, 84
2, 87579, Note_on_c, 0, 83, 0
2, 87580, Note_on_c, 0, 86, 84
2, 87603, Note_on_c, 0, 86, 0
2, 87604, Note_on_c, 0, 83, 84
2, 87627, Note_on_c, 0, 83, 0
2, 87628, Note_on_c, 0, 79, 84
2, 87651, Note_on_c, 0, 79, 0
2, 87652, Note_on_c, 0, 79, 84
2, 87675, Note_on_c, 0, 79, 0
2, 87676, Note_on_c, 0, 83, 84
2, 87699, Note_on_c, 0, 83, 0
2, 87700, Note_on_c, 0, 79, 84
2, 87723, Note_on_c, 0, 79, 0
2, 87724, Note_on_c, 0, 74, 84
2, 87747, Note_on_c, 0, 74, 0
2, 87748, Note_on_c, 0, 74, 84
2, 87771, Note_on_c, 0, 74, 0
2, 87772, Note_on_c, 0, 79, 84
2, 87795, Note_on_c, 0, 79, 0
2, 87796, Note_on_c, 0, 74, 84
2, 87819, Note_on_c, 0, 74, 0
2, 87820, Note_on_c, 0, 71, 84
2, 87843, Note_on_c, 0, 71, 0
2, 87844, Note_on_c, 0, 83, 84
2, 87867, Note_on_c, 0, 83, 0
2, 87868, Note_on_c, 0, 86, 84
2, 87891, Note_on_c, 0, 86, 0
2, 87892, Note_on_c, 0, 83, 84
2, 87915, Note_on_c, 0, 83, 0
2, 87916, Note_on_c, 0, 80, 84
2, 87939, Note_on_c, 0, 80, 0
2, 87940, Note_on_c, 0, 80, 84
2, 87963, Note_on_c, 0, 80, 0
2, 87964, Note_on_c, 0, 83, 84
2, 87987, Note_on_c, 0, 83, 0
2, 87988, Note_on_c, 0, 80, 84
2, 88011, Note_on_c, 0, 80, 0
2, 88012, Note_on_c, 0, 77, 84
2, 88035, Note_on_c, 0, 77, 0
2, 88036, Note_on_c, 0, 77, 84
2, 88059, Note_on_c, 0, 77, 0
2, 88060, Note_on_c, 0, 80, 84
2, 88083, Note_on_c, 0, 80, 0
2, 88084, Note_on_c, 0, 77, 84
2, 88107, Note_on_c, 0, 77, 0
2, 88108, Note_on_c, 0, 74, 84
2, 88131, Note_on_c, 0, 74, 0
2, 88132, Note_on_c, 0, 69, 84
2, 88221, Note_on_c, 0, 69, 0
2, 88228, Note_on_c, 0, 78, 84
2, 88241, Note_on_c, 0, 78, 0
2, 88242, Note_on_c, 0, 76, 84
2, 88255, Note_on_c, 0, 76, 0
2, 88256, Note_on_c, 0, 78, 84
2, 88269, Note_on_c, 0, 78, 0
2, 88270, Note_on_c, 0, 76, 84
2, 88283, Note_on_c, 0, 76, 0
2, 88284, Note_on_c, 0, 78, 84
2, 88297, Note_on_c, 0, 78, 0
2, 88298, Note_on_c, 0, 76, 84
2, 88311, Note_on_c, 0, 76, 0
2, 88312, Note_on_c, 0, 78, 84
2, 88325, Note_on_c, 0, 78, 0
2, 88326, Note_on_c, 0, 76, 84
2, 88339, Note_on_c, 0, 76, 0
2, 88340, Note_on_c, 0, 78, 84
2, 88353, Note_on_c, 0, 78, 0
2, 88354, Note_on_c, 0, 76, 84
2, 88367, Note_on_c, 0, 76, 0
2, 88368, Note_on_c, 0, 78, 84
2, 88380, Note_on_c, 0, 78, 0
2, 88381, Note_on_c, 0, 76, 84
2, 88393, Note_on_c, 0, 76, 0
2, 88394, Note_on_c, 0, 74, 84
2, 88406, Note_on_c, 0, 74, 0
2, 88407, Note_on_c, 0, 76, 84
2, 88419, Note_on_c, 0, 76, 0
2, 88420, Note_on_c, 0, 74, 84
2, 88509, Note_on_c, 0, 74, 0
2, 88516, Note_on_c, 0, 86, 84
2, 88539, Note_on_c, 0, 86, 0
2, 88540, Note_on_c, 0, 85, 84
2, 88563, Note_on_c, 0, 85, 0
2, 88564, Note_on_c, 0, 83, 84
2, 88587, Note_on_c, 0, 83, 0
2, 88588, Note_on_c, 0, 81, 84
2, 88611, Note_on_c, 0, 81, 0
2, 88612, Note_on_c, 0, 79, 84
2, 88635, Note_on_c, 0, 79, 0
2, 88636, Note_on_c, 0, 78, 84
2, 88659, Note_on_c, 0, 78, 0
2, 88660, Note_on_c, 0, 76, 84
2, 88683, Note_on_c, 0, 76, 0
2, 88684, Note_on_c, 0, 74, 84
2, 88707, Note_on_c, 0, 74, 0
2, 88708, Note_on_c, 0, 83, 84
2, 88797, Note_on_c, 0, 83, 0
2, 88804, Note_on_c, 0, 81, 84
2, 88822, Note_on_c, 0, 81, 0
2, 88822, Note_on_c, 0, 79, 84
2, 88893, Note_on_c, 0, 79, 0
2, 88900, Note_on_c, 0, 78, 84
2, 88918, Note_on_c, 0, 78, 0
2, 88918, Note_on_c, 0, 76, 84
2, 88989, Note_on_c, 0, 76, 0
2, 88996, Note_on_c, 0, 69, 84
2, 89085, Note_on_c, 0, 69, 0
2, 89092, Note_on_c, 0, 78, 84
2, 89105, Note_on_c, 0, 78, 0
2, 89106, Note_on_c, 0, 76, 84
2, 89119, Note_on_c, 0, 76, 0
2, 89120, Note_on_c, 0, 78, 84
2, 89133, Note_on_c, 0, 78, 0
2, 89134, Note_on_c, 0, 76, 84
2, 89147, Note_on_c, 0, 76, 0
2, 89148, Note_on_c, 0, 78, 84
2, 89161, Note_on_c, 0, 78, 0
2, 89162, Note_on_c, 0, 76, 84
2, 89175, Note_on_c, 0, 76, 0
2, 89176, Note_on_c, 0, 78, 84
2, 89189, Note_on_c, 0, 78, 0
2, 89190, Note_on_c, 0, 76, 84
2, 89203, Note_on_c, 0, 76, 0
2, 89204, Note_on_c, 0, 78, 84
2, 89217, Note_on_c, 0, 78, 0
2, 89218, Note_on_c, 0, 76, 84
2, 89231, Note_on_c, 0, 76, 0
2, 89232, Note_on_c, 0, 78, 84
2, 89244, Note_on_c, 0, 78, 0
2, 89245, Note_on_c, 0, 76, 84
2, 89257, Note_on_c, 0, 76, 0
2, 89258, Note_on_c, 0, 74, 84
2, 89270, Note_on_c, 0, 74, 0
2, 89271, Note_on_c, 0, 76, 84
2, 89283, Note_on_c, 0, 76, 0
2, 89284, Note_on_c, 0, 74, 84
2, 89307, Note_on_c, 0, 74, 0
2, 89308, Note_on_c, 0, 81, 84
2, 89331, Note_on_c, 0, 81, 0
2, 89332, Note_on_c, 0, 78, 84
2, 89355, Note_on_c, 0, 78, 0
2, 89356, Note_on_c, 0, 74, 84
2, 89379, Note_on_c, 0, 74, 0
2, 89380, Note_on_c, 0, 69, 84
2, 89425, Note_on_c, 0, 69, 0
2, 89428, Note_on_c, 0, 66, 84
2, 89448, Note_on_c, 0, 66, 0
2, 89476, Note_on_c, 0, 64, 84
2, 89496, Note_on_c, 0, 64, 0
2, 89524, Note_on_c, 0, 67, 84
2, 89544, Note_on_c, 0, 67, 0
2, 89572, Note_on_c, 0, 66, 84
2, 89595, Note_on_c, 0, 66, 0
2, 89596, Note_on_c, 0, 69, 84
2, 89619, Note_on_c, 0, 69, 0
2, 89620, Note_on_c, 0, 74, 84
2, 89643, Note_on_c, 0, 74, 0
2, 89644, Note_on_c, 0, 78, 84
2, 89667, Note_on_c, 0, 78, 0
2, 89668, Note_on_c, 0, 81, 84
2, 89713, Note_on_c, 0, 81, 0
2, 89716, Note_on_c, 0, 66, 84
2, 89736, Note_on_c, 0, 66, 0
2, 89764, Note_on_c, 0, 67, 84
2, 89784, Note_on_c, 0, 67, 0
2, 89812, Note_on_c, 0, 73, 84
2, 89812, Note_on_c, 0, 67, 84
2, 89832, Note_on_c, 0, 73, 0
2, 89832, Note_on_c, 0, 67, 0
2, 89860, Note_on_c, 0, 74, 84
2, 89860, Note_on_c, 0, 66, 84
2, 89949, Note_on_c, 0, 74, 0
2, 89949, Note_on_c, 0, 66, 0
2, 90148, End_track
3, 0, Start_track
3, 0, Program_c, 0, 0
3, 0, Control_c, 0, 7, 127
3, 0, Control_c, 0, 10, 64
3, 2592, Note_on_c, 0, 61, 64
3, 2725, Note_on_c, 0, 61, 0
3, 2736, Note_on_c, 0, 64, 64
3, 2781, Note_on_c, 0, 64, 0
3, 2880, Note_on_c, 0, 67, 64
3, 3057, Note_on_c, 0, 67, 0
3, 3072, Note_on_c, 0, 66, 64
3, 3161, Note_on_c, 0, 66, 0
3, 3168, Note_on_c, 0, 61, 64
3, 3301, Note_on_c, 0, 61, 0
3, 3312, Note_on_c, 0, 64, 64
3, 3357, Note_on_c, 0, 64, 0
3, 3456, Note_on_c, 0, 73, 64
3, 3589, Note_on_c, 0, 73, 0
3, 3600, Note_on_c, 0, 76, 64
3, 3645, Note_on_c, 0, 76, 0
3, 3648, Note_on_c, 0, 69, 64
3, 3737, Note_on_c, 0, 69, 0
3, 17280, Note_on_c, 0, 61, 64
3, 17413, Note_on_c, 0, 61, 0
3, 17424, Note_on_c, 0, 64, 64
3, 17469, Note_on_c, 0, 64, 0
3, 17568, Note_on_c, 0, 67, 64
3, 17745, Note_on_c, 0, 67, 0
3, 17760, Note_on_c, 0, 66, 64
3, 17849, Note_on_c, 0, 66, 0
3, 17856, Note_on_c, 0, 61, 64
3, 17989, Note_on_c, 0, 61, 0
3, 18000, Note_on_c, 0, 64, 64
3, 18045, Note_on_c, 0, 64, 0
3, 18144, Note_on_c, 0, 73, 64
3, 18277, Note_on_c, 0, 73, 0
3, 18288, Note_on_c, 0, 76, 64
3, 18333, Note_on_c, 0, 76, 0
3, 18336, Note_on_c, 0, 69, 64
3, 18425, Note_on_c, 0, 69, 0
3, 37152, Note_on_c, 0, 70, 64
3, 37285, Note_on_c, 0, 70, 0
3, 37440, Note_on_c, 0, 64, 66
3, 37617, Note_on_c, 0, 64, 0
3, 37632, Note_on_c, 0, 62, 68
3, 37721, Note_on_c, 0, 62, 0
3, 37728, Note_on_c, 0, 70, 69
3, 37861, Note_on_c, 0, 70, 0
3, 37872, Note_on_c, 0, 73, 70
3, 37917, Note_on_c, 0, 73, 0
3, 37920, Note_on_c, 0, 74, 70
3, 38149, Note_on_c, 0, 74, 0
3, 38160, Note_on_c, 0, 71, 73
3, 38205, Note_on_c, 0, 71, 0
3, 38208, Note_on_c, 0, 73, 73
3, 38437, Note_on_c, 0, 73, 0
3, 38448, Note_on_c, 0, 69, 75
3, 38493, Note_on_c, 0, 69, 0
3, 38496, Note_on_c, 0, 71, 76
3, 38725, Note_on_c, 0, 71, 0
3, 38736, Note_on_c, 0, 68, 78
3, 38781, Note_on_c, 0, 68, 0
3, 38784, Note_on_c, 0, 70, 78
3, 38873, Note_on_c, 0, 70, 0
3, 45792, Note_on_c, 0, 61, 78
3, 45925, Note_on_c, 0, 61, 0
3, 45936, Note_on_c, 0, 64, 78
3, 45981, Note_on_c, 0, 64, 0
3, 46080, Note_on_c, 0, 67, 78
3, 46257, Note_on_c, 0, 67, 0
3, 46272, Note_on_c, 0, 66, 78
3, 46361, Note_on_c, 0, 66, 0
3, 46368, Note_on_c, 0, 61, 78
3, 46501, Note_on_c, 0, 61, 0
3, 46512, Note_on_c, 0, 64, 78
3, 46557, Note_on_c, 0, 64, 0
3, 46656, Note_on_c, 0, 73, 78
3, 46789, Note_on_c, 0, 73, 0
3, 46800, Note_on_c, 0, 76, 78
3, 46845, Note_on_c, 0, 76, 0
3, 46848, Note_on_c, 0, 69, 78
3, 46937, Note_on_c, 0, 69, 0
3, 67392, Note_on_c, 0, 70, 64
3, 67525, Note_on_c, 0, 70, 0
3, 67680, Note_on_c, 0, 64, 66
3, 67857, Note_on_c, 0, 64, 0
3, 67872, Note_on_c, 0, 62, 68
3, 67961, Note_on_c, 0, 62, 0
3, 67968, Note_on_c, 0, 70, 69
3, 68101, Note_on_c, 0, 70, 0
3, 68112, Note_on_c, 0, 73, 70
3, 68157, Note_on_c, 0, 73, 0
3, 68160, Note_on_c, 0, 74, 70
3, 68389, Note_on_c, 0, 74, 0
3, 68400, Note_on_c, 0, 71, 73
3, 68445, Note_on_c, 0, 71, 0
3, 68448, Note_on_c, 0, 73, 73
3, 68677, Note_on_c, 0, 73, 0
3, 68688, Note_on_c, 0, 69, 75
3, 68733, Note_on_c, 0, 69, 0
3, 68736, Note_on_c, 0, 71, 76
3, 68965, Note_on_c, 0, 71, 0
3, 68976, Note_on_c, 0, 68, 78
3, 69021, Note_on_c, 0, 68, 0
3, 69024, Note_on_c, 0, 70, 78
3, 69113, Note_on_c, 0, 70, 0
3, 76032, Note_on_c, 0, 61, 78
3, 76165, Note_on_c, 0, 61, 0
3, 76176, Note_on_c, 0, 64, 78
3, 76221, Note_on_c, 0, 64, 0
3, 76320, Note_on_c, 0, 67, 78
3, 76497, Note_on_c, 0, 67, 0
3, 76512, Note_on_c, 0, 66, 78
3, 76601, Note_on_c, 0, 66, 0
3, 76608, Note_on_c, 0, 61, 78
3, 76741, Note_on_c, 0, 61, 0
3, 76752, Note_on_c, 0, 64, 78
3, 76797, Note_on_c, 0, 64, 0
3, 76896, Note_on_c, 0, 73, 78
3, 77029, Note_on_c, 0, 73, 0
3, 77040, Note_on_c, 0, 76, 78
3, 77085, Note_on_c, 0, 76, 0
3, 77088, Note_on_c, 0, 69, 78
3, 77177, Note_on_c, 0, 69, 0
3, 90144, End_track
4, 0, Start_track
4, 0, Program_c, 1, 0
4, 0, Control_c, 1, 7, 127
4, 0, Control_c, 1, 10, 64
4, 336, Note_on_c, 1, 62, 78
4, 381, Note_on_c, 1, 62, 0
4, 384, Note_on_c, 1, 66, 79
4, 429, Note_on_c, 1, 66, 0
4, 432, Note_on_c, 1, 62, 79
4, 477, Note_on_c, 1, 62, 0
4, 480, Note_on_c, 1, 64, 80
4, 525, Note_on_c, 1, 64, 0
4, 528, Note_on_c, 1, 61, 80
4, 573, Note_on_c, 1, 61, 0
4, 576, Note_on_c, 1, 62, 81
4, 621, Note_on_c, 1, 62, 0
4, 624, Note_on_c, 1, 54, 81
4, 669, Note_on_c, 1, 54, 0
4, 672, Note_on_c, 1, 55, 82
4, 717, Note_on_c, 1, 55, 0
4, 720, Note_on_c, 1, 57, 82
4, 765, Note_on_c, 1, 57, 0
4, 768, Note_on_c, 1, 54, 83
4, 813, Note_on_c, 1, 54, 0
4, 816, Note_on_c, 1, 66, 83
4, 861, Note_on_c, 1, 66, 0
4, 864, Note_on_c, 1, 67, 84
4, 953, Note_on_c, 1, 67, 0
4, 960, Note_on_c, 1, 66, 82
4, 1005, Note_on_c, 1, 66, 0
4, 1008, Note_on_c, 1, 62, 81
4, 1053, Note_on_c, 1, 62, 0
4, 1056, Note_on_c, 1, 64, 81
4, 1101, Note_on_c, 1, 64, 0
4, 1104, Note_on_c, 1, 57, 80
4, 1149, Note_on_c, 1, 57, 0
4, 1152, Note_on_c, 1, 62, 79
4, 1241, Note_on_c, 1, 62, 0
4, 1248, Note_on_c, 1, 50, 78
4, 1337, Note_on_c, 1, 50, 0
4, 1488, Note_on_c, 1, 62, 78
4, 1533, Note_on_c, 1, 62, 0
4, 1536, Note_on_c, 1, 66, 78
4, 1581, Note_on_c, 1, 66, 0
4, 1584, Note_on_c, 1, 62, 78
4, 1629, Note_on_c, 1, 62, 0
4, 1632, Note_on_c, 1, 64, 79
4, 1677, Note_on_c, 1, 64, 0
4, 1680, Note_on_c, 1, 57, 79
4, 1725, Note_on_c, 1, 57, 0
4, 1728, Note_on_c, 1, 62, 79
4, 1773, Note_on_c, 1, 62, 0
4, 1776, Note_on_c, 1, 66, 79
4, 1821, Note_on_c, 1, 66, 0
4, 1824, Note_on_c, 1, 67, 80
4, 1869, Note_on_c, 1, 67, 0
4, 1872, Note_on_c, 1, 64, 80
4, 1917, Note_on_c, 1, 64, 0
4, 1920, Note_on_c, 1, 66, 80
4, 1965, Note_on_c, 1, 66, 0
4, 1968, Note_on_c, 1, 62, 81
4, 2013, Note_on_c, 1, 62, 0
4, 2016, Note_on_c, 1, 64, 81
4, 2061, Note_on_c, 1, 64, 0
4, 2064, Note_on_c, 1, 61, 81
4, 2109, Note_on_c, 1, 61, 0
4, 2112, Note_on_c, 1, 66, 81
4, 2157, Note_on_c, 1, 66, 0
4, 2160, Note_on_c, 1, 62, 82
4, 2205, Note_on_c, 1, 62, 0
4, 2208, Note_on_c, 1, 67, 82
4, 2247, Note_on_c, 1, 67, 0
4, 2304, Note_on_c, 1, 67, 82
4, 2319, Note_on_c, 1, 67, 0
4, 2320, Note_on_c, 1, 69, 82
4, 2335, Note_on_c, 1, 69, 0
4, 2336, Note_on_c, 1, 73, 83
4, 2351, Note_on_c, 1, 73, 0
4, 2400, Note_on_c, 1, 66, 83
4, 2439, Note_on_c, 1, 66, 0
4, 2640, Note_on_c, 1, 45, 78
4, 2685, Note_on_c, 1, 45, 0
4, 2688, Note_on_c, 1, 57, 78
4, 2733, Note_on_c, 1, 57, 0
4, 2736, Note_on_c, 1, 61, 78
4, 2781, Note_on_c, 1, 61, 0
4, 2784, Note_on_c, 1, 62, 78
4, 2873, Note_on_c, 1, 62, 0
4, 2928, Note_on_c, 1, 45, 78
4, 2973, Note_on_c, 1, 45, 0
4, 2976, Note_on_c, 1, 57, 78
4, 3021, Note_on_c, 1, 57, 0
4, 3024, Note_on_c, 1, 61, 78
4, 3069, Note_on_c, 1, 61, 0
4, 3072, Note_on_c, 1, 62, 78
4, 3161, Note_on_c, 1, 62, 0
4, 3216, Note_on_c, 1, 45, 78
4, 3261, Note_on_c, 1, 45, 0
4, 3264, Note_on_c, 1, 57, 79
4, 3309, Note_on_c, 1, 57, 0
4, 3312, Note_on_c, 1, 61, 79
4, 3357, Note_on_c, 1, 61, 0
4, 3360, Note_on_c, 1, 62, 80
4, 3449, Note_on_c, 1, 62, 0
4, 3504, Note_on_c, 1, 45, 81
4, 3549, Note_on_c, 1, 45, 0
4, 3552, Note_on_c, 1, 57, 82
4, 3597, Note_on_c, 1, 57, 0
4, 3600, Note_on_c, 1, 61, 82
4, 3645, Note_on_c, 1, 61, 0
4, 3648, Note_on_c, 1, 62, 83
4, 3693, Note_on_c, 1, 62, 0
4, 3696, Note_on_c, 1, 66, 83
4, 3741, Note_on_c, 1, 66, 0
4, 3744, Note_on_c, 1, 67, 84
4, 3833, Note_on_c, 1, 67, 0
4, 4008, Note_on_c, 1, 71, 80
4, 4031, Note_on_c, 1, 71, 0
4, 4032, Note_on_c, 1, 74, 80
4, 4128, Note_on_c, 1, 74, 0
4, 4128, Note_on_c, 1, 73, 79
4, 4217, Note_on_c, 1, 73, 0
4, 4368, Note_on_c, 1, 57, 78
4, 4413, Note_on_c, 1, 57, 0
4, 4416, Note_on_c, 1, 61, 78
4, 4461, Note_on_c, 1, 61, 0
4, 4464, Note_on_c, 1, 57, 78
4, 4509, Note_on_c, 1, 57, 0
4, 4512, Note_on_c, 1, 59, 78
4, 4557, Note_on_c, 1, 59, 0
4, 4560, Note_on_c, 1, 52, 78
4, 4605, Note_on_c, 1, 52, 0
4, 4608, Note_on_c, 1, 57, 78
4, 4697, Note_on_c, 1, 57, 0
4, 4944, Note_on_c, 1, 49, 78
4, 4989, Note_on_c, 1, 49, 0
4, 4992, Note_on_c, 1, 52, 78
4, 5037, Note_on_c, 1, 52, 0
4, 5040, Note_on_c, 1, 49, 78
4, 5085, Note_on_c, 1, 49, 0
4, 5088, Note_on_c, 1, 52, 78
4, 5133, Note_on_c, 1, 52, 0
4, 5136, Note_on_c, 1, 49, 79
4, 5181, Note_on_c, 1, 49, 0
4, 5232, Note_on_c, 1, 50, 79
4, 5277, Note_on_c, 1, 50, 0
4, 5280, Note_on_c, 1, 38, 79
4, 5325, Note_on_c, 1, 38, 0
4, 5328, Note_on_c, 1, 50, 80
4, 5373, Note_on_c, 1, 50, 0
4, 5376, Note_on_c, 1, 49, 80
4, 5421, Note_on_c, 1, 49, 0
4, 5424, Note_on_c, 1, 52, 80
4, 5469, Note_on_c, 1, 52, 0
4, 5472, Note_on_c, 1, 50, 80
4, 5664, Note_on_c, 1, 50, 0
4, 5664, Note_on_c, 1, 51, 81
4, 5753, Note_on_c, 1, 51, 0
4, 5808, Note_on_c, 1, 52, 82
4, 5853, Note_on_c, 1, 52, 0
4, 5856, Note_on_c, 1, 40, 82
4, 5901, Note_on_c, 1, 40, 0
4, 5904, Note_on_c, 1, 44, 82
4, 5949, Note_on_c, 1, 44, 0
4, 5952, Note_on_c, 1, 47, 83
4, 5997, Note_on_c, 1, 47, 0
4, 6000, Note_on_c, 1, 52, 83
4, 6045, Note_on_c, 1, 52, 0
4, 6048, Note_on_c, 1, 40, 83
4, 6137, Note_on_c, 1, 40, 0
4, 6144, Note_on_c, 1, 64, 84
4, 6183, Note_on_c, 1, 64, 0
4, 6240, Note_on_c, 1, 62, 84
4, 6279, Note_on_c, 1, 62, 0
4, 6336, Note_on_c, 1, 61, 84
4, 6375, Note_on_c, 1, 61, 0
4, 6432, Note_on_c, 1, 61, 84
4, 6471, Note_on_c, 1, 61, 0
4, 6528, Note_on_c, 1, 59, 84
4, 6567, Note_on_c, 1, 59, 0
4, 6624, Note_on_c, 1, 57, 84
4, 6713, Note_on_c, 1, 57, 0
4, 6720, Note_on_c, 1, 64, 84
4, 6759, Note_on_c, 1, 64, 0
4, 6816, Note_on_c, 1, 62, 84
4, 6855, Note_on_c, 1, 62, 0
4, 6912, Note_on_c, 1, 60, 84
4, 6951, Note_on_c, 1, 60, 0
4, 7008, Note_on_c, 1, 60, 84
4, 7047, Note_on_c, 1, 60, 0
4, 7104, Note_on_c, 1, 59, 84
4, 7143, Note_on_c, 1, 59, 0
4, 7200, Note_on_c, 1, 57, 84
4, 7289, Note_on_c, 1, 57, 0
4, 7296, Note_on_c, 1, 69, 84
4, 7335, Note_on_c, 1, 69, 0
4, 7392, Note_on_c, 1, 67, 84
4, 7431, Note_on_c, 1, 67, 0
4, 7488, Note_on_c, 1, 66, 84
4, 7527, Note_on_c, 1, 66, 0
4, 7584, Note_on_c, 1, 65, 84
4, 7623, Note_on_c, 1, 65, 0
4, 7680, Note_on_c, 1, 64, 84
4, 7719, Note_on_c, 1, 64, 0
4, 7776, Control_c, 1, 64, 127
4, 7776, Note_on_c, 1, 63, 84
4, 7865, Note_on_c, 1, 63, 0
4, 7872, Note_on_c, 1, 72, 84
4, 7911, Note_on_c, 1, 72, 0
4, 7968, Note_on_c, 1, 63, 84
4, 8057, Note_on_c, 1, 63, 0
4, 8064, Control_c, 1, 64, 0
4, 8064, Control_c, 1, 64, 127
4, 8064, Note_on_c, 1, 64, 84
4, 8153, Note_on_c, 1, 64, 0
4, 8160, Note_on_c, 1, 72, 84
4, 8199, Note_on_c, 1, 72, 0
4, 8256, Note_on_c, 1, 64, 84
4, 8345, Note_on_c, 1, 64, 0
4, 8352, Control_c, 1, 64, 0
4, 8352, Control_c, 1, 64, 127
4, 8352, Note_on_c, 1, 65, 84
4, 8441, Note_on_c, 1, 65, 0
4, 8448, Note_on_c, 1, 72, 84
4, 8487, Note_on_c, 1, 72, 0
4, 8544, Note_on_c, 1, 65, 84
4, 8633, Note_on_c, 1, 65, 0
4, 8640, Control_c, 1, 64, 0
4, 8640, Note_on_c, 1, 64, 84
4, 8729, Note_on_c, 1, 64, 0
4, 8736, Note_on_c, 1, 62, 84
4, 8736, Note_on_c, 1, 50, 84
4, 8825, Note_on_c, 1, 62, 0
4, 8825, Note_on_c, 1, 50, 0
4, 8832, Note_on_c, 1, 61, 84
4, 8832, Note_on_c, 1, 49, 84
4, 8921, Note_on_c, 1, 61, 0
4, 8921, Note_on_c, 1, 49, 0
4, 8928, Note_on_c, 1, 59, 84
4, 8928, Note_on_c, 1, 47, 84
4, 9017, Note_on_c, 1, 59, 0
4, 9017, Note_on_c, 1, 47, 0
4, 9024, Note_on_c, 1, 56, 84
4, 9024, Note_on_c, 1, 44, 84
4, 9113, Note_on_c, 1, 56, 0
4, 9113, Note_on_c, 1, 44, 0
4, 9120, Note_on_c, 1, 57, 84
4, 9120, Note_on_c, 1, 45, 84
4, 9209, Note_on_c, 1, 57, 0
4, 9209, Note_on_c, 1, 45, 0
4, 9216, Note_on_c, 1, 62, 84
4, 9216, Note_on_c, 1, 50, 84
4, 9305, Note_on_c, 1, 62, 0
4, 9305, Note_on_c, 1, 50, 0
4, 9600, Note_on_c, 1, 61, 76
4, 9600, Note_on_c, 1, 52, 76
4, 9689, Note_on_c, 1, 61, 0
4, 9689, Note_on_c, 1, 52, 0
4, 9696, Note_on_c, 1, 59, 74
4, 9696, Note_on_c, 1, 52, 74
4, 9785, Note_on_c, 1, 59, 0
4, 9785, Note_on_c, 1, 52, 0
4, 9792, Note_on_c, 1, 57, 72
4, 9792, Note_on_c, 1, 45, 72
4, 9881, Note_on_c, 1, 57, 0
4, 9881, Note_on_c, 1, 45, 0
4, 9936, Note_on_c, 1, 61, 64
4, 9981, Note_on_c, 1, 61, 0
4, 9984, Note_on_c, 1, 62, 64
4, 10029, Note_on_c, 1, 62, 0
4, 10032, Note_on_c, 1, 59, 64
4, 10077, Note_on_c, 1, 59, 0
4, 10080, Note_on_c, 1, 61, 64
4, 10125, Note_on_c, 1, 61, 0
4, 10128, Note_on_c, 1, 57, 64
4, 10173, Note_on_c, 1, 57, 0
4, 10176, Note_on_c, 1, 59, 64
4, 10221, Note_on_c, 1, 59, 0
4, 10224, Note_on_c, 1, 52, 64
4, 10269, Note_on_c, 1, 52, 0
4, 10272, Note_on_c, 1, 57, 64
4, 10317, Note_on_c, 1, 57, 0
4, 10320, Note_on_c, 1, 61, 64
4, 10365, Note_on_c, 1, 61, 0
4, 10368, Note_on_c, 1, 62, 64
4, 10413, Note_on_c, 1, 62, 0
4, 10416, Note_on_c, 1, 59, 64
4, 10461, Note_on_c, 1, 59, 0
4, 10464, Note_on_c, 1, 61, 64
4, 10509, Note_on_c, 1, 61, 0
4, 10512, Note_on_c, 1, 64, 64
4, 10557, Note_on_c, 1, 64, 0
4, 10560, Note_on_c, 1, 66, 64
4, 10605, Note_on_c, 1, 66, 0
4, 10608, Note_on_c, 1, 62, 64
4, 10653, Note_on_c, 1, 62, 0
4, 10656, Note_on_c, 1, 64, 64
4, 10701, Note_on_c, 1, 64, 0
4, 10704, Note_on_c, 1, 61, 66
4, 10749, Note_on_c, 1, 61, 0
4, 10752, Note_on_c, 1, 62, 68
4, 10797, Note_on_c, 1, 62, 0
4, 10800, Note_on_c, 1, 71, 70
4, 10845, Note_on_c, 1, 71, 0
4, 10848, Note_on_c, 1, 61, 72
4, 10893, Note_on_c, 1, 61, 0
4, 10896, Note_on_c, 1, 69, 74
4, 10941, Note_on_c, 1, 69, 0
4, 10944, Note_on_c, 1, 59, 76
4, 10989, Note_on_c, 1, 59, 0
4, 10992, Note_on_c, 1, 68, 78
4, 11037, Note_on_c, 1, 68, 0
4, 11040, Note_on_c, 1, 57, 80
4, 11129, Note_on_c, 1, 57, 0
4, 11520, Control_c, 1, 64, 127
4, 11520, Note_on_c, 1, 51, 100
4, 11520, Note_on_c, 1, 39, 100
4, 11616, Note_on_c, 1, 51, 0
4, 11616, Note_on_c, 1, 39, 0
4, 11616, Note_on_c, 1, 63, 84
4, 11655, Note_on_c, 1, 63, 0
4, 11712, Note_on_c, 1, 69, 84
4, 11751, Note_on_c, 1, 69, 0
4, 11808, Control_c, 1, 64, 0
4, 11808, Control_c, 1, 64, 127
4, 11808, Note_on_c, 1, 52, 100
4, 11808, Note_on_c, 1, 40, 100
4, 11904, Note_on_c, 1, 52, 0
4, 11904, Note_on_c, 1, 40, 0
4, 11904, Note_on_c, 1, 64, 84
4, 11943, Note_on_c, 1, 64, 0
4, 12000, Note_on_c, 1, 69, 84
4, 12039, Note_on_c, 1, 69, 0
4, 12096, Control_c, 1, 64, 0
4, 12096, Control_c, 1, 64, 127
4, 12096, Note_on_c, 1, 53, 100
4, 12096, Note_on_c, 1, 41, 100
4, 12192, Note_on_c, 1, 53, 0
4, 12192, Note_on_c, 1, 41, 0
4, 12192, Note_on_c, 1, 65, 84
4, 12281, Note_on_c, 1, 65, 0
4, 12288, Note_on_c, 1, 65, 84
4, 12377, Note_on_c, 1, 65, 0
4, 12384, Control_c, 1, 64, 0
4, 12384, Note_on_c, 1, 65, 84
4, 12473, Note_on_c, 1, 65, 0
4, 12480, Note_on_c, 1, 65, 84
4, 12569, Note_on_c, 1, 65, 0
4, 12576, Note_on_c, 1, 65, 84
4, 12665, Note_on_c, 1, 65, 0
4, 12672, Note_on_c, 1, 64, 84
4, 12761, Note_on_c, 1, 64, 0
4, 12768, Note_on_c, 1, 68, 84
4, 12857, Note_on_c, 1, 68, 0
4, 12864, Note_on_c, 1, 69, 84
4, 12953, Note_on_c, 1, 69, 0
4, 12960, Note_on_c, 1, 62, 84
4, 12960, Note_on_c, 1, 50, 84
4, 13049, Note_on_c, 1, 62, 0
4, 13049, Note_on_c, 1, 50, 0
4, 13056, Note_on_c, 1, 61, 82
4, 13056, Note_on_c, 1, 52, 82
4, 13145, Note_on_c, 1, 61, 0
4, 13145, Note_on_c, 1, 52, 0
4, 13152, Note_on_c, 1, 59, 80
4, 13152, Note_on_c, 1, 52, 80
4, 13241, Note_on_c, 1, 59, 0
4, 13241, Note_on_c, 1, 52, 0
4, 13248, Note_on_c, 1, 49, 84
4, 13271, Note_on_c, 1, 49, 0
4, 13272, Note_on_c, 1, 57, 84
4, 13295, Note_on_c, 1, 57, 0
4, 13296, Note_on_c, 1, 56, 84
4, 13319, Note_on_c, 1, 56, 0
4, 13320, Note_on_c, 1, 57, 84
4, 13343, Note_on_c, 1, 57, 0
4, 13344, Note_on_c, 1, 49, 84
4, 13367, Note_on_c, 1, 49, 0
4, 13368, Note_on_c, 1, 57, 84
4, 13391, Note_on_c, 1, 57, 0
4, 13392, Note_on_c, 1, 56, 84
4, 13415, Note_on_c, 1, 56, 0
4, 13416, Note_on_c, 1, 57, 84
4, 13439, Note_on_c, 1, 57, 0
4, 13440, Note_on_c, 1, 49, 84
4, 13463, Note_on_c, 1, 49, 0
4, 13464, Note_on_c, 1, 57, 84
4, 13487, Note_on_c, 1, 57, 0
4, 13488, Note_on_c, 1, 56, 84
4, 13511, Note_on_c, 1, 56, 0
4, 13512, Note_on_c, 1, 57, 84
4, 13535, Note_on_c, 1, 57, 0
4, 13536, Note_on_c, 1, 50, 84
4, 13559, Note_on_c, 1, 50, 0
4, 13560, Note_on_c, 1, 57, 84
4, 13583, Note_on_c, 1, 57, 0
4, 13584, Note_on_c, 1, 56, 84
4, 13607, Note_on_c, 1, 56, 0
4, 13608, Note_on_c, 1, 57, 84
4, 13631, Note_on_c, 1, 57, 0
4, 13632, Note_on_c, 1, 50, 84
4, 13655, Note_on_c, 1, 50, 0
4, 13656, Note_on_c, 1, 59, 84
4, 13679, Note_on_c, 1, 59, 0
4, 13680, Note_on_c, 1, 58, 84
4, 13703, Note_on_c, 1, 58, 0
4, 13704, Note_on_c, 1, 59, 84
4, 13727, Note_on_c, 1, 59, 0
4, 13728, Note_on_c, 1, 50, 84
4, 13751, Note_on_c, 1, 50, 0
4, 13752, Note_on_c, 1, 59, 84
4, 13775, Note_on_c, 1, 59, 0
4, 13776, Note_on_c, 1, 58, 84
4, 13799, Note_on_c, 1, 58, 0
4, 13800, Note_on_c, 1, 59, 84
4, 13823, Note_on_c, 1, 59, 0
4, 13824, Note_on_c, 1, 52, 84
4, 13847, Note_on_c, 1, 52, 0
4, 13848, Note_on_c, 1, 61, 84
4, 13871, Note_on_c, 1, 61, 0
4, 13872, Note_on_c, 1, 57, 84
4, 13895, Note_on_c, 1, 57, 0
4, 13896, Note_on_c, 1, 61, 84
4, 13919, Note_on_c, 1, 61, 0
4, 13920, Note_on_c, 1, 52, 84
4, 13943, Note_on_c, 1, 52, 0
4, 13944, Note_on_c, 1, 62, 84
4, 13967, Note_on_c, 1, 62, 0
4, 13968, Note_on_c, 1, 59, 84
4, 13991, Note_on_c, 1, 59, 0
4, 13992, Note_on_c, 1, 62, 84
4, 14015, Note_on_c, 1, 62, 0
4, 14016, Note_on_c, 1, 52, 84
4, 14039, Note_on_c, 1, 52, 0
4, 14040, Note_on_c, 1, 62, 84
4, 14063, Note_on_c, 1, 62, 0
4, 14064, Note_on_c, 1, 59, 84
4, 14087, Note_on_c, 1, 59, 0
4, 14088, Note_on_c, 1, 62, 84
4, 14111, Note_on_c, 1, 62, 0
4, 14112, Note_on_c, 1, 61, 84
4, 14112, Note_on_c, 1, 57, 84
4, 14201, Note_on_c, 1, 61, 0
4, 14201, Note_on_c, 1, 57, 0
4, 14256, Note_on_c, 1, 57, 84
4, 14276, Note_on_c, 1, 57, 0
4, 14304, Note_on_c, 1, 56, 84
4, 14324, Note_on_c, 1, 56, 0
4, 14352, Note_on_c, 1, 52, 84
4, 14372, Note_on_c, 1, 52, 0
4, 14400, Note_on_c, 1, 57, 84
4, 14439, Note_on_c, 1, 57, 0
4, 14544, Note_on_c, 1, 57, 84
4, 14564, Note_on_c, 1, 57, 0
4, 14592, Note_on_c, 1, 59, 84
4, 14612, Note_on_c, 1, 59, 0
4, 14640, Note_on_c, 1, 59, 84
4, 14640, Note_on_c, 1, 52, 84
4, 14660, Note_on_c, 1, 59, 0
4, 14660, Note_on_c, 1, 52, 0
4, 14688, Note_on_c, 1, 57, 84
4, 14688, Note_on_c, 1, 45, 84
4, 14777, Note_on_c, 1, 57, 0
4, 14777, Note_on_c, 1, 45, 0
4, 15024, Note_on_c, 1, 62, 78
4, 15069, Note_on_c, 1, 62, 0
4, 15072, Note_on_c, 1, 66, 79
4, 15117, Note_on_c, 1, 66, 0
4, 15120, Note_on_c, 1, 62, 79
4, 15165, Note_on_c, 1, 62, 0
4, 15168, Note_on_c, 1, 64, 80
4, 15213, Note_on_c, 1, 64, 0
4, 15216, Note_on_c, 1, 61, 80
4, 15261, Note_on_c, 1, 61, 0
4, 15264, Note_on_c, 1, 62, 81
4, 15309, Note_on_c, 1, 62, 0
4, 15312, Note_on_c, 1, 54, 81
4, 15357, Note_on_c, 1, 54, 0
4, 15360, Note_on_c, 1, 55, 82
4, 15405, Note_on_c, 1, 55, 0
4, 15408, Note_on_c, 1, 57, 82
4, 15453, Note_on_c, 1, 57, 0
4, 15456, Note_on_c, 1, 54, 83
4, 15501, Note_on_c, 1, 54, 0
4, 15504, Note_on_c, 1, 66, 83
4, 15549, Note_on_c, 1, 66, 0
4, 15552, Note_on_c, 1, 67, 84
4, 15641, Note_on_c, 1, 67, 0
4, 15648, Note_on_c, 1, 66, 82
4, 15693, Note_on_c, 1, 66, 0
4, 15696, Note_on_c, 1, 62, 81
4, 15741, Note_on_c, 1, 62, 0
4, 15744, Note_on_c, 1, 64, 81
4, 15789, Note_on_c, 1, 64, 0
4, 15792, Note_on_c, 1, 57, 80
4, 15837, Note_on_c, 1, 57, 0
4, 15840, Note_on_c, 1, 62, 79
4, 15929, Note_on_c, 1, 62, 0
4, 15936, Note_on_c, 1, 50, 78
4, 16025, Note_on_c, 1, 50, 0
4, 16176, Note_on_c, 1, 62, 78
4, 16221, Note_on_c, 1, 62, 0
4, 16224, Note_on_c, 1, 66, 78
4, 16269, Note_on_c, 1, 66, 0
4, 16272, Note_on_c, 1, 62, 78
4, 16317, Note_on_c, 1, 62, 0
4, 16320, Note_on_c, 1, 64, 79
4, 16365, Note_on_c, 1, 64, 0
4, 16368, Note_on_c, 1, 57, 79
4, 16413, Note_on_c, 1, 57, 0
4, 16416, Note_on_c, 1, 62, 79
4, 16461, Note_on_c, 1, 62, 0
4, 16464, Note_on_c, 1, 66, 79
4, 16509, Note_on_c, 1, 66, 0
4, 16512, Note_on_c, 1, 67, 80
4, 16557, Note_on_c, 1, 67, 0
4, 16560, Note_on_c, 1, 64, 80
4, 16605, Note_on_c, 1, 64, 0
4, 16608, Note_on_c, 1, 66, 80
4, 16653, Note_on_c, 1, 66, 0
4, 16656, Note_on_c, 1, 62, 81
4, 16701, Note_on_c, 1, 62, 0
4, 16704, Note_on_c, 1, 64, 81
4, 16749, Note_on_c, 1, 64, 0
4, 16752, Note_on_c, 1, 61, 81
4, 16797, Note_on_c, 1, 61, 0
4, 16800, Note_on_c, 1, 66, 81
4, 16845, Note_on_c, 1, 66, 0
4, 16848, Note_on_c, 1, 62, 82
4, 16893, Note_on_c, 1, 62, 0
4, 16896, Note_on_c, 1, 67, 82
4, 16935, Note_on_c, 1, 67, 0
4, 16992, Note_on_c, 1, 67, 82
4, 17007, Note_on_c, 1, 67, 0
4, 17008, Note_on_c, 1, 69, 82
4, 17023, Note_on_c, 1, 69, 0
4, 17024, Note_on_c, 1, 73, 83
4, 17039, Note_on_c, 1, 73, 0
4, 17088, Note_on_c, 1, 66, 83
4, 17127, Note_on_c, 1, 66, 0
4, 17328, Note_on_c, 1, 45, 78
4, 17373, Note_on_c, 1, 45, 0
4, 17376, Note_on_c, 1, 57, 78
4, 17421, Note_on_c, 1, 57, 0
4, 17424, Note_on_c, 1, 61, 78
4, 17469, Note_on_c, 1, 61, 0
4, 17472, Note_on_c, 1, 62, 78
4, 17561, Note_on_c, 1, 62, 0
4, 17616, Note_on_c, 1, 45, 78
4, 17661, Note_on_c, 1, 45, 0
4, 17664, Note_on_c, 1, 57, 78
4, 17709, Note_on_c, 1, 57, 0
4, 17712, Note_on_c, 1, 61, 78
4, 17757, Note_on_c, 1, 61, 0
4, 17760, Note_on_c, 1, 62, 78
4, 17849, Note_on_c, 1, 62, 0
4, 17904, Note_on_c, 1, 45, 78
4, 17949, Note_on_c, 1, 45, 0
4, 17952, Note_on_c, 1, 57, 79
4, 17997, Note_on_c, 1, 57, 0
4, 18000, Note_on_c, 1, 61, 79
4, 18045, Note_on_c, 1, 61, 0
4, 18048, Note_on_c, 1, 62, 80
4, 18137, Note_on_c, 1, 62, 0
4, 18192, Note_on_c, 1, 45, 81
4, 18237, Note_on_c, 1, 45, 0
4, 18240, Note_on_c, 1, 57, 82
4, 18285, Note_on_c, 1, 57, 0
4, 18288, Note_on_c, 1, 61, 82
4, 18333, Note_on_c, 1, 61, 0
4, 18336, Note_on_c, 1, 62, 83
4, 18381, Note_on_c, 1, 62, 0
4, 18384, Note_on_c, 1, 66, 83
4, 18429, Note_on_c, 1, 66, 0
4, 18432, Note_on_c, 1, 67, 84
4, 18521, Note_on_c, 1, 67, 0
4, 18696, Note_on_c, 1, 71, 80
4, 18719, Note_on_c, 1, 71, 0
4, 18720, Note_on_c, 1, 74, 80
4, 18816, Note_on_c, 1, 74, 0
4, 18816, Note_on_c, 1, 73, 79
4, 18905, Note_on_c, 1, 73, 0
4, 19056, Note_on_c, 1, 57, 78
4, 19101, Note_on_c, 1, 57, 0
4, 19104, Note_on_c, 1, 61, 78
4, 19149, Note_on_c, 1, 61, 0
4, 19152, Note_on_c, 1, 57, 78
4, 19197, Note_on_c, 1, 57, 0
4, 19200, Note_on_c, 1, 59, 78
4, 19245, Note_on_c, 1, 59, 0
4, 19248, Note_on_c, 1, 52, 78
4, 19293, Note_on_c, 1, 52, 0
4, 19296, Note_on_c, 1, 57, 78
4, 19385, Note_on_c, 1, 57, 0
4, 19632, Note_on_c, 1, 49, 78
4, 19677, Note_on_c, 1, 49, 0
4, 19680, Note_on_c, 1, 52, 78
4, 19725, Note_on_c, 1, 52, 0
4, 19728, Note_on_c, 1, 49, 78
4, 19773, Note_on_c, 1, 49, 0
4, 19776, Note_on_c, 1, 52, 78
4, 19821, Note_on_c, 1, 52, 0
4, 19824, Note_on_c, 1, 49, 79
4, 19869, Note_on_c, 1, 49, 0
4, 19920, Note_on_c, 1, 50, 79
4, 19965, Note_on_c, 1, 50, 0
4, 19968, Note_on_c, 1, 38, 79
4, 20013, Note_on_c, 1, 38, 0
4, 20016, Note_on_c, 1, 50, 80
4, 20061, Note_on_c, 1, 50, 0
4, 20064, Note_on_c, 1, 49, 80
4, 20109, Note_on_c, 1, 49, 0
4, 20112, Note_on_c, 1, 52, 80
4, 20157, Note_on_c, 1, 52, 0
4, 20160, Note_on_c, 1, 50, 80
4, 20352, Note_on_c, 1, 50, 0
4, 20352, Note_on_c, 1, 51, 81
4, 20441, Note_on_c, 1, 51, 0
4, 20496, Note_on_c, 1, 52, 82
4, 20541, Note_on_c, 1, 52, 0
4, 20544, Note_on_c, 1, 40, 82
4, 20589, Note_on_c, 1, 40, 0
4, 20592, Note_on_c, 1, 44, 82
4, 20637, Note_on_c, 1, 44, 0
4, 20640, Note_on_c, 1, 47, 83
4, 20685, Note_on_c, 1, 47, 0
4, 20688, Note_on_c, 1, 52, 83
4, 20733, Note_on_c, 1, 52, 0
4, 20736, Note_on_c, 1, 40, 83
4, 20825, Note_on_c, 1, 40, 0
4, 20832, Note_on_c, 1, 64, 84
4, 20871, Note_on_c, 1, 64, 0
4, 20928, Note_on_c, 1, 62, 84
4, 20967, Note_on_c, 1, 62, 0
4, 21024, Note_on_c, 1, 61, 84
4, 21063, Note_on_c, 1, 61, 0
4, 21120, Note_on_c, 1, 61, 84
4, 21159, Note_on_c, 1, 61, 0
4, 21216, Note_on_c, 1, 59, 84
4, 21255, Note_on_c, 1, 59, 0
4, 21312, Note_on_c, 1, 57, 84
4, 21401, Note_on_c, 1, 57, 0
4, 21408, Note_on_c, 1, 64, 84
4, 21447, Note_on_c, 1, 64, 0
4, 21504, Note_on_c, 1, 62, 84
4, 21543, Note_on_c, 1, 62, 0
4, 21600, Note_on_c, 1, 60, 84
4, 21639, Note_on_c, 1, 60, 0
4, 21696, Note_on_c, 1, 60, 84
4, 21735, Note_on_c, 1, 60, 0
4, 21792, Note_on_c, 1, 59, 84
4, 21831, Note_on_c, 1, 59, 0
4, 21888, Note_on_c, 1, 57, 84
4, 21977, Note_on_c, 1, 57, 0
4, 21984, Note_on_c, 1, 69, 84
4, 22023, Note_on_c, 1, 69, 0
4, 22080, Note_on_c, 1, 67, 84
4, 22119, Note_on_c, 1, 67, 0
4, 22176, Note_on_c, 1, 66, 84
4, 22215, Note_on_c, 1, 66, 0
4, 22272, Note_on_c, 1, 65, 84
4, 22311, Note_on_c, 1, 65, 0
4, 22368, Note_on_c, 1, 64, 84
4, 22407, Note_on_c, 1, 64, 0
4, 22464, Control_c, 1, 64, 127
4, 22464, Note_on_c, 1, 63, 84
4, 22553, Note_on_c, 1, 63, 0
4, 22560, Note_on_c, 1, 72, 84
4, 22599, Note_on_c, 1, 72, 0
4, 22656, Note_on_c, 1, 63, 84
4, 22745, Note_on_c, 1, 63, 0
4, 22752, Control_c, 1, 64, 0
4, 22752, Control_c, 1, 64, 127
4, 22752, Note_on_c, 1, 64, 84
4, 22841, Note_on_c, 1, 64, 0
4, 22848, Note_on_c, 1, 72, 84
4, 22887, Note_on_c, 1, 72, 0
4, 22944, Note_on_c, 1, 64, 84
4, 23033, Note_on_c, 1, 64, 0
4, 23040, Control_c, 1, 64, 0
4, 23040, Control_c, 1, 64, 127
4, 23040, Note_on_c, 1, 65, 84
4, 23129, Note_on_c, 1, 65, 0
4, 23136, Note_on_c, 1, 72, 84
4, 23175, Note_on_c, 1, 72, 0
4, 23232, Note_on_c, 1, 65, 84
4, 23321, Note_on_c, 1, 65, 0
4, 23328, Control_c, 1, 64, 0
4, 23328, Note_on_c, 1, 64, 84
4, 23417, Note_on_c, 1, 64, 0
4, 23424, Note_on_c, 1, 62, 84
4, 23424, Note_on_c, 1, 50, 84
4, 23513, Note_on_c, 1, 62, 0
4, 23513, Note_on_c, 1, 50, 0
4, 23520, Note_on_c, 1, 61, 84
4, 23520, Note_on_c, 1, 49, 84
4, 23609, Note_on_c, 1, 61, 0
4, 23609, Note_on_c, 1, 49, 0
4, 23616, Note_on_c, 1, 59, 84
4, 23616, Note_on_c, 1, 47, 84
4, 23705, Note_on_c, 1, 59, 0
4, 23705, Note_on_c, 1, 47, 0
4, 23712, Note_on_c, 1, 56, 84
4, 23712, Note_on_c, 1, 44, 84
4, 23801, Note_on_c, 1, 56, 0
4, 23801, Note_on_c, 1, 44, 0
4, 23808, Note_on_c, 1, 57, 84
4, 23808, Note_on_c, 1, 45, 84
4, 23897, Note_on_c, 1, 57, 0
4, 23897, Note_on_c, 1, 45, 0
4, 23904, Note_on_c, 1, 62, 84
4, 23904, Note_on_c, 1, 50, 84
4, 23993, Note_on_c, 1, 62, 0
4, 23993, Note_on_c, 1, 50, 0
4, 24288, Note_on_c, 1, 61, 76
4, 24288, Note_on_c, 1, 52, 76
4, 24377, Note_on_c, 1, 61, 0
4, 24377, Note_on_c, 1, 52, 0
4, 24384, Note_on_c, 1, 59, 74
4, 24384, Note_on_c, 1, 52, 74
4, 24473, Note_on_c, 1, 59, 0
4, 24473, Note_on_c, 1, 52, 0
4, 24480, Note_on_c, 1, 57, 72
4, 24480, Note_on_c, 1, 45, 72
4, 24569, Note_on_c, 1, 57, 0
4, 24569, Note_on_c, 1, 45, 0
4, 24624, Note_on_c, 1, 61, 64
4, 24669, Note_on_c, 1, 61, 0
4, 24672, Note_on_c, 1, 62, 64
4, 24717, Note_on_c, 1, 62, 0
4, 24720, Note_on_c, 1, 59, 64
4, 24765, Note_on_c, 1, 59, 0
4, 24768, Note_on_c, 1, 61, 64
4, 24813, Note_on_c, 1, 61, 0
4, 24816, Note_on_c, 1, 57, 64
4, 24861, Note_on_c, 1, 57, 0
4, 24864, Note_on_c, 1, 59, 64
4, 24909, Note_on_c, 1, 59, 0
4, 24912, Note_on_c, 1, 52, 64
4, 24957, Note_on_c, 1, 52, 0
4, 24960, Note_on_c, 1, 57, 64
4, 25005, Note_on_c, 1, 57, 0
4, 25008, Note_on_c, 1, 61, 64
4, 25053, Note_on_c, 1, 61, 0
4, 25056, Note_on_c, 1, 62, 64
4, 25101, Note_on_c, 1, 62, 0
4, 25104, Note_on_c, 1, 59, 64
4, 25149, Note_on_c, 1, 59, 0
4, 25152, Note_on_c, 1, 61, 64
4, 25197, Note_on_c, 1, 61, 0
4, 25200, Note_on_c, 1, 64, 64
4, 25245, Note_on_c, 1, 64, 0
4, 25248, Note_on_c, 1, 66, 64
4, 25293, Note_on_c, 1, 66, 0
4, 25296, Note_on_c, 1, 62, 64
4, 25341, Note_on_c, 1, 62, 0
4, 25344, Note_on_c, 1, 64, 64
4, 25389, Note_on_c, 1, 64, 0
4, 25392, Note_on_c, 1, 61, 66
4, 25437, Note_on_c, 1, 61, 0
4, 25440, Note_on_c, 1, 62, 68
4, 25485, Note_on_c, 1, 62, 0
4, 25488, Note_on_c, 1, 71, 70
4, 25533, Note_on_c, 1, 71, 0
4, 25536, Note_on_c, 1, 61, 72
4, 25581, Note_on_c, 1, 61, 0
4, 25584, Note_on_c, 1, 69, 74
4, 25629, Note_on_c, 1, 69, 0
4, 25632, Note_on_c, 1, 59, 76
4, 25677, Note_on_c, 1, 59, 0
4, 25680, Note_on_c, 1, 68, 78
4, 25725, Note_on_c, 1, 68, 0
4, 25728, Note_on_c, 1, 57, 80
4, 25817, Note_on_c, 1, 57, 0
4, 26208, Control_c, 1, 64, 127
4, 26208, Note_on_c, 1, 51, 100
4, 26208, Note_on_c, 1, 39, 100
4, 26304, Note_on_c, 1, 51, 0
4, 26304, Note_on_c, 1, 39, 0
4, 26304, Note_on_c, 1, 63, 84
4, 26343, Note_on_c, 1, 63, 0
4, 26400, Note_on_c, 1, 69, 84
4, 26439, Note_on_c, 1, 69, 0
4, 26496, Control_c, 1, 64, 0
4, 26496, Control_c, 1, 64, 127
4, 26496, Note_on_c, 1, 52, 100
4, 26496, Note_on_c, 1, 40, 100
4, 26592, Note_on_c, 1, 52, 0
4, 26592, Note_on_c, 1, 40, 0
4, 26592, Note_on_c, 1, 64, 84
4, 26631, Note_on_c, 1, 64, 0
4, 26688, Note_on_c, 1, 69, 84
4, 26727, Note_on_c, 1, 69, 0
4, 26784, Control_c, 1, 64, 0
4, 26784, Control_c, 1, 64, 127
4, 26784, Note_on_c, 1, 53, 100
4, 26784, Note_on_c, 1, 41, 100
4, 26880, Note_on_c, 1, 53, 0
4, 26880, Note_on_c, 1, 41, 0
4, 26880, Note_on_c, 1, 65, 84
4, 26969, Note_on_c, 1, 65, 0
4, 26976, Note_on_c, 1, 65, 84
4, 27065, Note_on_c, 1, 65, 0
4, 27072, Control_c, 1, 64, 0
4, 27072, Note_on_c, 1, 65, 84
4, 27161, Note_on_c, 1, 65, 0
4, 27168, Note_on_c, 1, 65, 84
4, 27257, Note_on_c, 1, 65, 0
4, 27264, Note_on_c, 1, 65, 84
4, 27353, Note_on_c, 1, 65, 0
4, 27360, Note_on_c, 1, 64, 84
4, 27449, Note_on_c, 1, 64, 0
4, 27456, Note_on_c, 1, 68, 84
4, 27545, Note_on_c, 1, 68, 0
4, 27552, Note_on_c, 1, 69, 84
4, 27641, Note_on_c, 1, 69, 0
4, 27648, Note_on_c, 1, 62, 84
4, 27648, Note_on_c, 1, 50, 84
4, 27737, Note_on_c, 1, 62, 0
4, 27737, Note_on_c, 1, 50, 0
4, 27744, Note_on_c, 1, 61, 82
4, 27744, Note_on_c, 1, 52, 82
4, 27833, Note_on_c, 1, 61, 0
4, 27833, Note_on_c, 1, 52, 0
4, 27840, Note_on_c, 1, 59, 80
4, 27840, Note_on_c, 1, 52, 80
4, 27929, Note_on_c, 1, 59, 0
4, 27929, Note_on_c, 1, 52, 0
4, 27936, Note_on_c, 1, 49, 84
4, 27959, Note_on_c, 1, 49, 0
4, 27960, Note_on_c, 1, 57, 84
4, 27983, Note_on_c, 1, 57, 0
4, 27984, Note_on_c, 1, 56, 84
4, 28007, Note_on_c, 1, 56, 0
4, 28008, Note_on_c, 1, 57, 84
4, 28031, Note_on_c, 1, 57, 0
4, 28032, Note_on_c, 1, 49, 84
4, 28055, Note_on_c, 1, 49, 0
4, 28056, Note_on_c, 1, 57, 84
4, 28079, Note_on_c, 1, 57, 0
4, 28080, Note_on_c, 1, 56, 84
4, 28103, Note_on_c, 1, 56, 0
4, 28104, Note_on_c, 1, 57, 84
4, 28127, Note_on_c, 1, 57, 0
4, 28128, Note_on_c, 1, 49, 84
4, 28151, Note_on_c, 1, 49, 0
4, 28152, Note_on_c, 1, 57, 84
4, 28175, Note_on_c, 1, 57, 0
4, 28176, Note_on_c, 1, 56, 84
4, 28199, Note_on_c, 1, 56, 0
4, 28200, Note_on_c, 1, 57, 84
4, 28223, Note_on_c, 1, 57, 0
4, 28224, Note_on_c, 1, 50, 84
4, 28247, Note_on_c, 1, 50, 0
4, 28248, Note_on_c, 1, 57, 84
4, 28271, Note_on_c, 1, 57, 0
4, 28272, Note_on_c, 1, 56, 84
4, 28295, Note_on_c, 1, 56, 0
4, 28296, Note_on_c, 1, 57, 84
4, 28319, Note_on_c, 1, 57, 0
4, 28320, Note_on_c, 1, 50, 84
4, 28343, Note_on_c, 1, 50, 0
4, 28344, Note_on_c, 1, 59, 84
4, 28367, Note_on_c, 1, 59, 0
4, 28368, Note_on_c, 1, 58, 84
4, 28391, Note_on_c, 1, 58, 0
4, 28392, Note_on_c, 1, 59, 84
4, 28415, Note_on_c, 1, 59, 0
4, 28416, Note_on_c, 1, 50, 84
4, 28439, Note_on_c, 1, 50, 0
4, 28440, Note_on_c, 1, 59, 84
4, 28463, Note_on_c, 1, 59, 0
4, 28464, Note_on_c, 1, 58, 84
4, 28487, Note_on_c, 1, 58, 0
4, 28488, Note_on_c, 1, 59, 84
4, 28511, Note_on_c, 1, 59, 0
4, 28512, Note_on_c, 1, 52, 84
4, 28535, Note_on_c, 1, 52, 0
4, 28536, Note_on_c, 1, 61, 84
4, 28559, Note_on_c, 1, 61, 0
4, 28560, Note_on_c, 1, 57, 84
4, 28583, Note_on_c, 1, 57, 0
4, 28584, Note_on_c, 1, 61, 84
4, 28607, Note_on_c, 1, 61, 0
4, 28608, Note_on_c, 1, 52, 84
4, 28631, Note_on_c, 1, 52, 0
4, 28632, Note_on_c, 1, 62, 84
4, 28655, Note_on_c, 1, 62, 0
4, 28656, Note_on_c, 1, 59, 84
4, 28679, Note_on_c, 1, 59, 0
4, 28680, Note_on_c, 1, 62, 84
4, 28703, Note_on_c, 1, 62, 0
4, 28704, Note_on_c, 1, 52, 84
4, 28727, Note_on_c, 1, 52, 0
4, 28728, Note_on_c, 1, 62, 84
4, 28751, Note_on_c, 1, 62, 0
4, 28752, Note_on_c, 1, 59, 84
4, 28775, Note_on_c, 1, 59, 0
4, 28776, Note_on_c, 1, 62, 84
4, 28799, Note_on_c, 1, 62, 0
4, 28800, Note_on_c, 1, 61, 84
4, 28800, Note_on_c, 1, 57, 84
4, 28889, Note_on_c, 1, 61, 0
4, 28889, Note_on_c, 1, 57, 0
4, 28944, Note_on_c, 1, 57, 84
4, 28964, Note_on_c, 1, 57, 0
4, 28992, Note_on_c, 1, 56, 84
4, 29012, Note_on_c, 1, 56, 0
4, 29040, Note_on_c, 1, 52, 84
4, 29060, Note_on_c, 1, 52, 0
4, 29088, Note_on_c, 1, 57, 84
4, 29127, Note_on_c, 1, 57, 0
4, 29232, Note_on_c, 1, 57, 84
4, 29252, Note_on_c, 1, 57, 0
4, 29280, Note_on_c, 1, 59, 84
4, 29300, Note_on_c, 1, 59, 0
4, 29328, Note_on_c, 1, 59, 84
4, 29328, Note_on_c, 1, 52, 84
4, 29348, Note_on_c, 1, 59, 0
4, 29348, Note_on_c, 1, 52, 0
4, 29376, Note_on_c, 1, 57, 84
4, 29376, Note_on_c, 1, 45, 84
4, 29465, Note_on_c, 1, 57, 0
4, 29465, Note_on_c, 1, 45, 0
4, 29712, Note_on_c, 1, 61, 78
4, 29757, Note_on_c, 1, 61, 0
4, 29760, Note_on_c, 1, 64, 79
4, 29805, Note_on_c, 1, 64, 0
4, 29808, Note_on_c, 1, 61, 80
4, 29853, Note_on_c, 1, 61, 0
4, 29856, Note_on_c, 1, 62, 81
4, 29901, Note_on_c, 1, 62, 0
4, 29904, Note_on_c, 1, 66, 82
4, 29949, Note_on_c, 1, 66, 0
4, 29952, Note_on_c, 1, 67, 84
4, 30093, Note_on_c, 1, 67, 0
4, 30096, Note_on_c, 1, 64, 81
4, 30141, Note_on_c, 1, 64, 0
4, 30144, Note_on_c, 1, 66, 80
4, 30189, Note_on_c, 1, 66, 0
4, 30192, Note_on_c, 1, 62, 79
4, 30237, Note_on_c, 1, 62, 0
4, 30240, Note_on_c, 1, 61, 78
4, 30285, Note_on_c, 1, 61, 0
4, 30288, Note_on_c, 1, 57, 79
4, 30333, Note_on_c, 1, 57, 0
4, 30336, Note_on_c, 1, 64, 80
4, 30381, Note_on_c, 1, 64, 0
4, 30384, Note_on_c, 1, 61, 81
4, 30429, Note_on_c, 1, 61, 0
4, 30432, Note_on_c, 1, 62, 82
4, 30477, Note_on_c, 1, 62, 0
4, 30480, Note_on_c, 1, 66, 83
4, 30525, Note_on_c, 1, 66, 0
4, 30528, Note_on_c, 1, 67, 84
4, 30669, Note_on_c, 1, 67, 0
4, 30672, Note_on_c, 1, 64, 81
4, 30717, Note_on_c, 1, 64, 0
4, 30720, Note_on_c, 1, 66, 80
4, 30809, Note_on_c, 1, 66, 0
4, 30864, Note_on_c, 1, 66, 78
4, 30909, Note_on_c, 1, 66, 0
4, 30912, Note_on_c, 1, 69, 79
4, 30957, Note_on_c, 1, 69, 0
4, 30960, Note_on_c, 1, 66, 80
4, 31005, Note_on_c, 1, 66, 0
4, 31008, Note_on_c, 1, 67, 81
4, 31053, Note_on_c, 1, 67, 0
4, 31056, Note_on_c, 1, 71, 82
4, 31101, Note_on_c, 1, 71, 0
4, 31104, Note_on_c, 1, 72, 84
4, 31245, Note_on_c, 1, 72, 0
4, 31248, Note_on_c, 1, 69, 81
4, 31293, Note_on_c, 1, 69, 0
4, 31296, Note_on_c, 1, 71, 80
4, 31341, Note_on_c, 1, 71, 0
4, 31344, Note_on_c, 1, 67, 79
4, 31389, Note_on_c, 1, 67, 0
4, 31392, Note_on_c, 1, 66, 78
4, 31437, Note_on_c, 1, 66, 0
4, 31440, Note_on_c, 1, 62, 79
4, 31485, Note_on_c, 1, 62, 0
4, 31488, Note_on_c, 1, 69, 80
4, 31533, Note_on_c, 1, 69, 0
4, 31536, Note_on_c, 1, 66, 81
4, 31581, Note_on_c, 1, 66, 0
4, 31584, Note_on_c, 1, 67, 82
4, 31629, Note_on_c, 1, 67, 0
4, 31632, Note_on_c, 1, 71, 83
4, 31677, Note_on_c, 1, 71, 0
4, 31680, Note_on_c, 1, 72, 84
4, 31821, Note_on_c, 1, 72, 0
4, 31824, Note_on_c, 1, 69, 81
4, 31869, Note_on_c, 1, 69, 0
4, 31872, Note_on_c, 1, 71, 80
4, 31917, Note_on_c, 1, 71, 0
4, 31920, Note_on_c, 1, 67, 79
4, 31965, Note_on_c, 1, 67, 0
4, 31968, Note_on_c, 1, 69, 78
4, 32013, Note_on_c, 1, 69, 0
4, 32016, Note_on_c, 1, 66, 78
4, 32061, Note_on_c, 1, 66, 0
4, 32064, Note_on_c, 1, 67, 78
4, 32153, Note_on_c, 1, 67, 0
4, 32160, Note_on_c, 1, 72, 78
4, 32249, Note_on_c, 1, 72, 0
4, 32256, Note_on_c, 1, 71, 78
4, 32345, Note_on_c, 1, 71, 0
4, 32832, Note_on_c, 1, 59, 100
4, 32871, Note_on_c, 1, 59, 0
4, 32928, Note_on_c, 1, 71, 84
4, 32967, Note_on_c, 1, 71, 0
4, 33024, Note_on_c, 1, 69, 84
4, 33063, Note_on_c, 1, 69, 0
4, 33120, Note_on_c, 1, 55, 100
4, 33216, Note_on_c, 1, 55, 0
4, 33216, Note_on_c, 1, 67, 84
4, 33255, Note_on_c, 1, 67, 0
4, 33312, Note_on_c, 1, 66, 84
4, 33351, Note_on_c, 1, 66, 0
4, 33408, Note_on_c, 1, 52, 100
4, 33504, Note_on_c, 1, 52, 0
4, 33504, Note_on_c, 1, 64, 84
4, 33543, Note_on_c, 1, 64, 0
4, 33600, Note_on_c, 1, 62, 84
4, 33639, Note_on_c, 1, 62, 0
4, 33696, Control_c, 1, 64, 127
4, 33696, Note_on_c, 1, 61, 100
4, 33792, Note_on_c, 1, 61, 0
4, 33792, Note_on_c, 1, 68, 84
4, 33831, Note_on_c, 1, 68, 0
4, 33888, Note_on_c, 1, 71, 84
4, 33927, Note_on_c, 1, 71, 0
4, 33984, Control_c, 1, 64, 0
4, 33984, Control_c, 1, 64, 127
4, 33984, Note_on_c, 1, 54, 100
4, 34080, Note_on_c, 1, 54, 0
4, 34080, Note_on_c, 1, 66, 84
4, 34119, Note_on_c, 1, 66, 0
4, 34176, Note_on_c, 1, 70, 84
4, 34215, Note_on_c, 1, 70, 0
4, 34272, Control_c, 1, 64, 0
4, 34272, Control_c, 1, 64, 127
4, 34272, Note_on_c, 1, 59, 84
4, 34311, Note_on_c, 1, 59, 0
4, 34368, Note_on_c, 1, 62, 84
4, 34407, Note_on_c, 1, 62, 0
4, 34464, Note_on_c, 1, 66, 84
4, 34503, Note_on_c, 1, 66, 0
4, 34560, Control_c, 1, 64, 0
4, 34560, Control_c, 1, 64, 127
4, 34560, Note_on_c, 1, 59, 84
4, 34599, Note_on_c, 1, 59, 0
4, 34656, Note_on_c, 1, 62, 84
4, 34695, Note_on_c, 1, 62, 0
4, 34752, Note_on_c, 1, 71, 84
4, 34791, Note_on_c, 1, 71, 0
4, 34848, Control_c, 1, 64, 0
4, 34848, Control_c, 1, 64, 127
4, 34848, Note_on_c, 1, 57, 84
4, 34887, Note_on_c, 1, 57, 0
4, 34944, Note_on_c, 1, 64, 84
4, 34983, Note_on_c, 1, 64, 0
4, 35040, Note_on_c, 1, 69, 84
4, 35079, Note_on_c, 1, 69, 0
4, 35136, Control_c, 1, 64, 0
4, 35136, Control_c, 1, 64, 127
4, 35136, Note_on_c, 1, 50, 100
4, 35232, Note_on_c, 1, 50, 0
4, 35232, Note_on_c, 1, 62, 84
4, 35271, Note_on_c, 1, 62, 0
4, 35328, Note_on_c, 1, 66, 84
4, 35367, Note_on_c, 1, 66, 0
4, 35424, Control_c, 1, 64, 0
4, 35424, Note_on_c, 1, 55, 100
4, 35520, Note_on_c, 1, 55, 0
4, 35520, Note_on_c, 1, 67, 84
4, 35559, Note_on_c, 1, 67, 0
4, 35616, Note_on_c, 1, 66, 84
4, 35655, Note_on_c, 1, 66, 0
4, 35712, Note_on_c, 1, 52, 100
4, 35808, Note_on_c, 1, 52, 0
4, 35808, Note_on_c, 1, 64, 84
4, 35902, Note_on_c, 1, 64, 0
4, 35904, Note_on_c, 1, 62, 84
4, 35998, Note_on_c, 1, 62, 0
4, 36000, Note_on_c, 1, 61, 84
4, 36000, Note_on_c, 1, 49, 84
4, 36089, Note_on_c, 1, 61, 0
4, 36089, Note_on_c, 1, 49, 0
4, 36096, Note_on_c, 1, 62, 84
4, 36096, Note_on_c, 1, 50, 84
4, 36185, Note_on_c, 1, 62, 0
4, 36185, Note_on_c, 1, 50, 0
4, 36192, Note_on_c, 1, 58, 85
4, 36192, Note_on_c, 1, 46, 85
4, 36281, Note_on_c, 1, 58, 0
4, 36281, Note_on_c, 1, 46, 0
4, 36288, Note_on_c, 1, 59, 86
4, 36288, Note_on_c, 1, 47, 86
4, 36377, Note_on_c, 1, 59, 0
4, 36377, Note_on_c, 1, 47, 0
4, 36384, Note_on_c, 1, 55, 87
4, 36384, Note_on_c, 1, 43, 87
4, 36473, Note_on_c, 1, 55, 0
4, 36473, Note_on_c, 1, 43, 0
4, 36480, Note_on_c, 1, 53, 88
4, 36480, Note_on_c, 1, 41, 88
4, 36569, Note_on_c, 1, 53, 0
4, 36569, Note_on_c, 1, 41, 0
4, 36576, Control_c, 1, 64, 127
4, 36576, Note_on_c, 1, 54, 89
4, 36576, Note_on_c, 1, 42, 89
4, 36665, Note_on_c, 1, 54, 0
4, 36665, Note_on_c, 1, 42, 0
4, 36864, Control_c, 1, 64, 0
4, 36864, Note_on_c, 1, 42, 89
4, 36953, Note_on_c, 1, 42, 0
4, 37200, Note_on_c, 1, 42, 64
4, 37245, Note_on_c, 1, 42, 0
4, 37248, Note_on_c, 1, 54, 64
4, 37293, Note_on_c, 1, 54, 0
4, 37296, Note_on_c, 1, 58, 65
4, 37341, Note_on_c, 1, 58, 0
4, 37344, Note_on_c, 1, 59, 65
4, 37433, Note_on_c, 1, 59, 0
4, 37488, Note_on_c, 1, 42, 67
4, 37533, Note_on_c, 1, 42, 0
4, 37536, Note_on_c, 1, 54, 67
4, 37581, Note_on_c, 1, 54, 0
4, 37584, Note_on_c, 1, 58, 68
4, 37629, Note_on_c, 1, 58, 0
4, 37632, Note_on_c, 1, 59, 68
4, 37721, Note_on_c, 1, 59, 0
4, 37776, Note_on_c, 1, 42, 69
4, 37821, Note_on_c, 1, 42, 0
4, 37824, Note_on_c, 1, 54, 70
4, 37869, Note_on_c, 1, 54, 0
4, 37872, Note_on_c, 1, 58, 70
4, 37917, Note_on_c, 1, 58, 0
4, 37920, Note_on_c, 1, 59, 71
4, 37965, Note_on_c, 1, 59, 0
4, 37968, Note_on_c, 1, 62, 71
4, 38013, Note_on_c, 1, 62, 0
4, 38064, Note_on_c, 1, 52, 72
4, 38109, Note_on_c, 1, 52, 0
4, 38112, Note_on_c, 1, 64, 72
4, 38157, Note_on_c, 1, 64, 0
4, 38160, Note_on_c, 1, 67, 73
4, 38205, Note_on_c, 1, 67, 0
4, 38208, Note_on_c, 1, 69, 73
4, 38297, Note_on_c, 1, 69, 0
4, 38352, Note_on_c, 1, 50, 75
4, 38397, Note_on_c, 1, 50, 0
4, 38400, Note_on_c, 1, 62, 75
4, 38445, Note_on_c, 1, 62, 0
4, 38448, Note_on_c, 1, 66, 76
4, 38493, Note_on_c, 1, 66, 0
4, 38496, Note_on_c, 1, 67, 76
4, 38585, Note_on_c, 1, 67, 0
4, 38640, Note_on_c, 1, 49, 77
4, 38685, Note_on_c, 1, 49, 0
4, 38688, Note_on_c, 1, 61, 78
4, 38733, Note_on_c, 1, 61, 0
4, 38736, Note_on_c, 1, 64, 78
4, 38781, Note_on_c, 1, 64, 0
4, 38784, Note_on_c, 1, 66, 79
4, 38873, Note_on_c, 1, 66, 0
4, 38928, Note_on_c, 1, 59, 80
4, 38973, Note_on_c, 1, 59, 0
4, 38976, Note_on_c, 1, 47, 80
4, 39021, Note_on_c, 1, 47, 0
4, 39024, Note_on_c, 1, 59, 81
4, 39069, Note_on_c, 1, 59, 0
4, 39072, Note_on_c, 1, 45, 81
4, 39117, Note_on_c, 1, 45, 0
4, 39120, Note_on_c, 1, 57, 82
4, 39165, Note_on_c, 1, 57, 0
4, 39216, Note_on_c, 1, 55, 83
4, 39261, Note_on_c, 1, 55, 0
4, 39264, Note_on_c, 1, 43, 83
4, 39309, Note_on_c, 1, 43, 0
4, 39312, Note_on_c, 1, 55, 84
4, 39357, Note_on_c, 1, 55, 0
4, 39360, Note_on_c, 1, 42, 84
4, 39405, Note_on_c, 1, 42, 0
4, 39408, Note_on_c, 1, 54, 84
4, 39453, Note_on_c, 1, 54, 0
4, 39456, Note_on_c, 1, 53, 84
4, 39456, Note_on_c, 1, 41, 84
4, 39545, Note_on_c, 1, 53, 0
4, 39545, Note_on_c, 1, 41, 0
4, 39744, Note_on_c, 1, 54, 84
4, 39744, Note_on_c, 1, 42, 84
4, 39833, Note_on_c, 1, 54, 0
4, 39833, Note_on_c, 1, 42, 0
4, 40032, Note_on_c, 1, 47, 100
4, 40032, Note_on_c, 1, 35, 100
4, 40128, Note_on_c, 1, 47, 0
4, 40128, Note_on_c, 1, 35, 0
4, 40128, Note_on_c, 1, 59, 84
4, 40217, Note_on_c, 1, 59, 0
4, 40320, Note_on_c, 1, 43, 102
4, 40320, Note_on_c, 1, 31, 102
4, 40416, Note_on_c, 1, 43, 0
4, 40416, Note_on_c, 1, 31, 0
4, 40416, Note_on_c, 1, 55, 86
4, 40505, Note_on_c, 1, 55, 0
4, 40608, Note_on_c, 1, 41, 104
4, 40608, Note_on_c, 1, 29, 104
4, 40704, Note_on_c, 1, 41, 0
4, 40704, Note_on_c, 1, 29, 0
4, 40704, Note_on_c, 1, 53, 89
4, 40793, Note_on_c, 1, 53, 0
4, 40896, Note_on_c, 1, 42, 89
4, 40896, Note_on_c, 1, 30, 89
4, 40985, Note_on_c, 1, 42, 0
4, 40985, Note_on_c, 1, 30, 0
4, 41184, Note_on_c, 1, 47, 89
4, 41184, Note_on_c, 1, 35, 89
4, 41273, Note_on_c, 1, 47, 0
4, 41273, Note_on_c, 1, 35, 0
4, 41280, Note_on_c, 1, 59, 64
4, 41280, Note_on_c, 1, 47, 64
4, 41369, Note_on_c, 1, 59, 0
4, 41369, Note_on_c, 1, 47, 0
4, 41520, Note_on_c, 1, 62, 64
4, 41520, Note_on_c, 1, 59, 64
4, 41565, Note_on_c, 1, 62, 0
4, 41565, Note_on_c, 1, 59, 0
4, 41568, Note_on_c, 1, 64, 64
4, 41568, Note_on_c, 1, 61, 64
4, 41613, Note_on_c, 1, 64, 0
4, 41613, Note_on_c, 1, 61, 0
4, 41616, Note_on_c, 1, 61, 64
4, 41616, Note_on_c, 1, 58, 64
4, 41661, Note_on_c, 1, 61, 0
4, 41661, Note_on_c, 1, 58, 0
4, 41664, Note_on_c, 1, 62, 64
4, 41664, Note_on_c, 1, 59, 64
4, 41703, Note_on_c, 1, 62, 0
4, 41703, Note_on_c, 1, 59, 0
4, 41904, Note_on_c, 1, 67, 64
4, 41904, Note_on_c, 1, 64, 64
4, 41949, Note_on_c, 1, 67, 0
4, 41949, Note_on_c, 1, 64, 0
4, 41952, Note_on_c, 1, 69, 64
4, 41952, Note_on_c, 1, 66, 64
4, 41997, Note_on_c, 1, 69, 0
4, 41997, Note_on_c, 1, 66, 0
4, 42000, Note_on_c, 1, 66, 64
4, 42000, Note_on_c, 1, 63, 64
4, 42045, Note_on_c, 1, 66, 0
4, 42045, Note_on_c, 1, 63, 0
4, 42048, Note_on_c, 1, 67, 64
4, 42048, Note_on_c, 1, 64, 64
4, 42087, Note_on_c, 1, 67, 0
4, 42087, Note_on_c, 1, 64, 0
4, 42384, Note_on_c, 1, 64, 64
4, 42384, Note_on_c, 1, 61, 64
4, 42429, Note_on_c, 1, 64, 0
4, 42429, Note_on_c, 1, 61, 0
4, 42432, Note_on_c, 1, 67, 64
4, 42432, Note_on_c, 1, 64, 64
4, 42477, Note_on_c, 1, 67, 0
4, 42477, Note_on_c, 1, 64, 0
4, 42480, Note_on_c, 1, 66, 64
4, 42480, Note_on_c, 1, 62, 64
4, 42525, Note_on_c, 1, 66, 0
4, 42525, Note_on_c, 1, 62, 0
4, 42528, Note_on_c, 1, 64, 64
4, 42528, Note_on_c, 1, 61, 64
4, 42573, Note_on_c, 1, 64, 0
4, 42573, Note_on_c, 1, 61, 0
4, 42576, Note_on_c, 1, 62, 64
4, 42576, Note_on_c, 1, 59, 64
4, 42621, Note_on_c, 1, 62, 0
4, 42621, Note_on_c, 1, 59, 0
4, 42624, Note_on_c, 1, 61, 64
4, 42624, Note_on_c, 1, 57, 64
4, 42765, Note_on_c, 1, 61, 0
4, 42765, Note_on_c, 1, 57, 0
4, 42768, Note_on_c, 1, 62, 66
4, 42768, Note_on_c, 1, 59, 66
4, 42813, Note_on_c, 1, 62, 0
4, 42813, Note_on_c, 1, 59, 0
4, 42816, Note_on_c, 1, 64, 68
4, 42816, Note_on_c, 1, 61, 68
4, 42861, Note_on_c, 1, 64, 0
4, 42861, Note_on_c, 1, 61, 0
4, 42864, Note_on_c, 1, 66, 70
4, 42864, Note_on_c, 1, 62, 70
4, 42909, Note_on_c, 1, 66, 0
4, 42909, Note_on_c, 1, 62, 0
4, 42912, Note_on_c, 1, 67, 72
4, 42912, Note_on_c, 1, 64, 72
4, 43333, Note_on_c, 1, 67, 0
4, 43333, Note_on_c, 1, 64, 0
4, 43536, Note_on_c, 1, 62, 78
4, 43581, Note_on_c, 1, 62, 0
4, 43584, Note_on_c, 1, 66, 78
4, 43629, Note_on_c, 1, 66, 0
4, 43632, Note_on_c, 1, 62, 78
4, 43677, Note_on_c, 1, 62, 0
4, 43680, Note_on_c, 1, 64, 78
4, 43725, Note_on_c, 1, 64, 0
4, 43728, Note_on_c, 1, 61, 78
4, 43773, Note_on_c, 1, 61, 0
4, 43776, Note_on_c, 1, 62, 78
4, 43821, Note_on_c, 1, 62, 0
4, 43824, Note_on_c, 1, 54, 79
4, 43869, Note_on_c, 1, 54, 0
4, 43872, Note_on_c, 1, 55, 80
4, 43917, Note_on_c, 1, 55, 0
4, 43920, Note_on_c, 1, 57, 81
4, 43965, Note_on_c, 1, 57, 0
4, 43968, Note_on_c, 1, 54, 82
4, 44013, Note_on_c, 1, 54, 0
4, 44016, Note_on_c, 1, 66, 83
4, 44061, Note_on_c, 1, 66, 0
4, 44064, Note_on_c, 1, 67, 84
4, 44153, Note_on_c, 1, 67, 0
4, 44160, Note_on_c, 1, 66, 82
4, 44205, Note_on_c, 1, 66, 0
4, 44208, Note_on_c, 1, 62, 81
4, 44253, Note_on_c, 1, 62, 0
4, 44256, Note_on_c, 1, 64, 80
4, 44301, Note_on_c, 1, 64, 0
4, 44304, Note_on_c, 1, 57, 79
4, 44349, Note_on_c, 1, 57, 0
4, 44352, Note_on_c, 1, 62, 78
4, 44441, Note_on_c, 1, 62, 0
4, 44448, Note_on_c, 1, 50, 78
4, 44537, Note_on_c, 1, 50, 0
4, 44688, Note_on_c, 1, 62, 78
4, 44733, Note_on_c, 1, 62, 0
4, 44736, Note_on_c, 1, 66, 78
4, 44781, Note_on_c, 1, 66, 0
4, 44784, Note_on_c, 1, 62, 78
4, 44829, Note_on_c, 1, 62, 0
4, 44832, Note_on_c, 1, 64, 79
4, 44877, Note_on_c, 1, 64, 0
4, 44880, Note_on_c, 1, 57, 79
4, 44925, Note_on_c, 1, 57, 0
4, 44928, Note_on_c, 1, 62, 79
4, 44973, Note_on_c, 1, 62, 0
4, 44976, Note_on_c, 1, 66, 79
4, 45021, Note_on_c, 1, 66, 0
4, 45024, Note_on_c, 1, 67, 80
4, 45069, Note_on_c, 1, 67, 0
4, 45072, Note_on_c, 1, 64, 80
4, 45117, Note_on_c, 1, 64, 0
4, 45120, Note_on_c, 1, 66, 80
4, 45165, Note_on_c, 1, 66, 0
4, 45168, Note_on_c, 1, 62, 81
4, 45213, Note_on_c, 1, 62, 0
4, 45216, Note_on_c, 1, 64, 81
4, 45261, Note_on_c, 1, 64, 0
4, 45264, Note_on_c, 1, 61, 81
4, 45309, Note_on_c, 1, 61, 0
4, 45312, Note_on_c, 1, 66, 81
4, 45357, Note_on_c, 1, 66, 0
4, 45360, Note_on_c, 1, 62, 82
4, 45405, Note_on_c, 1, 62, 0
4, 45408, Note_on_c, 1, 67, 82
4, 45447, Note_on_c, 1, 67, 0
4, 45504, Note_on_c, 1, 67, 82
4, 45519, Note_on_c, 1, 67, 0
4, 45520, Note_on_c, 1, 69, 82
4, 45535, Note_on_c, 1, 69, 0
4, 45536, Note_on_c, 1, 73, 83
4, 45551, Note_on_c, 1, 73, 0
4, 45600, Note_on_c, 1, 66, 83
4, 45639, Note_on_c, 1, 66, 0
4, 45840, Note_on_c, 1, 45, 78
4, 45885, Note_on_c, 1, 45, 0
4, 45888, Note_on_c, 1, 57, 78
4, 45933, Note_on_c, 1, 57, 0
4, 45936, Note_on_c, 1, 61, 78
4, 45981, Note_on_c, 1, 61, 0
4, 45984, Note_on_c, 1, 62, 78
4, 46073, Note_on_c, 1, 62, 0
4, 46128, Note_on_c, 1, 45, 78
4, 46173, Note_on_c, 1, 45, 0
4, 46176, Note_on_c, 1, 57, 78
4, 46221, Note_on_c, 1, 57, 0
4, 46224, Note_on_c, 1, 61, 78
4, 46269, Note_on_c, 1, 61, 0
4, 46272, Note_on_c, 1, 62, 78
4, 46361, Note_on_c, 1, 62, 0
4, 46416, Note_on_c, 1, 45, 78
4, 46461, Note_on_c, 1, 45, 0
4, 46464, Note_on_c, 1, 57, 78
4, 46509, Note_on_c, 1, 57, 0
4, 46512, Note_on_c, 1, 61, 78
4, 46557, Note_on_c, 1, 61, 0
4, 46560, Note_on_c, 1, 62, 78
4, 46649, Note_on_c, 1, 62, 0
4, 46704, Note_on_c, 1, 45, 78
4, 46749, Note_on_c, 1, 45, 0
4, 46752, Note_on_c, 1, 57, 78
4, 46797, Note_on_c, 1, 57, 0
4, 46800, Note_on_c, 1, 61, 78
4, 46845, Note_on_c, 1, 61, 0
4, 46848, Note_on_c, 1, 62, 78
4, 46893, Note_on_c, 1, 62, 0
4, 46896, Note_on_c, 1, 66, 78
4, 46941, Note_on_c, 1, 66, 0
4, 46944, Note_on_c, 1, 67, 78
4, 47033, Note_on_c, 1, 67, 0
4, 47232, Note_on_c, 1, 71, 78
4, 47232, Note_on_c, 1, 67, 78
4, 47321, Note_on_c, 1, 71, 0
4, 47321, Note_on_c, 1, 67, 0
4, 47520, Note_on_c, 1, 71, 78
4, 47520, Note_on_c, 1, 67, 78
4, 47609, Note_on_c, 1, 71, 0
4, 47609, Note_on_c, 1, 67, 0
4, 47712, Note_on_c, 1, 59, 82
4, 47712, Note_on_c, 1, 56, 82
4, 47801, Note_on_c, 1, 59, 0
4, 47801, Note_on_c, 1, 56, 0
4, 47808, Note_on_c, 1, 57, 84
4, 47897, Note_on_c, 1, 57, 0
4, 47904, Note_on_c, 1, 69, 84
4, 47943, Note_on_c, 1, 69, 0
4, 48000, Note_on_c, 1, 67, 84
4, 48039, Note_on_c, 1, 67, 0
4, 48096, Note_on_c, 1, 66, 84
4, 48135, Note_on_c, 1, 66, 0
4, 48192, Note_on_c, 1, 66, 84
4, 48231, Note_on_c, 1, 66, 0
4, 48288, Note_on_c, 1, 64, 84
4, 48327, Note_on_c, 1, 64, 0
4, 48384, Note_on_c, 1, 62, 84
4, 48473, Note_on_c, 1, 62, 0
4, 48480, Note_on_c, 1, 69, 84
4, 48519, Note_on_c, 1, 69, 0
4, 48576, Note_on_c, 1, 67, 84
4, 48615, Note_on_c, 1, 67, 0
4, 48672, Note_on_c, 1, 65, 84
4, 48711, Note_on_c, 1, 65, 0
4, 48768, Note_on_c, 1, 65, 84
4, 48807, Note_on_c, 1, 65, 0
4, 48864, Note_on_c, 1, 64, 84
4, 48903, Note_on_c, 1, 64, 0
4, 48960, Note_on_c, 1, 62, 84
4, 49049, Note_on_c, 1, 62, 0
4, 49056, Note_on_c, 1, 74, 84
4, 49095, Note_on_c, 1, 74, 0
4, 49152, Note_on_c, 1, 72, 84
4, 49241, Note_on_c, 1, 72, 0
4, 49248, Note_on_c, 1, 71, 84
4, 49337, Note_on_c, 1, 71, 0
4, 49344, Note_on_c, 1, 70, 84
4, 49383, Note_on_c, 1, 70, 0
4, 49440, Note_on_c, 1, 69, 84
4, 49529, Note_on_c, 1, 69, 0
4, 49536, Control_c, 1, 64, 127
4, 49536, Note_on_c, 1, 68, 84
4, 49625, Note_on_c, 1, 68, 0
4, 49632, Note_on_c, 1, 77, 84
4, 49671, Note_on_c, 1, 77, 0
4, 49728, Note_on_c, 1, 68, 84
4, 49817, Note_on_c, 1, 68, 0
4, 49824, Control_c, 1, 64, 0
4, 49824, Control_c, 1, 64, 127
4, 49824, Note_on_c, 1, 69, 84
4, 49913, Note_on_c, 1, 69, 0
4, 49920, Note_on_c, 1, 77, 84
4, 49959, Note_on_c, 1, 77, 0
4, 50016, Note_on_c, 1, 69, 84
4, 50105, Note_on_c, 1, 69, 0
4, 50112, Control_c, 1, 64, 0
4, 50112, Control_c, 1, 64, 127
4, 50112, Note_on_c, 1, 70, 84
4, 50201, Note_on_c, 1, 70, 0
4, 50208, Note_on_c, 1, 77, 84
4, 50247, Note_on_c, 1, 77, 0
4, 50304, Note_on_c, 1, 70, 84
4, 50393, Note_on_c, 1, 70, 0
4, 50400, Control_c, 1, 64, 0
4, 50400, Note_on_c, 1, 69, 84
4, 50489, Note_on_c, 1, 69, 0
4, 50496, Note_on_c, 1, 67, 84
4, 50496, Note_on_c, 1, 55, 84
4, 50585, Note_on_c, 1, 67, 0
4, 50585, Note_on_c, 1, 55, 0
4, 50592, Note_on_c, 1, 66, 84
4, 50592, Note_on_c, 1, 54, 84
4, 50681, Note_on_c, 1, 66, 0
4, 50681, Note_on_c, 1, 54, 0
4, 50688, Note_on_c, 1, 64, 84
4, 50688, Note_on_c, 1, 52, 84
4, 50777, Note_on_c, 1, 64, 0
4, 50777, Note_on_c, 1, 52, 0
4, 50784, Note_on_c, 1, 61, 84
4, 50784, Note_on_c, 1, 49, 84
4, 50873, Note_on_c, 1, 61, 0
4, 50873, Note_on_c, 1, 49, 0
4, 50880, Note_on_c, 1, 62, 84
4, 50880, Note_on_c, 1, 50, 84
4, 50969, Note_on_c, 1, 62, 0
4, 50969, Note_on_c, 1, 50, 0
4, 50976, Note_on_c, 1, 59, 84
4, 50976, Note_on_c, 1, 55, 84
4, 51065, Note_on_c, 1, 59, 0
4, 51065, Note_on_c, 1, 55, 0
4, 51360, Note_on_c, 1, 66, 78
4, 51360, Note_on_c, 1, 57, 78
4, 51449, Note_on_c, 1, 66, 0
4, 51449, Note_on_c, 1, 57, 0
4, 51456, Note_on_c, 1, 64, 78
4, 51456, Note_on_c, 1, 57, 78
4, 51545, Note_on_c, 1, 64, 0
4, 51545, Note_on_c, 1, 57, 0
4, 51552, Note_on_c, 1, 62, 78
4, 51552, Note_on_c, 1, 50, 78
4, 51641, Note_on_c, 1, 62, 0
4, 51641, Note_on_c, 1, 50, 0
4, 51696, Note_on_c, 1, 66, 64
4, 51741, Note_on_c, 1, 66, 0
4, 51744, Note_on_c, 1, 67, 64
4, 51789, Note_on_c, 1, 67, 0
4, 51792, Note_on_c, 1, 64, 64
4, 51837, Note_on_c, 1, 64, 0
4, 51840, Note_on_c, 1, 66, 64
4, 51885, Note_on_c, 1, 66, 0
4, 51888, Note_on_c, 1, 62, 64
4, 51933, Note_on_c, 1, 62, 0
4, 51936, Note_on_c, 1, 64, 64
4, 51981, Note_on_c, 1, 64, 0
4, 51984, Note_on_c, 1, 57, 64
4, 52029, Note_on_c, 1, 57, 0
4, 52032, Note_on_c, 1, 62, 65
4, 52077, Note_on_c, 1, 62, 0
4, 52080, Note_on_c, 1, 66, 66
4, 52125, Note_on_c, 1, 66, 0
4, 52128, Note_on_c, 1, 67, 68
4, 52173, Note_on_c, 1, 67, 0
4, 52176, Note_on_c, 1, 64, 69
4, 52221, Note_on_c, 1, 64, 0
4, 52224, Note_on_c, 1, 66, 70
4, 52269, Note_on_c, 1, 66, 0
4, 52272, Note_on_c, 1, 69, 72
4, 52317, Note_on_c, 1, 69, 0
4, 52320, Note_on_c, 1, 71, 73
4, 52365, Note_on_c, 1, 71, 0
4, 52368, Note_on_c, 1, 67, 74
4, 52413, Note_on_c, 1, 67, 0
4, 52416, Note_on_c, 1, 69, 76
4, 52461, Note_on_c, 1, 69, 0
4, 52464, Note_on_c, 1, 66, 77
4, 52509, Note_on_c, 1, 66, 0
4, 52512, Note_on_c, 1, 67, 78
4, 52557, Note_on_c, 1, 67, 0
4, 52560, Note_on_c, 1, 76, 80
4, 52605, Note_on_c, 1, 76, 0
4, 52608, Note_on_c, 1, 66, 81
4, 52653, Note_on_c, 1, 66, 0
4, 52656, Note_on_c, 1, 74, 82
4, 52701, Note_on_c, 1, 74, 0
4, 52704, Note_on_c, 1, 64, 84
4, 52749, Note_on_c, 1, 64, 0
4, 52752, Note_on_c, 1, 73, 84
4, 52797, Note_on_c, 1, 73, 0
4, 52800, Note_on_c, 1, 62, 84
4, 52889, Note_on_c, 1, 62, 0
4, 53280, Control_c, 1, 64, 127
4, 53280, Note_on_c, 1, 44, 100
4, 53280, Note_on_c, 1, 32, 100
4, 53376, Note_on_c, 1, 44, 0
4, 53376, Note_on_c, 1, 32, 0
4, 53376, Note_on_c, 1, 56, 84
4, 53415, Note_on_c, 1, 56, 0
4, 53472, Note_on_c, 1, 62, 84
4, 53511, Note_on_c, 1, 62, 0
4, 53568, Control_c, 1, 64, 0
4, 53568, Control_c, 1, 64, 127
4, 53568, Note_on_c, 1, 45, 100
4, 53568, Note_on_c, 1, 33, 100
4, 53664, Note_on_c, 1, 45, 0
4, 53664, Note_on_c, 1, 33, 0
4, 53664, Note_on_c, 1, 57, 84
4, 53703, Note_on_c, 1, 57, 0
4, 53760, Note_on_c, 1, 62, 84
4, 53799, Note_on_c, 1, 62, 0
4, 53856, Control_c, 1, 64, 0
4, 53856, Control_c, 1, 64, 127
4, 53856, Note_on_c, 1, 46, 100
4, 53856, Note_on_c, 1, 34, 100
4, 53952, Note_on_c, 1, 46, 0
4, 53952, Note_on_c, 1, 34, 0
4, 53952, Note_on_c, 1, 58, 84
4, 53991, Note_on_c, 1, 58, 0
4, 54048, Note_on_c, 1, 58, 84
4, 54087, Note_on_c, 1, 58, 0
4, 54144, Control_c, 1, 64, 0
4, 54144, Note_on_c, 1, 58, 84
4, 54183, Note_on_c, 1, 58, 0
4, 54240, Note_on_c, 1, 58, 84
4, 54279, Note_on_c, 1, 58, 0
4, 54336, Note_on_c, 1, 58, 84
4, 54375, Note_on_c, 1, 58, 0
4, 54432, Note_on_c, 1, 57, 84
4, 54521, Note_on_c, 1, 57, 0
4, 54528, Note_on_c, 1, 61, 84
4, 54617, Note_on_c, 1, 61, 0
4, 54624, Note_on_c, 1, 62, 84
4, 54713, Note_on_c, 1, 62, 0
4, 54720, Note_on_c, 1, 55, 84
4, 54720, Note_on_c, 1, 43, 84
4, 54809, Note_on_c, 1, 55, 0
4, 54809, Note_on_c, 1, 43, 0
4, 54816, Note_on_c, 1, 54, 84
4, 54816, Note_on_c, 1, 45, 84
4, 54905, Note_on_c, 1, 54, 0
4, 54905, Note_on_c, 1, 45, 0
4, 54912, Note_on_c, 1, 52, 84
4, 54912, Note_on_c, 1, 45, 84
4, 55001, Note_on_c, 1, 52, 0
4, 55001, Note_on_c, 1, 45, 0
4, 55008, Note_on_c, 1, 54, 84
4, 55031, Note_on_c, 1, 54, 0
4, 55032, Note_on_c, 1, 62, 84
4, 55055, Note_on_c, 1, 62, 0
4, 55056, Note_on_c, 1, 61, 84
4, 55079, Note_on_c, 1, 61, 0
4, 55080, Note_on_c, 1, 62, 84
4, 55103, Note_on_c, 1, 62, 0
4, 55104, Note_on_c, 1, 54, 84
4, 55127, Note_on_c, 1, 54, 0
4, 55128, Note_on_c, 1, 62, 84
4, 55151, Note_on_c, 1, 62, 0
4, 55152, Note_on_c, 1, 61, 84
4, 55175, Note_on_c, 1, 61, 0
4, 55176, Note_on_c, 1, 62, 84
4, 55199, Note_on_c, 1, 62, 0
4, 55200, Note_on_c, 1, 54, 84
4, 55223, Note_on_c, 1, 54, 0
4, 55224, Note_on_c, 1, 62, 84
4, 55247, Note_on_c, 1, 62, 0
4, 55248, Note_on_c, 1, 61, 84
4, 55271, Note_on_c, 1, 61, 0
4, 55272, Note_on_c, 1, 62, 84
4, 55295, Note_on_c, 1, 62, 0
4, 55296, Note_on_c, 1, 55, 78
4, 55319, Note_on_c, 1, 55, 0
4, 55320, Note_on_c, 1, 62, 77
4, 55343, Note_on_c, 1, 62, 0
4, 55344, Note_on_c, 1, 61, 76
4, 55367, Note_on_c, 1, 61, 0
4, 55368, Note_on_c, 1, 62, 76
4, 55391, Note_on_c, 1, 62, 0
4, 55392, Note_on_c, 1, 55, 75
4, 55415, Note_on_c, 1, 55, 0
4, 55416, Note_on_c, 1, 64, 75
4, 55439, Note_on_c, 1, 64, 0
4, 55440, Note_on_c, 1, 63, 74
4, 55463, Note_on_c, 1, 63, 0
4, 55464, Note_on_c, 1, 64, 73
4, 55487, Note_on_c, 1, 64, 0
4, 55488, Note_on_c, 1, 55, 73
4, 55511, Note_on_c, 1, 55, 0
4, 55512, Note_on_c, 1, 64, 72
4, 55535, Note_on_c, 1, 64, 0
4, 55536, Note_on_c, 1, 63, 72
4, 55559, Note_on_c, 1, 63, 0
4, 55560, Note_on_c, 1, 64, 71
4, 55583, Note_on_c, 1, 64, 0
4, 55584, Note_on_c, 1, 57, 71
4, 55607, Note_on_c, 1, 57, 0
4, 55608, Note_on_c, 1, 66, 70
4, 55631, Note_on_c, 1, 66, 0
4, 55632, Note_on_c, 1, 62, 69
4, 55655, Note_on_c, 1, 62, 0
4, 55656, Note_on_c, 1, 66, 69
4, 55679, Note_on_c, 1, 66, 0
4, 55680, Note_on_c, 1, 57, 68
4, 55703, Note_on_c, 1, 57, 0
4, 55704, Note_on_c, 1, 67, 68
4, 55727, Note_on_c, 1, 67, 0
4, 55728, Note_on_c, 1, 64, 67
4, 55751, Note_on_c, 1, 64, 0
4, 55752, Note_on_c, 1, 67, 66
4, 55775, Note_on_c, 1, 67, 0
4, 55776, Note_on_c, 1, 57, 66
4, 55799, Note_on_c, 1, 57, 0
4, 55800, Note_on_c, 1, 67, 65
4, 55823, Note_on_c, 1, 67, 0
4, 55824, Note_on_c, 1, 64, 65
4, 55847, Note_on_c, 1, 64, 0
4, 55848, Note_on_c, 1, 67, 64
4, 55871, Note_on_c, 1, 67, 0
4, 55872, Note_on_c, 1, 66, 64
4, 55872, Note_on_c, 1, 59, 64
4, 56027, Note_on_c, 1, 66, 0
4, 56027, Note_on_c, 1, 59, 0
4, 56160, Note_on_c, 1, 55, 64
4, 56293, Note_on_c, 1, 55, 0
4, 56304, Note_on_c, 1, 52, 66
4, 56349, Note_on_c, 1, 52, 0
4, 56352, Note_on_c, 1, 54, 67
4, 56397, Note_on_c, 1, 54, 0
4, 56400, Note_on_c, 1, 62, 68
4, 56445, Note_on_c, 1, 62, 0
4, 56448, Note_on_c, 1, 61, 69
4, 56581, Note_on_c, 1, 61, 0
4, 56592, Note_on_c, 1, 64, 71
4, 56637, Note_on_c, 1, 64, 0
4, 56640, Note_on_c, 1, 62, 72
4, 56685, Note_on_c, 1, 62, 0
4, 56688, Note_on_c, 1, 66, 73
4, 56733, Note_on_c, 1, 66, 0
4, 56736, Note_on_c, 1, 67, 74
4, 56869, Note_on_c, 1, 67, 0
4, 56880, Note_on_c, 1, 64, 76
4, 56925, Note_on_c, 1, 64, 0
4, 56928, Note_on_c, 1, 66, 77
4, 56973, Note_on_c, 1, 66, 0
4, 56976, Note_on_c, 1, 62, 78
4, 57021, Note_on_c, 1, 62, 0
4, 57024, Note_on_c, 1, 61, 79
4, 57157, Note_on_c, 1, 61, 0
4, 57168, Note_on_c, 1, 64, 81
4, 57213, Note_on_c, 1, 64, 0
4, 57216, Note_on_c, 1, 62, 82
4, 57305, Note_on_c, 1, 62, 0
4, 57312, Note_on_c, 1, 62, 84
4, 57312, Note_on_c, 1, 59, 84
4, 57312, Note_on_c, 1, 55, 84
4, 57401, Note_on_c, 1, 62, 0
4, 57401, Note_on_c, 1, 59, 0
4, 57401, Note_on_c, 1, 55, 0
4, 57600, Note_on_c, 1, 65, 84
4, 57600, Note_on_c, 1, 62, 84
4, 57600, Note_on_c, 1, 59, 84
4, 57600, Note_on_c, 1, 56, 84
4, 57689, Note_on_c, 1, 65, 0
4, 57689, Note_on_c, 1, 62, 0
4, 57689, Note_on_c, 1, 59, 0
4, 57689, Note_on_c, 1, 56, 0
4, 57888, Note_on_c, 1, 57, 84
4, 57911, Note_on_c, 1, 57, 0
4, 57912, Note_on_c, 1, 66, 84
4, 57935, Note_on_c, 1, 66, 0
4, 57936, Note_on_c, 1, 62, 84
4, 57959, Note_on_c, 1, 62, 0
4, 57960, Note_on_c, 1, 66, 84
4, 57983, Note_on_c, 1, 66, 0
4, 57984, Note_on_c, 1, 57, 84
4, 58007, Note_on_c, 1, 57, 0
4, 58008, Note_on_c, 1, 67, 84
4, 58031, Note_on_c, 1, 67, 0
4, 58032, Note_on_c, 1, 64, 84
4, 58055, Note_on_c, 1, 64, 0
4, 58056, Note_on_c, 1, 67, 84
4, 58079, Note_on_c, 1, 67, 0
4, 58080, Note_on_c, 1, 57, 84
4, 58103, Note_on_c, 1, 57, 0
4, 58104, Note_on_c, 1, 67, 82
4, 58127, Note_on_c, 1, 67, 0
4, 58128, Note_on_c, 1, 64, 81
4, 58151, Note_on_c, 1, 64, 0
4, 58152, Note_on_c, 1, 67, 79
4, 58175, Note_on_c, 1, 67, 0
4, 58176, Note_on_c, 1, 54, 78
4, 58199, Note_on_c, 1, 54, 0
4, 58200, Note_on_c, 1, 62, 78
4, 58223, Note_on_c, 1, 62, 0
4, 58224, Note_on_c, 1, 61, 78
4, 58247, Note_on_c, 1, 61, 0
4, 58248, Note_on_c, 1, 62, 78
4, 58271, Note_on_c, 1, 62, 0
4, 58272, Note_on_c, 1, 54, 78
4, 58295, Note_on_c, 1, 54, 0
4, 58296, Note_on_c, 1, 62, 78
4, 58319, Note_on_c, 1, 62, 0
4, 58320, Note_on_c, 1, 61, 78
4, 58343, Note_on_c, 1, 61, 0
4, 58344, Note_on_c, 1, 62, 78
4, 58367, Note_on_c, 1, 62, 0
4, 58368, Note_on_c, 1, 54, 78
4, 58391, Note_on_c, 1, 54, 0
4, 58392, Note_on_c, 1, 62, 78
4, 58415, Note_on_c, 1, 62, 0
4, 58416, Note_on_c, 1, 61, 78
4, 58439, Note_on_c, 1, 61, 0
4, 58440, Note_on_c, 1, 62, 78
4, 58463, Note_on_c, 1, 62, 0
4, 58464, Note_on_c, 1, 55, 78
4, 58487, Note_on_c, 1, 55, 0
4, 58488, Note_on_c, 1, 62, 78
4, 58511, Note_on_c, 1, 62, 0
4, 58512, Note_on_c, 1, 61, 78
4, 58535, Note_on_c, 1, 61, 0
4, 58536, Note_on_c, 1, 62, 78
4, 58559, Note_on_c, 1, 62, 0
4, 58560, Note_on_c, 1, 55, 78
4, 58583, Note_on_c, 1, 55, 0
4, 58584, Note_on_c, 1, 64, 78
4, 58607, Note_on_c, 1, 64, 0
4, 58608, Note_on_c, 1, 63, 78
4, 58631, Note_on_c, 1, 63, 0
4, 58632, Note_on_c, 1, 64, 78
4, 58655, Note_on_c, 1, 64, 0
4, 58656, Note_on_c, 1, 55, 78
4, 58679, Note_on_c, 1, 55, 0
4, 58680, Note_on_c, 1, 64, 78
4, 58703, Note_on_c, 1, 64, 0
4, 58704, Note_on_c, 1, 63, 78
4, 58727, Note_on_c, 1, 63, 0
4, 58728, Note_on_c, 1, 64, 78
4, 58751, Note_on_c, 1, 64, 0
4, 58752, Note_on_c, 1, 57, 78
4, 58775, Note_on_c, 1, 57, 0
4, 58776, Note_on_c, 1, 66, 78
4, 58799, Note_on_c, 1, 66, 0
4, 58800, Note_on_c, 1, 62, 78
4, 58823, Note_on_c, 1, 62, 0
4, 58824, Note_on_c, 1, 66, 78
4, 58847, Note_on_c, 1, 66, 0
4, 58848, Note_on_c, 1, 57, 78
4, 58871, Note_on_c, 1, 57, 0
4, 58872, Note_on_c, 1, 67, 78
4, 58895, Note_on_c, 1, 67, 0
4, 58896, Note_on_c, 1, 64, 78
4, 58919, Note_on_c, 1, 64, 0
4, 58920, Note_on_c, 1, 67, 78
4, 58943, Note_on_c, 1, 67, 0
4, 58944, Note_on_c, 1, 57, 78
4, 58967, Note_on_c, 1, 57, 0
4, 58968, Note_on_c, 1, 67, 78
4, 58991, Note_on_c, 1, 67, 0
4, 58992, Note_on_c, 1, 64, 78
4, 59015, Note_on_c, 1, 64, 0
4, 59016, Note_on_c, 1, 67, 78
4, 59039, Note_on_c, 1, 67, 0
4, 59040, Note_on_c, 1, 66, 78
4, 59040, Note_on_c, 1, 62, 78
4, 59129, Note_on_c, 1, 66, 0
4, 59129, Note_on_c, 1, 62, 0
4, 59184, Note_on_c, 1, 62, 78
4, 59204, Note_on_c, 1, 62, 0
4, 59232, Note_on_c, 1, 61, 78
4, 59252, Note_on_c, 1, 61, 0
4, 59280, Note_on_c, 1, 57, 78
4, 59300, Note_on_c, 1, 57, 0
4, 59328, Note_on_c, 1, 62, 78
4, 59367, Note_on_c, 1, 62, 0
4, 59472, Note_on_c, 1, 62, 78
4, 59492, Note_on_c, 1, 62, 0
4, 59520, Note_on_c, 1, 64, 78
4, 59540, Note_on_c, 1, 64, 0
4, 59568, Note_on_c, 1, 64, 78
4, 59568, Note_on_c, 1, 57, 78
4, 59588, Note_on_c, 1, 64, 0
4, 59588, Note_on_c, 1, 57, 0
4, 59616, Note_on_c, 1, 62, 78
4, 59705, Note_on_c, 1, 62, 0
4, 59952, Note_on_c, 1, 61, 78
4, 59997, Note_on_c, 1, 61, 0
4, 60000, Note_on_c, 1, 64, 79
4, 60045, Note_on_c, 1, 64, 0
4, 60048, Note_on_c, 1, 61, 80
4, 60093, Note_on_c, 1, 61, 0
4, 60096, Note_on_c, 1, 62, 81
4, 60141, Note_on_c, 1, 62, 0
4, 60144, Note_on_c, 1, 66, 82
4, 60189, Note_on_c, 1, 66, 0
4, 60192, Note_on_c, 1, 67, 84
4, 60333, Note_on_c, 1, 67, 0
4, 60336, Note_on_c, 1, 64, 81
4, 60381, Note_on_c, 1, 64, 0
4, 60384, Note_on_c, 1, 66, 80
4, 60429, Note_on_c, 1, 66, 0
4, 60432, Note_on_c, 1, 62, 79
4, 60477, Note_on_c, 1, 62, 0
4, 60480, Note_on_c, 1, 61, 78
4, 60525, Note_on_c, 1, 61, 0
4, 60528, Note_on_c, 1, 57, 79
4, 60573, Note_on_c, 1, 57, 0
4, 60576, Note_on_c, 1, 64, 80
4, 60621, Note_on_c, 1, 64, 0
4, 60624, Note_on_c, 1, 61, 81
4, 60669, Note_on_c, 1, 61, 0
4, 60672, Note_on_c, 1, 62, 82
4, 60717, Note_on_c, 1, 62, 0
4, 60720, Note_on_c, 1, 66, 83
4, 60765, Note_on_c, 1, 66, 0
4, 60768, Note_on_c, 1, 67, 84
4, 60909, Note_on_c, 1, 67, 0
4, 60912, Note_on_c, 1, 64, 81
4, 60957, Note_on_c, 1, 64, 0
4, 60960, Note_on_c, 1, 66, 80
4, 61049, Note_on_c, 1, 66, 0
4, 61104, Note_on_c, 1, 66, 78
4, 61149, Note_on_c, 1, 66, 0
4, 61152, Note_on_c, 1, 69, 79
4, 61197, Note_on_c, 1, 69, 0
4, 61200, Note_on_c, 1, 66, 80
4, 61245, Note_on_c, 1, 66, 0
4, 61248, Note_on_c, 1, 67, 81
4, 61293, Note_on_c, 1, 67, 0
4, 61296, Note_on_c, 1, 71, 82
4, 61341, Note_on_c, 1, 71, 0
4, 61344, Note_on_c, 1, 72, 84
4, 61485, Note_on_c, 1, 72, 0
4, 61488, Note_on_c, 1, 69, 81
4, 61533, Note_on_c, 1, 69, 0
4, 61536, Note_on_c, 1, 71, 80
4, 61581, Note_on_c, 1, 71, 0
4, 61584, Note_on_c, 1, 67, 79
4, 61629, Note_on_c, 1, 67, 0
4, 61632, Note_on_c, 1, 66, 78
4, 61677, Note_on_c, 1, 66, 0
4, 61680, Note_on_c, 1, 62, 79
4, 61725, Note_on_c, 1, 62, 0
4, 61728, Note_on_c, 1, 69, 80
4, 61773, Note_on_c, 1, 69, 0
4, 61776, Note_on_c, 1, 66, 81
4, 61821, Note_on_c, 1, 66, 0
4, 61824, Note_on_c, 1, 67, 82
4, 61869, Note_on_c, 1, 67, 0
4, 61872, Note_on_c, 1, 71, 83
4, 61917, Note_on_c, 1, 71, 0
4, 61920, Note_on_c, 1, 72, 84
4, 62061, Note_on_c, 1, 72, 0
4, 62064, Note_on_c, 1, 69, 81
4, 62109, Note_on_c, 1, 69, 0
4, 62112, Note_on_c, 1, 71, 80
4, 62157, Note_on_c, 1, 71, 0
4, 62160, Note_on_c, 1, 67, 79
4, 62205, Note_on_c, 1, 67, 0
4, 62208, Note_on_c, 1, 69, 78
4, 62253, Note_on_c, 1, 69, 0
4, 62256, Note_on_c, 1, 66, 78
4, 62301, Note_on_c, 1, 66, 0
4, 62304, Note_on_c, 1, 67, 78
4, 62393, Note_on_c, 1, 67, 0
4, 62400, Note_on_c, 1, 72, 78
4, 62489, Note_on_c, 1, 72, 0
4, 62496, Note_on_c, 1, 71, 78
4, 62585, Note_on_c, 1, 71, 0
4, 63072, Note_on_c, 1, 59, 100
4, 63111, Note_on_c, 1, 59, 0
4, 63168, Note_on_c, 1, 71, 84
4, 63207, Note_on_c, 1, 71, 0
4, 63264, Note_on_c, 1, 69, 84
4, 63303, Note_on_c, 1, 69, 0
4, 63360, Note_on_c, 1, 55, 100
4, 63456, Note_on_c, 1, 55, 0
4, 63456, Note_on_c, 1, 67, 84
4, 63495, Note_on_c, 1, 67, 0
4, 63552, Note_on_c, 1, 66, 84
4, 63591, Note_on_c, 1, 66, 0
4, 63648, Note_on_c, 1, 52, 100
4, 63744, Note_on_c, 1, 52, 0
4, 63744, Note_on_c, 1, 64, 84
4, 63783, Note_on_c, 1, 64, 0
4, 63840, Note_on_c, 1, 62, 84
4, 63879, Note_on_c, 1, 62, 0
4, 63936, Control_c, 1, 64, 127
4, 63936, Note_on_c, 1, 61, 100
4, 64032, Note_on_c, 1, 61, 0
4, 64032, Note_on_c, 1, 68, 84
4, 64071, Note_on_c, 1, 68, 0
4, 64128, Note_on_c, 1, 71, 84
4, 64167, Note_on_c, 1, 71, 0
4, 64224, Control_c, 1, 64, 0
4, 64224, Control_c, 1, 64, 127
4, 64224, Note_on_c, 1, 54, 100
4, 64320, Note_on_c, 1, 54, 0
4, 64320, Note_on_c, 1, 66, 84
4, 64359, Note_on_c, 1, 66, 0
4, 64416, Note_on_c, 1, 70, 84
4, 64455, Note_on_c, 1, 70, 0
4, 64512, Control_c, 1, 64, 0
4, 64512, Control_c, 1, 64, 127
4, 64512, Note_on_c, 1, 59, 84
4, 64551, Note_on_c, 1, 59, 0
4, 64608, Note_on_c, 1, 62, 84
4, 64647, Note_on_c, 1, 62, 0
4, 64704, Note_on_c, 1, 66, 84
4, 64743, Note_on_c, 1, 66, 0
4, 64800, Control_c, 1, 64, 0
4, 64800, Control_c, 1, 64, 127
4, 64800, Note_on_c, 1, 59, 84
4, 64839, Note_on_c, 1, 59, 0
4, 64896, Note_on_c, 1, 62, 84
4, 64935, Note_on_c, 1, 62, 0
4, 64992, Note_on_c, 1, 71, 84
4, 65031, Note_on_c, 1, 71, 0
4, 65088, Control_c, 1, 64, 0
4, 65088, Control_c, 1, 64, 127
4, 65088, Note_on_c, 1, 57, 84
4, 65127, Note_on_c, 1, 57, 0
4, 65184, Note_on_c, 1, 64, 84
4, 65223, Note_on_c, 1, 64, 0
4, 65280, Note_on_c, 1, 69, 84
4, 65319, Note_on_c, 1, 69, 0
4, 65376, Control_c, 1, 64, 0
4, 65376, Control_c, 1, 64, 127
4, 65376, Note_on_c, 1, 50, 100
4, 65472, Note_on_c, 1, 50, 0
4, 65472, Note_on_c, 1, 62, 84
4, 65511, Note_on_c, 1, 62, 0
4, 65568, Note_on_c, 1, 66, 84
4, 65607, Note_on_c, 1, 66, 0
4, 65664, Control_c, 1, 64, 0
4, 65664, Note_on_c, 1, 55, 100
4, 65760, Note_on_c, 1, 55, 0
4, 65760, Note_on_c, 1, 67, 84
4, 65799, Note_on_c, 1, 67, 0
4, 65856, Note_on_c, 1, 66, 84
4, 65895, Note_on_c, 1, 66, 0
4, 65952, Note_on_c, 1, 52, 100
4, 66048, Note_on_c, 1, 52, 0
4, 66048, Note_on_c, 1, 64, 84
4, 66142, Note_on_c, 1, 64, 0
4, 66144, Note_on_c, 1, 62, 84
4, 66238, Note_on_c, 1, 62, 0
4, 66240, Note_on_c, 1, 61, 84
4, 66240, Note_on_c, 1, 49, 84
4, 66329, Note_on_c, 1, 61, 0
4, 66329, Note_on_c, 1, 49, 0
4, 66336, Note_on_c, 1, 62, 84
4, 66336, Note_on_c, 1, 50, 84
4, 66425, Note_on_c, 1, 62, 0
4, 66425, Note_on_c, 1, 50, 0
4, 66432, Note_on_c, 1, 58, 85
4, 66432, Note_on_c, 1, 46, 85
4, 66521, Note_on_c, 1, 58, 0
4, 66521, Note_on_c, 1, 46, 0
4, 66528, Note_on_c, 1, 59, 86
4, 66528, Note_on_c, 1, 47, 86
4, 66617, Note_on_c, 1, 59, 0
4, 66617, Note_on_c, 1, 47, 0
4, 66624, Note_on_c, 1, 55, 87
4, 66624, Note_on_c, 1, 43, 87
4, 66713, Note_on_c, 1, 55, 0
4, 66713, Note_on_c, 1, 43, 0
4, 66720, Note_on_c, 1, 53, 88
4, 66720, Note_on_c, 1, 41, 88
4, 66809, Note_on_c, 1, 53, 0
4, 66809, Note_on_c, 1, 41, 0
4, 66816, Control_c, 1, 64, 127
4, 66816, Note_on_c, 1, 54, 89
4, 66816, Note_on_c, 1, 42, 89
4, 66905, Note_on_c, 1, 54, 0
4, 66905, Note_on_c, 1, 42, 0
4, 67104, Control_c, 1, 64, 0
4, 67104, Note_on_c, 1, 42, 89
4, 67193, Note_on_c, 1, 42, 0
4, 67440, Note_on_c, 1, 42, 64
4, 67485, Note_on_c, 1, 42, 0
4, 67488, Note_on_c, 1, 54, 64
4, 67533, Note_on_c, 1, 54, 0
4, 67536, Note_on_c, 1, 58, 65
4, 67581, Note_on_c, 1, 58, 0
4, 67584, Note_on_c, 1, 59, 65
4, 67673, Note_on_c, 1, 59, 0
4, 67728, Note_on_c, 1, 42, 67
4, 67773, Note_on_c, 1, 42, 0
4, 67776, Note_on_c, 1, 54, 67
4, 67821, Note_on_c, 1, 54, 0
4, 67824, Note_on_c, 1, 58, 68
4, 67869, Note_on_c, 1, 58, 0
4, 67872, Note_on_c, 1, 59, 68
4, 67961, Note_on_c, 1, 59, 0
4, 68016, Note_on_c, 1, 42, 69
4, 68061, Note_on_c, 1, 42, 0
4, 68064, Note_on_c, 1, 54, 70
4, 68109, Note_on_c, 1, 54, 0
4, 68112, Note_on_c, 1, 58, 70
4, 68157, Note_on_c, 1, 58, 0
4, 68160, Note_on_c, 1, 59, 71
4, 68205, Note_on_c, 1, 59, 0
4, 68208, Note_on_c, 1, 62, 71
4, 68253, Note_on_c, 1, 62, 0
4, 68304, Note_on_c, 1, 52, 72
4, 68349, Note_on_c, 1, 52, 0
4, 68352, Note_on_c, 1, 64, 72
4, 68397, Note_on_c, 1, 64, 0
4, 68400, Note_on_c, 1, 67, 73
4, 68445, Note_on_c, 1, 67, 0
4, 68448, Note_on_c, 1, 69, 73
4, 68537, Note_on_c, 1, 69, 0
4, 68592, Note_on_c, 1, 50, 75
4, 68637, Note_on_c, 1, 50, 0
4, 68640, Note_on_c, 1, 62, 75
4, 68685, Note_on_c, 1, 62, 0
4, 68688, Note_on_c, 1, 66, 76
4, 68733, Note_on_c, 1, 66, 0
4, 68736, Note_on_c, 1, 67, 76
4, 68825, Note_on_c, 1, 67, 0
4, 68880, Note_on_c, 1, 49, 77
4, 68925, Note_on_c, 1, 49, 0
4, 68928, Note_on_c, 1, 61, 78
4, 68973, Note_on_c, 1, 61, 0
4, 68976, Note_on_c, 1, 64, 78
4, 69021, Note_on_c, 1, 64, 0
4, 69024, Note_on_c, 1, 66, 79
4, 69113, Note_on_c, 1, 66, 0
4, 69168, Note_on_c, 1, 59, 80
4, 69213, Note_on_c, 1, 59, 0
4, 69216, Note_on_c, 1, 47, 80
4, 69261, Note_on_c, 1, 47, 0
4, 69264, Note_on_c, 1, 59, 81
4, 69309, Note_on_c, 1, 59, 0
4, 69312, Note_on_c, 1, 45, 81
4, 69357, Note_on_c, 1, 45, 0
4, 69360, Note_on_c, 1, 57, 82
4, 69405, Note_on_c, 1, 57, 0
4, 69456, Note_on_c, 1, 55, 83
4, 69501, Note_on_c, 1, 55, 0
4, 69504, Note_on_c, 1, 43, 83
4, 69549, Note_on_c, 1, 43, 0
4, 69552, Note_on_c, 1, 55, 84
4, 69597, Note_on_c, 1, 55, 0
4, 69600, Note_on_c, 1, 42, 84
4, 69645, Note_on_c, 1, 42, 0
4, 69648, Note_on_c, 1, 54, 84
4, 69693, Note_on_c, 1, 54, 0
4, 69696, Note_on_c, 1, 53, 84
4, 69696, Note_on_c, 1, 41, 84
4, 69785, Note_on_c, 1, 53, 0
4, 69785, Note_on_c, 1, 41, 0
4, 69984, Note_on_c, 1, 54, 84
4, 69984, Note_on_c, 1, 42, 84
4, 70073, Note_on_c, 1, 54, 0
4, 70073, Note_on_c, 1, 42, 0
4, 70272, Note_on_c, 1, 47, 100
4, 70272, Note_on_c, 1, 35, 100
4, 70368, Note_on_c, 1, 47, 0
4, 70368, Note_on_c, 1, 35, 0
4, 70368, Note_on_c, 1, 59, 84
4, 70457, Note_on_c, 1, 59, 0
4, 70560, Note_on_c, 1, 43, 102
4, 70560, Note_on_c, 1, 31, 102
4, 70656, Note_on_c, 1, 43, 0
4, 70656, Note_on_c, 1, 31, 0
4, 70656, Note_on_c, 1, 55, 86
4, 70745, Note_on_c, 1, 55, 0
4, 70848, Note_on_c, 1, 41, 104
4, 70848, Note_on_c, 1, 29, 104
4, 70944, Note_on_c, 1, 41, 0
4, 70944, Note_on_c, 1, 29, 0
4, 70944, Note_on_c, 1, 53, 89
4, 71033, Note_on_c, 1, 53, 0
4, 71136, Note_on_c, 1, 42, 89
4, 71136, Note_on_c, 1, 30, 89
4, 71225, Note_on_c, 1, 42, 0
4, 71225, Note_on_c, 1, 30, 0
4, 71424, Note_on_c, 1, 47, 89
4, 71424, Note_on_c, 1, 35, 89
4, 71513, Note_on_c, 1, 47, 0
4, 71513, Note_on_c, 1, 35, 0
4, 71520, Note_on_c, 1, 59, 64
4, 71520, Note_on_c, 1, 47, 64
4, 71609, Note_on_c, 1, 59, 0
4, 71609, Note_on_c, 1, 47, 0
4, 71760, Note_on_c, 1, 62, 64
4, 71760, Note_on_c, 1, 59, 64
4, 71805, Note_on_c, 1, 62, 0
4, 71805, Note_on_c, 1, 59, 0
4, 71808, Note_on_c, 1, 64, 64
4, 71808, Note_on_c, 1, 61, 64
4, 71853, Note_on_c, 1, 64, 0
4, 71853, Note_on_c, 1, 61, 0
4, 71856, Note_on_c, 1, 61, 64
4, 71856, Note_on_c, 1, 58, 64
4, 71901, Note_on_c, 1, 61, 0
4, 71901, Note_on_c, 1, 58, 0
4, 71904, Note_on_c, 1, 62, 64
4, 71904, Note_on_c, 1, 59, 64
4, 71943, Note_on_c, 1, 62, 0
4, 71943, Note_on_c, 1, 59, 0
4, 72144, Note_on_c, 1, 67, 64
4, 72144, Note_on_c, 1, 64, 64
4, 72189, Note_on_c, 1, 67, 0
4, 72189, Note_on_c, 1, 64, 0
4, 72192, Note_on_c, 1, 69, 64
4, 72192, Note_on_c, 1, 66, 64
4, 72237, Note_on_c, 1, 69, 0
4, 72237, Note_on_c, 1, 66, 0
4, 72240, Note_on_c, 1, 66, 64
4, 72240, Note_on_c, 1, 63, 64
4, 72285, Note_on_c, 1, 66, 0
4, 72285, Note_on_c, 1, 63, 0
4, 72288, Note_on_c, 1, 67, 64
4, 72288, Note_on_c, 1, 64, 64
4, 72327, Note_on_c, 1, 67, 0
4, 72327, Note_on_c, 1, 64, 0
4, 72624, Note_on_c, 1, 64, 64
4, 72624, Note_on_c, 1, 61, 64
4, 72669, Note_on_c, 1, 64, 0
4, 72669, Note_on_c, 1, 61, 0
4, 72672, Note_on_c, 1, 67, 64
4, 72672, Note_on_c, 1, 64, 64
4, 72717, Note_on_c, 1, 67, 0
4, 72717, Note_on_c, 1, 64, 0
4, 72720, Note_on_c, 1, 66, 64
4, 72720, Note_on_c, 1, 62, 64
4, 72765, Note_on_c, 1, 66, 0
4, 72765, Note_on_c, 1, 62, 0
4, 72768, Note_on_c, 1, 64, 64
4, 72768, Note_on_c, 1, 61, 64
4, 72813, Note_on_c, 1, 64, 0
4, 72813, Note_on_c, 1, 61, 0
4, 72816, Note_on_c, 1, 62, 64
4, 72816, Note_on_c, 1, 59, 64
4, 72861, Note_on_c, 1, 62, 0
4, 72861, Note_on_c, 1, 59, 0
4, 72864, Note_on_c, 1, 61, 64
4, 72864, Note_on_c, 1, 57, 64
4, 73005, Note_on_c, 1, 61, 0
4, 73005, Note_on_c, 1, 57, 0
4, 73008, Note_on_c, 1, 62, 66
4, 73008, Note_on_c, 1, 59, 66
4, 73053, Note_on_c, 1, 62, 0
4, 73053, Note_on_c, 1, 59, 0
4, 73056, Note_on_c, 1, 64, 68
4, 73056, Note_on_c, 1, 61, 68
4, 73101, Note_on_c, 1, 64, 0
4, 73101, Note_on_c, 1, 61, 0
4, 73104, Note_on_c, 1, 66, 70
4, 73104, Note_on_c, 1, 62, 70
4, 73149, Note_on_c, 1, 66, 0
4, 73149, Note_on_c, 1, 62, 0
4, 73152, Note_on_c, 1, 67, 72
4, 73152, Note_on_c, 1, 64, 72
4, 73573, Note_on_c, 1, 67, 0
4, 73573, Note_on_c, 1, 64, 0
4, 73776, Note_on_c, 1, 62, 78
4, 73821, Note_on_c, 1, 62, 0
4, 73824, Note_on_c, 1, 66, 78
4, 73869, Note_on_c, 1, 66, 0
4, 73872, Note_on_c, 1, 62, 78
4, 73917, Note_on_c, 1, 62, 0
4, 73920, Note_on_c, 1, 64, 78
4, 73965, Note_on_c, 1, 64, 0
4, 73968, Note_on_c, 1, 61, 78
4, 74013, Note_on_c, 1, 61, 0
4, 74016, Note_on_c, 1, 62, 78
4, 74061, Note_on_c, 1, 62, 0
4, 74064, Note_on_c, 1, 54, 79
4, 74109, Note_on_c, 1, 54, 0
4, 74112, Note_on_c, 1, 55, 80
4, 74157, Note_on_c, 1, 55, 0
4, 74160, Note_on_c, 1, 57, 81
4, 74205, Note_on_c, 1, 57, 0
4, 74208, Note_on_c, 1, 54, 82
4, 74253, Note_on_c, 1, 54, 0
4, 74256, Note_on_c, 1, 66, 83
4, 74301, Note_on_c, 1, 66, 0
4, 74304, Note_on_c, 1, 67, 84
4, 74393, Note_on_c, 1, 67, 0
4, 74400, Note_on_c, 1, 66, 82
4, 74445, Note_on_c, 1, 66, 0
4, 74448, Note_on_c, 1, 62, 81
4, 74493, Note_on_c, 1, 62, 0
4, 74496, Note_on_c, 1, 64, 80
4, 74541, Note_on_c, 1, 64, 0
4, 74544, Note_on_c, 1, 57, 79
4, 74589, Note_on_c, 1, 57, 0
4, 74592, Note_on_c, 1, 62, 78
4, 74681, Note_on_c, 1, 62, 0
4, 74688, Note_on_c, 1, 50, 78
4, 74777, Note_on_c, 1, 50, 0
4, 74928, Note_on_c, 1, 62, 78
4, 74973, Note_on_c, 1, 62, 0
4, 74976, Note_on_c, 1, 66, 78
4, 75021, Note_on_c, 1, 66, 0
4, 75024, Note_on_c, 1, 62, 78
4, 75069, Note_on_c, 1, 62, 0
4, 75072, Note_on_c, 1, 64, 79
4, 75117, Note_on_c, 1, 64, 0
4, 75120, Note_on_c, 1, 57, 79
4, 75165, Note_on_c, 1, 57, 0
4, 75168, Note_on_c, 1, 62, 79
4, 75213, Note_on_c, 1, 62, 0
4, 75216, Note_on_c, 1, 66, 79
4, 75261, Note_on_c, 1, 66, 0
4, 75264, Note_on_c, 1, 67, 80
4, 75309, Note_on_c, 1, 67, 0
4, 75312, Note_on_c, 1, 64, 80
4, 75357, Note_on_c, 1, 64, 0
4, 75360, Note_on_c, 1, 66, 80
4, 75405, Note_on_c, 1, 66, 0
4, 75408, Note_on_c, 1, 62, 81
4, 75453, Note_on_c, 1, 62, 0
4, 75456, Note_on_c, 1, 64, 81
4, 75501, Note_on_c, 1, 64, 0
4, 75504, Note_on_c, 1, 61, 81
4, 75549, Note_on_c, 1, 61, 0
4, 75552, Note_on_c, 1, 66, 81
4, 75597, Note_on_c, 1, 66, 0
4, 75600, Note_on_c, 1, 62, 82
4, 75645, Note_on_c, 1, 62, 0
4, 75648, Note_on_c, 1, 67, 82
4, 75687, Note_on_c, 1, 67, 0
4, 75744, Note_on_c, 1, 67, 82
4, 75759, Note_on_c, 1, 67, 0
4, 75760, Note_on_c, 1, 69, 82
4, 75775, Note_on_c, 1, 69, 0
4, 75776, Note_on_c, 1, 73, 83
4, 75791, Note_on_c, 1, 73, 0
4, 75840, Note_on_c, 1, 66, 83
4, 75879, Note_on_c, 1, 66, 0
4, 76080, Note_on_c, 1, 45, 78
4, 76125, Note_on_c, 1, 45, 0
4, 76128, Note_on_c, 1, 57, 78
4, 76173, Note_on_c, 1, 57, 0
4, 76176, Note_on_c, 1, 61, 78
4, 76221, Note_on_c, 1, 61, 0
4, 76224, Note_on_c, 1, 62, 78
4, 76313, Note_on_c, 1, 62, 0
4, 76368, Note_on_c, 1, 45, 78
4, 76413, Note_on_c, 1, 45, 0
4, 76416, Note_on_c, 1, 57, 78
4, 76461, Note_on_c, 1, 57, 0
4, 76464, Note_on_c, 1, 61, 78
4, 76509, Note_on_c, 1, 61, 0
4, 76512, Note_on_c, 1, 62, 78
4, 76601, Note_on_c, 1, 62, 0
4, 76656, Note_on_c, 1, 45, 78
4, 76701, Note_on_c, 1, 45, 0
4, 76704, Note_on_c, 1, 57, 78
4, 76749, Note_on_c, 1, 57, 0
4, 76752, Note_on_c, 1, 61, 78
4, 76797, Note_on_c, 1, 61, 0
4, 76800, Note_on_c, 1, 62, 78
4, 76889, Note_on_c, 1, 62, 0
4, 76944, Note_on_c, 1, 45, 78
4, 76989, Note_on_c, 1, 45, 0
4, 76992, Note_on_c, 1, 57, 78
4, 77037, Note_on_c, 1, 57, 0
4, 77040, Note_on_c, 1, 61, 78
4, 77085, Note_on_c, 1, 61, 0
4, 77088, Note_on_c, 1, 62, 78
4, 77133, Note_on_c, 1, 62, 0
4, 77136, Note_on_c, 1, 66, 78
4, 77181, Note_on_c, 1, 66, 0
4, 77184, Note_on_c, 1, 67, 78
4, 77273, Note_on_c, 1, 67, 0
4, 77472, Note_on_c, 1, 71, 78
4, 77472, Note_on_c, 1, 67, 78
4, 77561, Note_on_c, 1, 71, 0
4, 77561, Note_on_c, 1, 67, 0
4, 77760, Note_on_c, 1, 71, 78
4, 77760, Note_on_c, 1, 67, 78
4, 77849, Note_on_c, 1, 71, 0
4, 77849, Note_on_c, 1, 67, 0
4, 77952, Note_on_c, 1, 59, 82
4, 77952, Note_on_c, 1, 56, 82
4, 78041, Note_on_c, 1, 59, 0
4, 78041, Note_on_c, 1, 56, 0
4, 78048, Note_on_c, 1, 57, 84
4, 78137, Note_on_c, 1, 57, 0
4, 78144, Note_on_c, 1, 69, 84
4, 78183, Note_on_c, 1, 69, 0
4, 78240, Note_on_c, 1, 67, 84
4, 78279, Note_on_c, 1, 67, 0
4, 78336, Note_on_c, 1, 66, 84
4, 78375, Note_on_c, 1, 66, 0
4, 78432, Note_on_c, 1, 66, 84
4, 78471, Note_on_c, 1, 66, 0
4, 78528, Note_on_c, 1, 64, 84
4, 78567, Note_on_c, 1, 64, 0
4, 78624, Note_on_c, 1, 62, 84
4, 78713, Note_on_c, 1, 62, 0
4, 78720, Note_on_c, 1, 69, 84
4, 78759, Note_on_c, 1, 69, 0
4, 78816, Note_on_c, 1, 67, 84
4, 78855, Note_on_c, 1, 67, 0
4, 78912, Note_on_c, 1, 65, 84
4, 78951, Note_on_c, 1, 65, 0
4, 79008, Note_on_c, 1, 65, 84
4, 79047, Note_on_c, 1, 65, 0
4, 79104, Note_on_c, 1, 64, 84
4, 79143, Note_on_c, 1, 64, 0
4, 79200, Note_on_c, 1, 62, 84
4, 79289, Note_on_c, 1, 62, 0
4, 79296, Note_on_c, 1, 74, 84
4, 79335, Note_on_c, 1, 74, 0
4, 79392, Note_on_c, 1, 72, 84
4, 79481, Note_on_c, 1, 72, 0
4, 79488, Note_on_c, 1, 71, 84
4, 79577, Note_on_c, 1, 71, 0
4, 79584, Note_on_c, 1, 70, 84
4, 79623, Note_on_c, 1, 70, 0
4, 79680, Note_on_c, 1, 69, 84
4, 79769, Note_on_c, 1, 69, 0
4, 79776, Control_c, 1, 64, 127
4, 79776, Note_on_c, 1, 68, 84
4, 79865, Note_on_c, 1, 68, 0
4, 79872, Note_on_c, 1, 77, 84
4, 79911, Note_on_c, 1, 77, 0
4, 79968, Note_on_c, 1, 68, 84
4, 80057, Note_on_c, 1, 68, 0
4, 80064, Control_c, 1, 64, 0
4, 80064, Control_c, 1, 64, 127
4, 80064, Note_on_c, 1, 69, 84
4, 80153, Note_on_c, 1, 69, 0
4, 80160, Note_on_c, 1, 77, 84
4, 80199, Note_on_c, 1, 77, 0
4, 80256, Note_on_c, 1, 69, 84
4, 80345, Note_on_c, 1, 69, 0
4, 80352, Control_c, 1, 64, 0
4, 80352, Control_c, 1, 64, 127
4, 80352, Note_on_c, 1, 70, 84
4, 80441, Note_on_c, 1, 70, 0
4, 80448, Note_on_c, 1, 77, 84
4, 80487, Note_on_c, 1, 77, 0
4, 80544, Note_on_c, 1, 70, 84
4, 80633, Note_on_c, 1, 70, 0
4, 80640, Control_c, 1, 64, 0
4, 80640, Note_on_c, 1, 69, 84
4, 80729, Note_on_c, 1, 69, 0
4, 80736, Note_on_c, 1, 67, 84
4, 80736, Note_on_c, 1, 55, 84
4, 80825, Note_on_c, 1, 67, 0
4, 80825, Note_on_c, 1, 55, 0
4, 80832, Note_on_c, 1, 66, 84
4, 80832, Note_on_c, 1, 54, 84
4, 80921, Note_on_c, 1, 66, 0
4, 80921, Note_on_c, 1, 54, 0
4, 80928, Note_on_c, 1, 64, 84
4, 80928, Note_on_c, 1, 52, 84
4, 81017, Note_on_c, 1, 64, 0
4, 81017, Note_on_c, 1, 52, 0
4, 81024, Note_on_c, 1, 61, 84
4, 81024, Note_on_c, 1, 49, 84
4, 81113, Note_on_c, 1, 61, 0
4, 81113, Note_on_c, 1, 49, 0
4, 81120, Note_on_c, 1, 62, 84
4, 81120, Note_on_c, 1, 50, 84
4, 81209, Note_on_c, 1, 62, 0
4, 81209, Note_on_c, 1, 50, 0
4, 81216, Note_on_c, 1, 59, 84
4, 81216, Note_on_c, 1, 55, 84
4, 81305, Note_on_c, 1, 59, 0
4, 81305, Note_on_c, 1, 55, 0
4, 81600, Note_on_c, 1, 66, 78
4, 81600, Note_on_c, 1, 57, 78
4, 81689, Note_on_c, 1, 66, 0
4, 81689, Note_on_c, 1, 57, 0
4, 81696, Note_on_c, 1, 64, 78
4, 81696, Note_on_c, 1, 57, 78
4, 81785, Note_on_c, 1, 64, 0
4, 81785, Note_on_c, 1, 57, 0
4, 81792, Note_on_c, 1, 62, 78
4, 81792, Note_on_c, 1, 50, 78
4, 81881, Note_on_c, 1, 62, 0
4, 81881, Note_on_c, 1, 50, 0
4, 81936, Note_on_c, 1, 66, 64
4, 81981, Note_on_c, 1, 66, 0
4, 81984, Note_on_c, 1, 67, 64
4, 82029, Note_on_c, 1, 67, 0
4, 82032, Note_on_c, 1, 64, 64
4, 82077, Note_on_c, 1, 64, 0
4, 82080, Note_on_c, 1, 66, 64
4, 82125, Note_on_c, 1, 66, 0
4, 82128, Note_on_c, 1, 62, 64
4, 82173, Note_on_c, 1, 62, 0
4, 82176, Note_on_c, 1, 64, 64
4, 82221, Note_on_c, 1, 64, 0
4, 82224, Note_on_c, 1, 57, 64
4, 82269, Note_on_c, 1, 57, 0
4, 82272, Note_on_c, 1, 62, 65
4, 82317, Note_on_c, 1, 62, 0
4, 82320, Note_on_c, 1, 66, 66
4, 82365, Note_on_c, 1, 66, 0
4, 82368, Note_on_c, 1, 67, 68
4, 82413, Note_on_c, 1, 67, 0
4, 82416, Note_on_c, 1, 64, 69
4, 82461, Note_on_c, 1, 64, 0
4, 82464, Note_on_c, 1, 66, 70
4, 82509, Note_on_c, 1, 66, 0
4, 82512, Note_on_c, 1, 69, 72
4, 82557, Note_on_c, 1, 69, 0
4, 82560, Note_on_c, 1, 71, 73
4, 82605, Note_on_c, 1, 71, 0
4, 82608, Note_on_c, 1, 67, 74
4, 82653, Note_on_c, 1, 67, 0
4, 82656, Note_on_c, 1, 69, 76
4, 82701, Note_on_c, 1, 69, 0
4, 82704, Note_on_c, 1, 66, 77
4, 82749, Note_on_c, 1, 66, 0
4, 82752, Note_on_c, 1, 67, 78
4, 82797, Note_on_c, 1, 67, 0
4, 82800, Note_on_c, 1, 76, 80
4, 82845, Note_on_c, 1, 76, 0
4, 82848, Note_on_c, 1, 66, 81
4, 82893, Note_on_c, 1, 66, 0
4, 82896, Note_on_c, 1, 74, 82
4, 82941, Note_on_c, 1, 74, 0
4, 82944, Note_on_c, 1, 64, 84
4, 82989, Note_on_c, 1, 64, 0
4, 82992, Note_on_c, 1, 73, 84
4, 83037, Note_on_c, 1, 73, 0
4, 83040, Note_on_c, 1, 62, 84
4, 83129, Note_on_c, 1, 62, 0
4, 83520, Control_c, 1, 64, 127
4, 83520, Note_on_c, 1, 44, 100
4, 83520, Note_on_c, 1, 32, 100
4, 83616, Note_on_c, 1, 44, 0
4, 83616, Note_on_c, 1, 32, 0
4, 83616, Note_on_c, 1, 56, 84
4, 83655, Note_on_c, 1, 56, 0
4, 83712, Note_on_c, 1, 62, 84
4, 83751, Note_on_c, 1, 62, 0
4, 83808, Control_c, 1, 64, 0
4, 83808, Control_c, 1, 64, 127
4, 83808, Note_on_c, 1, 45, 100
4, 83808, Note_on_c, 1, 33, 100
4, 83904, Note_on_c, 1, 45, 0
4, 83904, Note_on_c, 1, 33, 0
4, 83904, Note_on_c, 1, 57, 84
4, 83943, Note_on_c, 1, 57, 0
4, 84000, Note_on_c, 1, 62, 84
4, 84039, Note_on_c, 1, 62, 0
4, 84096, Control_c, 1, 64, 0
4, 84096, Control_c, 1, 64, 127
4, 84096, Note_on_c, 1, 46, 100
4, 84096, Note_on_c, 1, 34, 100
4, 84192, Note_on_c, 1, 46, 0
4, 84192, Note_on_c, 1, 34, 0
4, 84192, Note_on_c, 1, 58, 84
4, 84231, Note_on_c, 1, 58, 0
4, 84288, Note_on_c, 1, 58, 84
4, 84327, Note_on_c, 1, 58, 0
4, 84384, Control_c, 1, 64, 0
4, 84384, Note_on_c, 1, 58, 84
4, 84423, Note_on_c, 1, 58, 0
4, 84480, Note_on_c, 1, 58, 84
4, 84519, Note_on_c, 1, 58, 0
4, 84576, Note_on_c, 1, 58, 84
4, 84615, Note_on_c, 1, 58, 0
4, 84672, Note_on_c, 1, 57, 84
4, 84761, Note_on_c, 1, 57, 0
4, 84768, Note_on_c, 1, 61, 84
4, 84857, Note_on_c, 1, 61, 0
4, 84864, Note_on_c, 1, 62, 84
4, 84953, Note_on_c, 1, 62, 0
4, 84960, Note_on_c, 1, 55, 84
4, 84960, Note_on_c, 1, 43, 84
4, 85049, Note_on_c, 1, 55, 0
4, 85049, Note_on_c, 1, 43, 0
4, 85056, Note_on_c, 1, 54, 84
4, 85056, Note_on_c, 1, 45, 84
4, 85145, Note_on_c, 1, 54, 0
4, 85145, Note_on_c, 1, 45, 0
4, 85152, Note_on_c, 1, 52, 84
4, 85152, Note_on_c, 1, 45, 84
4, 85241, Note_on_c, 1, 52, 0
4, 85241, Note_on_c, 1, 45, 0
4, 85248, Note_on_c, 1, 54, 84
4, 85271, Note_on_c, 1, 54, 0
4, 85272, Note_on_c, 1, 62, 84
4, 85295, Note_on_c, 1, 62, 0
4, 85296, Note_on_c, 1, 61, 84
4, 85319, Note_on_c, 1, 61, 0
4, 85320, Note_on_c, 1, 62, 84
4, 85343, Note_on_c, 1, 62, 0
4, 85344, Note_on_c, 1, 54, 84
4, 85367, Note_on_c, 1, 54, 0
4, 85368, Note_on_c, 1, 62, 84
4, 85391, Note_on_c, 1, 62, 0
4, 85392, Note_on_c, 1, 61, 84
4, 85415, Note_on_c, 1, 61, 0
4, 85416, Note_on_c, 1, 62, 84
4, 85439, Note_on_c, 1, 62, 0
4, 85440, Note_on_c, 1, 54, 84
4, 85463, Note_on_c, 1, 54, 0
4, 85464, Note_on_c, 1, 62, 84
4, 85487, Note_on_c, 1, 62, 0
4, 85488, Note_on_c, 1, 61, 84
4, 85511, Note_on_c, 1, 61, 0
4, 85512, Note_on_c, 1, 62, 84
4, 85535, Note_on_c, 1, 62, 0
4, 85536, Note_on_c, 1, 55, 78
4, 85559, Note_on_c, 1, 55, 0
4, 85560, Note_on_c, 1, 62, 77
4, 85583, Note_on_c, 1, 62, 0
4, 85584, Note_on_c, 1, 61, 76
4, 85607, Note_on_c, 1, 61, 0
4, 85608, Note_on_c, 1, 62, 76
4, 85631, Note_on_c, 1, 62, 0
4, 85632, Note_on_c, 1, 55, 75
4, 85655, Note_on_c, 1, 55, 0
4, 85656, Note_on_c, 1, 64, 75
4, 85679, Note_on_c, 1, 64, 0
4, 85680, Note_on_c, 1, 63, 74
4, 85703, Note_on_c, 1, 63, 0
4, 85704, Note_on_c, 1, 64, 73
4, 85727, Note_on_c, 1, 64, 0
4, 85728, Note_on_c, 1, 55, 73
4, 85751, Note_on_c, 1, 55, 0
4, 85752, Note_on_c, 1, 64, 72
4, 85775, Note_on_c, 1, 64, 0
4, 85776, Note_on_c, 1, 63, 72
4, 85799, Note_on_c, 1, 63, 0
4, 85800, Note_on_c, 1, 64, 71
4, 85823, Note_on_c, 1, 64, 0
4, 85824, Note_on_c, 1, 57, 71
4, 85847, Note_on_c, 1, 57, 0
4, 85848, Note_on_c, 1, 66, 70
4, 85871, Note_on_c, 1, 66, 0
4, 85872, Note_on_c, 1, 62, 69
4, 85895, Note_on_c, 1, 62, 0
4, 85896, Note_on_c, 1, 66, 69
4, 85919, Note_on_c, 1, 66, 0
4, 85920, Note_on_c, 1, 57, 68
4, 85943, Note_on_c, 1, 57, 0
4, 85944, Note_on_c, 1, 67, 68
4, 85967, Note_on_c, 1, 67, 0
4, 85968, Note_on_c, 1, 64, 67
4, 85991, Note_on_c, 1, 64, 0
4, 85992, Note_on_c, 1, 67, 66
4, 86015, Note_on_c, 1, 67, 0
4, 86016, Note_on_c, 1, 57, 66
4, 86039, Note_on_c, 1, 57, 0
4, 86040, Note_on_c, 1, 67, 65
4, 86063, Note_on_c, 1, 67, 0
4, 86064, Note_on_c, 1, 64, 65
4, 86087, Note_on_c, 1, 64, 0
4, 86088, Note_on_c, 1, 67, 64
4, 86111, Note_on_c, 1, 67, 0
4, 86112, Note_on_c, 1, 66, 64
4, 86112, Note_on_c, 1, 59, 64
4, 86267, Note_on_c, 1, 66, 0
4, 86267, Note_on_c, 1, 59, 0
4, 86400, Note_on_c, 1, 55, 64
4, 86533, Note_on_c, 1, 55, 0
4, 86544, Note_on_c, 1, 52, 66
4, 86589, Note_on_c, 1, 52, 0
4, 86592, Note_on_c, 1, 54, 67
4, 86637, Note_on_c, 1, 54, 0
4, 86640, Note_on_c, 1, 62, 68
4, 86685, Note_on_c, 1, 62, 0
4, 86688, Note_on_c, 1, 61, 69
4, 86821, Note_on_c, 1, 61, 0
4, 86832, Note_on_c, 1, 64, 71
4, 86877, Note_on_c, 1, 64, 0
4, 86880, Note_on_c, 1, 62, 72
4, 86925, Note_on_c, 1, 62, 0
4, 86928, Note_on_c, 1, 66, 73
4, 86973, Note_on_c, 1, 66, 0
4, 86976, Note_on_c, 1, 67, 74
4, 87109, Note_on_c, 1, 67, 0
4, 87120, Note_on_c, 1, 64, 76
4, 87165, Note_on_c, 1, 64, 0
4, 87168, Note_on_c, 1, 66, 77
4, 87213, Note_on_c, 1, 66, 0
4, 87216, Note_on_c, 1, 62, 78
4, 87261, Note_on_c, 1, 62, 0
4, 87264, Note_on_c, 1, 61, 79
4, 87397, Note_on_c, 1, 61, 0
4, 87408, Note_on_c, 1, 64, 81
4, 87453, Note_on_c, 1, 64, 0
4, 87456, Note_on_c, 1, 62, 82
4, 87545, Note_on_c, 1, 62, 0
4, 87552, Note_on_c, 1, 62, 84
4, 87552, Note_on_c, 1, 59, 84
4, 87552, Note_on_c, 1, 55, 84
4, 87641, Note_on_c, 1, 62, 0
4, 87641, Note_on_c, 1, 59, 0
4, 87641, Note_on_c, 1, 55, 0
4, 87840, Note_on_c, 1, 65, 84
4, 87840, Note_on_c, 1, 62, 84
4, 87840, Note_on_c, 1, 59, 84
4, 87840, Note_on_c, 1, 56, 84
4, 87929, Note_on_c, 1, 65, 0
4, 87929, Note_on_c, 1, 62, 0
4, 87929, Note_on_c, 1, 59, 0
4, 87929, Note_on_c, 1, 56, 0
4, 88128, Note_on_c, 1, 57, 84
4, 88151, Note_on_c, 1, 57, 0
4, 88152, Note_on_c, 1, 66, 84
4, 88175, Note_on_c, 1, 66, 0
4, 88176, Note_on_c, 1, 62, 84
4, 88199, Note_on_c, 1, 62, 0
4, 88200, Note_on_c, 1, 66, 84
4, 88223, Note_on_c, 1, 66, 0
4, 88224, Note_on_c, 1, 57, 84
4, 88247, Note_on_c, 1, 57, 0
4, 88248, Note_on_c, 1, 67, 84
4, 88271, Note_on_c, 1, 67, 0
4, 88272, Note_on_c, 1, 64, 84
4, 88295, Note_on_c, 1, 64, 0
4, 88296, Note_on_c, 1, 67, 84
4, 88319, Note_on_c, 1, 67, 0
4, 88320, Note_on_c, 1, 57, 84
4, 88343, Note_on_c, 1, 57, 0
4, 88344, Note_on_c, 1, 67, 82
4, 88367, Note_on_c, 1, 67, 0
4, 88368, Note_on_c, 1, 64, 81
4, 88391, Note_on_c, 1, 64, 0
4, 88392, Note_on_c, 1, 67, 79
4, 88415, Note_on_c, 1, 67, 0
4, 88416, Note_on_c, 1, 54, 78
4, 88439, Note_on_c, 1, 54, 0
4, 88440, Note_on_c, 1, 62, 78
4, 88463, Note_on_c, 1, 62, 0
4, 88464, Note_on_c, 1, 61, 78
4, 88487, Note_on_c, 1, 61, 0
4, 88488, Note_on_c, 1, 62, 78
4, 88511, Note_on_c, 1, 62, 0
4, 88512, Note_on_c, 1, 54, 78
4, 88535, Note_on_c, 1, 54, 0
4, 88536, Note_on_c, 1, 62, 78
4, 88559, Note_on_c, 1, 62, 0
4, 88560, Note_on_c, 1, 61, 78
4, 88583, Note_on_c, 1, 61, 0
4, 88584, Note_on_c, 1, 62, 78
4, 88607, Note_on_c, 1, 62, 0
4, 88608, Note_on_c, 1, 54, 78
4, 88631, Note_on_c, 1, 54, 0
4, 88632, Note_on_c, 1, 62, 78
4, 88655, Note_on_c, 1, 62, 0
4, 88656, Note_on_c, 1, 61, 78
4, 88679, Note_on_c, 1, 61, 0
4, 88680, Note_on_c, 1, 62, 78
4, 88703, Note_on_c, 1, 62, 0
4, 88704, Note_on_c, 1, 55, 78
4, 88727, Note_on_c, 1, 55, 0
4, 88728, Note_on_c, 1, 62, 78
4, 88751, Note_on_c, 1, 62, 0
4, 88752, Note_on_c, 1, 61, 78
4, 88775, Note_on_c, 1, 61, 0
4, 88776, Note_on_c, 1, 62, 78
4, 88799, Note_on_c, 1, 62, 0
4, 88800, Note_on_c, 1, 55, 78
4, 88823, Note_on_c, 1, 55, 0
4, 88824, Note_on_c, 1, 64, 78
4, 88847, Note_on_c, 1, 64, 0
4, 88848, Note_on_c, 1, 63, 78
4, 88871, Note_on_c, 1, 63, 0
4, 88872, Note_on_c, 1, 64, 78
4, 88895, Note_on_c, 1, 64, 0
4, 88896, Note_on_c, 1, 55, 78
4, 88919, Note_on_c, 1, 55, 0
4, 88920, Note_on_c, 1, 64, 78
4, 88943, Note_on_c, 1, 64, 0
4, 88944, Note_on_c, 1, 63, 78
4, 88967, Note_on_c, 1, 63, 0
4, 88968, Note_on_c, 1, 64, 78
4, 88991, Note_on_c, 1, 64, 0
4, 88992, Note_on_c, 1, 57, 78
4, 89015, Note_on_c, 1, 57, 0
4, 89016, Note_on_c, 1, 66, 78
4, 89039, Note_on_c, 1, 66, 0
4, 89040, Note_on_c, 1, 62, 78
4, 89063, Note_on_c, 1, 62, 0
4, 89064, Note_on_c, 1, 66, 78
4, 89087, Note_on_c, 1, 66, 0
4, 89088, Note_on_c, 1, 57, 78
4, 89111, Note_on_c, 1, 57, 0
4, 89112, Note_on_c, 1, 67, 78
4, 89135, Note_on_c, 1, 67, 0
4, 89136, Note_on_c, 1, 64, 78
4, 89159, Note_on_c, 1, 64, 0
4, 89160, Note_on_c, 1, 67, 78
4, 89183, Note_on_c, 1, 67, 0
4, 89184, Note_on_c, 1, 57, 78
4, 89207, Note_on_c, 1, 57, 0
4, 89208, Note_on_c, 1, 67, 78
4, 89231, Note_on_c, 1, 67, 0
4, 89232, Note_on_c, 1, 64, 78
4, 89255, Note_on_c, 1, 64, 0
4, 89256, Note_on_c, 1, 67, 78
4, 89279, Note_on_c, 1, 67, 0
4, 89280, Note_on_c, 1, 66, 78
4, 89280, Note_on_c, 1, 62, 78
4, 89369, Note_on_c, 1, 66, 0
4, 89369, Note_on_c, 1, 62, 0
4, 89424, Note_on_c, 1, 62, 78
4, 89444, Note_on_c, 1, 62, 0
4, 89472, Note_on_c, 1, 61, 78
4, 89492, Note_on_c, 1, 61, 0
4, 89520, Note_on_c, 1, 57, 78
4, 89540, Note_on_c, 1, 57, 0
4, 89568, Note_on_c, 1, 62, 78
4, 89607, Note_on_c, 1, 62, 0
4, 89712, Note_on_c, 1, 62, 78
4, 89732, Note_on_c, 1, 62, 0
4, 89760, Note_on_c, 1, 64, 78
4, 89780, Note_on_c, 1, 64, 0
4, 89808, Note_on_c, 1, 64, 78
4, 89808, Note_on_c, 1, 57, 78
4, 89828, Note_on_c, 1, 64, 0
4, 89828, Note_on_c, 1, 57, 0
4, 89856, Note_on_c, 1, 62, 78
4, 89945, Note_on_c, 1, 62, 0
4, 90048, Note_on_c, 1, 62, 0
4, 90137, Note_on_c, 1, 62, 0
4, 90144, End_track
5, 0, Start_track
5, 0, Program_c, 1, 0
5, 0, Control_c, 1, 7, 127
5, 0, Control_c, 1, 10, 64
5, 4032, Note_on_c, 1, 69, 64
5, 4209, Note_on_c, 1, 69, 0
5, 18720, Note_on_c, 1, 69, 64
5, 18897, Note_on_c, 1, 69, 0
5, 29664, Note_on_c, 1, 57, 78
5, 30793, Note_on_c, 1, 57, 0
5, 30816, Note_on_c, 1, 62, 78
5, 32145, Note_on_c, 1, 62, 0
5, 32160, Note_on_c, 1, 63, 78
5, 32249, Note_on_c, 1, 63, 0
5, 32256, Note_on_c, 1, 64, 78
5, 32589, Note_on_c, 1, 64, 0
5, 32592, Note_on_c, 1, 67, 78
5, 32637, Note_on_c, 1, 67, 0
5, 32640, Note_on_c, 1, 62, 78
5, 32685, Note_on_c, 1, 62, 0
5, 32688, Note_on_c, 1, 66, 78
5, 32733, Note_on_c, 1, 66, 0
5, 32736, Note_on_c, 1, 61, 78
5, 32781, Note_on_c, 1, 61, 0
5, 32784, Note_on_c, 1, 70, 78
5, 32829, Note_on_c, 1, 70, 0
5, 56160, Note_on_c, 1, 49, 64
5, 56293, Note_on_c, 1, 49, 0
5, 56304, Note_on_c, 1, 52, 66
5, 56349, Note_on_c, 1, 52, 0
5, 56448, Note_on_c, 1, 55, 69
5, 56625, Note_on_c, 1, 55, 0
5, 56640, Note_on_c, 1, 54, 72
5, 56729, Note_on_c, 1, 54, 0
5, 56736, Note_on_c, 1, 61, 74
5, 56869, Note_on_c, 1, 61, 0
5, 56880, Note_on_c, 1, 64, 76
5, 56925, Note_on_c, 1, 64, 0
5, 56928, Note_on_c, 1, 66, 77
5, 56973, Note_on_c, 1, 66, 0
5, 56976, Note_on_c, 1, 54, 78
5, 57021, Note_on_c, 1, 54, 0
5, 57024, Note_on_c, 1, 52, 79
5, 57157, Note_on_c, 1, 52, 0
5, 57168, Note_on_c, 1, 55, 81
5, 57213, Note_on_c, 1, 55, 0
5, 57216, Note_on_c, 1, 54, 82
5, 57305, Note_on_c, 1, 54, 0
5, 59904, Note_on_c, 1, 57, 78
5, 61033, Note_on_c, 1, 57, 0
5, 61056, Note_on_c, 1, 62, 78
5, 62385, Note_on_c, 1, 62, 0
5, 62400, Note_on_c, 1, 63, 78
5, 62489, Note_on_c, 1, 63, 0
5, 62496, Note_on_c, 1, 64, 78
5, 62829, Note_on_c, 1, 64, 0
5, 62832, Note_on_c, 1, 67, 78
5, 62877, Note_on_c, 1, 67, 0
5, 62880, Note_on_c, 1, 62, 78
5, 62925, Note_on_c, 1, 62, 0
5, 62928, Note_on_c, 1, 66, 78
5, 62973, Note_on_c, 1, 66, 0
5, 62976, Note_on_c, 1, 61, 78
5, 63021, Note_on_c, 1, 61, 0
5, 63024, Note_on_c, 1, 70, 78
5, 63069, Note_on_c, 1, 70, 0
5, 86400, Note_on_c, 1, 49, 64
5, 86533, Note_on_c, 1, 49, 0
5, 86544, Note_on_c, 1, 52, 66
5, 86589, Note_on_c, 1, 52, 0
5, 86688, Note_on_c, 1, 55, 69
5, 86865, Note_on_c, 1, 55, 0
5, 86880, Note_on_c, 1, 54, 72
5, 86969, Note_on_c, 1, 54, 0
5, 86976, Note_on_c, 1, 61, 74
5, 87109, Note_on_c, 1, 61, 0
5, 87120, Note_on_c, 1, 64, 76
5, 87165, Note_on_c, 1, 64, 0
5, 87168, Note_on_c, 1, 66, 77
5, 87213, Note_on_c, 1, 66, 0
5, 87216, Note_on_c, 1, 54, 78
5, 87261, Note_on_c, 1, 54, 0
5, 87264, Note_on_c, 1, 52, 79
5, 87397, Note_on_c, 1, 52, 0
5, 87408, Note_on_c, 1, 55, 81
5, 87453, Note_on_c, 1, 55, 0
5, 87456, Note_on_c, 1, 54, 82
5, 87545, Note_on_c, 1, 54, 0
5, 90144, End_track
6, 0, Start_track
6, 0, Title_t, "Sonata I   Haydn  "
6, 0, End_track
0, 0, End_of_file
