0, 0, Header, 1, 6, 96
1, 0, Start_track
1, 0, Copyright_t, "Copyright  1994-2002 Mozart Music Software"
1, 0, Text_t, "Piano Solo\015\012"
1, 0, Text_t, "<composer>\015\012"
1, 0, Sequencer_specific, 16, 68, 87, 77, 90, 86, 82, 83, 78, 32, 55, 46, 48, 46, 55, 46, 48
1, 0, Time_signature, 2, 2, 24, 8
1, 0, Tempo, 1000000
1, 0, Key_signature, -2, "major"
1, 96, Tempo, 120000
1, 144, Tempo, 1000000
1, 4560, Tempo, 1000000
1, 10488, Tempo, 1333333
1, 10536, Tempo, 1000000
1, 16824, Tempo, 1333333
1, 16872, Tempo, 1000000
1, 21696, End_track
2, 0, Start_track
2, 0, Program_c, 0, 0
2, 0, Control_c, 0, 7, 127
2, 0, Control_c, 0, 10, 64
2, 144, Note_on_c, 0, 79, 86
2, 192, Note_on_c, 0, 79, 0
2, 192, Note_on_c, 0, 77, 70
2, 215, Note_on_c, 0, 77, 0
2, 216, Note_on_c, 0, 75, 70
2, 239, Note_on_c, 0, 75, 0
2, 240, Note_on_c, 0, 74, 70
2, 263, Note_on_c, 0, 74, 0
2, 264, Note_on_c, 0, 72, 70
2, 287, Note_on_c, 0, 72, 0
2, 288, Note_on_c, 0, 72, 71
2, 333, Note_on_c, 0, 72, 0
2, 336, Note_on_c, 0, 72, 73
2, 381, Note_on_c, 0, 72, 0
2, 384, Note_on_c, 0, 71, 75
2, 418, Note_on_c, 0, 71, 0
2, 420, Note_on_c, 0, 72, 73
2, 426, Note_on_c, 0, 72, 0
2, 426, Note_on_c, 0, 74, 72
2, 432, Note_on_c, 0, 74, 0
2, 432, Note_on_c, 0, 72, 72
2, 477, Note_on_c, 0, 72, 0
2, 480, Note_on_c, 0, 68, 86
2, 480, Note_on_c, 0, 65, 86
2, 576, Note_on_c, 0, 68, 0
2, 576, Note_on_c, 0, 65, 0
2, 576, Note_on_c, 0, 67, 70
2, 576, Note_on_c, 0, 63, 70
2, 621, Note_on_c, 0, 67, 0
2, 621, Note_on_c, 0, 63, 0
2, 624, Note_on_c, 0, 72, 70
2, 658, Note_on_c, 0, 72, 0
2, 660, Note_on_c, 0, 60, 70
2, 672, Note_on_c, 0, 60, 0
2, 672, Note_on_c, 0, 63, 70
2, 695, Note_on_c, 0, 63, 0
2, 696, Note_on_c, 0, 62, 69
2, 719, Note_on_c, 0, 62, 0
2, 720, Note_on_c, 0, 60, 68
2, 743, Note_on_c, 0, 60, 0
2, 744, Note_on_c, 0, 59, 68
2, 767, Note_on_c, 0, 59, 0
2, 768, Note_on_c, 0, 60, 67
2, 813, Note_on_c, 0, 60, 0
2, 816, Note_on_c, 0, 55, 62
2, 861, Note_on_c, 0, 55, 0
2, 912, Note_on_c, 0, 79, 70
2, 957, Note_on_c, 0, 79, 0
2, 960, Note_on_c, 0, 77, 70
2, 983, Note_on_c, 0, 77, 0
2, 984, Note_on_c, 0, 75, 70
2, 1007, Note_on_c, 0, 75, 0
2, 1008, Note_on_c, 0, 74, 70
2, 1031, Note_on_c, 0, 74, 0
2, 1032, Note_on_c, 0, 72, 70
2, 1055, Note_on_c, 0, 72, 0
2, 1056, Note_on_c, 0, 72, 70
2, 1101, Note_on_c, 0, 72, 0
2, 1104, Note_on_c, 0, 72, 71
2, 1149, Note_on_c, 0, 72, 0
2, 1152, Note_on_c, 0, 72, 72
2, 1164, Note_on_c, 0, 72, 0
2, 1164, Note_on_c, 0, 84, 88
2, 1248, Note_on_c, 0, 84, 0
2, 1248, Note_on_c, 0, 82, 74
2, 1271, Note_on_c, 0, 82, 0
2, 1272, Note_on_c, 0, 81, 74
2, 1295, Note_on_c, 0, 81, 0
2, 1296, Note_on_c, 0, 79, 75
2, 1319, Note_on_c, 0, 79, 0
2, 1320, Note_on_c, 0, 78, 74
2, 1343, Note_on_c, 0, 78, 0
2, 1344, Note_on_c, 0, 79, 73
2, 1378, Note_on_c, 0, 79, 0
2, 1380, Note_on_c, 0, 74, 72
2, 1392, Note_on_c, 0, 74, 0
2, 1392, Note_on_c, 0, 77, 72
2, 1404, Note_on_c, 0, 77, 0
2, 1404, Note_on_c, 0, 75, 72
2, 1416, Note_on_c, 0, 75, 0
2, 1416, Note_on_c, 0, 74, 71
2, 1428, Note_on_c, 0, 74, 0
2, 1428, Note_on_c, 0, 72, 71
2, 1440, Note_on_c, 0, 72, 0
2, 1440, Note_on_c, 0, 70, 71
2, 1485, Note_on_c, 0, 70, 0
2, 1488, Note_on_c, 0, 69, 70
2, 1495, Note_on_c, 0, 69, 0
2, 1495, Note_on_c, 0, 70, 70
2, 1502, Note_on_c, 0, 70, 0
2, 1502, Note_on_c, 0, 69, 70
2, 1509, Note_on_c, 0, 69, 0
2, 1509, Note_on_c, 0, 70, 70
2, 1516, Note_on_c, 0, 70, 0
2, 1516, Note_on_c, 0, 69, 70
2, 1523, Note_on_c, 0, 69, 0
2, 1523, Note_on_c, 0, 67, 70
2, 1530, Note_on_c, 0, 67, 0
2, 1530, Note_on_c, 0, 69, 70
2, 1536, Note_on_c, 0, 69, 0
2, 1536, Note_on_c, 0, 67, 70
2, 1625, Note_on_c, 0, 67, 0
2, 1728, Note_on_c, 0, 75, 70
2, 1734, Note_on_c, 0, 75, 0
2, 1734, Note_on_c, 0, 74, 70
2, 1740, Note_on_c, 0, 74, 0
2, 1740, Note_on_c, 0, 73, 70
2, 1746, Note_on_c, 0, 73, 0
2, 1746, Note_on_c, 0, 74, 70
2, 1817, Note_on_c, 0, 74, 0
2, 1824, Note_on_c, 0, 81, 70
2, 1830, Note_on_c, 0, 81, 0
2, 1830, Note_on_c, 0, 82, 70
2, 1836, Note_on_c, 0, 82, 0
2, 1836, Note_on_c, 0, 84, 70
2, 1891, Note_on_c, 0, 84, 0
2, 1896, Note_on_c, 0, 82, 70
2, 1908, Note_on_c, 0, 82, 0
2, 1908, Note_on_c, 0, 81, 70
2, 1920, Note_on_c, 0, 81, 0
2, 1920, Note_on_c, 0, 79, 70
2, 1968, Note_on_c, 0, 79, 0
2, 1968, Note_on_c, 0, 74, 70
2, 2013, Note_on_c, 0, 74, 0
2, 2112, Note_on_c, 0, 75, 62
2, 2118, Note_on_c, 0, 75, 0
2, 2118, Note_on_c, 0, 74, 62
2, 2124, Note_on_c, 0, 74, 0
2, 2124, Note_on_c, 0, 73, 62
2, 2130, Note_on_c, 0, 73, 0
2, 2130, Note_on_c, 0, 74, 62
2, 2201, Note_on_c, 0, 74, 0
2, 2208, Note_on_c, 0, 81, 62
2, 2214, Note_on_c, 0, 81, 0
2, 2214, Note_on_c, 0, 82, 62
2, 2220, Note_on_c, 0, 82, 0
2, 2220, Note_on_c, 0, 84, 62
2, 2275, Note_on_c, 0, 84, 0
2, 2280, Note_on_c, 0, 82, 62
2, 2292, Note_on_c, 0, 82, 0
2, 2292, Note_on_c, 0, 81, 62
2, 2304, Note_on_c, 0, 81, 0
2, 2304, Note_on_c, 0, 79, 62
2, 2352, Note_on_c, 0, 79, 0
2, 2352, Note_on_c, 0, 74, 62
2, 2397, Note_on_c, 0, 74, 0
2, 2496, Note_on_c, 0, 84, 75
2, 2503, Note_on_c, 0, 84, 0
2, 2503, Note_on_c, 0, 82, 75
2, 2510, Note_on_c, 0, 82, 0
2, 2510, Note_on_c, 0, 84, 75
2, 2517, Note_on_c, 0, 84, 0
2, 2517, Note_on_c, 0, 82, 75
2, 2524, Note_on_c, 0, 82, 0
2, 2524, Note_on_c, 0, 84, 75
2, 2531, Note_on_c, 0, 84, 0
2, 2531, Note_on_c, 0, 82, 75
2, 2538, Note_on_c, 0, 82, 0
2, 2538, Note_on_c, 0, 84, 75
2, 2545, Note_on_c, 0, 84, 0
2, 2545, Note_on_c, 0, 82, 75
2, 2552, Note_on_c, 0, 82, 0
2, 2552, Note_on_c, 0, 84, 75
2, 2559, Note_on_c, 0, 84, 0
2, 2559, Note_on_c, 0, 82, 75
2, 2566, Note_on_c, 0, 82, 0
2, 2566, Note_on_c, 0, 84, 75
2, 2573, Note_on_c, 0, 84, 0
2, 2573, Note_on_c, 0, 82, 75
2, 2580, Note_on_c, 0, 82, 0
2, 2580, Note_on_c, 0, 81, 75
2, 2586, Note_on_c, 0, 81, 0
2, 2586, Note_on_c, 0, 79, 75
2, 2592, Note_on_c, 0, 79, 0
2, 2592, Note_on_c, 0, 77, 75
2, 2664, Note_on_c, 0, 77, 0
2, 2664, Note_on_c, 0, 78, 79
2, 2687, Note_on_c, 0, 78, 0
2, 2688, Note_on_c, 0, 81, 81
2, 2694, Note_on_c, 0, 81, 0
2, 2694, Note_on_c, 0, 79, 81
2, 2700, Note_on_c, 0, 79, 0
2, 2700, Note_on_c, 0, 78, 81
2, 2706, Note_on_c, 0, 78, 0
2, 2706, Note_on_c, 0, 79, 81
2, 2733, Note_on_c, 0, 79, 0
2, 2784, Note_on_c, 0, 81, 81
2, 2790, Note_on_c, 0, 81, 0
2, 2790, Note_on_c, 0, 79, 81
2, 2796, Note_on_c, 0, 79, 0
2, 2796, Note_on_c, 0, 78, 81
2, 2802, Note_on_c, 0, 78, 0
2, 2802, Note_on_c, 0, 79, 81
2, 2829, Note_on_c, 0, 79, 0
2, 2880, Note_on_c, 0, 84, 70
2, 2887, Note_on_c, 0, 84, 0
2, 2887, Note_on_c, 0, 82, 70
2, 2894, Note_on_c, 0, 82, 0
2, 2894, Note_on_c, 0, 84, 70
2, 2901, Note_on_c, 0, 84, 0
2, 2901, Note_on_c, 0, 82, 70
2, 2908, Note_on_c, 0, 82, 0
2, 2908, Note_on_c, 0, 84, 70
2, 2915, Note_on_c, 0, 84, 0
2, 2915, Note_on_c, 0, 82, 70
2, 2922, Note_on_c, 0, 82, 0
2, 2922, Note_on_c, 0, 84, 70
2, 2929, Note_on_c, 0, 84, 0
2, 2929, Note_on_c, 0, 82, 70
2, 2936, Note_on_c, 0, 82, 0
2, 2936, Note_on_c, 0, 84, 70
2, 2943, Note_on_c, 0, 84, 0
2, 2943, Note_on_c, 0, 82, 70
2, 2950, Note_on_c, 0, 82, 0
2, 2950, Note_on_c, 0, 84, 70
2, 2957, Note_on_c, 0, 84, 0
2, 2957, Note_on_c, 0, 82, 70
2, 2964, Note_on_c, 0, 82, 0
2, 2964, Note_on_c, 0, 81, 70
2, 2970, Note_on_c, 0, 81, 0
2, 2970, Note_on_c, 0, 79, 70
2, 2976, Note_on_c, 0, 79, 0
2, 2976, Note_on_c, 0, 77, 70
2, 3048, Note_on_c, 0, 77, 0
2, 3048, Note_on_c, 0, 78, 73
2, 3071, Note_on_c, 0, 78, 0
2, 3072, Note_on_c, 0, 81, 75
2, 3078, Note_on_c, 0, 81, 0
2, 3078, Note_on_c, 0, 79, 75
2, 3084, Note_on_c, 0, 79, 0
2, 3084, Note_on_c, 0, 78, 75
2, 3090, Note_on_c, 0, 78, 0
2, 3090, Note_on_c, 0, 79, 75
2, 3117, Note_on_c, 0, 79, 0
2, 3168, Note_on_c, 0, 81, 75
2, 3174, Note_on_c, 0, 81, 0
2, 3174, Note_on_c, 0, 79, 75
2, 3180, Note_on_c, 0, 79, 0
2, 3180, Note_on_c, 0, 78, 75
2, 3186, Note_on_c, 0, 78, 0
2, 3186, Note_on_c, 0, 79, 75
2, 3213, Note_on_c, 0, 79, 0
2, 3264, Note_on_c, 0, 84, 75
2, 3271, Note_on_c, 0, 84, 0
2, 3271, Note_on_c, 0, 82, 75
2, 3278, Note_on_c, 0, 82, 0
2, 3278, Note_on_c, 0, 84, 75
2, 3285, Note_on_c, 0, 84, 0
2, 3285, Note_on_c, 0, 82, 75
2, 3292, Note_on_c, 0, 82, 0
2, 3292, Note_on_c, 0, 84, 75
2, 3299, Note_on_c, 0, 84, 0
2, 3299, Note_on_c, 0, 82, 75
2, 3306, Note_on_c, 0, 82, 0
2, 3306, Note_on_c, 0, 84, 75
2, 3313, Note_on_c, 0, 84, 0
2, 3313, Note_on_c, 0, 82, 75
2, 3320, Note_on_c, 0, 82, 0
2, 3320, Note_on_c, 0, 84, 75
2, 3327, Note_on_c, 0, 84, 0
2, 3327, Note_on_c, 0, 82, 75
2, 3334, Note_on_c, 0, 82, 0
2, 3334, Note_on_c, 0, 84, 75
2, 3341, Note_on_c, 0, 84, 0
2, 3341, Note_on_c, 0, 82, 75
2, 3348, Note_on_c, 0, 82, 0
2, 3348, Note_on_c, 0, 81, 75
2, 3354, Note_on_c, 0, 81, 0
2, 3354, Note_on_c, 0, 79, 75
2, 3360, Note_on_c, 0, 79, 0
2, 3360, Note_on_c, 0, 77, 75
2, 3471, Note_on_c, 0, 77, 0
2, 3472, Note_on_c, 0, 78, 91
2, 3488, Note_on_c, 0, 78, 0
2, 3488, Note_on_c, 0, 79, 75
2, 3503, Note_on_c, 0, 79, 0
2, 3504, Note_on_c, 0, 77, 75
2, 3516, Note_on_c, 0, 77, 0
2, 3516, Note_on_c, 0, 75, 75
2, 3528, Note_on_c, 0, 75, 0
2, 3528, Note_on_c, 0, 74, 75
2, 3540, Note_on_c, 0, 74, 0
2, 3540, Note_on_c, 0, 72, 75
2, 3552, Note_on_c, 0, 72, 0
2, 3552, Note_on_c, 0, 70, 75
2, 3597, Note_on_c, 0, 70, 0
2, 3600, Note_on_c, 0, 69, 75
2, 3607, Note_on_c, 0, 69, 0
2, 3607, Note_on_c, 0, 70, 75
2, 3614, Note_on_c, 0, 70, 0
2, 3614, Note_on_c, 0, 69, 75
2, 3621, Note_on_c, 0, 69, 0
2, 3621, Note_on_c, 0, 70, 75
2, 3628, Note_on_c, 0, 70, 0
2, 3628, Note_on_c, 0, 69, 75
2, 3635, Note_on_c, 0, 69, 0
2, 3635, Note_on_c, 0, 67, 75
2, 3642, Note_on_c, 0, 67, 0
2, 3642, Note_on_c, 0, 69, 75
2, 3648, Note_on_c, 0, 69, 0
2, 3648, Note_on_c, 0, 70, 75
2, 3737, Note_on_c, 0, 70, 0
2, 3744, Note_on_c, 0, 84, 75
2, 3756, Note_on_c, 0, 84, 0
2, 3756, Note_on_c, 0, 75, 75
2, 3834, Note_on_c, 0, 75, 0
2, 3840, Note_on_c, 0, 74, 75
2, 3852, Note_on_c, 0, 74, 0
2, 3852, Note_on_c, 0, 82, 75
2, 3930, Note_on_c, 0, 82, 0
2, 3936, Note_on_c, 0, 84, 70
2, 3948, Note_on_c, 0, 84, 0
2, 3948, Note_on_c, 0, 75, 70
2, 4026, Note_on_c, 0, 75, 0
2, 4032, Note_on_c, 0, 74, 70
2, 4044, Note_on_c, 0, 74, 0
2, 4044, Note_on_c, 0, 82, 70
2, 4122, Note_on_c, 0, 82, 0
2, 4128, Note_on_c, 0, 84, 75
2, 4140, Note_on_c, 0, 84, 0
2, 4140, Note_on_c, 0, 75, 75
2, 4218, Note_on_c, 0, 75, 0
2, 4224, Note_on_c, 0, 74, 75
2, 4239, Note_on_c, 0, 74, 0
2, 4240, Note_on_c, 0, 82, 74
2, 4255, Note_on_c, 0, 82, 0
2, 4256, Note_on_c, 0, 78, 73
2, 4271, Note_on_c, 0, 78, 0
2, 4272, Note_on_c, 0, 79, 73
2, 4287, Note_on_c, 0, 79, 0
2, 4288, Note_on_c, 0, 75, 72
2, 4303, Note_on_c, 0, 75, 0
2, 4304, Note_on_c, 0, 72, 72
2, 4319, Note_on_c, 0, 72, 0
2, 4320, Note_on_c, 0, 70, 71
2, 4365, Note_on_c, 0, 70, 0
2, 4368, Note_on_c, 0, 69, 69
2, 4375, Note_on_c, 0, 69, 0
2, 4375, Note_on_c, 0, 70, 69
2, 4382, Note_on_c, 0, 70, 0
2, 4382, Note_on_c, 0, 69, 68
2, 4389, Note_on_c, 0, 69, 0
2, 4389, Note_on_c, 0, 70, 68
2, 4396, Note_on_c, 0, 70, 0
2, 4396, Note_on_c, 0, 69, 68
2, 4403, Note_on_c, 0, 69, 0
2, 4403, Note_on_c, 0, 67, 67
2, 4410, Note_on_c, 0, 67, 0
2, 4410, Note_on_c, 0, 69, 67
2, 4416, Note_on_c, 0, 69, 0
2, 4416, Note_on_c, 0, 70, 66
2, 4505, Note_on_c, 0, 70, 0
2, 4560, Note_on_c, 0, 79, 86
2, 4608, Note_on_c, 0, 79, 0
2, 4608, Note_on_c, 0, 77, 70
2, 4631, Note_on_c, 0, 77, 0
2, 4632, Note_on_c, 0, 75, 70
2, 4655, Note_on_c, 0, 75, 0
2, 4656, Note_on_c, 0, 74, 70
2, 4679, Note_on_c, 0, 74, 0
2, 4680, Note_on_c, 0, 72, 70
2, 4703, Note_on_c, 0, 72, 0
2, 4704, Note_on_c, 0, 72, 71
2, 4749, Note_on_c, 0, 72, 0
2, 4752, Note_on_c, 0, 72, 73
2, 4797, Note_on_c, 0, 72, 0
2, 4800, Note_on_c, 0, 71, 75
2, 4834, Note_on_c, 0, 71, 0
2, 4836, Note_on_c, 0, 72, 73
2, 4842, Note_on_c, 0, 72, 0
2, 4842, Note_on_c, 0, 74, 72
2, 4848, Note_on_c, 0, 74, 0
2, 4848, Note_on_c, 0, 72, 72
2, 4893, Note_on_c, 0, 72, 0
2, 4896, Note_on_c, 0, 68, 86
2, 4896, Note_on_c, 0, 65, 86
2, 4992, Note_on_c, 0, 68, 0
2, 4992, Note_on_c, 0, 65, 0
2, 4992, Note_on_c, 0, 67, 70
2, 4992, Note_on_c, 0, 63, 70
2, 5037, Note_on_c, 0, 67, 0
2, 5037, Note_on_c, 0, 63, 0
2, 5040, Note_on_c, 0, 72, 70
2, 5074, Note_on_c, 0, 72, 0
2, 5076, Note_on_c, 0, 60, 70
2, 5088, Note_on_c, 0, 60, 0
2, 5088, Note_on_c, 0, 63, 70
2, 5111, Note_on_c, 0, 63, 0
2, 5112, Note_on_c, 0, 62, 69
2, 5135, Note_on_c, 0, 62, 0
2, 5136, Note_on_c, 0, 60, 68
2, 5159, Note_on_c, 0, 60, 0
2, 5160, Note_on_c, 0, 59, 68
2, 5183, Note_on_c, 0, 59, 0
2, 5184, Note_on_c, 0, 60, 67
2, 5229, Note_on_c, 0, 60, 0
2, 5232, Note_on_c, 0, 55, 62
2, 5277, Note_on_c, 0, 55, 0
2, 5328, Note_on_c, 0, 79, 70
2, 5373, Note_on_c, 0, 79, 0
2, 5376, Note_on_c, 0, 77, 70
2, 5399, Note_on_c, 0, 77, 0
2, 5400, Note_on_c, 0, 75, 70
2, 5423, Note_on_c, 0, 75, 0
2, 5424, Note_on_c, 0, 74, 70
2, 5447, Note_on_c, 0, 74, 0
2, 5448, Note_on_c, 0, 72, 70
2, 5471, Note_on_c, 0, 72, 0
2, 5472, Note_on_c, 0, 72, 70
2, 5517, Note_on_c, 0, 72, 0
2, 5520, Note_on_c, 0, 72, 71
2, 5565, Note_on_c, 0, 72, 0
2, 5568, Note_on_c, 0, 72, 72
2, 5580, Note_on_c, 0, 72, 0
2, 5580, Note_on_c, 0, 84, 88
2, 5664, Note_on_c, 0, 84, 0
2, 5664, Note_on_c, 0, 82, 74
2, 5687, Note_on_c, 0, 82, 0
2, 5688, Note_on_c, 0, 81, 74
2, 5711, Note_on_c, 0, 81, 0
2, 5712, Note_on_c, 0, 79, 75
2, 5735, Note_on_c, 0, 79, 0
2, 5736, Note_on_c, 0, 78, 74
2, 5759, Note_on_c, 0, 78, 0
2, 5760, Note_on_c, 0, 79, 73
2, 5794, Note_on_c, 0, 79, 0
2, 5796, Note_on_c, 0, 74, 72
2, 5808, Note_on_c, 0, 74, 0
2, 5808, Note_on_c, 0, 77, 72
2, 5820, Note_on_c, 0, 77, 0
2, 5820, Note_on_c, 0, 75, 72
2, 5832, Note_on_c, 0, 75, 0
2, 5832, Note_on_c, 0, 74, 71
2, 5844, Note_on_c, 0, 74, 0
2, 5844, Note_on_c, 0, 72, 71
2, 5856, Note_on_c, 0, 72, 0
2, 5856, Note_on_c, 0, 70, 71
2, 5901, Note_on_c, 0, 70, 0
2, 5904, Note_on_c, 0, 69, 70
2, 5911, Note_on_c, 0, 69, 0
2, 5911, Note_on_c, 0, 70, 70
2, 5918, Note_on_c, 0, 70, 0
2, 5918, Note_on_c, 0, 69, 70
2, 5925, Note_on_c, 0, 69, 0
2, 5925, Note_on_c, 0, 70, 70
2, 5932, Note_on_c, 0, 70, 0
2, 5932, Note_on_c, 0, 69, 70
2, 5939, Note_on_c, 0, 69, 0
2, 5939, Note_on_c, 0, 67, 70
2, 5946, Note_on_c, 0, 67, 0
2, 5946, Note_on_c, 0, 69, 70
2, 5952, Note_on_c, 0, 69, 0
2, 5952, Note_on_c, 0, 67, 70
2, 6041, Note_on_c, 0, 67, 0
2, 6144, Note_on_c, 0, 75, 70
2, 6150, Note_on_c, 0, 75, 0
2, 6150, Note_on_c, 0, 74, 70
2, 6156, Note_on_c, 0, 74, 0
2, 6156, Note_on_c, 0, 73, 70
2, 6162, Note_on_c, 0, 73, 0
2, 6162, Note_on_c, 0, 74, 70
2, 6233, Note_on_c, 0, 74, 0
2, 6240, Note_on_c, 0, 81, 70
2, 6246, Note_on_c, 0, 81, 0
2, 6246, Note_on_c, 0, 82, 70
2, 6252, Note_on_c, 0, 82, 0
2, 6252, Note_on_c, 0, 84, 70
2, 6307, Note_on_c, 0, 84, 0
2, 6312, Note_on_c, 0, 82, 70
2, 6324, Note_on_c, 0, 82, 0
2, 6324, Note_on_c, 0, 81, 70
2, 6336, Note_on_c, 0, 81, 0
2, 6336, Note_on_c, 0, 79, 70
2, 6384, Note_on_c, 0, 79, 0
2, 6384, Note_on_c, 0, 74, 70
2, 6429, Note_on_c, 0, 74, 0
2, 6528, Note_on_c, 0, 75, 62
2, 6534, Note_on_c, 0, 75, 0
2, 6534, Note_on_c, 0, 74, 62
2, 6540, Note_on_c, 0, 74, 0
2, 6540, Note_on_c, 0, 73, 62
2, 6546, Note_on_c, 0, 73, 0
2, 6546, Note_on_c, 0, 74, 62
2, 6617, Note_on_c, 0, 74, 0
2, 6624, Note_on_c, 0, 81, 62
2, 6630, Note_on_c, 0, 81, 0
2, 6630, Note_on_c, 0, 82, 62
2, 6636, Note_on_c, 0, 82, 0
2, 6636, Note_on_c, 0, 84, 62
2, 6691, Note_on_c, 0, 84, 0
2, 6696, Note_on_c, 0, 82, 62
2, 6708, Note_on_c, 0, 82, 0
2, 6708, Note_on_c, 0, 81, 62
2, 6720, Note_on_c, 0, 81, 0
2, 6720, Note_on_c, 0, 79, 62
2, 6768, Note_on_c, 0, 79, 0
2, 6768, Note_on_c, 0, 74, 62
2, 6813, Note_on_c, 0, 74, 0
2, 6912, Note_on_c, 0, 84, 75
2, 6919, Note_on_c, 0, 84, 0
2, 6919, Note_on_c, 0, 82, 75
2, 6926, Note_on_c, 0, 82, 0
2, 6926, Note_on_c, 0, 84, 75
2, 6933, Note_on_c, 0, 84, 0
2, 6933, Note_on_c, 0, 82, 75
2, 6940, Note_on_c, 0, 82, 0
2, 6940, Note_on_c, 0, 84, 75
2, 6947, Note_on_c, 0, 84, 0
2, 6947, Note_on_c, 0, 82, 75
2, 6954, Note_on_c, 0, 82, 0
2, 6954, Note_on_c, 0, 84, 75
2, 6961, Note_on_c, 0, 84, 0
2, 6961, Note_on_c, 0, 82, 75
2, 6968, Note_on_c, 0, 82, 0
2, 6968, Note_on_c, 0, 84, 75
2, 6975, Note_on_c, 0, 84, 0
2, 6975, Note_on_c, 0, 82, 75
2, 6982, Note_on_c, 0, 82, 0
2, 6982, Note_on_c, 0, 84, 75
2, 6989, Note_on_c, 0, 84, 0
2, 6989, Note_on_c, 0, 82, 75
2, 6996, Note_on_c, 0, 82, 0
2, 6996, Note_on_c, 0, 81, 75
2, 7002, Note_on_c, 0, 81, 0
2, 7002, Note_on_c, 0, 79, 75
2, 7008, Note_on_c, 0, 79, 0
2, 7008, Note_on_c, 0, 77, 75
2, 7080, Note_on_c, 0, 77, 0
2, 7080, Note_on_c, 0, 78, 79
2, 7103, Note_on_c, 0, 78, 0
2, 7104, Note_on_c, 0, 81, 81
2, 7110, Note_on_c, 0, 81, 0
2, 7110, Note_on_c, 0, 79, 81
2, 7116, Note_on_c, 0, 79, 0
2, 7116, Note_on_c, 0, 78, 81
2, 7122, Note_on_c, 0, 78, 0
2, 7122, Note_on_c, 0, 79, 81
2, 7149, Note_on_c, 0, 79, 0
2, 7200, Note_on_c, 0, 81, 81
2, 7206, Note_on_c, 0, 81, 0
2, 7206, Note_on_c, 0, 79, 81
2, 7212, Note_on_c, 0, 79, 0
2, 7212, Note_on_c, 0, 78, 81
2, 7218, Note_on_c, 0, 78, 0
2, 7218, Note_on_c, 0, 79, 81
2, 7245, Note_on_c, 0, 79, 0
2, 7296, Note_on_c, 0, 84, 70
2, 7303, Note_on_c, 0, 84, 0
2, 7303, Note_on_c, 0, 82, 70
2, 7310, Note_on_c, 0, 82, 0
2, 7310, Note_on_c, 0, 84, 70
2, 7317, Note_on_c, 0, 84, 0
2, 7317, Note_on_c, 0, 82, 70
2, 7324, Note_on_c, 0, 82, 0
2, 7324, Note_on_c, 0, 84, 70
2, 7331, Note_on_c, 0, 84, 0
2, 7331, Note_on_c, 0, 82, 70
2, 7338, Note_on_c, 0, 82, 0
2, 7338, Note_on_c, 0, 84, 70
2, 7345, Note_on_c, 0, 84, 0
2, 7345, Note_on_c, 0, 82, 70
2, 7352, Note_on_c, 0, 82, 0
2, 7352, Note_on_c, 0, 84, 70
2, 7359, Note_on_c, 0, 84, 0
2, 7359, Note_on_c, 0, 82, 70
2, 7366, Note_on_c, 0, 82, 0
2, 7366, Note_on_c, 0, 84, 70
2, 7373, Note_on_c, 0, 84, 0
2, 7373, Note_on_c, 0, 82, 70
2, 7380, Note_on_c, 0, 82, 0
2, 7380, Note_on_c, 0, 81, 70
2, 7386, Note_on_c, 0, 81, 0
2, 7386, Note_on_c, 0, 79, 70
2, 7392, Note_on_c, 0, 79, 0
2, 7392, Note_on_c, 0, 77, 70
2, 7464, Note_on_c, 0, 77, 0
2, 7464, Note_on_c, 0, 78, 73
2, 7487, Note_on_c, 0, 78, 0
2, 7488, Note_on_c, 0, 81, 75
2, 7494, Note_on_c, 0, 81, 0
2, 7494, Note_on_c, 0, 79, 75
2, 7500, Note_on_c, 0, 79, 0
2, 7500, Note_on_c, 0, 78, 75
2, 7506, Note_on_c, 0, 78, 0
2, 7506, Note_on_c, 0, 79, 75
2, 7533, Note_on_c, 0, 79, 0
2, 7584, Note_on_c, 0, 81, 75
2, 7590, Note_on_c, 0, 81, 0
2, 7590, Note_on_c, 0, 79, 75
2, 7596, Note_on_c, 0, 79, 0
2, 7596, Note_on_c, 0, 78, 75
2, 7602, Note_on_c, 0, 78, 0
2, 7602, Note_on_c, 0, 79, 75
2, 7629, Note_on_c, 0, 79, 0
2, 7680, Note_on_c, 0, 84, 75
2, 7687, Note_on_c, 0, 84, 0
2, 7687, Note_on_c, 0, 82, 75
2, 7694, Note_on_c, 0, 82, 0
2, 7694, Note_on_c, 0, 84, 75
2, 7701, Note_on_c, 0, 84, 0
2, 7701, Note_on_c, 0, 82, 75
2, 7708, Note_on_c, 0, 82, 0
2, 7708, Note_on_c, 0, 84, 75
2, 7715, Note_on_c, 0, 84, 0
2, 7715, Note_on_c, 0, 82, 75
2, 7722, Note_on_c, 0, 82, 0
2, 7722, Note_on_c, 0, 84, 75
2, 7729, Note_on_c, 0, 84, 0
2, 7729, Note_on_c, 0, 82, 75
2, 7736, Note_on_c, 0, 82, 0
2, 7736, Note_on_c, 0, 84, 75
2, 7743, Note_on_c, 0, 84, 0
2, 7743, Note_on_c, 0, 82, 75
2, 7750, Note_on_c, 0, 82, 0
2, 7750, Note_on_c, 0, 84, 75
2, 7757, Note_on_c, 0, 84, 0
2, 7757, Note_on_c, 0, 82, 75
2, 7764, Note_on_c, 0, 82, 0
2, 7764, Note_on_c, 0, 81, 75
2, 7770, Note_on_c, 0, 81, 0
2, 7770, Note_on_c, 0, 79, 75
2, 7776, Note_on_c, 0, 79, 0
2, 7776, Note_on_c, 0, 77, 75
2, 7887, Note_on_c, 0, 77, 0
2, 7888, Note_on_c, 0, 78, 91
2, 7904, Note_on_c, 0, 78, 0
2, 7904, Note_on_c, 0, 79, 75
2, 7919, Note_on_c, 0, 79, 0
2, 7920, Note_on_c, 0, 77, 75
2, 7932, Note_on_c, 0, 77, 0
2, 7932, Note_on_c, 0, 75, 75
2, 7944, Note_on_c, 0, 75, 0
2, 7944, Note_on_c, 0, 74, 75
2, 7956, Note_on_c, 0, 74, 0
2, 7956, Note_on_c, 0, 72, 75
2, 7968, Note_on_c, 0, 72, 0
2, 7968, Note_on_c, 0, 70, 75
2, 8013, Note_on_c, 0, 70, 0
2, 8016, Note_on_c, 0, 69, 75
2, 8023, Note_on_c, 0, 69, 0
2, 8023, Note_on_c, 0, 70, 75
2, 8030, Note_on_c, 0, 70, 0
2, 8030, Note_on_c, 0, 69, 75
2, 8037, Note_on_c, 0, 69, 0
2, 8037, Note_on_c, 0, 70, 75
2, 8044, Note_on_c, 0, 70, 0
2, 8044, Note_on_c, 0, 69, 75
2, 8051, Note_on_c, 0, 69, 0
2, 8051, Note_on_c, 0, 67, 75
2, 8058, Note_on_c, 0, 67, 0
2, 8058, Note_on_c, 0, 69, 75
2, 8064, Note_on_c, 0, 69, 0
2, 8064, Note_on_c, 0, 70, 75
2, 8153, Note_on_c, 0, 70, 0
2, 8160, Note_on_c, 0, 84, 75
2, 8172, Note_on_c, 0, 84, 0
2, 8172, Note_on_c, 0, 75, 75
2, 8250, Note_on_c, 0, 75, 0
2, 8256, Note_on_c, 0, 74, 75
2, 8268, Note_on_c, 0, 74, 0
2, 8268, Note_on_c, 0, 82, 75
2, 8346, Note_on_c, 0, 82, 0
2, 8352, Note_on_c, 0, 84, 70
2, 8364, Note_on_c, 0, 84, 0
2, 8364, Note_on_c, 0, 75, 70
2, 8442, Note_on_c, 0, 75, 0
2, 8448, Note_on_c, 0, 74, 70
2, 8460, Note_on_c, 0, 74, 0
2, 8460, Note_on_c, 0, 82, 70
2, 8538, Note_on_c, 0, 82, 0
2, 8544, Note_on_c, 0, 84, 75
2, 8556, Note_on_c, 0, 84, 0
2, 8556, Note_on_c, 0, 75, 75
2, 8634, Note_on_c, 0, 75, 0
2, 8640, Note_on_c, 0, 74, 75
2, 8655, Note_on_c, 0, 74, 0
2, 8656, Note_on_c, 0, 82, 74
2, 8671, Note_on_c, 0, 82, 0
2, 8672, Note_on_c, 0, 78, 73
2, 8687, Note_on_c, 0, 78, 0
2, 8688, Note_on_c, 0, 79, 73
2, 8703, Note_on_c, 0, 79, 0
2, 8704, Note_on_c, 0, 75, 72
2, 8719, Note_on_c, 0, 75, 0
2, 8720, Note_on_c, 0, 72, 72
2, 8735, Note_on_c, 0, 72, 0
2, 8736, Note_on_c, 0, 70, 71
2, 8781, Note_on_c, 0, 70, 0
2, 8784, Note_on_c, 0, 69, 69
2, 8791, Note_on_c, 0, 69, 0
2, 8791, Note_on_c, 0, 70, 69
2, 8798, Note_on_c, 0, 70, 0
2, 8798, Note_on_c, 0, 69, 68
2, 8805, Note_on_c, 0, 69, 0
2, 8805, Note_on_c, 0, 70, 68
2, 8812, Note_on_c, 0, 70, 0
2, 8812, Note_on_c, 0, 69, 68
2, 8819, Note_on_c, 0, 69, 0
2, 8819, Note_on_c, 0, 67, 67
2, 8826, Note_on_c, 0, 67, 0
2, 8826, Note_on_c, 0, 69, 67
2, 8832, Note_on_c, 0, 69, 0
2, 8832, Note_on_c, 0, 70, 66
2, 8921, Note_on_c, 0, 70, 0
2, 8976, Note_on_c, 0, 77, 86
2, 9024, Note_on_c, 0, 77, 0
2, 9024, Note_on_c, 0, 75, 70
2, 9047, Note_on_c, 0, 75, 0
2, 9048, Note_on_c, 0, 74, 70
2, 9071, Note_on_c, 0, 74, 0
2, 9072, Note_on_c, 0, 72, 70
2, 9095, Note_on_c, 0, 72, 0
2, 9096, Note_on_c, 0, 70, 70
2, 9119, Note_on_c, 0, 70, 0
2, 9120, Note_on_c, 0, 70, 71
2, 9165, Note_on_c, 0, 70, 0
2, 9168, Note_on_c, 0, 70, 71
2, 9213, Note_on_c, 0, 70, 0
2, 9216, Note_on_c, 0, 70, 72
2, 9261, Note_on_c, 0, 70, 0
2, 9264, Note_on_c, 0, 71, 72
2, 9309, Note_on_c, 0, 71, 0
2, 9312, Note_on_c, 0, 72, 73
2, 9357, Note_on_c, 0, 72, 0
2, 9360, Note_on_c, 0, 79, 89
2, 9408, Note_on_c, 0, 79, 0
2, 9408, Note_on_c, 0, 77, 74
2, 9431, Note_on_c, 0, 77, 0
2, 9432, Note_on_c, 0, 75, 74
2, 9455, Note_on_c, 0, 75, 0
2, 9456, Note_on_c, 0, 74, 74
2, 9479, Note_on_c, 0, 74, 0
2, 9480, Note_on_c, 0, 72, 74
2, 9503, Note_on_c, 0, 72, 0
2, 9504, Note_on_c, 0, 72, 75
2, 9549, Note_on_c, 0, 72, 0
2, 9552, Note_on_c, 0, 72, 75
2, 9597, Note_on_c, 0, 72, 0
2, 9600, Note_on_c, 0, 72, 76
2, 9645, Note_on_c, 0, 72, 0
2, 9648, Note_on_c, 0, 73, 76
2, 9693, Note_on_c, 0, 73, 0
2, 9696, Note_on_c, 0, 74, 77
2, 9741, Note_on_c, 0, 74, 0
2, 9744, Note_on_c, 0, 81, 93
2, 9792, Note_on_c, 0, 81, 0
2, 9792, Note_on_c, 0, 79, 78
2, 9815, Note_on_c, 0, 79, 0
2, 9816, Note_on_c, 0, 78, 78
2, 9839, Note_on_c, 0, 78, 0
2, 9840, Note_on_c, 0, 75, 78
2, 9863, Note_on_c, 0, 75, 0
2, 9864, Note_on_c, 0, 74, 79
2, 9887, Note_on_c, 0, 74, 0
2, 9888, Note_on_c, 0, 74, 79
2, 9933, Note_on_c, 0, 74, 0
2, 9936, Note_on_c, 0, 74, 79
2, 9981, Note_on_c, 0, 74, 0
2, 9984, Note_on_c, 0, 74, 80
2, 10029, Note_on_c, 0, 74, 0
2, 10032, Note_on_c, 0, 82, 70
2, 10080, Note_on_c, 0, 82, 0
2, 10080, Note_on_c, 0, 81, 70
2, 10125, Note_on_c, 0, 81, 0
2, 10128, Note_on_c, 0, 74, 70
2, 10176, Note_on_c, 0, 74, 0
2, 10176, Note_on_c, 0, 79, 70
2, 10265, Note_on_c, 0, 79, 0
2, 10272, Note_on_c, 0, 77, 70
2, 10295, Note_on_c, 0, 77, 0
2, 10296, Note_on_c, 0, 75, 69
2, 10319, Note_on_c, 0, 75, 0
2, 10320, Note_on_c, 0, 74, 69
2, 10343, Note_on_c, 0, 74, 0
2, 10344, Note_on_c, 0, 73, 68
2, 10367, Note_on_c, 0, 73, 0
2, 10368, Note_on_c, 0, 73, 68
2, 10416, Note_on_c, 0, 73, 0
2, 10416, Note_on_c, 0, 74, 67
2, 10483, Note_on_c, 0, 74, 0
2, 10536, Note_on_c, 0, 74, 70
2, 10546, Note_on_c, 0, 74, 0
2, 10560, Note_on_c, 0, 72, 70
2, 10583, Note_on_c, 0, 72, 0
2, 10584, Note_on_c, 0, 70, 70
2, 10607, Note_on_c, 0, 70, 0
2, 10608, Note_on_c, 0, 69, 70
2, 10631, Note_on_c, 0, 69, 0
2, 10632, Note_on_c, 0, 67, 70
2, 10655, Note_on_c, 0, 67, 0
2, 10656, Note_on_c, 0, 66, 70
2, 10680, Note_on_c, 0, 66, 0
2, 10680, Note_on_c, 0, 67, 70
2, 10703, Note_on_c, 0, 67, 0
2, 10728, Note_on_c, 0, 79, 70
2, 10738, Note_on_c, 0, 79, 0
2, 10752, Note_on_c, 0, 77, 71
2, 10775, Note_on_c, 0, 77, 0
2, 10776, Note_on_c, 0, 75, 71
2, 10799, Note_on_c, 0, 75, 0
2, 10800, Note_on_c, 0, 74, 71
2, 10823, Note_on_c, 0, 74, 0
2, 10824, Note_on_c, 0, 72, 71
2, 10847, Note_on_c, 0, 72, 0
2, 10848, Note_on_c, 0, 71, 71
2, 10872, Note_on_c, 0, 71, 0
2, 10872, Note_on_c, 0, 72, 71
2, 10895, Note_on_c, 0, 72, 0
2, 10920, Note_on_c, 0, 84, 71
2, 10930, Note_on_c, 0, 84, 0
2, 10944, Note_on_c, 0, 82, 72
2, 10967, Note_on_c, 0, 82, 0
2, 10968, Note_on_c, 0, 81, 72
2, 10991, Note_on_c, 0, 81, 0
2, 10992, Note_on_c, 0, 79, 72
2, 11015, Note_on_c, 0, 79, 0
2, 11016, Note_on_c, 0, 77, 72
2, 11039, Note_on_c, 0, 77, 0
2, 11040, Note_on_c, 0, 76, 72
2, 11064, Note_on_c, 0, 76, 0
2, 11064, Note_on_c, 0, 77, 72
2, 11087, Note_on_c, 0, 77, 0
2, 11112, Note_on_c, 0, 77, 72
2, 11122, Note_on_c, 0, 77, 0
2, 11136, Note_on_c, 0, 75, 73
2, 11159, Note_on_c, 0, 75, 0
2, 11160, Note_on_c, 0, 74, 73
2, 11183, Note_on_c, 0, 74, 0
2, 11184, Note_on_c, 0, 72, 73
2, 11207, Note_on_c, 0, 72, 0
2, 11208, Note_on_c, 0, 70, 73
2, 11231, Note_on_c, 0, 70, 0
2, 11232, Note_on_c, 0, 69, 73
2, 11256, Note_on_c, 0, 69, 0
2, 11256, Note_on_c, 0, 70, 73
2, 11279, Note_on_c, 0, 70, 0
2, 11304, Note_on_c, 0, 82, 73
2, 11314, Note_on_c, 0, 82, 0
2, 11328, Note_on_c, 0, 80, 74
2, 11351, Note_on_c, 0, 80, 0
2, 11352, Note_on_c, 0, 79, 74
2, 11375, Note_on_c, 0, 79, 0
2, 11376, Note_on_c, 0, 77, 74
2, 11399, Note_on_c, 0, 77, 0
2, 11400, Note_on_c, 0, 75, 74
2, 11423, Note_on_c, 0, 75, 0
2, 11424, Note_on_c, 0, 74, 74
2, 11448, Note_on_c, 0, 74, 0
2, 11448, Note_on_c, 0, 75, 74
2, 11471, Note_on_c, 0, 75, 0
2, 11472, Note_on_c, 0, 74, 74
2, 11496, Note_on_c, 0, 74, 0
2, 11496, Note_on_c, 0, 75, 74
2, 11519, Note_on_c, 0, 75, 0
2, 11544, Note_on_c, 0, 72, 75
2, 11567, Note_on_c, 0, 72, 0
2, 11568, Note_on_c, 0, 74, 75
2, 11592, Note_on_c, 0, 74, 0
2, 11592, Note_on_c, 0, 75, 75
2, 11615, Note_on_c, 0, 75, 0
2, 11640, Note_on_c, 0, 70, 75
2, 11663, Note_on_c, 0, 70, 0
2, 11664, Note_on_c, 0, 74, 75
2, 11688, Note_on_c, 0, 74, 0
2, 11688, Note_on_c, 0, 75, 75
2, 11711, Note_on_c, 0, 75, 0
2, 11736, Note_on_c, 0, 68, 75
2, 11759, Note_on_c, 0, 68, 0
2, 11760, Note_on_c, 0, 73, 75
2, 11784, Note_on_c, 0, 73, 0
2, 11784, Note_on_c, 0, 74, 75
2, 11807, Note_on_c, 0, 74, 0
2, 11832, Note_on_c, 0, 67, 75
2, 11855, Note_on_c, 0, 67, 0
2, 11856, Note_on_c, 0, 71, 75
2, 11880, Note_on_c, 0, 71, 0
2, 11880, Note_on_c, 0, 72, 75
2, 11903, Note_on_c, 0, 72, 0
2, 11904, Note_on_c, 0, 65, 75
2, 11927, Note_on_c, 0, 65, 0
2, 11928, Note_on_c, 0, 71, 75
2, 11951, Note_on_c, 0, 71, 0
2, 11952, Note_on_c, 0, 74, 75
2, 11975, Note_on_c, 0, 74, 0
2, 11976, Note_on_c, 0, 77, 75
2, 11999, Note_on_c, 0, 77, 0
2, 12000, Note_on_c, 0, 80, 91
2, 12072, Note_on_c, 0, 80, 0
2, 12072, Note_on_c, 0, 79, 75
2, 12084, Note_on_c, 0, 79, 0
2, 12084, Note_on_c, 0, 77, 75
2, 12096, Note_on_c, 0, 77, 0
2, 12096, Note_on_c, 0, 77, 75
2, 12119, Note_on_c, 0, 77, 0
2, 12120, Note_on_c, 0, 75, 75
2, 12143, Note_on_c, 0, 75, 0
2, 12144, Note_on_c, 0, 74, 75
2, 12167, Note_on_c, 0, 74, 0
2, 12168, Note_on_c, 0, 72, 75
2, 12191, Note_on_c, 0, 72, 0
2, 12192, Note_on_c, 0, 80, 75
2, 12207, Note_on_c, 0, 80, 0
2, 12208, Note_on_c, 0, 79, 75
2, 12223, Note_on_c, 0, 79, 0
2, 12224, Note_on_c, 0, 77, 75
2, 12239, Note_on_c, 0, 77, 0
2, 12240, Note_on_c, 0, 75, 75
2, 12255, Note_on_c, 0, 75, 0
2, 12256, Note_on_c, 0, 74, 76
2, 12271, Note_on_c, 0, 74, 0
2, 12272, Note_on_c, 0, 72, 76
2, 12287, Note_on_c, 0, 72, 0
2, 12288, Note_on_c, 0, 71, 77
2, 12377, Note_on_c, 0, 71, 0
2, 12384, Note_on_c, 0, 74, 97
2, 12456, Note_on_c, 0, 74, 0
2, 12456, Note_on_c, 0, 75, 81
2, 12468, Note_on_c, 0, 75, 0
2, 12468, Note_on_c, 0, 77, 81
2, 12480, Note_on_c, 0, 77, 0
2, 12480, Note_on_c, 0, 75, 81
2, 12528, Note_on_c, 0, 75, 0
2, 12528, Note_on_c, 0, 79, 81
2, 12548, Note_on_c, 0, 79, 0
2, 12576, Note_on_c, 0, 71, 97
2, 12648, Note_on_c, 0, 71, 0
2, 12648, Note_on_c, 0, 72, 81
2, 12660, Note_on_c, 0, 72, 0
2, 12660, Note_on_c, 0, 74, 81
2, 12672, Note_on_c, 0, 74, 0
2, 12672, Note_on_c, 0, 72, 81
2, 12720, Note_on_c, 0, 72, 0
2, 12720, Note_on_c, 0, 75, 81
2, 12740, Note_on_c, 0, 75, 0
2, 12768, Note_on_c, 0, 74, 97
2, 12840, Note_on_c, 0, 74, 0
2, 12840, Note_on_c, 0, 75, 81
2, 12852, Note_on_c, 0, 75, 0
2, 12852, Note_on_c, 0, 77, 81
2, 12864, Note_on_c, 0, 77, 0
2, 12864, Note_on_c, 0, 75, 81
2, 12912, Note_on_c, 0, 75, 0
2, 12912, Note_on_c, 0, 79, 81
2, 12932, Note_on_c, 0, 79, 0
2, 12960, Note_on_c, 0, 71, 97
2, 13032, Note_on_c, 0, 71, 0
2, 13032, Note_on_c, 0, 72, 81
2, 13044, Note_on_c, 0, 72, 0
2, 13044, Note_on_c, 0, 74, 81
2, 13056, Note_on_c, 0, 74, 0
2, 13056, Note_on_c, 0, 72, 81
2, 13104, Note_on_c, 0, 72, 0
2, 13104, Note_on_c, 0, 75, 81
2, 13124, Note_on_c, 0, 75, 0
2, 13152, Note_on_c, 0, 74, 97
2, 13224, Note_on_c, 0, 74, 0
2, 13224, Note_on_c, 0, 75, 81
2, 13236, Note_on_c, 0, 75, 0
2, 13236, Note_on_c, 0, 77, 81
2, 13248, Note_on_c, 0, 77, 0
2, 13248, Note_on_c, 0, 75, 81
2, 13282, Note_on_c, 0, 75, 0
2, 13284, Note_on_c, 0, 79, 81
2, 13289, Note_on_c, 0, 79, 0
2, 13296, Note_on_c, 0, 80, 81
2, 13308, Note_on_c, 0, 80, 0
2, 13308, Note_on_c, 0, 79, 81
2, 13320, Note_on_c, 0, 79, 0
2, 13320, Note_on_c, 0, 77, 81
2, 13332, Note_on_c, 0, 77, 0
2, 13332, Note_on_c, 0, 79, 81
2, 13344, Note_on_c, 0, 79, 0
2, 13344, Note_on_c, 0, 80, 81
2, 13378, Note_on_c, 0, 80, 0
2, 13380, Note_on_c, 0, 77, 81
2, 13392, Note_on_c, 0, 77, 0
2, 13392, Note_on_c, 0, 75, 81
2, 13426, Note_on_c, 0, 75, 0
2, 13428, Note_on_c, 0, 74, 81
2, 13440, Note_on_c, 0, 74, 0
2, 13440, Note_on_c, 0, 72, 81
2, 13507, Note_on_c, 0, 72, 0
2, 13512, Note_on_c, 0, 74, 81
2, 13535, Note_on_c, 0, 74, 0
2, 13536, Note_on_c, 0, 75, 81
2, 13543, Note_on_c, 0, 75, 0
2, 13543, Note_on_c, 0, 74, 81
2, 13550, Note_on_c, 0, 74, 0
2, 13550, Note_on_c, 0, 75, 81
2, 13557, Note_on_c, 0, 75, 0
2, 13557, Note_on_c, 0, 74, 81
2, 13564, Note_on_c, 0, 74, 0
2, 13564, Note_on_c, 0, 75, 81
2, 13571, Note_on_c, 0, 75, 0
2, 13571, Note_on_c, 0, 74, 81
2, 13578, Note_on_c, 0, 74, 0
2, 13578, Note_on_c, 0, 75, 81
2, 13585, Note_on_c, 0, 75, 0
2, 13585, Note_on_c, 0, 74, 81
2, 13592, Note_on_c, 0, 74, 0
2, 13592, Note_on_c, 0, 75, 81
2, 13599, Note_on_c, 0, 75, 0
2, 13599, Note_on_c, 0, 74, 81
2, 13606, Note_on_c, 0, 74, 0
2, 13606, Note_on_c, 0, 75, 81
2, 13613, Note_on_c, 0, 75, 0
2, 13613, Note_on_c, 0, 74, 81
2, 13620, Note_on_c, 0, 74, 0
2, 13620, Note_on_c, 0, 72, 81
2, 13626, Note_on_c, 0, 72, 0
2, 13626, Note_on_c, 0, 74, 81
2, 13632, Note_on_c, 0, 74, 0
2, 13632, Note_on_c, 0, 72, 81
2, 13721, Note_on_c, 0, 72, 0
2, 13728, Note_on_c, 0, 86, 75
2, 13740, Note_on_c, 0, 86, 0
2, 13740, Note_on_c, 0, 77, 75
2, 13818, Note_on_c, 0, 77, 0
2, 13824, Note_on_c, 0, 75, 75
2, 13836, Note_on_c, 0, 75, 0
2, 13836, Note_on_c, 0, 84, 75
2, 13914, Note_on_c, 0, 84, 0
2, 13920, Note_on_c, 0, 86, 66
2, 13932, Note_on_c, 0, 86, 0
2, 13932, Note_on_c, 0, 77, 66
2, 14010, Note_on_c, 0, 77, 0
2, 14016, Note_on_c, 0, 75, 66
2, 14028, Note_on_c, 0, 75, 0
2, 14028, Note_on_c, 0, 84, 66
2, 14106, Note_on_c, 0, 84, 0
2, 14112, Note_on_c, 0, 86, 75
2, 14124, Note_on_c, 0, 86, 0
2, 14124, Note_on_c, 0, 77, 75
2, 14202, Note_on_c, 0, 77, 0
2, 14208, Note_on_c, 0, 75, 75
2, 14223, Note_on_c, 0, 75, 0
2, 14224, Note_on_c, 0, 84, 75
2, 14239, Note_on_c, 0, 84, 0
2, 14240, Note_on_c, 0, 79, 75
2, 14255, Note_on_c, 0, 79, 0
2, 14256, Note_on_c, 0, 80, 75
2, 14271, Note_on_c, 0, 80, 0
2, 14272, Note_on_c, 0, 77, 75
2, 14287, Note_on_c, 0, 77, 0
2, 14288, Note_on_c, 0, 74, 75
2, 14303, Note_on_c, 0, 74, 0
2, 14304, Note_on_c, 0, 72, 75
2, 14349, Note_on_c, 0, 72, 0
2, 14352, Note_on_c, 0, 71, 75
2, 14359, Note_on_c, 0, 71, 0
2, 14359, Note_on_c, 0, 72, 75
2, 14366, Note_on_c, 0, 72, 0
2, 14366, Note_on_c, 0, 71, 75
2, 14373, Note_on_c, 0, 71, 0
2, 14373, Note_on_c, 0, 72, 75
2, 14380, Note_on_c, 0, 72, 0
2, 14380, Note_on_c, 0, 71, 75
2, 14387, Note_on_c, 0, 71, 0
2, 14387, Note_on_c, 0, 69, 75
2, 14394, Note_on_c, 0, 69, 0
2, 14394, Note_on_c, 0, 71, 75
2, 14400, Note_on_c, 0, 71, 0
2, 14400, Note_on_c, 0, 72, 75
2, 14489, Note_on_c, 0, 72, 0
2, 14544, Note_on_c, 0, 67, 82
2, 14592, Note_on_c, 0, 67, 0
2, 14592, Note_on_c, 0, 65, 66
2, 14615, Note_on_c, 0, 65, 0
2, 14616, Note_on_c, 0, 63, 66
2, 14639, Note_on_c, 0, 63, 0
2, 14640, Note_on_c, 0, 62, 70
2, 14663, Note_on_c, 0, 62, 0
2, 14664, Note_on_c, 0, 60, 70
2, 14687, Note_on_c, 0, 60, 0
2, 14688, Note_on_c, 0, 60, 71
2, 14733, Note_on_c, 0, 60, 0
2, 14736, Note_on_c, 0, 60, 73
2, 14781, Note_on_c, 0, 60, 0
2, 14784, Note_on_c, 0, 59, 75
2, 14818, Note_on_c, 0, 59, 0
2, 14820, Note_on_c, 0, 60, 73
2, 14826, Note_on_c, 0, 60, 0
2, 14826, Note_on_c, 0, 62, 72
2, 14832, Note_on_c, 0, 62, 0
2, 14832, Note_on_c, 0, 60, 72
2, 14877, Note_on_c, 0, 60, 0
2, 14880, Note_on_c, 0, 68, 86
2, 14880, Note_on_c, 0, 59, 86
2, 14976, Note_on_c, 0, 68, 0
2, 14976, Note_on_c, 0, 59, 0
2, 14976, Note_on_c, 0, 67, 62
2, 14976, Note_on_c, 0, 60, 62
2, 14996, Note_on_c, 0, 67, 0
2, 14996, Note_on_c, 0, 60, 0
2, 15024, Note_on_c, 0, 63, 62
2, 15024, Note_on_c, 0, 60, 62
2, 15044, Note_on_c, 0, 63, 0
2, 15044, Note_on_c, 0, 60, 0
2, 15072, Note_on_c, 0, 65, 62
2, 15072, Note_on_c, 0, 62, 62
2, 15092, Note_on_c, 0, 65, 0
2, 15092, Note_on_c, 0, 62, 0
2, 15120, Note_on_c, 0, 62, 62
2, 15120, Note_on_c, 0, 59, 62
2, 15140, Note_on_c, 0, 62, 0
2, 15140, Note_on_c, 0, 59, 0
2, 15168, Note_on_c, 0, 60, 62
2, 15257, Note_on_c, 0, 60, 0
2, 15312, Note_on_c, 0, 77, 86
2, 15360, Note_on_c, 0, 77, 0
2, 15360, Note_on_c, 0, 75, 70
2, 15383, Note_on_c, 0, 75, 0
2, 15384, Note_on_c, 0, 74, 70
2, 15407, Note_on_c, 0, 74, 0
2, 15408, Note_on_c, 0, 72, 70
2, 15431, Note_on_c, 0, 72, 0
2, 15432, Note_on_c, 0, 70, 70
2, 15455, Note_on_c, 0, 70, 0
2, 15456, Note_on_c, 0, 70, 71
2, 15501, Note_on_c, 0, 70, 0
2, 15504, Note_on_c, 0, 70, 71
2, 15549, Note_on_c, 0, 70, 0
2, 15552, Note_on_c, 0, 70, 72
2, 15597, Note_on_c, 0, 70, 0
2, 15600, Note_on_c, 0, 71, 72
2, 15645, Note_on_c, 0, 71, 0
2, 15648, Note_on_c, 0, 72, 73
2, 15693, Note_on_c, 0, 72, 0
2, 15696, Note_on_c, 0, 79, 89
2, 15744, Note_on_c, 0, 79, 0
2, 15744, Note_on_c, 0, 77, 74
2, 15767, Note_on_c, 0, 77, 0
2, 15768, Note_on_c, 0, 75, 74
2, 15791, Note_on_c, 0, 75, 0
2, 15792, Note_on_c, 0, 74, 74
2, 15815, Note_on_c, 0, 74, 0
2, 15816, Note_on_c, 0, 72, 74
2, 15839, Note_on_c, 0, 72, 0
2, 15840, Note_on_c, 0, 72, 75
2, 15885, Note_on_c, 0, 72, 0
2, 15888, Note_on_c, 0, 72, 75
2, 15933, Note_on_c, 0, 72, 0
2, 15936, Note_on_c, 0, 72, 76
2, 15981, Note_on_c, 0, 72, 0
2, 15984, Note_on_c, 0, 73, 76
2, 16029, Note_on_c, 0, 73, 0
2, 16032, Note_on_c, 0, 74, 77
2, 16077, Note_on_c, 0, 74, 0
2, 16080, Note_on_c, 0, 81, 93
2, 16128, Note_on_c, 0, 81, 0
2, 16128, Note_on_c, 0, 79, 78
2, 16151, Note_on_c, 0, 79, 0
2, 16152, Note_on_c, 0, 78, 78
2, 16175, Note_on_c, 0, 78, 0
2, 16176, Note_on_c, 0, 75, 78
2, 16199, Note_on_c, 0, 75, 0
2, 16200, Note_on_c, 0, 74, 79
2, 16223, Note_on_c, 0, 74, 0
2, 16224, Note_on_c, 0, 74, 79
2, 16269, Note_on_c, 0, 74, 0
2, 16272, Note_on_c, 0, 74, 79
2, 16317, Note_on_c, 0, 74, 0
2, 16320, Note_on_c, 0, 74, 80
2, 16365, Note_on_c, 0, 74, 0
2, 16368, Note_on_c, 0, 82, 70
2, 16416, Note_on_c, 0, 82, 0
2, 16416, Note_on_c, 0, 81, 70
2, 16461, Note_on_c, 0, 81, 0
2, 16464, Note_on_c, 0, 74, 70
2, 16512, Note_on_c, 0, 74, 0
2, 16512, Note_on_c, 0, 79, 70
2, 16601, Note_on_c, 0, 79, 0
2, 16608, Note_on_c, 0, 77, 70
2, 16631, Note_on_c, 0, 77, 0
2, 16632, Note_on_c, 0, 75, 69
2, 16655, Note_on_c, 0, 75, 0
2, 16656, Note_on_c, 0, 74, 69
2, 16679, Note_on_c, 0, 74, 0
2, 16680, Note_on_c, 0, 73, 68
2, 16703, Note_on_c, 0, 73, 0
2, 16704, Note_on_c, 0, 73, 68
2, 16752, Note_on_c, 0, 73, 0
2, 16752, Note_on_c, 0, 74, 67
2, 16819, Note_on_c, 0, 74, 0
2, 16872, Note_on_c, 0, 74, 70
2, 16882, Note_on_c, 0, 74, 0
2, 16896, Note_on_c, 0, 72, 70
2, 16919, Note_on_c, 0, 72, 0
2, 16920, Note_on_c, 0, 70, 70
2, 16943, Note_on_c, 0, 70, 0
2, 16944, Note_on_c, 0, 69, 70
2, 16967, Note_on_c, 0, 69, 0
2, 16968, Note_on_c, 0, 67, 70
2, 16991, Note_on_c, 0, 67, 0
2, 16992, Note_on_c, 0, 66, 70
2, 17016, Note_on_c, 0, 66, 0
2, 17016, Note_on_c, 0, 67, 70
2, 17039, Note_on_c, 0, 67, 0
2, 17064, Note_on_c, 0, 79, 70
2, 17074, Note_on_c, 0, 79, 0
2, 17088, Note_on_c, 0, 77, 71
2, 17111, Note_on_c, 0, 77, 0
2, 17112, Note_on_c, 0, 75, 71
2, 17135, Note_on_c, 0, 75, 0
2, 17136, Note_on_c, 0, 74, 71
2, 17159, Note_on_c, 0, 74, 0
2, 17160, Note_on_c, 0, 72, 71
2, 17183, Note_on_c, 0, 72, 0
2, 17184, Note_on_c, 0, 71, 71
2, 17208, Note_on_c, 0, 71, 0
2, 17208, Note_on_c, 0, 72, 71
2, 17231, Note_on_c, 0, 72, 0
2, 17256, Note_on_c, 0, 84, 71
2, 17266, Note_on_c, 0, 84, 0
2, 17280, Note_on_c, 0, 82, 72
2, 17303, Note_on_c, 0, 82, 0
2, 17304, Note_on_c, 0, 81, 72
2, 17327, Note_on_c, 0, 81, 0
2, 17328, Note_on_c, 0, 79, 72
2, 17351, Note_on_c, 0, 79, 0
2, 17352, Note_on_c, 0, 77, 72
2, 17375, Note_on_c, 0, 77, 0
2, 17376, Note_on_c, 0, 76, 72
2, 17400, Note_on_c, 0, 76, 0
2, 17400, Note_on_c, 0, 77, 72
2, 17423, Note_on_c, 0, 77, 0
2, 17448, Note_on_c, 0, 77, 72
2, 17458, Note_on_c, 0, 77, 0
2, 17472, Note_on_c, 0, 75, 73
2, 17495, Note_on_c, 0, 75, 0
2, 17496, Note_on_c, 0, 74, 73
2, 17519, Note_on_c, 0, 74, 0
2, 17520, Note_on_c, 0, 72, 73
2, 17543, Note_on_c, 0, 72, 0
2, 17544, Note_on_c, 0, 70, 73
2, 17567, Note_on_c, 0, 70, 0
2, 17568, Note_on_c, 0, 69, 73
2, 17592, Note_on_c, 0, 69, 0
2, 17592, Note_on_c, 0, 70, 73
2, 17615, Note_on_c, 0, 70, 0
2, 17640, Note_on_c, 0, 82, 73
2, 17650, Note_on_c, 0, 82, 0
2, 17664, Note_on_c, 0, 80, 74
2, 17687, Note_on_c, 0, 80, 0
2, 17688, Note_on_c, 0, 79, 74
2, 17711, Note_on_c, 0, 79, 0
2, 17712, Note_on_c, 0, 77, 74
2, 17735, Note_on_c, 0, 77, 0
2, 17736, Note_on_c, 0, 75, 74
2, 17759, Note_on_c, 0, 75, 0
2, 17760, Note_on_c, 0, 74, 74
2, 17784, Note_on_c, 0, 74, 0
2, 17784, Note_on_c, 0, 75, 74
2, 17807, Note_on_c, 0, 75, 0
2, 17808, Note_on_c, 0, 74, 74
2, 17832, Note_on_c, 0, 74, 0
2, 17832, Note_on_c, 0, 75, 74
2, 17855, Note_on_c, 0, 75, 0
2, 17880, Note_on_c, 0, 72, 75
2, 17903, Note_on_c, 0, 72, 0
2, 17904, Note_on_c, 0, 74, 75
2, 17928, Note_on_c, 0, 74, 0
2, 17928, Note_on_c, 0, 75, 75
2, 17951, Note_on_c, 0, 75, 0
2, 17976, Note_on_c, 0, 70, 75
2, 17999, Note_on_c, 0, 70, 0
2, 18000, Note_on_c, 0, 74, 75
2, 18024, Note_on_c, 0, 74, 0
2, 18024, Note_on_c, 0, 75, 75
2, 18047, Note_on_c, 0, 75, 0
2, 18072, Note_on_c, 0, 68, 75
2, 18095, Note_on_c, 0, 68, 0
2, 18096, Note_on_c, 0, 73, 75
2, 18120, Note_on_c, 0, 73, 0
2, 18120, Note_on_c, 0, 74, 75
2, 18143, Note_on_c, 0, 74, 0
2, 18168, Note_on_c, 0, 67, 75
2, 18191, Note_on_c, 0, 67, 0
2, 18192, Note_on_c, 0, 71, 75
2, 18216, Note_on_c, 0, 71, 0
2, 18216, Note_on_c, 0, 72, 75
2, 18239, Note_on_c, 0, 72, 0
2, 18240, Note_on_c, 0, 65, 75
2, 18263, Note_on_c, 0, 65, 0
2, 18264, Note_on_c, 0, 71, 75
2, 18287, Note_on_c, 0, 71, 0
2, 18288, Note_on_c, 0, 74, 75
2, 18311, Note_on_c, 0, 74, 0
2, 18312, Note_on_c, 0, 77, 75
2, 18335, Note_on_c, 0, 77, 0
2, 18336, Note_on_c, 0, 80, 91
2, 18408, Note_on_c, 0, 80, 0
2, 18408, Note_on_c, 0, 79, 75
2, 18420, Note_on_c, 0, 79, 0
2, 18420, Note_on_c, 0, 77, 75
2, 18432, Note_on_c, 0, 77, 0
2, 18432, Note_on_c, 0, 77, 75
2, 18455, Note_on_c, 0, 77, 0
2, 18456, Note_on_c, 0, 75, 75
2, 18479, Note_on_c, 0, 75, 0
2, 18480, Note_on_c, 0, 74, 75
2, 18503, Note_on_c, 0, 74, 0
2, 18504, Note_on_c, 0, 72, 75
2, 18527, Note_on_c, 0, 72, 0
2, 18528, Note_on_c, 0, 80, 75
2, 18543, Note_on_c, 0, 80, 0
2, 18544, Note_on_c, 0, 79, 75
2, 18559, Note_on_c, 0, 79, 0
2, 18560, Note_on_c, 0, 77, 75
2, 18575, Note_on_c, 0, 77, 0
2, 18576, Note_on_c, 0, 75, 75
2, 18591, Note_on_c, 0, 75, 0
2, 18592, Note_on_c, 0, 74, 76
2, 18607, Note_on_c, 0, 74, 0
2, 18608, Note_on_c, 0, 72, 76
2, 18623, Note_on_c, 0, 72, 0
2, 18624, Note_on_c, 0, 71, 77
2, 18713, Note_on_c, 0, 71, 0
2, 18720, Note_on_c, 0, 74, 97
2, 18792, Note_on_c, 0, 74, 0
2, 18792, Note_on_c, 0, 75, 81
2, 18804, Note_on_c, 0, 75, 0
2, 18804, Note_on_c, 0, 77, 81
2, 18816, Note_on_c, 0, 77, 0
2, 18816, Note_on_c, 0, 75, 81
2, 18864, Note_on_c, 0, 75, 0
2, 18864, Note_on_c, 0, 79, 81
2, 18884, Note_on_c, 0, 79, 0
2, 18912, Note_on_c, 0, 71, 97
2, 18984, Note_on_c, 0, 71, 0
2, 18984, Note_on_c, 0, 72, 81
2, 18996, Note_on_c, 0, 72, 0
2, 18996, Note_on_c, 0, 74, 81
2, 19008, Note_on_c, 0, 74, 0
2, 19008, Note_on_c, 0, 72, 81
2, 19056, Note_on_c, 0, 72, 0
2, 19056, Note_on_c, 0, 75, 81
2, 19076, Note_on_c, 0, 75, 0
2, 19104, Note_on_c, 0, 74, 97
2, 19176, Note_on_c, 0, 74, 0
2, 19176, Note_on_c, 0, 75, 81
2, 19188, Note_on_c, 0, 75, 0
2, 19188, Note_on_c, 0, 77, 81
2, 19200, Note_on_c, 0, 77, 0
2, 19200, Note_on_c, 0, 75, 81
2, 19248, Note_on_c, 0, 75, 0
2, 19248, Note_on_c, 0, 79, 81
2, 19268, Note_on_c, 0, 79, 0
2, 19296, Note_on_c, 0, 71, 97
2, 19368, Note_on_c, 0, 71, 0
2, 19368, Note_on_c, 0, 72, 81
2, 19380, Note_on_c, 0, 72, 0
2, 19380, Note_on_c, 0, 74, 81
2, 19392, Note_on_c, 0, 74, 0
2, 19392, Note_on_c, 0, 72, 81
2, 19440, Note_on_c, 0, 72, 0
2, 19440, Note_on_c, 0, 75, 81
2, 19460, Note_on_c, 0, 75, 0
2, 19488, Note_on_c, 0, 74, 97
2, 19560, Note_on_c, 0, 74, 0
2, 19560, Note_on_c, 0, 75, 81
2, 19572, Note_on_c, 0, 75, 0
2, 19572, Note_on_c, 0, 77, 81
2, 19584, Note_on_c, 0, 77, 0
2, 19584, Note_on_c, 0, 75, 81
2, 19618, Note_on_c, 0, 75, 0
2, 19620, Note_on_c, 0, 79, 81
2, 19625, Note_on_c, 0, 79, 0
2, 19632, Note_on_c, 0, 80, 81
2, 19644, Note_on_c, 0, 80, 0
2, 19644, Note_on_c, 0, 79, 81
2, 19656, Note_on_c, 0, 79, 0
2, 19656, Note_on_c, 0, 77, 81
2, 19668, Note_on_c, 0, 77, 0
2, 19668, Note_on_c, 0, 79, 81
2, 19680, Note_on_c, 0, 79, 0
2, 19680, Note_on_c, 0, 80, 81
2, 19714, Note_on_c, 0, 80, 0
2, 19716, Note_on_c, 0, 77, 81
2, 19728, Note_on_c, 0, 77, 0
2, 19728, Note_on_c, 0, 75, 81
2, 19762, Note_on_c, 0, 75, 0
2, 19764, Note_on_c, 0, 74, 81
2, 19776, Note_on_c, 0, 74, 0
2, 19776, Note_on_c, 0, 72, 81
2, 19843, Note_on_c, 0, 72, 0
2, 19848, Note_on_c, 0, 74, 81
2, 19871, Note_on_c, 0, 74, 0
2, 19872, Note_on_c, 0, 75, 81
2, 19879, Note_on_c, 0, 75, 0
2, 19879, Note_on_c, 0, 74, 81
2, 19886, Note_on_c, 0, 74, 0
2, 19886, Note_on_c, 0, 75, 81
2, 19893, Note_on_c, 0, 75, 0
2, 19893, Note_on_c, 0, 74, 81
2, 19900, Note_on_c, 0, 74, 0
2, 19900, Note_on_c, 0, 75, 81
2, 19907, Note_on_c, 0, 75, 0
2, 19907, Note_on_c, 0, 74, 81
2, 19914, Note_on_c, 0, 74, 0
2, 19914, Note_on_c, 0, 75, 81
2, 19921, Note_on_c, 0, 75, 0
2, 19921, Note_on_c, 0, 74, 81
2, 19928, Note_on_c, 0, 74, 0
2, 19928, Note_on_c, 0, 75, 81
2, 19935, Note_on_c, 0, 75, 0
2, 19935, Note_on_c, 0, 74, 81
2, 19942, Note_on_c, 0, 74, 0
2, 19942, Note_on_c, 0, 75, 81
2, 19949, Note_on_c, 0, 75, 0
2, 19949, Note_on_c, 0, 74, 81
2, 19956, Note_on_c, 0, 74, 0
2, 19956, Note_on_c, 0, 72, 81
2, 19962, Note_on_c, 0, 72, 0
2, 19962, Note_on_c, 0, 74, 81
2, 19968, Note_on_c, 0, 74, 0
2, 19968, Note_on_c, 0, 72, 81
2, 20057, Note_on_c, 0, 72, 0
2, 20064, Note_on_c, 0, 86, 75
2, 20076, Note_on_c, 0, 86, 0
2, 20076, Note_on_c, 0, 77, 75
2, 20154, Note_on_c, 0, 77, 0
2, 20160, Note_on_c, 0, 75, 75
2, 20172, Note_on_c, 0, 75, 0
2, 20172, Note_on_c, 0, 84, 75
2, 20250, Note_on_c, 0, 84, 0
2, 20256, Note_on_c, 0, 86, 66
2, 20268, Note_on_c, 0, 86, 0
2, 20268, Note_on_c, 0, 77, 66
2, 20346, Note_on_c, 0, 77, 0
2, 20352, Note_on_c, 0, 75, 66
2, 20364, Note_on_c, 0, 75, 0
2, 20364, Note_on_c, 0, 84, 66
2, 20442, Note_on_c, 0, 84, 0
2, 20448, Note_on_c, 0, 86, 75
2, 20460, Note_on_c, 0, 86, 0
2, 20460, Note_on_c, 0, 77, 75
2, 20538, Note_on_c, 0, 77, 0
2, 20544, Note_on_c, 0, 75, 75
2, 20559, Note_on_c, 0, 75, 0
2, 20560, Note_on_c, 0, 84, 75
2, 20575, Note_on_c, 0, 84, 0
2, 20576, Note_on_c, 0, 79, 75
2, 20591, Note_on_c, 0, 79, 0
2, 20592, Note_on_c, 0, 80, 75
2, 20607, Note_on_c, 0, 80, 0
2, 20608, Note_on_c, 0, 77, 75
2, 20623, Note_on_c, 0, 77, 0
2, 20624, Note_on_c, 0, 74, 75
2, 20639, Note_on_c, 0, 74, 0
2, 20640, Note_on_c, 0, 72, 75
2, 20685, Note_on_c, 0, 72, 0
2, 20688, Note_on_c, 0, 71, 75
2, 20695, Note_on_c, 0, 71, 0
2, 20695, Note_on_c, 0, 72, 75
2, 20702, Note_on_c, 0, 72, 0
2, 20702, Note_on_c, 0, 71, 75
2, 20709, Note_on_c, 0, 71, 0
2, 20709, Note_on_c, 0, 72, 75
2, 20716, Note_on_c, 0, 72, 0
2, 20716, Note_on_c, 0, 71, 75
2, 20723, Note_on_c, 0, 71, 0
2, 20723, Note_on_c, 0, 69, 75
2, 20730, Note_on_c, 0, 69, 0
2, 20730, Note_on_c, 0, 71, 75
2, 20736, Note_on_c, 0, 71, 0
2, 20736, Note_on_c, 0, 72, 75
2, 20825, Note_on_c, 0, 72, 0
2, 20880, Note_on_c, 0, 67, 82
2, 20928, Note_on_c, 0, 67, 0
2, 20928, Note_on_c, 0, 65, 66
2, 20951, Note_on_c, 0, 65, 0
2, 20952, Note_on_c, 0, 63, 66
2, 20975, Note_on_c, 0, 63, 0
2, 20976, Note_on_c, 0, 62, 70
2, 20999, Note_on_c, 0, 62, 0
2, 21000, Note_on_c, 0, 60, 70
2, 21023, Note_on_c, 0, 60, 0
2, 21024, Note_on_c, 0, 60, 71
2, 21069, Note_on_c, 0, 60, 0
2, 21072, Note_on_c, 0, 60, 73
2, 21117, Note_on_c, 0, 60, 0
2, 21120, Note_on_c, 0, 59, 75
2, 21154, Note_on_c, 0, 59, 0
2, 21156, Note_on_c, 0, 60, 73
2, 21162, Note_on_c, 0, 60, 0
2, 21162, Note_on_c, 0, 62, 72
2, 21168, Note_on_c, 0, 62, 0
2, 21168, Note_on_c, 0, 60, 72
2, 21213, Note_on_c, 0, 60, 0
2, 21216, Note_on_c, 0, 68, 86
2, 21216, Note_on_c, 0, 59, 86
2, 21312, Note_on_c, 0, 68, 0
2, 21312, Note_on_c, 0, 59, 0
2, 21312, Note_on_c, 0, 67, 62
2, 21312, Note_on_c, 0, 60, 62
2, 21332, Note_on_c, 0, 67, 0
2, 21332, Note_on_c, 0, 60, 0
2, 21360, Note_on_c, 0, 63, 62
2, 21360, Note_on_c, 0, 60, 62
2, 21380, Note_on_c, 0, 63, 0
2, 21380, Note_on_c, 0, 60, 0
2, 21408, Note_on_c, 0, 65, 62
2, 21408, Note_on_c, 0, 62, 62
2, 21428, Note_on_c, 0, 65, 0
2, 21428, Note_on_c, 0, 62, 0
2, 21456, Note_on_c, 0, 62, 62
2, 21456, Note_on_c, 0, 59, 62
2, 21476, Note_on_c, 0, 62, 0
2, 21476, Note_on_c, 0, 59, 0
2, 21504, Note_on_c, 0, 60, 62
2, 21593, Note_on_c, 0, 60, 0
2, 21696, End_track
3, 0, Start_track
3, 0, Program_c, 0, 0
3, 0, Control_c, 0, 7, 127
3, 0, Control_c, 0, 10, 64
3, 21696, End_track
4, 0, Start_track
4, 0, Program_c, 1, 0
4, 0, Control_c, 1, 7, 127
4, 0, Control_c, 1, 10, 64
4, 240, Note_on_c, 1, 63, 62
4, 240, Note_on_c, 1, 60, 62
4, 285, Note_on_c, 1, 63, 0
4, 285, Note_on_c, 1, 60, 0
4, 288, Note_on_c, 1, 65, 63
4, 288, Note_on_c, 1, 62, 63
4, 333, Note_on_c, 1, 65, 0
4, 333, Note_on_c, 1, 62, 0
4, 336, Note_on_c, 1, 67, 64
4, 336, Note_on_c, 1, 63, 64
4, 381, Note_on_c, 1, 67, 0
4, 381, Note_on_c, 1, 63, 0
4, 384, Note_on_c, 1, 68, 66
4, 384, Note_on_c, 1, 65, 66
4, 429, Note_on_c, 1, 68, 0
4, 429, Note_on_c, 1, 65, 0
4, 432, Note_on_c, 1, 67, 64
4, 432, Note_on_c, 1, 63, 64
4, 477, Note_on_c, 1, 67, 0
4, 477, Note_on_c, 1, 63, 0
4, 528, Note_on_c, 1, 59, 78
4, 576, Note_on_c, 1, 59, 0
4, 576, Note_on_c, 1, 60, 62
4, 621, Note_on_c, 1, 60, 0
4, 624, Note_on_c, 1, 56, 62
4, 669, Note_on_c, 1, 56, 0
4, 672, Note_on_c, 1, 53, 66
4, 717, Note_on_c, 1, 53, 0
4, 720, Note_on_c, 1, 55, 65
4, 765, Note_on_c, 1, 55, 0
4, 768, Note_on_c, 1, 48, 64
4, 857, Note_on_c, 1, 48, 0
4, 1008, Note_on_c, 1, 51, 66
4, 1008, Note_on_c, 1, 48, 66
4, 1053, Note_on_c, 1, 51, 0
4, 1053, Note_on_c, 1, 48, 0
4, 1056, Note_on_c, 1, 53, 66
4, 1056, Note_on_c, 1, 50, 66
4, 1101, Note_on_c, 1, 53, 0
4, 1101, Note_on_c, 1, 50, 0
4, 1104, Note_on_c, 1, 55, 67
4, 1104, Note_on_c, 1, 51, 67
4, 1149, Note_on_c, 1, 55, 0
4, 1149, Note_on_c, 1, 51, 0
4, 1152, Note_on_c, 1, 54, 67
4, 1152, Note_on_c, 1, 50, 67
4, 1241, Note_on_c, 1, 54, 0
4, 1241, Note_on_c, 1, 50, 0
4, 1248, Note_on_c, 1, 57, 68
4, 1248, Note_on_c, 1, 48, 68
4, 1337, Note_on_c, 1, 57, 0
4, 1337, Note_on_c, 1, 48, 0
4, 1344, Note_on_c, 1, 58, 70
4, 1344, Note_on_c, 1, 46, 70
4, 1389, Note_on_c, 1, 58, 0
4, 1389, Note_on_c, 1, 46, 0
4, 1392, Note_on_c, 1, 55, 68
4, 1392, Note_on_c, 1, 48, 68
4, 1437, Note_on_c, 1, 55, 0
4, 1437, Note_on_c, 1, 48, 0
4, 1440, Note_on_c, 1, 55, 66
4, 1485, Note_on_c, 1, 55, 0
4, 1488, Note_on_c, 1, 54, 64
4, 1533, Note_on_c, 1, 54, 0
4, 1536, Note_on_c, 1, 55, 62
4, 1551, Note_on_c, 1, 55, 0
4, 1552, Note_on_c, 1, 58, 62
4, 1567, Note_on_c, 1, 58, 0
4, 1568, Note_on_c, 1, 62, 62
4, 1583, Note_on_c, 1, 62, 0
4, 1584, Note_on_c, 1, 55, 62
4, 1599, Note_on_c, 1, 55, 0
4, 1600, Note_on_c, 1, 58, 62
4, 1615, Note_on_c, 1, 58, 0
4, 1616, Note_on_c, 1, 62, 62
4, 1631, Note_on_c, 1, 62, 0
4, 1632, Note_on_c, 1, 55, 62
4, 1647, Note_on_c, 1, 55, 0
4, 1648, Note_on_c, 1, 58, 62
4, 1663, Note_on_c, 1, 58, 0
4, 1664, Note_on_c, 1, 62, 62
4, 1679, Note_on_c, 1, 62, 0
4, 1680, Note_on_c, 1, 55, 62
4, 1695, Note_on_c, 1, 55, 0
4, 1696, Note_on_c, 1, 58, 62
4, 1711, Note_on_c, 1, 58, 0
4, 1712, Note_on_c, 1, 62, 62
4, 1727, Note_on_c, 1, 62, 0
4, 1728, Note_on_c, 1, 54, 66
4, 1743, Note_on_c, 1, 54, 0
4, 1744, Note_on_c, 1, 57, 66
4, 1759, Note_on_c, 1, 57, 0
4, 1760, Note_on_c, 1, 62, 66
4, 1775, Note_on_c, 1, 62, 0
4, 1776, Note_on_c, 1, 54, 66
4, 1791, Note_on_c, 1, 54, 0
4, 1792, Note_on_c, 1, 57, 66
4, 1807, Note_on_c, 1, 57, 0
4, 1808, Note_on_c, 1, 62, 66
4, 1823, Note_on_c, 1, 62, 0
4, 1824, Note_on_c, 1, 54, 66
4, 1839, Note_on_c, 1, 54, 0
4, 1840, Note_on_c, 1, 57, 66
4, 1855, Note_on_c, 1, 57, 0
4, 1856, Note_on_c, 1, 62, 66
4, 1871, Note_on_c, 1, 62, 0
4, 1872, Note_on_c, 1, 54, 66
4, 1887, Note_on_c, 1, 54, 0
4, 1888, Note_on_c, 1, 57, 66
4, 1903, Note_on_c, 1, 57, 0
4, 1904, Note_on_c, 1, 62, 66
4, 1919, Note_on_c, 1, 62, 0
4, 1920, Note_on_c, 1, 55, 66
4, 1935, Note_on_c, 1, 55, 0
4, 1936, Note_on_c, 1, 58, 66
4, 1951, Note_on_c, 1, 58, 0
4, 1952, Note_on_c, 1, 62, 66
4, 1967, Note_on_c, 1, 62, 0
4, 1968, Note_on_c, 1, 55, 66
4, 1983, Note_on_c, 1, 55, 0
4, 1984, Note_on_c, 1, 58, 66
4, 1999, Note_on_c, 1, 58, 0
4, 2000, Note_on_c, 1, 62, 66
4, 2015, Note_on_c, 1, 62, 0
4, 2016, Note_on_c, 1, 55, 66
4, 2031, Note_on_c, 1, 55, 0
4, 2032, Note_on_c, 1, 58, 66
4, 2047, Note_on_c, 1, 58, 0
4, 2048, Note_on_c, 1, 62, 66
4, 2063, Note_on_c, 1, 62, 0
4, 2064, Note_on_c, 1, 55, 66
4, 2079, Note_on_c, 1, 55, 0
4, 2080, Note_on_c, 1, 58, 66
4, 2095, Note_on_c, 1, 58, 0
4, 2096, Note_on_c, 1, 62, 66
4, 2111, Note_on_c, 1, 62, 0
4, 2112, Note_on_c, 1, 54, 66
4, 2127, Note_on_c, 1, 54, 0
4, 2128, Note_on_c, 1, 57, 66
4, 2143, Note_on_c, 1, 57, 0
4, 2144, Note_on_c, 1, 62, 66
4, 2159, Note_on_c, 1, 62, 0
4, 2160, Note_on_c, 1, 54, 66
4, 2175, Note_on_c, 1, 54, 0
4, 2176, Note_on_c, 1, 57, 66
4, 2191, Note_on_c, 1, 57, 0
4, 2192, Note_on_c, 1, 62, 66
4, 2207, Note_on_c, 1, 62, 0
4, 2208, Note_on_c, 1, 54, 66
4, 2223, Note_on_c, 1, 54, 0
4, 2224, Note_on_c, 1, 57, 66
4, 2239, Note_on_c, 1, 57, 0
4, 2240, Note_on_c, 1, 62, 66
4, 2255, Note_on_c, 1, 62, 0
4, 2256, Note_on_c, 1, 54, 66
4, 2271, Note_on_c, 1, 54, 0
4, 2272, Note_on_c, 1, 57, 66
4, 2287, Note_on_c, 1, 57, 0
4, 2288, Note_on_c, 1, 62, 66
4, 2303, Note_on_c, 1, 62, 0
4, 2304, Note_on_c, 1, 55, 66
4, 2319, Note_on_c, 1, 55, 0
4, 2320, Note_on_c, 1, 58, 66
4, 2335, Note_on_c, 1, 58, 0
4, 2336, Note_on_c, 1, 62, 66
4, 2351, Note_on_c, 1, 62, 0
4, 2352, Note_on_c, 1, 55, 66
4, 2367, Note_on_c, 1, 55, 0
4, 2368, Note_on_c, 1, 58, 66
4, 2383, Note_on_c, 1, 58, 0
4, 2384, Note_on_c, 1, 62, 66
4, 2399, Note_on_c, 1, 62, 0
4, 2400, Note_on_c, 1, 55, 66
4, 2415, Note_on_c, 1, 55, 0
4, 2416, Note_on_c, 1, 58, 66
4, 2431, Note_on_c, 1, 58, 0
4, 2432, Note_on_c, 1, 62, 66
4, 2447, Note_on_c, 1, 62, 0
4, 2448, Note_on_c, 1, 55, 66
4, 2463, Note_on_c, 1, 55, 0
4, 2464, Note_on_c, 1, 58, 66
4, 2479, Note_on_c, 1, 58, 0
4, 2480, Note_on_c, 1, 62, 66
4, 2495, Note_on_c, 1, 62, 0
4, 2496, Note_on_c, 1, 50, 66
4, 2511, Note_on_c, 1, 50, 0
4, 2512, Note_on_c, 1, 53, 66
4, 2527, Note_on_c, 1, 53, 0
4, 2528, Note_on_c, 1, 58, 66
4, 2543, Note_on_c, 1, 58, 0
4, 2544, Note_on_c, 1, 50, 66
4, 2559, Note_on_c, 1, 50, 0
4, 2560, Note_on_c, 1, 53, 66
4, 2575, Note_on_c, 1, 53, 0
4, 2576, Note_on_c, 1, 58, 66
4, 2591, Note_on_c, 1, 58, 0
4, 2592, Note_on_c, 1, 50, 66
4, 2607, Note_on_c, 1, 50, 0
4, 2608, Note_on_c, 1, 53, 66
4, 2623, Note_on_c, 1, 53, 0
4, 2624, Note_on_c, 1, 58, 66
4, 2639, Note_on_c, 1, 58, 0
4, 2640, Note_on_c, 1, 50, 66
4, 2655, Note_on_c, 1, 50, 0
4, 2656, Note_on_c, 1, 53, 66
4, 2671, Note_on_c, 1, 53, 0
4, 2672, Note_on_c, 1, 58, 66
4, 2687, Note_on_c, 1, 58, 0
4, 2688, Note_on_c, 1, 51, 66
4, 2703, Note_on_c, 1, 51, 0
4, 2704, Note_on_c, 1, 55, 66
4, 2719, Note_on_c, 1, 55, 0
4, 2720, Note_on_c, 1, 58, 66
4, 2735, Note_on_c, 1, 58, 0
4, 2736, Note_on_c, 1, 51, 66
4, 2751, Note_on_c, 1, 51, 0
4, 2752, Note_on_c, 1, 55, 66
4, 2767, Note_on_c, 1, 55, 0
4, 2768, Note_on_c, 1, 58, 66
4, 2783, Note_on_c, 1, 58, 0
4, 2784, Note_on_c, 1, 51, 66
4, 2799, Note_on_c, 1, 51, 0
4, 2800, Note_on_c, 1, 55, 66
4, 2815, Note_on_c, 1, 55, 0
4, 2816, Note_on_c, 1, 58, 66
4, 2831, Note_on_c, 1, 58, 0
4, 2832, Note_on_c, 1, 51, 66
4, 2847, Note_on_c, 1, 51, 0
4, 2848, Note_on_c, 1, 55, 66
4, 2863, Note_on_c, 1, 55, 0
4, 2864, Note_on_c, 1, 58, 66
4, 2879, Note_on_c, 1, 58, 0
4, 2880, Note_on_c, 1, 50, 62
4, 2895, Note_on_c, 1, 50, 0
4, 2896, Note_on_c, 1, 53, 62
4, 2911, Note_on_c, 1, 53, 0
4, 2912, Note_on_c, 1, 58, 62
4, 2927, Note_on_c, 1, 58, 0
4, 2928, Note_on_c, 1, 50, 62
4, 2943, Note_on_c, 1, 50, 0
4, 2944, Note_on_c, 1, 53, 62
4, 2959, Note_on_c, 1, 53, 0
4, 2960, Note_on_c, 1, 58, 62
4, 2975, Note_on_c, 1, 58, 0
4, 2976, Note_on_c, 1, 50, 62
4, 2991, Note_on_c, 1, 50, 0
4, 2992, Note_on_c, 1, 53, 62
4, 3007, Note_on_c, 1, 53, 0
4, 3008, Note_on_c, 1, 58, 62
4, 3023, Note_on_c, 1, 58, 0
4, 3024, Note_on_c, 1, 50, 62
4, 3039, Note_on_c, 1, 50, 0
4, 3040, Note_on_c, 1, 53, 62
4, 3055, Note_on_c, 1, 53, 0
4, 3056, Note_on_c, 1, 58, 62
4, 3071, Note_on_c, 1, 58, 0
4, 3072, Note_on_c, 1, 51, 62
4, 3087, Note_on_c, 1, 51, 0
4, 3088, Note_on_c, 1, 55, 62
4, 3103, Note_on_c, 1, 55, 0
4, 3104, Note_on_c, 1, 58, 62
4, 3119, Note_on_c, 1, 58, 0
4, 3120, Note_on_c, 1, 51, 62
4, 3135, Note_on_c, 1, 51, 0
4, 3136, Note_on_c, 1, 55, 62
4, 3151, Note_on_c, 1, 55, 0
4, 3152, Note_on_c, 1, 58, 62
4, 3167, Note_on_c, 1, 58, 0
4, 3168, Note_on_c, 1, 51, 62
4, 3183, Note_on_c, 1, 51, 0
4, 3184, Note_on_c, 1, 55, 62
4, 3199, Note_on_c, 1, 55, 0
4, 3200, Note_on_c, 1, 58, 62
4, 3215, Note_on_c, 1, 58, 0
4, 3216, Note_on_c, 1, 51, 62
4, 3231, Note_on_c, 1, 51, 0
4, 3232, Note_on_c, 1, 55, 62
4, 3247, Note_on_c, 1, 55, 0
4, 3248, Note_on_c, 1, 58, 62
4, 3263, Note_on_c, 1, 58, 0
4, 3264, Note_on_c, 1, 50, 66
4, 3279, Note_on_c, 1, 50, 0
4, 3280, Note_on_c, 1, 53, 66
4, 3295, Note_on_c, 1, 53, 0
4, 3296, Note_on_c, 1, 58, 66
4, 3311, Note_on_c, 1, 58, 0
4, 3312, Note_on_c, 1, 50, 66
4, 3327, Note_on_c, 1, 50, 0
4, 3328, Note_on_c, 1, 53, 66
4, 3343, Note_on_c, 1, 53, 0
4, 3344, Note_on_c, 1, 58, 66
4, 3359, Note_on_c, 1, 58, 0
4, 3360, Note_on_c, 1, 50, 66
4, 3375, Note_on_c, 1, 50, 0
4, 3376, Note_on_c, 1, 53, 66
4, 3391, Note_on_c, 1, 53, 0
4, 3392, Note_on_c, 1, 58, 66
4, 3407, Note_on_c, 1, 58, 0
4, 3408, Note_on_c, 1, 50, 66
4, 3423, Note_on_c, 1, 50, 0
4, 3424, Note_on_c, 1, 53, 66
4, 3439, Note_on_c, 1, 53, 0
4, 3440, Note_on_c, 1, 58, 66
4, 3455, Note_on_c, 1, 58, 0
4, 3504, Note_on_c, 1, 63, 66
4, 3549, Note_on_c, 1, 63, 0
4, 3552, Note_on_c, 1, 62, 66
4, 3597, Note_on_c, 1, 62, 0
4, 3600, Note_on_c, 1, 60, 66
4, 3645, Note_on_c, 1, 60, 0
4, 3648, Note_on_c, 1, 58, 66
4, 3663, Note_on_c, 1, 58, 0
4, 3664, Note_on_c, 1, 62, 66
4, 3679, Note_on_c, 1, 62, 0
4, 3680, Note_on_c, 1, 65, 66
4, 3695, Note_on_c, 1, 65, 0
4, 3696, Note_on_c, 1, 58, 66
4, 3711, Note_on_c, 1, 58, 0
4, 3712, Note_on_c, 1, 62, 66
4, 3727, Note_on_c, 1, 62, 0
4, 3728, Note_on_c, 1, 65, 66
4, 3743, Note_on_c, 1, 65, 0
4, 3744, Note_on_c, 1, 57, 66
4, 3759, Note_on_c, 1, 57, 0
4, 3760, Note_on_c, 1, 60, 66
4, 3775, Note_on_c, 1, 60, 0
4, 3776, Note_on_c, 1, 65, 66
4, 3791, Note_on_c, 1, 65, 0
4, 3792, Note_on_c, 1, 57, 66
4, 3807, Note_on_c, 1, 57, 0
4, 3808, Note_on_c, 1, 60, 66
4, 3823, Note_on_c, 1, 60, 0
4, 3824, Note_on_c, 1, 65, 66
4, 3839, Note_on_c, 1, 65, 0
4, 3840, Note_on_c, 1, 58, 66
4, 3855, Note_on_c, 1, 58, 0
4, 3856, Note_on_c, 1, 62, 66
4, 3871, Note_on_c, 1, 62, 0
4, 3872, Note_on_c, 1, 65, 66
4, 3887, Note_on_c, 1, 65, 0
4, 3888, Note_on_c, 1, 58, 66
4, 3903, Note_on_c, 1, 58, 0
4, 3904, Note_on_c, 1, 62, 66
4, 3919, Note_on_c, 1, 62, 0
4, 3920, Note_on_c, 1, 65, 66
4, 3935, Note_on_c, 1, 65, 0
4, 3936, Note_on_c, 1, 57, 62
4, 3951, Note_on_c, 1, 57, 0
4, 3952, Note_on_c, 1, 60, 62
4, 3967, Note_on_c, 1, 60, 0
4, 3968, Note_on_c, 1, 65, 62
4, 3983, Note_on_c, 1, 65, 0
4, 3984, Note_on_c, 1, 57, 62
4, 3999, Note_on_c, 1, 57, 0
4, 4000, Note_on_c, 1, 60, 62
4, 4015, Note_on_c, 1, 60, 0
4, 4016, Note_on_c, 1, 65, 62
4, 4031, Note_on_c, 1, 65, 0
4, 4032, Note_on_c, 1, 58, 62
4, 4047, Note_on_c, 1, 58, 0
4, 4048, Note_on_c, 1, 62, 62
4, 4063, Note_on_c, 1, 62, 0
4, 4064, Note_on_c, 1, 65, 62
4, 4079, Note_on_c, 1, 65, 0
4, 4080, Note_on_c, 1, 58, 62
4, 4095, Note_on_c, 1, 58, 0
4, 4096, Note_on_c, 1, 62, 62
4, 4111, Note_on_c, 1, 62, 0
4, 4112, Note_on_c, 1, 65, 62
4, 4127, Note_on_c, 1, 65, 0
4, 4128, Note_on_c, 1, 57, 66
4, 4143, Note_on_c, 1, 57, 0
4, 4144, Note_on_c, 1, 60, 66
4, 4159, Note_on_c, 1, 60, 0
4, 4160, Note_on_c, 1, 65, 66
4, 4175, Note_on_c, 1, 65, 0
4, 4176, Note_on_c, 1, 57, 66
4, 4191, Note_on_c, 1, 57, 0
4, 4192, Note_on_c, 1, 60, 66
4, 4207, Note_on_c, 1, 60, 0
4, 4208, Note_on_c, 1, 65, 66
4, 4223, Note_on_c, 1, 65, 0
4, 4272, Note_on_c, 1, 63, 72
4, 4317, Note_on_c, 1, 63, 0
4, 4320, Note_on_c, 1, 62, 70
4, 4365, Note_on_c, 1, 62, 0
4, 4368, Note_on_c, 1, 60, 68
4, 4413, Note_on_c, 1, 60, 0
4, 4416, Note_on_c, 1, 58, 66
4, 4461, Note_on_c, 1, 58, 0
4, 4464, Note_on_c, 1, 46, 66
4, 4509, Note_on_c, 1, 46, 0
4, 4656, Note_on_c, 1, 63, 62
4, 4656, Note_on_c, 1, 60, 62
4, 4701, Note_on_c, 1, 63, 0
4, 4701, Note_on_c, 1, 60, 0
4, 4704, Note_on_c, 1, 65, 63
4, 4704, Note_on_c, 1, 62, 63
4, 4749, Note_on_c, 1, 65, 0
4, 4749, Note_on_c, 1, 62, 0
4, 4752, Note_on_c, 1, 67, 64
4, 4752, Note_on_c, 1, 63, 64
4, 4797, Note_on_c, 1, 67, 0
4, 4797, Note_on_c, 1, 63, 0
4, 4800, Note_on_c, 1, 68, 66
4, 4800, Note_on_c, 1, 65, 66
4, 4845, Note_on_c, 1, 68, 0
4, 4845, Note_on_c, 1, 65, 0
4, 4848, Note_on_c, 1, 67, 64
4, 4848, Note_on_c, 1, 63, 64
4, 4893, Note_on_c, 1, 67, 0
4, 4893, Note_on_c, 1, 63, 0
4, 4944, Note_on_c, 1, 59, 78
4, 4992, Note_on_c, 1, 59, 0
4, 4992, Note_on_c, 1, 60, 62
4, 5037, Note_on_c, 1, 60, 0
4, 5040, Note_on_c, 1, 56, 62
4, 5085, Note_on_c, 1, 56, 0
4, 5088, Note_on_c, 1, 53, 66
4, 5133, Note_on_c, 1, 53, 0
4, 5136, Note_on_c, 1, 55, 65
4, 5181, Note_on_c, 1, 55, 0
4, 5184, Note_on_c, 1, 48, 64
4, 5273, Note_on_c, 1, 48, 0
4, 5424, Note_on_c, 1, 51, 66
4, 5424, Note_on_c, 1, 48, 66
4, 5469, Note_on_c, 1, 51, 0
4, 5469, Note_on_c, 1, 48, 0
4, 5472, Note_on_c, 1, 53, 66
4, 5472, Note_on_c, 1, 50, 66
4, 5517, Note_on_c, 1, 53, 0
4, 5517, Note_on_c, 1, 50, 0
4, 5520, Note_on_c, 1, 55, 67
4, 5520, Note_on_c, 1, 51, 67
4, 5565, Note_on_c, 1, 55, 0
4, 5565, Note_on_c, 1, 51, 0
4, 5568, Note_on_c, 1, 54, 67
4, 5568, Note_on_c, 1, 50, 67
4, 5657, Note_on_c, 1, 54, 0
4, 5657, Note_on_c, 1, 50, 0
4, 5664, Note_on_c, 1, 57, 68
4, 5664, Note_on_c, 1, 48, 68
4, 5753, Note_on_c, 1, 57, 0
4, 5753, Note_on_c, 1, 48, 0
4, 5760, Note_on_c, 1, 58, 70
4, 5760, Note_on_c, 1, 46, 70
4, 5805, Note_on_c, 1, 58, 0
4, 5805, Note_on_c, 1, 46, 0
4, 5808, Note_on_c, 1, 55, 68
4, 5808, Note_on_c, 1, 48, 68
4, 5853, Note_on_c, 1, 55, 0
4, 5853, Note_on_c, 1, 48, 0
4, 5856, Note_on_c, 1, 55, 66
4, 5901, Note_on_c, 1, 55, 0
4, 5904, Note_on_c, 1, 54, 64
4, 5949, Note_on_c, 1, 54, 0
4, 5952, Note_on_c, 1, 55, 62
4, 5967, Note_on_c, 1, 55, 0
4, 5968, Note_on_c, 1, 58, 62
4, 5983, Note_on_c, 1, 58, 0
4, 5984, Note_on_c, 1, 62, 62
4, 5999, Note_on_c, 1, 62, 0
4, 6000, Note_on_c, 1, 55, 62
4, 6015, Note_on_c, 1, 55, 0
4, 6016, Note_on_c, 1, 58, 62
4, 6031, Note_on_c, 1, 58, 0
4, 6032, Note_on_c, 1, 62, 62
4, 6047, Note_on_c, 1, 62, 0
4, 6048, Note_on_c, 1, 55, 62
4, 6063, Note_on_c, 1, 55, 0
4, 6064, Note_on_c, 1, 58, 62
4, 6079, Note_on_c, 1, 58, 0
4, 6080, Note_on_c, 1, 62, 62
4, 6095, Note_on_c, 1, 62, 0
4, 6096, Note_on_c, 1, 55, 62
4, 6111, Note_on_c, 1, 55, 0
4, 6112, Note_on_c, 1, 58, 62
4, 6127, Note_on_c, 1, 58, 0
4, 6128, Note_on_c, 1, 62, 62
4, 6143, Note_on_c, 1, 62, 0
4, 6144, Note_on_c, 1, 54, 66
4, 6159, Note_on_c, 1, 54, 0
4, 6160, Note_on_c, 1, 57, 66
4, 6175, Note_on_c, 1, 57, 0
4, 6176, Note_on_c, 1, 62, 66
4, 6191, Note_on_c, 1, 62, 0
4, 6192, Note_on_c, 1, 54, 66
4, 6207, Note_on_c, 1, 54, 0
4, 6208, Note_on_c, 1, 57, 66
4, 6223, Note_on_c, 1, 57, 0
4, 6224, Note_on_c, 1, 62, 66
4, 6239, Note_on_c, 1, 62, 0
4, 6240, Note_on_c, 1, 54, 66
4, 6255, Note_on_c, 1, 54, 0
4, 6256, Note_on_c, 1, 57, 66
4, 6271, Note_on_c, 1, 57, 0
4, 6272, Note_on_c, 1, 62, 66
4, 6287, Note_on_c, 1, 62, 0
4, 6288, Note_on_c, 1, 54, 66
4, 6303, Note_on_c, 1, 54, 0
4, 6304, Note_on_c, 1, 57, 66
4, 6319, Note_on_c, 1, 57, 0
4, 6320, Note_on_c, 1, 62, 66
4, 6335, Note_on_c, 1, 62, 0
4, 6336, Note_on_c, 1, 55, 66
4, 6351, Note_on_c, 1, 55, 0
4, 6352, Note_on_c, 1, 58, 66
4, 6367, Note_on_c, 1, 58, 0
4, 6368, Note_on_c, 1, 62, 66
4, 6383, Note_on_c, 1, 62, 0
4, 6384, Note_on_c, 1, 55, 66
4, 6399, Note_on_c, 1, 55, 0
4, 6400, Note_on_c, 1, 58, 66
4, 6415, Note_on_c, 1, 58, 0
4, 6416, Note_on_c, 1, 62, 66
4, 6431, Note_on_c, 1, 62, 0
4, 6432, Note_on_c, 1, 55, 66
4, 6447, Note_on_c, 1, 55, 0
4, 6448, Note_on_c, 1, 58, 66
4, 6463, Note_on_c, 1, 58, 0
4, 6464, Note_on_c, 1, 62, 66
4, 6479, Note_on_c, 1, 62, 0
4, 6480, Note_on_c, 1, 55, 66
4, 6495, Note_on_c, 1, 55, 0
4, 6496, Note_on_c, 1, 58, 66
4, 6511, Note_on_c, 1, 58, 0
4, 6512, Note_on_c, 1, 62, 66
4, 6527, Note_on_c, 1, 62, 0
4, 6528, Note_on_c, 1, 54, 66
4, 6543, Note_on_c, 1, 54, 0
4, 6544, Note_on_c, 1, 57, 66
4, 6559, Note_on_c, 1, 57, 0
4, 6560, Note_on_c, 1, 62, 66
4, 6575, Note_on_c, 1, 62, 0
4, 6576, Note_on_c, 1, 54, 66
4, 6591, Note_on_c, 1, 54, 0
4, 6592, Note_on_c, 1, 57, 66
4, 6607, Note_on_c, 1, 57, 0
4, 6608, Note_on_c, 1, 62, 66
4, 6623, Note_on_c, 1, 62, 0
4, 6624, Note_on_c, 1, 54, 66
4, 6639, Note_on_c, 1, 54, 0
4, 6640, Note_on_c, 1, 57, 66
4, 6655, Note_on_c, 1, 57, 0
4, 6656, Note_on_c, 1, 62, 66
4, 6671, Note_on_c, 1, 62, 0
4, 6672, Note_on_c, 1, 54, 66
4, 6687, Note_on_c, 1, 54, 0
4, 6688, Note_on_c, 1, 57, 66
4, 6703, Note_on_c, 1, 57, 0
4, 6704, Note_on_c, 1, 62, 66
4, 6719, Note_on_c, 1, 62, 0
4, 6720, Note_on_c, 1, 55, 66
4, 6735, Note_on_c, 1, 55, 0
4, 6736, Note_on_c, 1, 58, 66
4, 6751, Note_on_c, 1, 58, 0
4, 6752, Note_on_c, 1, 62, 66
4, 6767, Note_on_c, 1, 62, 0
4, 6768, Note_on_c, 1, 55, 66
4, 6783, Note_on_c, 1, 55, 0
4, 6784, Note_on_c, 1, 58, 66
4, 6799, Note_on_c, 1, 58, 0
4, 6800, Note_on_c, 1, 62, 66
4, 6815, Note_on_c, 1, 62, 0
4, 6816, Note_on_c, 1, 55, 66
4, 6831, Note_on_c, 1, 55, 0
4, 6832, Note_on_c, 1, 58, 66
4, 6847, Note_on_c, 1, 58, 0
4, 6848, Note_on_c, 1, 62, 66
4, 6863, Note_on_c, 1, 62, 0
4, 6864, Note_on_c, 1, 55, 66
4, 6879, Note_on_c, 1, 55, 0
4, 6880, Note_on_c, 1, 58, 66
4, 6895, Note_on_c, 1, 58, 0
4, 6896, Note_on_c, 1, 62, 66
4, 6911, Note_on_c, 1, 62, 0
4, 6912, Note_on_c, 1, 50, 66
4, 6927, Note_on_c, 1, 50, 0
4, 6928, Note_on_c, 1, 53, 66
4, 6943, Note_on_c, 1, 53, 0
4, 6944, Note_on_c, 1, 58, 66
4, 6959, Note_on_c, 1, 58, 0
4, 6960, Note_on_c, 1, 50, 66
4, 6975, Note_on_c, 1, 50, 0
4, 6976, Note_on_c, 1, 53, 66
4, 6991, Note_on_c, 1, 53, 0
4, 6992, Note_on_c, 1, 58, 66
4, 7007, Note_on_c, 1, 58, 0
4, 7008, Note_on_c, 1, 50, 66
4, 7023, Note_on_c, 1, 50, 0
4, 7024, Note_on_c, 1, 53, 66
4, 7039, Note_on_c, 1, 53, 0
4, 7040, Note_on_c, 1, 58, 66
4, 7055, Note_on_c, 1, 58, 0
4, 7056, Note_on_c, 1, 50, 66
4, 7071, Note_on_c, 1, 50, 0
4, 7072, Note_on_c, 1, 53, 66
4, 7087, Note_on_c, 1, 53, 0
4, 7088, Note_on_c, 1, 58, 66
4, 7103, Note_on_c, 1, 58, 0
4, 7104, Note_on_c, 1, 51, 66
4, 7119, Note_on_c, 1, 51, 0
4, 7120, Note_on_c, 1, 55, 66
4, 7135, Note_on_c, 1, 55, 0
4, 7136, Note_on_c, 1, 58, 66
4, 7151, Note_on_c, 1, 58, 0
4, 7152, Note_on_c, 1, 51, 66
4, 7167, Note_on_c, 1, 51, 0
4, 7168, Note_on_c, 1, 55, 66
4, 7183, Note_on_c, 1, 55, 0
4, 7184, Note_on_c, 1, 58, 66
4, 7199, Note_on_c, 1, 58, 0
4, 7200, Note_on_c, 1, 51, 66
4, 7215, Note_on_c, 1, 51, 0
4, 7216, Note_on_c, 1, 55, 66
4, 7231, Note_on_c, 1, 55, 0
4, 7232, Note_on_c, 1, 58, 66
4, 7247, Note_on_c, 1, 58, 0
4, 7248, Note_on_c, 1, 51, 66
4, 7263, Note_on_c, 1, 51, 0
4, 7264, Note_on_c, 1, 55, 66
4, 7279, Note_on_c, 1, 55, 0
4, 7280, Note_on_c, 1, 58, 66
4, 7295, Note_on_c, 1, 58, 0
4, 7296, Note_on_c, 1, 50, 62
4, 7311, Note_on_c, 1, 50, 0
4, 7312, Note_on_c, 1, 53, 62
4, 7327, Note_on_c, 1, 53, 0
4, 7328, Note_on_c, 1, 58, 62
4, 7343, Note_on_c, 1, 58, 0
4, 7344, Note_on_c, 1, 50, 62
4, 7359, Note_on_c, 1, 50, 0
4, 7360, Note_on_c, 1, 53, 62
4, 7375, Note_on_c, 1, 53, 0
4, 7376, Note_on_c, 1, 58, 62
4, 7391, Note_on_c, 1, 58, 0
4, 7392, Note_on_c, 1, 50, 62
4, 7407, Note_on_c, 1, 50, 0
4, 7408, Note_on_c, 1, 53, 62
4, 7423, Note_on_c, 1, 53, 0
4, 7424, Note_on_c, 1, 58, 62
4, 7439, Note_on_c, 1, 58, 0
4, 7440, Note_on_c, 1, 50, 62
4, 7455, Note_on_c, 1, 50, 0
4, 7456, Note_on_c, 1, 53, 62
4, 7471, Note_on_c, 1, 53, 0
4, 7472, Note_on_c, 1, 58, 62
4, 7487, Note_on_c, 1, 58, 0
4, 7488, Note_on_c, 1, 51, 62
4, 7503, Note_on_c, 1, 51, 0
4, 7504, Note_on_c, 1, 55, 62
4, 7519, Note_on_c, 1, 55, 0
4, 7520, Note_on_c, 1, 58, 62
4, 7535, Note_on_c, 1, 58, 0
4, 7536, Note_on_c, 1, 51, 62
4, 7551, Note_on_c, 1, 51, 0
4, 7552, Note_on_c, 1, 55, 62
4, 7567, Note_on_c, 1, 55, 0
4, 7568, Note_on_c, 1, 58, 62
4, 7583, Note_on_c, 1, 58, 0
4, 7584, Note_on_c, 1, 51, 62
4, 7599, Note_on_c, 1, 51, 0
4, 7600, Note_on_c, 1, 55, 62
4, 7615, Note_on_c, 1, 55, 0
4, 7616, Note_on_c, 1, 58, 62
4, 7631, Note_on_c, 1, 58, 0
4, 7632, Note_on_c, 1, 51, 62
4, 7647, Note_on_c, 1, 51, 0
4, 7648, Note_on_c, 1, 55, 62
4, 7663, Note_on_c, 1, 55, 0
4, 7664, Note_on_c, 1, 58, 62
4, 7679, Note_on_c, 1, 58, 0
4, 7680, Note_on_c, 1, 50, 66
4, 7695, Note_on_c, 1, 50, 0
4, 7696, Note_on_c, 1, 53, 66
4, 7711, Note_on_c, 1, 53, 0
4, 7712, Note_on_c, 1, 58, 66
4, 7727, Note_on_c, 1, 58, 0
4, 7728, Note_on_c, 1, 50, 66
4, 7743, Note_on_c, 1, 50, 0
4, 7744, Note_on_c, 1, 53, 66
4, 7759, Note_on_c, 1, 53, 0
4, 7760, Note_on_c, 1, 58, 66
4, 7775, Note_on_c, 1, 58, 0
4, 7776, Note_on_c, 1, 50, 66
4, 7791, Note_on_c, 1, 50, 0
4, 7792, Note_on_c, 1, 53, 66
4, 7807, Note_on_c, 1, 53, 0
4, 7808, Note_on_c, 1, 58, 66
4, 7823, Note_on_c, 1, 58, 0
4, 7824, Note_on_c, 1, 50, 66
4, 7839, Note_on_c, 1, 50, 0
4, 7840, Note_on_c, 1, 53, 66
4, 7855, Note_on_c, 1, 53, 0
4, 7856, Note_on_c, 1, 58, 66
4, 7871, Note_on_c, 1, 58, 0
4, 7920, Note_on_c, 1, 63, 66
4, 7965, Note_on_c, 1, 63, 0
4, 7968, Note_on_c, 1, 62, 66
4, 8013, Note_on_c, 1, 62, 0
4, 8016, Note_on_c, 1, 60, 66
4, 8061, Note_on_c, 1, 60, 0
4, 8064, Note_on_c, 1, 58, 66
4, 8079, Note_on_c, 1, 58, 0
4, 8080, Note_on_c, 1, 62, 66
4, 8095, Note_on_c, 1, 62, 0
4, 8096, Note_on_c, 1, 65, 66
4, 8111, Note_on_c, 1, 65, 0
4, 8112, Note_on_c, 1, 58, 66
4, 8127, Note_on_c, 1, 58, 0
4, 8128, Note_on_c, 1, 62, 66
4, 8143, Note_on_c, 1, 62, 0
4, 8144, Note_on_c, 1, 65, 66
4, 8159, Note_on_c, 1, 65, 0
4, 8160, Note_on_c, 1, 57, 66
4, 8175, Note_on_c, 1, 57, 0
4, 8176, Note_on_c, 1, 60, 66
4, 8191, Note_on_c, 1, 60, 0
4, 8192, Note_on_c, 1, 65, 66
4, 8207, Note_on_c, 1, 65, 0
4, 8208, Note_on_c, 1, 57, 66
4, 8223, Note_on_c, 1, 57, 0
4, 8224, Note_on_c, 1, 60, 66
4, 8239, Note_on_c, 1, 60, 0
4, 8240, Note_on_c, 1, 65, 66
4, 8255, Note_on_c, 1, 65, 0
4, 8256, Note_on_c, 1, 58, 66
4, 8271, Note_on_c, 1, 58, 0
4, 8272, Note_on_c, 1, 62, 66
4, 8287, Note_on_c, 1, 62, 0
4, 8288, Note_on_c, 1, 65, 66
4, 8303, Note_on_c, 1, 65, 0
4, 8304, Note_on_c, 1, 58, 66
4, 8319, Note_on_c, 1, 58, 0
4, 8320, Note_on_c, 1, 62, 66
4, 8335, Note_on_c, 1, 62, 0
4, 8336, Note_on_c, 1, 65, 66
4, 8351, Note_on_c, 1, 65, 0
4, 8352, Note_on_c, 1, 57, 62
4, 8367, Note_on_c, 1, 57, 0
4, 8368, Note_on_c, 1, 60, 62
4, 8383, Note_on_c, 1, 60, 0
4, 8384, Note_on_c, 1, 65, 62
4, 8399, Note_on_c, 1, 65, 0
4, 8400, Note_on_c, 1, 57, 62
4, 8415, Note_on_c, 1, 57, 0
4, 8416, Note_on_c, 1, 60, 62
4, 8431, Note_on_c, 1, 60, 0
4, 8432, Note_on_c, 1, 65, 62
4, 8447, Note_on_c, 1, 65, 0
4, 8448, Note_on_c, 1, 58, 62
4, 8463, Note_on_c, 1, 58, 0
4, 8464, Note_on_c, 1, 62, 62
4, 8479, Note_on_c, 1, 62, 0
4, 8480, Note_on_c, 1, 65, 62
4, 8495, Note_on_c, 1, 65, 0
4, 8496, Note_on_c, 1, 58, 62
4, 8511, Note_on_c, 1, 58, 0
4, 8512, Note_on_c, 1, 62, 62
4, 8527, Note_on_c, 1, 62, 0
4, 8528, Note_on_c, 1, 65, 62
4, 8543, Note_on_c, 1, 65, 0
4, 8544, Note_on_c, 1, 57, 66
4, 8559, Note_on_c, 1, 57, 0
4, 8560, Note_on_c, 1, 60, 66
4, 8575, Note_on_c, 1, 60, 0
4, 8576, Note_on_c, 1, 65, 66
4, 8591, Note_on_c, 1, 65, 0
4, 8592, Note_on_c, 1, 57, 66
4, 8607, Note_on_c, 1, 57, 0
4, 8608, Note_on_c, 1, 60, 66
4, 8623, Note_on_c, 1, 60, 0
4, 8624, Note_on_c, 1, 65, 66
4, 8639, Note_on_c, 1, 65, 0
4, 8688, Note_on_c, 1, 63, 72
4, 8733, Note_on_c, 1, 63, 0
4, 8736, Note_on_c, 1, 62, 70
4, 8781, Note_on_c, 1, 62, 0
4, 8784, Note_on_c, 1, 60, 68
4, 8829, Note_on_c, 1, 60, 0
4, 8832, Note_on_c, 1, 58, 66
4, 8877, Note_on_c, 1, 58, 0
4, 8880, Note_on_c, 1, 46, 66
4, 8925, Note_on_c, 1, 46, 0
4, 9072, Note_on_c, 1, 50, 66
4, 9072, Note_on_c, 1, 46, 66
4, 9117, Note_on_c, 1, 50, 0
4, 9117, Note_on_c, 1, 46, 0
4, 9120, Note_on_c, 1, 51, 67
4, 9120, Note_on_c, 1, 48, 67
4, 9165, Note_on_c, 1, 51, 0
4, 9165, Note_on_c, 1, 48, 0
4, 9168, Note_on_c, 1, 53, 68
4, 9168, Note_on_c, 1, 50, 68
4, 9213, Note_on_c, 1, 53, 0
4, 9213, Note_on_c, 1, 50, 0
4, 9216, Note_on_c, 1, 55, 68
4, 9216, Note_on_c, 1, 51, 68
4, 9305, Note_on_c, 1, 55, 0
4, 9305, Note_on_c, 1, 51, 0
4, 9456, Note_on_c, 1, 51, 72
4, 9456, Note_on_c, 1, 48, 72
4, 9501, Note_on_c, 1, 51, 0
4, 9501, Note_on_c, 1, 48, 0
4, 9504, Note_on_c, 1, 53, 73
4, 9504, Note_on_c, 1, 50, 73
4, 9549, Note_on_c, 1, 53, 0
4, 9549, Note_on_c, 1, 50, 0
4, 9552, Note_on_c, 1, 55, 73
4, 9552, Note_on_c, 1, 51, 73
4, 9597, Note_on_c, 1, 55, 0
4, 9597, Note_on_c, 1, 51, 0
4, 9600, Note_on_c, 1, 57, 74
4, 9600, Note_on_c, 1, 53, 74
4, 9689, Note_on_c, 1, 57, 0
4, 9689, Note_on_c, 1, 53, 0
4, 9840, Note_on_c, 1, 54, 78
4, 9840, Note_on_c, 1, 50, 78
4, 9885, Note_on_c, 1, 54, 0
4, 9885, Note_on_c, 1, 50, 0
4, 9888, Note_on_c, 1, 55, 78
4, 9888, Note_on_c, 1, 52, 78
4, 9933, Note_on_c, 1, 55, 0
4, 9933, Note_on_c, 1, 52, 0
4, 9936, Note_on_c, 1, 57, 79
4, 9936, Note_on_c, 1, 54, 79
4, 9981, Note_on_c, 1, 57, 0
4, 9981, Note_on_c, 1, 54, 0
4, 9984, Note_on_c, 1, 58, 80
4, 10029, Note_on_c, 1, 58, 0
4, 10032, Note_on_c, 1, 67, 70
4, 10080, Note_on_c, 1, 67, 0
4, 10080, Note_on_c, 1, 65, 70
4, 10169, Note_on_c, 1, 65, 0
4, 10224, Note_on_c, 1, 70, 70
4, 10313, Note_on_c, 1, 70, 0
4, 10320, Note_on_c, 1, 67, 70
4, 10365, Note_on_c, 1, 67, 0
4, 10368, Note_on_c, 1, 66, 68
4, 10368, Note_on_c, 1, 62, 68
4, 10457, Note_on_c, 1, 66, 0
4, 10457, Note_on_c, 1, 62, 0
4, 10608, Note_on_c, 1, 58, 66
4, 10608, Note_on_c, 1, 55, 66
4, 10653, Note_on_c, 1, 58, 0
4, 10653, Note_on_c, 1, 55, 0
4, 10656, Note_on_c, 1, 60, 66
4, 10656, Note_on_c, 1, 57, 66
4, 10701, Note_on_c, 1, 60, 0
4, 10701, Note_on_c, 1, 57, 0
4, 10704, Note_on_c, 1, 62, 67
4, 10704, Note_on_c, 1, 58, 67
4, 10749, Note_on_c, 1, 62, 0
4, 10749, Note_on_c, 1, 58, 0
4, 10800, Note_on_c, 1, 63, 68
4, 10800, Note_on_c, 1, 60, 68
4, 10845, Note_on_c, 1, 63, 0
4, 10845, Note_on_c, 1, 60, 0
4, 10848, Note_on_c, 1, 65, 68
4, 10848, Note_on_c, 1, 62, 68
4, 10893, Note_on_c, 1, 65, 0
4, 10893, Note_on_c, 1, 62, 0
4, 10896, Note_on_c, 1, 67, 69
4, 10896, Note_on_c, 1, 63, 69
4, 10941, Note_on_c, 1, 67, 0
4, 10941, Note_on_c, 1, 63, 0
4, 10992, Note_on_c, 1, 69, 70
4, 10992, Note_on_c, 1, 65, 70
4, 11037, Note_on_c, 1, 69, 0
4, 11037, Note_on_c, 1, 65, 0
4, 11040, Note_on_c, 1, 70, 70
4, 11040, Note_on_c, 1, 67, 70
4, 11085, Note_on_c, 1, 70, 0
4, 11085, Note_on_c, 1, 67, 0
4, 11088, Note_on_c, 1, 72, 70
4, 11088, Note_on_c, 1, 69, 70
4, 11133, Note_on_c, 1, 72, 0
4, 11133, Note_on_c, 1, 69, 0
4, 11184, Note_on_c, 1, 62, 71
4, 11184, Note_on_c, 1, 58, 71
4, 11229, Note_on_c, 1, 62, 0
4, 11229, Note_on_c, 1, 58, 0
4, 11232, Note_on_c, 1, 63, 72
4, 11232, Note_on_c, 1, 60, 72
4, 11277, Note_on_c, 1, 63, 0
4, 11277, Note_on_c, 1, 60, 0
4, 11280, Note_on_c, 1, 65, 72
4, 11280, Note_on_c, 1, 62, 72
4, 11325, Note_on_c, 1, 65, 0
4, 11325, Note_on_c, 1, 62, 0
4, 11376, Note_on_c, 1, 67, 73
4, 11376, Note_on_c, 1, 63, 73
4, 11421, Note_on_c, 1, 67, 0
4, 11421, Note_on_c, 1, 63, 0
4, 11424, Note_on_c, 1, 68, 74
4, 11424, Note_on_c, 1, 65, 74
4, 11469, Note_on_c, 1, 68, 0
4, 11469, Note_on_c, 1, 65, 0
4, 11472, Note_on_c, 1, 70, 74
4, 11472, Note_on_c, 1, 67, 74
4, 11517, Note_on_c, 1, 70, 0
4, 11517, Note_on_c, 1, 67, 0
4, 11520, Note_on_c, 1, 68, 75
4, 11609, Note_on_c, 1, 68, 0
4, 11616, Note_on_c, 1, 67, 75
4, 11705, Note_on_c, 1, 67, 0
4, 11712, Note_on_c, 1, 65, 75
4, 11801, Note_on_c, 1, 65, 0
4, 11808, Note_on_c, 1, 63, 75
4, 11897, Note_on_c, 1, 63, 0
4, 11904, Note_on_c, 1, 62, 75
4, 11993, Note_on_c, 1, 62, 0
4, 12048, Note_on_c, 1, 59, 75
4, 12093, Note_on_c, 1, 59, 0
4, 12096, Note_on_c, 1, 60, 75
4, 12141, Note_on_c, 1, 60, 0
4, 12144, Note_on_c, 1, 51, 75
4, 12189, Note_on_c, 1, 51, 0
4, 12192, Note_on_c, 1, 53, 75
4, 12240, Note_on_c, 1, 53, 0
4, 12240, Note_on_c, 1, 54, 77
4, 12285, Note_on_c, 1, 54, 0
4, 12288, Note_on_c, 1, 55, 80
4, 12303, Note_on_c, 1, 55, 0
4, 12304, Note_on_c, 1, 59, 81
4, 12319, Note_on_c, 1, 59, 0
4, 12320, Note_on_c, 1, 62, 81
4, 12335, Note_on_c, 1, 62, 0
4, 12336, Note_on_c, 1, 55, 81
4, 12351, Note_on_c, 1, 55, 0
4, 12352, Note_on_c, 1, 59, 81
4, 12367, Note_on_c, 1, 59, 0
4, 12368, Note_on_c, 1, 62, 81
4, 12383, Note_on_c, 1, 62, 0
4, 12384, Note_on_c, 1, 55, 81
4, 12399, Note_on_c, 1, 55, 0
4, 12400, Note_on_c, 1, 59, 81
4, 12415, Note_on_c, 1, 59, 0
4, 12416, Note_on_c, 1, 62, 81
4, 12431, Note_on_c, 1, 62, 0
4, 12432, Note_on_c, 1, 55, 81
4, 12447, Note_on_c, 1, 55, 0
4, 12448, Note_on_c, 1, 59, 81
4, 12463, Note_on_c, 1, 59, 0
4, 12464, Note_on_c, 1, 62, 81
4, 12479, Note_on_c, 1, 62, 0
4, 12480, Note_on_c, 1, 55, 81
4, 12495, Note_on_c, 1, 55, 0
4, 12496, Note_on_c, 1, 60, 81
4, 12511, Note_on_c, 1, 60, 0
4, 12512, Note_on_c, 1, 63, 81
4, 12527, Note_on_c, 1, 63, 0
4, 12528, Note_on_c, 1, 55, 81
4, 12543, Note_on_c, 1, 55, 0
4, 12544, Note_on_c, 1, 60, 81
4, 12559, Note_on_c, 1, 60, 0
4, 12560, Note_on_c, 1, 63, 81
4, 12575, Note_on_c, 1, 63, 0
4, 12576, Note_on_c, 1, 55, 81
4, 12591, Note_on_c, 1, 55, 0
4, 12592, Note_on_c, 1, 62, 81
4, 12607, Note_on_c, 1, 62, 0
4, 12608, Note_on_c, 1, 65, 81
4, 12623, Note_on_c, 1, 65, 0
4, 12624, Note_on_c, 1, 55, 81
4, 12639, Note_on_c, 1, 55, 0
4, 12640, Note_on_c, 1, 62, 81
4, 12655, Note_on_c, 1, 62, 0
4, 12656, Note_on_c, 1, 65, 81
4, 12671, Note_on_c, 1, 65, 0
4, 12672, Note_on_c, 1, 55, 81
4, 12687, Note_on_c, 1, 55, 0
4, 12688, Note_on_c, 1, 63, 81
4, 12703, Note_on_c, 1, 63, 0
4, 12704, Note_on_c, 1, 67, 81
4, 12719, Note_on_c, 1, 67, 0
4, 12720, Note_on_c, 1, 55, 81
4, 12735, Note_on_c, 1, 55, 0
4, 12736, Note_on_c, 1, 63, 81
4, 12751, Note_on_c, 1, 63, 0
4, 12752, Note_on_c, 1, 67, 81
4, 12767, Note_on_c, 1, 67, 0
4, 12768, Note_on_c, 1, 55, 81
4, 12783, Note_on_c, 1, 55, 0
4, 12784, Note_on_c, 1, 59, 81
4, 12799, Note_on_c, 1, 59, 0
4, 12800, Note_on_c, 1, 62, 81
4, 12815, Note_on_c, 1, 62, 0
4, 12816, Note_on_c, 1, 55, 81
4, 12831, Note_on_c, 1, 55, 0
4, 12832, Note_on_c, 1, 59, 81
4, 12847, Note_on_c, 1, 59, 0
4, 12848, Note_on_c, 1, 62, 81
4, 12863, Note_on_c, 1, 62, 0
4, 12864, Note_on_c, 1, 55, 81
4, 12879, Note_on_c, 1, 55, 0
4, 12880, Note_on_c, 1, 60, 81
4, 12895, Note_on_c, 1, 60, 0
4, 12896, Note_on_c, 1, 63, 81
4, 12911, Note_on_c, 1, 63, 0
4, 12912, Note_on_c, 1, 55, 81
4, 12927, Note_on_c, 1, 55, 0
4, 12928, Note_on_c, 1, 60, 81
4, 12943, Note_on_c, 1, 60, 0
4, 12944, Note_on_c, 1, 63, 81
4, 12959, Note_on_c, 1, 63, 0
4, 12960, Note_on_c, 1, 55, 81
4, 12975, Note_on_c, 1, 55, 0
4, 12976, Note_on_c, 1, 62, 81
4, 12991, Note_on_c, 1, 62, 0
4, 12992, Note_on_c, 1, 65, 81
4, 13007, Note_on_c, 1, 65, 0
4, 13008, Note_on_c, 1, 55, 81
4, 13023, Note_on_c, 1, 55, 0
4, 13024, Note_on_c, 1, 62, 81
4, 13039, Note_on_c, 1, 62, 0
4, 13040, Note_on_c, 1, 65, 81
4, 13055, Note_on_c, 1, 65, 0
4, 13056, Note_on_c, 1, 55, 81
4, 13071, Note_on_c, 1, 55, 0
4, 13072, Note_on_c, 1, 63, 81
4, 13087, Note_on_c, 1, 63, 0
4, 13088, Note_on_c, 1, 67, 81
4, 13103, Note_on_c, 1, 67, 0
4, 13104, Note_on_c, 1, 55, 81
4, 13119, Note_on_c, 1, 55, 0
4, 13120, Note_on_c, 1, 63, 81
4, 13135, Note_on_c, 1, 63, 0
4, 13136, Note_on_c, 1, 67, 81
4, 13151, Note_on_c, 1, 67, 0
4, 13152, Note_on_c, 1, 55, 81
4, 13167, Note_on_c, 1, 55, 0
4, 13168, Note_on_c, 1, 59, 81
4, 13183, Note_on_c, 1, 59, 0
4, 13184, Note_on_c, 1, 62, 81
4, 13199, Note_on_c, 1, 62, 0
4, 13200, Note_on_c, 1, 55, 81
4, 13215, Note_on_c, 1, 55, 0
4, 13216, Note_on_c, 1, 59, 81
4, 13231, Note_on_c, 1, 59, 0
4, 13232, Note_on_c, 1, 62, 81
4, 13247, Note_on_c, 1, 62, 0
4, 13248, Note_on_c, 1, 60, 81
4, 13293, Note_on_c, 1, 60, 0
4, 13296, Note_on_c, 1, 63, 81
4, 13341, Note_on_c, 1, 63, 0
4, 13344, Note_on_c, 1, 65, 81
4, 13433, Note_on_c, 1, 65, 0
4, 13488, Note_on_c, 1, 60, 81
4, 13577, Note_on_c, 1, 60, 0
4, 13584, Note_on_c, 1, 59, 81
4, 13629, Note_on_c, 1, 59, 0
4, 14208, Note_on_c, 1, 48, 66
4, 14253, Note_on_c, 1, 48, 0
4, 14256, Note_on_c, 1, 53, 66
4, 14301, Note_on_c, 1, 53, 0
4, 14304, Note_on_c, 1, 51, 66
4, 14349, Note_on_c, 1, 51, 0
4, 14352, Note_on_c, 1, 50, 66
4, 14397, Note_on_c, 1, 50, 0
4, 14400, Note_on_c, 1, 48, 66
4, 14445, Note_on_c, 1, 48, 0
4, 14448, Note_on_c, 1, 43, 66
4, 14493, Note_on_c, 1, 43, 0
4, 14496, Note_on_c, 1, 36, 66
4, 14585, Note_on_c, 1, 36, 0
4, 14640, Note_on_c, 1, 51, 62
4, 14640, Note_on_c, 1, 48, 62
4, 14685, Note_on_c, 1, 51, 0
4, 14685, Note_on_c, 1, 48, 0
4, 14688, Note_on_c, 1, 53, 63
4, 14688, Note_on_c, 1, 50, 63
4, 14733, Note_on_c, 1, 53, 0
4, 14733, Note_on_c, 1, 50, 0
4, 14736, Note_on_c, 1, 55, 64
4, 14736, Note_on_c, 1, 51, 64
4, 14781, Note_on_c, 1, 55, 0
4, 14781, Note_on_c, 1, 51, 0
4, 14784, Note_on_c, 1, 56, 66
4, 14784, Note_on_c, 1, 53, 66
4, 14829, Note_on_c, 1, 56, 0
4, 14829, Note_on_c, 1, 53, 0
4, 14832, Note_on_c, 1, 55, 64
4, 14832, Note_on_c, 1, 51, 64
4, 14877, Note_on_c, 1, 55, 0
4, 14877, Note_on_c, 1, 51, 0
4, 14928, Note_on_c, 1, 53, 78
4, 14976, Note_on_c, 1, 53, 0
4, 14976, Note_on_c, 1, 51, 62
4, 14996, Note_on_c, 1, 51, 0
4, 15024, Note_on_c, 1, 56, 62
4, 15044, Note_on_c, 1, 56, 0
4, 15072, Note_on_c, 1, 53, 62
4, 15092, Note_on_c, 1, 53, 0
4, 15120, Note_on_c, 1, 55, 62
4, 15140, Note_on_c, 1, 55, 0
4, 15168, Note_on_c, 1, 48, 62
4, 15213, Note_on_c, 1, 48, 0
4, 15216, Note_on_c, 1, 36, 62
4, 15261, Note_on_c, 1, 36, 0
4, 15408, Note_on_c, 1, 50, 66
4, 15408, Note_on_c, 1, 46, 66
4, 15453, Note_on_c, 1, 50, 0
4, 15453, Note_on_c, 1, 46, 0
4, 15456, Note_on_c, 1, 51, 67
4, 15456, Note_on_c, 1, 48, 67
4, 15501, Note_on_c, 1, 51, 0
4, 15501, Note_on_c, 1, 48, 0
4, 15504, Note_on_c, 1, 53, 68
4, 15504, Note_on_c, 1, 50, 68
4, 15549, Note_on_c, 1, 53, 0
4, 15549, Note_on_c, 1, 50, 0
4, 15552, Note_on_c, 1, 55, 68
4, 15552, Note_on_c, 1, 51, 68
4, 15641, Note_on_c, 1, 55, 0
4, 15641, Note_on_c, 1, 51, 0
4, 15792, Note_on_c, 1, 51, 72
4, 15792, Note_on_c, 1, 48, 72
4, 15837, Note_on_c, 1, 51, 0
4, 15837, Note_on_c, 1, 48, 0
4, 15840, Note_on_c, 1, 53, 73
4, 15840, Note_on_c, 1, 50, 73
4, 15885, Note_on_c, 1, 53, 0
4, 15885, Note_on_c, 1, 50, 0
4, 15888, Note_on_c, 1, 55, 73
4, 15888, Note_on_c, 1, 51, 73
4, 15933, Note_on_c, 1, 55, 0
4, 15933, Note_on_c, 1, 51, 0
4, 15936, Note_on_c, 1, 57, 74
4, 15936, Note_on_c, 1, 53, 74
4, 16025, Note_on_c, 1, 57, 0
4, 16025, Note_on_c, 1, 53, 0
4, 16176, Note_on_c, 1, 54, 78
4, 16176, Note_on_c, 1, 50, 78
4, 16221, Note_on_c, 1, 54, 0
4, 16221, Note_on_c, 1, 50, 0
4, 16224, Note_on_c, 1, 55, 78
4, 16224, Note_on_c, 1, 52, 78
4, 16269, Note_on_c, 1, 55, 0
4, 16269, Note_on_c, 1, 52, 0
4, 16272, Note_on_c, 1, 57, 79
4, 16272, Note_on_c, 1, 54, 79
4, 16317, Note_on_c, 1, 57, 0
4, 16317, Note_on_c, 1, 54, 0
4, 16320, Note_on_c, 1, 58, 80
4, 16365, Note_on_c, 1, 58, 0
4, 16368, Note_on_c, 1, 67, 70
4, 16416, Note_on_c, 1, 67, 0
4, 16416, Note_on_c, 1, 65, 70
4, 16505, Note_on_c, 1, 65, 0
4, 16560, Note_on_c, 1, 70, 70
4, 16649, Note_on_c, 1, 70, 0
4, 16656, Note_on_c, 1, 67, 70
4, 16701, Note_on_c, 1, 67, 0
4, 16704, Note_on_c, 1, 66, 68
4, 16704, Note_on_c, 1, 62, 68
4, 16793, Note_on_c, 1, 66, 0
4, 16793, Note_on_c, 1, 62, 0
4, 16944, Note_on_c, 1, 58, 66
4, 16944, Note_on_c, 1, 55, 66
4, 16989, Note_on_c, 1, 58, 0
4, 16989, Note_on_c, 1, 55, 0
4, 16992, Note_on_c, 1, 60, 66
4, 16992, Note_on_c, 1, 57, 66
4, 17037, Note_on_c, 1, 60, 0
4, 17037, Note_on_c, 1, 57, 0
4, 17040, Note_on_c, 1, 62, 67
4, 17040, Note_on_c, 1, 58, 67
4, 17085, Note_on_c, 1, 62, 0
4, 17085, Note_on_c, 1, 58, 0
4, 17136, Note_on_c, 1, 63, 68
4, 17136, Note_on_c, 1, 60, 68
4, 17181, Note_on_c, 1, 63, 0
4, 17181, Note_on_c, 1, 60, 0
4, 17184, Note_on_c, 1, 65, 68
4, 17184, Note_on_c, 1, 62, 68
4, 17229, Note_on_c, 1, 65, 0
4, 17229, Note_on_c, 1, 62, 0
4, 17232, Note_on_c, 1, 67, 69
4, 17232, Note_on_c, 1, 63, 69
4, 17277, Note_on_c, 1, 67, 0
4, 17277, Note_on_c, 1, 63, 0
4, 17328, Note_on_c, 1, 69, 70
4, 17328, Note_on_c, 1, 65, 70
4, 17373, Note_on_c, 1, 69, 0
4, 17373, Note_on_c, 1, 65, 0
4, 17376, Note_on_c, 1, 70, 70
4, 17376, Note_on_c, 1, 67, 70
4, 17421, Note_on_c, 1, 70, 0
4, 17421, Note_on_c, 1, 67, 0
4, 17424, Note_on_c, 1, 72, 70
4, 17424, Note_on_c, 1, 69, 70
4, 17469, Note_on_c, 1, 72, 0
4, 17469, Note_on_c, 1, 69, 0
4, 17520, Note_on_c, 1, 62, 71
4, 17520, Note_on_c, 1, 58, 71
4, 17565, Note_on_c, 1, 62, 0
4, 17565, Note_on_c, 1, 58, 0
4, 17568, Note_on_c, 1, 63, 72
4, 17568, Note_on_c, 1, 60, 72
4, 17613, Note_on_c, 1, 63, 0
4, 17613, Note_on_c, 1, 60, 0
4, 17616, Note_on_c, 1, 65, 72
4, 17616, Note_on_c, 1, 62, 72
4, 17661, Note_on_c, 1, 65, 0
4, 17661, Note_on_c, 1, 62, 0
4, 17712, Note_on_c, 1, 67, 73
4, 17712, Note_on_c, 1, 63, 73
4, 17757, Note_on_c, 1, 67, 0
4, 17757, Note_on_c, 1, 63, 0
4, 17760, Note_on_c, 1, 68, 74
4, 17760, Note_on_c, 1, 65, 74
4, 17805, Note_on_c, 1, 68, 0
4, 17805, Note_on_c, 1, 65, 0
4, 17808, Note_on_c, 1, 70, 74
4, 17808, Note_on_c, 1, 67, 74
4, 17853, Note_on_c, 1, 70, 0
4, 17853, Note_on_c, 1, 67, 0
4, 17856, Note_on_c, 1, 68, 75
4, 17945, Note_on_c, 1, 68, 0
4, 17952, Note_on_c, 1, 67, 75
4, 18041, Note_on_c, 1, 67, 0
4, 18048, Note_on_c, 1, 65, 75
4, 18137, Note_on_c, 1, 65, 0
4, 18144, Note_on_c, 1, 63, 75
4, 18233, Note_on_c, 1, 63, 0
4, 18240, Note_on_c, 1, 62, 75
4, 18329, Note_on_c, 1, 62, 0
4, 18384, Note_on_c, 1, 59, 75
4, 18429, Note_on_c, 1, 59, 0
4, 18432, Note_on_c, 1, 60, 75
4, 18477, Note_on_c, 1, 60, 0
4, 18480, Note_on_c, 1, 51, 75
4, 18525, Note_on_c, 1, 51, 0
4, 18528, Note_on_c, 1, 53, 75
4, 18576, Note_on_c, 1, 53, 0
4, 18576, Note_on_c, 1, 54, 77
4, 18621, Note_on_c, 1, 54, 0
4, 18624, Note_on_c, 1, 55, 80
4, 18639, Note_on_c, 1, 55, 0
4, 18640, Note_on_c, 1, 59, 81
4, 18655, Note_on_c, 1, 59, 0
4, 18656, Note_on_c, 1, 62, 81
4, 18671, Note_on_c, 1, 62, 0
4, 18672, Note_on_c, 1, 55, 81
4, 18687, Note_on_c, 1, 55, 0
4, 18688, Note_on_c, 1, 59, 81
4, 18703, Note_on_c, 1, 59, 0
4, 18704, Note_on_c, 1, 62, 81
4, 18719, Note_on_c, 1, 62, 0
4, 18720, Note_on_c, 1, 55, 81
4, 18735, Note_on_c, 1, 55, 0
4, 18736, Note_on_c, 1, 59, 81
4, 18751, Note_on_c, 1, 59, 0
4, 18752, Note_on_c, 1, 62, 81
4, 18767, Note_on_c, 1, 62, 0
4, 18768, Note_on_c, 1, 55, 81
4, 18783, Note_on_c, 1, 55, 0
4, 18784, Note_on_c, 1, 59, 81
4, 18799, Note_on_c, 1, 59, 0
4, 18800, Note_on_c, 1, 62, 81
4, 18815, Note_on_c, 1, 62, 0
4, 18816, Note_on_c, 1, 55, 81
4, 18831, Note_on_c, 1, 55, 0
4, 18832, Note_on_c, 1, 60, 81
4, 18847, Note_on_c, 1, 60, 0
4, 18848, Note_on_c, 1, 63, 81
4, 18863, Note_on_c, 1, 63, 0
4, 18864, Note_on_c, 1, 55, 81
4, 18879, Note_on_c, 1, 55, 0
4, 18880, Note_on_c, 1, 60, 81
4, 18895, Note_on_c, 1, 60, 0
4, 18896, Note_on_c, 1, 63, 81
4, 18911, Note_on_c, 1, 63, 0
4, 18912, Note_on_c, 1, 55, 81
4, 18927, Note_on_c, 1, 55, 0
4, 18928, Note_on_c, 1, 62, 81
4, 18943, Note_on_c, 1, 62, 0
4, 18944, Note_on_c, 1, 65, 81
4, 18959, Note_on_c, 1, 65, 0
4, 18960, Note_on_c, 1, 55, 81
4, 18975, Note_on_c, 1, 55, 0
4, 18976, Note_on_c, 1, 62, 81
4, 18991, Note_on_c, 1, 62, 0
4, 18992, Note_on_c, 1, 65, 81
4, 19007, Note_on_c, 1, 65, 0
4, 19008, Note_on_c, 1, 55, 81
4, 19023, Note_on_c, 1, 55, 0
4, 19024, Note_on_c, 1, 63, 81
4, 19039, Note_on_c, 1, 63, 0
4, 19040, Note_on_c, 1, 67, 81
4, 19055, Note_on_c, 1, 67, 0
4, 19056, Note_on_c, 1, 55, 81
4, 19071, Note_on_c, 1, 55, 0
4, 19072, Note_on_c, 1, 63, 81
4, 19087, Note_on_c, 1, 63, 0
4, 19088, Note_on_c, 1, 67, 81
4, 19103, Note_on_c, 1, 67, 0
4, 19104, Note_on_c, 1, 55, 81
4, 19119, Note_on_c, 1, 55, 0
4, 19120, Note_on_c, 1, 59, 81
4, 19135, Note_on_c, 1, 59, 0
4, 19136, Note_on_c, 1, 62, 81
4, 19151, Note_on_c, 1, 62, 0
4, 19152, Note_on_c, 1, 55, 81
4, 19167, Note_on_c, 1, 55, 0
4, 19168, Note_on_c, 1, 59, 81
4, 19183, Note_on_c, 1, 59, 0
4, 19184, Note_on_c, 1, 62, 81
4, 19199, Note_on_c, 1, 62, 0
4, 19200, Note_on_c, 1, 55, 81
4, 19215, Note_on_c, 1, 55, 0
4, 19216, Note_on_c, 1, 60, 81
4, 19231, Note_on_c, 1, 60, 0
4, 19232, Note_on_c, 1, 63, 81
4, 19247, Note_on_c, 1, 63, 0
4, 19248, Note_on_c, 1, 55, 81
4, 19263, Note_on_c, 1, 55, 0
4, 19264, Note_on_c, 1, 60, 81
4, 19279, Note_on_c, 1, 60, 0
4, 19280, Note_on_c, 1, 63, 81
4, 19295, Note_on_c, 1, 63, 0
4, 19296, Note_on_c, 1, 55, 81
4, 19311, Note_on_c, 1, 55, 0
4, 19312, Note_on_c, 1, 62, 81
4, 19327, Note_on_c, 1, 62, 0
4, 19328, Note_on_c, 1, 65, 81
4, 19343, Note_on_c, 1, 65, 0
4, 19344, Note_on_c, 1, 55, 81
4, 19359, Note_on_c, 1, 55, 0
4, 19360, Note_on_c, 1, 62, 81
4, 19375, Note_on_c, 1, 62, 0
4, 19376, Note_on_c, 1, 65, 81
4, 19391, Note_on_c, 1, 65, 0
4, 19392, Note_on_c, 1, 55, 81
4, 19407, Note_on_c, 1, 55, 0
4, 19408, Note_on_c, 1, 63, 81
4, 19423, Note_on_c, 1, 63, 0
4, 19424, Note_on_c, 1, 67, 81
4, 19439, Note_on_c, 1, 67, 0
4, 19440, Note_on_c, 1, 55, 81
4, 19455, Note_on_c, 1, 55, 0
4, 19456, Note_on_c, 1, 63, 81
4, 19471, Note_on_c, 1, 63, 0
4, 19472, Note_on_c, 1, 67, 81
4, 19487, Note_on_c, 1, 67, 0
4, 19488, Note_on_c, 1, 55, 81
4, 19503, Note_on_c, 1, 55, 0
4, 19504, Note_on_c, 1, 59, 81
4, 19519, Note_on_c, 1, 59, 0
4, 19520, Note_on_c, 1, 62, 81
4, 19535, Note_on_c, 1, 62, 0
4, 19536, Note_on_c, 1, 55, 81
4, 19551, Note_on_c, 1, 55, 0
4, 19552, Note_on_c, 1, 59, 81
4, 19567, Note_on_c, 1, 59, 0
4, 19568, Note_on_c, 1, 62, 81
4, 19583, Note_on_c, 1, 62, 0
4, 19584, Note_on_c, 1, 60, 81
4, 19629, Note_on_c, 1, 60, 0
4, 19632, Note_on_c, 1, 63, 81
4, 19677, Note_on_c, 1, 63, 0
4, 19680, Note_on_c, 1, 65, 81
4, 19769, Note_on_c, 1, 65, 0
4, 19824, Note_on_c, 1, 60, 81
4, 19913, Note_on_c, 1, 60, 0
4, 19920, Note_on_c, 1, 59, 81
4, 19965, Note_on_c, 1, 59, 0
4, 20544, Note_on_c, 1, 48, 66
4, 20589, Note_on_c, 1, 48, 0
4, 20592, Note_on_c, 1, 53, 66
4, 20637, Note_on_c, 1, 53, 0
4, 20640, Note_on_c, 1, 51, 66
4, 20685, Note_on_c, 1, 51, 0
4, 20688, Note_on_c, 1, 50, 66
4, 20733, Note_on_c, 1, 50, 0
4, 20736, Note_on_c, 1, 48, 66
4, 20781, Note_on_c, 1, 48, 0
4, 20784, Note_on_c, 1, 43, 66
4, 20829, Note_on_c, 1, 43, 0
4, 20832, Note_on_c, 1, 36, 66
4, 20921, Note_on_c, 1, 36, 0
4, 20976, Note_on_c, 1, 51, 62
4, 20976, Note_on_c, 1, 48, 62
4, 21021, Note_on_c, 1, 51, 0
4, 21021, Note_on_c, 1, 48, 0
4, 21024, Note_on_c, 1, 53, 63
4, 21024, Note_on_c, 1, 50, 63
4, 21069, Note_on_c, 1, 53, 0
4, 21069, Note_on_c, 1, 50, 0
4, 21072, Note_on_c, 1, 55, 64
4, 21072, Note_on_c, 1, 51, 64
4, 21117, Note_on_c, 1, 55, 0
4, 21117, Note_on_c, 1, 51, 0
4, 21120, Note_on_c, 1, 56, 66
4, 21120, Note_on_c, 1, 53, 66
4, 21165, Note_on_c, 1, 56, 0
4, 21165, Note_on_c, 1, 53, 0
4, 21168, Note_on_c, 1, 55, 64
4, 21168, Note_on_c, 1, 51, 64
4, 21213, Note_on_c, 1, 55, 0
4, 21213, Note_on_c, 1, 51, 0
4, 21264, Note_on_c, 1, 53, 78
4, 21312, Note_on_c, 1, 53, 0
4, 21312, Note_on_c, 1, 51, 62
4, 21332, Note_on_c, 1, 51, 0
4, 21360, Note_on_c, 1, 56, 62
4, 21380, Note_on_c, 1, 56, 0
4, 21408, Note_on_c, 1, 53, 62
4, 21428, Note_on_c, 1, 53, 0
4, 21456, Note_on_c, 1, 55, 62
4, 21476, Note_on_c, 1, 55, 0
4, 21504, Note_on_c, 1, 48, 62
4, 21549, Note_on_c, 1, 48, 0
4, 21552, Note_on_c, 1, 36, 62
4, 21597, Note_on_c, 1, 36, 0
4, 21648, Note_on_c, 1, 36, 0
4, 21693, Note_on_c, 1, 36, 0
4, 21696, End_track
5, 0, Start_track
5, 0, Program_c, 0, 0
5, 0, Control_c, 0, 7, 127
5, 0, Control_c, 0, 10, 64
5, 1440, Note_on_c, 0, 50, 64
5, 1529, Note_on_c, 0, 50, 0
5, 3456, Note_on_c, 0, 51, 64
5, 3545, Note_on_c, 0, 51, 0
5, 3552, Note_on_c, 0, 53, 64
5, 3641, Note_on_c, 0, 53, 0
5, 4224, Note_on_c, 0, 58, 64
5, 4269, Note_on_c, 0, 58, 0
5, 4272, Note_on_c, 0, 51, 64
5, 4317, Note_on_c, 0, 51, 0
5, 4320, Note_on_c, 0, 53, 64
5, 4409, Note_on_c, 0, 53, 0
5, 5856, Note_on_c, 0, 50, 64
5, 5945, Note_on_c, 0, 50, 0
5, 7872, Note_on_c, 0, 51, 64
5, 7961, Note_on_c, 0, 51, 0
5, 7968, Note_on_c, 0, 53, 64
5, 8057, Note_on_c, 0, 53, 0
5, 8640, Note_on_c, 0, 58, 64
5, 8685, Note_on_c, 0, 58, 0
5, 8688, Note_on_c, 0, 51, 64
5, 8733, Note_on_c, 0, 51, 0
5, 8736, Note_on_c, 0, 53, 64
5, 8825, Note_on_c, 0, 53, 0
5, 10176, Note_on_c, 0, 63, 64
5, 10353, Note_on_c, 0, 63, 0
5, 13488, Note_on_c, 0, 51, 64
5, 13533, Note_on_c, 0, 51, 0
5, 13536, Note_on_c, 0, 53, 64
5, 13581, Note_on_c, 0, 53, 0
5, 13584, Note_on_c, 0, 55, 64
5, 13629, Note_on_c, 0, 55, 0
5, 13632, Note_on_c, 0, 48, 64
5, 13647, Note_on_c, 0, 48, 0
5, 13648, Note_on_c, 0, 51, 64
5, 13663, Note_on_c, 0, 51, 0
5, 13664, Note_on_c, 0, 55, 64
5, 13679, Note_on_c, 0, 55, 0
5, 13680, Note_on_c, 0, 48, 64
5, 13695, Note_on_c, 0, 48, 0
5, 13696, Note_on_c, 0, 51, 64
5, 13711, Note_on_c, 0, 51, 0
5, 13712, Note_on_c, 0, 55, 64
5, 13727, Note_on_c, 0, 55, 0
5, 13728, Note_on_c, 0, 47, 64
5, 13743, Note_on_c, 0, 47, 0
5, 13744, Note_on_c, 0, 50, 64
5, 13759, Note_on_c, 0, 50, 0
5, 13760, Note_on_c, 0, 55, 64
5, 13775, Note_on_c, 0, 55, 0
5, 13776, Note_on_c, 0, 47, 64
5, 13791, Note_on_c, 0, 47, 0
5, 13792, Note_on_c, 0, 50, 64
5, 13807, Note_on_c, 0, 50, 0
5, 13808, Note_on_c, 0, 55, 64
5, 13823, Note_on_c, 0, 55, 0
5, 13824, Note_on_c, 0, 48, 64
5, 13839, Note_on_c, 0, 48, 0
5, 13840, Note_on_c, 0, 51, 64
5, 13855, Note_on_c, 0, 51, 0
5, 13856, Note_on_c, 0, 55, 64
5, 13871, Note_on_c, 0, 55, 0
5, 13872, Note_on_c, 0, 48, 64
5, 13887, Note_on_c, 0, 48, 0
5, 13888, Note_on_c, 0, 51, 64
5, 13903, Note_on_c, 0, 51, 0
5, 13904, Note_on_c, 0, 55, 64
5, 13919, Note_on_c, 0, 55, 0
5, 13920, Note_on_c, 0, 47, 64
5, 13935, Note_on_c, 0, 47, 0
5, 13936, Note_on_c, 0, 50, 64
5, 13951, Note_on_c, 0, 50, 0
5, 13952, Note_on_c, 0, 55, 64
5, 13967, Note_on_c, 0, 55, 0
5, 13968, Note_on_c, 0, 47, 64
5, 13983, Note_on_c, 0, 47, 0
5, 13984, Note_on_c, 0, 50, 64
5, 13999, Note_on_c, 0, 50, 0
5, 14000, Note_on_c, 0, 55, 64
5, 14015, Note_on_c, 0, 55, 0
5, 14016, Note_on_c, 0, 48, 64
5, 14031, Note_on_c, 0, 48, 0
5, 14032, Note_on_c, 0, 51, 64
5, 14047, Note_on_c, 0, 51, 0
5, 14048, Note_on_c, 0, 55, 64
5, 14063, Note_on_c, 0, 55, 0
5, 14064, Note_on_c, 0, 48, 64
5, 14079, Note_on_c, 0, 48, 0
5, 14080, Note_on_c, 0, 51, 64
5, 14095, Note_on_c, 0, 51, 0
5, 14096, Note_on_c, 0, 55, 64
5, 14111, Note_on_c, 0, 55, 0
5, 14112, Note_on_c, 0, 47, 64
5, 14127, Note_on_c, 0, 47, 0
5, 14128, Note_on_c, 0, 50, 64
5, 14143, Note_on_c, 0, 50, 0
5, 14144, Note_on_c, 0, 55, 64
5, 14159, Note_on_c, 0, 55, 0
5, 14160, Note_on_c, 0, 47, 64
5, 14175, Note_on_c, 0, 47, 0
5, 14176, Note_on_c, 0, 50, 64
5, 14191, Note_on_c, 0, 50, 0
5, 14192, Note_on_c, 0, 55, 64
5, 14207, Note_on_c, 0, 55, 0
5, 14256, Note_on_c, 0, 41, 64
5, 14301, Note_on_c, 0, 41, 0
5, 14304, Note_on_c, 0, 43, 64
5, 14349, Note_on_c, 0, 43, 0
5, 14352, Note_on_c, 0, 43, 64
5, 14397, Note_on_c, 0, 43, 0
5, 16512, Note_on_c, 0, 63, 64
5, 16689, Note_on_c, 0, 63, 0
5, 19824, Note_on_c, 0, 51, 64
5, 19869, Note_on_c, 0, 51, 0
5, 19872, Note_on_c, 0, 53, 64
5, 19917, Note_on_c, 0, 53, 0
5, 19920, Note_on_c, 0, 55, 64
5, 19965, Note_on_c, 0, 55, 0
5, 19968, Note_on_c, 0, 48, 64
5, 19983, Note_on_c, 0, 48, 0
5, 19984, Note_on_c, 0, 51, 64
5, 19999, Note_on_c, 0, 51, 0
5, 20000, Note_on_c, 0, 55, 64
5, 20015, Note_on_c, 0, 55, 0
5, 20016, Note_on_c, 0, 48, 64
5, 20031, Note_on_c, 0, 48, 0
5, 20032, Note_on_c, 0, 51, 64
5, 20047, Note_on_c, 0, 51, 0
5, 20048, Note_on_c, 0, 55, 64
5, 20063, Note_on_c, 0, 55, 0
5, 20064, Note_on_c, 0, 47, 64
5, 20079, Note_on_c, 0, 47, 0
5, 20080, Note_on_c, 0, 50, 64
5, 20095, Note_on_c, 0, 50, 0
5, 20096, Note_on_c, 0, 55, 64
5, 20111, Note_on_c, 0, 55, 0
5, 20112, Note_on_c, 0, 47, 64
5, 20127, Note_on_c, 0, 47, 0
5, 20128, Note_on_c, 0, 50, 64
5, 20143, Note_on_c, 0, 50, 0
5, 20144, Note_on_c, 0, 55, 64
5, 20159, Note_on_c, 0, 55, 0
5, 20160, Note_on_c, 0, 48, 64
5, 20175, Note_on_c, 0, 48, 0
5, 20176, Note_on_c, 0, 51, 64
5, 20191, Note_on_c, 0, 51, 0
5, 20192, Note_on_c, 0, 55, 64
5, 20207, Note_on_c, 0, 55, 0
5, 20208, Note_on_c, 0, 48, 64
5, 20223, Note_on_c, 0, 48, 0
5, 20224, Note_on_c, 0, 51, 64
5, 20239, Note_on_c, 0, 51, 0
5, 20240, Note_on_c, 0, 55, 64
5, 20255, Note_on_c, 0, 55, 0
5, 20256, Note_on_c, 0, 47, 64
5, 20271, Note_on_c, 0, 47, 0
5, 20272, Note_on_c, 0, 50, 64
5, 20287, Note_on_c, 0, 50, 0
5, 20288, Note_on_c, 0, 55, 64
5, 20303, Note_on_c, 0, 55, 0
5, 20304, Note_on_c, 0, 47, 64
5, 20319, Note_on_c, 0, 47, 0
5, 20320, Note_on_c, 0, 50, 64
5, 20335, Note_on_c, 0, 50, 0
5, 20336, Note_on_c, 0, 55, 64
5, 20351, Note_on_c, 0, 55, 0
5, 20352, Note_on_c, 0, 48, 64
5, 20367, Note_on_c, 0, 48, 0
5, 20368, Note_on_c, 0, 51, 64
5, 20383, Note_on_c, 0, 51, 0
5, 20384, Note_on_c, 0, 55, 64
5, 20399, Note_on_c, 0, 55, 0
5, 20400, Note_on_c, 0, 48, 64
5, 20415, Note_on_c, 0, 48, 0
5, 20416, Note_on_c, 0, 51, 64
5, 20431, Note_on_c, 0, 51, 0
5, 20432, Note_on_c, 0, 55, 64
5, 20447, Note_on_c, 0, 55, 0
5, 20448, Note_on_c, 0, 47, 64
5, 20463, Note_on_c, 0, 47, 0
5, 20464, Note_on_c, 0, 50, 64
5, 20479, Note_on_c, 0, 50, 0
5, 20480, Note_on_c, 0, 55, 64
5, 20495, Note_on_c, 0, 55, 0
5, 20496, Note_on_c, 0, 47, 64
5, 20511, Note_on_c, 0, 47, 0
5, 20512, Note_on_c, 0, 50, 64
5, 20527, Note_on_c, 0, 50, 0
5, 20528, Note_on_c, 0, 55, 64
5, 20543, Note_on_c, 0, 55, 0
5, 20592, Note_on_c, 0, 41, 64
5, 20637, Note_on_c, 0, 41, 0
5, 20640, Note_on_c, 0, 43, 64
5, 20685, Note_on_c, 0, 43, 0
5, 20688, Note_on_c, 0, 43, 64
5, 20733, Note_on_c, 0, 43, 0
5, 21696, End_track
6, 0, Start_track
6, 0, Title_t, "Piano Solo   <composer>  "
6, 0, End_track
0, 0, End_of_file
