0, 0, Header, 1, 6, 96
1, 0, Start_track
1, 0, Copyright_t, "Copyright  1994-2002 Mozart Music Software"
1, 0, Text_t, "Piano Solo\015\012"
1, 0, Text_t, "<composer>\015\012"
1, 0, Sequencer_specific, 16, 68, 87, 77, 90, 86, 82, 83, 78, 32, 55, 46, 48, 46, 55, 46, 48
1, 0, Time_signature, 4, 2, 24, 8
1, 0, Tempo, 120000
1, 0, Key_signature, -2, "major"
1, 336, Tempo, 1333333
1, 3937, Tempo, 1538461
1, 3985, Tempo, 1666666
1, 4033, Tempo, 1333333
1, 4225, Time_signature, 3, 2, 24, 8
1, 4513, Time_signature, 4, 2, 24, 8
1, 9603, Tempo, 1538461
1, 9651, Tempo, 1666666
1, 9699, Tempo, 1333333
1, 9891, Time_signature, 3, 2, 24, 8
1, 10179, Time_signature, 4, 2, 24, 8
1, 10563, End_track
2, 0, Start_track
2, 0, Program_c, 0, 0
2, 0, Control_c, 0, 7, 127
2, 0, Control_c, 0, 10, 64
2, 336, Note_on_c, 0, 74, 75
2, 381, Note_on_c, 0, 74, 0
2, 384, Note_on_c, 0, 79, 75
2, 399, Note_on_c, 0, 79, 0
2, 400, Note_on_c, 0, 82, 75
2, 415, Note_on_c, 0, 82, 0
2, 416, Note_on_c, 0, 81, 75
2, 431, Note_on_c, 0, 81, 0
2, 432, Note_on_c, 0, 79, 75
2, 447, Note_on_c, 0, 79, 0
2, 448, Note_on_c, 0, 78, 75
2, 463, Note_on_c, 0, 78, 0
2, 464, Note_on_c, 0, 79, 75
2, 495, Note_on_c, 0, 79, 0
2, 496, Note_on_c, 0, 78, 75
2, 511, Note_on_c, 0, 78, 0
2, 512, Note_on_c, 0, 79, 75
2, 527, Note_on_c, 0, 79, 0
2, 528, Note_on_c, 0, 86, 75
2, 543, Note_on_c, 0, 86, 0
2, 544, Note_on_c, 0, 78, 75
2, 559, Note_on_c, 0, 78, 0
2, 560, Note_on_c, 0, 79, 75
2, 575, Note_on_c, 0, 79, 0
2, 576, Note_on_c, 0, 77, 75
2, 581, Note_on_c, 0, 77, 0
2, 581, Note_on_c, 0, 75, 75
2, 586, Note_on_c, 0, 75, 0
2, 586, Note_on_c, 0, 77, 75
2, 591, Note_on_c, 0, 77, 0
2, 591, Note_on_c, 0, 75, 75
2, 596, Note_on_c, 0, 75, 0
2, 596, Note_on_c, 0, 77, 75
2, 601, Note_on_c, 0, 77, 0
2, 601, Note_on_c, 0, 75, 75
2, 606, Note_on_c, 0, 75, 0
2, 606, Note_on_c, 0, 77, 75
2, 611, Note_on_c, 0, 77, 0
2, 611, Note_on_c, 0, 75, 75
2, 616, Note_on_c, 0, 75, 0
2, 616, Note_on_c, 0, 74, 75
2, 620, Note_on_c, 0, 74, 0
2, 620, Note_on_c, 0, 75, 75
2, 624, Note_on_c, 0, 75, 0
2, 624, Note_on_c, 0, 74, 75
2, 687, Note_on_c, 0, 74, 0
2, 688, Note_on_c, 0, 76, 75
2, 703, Note_on_c, 0, 76, 0
2, 704, Note_on_c, 0, 78, 75
2, 719, Note_on_c, 0, 78, 0
2, 720, Note_on_c, 0, 79, 75
2, 735, Note_on_c, 0, 79, 0
2, 736, Note_on_c, 0, 81, 75
2, 751, Note_on_c, 0, 81, 0
2, 752, Note_on_c, 0, 82, 75
2, 767, Note_on_c, 0, 82, 0
2, 768, Note_on_c, 0, 81, 91
2, 784, Note_on_c, 0, 81, 0
2, 784, Note_on_c, 0, 73, 75
2, 799, Note_on_c, 0, 73, 0
2, 800, Note_on_c, 0, 74, 75
2, 831, Note_on_c, 0, 74, 0
2, 832, Note_on_c, 0, 73, 75
2, 847, Note_on_c, 0, 73, 0
2, 848, Note_on_c, 0, 74, 75
2, 879, Note_on_c, 0, 74, 0
2, 880, Note_on_c, 0, 84, 75
2, 895, Note_on_c, 0, 84, 0
2, 896, Note_on_c, 0, 81, 75
2, 911, Note_on_c, 0, 81, 0
2, 912, Note_on_c, 0, 78, 75
2, 927, Note_on_c, 0, 78, 0
2, 928, Note_on_c, 0, 75, 75
2, 943, Note_on_c, 0, 75, 0
2, 944, Note_on_c, 0, 72, 75
2, 959, Note_on_c, 0, 72, 0
2, 960, Note_on_c, 0, 70, 75
2, 975, Note_on_c, 0, 70, 0
2, 976, Note_on_c, 0, 74, 75
2, 991, Note_on_c, 0, 74, 0
2, 992, Note_on_c, 0, 66, 75
2, 1007, Note_on_c, 0, 66, 0
2, 1008, Note_on_c, 0, 67, 75
2, 1053, Note_on_c, 0, 67, 0
2, 1104, Note_on_c, 0, 74, 75
2, 1149, Note_on_c, 0, 74, 0
2, 1152, Note_on_c, 0, 75, 75
2, 1167, Note_on_c, 0, 75, 0
2, 1168, Note_on_c, 0, 79, 75
2, 1183, Note_on_c, 0, 79, 0
2, 1184, Note_on_c, 0, 77, 75
2, 1199, Note_on_c, 0, 77, 0
2, 1200, Note_on_c, 0, 75, 75
2, 1206, Note_on_c, 0, 75, 0
2, 1206, Note_on_c, 0, 77, 75
2, 1212, Note_on_c, 0, 77, 0
2, 1212, Note_on_c, 0, 75, 75
2, 1215, Note_on_c, 0, 75, 0
2, 1216, Note_on_c, 0, 74, 75
2, 1231, Note_on_c, 0, 74, 0
2, 1232, Note_on_c, 0, 75, 75
2, 1247, Note_on_c, 0, 75, 0
2, 1248, Note_on_c, 0, 84, 75
2, 1263, Note_on_c, 0, 84, 0
2, 1264, Note_on_c, 0, 82, 75
2, 1279, Note_on_c, 0, 82, 0
2, 1280, Note_on_c, 0, 81, 75
2, 1295, Note_on_c, 0, 81, 0
2, 1296, Note_on_c, 0, 79, 75
2, 1311, Note_on_c, 0, 79, 0
2, 1312, Note_on_c, 0, 77, 75
2, 1327, Note_on_c, 0, 77, 0
2, 1328, Note_on_c, 0, 75, 75
2, 1343, Note_on_c, 0, 75, 0
2, 1344, Note_on_c, 0, 74, 75
2, 1359, Note_on_c, 0, 74, 0
2, 1360, Note_on_c, 0, 77, 75
2, 1375, Note_on_c, 0, 77, 0
2, 1376, Note_on_c, 0, 75, 75
2, 1391, Note_on_c, 0, 75, 0
2, 1392, Note_on_c, 0, 74, 75
2, 1398, Note_on_c, 0, 74, 0
2, 1398, Note_on_c, 0, 75, 75
2, 1404, Note_on_c, 0, 75, 0
2, 1404, Note_on_c, 0, 74, 75
2, 1407, Note_on_c, 0, 74, 0
2, 1408, Note_on_c, 0, 72, 75
2, 1423, Note_on_c, 0, 72, 0
2, 1424, Note_on_c, 0, 74, 75
2, 1439, Note_on_c, 0, 74, 0
2, 1440, Note_on_c, 0, 82, 75
2, 1455, Note_on_c, 0, 82, 0
2, 1456, Note_on_c, 0, 86, 75
2, 1471, Note_on_c, 0, 86, 0
2, 1472, Note_on_c, 0, 84, 75
2, 1487, Note_on_c, 0, 84, 0
2, 1488, Note_on_c, 0, 82, 75
2, 1503, Note_on_c, 0, 82, 0
2, 1504, Note_on_c, 0, 77, 75
2, 1519, Note_on_c, 0, 77, 0
2, 1520, Note_on_c, 0, 74, 75
2, 1535, Note_on_c, 0, 74, 0
2, 1536, Note_on_c, 0, 72, 75
2, 1542, Note_on_c, 0, 72, 0
2, 1542, Note_on_c, 0, 74, 75
2, 1548, Note_on_c, 0, 74, 0
2, 1548, Note_on_c, 0, 72, 75
2, 1551, Note_on_c, 0, 72, 0
2, 1552, Note_on_c, 0, 71, 75
2, 1567, Note_on_c, 0, 71, 0
2, 1568, Note_on_c, 0, 72, 76
2, 1583, Note_on_c, 0, 72, 0
2, 1584, Note_on_c, 0, 75, 76
2, 1599, Note_on_c, 0, 75, 0
2, 1600, Note_on_c, 0, 74, 77
2, 1615, Note_on_c, 0, 74, 0
2, 1616, Note_on_c, 0, 72, 77
2, 1631, Note_on_c, 0, 72, 0
2, 1632, Note_on_c, 0, 78, 94
2, 1648, Note_on_c, 0, 78, 0
2, 1648, Note_on_c, 0, 79, 78
2, 1663, Note_on_c, 0, 79, 0
2, 1664, Note_on_c, 0, 77, 79
2, 1679, Note_on_c, 0, 77, 0
2, 1680, Note_on_c, 0, 75, 81
2, 1695, Note_on_c, 0, 75, 0
2, 1696, Note_on_c, 0, 74, 80
2, 1711, Note_on_c, 0, 74, 0
2, 1712, Note_on_c, 0, 72, 80
2, 1727, Note_on_c, 0, 72, 0
2, 1728, Note_on_c, 0, 70, 95
2, 1776, Note_on_c, 0, 70, 0
2, 1776, Note_on_c, 0, 69, 77
2, 1821, Note_on_c, 0, 69, 0
2, 1824, Note_on_c, 0, 77, 75
2, 1839, Note_on_c, 0, 77, 0
2, 1840, Note_on_c, 0, 81, 76
2, 1855, Note_on_c, 0, 81, 0
2, 1856, Note_on_c, 0, 82, 78
2, 1871, Note_on_c, 0, 82, 0
2, 1872, Note_on_c, 0, 84, 79
2, 1887, Note_on_c, 0, 84, 0
2, 1888, Note_on_c, 0, 81, 81
2, 1903, Note_on_c, 0, 81, 0
2, 1904, Note_on_c, 0, 75, 79
2, 1911, Note_on_c, 0, 75, 0
2, 1920, Note_on_c, 0, 74, 75
2, 1935, Note_on_c, 0, 74, 0
2, 1936, Note_on_c, 0, 79, 75
2, 1951, Note_on_c, 0, 79, 0
2, 1952, Note_on_c, 0, 77, 75
2, 1967, Note_on_c, 0, 77, 0
2, 1968, Note_on_c, 0, 79, 75
2, 1973, Note_on_c, 0, 79, 0
2, 1973, Note_on_c, 0, 77, 75
2, 1978, Note_on_c, 0, 77, 0
2, 1978, Note_on_c, 0, 79, 75
2, 1983, Note_on_c, 0, 79, 0
2, 1983, Note_on_c, 0, 77, 75
2, 1988, Note_on_c, 0, 77, 0
2, 1988, Note_on_c, 0, 79, 75
2, 1993, Note_on_c, 0, 79, 0
2, 1993, Note_on_c, 0, 77, 75
2, 1998, Note_on_c, 0, 77, 0
2, 1998, Note_on_c, 0, 79, 75
2, 2003, Note_on_c, 0, 79, 0
2, 2003, Note_on_c, 0, 77, 75
2, 2008, Note_on_c, 0, 77, 0
2, 2008, Note_on_c, 0, 79, 75
2, 2012, Note_on_c, 0, 79, 0
2, 2012, Note_on_c, 0, 77, 75
2, 2031, Note_on_c, 0, 77, 0
2, 2032, Note_on_c, 0, 81, 76
2, 2047, Note_on_c, 0, 81, 0
2, 2048, Note_on_c, 0, 82, 78
2, 2063, Note_on_c, 0, 82, 0
2, 2064, Note_on_c, 0, 84, 79
2, 2079, Note_on_c, 0, 84, 0
2, 2080, Note_on_c, 0, 81, 81
2, 2095, Note_on_c, 0, 81, 0
2, 2096, Note_on_c, 0, 75, 79
2, 2103, Note_on_c, 0, 75, 0
2, 2112, Note_on_c, 0, 74, 75
2, 2127, Note_on_c, 0, 74, 0
2, 2128, Note_on_c, 0, 79, 75
2, 2143, Note_on_c, 0, 79, 0
2, 2144, Note_on_c, 0, 77, 75
2, 2159, Note_on_c, 0, 77, 0
2, 2160, Note_on_c, 0, 79, 75
2, 2165, Note_on_c, 0, 79, 0
2, 2165, Note_on_c, 0, 77, 75
2, 2170, Note_on_c, 0, 77, 0
2, 2170, Note_on_c, 0, 79, 75
2, 2175, Note_on_c, 0, 79, 0
2, 2175, Note_on_c, 0, 77, 75
2, 2180, Note_on_c, 0, 77, 0
2, 2180, Note_on_c, 0, 79, 75
2, 2185, Note_on_c, 0, 79, 0
2, 2185, Note_on_c, 0, 77, 75
2, 2190, Note_on_c, 0, 77, 0
2, 2190, Note_on_c, 0, 79, 75
2, 2195, Note_on_c, 0, 79, 0
2, 2195, Note_on_c, 0, 77, 75
2, 2200, Note_on_c, 0, 77, 0
2, 2200, Note_on_c, 0, 79, 75
2, 2204, Note_on_c, 0, 79, 0
2, 2204, Note_on_c, 0, 77, 75
2, 2223, Note_on_c, 0, 77, 0
2, 2224, Note_on_c, 0, 81, 76
2, 2239, Note_on_c, 0, 81, 0
2, 2240, Note_on_c, 0, 82, 78
2, 2255, Note_on_c, 0, 82, 0
2, 2256, Note_on_c, 0, 84, 79
2, 2271, Note_on_c, 0, 84, 0
2, 2272, Note_on_c, 0, 81, 81
2, 2287, Note_on_c, 0, 81, 0
2, 2288, Note_on_c, 0, 75, 79
2, 2295, Note_on_c, 0, 75, 0
2, 2304, Note_on_c, 0, 74, 75
2, 2319, Note_on_c, 0, 74, 0
2, 2320, Note_on_c, 0, 77, 76
2, 2336, Note_on_c, 0, 77, 0
2, 2336, Note_on_c, 0, 78, 78
2, 2351, Note_on_c, 0, 78, 0
2, 2352, Note_on_c, 0, 79, 79
2, 2367, Note_on_c, 0, 79, 0
2, 2368, Note_on_c, 0, 75, 81
2, 2383, Note_on_c, 0, 75, 0
2, 2384, Note_on_c, 0, 72, 79
2, 2391, Note_on_c, 0, 72, 0
2, 2400, Note_on_c, 0, 70, 75
2, 2445, Note_on_c, 0, 70, 0
2, 2448, Note_on_c, 0, 69, 75
2, 2454, Note_on_c, 0, 69, 0
2, 2454, Note_on_c, 0, 70, 75
2, 2460, Note_on_c, 0, 70, 0
2, 2460, Note_on_c, 0, 69, 75
2, 2466, Note_on_c, 0, 69, 0
2, 2466, Note_on_c, 0, 70, 75
2, 2471, Note_on_c, 0, 70, 0
2, 2471, Note_on_c, 0, 69, 75
2, 2476, Note_on_c, 0, 69, 0
2, 2476, Note_on_c, 0, 70, 75
2, 2481, Note_on_c, 0, 70, 0
2, 2481, Note_on_c, 0, 69, 75
2, 2486, Note_on_c, 0, 69, 0
2, 2486, Note_on_c, 0, 67, 75
2, 2491, Note_on_c, 0, 67, 0
2, 2491, Note_on_c, 0, 69, 75
2, 2496, Note_on_c, 0, 69, 0
2, 2496, Note_on_c, 0, 77, 66
2, 2502, Note_on_c, 0, 77, 0
2, 2502, Note_on_c, 0, 79, 66
2, 2508, Note_on_c, 0, 79, 0
2, 2508, Note_on_c, 0, 77, 66
2, 2514, Note_on_c, 0, 77, 0
2, 2514, Note_on_c, 0, 79, 66
2, 2520, Note_on_c, 0, 79, 0
2, 2520, Note_on_c, 0, 77, 66
2, 2526, Note_on_c, 0, 77, 0
2, 2526, Note_on_c, 0, 79, 66
2, 2532, Note_on_c, 0, 79, 0
2, 2532, Note_on_c, 0, 77, 66
2, 2538, Note_on_c, 0, 77, 0
2, 2538, Note_on_c, 0, 79, 66
2, 2544, Note_on_c, 0, 79, 0
2, 2544, Note_on_c, 0, 77, 66
2, 2550, Note_on_c, 0, 77, 0
2, 2550, Note_on_c, 0, 79, 66
2, 2556, Note_on_c, 0, 79, 0
2, 2556, Note_on_c, 0, 77, 66
2, 2562, Note_on_c, 0, 77, 0
2, 2562, Note_on_c, 0, 79, 66
2, 2568, Note_on_c, 0, 79, 0
2, 2568, Note_on_c, 0, 77, 66
2, 2574, Note_on_c, 0, 77, 0
2, 2574, Note_on_c, 0, 79, 66
2, 2580, Note_on_c, 0, 79, 0
2, 2580, Note_on_c, 0, 77, 66
2, 2586, Note_on_c, 0, 77, 0
2, 2586, Note_on_c, 0, 79, 66
2, 2592, Note_on_c, 0, 79, 0
2, 2592, Note_on_c, 0, 77, 66
2, 2598, Note_on_c, 0, 77, 0
2, 2598, Note_on_c, 0, 79, 66
2, 2604, Note_on_c, 0, 79, 0
2, 2604, Note_on_c, 0, 77, 66
2, 2610, Note_on_c, 0, 77, 0
2, 2610, Note_on_c, 0, 79, 66
2, 2616, Note_on_c, 0, 79, 0
2, 2616, Note_on_c, 0, 77, 66
2, 2622, Note_on_c, 0, 77, 0
2, 2622, Note_on_c, 0, 79, 66
2, 2628, Note_on_c, 0, 79, 0
2, 2628, Note_on_c, 0, 77, 66
2, 2634, Note_on_c, 0, 77, 0
2, 2634, Note_on_c, 0, 79, 66
2, 2640, Note_on_c, 0, 79, 0
2, 2640, Note_on_c, 0, 77, 66
2, 2646, Note_on_c, 0, 77, 0
2, 2646, Note_on_c, 0, 79, 66
2, 2652, Note_on_c, 0, 79, 0
2, 2652, Note_on_c, 0, 77, 66
2, 2658, Note_on_c, 0, 77, 0
2, 2658, Note_on_c, 0, 79, 66
2, 2664, Note_on_c, 0, 79, 0
2, 2664, Note_on_c, 0, 77, 66
2, 2670, Note_on_c, 0, 77, 0
2, 2670, Note_on_c, 0, 79, 66
2, 2676, Note_on_c, 0, 79, 0
2, 2676, Note_on_c, 0, 77, 66
2, 2682, Note_on_c, 0, 77, 0
2, 2682, Note_on_c, 0, 79, 66
2, 2688, Note_on_c, 0, 79, 0
2, 2688, Note_on_c, 0, 77, 66
2, 2694, Note_on_c, 0, 77, 0
2, 2694, Note_on_c, 0, 79, 66
2, 2700, Note_on_c, 0, 79, 0
2, 2700, Note_on_c, 0, 77, 66
2, 2706, Note_on_c, 0, 77, 0
2, 2706, Note_on_c, 0, 79, 66
2, 2712, Note_on_c, 0, 79, 0
2, 2712, Note_on_c, 0, 77, 66
2, 2718, Note_on_c, 0, 77, 0
2, 2718, Note_on_c, 0, 79, 66
2, 2724, Note_on_c, 0, 79, 0
2, 2724, Note_on_c, 0, 77, 66
2, 2730, Note_on_c, 0, 77, 0
2, 2730, Note_on_c, 0, 79, 66
2, 2736, Note_on_c, 0, 79, 0
2, 2736, Note_on_c, 0, 77, 66
2, 2742, Note_on_c, 0, 77, 0
2, 2742, Note_on_c, 0, 79, 66
2, 2748, Note_on_c, 0, 79, 0
2, 2748, Note_on_c, 0, 77, 66
2, 2754, Note_on_c, 0, 77, 0
2, 2754, Note_on_c, 0, 79, 66
2, 2760, Note_on_c, 0, 79, 0
2, 2760, Note_on_c, 0, 77, 66
2, 2766, Note_on_c, 0, 77, 0
2, 2766, Note_on_c, 0, 79, 66
2, 2772, Note_on_c, 0, 79, 0
2, 2772, Note_on_c, 0, 77, 66
2, 2778, Note_on_c, 0, 77, 0
2, 2778, Note_on_c, 0, 79, 66
2, 2784, Note_on_c, 0, 79, 0
2, 2784, Note_on_c, 0, 77, 66
2, 2790, Note_on_c, 0, 77, 0
2, 2790, Note_on_c, 0, 79, 66
2, 2796, Note_on_c, 0, 79, 0
2, 2796, Note_on_c, 0, 77, 66
2, 2802, Note_on_c, 0, 77, 0
2, 2802, Note_on_c, 0, 79, 66
2, 2808, Note_on_c, 0, 79, 0
2, 2808, Note_on_c, 0, 77, 66
2, 2814, Note_on_c, 0, 77, 0
2, 2814, Note_on_c, 0, 79, 66
2, 2820, Note_on_c, 0, 79, 0
2, 2820, Note_on_c, 0, 77, 66
2, 2826, Note_on_c, 0, 77, 0
2, 2826, Note_on_c, 0, 79, 66
2, 2832, Note_on_c, 0, 79, 0
2, 2832, Note_on_c, 0, 77, 66
2, 2838, Note_on_c, 0, 77, 0
2, 2838, Note_on_c, 0, 79, 66
2, 2844, Note_on_c, 0, 79, 0
2, 2844, Note_on_c, 0, 77, 66
2, 2850, Note_on_c, 0, 77, 0
2, 2850, Note_on_c, 0, 79, 66
2, 2856, Note_on_c, 0, 79, 0
2, 2856, Note_on_c, 0, 77, 66
2, 2862, Note_on_c, 0, 77, 0
2, 2862, Note_on_c, 0, 79, 66
2, 2868, Note_on_c, 0, 79, 0
2, 2868, Note_on_c, 0, 77, 66
2, 2874, Note_on_c, 0, 77, 0
2, 2874, Note_on_c, 0, 79, 66
2, 2880, Note_on_c, 0, 79, 0
2, 2880, Note_on_c, 0, 77, 66
2, 2886, Note_on_c, 0, 77, 0
2, 2886, Note_on_c, 0, 79, 66
2, 2892, Note_on_c, 0, 79, 0
2, 2892, Note_on_c, 0, 77, 66
2, 2898, Note_on_c, 0, 77, 0
2, 2898, Note_on_c, 0, 79, 66
2, 2904, Note_on_c, 0, 79, 0
2, 2904, Note_on_c, 0, 77, 66
2, 2910, Note_on_c, 0, 77, 0
2, 2910, Note_on_c, 0, 79, 66
2, 2916, Note_on_c, 0, 79, 0
2, 2916, Note_on_c, 0, 77, 66
2, 2922, Note_on_c, 0, 77, 0
2, 2922, Note_on_c, 0, 79, 66
2, 2928, Note_on_c, 0, 79, 0
2, 2928, Note_on_c, 0, 77, 66
2, 2934, Note_on_c, 0, 77, 0
2, 2934, Note_on_c, 0, 79, 66
2, 2940, Note_on_c, 0, 79, 0
2, 2940, Note_on_c, 0, 77, 66
2, 2946, Note_on_c, 0, 77, 0
2, 2946, Note_on_c, 0, 79, 66
2, 2952, Note_on_c, 0, 79, 0
2, 2952, Note_on_c, 0, 77, 66
2, 2958, Note_on_c, 0, 77, 0
2, 2958, Note_on_c, 0, 79, 66
2, 2964, Note_on_c, 0, 79, 0
2, 2964, Note_on_c, 0, 77, 66
2, 2970, Note_on_c, 0, 77, 0
2, 2970, Note_on_c, 0, 79, 66
2, 2976, Note_on_c, 0, 79, 0
2, 2976, Note_on_c, 0, 77, 66
2, 2982, Note_on_c, 0, 77, 0
2, 2982, Note_on_c, 0, 79, 66
2, 2988, Note_on_c, 0, 79, 0
2, 2988, Note_on_c, 0, 77, 66
2, 2994, Note_on_c, 0, 77, 0
2, 2994, Note_on_c, 0, 79, 66
2, 3000, Note_on_c, 0, 79, 0
2, 3000, Note_on_c, 0, 77, 66
2, 3006, Note_on_c, 0, 77, 0
2, 3006, Note_on_c, 0, 79, 66
2, 3012, Note_on_c, 0, 79, 0
2, 3012, Note_on_c, 0, 77, 66
2, 3018, Note_on_c, 0, 77, 0
2, 3018, Note_on_c, 0, 79, 66
2, 3024, Note_on_c, 0, 79, 0
2, 3024, Note_on_c, 0, 77, 66
2, 3030, Note_on_c, 0, 77, 0
2, 3030, Note_on_c, 0, 79, 66
2, 3036, Note_on_c, 0, 79, 0
2, 3036, Note_on_c, 0, 77, 66
2, 3042, Note_on_c, 0, 77, 0
2, 3042, Note_on_c, 0, 79, 66
2, 3048, Note_on_c, 0, 79, 0
2, 3048, Note_on_c, 0, 77, 66
2, 3054, Note_on_c, 0, 77, 0
2, 3054, Note_on_c, 0, 79, 66
2, 3060, Note_on_c, 0, 79, 0
2, 3060, Note_on_c, 0, 77, 66
2, 3066, Note_on_c, 0, 77, 0
2, 3066, Note_on_c, 0, 79, 66
2, 3072, Note_on_c, 0, 79, 0
2, 3072, Note_on_c, 0, 77, 66
2, 3078, Note_on_c, 0, 77, 0
2, 3078, Note_on_c, 0, 79, 66
2, 3084, Note_on_c, 0, 79, 0
2, 3084, Note_on_c, 0, 77, 66
2, 3087, Note_on_c, 0, 77, 0
2, 3088, Note_on_c, 0, 86, 75
2, 3088, Note_on_c, 0, 82, 75
2, 3103, Note_on_c, 0, 86, 0
2, 3103, Note_on_c, 0, 82, 0
2, 3104, Note_on_c, 0, 86, 75
2, 3104, Note_on_c, 0, 82, 75
2, 3119, Note_on_c, 0, 86, 0
2, 3119, Note_on_c, 0, 82, 0
2, 3120, Note_on_c, 0, 86, 75
2, 3120, Note_on_c, 0, 82, 75
2, 3135, Note_on_c, 0, 86, 0
2, 3135, Note_on_c, 0, 82, 0
2, 3136, Note_on_c, 0, 82, 75
2, 3136, Note_on_c, 0, 74, 75
2, 3151, Note_on_c, 0, 82, 0
2, 3151, Note_on_c, 0, 74, 0
2, 3152, Note_on_c, 0, 82, 75
2, 3152, Note_on_c, 0, 74, 75
2, 3167, Note_on_c, 0, 82, 0
2, 3167, Note_on_c, 0, 74, 0
2, 3184, Note_on_c, 0, 79, 75
2, 3184, Note_on_c, 0, 75, 75
2, 3199, Note_on_c, 0, 79, 0
2, 3199, Note_on_c, 0, 75, 0
2, 3200, Note_on_c, 0, 79, 75
2, 3200, Note_on_c, 0, 75, 75
2, 3215, Note_on_c, 0, 79, 0
2, 3215, Note_on_c, 0, 75, 0
2, 3216, Note_on_c, 0, 79, 75
2, 3216, Note_on_c, 0, 75, 75
2, 3231, Note_on_c, 0, 79, 0
2, 3231, Note_on_c, 0, 75, 0
2, 3232, Note_on_c, 0, 75, 75
2, 3232, Note_on_c, 0, 67, 75
2, 3247, Note_on_c, 0, 75, 0
2, 3247, Note_on_c, 0, 67, 0
2, 3248, Note_on_c, 0, 75, 75
2, 3248, Note_on_c, 0, 67, 75
2, 3263, Note_on_c, 0, 75, 0
2, 3263, Note_on_c, 0, 67, 0
2, 3264, Note_on_c, 0, 75, 75
2, 3280, Note_on_c, 0, 75, 0
2, 3281, Note_on_c, 0, 74, 75
2, 3287, Note_on_c, 0, 74, 0
2, 3287, Note_on_c, 0, 75, 75
2, 3293, Note_on_c, 0, 75, 0
2, 3293, Note_on_c, 0, 74, 75
2, 3299, Note_on_c, 0, 74, 0
2, 3299, Note_on_c, 0, 75, 75
2, 3305, Note_on_c, 0, 75, 0
2, 3305, Note_on_c, 0, 74, 75
2, 3311, Note_on_c, 0, 74, 0
2, 3311, Note_on_c, 0, 75, 75
2, 3316, Note_on_c, 0, 75, 0
2, 3316, Note_on_c, 0, 74, 75
2, 3321, Note_on_c, 0, 74, 0
2, 3321, Note_on_c, 0, 75, 75
2, 3326, Note_on_c, 0, 75, 0
2, 3326, Note_on_c, 0, 74, 75
2, 3331, Note_on_c, 0, 74, 0
2, 3331, Note_on_c, 0, 75, 75
2, 3336, Note_on_c, 0, 75, 0
2, 3336, Note_on_c, 0, 74, 75
2, 3341, Note_on_c, 0, 74, 0
2, 3341, Note_on_c, 0, 75, 75
2, 3346, Note_on_c, 0, 75, 0
2, 3346, Note_on_c, 0, 74, 75
2, 3351, Note_on_c, 0, 74, 0
2, 3351, Note_on_c, 0, 75, 75
2, 3356, Note_on_c, 0, 75, 0
2, 3356, Note_on_c, 0, 74, 75
2, 3361, Note_on_c, 0, 74, 0
2, 3361, Note_on_c, 0, 75, 75
2, 3367, Note_on_c, 0, 75, 0
2, 3367, Note_on_c, 0, 73, 75
2, 3373, Note_on_c, 0, 73, 0
2, 3373, Note_on_c, 0, 75, 75
2, 3379, Note_on_c, 0, 75, 0
2, 3379, Note_on_c, 0, 73, 75
2, 3385, Note_on_c, 0, 73, 0
2, 3385, Note_on_c, 0, 75, 75
2, 3391, Note_on_c, 0, 75, 0
2, 3391, Note_on_c, 0, 73, 75
2, 3397, Note_on_c, 0, 73, 0
2, 3397, Note_on_c, 0, 75, 75
2, 3402, Note_on_c, 0, 75, 0
2, 3402, Note_on_c, 0, 73, 75
2, 3407, Note_on_c, 0, 73, 0
2, 3407, Note_on_c, 0, 75, 75
2, 3412, Note_on_c, 0, 75, 0
2, 3412, Note_on_c, 0, 73, 75
2, 3417, Note_on_c, 0, 73, 0
2, 3417, Note_on_c, 0, 75, 75
2, 3422, Note_on_c, 0, 75, 0
2, 3422, Note_on_c, 0, 73, 75
2, 3427, Note_on_c, 0, 73, 0
2, 3427, Note_on_c, 0, 75, 75
2, 3432, Note_on_c, 0, 75, 0
2, 3432, Note_on_c, 0, 73, 75
2, 3437, Note_on_c, 0, 73, 0
2, 3437, Note_on_c, 0, 72, 75
2, 3447, Note_on_c, 0, 72, 0
2, 3447, Note_on_c, 0, 73, 75
2, 3457, Note_on_c, 0, 73, 0
2, 3457, Note_on_c, 0, 72, 75
2, 3472, Note_on_c, 0, 72, 0
2, 3473, Note_on_c, 0, 84, 75
2, 3488, Note_on_c, 0, 84, 0
2, 3489, Note_on_c, 0, 81, 75
2, 3504, Note_on_c, 0, 81, 0
2, 3505, Note_on_c, 0, 77, 75
2, 3520, Note_on_c, 0, 77, 0
2, 3521, Note_on_c, 0, 72, 75
2, 3536, Note_on_c, 0, 72, 0
2, 3537, Note_on_c, 0, 69, 75
2, 3552, Note_on_c, 0, 69, 0
2, 3553, Note_on_c, 0, 70, 75
2, 3568, Note_on_c, 0, 70, 0
2, 3569, Note_on_c, 0, 82, 75
2, 3584, Note_on_c, 0, 82, 0
2, 3585, Note_on_c, 0, 77, 75
2, 3600, Note_on_c, 0, 77, 0
2, 3601, Note_on_c, 0, 74, 75
2, 3616, Note_on_c, 0, 74, 0
2, 3617, Note_on_c, 0, 70, 75
2, 3632, Note_on_c, 0, 70, 0
2, 3633, Note_on_c, 0, 65, 75
2, 3648, Note_on_c, 0, 65, 0
2, 3649, Note_on_c, 0, 67, 75
2, 3664, Note_on_c, 0, 67, 0
2, 3665, Note_on_c, 0, 79, 75
2, 3680, Note_on_c, 0, 79, 0
2, 3681, Note_on_c, 0, 78, 75
2, 3696, Note_on_c, 0, 78, 0
2, 3697, Note_on_c, 0, 79, 75
2, 3712, Note_on_c, 0, 79, 0
2, 3713, Note_on_c, 0, 75, 75
2, 3728, Note_on_c, 0, 75, 0
2, 3729, Note_on_c, 0, 72, 75
2, 3744, Note_on_c, 0, 72, 0
2, 3745, Note_on_c, 0, 70, 75
2, 3790, Note_on_c, 0, 70, 0
2, 3793, Note_on_c, 0, 69, 75
2, 3799, Note_on_c, 0, 69, 0
2, 3799, Note_on_c, 0, 70, 75
2, 3805, Note_on_c, 0, 70, 0
2, 3805, Note_on_c, 0, 69, 75
2, 3811, Note_on_c, 0, 69, 0
2, 3811, Note_on_c, 0, 70, 75
2, 3816, Note_on_c, 0, 70, 0
2, 3816, Note_on_c, 0, 69, 75
2, 3821, Note_on_c, 0, 69, 0
2, 3821, Note_on_c, 0, 70, 75
2, 3826, Note_on_c, 0, 70, 0
2, 3826, Note_on_c, 0, 69, 75
2, 3831, Note_on_c, 0, 69, 0
2, 3831, Note_on_c, 0, 67, 75
2, 3836, Note_on_c, 0, 67, 0
2, 3836, Note_on_c, 0, 69, 75
2, 3841, Note_on_c, 0, 69, 0
2, 3841, Note_on_c, 0, 70, 75
2, 3888, Note_on_c, 0, 70, 0
2, 3889, Note_on_c, 0, 70, 75
2, 3895, Note_on_c, 0, 70, 0
2, 3895, Note_on_c, 0, 72, 75
2, 3901, Note_on_c, 0, 72, 0
2, 3901, Note_on_c, 0, 70, 75
2, 3904, Note_on_c, 0, 70, 0
2, 3905, Note_on_c, 0, 69, 75
2, 3920, Note_on_c, 0, 69, 0
2, 3921, Note_on_c, 0, 70, 75
2, 3936, Note_on_c, 0, 70, 0
2, 3937, Note_on_c, 0, 70, 75
2, 3943, Note_on_c, 0, 70, 0
2, 3943, Note_on_c, 0, 72, 75
2, 3949, Note_on_c, 0, 72, 0
2, 3949, Note_on_c, 0, 70, 75
2, 3952, Note_on_c, 0, 70, 0
2, 3953, Note_on_c, 0, 69, 75
2, 3968, Note_on_c, 0, 69, 0
2, 3969, Note_on_c, 0, 70, 75
2, 3984, Note_on_c, 0, 70, 0
2, 3985, Note_on_c, 0, 70, 75
2, 3991, Note_on_c, 0, 70, 0
2, 3991, Note_on_c, 0, 72, 75
2, 3997, Note_on_c, 0, 72, 0
2, 3997, Note_on_c, 0, 70, 75
2, 4000, Note_on_c, 0, 70, 0
2, 4001, Note_on_c, 0, 69, 75
2, 4016, Note_on_c, 0, 69, 0
2, 4017, Note_on_c, 0, 70, 75
2, 4032, Note_on_c, 0, 70, 0
2, 4033, Note_on_c, 0, 70, 75
2, 4100, Note_on_c, 0, 70, 0
2, 4105, Note_on_c, 0, 72, 75
2, 4117, Note_on_c, 0, 72, 0
2, 4117, Note_on_c, 0, 74, 75
2, 4129, Note_on_c, 0, 74, 0
2, 4129, Note_on_c, 0, 75, 75
2, 4141, Note_on_c, 0, 75, 0
2, 4141, Note_on_c, 0, 77, 75
2, 4153, Note_on_c, 0, 77, 0
2, 4153, Note_on_c, 0, 79, 75
2, 4165, Note_on_c, 0, 79, 0
2, 4165, Note_on_c, 0, 81, 75
2, 4177, Note_on_c, 0, 81, 0
2, 4177, Note_on_c, 0, 82, 75
2, 4187, Note_on_c, 0, 82, 0
2, 4201, Note_on_c, 0, 77, 75
2, 4211, Note_on_c, 0, 77, 0
2, 4225, Note_on_c, 0, 86, 70
2, 4235, Note_on_c, 0, 86, 0
2, 4249, Note_on_c, 0, 82, 70
2, 4259, Note_on_c, 0, 82, 0
2, 4273, Note_on_c, 0, 77, 70
2, 4283, Note_on_c, 0, 77, 0
2, 4297, Note_on_c, 0, 74, 70
2, 4307, Note_on_c, 0, 74, 0
2, 4321, Note_on_c, 0, 72, 70
2, 4327, Note_on_c, 0, 72, 0
2, 4327, Note_on_c, 0, 74, 70
2, 4333, Note_on_c, 0, 74, 0
2, 4333, Note_on_c, 0, 72, 70
2, 4339, Note_on_c, 0, 72, 0
2, 4339, Note_on_c, 0, 74, 70
2, 4345, Note_on_c, 0, 74, 0
2, 4345, Note_on_c, 0, 72, 70
2, 4351, Note_on_c, 0, 72, 0
2, 4351, Note_on_c, 0, 74, 70
2, 4357, Note_on_c, 0, 74, 0
2, 4357, Note_on_c, 0, 72, 70
2, 4363, Note_on_c, 0, 72, 0
2, 4363, Note_on_c, 0, 74, 70
2, 4368, Note_on_c, 0, 74, 0
2, 4368, Note_on_c, 0, 72, 70
2, 4373, Note_on_c, 0, 72, 0
2, 4373, Note_on_c, 0, 74, 70
2, 4378, Note_on_c, 0, 74, 0
2, 4378, Note_on_c, 0, 72, 70
2, 4383, Note_on_c, 0, 72, 0
2, 4383, Note_on_c, 0, 74, 70
2, 4388, Note_on_c, 0, 74, 0
2, 4388, Note_on_c, 0, 72, 70
2, 4393, Note_on_c, 0, 72, 0
2, 4393, Note_on_c, 0, 74, 70
2, 4398, Note_on_c, 0, 74, 0
2, 4398, Note_on_c, 0, 72, 70
2, 4403, Note_on_c, 0, 72, 0
2, 4403, Note_on_c, 0, 74, 70
2, 4408, Note_on_c, 0, 74, 0
2, 4408, Note_on_c, 0, 72, 70
2, 4413, Note_on_c, 0, 72, 0
2, 4413, Note_on_c, 0, 74, 70
2, 4418, Note_on_c, 0, 74, 0
2, 4418, Note_on_c, 0, 72, 70
2, 4423, Note_on_c, 0, 72, 0
2, 4423, Note_on_c, 0, 74, 70
2, 4428, Note_on_c, 0, 74, 0
2, 4428, Note_on_c, 0, 72, 70
2, 4433, Note_on_c, 0, 72, 0
2, 4433, Note_on_c, 0, 74, 70
2, 4438, Note_on_c, 0, 74, 0
2, 4438, Note_on_c, 0, 72, 70
2, 4443, Note_on_c, 0, 72, 0
2, 4443, Note_on_c, 0, 74, 70
2, 4448, Note_on_c, 0, 74, 0
2, 4448, Note_on_c, 0, 72, 70
2, 4453, Note_on_c, 0, 72, 0
2, 4453, Note_on_c, 0, 74, 70
2, 4458, Note_on_c, 0, 74, 0
2, 4458, Note_on_c, 0, 72, 70
2, 4463, Note_on_c, 0, 72, 0
2, 4463, Note_on_c, 0, 74, 70
2, 4468, Note_on_c, 0, 74, 0
2, 4468, Note_on_c, 0, 72, 70
2, 4473, Note_on_c, 0, 72, 0
2, 4473, Note_on_c, 0, 74, 70
2, 4478, Note_on_c, 0, 74, 0
2, 4478, Note_on_c, 0, 72, 70
2, 4483, Note_on_c, 0, 72, 0
2, 4483, Note_on_c, 0, 74, 70
2, 4488, Note_on_c, 0, 74, 0
2, 4488, Note_on_c, 0, 72, 70
2, 4493, Note_on_c, 0, 72, 0
2, 4493, Note_on_c, 0, 70, 70
2, 4503, Note_on_c, 0, 70, 0
2, 4503, Note_on_c, 0, 72, 70
2, 4513, Note_on_c, 0, 72, 0
2, 4513, Note_on_c, 0, 70, 70
2, 4602, Note_on_c, 0, 70, 0
2, 4657, Note_on_c, 0, 77, 75
2, 4702, Note_on_c, 0, 77, 0
2, 4705, Note_on_c, 0, 82, 75
2, 4720, Note_on_c, 0, 82, 0
2, 4721, Note_on_c, 0, 86, 75
2, 4736, Note_on_c, 0, 86, 0
2, 4737, Note_on_c, 0, 84, 75
2, 4752, Note_on_c, 0, 84, 0
2, 4753, Note_on_c, 0, 82, 75
2, 4768, Note_on_c, 0, 82, 0
2, 4769, Note_on_c, 0, 81, 75
2, 4784, Note_on_c, 0, 81, 0
2, 4785, Note_on_c, 0, 82, 75
2, 4800, Note_on_c, 0, 82, 0
2, 4801, Note_on_c, 0, 86, 75
2, 4816, Note_on_c, 0, 86, 0
2, 4817, Note_on_c, 0, 81, 75
2, 4832, Note_on_c, 0, 81, 0
2, 4833, Note_on_c, 0, 82, 75
2, 4848, Note_on_c, 0, 82, 0
2, 4849, Note_on_c, 0, 86, 75
2, 4864, Note_on_c, 0, 86, 0
2, 4865, Note_on_c, 0, 81, 75
2, 4880, Note_on_c, 0, 81, 0
2, 4881, Note_on_c, 0, 82, 75
2, 4896, Note_on_c, 0, 82, 0
2, 4897, Note_on_c, 0, 81, 75
2, 4902, Note_on_c, 0, 81, 0
2, 4902, Note_on_c, 0, 79, 75
2, 4907, Note_on_c, 0, 79, 0
2, 4907, Note_on_c, 0, 81, 75
2, 4912, Note_on_c, 0, 81, 0
2, 4912, Note_on_c, 0, 79, 75
2, 4917, Note_on_c, 0, 79, 0
2, 4917, Note_on_c, 0, 81, 75
2, 4922, Note_on_c, 0, 81, 0
2, 4922, Note_on_c, 0, 79, 75
2, 4927, Note_on_c, 0, 79, 0
2, 4927, Note_on_c, 0, 81, 75
2, 4932, Note_on_c, 0, 81, 0
2, 4932, Note_on_c, 0, 79, 75
2, 4937, Note_on_c, 0, 79, 0
2, 4937, Note_on_c, 0, 77, 75
2, 4941, Note_on_c, 0, 77, 0
2, 4941, Note_on_c, 0, 79, 75
2, 4945, Note_on_c, 0, 79, 0
2, 4945, Note_on_c, 0, 77, 75
2, 5008, Note_on_c, 0, 77, 0
2, 5009, Note_on_c, 0, 70, 75
2, 5024, Note_on_c, 0, 70, 0
2, 5025, Note_on_c, 0, 72, 75
2, 5040, Note_on_c, 0, 72, 0
2, 5041, Note_on_c, 0, 74, 75
2, 5056, Note_on_c, 0, 74, 0
2, 5057, Note_on_c, 0, 75, 75
2, 5072, Note_on_c, 0, 75, 0
2, 5073, Note_on_c, 0, 77, 75
2, 5088, Note_on_c, 0, 77, 0
2, 5089, Note_on_c, 0, 75, 75
2, 5095, Note_on_c, 0, 75, 0
2, 5095, Note_on_c, 0, 77, 75
2, 5101, Note_on_c, 0, 77, 0
2, 5101, Note_on_c, 0, 75, 75
2, 5104, Note_on_c, 0, 75, 0
2, 5105, Note_on_c, 0, 74, 75
2, 5120, Note_on_c, 0, 74, 0
2, 5121, Note_on_c, 0, 75, 75
2, 5136, Note_on_c, 0, 75, 0
2, 5137, Note_on_c, 0, 75, 75
2, 5143, Note_on_c, 0, 75, 0
2, 5143, Note_on_c, 0, 77, 75
2, 5149, Note_on_c, 0, 77, 0
2, 5149, Note_on_c, 0, 75, 75
2, 5152, Note_on_c, 0, 75, 0
2, 5153, Note_on_c, 0, 74, 75
2, 5168, Note_on_c, 0, 74, 0
2, 5169, Note_on_c, 0, 75, 75
2, 5184, Note_on_c, 0, 75, 0
2, 5185, Note_on_c, 0, 84, 75
2, 5200, Note_on_c, 0, 84, 0
2, 5201, Note_on_c, 0, 82, 75
2, 5216, Note_on_c, 0, 82, 0
2, 5217, Note_on_c, 0, 81, 75
2, 5232, Note_on_c, 0, 81, 0
2, 5233, Note_on_c, 0, 79, 75
2, 5248, Note_on_c, 0, 79, 0
2, 5249, Note_on_c, 0, 77, 75
2, 5264, Note_on_c, 0, 77, 0
2, 5265, Note_on_c, 0, 75, 75
2, 5280, Note_on_c, 0, 75, 0
2, 5281, Note_on_c, 0, 74, 75
2, 5296, Note_on_c, 0, 74, 0
2, 5297, Note_on_c, 0, 77, 75
2, 5312, Note_on_c, 0, 77, 0
2, 5313, Note_on_c, 0, 69, 75
2, 5328, Note_on_c, 0, 69, 0
2, 5329, Note_on_c, 0, 70, 75
2, 5374, Note_on_c, 0, 70, 0
2, 5425, Note_on_c, 0, 77, 75
2, 5470, Note_on_c, 0, 77, 0
2, 5473, Note_on_c, 0, 77, 75
2, 5488, Note_on_c, 0, 77, 0
2, 5489, Note_on_c, 0, 80, 75
2, 5504, Note_on_c, 0, 80, 0
2, 5505, Note_on_c, 0, 79, 75
2, 5520, Note_on_c, 0, 79, 0
2, 5521, Note_on_c, 0, 77, 75
2, 5527, Note_on_c, 0, 77, 0
2, 5527, Note_on_c, 0, 79, 75
2, 5533, Note_on_c, 0, 79, 0
2, 5533, Note_on_c, 0, 77, 75
2, 5536, Note_on_c, 0, 77, 0
2, 5537, Note_on_c, 0, 76, 75
2, 5552, Note_on_c, 0, 76, 0
2, 5553, Note_on_c, 0, 77, 75
2, 5568, Note_on_c, 0, 77, 0
2, 5585, Note_on_c, 0, 80, 75
2, 5600, Note_on_c, 0, 80, 0
2, 5601, Note_on_c, 0, 79, 75
2, 5616, Note_on_c, 0, 79, 0
2, 5617, Note_on_c, 0, 77, 75
2, 5623, Note_on_c, 0, 77, 0
2, 5623, Note_on_c, 0, 79, 75
2, 5629, Note_on_c, 0, 79, 0
2, 5629, Note_on_c, 0, 77, 75
2, 5632, Note_on_c, 0, 77, 0
2, 5633, Note_on_c, 0, 76, 75
2, 5648, Note_on_c, 0, 76, 0
2, 5649, Note_on_c, 0, 77, 75
2, 5664, Note_on_c, 0, 77, 0
2, 5665, Note_on_c, 0, 67, 75
2, 5680, Note_on_c, 0, 67, 0
2, 5681, Note_on_c, 0, 74, 75
2, 5681, Note_on_c, 0, 71, 75
2, 5696, Note_on_c, 0, 74, 0
2, 5696, Note_on_c, 0, 71, 0
2, 5697, Note_on_c, 0, 74, 76
2, 5697, Note_on_c, 0, 71, 76
2, 5712, Note_on_c, 0, 74, 0
2, 5712, Note_on_c, 0, 71, 0
2, 5713, Note_on_c, 0, 67, 77
2, 5728, Note_on_c, 0, 67, 0
2, 5729, Note_on_c, 0, 77, 77
2, 5729, Note_on_c, 0, 74, 77
2, 5744, Note_on_c, 0, 77, 0
2, 5744, Note_on_c, 0, 74, 0
2, 5745, Note_on_c, 0, 77, 78
2, 5745, Note_on_c, 0, 74, 78
2, 5760, Note_on_c, 0, 77, 0
2, 5760, Note_on_c, 0, 74, 0
2, 5761, Note_on_c, 0, 67, 79
2, 5776, Note_on_c, 0, 67, 0
2, 5777, Note_on_c, 0, 86, 81
2, 5777, Note_on_c, 0, 77, 81
2, 5792, Note_on_c, 0, 86, 0
2, 5792, Note_on_c, 0, 77, 0
2, 5793, Note_on_c, 0, 86, 81
2, 5793, Note_on_c, 0, 77, 81
2, 5808, Note_on_c, 0, 86, 0
2, 5808, Note_on_c, 0, 77, 0
2, 5809, Note_on_c, 0, 86, 81
2, 5809, Note_on_c, 0, 77, 81
2, 5824, Note_on_c, 0, 86, 0
2, 5824, Note_on_c, 0, 77, 0
2, 5825, Note_on_c, 0, 77, 81
2, 5825, Note_on_c, 0, 74, 81
2, 5840, Note_on_c, 0, 77, 0
2, 5840, Note_on_c, 0, 74, 0
2, 5841, Note_on_c, 0, 77, 81
2, 5841, Note_on_c, 0, 74, 81
2, 5856, Note_on_c, 0, 77, 0
2, 5856, Note_on_c, 0, 74, 0
2, 5857, Note_on_c, 0, 75, 81
2, 5872, Note_on_c, 0, 75, 0
2, 5873, Note_on_c, 0, 79, 80
2, 5888, Note_on_c, 0, 79, 0
2, 5889, Note_on_c, 0, 71, 79
2, 5904, Note_on_c, 0, 71, 0
2, 5905, Note_on_c, 0, 74, 78
2, 5911, Note_on_c, 0, 74, 0
2, 5911, Note_on_c, 0, 72, 78
2, 5917, Note_on_c, 0, 72, 0
2, 5917, Note_on_c, 0, 71, 78
2, 5923, Note_on_c, 0, 71, 0
2, 5923, Note_on_c, 0, 72, 78
2, 5950, Note_on_c, 0, 72, 0
2, 6001, Note_on_c, 0, 75, 75
2, 6046, Note_on_c, 0, 75, 0
2, 6049, Note_on_c, 0, 75, 75
2, 6064, Note_on_c, 0, 75, 0
2, 6065, Note_on_c, 0, 79, 75
2, 6080, Note_on_c, 0, 79, 0
2, 6081, Note_on_c, 0, 77, 75
2, 6096, Note_on_c, 0, 77, 0
2, 6097, Note_on_c, 0, 75, 75
2, 6103, Note_on_c, 0, 75, 0
2, 6103, Note_on_c, 0, 77, 75
2, 6109, Note_on_c, 0, 77, 0
2, 6109, Note_on_c, 0, 75, 75
2, 6112, Note_on_c, 0, 75, 0
2, 6113, Note_on_c, 0, 74, 75
2, 6128, Note_on_c, 0, 74, 0
2, 6129, Note_on_c, 0, 75, 75
2, 6144, Note_on_c, 0, 75, 0
2, 6161, Note_on_c, 0, 79, 75
2, 6176, Note_on_c, 0, 79, 0
2, 6177, Note_on_c, 0, 77, 75
2, 6192, Note_on_c, 0, 77, 0
2, 6193, Note_on_c, 0, 75, 75
2, 6199, Note_on_c, 0, 75, 0
2, 6199, Note_on_c, 0, 77, 75
2, 6205, Note_on_c, 0, 77, 0
2, 6205, Note_on_c, 0, 75, 75
2, 6208, Note_on_c, 0, 75, 0
2, 6209, Note_on_c, 0, 74, 75
2, 6224, Note_on_c, 0, 74, 0
2, 6225, Note_on_c, 0, 75, 75
2, 6240, Note_on_c, 0, 75, 0
2, 6241, Note_on_c, 0, 65, 75
2, 6256, Note_on_c, 0, 65, 0
2, 6257, Note_on_c, 0, 72, 75
2, 6257, Note_on_c, 0, 69, 75
2, 6272, Note_on_c, 0, 72, 0
2, 6272, Note_on_c, 0, 69, 0
2, 6273, Note_on_c, 0, 72, 76
2, 6273, Note_on_c, 0, 69, 76
2, 6288, Note_on_c, 0, 72, 0
2, 6288, Note_on_c, 0, 69, 0
2, 6289, Note_on_c, 0, 65, 77
2, 6304, Note_on_c, 0, 65, 0
2, 6305, Note_on_c, 0, 75, 77
2, 6305, Note_on_c, 0, 72, 77
2, 6320, Note_on_c, 0, 75, 0
2, 6320, Note_on_c, 0, 72, 0
2, 6321, Note_on_c, 0, 75, 78
2, 6321, Note_on_c, 0, 72, 78
2, 6336, Note_on_c, 0, 75, 0
2, 6336, Note_on_c, 0, 72, 0
2, 6337, Note_on_c, 0, 65, 79
2, 6352, Note_on_c, 0, 65, 0
2, 6353, Note_on_c, 0, 84, 81
2, 6353, Note_on_c, 0, 75, 81
2, 6368, Note_on_c, 0, 84, 0
2, 6368, Note_on_c, 0, 75, 0
2, 6369, Note_on_c, 0, 84, 81
2, 6369, Note_on_c, 0, 75, 81
2, 6384, Note_on_c, 0, 84, 0
2, 6384, Note_on_c, 0, 75, 0
2, 6385, Note_on_c, 0, 84, 81
2, 6385, Note_on_c, 0, 75, 81
2, 6400, Note_on_c, 0, 84, 0
2, 6400, Note_on_c, 0, 75, 0
2, 6401, Note_on_c, 0, 75, 81
2, 6401, Note_on_c, 0, 72, 81
2, 6416, Note_on_c, 0, 75, 0
2, 6416, Note_on_c, 0, 72, 0
2, 6417, Note_on_c, 0, 75, 81
2, 6417, Note_on_c, 0, 72, 81
2, 6432, Note_on_c, 0, 75, 0
2, 6432, Note_on_c, 0, 72, 0
2, 6433, Note_on_c, 0, 74, 81
2, 6448, Note_on_c, 0, 74, 0
2, 6449, Note_on_c, 0, 77, 80
2, 6464, Note_on_c, 0, 77, 0
2, 6465, Note_on_c, 0, 69, 79
2, 6480, Note_on_c, 0, 69, 0
2, 6481, Note_on_c, 0, 70, 78
2, 6526, Note_on_c, 0, 70, 0
2, 6545, Note_on_c, 0, 79, 75
2, 6560, Note_on_c, 0, 79, 0
2, 6561, Note_on_c, 0, 81, 75
2, 6576, Note_on_c, 0, 81, 0
2, 6577, Note_on_c, 0, 82, 75
2, 6592, Note_on_c, 0, 82, 0
2, 6593, Note_on_c, 0, 78, 75
2, 6608, Note_on_c, 0, 78, 0
2, 6609, Note_on_c, 0, 79, 75
2, 6624, Note_on_c, 0, 79, 0
2, 6625, Note_on_c, 0, 72, 75
2, 6631, Note_on_c, 0, 72, 0
2, 6631, Note_on_c, 0, 74, 75
2, 6637, Note_on_c, 0, 74, 0
2, 6637, Note_on_c, 0, 72, 75
2, 6640, Note_on_c, 0, 72, 0
2, 6641, Note_on_c, 0, 71, 75
2, 6656, Note_on_c, 0, 71, 0
2, 6657, Note_on_c, 0, 72, 75
2, 6672, Note_on_c, 0, 72, 0
2, 6673, Note_on_c, 0, 72, 75
2, 6718, Note_on_c, 0, 72, 0
2, 6737, Note_on_c, 0, 78, 75
2, 6752, Note_on_c, 0, 78, 0
2, 6753, Note_on_c, 0, 79, 75
2, 6768, Note_on_c, 0, 79, 0
2, 6769, Note_on_c, 0, 81, 75
2, 6784, Note_on_c, 0, 81, 0
2, 6785, Note_on_c, 0, 78, 75
2, 6800, Note_on_c, 0, 78, 0
2, 6801, Note_on_c, 0, 69, 75
2, 6816, Note_on_c, 0, 69, 0
2, 6817, Note_on_c, 0, 70, 75
2, 6823, Note_on_c, 0, 70, 0
2, 6823, Note_on_c, 0, 72, 75
2, 6829, Note_on_c, 0, 72, 0
2, 6829, Note_on_c, 0, 70, 75
2, 6832, Note_on_c, 0, 70, 0
2, 6833, Note_on_c, 0, 69, 75
2, 6848, Note_on_c, 0, 69, 0
2, 6849, Note_on_c, 0, 70, 75
2, 6864, Note_on_c, 0, 70, 0
2, 6865, Note_on_c, 0, 70, 75
2, 6910, Note_on_c, 0, 70, 0
2, 6913, Note_on_c, 0, 79, 75
2, 6928, Note_on_c, 0, 79, 0
2, 6929, Note_on_c, 0, 82, 75
2, 6944, Note_on_c, 0, 82, 0
2, 6945, Note_on_c, 0, 78, 75
2, 6960, Note_on_c, 0, 78, 0
2, 6961, Note_on_c, 0, 79, 75
2, 6976, Note_on_c, 0, 79, 0
2, 6977, Note_on_c, 0, 67, 75
2, 6992, Note_on_c, 0, 67, 0
2, 6993, Note_on_c, 0, 74, 75
2, 7008, Note_on_c, 0, 74, 0
2, 7009, Note_on_c, 0, 72, 75
2, 7014, Note_on_c, 0, 72, 0
2, 7014, Note_on_c, 0, 70, 75
2, 7019, Note_on_c, 0, 70, 0
2, 7019, Note_on_c, 0, 72, 75
2, 7024, Note_on_c, 0, 72, 0
2, 7024, Note_on_c, 0, 70, 75
2, 7029, Note_on_c, 0, 70, 0
2, 7029, Note_on_c, 0, 72, 75
2, 7034, Note_on_c, 0, 72, 0
2, 7034, Note_on_c, 0, 70, 75
2, 7039, Note_on_c, 0, 70, 0
2, 7039, Note_on_c, 0, 72, 75
2, 7044, Note_on_c, 0, 72, 0
2, 7044, Note_on_c, 0, 70, 75
2, 7049, Note_on_c, 0, 70, 0
2, 7049, Note_on_c, 0, 69, 75
2, 7053, Note_on_c, 0, 69, 0
2, 7053, Note_on_c, 0, 70, 75
2, 7057, Note_on_c, 0, 70, 0
2, 7057, Note_on_c, 0, 69, 75
2, 7102, Note_on_c, 0, 69, 0
2, 7153, Note_on_c, 0, 74, 75
2, 7198, Note_on_c, 0, 74, 0
2, 7201, Note_on_c, 0, 75, 75
2, 7216, Note_on_c, 0, 75, 0
2, 7217, Note_on_c, 0, 79, 75
2, 7232, Note_on_c, 0, 79, 0
2, 7233, Note_on_c, 0, 77, 75
2, 7248, Note_on_c, 0, 77, 0
2, 7249, Note_on_c, 0, 75, 75
2, 7255, Note_on_c, 0, 75, 0
2, 7255, Note_on_c, 0, 77, 75
2, 7261, Note_on_c, 0, 77, 0
2, 7261, Note_on_c, 0, 75, 75
2, 7264, Note_on_c, 0, 75, 0
2, 7265, Note_on_c, 0, 74, 75
2, 7280, Note_on_c, 0, 74, 0
2, 7281, Note_on_c, 0, 75, 75
2, 7296, Note_on_c, 0, 75, 0
2, 7297, Note_on_c, 0, 77, 75
2, 7313, Note_on_c, 0, 77, 0
2, 7314, Note_on_c, 0, 76, 75
2, 7320, Note_on_c, 0, 76, 0
2, 7320, Note_on_c, 0, 77, 75
2, 7326, Note_on_c, 0, 77, 0
2, 7326, Note_on_c, 0, 76, 75
2, 7332, Note_on_c, 0, 76, 0
2, 7332, Note_on_c, 0, 77, 75
2, 7338, Note_on_c, 0, 77, 0
2, 7338, Note_on_c, 0, 76, 75
2, 7344, Note_on_c, 0, 76, 0
2, 7344, Note_on_c, 0, 77, 75
2, 7349, Note_on_c, 0, 77, 0
2, 7349, Note_on_c, 0, 76, 75
2, 7354, Note_on_c, 0, 76, 0
2, 7354, Note_on_c, 0, 77, 75
2, 7359, Note_on_c, 0, 77, 0
2, 7359, Note_on_c, 0, 76, 75
2, 7364, Note_on_c, 0, 76, 0
2, 7364, Note_on_c, 0, 77, 75
2, 7369, Note_on_c, 0, 77, 0
2, 7369, Note_on_c, 0, 76, 75
2, 7374, Note_on_c, 0, 76, 0
2, 7374, Note_on_c, 0, 77, 75
2, 7379, Note_on_c, 0, 77, 0
2, 7379, Note_on_c, 0, 76, 75
2, 7384, Note_on_c, 0, 76, 0
2, 7384, Note_on_c, 0, 74, 75
2, 7389, Note_on_c, 0, 74, 0
2, 7389, Note_on_c, 0, 76, 75
2, 7394, Note_on_c, 0, 76, 0
2, 7394, Note_on_c, 0, 77, 75
2, 7409, Note_on_c, 0, 77, 0
2, 7410, Note_on_c, 0, 81, 75
2, 7425, Note_on_c, 0, 81, 0
2, 7426, Note_on_c, 0, 79, 75
2, 7441, Note_on_c, 0, 79, 0
2, 7442, Note_on_c, 0, 77, 75
2, 7457, Note_on_c, 0, 77, 0
2, 7458, Note_on_c, 0, 76, 75
2, 7473, Note_on_c, 0, 76, 0
2, 7474, Note_on_c, 0, 77, 75
2, 7489, Note_on_c, 0, 77, 0
2, 7490, Note_on_c, 0, 79, 75
2, 7506, Note_on_c, 0, 79, 0
2, 7507, Note_on_c, 0, 78, 75
2, 7513, Note_on_c, 0, 78, 0
2, 7513, Note_on_c, 0, 79, 75
2, 7519, Note_on_c, 0, 79, 0
2, 7519, Note_on_c, 0, 78, 75
2, 7525, Note_on_c, 0, 78, 0
2, 7525, Note_on_c, 0, 79, 75
2, 7531, Note_on_c, 0, 79, 0
2, 7531, Note_on_c, 0, 78, 75
2, 7537, Note_on_c, 0, 78, 0
2, 7537, Note_on_c, 0, 79, 75
2, 7542, Note_on_c, 0, 79, 0
2, 7542, Note_on_c, 0, 78, 75
2, 7547, Note_on_c, 0, 78, 0
2, 7547, Note_on_c, 0, 79, 75
2, 7552, Note_on_c, 0, 79, 0
2, 7552, Note_on_c, 0, 78, 75
2, 7557, Note_on_c, 0, 78, 0
2, 7557, Note_on_c, 0, 79, 75
2, 7562, Note_on_c, 0, 79, 0
2, 7562, Note_on_c, 0, 78, 75
2, 7567, Note_on_c, 0, 78, 0
2, 7567, Note_on_c, 0, 79, 75
2, 7572, Note_on_c, 0, 79, 0
2, 7572, Note_on_c, 0, 78, 75
2, 7577, Note_on_c, 0, 78, 0
2, 7577, Note_on_c, 0, 76, 75
2, 7582, Note_on_c, 0, 76, 0
2, 7582, Note_on_c, 0, 78, 75
2, 7587, Note_on_c, 0, 78, 0
2, 7587, Note_on_c, 0, 79, 75
2, 7602, Note_on_c, 0, 79, 0
2, 7603, Note_on_c, 0, 78, 75
2, 7618, Note_on_c, 0, 78, 0
2, 7619, Note_on_c, 0, 79, 75
2, 7634, Note_on_c, 0, 79, 0
2, 7635, Note_on_c, 0, 81, 76
2, 7650, Note_on_c, 0, 81, 0
2, 7651, Note_on_c, 0, 78, 76
2, 7666, Note_on_c, 0, 78, 0
2, 7667, Note_on_c, 0, 74, 76
2, 7682, Note_on_c, 0, 74, 0
2, 7683, Note_on_c, 0, 82, 77
2, 7698, Note_on_c, 0, 82, 0
2, 7699, Note_on_c, 0, 81, 77
2, 7714, Note_on_c, 0, 81, 0
2, 7715, Note_on_c, 0, 82, 78
2, 7730, Note_on_c, 0, 82, 0
2, 7731, Note_on_c, 0, 86, 78
2, 7746, Note_on_c, 0, 86, 0
2, 7747, Note_on_c, 0, 84, 78
2, 7762, Note_on_c, 0, 84, 0
2, 7763, Note_on_c, 0, 82, 79
2, 7778, Note_on_c, 0, 82, 0
2, 7779, Note_on_c, 0, 84, 81
2, 7784, Note_on_c, 0, 84, 0
2, 7784, Note_on_c, 0, 82, 81
2, 7789, Note_on_c, 0, 82, 0
2, 7789, Note_on_c, 0, 84, 81
2, 7794, Note_on_c, 0, 84, 0
2, 7794, Note_on_c, 0, 82, 81
2, 7799, Note_on_c, 0, 82, 0
2, 7799, Note_on_c, 0, 84, 81
2, 7804, Note_on_c, 0, 84, 0
2, 7804, Note_on_c, 0, 82, 81
2, 7809, Note_on_c, 0, 82, 0
2, 7809, Note_on_c, 0, 84, 81
2, 7814, Note_on_c, 0, 84, 0
2, 7814, Note_on_c, 0, 82, 81
2, 7819, Note_on_c, 0, 82, 0
2, 7819, Note_on_c, 0, 81, 81
2, 7823, Note_on_c, 0, 81, 0
2, 7823, Note_on_c, 0, 82, 81
2, 7827, Note_on_c, 0, 82, 0
2, 7827, Note_on_c, 0, 81, 75
2, 7872, Note_on_c, 0, 81, 0
2, 7875, Note_on_c, 0, 74, 75
2, 7890, Note_on_c, 0, 74, 0
2, 7891, Note_on_c, 0, 78, 76
2, 7906, Note_on_c, 0, 78, 0
2, 7907, Note_on_c, 0, 79, 78
2, 7922, Note_on_c, 0, 79, 0
2, 7923, Note_on_c, 0, 81, 79
2, 7938, Note_on_c, 0, 81, 0
2, 7939, Note_on_c, 0, 78, 81
2, 7954, Note_on_c, 0, 78, 0
2, 7955, Note_on_c, 0, 74, 79
2, 7962, Note_on_c, 0, 74, 0
2, 7971, Note_on_c, 0, 70, 75
2, 7986, Note_on_c, 0, 70, 0
2, 7987, Note_on_c, 0, 75, 75
2, 8002, Note_on_c, 0, 75, 0
2, 8003, Note_on_c, 0, 74, 75
2, 8018, Note_on_c, 0, 74, 0
2, 8019, Note_on_c, 0, 75, 75
2, 8024, Note_on_c, 0, 75, 0
2, 8024, Note_on_c, 0, 74, 75
2, 8029, Note_on_c, 0, 74, 0
2, 8029, Note_on_c, 0, 75, 75
2, 8034, Note_on_c, 0, 75, 0
2, 8034, Note_on_c, 0, 74, 75
2, 8039, Note_on_c, 0, 74, 0
2, 8039, Note_on_c, 0, 75, 75
2, 8044, Note_on_c, 0, 75, 0
2, 8044, Note_on_c, 0, 74, 75
2, 8049, Note_on_c, 0, 74, 0
2, 8049, Note_on_c, 0, 75, 75
2, 8054, Note_on_c, 0, 75, 0
2, 8054, Note_on_c, 0, 74, 75
2, 8059, Note_on_c, 0, 74, 0
2, 8059, Note_on_c, 0, 75, 75
2, 8063, Note_on_c, 0, 75, 0
2, 8063, Note_on_c, 0, 74, 75
2, 8082, Note_on_c, 0, 74, 0
2, 8083, Note_on_c, 0, 78, 76
2, 8098, Note_on_c, 0, 78, 0
2, 8099, Note_on_c, 0, 79, 78
2, 8114, Note_on_c, 0, 79, 0
2, 8115, Note_on_c, 0, 81, 79
2, 8130, Note_on_c, 0, 81, 0
2, 8131, Note_on_c, 0, 78, 81
2, 8146, Note_on_c, 0, 78, 0
2, 8147, Note_on_c, 0, 72, 79
2, 8162, Note_on_c, 0, 72, 0
2, 8163, Note_on_c, 0, 70, 75
2, 8178, Note_on_c, 0, 70, 0
2, 8179, Note_on_c, 0, 75, 75
2, 8194, Note_on_c, 0, 75, 0
2, 8195, Note_on_c, 0, 74, 75
2, 8210, Note_on_c, 0, 74, 0
2, 8211, Note_on_c, 0, 75, 75
2, 8216, Note_on_c, 0, 75, 0
2, 8216, Note_on_c, 0, 74, 75
2, 8221, Note_on_c, 0, 74, 0
2, 8221, Note_on_c, 0, 75, 75
2, 8226, Note_on_c, 0, 75, 0
2, 8226, Note_on_c, 0, 74, 75
2, 8231, Note_on_c, 0, 74, 0
2, 8231, Note_on_c, 0, 75, 75
2, 8236, Note_on_c, 0, 75, 0
2, 8236, Note_on_c, 0, 74, 75
2, 8241, Note_on_c, 0, 74, 0
2, 8241, Note_on_c, 0, 75, 75
2, 8246, Note_on_c, 0, 75, 0
2, 8246, Note_on_c, 0, 74, 75
2, 8251, Note_on_c, 0, 74, 0
2, 8251, Note_on_c, 0, 75, 75
2, 8255, Note_on_c, 0, 75, 0
2, 8255, Note_on_c, 0, 74, 75
2, 8274, Note_on_c, 0, 74, 0
2, 8275, Note_on_c, 0, 78, 76
2, 8290, Note_on_c, 0, 78, 0
2, 8291, Note_on_c, 0, 79, 78
2, 8306, Note_on_c, 0, 79, 0
2, 8307, Note_on_c, 0, 81, 79
2, 8322, Note_on_c, 0, 81, 0
2, 8323, Note_on_c, 0, 78, 81
2, 8338, Note_on_c, 0, 78, 0
2, 8339, Note_on_c, 0, 72, 79
2, 8354, Note_on_c, 0, 72, 0
2, 8355, Note_on_c, 0, 70, 75
2, 8370, Note_on_c, 0, 70, 0
2, 8371, Note_on_c, 0, 79, 75
2, 8386, Note_on_c, 0, 79, 0
2, 8387, Note_on_c, 0, 74, 75
2, 8402, Note_on_c, 0, 74, 0
2, 8403, Note_on_c, 0, 75, 75
2, 8418, Note_on_c, 0, 75, 0
2, 8419, Note_on_c, 0, 72, 75
2, 8434, Note_on_c, 0, 72, 0
2, 8435, Note_on_c, 0, 69, 75
2, 8450, Note_on_c, 0, 69, 0
2, 8451, Note_on_c, 0, 67, 75
2, 8496, Note_on_c, 0, 67, 0
2, 8499, Note_on_c, 0, 66, 75
2, 8505, Note_on_c, 0, 66, 0
2, 8505, Note_on_c, 0, 67, 75
2, 8511, Note_on_c, 0, 67, 0
2, 8511, Note_on_c, 0, 66, 75
2, 8517, Note_on_c, 0, 66, 0
2, 8517, Note_on_c, 0, 67, 75
2, 8522, Note_on_c, 0, 67, 0
2, 8522, Note_on_c, 0, 66, 75
2, 8527, Note_on_c, 0, 66, 0
2, 8527, Note_on_c, 0, 67, 75
2, 8532, Note_on_c, 0, 67, 0
2, 8532, Note_on_c, 0, 66, 75
2, 8537, Note_on_c, 0, 66, 0
2, 8537, Note_on_c, 0, 64, 75
2, 8542, Note_on_c, 0, 64, 0
2, 8542, Note_on_c, 0, 66, 75
2, 8547, Note_on_c, 0, 66, 0
2, 8547, Note_on_c, 0, 74, 66
2, 8553, Note_on_c, 0, 74, 0
2, 8553, Note_on_c, 0, 75, 66
2, 8559, Note_on_c, 0, 75, 0
2, 8559, Note_on_c, 0, 74, 66
2, 8565, Note_on_c, 0, 74, 0
2, 8565, Note_on_c, 0, 75, 66
2, 8571, Note_on_c, 0, 75, 0
2, 8571, Note_on_c, 0, 74, 66
2, 8577, Note_on_c, 0, 74, 0
2, 8577, Note_on_c, 0, 75, 66
2, 8583, Note_on_c, 0, 75, 0
2, 8583, Note_on_c, 0, 74, 66
2, 8589, Note_on_c, 0, 74, 0
2, 8589, Note_on_c, 0, 75, 66
2, 8595, Note_on_c, 0, 75, 0
2, 8595, Note_on_c, 0, 74, 66
2, 8601, Note_on_c, 0, 74, 0
2, 8601, Note_on_c, 0, 75, 66
2, 8607, Note_on_c, 0, 75, 0
2, 8607, Note_on_c, 0, 74, 66
2, 8613, Note_on_c, 0, 74, 0
2, 8613, Note_on_c, 0, 75, 66
2, 8619, Note_on_c, 0, 75, 0
2, 8619, Note_on_c, 0, 74, 66
2, 8625, Note_on_c, 0, 74, 0
2, 8625, Note_on_c, 0, 75, 66
2, 8631, Note_on_c, 0, 75, 0
2, 8631, Note_on_c, 0, 74, 66
2, 8637, Note_on_c, 0, 74, 0
2, 8637, Note_on_c, 0, 75, 66
2, 8643, Note_on_c, 0, 75, 0
2, 8643, Note_on_c, 0, 74, 66
2, 8649, Note_on_c, 0, 74, 0
2, 8649, Note_on_c, 0, 75, 66
2, 8655, Note_on_c, 0, 75, 0
2, 8655, Note_on_c, 0, 74, 66
2, 8661, Note_on_c, 0, 74, 0
2, 8661, Note_on_c, 0, 75, 66
2, 8667, Note_on_c, 0, 75, 0
2, 8667, Note_on_c, 0, 74, 66
2, 8673, Note_on_c, 0, 74, 0
2, 8673, Note_on_c, 0, 75, 66
2, 8679, Note_on_c, 0, 75, 0
2, 8679, Note_on_c, 0, 74, 66
2, 8685, Note_on_c, 0, 74, 0
2, 8685, Note_on_c, 0, 75, 66
2, 8691, Note_on_c, 0, 75, 0
2, 8691, Note_on_c, 0, 74, 66
2, 8697, Note_on_c, 0, 74, 0
2, 8697, Note_on_c, 0, 75, 66
2, 8703, Note_on_c, 0, 75, 0
2, 8703, Note_on_c, 0, 74, 66
2, 8709, Note_on_c, 0, 74, 0
2, 8709, Note_on_c, 0, 75, 66
2, 8715, Note_on_c, 0, 75, 0
2, 8715, Note_on_c, 0, 74, 66
2, 8721, Note_on_c, 0, 74, 0
2, 8721, Note_on_c, 0, 75, 66
2, 8727, Note_on_c, 0, 75, 0
2, 8727, Note_on_c, 0, 74, 66
2, 8733, Note_on_c, 0, 74, 0
2, 8733, Note_on_c, 0, 75, 66
2, 8739, Note_on_c, 0, 75, 0
2, 8739, Note_on_c, 0, 74, 66
2, 8745, Note_on_c, 0, 74, 0
2, 8745, Note_on_c, 0, 75, 66
2, 8751, Note_on_c, 0, 75, 0
2, 8751, Note_on_c, 0, 74, 66
2, 8757, Note_on_c, 0, 74, 0
2, 8757, Note_on_c, 0, 75, 66
2, 8763, Note_on_c, 0, 75, 0
2, 8763, Note_on_c, 0, 74, 66
2, 8769, Note_on_c, 0, 74, 0
2, 8769, Note_on_c, 0, 75, 66
2, 8775, Note_on_c, 0, 75, 0
2, 8775, Note_on_c, 0, 74, 66
2, 8781, Note_on_c, 0, 74, 0
2, 8781, Note_on_c, 0, 75, 66
2, 8787, Note_on_c, 0, 75, 0
2, 8787, Note_on_c, 0, 74, 66
2, 8793, Note_on_c, 0, 74, 0
2, 8793, Note_on_c, 0, 75, 66
2, 8799, Note_on_c, 0, 75, 0
2, 8799, Note_on_c, 0, 74, 66
2, 8805, Note_on_c, 0, 74, 0
2, 8805, Note_on_c, 0, 75, 66
2, 8811, Note_on_c, 0, 75, 0
2, 8811, Note_on_c, 0, 74, 66
2, 8817, Note_on_c, 0, 74, 0
2, 8817, Note_on_c, 0, 75, 66
2, 8823, Note_on_c, 0, 75, 0
2, 8823, Note_on_c, 0, 74, 66
2, 8829, Note_on_c, 0, 74, 0
2, 8829, Note_on_c, 0, 75, 66
2, 8835, Note_on_c, 0, 75, 0
2, 8835, Note_on_c, 0, 74, 66
2, 8841, Note_on_c, 0, 74, 0
2, 8841, Note_on_c, 0, 75, 66
2, 8847, Note_on_c, 0, 75, 0
2, 8847, Note_on_c, 0, 74, 66
2, 8853, Note_on_c, 0, 74, 0
2, 8853, Note_on_c, 0, 75, 66
2, 8859, Note_on_c, 0, 75, 0
2, 8859, Note_on_c, 0, 74, 66
2, 8865, Note_on_c, 0, 74, 0
2, 8865, Note_on_c, 0, 75, 66
2, 8871, Note_on_c, 0, 75, 0
2, 8871, Note_on_c, 0, 74, 66
2, 8877, Note_on_c, 0, 74, 0
2, 8877, Note_on_c, 0, 75, 66
2, 8883, Note_on_c, 0, 75, 0
2, 8883, Note_on_c, 0, 74, 66
2, 8889, Note_on_c, 0, 74, 0
2, 8889, Note_on_c, 0, 75, 66
2, 8895, Note_on_c, 0, 75, 0
2, 8895, Note_on_c, 0, 74, 66
2, 8901, Note_on_c, 0, 74, 0
2, 8901, Note_on_c, 0, 75, 66
2, 8907, Note_on_c, 0, 75, 0
2, 8907, Note_on_c, 0, 74, 66
2, 8913, Note_on_c, 0, 74, 0
2, 8913, Note_on_c, 0, 75, 66
2, 8919, Note_on_c, 0, 75, 0
2, 8919, Note_on_c, 0, 74, 66
2, 8925, Note_on_c, 0, 74, 0
2, 8925, Note_on_c, 0, 75, 66
2, 8931, Note_on_c, 0, 75, 0
2, 8931, Note_on_c, 0, 74, 66
2, 8937, Note_on_c, 0, 74, 0
2, 8937, Note_on_c, 0, 75, 66
2, 8943, Note_on_c, 0, 75, 0
2, 8943, Note_on_c, 0, 74, 66
2, 8949, Note_on_c, 0, 74, 0
2, 8949, Note_on_c, 0, 75, 66
2, 8955, Note_on_c, 0, 75, 0
2, 8955, Note_on_c, 0, 74, 66
2, 8961, Note_on_c, 0, 74, 0
2, 8961, Note_on_c, 0, 75, 66
2, 8967, Note_on_c, 0, 75, 0
2, 8967, Note_on_c, 0, 74, 66
2, 8973, Note_on_c, 0, 74, 0
2, 8973, Note_on_c, 0, 75, 66
2, 8979, Note_on_c, 0, 75, 0
2, 8979, Note_on_c, 0, 74, 66
2, 8985, Note_on_c, 0, 74, 0
2, 8985, Note_on_c, 0, 75, 66
2, 8991, Note_on_c, 0, 75, 0
2, 8991, Note_on_c, 0, 74, 66
2, 8997, Note_on_c, 0, 74, 0
2, 8997, Note_on_c, 0, 75, 66
2, 9003, Note_on_c, 0, 75, 0
2, 9003, Note_on_c, 0, 74, 66
2, 9009, Note_on_c, 0, 74, 0
2, 9009, Note_on_c, 0, 75, 66
2, 9015, Note_on_c, 0, 75, 0
2, 9015, Note_on_c, 0, 74, 66
2, 9021, Note_on_c, 0, 74, 0
2, 9021, Note_on_c, 0, 75, 66
2, 9027, Note_on_c, 0, 75, 0
2, 9027, Note_on_c, 0, 74, 66
2, 9033, Note_on_c, 0, 74, 0
2, 9033, Note_on_c, 0, 75, 66
2, 9039, Note_on_c, 0, 75, 0
2, 9039, Note_on_c, 0, 74, 66
2, 9045, Note_on_c, 0, 74, 0
2, 9045, Note_on_c, 0, 75, 66
2, 9051, Note_on_c, 0, 75, 0
2, 9051, Note_on_c, 0, 74, 66
2, 9057, Note_on_c, 0, 74, 0
2, 9057, Note_on_c, 0, 75, 66
2, 9063, Note_on_c, 0, 75, 0
2, 9063, Note_on_c, 0, 74, 66
2, 9069, Note_on_c, 0, 74, 0
2, 9069, Note_on_c, 0, 75, 66
2, 9075, Note_on_c, 0, 75, 0
2, 9075, Note_on_c, 0, 74, 66
2, 9081, Note_on_c, 0, 74, 0
2, 9081, Note_on_c, 0, 75, 66
2, 9087, Note_on_c, 0, 75, 0
2, 9087, Note_on_c, 0, 74, 66
2, 9093, Note_on_c, 0, 74, 0
2, 9093, Note_on_c, 0, 75, 66
2, 9099, Note_on_c, 0, 75, 0
2, 9099, Note_on_c, 0, 74, 66
2, 9105, Note_on_c, 0, 74, 0
2, 9105, Note_on_c, 0, 75, 66
2, 9111, Note_on_c, 0, 75, 0
2, 9111, Note_on_c, 0, 74, 66
2, 9117, Note_on_c, 0, 74, 0
2, 9117, Note_on_c, 0, 75, 66
2, 9123, Note_on_c, 0, 75, 0
2, 9123, Note_on_c, 0, 74, 66
2, 9129, Note_on_c, 0, 74, 0
2, 9129, Note_on_c, 0, 75, 66
2, 9135, Note_on_c, 0, 75, 0
2, 9135, Note_on_c, 0, 74, 66
2, 9138, Note_on_c, 0, 74, 0
2, 9139, Note_on_c, 0, 82, 75
2, 9139, Note_on_c, 0, 79, 75
2, 9154, Note_on_c, 0, 82, 0
2, 9154, Note_on_c, 0, 79, 0
2, 9155, Note_on_c, 0, 82, 75
2, 9155, Note_on_c, 0, 79, 75
2, 9170, Note_on_c, 0, 82, 0
2, 9170, Note_on_c, 0, 79, 0
2, 9171, Note_on_c, 0, 82, 75
2, 9171, Note_on_c, 0, 79, 75
2, 9186, Note_on_c, 0, 82, 0
2, 9186, Note_on_c, 0, 79, 0
2, 9187, Note_on_c, 0, 79, 75
2, 9187, Note_on_c, 0, 70, 75
2, 9202, Note_on_c, 0, 79, 0
2, 9202, Note_on_c, 0, 70, 0
2, 9203, Note_on_c, 0, 79, 75
2, 9203, Note_on_c, 0, 70, 75
2, 9218, Note_on_c, 0, 79, 0
2, 9218, Note_on_c, 0, 70, 0
2, 9235, Note_on_c, 0, 75, 75
2, 9235, Note_on_c, 0, 72, 75
2, 9250, Note_on_c, 0, 75, 0
2, 9250, Note_on_c, 0, 72, 0
2, 9251, Note_on_c, 0, 75, 75
2, 9251, Note_on_c, 0, 72, 75
2, 9266, Note_on_c, 0, 75, 0
2, 9266, Note_on_c, 0, 72, 0
2, 9267, Note_on_c, 0, 75, 75
2, 9267, Note_on_c, 0, 72, 75
2, 9282, Note_on_c, 0, 75, 0
2, 9282, Note_on_c, 0, 72, 0
2, 9283, Note_on_c, 0, 72, 75
2, 9283, Note_on_c, 0, 69, 75
2, 9298, Note_on_c, 0, 72, 0
2, 9298, Note_on_c, 0, 69, 0
2, 9299, Note_on_c, 0, 72, 75
2, 9299, Note_on_c, 0, 69, 75
2, 9314, Note_on_c, 0, 72, 0
2, 9314, Note_on_c, 0, 69, 0
2, 9315, Note_on_c, 0, 70, 75
2, 9382, Note_on_c, 0, 70, 0
2, 9387, Note_on_c, 0, 69, 75
2, 9399, Note_on_c, 0, 69, 0
2, 9399, Note_on_c, 0, 67, 75
2, 9411, Note_on_c, 0, 67, 0
2, 9411, Note_on_c, 0, 70, 75
2, 9417, Note_on_c, 0, 70, 0
2, 9417, Note_on_c, 0, 69, 75
2, 9423, Note_on_c, 0, 69, 0
2, 9423, Note_on_c, 0, 70, 75
2, 9429, Note_on_c, 0, 70, 0
2, 9429, Note_on_c, 0, 69, 75
2, 9435, Note_on_c, 0, 69, 0
2, 9435, Note_on_c, 0, 70, 75
2, 9441, Note_on_c, 0, 70, 0
2, 9441, Note_on_c, 0, 69, 75
2, 9447, Note_on_c, 0, 69, 0
2, 9447, Note_on_c, 0, 70, 75
2, 9452, Note_on_c, 0, 70, 0
2, 9452, Note_on_c, 0, 69, 75
2, 9457, Note_on_c, 0, 69, 0
2, 9457, Note_on_c, 0, 70, 75
2, 9462, Note_on_c, 0, 70, 0
2, 9462, Note_on_c, 0, 69, 75
2, 9467, Note_on_c, 0, 69, 0
2, 9467, Note_on_c, 0, 70, 75
2, 9472, Note_on_c, 0, 70, 0
2, 9472, Note_on_c, 0, 69, 75
2, 9477, Note_on_c, 0, 69, 0
2, 9477, Note_on_c, 0, 70, 75
2, 9482, Note_on_c, 0, 70, 0
2, 9482, Note_on_c, 0, 69, 75
2, 9487, Note_on_c, 0, 69, 0
2, 9487, Note_on_c, 0, 67, 75
2, 9497, Note_on_c, 0, 67, 0
2, 9497, Note_on_c, 0, 69, 75
2, 9507, Note_on_c, 0, 69, 0
2, 9507, Note_on_c, 0, 67, 75
2, 9554, Note_on_c, 0, 67, 0
2, 9555, Note_on_c, 0, 67, 75
2, 9561, Note_on_c, 0, 67, 0
2, 9561, Note_on_c, 0, 69, 75
2, 9567, Note_on_c, 0, 69, 0
2, 9567, Note_on_c, 0, 67, 75
2, 9570, Note_on_c, 0, 67, 0
2, 9571, Note_on_c, 0, 66, 75
2, 9586, Note_on_c, 0, 66, 0
2, 9587, Note_on_c, 0, 67, 75
2, 9602, Note_on_c, 0, 67, 0
2, 9603, Note_on_c, 0, 67, 75
2, 9609, Note_on_c, 0, 67, 0
2, 9609, Note_on_c, 0, 69, 75
2, 9615, Note_on_c, 0, 69, 0
2, 9615, Note_on_c, 0, 67, 75
2, 9618, Note_on_c, 0, 67, 0
2, 9619, Note_on_c, 0, 66, 75
2, 9634, Note_on_c, 0, 66, 0
2, 9635, Note_on_c, 0, 67, 75
2, 9650, Note_on_c, 0, 67, 0
2, 9651, Note_on_c, 0, 67, 75
2, 9657, Note_on_c, 0, 67, 0
2, 9657, Note_on_c, 0, 69, 75
2, 9663, Note_on_c, 0, 69, 0
2, 9663, Note_on_c, 0, 67, 75
2, 9666, Note_on_c, 0, 67, 0
2, 9667, Note_on_c, 0, 66, 75
2, 9682, Note_on_c, 0, 66, 0
2, 9683, Note_on_c, 0, 67, 75
2, 9698, Note_on_c, 0, 67, 0
2, 9699, Note_on_c, 0, 67, 75
2, 9777, Note_on_c, 0, 67, 0
2, 9783, Note_on_c, 0, 62, 75
2, 9807, Note_on_c, 0, 62, 0
2, 9807, Note_on_c, 0, 64, 75
2, 9813, Note_on_c, 0, 64, 0
2, 9813, Note_on_c, 0, 66, 75
2, 9819, Note_on_c, 0, 66, 0
2, 9819, Note_on_c, 0, 67, 75
2, 9825, Note_on_c, 0, 67, 0
2, 9825, Note_on_c, 0, 69, 75
2, 9831, Note_on_c, 0, 69, 0
2, 9831, Note_on_c, 0, 70, 75
2, 9837, Note_on_c, 0, 70, 0
2, 9837, Note_on_c, 0, 72, 75
2, 9843, Note_on_c, 0, 72, 0
2, 9843, Note_on_c, 0, 74, 75
2, 9849, Note_on_c, 0, 74, 0
2, 9849, Note_on_c, 0, 76, 75
2, 9855, Note_on_c, 0, 76, 0
2, 9855, Note_on_c, 0, 78, 75
2, 9861, Note_on_c, 0, 78, 0
2, 9861, Note_on_c, 0, 79, 75
2, 9867, Note_on_c, 0, 79, 0
2, 9867, Note_on_c, 0, 81, 75
2, 9873, Note_on_c, 0, 81, 0
2, 9873, Note_on_c, 0, 82, 75
2, 9879, Note_on_c, 0, 82, 0
2, 9879, Note_on_c, 0, 84, 75
2, 9885, Note_on_c, 0, 84, 0
2, 9885, Note_on_c, 0, 86, 75
2, 9936, Note_on_c, 0, 86, 0
2, 9939, Note_on_c, 0, 84, 75
2, 9951, Note_on_c, 0, 84, 0
2, 9951, Note_on_c, 0, 82, 75
2, 9963, Note_on_c, 0, 82, 0
2, 9963, Note_on_c, 0, 81, 75
2, 9975, Note_on_c, 0, 81, 0
2, 9975, Note_on_c, 0, 79, 75
2, 9987, Note_on_c, 0, 79, 0
2, 9987, Note_on_c, 0, 82, 75
2, 9993, Note_on_c, 0, 82, 0
2, 9993, Note_on_c, 0, 81, 75
2, 9999, Note_on_c, 0, 81, 0
2, 9999, Note_on_c, 0, 82, 75
2, 10005, Note_on_c, 0, 82, 0
2, 10005, Note_on_c, 0, 81, 75
2, 10011, Note_on_c, 0, 81, 0
2, 10011, Note_on_c, 0, 82, 75
2, 10017, Note_on_c, 0, 82, 0
2, 10017, Note_on_c, 0, 81, 75
2, 10023, Note_on_c, 0, 81, 0
2, 10023, Note_on_c, 0, 82, 75
2, 10029, Note_on_c, 0, 82, 0
2, 10029, Note_on_c, 0, 81, 75
2, 10035, Note_on_c, 0, 81, 0
2, 10035, Note_on_c, 0, 82, 75
2, 10041, Note_on_c, 0, 82, 0
2, 10041, Note_on_c, 0, 81, 75
2, 10047, Note_on_c, 0, 81, 0
2, 10047, Note_on_c, 0, 82, 75
2, 10053, Note_on_c, 0, 82, 0
2, 10053, Note_on_c, 0, 81, 75
2, 10059, Note_on_c, 0, 81, 0
2, 10059, Note_on_c, 0, 82, 75
2, 10064, Note_on_c, 0, 82, 0
2, 10064, Note_on_c, 0, 81, 75
2, 10069, Note_on_c, 0, 81, 0
2, 10069, Note_on_c, 0, 82, 75
2, 10074, Note_on_c, 0, 82, 0
2, 10074, Note_on_c, 0, 81, 75
2, 10079, Note_on_c, 0, 81, 0
2, 10079, Note_on_c, 0, 82, 75
2, 10084, Note_on_c, 0, 82, 0
2, 10084, Note_on_c, 0, 81, 75
2, 10089, Note_on_c, 0, 81, 0
2, 10089, Note_on_c, 0, 82, 75
2, 10094, Note_on_c, 0, 82, 0
2, 10094, Note_on_c, 0, 81, 75
2, 10099, Note_on_c, 0, 81, 0
2, 10099, Note_on_c, 0, 82, 75
2, 10104, Note_on_c, 0, 82, 0
2, 10104, Note_on_c, 0, 81, 75
2, 10109, Note_on_c, 0, 81, 0
2, 10109, Note_on_c, 0, 82, 75
2, 10114, Note_on_c, 0, 82, 0
2, 10114, Note_on_c, 0, 81, 75
2, 10119, Note_on_c, 0, 81, 0
2, 10119, Note_on_c, 0, 82, 75
2, 10124, Note_on_c, 0, 82, 0
2, 10124, Note_on_c, 0, 81, 75
2, 10129, Note_on_c, 0, 81, 0
2, 10129, Note_on_c, 0, 82, 75
2, 10134, Note_on_c, 0, 82, 0
2, 10134, Note_on_c, 0, 81, 75
2, 10139, Note_on_c, 0, 81, 0
2, 10139, Note_on_c, 0, 82, 75
2, 10144, Note_on_c, 0, 82, 0
2, 10144, Note_on_c, 0, 81, 75
2, 10149, Note_on_c, 0, 81, 0
2, 10149, Note_on_c, 0, 82, 75
2, 10154, Note_on_c, 0, 82, 0
2, 10154, Note_on_c, 0, 81, 75
2, 10159, Note_on_c, 0, 81, 0
2, 10159, Note_on_c, 0, 79, 75
2, 10169, Note_on_c, 0, 79, 0
2, 10169, Note_on_c, 0, 81, 75
2, 10179, Note_on_c, 0, 81, 0
2, 10179, Note_on_c, 0, 79, 75
2, 10268, Note_on_c, 0, 79, 0
2, 10563, End_track
3, 0, Start_track
3, 0, Program_c, 0, 0
3, 0, Control_c, 0, 7, 127
3, 0, Control_c, 0, 10, 64
3, 10560, End_track
4, 0, Start_track
4, 0, Program_c, 1, 0
4, 0, Control_c, 1, 7, 127
4, 0, Control_c, 1, 10, 64
4, 384, Note_on_c, 1, 62, 66
4, 384, Note_on_c, 1, 58, 66
4, 384, Note_on_c, 1, 55, 66
4, 429, Note_on_c, 1, 62, 0
4, 429, Note_on_c, 1, 58, 0
4, 429, Note_on_c, 1, 55, 0
4, 432, Note_on_c, 1, 62, 66
4, 432, Note_on_c, 1, 58, 66
4, 432, Note_on_c, 1, 55, 66
4, 477, Note_on_c, 1, 62, 0
4, 477, Note_on_c, 1, 58, 0
4, 477, Note_on_c, 1, 55, 0
4, 480, Note_on_c, 1, 62, 66
4, 480, Note_on_c, 1, 58, 66
4, 480, Note_on_c, 1, 55, 66
4, 525, Note_on_c, 1, 62, 0
4, 525, Note_on_c, 1, 58, 0
4, 525, Note_on_c, 1, 55, 0
4, 528, Note_on_c, 1, 62, 66
4, 528, Note_on_c, 1, 58, 66
4, 528, Note_on_c, 1, 55, 66
4, 573, Note_on_c, 1, 62, 0
4, 573, Note_on_c, 1, 58, 0
4, 573, Note_on_c, 1, 55, 0
4, 576, Note_on_c, 1, 60, 66
4, 576, Note_on_c, 1, 55, 66
4, 621, Note_on_c, 1, 60, 0
4, 621, Note_on_c, 1, 55, 0
4, 624, Note_on_c, 1, 58, 66
4, 624, Note_on_c, 1, 55, 66
4, 669, Note_on_c, 1, 58, 0
4, 669, Note_on_c, 1, 55, 0
4, 672, Note_on_c, 1, 58, 66
4, 672, Note_on_c, 1, 55, 66
4, 717, Note_on_c, 1, 58, 0
4, 717, Note_on_c, 1, 55, 0
4, 720, Note_on_c, 1, 58, 66
4, 720, Note_on_c, 1, 55, 66
4, 765, Note_on_c, 1, 58, 0
4, 765, Note_on_c, 1, 55, 0
4, 768, Note_on_c, 1, 62, 66
4, 768, Note_on_c, 1, 57, 66
4, 768, Note_on_c, 1, 54, 66
4, 813, Note_on_c, 1, 62, 0
4, 813, Note_on_c, 1, 57, 0
4, 813, Note_on_c, 1, 54, 0
4, 816, Note_on_c, 1, 62, 66
4, 816, Note_on_c, 1, 57, 66
4, 816, Note_on_c, 1, 54, 66
4, 861, Note_on_c, 1, 62, 0
4, 861, Note_on_c, 1, 57, 0
4, 861, Note_on_c, 1, 54, 0
4, 864, Note_on_c, 1, 62, 66
4, 864, Note_on_c, 1, 57, 66
4, 864, Note_on_c, 1, 54, 66
4, 909, Note_on_c, 1, 62, 0
4, 909, Note_on_c, 1, 57, 0
4, 909, Note_on_c, 1, 54, 0
4, 912, Note_on_c, 1, 62, 66
4, 912, Note_on_c, 1, 57, 66
4, 912, Note_on_c, 1, 54, 66
4, 957, Note_on_c, 1, 62, 0
4, 957, Note_on_c, 1, 57, 0
4, 957, Note_on_c, 1, 54, 0
4, 960, Note_on_c, 1, 62, 66
4, 960, Note_on_c, 1, 58, 66
4, 960, Note_on_c, 1, 55, 66
4, 1005, Note_on_c, 1, 62, 0
4, 1005, Note_on_c, 1, 58, 0
4, 1005, Note_on_c, 1, 55, 0
4, 1008, Note_on_c, 1, 62, 66
4, 1008, Note_on_c, 1, 58, 66
4, 1008, Note_on_c, 1, 55, 66
4, 1053, Note_on_c, 1, 62, 0
4, 1053, Note_on_c, 1, 58, 0
4, 1053, Note_on_c, 1, 55, 0
4, 1056, Note_on_c, 1, 62, 66
4, 1056, Note_on_c, 1, 58, 66
4, 1056, Note_on_c, 1, 55, 66
4, 1101, Note_on_c, 1, 62, 0
4, 1101, Note_on_c, 1, 58, 0
4, 1101, Note_on_c, 1, 55, 0
4, 1104, Note_on_c, 1, 62, 66
4, 1104, Note_on_c, 1, 58, 66
4, 1104, Note_on_c, 1, 55, 66
4, 1149, Note_on_c, 1, 62, 0
4, 1149, Note_on_c, 1, 58, 0
4, 1149, Note_on_c, 1, 55, 0
4, 1152, Note_on_c, 1, 58, 66
4, 1152, Note_on_c, 1, 55, 66
4, 1197, Note_on_c, 1, 58, 0
4, 1197, Note_on_c, 1, 55, 0
4, 1200, Note_on_c, 1, 58, 66
4, 1200, Note_on_c, 1, 55, 66
4, 1245, Note_on_c, 1, 58, 0
4, 1245, Note_on_c, 1, 55, 0
4, 1248, Note_on_c, 1, 65, 66
4, 1248, Note_on_c, 1, 60, 66
4, 1248, Note_on_c, 1, 57, 66
4, 1293, Note_on_c, 1, 65, 0
4, 1293, Note_on_c, 1, 60, 0
4, 1293, Note_on_c, 1, 57, 0
4, 1296, Note_on_c, 1, 65, 66
4, 1296, Note_on_c, 1, 60, 66
4, 1296, Note_on_c, 1, 57, 66
4, 1341, Note_on_c, 1, 65, 0
4, 1341, Note_on_c, 1, 60, 0
4, 1341, Note_on_c, 1, 57, 0
4, 1344, Note_on_c, 1, 65, 66
4, 1344, Note_on_c, 1, 62, 66
4, 1344, Note_on_c, 1, 58, 66
4, 1389, Note_on_c, 1, 65, 0
4, 1389, Note_on_c, 1, 62, 0
4, 1389, Note_on_c, 1, 58, 0
4, 1392, Note_on_c, 1, 65, 66
4, 1392, Note_on_c, 1, 62, 66
4, 1392, Note_on_c, 1, 58, 66
4, 1437, Note_on_c, 1, 65, 0
4, 1437, Note_on_c, 1, 62, 0
4, 1437, Note_on_c, 1, 58, 0
4, 1440, Note_on_c, 1, 58, 66
4, 1440, Note_on_c, 1, 53, 66
4, 1440, Note_on_c, 1, 50, 66
4, 1485, Note_on_c, 1, 58, 0
4, 1485, Note_on_c, 1, 53, 0
4, 1485, Note_on_c, 1, 50, 0
4, 1488, Note_on_c, 1, 58, 66
4, 1488, Note_on_c, 1, 53, 66
4, 1488, Note_on_c, 1, 50, 66
4, 1533, Note_on_c, 1, 58, 0
4, 1533, Note_on_c, 1, 53, 0
4, 1533, Note_on_c, 1, 50, 0
4, 1536, Note_on_c, 1, 58, 66
4, 1536, Note_on_c, 1, 55, 66
4, 1536, Note_on_c, 1, 51, 66
4, 1581, Note_on_c, 1, 58, 0
4, 1581, Note_on_c, 1, 55, 0
4, 1581, Note_on_c, 1, 51, 0
4, 1584, Note_on_c, 1, 58, 67
4, 1584, Note_on_c, 1, 55, 67
4, 1584, Note_on_c, 1, 51, 67
4, 1629, Note_on_c, 1, 58, 0
4, 1629, Note_on_c, 1, 55, 0
4, 1629, Note_on_c, 1, 51, 0
4, 1632, Note_on_c, 1, 60, 68
4, 1632, Note_on_c, 1, 55, 68
4, 1632, Note_on_c, 1, 51, 68
4, 1677, Note_on_c, 1, 60, 0
4, 1677, Note_on_c, 1, 55, 0
4, 1677, Note_on_c, 1, 51, 0
4, 1680, Note_on_c, 1, 60, 70
4, 1680, Note_on_c, 1, 55, 70
4, 1680, Note_on_c, 1, 51, 70
4, 1725, Note_on_c, 1, 60, 0
4, 1725, Note_on_c, 1, 55, 0
4, 1725, Note_on_c, 1, 51, 0
4, 1728, Note_on_c, 1, 62, 68
4, 1728, Note_on_c, 1, 53, 68
4, 1776, Note_on_c, 1, 62, 0
4, 1776, Note_on_c, 1, 60, 67
4, 1821, Note_on_c, 1, 60, 0
4, 1821, Note_on_c, 1, 53, 0
4, 1824, Note_on_c, 1, 57, 66
4, 1824, Note_on_c, 1, 53, 66
4, 1869, Note_on_c, 1, 57, 0
4, 1869, Note_on_c, 1, 53, 0
4, 1872, Note_on_c, 1, 57, 66
4, 1872, Note_on_c, 1, 53, 66
4, 1917, Note_on_c, 1, 57, 0
4, 1917, Note_on_c, 1, 53, 0
4, 1920, Note_on_c, 1, 58, 66
4, 1920, Note_on_c, 1, 53, 66
4, 1965, Note_on_c, 1, 58, 0
4, 1965, Note_on_c, 1, 53, 0
4, 1968, Note_on_c, 1, 62, 66
4, 1968, Note_on_c, 1, 53, 66
4, 2013, Note_on_c, 1, 62, 0
4, 2013, Note_on_c, 1, 53, 0
4, 2016, Note_on_c, 1, 57, 66
4, 2016, Note_on_c, 1, 53, 66
4, 2061, Note_on_c, 1, 57, 0
4, 2061, Note_on_c, 1, 53, 0
4, 2064, Note_on_c, 1, 57, 66
4, 2064, Note_on_c, 1, 53, 66
4, 2109, Note_on_c, 1, 57, 0
4, 2109, Note_on_c, 1, 53, 0
4, 2112, Note_on_c, 1, 58, 66
4, 2112, Note_on_c, 1, 53, 66
4, 2157, Note_on_c, 1, 58, 0
4, 2157, Note_on_c, 1, 53, 0
4, 2160, Note_on_c, 1, 62, 66
4, 2160, Note_on_c, 1, 53, 66
4, 2205, Note_on_c, 1, 62, 0
4, 2205, Note_on_c, 1, 53, 0
4, 2208, Note_on_c, 1, 57, 66
4, 2208, Note_on_c, 1, 53, 66
4, 2253, Note_on_c, 1, 57, 0
4, 2253, Note_on_c, 1, 53, 0
4, 2256, Note_on_c, 1, 57, 66
4, 2256, Note_on_c, 1, 53, 66
4, 2301, Note_on_c, 1, 57, 0
4, 2301, Note_on_c, 1, 53, 0
4, 2304, Note_on_c, 1, 58, 66
4, 2304, Note_on_c, 1, 46, 66
4, 2349, Note_on_c, 1, 58, 0
4, 2349, Note_on_c, 1, 46, 0
4, 2352, Note_on_c, 1, 63, 66
4, 2352, Note_on_c, 1, 51, 66
4, 2397, Note_on_c, 1, 63, 0
4, 2397, Note_on_c, 1, 51, 0
4, 2400, Note_on_c, 1, 62, 66
4, 2400, Note_on_c, 1, 53, 66
4, 2445, Note_on_c, 1, 62, 0
4, 2445, Note_on_c, 1, 53, 0
4, 2448, Note_on_c, 1, 60, 66
4, 2448, Note_on_c, 1, 53, 66
4, 2493, Note_on_c, 1, 60, 0
4, 2493, Note_on_c, 1, 53, 0
4, 2496, Note_on_c, 1, 53, 91
4, 2512, Note_on_c, 1, 53, 0
4, 2512, Note_on_c, 1, 63, 75
4, 2512, Note_on_c, 1, 60, 75
4, 2527, Note_on_c, 1, 63, 0
4, 2527, Note_on_c, 1, 60, 0
4, 2528, Note_on_c, 1, 63, 75
4, 2528, Note_on_c, 1, 60, 75
4, 2543, Note_on_c, 1, 63, 0
4, 2543, Note_on_c, 1, 60, 0
4, 2544, Note_on_c, 1, 63, 75
4, 2544, Note_on_c, 1, 60, 75
4, 2589, Note_on_c, 1, 63, 0
4, 2589, Note_on_c, 1, 60, 0
4, 2592, Note_on_c, 1, 53, 91
4, 2608, Note_on_c, 1, 53, 0
4, 2608, Note_on_c, 1, 63, 75
4, 2608, Note_on_c, 1, 60, 75
4, 2623, Note_on_c, 1, 63, 0
4, 2623, Note_on_c, 1, 60, 0
4, 2624, Note_on_c, 1, 63, 75
4, 2624, Note_on_c, 1, 60, 75
4, 2639, Note_on_c, 1, 63, 0
4, 2639, Note_on_c, 1, 60, 0
4, 2640, Note_on_c, 1, 63, 75
4, 2640, Note_on_c, 1, 60, 75
4, 2655, Note_on_c, 1, 63, 0
4, 2655, Note_on_c, 1, 60, 0
4, 2656, Note_on_c, 1, 62, 75
4, 2656, Note_on_c, 1, 58, 75
4, 2671, Note_on_c, 1, 62, 0
4, 2671, Note_on_c, 1, 58, 0
4, 2672, Note_on_c, 1, 60, 75
4, 2672, Note_on_c, 1, 57, 75
4, 2687, Note_on_c, 1, 60, 0
4, 2687, Note_on_c, 1, 57, 0
4, 2688, Note_on_c, 1, 53, 91
4, 2704, Note_on_c, 1, 53, 0
4, 2704, Note_on_c, 1, 62, 75
4, 2704, Note_on_c, 1, 58, 75
4, 2719, Note_on_c, 1, 62, 0
4, 2719, Note_on_c, 1, 58, 0
4, 2720, Note_on_c, 1, 62, 75
4, 2720, Note_on_c, 1, 58, 75
4, 2735, Note_on_c, 1, 62, 0
4, 2735, Note_on_c, 1, 58, 0
4, 2736, Note_on_c, 1, 62, 75
4, 2736, Note_on_c, 1, 58, 75
4, 2781, Note_on_c, 1, 62, 0
4, 2781, Note_on_c, 1, 58, 0
4, 2784, Note_on_c, 1, 53, 91
4, 2800, Note_on_c, 1, 53, 0
4, 2800, Note_on_c, 1, 65, 75
4, 2800, Note_on_c, 1, 62, 75
4, 2815, Note_on_c, 1, 65, 0
4, 2815, Note_on_c, 1, 62, 0
4, 2816, Note_on_c, 1, 65, 75
4, 2816, Note_on_c, 1, 62, 75
4, 2831, Note_on_c, 1, 65, 0
4, 2831, Note_on_c, 1, 62, 0
4, 2832, Note_on_c, 1, 65, 75
4, 2832, Note_on_c, 1, 62, 75
4, 2847, Note_on_c, 1, 65, 0
4, 2847, Note_on_c, 1, 62, 0
4, 2848, Note_on_c, 1, 63, 75
4, 2848, Note_on_c, 1, 60, 75
4, 2863, Note_on_c, 1, 63, 0
4, 2863, Note_on_c, 1, 60, 0
4, 2864, Note_on_c, 1, 62, 75
4, 2864, Note_on_c, 1, 58, 75
4, 2879, Note_on_c, 1, 62, 0
4, 2879, Note_on_c, 1, 58, 0
4, 2880, Note_on_c, 1, 53, 91
4, 2896, Note_on_c, 1, 53, 0
4, 2896, Note_on_c, 1, 63, 75
4, 2896, Note_on_c, 1, 60, 75
4, 2911, Note_on_c, 1, 63, 0
4, 2911, Note_on_c, 1, 60, 0
4, 2912, Note_on_c, 1, 63, 75
4, 2912, Note_on_c, 1, 60, 75
4, 2927, Note_on_c, 1, 63, 0
4, 2927, Note_on_c, 1, 60, 0
4, 2928, Note_on_c, 1, 63, 75
4, 2928, Note_on_c, 1, 60, 75
4, 2973, Note_on_c, 1, 63, 0
4, 2973, Note_on_c, 1, 60, 0
4, 2976, Note_on_c, 1, 53, 91
4, 2992, Note_on_c, 1, 53, 0
4, 2992, Note_on_c, 1, 63, 75
4, 2992, Note_on_c, 1, 60, 75
4, 3007, Note_on_c, 1, 63, 0
4, 3007, Note_on_c, 1, 60, 0
4, 3008, Note_on_c, 1, 63, 75
4, 3008, Note_on_c, 1, 60, 75
4, 3023, Note_on_c, 1, 63, 0
4, 3023, Note_on_c, 1, 60, 0
4, 3024, Note_on_c, 1, 63, 75
4, 3024, Note_on_c, 1, 60, 75
4, 3039, Note_on_c, 1, 63, 0
4, 3039, Note_on_c, 1, 60, 0
4, 3040, Note_on_c, 1, 62, 75
4, 3040, Note_on_c, 1, 58, 75
4, 3055, Note_on_c, 1, 62, 0
4, 3055, Note_on_c, 1, 58, 0
4, 3056, Note_on_c, 1, 60, 75
4, 3056, Note_on_c, 1, 57, 75
4, 3071, Note_on_c, 1, 60, 0
4, 3071, Note_on_c, 1, 57, 0
4, 3072, Note_on_c, 1, 62, 70
4, 3072, Note_on_c, 1, 58, 70
4, 3161, Note_on_c, 1, 62, 0
4, 3161, Note_on_c, 1, 58, 0
4, 3168, Note_on_c, 1, 60, 70
4, 3168, Note_on_c, 1, 55, 70
4, 3168, Note_on_c, 1, 51, 70
4, 3257, Note_on_c, 1, 60, 0
4, 3257, Note_on_c, 1, 55, 0
4, 3257, Note_on_c, 1, 51, 0
4, 3264, Note_on_c, 1, 58, 70
4, 3264, Note_on_c, 1, 53, 70
4, 3309, Note_on_c, 1, 58, 0
4, 3309, Note_on_c, 1, 53, 0
4, 3312, Note_on_c, 1, 58, 70
4, 3312, Note_on_c, 1, 53, 70
4, 3357, Note_on_c, 1, 58, 0
4, 3357, Note_on_c, 1, 53, 0
4, 3360, Note_on_c, 1, 58, 70
4, 3360, Note_on_c, 1, 55, 70
4, 3360, Note_on_c, 1, 52, 70
4, 3405, Note_on_c, 1, 58, 0
4, 3405, Note_on_c, 1, 55, 0
4, 3405, Note_on_c, 1, 52, 0
4, 3408, Note_on_c, 1, 58, 70
4, 3408, Note_on_c, 1, 55, 70
4, 3408, Note_on_c, 1, 52, 70
4, 3453, Note_on_c, 1, 58, 0
4, 3453, Note_on_c, 1, 55, 0
4, 3453, Note_on_c, 1, 52, 0
4, 3456, Note_on_c, 1, 60, 70
4, 3456, Note_on_c, 1, 57, 70
4, 3456, Note_on_c, 1, 53, 70
4, 3456, Note_on_c, 1, 51, 70
4, 3545, Note_on_c, 1, 60, 0
4, 3545, Note_on_c, 1, 57, 0
4, 3545, Note_on_c, 1, 53, 0
4, 3545, Note_on_c, 1, 51, 0
4, 3552, Note_on_c, 1, 58, 70
4, 3552, Note_on_c, 1, 53, 70
4, 3552, Note_on_c, 1, 50, 70
4, 3641, Note_on_c, 1, 58, 0
4, 3641, Note_on_c, 1, 53, 0
4, 3641, Note_on_c, 1, 50, 0
4, 3648, Note_on_c, 1, 58, 70
4, 3648, Note_on_c, 1, 51, 70
4, 3693, Note_on_c, 1, 58, 0
4, 3693, Note_on_c, 1, 51, 0
4, 3696, Note_on_c, 1, 63, 70
4, 3696, Note_on_c, 1, 51, 70
4, 3741, Note_on_c, 1, 63, 0
4, 3741, Note_on_c, 1, 51, 0
4, 3744, Note_on_c, 1, 62, 70
4, 3744, Note_on_c, 1, 53, 70
4, 3789, Note_on_c, 1, 62, 0
4, 3789, Note_on_c, 1, 53, 0
4, 3792, Note_on_c, 1, 60, 70
4, 3792, Note_on_c, 1, 53, 70
4, 3837, Note_on_c, 1, 60, 0
4, 3837, Note_on_c, 1, 53, 0
4, 3840, Note_on_c, 1, 58, 70
4, 3840, Note_on_c, 1, 46, 70
4, 3887, Note_on_c, 1, 58, 0
4, 3887, Note_on_c, 1, 46, 0
4, 3888, Note_on_c, 1, 62, 70
4, 3888, Note_on_c, 1, 55, 70
4, 3933, Note_on_c, 1, 62, 0
4, 3933, Note_on_c, 1, 55, 0
4, 3936, Note_on_c, 1, 62, 70
4, 3936, Note_on_c, 1, 53, 70
4, 3981, Note_on_c, 1, 62, 0
4, 3981, Note_on_c, 1, 53, 0
4, 3984, Note_on_c, 1, 62, 70
4, 3984, Note_on_c, 1, 52, 70
4, 4029, Note_on_c, 1, 62, 0
4, 4029, Note_on_c, 1, 52, 0
4, 4032, Note_on_c, 1, 62, 70
4, 4032, Note_on_c, 1, 53, 70
4, 4209, Note_on_c, 1, 62, 0
4, 4209, Note_on_c, 1, 53, 0
4, 4416, Note_on_c, 1, 57, 70
4, 4416, Note_on_c, 1, 53, 70
4, 4505, Note_on_c, 1, 57, 0
4, 4505, Note_on_c, 1, 53, 0
4, 4512, Note_on_c, 1, 58, 70
4, 4557, Note_on_c, 1, 58, 0
4, 4560, Note_on_c, 1, 53, 70
4, 4605, Note_on_c, 1, 53, 0
4, 4608, Note_on_c, 1, 46, 70
4, 4697, Note_on_c, 1, 46, 0
4, 4704, Note_on_c, 1, 53, 66
4, 4704, Note_on_c, 1, 50, 66
4, 4704, Note_on_c, 1, 46, 66
4, 4749, Note_on_c, 1, 53, 0
4, 4749, Note_on_c, 1, 50, 0
4, 4749, Note_on_c, 1, 46, 0
4, 4752, Note_on_c, 1, 53, 66
4, 4752, Note_on_c, 1, 50, 66
4, 4752, Note_on_c, 1, 46, 66
4, 4797, Note_on_c, 1, 53, 0
4, 4797, Note_on_c, 1, 50, 0
4, 4797, Note_on_c, 1, 46, 0
4, 4800, Note_on_c, 1, 53, 66
4, 4800, Note_on_c, 1, 50, 66
4, 4800, Note_on_c, 1, 46, 66
4, 4845, Note_on_c, 1, 53, 0
4, 4845, Note_on_c, 1, 50, 0
4, 4845, Note_on_c, 1, 46, 0
4, 4848, Note_on_c, 1, 53, 66
4, 4848, Note_on_c, 1, 50, 66
4, 4848, Note_on_c, 1, 46, 66
4, 4893, Note_on_c, 1, 53, 0
4, 4893, Note_on_c, 1, 50, 0
4, 4893, Note_on_c, 1, 46, 0
4, 4896, Note_on_c, 1, 51, 66
4, 4896, Note_on_c, 1, 46, 66
4, 4941, Note_on_c, 1, 51, 0
4, 4941, Note_on_c, 1, 46, 0
4, 4944, Note_on_c, 1, 50, 66
4, 4944, Note_on_c, 1, 46, 66
4, 4989, Note_on_c, 1, 50, 0
4, 4989, Note_on_c, 1, 46, 0
4, 4992, Note_on_c, 1, 50, 66
4, 4992, Note_on_c, 1, 46, 66
4, 5037, Note_on_c, 1, 50, 0
4, 5037, Note_on_c, 1, 46, 0
4, 5040, Note_on_c, 1, 50, 66
4, 5040, Note_on_c, 1, 46, 66
4, 5085, Note_on_c, 1, 50, 0
4, 5085, Note_on_c, 1, 46, 0
4, 5088, Note_on_c, 1, 55, 66
4, 5088, Note_on_c, 1, 48, 66
4, 5088, Note_on_c, 1, 46, 66
4, 5133, Note_on_c, 1, 55, 0
4, 5133, Note_on_c, 1, 48, 0
4, 5133, Note_on_c, 1, 46, 0
4, 5136, Note_on_c, 1, 55, 66
4, 5136, Note_on_c, 1, 48, 66
4, 5136, Note_on_c, 1, 46, 66
4, 5181, Note_on_c, 1, 55, 0
4, 5181, Note_on_c, 1, 48, 0
4, 5181, Note_on_c, 1, 46, 0
4, 5184, Note_on_c, 1, 53, 66
4, 5184, Note_on_c, 1, 48, 66
4, 5184, Note_on_c, 1, 45, 66
4, 5229, Note_on_c, 1, 53, 0
4, 5229, Note_on_c, 1, 48, 0
4, 5229, Note_on_c, 1, 45, 0
4, 5232, Note_on_c, 1, 53, 66
4, 5232, Note_on_c, 1, 48, 66
4, 5232, Note_on_c, 1, 45, 66
4, 5277, Note_on_c, 1, 53, 0
4, 5277, Note_on_c, 1, 48, 0
4, 5277, Note_on_c, 1, 45, 0
4, 5280, Note_on_c, 1, 53, 66
4, 5280, Note_on_c, 1, 50, 66
4, 5280, Note_on_c, 1, 46, 66
4, 5325, Note_on_c, 1, 53, 0
4, 5325, Note_on_c, 1, 50, 0
4, 5325, Note_on_c, 1, 46, 0
4, 5328, Note_on_c, 1, 53, 66
4, 5328, Note_on_c, 1, 50, 66
4, 5328, Note_on_c, 1, 46, 66
4, 5373, Note_on_c, 1, 53, 0
4, 5373, Note_on_c, 1, 50, 0
4, 5373, Note_on_c, 1, 46, 0
4, 5376, Note_on_c, 1, 53, 66
4, 5376, Note_on_c, 1, 50, 66
4, 5376, Note_on_c, 1, 46, 66
4, 5421, Note_on_c, 1, 53, 0
4, 5421, Note_on_c, 1, 50, 0
4, 5421, Note_on_c, 1, 46, 0
4, 5424, Note_on_c, 1, 53, 66
4, 5424, Note_on_c, 1, 50, 66
4, 5424, Note_on_c, 1, 46, 66
4, 5469, Note_on_c, 1, 53, 0
4, 5469, Note_on_c, 1, 50, 0
4, 5469, Note_on_c, 1, 46, 0
4, 5472, Note_on_c, 1, 50, 66
4, 5472, Note_on_c, 1, 47, 66
4, 5517, Note_on_c, 1, 50, 0
4, 5517, Note_on_c, 1, 47, 0
4, 5520, Note_on_c, 1, 50, 66
4, 5520, Note_on_c, 1, 47, 66
4, 5565, Note_on_c, 1, 50, 0
4, 5565, Note_on_c, 1, 47, 0
4, 5568, Note_on_c, 1, 50, 66
4, 5568, Note_on_c, 1, 47, 66
4, 5613, Note_on_c, 1, 50, 0
4, 5613, Note_on_c, 1, 47, 0
4, 5616, Note_on_c, 1, 50, 66
4, 5616, Note_on_c, 1, 47, 66
4, 5661, Note_on_c, 1, 50, 0
4, 5661, Note_on_c, 1, 47, 0
4, 5664, Note_on_c, 1, 55, 66
4, 5664, Note_on_c, 1, 50, 66
4, 5664, Note_on_c, 1, 47, 66
4, 5709, Note_on_c, 1, 55, 0
4, 5709, Note_on_c, 1, 50, 0
4, 5709, Note_on_c, 1, 47, 0
4, 5712, Note_on_c, 1, 55, 67
4, 5712, Note_on_c, 1, 50, 67
4, 5712, Note_on_c, 1, 47, 67
4, 5757, Note_on_c, 1, 55, 0
4, 5757, Note_on_c, 1, 50, 0
4, 5757, Note_on_c, 1, 47, 0
4, 5760, Note_on_c, 1, 55, 68
4, 5760, Note_on_c, 1, 50, 68
4, 5760, Note_on_c, 1, 47, 68
4, 5805, Note_on_c, 1, 55, 0
4, 5805, Note_on_c, 1, 50, 0
4, 5805, Note_on_c, 1, 47, 0
4, 5808, Note_on_c, 1, 55, 70
4, 5808, Note_on_c, 1, 50, 70
4, 5808, Note_on_c, 1, 47, 70
4, 5853, Note_on_c, 1, 55, 0
4, 5853, Note_on_c, 1, 50, 0
4, 5853, Note_on_c, 1, 47, 0
4, 5856, Note_on_c, 1, 55, 70
4, 5856, Note_on_c, 1, 51, 70
4, 5856, Note_on_c, 1, 48, 70
4, 5901, Note_on_c, 1, 55, 0
4, 5901, Note_on_c, 1, 51, 0
4, 5901, Note_on_c, 1, 48, 0
4, 5904, Note_on_c, 1, 55, 68
4, 5904, Note_on_c, 1, 51, 68
4, 5904, Note_on_c, 1, 48, 68
4, 5949, Note_on_c, 1, 55, 0
4, 5949, Note_on_c, 1, 51, 0
4, 5949, Note_on_c, 1, 48, 0
4, 5952, Note_on_c, 1, 55, 66
4, 5952, Note_on_c, 1, 51, 66
4, 5952, Note_on_c, 1, 48, 66
4, 5997, Note_on_c, 1, 55, 0
4, 5997, Note_on_c, 1, 51, 0
4, 5997, Note_on_c, 1, 48, 0
4, 6000, Note_on_c, 1, 55, 66
4, 6000, Note_on_c, 1, 51, 66
4, 6000, Note_on_c, 1, 48, 66
4, 6045, Note_on_c, 1, 55, 0
4, 6045, Note_on_c, 1, 51, 0
4, 6045, Note_on_c, 1, 48, 0
4, 6048, Note_on_c, 1, 55, 66
4, 6048, Note_on_c, 1, 48, 66
4, 6093, Note_on_c, 1, 55, 0
4, 6093, Note_on_c, 1, 48, 0
4, 6096, Note_on_c, 1, 55, 66
4, 6096, Note_on_c, 1, 48, 66
4, 6141, Note_on_c, 1, 55, 0
4, 6141, Note_on_c, 1, 48, 0
4, 6144, Note_on_c, 1, 55, 66
4, 6144, Note_on_c, 1, 48, 66
4, 6189, Note_on_c, 1, 55, 0
4, 6189, Note_on_c, 1, 48, 0
4, 6192, Note_on_c, 1, 55, 66
4, 6192, Note_on_c, 1, 48, 66
4, 6237, Note_on_c, 1, 55, 0
4, 6237, Note_on_c, 1, 48, 0
4, 6240, Note_on_c, 1, 53, 66
4, 6240, Note_on_c, 1, 48, 66
4, 6240, Note_on_c, 1, 45, 66
4, 6285, Note_on_c, 1, 53, 0
4, 6285, Note_on_c, 1, 48, 0
4, 6285, Note_on_c, 1, 45, 0
4, 6288, Note_on_c, 1, 53, 67
4, 6288, Note_on_c, 1, 48, 67
4, 6288, Note_on_c, 1, 45, 67
4, 6333, Note_on_c, 1, 53, 0
4, 6333, Note_on_c, 1, 48, 0
4, 6333, Note_on_c, 1, 45, 0
4, 6336, Note_on_c, 1, 53, 68
4, 6336, Note_on_c, 1, 48, 68
4, 6336, Note_on_c, 1, 45, 68
4, 6381, Note_on_c, 1, 53, 0
4, 6381, Note_on_c, 1, 48, 0
4, 6381, Note_on_c, 1, 45, 0
4, 6384, Note_on_c, 1, 53, 70
4, 6384, Note_on_c, 1, 48, 70
4, 6384, Note_on_c, 1, 45, 70
4, 6429, Note_on_c, 1, 53, 0
4, 6429, Note_on_c, 1, 48, 0
4, 6429, Note_on_c, 1, 45, 0
4, 6432, Note_on_c, 1, 53, 70
4, 6432, Note_on_c, 1, 50, 70
4, 6432, Note_on_c, 1, 46, 70
4, 6477, Note_on_c, 1, 53, 0
4, 6477, Note_on_c, 1, 50, 0
4, 6477, Note_on_c, 1, 46, 0
4, 6480, Note_on_c, 1, 53, 68
4, 6480, Note_on_c, 1, 50, 68
4, 6480, Note_on_c, 1, 46, 68
4, 6525, Note_on_c, 1, 53, 0
4, 6525, Note_on_c, 1, 50, 0
4, 6525, Note_on_c, 1, 46, 0
4, 6528, Note_on_c, 1, 62, 66
4, 6528, Note_on_c, 1, 58, 66
4, 6573, Note_on_c, 1, 62, 0
4, 6573, Note_on_c, 1, 58, 0
4, 6576, Note_on_c, 1, 62, 66
4, 6576, Note_on_c, 1, 55, 66
4, 6621, Note_on_c, 1, 62, 0
4, 6621, Note_on_c, 1, 55, 0
4, 6624, Note_on_c, 1, 57, 66
4, 6624, Note_on_c, 1, 55, 66
4, 6669, Note_on_c, 1, 57, 0
4, 6669, Note_on_c, 1, 55, 0
4, 6672, Note_on_c, 1, 57, 66
4, 6672, Note_on_c, 1, 55, 66
4, 6717, Note_on_c, 1, 57, 0
4, 6717, Note_on_c, 1, 55, 0
4, 6720, Note_on_c, 1, 57, 66
4, 6720, Note_on_c, 1, 54, 66
4, 6765, Note_on_c, 1, 57, 0
4, 6765, Note_on_c, 1, 54, 0
4, 6768, Note_on_c, 1, 62, 66
4, 6768, Note_on_c, 1, 54, 66
4, 6813, Note_on_c, 1, 62, 0
4, 6813, Note_on_c, 1, 54, 0
4, 6816, Note_on_c, 1, 62, 66
4, 6816, Note_on_c, 1, 55, 66
4, 6861, Note_on_c, 1, 62, 0
4, 6861, Note_on_c, 1, 55, 0
4, 6864, Note_on_c, 1, 62, 66
4, 6864, Note_on_c, 1, 55, 66
4, 6909, Note_on_c, 1, 62, 0
4, 6909, Note_on_c, 1, 55, 0
4, 6912, Note_on_c, 1, 58, 66
4, 6912, Note_on_c, 1, 55, 66
4, 6957, Note_on_c, 1, 58, 0
4, 6957, Note_on_c, 1, 55, 0
4, 6960, Note_on_c, 1, 58, 66
4, 6960, Note_on_c, 1, 55, 66
4, 7005, Note_on_c, 1, 58, 0
4, 7005, Note_on_c, 1, 55, 0
4, 7008, Note_on_c, 1, 55, 66
4, 7008, Note_on_c, 1, 50, 66
4, 7053, Note_on_c, 1, 55, 0
4, 7053, Note_on_c, 1, 50, 0
4, 7056, Note_on_c, 1, 54, 66
4, 7056, Note_on_c, 1, 50, 66
4, 7101, Note_on_c, 1, 54, 0
4, 7101, Note_on_c, 1, 50, 0
4, 7104, Note_on_c, 1, 55, 66
4, 7104, Note_on_c, 1, 46, 66
4, 7149, Note_on_c, 1, 55, 0
4, 7149, Note_on_c, 1, 46, 0
4, 7152, Note_on_c, 1, 55, 66
4, 7152, Note_on_c, 1, 46, 66
4, 7197, Note_on_c, 1, 55, 0
4, 7197, Note_on_c, 1, 46, 0
4, 7200, Note_on_c, 1, 55, 66
4, 7200, Note_on_c, 1, 48, 66
4, 7245, Note_on_c, 1, 55, 0
4, 7245, Note_on_c, 1, 48, 0
4, 7248, Note_on_c, 1, 55, 66
4, 7248, Note_on_c, 1, 48, 66
4, 7293, Note_on_c, 1, 55, 0
4, 7293, Note_on_c, 1, 48, 0
4, 7296, Note_on_c, 1, 55, 66
4, 7296, Note_on_c, 1, 46, 66
4, 7341, Note_on_c, 1, 55, 0
4, 7341, Note_on_c, 1, 46, 0
4, 7344, Note_on_c, 1, 55, 66
4, 7344, Note_on_c, 1, 46, 66
4, 7389, Note_on_c, 1, 55, 0
4, 7389, Note_on_c, 1, 46, 0
4, 7392, Note_on_c, 1, 57, 66
4, 7392, Note_on_c, 1, 45, 66
4, 7437, Note_on_c, 1, 57, 0
4, 7437, Note_on_c, 1, 45, 0
4, 7440, Note_on_c, 1, 57, 66
4, 7440, Note_on_c, 1, 45, 66
4, 7485, Note_on_c, 1, 57, 0
4, 7485, Note_on_c, 1, 45, 0
4, 7488, Note_on_c, 1, 57, 66
4, 7488, Note_on_c, 1, 48, 66
4, 7533, Note_on_c, 1, 57, 0
4, 7533, Note_on_c, 1, 48, 0
4, 7536, Note_on_c, 1, 57, 66
4, 7536, Note_on_c, 1, 48, 66
4, 7581, Note_on_c, 1, 57, 0
4, 7581, Note_on_c, 1, 48, 0
4, 7584, Note_on_c, 1, 50, 66
4, 7584, Note_on_c, 1, 46, 66
4, 7629, Note_on_c, 1, 50, 0
4, 7629, Note_on_c, 1, 46, 0
4, 7632, Note_on_c, 1, 50, 67
4, 7632, Note_on_c, 1, 42, 67
4, 7677, Note_on_c, 1, 50, 0
4, 7677, Note_on_c, 1, 42, 0
4, 7680, Note_on_c, 1, 50, 68
4, 7680, Note_on_c, 1, 43, 68
4, 7725, Note_on_c, 1, 50, 0
4, 7725, Note_on_c, 1, 43, 0
4, 7728, Note_on_c, 1, 55, 69
4, 7728, Note_on_c, 1, 43, 69
4, 7773, Note_on_c, 1, 55, 0
4, 7773, Note_on_c, 1, 43, 0
4, 7776, Note_on_c, 1, 55, 70
4, 7776, Note_on_c, 1, 50, 70
4, 7821, Note_on_c, 1, 55, 0
4, 7821, Note_on_c, 1, 50, 0
4, 7824, Note_on_c, 1, 54, 68
4, 7824, Note_on_c, 1, 50, 68
4, 7869, Note_on_c, 1, 54, 0
4, 7869, Note_on_c, 1, 50, 0
4, 7872, Note_on_c, 1, 54, 66
4, 7872, Note_on_c, 1, 50, 66
4, 7917, Note_on_c, 1, 54, 0
4, 7917, Note_on_c, 1, 50, 0
4, 7920, Note_on_c, 1, 54, 66
4, 7920, Note_on_c, 1, 50, 66
4, 7965, Note_on_c, 1, 54, 0
4, 7965, Note_on_c, 1, 50, 0
4, 7968, Note_on_c, 1, 55, 66
4, 7968, Note_on_c, 1, 50, 66
4, 8013, Note_on_c, 1, 55, 0
4, 8013, Note_on_c, 1, 50, 0
4, 8016, Note_on_c, 1, 58, 66
4, 8016, Note_on_c, 1, 50, 66
4, 8061, Note_on_c, 1, 58, 0
4, 8061, Note_on_c, 1, 50, 0
4, 8064, Note_on_c, 1, 54, 66
4, 8064, Note_on_c, 1, 50, 66
4, 8109, Note_on_c, 1, 54, 0
4, 8109, Note_on_c, 1, 50, 0
4, 8112, Note_on_c, 1, 54, 66
4, 8112, Note_on_c, 1, 50, 66
4, 8157, Note_on_c, 1, 54, 0
4, 8157, Note_on_c, 1, 50, 0
4, 8160, Note_on_c, 1, 55, 66
4, 8160, Note_on_c, 1, 50, 66
4, 8205, Note_on_c, 1, 55, 0
4, 8205, Note_on_c, 1, 50, 0
4, 8208, Note_on_c, 1, 58, 66
4, 8208, Note_on_c, 1, 50, 66
4, 8253, Note_on_c, 1, 58, 0
4, 8253, Note_on_c, 1, 50, 0
4, 8256, Note_on_c, 1, 54, 66
4, 8256, Note_on_c, 1, 50, 66
4, 8301, Note_on_c, 1, 54, 0
4, 8301, Note_on_c, 1, 50, 0
4, 8304, Note_on_c, 1, 54, 66
4, 8304, Note_on_c, 1, 50, 66
4, 8349, Note_on_c, 1, 54, 0
4, 8349, Note_on_c, 1, 50, 0
4, 8352, Note_on_c, 1, 55, 66
4, 8352, Note_on_c, 1, 43, 66
4, 8397, Note_on_c, 1, 55, 0
4, 8397, Note_on_c, 1, 43, 0
4, 8400, Note_on_c, 1, 60, 66
4, 8400, Note_on_c, 1, 48, 66
4, 8445, Note_on_c, 1, 60, 0
4, 8445, Note_on_c, 1, 48, 0
4, 8448, Note_on_c, 1, 58, 66
4, 8448, Note_on_c, 1, 50, 66
4, 8493, Note_on_c, 1, 58, 0
4, 8493, Note_on_c, 1, 50, 0
4, 8496, Note_on_c, 1, 57, 66
4, 8496, Note_on_c, 1, 50, 66
4, 8541, Note_on_c, 1, 57, 0
4, 8541, Note_on_c, 1, 50, 0
4, 8544, Note_on_c, 1, 50, 91
4, 8560, Note_on_c, 1, 50, 0
4, 8560, Note_on_c, 1, 60, 75
4, 8560, Note_on_c, 1, 57, 75
4, 8575, Note_on_c, 1, 60, 0
4, 8575, Note_on_c, 1, 57, 0
4, 8576, Note_on_c, 1, 60, 75
4, 8576, Note_on_c, 1, 57, 75
4, 8591, Note_on_c, 1, 60, 0
4, 8591, Note_on_c, 1, 57, 0
4, 8592, Note_on_c, 1, 60, 75
4, 8592, Note_on_c, 1, 57, 75
4, 8637, Note_on_c, 1, 60, 0
4, 8637, Note_on_c, 1, 57, 0
4, 8640, Note_on_c, 1, 50, 91
4, 8656, Note_on_c, 1, 50, 0
4, 8656, Note_on_c, 1, 60, 75
4, 8656, Note_on_c, 1, 57, 75
4, 8671, Note_on_c, 1, 60, 0
4, 8671, Note_on_c, 1, 57, 0
4, 8672, Note_on_c, 1, 60, 75
4, 8672, Note_on_c, 1, 57, 75
4, 8687, Note_on_c, 1, 60, 0
4, 8687, Note_on_c, 1, 57, 0
4, 8688, Note_on_c, 1, 60, 75
4, 8688, Note_on_c, 1, 57, 75
4, 8703, Note_on_c, 1, 60, 0
4, 8703, Note_on_c, 1, 57, 0
4, 8704, Note_on_c, 1, 58, 75
4, 8704, Note_on_c, 1, 55, 75
4, 8719, Note_on_c, 1, 58, 0
4, 8719, Note_on_c, 1, 55, 0
4, 8720, Note_on_c, 1, 57, 75
4, 8720, Note_on_c, 1, 54, 75
4, 8735, Note_on_c, 1, 57, 0
4, 8735, Note_on_c, 1, 54, 0
4, 8736, Note_on_c, 1, 50, 91
4, 8752, Note_on_c, 1, 50, 0
4, 8752, Note_on_c, 1, 58, 75
4, 8752, Note_on_c, 1, 55, 75
4, 8767, Note_on_c, 1, 58, 0
4, 8767, Note_on_c, 1, 55, 0
4, 8768, Note_on_c, 1, 58, 75
4, 8768, Note_on_c, 1, 55, 75
4, 8783, Note_on_c, 1, 58, 0
4, 8783, Note_on_c, 1, 55, 0
4, 8784, Note_on_c, 1, 58, 75
4, 8784, Note_on_c, 1, 55, 75
4, 8829, Note_on_c, 1, 58, 0
4, 8829, Note_on_c, 1, 55, 0
4, 8832, Note_on_c, 1, 50, 91
4, 8848, Note_on_c, 1, 50, 0
4, 8848, Note_on_c, 1, 62, 75
4, 8848, Note_on_c, 1, 58, 75
4, 8863, Note_on_c, 1, 62, 0
4, 8863, Note_on_c, 1, 58, 0
4, 8864, Note_on_c, 1, 62, 75
4, 8864, Note_on_c, 1, 58, 75
4, 8879, Note_on_c, 1, 62, 0
4, 8879, Note_on_c, 1, 58, 0
4, 8880, Note_on_c, 1, 62, 75
4, 8880, Note_on_c, 1, 58, 75
4, 8895, Note_on_c, 1, 62, 0
4, 8895, Note_on_c, 1, 58, 0
4, 8896, Note_on_c, 1, 60, 75
4, 8896, Note_on_c, 1, 57, 75
4, 8911, Note_on_c, 1, 60, 0
4, 8911, Note_on_c, 1, 57, 0
4, 8912, Note_on_c, 1, 58, 75
4, 8912, Note_on_c, 1, 55, 75
4, 8927, Note_on_c, 1, 58, 0
4, 8927, Note_on_c, 1, 55, 0
4, 8928, Note_on_c, 1, 50, 91
4, 8944, Note_on_c, 1, 50, 0
4, 8944, Note_on_c, 1, 60, 75
4, 8944, Note_on_c, 1, 57, 75
4, 8959, Note_on_c, 1, 60, 0
4, 8959, Note_on_c, 1, 57, 0
4, 8960, Note_on_c, 1, 60, 75
4, 8960, Note_on_c, 1, 57, 75
4, 8975, Note_on_c, 1, 60, 0
4, 8975, Note_on_c, 1, 57, 0
4, 8976, Note_on_c, 1, 60, 75
4, 8976, Note_on_c, 1, 57, 75
4, 9021, Note_on_c, 1, 60, 0
4, 9021, Note_on_c, 1, 57, 0
4, 9024, Note_on_c, 1, 50, 91
4, 9040, Note_on_c, 1, 50, 0
4, 9040, Note_on_c, 1, 60, 75
4, 9040, Note_on_c, 1, 57, 75
4, 9055, Note_on_c, 1, 60, 0
4, 9055, Note_on_c, 1, 57, 0
4, 9056, Note_on_c, 1, 60, 75
4, 9056, Note_on_c, 1, 57, 75
4, 9071, Note_on_c, 1, 60, 0
4, 9071, Note_on_c, 1, 57, 0
4, 9072, Note_on_c, 1, 60, 75
4, 9072, Note_on_c, 1, 57, 75
4, 9087, Note_on_c, 1, 60, 0
4, 9087, Note_on_c, 1, 57, 0
4, 9088, Note_on_c, 1, 58, 75
4, 9088, Note_on_c, 1, 55, 75
4, 9103, Note_on_c, 1, 58, 0
4, 9103, Note_on_c, 1, 55, 0
4, 9104, Note_on_c, 1, 57, 75
4, 9104, Note_on_c, 1, 54, 75
4, 9119, Note_on_c, 1, 57, 0
4, 9119, Note_on_c, 1, 54, 0
4, 9120, Note_on_c, 1, 58, 75
4, 9120, Note_on_c, 1, 55, 75
4, 9209, Note_on_c, 1, 58, 0
4, 9209, Note_on_c, 1, 55, 0
4, 9216, Note_on_c, 1, 60, 75
4, 9216, Note_on_c, 1, 48, 75
4, 9305, Note_on_c, 1, 60, 0
4, 9305, Note_on_c, 1, 48, 0
4, 9312, Note_on_c, 1, 55, 75
4, 9312, Note_on_c, 1, 50, 75
4, 9357, Note_on_c, 1, 55, 0
4, 9357, Note_on_c, 1, 50, 0
4, 9360, Note_on_c, 1, 55, 75
4, 9360, Note_on_c, 1, 50, 75
4, 9405, Note_on_c, 1, 55, 0
4, 9405, Note_on_c, 1, 50, 0
4, 9408, Note_on_c, 1, 54, 75
4, 9408, Note_on_c, 1, 50, 75
4, 9453, Note_on_c, 1, 54, 0
4, 9453, Note_on_c, 1, 50, 0
4, 9456, Note_on_c, 1, 54, 75
4, 9456, Note_on_c, 1, 50, 75
4, 9501, Note_on_c, 1, 54, 0
4, 9501, Note_on_c, 1, 50, 0
4, 9504, Note_on_c, 1, 55, 75
4, 9504, Note_on_c, 1, 43, 75
4, 9551, Note_on_c, 1, 55, 0
4, 9551, Note_on_c, 1, 43, 0
4, 9552, Note_on_c, 1, 58, 75
4, 9552, Note_on_c, 1, 51, 75
4, 9597, Note_on_c, 1, 58, 0
4, 9597, Note_on_c, 1, 51, 0
4, 9600, Note_on_c, 1, 58, 75
4, 9600, Note_on_c, 1, 50, 75
4, 9645, Note_on_c, 1, 58, 0
4, 9645, Note_on_c, 1, 50, 0
4, 9648, Note_on_c, 1, 58, 75
4, 9648, Note_on_c, 1, 49, 75
4, 9693, Note_on_c, 1, 58, 0
4, 9693, Note_on_c, 1, 49, 0
4, 9696, Note_on_c, 1, 58, 75
4, 9696, Note_on_c, 1, 50, 75
4, 9873, Note_on_c, 1, 58, 0
4, 9873, Note_on_c, 1, 50, 0
4, 10080, Note_on_c, 1, 54, 75
4, 10080, Note_on_c, 1, 50, 75
4, 10169, Note_on_c, 1, 54, 0
4, 10169, Note_on_c, 1, 50, 0
4, 10176, Note_on_c, 1, 55, 75
4, 10221, Note_on_c, 1, 55, 0
4, 10224, Note_on_c, 1, 50, 75
4, 10269, Note_on_c, 1, 50, 0
4, 10272, Note_on_c, 1, 43, 75
4, 10361, Note_on_c, 1, 43, 0
4, 10560, Note_on_c, 1, 43, 0
4, 10737, Note_on_c, 1, 43, 0
4, 10752, End_track
5, 0, Start_track
5, 0, Program_c, 0, 0
5, 0, Control_c, 0, 7, 127
5, 0, Control_c, 0, 10, 64
5, 10560, End_track
6, 0, Start_track
6, 0, Title_t, "Piano Solo   <composer>  "
6, 0, End_track
0, 0, End_of_file
