0, 0, Header, 1, 6, 96
1, 0, Start_track
1, 0, Copyright_t, "Copyright  2000 <copyright holder>"
1, 0, Text_t, "Sonata I\015\012"
1, 0, Text_t, "Haydn\015\012"
1, 0, Sequencer_specific, 16, 68, 87, 77, 90, 86, 82, 83, 78, 32, 55, 46, 49, 46, 50, 46, 48
1, 0, Time_signature, 4, 2, 24, 8
1, 0, Tempo, 545454
1, 0, Key_signature, 5, "major"
1, 23040, Time_signature, 2, 2, 24, 8
1, 23232, Time_signature, 4, 2, 24, 8
1, 28608, Tempo, 600000
1, 28992, Tempo, 705882
1, 29184, Tempo, 545454
1, 39360, Time_signature, 2, 2, 24, 8
1, 39552, Time_signature, 4, 2, 24, 8
1, 44928, Tempo, 600000
1, 45312, Tempo, 705882
1, 45504, Tempo, 545454
1, 52608, End_track
2, 0, Start_track
2, 0, Program_c, 0, 0
2, 0, Control_c, 0, 7, 127
2, 0, Control_c, 0, 10, 64
2, 0, Note_on_c, 0, 78, 75
2, 39, Note_on_c, 0, 78, 0
2, 96, Note_on_c, 0, 78, 91
2, 288, Note_on_c, 0, 78, 0
2, 288, Note_on_c, 0, 83, 78
2, 377, Note_on_c, 0, 83, 0
2, 384, Note_on_c, 0, 82, 80
2, 432, Note_on_c, 0, 82, 0
2, 432, Note_on_c, 0, 80, 79
2, 477, Note_on_c, 0, 80, 0
2, 480, Note_on_c, 0, 80, 94
2, 672, Note_on_c, 0, 80, 0
2, 672, Note_on_c, 0, 78, 75
2, 761, Note_on_c, 0, 78, 0
2, 768, Note_on_c, 0, 78, 75
2, 780, Note_on_c, 0, 78, 0
2, 780, Note_on_c, 0, 76, 75
2, 792, Note_on_c, 0, 76, 0
2, 792, Note_on_c, 0, 78, 76
2, 804, Note_on_c, 0, 78, 0
2, 804, Note_on_c, 0, 76, 76
2, 816, Note_on_c, 0, 76, 0
2, 816, Note_on_c, 0, 78, 77
2, 828, Note_on_c, 0, 78, 0
2, 828, Note_on_c, 0, 76, 78
2, 840, Note_on_c, 0, 76, 0
2, 840, Note_on_c, 0, 75, 78
2, 852, Note_on_c, 0, 75, 0
2, 852, Note_on_c, 0, 76, 79
2, 864, Note_on_c, 0, 76, 0
2, 864, Note_on_c, 0, 85, 96
2, 1056, Note_on_c, 0, 85, 0
2, 1056, Note_on_c, 0, 76, 77
2, 1145, Note_on_c, 0, 76, 0
2, 1152, Note_on_c, 0, 74, 76
2, 1200, Note_on_c, 0, 74, 0
2, 1200, Note_on_c, 0, 75, 75
2, 1245, Note_on_c, 0, 75, 0
2, 1248, Note_on_c, 0, 75, 91
2, 1367, Note_on_c, 0, 75, 0
2, 1368, Note_on_c, 0, 71, 75
2, 1391, Note_on_c, 0, 71, 0
2, 1392, Note_on_c, 0, 73, 76
2, 1415, Note_on_c, 0, 73, 0
2, 1416, Note_on_c, 0, 75, 76
2, 1439, Note_on_c, 0, 75, 0
2, 1440, Note_on_c, 0, 76, 77
2, 1463, Note_on_c, 0, 76, 0
2, 1464, Note_on_c, 0, 78, 78
2, 1487, Note_on_c, 0, 78, 0
2, 1488, Note_on_c, 0, 80, 78
2, 1511, Note_on_c, 0, 80, 0
2, 1512, Note_on_c, 0, 82, 79
2, 1535, Note_on_c, 0, 82, 0
2, 1536, Note_on_c, 0, 83, 96
2, 1560, Note_on_c, 0, 83, 0
2, 1560, Note_on_c, 0, 71, 75
2, 1583, Note_on_c, 0, 71, 0
2, 1584, Note_on_c, 0, 73, 75
2, 1607, Note_on_c, 0, 73, 0
2, 1608, Note_on_c, 0, 75, 76
2, 1631, Note_on_c, 0, 75, 0
2, 1632, Note_on_c, 0, 76, 77
2, 1655, Note_on_c, 0, 76, 0
2, 1656, Note_on_c, 0, 78, 77
2, 1679, Note_on_c, 0, 78, 0
2, 1680, Note_on_c, 0, 80, 78
2, 1703, Note_on_c, 0, 80, 0
2, 1704, Note_on_c, 0, 82, 79
2, 1727, Note_on_c, 0, 82, 0
2, 1728, Note_on_c, 0, 83, 96
2, 1752, Note_on_c, 0, 83, 0
2, 1752, Note_on_c, 0, 71, 75
2, 1775, Note_on_c, 0, 71, 0
2, 1776, Note_on_c, 0, 73, 75
2, 1799, Note_on_c, 0, 73, 0
2, 1800, Note_on_c, 0, 75, 76
2, 1823, Note_on_c, 0, 75, 0
2, 1824, Note_on_c, 0, 76, 76
2, 1847, Note_on_c, 0, 76, 0
2, 1848, Note_on_c, 0, 78, 77
2, 1871, Note_on_c, 0, 78, 0
2, 1872, Note_on_c, 0, 80, 77
2, 1895, Note_on_c, 0, 80, 0
2, 1896, Note_on_c, 0, 82, 78
2, 1919, Note_on_c, 0, 82, 0
2, 1920, Note_on_c, 0, 83, 94
2, 1940, Note_on_c, 0, 83, 0
2, 1968, Note_on_c, 0, 78, 75
2, 1988, Note_on_c, 0, 78, 0
2, 2016, Note_on_c, 0, 80, 75
2, 2028, Note_on_c, 0, 80, 0
2, 2028, Note_on_c, 0, 78, 75
2, 2040, Note_on_c, 0, 78, 0
2, 2040, Note_on_c, 0, 80, 75
2, 2052, Note_on_c, 0, 80, 0
2, 2052, Note_on_c, 0, 78, 75
2, 2064, Note_on_c, 0, 78, 0
2, 2064, Note_on_c, 0, 80, 75
2, 2076, Note_on_c, 0, 80, 0
2, 2076, Note_on_c, 0, 78, 75
2, 2088, Note_on_c, 0, 78, 0
2, 2088, Note_on_c, 0, 76, 75
2, 2100, Note_on_c, 0, 76, 0
2, 2100, Note_on_c, 0, 78, 75
2, 2112, Note_on_c, 0, 78, 0
2, 2112, Note_on_c, 0, 83, 75
2, 2132, Note_on_c, 0, 83, 0
2, 2160, Note_on_c, 0, 80, 75
2, 2180, Note_on_c, 0, 80, 0
2, 2208, Note_on_c, 0, 82, 75
2, 2220, Note_on_c, 0, 82, 0
2, 2220, Note_on_c, 0, 80, 75
2, 2232, Note_on_c, 0, 80, 0
2, 2232, Note_on_c, 0, 82, 75
2, 2244, Note_on_c, 0, 82, 0
2, 2244, Note_on_c, 0, 80, 75
2, 2256, Note_on_c, 0, 80, 0
2, 2256, Note_on_c, 0, 82, 75
2, 2268, Note_on_c, 0, 82, 0
2, 2268, Note_on_c, 0, 80, 75
2, 2280, Note_on_c, 0, 80, 0
2, 2280, Note_on_c, 0, 78, 75
2, 2292, Note_on_c, 0, 78, 0
2, 2292, Note_on_c, 0, 80, 75
2, 2304, Note_on_c, 0, 80, 0
2, 2304, Note_on_c, 0, 83, 75
2, 2352, Note_on_c, 0, 83, 0
2, 2352, Note_on_c, 0, 78, 75
2, 2397, Note_on_c, 0, 78, 0
2, 2400, Note_on_c, 0, 83, 76
2, 2448, Note_on_c, 0, 83, 0
2, 2448, Note_on_c, 0, 76, 93
2, 2496, Note_on_c, 0, 76, 0
2, 2496, Note_on_c, 0, 83, 77
2, 2544, Note_on_c, 0, 83, 0
2, 2544, Note_on_c, 0, 75, 94
2, 2592, Note_on_c, 0, 75, 0
2, 2592, Note_on_c, 0, 83, 79
2, 2640, Note_on_c, 0, 83, 0
2, 2640, Note_on_c, 0, 75, 80
2, 2640, Note_on_c, 0, 71, 80
2, 2660, Note_on_c, 0, 75, 0
2, 2660, Note_on_c, 0, 71, 0
2, 2688, Note_on_c, 0, 75, 96
2, 2688, Note_on_c, 0, 71, 96
2, 2784, Note_on_c, 0, 75, 0
2, 2784, Note_on_c, 0, 71, 0
2, 2784, Note_on_c, 0, 73, 77
2, 2784, Note_on_c, 0, 70, 77
2, 2873, Note_on_c, 0, 73, 0
2, 2873, Note_on_c, 0, 70, 0
2, 3072, Note_on_c, 0, 78, 75
2, 3095, Note_on_c, 0, 78, 0
2, 3096, Note_on_c, 0, 75, 75
2, 3119, Note_on_c, 0, 75, 0
2, 3120, Note_on_c, 0, 71, 75
2, 3143, Note_on_c, 0, 71, 0
2, 3144, Note_on_c, 0, 66, 75
2, 3167, Note_on_c, 0, 66, 0
2, 3168, Note_on_c, 0, 72, 75
2, 3192, Note_on_c, 0, 72, 0
2, 3192, Note_on_c, 0, 73, 75
2, 3215, Note_on_c, 0, 73, 0
2, 3216, Note_on_c, 0, 73, 91
2, 3287, Note_on_c, 0, 73, 0
2, 3288, Note_on_c, 0, 75, 75
2, 3311, Note_on_c, 0, 75, 0
2, 3312, Note_on_c, 0, 76, 75
2, 3335, Note_on_c, 0, 76, 0
2, 3336, Note_on_c, 0, 75, 75
2, 3359, Note_on_c, 0, 75, 0
2, 3360, Note_on_c, 0, 73, 75
2, 3383, Note_on_c, 0, 73, 0
2, 3384, Note_on_c, 0, 71, 75
2, 3407, Note_on_c, 0, 71, 0
2, 3408, Note_on_c, 0, 70, 75
2, 3431, Note_on_c, 0, 70, 0
2, 3432, Note_on_c, 0, 68, 75
2, 3455, Note_on_c, 0, 68, 0
2, 3456, Note_on_c, 0, 66, 75
2, 3501, Note_on_c, 0, 66, 0
2, 3504, Note_on_c, 0, 77, 75
2, 3528, Note_on_c, 0, 77, 0
2, 3528, Note_on_c, 0, 78, 75
2, 3551, Note_on_c, 0, 78, 0
2, 3552, Note_on_c, 0, 76, 75
2, 3575, Note_on_c, 0, 76, 0
2, 3576, Note_on_c, 0, 75, 75
2, 3599, Note_on_c, 0, 75, 0
2, 3600, Note_on_c, 0, 73, 75
2, 3623, Note_on_c, 0, 73, 0
2, 3624, Note_on_c, 0, 71, 75
2, 3647, Note_on_c, 0, 71, 0
2, 3648, Note_on_c, 0, 73, 75
2, 3660, Note_on_c, 0, 73, 0
2, 3660, Note_on_c, 0, 75, 75
2, 3672, Note_on_c, 0, 75, 0
2, 3672, Note_on_c, 0, 73, 75
2, 3684, Note_on_c, 0, 73, 0
2, 3684, Note_on_c, 0, 75, 75
2, 3696, Note_on_c, 0, 75, 0
2, 3696, Note_on_c, 0, 73, 75
2, 3708, Note_on_c, 0, 73, 0
2, 3708, Note_on_c, 0, 75, 75
2, 3719, Note_on_c, 0, 75, 0
2, 3719, Note_on_c, 0, 73, 75
2, 3730, Note_on_c, 0, 73, 0
2, 3730, Note_on_c, 0, 75, 75
2, 3741, Note_on_c, 0, 75, 0
2, 3741, Note_on_c, 0, 73, 75
2, 3752, Note_on_c, 0, 73, 0
2, 3752, Note_on_c, 0, 75, 75
2, 3763, Note_on_c, 0, 75, 0
2, 3763, Note_on_c, 0, 73, 75
2, 3774, Note_on_c, 0, 73, 0
2, 3774, Note_on_c, 0, 75, 75
2, 3785, Note_on_c, 0, 75, 0
2, 3785, Note_on_c, 0, 73, 75
2, 3796, Note_on_c, 0, 73, 0
2, 3796, Note_on_c, 0, 71, 75
2, 3818, Note_on_c, 0, 71, 0
2, 3818, Note_on_c, 0, 73, 75
2, 3840, Note_on_c, 0, 73, 0
2, 3840, Note_on_c, 0, 71, 91
2, 3864, Note_on_c, 0, 71, 0
2, 3864, Note_on_c, 0, 66, 75
2, 3887, Note_on_c, 0, 66, 0
2, 3888, Note_on_c, 0, 68, 75
2, 3911, Note_on_c, 0, 68, 0
2, 3912, Note_on_c, 0, 70, 76
2, 3935, Note_on_c, 0, 70, 0
2, 3936, Note_on_c, 0, 71, 76
2, 3959, Note_on_c, 0, 71, 0
2, 3960, Note_on_c, 0, 73, 77
2, 3983, Note_on_c, 0, 73, 0
2, 3984, Note_on_c, 0, 75, 78
2, 4007, Note_on_c, 0, 75, 0
2, 4008, Note_on_c, 0, 77, 78
2, 4031, Note_on_c, 0, 77, 0
2, 4032, Note_on_c, 0, 78, 95
2, 4056, Note_on_c, 0, 78, 0
2, 4056, Note_on_c, 0, 73, 80
2, 4079, Note_on_c, 0, 73, 0
2, 4080, Note_on_c, 0, 75, 80
2, 4103, Note_on_c, 0, 75, 0
2, 4104, Note_on_c, 0, 77, 80
2, 4127, Note_on_c, 0, 77, 0
2, 4128, Note_on_c, 0, 78, 80
2, 4151, Note_on_c, 0, 78, 0
2, 4152, Note_on_c, 0, 80, 80
2, 4175, Note_on_c, 0, 80, 0
2, 4176, Note_on_c, 0, 82, 80
2, 4199, Note_on_c, 0, 82, 0
2, 4200, Note_on_c, 0, 84, 80
2, 4223, Note_on_c, 0, 84, 0
2, 4224, Note_on_c, 0, 85, 96
2, 4272, Note_on_c, 0, 85, 0
2, 4296, Note_on_c, 0, 84, 80
2, 4320, Note_on_c, 0, 84, 0
2, 4320, Note_on_c, 0, 85, 80
2, 4365, Note_on_c, 0, 85, 0
2, 4392, Note_on_c, 0, 84, 80
2, 4416, Note_on_c, 0, 84, 0
2, 4416, Note_on_c, 0, 85, 80
2, 4505, Note_on_c, 0, 85, 0
2, 4608, Note_on_c, 0, 87, 96
2, 4608, Note_on_c, 0, 83, 96
2, 4656, Note_on_c, 0, 87, 0
2, 4656, Note_on_c, 0, 83, 0
2, 4656, Note_on_c, 0, 85, 80
2, 4656, Note_on_c, 0, 82, 80
2, 4701, Note_on_c, 0, 85, 0
2, 4701, Note_on_c, 0, 82, 0
2, 4704, Note_on_c, 0, 83, 79
2, 4704, Note_on_c, 0, 80, 79
2, 4752, Note_on_c, 0, 83, 0
2, 4752, Note_on_c, 0, 80, 0
2, 4752, Note_on_c, 0, 82, 78
2, 4752, Note_on_c, 0, 78, 78
2, 4797, Note_on_c, 0, 82, 0
2, 4797, Note_on_c, 0, 78, 0
2, 4800, Note_on_c, 0, 85, 93
2, 4800, Note_on_c, 0, 82, 93
2, 4848, Note_on_c, 0, 85, 0
2, 4848, Note_on_c, 0, 82, 0
2, 4848, Note_on_c, 0, 83, 77
2, 4848, Note_on_c, 0, 80, 77
2, 4893, Note_on_c, 0, 83, 0
2, 4893, Note_on_c, 0, 80, 0
2, 4896, Note_on_c, 0, 82, 76
2, 4896, Note_on_c, 0, 78, 76
2, 4944, Note_on_c, 0, 82, 0
2, 4944, Note_on_c, 0, 78, 0
2, 4944, Note_on_c, 0, 80, 75
2, 4944, Note_on_c, 0, 77, 75
2, 4989, Note_on_c, 0, 80, 0
2, 4989, Note_on_c, 0, 77, 0
2, 4992, Note_on_c, 0, 78, 75
2, 5016, Note_on_c, 0, 78, 0
2, 5016, Note_on_c, 0, 73, 75
2, 5039, Note_on_c, 0, 73, 0
2, 5040, Note_on_c, 0, 73, 96
2, 5136, Note_on_c, 0, 73, 0
2, 5136, Note_on_c, 0, 78, 80
2, 5225, Note_on_c, 0, 78, 0
2, 5232, Note_on_c, 0, 82, 80
2, 5303, Note_on_c, 0, 82, 0
2, 5310, Note_on_c, 0, 80, 80
2, 5316, Note_on_c, 0, 80, 0
2, 5316, Note_on_c, 0, 78, 80
2, 5322, Note_on_c, 0, 78, 0
2, 5322, Note_on_c, 0, 77, 80
2, 5328, Note_on_c, 0, 77, 0
2, 5328, Note_on_c, 0, 78, 80
2, 5373, Note_on_c, 0, 78, 0
2, 5376, Note_on_c, 0, 77, 80
2, 5396, Note_on_c, 0, 77, 0
2, 5424, Note_on_c, 0, 80, 97
2, 5520, Note_on_c, 0, 80, 0
2, 5520, Note_on_c, 0, 83, 83
2, 5609, Note_on_c, 0, 83, 0
2, 5616, Note_on_c, 0, 86, 86
2, 5705, Note_on_c, 0, 86, 0
2, 5712, Note_on_c, 0, 77, 84
2, 5757, Note_on_c, 0, 77, 0
2, 5760, Note_on_c, 0, 78, 83
2, 5780, Note_on_c, 0, 78, 0
2, 5808, Note_on_c, 0, 78, 98
2, 5904, Note_on_c, 0, 78, 0
2, 5904, Note_on_c, 0, 78, 80
2, 5993, Note_on_c, 0, 78, 0
2, 6000, Note_on_c, 0, 78, 80
2, 6071, Note_on_c, 0, 78, 0
2, 6078, Note_on_c, 0, 80, 80
2, 6084, Note_on_c, 0, 80, 0
2, 6084, Note_on_c, 0, 78, 80
2, 6090, Note_on_c, 0, 78, 0
2, 6090, Note_on_c, 0, 77, 80
2, 6096, Note_on_c, 0, 77, 0
2, 6096, Note_on_c, 0, 78, 80
2, 6141, Note_on_c, 0, 78, 0
2, 6144, Note_on_c, 0, 78, 80
2, 6164, Note_on_c, 0, 78, 0
2, 6192, Note_on_c, 0, 78, 96
2, 6288, Note_on_c, 0, 78, 0
2, 6288, Note_on_c, 0, 78, 80
2, 6377, Note_on_c, 0, 78, 0
2, 6384, Note_on_c, 0, 78, 80
2, 6455, Note_on_c, 0, 78, 0
2, 6462, Note_on_c, 0, 80, 80
2, 6468, Note_on_c, 0, 80, 0
2, 6468, Note_on_c, 0, 78, 80
2, 6474, Note_on_c, 0, 78, 0
2, 6474, Note_on_c, 0, 77, 80
2, 6480, Note_on_c, 0, 77, 0
2, 6480, Note_on_c, 0, 78, 80
2, 6525, Note_on_c, 0, 78, 0
2, 6528, Note_on_c, 0, 78, 96
2, 6672, Note_on_c, 0, 78, 0
2, 6672, Note_on_c, 0, 77, 80
2, 6720, Note_on_c, 0, 77, 0
2, 6720, Note_on_c, 0, 78, 80
2, 6740, Note_on_c, 0, 78, 0
2, 6768, Note_on_c, 0, 77, 80
2, 6816, Note_on_c, 0, 77, 0
2, 6816, Note_on_c, 0, 78, 80
2, 6836, Note_on_c, 0, 78, 0
2, 6864, Note_on_c, 0, 77, 80
2, 6912, Note_on_c, 0, 77, 0
2, 6912, Note_on_c, 0, 78, 80
2, 6932, Note_on_c, 0, 78, 0
2, 6960, Note_on_c, 0, 81, 80
2, 7005, Note_on_c, 0, 81, 0
2, 7008, Note_on_c, 0, 80, 80
2, 7053, Note_on_c, 0, 80, 0
2, 7056, Note_on_c, 0, 78, 80
2, 7101, Note_on_c, 0, 78, 0
2, 7152, Note_on_c, 0, 84, 80
2, 7197, Note_on_c, 0, 84, 0
2, 7200, Note_on_c, 0, 83, 80
2, 7245, Note_on_c, 0, 83, 0
2, 7248, Note_on_c, 0, 81, 80
2, 7293, Note_on_c, 0, 81, 0
2, 7344, Note_on_c, 0, 83, 80
2, 7344, Note_on_c, 0, 79, 80
2, 7389, Note_on_c, 0, 83, 0
2, 7389, Note_on_c, 0, 79, 0
2, 7392, Note_on_c, 0, 81, 80
2, 7392, Note_on_c, 0, 78, 80
2, 7437, Note_on_c, 0, 81, 0
2, 7437, Note_on_c, 0, 78, 0
2, 7440, Note_on_c, 0, 79, 80
2, 7440, Note_on_c, 0, 76, 80
2, 7485, Note_on_c, 0, 79, 0
2, 7485, Note_on_c, 0, 76, 0
2, 7536, Note_on_c, 0, 71, 80
2, 7536, Note_on_c, 0, 67, 80
2, 7581, Note_on_c, 0, 71, 0
2, 7581, Note_on_c, 0, 67, 0
2, 7584, Note_on_c, 0, 69, 80
2, 7584, Note_on_c, 0, 66, 80
2, 7629, Note_on_c, 0, 69, 0
2, 7629, Note_on_c, 0, 66, 0
2, 7632, Note_on_c, 0, 67, 80
2, 7632, Note_on_c, 0, 64, 80
2, 7677, Note_on_c, 0, 67, 0
2, 7677, Note_on_c, 0, 64, 0
2, 7680, Note_on_c, 0, 65, 80
2, 7692, Note_on_c, 0, 65, 0
2, 7693, Note_on_c, 0, 67, 80
2, 7705, Note_on_c, 0, 67, 0
2, 7706, Note_on_c, 0, 65, 80
2, 7718, Note_on_c, 0, 65, 0
2, 7719, Note_on_c, 0, 67, 80
2, 7731, Note_on_c, 0, 67, 0
2, 7732, Note_on_c, 0, 65, 80
2, 7744, Note_on_c, 0, 65, 0
2, 7745, Note_on_c, 0, 67, 80
2, 7757, Note_on_c, 0, 67, 0
2, 7758, Note_on_c, 0, 65, 80
2, 7770, Note_on_c, 0, 65, 0
2, 7771, Note_on_c, 0, 67, 80
2, 7783, Note_on_c, 0, 67, 0
2, 7784, Note_on_c, 0, 65, 80
2, 7796, Note_on_c, 0, 65, 0
2, 7797, Note_on_c, 0, 67, 80
2, 7809, Note_on_c, 0, 67, 0
2, 7810, Note_on_c, 0, 65, 80
2, 7822, Note_on_c, 0, 65, 0
2, 7823, Note_on_c, 0, 64, 80
2, 7848, Note_on_c, 0, 64, 0
2, 7848, Note_on_c, 0, 65, 80
2, 7872, Note_on_c, 0, 65, 0
2, 7872, Note_on_c, 0, 64, 80
2, 7961, Note_on_c, 0, 64, 0
2, 8064, Note_on_c, 0, 65, 80
2, 8256, Note_on_c, 0, 65, 0
2, 8256, Note_on_c, 0, 66, 80
2, 8279, Note_on_c, 0, 66, 0
2, 8280, Note_on_c, 0, 61, 80
2, 8303, Note_on_c, 0, 61, 0
2, 8304, Note_on_c, 0, 63, 80
2, 8327, Note_on_c, 0, 63, 0
2, 8328, Note_on_c, 0, 65, 80
2, 8351, Note_on_c, 0, 65, 0
2, 8352, Note_on_c, 0, 66, 80
2, 8375, Note_on_c, 0, 66, 0
2, 8376, Note_on_c, 0, 68, 80
2, 8399, Note_on_c, 0, 68, 0
2, 8400, Note_on_c, 0, 70, 80
2, 8423, Note_on_c, 0, 70, 0
2, 8424, Note_on_c, 0, 71, 80
2, 8447, Note_on_c, 0, 71, 0
2, 8448, Note_on_c, 0, 73, 80
2, 8493, Note_on_c, 0, 73, 0
2, 8496, Note_on_c, 0, 75, 80
2, 8519, Note_on_c, 0, 75, 0
2, 8520, Note_on_c, 0, 73, 80
2, 8543, Note_on_c, 0, 73, 0
2, 8544, Note_on_c, 0, 71, 80
2, 8567, Note_on_c, 0, 71, 0
2, 8568, Note_on_c, 0, 70, 80
2, 8591, Note_on_c, 0, 70, 0
2, 8592, Note_on_c, 0, 68, 80
2, 8615, Note_on_c, 0, 68, 0
2, 8616, Note_on_c, 0, 66, 80
2, 8639, Note_on_c, 0, 66, 0
2, 8640, Note_on_c, 0, 68, 80
2, 8652, Note_on_c, 0, 68, 0
2, 8652, Note_on_c, 0, 70, 80
2, 8664, Note_on_c, 0, 70, 0
2, 8664, Note_on_c, 0, 68, 80
2, 8676, Note_on_c, 0, 68, 0
2, 8676, Note_on_c, 0, 70, 80
2, 8688, Note_on_c, 0, 70, 0
2, 8688, Note_on_c, 0, 68, 80
2, 8700, Note_on_c, 0, 68, 0
2, 8700, Note_on_c, 0, 70, 80
2, 8711, Note_on_c, 0, 70, 0
2, 8711, Note_on_c, 0, 68, 80
2, 8722, Note_on_c, 0, 68, 0
2, 8722, Note_on_c, 0, 70, 80
2, 8733, Note_on_c, 0, 70, 0
2, 8733, Note_on_c, 0, 68, 80
2, 8744, Note_on_c, 0, 68, 0
2, 8744, Note_on_c, 0, 70, 80
2, 8755, Note_on_c, 0, 70, 0
2, 8755, Note_on_c, 0, 68, 80
2, 8766, Note_on_c, 0, 68, 0
2, 8766, Note_on_c, 0, 70, 80
2, 8777, Note_on_c, 0, 70, 0
2, 8777, Note_on_c, 0, 68, 80
2, 8788, Note_on_c, 0, 68, 0
2, 8788, Note_on_c, 0, 66, 80
2, 8810, Note_on_c, 0, 66, 0
2, 8810, Note_on_c, 0, 68, 80
2, 8832, Note_on_c, 0, 68, 0
2, 8832, Note_on_c, 0, 66, 80
2, 8921, Note_on_c, 0, 66, 0
2, 9024, Note_on_c, 0, 73, 75
2, 9054, Note_on_c, 0, 73, 0
2, 9056, Note_on_c, 0, 70, 75
2, 9086, Note_on_c, 0, 70, 0
2, 9088, Note_on_c, 0, 66, 75
2, 9118, Note_on_c, 0, 66, 0
2, 9120, Note_on_c, 0, 65, 75
2, 9150, Note_on_c, 0, 65, 0
2, 9152, Note_on_c, 0, 68, 75
2, 9182, Note_on_c, 0, 68, 0
2, 9184, Note_on_c, 0, 71, 75
2, 9214, Note_on_c, 0, 71, 0
2, 9216, Note_on_c, 0, 70, 75
2, 9305, Note_on_c, 0, 70, 0
2, 9408, Note_on_c, 0, 85, 70
2, 9438, Note_on_c, 0, 85, 0
2, 9440, Note_on_c, 0, 82, 70
2, 9470, Note_on_c, 0, 82, 0
2, 9472, Note_on_c, 0, 78, 70
2, 9502, Note_on_c, 0, 78, 0
2, 9504, Note_on_c, 0, 83, 70
2, 9534, Note_on_c, 0, 83, 0
2, 9536, Note_on_c, 0, 80, 70
2, 9566, Note_on_c, 0, 80, 0
2, 9568, Note_on_c, 0, 77, 70
2, 9598, Note_on_c, 0, 77, 0
2, 9600, Note_on_c, 0, 78, 70
2, 9600, Note_on_c, 0, 70, 70
2, 9639, Note_on_c, 0, 78, 0
2, 9639, Note_on_c, 0, 70, 0
2, 9696, Note_on_c, 0, 82, 64
2, 9696, Note_on_c, 0, 73, 64
2, 9735, Note_on_c, 0, 82, 0
2, 9735, Note_on_c, 0, 73, 0
2, 9792, Note_on_c, 0, 78, 64
2, 9792, Note_on_c, 0, 70, 64
2, 9881, Note_on_c, 0, 78, 0
2, 9881, Note_on_c, 0, 70, 0
2, 9984, Note_on_c, 0, 78, 75
2, 10023, Note_on_c, 0, 78, 0
2, 10080, Note_on_c, 0, 78, 91
2, 10272, Note_on_c, 0, 78, 0
2, 10272, Note_on_c, 0, 83, 78
2, 10361, Note_on_c, 0, 83, 0
2, 10368, Note_on_c, 0, 82, 80
2, 10416, Note_on_c, 0, 82, 0
2, 10416, Note_on_c, 0, 80, 79
2, 10461, Note_on_c, 0, 80, 0
2, 10464, Note_on_c, 0, 80, 94
2, 10656, Note_on_c, 0, 80, 0
2, 10656, Note_on_c, 0, 78, 75
2, 10745, Note_on_c, 0, 78, 0
2, 10752, Note_on_c, 0, 78, 75
2, 10764, Note_on_c, 0, 78, 0
2, 10764, Note_on_c, 0, 76, 75
2, 10776, Note_on_c, 0, 76, 0
2, 10776, Note_on_c, 0, 78, 76
2, 10788, Note_on_c, 0, 78, 0
2, 10788, Note_on_c, 0, 76, 76
2, 10800, Note_on_c, 0, 76, 0
2, 10800, Note_on_c, 0, 78, 77
2, 10812, Note_on_c, 0, 78, 0
2, 10812, Note_on_c, 0, 76, 78
2, 10824, Note_on_c, 0, 76, 0
2, 10824, Note_on_c, 0, 75, 78
2, 10836, Note_on_c, 0, 75, 0
2, 10836, Note_on_c, 0, 76, 79
2, 10848, Note_on_c, 0, 76, 0
2, 10848, Note_on_c, 0, 85, 96
2, 11040, Note_on_c, 0, 85, 0
2, 11040, Note_on_c, 0, 76, 77
2, 11129, Note_on_c, 0, 76, 0
2, 11136, Note_on_c, 0, 74, 76
2, 11184, Note_on_c, 0, 74, 0
2, 11184, Note_on_c, 0, 75, 75
2, 11229, Note_on_c, 0, 75, 0
2, 11232, Note_on_c, 0, 75, 91
2, 11351, Note_on_c, 0, 75, 0
2, 11352, Note_on_c, 0, 71, 75
2, 11375, Note_on_c, 0, 71, 0
2, 11376, Note_on_c, 0, 73, 76
2, 11399, Note_on_c, 0, 73, 0
2, 11400, Note_on_c, 0, 75, 76
2, 11423, Note_on_c, 0, 75, 0
2, 11424, Note_on_c, 0, 76, 77
2, 11447, Note_on_c, 0, 76, 0
2, 11448, Note_on_c, 0, 78, 78
2, 11471, Note_on_c, 0, 78, 0
2, 11472, Note_on_c, 0, 80, 78
2, 11495, Note_on_c, 0, 80, 0
2, 11496, Note_on_c, 0, 82, 79
2, 11519, Note_on_c, 0, 82, 0
2, 11520, Note_on_c, 0, 83, 96
2, 11544, Note_on_c, 0, 83, 0
2, 11544, Note_on_c, 0, 71, 75
2, 11567, Note_on_c, 0, 71, 0
2, 11568, Note_on_c, 0, 73, 75
2, 11591, Note_on_c, 0, 73, 0
2, 11592, Note_on_c, 0, 75, 76
2, 11615, Note_on_c, 0, 75, 0
2, 11616, Note_on_c, 0, 76, 77
2, 11639, Note_on_c, 0, 76, 0
2, 11640, Note_on_c, 0, 78, 77
2, 11663, Note_on_c, 0, 78, 0
2, 11664, Note_on_c, 0, 80, 78
2, 11687, Note_on_c, 0, 80, 0
2, 11688, Note_on_c, 0, 82, 79
2, 11711, Note_on_c, 0, 82, 0
2, 11712, Note_on_c, 0, 83, 96
2, 11736, Note_on_c, 0, 83, 0
2, 11736, Note_on_c, 0, 71, 75
2, 11759, Note_on_c, 0, 71, 0
2, 11760, Note_on_c, 0, 73, 75
2, 11783, Note_on_c, 0, 73, 0
2, 11784, Note_on_c, 0, 75, 76
2, 11807, Note_on_c, 0, 75, 0
2, 11808, Note_on_c, 0, 76, 76
2, 11831, Note_on_c, 0, 76, 0
2, 11832, Note_on_c, 0, 78, 77
2, 11855, Note_on_c, 0, 78, 0
2, 11856, Note_on_c, 0, 80, 77
2, 11879, Note_on_c, 0, 80, 0
2, 11880, Note_on_c, 0, 82, 78
2, 11903, Note_on_c, 0, 82, 0
2, 11904, Note_on_c, 0, 83, 94
2, 11924, Note_on_c, 0, 83, 0
2, 11952, Note_on_c, 0, 78, 75
2, 11972, Note_on_c, 0, 78, 0
2, 12000, Note_on_c, 0, 80, 75
2, 12012, Note_on_c, 0, 80, 0
2, 12012, Note_on_c, 0, 78, 75
2, 12024, Note_on_c, 0, 78, 0
2, 12024, Note_on_c, 0, 80, 75
2, 12036, Note_on_c, 0, 80, 0
2, 12036, Note_on_c, 0, 78, 75
2, 12048, Note_on_c, 0, 78, 0
2, 12048, Note_on_c, 0, 80, 75
2, 12060, Note_on_c, 0, 80, 0
2, 12060, Note_on_c, 0, 78, 75
2, 12072, Note_on_c, 0, 78, 0
2, 12072, Note_on_c, 0, 76, 75
2, 12084, Note_on_c, 0, 76, 0
2, 12084, Note_on_c, 0, 78, 75
2, 12096, Note_on_c, 0, 78, 0
2, 12096, Note_on_c, 0, 83, 75
2, 12116, Note_on_c, 0, 83, 0
2, 12144, Note_on_c, 0, 80, 75
2, 12164, Note_on_c, 0, 80, 0
2, 12192, Note_on_c, 0, 82, 75
2, 12204, Note_on_c, 0, 82, 0
2, 12204, Note_on_c, 0, 80, 75
2, 12216, Note_on_c, 0, 80, 0
2, 12216, Note_on_c, 0, 82, 75
2, 12228, Note_on_c, 0, 82, 0
2, 12228, Note_on_c, 0, 80, 75
2, 12240, Note_on_c, 0, 80, 0
2, 12240, Note_on_c, 0, 82, 75
2, 12252, Note_on_c, 0, 82, 0
2, 12252, Note_on_c, 0, 80, 75
2, 12264, Note_on_c, 0, 80, 0
2, 12264, Note_on_c, 0, 78, 75
2, 12276, Note_on_c, 0, 78, 0
2, 12276, Note_on_c, 0, 80, 75
2, 12288, Note_on_c, 0, 80, 0
2, 12288, Note_on_c, 0, 83, 75
2, 12336, Note_on_c, 0, 83, 0
2, 12336, Note_on_c, 0, 78, 75
2, 12381, Note_on_c, 0, 78, 0
2, 12384, Note_on_c, 0, 83, 76
2, 12432, Note_on_c, 0, 83, 0
2, 12432, Note_on_c, 0, 76, 93
2, 12480, Note_on_c, 0, 76, 0
2, 12480, Note_on_c, 0, 83, 77
2, 12528, Note_on_c, 0, 83, 0
2, 12528, Note_on_c, 0, 75, 94
2, 12576, Note_on_c, 0, 75, 0
2, 12576, Note_on_c, 0, 83, 79
2, 12624, Note_on_c, 0, 83, 0
2, 12624, Note_on_c, 0, 75, 80
2, 12624, Note_on_c, 0, 71, 80
2, 12644, Note_on_c, 0, 75, 0
2, 12644, Note_on_c, 0, 71, 0
2, 12672, Note_on_c, 0, 75, 96
2, 12672, Note_on_c, 0, 71, 96
2, 12768, Note_on_c, 0, 75, 0
2, 12768, Note_on_c, 0, 71, 0
2, 12768, Note_on_c, 0, 73, 77
2, 12768, Note_on_c, 0, 70, 77
2, 12857, Note_on_c, 0, 73, 0
2, 12857, Note_on_c, 0, 70, 0
2, 13056, Note_on_c, 0, 78, 75
2, 13079, Note_on_c, 0, 78, 0
2, 13080, Note_on_c, 0, 75, 75
2, 13103, Note_on_c, 0, 75, 0
2, 13104, Note_on_c, 0, 71, 75
2, 13127, Note_on_c, 0, 71, 0
2, 13128, Note_on_c, 0, 66, 75
2, 13151, Note_on_c, 0, 66, 0
2, 13152, Note_on_c, 0, 72, 75
2, 13176, Note_on_c, 0, 72, 0
2, 13176, Note_on_c, 0, 73, 75
2, 13199, Note_on_c, 0, 73, 0
2, 13200, Note_on_c, 0, 73, 91
2, 13271, Note_on_c, 0, 73, 0
2, 13272, Note_on_c, 0, 75, 75
2, 13295, Note_on_c, 0, 75, 0
2, 13296, Note_on_c, 0, 76, 75
2, 13319, Note_on_c, 0, 76, 0
2, 13320, Note_on_c, 0, 75, 75
2, 13343, Note_on_c, 0, 75, 0
2, 13344, Note_on_c, 0, 73, 75
2, 13367, Note_on_c, 0, 73, 0
2, 13368, Note_on_c, 0, 71, 75
2, 13391, Note_on_c, 0, 71, 0
2, 13392, Note_on_c, 0, 70, 75
2, 13415, Note_on_c, 0, 70, 0
2, 13416, Note_on_c, 0, 68, 75
2, 13439, Note_on_c, 0, 68, 0
2, 13440, Note_on_c, 0, 66, 75
2, 13485, Note_on_c, 0, 66, 0
2, 13488, Note_on_c, 0, 77, 75
2, 13512, Note_on_c, 0, 77, 0
2, 13512, Note_on_c, 0, 78, 75
2, 13535, Note_on_c, 0, 78, 0
2, 13536, Note_on_c, 0, 76, 75
2, 13559, Note_on_c, 0, 76, 0
2, 13560, Note_on_c, 0, 75, 75
2, 13583, Note_on_c, 0, 75, 0
2, 13584, Note_on_c, 0, 73, 75
2, 13607, Note_on_c, 0, 73, 0
2, 13608, Note_on_c, 0, 71, 75
2, 13631, Note_on_c, 0, 71, 0
2, 13632, Note_on_c, 0, 73, 75
2, 13644, Note_on_c, 0, 73, 0
2, 13644, Note_on_c, 0, 75, 75
2, 13656, Note_on_c, 0, 75, 0
2, 13656, Note_on_c, 0, 73, 75
2, 13668, Note_on_c, 0, 73, 0
2, 13668, Note_on_c, 0, 75, 75
2, 13680, Note_on_c, 0, 75, 0
2, 13680, Note_on_c, 0, 73, 75
2, 13692, Note_on_c, 0, 73, 0
2, 13692, Note_on_c, 0, 75, 75
2, 13703, Note_on_c, 0, 75, 0
2, 13703, Note_on_c, 0, 73, 75
2, 13714, Note_on_c, 0, 73, 0
2, 13714, Note_on_c, 0, 75, 75
2, 13725, Note_on_c, 0, 75, 0
2, 13725, Note_on_c, 0, 73, 75
2, 13736, Note_on_c, 0, 73, 0
2, 13736, Note_on_c, 0, 75, 75
2, 13747, Note_on_c, 0, 75, 0
2, 13747, Note_on_c, 0, 73, 75
2, 13758, Note_on_c, 0, 73, 0
2, 13758, Note_on_c, 0, 75, 75
2, 13769, Note_on_c, 0, 75, 0
2, 13769, Note_on_c, 0, 73, 75
2, 13780, Note_on_c, 0, 73, 0
2, 13780, Note_on_c, 0, 71, 75
2, 13802, Note_on_c, 0, 71, 0
2, 13802, Note_on_c, 0, 73, 75
2, 13824, Note_on_c, 0, 73, 0
2, 13824, Note_on_c, 0, 71, 91
2, 13848, Note_on_c, 0, 71, 0
2, 13848, Note_on_c, 0, 66, 75
2, 13871, Note_on_c, 0, 66, 0
2, 13872, Note_on_c, 0, 68, 75
2, 13895, Note_on_c, 0, 68, 0
2, 13896, Note_on_c, 0, 70, 76
2, 13919, Note_on_c, 0, 70, 0
2, 13920, Note_on_c, 0, 71, 76
2, 13943, Note_on_c, 0, 71, 0
2, 13944, Note_on_c, 0, 73, 77
2, 13967, Note_on_c, 0, 73, 0
2, 13968, Note_on_c, 0, 75, 78
2, 13991, Note_on_c, 0, 75, 0
2, 13992, Note_on_c, 0, 77, 78
2, 14015, Note_on_c, 0, 77, 0
2, 14016, Note_on_c, 0, 78, 95
2, 14040, Note_on_c, 0, 78, 0
2, 14040, Note_on_c, 0, 73, 80
2, 14063, Note_on_c, 0, 73, 0
2, 14064, Note_on_c, 0, 75, 80
2, 14087, Note_on_c, 0, 75, 0
2, 14088, Note_on_c, 0, 77, 80
2, 14111, Note_on_c, 0, 77, 0
2, 14112, Note_on_c, 0, 78, 80
2, 14135, Note_on_c, 0, 78, 0
2, 14136, Note_on_c, 0, 80, 80
2, 14159, Note_on_c, 0, 80, 0
2, 14160, Note_on_c, 0, 82, 80
2, 14183, Note_on_c, 0, 82, 0
2, 14184, Note_on_c, 0, 84, 80
2, 14207, Note_on_c, 0, 84, 0
2, 14208, Note_on_c, 0, 85, 96
2, 14256, Note_on_c, 0, 85, 0
2, 14280, Note_on_c, 0, 84, 80
2, 14304, Note_on_c, 0, 84, 0
2, 14304, Note_on_c, 0, 85, 80
2, 14349, Note_on_c, 0, 85, 0
2, 14376, Note_on_c, 0, 84, 80
2, 14400, Note_on_c, 0, 84, 0
2, 14400, Note_on_c, 0, 85, 80
2, 14489, Note_on_c, 0, 85, 0
2, 14592, Note_on_c, 0, 87, 96
2, 14592, Note_on_c, 0, 83, 96
2, 14640, Note_on_c, 0, 87, 0
2, 14640, Note_on_c, 0, 83, 0
2, 14640, Note_on_c, 0, 85, 80
2, 14640, Note_on_c, 0, 82, 80
2, 14685, Note_on_c, 0, 85, 0
2, 14685, Note_on_c, 0, 82, 0
2, 14688, Note_on_c, 0, 83, 79
2, 14688, Note_on_c, 0, 80, 79
2, 14736, Note_on_c, 0, 83, 0
2, 14736, Note_on_c, 0, 80, 0
2, 14736, Note_on_c, 0, 82, 78
2, 14736, Note_on_c, 0, 78, 78
2, 14781, Note_on_c, 0, 82, 0
2, 14781, Note_on_c, 0, 78, 0
2, 14784, Note_on_c, 0, 85, 93
2, 14784, Note_on_c, 0, 82, 93
2, 14832, Note_on_c, 0, 85, 0
2, 14832, Note_on_c, 0, 82, 0
2, 14832, Note_on_c, 0, 83, 77
2, 14832, Note_on_c, 0, 80, 77
2, 14877, Note_on_c, 0, 83, 0
2, 14877, Note_on_c, 0, 80, 0
2, 14880, Note_on_c, 0, 82, 76
2, 14880, Note_on_c, 0, 78, 76
2, 14928, Note_on_c, 0, 82, 0
2, 14928, Note_on_c, 0, 78, 0
2, 14928, Note_on_c, 0, 80, 75
2, 14928, Note_on_c, 0, 77, 75
2, 14973, Note_on_c, 0, 80, 0
2, 14973, Note_on_c, 0, 77, 0
2, 14976, Note_on_c, 0, 78, 75
2, 15000, Note_on_c, 0, 78, 0
2, 15000, Note_on_c, 0, 73, 75
2, 15023, Note_on_c, 0, 73, 0
2, 15024, Note_on_c, 0, 73, 96
2, 15120, Note_on_c, 0, 73, 0
2, 15120, Note_on_c, 0, 78, 80
2, 15209, Note_on_c, 0, 78, 0
2, 15216, Note_on_c, 0, 82, 80
2, 15287, Note_on_c, 0, 82, 0
2, 15294, Note_on_c, 0, 80, 80
2, 15300, Note_on_c, 0, 80, 0
2, 15300, Note_on_c, 0, 78, 80
2, 15306, Note_on_c, 0, 78, 0
2, 15306, Note_on_c, 0, 77, 80
2, 15312, Note_on_c, 0, 77, 0
2, 15312, Note_on_c, 0, 78, 80
2, 15357, Note_on_c, 0, 78, 0
2, 15360, Note_on_c, 0, 77, 80
2, 15380, Note_on_c, 0, 77, 0
2, 15408, Note_on_c, 0, 80, 97
2, 15504, Note_on_c, 0, 80, 0
2, 15504, Note_on_c, 0, 83, 83
2, 15593, Note_on_c, 0, 83, 0
2, 15600, Note_on_c, 0, 86, 86
2, 15689, Note_on_c, 0, 86, 0
2, 15696, Note_on_c, 0, 77, 84
2, 15741, Note_on_c, 0, 77, 0
2, 15744, Note_on_c, 0, 78, 83
2, 15764, Note_on_c, 0, 78, 0
2, 15792, Note_on_c, 0, 78, 98
2, 15888, Note_on_c, 0, 78, 0
2, 15888, Note_on_c, 0, 78, 80
2, 15977, Note_on_c, 0, 78, 0
2, 15984, Note_on_c, 0, 78, 80
2, 16055, Note_on_c, 0, 78, 0
2, 16062, Note_on_c, 0, 80, 80
2, 16068, Note_on_c, 0, 80, 0
2, 16068, Note_on_c, 0, 78, 80
2, 16074, Note_on_c, 0, 78, 0
2, 16074, Note_on_c, 0, 77, 80
2, 16080, Note_on_c, 0, 77, 0
2, 16080, Note_on_c, 0, 78, 80
2, 16125, Note_on_c, 0, 78, 0
2, 16128, Note_on_c, 0, 78, 80
2, 16148, Note_on_c, 0, 78, 0
2, 16176, Note_on_c, 0, 78, 96
2, 16272, Note_on_c, 0, 78, 0
2, 16272, Note_on_c, 0, 78, 80
2, 16361, Note_on_c, 0, 78, 0
2, 16368, Note_on_c, 0, 78, 80
2, 16439, Note_on_c, 0, 78, 0
2, 16446, Note_on_c, 0, 80, 80
2, 16452, Note_on_c, 0, 80, 0
2, 16452, Note_on_c, 0, 78, 80
2, 16458, Note_on_c, 0, 78, 0
2, 16458, Note_on_c, 0, 77, 80
2, 16464, Note_on_c, 0, 77, 0
2, 16464, Note_on_c, 0, 78, 80
2, 16509, Note_on_c, 0, 78, 0
2, 16512, Note_on_c, 0, 78, 96
2, 16656, Note_on_c, 0, 78, 0
2, 16656, Note_on_c, 0, 77, 80
2, 16704, Note_on_c, 0, 77, 0
2, 16704, Note_on_c, 0, 78, 80
2, 16724, Note_on_c, 0, 78, 0
2, 16752, Note_on_c, 0, 77, 80
2, 16800, Note_on_c, 0, 77, 0
2, 16800, Note_on_c, 0, 78, 80
2, 16820, Note_on_c, 0, 78, 0
2, 16848, Note_on_c, 0, 77, 80
2, 16896, Note_on_c, 0, 77, 0
2, 16896, Note_on_c, 0, 78, 80
2, 16916, Note_on_c, 0, 78, 0
2, 16944, Note_on_c, 0, 81, 80
2, 16989, Note_on_c, 0, 81, 0
2, 16992, Note_on_c, 0, 80, 80
2, 17037, Note_on_c, 0, 80, 0
2, 17040, Note_on_c, 0, 78, 80
2, 17085, Note_on_c, 0, 78, 0
2, 17136, Note_on_c, 0, 84, 80
2, 17181, Note_on_c, 0, 84, 0
2, 17184, Note_on_c, 0, 83, 80
2, 17229, Note_on_c, 0, 83, 0
2, 17232, Note_on_c, 0, 81, 80
2, 17277, Note_on_c, 0, 81, 0
2, 17328, Note_on_c, 0, 83, 80
2, 17328, Note_on_c, 0, 79, 80
2, 17373, Note_on_c, 0, 83, 0
2, 17373, Note_on_c, 0, 79, 0
2, 17376, Note_on_c, 0, 81, 80
2, 17376, Note_on_c, 0, 78, 80
2, 17421, Note_on_c, 0, 81, 0
2, 17421, Note_on_c, 0, 78, 0
2, 17424, Note_on_c, 0, 79, 80
2, 17424, Note_on_c, 0, 76, 80
2, 17469, Note_on_c, 0, 79, 0
2, 17469, Note_on_c, 0, 76, 0
2, 17520, Note_on_c, 0, 71, 80
2, 17520, Note_on_c, 0, 67, 80
2, 17565, Note_on_c, 0, 71, 0
2, 17565, Note_on_c, 0, 67, 0
2, 17568, Note_on_c, 0, 69, 80
2, 17568, Note_on_c, 0, 66, 80
2, 17613, Note_on_c, 0, 69, 0
2, 17613, Note_on_c, 0, 66, 0
2, 17616, Note_on_c, 0, 67, 80
2, 17616, Note_on_c, 0, 64, 80
2, 17661, Note_on_c, 0, 67, 0
2, 17661, Note_on_c, 0, 64, 0
2, 17664, Note_on_c, 0, 65, 80
2, 17676, Note_on_c, 0, 65, 0
2, 17677, Note_on_c, 0, 67, 80
2, 17689, Note_on_c, 0, 67, 0
2, 17690, Note_on_c, 0, 65, 80
2, 17702, Note_on_c, 0, 65, 0
2, 17703, Note_on_c, 0, 67, 80
2, 17715, Note_on_c, 0, 67, 0
2, 17716, Note_on_c, 0, 65, 80
2, 17728, Note_on_c, 0, 65, 0
2, 17729, Note_on_c, 0, 67, 80
2, 17741, Note_on_c, 0, 67, 0
2, 17742, Note_on_c, 0, 65, 80
2, 17754, Note_on_c, 0, 65, 0
2, 17755, Note_on_c, 0, 67, 80
2, 17767, Note_on_c, 0, 67, 0
2, 17768, Note_on_c, 0, 65, 80
2, 17780, Note_on_c, 0, 65, 0
2, 17781, Note_on_c, 0, 67, 80
2, 17793, Note_on_c, 0, 67, 0
2, 17794, Note_on_c, 0, 65, 80
2, 17806, Note_on_c, 0, 65, 0
2, 17807, Note_on_c, 0, 64, 80
2, 17832, Note_on_c, 0, 64, 0
2, 17832, Note_on_c, 0, 65, 80
2, 17856, Note_on_c, 0, 65, 0
2, 17856, Note_on_c, 0, 64, 80
2, 17945, Note_on_c, 0, 64, 0
2, 18048, Note_on_c, 0, 65, 80
2, 18240, Note_on_c, 0, 65, 0
2, 18240, Note_on_c, 0, 66, 80
2, 18263, Note_on_c, 0, 66, 0
2, 18264, Note_on_c, 0, 61, 80
2, 18287, Note_on_c, 0, 61, 0
2, 18288, Note_on_c, 0, 63, 80
2, 18311, Note_on_c, 0, 63, 0
2, 18312, Note_on_c, 0, 65, 80
2, 18335, Note_on_c, 0, 65, 0
2, 18336, Note_on_c, 0, 66, 80
2, 18359, Note_on_c, 0, 66, 0
2, 18360, Note_on_c, 0, 68, 80
2, 18383, Note_on_c, 0, 68, 0
2, 18384, Note_on_c, 0, 70, 80
2, 18407, Note_on_c, 0, 70, 0
2, 18408, Note_on_c, 0, 71, 80
2, 18431, Note_on_c, 0, 71, 0
2, 18432, Note_on_c, 0, 73, 80
2, 18477, Note_on_c, 0, 73, 0
2, 18480, Note_on_c, 0, 75, 80
2, 18503, Note_on_c, 0, 75, 0
2, 18504, Note_on_c, 0, 73, 80
2, 18527, Note_on_c, 0, 73, 0
2, 18528, Note_on_c, 0, 71, 80
2, 18551, Note_on_c, 0, 71, 0
2, 18552, Note_on_c, 0, 70, 80
2, 18575, Note_on_c, 0, 70, 0
2, 18576, Note_on_c, 0, 68, 80
2, 18599, Note_on_c, 0, 68, 0
2, 18600, Note_on_c, 0, 66, 80
2, 18623, Note_on_c, 0, 66, 0
2, 18624, Note_on_c, 0, 68, 80
2, 18636, Note_on_c, 0, 68, 0
2, 18636, Note_on_c, 0, 70, 80
2, 18648, Note_on_c, 0, 70, 0
2, 18648, Note_on_c, 0, 68, 80
2, 18660, Note_on_c, 0, 68, 0
2, 18660, Note_on_c, 0, 70, 80
2, 18672, Note_on_c, 0, 70, 0
2, 18672, Note_on_c, 0, 68, 80
2, 18684, Note_on_c, 0, 68, 0
2, 18684, Note_on_c, 0, 70, 80
2, 18695, Note_on_c, 0, 70, 0
2, 18695, Note_on_c, 0, 68, 80
2, 18706, Note_on_c, 0, 68, 0
2, 18706, Note_on_c, 0, 70, 80
2, 18717, Note_on_c, 0, 70, 0
2, 18717, Note_on_c, 0, 68, 80
2, 18728, Note_on_c, 0, 68, 0
2, 18728, Note_on_c, 0, 70, 80
2, 18739, Note_on_c, 0, 70, 0
2, 18739, Note_on_c, 0, 68, 80
2, 18750, Note_on_c, 0, 68, 0
2, 18750, Note_on_c, 0, 70, 80
2, 18761, Note_on_c, 0, 70, 0
2, 18761, Note_on_c, 0, 68, 80
2, 18772, Note_on_c, 0, 68, 0
2, 18772, Note_on_c, 0, 66, 80
2, 18794, Note_on_c, 0, 66, 0
2, 18794, Note_on_c, 0, 68, 80
2, 18816, Note_on_c, 0, 68, 0
2, 18816, Note_on_c, 0, 66, 80
2, 18905, Note_on_c, 0, 66, 0
2, 19008, Note_on_c, 0, 73, 75
2, 19038, Note_on_c, 0, 73, 0
2, 19040, Note_on_c, 0, 70, 75
2, 19070, Note_on_c, 0, 70, 0
2, 19072, Note_on_c, 0, 66, 75
2, 19102, Note_on_c, 0, 66, 0
2, 19104, Note_on_c, 0, 65, 75
2, 19134, Note_on_c, 0, 65, 0
2, 19136, Note_on_c, 0, 68, 75
2, 19166, Note_on_c, 0, 68, 0
2, 19168, Note_on_c, 0, 71, 75
2, 19198, Note_on_c, 0, 71, 0
2, 19200, Note_on_c, 0, 70, 75
2, 19289, Note_on_c, 0, 70, 0
2, 19392, Note_on_c, 0, 85, 70
2, 19422, Note_on_c, 0, 85, 0
2, 19424, Note_on_c, 0, 82, 70
2, 19454, Note_on_c, 0, 82, 0
2, 19456, Note_on_c, 0, 78, 70
2, 19486, Note_on_c, 0, 78, 0
2, 19488, Note_on_c, 0, 83, 70
2, 19518, Note_on_c, 0, 83, 0
2, 19520, Note_on_c, 0, 80, 70
2, 19550, Note_on_c, 0, 80, 0
2, 19552, Note_on_c, 0, 77, 70
2, 19582, Note_on_c, 0, 77, 0
2, 19584, Note_on_c, 0, 78, 70
2, 19584, Note_on_c, 0, 70, 70
2, 19623, Note_on_c, 0, 78, 0
2, 19623, Note_on_c, 0, 70, 0
2, 19680, Note_on_c, 0, 82, 64
2, 19680, Note_on_c, 0, 73, 64
2, 19719, Note_on_c, 0, 82, 0
2, 19719, Note_on_c, 0, 73, 0
2, 19776, Note_on_c, 0, 78, 64
2, 19776, Note_on_c, 0, 70, 64
2, 19865, Note_on_c, 0, 78, 0
2, 19865, Note_on_c, 0, 70, 0
2, 19968, Note_on_c, 0, 83, 64
2, 19968, Note_on_c, 0, 74, 64
2, 20007, Note_on_c, 0, 83, 0
2, 20007, Note_on_c, 0, 74, 0
2, 20064, Note_on_c, 0, 86, 64
2, 20064, Note_on_c, 0, 78, 64
2, 20103, Note_on_c, 0, 86, 0
2, 20103, Note_on_c, 0, 78, 0
2, 20160, Note_on_c, 0, 83, 64
2, 20160, Note_on_c, 0, 74, 64
2, 20249, Note_on_c, 0, 83, 0
2, 20249, Note_on_c, 0, 74, 0
2, 20352, Note_on_c, 0, 78, 64
2, 20352, Note_on_c, 0, 71, 64
2, 20391, Note_on_c, 0, 78, 0
2, 20391, Note_on_c, 0, 71, 0
2, 20448, Note_on_c, 0, 83, 64
2, 20448, Note_on_c, 0, 74, 64
2, 20487, Note_on_c, 0, 83, 0
2, 20487, Note_on_c, 0, 74, 0
2, 20544, Note_on_c, 0, 78, 64
2, 20544, Note_on_c, 0, 71, 64
2, 20633, Note_on_c, 0, 78, 0
2, 20633, Note_on_c, 0, 71, 0
2, 20736, Note_on_c, 0, 74, 64
2, 20736, Note_on_c, 0, 66, 64
2, 20775, Note_on_c, 0, 74, 0
2, 20775, Note_on_c, 0, 66, 0
2, 20832, Note_on_c, 0, 78, 64
2, 20832, Note_on_c, 0, 71, 64
2, 20871, Note_on_c, 0, 78, 0
2, 20871, Note_on_c, 0, 71, 0
2, 20928, Note_on_c, 0, 74, 64
2, 20928, Note_on_c, 0, 66, 64
2, 21017, Note_on_c, 0, 74, 0
2, 21017, Note_on_c, 0, 66, 0
2, 21120, Note_on_c, 0, 79, 80
2, 21120, Note_on_c, 0, 76, 80
2, 21159, Note_on_c, 0, 79, 0
2, 21159, Note_on_c, 0, 76, 0
2, 21216, Note_on_c, 0, 79, 96
2, 21216, Note_on_c, 0, 76, 96
2, 21408, Note_on_c, 0, 79, 0
2, 21408, Note_on_c, 0, 76, 0
2, 21408, Note_on_c, 0, 78, 80
2, 21408, Note_on_c, 0, 74, 80
2, 21456, Note_on_c, 0, 78, 0
2, 21456, Note_on_c, 0, 74, 0
2, 21456, Note_on_c, 0, 76, 80
2, 21456, Note_on_c, 0, 73, 80
2, 21501, Note_on_c, 0, 76, 0
2, 21501, Note_on_c, 0, 73, 0
2, 21504, Note_on_c, 0, 76, 96
2, 21504, Note_on_c, 0, 73, 96
2, 21552, Note_on_c, 0, 76, 0
2, 21552, Note_on_c, 0, 73, 0
2, 21552, Note_on_c, 0, 74, 80
2, 21552, Note_on_c, 0, 71, 80
2, 21597, Note_on_c, 0, 74, 0
2, 21597, Note_on_c, 0, 71, 0
2, 21600, Note_on_c, 0, 74, 96
2, 21600, Note_on_c, 0, 71, 96
2, 21792, Note_on_c, 0, 74, 0
2, 21792, Note_on_c, 0, 71, 0
2, 21792, Note_on_c, 0, 74, 80
2, 21792, Note_on_c, 0, 71, 80
2, 21881, Note_on_c, 0, 74, 0
2, 21881, Note_on_c, 0, 71, 0
2, 21888, Control_c, 0, 64, 127
2, 21888, Note_on_c, 0, 72, 97
2, 21888, Note_on_c, 0, 67, 97
2, 21888, Note_on_c, 0, 64, 97
2, 21977, Note_on_c, 0, 72, 0
2, 21977, Note_on_c, 0, 67, 0
2, 21977, Note_on_c, 0, 64, 0
2, 21984, Note_on_c, 0, 79, 96
2, 21984, Note_on_c, 0, 76, 96
2, 21984, Note_on_c, 0, 72, 96
2, 22176, Note_on_c, 0, 79, 0
2, 22176, Note_on_c, 0, 76, 0
2, 22176, Note_on_c, 0, 72, 0
2, 22176, Control_c, 0, 64, 0
2, 22176, Note_on_c, 0, 70, 80
2, 22176, Note_on_c, 0, 61, 80
2, 22265, Note_on_c, 0, 70, 0
2, 22265, Note_on_c, 0, 61, 0
2, 22272, Note_on_c, 0, 70, 96
2, 22272, Note_on_c, 0, 61, 96
2, 22320, Note_on_c, 0, 70, 0
2, 22320, Note_on_c, 0, 61, 0
2, 22320, Note_on_c, 0, 71, 80
2, 22320, Note_on_c, 0, 62, 80
2, 22365, Note_on_c, 0, 71, 0
2, 22365, Note_on_c, 0, 62, 0
2, 22368, Note_on_c, 0, 71, 96
2, 22368, Note_on_c, 0, 62, 96
2, 22487, Note_on_c, 0, 71, 0
2, 22487, Note_on_c, 0, 62, 0
2, 22488, Note_on_c, 0, 66, 75
2, 22511, Note_on_c, 0, 66, 0
2, 22512, Note_on_c, 0, 68, 75
2, 22535, Note_on_c, 0, 68, 0
2, 22536, Note_on_c, 0, 70, 76
2, 22559, Note_on_c, 0, 70, 0
2, 22560, Note_on_c, 0, 71, 76
2, 22583, Note_on_c, 0, 71, 0
2, 22584, Note_on_c, 0, 73, 77
2, 22607, Note_on_c, 0, 73, 0
2, 22608, Note_on_c, 0, 74, 78
2, 22631, Note_on_c, 0, 74, 0
2, 22632, Note_on_c, 0, 76, 78
2, 22655, Note_on_c, 0, 76, 0
2, 22656, Note_on_c, 0, 78, 95
2, 22680, Note_on_c, 0, 78, 0
2, 22680, Note_on_c, 0, 66, 75
2, 22703, Note_on_c, 0, 66, 0
2, 22704, Note_on_c, 0, 68, 75
2, 22727, Note_on_c, 0, 68, 0
2, 22728, Note_on_c, 0, 70, 76
2, 22751, Note_on_c, 0, 70, 0
2, 22752, Note_on_c, 0, 71, 76
2, 22775, Note_on_c, 0, 71, 0
2, 22776, Note_on_c, 0, 73, 77
2, 22799, Note_on_c, 0, 73, 0
2, 22800, Note_on_c, 0, 74, 78
2, 22823, Note_on_c, 0, 74, 0
2, 22824, Note_on_c, 0, 76, 78
2, 22847, Note_on_c, 0, 76, 0
2, 22848, Note_on_c, 0, 78, 95
2, 22872, Note_on_c, 0, 78, 0
2, 22872, Note_on_c, 0, 66, 75
2, 22895, Note_on_c, 0, 66, 0
2, 22896, Note_on_c, 0, 68, 75
2, 22919, Note_on_c, 0, 68, 0
2, 22920, Note_on_c, 0, 70, 76
2, 22943, Note_on_c, 0, 70, 0
2, 22944, Note_on_c, 0, 71, 77
2, 22963, Note_on_c, 0, 71, 0
2, 22964, Note_on_c, 0, 73, 77
2, 22982, Note_on_c, 0, 73, 0
2, 22983, Note_on_c, 0, 74, 78
2, 23001, Note_on_c, 0, 74, 0
2, 23002, Note_on_c, 0, 76, 78
2, 23020, Note_on_c, 0, 76, 0
2, 23021, Note_on_c, 0, 78, 79
2, 23039, Note_on_c, 0, 78, 0
2, 23040, Note_on_c, 0, 79, 96
2, 23064, Note_on_c, 0, 79, 0
2, 23064, Note_on_c, 0, 67, 75
2, 23087, Note_on_c, 0, 67, 0
2, 23088, Note_on_c, 0, 69, 75
2, 23111, Note_on_c, 0, 69, 0
2, 23112, Note_on_c, 0, 71, 76
2, 23135, Note_on_c, 0, 71, 0
2, 23136, Note_on_c, 0, 72, 76
2, 23159, Note_on_c, 0, 72, 0
2, 23160, Note_on_c, 0, 74, 77
2, 23183, Note_on_c, 0, 74, 0
2, 23184, Note_on_c, 0, 76, 77
2, 23207, Note_on_c, 0, 76, 0
2, 23208, Note_on_c, 0, 78, 78
2, 23231, Note_on_c, 0, 78, 0
2, 23232, Note_on_c, 0, 79, 94
2, 23280, Note_on_c, 0, 79, 0
2, 23280, Note_on_c, 0, 74, 75
2, 23328, Note_on_c, 0, 74, 75
2, 23340, Note_on_c, 0, 74, 0
2, 23340, Note_on_c, 0, 76, 75
2, 23352, Note_on_c, 0, 76, 0
2, 23352, Note_on_c, 0, 74, 75
2, 23417, Note_on_c, 0, 74, 0
2, 23424, Note_on_c, 0, 79, 75
2, 23469, Note_on_c, 0, 79, 0
2, 23472, Note_on_c, 0, 76, 75
2, 23520, Note_on_c, 0, 76, 75
2, 23532, Note_on_c, 0, 76, 0
2, 23532, Note_on_c, 0, 78, 75
2, 23544, Note_on_c, 0, 78, 0
2, 23544, Note_on_c, 0, 76, 75
2, 23609, Note_on_c, 0, 76, 0
2, 23616, Note_on_c, 0, 81, 75
2, 23661, Note_on_c, 0, 81, 0
2, 23664, Note_on_c, 0, 72, 75
2, 23712, Note_on_c, 0, 72, 75
2, 23724, Note_on_c, 0, 72, 0
2, 23724, Note_on_c, 0, 74, 75
2, 23736, Note_on_c, 0, 74, 0
2, 23736, Note_on_c, 0, 72, 75
2, 23801, Note_on_c, 0, 72, 0
2, 23856, Note_on_c, 0, 71, 75
2, 23901, Note_on_c, 0, 71, 0
2, 23952, Note_on_c, 0, 83, 91
2, 24045, Note_on_c, 0, 83, 0
2, 24048, Note_on_c, 0, 81, 77
2, 24137, Note_on_c, 0, 81, 0
2, 24144, Note_on_c, 0, 79, 81
2, 24189, Note_on_c, 0, 79, 0
2, 24192, Note_on_c, 0, 78, 83
2, 24237, Note_on_c, 0, 78, 0
2, 24240, Note_on_c, 0, 86, 102
2, 24336, Note_on_c, 0, 86, 0
2, 24336, Note_on_c, 0, 84, 86
2, 24429, Note_on_c, 0, 84, 0
2, 24432, Note_on_c, 0, 83, 86
2, 24521, Note_on_c, 0, 83, 0
2, 24528, Note_on_c, 0, 81, 86
2, 24617, Note_on_c, 0, 81, 0
2, 24624, Note_on_c, 0, 79, 86
2, 24713, Note_on_c, 0, 79, 0
2, 24720, Note_on_c, 0, 77, 86
2, 24813, Note_on_c, 0, 77, 0
2, 24816, Note_on_c, 0, 76, 86
2, 24905, Note_on_c, 0, 76, 0
2, 24912, Note_on_c, 0, 74, 86
2, 25001, Note_on_c, 0, 74, 0
2, 25008, Note_on_c, 0, 72, 86
2, 25097, Note_on_c, 0, 72, 0
2, 25104, Note_on_c, 0, 70, 86
2, 25197, Note_on_c, 0, 70, 0
2, 25200, Note_on_c, 0, 69, 86
2, 25289, Note_on_c, 0, 69, 0
2, 25296, Note_on_c, 0, 68, 86
2, 25341, Note_on_c, 0, 68, 0
2, 25344, Note_on_c, 0, 69, 86
2, 25433, Note_on_c, 0, 69, 0
2, 25440, Note_on_c, 0, 72, 86
2, 25529, Note_on_c, 0, 72, 0
2, 25536, Note_on_c, 0, 71, 91
2, 25568, Note_on_c, 0, 71, 0
2, 25568, Note_on_c, 0, 67, 75
2, 25598, Note_on_c, 0, 67, 0
2, 25600, Note_on_c, 0, 64, 75
2, 25630, Note_on_c, 0, 64, 0
2, 25632, Note_on_c, 0, 63, 75
2, 25662, Note_on_c, 0, 63, 0
2, 25664, Note_on_c, 0, 66, 75
2, 25694, Note_on_c, 0, 66, 0
2, 25696, Note_on_c, 0, 69, 75
2, 25726, Note_on_c, 0, 69, 0
2, 25728, Note_on_c, 0, 67, 75
2, 25817, Note_on_c, 0, 67, 0
2, 25920, Note_on_c, 0, 67, 75
2, 25950, Note_on_c, 0, 67, 0
2, 25952, Note_on_c, 0, 64, 75
2, 25982, Note_on_c, 0, 64, 0
2, 25984, Note_on_c, 0, 59, 75
2, 26014, Note_on_c, 0, 59, 0
2, 26016, Note_on_c, 0, 55, 75
2, 26046, Note_on_c, 0, 55, 0
2, 26048, Note_on_c, 0, 59, 75
2, 26078, Note_on_c, 0, 59, 0
2, 26080, Note_on_c, 0, 64, 75
2, 26110, Note_on_c, 0, 64, 0
2, 26112, Note_on_c, 0, 66, 75
2, 26142, Note_on_c, 0, 66, 0
2, 26144, Note_on_c, 0, 62, 75
2, 26174, Note_on_c, 0, 62, 0
2, 26176, Note_on_c, 0, 59, 75
2, 26206, Note_on_c, 0, 59, 0
2, 26208, Note_on_c, 0, 54, 75
2, 26238, Note_on_c, 0, 54, 0
2, 26240, Note_on_c, 0, 59, 75
2, 26270, Note_on_c, 0, 59, 0
2, 26272, Note_on_c, 0, 62, 75
2, 26302, Note_on_c, 0, 62, 0
2, 26304, Note_on_c, 0, 66, 75
2, 26334, Note_on_c, 0, 66, 0
2, 26336, Note_on_c, 0, 62, 75
2, 26366, Note_on_c, 0, 62, 0
2, 26368, Note_on_c, 0, 59, 75
2, 26398, Note_on_c, 0, 59, 0
2, 26400, Note_on_c, 0, 54, 75
2, 26430, Note_on_c, 0, 54, 0
2, 26432, Note_on_c, 0, 59, 75
2, 26462, Note_on_c, 0, 59, 0
2, 26464, Note_on_c, 0, 62, 75
2, 26494, Note_on_c, 0, 62, 0
2, 26496, Note_on_c, 0, 67, 75
2, 26526, Note_on_c, 0, 67, 0
2, 26528, Note_on_c, 0, 62, 75
2, 26558, Note_on_c, 0, 62, 0
2, 26560, Note_on_c, 0, 59, 75
2, 26590, Note_on_c, 0, 59, 0
2, 26592, Note_on_c, 0, 55, 75
2, 26622, Note_on_c, 0, 55, 0
2, 26624, Note_on_c, 0, 59, 75
2, 26654, Note_on_c, 0, 59, 0
2, 26656, Note_on_c, 0, 62, 75
2, 26686, Note_on_c, 0, 62, 0
2, 26688, Note_on_c, 0, 67, 75
2, 26718, Note_on_c, 0, 67, 0
2, 26720, Note_on_c, 0, 62, 75
2, 26750, Note_on_c, 0, 62, 0
2, 26752, Note_on_c, 0, 59, 75
2, 26782, Note_on_c, 0, 59, 0
2, 26784, Note_on_c, 0, 55, 75
2, 26814, Note_on_c, 0, 55, 0
2, 26816, Note_on_c, 0, 59, 75
2, 26846, Note_on_c, 0, 59, 0
2, 26848, Note_on_c, 0, 62, 75
2, 26878, Note_on_c, 0, 62, 0
2, 26880, Note_on_c, 0, 67, 75
2, 26880, Note_on_c, 0, 64, 75
2, 26880, Note_on_c, 0, 61, 75
2, 26880, Note_on_c, 0, 58, 75
2, 27168, Note_on_c, 0, 67, 0
2, 27168, Note_on_c, 0, 66, 75
2, 27353, Note_on_c, 0, 66, 0
2, 27353, Note_on_c, 0, 64, 0
2, 27353, Note_on_c, 0, 61, 0
2, 27353, Note_on_c, 0, 58, 0
2, 27480, Note_on_c, 0, 66, 75
2, 27503, Note_on_c, 0, 66, 0
2, 27504, Note_on_c, 0, 68, 75
2, 27527, Note_on_c, 0, 68, 0
2, 27528, Note_on_c, 0, 70, 76
2, 27551, Note_on_c, 0, 70, 0
2, 27552, Note_on_c, 0, 71, 76
2, 27575, Note_on_c, 0, 71, 0
2, 27576, Note_on_c, 0, 73, 77
2, 27599, Note_on_c, 0, 73, 0
2, 27600, Note_on_c, 0, 75, 78
2, 27623, Note_on_c, 0, 75, 0
2, 27624, Note_on_c, 0, 76, 78
2, 27647, Note_on_c, 0, 76, 0
2, 27648, Note_on_c, 0, 78, 95
2, 27672, Note_on_c, 0, 78, 0
2, 27672, Note_on_c, 0, 71, 75
2, 27695, Note_on_c, 0, 71, 0
2, 27696, Note_on_c, 0, 73, 75
2, 27719, Note_on_c, 0, 73, 0
2, 27720, Note_on_c, 0, 75, 76
2, 27743, Note_on_c, 0, 75, 0
2, 27744, Note_on_c, 0, 76, 76
2, 27767, Note_on_c, 0, 76, 0
2, 27768, Note_on_c, 0, 78, 77
2, 27791, Note_on_c, 0, 78, 0
2, 27792, Note_on_c, 0, 80, 77
2, 27815, Note_on_c, 0, 80, 0
2, 27816, Note_on_c, 0, 82, 78
2, 27839, Note_on_c, 0, 82, 0
2, 27840, Note_on_c, 0, 83, 94
2, 27860, Note_on_c, 0, 83, 0
2, 27888, Note_on_c, 0, 78, 75
2, 27908, Note_on_c, 0, 78, 0
2, 27936, Note_on_c, 0, 80, 75
2, 27948, Note_on_c, 0, 80, 0
2, 27948, Note_on_c, 0, 78, 75
2, 27960, Note_on_c, 0, 78, 0
2, 27960, Note_on_c, 0, 80, 75
2, 27972, Note_on_c, 0, 80, 0
2, 27972, Note_on_c, 0, 78, 75
2, 27984, Note_on_c, 0, 78, 0
2, 27984, Note_on_c, 0, 80, 75
2, 27996, Note_on_c, 0, 80, 0
2, 27996, Note_on_c, 0, 78, 75
2, 28008, Note_on_c, 0, 78, 0
2, 28008, Note_on_c, 0, 76, 75
2, 28020, Note_on_c, 0, 76, 0
2, 28020, Note_on_c, 0, 78, 75
2, 28032, Note_on_c, 0, 78, 0
2, 28032, Note_on_c, 0, 83, 75
2, 28052, Note_on_c, 0, 83, 0
2, 28080, Note_on_c, 0, 80, 75
2, 28100, Note_on_c, 0, 80, 0
2, 28128, Note_on_c, 0, 82, 75
2, 28140, Note_on_c, 0, 82, 0
2, 28140, Note_on_c, 0, 80, 75
2, 28152, Note_on_c, 0, 80, 0
2, 28152, Note_on_c, 0, 82, 75
2, 28164, Note_on_c, 0, 82, 0
2, 28164, Note_on_c, 0, 80, 75
2, 28176, Note_on_c, 0, 80, 0
2, 28176, Note_on_c, 0, 82, 75
2, 28188, Note_on_c, 0, 82, 0
2, 28188, Note_on_c, 0, 80, 75
2, 28200, Note_on_c, 0, 80, 0
2, 28200, Note_on_c, 0, 78, 75
2, 28212, Note_on_c, 0, 78, 0
2, 28212, Note_on_c, 0, 80, 75
2, 28224, Note_on_c, 0, 80, 0
2, 28224, Note_on_c, 0, 78, 75
2, 28269, Note_on_c, 0, 78, 0
2, 28272, Note_on_c, 0, 83, 75
2, 28317, Note_on_c, 0, 83, 0
2, 28320, Note_on_c, 0, 76, 76
2, 28332, Note_on_c, 0, 76, 0
2, 28332, Note_on_c, 0, 78, 76
2, 28344, Note_on_c, 0, 78, 0
2, 28344, Note_on_c, 0, 76, 76
2, 28365, Note_on_c, 0, 76, 0
2, 28368, Note_on_c, 0, 83, 92
2, 28416, Note_on_c, 0, 83, 0
2, 28416, Note_on_c, 0, 75, 77
2, 28428, Note_on_c, 0, 75, 0
2, 28428, Note_on_c, 0, 76, 77
2, 28440, Note_on_c, 0, 76, 0
2, 28440, Note_on_c, 0, 75, 77
2, 28464, Note_on_c, 0, 75, 0
2, 28464, Note_on_c, 0, 83, 94
2, 28512, Note_on_c, 0, 83, 0
2, 28560, Note_on_c, 0, 75, 79
2, 28580, Note_on_c, 0, 75, 0
2, 28608, Note_on_c, 0, 75, 96
2, 28608, Note_on_c, 0, 71, 96
2, 28704, Note_on_c, 0, 75, 0
2, 28704, Note_on_c, 0, 71, 0
2, 28704, Note_on_c, 0, 73, 77
2, 28704, Note_on_c, 0, 70, 77
2, 28793, Note_on_c, 0, 73, 0
2, 28793, Note_on_c, 0, 70, 0
2, 28944, Note_on_c, 0, 62, 75
2, 28944, Note_on_c, 0, 59, 75
2, 28964, Note_on_c, 0, 62, 0
2, 28964, Note_on_c, 0, 59, 0
2, 28992, Note_on_c, 0, 62, 91
2, 28992, Note_on_c, 0, 59, 91
2, 29088, Note_on_c, 0, 62, 0
2, 29088, Note_on_c, 0, 59, 0
2, 29088, Note_on_c, 0, 61, 75
2, 29088, Note_on_c, 0, 58, 75
2, 29177, Note_on_c, 0, 61, 0
2, 29177, Note_on_c, 0, 58, 0
2, 29376, Note_on_c, 0, 78, 75
2, 29399, Note_on_c, 0, 78, 0
2, 29400, Note_on_c, 0, 75, 75
2, 29423, Note_on_c, 0, 75, 0
2, 29424, Note_on_c, 0, 71, 75
2, 29447, Note_on_c, 0, 71, 0
2, 29448, Note_on_c, 0, 66, 75
2, 29471, Note_on_c, 0, 66, 0
2, 29472, Note_on_c, 0, 72, 75
2, 29496, Note_on_c, 0, 72, 0
2, 29496, Note_on_c, 0, 73, 75
2, 29519, Note_on_c, 0, 73, 0
2, 29520, Note_on_c, 0, 73, 91
2, 29591, Note_on_c, 0, 73, 0
2, 29592, Note_on_c, 0, 75, 75
2, 29615, Note_on_c, 0, 75, 0
2, 29616, Note_on_c, 0, 76, 75
2, 29639, Note_on_c, 0, 76, 0
2, 29640, Note_on_c, 0, 75, 75
2, 29663, Note_on_c, 0, 75, 0
2, 29664, Note_on_c, 0, 73, 75
2, 29687, Note_on_c, 0, 73, 0
2, 29688, Note_on_c, 0, 71, 75
2, 29711, Note_on_c, 0, 71, 0
2, 29712, Note_on_c, 0, 70, 75
2, 29735, Note_on_c, 0, 70, 0
2, 29736, Note_on_c, 0, 68, 75
2, 29759, Note_on_c, 0, 68, 0
2, 29760, Note_on_c, 0, 66, 75
2, 29805, Note_on_c, 0, 66, 0
2, 29808, Note_on_c, 0, 77, 75
2, 29832, Note_on_c, 0, 77, 0
2, 29832, Note_on_c, 0, 78, 75
2, 29855, Note_on_c, 0, 78, 0
2, 29856, Note_on_c, 0, 76, 75
2, 29879, Note_on_c, 0, 76, 0
2, 29880, Note_on_c, 0, 75, 75
2, 29903, Note_on_c, 0, 75, 0
2, 29904, Note_on_c, 0, 73, 75
2, 29927, Note_on_c, 0, 73, 0
2, 29928, Note_on_c, 0, 71, 75
2, 29951, Note_on_c, 0, 71, 0
2, 29952, Note_on_c, 0, 73, 75
2, 29964, Note_on_c, 0, 73, 0
2, 29964, Note_on_c, 0, 75, 75
2, 29976, Note_on_c, 0, 75, 0
2, 29976, Note_on_c, 0, 73, 75
2, 29988, Note_on_c, 0, 73, 0
2, 29988, Note_on_c, 0, 75, 75
2, 30000, Note_on_c, 0, 75, 0
2, 30000, Note_on_c, 0, 73, 75
2, 30012, Note_on_c, 0, 73, 0
2, 30012, Note_on_c, 0, 75, 75
2, 30023, Note_on_c, 0, 75, 0
2, 30023, Note_on_c, 0, 73, 75
2, 30034, Note_on_c, 0, 73, 0
2, 30034, Note_on_c, 0, 75, 75
2, 30045, Note_on_c, 0, 75, 0
2, 30045, Note_on_c, 0, 73, 75
2, 30056, Note_on_c, 0, 73, 0
2, 30056, Note_on_c, 0, 75, 75
2, 30067, Note_on_c, 0, 75, 0
2, 30067, Note_on_c, 0, 73, 75
2, 30078, Note_on_c, 0, 73, 0
2, 30078, Note_on_c, 0, 75, 75
2, 30089, Note_on_c, 0, 75, 0
2, 30089, Note_on_c, 0, 73, 75
2, 30100, Note_on_c, 0, 73, 0
2, 30100, Note_on_c, 0, 71, 75
2, 30122, Note_on_c, 0, 71, 0
2, 30122, Note_on_c, 0, 73, 75
2, 30144, Note_on_c, 0, 73, 0
2, 30144, Note_on_c, 0, 71, 75
2, 30167, Note_on_c, 0, 71, 0
2, 30168, Note_on_c, 0, 54, 75
2, 30191, Note_on_c, 0, 54, 0
2, 30192, Note_on_c, 0, 56, 75
2, 30215, Note_on_c, 0, 56, 0
2, 30216, Note_on_c, 0, 58, 75
2, 30239, Note_on_c, 0, 58, 0
2, 30240, Note_on_c, 0, 59, 75
2, 30263, Note_on_c, 0, 59, 0
2, 30264, Note_on_c, 0, 61, 75
2, 30287, Note_on_c, 0, 61, 0
2, 30288, Note_on_c, 0, 63, 75
2, 30311, Note_on_c, 0, 63, 0
2, 30312, Note_on_c, 0, 64, 75
2, 30335, Note_on_c, 0, 64, 0
2, 30336, Note_on_c, 0, 66, 75
2, 30346, Note_on_c, 0, 66, 0
2, 30360, Note_on_c, 0, 66, 75
2, 30383, Note_on_c, 0, 66, 0
2, 30384, Note_on_c, 0, 68, 75
2, 30407, Note_on_c, 0, 68, 0
2, 30408, Note_on_c, 0, 70, 75
2, 30431, Note_on_c, 0, 70, 0
2, 30432, Note_on_c, 0, 71, 75
2, 30455, Note_on_c, 0, 71, 0
2, 30456, Note_on_c, 0, 73, 75
2, 30479, Note_on_c, 0, 73, 0
2, 30480, Note_on_c, 0, 75, 75
2, 30503, Note_on_c, 0, 75, 0
2, 30504, Note_on_c, 0, 76, 75
2, 30527, Note_on_c, 0, 76, 0
2, 30528, Note_on_c, 0, 78, 91
2, 30576, Note_on_c, 0, 78, 0
2, 30600, Note_on_c, 0, 77, 75
2, 30624, Note_on_c, 0, 77, 0
2, 30624, Note_on_c, 0, 78, 75
2, 30669, Note_on_c, 0, 78, 0
2, 30696, Note_on_c, 0, 77, 75
2, 30720, Note_on_c, 0, 77, 0
2, 30720, Note_on_c, 0, 78, 75
2, 30809, Note_on_c, 0, 78, 0
2, 30912, Note_on_c, 0, 80, 96
2, 30912, Note_on_c, 0, 76, 96
2, 30960, Note_on_c, 0, 80, 0
2, 30960, Note_on_c, 0, 76, 0
2, 30960, Note_on_c, 0, 78, 79
2, 30960, Note_on_c, 0, 75, 79
2, 31005, Note_on_c, 0, 78, 0
2, 31005, Note_on_c, 0, 75, 0
2, 31008, Note_on_c, 0, 76, 78
2, 31008, Note_on_c, 0, 73, 78
2, 31056, Note_on_c, 0, 76, 0
2, 31056, Note_on_c, 0, 73, 0
2, 31056, Note_on_c, 0, 75, 78
2, 31056, Note_on_c, 0, 71, 78
2, 31101, Note_on_c, 0, 75, 0
2, 31101, Note_on_c, 0, 71, 0
2, 31104, Note_on_c, 0, 78, 93
2, 31104, Note_on_c, 0, 75, 93
2, 31152, Note_on_c, 0, 78, 0
2, 31152, Note_on_c, 0, 75, 0
2, 31152, Note_on_c, 0, 76, 76
2, 31152, Note_on_c, 0, 73, 76
2, 31197, Note_on_c, 0, 76, 0
2, 31197, Note_on_c, 0, 73, 0
2, 31200, Note_on_c, 0, 75, 76
2, 31200, Note_on_c, 0, 71, 76
2, 31248, Note_on_c, 0, 75, 0
2, 31248, Note_on_c, 0, 71, 0
2, 31248, Note_on_c, 0, 73, 75
2, 31248, Note_on_c, 0, 70, 75
2, 31293, Note_on_c, 0, 73, 0
2, 31293, Note_on_c, 0, 70, 0
2, 31296, Note_on_c, 0, 71, 75
2, 31320, Note_on_c, 0, 71, 0
2, 31320, Note_on_c, 0, 66, 75
2, 31343, Note_on_c, 0, 66, 0
2, 31344, Note_on_c, 0, 66, 96
2, 31440, Note_on_c, 0, 66, 0
2, 31440, Note_on_c, 0, 71, 80
2, 31529, Note_on_c, 0, 71, 0
2, 31536, Note_on_c, 0, 75, 80
2, 31607, Note_on_c, 0, 75, 0
2, 31614, Note_on_c, 0, 73, 80
2, 31620, Note_on_c, 0, 73, 0
2, 31620, Note_on_c, 0, 71, 80
2, 31626, Note_on_c, 0, 71, 0
2, 31626, Note_on_c, 0, 70, 80
2, 31632, Note_on_c, 0, 70, 0
2, 31632, Note_on_c, 0, 71, 80
2, 31677, Note_on_c, 0, 71, 0
2, 31680, Note_on_c, 0, 70, 80
2, 31700, Note_on_c, 0, 70, 0
2, 31728, Note_on_c, 0, 73, 97
2, 31824, Note_on_c, 0, 73, 0
2, 31824, Note_on_c, 0, 76, 83
2, 31913, Note_on_c, 0, 76, 0
2, 31920, Note_on_c, 0, 79, 86
2, 32009, Note_on_c, 0, 79, 0
2, 32016, Note_on_c, 0, 70, 84
2, 32061, Note_on_c, 0, 70, 0
2, 32064, Note_on_c, 0, 71, 83
2, 32084, Note_on_c, 0, 71, 0
2, 32112, Note_on_c, 0, 71, 98
2, 32208, Note_on_c, 0, 71, 0
2, 32208, Note_on_c, 0, 71, 80
2, 32297, Note_on_c, 0, 71, 0
2, 32304, Note_on_c, 0, 71, 80
2, 32375, Note_on_c, 0, 71, 0
2, 32382, Note_on_c, 0, 73, 80
2, 32388, Note_on_c, 0, 73, 0
2, 32388, Note_on_c, 0, 71, 80
2, 32394, Note_on_c, 0, 71, 0
2, 32394, Note_on_c, 0, 70, 80
2, 32400, Note_on_c, 0, 70, 0
2, 32400, Note_on_c, 0, 71, 80
2, 32445, Note_on_c, 0, 71, 0
2, 32448, Note_on_c, 0, 71, 80
2, 32468, Note_on_c, 0, 71, 0
2, 32496, Note_on_c, 0, 83, 96
2, 32496, Note_on_c, 0, 71, 96
2, 32592, Note_on_c, 0, 83, 0
2, 32592, Note_on_c, 0, 71, 0
2, 32592, Note_on_c, 0, 83, 80
2, 32592, Note_on_c, 0, 71, 80
2, 32681, Note_on_c, 0, 83, 0
2, 32681, Note_on_c, 0, 71, 0
2, 32688, Note_on_c, 0, 83, 80
2, 32688, Note_on_c, 0, 71, 80
2, 32755, Note_on_c, 0, 83, 0
2, 32755, Note_on_c, 0, 71, 0
2, 32760, Note_on_c, 0, 83, 80
2, 32760, Note_on_c, 0, 71, 80
2, 32770, Note_on_c, 0, 83, 0
2, 32770, Note_on_c, 0, 71, 0
2, 32784, Note_on_c, 0, 83, 80
2, 32784, Note_on_c, 0, 71, 80
2, 32794, Note_on_c, 0, 83, 0
2, 32794, Note_on_c, 0, 71, 0
2, 32808, Note_on_c, 0, 83, 80
2, 32808, Note_on_c, 0, 71, 80
2, 32818, Note_on_c, 0, 83, 0
2, 32818, Note_on_c, 0, 71, 0
2, 32832, Note_on_c, 0, 83, 96
2, 32832, Note_on_c, 0, 71, 96
2, 32976, Note_on_c, 0, 83, 0
2, 32976, Note_on_c, 0, 71, 0
2, 32976, Note_on_c, 0, 82, 80
2, 32976, Note_on_c, 0, 70, 80
2, 33024, Note_on_c, 0, 82, 0
2, 33024, Note_on_c, 0, 70, 0
2, 33024, Note_on_c, 0, 83, 80
2, 33024, Note_on_c, 0, 71, 80
2, 33044, Note_on_c, 0, 83, 0
2, 33044, Note_on_c, 0, 71, 0
2, 33072, Note_on_c, 0, 82, 80
2, 33072, Note_on_c, 0, 70, 80
2, 33120, Note_on_c, 0, 82, 0
2, 33120, Note_on_c, 0, 70, 0
2, 33120, Note_on_c, 0, 83, 80
2, 33120, Note_on_c, 0, 71, 80
2, 33140, Note_on_c, 0, 83, 0
2, 33140, Note_on_c, 0, 71, 0
2, 33168, Note_on_c, 0, 82, 80
2, 33168, Note_on_c, 0, 70, 80
2, 33216, Note_on_c, 0, 82, 0
2, 33216, Note_on_c, 0, 70, 0
2, 33216, Note_on_c, 0, 83, 80
2, 33216, Note_on_c, 0, 71, 80
2, 33236, Note_on_c, 0, 83, 0
2, 33236, Note_on_c, 0, 71, 0
2, 33264, Note_on_c, 0, 86, 80
2, 33264, Note_on_c, 0, 74, 80
2, 33309, Note_on_c, 0, 86, 0
2, 33309, Note_on_c, 0, 74, 0
2, 33312, Note_on_c, 0, 85, 80
2, 33312, Note_on_c, 0, 73, 80
2, 33357, Note_on_c, 0, 85, 0
2, 33357, Note_on_c, 0, 73, 0
2, 33360, Note_on_c, 0, 83, 80
2, 33360, Note_on_c, 0, 71, 80
2, 33405, Note_on_c, 0, 83, 0
2, 33405, Note_on_c, 0, 71, 0
2, 33456, Note_on_c, 0, 77, 80
2, 33501, Note_on_c, 0, 77, 0
2, 33504, Note_on_c, 0, 76, 80
2, 33549, Note_on_c, 0, 76, 0
2, 33552, Note_on_c, 0, 74, 80
2, 33597, Note_on_c, 0, 74, 0
2, 33648, Note_on_c, 0, 88, 80
2, 33648, Note_on_c, 0, 84, 80
2, 33693, Note_on_c, 0, 88, 0
2, 33693, Note_on_c, 0, 84, 0
2, 33696, Note_on_c, 0, 86, 80
2, 33696, Note_on_c, 0, 83, 80
2, 33741, Note_on_c, 0, 86, 0
2, 33741, Note_on_c, 0, 83, 0
2, 33744, Note_on_c, 0, 84, 80
2, 33744, Note_on_c, 0, 81, 80
2, 33789, Note_on_c, 0, 84, 0
2, 33789, Note_on_c, 0, 81, 0
2, 33840, Note_on_c, 0, 76, 80
2, 33840, Note_on_c, 0, 72, 80
2, 33885, Note_on_c, 0, 76, 0
2, 33885, Note_on_c, 0, 72, 0
2, 33888, Note_on_c, 0, 74, 80
2, 33888, Note_on_c, 0, 71, 80
2, 33933, Note_on_c, 0, 74, 0
2, 33933, Note_on_c, 0, 71, 0
2, 33936, Note_on_c, 0, 72, 80
2, 33936, Note_on_c, 0, 69, 80
2, 33981, Note_on_c, 0, 72, 0
2, 33981, Note_on_c, 0, 69, 0
2, 33984, Note_on_c, 0, 70, 80
2, 33996, Note_on_c, 0, 70, 0
2, 33997, Note_on_c, 0, 72, 80
2, 34009, Note_on_c, 0, 72, 0
2, 34010, Note_on_c, 0, 70, 80
2, 34022, Note_on_c, 0, 70, 0
2, 34023, Note_on_c, 0, 72, 80
2, 34035, Note_on_c, 0, 72, 0
2, 34036, Note_on_c, 0, 70, 80
2, 34048, Note_on_c, 0, 70, 0
2, 34049, Note_on_c, 0, 72, 80
2, 34061, Note_on_c, 0, 72, 0
2, 34062, Note_on_c, 0, 70, 80
2, 34074, Note_on_c, 0, 70, 0
2, 34075, Note_on_c, 0, 72, 80
2, 34087, Note_on_c, 0, 72, 0
2, 34088, Note_on_c, 0, 70, 80
2, 34100, Note_on_c, 0, 70, 0
2, 34101, Note_on_c, 0, 72, 80
2, 34113, Note_on_c, 0, 72, 0
2, 34114, Note_on_c, 0, 70, 80
2, 34126, Note_on_c, 0, 70, 0
2, 34127, Note_on_c, 0, 69, 80
2, 34152, Note_on_c, 0, 69, 0
2, 34152, Note_on_c, 0, 70, 80
2, 34176, Note_on_c, 0, 70, 0
2, 34176, Note_on_c, 0, 69, 80
2, 34265, Note_on_c, 0, 69, 0
2, 34368, Note_on_c, 0, 70, 80
2, 34560, Note_on_c, 0, 70, 0
2, 34560, Note_on_c, 0, 71, 80
2, 34583, Note_on_c, 0, 71, 0
2, 34584, Note_on_c, 0, 66, 80
2, 34607, Note_on_c, 0, 66, 0
2, 34608, Note_on_c, 0, 68, 80
2, 34631, Note_on_c, 0, 68, 0
2, 34632, Note_on_c, 0, 70, 80
2, 34655, Note_on_c, 0, 70, 0
2, 34656, Note_on_c, 0, 71, 80
2, 34679, Note_on_c, 0, 71, 0
2, 34680, Note_on_c, 0, 73, 80
2, 34703, Note_on_c, 0, 73, 0
2, 34704, Note_on_c, 0, 75, 80
2, 34727, Note_on_c, 0, 75, 0
2, 34728, Note_on_c, 0, 76, 80
2, 34751, Note_on_c, 0, 76, 0
2, 34752, Note_on_c, 0, 78, 80
2, 34775, Note_on_c, 0, 78, 0
2, 34776, Note_on_c, 0, 82, 80
2, 34799, Note_on_c, 0, 82, 0
2, 34800, Note_on_c, 0, 83, 80
2, 34823, Note_on_c, 0, 83, 0
2, 34824, Note_on_c, 0, 78, 80
2, 34847, Note_on_c, 0, 78, 0
2, 34848, Note_on_c, 0, 76, 80
2, 34871, Note_on_c, 0, 76, 0
2, 34872, Note_on_c, 0, 75, 80
2, 34895, Note_on_c, 0, 75, 0
2, 34896, Note_on_c, 0, 73, 80
2, 34919, Note_on_c, 0, 73, 0
2, 34920, Note_on_c, 0, 71, 80
2, 34943, Note_on_c, 0, 71, 0
2, 34944, Note_on_c, 0, 73, 80
2, 34956, Note_on_c, 0, 73, 0
2, 34956, Note_on_c, 0, 75, 80
2, 34968, Note_on_c, 0, 75, 0
2, 34968, Note_on_c, 0, 73, 80
2, 34980, Note_on_c, 0, 73, 0
2, 34980, Note_on_c, 0, 75, 80
2, 34992, Note_on_c, 0, 75, 0
2, 34992, Note_on_c, 0, 73, 80
2, 35004, Note_on_c, 0, 73, 0
2, 35004, Note_on_c, 0, 75, 80
2, 35015, Note_on_c, 0, 75, 0
2, 35015, Note_on_c, 0, 73, 80
2, 35026, Note_on_c, 0, 73, 0
2, 35026, Note_on_c, 0, 75, 80
2, 35037, Note_on_c, 0, 75, 0
2, 35037, Note_on_c, 0, 73, 80
2, 35048, Note_on_c, 0, 73, 0
2, 35048, Note_on_c, 0, 75, 80
2, 35059, Note_on_c, 0, 75, 0
2, 35059, Note_on_c, 0, 73, 80
2, 35070, Note_on_c, 0, 73, 0
2, 35070, Note_on_c, 0, 75, 80
2, 35081, Note_on_c, 0, 75, 0
2, 35081, Note_on_c, 0, 73, 80
2, 35092, Note_on_c, 0, 73, 0
2, 35092, Note_on_c, 0, 71, 80
2, 35114, Note_on_c, 0, 71, 0
2, 35114, Note_on_c, 0, 73, 80
2, 35136, Note_on_c, 0, 73, 0
2, 35136, Note_on_c, 0, 71, 80
2, 35225, Note_on_c, 0, 71, 0
2, 35328, Note_on_c, 0, 78, 75
2, 35358, Note_on_c, 0, 78, 0
2, 35360, Note_on_c, 0, 75, 75
2, 35390, Note_on_c, 0, 75, 0
2, 35392, Note_on_c, 0, 71, 75
2, 35422, Note_on_c, 0, 71, 0
2, 35424, Note_on_c, 0, 70, 75
2, 35454, Note_on_c, 0, 70, 0
2, 35456, Note_on_c, 0, 73, 75
2, 35486, Note_on_c, 0, 73, 0
2, 35488, Note_on_c, 0, 76, 75
2, 35518, Note_on_c, 0, 76, 0
2, 35520, Note_on_c, 0, 78, 75
2, 35538, Note_on_c, 0, 78, 0
2, 35538, Note_on_c, 0, 76, 75
2, 35616, Note_on_c, 0, 76, 0
2, 35616, Note_on_c, 0, 75, 75
2, 35705, Note_on_c, 0, 75, 0
2, 35712, Note_on_c, 0, 66, 80
2, 35742, Note_on_c, 0, 66, 0
2, 35744, Note_on_c, 0, 63, 80
2, 35774, Note_on_c, 0, 63, 0
2, 35776, Note_on_c, 0, 59, 80
2, 35806, Note_on_c, 0, 59, 0
2, 35808, Note_on_c, 0, 64, 80
2, 35838, Note_on_c, 0, 64, 0
2, 35840, Note_on_c, 0, 61, 80
2, 35870, Note_on_c, 0, 61, 0
2, 35872, Note_on_c, 0, 58, 80
2, 35902, Note_on_c, 0, 58, 0
2, 35904, Note_on_c, 0, 59, 80
2, 35943, Note_on_c, 0, 59, 0
2, 36000, Note_on_c, 0, 71, 80
2, 36000, Note_on_c, 0, 66, 80
2, 36000, Note_on_c, 0, 63, 80
2, 36000, Note_on_c, 0, 59, 80
2, 36039, Note_on_c, 0, 71, 0
2, 36039, Note_on_c, 0, 66, 0
2, 36039, Note_on_c, 0, 63, 0
2, 36039, Note_on_c, 0, 59, 0
2, 36096, Note_on_c, 0, 71, 80
2, 36096, Note_on_c, 0, 66, 80
2, 36096, Note_on_c, 0, 63, 80
2, 36096, Note_on_c, 0, 59, 80
2, 36185, Note_on_c, 0, 71, 0
2, 36185, Note_on_c, 0, 66, 0
2, 36185, Note_on_c, 0, 63, 0
2, 36185, Note_on_c, 0, 59, 0
2, 36288, Note_on_c, 0, 83, 64
2, 36288, Note_on_c, 0, 74, 64
2, 36327, Note_on_c, 0, 83, 0
2, 36327, Note_on_c, 0, 74, 0
2, 36384, Note_on_c, 0, 86, 64
2, 36384, Note_on_c, 0, 78, 64
2, 36423, Note_on_c, 0, 86, 0
2, 36423, Note_on_c, 0, 78, 0
2, 36480, Note_on_c, 0, 83, 64
2, 36480, Note_on_c, 0, 74, 64
2, 36569, Note_on_c, 0, 83, 0
2, 36569, Note_on_c, 0, 74, 0
2, 36672, Note_on_c, 0, 78, 64
2, 36672, Note_on_c, 0, 71, 64
2, 36711, Note_on_c, 0, 78, 0
2, 36711, Note_on_c, 0, 71, 0
2, 36768, Note_on_c, 0, 83, 64
2, 36768, Note_on_c, 0, 74, 64
2, 36807, Note_on_c, 0, 83, 0
2, 36807, Note_on_c, 0, 74, 0
2, 36864, Note_on_c, 0, 78, 64
2, 36864, Note_on_c, 0, 71, 64
2, 36953, Note_on_c, 0, 78, 0
2, 36953, Note_on_c, 0, 71, 0
2, 37056, Note_on_c, 0, 74, 64
2, 37056, Note_on_c, 0, 66, 64
2, 37095, Note_on_c, 0, 74, 0
2, 37095, Note_on_c, 0, 66, 0
2, 37152, Note_on_c, 0, 78, 64
2, 37152, Note_on_c, 0, 71, 64
2, 37191, Note_on_c, 0, 78, 0
2, 37191, Note_on_c, 0, 71, 0
2, 37248, Note_on_c, 0, 74, 64
2, 37248, Note_on_c, 0, 66, 64
2, 37337, Note_on_c, 0, 74, 0
2, 37337, Note_on_c, 0, 66, 0
2, 37440, Note_on_c, 0, 79, 80
2, 37440, Note_on_c, 0, 76, 80
2, 37479, Note_on_c, 0, 79, 0
2, 37479, Note_on_c, 0, 76, 0
2, 37536, Note_on_c, 0, 79, 96
2, 37536, Note_on_c, 0, 76, 96
2, 37728, Note_on_c, 0, 79, 0
2, 37728, Note_on_c, 0, 76, 0
2, 37728, Note_on_c, 0, 78, 80
2, 37728, Note_on_c, 0, 74, 80
2, 37776, Note_on_c, 0, 78, 0
2, 37776, Note_on_c, 0, 74, 0
2, 37776, Note_on_c, 0, 76, 80
2, 37776, Note_on_c, 0, 73, 80
2, 37821, Note_on_c, 0, 76, 0
2, 37821, Note_on_c, 0, 73, 0
2, 37824, Note_on_c, 0, 76, 96
2, 37824, Note_on_c, 0, 73, 96
2, 37872, Note_on_c, 0, 76, 0
2, 37872, Note_on_c, 0, 73, 0
2, 37872, Note_on_c, 0, 74, 80
2, 37872, Note_on_c, 0, 71, 80
2, 37917, Note_on_c, 0, 74, 0
2, 37917, Note_on_c, 0, 71, 0
2, 37920, Note_on_c, 0, 74, 96
2, 37920, Note_on_c, 0, 71, 96
2, 38112, Note_on_c, 0, 74, 0
2, 38112, Note_on_c, 0, 71, 0
2, 38112, Note_on_c, 0, 74, 80
2, 38112, Note_on_c, 0, 71, 80
2, 38201, Note_on_c, 0, 74, 0
2, 38201, Note_on_c, 0, 71, 0
2, 38208, Control_c, 0, 64, 127
2, 38208, Note_on_c, 0, 72, 97
2, 38208, Note_on_c, 0, 67, 97
2, 38208, Note_on_c, 0, 64, 97
2, 38297, Note_on_c, 0, 72, 0
2, 38297, Note_on_c, 0, 67, 0
2, 38297, Note_on_c, 0, 64, 0
2, 38304, Note_on_c, 0, 79, 96
2, 38304, Note_on_c, 0, 76, 96
2, 38304, Note_on_c, 0, 72, 96
2, 38496, Note_on_c, 0, 79, 0
2, 38496, Note_on_c, 0, 76, 0
2, 38496, Note_on_c, 0, 72, 0
2, 38496, Control_c, 0, 64, 0
2, 38496, Note_on_c, 0, 70, 80
2, 38496, Note_on_c, 0, 61, 80
2, 38585, Note_on_c, 0, 70, 0
2, 38585, Note_on_c, 0, 61, 0
2, 38592, Note_on_c, 0, 70, 96
2, 38592, Note_on_c, 0, 61, 96
2, 38640, Note_on_c, 0, 70, 0
2, 38640, Note_on_c, 0, 61, 0
2, 38640, Note_on_c, 0, 71, 80
2, 38640, Note_on_c, 0, 62, 80
2, 38685, Note_on_c, 0, 71, 0
2, 38685, Note_on_c, 0, 62, 0
2, 38688, Note_on_c, 0, 71, 96
2, 38688, Note_on_c, 0, 62, 96
2, 38807, Note_on_c, 0, 71, 0
2, 38807, Note_on_c, 0, 62, 0
2, 38808, Note_on_c, 0, 66, 75
2, 38831, Note_on_c, 0, 66, 0
2, 38832, Note_on_c, 0, 68, 75
2, 38855, Note_on_c, 0, 68, 0
2, 38856, Note_on_c, 0, 70, 76
2, 38879, Note_on_c, 0, 70, 0
2, 38880, Note_on_c, 0, 71, 76
2, 38903, Note_on_c, 0, 71, 0
2, 38904, Note_on_c, 0, 73, 77
2, 38927, Note_on_c, 0, 73, 0
2, 38928, Note_on_c, 0, 74, 78
2, 38951, Note_on_c, 0, 74, 0
2, 38952, Note_on_c, 0, 76, 78
2, 38975, Note_on_c, 0, 76, 0
2, 38976, Note_on_c, 0, 78, 95
2, 39000, Note_on_c, 0, 78, 0
2, 39000, Note_on_c, 0, 66, 75
2, 39023, Note_on_c, 0, 66, 0
2, 39024, Note_on_c, 0, 68, 75
2, 39047, Note_on_c, 0, 68, 0
2, 39048, Note_on_c, 0, 70, 76
2, 39071, Note_on_c, 0, 70, 0
2, 39072, Note_on_c, 0, 71, 76
2, 39095, Note_on_c, 0, 71, 0
2, 39096, Note_on_c, 0, 73, 77
2, 39119, Note_on_c, 0, 73, 0
2, 39120, Note_on_c, 0, 74, 78
2, 39143, Note_on_c, 0, 74, 0
2, 39144, Note_on_c, 0, 76, 78
2, 39167, Note_on_c, 0, 76, 0
2, 39168, Note_on_c, 0, 78, 95
2, 39192, Note_on_c, 0, 78, 0
2, 39192, Note_on_c, 0, 66, 75
2, 39215, Note_on_c, 0, 66, 0
2, 39216, Note_on_c, 0, 68, 75
2, 39239, Note_on_c, 0, 68, 0
2, 39240, Note_on_c, 0, 70, 76
2, 39263, Note_on_c, 0, 70, 0
2, 39264, Note_on_c, 0, 71, 77
2, 39283, Note_on_c, 0, 71, 0
2, 39284, Note_on_c, 0, 73, 77
2, 39302, Note_on_c, 0, 73, 0
2, 39303, Note_on_c, 0, 74, 78
2, 39321, Note_on_c, 0, 74, 0
2, 39322, Note_on_c, 0, 76, 78
2, 39340, Note_on_c, 0, 76, 0
2, 39341, Note_on_c, 0, 78, 79
2, 39359, Note_on_c, 0, 78, 0
2, 39360, Note_on_c, 0, 79, 96
2, 39384, Note_on_c, 0, 79, 0
2, 39384, Note_on_c, 0, 67, 75
2, 39407, Note_on_c, 0, 67, 0
2, 39408, Note_on_c, 0, 69, 75
2, 39431, Note_on_c, 0, 69, 0
2, 39432, Note_on_c, 0, 71, 76
2, 39455, Note_on_c, 0, 71, 0
2, 39456, Note_on_c, 0, 72, 76
2, 39479, Note_on_c, 0, 72, 0
2, 39480, Note_on_c, 0, 74, 77
2, 39503, Note_on_c, 0, 74, 0
2, 39504, Note_on_c, 0, 76, 77
2, 39527, Note_on_c, 0, 76, 0
2, 39528, Note_on_c, 0, 78, 78
2, 39551, Note_on_c, 0, 78, 0
2, 39552, Note_on_c, 0, 79, 94
2, 39600, Note_on_c, 0, 79, 0
2, 39600, Note_on_c, 0, 74, 75
2, 39648, Note_on_c, 0, 74, 75
2, 39660, Note_on_c, 0, 74, 0
2, 39660, Note_on_c, 0, 76, 75
2, 39672, Note_on_c, 0, 76, 0
2, 39672, Note_on_c, 0, 74, 75
2, 39737, Note_on_c, 0, 74, 0
2, 39744, Note_on_c, 0, 79, 75
2, 39789, Note_on_c, 0, 79, 0
2, 39792, Note_on_c, 0, 76, 75
2, 39840, Note_on_c, 0, 76, 75
2, 39852, Note_on_c, 0, 76, 0
2, 39852, Note_on_c, 0, 78, 75
2, 39864, Note_on_c, 0, 78, 0
2, 39864, Note_on_c, 0, 76, 75
2, 39929, Note_on_c, 0, 76, 0
2, 39936, Note_on_c, 0, 81, 75
2, 39981, Note_on_c, 0, 81, 0
2, 39984, Note_on_c, 0, 72, 75
2, 40032, Note_on_c, 0, 72, 75
2, 40044, Note_on_c, 0, 72, 0
2, 40044, Note_on_c, 0, 74, 75
2, 40056, Note_on_c, 0, 74, 0
2, 40056, Note_on_c, 0, 72, 75
2, 40121, Note_on_c, 0, 72, 0
2, 40176, Note_on_c, 0, 71, 75
2, 40221, Note_on_c, 0, 71, 0
2, 40272, Note_on_c, 0, 83, 91
2, 40365, Note_on_c, 0, 83, 0
2, 40368, Note_on_c, 0, 81, 77
2, 40457, Note_on_c, 0, 81, 0
2, 40464, Note_on_c, 0, 79, 81
2, 40509, Note_on_c, 0, 79, 0
2, 40512, Note_on_c, 0, 78, 83
2, 40557, Note_on_c, 0, 78, 0
2, 40560, Note_on_c, 0, 86, 102
2, 40656, Note_on_c, 0, 86, 0
2, 40656, Note_on_c, 0, 84, 86
2, 40749, Note_on_c, 0, 84, 0
2, 40752, Note_on_c, 0, 83, 86
2, 40841, Note_on_c, 0, 83, 0
2, 40848, Note_on_c, 0, 81, 86
2, 40937, Note_on_c, 0, 81, 0
2, 40944, Note_on_c, 0, 79, 86
2, 41033, Note_on_c, 0, 79, 0
2, 41040, Note_on_c, 0, 77, 86
2, 41133, Note_on_c, 0, 77, 0
2, 41136, Note_on_c, 0, 76, 86
2, 41225, Note_on_c, 0, 76, 0
2, 41232, Note_on_c, 0, 74, 86
2, 41321, Note_on_c, 0, 74, 0
2, 41328, Note_on_c, 0, 72, 86
2, 41417, Note_on_c, 0, 72, 0
2, 41424, Note_on_c, 0, 70, 86
2, 41517, Note_on_c, 0, 70, 0
2, 41520, Note_on_c, 0, 69, 86
2, 41609, Note_on_c, 0, 69, 0
2, 41616, Note_on_c, 0, 68, 86
2, 41661, Note_on_c, 0, 68, 0
2, 41664, Note_on_c, 0, 69, 86
2, 41753, Note_on_c, 0, 69, 0
2, 41760, Note_on_c, 0, 72, 86
2, 41849, Note_on_c, 0, 72, 0
2, 41856, Note_on_c, 0, 71, 91
2, 41888, Note_on_c, 0, 71, 0
2, 41888, Note_on_c, 0, 67, 75
2, 41918, Note_on_c, 0, 67, 0
2, 41920, Note_on_c, 0, 64, 75
2, 41950, Note_on_c, 0, 64, 0
2, 41952, Note_on_c, 0, 63, 75
2, 41982, Note_on_c, 0, 63, 0
2, 41984, Note_on_c, 0, 66, 75
2, 42014, Note_on_c, 0, 66, 0
2, 42016, Note_on_c, 0, 69, 75
2, 42046, Note_on_c, 0, 69, 0
2, 42048, Note_on_c, 0, 67, 75
2, 42137, Note_on_c, 0, 67, 0
2, 42240, Note_on_c, 0, 67, 75
2, 42270, Note_on_c, 0, 67, 0
2, 42272, Note_on_c, 0, 64, 75
2, 42302, Note_on_c, 0, 64, 0
2, 42304, Note_on_c, 0, 59, 75
2, 42334, Note_on_c, 0, 59, 0
2, 42336, Note_on_c, 0, 55, 75
2, 42366, Note_on_c, 0, 55, 0
2, 42368, Note_on_c, 0, 59, 75
2, 42398, Note_on_c, 0, 59, 0
2, 42400, Note_on_c, 0, 64, 75
2, 42430, Note_on_c, 0, 64, 0
2, 42432, Note_on_c, 0, 66, 75
2, 42462, Note_on_c, 0, 66, 0
2, 42464, Note_on_c, 0, 62, 75
2, 42494, Note_on_c, 0, 62, 0
2, 42496, Note_on_c, 0, 59, 75
2, 42526, Note_on_c, 0, 59, 0
2, 42528, Note_on_c, 0, 54, 75
2, 42558, Note_on_c, 0, 54, 0
2, 42560, Note_on_c, 0, 59, 75
2, 42590, Note_on_c, 0, 59, 0
2, 42592, Note_on_c, 0, 62, 75
2, 42622, Note_on_c, 0, 62, 0
2, 42624, Note_on_c, 0, 66, 75
2, 42654, Note_on_c, 0, 66, 0
2, 42656, Note_on_c, 0, 62, 75
2, 42686, Note_on_c, 0, 62, 0
2, 42688, Note_on_c, 0, 59, 75
2, 42718, Note_on_c, 0, 59, 0
2, 42720, Note_on_c, 0, 54, 75
2, 42750, Note_on_c, 0, 54, 0
2, 42752, Note_on_c, 0, 59, 75
2, 42782, Note_on_c, 0, 59, 0
2, 42784, Note_on_c, 0, 62, 75
2, 42814, Note_on_c, 0, 62, 0
2, 42816, Note_on_c, 0, 67, 75
2, 42846, Note_on_c, 0, 67, 0
2, 42848, Note_on_c, 0, 62, 75
2, 42878, Note_on_c, 0, 62, 0
2, 42880, Note_on_c, 0, 59, 75
2, 42910, Note_on_c, 0, 59, 0
2, 42912, Note_on_c, 0, 55, 75
2, 42942, Note_on_c, 0, 55, 0
2, 42944, Note_on_c, 0, 59, 75
2, 42974, Note_on_c, 0, 59, 0
2, 42976, Note_on_c, 0, 62, 75
2, 43006, Note_on_c, 0, 62, 0
2, 43008, Note_on_c, 0, 67, 75
2, 43038, Note_on_c, 0, 67, 0
2, 43040, Note_on_c, 0, 62, 75
2, 43070, Note_on_c, 0, 62, 0
2, 43072, Note_on_c, 0, 59, 75
2, 43102, Note_on_c, 0, 59, 0
2, 43104, Note_on_c, 0, 55, 75
2, 43134, Note_on_c, 0, 55, 0
2, 43136, Note_on_c, 0, 59, 75
2, 43166, Note_on_c, 0, 59, 0
2, 43168, Note_on_c, 0, 62, 75
2, 43198, Note_on_c, 0, 62, 0
2, 43200, Note_on_c, 0, 67, 75
2, 43200, Note_on_c, 0, 64, 75
2, 43200, Note_on_c, 0, 61, 75
2, 43200, Note_on_c, 0, 58, 75
2, 43488, Note_on_c, 0, 67, 0
2, 43488, Note_on_c, 0, 66, 75
2, 43673, Note_on_c, 0, 66, 0
2, 43673, Note_on_c, 0, 64, 0
2, 43673, Note_on_c, 0, 61, 0
2, 43673, Note_on_c, 0, 58, 0
2, 43800, Note_on_c, 0, 66, 75
2, 43823, Note_on_c, 0, 66, 0
2, 43824, Note_on_c, 0, 68, 75
2, 43847, Note_on_c, 0, 68, 0
2, 43848, Note_on_c, 0, 70, 76
2, 43871, Note_on_c, 0, 70, 0
2, 43872, Note_on_c, 0, 71, 76
2, 43895, Note_on_c, 0, 71, 0
2, 43896, Note_on_c, 0, 73, 77
2, 43919, Note_on_c, 0, 73, 0
2, 43920, Note_on_c, 0, 75, 78
2, 43943, Note_on_c, 0, 75, 0
2, 43944, Note_on_c, 0, 76, 78
2, 43967, Note_on_c, 0, 76, 0
2, 43968, Note_on_c, 0, 78, 95
2, 43992, Note_on_c, 0, 78, 0
2, 43992, Note_on_c, 0, 71, 75
2, 44015, Note_on_c, 0, 71, 0
2, 44016, Note_on_c, 0, 73, 75
2, 44039, Note_on_c, 0, 73, 0
2, 44040, Note_on_c, 0, 75, 76
2, 44063, Note_on_c, 0, 75, 0
2, 44064, Note_on_c, 0, 76, 76
2, 44087, Note_on_c, 0, 76, 0
2, 44088, Note_on_c, 0, 78, 77
2, 44111, Note_on_c, 0, 78, 0
2, 44112, Note_on_c, 0, 80, 77
2, 44135, Note_on_c, 0, 80, 0
2, 44136, Note_on_c, 0, 82, 78
2, 44159, Note_on_c, 0, 82, 0
2, 44160, Note_on_c, 0, 83, 94
2, 44180, Note_on_c, 0, 83, 0
2, 44208, Note_on_c, 0, 78, 75
2, 44228, Note_on_c, 0, 78, 0
2, 44256, Note_on_c, 0, 80, 75
2, 44268, Note_on_c, 0, 80, 0
2, 44268, Note_on_c, 0, 78, 75
2, 44280, Note_on_c, 0, 78, 0
2, 44280, Note_on_c, 0, 80, 75
2, 44292, Note_on_c, 0, 80, 0
2, 44292, Note_on_c, 0, 78, 75
2, 44304, Note_on_c, 0, 78, 0
2, 44304, Note_on_c, 0, 80, 75
2, 44316, Note_on_c, 0, 80, 0
2, 44316, Note_on_c, 0, 78, 75
2, 44328, Note_on_c, 0, 78, 0
2, 44328, Note_on_c, 0, 76, 75
2, 44340, Note_on_c, 0, 76, 0
2, 44340, Note_on_c, 0, 78, 75
2, 44352, Note_on_c, 0, 78, 0
2, 44352, Note_on_c, 0, 83, 75
2, 44372, Note_on_c, 0, 83, 0
2, 44400, Note_on_c, 0, 80, 75
2, 44420, Note_on_c, 0, 80, 0
2, 44448, Note_on_c, 0, 82, 75
2, 44460, Note_on_c, 0, 82, 0
2, 44460, Note_on_c, 0, 80, 75
2, 44472, Note_on_c, 0, 80, 0
2, 44472, Note_on_c, 0, 82, 75
2, 44484, Note_on_c, 0, 82, 0
2, 44484, Note_on_c, 0, 80, 75
2, 44496, Note_on_c, 0, 80, 0
2, 44496, Note_on_c, 0, 82, 75
2, 44508, Note_on_c, 0, 82, 0
2, 44508, Note_on_c, 0, 80, 75
2, 44520, Note_on_c, 0, 80, 0
2, 44520, Note_on_c, 0, 78, 75
2, 44532, Note_on_c, 0, 78, 0
2, 44532, Note_on_c, 0, 80, 75
2, 44544, Note_on_c, 0, 80, 0
2, 44544, Note_on_c, 0, 78, 75
2, 44589, Note_on_c, 0, 78, 0
2, 44592, Note_on_c, 0, 83, 75
2, 44637, Note_on_c, 0, 83, 0
2, 44640, Note_on_c, 0, 76, 76
2, 44652, Note_on_c, 0, 76, 0
2, 44652, Note_on_c, 0, 78, 76
2, 44664, Note_on_c, 0, 78, 0
2, 44664, Note_on_c, 0, 76, 76
2, 44685, Note_on_c, 0, 76, 0
2, 44688, Note_on_c, 0, 83, 92
2, 44736, Note_on_c, 0, 83, 0
2, 44736, Note_on_c, 0, 75, 77
2, 44748, Note_on_c, 0, 75, 0
2, 44748, Note_on_c, 0, 76, 77
2, 44760, Note_on_c, 0, 76, 0
2, 44760, Note_on_c, 0, 75, 77
2, 44784, Note_on_c, 0, 75, 0
2, 44784, Note_on_c, 0, 83, 94
2, 44832, Note_on_c, 0, 83, 0
2, 44880, Note_on_c, 0, 75, 79
2, 44900, Note_on_c, 0, 75, 0
2, 44928, Note_on_c, 0, 75, 96
2, 44928, Note_on_c, 0, 71, 96
2, 45024, Note_on_c, 0, 75, 0
2, 45024, Note_on_c, 0, 71, 0
2, 45024, Note_on_c, 0, 73, 77
2, 45024, Note_on_c, 0, 70, 77
2, 45113, Note_on_c, 0, 73, 0
2, 45113, Note_on_c, 0, 70, 0
2, 45264, Note_on_c, 0, 62, 75
2, 45264, Note_on_c, 0, 59, 75
2, 45284, Note_on_c, 0, 62, 0
2, 45284, Note_on_c, 0, 59, 0
2, 45312, Note_on_c, 0, 62, 91
2, 45312, Note_on_c, 0, 59, 91
2, 45408, Note_on_c, 0, 62, 0
2, 45408, Note_on_c, 0, 59, 0
2, 45408, Note_on_c, 0, 61, 75
2, 45408, Note_on_c, 0, 58, 75
2, 45497, Note_on_c, 0, 61, 0
2, 45497, Note_on_c, 0, 58, 0
2, 45696, Note_on_c, 0, 78, 75
2, 45719, Note_on_c, 0, 78, 0
2, 45720, Note_on_c, 0, 75, 75
2, 45743, Note_on_c, 0, 75, 0
2, 45744, Note_on_c, 0, 71, 75
2, 45767, Note_on_c, 0, 71, 0
2, 45768, Note_on_c, 0, 66, 75
2, 45791, Note_on_c, 0, 66, 0
2, 45792, Note_on_c, 0, 72, 75
2, 45816, Note_on_c, 0, 72, 0
2, 45816, Note_on_c, 0, 73, 75
2, 45839, Note_on_c, 0, 73, 0
2, 45840, Note_on_c, 0, 73, 91
2, 45911, Note_on_c, 0, 73, 0
2, 45912, Note_on_c, 0, 75, 75
2, 45935, Note_on_c, 0, 75, 0
2, 45936, Note_on_c, 0, 76, 75
2, 45959, Note_on_c, 0, 76, 0
2, 45960, Note_on_c, 0, 75, 75
2, 45983, Note_on_c, 0, 75, 0
2, 45984, Note_on_c, 0, 73, 75
2, 46007, Note_on_c, 0, 73, 0
2, 46008, Note_on_c, 0, 71, 75
2, 46031, Note_on_c, 0, 71, 0
2, 46032, Note_on_c, 0, 70, 75
2, 46055, Note_on_c, 0, 70, 0
2, 46056, Note_on_c, 0, 68, 75
2, 46079, Note_on_c, 0, 68, 0
2, 46080, Note_on_c, 0, 66, 75
2, 46125, Note_on_c, 0, 66, 0
2, 46128, Note_on_c, 0, 77, 75
2, 46152, Note_on_c, 0, 77, 0
2, 46152, Note_on_c, 0, 78, 75
2, 46175, Note_on_c, 0, 78, 0
2, 46176, Note_on_c, 0, 76, 75
2, 46199, Note_on_c, 0, 76, 0
2, 46200, Note_on_c, 0, 75, 75
2, 46223, Note_on_c, 0, 75, 0
2, 46224, Note_on_c, 0, 73, 75
2, 46247, Note_on_c, 0, 73, 0
2, 46248, Note_on_c, 0, 71, 75
2, 46271, Note_on_c, 0, 71, 0
2, 46272, Note_on_c, 0, 73, 75
2, 46284, Note_on_c, 0, 73, 0
2, 46284, Note_on_c, 0, 75, 75
2, 46296, Note_on_c, 0, 75, 0
2, 46296, Note_on_c, 0, 73, 75
2, 46308, Note_on_c, 0, 73, 0
2, 46308, Note_on_c, 0, 75, 75
2, 46320, Note_on_c, 0, 75, 0
2, 46320, Note_on_c, 0, 73, 75
2, 46332, Note_on_c, 0, 73, 0
2, 46332, Note_on_c, 0, 75, 75
2, 46343, Note_on_c, 0, 75, 0
2, 46343, Note_on_c, 0, 73, 75
2, 46354, Note_on_c, 0, 73, 0
2, 46354, Note_on_c, 0, 75, 75
2, 46365, Note_on_c, 0, 75, 0
2, 46365, Note_on_c, 0, 73, 75
2, 46376, Note_on_c, 0, 73, 0
2, 46376, Note_on_c, 0, 75, 75
2, 46387, Note_on_c, 0, 75, 0
2, 46387, Note_on_c, 0, 73, 75
2, 46398, Note_on_c, 0, 73, 0
2, 46398, Note_on_c, 0, 75, 75
2, 46409, Note_on_c, 0, 75, 0
2, 46409, Note_on_c, 0, 73, 75
2, 46420, Note_on_c, 0, 73, 0
2, 46420, Note_on_c, 0, 71, 75
2, 46442, Note_on_c, 0, 71, 0
2, 46442, Note_on_c, 0, 73, 75
2, 46464, Note_on_c, 0, 73, 0
2, 46464, Note_on_c, 0, 71, 75
2, 46487, Note_on_c, 0, 71, 0
2, 46488, Note_on_c, 0, 54, 75
2, 46511, Note_on_c, 0, 54, 0
2, 46512, Note_on_c, 0, 56, 75
2, 46535, Note_on_c, 0, 56, 0
2, 46536, Note_on_c, 0, 58, 75
2, 46559, Note_on_c, 0, 58, 0
2, 46560, Note_on_c, 0, 59, 75
2, 46583, Note_on_c, 0, 59, 0
2, 46584, Note_on_c, 0, 61, 75
2, 46607, Note_on_c, 0, 61, 0
2, 46608, Note_on_c, 0, 63, 75
2, 46631, Note_on_c, 0, 63, 0
2, 46632, Note_on_c, 0, 64, 75
2, 46655, Note_on_c, 0, 64, 0
2, 46656, Note_on_c, 0, 66, 75
2, 46666, Note_on_c, 0, 66, 0
2, 46680, Note_on_c, 0, 66, 75
2, 46703, Note_on_c, 0, 66, 0
2, 46704, Note_on_c, 0, 68, 75
2, 46727, Note_on_c, 0, 68, 0
2, 46728, Note_on_c, 0, 70, 75
2, 46751, Note_on_c, 0, 70, 0
2, 46752, Note_on_c, 0, 71, 75
2, 46775, Note_on_c, 0, 71, 0
2, 46776, Note_on_c, 0, 73, 75
2, 46799, Note_on_c, 0, 73, 0
2, 46800, Note_on_c, 0, 75, 75
2, 46823, Note_on_c, 0, 75, 0
2, 46824, Note_on_c, 0, 76, 75
2, 46847, Note_on_c, 0, 76, 0
2, 46848, Note_on_c, 0, 78, 91
2, 46896, Note_on_c, 0, 78, 0
2, 46920, Note_on_c, 0, 77, 75
2, 46944, Note_on_c, 0, 77, 0
2, 46944, Note_on_c, 0, 78, 75
2, 46989, Note_on_c, 0, 78, 0
2, 47016, Note_on_c, 0, 77, 75
2, 47040, Note_on_c, 0, 77, 0
2, 47040, Note_on_c, 0, 78, 75
2, 47129, Note_on_c, 0, 78, 0
2, 47232, Note_on_c, 0, 80, 96
2, 47232, Note_on_c, 0, 76, 96
2, 47280, Note_on_c, 0, 80, 0
2, 47280, Note_on_c, 0, 76, 0
2, 47280, Note_on_c, 0, 78, 79
2, 47280, Note_on_c, 0, 75, 79
2, 47325, Note_on_c, 0, 78, 0
2, 47325, Note_on_c, 0, 75, 0
2, 47328, Note_on_c, 0, 76, 78
2, 47328, Note_on_c, 0, 73, 78
2, 47376, Note_on_c, 0, 76, 0
2, 47376, Note_on_c, 0, 73, 0
2, 47376, Note_on_c, 0, 75, 78
2, 47376, Note_on_c, 0, 71, 78
2, 47421, Note_on_c, 0, 75, 0
2, 47421, Note_on_c, 0, 71, 0
2, 47424, Note_on_c, 0, 78, 93
2, 47424, Note_on_c, 0, 75, 93
2, 47472, Note_on_c, 0, 78, 0
2, 47472, Note_on_c, 0, 75, 0
2, 47472, Note_on_c, 0, 76, 76
2, 47472, Note_on_c, 0, 73, 76
2, 47517, Note_on_c, 0, 76, 0
2, 47517, Note_on_c, 0, 73, 0
2, 47520, Note_on_c, 0, 75, 76
2, 47520, Note_on_c, 0, 71, 76
2, 47568, Note_on_c, 0, 75, 0
2, 47568, Note_on_c, 0, 71, 0
2, 47568, Note_on_c, 0, 73, 75
2, 47568, Note_on_c, 0, 70, 75
2, 47613, Note_on_c, 0, 73, 0
2, 47613, Note_on_c, 0, 70, 0
2, 47616, Note_on_c, 0, 71, 75
2, 47640, Note_on_c, 0, 71, 0
2, 47640, Note_on_c, 0, 66, 75
2, 47663, Note_on_c, 0, 66, 0
2, 47664, Note_on_c, 0, 66, 96
2, 47760, Note_on_c, 0, 66, 0
2, 47760, Note_on_c, 0, 71, 80
2, 47849, Note_on_c, 0, 71, 0
2, 47856, Note_on_c, 0, 75, 80
2, 47927, Note_on_c, 0, 75, 0
2, 47934, Note_on_c, 0, 73, 80
2, 47940, Note_on_c, 0, 73, 0
2, 47940, Note_on_c, 0, 71, 80
2, 47946, Note_on_c, 0, 71, 0
2, 47946, Note_on_c, 0, 70, 80
2, 47952, Note_on_c, 0, 70, 0
2, 47952, Note_on_c, 0, 71, 80
2, 47997, Note_on_c, 0, 71, 0
2, 48000, Note_on_c, 0, 70, 80
2, 48020, Note_on_c, 0, 70, 0
2, 48048, Note_on_c, 0, 73, 97
2, 48144, Note_on_c, 0, 73, 0
2, 48144, Note_on_c, 0, 76, 83
2, 48233, Note_on_c, 0, 76, 0
2, 48240, Note_on_c, 0, 79, 86
2, 48329, Note_on_c, 0, 79, 0
2, 48336, Note_on_c, 0, 70, 84
2, 48381, Note_on_c, 0, 70, 0
2, 48384, Note_on_c, 0, 71, 83
2, 48404, Note_on_c, 0, 71, 0
2, 48432, Note_on_c, 0, 71, 98
2, 48528, Note_on_c, 0, 71, 0
2, 48528, Note_on_c, 0, 71, 80
2, 48617, Note_on_c, 0, 71, 0
2, 48624, Note_on_c, 0, 71, 80
2, 48695, Note_on_c, 0, 71, 0
2, 48702, Note_on_c, 0, 73, 80
2, 48708, Note_on_c, 0, 73, 0
2, 48708, Note_on_c, 0, 71, 80
2, 48714, Note_on_c, 0, 71, 0
2, 48714, Note_on_c, 0, 70, 80
2, 48720, Note_on_c, 0, 70, 0
2, 48720, Note_on_c, 0, 71, 80
2, 48765, Note_on_c, 0, 71, 0
2, 48768, Note_on_c, 0, 71, 80
2, 48788, Note_on_c, 0, 71, 0
2, 48816, Note_on_c, 0, 83, 96
2, 48816, Note_on_c, 0, 71, 96
2, 48912, Note_on_c, 0, 83, 0
2, 48912, Note_on_c, 0, 71, 0
2, 48912, Note_on_c, 0, 83, 80
2, 48912, Note_on_c, 0, 71, 80
2, 49001, Note_on_c, 0, 83, 0
2, 49001, Note_on_c, 0, 71, 0
2, 49008, Note_on_c, 0, 83, 80
2, 49008, Note_on_c, 0, 71, 80
2, 49075, Note_on_c, 0, 83, 0
2, 49075, Note_on_c, 0, 71, 0
2, 49080, Note_on_c, 0, 83, 80
2, 49080, Note_on_c, 0, 71, 80
2, 49090, Note_on_c, 0, 83, 0
2, 49090, Note_on_c, 0, 71, 0
2, 49104, Note_on_c, 0, 83, 80
2, 49104, Note_on_c, 0, 71, 80
2, 49114, Note_on_c, 0, 83, 0
2, 49114, Note_on_c, 0, 71, 0
2, 49128, Note_on_c, 0, 83, 80
2, 49128, Note_on_c, 0, 71, 80
2, 49138, Note_on_c, 0, 83, 0
2, 49138, Note_on_c, 0, 71, 0
2, 49152, Note_on_c, 0, 83, 96
2, 49152, Note_on_c, 0, 71, 96
2, 49296, Note_on_c, 0, 83, 0
2, 49296, Note_on_c, 0, 71, 0
2, 49296, Note_on_c, 0, 82, 80
2, 49296, Note_on_c, 0, 70, 80
2, 49344, Note_on_c, 0, 82, 0
2, 49344, Note_on_c, 0, 70, 0
2, 49344, Note_on_c, 0, 83, 80
2, 49344, Note_on_c, 0, 71, 80
2, 49364, Note_on_c, 0, 83, 0
2, 49364, Note_on_c, 0, 71, 0
2, 49392, Note_on_c, 0, 82, 80
2, 49392, Note_on_c, 0, 70, 80
2, 49440, Note_on_c, 0, 82, 0
2, 49440, Note_on_c, 0, 70, 0
2, 49440, Note_on_c, 0, 83, 80
2, 49440, Note_on_c, 0, 71, 80
2, 49460, Note_on_c, 0, 83, 0
2, 49460, Note_on_c, 0, 71, 0
2, 49488, Note_on_c, 0, 82, 80
2, 49488, Note_on_c, 0, 70, 80
2, 49536, Note_on_c, 0, 82, 0
2, 49536, Note_on_c, 0, 70, 0
2, 49536, Note_on_c, 0, 83, 80
2, 49536, Note_on_c, 0, 71, 80
2, 49556, Note_on_c, 0, 83, 0
2, 49556, Note_on_c, 0, 71, 0
2, 49584, Note_on_c, 0, 86, 80
2, 49584, Note_on_c, 0, 74, 80
2, 49629, Note_on_c, 0, 86, 0
2, 49629, Note_on_c, 0, 74, 0
2, 49632, Note_on_c, 0, 85, 80
2, 49632, Note_on_c, 0, 73, 80
2, 49677, Note_on_c, 0, 85, 0
2, 49677, Note_on_c, 0, 73, 0
2, 49680, Note_on_c, 0, 83, 80
2, 49680, Note_on_c, 0, 71, 80
2, 49725, Note_on_c, 0, 83, 0
2, 49725, Note_on_c, 0, 71, 0
2, 49776, Note_on_c, 0, 77, 80
2, 49821, Note_on_c, 0, 77, 0
2, 49824, Note_on_c, 0, 76, 80
2, 49869, Note_on_c, 0, 76, 0
2, 49872, Note_on_c, 0, 74, 80
2, 49917, Note_on_c, 0, 74, 0
2, 49968, Note_on_c, 0, 88, 80
2, 49968, Note_on_c, 0, 84, 80
2, 50013, Note_on_c, 0, 88, 0
2, 50013, Note_on_c, 0, 84, 0
2, 50016, Note_on_c, 0, 86, 80
2, 50016, Note_on_c, 0, 83, 80
2, 50061, Note_on_c, 0, 86, 0
2, 50061, Note_on_c, 0, 83, 0
2, 50064, Note_on_c, 0, 84, 80
2, 50064, Note_on_c, 0, 81, 80
2, 50109, Note_on_c, 0, 84, 0
2, 50109, Note_on_c, 0, 81, 0
2, 50160, Note_on_c, 0, 76, 80
2, 50160, Note_on_c, 0, 72, 80
2, 50205, Note_on_c, 0, 76, 0
2, 50205, Note_on_c, 0, 72, 0
2, 50208, Note_on_c, 0, 74, 80
2, 50208, Note_on_c, 0, 71, 80
2, 50253, Note_on_c, 0, 74, 0
2, 50253, Note_on_c, 0, 71, 0
2, 50256, Note_on_c, 0, 72, 80
2, 50256, Note_on_c, 0, 69, 80
2, 50301, Note_on_c, 0, 72, 0
2, 50301, Note_on_c, 0, 69, 0
2, 50304, Note_on_c, 0, 70, 80
2, 50316, Note_on_c, 0, 70, 0
2, 50317, Note_on_c, 0, 72, 80
2, 50329, Note_on_c, 0, 72, 0
2, 50330, Note_on_c, 0, 70, 80
2, 50342, Note_on_c, 0, 70, 0
2, 50343, Note_on_c, 0, 72, 80
2, 50355, Note_on_c, 0, 72, 0
2, 50356, Note_on_c, 0, 70, 80
2, 50368, Note_on_c, 0, 70, 0
2, 50369, Note_on_c, 0, 72, 80
2, 50381, Note_on_c, 0, 72, 0
2, 50382, Note_on_c, 0, 70, 80
2, 50394, Note_on_c, 0, 70, 0
2, 50395, Note_on_c, 0, 72, 80
2, 50407, Note_on_c, 0, 72, 0
2, 50408, Note_on_c, 0, 70, 80
2, 50420, Note_on_c, 0, 70, 0
2, 50421, Note_on_c, 0, 72, 80
2, 50433, Note_on_c, 0, 72, 0
2, 50434, Note_on_c, 0, 70, 80
2, 50446, Note_on_c, 0, 70, 0
2, 50447, Note_on_c, 0, 69, 80
2, 50472, Note_on_c, 0, 69, 0
2, 50472, Note_on_c, 0, 70, 80
2, 50496, Note_on_c, 0, 70, 0
2, 50496, Note_on_c, 0, 69, 80
2, 50585, Note_on_c, 0, 69, 0
2, 50688, Note_on_c, 0, 70, 80
2, 50880, Note_on_c, 0, 70, 0
2, 50880, Note_on_c, 0, 71, 80
2, 50903, Note_on_c, 0, 71, 0
2, 50904, Note_on_c, 0, 66, 80
2, 50927, Note_on_c, 0, 66, 0
2, 50928, Note_on_c, 0, 68, 80
2, 50951, Note_on_c, 0, 68, 0
2, 50952, Note_on_c, 0, 70, 80
2, 50975, Note_on_c, 0, 70, 0
2, 50976, Note_on_c, 0, 71, 80
2, 50999, Note_on_c, 0, 71, 0
2, 51000, Note_on_c, 0, 73, 80
2, 51023, Note_on_c, 0, 73, 0
2, 51024, Note_on_c, 0, 75, 80
2, 51047, Note_on_c, 0, 75, 0
2, 51048, Note_on_c, 0, 76, 80
2, 51071, Note_on_c, 0, 76, 0
2, 51072, Note_on_c, 0, 78, 80
2, 51095, Note_on_c, 0, 78, 0
2, 51096, Note_on_c, 0, 82, 80
2, 51119, Note_on_c, 0, 82, 0
2, 51120, Note_on_c, 0, 83, 80
2, 51143, Note_on_c, 0, 83, 0
2, 51144, Note_on_c, 0, 78, 80
2, 51167, Note_on_c, 0, 78, 0
2, 51168, Note_on_c, 0, 76, 80
2, 51191, Note_on_c, 0, 76, 0
2, 51192, Note_on_c, 0, 75, 80
2, 51215, Note_on_c, 0, 75, 0
2, 51216, Note_on_c, 0, 73, 80
2, 51239, Note_on_c, 0, 73, 0
2, 51240, Note_on_c, 0, 71, 80
2, 51263, Note_on_c, 0, 71, 0
2, 51264, Note_on_c, 0, 73, 80
2, 51276, Note_on_c, 0, 73, 0
2, 51276, Note_on_c, 0, 75, 80
2, 51288, Note_on_c, 0, 75, 0
2, 51288, Note_on_c, 0, 73, 80
2, 51300, Note_on_c, 0, 73, 0
2, 51300, Note_on_c, 0, 75, 80
2, 51312, Note_on_c, 0, 75, 0
2, 51312, Note_on_c, 0, 73, 80
2, 51324, Note_on_c, 0, 73, 0
2, 51324, Note_on_c, 0, 75, 80
2, 51335, Note_on_c, 0, 75, 0
2, 51335, Note_on_c, 0, 73, 80
2, 51346, Note_on_c, 0, 73, 0
2, 51346, Note_on_c, 0, 75, 80
2, 51357, Note_on_c, 0, 75, 0
2, 51357, Note_on_c, 0, 73, 80
2, 51368, Note_on_c, 0, 73, 0
2, 51368, Note_on_c, 0, 75, 80
2, 51379, Note_on_c, 0, 75, 0
2, 51379, Note_on_c, 0, 73, 80
2, 51390, Note_on_c, 0, 73, 0
2, 51390, Note_on_c, 0, 75, 80
2, 51401, Note_on_c, 0, 75, 0
2, 51401, Note_on_c, 0, 73, 80
2, 51412, Note_on_c, 0, 73, 0
2, 51412, Note_on_c, 0, 71, 80
2, 51434, Note_on_c, 0, 71, 0
2, 51434, Note_on_c, 0, 73, 80
2, 51456, Note_on_c, 0, 73, 0
2, 51456, Note_on_c, 0, 71, 80
2, 51545, Note_on_c, 0, 71, 0
2, 51648, Note_on_c, 0, 78, 75
2, 51678, Note_on_c, 0, 78, 0
2, 51680, Note_on_c, 0, 75, 75
2, 51710, Note_on_c, 0, 75, 0
2, 51712, Note_on_c, 0, 71, 75
2, 51742, Note_on_c, 0, 71, 0
2, 51744, Note_on_c, 0, 70, 75
2, 51774, Note_on_c, 0, 70, 0
2, 51776, Note_on_c, 0, 73, 75
2, 51806, Note_on_c, 0, 73, 0
2, 51808, Note_on_c, 0, 76, 75
2, 51838, Note_on_c, 0, 76, 0
2, 51840, Note_on_c, 0, 78, 75
2, 51858, Note_on_c, 0, 78, 0
2, 51858, Note_on_c, 0, 76, 75
2, 51936, Note_on_c, 0, 76, 0
2, 51936, Note_on_c, 0, 75, 75
2, 52025, Note_on_c, 0, 75, 0
2, 52032, Note_on_c, 0, 66, 80
2, 52062, Note_on_c, 0, 66, 0
2, 52064, Note_on_c, 0, 63, 80
2, 52094, Note_on_c, 0, 63, 0
2, 52096, Note_on_c, 0, 59, 80
2, 52126, Note_on_c, 0, 59, 0
2, 52128, Note_on_c, 0, 64, 80
2, 52158, Note_on_c, 0, 64, 0
2, 52160, Note_on_c, 0, 61, 80
2, 52190, Note_on_c, 0, 61, 0
2, 52192, Note_on_c, 0, 58, 80
2, 52222, Note_on_c, 0, 58, 0
2, 52224, Note_on_c, 0, 59, 80
2, 52263, Note_on_c, 0, 59, 0
2, 52320, Note_on_c, 0, 71, 80
2, 52320, Note_on_c, 0, 66, 80
2, 52320, Note_on_c, 0, 63, 80
2, 52320, Note_on_c, 0, 59, 80
2, 52359, Note_on_c, 0, 71, 0
2, 52359, Note_on_c, 0, 66, 0
2, 52359, Note_on_c, 0, 63, 0
2, 52359, Note_on_c, 0, 59, 0
2, 52416, Note_on_c, 0, 71, 80
2, 52416, Note_on_c, 0, 66, 80
2, 52416, Note_on_c, 0, 63, 80
2, 52416, Note_on_c, 0, 59, 80
2, 52505, Note_on_c, 0, 71, 0
2, 52505, Note_on_c, 0, 66, 0
2, 52505, Note_on_c, 0, 63, 0
2, 52505, Note_on_c, 0, 59, 0
2, 52608, End_track
3, 0, Start_track
3, 0, Program_c, 0, 0
3, 0, Control_c, 0, 7, 127
3, 0, Control_c, 0, 10, 64
3, 34368, Note_on_c, 0, 64, 64
3, 34391, Note_on_c, 0, 64, 0
3, 34392, Note_on_c, 0, 67, 64
3, 34415, Note_on_c, 0, 67, 0
3, 34416, Note_on_c, 0, 66, 64
3, 34439, Note_on_c, 0, 66, 0
3, 34440, Note_on_c, 0, 64, 64
3, 34463, Note_on_c, 0, 64, 0
3, 34488, Note_on_c, 0, 67, 64
3, 34511, Note_on_c, 0, 67, 0
3, 34512, Note_on_c, 0, 66, 64
3, 34535, Note_on_c, 0, 66, 0
3, 34536, Note_on_c, 0, 64, 64
3, 34559, Note_on_c, 0, 64, 0
3, 34560, Note_on_c, 0, 63, 64
3, 34649, Note_on_c, 0, 63, 0
3, 50688, Note_on_c, 0, 64, 64
3, 50711, Note_on_c, 0, 64, 0
3, 50712, Note_on_c, 0, 67, 64
3, 50735, Note_on_c, 0, 67, 0
3, 50736, Note_on_c, 0, 66, 64
3, 50759, Note_on_c, 0, 66, 0
3, 50760, Note_on_c, 0, 64, 64
3, 50783, Note_on_c, 0, 64, 0
3, 50808, Note_on_c, 0, 67, 64
3, 50831, Note_on_c, 0, 67, 0
3, 50832, Note_on_c, 0, 66, 64
3, 50855, Note_on_c, 0, 66, 0
3, 50856, Note_on_c, 0, 64, 64
3, 50879, Note_on_c, 0, 64, 0
3, 50880, Note_on_c, 0, 63, 64
3, 50969, Note_on_c, 0, 63, 0
3, 52608, End_track
4, 0, Start_track
4, 0, Program_c, 1, 0
4, 0, Control_c, 1, 7, 127
4, 0, Control_c, 1, 10, 64
4, 0, Control_c, 1, 64, 127
4, 0, Note_on_c, 1, 59, 64
4, 23, Note_on_c, 1, 59, 0
4, 24, Note_on_c, 1, 63, 64
4, 47, Note_on_c, 1, 63, 0
4, 48, Note_on_c, 1, 59, 64
4, 71, Note_on_c, 1, 59, 0
4, 72, Note_on_c, 1, 63, 64
4, 95, Note_on_c, 1, 63, 0
4, 96, Note_on_c, 1, 59, 64
4, 119, Note_on_c, 1, 59, 0
4, 120, Note_on_c, 1, 63, 64
4, 143, Note_on_c, 1, 63, 0
4, 144, Note_on_c, 1, 59, 64
4, 167, Note_on_c, 1, 59, 0
4, 168, Note_on_c, 1, 63, 64
4, 191, Note_on_c, 1, 63, 0
4, 192, Note_on_c, 1, 59, 64
4, 215, Note_on_c, 1, 59, 0
4, 216, Note_on_c, 1, 63, 64
4, 239, Note_on_c, 1, 63, 0
4, 240, Note_on_c, 1, 59, 64
4, 263, Note_on_c, 1, 59, 0
4, 264, Note_on_c, 1, 63, 64
4, 287, Note_on_c, 1, 63, 0
4, 288, Note_on_c, 1, 59, 64
4, 311, Note_on_c, 1, 59, 0
4, 312, Note_on_c, 1, 63, 64
4, 335, Note_on_c, 1, 63, 0
4, 336, Note_on_c, 1, 59, 64
4, 359, Note_on_c, 1, 59, 0
4, 360, Control_c, 1, 64, 0
4, 360, Note_on_c, 1, 63, 64
4, 383, Note_on_c, 1, 63, 0
4, 384, Control_c, 1, 64, 127
4, 384, Note_on_c, 1, 59, 64
4, 407, Note_on_c, 1, 59, 0
4, 408, Note_on_c, 1, 64, 64
4, 431, Note_on_c, 1, 64, 0
4, 432, Note_on_c, 1, 59, 64
4, 455, Note_on_c, 1, 59, 0
4, 456, Note_on_c, 1, 64, 64
4, 479, Note_on_c, 1, 64, 0
4, 480, Note_on_c, 1, 59, 64
4, 503, Note_on_c, 1, 59, 0
4, 504, Note_on_c, 1, 64, 64
4, 527, Note_on_c, 1, 64, 0
4, 528, Note_on_c, 1, 59, 64
4, 551, Note_on_c, 1, 59, 0
4, 552, Note_on_c, 1, 64, 64
4, 575, Note_on_c, 1, 64, 0
4, 576, Note_on_c, 1, 59, 64
4, 599, Note_on_c, 1, 59, 0
4, 600, Note_on_c, 1, 64, 64
4, 623, Note_on_c, 1, 64, 0
4, 624, Note_on_c, 1, 59, 64
4, 647, Note_on_c, 1, 59, 0
4, 648, Control_c, 1, 64, 0
4, 648, Note_on_c, 1, 64, 64
4, 671, Note_on_c, 1, 64, 0
4, 672, Control_c, 1, 64, 127
4, 672, Note_on_c, 1, 59, 64
4, 695, Note_on_c, 1, 59, 0
4, 696, Note_on_c, 1, 63, 64
4, 719, Note_on_c, 1, 63, 0
4, 720, Note_on_c, 1, 59, 64
4, 743, Note_on_c, 1, 59, 0
4, 744, Control_c, 1, 64, 0
4, 744, Note_on_c, 1, 63, 64
4, 767, Note_on_c, 1, 63, 0
4, 768, Control_c, 1, 64, 127
4, 768, Note_on_c, 1, 58, 64
4, 791, Note_on_c, 1, 58, 0
4, 792, Note_on_c, 1, 61, 64
4, 815, Note_on_c, 1, 61, 0
4, 816, Note_on_c, 1, 58, 64
4, 839, Note_on_c, 1, 58, 0
4, 840, Note_on_c, 1, 61, 64
4, 863, Note_on_c, 1, 61, 0
4, 864, Note_on_c, 1, 58, 64
4, 887, Note_on_c, 1, 58, 0
4, 888, Note_on_c, 1, 61, 64
4, 911, Note_on_c, 1, 61, 0
4, 912, Note_on_c, 1, 58, 64
4, 935, Note_on_c, 1, 58, 0
4, 936, Note_on_c, 1, 61, 64
4, 959, Note_on_c, 1, 61, 0
4, 960, Note_on_c, 1, 58, 64
4, 983, Note_on_c, 1, 58, 0
4, 984, Note_on_c, 1, 61, 64
4, 1007, Note_on_c, 1, 61, 0
4, 1008, Note_on_c, 1, 58, 64
4, 1031, Note_on_c, 1, 58, 0
4, 1032, Note_on_c, 1, 61, 64
4, 1055, Note_on_c, 1, 61, 0
4, 1056, Note_on_c, 1, 58, 64
4, 1079, Note_on_c, 1, 58, 0
4, 1080, Note_on_c, 1, 61, 64
4, 1103, Note_on_c, 1, 61, 0
4, 1104, Note_on_c, 1, 58, 64
4, 1127, Note_on_c, 1, 58, 0
4, 1128, Control_c, 1, 64, 0
4, 1128, Note_on_c, 1, 61, 64
4, 1151, Note_on_c, 1, 61, 0
4, 1152, Control_c, 1, 64, 127
4, 1152, Note_on_c, 1, 59, 64
4, 1175, Note_on_c, 1, 59, 0
4, 1176, Note_on_c, 1, 63, 64
4, 1199, Note_on_c, 1, 63, 0
4, 1200, Note_on_c, 1, 59, 64
4, 1223, Note_on_c, 1, 59, 0
4, 1224, Note_on_c, 1, 63, 64
4, 1247, Note_on_c, 1, 63, 0
4, 1248, Note_on_c, 1, 59, 64
4, 1271, Note_on_c, 1, 59, 0
4, 1272, Note_on_c, 1, 63, 64
4, 1295, Note_on_c, 1, 63, 0
4, 1296, Note_on_c, 1, 59, 64
4, 1319, Note_on_c, 1, 59, 0
4, 1320, Note_on_c, 1, 63, 64
4, 1343, Note_on_c, 1, 63, 0
4, 1344, Control_c, 1, 64, 0
4, 1344, Note_on_c, 1, 59, 64
4, 1433, Note_on_c, 1, 59, 0
4, 1536, Note_on_c, 1, 63, 64
4, 1536, Note_on_c, 1, 59, 64
4, 1625, Note_on_c, 1, 63, 0
4, 1625, Note_on_c, 1, 59, 0
4, 1728, Note_on_c, 1, 66, 64
4, 1728, Note_on_c, 1, 63, 64
4, 1728, Note_on_c, 1, 59, 64
4, 1817, Note_on_c, 1, 66, 0
4, 1817, Note_on_c, 1, 63, 0
4, 1817, Note_on_c, 1, 59, 0
4, 1920, Control_c, 1, 64, 127
4, 1920, Note_on_c, 1, 59, 64
4, 1943, Note_on_c, 1, 59, 0
4, 1944, Note_on_c, 1, 63, 64
4, 1967, Note_on_c, 1, 63, 0
4, 1968, Note_on_c, 1, 59, 64
4, 1991, Note_on_c, 1, 59, 0
4, 1992, Note_on_c, 1, 63, 64
4, 2015, Note_on_c, 1, 63, 0
4, 2016, Note_on_c, 1, 59, 64
4, 2039, Note_on_c, 1, 59, 0
4, 2040, Note_on_c, 1, 63, 64
4, 2063, Note_on_c, 1, 63, 0
4, 2064, Note_on_c, 1, 59, 64
4, 2087, Note_on_c, 1, 59, 0
4, 2088, Control_c, 1, 64, 0
4, 2088, Note_on_c, 1, 63, 64
4, 2111, Note_on_c, 1, 63, 0
4, 2112, Control_c, 1, 64, 127
4, 2112, Note_on_c, 1, 59, 64
4, 2135, Note_on_c, 1, 59, 0
4, 2136, Note_on_c, 1, 64, 64
4, 2159, Note_on_c, 1, 64, 0
4, 2160, Note_on_c, 1, 59, 64
4, 2183, Note_on_c, 1, 59, 0
4, 2184, Note_on_c, 1, 64, 64
4, 2207, Note_on_c, 1, 64, 0
4, 2208, Note_on_c, 1, 59, 64
4, 2231, Note_on_c, 1, 59, 0
4, 2232, Note_on_c, 1, 64, 64
4, 2255, Note_on_c, 1, 64, 0
4, 2256, Note_on_c, 1, 59, 64
4, 2279, Note_on_c, 1, 59, 0
4, 2280, Control_c, 1, 64, 0
4, 2280, Note_on_c, 1, 64, 64
4, 2303, Note_on_c, 1, 64, 0
4, 2304, Note_on_c, 1, 63, 64
4, 2304, Note_on_c, 1, 59, 64
4, 2393, Note_on_c, 1, 63, 0
4, 2393, Note_on_c, 1, 59, 0
4, 2448, Note_on_c, 1, 61, 64
4, 2448, Note_on_c, 1, 59, 64
4, 2537, Note_on_c, 1, 61, 0
4, 2537, Note_on_c, 1, 59, 0
4, 2544, Note_on_c, 1, 59, 64
4, 2544, Note_on_c, 1, 56, 64
4, 2633, Note_on_c, 1, 59, 0
4, 2633, Note_on_c, 1, 56, 0
4, 2640, Note_on_c, 1, 51, 64
4, 2663, Note_on_c, 1, 51, 0
4, 2664, Note_on_c, 1, 52, 64
4, 2687, Note_on_c, 1, 52, 0
4, 2688, Note_on_c, 1, 54, 64
4, 2711, Note_on_c, 1, 54, 0
4, 2712, Note_on_c, 1, 53, 64
4, 2735, Note_on_c, 1, 53, 0
4, 2736, Note_on_c, 1, 54, 64
4, 2759, Note_on_c, 1, 54, 0
4, 2760, Note_on_c, 1, 53, 64
4, 2783, Note_on_c, 1, 53, 0
4, 2784, Note_on_c, 1, 54, 64
4, 2807, Note_on_c, 1, 54, 0
4, 2808, Note_on_c, 1, 49, 64
4, 2831, Note_on_c, 1, 49, 0
4, 2832, Note_on_c, 1, 46, 64
4, 2855, Note_on_c, 1, 46, 0
4, 2856, Note_on_c, 1, 49, 64
4, 2879, Note_on_c, 1, 49, 0
4, 2880, Note_on_c, 1, 42, 64
4, 2925, Note_on_c, 1, 42, 0
4, 2928, Note_on_c, 1, 44, 64
4, 2973, Note_on_c, 1, 44, 0
4, 2976, Note_on_c, 1, 42, 64
4, 2988, Note_on_c, 1, 42, 0
4, 2988, Note_on_c, 1, 44, 64
4, 3000, Note_on_c, 1, 44, 0
4, 3000, Note_on_c, 1, 42, 64
4, 3021, Note_on_c, 1, 42, 0
4, 3024, Note_on_c, 1, 40, 64
4, 3069, Note_on_c, 1, 40, 0
4, 3072, Note_on_c, 1, 39, 64
4, 3117, Note_on_c, 1, 39, 0
4, 3120, Note_on_c, 1, 51, 64
4, 3165, Note_on_c, 1, 51, 0
4, 3168, Note_on_c, 1, 52, 64
4, 3191, Note_on_c, 1, 52, 0
4, 3192, Note_on_c, 1, 56, 64
4, 3215, Note_on_c, 1, 56, 0
4, 3216, Note_on_c, 1, 61, 64
4, 3239, Note_on_c, 1, 61, 0
4, 3240, Note_on_c, 1, 56, 64
4, 3263, Note_on_c, 1, 56, 0
4, 3264, Note_on_c, 1, 52, 64
4, 3287, Note_on_c, 1, 52, 0
4, 3288, Note_on_c, 1, 56, 64
4, 3311, Note_on_c, 1, 56, 0
4, 3312, Note_on_c, 1, 61, 64
4, 3335, Note_on_c, 1, 61, 0
4, 3336, Note_on_c, 1, 56, 64
4, 3359, Note_on_c, 1, 56, 0
4, 3360, Note_on_c, 1, 52, 64
4, 3383, Note_on_c, 1, 52, 0
4, 3384, Note_on_c, 1, 56, 64
4, 3407, Note_on_c, 1, 56, 0
4, 3408, Note_on_c, 1, 61, 64
4, 3431, Note_on_c, 1, 61, 0
4, 3432, Note_on_c, 1, 56, 64
4, 3455, Note_on_c, 1, 56, 0
4, 3456, Note_on_c, 1, 54, 64
4, 3479, Note_on_c, 1, 54, 0
4, 3480, Note_on_c, 1, 59, 64
4, 3503, Note_on_c, 1, 59, 0
4, 3504, Note_on_c, 1, 63, 64
4, 3527, Note_on_c, 1, 63, 0
4, 3528, Note_on_c, 1, 59, 64
4, 3551, Note_on_c, 1, 59, 0
4, 3552, Note_on_c, 1, 54, 64
4, 3575, Note_on_c, 1, 54, 0
4, 3576, Note_on_c, 1, 59, 64
4, 3599, Note_on_c, 1, 59, 0
4, 3600, Note_on_c, 1, 63, 64
4, 3623, Note_on_c, 1, 63, 0
4, 3624, Note_on_c, 1, 59, 64
4, 3647, Note_on_c, 1, 59, 0
4, 3648, Note_on_c, 1, 54, 64
4, 3671, Note_on_c, 1, 54, 0
4, 3672, Note_on_c, 1, 58, 64
4, 3695, Note_on_c, 1, 58, 0
4, 3696, Note_on_c, 1, 64, 64
4, 3719, Note_on_c, 1, 64, 0
4, 3720, Note_on_c, 1, 58, 64
4, 3743, Note_on_c, 1, 58, 0
4, 3744, Note_on_c, 1, 54, 64
4, 3767, Note_on_c, 1, 54, 0
4, 3768, Note_on_c, 1, 58, 64
4, 3791, Note_on_c, 1, 58, 0
4, 3792, Note_on_c, 1, 64, 64
4, 3815, Note_on_c, 1, 64, 0
4, 3816, Note_on_c, 1, 58, 64
4, 3839, Note_on_c, 1, 58, 0
4, 3840, Note_on_c, 1, 63, 64
4, 3840, Note_on_c, 1, 59, 64
4, 3929, Note_on_c, 1, 63, 0
4, 3929, Note_on_c, 1, 59, 0
4, 4056, Note_on_c, 1, 61, 80
4, 4079, Note_on_c, 1, 61, 0
4, 4080, Note_on_c, 1, 63, 80
4, 4103, Note_on_c, 1, 63, 0
4, 4104, Note_on_c, 1, 65, 80
4, 4127, Note_on_c, 1, 65, 0
4, 4128, Note_on_c, 1, 66, 80
4, 4151, Note_on_c, 1, 66, 0
4, 4152, Note_on_c, 1, 68, 80
4, 4175, Note_on_c, 1, 68, 0
4, 4176, Note_on_c, 1, 70, 80
4, 4199, Note_on_c, 1, 70, 0
4, 4200, Note_on_c, 1, 72, 80
4, 4223, Note_on_c, 1, 72, 0
4, 4224, Note_on_c, 1, 73, 80
4, 4269, Note_on_c, 1, 73, 0
4, 4296, Note_on_c, 1, 72, 80
4, 4320, Note_on_c, 1, 72, 0
4, 4320, Note_on_c, 1, 73, 80
4, 4365, Note_on_c, 1, 73, 0
4, 4392, Note_on_c, 1, 72, 80
4, 4416, Note_on_c, 1, 72, 0
4, 4416, Note_on_c, 1, 73, 80
4, 4505, Note_on_c, 1, 73, 0
4, 4992, Note_on_c, 1, 61, 64
4, 5015, Note_on_c, 1, 61, 0
4, 5016, Note_on_c, 1, 70, 64
4, 5039, Note_on_c, 1, 70, 0
4, 5040, Note_on_c, 1, 66, 64
4, 5063, Note_on_c, 1, 66, 0
4, 5064, Note_on_c, 1, 70, 64
4, 5087, Note_on_c, 1, 70, 0
4, 5088, Note_on_c, 1, 61, 64
4, 5111, Note_on_c, 1, 61, 0
4, 5112, Note_on_c, 1, 70, 64
4, 5135, Note_on_c, 1, 70, 0
4, 5136, Note_on_c, 1, 66, 64
4, 5159, Note_on_c, 1, 66, 0
4, 5160, Note_on_c, 1, 70, 64
4, 5183, Note_on_c, 1, 70, 0
4, 5184, Note_on_c, 1, 61, 64
4, 5207, Note_on_c, 1, 61, 0
4, 5208, Note_on_c, 1, 70, 64
4, 5231, Note_on_c, 1, 70, 0
4, 5232, Note_on_c, 1, 66, 64
4, 5255, Note_on_c, 1, 66, 0
4, 5256, Note_on_c, 1, 70, 64
4, 5279, Note_on_c, 1, 70, 0
4, 5280, Note_on_c, 1, 61, 64
4, 5303, Note_on_c, 1, 61, 0
4, 5304, Note_on_c, 1, 70, 64
4, 5327, Note_on_c, 1, 70, 0
4, 5328, Note_on_c, 1, 66, 64
4, 5351, Note_on_c, 1, 66, 0
4, 5352, Note_on_c, 1, 70, 64
4, 5375, Note_on_c, 1, 70, 0
4, 5376, Note_on_c, 1, 61, 64
4, 5399, Note_on_c, 1, 61, 0
4, 5400, Note_on_c, 1, 71, 64
4, 5423, Note_on_c, 1, 71, 0
4, 5424, Note_on_c, 1, 68, 64
4, 5447, Note_on_c, 1, 68, 0
4, 5448, Note_on_c, 1, 71, 64
4, 5471, Note_on_c, 1, 71, 0
4, 5472, Note_on_c, 1, 61, 64
4, 5495, Note_on_c, 1, 61, 0
4, 5496, Note_on_c, 1, 71, 64
4, 5519, Note_on_c, 1, 71, 0
4, 5520, Note_on_c, 1, 68, 64
4, 5543, Note_on_c, 1, 68, 0
4, 5544, Note_on_c, 1, 71, 64
4, 5567, Note_on_c, 1, 71, 0
4, 5568, Note_on_c, 1, 61, 64
4, 5591, Note_on_c, 1, 61, 0
4, 5592, Note_on_c, 1, 71, 64
4, 5615, Note_on_c, 1, 71, 0
4, 5616, Note_on_c, 1, 68, 64
4, 5639, Note_on_c, 1, 68, 0
4, 5640, Note_on_c, 1, 71, 64
4, 5663, Note_on_c, 1, 71, 0
4, 5664, Note_on_c, 1, 61, 64
4, 5687, Note_on_c, 1, 61, 0
4, 5688, Note_on_c, 1, 71, 64
4, 5711, Note_on_c, 1, 71, 0
4, 5712, Note_on_c, 1, 68, 64
4, 5735, Note_on_c, 1, 68, 0
4, 5736, Note_on_c, 1, 71, 64
4, 5759, Note_on_c, 1, 71, 0
4, 5760, Note_on_c, 1, 61, 64
4, 5783, Note_on_c, 1, 61, 0
4, 5784, Note_on_c, 1, 69, 64
4, 5807, Note_on_c, 1, 69, 0
4, 5808, Note_on_c, 1, 66, 64
4, 5831, Note_on_c, 1, 66, 0
4, 5832, Note_on_c, 1, 69, 64
4, 5855, Note_on_c, 1, 69, 0
4, 5856, Note_on_c, 1, 61, 64
4, 5879, Note_on_c, 1, 61, 0
4, 5880, Note_on_c, 1, 69, 64
4, 5903, Note_on_c, 1, 69, 0
4, 5904, Note_on_c, 1, 66, 64
4, 5927, Note_on_c, 1, 66, 0
4, 5928, Note_on_c, 1, 69, 64
4, 5951, Note_on_c, 1, 69, 0
4, 5952, Note_on_c, 1, 61, 64
4, 5975, Note_on_c, 1, 61, 0
4, 5976, Note_on_c, 1, 69, 64
4, 5999, Note_on_c, 1, 69, 0
4, 6000, Note_on_c, 1, 66, 64
4, 6023, Note_on_c, 1, 66, 0
4, 6024, Note_on_c, 1, 69, 64
4, 6047, Note_on_c, 1, 69, 0
4, 6048, Note_on_c, 1, 61, 64
4, 6071, Note_on_c, 1, 61, 0
4, 6072, Note_on_c, 1, 69, 64
4, 6095, Note_on_c, 1, 69, 0
4, 6096, Note_on_c, 1, 66, 64
4, 6119, Note_on_c, 1, 66, 0
4, 6120, Note_on_c, 1, 69, 64
4, 6143, Note_on_c, 1, 69, 0
4, 6144, Note_on_c, 1, 62, 64
4, 6167, Note_on_c, 1, 62, 0
4, 6168, Note_on_c, 1, 69, 64
4, 6191, Note_on_c, 1, 69, 0
4, 6192, Note_on_c, 1, 66, 64
4, 6215, Note_on_c, 1, 66, 0
4, 6216, Note_on_c, 1, 69, 64
4, 6239, Note_on_c, 1, 69, 0
4, 6240, Note_on_c, 1, 62, 64
4, 6263, Note_on_c, 1, 62, 0
4, 6264, Note_on_c, 1, 69, 64
4, 6287, Note_on_c, 1, 69, 0
4, 6288, Note_on_c, 1, 66, 64
4, 6311, Note_on_c, 1, 66, 0
4, 6312, Note_on_c, 1, 69, 64
4, 6335, Note_on_c, 1, 69, 0
4, 6336, Note_on_c, 1, 62, 64
4, 6359, Note_on_c, 1, 62, 0
4, 6360, Note_on_c, 1, 69, 64
4, 6383, Note_on_c, 1, 69, 0
4, 6384, Note_on_c, 1, 66, 64
4, 6407, Note_on_c, 1, 66, 0
4, 6408, Note_on_c, 1, 69, 64
4, 6431, Note_on_c, 1, 69, 0
4, 6432, Note_on_c, 1, 62, 64
4, 6455, Note_on_c, 1, 62, 0
4, 6456, Note_on_c, 1, 69, 64
4, 6479, Note_on_c, 1, 69, 0
4, 6480, Note_on_c, 1, 66, 64
4, 6503, Note_on_c, 1, 66, 0
4, 6504, Note_on_c, 1, 69, 64
4, 6527, Note_on_c, 1, 69, 0
4, 6528, Note_on_c, 1, 60, 64
4, 6551, Note_on_c, 1, 60, 0
4, 6552, Note_on_c, 1, 69, 64
4, 6575, Note_on_c, 1, 69, 0
4, 6576, Note_on_c, 1, 66, 64
4, 6599, Note_on_c, 1, 66, 0
4, 6600, Note_on_c, 1, 69, 64
4, 6623, Note_on_c, 1, 69, 0
4, 6624, Note_on_c, 1, 60, 64
4, 6647, Note_on_c, 1, 60, 0
4, 6648, Note_on_c, 1, 69, 64
4, 6671, Note_on_c, 1, 69, 0
4, 6672, Note_on_c, 1, 66, 64
4, 6695, Note_on_c, 1, 66, 0
4, 6696, Note_on_c, 1, 69, 64
4, 6719, Note_on_c, 1, 69, 0
4, 6720, Note_on_c, 1, 60, 64
4, 6743, Note_on_c, 1, 60, 0
4, 6744, Note_on_c, 1, 69, 64
4, 6767, Note_on_c, 1, 69, 0
4, 6768, Note_on_c, 1, 66, 64
4, 6791, Note_on_c, 1, 66, 0
4, 6792, Note_on_c, 1, 69, 64
4, 6815, Note_on_c, 1, 69, 0
4, 6816, Note_on_c, 1, 60, 64
4, 6839, Note_on_c, 1, 60, 0
4, 6840, Note_on_c, 1, 69, 64
4, 6863, Note_on_c, 1, 69, 0
4, 6864, Note_on_c, 1, 66, 64
4, 6887, Note_on_c, 1, 66, 0
4, 6888, Note_on_c, 1, 69, 64
4, 6911, Note_on_c, 1, 69, 0
4, 6912, Note_on_c, 1, 66, 80
4, 6912, Note_on_c, 1, 63, 80
4, 6912, Note_on_c, 1, 59, 80
4, 7008, Note_on_c, 1, 66, 0
4, 7008, Note_on_c, 1, 63, 0
4, 7008, Note_on_c, 1, 59, 0
4, 7104, Note_on_c, 1, 66, 64
4, 7104, Note_on_c, 1, 63, 64
4, 7104, Note_on_c, 1, 59, 64
4, 7193, Note_on_c, 1, 66, 0
4, 7193, Note_on_c, 1, 63, 0
4, 7193, Note_on_c, 1, 59, 0
4, 7296, Note_on_c, 1, 67, 80
4, 7296, Note_on_c, 1, 64, 80
4, 7296, Note_on_c, 1, 59, 80
4, 7392, Note_on_c, 1, 67, 0
4, 7392, Note_on_c, 1, 64, 0
4, 7392, Note_on_c, 1, 59, 0
4, 7488, Note_on_c, 1, 67, 64
4, 7488, Note_on_c, 1, 64, 64
4, 7488, Note_on_c, 1, 59, 64
4, 7577, Note_on_c, 1, 67, 0
4, 7577, Note_on_c, 1, 64, 0
4, 7577, Note_on_c, 1, 59, 0
4, 7680, Note_on_c, 1, 47, 64
4, 7703, Note_on_c, 1, 47, 0
4, 7704, Note_on_c, 1, 50, 64
4, 7727, Note_on_c, 1, 50, 0
4, 7728, Note_on_c, 1, 49, 64
4, 7751, Note_on_c, 1, 49, 0
4, 7752, Note_on_c, 1, 50, 64
4, 7775, Note_on_c, 1, 50, 0
4, 7776, Note_on_c, 1, 47, 64
4, 7799, Note_on_c, 1, 47, 0
4, 7800, Note_on_c, 1, 50, 64
4, 7823, Note_on_c, 1, 50, 0
4, 7824, Note_on_c, 1, 49, 64
4, 7847, Note_on_c, 1, 49, 0
4, 7848, Note_on_c, 1, 50, 64
4, 7871, Note_on_c, 1, 50, 0
4, 7872, Note_on_c, 1, 48, 64
4, 7895, Note_on_c, 1, 48, 0
4, 7896, Note_on_c, 1, 55, 64
4, 7919, Note_on_c, 1, 55, 0
4, 7920, Note_on_c, 1, 52, 64
4, 7943, Note_on_c, 1, 52, 0
4, 7944, Note_on_c, 1, 55, 64
4, 7967, Note_on_c, 1, 55, 0
4, 7968, Note_on_c, 1, 48, 64
4, 7991, Note_on_c, 1, 48, 0
4, 7992, Note_on_c, 1, 55, 64
4, 8015, Note_on_c, 1, 55, 0
4, 8016, Note_on_c, 1, 52, 64
4, 8039, Note_on_c, 1, 52, 0
4, 8040, Note_on_c, 1, 55, 64
4, 8063, Note_on_c, 1, 55, 0
4, 8064, Note_on_c, 1, 59, 64
4, 8087, Note_on_c, 1, 59, 0
4, 8088, Note_on_c, 1, 62, 64
4, 8111, Note_on_c, 1, 62, 0
4, 8112, Note_on_c, 1, 61, 64
4, 8135, Note_on_c, 1, 61, 0
4, 8136, Note_on_c, 1, 59, 64
4, 8159, Note_on_c, 1, 59, 0
4, 8184, Note_on_c, 1, 62, 64
4, 8207, Note_on_c, 1, 62, 0
4, 8208, Note_on_c, 1, 61, 64
4, 8231, Note_on_c, 1, 61, 0
4, 8232, Note_on_c, 1, 59, 64
4, 8255, Note_on_c, 1, 59, 0
4, 8256, Note_on_c, 1, 58, 64
4, 8345, Note_on_c, 1, 58, 0
4, 8448, Note_on_c, 1, 49, 64
4, 8471, Note_on_c, 1, 49, 0
4, 8472, Note_on_c, 1, 58, 64
4, 8495, Note_on_c, 1, 58, 0
4, 8496, Note_on_c, 1, 54, 64
4, 8519, Note_on_c, 1, 54, 0
4, 8520, Note_on_c, 1, 58, 64
4, 8543, Note_on_c, 1, 58, 0
4, 8544, Note_on_c, 1, 49, 64
4, 8567, Note_on_c, 1, 49, 0
4, 8568, Note_on_c, 1, 58, 64
4, 8591, Note_on_c, 1, 58, 0
4, 8592, Note_on_c, 1, 54, 64
4, 8615, Note_on_c, 1, 54, 0
4, 8616, Note_on_c, 1, 58, 64
4, 8639, Note_on_c, 1, 58, 0
4, 8640, Note_on_c, 1, 49, 64
4, 8663, Note_on_c, 1, 49, 0
4, 8664, Note_on_c, 1, 59, 64
4, 8687, Note_on_c, 1, 59, 0
4, 8688, Note_on_c, 1, 53, 64
4, 8711, Note_on_c, 1, 53, 0
4, 8712, Note_on_c, 1, 59, 64
4, 8735, Note_on_c, 1, 59, 0
4, 8736, Note_on_c, 1, 49, 64
4, 8759, Note_on_c, 1, 49, 0
4, 8760, Note_on_c, 1, 59, 64
4, 8783, Note_on_c, 1, 59, 0
4, 8784, Note_on_c, 1, 53, 64
4, 8807, Note_on_c, 1, 53, 0
4, 8808, Note_on_c, 1, 59, 64
4, 8831, Note_on_c, 1, 59, 0
4, 8832, Note_on_c, 1, 58, 64
4, 8832, Note_on_c, 1, 54, 64
4, 8921, Note_on_c, 1, 58, 0
4, 8921, Note_on_c, 1, 54, 0
4, 9120, Note_on_c, 1, 56, 75
4, 9120, Note_on_c, 1, 49, 75
4, 9209, Note_on_c, 1, 56, 0
4, 9209, Note_on_c, 1, 49, 0
4, 9216, Note_on_c, 1, 54, 75
4, 9305, Note_on_c, 1, 54, 0
4, 9504, Note_on_c, 1, 68, 70
4, 9504, Note_on_c, 1, 61, 70
4, 9593, Note_on_c, 1, 68, 0
4, 9593, Note_on_c, 1, 61, 0
4, 9600, Note_on_c, 1, 66, 70
4, 9639, Note_on_c, 1, 66, 0
4, 9984, Control_c, 1, 64, 127
4, 9984, Note_on_c, 1, 59, 64
4, 10007, Note_on_c, 1, 59, 0
4, 10008, Note_on_c, 1, 63, 64
4, 10031, Note_on_c, 1, 63, 0
4, 10032, Note_on_c, 1, 59, 64
4, 10055, Note_on_c, 1, 59, 0
4, 10056, Note_on_c, 1, 63, 64
4, 10079, Note_on_c, 1, 63, 0
4, 10080, Note_on_c, 1, 59, 64
4, 10103, Note_on_c, 1, 59, 0
4, 10104, Note_on_c, 1, 63, 64
4, 10127, Note_on_c, 1, 63, 0
4, 10128, Note_on_c, 1, 59, 64
4, 10151, Note_on_c, 1, 59, 0
4, 10152, Note_on_c, 1, 63, 64
4, 10175, Note_on_c, 1, 63, 0
4, 10176, Note_on_c, 1, 59, 64
4, 10199, Note_on_c, 1, 59, 0
4, 10200, Note_on_c, 1, 63, 64
4, 10223, Note_on_c, 1, 63, 0
4, 10224, Note_on_c, 1, 59, 64
4, 10247, Note_on_c, 1, 59, 0
4, 10248, Note_on_c, 1, 63, 64
4, 10271, Note_on_c, 1, 63, 0
4, 10272, Note_on_c, 1, 59, 64
4, 10295, Note_on_c, 1, 59, 0
4, 10296, Note_on_c, 1, 63, 64
4, 10319, Note_on_c, 1, 63, 0
4, 10320, Note_on_c, 1, 59, 64
4, 10343, Note_on_c, 1, 59, 0
4, 10344, Control_c, 1, 64, 0
4, 10344, Note_on_c, 1, 63, 64
4, 10367, Note_on_c, 1, 63, 0
4, 10368, Control_c, 1, 64, 127
4, 10368, Note_on_c, 1, 59, 64
4, 10391, Note_on_c, 1, 59, 0
4, 10392, Note_on_c, 1, 64, 64
4, 10415, Note_on_c, 1, 64, 0
4, 10416, Note_on_c, 1, 59, 64
4, 10439, Note_on_c, 1, 59, 0
4, 10440, Note_on_c, 1, 64, 64
4, 10463, Note_on_c, 1, 64, 0
4, 10464, Note_on_c, 1, 59, 64
4, 10487, Note_on_c, 1, 59, 0
4, 10488, Note_on_c, 1, 64, 64
4, 10511, Note_on_c, 1, 64, 0
4, 10512, Note_on_c, 1, 59, 64
4, 10535, Note_on_c, 1, 59, 0
4, 10536, Note_on_c, 1, 64, 64
4, 10559, Note_on_c, 1, 64, 0
4, 10560, Note_on_c, 1, 59, 64
4, 10583, Note_on_c, 1, 59, 0
4, 10584, Note_on_c, 1, 64, 64
4, 10607, Note_on_c, 1, 64, 0
4, 10608, Note_on_c, 1, 59, 64
4, 10631, Note_on_c, 1, 59, 0
4, 10632, Control_c, 1, 64, 0
4, 10632, Note_on_c, 1, 64, 64
4, 10655, Note_on_c, 1, 64, 0
4, 10656, Control_c, 1, 64, 127
4, 10656, Note_on_c, 1, 59, 64
4, 10679, Note_on_c, 1, 59, 0
4, 10680, Note_on_c, 1, 63, 64
4, 10703, Note_on_c, 1, 63, 0
4, 10704, Note_on_c, 1, 59, 64
4, 10727, Note_on_c, 1, 59, 0
4, 10728, Control_c, 1, 64, 0
4, 10728, Note_on_c, 1, 63, 64
4, 10751, Note_on_c, 1, 63, 0
4, 10752, Control_c, 1, 64, 127
4, 10752, Note_on_c, 1, 58, 64
4, 10775, Note_on_c, 1, 58, 0
4, 10776, Note_on_c, 1, 61, 64
4, 10799, Note_on_c, 1, 61, 0
4, 10800, Note_on_c, 1, 58, 64
4, 10823, Note_on_c, 1, 58, 0
4, 10824, Note_on_c, 1, 61, 64
4, 10847, Note_on_c, 1, 61, 0
4, 10848, Note_on_c, 1, 58, 64
4, 10871, Note_on_c, 1, 58, 0
4, 10872, Note_on_c, 1, 61, 64
4, 10895, Note_on_c, 1, 61, 0
4, 10896, Note_on_c, 1, 58, 64
4, 10919, Note_on_c, 1, 58, 0
4, 10920, Note_on_c, 1, 61, 64
4, 10943, Note_on_c, 1, 61, 0
4, 10944, Note_on_c, 1, 58, 64
4, 10967, Note_on_c, 1, 58, 0
4, 10968, Note_on_c, 1, 61, 64
4, 10991, Note_on_c, 1, 61, 0
4, 10992, Note_on_c, 1, 58, 64
4, 11015, Note_on_c, 1, 58, 0
4, 11016, Note_on_c, 1, 61, 64
4, 11039, Note_on_c, 1, 61, 0
4, 11040, Note_on_c, 1, 58, 64
4, 11063, Note_on_c, 1, 58, 0
4, 11064, Note_on_c, 1, 61, 64
4, 11087, Note_on_c, 1, 61, 0
4, 11088, Note_on_c, 1, 58, 64
4, 11111, Note_on_c, 1, 58, 0
4, 11112, Control_c, 1, 64, 0
4, 11112, Note_on_c, 1, 61, 64
4, 11135, Note_on_c, 1, 61, 0
4, 11136, Control_c, 1, 64, 127
4, 11136, Note_on_c, 1, 59, 64
4, 11159, Note_on_c, 1, 59, 0
4, 11160, Note_on_c, 1, 63, 64
4, 11183, Note_on_c, 1, 63, 0
4, 11184, Note_on_c, 1, 59, 64
4, 11207, Note_on_c, 1, 59, 0
4, 11208, Note_on_c, 1, 63, 64
4, 11231, Note_on_c, 1, 63, 0
4, 11232, Note_on_c, 1, 59, 64
4, 11255, Note_on_c, 1, 59, 0
4, 11256, Note_on_c, 1, 63, 64
4, 11279, Note_on_c, 1, 63, 0
4, 11280, Note_on_c, 1, 59, 64
4, 11303, Note_on_c, 1, 59, 0
4, 11304, Note_on_c, 1, 63, 64
4, 11327, Note_on_c, 1, 63, 0
4, 11328, Control_c, 1, 64, 0
4, 11328, Note_on_c, 1, 59, 64
4, 11417, Note_on_c, 1, 59, 0
4, 11520, Note_on_c, 1, 63, 64
4, 11520, Note_on_c, 1, 59, 64
4, 11609, Note_on_c, 1, 63, 0
4, 11609, Note_on_c, 1, 59, 0
4, 11712, Note_on_c, 1, 66, 64
4, 11712, Note_on_c, 1, 63, 64
4, 11712, Note_on_c, 1, 59, 64
4, 11801, Note_on_c, 1, 66, 0
4, 11801, Note_on_c, 1, 63, 0
4, 11801, Note_on_c, 1, 59, 0
4, 11904, Control_c, 1, 64, 127
4, 11904, Note_on_c, 1, 59, 64
4, 11927, Note_on_c, 1, 59, 0
4, 11928, Note_on_c, 1, 63, 64
4, 11951, Note_on_c, 1, 63, 0
4, 11952, Note_on_c, 1, 59, 64
4, 11975, Note_on_c, 1, 59, 0
4, 11976, Note_on_c, 1, 63, 64
4, 11999, Note_on_c, 1, 63, 0
4, 12000, Note_on_c, 1, 59, 64
4, 12023, Note_on_c, 1, 59, 0
4, 12024, Note_on_c, 1, 63, 64
4, 12047, Note_on_c, 1, 63, 0
4, 12048, Note_on_c, 1, 59, 64
4, 12071, Note_on_c, 1, 59, 0
4, 12072, Control_c, 1, 64, 0
4, 12072, Note_on_c, 1, 63, 64
4, 12095, Note_on_c, 1, 63, 0
4, 12096, Control_c, 1, 64, 127
4, 12096, Note_on_c, 1, 59, 64
4, 12119, Note_on_c, 1, 59, 0
4, 12120, Note_on_c, 1, 64, 64
4, 12143, Note_on_c, 1, 64, 0
4, 12144, Note_on_c, 1, 59, 64
4, 12167, Note_on_c, 1, 59, 0
4, 12168, Note_on_c, 1, 64, 64
4, 12191, Note_on_c, 1, 64, 0
4, 12192, Note_on_c, 1, 59, 64
4, 12215, Note_on_c, 1, 59, 0
4, 12216, Note_on_c, 1, 64, 64
4, 12239, Note_on_c, 1, 64, 0
4, 12240, Note_on_c, 1, 59, 64
4, 12263, Note_on_c, 1, 59, 0
4, 12264, Control_c, 1, 64, 0
4, 12264, Note_on_c, 1, 64, 64
4, 12287, Note_on_c, 1, 64, 0
4, 12288, Note_on_c, 1, 63, 64
4, 12288, Note_on_c, 1, 59, 64
4, 12377, Note_on_c, 1, 63, 0
4, 12377, Note_on_c, 1, 59, 0
4, 12432, Note_on_c, 1, 61, 64
4, 12432, Note_on_c, 1, 59, 64
4, 12521, Note_on_c, 1, 61, 0
4, 12521, Note_on_c, 1, 59, 0
4, 12528, Note_on_c, 1, 59, 64
4, 12528, Note_on_c, 1, 56, 64
4, 12617, Note_on_c, 1, 59, 0
4, 12617, Note_on_c, 1, 56, 0
4, 12624, Note_on_c, 1, 51, 64
4, 12647, Note_on_c, 1, 51, 0
4, 12648, Note_on_c, 1, 52, 64
4, 12671, Note_on_c, 1, 52, 0
4, 12672, Note_on_c, 1, 54, 64
4, 12695, Note_on_c, 1, 54, 0
4, 12696, Note_on_c, 1, 53, 64
4, 12719, Note_on_c, 1, 53, 0
4, 12720, Note_on_c, 1, 54, 64
4, 12743, Note_on_c, 1, 54, 0
4, 12744, Note_on_c, 1, 53, 64
4, 12767, Note_on_c, 1, 53, 0
4, 12768, Note_on_c, 1, 54, 64
4, 12791, Note_on_c, 1, 54, 0
4, 12792, Note_on_c, 1, 49, 64
4, 12815, Note_on_c, 1, 49, 0
4, 12816, Note_on_c, 1, 46, 64
4, 12839, Note_on_c, 1, 46, 0
4, 12840, Note_on_c, 1, 49, 64
4, 12863, Note_on_c, 1, 49, 0
4, 12864, Note_on_c, 1, 42, 64
4, 12909, Note_on_c, 1, 42, 0
4, 12912, Note_on_c, 1, 44, 64
4, 12957, Note_on_c, 1, 44, 0
4, 12960, Note_on_c, 1, 42, 64
4, 12972, Note_on_c, 1, 42, 0
4, 12972, Note_on_c, 1, 44, 64
4, 12984, Note_on_c, 1, 44, 0
4, 12984, Note_on_c, 1, 42, 64
4, 13005, Note_on_c, 1, 42, 0
4, 13008, Note_on_c, 1, 40, 64
4, 13053, Note_on_c, 1, 40, 0
4, 13056, Note_on_c, 1, 39, 64
4, 13101, Note_on_c, 1, 39, 0
4, 13104, Note_on_c, 1, 51, 64
4, 13149, Note_on_c, 1, 51, 0
4, 13152, Note_on_c, 1, 52, 64
4, 13175, Note_on_c, 1, 52, 0
4, 13176, Note_on_c, 1, 56, 64
4, 13199, Note_on_c, 1, 56, 0
4, 13200, Note_on_c, 1, 61, 64
4, 13223, Note_on_c, 1, 61, 0
4, 13224, Note_on_c, 1, 56, 64
4, 13247, Note_on_c, 1, 56, 0
4, 13248, Note_on_c, 1, 52, 64
4, 13271, Note_on_c, 1, 52, 0
4, 13272, Note_on_c, 1, 56, 64
4, 13295, Note_on_c, 1, 56, 0
4, 13296, Note_on_c, 1, 61, 64
4, 13319, Note_on_c, 1, 61, 0
4, 13320, Note_on_c, 1, 56, 64
4, 13343, Note_on_c, 1, 56, 0
4, 13344, Note_on_c, 1, 52, 64
4, 13367, Note_on_c, 1, 52, 0
4, 13368, Note_on_c, 1, 56, 64
4, 13391, Note_on_c, 1, 56, 0
4, 13392, Note_on_c, 1, 61, 64
4, 13415, Note_on_c, 1, 61, 0
4, 13416, Note_on_c, 1, 56, 64
4, 13439, Note_on_c, 1, 56, 0
4, 13440, Note_on_c, 1, 54, 64
4, 13463, Note_on_c, 1, 54, 0
4, 13464, Note_on_c, 1, 59, 64
4, 13487, Note_on_c, 1, 59, 0
4, 13488, Note_on_c, 1, 63, 64
4, 13511, Note_on_c, 1, 63, 0
4, 13512, Note_on_c, 1, 59, 64
4, 13535, Note_on_c, 1, 59, 0
4, 13536, Note_on_c, 1, 54, 64
4, 13559, Note_on_c, 1, 54, 0
4, 13560, Note_on_c, 1, 59, 64
4, 13583, Note_on_c, 1, 59, 0
4, 13584, Note_on_c, 1, 63, 64
4, 13607, Note_on_c, 1, 63, 0
4, 13608, Note_on_c, 1, 59, 64
4, 13631, Note_on_c, 1, 59, 0
4, 13632, Note_on_c, 1, 54, 64
4, 13655, Note_on_c, 1, 54, 0
4, 13656, Note_on_c, 1, 58, 64
4, 13679, Note_on_c, 1, 58, 0
4, 13680, Note_on_c, 1, 64, 64
4, 13703, Note_on_c, 1, 64, 0
4, 13704, Note_on_c, 1, 58, 64
4, 13727, Note_on_c, 1, 58, 0
4, 13728, Note_on_c, 1, 54, 64
4, 13751, Note_on_c, 1, 54, 0
4, 13752, Note_on_c, 1, 58, 64
4, 13775, Note_on_c, 1, 58, 0
4, 13776, Note_on_c, 1, 64, 64
4, 13799, Note_on_c, 1, 64, 0
4, 13800, Note_on_c, 1, 58, 64
4, 13823, Note_on_c, 1, 58, 0
4, 13824, Note_on_c, 1, 63, 64
4, 13824, Note_on_c, 1, 59, 64
4, 13913, Note_on_c, 1, 63, 0
4, 13913, Note_on_c, 1, 59, 0
4, 14040, Note_on_c, 1, 61, 80
4, 14063, Note_on_c, 1, 61, 0
4, 14064, Note_on_c, 1, 63, 80
4, 14087, Note_on_c, 1, 63, 0
4, 14088, Note_on_c, 1, 65, 80
4, 14111, Note_on_c, 1, 65, 0
4, 14112, Note_on_c, 1, 66, 80
4, 14135, Note_on_c, 1, 66, 0
4, 14136, Note_on_c, 1, 68, 80
4, 14159, Note_on_c, 1, 68, 0
4, 14160, Note_on_c, 1, 70, 80
4, 14183, Note_on_c, 1, 70, 0
4, 14184, Note_on_c, 1, 72, 80
4, 14207, Note_on_c, 1, 72, 0
4, 14208, Note_on_c, 1, 73, 80
4, 14253, Note_on_c, 1, 73, 0
4, 14280, Note_on_c, 1, 72, 80
4, 14304, Note_on_c, 1, 72, 0
4, 14304, Note_on_c, 1, 73, 80
4, 14349, Note_on_c, 1, 73, 0
4, 14376, Note_on_c, 1, 72, 80
4, 14400, Note_on_c, 1, 72, 0
4, 14400, Note_on_c, 1, 73, 80
4, 14489, Note_on_c, 1, 73, 0
4, 14976, Note_on_c, 1, 61, 64
4, 14999, Note_on_c, 1, 61, 0
4, 15000, Note_on_c, 1, 70, 64
4, 15023, Note_on_c, 1, 70, 0
4, 15024, Note_on_c, 1, 66, 64
4, 15047, Note_on_c, 1, 66, 0
4, 15048, Note_on_c, 1, 70, 64
4, 15071, Note_on_c, 1, 70, 0
4, 15072, Note_on_c, 1, 61, 64
4, 15095, Note_on_c, 1, 61, 0
4, 15096, Note_on_c, 1, 70, 64
4, 15119, Note_on_c, 1, 70, 0
4, 15120, Note_on_c, 1, 66, 64
4, 15143, Note_on_c, 1, 66, 0
4, 15144, Note_on_c, 1, 70, 64
4, 15167, Note_on_c, 1, 70, 0
4, 15168, Note_on_c, 1, 61, 64
4, 15191, Note_on_c, 1, 61, 0
4, 15192, Note_on_c, 1, 70, 64
4, 15215, Note_on_c, 1, 70, 0
4, 15216, Note_on_c, 1, 66, 64
4, 15239, Note_on_c, 1, 66, 0
4, 15240, Note_on_c, 1, 70, 64
4, 15263, Note_on_c, 1, 70, 0
4, 15264, Note_on_c, 1, 61, 64
4, 15287, Note_on_c, 1, 61, 0
4, 15288, Note_on_c, 1, 70, 64
4, 15311, Note_on_c, 1, 70, 0
4, 15312, Note_on_c, 1, 66, 64
4, 15335, Note_on_c, 1, 66, 0
4, 15336, Note_on_c, 1, 70, 64
4, 15359, Note_on_c, 1, 70, 0
4, 15360, Note_on_c, 1, 61, 64
4, 15383, Note_on_c, 1, 61, 0
4, 15384, Note_on_c, 1, 71, 64
4, 15407, Note_on_c, 1, 71, 0
4, 15408, Note_on_c, 1, 68, 64
4, 15431, Note_on_c, 1, 68, 0
4, 15432, Note_on_c, 1, 71, 64
4, 15455, Note_on_c, 1, 71, 0
4, 15456, Note_on_c, 1, 61, 64
4, 15479, Note_on_c, 1, 61, 0
4, 15480, Note_on_c, 1, 71, 64
4, 15503, Note_on_c, 1, 71, 0
4, 15504, Note_on_c, 1, 68, 64
4, 15527, Note_on_c, 1, 68, 0
4, 15528, Note_on_c, 1, 71, 64
4, 15551, Note_on_c, 1, 71, 0
4, 15552, Note_on_c, 1, 61, 64
4, 15575, Note_on_c, 1, 61, 0
4, 15576, Note_on_c, 1, 71, 64
4, 15599, Note_on_c, 1, 71, 0
4, 15600, Note_on_c, 1, 68, 64
4, 15623, Note_on_c, 1, 68, 0
4, 15624, Note_on_c, 1, 71, 64
4, 15647, Note_on_c, 1, 71, 0
4, 15648, Note_on_c, 1, 61, 64
4, 15671, Note_on_c, 1, 61, 0
4, 15672, Note_on_c, 1, 71, 64
4, 15695, Note_on_c, 1, 71, 0
4, 15696, Note_on_c, 1, 68, 64
4, 15719, Note_on_c, 1, 68, 0
4, 15720, Note_on_c, 1, 71, 64
4, 15743, Note_on_c, 1, 71, 0
4, 15744, Note_on_c, 1, 61, 64
4, 15767, Note_on_c, 1, 61, 0
4, 15768, Note_on_c, 1, 69, 64
4, 15791, Note_on_c, 1, 69, 0
4, 15792, Note_on_c, 1, 66, 64
4, 15815, Note_on_c, 1, 66, 0
4, 15816, Note_on_c, 1, 69, 64
4, 15839, Note_on_c, 1, 69, 0
4, 15840, Note_on_c, 1, 61, 64
4, 15863, Note_on_c, 1, 61, 0
4, 15864, Note_on_c, 1, 69, 64
4, 15887, Note_on_c, 1, 69, 0
4, 15888, Note_on_c, 1, 66, 64
4, 15911, Note_on_c, 1, 66, 0
4, 15912, Note_on_c, 1, 69, 64
4, 15935, Note_on_c, 1, 69, 0
4, 15936, Note_on_c, 1, 61, 64
4, 15959, Note_on_c, 1, 61, 0
4, 15960, Note_on_c, 1, 69, 64
4, 15983, Note_on_c, 1, 69, 0
4, 15984, Note_on_c, 1, 66, 64
4, 16007, Note_on_c, 1, 66, 0
4, 16008, Note_on_c, 1, 69, 64
4, 16031, Note_on_c, 1, 69, 0
4, 16032, Note_on_c, 1, 61, 64
4, 16055, Note_on_c, 1, 61, 0
4, 16056, Note_on_c, 1, 69, 64
4, 16079, Note_on_c, 1, 69, 0
4, 16080, Note_on_c, 1, 66, 64
4, 16103, Note_on_c, 1, 66, 0
4, 16104, Note_on_c, 1, 69, 64
4, 16127, Note_on_c, 1, 69, 0
4, 16128, Note_on_c, 1, 62, 64
4, 16151, Note_on_c, 1, 62, 0
4, 16152, Note_on_c, 1, 69, 64
4, 16175, Note_on_c, 1, 69, 0
4, 16176, Note_on_c, 1, 66, 64
4, 16199, Note_on_c, 1, 66, 0
4, 16200, Note_on_c, 1, 69, 64
4, 16223, Note_on_c, 1, 69, 0
4, 16224, Note_on_c, 1, 62, 64
4, 16247, Note_on_c, 1, 62, 0
4, 16248, Note_on_c, 1, 69, 64
4, 16271, Note_on_c, 1, 69, 0
4, 16272, Note_on_c, 1, 66, 64
4, 16295, Note_on_c, 1, 66, 0
4, 16296, Note_on_c, 1, 69, 64
4, 16319, Note_on_c, 1, 69, 0
4, 16320, Note_on_c, 1, 62, 64
4, 16343, Note_on_c, 1, 62, 0
4, 16344, Note_on_c, 1, 69, 64
4, 16367, Note_on_c, 1, 69, 0
4, 16368, Note_on_c, 1, 66, 64
4, 16391, Note_on_c, 1, 66, 0
4, 16392, Note_on_c, 1, 69, 64
4, 16415, Note_on_c, 1, 69, 0
4, 16416, Note_on_c, 1, 62, 64
4, 16439, Note_on_c, 1, 62, 0
4, 16440, Note_on_c, 1, 69, 64
4, 16463, Note_on_c, 1, 69, 0
4, 16464, Note_on_c, 1, 66, 64
4, 16487, Note_on_c, 1, 66, 0
4, 16488, Note_on_c, 1, 69, 64
4, 16511, Note_on_c, 1, 69, 0
4, 16512, Note_on_c, 1, 60, 64
4, 16535, Note_on_c, 1, 60, 0
4, 16536, Note_on_c, 1, 69, 64
4, 16559, Note_on_c, 1, 69, 0
4, 16560, Note_on_c, 1, 66, 64
4, 16583, Note_on_c, 1, 66, 0
4, 16584, Note_on_c, 1, 69, 64
4, 16607, Note_on_c, 1, 69, 0
4, 16608, Note_on_c, 1, 60, 64
4, 16631, Note_on_c, 1, 60, 0
4, 16632, Note_on_c, 1, 69, 64
4, 16655, Note_on_c, 1, 69, 0
4, 16656, Note_on_c, 1, 66, 64
4, 16679, Note_on_c, 1, 66, 0
4, 16680, Note_on_c, 1, 69, 64
4, 16703, Note_on_c, 1, 69, 0
4, 16704, Note_on_c, 1, 60, 64
4, 16727, Note_on_c, 1, 60, 0
4, 16728, Note_on_c, 1, 69, 64
4, 16751, Note_on_c, 1, 69, 0
4, 16752, Note_on_c, 1, 66, 64
4, 16775, Note_on_c, 1, 66, 0
4, 16776, Note_on_c, 1, 69, 64
4, 16799, Note_on_c, 1, 69, 0
4, 16800, Note_on_c, 1, 60, 64
4, 16823, Note_on_c, 1, 60, 0
4, 16824, Note_on_c, 1, 69, 64
4, 16847, Note_on_c, 1, 69, 0
4, 16848, Note_on_c, 1, 66, 64
4, 16871, Note_on_c, 1, 66, 0
4, 16872, Note_on_c, 1, 69, 64
4, 16895, Note_on_c, 1, 69, 0
4, 16896, Note_on_c, 1, 66, 80
4, 16896, Note_on_c, 1, 63, 80
4, 16896, Note_on_c, 1, 59, 80
4, 16992, Note_on_c, 1, 66, 0
4, 16992, Note_on_c, 1, 63, 0
4, 16992, Note_on_c, 1, 59, 0
4, 17088, Note_on_c, 1, 66, 64
4, 17088, Note_on_c, 1, 63, 64
4, 17088, Note_on_c, 1, 59, 64
4, 17177, Note_on_c, 1, 66, 0
4, 17177, Note_on_c, 1, 63, 0
4, 17177, Note_on_c, 1, 59, 0
4, 17280, Note_on_c, 1, 67, 80
4, 17280, Note_on_c, 1, 64, 80
4, 17280, Note_on_c, 1, 59, 80
4, 17376, Note_on_c, 1, 67, 0
4, 17376, Note_on_c, 1, 64, 0
4, 17376, Note_on_c, 1, 59, 0
4, 17472, Note_on_c, 1, 67, 64
4, 17472, Note_on_c, 1, 64, 64
4, 17472, Note_on_c, 1, 59, 64
4, 17561, Note_on_c, 1, 67, 0
4, 17561, Note_on_c, 1, 64, 0
4, 17561, Note_on_c, 1, 59, 0
4, 17664, Note_on_c, 1, 47, 64
4, 17687, Note_on_c, 1, 47, 0
4, 17688, Note_on_c, 1, 50, 64
4, 17711, Note_on_c, 1, 50, 0
4, 17712, Note_on_c, 1, 49, 64
4, 17735, Note_on_c, 1, 49, 0
4, 17736, Note_on_c, 1, 50, 64
4, 17759, Note_on_c, 1, 50, 0
4, 17760, Note_on_c, 1, 47, 64
4, 17783, Note_on_c, 1, 47, 0
4, 17784, Note_on_c, 1, 50, 64
4, 17807, Note_on_c, 1, 50, 0
4, 17808, Note_on_c, 1, 49, 64
4, 17831, Note_on_c, 1, 49, 0
4, 17832, Note_on_c, 1, 50, 64
4, 17855, Note_on_c, 1, 50, 0
4, 17856, Note_on_c, 1, 48, 64
4, 17879, Note_on_c, 1, 48, 0
4, 17880, Note_on_c, 1, 55, 64
4, 17903, Note_on_c, 1, 55, 0
4, 17904, Note_on_c, 1, 52, 64
4, 17927, Note_on_c, 1, 52, 0
4, 17928, Note_on_c, 1, 55, 64
4, 17951, Note_on_c, 1, 55, 0
4, 17952, Note_on_c, 1, 48, 64
4, 17975, Note_on_c, 1, 48, 0
4, 17976, Note_on_c, 1, 55, 64
4, 17999, Note_on_c, 1, 55, 0
4, 18000, Note_on_c, 1, 52, 64
4, 18023, Note_on_c, 1, 52, 0
4, 18024, Note_on_c, 1, 55, 64
4, 18047, Note_on_c, 1, 55, 0
4, 18048, Note_on_c, 1, 59, 64
4, 18071, Note_on_c, 1, 59, 0
4, 18072, Note_on_c, 1, 62, 64
4, 18095, Note_on_c, 1, 62, 0
4, 18096, Note_on_c, 1, 61, 64
4, 18119, Note_on_c, 1, 61, 0
4, 18120, Note_on_c, 1, 59, 64
4, 18143, Note_on_c, 1, 59, 0
4, 18168, Note_on_c, 1, 62, 64
4, 18191, Note_on_c, 1, 62, 0
4, 18192, Note_on_c, 1, 61, 64
4, 18215, Note_on_c, 1, 61, 0
4, 18216, Note_on_c, 1, 59, 64
4, 18239, Note_on_c, 1, 59, 0
4, 18240, Note_on_c, 1, 58, 64
4, 18329, Note_on_c, 1, 58, 0
4, 18432, Note_on_c, 1, 49, 64
4, 18455, Note_on_c, 1, 49, 0
4, 18456, Note_on_c, 1, 58, 64
4, 18479, Note_on_c, 1, 58, 0
4, 18480, Note_on_c, 1, 54, 64
4, 18503, Note_on_c, 1, 54, 0
4, 18504, Note_on_c, 1, 58, 64
4, 18527, Note_on_c, 1, 58, 0
4, 18528, Note_on_c, 1, 49, 64
4, 18551, Note_on_c, 1, 49, 0
4, 18552, Note_on_c, 1, 58, 64
4, 18575, Note_on_c, 1, 58, 0
4, 18576, Note_on_c, 1, 54, 64
4, 18599, Note_on_c, 1, 54, 0
4, 18600, Note_on_c, 1, 58, 64
4, 18623, Note_on_c, 1, 58, 0
4, 18624, Note_on_c, 1, 49, 64
4, 18647, Note_on_c, 1, 49, 0
4, 18648, Note_on_c, 1, 59, 64
4, 18671, Note_on_c, 1, 59, 0
4, 18672, Note_on_c, 1, 53, 64
4, 18695, Note_on_c, 1, 53, 0
4, 18696, Note_on_c, 1, 59, 64
4, 18719, Note_on_c, 1, 59, 0
4, 18720, Note_on_c, 1, 49, 64
4, 18743, Note_on_c, 1, 49, 0
4, 18744, Note_on_c, 1, 59, 64
4, 18767, Note_on_c, 1, 59, 0
4, 18768, Note_on_c, 1, 53, 64
4, 18791, Note_on_c, 1, 53, 0
4, 18792, Note_on_c, 1, 59, 64
4, 18815, Note_on_c, 1, 59, 0
4, 18816, Note_on_c, 1, 58, 64
4, 18816, Note_on_c, 1, 54, 64
4, 18905, Note_on_c, 1, 58, 0
4, 18905, Note_on_c, 1, 54, 0
4, 19104, Note_on_c, 1, 56, 75
4, 19104, Note_on_c, 1, 49, 75
4, 19193, Note_on_c, 1, 56, 0
4, 19193, Note_on_c, 1, 49, 0
4, 19200, Note_on_c, 1, 54, 75
4, 19289, Note_on_c, 1, 54, 0
4, 19488, Note_on_c, 1, 68, 70
4, 19488, Note_on_c, 1, 61, 70
4, 19577, Note_on_c, 1, 68, 0
4, 19577, Note_on_c, 1, 61, 0
4, 19584, Note_on_c, 1, 66, 70
4, 19623, Note_on_c, 1, 66, 0
4, 21120, Note_on_c, 1, 42, 75
4, 21143, Note_on_c, 1, 42, 0
4, 21144, Note_on_c, 1, 46, 75
4, 21167, Note_on_c, 1, 46, 0
4, 21168, Note_on_c, 1, 49, 75
4, 21191, Note_on_c, 1, 49, 0
4, 21192, Note_on_c, 1, 52, 75
4, 21215, Note_on_c, 1, 52, 0
4, 21216, Note_on_c, 1, 42, 75
4, 21239, Note_on_c, 1, 42, 0
4, 21240, Note_on_c, 1, 46, 75
4, 21263, Note_on_c, 1, 46, 0
4, 21264, Note_on_c, 1, 49, 75
4, 21287, Note_on_c, 1, 49, 0
4, 21288, Note_on_c, 1, 52, 75
4, 21311, Note_on_c, 1, 52, 0
4, 21312, Note_on_c, 1, 42, 75
4, 21335, Note_on_c, 1, 42, 0
4, 21336, Note_on_c, 1, 46, 75
4, 21359, Note_on_c, 1, 46, 0
4, 21360, Note_on_c, 1, 49, 75
4, 21383, Note_on_c, 1, 49, 0
4, 21384, Note_on_c, 1, 52, 75
4, 21407, Note_on_c, 1, 52, 0
4, 21408, Note_on_c, 1, 42, 75
4, 21431, Note_on_c, 1, 42, 0
4, 21432, Note_on_c, 1, 46, 75
4, 21455, Note_on_c, 1, 46, 0
4, 21456, Note_on_c, 1, 49, 75
4, 21479, Note_on_c, 1, 49, 0
4, 21480, Note_on_c, 1, 52, 75
4, 21503, Note_on_c, 1, 52, 0
4, 21504, Note_on_c, 1, 42, 75
4, 21527, Note_on_c, 1, 42, 0
4, 21528, Note_on_c, 1, 47, 75
4, 21551, Note_on_c, 1, 47, 0
4, 21552, Note_on_c, 1, 50, 75
4, 21575, Note_on_c, 1, 50, 0
4, 21576, Note_on_c, 1, 54, 75
4, 21599, Note_on_c, 1, 54, 0
4, 21600, Note_on_c, 1, 42, 75
4, 21623, Note_on_c, 1, 42, 0
4, 21624, Note_on_c, 1, 47, 75
4, 21647, Note_on_c, 1, 47, 0
4, 21648, Note_on_c, 1, 50, 75
4, 21671, Note_on_c, 1, 50, 0
4, 21672, Note_on_c, 1, 54, 75
4, 21695, Note_on_c, 1, 54, 0
4, 21696, Note_on_c, 1, 42, 75
4, 21719, Note_on_c, 1, 42, 0
4, 21720, Note_on_c, 1, 47, 75
4, 21743, Note_on_c, 1, 47, 0
4, 21744, Note_on_c, 1, 50, 75
4, 21767, Note_on_c, 1, 50, 0
4, 21768, Note_on_c, 1, 54, 75
4, 21791, Note_on_c, 1, 54, 0
4, 21792, Note_on_c, 1, 42, 75
4, 21815, Note_on_c, 1, 42, 0
4, 21816, Note_on_c, 1, 47, 75
4, 21839, Note_on_c, 1, 47, 0
4, 21840, Note_on_c, 1, 50, 75
4, 21863, Note_on_c, 1, 50, 0
4, 21864, Note_on_c, 1, 54, 75
4, 21887, Note_on_c, 1, 54, 0
4, 21888, Note_on_c, 1, 40, 75
4, 21911, Note_on_c, 1, 40, 0
4, 21912, Note_on_c, 1, 43, 75
4, 21935, Note_on_c, 1, 43, 0
4, 21936, Note_on_c, 1, 48, 75
4, 21959, Note_on_c, 1, 48, 0
4, 21960, Note_on_c, 1, 52, 75
4, 21983, Note_on_c, 1, 52, 0
4, 21984, Note_on_c, 1, 40, 75
4, 22007, Note_on_c, 1, 40, 0
4, 22008, Note_on_c, 1, 43, 75
4, 22031, Note_on_c, 1, 43, 0
4, 22032, Note_on_c, 1, 48, 75
4, 22055, Note_on_c, 1, 48, 0
4, 22056, Note_on_c, 1, 52, 75
4, 22079, Note_on_c, 1, 52, 0
4, 22080, Note_on_c, 1, 40, 75
4, 22103, Note_on_c, 1, 40, 0
4, 22104, Note_on_c, 1, 43, 75
4, 22127, Note_on_c, 1, 43, 0
4, 22128, Note_on_c, 1, 48, 75
4, 22151, Note_on_c, 1, 48, 0
4, 22152, Note_on_c, 1, 52, 75
4, 22175, Note_on_c, 1, 52, 0
4, 22176, Note_on_c, 1, 40, 75
4, 22199, Note_on_c, 1, 40, 0
4, 22200, Note_on_c, 1, 46, 75
4, 22223, Note_on_c, 1, 46, 0
4, 22224, Note_on_c, 1, 49, 75
4, 22247, Note_on_c, 1, 49, 0
4, 22248, Note_on_c, 1, 52, 75
4, 22271, Note_on_c, 1, 52, 0
4, 22272, Note_on_c, 1, 47, 75
4, 22295, Note_on_c, 1, 47, 0
4, 22296, Note_on_c, 1, 50, 75
4, 22319, Note_on_c, 1, 50, 0
4, 22320, Note_on_c, 1, 54, 75
4, 22343, Note_on_c, 1, 54, 0
4, 22344, Note_on_c, 1, 59, 75
4, 22367, Note_on_c, 1, 59, 0
4, 22368, Note_on_c, 1, 47, 75
4, 22391, Note_on_c, 1, 47, 0
4, 22392, Note_on_c, 1, 50, 75
4, 22415, Note_on_c, 1, 50, 0
4, 22416, Note_on_c, 1, 54, 75
4, 22439, Note_on_c, 1, 54, 0
4, 22440, Note_on_c, 1, 59, 75
4, 22463, Note_on_c, 1, 59, 0
4, 22464, Note_on_c, 1, 47, 75
4, 22487, Note_on_c, 1, 47, 0
4, 22488, Note_on_c, 1, 50, 75
4, 22511, Note_on_c, 1, 50, 0
4, 22512, Note_on_c, 1, 54, 75
4, 22535, Note_on_c, 1, 54, 0
4, 22536, Note_on_c, 1, 59, 75
4, 22559, Note_on_c, 1, 59, 0
4, 22560, Note_on_c, 1, 47, 75
4, 22583, Note_on_c, 1, 47, 0
4, 22584, Note_on_c, 1, 50, 75
4, 22607, Note_on_c, 1, 50, 0
4, 22608, Note_on_c, 1, 54, 75
4, 22631, Note_on_c, 1, 54, 0
4, 22632, Note_on_c, 1, 59, 75
4, 22655, Note_on_c, 1, 59, 0
4, 22656, Note_on_c, 1, 47, 75
4, 22679, Note_on_c, 1, 47, 0
4, 22680, Note_on_c, 1, 50, 75
4, 22703, Note_on_c, 1, 50, 0
4, 22704, Note_on_c, 1, 54, 75
4, 22727, Note_on_c, 1, 54, 0
4, 22728, Note_on_c, 1, 59, 75
4, 22751, Note_on_c, 1, 59, 0
4, 22752, Note_on_c, 1, 47, 75
4, 22775, Note_on_c, 1, 47, 0
4, 22776, Note_on_c, 1, 50, 75
4, 22799, Note_on_c, 1, 50, 0
4, 22800, Note_on_c, 1, 54, 75
4, 22823, Note_on_c, 1, 54, 0
4, 22824, Note_on_c, 1, 59, 75
4, 22847, Note_on_c, 1, 59, 0
4, 22848, Note_on_c, 1, 59, 75
4, 22848, Note_on_c, 1, 54, 75
4, 22848, Note_on_c, 1, 50, 75
4, 22848, Note_on_c, 1, 47, 75
4, 22937, Note_on_c, 1, 59, 0
4, 22937, Note_on_c, 1, 54, 0
4, 22937, Note_on_c, 1, 50, 0
4, 22937, Note_on_c, 1, 47, 0
4, 23232, Note_on_c, 1, 59, 64
4, 23255, Note_on_c, 1, 59, 0
4, 23256, Note_on_c, 1, 67, 64
4, 23279, Note_on_c, 1, 67, 0
4, 23280, Note_on_c, 1, 62, 64
4, 23303, Note_on_c, 1, 62, 0
4, 23304, Note_on_c, 1, 67, 64
4, 23327, Note_on_c, 1, 67, 0
4, 23328, Note_on_c, 1, 59, 64
4, 23351, Note_on_c, 1, 59, 0
4, 23352, Note_on_c, 1, 67, 64
4, 23375, Note_on_c, 1, 67, 0
4, 23376, Note_on_c, 1, 62, 64
4, 23399, Note_on_c, 1, 62, 0
4, 23400, Note_on_c, 1, 67, 64
4, 23423, Note_on_c, 1, 67, 0
4, 23424, Note_on_c, 1, 60, 64
4, 23447, Note_on_c, 1, 60, 0
4, 23448, Note_on_c, 1, 67, 64
4, 23471, Note_on_c, 1, 67, 0
4, 23472, Note_on_c, 1, 64, 64
4, 23495, Note_on_c, 1, 64, 0
4, 23496, Note_on_c, 1, 67, 64
4, 23519, Note_on_c, 1, 67, 0
4, 23520, Note_on_c, 1, 60, 64
4, 23543, Note_on_c, 1, 60, 0
4, 23544, Note_on_c, 1, 67, 64
4, 23567, Note_on_c, 1, 67, 0
4, 23568, Note_on_c, 1, 64, 64
4, 23591, Note_on_c, 1, 64, 0
4, 23592, Note_on_c, 1, 67, 64
4, 23615, Note_on_c, 1, 67, 0
4, 23616, Note_on_c, 1, 54, 64
4, 23639, Note_on_c, 1, 54, 0
4, 23640, Note_on_c, 1, 62, 64
4, 23663, Note_on_c, 1, 62, 0
4, 23664, Note_on_c, 1, 57, 64
4, 23687, Note_on_c, 1, 57, 0
4, 23688, Note_on_c, 1, 62, 64
4, 23711, Note_on_c, 1, 62, 0
4, 23712, Note_on_c, 1, 54, 64
4, 23735, Note_on_c, 1, 54, 0
4, 23736, Note_on_c, 1, 62, 64
4, 23759, Note_on_c, 1, 62, 0
4, 23760, Note_on_c, 1, 57, 64
4, 23783, Note_on_c, 1, 57, 0
4, 23784, Note_on_c, 1, 62, 64
4, 23807, Note_on_c, 1, 62, 0
4, 23808, Note_on_c, 1, 55, 64
4, 23831, Note_on_c, 1, 55, 0
4, 23832, Note_on_c, 1, 62, 64
4, 23855, Note_on_c, 1, 62, 0
4, 23856, Note_on_c, 1, 59, 64
4, 23879, Note_on_c, 1, 59, 0
4, 23880, Note_on_c, 1, 62, 64
4, 23903, Note_on_c, 1, 62, 0
4, 23904, Note_on_c, 1, 55, 64
4, 23927, Note_on_c, 1, 55, 0
4, 23928, Note_on_c, 1, 62, 64
4, 23951, Note_on_c, 1, 62, 0
4, 23952, Note_on_c, 1, 59, 64
4, 23975, Note_on_c, 1, 59, 0
4, 23976, Note_on_c, 1, 62, 64
4, 23999, Note_on_c, 1, 62, 0
4, 24000, Note_on_c, 1, 48, 64
4, 24023, Note_on_c, 1, 48, 0
4, 24024, Note_on_c, 1, 57, 64
4, 24047, Note_on_c, 1, 57, 0
4, 24048, Note_on_c, 1, 52, 65
4, 24071, Note_on_c, 1, 52, 0
4, 24072, Note_on_c, 1, 57, 66
4, 24095, Note_on_c, 1, 57, 0
4, 24096, Note_on_c, 1, 49, 66
4, 24119, Note_on_c, 1, 49, 0
4, 24120, Note_on_c, 1, 57, 67
4, 24143, Note_on_c, 1, 57, 0
4, 24144, Note_on_c, 1, 52, 68
4, 24167, Note_on_c, 1, 52, 0
4, 24168, Note_on_c, 1, 57, 68
4, 24191, Note_on_c, 1, 57, 0
4, 24192, Note_on_c, 1, 50, 69
4, 24215, Note_on_c, 1, 50, 0
4, 24216, Note_on_c, 1, 57, 70
4, 24239, Note_on_c, 1, 57, 0
4, 24240, Note_on_c, 1, 54, 70
4, 24263, Note_on_c, 1, 54, 0
4, 24264, Note_on_c, 1, 57, 70
4, 24287, Note_on_c, 1, 57, 0
4, 24288, Note_on_c, 1, 51, 86
4, 24312, Note_on_c, 1, 51, 0
4, 24312, Note_on_c, 1, 57, 70
4, 24335, Note_on_c, 1, 57, 0
4, 24336, Note_on_c, 1, 54, 70
4, 24359, Note_on_c, 1, 54, 0
4, 24360, Note_on_c, 1, 57, 70
4, 24383, Note_on_c, 1, 57, 0
4, 24384, Note_on_c, 1, 51, 70
4, 24407, Note_on_c, 1, 51, 0
4, 24408, Note_on_c, 1, 57, 70
4, 24431, Note_on_c, 1, 57, 0
4, 24432, Note_on_c, 1, 54, 70
4, 24455, Note_on_c, 1, 54, 0
4, 24456, Note_on_c, 1, 57, 70
4, 24479, Note_on_c, 1, 57, 0
4, 24480, Note_on_c, 1, 47, 70
4, 24503, Note_on_c, 1, 47, 0
4, 24504, Note_on_c, 1, 54, 70
4, 24527, Note_on_c, 1, 54, 0
4, 24528, Note_on_c, 1, 51, 70
4, 24551, Note_on_c, 1, 51, 0
4, 24552, Note_on_c, 1, 54, 70
4, 24575, Note_on_c, 1, 54, 0
4, 24576, Note_on_c, 1, 52, 70
4, 24599, Note_on_c, 1, 52, 0
4, 24600, Note_on_c, 1, 59, 70
4, 24623, Note_on_c, 1, 59, 0
4, 24624, Note_on_c, 1, 55, 70
4, 24647, Note_on_c, 1, 55, 0
4, 24648, Note_on_c, 1, 59, 70
4, 24671, Note_on_c, 1, 59, 0
4, 24672, Note_on_c, 1, 47, 70
4, 24695, Note_on_c, 1, 47, 0
4, 24696, Note_on_c, 1, 55, 70
4, 24719, Note_on_c, 1, 55, 0
4, 24720, Note_on_c, 1, 50, 70
4, 24743, Note_on_c, 1, 50, 0
4, 24744, Note_on_c, 1, 55, 70
4, 24767, Note_on_c, 1, 55, 0
4, 24768, Note_on_c, 1, 48, 70
4, 24791, Note_on_c, 1, 48, 0
4, 24792, Note_on_c, 1, 55, 70
4, 24815, Note_on_c, 1, 55, 0
4, 24816, Note_on_c, 1, 52, 70
4, 24839, Note_on_c, 1, 52, 0
4, 24840, Note_on_c, 1, 55, 70
4, 24863, Note_on_c, 1, 55, 0
4, 24864, Note_on_c, 1, 44, 70
4, 24887, Note_on_c, 1, 44, 0
4, 24888, Note_on_c, 1, 52, 70
4, 24911, Note_on_c, 1, 52, 0
4, 24912, Note_on_c, 1, 47, 70
4, 24935, Note_on_c, 1, 47, 0
4, 24936, Note_on_c, 1, 52, 70
4, 24959, Note_on_c, 1, 52, 0
4, 24960, Note_on_c, 1, 45, 70
4, 24983, Note_on_c, 1, 45, 0
4, 24984, Note_on_c, 1, 52, 70
4, 25007, Note_on_c, 1, 52, 0
4, 25008, Note_on_c, 1, 48, 70
4, 25031, Note_on_c, 1, 48, 0
4, 25032, Note_on_c, 1, 52, 70
4, 25055, Note_on_c, 1, 52, 0
4, 25056, Note_on_c, 1, 38, 70
4, 25079, Note_on_c, 1, 38, 0
4, 25080, Note_on_c, 1, 46, 70
4, 25103, Note_on_c, 1, 46, 0
4, 25104, Note_on_c, 1, 41, 70
4, 25127, Note_on_c, 1, 41, 0
4, 25128, Note_on_c, 1, 46, 70
4, 25151, Note_on_c, 1, 46, 0
4, 25152, Note_on_c, 1, 36, 70
4, 25175, Note_on_c, 1, 36, 0
4, 25176, Note_on_c, 1, 45, 70
4, 25199, Note_on_c, 1, 45, 0
4, 25200, Note_on_c, 1, 40, 70
4, 25223, Note_on_c, 1, 40, 0
4, 25224, Note_on_c, 1, 45, 70
4, 25247, Note_on_c, 1, 45, 0
4, 25248, Note_on_c, 1, 35, 70
4, 25271, Note_on_c, 1, 35, 0
4, 25272, Note_on_c, 1, 44, 70
4, 25295, Note_on_c, 1, 44, 0
4, 25296, Note_on_c, 1, 40, 70
4, 25319, Note_on_c, 1, 40, 0
4, 25320, Note_on_c, 1, 44, 70
4, 25343, Note_on_c, 1, 44, 0
4, 25344, Note_on_c, 1, 45, 70
4, 25367, Note_on_c, 1, 45, 0
4, 25368, Note_on_c, 1, 48, 70
4, 25391, Note_on_c, 1, 48, 0
4, 25392, Note_on_c, 1, 52, 70
4, 25415, Note_on_c, 1, 52, 0
4, 25416, Note_on_c, 1, 48, 70
4, 25439, Note_on_c, 1, 48, 0
4, 25440, Note_on_c, 1, 45, 70
4, 25463, Note_on_c, 1, 45, 0
4, 25464, Note_on_c, 1, 51, 70
4, 25487, Note_on_c, 1, 51, 0
4, 25488, Note_on_c, 1, 54, 70
4, 25511, Note_on_c, 1, 54, 0
4, 25512, Note_on_c, 1, 51, 70
4, 25535, Note_on_c, 1, 51, 0
4, 25536, Note_on_c, 1, 52, 64
4, 25536, Note_on_c, 1, 47, 64
4, 25536, Note_on_c, 1, 43, 64
4, 25625, Note_on_c, 1, 52, 0
4, 25625, Note_on_c, 1, 47, 0
4, 25625, Note_on_c, 1, 43, 0
4, 25728, Note_on_c, 1, 59, 75
4, 25758, Note_on_c, 1, 59, 0
4, 25760, Note_on_c, 1, 55, 75
4, 25790, Note_on_c, 1, 55, 0
4, 25792, Note_on_c, 1, 52, 75
4, 25822, Note_on_c, 1, 52, 0
4, 25824, Note_on_c, 1, 51, 75
4, 25854, Note_on_c, 1, 51, 0
4, 25856, Note_on_c, 1, 54, 75
4, 25886, Note_on_c, 1, 54, 0
4, 25888, Note_on_c, 1, 57, 75
4, 25918, Note_on_c, 1, 57, 0
4, 25920, Note_on_c, 1, 59, 75
4, 26009, Note_on_c, 1, 59, 0
4, 26112, Note_on_c, 1, 54, 75
4, 26142, Note_on_c, 1, 54, 0
4, 26144, Note_on_c, 1, 50, 75
4, 26174, Note_on_c, 1, 50, 0
4, 26176, Note_on_c, 1, 47, 75
4, 26206, Note_on_c, 1, 47, 0
4, 26208, Note_on_c, 1, 42, 75
4, 26238, Note_on_c, 1, 42, 0
4, 26240, Note_on_c, 1, 47, 75
4, 26270, Note_on_c, 1, 47, 0
4, 26272, Note_on_c, 1, 50, 75
4, 26302, Note_on_c, 1, 50, 0
4, 26304, Note_on_c, 1, 54, 75
4, 26334, Note_on_c, 1, 54, 0
4, 26336, Note_on_c, 1, 50, 75
4, 26366, Note_on_c, 1, 50, 0
4, 26368, Note_on_c, 1, 47, 75
4, 26398, Note_on_c, 1, 47, 0
4, 26400, Note_on_c, 1, 42, 75
4, 26430, Note_on_c, 1, 42, 0
4, 26432, Note_on_c, 1, 47, 75
4, 26462, Note_on_c, 1, 47, 0
4, 26464, Note_on_c, 1, 50, 75
4, 26494, Note_on_c, 1, 50, 0
4, 26496, Note_on_c, 1, 55, 75
4, 26526, Note_on_c, 1, 55, 0
4, 26528, Note_on_c, 1, 50, 75
4, 26558, Note_on_c, 1, 50, 0
4, 26560, Note_on_c, 1, 47, 75
4, 26590, Note_on_c, 1, 47, 0
4, 26592, Note_on_c, 1, 43, 75
4, 26622, Note_on_c, 1, 43, 0
4, 26624, Note_on_c, 1, 47, 75
4, 26654, Note_on_c, 1, 47, 0
4, 26656, Note_on_c, 1, 50, 75
4, 26686, Note_on_c, 1, 50, 0
4, 26688, Note_on_c, 1, 55, 75
4, 26718, Note_on_c, 1, 55, 0
4, 26720, Note_on_c, 1, 50, 75
4, 26750, Note_on_c, 1, 50, 0
4, 26752, Note_on_c, 1, 47, 75
4, 26782, Note_on_c, 1, 47, 0
4, 26784, Note_on_c, 1, 43, 75
4, 26814, Note_on_c, 1, 43, 0
4, 26816, Note_on_c, 1, 47, 75
4, 26846, Note_on_c, 1, 47, 0
4, 26848, Note_on_c, 1, 50, 75
4, 26878, Note_on_c, 1, 50, 0
4, 26880, Note_on_c, 1, 52, 75
4, 26880, Note_on_c, 1, 49, 75
4, 26880, Note_on_c, 1, 46, 75
4, 27337, Note_on_c, 1, 52, 0
4, 27337, Note_on_c, 1, 49, 0
4, 27337, Note_on_c, 1, 46, 0
4, 27840, Note_on_c, 1, 47, 64
4, 27863, Note_on_c, 1, 47, 0
4, 27864, Note_on_c, 1, 54, 64
4, 27887, Note_on_c, 1, 54, 0
4, 27888, Note_on_c, 1, 51, 64
4, 27911, Note_on_c, 1, 51, 0
4, 27912, Note_on_c, 1, 54, 64
4, 27935, Note_on_c, 1, 54, 0
4, 27936, Note_on_c, 1, 47, 64
4, 27959, Note_on_c, 1, 47, 0
4, 27960, Note_on_c, 1, 54, 64
4, 27983, Note_on_c, 1, 54, 0
4, 27984, Note_on_c, 1, 51, 64
4, 28007, Note_on_c, 1, 51, 0
4, 28008, Note_on_c, 1, 54, 64
4, 28031, Note_on_c, 1, 54, 0
4, 28032, Note_on_c, 1, 47, 64
4, 28055, Note_on_c, 1, 47, 0
4, 28056, Note_on_c, 1, 56, 64
4, 28079, Note_on_c, 1, 56, 0
4, 28080, Note_on_c, 1, 52, 64
4, 28103, Note_on_c, 1, 52, 0
4, 28104, Note_on_c, 1, 56, 64
4, 28127, Note_on_c, 1, 56, 0
4, 28128, Note_on_c, 1, 47, 64
4, 28151, Note_on_c, 1, 47, 0
4, 28152, Note_on_c, 1, 56, 64
4, 28175, Note_on_c, 1, 56, 0
4, 28176, Note_on_c, 1, 52, 64
4, 28199, Note_on_c, 1, 52, 0
4, 28200, Note_on_c, 1, 56, 64
4, 28223, Note_on_c, 1, 56, 0
4, 28224, Note_on_c, 1, 51, 64
4, 28224, Note_on_c, 1, 47, 64
4, 28313, Note_on_c, 1, 51, 0
4, 28313, Note_on_c, 1, 47, 0
4, 28368, Note_on_c, 1, 49, 64
4, 28368, Note_on_c, 1, 47, 64
4, 28457, Note_on_c, 1, 49, 0
4, 28457, Note_on_c, 1, 47, 0
4, 28464, Note_on_c, 1, 47, 64
4, 28464, Note_on_c, 1, 44, 64
4, 28509, Note_on_c, 1, 47, 0
4, 28509, Note_on_c, 1, 44, 0
4, 28512, Note_on_c, 1, 41, 80
4, 28608, Note_on_c, 1, 41, 0
4, 28608, Note_on_c, 1, 42, 64
4, 28631, Note_on_c, 1, 42, 0
4, 28632, Note_on_c, 1, 47, 64
4, 28655, Note_on_c, 1, 47, 0
4, 28656, Note_on_c, 1, 51, 64
4, 28679, Note_on_c, 1, 51, 0
4, 28680, Note_on_c, 1, 54, 64
4, 28703, Note_on_c, 1, 54, 0
4, 28704, Note_on_c, 1, 42, 64
4, 28793, Note_on_c, 1, 42, 0
4, 28992, Note_on_c, 1, 30, 64
4, 29015, Note_on_c, 1, 30, 0
4, 29016, Note_on_c, 1, 35, 64
4, 29039, Note_on_c, 1, 35, 0
4, 29040, Note_on_c, 1, 39, 64
4, 29063, Note_on_c, 1, 39, 0
4, 29064, Note_on_c, 1, 42, 64
4, 29087, Note_on_c, 1, 42, 0
4, 29088, Note_on_c, 1, 30, 64
4, 29177, Note_on_c, 1, 30, 0
4, 29376, Note_on_c, 1, 39, 64
4, 29421, Note_on_c, 1, 39, 0
4, 29424, Note_on_c, 1, 51, 64
4, 29469, Note_on_c, 1, 51, 0
4, 29472, Note_on_c, 1, 52, 64
4, 29495, Note_on_c, 1, 52, 0
4, 29496, Note_on_c, 1, 56, 64
4, 29519, Note_on_c, 1, 56, 0
4, 29520, Note_on_c, 1, 61, 64
4, 29543, Note_on_c, 1, 61, 0
4, 29544, Note_on_c, 1, 56, 64
4, 29567, Note_on_c, 1, 56, 0
4, 29568, Note_on_c, 1, 52, 64
4, 29591, Note_on_c, 1, 52, 0
4, 29592, Note_on_c, 1, 56, 64
4, 29615, Note_on_c, 1, 56, 0
4, 29616, Note_on_c, 1, 61, 64
4, 29639, Note_on_c, 1, 61, 0
4, 29640, Note_on_c, 1, 56, 64
4, 29663, Note_on_c, 1, 56, 0
4, 29664, Note_on_c, 1, 52, 64
4, 29687, Note_on_c, 1, 52, 0
4, 29688, Note_on_c, 1, 56, 64
4, 29711, Note_on_c, 1, 56, 0
4, 29712, Note_on_c, 1, 61, 64
4, 29735, Note_on_c, 1, 61, 0
4, 29736, Note_on_c, 1, 56, 64
4, 29759, Note_on_c, 1, 56, 0
4, 29760, Note_on_c, 1, 54, 64
4, 29783, Note_on_c, 1, 54, 0
4, 29784, Note_on_c, 1, 59, 64
4, 29807, Note_on_c, 1, 59, 0
4, 29808, Note_on_c, 1, 63, 64
4, 29831, Note_on_c, 1, 63, 0
4, 29832, Note_on_c, 1, 59, 64
4, 29855, Note_on_c, 1, 59, 0
4, 29856, Note_on_c, 1, 54, 64
4, 29879, Note_on_c, 1, 54, 0
4, 29880, Note_on_c, 1, 59, 64
4, 29903, Note_on_c, 1, 59, 0
4, 29904, Note_on_c, 1, 63, 64
4, 29927, Note_on_c, 1, 63, 0
4, 29928, Note_on_c, 1, 59, 64
4, 29951, Note_on_c, 1, 59, 0
4, 29952, Note_on_c, 1, 54, 64
4, 29975, Note_on_c, 1, 54, 0
4, 29976, Note_on_c, 1, 58, 64
4, 29999, Note_on_c, 1, 58, 0
4, 30000, Note_on_c, 1, 64, 64
4, 30023, Note_on_c, 1, 64, 0
4, 30024, Note_on_c, 1, 58, 64
4, 30047, Note_on_c, 1, 58, 0
4, 30048, Note_on_c, 1, 54, 64
4, 30071, Note_on_c, 1, 54, 0
4, 30072, Note_on_c, 1, 58, 64
4, 30095, Note_on_c, 1, 58, 0
4, 30096, Note_on_c, 1, 64, 64
4, 30119, Note_on_c, 1, 64, 0
4, 30120, Note_on_c, 1, 58, 64
4, 30143, Note_on_c, 1, 58, 0
4, 30144, Note_on_c, 1, 59, 64
4, 30167, Note_on_c, 1, 59, 0
4, 30168, Note_on_c, 1, 42, 80
4, 30191, Note_on_c, 1, 42, 0
4, 30192, Note_on_c, 1, 44, 80
4, 30215, Note_on_c, 1, 44, 0
4, 30216, Note_on_c, 1, 46, 80
4, 30239, Note_on_c, 1, 46, 0
4, 30240, Note_on_c, 1, 47, 80
4, 30263, Note_on_c, 1, 47, 0
4, 30264, Note_on_c, 1, 49, 80
4, 30287, Note_on_c, 1, 49, 0
4, 30288, Note_on_c, 1, 51, 80
4, 30311, Note_on_c, 1, 51, 0
4, 30312, Note_on_c, 1, 52, 80
4, 30335, Note_on_c, 1, 52, 0
4, 30336, Note_on_c, 1, 54, 80
4, 30346, Note_on_c, 1, 54, 0
4, 30360, Note_on_c, 1, 54, 80
4, 30383, Note_on_c, 1, 54, 0
4, 30384, Note_on_c, 1, 56, 80
4, 30407, Note_on_c, 1, 56, 0
4, 30408, Note_on_c, 1, 58, 80
4, 30431, Note_on_c, 1, 58, 0
4, 30432, Note_on_c, 1, 59, 80
4, 30455, Note_on_c, 1, 59, 0
4, 30456, Note_on_c, 1, 61, 80
4, 30479, Note_on_c, 1, 61, 0
4, 30480, Note_on_c, 1, 63, 80
4, 30503, Note_on_c, 1, 63, 0
4, 30504, Note_on_c, 1, 64, 80
4, 30527, Note_on_c, 1, 64, 0
4, 30528, Note_on_c, 1, 66, 96
4, 30576, Note_on_c, 1, 66, 0
4, 30600, Note_on_c, 1, 65, 80
4, 30624, Note_on_c, 1, 65, 0
4, 30624, Note_on_c, 1, 66, 80
4, 30669, Note_on_c, 1, 66, 0
4, 30696, Note_on_c, 1, 65, 80
4, 30720, Note_on_c, 1, 65, 0
4, 30720, Note_on_c, 1, 66, 80
4, 30809, Note_on_c, 1, 66, 0
4, 31296, Note_on_c, 1, 54, 64
4, 31319, Note_on_c, 1, 54, 0
4, 31320, Note_on_c, 1, 63, 64
4, 31343, Note_on_c, 1, 63, 0
4, 31344, Note_on_c, 1, 59, 64
4, 31367, Note_on_c, 1, 59, 0
4, 31368, Note_on_c, 1, 63, 64
4, 31391, Note_on_c, 1, 63, 0
4, 31392, Note_on_c, 1, 54, 64
4, 31415, Note_on_c, 1, 54, 0
4, 31416, Note_on_c, 1, 63, 64
4, 31439, Note_on_c, 1, 63, 0
4, 31440, Note_on_c, 1, 59, 64
4, 31463, Note_on_c, 1, 59, 0
4, 31464, Note_on_c, 1, 63, 64
4, 31487, Note_on_c, 1, 63, 0
4, 31488, Note_on_c, 1, 54, 64
4, 31511, Note_on_c, 1, 54, 0
4, 31512, Note_on_c, 1, 63, 64
4, 31535, Note_on_c, 1, 63, 0
4, 31536, Note_on_c, 1, 59, 64
4, 31559, Note_on_c, 1, 59, 0
4, 31560, Note_on_c, 1, 63, 64
4, 31583, Note_on_c, 1, 63, 0
4, 31584, Note_on_c, 1, 54, 64
4, 31607, Note_on_c, 1, 54, 0
4, 31608, Note_on_c, 1, 63, 64
4, 31631, Note_on_c, 1, 63, 0
4, 31632, Note_on_c, 1, 59, 64
4, 31655, Note_on_c, 1, 59, 0
4, 31656, Note_on_c, 1, 63, 64
4, 31679, Note_on_c, 1, 63, 0
4, 31680, Note_on_c, 1, 54, 64
4, 31703, Note_on_c, 1, 54, 0
4, 31704, Note_on_c, 1, 64, 64
4, 31727, Note_on_c, 1, 64, 0
4, 31728, Note_on_c, 1, 58, 64
4, 31751, Note_on_c, 1, 58, 0
4, 31752, Note_on_c, 1, 64, 64
4, 31775, Note_on_c, 1, 64, 0
4, 31776, Note_on_c, 1, 54, 64
4, 31799, Note_on_c, 1, 54, 0
4, 31800, Note_on_c, 1, 64, 64
4, 31823, Note_on_c, 1, 64, 0
4, 31824, Note_on_c, 1, 58, 64
4, 31847, Note_on_c, 1, 58, 0
4, 31848, Note_on_c, 1, 64, 64
4, 31871, Note_on_c, 1, 64, 0
4, 31872, Note_on_c, 1, 54, 64
4, 31895, Note_on_c, 1, 54, 0
4, 31896, Note_on_c, 1, 64, 64
4, 31919, Note_on_c, 1, 64, 0
4, 31920, Note_on_c, 1, 58, 64
4, 31943, Note_on_c, 1, 58, 0
4, 31944, Note_on_c, 1, 64, 64
4, 31967, Note_on_c, 1, 64, 0
4, 31968, Note_on_c, 1, 54, 64
4, 31991, Note_on_c, 1, 54, 0
4, 31992, Note_on_c, 1, 64, 64
4, 32015, Note_on_c, 1, 64, 0
4, 32016, Note_on_c, 1, 58, 64
4, 32039, Note_on_c, 1, 58, 0
4, 32040, Note_on_c, 1, 64, 64
4, 32063, Note_on_c, 1, 64, 0
4, 32064, Note_on_c, 1, 54, 64
4, 32087, Note_on_c, 1, 54, 0
4, 32088, Note_on_c, 1, 62, 64
4, 32111, Note_on_c, 1, 62, 0
4, 32112, Note_on_c, 1, 59, 64
4, 32135, Note_on_c, 1, 59, 0
4, 32136, Note_on_c, 1, 62, 64
4, 32159, Note_on_c, 1, 62, 0
4, 32160, Note_on_c, 1, 54, 64
4, 32183, Note_on_c, 1, 54, 0
4, 32184, Note_on_c, 1, 62, 64
4, 32207, Note_on_c, 1, 62, 0
4, 32208, Note_on_c, 1, 59, 64
4, 32231, Note_on_c, 1, 59, 0
4, 32232, Note_on_c, 1, 62, 64
4, 32255, Note_on_c, 1, 62, 0
4, 32256, Note_on_c, 1, 54, 64
4, 32279, Note_on_c, 1, 54, 0
4, 32280, Note_on_c, 1, 62, 64
4, 32303, Note_on_c, 1, 62, 0
4, 32304, Note_on_c, 1, 59, 64
4, 32327, Note_on_c, 1, 59, 0
4, 32328, Note_on_c, 1, 62, 64
4, 32351, Note_on_c, 1, 62, 0
4, 32352, Note_on_c, 1, 54, 64
4, 32375, Note_on_c, 1, 54, 0
4, 32376, Note_on_c, 1, 62, 64
4, 32399, Note_on_c, 1, 62, 0
4, 32400, Note_on_c, 1, 59, 64
4, 32423, Note_on_c, 1, 59, 0
4, 32424, Note_on_c, 1, 62, 64
4, 32447, Note_on_c, 1, 62, 0
4, 32448, Note_on_c, 1, 55, 64
4, 32471, Note_on_c, 1, 55, 0
4, 32472, Note_on_c, 1, 62, 65
4, 32495, Note_on_c, 1, 62, 0
4, 32496, Note_on_c, 1, 59, 66
4, 32519, Note_on_c, 1, 59, 0
4, 32520, Note_on_c, 1, 62, 68
4, 32543, Note_on_c, 1, 62, 0
4, 32544, Note_on_c, 1, 55, 69
4, 32567, Note_on_c, 1, 55, 0
4, 32568, Note_on_c, 1, 62, 70
4, 32591, Note_on_c, 1, 62, 0
4, 32592, Note_on_c, 1, 59, 72
4, 32615, Note_on_c, 1, 59, 0
4, 32616, Note_on_c, 1, 62, 73
4, 32639, Note_on_c, 1, 62, 0
4, 32640, Note_on_c, 1, 43, 75
4, 32663, Note_on_c, 1, 43, 0
4, 32664, Note_on_c, 1, 50, 75
4, 32687, Note_on_c, 1, 50, 0
4, 32688, Note_on_c, 1, 47, 75
4, 32711, Note_on_c, 1, 47, 0
4, 32712, Note_on_c, 1, 50, 75
4, 32735, Note_on_c, 1, 50, 0
4, 32736, Note_on_c, 1, 43, 75
4, 32759, Note_on_c, 1, 43, 0
4, 32760, Note_on_c, 1, 50, 75
4, 32783, Note_on_c, 1, 50, 0
4, 32784, Note_on_c, 1, 47, 75
4, 32807, Note_on_c, 1, 47, 0
4, 32808, Note_on_c, 1, 50, 75
4, 32831, Note_on_c, 1, 50, 0
4, 32832, Note_on_c, 1, 41, 75
4, 32855, Note_on_c, 1, 41, 0
4, 32856, Note_on_c, 1, 50, 75
4, 32879, Note_on_c, 1, 50, 0
4, 32880, Note_on_c, 1, 47, 75
4, 32903, Note_on_c, 1, 47, 0
4, 32904, Note_on_c, 1, 50, 75
4, 32927, Note_on_c, 1, 50, 0
4, 32928, Note_on_c, 1, 41, 75
4, 32951, Note_on_c, 1, 41, 0
4, 32952, Note_on_c, 1, 50, 75
4, 32975, Note_on_c, 1, 50, 0
4, 32976, Note_on_c, 1, 47, 75
4, 32999, Note_on_c, 1, 47, 0
4, 33000, Note_on_c, 1, 50, 75
4, 33023, Note_on_c, 1, 50, 0
4, 33024, Note_on_c, 1, 41, 75
4, 33047, Note_on_c, 1, 41, 0
4, 33048, Note_on_c, 1, 50, 75
4, 33071, Note_on_c, 1, 50, 0
4, 33072, Note_on_c, 1, 47, 75
4, 33095, Note_on_c, 1, 47, 0
4, 33096, Note_on_c, 1, 50, 75
4, 33119, Note_on_c, 1, 50, 0
4, 33120, Note_on_c, 1, 41, 75
4, 33143, Note_on_c, 1, 41, 0
4, 33144, Note_on_c, 1, 50, 75
4, 33167, Note_on_c, 1, 50, 0
4, 33168, Note_on_c, 1, 47, 75
4, 33191, Note_on_c, 1, 47, 0
4, 33192, Note_on_c, 1, 50, 75
4, 33215, Note_on_c, 1, 50, 0
4, 33216, Note_on_c, 1, 52, 91
4, 33216, Note_on_c, 1, 47, 91
4, 33216, Note_on_c, 1, 44, 91
4, 33216, Note_on_c, 1, 40, 91
4, 33312, Note_on_c, 1, 52, 0
4, 33312, Note_on_c, 1, 47, 0
4, 33312, Note_on_c, 1, 44, 0
4, 33312, Note_on_c, 1, 40, 0
4, 33408, Note_on_c, 1, 59, 75
4, 33408, Note_on_c, 1, 56, 75
4, 33408, Note_on_c, 1, 52, 75
4, 33497, Note_on_c, 1, 59, 0
4, 33497, Note_on_c, 1, 56, 0
4, 33497, Note_on_c, 1, 52, 0
4, 33600, Note_on_c, 1, 52, 91
4, 33600, Note_on_c, 1, 48, 91
4, 33600, Note_on_c, 1, 45, 91
4, 33600, Note_on_c, 1, 40, 91
4, 33696, Note_on_c, 1, 52, 0
4, 33696, Note_on_c, 1, 48, 0
4, 33696, Note_on_c, 1, 45, 0
4, 33696, Note_on_c, 1, 40, 0
4, 33792, Note_on_c, 1, 60, 75
4, 33792, Note_on_c, 1, 57, 75
4, 33792, Note_on_c, 1, 52, 75
4, 33881, Note_on_c, 1, 60, 0
4, 33881, Note_on_c, 1, 57, 0
4, 33881, Note_on_c, 1, 52, 0
4, 33984, Note_on_c, 1, 40, 70
4, 34007, Note_on_c, 1, 40, 0
4, 34008, Note_on_c, 1, 43, 70
4, 34031, Note_on_c, 1, 43, 0
4, 34032, Note_on_c, 1, 41, 70
4, 34055, Note_on_c, 1, 41, 0
4, 34056, Note_on_c, 1, 43, 70
4, 34079, Note_on_c, 1, 43, 0
4, 34080, Note_on_c, 1, 40, 70
4, 34103, Note_on_c, 1, 40, 0
4, 34104, Note_on_c, 1, 43, 70
4, 34127, Note_on_c, 1, 43, 0
4, 34128, Note_on_c, 1, 41, 70
4, 34151, Note_on_c, 1, 41, 0
4, 34152, Note_on_c, 1, 43, 70
4, 34175, Note_on_c, 1, 43, 0
4, 34176, Note_on_c, 1, 41, 70
4, 34199, Note_on_c, 1, 41, 0
4, 34200, Note_on_c, 1, 48, 70
4, 34223, Note_on_c, 1, 48, 0
4, 34224, Note_on_c, 1, 45, 70
4, 34247, Note_on_c, 1, 45, 0
4, 34248, Note_on_c, 1, 48, 70
4, 34271, Note_on_c, 1, 48, 0
4, 34272, Note_on_c, 1, 41, 70
4, 34295, Note_on_c, 1, 41, 0
4, 34296, Note_on_c, 1, 48, 70
4, 34319, Note_on_c, 1, 48, 0
4, 34320, Note_on_c, 1, 45, 70
4, 34343, Note_on_c, 1, 45, 0
4, 34344, Note_on_c, 1, 48, 70
4, 34367, Note_on_c, 1, 48, 0
4, 34368, Note_on_c, 1, 36, 70
4, 34391, Note_on_c, 1, 36, 0
4, 34392, Note_on_c, 1, 48, 70
4, 34415, Note_on_c, 1, 48, 0
4, 34416, Note_on_c, 1, 36, 70
4, 34439, Note_on_c, 1, 36, 0
4, 34440, Note_on_c, 1, 48, 70
4, 34463, Note_on_c, 1, 48, 0
4, 34464, Note_on_c, 1, 36, 70
4, 34487, Note_on_c, 1, 36, 0
4, 34488, Note_on_c, 1, 48, 70
4, 34511, Note_on_c, 1, 48, 0
4, 34512, Note_on_c, 1, 36, 70
4, 34535, Note_on_c, 1, 36, 0
4, 34536, Note_on_c, 1, 48, 70
4, 34559, Note_on_c, 1, 48, 0
4, 34560, Note_on_c, 1, 35, 70
4, 34649, Note_on_c, 1, 35, 0
4, 34752, Note_on_c, 1, 54, 64
4, 34775, Note_on_c, 1, 54, 0
4, 34776, Note_on_c, 1, 63, 64
4, 34799, Note_on_c, 1, 63, 0
4, 34800, Note_on_c, 1, 59, 64
4, 34823, Note_on_c, 1, 59, 0
4, 34824, Note_on_c, 1, 63, 64
4, 34847, Note_on_c, 1, 63, 0
4, 34848, Note_on_c, 1, 54, 64
4, 34871, Note_on_c, 1, 54, 0
4, 34872, Note_on_c, 1, 63, 64
4, 34895, Note_on_c, 1, 63, 0
4, 34896, Note_on_c, 1, 59, 64
4, 34919, Note_on_c, 1, 59, 0
4, 34920, Note_on_c, 1, 63, 64
4, 34943, Note_on_c, 1, 63, 0
4, 34944, Note_on_c, 1, 54, 64
4, 34967, Note_on_c, 1, 54, 0
4, 34968, Note_on_c, 1, 64, 64
4, 34991, Note_on_c, 1, 64, 0
4, 34992, Note_on_c, 1, 61, 64
4, 35015, Note_on_c, 1, 61, 0
4, 35016, Note_on_c, 1, 64, 64
4, 35039, Note_on_c, 1, 64, 0
4, 35040, Note_on_c, 1, 54, 64
4, 35063, Note_on_c, 1, 54, 0
4, 35064, Note_on_c, 1, 64, 64
4, 35087, Note_on_c, 1, 64, 0
4, 35088, Note_on_c, 1, 61, 64
4, 35111, Note_on_c, 1, 61, 0
4, 35112, Note_on_c, 1, 64, 64
4, 35135, Note_on_c, 1, 64, 0
4, 35136, Note_on_c, 1, 63, 64
4, 35136, Note_on_c, 1, 59, 64
4, 35225, Note_on_c, 1, 63, 0
4, 35225, Note_on_c, 1, 59, 0
4, 35424, Note_on_c, 1, 61, 75
4, 35424, Note_on_c, 1, 54, 75
4, 35513, Note_on_c, 1, 61, 0
4, 35513, Note_on_c, 1, 54, 0
4, 35520, Note_on_c, 1, 63, 75
4, 35520, Note_on_c, 1, 59, 75
4, 35697, Note_on_c, 1, 63, 0
4, 35697, Note_on_c, 1, 59, 0
4, 35712, Note_on_c, 1, 54, 80
4, 35742, Note_on_c, 1, 54, 0
4, 35744, Note_on_c, 1, 51, 80
4, 35774, Note_on_c, 1, 51, 0
4, 35776, Note_on_c, 1, 47, 80
4, 35806, Note_on_c, 1, 47, 0
4, 35808, Note_on_c, 1, 52, 80
4, 35838, Note_on_c, 1, 52, 0
4, 35840, Note_on_c, 1, 49, 80
4, 35870, Note_on_c, 1, 49, 0
4, 35872, Note_on_c, 1, 46, 80
4, 35902, Note_on_c, 1, 46, 0
4, 35904, Note_on_c, 1, 47, 80
4, 35943, Note_on_c, 1, 47, 0
4, 36000, Note_on_c, 1, 47, 80
4, 36039, Note_on_c, 1, 47, 0
4, 36096, Note_on_c, 1, 47, 80
4, 36185, Note_on_c, 1, 47, 0
4, 37440, Note_on_c, 1, 42, 75
4, 37463, Note_on_c, 1, 42, 0
4, 37464, Note_on_c, 1, 46, 75
4, 37487, Note_on_c, 1, 46, 0
4, 37488, Note_on_c, 1, 49, 75
4, 37511, Note_on_c, 1, 49, 0
4, 37512, Note_on_c, 1, 52, 75
4, 37535, Note_on_c, 1, 52, 0
4, 37536, Note_on_c, 1, 42, 75
4, 37559, Note_on_c, 1, 42, 0
4, 37560, Note_on_c, 1, 46, 75
4, 37583, Note_on_c, 1, 46, 0
4, 37584, Note_on_c, 1, 49, 75
4, 37607, Note_on_c, 1, 49, 0
4, 37608, Note_on_c, 1, 52, 75
4, 37631, Note_on_c, 1, 52, 0
4, 37632, Note_on_c, 1, 42, 75
4, 37655, Note_on_c, 1, 42, 0
4, 37656, Note_on_c, 1, 46, 75
4, 37679, Note_on_c, 1, 46, 0
4, 37680, Note_on_c, 1, 49, 75
4, 37703, Note_on_c, 1, 49, 0
4, 37704, Note_on_c, 1, 52, 75
4, 37727, Note_on_c, 1, 52, 0
4, 37728, Note_on_c, 1, 42, 75
4, 37751, Note_on_c, 1, 42, 0
4, 37752, Note_on_c, 1, 46, 75
4, 37775, Note_on_c, 1, 46, 0
4, 37776, Note_on_c, 1, 49, 75
4, 37799, Note_on_c, 1, 49, 0
4, 37800, Note_on_c, 1, 52, 75
4, 37823, Note_on_c, 1, 52, 0
4, 37824, Note_on_c, 1, 42, 75
4, 37847, Note_on_c, 1, 42, 0
4, 37848, Note_on_c, 1, 47, 75
4, 37871, Note_on_c, 1, 47, 0
4, 37872, Note_on_c, 1, 50, 75
4, 37895, Note_on_c, 1, 50, 0
4, 37896, Note_on_c, 1, 54, 75
4, 37919, Note_on_c, 1, 54, 0
4, 37920, Note_on_c, 1, 42, 75
4, 37943, Note_on_c, 1, 42, 0
4, 37944, Note_on_c, 1, 47, 75
4, 37967, Note_on_c, 1, 47, 0
4, 37968, Note_on_c, 1, 50, 75
4, 37991, Note_on_c, 1, 50, 0
4, 37992, Note_on_c, 1, 54, 75
4, 38015, Note_on_c, 1, 54, 0
4, 38016, Note_on_c, 1, 42, 75
4, 38039, Note_on_c, 1, 42, 0
4, 38040, Note_on_c, 1, 47, 75
4, 38063, Note_on_c, 1, 47, 0
4, 38064, Note_on_c, 1, 50, 75
4, 38087, Note_on_c, 1, 50, 0
4, 38088, Note_on_c, 1, 54, 75
4, 38111, Note_on_c, 1, 54, 0
4, 38112, Note_on_c, 1, 42, 75
4, 38135, Note_on_c, 1, 42, 0
4, 38136, Note_on_c, 1, 47, 75
4, 38159, Note_on_c, 1, 47, 0
4, 38160, Note_on_c, 1, 50, 75
4, 38183, Note_on_c, 1, 50, 0
4, 38184, Note_on_c, 1, 54, 75
4, 38207, Note_on_c, 1, 54, 0
4, 38208, Note_on_c, 1, 40, 75
4, 38231, Note_on_c, 1, 40, 0
4, 38232, Note_on_c, 1, 43, 75
4, 38255, Note_on_c, 1, 43, 0
4, 38256, Note_on_c, 1, 48, 75
4, 38279, Note_on_c, 1, 48, 0
4, 38280, Note_on_c, 1, 52, 75
4, 38303, Note_on_c, 1, 52, 0
4, 38304, Note_on_c, 1, 40, 75
4, 38327, Note_on_c, 1, 40, 0
4, 38328, Note_on_c, 1, 43, 75
4, 38351, Note_on_c, 1, 43, 0
4, 38352, Note_on_c, 1, 48, 75
4, 38375, Note_on_c, 1, 48, 0
4, 38376, Note_on_c, 1, 52, 75
4, 38399, Note_on_c, 1, 52, 0
4, 38400, Note_on_c, 1, 40, 75
4, 38423, Note_on_c, 1, 40, 0
4, 38424, Note_on_c, 1, 43, 75
4, 38447, Note_on_c, 1, 43, 0
4, 38448, Note_on_c, 1, 48, 75
4, 38471, Note_on_c, 1, 48, 0
4, 38472, Note_on_c, 1, 52, 75
4, 38495, Note_on_c, 1, 52, 0
4, 38496, Note_on_c, 1, 40, 75
4, 38519, Note_on_c, 1, 40, 0
4, 38520, Note_on_c, 1, 46, 75
4, 38543, Note_on_c, 1, 46, 0
4, 38544, Note_on_c, 1, 49, 75
4, 38567, Note_on_c, 1, 49, 0
4, 38568, Note_on_c, 1, 52, 75
4, 38591, Note_on_c, 1, 52, 0
4, 38592, Note_on_c, 1, 47, 75
4, 38615, Note_on_c, 1, 47, 0
4, 38616, Note_on_c, 1, 50, 75
4, 38639, Note_on_c, 1, 50, 0
4, 38640, Note_on_c, 1, 54, 75
4, 38663, Note_on_c, 1, 54, 0
4, 38664, Note_on_c, 1, 59, 75
4, 38687, Note_on_c, 1, 59, 0
4, 38688, Note_on_c, 1, 47, 75
4, 38711, Note_on_c, 1, 47, 0
4, 38712, Note_on_c, 1, 50, 75
4, 38735, Note_on_c, 1, 50, 0
4, 38736, Note_on_c, 1, 54, 75
4, 38759, Note_on_c, 1, 54, 0
4, 38760, Note_on_c, 1, 59, 75
4, 38783, Note_on_c, 1, 59, 0
4, 38784, Note_on_c, 1, 47, 75
4, 38807, Note_on_c, 1, 47, 0
4, 38808, Note_on_c, 1, 50, 75
4, 38831, Note_on_c, 1, 50, 0
4, 38832, Note_on_c, 1, 54, 75
4, 38855, Note_on_c, 1, 54, 0
4, 38856, Note_on_c, 1, 59, 75
4, 38879, Note_on_c, 1, 59, 0
4, 38880, Note_on_c, 1, 47, 75
4, 38903, Note_on_c, 1, 47, 0
4, 38904, Note_on_c, 1, 50, 75
4, 38927, Note_on_c, 1, 50, 0
4, 38928, Note_on_c, 1, 54, 75
4, 38951, Note_on_c, 1, 54, 0
4, 38952, Note_on_c, 1, 59, 75
4, 38975, Note_on_c, 1, 59, 0
4, 38976, Note_on_c, 1, 47, 75
4, 38999, Note_on_c, 1, 47, 0
4, 39000, Note_on_c, 1, 50, 75
4, 39023, Note_on_c, 1, 50, 0
4, 39024, Note_on_c, 1, 54, 75
4, 39047, Note_on_c, 1, 54, 0
4, 39048, Note_on_c, 1, 59, 75
4, 39071, Note_on_c, 1, 59, 0
4, 39072, Note_on_c, 1, 47, 75
4, 39095, Note_on_c, 1, 47, 0
4, 39096, Note_on_c, 1, 50, 75
4, 39119, Note_on_c, 1, 50, 0
4, 39120, Note_on_c, 1, 54, 75
4, 39143, Note_on_c, 1, 54, 0
4, 39144, Note_on_c, 1, 59, 75
4, 39167, Note_on_c, 1, 59, 0
4, 39168, Note_on_c, 1, 59, 75
4, 39168, Note_on_c, 1, 54, 75
4, 39168, Note_on_c, 1, 50, 75
4, 39168, Note_on_c, 1, 47, 75
4, 39257, Note_on_c, 1, 59, 0
4, 39257, Note_on_c, 1, 54, 0
4, 39257, Note_on_c, 1, 50, 0
4, 39257, Note_on_c, 1, 47, 0
4, 39552, Note_on_c, 1, 59, 64
4, 39575, Note_on_c, 1, 59, 0
4, 39576, Note_on_c, 1, 67, 64
4, 39599, Note_on_c, 1, 67, 0
4, 39600, Note_on_c, 1, 62, 64
4, 39623, Note_on_c, 1, 62, 0
4, 39624, Note_on_c, 1, 67, 64
4, 39647, Note_on_c, 1, 67, 0
4, 39648, Note_on_c, 1, 59, 64
4, 39671, Note_on_c, 1, 59, 0
4, 39672, Note_on_c, 1, 67, 64
4, 39695, Note_on_c, 1, 67, 0
4, 39696, Note_on_c, 1, 62, 64
4, 39719, Note_on_c, 1, 62, 0
4, 39720, Note_on_c, 1, 67, 64
4, 39743, Note_on_c, 1, 67, 0
4, 39744, Note_on_c, 1, 60, 64
4, 39767, Note_on_c, 1, 60, 0
4, 39768, Note_on_c, 1, 67, 64
4, 39791, Note_on_c, 1, 67, 0
4, 39792, Note_on_c, 1, 64, 64
4, 39815, Note_on_c, 1, 64, 0
4, 39816, Note_on_c, 1, 67, 64
4, 39839, Note_on_c, 1, 67, 0
4, 39840, Note_on_c, 1, 60, 64
4, 39863, Note_on_c, 1, 60, 0
4, 39864, Note_on_c, 1, 67, 64
4, 39887, Note_on_c, 1, 67, 0
4, 39888, Note_on_c, 1, 64, 64
4, 39911, Note_on_c, 1, 64, 0
4, 39912, Note_on_c, 1, 67, 64
4, 39935, Note_on_c, 1, 67, 0
4, 39936, Note_on_c, 1, 54, 64
4, 39959, Note_on_c, 1, 54, 0
4, 39960, Note_on_c, 1, 62, 64
4, 39983, Note_on_c, 1, 62, 0
4, 39984, Note_on_c, 1, 57, 64
4, 40007, Note_on_c, 1, 57, 0
4, 40008, Note_on_c, 1, 62, 64
4, 40031, Note_on_c, 1, 62, 0
4, 40032, Note_on_c, 1, 54, 64
4, 40055, Note_on_c, 1, 54, 0
4, 40056, Note_on_c, 1, 62, 64
4, 40079, Note_on_c, 1, 62, 0
4, 40080, Note_on_c, 1, 57, 64
4, 40103, Note_on_c, 1, 57, 0
4, 40104, Note_on_c, 1, 62, 64
4, 40127, Note_on_c, 1, 62, 0
4, 40128, Note_on_c, 1, 55, 64
4, 40151, Note_on_c, 1, 55, 0
4, 40152, Note_on_c, 1, 62, 64
4, 40175, Note_on_c, 1, 62, 0
4, 40176, Note_on_c, 1, 59, 64
4, 40199, Note_on_c, 1, 59, 0
4, 40200, Note_on_c, 1, 62, 64
4, 40223, Note_on_c, 1, 62, 0
4, 40224, Note_on_c, 1, 55, 64
4, 40247, Note_on_c, 1, 55, 0
4, 40248, Note_on_c, 1, 62, 64
4, 40271, Note_on_c, 1, 62, 0
4, 40272, Note_on_c, 1, 59, 64
4, 40295, Note_on_c, 1, 59, 0
4, 40296, Note_on_c, 1, 62, 64
4, 40319, Note_on_c, 1, 62, 0
4, 40320, Note_on_c, 1, 48, 64
4, 40343, Note_on_c, 1, 48, 0
4, 40344, Note_on_c, 1, 57, 64
4, 40367, Note_on_c, 1, 57, 0
4, 40368, Note_on_c, 1, 52, 65
4, 40391, Note_on_c, 1, 52, 0
4, 40392, Note_on_c, 1, 57, 66
4, 40415, Note_on_c, 1, 57, 0
4, 40416, Note_on_c, 1, 49, 66
4, 40439, Note_on_c, 1, 49, 0
4, 40440, Note_on_c, 1, 57, 67
4, 40463, Note_on_c, 1, 57, 0
4, 40464, Note_on_c, 1, 52, 68
4, 40487, Note_on_c, 1, 52, 0
4, 40488, Note_on_c, 1, 57, 68
4, 40511, Note_on_c, 1, 57, 0
4, 40512, Note_on_c, 1, 50, 69
4, 40535, Note_on_c, 1, 50, 0
4, 40536, Note_on_c, 1, 57, 70
4, 40559, Note_on_c, 1, 57, 0
4, 40560, Note_on_c, 1, 54, 70
4, 40583, Note_on_c, 1, 54, 0
4, 40584, Note_on_c, 1, 57, 70
4, 40607, Note_on_c, 1, 57, 0
4, 40608, Note_on_c, 1, 51, 86
4, 40632, Note_on_c, 1, 51, 0
4, 40632, Note_on_c, 1, 57, 70
4, 40655, Note_on_c, 1, 57, 0
4, 40656, Note_on_c, 1, 54, 70
4, 40679, Note_on_c, 1, 54, 0
4, 40680, Note_on_c, 1, 57, 70
4, 40703, Note_on_c, 1, 57, 0
4, 40704, Note_on_c, 1, 51, 70
4, 40727, Note_on_c, 1, 51, 0
4, 40728, Note_on_c, 1, 57, 70
4, 40751, Note_on_c, 1, 57, 0
4, 40752, Note_on_c, 1, 54, 70
4, 40775, Note_on_c, 1, 54, 0
4, 40776, Note_on_c, 1, 57, 70
4, 40799, Note_on_c, 1, 57, 0
4, 40800, Note_on_c, 1, 47, 70
4, 40823, Note_on_c, 1, 47, 0
4, 40824, Note_on_c, 1, 54, 70
4, 40847, Note_on_c, 1, 54, 0
4, 40848, Note_on_c, 1, 51, 70
4, 40871, Note_on_c, 1, 51, 0
4, 40872, Note_on_c, 1, 54, 70
4, 40895, Note_on_c, 1, 54, 0
4, 40896, Note_on_c, 1, 52, 70
4, 40919, Note_on_c, 1, 52, 0
4, 40920, Note_on_c, 1, 59, 70
4, 40943, Note_on_c, 1, 59, 0
4, 40944, Note_on_c, 1, 55, 70
4, 40967, Note_on_c, 1, 55, 0
4, 40968, Note_on_c, 1, 59, 70
4, 40991, Note_on_c, 1, 59, 0
4, 40992, Note_on_c, 1, 47, 70
4, 41015, Note_on_c, 1, 47, 0
4, 41016, Note_on_c, 1, 55, 70
4, 41039, Note_on_c, 1, 55, 0
4, 41040, Note_on_c, 1, 50, 70
4, 41063, Note_on_c, 1, 50, 0
4, 41064, Note_on_c, 1, 55, 70
4, 41087, Note_on_c, 1, 55, 0
4, 41088, Note_on_c, 1, 48, 70
4, 41111, Note_on_c, 1, 48, 0
4, 41112, Note_on_c, 1, 55, 70
4, 41135, Note_on_c, 1, 55, 0
4, 41136, Note_on_c, 1, 52, 70
4, 41159, Note_on_c, 1, 52, 0
4, 41160, Note_on_c, 1, 55, 70
4, 41183, Note_on_c, 1, 55, 0
4, 41184, Note_on_c, 1, 44, 70
4, 41207, Note_on_c, 1, 44, 0
4, 41208, Note_on_c, 1, 52, 70
4, 41231, Note_on_c, 1, 52, 0
4, 41232, Note_on_c, 1, 47, 70
4, 41255, Note_on_c, 1, 47, 0
4, 41256, Note_on_c, 1, 52, 70
4, 41279, Note_on_c, 1, 52, 0
4, 41280, Note_on_c, 1, 45, 70
4, 41303, Note_on_c, 1, 45, 0
4, 41304, Note_on_c, 1, 52, 70
4, 41327, Note_on_c, 1, 52, 0
4, 41328, Note_on_c, 1, 48, 70
4, 41351, Note_on_c, 1, 48, 0
4, 41352, Note_on_c, 1, 52, 70
4, 41375, Note_on_c, 1, 52, 0
4, 41376, Note_on_c, 1, 38, 70
4, 41399, Note_on_c, 1, 38, 0
4, 41400, Note_on_c, 1, 46, 70
4, 41423, Note_on_c, 1, 46, 0
4, 41424, Note_on_c, 1, 41, 70
4, 41447, Note_on_c, 1, 41, 0
4, 41448, Note_on_c, 1, 46, 70
4, 41471, Note_on_c, 1, 46, 0
4, 41472, Note_on_c, 1, 36, 70
4, 41495, Note_on_c, 1, 36, 0
4, 41496, Note_on_c, 1, 45, 70
4, 41519, Note_on_c, 1, 45, 0
4, 41520, Note_on_c, 1, 40, 70
4, 41543, Note_on_c, 1, 40, 0
4, 41544, Note_on_c, 1, 45, 70
4, 41567, Note_on_c, 1, 45, 0
4, 41568, Note_on_c, 1, 35, 70
4, 41591, Note_on_c, 1, 35, 0
4, 41592, Note_on_c, 1, 44, 70
4, 41615, Note_on_c, 1, 44, 0
4, 41616, Note_on_c, 1, 40, 70
4, 41639, Note_on_c, 1, 40, 0
4, 41640, Note_on_c, 1, 44, 70
4, 41663, Note_on_c, 1, 44, 0
4, 41664, Note_on_c, 1, 45, 70
4, 41687, Note_on_c, 1, 45, 0
4, 41688, Note_on_c, 1, 48, 70
4, 41711, Note_on_c, 1, 48, 0
4, 41712, Note_on_c, 1, 52, 70
4, 41735, Note_on_c, 1, 52, 0
4, 41736, Note_on_c, 1, 48, 70
4, 41759, Note_on_c, 1, 48, 0
4, 41760, Note_on_c, 1, 45, 70
4, 41783, Note_on_c, 1, 45, 0
4, 41784, Note_on_c, 1, 51, 70
4, 41807, Note_on_c, 1, 51, 0
4, 41808, Note_on_c, 1, 54, 70
4, 41831, Note_on_c, 1, 54, 0
4, 41832, Note_on_c, 1, 51, 70
4, 41855, Note_on_c, 1, 51, 0
4, 41856, Note_on_c, 1, 52, 64
4, 41856, Note_on_c, 1, 47, 64
4, 41856, Note_on_c, 1, 43, 64
4, 41945, Note_on_c, 1, 52, 0
4, 41945, Note_on_c, 1, 47, 0
4, 41945, Note_on_c, 1, 43, 0
4, 42048, Note_on_c, 1, 59, 75
4, 42078, Note_on_c, 1, 59, 0
4, 42080, Note_on_c, 1, 55, 75
4, 42110, Note_on_c, 1, 55, 0
4, 42112, Note_on_c, 1, 52, 75
4, 42142, Note_on_c, 1, 52, 0
4, 42144, Note_on_c, 1, 51, 75
4, 42174, Note_on_c, 1, 51, 0
4, 42176, Note_on_c, 1, 54, 75
4, 42206, Note_on_c, 1, 54, 0
4, 42208, Note_on_c, 1, 57, 75
4, 42238, Note_on_c, 1, 57, 0
4, 42240, Note_on_c, 1, 59, 75
4, 42329, Note_on_c, 1, 59, 0
4, 42432, Note_on_c, 1, 54, 75
4, 42462, Note_on_c, 1, 54, 0
4, 42464, Note_on_c, 1, 50, 75
4, 42494, Note_on_c, 1, 50, 0
4, 42496, Note_on_c, 1, 47, 75
4, 42526, Note_on_c, 1, 47, 0
4, 42528, Note_on_c, 1, 42, 75
4, 42558, Note_on_c, 1, 42, 0
4, 42560, Note_on_c, 1, 47, 75
4, 42590, Note_on_c, 1, 47, 0
4, 42592, Note_on_c, 1, 50, 75
4, 42622, Note_on_c, 1, 50, 0
4, 42624, Note_on_c, 1, 54, 75
4, 42654, Note_on_c, 1, 54, 0
4, 42656, Note_on_c, 1, 50, 75
4, 42686, Note_on_c, 1, 50, 0
4, 42688, Note_on_c, 1, 47, 75
4, 42718, Note_on_c, 1, 47, 0
4, 42720, Note_on_c, 1, 42, 75
4, 42750, Note_on_c, 1, 42, 0
4, 42752, Note_on_c, 1, 47, 75
4, 42782, Note_on_c, 1, 47, 0
4, 42784, Note_on_c, 1, 50, 75
4, 42814, Note_on_c, 1, 50, 0
4, 42816, Note_on_c, 1, 55, 75
4, 42846, Note_on_c, 1, 55, 0
4, 42848, Note_on_c, 1, 50, 75
4, 42878, Note_on_c, 1, 50, 0
4, 42880, Note_on_c, 1, 47, 75
4, 42910, Note_on_c, 1, 47, 0
4, 42912, Note_on_c, 1, 43, 75
4, 42942, Note_on_c, 1, 43, 0
4, 42944, Note_on_c, 1, 47, 75
4, 42974, Note_on_c, 1, 47, 0
4, 42976, Note_on_c, 1, 50, 75
4, 43006, Note_on_c, 1, 50, 0
4, 43008, Note_on_c, 1, 55, 75
4, 43038, Note_on_c, 1, 55, 0
4, 43040, Note_on_c, 1, 50, 75
4, 43070, Note_on_c, 1, 50, 0
4, 43072, Note_on_c, 1, 47, 75
4, 43102, Note_on_c, 1, 47, 0
4, 43104, Note_on_c, 1, 43, 75
4, 43134, Note_on_c, 1, 43, 0
4, 43136, Note_on_c, 1, 47, 75
4, 43166, Note_on_c, 1, 47, 0
4, 43168, Note_on_c, 1, 50, 75
4, 43198, Note_on_c, 1, 50, 0
4, 43200, Note_on_c, 1, 52, 75
4, 43200, Note_on_c, 1, 49, 75
4, 43200, Note_on_c, 1, 46, 75
4, 43657, Note_on_c, 1, 52, 0
4, 43657, Note_on_c, 1, 49, 0
4, 43657, Note_on_c, 1, 46, 0
4, 44160, Note_on_c, 1, 47, 64
4, 44183, Note_on_c, 1, 47, 0
4, 44184, Note_on_c, 1, 54, 64
4, 44207, Note_on_c, 1, 54, 0
4, 44208, Note_on_c, 1, 51, 64
4, 44231, Note_on_c, 1, 51, 0
4, 44232, Note_on_c, 1, 54, 64
4, 44255, Note_on_c, 1, 54, 0
4, 44256, Note_on_c, 1, 47, 64
4, 44279, Note_on_c, 1, 47, 0
4, 44280, Note_on_c, 1, 54, 64
4, 44303, Note_on_c, 1, 54, 0
4, 44304, Note_on_c, 1, 51, 64
4, 44327, Note_on_c, 1, 51, 0
4, 44328, Note_on_c, 1, 54, 64
4, 44351, Note_on_c, 1, 54, 0
4, 44352, Note_on_c, 1, 47, 64
4, 44375, Note_on_c, 1, 47, 0
4, 44376, Note_on_c, 1, 56, 64
4, 44399, Note_on_c, 1, 56, 0
4, 44400, Note_on_c, 1, 52, 64
4, 44423, Note_on_c, 1, 52, 0
4, 44424, Note_on_c, 1, 56, 64
4, 44447, Note_on_c, 1, 56, 0
4, 44448, Note_on_c, 1, 47, 64
4, 44471, Note_on_c, 1, 47, 0
4, 44472, Note_on_c, 1, 56, 64
4, 44495, Note_on_c, 1, 56, 0
4, 44496, Note_on_c, 1, 52, 64
4, 44519, Note_on_c, 1, 52, 0
4, 44520, Note_on_c, 1, 56, 64
4, 44543, Note_on_c, 1, 56, 0
4, 44544, Note_on_c, 1, 51, 64
4, 44544, Note_on_c, 1, 47, 64
4, 44633, Note_on_c, 1, 51, 0
4, 44633, Note_on_c, 1, 47, 0
4, 44688, Note_on_c, 1, 49, 64
4, 44688, Note_on_c, 1, 47, 64
4, 44777, Note_on_c, 1, 49, 0
4, 44777, Note_on_c, 1, 47, 0
4, 44784, Note_on_c, 1, 47, 64
4, 44784, Note_on_c, 1, 44, 64
4, 44829, Note_on_c, 1, 47, 0
4, 44829, Note_on_c, 1, 44, 0
4, 44832, Note_on_c, 1, 41, 80
4, 44928, Note_on_c, 1, 41, 0
4, 44928, Note_on_c, 1, 42, 64
4, 44951, Note_on_c, 1, 42, 0
4, 44952, Note_on_c, 1, 47, 64
4, 44975, Note_on_c, 1, 47, 0
4, 44976, Note_on_c, 1, 51, 64
4, 44999, Note_on_c, 1, 51, 0
4, 45000, Note_on_c, 1, 54, 64
4, 45023, Note_on_c, 1, 54, 0
4, 45024, Note_on_c, 1, 42, 64
4, 45113, Note_on_c, 1, 42, 0
4, 45312, Note_on_c, 1, 30, 64
4, 45335, Note_on_c, 1, 30, 0
4, 45336, Note_on_c, 1, 35, 64
4, 45359, Note_on_c, 1, 35, 0
4, 45360, Note_on_c, 1, 39, 64
4, 45383, Note_on_c, 1, 39, 0
4, 45384, Note_on_c, 1, 42, 64
4, 45407, Note_on_c, 1, 42, 0
4, 45408, Note_on_c, 1, 30, 64
4, 45497, Note_on_c, 1, 30, 0
4, 45696, Note_on_c, 1, 39, 64
4, 45741, Note_on_c, 1, 39, 0
4, 45744, Note_on_c, 1, 51, 64
4, 45789, Note_on_c, 1, 51, 0
4, 45792, Note_on_c, 1, 52, 64
4, 45815, Note_on_c, 1, 52, 0
4, 45816, Note_on_c, 1, 56, 64
4, 45839, Note_on_c, 1, 56, 0
4, 45840, Note_on_c, 1, 61, 64
4, 45863, Note_on_c, 1, 61, 0
4, 45864, Note_on_c, 1, 56, 64
4, 45887, Note_on_c, 1, 56, 0
4, 45888, Note_on_c, 1, 52, 64
4, 45911, Note_on_c, 1, 52, 0
4, 45912, Note_on_c, 1, 56, 64
4, 45935, Note_on_c, 1, 56, 0
4, 45936, Note_on_c, 1, 61, 64
4, 45959, Note_on_c, 1, 61, 0
4, 45960, Note_on_c, 1, 56, 64
4, 45983, Note_on_c, 1, 56, 0
4, 45984, Note_on_c, 1, 52, 64
4, 46007, Note_on_c, 1, 52, 0
4, 46008, Note_on_c, 1, 56, 64
4, 46031, Note_on_c, 1, 56, 0
4, 46032, Note_on_c, 1, 61, 64
4, 46055, Note_on_c, 1, 61, 0
4, 46056, Note_on_c, 1, 56, 64
4, 46079, Note_on_c, 1, 56, 0
4, 46080, Note_on_c, 1, 54, 64
4, 46103, Note_on_c, 1, 54, 0
4, 46104, Note_on_c, 1, 59, 64
4, 46127, Note_on_c, 1, 59, 0
4, 46128, Note_on_c, 1, 63, 64
4, 46151, Note_on_c, 1, 63, 0
4, 46152, Note_on_c, 1, 59, 64
4, 46175, Note_on_c, 1, 59, 0
4, 46176, Note_on_c, 1, 54, 64
4, 46199, Note_on_c, 1, 54, 0
4, 46200, Note_on_c, 1, 59, 64
4, 46223, Note_on_c, 1, 59, 0
4, 46224, Note_on_c, 1, 63, 64
4, 46247, Note_on_c, 1, 63, 0
4, 46248, Note_on_c, 1, 59, 64
4, 46271, Note_on_c, 1, 59, 0
4, 46272, Note_on_c, 1, 54, 64
4, 46295, Note_on_c, 1, 54, 0
4, 46296, Note_on_c, 1, 58, 64
4, 46319, Note_on_c, 1, 58, 0
4, 46320, Note_on_c, 1, 64, 64
4, 46343, Note_on_c, 1, 64, 0
4, 46344, Note_on_c, 1, 58, 64
4, 46367, Note_on_c, 1, 58, 0
4, 46368, Note_on_c, 1, 54, 64
4, 46391, Note_on_c, 1, 54, 0
4, 46392, Note_on_c, 1, 58, 64
4, 46415, Note_on_c, 1, 58, 0
4, 46416, Note_on_c, 1, 64, 64
4, 46439, Note_on_c, 1, 64, 0
4, 46440, Note_on_c, 1, 58, 64
4, 46463, Note_on_c, 1, 58, 0
4, 46464, Note_on_c, 1, 59, 64
4, 46487, Note_on_c, 1, 59, 0
4, 46488, Note_on_c, 1, 42, 80
4, 46511, Note_on_c, 1, 42, 0
4, 46512, Note_on_c, 1, 44, 80
4, 46535, Note_on_c, 1, 44, 0
4, 46536, Note_on_c, 1, 46, 80
4, 46559, Note_on_c, 1, 46, 0
4, 46560, Note_on_c, 1, 47, 80
4, 46583, Note_on_c, 1, 47, 0
4, 46584, Note_on_c, 1, 49, 80
4, 46607, Note_on_c, 1, 49, 0
4, 46608, Note_on_c, 1, 51, 80
4, 46631, Note_on_c, 1, 51, 0
4, 46632, Note_on_c, 1, 52, 80
4, 46655, Note_on_c, 1, 52, 0
4, 46656, Note_on_c, 1, 54, 80
4, 46666, Note_on_c, 1, 54, 0
4, 46680, Note_on_c, 1, 54, 80
4, 46703, Note_on_c, 1, 54, 0
4, 46704, Note_on_c, 1, 56, 80
4, 46727, Note_on_c, 1, 56, 0
4, 46728, Note_on_c, 1, 58, 80
4, 46751, Note_on_c, 1, 58, 0
4, 46752, Note_on_c, 1, 59, 80
4, 46775, Note_on_c, 1, 59, 0
4, 46776, Note_on_c, 1, 61, 80
4, 46799, Note_on_c, 1, 61, 0
4, 46800, Note_on_c, 1, 63, 80
4, 46823, Note_on_c, 1, 63, 0
4, 46824, Note_on_c, 1, 64, 80
4, 46847, Note_on_c, 1, 64, 0
4, 46848, Note_on_c, 1, 66, 96
4, 46896, Note_on_c, 1, 66, 0
4, 46920, Note_on_c, 1, 65, 80
4, 46944, Note_on_c, 1, 65, 0
4, 46944, Note_on_c, 1, 66, 80
4, 46989, Note_on_c, 1, 66, 0
4, 47016, Note_on_c, 1, 65, 80
4, 47040, Note_on_c, 1, 65, 0
4, 47040, Note_on_c, 1, 66, 80
4, 47129, Note_on_c, 1, 66, 0
4, 47616, Note_on_c, 1, 54, 64
4, 47639, Note_on_c, 1, 54, 0
4, 47640, Note_on_c, 1, 63, 64
4, 47663, Note_on_c, 1, 63, 0
4, 47664, Note_on_c, 1, 59, 64
4, 47687, Note_on_c, 1, 59, 0
4, 47688, Note_on_c, 1, 63, 64
4, 47711, Note_on_c, 1, 63, 0
4, 47712, Note_on_c, 1, 54, 64
4, 47735, Note_on_c, 1, 54, 0
4, 47736, Note_on_c, 1, 63, 64
4, 47759, Note_on_c, 1, 63, 0
4, 47760, Note_on_c, 1, 59, 64
4, 47783, Note_on_c, 1, 59, 0
4, 47784, Note_on_c, 1, 63, 64
4, 47807, Note_on_c, 1, 63, 0
4, 47808, Note_on_c, 1, 54, 64
4, 47831, Note_on_c, 1, 54, 0
4, 47832, Note_on_c, 1, 63, 64
4, 47855, Note_on_c, 1, 63, 0
4, 47856, Note_on_c, 1, 59, 64
4, 47879, Note_on_c, 1, 59, 0
4, 47880, Note_on_c, 1, 63, 64
4, 47903, Note_on_c, 1, 63, 0
4, 47904, Note_on_c, 1, 54, 64
4, 47927, Note_on_c, 1, 54, 0
4, 47928, Note_on_c, 1, 63, 64
4, 47951, Note_on_c, 1, 63, 0
4, 47952, Note_on_c, 1, 59, 64
4, 47975, Note_on_c, 1, 59, 0
4, 47976, Note_on_c, 1, 63, 64
4, 47999, Note_on_c, 1, 63, 0
4, 48000, Note_on_c, 1, 54, 64
4, 48023, Note_on_c, 1, 54, 0
4, 48024, Note_on_c, 1, 64, 64
4, 48047, Note_on_c, 1, 64, 0
4, 48048, Note_on_c, 1, 58, 64
4, 48071, Note_on_c, 1, 58, 0
4, 48072, Note_on_c, 1, 64, 64
4, 48095, Note_on_c, 1, 64, 0
4, 48096, Note_on_c, 1, 54, 64
4, 48119, Note_on_c, 1, 54, 0
4, 48120, Note_on_c, 1, 64, 64
4, 48143, Note_on_c, 1, 64, 0
4, 48144, Note_on_c, 1, 58, 64
4, 48167, Note_on_c, 1, 58, 0
4, 48168, Note_on_c, 1, 64, 64
4, 48191, Note_on_c, 1, 64, 0
4, 48192, Note_on_c, 1, 54, 64
4, 48215, Note_on_c, 1, 54, 0
4, 48216, Note_on_c, 1, 64, 64
4, 48239, Note_on_c, 1, 64, 0
4, 48240, Note_on_c, 1, 58, 64
4, 48263, Note_on_c, 1, 58, 0
4, 48264, Note_on_c, 1, 64, 64
4, 48287, Note_on_c, 1, 64, 0
4, 48288, Note_on_c, 1, 54, 64
4, 48311, Note_on_c, 1, 54, 0
4, 48312, Note_on_c, 1, 64, 64
4, 48335, Note_on_c, 1, 64, 0
4, 48336, Note_on_c, 1, 58, 64
4, 48359, Note_on_c, 1, 58, 0
4, 48360, Note_on_c, 1, 64, 64
4, 48383, Note_on_c, 1, 64, 0
4, 48384, Note_on_c, 1, 54, 64
4, 48407, Note_on_c, 1, 54, 0
4, 48408, Note_on_c, 1, 62, 64
4, 48431, Note_on_c, 1, 62, 0
4, 48432, Note_on_c, 1, 59, 64
4, 48455, Note_on_c, 1, 59, 0
4, 48456, Note_on_c, 1, 62, 64
4, 48479, Note_on_c, 1, 62, 0
4, 48480, Note_on_c, 1, 54, 64
4, 48503, Note_on_c, 1, 54, 0
4, 48504, Note_on_c, 1, 62, 64
4, 48527, Note_on_c, 1, 62, 0
4, 48528, Note_on_c, 1, 59, 64
4, 48551, Note_on_c, 1, 59, 0
4, 48552, Note_on_c, 1, 62, 64
4, 48575, Note_on_c, 1, 62, 0
4, 48576, Note_on_c, 1, 54, 64
4, 48599, Note_on_c, 1, 54, 0
4, 48600, Note_on_c, 1, 62, 64
4, 48623, Note_on_c, 1, 62, 0
4, 48624, Note_on_c, 1, 59, 64
4, 48647, Note_on_c, 1, 59, 0
4, 48648, Note_on_c, 1, 62, 64
4, 48671, Note_on_c, 1, 62, 0
4, 48672, Note_on_c, 1, 54, 64
4, 48695, Note_on_c, 1, 54, 0
4, 48696, Note_on_c, 1, 62, 64
4, 48719, Note_on_c, 1, 62, 0
4, 48720, Note_on_c, 1, 59, 64
4, 48743, Note_on_c, 1, 59, 0
4, 48744, Note_on_c, 1, 62, 64
4, 48767, Note_on_c, 1, 62, 0
4, 48768, Note_on_c, 1, 55, 64
4, 48791, Note_on_c, 1, 55, 0
4, 48792, Note_on_c, 1, 62, 65
4, 48815, Note_on_c, 1, 62, 0
4, 48816, Note_on_c, 1, 59, 66
4, 48839, Note_on_c, 1, 59, 0
4, 48840, Note_on_c, 1, 62, 68
4, 48863, Note_on_c, 1, 62, 0
4, 48864, Note_on_c, 1, 55, 69
4, 48887, Note_on_c, 1, 55, 0
4, 48888, Note_on_c, 1, 62, 70
4, 48911, Note_on_c, 1, 62, 0
4, 48912, Note_on_c, 1, 59, 72
4, 48935, Note_on_c, 1, 59, 0
4, 48936, Note_on_c, 1, 62, 73
4, 48959, Note_on_c, 1, 62, 0
4, 48960, Note_on_c, 1, 43, 75
4, 48983, Note_on_c, 1, 43, 0
4, 48984, Note_on_c, 1, 50, 75
4, 49007, Note_on_c, 1, 50, 0
4, 49008, Note_on_c, 1, 47, 75
4, 49031, Note_on_c, 1, 47, 0
4, 49032, Note_on_c, 1, 50, 75
4, 49055, Note_on_c, 1, 50, 0
4, 49056, Note_on_c, 1, 43, 75
4, 49079, Note_on_c, 1, 43, 0
4, 49080, Note_on_c, 1, 50, 75
4, 49103, Note_on_c, 1, 50, 0
4, 49104, Note_on_c, 1, 47, 75
4, 49127, Note_on_c, 1, 47, 0
4, 49128, Note_on_c, 1, 50, 75
4, 49151, Note_on_c, 1, 50, 0
4, 49152, Note_on_c, 1, 41, 75
4, 49175, Note_on_c, 1, 41, 0
4, 49176, Note_on_c, 1, 50, 75
4, 49199, Note_on_c, 1, 50, 0
4, 49200, Note_on_c, 1, 47, 75
4, 49223, Note_on_c, 1, 47, 0
4, 49224, Note_on_c, 1, 50, 75
4, 49247, Note_on_c, 1, 50, 0
4, 49248, Note_on_c, 1, 41, 75
4, 49271, Note_on_c, 1, 41, 0
4, 49272, Note_on_c, 1, 50, 75
4, 49295, Note_on_c, 1, 50, 0
4, 49296, Note_on_c, 1, 47, 75
4, 49319, Note_on_c, 1, 47, 0
4, 49320, Note_on_c, 1, 50, 75
4, 49343, Note_on_c, 1, 50, 0
4, 49344, Note_on_c, 1, 41, 75
4, 49367, Note_on_c, 1, 41, 0
4, 49368, Note_on_c, 1, 50, 75
4, 49391, Note_on_c, 1, 50, 0
4, 49392, Note_on_c, 1, 47, 75
4, 49415, Note_on_c, 1, 47, 0
4, 49416, Note_on_c, 1, 50, 75
4, 49439, Note_on_c, 1, 50, 0
4, 49440, Note_on_c, 1, 41, 75
4, 49463, Note_on_c, 1, 41, 0
4, 49464, Note_on_c, 1, 50, 75
4, 49487, Note_on_c, 1, 50, 0
4, 49488, Note_on_c, 1, 47, 75
4, 49511, Note_on_c, 1, 47, 0
4, 49512, Note_on_c, 1, 50, 75
4, 49535, Note_on_c, 1, 50, 0
4, 49536, Note_on_c, 1, 52, 91
4, 49536, Note_on_c, 1, 47, 91
4, 49536, Note_on_c, 1, 44, 91
4, 49536, Note_on_c, 1, 40, 91
4, 49632, Note_on_c, 1, 52, 0
4, 49632, Note_on_c, 1, 47, 0
4, 49632, Note_on_c, 1, 44, 0
4, 49632, Note_on_c, 1, 40, 0
4, 49728, Note_on_c, 1, 59, 75
4, 49728, Note_on_c, 1, 56, 75
4, 49728, Note_on_c, 1, 52, 75
4, 49817, Note_on_c, 1, 59, 0
4, 49817, Note_on_c, 1, 56, 0
4, 49817, Note_on_c, 1, 52, 0
4, 49920, Note_on_c, 1, 52, 91
4, 49920, Note_on_c, 1, 48, 91
4, 49920, Note_on_c, 1, 45, 91
4, 49920, Note_on_c, 1, 40, 91
4, 50016, Note_on_c, 1, 52, 0
4, 50016, Note_on_c, 1, 48, 0
4, 50016, Note_on_c, 1, 45, 0
4, 50016, Note_on_c, 1, 40, 0
4, 50112, Note_on_c, 1, 60, 75
4, 50112, Note_on_c, 1, 57, 75
4, 50112, Note_on_c, 1, 52, 75
4, 50201, Note_on_c, 1, 60, 0
4, 50201, Note_on_c, 1, 57, 0
4, 50201, Note_on_c, 1, 52, 0
4, 50304, Note_on_c, 1, 40, 70
4, 50327, Note_on_c, 1, 40, 0
4, 50328, Note_on_c, 1, 43, 70
4, 50351, Note_on_c, 1, 43, 0
4, 50352, Note_on_c, 1, 41, 70
4, 50375, Note_on_c, 1, 41, 0
4, 50376, Note_on_c, 1, 43, 70
4, 50399, Note_on_c, 1, 43, 0
4, 50400, Note_on_c, 1, 40, 70
4, 50423, Note_on_c, 1, 40, 0
4, 50424, Note_on_c, 1, 43, 70
4, 50447, Note_on_c, 1, 43, 0
4, 50448, Note_on_c, 1, 41, 70
4, 50471, Note_on_c, 1, 41, 0
4, 50472, Note_on_c, 1, 43, 70
4, 50495, Note_on_c, 1, 43, 0
4, 50496, Note_on_c, 1, 41, 70
4, 50519, Note_on_c, 1, 41, 0
4, 50520, Note_on_c, 1, 48, 70
4, 50543, Note_on_c, 1, 48, 0
4, 50544, Note_on_c, 1, 45, 70
4, 50567, Note_on_c, 1, 45, 0
4, 50568, Note_on_c, 1, 48, 70
4, 50591, Note_on_c, 1, 48, 0
4, 50592, Note_on_c, 1, 41, 70
4, 50615, Note_on_c, 1, 41, 0
4, 50616, Note_on_c, 1, 48, 70
4, 50639, Note_on_c, 1, 48, 0
4, 50640, Note_on_c, 1, 45, 70
4, 50663, Note_on_c, 1, 45, 0
4, 50664, Note_on_c, 1, 48, 70
4, 50687, Note_on_c, 1, 48, 0
4, 50688, Note_on_c, 1, 36, 70
4, 50711, Note_on_c, 1, 36, 0
4, 50712, Note_on_c, 1, 48, 70
4, 50735, Note_on_c, 1, 48, 0
4, 50736, Note_on_c, 1, 36, 70
4, 50759, Note_on_c, 1, 36, 0
4, 50760, Note_on_c, 1, 48, 70
4, 50783, Note_on_c, 1, 48, 0
4, 50784, Note_on_c, 1, 36, 70
4, 50807, Note_on_c, 1, 36, 0
4, 50808, Note_on_c, 1, 48, 70
4, 50831, Note_on_c, 1, 48, 0
4, 50832, Note_on_c, 1, 36, 70
4, 50855, Note_on_c, 1, 36, 0
4, 50856, Note_on_c, 1, 48, 70
4, 50879, Note_on_c, 1, 48, 0
4, 50880, Note_on_c, 1, 35, 70
4, 50969, Note_on_c, 1, 35, 0
4, 51072, Note_on_c, 1, 54, 64
4, 51095, Note_on_c, 1, 54, 0
4, 51096, Note_on_c, 1, 63, 64
4, 51119, Note_on_c, 1, 63, 0
4, 51120, Note_on_c, 1, 59, 64
4, 51143, Note_on_c, 1, 59, 0
4, 51144, Note_on_c, 1, 63, 64
4, 51167, Note_on_c, 1, 63, 0
4, 51168, Note_on_c, 1, 54, 64
4, 51191, Note_on_c, 1, 54, 0
4, 51192, Note_on_c, 1, 63, 64
4, 51215, Note_on_c, 1, 63, 0
4, 51216, Note_on_c, 1, 59, 64
4, 51239, Note_on_c, 1, 59, 0
4, 51240, Note_on_c, 1, 63, 64
4, 51263, Note_on_c, 1, 63, 0
4, 51264, Note_on_c, 1, 54, 64
4, 51287, Note_on_c, 1, 54, 0
4, 51288, Note_on_c, 1, 64, 64
4, 51311, Note_on_c, 1, 64, 0
4, 51312, Note_on_c, 1, 61, 64
4, 51335, Note_on_c, 1, 61, 0
4, 51336, Note_on_c, 1, 64, 64
4, 51359, Note_on_c, 1, 64, 0
4, 51360, Note_on_c, 1, 54, 64
4, 51383, Note_on_c, 1, 54, 0
4, 51384, Note_on_c, 1, 64, 64
4, 51407, Note_on_c, 1, 64, 0
4, 51408, Note_on_c, 1, 61, 64
4, 51431, Note_on_c, 1, 61, 0
4, 51432, Note_on_c, 1, 64, 64
4, 51455, Note_on_c, 1, 64, 0
4, 51456, Note_on_c, 1, 63, 64
4, 51456, Note_on_c, 1, 59, 64
4, 51545, Note_on_c, 1, 63, 0
4, 51545, Note_on_c, 1, 59, 0
4, 51744, Note_on_c, 1, 61, 75
4, 51744, Note_on_c, 1, 54, 75
4, 51833, Note_on_c, 1, 61, 0
4, 51833, Note_on_c, 1, 54, 0
4, 51840, Note_on_c, 1, 63, 75
4, 51840, Note_on_c, 1, 59, 75
4, 52017, Note_on_c, 1, 63, 0
4, 52017, Note_on_c, 1, 59, 0
4, 52032, Note_on_c, 1, 54, 80
4, 52062, Note_on_c, 1, 54, 0
4, 52064, Note_on_c, 1, 51, 80
4, 52094, Note_on_c, 1, 51, 0
4, 52096, Note_on_c, 1, 47, 80
4, 52126, Note_on_c, 1, 47, 0
4, 52128, Note_on_c, 1, 52, 80
4, 52158, Note_on_c, 1, 52, 0
4, 52160, Note_on_c, 1, 49, 80
4, 52190, Note_on_c, 1, 49, 0
4, 52192, Note_on_c, 1, 46, 80
4, 52222, Note_on_c, 1, 46, 0
4, 52224, Note_on_c, 1, 47, 80
4, 52263, Note_on_c, 1, 47, 0
4, 52320, Note_on_c, 1, 47, 80
4, 52359, Note_on_c, 1, 47, 0
4, 52416, Note_on_c, 1, 47, 80
4, 52505, Note_on_c, 1, 47, 0
4, 52608, Note_on_c, 1, 47, 0
4, 52697, Note_on_c, 1, 47, 0
4, 52704, End_track
5, 0, Start_track
5, 0, Program_c, 1, 0
5, 0, Control_c, 1, 7, 127
5, 0, Control_c, 1, 10, 64
5, 8064, Note_on_c, 1, 50, 64
5, 8064, Note_on_c, 1, 47, 64
5, 8064, Note_on_c, 1, 43, 64
5, 8256, Note_on_c, 1, 50, 0
5, 8256, Note_on_c, 1, 47, 0
5, 8256, Note_on_c, 1, 43, 0
5, 8256, Note_on_c, 1, 49, 64
5, 8256, Note_on_c, 1, 42, 64
5, 8345, Note_on_c, 1, 49, 0
5, 8345, Note_on_c, 1, 42, 0
5, 18048, Note_on_c, 1, 50, 64
5, 18048, Note_on_c, 1, 47, 64
5, 18048, Note_on_c, 1, 43, 64
5, 18240, Note_on_c, 1, 50, 0
5, 18240, Note_on_c, 1, 47, 0
5, 18240, Note_on_c, 1, 43, 0
5, 18240, Note_on_c, 1, 49, 64
5, 18240, Note_on_c, 1, 42, 64
5, 18329, Note_on_c, 1, 49, 0
5, 18329, Note_on_c, 1, 42, 0
5, 24000, Note_on_c, 1, 48, 64
5, 24089, Note_on_c, 1, 48, 0
5, 24096, Note_on_c, 1, 49, 64
5, 24185, Note_on_c, 1, 49, 0
5, 24192, Note_on_c, 1, 50, 64
5, 24281, Note_on_c, 1, 50, 0
5, 40320, Note_on_c, 1, 48, 64
5, 40409, Note_on_c, 1, 48, 0
5, 40416, Note_on_c, 1, 49, 64
5, 40505, Note_on_c, 1, 49, 0
5, 40512, Note_on_c, 1, 50, 64
5, 40601, Note_on_c, 1, 50, 0
5, 52608, End_track
6, 0, Start_track
6, 0, Title_t, "Sonata I   Haydn  "
6, 0, End_track
0, 0, End_of_file
