0, 0, Header, 1, 6, 96
1, 0, Start_track
1, 0, Copyright_t, "Copyright  2000 <copyright holder>"
1, 0, Text_t, "Sonata III\015\012"
1, 0, Text_t, "<composer>\015\012"
1, 0, Sequencer_specific, 16, 68, 87, 77, 90, 86, 82, 83, 78, 32, 55, 46, 48, 46, 56, 46, 48
1, 0, Time_signature, 3, 2, 24, 8
1, 0, Tempo, 413793
1, 0, Key_signature, -3, "major"
1, 78048, Tempo, 857142
1, 78624, End_track
2, 0, Start_track
2, 0, Program_c, 0, 0
2, 0, Control_c, 0, 7, 127
2, 0, Control_c, 0, 10, 64
2, 48, Note_on_c, 0, 70, 75
2, 93, Note_on_c, 0, 70, 0
2, 96, Note_on_c, 0, 70, 75
2, 144, Note_on_c, 0, 70, 0
2, 144, Note_on_c, 0, 75, 75
2, 189, Note_on_c, 0, 75, 0
2, 192, Note_on_c, 0, 75, 75
2, 240, Note_on_c, 0, 75, 0
2, 240, Note_on_c, 0, 74, 75
2, 285, Note_on_c, 0, 74, 0
2, 336, Note_on_c, 0, 72, 75
2, 381, Note_on_c, 0, 72, 0
2, 432, Note_on_c, 0, 70, 75
2, 477, Note_on_c, 0, 70, 0
2, 528, Note_on_c, 0, 68, 75
2, 573, Note_on_c, 0, 68, 0
2, 624, Note_on_c, 0, 67, 75
2, 669, Note_on_c, 0, 67, 0
2, 672, Note_on_c, 0, 70, 75
2, 720, Note_on_c, 0, 70, 0
2, 720, Note_on_c, 0, 75, 75
2, 765, Note_on_c, 0, 75, 0
2, 768, Note_on_c, 0, 75, 75
2, 816, Note_on_c, 0, 75, 0
2, 816, Note_on_c, 0, 74, 75
2, 861, Note_on_c, 0, 74, 0
2, 888, Note_on_c, 0, 72, 75
2, 911, Note_on_c, 0, 72, 0
2, 912, Note_on_c, 0, 71, 75
2, 935, Note_on_c, 0, 71, 0
2, 936, Note_on_c, 0, 72, 75
2, 959, Note_on_c, 0, 72, 0
2, 984, Note_on_c, 0, 70, 75
2, 1007, Note_on_c, 0, 70, 0
2, 1008, Note_on_c, 0, 69, 75
2, 1031, Note_on_c, 0, 69, 0
2, 1032, Note_on_c, 0, 70, 75
2, 1055, Note_on_c, 0, 70, 0
2, 1080, Note_on_c, 0, 68, 75
2, 1103, Note_on_c, 0, 68, 0
2, 1104, Note_on_c, 0, 67, 75
2, 1127, Note_on_c, 0, 67, 0
2, 1128, Note_on_c, 0, 68, 75
2, 1151, Note_on_c, 0, 68, 0
2, 1176, Note_on_c, 0, 67, 75
2, 1199, Note_on_c, 0, 67, 0
2, 1200, Note_on_c, 0, 68, 75
2, 1223, Note_on_c, 0, 68, 0
2, 1224, Note_on_c, 0, 70, 75
2, 1247, Note_on_c, 0, 70, 0
2, 1248, Note_on_c, 0, 72, 75
2, 1271, Note_on_c, 0, 72, 0
2, 1272, Note_on_c, 0, 74, 75
2, 1295, Note_on_c, 0, 74, 0
2, 1296, Note_on_c, 0, 75, 75
2, 1319, Note_on_c, 0, 75, 0
2, 1320, Note_on_c, 0, 77, 75
2, 1343, Note_on_c, 0, 77, 0
2, 1344, Note_on_c, 0, 79, 75
2, 1367, Note_on_c, 0, 79, 0
2, 1368, Note_on_c, 0, 75, 75
2, 1391, Note_on_c, 0, 75, 0
2, 1392, Note_on_c, 0, 74, 75
2, 1415, Note_on_c, 0, 74, 0
2, 1416, Note_on_c, 0, 72, 75
2, 1439, Note_on_c, 0, 72, 0
2, 1440, Note_on_c, 0, 70, 75
2, 1617, Note_on_c, 0, 70, 0
2, 1632, Note_on_c, 0, 68, 75
2, 1645, Note_on_c, 0, 68, 0
2, 1646, Note_on_c, 0, 70, 75
2, 1659, Note_on_c, 0, 70, 0
2, 1660, Note_on_c, 0, 68, 75
2, 1673, Note_on_c, 0, 68, 0
2, 1674, Note_on_c, 0, 70, 75
2, 1687, Note_on_c, 0, 70, 0
2, 1688, Note_on_c, 0, 68, 75
2, 1701, Note_on_c, 0, 68, 0
2, 1702, Note_on_c, 0, 67, 75
2, 1714, Note_on_c, 0, 67, 0
2, 1715, Note_on_c, 0, 68, 75
2, 1727, Note_on_c, 0, 68, 0
2, 1728, Note_on_c, 0, 67, 75
2, 1751, Note_on_c, 0, 67, 0
2, 1752, Note_on_c, 0, 63, 75
2, 1775, Note_on_c, 0, 63, 0
2, 1776, Note_on_c, 0, 62, 75
2, 1799, Note_on_c, 0, 62, 0
2, 1800, Note_on_c, 0, 63, 75
2, 1823, Note_on_c, 0, 63, 0
2, 1824, Note_on_c, 0, 65, 75
2, 1847, Note_on_c, 0, 65, 0
2, 1848, Note_on_c, 0, 63, 75
2, 1871, Note_on_c, 0, 63, 0
2, 1872, Note_on_c, 0, 62, 75
2, 1895, Note_on_c, 0, 62, 0
2, 1896, Note_on_c, 0, 63, 75
2, 1919, Note_on_c, 0, 63, 0
2, 1920, Note_on_c, 0, 67, 75
2, 1943, Note_on_c, 0, 67, 0
2, 1944, Note_on_c, 0, 65, 75
2, 1967, Note_on_c, 0, 65, 0
2, 1968, Note_on_c, 0, 63, 75
2, 1991, Note_on_c, 0, 63, 0
2, 1992, Note_on_c, 0, 62, 75
2, 2015, Note_on_c, 0, 62, 0
2, 2016, Note_on_c, 0, 60, 75
2, 2039, Note_on_c, 0, 60, 0
2, 2040, Note_on_c, 0, 68, 75
2, 2063, Note_on_c, 0, 68, 0
2, 2064, Note_on_c, 0, 72, 75
2, 2087, Note_on_c, 0, 72, 0
2, 2088, Note_on_c, 0, 70, 75
2, 2111, Note_on_c, 0, 70, 0
2, 2112, Note_on_c, 0, 68, 75
2, 2135, Note_on_c, 0, 68, 0
2, 2136, Note_on_c, 0, 67, 75
2, 2159, Note_on_c, 0, 67, 0
2, 2160, Note_on_c, 0, 65, 75
2, 2183, Note_on_c, 0, 65, 0
2, 2184, Note_on_c, 0, 63, 75
2, 2207, Note_on_c, 0, 63, 0
2, 2208, Note_on_c, 0, 62, 75
2, 2231, Note_on_c, 0, 62, 0
2, 2232, Note_on_c, 0, 60, 75
2, 2255, Note_on_c, 0, 60, 0
2, 2256, Note_on_c, 0, 58, 75
2, 2279, Note_on_c, 0, 58, 0
2, 2280, Note_on_c, 0, 56, 75
2, 2303, Note_on_c, 0, 56, 0
2, 2304, Note_on_c, 0, 55, 75
2, 2327, Note_on_c, 0, 55, 0
2, 2328, Note_on_c, 0, 63, 75
2, 2351, Note_on_c, 0, 63, 0
2, 2352, Note_on_c, 0, 62, 75
2, 2375, Note_on_c, 0, 62, 0
2, 2376, Note_on_c, 0, 63, 75
2, 2399, Note_on_c, 0, 63, 0
2, 2400, Note_on_c, 0, 65, 75
2, 2423, Note_on_c, 0, 65, 0
2, 2424, Note_on_c, 0, 63, 75
2, 2447, Note_on_c, 0, 63, 0
2, 2448, Note_on_c, 0, 62, 75
2, 2471, Note_on_c, 0, 62, 0
2, 2472, Note_on_c, 0, 63, 75
2, 2495, Note_on_c, 0, 63, 0
2, 2496, Note_on_c, 0, 67, 75
2, 2519, Note_on_c, 0, 67, 0
2, 2520, Note_on_c, 0, 65, 75
2, 2543, Note_on_c, 0, 65, 0
2, 2544, Note_on_c, 0, 63, 75
2, 2567, Note_on_c, 0, 63, 0
2, 2568, Note_on_c, 0, 62, 75
2, 2591, Note_on_c, 0, 62, 0
2, 2592, Note_on_c, 0, 60, 75
2, 2615, Note_on_c, 0, 60, 0
2, 2616, Note_on_c, 0, 68, 75
2, 2639, Note_on_c, 0, 68, 0
2, 2640, Note_on_c, 0, 72, 75
2, 2663, Note_on_c, 0, 72, 0
2, 2664, Note_on_c, 0, 70, 75
2, 2687, Note_on_c, 0, 70, 0
2, 2688, Note_on_c, 0, 68, 75
2, 2711, Note_on_c, 0, 68, 0
2, 2712, Note_on_c, 0, 67, 75
2, 2735, Note_on_c, 0, 67, 0
2, 2736, Note_on_c, 0, 65, 75
2, 2759, Note_on_c, 0, 65, 0
2, 2760, Note_on_c, 0, 63, 75
2, 2783, Note_on_c, 0, 63, 0
2, 2784, Note_on_c, 0, 62, 75
2, 2807, Note_on_c, 0, 62, 0
2, 2808, Note_on_c, 0, 60, 75
2, 2831, Note_on_c, 0, 60, 0
2, 2832, Note_on_c, 0, 58, 75
2, 2855, Note_on_c, 0, 58, 0
2, 2856, Note_on_c, 0, 56, 75
2, 2879, Note_on_c, 0, 56, 0
2, 2880, Note_on_c, 0, 55, 75
2, 2925, Note_on_c, 0, 55, 0
2, 3216, Note_on_c, 0, 67, 75
2, 3264, Note_on_c, 0, 67, 0
2, 3264, Note_on_c, 0, 79, 75
2, 3309, Note_on_c, 0, 79, 0
2, 3312, Note_on_c, 0, 79, 75
2, 3357, Note_on_c, 0, 79, 0
2, 3360, Note_on_c, 0, 71, 75
2, 3408, Note_on_c, 0, 71, 0
2, 3408, Note_on_c, 0, 72, 75
2, 3453, Note_on_c, 0, 72, 0
2, 3504, Note_on_c, 0, 65, 75
2, 3552, Note_on_c, 0, 65, 0
2, 3552, Note_on_c, 0, 77, 75
2, 3597, Note_on_c, 0, 77, 0
2, 3600, Note_on_c, 0, 77, 75
2, 3645, Note_on_c, 0, 77, 0
2, 3648, Note_on_c, 0, 69, 75
2, 3696, Note_on_c, 0, 69, 0
2, 3696, Note_on_c, 0, 70, 75
2, 3741, Note_on_c, 0, 70, 0
2, 3768, Note_on_c, 0, 67, 75
2, 3791, Note_on_c, 0, 67, 0
2, 3792, Note_on_c, 0, 74, 75
2, 3815, Note_on_c, 0, 74, 0
2, 3816, Note_on_c, 0, 71, 75
2, 3839, Note_on_c, 0, 71, 0
2, 3864, Note_on_c, 0, 67, 75
2, 3887, Note_on_c, 0, 67, 0
2, 3888, Note_on_c, 0, 75, 75
2, 3911, Note_on_c, 0, 75, 0
2, 3912, Note_on_c, 0, 72, 75
2, 3935, Note_on_c, 0, 72, 0
2, 3960, Note_on_c, 0, 67, 75
2, 3983, Note_on_c, 0, 67, 0
2, 3984, Note_on_c, 0, 79, 75
2, 4007, Note_on_c, 0, 79, 0
2, 4008, Note_on_c, 0, 75, 75
2, 4031, Note_on_c, 0, 75, 0
2, 4056, Note_on_c, 0, 65, 75
2, 4079, Note_on_c, 0, 65, 0
2, 4080, Note_on_c, 0, 72, 75
2, 4103, Note_on_c, 0, 72, 0
2, 4104, Note_on_c, 0, 69, 75
2, 4127, Note_on_c, 0, 69, 0
2, 4152, Note_on_c, 0, 65, 75
2, 4175, Note_on_c, 0, 65, 0
2, 4176, Note_on_c, 0, 74, 75
2, 4199, Note_on_c, 0, 74, 0
2, 4200, Note_on_c, 0, 70, 75
2, 4223, Note_on_c, 0, 70, 0
2, 4248, Note_on_c, 0, 65, 75
2, 4271, Note_on_c, 0, 65, 0
2, 4272, Note_on_c, 0, 77, 75
2, 4295, Note_on_c, 0, 77, 0
2, 4296, Note_on_c, 0, 74, 75
2, 4319, Note_on_c, 0, 74, 0
2, 4344, Note_on_c, 0, 65, 75
2, 4367, Note_on_c, 0, 65, 0
2, 4368, Note_on_c, 0, 72, 75
2, 4391, Note_on_c, 0, 72, 0
2, 4392, Note_on_c, 0, 75, 75
2, 4415, Note_on_c, 0, 75, 0
2, 4440, Note_on_c, 0, 65, 75
2, 4463, Note_on_c, 0, 65, 0
2, 4464, Note_on_c, 0, 72, 75
2, 4487, Note_on_c, 0, 72, 0
2, 4488, Note_on_c, 0, 75, 75
2, 4511, Note_on_c, 0, 75, 0
2, 4536, Note_on_c, 0, 65, 75
2, 4559, Note_on_c, 0, 65, 0
2, 4560, Note_on_c, 0, 70, 75
2, 4583, Note_on_c, 0, 70, 0
2, 4584, Note_on_c, 0, 74, 75
2, 4607, Note_on_c, 0, 74, 0
2, 4632, Note_on_c, 0, 65, 75
2, 4655, Note_on_c, 0, 65, 0
2, 4656, Note_on_c, 0, 72, 75
2, 4679, Note_on_c, 0, 72, 0
2, 4680, Note_on_c, 0, 75, 75
2, 4703, Note_on_c, 0, 75, 0
2, 4728, Note_on_c, 0, 65, 75
2, 4751, Note_on_c, 0, 65, 0
2, 4752, Note_on_c, 0, 72, 75
2, 4775, Note_on_c, 0, 72, 0
2, 4776, Note_on_c, 0, 75, 75
2, 4799, Note_on_c, 0, 75, 0
2, 4824, Note_on_c, 0, 65, 75
2, 4847, Note_on_c, 0, 65, 0
2, 4848, Note_on_c, 0, 70, 75
2, 4871, Note_on_c, 0, 70, 0
2, 4872, Note_on_c, 0, 74, 75
2, 4895, Note_on_c, 0, 74, 0
2, 4920, Note_on_c, 0, 65, 75
2, 4943, Note_on_c, 0, 65, 0
2, 4944, Note_on_c, 0, 72, 75
2, 4967, Note_on_c, 0, 72, 0
2, 4968, Note_on_c, 0, 75, 75
2, 4991, Note_on_c, 0, 75, 0
2, 5016, Note_on_c, 0, 65, 75
2, 5039, Note_on_c, 0, 65, 0
2, 5040, Note_on_c, 0, 72, 75
2, 5063, Note_on_c, 0, 72, 0
2, 5064, Note_on_c, 0, 75, 75
2, 5087, Note_on_c, 0, 75, 0
2, 5112, Note_on_c, 0, 65, 75
2, 5135, Note_on_c, 0, 65, 0
2, 5136, Note_on_c, 0, 74, 75
2, 5159, Note_on_c, 0, 74, 0
2, 5160, Note_on_c, 0, 77, 75
2, 5183, Note_on_c, 0, 77, 0
2, 5184, Note_on_c, 0, 75, 75
2, 5199, Note_on_c, 0, 75, 0
2, 5200, Note_on_c, 0, 74, 75
2, 5215, Note_on_c, 0, 74, 0
2, 5216, Note_on_c, 0, 75, 75
2, 5231, Note_on_c, 0, 75, 0
2, 5232, Note_on_c, 0, 74, 75
2, 5247, Note_on_c, 0, 74, 0
2, 5248, Note_on_c, 0, 72, 75
2, 5263, Note_on_c, 0, 72, 0
2, 5264, Note_on_c, 0, 74, 75
2, 5279, Note_on_c, 0, 74, 0
2, 5280, Note_on_c, 0, 72, 75
2, 5369, Note_on_c, 0, 72, 0
2, 5496, Note_on_c, 0, 58, 81
2, 5519, Note_on_c, 0, 58, 0
2, 5520, Note_on_c, 0, 58, 81
2, 5543, Note_on_c, 0, 58, 0
2, 5544, Note_on_c, 0, 58, 81
2, 5567, Note_on_c, 0, 58, 0
2, 5592, Note_on_c, 0, 62, 81
2, 5615, Note_on_c, 0, 62, 0
2, 5616, Note_on_c, 0, 62, 81
2, 5639, Note_on_c, 0, 62, 0
2, 5640, Note_on_c, 0, 62, 81
2, 5663, Note_on_c, 0, 62, 0
2, 5688, Note_on_c, 0, 65, 81
2, 5711, Note_on_c, 0, 65, 0
2, 5712, Note_on_c, 0, 65, 81
2, 5735, Note_on_c, 0, 65, 0
2, 5736, Note_on_c, 0, 65, 81
2, 5759, Note_on_c, 0, 65, 0
2, 5784, Note_on_c, 0, 70, 81
2, 5807, Note_on_c, 0, 70, 0
2, 5808, Note_on_c, 0, 69, 81
2, 5831, Note_on_c, 0, 69, 0
2, 5832, Note_on_c, 0, 70, 81
2, 5855, Note_on_c, 0, 70, 0
2, 5856, Note_on_c, 0, 74, 81
2, 5879, Note_on_c, 0, 74, 0
2, 5880, Note_on_c, 0, 70, 81
2, 5903, Note_on_c, 0, 70, 0
2, 5904, Note_on_c, 0, 69, 81
2, 5927, Note_on_c, 0, 69, 0
2, 5928, Note_on_c, 0, 67, 81
2, 5951, Note_on_c, 0, 67, 0
2, 5952, Note_on_c, 0, 65, 81
2, 5975, Note_on_c, 0, 65, 0
2, 5976, Note_on_c, 0, 63, 81
2, 5999, Note_on_c, 0, 63, 0
2, 6000, Note_on_c, 0, 62, 81
2, 6023, Note_on_c, 0, 62, 0
2, 6024, Note_on_c, 0, 60, 81
2, 6047, Note_on_c, 0, 60, 0
2, 6048, Note_on_c, 0, 58, 81
2, 6071, Note_on_c, 0, 58, 0
2, 6072, Note_on_c, 0, 58, 81
2, 6095, Note_on_c, 0, 58, 0
2, 6096, Note_on_c, 0, 58, 81
2, 6119, Note_on_c, 0, 58, 0
2, 6120, Note_on_c, 0, 58, 81
2, 6143, Note_on_c, 0, 58, 0
2, 6168, Note_on_c, 0, 62, 81
2, 6191, Note_on_c, 0, 62, 0
2, 6192, Note_on_c, 0, 62, 81
2, 6215, Note_on_c, 0, 62, 0
2, 6216, Note_on_c, 0, 62, 81
2, 6239, Note_on_c, 0, 62, 0
2, 6264, Note_on_c, 0, 65, 81
2, 6287, Note_on_c, 0, 65, 0
2, 6288, Note_on_c, 0, 65, 81
2, 6311, Note_on_c, 0, 65, 0
2, 6312, Note_on_c, 0, 65, 81
2, 6335, Note_on_c, 0, 65, 0
2, 6360, Note_on_c, 0, 70, 81
2, 6383, Note_on_c, 0, 70, 0
2, 6384, Note_on_c, 0, 69, 81
2, 6407, Note_on_c, 0, 69, 0
2, 6408, Note_on_c, 0, 70, 81
2, 6431, Note_on_c, 0, 70, 0
2, 6432, Note_on_c, 0, 74, 81
2, 6455, Note_on_c, 0, 74, 0
2, 6456, Note_on_c, 0, 72, 81
2, 6479, Note_on_c, 0, 72, 0
2, 6480, Note_on_c, 0, 70, 81
2, 6503, Note_on_c, 0, 70, 0
2, 6504, Note_on_c, 0, 69, 81
2, 6527, Note_on_c, 0, 69, 0
2, 6528, Note_on_c, 0, 67, 81
2, 6551, Note_on_c, 0, 67, 0
2, 6552, Note_on_c, 0, 65, 81
2, 6575, Note_on_c, 0, 65, 0
2, 6576, Note_on_c, 0, 63, 81
2, 6599, Note_on_c, 0, 63, 0
2, 6600, Note_on_c, 0, 62, 81
2, 6623, Note_on_c, 0, 62, 0
2, 6624, Note_on_c, 0, 60, 81
2, 6647, Note_on_c, 0, 60, 0
2, 6648, Note_on_c, 0, 75, 81
2, 6671, Note_on_c, 0, 75, 0
2, 6672, Note_on_c, 0, 74, 81
2, 6695, Note_on_c, 0, 74, 0
2, 6696, Note_on_c, 0, 75, 81
2, 6719, Note_on_c, 0, 75, 0
2, 6720, Note_on_c, 0, 79, 81
2, 6743, Note_on_c, 0, 79, 0
2, 6744, Note_on_c, 0, 77, 81
2, 6767, Note_on_c, 0, 77, 0
2, 6768, Note_on_c, 0, 75, 81
2, 6791, Note_on_c, 0, 75, 0
2, 6792, Note_on_c, 0, 74, 81
2, 6815, Note_on_c, 0, 74, 0
2, 6816, Note_on_c, 0, 72, 81
2, 6839, Note_on_c, 0, 72, 0
2, 6840, Note_on_c, 0, 70, 81
2, 6863, Note_on_c, 0, 70, 0
2, 6864, Note_on_c, 0, 69, 81
2, 6887, Note_on_c, 0, 69, 0
2, 6888, Note_on_c, 0, 67, 81
2, 6911, Note_on_c, 0, 67, 0
2, 6912, Note_on_c, 0, 65, 81
2, 6935, Note_on_c, 0, 65, 0
2, 6936, Note_on_c, 0, 69, 80
2, 6959, Note_on_c, 0, 69, 0
2, 6960, Note_on_c, 0, 69, 80
2, 6983, Note_on_c, 0, 69, 0
2, 6984, Note_on_c, 0, 69, 80
2, 7007, Note_on_c, 0, 69, 0
2, 7008, Note_on_c, 0, 72, 80
2, 7031, Note_on_c, 0, 72, 0
2, 7032, Note_on_c, 0, 69, 80
2, 7055, Note_on_c, 0, 69, 0
2, 7056, Note_on_c, 0, 72, 80
2, 7079, Note_on_c, 0, 72, 0
2, 7080, Note_on_c, 0, 69, 79
2, 7103, Note_on_c, 0, 69, 0
2, 7128, Note_on_c, 0, 69, 79
2, 7151, Note_on_c, 0, 69, 0
2, 7152, Note_on_c, 0, 69, 79
2, 7175, Note_on_c, 0, 69, 0
2, 7176, Note_on_c, 0, 69, 79
2, 7199, Note_on_c, 0, 69, 0
2, 7224, Note_on_c, 0, 70, 78
2, 7247, Note_on_c, 0, 70, 0
2, 7248, Note_on_c, 0, 70, 78
2, 7271, Note_on_c, 0, 70, 0
2, 7272, Note_on_c, 0, 70, 78
2, 7295, Note_on_c, 0, 70, 0
2, 7296, Note_on_c, 0, 74, 78
2, 7319, Note_on_c, 0, 74, 0
2, 7320, Note_on_c, 0, 70, 78
2, 7343, Note_on_c, 0, 70, 0
2, 7344, Note_on_c, 0, 74, 78
2, 7367, Note_on_c, 0, 74, 0
2, 7368, Note_on_c, 0, 70, 77
2, 7391, Note_on_c, 0, 70, 0
2, 7416, Note_on_c, 0, 70, 77
2, 7439, Note_on_c, 0, 70, 0
2, 7440, Note_on_c, 0, 70, 77
2, 7463, Note_on_c, 0, 70, 0
2, 7464, Note_on_c, 0, 70, 77
2, 7487, Note_on_c, 0, 70, 0
2, 7512, Note_on_c, 0, 72, 76
2, 7535, Note_on_c, 0, 72, 0
2, 7536, Note_on_c, 0, 72, 76
2, 7559, Note_on_c, 0, 72, 0
2, 7560, Note_on_c, 0, 72, 76
2, 7583, Note_on_c, 0, 72, 0
2, 7584, Note_on_c, 0, 75, 76
2, 7607, Note_on_c, 0, 75, 0
2, 7608, Note_on_c, 0, 72, 76
2, 7631, Note_on_c, 0, 72, 0
2, 7632, Note_on_c, 0, 75, 76
2, 7655, Note_on_c, 0, 75, 0
2, 7656, Note_on_c, 0, 72, 75
2, 7679, Note_on_c, 0, 72, 0
2, 7704, Note_on_c, 0, 72, 75
2, 7727, Note_on_c, 0, 72, 0
2, 7728, Note_on_c, 0, 72, 75
2, 7751, Note_on_c, 0, 72, 0
2, 7752, Note_on_c, 0, 72, 75
2, 7775, Note_on_c, 0, 72, 0
2, 7776, Note_on_c, 0, 70, 75
2, 7799, Note_on_c, 0, 70, 0
2, 7800, Note_on_c, 0, 74, 75
2, 7823, Note_on_c, 0, 74, 0
2, 7824, Note_on_c, 0, 69, 75
2, 7847, Note_on_c, 0, 69, 0
2, 7848, Note_on_c, 0, 72, 75
2, 7871, Note_on_c, 0, 72, 0
2, 7872, Note_on_c, 0, 67, 75
2, 7895, Note_on_c, 0, 67, 0
2, 7896, Note_on_c, 0, 70, 75
2, 7919, Note_on_c, 0, 70, 0
2, 7920, Note_on_c, 0, 65, 75
2, 7943, Note_on_c, 0, 65, 0
2, 7944, Note_on_c, 0, 69, 75
2, 7967, Note_on_c, 0, 69, 0
2, 7968, Note_on_c, 0, 63, 81
2, 7991, Note_on_c, 0, 63, 0
2, 7992, Note_on_c, 0, 67, 79
2, 8015, Note_on_c, 0, 67, 0
2, 8016, Note_on_c, 0, 62, 77
2, 8039, Note_on_c, 0, 62, 0
2, 8040, Note_on_c, 0, 65, 75
2, 8063, Note_on_c, 0, 65, 0
2, 8064, Note_on_c, 0, 70, 73
2, 8087, Note_on_c, 0, 70, 0
2, 8088, Note_on_c, 0, 74, 71
2, 8111, Note_on_c, 0, 74, 0
2, 8112, Note_on_c, 0, 69, 70
2, 8135, Note_on_c, 0, 69, 0
2, 8136, Note_on_c, 0, 72, 70
2, 8159, Note_on_c, 0, 72, 0
2, 8160, Note_on_c, 0, 67, 70
2, 8183, Note_on_c, 0, 67, 0
2, 8184, Note_on_c, 0, 70, 70
2, 8207, Note_on_c, 0, 70, 0
2, 8208, Note_on_c, 0, 65, 70
2, 8231, Note_on_c, 0, 65, 0
2, 8232, Note_on_c, 0, 69, 70
2, 8255, Note_on_c, 0, 69, 0
2, 8256, Note_on_c, 0, 63, 70
2, 8279, Note_on_c, 0, 63, 0
2, 8280, Note_on_c, 0, 67, 70
2, 8303, Note_on_c, 0, 67, 0
2, 8304, Note_on_c, 0, 62, 70
2, 8327, Note_on_c, 0, 62, 0
2, 8328, Note_on_c, 0, 65, 70
2, 8351, Note_on_c, 0, 65, 0
2, 8376, Note_on_c, 0, 67, 75
2, 8399, Note_on_c, 0, 67, 0
2, 8400, Note_on_c, 0, 69, 75
2, 8423, Note_on_c, 0, 69, 0
2, 8424, Note_on_c, 0, 71, 75
2, 8447, Note_on_c, 0, 71, 0
2, 8448, Note_on_c, 0, 72, 75
2, 8471, Note_on_c, 0, 72, 0
2, 8472, Note_on_c, 0, 74, 75
2, 8495, Note_on_c, 0, 74, 0
2, 8496, Note_on_c, 0, 75, 75
2, 8519, Note_on_c, 0, 75, 0
2, 8520, Note_on_c, 0, 77, 75
2, 8543, Note_on_c, 0, 77, 0
2, 8544, Note_on_c, 0, 79, 75
2, 8589, Note_on_c, 0, 79, 0
2, 8664, Note_on_c, 0, 65, 75
2, 8687, Note_on_c, 0, 65, 0
2, 8688, Note_on_c, 0, 67, 75
2, 8711, Note_on_c, 0, 67, 0
2, 8712, Note_on_c, 0, 69, 75
2, 8735, Note_on_c, 0, 69, 0
2, 8736, Note_on_c, 0, 70, 75
2, 8759, Note_on_c, 0, 70, 0
2, 8760, Note_on_c, 0, 72, 75
2, 8783, Note_on_c, 0, 72, 0
2, 8784, Note_on_c, 0, 74, 75
2, 8807, Note_on_c, 0, 74, 0
2, 8808, Note_on_c, 0, 75, 75
2, 8831, Note_on_c, 0, 75, 0
2, 8832, Note_on_c, 0, 77, 75
2, 8877, Note_on_c, 0, 77, 0
2, 8952, Note_on_c, 0, 67, 70
2, 8975, Note_on_c, 0, 67, 0
2, 8976, Note_on_c, 0, 69, 70
2, 8999, Note_on_c, 0, 69, 0
2, 9000, Note_on_c, 0, 71, 70
2, 9023, Note_on_c, 0, 71, 0
2, 9024, Note_on_c, 0, 72, 70
2, 9047, Note_on_c, 0, 72, 0
2, 9048, Note_on_c, 0, 74, 70
2, 9071, Note_on_c, 0, 74, 0
2, 9072, Note_on_c, 0, 75, 70
2, 9095, Note_on_c, 0, 75, 0
2, 9096, Note_on_c, 0, 77, 70
2, 9119, Note_on_c, 0, 77, 0
2, 9120, Note_on_c, 0, 79, 70
2, 9165, Note_on_c, 0, 79, 0
2, 9240, Note_on_c, 0, 65, 70
2, 9263, Note_on_c, 0, 65, 0
2, 9264, Note_on_c, 0, 67, 70
2, 9287, Note_on_c, 0, 67, 0
2, 9288, Note_on_c, 0, 69, 70
2, 9311, Note_on_c, 0, 69, 0
2, 9312, Note_on_c, 0, 70, 70
2, 9335, Note_on_c, 0, 70, 0
2, 9336, Note_on_c, 0, 72, 70
2, 9359, Note_on_c, 0, 72, 0
2, 9360, Note_on_c, 0, 74, 70
2, 9383, Note_on_c, 0, 74, 0
2, 9384, Note_on_c, 0, 75, 70
2, 9407, Note_on_c, 0, 75, 0
2, 9408, Note_on_c, 0, 77, 70
2, 9431, Note_on_c, 0, 77, 0
2, 9432, Note_on_c, 0, 79, 70
2, 9455, Note_on_c, 0, 79, 0
2, 9456, Note_on_c, 0, 81, 70
2, 9479, Note_on_c, 0, 81, 0
2, 9480, Note_on_c, 0, 82, 70
2, 9492, Note_on_c, 0, 82, 0
2, 9492, Note_on_c, 0, 84, 70
2, 9504, Note_on_c, 0, 84, 0
2, 9504, Note_on_c, 0, 86, 86
2, 9524, Note_on_c, 0, 86, 0
2, 9792, Note_on_c, 0, 72, 75
2, 9815, Note_on_c, 0, 72, 0
2, 9816, Note_on_c, 0, 76, 75
2, 9839, Note_on_c, 0, 76, 0
2, 9840, Note_on_c, 0, 79, 75
2, 9863, Note_on_c, 0, 79, 0
2, 9864, Note_on_c, 0, 77, 75
2, 9887, Note_on_c, 0, 77, 0
2, 9888, Note_on_c, 0, 76, 75
2, 9911, Note_on_c, 0, 76, 0
2, 9912, Note_on_c, 0, 74, 75
2, 9935, Note_on_c, 0, 74, 0
2, 9936, Note_on_c, 0, 72, 75
2, 9959, Note_on_c, 0, 72, 0
2, 9960, Note_on_c, 0, 74, 75
2, 9983, Note_on_c, 0, 74, 0
2, 9984, Note_on_c, 0, 72, 75
2, 10007, Note_on_c, 0, 72, 0
2, 10008, Note_on_c, 0, 74, 75
2, 10031, Note_on_c, 0, 74, 0
2, 10032, Note_on_c, 0, 72, 75
2, 10055, Note_on_c, 0, 72, 0
2, 10056, Note_on_c, 0, 74, 75
2, 10079, Note_on_c, 0, 74, 0
2, 10080, Note_on_c, 0, 72, 75
2, 10103, Note_on_c, 0, 72, 0
2, 10104, Note_on_c, 0, 76, 75
2, 10127, Note_on_c, 0, 76, 0
2, 10128, Note_on_c, 0, 77, 75
2, 10151, Note_on_c, 0, 77, 0
2, 10152, Note_on_c, 0, 76, 75
2, 10175, Note_on_c, 0, 76, 0
2, 10176, Note_on_c, 0, 74, 75
2, 10199, Note_on_c, 0, 74, 0
2, 10200, Note_on_c, 0, 72, 75
2, 10223, Note_on_c, 0, 72, 0
2, 10224, Note_on_c, 0, 70, 75
2, 10247, Note_on_c, 0, 70, 0
2, 10248, Note_on_c, 0, 69, 75
2, 10271, Note_on_c, 0, 69, 0
2, 10272, Note_on_c, 0, 67, 75
2, 10295, Note_on_c, 0, 67, 0
2, 10296, Note_on_c, 0, 65, 75
2, 10319, Note_on_c, 0, 65, 0
2, 10320, Note_on_c, 0, 64, 75
2, 10343, Note_on_c, 0, 64, 0
2, 10344, Note_on_c, 0, 62, 75
2, 10367, Note_on_c, 0, 62, 0
2, 10368, Note_on_c, 0, 60, 75
2, 10391, Note_on_c, 0, 60, 0
2, 10392, Note_on_c, 0, 64, 75
2, 10415, Note_on_c, 0, 64, 0
2, 10416, Note_on_c, 0, 67, 75
2, 10439, Note_on_c, 0, 67, 0
2, 10440, Note_on_c, 0, 65, 75
2, 10463, Note_on_c, 0, 65, 0
2, 10464, Note_on_c, 0, 64, 75
2, 10487, Note_on_c, 0, 64, 0
2, 10488, Note_on_c, 0, 62, 75
2, 10511, Note_on_c, 0, 62, 0
2, 10512, Note_on_c, 0, 60, 75
2, 10535, Note_on_c, 0, 60, 0
2, 10536, Note_on_c, 0, 62, 75
2, 10559, Note_on_c, 0, 62, 0
2, 10560, Note_on_c, 0, 60, 75
2, 10583, Note_on_c, 0, 60, 0
2, 10584, Note_on_c, 0, 62, 75
2, 10607, Note_on_c, 0, 62, 0
2, 10608, Note_on_c, 0, 60, 75
2, 10631, Note_on_c, 0, 60, 0
2, 10632, Note_on_c, 0, 62, 75
2, 10655, Note_on_c, 0, 62, 0
2, 10656, Note_on_c, 0, 60, 75
2, 10679, Note_on_c, 0, 60, 0
2, 10680, Note_on_c, 0, 65, 75
2, 10703, Note_on_c, 0, 65, 0
2, 10704, Note_on_c, 0, 64, 75
2, 10727, Note_on_c, 0, 64, 0
2, 10728, Note_on_c, 0, 62, 75
2, 10751, Note_on_c, 0, 62, 0
2, 10752, Note_on_c, 0, 60, 75
2, 10775, Note_on_c, 0, 60, 0
2, 10776, Note_on_c, 0, 58, 75
2, 10799, Note_on_c, 0, 58, 0
2, 10800, Note_on_c, 0, 57, 75
2, 10823, Note_on_c, 0, 57, 0
2, 10824, Note_on_c, 0, 55, 75
2, 10847, Note_on_c, 0, 55, 0
2, 10848, Note_on_c, 0, 53, 75
2, 10871, Note_on_c, 0, 53, 0
2, 10872, Note_on_c, 0, 55, 75
2, 10895, Note_on_c, 0, 55, 0
2, 10896, Note_on_c, 0, 57, 75
2, 10919, Note_on_c, 0, 57, 0
2, 10920, Note_on_c, 0, 58, 75
2, 10943, Note_on_c, 0, 58, 0
2, 10944, Note_on_c, 0, 60, 75
2, 10967, Note_on_c, 0, 60, 0
2, 10968, Note_on_c, 0, 57, 75
2, 10991, Note_on_c, 0, 57, 0
2, 10992, Note_on_c, 0, 60, 75
2, 11015, Note_on_c, 0, 60, 0
2, 11016, Note_on_c, 0, 62, 75
2, 11039, Note_on_c, 0, 62, 0
2, 11040, Note_on_c, 0, 63, 75
2, 11063, Note_on_c, 0, 63, 0
2, 11064, Note_on_c, 0, 60, 75
2, 11087, Note_on_c, 0, 60, 0
2, 11088, Note_on_c, 0, 72, 75
2, 11111, Note_on_c, 0, 72, 0
2, 11112, Note_on_c, 0, 70, 75
2, 11135, Note_on_c, 0, 70, 0
2, 11136, Note_on_c, 0, 69, 75
2, 11159, Note_on_c, 0, 69, 0
2, 11160, Note_on_c, 0, 67, 75
2, 11183, Note_on_c, 0, 67, 0
2, 11184, Note_on_c, 0, 65, 75
2, 11207, Note_on_c, 0, 65, 0
2, 11208, Note_on_c, 0, 63, 75
2, 11231, Note_on_c, 0, 63, 0
2, 11232, Note_on_c, 0, 62, 75
2, 11255, Note_on_c, 0, 62, 0
2, 11256, Note_on_c, 0, 65, 75
2, 11279, Note_on_c, 0, 65, 0
2, 11280, Note_on_c, 0, 63, 75
2, 11303, Note_on_c, 0, 63, 0
2, 11304, Note_on_c, 0, 62, 75
2, 11327, Note_on_c, 0, 62, 0
2, 11328, Note_on_c, 0, 63, 75
2, 11351, Note_on_c, 0, 63, 0
2, 11352, Note_on_c, 0, 65, 75
2, 11375, Note_on_c, 0, 65, 0
2, 11376, Note_on_c, 0, 67, 75
2, 11399, Note_on_c, 0, 67, 0
2, 11400, Note_on_c, 0, 69, 75
2, 11423, Note_on_c, 0, 69, 0
2, 11424, Note_on_c, 0, 70, 75
2, 11447, Note_on_c, 0, 70, 0
2, 11448, Note_on_c, 0, 72, 75
2, 11471, Note_on_c, 0, 72, 0
2, 11472, Note_on_c, 0, 74, 75
2, 11495, Note_on_c, 0, 74, 0
2, 11496, Note_on_c, 0, 70, 75
2, 11519, Note_on_c, 0, 70, 0
2, 11520, Note_on_c, 0, 69, 75
2, 11543, Note_on_c, 0, 69, 0
2, 11544, Note_on_c, 0, 67, 75
2, 11567, Note_on_c, 0, 67, 0
2, 11568, Note_on_c, 0, 75, 75
2, 11591, Note_on_c, 0, 75, 0
2, 11592, Note_on_c, 0, 72, 75
2, 11615, Note_on_c, 0, 72, 0
2, 11616, Note_on_c, 0, 70, 75
2, 11705, Note_on_c, 0, 70, 0
2, 11712, Note_on_c, 0, 69, 75
2, 11725, Note_on_c, 0, 69, 0
2, 11726, Note_on_c, 0, 70, 75
2, 11739, Note_on_c, 0, 70, 0
2, 11740, Note_on_c, 0, 69, 75
2, 11753, Note_on_c, 0, 69, 0
2, 11754, Note_on_c, 0, 70, 75
2, 11767, Note_on_c, 0, 70, 0
2, 11768, Note_on_c, 0, 69, 75
2, 11781, Note_on_c, 0, 69, 0
2, 11782, Note_on_c, 0, 67, 75
2, 11794, Note_on_c, 0, 67, 0
2, 11795, Note_on_c, 0, 69, 75
2, 11807, Note_on_c, 0, 69, 0
2, 11808, Note_on_c, 0, 62, 75
2, 11831, Note_on_c, 0, 62, 0
2, 11832, Note_on_c, 0, 65, 75
2, 11855, Note_on_c, 0, 65, 0
2, 11856, Note_on_c, 0, 63, 75
2, 11879, Note_on_c, 0, 63, 0
2, 11880, Note_on_c, 0, 62, 75
2, 11903, Note_on_c, 0, 62, 0
2, 11904, Note_on_c, 0, 63, 75
2, 11927, Note_on_c, 0, 63, 0
2, 11928, Note_on_c, 0, 65, 75
2, 11951, Note_on_c, 0, 65, 0
2, 11952, Note_on_c, 0, 67, 75
2, 11975, Note_on_c, 0, 67, 0
2, 11976, Note_on_c, 0, 69, 75
2, 11999, Note_on_c, 0, 69, 0
2, 12000, Note_on_c, 0, 70, 75
2, 12023, Note_on_c, 0, 70, 0
2, 12024, Note_on_c, 0, 72, 75
2, 12047, Note_on_c, 0, 72, 0
2, 12048, Note_on_c, 0, 74, 75
2, 12071, Note_on_c, 0, 74, 0
2, 12072, Note_on_c, 0, 70, 75
2, 12095, Note_on_c, 0, 70, 0
2, 12096, Note_on_c, 0, 69, 75
2, 12119, Note_on_c, 0, 69, 0
2, 12120, Note_on_c, 0, 67, 75
2, 12143, Note_on_c, 0, 67, 0
2, 12144, Note_on_c, 0, 75, 75
2, 12167, Note_on_c, 0, 75, 0
2, 12168, Note_on_c, 0, 72, 75
2, 12191, Note_on_c, 0, 72, 0
2, 12192, Note_on_c, 0, 70, 75
2, 12215, Note_on_c, 0, 70, 0
2, 12216, Note_on_c, 0, 69, 75
2, 12239, Note_on_c, 0, 69, 0
2, 12240, Note_on_c, 0, 77, 75
2, 12263, Note_on_c, 0, 77, 0
2, 12264, Note_on_c, 0, 74, 75
2, 12287, Note_on_c, 0, 74, 0
2, 12288, Note_on_c, 0, 72, 75
2, 12311, Note_on_c, 0, 72, 0
2, 12312, Note_on_c, 0, 70, 75
2, 12335, Note_on_c, 0, 70, 0
2, 12336, Note_on_c, 0, 79, 75
2, 12359, Note_on_c, 0, 79, 0
2, 12360, Note_on_c, 0, 75, 75
2, 12383, Note_on_c, 0, 75, 0
2, 12384, Note_on_c, 0, 74, 75
2, 12407, Note_on_c, 0, 74, 0
2, 12408, Note_on_c, 0, 72, 75
2, 12431, Note_on_c, 0, 72, 0
2, 12432, Note_on_c, 0, 86, 75
2, 12455, Note_on_c, 0, 86, 0
2, 12456, Note_on_c, 0, 84, 75
2, 12479, Note_on_c, 0, 84, 0
2, 12480, Note_on_c, 0, 82, 75
2, 12503, Note_on_c, 0, 82, 0
2, 12504, Note_on_c, 0, 81, 75
2, 12527, Note_on_c, 0, 81, 0
2, 12528, Note_on_c, 0, 84, 75
2, 12551, Note_on_c, 0, 84, 0
2, 12552, Note_on_c, 0, 82, 75
2, 12575, Note_on_c, 0, 82, 0
2, 12576, Note_on_c, 0, 81, 75
2, 12599, Note_on_c, 0, 81, 0
2, 12600, Note_on_c, 0, 79, 75
2, 12623, Note_on_c, 0, 79, 0
2, 12624, Note_on_c, 0, 77, 75
2, 12647, Note_on_c, 0, 77, 0
2, 12648, Note_on_c, 0, 75, 75
2, 12671, Note_on_c, 0, 75, 0
2, 12672, Note_on_c, 0, 74, 75
2, 12695, Note_on_c, 0, 74, 0
2, 12696, Note_on_c, 0, 77, 75
2, 12719, Note_on_c, 0, 77, 0
2, 12720, Note_on_c, 0, 75, 75
2, 12743, Note_on_c, 0, 75, 0
2, 12744, Note_on_c, 0, 74, 75
2, 12767, Note_on_c, 0, 74, 0
2, 12768, Note_on_c, 0, 75, 75
2, 12791, Note_on_c, 0, 75, 0
2, 12792, Note_on_c, 0, 77, 75
2, 12815, Note_on_c, 0, 77, 0
2, 12816, Note_on_c, 0, 79, 75
2, 12839, Note_on_c, 0, 79, 0
2, 12840, Note_on_c, 0, 81, 75
2, 12863, Note_on_c, 0, 81, 0
2, 12864, Note_on_c, 0, 82, 75
2, 12887, Note_on_c, 0, 82, 0
2, 12888, Note_on_c, 0, 77, 75
2, 12911, Note_on_c, 0, 77, 0
2, 12912, Note_on_c, 0, 75, 75
2, 12935, Note_on_c, 0, 75, 0
2, 12936, Note_on_c, 0, 74, 75
2, 12959, Note_on_c, 0, 74, 0
2, 12960, Note_on_c, 0, 72, 75
2, 12983, Note_on_c, 0, 72, 0
2, 12984, Note_on_c, 0, 79, 75
2, 13007, Note_on_c, 0, 79, 0
2, 13008, Note_on_c, 0, 75, 75
2, 13031, Note_on_c, 0, 75, 0
2, 13032, Note_on_c, 0, 72, 75
2, 13055, Note_on_c, 0, 72, 0
2, 13056, Note_on_c, 0, 70, 75
2, 13145, Note_on_c, 0, 70, 0
2, 13152, Note_on_c, 0, 69, 75
2, 13165, Note_on_c, 0, 69, 0
2, 13166, Note_on_c, 0, 70, 75
2, 13179, Note_on_c, 0, 70, 0
2, 13180, Note_on_c, 0, 69, 75
2, 13193, Note_on_c, 0, 69, 0
2, 13194, Note_on_c, 0, 70, 75
2, 13207, Note_on_c, 0, 70, 0
2, 13208, Note_on_c, 0, 69, 75
2, 13221, Note_on_c, 0, 69, 0
2, 13222, Note_on_c, 0, 67, 75
2, 13234, Note_on_c, 0, 67, 0
2, 13235, Note_on_c, 0, 69, 75
2, 13247, Note_on_c, 0, 69, 0
2, 13248, Note_on_c, 0, 70, 75
2, 13268, Note_on_c, 0, 70, 0
2, 13296, Note_on_c, 0, 65, 75
2, 13296, Note_on_c, 0, 62, 75
2, 13319, Note_on_c, 0, 65, 0
2, 13319, Note_on_c, 0, 62, 0
2, 13320, Note_on_c, 0, 67, 75
2, 13320, Note_on_c, 0, 63, 75
2, 13343, Note_on_c, 0, 67, 0
2, 13343, Note_on_c, 0, 63, 0
2, 13344, Note_on_c, 0, 65, 75
2, 13344, Note_on_c, 0, 62, 75
2, 13389, Note_on_c, 0, 65, 0
2, 13389, Note_on_c, 0, 62, 0
2, 13392, Note_on_c, 0, 63, 74
2, 13392, Note_on_c, 0, 60, 74
2, 13437, Note_on_c, 0, 63, 0
2, 13437, Note_on_c, 0, 60, 0
2, 13440, Note_on_c, 0, 62, 73
2, 13440, Note_on_c, 0, 58, 73
2, 13485, Note_on_c, 0, 62, 0
2, 13485, Note_on_c, 0, 58, 0
2, 13488, Note_on_c, 0, 60, 72
2, 13488, Note_on_c, 0, 57, 72
2, 13533, Note_on_c, 0, 60, 0
2, 13533, Note_on_c, 0, 57, 0
2, 13536, Note_on_c, 0, 62, 71
2, 13536, Note_on_c, 0, 58, 71
2, 13556, Note_on_c, 0, 62, 0
2, 13556, Note_on_c, 0, 58, 0
2, 13584, Note_on_c, 0, 62, 70
2, 13607, Note_on_c, 0, 62, 0
2, 13608, Note_on_c, 0, 63, 70
2, 13631, Note_on_c, 0, 63, 0
2, 13632, Note_on_c, 0, 62, 70
2, 13677, Note_on_c, 0, 62, 0
2, 13680, Note_on_c, 0, 60, 70
2, 13725, Note_on_c, 0, 60, 0
2, 13728, Note_on_c, 0, 58, 70
2, 13773, Note_on_c, 0, 58, 0
2, 13776, Note_on_c, 0, 57, 70
2, 13821, Note_on_c, 0, 57, 0
2, 13824, Note_on_c, 0, 57, 70
2, 14016, Note_on_c, 0, 57, 0
2, 14016, Note_on_c, 0, 58, 70
2, 14089, Note_on_c, 0, 58, 0
2, 14160, Note_on_c, 0, 70, 75
2, 14205, Note_on_c, 0, 70, 0
2, 14208, Note_on_c, 0, 70, 75
2, 14256, Note_on_c, 0, 70, 0
2, 14256, Note_on_c, 0, 75, 75
2, 14301, Note_on_c, 0, 75, 0
2, 14304, Note_on_c, 0, 75, 75
2, 14352, Note_on_c, 0, 75, 0
2, 14352, Note_on_c, 0, 74, 75
2, 14397, Note_on_c, 0, 74, 0
2, 14448, Note_on_c, 0, 72, 75
2, 14493, Note_on_c, 0, 72, 0
2, 14544, Note_on_c, 0, 70, 75
2, 14589, Note_on_c, 0, 70, 0
2, 14640, Note_on_c, 0, 68, 75
2, 14685, Note_on_c, 0, 68, 0
2, 14736, Note_on_c, 0, 67, 75
2, 14781, Note_on_c, 0, 67, 0
2, 14784, Note_on_c, 0, 70, 75
2, 14832, Note_on_c, 0, 70, 0
2, 14832, Note_on_c, 0, 75, 75
2, 14877, Note_on_c, 0, 75, 0
2, 14880, Note_on_c, 0, 75, 75
2, 14928, Note_on_c, 0, 75, 0
2, 14928, Note_on_c, 0, 74, 75
2, 14973, Note_on_c, 0, 74, 0
2, 15000, Note_on_c, 0, 72, 75
2, 15023, Note_on_c, 0, 72, 0
2, 15024, Note_on_c, 0, 71, 75
2, 15047, Note_on_c, 0, 71, 0
2, 15048, Note_on_c, 0, 72, 75
2, 15071, Note_on_c, 0, 72, 0
2, 15096, Note_on_c, 0, 70, 75
2, 15119, Note_on_c, 0, 70, 0
2, 15120, Note_on_c, 0, 69, 75
2, 15143, Note_on_c, 0, 69, 0
2, 15144, Note_on_c, 0, 70, 75
2, 15167, Note_on_c, 0, 70, 0
2, 15192, Note_on_c, 0, 68, 75
2, 15215, Note_on_c, 0, 68, 0
2, 15216, Note_on_c, 0, 67, 75
2, 15239, Note_on_c, 0, 67, 0
2, 15240, Note_on_c, 0, 68, 75
2, 15263, Note_on_c, 0, 68, 0
2, 15288, Note_on_c, 0, 67, 75
2, 15311, Note_on_c, 0, 67, 0
2, 15312, Note_on_c, 0, 68, 75
2, 15335, Note_on_c, 0, 68, 0
2, 15336, Note_on_c, 0, 70, 75
2, 15359, Note_on_c, 0, 70, 0
2, 15360, Note_on_c, 0, 72, 75
2, 15383, Note_on_c, 0, 72, 0
2, 15384, Note_on_c, 0, 74, 75
2, 15407, Note_on_c, 0, 74, 0
2, 15408, Note_on_c, 0, 75, 75
2, 15431, Note_on_c, 0, 75, 0
2, 15432, Note_on_c, 0, 77, 75
2, 15455, Note_on_c, 0, 77, 0
2, 15456, Note_on_c, 0, 79, 75
2, 15479, Note_on_c, 0, 79, 0
2, 15480, Note_on_c, 0, 75, 75
2, 15503, Note_on_c, 0, 75, 0
2, 15504, Note_on_c, 0, 74, 75
2, 15527, Note_on_c, 0, 74, 0
2, 15528, Note_on_c, 0, 72, 75
2, 15551, Note_on_c, 0, 72, 0
2, 15552, Note_on_c, 0, 70, 75
2, 15729, Note_on_c, 0, 70, 0
2, 15744, Note_on_c, 0, 68, 75
2, 15757, Note_on_c, 0, 68, 0
2, 15758, Note_on_c, 0, 70, 75
2, 15771, Note_on_c, 0, 70, 0
2, 15772, Note_on_c, 0, 68, 75
2, 15785, Note_on_c, 0, 68, 0
2, 15786, Note_on_c, 0, 70, 75
2, 15799, Note_on_c, 0, 70, 0
2, 15800, Note_on_c, 0, 68, 75
2, 15813, Note_on_c, 0, 68, 0
2, 15814, Note_on_c, 0, 67, 75
2, 15826, Note_on_c, 0, 67, 0
2, 15827, Note_on_c, 0, 68, 75
2, 15839, Note_on_c, 0, 68, 0
2, 15840, Note_on_c, 0, 67, 75
2, 15863, Note_on_c, 0, 67, 0
2, 15864, Note_on_c, 0, 63, 75
2, 15887, Note_on_c, 0, 63, 0
2, 15888, Note_on_c, 0, 62, 75
2, 15911, Note_on_c, 0, 62, 0
2, 15912, Note_on_c, 0, 63, 75
2, 15935, Note_on_c, 0, 63, 0
2, 15936, Note_on_c, 0, 65, 75
2, 15959, Note_on_c, 0, 65, 0
2, 15960, Note_on_c, 0, 63, 75
2, 15983, Note_on_c, 0, 63, 0
2, 15984, Note_on_c, 0, 62, 75
2, 16007, Note_on_c, 0, 62, 0
2, 16008, Note_on_c, 0, 63, 75
2, 16031, Note_on_c, 0, 63, 0
2, 16032, Note_on_c, 0, 67, 75
2, 16055, Note_on_c, 0, 67, 0
2, 16056, Note_on_c, 0, 65, 75
2, 16079, Note_on_c, 0, 65, 0
2, 16080, Note_on_c, 0, 63, 75
2, 16103, Note_on_c, 0, 63, 0
2, 16104, Note_on_c, 0, 62, 75
2, 16127, Note_on_c, 0, 62, 0
2, 16128, Note_on_c, 0, 60, 75
2, 16151, Note_on_c, 0, 60, 0
2, 16152, Note_on_c, 0, 68, 75
2, 16175, Note_on_c, 0, 68, 0
2, 16176, Note_on_c, 0, 72, 75
2, 16199, Note_on_c, 0, 72, 0
2, 16200, Note_on_c, 0, 70, 75
2, 16223, Note_on_c, 0, 70, 0
2, 16224, Note_on_c, 0, 68, 75
2, 16247, Note_on_c, 0, 68, 0
2, 16248, Note_on_c, 0, 67, 75
2, 16271, Note_on_c, 0, 67, 0
2, 16272, Note_on_c, 0, 65, 75
2, 16295, Note_on_c, 0, 65, 0
2, 16296, Note_on_c, 0, 63, 75
2, 16319, Note_on_c, 0, 63, 0
2, 16320, Note_on_c, 0, 62, 75
2, 16343, Note_on_c, 0, 62, 0
2, 16344, Note_on_c, 0, 60, 75
2, 16367, Note_on_c, 0, 60, 0
2, 16368, Note_on_c, 0, 58, 75
2, 16391, Note_on_c, 0, 58, 0
2, 16392, Note_on_c, 0, 56, 75
2, 16415, Note_on_c, 0, 56, 0
2, 16416, Note_on_c, 0, 55, 75
2, 16439, Note_on_c, 0, 55, 0
2, 16440, Note_on_c, 0, 63, 75
2, 16463, Note_on_c, 0, 63, 0
2, 16464, Note_on_c, 0, 62, 75
2, 16487, Note_on_c, 0, 62, 0
2, 16488, Note_on_c, 0, 63, 75
2, 16511, Note_on_c, 0, 63, 0
2, 16512, Note_on_c, 0, 65, 75
2, 16535, Note_on_c, 0, 65, 0
2, 16536, Note_on_c, 0, 63, 75
2, 16559, Note_on_c, 0, 63, 0
2, 16560, Note_on_c, 0, 62, 75
2, 16583, Note_on_c, 0, 62, 0
2, 16584, Note_on_c, 0, 63, 75
2, 16607, Note_on_c, 0, 63, 0
2, 16608, Note_on_c, 0, 67, 75
2, 16631, Note_on_c, 0, 67, 0
2, 16632, Note_on_c, 0, 65, 75
2, 16655, Note_on_c, 0, 65, 0
2, 16656, Note_on_c, 0, 63, 75
2, 16679, Note_on_c, 0, 63, 0
2, 16680, Note_on_c, 0, 62, 75
2, 16703, Note_on_c, 0, 62, 0
2, 16704, Note_on_c, 0, 60, 75
2, 16727, Note_on_c, 0, 60, 0
2, 16728, Note_on_c, 0, 68, 75
2, 16751, Note_on_c, 0, 68, 0
2, 16752, Note_on_c, 0, 72, 75
2, 16775, Note_on_c, 0, 72, 0
2, 16776, Note_on_c, 0, 70, 75
2, 16799, Note_on_c, 0, 70, 0
2, 16800, Note_on_c, 0, 68, 75
2, 16823, Note_on_c, 0, 68, 0
2, 16824, Note_on_c, 0, 67, 75
2, 16847, Note_on_c, 0, 67, 0
2, 16848, Note_on_c, 0, 65, 75
2, 16871, Note_on_c, 0, 65, 0
2, 16872, Note_on_c, 0, 63, 75
2, 16895, Note_on_c, 0, 63, 0
2, 16896, Note_on_c, 0, 62, 75
2, 16919, Note_on_c, 0, 62, 0
2, 16920, Note_on_c, 0, 60, 75
2, 16943, Note_on_c, 0, 60, 0
2, 16944, Note_on_c, 0, 58, 75
2, 16967, Note_on_c, 0, 58, 0
2, 16968, Note_on_c, 0, 56, 75
2, 16991, Note_on_c, 0, 56, 0
2, 16992, Note_on_c, 0, 55, 75
2, 17037, Note_on_c, 0, 55, 0
2, 17328, Note_on_c, 0, 67, 75
2, 17376, Note_on_c, 0, 67, 0
2, 17376, Note_on_c, 0, 79, 75
2, 17421, Note_on_c, 0, 79, 0
2, 17424, Note_on_c, 0, 79, 75
2, 17469, Note_on_c, 0, 79, 0
2, 17472, Note_on_c, 0, 71, 75
2, 17520, Note_on_c, 0, 71, 0
2, 17520, Note_on_c, 0, 72, 75
2, 17565, Note_on_c, 0, 72, 0
2, 17616, Note_on_c, 0, 65, 75
2, 17664, Note_on_c, 0, 65, 0
2, 17664, Note_on_c, 0, 77, 75
2, 17709, Note_on_c, 0, 77, 0
2, 17712, Note_on_c, 0, 77, 75
2, 17757, Note_on_c, 0, 77, 0
2, 17760, Note_on_c, 0, 69, 75
2, 17808, Note_on_c, 0, 69, 0
2, 17808, Note_on_c, 0, 70, 75
2, 17853, Note_on_c, 0, 70, 0
2, 17880, Note_on_c, 0, 67, 75
2, 17903, Note_on_c, 0, 67, 0
2, 17904, Note_on_c, 0, 74, 75
2, 17927, Note_on_c, 0, 74, 0
2, 17928, Note_on_c, 0, 71, 75
2, 17951, Note_on_c, 0, 71, 0
2, 17976, Note_on_c, 0, 67, 75
2, 17999, Note_on_c, 0, 67, 0
2, 18000, Note_on_c, 0, 75, 75
2, 18023, Note_on_c, 0, 75, 0
2, 18024, Note_on_c, 0, 72, 75
2, 18047, Note_on_c, 0, 72, 0
2, 18072, Note_on_c, 0, 67, 75
2, 18095, Note_on_c, 0, 67, 0
2, 18096, Note_on_c, 0, 79, 75
2, 18119, Note_on_c, 0, 79, 0
2, 18120, Note_on_c, 0, 75, 75
2, 18143, Note_on_c, 0, 75, 0
2, 18168, Note_on_c, 0, 65, 75
2, 18191, Note_on_c, 0, 65, 0
2, 18192, Note_on_c, 0, 72, 75
2, 18215, Note_on_c, 0, 72, 0
2, 18216, Note_on_c, 0, 69, 75
2, 18239, Note_on_c, 0, 69, 0
2, 18264, Note_on_c, 0, 65, 75
2, 18287, Note_on_c, 0, 65, 0
2, 18288, Note_on_c, 0, 74, 75
2, 18311, Note_on_c, 0, 74, 0
2, 18312, Note_on_c, 0, 70, 75
2, 18335, Note_on_c, 0, 70, 0
2, 18360, Note_on_c, 0, 65, 75
2, 18383, Note_on_c, 0, 65, 0
2, 18384, Note_on_c, 0, 77, 75
2, 18407, Note_on_c, 0, 77, 0
2, 18408, Note_on_c, 0, 74, 75
2, 18431, Note_on_c, 0, 74, 0
2, 18456, Note_on_c, 0, 65, 75
2, 18479, Note_on_c, 0, 65, 0
2, 18480, Note_on_c, 0, 72, 75
2, 18503, Note_on_c, 0, 72, 0
2, 18504, Note_on_c, 0, 75, 75
2, 18527, Note_on_c, 0, 75, 0
2, 18552, Note_on_c, 0, 65, 75
2, 18575, Note_on_c, 0, 65, 0
2, 18576, Note_on_c, 0, 72, 75
2, 18599, Note_on_c, 0, 72, 0
2, 18600, Note_on_c, 0, 75, 75
2, 18623, Note_on_c, 0, 75, 0
2, 18648, Note_on_c, 0, 65, 75
2, 18671, Note_on_c, 0, 65, 0
2, 18672, Note_on_c, 0, 70, 75
2, 18695, Note_on_c, 0, 70, 0
2, 18696, Note_on_c, 0, 74, 75
2, 18719, Note_on_c, 0, 74, 0
2, 18744, Note_on_c, 0, 65, 75
2, 18767, Note_on_c, 0, 65, 0
2, 18768, Note_on_c, 0, 72, 75
2, 18791, Note_on_c, 0, 72, 0
2, 18792, Note_on_c, 0, 75, 75
2, 18815, Note_on_c, 0, 75, 0
2, 18840, Note_on_c, 0, 65, 75
2, 18863, Note_on_c, 0, 65, 0
2, 18864, Note_on_c, 0, 72, 75
2, 18887, Note_on_c, 0, 72, 0
2, 18888, Note_on_c, 0, 75, 75
2, 18911, Note_on_c, 0, 75, 0
2, 18936, Note_on_c, 0, 65, 75
2, 18959, Note_on_c, 0, 65, 0
2, 18960, Note_on_c, 0, 70, 75
2, 18983, Note_on_c, 0, 70, 0
2, 18984, Note_on_c, 0, 74, 75
2, 19007, Note_on_c, 0, 74, 0
2, 19032, Note_on_c, 0, 65, 75
2, 19055, Note_on_c, 0, 65, 0
2, 19056, Note_on_c, 0, 72, 75
2, 19079, Note_on_c, 0, 72, 0
2, 19080, Note_on_c, 0, 75, 75
2, 19103, Note_on_c, 0, 75, 0
2, 19128, Note_on_c, 0, 65, 75
2, 19151, Note_on_c, 0, 65, 0
2, 19152, Note_on_c, 0, 72, 75
2, 19175, Note_on_c, 0, 72, 0
2, 19176, Note_on_c, 0, 75, 75
2, 19199, Note_on_c, 0, 75, 0
2, 19224, Note_on_c, 0, 65, 75
2, 19247, Note_on_c, 0, 65, 0
2, 19248, Note_on_c, 0, 74, 75
2, 19271, Note_on_c, 0, 74, 0
2, 19272, Note_on_c, 0, 77, 75
2, 19295, Note_on_c, 0, 77, 0
2, 19296, Note_on_c, 0, 75, 75
2, 19311, Note_on_c, 0, 75, 0
2, 19312, Note_on_c, 0, 74, 75
2, 19327, Note_on_c, 0, 74, 0
2, 19328, Note_on_c, 0, 75, 75
2, 19343, Note_on_c, 0, 75, 0
2, 19344, Note_on_c, 0, 74, 75
2, 19359, Note_on_c, 0, 74, 0
2, 19360, Note_on_c, 0, 72, 75
2, 19375, Note_on_c, 0, 72, 0
2, 19376, Note_on_c, 0, 74, 75
2, 19391, Note_on_c, 0, 74, 0
2, 19392, Note_on_c, 0, 72, 75
2, 19481, Note_on_c, 0, 72, 0
2, 19608, Note_on_c, 0, 58, 81
2, 19631, Note_on_c, 0, 58, 0
2, 19632, Note_on_c, 0, 58, 81
2, 19655, Note_on_c, 0, 58, 0
2, 19656, Note_on_c, 0, 58, 81
2, 19679, Note_on_c, 0, 58, 0
2, 19704, Note_on_c, 0, 62, 81
2, 19727, Note_on_c, 0, 62, 0
2, 19728, Note_on_c, 0, 62, 81
2, 19751, Note_on_c, 0, 62, 0
2, 19752, Note_on_c, 0, 62, 81
2, 19775, Note_on_c, 0, 62, 0
2, 19800, Note_on_c, 0, 65, 81
2, 19823, Note_on_c, 0, 65, 0
2, 19824, Note_on_c, 0, 65, 81
2, 19847, Note_on_c, 0, 65, 0
2, 19848, Note_on_c, 0, 65, 81
2, 19871, Note_on_c, 0, 65, 0
2, 19896, Note_on_c, 0, 70, 81
2, 19919, Note_on_c, 0, 70, 0
2, 19920, Note_on_c, 0, 69, 81
2, 19943, Note_on_c, 0, 69, 0
2, 19944, Note_on_c, 0, 70, 81
2, 19967, Note_on_c, 0, 70, 0
2, 19968, Note_on_c, 0, 74, 81
2, 19991, Note_on_c, 0, 74, 0
2, 19992, Note_on_c, 0, 70, 81
2, 20015, Note_on_c, 0, 70, 0
2, 20016, Note_on_c, 0, 69, 81
2, 20039, Note_on_c, 0, 69, 0
2, 20040, Note_on_c, 0, 67, 81
2, 20063, Note_on_c, 0, 67, 0
2, 20064, Note_on_c, 0, 65, 81
2, 20087, Note_on_c, 0, 65, 0
2, 20088, Note_on_c, 0, 63, 81
2, 20111, Note_on_c, 0, 63, 0
2, 20112, Note_on_c, 0, 62, 81
2, 20135, Note_on_c, 0, 62, 0
2, 20136, Note_on_c, 0, 60, 81
2, 20159, Note_on_c, 0, 60, 0
2, 20160, Note_on_c, 0, 58, 81
2, 20183, Note_on_c, 0, 58, 0
2, 20184, Note_on_c, 0, 58, 81
2, 20207, Note_on_c, 0, 58, 0
2, 20208, Note_on_c, 0, 58, 81
2, 20231, Note_on_c, 0, 58, 0
2, 20232, Note_on_c, 0, 58, 81
2, 20255, Note_on_c, 0, 58, 0
2, 20280, Note_on_c, 0, 62, 81
2, 20303, Note_on_c, 0, 62, 0
2, 20304, Note_on_c, 0, 62, 81
2, 20327, Note_on_c, 0, 62, 0
2, 20328, Note_on_c, 0, 62, 81
2, 20351, Note_on_c, 0, 62, 0
2, 20376, Note_on_c, 0, 65, 81
2, 20399, Note_on_c, 0, 65, 0
2, 20400, Note_on_c, 0, 65, 81
2, 20423, Note_on_c, 0, 65, 0
2, 20424, Note_on_c, 0, 65, 81
2, 20447, Note_on_c, 0, 65, 0
2, 20472, Note_on_c, 0, 70, 81
2, 20495, Note_on_c, 0, 70, 0
2, 20496, Note_on_c, 0, 69, 81
2, 20519, Note_on_c, 0, 69, 0
2, 20520, Note_on_c, 0, 70, 81
2, 20543, Note_on_c, 0, 70, 0
2, 20544, Note_on_c, 0, 74, 81
2, 20567, Note_on_c, 0, 74, 0
2, 20568, Note_on_c, 0, 72, 81
2, 20591, Note_on_c, 0, 72, 0
2, 20592, Note_on_c, 0, 70, 81
2, 20615, Note_on_c, 0, 70, 0
2, 20616, Note_on_c, 0, 69, 81
2, 20639, Note_on_c, 0, 69, 0
2, 20640, Note_on_c, 0, 67, 81
2, 20663, Note_on_c, 0, 67, 0
2, 20664, Note_on_c, 0, 65, 81
2, 20687, Note_on_c, 0, 65, 0
2, 20688, Note_on_c, 0, 63, 81
2, 20711, Note_on_c, 0, 63, 0
2, 20712, Note_on_c, 0, 62, 81
2, 20735, Note_on_c, 0, 62, 0
2, 20736, Note_on_c, 0, 60, 81
2, 20759, Note_on_c, 0, 60, 0
2, 20760, Note_on_c, 0, 75, 81
2, 20783, Note_on_c, 0, 75, 0
2, 20784, Note_on_c, 0, 74, 81
2, 20807, Note_on_c, 0, 74, 0
2, 20808, Note_on_c, 0, 75, 81
2, 20831, Note_on_c, 0, 75, 0
2, 20832, Note_on_c, 0, 79, 81
2, 20855, Note_on_c, 0, 79, 0
2, 20856, Note_on_c, 0, 77, 81
2, 20879, Note_on_c, 0, 77, 0
2, 20880, Note_on_c, 0, 75, 81
2, 20903, Note_on_c, 0, 75, 0
2, 20904, Note_on_c, 0, 74, 81
2, 20927, Note_on_c, 0, 74, 0
2, 20928, Note_on_c, 0, 72, 81
2, 20951, Note_on_c, 0, 72, 0
2, 20952, Note_on_c, 0, 70, 81
2, 20975, Note_on_c, 0, 70, 0
2, 20976, Note_on_c, 0, 69, 81
2, 20999, Note_on_c, 0, 69, 0
2, 21000, Note_on_c, 0, 67, 81
2, 21023, Note_on_c, 0, 67, 0
2, 21024, Note_on_c, 0, 65, 81
2, 21047, Note_on_c, 0, 65, 0
2, 21048, Note_on_c, 0, 69, 80
2, 21071, Note_on_c, 0, 69, 0
2, 21072, Note_on_c, 0, 69, 80
2, 21095, Note_on_c, 0, 69, 0
2, 21096, Note_on_c, 0, 69, 80
2, 21119, Note_on_c, 0, 69, 0
2, 21120, Note_on_c, 0, 72, 80
2, 21143, Note_on_c, 0, 72, 0
2, 21144, Note_on_c, 0, 69, 80
2, 21167, Note_on_c, 0, 69, 0
2, 21168, Note_on_c, 0, 72, 80
2, 21191, Note_on_c, 0, 72, 0
2, 21192, Note_on_c, 0, 69, 79
2, 21215, Note_on_c, 0, 69, 0
2, 21240, Note_on_c, 0, 69, 79
2, 21263, Note_on_c, 0, 69, 0
2, 21264, Note_on_c, 0, 69, 79
2, 21287, Note_on_c, 0, 69, 0
2, 21288, Note_on_c, 0, 69, 79
2, 21311, Note_on_c, 0, 69, 0
2, 21336, Note_on_c, 0, 70, 78
2, 21359, Note_on_c, 0, 70, 0
2, 21360, Note_on_c, 0, 70, 78
2, 21383, Note_on_c, 0, 70, 0
2, 21384, Note_on_c, 0, 70, 78
2, 21407, Note_on_c, 0, 70, 0
2, 21408, Note_on_c, 0, 74, 78
2, 21431, Note_on_c, 0, 74, 0
2, 21432, Note_on_c, 0, 70, 78
2, 21455, Note_on_c, 0, 70, 0
2, 21456, Note_on_c, 0, 74, 78
2, 21479, Note_on_c, 0, 74, 0
2, 21480, Note_on_c, 0, 70, 77
2, 21503, Note_on_c, 0, 70, 0
2, 21528, Note_on_c, 0, 70, 77
2, 21551, Note_on_c, 0, 70, 0
2, 21552, Note_on_c, 0, 70, 77
2, 21575, Note_on_c, 0, 70, 0
2, 21576, Note_on_c, 0, 70, 77
2, 21599, Note_on_c, 0, 70, 0
2, 21624, Note_on_c, 0, 72, 76
2, 21647, Note_on_c, 0, 72, 0
2, 21648, Note_on_c, 0, 72, 76
2, 21671, Note_on_c, 0, 72, 0
2, 21672, Note_on_c, 0, 72, 76
2, 21695, Note_on_c, 0, 72, 0
2, 21696, Note_on_c, 0, 75, 76
2, 21719, Note_on_c, 0, 75, 0
2, 21720, Note_on_c, 0, 72, 76
2, 21743, Note_on_c, 0, 72, 0
2, 21744, Note_on_c, 0, 75, 76
2, 21767, Note_on_c, 0, 75, 0
2, 21768, Note_on_c, 0, 72, 75
2, 21791, Note_on_c, 0, 72, 0
2, 21816, Note_on_c, 0, 72, 75
2, 21839, Note_on_c, 0, 72, 0
2, 21840, Note_on_c, 0, 72, 75
2, 21863, Note_on_c, 0, 72, 0
2, 21864, Note_on_c, 0, 72, 75
2, 21887, Note_on_c, 0, 72, 0
2, 21888, Note_on_c, 0, 70, 75
2, 21911, Note_on_c, 0, 70, 0
2, 21912, Note_on_c, 0, 74, 75
2, 21935, Note_on_c, 0, 74, 0
2, 21936, Note_on_c, 0, 69, 75
2, 21959, Note_on_c, 0, 69, 0
2, 21960, Note_on_c, 0, 72, 75
2, 21983, Note_on_c, 0, 72, 0
2, 21984, Note_on_c, 0, 67, 75
2, 22007, Note_on_c, 0, 67, 0
2, 22008, Note_on_c, 0, 70, 75
2, 22031, Note_on_c, 0, 70, 0
2, 22032, Note_on_c, 0, 65, 75
2, 22055, Note_on_c, 0, 65, 0
2, 22056, Note_on_c, 0, 69, 75
2, 22079, Note_on_c, 0, 69, 0
2, 22080, Note_on_c, 0, 63, 81
2, 22103, Note_on_c, 0, 63, 0
2, 22104, Note_on_c, 0, 67, 79
2, 22127, Note_on_c, 0, 67, 0
2, 22128, Note_on_c, 0, 62, 77
2, 22151, Note_on_c, 0, 62, 0
2, 22152, Note_on_c, 0, 65, 75
2, 22175, Note_on_c, 0, 65, 0
2, 22176, Note_on_c, 0, 70, 73
2, 22199, Note_on_c, 0, 70, 0
2, 22200, Note_on_c, 0, 74, 71
2, 22223, Note_on_c, 0, 74, 0
2, 22224, Note_on_c, 0, 69, 70
2, 22247, Note_on_c, 0, 69, 0
2, 22248, Note_on_c, 0, 72, 70
2, 22271, Note_on_c, 0, 72, 0
2, 22272, Note_on_c, 0, 67, 70
2, 22295, Note_on_c, 0, 67, 0
2, 22296, Note_on_c, 0, 70, 70
2, 22319, Note_on_c, 0, 70, 0
2, 22320, Note_on_c, 0, 65, 70
2, 22343, Note_on_c, 0, 65, 0
2, 22344, Note_on_c, 0, 69, 70
2, 22367, Note_on_c, 0, 69, 0
2, 22368, Note_on_c, 0, 63, 70
2, 22391, Note_on_c, 0, 63, 0
2, 22392, Note_on_c, 0, 67, 70
2, 22415, Note_on_c, 0, 67, 0
2, 22416, Note_on_c, 0, 62, 70
2, 22439, Note_on_c, 0, 62, 0
2, 22440, Note_on_c, 0, 65, 70
2, 22463, Note_on_c, 0, 65, 0
2, 22488, Note_on_c, 0, 67, 75
2, 22511, Note_on_c, 0, 67, 0
2, 22512, Note_on_c, 0, 69, 75
2, 22535, Note_on_c, 0, 69, 0
2, 22536, Note_on_c, 0, 71, 75
2, 22559, Note_on_c, 0, 71, 0
2, 22560, Note_on_c, 0, 72, 75
2, 22583, Note_on_c, 0, 72, 0
2, 22584, Note_on_c, 0, 74, 75
2, 22607, Note_on_c, 0, 74, 0
2, 22608, Note_on_c, 0, 75, 75
2, 22631, Note_on_c, 0, 75, 0
2, 22632, Note_on_c, 0, 77, 75
2, 22655, Note_on_c, 0, 77, 0
2, 22656, Note_on_c, 0, 79, 75
2, 22701, Note_on_c, 0, 79, 0
2, 22776, Note_on_c, 0, 65, 75
2, 22799, Note_on_c, 0, 65, 0
2, 22800, Note_on_c, 0, 67, 75
2, 22823, Note_on_c, 0, 67, 0
2, 22824, Note_on_c, 0, 69, 75
2, 22847, Note_on_c, 0, 69, 0
2, 22848, Note_on_c, 0, 70, 75
2, 22871, Note_on_c, 0, 70, 0
2, 22872, Note_on_c, 0, 72, 75
2, 22895, Note_on_c, 0, 72, 0
2, 22896, Note_on_c, 0, 74, 75
2, 22919, Note_on_c, 0, 74, 0
2, 22920, Note_on_c, 0, 75, 75
2, 22943, Note_on_c, 0, 75, 0
2, 22944, Note_on_c, 0, 77, 75
2, 22989, Note_on_c, 0, 77, 0
2, 23064, Note_on_c, 0, 67, 70
2, 23087, Note_on_c, 0, 67, 0
2, 23088, Note_on_c, 0, 69, 70
2, 23111, Note_on_c, 0, 69, 0
2, 23112, Note_on_c, 0, 71, 70
2, 23135, Note_on_c, 0, 71, 0
2, 23136, Note_on_c, 0, 72, 70
2, 23159, Note_on_c, 0, 72, 0
2, 23160, Note_on_c, 0, 74, 70
2, 23183, Note_on_c, 0, 74, 0
2, 23184, Note_on_c, 0, 75, 70
2, 23207, Note_on_c, 0, 75, 0
2, 23208, Note_on_c, 0, 77, 70
2, 23231, Note_on_c, 0, 77, 0
2, 23232, Note_on_c, 0, 79, 70
2, 23277, Note_on_c, 0, 79, 0
2, 23352, Note_on_c, 0, 65, 70
2, 23375, Note_on_c, 0, 65, 0
2, 23376, Note_on_c, 0, 67, 70
2, 23399, Note_on_c, 0, 67, 0
2, 23400, Note_on_c, 0, 69, 70
2, 23423, Note_on_c, 0, 69, 0
2, 23424, Note_on_c, 0, 70, 70
2, 23447, Note_on_c, 0, 70, 0
2, 23448, Note_on_c, 0, 72, 70
2, 23471, Note_on_c, 0, 72, 0
2, 23472, Note_on_c, 0, 74, 70
2, 23495, Note_on_c, 0, 74, 0
2, 23496, Note_on_c, 0, 75, 70
2, 23519, Note_on_c, 0, 75, 0
2, 23520, Note_on_c, 0, 77, 70
2, 23543, Note_on_c, 0, 77, 0
2, 23544, Note_on_c, 0, 79, 70
2, 23567, Note_on_c, 0, 79, 0
2, 23568, Note_on_c, 0, 81, 70
2, 23591, Note_on_c, 0, 81, 0
2, 23592, Note_on_c, 0, 82, 70
2, 23604, Note_on_c, 0, 82, 0
2, 23604, Note_on_c, 0, 84, 70
2, 23616, Note_on_c, 0, 84, 0
2, 23616, Note_on_c, 0, 86, 86
2, 23636, Note_on_c, 0, 86, 0
2, 23904, Note_on_c, 0, 72, 75
2, 23927, Note_on_c, 0, 72, 0
2, 23928, Note_on_c, 0, 76, 75
2, 23951, Note_on_c, 0, 76, 0
2, 23952, Note_on_c, 0, 79, 75
2, 23975, Note_on_c, 0, 79, 0
2, 23976, Note_on_c, 0, 77, 75
2, 23999, Note_on_c, 0, 77, 0
2, 24000, Note_on_c, 0, 76, 75
2, 24023, Note_on_c, 0, 76, 0
2, 24024, Note_on_c, 0, 74, 75
2, 24047, Note_on_c, 0, 74, 0
2, 24048, Note_on_c, 0, 72, 75
2, 24071, Note_on_c, 0, 72, 0
2, 24072, Note_on_c, 0, 74, 75
2, 24095, Note_on_c, 0, 74, 0
2, 24096, Note_on_c, 0, 72, 75
2, 24119, Note_on_c, 0, 72, 0
2, 24120, Note_on_c, 0, 74, 75
2, 24143, Note_on_c, 0, 74, 0
2, 24144, Note_on_c, 0, 72, 75
2, 24167, Note_on_c, 0, 72, 0
2, 24168, Note_on_c, 0, 74, 75
2, 24191, Note_on_c, 0, 74, 0
2, 24192, Note_on_c, 0, 72, 75
2, 24215, Note_on_c, 0, 72, 0
2, 24216, Note_on_c, 0, 76, 75
2, 24239, Note_on_c, 0, 76, 0
2, 24240, Note_on_c, 0, 77, 75
2, 24263, Note_on_c, 0, 77, 0
2, 24264, Note_on_c, 0, 76, 75
2, 24287, Note_on_c, 0, 76, 0
2, 24288, Note_on_c, 0, 74, 75
2, 24311, Note_on_c, 0, 74, 0
2, 24312, Note_on_c, 0, 72, 75
2, 24335, Note_on_c, 0, 72, 0
2, 24336, Note_on_c, 0, 70, 75
2, 24359, Note_on_c, 0, 70, 0
2, 24360, Note_on_c, 0, 69, 75
2, 24383, Note_on_c, 0, 69, 0
2, 24384, Note_on_c, 0, 67, 75
2, 24407, Note_on_c, 0, 67, 0
2, 24408, Note_on_c, 0, 65, 75
2, 24431, Note_on_c, 0, 65, 0
2, 24432, Note_on_c, 0, 64, 75
2, 24455, Note_on_c, 0, 64, 0
2, 24456, Note_on_c, 0, 62, 75
2, 24479, Note_on_c, 0, 62, 0
2, 24480, Note_on_c, 0, 60, 75
2, 24503, Note_on_c, 0, 60, 0
2, 24504, Note_on_c, 0, 64, 75
2, 24527, Note_on_c, 0, 64, 0
2, 24528, Note_on_c, 0, 67, 75
2, 24551, Note_on_c, 0, 67, 0
2, 24552, Note_on_c, 0, 65, 75
2, 24575, Note_on_c, 0, 65, 0
2, 24576, Note_on_c, 0, 64, 75
2, 24599, Note_on_c, 0, 64, 0
2, 24600, Note_on_c, 0, 62, 75
2, 24623, Note_on_c, 0, 62, 0
2, 24624, Note_on_c, 0, 60, 75
2, 24647, Note_on_c, 0, 60, 0
2, 24648, Note_on_c, 0, 62, 75
2, 24671, Note_on_c, 0, 62, 0
2, 24672, Note_on_c, 0, 60, 75
2, 24695, Note_on_c, 0, 60, 0
2, 24696, Note_on_c, 0, 62, 75
2, 24719, Note_on_c, 0, 62, 0
2, 24720, Note_on_c, 0, 60, 75
2, 24743, Note_on_c, 0, 60, 0
2, 24744, Note_on_c, 0, 62, 75
2, 24767, Note_on_c, 0, 62, 0
2, 24768, Note_on_c, 0, 60, 75
2, 24791, Note_on_c, 0, 60, 0
2, 24792, Note_on_c, 0, 65, 75
2, 24815, Note_on_c, 0, 65, 0
2, 24816, Note_on_c, 0, 64, 75
2, 24839, Note_on_c, 0, 64, 0
2, 24840, Note_on_c, 0, 62, 75
2, 24863, Note_on_c, 0, 62, 0
2, 24864, Note_on_c, 0, 60, 75
2, 24887, Note_on_c, 0, 60, 0
2, 24888, Note_on_c, 0, 58, 75
2, 24911, Note_on_c, 0, 58, 0
2, 24912, Note_on_c, 0, 57, 75
2, 24935, Note_on_c, 0, 57, 0
2, 24936, Note_on_c, 0, 55, 75
2, 24959, Note_on_c, 0, 55, 0
2, 24960, Note_on_c, 0, 53, 75
2, 24983, Note_on_c, 0, 53, 0
2, 24984, Note_on_c, 0, 55, 75
2, 25007, Note_on_c, 0, 55, 0
2, 25008, Note_on_c, 0, 57, 75
2, 25031, Note_on_c, 0, 57, 0
2, 25032, Note_on_c, 0, 58, 75
2, 25055, Note_on_c, 0, 58, 0
2, 25056, Note_on_c, 0, 60, 75
2, 25079, Note_on_c, 0, 60, 0
2, 25080, Note_on_c, 0, 57, 75
2, 25103, Note_on_c, 0, 57, 0
2, 25104, Note_on_c, 0, 60, 75
2, 25127, Note_on_c, 0, 60, 0
2, 25128, Note_on_c, 0, 62, 75
2, 25151, Note_on_c, 0, 62, 0
2, 25152, Note_on_c, 0, 63, 75
2, 25175, Note_on_c, 0, 63, 0
2, 25176, Note_on_c, 0, 60, 75
2, 25199, Note_on_c, 0, 60, 0
2, 25200, Note_on_c, 0, 72, 75
2, 25223, Note_on_c, 0, 72, 0
2, 25224, Note_on_c, 0, 70, 75
2, 25247, Note_on_c, 0, 70, 0
2, 25248, Note_on_c, 0, 69, 75
2, 25271, Note_on_c, 0, 69, 0
2, 25272, Note_on_c, 0, 67, 75
2, 25295, Note_on_c, 0, 67, 0
2, 25296, Note_on_c, 0, 65, 75
2, 25319, Note_on_c, 0, 65, 0
2, 25320, Note_on_c, 0, 63, 75
2, 25343, Note_on_c, 0, 63, 0
2, 25344, Note_on_c, 0, 62, 75
2, 25367, Note_on_c, 0, 62, 0
2, 25368, Note_on_c, 0, 65, 75
2, 25391, Note_on_c, 0, 65, 0
2, 25392, Note_on_c, 0, 63, 75
2, 25415, Note_on_c, 0, 63, 0
2, 25416, Note_on_c, 0, 62, 75
2, 25439, Note_on_c, 0, 62, 0
2, 25440, Note_on_c, 0, 63, 75
2, 25463, Note_on_c, 0, 63, 0
2, 25464, Note_on_c, 0, 65, 75
2, 25487, Note_on_c, 0, 65, 0
2, 25488, Note_on_c, 0, 67, 75
2, 25511, Note_on_c, 0, 67, 0
2, 25512, Note_on_c, 0, 69, 75
2, 25535, Note_on_c, 0, 69, 0
2, 25536, Note_on_c, 0, 70, 75
2, 25559, Note_on_c, 0, 70, 0
2, 25560, Note_on_c, 0, 72, 75
2, 25583, Note_on_c, 0, 72, 0
2, 25584, Note_on_c, 0, 74, 75
2, 25607, Note_on_c, 0, 74, 0
2, 25608, Note_on_c, 0, 70, 75
2, 25631, Note_on_c, 0, 70, 0
2, 25632, Note_on_c, 0, 69, 75
2, 25655, Note_on_c, 0, 69, 0
2, 25656, Note_on_c, 0, 67, 75
2, 25679, Note_on_c, 0, 67, 0
2, 25680, Note_on_c, 0, 75, 75
2, 25703, Note_on_c, 0, 75, 0
2, 25704, Note_on_c, 0, 72, 75
2, 25727, Note_on_c, 0, 72, 0
2, 25728, Note_on_c, 0, 70, 75
2, 25817, Note_on_c, 0, 70, 0
2, 25824, Note_on_c, 0, 69, 75
2, 25837, Note_on_c, 0, 69, 0
2, 25838, Note_on_c, 0, 70, 75
2, 25851, Note_on_c, 0, 70, 0
2, 25852, Note_on_c, 0, 69, 75
2, 25865, Note_on_c, 0, 69, 0
2, 25866, Note_on_c, 0, 70, 75
2, 25879, Note_on_c, 0, 70, 0
2, 25880, Note_on_c, 0, 69, 75
2, 25893, Note_on_c, 0, 69, 0
2, 25894, Note_on_c, 0, 67, 75
2, 25906, Note_on_c, 0, 67, 0
2, 25907, Note_on_c, 0, 69, 75
2, 25919, Note_on_c, 0, 69, 0
2, 25920, Note_on_c, 0, 62, 75
2, 25943, Note_on_c, 0, 62, 0
2, 25944, Note_on_c, 0, 65, 75
2, 25967, Note_on_c, 0, 65, 0
2, 25968, Note_on_c, 0, 63, 75
2, 25991, Note_on_c, 0, 63, 0
2, 25992, Note_on_c, 0, 62, 75
2, 26015, Note_on_c, 0, 62, 0
2, 26016, Note_on_c, 0, 63, 75
2, 26039, Note_on_c, 0, 63, 0
2, 26040, Note_on_c, 0, 65, 75
2, 26063, Note_on_c, 0, 65, 0
2, 26064, Note_on_c, 0, 67, 75
2, 26087, Note_on_c, 0, 67, 0
2, 26088, Note_on_c, 0, 69, 75
2, 26111, Note_on_c, 0, 69, 0
2, 26112, Note_on_c, 0, 70, 75
2, 26135, Note_on_c, 0, 70, 0
2, 26136, Note_on_c, 0, 72, 75
2, 26159, Note_on_c, 0, 72, 0
2, 26160, Note_on_c, 0, 74, 75
2, 26183, Note_on_c, 0, 74, 0
2, 26184, Note_on_c, 0, 70, 75
2, 26207, Note_on_c, 0, 70, 0
2, 26208, Note_on_c, 0, 69, 75
2, 26231, Note_on_c, 0, 69, 0
2, 26232, Note_on_c, 0, 67, 75
2, 26255, Note_on_c, 0, 67, 0
2, 26256, Note_on_c, 0, 75, 75
2, 26279, Note_on_c, 0, 75, 0
2, 26280, Note_on_c, 0, 72, 75
2, 26303, Note_on_c, 0, 72, 0
2, 26304, Note_on_c, 0, 70, 75
2, 26327, Note_on_c, 0, 70, 0
2, 26328, Note_on_c, 0, 69, 75
2, 26351, Note_on_c, 0, 69, 0
2, 26352, Note_on_c, 0, 77, 75
2, 26375, Note_on_c, 0, 77, 0
2, 26376, Note_on_c, 0, 74, 75
2, 26399, Note_on_c, 0, 74, 0
2, 26400, Note_on_c, 0, 72, 75
2, 26423, Note_on_c, 0, 72, 0
2, 26424, Note_on_c, 0, 70, 75
2, 26447, Note_on_c, 0, 70, 0
2, 26448, Note_on_c, 0, 79, 75
2, 26471, Note_on_c, 0, 79, 0
2, 26472, Note_on_c, 0, 75, 75
2, 26495, Note_on_c, 0, 75, 0
2, 26496, Note_on_c, 0, 74, 75
2, 26519, Note_on_c, 0, 74, 0
2, 26520, Note_on_c, 0, 72, 75
2, 26543, Note_on_c, 0, 72, 0
2, 26544, Note_on_c, 0, 86, 75
2, 26567, Note_on_c, 0, 86, 0
2, 26568, Note_on_c, 0, 84, 75
2, 26591, Note_on_c, 0, 84, 0
2, 26592, Note_on_c, 0, 82, 75
2, 26615, Note_on_c, 0, 82, 0
2, 26616, Note_on_c, 0, 81, 75
2, 26639, Note_on_c, 0, 81, 0
2, 26640, Note_on_c, 0, 84, 75
2, 26663, Note_on_c, 0, 84, 0
2, 26664, Note_on_c, 0, 82, 75
2, 26687, Note_on_c, 0, 82, 0
2, 26688, Note_on_c, 0, 81, 75
2, 26711, Note_on_c, 0, 81, 0
2, 26712, Note_on_c, 0, 79, 75
2, 26735, Note_on_c, 0, 79, 0
2, 26736, Note_on_c, 0, 77, 75
2, 26759, Note_on_c, 0, 77, 0
2, 26760, Note_on_c, 0, 75, 75
2, 26783, Note_on_c, 0, 75, 0
2, 26784, Note_on_c, 0, 74, 75
2, 26807, Note_on_c, 0, 74, 0
2, 26808, Note_on_c, 0, 77, 75
2, 26831, Note_on_c, 0, 77, 0
2, 26832, Note_on_c, 0, 75, 75
2, 26855, Note_on_c, 0, 75, 0
2, 26856, Note_on_c, 0, 74, 75
2, 26879, Note_on_c, 0, 74, 0
2, 26880, Note_on_c, 0, 75, 75
2, 26903, Note_on_c, 0, 75, 0
2, 26904, Note_on_c, 0, 77, 75
2, 26927, Note_on_c, 0, 77, 0
2, 26928, Note_on_c, 0, 79, 75
2, 26951, Note_on_c, 0, 79, 0
2, 26952, Note_on_c, 0, 81, 75
2, 26975, Note_on_c, 0, 81, 0
2, 26976, Note_on_c, 0, 82, 75
2, 26999, Note_on_c, 0, 82, 0
2, 27000, Note_on_c, 0, 77, 75
2, 27023, Note_on_c, 0, 77, 0
2, 27024, Note_on_c, 0, 75, 75
2, 27047, Note_on_c, 0, 75, 0
2, 27048, Note_on_c, 0, 74, 75
2, 27071, Note_on_c, 0, 74, 0
2, 27072, Note_on_c, 0, 72, 75
2, 27095, Note_on_c, 0, 72, 0
2, 27096, Note_on_c, 0, 79, 75
2, 27119, Note_on_c, 0, 79, 0
2, 27120, Note_on_c, 0, 75, 75
2, 27143, Note_on_c, 0, 75, 0
2, 27144, Note_on_c, 0, 72, 75
2, 27167, Note_on_c, 0, 72, 0
2, 27168, Note_on_c, 0, 70, 75
2, 27257, Note_on_c, 0, 70, 0
2, 27264, Note_on_c, 0, 69, 75
2, 27277, Note_on_c, 0, 69, 0
2, 27278, Note_on_c, 0, 70, 75
2, 27291, Note_on_c, 0, 70, 0
2, 27292, Note_on_c, 0, 69, 75
2, 27305, Note_on_c, 0, 69, 0
2, 27306, Note_on_c, 0, 70, 75
2, 27319, Note_on_c, 0, 70, 0
2, 27320, Note_on_c, 0, 69, 75
2, 27333, Note_on_c, 0, 69, 0
2, 27334, Note_on_c, 0, 67, 75
2, 27346, Note_on_c, 0, 67, 0
2, 27347, Note_on_c, 0, 69, 75
2, 27359, Note_on_c, 0, 69, 0
2, 27360, Note_on_c, 0, 70, 75
2, 27380, Note_on_c, 0, 70, 0
2, 27408, Note_on_c, 0, 65, 75
2, 27408, Note_on_c, 0, 62, 75
2, 27431, Note_on_c, 0, 65, 0
2, 27431, Note_on_c, 0, 62, 0
2, 27432, Note_on_c, 0, 67, 75
2, 27432, Note_on_c, 0, 63, 75
2, 27455, Note_on_c, 0, 67, 0
2, 27455, Note_on_c, 0, 63, 0
2, 27456, Note_on_c, 0, 65, 75
2, 27456, Note_on_c, 0, 62, 75
2, 27501, Note_on_c, 0, 65, 0
2, 27501, Note_on_c, 0, 62, 0
2, 27504, Note_on_c, 0, 63, 74
2, 27504, Note_on_c, 0, 60, 74
2, 27549, Note_on_c, 0, 63, 0
2, 27549, Note_on_c, 0, 60, 0
2, 27552, Note_on_c, 0, 62, 73
2, 27552, Note_on_c, 0, 58, 73
2, 27597, Note_on_c, 0, 62, 0
2, 27597, Note_on_c, 0, 58, 0
2, 27600, Note_on_c, 0, 60, 72
2, 27600, Note_on_c, 0, 57, 72
2, 27645, Note_on_c, 0, 60, 0
2, 27645, Note_on_c, 0, 57, 0
2, 27648, Note_on_c, 0, 62, 71
2, 27648, Note_on_c, 0, 58, 71
2, 27668, Note_on_c, 0, 62, 0
2, 27668, Note_on_c, 0, 58, 0
2, 27696, Note_on_c, 0, 62, 70
2, 27719, Note_on_c, 0, 62, 0
2, 27720, Note_on_c, 0, 63, 70
2, 27743, Note_on_c, 0, 63, 0
2, 27744, Note_on_c, 0, 62, 70
2, 27789, Note_on_c, 0, 62, 0
2, 27792, Note_on_c, 0, 60, 70
2, 27837, Note_on_c, 0, 60, 0
2, 27840, Note_on_c, 0, 58, 70
2, 27885, Note_on_c, 0, 58, 0
2, 27888, Note_on_c, 0, 57, 70
2, 27933, Note_on_c, 0, 57, 0
2, 27936, Note_on_c, 0, 57, 70
2, 28128, Note_on_c, 0, 57, 0
2, 28128, Note_on_c, 0, 58, 70
2, 28201, Note_on_c, 0, 58, 0
2, 28272, Note_on_c, 0, 77, 75
2, 28317, Note_on_c, 0, 77, 0
2, 28320, Note_on_c, 0, 77, 75
2, 28368, Note_on_c, 0, 77, 0
2, 28368, Note_on_c, 0, 82, 75
2, 28413, Note_on_c, 0, 82, 0
2, 28416, Note_on_c, 0, 82, 75
2, 28464, Note_on_c, 0, 82, 0
2, 28464, Note_on_c, 0, 81, 75
2, 28509, Note_on_c, 0, 81, 0
2, 28560, Note_on_c, 0, 79, 75
2, 28605, Note_on_c, 0, 79, 0
2, 28656, Note_on_c, 0, 77, 75
2, 28701, Note_on_c, 0, 77, 0
2, 28752, Note_on_c, 0, 75, 75
2, 28797, Note_on_c, 0, 75, 0
2, 28848, Note_on_c, 0, 74, 75
2, 28893, Note_on_c, 0, 74, 0
2, 28896, Note_on_c, 0, 77, 75
2, 28944, Note_on_c, 0, 77, 0
2, 28944, Note_on_c, 0, 82, 75
2, 28989, Note_on_c, 0, 82, 0
2, 28992, Note_on_c, 0, 82, 75
2, 29040, Note_on_c, 0, 82, 0
2, 29040, Note_on_c, 0, 81, 75
2, 29085, Note_on_c, 0, 81, 0
2, 29112, Note_on_c, 0, 79, 75
2, 29135, Note_on_c, 0, 79, 0
2, 29136, Note_on_c, 0, 78, 75
2, 29159, Note_on_c, 0, 78, 0
2, 29160, Note_on_c, 0, 79, 75
2, 29183, Note_on_c, 0, 79, 0
2, 29208, Note_on_c, 0, 77, 75
2, 29231, Note_on_c, 0, 77, 0
2, 29232, Note_on_c, 0, 76, 75
2, 29255, Note_on_c, 0, 76, 0
2, 29256, Note_on_c, 0, 77, 75
2, 29279, Note_on_c, 0, 77, 0
2, 29304, Note_on_c, 0, 75, 75
2, 29327, Note_on_c, 0, 75, 0
2, 29328, Note_on_c, 0, 74, 75
2, 29351, Note_on_c, 0, 74, 0
2, 29352, Note_on_c, 0, 75, 75
2, 29375, Note_on_c, 0, 75, 0
2, 29400, Note_on_c, 0, 74, 75
2, 29423, Note_on_c, 0, 74, 0
2, 29424, Note_on_c, 0, 75, 75
2, 29447, Note_on_c, 0, 75, 0
2, 29448, Note_on_c, 0, 77, 75
2, 29471, Note_on_c, 0, 77, 0
2, 29472, Note_on_c, 0, 79, 75
2, 29495, Note_on_c, 0, 79, 0
2, 29496, Note_on_c, 0, 81, 75
2, 29519, Note_on_c, 0, 81, 0
2, 29520, Note_on_c, 0, 82, 75
2, 29543, Note_on_c, 0, 82, 0
2, 29544, Note_on_c, 0, 84, 75
2, 29567, Note_on_c, 0, 84, 0
2, 29568, Note_on_c, 0, 86, 75
2, 29591, Note_on_c, 0, 86, 0
2, 29592, Note_on_c, 0, 82, 75
2, 29615, Note_on_c, 0, 82, 0
2, 29616, Note_on_c, 0, 81, 75
2, 29639, Note_on_c, 0, 81, 0
2, 29640, Note_on_c, 0, 79, 75
2, 29663, Note_on_c, 0, 79, 0
2, 29664, Note_on_c, 0, 77, 75
2, 29841, Note_on_c, 0, 77, 0
2, 29856, Note_on_c, 0, 75, 75
2, 29869, Note_on_c, 0, 75, 0
2, 29870, Note_on_c, 0, 77, 75
2, 29883, Note_on_c, 0, 77, 0
2, 29884, Note_on_c, 0, 75, 75
2, 29897, Note_on_c, 0, 75, 0
2, 29898, Note_on_c, 0, 77, 75
2, 29911, Note_on_c, 0, 77, 0
2, 29912, Note_on_c, 0, 75, 75
2, 29925, Note_on_c, 0, 75, 0
2, 29926, Note_on_c, 0, 74, 75
2, 29938, Note_on_c, 0, 74, 0
2, 29939, Note_on_c, 0, 75, 75
2, 29951, Note_on_c, 0, 75, 0
2, 29952, Note_on_c, 0, 74, 75
2, 29975, Note_on_c, 0, 74, 0
2, 29976, Note_on_c, 0, 70, 75
2, 29999, Note_on_c, 0, 70, 0
2, 30000, Note_on_c, 0, 69, 75
2, 30023, Note_on_c, 0, 69, 0
2, 30024, Note_on_c, 0, 70, 75
2, 30047, Note_on_c, 0, 70, 0
2, 30048, Note_on_c, 0, 72, 75
2, 30071, Note_on_c, 0, 72, 0
2, 30072, Note_on_c, 0, 70, 75
2, 30095, Note_on_c, 0, 70, 0
2, 30096, Note_on_c, 0, 69, 75
2, 30119, Note_on_c, 0, 69, 0
2, 30120, Note_on_c, 0, 70, 75
2, 30143, Note_on_c, 0, 70, 0
2, 30144, Note_on_c, 0, 74, 75
2, 30167, Note_on_c, 0, 74, 0
2, 30168, Note_on_c, 0, 72, 75
2, 30191, Note_on_c, 0, 72, 0
2, 30192, Note_on_c, 0, 70, 75
2, 30215, Note_on_c, 0, 70, 0
2, 30216, Note_on_c, 0, 69, 75
2, 30239, Note_on_c, 0, 69, 0
2, 30240, Note_on_c, 0, 67, 75
2, 30263, Note_on_c, 0, 67, 0
2, 30264, Note_on_c, 0, 75, 75
2, 30287, Note_on_c, 0, 75, 0
2, 30288, Note_on_c, 0, 79, 75
2, 30311, Note_on_c, 0, 79, 0
2, 30312, Note_on_c, 0, 77, 75
2, 30335, Note_on_c, 0, 77, 0
2, 30336, Note_on_c, 0, 75, 75
2, 30359, Note_on_c, 0, 75, 0
2, 30360, Note_on_c, 0, 74, 75
2, 30383, Note_on_c, 0, 74, 0
2, 30384, Note_on_c, 0, 72, 75
2, 30407, Note_on_c, 0, 72, 0
2, 30408, Note_on_c, 0, 70, 75
2, 30431, Note_on_c, 0, 70, 0
2, 30432, Note_on_c, 0, 69, 75
2, 30455, Note_on_c, 0, 69, 0
2, 30456, Note_on_c, 0, 67, 75
2, 30479, Note_on_c, 0, 67, 0
2, 30480, Note_on_c, 0, 65, 75
2, 30503, Note_on_c, 0, 65, 0
2, 30504, Note_on_c, 0, 63, 75
2, 30527, Note_on_c, 0, 63, 0
2, 30528, Note_on_c, 0, 62, 75
2, 30551, Note_on_c, 0, 62, 0
2, 30552, Note_on_c, 0, 70, 75
2, 30575, Note_on_c, 0, 70, 0
2, 30576, Note_on_c, 0, 69, 75
2, 30599, Note_on_c, 0, 69, 0
2, 30600, Note_on_c, 0, 70, 75
2, 30623, Note_on_c, 0, 70, 0
2, 30624, Note_on_c, 0, 72, 75
2, 30647, Note_on_c, 0, 72, 0
2, 30648, Note_on_c, 0, 70, 75
2, 30671, Note_on_c, 0, 70, 0
2, 30672, Note_on_c, 0, 69, 75
2, 30695, Note_on_c, 0, 69, 0
2, 30696, Note_on_c, 0, 70, 75
2, 30719, Note_on_c, 0, 70, 0
2, 30720, Note_on_c, 0, 74, 75
2, 30743, Note_on_c, 0, 74, 0
2, 30744, Note_on_c, 0, 72, 75
2, 30767, Note_on_c, 0, 72, 0
2, 30768, Note_on_c, 0, 70, 75
2, 30791, Note_on_c, 0, 70, 0
2, 30792, Note_on_c, 0, 69, 75
2, 30815, Note_on_c, 0, 69, 0
2, 30816, Note_on_c, 0, 67, 75
2, 30839, Note_on_c, 0, 67, 0
2, 30840, Note_on_c, 0, 75, 75
2, 30863, Note_on_c, 0, 75, 0
2, 30864, Note_on_c, 0, 79, 75
2, 30887, Note_on_c, 0, 79, 0
2, 30888, Note_on_c, 0, 77, 75
2, 30911, Note_on_c, 0, 77, 0
2, 30912, Note_on_c, 0, 75, 75
2, 30935, Note_on_c, 0, 75, 0
2, 30936, Note_on_c, 0, 74, 75
2, 30959, Note_on_c, 0, 74, 0
2, 30960, Note_on_c, 0, 72, 75
2, 30983, Note_on_c, 0, 72, 0
2, 30984, Note_on_c, 0, 70, 75
2, 31007, Note_on_c, 0, 70, 0
2, 31008, Note_on_c, 0, 69, 75
2, 31031, Note_on_c, 0, 69, 0
2, 31032, Note_on_c, 0, 67, 75
2, 31055, Note_on_c, 0, 67, 0
2, 31056, Note_on_c, 0, 65, 75
2, 31079, Note_on_c, 0, 65, 0
2, 31080, Note_on_c, 0, 63, 75
2, 31103, Note_on_c, 0, 63, 0
2, 31104, Note_on_c, 0, 62, 75
2, 31143, Note_on_c, 0, 62, 0
2, 31416, Note_on_c, 0, 70, 75
2, 31439, Note_on_c, 0, 70, 0
2, 31440, Note_on_c, 0, 72, 75
2, 31463, Note_on_c, 0, 72, 0
2, 31464, Note_on_c, 0, 74, 75
2, 31487, Note_on_c, 0, 74, 0
2, 31488, Note_on_c, 0, 75, 75
2, 31511, Note_on_c, 0, 75, 0
2, 31512, Note_on_c, 0, 77, 75
2, 31535, Note_on_c, 0, 77, 0
2, 31536, Note_on_c, 0, 79, 75
2, 31559, Note_on_c, 0, 79, 0
2, 31560, Note_on_c, 0, 81, 75
2, 31583, Note_on_c, 0, 81, 0
2, 31584, Note_on_c, 0, 82, 75
2, 31607, Note_on_c, 0, 82, 0
2, 31608, Note_on_c, 0, 84, 75
2, 31631, Note_on_c, 0, 84, 0
2, 31632, Note_on_c, 0, 86, 75
2, 31655, Note_on_c, 0, 86, 0
2, 31656, Note_on_c, 0, 84, 75
2, 31679, Note_on_c, 0, 84, 0
2, 31680, Note_on_c, 0, 82, 91
2, 31821, Note_on_c, 0, 82, 0
2, 31824, Note_on_c, 0, 80, 75
2, 31869, Note_on_c, 0, 80, 0
2, 31872, Note_on_c, 0, 79, 75
2, 31917, Note_on_c, 0, 79, 0
2, 31920, Note_on_c, 0, 77, 75
2, 31965, Note_on_c, 0, 77, 0
2, 31968, Note_on_c, 0, 77, 91
2, 32064, Note_on_c, 0, 77, 0
2, 32064, Note_on_c, 0, 76, 75
2, 32109, Note_on_c, 0, 76, 0
2, 32112, Note_on_c, 0, 85, 75
2, 32112, Note_on_c, 0, 82, 75
2, 32157, Note_on_c, 0, 85, 0
2, 32157, Note_on_c, 0, 82, 0
2, 32160, Note_on_c, 0, 84, 75
2, 32160, Note_on_c, 0, 80, 75
2, 32205, Note_on_c, 0, 84, 0
2, 32205, Note_on_c, 0, 80, 0
2, 32208, Note_on_c, 0, 82, 75
2, 32208, Note_on_c, 0, 79, 75
2, 32253, Note_on_c, 0, 82, 0
2, 32253, Note_on_c, 0, 79, 0
2, 32256, Note_on_c, 0, 82, 91
2, 32256, Note_on_c, 0, 79, 91
2, 32352, Note_on_c, 0, 82, 0
2, 32352, Note_on_c, 0, 79, 0
2, 32352, Note_on_c, 0, 80, 75
2, 32352, Note_on_c, 0, 77, 75
2, 32397, Note_on_c, 0, 80, 0
2, 32397, Note_on_c, 0, 77, 0
2, 32400, Note_on_c, 0, 84, 75
2, 32400, Note_on_c, 0, 80, 75
2, 32445, Note_on_c, 0, 84, 0
2, 32445, Note_on_c, 0, 80, 0
2, 32448, Note_on_c, 0, 82, 75
2, 32448, Note_on_c, 0, 79, 75
2, 32493, Note_on_c, 0, 82, 0
2, 32493, Note_on_c, 0, 79, 0
2, 32496, Note_on_c, 0, 80, 75
2, 32496, Note_on_c, 0, 77, 75
2, 32541, Note_on_c, 0, 80, 0
2, 32541, Note_on_c, 0, 77, 0
2, 32544, Note_on_c, 0, 80, 75
2, 32557, Note_on_c, 0, 80, 0
2, 32558, Note_on_c, 0, 82, 75
2, 32571, Note_on_c, 0, 82, 0
2, 32572, Note_on_c, 0, 80, 75
2, 32585, Note_on_c, 0, 80, 0
2, 32586, Note_on_c, 0, 82, 75
2, 32599, Note_on_c, 0, 82, 0
2, 32600, Note_on_c, 0, 80, 75
2, 32613, Note_on_c, 0, 80, 0
2, 32614, Note_on_c, 0, 79, 75
2, 32626, Note_on_c, 0, 79, 0
2, 32627, Note_on_c, 0, 80, 75
2, 32640, Note_on_c, 0, 80, 0
2, 32640, Note_on_c, 0, 79, 75
2, 32640, Note_on_c, 0, 76, 75
2, 32685, Note_on_c, 0, 79, 0
2, 32685, Note_on_c, 0, 76, 0
2, 32688, Note_on_c, 0, 73, 75
2, 32688, Note_on_c, 0, 70, 75
2, 32733, Note_on_c, 0, 73, 0
2, 32733, Note_on_c, 0, 70, 0
2, 32736, Note_on_c, 0, 72, 75
2, 32736, Note_on_c, 0, 68, 75
2, 32781, Note_on_c, 0, 72, 0
2, 32781, Note_on_c, 0, 68, 0
2, 32784, Note_on_c, 0, 70, 75
2, 32784, Note_on_c, 0, 67, 75
2, 32829, Note_on_c, 0, 70, 0
2, 32829, Note_on_c, 0, 67, 0
2, 32832, Note_on_c, 0, 70, 91
2, 32832, Note_on_c, 0, 67, 91
2, 32928, Note_on_c, 0, 70, 0
2, 32928, Note_on_c, 0, 67, 0
2, 32928, Note_on_c, 0, 68, 75
2, 32928, Note_on_c, 0, 65, 75
2, 32973, Note_on_c, 0, 68, 0
2, 32973, Note_on_c, 0, 65, 0
2, 32976, Note_on_c, 0, 72, 75
2, 32976, Note_on_c, 0, 68, 75
2, 33021, Note_on_c, 0, 72, 0
2, 33021, Note_on_c, 0, 68, 0
2, 33024, Note_on_c, 0, 70, 75
2, 33024, Note_on_c, 0, 67, 75
2, 33069, Note_on_c, 0, 70, 0
2, 33069, Note_on_c, 0, 67, 0
2, 33072, Note_on_c, 0, 68, 75
2, 33072, Note_on_c, 0, 65, 75
2, 33117, Note_on_c, 0, 68, 0
2, 33117, Note_on_c, 0, 65, 0
2, 33120, Note_on_c, 0, 68, 75
2, 33133, Note_on_c, 0, 68, 0
2, 33134, Note_on_c, 0, 70, 75
2, 33147, Note_on_c, 0, 70, 0
2, 33148, Note_on_c, 0, 68, 75
2, 33161, Note_on_c, 0, 68, 0
2, 33162, Note_on_c, 0, 70, 75
2, 33175, Note_on_c, 0, 70, 0
2, 33176, Note_on_c, 0, 68, 75
2, 33189, Note_on_c, 0, 68, 0
2, 33190, Note_on_c, 0, 67, 75
2, 33202, Note_on_c, 0, 67, 0
2, 33203, Note_on_c, 0, 68, 75
2, 33215, Note_on_c, 0, 68, 0
2, 33216, Note_on_c, 0, 67, 75
2, 33216, Note_on_c, 0, 64, 75
2, 33305, Note_on_c, 0, 67, 0
2, 33305, Note_on_c, 0, 64, 0
2, 33408, Note_on_c, 0, 80, 81
2, 33431, Note_on_c, 0, 80, 0
2, 33432, Note_on_c, 0, 84, 81
2, 33455, Note_on_c, 0, 84, 0
2, 33456, Note_on_c, 0, 82, 81
2, 33479, Note_on_c, 0, 82, 0
2, 33480, Note_on_c, 0, 80, 81
2, 33503, Note_on_c, 0, 80, 0
2, 33504, Note_on_c, 0, 79, 81
2, 33527, Note_on_c, 0, 79, 0
2, 33528, Note_on_c, 0, 77, 81
2, 33551, Note_on_c, 0, 77, 0
2, 33552, Note_on_c, 0, 75, 81
2, 33575, Note_on_c, 0, 75, 0
2, 33576, Note_on_c, 0, 73, 81
2, 33599, Note_on_c, 0, 73, 0
2, 33600, Note_on_c, 0, 72, 81
2, 33623, Note_on_c, 0, 72, 0
2, 33624, Note_on_c, 0, 70, 81
2, 33647, Note_on_c, 0, 70, 0
2, 33648, Note_on_c, 0, 68, 81
2, 33671, Note_on_c, 0, 68, 0
2, 33672, Note_on_c, 0, 67, 81
2, 33695, Note_on_c, 0, 67, 0
2, 33696, Note_on_c, 0, 68, 81
2, 33719, Note_on_c, 0, 68, 0
2, 33720, Note_on_c, 0, 72, 81
2, 33743, Note_on_c, 0, 72, 0
2, 33744, Note_on_c, 0, 70, 81
2, 33767, Note_on_c, 0, 70, 0
2, 33768, Note_on_c, 0, 68, 81
2, 33791, Note_on_c, 0, 68, 0
2, 33792, Note_on_c, 0, 67, 81
2, 33815, Note_on_c, 0, 67, 0
2, 33816, Note_on_c, 0, 65, 81
2, 33839, Note_on_c, 0, 65, 0
2, 33840, Note_on_c, 0, 63, 81
2, 33863, Note_on_c, 0, 63, 0
2, 33864, Note_on_c, 0, 61, 81
2, 33887, Note_on_c, 0, 61, 0
2, 33888, Note_on_c, 0, 60, 81
2, 33911, Note_on_c, 0, 60, 0
2, 33912, Note_on_c, 0, 58, 78
2, 33935, Note_on_c, 0, 58, 0
2, 33936, Note_on_c, 0, 56, 76
2, 33959, Note_on_c, 0, 56, 0
2, 33960, Note_on_c, 0, 55, 74
2, 33983, Note_on_c, 0, 55, 0
2, 33984, Note_on_c, 0, 56, 88
2, 34125, Note_on_c, 0, 56, 0
2, 34128, Note_on_c, 0, 54, 64
2, 34173, Note_on_c, 0, 54, 0
2, 34176, Note_on_c, 0, 63, 64
2, 34221, Note_on_c, 0, 63, 0
2, 34224, Note_on_c, 0, 54, 65
2, 34269, Note_on_c, 0, 54, 0
2, 34272, Note_on_c, 0, 54, 81
2, 34413, Note_on_c, 0, 54, 0
2, 34416, Note_on_c, 0, 53, 67
2, 34461, Note_on_c, 0, 53, 0
2, 34464, Note_on_c, 0, 63, 67
2, 34509, Note_on_c, 0, 63, 0
2, 34512, Note_on_c, 0, 60, 68
2, 34557, Note_on_c, 0, 60, 0
2, 34560, Note_on_c, 0, 61, 84
2, 34701, Note_on_c, 0, 61, 0
2, 34704, Note_on_c, 0, 58, 70
2, 34749, Note_on_c, 0, 58, 0
2, 34752, Note_on_c, 0, 65, 70
2, 34797, Note_on_c, 0, 65, 0
2, 34800, Note_on_c, 0, 56, 71
2, 34845, Note_on_c, 0, 56, 0
2, 34848, Note_on_c, 0, 56, 87
2, 34989, Note_on_c, 0, 56, 0
2, 34992, Note_on_c, 0, 55, 73
2, 35037, Note_on_c, 0, 55, 0
2, 35040, Note_on_c, 0, 65, 73
2, 35085, Note_on_c, 0, 65, 0
2, 35088, Note_on_c, 0, 62, 74
2, 35133, Note_on_c, 0, 62, 0
2, 35136, Note_on_c, 0, 63, 90
2, 35277, Note_on_c, 0, 63, 0
2, 35280, Note_on_c, 0, 60, 76
2, 35325, Note_on_c, 0, 60, 0
2, 35328, Note_on_c, 0, 67, 76
2, 35373, Note_on_c, 0, 67, 0
2, 35376, Note_on_c, 0, 63, 77
2, 35421, Note_on_c, 0, 63, 0
2, 35424, Note_on_c, 0, 68, 93
2, 35565, Note_on_c, 0, 68, 0
2, 35568, Note_on_c, 0, 65, 79
2, 35613, Note_on_c, 0, 65, 0
2, 35616, Note_on_c, 0, 62, 79
2, 35661, Note_on_c, 0, 62, 0
2, 35664, Note_on_c, 0, 60, 80
2, 35709, Note_on_c, 0, 60, 0
2, 35736, Note_on_c, 0, 55, 80
2, 35759, Note_on_c, 0, 55, 0
2, 35760, Note_on_c, 0, 55, 81
2, 35783, Note_on_c, 0, 55, 0
2, 35784, Note_on_c, 0, 55, 81
2, 35807, Note_on_c, 0, 55, 0
2, 35832, Note_on_c, 0, 59, 81
2, 35855, Note_on_c, 0, 59, 0
2, 35856, Note_on_c, 0, 59, 81
2, 35879, Note_on_c, 0, 59, 0
2, 35880, Note_on_c, 0, 59, 81
2, 35903, Note_on_c, 0, 59, 0
2, 35928, Note_on_c, 0, 62, 81
2, 35951, Note_on_c, 0, 62, 0
2, 35952, Note_on_c, 0, 62, 81
2, 35975, Note_on_c, 0, 62, 0
2, 35976, Note_on_c, 0, 62, 81
2, 35999, Note_on_c, 0, 62, 0
2, 36048, Note_on_c, 0, 67, 81
2, 36071, Note_on_c, 0, 67, 0
2, 36072, Note_on_c, 0, 69, 81
2, 36095, Note_on_c, 0, 69, 0
2, 36096, Note_on_c, 0, 71, 81
2, 36119, Note_on_c, 0, 71, 0
2, 36120, Note_on_c, 0, 67, 81
2, 36143, Note_on_c, 0, 67, 0
2, 36144, Note_on_c, 0, 71, 81
2, 36167, Note_on_c, 0, 71, 0
2, 36168, Note_on_c, 0, 72, 81
2, 36191, Note_on_c, 0, 72, 0
2, 36192, Note_on_c, 0, 74, 81
2, 36215, Note_on_c, 0, 74, 0
2, 36216, Note_on_c, 0, 71, 81
2, 36239, Note_on_c, 0, 71, 0
2, 36240, Note_on_c, 0, 74, 81
2, 36263, Note_on_c, 0, 74, 0
2, 36264, Note_on_c, 0, 75, 81
2, 36287, Note_on_c, 0, 75, 0
2, 36288, Note_on_c, 0, 77, 81
2, 36311, Note_on_c, 0, 77, 0
2, 36312, Note_on_c, 0, 74, 81
2, 36335, Note_on_c, 0, 74, 0
2, 36336, Note_on_c, 0, 83, 81
2, 36359, Note_on_c, 0, 83, 0
2, 36360, Note_on_c, 0, 84, 81
2, 36383, Note_on_c, 0, 84, 0
2, 36384, Note_on_c, 0, 86, 81
2, 36407, Note_on_c, 0, 86, 0
2, 36408, Note_on_c, 0, 84, 81
2, 36431, Note_on_c, 0, 84, 0
2, 36432, Note_on_c, 0, 83, 81
2, 36455, Note_on_c, 0, 83, 0
2, 36456, Note_on_c, 0, 80, 81
2, 36479, Note_on_c, 0, 80, 0
2, 36480, Note_on_c, 0, 79, 81
2, 36503, Note_on_c, 0, 79, 0
2, 36504, Note_on_c, 0, 77, 81
2, 36527, Note_on_c, 0, 77, 0
2, 36528, Note_on_c, 0, 75, 81
2, 36551, Note_on_c, 0, 75, 0
2, 36552, Note_on_c, 0, 74, 81
2, 36575, Note_on_c, 0, 74, 0
2, 36576, Note_on_c, 0, 75, 81
2, 36599, Note_on_c, 0, 75, 0
2, 36600, Note_on_c, 0, 77, 81
2, 36623, Note_on_c, 0, 77, 0
2, 36624, Note_on_c, 0, 79, 81
2, 36647, Note_on_c, 0, 79, 0
2, 36648, Note_on_c, 0, 77, 81
2, 36671, Note_on_c, 0, 77, 0
2, 36672, Note_on_c, 0, 75, 81
2, 36695, Note_on_c, 0, 75, 0
2, 36696, Note_on_c, 0, 74, 81
2, 36719, Note_on_c, 0, 74, 0
2, 36720, Note_on_c, 0, 72, 81
2, 36743, Note_on_c, 0, 72, 0
2, 36744, Note_on_c, 0, 71, 81
2, 36767, Note_on_c, 0, 71, 0
2, 36768, Note_on_c, 0, 72, 81
2, 36791, Note_on_c, 0, 72, 0
2, 36792, Note_on_c, 0, 83, 81
2, 36815, Note_on_c, 0, 83, 0
2, 36816, Note_on_c, 0, 84, 81
2, 36839, Note_on_c, 0, 84, 0
2, 36840, Note_on_c, 0, 79, 81
2, 36863, Note_on_c, 0, 79, 0
2, 36864, Note_on_c, 0, 82, 81
2, 36887, Note_on_c, 0, 82, 0
2, 36888, Note_on_c, 0, 80, 80
2, 36911, Note_on_c, 0, 80, 0
2, 36912, Note_on_c, 0, 79, 80
2, 36935, Note_on_c, 0, 79, 0
2, 36936, Note_on_c, 0, 77, 79
2, 36959, Note_on_c, 0, 77, 0
2, 36960, Note_on_c, 0, 75, 79
2, 37049, Note_on_c, 0, 75, 0
2, 37056, Note_on_c, 0, 74, 77
2, 37069, Note_on_c, 0, 74, 0
2, 37070, Note_on_c, 0, 75, 76
2, 37083, Note_on_c, 0, 75, 0
2, 37084, Note_on_c, 0, 74, 76
2, 37097, Note_on_c, 0, 74, 0
2, 37098, Note_on_c, 0, 75, 76
2, 37111, Note_on_c, 0, 75, 0
2, 37112, Note_on_c, 0, 74, 76
2, 37125, Note_on_c, 0, 74, 0
2, 37126, Note_on_c, 0, 72, 75
2, 37138, Note_on_c, 0, 72, 0
2, 37139, Note_on_c, 0, 74, 75
2, 37151, Note_on_c, 0, 74, 0
2, 37152, Note_on_c, 0, 72, 75
2, 37172, Note_on_c, 0, 72, 0
2, 37200, Note_on_c, 0, 67, 75
2, 37223, Note_on_c, 0, 67, 0
2, 37224, Note_on_c, 0, 68, 75
2, 37247, Note_on_c, 0, 68, 0
2, 37248, Note_on_c, 0, 67, 75
2, 37293, Note_on_c, 0, 67, 0
2, 37296, Note_on_c, 0, 67, 75
2, 37341, Note_on_c, 0, 67, 0
2, 37344, Note_on_c, 0, 67, 75
2, 37389, Note_on_c, 0, 67, 0
2, 37392, Note_on_c, 0, 67, 75
2, 37437, Note_on_c, 0, 67, 0
2, 37440, Note_on_c, 0, 68, 75
2, 37728, Note_on_c, 0, 62, 75
2, 37748, Note_on_c, 0, 68, 0
2, 37748, Note_on_c, 0, 62, 0
2, 37776, Note_on_c, 0, 68, 75
2, 37776, Note_on_c, 0, 65, 75
2, 37799, Note_on_c, 0, 68, 0
2, 37799, Note_on_c, 0, 65, 0
2, 37800, Note_on_c, 0, 70, 75
2, 37800, Note_on_c, 0, 67, 75
2, 37823, Note_on_c, 0, 70, 0
2, 37823, Note_on_c, 0, 67, 0
2, 37824, Note_on_c, 0, 68, 75
2, 37824, Note_on_c, 0, 65, 75
2, 37869, Note_on_c, 0, 68, 0
2, 37869, Note_on_c, 0, 65, 0
2, 37872, Note_on_c, 0, 72, 75
2, 37872, Note_on_c, 0, 68, 75
2, 37917, Note_on_c, 0, 72, 0
2, 37917, Note_on_c, 0, 68, 0
2, 37920, Note_on_c, 0, 70, 75
2, 37920, Note_on_c, 0, 67, 75
2, 37965, Note_on_c, 0, 70, 0
2, 37965, Note_on_c, 0, 67, 0
2, 37968, Note_on_c, 0, 68, 75
2, 37968, Note_on_c, 0, 65, 75
2, 38013, Note_on_c, 0, 68, 0
2, 38013, Note_on_c, 0, 65, 0
2, 38064, Note_on_c, 0, 67, 75
2, 38064, Note_on_c, 0, 63, 75
2, 38087, Note_on_c, 0, 67, 0
2, 38087, Note_on_c, 0, 63, 0
2, 38088, Note_on_c, 0, 68, 75
2, 38088, Note_on_c, 0, 65, 75
2, 38111, Note_on_c, 0, 68, 0
2, 38111, Note_on_c, 0, 65, 0
2, 38112, Note_on_c, 0, 67, 75
2, 38112, Note_on_c, 0, 63, 75
2, 38157, Note_on_c, 0, 67, 0
2, 38157, Note_on_c, 0, 63, 0
2, 38160, Note_on_c, 0, 70, 75
2, 38160, Note_on_c, 0, 67, 75
2, 38205, Note_on_c, 0, 70, 0
2, 38205, Note_on_c, 0, 67, 0
2, 38208, Note_on_c, 0, 68, 75
2, 38208, Note_on_c, 0, 65, 75
2, 38253, Note_on_c, 0, 68, 0
2, 38253, Note_on_c, 0, 65, 0
2, 38256, Note_on_c, 0, 67, 75
2, 38256, Note_on_c, 0, 63, 75
2, 38301, Note_on_c, 0, 67, 0
2, 38301, Note_on_c, 0, 63, 0
2, 38304, Note_on_c, 0, 65, 75
2, 38304, Note_on_c, 0, 62, 75
2, 38349, Note_on_c, 0, 65, 0
2, 38349, Note_on_c, 0, 62, 0
2, 38352, Note_on_c, 0, 63, 75
2, 38352, Note_on_c, 0, 60, 75
2, 38397, Note_on_c, 0, 63, 0
2, 38397, Note_on_c, 0, 60, 0
2, 38400, Note_on_c, 0, 62, 75
2, 38400, Note_on_c, 0, 58, 75
2, 38445, Note_on_c, 0, 62, 0
2, 38445, Note_on_c, 0, 58, 0
2, 38448, Note_on_c, 0, 60, 75
2, 38448, Note_on_c, 0, 56, 75
2, 38493, Note_on_c, 0, 60, 0
2, 38493, Note_on_c, 0, 56, 0
2, 38496, Note_on_c, 0, 58, 75
2, 38496, Note_on_c, 0, 55, 75
2, 38541, Note_on_c, 0, 58, 0
2, 38541, Note_on_c, 0, 55, 0
2, 38544, Note_on_c, 0, 56, 75
2, 38544, Note_on_c, 0, 53, 75
2, 38589, Note_on_c, 0, 56, 0
2, 38589, Note_on_c, 0, 53, 0
2, 38640, Note_on_c, 0, 70, 75
2, 38685, Note_on_c, 0, 70, 0
2, 38688, Note_on_c, 0, 70, 75
2, 38736, Note_on_c, 0, 70, 0
2, 38736, Note_on_c, 0, 75, 75
2, 38781, Note_on_c, 0, 75, 0
2, 38784, Note_on_c, 0, 75, 75
2, 38832, Note_on_c, 0, 75, 0
2, 38832, Note_on_c, 0, 74, 75
2, 38877, Note_on_c, 0, 74, 0
2, 38928, Note_on_c, 0, 72, 75
2, 38973, Note_on_c, 0, 72, 0
2, 39024, Note_on_c, 0, 70, 75
2, 39069, Note_on_c, 0, 70, 0
2, 39120, Note_on_c, 0, 68, 75
2, 39165, Note_on_c, 0, 68, 0
2, 39192, Note_on_c, 0, 67, 75
2, 39215, Note_on_c, 0, 67, 0
2, 39216, Note_on_c, 0, 70, 75
2, 39239, Note_on_c, 0, 70, 0
2, 39240, Note_on_c, 0, 67, 75
2, 39263, Note_on_c, 0, 67, 0
2, 39264, Note_on_c, 0, 75, 75
2, 39287, Note_on_c, 0, 75, 0
2, 39288, Note_on_c, 0, 70, 75
2, 39311, Note_on_c, 0, 70, 0
2, 39312, Note_on_c, 0, 79, 75
2, 39335, Note_on_c, 0, 79, 0
2, 39336, Note_on_c, 0, 77, 75
2, 39359, Note_on_c, 0, 77, 0
2, 39360, Note_on_c, 0, 75, 75
2, 39383, Note_on_c, 0, 75, 0
2, 39384, Note_on_c, 0, 74, 75
2, 39407, Note_on_c, 0, 74, 0
2, 39408, Note_on_c, 0, 72, 75
2, 39431, Note_on_c, 0, 72, 0
2, 39432, Note_on_c, 0, 70, 75
2, 39455, Note_on_c, 0, 70, 0
2, 39480, Note_on_c, 0, 72, 75
2, 39503, Note_on_c, 0, 72, 0
2, 39504, Note_on_c, 0, 71, 75
2, 39527, Note_on_c, 0, 71, 0
2, 39528, Note_on_c, 0, 72, 75
2, 39551, Note_on_c, 0, 72, 0
2, 39576, Note_on_c, 0, 70, 75
2, 39599, Note_on_c, 0, 70, 0
2, 39600, Note_on_c, 0, 69, 75
2, 39623, Note_on_c, 0, 69, 0
2, 39624, Note_on_c, 0, 70, 75
2, 39647, Note_on_c, 0, 70, 0
2, 39672, Note_on_c, 0, 68, 75
2, 39695, Note_on_c, 0, 68, 0
2, 39696, Note_on_c, 0, 67, 75
2, 39719, Note_on_c, 0, 67, 0
2, 39720, Note_on_c, 0, 68, 75
2, 39743, Note_on_c, 0, 68, 0
2, 39768, Note_on_c, 0, 67, 75
2, 39791, Note_on_c, 0, 67, 0
2, 39792, Note_on_c, 0, 68, 75
2, 39815, Note_on_c, 0, 68, 0
2, 39816, Note_on_c, 0, 70, 75
2, 39839, Note_on_c, 0, 70, 0
2, 39840, Note_on_c, 0, 72, 75
2, 39863, Note_on_c, 0, 72, 0
2, 39864, Note_on_c, 0, 74, 75
2, 39887, Note_on_c, 0, 74, 0
2, 39888, Note_on_c, 0, 75, 75
2, 39911, Note_on_c, 0, 75, 0
2, 39912, Note_on_c, 0, 77, 75
2, 39935, Note_on_c, 0, 77, 0
2, 39936, Note_on_c, 0, 79, 75
2, 39959, Note_on_c, 0, 79, 0
2, 39960, Note_on_c, 0, 75, 75
2, 39983, Note_on_c, 0, 75, 0
2, 39984, Note_on_c, 0, 74, 75
2, 40007, Note_on_c, 0, 74, 0
2, 40008, Note_on_c, 0, 72, 75
2, 40031, Note_on_c, 0, 72, 0
2, 40032, Note_on_c, 0, 70, 75
2, 40165, Note_on_c, 0, 70, 0
2, 40176, Note_on_c, 0, 67, 75
2, 40221, Note_on_c, 0, 67, 0
2, 40224, Note_on_c, 0, 68, 75
2, 40237, Note_on_c, 0, 68, 0
2, 40238, Note_on_c, 0, 70, 75
2, 40251, Note_on_c, 0, 70, 0
2, 40252, Note_on_c, 0, 68, 75
2, 40265, Note_on_c, 0, 68, 0
2, 40266, Note_on_c, 0, 70, 75
2, 40279, Note_on_c, 0, 70, 0
2, 40280, Note_on_c, 0, 68, 75
2, 40293, Note_on_c, 0, 68, 0
2, 40294, Note_on_c, 0, 67, 75
2, 40306, Note_on_c, 0, 67, 0
2, 40307, Note_on_c, 0, 68, 75
2, 40319, Note_on_c, 0, 68, 0
2, 40320, Note_on_c, 0, 67, 75
2, 40343, Note_on_c, 0, 67, 0
2, 40344, Note_on_c, 0, 63, 75
2, 40367, Note_on_c, 0, 63, 0
2, 40368, Note_on_c, 0, 62, 75
2, 40391, Note_on_c, 0, 62, 0
2, 40392, Note_on_c, 0, 63, 75
2, 40415, Note_on_c, 0, 63, 0
2, 40416, Note_on_c, 0, 65, 75
2, 40439, Note_on_c, 0, 65, 0
2, 40440, Note_on_c, 0, 63, 75
2, 40463, Note_on_c, 0, 63, 0
2, 40464, Note_on_c, 0, 62, 75
2, 40487, Note_on_c, 0, 62, 0
2, 40488, Note_on_c, 0, 63, 75
2, 40511, Note_on_c, 0, 63, 0
2, 40512, Note_on_c, 0, 67, 75
2, 40535, Note_on_c, 0, 67, 0
2, 40536, Note_on_c, 0, 65, 75
2, 40559, Note_on_c, 0, 65, 0
2, 40560, Note_on_c, 0, 63, 75
2, 40583, Note_on_c, 0, 63, 0
2, 40584, Note_on_c, 0, 62, 75
2, 40607, Note_on_c, 0, 62, 0
2, 40608, Note_on_c, 0, 60, 75
2, 40631, Note_on_c, 0, 60, 0
2, 40632, Note_on_c, 0, 68, 75
2, 40655, Note_on_c, 0, 68, 0
2, 40656, Note_on_c, 0, 72, 75
2, 40679, Note_on_c, 0, 72, 0
2, 40680, Note_on_c, 0, 70, 75
2, 40703, Note_on_c, 0, 70, 0
2, 40704, Note_on_c, 0, 68, 75
2, 40727, Note_on_c, 0, 68, 0
2, 40728, Note_on_c, 0, 67, 75
2, 40751, Note_on_c, 0, 67, 0
2, 40752, Note_on_c, 0, 65, 75
2, 40775, Note_on_c, 0, 65, 0
2, 40776, Note_on_c, 0, 63, 75
2, 40799, Note_on_c, 0, 63, 0
2, 40800, Note_on_c, 0, 62, 75
2, 40823, Note_on_c, 0, 62, 0
2, 40824, Note_on_c, 0, 60, 75
2, 40847, Note_on_c, 0, 60, 0
2, 40848, Note_on_c, 0, 58, 75
2, 40871, Note_on_c, 0, 58, 0
2, 40872, Note_on_c, 0, 56, 75
2, 40895, Note_on_c, 0, 56, 0
2, 40896, Note_on_c, 0, 55, 75
2, 40919, Note_on_c, 0, 55, 0
2, 40920, Note_on_c, 0, 63, 75
2, 40943, Note_on_c, 0, 63, 0
2, 40944, Note_on_c, 0, 62, 75
2, 40967, Note_on_c, 0, 62, 0
2, 40968, Note_on_c, 0, 63, 75
2, 40991, Note_on_c, 0, 63, 0
2, 40992, Note_on_c, 0, 65, 75
2, 41015, Note_on_c, 0, 65, 0
2, 41016, Note_on_c, 0, 63, 75
2, 41039, Note_on_c, 0, 63, 0
2, 41040, Note_on_c, 0, 62, 75
2, 41063, Note_on_c, 0, 62, 0
2, 41064, Note_on_c, 0, 63, 75
2, 41087, Note_on_c, 0, 63, 0
2, 41088, Note_on_c, 0, 67, 75
2, 41111, Note_on_c, 0, 67, 0
2, 41112, Note_on_c, 0, 65, 75
2, 41135, Note_on_c, 0, 65, 0
2, 41136, Note_on_c, 0, 63, 75
2, 41159, Note_on_c, 0, 63, 0
2, 41160, Note_on_c, 0, 62, 75
2, 41183, Note_on_c, 0, 62, 0
2, 41184, Note_on_c, 0, 60, 75
2, 41207, Note_on_c, 0, 60, 0
2, 41208, Note_on_c, 0, 68, 75
2, 41231, Note_on_c, 0, 68, 0
2, 41232, Note_on_c, 0, 72, 75
2, 41255, Note_on_c, 0, 72, 0
2, 41256, Note_on_c, 0, 70, 75
2, 41279, Note_on_c, 0, 70, 0
2, 41280, Note_on_c, 0, 68, 75
2, 41303, Note_on_c, 0, 68, 0
2, 41304, Note_on_c, 0, 67, 75
2, 41327, Note_on_c, 0, 67, 0
2, 41328, Note_on_c, 0, 65, 75
2, 41351, Note_on_c, 0, 65, 0
2, 41352, Note_on_c, 0, 63, 75
2, 41375, Note_on_c, 0, 63, 0
2, 41376, Note_on_c, 0, 62, 75
2, 41399, Note_on_c, 0, 62, 0
2, 41400, Note_on_c, 0, 60, 75
2, 41423, Note_on_c, 0, 60, 0
2, 41424, Note_on_c, 0, 58, 75
2, 41447, Note_on_c, 0, 58, 0
2, 41448, Note_on_c, 0, 56, 75
2, 41471, Note_on_c, 0, 56, 0
2, 41472, Note_on_c, 0, 55, 75
2, 41511, Note_on_c, 0, 55, 0
2, 41808, Note_on_c, 0, 67, 75
2, 41856, Note_on_c, 0, 67, 0
2, 41856, Note_on_c, 0, 79, 75
2, 41901, Note_on_c, 0, 79, 0
2, 41904, Note_on_c, 0, 79, 75
2, 41949, Note_on_c, 0, 79, 0
2, 41952, Note_on_c, 0, 71, 75
2, 42000, Note_on_c, 0, 71, 0
2, 42000, Note_on_c, 0, 72, 75
2, 42045, Note_on_c, 0, 72, 0
2, 42096, Note_on_c, 0, 65, 75
2, 42144, Note_on_c, 0, 65, 0
2, 42144, Note_on_c, 0, 77, 75
2, 42189, Note_on_c, 0, 77, 0
2, 42192, Note_on_c, 0, 77, 75
2, 42237, Note_on_c, 0, 77, 0
2, 42240, Note_on_c, 0, 69, 75
2, 42288, Note_on_c, 0, 69, 0
2, 42288, Note_on_c, 0, 70, 75
2, 42333, Note_on_c, 0, 70, 0
2, 42360, Note_on_c, 0, 67, 75
2, 42383, Note_on_c, 0, 67, 0
2, 42384, Note_on_c, 0, 70, 75
2, 42407, Note_on_c, 0, 70, 0
2, 42408, Note_on_c, 0, 75, 75
2, 42431, Note_on_c, 0, 75, 0
2, 42456, Note_on_c, 0, 68, 75
2, 42479, Note_on_c, 0, 68, 0
2, 42480, Note_on_c, 0, 72, 75
2, 42503, Note_on_c, 0, 72, 0
2, 42504, Note_on_c, 0, 75, 75
2, 42527, Note_on_c, 0, 75, 0
2, 42552, Note_on_c, 0, 72, 75
2, 42575, Note_on_c, 0, 72, 0
2, 42576, Note_on_c, 0, 75, 75
2, 42599, Note_on_c, 0, 75, 0
2, 42600, Note_on_c, 0, 80, 75
2, 42623, Note_on_c, 0, 80, 0
2, 42648, Note_on_c, 0, 65, 75
2, 42671, Note_on_c, 0, 65, 0
2, 42672, Note_on_c, 0, 68, 75
2, 42695, Note_on_c, 0, 68, 0
2, 42696, Note_on_c, 0, 74, 75
2, 42719, Note_on_c, 0, 74, 0
2, 42744, Note_on_c, 0, 67, 75
2, 42767, Note_on_c, 0, 67, 0
2, 42768, Note_on_c, 0, 70, 75
2, 42791, Note_on_c, 0, 70, 0
2, 42792, Note_on_c, 0, 74, 75
2, 42815, Note_on_c, 0, 74, 0
2, 42840, Note_on_c, 0, 70, 75
2, 42863, Note_on_c, 0, 70, 0
2, 42864, Note_on_c, 0, 74, 75
2, 42887, Note_on_c, 0, 74, 0
2, 42888, Note_on_c, 0, 77, 75
2, 42911, Note_on_c, 0, 77, 0
2, 42936, Note_on_c, 0, 63, 75
2, 42959, Note_on_c, 0, 63, 0
2, 42960, Note_on_c, 0, 67, 75
2, 42983, Note_on_c, 0, 67, 0
2, 42984, Note_on_c, 0, 72, 75
2, 43007, Note_on_c, 0, 72, 0
2, 43032, Note_on_c, 0, 65, 75
2, 43055, Note_on_c, 0, 65, 0
2, 43056, Note_on_c, 0, 68, 75
2, 43079, Note_on_c, 0, 68, 0
2, 43080, Note_on_c, 0, 72, 75
2, 43103, Note_on_c, 0, 72, 0
2, 43128, Note_on_c, 0, 68, 75
2, 43151, Note_on_c, 0, 68, 0
2, 43152, Note_on_c, 0, 72, 75
2, 43175, Note_on_c, 0, 72, 0
2, 43176, Note_on_c, 0, 77, 75
2, 43199, Note_on_c, 0, 77, 0
2, 43224, Note_on_c, 0, 62, 75
2, 43247, Note_on_c, 0, 62, 0
2, 43248, Note_on_c, 0, 65, 75
2, 43271, Note_on_c, 0, 65, 0
2, 43272, Note_on_c, 0, 70, 75
2, 43295, Note_on_c, 0, 70, 0
2, 43320, Note_on_c, 0, 63, 75
2, 43343, Note_on_c, 0, 63, 0
2, 43344, Note_on_c, 0, 67, 75
2, 43367, Note_on_c, 0, 67, 0
2, 43368, Note_on_c, 0, 70, 75
2, 43391, Note_on_c, 0, 70, 0
2, 43416, Note_on_c, 0, 67, 75
2, 43439, Note_on_c, 0, 67, 0
2, 43440, Note_on_c, 0, 70, 75
2, 43463, Note_on_c, 0, 70, 0
2, 43464, Note_on_c, 0, 75, 75
2, 43487, Note_on_c, 0, 75, 0
2, 43512, Note_on_c, 0, 62, 75
2, 43535, Note_on_c, 0, 62, 0
2, 43536, Note_on_c, 0, 68, 75
2, 43559, Note_on_c, 0, 68, 0
2, 43560, Note_on_c, 0, 70, 75
2, 43583, Note_on_c, 0, 70, 0
2, 43608, Note_on_c, 0, 62, 75
2, 43631, Note_on_c, 0, 62, 0
2, 43632, Note_on_c, 0, 68, 75
2, 43655, Note_on_c, 0, 68, 0
2, 43656, Note_on_c, 0, 70, 75
2, 43679, Note_on_c, 0, 70, 0
2, 43704, Note_on_c, 0, 67, 75
2, 43727, Note_on_c, 0, 67, 0
2, 43728, Note_on_c, 0, 70, 75
2, 43751, Note_on_c, 0, 70, 0
2, 43752, Note_on_c, 0, 75, 75
2, 43775, Note_on_c, 0, 75, 0
2, 43800, Note_on_c, 0, 62, 75
2, 43823, Note_on_c, 0, 62, 0
2, 43824, Note_on_c, 0, 68, 75
2, 43847, Note_on_c, 0, 68, 0
2, 43848, Note_on_c, 0, 70, 75
2, 43871, Note_on_c, 0, 70, 0
2, 43896, Note_on_c, 0, 62, 75
2, 43919, Note_on_c, 0, 62, 0
2, 43920, Note_on_c, 0, 68, 75
2, 43943, Note_on_c, 0, 68, 0
2, 43944, Note_on_c, 0, 70, 75
2, 43967, Note_on_c, 0, 70, 0
2, 43992, Note_on_c, 0, 67, 75
2, 44015, Note_on_c, 0, 67, 0
2, 44016, Note_on_c, 0, 70, 75
2, 44039, Note_on_c, 0, 70, 0
2, 44040, Note_on_c, 0, 75, 75
2, 44063, Note_on_c, 0, 75, 0
2, 44088, Note_on_c, 0, 62, 75
2, 44111, Note_on_c, 0, 62, 0
2, 44112, Note_on_c, 0, 68, 75
2, 44135, Note_on_c, 0, 68, 0
2, 44136, Note_on_c, 0, 70, 75
2, 44159, Note_on_c, 0, 70, 0
2, 44184, Note_on_c, 0, 62, 75
2, 44207, Note_on_c, 0, 62, 0
2, 44208, Note_on_c, 0, 68, 75
2, 44231, Note_on_c, 0, 68, 0
2, 44232, Note_on_c, 0, 70, 75
2, 44255, Note_on_c, 0, 70, 0
2, 44280, Note_on_c, 0, 67, 75
2, 44303, Note_on_c, 0, 67, 0
2, 44304, Note_on_c, 0, 70, 75
2, 44327, Note_on_c, 0, 70, 0
2, 44328, Note_on_c, 0, 75, 75
2, 44351, Note_on_c, 0, 75, 0
2, 44352, Note_on_c, 0, 67, 75
2, 44365, Note_on_c, 0, 67, 0
2, 44366, Note_on_c, 0, 68, 75
2, 44379, Note_on_c, 0, 68, 0
2, 44380, Note_on_c, 0, 67, 75
2, 44393, Note_on_c, 0, 67, 0
2, 44394, Note_on_c, 0, 68, 75
2, 44407, Note_on_c, 0, 68, 0
2, 44408, Note_on_c, 0, 67, 75
2, 44421, Note_on_c, 0, 67, 0
2, 44422, Note_on_c, 0, 65, 75
2, 44434, Note_on_c, 0, 65, 0
2, 44435, Note_on_c, 0, 67, 75
2, 44447, Note_on_c, 0, 67, 0
2, 44448, Note_on_c, 0, 65, 75
2, 44537, Note_on_c, 0, 65, 0
2, 44664, Note_on_c, 0, 63, 81
2, 44687, Note_on_c, 0, 63, 0
2, 44688, Note_on_c, 0, 63, 81
2, 44711, Note_on_c, 0, 63, 0
2, 44712, Note_on_c, 0, 63, 81
2, 44735, Note_on_c, 0, 63, 0
2, 44760, Note_on_c, 0, 67, 81
2, 44783, Note_on_c, 0, 67, 0
2, 44784, Note_on_c, 0, 67, 81
2, 44807, Note_on_c, 0, 67, 0
2, 44808, Note_on_c, 0, 67, 81
2, 44831, Note_on_c, 0, 67, 0
2, 44856, Note_on_c, 0, 70, 81
2, 44879, Note_on_c, 0, 70, 0
2, 44880, Note_on_c, 0, 70, 81
2, 44903, Note_on_c, 0, 70, 0
2, 44904, Note_on_c, 0, 70, 81
2, 44927, Note_on_c, 0, 70, 0
2, 44952, Note_on_c, 0, 75, 81
2, 44975, Note_on_c, 0, 75, 0
2, 44976, Note_on_c, 0, 74, 81
2, 44999, Note_on_c, 0, 74, 0
2, 45000, Note_on_c, 0, 75, 81
2, 45023, Note_on_c, 0, 75, 0
2, 45024, Note_on_c, 0, 79, 81
2, 45047, Note_on_c, 0, 79, 0
2, 45048, Note_on_c, 0, 75, 81
2, 45071, Note_on_c, 0, 75, 0
2, 45072, Note_on_c, 0, 74, 81
2, 45095, Note_on_c, 0, 74, 0
2, 45096, Note_on_c, 0, 72, 81
2, 45119, Note_on_c, 0, 72, 0
2, 45120, Note_on_c, 0, 70, 81
2, 45143, Note_on_c, 0, 70, 0
2, 45144, Note_on_c, 0, 68, 81
2, 45167, Note_on_c, 0, 68, 0
2, 45168, Note_on_c, 0, 67, 81
2, 45191, Note_on_c, 0, 67, 0
2, 45192, Note_on_c, 0, 65, 81
2, 45215, Note_on_c, 0, 65, 0
2, 45216, Note_on_c, 0, 63, 81
2, 45239, Note_on_c, 0, 63, 0
2, 45240, Note_on_c, 0, 63, 81
2, 45263, Note_on_c, 0, 63, 0
2, 45264, Note_on_c, 0, 63, 81
2, 45287, Note_on_c, 0, 63, 0
2, 45288, Note_on_c, 0, 63, 81
2, 45311, Note_on_c, 0, 63, 0
2, 45336, Note_on_c, 0, 67, 81
2, 45359, Note_on_c, 0, 67, 0
2, 45360, Note_on_c, 0, 67, 81
2, 45383, Note_on_c, 0, 67, 0
2, 45384, Note_on_c, 0, 67, 81
2, 45407, Note_on_c, 0, 67, 0
2, 45432, Note_on_c, 0, 70, 81
2, 45455, Note_on_c, 0, 70, 0
2, 45456, Note_on_c, 0, 70, 81
2, 45479, Note_on_c, 0, 70, 0
2, 45480, Note_on_c, 0, 70, 81
2, 45503, Note_on_c, 0, 70, 0
2, 45528, Note_on_c, 0, 75, 81
2, 45551, Note_on_c, 0, 75, 0
2, 45552, Note_on_c, 0, 74, 81
2, 45575, Note_on_c, 0, 74, 0
2, 45576, Note_on_c, 0, 75, 81
2, 45599, Note_on_c, 0, 75, 0
2, 45600, Note_on_c, 0, 79, 81
2, 45623, Note_on_c, 0, 79, 0
2, 45624, Note_on_c, 0, 77, 81
2, 45647, Note_on_c, 0, 77, 0
2, 45648, Note_on_c, 0, 75, 81
2, 45671, Note_on_c, 0, 75, 0
2, 45672, Note_on_c, 0, 74, 81
2, 45695, Note_on_c, 0, 74, 0
2, 45696, Note_on_c, 0, 72, 81
2, 45719, Note_on_c, 0, 72, 0
2, 45720, Note_on_c, 0, 70, 81
2, 45743, Note_on_c, 0, 70, 0
2, 45744, Note_on_c, 0, 68, 81
2, 45767, Note_on_c, 0, 68, 0
2, 45768, Note_on_c, 0, 67, 81
2, 45791, Note_on_c, 0, 67, 0
2, 45792, Note_on_c, 0, 65, 81
2, 45815, Note_on_c, 0, 65, 0
2, 45816, Note_on_c, 0, 68, 81
2, 45839, Note_on_c, 0, 68, 0
2, 45840, Note_on_c, 0, 67, 81
2, 45863, Note_on_c, 0, 67, 0
2, 45864, Note_on_c, 0, 68, 81
2, 45887, Note_on_c, 0, 68, 0
2, 45888, Note_on_c, 0, 72, 81
2, 45911, Note_on_c, 0, 72, 0
2, 45912, Note_on_c, 0, 70, 81
2, 45935, Note_on_c, 0, 70, 0
2, 45936, Note_on_c, 0, 68, 81
2, 45959, Note_on_c, 0, 68, 0
2, 45960, Note_on_c, 0, 67, 81
2, 45983, Note_on_c, 0, 67, 0
2, 45984, Note_on_c, 0, 65, 81
2, 46007, Note_on_c, 0, 65, 0
2, 46008, Note_on_c, 0, 63, 81
2, 46031, Note_on_c, 0, 63, 0
2, 46032, Note_on_c, 0, 62, 81
2, 46055, Note_on_c, 0, 62, 0
2, 46056, Note_on_c, 0, 60, 81
2, 46079, Note_on_c, 0, 60, 0
2, 46080, Note_on_c, 0, 58, 81
2, 46103, Note_on_c, 0, 58, 0
2, 46104, Note_on_c, 0, 62, 80
2, 46127, Note_on_c, 0, 62, 0
2, 46128, Note_on_c, 0, 62, 80
2, 46151, Note_on_c, 0, 62, 0
2, 46152, Note_on_c, 0, 62, 80
2, 46175, Note_on_c, 0, 62, 0
2, 46176, Note_on_c, 0, 65, 80
2, 46199, Note_on_c, 0, 65, 0
2, 46200, Note_on_c, 0, 62, 80
2, 46223, Note_on_c, 0, 62, 0
2, 46224, Note_on_c, 0, 65, 80
2, 46247, Note_on_c, 0, 65, 0
2, 46248, Note_on_c, 0, 62, 79
2, 46271, Note_on_c, 0, 62, 0
2, 46296, Note_on_c, 0, 62, 79
2, 46319, Note_on_c, 0, 62, 0
2, 46320, Note_on_c, 0, 62, 79
2, 46343, Note_on_c, 0, 62, 0
2, 46344, Note_on_c, 0, 62, 79
2, 46367, Note_on_c, 0, 62, 0
2, 46392, Note_on_c, 0, 63, 78
2, 46415, Note_on_c, 0, 63, 0
2, 46416, Note_on_c, 0, 63, 78
2, 46439, Note_on_c, 0, 63, 0
2, 46440, Note_on_c, 0, 63, 78
2, 46463, Note_on_c, 0, 63, 0
2, 46464, Note_on_c, 0, 67, 78
2, 46487, Note_on_c, 0, 67, 0
2, 46488, Note_on_c, 0, 63, 78
2, 46511, Note_on_c, 0, 63, 0
2, 46512, Note_on_c, 0, 67, 78
2, 46535, Note_on_c, 0, 67, 0
2, 46536, Note_on_c, 0, 63, 77
2, 46559, Note_on_c, 0, 63, 0
2, 46584, Note_on_c, 0, 63, 77
2, 46607, Note_on_c, 0, 63, 0
2, 46608, Note_on_c, 0, 63, 77
2, 46631, Note_on_c, 0, 63, 0
2, 46632, Note_on_c, 0, 63, 77
2, 46655, Note_on_c, 0, 63, 0
2, 46680, Note_on_c, 0, 65, 76
2, 46703, Note_on_c, 0, 65, 0
2, 46704, Note_on_c, 0, 65, 76
2, 46727, Note_on_c, 0, 65, 0
2, 46728, Note_on_c, 0, 65, 76
2, 46751, Note_on_c, 0, 65, 0
2, 46752, Note_on_c, 0, 68, 76
2, 46775, Note_on_c, 0, 68, 0
2, 46776, Note_on_c, 0, 65, 76
2, 46799, Note_on_c, 0, 65, 0
2, 46800, Note_on_c, 0, 68, 76
2, 46823, Note_on_c, 0, 68, 0
2, 46824, Note_on_c, 0, 65, 75
2, 46847, Note_on_c, 0, 65, 0
2, 46872, Note_on_c, 0, 65, 75
2, 46895, Note_on_c, 0, 65, 0
2, 46896, Note_on_c, 0, 65, 75
2, 46919, Note_on_c, 0, 65, 0
2, 46920, Note_on_c, 0, 65, 75
2, 46943, Note_on_c, 0, 65, 0
2, 46944, Note_on_c, 0, 63, 75
2, 46967, Note_on_c, 0, 63, 0
2, 46968, Note_on_c, 0, 67, 75
2, 46991, Note_on_c, 0, 67, 0
2, 46992, Note_on_c, 0, 62, 75
2, 47015, Note_on_c, 0, 62, 0
2, 47016, Note_on_c, 0, 65, 75
2, 47039, Note_on_c, 0, 65, 0
2, 47040, Note_on_c, 0, 60, 75
2, 47063, Note_on_c, 0, 60, 0
2, 47064, Note_on_c, 0, 63, 75
2, 47087, Note_on_c, 0, 63, 0
2, 47088, Note_on_c, 0, 58, 75
2, 47111, Note_on_c, 0, 58, 0
2, 47112, Note_on_c, 0, 62, 75
2, 47135, Note_on_c, 0, 62, 0
2, 47136, Note_on_c, 0, 56, 75
2, 47159, Note_on_c, 0, 56, 0
2, 47160, Note_on_c, 0, 60, 75
2, 47183, Note_on_c, 0, 60, 0
2, 47184, Note_on_c, 0, 55, 75
2, 47207, Note_on_c, 0, 55, 0
2, 47208, Note_on_c, 0, 58, 75
2, 47231, Note_on_c, 0, 58, 0
2, 47232, Note_on_c, 0, 63, 70
2, 47255, Note_on_c, 0, 63, 0
2, 47256, Note_on_c, 0, 67, 70
2, 47279, Note_on_c, 0, 67, 0
2, 47280, Note_on_c, 0, 62, 70
2, 47303, Note_on_c, 0, 62, 0
2, 47304, Note_on_c, 0, 65, 70
2, 47327, Note_on_c, 0, 65, 0
2, 47328, Note_on_c, 0, 60, 70
2, 47351, Note_on_c, 0, 60, 0
2, 47352, Note_on_c, 0, 63, 70
2, 47375, Note_on_c, 0, 63, 0
2, 47376, Note_on_c, 0, 58, 70
2, 47399, Note_on_c, 0, 58, 0
2, 47400, Note_on_c, 0, 62, 70
2, 47423, Note_on_c, 0, 62, 0
2, 47424, Note_on_c, 0, 56, 70
2, 47447, Note_on_c, 0, 56, 0
2, 47448, Note_on_c, 0, 60, 70
2, 47471, Note_on_c, 0, 60, 0
2, 47472, Note_on_c, 0, 55, 70
2, 47495, Note_on_c, 0, 55, 0
2, 47496, Note_on_c, 0, 58, 70
2, 47519, Note_on_c, 0, 58, 0
2, 47544, Note_on_c, 0, 60, 75
2, 47567, Note_on_c, 0, 60, 0
2, 47568, Note_on_c, 0, 62, 75
2, 47591, Note_on_c, 0, 62, 0
2, 47592, Note_on_c, 0, 63, 75
2, 47615, Note_on_c, 0, 63, 0
2, 47616, Note_on_c, 0, 65, 75
2, 47639, Note_on_c, 0, 65, 0
2, 47640, Note_on_c, 0, 67, 75
2, 47663, Note_on_c, 0, 67, 0
2, 47664, Note_on_c, 0, 68, 75
2, 47687, Note_on_c, 0, 68, 0
2, 47688, Note_on_c, 0, 70, 75
2, 47711, Note_on_c, 0, 70, 0
2, 47712, Note_on_c, 0, 72, 75
2, 47757, Note_on_c, 0, 72, 0
2, 47832, Note_on_c, 0, 58, 75
2, 47855, Note_on_c, 0, 58, 0
2, 47856, Note_on_c, 0, 60, 75
2, 47879, Note_on_c, 0, 60, 0
2, 47880, Note_on_c, 0, 62, 75
2, 47903, Note_on_c, 0, 62, 0
2, 47904, Note_on_c, 0, 63, 75
2, 47927, Note_on_c, 0, 63, 0
2, 47928, Note_on_c, 0, 65, 75
2, 47951, Note_on_c, 0, 65, 0
2, 47952, Note_on_c, 0, 67, 75
2, 47975, Note_on_c, 0, 67, 0
2, 47976, Note_on_c, 0, 68, 75
2, 47999, Note_on_c, 0, 68, 0
2, 48000, Note_on_c, 0, 70, 75
2, 48045, Note_on_c, 0, 70, 0
2, 48120, Note_on_c, 0, 60, 70
2, 48143, Note_on_c, 0, 60, 0
2, 48144, Note_on_c, 0, 62, 70
2, 48167, Note_on_c, 0, 62, 0
2, 48168, Note_on_c, 0, 63, 70
2, 48191, Note_on_c, 0, 63, 0
2, 48192, Note_on_c, 0, 65, 70
2, 48215, Note_on_c, 0, 65, 0
2, 48216, Note_on_c, 0, 67, 70
2, 48239, Note_on_c, 0, 67, 0
2, 48240, Note_on_c, 0, 68, 70
2, 48263, Note_on_c, 0, 68, 0
2, 48264, Note_on_c, 0, 70, 70
2, 48287, Note_on_c, 0, 70, 0
2, 48288, Note_on_c, 0, 72, 70
2, 48333, Note_on_c, 0, 72, 0
2, 48408, Note_on_c, 0, 58, 70
2, 48431, Note_on_c, 0, 58, 0
2, 48432, Note_on_c, 0, 60, 70
2, 48455, Note_on_c, 0, 60, 0
2, 48456, Note_on_c, 0, 62, 70
2, 48479, Note_on_c, 0, 62, 0
2, 48480, Note_on_c, 0, 63, 70
2, 48503, Note_on_c, 0, 63, 0
2, 48504, Note_on_c, 0, 65, 70
2, 48527, Note_on_c, 0, 65, 0
2, 48528, Note_on_c, 0, 67, 70
2, 48551, Note_on_c, 0, 67, 0
2, 48552, Note_on_c, 0, 68, 70
2, 48575, Note_on_c, 0, 68, 0
2, 48576, Note_on_c, 0, 70, 70
2, 48599, Note_on_c, 0, 70, 0
2, 48600, Note_on_c, 0, 72, 70
2, 48623, Note_on_c, 0, 72, 0
2, 48624, Note_on_c, 0, 74, 70
2, 48647, Note_on_c, 0, 74, 0
2, 48648, Note_on_c, 0, 75, 70
2, 48660, Note_on_c, 0, 75, 0
2, 48660, Note_on_c, 0, 77, 70
2, 48672, Note_on_c, 0, 77, 0
2, 48672, Note_on_c, 0, 79, 86
2, 48720, Note_on_c, 0, 79, 0
2, 48960, Note_on_c, 0, 77, 75
2, 48983, Note_on_c, 0, 77, 0
2, 48984, Note_on_c, 0, 81, 75
2, 49007, Note_on_c, 0, 81, 0
2, 49008, Note_on_c, 0, 84, 75
2, 49031, Note_on_c, 0, 84, 0
2, 49032, Note_on_c, 0, 82, 75
2, 49055, Note_on_c, 0, 82, 0
2, 49056, Note_on_c, 0, 81, 75
2, 49079, Note_on_c, 0, 81, 0
2, 49080, Note_on_c, 0, 79, 75
2, 49103, Note_on_c, 0, 79, 0
2, 49104, Note_on_c, 0, 77, 75
2, 49127, Note_on_c, 0, 77, 0
2, 49128, Note_on_c, 0, 79, 75
2, 49151, Note_on_c, 0, 79, 0
2, 49152, Note_on_c, 0, 77, 75
2, 49175, Note_on_c, 0, 77, 0
2, 49176, Note_on_c, 0, 79, 75
2, 49199, Note_on_c, 0, 79, 0
2, 49200, Note_on_c, 0, 77, 75
2, 49223, Note_on_c, 0, 77, 0
2, 49224, Note_on_c, 0, 79, 75
2, 49247, Note_on_c, 0, 79, 0
2, 49248, Note_on_c, 0, 77, 75
2, 49271, Note_on_c, 0, 77, 0
2, 49272, Note_on_c, 0, 81, 75
2, 49295, Note_on_c, 0, 81, 0
2, 49296, Note_on_c, 0, 82, 75
2, 49319, Note_on_c, 0, 82, 0
2, 49320, Note_on_c, 0, 81, 75
2, 49343, Note_on_c, 0, 81, 0
2, 49344, Note_on_c, 0, 79, 75
2, 49367, Note_on_c, 0, 79, 0
2, 49368, Note_on_c, 0, 77, 75
2, 49391, Note_on_c, 0, 77, 0
2, 49392, Note_on_c, 0, 75, 75
2, 49415, Note_on_c, 0, 75, 0
2, 49416, Note_on_c, 0, 74, 75
2, 49439, Note_on_c, 0, 74, 0
2, 49440, Note_on_c, 0, 72, 75
2, 49463, Note_on_c, 0, 72, 0
2, 49464, Note_on_c, 0, 70, 75
2, 49487, Note_on_c, 0, 70, 0
2, 49488, Note_on_c, 0, 69, 75
2, 49511, Note_on_c, 0, 69, 0
2, 49512, Note_on_c, 0, 67, 75
2, 49535, Note_on_c, 0, 67, 0
2, 49536, Note_on_c, 0, 65, 75
2, 49559, Note_on_c, 0, 65, 0
2, 49560, Note_on_c, 0, 69, 75
2, 49583, Note_on_c, 0, 69, 0
2, 49584, Note_on_c, 0, 72, 75
2, 49607, Note_on_c, 0, 72, 0
2, 49608, Note_on_c, 0, 70, 75
2, 49631, Note_on_c, 0, 70, 0
2, 49632, Note_on_c, 0, 69, 75
2, 49655, Note_on_c, 0, 69, 0
2, 49656, Note_on_c, 0, 67, 75
2, 49679, Note_on_c, 0, 67, 0
2, 49680, Note_on_c, 0, 65, 75
2, 49703, Note_on_c, 0, 65, 0
2, 49704, Note_on_c, 0, 67, 75
2, 49727, Note_on_c, 0, 67, 0
2, 49728, Note_on_c, 0, 65, 75
2, 49751, Note_on_c, 0, 65, 0
2, 49752, Note_on_c, 0, 67, 75
2, 49775, Note_on_c, 0, 67, 0
2, 49776, Note_on_c, 0, 65, 75
2, 49799, Note_on_c, 0, 65, 0
2, 49800, Note_on_c, 0, 67, 75
2, 49823, Note_on_c, 0, 67, 0
2, 49824, Note_on_c, 0, 65, 75
2, 49847, Note_on_c, 0, 65, 0
2, 49848, Note_on_c, 0, 70, 75
2, 49871, Note_on_c, 0, 70, 0
2, 49872, Note_on_c, 0, 69, 75
2, 49895, Note_on_c, 0, 69, 0
2, 49896, Note_on_c, 0, 67, 75
2, 49919, Note_on_c, 0, 67, 0
2, 49920, Note_on_c, 0, 65, 75
2, 49943, Note_on_c, 0, 65, 0
2, 49944, Note_on_c, 0, 63, 75
2, 49967, Note_on_c, 0, 63, 0
2, 49968, Note_on_c, 0, 62, 75
2, 49991, Note_on_c, 0, 62, 0
2, 49992, Note_on_c, 0, 60, 75
2, 50015, Note_on_c, 0, 60, 0
2, 50016, Note_on_c, 0, 58, 75
2, 50039, Note_on_c, 0, 58, 0
2, 50040, Note_on_c, 0, 60, 75
2, 50063, Note_on_c, 0, 60, 0
2, 50064, Note_on_c, 0, 62, 75
2, 50087, Note_on_c, 0, 62, 0
2, 50088, Note_on_c, 0, 63, 75
2, 50111, Note_on_c, 0, 63, 0
2, 50112, Note_on_c, 0, 65, 75
2, 50135, Note_on_c, 0, 65, 0
2, 50136, Note_on_c, 0, 62, 75
2, 50159, Note_on_c, 0, 62, 0
2, 50160, Note_on_c, 0, 65, 75
2, 50183, Note_on_c, 0, 65, 0
2, 50184, Note_on_c, 0, 67, 75
2, 50207, Note_on_c, 0, 67, 0
2, 50208, Note_on_c, 0, 68, 75
2, 50231, Note_on_c, 0, 68, 0
2, 50232, Note_on_c, 0, 67, 75
2, 50255, Note_on_c, 0, 67, 0
2, 50256, Note_on_c, 0, 65, 75
2, 50279, Note_on_c, 0, 65, 0
2, 50280, Note_on_c, 0, 63, 75
2, 50303, Note_on_c, 0, 63, 0
2, 50304, Note_on_c, 0, 62, 75
2, 50327, Note_on_c, 0, 62, 0
2, 50328, Note_on_c, 0, 60, 75
2, 50351, Note_on_c, 0, 60, 0
2, 50352, Note_on_c, 0, 58, 75
2, 50375, Note_on_c, 0, 58, 0
2, 50376, Note_on_c, 0, 56, 75
2, 50399, Note_on_c, 0, 56, 0
2, 50400, Note_on_c, 0, 55, 75
2, 50423, Note_on_c, 0, 55, 0
2, 50424, Note_on_c, 0, 58, 75
2, 50447, Note_on_c, 0, 58, 0
2, 50448, Note_on_c, 0, 56, 75
2, 50471, Note_on_c, 0, 56, 0
2, 50472, Note_on_c, 0, 55, 75
2, 50495, Note_on_c, 0, 55, 0
2, 50496, Note_on_c, 0, 56, 75
2, 50519, Note_on_c, 0, 56, 0
2, 50520, Note_on_c, 0, 58, 75
2, 50543, Note_on_c, 0, 58, 0
2, 50544, Note_on_c, 0, 60, 75
2, 50567, Note_on_c, 0, 60, 0
2, 50568, Note_on_c, 0, 62, 75
2, 50591, Note_on_c, 0, 62, 0
2, 50592, Note_on_c, 0, 63, 75
2, 50615, Note_on_c, 0, 63, 0
2, 50616, Note_on_c, 0, 65, 75
2, 50639, Note_on_c, 0, 65, 0
2, 50640, Note_on_c, 0, 67, 75
2, 50663, Note_on_c, 0, 67, 0
2, 50664, Note_on_c, 0, 63, 75
2, 50687, Note_on_c, 0, 63, 0
2, 50688, Note_on_c, 0, 62, 75
2, 50711, Note_on_c, 0, 62, 0
2, 50712, Note_on_c, 0, 60, 75
2, 50735, Note_on_c, 0, 60, 0
2, 50736, Note_on_c, 0, 68, 75
2, 50759, Note_on_c, 0, 68, 0
2, 50760, Note_on_c, 0, 65, 75
2, 50783, Note_on_c, 0, 65, 0
2, 50784, Note_on_c, 0, 63, 75
2, 50873, Note_on_c, 0, 63, 0
2, 50880, Note_on_c, 0, 62, 75
2, 50893, Note_on_c, 0, 62, 0
2, 50894, Note_on_c, 0, 63, 75
2, 50907, Note_on_c, 0, 63, 0
2, 50908, Note_on_c, 0, 62, 75
2, 50921, Note_on_c, 0, 62, 0
2, 50922, Note_on_c, 0, 63, 75
2, 50935, Note_on_c, 0, 63, 0
2, 50936, Note_on_c, 0, 62, 75
2, 50949, Note_on_c, 0, 62, 0
2, 50950, Note_on_c, 0, 60, 75
2, 50962, Note_on_c, 0, 60, 0
2, 50963, Note_on_c, 0, 62, 75
2, 50975, Note_on_c, 0, 62, 0
2, 50976, Note_on_c, 0, 55, 75
2, 50999, Note_on_c, 0, 55, 0
2, 51000, Note_on_c, 0, 58, 75
2, 51023, Note_on_c, 0, 58, 0
2, 51024, Note_on_c, 0, 56, 75
2, 51047, Note_on_c, 0, 56, 0
2, 51048, Note_on_c, 0, 55, 75
2, 51071, Note_on_c, 0, 55, 0
2, 51072, Note_on_c, 0, 56, 75
2, 51095, Note_on_c, 0, 56, 0
2, 51096, Note_on_c, 0, 58, 75
2, 51119, Note_on_c, 0, 58, 0
2, 51120, Note_on_c, 0, 60, 75
2, 51143, Note_on_c, 0, 60, 0
2, 51144, Note_on_c, 0, 62, 75
2, 51167, Note_on_c, 0, 62, 0
2, 51168, Note_on_c, 0, 63, 75
2, 51191, Note_on_c, 0, 63, 0
2, 51192, Note_on_c, 0, 65, 75
2, 51215, Note_on_c, 0, 65, 0
2, 51216, Note_on_c, 0, 67, 75
2, 51239, Note_on_c, 0, 67, 0
2, 51240, Note_on_c, 0, 63, 75
2, 51263, Note_on_c, 0, 63, 0
2, 51264, Note_on_c, 0, 62, 75
2, 51287, Note_on_c, 0, 62, 0
2, 51288, Note_on_c, 0, 60, 75
2, 51311, Note_on_c, 0, 60, 0
2, 51312, Note_on_c, 0, 68, 75
2, 51335, Note_on_c, 0, 68, 0
2, 51336, Note_on_c, 0, 65, 75
2, 51359, Note_on_c, 0, 65, 0
2, 51360, Note_on_c, 0, 63, 75
2, 51383, Note_on_c, 0, 63, 0
2, 51384, Note_on_c, 0, 62, 75
2, 51407, Note_on_c, 0, 62, 0
2, 51408, Note_on_c, 0, 70, 75
2, 51431, Note_on_c, 0, 70, 0
2, 51432, Note_on_c, 0, 67, 75
2, 51455, Note_on_c, 0, 67, 0
2, 51456, Note_on_c, 0, 65, 75
2, 51479, Note_on_c, 0, 65, 0
2, 51480, Note_on_c, 0, 63, 75
2, 51503, Note_on_c, 0, 63, 0
2, 51504, Note_on_c, 0, 72, 75
2, 51527, Note_on_c, 0, 72, 0
2, 51528, Note_on_c, 0, 68, 75
2, 51551, Note_on_c, 0, 68, 0
2, 51552, Note_on_c, 0, 67, 75
2, 51575, Note_on_c, 0, 67, 0
2, 51576, Note_on_c, 0, 65, 75
2, 51599, Note_on_c, 0, 65, 0
2, 51600, Note_on_c, 0, 79, 75
2, 51623, Note_on_c, 0, 79, 0
2, 51624, Note_on_c, 0, 77, 75
2, 51647, Note_on_c, 0, 77, 0
2, 51648, Note_on_c, 0, 75, 75
2, 51671, Note_on_c, 0, 75, 0
2, 51672, Note_on_c, 0, 74, 75
2, 51695, Note_on_c, 0, 74, 0
2, 51696, Note_on_c, 0, 77, 75
2, 51719, Note_on_c, 0, 77, 0
2, 51720, Note_on_c, 0, 75, 75
2, 51743, Note_on_c, 0, 75, 0
2, 51744, Note_on_c, 0, 74, 75
2, 51767, Note_on_c, 0, 74, 0
2, 51768, Note_on_c, 0, 72, 75
2, 51791, Note_on_c, 0, 72, 0
2, 51792, Note_on_c, 0, 70, 75
2, 51815, Note_on_c, 0, 70, 0
2, 51816, Note_on_c, 0, 68, 75
2, 51839, Note_on_c, 0, 68, 0
2, 51840, Note_on_c, 0, 67, 75
2, 51863, Note_on_c, 0, 67, 0
2, 51864, Note_on_c, 0, 70, 75
2, 51887, Note_on_c, 0, 70, 0
2, 51888, Note_on_c, 0, 68, 75
2, 51911, Note_on_c, 0, 68, 0
2, 51912, Note_on_c, 0, 67, 75
2, 51935, Note_on_c, 0, 67, 0
2, 51936, Note_on_c, 0, 68, 75
2, 51959, Note_on_c, 0, 68, 0
2, 51960, Note_on_c, 0, 70, 75
2, 51983, Note_on_c, 0, 70, 0
2, 51984, Note_on_c, 0, 72, 75
2, 52007, Note_on_c, 0, 72, 0
2, 52008, Note_on_c, 0, 74, 75
2, 52031, Note_on_c, 0, 74, 0
2, 52032, Note_on_c, 0, 75, 75
2, 52055, Note_on_c, 0, 75, 0
2, 52056, Note_on_c, 0, 77, 75
2, 52079, Note_on_c, 0, 77, 0
2, 52080, Note_on_c, 0, 79, 75
2, 52103, Note_on_c, 0, 79, 0
2, 52104, Note_on_c, 0, 75, 75
2, 52127, Note_on_c, 0, 75, 0
2, 52128, Note_on_c, 0, 74, 75
2, 52151, Note_on_c, 0, 74, 0
2, 52152, Note_on_c, 0, 72, 75
2, 52175, Note_on_c, 0, 72, 0
2, 52176, Note_on_c, 0, 84, 75
2, 52199, Note_on_c, 0, 84, 0
2, 52200, Note_on_c, 0, 80, 75
2, 52223, Note_on_c, 0, 80, 0
2, 52224, Note_on_c, 0, 79, 75
2, 52313, Note_on_c, 0, 79, 0
2, 52320, Note_on_c, 0, 77, 75
2, 52333, Note_on_c, 0, 77, 0
2, 52334, Note_on_c, 0, 79, 75
2, 52347, Note_on_c, 0, 79, 0
2, 52348, Note_on_c, 0, 77, 75
2, 52361, Note_on_c, 0, 77, 0
2, 52362, Note_on_c, 0, 79, 75
2, 52375, Note_on_c, 0, 79, 0
2, 52376, Note_on_c, 0, 77, 75
2, 52389, Note_on_c, 0, 77, 0
2, 52390, Note_on_c, 0, 75, 75
2, 52402, Note_on_c, 0, 75, 0
2, 52403, Note_on_c, 0, 77, 75
2, 52415, Note_on_c, 0, 77, 0
2, 52416, Note_on_c, 0, 75, 75
2, 52436, Note_on_c, 0, 75, 0
2, 52464, Note_on_c, 0, 70, 75
2, 52464, Note_on_c, 0, 67, 75
2, 52487, Note_on_c, 0, 70, 0
2, 52487, Note_on_c, 0, 67, 0
2, 52488, Note_on_c, 0, 72, 74
2, 52488, Note_on_c, 0, 68, 74
2, 52511, Note_on_c, 0, 72, 0
2, 52511, Note_on_c, 0, 68, 0
2, 52512, Note_on_c, 0, 70, 74
2, 52512, Note_on_c, 0, 67, 74
2, 52557, Note_on_c, 0, 70, 0
2, 52557, Note_on_c, 0, 67, 0
2, 52560, Note_on_c, 0, 68, 73
2, 52560, Note_on_c, 0, 65, 73
2, 52605, Note_on_c, 0, 68, 0
2, 52605, Note_on_c, 0, 65, 0
2, 52608, Note_on_c, 0, 67, 72
2, 52608, Note_on_c, 0, 63, 72
2, 52653, Note_on_c, 0, 67, 0
2, 52653, Note_on_c, 0, 63, 0
2, 52656, Note_on_c, 0, 65, 71
2, 52656, Note_on_c, 0, 62, 71
2, 52701, Note_on_c, 0, 65, 0
2, 52701, Note_on_c, 0, 62, 0
2, 52704, Note_on_c, 0, 67, 70
2, 52704, Note_on_c, 0, 63, 70
2, 52724, Note_on_c, 0, 67, 0
2, 52724, Note_on_c, 0, 63, 0
2, 52752, Note_on_c, 0, 67, 70
2, 52752, Note_on_c, 0, 58, 70
2, 52775, Note_on_c, 0, 67, 0
2, 52775, Note_on_c, 0, 58, 0
2, 52776, Note_on_c, 0, 68, 70
2, 52776, Note_on_c, 0, 60, 70
2, 52799, Note_on_c, 0, 68, 0
2, 52799, Note_on_c, 0, 60, 0
2, 52800, Note_on_c, 0, 67, 70
2, 52800, Note_on_c, 0, 58, 70
2, 52845, Note_on_c, 0, 67, 0
2, 52845, Note_on_c, 0, 58, 0
2, 52848, Note_on_c, 0, 65, 70
2, 52848, Note_on_c, 0, 56, 70
2, 52893, Note_on_c, 0, 65, 0
2, 52893, Note_on_c, 0, 56, 0
2, 52896, Note_on_c, 0, 63, 70
2, 52896, Note_on_c, 0, 55, 70
2, 52941, Note_on_c, 0, 63, 0
2, 52941, Note_on_c, 0, 55, 0
2, 52944, Note_on_c, 0, 62, 70
2, 52944, Note_on_c, 0, 53, 70
2, 52989, Note_on_c, 0, 62, 0
2, 52989, Note_on_c, 0, 53, 0
2, 52992, Note_on_c, 0, 62, 70
2, 53184, Note_on_c, 0, 62, 0
2, 53184, Note_on_c, 0, 63, 70
2, 53257, Note_on_c, 0, 63, 0
2, 53328, Note_on_c, 0, 77, 75
2, 53373, Note_on_c, 0, 77, 0
2, 53376, Note_on_c, 0, 77, 75
2, 53424, Note_on_c, 0, 77, 0
2, 53424, Note_on_c, 0, 82, 75
2, 53469, Note_on_c, 0, 82, 0
2, 53472, Note_on_c, 0, 82, 75
2, 53520, Note_on_c, 0, 82, 0
2, 53520, Note_on_c, 0, 81, 75
2, 53565, Note_on_c, 0, 81, 0
2, 53616, Note_on_c, 0, 79, 75
2, 53661, Note_on_c, 0, 79, 0
2, 53712, Note_on_c, 0, 77, 75
2, 53757, Note_on_c, 0, 77, 0
2, 53808, Note_on_c, 0, 75, 75
2, 53853, Note_on_c, 0, 75, 0
2, 53904, Note_on_c, 0, 74, 75
2, 53949, Note_on_c, 0, 74, 0
2, 53952, Note_on_c, 0, 77, 75
2, 54000, Note_on_c, 0, 77, 0
2, 54000, Note_on_c, 0, 82, 75
2, 54045, Note_on_c, 0, 82, 0
2, 54048, Note_on_c, 0, 82, 75
2, 54096, Note_on_c, 0, 82, 0
2, 54096, Note_on_c, 0, 81, 75
2, 54141, Note_on_c, 0, 81, 0
2, 54168, Note_on_c, 0, 79, 75
2, 54191, Note_on_c, 0, 79, 0
2, 54192, Note_on_c, 0, 78, 75
2, 54215, Note_on_c, 0, 78, 0
2, 54216, Note_on_c, 0, 79, 75
2, 54239, Note_on_c, 0, 79, 0
2, 54264, Note_on_c, 0, 77, 75
2, 54287, Note_on_c, 0, 77, 0
2, 54288, Note_on_c, 0, 76, 75
2, 54311, Note_on_c, 0, 76, 0
2, 54312, Note_on_c, 0, 77, 75
2, 54335, Note_on_c, 0, 77, 0
2, 54360, Note_on_c, 0, 75, 75
2, 54383, Note_on_c, 0, 75, 0
2, 54384, Note_on_c, 0, 74, 75
2, 54407, Note_on_c, 0, 74, 0
2, 54408, Note_on_c, 0, 75, 75
2, 54431, Note_on_c, 0, 75, 0
2, 54456, Note_on_c, 0, 74, 75
2, 54479, Note_on_c, 0, 74, 0
2, 54480, Note_on_c, 0, 75, 75
2, 54503, Note_on_c, 0, 75, 0
2, 54504, Note_on_c, 0, 77, 75
2, 54527, Note_on_c, 0, 77, 0
2, 54528, Note_on_c, 0, 79, 75
2, 54551, Note_on_c, 0, 79, 0
2, 54552, Note_on_c, 0, 81, 75
2, 54575, Note_on_c, 0, 81, 0
2, 54576, Note_on_c, 0, 82, 75
2, 54599, Note_on_c, 0, 82, 0
2, 54600, Note_on_c, 0, 84, 75
2, 54623, Note_on_c, 0, 84, 0
2, 54624, Note_on_c, 0, 86, 75
2, 54647, Note_on_c, 0, 86, 0
2, 54648, Note_on_c, 0, 82, 75
2, 54671, Note_on_c, 0, 82, 0
2, 54672, Note_on_c, 0, 81, 75
2, 54695, Note_on_c, 0, 81, 0
2, 54696, Note_on_c, 0, 79, 75
2, 54719, Note_on_c, 0, 79, 0
2, 54720, Note_on_c, 0, 77, 75
2, 54897, Note_on_c, 0, 77, 0
2, 54912, Note_on_c, 0, 75, 75
2, 54925, Note_on_c, 0, 75, 0
2, 54926, Note_on_c, 0, 77, 75
2, 54939, Note_on_c, 0, 77, 0
2, 54940, Note_on_c, 0, 75, 75
2, 54953, Note_on_c, 0, 75, 0
2, 54954, Note_on_c, 0, 77, 75
2, 54967, Note_on_c, 0, 77, 0
2, 54968, Note_on_c, 0, 75, 75
2, 54981, Note_on_c, 0, 75, 0
2, 54982, Note_on_c, 0, 74, 75
2, 54994, Note_on_c, 0, 74, 0
2, 54995, Note_on_c, 0, 75, 75
2, 55007, Note_on_c, 0, 75, 0
2, 55008, Note_on_c, 0, 74, 75
2, 55031, Note_on_c, 0, 74, 0
2, 55032, Note_on_c, 0, 70, 75
2, 55055, Note_on_c, 0, 70, 0
2, 55056, Note_on_c, 0, 69, 75
2, 55079, Note_on_c, 0, 69, 0
2, 55080, Note_on_c, 0, 70, 75
2, 55103, Note_on_c, 0, 70, 0
2, 55104, Note_on_c, 0, 72, 75
2, 55127, Note_on_c, 0, 72, 0
2, 55128, Note_on_c, 0, 70, 75
2, 55151, Note_on_c, 0, 70, 0
2, 55152, Note_on_c, 0, 69, 75
2, 55175, Note_on_c, 0, 69, 0
2, 55176, Note_on_c, 0, 70, 75
2, 55199, Note_on_c, 0, 70, 0
2, 55200, Note_on_c, 0, 74, 75
2, 55223, Note_on_c, 0, 74, 0
2, 55224, Note_on_c, 0, 72, 75
2, 55247, Note_on_c, 0, 72, 0
2, 55248, Note_on_c, 0, 70, 75
2, 55271, Note_on_c, 0, 70, 0
2, 55272, Note_on_c, 0, 69, 75
2, 55295, Note_on_c, 0, 69, 0
2, 55296, Note_on_c, 0, 67, 75
2, 55319, Note_on_c, 0, 67, 0
2, 55320, Note_on_c, 0, 75, 75
2, 55343, Note_on_c, 0, 75, 0
2, 55344, Note_on_c, 0, 79, 75
2, 55367, Note_on_c, 0, 79, 0
2, 55368, Note_on_c, 0, 77, 75
2, 55391, Note_on_c, 0, 77, 0
2, 55392, Note_on_c, 0, 75, 75
2, 55415, Note_on_c, 0, 75, 0
2, 55416, Note_on_c, 0, 74, 75
2, 55439, Note_on_c, 0, 74, 0
2, 55440, Note_on_c, 0, 72, 75
2, 55463, Note_on_c, 0, 72, 0
2, 55464, Note_on_c, 0, 70, 75
2, 55487, Note_on_c, 0, 70, 0
2, 55488, Note_on_c, 0, 69, 75
2, 55511, Note_on_c, 0, 69, 0
2, 55512, Note_on_c, 0, 67, 75
2, 55535, Note_on_c, 0, 67, 0
2, 55536, Note_on_c, 0, 65, 75
2, 55559, Note_on_c, 0, 65, 0
2, 55560, Note_on_c, 0, 63, 75
2, 55583, Note_on_c, 0, 63, 0
2, 55584, Note_on_c, 0, 62, 75
2, 55607, Note_on_c, 0, 62, 0
2, 55608, Note_on_c, 0, 70, 75
2, 55631, Note_on_c, 0, 70, 0
2, 55632, Note_on_c, 0, 69, 75
2, 55655, Note_on_c, 0, 69, 0
2, 55656, Note_on_c, 0, 70, 75
2, 55679, Note_on_c, 0, 70, 0
2, 55680, Note_on_c, 0, 72, 75
2, 55703, Note_on_c, 0, 72, 0
2, 55704, Note_on_c, 0, 70, 75
2, 55727, Note_on_c, 0, 70, 0
2, 55728, Note_on_c, 0, 69, 75
2, 55751, Note_on_c, 0, 69, 0
2, 55752, Note_on_c, 0, 70, 75
2, 55775, Note_on_c, 0, 70, 0
2, 55776, Note_on_c, 0, 74, 75
2, 55799, Note_on_c, 0, 74, 0
2, 55800, Note_on_c, 0, 72, 75
2, 55823, Note_on_c, 0, 72, 0
2, 55824, Note_on_c, 0, 70, 75
2, 55847, Note_on_c, 0, 70, 0
2, 55848, Note_on_c, 0, 69, 75
2, 55871, Note_on_c, 0, 69, 0
2, 55872, Note_on_c, 0, 67, 75
2, 55895, Note_on_c, 0, 67, 0
2, 55896, Note_on_c, 0, 75, 75
2, 55919, Note_on_c, 0, 75, 0
2, 55920, Note_on_c, 0, 79, 75
2, 55943, Note_on_c, 0, 79, 0
2, 55944, Note_on_c, 0, 77, 75
2, 55967, Note_on_c, 0, 77, 0
2, 55968, Note_on_c, 0, 75, 75
2, 55991, Note_on_c, 0, 75, 0
2, 55992, Note_on_c, 0, 74, 75
2, 56015, Note_on_c, 0, 74, 0
2, 56016, Note_on_c, 0, 72, 75
2, 56039, Note_on_c, 0, 72, 0
2, 56040, Note_on_c, 0, 70, 75
2, 56063, Note_on_c, 0, 70, 0
2, 56064, Note_on_c, 0, 69, 75
2, 56087, Note_on_c, 0, 69, 0
2, 56088, Note_on_c, 0, 67, 75
2, 56111, Note_on_c, 0, 67, 0
2, 56112, Note_on_c, 0, 65, 75
2, 56135, Note_on_c, 0, 65, 0
2, 56136, Note_on_c, 0, 63, 75
2, 56159, Note_on_c, 0, 63, 0
2, 56160, Note_on_c, 0, 62, 75
2, 56199, Note_on_c, 0, 62, 0
2, 56472, Note_on_c, 0, 70, 75
2, 56495, Note_on_c, 0, 70, 0
2, 56496, Note_on_c, 0, 72, 75
2, 56519, Note_on_c, 0, 72, 0
2, 56520, Note_on_c, 0, 74, 75
2, 56543, Note_on_c, 0, 74, 0
2, 56544, Note_on_c, 0, 75, 75
2, 56567, Note_on_c, 0, 75, 0
2, 56568, Note_on_c, 0, 77, 75
2, 56591, Note_on_c, 0, 77, 0
2, 56592, Note_on_c, 0, 79, 75
2, 56615, Note_on_c, 0, 79, 0
2, 56616, Note_on_c, 0, 81, 75
2, 56639, Note_on_c, 0, 81, 0
2, 56640, Note_on_c, 0, 82, 75
2, 56663, Note_on_c, 0, 82, 0
2, 56664, Note_on_c, 0, 84, 75
2, 56687, Note_on_c, 0, 84, 0
2, 56688, Note_on_c, 0, 86, 75
2, 56711, Note_on_c, 0, 86, 0
2, 56712, Note_on_c, 0, 84, 75
2, 56735, Note_on_c, 0, 84, 0
2, 56736, Note_on_c, 0, 82, 91
2, 56877, Note_on_c, 0, 82, 0
2, 56880, Note_on_c, 0, 80, 75
2, 56925, Note_on_c, 0, 80, 0
2, 56928, Note_on_c, 0, 79, 75
2, 56973, Note_on_c, 0, 79, 0
2, 56976, Note_on_c, 0, 77, 75
2, 57021, Note_on_c, 0, 77, 0
2, 57024, Note_on_c, 0, 77, 91
2, 57120, Note_on_c, 0, 77, 0
2, 57120, Note_on_c, 0, 76, 75
2, 57165, Note_on_c, 0, 76, 0
2, 57168, Note_on_c, 0, 85, 75
2, 57168, Note_on_c, 0, 82, 75
2, 57213, Note_on_c, 0, 85, 0
2, 57213, Note_on_c, 0, 82, 0
2, 57216, Note_on_c, 0, 84, 75
2, 57216, Note_on_c, 0, 80, 75
2, 57261, Note_on_c, 0, 84, 0
2, 57261, Note_on_c, 0, 80, 0
2, 57264, Note_on_c, 0, 82, 75
2, 57264, Note_on_c, 0, 79, 75
2, 57309, Note_on_c, 0, 82, 0
2, 57309, Note_on_c, 0, 79, 0
2, 57312, Note_on_c, 0, 82, 91
2, 57312, Note_on_c, 0, 79, 91
2, 57408, Note_on_c, 0, 82, 0
2, 57408, Note_on_c, 0, 79, 0
2, 57408, Note_on_c, 0, 80, 75
2, 57408, Note_on_c, 0, 77, 75
2, 57453, Note_on_c, 0, 80, 0
2, 57453, Note_on_c, 0, 77, 0
2, 57456, Note_on_c, 0, 84, 75
2, 57456, Note_on_c, 0, 80, 75
2, 57501, Note_on_c, 0, 84, 0
2, 57501, Note_on_c, 0, 80, 0
2, 57504, Note_on_c, 0, 82, 75
2, 57504, Note_on_c, 0, 79, 75
2, 57549, Note_on_c, 0, 82, 0
2, 57549, Note_on_c, 0, 79, 0
2, 57552, Note_on_c, 0, 80, 75
2, 57552, Note_on_c, 0, 77, 75
2, 57597, Note_on_c, 0, 80, 0
2, 57597, Note_on_c, 0, 77, 0
2, 57600, Note_on_c, 0, 80, 75
2, 57613, Note_on_c, 0, 80, 0
2, 57614, Note_on_c, 0, 82, 75
2, 57627, Note_on_c, 0, 82, 0
2, 57628, Note_on_c, 0, 80, 75
2, 57641, Note_on_c, 0, 80, 0
2, 57642, Note_on_c, 0, 82, 75
2, 57655, Note_on_c, 0, 82, 0
2, 57656, Note_on_c, 0, 80, 75
2, 57669, Note_on_c, 0, 80, 0
2, 57670, Note_on_c, 0, 79, 75
2, 57682, Note_on_c, 0, 79, 0
2, 57683, Note_on_c, 0, 80, 75
2, 57696, Note_on_c, 0, 80, 0
2, 57696, Note_on_c, 0, 79, 75
2, 57696, Note_on_c, 0, 76, 75
2, 57741, Note_on_c, 0, 79, 0
2, 57741, Note_on_c, 0, 76, 0
2, 57744, Note_on_c, 0, 73, 75
2, 57744, Note_on_c, 0, 70, 75
2, 57789, Note_on_c, 0, 73, 0
2, 57789, Note_on_c, 0, 70, 0
2, 57792, Note_on_c, 0, 72, 75
2, 57792, Note_on_c, 0, 68, 75
2, 57837, Note_on_c, 0, 72, 0
2, 57837, Note_on_c, 0, 68, 0
2, 57840, Note_on_c, 0, 70, 75
2, 57840, Note_on_c, 0, 67, 75
2, 57885, Note_on_c, 0, 70, 0
2, 57885, Note_on_c, 0, 67, 0
2, 57888, Note_on_c, 0, 70, 91
2, 57888, Note_on_c, 0, 67, 91
2, 57984, Note_on_c, 0, 70, 0
2, 57984, Note_on_c, 0, 67, 0
2, 57984, Note_on_c, 0, 68, 75
2, 57984, Note_on_c, 0, 65, 75
2, 58029, Note_on_c, 0, 68, 0
2, 58029, Note_on_c, 0, 65, 0
2, 58032, Note_on_c, 0, 72, 75
2, 58032, Note_on_c, 0, 68, 75
2, 58077, Note_on_c, 0, 72, 0
2, 58077, Note_on_c, 0, 68, 0
2, 58080, Note_on_c, 0, 70, 75
2, 58080, Note_on_c, 0, 67, 75
2, 58125, Note_on_c, 0, 70, 0
2, 58125, Note_on_c, 0, 67, 0
2, 58128, Note_on_c, 0, 68, 75
2, 58128, Note_on_c, 0, 65, 75
2, 58173, Note_on_c, 0, 68, 0
2, 58173, Note_on_c, 0, 65, 0
2, 58176, Note_on_c, 0, 68, 75
2, 58189, Note_on_c, 0, 68, 0
2, 58190, Note_on_c, 0, 70, 75
2, 58203, Note_on_c, 0, 70, 0
2, 58204, Note_on_c, 0, 68, 75
2, 58217, Note_on_c, 0, 68, 0
2, 58218, Note_on_c, 0, 70, 75
2, 58231, Note_on_c, 0, 70, 0
2, 58232, Note_on_c, 0, 68, 75
2, 58245, Note_on_c, 0, 68, 0
2, 58246, Note_on_c, 0, 67, 75
2, 58258, Note_on_c, 0, 67, 0
2, 58259, Note_on_c, 0, 68, 75
2, 58271, Note_on_c, 0, 68, 0
2, 58272, Note_on_c, 0, 67, 75
2, 58272, Note_on_c, 0, 64, 75
2, 58361, Note_on_c, 0, 67, 0
2, 58361, Note_on_c, 0, 64, 0
2, 58464, Note_on_c, 0, 80, 81
2, 58487, Note_on_c, 0, 80, 0
2, 58488, Note_on_c, 0, 84, 81
2, 58511, Note_on_c, 0, 84, 0
2, 58512, Note_on_c, 0, 82, 81
2, 58535, Note_on_c, 0, 82, 0
2, 58536, Note_on_c, 0, 80, 81
2, 58559, Note_on_c, 0, 80, 0
2, 58560, Note_on_c, 0, 79, 81
2, 58583, Note_on_c, 0, 79, 0
2, 58584, Note_on_c, 0, 77, 81
2, 58607, Note_on_c, 0, 77, 0
2, 58608, Note_on_c, 0, 75, 81
2, 58631, Note_on_c, 0, 75, 0
2, 58632, Note_on_c, 0, 73, 81
2, 58655, Note_on_c, 0, 73, 0
2, 58656, Note_on_c, 0, 72, 81
2, 58679, Note_on_c, 0, 72, 0
2, 58680, Note_on_c, 0, 70, 81
2, 58703, Note_on_c, 0, 70, 0
2, 58704, Note_on_c, 0, 68, 81
2, 58727, Note_on_c, 0, 68, 0
2, 58728, Note_on_c, 0, 67, 81
2, 58751, Note_on_c, 0, 67, 0
2, 58752, Note_on_c, 0, 68, 81
2, 58775, Note_on_c, 0, 68, 0
2, 58776, Note_on_c, 0, 72, 81
2, 58799, Note_on_c, 0, 72, 0
2, 58800, Note_on_c, 0, 70, 81
2, 58823, Note_on_c, 0, 70, 0
2, 58824, Note_on_c, 0, 68, 81
2, 58847, Note_on_c, 0, 68, 0
2, 58848, Note_on_c, 0, 67, 81
2, 58871, Note_on_c, 0, 67, 0
2, 58872, Note_on_c, 0, 65, 81
2, 58895, Note_on_c, 0, 65, 0
2, 58896, Note_on_c, 0, 63, 81
2, 58919, Note_on_c, 0, 63, 0
2, 58920, Note_on_c, 0, 61, 81
2, 58943, Note_on_c, 0, 61, 0
2, 58944, Note_on_c, 0, 60, 81
2, 58967, Note_on_c, 0, 60, 0
2, 58968, Note_on_c, 0, 58, 78
2, 58991, Note_on_c, 0, 58, 0
2, 58992, Note_on_c, 0, 56, 76
2, 59015, Note_on_c, 0, 56, 0
2, 59016, Note_on_c, 0, 55, 74
2, 59039, Note_on_c, 0, 55, 0
2, 59040, Note_on_c, 0, 56, 88
2, 59181, Note_on_c, 0, 56, 0
2, 59184, Note_on_c, 0, 54, 64
2, 59229, Note_on_c, 0, 54, 0
2, 59232, Note_on_c, 0, 63, 64
2, 59277, Note_on_c, 0, 63, 0
2, 59280, Note_on_c, 0, 54, 65
2, 59325, Note_on_c, 0, 54, 0
2, 59328, Note_on_c, 0, 54, 81
2, 59469, Note_on_c, 0, 54, 0
2, 59472, Note_on_c, 0, 53, 67
2, 59517, Note_on_c, 0, 53, 0
2, 59520, Note_on_c, 0, 63, 67
2, 59565, Note_on_c, 0, 63, 0
2, 59568, Note_on_c, 0, 60, 68
2, 59613, Note_on_c, 0, 60, 0
2, 59616, Note_on_c, 0, 61, 84
2, 59757, Note_on_c, 0, 61, 0
2, 59760, Note_on_c, 0, 58, 70
2, 59805, Note_on_c, 0, 58, 0
2, 59808, Note_on_c, 0, 65, 70
2, 59853, Note_on_c, 0, 65, 0
2, 59856, Note_on_c, 0, 56, 71
2, 59901, Note_on_c, 0, 56, 0
2, 59904, Note_on_c, 0, 56, 87
2, 60045, Note_on_c, 0, 56, 0
2, 60048, Note_on_c, 0, 55, 73
2, 60093, Note_on_c, 0, 55, 0
2, 60096, Note_on_c, 0, 65, 73
2, 60141, Note_on_c, 0, 65, 0
2, 60144, Note_on_c, 0, 62, 74
2, 60189, Note_on_c, 0, 62, 0
2, 60192, Note_on_c, 0, 63, 90
2, 60333, Note_on_c, 0, 63, 0
2, 60336, Note_on_c, 0, 60, 76
2, 60381, Note_on_c, 0, 60, 0
2, 60384, Note_on_c, 0, 67, 76
2, 60429, Note_on_c, 0, 67, 0
2, 60432, Note_on_c, 0, 63, 77
2, 60477, Note_on_c, 0, 63, 0
2, 60480, Note_on_c, 0, 68, 93
2, 60621, Note_on_c, 0, 68, 0
2, 60624, Note_on_c, 0, 65, 79
2, 60669, Note_on_c, 0, 65, 0
2, 60672, Note_on_c, 0, 62, 79
2, 60717, Note_on_c, 0, 62, 0
2, 60720, Note_on_c, 0, 60, 80
2, 60765, Note_on_c, 0, 60, 0
2, 60792, Note_on_c, 0, 55, 80
2, 60815, Note_on_c, 0, 55, 0
2, 60816, Note_on_c, 0, 55, 81
2, 60839, Note_on_c, 0, 55, 0
2, 60840, Note_on_c, 0, 55, 81
2, 60863, Note_on_c, 0, 55, 0
2, 60888, Note_on_c, 0, 59, 81
2, 60911, Note_on_c, 0, 59, 0
2, 60912, Note_on_c, 0, 59, 81
2, 60935, Note_on_c, 0, 59, 0
2, 60936, Note_on_c, 0, 59, 81
2, 60959, Note_on_c, 0, 59, 0
2, 60984, Note_on_c, 0, 62, 81
2, 61007, Note_on_c, 0, 62, 0
2, 61008, Note_on_c, 0, 62, 81
2, 61031, Note_on_c, 0, 62, 0
2, 61032, Note_on_c, 0, 62, 81
2, 61055, Note_on_c, 0, 62, 0
2, 61104, Note_on_c, 0, 67, 81
2, 61127, Note_on_c, 0, 67, 0
2, 61128, Note_on_c, 0, 69, 81
2, 61151, Note_on_c, 0, 69, 0
2, 61152, Note_on_c, 0, 71, 81
2, 61175, Note_on_c, 0, 71, 0
2, 61176, Note_on_c, 0, 67, 81
2, 61199, Note_on_c, 0, 67, 0
2, 61200, Note_on_c, 0, 71, 81
2, 61223, Note_on_c, 0, 71, 0
2, 61224, Note_on_c, 0, 72, 81
2, 61247, Note_on_c, 0, 72, 0
2, 61248, Note_on_c, 0, 74, 81
2, 61271, Note_on_c, 0, 74, 0
2, 61272, Note_on_c, 0, 71, 81
2, 61295, Note_on_c, 0, 71, 0
2, 61296, Note_on_c, 0, 74, 81
2, 61319, Note_on_c, 0, 74, 0
2, 61320, Note_on_c, 0, 75, 81
2, 61343, Note_on_c, 0, 75, 0
2, 61344, Note_on_c, 0, 77, 81
2, 61367, Note_on_c, 0, 77, 0
2, 61368, Note_on_c, 0, 74, 81
2, 61391, Note_on_c, 0, 74, 0
2, 61392, Note_on_c, 0, 83, 81
2, 61415, Note_on_c, 0, 83, 0
2, 61416, Note_on_c, 0, 84, 81
2, 61439, Note_on_c, 0, 84, 0
2, 61440, Note_on_c, 0, 86, 81
2, 61463, Note_on_c, 0, 86, 0
2, 61464, Note_on_c, 0, 84, 81
2, 61487, Note_on_c, 0, 84, 0
2, 61488, Note_on_c, 0, 83, 81
2, 61511, Note_on_c, 0, 83, 0
2, 61512, Note_on_c, 0, 80, 81
2, 61535, Note_on_c, 0, 80, 0
2, 61536, Note_on_c, 0, 79, 81
2, 61559, Note_on_c, 0, 79, 0
2, 61560, Note_on_c, 0, 77, 81
2, 61583, Note_on_c, 0, 77, 0
2, 61584, Note_on_c, 0, 75, 81
2, 61607, Note_on_c, 0, 75, 0
2, 61608, Note_on_c, 0, 74, 81
2, 61631, Note_on_c, 0, 74, 0
2, 61632, Note_on_c, 0, 75, 81
2, 61655, Note_on_c, 0, 75, 0
2, 61656, Note_on_c, 0, 77, 81
2, 61679, Note_on_c, 0, 77, 0
2, 61680, Note_on_c, 0, 79, 81
2, 61703, Note_on_c, 0, 79, 0
2, 61704, Note_on_c, 0, 77, 81
2, 61727, Note_on_c, 0, 77, 0
2, 61728, Note_on_c, 0, 75, 81
2, 61751, Note_on_c, 0, 75, 0
2, 61752, Note_on_c, 0, 74, 81
2, 61775, Note_on_c, 0, 74, 0
2, 61776, Note_on_c, 0, 72, 81
2, 61799, Note_on_c, 0, 72, 0
2, 61800, Note_on_c, 0, 71, 81
2, 61823, Note_on_c, 0, 71, 0
2, 61824, Note_on_c, 0, 72, 81
2, 61847, Note_on_c, 0, 72, 0
2, 61848, Note_on_c, 0, 83, 81
2, 61871, Note_on_c, 0, 83, 0
2, 61872, Note_on_c, 0, 84, 81
2, 61895, Note_on_c, 0, 84, 0
2, 61896, Note_on_c, 0, 79, 81
2, 61919, Note_on_c, 0, 79, 0
2, 61920, Note_on_c, 0, 82, 81
2, 61943, Note_on_c, 0, 82, 0
2, 61944, Note_on_c, 0, 80, 80
2, 61967, Note_on_c, 0, 80, 0
2, 61968, Note_on_c, 0, 79, 80
2, 61991, Note_on_c, 0, 79, 0
2, 61992, Note_on_c, 0, 77, 79
2, 62015, Note_on_c, 0, 77, 0
2, 62016, Note_on_c, 0, 75, 79
2, 62105, Note_on_c, 0, 75, 0
2, 62112, Note_on_c, 0, 74, 77
2, 62125, Note_on_c, 0, 74, 0
2, 62126, Note_on_c, 0, 75, 76
2, 62139, Note_on_c, 0, 75, 0
2, 62140, Note_on_c, 0, 74, 76
2, 62153, Note_on_c, 0, 74, 0
2, 62154, Note_on_c, 0, 75, 76
2, 62167, Note_on_c, 0, 75, 0
2, 62168, Note_on_c, 0, 74, 76
2, 62181, Note_on_c, 0, 74, 0
2, 62182, Note_on_c, 0, 72, 75
2, 62194, Note_on_c, 0, 72, 0
2, 62195, Note_on_c, 0, 74, 75
2, 62207, Note_on_c, 0, 74, 0
2, 62208, Note_on_c, 0, 72, 75
2, 62228, Note_on_c, 0, 72, 0
2, 62256, Note_on_c, 0, 67, 75
2, 62279, Note_on_c, 0, 67, 0
2, 62280, Note_on_c, 0, 68, 75
2, 62303, Note_on_c, 0, 68, 0
2, 62304, Note_on_c, 0, 67, 75
2, 62349, Note_on_c, 0, 67, 0
2, 62352, Note_on_c, 0, 67, 75
2, 62397, Note_on_c, 0, 67, 0
2, 62400, Note_on_c, 0, 67, 75
2, 62445, Note_on_c, 0, 67, 0
2, 62448, Note_on_c, 0, 67, 75
2, 62493, Note_on_c, 0, 67, 0
2, 62496, Note_on_c, 0, 68, 75
2, 62784, Note_on_c, 0, 62, 75
2, 62804, Note_on_c, 0, 68, 0
2, 62804, Note_on_c, 0, 62, 0
2, 62832, Note_on_c, 0, 68, 75
2, 62832, Note_on_c, 0, 65, 75
2, 62855, Note_on_c, 0, 68, 0
2, 62855, Note_on_c, 0, 65, 0
2, 62856, Note_on_c, 0, 70, 75
2, 62856, Note_on_c, 0, 67, 75
2, 62879, Note_on_c, 0, 70, 0
2, 62879, Note_on_c, 0, 67, 0
2, 62880, Note_on_c, 0, 68, 75
2, 62880, Note_on_c, 0, 65, 75
2, 62925, Note_on_c, 0, 68, 0
2, 62925, Note_on_c, 0, 65, 0
2, 62928, Note_on_c, 0, 72, 75
2, 62928, Note_on_c, 0, 68, 75
2, 62973, Note_on_c, 0, 72, 0
2, 62973, Note_on_c, 0, 68, 0
2, 62976, Note_on_c, 0, 70, 75
2, 62976, Note_on_c, 0, 67, 75
2, 63021, Note_on_c, 0, 70, 0
2, 63021, Note_on_c, 0, 67, 0
2, 63024, Note_on_c, 0, 68, 75
2, 63024, Note_on_c, 0, 65, 75
2, 63069, Note_on_c, 0, 68, 0
2, 63069, Note_on_c, 0, 65, 0
2, 63120, Note_on_c, 0, 67, 75
2, 63120, Note_on_c, 0, 63, 75
2, 63143, Note_on_c, 0, 67, 0
2, 63143, Note_on_c, 0, 63, 0
2, 63144, Note_on_c, 0, 68, 75
2, 63144, Note_on_c, 0, 65, 75
2, 63167, Note_on_c, 0, 68, 0
2, 63167, Note_on_c, 0, 65, 0
2, 63168, Note_on_c, 0, 67, 75
2, 63168, Note_on_c, 0, 63, 75
2, 63213, Note_on_c, 0, 67, 0
2, 63213, Note_on_c, 0, 63, 0
2, 63216, Note_on_c, 0, 70, 75
2, 63216, Note_on_c, 0, 67, 75
2, 63261, Note_on_c, 0, 70, 0
2, 63261, Note_on_c, 0, 67, 0
2, 63264, Note_on_c, 0, 68, 75
2, 63264, Note_on_c, 0, 65, 75
2, 63309, Note_on_c, 0, 68, 0
2, 63309, Note_on_c, 0, 65, 0
2, 63312, Note_on_c, 0, 67, 75
2, 63312, Note_on_c, 0, 63, 75
2, 63357, Note_on_c, 0, 67, 0
2, 63357, Note_on_c, 0, 63, 0
2, 63360, Note_on_c, 0, 65, 75
2, 63360, Note_on_c, 0, 62, 75
2, 63405, Note_on_c, 0, 65, 0
2, 63405, Note_on_c, 0, 62, 0
2, 63408, Note_on_c, 0, 63, 75
2, 63408, Note_on_c, 0, 60, 75
2, 63453, Note_on_c, 0, 63, 0
2, 63453, Note_on_c, 0, 60, 0
2, 63456, Note_on_c, 0, 62, 75
2, 63456, Note_on_c, 0, 58, 75
2, 63501, Note_on_c, 0, 62, 0
2, 63501, Note_on_c, 0, 58, 0
2, 63504, Note_on_c, 0, 60, 75
2, 63504, Note_on_c, 0, 56, 75
2, 63549, Note_on_c, 0, 60, 0
2, 63549, Note_on_c, 0, 56, 0
2, 63552, Note_on_c, 0, 58, 75
2, 63552, Note_on_c, 0, 55, 75
2, 63597, Note_on_c, 0, 58, 0
2, 63597, Note_on_c, 0, 55, 0
2, 63600, Note_on_c, 0, 56, 75
2, 63600, Note_on_c, 0, 53, 75
2, 63645, Note_on_c, 0, 56, 0
2, 63645, Note_on_c, 0, 53, 0
2, 63696, Note_on_c, 0, 70, 75
2, 63741, Note_on_c, 0, 70, 0
2, 63744, Note_on_c, 0, 70, 75
2, 63792, Note_on_c, 0, 70, 0
2, 63792, Note_on_c, 0, 75, 75
2, 63837, Note_on_c, 0, 75, 0
2, 63840, Note_on_c, 0, 75, 75
2, 63888, Note_on_c, 0, 75, 0
2, 63888, Note_on_c, 0, 74, 75
2, 63933, Note_on_c, 0, 74, 0
2, 63984, Note_on_c, 0, 72, 75
2, 64029, Note_on_c, 0, 72, 0
2, 64080, Note_on_c, 0, 70, 75
2, 64125, Note_on_c, 0, 70, 0
2, 64176, Note_on_c, 0, 68, 75
2, 64221, Note_on_c, 0, 68, 0
2, 64248, Note_on_c, 0, 67, 75
2, 64271, Note_on_c, 0, 67, 0
2, 64272, Note_on_c, 0, 70, 75
2, 64295, Note_on_c, 0, 70, 0
2, 64296, Note_on_c, 0, 67, 75
2, 64319, Note_on_c, 0, 67, 0
2, 64320, Note_on_c, 0, 75, 75
2, 64343, Note_on_c, 0, 75, 0
2, 64344, Note_on_c, 0, 70, 75
2, 64367, Note_on_c, 0, 70, 0
2, 64368, Note_on_c, 0, 79, 75
2, 64391, Note_on_c, 0, 79, 0
2, 64392, Note_on_c, 0, 77, 75
2, 64415, Note_on_c, 0, 77, 0
2, 64416, Note_on_c, 0, 75, 75
2, 64439, Note_on_c, 0, 75, 0
2, 64440, Note_on_c, 0, 74, 75
2, 64463, Note_on_c, 0, 74, 0
2, 64464, Note_on_c, 0, 72, 75
2, 64487, Note_on_c, 0, 72, 0
2, 64488, Note_on_c, 0, 70, 75
2, 64511, Note_on_c, 0, 70, 0
2, 64536, Note_on_c, 0, 72, 75
2, 64559, Note_on_c, 0, 72, 0
2, 64560, Note_on_c, 0, 71, 75
2, 64583, Note_on_c, 0, 71, 0
2, 64584, Note_on_c, 0, 72, 75
2, 64607, Note_on_c, 0, 72, 0
2, 64632, Note_on_c, 0, 70, 75
2, 64655, Note_on_c, 0, 70, 0
2, 64656, Note_on_c, 0, 69, 75
2, 64679, Note_on_c, 0, 69, 0
2, 64680, Note_on_c, 0, 70, 75
2, 64703, Note_on_c, 0, 70, 0
2, 64728, Note_on_c, 0, 68, 75
2, 64751, Note_on_c, 0, 68, 0
2, 64752, Note_on_c, 0, 67, 75
2, 64775, Note_on_c, 0, 67, 0
2, 64776, Note_on_c, 0, 68, 75
2, 64799, Note_on_c, 0, 68, 0
2, 64824, Note_on_c, 0, 67, 75
2, 64847, Note_on_c, 0, 67, 0
2, 64848, Note_on_c, 0, 68, 75
2, 64871, Note_on_c, 0, 68, 0
2, 64872, Note_on_c, 0, 70, 75
2, 64895, Note_on_c, 0, 70, 0
2, 64896, Note_on_c, 0, 72, 75
2, 64919, Note_on_c, 0, 72, 0
2, 64920, Note_on_c, 0, 74, 75
2, 64943, Note_on_c, 0, 74, 0
2, 64944, Note_on_c, 0, 75, 75
2, 64967, Note_on_c, 0, 75, 0
2, 64968, Note_on_c, 0, 77, 75
2, 64991, Note_on_c, 0, 77, 0
2, 64992, Note_on_c, 0, 79, 75
2, 65015, Note_on_c, 0, 79, 0
2, 65016, Note_on_c, 0, 75, 75
2, 65039, Note_on_c, 0, 75, 0
2, 65040, Note_on_c, 0, 74, 75
2, 65063, Note_on_c, 0, 74, 0
2, 65064, Note_on_c, 0, 72, 75
2, 65087, Note_on_c, 0, 72, 0
2, 65088, Note_on_c, 0, 70, 75
2, 65221, Note_on_c, 0, 70, 0
2, 65232, Note_on_c, 0, 67, 75
2, 65277, Note_on_c, 0, 67, 0
2, 65280, Note_on_c, 0, 68, 75
2, 65293, Note_on_c, 0, 68, 0
2, 65294, Note_on_c, 0, 70, 75
2, 65307, Note_on_c, 0, 70, 0
2, 65308, Note_on_c, 0, 68, 75
2, 65321, Note_on_c, 0, 68, 0
2, 65322, Note_on_c, 0, 70, 75
2, 65335, Note_on_c, 0, 70, 0
2, 65336, Note_on_c, 0, 68, 75
2, 65349, Note_on_c, 0, 68, 0
2, 65350, Note_on_c, 0, 67, 75
2, 65362, Note_on_c, 0, 67, 0
2, 65363, Note_on_c, 0, 68, 75
2, 65375, Note_on_c, 0, 68, 0
2, 65376, Note_on_c, 0, 67, 75
2, 65399, Note_on_c, 0, 67, 0
2, 65400, Note_on_c, 0, 63, 75
2, 65423, Note_on_c, 0, 63, 0
2, 65424, Note_on_c, 0, 62, 75
2, 65447, Note_on_c, 0, 62, 0
2, 65448, Note_on_c, 0, 63, 75
2, 65471, Note_on_c, 0, 63, 0
2, 65472, Note_on_c, 0, 65, 75
2, 65495, Note_on_c, 0, 65, 0
2, 65496, Note_on_c, 0, 63, 75
2, 65519, Note_on_c, 0, 63, 0
2, 65520, Note_on_c, 0, 62, 75
2, 65543, Note_on_c, 0, 62, 0
2, 65544, Note_on_c, 0, 63, 75
2, 65567, Note_on_c, 0, 63, 0
2, 65568, Note_on_c, 0, 67, 75
2, 65591, Note_on_c, 0, 67, 0
2, 65592, Note_on_c, 0, 65, 75
2, 65615, Note_on_c, 0, 65, 0
2, 65616, Note_on_c, 0, 63, 75
2, 65639, Note_on_c, 0, 63, 0
2, 65640, Note_on_c, 0, 62, 75
2, 65663, Note_on_c, 0, 62, 0
2, 65664, Note_on_c, 0, 60, 75
2, 65687, Note_on_c, 0, 60, 0
2, 65688, Note_on_c, 0, 68, 75
2, 65711, Note_on_c, 0, 68, 0
2, 65712, Note_on_c, 0, 72, 75
2, 65735, Note_on_c, 0, 72, 0
2, 65736, Note_on_c, 0, 70, 75
2, 65759, Note_on_c, 0, 70, 0
2, 65760, Note_on_c, 0, 68, 75
2, 65783, Note_on_c, 0, 68, 0
2, 65784, Note_on_c, 0, 67, 75
2, 65807, Note_on_c, 0, 67, 0
2, 65808, Note_on_c, 0, 65, 75
2, 65831, Note_on_c, 0, 65, 0
2, 65832, Note_on_c, 0, 63, 75
2, 65855, Note_on_c, 0, 63, 0
2, 65856, Note_on_c, 0, 62, 75
2, 65879, Note_on_c, 0, 62, 0
2, 65880, Note_on_c, 0, 60, 75
2, 65903, Note_on_c, 0, 60, 0
2, 65904, Note_on_c, 0, 58, 75
2, 65927, Note_on_c, 0, 58, 0
2, 65928, Note_on_c, 0, 56, 75
2, 65951, Note_on_c, 0, 56, 0
2, 65952, Note_on_c, 0, 55, 75
2, 65975, Note_on_c, 0, 55, 0
2, 65976, Note_on_c, 0, 63, 75
2, 65999, Note_on_c, 0, 63, 0
2, 66000, Note_on_c, 0, 62, 75
2, 66023, Note_on_c, 0, 62, 0
2, 66024, Note_on_c, 0, 63, 75
2, 66047, Note_on_c, 0, 63, 0
2, 66048, Note_on_c, 0, 65, 75
2, 66071, Note_on_c, 0, 65, 0
2, 66072, Note_on_c, 0, 63, 75
2, 66095, Note_on_c, 0, 63, 0
2, 66096, Note_on_c, 0, 62, 75
2, 66119, Note_on_c, 0, 62, 0
2, 66120, Note_on_c, 0, 63, 75
2, 66143, Note_on_c, 0, 63, 0
2, 66144, Note_on_c, 0, 67, 75
2, 66167, Note_on_c, 0, 67, 0
2, 66168, Note_on_c, 0, 65, 75
2, 66191, Note_on_c, 0, 65, 0
2, 66192, Note_on_c, 0, 63, 75
2, 66215, Note_on_c, 0, 63, 0
2, 66216, Note_on_c, 0, 62, 75
2, 66239, Note_on_c, 0, 62, 0
2, 66240, Note_on_c, 0, 60, 75
2, 66263, Note_on_c, 0, 60, 0
2, 66264, Note_on_c, 0, 68, 75
2, 66287, Note_on_c, 0, 68, 0
2, 66288, Note_on_c, 0, 72, 75
2, 66311, Note_on_c, 0, 72, 0
2, 66312, Note_on_c, 0, 70, 75
2, 66335, Note_on_c, 0, 70, 0
2, 66336, Note_on_c, 0, 68, 75
2, 66359, Note_on_c, 0, 68, 0
2, 66360, Note_on_c, 0, 67, 75
2, 66383, Note_on_c, 0, 67, 0
2, 66384, Note_on_c, 0, 65, 75
2, 66407, Note_on_c, 0, 65, 0
2, 66408, Note_on_c, 0, 63, 75
2, 66431, Note_on_c, 0, 63, 0
2, 66432, Note_on_c, 0, 62, 75
2, 66455, Note_on_c, 0, 62, 0
2, 66456, Note_on_c, 0, 60, 75
2, 66479, Note_on_c, 0, 60, 0
2, 66480, Note_on_c, 0, 58, 75
2, 66503, Note_on_c, 0, 58, 0
2, 66504, Note_on_c, 0, 56, 75
2, 66527, Note_on_c, 0, 56, 0
2, 66528, Note_on_c, 0, 55, 75
2, 66567, Note_on_c, 0, 55, 0
2, 66864, Note_on_c, 0, 67, 75
2, 66912, Note_on_c, 0, 67, 0
2, 66912, Note_on_c, 0, 79, 75
2, 66957, Note_on_c, 0, 79, 0
2, 66960, Note_on_c, 0, 79, 75
2, 67005, Note_on_c, 0, 79, 0
2, 67008, Note_on_c, 0, 71, 75
2, 67056, Note_on_c, 0, 71, 0
2, 67056, Note_on_c, 0, 72, 75
2, 67101, Note_on_c, 0, 72, 0
2, 67152, Note_on_c, 0, 65, 75
2, 67200, Note_on_c, 0, 65, 0
2, 67200, Note_on_c, 0, 77, 75
2, 67245, Note_on_c, 0, 77, 0
2, 67248, Note_on_c, 0, 77, 75
2, 67293, Note_on_c, 0, 77, 0
2, 67296, Note_on_c, 0, 69, 75
2, 67344, Note_on_c, 0, 69, 0
2, 67344, Note_on_c, 0, 70, 75
2, 67389, Note_on_c, 0, 70, 0
2, 67416, Note_on_c, 0, 67, 75
2, 67439, Note_on_c, 0, 67, 0
2, 67440, Note_on_c, 0, 70, 75
2, 67463, Note_on_c, 0, 70, 0
2, 67464, Note_on_c, 0, 75, 75
2, 67487, Note_on_c, 0, 75, 0
2, 67512, Note_on_c, 0, 68, 75
2, 67535, Note_on_c, 0, 68, 0
2, 67536, Note_on_c, 0, 72, 75
2, 67559, Note_on_c, 0, 72, 0
2, 67560, Note_on_c, 0, 75, 75
2, 67583, Note_on_c, 0, 75, 0
2, 67608, Note_on_c, 0, 72, 75
2, 67631, Note_on_c, 0, 72, 0
2, 67632, Note_on_c, 0, 75, 75
2, 67655, Note_on_c, 0, 75, 0
2, 67656, Note_on_c, 0, 80, 75
2, 67679, Note_on_c, 0, 80, 0
2, 67704, Note_on_c, 0, 65, 75
2, 67727, Note_on_c, 0, 65, 0
2, 67728, Note_on_c, 0, 68, 75
2, 67751, Note_on_c, 0, 68, 0
2, 67752, Note_on_c, 0, 74, 75
2, 67775, Note_on_c, 0, 74, 0
2, 67800, Note_on_c, 0, 67, 75
2, 67823, Note_on_c, 0, 67, 0
2, 67824, Note_on_c, 0, 70, 75
2, 67847, Note_on_c, 0, 70, 0
2, 67848, Note_on_c, 0, 74, 75
2, 67871, Note_on_c, 0, 74, 0
2, 67896, Note_on_c, 0, 70, 75
2, 67919, Note_on_c, 0, 70, 0
2, 67920, Note_on_c, 0, 74, 75
2, 67943, Note_on_c, 0, 74, 0
2, 67944, Note_on_c, 0, 77, 75
2, 67967, Note_on_c, 0, 77, 0
2, 67992, Note_on_c, 0, 63, 75
2, 68015, Note_on_c, 0, 63, 0
2, 68016, Note_on_c, 0, 67, 75
2, 68039, Note_on_c, 0, 67, 0
2, 68040, Note_on_c, 0, 72, 75
2, 68063, Note_on_c, 0, 72, 0
2, 68088, Note_on_c, 0, 65, 75
2, 68111, Note_on_c, 0, 65, 0
2, 68112, Note_on_c, 0, 68, 75
2, 68135, Note_on_c, 0, 68, 0
2, 68136, Note_on_c, 0, 72, 75
2, 68159, Note_on_c, 0, 72, 0
2, 68184, Note_on_c, 0, 68, 75
2, 68207, Note_on_c, 0, 68, 0
2, 68208, Note_on_c, 0, 72, 75
2, 68231, Note_on_c, 0, 72, 0
2, 68232, Note_on_c, 0, 77, 75
2, 68255, Note_on_c, 0, 77, 0
2, 68280, Note_on_c, 0, 62, 75
2, 68303, Note_on_c, 0, 62, 0
2, 68304, Note_on_c, 0, 65, 75
2, 68327, Note_on_c, 0, 65, 0
2, 68328, Note_on_c, 0, 70, 75
2, 68351, Note_on_c, 0, 70, 0
2, 68376, Note_on_c, 0, 63, 75
2, 68399, Note_on_c, 0, 63, 0
2, 68400, Note_on_c, 0, 67, 75
2, 68423, Note_on_c, 0, 67, 0
2, 68424, Note_on_c, 0, 70, 75
2, 68447, Note_on_c, 0, 70, 0
2, 68472, Note_on_c, 0, 67, 75
2, 68495, Note_on_c, 0, 67, 0
2, 68496, Note_on_c, 0, 70, 75
2, 68519, Note_on_c, 0, 70, 0
2, 68520, Note_on_c, 0, 75, 75
2, 68543, Note_on_c, 0, 75, 0
2, 68568, Note_on_c, 0, 62, 75
2, 68591, Note_on_c, 0, 62, 0
2, 68592, Note_on_c, 0, 68, 75
2, 68615, Note_on_c, 0, 68, 0
2, 68616, Note_on_c, 0, 70, 75
2, 68639, Note_on_c, 0, 70, 0
2, 68664, Note_on_c, 0, 62, 75
2, 68687, Note_on_c, 0, 62, 0
2, 68688, Note_on_c, 0, 68, 75
2, 68711, Note_on_c, 0, 68, 0
2, 68712, Note_on_c, 0, 70, 75
2, 68735, Note_on_c, 0, 70, 0
2, 68760, Note_on_c, 0, 67, 75
2, 68783, Note_on_c, 0, 67, 0
2, 68784, Note_on_c, 0, 70, 75
2, 68807, Note_on_c, 0, 70, 0
2, 68808, Note_on_c, 0, 75, 75
2, 68831, Note_on_c, 0, 75, 0
2, 68856, Note_on_c, 0, 62, 75
2, 68879, Note_on_c, 0, 62, 0
2, 68880, Note_on_c, 0, 68, 75
2, 68903, Note_on_c, 0, 68, 0
2, 68904, Note_on_c, 0, 70, 75
2, 68927, Note_on_c, 0, 70, 0
2, 68952, Note_on_c, 0, 62, 75
2, 68975, Note_on_c, 0, 62, 0
2, 68976, Note_on_c, 0, 68, 75
2, 68999, Note_on_c, 0, 68, 0
2, 69000, Note_on_c, 0, 70, 75
2, 69023, Note_on_c, 0, 70, 0
2, 69048, Note_on_c, 0, 67, 75
2, 69071, Note_on_c, 0, 67, 0
2, 69072, Note_on_c, 0, 70, 75
2, 69095, Note_on_c, 0, 70, 0
2, 69096, Note_on_c, 0, 75, 75
2, 69119, Note_on_c, 0, 75, 0
2, 69144, Note_on_c, 0, 62, 75
2, 69167, Note_on_c, 0, 62, 0
2, 69168, Note_on_c, 0, 68, 75
2, 69191, Note_on_c, 0, 68, 0
2, 69192, Note_on_c, 0, 70, 75
2, 69215, Note_on_c, 0, 70, 0
2, 69240, Note_on_c, 0, 62, 75
2, 69263, Note_on_c, 0, 62, 0
2, 69264, Note_on_c, 0, 68, 75
2, 69287, Note_on_c, 0, 68, 0
2, 69288, Note_on_c, 0, 70, 75
2, 69311, Note_on_c, 0, 70, 0
2, 69336, Note_on_c, 0, 67, 75
2, 69359, Note_on_c, 0, 67, 0
2, 69360, Note_on_c, 0, 70, 75
2, 69383, Note_on_c, 0, 70, 0
2, 69384, Note_on_c, 0, 75, 75
2, 69407, Note_on_c, 0, 75, 0
2, 69408, Note_on_c, 0, 67, 75
2, 69421, Note_on_c, 0, 67, 0
2, 69422, Note_on_c, 0, 68, 75
2, 69435, Note_on_c, 0, 68, 0
2, 69436, Note_on_c, 0, 67, 75
2, 69449, Note_on_c, 0, 67, 0
2, 69450, Note_on_c, 0, 68, 75
2, 69463, Note_on_c, 0, 68, 0
2, 69464, Note_on_c, 0, 67, 75
2, 69477, Note_on_c, 0, 67, 0
2, 69478, Note_on_c, 0, 65, 75
2, 69490, Note_on_c, 0, 65, 0
2, 69491, Note_on_c, 0, 67, 75
2, 69503, Note_on_c, 0, 67, 0
2, 69504, Note_on_c, 0, 65, 75
2, 69593, Note_on_c, 0, 65, 0
2, 69720, Note_on_c, 0, 63, 81
2, 69743, Note_on_c, 0, 63, 0
2, 69744, Note_on_c, 0, 63, 81
2, 69767, Note_on_c, 0, 63, 0
2, 69768, Note_on_c, 0, 63, 81
2, 69791, Note_on_c, 0, 63, 0
2, 69816, Note_on_c, 0, 67, 81
2, 69839, Note_on_c, 0, 67, 0
2, 69840, Note_on_c, 0, 67, 81
2, 69863, Note_on_c, 0, 67, 0
2, 69864, Note_on_c, 0, 67, 81
2, 69887, Note_on_c, 0, 67, 0
2, 69912, Note_on_c, 0, 70, 81
2, 69935, Note_on_c, 0, 70, 0
2, 69936, Note_on_c, 0, 70, 81
2, 69959, Note_on_c, 0, 70, 0
2, 69960, Note_on_c, 0, 70, 81
2, 69983, Note_on_c, 0, 70, 0
2, 70008, Note_on_c, 0, 75, 81
2, 70031, Note_on_c, 0, 75, 0
2, 70032, Note_on_c, 0, 74, 81
2, 70055, Note_on_c, 0, 74, 0
2, 70056, Note_on_c, 0, 75, 81
2, 70079, Note_on_c, 0, 75, 0
2, 70080, Note_on_c, 0, 79, 81
2, 70103, Note_on_c, 0, 79, 0
2, 70104, Note_on_c, 0, 75, 81
2, 70127, Note_on_c, 0, 75, 0
2, 70128, Note_on_c, 0, 74, 81
2, 70151, Note_on_c, 0, 74, 0
2, 70152, Note_on_c, 0, 72, 81
2, 70175, Note_on_c, 0, 72, 0
2, 70176, Note_on_c, 0, 70, 81
2, 70199, Note_on_c, 0, 70, 0
2, 70200, Note_on_c, 0, 68, 81
2, 70223, Note_on_c, 0, 68, 0
2, 70224, Note_on_c, 0, 67, 81
2, 70247, Note_on_c, 0, 67, 0
2, 70248, Note_on_c, 0, 65, 81
2, 70271, Note_on_c, 0, 65, 0
2, 70272, Note_on_c, 0, 63, 81
2, 70295, Note_on_c, 0, 63, 0
2, 70296, Note_on_c, 0, 63, 81
2, 70319, Note_on_c, 0, 63, 0
2, 70320, Note_on_c, 0, 63, 81
2, 70343, Note_on_c, 0, 63, 0
2, 70344, Note_on_c, 0, 63, 81
2, 70367, Note_on_c, 0, 63, 0
2, 70392, Note_on_c, 0, 67, 81
2, 70415, Note_on_c, 0, 67, 0
2, 70416, Note_on_c, 0, 67, 81
2, 70439, Note_on_c, 0, 67, 0
2, 70440, Note_on_c, 0, 67, 81
2, 70463, Note_on_c, 0, 67, 0
2, 70488, Note_on_c, 0, 70, 81
2, 70511, Note_on_c, 0, 70, 0
2, 70512, Note_on_c, 0, 70, 81
2, 70535, Note_on_c, 0, 70, 0
2, 70536, Note_on_c, 0, 70, 81
2, 70559, Note_on_c, 0, 70, 0
2, 70584, Note_on_c, 0, 75, 81
2, 70607, Note_on_c, 0, 75, 0
2, 70608, Note_on_c, 0, 74, 81
2, 70631, Note_on_c, 0, 74, 0
2, 70632, Note_on_c, 0, 75, 81
2, 70655, Note_on_c, 0, 75, 0
2, 70656, Note_on_c, 0, 79, 81
2, 70679, Note_on_c, 0, 79, 0
2, 70680, Note_on_c, 0, 77, 81
2, 70703, Note_on_c, 0, 77, 0
2, 70704, Note_on_c, 0, 75, 81
2, 70727, Note_on_c, 0, 75, 0
2, 70728, Note_on_c, 0, 74, 81
2, 70751, Note_on_c, 0, 74, 0
2, 70752, Note_on_c, 0, 72, 81
2, 70775, Note_on_c, 0, 72, 0
2, 70776, Note_on_c, 0, 70, 81
2, 70799, Note_on_c, 0, 70, 0
2, 70800, Note_on_c, 0, 68, 81
2, 70823, Note_on_c, 0, 68, 0
2, 70824, Note_on_c, 0, 67, 81
2, 70847, Note_on_c, 0, 67, 0
2, 70848, Note_on_c, 0, 65, 81
2, 70871, Note_on_c, 0, 65, 0
2, 70872, Note_on_c, 0, 68, 81
2, 70895, Note_on_c, 0, 68, 0
2, 70896, Note_on_c, 0, 67, 81
2, 70919, Note_on_c, 0, 67, 0
2, 70920, Note_on_c, 0, 68, 81
2, 70943, Note_on_c, 0, 68, 0
2, 70944, Note_on_c, 0, 72, 81
2, 70967, Note_on_c, 0, 72, 0
2, 70968, Note_on_c, 0, 70, 81
2, 70991, Note_on_c, 0, 70, 0
2, 70992, Note_on_c, 0, 68, 81
2, 71015, Note_on_c, 0, 68, 0
2, 71016, Note_on_c, 0, 67, 81
2, 71039, Note_on_c, 0, 67, 0
2, 71040, Note_on_c, 0, 65, 81
2, 71063, Note_on_c, 0, 65, 0
2, 71064, Note_on_c, 0, 63, 81
2, 71087, Note_on_c, 0, 63, 0
2, 71088, Note_on_c, 0, 62, 81
2, 71111, Note_on_c, 0, 62, 0
2, 71112, Note_on_c, 0, 60, 81
2, 71135, Note_on_c, 0, 60, 0
2, 71136, Note_on_c, 0, 58, 81
2, 71159, Note_on_c, 0, 58, 0
2, 71160, Note_on_c, 0, 62, 80
2, 71183, Note_on_c, 0, 62, 0
2, 71184, Note_on_c, 0, 62, 80
2, 71207, Note_on_c, 0, 62, 0
2, 71208, Note_on_c, 0, 62, 80
2, 71231, Note_on_c, 0, 62, 0
2, 71232, Note_on_c, 0, 65, 80
2, 71255, Note_on_c, 0, 65, 0
2, 71256, Note_on_c, 0, 62, 80
2, 71279, Note_on_c, 0, 62, 0
2, 71280, Note_on_c, 0, 65, 80
2, 71303, Note_on_c, 0, 65, 0
2, 71304, Note_on_c, 0, 62, 79
2, 71327, Note_on_c, 0, 62, 0
2, 71352, Note_on_c, 0, 62, 79
2, 71375, Note_on_c, 0, 62, 0
2, 71376, Note_on_c, 0, 62, 79
2, 71399, Note_on_c, 0, 62, 0
2, 71400, Note_on_c, 0, 62, 79
2, 71423, Note_on_c, 0, 62, 0
2, 71448, Note_on_c, 0, 63, 78
2, 71471, Note_on_c, 0, 63, 0
2, 71472, Note_on_c, 0, 63, 78
2, 71495, Note_on_c, 0, 63, 0
2, 71496, Note_on_c, 0, 63, 78
2, 71519, Note_on_c, 0, 63, 0
2, 71520, Note_on_c, 0, 67, 78
2, 71543, Note_on_c, 0, 67, 0
2, 71544, Note_on_c, 0, 63, 78
2, 71567, Note_on_c, 0, 63, 0
2, 71568, Note_on_c, 0, 67, 78
2, 71591, Note_on_c, 0, 67, 0
2, 71592, Note_on_c, 0, 63, 77
2, 71615, Note_on_c, 0, 63, 0
2, 71640, Note_on_c, 0, 63, 77
2, 71663, Note_on_c, 0, 63, 0
2, 71664, Note_on_c, 0, 63, 77
2, 71687, Note_on_c, 0, 63, 0
2, 71688, Note_on_c, 0, 63, 77
2, 71711, Note_on_c, 0, 63, 0
2, 71736, Note_on_c, 0, 65, 76
2, 71759, Note_on_c, 0, 65, 0
2, 71760, Note_on_c, 0, 65, 76
2, 71783, Note_on_c, 0, 65, 0
2, 71784, Note_on_c, 0, 65, 76
2, 71807, Note_on_c, 0, 65, 0
2, 71808, Note_on_c, 0, 68, 76
2, 71831, Note_on_c, 0, 68, 0
2, 71832, Note_on_c, 0, 65, 76
2, 71855, Note_on_c, 0, 65, 0
2, 71856, Note_on_c, 0, 68, 76
2, 71879, Note_on_c, 0, 68, 0
2, 71880, Note_on_c, 0, 65, 75
2, 71903, Note_on_c, 0, 65, 0
2, 71928, Note_on_c, 0, 65, 75
2, 71951, Note_on_c, 0, 65, 0
2, 71952, Note_on_c, 0, 65, 75
2, 71975, Note_on_c, 0, 65, 0
2, 71976, Note_on_c, 0, 65, 75
2, 71999, Note_on_c, 0, 65, 0
2, 72000, Note_on_c, 0, 63, 75
2, 72023, Note_on_c, 0, 63, 0
2, 72024, Note_on_c, 0, 67, 75
2, 72047, Note_on_c, 0, 67, 0
2, 72048, Note_on_c, 0, 62, 75
2, 72071, Note_on_c, 0, 62, 0
2, 72072, Note_on_c, 0, 65, 75
2, 72095, Note_on_c, 0, 65, 0
2, 72096, Note_on_c, 0, 60, 75
2, 72119, Note_on_c, 0, 60, 0
2, 72120, Note_on_c, 0, 63, 75
2, 72143, Note_on_c, 0, 63, 0
2, 72144, Note_on_c, 0, 58, 75
2, 72167, Note_on_c, 0, 58, 0
2, 72168, Note_on_c, 0, 62, 75
2, 72191, Note_on_c, 0, 62, 0
2, 72192, Note_on_c, 0, 56, 75
2, 72215, Note_on_c, 0, 56, 0
2, 72216, Note_on_c, 0, 60, 75
2, 72239, Note_on_c, 0, 60, 0
2, 72240, Note_on_c, 0, 55, 75
2, 72263, Note_on_c, 0, 55, 0
2, 72264, Note_on_c, 0, 58, 75
2, 72287, Note_on_c, 0, 58, 0
2, 72288, Note_on_c, 0, 63, 70
2, 72311, Note_on_c, 0, 63, 0
2, 72312, Note_on_c, 0, 67, 70
2, 72335, Note_on_c, 0, 67, 0
2, 72336, Note_on_c, 0, 62, 70
2, 72359, Note_on_c, 0, 62, 0
2, 72360, Note_on_c, 0, 65, 70
2, 72383, Note_on_c, 0, 65, 0
2, 72384, Note_on_c, 0, 60, 70
2, 72407, Note_on_c, 0, 60, 0
2, 72408, Note_on_c, 0, 63, 70
2, 72431, Note_on_c, 0, 63, 0
2, 72432, Note_on_c, 0, 58, 70
2, 72455, Note_on_c, 0, 58, 0
2, 72456, Note_on_c, 0, 62, 70
2, 72479, Note_on_c, 0, 62, 0
2, 72480, Note_on_c, 0, 56, 70
2, 72503, Note_on_c, 0, 56, 0
2, 72504, Note_on_c, 0, 60, 70
2, 72527, Note_on_c, 0, 60, 0
2, 72528, Note_on_c, 0, 55, 70
2, 72551, Note_on_c, 0, 55, 0
2, 72552, Note_on_c, 0, 58, 70
2, 72575, Note_on_c, 0, 58, 0
2, 72600, Note_on_c, 0, 60, 75
2, 72623, Note_on_c, 0, 60, 0
2, 72624, Note_on_c, 0, 62, 75
2, 72647, Note_on_c, 0, 62, 0
2, 72648, Note_on_c, 0, 63, 75
2, 72671, Note_on_c, 0, 63, 0
2, 72672, Note_on_c, 0, 65, 75
2, 72695, Note_on_c, 0, 65, 0
2, 72696, Note_on_c, 0, 67, 75
2, 72719, Note_on_c, 0, 67, 0
2, 72720, Note_on_c, 0, 68, 75
2, 72743, Note_on_c, 0, 68, 0
2, 72744, Note_on_c, 0, 70, 75
2, 72767, Note_on_c, 0, 70, 0
2, 72768, Note_on_c, 0, 72, 75
2, 72813, Note_on_c, 0, 72, 0
2, 72888, Note_on_c, 0, 58, 75
2, 72911, Note_on_c, 0, 58, 0
2, 72912, Note_on_c, 0, 60, 75
2, 72935, Note_on_c, 0, 60, 0
2, 72936, Note_on_c, 0, 62, 75
2, 72959, Note_on_c, 0, 62, 0
2, 72960, Note_on_c, 0, 63, 75
2, 72983, Note_on_c, 0, 63, 0
2, 72984, Note_on_c, 0, 65, 75
2, 73007, Note_on_c, 0, 65, 0
2, 73008, Note_on_c, 0, 67, 75
2, 73031, Note_on_c, 0, 67, 0
2, 73032, Note_on_c, 0, 68, 75
2, 73055, Note_on_c, 0, 68, 0
2, 73056, Note_on_c, 0, 70, 75
2, 73101, Note_on_c, 0, 70, 0
2, 73176, Note_on_c, 0, 60, 70
2, 73199, Note_on_c, 0, 60, 0
2, 73200, Note_on_c, 0, 62, 70
2, 73223, Note_on_c, 0, 62, 0
2, 73224, Note_on_c, 0, 63, 70
2, 73247, Note_on_c, 0, 63, 0
2, 73248, Note_on_c, 0, 65, 70
2, 73271, Note_on_c, 0, 65, 0
2, 73272, Note_on_c, 0, 67, 70
2, 73295, Note_on_c, 0, 67, 0
2, 73296, Note_on_c, 0, 68, 70
2, 73319, Note_on_c, 0, 68, 0
2, 73320, Note_on_c, 0, 70, 70
2, 73343, Note_on_c, 0, 70, 0
2, 73344, Note_on_c, 0, 72, 70
2, 73389, Note_on_c, 0, 72, 0
2, 73464, Note_on_c, 0, 58, 70
2, 73487, Note_on_c, 0, 58, 0
2, 73488, Note_on_c, 0, 60, 70
2, 73511, Note_on_c, 0, 60, 0
2, 73512, Note_on_c, 0, 62, 70
2, 73535, Note_on_c, 0, 62, 0
2, 73536, Note_on_c, 0, 63, 70
2, 73559, Note_on_c, 0, 63, 0
2, 73560, Note_on_c, 0, 65, 70
2, 73583, Note_on_c, 0, 65, 0
2, 73584, Note_on_c, 0, 67, 70
2, 73607, Note_on_c, 0, 67, 0
2, 73608, Note_on_c, 0, 68, 70
2, 73631, Note_on_c, 0, 68, 0
2, 73632, Note_on_c, 0, 70, 70
2, 73655, Note_on_c, 0, 70, 0
2, 73656, Note_on_c, 0, 72, 70
2, 73679, Note_on_c, 0, 72, 0
2, 73680, Note_on_c, 0, 74, 70
2, 73703, Note_on_c, 0, 74, 0
2, 73704, Note_on_c, 0, 75, 70
2, 73716, Note_on_c, 0, 75, 0
2, 73716, Note_on_c, 0, 77, 70
2, 73728, Note_on_c, 0, 77, 0
2, 73728, Note_on_c, 0, 79, 86
2, 73776, Note_on_c, 0, 79, 0
2, 74016, Note_on_c, 0, 77, 75
2, 74039, Note_on_c, 0, 77, 0
2, 74040, Note_on_c, 0, 81, 75
2, 74063, Note_on_c, 0, 81, 0
2, 74064, Note_on_c, 0, 84, 75
2, 74087, Note_on_c, 0, 84, 0
2, 74088, Note_on_c, 0, 82, 75
2, 74111, Note_on_c, 0, 82, 0
2, 74112, Note_on_c, 0, 81, 75
2, 74135, Note_on_c, 0, 81, 0
2, 74136, Note_on_c, 0, 79, 75
2, 74159, Note_on_c, 0, 79, 0
2, 74160, Note_on_c, 0, 77, 75
2, 74183, Note_on_c, 0, 77, 0
2, 74184, Note_on_c, 0, 79, 75
2, 74207, Note_on_c, 0, 79, 0
2, 74208, Note_on_c, 0, 77, 75
2, 74231, Note_on_c, 0, 77, 0
2, 74232, Note_on_c, 0, 79, 75
2, 74255, Note_on_c, 0, 79, 0
2, 74256, Note_on_c, 0, 77, 75
2, 74279, Note_on_c, 0, 77, 0
2, 74280, Note_on_c, 0, 79, 75
2, 74303, Note_on_c, 0, 79, 0
2, 74304, Note_on_c, 0, 77, 75
2, 74327, Note_on_c, 0, 77, 0
2, 74328, Note_on_c, 0, 81, 75
2, 74351, Note_on_c, 0, 81, 0
2, 74352, Note_on_c, 0, 82, 75
2, 74375, Note_on_c, 0, 82, 0
2, 74376, Note_on_c, 0, 81, 75
2, 74399, Note_on_c, 0, 81, 0
2, 74400, Note_on_c, 0, 79, 75
2, 74423, Note_on_c, 0, 79, 0
2, 74424, Note_on_c, 0, 77, 75
2, 74447, Note_on_c, 0, 77, 0
2, 74448, Note_on_c, 0, 75, 75
2, 74471, Note_on_c, 0, 75, 0
2, 74472, Note_on_c, 0, 74, 75
2, 74495, Note_on_c, 0, 74, 0
2, 74496, Note_on_c, 0, 72, 75
2, 74519, Note_on_c, 0, 72, 0
2, 74520, Note_on_c, 0, 70, 75
2, 74543, Note_on_c, 0, 70, 0
2, 74544, Note_on_c, 0, 69, 75
2, 74567, Note_on_c, 0, 69, 0
2, 74568, Note_on_c, 0, 67, 75
2, 74591, Note_on_c, 0, 67, 0
2, 74592, Note_on_c, 0, 65, 75
2, 74615, Note_on_c, 0, 65, 0
2, 74616, Note_on_c, 0, 69, 75
2, 74639, Note_on_c, 0, 69, 0
2, 74640, Note_on_c, 0, 72, 75
2, 74663, Note_on_c, 0, 72, 0
2, 74664, Note_on_c, 0, 70, 75
2, 74687, Note_on_c, 0, 70, 0
2, 74688, Note_on_c, 0, 69, 75
2, 74711, Note_on_c, 0, 69, 0
2, 74712, Note_on_c, 0, 67, 75
2, 74735, Note_on_c, 0, 67, 0
2, 74736, Note_on_c, 0, 65, 75
2, 74759, Note_on_c, 0, 65, 0
2, 74760, Note_on_c, 0, 67, 75
2, 74783, Note_on_c, 0, 67, 0
2, 74784, Note_on_c, 0, 65, 75
2, 74807, Note_on_c, 0, 65, 0
2, 74808, Note_on_c, 0, 67, 75
2, 74831, Note_on_c, 0, 67, 0
2, 74832, Note_on_c, 0, 65, 75
2, 74855, Note_on_c, 0, 65, 0
2, 74856, Note_on_c, 0, 67, 75
2, 74879, Note_on_c, 0, 67, 0
2, 74880, Note_on_c, 0, 65, 75
2, 74903, Note_on_c, 0, 65, 0
2, 74904, Note_on_c, 0, 70, 75
2, 74927, Note_on_c, 0, 70, 0
2, 74928, Note_on_c, 0, 69, 75
2, 74951, Note_on_c, 0, 69, 0
2, 74952, Note_on_c, 0, 67, 75
2, 74975, Note_on_c, 0, 67, 0
2, 74976, Note_on_c, 0, 65, 75
2, 74999, Note_on_c, 0, 65, 0
2, 75000, Note_on_c, 0, 63, 75
2, 75023, Note_on_c, 0, 63, 0
2, 75024, Note_on_c, 0, 62, 75
2, 75047, Note_on_c, 0, 62, 0
2, 75048, Note_on_c, 0, 60, 75
2, 75071, Note_on_c, 0, 60, 0
2, 75072, Note_on_c, 0, 58, 75
2, 75095, Note_on_c, 0, 58, 0
2, 75096, Note_on_c, 0, 60, 75
2, 75119, Note_on_c, 0, 60, 0
2, 75120, Note_on_c, 0, 62, 75
2, 75143, Note_on_c, 0, 62, 0
2, 75144, Note_on_c, 0, 63, 75
2, 75167, Note_on_c, 0, 63, 0
2, 75168, Note_on_c, 0, 65, 75
2, 75191, Note_on_c, 0, 65, 0
2, 75192, Note_on_c, 0, 62, 75
2, 75215, Note_on_c, 0, 62, 0
2, 75216, Note_on_c, 0, 65, 75
2, 75239, Note_on_c, 0, 65, 0
2, 75240, Note_on_c, 0, 67, 75
2, 75263, Note_on_c, 0, 67, 0
2, 75264, Note_on_c, 0, 68, 75
2, 75287, Note_on_c, 0, 68, 0
2, 75288, Note_on_c, 0, 67, 75
2, 75311, Note_on_c, 0, 67, 0
2, 75312, Note_on_c, 0, 65, 75
2, 75335, Note_on_c, 0, 65, 0
2, 75336, Note_on_c, 0, 63, 75
2, 75359, Note_on_c, 0, 63, 0
2, 75360, Note_on_c, 0, 62, 75
2, 75383, Note_on_c, 0, 62, 0
2, 75384, Note_on_c, 0, 60, 75
2, 75407, Note_on_c, 0, 60, 0
2, 75408, Note_on_c, 0, 58, 75
2, 75431, Note_on_c, 0, 58, 0
2, 75432, Note_on_c, 0, 56, 75
2, 75455, Note_on_c, 0, 56, 0
2, 75456, Note_on_c, 0, 55, 75
2, 75479, Note_on_c, 0, 55, 0
2, 75480, Note_on_c, 0, 58, 75
2, 75503, Note_on_c, 0, 58, 0
2, 75504, Note_on_c, 0, 56, 75
2, 75527, Note_on_c, 0, 56, 0
2, 75528, Note_on_c, 0, 55, 75
2, 75551, Note_on_c, 0, 55, 0
2, 75552, Note_on_c, 0, 56, 75
2, 75575, Note_on_c, 0, 56, 0
2, 75576, Note_on_c, 0, 58, 75
2, 75599, Note_on_c, 0, 58, 0
2, 75600, Note_on_c, 0, 60, 75
2, 75623, Note_on_c, 0, 60, 0
2, 75624, Note_on_c, 0, 62, 75
2, 75647, Note_on_c, 0, 62, 0
2, 75648, Note_on_c, 0, 63, 75
2, 75671, Note_on_c, 0, 63, 0
2, 75672, Note_on_c, 0, 65, 75
2, 75695, Note_on_c, 0, 65, 0
2, 75696, Note_on_c, 0, 67, 75
2, 75719, Note_on_c, 0, 67, 0
2, 75720, Note_on_c, 0, 63, 75
2, 75743, Note_on_c, 0, 63, 0
2, 75744, Note_on_c, 0, 62, 75
2, 75767, Note_on_c, 0, 62, 0
2, 75768, Note_on_c, 0, 60, 75
2, 75791, Note_on_c, 0, 60, 0
2, 75792, Note_on_c, 0, 68, 75
2, 75815, Note_on_c, 0, 68, 0
2, 75816, Note_on_c, 0, 65, 75
2, 75839, Note_on_c, 0, 65, 0
2, 75840, Note_on_c, 0, 63, 75
2, 75929, Note_on_c, 0, 63, 0
2, 75936, Note_on_c, 0, 62, 75
2, 75949, Note_on_c, 0, 62, 0
2, 75950, Note_on_c, 0, 63, 75
2, 75963, Note_on_c, 0, 63, 0
2, 75964, Note_on_c, 0, 62, 75
2, 75977, Note_on_c, 0, 62, 0
2, 75978, Note_on_c, 0, 63, 75
2, 75991, Note_on_c, 0, 63, 0
2, 75992, Note_on_c, 0, 62, 75
2, 76005, Note_on_c, 0, 62, 0
2, 76006, Note_on_c, 0, 60, 75
2, 76018, Note_on_c, 0, 60, 0
2, 76019, Note_on_c, 0, 62, 75
2, 76031, Note_on_c, 0, 62, 0
2, 76032, Note_on_c, 0, 55, 75
2, 76055, Note_on_c, 0, 55, 0
2, 76056, Note_on_c, 0, 58, 75
2, 76079, Note_on_c, 0, 58, 0
2, 76080, Note_on_c, 0, 56, 75
2, 76103, Note_on_c, 0, 56, 0
2, 76104, Note_on_c, 0, 55, 75
2, 76127, Note_on_c, 0, 55, 0
2, 76128, Note_on_c, 0, 56, 75
2, 76151, Note_on_c, 0, 56, 0
2, 76152, Note_on_c, 0, 58, 75
2, 76175, Note_on_c, 0, 58, 0
2, 76176, Note_on_c, 0, 60, 75
2, 76199, Note_on_c, 0, 60, 0
2, 76200, Note_on_c, 0, 62, 75
2, 76223, Note_on_c, 0, 62, 0
2, 76224, Note_on_c, 0, 63, 75
2, 76247, Note_on_c, 0, 63, 0
2, 76248, Note_on_c, 0, 65, 75
2, 76271, Note_on_c, 0, 65, 0
2, 76272, Note_on_c, 0, 67, 75
2, 76295, Note_on_c, 0, 67, 0
2, 76296, Note_on_c, 0, 63, 75
2, 76319, Note_on_c, 0, 63, 0
2, 76320, Note_on_c, 0, 62, 75
2, 76343, Note_on_c, 0, 62, 0
2, 76344, Note_on_c, 0, 60, 75
2, 76367, Note_on_c, 0, 60, 0
2, 76368, Note_on_c, 0, 68, 75
2, 76391, Note_on_c, 0, 68, 0
2, 76392, Note_on_c, 0, 65, 75
2, 76415, Note_on_c, 0, 65, 0
2, 76416, Note_on_c, 0, 63, 75
2, 76439, Note_on_c, 0, 63, 0
2, 76440, Note_on_c, 0, 62, 75
2, 76463, Note_on_c, 0, 62, 0
2, 76464, Note_on_c, 0, 70, 75
2, 76487, Note_on_c, 0, 70, 0
2, 76488, Note_on_c, 0, 67, 75
2, 76511, Note_on_c, 0, 67, 0
2, 76512, Note_on_c, 0, 65, 75
2, 76535, Note_on_c, 0, 65, 0
2, 76536, Note_on_c, 0, 63, 75
2, 76559, Note_on_c, 0, 63, 0
2, 76560, Note_on_c, 0, 72, 75
2, 76583, Note_on_c, 0, 72, 0
2, 76584, Note_on_c, 0, 68, 75
2, 76607, Note_on_c, 0, 68, 0
2, 76608, Note_on_c, 0, 67, 75
2, 76631, Note_on_c, 0, 67, 0
2, 76632, Note_on_c, 0, 65, 75
2, 76655, Note_on_c, 0, 65, 0
2, 76656, Note_on_c, 0, 79, 75
2, 76679, Note_on_c, 0, 79, 0
2, 76680, Note_on_c, 0, 77, 75
2, 76703, Note_on_c, 0, 77, 0
2, 76704, Note_on_c, 0, 75, 75
2, 76727, Note_on_c, 0, 75, 0
2, 76728, Note_on_c, 0, 74, 75
2, 76751, Note_on_c, 0, 74, 0
2, 76752, Note_on_c, 0, 77, 75
2, 76775, Note_on_c, 0, 77, 0
2, 76776, Note_on_c, 0, 75, 75
2, 76799, Note_on_c, 0, 75, 0
2, 76800, Note_on_c, 0, 74, 75
2, 76823, Note_on_c, 0, 74, 0
2, 76824, Note_on_c, 0, 72, 75
2, 76847, Note_on_c, 0, 72, 0
2, 76848, Note_on_c, 0, 70, 75
2, 76871, Note_on_c, 0, 70, 0
2, 76872, Note_on_c, 0, 68, 75
2, 76895, Note_on_c, 0, 68, 0
2, 76896, Note_on_c, 0, 67, 75
2, 76919, Note_on_c, 0, 67, 0
2, 76920, Note_on_c, 0, 70, 75
2, 76943, Note_on_c, 0, 70, 0
2, 76944, Note_on_c, 0, 68, 75
2, 76967, Note_on_c, 0, 68, 0
2, 76968, Note_on_c, 0, 67, 75
2, 76991, Note_on_c, 0, 67, 0
2, 76992, Note_on_c, 0, 68, 75
2, 77015, Note_on_c, 0, 68, 0
2, 77016, Note_on_c, 0, 70, 75
2, 77039, Note_on_c, 0, 70, 0
2, 77040, Note_on_c, 0, 72, 75
2, 77063, Note_on_c, 0, 72, 0
2, 77064, Note_on_c, 0, 74, 75
2, 77087, Note_on_c, 0, 74, 0
2, 77088, Note_on_c, 0, 75, 75
2, 77111, Note_on_c, 0, 75, 0
2, 77112, Note_on_c, 0, 77, 75
2, 77135, Note_on_c, 0, 77, 0
2, 77136, Note_on_c, 0, 79, 75
2, 77159, Note_on_c, 0, 79, 0
2, 77160, Note_on_c, 0, 75, 75
2, 77183, Note_on_c, 0, 75, 0
2, 77184, Note_on_c, 0, 74, 75
2, 77207, Note_on_c, 0, 74, 0
2, 77208, Note_on_c, 0, 72, 75
2, 77231, Note_on_c, 0, 72, 0
2, 77232, Note_on_c, 0, 84, 75
2, 77255, Note_on_c, 0, 84, 0
2, 77256, Note_on_c, 0, 80, 75
2, 77279, Note_on_c, 0, 80, 0
2, 77280, Note_on_c, 0, 79, 75
2, 77369, Note_on_c, 0, 79, 0
2, 77376, Note_on_c, 0, 77, 75
2, 77389, Note_on_c, 0, 77, 0
2, 77390, Note_on_c, 0, 79, 75
2, 77403, Note_on_c, 0, 79, 0
2, 77404, Note_on_c, 0, 77, 75
2, 77417, Note_on_c, 0, 77, 0
2, 77418, Note_on_c, 0, 79, 75
2, 77431, Note_on_c, 0, 79, 0
2, 77432, Note_on_c, 0, 77, 75
2, 77445, Note_on_c, 0, 77, 0
2, 77446, Note_on_c, 0, 75, 75
2, 77458, Note_on_c, 0, 75, 0
2, 77459, Note_on_c, 0, 77, 75
2, 77471, Note_on_c, 0, 77, 0
2, 77472, Note_on_c, 0, 75, 75
2, 77492, Note_on_c, 0, 75, 0
2, 77520, Note_on_c, 0, 70, 75
2, 77520, Note_on_c, 0, 67, 75
2, 77543, Note_on_c, 0, 70, 0
2, 77543, Note_on_c, 0, 67, 0
2, 77544, Note_on_c, 0, 72, 74
2, 77544, Note_on_c, 0, 68, 74
2, 77567, Note_on_c, 0, 72, 0
2, 77567, Note_on_c, 0, 68, 0
2, 77568, Note_on_c, 0, 70, 74
2, 77568, Note_on_c, 0, 67, 74
2, 77613, Note_on_c, 0, 70, 0
2, 77613, Note_on_c, 0, 67, 0
2, 77616, Note_on_c, 0, 68, 73
2, 77616, Note_on_c, 0, 65, 73
2, 77661, Note_on_c, 0, 68, 0
2, 77661, Note_on_c, 0, 65, 0
2, 77664, Note_on_c, 0, 67, 72
2, 77664, Note_on_c, 0, 63, 72
2, 77709, Note_on_c, 0, 67, 0
2, 77709, Note_on_c, 0, 63, 0
2, 77712, Note_on_c, 0, 65, 71
2, 77712, Note_on_c, 0, 62, 71
2, 77757, Note_on_c, 0, 65, 0
2, 77757, Note_on_c, 0, 62, 0
2, 77760, Note_on_c, 0, 67, 70
2, 77760, Note_on_c, 0, 63, 70
2, 77780, Note_on_c, 0, 67, 0
2, 77780, Note_on_c, 0, 63, 0
2, 77808, Note_on_c, 0, 67, 70
2, 77808, Note_on_c, 0, 58, 70
2, 77831, Note_on_c, 0, 67, 0
2, 77831, Note_on_c, 0, 58, 0
2, 77832, Note_on_c, 0, 68, 70
2, 77832, Note_on_c, 0, 60, 70
2, 77855, Note_on_c, 0, 68, 0
2, 77855, Note_on_c, 0, 60, 0
2, 77856, Note_on_c, 0, 67, 70
2, 77856, Note_on_c, 0, 58, 70
2, 77901, Note_on_c, 0, 67, 0
2, 77901, Note_on_c, 0, 58, 0
2, 77904, Note_on_c, 0, 65, 70
2, 77904, Note_on_c, 0, 56, 70
2, 77949, Note_on_c, 0, 65, 0
2, 77949, Note_on_c, 0, 56, 0
2, 77952, Note_on_c, 0, 63, 70
2, 77952, Note_on_c, 0, 55, 70
2, 77997, Note_on_c, 0, 63, 0
2, 77997, Note_on_c, 0, 55, 0
2, 78000, Note_on_c, 0, 62, 70
2, 78000, Note_on_c, 0, 53, 70
2, 78045, Note_on_c, 0, 62, 0
2, 78045, Note_on_c, 0, 53, 0
2, 78048, Note_on_c, 0, 62, 70
2, 78048, Note_on_c, 0, 56, 70
2, 78048, Note_on_c, 0, 53, 70
2, 78240, Note_on_c, 0, 62, 0
2, 78240, Note_on_c, 0, 56, 0
2, 78240, Note_on_c, 0, 53, 0
2, 78240, Control_c, 0, 64, 127
2, 78240, Note_on_c, 0, 51, 70
2, 78249, Note_on_c, 0, 55, 70
2, 78258, Note_on_c, 0, 58, 70
2, 78267, Note_on_c, 0, 63, 70
2, 78513, Note_on_c, 0, 63, 0
2, 78513, Note_on_c, 0, 58, 0
2, 78513, Note_on_c, 0, 55, 0
2, 78513, Note_on_c, 0, 51, 0
2, 78528, Control_c, 0, 64, 0
2, 78624, End_track
3, 0, Start_track
3, 0, Program_c, 0, 0
3, 0, Control_c, 0, 7, 127
3, 0, Control_c, 0, 10, 64
3, 32544, Note_on_c, 0, 77, 64
3, 32633, Note_on_c, 0, 77, 0
3, 33120, Note_on_c, 0, 65, 64
3, 33209, Note_on_c, 0, 65, 0
3, 57600, Note_on_c, 0, 77, 64
3, 57689, Note_on_c, 0, 77, 0
3, 58176, Note_on_c, 0, 65, 64
3, 58265, Note_on_c, 0, 65, 0
3, 78624, End_track
4, 0, Start_track
4, 0, Program_c, 1, 0
4, 0, Control_c, 1, 7, 127
4, 0, Control_c, 1, 10, 64
4, 0, Note_on_c, 1, 55, 75
4, 0, Note_on_c, 1, 51, 75
4, 177, Note_on_c, 1, 55, 0
4, 177, Note_on_c, 1, 51, 0
4, 192, Note_on_c, 1, 67, 75
4, 281, Note_on_c, 1, 67, 0
4, 288, Note_on_c, 1, 68, 75
4, 333, Note_on_c, 1, 68, 0
4, 384, Note_on_c, 1, 67, 75
4, 429, Note_on_c, 1, 67, 0
4, 480, Note_on_c, 1, 65, 75
4, 525, Note_on_c, 1, 65, 0
4, 576, Note_on_c, 1, 63, 75
4, 753, Note_on_c, 1, 63, 0
4, 768, Note_on_c, 1, 67, 75
4, 857, Note_on_c, 1, 67, 0
4, 864, Note_on_c, 1, 68, 75
4, 909, Note_on_c, 1, 68, 0
4, 960, Note_on_c, 1, 67, 75
4, 1005, Note_on_c, 1, 67, 0
4, 1056, Note_on_c, 1, 65, 75
4, 1101, Note_on_c, 1, 65, 0
4, 1152, Note_on_c, 1, 63, 75
4, 1241, Note_on_c, 1, 63, 0
4, 1488, Note_on_c, 1, 51, 75
4, 1511, Note_on_c, 1, 51, 0
4, 1512, Note_on_c, 1, 53, 75
4, 1535, Note_on_c, 1, 53, 0
4, 1536, Note_on_c, 1, 55, 75
4, 1581, Note_on_c, 1, 55, 0
4, 1584, Note_on_c, 1, 51, 75
4, 1629, Note_on_c, 1, 51, 0
4, 1632, Note_on_c, 1, 53, 75
4, 1677, Note_on_c, 1, 53, 0
4, 1680, Note_on_c, 1, 46, 75
4, 1725, Note_on_c, 1, 46, 0
4, 1728, Note_on_c, 1, 51, 75
4, 1817, Note_on_c, 1, 51, 0
4, 1920, Note_on_c, 1, 43, 75
4, 1959, Note_on_c, 1, 43, 0
4, 2016, Note_on_c, 1, 44, 75
4, 2055, Note_on_c, 1, 44, 0
4, 2208, Note_on_c, 1, 46, 75
4, 2247, Note_on_c, 1, 46, 0
4, 2304, Note_on_c, 1, 51, 75
4, 2343, Note_on_c, 1, 51, 0
4, 2496, Note_on_c, 1, 43, 75
4, 2535, Note_on_c, 1, 43, 0
4, 2592, Note_on_c, 1, 44, 75
4, 2631, Note_on_c, 1, 44, 0
4, 2784, Note_on_c, 1, 46, 75
4, 2823, Note_on_c, 1, 46, 0
4, 2904, Note_on_c, 1, 51, 75
4, 2927, Note_on_c, 1, 51, 0
4, 2928, Note_on_c, 1, 53, 75
4, 2951, Note_on_c, 1, 53, 0
4, 2952, Note_on_c, 1, 55, 75
4, 2975, Note_on_c, 1, 55, 0
4, 2976, Note_on_c, 1, 56, 75
4, 2999, Note_on_c, 1, 56, 0
4, 3000, Note_on_c, 1, 58, 75
4, 3023, Note_on_c, 1, 58, 0
4, 3024, Note_on_c, 1, 60, 75
4, 3047, Note_on_c, 1, 60, 0
4, 3048, Note_on_c, 1, 62, 75
4, 3071, Note_on_c, 1, 62, 0
4, 3072, Note_on_c, 1, 63, 75
4, 3095, Note_on_c, 1, 63, 0
4, 3096, Note_on_c, 1, 65, 75
4, 3119, Note_on_c, 1, 65, 0
4, 3120, Note_on_c, 1, 67, 75
4, 3143, Note_on_c, 1, 67, 0
4, 3144, Note_on_c, 1, 65, 75
4, 3167, Note_on_c, 1, 65, 0
4, 3168, Note_on_c, 1, 63, 75
4, 3257, Note_on_c, 1, 63, 0
4, 3360, Note_on_c, 1, 63, 75
4, 3449, Note_on_c, 1, 63, 0
4, 3456, Note_on_c, 1, 62, 75
4, 3545, Note_on_c, 1, 62, 0
4, 3648, Note_on_c, 1, 62, 75
4, 3737, Note_on_c, 1, 62, 0
4, 3744, Note_on_c, 1, 63, 75
4, 3833, Note_on_c, 1, 63, 0
4, 3840, Note_on_c, 1, 72, 81
4, 3879, Note_on_c, 1, 72, 0
4, 3936, Note_on_c, 1, 63, 81
4, 4025, Note_on_c, 1, 63, 0
4, 4032, Note_on_c, 1, 62, 81
4, 4121, Note_on_c, 1, 62, 0
4, 4128, Note_on_c, 1, 70, 81
4, 4217, Note_on_c, 1, 70, 0
4, 4224, Note_on_c, 1, 62, 81
4, 4263, Note_on_c, 1, 62, 0
4, 4320, Note_on_c, 1, 57, 81
4, 4359, Note_on_c, 1, 57, 0
4, 4416, Note_on_c, 1, 69, 81
4, 4455, Note_on_c, 1, 69, 0
4, 4512, Note_on_c, 1, 70, 81
4, 4551, Note_on_c, 1, 70, 0
4, 4608, Note_on_c, 1, 57, 81
4, 4647, Note_on_c, 1, 57, 0
4, 4704, Note_on_c, 1, 69, 81
4, 4743, Note_on_c, 1, 69, 0
4, 4800, Note_on_c, 1, 70, 81
4, 4839, Note_on_c, 1, 70, 0
4, 4896, Note_on_c, 1, 57, 81
4, 4935, Note_on_c, 1, 57, 0
4, 4992, Note_on_c, 1, 69, 81
4, 5031, Note_on_c, 1, 69, 0
4, 5088, Note_on_c, 1, 70, 81
4, 5127, Note_on_c, 1, 70, 0
4, 5184, Note_on_c, 1, 70, 75
4, 5280, Note_on_c, 1, 70, 0
4, 5280, Note_on_c, 1, 69, 75
4, 5369, Note_on_c, 1, 69, 0
4, 5472, Note_on_c, 1, 46, 81
4, 5472, Note_on_c, 1, 34, 81
4, 5561, Note_on_c, 1, 46, 0
4, 5561, Note_on_c, 1, 34, 0
4, 5568, Note_on_c, 1, 50, 81
4, 5568, Note_on_c, 1, 38, 81
4, 5657, Note_on_c, 1, 50, 0
4, 5657, Note_on_c, 1, 38, 0
4, 5664, Note_on_c, 1, 53, 81
4, 5664, Note_on_c, 1, 41, 81
4, 5753, Note_on_c, 1, 53, 0
4, 5753, Note_on_c, 1, 41, 0
4, 5760, Note_on_c, 1, 58, 81
4, 5760, Note_on_c, 1, 46, 81
4, 5849, Note_on_c, 1, 58, 0
4, 5849, Note_on_c, 1, 46, 0
4, 6048, Note_on_c, 1, 46, 81
4, 6048, Note_on_c, 1, 34, 81
4, 6137, Note_on_c, 1, 46, 0
4, 6137, Note_on_c, 1, 34, 0
4, 6144, Note_on_c, 1, 50, 81
4, 6144, Note_on_c, 1, 38, 81
4, 6233, Note_on_c, 1, 50, 0
4, 6233, Note_on_c, 1, 38, 0
4, 6240, Note_on_c, 1, 53, 81
4, 6240, Note_on_c, 1, 41, 81
4, 6329, Note_on_c, 1, 53, 0
4, 6329, Note_on_c, 1, 41, 0
4, 6336, Note_on_c, 1, 58, 81
4, 6336, Note_on_c, 1, 46, 81
4, 6425, Note_on_c, 1, 58, 0
4, 6425, Note_on_c, 1, 46, 0
4, 6624, Note_on_c, 1, 55, 81
4, 6624, Note_on_c, 1, 51, 81
4, 6801, Note_on_c, 1, 55, 0
4, 6801, Note_on_c, 1, 51, 0
4, 6912, Note_on_c, 1, 63, 78
4, 6912, Note_on_c, 1, 60, 78
4, 6912, Note_on_c, 1, 53, 78
4, 7089, Note_on_c, 1, 63, 0
4, 7089, Note_on_c, 1, 60, 0
4, 7089, Note_on_c, 1, 53, 0
4, 7104, Note_on_c, 1, 63, 76
4, 7104, Note_on_c, 1, 60, 76
4, 7104, Note_on_c, 1, 53, 76
4, 7193, Note_on_c, 1, 63, 0
4, 7193, Note_on_c, 1, 60, 0
4, 7193, Note_on_c, 1, 53, 0
4, 7200, Note_on_c, 1, 62, 75
4, 7200, Note_on_c, 1, 58, 75
4, 7200, Note_on_c, 1, 53, 75
4, 7377, Note_on_c, 1, 62, 0
4, 7377, Note_on_c, 1, 58, 0
4, 7377, Note_on_c, 1, 53, 0
4, 7392, Note_on_c, 1, 62, 73
4, 7392, Note_on_c, 1, 58, 73
4, 7392, Note_on_c, 1, 53, 73
4, 7481, Note_on_c, 1, 62, 0
4, 7481, Note_on_c, 1, 58, 0
4, 7481, Note_on_c, 1, 53, 0
4, 7488, Note_on_c, 1, 60, 72
4, 7488, Note_on_c, 1, 57, 72
4, 7488, Note_on_c, 1, 53, 72
4, 7665, Note_on_c, 1, 60, 0
4, 7665, Note_on_c, 1, 57, 0
4, 7665, Note_on_c, 1, 53, 0
4, 7680, Note_on_c, 1, 60, 70
4, 7680, Note_on_c, 1, 57, 70
4, 7680, Note_on_c, 1, 53, 70
4, 7769, Note_on_c, 1, 60, 0
4, 7769, Note_on_c, 1, 57, 0
4, 7769, Note_on_c, 1, 53, 0
4, 8352, Note_on_c, 1, 63, 75
4, 8391, Note_on_c, 1, 63, 0
4, 8568, Note_on_c, 1, 63, 75
4, 8591, Note_on_c, 1, 63, 0
4, 8592, Note_on_c, 1, 51, 75
4, 8615, Note_on_c, 1, 51, 0
4, 8616, Note_on_c, 1, 63, 75
4, 8639, Note_on_c, 1, 63, 0
4, 8640, Note_on_c, 1, 50, 75
4, 8679, Note_on_c, 1, 50, 0
4, 8856, Note_on_c, 1, 62, 75
4, 8879, Note_on_c, 1, 62, 0
4, 8880, Note_on_c, 1, 50, 75
4, 8903, Note_on_c, 1, 50, 0
4, 8904, Note_on_c, 1, 62, 75
4, 8927, Note_on_c, 1, 62, 0
4, 8928, Note_on_c, 1, 51, 75
4, 8967, Note_on_c, 1, 51, 0
4, 9144, Note_on_c, 1, 63, 70
4, 9167, Note_on_c, 1, 63, 0
4, 9168, Note_on_c, 1, 51, 70
4, 9191, Note_on_c, 1, 51, 0
4, 9192, Note_on_c, 1, 63, 70
4, 9215, Note_on_c, 1, 63, 0
4, 9216, Note_on_c, 1, 51, 70
4, 9255, Note_on_c, 1, 51, 0
4, 9792, Note_on_c, 1, 70, 64
4, 9792, Note_on_c, 1, 64, 64
4, 9881, Note_on_c, 1, 70, 0
4, 9881, Note_on_c, 1, 64, 0
4, 9936, Note_on_c, 1, 70, 64
4, 9936, Note_on_c, 1, 64, 64
4, 9981, Note_on_c, 1, 70, 0
4, 9981, Note_on_c, 1, 64, 0
4, 9984, Note_on_c, 1, 70, 64
4, 9984, Note_on_c, 1, 64, 64
4, 10029, Note_on_c, 1, 70, 0
4, 10029, Note_on_c, 1, 64, 0
4, 10032, Note_on_c, 1, 70, 64
4, 10032, Note_on_c, 1, 64, 64
4, 10077, Note_on_c, 1, 70, 0
4, 10077, Note_on_c, 1, 64, 0
4, 10080, Note_on_c, 1, 69, 64
4, 10080, Note_on_c, 1, 65, 64
4, 10169, Note_on_c, 1, 69, 0
4, 10169, Note_on_c, 1, 65, 0
4, 10368, Note_on_c, 1, 58, 64
4, 10368, Note_on_c, 1, 52, 64
4, 10457, Note_on_c, 1, 58, 0
4, 10457, Note_on_c, 1, 52, 0
4, 10512, Note_on_c, 1, 58, 64
4, 10512, Note_on_c, 1, 52, 64
4, 10557, Note_on_c, 1, 58, 0
4, 10557, Note_on_c, 1, 52, 0
4, 10560, Note_on_c, 1, 58, 64
4, 10560, Note_on_c, 1, 52, 64
4, 10605, Note_on_c, 1, 58, 0
4, 10605, Note_on_c, 1, 52, 0
4, 10608, Note_on_c, 1, 58, 64
4, 10608, Note_on_c, 1, 52, 64
4, 10653, Note_on_c, 1, 58, 0
4, 10653, Note_on_c, 1, 52, 0
4, 10656, Note_on_c, 1, 57, 64
4, 10656, Note_on_c, 1, 53, 64
4, 10745, Note_on_c, 1, 57, 0
4, 10745, Note_on_c, 1, 53, 0
4, 10944, Note_on_c, 1, 41, 75
4, 10944, Note_on_c, 1, 29, 75
4, 11033, Note_on_c, 1, 41, 0
4, 11033, Note_on_c, 1, 29, 0
4, 11088, Note_on_c, 1, 53, 75
4, 11133, Note_on_c, 1, 53, 0
4, 11136, Note_on_c, 1, 55, 75
4, 11181, Note_on_c, 1, 55, 0
4, 11184, Note_on_c, 1, 57, 75
4, 11229, Note_on_c, 1, 57, 0
4, 11232, Note_on_c, 1, 58, 75
4, 11271, Note_on_c, 1, 58, 0
4, 11328, Note_on_c, 1, 60, 75
4, 11367, Note_on_c, 1, 60, 0
4, 11424, Note_on_c, 1, 62, 75
4, 11463, Note_on_c, 1, 62, 0
4, 11520, Note_on_c, 1, 63, 75
4, 11609, Note_on_c, 1, 63, 0
4, 11616, Note_on_c, 1, 62, 75
4, 11705, Note_on_c, 1, 62, 0
4, 11712, Note_on_c, 1, 60, 75
4, 11801, Note_on_c, 1, 60, 0
4, 11808, Note_on_c, 1, 58, 75
4, 11847, Note_on_c, 1, 58, 0
4, 11904, Note_on_c, 1, 60, 75
4, 11943, Note_on_c, 1, 60, 0
4, 12000, Note_on_c, 1, 62, 75
4, 12039, Note_on_c, 1, 62, 0
4, 12096, Note_on_c, 1, 63, 75
4, 12116, Note_on_c, 1, 63, 0
4, 12144, Note_on_c, 1, 60, 75
4, 12164, Note_on_c, 1, 60, 0
4, 12192, Note_on_c, 1, 65, 75
4, 12212, Note_on_c, 1, 65, 0
4, 12240, Note_on_c, 1, 62, 75
4, 12260, Note_on_c, 1, 62, 0
4, 12288, Note_on_c, 1, 67, 75
4, 12308, Note_on_c, 1, 67, 0
4, 12336, Note_on_c, 1, 63, 75
4, 12356, Note_on_c, 1, 63, 0
4, 12384, Note_on_c, 1, 69, 75
4, 12473, Note_on_c, 1, 69, 0
4, 12528, Note_on_c, 1, 53, 75
4, 12573, Note_on_c, 1, 53, 0
4, 12576, Note_on_c, 1, 55, 75
4, 12621, Note_on_c, 1, 55, 0
4, 12624, Note_on_c, 1, 57, 75
4, 12669, Note_on_c, 1, 57, 0
4, 12672, Note_on_c, 1, 58, 75
4, 12711, Note_on_c, 1, 58, 0
4, 12768, Note_on_c, 1, 60, 75
4, 12807, Note_on_c, 1, 60, 0
4, 12864, Note_on_c, 1, 62, 75
4, 12903, Note_on_c, 1, 62, 0
4, 12960, Note_on_c, 1, 63, 75
4, 13049, Note_on_c, 1, 63, 0
4, 13056, Note_on_c, 1, 62, 75
4, 13145, Note_on_c, 1, 62, 0
4, 13152, Note_on_c, 1, 60, 75
4, 13241, Note_on_c, 1, 60, 0
4, 13248, Note_on_c, 1, 58, 75
4, 13287, Note_on_c, 1, 58, 0
4, 13584, Note_on_c, 1, 53, 64
4, 13607, Note_on_c, 1, 53, 0
4, 13608, Note_on_c, 1, 55, 64
4, 13631, Note_on_c, 1, 55, 0
4, 13632, Note_on_c, 1, 53, 64
4, 13677, Note_on_c, 1, 53, 0
4, 13680, Note_on_c, 1, 51, 64
4, 13725, Note_on_c, 1, 51, 0
4, 13728, Note_on_c, 1, 50, 64
4, 13773, Note_on_c, 1, 50, 0
4, 13776, Note_on_c, 1, 48, 64
4, 13821, Note_on_c, 1, 48, 0
4, 13824, Note_on_c, 1, 51, 64
4, 14016, Note_on_c, 1, 51, 0
4, 14016, Note_on_c, 1, 50, 64
4, 14089, Note_on_c, 1, 50, 0
4, 14112, Note_on_c, 1, 55, 75
4, 14112, Note_on_c, 1, 51, 75
4, 14289, Note_on_c, 1, 55, 0
4, 14289, Note_on_c, 1, 51, 0
4, 14304, Note_on_c, 1, 67, 75
4, 14393, Note_on_c, 1, 67, 0
4, 14400, Note_on_c, 1, 68, 75
4, 14445, Note_on_c, 1, 68, 0
4, 14496, Note_on_c, 1, 67, 75
4, 14541, Note_on_c, 1, 67, 0
4, 14592, Note_on_c, 1, 65, 75
4, 14637, Note_on_c, 1, 65, 0
4, 14688, Note_on_c, 1, 63, 75
4, 14865, Note_on_c, 1, 63, 0
4, 14880, Note_on_c, 1, 67, 75
4, 14969, Note_on_c, 1, 67, 0
4, 14976, Note_on_c, 1, 68, 75
4, 15021, Note_on_c, 1, 68, 0
4, 15072, Note_on_c, 1, 67, 75
4, 15117, Note_on_c, 1, 67, 0
4, 15168, Note_on_c, 1, 65, 75
4, 15213, Note_on_c, 1, 65, 0
4, 15264, Note_on_c, 1, 63, 75
4, 15353, Note_on_c, 1, 63, 0
4, 15600, Note_on_c, 1, 51, 75
4, 15623, Note_on_c, 1, 51, 0
4, 15624, Note_on_c, 1, 53, 75
4, 15647, Note_on_c, 1, 53, 0
4, 15648, Note_on_c, 1, 55, 75
4, 15693, Note_on_c, 1, 55, 0
4, 15696, Note_on_c, 1, 51, 75
4, 15741, Note_on_c, 1, 51, 0
4, 15744, Note_on_c, 1, 53, 75
4, 15789, Note_on_c, 1, 53, 0
4, 15792, Note_on_c, 1, 46, 75
4, 15837, Note_on_c, 1, 46, 0
4, 15840, Note_on_c, 1, 51, 75
4, 15929, Note_on_c, 1, 51, 0
4, 16032, Note_on_c, 1, 43, 75
4, 16071, Note_on_c, 1, 43, 0
4, 16128, Note_on_c, 1, 44, 75
4, 16167, Note_on_c, 1, 44, 0
4, 16320, Note_on_c, 1, 46, 75
4, 16359, Note_on_c, 1, 46, 0
4, 16416, Note_on_c, 1, 51, 75
4, 16455, Note_on_c, 1, 51, 0
4, 16608, Note_on_c, 1, 43, 75
4, 16647, Note_on_c, 1, 43, 0
4, 16704, Note_on_c, 1, 44, 75
4, 16743, Note_on_c, 1, 44, 0
4, 16896, Note_on_c, 1, 46, 75
4, 16935, Note_on_c, 1, 46, 0
4, 17016, Note_on_c, 1, 51, 75
4, 17039, Note_on_c, 1, 51, 0
4, 17040, Note_on_c, 1, 53, 75
4, 17063, Note_on_c, 1, 53, 0
4, 17064, Note_on_c, 1, 55, 75
4, 17087, Note_on_c, 1, 55, 0
4, 17088, Note_on_c, 1, 56, 75
4, 17111, Note_on_c, 1, 56, 0
4, 17112, Note_on_c, 1, 58, 75
4, 17135, Note_on_c, 1, 58, 0
4, 17136, Note_on_c, 1, 60, 75
4, 17159, Note_on_c, 1, 60, 0
4, 17160, Note_on_c, 1, 62, 75
4, 17183, Note_on_c, 1, 62, 0
4, 17184, Note_on_c, 1, 63, 75
4, 17207, Note_on_c, 1, 63, 0
4, 17208, Note_on_c, 1, 65, 75
4, 17231, Note_on_c, 1, 65, 0
4, 17232, Note_on_c, 1, 67, 75
4, 17255, Note_on_c, 1, 67, 0
4, 17256, Note_on_c, 1, 65, 75
4, 17279, Note_on_c, 1, 65, 0
4, 17280, Note_on_c, 1, 63, 75
4, 17369, Note_on_c, 1, 63, 0
4, 17472, Note_on_c, 1, 63, 75
4, 17561, Note_on_c, 1, 63, 0
4, 17568, Note_on_c, 1, 62, 75
4, 17657, Note_on_c, 1, 62, 0
4, 17760, Note_on_c, 1, 62, 75
4, 17849, Note_on_c, 1, 62, 0
4, 17856, Note_on_c, 1, 63, 75
4, 17945, Note_on_c, 1, 63, 0
4, 17952, Note_on_c, 1, 72, 81
4, 17991, Note_on_c, 1, 72, 0
4, 18048, Note_on_c, 1, 63, 81
4, 18137, Note_on_c, 1, 63, 0
4, 18144, Note_on_c, 1, 62, 81
4, 18233, Note_on_c, 1, 62, 0
4, 18240, Note_on_c, 1, 70, 81
4, 18329, Note_on_c, 1, 70, 0
4, 18336, Note_on_c, 1, 62, 81
4, 18375, Note_on_c, 1, 62, 0
4, 18432, Note_on_c, 1, 57, 81
4, 18471, Note_on_c, 1, 57, 0
4, 18528, Note_on_c, 1, 69, 81
4, 18567, Note_on_c, 1, 69, 0
4, 18624, Note_on_c, 1, 70, 81
4, 18663, Note_on_c, 1, 70, 0
4, 18720, Note_on_c, 1, 57, 81
4, 18759, Note_on_c, 1, 57, 0
4, 18816, Note_on_c, 1, 69, 81
4, 18855, Note_on_c, 1, 69, 0
4, 18912, Note_on_c, 1, 70, 81
4, 18951, Note_on_c, 1, 70, 0
4, 19008, Note_on_c, 1, 57, 81
4, 19047, Note_on_c, 1, 57, 0
4, 19104, Note_on_c, 1, 69, 81
4, 19143, Note_on_c, 1, 69, 0
4, 19200, Note_on_c, 1, 70, 81
4, 19239, Note_on_c, 1, 70, 0
4, 19296, Note_on_c, 1, 70, 75
4, 19392, Note_on_c, 1, 70, 0
4, 19392, Note_on_c, 1, 69, 75
4, 19481, Note_on_c, 1, 69, 0
4, 19584, Note_on_c, 1, 46, 81
4, 19584, Note_on_c, 1, 34, 81
4, 19673, Note_on_c, 1, 46, 0
4, 19673, Note_on_c, 1, 34, 0
4, 19680, Note_on_c, 1, 50, 81
4, 19680, Note_on_c, 1, 38, 81
4, 19769, Note_on_c, 1, 50, 0
4, 19769, Note_on_c, 1, 38, 0
4, 19776, Note_on_c, 1, 53, 81
4, 19776, Note_on_c, 1, 41, 81
4, 19865, Note_on_c, 1, 53, 0
4, 19865, Note_on_c, 1, 41, 0
4, 19872, Note_on_c, 1, 58, 81
4, 19872, Note_on_c, 1, 46, 81
4, 19961, Note_on_c, 1, 58, 0
4, 19961, Note_on_c, 1, 46, 0
4, 20160, Note_on_c, 1, 46, 81
4, 20160, Note_on_c, 1, 34, 81
4, 20249, Note_on_c, 1, 46, 0
4, 20249, Note_on_c, 1, 34, 0
4, 20256, Note_on_c, 1, 50, 81
4, 20256, Note_on_c, 1, 38, 81
4, 20345, Note_on_c, 1, 50, 0
4, 20345, Note_on_c, 1, 38, 0
4, 20352, Note_on_c, 1, 53, 81
4, 20352, Note_on_c, 1, 41, 81
4, 20441, Note_on_c, 1, 53, 0
4, 20441, Note_on_c, 1, 41, 0
4, 20448, Note_on_c, 1, 58, 81
4, 20448, Note_on_c, 1, 46, 81
4, 20537, Note_on_c, 1, 58, 0
4, 20537, Note_on_c, 1, 46, 0
4, 20736, Note_on_c, 1, 55, 81
4, 20736, Note_on_c, 1, 51, 81
4, 20913, Note_on_c, 1, 55, 0
4, 20913, Note_on_c, 1, 51, 0
4, 21024, Note_on_c, 1, 63, 78
4, 21024, Note_on_c, 1, 60, 78
4, 21024, Note_on_c, 1, 53, 78
4, 21201, Note_on_c, 1, 63, 0
4, 21201, Note_on_c, 1, 60, 0
4, 21201, Note_on_c, 1, 53, 0
4, 21216, Note_on_c, 1, 63, 76
4, 21216, Note_on_c, 1, 60, 76
4, 21216, Note_on_c, 1, 53, 76
4, 21305, Note_on_c, 1, 63, 0
4, 21305, Note_on_c, 1, 60, 0
4, 21305, Note_on_c, 1, 53, 0
4, 21312, Note_on_c, 1, 62, 75
4, 21312, Note_on_c, 1, 58, 75
4, 21312, Note_on_c, 1, 53, 75
4, 21489, Note_on_c, 1, 62, 0
4, 21489, Note_on_c, 1, 58, 0
4, 21489, Note_on_c, 1, 53, 0
4, 21504, Note_on_c, 1, 62, 73
4, 21504, Note_on_c, 1, 58, 73
4, 21504, Note_on_c, 1, 53, 73
4, 21593, Note_on_c, 1, 62, 0
4, 21593, Note_on_c, 1, 58, 0
4, 21593, Note_on_c, 1, 53, 0
4, 21600, Note_on_c, 1, 60, 72
4, 21600, Note_on_c, 1, 57, 72
4, 21600, Note_on_c, 1, 53, 72
4, 21777, Note_on_c, 1, 60, 0
4, 21777, Note_on_c, 1, 57, 0
4, 21777, Note_on_c, 1, 53, 0
4, 21792, Note_on_c, 1, 60, 70
4, 21792, Note_on_c, 1, 57, 70
4, 21792, Note_on_c, 1, 53, 70
4, 21881, Note_on_c, 1, 60, 0
4, 21881, Note_on_c, 1, 57, 0
4, 21881, Note_on_c, 1, 53, 0
4, 22464, Note_on_c, 1, 63, 75
4, 22503, Note_on_c, 1, 63, 0
4, 22680, Note_on_c, 1, 63, 75
4, 22703, Note_on_c, 1, 63, 0
4, 22704, Note_on_c, 1, 51, 75
4, 22727, Note_on_c, 1, 51, 0
4, 22728, Note_on_c, 1, 63, 75
4, 22751, Note_on_c, 1, 63, 0
4, 22752, Note_on_c, 1, 50, 75
4, 22791, Note_on_c, 1, 50, 0
4, 22968, Note_on_c, 1, 62, 75
4, 22991, Note_on_c, 1, 62, 0
4, 22992, Note_on_c, 1, 50, 75
4, 23015, Note_on_c, 1, 50, 0
4, 23016, Note_on_c, 1, 62, 75
4, 23039, Note_on_c, 1, 62, 0
4, 23040, Note_on_c, 1, 51, 75
4, 23079, Note_on_c, 1, 51, 0
4, 23256, Note_on_c, 1, 63, 70
4, 23279, Note_on_c, 1, 63, 0
4, 23280, Note_on_c, 1, 51, 70
4, 23303, Note_on_c, 1, 51, 0
4, 23304, Note_on_c, 1, 63, 70
4, 23327, Note_on_c, 1, 63, 0
4, 23328, Note_on_c, 1, 51, 70
4, 23367, Note_on_c, 1, 51, 0
4, 23904, Note_on_c, 1, 70, 64
4, 23904, Note_on_c, 1, 64, 64
4, 23993, Note_on_c, 1, 70, 0
4, 23993, Note_on_c, 1, 64, 0
4, 24048, Note_on_c, 1, 70, 64
4, 24048, Note_on_c, 1, 64, 64
4, 24093, Note_on_c, 1, 70, 0
4, 24093, Note_on_c, 1, 64, 0
4, 24096, Note_on_c, 1, 70, 64
4, 24096, Note_on_c, 1, 64, 64
4, 24141, Note_on_c, 1, 70, 0
4, 24141, Note_on_c, 1, 64, 0
4, 24144, Note_on_c, 1, 70, 64
4, 24144, Note_on_c, 1, 64, 64
4, 24189, Note_on_c, 1, 70, 0
4, 24189, Note_on_c, 1, 64, 0
4, 24192, Note_on_c, 1, 69, 64
4, 24192, Note_on_c, 1, 65, 64
4, 24281, Note_on_c, 1, 69, 0
4, 24281, Note_on_c, 1, 65, 0
4, 24480, Note_on_c, 1, 58, 64
4, 24480, Note_on_c, 1, 52, 64
4, 24569, Note_on_c, 1, 58, 0
4, 24569, Note_on_c, 1, 52, 0
4, 24624, Note_on_c, 1, 58, 64
4, 24624, Note_on_c, 1, 52, 64
4, 24669, Note_on_c, 1, 58, 0
4, 24669, Note_on_c, 1, 52, 0
4, 24672, Note_on_c, 1, 58, 64
4, 24672, Note_on_c, 1, 52, 64
4, 24717, Note_on_c, 1, 58, 0
4, 24717, Note_on_c, 1, 52, 0
4, 24720, Note_on_c, 1, 58, 64
4, 24720, Note_on_c, 1, 52, 64
4, 24765, Note_on_c, 1, 58, 0
4, 24765, Note_on_c, 1, 52, 0
4, 24768, Note_on_c, 1, 57, 64
4, 24768, Note_on_c, 1, 53, 64
4, 24857, Note_on_c, 1, 57, 0
4, 24857, Note_on_c, 1, 53, 0
4, 25056, Note_on_c, 1, 41, 75
4, 25056, Note_on_c, 1, 29, 75
4, 25145, Note_on_c, 1, 41, 0
4, 25145, Note_on_c, 1, 29, 0
4, 25200, Note_on_c, 1, 53, 75
4, 25245, Note_on_c, 1, 53, 0
4, 25248, Note_on_c, 1, 55, 75
4, 25293, Note_on_c, 1, 55, 0
4, 25296, Note_on_c, 1, 57, 75
4, 25341, Note_on_c, 1, 57, 0
4, 25344, Note_on_c, 1, 58, 75
4, 25383, Note_on_c, 1, 58, 0
4, 25440, Note_on_c, 1, 60, 75
4, 25479, Note_on_c, 1, 60, 0
4, 25536, Note_on_c, 1, 62, 75
4, 25575, Note_on_c, 1, 62, 0
4, 25632, Note_on_c, 1, 63, 75
4, 25721, Note_on_c, 1, 63, 0
4, 25728, Note_on_c, 1, 62, 75
4, 25817, Note_on_c, 1, 62, 0
4, 25824, Note_on_c, 1, 60, 75
4, 25913, Note_on_c, 1, 60, 0
4, 25920, Note_on_c, 1, 58, 75
4, 25959, Note_on_c, 1, 58, 0
4, 26016, Note_on_c, 1, 60, 75
4, 26055, Note_on_c, 1, 60, 0
4, 26112, Note_on_c, 1, 62, 75
4, 26151, Note_on_c, 1, 62, 0
4, 26208, Note_on_c, 1, 63, 75
4, 26228, Note_on_c, 1, 63, 0
4, 26256, Note_on_c, 1, 60, 75
4, 26276, Note_on_c, 1, 60, 0
4, 26304, Note_on_c, 1, 65, 75
4, 26324, Note_on_c, 1, 65, 0
4, 26352, Note_on_c, 1, 62, 75
4, 26372, Note_on_c, 1, 62, 0
4, 26400, Note_on_c, 1, 67, 75
4, 26420, Note_on_c, 1, 67, 0
4, 26448, Note_on_c, 1, 63, 75
4, 26468, Note_on_c, 1, 63, 0
4, 26496, Note_on_c, 1, 69, 75
4, 26585, Note_on_c, 1, 69, 0
4, 26640, Note_on_c, 1, 53, 75
4, 26685, Note_on_c, 1, 53, 0
4, 26688, Note_on_c, 1, 55, 75
4, 26733, Note_on_c, 1, 55, 0
4, 26736, Note_on_c, 1, 57, 75
4, 26781, Note_on_c, 1, 57, 0
4, 26784, Note_on_c, 1, 58, 75
4, 26823, Note_on_c, 1, 58, 0
4, 26880, Note_on_c, 1, 60, 75
4, 26919, Note_on_c, 1, 60, 0
4, 26976, Note_on_c, 1, 62, 75
4, 27015, Note_on_c, 1, 62, 0
4, 27072, Note_on_c, 1, 63, 75
4, 27161, Note_on_c, 1, 63, 0
4, 27168, Note_on_c, 1, 62, 75
4, 27257, Note_on_c, 1, 62, 0
4, 27264, Note_on_c, 1, 60, 75
4, 27353, Note_on_c, 1, 60, 0
4, 27360, Note_on_c, 1, 58, 75
4, 27399, Note_on_c, 1, 58, 0
4, 27696, Note_on_c, 1, 53, 64
4, 27719, Note_on_c, 1, 53, 0
4, 27720, Note_on_c, 1, 55, 64
4, 27743, Note_on_c, 1, 55, 0
4, 27744, Note_on_c, 1, 53, 64
4, 27789, Note_on_c, 1, 53, 0
4, 27792, Note_on_c, 1, 51, 64
4, 27837, Note_on_c, 1, 51, 0
4, 27840, Note_on_c, 1, 50, 64
4, 27885, Note_on_c, 1, 50, 0
4, 27888, Note_on_c, 1, 48, 64
4, 27933, Note_on_c, 1, 48, 0
4, 27936, Note_on_c, 1, 51, 64
4, 28128, Note_on_c, 1, 51, 0
4, 28128, Note_on_c, 1, 50, 64
4, 28201, Note_on_c, 1, 50, 0
4, 28224, Note_on_c, 1, 46, 75
4, 28224, Note_on_c, 1, 34, 75
4, 28313, Note_on_c, 1, 46, 0
4, 28313, Note_on_c, 1, 34, 0
4, 28416, Note_on_c, 1, 74, 75
4, 28505, Note_on_c, 1, 74, 0
4, 28512, Note_on_c, 1, 75, 75
4, 28551, Note_on_c, 1, 75, 0
4, 28608, Note_on_c, 1, 74, 75
4, 28647, Note_on_c, 1, 74, 0
4, 28704, Note_on_c, 1, 72, 75
4, 28743, Note_on_c, 1, 72, 0
4, 28800, Note_on_c, 1, 70, 75
4, 28889, Note_on_c, 1, 70, 0
4, 28992, Note_on_c, 1, 74, 75
4, 29081, Note_on_c, 1, 74, 0
4, 29088, Note_on_c, 1, 75, 75
4, 29133, Note_on_c, 1, 75, 0
4, 29184, Note_on_c, 1, 74, 75
4, 29229, Note_on_c, 1, 74, 0
4, 29280, Note_on_c, 1, 72, 75
4, 29325, Note_on_c, 1, 72, 0
4, 29376, Note_on_c, 1, 70, 75
4, 29465, Note_on_c, 1, 70, 0
4, 29712, Note_on_c, 1, 58, 75
4, 29735, Note_on_c, 1, 58, 0
4, 29736, Note_on_c, 1, 60, 75
4, 29759, Note_on_c, 1, 60, 0
4, 29760, Note_on_c, 1, 62, 75
4, 29805, Note_on_c, 1, 62, 0
4, 29808, Note_on_c, 1, 58, 75
4, 29853, Note_on_c, 1, 58, 0
4, 29856, Note_on_c, 1, 60, 75
4, 29901, Note_on_c, 1, 60, 0
4, 29904, Note_on_c, 1, 53, 75
4, 29949, Note_on_c, 1, 53, 0
4, 29952, Note_on_c, 1, 58, 75
4, 30041, Note_on_c, 1, 58, 0
4, 30144, Note_on_c, 1, 50, 75
4, 30183, Note_on_c, 1, 50, 0
4, 30240, Note_on_c, 1, 51, 75
4, 30279, Note_on_c, 1, 51, 0
4, 30432, Note_on_c, 1, 53, 75
4, 30521, Note_on_c, 1, 53, 0
4, 30528, Note_on_c, 1, 46, 75
4, 30617, Note_on_c, 1, 46, 0
4, 30720, Note_on_c, 1, 50, 75
4, 30759, Note_on_c, 1, 50, 0
4, 30816, Note_on_c, 1, 51, 75
4, 30855, Note_on_c, 1, 51, 0
4, 31008, Note_on_c, 1, 53, 75
4, 31097, Note_on_c, 1, 53, 0
4, 31128, Note_on_c, 1, 46, 75
4, 31151, Note_on_c, 1, 46, 0
4, 31152, Note_on_c, 1, 48, 75
4, 31175, Note_on_c, 1, 48, 0
4, 31176, Note_on_c, 1, 50, 75
4, 31199, Note_on_c, 1, 50, 0
4, 31200, Note_on_c, 1, 51, 75
4, 31223, Note_on_c, 1, 51, 0
4, 31224, Note_on_c, 1, 53, 75
4, 31247, Note_on_c, 1, 53, 0
4, 31248, Note_on_c, 1, 55, 75
4, 31271, Note_on_c, 1, 55, 0
4, 31272, Note_on_c, 1, 57, 75
4, 31295, Note_on_c, 1, 57, 0
4, 31296, Note_on_c, 1, 58, 75
4, 31319, Note_on_c, 1, 58, 0
4, 31320, Note_on_c, 1, 60, 75
4, 31343, Note_on_c, 1, 60, 0
4, 31344, Note_on_c, 1, 62, 75
4, 31367, Note_on_c, 1, 62, 0
4, 31368, Note_on_c, 1, 60, 75
4, 31391, Note_on_c, 1, 60, 0
4, 31392, Note_on_c, 1, 58, 75
4, 31481, Note_on_c, 1, 58, 0
4, 31728, Note_on_c, 1, 73, 70
4, 31773, Note_on_c, 1, 73, 0
4, 31776, Note_on_c, 1, 73, 70
4, 31821, Note_on_c, 1, 73, 0
4, 31824, Note_on_c, 1, 73, 70
4, 31869, Note_on_c, 1, 73, 0
4, 31872, Note_on_c, 1, 73, 70
4, 31917, Note_on_c, 1, 73, 0
4, 31920, Note_on_c, 1, 73, 70
4, 31965, Note_on_c, 1, 73, 0
4, 32016, Note_on_c, 1, 72, 70
4, 32061, Note_on_c, 1, 72, 0
4, 32064, Note_on_c, 1, 72, 70
4, 32109, Note_on_c, 1, 72, 0
4, 32112, Note_on_c, 1, 72, 70
4, 32157, Note_on_c, 1, 72, 0
4, 32160, Note_on_c, 1, 72, 70
4, 32205, Note_on_c, 1, 72, 0
4, 32208, Note_on_c, 1, 72, 70
4, 32253, Note_on_c, 1, 72, 0
4, 32304, Note_on_c, 1, 72, 70
4, 32349, Note_on_c, 1, 72, 0
4, 32352, Note_on_c, 1, 72, 70
4, 32397, Note_on_c, 1, 72, 0
4, 32400, Note_on_c, 1, 72, 70
4, 32445, Note_on_c, 1, 72, 0
4, 32448, Note_on_c, 1, 72, 70
4, 32493, Note_on_c, 1, 72, 0
4, 32496, Note_on_c, 1, 72, 70
4, 32541, Note_on_c, 1, 72, 0
4, 32592, Note_on_c, 1, 60, 70
4, 32637, Note_on_c, 1, 60, 0
4, 32640, Note_on_c, 1, 60, 70
4, 32685, Note_on_c, 1, 60, 0
4, 32688, Note_on_c, 1, 60, 70
4, 32733, Note_on_c, 1, 60, 0
4, 32736, Note_on_c, 1, 60, 70
4, 32781, Note_on_c, 1, 60, 0
4, 32784, Note_on_c, 1, 60, 70
4, 32829, Note_on_c, 1, 60, 0
4, 32880, Note_on_c, 1, 60, 70
4, 32925, Note_on_c, 1, 60, 0
4, 32928, Note_on_c, 1, 60, 70
4, 32973, Note_on_c, 1, 60, 0
4, 32976, Note_on_c, 1, 60, 70
4, 33021, Note_on_c, 1, 60, 0
4, 33024, Note_on_c, 1, 60, 70
4, 33069, Note_on_c, 1, 60, 0
4, 33072, Note_on_c, 1, 60, 70
4, 33117, Note_on_c, 1, 60, 0
4, 33120, Note_on_c, 1, 60, 70
4, 33297, Note_on_c, 1, 60, 0
4, 33408, Note_on_c, 1, 56, 81
4, 33408, Note_on_c, 1, 51, 81
4, 33408, Note_on_c, 1, 48, 81
4, 33408, Note_on_c, 1, 44, 81
4, 33961, Note_on_c, 1, 56, 0
4, 33961, Note_on_c, 1, 51, 0
4, 33961, Note_on_c, 1, 48, 0
4, 33961, Note_on_c, 1, 44, 0
4, 34032, Note_on_c, 1, 48, 70
4, 34032, Note_on_c, 1, 44, 70
4, 34077, Note_on_c, 1, 48, 0
4, 34077, Note_on_c, 1, 44, 0
4, 34080, Note_on_c, 1, 48, 70
4, 34080, Note_on_c, 1, 44, 70
4, 34125, Note_on_c, 1, 48, 0
4, 34125, Note_on_c, 1, 44, 0
4, 34128, Note_on_c, 1, 48, 70
4, 34128, Note_on_c, 1, 44, 70
4, 34173, Note_on_c, 1, 48, 0
4, 34173, Note_on_c, 1, 44, 0
4, 34176, Note_on_c, 1, 48, 70
4, 34176, Note_on_c, 1, 44, 70
4, 34221, Note_on_c, 1, 48, 0
4, 34221, Note_on_c, 1, 44, 0
4, 34224, Note_on_c, 1, 48, 70
4, 34224, Note_on_c, 1, 44, 70
4, 34269, Note_on_c, 1, 48, 0
4, 34269, Note_on_c, 1, 44, 0
4, 34320, Note_on_c, 1, 48, 71
4, 34320, Note_on_c, 1, 45, 71
4, 34365, Note_on_c, 1, 48, 0
4, 34365, Note_on_c, 1, 45, 0
4, 34368, Note_on_c, 1, 48, 71
4, 34368, Note_on_c, 1, 45, 71
4, 34413, Note_on_c, 1, 48, 0
4, 34413, Note_on_c, 1, 45, 0
4, 34416, Note_on_c, 1, 48, 71
4, 34416, Note_on_c, 1, 45, 71
4, 34461, Note_on_c, 1, 48, 0
4, 34461, Note_on_c, 1, 45, 0
4, 34464, Note_on_c, 1, 48, 72
4, 34464, Note_on_c, 1, 45, 72
4, 34509, Note_on_c, 1, 48, 0
4, 34509, Note_on_c, 1, 45, 0
4, 34512, Note_on_c, 1, 53, 72
4, 34512, Note_on_c, 1, 45, 72
4, 34557, Note_on_c, 1, 53, 0
4, 34557, Note_on_c, 1, 45, 0
4, 34608, Note_on_c, 1, 53, 73
4, 34608, Note_on_c, 1, 46, 73
4, 34653, Note_on_c, 1, 53, 0
4, 34653, Note_on_c, 1, 46, 0
4, 34656, Note_on_c, 1, 53, 73
4, 34656, Note_on_c, 1, 46, 73
4, 34701, Note_on_c, 1, 53, 0
4, 34701, Note_on_c, 1, 46, 0
4, 34704, Note_on_c, 1, 53, 73
4, 34704, Note_on_c, 1, 46, 73
4, 34749, Note_on_c, 1, 53, 0
4, 34749, Note_on_c, 1, 46, 0
4, 34752, Note_on_c, 1, 53, 74
4, 34752, Note_on_c, 1, 46, 74
4, 34797, Note_on_c, 1, 53, 0
4, 34797, Note_on_c, 1, 46, 0
4, 34800, Note_on_c, 1, 53, 74
4, 34800, Note_on_c, 1, 46, 74
4, 34845, Note_on_c, 1, 53, 0
4, 34845, Note_on_c, 1, 46, 0
4, 34896, Note_on_c, 1, 53, 75
4, 34896, Note_on_c, 1, 47, 75
4, 34941, Note_on_c, 1, 53, 0
4, 34941, Note_on_c, 1, 47, 0
4, 34944, Note_on_c, 1, 53, 75
4, 34944, Note_on_c, 1, 47, 75
4, 34989, Note_on_c, 1, 53, 0
4, 34989, Note_on_c, 1, 47, 0
4, 34992, Note_on_c, 1, 53, 75
4, 34992, Note_on_c, 1, 47, 75
4, 35037, Note_on_c, 1, 53, 0
4, 35037, Note_on_c, 1, 47, 0
4, 35040, Note_on_c, 1, 50, 75
4, 35040, Note_on_c, 1, 47, 75
4, 35085, Note_on_c, 1, 50, 0
4, 35085, Note_on_c, 1, 47, 0
4, 35088, Note_on_c, 1, 55, 76
4, 35088, Note_on_c, 1, 47, 76
4, 35133, Note_on_c, 1, 55, 0
4, 35133, Note_on_c, 1, 47, 0
4, 35184, Note_on_c, 1, 55, 76
4, 35184, Note_on_c, 1, 48, 76
4, 35229, Note_on_c, 1, 55, 0
4, 35229, Note_on_c, 1, 48, 0
4, 35232, Note_on_c, 1, 55, 77
4, 35232, Note_on_c, 1, 48, 77
4, 35277, Note_on_c, 1, 55, 0
4, 35277, Note_on_c, 1, 48, 0
4, 35280, Note_on_c, 1, 55, 77
4, 35280, Note_on_c, 1, 48, 77
4, 35325, Note_on_c, 1, 55, 0
4, 35325, Note_on_c, 1, 48, 0
4, 35328, Note_on_c, 1, 51, 77
4, 35328, Note_on_c, 1, 48, 77
4, 35373, Note_on_c, 1, 51, 0
4, 35373, Note_on_c, 1, 48, 0
4, 35376, Note_on_c, 1, 55, 78
4, 35376, Note_on_c, 1, 48, 78
4, 35421, Note_on_c, 1, 55, 0
4, 35421, Note_on_c, 1, 48, 0
4, 35472, Note_on_c, 1, 53, 78
4, 35472, Note_on_c, 1, 41, 78
4, 35517, Note_on_c, 1, 53, 0
4, 35517, Note_on_c, 1, 41, 0
4, 35520, Note_on_c, 1, 53, 79
4, 35520, Note_on_c, 1, 41, 79
4, 35565, Note_on_c, 1, 53, 0
4, 35565, Note_on_c, 1, 41, 0
4, 35568, Note_on_c, 1, 53, 79
4, 35568, Note_on_c, 1, 41, 79
4, 35613, Note_on_c, 1, 53, 0
4, 35613, Note_on_c, 1, 41, 0
4, 35616, Note_on_c, 1, 53, 79
4, 35616, Note_on_c, 1, 41, 79
4, 35661, Note_on_c, 1, 53, 0
4, 35661, Note_on_c, 1, 41, 0
4, 35664, Note_on_c, 1, 53, 80
4, 35664, Note_on_c, 1, 41, 80
4, 35709, Note_on_c, 1, 53, 0
4, 35709, Note_on_c, 1, 41, 0
4, 35712, Note_on_c, 1, 43, 80
4, 35712, Note_on_c, 1, 31, 80
4, 35801, Note_on_c, 1, 43, 0
4, 35801, Note_on_c, 1, 31, 0
4, 35808, Note_on_c, 1, 47, 81
4, 35808, Note_on_c, 1, 35, 81
4, 35897, Note_on_c, 1, 47, 0
4, 35897, Note_on_c, 1, 35, 0
4, 35904, Note_on_c, 1, 50, 81
4, 35904, Note_on_c, 1, 38, 81
4, 35993, Note_on_c, 1, 50, 0
4, 35993, Note_on_c, 1, 38, 0
4, 36000, Note_on_c, 1, 55, 81
4, 36000, Note_on_c, 1, 43, 81
4, 36089, Note_on_c, 1, 55, 0
4, 36089, Note_on_c, 1, 43, 0
4, 36288, Note_on_c, 1, 43, 81
4, 36288, Note_on_c, 1, 31, 81
4, 36377, Note_on_c, 1, 43, 0
4, 36377, Note_on_c, 1, 31, 0
4, 36432, Note_on_c, 1, 55, 81
4, 36452, Note_on_c, 1, 55, 0
4, 36480, Note_on_c, 1, 57, 81
4, 36500, Note_on_c, 1, 57, 0
4, 36528, Note_on_c, 1, 59, 81
4, 36548, Note_on_c, 1, 59, 0
4, 36576, Note_on_c, 1, 60, 81
4, 36665, Note_on_c, 1, 60, 0
4, 36672, Note_on_c, 1, 62, 81
4, 36761, Note_on_c, 1, 62, 0
4, 36768, Note_on_c, 1, 63, 81
4, 36857, Note_on_c, 1, 63, 0
4, 36864, Note_on_c, 1, 65, 81
4, 36953, Note_on_c, 1, 65, 0
4, 36960, Note_on_c, 1, 67, 79
4, 37049, Note_on_c, 1, 67, 0
4, 37056, Note_on_c, 1, 55, 77
4, 37145, Note_on_c, 1, 55, 0
4, 37152, Note_on_c, 1, 60, 75
4, 37241, Note_on_c, 1, 60, 0
4, 37488, Note_on_c, 1, 63, 75
4, 37488, Note_on_c, 1, 60, 75
4, 37511, Note_on_c, 1, 63, 0
4, 37511, Note_on_c, 1, 60, 0
4, 37512, Note_on_c, 1, 65, 75
4, 37512, Note_on_c, 1, 62, 75
4, 37535, Note_on_c, 1, 65, 0
4, 37535, Note_on_c, 1, 62, 0
4, 37536, Note_on_c, 1, 63, 75
4, 37536, Note_on_c, 1, 60, 75
4, 37581, Note_on_c, 1, 63, 0
4, 37581, Note_on_c, 1, 60, 0
4, 37584, Note_on_c, 1, 63, 75
4, 37584, Note_on_c, 1, 60, 75
4, 37629, Note_on_c, 1, 63, 0
4, 37629, Note_on_c, 1, 60, 0
4, 37632, Note_on_c, 1, 63, 75
4, 37632, Note_on_c, 1, 60, 75
4, 37677, Note_on_c, 1, 63, 0
4, 37677, Note_on_c, 1, 60, 0
4, 37680, Note_on_c, 1, 63, 75
4, 37680, Note_on_c, 1, 60, 75
4, 37725, Note_on_c, 1, 63, 0
4, 37725, Note_on_c, 1, 60, 0
4, 37728, Note_on_c, 1, 58, 75
4, 37993, Note_on_c, 1, 58, 0
4, 38016, Note_on_c, 1, 46, 75
4, 38016, Note_on_c, 1, 34, 75
4, 38569, Note_on_c, 1, 46, 0
4, 38569, Note_on_c, 1, 34, 0
4, 38592, Note_on_c, 1, 55, 75
4, 38592, Note_on_c, 1, 51, 75
4, 38769, Note_on_c, 1, 55, 0
4, 38769, Note_on_c, 1, 51, 0
4, 38784, Note_on_c, 1, 67, 75
4, 38873, Note_on_c, 1, 67, 0
4, 38880, Note_on_c, 1, 68, 75
4, 38919, Note_on_c, 1, 68, 0
4, 38976, Note_on_c, 1, 67, 75
4, 39015, Note_on_c, 1, 67, 0
4, 39072, Note_on_c, 1, 65, 75
4, 39111, Note_on_c, 1, 65, 0
4, 39168, Note_on_c, 1, 63, 75
4, 39257, Note_on_c, 1, 63, 0
4, 39360, Note_on_c, 1, 67, 75
4, 39449, Note_on_c, 1, 67, 0
4, 39456, Note_on_c, 1, 68, 75
4, 39495, Note_on_c, 1, 68, 0
4, 39552, Note_on_c, 1, 67, 75
4, 39591, Note_on_c, 1, 67, 0
4, 39648, Note_on_c, 1, 65, 75
4, 39687, Note_on_c, 1, 65, 0
4, 39744, Note_on_c, 1, 63, 75
4, 39833, Note_on_c, 1, 63, 0
4, 40080, Note_on_c, 1, 51, 75
4, 40103, Note_on_c, 1, 51, 0
4, 40104, Note_on_c, 1, 53, 75
4, 40127, Note_on_c, 1, 53, 0
4, 40128, Note_on_c, 1, 55, 75
4, 40173, Note_on_c, 1, 55, 0
4, 40176, Note_on_c, 1, 51, 75
4, 40221, Note_on_c, 1, 51, 0
4, 40224, Note_on_c, 1, 53, 75
4, 40269, Note_on_c, 1, 53, 0
4, 40272, Note_on_c, 1, 46, 75
4, 40317, Note_on_c, 1, 46, 0
4, 40320, Note_on_c, 1, 51, 75
4, 40409, Note_on_c, 1, 51, 0
4, 40512, Note_on_c, 1, 43, 75
4, 40551, Note_on_c, 1, 43, 0
4, 40608, Note_on_c, 1, 44, 75
4, 40647, Note_on_c, 1, 44, 0
4, 40800, Note_on_c, 1, 46, 75
4, 40839, Note_on_c, 1, 46, 0
4, 40896, Note_on_c, 1, 51, 75
4, 40935, Note_on_c, 1, 51, 0
4, 41088, Note_on_c, 1, 43, 75
4, 41127, Note_on_c, 1, 43, 0
4, 41184, Note_on_c, 1, 44, 75
4, 41223, Note_on_c, 1, 44, 0
4, 41376, Note_on_c, 1, 46, 75
4, 41415, Note_on_c, 1, 46, 0
4, 41496, Note_on_c, 1, 51, 75
4, 41519, Note_on_c, 1, 51, 0
4, 41520, Note_on_c, 1, 53, 75
4, 41543, Note_on_c, 1, 53, 0
4, 41544, Note_on_c, 1, 55, 75
4, 41567, Note_on_c, 1, 55, 0
4, 41568, Note_on_c, 1, 56, 75
4, 41591, Note_on_c, 1, 56, 0
4, 41592, Note_on_c, 1, 58, 75
4, 41615, Note_on_c, 1, 58, 0
4, 41616, Note_on_c, 1, 60, 75
4, 41639, Note_on_c, 1, 60, 0
4, 41640, Note_on_c, 1, 62, 75
4, 41663, Note_on_c, 1, 62, 0
4, 41664, Note_on_c, 1, 63, 75
4, 41687, Note_on_c, 1, 63, 0
4, 41688, Note_on_c, 1, 65, 75
4, 41711, Note_on_c, 1, 65, 0
4, 41712, Note_on_c, 1, 67, 75
4, 41735, Note_on_c, 1, 67, 0
4, 41736, Note_on_c, 1, 65, 75
4, 41759, Note_on_c, 1, 65, 0
4, 41760, Note_on_c, 1, 63, 75
4, 41849, Note_on_c, 1, 63, 0
4, 41952, Note_on_c, 1, 63, 75
4, 42041, Note_on_c, 1, 63, 0
4, 42048, Note_on_c, 1, 62, 75
4, 42137, Note_on_c, 1, 62, 0
4, 42240, Note_on_c, 1, 62, 75
4, 42329, Note_on_c, 1, 62, 0
4, 42336, Note_on_c, 1, 60, 81
4, 42375, Note_on_c, 1, 60, 0
4, 42432, Note_on_c, 1, 68, 81
4, 42471, Note_on_c, 1, 68, 0
4, 42528, Note_on_c, 1, 60, 81
4, 42567, Note_on_c, 1, 60, 0
4, 42624, Note_on_c, 1, 58, 81
4, 42663, Note_on_c, 1, 58, 0
4, 42720, Note_on_c, 1, 67, 81
4, 42759, Note_on_c, 1, 67, 0
4, 42816, Note_on_c, 1, 58, 81
4, 42855, Note_on_c, 1, 58, 0
4, 42912, Note_on_c, 1, 56, 81
4, 42951, Note_on_c, 1, 56, 0
4, 43008, Note_on_c, 1, 65, 81
4, 43047, Note_on_c, 1, 65, 0
4, 43104, Note_on_c, 1, 56, 81
4, 43143, Note_on_c, 1, 56, 0
4, 43200, Note_on_c, 1, 55, 81
4, 43239, Note_on_c, 1, 55, 0
4, 43296, Note_on_c, 1, 63, 81
4, 43335, Note_on_c, 1, 63, 0
4, 43392, Note_on_c, 1, 55, 81
4, 43431, Note_on_c, 1, 55, 0
4, 43488, Note_on_c, 1, 58, 81
4, 43527, Note_on_c, 1, 58, 0
4, 43584, Note_on_c, 1, 65, 81
4, 43623, Note_on_c, 1, 65, 0
4, 43680, Note_on_c, 1, 63, 81
4, 43719, Note_on_c, 1, 63, 0
4, 43776, Note_on_c, 1, 58, 81
4, 43815, Note_on_c, 1, 58, 0
4, 43872, Note_on_c, 1, 65, 81
4, 43911, Note_on_c, 1, 65, 0
4, 43968, Note_on_c, 1, 63, 81
4, 44007, Note_on_c, 1, 63, 0
4, 44064, Note_on_c, 1, 58, 81
4, 44103, Note_on_c, 1, 58, 0
4, 44160, Note_on_c, 1, 65, 81
4, 44199, Note_on_c, 1, 65, 0
4, 44256, Note_on_c, 1, 63, 81
4, 44295, Note_on_c, 1, 63, 0
4, 44352, Note_on_c, 1, 63, 81
4, 44448, Note_on_c, 1, 63, 0
4, 44448, Note_on_c, 1, 62, 81
4, 44537, Note_on_c, 1, 62, 0
4, 44640, Note_on_c, 1, 51, 81
4, 44640, Note_on_c, 1, 39, 81
4, 44729, Note_on_c, 1, 51, 0
4, 44729, Note_on_c, 1, 39, 0
4, 44736, Note_on_c, 1, 55, 81
4, 44736, Note_on_c, 1, 43, 81
4, 44825, Note_on_c, 1, 55, 0
4, 44825, Note_on_c, 1, 43, 0
4, 44832, Note_on_c, 1, 58, 81
4, 44832, Note_on_c, 1, 46, 81
4, 44921, Note_on_c, 1, 58, 0
4, 44921, Note_on_c, 1, 46, 0
4, 44928, Note_on_c, 1, 63, 81
4, 44928, Note_on_c, 1, 51, 81
4, 45017, Note_on_c, 1, 63, 0
4, 45017, Note_on_c, 1, 51, 0
4, 45216, Note_on_c, 1, 51, 81
4, 45216, Note_on_c, 1, 39, 81
4, 45305, Note_on_c, 1, 51, 0
4, 45305, Note_on_c, 1, 39, 0
4, 45312, Note_on_c, 1, 55, 81
4, 45312, Note_on_c, 1, 43, 81
4, 45401, Note_on_c, 1, 55, 0
4, 45401, Note_on_c, 1, 43, 0
4, 45408, Note_on_c, 1, 58, 81
4, 45408, Note_on_c, 1, 46, 81
4, 45497, Note_on_c, 1, 58, 0
4, 45497, Note_on_c, 1, 46, 0
4, 45504, Note_on_c, 1, 63, 81
4, 45504, Note_on_c, 1, 51, 81
4, 45593, Note_on_c, 1, 63, 0
4, 45593, Note_on_c, 1, 51, 0
4, 45792, Note_on_c, 1, 53, 81
4, 45792, Note_on_c, 1, 48, 81
4, 45792, Note_on_c, 1, 44, 81
4, 45969, Note_on_c, 1, 53, 0
4, 45969, Note_on_c, 1, 48, 0
4, 45969, Note_on_c, 1, 44, 0
4, 46080, Note_on_c, 1, 56, 81
4, 46080, Note_on_c, 1, 53, 81
4, 46080, Note_on_c, 1, 46, 81
4, 46257, Note_on_c, 1, 56, 0
4, 46257, Note_on_c, 1, 53, 0
4, 46257, Note_on_c, 1, 46, 0
4, 46272, Note_on_c, 1, 56, 78
4, 46272, Note_on_c, 1, 53, 78
4, 46272, Note_on_c, 1, 46, 78
4, 46361, Note_on_c, 1, 56, 0
4, 46361, Note_on_c, 1, 53, 0
4, 46361, Note_on_c, 1, 46, 0
4, 46368, Note_on_c, 1, 55, 77
4, 46368, Note_on_c, 1, 51, 77
4, 46368, Note_on_c, 1, 46, 77
4, 46545, Note_on_c, 1, 55, 0
4, 46545, Note_on_c, 1, 51, 0
4, 46545, Note_on_c, 1, 46, 0
4, 46560, Note_on_c, 1, 55, 74
4, 46560, Note_on_c, 1, 51, 74
4, 46560, Note_on_c, 1, 46, 74
4, 46649, Note_on_c, 1, 55, 0
4, 46649, Note_on_c, 1, 51, 0
4, 46649, Note_on_c, 1, 46, 0
4, 46656, Note_on_c, 1, 53, 73
4, 46656, Note_on_c, 1, 50, 73
4, 46656, Note_on_c, 1, 46, 73
4, 46833, Note_on_c, 1, 53, 0
4, 46833, Note_on_c, 1, 50, 0
4, 46833, Note_on_c, 1, 46, 0
4, 46848, Note_on_c, 1, 53, 71
4, 46848, Note_on_c, 1, 50, 71
4, 46848, Note_on_c, 1, 46, 71
4, 46937, Note_on_c, 1, 53, 0
4, 46937, Note_on_c, 1, 50, 0
4, 46937, Note_on_c, 1, 46, 0
4, 47520, Note_on_c, 1, 56, 75
4, 47609, Note_on_c, 1, 56, 0
4, 47736, Note_on_c, 1, 56, 75
4, 47759, Note_on_c, 1, 56, 0
4, 47760, Note_on_c, 1, 44, 75
4, 47783, Note_on_c, 1, 44, 0
4, 47784, Note_on_c, 1, 56, 75
4, 47807, Note_on_c, 1, 56, 0
4, 47808, Note_on_c, 1, 43, 75
4, 47897, Note_on_c, 1, 43, 0
4, 48024, Note_on_c, 1, 55, 75
4, 48047, Note_on_c, 1, 55, 0
4, 48048, Note_on_c, 1, 43, 75
4, 48071, Note_on_c, 1, 43, 0
4, 48072, Note_on_c, 1, 55, 75
4, 48095, Note_on_c, 1, 55, 0
4, 48096, Note_on_c, 1, 56, 75
4, 48185, Note_on_c, 1, 56, 0
4, 48312, Note_on_c, 1, 56, 70
4, 48335, Note_on_c, 1, 56, 0
4, 48336, Note_on_c, 1, 44, 70
4, 48359, Note_on_c, 1, 44, 0
4, 48360, Note_on_c, 1, 56, 70
4, 48383, Note_on_c, 1, 56, 0
4, 48384, Note_on_c, 1, 43, 70
4, 48473, Note_on_c, 1, 43, 0
4, 48960, Note_on_c, 1, 75, 70
4, 48960, Note_on_c, 1, 69, 70
4, 49049, Note_on_c, 1, 75, 0
4, 49049, Note_on_c, 1, 69, 0
4, 49104, Note_on_c, 1, 75, 70
4, 49104, Note_on_c, 1, 69, 70
4, 49149, Note_on_c, 1, 75, 0
4, 49149, Note_on_c, 1, 69, 0
4, 49152, Note_on_c, 1, 75, 70
4, 49152, Note_on_c, 1, 69, 70
4, 49197, Note_on_c, 1, 75, 0
4, 49197, Note_on_c, 1, 69, 0
4, 49200, Note_on_c, 1, 75, 70
4, 49200, Note_on_c, 1, 69, 70
4, 49245, Note_on_c, 1, 75, 0
4, 49245, Note_on_c, 1, 69, 0
4, 49248, Note_on_c, 1, 74, 70
4, 49248, Note_on_c, 1, 70, 70
4, 49337, Note_on_c, 1, 74, 0
4, 49337, Note_on_c, 1, 70, 0
4, 49536, Note_on_c, 1, 63, 70
4, 49536, Note_on_c, 1, 57, 70
4, 49625, Note_on_c, 1, 63, 0
4, 49625, Note_on_c, 1, 57, 0
4, 49680, Note_on_c, 1, 63, 70
4, 49680, Note_on_c, 1, 57, 70
4, 49725, Note_on_c, 1, 63, 0
4, 49725, Note_on_c, 1, 57, 0
4, 49728, Note_on_c, 1, 63, 70
4, 49728, Note_on_c, 1, 57, 70
4, 49773, Note_on_c, 1, 63, 0
4, 49773, Note_on_c, 1, 57, 0
4, 49776, Note_on_c, 1, 63, 70
4, 49776, Note_on_c, 1, 57, 70
4, 49821, Note_on_c, 1, 63, 0
4, 49821, Note_on_c, 1, 57, 0
4, 49824, Note_on_c, 1, 62, 70
4, 49824, Note_on_c, 1, 58, 70
4, 49913, Note_on_c, 1, 62, 0
4, 49913, Note_on_c, 1, 58, 0
4, 50112, Note_on_c, 1, 46, 75
4, 50112, Note_on_c, 1, 34, 75
4, 50201, Note_on_c, 1, 46, 0
4, 50201, Note_on_c, 1, 34, 0
4, 50256, Note_on_c, 1, 46, 75
4, 50301, Note_on_c, 1, 46, 0
4, 50304, Note_on_c, 1, 48, 75
4, 50349, Note_on_c, 1, 48, 0
4, 50352, Note_on_c, 1, 50, 75
4, 50397, Note_on_c, 1, 50, 0
4, 50400, Note_on_c, 1, 51, 75
4, 50439, Note_on_c, 1, 51, 0
4, 50496, Note_on_c, 1, 53, 75
4, 50535, Note_on_c, 1, 53, 0
4, 50592, Note_on_c, 1, 55, 75
4, 50631, Note_on_c, 1, 55, 0
4, 50688, Note_on_c, 1, 56, 75
4, 50777, Note_on_c, 1, 56, 0
4, 50784, Note_on_c, 1, 55, 75
4, 50873, Note_on_c, 1, 55, 0
4, 50880, Note_on_c, 1, 53, 75
4, 50969, Note_on_c, 1, 53, 0
4, 50976, Note_on_c, 1, 51, 75
4, 51015, Note_on_c, 1, 51, 0
4, 51072, Note_on_c, 1, 53, 75
4, 51111, Note_on_c, 1, 53, 0
4, 51168, Note_on_c, 1, 55, 75
4, 51207, Note_on_c, 1, 55, 0
4, 51264, Note_on_c, 1, 56, 75
4, 51284, Note_on_c, 1, 56, 0
4, 51312, Note_on_c, 1, 53, 75
4, 51332, Note_on_c, 1, 53, 0
4, 51360, Note_on_c, 1, 58, 75
4, 51380, Note_on_c, 1, 58, 0
4, 51408, Note_on_c, 1, 55, 75
4, 51428, Note_on_c, 1, 55, 0
4, 51456, Note_on_c, 1, 60, 75
4, 51476, Note_on_c, 1, 60, 0
4, 51504, Note_on_c, 1, 56, 75
4, 51524, Note_on_c, 1, 56, 0
4, 51552, Note_on_c, 1, 62, 75
4, 51641, Note_on_c, 1, 62, 0
4, 51696, Note_on_c, 1, 58, 75
4, 51741, Note_on_c, 1, 58, 0
4, 51744, Note_on_c, 1, 60, 75
4, 51789, Note_on_c, 1, 60, 0
4, 51792, Note_on_c, 1, 62, 75
4, 51837, Note_on_c, 1, 62, 0
4, 51840, Note_on_c, 1, 63, 75
4, 51879, Note_on_c, 1, 63, 0
4, 51936, Note_on_c, 1, 65, 75
4, 51975, Note_on_c, 1, 65, 0
4, 52032, Note_on_c, 1, 67, 75
4, 52071, Note_on_c, 1, 67, 0
4, 52128, Note_on_c, 1, 63, 75
4, 52217, Note_on_c, 1, 63, 0
4, 52224, Note_on_c, 1, 63, 75
4, 52313, Note_on_c, 1, 63, 0
4, 52320, Note_on_c, 1, 62, 75
4, 52409, Note_on_c, 1, 62, 0
4, 52416, Note_on_c, 1, 63, 75
4, 52505, Note_on_c, 1, 63, 0
4, 52704, Note_on_c, 1, 51, 64
4, 52969, Note_on_c, 1, 51, 0
4, 52992, Note_on_c, 1, 56, 64
4, 53184, Note_on_c, 1, 56, 0
4, 53184, Note_on_c, 1, 55, 64
4, 53257, Note_on_c, 1, 55, 0
4, 53280, Note_on_c, 1, 46, 75
4, 53280, Note_on_c, 1, 34, 75
4, 53369, Note_on_c, 1, 46, 0
4, 53369, Note_on_c, 1, 34, 0
4, 53472, Note_on_c, 1, 74, 75
4, 53561, Note_on_c, 1, 74, 0
4, 53568, Note_on_c, 1, 75, 75
4, 53607, Note_on_c, 1, 75, 0
4, 53664, Note_on_c, 1, 74, 75
4, 53703, Note_on_c, 1, 74, 0
4, 53760, Note_on_c, 1, 72, 75
4, 53799, Note_on_c, 1, 72, 0
4, 53856, Note_on_c, 1, 70, 75
4, 53945, Note_on_c, 1, 70, 0
4, 54048, Note_on_c, 1, 74, 75
4, 54137, Note_on_c, 1, 74, 0
4, 54144, Note_on_c, 1, 75, 75
4, 54189, Note_on_c, 1, 75, 0
4, 54240, Note_on_c, 1, 74, 75
4, 54285, Note_on_c, 1, 74, 0
4, 54336, Note_on_c, 1, 72, 75
4, 54381, Note_on_c, 1, 72, 0
4, 54432, Note_on_c, 1, 70, 75
4, 54521, Note_on_c, 1, 70, 0
4, 54768, Note_on_c, 1, 58, 75
4, 54791, Note_on_c, 1, 58, 0
4, 54792, Note_on_c, 1, 60, 75
4, 54815, Note_on_c, 1, 60, 0
4, 54816, Note_on_c, 1, 62, 75
4, 54861, Note_on_c, 1, 62, 0
4, 54864, Note_on_c, 1, 58, 75
4, 54909, Note_on_c, 1, 58, 0
4, 54912, Note_on_c, 1, 60, 75
4, 54957, Note_on_c, 1, 60, 0
4, 54960, Note_on_c, 1, 53, 75
4, 55005, Note_on_c, 1, 53, 0
4, 55008, Note_on_c, 1, 58, 75
4, 55097, Note_on_c, 1, 58, 0
4, 55200, Note_on_c, 1, 50, 75
4, 55239, Note_on_c, 1, 50, 0
4, 55296, Note_on_c, 1, 51, 75
4, 55335, Note_on_c, 1, 51, 0
4, 55488, Note_on_c, 1, 53, 75
4, 55577, Note_on_c, 1, 53, 0
4, 55584, Note_on_c, 1, 46, 75
4, 55673, Note_on_c, 1, 46, 0
4, 55776, Note_on_c, 1, 50, 75
4, 55815, Note_on_c, 1, 50, 0
4, 55872, Note_on_c, 1, 51, 75
4, 55911, Note_on_c, 1, 51, 0
4, 56064, Note_on_c, 1, 53, 75
4, 56153, Note_on_c, 1, 53, 0
4, 56184, Note_on_c, 1, 46, 75
4, 56207, Note_on_c, 1, 46, 0
4, 56208, Note_on_c, 1, 48, 75
4, 56231, Note_on_c, 1, 48, 0
4, 56232, Note_on_c, 1, 50, 75
4, 56255, Note_on_c, 1, 50, 0
4, 56256, Note_on_c, 1, 51, 75
4, 56279, Note_on_c, 1, 51, 0
4, 56280, Note_on_c, 1, 53, 75
4, 56303, Note_on_c, 1, 53, 0
4, 56304, Note_on_c, 1, 55, 75
4, 56327, Note_on_c, 1, 55, 0
4, 56328, Note_on_c, 1, 57, 75
4, 56351, Note_on_c, 1, 57, 0
4, 56352, Note_on_c, 1, 58, 75
4, 56375, Note_on_c, 1, 58, 0
4, 56376, Note_on_c, 1, 60, 75
4, 56399, Note_on_c, 1, 60, 0
4, 56400, Note_on_c, 1, 62, 75
4, 56423, Note_on_c, 1, 62, 0
4, 56424, Note_on_c, 1, 60, 75
4, 56447, Note_on_c, 1, 60, 0
4, 56448, Note_on_c, 1, 58, 75
4, 56537, Note_on_c, 1, 58, 0
4, 56784, Note_on_c, 1, 73, 70
4, 56829, Note_on_c, 1, 73, 0
4, 56832, Note_on_c, 1, 73, 70
4, 56877, Note_on_c, 1, 73, 0
4, 56880, Note_on_c, 1, 73, 70
4, 56925, Note_on_c, 1, 73, 0
4, 56928, Note_on_c, 1, 73, 70
4, 56973, Note_on_c, 1, 73, 0
4, 56976, Note_on_c, 1, 73, 70
4, 57021, Note_on_c, 1, 73, 0
4, 57072, Note_on_c, 1, 72, 70
4, 57117, Note_on_c, 1, 72, 0
4, 57120, Note_on_c, 1, 72, 70
4, 57165, Note_on_c, 1, 72, 0
4, 57168, Note_on_c, 1, 72, 70
4, 57213, Note_on_c, 1, 72, 0
4, 57216, Note_on_c, 1, 72, 70
4, 57261, Note_on_c, 1, 72, 0
4, 57264, Note_on_c, 1, 72, 70
4, 57309, Note_on_c, 1, 72, 0
4, 57360, Note_on_c, 1, 72, 70
4, 57405, Note_on_c, 1, 72, 0
4, 57408, Note_on_c, 1, 72, 70
4, 57453, Note_on_c, 1, 72, 0
4, 57456, Note_on_c, 1, 72, 70
4, 57501, Note_on_c, 1, 72, 0
4, 57504, Note_on_c, 1, 72, 70
4, 57549, Note_on_c, 1, 72, 0
4, 57552, Note_on_c, 1, 72, 70
4, 57597, Note_on_c, 1, 72, 0
4, 57648, Note_on_c, 1, 60, 70
4, 57693, Note_on_c, 1, 60, 0
4, 57696, Note_on_c, 1, 60, 70
4, 57741, Note_on_c, 1, 60, 0
4, 57744, Note_on_c, 1, 60, 70
4, 57789, Note_on_c, 1, 60, 0
4, 57792, Note_on_c, 1, 60, 70
4, 57837, Note_on_c, 1, 60, 0
4, 57840, Note_on_c, 1, 60, 70
4, 57885, Note_on_c, 1, 60, 0
4, 57936, Note_on_c, 1, 60, 70
4, 57981, Note_on_c, 1, 60, 0
4, 57984, Note_on_c, 1, 60, 70
4, 58029, Note_on_c, 1, 60, 0
4, 58032, Note_on_c, 1, 60, 70
4, 58077, Note_on_c, 1, 60, 0
4, 58080, Note_on_c, 1, 60, 70
4, 58125, Note_on_c, 1, 60, 0
4, 58128, Note_on_c, 1, 60, 70
4, 58173, Note_on_c, 1, 60, 0
4, 58176, Note_on_c, 1, 60, 70
4, 58353, Note_on_c, 1, 60, 0
4, 58464, Note_on_c, 1, 56, 81
4, 58464, Note_on_c, 1, 51, 81
4, 58464, Note_on_c, 1, 48, 81
4, 58464, Note_on_c, 1, 44, 81
4, 59017, Note_on_c, 1, 56, 0
4, 59017, Note_on_c, 1, 51, 0
4, 59017, Note_on_c, 1, 48, 0
4, 59017, Note_on_c, 1, 44, 0
4, 59088, Note_on_c, 1, 48, 70
4, 59088, Note_on_c, 1, 44, 70
4, 59133, Note_on_c, 1, 48, 0
4, 59133, Note_on_c, 1, 44, 0
4, 59136, Note_on_c, 1, 48, 70
4, 59136, Note_on_c, 1, 44, 70
4, 59181, Note_on_c, 1, 48, 0
4, 59181, Note_on_c, 1, 44, 0
4, 59184, Note_on_c, 1, 48, 70
4, 59184, Note_on_c, 1, 44, 70
4, 59229, Note_on_c, 1, 48, 0
4, 59229, Note_on_c, 1, 44, 0
4, 59232, Note_on_c, 1, 48, 70
4, 59232, Note_on_c, 1, 44, 70
4, 59277, Note_on_c, 1, 48, 0
4, 59277, Note_on_c, 1, 44, 0
4, 59280, Note_on_c, 1, 48, 70
4, 59280, Note_on_c, 1, 44, 70
4, 59325, Note_on_c, 1, 48, 0
4, 59325, Note_on_c, 1, 44, 0
4, 59376, Note_on_c, 1, 48, 71
4, 59376, Note_on_c, 1, 45, 71
4, 59421, Note_on_c, 1, 48, 0
4, 59421, Note_on_c, 1, 45, 0
4, 59424, Note_on_c, 1, 48, 71
4, 59424, Note_on_c, 1, 45, 71
4, 59469, Note_on_c, 1, 48, 0
4, 59469, Note_on_c, 1, 45, 0
4, 59472, Note_on_c, 1, 48, 71
4, 59472, Note_on_c, 1, 45, 71
4, 59517, Note_on_c, 1, 48, 0
4, 59517, Note_on_c, 1, 45, 0
4, 59520, Note_on_c, 1, 48, 72
4, 59520, Note_on_c, 1, 45, 72
4, 59565, Note_on_c, 1, 48, 0
4, 59565, Note_on_c, 1, 45, 0
4, 59568, Note_on_c, 1, 53, 72
4, 59568, Note_on_c, 1, 45, 72
4, 59613, Note_on_c, 1, 53, 0
4, 59613, Note_on_c, 1, 45, 0
4, 59664, Note_on_c, 1, 53, 73
4, 59664, Note_on_c, 1, 46, 73
4, 59709, Note_on_c, 1, 53, 0
4, 59709, Note_on_c, 1, 46, 0
4, 59712, Note_on_c, 1, 53, 73
4, 59712, Note_on_c, 1, 46, 73
4, 59757, Note_on_c, 1, 53, 0
4, 59757, Note_on_c, 1, 46, 0
4, 59760, Note_on_c, 1, 53, 73
4, 59760, Note_on_c, 1, 46, 73
4, 59805, Note_on_c, 1, 53, 0
4, 59805, Note_on_c, 1, 46, 0
4, 59808, Note_on_c, 1, 53, 74
4, 59808, Note_on_c, 1, 46, 74
4, 59853, Note_on_c, 1, 53, 0
4, 59853, Note_on_c, 1, 46, 0
4, 59856, Note_on_c, 1, 53, 74
4, 59856, Note_on_c, 1, 46, 74
4, 59901, Note_on_c, 1, 53, 0
4, 59901, Note_on_c, 1, 46, 0
4, 59952, Note_on_c, 1, 53, 75
4, 59952, Note_on_c, 1, 47, 75
4, 59997, Note_on_c, 1, 53, 0
4, 59997, Note_on_c, 1, 47, 0
4, 60000, Note_on_c, 1, 53, 75
4, 60000, Note_on_c, 1, 47, 75
4, 60045, Note_on_c, 1, 53, 0
4, 60045, Note_on_c, 1, 47, 0
4, 60048, Note_on_c, 1, 53, 75
4, 60048, Note_on_c, 1, 47, 75
4, 60093, Note_on_c, 1, 53, 0
4, 60093, Note_on_c, 1, 47, 0
4, 60096, Note_on_c, 1, 50, 75
4, 60096, Note_on_c, 1, 47, 75
4, 60141, Note_on_c, 1, 50, 0
4, 60141, Note_on_c, 1, 47, 0
4, 60144, Note_on_c, 1, 55, 76
4, 60144, Note_on_c, 1, 47, 76
4, 60189, Note_on_c, 1, 55, 0
4, 60189, Note_on_c, 1, 47, 0
4, 60240, Note_on_c, 1, 55, 76
4, 60240, Note_on_c, 1, 48, 76
4, 60285, Note_on_c, 1, 55, 0
4, 60285, Note_on_c, 1, 48, 0
4, 60288, Note_on_c, 1, 55, 77
4, 60288, Note_on_c, 1, 48, 77
4, 60333, Note_on_c, 1, 55, 0
4, 60333, Note_on_c, 1, 48, 0
4, 60336, Note_on_c, 1, 55, 77
4, 60336, Note_on_c, 1, 48, 77
4, 60381, Note_on_c, 1, 55, 0
4, 60381, Note_on_c, 1, 48, 0
4, 60384, Note_on_c, 1, 51, 77
4, 60384, Note_on_c, 1, 48, 77
4, 60429, Note_on_c, 1, 51, 0
4, 60429, Note_on_c, 1, 48, 0
4, 60432, Note_on_c, 1, 55, 78
4, 60432, Note_on_c, 1, 48, 78
4, 60477, Note_on_c, 1, 55, 0
4, 60477, Note_on_c, 1, 48, 0
4, 60528, Note_on_c, 1, 53, 78
4, 60528, Note_on_c, 1, 41, 78
4, 60573, Note_on_c, 1, 53, 0
4, 60573, Note_on_c, 1, 41, 0
4, 60576, Note_on_c, 1, 53, 79
4, 60576, Note_on_c, 1, 41, 79
4, 60621, Note_on_c, 1, 53, 0
4, 60621, Note_on_c, 1, 41, 0
4, 60624, Note_on_c, 1, 53, 79
4, 60624, Note_on_c, 1, 41, 79
4, 60669, Note_on_c, 1, 53, 0
4, 60669, Note_on_c, 1, 41, 0
4, 60672, Note_on_c, 1, 53, 79
4, 60672, Note_on_c, 1, 41, 79
4, 60717, Note_on_c, 1, 53, 0
4, 60717, Note_on_c, 1, 41, 0
4, 60720, Note_on_c, 1, 53, 80
4, 60720, Note_on_c, 1, 41, 80
4, 60765, Note_on_c, 1, 53, 0
4, 60765, Note_on_c, 1, 41, 0
4, 60768, Note_on_c, 1, 43, 80
4, 60768, Note_on_c, 1, 31, 80
4, 60857, Note_on_c, 1, 43, 0
4, 60857, Note_on_c, 1, 31, 0
4, 60864, Note_on_c, 1, 47, 81
4, 60864, Note_on_c, 1, 35, 81
4, 60953, Note_on_c, 1, 47, 0
4, 60953, Note_on_c, 1, 35, 0
4, 60960, Note_on_c, 1, 50, 81
4, 60960, Note_on_c, 1, 38, 81
4, 61049, Note_on_c, 1, 50, 0
4, 61049, Note_on_c, 1, 38, 0
4, 61056, Note_on_c, 1, 55, 81
4, 61056, Note_on_c, 1, 43, 81
4, 61145, Note_on_c, 1, 55, 0
4, 61145, Note_on_c, 1, 43, 0
4, 61344, Note_on_c, 1, 43, 81
4, 61344, Note_on_c, 1, 31, 81
4, 61433, Note_on_c, 1, 43, 0
4, 61433, Note_on_c, 1, 31, 0
4, 61488, Note_on_c, 1, 55, 81
4, 61508, Note_on_c, 1, 55, 0
4, 61536, Note_on_c, 1, 57, 81
4, 61556, Note_on_c, 1, 57, 0
4, 61584, Note_on_c, 1, 59, 81
4, 61604, Note_on_c, 1, 59, 0
4, 61632, Note_on_c, 1, 60, 81
4, 61721, Note_on_c, 1, 60, 0
4, 61728, Note_on_c, 1, 62, 81
4, 61817, Note_on_c, 1, 62, 0
4, 61824, Note_on_c, 1, 63, 81
4, 61913, Note_on_c, 1, 63, 0
4, 61920, Note_on_c, 1, 65, 81
4, 62009, Note_on_c, 1, 65, 0
4, 62016, Note_on_c, 1, 67, 79
4, 62105, Note_on_c, 1, 67, 0
4, 62112, Note_on_c, 1, 55, 77
4, 62201, Note_on_c, 1, 55, 0
4, 62208, Note_on_c, 1, 60, 75
4, 62297, Note_on_c, 1, 60, 0
4, 62544, Note_on_c, 1, 63, 75
4, 62544, Note_on_c, 1, 60, 75
4, 62567, Note_on_c, 1, 63, 0
4, 62567, Note_on_c, 1, 60, 0
4, 62568, Note_on_c, 1, 65, 75
4, 62568, Note_on_c, 1, 62, 75
4, 62591, Note_on_c, 1, 65, 0
4, 62591, Note_on_c, 1, 62, 0
4, 62592, Note_on_c, 1, 63, 75
4, 62592, Note_on_c, 1, 60, 75
4, 62637, Note_on_c, 1, 63, 0
4, 62637, Note_on_c, 1, 60, 0
4, 62640, Note_on_c, 1, 63, 75
4, 62640, Note_on_c, 1, 60, 75
4, 62685, Note_on_c, 1, 63, 0
4, 62685, Note_on_c, 1, 60, 0
4, 62688, Note_on_c, 1, 63, 75
4, 62688, Note_on_c, 1, 60, 75
4, 62733, Note_on_c, 1, 63, 0
4, 62733, Note_on_c, 1, 60, 0
4, 62736, Note_on_c, 1, 63, 75
4, 62736, Note_on_c, 1, 60, 75
4, 62781, Note_on_c, 1, 63, 0
4, 62781, Note_on_c, 1, 60, 0
4, 62784, Note_on_c, 1, 58, 75
4, 63049, Note_on_c, 1, 58, 0
4, 63072, Note_on_c, 1, 46, 75
4, 63072, Note_on_c, 1, 34, 75
4, 63625, Note_on_c, 1, 46, 0
4, 63625, Note_on_c, 1, 34, 0
4, 63648, Note_on_c, 1, 55, 75
4, 63648, Note_on_c, 1, 51, 75
4, 63825, Note_on_c, 1, 55, 0
4, 63825, Note_on_c, 1, 51, 0
4, 63840, Note_on_c, 1, 67, 75
4, 63929, Note_on_c, 1, 67, 0
4, 63936, Note_on_c, 1, 68, 75
4, 63975, Note_on_c, 1, 68, 0
4, 64032, Note_on_c, 1, 67, 75
4, 64071, Note_on_c, 1, 67, 0
4, 64128, Note_on_c, 1, 65, 75
4, 64167, Note_on_c, 1, 65, 0
4, 64224, Note_on_c, 1, 63, 75
4, 64313, Note_on_c, 1, 63, 0
4, 64416, Note_on_c, 1, 67, 75
4, 64505, Note_on_c, 1, 67, 0
4, 64512, Note_on_c, 1, 68, 75
4, 64551, Note_on_c, 1, 68, 0
4, 64608, Note_on_c, 1, 67, 75
4, 64647, Note_on_c, 1, 67, 0
4, 64704, Note_on_c, 1, 65, 75
4, 64743, Note_on_c, 1, 65, 0
4, 64800, Note_on_c, 1, 63, 75
4, 64889, Note_on_c, 1, 63, 0
4, 65136, Note_on_c, 1, 51, 75
4, 65159, Note_on_c, 1, 51, 0
4, 65160, Note_on_c, 1, 53, 75
4, 65183, Note_on_c, 1, 53, 0
4, 65184, Note_on_c, 1, 55, 75
4, 65229, Note_on_c, 1, 55, 0
4, 65232, Note_on_c, 1, 51, 75
4, 65277, Note_on_c, 1, 51, 0
4, 65280, Note_on_c, 1, 53, 75
4, 65325, Note_on_c, 1, 53, 0
4, 65328, Note_on_c, 1, 46, 75
4, 65373, Note_on_c, 1, 46, 0
4, 65376, Note_on_c, 1, 51, 75
4, 65465, Note_on_c, 1, 51, 0
4, 65568, Note_on_c, 1, 43, 75
4, 65607, Note_on_c, 1, 43, 0
4, 65664, Note_on_c, 1, 44, 75
4, 65703, Note_on_c, 1, 44, 0
4, 65856, Note_on_c, 1, 46, 75
4, 65895, Note_on_c, 1, 46, 0
4, 65952, Note_on_c, 1, 51, 75
4, 65991, Note_on_c, 1, 51, 0
4, 66144, Note_on_c, 1, 43, 75
4, 66183, Note_on_c, 1, 43, 0
4, 66240, Note_on_c, 1, 44, 75
4, 66279, Note_on_c, 1, 44, 0
4, 66432, Note_on_c, 1, 46, 75
4, 66471, Note_on_c, 1, 46, 0
4, 66552, Note_on_c, 1, 51, 75
4, 66575, Note_on_c, 1, 51, 0
4, 66576, Note_on_c, 1, 53, 75
4, 66599, Note_on_c, 1, 53, 0
4, 66600, Note_on_c, 1, 55, 75
4, 66623, Note_on_c, 1, 55, 0
4, 66624, Note_on_c, 1, 56, 75
4, 66647, Note_on_c, 1, 56, 0
4, 66648, Note_on_c, 1, 58, 75
4, 66671, Note_on_c, 1, 58, 0
4, 66672, Note_on_c, 1, 60, 75
4, 66695, Note_on_c, 1, 60, 0
4, 66696, Note_on_c, 1, 62, 75
4, 66719, Note_on_c, 1, 62, 0
4, 66720, Note_on_c, 1, 63, 75
4, 66743, Note_on_c, 1, 63, 0
4, 66744, Note_on_c, 1, 65, 75
4, 66767, Note_on_c, 1, 65, 0
4, 66768, Note_on_c, 1, 67, 75
4, 66791, Note_on_c, 1, 67, 0
4, 66792, Note_on_c, 1, 65, 75
4, 66815, Note_on_c, 1, 65, 0
4, 66816, Note_on_c, 1, 63, 75
4, 66905, Note_on_c, 1, 63, 0
4, 67008, Note_on_c, 1, 63, 75
4, 67097, Note_on_c, 1, 63, 0
4, 67104, Note_on_c, 1, 62, 75
4, 67193, Note_on_c, 1, 62, 0
4, 67296, Note_on_c, 1, 62, 75
4, 67385, Note_on_c, 1, 62, 0
4, 67392, Note_on_c, 1, 60, 81
4, 67431, Note_on_c, 1, 60, 0
4, 67488, Note_on_c, 1, 68, 81
4, 67527, Note_on_c, 1, 68, 0
4, 67584, Note_on_c, 1, 60, 81
4, 67623, Note_on_c, 1, 60, 0
4, 67680, Note_on_c, 1, 58, 81
4, 67719, Note_on_c, 1, 58, 0
4, 67776, Note_on_c, 1, 67, 81
4, 67815, Note_on_c, 1, 67, 0
4, 67872, Note_on_c, 1, 58, 81
4, 67911, Note_on_c, 1, 58, 0
4, 67968, Note_on_c, 1, 56, 81
4, 68007, Note_on_c, 1, 56, 0
4, 68064, Note_on_c, 1, 65, 81
4, 68103, Note_on_c, 1, 65, 0
4, 68160, Note_on_c, 1, 56, 81
4, 68199, Note_on_c, 1, 56, 0
4, 68256, Note_on_c, 1, 55, 81
4, 68295, Note_on_c, 1, 55, 0
4, 68352, Note_on_c, 1, 63, 81
4, 68391, Note_on_c, 1, 63, 0
4, 68448, Note_on_c, 1, 55, 81
4, 68487, Note_on_c, 1, 55, 0
4, 68544, Note_on_c, 1, 58, 81
4, 68583, Note_on_c, 1, 58, 0
4, 68640, Note_on_c, 1, 65, 81
4, 68679, Note_on_c, 1, 65, 0
4, 68736, Note_on_c, 1, 63, 81
4, 68775, Note_on_c, 1, 63, 0
4, 68832, Note_on_c, 1, 58, 81
4, 68871, Note_on_c, 1, 58, 0
4, 68928, Note_on_c, 1, 65, 81
4, 68967, Note_on_c, 1, 65, 0
4, 69024, Note_on_c, 1, 63, 81
4, 69063, Note_on_c, 1, 63, 0
4, 69120, Note_on_c, 1, 58, 81
4, 69159, Note_on_c, 1, 58, 0
4, 69216, Note_on_c, 1, 65, 81
4, 69255, Note_on_c, 1, 65, 0
4, 69312, Note_on_c, 1, 63, 81
4, 69351, Note_on_c, 1, 63, 0
4, 69408, Note_on_c, 1, 63, 81
4, 69504, Note_on_c, 1, 63, 0
4, 69504, Note_on_c, 1, 62, 81
4, 69593, Note_on_c, 1, 62, 0
4, 69696, Note_on_c, 1, 51, 81
4, 69696, Note_on_c, 1, 39, 81
4, 69785, Note_on_c, 1, 51, 0
4, 69785, Note_on_c, 1, 39, 0
4, 69792, Note_on_c, 1, 55, 81
4, 69792, Note_on_c, 1, 43, 81
4, 69881, Note_on_c, 1, 55, 0
4, 69881, Note_on_c, 1, 43, 0
4, 69888, Note_on_c, 1, 58, 81
4, 69888, Note_on_c, 1, 46, 81
4, 69977, Note_on_c, 1, 58, 0
4, 69977, Note_on_c, 1, 46, 0
4, 69984, Note_on_c, 1, 63, 81
4, 69984, Note_on_c, 1, 51, 81
4, 70073, Note_on_c, 1, 63, 0
4, 70073, Note_on_c, 1, 51, 0
4, 70272, Note_on_c, 1, 51, 81
4, 70272, Note_on_c, 1, 39, 81
4, 70361, Note_on_c, 1, 51, 0
4, 70361, Note_on_c, 1, 39, 0
4, 70368, Note_on_c, 1, 55, 81
4, 70368, Note_on_c, 1, 43, 81
4, 70457, Note_on_c, 1, 55, 0
4, 70457, Note_on_c, 1, 43, 0
4, 70464, Note_on_c, 1, 58, 81
4, 70464, Note_on_c, 1, 46, 81
4, 70553, Note_on_c, 1, 58, 0
4, 70553, Note_on_c, 1, 46, 0
4, 70560, Note_on_c, 1, 63, 81
4, 70560, Note_on_c, 1, 51, 81
4, 70649, Note_on_c, 1, 63, 0
4, 70649, Note_on_c, 1, 51, 0
4, 70848, Note_on_c, 1, 53, 81
4, 70848, Note_on_c, 1, 48, 81
4, 70848, Note_on_c, 1, 44, 81
4, 71025, Note_on_c, 1, 53, 0
4, 71025, Note_on_c, 1, 48, 0
4, 71025, Note_on_c, 1, 44, 0
4, 71136, Note_on_c, 1, 56, 81
4, 71136, Note_on_c, 1, 53, 81
4, 71136, Note_on_c, 1, 46, 81
4, 71313, Note_on_c, 1, 56, 0
4, 71313, Note_on_c, 1, 53, 0
4, 71313, Note_on_c, 1, 46, 0
4, 71328, Note_on_c, 1, 56, 78
4, 71328, Note_on_c, 1, 53, 78
4, 71328, Note_on_c, 1, 46, 78
4, 71417, Note_on_c, 1, 56, 0
4, 71417, Note_on_c, 1, 53, 0
4, 71417, Note_on_c, 1, 46, 0
4, 71424, Note_on_c, 1, 55, 77
4, 71424, Note_on_c, 1, 51, 77
4, 71424, Note_on_c, 1, 46, 77
4, 71601, Note_on_c, 1, 55, 0
4, 71601, Note_on_c, 1, 51, 0
4, 71601, Note_on_c, 1, 46, 0
4, 71616, Note_on_c, 1, 55, 74
4, 71616, Note_on_c, 1, 51, 74
4, 71616, Note_on_c, 1, 46, 74
4, 71705, Note_on_c, 1, 55, 0
4, 71705, Note_on_c, 1, 51, 0
4, 71705, Note_on_c, 1, 46, 0
4, 71712, Note_on_c, 1, 53, 73
4, 71712, Note_on_c, 1, 50, 73
4, 71712, Note_on_c, 1, 46, 73
4, 71889, Note_on_c, 1, 53, 0
4, 71889, Note_on_c, 1, 50, 0
4, 71889, Note_on_c, 1, 46, 0
4, 71904, Note_on_c, 1, 53, 71
4, 71904, Note_on_c, 1, 50, 71
4, 71904, Note_on_c, 1, 46, 71
4, 71993, Note_on_c, 1, 53, 0
4, 71993, Note_on_c, 1, 50, 0
4, 71993, Note_on_c, 1, 46, 0
4, 72576, Note_on_c, 1, 56, 75
4, 72665, Note_on_c, 1, 56, 0
4, 72792, Note_on_c, 1, 56, 75
4, 72815, Note_on_c, 1, 56, 0
4, 72816, Note_on_c, 1, 44, 75
4, 72839, Note_on_c, 1, 44, 0
4, 72840, Note_on_c, 1, 56, 75
4, 72863, Note_on_c, 1, 56, 0
4, 72864, Note_on_c, 1, 43, 75
4, 72953, Note_on_c, 1, 43, 0
4, 73080, Note_on_c, 1, 55, 75
4, 73103, Note_on_c, 1, 55, 0
4, 73104, Note_on_c, 1, 43, 75
4, 73127, Note_on_c, 1, 43, 0
4, 73128, Note_on_c, 1, 55, 75
4, 73151, Note_on_c, 1, 55, 0
4, 73152, Note_on_c, 1, 56, 75
4, 73241, Note_on_c, 1, 56, 0
4, 73368, Note_on_c, 1, 56, 70
4, 73391, Note_on_c, 1, 56, 0
4, 73392, Note_on_c, 1, 44, 70
4, 73415, Note_on_c, 1, 44, 0
4, 73416, Note_on_c, 1, 56, 70
4, 73439, Note_on_c, 1, 56, 0
4, 73440, Note_on_c, 1, 43, 70
4, 73529, Note_on_c, 1, 43, 0
4, 74016, Note_on_c, 1, 75, 70
4, 74016, Note_on_c, 1, 69, 70
4, 74105, Note_on_c, 1, 75, 0
4, 74105, Note_on_c, 1, 69, 0
4, 74160, Note_on_c, 1, 75, 70
4, 74160, Note_on_c, 1, 69, 70
4, 74205, Note_on_c, 1, 75, 0
4, 74205, Note_on_c, 1, 69, 0
4, 74208, Note_on_c, 1, 75, 70
4, 74208, Note_on_c, 1, 69, 70
4, 74253, Note_on_c, 1, 75, 0
4, 74253, Note_on_c, 1, 69, 0
4, 74256, Note_on_c, 1, 75, 70
4, 74256, Note_on_c, 1, 69, 70
4, 74301, Note_on_c, 1, 75, 0
4, 74301, Note_on_c, 1, 69, 0
4, 74304, Note_on_c, 1, 74, 70
4, 74304, Note_on_c, 1, 70, 70
4, 74393, Note_on_c, 1, 74, 0
4, 74393, Note_on_c, 1, 70, 0
4, 74592, Note_on_c, 1, 63, 70
4, 74592, Note_on_c, 1, 57, 70
4, 74681, Note_on_c, 1, 63, 0
4, 74681, Note_on_c, 1, 57, 0
4, 74736, Note_on_c, 1, 63, 70
4, 74736, Note_on_c, 1, 57, 70
4, 74781, Note_on_c, 1, 63, 0
4, 74781, Note_on_c, 1, 57, 0
4, 74784, Note_on_c, 1, 63, 70
4, 74784, Note_on_c, 1, 57, 70
4, 74829, Note_on_c, 1, 63, 0
4, 74829, Note_on_c, 1, 57, 0
4, 74832, Note_on_c, 1, 63, 70
4, 74832, Note_on_c, 1, 57, 70
4, 74877, Note_on_c, 1, 63, 0
4, 74877, Note_on_c, 1, 57, 0
4, 74880, Note_on_c, 1, 62, 70
4, 74880, Note_on_c, 1, 58, 70
4, 74969, Note_on_c, 1, 62, 0
4, 74969, Note_on_c, 1, 58, 0
4, 75168, Note_on_c, 1, 46, 75
4, 75168, Note_on_c, 1, 34, 75
4, 75257, Note_on_c, 1, 46, 0
4, 75257, Note_on_c, 1, 34, 0
4, 75312, Note_on_c, 1, 46, 75
4, 75357, Note_on_c, 1, 46, 0
4, 75360, Note_on_c, 1, 48, 75
4, 75405, Note_on_c, 1, 48, 0
4, 75408, Note_on_c, 1, 50, 75
4, 75453, Note_on_c, 1, 50, 0
4, 75456, Note_on_c, 1, 51, 75
4, 75495, Note_on_c, 1, 51, 0
4, 75552, Note_on_c, 1, 53, 75
4, 75591, Note_on_c, 1, 53, 0
4, 75648, Note_on_c, 1, 55, 75
4, 75687, Note_on_c, 1, 55, 0
4, 75744, Note_on_c, 1, 56, 75
4, 75833, Note_on_c, 1, 56, 0
4, 75840, Note_on_c, 1, 55, 75
4, 75929, Note_on_c, 1, 55, 0
4, 75936, Note_on_c, 1, 53, 75
4, 76025, Note_on_c, 1, 53, 0
4, 76032, Note_on_c, 1, 51, 75
4, 76071, Note_on_c, 1, 51, 0
4, 76128, Note_on_c, 1, 53, 75
4, 76167, Note_on_c, 1, 53, 0
4, 76224, Note_on_c, 1, 55, 75
4, 76263, Note_on_c, 1, 55, 0
4, 76320, Note_on_c, 1, 56, 75
4, 76340, Note_on_c, 1, 56, 0
4, 76368, Note_on_c, 1, 53, 75
4, 76388, Note_on_c, 1, 53, 0
4, 76416, Note_on_c, 1, 58, 75
4, 76436, Note_on_c, 1, 58, 0
4, 76464, Note_on_c, 1, 55, 75
4, 76484, Note_on_c, 1, 55, 0
4, 76512, Note_on_c, 1, 60, 75
4, 76532, Note_on_c, 1, 60, 0
4, 76560, Note_on_c, 1, 56, 75
4, 76580, Note_on_c, 1, 56, 0
4, 76608, Note_on_c, 1, 62, 75
4, 76697, Note_on_c, 1, 62, 0
4, 76752, Note_on_c, 1, 58, 75
4, 76797, Note_on_c, 1, 58, 0
4, 76800, Note_on_c, 1, 60, 75
4, 76845, Note_on_c, 1, 60, 0
4, 76848, Note_on_c, 1, 62, 75
4, 76893, Note_on_c, 1, 62, 0
4, 76896, Note_on_c, 1, 63, 75
4, 76935, Note_on_c, 1, 63, 0
4, 76992, Note_on_c, 1, 65, 75
4, 77031, Note_on_c, 1, 65, 0
4, 77088, Note_on_c, 1, 67, 75
4, 77127, Note_on_c, 1, 67, 0
4, 77184, Note_on_c, 1, 63, 75
4, 77273, Note_on_c, 1, 63, 0
4, 77280, Note_on_c, 1, 63, 75
4, 77369, Note_on_c, 1, 63, 0
4, 77376, Note_on_c, 1, 62, 75
4, 77465, Note_on_c, 1, 62, 0
4, 77472, Note_on_c, 1, 63, 75
4, 77561, Note_on_c, 1, 63, 0
4, 77760, Note_on_c, 1, 51, 64
4, 78025, Note_on_c, 1, 51, 0
4, 78048, Note_on_c, 1, 51, 64
4, 78048, Note_on_c, 1, 39, 64
4, 78225, Note_on_c, 1, 51, 0
4, 78225, Note_on_c, 1, 39, 0
4, 78240, Control_c, 1, 64, 127
4, 78240, Note_on_c, 1, 39, 64
4, 78249, Note_on_c, 1, 43, 64
4, 78258, Note_on_c, 1, 46, 64
4, 78267, Note_on_c, 1, 51, 64
4, 78513, Note_on_c, 1, 51, 0
4, 78513, Note_on_c, 1, 46, 0
4, 78513, Note_on_c, 1, 43, 0
4, 78513, Note_on_c, 1, 39, 0
4, 78528, Control_c, 1, 64, 0
4, 78528, Note_on_c, 1, 39, 0
4, 78617, Note_on_c, 1, 39, 0
4, 78624, End_track
5, 0, Start_track
5, 0, Program_c, 1, 0
5, 0, Control_c, 1, 7, 127
5, 0, Control_c, 1, 10, 64
5, 5184, Note_on_c, 1, 65, 64
5, 5361, Note_on_c, 1, 65, 0
5, 11520, Note_on_c, 1, 51, 64
5, 11609, Note_on_c, 1, 51, 0
5, 11616, Note_on_c, 1, 53, 64
5, 11793, Note_on_c, 1, 53, 0
5, 12960, Note_on_c, 1, 51, 64
5, 13049, Note_on_c, 1, 51, 0
5, 13056, Note_on_c, 1, 53, 64
5, 13233, Note_on_c, 1, 53, 0
5, 13536, Note_on_c, 1, 46, 64
5, 13801, Note_on_c, 1, 46, 0
5, 13824, Note_on_c, 1, 48, 64
5, 14016, Note_on_c, 1, 48, 0
5, 14016, Note_on_c, 1, 46, 64
5, 14016, Note_on_c, 1, 34, 64
5, 14089, Note_on_c, 1, 46, 0
5, 14089, Note_on_c, 1, 34, 0
5, 19296, Note_on_c, 1, 65, 64
5, 19473, Note_on_c, 1, 65, 0
5, 25632, Note_on_c, 1, 51, 64
5, 25721, Note_on_c, 1, 51, 0
5, 25728, Note_on_c, 1, 53, 64
5, 25905, Note_on_c, 1, 53, 0
5, 27072, Note_on_c, 1, 51, 64
5, 27161, Note_on_c, 1, 51, 0
5, 27168, Note_on_c, 1, 53, 64
5, 27345, Note_on_c, 1, 53, 0
5, 27648, Note_on_c, 1, 46, 64
5, 27913, Note_on_c, 1, 46, 0
5, 27936, Note_on_c, 1, 48, 64
5, 28128, Note_on_c, 1, 48, 0
5, 28128, Note_on_c, 1, 46, 64
5, 28128, Note_on_c, 1, 34, 64
5, 28201, Note_on_c, 1, 46, 0
5, 28201, Note_on_c, 1, 34, 0
5, 44352, Note_on_c, 1, 58, 64
5, 44529, Note_on_c, 1, 58, 0
5, 50688, Note_on_c, 1, 44, 64
5, 50777, Note_on_c, 1, 44, 0
5, 50784, Note_on_c, 1, 46, 64
5, 50961, Note_on_c, 1, 46, 0
5, 52128, Note_on_c, 1, 56, 64
5, 52217, Note_on_c, 1, 56, 0
5, 52224, Note_on_c, 1, 58, 64
5, 52313, Note_on_c, 1, 58, 0
5, 52320, Note_on_c, 1, 58, 64
5, 52409, Note_on_c, 1, 58, 0
5, 52992, Note_on_c, 1, 51, 64
5, 52992, Note_on_c, 1, 39, 64
5, 53257, Note_on_c, 1, 51, 0
5, 53257, Note_on_c, 1, 39, 0
5, 69408, Note_on_c, 1, 58, 64
5, 69585, Note_on_c, 1, 58, 0
5, 75744, Note_on_c, 1, 44, 64
5, 75833, Note_on_c, 1, 44, 0
5, 75840, Note_on_c, 1, 46, 64
5, 76017, Note_on_c, 1, 46, 0
5, 77184, Note_on_c, 1, 56, 64
5, 77273, Note_on_c, 1, 56, 0
5, 77280, Note_on_c, 1, 58, 64
5, 77369, Note_on_c, 1, 58, 0
5, 77376, Note_on_c, 1, 58, 64
5, 77465, Note_on_c, 1, 58, 0
5, 78624, End_track
6, 0, Start_track
6, 0, Title_t, "Sonata III   <composer>  "
6, 0, End_track
0, 0, End_of_file
