0, 0, Header, 1, 6, 96
1, 0, Start_track
1, 0, Copyright_t, "Copyright  2000 <copyright holder>"
1, 0, Text_t, "Sonata I\015\012"
1, 0, Text_t, "Haydn\015\012"
1, 0, Sequencer_specific, 16, 68, 87, 77, 90, 86, 82, 83, 78, 32, 55, 46, 49, 46, 51, 46, 48
1, 0, Time_signature, 4, 2, 24, 8
1, 0, Tempo, 100000
1, 0, Key_signature, 1, "major"
1, 336, Tempo, 480000
1, 2640, Tempo, 480000
1, 7872, Tempo, 545454
1, 8016, Tempo, 480000
1, 12576, Tempo, 500000
1, 12672, Tempo, 545454
1, 12768, Tempo, 600000
1, 12864, Tempo, 750000
1, 13008, Tempo, 480000
1, 14208, Tempo, 500000
1, 14592, Tempo, 545454
1, 14880, Tempo, 600000
1, 14928, Tempo, 480000
1, 17856, Tempo, 1000000
1, 18000, Tempo, 480000
1, 18432, Tempo, 600000
1, 18528, Tempo, 705882
1, 18720, Tempo, 480000
1, 20736, Tempo, 545454
1, 20928, Tempo, 1000000
1, 21072, Tempo, 480000
1, 22272, Tempo, 600000
1, 22656, End_track
2, 0, Start_track
2, 0, Program_c, 0, 0
2, 0, Control_c, 0, 7, 127
2, 0, Control_c, 0, 10, 64
2, 336, Note_on_c, 0, 71, 75
2, 381, Note_on_c, 0, 71, 0
2, 384, Note_on_c, 0, 76, 91
2, 432, Note_on_c, 0, 76, 0
2, 432, Note_on_c, 0, 79, 75
2, 477, Note_on_c, 0, 79, 0
2, 480, Note_on_c, 0, 78, 75
2, 525, Note_on_c, 0, 78, 0
2, 528, Note_on_c, 0, 76, 75
2, 573, Note_on_c, 0, 76, 0
2, 576, Note_on_c, 0, 75, 75
2, 621, Note_on_c, 0, 75, 0
2, 624, Note_on_c, 0, 84, 75
2, 669, Note_on_c, 0, 84, 0
2, 672, Note_on_c, 0, 83, 75
2, 717, Note_on_c, 0, 83, 0
2, 720, Note_on_c, 0, 81, 75
2, 765, Note_on_c, 0, 81, 0
2, 768, Note_on_c, 0, 81, 91
2, 792, Note_on_c, 0, 81, 0
2, 792, Note_on_c, 0, 79, 75
2, 815, Note_on_c, 0, 79, 0
2, 816, Note_on_c, 0, 78, 75
2, 839, Note_on_c, 0, 78, 0
2, 840, Note_on_c, 0, 76, 75
2, 863, Note_on_c, 0, 76, 0
2, 864, Note_on_c, 0, 75, 75
2, 884, Note_on_c, 0, 75, 0
2, 912, Note_on_c, 0, 76, 75
2, 932, Note_on_c, 0, 76, 0
2, 960, Note_on_c, 0, 78, 75
2, 983, Note_on_c, 0, 78, 0
2, 984, Note_on_c, 0, 76, 75
2, 1007, Note_on_c, 0, 76, 0
2, 1008, Note_on_c, 0, 75, 75
2, 1031, Note_on_c, 0, 75, 0
2, 1032, Note_on_c, 0, 73, 75
2, 1055, Note_on_c, 0, 73, 0
2, 1056, Note_on_c, 0, 71, 75
2, 1101, Note_on_c, 0, 71, 0
2, 1104, Note_on_c, 0, 79, 91
2, 1197, Note_on_c, 0, 79, 0
2, 1200, Note_on_c, 0, 69, 75
2, 1289, Note_on_c, 0, 69, 0
2, 1296, Note_on_c, 0, 77, 91
2, 1392, Note_on_c, 0, 77, 0
2, 1392, Note_on_c, 0, 67, 75
2, 1481, Note_on_c, 0, 67, 0
2, 1488, Note_on_c, 0, 76, 91
2, 1536, Note_on_c, 0, 76, 0
2, 1536, Note_on_c, 0, 75, 75
2, 1560, Note_on_c, 0, 75, 0
2, 1560, Note_on_c, 0, 76, 75
2, 1583, Note_on_c, 0, 76, 0
2, 1584, Note_on_c, 0, 75, 75
2, 1608, Note_on_c, 0, 75, 0
2, 1608, Note_on_c, 0, 76, 75
2, 1631, Note_on_c, 0, 76, 0
2, 1632, Note_on_c, 0, 81, 75
2, 1632, Note_on_c, 0, 78, 75
2, 1652, Note_on_c, 0, 81, 0
2, 1652, Note_on_c, 0, 78, 0
2, 1680, Note_on_c, 0, 79, 75
2, 1680, Note_on_c, 0, 76, 75
2, 1700, Note_on_c, 0, 79, 0
2, 1700, Note_on_c, 0, 76, 0
2, 1728, Note_on_c, 0, 79, 91
2, 1728, Note_on_c, 0, 76, 91
2, 1824, Note_on_c, 0, 79, 0
2, 1824, Note_on_c, 0, 76, 0
2, 1824, Note_on_c, 0, 78, 75
2, 1824, Note_on_c, 0, 75, 75
2, 1844, Note_on_c, 0, 78, 0
2, 1844, Note_on_c, 0, 75, 0
2, 1872, Note_on_c, 0, 71, 75
2, 1917, Note_on_c, 0, 71, 0
2, 1920, Note_on_c, 0, 76, 91
2, 1968, Note_on_c, 0, 76, 0
2, 1968, Note_on_c, 0, 79, 75
2, 2013, Note_on_c, 0, 79, 0
2, 2016, Note_on_c, 0, 78, 75
2, 2061, Note_on_c, 0, 78, 0
2, 2064, Note_on_c, 0, 76, 75
2, 2109, Note_on_c, 0, 76, 0
2, 2112, Note_on_c, 0, 75, 75
2, 2157, Note_on_c, 0, 75, 0
2, 2160, Note_on_c, 0, 84, 75
2, 2205, Note_on_c, 0, 84, 0
2, 2208, Note_on_c, 0, 83, 75
2, 2253, Note_on_c, 0, 83, 0
2, 2256, Note_on_c, 0, 79, 75
2, 2301, Note_on_c, 0, 79, 0
2, 2304, Note_on_c, 0, 81, 75
2, 2304, Note_on_c, 0, 72, 75
2, 2343, Note_on_c, 0, 81, 0
2, 2343, Note_on_c, 0, 72, 0
2, 2400, Note_on_c, 0, 78, 77
2, 2400, Note_on_c, 0, 72, 77
2, 2439, Note_on_c, 0, 78, 0
2, 2439, Note_on_c, 0, 72, 0
2, 2496, Note_on_c, 0, 79, 80
2, 2496, Note_on_c, 0, 71, 80
2, 2585, Note_on_c, 0, 79, 0
2, 2585, Note_on_c, 0, 71, 0
2, 2640, Note_on_c, 0, 71, 75
2, 2685, Note_on_c, 0, 71, 0
2, 2688, Note_on_c, 0, 76, 91
2, 2736, Note_on_c, 0, 76, 0
2, 2736, Note_on_c, 0, 79, 75
2, 2781, Note_on_c, 0, 79, 0
2, 2784, Note_on_c, 0, 78, 75
2, 2829, Note_on_c, 0, 78, 0
2, 2832, Note_on_c, 0, 76, 75
2, 2877, Note_on_c, 0, 76, 0
2, 2880, Note_on_c, 0, 75, 75
2, 2925, Note_on_c, 0, 75, 0
2, 2928, Note_on_c, 0, 84, 75
2, 2973, Note_on_c, 0, 84, 0
2, 2976, Note_on_c, 0, 83, 75
2, 3021, Note_on_c, 0, 83, 0
2, 3024, Note_on_c, 0, 81, 75
2, 3069, Note_on_c, 0, 81, 0
2, 3072, Note_on_c, 0, 81, 91
2, 3096, Note_on_c, 0, 81, 0
2, 3096, Note_on_c, 0, 79, 75
2, 3119, Note_on_c, 0, 79, 0
2, 3120, Note_on_c, 0, 78, 75
2, 3143, Note_on_c, 0, 78, 0
2, 3144, Note_on_c, 0, 76, 75
2, 3167, Note_on_c, 0, 76, 0
2, 3168, Note_on_c, 0, 75, 75
2, 3188, Note_on_c, 0, 75, 0
2, 3216, Note_on_c, 0, 76, 75
2, 3236, Note_on_c, 0, 76, 0
2, 3264, Note_on_c, 0, 78, 75
2, 3287, Note_on_c, 0, 78, 0
2, 3288, Note_on_c, 0, 76, 75
2, 3311, Note_on_c, 0, 76, 0
2, 3312, Note_on_c, 0, 75, 75
2, 3335, Note_on_c, 0, 75, 0
2, 3336, Note_on_c, 0, 73, 75
2, 3359, Note_on_c, 0, 73, 0
2, 3360, Note_on_c, 0, 71, 75
2, 3405, Note_on_c, 0, 71, 0
2, 3408, Note_on_c, 0, 79, 91
2, 3501, Note_on_c, 0, 79, 0
2, 3504, Note_on_c, 0, 69, 75
2, 3593, Note_on_c, 0, 69, 0
2, 3600, Note_on_c, 0, 77, 91
2, 3696, Note_on_c, 0, 77, 0
2, 3696, Note_on_c, 0, 67, 75
2, 3785, Note_on_c, 0, 67, 0
2, 3792, Note_on_c, 0, 76, 91
2, 3840, Note_on_c, 0, 76, 0
2, 3840, Note_on_c, 0, 75, 75
2, 3864, Note_on_c, 0, 75, 0
2, 3864, Note_on_c, 0, 76, 75
2, 3887, Note_on_c, 0, 76, 0
2, 3888, Note_on_c, 0, 75, 75
2, 3912, Note_on_c, 0, 75, 0
2, 3912, Note_on_c, 0, 76, 75
2, 3935, Note_on_c, 0, 76, 0
2, 3936, Note_on_c, 0, 81, 75
2, 3936, Note_on_c, 0, 78, 75
2, 3956, Note_on_c, 0, 81, 0
2, 3956, Note_on_c, 0, 78, 0
2, 3984, Note_on_c, 0, 79, 75
2, 3984, Note_on_c, 0, 76, 75
2, 4004, Note_on_c, 0, 79, 0
2, 4004, Note_on_c, 0, 76, 0
2, 4032, Note_on_c, 0, 79, 91
2, 4032, Note_on_c, 0, 76, 91
2, 4128, Note_on_c, 0, 79, 0
2, 4128, Note_on_c, 0, 76, 0
2, 4128, Note_on_c, 0, 78, 75
2, 4128, Note_on_c, 0, 75, 75
2, 4148, Note_on_c, 0, 78, 0
2, 4148, Note_on_c, 0, 75, 0
2, 4176, Note_on_c, 0, 71, 75
2, 4221, Note_on_c, 0, 71, 0
2, 4224, Note_on_c, 0, 76, 91
2, 4272, Note_on_c, 0, 76, 0
2, 4272, Note_on_c, 0, 79, 75
2, 4317, Note_on_c, 0, 79, 0
2, 4320, Note_on_c, 0, 78, 75
2, 4365, Note_on_c, 0, 78, 0
2, 4368, Note_on_c, 0, 76, 75
2, 4413, Note_on_c, 0, 76, 0
2, 4416, Note_on_c, 0, 75, 75
2, 4461, Note_on_c, 0, 75, 0
2, 4464, Note_on_c, 0, 84, 75
2, 4509, Note_on_c, 0, 84, 0
2, 4512, Note_on_c, 0, 83, 75
2, 4557, Note_on_c, 0, 83, 0
2, 4560, Note_on_c, 0, 79, 75
2, 4605, Note_on_c, 0, 79, 0
2, 4608, Note_on_c, 0, 81, 75
2, 4608, Note_on_c, 0, 72, 75
2, 4647, Note_on_c, 0, 81, 0
2, 4647, Note_on_c, 0, 72, 0
2, 4704, Note_on_c, 0, 78, 77
2, 4704, Note_on_c, 0, 72, 77
2, 4743, Note_on_c, 0, 78, 0
2, 4743, Note_on_c, 0, 72, 0
2, 4800, Note_on_c, 0, 79, 80
2, 4800, Note_on_c, 0, 71, 80
2, 4889, Note_on_c, 0, 79, 0
2, 4889, Note_on_c, 0, 71, 0
2, 4944, Note_on_c, 0, 74, 80
2, 4989, Note_on_c, 0, 74, 0
2, 4992, Note_on_c, 0, 64, 80
2, 5015, Note_on_c, 0, 64, 0
2, 5016, Note_on_c, 0, 68, 80
2, 5039, Note_on_c, 0, 68, 0
2, 5040, Note_on_c, 0, 71, 80
2, 5063, Note_on_c, 0, 71, 0
2, 5064, Note_on_c, 0, 74, 80
2, 5087, Note_on_c, 0, 74, 0
2, 5088, Note_on_c, 0, 64, 80
2, 5111, Note_on_c, 0, 64, 0
2, 5112, Note_on_c, 0, 68, 80
2, 5135, Note_on_c, 0, 68, 0
2, 5136, Note_on_c, 0, 71, 80
2, 5159, Note_on_c, 0, 71, 0
2, 5160, Note_on_c, 0, 74, 80
2, 5183, Note_on_c, 0, 74, 0
2, 5184, Note_on_c, 0, 72, 80
2, 5184, Note_on_c, 0, 71, 80
2, 5232, Note_on_c, 0, 72, 0
2, 5232, Note_on_c, 0, 71, 0
2, 5232, Note_on_c, 0, 69, 80
2, 5232, Note_on_c, 0, 64, 80
2, 5277, Note_on_c, 0, 69, 0
2, 5277, Note_on_c, 0, 64, 0
2, 5328, Note_on_c, 0, 72, 80
2, 5373, Note_on_c, 0, 72, 0
2, 5376, Note_on_c, 0, 62, 80
2, 5399, Note_on_c, 0, 62, 0
2, 5400, Note_on_c, 0, 66, 80
2, 5423, Note_on_c, 0, 66, 0
2, 5424, Note_on_c, 0, 69, 80
2, 5447, Note_on_c, 0, 69, 0
2, 5448, Note_on_c, 0, 72, 80
2, 5471, Note_on_c, 0, 72, 0
2, 5472, Note_on_c, 0, 62, 80
2, 5495, Note_on_c, 0, 62, 0
2, 5496, Note_on_c, 0, 66, 80
2, 5519, Note_on_c, 0, 66, 0
2, 5520, Note_on_c, 0, 69, 80
2, 5543, Note_on_c, 0, 69, 0
2, 5544, Note_on_c, 0, 72, 80
2, 5567, Note_on_c, 0, 72, 0
2, 5568, Note_on_c, 0, 71, 80
2, 5568, Note_on_c, 0, 67, 80
2, 5613, Note_on_c, 0, 71, 0
2, 5613, Note_on_c, 0, 67, 0
2, 5616, Note_on_c, 0, 67, 80
2, 5616, Note_on_c, 0, 62, 80
2, 5661, Note_on_c, 0, 67, 0
2, 5661, Note_on_c, 0, 62, 0
2, 5712, Note_on_c, 0, 79, 80
2, 5757, Note_on_c, 0, 79, 0
2, 5760, Note_on_c, 0, 77, 80
2, 5783, Note_on_c, 0, 77, 0
2, 5784, Note_on_c, 0, 81, 80
2, 5807, Note_on_c, 0, 81, 0
2, 5808, Note_on_c, 0, 84, 80
2, 5831, Note_on_c, 0, 84, 0
2, 5832, Note_on_c, 0, 89, 80
2, 5855, Note_on_c, 0, 89, 0
2, 5856, Note_on_c, 0, 77, 80
2, 5879, Note_on_c, 0, 77, 0
2, 5880, Note_on_c, 0, 81, 80
2, 5903, Note_on_c, 0, 81, 0
2, 5904, Note_on_c, 0, 84, 80
2, 5927, Note_on_c, 0, 84, 0
2, 5928, Note_on_c, 0, 89, 80
2, 5951, Note_on_c, 0, 89, 0
2, 5952, Note_on_c, 0, 87, 80
2, 5952, Note_on_c, 0, 75, 80
2, 5972, Note_on_c, 0, 87, 0
2, 5972, Note_on_c, 0, 75, 0
2, 6000, Note_on_c, 0, 88, 80
2, 6000, Note_on_c, 0, 76, 80
2, 6020, Note_on_c, 0, 88, 0
2, 6020, Note_on_c, 0, 76, 0
2, 6096, Note_on_c, 0, 83, 80
2, 6108, Note_on_c, 0, 83, 0
2, 6108, Note_on_c, 0, 84, 80
2, 6120, Note_on_c, 0, 84, 0
2, 6120, Note_on_c, 0, 83, 80
2, 6144, Note_on_c, 0, 83, 0
2, 6144, Note_on_c, 0, 84, 80
2, 6164, Note_on_c, 0, 84, 0
2, 6192, Note_on_c, 0, 82, 80
2, 6204, Note_on_c, 0, 82, 0
2, 6204, Note_on_c, 0, 83, 80
2, 6216, Note_on_c, 0, 83, 0
2, 6216, Note_on_c, 0, 82, 80
2, 6240, Note_on_c, 0, 82, 0
2, 6240, Note_on_c, 0, 83, 80
2, 6260, Note_on_c, 0, 83, 0
2, 6288, Note_on_c, 0, 83, 80
2, 6336, Note_on_c, 0, 83, 0
2, 6336, Note_on_c, 0, 76, 80
2, 6336, Note_on_c, 0, 64, 80
2, 6356, Note_on_c, 0, 76, 0
2, 6356, Note_on_c, 0, 64, 0
2, 6480, Note_on_c, 0, 71, 75
2, 6480, Note_on_c, 0, 68, 75
2, 6504, Note_on_c, 0, 71, 0
2, 6504, Note_on_c, 0, 68, 0
2, 6504, Note_on_c, 0, 72, 75
2, 6504, Note_on_c, 0, 69, 75
2, 6527, Note_on_c, 0, 72, 0
2, 6527, Note_on_c, 0, 69, 0
2, 6528, Note_on_c, 0, 74, 75
2, 6528, Note_on_c, 0, 71, 75
2, 6548, Note_on_c, 0, 74, 0
2, 6548, Note_on_c, 0, 71, 0
2, 6576, Note_on_c, 0, 74, 91
2, 6576, Note_on_c, 0, 71, 91
2, 6672, Note_on_c, 0, 74, 0
2, 6672, Note_on_c, 0, 71, 0
2, 6672, Note_on_c, 0, 72, 75
2, 6672, Note_on_c, 0, 69, 75
2, 6696, Note_on_c, 0, 72, 0
2, 6696, Note_on_c, 0, 69, 0
2, 6696, Note_on_c, 0, 71, 75
2, 6696, Note_on_c, 0, 68, 75
2, 6719, Note_on_c, 0, 71, 0
2, 6719, Note_on_c, 0, 68, 0
2, 6720, Note_on_c, 0, 71, 91
2, 6720, Note_on_c, 0, 68, 91
2, 6768, Note_on_c, 0, 71, 0
2, 6768, Note_on_c, 0, 68, 0
2, 6768, Note_on_c, 0, 72, 75
2, 6768, Note_on_c, 0, 69, 75
2, 6857, Note_on_c, 0, 72, 0
2, 6857, Note_on_c, 0, 69, 0
2, 6864, Note_on_c, 0, 69, 75
2, 6864, Note_on_c, 0, 66, 75
2, 6888, Note_on_c, 0, 69, 0
2, 6888, Note_on_c, 0, 66, 0
2, 6888, Note_on_c, 0, 71, 75
2, 6888, Note_on_c, 0, 67, 75
2, 6911, Note_on_c, 0, 71, 0
2, 6911, Note_on_c, 0, 67, 0
2, 6912, Note_on_c, 0, 72, 75
2, 6912, Note_on_c, 0, 69, 75
2, 6932, Note_on_c, 0, 72, 0
2, 6932, Note_on_c, 0, 69, 0
2, 6960, Note_on_c, 0, 72, 91
2, 6960, Note_on_c, 0, 69, 91
2, 7056, Note_on_c, 0, 72, 0
2, 7056, Note_on_c, 0, 69, 0
2, 7056, Note_on_c, 0, 71, 75
2, 7056, Note_on_c, 0, 67, 75
2, 7080, Note_on_c, 0, 71, 0
2, 7080, Note_on_c, 0, 67, 0
2, 7080, Note_on_c, 0, 69, 75
2, 7080, Note_on_c, 0, 66, 75
2, 7103, Note_on_c, 0, 69, 0
2, 7103, Note_on_c, 0, 66, 0
2, 7104, Note_on_c, 0, 69, 91
2, 7104, Note_on_c, 0, 66, 91
2, 7152, Note_on_c, 0, 69, 0
2, 7152, Note_on_c, 0, 66, 0
2, 7152, Note_on_c, 0, 71, 75
2, 7152, Note_on_c, 0, 67, 75
2, 7241, Note_on_c, 0, 71, 0
2, 7241, Note_on_c, 0, 67, 0
2, 7248, Note_on_c, 0, 64, 80
2, 7293, Note_on_c, 0, 64, 0
2, 7296, Note_on_c, 0, 65, 96
2, 7344, Note_on_c, 0, 65, 0
2, 7344, Note_on_c, 0, 66, 80
2, 7389, Note_on_c, 0, 66, 0
2, 7392, Note_on_c, 0, 67, 80
2, 7437, Note_on_c, 0, 67, 0
2, 7440, Note_on_c, 0, 68, 80
2, 7485, Note_on_c, 0, 68, 0
2, 7488, Note_on_c, 0, 69, 80
2, 7508, Note_on_c, 0, 69, 0
2, 7536, Note_on_c, 0, 69, 80
2, 7548, Note_on_c, 0, 69, 0
2, 7548, Note_on_c, 0, 71, 80
2, 7560, Note_on_c, 0, 71, 0
2, 7560, Note_on_c, 0, 69, 80
2, 7625, Note_on_c, 0, 69, 0
2, 7632, Note_on_c, 0, 66, 80
2, 7677, Note_on_c, 0, 66, 0
2, 7680, Note_on_c, 0, 67, 96
2, 7728, Note_on_c, 0, 67, 0
2, 7728, Note_on_c, 0, 68, 80
2, 7740, Note_on_c, 0, 68, 0
2, 7740, Note_on_c, 0, 69, 80
2, 7752, Note_on_c, 0, 69, 0
2, 7752, Note_on_c, 0, 68, 80
2, 7773, Note_on_c, 0, 68, 0
2, 7776, Note_on_c, 0, 69, 80
2, 7821, Note_on_c, 0, 69, 0
2, 7824, Note_on_c, 0, 70, 80
2, 7869, Note_on_c, 0, 70, 0
2, 7872, Note_on_c, 0, 71, 80
2, 7961, Note_on_c, 0, 71, 0
2, 8016, Note_on_c, 0, 71, 75
2, 8061, Note_on_c, 0, 71, 0
2, 8064, Note_on_c, 0, 76, 91
2, 8112, Note_on_c, 0, 76, 0
2, 8112, Note_on_c, 0, 79, 75
2, 8157, Note_on_c, 0, 79, 0
2, 8160, Note_on_c, 0, 78, 75
2, 8205, Note_on_c, 0, 78, 0
2, 8208, Note_on_c, 0, 76, 75
2, 8253, Note_on_c, 0, 76, 0
2, 8256, Note_on_c, 0, 75, 75
2, 8301, Note_on_c, 0, 75, 0
2, 8304, Note_on_c, 0, 84, 75
2, 8349, Note_on_c, 0, 84, 0
2, 8352, Note_on_c, 0, 83, 75
2, 8397, Note_on_c, 0, 83, 0
2, 8400, Note_on_c, 0, 81, 75
2, 8445, Note_on_c, 0, 81, 0
2, 8448, Note_on_c, 0, 81, 91
2, 8472, Note_on_c, 0, 81, 0
2, 8472, Note_on_c, 0, 79, 75
2, 8495, Note_on_c, 0, 79, 0
2, 8496, Note_on_c, 0, 78, 75
2, 8519, Note_on_c, 0, 78, 0
2, 8520, Note_on_c, 0, 76, 75
2, 8543, Note_on_c, 0, 76, 0
2, 8544, Note_on_c, 0, 75, 75
2, 8564, Note_on_c, 0, 75, 0
2, 8592, Note_on_c, 0, 76, 75
2, 8612, Note_on_c, 0, 76, 0
2, 8640, Note_on_c, 0, 78, 75
2, 8663, Note_on_c, 0, 78, 0
2, 8664, Note_on_c, 0, 76, 75
2, 8687, Note_on_c, 0, 76, 0
2, 8688, Note_on_c, 0, 75, 75
2, 8711, Note_on_c, 0, 75, 0
2, 8712, Note_on_c, 0, 73, 75
2, 8735, Note_on_c, 0, 73, 0
2, 8736, Note_on_c, 0, 71, 75
2, 8781, Note_on_c, 0, 71, 0
2, 8784, Note_on_c, 0, 79, 91
2, 8877, Note_on_c, 0, 79, 0
2, 8880, Note_on_c, 0, 69, 75
2, 8969, Note_on_c, 0, 69, 0
2, 8976, Note_on_c, 0, 77, 91
2, 9072, Note_on_c, 0, 77, 0
2, 9072, Note_on_c, 0, 67, 75
2, 9161, Note_on_c, 0, 67, 0
2, 9168, Note_on_c, 0, 76, 91
2, 9216, Note_on_c, 0, 76, 0
2, 9216, Note_on_c, 0, 75, 75
2, 9240, Note_on_c, 0, 75, 0
2, 9240, Note_on_c, 0, 76, 75
2, 9263, Note_on_c, 0, 76, 0
2, 9264, Note_on_c, 0, 75, 75
2, 9288, Note_on_c, 0, 75, 0
2, 9288, Note_on_c, 0, 76, 75
2, 9311, Note_on_c, 0, 76, 0
2, 9312, Note_on_c, 0, 81, 75
2, 9312, Note_on_c, 0, 78, 75
2, 9332, Note_on_c, 0, 81, 0
2, 9332, Note_on_c, 0, 78, 0
2, 9360, Note_on_c, 0, 79, 75
2, 9360, Note_on_c, 0, 76, 75
2, 9380, Note_on_c, 0, 79, 0
2, 9380, Note_on_c, 0, 76, 0
2, 9408, Note_on_c, 0, 79, 91
2, 9408, Note_on_c, 0, 76, 91
2, 9504, Note_on_c, 0, 79, 0
2, 9504, Note_on_c, 0, 76, 0
2, 9504, Note_on_c, 0, 78, 75
2, 9504, Note_on_c, 0, 75, 75
2, 9524, Note_on_c, 0, 78, 0
2, 9524, Note_on_c, 0, 75, 0
2, 9552, Note_on_c, 0, 71, 75
2, 9597, Note_on_c, 0, 71, 0
2, 9600, Note_on_c, 0, 76, 91
2, 9648, Note_on_c, 0, 76, 0
2, 9648, Note_on_c, 0, 79, 75
2, 9693, Note_on_c, 0, 79, 0
2, 9696, Note_on_c, 0, 78, 75
2, 9741, Note_on_c, 0, 78, 0
2, 9744, Note_on_c, 0, 76, 75
2, 9789, Note_on_c, 0, 76, 0
2, 9792, Note_on_c, 0, 75, 75
2, 9837, Note_on_c, 0, 75, 0
2, 9840, Note_on_c, 0, 84, 75
2, 9885, Note_on_c, 0, 84, 0
2, 9888, Note_on_c, 0, 83, 75
2, 9933, Note_on_c, 0, 83, 0
2, 9936, Note_on_c, 0, 79, 75
2, 9981, Note_on_c, 0, 79, 0
2, 9984, Note_on_c, 0, 81, 75
2, 9984, Note_on_c, 0, 72, 75
2, 10023, Note_on_c, 0, 81, 0
2, 10023, Note_on_c, 0, 72, 0
2, 10080, Note_on_c, 0, 78, 76
2, 10080, Note_on_c, 0, 72, 76
2, 10119, Note_on_c, 0, 78, 0
2, 10119, Note_on_c, 0, 72, 0
2, 10176, Note_on_c, 0, 79, 78
2, 10176, Note_on_c, 0, 71, 78
2, 10265, Note_on_c, 0, 79, 0
2, 10265, Note_on_c, 0, 71, 0
2, 10320, Note_on_c, 0, 67, 80
2, 10365, Note_on_c, 0, 67, 0
2, 10368, Note_on_c, 0, 65, 80
2, 10391, Note_on_c, 0, 65, 0
2, 10392, Note_on_c, 0, 74, 80
2, 10415, Note_on_c, 0, 74, 0
2, 10416, Note_on_c, 0, 71, 80
2, 10439, Note_on_c, 0, 71, 0
2, 10440, Note_on_c, 0, 67, 80
2, 10463, Note_on_c, 0, 67, 0
2, 10464, Note_on_c, 0, 65, 80
2, 10487, Note_on_c, 0, 65, 0
2, 10488, Note_on_c, 0, 74, 80
2, 10511, Note_on_c, 0, 74, 0
2, 10512, Note_on_c, 0, 71, 80
2, 10535, Note_on_c, 0, 71, 0
2, 10536, Note_on_c, 0, 67, 80
2, 10559, Note_on_c, 0, 67, 0
2, 10560, Note_on_c, 0, 64, 80
2, 10583, Note_on_c, 0, 64, 0
2, 10584, Note_on_c, 0, 60, 80
2, 10607, Note_on_c, 0, 60, 0
2, 10608, Note_on_c, 0, 55, 80
2, 10631, Note_on_c, 0, 55, 0
2, 10632, Note_on_c, 0, 52, 80
2, 10655, Note_on_c, 0, 52, 0
2, 10752, Note_on_c, 0, 69, 80
2, 10775, Note_on_c, 0, 69, 0
2, 10776, Note_on_c, 0, 76, 80
2, 10799, Note_on_c, 0, 76, 0
2, 10800, Note_on_c, 0, 73, 80
2, 10823, Note_on_c, 0, 73, 0
2, 10824, Note_on_c, 0, 69, 80
2, 10847, Note_on_c, 0, 69, 0
2, 10848, Note_on_c, 0, 67, 80
2, 10871, Note_on_c, 0, 67, 0
2, 10872, Note_on_c, 0, 76, 80
2, 10895, Note_on_c, 0, 76, 0
2, 10896, Note_on_c, 0, 73, 80
2, 10919, Note_on_c, 0, 73, 0
2, 10920, Note_on_c, 0, 69, 80
2, 10943, Note_on_c, 0, 69, 0
2, 10944, Note_on_c, 0, 66, 80
2, 10967, Note_on_c, 0, 66, 0
2, 10968, Note_on_c, 0, 62, 80
2, 10991, Note_on_c, 0, 62, 0
2, 10992, Note_on_c, 0, 57, 80
2, 11015, Note_on_c, 0, 57, 0
2, 11016, Note_on_c, 0, 54, 80
2, 11039, Note_on_c, 0, 54, 0
2, 11088, Note_on_c, 0, 74, 80
2, 11088, Note_on_c, 0, 62, 80
2, 11108, Note_on_c, 0, 74, 0
2, 11108, Note_on_c, 0, 62, 0
2, 11136, Note_on_c, 0, 79, 80
2, 11136, Note_on_c, 0, 67, 80
2, 11156, Note_on_c, 0, 79, 0
2, 11156, Note_on_c, 0, 67, 0
2, 11184, Note_on_c, 0, 83, 80
2, 11184, Note_on_c, 0, 71, 80
2, 11204, Note_on_c, 0, 83, 0
2, 11204, Note_on_c, 0, 71, 0
2, 11232, Note_on_c, 0, 81, 80
2, 11232, Note_on_c, 0, 69, 80
2, 11252, Note_on_c, 0, 81, 0
2, 11252, Note_on_c, 0, 69, 0
2, 11280, Note_on_c, 0, 79, 80
2, 11280, Note_on_c, 0, 67, 80
2, 11300, Note_on_c, 0, 79, 0
2, 11300, Note_on_c, 0, 67, 0
2, 11328, Note_on_c, 0, 78, 80
2, 11328, Note_on_c, 0, 66, 80
2, 11348, Note_on_c, 0, 78, 0
2, 11348, Note_on_c, 0, 66, 0
2, 11376, Note_on_c, 0, 88, 80
2, 11376, Note_on_c, 0, 76, 80
2, 11396, Note_on_c, 0, 88, 0
2, 11396, Note_on_c, 0, 76, 0
2, 11424, Note_on_c, 0, 86, 80
2, 11424, Note_on_c, 0, 74, 80
2, 11444, Note_on_c, 0, 86, 0
2, 11444, Note_on_c, 0, 74, 0
2, 11472, Note_on_c, 0, 84, 80
2, 11472, Note_on_c, 0, 72, 80
2, 11492, Note_on_c, 0, 84, 0
2, 11492, Note_on_c, 0, 72, 0
2, 11520, Note_on_c, 0, 84, 80
2, 11520, Note_on_c, 0, 72, 80
2, 11543, Note_on_c, 0, 84, 0
2, 11543, Note_on_c, 0, 72, 0
2, 11544, Note_on_c, 0, 83, 80
2, 11544, Note_on_c, 0, 71, 80
2, 11567, Note_on_c, 0, 83, 0
2, 11567, Note_on_c, 0, 71, 0
2, 11568, Note_on_c, 0, 81, 80
2, 11568, Note_on_c, 0, 69, 80
2, 11591, Note_on_c, 0, 81, 0
2, 11591, Note_on_c, 0, 69, 0
2, 11592, Note_on_c, 0, 79, 80
2, 11592, Note_on_c, 0, 67, 80
2, 11615, Note_on_c, 0, 79, 0
2, 11615, Note_on_c, 0, 67, 0
2, 11616, Note_on_c, 0, 78, 80
2, 11616, Note_on_c, 0, 66, 80
2, 11636, Note_on_c, 0, 78, 0
2, 11636, Note_on_c, 0, 66, 0
2, 11664, Note_on_c, 0, 79, 80
2, 11664, Note_on_c, 0, 67, 80
2, 11684, Note_on_c, 0, 79, 0
2, 11684, Note_on_c, 0, 67, 0
2, 11712, Note_on_c, 0, 81, 80
2, 11712, Note_on_c, 0, 69, 80
2, 11735, Note_on_c, 0, 81, 0
2, 11735, Note_on_c, 0, 69, 0
2, 11736, Note_on_c, 0, 79, 80
2, 11736, Note_on_c, 0, 67, 80
2, 11759, Note_on_c, 0, 79, 0
2, 11759, Note_on_c, 0, 67, 0
2, 11760, Note_on_c, 0, 78, 80
2, 11760, Note_on_c, 0, 66, 80
2, 11783, Note_on_c, 0, 78, 0
2, 11783, Note_on_c, 0, 66, 0
2, 11784, Note_on_c, 0, 76, 80
2, 11784, Note_on_c, 0, 64, 80
2, 11807, Note_on_c, 0, 76, 0
2, 11807, Note_on_c, 0, 64, 0
2, 11808, Note_on_c, 0, 74, 80
2, 11808, Note_on_c, 0, 62, 80
2, 11828, Note_on_c, 0, 74, 0
2, 11828, Note_on_c, 0, 62, 0
2, 11856, Note_on_c, 0, 62, 75
2, 11901, Note_on_c, 0, 62, 0
2, 11904, Note_on_c, 0, 67, 75
2, 11949, Note_on_c, 0, 67, 0
2, 11952, Note_on_c, 0, 71, 75
2, 11997, Note_on_c, 0, 71, 0
2, 12000, Note_on_c, 0, 69, 75
2, 12045, Note_on_c, 0, 69, 0
2, 12048, Note_on_c, 0, 67, 75
2, 12093, Note_on_c, 0, 67, 0
2, 12096, Note_on_c, 0, 66, 75
2, 12141, Note_on_c, 0, 66, 0
2, 12144, Note_on_c, 0, 72, 75
2, 12189, Note_on_c, 0, 72, 0
2, 12192, Note_on_c, 0, 71, 75
2, 12237, Note_on_c, 0, 71, 0
2, 12240, Note_on_c, 0, 69, 75
2, 12285, Note_on_c, 0, 69, 0
2, 12288, Note_on_c, 0, 71, 75
2, 12308, Note_on_c, 0, 71, 0
2, 12336, Note_on_c, 0, 79, 91
2, 12432, Note_on_c, 0, 79, 0
2, 12432, Note_on_c, 0, 73, 75
2, 12477, Note_on_c, 0, 73, 0
2, 12480, Note_on_c, 0, 76, 75
2, 12486, Note_on_c, 0, 76, 0
2, 12486, Note_on_c, 0, 74, 75
2, 12503, Note_on_c, 0, 74, 0
2, 12504, Note_on_c, 0, 73, 75
2, 12527, Note_on_c, 0, 73, 0
2, 12528, Note_on_c, 0, 74, 75
2, 12551, Note_on_c, 0, 74, 0
2, 12552, Note_on_c, 0, 76, 75
2, 12575, Note_on_c, 0, 76, 0
2, 12576, Note_on_c, 0, 74, 75
2, 12621, Note_on_c, 0, 74, 0
2, 12624, Note_on_c, 0, 78, 74
2, 12630, Note_on_c, 0, 78, 0
2, 12630, Note_on_c, 0, 79, 74
2, 12636, Note_on_c, 0, 79, 0
2, 12636, Note_on_c, 0, 81, 90
2, 12672, Note_on_c, 0, 81, 0
2, 12672, Note_on_c, 0, 72, 73
2, 12717, Note_on_c, 0, 72, 0
2, 12720, Note_on_c, 0, 78, 73
2, 12726, Note_on_c, 0, 78, 0
2, 12726, Note_on_c, 0, 79, 73
2, 12732, Note_on_c, 0, 79, 0
2, 12732, Note_on_c, 0, 81, 89
2, 12768, Note_on_c, 0, 81, 0
2, 12768, Note_on_c, 0, 72, 72
2, 12813, Note_on_c, 0, 72, 0
2, 12816, Note_on_c, 0, 78, 71
2, 12822, Note_on_c, 0, 78, 0
2, 12822, Note_on_c, 0, 79, 71
2, 12828, Note_on_c, 0, 79, 0
2, 12828, Note_on_c, 0, 81, 87
2, 12864, Note_on_c, 0, 81, 0
2, 12864, Note_on_c, 0, 71, 71
2, 12953, Note_on_c, 0, 71, 0
2, 13008, Note_on_c, 0, 59, 75
2, 13053, Note_on_c, 0, 59, 0
2, 13056, Note_on_c, 0, 64, 75
2, 13101, Note_on_c, 0, 64, 0
2, 13104, Note_on_c, 0, 67, 75
2, 13149, Note_on_c, 0, 67, 0
2, 13152, Note_on_c, 0, 66, 75
2, 13197, Note_on_c, 0, 66, 0
2, 13200, Note_on_c, 0, 64, 75
2, 13245, Note_on_c, 0, 64, 0
2, 13248, Note_on_c, 0, 63, 75
2, 13293, Note_on_c, 0, 63, 0
2, 13296, Note_on_c, 0, 72, 75
2, 13341, Note_on_c, 0, 72, 0
2, 13344, Note_on_c, 0, 71, 75
2, 13389, Note_on_c, 0, 71, 0
2, 13392, Note_on_c, 0, 69, 75
2, 13437, Note_on_c, 0, 69, 0
2, 13440, Note_on_c, 0, 69, 91
2, 13464, Note_on_c, 0, 69, 0
2, 13464, Note_on_c, 0, 67, 75
2, 13487, Note_on_c, 0, 67, 0
2, 13488, Note_on_c, 0, 66, 75
2, 13511, Note_on_c, 0, 66, 0
2, 13512, Note_on_c, 0, 64, 75
2, 13535, Note_on_c, 0, 64, 0
2, 13536, Note_on_c, 0, 63, 75
2, 13556, Note_on_c, 0, 63, 0
2, 13584, Note_on_c, 0, 64, 75
2, 13604, Note_on_c, 0, 64, 0
2, 13632, Note_on_c, 0, 67, 75
2, 13632, Note_on_c, 0, 64, 75
2, 13728, Note_on_c, 0, 67, 0
2, 13728, Note_on_c, 0, 64, 0
2, 13728, Note_on_c, 0, 66, 75
2, 13728, Note_on_c, 0, 63, 75
2, 13748, Note_on_c, 0, 66, 0
2, 13748, Note_on_c, 0, 63, 0
2, 13776, Note_on_c, 0, 71, 75
2, 13821, Note_on_c, 0, 71, 0
2, 13824, Note_on_c, 0, 76, 91
2, 13872, Note_on_c, 0, 76, 0
2, 13872, Note_on_c, 0, 79, 75
2, 13917, Note_on_c, 0, 79, 0
2, 13920, Note_on_c, 0, 78, 75
2, 13965, Note_on_c, 0, 78, 0
2, 13968, Note_on_c, 0, 76, 75
2, 14013, Note_on_c, 0, 76, 0
2, 14016, Note_on_c, 0, 75, 75
2, 14061, Note_on_c, 0, 75, 0
2, 14064, Note_on_c, 0, 84, 75
2, 14109, Note_on_c, 0, 84, 0
2, 14112, Note_on_c, 0, 83, 75
2, 14157, Note_on_c, 0, 83, 0
2, 14160, Note_on_c, 0, 79, 75
2, 14205, Note_on_c, 0, 79, 0
2, 14208, Note_on_c, 0, 77, 75
2, 14208, Note_on_c, 0, 72, 75
2, 14247, Note_on_c, 0, 77, 0
2, 14247, Note_on_c, 0, 72, 0
2, 14304, Note_on_c, 0, 75, 75
2, 14304, Note_on_c, 0, 69, 75
2, 14343, Note_on_c, 0, 75, 0
2, 14343, Note_on_c, 0, 69, 0
2, 14400, Note_on_c, 0, 76, 75
2, 14400, Note_on_c, 0, 67, 75
2, 14489, Note_on_c, 0, 76, 0
2, 14489, Note_on_c, 0, 67, 0
2, 14544, Note_on_c, 0, 74, 75
2, 14544, Note_on_c, 0, 71, 75
2, 14589, Note_on_c, 0, 74, 0
2, 14589, Note_on_c, 0, 71, 0
2, 14592, Note_on_c, 0, 72, 75
2, 14592, Note_on_c, 0, 69, 75
2, 14631, Note_on_c, 0, 72, 0
2, 14631, Note_on_c, 0, 69, 0
2, 14688, Note_on_c, 0, 71, 75
2, 14688, Note_on_c, 0, 68, 75
2, 14727, Note_on_c, 0, 71, 0
2, 14727, Note_on_c, 0, 68, 0
2, 14784, Note_on_c, 0, 69, 75
2, 14784, Note_on_c, 0, 65, 75
2, 14873, Note_on_c, 0, 69, 0
2, 14873, Note_on_c, 0, 65, 0
2, 14928, Note_on_c, 0, 72, 91
2, 15021, Note_on_c, 0, 72, 0
2, 15024, Note_on_c, 0, 62, 75
2, 15113, Note_on_c, 0, 62, 0
2, 15120, Note_on_c, 0, 70, 91
2, 15216, Note_on_c, 0, 70, 0
2, 15216, Note_on_c, 0, 60, 75
2, 15305, Note_on_c, 0, 60, 0
2, 15312, Note_on_c, 0, 69, 91
2, 15383, Note_on_c, 0, 69, 0
2, 15384, Note_on_c, 0, 69, 75
2, 15407, Note_on_c, 0, 69, 0
2, 15408, Note_on_c, 0, 67, 75
2, 15431, Note_on_c, 0, 67, 0
2, 15432, Note_on_c, 0, 65, 75
2, 15455, Note_on_c, 0, 65, 0
2, 15456, Note_on_c, 0, 64, 75
2, 15476, Note_on_c, 0, 64, 0
2, 15504, Note_on_c, 0, 65, 75
2, 15524, Note_on_c, 0, 65, 0
2, 15552, Note_on_c, 0, 69, 75
2, 15552, Note_on_c, 0, 65, 75
2, 15648, Note_on_c, 0, 69, 0
2, 15648, Note_on_c, 0, 65, 0
2, 15648, Note_on_c, 0, 67, 75
2, 15648, Note_on_c, 0, 64, 75
2, 15693, Note_on_c, 0, 67, 0
2, 15693, Note_on_c, 0, 64, 0
2, 15696, Note_on_c, 0, 72, 80
2, 15719, Note_on_c, 0, 72, 0
2, 15720, Note_on_c, 0, 81, 80
2, 15743, Note_on_c, 0, 81, 0
2, 15744, Note_on_c, 0, 72, 80
2, 15767, Note_on_c, 0, 72, 0
2, 15768, Note_on_c, 0, 81, 80
2, 15791, Note_on_c, 0, 81, 0
2, 15792, Note_on_c, 0, 72, 80
2, 15815, Note_on_c, 0, 72, 0
2, 15816, Note_on_c, 0, 81, 80
2, 15839, Note_on_c, 0, 81, 0
2, 15840, Note_on_c, 0, 72, 80
2, 15863, Note_on_c, 0, 72, 0
2, 15864, Note_on_c, 0, 81, 80
2, 15887, Note_on_c, 0, 81, 0
2, 15888, Note_on_c, 0, 72, 80
2, 15911, Note_on_c, 0, 72, 0
2, 15912, Note_on_c, 0, 81, 80
2, 15935, Note_on_c, 0, 81, 0
2, 15936, Note_on_c, 0, 73, 80
2, 15959, Note_on_c, 0, 73, 0
2, 15960, Note_on_c, 0, 82, 80
2, 15983, Note_on_c, 0, 82, 0
2, 15984, Note_on_c, 0, 73, 80
2, 16007, Note_on_c, 0, 73, 0
2, 16008, Note_on_c, 0, 82, 80
2, 16031, Note_on_c, 0, 82, 0
2, 16032, Note_on_c, 0, 73, 80
2, 16055, Note_on_c, 0, 73, 0
2, 16056, Note_on_c, 0, 82, 80
2, 16079, Note_on_c, 0, 82, 0
2, 16080, Note_on_c, 0, 73, 80
2, 16103, Note_on_c, 0, 73, 0
2, 16104, Note_on_c, 0, 82, 80
2, 16127, Note_on_c, 0, 82, 0
2, 16128, Note_on_c, 0, 72, 80
2, 16151, Note_on_c, 0, 72, 0
2, 16152, Note_on_c, 0, 77, 80
2, 16175, Note_on_c, 0, 77, 0
2, 16176, Note_on_c, 0, 81, 80
2, 16199, Note_on_c, 0, 81, 0
2, 16200, Note_on_c, 0, 84, 80
2, 16223, Note_on_c, 0, 84, 0
2, 16224, Note_on_c, 0, 70, 80
2, 16247, Note_on_c, 0, 70, 0
2, 16248, Note_on_c, 0, 72, 80
2, 16271, Note_on_c, 0, 72, 0
2, 16272, Note_on_c, 0, 76, 80
2, 16295, Note_on_c, 0, 76, 0
2, 16296, Note_on_c, 0, 79, 80
2, 16319, Note_on_c, 0, 79, 0
2, 16320, Note_on_c, 0, 77, 80
2, 16343, Note_on_c, 0, 77, 0
2, 16344, Note_on_c, 0, 72, 80
2, 16367, Note_on_c, 0, 72, 0
2, 16368, Note_on_c, 0, 69, 80
2, 16391, Note_on_c, 0, 69, 0
2, 16392, Note_on_c, 0, 65, 80
2, 16439, Note_on_c, 0, 65, 0
2, 16464, Note_on_c, 0, 72, 86
2, 16512, Note_on_c, 0, 72, 0
2, 16512, Note_on_c, 0, 70, 70
2, 16601, Note_on_c, 0, 70, 0
2, 16656, Note_on_c, 0, 46, 87
2, 16704, Note_on_c, 0, 46, 0
2, 16704, Note_on_c, 0, 45, 71
2, 16793, Note_on_c, 0, 45, 0
2, 16848, Note_on_c, 0, 74, 88
2, 16896, Note_on_c, 0, 74, 0
2, 16896, Note_on_c, 0, 72, 72
2, 16985, Note_on_c, 0, 72, 0
2, 17040, Note_on_c, 0, 48, 89
2, 17088, Note_on_c, 0, 48, 0
2, 17088, Note_on_c, 0, 47, 74
2, 17177, Note_on_c, 0, 47, 0
2, 17232, Note_on_c, 0, 76, 91
2, 17280, Note_on_c, 0, 76, 0
2, 17280, Note_on_c, 0, 74, 75
2, 17369, Note_on_c, 0, 74, 0
2, 17424, Note_on_c, 0, 50, 92
2, 17472, Note_on_c, 0, 50, 0
2, 17472, Note_on_c, 0, 48, 76
2, 17561, Note_on_c, 0, 48, 0
2, 17616, Note_on_c, 0, 84, 93
2, 17709, Note_on_c, 0, 84, 0
2, 17712, Note_on_c, 0, 81, 78
2, 17801, Note_on_c, 0, 81, 0
2, 17808, Note_on_c, 0, 77, 79
2, 17853, Note_on_c, 0, 77, 0
2, 17856, Note_on_c, 0, 75, 79
2, 17856, Note_on_c, 0, 72, 79
2, 17856, Note_on_c, 0, 69, 79
2, 17856, Note_on_c, 0, 66, 79
2, 17945, Note_on_c, 0, 75, 0
2, 17945, Note_on_c, 0, 72, 0
2, 17945, Note_on_c, 0, 69, 0
2, 17945, Note_on_c, 0, 66, 0
2, 18000, Note_on_c, 0, 63, 75
2, 18012, Note_on_c, 0, 63, 0
2, 18012, Note_on_c, 0, 75, 75
2, 18045, Note_on_c, 0, 75, 0
2, 18048, Note_on_c, 0, 64, 75
2, 18060, Note_on_c, 0, 64, 0
2, 18060, Note_on_c, 0, 76, 75
2, 18093, Note_on_c, 0, 76, 0
2, 18096, Note_on_c, 0, 66, 76
2, 18108, Note_on_c, 0, 66, 0
2, 18108, Note_on_c, 0, 78, 76
2, 18141, Note_on_c, 0, 78, 0
2, 18144, Note_on_c, 0, 67, 76
2, 18156, Note_on_c, 0, 67, 0
2, 18156, Note_on_c, 0, 79, 76
2, 18189, Note_on_c, 0, 79, 0
2, 18192, Note_on_c, 0, 70, 77
2, 18204, Note_on_c, 0, 70, 0
2, 18204, Note_on_c, 0, 82, 77
2, 18237, Note_on_c, 0, 82, 0
2, 18240, Note_on_c, 0, 71, 78
2, 18252, Note_on_c, 0, 71, 0
2, 18252, Note_on_c, 0, 83, 78
2, 18285, Note_on_c, 0, 83, 0
2, 18288, Note_on_c, 0, 75, 78
2, 18300, Note_on_c, 0, 75, 0
2, 18300, Note_on_c, 0, 87, 78
2, 18333, Note_on_c, 0, 87, 0
2, 18336, Note_on_c, 0, 76, 79
2, 18348, Note_on_c, 0, 76, 0
2, 18348, Note_on_c, 0, 88, 79
2, 18381, Note_on_c, 0, 88, 0
2, 18384, Note_on_c, 0, 76, 80
2, 18390, Note_on_c, 0, 76, 0
2, 18390, Note_on_c, 0, 88, 80
2, 18429, Note_on_c, 0, 88, 0
2, 18432, Note_on_c, 0, 77, 74
2, 18444, Note_on_c, 0, 77, 0
2, 18444, Note_on_c, 0, 89, 74
2, 18471, Note_on_c, 0, 89, 0
2, 18528, Note_on_c, 0, 75, 64
2, 18540, Note_on_c, 0, 75, 0
2, 18540, Note_on_c, 0, 87, 64
2, 18567, Note_on_c, 0, 87, 0
2, 18768, Note_on_c, 0, 59, 75
2, 18813, Note_on_c, 0, 59, 0
2, 18816, Note_on_c, 0, 64, 91
2, 18864, Note_on_c, 0, 64, 0
2, 18864, Note_on_c, 0, 67, 75
2, 18909, Note_on_c, 0, 67, 0
2, 18912, Note_on_c, 0, 66, 75
2, 18957, Note_on_c, 0, 66, 0
2, 18960, Note_on_c, 0, 64, 75
2, 19005, Note_on_c, 0, 64, 0
2, 19008, Note_on_c, 0, 63, 75
2, 19053, Note_on_c, 0, 63, 0
2, 19056, Note_on_c, 0, 72, 75
2, 19101, Note_on_c, 0, 72, 0
2, 19104, Note_on_c, 0, 71, 75
2, 19149, Note_on_c, 0, 71, 0
2, 19152, Note_on_c, 0, 81, 75
2, 19197, Note_on_c, 0, 81, 0
2, 19200, Note_on_c, 0, 81, 91
2, 19224, Note_on_c, 0, 81, 0
2, 19224, Note_on_c, 0, 79, 75
2, 19247, Note_on_c, 0, 79, 0
2, 19248, Note_on_c, 0, 78, 75
2, 19271, Note_on_c, 0, 78, 0
2, 19272, Note_on_c, 0, 76, 75
2, 19295, Note_on_c, 0, 76, 0
2, 19296, Note_on_c, 0, 75, 75
2, 19316, Note_on_c, 0, 75, 0
2, 19344, Note_on_c, 0, 76, 75
2, 19364, Note_on_c, 0, 76, 0
2, 19392, Note_on_c, 0, 78, 75
2, 19415, Note_on_c, 0, 78, 0
2, 19416, Note_on_c, 0, 76, 75
2, 19439, Note_on_c, 0, 76, 0
2, 19440, Note_on_c, 0, 75, 75
2, 19463, Note_on_c, 0, 75, 0
2, 19464, Note_on_c, 0, 73, 75
2, 19487, Note_on_c, 0, 73, 0
2, 19488, Note_on_c, 0, 71, 75
2, 19533, Note_on_c, 0, 71, 0
2, 19536, Note_on_c, 0, 79, 91
2, 19629, Note_on_c, 0, 79, 0
2, 19632, Note_on_c, 0, 69, 75
2, 19721, Note_on_c, 0, 69, 0
2, 19728, Note_on_c, 0, 77, 91
2, 19824, Note_on_c, 0, 77, 0
2, 19824, Note_on_c, 0, 67, 75
2, 19913, Note_on_c, 0, 67, 0
2, 19920, Note_on_c, 0, 76, 91
2, 19968, Note_on_c, 0, 76, 0
2, 19968, Note_on_c, 0, 75, 75
2, 19988, Note_on_c, 0, 75, 0
2, 20016, Note_on_c, 0, 76, 75
2, 20036, Note_on_c, 0, 76, 0
2, 20064, Note_on_c, 0, 81, 75
2, 20064, Note_on_c, 0, 78, 75
2, 20084, Note_on_c, 0, 81, 0
2, 20084, Note_on_c, 0, 78, 0
2, 20112, Note_on_c, 0, 79, 75
2, 20112, Note_on_c, 0, 76, 75
2, 20132, Note_on_c, 0, 79, 0
2, 20132, Note_on_c, 0, 76, 0
2, 20160, Note_on_c, 0, 79, 91
2, 20160, Note_on_c, 0, 76, 91
2, 20256, Note_on_c, 0, 79, 0
2, 20256, Note_on_c, 0, 76, 0
2, 20256, Note_on_c, 0, 78, 75
2, 20256, Note_on_c, 0, 75, 75
2, 20276, Note_on_c, 0, 78, 0
2, 20276, Note_on_c, 0, 75, 0
2, 20304, Note_on_c, 0, 59, 75
2, 20349, Note_on_c, 0, 59, 0
2, 20352, Note_on_c, 0, 64, 91
2, 20400, Note_on_c, 0, 64, 0
2, 20400, Note_on_c, 0, 67, 75
2, 20445, Note_on_c, 0, 67, 0
2, 20448, Note_on_c, 0, 66, 75
2, 20493, Note_on_c, 0, 66, 0
2, 20496, Note_on_c, 0, 64, 75
2, 20541, Note_on_c, 0, 64, 0
2, 20544, Note_on_c, 0, 63, 75
2, 20589, Note_on_c, 0, 63, 0
2, 20592, Note_on_c, 0, 72, 75
2, 20637, Note_on_c, 0, 72, 0
2, 20640, Note_on_c, 0, 71, 75
2, 20685, Note_on_c, 0, 71, 0
2, 20688, Note_on_c, 0, 69, 75
2, 20733, Note_on_c, 0, 69, 0
2, 20736, Note_on_c, 0, 67, 75
2, 20736, Note_on_c, 0, 64, 75
2, 20775, Note_on_c, 0, 67, 0
2, 20775, Note_on_c, 0, 64, 0
2, 20832, Note_on_c, 0, 66, 75
2, 20832, Note_on_c, 0, 63, 75
2, 20871, Note_on_c, 0, 66, 0
2, 20871, Note_on_c, 0, 63, 0
2, 20928, Note_on_c, 0, 64, 91
2, 20928, Note_on_c, 0, 60, 91
2, 20928, Note_on_c, 0, 55, 91
2, 21024, Note_on_c, 0, 64, 0
2, 21024, Note_on_c, 0, 60, 0
2, 21024, Note_on_c, 0, 55, 0
2, 21072, Note_on_c, 0, 72, 91
2, 21165, Note_on_c, 0, 72, 0
2, 21168, Note_on_c, 0, 63, 75
2, 21257, Note_on_c, 0, 63, 0
2, 21264, Note_on_c, 0, 71, 91
2, 21360, Note_on_c, 0, 71, 0
2, 21360, Note_on_c, 0, 60, 75
2, 21449, Note_on_c, 0, 60, 0
2, 21456, Note_on_c, 0, 81, 91
2, 21527, Note_on_c, 0, 81, 0
2, 21528, Note_on_c, 0, 79, 75
2, 21551, Note_on_c, 0, 79, 0
2, 21552, Note_on_c, 0, 78, 75
2, 21575, Note_on_c, 0, 78, 0
2, 21576, Note_on_c, 0, 76, 75
2, 21599, Note_on_c, 0, 76, 0
2, 21600, Note_on_c, 0, 75, 75
2, 21645, Note_on_c, 0, 75, 0
2, 21648, Note_on_c, 0, 76, 75
2, 21693, Note_on_c, 0, 76, 0
2, 21696, Note_on_c, 0, 79, 75
2, 21696, Note_on_c, 0, 76, 75
2, 21792, Note_on_c, 0, 79, 0
2, 21792, Note_on_c, 0, 76, 0
2, 21792, Note_on_c, 0, 78, 75
2, 21792, Note_on_c, 0, 75, 75
2, 21812, Note_on_c, 0, 78, 0
2, 21812, Note_on_c, 0, 75, 0
2, 21840, Note_on_c, 0, 59, 70
2, 21885, Note_on_c, 0, 59, 0
2, 21888, Note_on_c, 0, 64, 86
2, 21936, Note_on_c, 0, 64, 0
2, 21936, Note_on_c, 0, 67, 70
2, 21981, Note_on_c, 0, 67, 0
2, 21984, Note_on_c, 0, 66, 70
2, 22029, Note_on_c, 0, 66, 0
2, 22032, Note_on_c, 0, 64, 70
2, 22077, Note_on_c, 0, 64, 0
2, 22080, Note_on_c, 0, 63, 70
2, 22125, Note_on_c, 0, 63, 0
2, 22128, Note_on_c, 0, 72, 70
2, 22173, Note_on_c, 0, 72, 0
2, 22176, Note_on_c, 0, 71, 70
2, 22221, Note_on_c, 0, 71, 0
2, 22224, Note_on_c, 0, 81, 70
2, 22224, Note_on_c, 0, 78, 70
2, 22269, Note_on_c, 0, 81, 0
2, 22269, Note_on_c, 0, 78, 0
2, 22272, Note_on_c, 0, 79, 64
2, 22272, Note_on_c, 0, 76, 64
2, 22311, Note_on_c, 0, 79, 0
2, 22311, Note_on_c, 0, 76, 0
2, 22368, Note_on_c, 0, 78, 62
2, 22368, Note_on_c, 0, 75, 62
2, 22407, Note_on_c, 0, 78, 0
2, 22407, Note_on_c, 0, 75, 0
2, 22464, Note_on_c, 0, 76, 60
2, 22509, Note_on_c, 0, 76, 0
2, 22512, Note_on_c, 0, 79, 59
2, 22535, Note_on_c, 0, 79, 0
2, 22536, Note_on_c, 0, 83, 59
2, 22559, Note_on_c, 0, 83, 0
2, 22560, Note_on_c, 0, 88, 58
2, 22605, Note_on_c, 0, 88, 0
2, 22656, End_track
3, 0, Start_track
3, 0, Program_c, 0, 0
3, 0, Control_c, 0, 7, 127
3, 0, Control_c, 0, 10, 64
3, 22656, End_track
4, 0, Start_track
4, 0, Program_c, 1, 0
4, 0, Control_c, 1, 7, 127
4, 0, Control_c, 1, 10, 64
4, 384, Note_on_c, 1, 52, 64
4, 407, Note_on_c, 1, 52, 0
4, 408, Note_on_c, 1, 59, 64
4, 431, Note_on_c, 1, 59, 0
4, 432, Note_on_c, 1, 55, 64
4, 455, Note_on_c, 1, 55, 0
4, 456, Note_on_c, 1, 59, 64
4, 479, Note_on_c, 1, 59, 0
4, 480, Note_on_c, 1, 52, 64
4, 503, Note_on_c, 1, 52, 0
4, 504, Note_on_c, 1, 59, 64
4, 527, Note_on_c, 1, 59, 0
4, 528, Note_on_c, 1, 55, 64
4, 551, Note_on_c, 1, 55, 0
4, 552, Note_on_c, 1, 59, 64
4, 575, Note_on_c, 1, 59, 0
4, 576, Note_on_c, 1, 47, 64
4, 599, Note_on_c, 1, 47, 0
4, 600, Note_on_c, 1, 59, 64
4, 623, Note_on_c, 1, 59, 0
4, 624, Note_on_c, 1, 54, 64
4, 647, Note_on_c, 1, 54, 0
4, 648, Note_on_c, 1, 59, 64
4, 671, Note_on_c, 1, 59, 0
4, 672, Note_on_c, 1, 47, 64
4, 695, Note_on_c, 1, 47, 0
4, 696, Note_on_c, 1, 59, 64
4, 719, Note_on_c, 1, 59, 0
4, 720, Note_on_c, 1, 54, 64
4, 743, Note_on_c, 1, 54, 0
4, 744, Note_on_c, 1, 59, 64
4, 767, Note_on_c, 1, 59, 0
4, 768, Note_on_c, 1, 52, 64
4, 791, Note_on_c, 1, 52, 0
4, 792, Note_on_c, 1, 59, 64
4, 815, Note_on_c, 1, 59, 0
4, 816, Note_on_c, 1, 55, 64
4, 839, Note_on_c, 1, 55, 0
4, 840, Note_on_c, 1, 59, 64
4, 863, Note_on_c, 1, 59, 0
4, 864, Note_on_c, 1, 54, 64
4, 887, Note_on_c, 1, 54, 0
4, 888, Note_on_c, 1, 59, 64
4, 911, Note_on_c, 1, 59, 0
4, 912, Note_on_c, 1, 55, 64
4, 935, Note_on_c, 1, 55, 0
4, 936, Note_on_c, 1, 59, 64
4, 959, Note_on_c, 1, 59, 0
4, 960, Note_on_c, 1, 47, 64
4, 1049, Note_on_c, 1, 47, 0
4, 1152, Note_on_c, 1, 49, 64
4, 1175, Note_on_c, 1, 49, 0
4, 1176, Note_on_c, 1, 57, 64
4, 1199, Note_on_c, 1, 57, 0
4, 1200, Note_on_c, 1, 52, 64
4, 1223, Note_on_c, 1, 52, 0
4, 1224, Note_on_c, 1, 57, 64
4, 1247, Note_on_c, 1, 57, 0
4, 1248, Note_on_c, 1, 50, 64
4, 1271, Note_on_c, 1, 50, 0
4, 1272, Note_on_c, 1, 57, 64
4, 1295, Note_on_c, 1, 57, 0
4, 1296, Note_on_c, 1, 53, 64
4, 1319, Note_on_c, 1, 53, 0
4, 1320, Note_on_c, 1, 57, 64
4, 1343, Note_on_c, 1, 57, 0
4, 1344, Note_on_c, 1, 47, 64
4, 1367, Note_on_c, 1, 47, 0
4, 1368, Note_on_c, 1, 55, 64
4, 1391, Note_on_c, 1, 55, 0
4, 1392, Note_on_c, 1, 50, 64
4, 1415, Note_on_c, 1, 50, 0
4, 1416, Note_on_c, 1, 55, 64
4, 1439, Note_on_c, 1, 55, 0
4, 1440, Note_on_c, 1, 48, 64
4, 1463, Note_on_c, 1, 48, 0
4, 1464, Note_on_c, 1, 55, 64
4, 1487, Note_on_c, 1, 55, 0
4, 1488, Note_on_c, 1, 52, 64
4, 1511, Note_on_c, 1, 52, 0
4, 1512, Note_on_c, 1, 55, 64
4, 1535, Note_on_c, 1, 55, 0
4, 1536, Note_on_c, 1, 47, 64
4, 1559, Note_on_c, 1, 47, 0
4, 1560, Note_on_c, 1, 54, 64
4, 1583, Note_on_c, 1, 54, 0
4, 1584, Note_on_c, 1, 51, 64
4, 1607, Note_on_c, 1, 51, 0
4, 1608, Note_on_c, 1, 54, 64
4, 1631, Note_on_c, 1, 54, 0
4, 1632, Note_on_c, 1, 47, 64
4, 1655, Note_on_c, 1, 47, 0
4, 1656, Note_on_c, 1, 55, 64
4, 1679, Note_on_c, 1, 55, 0
4, 1680, Note_on_c, 1, 52, 64
4, 1703, Note_on_c, 1, 52, 0
4, 1704, Note_on_c, 1, 55, 64
4, 1727, Note_on_c, 1, 55, 0
4, 1728, Note_on_c, 1, 47, 64
4, 1751, Note_on_c, 1, 47, 0
4, 1752, Note_on_c, 1, 58, 64
4, 1775, Note_on_c, 1, 58, 0
4, 1776, Note_on_c, 1, 59, 64
4, 1799, Note_on_c, 1, 59, 0
4, 1800, Note_on_c, 1, 58, 64
4, 1823, Note_on_c, 1, 58, 0
4, 1824, Note_on_c, 1, 59, 64
4, 1847, Note_on_c, 1, 59, 0
4, 1848, Note_on_c, 1, 57, 64
4, 1871, Note_on_c, 1, 57, 0
4, 1872, Note_on_c, 1, 55, 64
4, 1895, Note_on_c, 1, 55, 0
4, 1896, Note_on_c, 1, 54, 64
4, 1919, Note_on_c, 1, 54, 0
4, 1920, Note_on_c, 1, 52, 64
4, 1943, Note_on_c, 1, 52, 0
4, 1944, Note_on_c, 1, 59, 64
4, 1967, Note_on_c, 1, 59, 0
4, 1968, Note_on_c, 1, 55, 64
4, 1991, Note_on_c, 1, 55, 0
4, 1992, Note_on_c, 1, 59, 64
4, 2015, Note_on_c, 1, 59, 0
4, 2016, Note_on_c, 1, 52, 64
4, 2039, Note_on_c, 1, 52, 0
4, 2040, Note_on_c, 1, 59, 64
4, 2063, Note_on_c, 1, 59, 0
4, 2064, Note_on_c, 1, 55, 64
4, 2087, Note_on_c, 1, 55, 0
4, 2088, Note_on_c, 1, 59, 64
4, 2111, Note_on_c, 1, 59, 0
4, 2112, Note_on_c, 1, 47, 64
4, 2135, Note_on_c, 1, 47, 0
4, 2136, Note_on_c, 1, 59, 64
4, 2159, Note_on_c, 1, 59, 0
4, 2160, Note_on_c, 1, 54, 64
4, 2183, Note_on_c, 1, 54, 0
4, 2184, Note_on_c, 1, 59, 64
4, 2207, Note_on_c, 1, 59, 0
4, 2208, Note_on_c, 1, 47, 64
4, 2231, Note_on_c, 1, 47, 0
4, 2232, Note_on_c, 1, 59, 64
4, 2255, Note_on_c, 1, 59, 0
4, 2256, Note_on_c, 1, 55, 64
4, 2279, Note_on_c, 1, 55, 0
4, 2280, Note_on_c, 1, 59, 64
4, 2303, Note_on_c, 1, 59, 0
4, 2304, Note_on_c, 1, 48, 64
4, 2327, Note_on_c, 1, 48, 0
4, 2328, Note_on_c, 1, 57, 64
4, 2351, Note_on_c, 1, 57, 0
4, 2352, Note_on_c, 1, 52, 65
4, 2375, Note_on_c, 1, 52, 0
4, 2376, Note_on_c, 1, 57, 66
4, 2399, Note_on_c, 1, 57, 0
4, 2400, Note_on_c, 1, 50, 67
4, 2423, Note_on_c, 1, 50, 0
4, 2424, Note_on_c, 1, 60, 67
4, 2447, Note_on_c, 1, 60, 0
4, 2448, Note_on_c, 1, 54, 68
4, 2471, Note_on_c, 1, 54, 0
4, 2472, Note_on_c, 1, 60, 69
4, 2495, Note_on_c, 1, 60, 0
4, 2496, Note_on_c, 1, 55, 70
4, 2519, Note_on_c, 1, 55, 0
4, 2520, Note_on_c, 1, 43, 70
4, 2543, Note_on_c, 1, 43, 0
4, 2544, Note_on_c, 1, 47, 70
4, 2567, Note_on_c, 1, 47, 0
4, 2568, Note_on_c, 1, 50, 70
4, 2591, Note_on_c, 1, 50, 0
4, 2592, Note_on_c, 1, 55, 70
4, 2637, Note_on_c, 1, 55, 0
4, 2688, Note_on_c, 1, 52, 64
4, 2711, Note_on_c, 1, 52, 0
4, 2712, Note_on_c, 1, 59, 64
4, 2735, Note_on_c, 1, 59, 0
4, 2736, Note_on_c, 1, 55, 64
4, 2759, Note_on_c, 1, 55, 0
4, 2760, Note_on_c, 1, 59, 64
4, 2783, Note_on_c, 1, 59, 0
4, 2784, Note_on_c, 1, 52, 64
4, 2807, Note_on_c, 1, 52, 0
4, 2808, Note_on_c, 1, 59, 64
4, 2831, Note_on_c, 1, 59, 0
4, 2832, Note_on_c, 1, 55, 64
4, 2855, Note_on_c, 1, 55, 0
4, 2856, Note_on_c, 1, 59, 64
4, 2879, Note_on_c, 1, 59, 0
4, 2880, Note_on_c, 1, 47, 64
4, 2903, Note_on_c, 1, 47, 0
4, 2904, Note_on_c, 1, 59, 64
4, 2927, Note_on_c, 1, 59, 0
4, 2928, Note_on_c, 1, 54, 64
4, 2951, Note_on_c, 1, 54, 0
4, 2952, Note_on_c, 1, 59, 64
4, 2975, Note_on_c, 1, 59, 0
4, 2976, Note_on_c, 1, 47, 64
4, 2999, Note_on_c, 1, 47, 0
4, 3000, Note_on_c, 1, 59, 64
4, 3023, Note_on_c, 1, 59, 0
4, 3024, Note_on_c, 1, 54, 64
4, 3047, Note_on_c, 1, 54, 0
4, 3048, Note_on_c, 1, 59, 64
4, 3071, Note_on_c, 1, 59, 0
4, 3072, Note_on_c, 1, 52, 64
4, 3095, Note_on_c, 1, 52, 0
4, 3096, Note_on_c, 1, 59, 64
4, 3119, Note_on_c, 1, 59, 0
4, 3120, Note_on_c, 1, 55, 64
4, 3143, Note_on_c, 1, 55, 0
4, 3144, Note_on_c, 1, 59, 64
4, 3167, Note_on_c, 1, 59, 0
4, 3168, Note_on_c, 1, 54, 64
4, 3191, Note_on_c, 1, 54, 0
4, 3192, Note_on_c, 1, 59, 64
4, 3215, Note_on_c, 1, 59, 0
4, 3216, Note_on_c, 1, 55, 64
4, 3239, Note_on_c, 1, 55, 0
4, 3240, Note_on_c, 1, 59, 64
4, 3263, Note_on_c, 1, 59, 0
4, 3264, Note_on_c, 1, 47, 64
4, 3353, Note_on_c, 1, 47, 0
4, 3456, Note_on_c, 1, 49, 64
4, 3479, Note_on_c, 1, 49, 0
4, 3480, Note_on_c, 1, 57, 64
4, 3503, Note_on_c, 1, 57, 0
4, 3504, Note_on_c, 1, 52, 64
4, 3527, Note_on_c, 1, 52, 0
4, 3528, Note_on_c, 1, 57, 64
4, 3551, Note_on_c, 1, 57, 0
4, 3552, Note_on_c, 1, 50, 64
4, 3575, Note_on_c, 1, 50, 0
4, 3576, Note_on_c, 1, 57, 64
4, 3599, Note_on_c, 1, 57, 0
4, 3600, Note_on_c, 1, 53, 64
4, 3623, Note_on_c, 1, 53, 0
4, 3624, Note_on_c, 1, 57, 64
4, 3647, Note_on_c, 1, 57, 0
4, 3648, Note_on_c, 1, 47, 64
4, 3671, Note_on_c, 1, 47, 0
4, 3672, Note_on_c, 1, 55, 64
4, 3695, Note_on_c, 1, 55, 0
4, 3696, Note_on_c, 1, 50, 64
4, 3719, Note_on_c, 1, 50, 0
4, 3720, Note_on_c, 1, 55, 64
4, 3743, Note_on_c, 1, 55, 0
4, 3744, Note_on_c, 1, 48, 64
4, 3767, Note_on_c, 1, 48, 0
4, 3768, Note_on_c, 1, 55, 64
4, 3791, Note_on_c, 1, 55, 0
4, 3792, Note_on_c, 1, 52, 64
4, 3815, Note_on_c, 1, 52, 0
4, 3816, Note_on_c, 1, 55, 64
4, 3839, Note_on_c, 1, 55, 0
4, 3840, Note_on_c, 1, 47, 64
4, 3863, Note_on_c, 1, 47, 0
4, 3864, Note_on_c, 1, 54, 64
4, 3887, Note_on_c, 1, 54, 0
4, 3888, Note_on_c, 1, 51, 64
4, 3911, Note_on_c, 1, 51, 0
4, 3912, Note_on_c, 1, 54, 64
4, 3935, Note_on_c, 1, 54, 0
4, 3936, Note_on_c, 1, 47, 64
4, 3959, Note_on_c, 1, 47, 0
4, 3960, Note_on_c, 1, 55, 64
4, 3983, Note_on_c, 1, 55, 0
4, 3984, Note_on_c, 1, 52, 64
4, 4007, Note_on_c, 1, 52, 0
4, 4008, Note_on_c, 1, 55, 64
4, 4031, Note_on_c, 1, 55, 0
4, 4032, Note_on_c, 1, 47, 64
4, 4055, Note_on_c, 1, 47, 0
4, 4056, Note_on_c, 1, 58, 64
4, 4079, Note_on_c, 1, 58, 0
4, 4080, Note_on_c, 1, 59, 64
4, 4103, Note_on_c, 1, 59, 0
4, 4104, Note_on_c, 1, 58, 64
4, 4127, Note_on_c, 1, 58, 0
4, 4128, Note_on_c, 1, 59, 64
4, 4151, Note_on_c, 1, 59, 0
4, 4152, Note_on_c, 1, 57, 64
4, 4175, Note_on_c, 1, 57, 0
4, 4176, Note_on_c, 1, 55, 64
4, 4199, Note_on_c, 1, 55, 0
4, 4200, Note_on_c, 1, 54, 64
4, 4223, Note_on_c, 1, 54, 0
4, 4224, Note_on_c, 1, 52, 64
4, 4247, Note_on_c, 1, 52, 0
4, 4248, Note_on_c, 1, 59, 64
4, 4271, Note_on_c, 1, 59, 0
4, 4272, Note_on_c, 1, 55, 64
4, 4295, Note_on_c, 1, 55, 0
4, 4296, Note_on_c, 1, 59, 64
4, 4319, Note_on_c, 1, 59, 0
4, 4320, Note_on_c, 1, 52, 64
4, 4343, Note_on_c, 1, 52, 0
4, 4344, Note_on_c, 1, 59, 64
4, 4367, Note_on_c, 1, 59, 0
4, 4368, Note_on_c, 1, 55, 64
4, 4391, Note_on_c, 1, 55, 0
4, 4392, Note_on_c, 1, 59, 64
4, 4415, Note_on_c, 1, 59, 0
4, 4416, Note_on_c, 1, 47, 64
4, 4439, Note_on_c, 1, 47, 0
4, 4440, Note_on_c, 1, 59, 64
4, 4463, Note_on_c, 1, 59, 0
4, 4464, Note_on_c, 1, 54, 64
4, 4487, Note_on_c, 1, 54, 0
4, 4488, Note_on_c, 1, 59, 64
4, 4511, Note_on_c, 1, 59, 0
4, 4512, Note_on_c, 1, 47, 64
4, 4535, Note_on_c, 1, 47, 0
4, 4536, Note_on_c, 1, 59, 64
4, 4559, Note_on_c, 1, 59, 0
4, 4560, Note_on_c, 1, 55, 64
4, 4583, Note_on_c, 1, 55, 0
4, 4584, Note_on_c, 1, 59, 64
4, 4607, Note_on_c, 1, 59, 0
4, 4608, Note_on_c, 1, 48, 64
4, 4631, Note_on_c, 1, 48, 0
4, 4632, Note_on_c, 1, 57, 64
4, 4655, Note_on_c, 1, 57, 0
4, 4656, Note_on_c, 1, 52, 65
4, 4679, Note_on_c, 1, 52, 0
4, 4680, Note_on_c, 1, 57, 66
4, 4703, Note_on_c, 1, 57, 0
4, 4704, Note_on_c, 1, 50, 67
4, 4727, Note_on_c, 1, 50, 0
4, 4728, Note_on_c, 1, 60, 67
4, 4751, Note_on_c, 1, 60, 0
4, 4752, Note_on_c, 1, 54, 68
4, 4775, Note_on_c, 1, 54, 0
4, 4776, Note_on_c, 1, 60, 69
4, 4799, Note_on_c, 1, 60, 0
4, 4800, Note_on_c, 1, 55, 70
4, 4823, Note_on_c, 1, 55, 0
4, 4824, Note_on_c, 1, 43, 70
4, 4847, Note_on_c, 1, 43, 0
4, 4848, Note_on_c, 1, 47, 70
4, 4871, Note_on_c, 1, 47, 0
4, 4872, Note_on_c, 1, 50, 70
4, 4895, Note_on_c, 1, 50, 0
4, 4896, Note_on_c, 1, 55, 70
4, 4941, Note_on_c, 1, 55, 0
4, 4992, Note_on_c, 1, 44, 80
4, 5004, Note_on_c, 1, 47, 80
4, 5016, Note_on_c, 1, 50, 80
4, 5028, Note_on_c, 1, 52, 80
4, 5081, Note_on_c, 1, 52, 0
4, 5081, Note_on_c, 1, 50, 0
4, 5081, Note_on_c, 1, 47, 0
4, 5081, Note_on_c, 1, 44, 0
4, 5088, Note_on_c, 1, 44, 80
4, 5100, Note_on_c, 1, 47, 80
4, 5112, Note_on_c, 1, 50, 80
4, 5124, Note_on_c, 1, 52, 80
4, 5177, Note_on_c, 1, 52, 0
4, 5177, Note_on_c, 1, 50, 0
4, 5177, Note_on_c, 1, 47, 0
4, 5177, Note_on_c, 1, 44, 0
4, 5184, Note_on_c, 1, 45, 80
4, 5207, Note_on_c, 1, 45, 0
4, 5208, Note_on_c, 1, 52, 80
4, 5231, Note_on_c, 1, 52, 0
4, 5232, Note_on_c, 1, 48, 80
4, 5255, Note_on_c, 1, 48, 0
4, 5256, Note_on_c, 1, 52, 80
4, 5279, Note_on_c, 1, 52, 0
4, 5280, Note_on_c, 1, 45, 80
4, 5303, Note_on_c, 1, 45, 0
4, 5304, Note_on_c, 1, 52, 80
4, 5327, Note_on_c, 1, 52, 0
4, 5328, Note_on_c, 1, 48, 80
4, 5351, Note_on_c, 1, 48, 0
4, 5352, Note_on_c, 1, 52, 80
4, 5375, Note_on_c, 1, 52, 0
4, 5376, Note_on_c, 1, 42, 80
4, 5388, Note_on_c, 1, 45, 80
4, 5400, Note_on_c, 1, 48, 80
4, 5412, Note_on_c, 1, 50, 80
4, 5465, Note_on_c, 1, 50, 0
4, 5465, Note_on_c, 1, 48, 0
4, 5465, Note_on_c, 1, 45, 0
4, 5465, Note_on_c, 1, 42, 0
4, 5472, Note_on_c, 1, 42, 80
4, 5484, Note_on_c, 1, 45, 80
4, 5496, Note_on_c, 1, 48, 80
4, 5508, Note_on_c, 1, 50, 80
4, 5561, Note_on_c, 1, 50, 0
4, 5561, Note_on_c, 1, 48, 0
4, 5561, Note_on_c, 1, 45, 0
4, 5561, Note_on_c, 1, 42, 0
4, 5568, Note_on_c, 1, 43, 80
4, 5591, Note_on_c, 1, 43, 0
4, 5592, Note_on_c, 1, 50, 80
4, 5615, Note_on_c, 1, 50, 0
4, 5616, Note_on_c, 1, 47, 80
4, 5639, Note_on_c, 1, 47, 0
4, 5640, Note_on_c, 1, 50, 80
4, 5663, Note_on_c, 1, 50, 0
4, 5664, Note_on_c, 1, 43, 80
4, 5687, Note_on_c, 1, 43, 0
4, 5688, Note_on_c, 1, 50, 80
4, 5711, Note_on_c, 1, 50, 0
4, 5712, Note_on_c, 1, 47, 80
4, 5735, Note_on_c, 1, 47, 0
4, 5736, Note_on_c, 1, 50, 80
4, 5759, Note_on_c, 1, 50, 0
4, 5760, Note_on_c, 1, 45, 80
4, 5783, Note_on_c, 1, 45, 0
4, 5784, Note_on_c, 1, 53, 80
4, 5807, Note_on_c, 1, 53, 0
4, 5808, Note_on_c, 1, 48, 80
4, 5831, Note_on_c, 1, 48, 0
4, 5832, Note_on_c, 1, 53, 80
4, 5855, Note_on_c, 1, 53, 0
4, 5856, Note_on_c, 1, 45, 80
4, 5879, Note_on_c, 1, 45, 0
4, 5880, Note_on_c, 1, 53, 80
4, 5903, Note_on_c, 1, 53, 0
4, 5904, Note_on_c, 1, 48, 80
4, 5927, Note_on_c, 1, 48, 0
4, 5928, Note_on_c, 1, 53, 80
4, 5951, Note_on_c, 1, 53, 0
4, 5952, Note_on_c, 1, 63, 80
4, 5952, Note_on_c, 1, 51, 80
4, 5972, Note_on_c, 1, 63, 0
4, 5972, Note_on_c, 1, 51, 0
4, 6000, Note_on_c, 1, 64, 80
4, 6000, Note_on_c, 1, 52, 80
4, 6020, Note_on_c, 1, 64, 0
4, 6020, Note_on_c, 1, 52, 0
4, 6096, Note_on_c, 1, 59, 80
4, 6096, Note_on_c, 1, 47, 80
4, 6141, Note_on_c, 1, 59, 0
4, 6141, Note_on_c, 1, 47, 0
4, 6144, Note_on_c, 1, 60, 80
4, 6144, Note_on_c, 1, 48, 80
4, 6164, Note_on_c, 1, 60, 0
4, 6164, Note_on_c, 1, 48, 0
4, 6192, Note_on_c, 1, 58, 80
4, 6192, Note_on_c, 1, 46, 80
4, 6240, Note_on_c, 1, 58, 0
4, 6240, Note_on_c, 1, 46, 0
4, 6240, Note_on_c, 1, 59, 80
4, 6240, Note_on_c, 1, 47, 80
4, 6260, Note_on_c, 1, 59, 0
4, 6260, Note_on_c, 1, 47, 0
4, 6288, Note_on_c, 1, 59, 80
4, 6288, Note_on_c, 1, 47, 80
4, 6333, Note_on_c, 1, 59, 0
4, 6333, Note_on_c, 1, 47, 0
4, 6336, Note_on_c, 1, 40, 80
4, 6359, Note_on_c, 1, 40, 0
4, 6360, Note_on_c, 1, 43, 80
4, 6383, Note_on_c, 1, 43, 0
4, 6384, Note_on_c, 1, 47, 80
4, 6407, Note_on_c, 1, 47, 0
4, 6408, Note_on_c, 1, 52, 80
4, 6431, Note_on_c, 1, 52, 0
4, 6432, Note_on_c, 1, 40, 80
4, 6477, Note_on_c, 1, 40, 0
4, 6528, Note_on_c, 1, 44, 64
4, 6551, Note_on_c, 1, 44, 0
4, 6552, Note_on_c, 1, 52, 64
4, 6575, Note_on_c, 1, 52, 0
4, 6576, Note_on_c, 1, 47, 64
4, 6599, Note_on_c, 1, 47, 0
4, 6600, Note_on_c, 1, 52, 64
4, 6623, Note_on_c, 1, 52, 0
4, 6624, Note_on_c, 1, 44, 64
4, 6647, Note_on_c, 1, 44, 0
4, 6648, Note_on_c, 1, 52, 64
4, 6671, Note_on_c, 1, 52, 0
4, 6672, Note_on_c, 1, 47, 64
4, 6695, Note_on_c, 1, 47, 0
4, 6696, Note_on_c, 1, 52, 64
4, 6719, Note_on_c, 1, 52, 0
4, 6744, Note_on_c, 1, 45, 64
4, 6767, Note_on_c, 1, 45, 0
4, 6768, Note_on_c, 1, 48, 64
4, 6791, Note_on_c, 1, 48, 0
4, 6792, Note_on_c, 1, 52, 64
4, 6815, Note_on_c, 1, 52, 0
4, 6816, Note_on_c, 1, 57, 64
4, 6861, Note_on_c, 1, 57, 0
4, 6912, Note_on_c, 1, 42, 64
4, 6935, Note_on_c, 1, 42, 0
4, 6936, Note_on_c, 1, 50, 64
4, 6959, Note_on_c, 1, 50, 0
4, 6960, Note_on_c, 1, 45, 64
4, 6983, Note_on_c, 1, 45, 0
4, 6984, Note_on_c, 1, 50, 64
4, 7007, Note_on_c, 1, 50, 0
4, 7008, Note_on_c, 1, 42, 64
4, 7031, Note_on_c, 1, 42, 0
4, 7032, Note_on_c, 1, 50, 64
4, 7055, Note_on_c, 1, 50, 0
4, 7056, Note_on_c, 1, 45, 64
4, 7079, Note_on_c, 1, 45, 0
4, 7080, Note_on_c, 1, 50, 64
4, 7103, Note_on_c, 1, 50, 0
4, 7128, Note_on_c, 1, 43, 64
4, 7151, Note_on_c, 1, 43, 0
4, 7152, Note_on_c, 1, 47, 64
4, 7175, Note_on_c, 1, 47, 0
4, 7176, Note_on_c, 1, 50, 64
4, 7199, Note_on_c, 1, 50, 0
4, 7200, Note_on_c, 1, 55, 64
4, 7245, Note_on_c, 1, 55, 0
4, 7248, Note_on_c, 1, 52, 80
4, 7248, Note_on_c, 1, 40, 80
4, 7293, Note_on_c, 1, 52, 0
4, 7293, Note_on_c, 1, 40, 0
4, 7296, Note_on_c, 1, 53, 80
4, 7296, Note_on_c, 1, 41, 80
4, 7341, Note_on_c, 1, 53, 0
4, 7341, Note_on_c, 1, 41, 0
4, 7344, Note_on_c, 1, 54, 80
4, 7344, Note_on_c, 1, 42, 80
4, 7389, Note_on_c, 1, 54, 0
4, 7389, Note_on_c, 1, 42, 0
4, 7392, Note_on_c, 1, 55, 80
4, 7392, Note_on_c, 1, 43, 80
4, 7437, Note_on_c, 1, 55, 0
4, 7437, Note_on_c, 1, 43, 0
4, 7440, Note_on_c, 1, 56, 80
4, 7440, Note_on_c, 1, 44, 80
4, 7485, Note_on_c, 1, 56, 0
4, 7485, Note_on_c, 1, 44, 0
4, 7488, Note_on_c, 1, 57, 80
4, 7488, Note_on_c, 1, 45, 80
4, 7508, Note_on_c, 1, 57, 0
4, 7508, Note_on_c, 1, 45, 0
4, 7536, Note_on_c, 1, 57, 80
4, 7536, Note_on_c, 1, 45, 80
4, 7625, Note_on_c, 1, 57, 0
4, 7625, Note_on_c, 1, 45, 0
4, 7632, Note_on_c, 1, 54, 80
4, 7632, Note_on_c, 1, 42, 80
4, 7677, Note_on_c, 1, 54, 0
4, 7677, Note_on_c, 1, 42, 0
4, 7680, Note_on_c, 1, 55, 80
4, 7680, Note_on_c, 1, 43, 80
4, 7725, Note_on_c, 1, 55, 0
4, 7725, Note_on_c, 1, 43, 0
4, 7728, Note_on_c, 1, 56, 80
4, 7728, Note_on_c, 1, 44, 80
4, 7773, Note_on_c, 1, 56, 0
4, 7773, Note_on_c, 1, 44, 0
4, 7776, Note_on_c, 1, 57, 80
4, 7776, Note_on_c, 1, 45, 80
4, 7821, Note_on_c, 1, 57, 0
4, 7821, Note_on_c, 1, 45, 0
4, 7824, Note_on_c, 1, 58, 80
4, 7824, Note_on_c, 1, 46, 80
4, 7869, Note_on_c, 1, 58, 0
4, 7869, Note_on_c, 1, 46, 0
4, 7872, Note_on_c, 1, 59, 80
4, 7872, Note_on_c, 1, 47, 80
4, 7961, Note_on_c, 1, 59, 0
4, 7961, Note_on_c, 1, 47, 0
4, 8064, Note_on_c, 1, 52, 64
4, 8087, Note_on_c, 1, 52, 0
4, 8088, Note_on_c, 1, 59, 64
4, 8111, Note_on_c, 1, 59, 0
4, 8112, Note_on_c, 1, 55, 64
4, 8135, Note_on_c, 1, 55, 0
4, 8136, Note_on_c, 1, 59, 64
4, 8159, Note_on_c, 1, 59, 0
4, 8160, Note_on_c, 1, 52, 64
4, 8183, Note_on_c, 1, 52, 0
4, 8184, Note_on_c, 1, 59, 64
4, 8207, Note_on_c, 1, 59, 0
4, 8208, Note_on_c, 1, 55, 64
4, 8231, Note_on_c, 1, 55, 0
4, 8232, Note_on_c, 1, 59, 64
4, 8255, Note_on_c, 1, 59, 0
4, 8256, Note_on_c, 1, 47, 64
4, 8279, Note_on_c, 1, 47, 0
4, 8280, Note_on_c, 1, 59, 64
4, 8303, Note_on_c, 1, 59, 0
4, 8304, Note_on_c, 1, 54, 64
4, 8327, Note_on_c, 1, 54, 0
4, 8328, Note_on_c, 1, 59, 64
4, 8351, Note_on_c, 1, 59, 0
4, 8352, Note_on_c, 1, 47, 64
4, 8375, Note_on_c, 1, 47, 0
4, 8376, Note_on_c, 1, 59, 64
4, 8399, Note_on_c, 1, 59, 0
4, 8400, Note_on_c, 1, 54, 64
4, 8423, Note_on_c, 1, 54, 0
4, 8424, Note_on_c, 1, 59, 64
4, 8447, Note_on_c, 1, 59, 0
4, 8448, Note_on_c, 1, 52, 64
4, 8471, Note_on_c, 1, 52, 0
4, 8472, Note_on_c, 1, 59, 64
4, 8495, Note_on_c, 1, 59, 0
4, 8496, Note_on_c, 1, 55, 64
4, 8519, Note_on_c, 1, 55, 0
4, 8520, Note_on_c, 1, 59, 64
4, 8543, Note_on_c, 1, 59, 0
4, 8544, Note_on_c, 1, 54, 64
4, 8567, Note_on_c, 1, 54, 0
4, 8568, Note_on_c, 1, 59, 64
4, 8591, Note_on_c, 1, 59, 0
4, 8592, Note_on_c, 1, 55, 64
4, 8615, Note_on_c, 1, 55, 0
4, 8616, Note_on_c, 1, 59, 64
4, 8639, Note_on_c, 1, 59, 0
4, 8640, Note_on_c, 1, 47, 64
4, 8729, Note_on_c, 1, 47, 0
4, 8832, Note_on_c, 1, 49, 64
4, 8855, Note_on_c, 1, 49, 0
4, 8856, Note_on_c, 1, 57, 64
4, 8879, Note_on_c, 1, 57, 0
4, 8880, Note_on_c, 1, 52, 64
4, 8903, Note_on_c, 1, 52, 0
4, 8904, Note_on_c, 1, 57, 64
4, 8927, Note_on_c, 1, 57, 0
4, 8928, Note_on_c, 1, 50, 64
4, 8951, Note_on_c, 1, 50, 0
4, 8952, Note_on_c, 1, 57, 64
4, 8975, Note_on_c, 1, 57, 0
4, 8976, Note_on_c, 1, 53, 64
4, 8999, Note_on_c, 1, 53, 0
4, 9000, Note_on_c, 1, 57, 64
4, 9023, Note_on_c, 1, 57, 0
4, 9024, Note_on_c, 1, 47, 64
4, 9047, Note_on_c, 1, 47, 0
4, 9048, Note_on_c, 1, 55, 64
4, 9071, Note_on_c, 1, 55, 0
4, 9072, Note_on_c, 1, 50, 64
4, 9095, Note_on_c, 1, 50, 0
4, 9096, Note_on_c, 1, 55, 64
4, 9119, Note_on_c, 1, 55, 0
4, 9120, Note_on_c, 1, 48, 64
4, 9143, Note_on_c, 1, 48, 0
4, 9144, Note_on_c, 1, 55, 64
4, 9167, Note_on_c, 1, 55, 0
4, 9168, Note_on_c, 1, 52, 64
4, 9191, Note_on_c, 1, 52, 0
4, 9192, Note_on_c, 1, 55, 64
4, 9215, Note_on_c, 1, 55, 0
4, 9216, Note_on_c, 1, 47, 64
4, 9239, Note_on_c, 1, 47, 0
4, 9240, Note_on_c, 1, 54, 64
4, 9263, Note_on_c, 1, 54, 0
4, 9264, Note_on_c, 1, 51, 64
4, 9287, Note_on_c, 1, 51, 0
4, 9288, Note_on_c, 1, 54, 64
4, 9311, Note_on_c, 1, 54, 0
4, 9312, Note_on_c, 1, 47, 64
4, 9335, Note_on_c, 1, 47, 0
4, 9336, Note_on_c, 1, 55, 64
4, 9359, Note_on_c, 1, 55, 0
4, 9360, Note_on_c, 1, 52, 64
4, 9383, Note_on_c, 1, 52, 0
4, 9384, Note_on_c, 1, 55, 64
4, 9407, Note_on_c, 1, 55, 0
4, 9408, Note_on_c, 1, 47, 64
4, 9431, Note_on_c, 1, 47, 0
4, 9432, Note_on_c, 1, 58, 64
4, 9455, Note_on_c, 1, 58, 0
4, 9456, Note_on_c, 1, 59, 64
4, 9479, Note_on_c, 1, 59, 0
4, 9480, Note_on_c, 1, 58, 64
4, 9503, Note_on_c, 1, 58, 0
4, 9504, Note_on_c, 1, 59, 64
4, 9527, Note_on_c, 1, 59, 0
4, 9528, Note_on_c, 1, 57, 64
4, 9551, Note_on_c, 1, 57, 0
4, 9552, Note_on_c, 1, 55, 64
4, 9575, Note_on_c, 1, 55, 0
4, 9576, Note_on_c, 1, 54, 64
4, 9599, Note_on_c, 1, 54, 0
4, 9600, Note_on_c, 1, 52, 64
4, 9623, Note_on_c, 1, 52, 0
4, 9624, Note_on_c, 1, 59, 64
4, 9647, Note_on_c, 1, 59, 0
4, 9648, Note_on_c, 1, 55, 64
4, 9671, Note_on_c, 1, 55, 0
4, 9672, Note_on_c, 1, 59, 64
4, 9695, Note_on_c, 1, 59, 0
4, 9696, Note_on_c, 1, 52, 64
4, 9719, Note_on_c, 1, 52, 0
4, 9720, Note_on_c, 1, 59, 64
4, 9743, Note_on_c, 1, 59, 0
4, 9744, Note_on_c, 1, 55, 64
4, 9767, Note_on_c, 1, 55, 0
4, 9768, Note_on_c, 1, 59, 64
4, 9791, Note_on_c, 1, 59, 0
4, 9792, Note_on_c, 1, 47, 64
4, 9815, Note_on_c, 1, 47, 0
4, 9816, Note_on_c, 1, 59, 64
4, 9839, Note_on_c, 1, 59, 0
4, 9840, Note_on_c, 1, 54, 64
4, 9863, Note_on_c, 1, 54, 0
4, 9864, Note_on_c, 1, 59, 64
4, 9887, Note_on_c, 1, 59, 0
4, 9888, Note_on_c, 1, 47, 64
4, 9911, Note_on_c, 1, 47, 0
4, 9912, Note_on_c, 1, 59, 64
4, 9935, Note_on_c, 1, 59, 0
4, 9936, Note_on_c, 1, 55, 64
4, 9959, Note_on_c, 1, 55, 0
4, 9960, Note_on_c, 1, 59, 64
4, 9983, Note_on_c, 1, 59, 0
4, 9984, Note_on_c, 1, 48, 64
4, 10007, Note_on_c, 1, 48, 0
4, 10008, Note_on_c, 1, 57, 64
4, 10031, Note_on_c, 1, 57, 0
4, 10032, Note_on_c, 1, 52, 65
4, 10055, Note_on_c, 1, 52, 0
4, 10056, Note_on_c, 1, 57, 66
4, 10079, Note_on_c, 1, 57, 0
4, 10080, Note_on_c, 1, 50, 66
4, 10103, Note_on_c, 1, 50, 0
4, 10104, Note_on_c, 1, 60, 67
4, 10127, Note_on_c, 1, 60, 0
4, 10128, Note_on_c, 1, 54, 68
4, 10151, Note_on_c, 1, 54, 0
4, 10152, Note_on_c, 1, 60, 68
4, 10175, Note_on_c, 1, 60, 0
4, 10176, Note_on_c, 1, 55, 69
4, 10199, Note_on_c, 1, 55, 0
4, 10200, Note_on_c, 1, 43, 70
4, 10223, Note_on_c, 1, 43, 0
4, 10224, Note_on_c, 1, 47, 70
4, 10247, Note_on_c, 1, 47, 0
4, 10248, Note_on_c, 1, 50, 70
4, 10271, Note_on_c, 1, 50, 0
4, 10272, Note_on_c, 1, 55, 70
4, 10317, Note_on_c, 1, 55, 0
4, 10416, Note_on_c, 1, 53, 70
4, 10416, Note_on_c, 1, 50, 70
4, 10416, Note_on_c, 1, 47, 70
4, 10416, Note_on_c, 1, 43, 70
4, 10461, Note_on_c, 1, 53, 0
4, 10461, Note_on_c, 1, 50, 0
4, 10461, Note_on_c, 1, 47, 0
4, 10461, Note_on_c, 1, 43, 0
4, 10512, Note_on_c, 1, 53, 70
4, 10512, Note_on_c, 1, 50, 70
4, 10512, Note_on_c, 1, 47, 70
4, 10512, Note_on_c, 1, 43, 70
4, 10557, Note_on_c, 1, 53, 0
4, 10557, Note_on_c, 1, 50, 0
4, 10557, Note_on_c, 1, 47, 0
4, 10557, Note_on_c, 1, 43, 0
4, 10560, Note_on_c, 1, 52, 70
4, 10583, Note_on_c, 1, 52, 0
4, 10584, Note_on_c, 1, 48, 70
4, 10607, Note_on_c, 1, 48, 0
4, 10608, Note_on_c, 1, 43, 70
4, 10631, Note_on_c, 1, 43, 0
4, 10632, Note_on_c, 1, 40, 70
4, 10655, Note_on_c, 1, 40, 0
4, 10656, Note_on_c, 1, 48, 70
4, 10656, Note_on_c, 1, 36, 70
4, 10679, Note_on_c, 1, 48, 0
4, 10679, Note_on_c, 1, 36, 0
4, 10680, Note_on_c, 1, 43, 70
4, 10680, Note_on_c, 1, 31, 70
4, 10703, Note_on_c, 1, 43, 0
4, 10703, Note_on_c, 1, 31, 0
4, 10704, Note_on_c, 1, 40, 70
4, 10727, Note_on_c, 1, 40, 0
4, 10728, Note_on_c, 1, 36, 70
4, 10751, Note_on_c, 1, 36, 0
4, 10800, Note_on_c, 1, 55, 70
4, 10800, Note_on_c, 1, 52, 70
4, 10800, Note_on_c, 1, 49, 70
4, 10800, Note_on_c, 1, 45, 70
4, 10845, Note_on_c, 1, 55, 0
4, 10845, Note_on_c, 1, 52, 0
4, 10845, Note_on_c, 1, 49, 0
4, 10845, Note_on_c, 1, 45, 0
4, 10896, Note_on_c, 1, 55, 70
4, 10896, Note_on_c, 1, 52, 70
4, 10896, Note_on_c, 1, 49, 70
4, 10896, Note_on_c, 1, 45, 70
4, 10941, Note_on_c, 1, 55, 0
4, 10941, Note_on_c, 1, 52, 0
4, 10941, Note_on_c, 1, 49, 0
4, 10941, Note_on_c, 1, 45, 0
4, 10944, Note_on_c, 1, 54, 70
4, 10967, Note_on_c, 1, 54, 0
4, 10968, Note_on_c, 1, 50, 70
4, 10991, Note_on_c, 1, 50, 0
4, 10992, Note_on_c, 1, 45, 70
4, 11015, Note_on_c, 1, 45, 0
4, 11016, Note_on_c, 1, 42, 70
4, 11039, Note_on_c, 1, 42, 0
4, 11040, Note_on_c, 1, 50, 70
4, 11040, Note_on_c, 1, 38, 70
4, 11063, Note_on_c, 1, 50, 0
4, 11063, Note_on_c, 1, 38, 0
4, 11064, Note_on_c, 1, 45, 70
4, 11064, Note_on_c, 1, 33, 70
4, 11087, Note_on_c, 1, 45, 0
4, 11087, Note_on_c, 1, 33, 0
4, 11088, Note_on_c, 1, 42, 70
4, 11088, Note_on_c, 1, 30, 70
4, 11111, Note_on_c, 1, 42, 0
4, 11111, Note_on_c, 1, 30, 0
4, 11112, Note_on_c, 1, 38, 70
4, 11135, Note_on_c, 1, 38, 0
4, 11136, Note_on_c, 1, 47, 64
4, 11159, Note_on_c, 1, 47, 0
4, 11160, Note_on_c, 1, 55, 64
4, 11183, Note_on_c, 1, 55, 0
4, 11184, Note_on_c, 1, 50, 64
4, 11207, Note_on_c, 1, 50, 0
4, 11208, Note_on_c, 1, 55, 64
4, 11231, Note_on_c, 1, 55, 0
4, 11232, Note_on_c, 1, 47, 64
4, 11255, Note_on_c, 1, 47, 0
4, 11256, Note_on_c, 1, 55, 64
4, 11279, Note_on_c, 1, 55, 0
4, 11280, Note_on_c, 1, 50, 64
4, 11303, Note_on_c, 1, 50, 0
4, 11304, Note_on_c, 1, 55, 64
4, 11327, Note_on_c, 1, 55, 0
4, 11328, Note_on_c, 1, 38, 64
4, 11351, Note_on_c, 1, 38, 0
4, 11352, Note_on_c, 1, 45, 64
4, 11375, Note_on_c, 1, 45, 0
4, 11376, Note_on_c, 1, 42, 64
4, 11399, Note_on_c, 1, 42, 0
4, 11400, Note_on_c, 1, 45, 64
4, 11423, Note_on_c, 1, 45, 0
4, 11424, Note_on_c, 1, 38, 64
4, 11447, Note_on_c, 1, 38, 0
4, 11448, Note_on_c, 1, 45, 64
4, 11471, Note_on_c, 1, 45, 0
4, 11472, Note_on_c, 1, 42, 64
4, 11495, Note_on_c, 1, 42, 0
4, 11496, Note_on_c, 1, 45, 64
4, 11519, Note_on_c, 1, 45, 0
4, 11520, Note_on_c, 1, 43, 64
4, 11543, Note_on_c, 1, 43, 0
4, 11544, Note_on_c, 1, 50, 64
4, 11567, Note_on_c, 1, 50, 0
4, 11568, Note_on_c, 1, 47, 64
4, 11591, Note_on_c, 1, 47, 0
4, 11592, Note_on_c, 1, 50, 64
4, 11615, Note_on_c, 1, 50, 0
4, 11616, Note_on_c, 1, 45, 64
4, 11639, Note_on_c, 1, 45, 0
4, 11640, Note_on_c, 1, 50, 64
4, 11663, Note_on_c, 1, 50, 0
4, 11664, Note_on_c, 1, 47, 64
4, 11687, Note_on_c, 1, 47, 0
4, 11688, Note_on_c, 1, 50, 64
4, 11711, Note_on_c, 1, 50, 0
4, 11712, Note_on_c, 1, 38, 64
4, 11801, Note_on_c, 1, 38, 0
4, 11904, Note_on_c, 1, 47, 64
4, 11927, Note_on_c, 1, 47, 0
4, 11928, Note_on_c, 1, 55, 64
4, 11951, Note_on_c, 1, 55, 0
4, 11952, Note_on_c, 1, 50, 64
4, 11975, Note_on_c, 1, 50, 0
4, 11976, Note_on_c, 1, 55, 64
4, 11999, Note_on_c, 1, 55, 0
4, 12000, Note_on_c, 1, 47, 64
4, 12023, Note_on_c, 1, 47, 0
4, 12024, Note_on_c, 1, 55, 64
4, 12047, Note_on_c, 1, 55, 0
4, 12048, Note_on_c, 1, 50, 64
4, 12071, Note_on_c, 1, 50, 0
4, 12072, Note_on_c, 1, 55, 64
4, 12095, Note_on_c, 1, 55, 0
4, 12096, Note_on_c, 1, 45, 64
4, 12119, Note_on_c, 1, 45, 0
4, 12120, Note_on_c, 1, 54, 64
4, 12143, Note_on_c, 1, 54, 0
4, 12144, Note_on_c, 1, 50, 64
4, 12167, Note_on_c, 1, 50, 0
4, 12168, Note_on_c, 1, 54, 64
4, 12191, Note_on_c, 1, 54, 0
4, 12192, Note_on_c, 1, 45, 64
4, 12215, Note_on_c, 1, 45, 0
4, 12216, Note_on_c, 1, 54, 64
4, 12239, Note_on_c, 1, 54, 0
4, 12240, Note_on_c, 1, 50, 64
4, 12263, Note_on_c, 1, 50, 0
4, 12264, Note_on_c, 1, 54, 64
4, 12287, Note_on_c, 1, 54, 0
4, 12288, Note_on_c, 1, 55, 75
4, 12377, Note_on_c, 1, 55, 0
4, 12384, Note_on_c, 1, 67, 75
4, 12384, Note_on_c, 1, 57, 75
4, 12473, Note_on_c, 1, 67, 0
4, 12473, Note_on_c, 1, 57, 0
4, 12480, Note_on_c, 1, 66, 75
4, 12480, Note_on_c, 1, 50, 75
4, 12569, Note_on_c, 1, 66, 0
4, 12569, Note_on_c, 1, 50, 0
4, 12672, Note_on_c, 1, 69, 75
4, 12672, Note_on_c, 1, 66, 75
4, 12761, Note_on_c, 1, 69, 0
4, 12761, Note_on_c, 1, 66, 0
4, 12768, Note_on_c, 1, 67, 73
4, 12768, Note_on_c, 1, 64, 73
4, 12857, Note_on_c, 1, 67, 0
4, 12857, Note_on_c, 1, 64, 0
4, 12864, Note_on_c, 1, 66, 71
4, 12864, Note_on_c, 1, 63, 71
4, 12953, Note_on_c, 1, 66, 0
4, 12953, Note_on_c, 1, 63, 0
4, 13056, Note_on_c, 1, 52, 64
4, 13079, Note_on_c, 1, 52, 0
4, 13080, Note_on_c, 1, 59, 64
4, 13103, Note_on_c, 1, 59, 0
4, 13104, Note_on_c, 1, 55, 64
4, 13127, Note_on_c, 1, 55, 0
4, 13128, Note_on_c, 1, 59, 64
4, 13151, Note_on_c, 1, 59, 0
4, 13152, Note_on_c, 1, 52, 64
4, 13175, Note_on_c, 1, 52, 0
4, 13176, Note_on_c, 1, 59, 64
4, 13199, Note_on_c, 1, 59, 0
4, 13200, Note_on_c, 1, 55, 64
4, 13223, Note_on_c, 1, 55, 0
4, 13224, Note_on_c, 1, 59, 64
4, 13247, Note_on_c, 1, 59, 0
4, 13248, Note_on_c, 1, 47, 64
4, 13271, Note_on_c, 1, 47, 0
4, 13272, Note_on_c, 1, 59, 64
4, 13295, Note_on_c, 1, 59, 0
4, 13296, Note_on_c, 1, 54, 64
4, 13319, Note_on_c, 1, 54, 0
4, 13320, Note_on_c, 1, 59, 64
4, 13343, Note_on_c, 1, 59, 0
4, 13344, Note_on_c, 1, 47, 64
4, 13367, Note_on_c, 1, 47, 0
4, 13368, Note_on_c, 1, 59, 64
4, 13391, Note_on_c, 1, 59, 0
4, 13392, Note_on_c, 1, 54, 64
4, 13415, Note_on_c, 1, 54, 0
4, 13416, Note_on_c, 1, 59, 64
4, 13439, Note_on_c, 1, 59, 0
4, 13440, Note_on_c, 1, 52, 64
4, 13463, Note_on_c, 1, 52, 0
4, 13464, Note_on_c, 1, 59, 64
4, 13487, Note_on_c, 1, 59, 0
4, 13488, Note_on_c, 1, 55, 64
4, 13511, Note_on_c, 1, 55, 0
4, 13512, Note_on_c, 1, 59, 64
4, 13535, Note_on_c, 1, 59, 0
4, 13536, Note_on_c, 1, 54, 64
4, 13559, Note_on_c, 1, 54, 0
4, 13560, Note_on_c, 1, 59, 64
4, 13583, Note_on_c, 1, 59, 0
4, 13584, Note_on_c, 1, 55, 64
4, 13607, Note_on_c, 1, 55, 0
4, 13608, Note_on_c, 1, 59, 64
4, 13631, Note_on_c, 1, 59, 0
4, 13632, Note_on_c, 1, 47, 64
4, 13655, Note_on_c, 1, 47, 0
4, 13656, Note_on_c, 1, 58, 64
4, 13679, Note_on_c, 1, 58, 0
4, 13680, Note_on_c, 1, 59, 64
4, 13703, Note_on_c, 1, 59, 0
4, 13704, Note_on_c, 1, 58, 64
4, 13727, Note_on_c, 1, 58, 0
4, 13728, Note_on_c, 1, 59, 64
4, 13751, Note_on_c, 1, 59, 0
4, 13752, Note_on_c, 1, 57, 64
4, 13775, Note_on_c, 1, 57, 0
4, 13776, Note_on_c, 1, 55, 64
4, 13799, Note_on_c, 1, 55, 0
4, 13800, Note_on_c, 1, 54, 64
4, 13823, Note_on_c, 1, 54, 0
4, 13824, Note_on_c, 1, 52, 64
4, 13847, Note_on_c, 1, 52, 0
4, 13848, Note_on_c, 1, 59, 64
4, 13871, Note_on_c, 1, 59, 0
4, 13872, Note_on_c, 1, 55, 64
4, 13895, Note_on_c, 1, 55, 0
4, 13896, Note_on_c, 1, 59, 64
4, 13919, Note_on_c, 1, 59, 0
4, 13920, Note_on_c, 1, 52, 64
4, 13943, Note_on_c, 1, 52, 0
4, 13944, Note_on_c, 1, 59, 64
4, 13967, Note_on_c, 1, 59, 0
4, 13968, Note_on_c, 1, 55, 64
4, 13991, Note_on_c, 1, 55, 0
4, 13992, Note_on_c, 1, 59, 64
4, 14015, Note_on_c, 1, 59, 0
4, 14016, Note_on_c, 1, 47, 64
4, 14039, Note_on_c, 1, 47, 0
4, 14040, Note_on_c, 1, 59, 64
4, 14063, Note_on_c, 1, 59, 0
4, 14064, Note_on_c, 1, 54, 64
4, 14087, Note_on_c, 1, 54, 0
4, 14088, Note_on_c, 1, 59, 64
4, 14111, Note_on_c, 1, 59, 0
4, 14112, Note_on_c, 1, 47, 64
4, 14135, Note_on_c, 1, 47, 0
4, 14136, Note_on_c, 1, 59, 64
4, 14159, Note_on_c, 1, 59, 0
4, 14160, Note_on_c, 1, 55, 64
4, 14183, Note_on_c, 1, 55, 0
4, 14184, Note_on_c, 1, 59, 64
4, 14207, Note_on_c, 1, 59, 0
4, 14208, Note_on_c, 1, 57, 75
4, 14247, Note_on_c, 1, 57, 0
4, 14304, Note_on_c, 1, 59, 75
4, 14343, Note_on_c, 1, 59, 0
4, 14400, Note_on_c, 1, 60, 75
4, 14489, Note_on_c, 1, 60, 0
4, 14544, Note_on_c, 1, 56, 75
4, 14589, Note_on_c, 1, 56, 0
4, 14592, Note_on_c, 1, 57, 75
4, 14631, Note_on_c, 1, 57, 0
4, 14688, Note_on_c, 1, 52, 75
4, 14727, Note_on_c, 1, 52, 0
4, 14784, Note_on_c, 1, 53, 75
4, 14873, Note_on_c, 1, 53, 0
4, 14976, Note_on_c, 1, 46, 64
4, 14999, Note_on_c, 1, 46, 0
4, 15000, Note_on_c, 1, 55, 64
4, 15023, Note_on_c, 1, 55, 0
4, 15024, Note_on_c, 1, 50, 64
4, 15047, Note_on_c, 1, 50, 0
4, 15048, Note_on_c, 1, 55, 64
4, 15071, Note_on_c, 1, 55, 0
4, 15072, Note_on_c, 1, 43, 64
4, 15095, Note_on_c, 1, 43, 0
4, 15096, Note_on_c, 1, 52, 64
4, 15119, Note_on_c, 1, 52, 0
4, 15120, Note_on_c, 1, 46, 64
4, 15143, Note_on_c, 1, 46, 0
4, 15144, Note_on_c, 1, 52, 64
4, 15167, Note_on_c, 1, 52, 0
4, 15168, Note_on_c, 1, 40, 64
4, 15191, Note_on_c, 1, 40, 0
4, 15192, Note_on_c, 1, 48, 64
4, 15215, Note_on_c, 1, 48, 0
4, 15216, Note_on_c, 1, 43, 64
4, 15239, Note_on_c, 1, 43, 0
4, 15240, Note_on_c, 1, 48, 64
4, 15263, Note_on_c, 1, 48, 0
4, 15264, Note_on_c, 1, 41, 64
4, 15287, Note_on_c, 1, 41, 0
4, 15288, Note_on_c, 1, 48, 64
4, 15311, Note_on_c, 1, 48, 0
4, 15312, Note_on_c, 1, 45, 64
4, 15335, Note_on_c, 1, 45, 0
4, 15336, Note_on_c, 1, 48, 64
4, 15359, Note_on_c, 1, 48, 0
4, 15360, Note_on_c, 1, 62, 64
4, 15360, Note_on_c, 1, 46, 64
4, 15449, Note_on_c, 1, 62, 0
4, 15449, Note_on_c, 1, 46, 0
4, 15456, Note_on_c, 1, 55, 64
4, 15501, Note_on_c, 1, 55, 0
4, 15504, Note_on_c, 1, 57, 64
4, 15549, Note_on_c, 1, 57, 0
4, 15552, Note_on_c, 1, 48, 64
4, 15575, Note_on_c, 1, 48, 0
4, 15576, Note_on_c, 1, 59, 64
4, 15599, Note_on_c, 1, 59, 0
4, 15600, Note_on_c, 1, 60, 64
4, 15623, Note_on_c, 1, 60, 0
4, 15624, Note_on_c, 1, 59, 64
4, 15647, Note_on_c, 1, 59, 0
4, 15648, Note_on_c, 1, 60, 64
4, 15693, Note_on_c, 1, 60, 0
4, 15696, Note_on_c, 1, 48, 80
4, 15696, Note_on_c, 1, 36, 80
4, 15741, Note_on_c, 1, 48, 0
4, 15741, Note_on_c, 1, 36, 0
4, 15744, Note_on_c, 1, 53, 80
4, 15744, Note_on_c, 1, 41, 80
4, 15764, Note_on_c, 1, 53, 0
4, 15764, Note_on_c, 1, 41, 0
4, 15792, Note_on_c, 1, 57, 80
4, 15792, Note_on_c, 1, 45, 80
4, 15812, Note_on_c, 1, 57, 0
4, 15812, Note_on_c, 1, 45, 0
4, 15840, Note_on_c, 1, 55, 80
4, 15840, Note_on_c, 1, 43, 80
4, 15860, Note_on_c, 1, 55, 0
4, 15860, Note_on_c, 1, 43, 0
4, 15888, Note_on_c, 1, 53, 80
4, 15888, Note_on_c, 1, 41, 80
4, 15908, Note_on_c, 1, 53, 0
4, 15908, Note_on_c, 1, 41, 0
4, 15936, Note_on_c, 1, 52, 80
4, 15936, Note_on_c, 1, 40, 80
4, 15956, Note_on_c, 1, 52, 0
4, 15956, Note_on_c, 1, 40, 0
4, 15984, Note_on_c, 1, 61, 80
4, 15984, Note_on_c, 1, 49, 80
4, 16004, Note_on_c, 1, 61, 0
4, 16004, Note_on_c, 1, 49, 0
4, 16032, Note_on_c, 1, 60, 80
4, 16032, Note_on_c, 1, 48, 80
4, 16052, Note_on_c, 1, 60, 0
4, 16052, Note_on_c, 1, 48, 0
4, 16080, Note_on_c, 1, 58, 80
4, 16080, Note_on_c, 1, 46, 80
4, 16100, Note_on_c, 1, 58, 0
4, 16100, Note_on_c, 1, 46, 0
4, 16128, Note_on_c, 1, 57, 80
4, 16128, Note_on_c, 1, 45, 80
4, 16167, Note_on_c, 1, 57, 0
4, 16167, Note_on_c, 1, 45, 0
4, 16224, Note_on_c, 1, 60, 80
4, 16224, Note_on_c, 1, 48, 80
4, 16263, Note_on_c, 1, 60, 0
4, 16263, Note_on_c, 1, 48, 0
4, 16320, Note_on_c, 1, 53, 80
4, 16320, Note_on_c, 1, 41, 80
4, 16409, Note_on_c, 1, 53, 0
4, 16409, Note_on_c, 1, 41, 0
4, 16512, Note_on_c, 1, 52, 64
4, 16535, Note_on_c, 1, 52, 0
4, 16536, Note_on_c, 1, 60, 64
4, 16559, Note_on_c, 1, 60, 0
4, 16560, Note_on_c, 1, 55, 64
4, 16583, Note_on_c, 1, 55, 0
4, 16584, Note_on_c, 1, 60, 64
4, 16607, Note_on_c, 1, 60, 0
4, 16608, Note_on_c, 1, 52, 64
4, 16631, Note_on_c, 1, 52, 0
4, 16632, Note_on_c, 1, 60, 64
4, 16655, Note_on_c, 1, 60, 0
4, 16656, Note_on_c, 1, 55, 65
4, 16679, Note_on_c, 1, 55, 0
4, 16680, Note_on_c, 1, 60, 65
4, 16703, Note_on_c, 1, 60, 0
4, 16704, Note_on_c, 1, 53, 65
4, 16727, Note_on_c, 1, 53, 0
4, 16728, Note_on_c, 1, 60, 65
4, 16751, Note_on_c, 1, 60, 0
4, 16752, Note_on_c, 1, 57, 65
4, 16775, Note_on_c, 1, 57, 0
4, 16776, Note_on_c, 1, 60, 66
4, 16799, Note_on_c, 1, 60, 0
4, 16800, Note_on_c, 1, 53, 66
4, 16823, Note_on_c, 1, 53, 0
4, 16824, Note_on_c, 1, 60, 66
4, 16847, Note_on_c, 1, 60, 0
4, 16848, Note_on_c, 1, 57, 66
4, 16871, Note_on_c, 1, 57, 0
4, 16872, Note_on_c, 1, 60, 66
4, 16895, Note_on_c, 1, 60, 0
4, 16896, Note_on_c, 1, 54, 67
4, 16919, Note_on_c, 1, 54, 0
4, 16920, Note_on_c, 1, 62, 67
4, 16943, Note_on_c, 1, 62, 0
4, 16944, Note_on_c, 1, 57, 67
4, 16967, Note_on_c, 1, 57, 0
4, 16968, Note_on_c, 1, 62, 67
4, 16991, Note_on_c, 1, 62, 0
4, 16992, Note_on_c, 1, 54, 67
4, 17015, Note_on_c, 1, 54, 0
4, 17016, Note_on_c, 1, 62, 68
4, 17039, Note_on_c, 1, 62, 0
4, 17040, Note_on_c, 1, 57, 68
4, 17063, Note_on_c, 1, 57, 0
4, 17064, Note_on_c, 1, 62, 68
4, 17087, Note_on_c, 1, 62, 0
4, 17088, Note_on_c, 1, 55, 68
4, 17111, Note_on_c, 1, 55, 0
4, 17112, Note_on_c, 1, 62, 68
4, 17135, Note_on_c, 1, 62, 0
4, 17136, Note_on_c, 1, 59, 69
4, 17159, Note_on_c, 1, 59, 0
4, 17160, Note_on_c, 1, 62, 69
4, 17183, Note_on_c, 1, 62, 0
4, 17184, Note_on_c, 1, 55, 69
4, 17207, Note_on_c, 1, 55, 0
4, 17208, Note_on_c, 1, 62, 69
4, 17231, Note_on_c, 1, 62, 0
4, 17232, Note_on_c, 1, 59, 69
4, 17255, Note_on_c, 1, 59, 0
4, 17256, Note_on_c, 1, 62, 70
4, 17279, Note_on_c, 1, 62, 0
4, 17280, Note_on_c, 1, 56, 70
4, 17303, Note_on_c, 1, 56, 0
4, 17304, Note_on_c, 1, 64, 70
4, 17327, Note_on_c, 1, 64, 0
4, 17328, Note_on_c, 1, 59, 70
4, 17351, Note_on_c, 1, 59, 0
4, 17352, Note_on_c, 1, 64, 70
4, 17375, Note_on_c, 1, 64, 0
4, 17376, Note_on_c, 1, 56, 71
4, 17399, Note_on_c, 1, 56, 0
4, 17400, Note_on_c, 1, 64, 71
4, 17423, Note_on_c, 1, 64, 0
4, 17424, Note_on_c, 1, 59, 71
4, 17447, Note_on_c, 1, 59, 0
4, 17448, Note_on_c, 1, 64, 71
4, 17471, Note_on_c, 1, 64, 0
4, 17472, Note_on_c, 1, 57, 71
4, 17495, Note_on_c, 1, 57, 0
4, 17496, Note_on_c, 1, 64, 72
4, 17519, Note_on_c, 1, 64, 0
4, 17520, Note_on_c, 1, 60, 72
4, 17543, Note_on_c, 1, 60, 0
4, 17544, Note_on_c, 1, 64, 72
4, 17567, Note_on_c, 1, 64, 0
4, 17568, Note_on_c, 1, 57, 72
4, 17591, Note_on_c, 1, 57, 0
4, 17592, Note_on_c, 1, 65, 72
4, 17615, Note_on_c, 1, 65, 0
4, 17616, Note_on_c, 1, 60, 73
4, 17639, Note_on_c, 1, 60, 0
4, 17640, Note_on_c, 1, 65, 73
4, 17663, Note_on_c, 1, 65, 0
4, 17664, Note_on_c, 1, 57, 73
4, 17687, Note_on_c, 1, 57, 0
4, 17688, Note_on_c, 1, 65, 73
4, 17711, Note_on_c, 1, 65, 0
4, 17712, Note_on_c, 1, 60, 73
4, 17735, Note_on_c, 1, 60, 0
4, 17736, Note_on_c, 1, 65, 74
4, 17759, Note_on_c, 1, 65, 0
4, 17760, Note_on_c, 1, 57, 74
4, 17783, Note_on_c, 1, 57, 0
4, 17784, Note_on_c, 1, 65, 74
4, 17807, Note_on_c, 1, 65, 0
4, 17808, Note_on_c, 1, 45, 74
4, 17831, Note_on_c, 1, 45, 0
4, 17832, Note_on_c, 1, 48, 74
4, 17855, Note_on_c, 1, 48, 0
4, 17856, Note_on_c, 1, 57, 75
4, 17856, Note_on_c, 1, 45, 75
4, 17945, Note_on_c, 1, 57, 0
4, 17945, Note_on_c, 1, 45, 0
4, 18816, Note_on_c, 1, 52, 64
4, 18839, Note_on_c, 1, 52, 0
4, 18840, Note_on_c, 1, 59, 64
4, 18863, Note_on_c, 1, 59, 0
4, 18864, Note_on_c, 1, 55, 64
4, 18887, Note_on_c, 1, 55, 0
4, 18888, Note_on_c, 1, 59, 64
4, 18911, Note_on_c, 1, 59, 0
4, 18912, Note_on_c, 1, 52, 64
4, 18935, Note_on_c, 1, 52, 0
4, 18936, Note_on_c, 1, 59, 64
4, 18959, Note_on_c, 1, 59, 0
4, 18960, Note_on_c, 1, 55, 64
4, 18983, Note_on_c, 1, 55, 0
4, 18984, Note_on_c, 1, 59, 64
4, 19007, Note_on_c, 1, 59, 0
4, 19008, Note_on_c, 1, 47, 64
4, 19031, Note_on_c, 1, 47, 0
4, 19032, Note_on_c, 1, 59, 64
4, 19055, Note_on_c, 1, 59, 0
4, 19056, Note_on_c, 1, 54, 64
4, 19079, Note_on_c, 1, 54, 0
4, 19080, Note_on_c, 1, 59, 64
4, 19103, Note_on_c, 1, 59, 0
4, 19104, Note_on_c, 1, 47, 64
4, 19127, Note_on_c, 1, 47, 0
4, 19128, Note_on_c, 1, 59, 64
4, 19151, Note_on_c, 1, 59, 0
4, 19152, Note_on_c, 1, 54, 64
4, 19175, Note_on_c, 1, 54, 0
4, 19176, Note_on_c, 1, 59, 64
4, 19199, Note_on_c, 1, 59, 0
4, 19200, Note_on_c, 1, 52, 64
4, 19223, Note_on_c, 1, 52, 0
4, 19224, Note_on_c, 1, 59, 64
4, 19247, Note_on_c, 1, 59, 0
4, 19248, Note_on_c, 1, 55, 64
4, 19271, Note_on_c, 1, 55, 0
4, 19272, Note_on_c, 1, 59, 64
4, 19295, Note_on_c, 1, 59, 0
4, 19296, Note_on_c, 1, 54, 64
4, 19319, Note_on_c, 1, 54, 0
4, 19320, Note_on_c, 1, 59, 64
4, 19343, Note_on_c, 1, 59, 0
4, 19344, Note_on_c, 1, 55, 64
4, 19367, Note_on_c, 1, 55, 0
4, 19368, Note_on_c, 1, 59, 64
4, 19391, Note_on_c, 1, 59, 0
4, 19392, Note_on_c, 1, 47, 64
4, 19481, Note_on_c, 1, 47, 0
4, 19584, Note_on_c, 1, 49, 64
4, 19607, Note_on_c, 1, 49, 0
4, 19608, Note_on_c, 1, 57, 64
4, 19631, Note_on_c, 1, 57, 0
4, 19632, Note_on_c, 1, 52, 64
4, 19655, Note_on_c, 1, 52, 0
4, 19656, Note_on_c, 1, 57, 64
4, 19679, Note_on_c, 1, 57, 0
4, 19680, Note_on_c, 1, 50, 64
4, 19703, Note_on_c, 1, 50, 0
4, 19704, Note_on_c, 1, 57, 64
4, 19727, Note_on_c, 1, 57, 0
4, 19728, Note_on_c, 1, 53, 64
4, 19751, Note_on_c, 1, 53, 0
4, 19752, Note_on_c, 1, 57, 64
4, 19775, Note_on_c, 1, 57, 0
4, 19776, Note_on_c, 1, 47, 64
4, 19799, Note_on_c, 1, 47, 0
4, 19800, Note_on_c, 1, 55, 64
4, 19823, Note_on_c, 1, 55, 0
4, 19824, Note_on_c, 1, 50, 64
4, 19847, Note_on_c, 1, 50, 0
4, 19848, Note_on_c, 1, 55, 64
4, 19871, Note_on_c, 1, 55, 0
4, 19872, Note_on_c, 1, 48, 64
4, 19895, Note_on_c, 1, 48, 0
4, 19896, Note_on_c, 1, 55, 64
4, 19919, Note_on_c, 1, 55, 0
4, 19920, Note_on_c, 1, 52, 64
4, 19943, Note_on_c, 1, 52, 0
4, 19944, Note_on_c, 1, 55, 64
4, 19967, Note_on_c, 1, 55, 0
4, 19968, Note_on_c, 1, 47, 64
4, 19991, Note_on_c, 1, 47, 0
4, 19992, Note_on_c, 1, 54, 64
4, 20015, Note_on_c, 1, 54, 0
4, 20016, Note_on_c, 1, 51, 64
4, 20039, Note_on_c, 1, 51, 0
4, 20040, Note_on_c, 1, 54, 64
4, 20063, Note_on_c, 1, 54, 0
4, 20064, Note_on_c, 1, 47, 64
4, 20087, Note_on_c, 1, 47, 0
4, 20088, Note_on_c, 1, 55, 64
4, 20111, Note_on_c, 1, 55, 0
4, 20112, Note_on_c, 1, 52, 64
4, 20135, Note_on_c, 1, 52, 0
4, 20136, Note_on_c, 1, 55, 64
4, 20159, Note_on_c, 1, 55, 0
4, 20160, Note_on_c, 1, 47, 64
4, 20183, Note_on_c, 1, 47, 0
4, 20184, Note_on_c, 1, 58, 64
4, 20207, Note_on_c, 1, 58, 0
4, 20208, Note_on_c, 1, 59, 64
4, 20231, Note_on_c, 1, 59, 0
4, 20232, Note_on_c, 1, 58, 64
4, 20255, Note_on_c, 1, 58, 0
4, 20256, Note_on_c, 1, 59, 64
4, 20279, Note_on_c, 1, 59, 0
4, 20280, Note_on_c, 1, 57, 64
4, 20303, Note_on_c, 1, 57, 0
4, 20304, Note_on_c, 1, 55, 64
4, 20327, Note_on_c, 1, 55, 0
4, 20328, Note_on_c, 1, 54, 64
4, 20351, Note_on_c, 1, 54, 0
4, 20352, Note_on_c, 1, 52, 64
4, 20375, Note_on_c, 1, 52, 0
4, 20376, Note_on_c, 1, 59, 64
4, 20399, Note_on_c, 1, 59, 0
4, 20400, Note_on_c, 1, 55, 64
4, 20423, Note_on_c, 1, 55, 0
4, 20424, Note_on_c, 1, 59, 64
4, 20447, Note_on_c, 1, 59, 0
4, 20448, Note_on_c, 1, 52, 64
4, 20471, Note_on_c, 1, 52, 0
4, 20472, Note_on_c, 1, 59, 64
4, 20495, Note_on_c, 1, 59, 0
4, 20496, Note_on_c, 1, 55, 64
4, 20519, Note_on_c, 1, 55, 0
4, 20520, Note_on_c, 1, 59, 64
4, 20543, Note_on_c, 1, 59, 0
4, 20544, Note_on_c, 1, 47, 64
4, 20567, Note_on_c, 1, 47, 0
4, 20568, Note_on_c, 1, 59, 64
4, 20591, Note_on_c, 1, 59, 0
4, 20592, Note_on_c, 1, 54, 64
4, 20615, Note_on_c, 1, 54, 0
4, 20616, Note_on_c, 1, 59, 64
4, 20639, Note_on_c, 1, 59, 0
4, 20640, Note_on_c, 1, 47, 64
4, 20663, Note_on_c, 1, 47, 0
4, 20664, Note_on_c, 1, 59, 64
4, 20687, Note_on_c, 1, 59, 0
4, 20688, Note_on_c, 1, 54, 64
4, 20711, Note_on_c, 1, 54, 0
4, 20712, Note_on_c, 1, 59, 64
4, 20735, Note_on_c, 1, 59, 0
4, 20736, Note_on_c, 1, 59, 64
4, 20775, Note_on_c, 1, 59, 0
4, 20832, Note_on_c, 1, 59, 64
4, 20871, Note_on_c, 1, 59, 0
4, 20928, Note_on_c, 1, 52, 80
4, 20928, Note_on_c, 1, 40, 80
4, 21024, Note_on_c, 1, 52, 0
4, 21024, Note_on_c, 1, 40, 0
4, 21120, Note_on_c, 1, 51, 64
4, 21143, Note_on_c, 1, 51, 0
4, 21144, Note_on_c, 1, 60, 64
4, 21167, Note_on_c, 1, 60, 0
4, 21168, Note_on_c, 1, 57, 65
4, 21191, Note_on_c, 1, 57, 0
4, 21192, Note_on_c, 1, 60, 66
4, 21215, Note_on_c, 1, 60, 0
4, 21216, Note_on_c, 1, 52, 67
4, 21239, Note_on_c, 1, 52, 0
4, 21240, Note_on_c, 1, 59, 68
4, 21263, Note_on_c, 1, 59, 0
4, 21264, Note_on_c, 1, 55, 69
4, 21287, Note_on_c, 1, 55, 0
4, 21288, Note_on_c, 1, 59, 69
4, 21311, Note_on_c, 1, 59, 0
4, 21312, Note_on_c, 1, 48, 70
4, 21335, Note_on_c, 1, 48, 0
4, 21336, Note_on_c, 1, 57, 71
4, 21359, Note_on_c, 1, 57, 0
4, 21360, Note_on_c, 1, 54, 72
4, 21383, Note_on_c, 1, 54, 0
4, 21384, Note_on_c, 1, 57, 73
4, 21407, Note_on_c, 1, 57, 0
4, 21408, Note_on_c, 1, 39, 74
4, 21431, Note_on_c, 1, 39, 0
4, 21432, Note_on_c, 1, 48, 75
4, 21455, Note_on_c, 1, 48, 0
4, 21456, Note_on_c, 1, 42, 75
4, 21479, Note_on_c, 1, 42, 0
4, 21480, Note_on_c, 1, 48, 75
4, 21503, Note_on_c, 1, 48, 0
4, 21504, Note_on_c, 1, 52, 75
4, 21504, Note_on_c, 1, 47, 75
4, 21504, Note_on_c, 1, 43, 75
4, 21504, Note_on_c, 1, 40, 75
4, 21593, Note_on_c, 1, 52, 0
4, 21593, Note_on_c, 1, 47, 0
4, 21593, Note_on_c, 1, 43, 0
4, 21593, Note_on_c, 1, 40, 0
4, 21720, Note_on_c, 1, 59, 75
4, 21743, Note_on_c, 1, 59, 0
4, 21744, Note_on_c, 1, 58, 75
4, 21767, Note_on_c, 1, 58, 0
4, 21768, Note_on_c, 1, 59, 75
4, 21791, Note_on_c, 1, 59, 0
4, 21792, Note_on_c, 1, 47, 75
4, 21837, Note_on_c, 1, 47, 0
4, 21888, Note_on_c, 1, 52, 64
4, 21911, Note_on_c, 1, 52, 0
4, 21912, Note_on_c, 1, 59, 64
4, 21935, Note_on_c, 1, 59, 0
4, 21936, Note_on_c, 1, 55, 64
4, 21959, Note_on_c, 1, 55, 0
4, 21960, Note_on_c, 1, 59, 64
4, 21983, Note_on_c, 1, 59, 0
4, 21984, Note_on_c, 1, 52, 64
4, 22007, Note_on_c, 1, 52, 0
4, 22008, Note_on_c, 1, 59, 64
4, 22031, Note_on_c, 1, 59, 0
4, 22032, Note_on_c, 1, 55, 64
4, 22055, Note_on_c, 1, 55, 0
4, 22056, Note_on_c, 1, 59, 64
4, 22079, Note_on_c, 1, 59, 0
4, 22080, Note_on_c, 1, 47, 64
4, 22103, Note_on_c, 1, 47, 0
4, 22104, Note_on_c, 1, 59, 64
4, 22127, Note_on_c, 1, 59, 0
4, 22128, Note_on_c, 1, 54, 64
4, 22151, Note_on_c, 1, 54, 0
4, 22152, Note_on_c, 1, 59, 64
4, 22175, Note_on_c, 1, 59, 0
4, 22176, Note_on_c, 1, 47, 64
4, 22199, Note_on_c, 1, 47, 0
4, 22200, Note_on_c, 1, 59, 64
4, 22223, Note_on_c, 1, 59, 0
4, 22224, Note_on_c, 1, 54, 64
4, 22247, Note_on_c, 1, 54, 0
4, 22248, Note_on_c, 1, 59, 64
4, 22271, Note_on_c, 1, 59, 0
4, 22272, Note_on_c, 1, 57, 64
4, 22311, Note_on_c, 1, 57, 0
4, 22368, Note_on_c, 1, 59, 64
4, 22407, Note_on_c, 1, 59, 0
4, 22464, Note_on_c, 1, 52, 64
4, 22553, Note_on_c, 1, 52, 0
4, 22656, Note_on_c, 1, 52, 0
4, 22745, Note_on_c, 1, 52, 0
4, 22752, End_track
5, 0, Start_track
5, 0, Program_c, 1, 0
5, 0, Control_c, 1, 7, 127
5, 0, Control_c, 1, 10, 64
5, 22656, End_track
6, 0, Start_track
6, 0, Title_t, "Sonata I   Haydn  "
6, 0, End_track
0, 0, End_of_file
