0, 0, Header, 1, 6, 96
1, 0, Start_track
1, 0, Copyright_t, "Copyright  2000 <copyright holder>"
1, 0, Text_t, "Sonata I\015\012"
1, 0, Text_t, "Haydn\015\012"
1, 0, Sequencer_specific, 17, 68, 87, 77, 90, 86, 82, 83, 78, 32, 55, 46, 48, 46, 49, 48, 46, 48
1, 0, Time_signature, 4, 2, 24, 8
1, 0, Tempo, 800000
1, 0, Key_signature, -3, "major"
1, 54528, End_track
2, 0, Start_track
2, 0, Program_c, 0, 0
2, 0, Control_c, 0, 7, 127
2, 0, Control_c, 0, 10, 64
2, 0, Note_on_c, 0, 63, 64
2, 89, Note_on_c, 0, 63, 0
2, 96, Note_on_c, 0, 55, 64
2, 119, Note_on_c, 0, 55, 0
2, 120, Note_on_c, 0, 57, 64
2, 128, Note_on_c, 0, 57, 0
2, 128, Note_on_c, 0, 55, 64
2, 136, Note_on_c, 0, 55, 0
2, 136, Note_on_c, 0, 53, 64
2, 144, Note_on_c, 0, 53, 0
2, 144, Note_on_c, 0, 55, 64
2, 167, Note_on_c, 0, 55, 0
2, 168, Note_on_c, 0, 57, 64
2, 191, Note_on_c, 0, 57, 0
2, 192, Note_on_c, 0, 58, 64
2, 212, Note_on_c, 0, 58, 0
2, 240, Note_on_c, 0, 58, 64
2, 260, Note_on_c, 0, 58, 0
2, 288, Note_on_c, 0, 58, 64
2, 333, Note_on_c, 0, 58, 0
2, 336, Note_on_c, 0, 57, 64
2, 348, Note_on_c, 0, 57, 0
2, 348, Note_on_c, 0, 58, 64
2, 360, Note_on_c, 0, 58, 0
2, 360, Note_on_c, 0, 60, 64
2, 372, Note_on_c, 0, 60, 0
2, 372, Note_on_c, 0, 58, 64
2, 384, Note_on_c, 0, 58, 0
2, 384, Note_on_c, 0, 63, 64
2, 404, Note_on_c, 0, 63, 0
2, 432, Note_on_c, 0, 63, 67
2, 452, Note_on_c, 0, 63, 0
2, 480, Note_on_c, 0, 63, 71
2, 525, Note_on_c, 0, 63, 0
2, 528, Note_on_c, 0, 67, 75
2, 540, Note_on_c, 0, 67, 0
2, 540, Note_on_c, 0, 65, 75
2, 573, Note_on_c, 0, 65, 0
2, 576, Note_on_c, 0, 63, 72
2, 720, Note_on_c, 0, 63, 0
2, 720, Note_on_c, 0, 62, 66
2, 765, Note_on_c, 0, 62, 0
2, 768, Note_on_c, 0, 60, 80
2, 898, Note_on_c, 0, 60, 0
2, 900, Note_on_c, 0, 64, 64
2, 912, Note_on_c, 0, 64, 0
2, 912, Note_on_c, 0, 65, 64
2, 946, Note_on_c, 0, 65, 0
2, 948, Note_on_c, 0, 68, 64
2, 960, Note_on_c, 0, 68, 0
2, 960, Note_on_c, 0, 58, 80
2, 1090, Note_on_c, 0, 58, 0
2, 1092, Note_on_c, 0, 62, 64
2, 1104, Note_on_c, 0, 62, 0
2, 1104, Note_on_c, 0, 63, 64
2, 1138, Note_on_c, 0, 63, 0
2, 1140, Note_on_c, 0, 67, 64
2, 1152, Note_on_c, 0, 67, 0
2, 1152, Note_on_c, 0, 67, 64
2, 1200, Note_on_c, 0, 67, 0
2, 1200, Note_on_c, 0, 60, 67
2, 1234, Note_on_c, 0, 60, 0
2, 1236, Note_on_c, 0, 68, 69
2, 1248, Note_on_c, 0, 68, 0
2, 1248, Note_on_c, 0, 68, 70
2, 1315, Note_on_c, 0, 68, 0
2, 1320, Note_on_c, 0, 65, 70
2, 1332, Note_on_c, 0, 65, 0
2, 1332, Note_on_c, 0, 62, 69
2, 1344, Note_on_c, 0, 62, 0
2, 1344, Note_on_c, 0, 62, 69
2, 1440, Note_on_c, 0, 62, 0
2, 1440, Note_on_c, 0, 63, 65
2, 1485, Note_on_c, 0, 63, 0
2, 1536, Note_on_c, 0, 72, 80
2, 1666, Note_on_c, 0, 72, 0
2, 1668, Note_on_c, 0, 76, 64
2, 1680, Note_on_c, 0, 76, 0
2, 1680, Note_on_c, 0, 77, 64
2, 1714, Note_on_c, 0, 77, 0
2, 1716, Note_on_c, 0, 80, 64
2, 1728, Note_on_c, 0, 80, 0
2, 1728, Note_on_c, 0, 70, 80
2, 1858, Note_on_c, 0, 70, 0
2, 1860, Note_on_c, 0, 74, 64
2, 1872, Note_on_c, 0, 74, 0
2, 1872, Note_on_c, 0, 75, 64
2, 1906, Note_on_c, 0, 75, 0
2, 1908, Note_on_c, 0, 79, 64
2, 1920, Note_on_c, 0, 79, 0
2, 1920, Note_on_c, 0, 82, 64
2, 1943, Note_on_c, 0, 82, 0
2, 1944, Note_on_c, 0, 79, 65
2, 1956, Note_on_c, 0, 79, 0
2, 1956, Note_on_c, 0, 82, 66
2, 1968, Note_on_c, 0, 82, 0
2, 1968, Note_on_c, 0, 77, 66
2, 1980, Note_on_c, 0, 77, 0
2, 1980, Note_on_c, 0, 82, 67
2, 1992, Note_on_c, 0, 82, 0
2, 1992, Note_on_c, 0, 75, 68
2, 2004, Note_on_c, 0, 75, 0
2, 2004, Note_on_c, 0, 82, 68
2, 2016, Note_on_c, 0, 82, 0
2, 2016, Note_on_c, 0, 74, 69
2, 2028, Note_on_c, 0, 74, 0
2, 2028, Note_on_c, 0, 82, 70
2, 2040, Note_on_c, 0, 82, 0
2, 2040, Note_on_c, 0, 72, 70
2, 2052, Note_on_c, 0, 72, 0
2, 2052, Note_on_c, 0, 82, 71
2, 2064, Note_on_c, 0, 82, 0
2, 2064, Note_on_c, 0, 70, 72
2, 2076, Note_on_c, 0, 70, 0
2, 2076, Note_on_c, 0, 82, 72
2, 2088, Note_on_c, 0, 82, 0
2, 2088, Note_on_c, 0, 68, 73
2, 2100, Note_on_c, 0, 68, 0
2, 2100, Note_on_c, 0, 82, 74
2, 2112, Note_on_c, 0, 82, 0
2, 2112, Note_on_c, 0, 67, 74
2, 2135, Note_on_c, 0, 67, 0
2, 2136, Note_on_c, 0, 68, 76
2, 2148, Note_on_c, 0, 68, 0
2, 2148, Note_on_c, 0, 70, 76
2, 2160, Note_on_c, 0, 70, 0
2, 2160, Note_on_c, 0, 72, 77
2, 2172, Note_on_c, 0, 72, 0
2, 2172, Note_on_c, 0, 74, 78
2, 2184, Note_on_c, 0, 74, 0
2, 2184, Note_on_c, 0, 75, 78
2, 2196, Note_on_c, 0, 75, 0
2, 2196, Note_on_c, 0, 77, 79
2, 2208, Note_on_c, 0, 77, 0
2, 2208, Note_on_c, 0, 79, 80
2, 2223, Note_on_c, 0, 79, 0
2, 2244, Note_on_c, 0, 74, 80
2, 2256, Note_on_c, 0, 74, 0
2, 2256, Note_on_c, 0, 75, 80
2, 2262, Note_on_c, 0, 75, 0
2, 2262, Note_on_c, 0, 77, 80
2, 2268, Note_on_c, 0, 77, 0
2, 2268, Note_on_c, 0, 75, 80
2, 2290, Note_on_c, 0, 75, 0
2, 2292, Note_on_c, 0, 71, 80
2, 2304, Note_on_c, 0, 71, 0
2, 2304, Note_on_c, 0, 72, 80
2, 2349, Note_on_c, 0, 72, 0
2, 2352, Note_on_c, 0, 84, 80
2, 2352, Note_on_c, 0, 80, 80
2, 2397, Note_on_c, 0, 84, 0
2, 2397, Note_on_c, 0, 80, 0
2, 2436, Note_on_c, 0, 84, 80
2, 2436, Note_on_c, 0, 80, 80
2, 2448, Note_on_c, 0, 84, 0
2, 2448, Note_on_c, 0, 80, 0
2, 2448, Note_on_c, 0, 82, 79
2, 2448, Note_on_c, 0, 79, 79
2, 2482, Note_on_c, 0, 82, 0
2, 2482, Note_on_c, 0, 79, 0
2, 2484, Note_on_c, 0, 80, 76
2, 2484, Note_on_c, 0, 77, 76
2, 2496, Note_on_c, 0, 80, 0
2, 2496, Note_on_c, 0, 77, 0
2, 2496, Note_on_c, 0, 79, 76
2, 2496, Note_on_c, 0, 75, 76
2, 2541, Note_on_c, 0, 79, 0
2, 2541, Note_on_c, 0, 75, 0
2, 2544, Note_on_c, 0, 82, 73
2, 2544, Note_on_c, 0, 79, 73
2, 2589, Note_on_c, 0, 82, 0
2, 2589, Note_on_c, 0, 79, 0
2, 2640, Note_on_c, 0, 74, 70
2, 2640, Note_on_c, 0, 68, 70
2, 2685, Note_on_c, 0, 74, 0
2, 2685, Note_on_c, 0, 68, 0
2, 2688, Note_on_c, 0, 75, 70
2, 2688, Note_on_c, 0, 67, 70
2, 2784, Note_on_c, 0, 75, 0
2, 2784, Note_on_c, 0, 67, 0
2, 2784, Note_on_c, 0, 74, 70
2, 2829, Note_on_c, 0, 74, 0
2, 2832, Note_on_c, 0, 73, 70
2, 2877, Note_on_c, 0, 73, 0
2, 2880, Note_on_c, 0, 71, 70
2, 2928, Note_on_c, 0, 71, 0
2, 2928, Note_on_c, 0, 72, 70
2, 2973, Note_on_c, 0, 72, 0
2, 3072, Note_on_c, 0, 77, 70
2, 3117, Note_on_c, 0, 77, 0
2, 3120, Note_on_c, 0, 70, 70
2, 3213, Note_on_c, 0, 70, 0
2, 3216, Note_on_c, 0, 74, 70
2, 3222, Note_on_c, 0, 74, 0
2, 3222, Note_on_c, 0, 72, 70
2, 3239, Note_on_c, 0, 72, 0
2, 3240, Note_on_c, 0, 70, 70
2, 3263, Note_on_c, 0, 70, 0
2, 3264, Note_on_c, 0, 70, 70
2, 3287, Note_on_c, 0, 70, 0
2, 3288, Note_on_c, 0, 72, 70
2, 3300, Note_on_c, 0, 72, 0
2, 3300, Note_on_c, 0, 74, 71
2, 3312, Note_on_c, 0, 74, 0
2, 3312, Note_on_c, 0, 75, 71
2, 3324, Note_on_c, 0, 75, 0
2, 3324, Note_on_c, 0, 77, 72
2, 3336, Note_on_c, 0, 77, 0
2, 3336, Note_on_c, 0, 79, 72
2, 3348, Note_on_c, 0, 79, 0
2, 3348, Note_on_c, 0, 80, 72
2, 3360, Note_on_c, 0, 80, 0
2, 3360, Note_on_c, 0, 82, 73
2, 3405, Note_on_c, 0, 82, 0
2, 3456, Note_on_c, 0, 77, 70
2, 3501, Note_on_c, 0, 77, 0
2, 3504, Note_on_c, 0, 70, 70
2, 3597, Note_on_c, 0, 70, 0
2, 3600, Note_on_c, 0, 74, 70
2, 3606, Note_on_c, 0, 74, 0
2, 3606, Note_on_c, 0, 72, 70
2, 3623, Note_on_c, 0, 72, 0
2, 3624, Note_on_c, 0, 70, 70
2, 3647, Note_on_c, 0, 70, 0
2, 3648, Note_on_c, 0, 70, 70
2, 3671, Note_on_c, 0, 70, 0
2, 3672, Note_on_c, 0, 72, 70
2, 3684, Note_on_c, 0, 72, 0
2, 3684, Note_on_c, 0, 74, 71
2, 3696, Note_on_c, 0, 74, 0
2, 3696, Note_on_c, 0, 75, 71
2, 3708, Note_on_c, 0, 75, 0
2, 3708, Note_on_c, 0, 77, 72
2, 3720, Note_on_c, 0, 77, 0
2, 3720, Note_on_c, 0, 79, 72
2, 3732, Note_on_c, 0, 79, 0
2, 3732, Note_on_c, 0, 80, 72
2, 3744, Note_on_c, 0, 80, 0
2, 3744, Note_on_c, 0, 82, 73
2, 3789, Note_on_c, 0, 82, 0
2, 3816, Note_on_c, 0, 82, 75
2, 3839, Note_on_c, 0, 82, 0
2, 3840, Note_on_c, 0, 87, 91
2, 3911, Note_on_c, 0, 87, 0
2, 3912, Note_on_c, 0, 86, 75
2, 3918, Note_on_c, 0, 86, 0
2, 3918, Note_on_c, 0, 84, 75
2, 3924, Note_on_c, 0, 84, 0
2, 3924, Note_on_c, 0, 82, 75
2, 3930, Note_on_c, 0, 82, 0
2, 3930, Note_on_c, 0, 80, 75
2, 3936, Note_on_c, 0, 80, 0
2, 3936, Note_on_c, 0, 86, 91
2, 4007, Note_on_c, 0, 86, 0
2, 4008, Note_on_c, 0, 84, 75
2, 4014, Note_on_c, 0, 84, 0
2, 4014, Note_on_c, 0, 82, 75
2, 4020, Note_on_c, 0, 82, 0
2, 4020, Note_on_c, 0, 80, 75
2, 4026, Note_on_c, 0, 80, 0
2, 4026, Note_on_c, 0, 79, 75
2, 4032, Note_on_c, 0, 79, 0
2, 4032, Note_on_c, 0, 84, 91
2, 4080, Note_on_c, 0, 84, 0
2, 4080, Note_on_c, 0, 82, 75
2, 4092, Note_on_c, 0, 82, 0
2, 4092, Note_on_c, 0, 80, 75
2, 4104, Note_on_c, 0, 80, 0
2, 4104, Note_on_c, 0, 79, 75
2, 4116, Note_on_c, 0, 79, 0
2, 4116, Note_on_c, 0, 77, 75
2, 4128, Note_on_c, 0, 77, 0
2, 4128, Note_on_c, 0, 75, 75
2, 4140, Note_on_c, 0, 75, 0
2, 4140, Note_on_c, 0, 74, 75
2, 4152, Note_on_c, 0, 74, 0
2, 4152, Note_on_c, 0, 72, 75
2, 4164, Note_on_c, 0, 72, 0
2, 4164, Note_on_c, 0, 70, 75
2, 4176, Note_on_c, 0, 70, 0
2, 4176, Note_on_c, 0, 68, 75
2, 4188, Note_on_c, 0, 68, 0
2, 4188, Note_on_c, 0, 67, 75
2, 4200, Note_on_c, 0, 67, 0
2, 4200, Note_on_c, 0, 65, 75
2, 4212, Note_on_c, 0, 65, 0
2, 4212, Note_on_c, 0, 63, 75
2, 4224, Note_on_c, 0, 63, 0
2, 4224, Note_on_c, 0, 62, 75
2, 4244, Note_on_c, 0, 62, 0
2, 4272, Note_on_c, 0, 63, 75
2, 4301, Note_on_c, 0, 63, 0
2, 4416, Note_on_c, 0, 60, 80
2, 4505, Note_on_c, 0, 60, 0
2, 4512, Note_on_c, 0, 51, 80
2, 4535, Note_on_c, 0, 51, 0
2, 4536, Note_on_c, 0, 53, 80
2, 4544, Note_on_c, 0, 53, 0
2, 4544, Note_on_c, 0, 51, 80
2, 4552, Note_on_c, 0, 51, 0
2, 4552, Note_on_c, 0, 50, 80
2, 4560, Note_on_c, 0, 50, 0
2, 4560, Note_on_c, 0, 51, 80
2, 4583, Note_on_c, 0, 51, 0
2, 4584, Note_on_c, 0, 53, 80
2, 4607, Note_on_c, 0, 53, 0
2, 4608, Note_on_c, 0, 55, 80
2, 4628, Note_on_c, 0, 55, 0
2, 4656, Note_on_c, 0, 55, 80
2, 4676, Note_on_c, 0, 55, 0
2, 4800, Note_on_c, 0, 63, 75
2, 4806, Note_on_c, 0, 63, 0
2, 4806, Note_on_c, 0, 67, 75
2, 4812, Note_on_c, 0, 67, 0
2, 4812, Note_on_c, 0, 71, 75
2, 4818, Note_on_c, 0, 71, 0
2, 4818, Note_on_c, 0, 74, 75
2, 4911, Note_on_c, 0, 74, 0
2, 4912, Note_on_c, 0, 72, 75
2, 4927, Note_on_c, 0, 72, 0
2, 4928, Note_on_c, 0, 71, 75
2, 4943, Note_on_c, 0, 71, 0
2, 4944, Note_on_c, 0, 68, 75
2, 4959, Note_on_c, 0, 68, 0
2, 4960, Note_on_c, 0, 67, 75
2, 4975, Note_on_c, 0, 67, 0
2, 4976, Note_on_c, 0, 65, 75
2, 4991, Note_on_c, 0, 65, 0
2, 4992, Note_on_c, 0, 65, 75
2, 5007, Note_on_c, 0, 65, 0
2, 5008, Note_on_c, 0, 63, 75
2, 5023, Note_on_c, 0, 63, 0
2, 5024, Note_on_c, 0, 62, 75
2, 5039, Note_on_c, 0, 62, 0
2, 5040, Note_on_c, 0, 63, 75
2, 5055, Note_on_c, 0, 63, 0
2, 5056, Note_on_c, 0, 67, 75
2, 5071, Note_on_c, 0, 67, 0
2, 5072, Note_on_c, 0, 72, 75
2, 5087, Note_on_c, 0, 72, 0
2, 5088, Note_on_c, 0, 75, 75
2, 5103, Note_on_c, 0, 75, 0
2, 5104, Note_on_c, 0, 79, 75
2, 5119, Note_on_c, 0, 79, 0
2, 5120, Note_on_c, 0, 77, 75
2, 5135, Note_on_c, 0, 77, 0
2, 5136, Note_on_c, 0, 75, 75
2, 5151, Note_on_c, 0, 75, 0
2, 5152, Note_on_c, 0, 74, 75
2, 5167, Note_on_c, 0, 74, 0
2, 5168, Note_on_c, 0, 72, 75
2, 5183, Note_on_c, 0, 72, 0
2, 5184, Note_on_c, 0, 70, 75
2, 5280, Note_on_c, 0, 70, 0
2, 5280, Note_on_c, 0, 69, 67
2, 5300, Note_on_c, 0, 69, 0
2, 5376, Note_on_c, 0, 70, 75
2, 5376, Note_on_c, 0, 62, 75
2, 5399, Note_on_c, 0, 70, 0
2, 5399, Note_on_c, 0, 62, 0
2, 5400, Note_on_c, 0, 65, 75
2, 5408, Note_on_c, 0, 65, 0
2, 5408, Note_on_c, 0, 67, 75
2, 5416, Note_on_c, 0, 67, 0
2, 5416, Note_on_c, 0, 65, 75
2, 5424, Note_on_c, 0, 65, 0
2, 5424, Note_on_c, 0, 70, 75
2, 5447, Note_on_c, 0, 70, 0
2, 5448, Note_on_c, 0, 62, 75
2, 5460, Note_on_c, 0, 62, 0
2, 5460, Note_on_c, 0, 70, 75
2, 5472, Note_on_c, 0, 70, 0
2, 5472, Note_on_c, 0, 63, 75
2, 5484, Note_on_c, 0, 63, 0
2, 5484, Note_on_c, 0, 70, 75
2, 5496, Note_on_c, 0, 70, 0
2, 5496, Note_on_c, 0, 62, 75
2, 5508, Note_on_c, 0, 62, 0
2, 5508, Note_on_c, 0, 70, 75
2, 5520, Note_on_c, 0, 70, 0
2, 5520, Note_on_c, 0, 63, 75
2, 5532, Note_on_c, 0, 63, 0
2, 5532, Note_on_c, 0, 70, 75
2, 5544, Note_on_c, 0, 70, 0
2, 5544, Note_on_c, 0, 65, 75
2, 5556, Note_on_c, 0, 65, 0
2, 5556, Note_on_c, 0, 70, 75
2, 5568, Note_on_c, 0, 70, 0
2, 5568, Note_on_c, 0, 67, 75
2, 5591, Note_on_c, 0, 67, 0
2, 5592, Note_on_c, 0, 75, 75
2, 5592, Note_on_c, 0, 67, 75
2, 5615, Note_on_c, 0, 75, 0
2, 5615, Note_on_c, 0, 67, 0
2, 5616, Note_on_c, 0, 75, 75
2, 5616, Note_on_c, 0, 67, 75
2, 5639, Note_on_c, 0, 75, 0
2, 5639, Note_on_c, 0, 67, 0
2, 5640, Note_on_c, 0, 75, 75
2, 5640, Note_on_c, 0, 67, 75
2, 5663, Note_on_c, 0, 75, 0
2, 5663, Note_on_c, 0, 67, 0
2, 5664, Note_on_c, 0, 75, 75
2, 5664, Note_on_c, 0, 67, 75
2, 5688, Note_on_c, 0, 75, 0
2, 5688, Note_on_c, 0, 67, 0
2, 5688, Note_on_c, 0, 74, 75
2, 5688, Note_on_c, 0, 65, 75
2, 5711, Note_on_c, 0, 74, 0
2, 5711, Note_on_c, 0, 65, 0
2, 5712, Note_on_c, 0, 74, 75
2, 5712, Note_on_c, 0, 65, 75
2, 5736, Note_on_c, 0, 74, 0
2, 5736, Note_on_c, 0, 65, 0
2, 5736, Note_on_c, 0, 72, 75
2, 5736, Note_on_c, 0, 63, 75
2, 5759, Note_on_c, 0, 72, 0
2, 5759, Note_on_c, 0, 63, 0
2, 5760, Note_on_c, 0, 70, 75
2, 5760, Note_on_c, 0, 62, 75
2, 5783, Note_on_c, 0, 70, 0
2, 5783, Note_on_c, 0, 62, 0
2, 5784, Note_on_c, 0, 65, 75
2, 5792, Note_on_c, 0, 65, 0
2, 5792, Note_on_c, 0, 67, 75
2, 5800, Note_on_c, 0, 67, 0
2, 5800, Note_on_c, 0, 65, 75
2, 5808, Note_on_c, 0, 65, 0
2, 5808, Note_on_c, 0, 70, 75
2, 5831, Note_on_c, 0, 70, 0
2, 5832, Note_on_c, 0, 62, 75
2, 5844, Note_on_c, 0, 62, 0
2, 5844, Note_on_c, 0, 70, 75
2, 5856, Note_on_c, 0, 70, 0
2, 5856, Note_on_c, 0, 63, 75
2, 5868, Note_on_c, 0, 63, 0
2, 5868, Note_on_c, 0, 70, 75
2, 5880, Note_on_c, 0, 70, 0
2, 5880, Note_on_c, 0, 62, 75
2, 5892, Note_on_c, 0, 62, 0
2, 5892, Note_on_c, 0, 70, 75
2, 5904, Note_on_c, 0, 70, 0
2, 5904, Note_on_c, 0, 63, 75
2, 5916, Note_on_c, 0, 63, 0
2, 5916, Note_on_c, 0, 70, 75
2, 5928, Note_on_c, 0, 70, 0
2, 5928, Note_on_c, 0, 65, 75
2, 5940, Note_on_c, 0, 65, 0
2, 5940, Note_on_c, 0, 70, 75
2, 5952, Note_on_c, 0, 70, 0
2, 5952, Note_on_c, 0, 67, 75
2, 5975, Note_on_c, 0, 67, 0
2, 5976, Note_on_c, 0, 79, 75
2, 5976, Note_on_c, 0, 75, 75
2, 5999, Note_on_c, 0, 79, 0
2, 5999, Note_on_c, 0, 75, 0
2, 6000, Note_on_c, 0, 79, 75
2, 6000, Note_on_c, 0, 75, 75
2, 6023, Note_on_c, 0, 79, 0
2, 6023, Note_on_c, 0, 75, 0
2, 6024, Note_on_c, 0, 79, 75
2, 6024, Note_on_c, 0, 75, 75
2, 6047, Note_on_c, 0, 79, 0
2, 6047, Note_on_c, 0, 75, 0
2, 6048, Note_on_c, 0, 79, 75
2, 6048, Note_on_c, 0, 75, 75
2, 6072, Note_on_c, 0, 79, 0
2, 6072, Note_on_c, 0, 75, 0
2, 6072, Note_on_c, 0, 77, 75
2, 6072, Note_on_c, 0, 74, 75
2, 6095, Note_on_c, 0, 77, 0
2, 6095, Note_on_c, 0, 74, 0
2, 6096, Note_on_c, 0, 77, 75
2, 6096, Note_on_c, 0, 74, 75
2, 6120, Note_on_c, 0, 77, 0
2, 6120, Note_on_c, 0, 74, 0
2, 6120, Note_on_c, 0, 75, 75
2, 6120, Note_on_c, 0, 72, 75
2, 6143, Note_on_c, 0, 75, 0
2, 6143, Note_on_c, 0, 72, 0
2, 6144, Note_on_c, 0, 74, 75
2, 6144, Note_on_c, 0, 70, 75
2, 6167, Note_on_c, 0, 74, 0
2, 6167, Note_on_c, 0, 70, 0
2, 6168, Note_on_c, 0, 77, 75
2, 6176, Note_on_c, 0, 77, 0
2, 6176, Note_on_c, 0, 79, 75
2, 6184, Note_on_c, 0, 79, 0
2, 6184, Note_on_c, 0, 77, 75
2, 6192, Note_on_c, 0, 77, 0
2, 6192, Note_on_c, 0, 82, 75
2, 6215, Note_on_c, 0, 82, 0
2, 6216, Note_on_c, 0, 77, 75
2, 6228, Note_on_c, 0, 77, 0
2, 6228, Note_on_c, 0, 82, 75
2, 6240, Note_on_c, 0, 82, 0
2, 6240, Note_on_c, 0, 79, 75
2, 6252, Note_on_c, 0, 79, 0
2, 6252, Note_on_c, 0, 82, 75
2, 6264, Note_on_c, 0, 82, 0
2, 6264, Note_on_c, 0, 77, 75
2, 6276, Note_on_c, 0, 77, 0
2, 6276, Note_on_c, 0, 82, 75
2, 6288, Note_on_c, 0, 82, 0
2, 6288, Note_on_c, 0, 79, 75
2, 6300, Note_on_c, 0, 79, 0
2, 6300, Note_on_c, 0, 82, 75
2, 6312, Note_on_c, 0, 82, 0
2, 6312, Note_on_c, 0, 80, 75
2, 6324, Note_on_c, 0, 80, 0
2, 6324, Note_on_c, 0, 82, 75
2, 6336, Note_on_c, 0, 82, 0
2, 6336, Note_on_c, 0, 79, 75
2, 6359, Note_on_c, 0, 79, 0
2, 6360, Note_on_c, 0, 87, 75
2, 6370, Note_on_c, 0, 87, 0
2, 6384, Note_on_c, 0, 87, 75
2, 6394, Note_on_c, 0, 87, 0
2, 6408, Note_on_c, 0, 87, 75
2, 6418, Note_on_c, 0, 87, 0
2, 6432, Note_on_c, 0, 87, 75
2, 6444, Note_on_c, 0, 87, 0
2, 6444, Note_on_c, 0, 89, 75
2, 6456, Note_on_c, 0, 89, 0
2, 6456, Note_on_c, 0, 87, 75
2, 6468, Note_on_c, 0, 87, 0
2, 6468, Note_on_c, 0, 86, 75
2, 6480, Note_on_c, 0, 86, 0
2, 6480, Note_on_c, 0, 84, 75
2, 6492, Note_on_c, 0, 84, 0
2, 6492, Note_on_c, 0, 82, 75
2, 6504, Note_on_c, 0, 82, 0
2, 6504, Note_on_c, 0, 81, 75
2, 6516, Note_on_c, 0, 81, 0
2, 6516, Note_on_c, 0, 79, 75
2, 6528, Note_on_c, 0, 79, 0
2, 6528, Note_on_c, 0, 77, 75
2, 6548, Note_on_c, 0, 77, 0
2, 6648, Note_on_c, 0, 86, 75
2, 6660, Note_on_c, 0, 86, 0
2, 6660, Note_on_c, 0, 84, 75
2, 6672, Note_on_c, 0, 84, 0
2, 6672, Note_on_c, 0, 82, 75
2, 6684, Note_on_c, 0, 82, 0
2, 6684, Note_on_c, 0, 81, 75
2, 6696, Note_on_c, 0, 81, 0
2, 6696, Note_on_c, 0, 79, 75
2, 6708, Note_on_c, 0, 79, 0
2, 6708, Note_on_c, 0, 77, 75
2, 6720, Note_on_c, 0, 77, 0
2, 6720, Note_on_c, 0, 75, 75
2, 6740, Note_on_c, 0, 75, 0
2, 6840, Note_on_c, 0, 84, 75
2, 6852, Note_on_c, 0, 84, 0
2, 6852, Note_on_c, 0, 82, 75
2, 6864, Note_on_c, 0, 82, 0
2, 6864, Note_on_c, 0, 81, 75
2, 6876, Note_on_c, 0, 81, 0
2, 6876, Note_on_c, 0, 79, 75
2, 6888, Note_on_c, 0, 79, 0
2, 6888, Note_on_c, 0, 77, 75
2, 6900, Note_on_c, 0, 77, 0
2, 6900, Note_on_c, 0, 75, 75
2, 6912, Note_on_c, 0, 75, 0
2, 6912, Note_on_c, 0, 74, 75
2, 6932, Note_on_c, 0, 74, 0
2, 7032, Note_on_c, 0, 82, 75
2, 7044, Note_on_c, 0, 82, 0
2, 7044, Note_on_c, 0, 81, 75
2, 7056, Note_on_c, 0, 81, 0
2, 7056, Note_on_c, 0, 79, 75
2, 7068, Note_on_c, 0, 79, 0
2, 7068, Note_on_c, 0, 77, 75
2, 7080, Note_on_c, 0, 77, 0
2, 7080, Note_on_c, 0, 75, 75
2, 7092, Note_on_c, 0, 75, 0
2, 7092, Note_on_c, 0, 74, 75
2, 7104, Note_on_c, 0, 74, 0
2, 7104, Note_on_c, 0, 72, 75
2, 7149, Note_on_c, 0, 72, 0
2, 7176, Note_on_c, 0, 82, 75
2, 7200, Note_on_c, 0, 82, 0
2, 7200, Note_on_c, 0, 74, 75
2, 7223, Note_on_c, 0, 74, 0
2, 7272, Note_on_c, 0, 82, 76
2, 7296, Note_on_c, 0, 82, 0
2, 7296, Note_on_c, 0, 75, 76
2, 7319, Note_on_c, 0, 75, 0
2, 7368, Note_on_c, 0, 82, 77
2, 7392, Note_on_c, 0, 82, 0
2, 7392, Note_on_c, 0, 74, 77
2, 7415, Note_on_c, 0, 74, 0
2, 7464, Note_on_c, 0, 82, 77
2, 7487, Note_on_c, 0, 82, 0
2, 7488, Note_on_c, 0, 72, 78
2, 7500, Note_on_c, 0, 72, 0
2, 7500, Note_on_c, 0, 82, 78
2, 7512, Note_on_c, 0, 82, 0
2, 7512, Note_on_c, 0, 73, 78
2, 7524, Note_on_c, 0, 73, 0
2, 7524, Note_on_c, 0, 82, 78
2, 7536, Note_on_c, 0, 82, 0
2, 7536, Note_on_c, 0, 72, 78
2, 7548, Note_on_c, 0, 72, 0
2, 7548, Note_on_c, 0, 82, 78
2, 7560, Note_on_c, 0, 82, 0
2, 7560, Note_on_c, 0, 73, 78
2, 7572, Note_on_c, 0, 73, 0
2, 7572, Note_on_c, 0, 82, 78
2, 7584, Note_on_c, 0, 82, 0
2, 7584, Note_on_c, 0, 72, 79
2, 7607, Note_on_c, 0, 72, 0
2, 7608, Note_on_c, 0, 82, 79
2, 7631, Note_on_c, 0, 82, 0
2, 7632, Note_on_c, 0, 82, 79
2, 7655, Note_on_c, 0, 82, 0
2, 7656, Note_on_c, 0, 82, 79
2, 7679, Note_on_c, 0, 82, 0
2, 7680, Note_on_c, 0, 82, 80
2, 7692, Note_on_c, 0, 82, 0
2, 7692, Note_on_c, 0, 81, 80
2, 7703, Note_on_c, 0, 81, 0
2, 7704, Note_on_c, 0, 79, 80
2, 7716, Note_on_c, 0, 79, 0
2, 7716, Note_on_c, 0, 77, 80
2, 7728, Note_on_c, 0, 77, 0
2, 7728, Note_on_c, 0, 77, 80
2, 7738, Note_on_c, 0, 77, 0
2, 7752, Note_on_c, 0, 82, 80
2, 7775, Note_on_c, 0, 82, 0
2, 7776, Note_on_c, 0, 82, 80
2, 7788, Note_on_c, 0, 82, 0
2, 7788, Note_on_c, 0, 81, 80
2, 7799, Note_on_c, 0, 81, 0
2, 7800, Note_on_c, 0, 79, 80
2, 7812, Note_on_c, 0, 79, 0
2, 7812, Note_on_c, 0, 77, 80
2, 7824, Note_on_c, 0, 77, 0
2, 7824, Note_on_c, 0, 77, 80
2, 7834, Note_on_c, 0, 77, 0
2, 7848, Note_on_c, 0, 82, 80
2, 7871, Note_on_c, 0, 82, 0
2, 7872, Note_on_c, 0, 82, 80
2, 7884, Note_on_c, 0, 82, 0
2, 7884, Note_on_c, 0, 81, 80
2, 7895, Note_on_c, 0, 81, 0
2, 7896, Note_on_c, 0, 79, 78
2, 7908, Note_on_c, 0, 79, 0
2, 7908, Note_on_c, 0, 77, 78
2, 7920, Note_on_c, 0, 77, 0
2, 7920, Note_on_c, 0, 77, 77
2, 7940, Note_on_c, 0, 77, 0
2, 8064, Note_on_c, 0, 70, 80
2, 8064, Note_on_c, 0, 62, 80
2, 8131, Note_on_c, 0, 70, 0
2, 8131, Note_on_c, 0, 62, 0
2, 8136, Note_on_c, 0, 75, 80
2, 8136, Note_on_c, 0, 67, 80
2, 8159, Note_on_c, 0, 75, 0
2, 8159, Note_on_c, 0, 67, 0
2, 8160, Note_on_c, 0, 75, 80
2, 8160, Note_on_c, 0, 67, 80
2, 8184, Note_on_c, 0, 75, 0
2, 8184, Note_on_c, 0, 67, 0
2, 8184, Note_on_c, 0, 74, 80
2, 8184, Note_on_c, 0, 65, 80
2, 8207, Note_on_c, 0, 74, 0
2, 8207, Note_on_c, 0, 65, 0
2, 8208, Note_on_c, 0, 74, 80
2, 8208, Note_on_c, 0, 65, 80
2, 8232, Note_on_c, 0, 74, 0
2, 8232, Note_on_c, 0, 65, 0
2, 8232, Note_on_c, 0, 72, 80
2, 8232, Note_on_c, 0, 63, 80
2, 8255, Note_on_c, 0, 72, 0
2, 8255, Note_on_c, 0, 63, 0
2, 8256, Note_on_c, 0, 70, 80
2, 8256, Note_on_c, 0, 62, 80
2, 8323, Note_on_c, 0, 70, 0
2, 8323, Note_on_c, 0, 62, 0
2, 8328, Note_on_c, 0, 79, 80
2, 8328, Note_on_c, 0, 75, 80
2, 8351, Note_on_c, 0, 79, 0
2, 8351, Note_on_c, 0, 75, 0
2, 8352, Note_on_c, 0, 79, 80
2, 8352, Note_on_c, 0, 75, 80
2, 8376, Note_on_c, 0, 79, 0
2, 8376, Note_on_c, 0, 75, 0
2, 8376, Note_on_c, 0, 77, 80
2, 8376, Note_on_c, 0, 74, 80
2, 8399, Note_on_c, 0, 77, 0
2, 8399, Note_on_c, 0, 74, 0
2, 8400, Note_on_c, 0, 77, 80
2, 8400, Note_on_c, 0, 74, 80
2, 8424, Note_on_c, 0, 77, 0
2, 8424, Note_on_c, 0, 74, 0
2, 8424, Note_on_c, 0, 75, 80
2, 8424, Note_on_c, 0, 72, 80
2, 8447, Note_on_c, 0, 75, 0
2, 8447, Note_on_c, 0, 72, 0
2, 8448, Note_on_c, 0, 74, 80
2, 8448, Note_on_c, 0, 70, 80
2, 8515, Note_on_c, 0, 74, 0
2, 8515, Note_on_c, 0, 70, 0
2, 8520, Note_on_c, 0, 82, 80
2, 8520, Note_on_c, 0, 79, 80
2, 8543, Note_on_c, 0, 82, 0
2, 8543, Note_on_c, 0, 79, 0
2, 8544, Note_on_c, 0, 82, 80
2, 8544, Note_on_c, 0, 79, 80
2, 8568, Note_on_c, 0, 82, 0
2, 8568, Note_on_c, 0, 79, 0
2, 8568, Note_on_c, 0, 81, 80
2, 8568, Note_on_c, 0, 77, 80
2, 8591, Note_on_c, 0, 81, 0
2, 8591, Note_on_c, 0, 77, 0
2, 8592, Note_on_c, 0, 81, 80
2, 8592, Note_on_c, 0, 77, 80
2, 8616, Note_on_c, 0, 81, 0
2, 8616, Note_on_c, 0, 77, 0
2, 8616, Note_on_c, 0, 79, 80
2, 8616, Note_on_c, 0, 75, 80
2, 8639, Note_on_c, 0, 79, 0
2, 8639, Note_on_c, 0, 75, 0
2, 8640, Note_on_c, 0, 77, 75
2, 8640, Note_on_c, 0, 74, 75
2, 8729, Note_on_c, 0, 77, 0
2, 8729, Note_on_c, 0, 74, 0
2, 8736, Note_on_c, 0, 62, 77
2, 8740, Note_on_c, 0, 65, 77
2, 8744, Note_on_c, 0, 68, 77
2, 8748, Note_on_c, 0, 71, 77
2, 8752, Note_on_c, 0, 77, 77
2, 8756, Note_on_c, 0, 80, 77
2, 8760, Note_on_c, 0, 83, 77
2, 8764, Note_on_c, 0, 86, 77
2, 8825, Note_on_c, 0, 86, 0
2, 8825, Note_on_c, 0, 83, 0
2, 8825, Note_on_c, 0, 80, 0
2, 8825, Note_on_c, 0, 77, 0
2, 8825, Note_on_c, 0, 71, 0
2, 8825, Note_on_c, 0, 68, 0
2, 8825, Note_on_c, 0, 65, 0
2, 8825, Note_on_c, 0, 62, 0
2, 8832, Note_on_c, 0, 72, 80
2, 8844, Note_on_c, 0, 72, 0
2, 8844, Note_on_c, 0, 74, 80
2, 8856, Note_on_c, 0, 74, 0
2, 8856, Note_on_c, 0, 75, 81
2, 8868, Note_on_c, 0, 75, 0
2, 8868, Note_on_c, 0, 77, 82
2, 8880, Note_on_c, 0, 77, 0
2, 8880, Note_on_c, 0, 79, 83
2, 8892, Note_on_c, 0, 79, 0
2, 8892, Note_on_c, 0, 81, 83
2, 8904, Note_on_c, 0, 81, 0
2, 8904, Note_on_c, 0, 83, 84
2, 8916, Note_on_c, 0, 83, 0
2, 8916, Note_on_c, 0, 84, 85
2, 8922, Note_on_c, 0, 84, 0
2, 8922, Note_on_c, 0, 86, 85
2, 8928, Note_on_c, 0, 86, 0
2, 8928, Note_on_c, 0, 87, 86
2, 8948, Note_on_c, 0, 87, 0
2, 9000, Note_on_c, 0, 79, 80
2, 9008, Note_on_c, 0, 79, 0
2, 9008, Note_on_c, 0, 75, 80
2, 9016, Note_on_c, 0, 75, 0
2, 9016, Note_on_c, 0, 72, 80
2, 9024, Note_on_c, 0, 72, 0
2, 9024, Note_on_c, 0, 70, 80
2, 9157, Note_on_c, 0, 70, 0
2, 9168, Note_on_c, 0, 74, 70
2, 9174, Note_on_c, 0, 74, 0
2, 9174, Note_on_c, 0, 72, 70
2, 9191, Note_on_c, 0, 72, 0
2, 9192, Note_on_c, 0, 70, 68
2, 9215, Note_on_c, 0, 70, 0
2, 9216, Note_on_c, 0, 70, 67
2, 9261, Note_on_c, 0, 70, 0
2, 9288, Note_on_c, 0, 62, 80
2, 9300, Note_on_c, 0, 62, 0
2, 9300, Note_on_c, 0, 70, 80
2, 9312, Note_on_c, 0, 70, 0
2, 9312, Note_on_c, 0, 63, 80
2, 9324, Note_on_c, 0, 63, 0
2, 9324, Note_on_c, 0, 70, 80
2, 9336, Note_on_c, 0, 70, 0
2, 9336, Note_on_c, 0, 62, 80
2, 9348, Note_on_c, 0, 62, 0
2, 9348, Note_on_c, 0, 70, 81
2, 9360, Note_on_c, 0, 70, 0
2, 9360, Note_on_c, 0, 63, 81
2, 9372, Note_on_c, 0, 63, 0
2, 9372, Note_on_c, 0, 70, 82
2, 9384, Note_on_c, 0, 70, 0
2, 9384, Note_on_c, 0, 64, 82
2, 9396, Note_on_c, 0, 64, 0
2, 9396, Note_on_c, 0, 70, 82
2, 9408, Note_on_c, 0, 70, 0
2, 9408, Note_on_c, 0, 65, 83
2, 9420, Note_on_c, 0, 65, 0
2, 9420, Note_on_c, 0, 70, 83
2, 9432, Note_on_c, 0, 70, 0
2, 9432, Note_on_c, 0, 64, 84
2, 9444, Note_on_c, 0, 64, 0
2, 9444, Note_on_c, 0, 70, 84
2, 9456, Note_on_c, 0, 70, 0
2, 9456, Note_on_c, 0, 65, 84
2, 9468, Note_on_c, 0, 65, 0
2, 9468, Note_on_c, 0, 70, 85
2, 9480, Note_on_c, 0, 70, 0
2, 9480, Note_on_c, 0, 62, 85
2, 9492, Note_on_c, 0, 62, 0
2, 9492, Note_on_c, 0, 70, 86
2, 9504, Note_on_c, 0, 70, 0
2, 9504, Note_on_c, 0, 63, 84
2, 9516, Note_on_c, 0, 63, 0
2, 9516, Note_on_c, 0, 70, 83
2, 9528, Note_on_c, 0, 70, 0
2, 9528, Note_on_c, 0, 64, 82
2, 9540, Note_on_c, 0, 64, 0
2, 9540, Note_on_c, 0, 70, 81
2, 9552, Note_on_c, 0, 70, 0
2, 9552, Note_on_c, 0, 65, 80
2, 9564, Note_on_c, 0, 65, 0
2, 9564, Note_on_c, 0, 70, 79
2, 9576, Note_on_c, 0, 70, 0
2, 9576, Note_on_c, 0, 66, 78
2, 9588, Note_on_c, 0, 66, 0
2, 9588, Note_on_c, 0, 70, 77
2, 9600, Note_on_c, 0, 70, 0
2, 9600, Note_on_c, 0, 67, 76
2, 9612, Note_on_c, 0, 67, 0
2, 9612, Note_on_c, 0, 70, 75
2, 9624, Note_on_c, 0, 70, 0
2, 9624, Note_on_c, 0, 66, 74
2, 9636, Note_on_c, 0, 66, 0
2, 9636, Note_on_c, 0, 70, 73
2, 9648, Note_on_c, 0, 70, 0
2, 9648, Note_on_c, 0, 67, 72
2, 9671, Note_on_c, 0, 67, 0
2, 9672, Note_on_c, 0, 79, 70
2, 9672, Note_on_c, 0, 75, 70
2, 9695, Note_on_c, 0, 79, 0
2, 9695, Note_on_c, 0, 75, 0
2, 9696, Note_on_c, 0, 79, 70
2, 9696, Note_on_c, 0, 75, 70
2, 9720, Note_on_c, 0, 79, 0
2, 9720, Note_on_c, 0, 75, 0
2, 9720, Note_on_c, 0, 77, 70
2, 9720, Note_on_c, 0, 74, 70
2, 9743, Note_on_c, 0, 77, 0
2, 9743, Note_on_c, 0, 74, 0
2, 9768, Note_on_c, 0, 69, 70
2, 9768, Note_on_c, 0, 63, 70
2, 9791, Note_on_c, 0, 69, 0
2, 9791, Note_on_c, 0, 63, 0
2, 9792, Note_on_c, 0, 69, 70
2, 9792, Note_on_c, 0, 63, 70
2, 9816, Note_on_c, 0, 69, 0
2, 9816, Note_on_c, 0, 63, 0
2, 9816, Note_on_c, 0, 70, 70
2, 9816, Note_on_c, 0, 62, 70
2, 9839, Note_on_c, 0, 70, 0
2, 9839, Note_on_c, 0, 62, 0
2, 9864, Note_on_c, 0, 79, 70
2, 9864, Note_on_c, 0, 75, 70
2, 9887, Note_on_c, 0, 79, 0
2, 9887, Note_on_c, 0, 75, 0
2, 9888, Note_on_c, 0, 79, 70
2, 9888, Note_on_c, 0, 75, 70
2, 9912, Note_on_c, 0, 79, 0
2, 9912, Note_on_c, 0, 75, 0
2, 9912, Note_on_c, 0, 77, 70
2, 9912, Note_on_c, 0, 74, 70
2, 9935, Note_on_c, 0, 77, 0
2, 9935, Note_on_c, 0, 74, 0
2, 9960, Note_on_c, 0, 69, 75
2, 9960, Note_on_c, 0, 63, 75
2, 9983, Note_on_c, 0, 69, 0
2, 9983, Note_on_c, 0, 63, 0
2, 9984, Note_on_c, 0, 70, 75
2, 9996, Note_on_c, 0, 70, 0
2, 9996, Note_on_c, 0, 77, 75
2, 10008, Note_on_c, 0, 77, 0
2, 10008, Note_on_c, 0, 74, 75
2, 10020, Note_on_c, 0, 74, 0
2, 10020, Note_on_c, 0, 70, 75
2, 10032, Note_on_c, 0, 70, 0
2, 10032, Note_on_c, 0, 65, 75
2, 10044, Note_on_c, 0, 65, 0
2, 10044, Note_on_c, 0, 70, 75
2, 10056, Note_on_c, 0, 70, 0
2, 10056, Note_on_c, 0, 69, 75
2, 10068, Note_on_c, 0, 69, 0
2, 10068, Note_on_c, 0, 72, 75
2, 10080, Note_on_c, 0, 72, 0
2, 10080, Note_on_c, 0, 70, 75
2, 10092, Note_on_c, 0, 70, 0
2, 10092, Note_on_c, 0, 77, 75
2, 10104, Note_on_c, 0, 77, 0
2, 10104, Note_on_c, 0, 74, 75
2, 10116, Note_on_c, 0, 74, 0
2, 10116, Note_on_c, 0, 70, 75
2, 10128, Note_on_c, 0, 70, 0
2, 10128, Note_on_c, 0, 65, 75
2, 10140, Note_on_c, 0, 65, 0
2, 10140, Note_on_c, 0, 70, 75
2, 10152, Note_on_c, 0, 70, 0
2, 10152, Note_on_c, 0, 69, 75
2, 10164, Note_on_c, 0, 69, 0
2, 10164, Note_on_c, 0, 72, 75
2, 10176, Note_on_c, 0, 72, 0
2, 10176, Note_on_c, 0, 70, 75
2, 10221, Note_on_c, 0, 70, 0
2, 10224, Note_on_c, 0, 86, 75
2, 10224, Note_on_c, 0, 82, 75
2, 10269, Note_on_c, 0, 86, 0
2, 10269, Note_on_c, 0, 82, 0
2, 10368, Note_on_c, 0, 63, 64
2, 10457, Note_on_c, 0, 63, 0
2, 10464, Note_on_c, 0, 55, 64
2, 10487, Note_on_c, 0, 55, 0
2, 10488, Note_on_c, 0, 57, 64
2, 10496, Note_on_c, 0, 57, 0
2, 10496, Note_on_c, 0, 55, 64
2, 10504, Note_on_c, 0, 55, 0
2, 10504, Note_on_c, 0, 53, 64
2, 10512, Note_on_c, 0, 53, 0
2, 10512, Note_on_c, 0, 55, 64
2, 10535, Note_on_c, 0, 55, 0
2, 10536, Note_on_c, 0, 57, 64
2, 10559, Note_on_c, 0, 57, 0
2, 10560, Note_on_c, 0, 58, 64
2, 10580, Note_on_c, 0, 58, 0
2, 10608, Note_on_c, 0, 58, 64
2, 10628, Note_on_c, 0, 58, 0
2, 10656, Note_on_c, 0, 58, 64
2, 10701, Note_on_c, 0, 58, 0
2, 10704, Note_on_c, 0, 57, 64
2, 10716, Note_on_c, 0, 57, 0
2, 10716, Note_on_c, 0, 58, 64
2, 10728, Note_on_c, 0, 58, 0
2, 10728, Note_on_c, 0, 60, 64
2, 10740, Note_on_c, 0, 60, 0
2, 10740, Note_on_c, 0, 58, 64
2, 10752, Note_on_c, 0, 58, 0
2, 10752, Note_on_c, 0, 63, 64
2, 10772, Note_on_c, 0, 63, 0
2, 10800, Note_on_c, 0, 63, 67
2, 10820, Note_on_c, 0, 63, 0
2, 10848, Note_on_c, 0, 63, 71
2, 10893, Note_on_c, 0, 63, 0
2, 10896, Note_on_c, 0, 67, 75
2, 10908, Note_on_c, 0, 67, 0
2, 10908, Note_on_c, 0, 65, 75
2, 10941, Note_on_c, 0, 65, 0
2, 10944, Note_on_c, 0, 63, 72
2, 11088, Note_on_c, 0, 63, 0
2, 11088, Note_on_c, 0, 62, 66
2, 11133, Note_on_c, 0, 62, 0
2, 11136, Note_on_c, 0, 60, 80
2, 11266, Note_on_c, 0, 60, 0
2, 11268, Note_on_c, 0, 64, 64
2, 11280, Note_on_c, 0, 64, 0
2, 11280, Note_on_c, 0, 65, 64
2, 11314, Note_on_c, 0, 65, 0
2, 11316, Note_on_c, 0, 68, 64
2, 11328, Note_on_c, 0, 68, 0
2, 11328, Note_on_c, 0, 58, 80
2, 11458, Note_on_c, 0, 58, 0
2, 11460, Note_on_c, 0, 62, 64
2, 11472, Note_on_c, 0, 62, 0
2, 11472, Note_on_c, 0, 63, 64
2, 11506, Note_on_c, 0, 63, 0
2, 11508, Note_on_c, 0, 67, 64
2, 11520, Note_on_c, 0, 67, 0
2, 11520, Note_on_c, 0, 67, 64
2, 11568, Note_on_c, 0, 67, 0
2, 11568, Note_on_c, 0, 60, 67
2, 11602, Note_on_c, 0, 60, 0
2, 11604, Note_on_c, 0, 68, 69
2, 11616, Note_on_c, 0, 68, 0
2, 11616, Note_on_c, 0, 68, 70
2, 11683, Note_on_c, 0, 68, 0
2, 11688, Note_on_c, 0, 65, 70
2, 11700, Note_on_c, 0, 65, 0
2, 11700, Note_on_c, 0, 62, 69
2, 11712, Note_on_c, 0, 62, 0
2, 11712, Note_on_c, 0, 62, 69
2, 11808, Note_on_c, 0, 62, 0
2, 11808, Note_on_c, 0, 63, 65
2, 11853, Note_on_c, 0, 63, 0
2, 11904, Note_on_c, 0, 72, 80
2, 12034, Note_on_c, 0, 72, 0
2, 12036, Note_on_c, 0, 76, 64
2, 12048, Note_on_c, 0, 76, 0
2, 12048, Note_on_c, 0, 77, 64
2, 12082, Note_on_c, 0, 77, 0
2, 12084, Note_on_c, 0, 80, 64
2, 12096, Note_on_c, 0, 80, 0
2, 12096, Note_on_c, 0, 70, 80
2, 12226, Note_on_c, 0, 70, 0
2, 12228, Note_on_c, 0, 74, 64
2, 12240, Note_on_c, 0, 74, 0
2, 12240, Note_on_c, 0, 75, 64
2, 12274, Note_on_c, 0, 75, 0
2, 12276, Note_on_c, 0, 79, 64
2, 12288, Note_on_c, 0, 79, 0
2, 12288, Note_on_c, 0, 82, 64
2, 12311, Note_on_c, 0, 82, 0
2, 12312, Note_on_c, 0, 79, 65
2, 12324, Note_on_c, 0, 79, 0
2, 12324, Note_on_c, 0, 82, 66
2, 12336, Note_on_c, 0, 82, 0
2, 12336, Note_on_c, 0, 77, 66
2, 12348, Note_on_c, 0, 77, 0
2, 12348, Note_on_c, 0, 82, 67
2, 12360, Note_on_c, 0, 82, 0
2, 12360, Note_on_c, 0, 75, 68
2, 12372, Note_on_c, 0, 75, 0
2, 12372, Note_on_c, 0, 82, 68
2, 12384, Note_on_c, 0, 82, 0
2, 12384, Note_on_c, 0, 74, 69
2, 12396, Note_on_c, 0, 74, 0
2, 12396, Note_on_c, 0, 82, 70
2, 12408, Note_on_c, 0, 82, 0
2, 12408, Note_on_c, 0, 72, 70
2, 12420, Note_on_c, 0, 72, 0
2, 12420, Note_on_c, 0, 82, 71
2, 12432, Note_on_c, 0, 82, 0
2, 12432, Note_on_c, 0, 70, 72
2, 12444, Note_on_c, 0, 70, 0
2, 12444, Note_on_c, 0, 82, 72
2, 12456, Note_on_c, 0, 82, 0
2, 12456, Note_on_c, 0, 68, 73
2, 12468, Note_on_c, 0, 68, 0
2, 12468, Note_on_c, 0, 82, 74
2, 12480, Note_on_c, 0, 82, 0
2, 12480, Note_on_c, 0, 67, 74
2, 12503, Note_on_c, 0, 67, 0
2, 12504, Note_on_c, 0, 68, 76
2, 12516, Note_on_c, 0, 68, 0
2, 12516, Note_on_c, 0, 70, 76
2, 12528, Note_on_c, 0, 70, 0
2, 12528, Note_on_c, 0, 72, 77
2, 12540, Note_on_c, 0, 72, 0
2, 12540, Note_on_c, 0, 74, 78
2, 12552, Note_on_c, 0, 74, 0
2, 12552, Note_on_c, 0, 75, 78
2, 12564, Note_on_c, 0, 75, 0
2, 12564, Note_on_c, 0, 77, 79
2, 12576, Note_on_c, 0, 77, 0
2, 12576, Note_on_c, 0, 79, 80
2, 12591, Note_on_c, 0, 79, 0
2, 12612, Note_on_c, 0, 74, 80
2, 12624, Note_on_c, 0, 74, 0
2, 12624, Note_on_c, 0, 75, 80
2, 12630, Note_on_c, 0, 75, 0
2, 12630, Note_on_c, 0, 77, 80
2, 12636, Note_on_c, 0, 77, 0
2, 12636, Note_on_c, 0, 75, 80
2, 12658, Note_on_c, 0, 75, 0
2, 12660, Note_on_c, 0, 71, 80
2, 12672, Note_on_c, 0, 71, 0
2, 12672, Note_on_c, 0, 72, 80
2, 12717, Note_on_c, 0, 72, 0
2, 12720, Note_on_c, 0, 84, 80
2, 12720, Note_on_c, 0, 80, 80
2, 12765, Note_on_c, 0, 84, 0
2, 12765, Note_on_c, 0, 80, 0
2, 12804, Note_on_c, 0, 84, 80
2, 12804, Note_on_c, 0, 80, 80
2, 12816, Note_on_c, 0, 84, 0
2, 12816, Note_on_c, 0, 80, 0
2, 12816, Note_on_c, 0, 82, 79
2, 12816, Note_on_c, 0, 79, 79
2, 12850, Note_on_c, 0, 82, 0
2, 12850, Note_on_c, 0, 79, 0
2, 12852, Note_on_c, 0, 80, 76
2, 12852, Note_on_c, 0, 77, 76
2, 12864, Note_on_c, 0, 80, 0
2, 12864, Note_on_c, 0, 77, 0
2, 12864, Note_on_c, 0, 79, 76
2, 12864, Note_on_c, 0, 75, 76
2, 12909, Note_on_c, 0, 79, 0
2, 12909, Note_on_c, 0, 75, 0
2, 12912, Note_on_c, 0, 82, 73
2, 12912, Note_on_c, 0, 79, 73
2, 12957, Note_on_c, 0, 82, 0
2, 12957, Note_on_c, 0, 79, 0
2, 13008, Note_on_c, 0, 74, 70
2, 13008, Note_on_c, 0, 68, 70
2, 13053, Note_on_c, 0, 74, 0
2, 13053, Note_on_c, 0, 68, 0
2, 13056, Note_on_c, 0, 75, 70
2, 13056, Note_on_c, 0, 67, 70
2, 13152, Note_on_c, 0, 75, 0
2, 13152, Note_on_c, 0, 67, 0
2, 13152, Note_on_c, 0, 74, 70
2, 13197, Note_on_c, 0, 74, 0
2, 13200, Note_on_c, 0, 73, 70
2, 13245, Note_on_c, 0, 73, 0
2, 13248, Note_on_c, 0, 71, 70
2, 13296, Note_on_c, 0, 71, 0
2, 13296, Note_on_c, 0, 72, 70
2, 13341, Note_on_c, 0, 72, 0
2, 13440, Note_on_c, 0, 77, 70
2, 13485, Note_on_c, 0, 77, 0
2, 13488, Note_on_c, 0, 70, 70
2, 13581, Note_on_c, 0, 70, 0
2, 13584, Note_on_c, 0, 74, 70
2, 13590, Note_on_c, 0, 74, 0
2, 13590, Note_on_c, 0, 72, 70
2, 13607, Note_on_c, 0, 72, 0
2, 13608, Note_on_c, 0, 70, 70
2, 13631, Note_on_c, 0, 70, 0
2, 13632, Note_on_c, 0, 70, 70
2, 13655, Note_on_c, 0, 70, 0
2, 13656, Note_on_c, 0, 72, 70
2, 13668, Note_on_c, 0, 72, 0
2, 13668, Note_on_c, 0, 74, 71
2, 13680, Note_on_c, 0, 74, 0
2, 13680, Note_on_c, 0, 75, 71
2, 13692, Note_on_c, 0, 75, 0
2, 13692, Note_on_c, 0, 77, 72
2, 13704, Note_on_c, 0, 77, 0
2, 13704, Note_on_c, 0, 79, 72
2, 13716, Note_on_c, 0, 79, 0
2, 13716, Note_on_c, 0, 80, 72
2, 13728, Note_on_c, 0, 80, 0
2, 13728, Note_on_c, 0, 82, 73
2, 13773, Note_on_c, 0, 82, 0
2, 13824, Note_on_c, 0, 77, 70
2, 13869, Note_on_c, 0, 77, 0
2, 13872, Note_on_c, 0, 70, 70
2, 13965, Note_on_c, 0, 70, 0
2, 13968, Note_on_c, 0, 74, 70
2, 13974, Note_on_c, 0, 74, 0
2, 13974, Note_on_c, 0, 72, 70
2, 13991, Note_on_c, 0, 72, 0
2, 13992, Note_on_c, 0, 70, 70
2, 14015, Note_on_c, 0, 70, 0
2, 14016, Note_on_c, 0, 70, 70
2, 14039, Note_on_c, 0, 70, 0
2, 14040, Note_on_c, 0, 72, 70
2, 14052, Note_on_c, 0, 72, 0
2, 14052, Note_on_c, 0, 74, 71
2, 14064, Note_on_c, 0, 74, 0
2, 14064, Note_on_c, 0, 75, 71
2, 14076, Note_on_c, 0, 75, 0
2, 14076, Note_on_c, 0, 77, 72
2, 14088, Note_on_c, 0, 77, 0
2, 14088, Note_on_c, 0, 79, 72
2, 14100, Note_on_c, 0, 79, 0
2, 14100, Note_on_c, 0, 80, 72
2, 14112, Note_on_c, 0, 80, 0
2, 14112, Note_on_c, 0, 82, 73
2, 14157, Note_on_c, 0, 82, 0
2, 14184, Note_on_c, 0, 82, 75
2, 14207, Note_on_c, 0, 82, 0
2, 14208, Note_on_c, 0, 87, 91
2, 14279, Note_on_c, 0, 87, 0
2, 14280, Note_on_c, 0, 86, 75
2, 14286, Note_on_c, 0, 86, 0
2, 14286, Note_on_c, 0, 84, 75
2, 14292, Note_on_c, 0, 84, 0
2, 14292, Note_on_c, 0, 82, 75
2, 14298, Note_on_c, 0, 82, 0
2, 14298, Note_on_c, 0, 80, 75
2, 14304, Note_on_c, 0, 80, 0
2, 14304, Note_on_c, 0, 86, 91
2, 14375, Note_on_c, 0, 86, 0
2, 14376, Note_on_c, 0, 84, 75
2, 14382, Note_on_c, 0, 84, 0
2, 14382, Note_on_c, 0, 82, 75
2, 14388, Note_on_c, 0, 82, 0
2, 14388, Note_on_c, 0, 80, 75
2, 14394, Note_on_c, 0, 80, 0
2, 14394, Note_on_c, 0, 79, 75
2, 14400, Note_on_c, 0, 79, 0
2, 14400, Note_on_c, 0, 84, 91
2, 14448, Note_on_c, 0, 84, 0
2, 14448, Note_on_c, 0, 82, 75
2, 14460, Note_on_c, 0, 82, 0
2, 14460, Note_on_c, 0, 80, 75
2, 14472, Note_on_c, 0, 80, 0
2, 14472, Note_on_c, 0, 79, 75
2, 14484, Note_on_c, 0, 79, 0
2, 14484, Note_on_c, 0, 77, 75
2, 14496, Note_on_c, 0, 77, 0
2, 14496, Note_on_c, 0, 75, 75
2, 14508, Note_on_c, 0, 75, 0
2, 14508, Note_on_c, 0, 74, 75
2, 14520, Note_on_c, 0, 74, 0
2, 14520, Note_on_c, 0, 72, 75
2, 14532, Note_on_c, 0, 72, 0
2, 14532, Note_on_c, 0, 70, 75
2, 14544, Note_on_c, 0, 70, 0
2, 14544, Note_on_c, 0, 68, 75
2, 14556, Note_on_c, 0, 68, 0
2, 14556, Note_on_c, 0, 67, 75
2, 14568, Note_on_c, 0, 67, 0
2, 14568, Note_on_c, 0, 65, 75
2, 14580, Note_on_c, 0, 65, 0
2, 14580, Note_on_c, 0, 63, 75
2, 14592, Note_on_c, 0, 63, 0
2, 14592, Note_on_c, 0, 62, 75
2, 14612, Note_on_c, 0, 62, 0
2, 14640, Note_on_c, 0, 63, 75
2, 14669, Note_on_c, 0, 63, 0
2, 14784, Note_on_c, 0, 60, 80
2, 14873, Note_on_c, 0, 60, 0
2, 14880, Note_on_c, 0, 51, 80
2, 14903, Note_on_c, 0, 51, 0
2, 14904, Note_on_c, 0, 53, 80
2, 14912, Note_on_c, 0, 53, 0
2, 14912, Note_on_c, 0, 51, 80
2, 14920, Note_on_c, 0, 51, 0
2, 14920, Note_on_c, 0, 50, 80
2, 14928, Note_on_c, 0, 50, 0
2, 14928, Note_on_c, 0, 51, 80
2, 14951, Note_on_c, 0, 51, 0
2, 14952, Note_on_c, 0, 53, 80
2, 14975, Note_on_c, 0, 53, 0
2, 14976, Note_on_c, 0, 55, 80
2, 14996, Note_on_c, 0, 55, 0
2, 15024, Note_on_c, 0, 55, 80
2, 15044, Note_on_c, 0, 55, 0
2, 15168, Note_on_c, 0, 63, 75
2, 15174, Note_on_c, 0, 63, 0
2, 15174, Note_on_c, 0, 67, 75
2, 15180, Note_on_c, 0, 67, 0
2, 15180, Note_on_c, 0, 71, 75
2, 15186, Note_on_c, 0, 71, 0
2, 15186, Note_on_c, 0, 74, 75
2, 15279, Note_on_c, 0, 74, 0
2, 15280, Note_on_c, 0, 72, 75
2, 15295, Note_on_c, 0, 72, 0
2, 15296, Note_on_c, 0, 71, 75
2, 15311, Note_on_c, 0, 71, 0
2, 15312, Note_on_c, 0, 68, 75
2, 15327, Note_on_c, 0, 68, 0
2, 15328, Note_on_c, 0, 67, 75
2, 15343, Note_on_c, 0, 67, 0
2, 15344, Note_on_c, 0, 65, 75
2, 15359, Note_on_c, 0, 65, 0
2, 15360, Note_on_c, 0, 65, 75
2, 15375, Note_on_c, 0, 65, 0
2, 15376, Note_on_c, 0, 63, 75
2, 15391, Note_on_c, 0, 63, 0
2, 15392, Note_on_c, 0, 62, 75
2, 15407, Note_on_c, 0, 62, 0
2, 15408, Note_on_c, 0, 63, 75
2, 15423, Note_on_c, 0, 63, 0
2, 15424, Note_on_c, 0, 67, 75
2, 15439, Note_on_c, 0, 67, 0
2, 15440, Note_on_c, 0, 72, 75
2, 15455, Note_on_c, 0, 72, 0
2, 15456, Note_on_c, 0, 75, 75
2, 15471, Note_on_c, 0, 75, 0
2, 15472, Note_on_c, 0, 79, 75
2, 15487, Note_on_c, 0, 79, 0
2, 15488, Note_on_c, 0, 77, 75
2, 15503, Note_on_c, 0, 77, 0
2, 15504, Note_on_c, 0, 75, 75
2, 15519, Note_on_c, 0, 75, 0
2, 15520, Note_on_c, 0, 74, 75
2, 15535, Note_on_c, 0, 74, 0
2, 15536, Note_on_c, 0, 72, 75
2, 15551, Note_on_c, 0, 72, 0
2, 15552, Note_on_c, 0, 70, 75
2, 15648, Note_on_c, 0, 70, 0
2, 15648, Note_on_c, 0, 69, 67
2, 15668, Note_on_c, 0, 69, 0
2, 15744, Note_on_c, 0, 70, 75
2, 15744, Note_on_c, 0, 62, 75
2, 15767, Note_on_c, 0, 70, 0
2, 15767, Note_on_c, 0, 62, 0
2, 15768, Note_on_c, 0, 65, 75
2, 15776, Note_on_c, 0, 65, 0
2, 15776, Note_on_c, 0, 67, 75
2, 15784, Note_on_c, 0, 67, 0
2, 15784, Note_on_c, 0, 65, 75
2, 15792, Note_on_c, 0, 65, 0
2, 15792, Note_on_c, 0, 70, 75
2, 15815, Note_on_c, 0, 70, 0
2, 15816, Note_on_c, 0, 62, 75
2, 15828, Note_on_c, 0, 62, 0
2, 15828, Note_on_c, 0, 70, 75
2, 15840, Note_on_c, 0, 70, 0
2, 15840, Note_on_c, 0, 63, 75
2, 15852, Note_on_c, 0, 63, 0
2, 15852, Note_on_c, 0, 70, 75
2, 15864, Note_on_c, 0, 70, 0
2, 15864, Note_on_c, 0, 62, 75
2, 15876, Note_on_c, 0, 62, 0
2, 15876, Note_on_c, 0, 70, 75
2, 15888, Note_on_c, 0, 70, 0
2, 15888, Note_on_c, 0, 63, 75
2, 15900, Note_on_c, 0, 63, 0
2, 15900, Note_on_c, 0, 70, 75
2, 15912, Note_on_c, 0, 70, 0
2, 15912, Note_on_c, 0, 65, 75
2, 15924, Note_on_c, 0, 65, 0
2, 15924, Note_on_c, 0, 70, 75
2, 15936, Note_on_c, 0, 70, 0
2, 15936, Note_on_c, 0, 67, 75
2, 15959, Note_on_c, 0, 67, 0
2, 15960, Note_on_c, 0, 75, 75
2, 15960, Note_on_c, 0, 67, 75
2, 15983, Note_on_c, 0, 75, 0
2, 15983, Note_on_c, 0, 67, 0
2, 15984, Note_on_c, 0, 75, 75
2, 15984, Note_on_c, 0, 67, 75
2, 16007, Note_on_c, 0, 75, 0
2, 16007, Note_on_c, 0, 67, 0
2, 16008, Note_on_c, 0, 75, 75
2, 16008, Note_on_c, 0, 67, 75
2, 16031, Note_on_c, 0, 75, 0
2, 16031, Note_on_c, 0, 67, 0
2, 16032, Note_on_c, 0, 75, 75
2, 16032, Note_on_c, 0, 67, 75
2, 16056, Note_on_c, 0, 75, 0
2, 16056, Note_on_c, 0, 67, 0
2, 16056, Note_on_c, 0, 74, 75
2, 16056, Note_on_c, 0, 65, 75
2, 16079, Note_on_c, 0, 74, 0
2, 16079, Note_on_c, 0, 65, 0
2, 16080, Note_on_c, 0, 74, 75
2, 16080, Note_on_c, 0, 65, 75
2, 16104, Note_on_c, 0, 74, 0
2, 16104, Note_on_c, 0, 65, 0
2, 16104, Note_on_c, 0, 72, 75
2, 16104, Note_on_c, 0, 63, 75
2, 16127, Note_on_c, 0, 72, 0
2, 16127, Note_on_c, 0, 63, 0
2, 16128, Note_on_c, 0, 70, 75
2, 16128, Note_on_c, 0, 62, 75
2, 16151, Note_on_c, 0, 70, 0
2, 16151, Note_on_c, 0, 62, 0
2, 16152, Note_on_c, 0, 65, 75
2, 16160, Note_on_c, 0, 65, 0
2, 16160, Note_on_c, 0, 67, 75
2, 16168, Note_on_c, 0, 67, 0
2, 16168, Note_on_c, 0, 65, 75
2, 16176, Note_on_c, 0, 65, 0
2, 16176, Note_on_c, 0, 70, 75
2, 16199, Note_on_c, 0, 70, 0
2, 16200, Note_on_c, 0, 62, 75
2, 16212, Note_on_c, 0, 62, 0
2, 16212, Note_on_c, 0, 70, 75
2, 16224, Note_on_c, 0, 70, 0
2, 16224, Note_on_c, 0, 63, 75
2, 16236, Note_on_c, 0, 63, 0
2, 16236, Note_on_c, 0, 70, 75
2, 16248, Note_on_c, 0, 70, 0
2, 16248, Note_on_c, 0, 62, 75
2, 16260, Note_on_c, 0, 62, 0
2, 16260, Note_on_c, 0, 70, 75
2, 16272, Note_on_c, 0, 70, 0
2, 16272, Note_on_c, 0, 63, 75
2, 16284, Note_on_c, 0, 63, 0
2, 16284, Note_on_c, 0, 70, 75
2, 16296, Note_on_c, 0, 70, 0
2, 16296, Note_on_c, 0, 65, 75
2, 16308, Note_on_c, 0, 65, 0
2, 16308, Note_on_c, 0, 70, 75
2, 16320, Note_on_c, 0, 70, 0
2, 16320, Note_on_c, 0, 67, 75
2, 16343, Note_on_c, 0, 67, 0
2, 16344, Note_on_c, 0, 79, 75
2, 16344, Note_on_c, 0, 75, 75
2, 16367, Note_on_c, 0, 79, 0
2, 16367, Note_on_c, 0, 75, 0
2, 16368, Note_on_c, 0, 79, 75
2, 16368, Note_on_c, 0, 75, 75
2, 16391, Note_on_c, 0, 79, 0
2, 16391, Note_on_c, 0, 75, 0
2, 16392, Note_on_c, 0, 79, 75
2, 16392, Note_on_c, 0, 75, 75
2, 16415, Note_on_c, 0, 79, 0
2, 16415, Note_on_c, 0, 75, 0
2, 16416, Note_on_c, 0, 79, 75
2, 16416, Note_on_c, 0, 75, 75
2, 16440, Note_on_c, 0, 79, 0
2, 16440, Note_on_c, 0, 75, 0
2, 16440, Note_on_c, 0, 77, 75
2, 16440, Note_on_c, 0, 74, 75
2, 16463, Note_on_c, 0, 77, 0
2, 16463, Note_on_c, 0, 74, 0
2, 16464, Note_on_c, 0, 77, 75
2, 16464, Note_on_c, 0, 74, 75
2, 16488, Note_on_c, 0, 77, 0
2, 16488, Note_on_c, 0, 74, 0
2, 16488, Note_on_c, 0, 75, 75
2, 16488, Note_on_c, 0, 72, 75
2, 16511, Note_on_c, 0, 75, 0
2, 16511, Note_on_c, 0, 72, 0
2, 16512, Note_on_c, 0, 74, 75
2, 16512, Note_on_c, 0, 70, 75
2, 16535, Note_on_c, 0, 74, 0
2, 16535, Note_on_c, 0, 70, 0
2, 16536, Note_on_c, 0, 77, 75
2, 16544, Note_on_c, 0, 77, 0
2, 16544, Note_on_c, 0, 79, 75
2, 16552, Note_on_c, 0, 79, 0
2, 16552, Note_on_c, 0, 77, 75
2, 16560, Note_on_c, 0, 77, 0
2, 16560, Note_on_c, 0, 82, 75
2, 16583, Note_on_c, 0, 82, 0
2, 16584, Note_on_c, 0, 77, 75
2, 16596, Note_on_c, 0, 77, 0
2, 16596, Note_on_c, 0, 82, 75
2, 16608, Note_on_c, 0, 82, 0
2, 16608, Note_on_c, 0, 79, 75
2, 16620, Note_on_c, 0, 79, 0
2, 16620, Note_on_c, 0, 82, 75
2, 16632, Note_on_c, 0, 82, 0
2, 16632, Note_on_c, 0, 77, 75
2, 16644, Note_on_c, 0, 77, 0
2, 16644, Note_on_c, 0, 82, 75
2, 16656, Note_on_c, 0, 82, 0
2, 16656, Note_on_c, 0, 79, 75
2, 16668, Note_on_c, 0, 79, 0
2, 16668, Note_on_c, 0, 82, 75
2, 16680, Note_on_c, 0, 82, 0
2, 16680, Note_on_c, 0, 80, 75
2, 16692, Note_on_c, 0, 80, 0
2, 16692, Note_on_c, 0, 82, 75
2, 16704, Note_on_c, 0, 82, 0
2, 16704, Note_on_c, 0, 79, 75
2, 16727, Note_on_c, 0, 79, 0
2, 16728, Note_on_c, 0, 87, 75
2, 16738, Note_on_c, 0, 87, 0
2, 16752, Note_on_c, 0, 87, 75
2, 16762, Note_on_c, 0, 87, 0
2, 16776, Note_on_c, 0, 87, 75
2, 16786, Note_on_c, 0, 87, 0
2, 16800, Note_on_c, 0, 87, 75
2, 16812, Note_on_c, 0, 87, 0
2, 16812, Note_on_c, 0, 89, 75
2, 16824, Note_on_c, 0, 89, 0
2, 16824, Note_on_c, 0, 87, 75
2, 16836, Note_on_c, 0, 87, 0
2, 16836, Note_on_c, 0, 86, 75
2, 16848, Note_on_c, 0, 86, 0
2, 16848, Note_on_c, 0, 84, 75
2, 16860, Note_on_c, 0, 84, 0
2, 16860, Note_on_c, 0, 82, 75
2, 16872, Note_on_c, 0, 82, 0
2, 16872, Note_on_c, 0, 81, 75
2, 16884, Note_on_c, 0, 81, 0
2, 16884, Note_on_c, 0, 79, 75
2, 16896, Note_on_c, 0, 79, 0
2, 16896, Note_on_c, 0, 77, 75
2, 16916, Note_on_c, 0, 77, 0
2, 17016, Note_on_c, 0, 86, 75
2, 17028, Note_on_c, 0, 86, 0
2, 17028, Note_on_c, 0, 84, 75
2, 17040, Note_on_c, 0, 84, 0
2, 17040, Note_on_c, 0, 82, 75
2, 17052, Note_on_c, 0, 82, 0
2, 17052, Note_on_c, 0, 81, 75
2, 17064, Note_on_c, 0, 81, 0
2, 17064, Note_on_c, 0, 79, 75
2, 17076, Note_on_c, 0, 79, 0
2, 17076, Note_on_c, 0, 77, 75
2, 17088, Note_on_c, 0, 77, 0
2, 17088, Note_on_c, 0, 75, 75
2, 17108, Note_on_c, 0, 75, 0
2, 17208, Note_on_c, 0, 84, 75
2, 17220, Note_on_c, 0, 84, 0
2, 17220, Note_on_c, 0, 82, 75
2, 17232, Note_on_c, 0, 82, 0
2, 17232, Note_on_c, 0, 81, 75
2, 17244, Note_on_c, 0, 81, 0
2, 17244, Note_on_c, 0, 79, 75
2, 17256, Note_on_c, 0, 79, 0
2, 17256, Note_on_c, 0, 77, 75
2, 17268, Note_on_c, 0, 77, 0
2, 17268, Note_on_c, 0, 75, 75
2, 17280, Note_on_c, 0, 75, 0
2, 17280, Note_on_c, 0, 74, 75
2, 17300, Note_on_c, 0, 74, 0
2, 17400, Note_on_c, 0, 82, 75
2, 17412, Note_on_c, 0, 82, 0
2, 17412, Note_on_c, 0, 81, 75
2, 17424, Note_on_c, 0, 81, 0
2, 17424, Note_on_c, 0, 79, 75
2, 17436, Note_on_c, 0, 79, 0
2, 17436, Note_on_c, 0, 77, 75
2, 17448, Note_on_c, 0, 77, 0
2, 17448, Note_on_c, 0, 75, 75
2, 17460, Note_on_c, 0, 75, 0
2, 17460, Note_on_c, 0, 74, 75
2, 17472, Note_on_c, 0, 74, 0
2, 17472, Note_on_c, 0, 72, 75
2, 17517, Note_on_c, 0, 72, 0
2, 17544, Note_on_c, 0, 82, 75
2, 17568, Note_on_c, 0, 82, 0
2, 17568, Note_on_c, 0, 74, 75
2, 17591, Note_on_c, 0, 74, 0
2, 17640, Note_on_c, 0, 82, 76
2, 17664, Note_on_c, 0, 82, 0
2, 17664, Note_on_c, 0, 75, 76
2, 17687, Note_on_c, 0, 75, 0
2, 17736, Note_on_c, 0, 82, 77
2, 17760, Note_on_c, 0, 82, 0
2, 17760, Note_on_c, 0, 74, 77
2, 17783, Note_on_c, 0, 74, 0
2, 17832, Note_on_c, 0, 82, 77
2, 17855, Note_on_c, 0, 82, 0
2, 17856, Note_on_c, 0, 72, 78
2, 17868, Note_on_c, 0, 72, 0
2, 17868, Note_on_c, 0, 82, 78
2, 17880, Note_on_c, 0, 82, 0
2, 17880, Note_on_c, 0, 73, 78
2, 17892, Note_on_c, 0, 73, 0
2, 17892, Note_on_c, 0, 82, 78
2, 17904, Note_on_c, 0, 82, 0
2, 17904, Note_on_c, 0, 72, 78
2, 17916, Note_on_c, 0, 72, 0
2, 17916, Note_on_c, 0, 82, 78
2, 17928, Note_on_c, 0, 82, 0
2, 17928, Note_on_c, 0, 73, 78
2, 17940, Note_on_c, 0, 73, 0
2, 17940, Note_on_c, 0, 82, 78
2, 17952, Note_on_c, 0, 82, 0
2, 17952, Note_on_c, 0, 72, 79
2, 17975, Note_on_c, 0, 72, 0
2, 17976, Note_on_c, 0, 82, 79
2, 17999, Note_on_c, 0, 82, 0
2, 18000, Note_on_c, 0, 82, 79
2, 18023, Note_on_c, 0, 82, 0
2, 18024, Note_on_c, 0, 82, 79
2, 18047, Note_on_c, 0, 82, 0
2, 18048, Note_on_c, 0, 82, 80
2, 18060, Note_on_c, 0, 82, 0
2, 18060, Note_on_c, 0, 81, 80
2, 18071, Note_on_c, 0, 81, 0
2, 18072, Note_on_c, 0, 79, 80
2, 18084, Note_on_c, 0, 79, 0
2, 18084, Note_on_c, 0, 77, 80
2, 18096, Note_on_c, 0, 77, 0
2, 18096, Note_on_c, 0, 77, 80
2, 18106, Note_on_c, 0, 77, 0
2, 18120, Note_on_c, 0, 82, 80
2, 18143, Note_on_c, 0, 82, 0
2, 18144, Note_on_c, 0, 82, 80
2, 18156, Note_on_c, 0, 82, 0
2, 18156, Note_on_c, 0, 81, 80
2, 18167, Note_on_c, 0, 81, 0
2, 18168, Note_on_c, 0, 79, 80
2, 18180, Note_on_c, 0, 79, 0
2, 18180, Note_on_c, 0, 77, 80
2, 18192, Note_on_c, 0, 77, 0
2, 18192, Note_on_c, 0, 77, 80
2, 18202, Note_on_c, 0, 77, 0
2, 18216, Note_on_c, 0, 82, 80
2, 18239, Note_on_c, 0, 82, 0
2, 18240, Note_on_c, 0, 82, 80
2, 18252, Note_on_c, 0, 82, 0
2, 18252, Note_on_c, 0, 81, 80
2, 18263, Note_on_c, 0, 81, 0
2, 18264, Note_on_c, 0, 79, 78
2, 18276, Note_on_c, 0, 79, 0
2, 18276, Note_on_c, 0, 77, 78
2, 18288, Note_on_c, 0, 77, 0
2, 18288, Note_on_c, 0, 77, 77
2, 18308, Note_on_c, 0, 77, 0
2, 18432, Note_on_c, 0, 70, 80
2, 18432, Note_on_c, 0, 62, 80
2, 18499, Note_on_c, 0, 70, 0
2, 18499, Note_on_c, 0, 62, 0
2, 18504, Note_on_c, 0, 75, 80
2, 18504, Note_on_c, 0, 67, 80
2, 18527, Note_on_c, 0, 75, 0
2, 18527, Note_on_c, 0, 67, 0
2, 18528, Note_on_c, 0, 75, 80
2, 18528, Note_on_c, 0, 67, 80
2, 18552, Note_on_c, 0, 75, 0
2, 18552, Note_on_c, 0, 67, 0
2, 18552, Note_on_c, 0, 74, 80
2, 18552, Note_on_c, 0, 65, 80
2, 18575, Note_on_c, 0, 74, 0
2, 18575, Note_on_c, 0, 65, 0
2, 18576, Note_on_c, 0, 74, 80
2, 18576, Note_on_c, 0, 65, 80
2, 18600, Note_on_c, 0, 74, 0
2, 18600, Note_on_c, 0, 65, 0
2, 18600, Note_on_c, 0, 72, 80
2, 18600, Note_on_c, 0, 63, 80
2, 18623, Note_on_c, 0, 72, 0
2, 18623, Note_on_c, 0, 63, 0
2, 18624, Note_on_c, 0, 70, 80
2, 18624, Note_on_c, 0, 62, 80
2, 18691, Note_on_c, 0, 70, 0
2, 18691, Note_on_c, 0, 62, 0
2, 18696, Note_on_c, 0, 79, 80
2, 18696, Note_on_c, 0, 75, 80
2, 18719, Note_on_c, 0, 79, 0
2, 18719, Note_on_c, 0, 75, 0
2, 18720, Note_on_c, 0, 79, 80
2, 18720, Note_on_c, 0, 75, 80
2, 18744, Note_on_c, 0, 79, 0
2, 18744, Note_on_c, 0, 75, 0
2, 18744, Note_on_c, 0, 77, 80
2, 18744, Note_on_c, 0, 74, 80
2, 18767, Note_on_c, 0, 77, 0
2, 18767, Note_on_c, 0, 74, 0
2, 18768, Note_on_c, 0, 77, 80
2, 18768, Note_on_c, 0, 74, 80
2, 18792, Note_on_c, 0, 77, 0
2, 18792, Note_on_c, 0, 74, 0
2, 18792, Note_on_c, 0, 75, 80
2, 18792, Note_on_c, 0, 72, 80
2, 18815, Note_on_c, 0, 75, 0
2, 18815, Note_on_c, 0, 72, 0
2, 18816, Note_on_c, 0, 74, 80
2, 18816, Note_on_c, 0, 70, 80
2, 18883, Note_on_c, 0, 74, 0
2, 18883, Note_on_c, 0, 70, 0
2, 18888, Note_on_c, 0, 82, 80
2, 18888, Note_on_c, 0, 79, 80
2, 18911, Note_on_c, 0, 82, 0
2, 18911, Note_on_c, 0, 79, 0
2, 18912, Note_on_c, 0, 82, 80
2, 18912, Note_on_c, 0, 79, 80
2, 18936, Note_on_c, 0, 82, 0
2, 18936, Note_on_c, 0, 79, 0
2, 18936, Note_on_c, 0, 81, 80
2, 18936, Note_on_c, 0, 77, 80
2, 18959, Note_on_c, 0, 81, 0
2, 18959, Note_on_c, 0, 77, 0
2, 18960, Note_on_c, 0, 81, 80
2, 18960, Note_on_c, 0, 77, 80
2, 18984, Note_on_c, 0, 81, 0
2, 18984, Note_on_c, 0, 77, 0
2, 18984, Note_on_c, 0, 79, 80
2, 18984, Note_on_c, 0, 75, 80
2, 19007, Note_on_c, 0, 79, 0
2, 19007, Note_on_c, 0, 75, 0
2, 19008, Note_on_c, 0, 77, 75
2, 19008, Note_on_c, 0, 74, 75
2, 19097, Note_on_c, 0, 77, 0
2, 19097, Note_on_c, 0, 74, 0
2, 19104, Note_on_c, 0, 62, 77
2, 19108, Note_on_c, 0, 65, 77
2, 19112, Note_on_c, 0, 68, 77
2, 19116, Note_on_c, 0, 71, 77
2, 19120, Note_on_c, 0, 77, 77
2, 19124, Note_on_c, 0, 80, 77
2, 19128, Note_on_c, 0, 83, 77
2, 19132, Note_on_c, 0, 86, 77
2, 19193, Note_on_c, 0, 86, 0
2, 19193, Note_on_c, 0, 83, 0
2, 19193, Note_on_c, 0, 80, 0
2, 19193, Note_on_c, 0, 77, 0
2, 19193, Note_on_c, 0, 71, 0
2, 19193, Note_on_c, 0, 68, 0
2, 19193, Note_on_c, 0, 65, 0
2, 19193, Note_on_c, 0, 62, 0
2, 19200, Note_on_c, 0, 72, 80
2, 19212, Note_on_c, 0, 72, 0
2, 19212, Note_on_c, 0, 74, 80
2, 19224, Note_on_c, 0, 74, 0
2, 19224, Note_on_c, 0, 75, 81
2, 19236, Note_on_c, 0, 75, 0
2, 19236, Note_on_c, 0, 77, 82
2, 19248, Note_on_c, 0, 77, 0
2, 19248, Note_on_c, 0, 79, 83
2, 19260, Note_on_c, 0, 79, 0
2, 19260, Note_on_c, 0, 81, 83
2, 19272, Note_on_c, 0, 81, 0
2, 19272, Note_on_c, 0, 83, 84
2, 19284, Note_on_c, 0, 83, 0
2, 19284, Note_on_c, 0, 84, 85
2, 19290, Note_on_c, 0, 84, 0
2, 19290, Note_on_c, 0, 86, 85
2, 19296, Note_on_c, 0, 86, 0
2, 19296, Note_on_c, 0, 87, 86
2, 19316, Note_on_c, 0, 87, 0
2, 19368, Note_on_c, 0, 79, 80
2, 19376, Note_on_c, 0, 79, 0
2, 19376, Note_on_c, 0, 75, 80
2, 19384, Note_on_c, 0, 75, 0
2, 19384, Note_on_c, 0, 72, 80
2, 19392, Note_on_c, 0, 72, 0
2, 19392, Note_on_c, 0, 70, 80
2, 19525, Note_on_c, 0, 70, 0
2, 19536, Note_on_c, 0, 74, 70
2, 19542, Note_on_c, 0, 74, 0
2, 19542, Note_on_c, 0, 72, 70
2, 19559, Note_on_c, 0, 72, 0
2, 19560, Note_on_c, 0, 70, 68
2, 19583, Note_on_c, 0, 70, 0
2, 19584, Note_on_c, 0, 70, 67
2, 19629, Note_on_c, 0, 70, 0
2, 19656, Note_on_c, 0, 62, 80
2, 19668, Note_on_c, 0, 62, 0
2, 19668, Note_on_c, 0, 70, 80
2, 19680, Note_on_c, 0, 70, 0
2, 19680, Note_on_c, 0, 63, 80
2, 19692, Note_on_c, 0, 63, 0
2, 19692, Note_on_c, 0, 70, 80
2, 19704, Note_on_c, 0, 70, 0
2, 19704, Note_on_c, 0, 62, 80
2, 19716, Note_on_c, 0, 62, 0
2, 19716, Note_on_c, 0, 70, 81
2, 19728, Note_on_c, 0, 70, 0
2, 19728, Note_on_c, 0, 63, 81
2, 19740, Note_on_c, 0, 63, 0
2, 19740, Note_on_c, 0, 70, 82
2, 19752, Note_on_c, 0, 70, 0
2, 19752, Note_on_c, 0, 64, 82
2, 19764, Note_on_c, 0, 64, 0
2, 19764, Note_on_c, 0, 70, 82
2, 19776, Note_on_c, 0, 70, 0
2, 19776, Note_on_c, 0, 65, 83
2, 19788, Note_on_c, 0, 65, 0
2, 19788, Note_on_c, 0, 70, 83
2, 19800, Note_on_c, 0, 70, 0
2, 19800, Note_on_c, 0, 64, 84
2, 19812, Note_on_c, 0, 64, 0
2, 19812, Note_on_c, 0, 70, 84
2, 19824, Note_on_c, 0, 70, 0
2, 19824, Note_on_c, 0, 65, 84
2, 19836, Note_on_c, 0, 65, 0
2, 19836, Note_on_c, 0, 70, 85
2, 19848, Note_on_c, 0, 70, 0
2, 19848, Note_on_c, 0, 62, 85
2, 19860, Note_on_c, 0, 62, 0
2, 19860, Note_on_c, 0, 70, 86
2, 19872, Note_on_c, 0, 70, 0
2, 19872, Note_on_c, 0, 63, 84
2, 19884, Note_on_c, 0, 63, 0
2, 19884, Note_on_c, 0, 70, 83
2, 19896, Note_on_c, 0, 70, 0
2, 19896, Note_on_c, 0, 64, 82
2, 19908, Note_on_c, 0, 64, 0
2, 19908, Note_on_c, 0, 70, 81
2, 19920, Note_on_c, 0, 70, 0
2, 19920, Note_on_c, 0, 65, 80
2, 19932, Note_on_c, 0, 65, 0
2, 19932, Note_on_c, 0, 70, 79
2, 19944, Note_on_c, 0, 70, 0
2, 19944, Note_on_c, 0, 66, 78
2, 19956, Note_on_c, 0, 66, 0
2, 19956, Note_on_c, 0, 70, 77
2, 19968, Note_on_c, 0, 70, 0
2, 19968, Note_on_c, 0, 67, 76
2, 19980, Note_on_c, 0, 67, 0
2, 19980, Note_on_c, 0, 70, 75
2, 19992, Note_on_c, 0, 70, 0
2, 19992, Note_on_c, 0, 66, 74
2, 20004, Note_on_c, 0, 66, 0
2, 20004, Note_on_c, 0, 70, 73
2, 20016, Note_on_c, 0, 70, 0
2, 20016, Note_on_c, 0, 67, 72
2, 20039, Note_on_c, 0, 67, 0
2, 20040, Note_on_c, 0, 79, 70
2, 20040, Note_on_c, 0, 75, 70
2, 20063, Note_on_c, 0, 79, 0
2, 20063, Note_on_c, 0, 75, 0
2, 20064, Note_on_c, 0, 79, 70
2, 20064, Note_on_c, 0, 75, 70
2, 20088, Note_on_c, 0, 79, 0
2, 20088, Note_on_c, 0, 75, 0
2, 20088, Note_on_c, 0, 77, 70
2, 20088, Note_on_c, 0, 74, 70
2, 20111, Note_on_c, 0, 77, 0
2, 20111, Note_on_c, 0, 74, 0
2, 20136, Note_on_c, 0, 69, 70
2, 20136, Note_on_c, 0, 63, 70
2, 20159, Note_on_c, 0, 69, 0
2, 20159, Note_on_c, 0, 63, 0
2, 20160, Note_on_c, 0, 69, 70
2, 20160, Note_on_c, 0, 63, 70
2, 20184, Note_on_c, 0, 69, 0
2, 20184, Note_on_c, 0, 63, 0
2, 20184, Note_on_c, 0, 70, 70
2, 20184, Note_on_c, 0, 62, 70
2, 20207, Note_on_c, 0, 70, 0
2, 20207, Note_on_c, 0, 62, 0
2, 20232, Note_on_c, 0, 79, 70
2, 20232, Note_on_c, 0, 75, 70
2, 20255, Note_on_c, 0, 79, 0
2, 20255, Note_on_c, 0, 75, 0
2, 20256, Note_on_c, 0, 79, 70
2, 20256, Note_on_c, 0, 75, 70
2, 20280, Note_on_c, 0, 79, 0
2, 20280, Note_on_c, 0, 75, 0
2, 20280, Note_on_c, 0, 77, 70
2, 20280, Note_on_c, 0, 74, 70
2, 20303, Note_on_c, 0, 77, 0
2, 20303, Note_on_c, 0, 74, 0
2, 20328, Note_on_c, 0, 69, 75
2, 20328, Note_on_c, 0, 63, 75
2, 20351, Note_on_c, 0, 69, 0
2, 20351, Note_on_c, 0, 63, 0
2, 20352, Note_on_c, 0, 70, 75
2, 20364, Note_on_c, 0, 70, 0
2, 20364, Note_on_c, 0, 77, 75
2, 20376, Note_on_c, 0, 77, 0
2, 20376, Note_on_c, 0, 74, 75
2, 20388, Note_on_c, 0, 74, 0
2, 20388, Note_on_c, 0, 70, 75
2, 20400, Note_on_c, 0, 70, 0
2, 20400, Note_on_c, 0, 65, 75
2, 20412, Note_on_c, 0, 65, 0
2, 20412, Note_on_c, 0, 70, 75
2, 20424, Note_on_c, 0, 70, 0
2, 20424, Note_on_c, 0, 69, 75
2, 20436, Note_on_c, 0, 69, 0
2, 20436, Note_on_c, 0, 72, 75
2, 20448, Note_on_c, 0, 72, 0
2, 20448, Note_on_c, 0, 70, 75
2, 20460, Note_on_c, 0, 70, 0
2, 20460, Note_on_c, 0, 77, 75
2, 20472, Note_on_c, 0, 77, 0
2, 20472, Note_on_c, 0, 74, 75
2, 20484, Note_on_c, 0, 74, 0
2, 20484, Note_on_c, 0, 70, 75
2, 20496, Note_on_c, 0, 70, 0
2, 20496, Note_on_c, 0, 65, 75
2, 20508, Note_on_c, 0, 65, 0
2, 20508, Note_on_c, 0, 70, 75
2, 20520, Note_on_c, 0, 70, 0
2, 20520, Note_on_c, 0, 69, 75
2, 20532, Note_on_c, 0, 69, 0
2, 20532, Note_on_c, 0, 72, 75
2, 20544, Note_on_c, 0, 72, 0
2, 20544, Note_on_c, 0, 70, 75
2, 20589, Note_on_c, 0, 70, 0
2, 20592, Note_on_c, 0, 86, 75
2, 20592, Note_on_c, 0, 82, 75
2, 20637, Note_on_c, 0, 86, 0
2, 20637, Note_on_c, 0, 82, 0
2, 20736, Note_on_c, 0, 67, 80
2, 20825, Note_on_c, 0, 67, 0
2, 20832, Note_on_c, 0, 59, 80
2, 20855, Note_on_c, 0, 59, 0
2, 20856, Note_on_c, 0, 60, 80
2, 20864, Note_on_c, 0, 60, 0
2, 20864, Note_on_c, 0, 59, 80
2, 20872, Note_on_c, 0, 59, 0
2, 20872, Note_on_c, 0, 57, 80
2, 20880, Note_on_c, 0, 57, 0
2, 20880, Note_on_c, 0, 59, 80
2, 20903, Note_on_c, 0, 59, 0
2, 20904, Note_on_c, 0, 60, 80
2, 20927, Note_on_c, 0, 60, 0
2, 20928, Note_on_c, 0, 62, 80
2, 20973, Note_on_c, 0, 62, 0
2, 20976, Note_on_c, 0, 55, 80
2, 21021, Note_on_c, 0, 55, 0
2, 21096, Note_on_c, 0, 84, 64
2, 21120, Note_on_c, 0, 84, 0
2, 21120, Note_on_c, 0, 72, 64
2, 21143, Note_on_c, 0, 72, 0
2, 21192, Note_on_c, 0, 84, 64
2, 21216, Note_on_c, 0, 84, 0
2, 21216, Note_on_c, 0, 74, 64
2, 21239, Note_on_c, 0, 74, 0
2, 21288, Note_on_c, 0, 84, 64
2, 21311, Note_on_c, 0, 84, 0
2, 21312, Note_on_c, 0, 76, 64
2, 21335, Note_on_c, 0, 76, 0
2, 21384, Note_on_c, 0, 84, 64
2, 21407, Note_on_c, 0, 84, 0
2, 21408, Note_on_c, 0, 77, 64
2, 21420, Note_on_c, 0, 77, 0
2, 21420, Note_on_c, 0, 80, 66
2, 21432, Note_on_c, 0, 80, 0
2, 21432, Note_on_c, 0, 84, 68
2, 21444, Note_on_c, 0, 84, 0
2, 21444, Note_on_c, 0, 82, 70
2, 21456, Note_on_c, 0, 82, 0
2, 21456, Note_on_c, 0, 80, 72
2, 21468, Note_on_c, 0, 80, 0
2, 21468, Note_on_c, 0, 79, 74
2, 21480, Note_on_c, 0, 79, 0
2, 21480, Note_on_c, 0, 77, 76
2, 21492, Note_on_c, 0, 77, 0
2, 21492, Note_on_c, 0, 75, 78
2, 21504, Note_on_c, 0, 75, 0
2, 21504, Note_on_c, 0, 74, 80
2, 21516, Note_on_c, 0, 74, 0
2, 21516, Note_on_c, 0, 75, 80
2, 21528, Note_on_c, 0, 75, 0
2, 21528, Note_on_c, 0, 77, 80
2, 21540, Note_on_c, 0, 77, 0
2, 21540, Note_on_c, 0, 75, 80
2, 21552, Note_on_c, 0, 75, 0
2, 21552, Note_on_c, 0, 74, 80
2, 21564, Note_on_c, 0, 74, 0
2, 21564, Note_on_c, 0, 72, 80
2, 21576, Note_on_c, 0, 72, 0
2, 21576, Note_on_c, 0, 70, 80
2, 21588, Note_on_c, 0, 70, 0
2, 21588, Note_on_c, 0, 69, 80
2, 21600, Note_on_c, 0, 69, 0
2, 21600, Note_on_c, 0, 70, 80
2, 21623, Note_on_c, 0, 70, 0
2, 21624, Note_on_c, 0, 89, 80
2, 21647, Note_on_c, 0, 89, 0
2, 21648, Note_on_c, 0, 87, 80
2, 21660, Note_on_c, 0, 87, 0
2, 21660, Note_on_c, 0, 86, 80
2, 21672, Note_on_c, 0, 86, 0
2, 21672, Note_on_c, 0, 84, 80
2, 21684, Note_on_c, 0, 84, 0
2, 21684, Note_on_c, 0, 82, 80
2, 21696, Note_on_c, 0, 82, 0
2, 21696, Note_on_c, 0, 80, 80
2, 21708, Note_on_c, 0, 80, 0
2, 21708, Note_on_c, 0, 82, 80
2, 21720, Note_on_c, 0, 82, 0
2, 21720, Note_on_c, 0, 84, 80
2, 21732, Note_on_c, 0, 84, 0
2, 21732, Note_on_c, 0, 82, 80
2, 21744, Note_on_c, 0, 82, 0
2, 21744, Note_on_c, 0, 80, 80
2, 21756, Note_on_c, 0, 80, 0
2, 21756, Note_on_c, 0, 79, 80
2, 21768, Note_on_c, 0, 79, 0
2, 21768, Note_on_c, 0, 77, 80
2, 21780, Note_on_c, 0, 77, 0
2, 21780, Note_on_c, 0, 75, 80
2, 21792, Note_on_c, 0, 75, 0
2, 21792, Note_on_c, 0, 74, 80
2, 21804, Note_on_c, 0, 74, 0
2, 21804, Note_on_c, 0, 75, 80
2, 21816, Note_on_c, 0, 75, 0
2, 21816, Note_on_c, 0, 77, 80
2, 21828, Note_on_c, 0, 77, 0
2, 21828, Note_on_c, 0, 75, 80
2, 21840, Note_on_c, 0, 75, 0
2, 21840, Note_on_c, 0, 74, 80
2, 21852, Note_on_c, 0, 74, 0
2, 21852, Note_on_c, 0, 72, 80
2, 21864, Note_on_c, 0, 72, 0
2, 21864, Note_on_c, 0, 70, 80
2, 21876, Note_on_c, 0, 70, 0
2, 21876, Note_on_c, 0, 68, 80
2, 21888, Note_on_c, 0, 68, 0
2, 21888, Note_on_c, 0, 67, 80
2, 21900, Note_on_c, 0, 67, 0
2, 21900, Note_on_c, 0, 68, 80
2, 21912, Note_on_c, 0, 68, 0
2, 21912, Note_on_c, 0, 70, 80
2, 21924, Note_on_c, 0, 70, 0
2, 21924, Note_on_c, 0, 68, 80
2, 21936, Note_on_c, 0, 68, 0
2, 21936, Note_on_c, 0, 67, 80
2, 21948, Note_on_c, 0, 67, 0
2, 21948, Note_on_c, 0, 65, 80
2, 21960, Note_on_c, 0, 65, 0
2, 21960, Note_on_c, 0, 63, 80
2, 21972, Note_on_c, 0, 63, 0
2, 21972, Note_on_c, 0, 62, 80
2, 21984, Note_on_c, 0, 62, 0
2, 21984, Note_on_c, 0, 63, 80
2, 22007, Note_on_c, 0, 63, 0
2, 22008, Note_on_c, 0, 82, 80
2, 22031, Note_on_c, 0, 82, 0
2, 22032, Note_on_c, 0, 80, 80
2, 22044, Note_on_c, 0, 80, 0
2, 22044, Note_on_c, 0, 79, 80
2, 22056, Note_on_c, 0, 79, 0
2, 22056, Note_on_c, 0, 77, 80
2, 22068, Note_on_c, 0, 77, 0
2, 22068, Note_on_c, 0, 75, 80
2, 22080, Note_on_c, 0, 75, 0
2, 22080, Note_on_c, 0, 73, 80
2, 22092, Note_on_c, 0, 73, 0
2, 22092, Note_on_c, 0, 75, 80
2, 22104, Note_on_c, 0, 75, 0
2, 22104, Note_on_c, 0, 77, 80
2, 22116, Note_on_c, 0, 77, 0
2, 22116, Note_on_c, 0, 75, 80
2, 22128, Note_on_c, 0, 75, 0
2, 22128, Note_on_c, 0, 73, 80
2, 22140, Note_on_c, 0, 73, 0
2, 22140, Note_on_c, 0, 72, 80
2, 22152, Note_on_c, 0, 72, 0
2, 22152, Note_on_c, 0, 70, 80
2, 22164, Note_on_c, 0, 70, 0
2, 22164, Note_on_c, 0, 68, 80
2, 22176, Note_on_c, 0, 68, 0
2, 22176, Note_on_c, 0, 67, 80
2, 22188, Note_on_c, 0, 67, 0
2, 22188, Note_on_c, 0, 68, 80
2, 22200, Note_on_c, 0, 68, 0
2, 22200, Note_on_c, 0, 70, 80
2, 22212, Note_on_c, 0, 70, 0
2, 22212, Note_on_c, 0, 68, 80
2, 22224, Note_on_c, 0, 68, 0
2, 22224, Note_on_c, 0, 67, 80
2, 22236, Note_on_c, 0, 67, 0
2, 22236, Note_on_c, 0, 65, 80
2, 22248, Note_on_c, 0, 65, 0
2, 22248, Note_on_c, 0, 64, 80
2, 22260, Note_on_c, 0, 64, 0
2, 22260, Note_on_c, 0, 62, 80
2, 22272, Note_on_c, 0, 62, 0
2, 22272, Note_on_c, 0, 60, 80
2, 22361, Note_on_c, 0, 60, 0
2, 22368, Note_on_c, 0, 52, 80
2, 22391, Note_on_c, 0, 52, 0
2, 22392, Note_on_c, 0, 53, 80
2, 22400, Note_on_c, 0, 53, 0
2, 22400, Note_on_c, 0, 52, 80
2, 22408, Note_on_c, 0, 52, 0
2, 22408, Note_on_c, 0, 50, 80
2, 22416, Note_on_c, 0, 50, 0
2, 22416, Note_on_c, 0, 52, 80
2, 22439, Note_on_c, 0, 52, 0
2, 22440, Note_on_c, 0, 53, 80
2, 22463, Note_on_c, 0, 53, 0
2, 22656, Note_on_c, 0, 65, 75
2, 22656, Note_on_c, 0, 56, 75
2, 22723, Note_on_c, 0, 65, 0
2, 22723, Note_on_c, 0, 56, 0
2, 22728, Note_on_c, 0, 70, 75
2, 22728, Note_on_c, 0, 61, 75
2, 22751, Note_on_c, 0, 70, 0
2, 22751, Note_on_c, 0, 61, 0
2, 22752, Note_on_c, 0, 70, 75
2, 22752, Note_on_c, 0, 61, 75
2, 22776, Note_on_c, 0, 70, 0
2, 22776, Note_on_c, 0, 61, 0
2, 22776, Note_on_c, 0, 68, 75
2, 22776, Note_on_c, 0, 60, 75
2, 22799, Note_on_c, 0, 68, 0
2, 22799, Note_on_c, 0, 60, 0
2, 22800, Note_on_c, 0, 68, 75
2, 22800, Note_on_c, 0, 60, 75
2, 22824, Note_on_c, 0, 68, 0
2, 22824, Note_on_c, 0, 60, 0
2, 22824, Note_on_c, 0, 67, 75
2, 22824, Note_on_c, 0, 58, 75
2, 22847, Note_on_c, 0, 67, 0
2, 22847, Note_on_c, 0, 58, 0
2, 22848, Note_on_c, 0, 65, 75
2, 22848, Note_on_c, 0, 56, 75
2, 22915, Note_on_c, 0, 65, 0
2, 22915, Note_on_c, 0, 56, 0
2, 22920, Note_on_c, 0, 73, 75
2, 22920, Note_on_c, 0, 70, 75
2, 22943, Note_on_c, 0, 73, 0
2, 22943, Note_on_c, 0, 70, 0
2, 22944, Note_on_c, 0, 73, 75
2, 22944, Note_on_c, 0, 70, 75
2, 22968, Note_on_c, 0, 73, 0
2, 22968, Note_on_c, 0, 70, 0
2, 22968, Note_on_c, 0, 72, 75
2, 22968, Note_on_c, 0, 68, 75
2, 22991, Note_on_c, 0, 72, 0
2, 22991, Note_on_c, 0, 68, 0
2, 22992, Note_on_c, 0, 72, 75
2, 22992, Note_on_c, 0, 68, 75
2, 23016, Note_on_c, 0, 72, 0
2, 23016, Note_on_c, 0, 68, 0
2, 23016, Note_on_c, 0, 70, 75
2, 23016, Note_on_c, 0, 67, 75
2, 23039, Note_on_c, 0, 70, 0
2, 23039, Note_on_c, 0, 67, 0
2, 23040, Note_on_c, 0, 68, 75
2, 23040, Note_on_c, 0, 65, 75
2, 23107, Note_on_c, 0, 68, 0
2, 23107, Note_on_c, 0, 65, 0
2, 23112, Note_on_c, 0, 77, 75
2, 23112, Note_on_c, 0, 73, 75
2, 23135, Note_on_c, 0, 77, 0
2, 23135, Note_on_c, 0, 73, 0
2, 23136, Note_on_c, 0, 77, 75
2, 23136, Note_on_c, 0, 73, 75
2, 23160, Note_on_c, 0, 77, 0
2, 23160, Note_on_c, 0, 73, 0
2, 23160, Note_on_c, 0, 75, 75
2, 23160, Note_on_c, 0, 72, 75
2, 23183, Note_on_c, 0, 75, 0
2, 23183, Note_on_c, 0, 72, 0
2, 23184, Note_on_c, 0, 75, 75
2, 23184, Note_on_c, 0, 72, 75
2, 23208, Note_on_c, 0, 75, 0
2, 23208, Note_on_c, 0, 72, 0
2, 23208, Note_on_c, 0, 73, 75
2, 23208, Note_on_c, 0, 70, 75
2, 23231, Note_on_c, 0, 73, 0
2, 23231, Note_on_c, 0, 70, 0
2, 23232, Note_on_c, 0, 72, 80
2, 23351, Note_on_c, 0, 72, 0
2, 23352, Note_on_c, 0, 78, 80
2, 23375, Note_on_c, 0, 78, 0
2, 23376, Note_on_c, 0, 77, 80
2, 23399, Note_on_c, 0, 77, 0
2, 23400, Note_on_c, 0, 75, 80
2, 23423, Note_on_c, 0, 75, 0
2, 23424, Note_on_c, 0, 74, 80
2, 23447, Note_on_c, 0, 74, 0
2, 23448, Note_on_c, 0, 75, 80
2, 23471, Note_on_c, 0, 75, 0
2, 23472, Note_on_c, 0, 74, 80
2, 23495, Note_on_c, 0, 74, 0
2, 23496, Note_on_c, 0, 75, 80
2, 23519, Note_on_c, 0, 75, 0
2, 23520, Note_on_c, 0, 74, 80
2, 23543, Note_on_c, 0, 74, 0
2, 23544, Note_on_c, 0, 84, 80
2, 23567, Note_on_c, 0, 84, 0
2, 23568, Note_on_c, 0, 82, 80
2, 23591, Note_on_c, 0, 82, 0
2, 23592, Note_on_c, 0, 80, 80
2, 23615, Note_on_c, 0, 80, 0
2, 23616, Note_on_c, 0, 79, 80
2, 23639, Note_on_c, 0, 79, 0
2, 23640, Note_on_c, 0, 80, 80
2, 23663, Note_on_c, 0, 80, 0
2, 23664, Note_on_c, 0, 79, 80
2, 23687, Note_on_c, 0, 79, 0
2, 23688, Note_on_c, 0, 80, 80
2, 23711, Note_on_c, 0, 80, 0
2, 23712, Note_on_c, 0, 79, 80
2, 23735, Note_on_c, 0, 79, 0
2, 23736, Note_on_c, 0, 77, 80
2, 23759, Note_on_c, 0, 77, 0
2, 23760, Note_on_c, 0, 75, 80
2, 23783, Note_on_c, 0, 75, 0
2, 23784, Note_on_c, 0, 73, 80
2, 23807, Note_on_c, 0, 73, 0
2, 23808, Note_on_c, 0, 72, 80
2, 23808, Note_on_c, 0, 68, 80
2, 23831, Note_on_c, 0, 72, 0
2, 23831, Note_on_c, 0, 68, 0
2, 23832, Note_on_c, 0, 63, 80
2, 23840, Note_on_c, 0, 63, 0
2, 23840, Note_on_c, 0, 65, 80
2, 23848, Note_on_c, 0, 65, 0
2, 23848, Note_on_c, 0, 63, 80
2, 23856, Note_on_c, 0, 63, 0
2, 23856, Note_on_c, 0, 68, 80
2, 23879, Note_on_c, 0, 68, 0
2, 23880, Note_on_c, 0, 60, 80
2, 23892, Note_on_c, 0, 60, 0
2, 23892, Note_on_c, 0, 68, 80
2, 23904, Note_on_c, 0, 68, 0
2, 23904, Note_on_c, 0, 61, 80
2, 23916, Note_on_c, 0, 61, 0
2, 23916, Note_on_c, 0, 68, 80
2, 23928, Note_on_c, 0, 68, 0
2, 23928, Note_on_c, 0, 60, 80
2, 23940, Note_on_c, 0, 60, 0
2, 23940, Note_on_c, 0, 68, 80
2, 23952, Note_on_c, 0, 68, 0
2, 23952, Note_on_c, 0, 61, 80
2, 23964, Note_on_c, 0, 61, 0
2, 23964, Note_on_c, 0, 68, 80
2, 23976, Note_on_c, 0, 68, 0
2, 23976, Note_on_c, 0, 63, 80
2, 23988, Note_on_c, 0, 63, 0
2, 23988, Note_on_c, 0, 68, 80
2, 24000, Note_on_c, 0, 68, 0
2, 24000, Note_on_c, 0, 65, 80
2, 24023, Note_on_c, 0, 65, 0
2, 24024, Note_on_c, 0, 73, 80
2, 24024, Note_on_c, 0, 65, 80
2, 24047, Note_on_c, 0, 73, 0
2, 24047, Note_on_c, 0, 65, 0
2, 24048, Note_on_c, 0, 73, 80
2, 24048, Note_on_c, 0, 65, 80
2, 24071, Note_on_c, 0, 73, 0
2, 24071, Note_on_c, 0, 65, 0
2, 24072, Note_on_c, 0, 73, 80
2, 24072, Note_on_c, 0, 65, 80
2, 24095, Note_on_c, 0, 73, 0
2, 24095, Note_on_c, 0, 65, 0
2, 24096, Note_on_c, 0, 73, 80
2, 24096, Note_on_c, 0, 65, 80
2, 24120, Note_on_c, 0, 73, 0
2, 24120, Note_on_c, 0, 65, 0
2, 24120, Note_on_c, 0, 72, 80
2, 24120, Note_on_c, 0, 63, 80
2, 24143, Note_on_c, 0, 72, 0
2, 24143, Note_on_c, 0, 63, 0
2, 24144, Note_on_c, 0, 72, 80
2, 24144, Note_on_c, 0, 63, 80
2, 24168, Note_on_c, 0, 72, 0
2, 24168, Note_on_c, 0, 63, 0
2, 24168, Note_on_c, 0, 70, 80
2, 24168, Note_on_c, 0, 61, 80
2, 24191, Note_on_c, 0, 70, 0
2, 24191, Note_on_c, 0, 61, 0
2, 24192, Note_on_c, 0, 68, 80
2, 24192, Note_on_c, 0, 60, 80
2, 24215, Note_on_c, 0, 68, 0
2, 24215, Note_on_c, 0, 60, 0
2, 24216, Note_on_c, 0, 63, 80
2, 24224, Note_on_c, 0, 63, 0
2, 24224, Note_on_c, 0, 65, 80
2, 24232, Note_on_c, 0, 65, 0
2, 24232, Note_on_c, 0, 63, 80
2, 24240, Note_on_c, 0, 63, 0
2, 24240, Note_on_c, 0, 68, 80
2, 24263, Note_on_c, 0, 68, 0
2, 24264, Note_on_c, 0, 60, 80
2, 24276, Note_on_c, 0, 60, 0
2, 24276, Note_on_c, 0, 68, 80
2, 24288, Note_on_c, 0, 68, 0
2, 24288, Note_on_c, 0, 61, 80
2, 24300, Note_on_c, 0, 61, 0
2, 24300, Note_on_c, 0, 68, 80
2, 24312, Note_on_c, 0, 68, 0
2, 24312, Note_on_c, 0, 60, 80
2, 24324, Note_on_c, 0, 60, 0
2, 24324, Note_on_c, 0, 68, 80
2, 24336, Note_on_c, 0, 68, 0
2, 24336, Note_on_c, 0, 61, 80
2, 24348, Note_on_c, 0, 61, 0
2, 24348, Note_on_c, 0, 68, 80
2, 24360, Note_on_c, 0, 68, 0
2, 24360, Note_on_c, 0, 63, 80
2, 24372, Note_on_c, 0, 63, 0
2, 24372, Note_on_c, 0, 68, 80
2, 24384, Note_on_c, 0, 68, 0
2, 24384, Note_on_c, 0, 65, 80
2, 24407, Note_on_c, 0, 65, 0
2, 24408, Note_on_c, 0, 77, 80
2, 24408, Note_on_c, 0, 73, 80
2, 24431, Note_on_c, 0, 77, 0
2, 24431, Note_on_c, 0, 73, 0
2, 24432, Note_on_c, 0, 77, 80
2, 24432, Note_on_c, 0, 73, 80
2, 24455, Note_on_c, 0, 77, 0
2, 24455, Note_on_c, 0, 73, 0
2, 24456, Note_on_c, 0, 77, 80
2, 24456, Note_on_c, 0, 73, 80
2, 24479, Note_on_c, 0, 77, 0
2, 24479, Note_on_c, 0, 73, 0
2, 24480, Note_on_c, 0, 77, 80
2, 24480, Note_on_c, 0, 73, 80
2, 24504, Note_on_c, 0, 77, 0
2, 24504, Note_on_c, 0, 73, 0
2, 24504, Note_on_c, 0, 75, 80
2, 24504, Note_on_c, 0, 72, 80
2, 24527, Note_on_c, 0, 75, 0
2, 24527, Note_on_c, 0, 72, 0
2, 24528, Note_on_c, 0, 75, 80
2, 24528, Note_on_c, 0, 72, 80
2, 24552, Note_on_c, 0, 75, 0
2, 24552, Note_on_c, 0, 72, 0
2, 24552, Note_on_c, 0, 73, 80
2, 24552, Note_on_c, 0, 70, 80
2, 24575, Note_on_c, 0, 73, 0
2, 24575, Note_on_c, 0, 70, 0
2, 24576, Note_on_c, 0, 72, 80
2, 24576, Note_on_c, 0, 68, 80
2, 24599, Note_on_c, 0, 72, 0
2, 24599, Note_on_c, 0, 68, 0
2, 24600, Note_on_c, 0, 75, 80
2, 24608, Note_on_c, 0, 75, 0
2, 24608, Note_on_c, 0, 77, 80
2, 24616, Note_on_c, 0, 77, 0
2, 24616, Note_on_c, 0, 75, 80
2, 24624, Note_on_c, 0, 75, 0
2, 24624, Note_on_c, 0, 80, 80
2, 24634, Note_on_c, 0, 80, 0
2, 24648, Note_on_c, 0, 75, 80
2, 24660, Note_on_c, 0, 75, 0
2, 24660, Note_on_c, 0, 80, 80
2, 24672, Note_on_c, 0, 80, 0
2, 24672, Note_on_c, 0, 77, 80
2, 24684, Note_on_c, 0, 77, 0
2, 24684, Note_on_c, 0, 80, 80
2, 24696, Note_on_c, 0, 80, 0
2, 24696, Note_on_c, 0, 75, 80
2, 24708, Note_on_c, 0, 75, 0
2, 24708, Note_on_c, 0, 80, 80
2, 24720, Note_on_c, 0, 80, 0
2, 24720, Note_on_c, 0, 77, 80
2, 24732, Note_on_c, 0, 77, 0
2, 24732, Note_on_c, 0, 80, 80
2, 24744, Note_on_c, 0, 80, 0
2, 24744, Note_on_c, 0, 75, 80
2, 24756, Note_on_c, 0, 75, 0
2, 24756, Note_on_c, 0, 80, 80
2, 24768, Note_on_c, 0, 80, 0
2, 24768, Note_on_c, 0, 74, 80
2, 24780, Note_on_c, 0, 74, 0
2, 24780, Note_on_c, 0, 80, 80
2, 24792, Note_on_c, 0, 80, 0
2, 24792, Note_on_c, 0, 79, 80
2, 24804, Note_on_c, 0, 79, 0
2, 24804, Note_on_c, 0, 80, 80
2, 24816, Note_on_c, 0, 80, 0
2, 24816, Note_on_c, 0, 82, 80
2, 24828, Note_on_c, 0, 82, 0
2, 24828, Note_on_c, 0, 80, 80
2, 24840, Note_on_c, 0, 80, 0
2, 24840, Note_on_c, 0, 79, 80
2, 24852, Note_on_c, 0, 79, 0
2, 24852, Note_on_c, 0, 80, 80
2, 24864, Note_on_c, 0, 80, 0
2, 24864, Note_on_c, 0, 89, 80
2, 24876, Note_on_c, 0, 89, 0
2, 24876, Note_on_c, 0, 87, 78
2, 24888, Note_on_c, 0, 87, 0
2, 24888, Note_on_c, 0, 86, 77
2, 24900, Note_on_c, 0, 86, 0
2, 24900, Note_on_c, 0, 84, 76
2, 24912, Note_on_c, 0, 84, 0
2, 24912, Note_on_c, 0, 82, 75
2, 24924, Note_on_c, 0, 82, 0
2, 24924, Note_on_c, 0, 80, 73
2, 24936, Note_on_c, 0, 80, 0
2, 24936, Note_on_c, 0, 79, 72
2, 24948, Note_on_c, 0, 79, 0
2, 24948, Note_on_c, 0, 77, 71
2, 24960, Note_on_c, 0, 77, 0
2, 24960, Note_on_c, 0, 75, 70
2, 25056, Note_on_c, 0, 75, 0
2, 25056, Note_on_c, 0, 74, 70
2, 25101, Note_on_c, 0, 74, 0
2, 25104, Note_on_c, 0, 73, 70
2, 25149, Note_on_c, 0, 73, 0
2, 25152, Note_on_c, 0, 71, 70
2, 25200, Note_on_c, 0, 71, 0
2, 25200, Note_on_c, 0, 72, 70
2, 25245, Note_on_c, 0, 72, 0
2, 25344, Note_on_c, 0, 77, 70
2, 25389, Note_on_c, 0, 77, 0
2, 25392, Note_on_c, 0, 70, 70
2, 25485, Note_on_c, 0, 70, 0
2, 25488, Note_on_c, 0, 74, 70
2, 25494, Note_on_c, 0, 74, 0
2, 25494, Note_on_c, 0, 72, 70
2, 25511, Note_on_c, 0, 72, 0
2, 25512, Note_on_c, 0, 70, 70
2, 25535, Note_on_c, 0, 70, 0
2, 25536, Note_on_c, 0, 70, 70
2, 25559, Note_on_c, 0, 70, 0
2, 25560, Note_on_c, 0, 72, 70
2, 25572, Note_on_c, 0, 72, 0
2, 25572, Note_on_c, 0, 74, 71
2, 25584, Note_on_c, 0, 74, 0
2, 25584, Note_on_c, 0, 75, 71
2, 25596, Note_on_c, 0, 75, 0
2, 25596, Note_on_c, 0, 77, 72
2, 25608, Note_on_c, 0, 77, 0
2, 25608, Note_on_c, 0, 79, 72
2, 25620, Note_on_c, 0, 79, 0
2, 25620, Note_on_c, 0, 80, 72
2, 25632, Note_on_c, 0, 80, 0
2, 25632, Note_on_c, 0, 82, 73
2, 25677, Note_on_c, 0, 82, 0
2, 25728, Note_on_c, 0, 77, 70
2, 25773, Note_on_c, 0, 77, 0
2, 25776, Note_on_c, 0, 70, 70
2, 25869, Note_on_c, 0, 70, 0
2, 25872, Note_on_c, 0, 74, 70
2, 25878, Note_on_c, 0, 74, 0
2, 25878, Note_on_c, 0, 72, 70
2, 25895, Note_on_c, 0, 72, 0
2, 25896, Note_on_c, 0, 70, 70
2, 25919, Note_on_c, 0, 70, 0
2, 25920, Note_on_c, 0, 70, 70
2, 25943, Note_on_c, 0, 70, 0
2, 25944, Note_on_c, 0, 72, 70
2, 25956, Note_on_c, 0, 72, 0
2, 25956, Note_on_c, 0, 73, 71
2, 25968, Note_on_c, 0, 73, 0
2, 25968, Note_on_c, 0, 75, 71
2, 25980, Note_on_c, 0, 75, 0
2, 25980, Note_on_c, 0, 77, 72
2, 25992, Note_on_c, 0, 77, 0
2, 25992, Note_on_c, 0, 79, 72
2, 26004, Note_on_c, 0, 79, 0
2, 26004, Note_on_c, 0, 80, 72
2, 26016, Note_on_c, 0, 80, 0
2, 26016, Note_on_c, 0, 82, 73
2, 26061, Note_on_c, 0, 82, 0
2, 26112, Note_on_c, 0, 70, 75
2, 26135, Note_on_c, 0, 70, 0
2, 26136, Note_on_c, 0, 72, 75
2, 26148, Note_on_c, 0, 72, 0
2, 26148, Note_on_c, 0, 74, 76
2, 26160, Note_on_c, 0, 74, 0
2, 26160, Note_on_c, 0, 76, 76
2, 26172, Note_on_c, 0, 76, 0
2, 26172, Note_on_c, 0, 77, 77
2, 26184, Note_on_c, 0, 77, 0
2, 26184, Note_on_c, 0, 79, 77
2, 26196, Note_on_c, 0, 79, 0
2, 26196, Note_on_c, 0, 80, 77
2, 26208, Note_on_c, 0, 80, 0
2, 26208, Note_on_c, 0, 82, 78
2, 26253, Note_on_c, 0, 82, 0
2, 26304, Note_on_c, 0, 72, 80
2, 26316, Note_on_c, 0, 72, 0
2, 26316, Note_on_c, 0, 74, 80
2, 26328, Note_on_c, 0, 74, 0
2, 26328, Note_on_c, 0, 76, 81
2, 26340, Note_on_c, 0, 76, 0
2, 26340, Note_on_c, 0, 77, 81
2, 26352, Note_on_c, 0, 77, 0
2, 26352, Note_on_c, 0, 79, 82
2, 26364, Note_on_c, 0, 79, 0
2, 26364, Note_on_c, 0, 80, 82
2, 26376, Note_on_c, 0, 80, 0
2, 26376, Note_on_c, 0, 82, 83
2, 26388, Note_on_c, 0, 82, 0
2, 26388, Note_on_c, 0, 84, 83
2, 26400, Note_on_c, 0, 84, 0
2, 26400, Note_on_c, 0, 85, 84
2, 26445, Note_on_c, 0, 85, 0
2, 26472, Note_on_c, 0, 76, 86
2, 26495, Note_on_c, 0, 76, 0
2, 26496, Note_on_c, 0, 77, 80
2, 26585, Note_on_c, 0, 77, 0
2, 26592, Note_on_c, 0, 68, 80
2, 26615, Note_on_c, 0, 68, 0
2, 26616, Note_on_c, 0, 70, 80
2, 26624, Note_on_c, 0, 70, 0
2, 26624, Note_on_c, 0, 68, 80
2, 26632, Note_on_c, 0, 68, 0
2, 26632, Note_on_c, 0, 67, 80
2, 26640, Note_on_c, 0, 67, 0
2, 26640, Note_on_c, 0, 68, 80
2, 26663, Note_on_c, 0, 68, 0
2, 26664, Note_on_c, 0, 70, 80
2, 26687, Note_on_c, 0, 70, 0
2, 26688, Note_on_c, 0, 72, 80
2, 26708, Note_on_c, 0, 72, 0
2, 26736, Note_on_c, 0, 72, 80
2, 26756, Note_on_c, 0, 72, 0
2, 26784, Note_on_c, 0, 72, 80
2, 26807, Note_on_c, 0, 72, 0
2, 26808, Note_on_c, 0, 74, 80
2, 26820, Note_on_c, 0, 74, 0
2, 26820, Note_on_c, 0, 76, 80
2, 26832, Note_on_c, 0, 76, 0
2, 26832, Note_on_c, 0, 77, 80
2, 26844, Note_on_c, 0, 77, 0
2, 26844, Note_on_c, 0, 79, 80
2, 26856, Note_on_c, 0, 79, 0
2, 26856, Note_on_c, 0, 80, 80
2, 26868, Note_on_c, 0, 80, 0
2, 26868, Note_on_c, 0, 82, 80
2, 26880, Note_on_c, 0, 82, 0
2, 26880, Note_on_c, 0, 84, 80
2, 26914, Note_on_c, 0, 84, 0
2, 26916, Note_on_c, 0, 79, 80
2, 26928, Note_on_c, 0, 79, 0
2, 26928, Note_on_c, 0, 80, 80
2, 26962, Note_on_c, 0, 80, 0
2, 26964, Note_on_c, 0, 76, 80
2, 26976, Note_on_c, 0, 76, 0
2, 26976, Note_on_c, 0, 77, 80
2, 27010, Note_on_c, 0, 77, 0
2, 27012, Note_on_c, 0, 73, 80
2, 27024, Note_on_c, 0, 73, 0
2, 27024, Note_on_c, 0, 72, 80
2, 27030, Note_on_c, 0, 72, 0
2, 27030, Note_on_c, 0, 74, 80
2, 27036, Note_on_c, 0, 74, 0
2, 27036, Note_on_c, 0, 72, 80
2, 27058, Note_on_c, 0, 72, 0
2, 27060, Note_on_c, 0, 71, 80
2, 27072, Note_on_c, 0, 71, 0
2, 27072, Note_on_c, 0, 72, 80
2, 27117, Note_on_c, 0, 72, 0
2, 27120, Note_on_c, 0, 60, 80
2, 27165, Note_on_c, 0, 60, 0
2, 27264, Note_on_c, 0, 75, 75
2, 27287, Note_on_c, 0, 75, 0
2, 27288, Note_on_c, 0, 74, 75
2, 27311, Note_on_c, 0, 74, 0
2, 27312, Note_on_c, 0, 75, 75
2, 27335, Note_on_c, 0, 75, 0
2, 27336, Note_on_c, 0, 74, 75
2, 27359, Note_on_c, 0, 74, 0
2, 27360, Note_on_c, 0, 75, 91
2, 27384, Note_on_c, 0, 75, 0
2, 27384, Note_on_c, 0, 84, 75
2, 27396, Note_on_c, 0, 84, 0
2, 27396, Note_on_c, 0, 82, 75
2, 27408, Note_on_c, 0, 82, 0
2, 27408, Note_on_c, 0, 81, 75
2, 27420, Note_on_c, 0, 81, 0
2, 27420, Note_on_c, 0, 79, 75
2, 27432, Note_on_c, 0, 79, 0
2, 27432, Note_on_c, 0, 77, 75
2, 27444, Note_on_c, 0, 77, 0
2, 27444, Note_on_c, 0, 75, 75
2, 27456, Note_on_c, 0, 75, 0
2, 27456, Note_on_c, 0, 74, 75
2, 27479, Note_on_c, 0, 74, 0
2, 27480, Note_on_c, 0, 75, 75
2, 27503, Note_on_c, 0, 75, 0
2, 27504, Note_on_c, 0, 74, 75
2, 27527, Note_on_c, 0, 74, 0
2, 27528, Note_on_c, 0, 75, 75
2, 27551, Note_on_c, 0, 75, 0
2, 27552, Note_on_c, 0, 74, 91
2, 27576, Note_on_c, 0, 74, 0
2, 27576, Note_on_c, 0, 77, 75
2, 27588, Note_on_c, 0, 77, 0
2, 27588, Note_on_c, 0, 75, 75
2, 27600, Note_on_c, 0, 75, 0
2, 27600, Note_on_c, 0, 74, 75
2, 27612, Note_on_c, 0, 74, 0
2, 27612, Note_on_c, 0, 72, 75
2, 27624, Note_on_c, 0, 72, 0
2, 27624, Note_on_c, 0, 70, 75
2, 27636, Note_on_c, 0, 70, 0
2, 27636, Note_on_c, 0, 68, 75
2, 27648, Note_on_c, 0, 68, 0
2, 27648, Note_on_c, 0, 67, 75
2, 27671, Note_on_c, 0, 67, 0
2, 27672, Note_on_c, 0, 68, 75
2, 27695, Note_on_c, 0, 68, 0
2, 27696, Note_on_c, 0, 67, 75
2, 27719, Note_on_c, 0, 67, 0
2, 27720, Note_on_c, 0, 68, 75
2, 27743, Note_on_c, 0, 68, 0
2, 27744, Note_on_c, 0, 67, 91
2, 27768, Note_on_c, 0, 67, 0
2, 27768, Note_on_c, 0, 82, 75
2, 27780, Note_on_c, 0, 82, 0
2, 27780, Note_on_c, 0, 80, 75
2, 27792, Note_on_c, 0, 80, 0
2, 27792, Note_on_c, 0, 79, 75
2, 27804, Note_on_c, 0, 79, 0
2, 27804, Note_on_c, 0, 77, 75
2, 27816, Note_on_c, 0, 77, 0
2, 27816, Note_on_c, 0, 75, 75
2, 27828, Note_on_c, 0, 75, 0
2, 27828, Note_on_c, 0, 73, 75
2, 27840, Note_on_c, 0, 73, 0
2, 27840, Note_on_c, 0, 72, 75
2, 27863, Note_on_c, 0, 72, 0
2, 27864, Note_on_c, 0, 73, 75
2, 27887, Note_on_c, 0, 73, 0
2, 27888, Note_on_c, 0, 72, 75
2, 27911, Note_on_c, 0, 72, 0
2, 27912, Note_on_c, 0, 73, 75
2, 27935, Note_on_c, 0, 73, 0
2, 27936, Note_on_c, 0, 72, 91
2, 27960, Note_on_c, 0, 72, 0
2, 27960, Note_on_c, 0, 79, 75
2, 27972, Note_on_c, 0, 79, 0
2, 27972, Note_on_c, 0, 77, 75
2, 27984, Note_on_c, 0, 77, 0
2, 27984, Note_on_c, 0, 76, 75
2, 27996, Note_on_c, 0, 76, 0
2, 27996, Note_on_c, 0, 74, 75
2, 28008, Note_on_c, 0, 74, 0
2, 28008, Note_on_c, 0, 72, 75
2, 28020, Note_on_c, 0, 72, 0
2, 28020, Note_on_c, 0, 70, 75
2, 28032, Note_on_c, 0, 70, 0
2, 28032, Note_on_c, 0, 69, 75
2, 28055, Note_on_c, 0, 69, 0
2, 28056, Note_on_c, 0, 70, 75
2, 28079, Note_on_c, 0, 70, 0
2, 28080, Note_on_c, 0, 69, 75
2, 28103, Note_on_c, 0, 69, 0
2, 28104, Note_on_c, 0, 70, 75
2, 28127, Note_on_c, 0, 70, 0
2, 28128, Note_on_c, 0, 69, 91
2, 28152, Note_on_c, 0, 69, 0
2, 28152, Note_on_c, 0, 84, 75
2, 28164, Note_on_c, 0, 84, 0
2, 28164, Note_on_c, 0, 82, 75
2, 28176, Note_on_c, 0, 82, 0
2, 28176, Note_on_c, 0, 81, 75
2, 28188, Note_on_c, 0, 81, 0
2, 28188, Note_on_c, 0, 79, 75
2, 28200, Note_on_c, 0, 79, 0
2, 28200, Note_on_c, 0, 77, 75
2, 28212, Note_on_c, 0, 77, 0
2, 28212, Note_on_c, 0, 75, 75
2, 28224, Note_on_c, 0, 75, 0
2, 28224, Note_on_c, 0, 74, 75
2, 28247, Note_on_c, 0, 74, 0
2, 28248, Note_on_c, 0, 75, 75
2, 28271, Note_on_c, 0, 75, 0
2, 28272, Note_on_c, 0, 74, 75
2, 28295, Note_on_c, 0, 74, 0
2, 28296, Note_on_c, 0, 75, 75
2, 28319, Note_on_c, 0, 75, 0
2, 28320, Note_on_c, 0, 74, 91
2, 28344, Note_on_c, 0, 74, 0
2, 28344, Note_on_c, 0, 81, 75
2, 28356, Note_on_c, 0, 81, 0
2, 28356, Note_on_c, 0, 79, 75
2, 28368, Note_on_c, 0, 79, 0
2, 28368, Note_on_c, 0, 78, 75
2, 28380, Note_on_c, 0, 78, 0
2, 28380, Note_on_c, 0, 76, 75
2, 28392, Note_on_c, 0, 76, 0
2, 28392, Note_on_c, 0, 74, 75
2, 28404, Note_on_c, 0, 74, 0
2, 28404, Note_on_c, 0, 72, 75
2, 28416, Note_on_c, 0, 72, 0
2, 28416, Note_on_c, 0, 70, 91
2, 28440, Note_on_c, 0, 70, 0
2, 28440, Note_on_c, 0, 86, 75
2, 28452, Note_on_c, 0, 86, 0
2, 28452, Note_on_c, 0, 84, 75
2, 28464, Note_on_c, 0, 84, 0
2, 28464, Note_on_c, 0, 82, 75
2, 28476, Note_on_c, 0, 82, 0
2, 28476, Note_on_c, 0, 81, 75
2, 28488, Note_on_c, 0, 81, 0
2, 28488, Note_on_c, 0, 79, 75
2, 28500, Note_on_c, 0, 79, 0
2, 28500, Note_on_c, 0, 77, 75
2, 28512, Note_on_c, 0, 77, 0
2, 28512, Note_on_c, 0, 75, 91
2, 28536, Note_on_c, 0, 75, 0
2, 28536, Note_on_c, 0, 72, 76
2, 28548, Note_on_c, 0, 72, 0
2, 28548, Note_on_c, 0, 70, 76
2, 28560, Note_on_c, 0, 70, 0
2, 28560, Note_on_c, 0, 69, 77
2, 28572, Note_on_c, 0, 69, 0
2, 28572, Note_on_c, 0, 67, 78
2, 28584, Note_on_c, 0, 67, 0
2, 28584, Note_on_c, 0, 66, 78
2, 28596, Note_on_c, 0, 66, 0
2, 28596, Note_on_c, 0, 64, 79
2, 28608, Note_on_c, 0, 64, 0
2, 28608, Note_on_c, 0, 62, 80
2, 28653, Note_on_c, 0, 62, 0
2, 28656, Note_on_c, 0, 74, 80
2, 28679, Note_on_c, 0, 74, 0
2, 28680, Note_on_c, 0, 66, 80
2, 28692, Note_on_c, 0, 66, 0
2, 28692, Note_on_c, 0, 74, 80
2, 28704, Note_on_c, 0, 74, 0
2, 28704, Note_on_c, 0, 67, 80
2, 28716, Note_on_c, 0, 67, 0
2, 28716, Note_on_c, 0, 74, 80
2, 28728, Note_on_c, 0, 74, 0
2, 28728, Note_on_c, 0, 69, 80
2, 28740, Note_on_c, 0, 69, 0
2, 28740, Note_on_c, 0, 74, 80
2, 28752, Note_on_c, 0, 74, 0
2, 28752, Note_on_c, 0, 70, 80
2, 28764, Note_on_c, 0, 70, 0
2, 28764, Note_on_c, 0, 74, 80
2, 28776, Note_on_c, 0, 74, 0
2, 28776, Note_on_c, 0, 61, 80
2, 28788, Note_on_c, 0, 61, 0
2, 28788, Note_on_c, 0, 74, 80
2, 28800, Note_on_c, 0, 74, 0
2, 28800, Note_on_c, 0, 62, 80
2, 28812, Note_on_c, 0, 62, 0
2, 28812, Note_on_c, 0, 74, 80
2, 28824, Note_on_c, 0, 74, 0
2, 28824, Note_on_c, 0, 61, 80
2, 28836, Note_on_c, 0, 61, 0
2, 28836, Note_on_c, 0, 74, 80
2, 28848, Note_on_c, 0, 74, 0
2, 28848, Note_on_c, 0, 62, 80
2, 28860, Note_on_c, 0, 62, 0
2, 28860, Note_on_c, 0, 74, 80
2, 28872, Note_on_c, 0, 74, 0
2, 28872, Note_on_c, 0, 66, 80
2, 28884, Note_on_c, 0, 66, 0
2, 28884, Note_on_c, 0, 74, 80
2, 28896, Note_on_c, 0, 74, 0
2, 28896, Note_on_c, 0, 67, 80
2, 28908, Note_on_c, 0, 67, 0
2, 28908, Note_on_c, 0, 74, 80
2, 28920, Note_on_c, 0, 74, 0
2, 28920, Note_on_c, 0, 69, 80
2, 28932, Note_on_c, 0, 69, 0
2, 28932, Note_on_c, 0, 74, 80
2, 28944, Note_on_c, 0, 74, 0
2, 28944, Note_on_c, 0, 70, 80
2, 28956, Note_on_c, 0, 70, 0
2, 28956, Note_on_c, 0, 74, 80
2, 28968, Note_on_c, 0, 74, 0
2, 28968, Note_on_c, 0, 61, 80
2, 28980, Note_on_c, 0, 61, 0
2, 28980, Note_on_c, 0, 74, 80
2, 28992, Note_on_c, 0, 74, 0
2, 28992, Note_on_c, 0, 62, 80
2, 29004, Note_on_c, 0, 62, 0
2, 29004, Note_on_c, 0, 74, 80
2, 29016, Note_on_c, 0, 74, 0
2, 29016, Note_on_c, 0, 61, 80
2, 29028, Note_on_c, 0, 61, 0
2, 29028, Note_on_c, 0, 74, 80
2, 29040, Note_on_c, 0, 74, 0
2, 29040, Note_on_c, 0, 62, 80
2, 29052, Note_on_c, 0, 62, 0
2, 29052, Note_on_c, 0, 74, 80
2, 29064, Note_on_c, 0, 74, 0
2, 29064, Note_on_c, 0, 70, 80
2, 29076, Note_on_c, 0, 70, 0
2, 29076, Note_on_c, 0, 74, 80
2, 29088, Note_on_c, 0, 74, 0
2, 29088, Note_on_c, 0, 69, 80
2, 29100, Note_on_c, 0, 69, 0
2, 29100, Note_on_c, 0, 74, 80
2, 29112, Note_on_c, 0, 74, 0
2, 29112, Note_on_c, 0, 61, 80
2, 29124, Note_on_c, 0, 61, 0
2, 29124, Note_on_c, 0, 74, 80
2, 29136, Note_on_c, 0, 74, 0
2, 29136, Note_on_c, 0, 62, 80
2, 29148, Note_on_c, 0, 62, 0
2, 29148, Note_on_c, 0, 74, 80
2, 29160, Note_on_c, 0, 74, 0
2, 29160, Note_on_c, 0, 70, 80
2, 29172, Note_on_c, 0, 70, 0
2, 29172, Note_on_c, 0, 74, 80
2, 29184, Note_on_c, 0, 74, 0
2, 29184, Note_on_c, 0, 69, 80
2, 29196, Note_on_c, 0, 69, 0
2, 29196, Note_on_c, 0, 74, 80
2, 29208, Note_on_c, 0, 74, 0
2, 29208, Note_on_c, 0, 61, 80
2, 29220, Note_on_c, 0, 61, 0
2, 29220, Note_on_c, 0, 74, 80
2, 29232, Note_on_c, 0, 74, 0
2, 29232, Note_on_c, 0, 62, 80
2, 29244, Note_on_c, 0, 62, 0
2, 29244, Note_on_c, 0, 74, 80
2, 29256, Note_on_c, 0, 74, 0
2, 29256, Note_on_c, 0, 70, 80
2, 29268, Note_on_c, 0, 70, 0
2, 29268, Note_on_c, 0, 74, 80
2, 29280, Note_on_c, 0, 74, 0
2, 29280, Note_on_c, 0, 69, 80
2, 29292, Note_on_c, 0, 69, 0
2, 29292, Note_on_c, 0, 74, 80
2, 29304, Note_on_c, 0, 74, 0
2, 29304, Note_on_c, 0, 70, 80
2, 29316, Note_on_c, 0, 70, 0
2, 29316, Note_on_c, 0, 74, 80
2, 29328, Note_on_c, 0, 74, 0
2, 29328, Note_on_c, 0, 69, 80
2, 29340, Note_on_c, 0, 69, 0
2, 29340, Note_on_c, 0, 74, 80
2, 29352, Note_on_c, 0, 74, 0
2, 29352, Note_on_c, 0, 70, 80
2, 29364, Note_on_c, 0, 70, 0
2, 29364, Note_on_c, 0, 74, 80
2, 29376, Note_on_c, 0, 74, 0
2, 29376, Note_on_c, 0, 69, 80
2, 29415, Note_on_c, 0, 69, 0
2, 29568, Note_on_c, 0, 63, 64
2, 29657, Note_on_c, 0, 63, 0
2, 29664, Note_on_c, 0, 55, 64
2, 29687, Note_on_c, 0, 55, 0
2, 29688, Note_on_c, 0, 57, 64
2, 29696, Note_on_c, 0, 57, 0
2, 29696, Note_on_c, 0, 55, 64
2, 29704, Note_on_c, 0, 55, 0
2, 29704, Note_on_c, 0, 53, 64
2, 29712, Note_on_c, 0, 53, 0
2, 29712, Note_on_c, 0, 55, 64
2, 29735, Note_on_c, 0, 55, 0
2, 29736, Note_on_c, 0, 57, 64
2, 29759, Note_on_c, 0, 57, 0
2, 29760, Note_on_c, 0, 58, 64
2, 29780, Note_on_c, 0, 58, 0
2, 29808, Note_on_c, 0, 58, 64
2, 29828, Note_on_c, 0, 58, 0
2, 29856, Note_on_c, 0, 58, 64
2, 29901, Note_on_c, 0, 58, 0
2, 29904, Note_on_c, 0, 57, 64
2, 29916, Note_on_c, 0, 57, 0
2, 29916, Note_on_c, 0, 58, 64
2, 29928, Note_on_c, 0, 58, 0
2, 29928, Note_on_c, 0, 60, 64
2, 29940, Note_on_c, 0, 60, 0
2, 29940, Note_on_c, 0, 58, 64
2, 29952, Note_on_c, 0, 58, 0
2, 29952, Note_on_c, 0, 63, 64
2, 29972, Note_on_c, 0, 63, 0
2, 30000, Note_on_c, 0, 63, 67
2, 30020, Note_on_c, 0, 63, 0
2, 30048, Note_on_c, 0, 63, 71
2, 30093, Note_on_c, 0, 63, 0
2, 30096, Note_on_c, 0, 67, 75
2, 30102, Note_on_c, 0, 67, 0
2, 30102, Note_on_c, 0, 65, 75
2, 30141, Note_on_c, 0, 65, 0
2, 30144, Note_on_c, 0, 63, 72
2, 30288, Note_on_c, 0, 63, 0
2, 30288, Note_on_c, 0, 62, 66
2, 30333, Note_on_c, 0, 62, 0
2, 30336, Note_on_c, 0, 60, 80
2, 30466, Note_on_c, 0, 60, 0
2, 30468, Note_on_c, 0, 64, 64
2, 30480, Note_on_c, 0, 64, 0
2, 30480, Note_on_c, 0, 65, 64
2, 30514, Note_on_c, 0, 65, 0
2, 30516, Note_on_c, 0, 68, 64
2, 30528, Note_on_c, 0, 68, 0
2, 30528, Note_on_c, 0, 58, 80
2, 30658, Note_on_c, 0, 58, 0
2, 30660, Note_on_c, 0, 62, 64
2, 30672, Note_on_c, 0, 62, 0
2, 30672, Note_on_c, 0, 63, 64
2, 30706, Note_on_c, 0, 63, 0
2, 30708, Note_on_c, 0, 67, 64
2, 30720, Note_on_c, 0, 67, 0
2, 30720, Note_on_c, 0, 67, 64
2, 30768, Note_on_c, 0, 67, 0
2, 30768, Note_on_c, 0, 60, 67
2, 30802, Note_on_c, 0, 60, 0
2, 30804, Note_on_c, 0, 68, 69
2, 30816, Note_on_c, 0, 68, 0
2, 30816, Note_on_c, 0, 68, 70
2, 30888, Note_on_c, 0, 68, 0
2, 30888, Note_on_c, 0, 65, 68
2, 30900, Note_on_c, 0, 65, 0
2, 30900, Note_on_c, 0, 62, 67
2, 30912, Note_on_c, 0, 62, 0
2, 30912, Note_on_c, 0, 62, 67
2, 31008, Note_on_c, 0, 62, 0
2, 31008, Note_on_c, 0, 63, 65
2, 31053, Note_on_c, 0, 63, 0
2, 31104, Note_on_c, 0, 72, 80
2, 31234, Note_on_c, 0, 72, 0
2, 31236, Note_on_c, 0, 76, 64
2, 31248, Note_on_c, 0, 76, 0
2, 31248, Note_on_c, 0, 77, 64
2, 31282, Note_on_c, 0, 77, 0
2, 31284, Note_on_c, 0, 80, 64
2, 31296, Note_on_c, 0, 80, 0
2, 31296, Note_on_c, 0, 70, 80
2, 31426, Note_on_c, 0, 70, 0
2, 31428, Note_on_c, 0, 74, 64
2, 31440, Note_on_c, 0, 74, 0
2, 31440, Note_on_c, 0, 75, 64
2, 31474, Note_on_c, 0, 75, 0
2, 31476, Note_on_c, 0, 79, 64
2, 31488, Note_on_c, 0, 79, 0
2, 31512, Note_on_c, 0, 75, 64
2, 31535, Note_on_c, 0, 75, 0
2, 31536, Note_on_c, 0, 74, 65
2, 31559, Note_on_c, 0, 74, 0
2, 31560, Note_on_c, 0, 79, 65
2, 31583, Note_on_c, 0, 79, 0
2, 31584, Note_on_c, 0, 77, 66
2, 31607, Note_on_c, 0, 77, 0
2, 31608, Note_on_c, 0, 75, 66
2, 31631, Note_on_c, 0, 75, 0
2, 31632, Note_on_c, 0, 74, 67
2, 31655, Note_on_c, 0, 74, 0
2, 31656, Note_on_c, 0, 79, 68
2, 31679, Note_on_c, 0, 79, 0
2, 31680, Note_on_c, 0, 77, 68
2, 31703, Note_on_c, 0, 77, 0
2, 31704, Note_on_c, 0, 72, 69
2, 31716, Note_on_c, 0, 72, 0
2, 31716, Note_on_c, 0, 75, 69
2, 31728, Note_on_c, 0, 75, 0
2, 31728, Note_on_c, 0, 70, 69
2, 31740, Note_on_c, 0, 70, 0
2, 31740, Note_on_c, 0, 75, 70
2, 31752, Note_on_c, 0, 75, 0
2, 31752, Note_on_c, 0, 68, 70
2, 31764, Note_on_c, 0, 68, 0
2, 31764, Note_on_c, 0, 75, 70
2, 31776, Note_on_c, 0, 75, 0
2, 31776, Note_on_c, 0, 67, 70
2, 31799, Note_on_c, 0, 67, 0
2, 31800, Note_on_c, 0, 72, 71
2, 31812, Note_on_c, 0, 72, 0
2, 31812, Note_on_c, 0, 75, 71
2, 31824, Note_on_c, 0, 75, 0
2, 31824, Note_on_c, 0, 70, 72
2, 31836, Note_on_c, 0, 70, 0
2, 31836, Note_on_c, 0, 75, 72
2, 31848, Note_on_c, 0, 75, 0
2, 31848, Note_on_c, 0, 68, 72
2, 31860, Note_on_c, 0, 68, 0
2, 31860, Note_on_c, 0, 75, 72
2, 31872, Note_on_c, 0, 75, 0
2, 31872, Note_on_c, 0, 67, 73
2, 31884, Note_on_c, 0, 67, 0
2, 31884, Note_on_c, 0, 75, 73
2, 31896, Note_on_c, 0, 75, 0
2, 31896, Note_on_c, 0, 68, 73
2, 31908, Note_on_c, 0, 68, 0
2, 31908, Note_on_c, 0, 75, 74
2, 31920, Note_on_c, 0, 75, 0
2, 31920, Note_on_c, 0, 67, 74
2, 31932, Note_on_c, 0, 67, 0
2, 31932, Note_on_c, 0, 75, 74
2, 31944, Note_on_c, 0, 75, 0
2, 31944, Note_on_c, 0, 65, 74
2, 31956, Note_on_c, 0, 65, 0
2, 31956, Note_on_c, 0, 75, 75
2, 31968, Note_on_c, 0, 75, 0
2, 31968, Note_on_c, 0, 63, 75
2, 31980, Note_on_c, 0, 63, 0
2, 31980, Note_on_c, 0, 75, 75
2, 31992, Note_on_c, 0, 75, 0
2, 31992, Note_on_c, 0, 65, 76
2, 32004, Note_on_c, 0, 65, 0
2, 32004, Note_on_c, 0, 75, 76
2, 32016, Note_on_c, 0, 75, 0
2, 32016, Note_on_c, 0, 63, 76
2, 32028, Note_on_c, 0, 63, 0
2, 32028, Note_on_c, 0, 75, 76
2, 32040, Note_on_c, 0, 75, 0
2, 32040, Note_on_c, 0, 61, 77
2, 32052, Note_on_c, 0, 61, 0
2, 32052, Note_on_c, 0, 75, 77
2, 32064, Note_on_c, 0, 75, 0
2, 32064, Note_on_c, 0, 60, 77
2, 32087, Note_on_c, 0, 60, 0
2, 32088, Note_on_c, 0, 62, 78
2, 32100, Note_on_c, 0, 62, 0
2, 32100, Note_on_c, 0, 64, 78
2, 32112, Note_on_c, 0, 64, 0
2, 32112, Note_on_c, 0, 65, 78
2, 32124, Note_on_c, 0, 65, 0
2, 32124, Note_on_c, 0, 67, 79
2, 32136, Note_on_c, 0, 67, 0
2, 32136, Note_on_c, 0, 68, 79
2, 32148, Note_on_c, 0, 68, 0
2, 32148, Note_on_c, 0, 70, 79
2, 32160, Note_on_c, 0, 70, 0
2, 32160, Note_on_c, 0, 72, 80
2, 32194, Note_on_c, 0, 72, 0
2, 32196, Note_on_c, 0, 67, 80
2, 32208, Note_on_c, 0, 67, 0
2, 32208, Note_on_c, 0, 68, 80
2, 32242, Note_on_c, 0, 68, 0
2, 32244, Note_on_c, 0, 64, 80
2, 32256, Note_on_c, 0, 64, 0
2, 32256, Note_on_c, 0, 65, 80
2, 32290, Note_on_c, 0, 65, 0
2, 32292, Note_on_c, 0, 67, 80
2, 32298, Note_on_c, 0, 67, 0
2, 32298, Note_on_c, 0, 68, 80
2, 32304, Note_on_c, 0, 68, 0
2, 32304, Note_on_c, 0, 70, 80
2, 32310, Note_on_c, 0, 70, 0
2, 32310, Note_on_c, 0, 72, 80
2, 32316, Note_on_c, 0, 72, 0
2, 32316, Note_on_c, 0, 74, 80
2, 32322, Note_on_c, 0, 74, 0
2, 32322, Note_on_c, 0, 76, 80
2, 32328, Note_on_c, 0, 76, 0
2, 32328, Note_on_c, 0, 77, 80
2, 32334, Note_on_c, 0, 77, 0
2, 32334, Note_on_c, 0, 79, 80
2, 32340, Note_on_c, 0, 79, 0
2, 32340, Note_on_c, 0, 80, 80
2, 32346, Note_on_c, 0, 80, 0
2, 32346, Note_on_c, 0, 82, 80
2, 32352, Note_on_c, 0, 82, 0
2, 32352, Note_on_c, 0, 84, 80
2, 32386, Note_on_c, 0, 84, 0
2, 32388, Note_on_c, 0, 79, 80
2, 32400, Note_on_c, 0, 79, 0
2, 32400, Note_on_c, 0, 82, 80
2, 32412, Note_on_c, 0, 82, 0
2, 32412, Note_on_c, 0, 80, 80
2, 32424, Note_on_c, 0, 80, 0
2, 32424, Note_on_c, 0, 79, 80
2, 32436, Note_on_c, 0, 79, 0
2, 32436, Note_on_c, 0, 77, 78
2, 32448, Note_on_c, 0, 77, 0
2, 32448, Note_on_c, 0, 75, 77
2, 32544, Note_on_c, 0, 75, 0
2, 32544, Note_on_c, 0, 74, 68
2, 32589, Note_on_c, 0, 74, 0
2, 32640, Note_on_c, 0, 63, 75
2, 32640, Note_on_c, 0, 55, 75
2, 32663, Note_on_c, 0, 63, 0
2, 32663, Note_on_c, 0, 55, 0
2, 32664, Note_on_c, 0, 58, 75
2, 32672, Note_on_c, 0, 58, 0
2, 32672, Note_on_c, 0, 60, 75
2, 32680, Note_on_c, 0, 60, 0
2, 32680, Note_on_c, 0, 58, 75
2, 32688, Note_on_c, 0, 58, 0
2, 32688, Note_on_c, 0, 63, 75
2, 32711, Note_on_c, 0, 63, 0
2, 32712, Note_on_c, 0, 55, 75
2, 32724, Note_on_c, 0, 55, 0
2, 32724, Note_on_c, 0, 63, 75
2, 32736, Note_on_c, 0, 63, 0
2, 32736, Note_on_c, 0, 56, 75
2, 32748, Note_on_c, 0, 56, 0
2, 32748, Note_on_c, 0, 63, 75
2, 32760, Note_on_c, 0, 63, 0
2, 32760, Note_on_c, 0, 55, 75
2, 32772, Note_on_c, 0, 55, 0
2, 32772, Note_on_c, 0, 63, 75
2, 32784, Note_on_c, 0, 63, 0
2, 32784, Note_on_c, 0, 56, 75
2, 32796, Note_on_c, 0, 56, 0
2, 32796, Note_on_c, 0, 63, 75
2, 32808, Note_on_c, 0, 63, 0
2, 32808, Note_on_c, 0, 58, 75
2, 32820, Note_on_c, 0, 58, 0
2, 32820, Note_on_c, 0, 63, 75
2, 32832, Note_on_c, 0, 63, 0
2, 32832, Note_on_c, 0, 60, 75
2, 32855, Note_on_c, 0, 60, 0
2, 32856, Note_on_c, 0, 68, 75
2, 32856, Note_on_c, 0, 60, 75
2, 32879, Note_on_c, 0, 68, 0
2, 32879, Note_on_c, 0, 60, 0
2, 32880, Note_on_c, 0, 68, 75
2, 32880, Note_on_c, 0, 60, 75
2, 32903, Note_on_c, 0, 68, 0
2, 32903, Note_on_c, 0, 60, 0
2, 32904, Note_on_c, 0, 68, 75
2, 32904, Note_on_c, 0, 60, 75
2, 32927, Note_on_c, 0, 68, 0
2, 32927, Note_on_c, 0, 60, 0
2, 32928, Note_on_c, 0, 68, 75
2, 32928, Note_on_c, 0, 60, 75
2, 32952, Note_on_c, 0, 68, 0
2, 32952, Note_on_c, 0, 60, 0
2, 32952, Note_on_c, 0, 67, 75
2, 32952, Note_on_c, 0, 58, 75
2, 32975, Note_on_c, 0, 67, 0
2, 32975, Note_on_c, 0, 58, 0
2, 32976, Note_on_c, 0, 67, 75
2, 32976, Note_on_c, 0, 58, 75
2, 33000, Note_on_c, 0, 67, 0
2, 33000, Note_on_c, 0, 58, 0
2, 33000, Note_on_c, 0, 65, 75
2, 33000, Note_on_c, 0, 56, 75
2, 33023, Note_on_c, 0, 65, 0
2, 33023, Note_on_c, 0, 56, 0
2, 33024, Note_on_c, 0, 63, 75
2, 33024, Note_on_c, 0, 55, 75
2, 33047, Note_on_c, 0, 63, 0
2, 33047, Note_on_c, 0, 55, 0
2, 33048, Note_on_c, 0, 58, 75
2, 33056, Note_on_c, 0, 58, 0
2, 33056, Note_on_c, 0, 60, 75
2, 33064, Note_on_c, 0, 60, 0
2, 33064, Note_on_c, 0, 58, 75
2, 33072, Note_on_c, 0, 58, 0
2, 33072, Note_on_c, 0, 63, 75
2, 33095, Note_on_c, 0, 63, 0
2, 33096, Note_on_c, 0, 55, 75
2, 33108, Note_on_c, 0, 55, 0
2, 33108, Note_on_c, 0, 63, 75
2, 33120, Note_on_c, 0, 63, 0
2, 33120, Note_on_c, 0, 56, 75
2, 33132, Note_on_c, 0, 56, 0
2, 33132, Note_on_c, 0, 63, 75
2, 33144, Note_on_c, 0, 63, 0
2, 33144, Note_on_c, 0, 55, 75
2, 33156, Note_on_c, 0, 55, 0
2, 33156, Note_on_c, 0, 63, 75
2, 33168, Note_on_c, 0, 63, 0
2, 33168, Note_on_c, 0, 56, 75
2, 33180, Note_on_c, 0, 56, 0
2, 33180, Note_on_c, 0, 63, 75
2, 33192, Note_on_c, 0, 63, 0
2, 33192, Note_on_c, 0, 58, 75
2, 33204, Note_on_c, 0, 58, 0
2, 33204, Note_on_c, 0, 63, 75
2, 33216, Note_on_c, 0, 63, 0
2, 33216, Note_on_c, 0, 60, 75
2, 33239, Note_on_c, 0, 60, 0
2, 33240, Note_on_c, 0, 72, 75
2, 33240, Note_on_c, 0, 68, 75
2, 33263, Note_on_c, 0, 72, 0
2, 33263, Note_on_c, 0, 68, 0
2, 33264, Note_on_c, 0, 72, 75
2, 33264, Note_on_c, 0, 68, 75
2, 33287, Note_on_c, 0, 72, 0
2, 33287, Note_on_c, 0, 68, 0
2, 33288, Note_on_c, 0, 72, 75
2, 33288, Note_on_c, 0, 68, 75
2, 33311, Note_on_c, 0, 72, 0
2, 33311, Note_on_c, 0, 68, 0
2, 33312, Note_on_c, 0, 72, 75
2, 33312, Note_on_c, 0, 68, 75
2, 33336, Note_on_c, 0, 72, 0
2, 33336, Note_on_c, 0, 68, 0
2, 33336, Note_on_c, 0, 70, 75
2, 33336, Note_on_c, 0, 67, 75
2, 33359, Note_on_c, 0, 70, 0
2, 33359, Note_on_c, 0, 67, 0
2, 33360, Note_on_c, 0, 70, 75
2, 33360, Note_on_c, 0, 67, 75
2, 33384, Note_on_c, 0, 70, 0
2, 33384, Note_on_c, 0, 67, 0
2, 33384, Note_on_c, 0, 68, 75
2, 33384, Note_on_c, 0, 65, 75
2, 33407, Note_on_c, 0, 68, 0
2, 33407, Note_on_c, 0, 65, 0
2, 33408, Note_on_c, 0, 67, 75
2, 33408, Note_on_c, 0, 63, 75
2, 33431, Note_on_c, 0, 67, 0
2, 33431, Note_on_c, 0, 63, 0
2, 33432, Note_on_c, 0, 70, 75
2, 33440, Note_on_c, 0, 70, 0
2, 33440, Note_on_c, 0, 72, 75
2, 33448, Note_on_c, 0, 72, 0
2, 33448, Note_on_c, 0, 70, 75
2, 33456, Note_on_c, 0, 70, 0
2, 33456, Note_on_c, 0, 75, 75
2, 33479, Note_on_c, 0, 75, 0
2, 33480, Note_on_c, 0, 70, 75
2, 33492, Note_on_c, 0, 70, 0
2, 33492, Note_on_c, 0, 75, 75
2, 33504, Note_on_c, 0, 75, 0
2, 33504, Note_on_c, 0, 72, 75
2, 33516, Note_on_c, 0, 72, 0
2, 33516, Note_on_c, 0, 75, 75
2, 33528, Note_on_c, 0, 75, 0
2, 33528, Note_on_c, 0, 70, 75
2, 33540, Note_on_c, 0, 70, 0
2, 33540, Note_on_c, 0, 75, 75
2, 33552, Note_on_c, 0, 75, 0
2, 33552, Note_on_c, 0, 72, 75
2, 33564, Note_on_c, 0, 72, 0
2, 33564, Note_on_c, 0, 75, 75
2, 33576, Note_on_c, 0, 75, 0
2, 33576, Note_on_c, 0, 73, 75
2, 33588, Note_on_c, 0, 73, 0
2, 33588, Note_on_c, 0, 75, 75
2, 33600, Note_on_c, 0, 75, 0
2, 33600, Note_on_c, 0, 72, 75
2, 33623, Note_on_c, 0, 72, 0
2, 33624, Note_on_c, 0, 80, 75
2, 33634, Note_on_c, 0, 80, 0
2, 33648, Note_on_c, 0, 80, 75
2, 33658, Note_on_c, 0, 80, 0
2, 33672, Note_on_c, 0, 80, 75
2, 33682, Note_on_c, 0, 80, 0
2, 33696, Note_on_c, 0, 80, 75
2, 33708, Note_on_c, 0, 80, 0
2, 33708, Note_on_c, 0, 82, 75
2, 33720, Note_on_c, 0, 82, 0
2, 33720, Note_on_c, 0, 80, 75
2, 33732, Note_on_c, 0, 80, 0
2, 33732, Note_on_c, 0, 79, 75
2, 33744, Note_on_c, 0, 79, 0
2, 33744, Note_on_c, 0, 77, 75
2, 33756, Note_on_c, 0, 77, 0
2, 33756, Note_on_c, 0, 75, 75
2, 33768, Note_on_c, 0, 75, 0
2, 33768, Note_on_c, 0, 74, 75
2, 33780, Note_on_c, 0, 74, 0
2, 33780, Note_on_c, 0, 72, 75
2, 33792, Note_on_c, 0, 72, 0
2, 33792, Note_on_c, 0, 70, 75
2, 33837, Note_on_c, 0, 70, 0
2, 33912, Note_on_c, 0, 79, 75
2, 33924, Note_on_c, 0, 79, 0
2, 33924, Note_on_c, 0, 77, 75
2, 33936, Note_on_c, 0, 77, 0
2, 33936, Note_on_c, 0, 75, 75
2, 33948, Note_on_c, 0, 75, 0
2, 33948, Note_on_c, 0, 74, 75
2, 33960, Note_on_c, 0, 74, 0
2, 33960, Note_on_c, 0, 72, 75
2, 33972, Note_on_c, 0, 72, 0
2, 33972, Note_on_c, 0, 70, 75
2, 33984, Note_on_c, 0, 70, 0
2, 33984, Note_on_c, 0, 68, 75
2, 34029, Note_on_c, 0, 68, 0
2, 34104, Note_on_c, 0, 77, 75
2, 34116, Note_on_c, 0, 77, 0
2, 34116, Note_on_c, 0, 75, 75
2, 34128, Note_on_c, 0, 75, 0
2, 34128, Note_on_c, 0, 74, 75
2, 34140, Note_on_c, 0, 74, 0
2, 34140, Note_on_c, 0, 72, 75
2, 34152, Note_on_c, 0, 72, 0
2, 34152, Note_on_c, 0, 70, 75
2, 34164, Note_on_c, 0, 70, 0
2, 34164, Note_on_c, 0, 68, 75
2, 34176, Note_on_c, 0, 68, 0
2, 34176, Note_on_c, 0, 67, 75
2, 34221, Note_on_c, 0, 67, 0
2, 34296, Note_on_c, 0, 75, 75
2, 34308, Note_on_c, 0, 75, 0
2, 34308, Note_on_c, 0, 74, 75
2, 34320, Note_on_c, 0, 74, 0
2, 34320, Note_on_c, 0, 72, 75
2, 34332, Note_on_c, 0, 72, 0
2, 34332, Note_on_c, 0, 70, 75
2, 34344, Note_on_c, 0, 70, 0
2, 34344, Note_on_c, 0, 68, 75
2, 34356, Note_on_c, 0, 68, 0
2, 34356, Note_on_c, 0, 67, 75
2, 34368, Note_on_c, 0, 67, 0
2, 34368, Note_on_c, 0, 65, 75
2, 34413, Note_on_c, 0, 65, 0
2, 34440, Note_on_c, 0, 75, 75
2, 34464, Note_on_c, 0, 75, 0
2, 34464, Note_on_c, 0, 67, 75
2, 34487, Note_on_c, 0, 67, 0
2, 34536, Note_on_c, 0, 75, 76
2, 34560, Note_on_c, 0, 75, 0
2, 34560, Note_on_c, 0, 68, 77
2, 34583, Note_on_c, 0, 68, 0
2, 34632, Note_on_c, 0, 75, 78
2, 34656, Note_on_c, 0, 75, 0
2, 34656, Note_on_c, 0, 67, 78
2, 34679, Note_on_c, 0, 67, 0
2, 34728, Note_on_c, 0, 75, 79
2, 34751, Note_on_c, 0, 75, 0
2, 34752, Note_on_c, 0, 65, 79
2, 34764, Note_on_c, 0, 65, 0
2, 34764, Note_on_c, 0, 75, 80
2, 34776, Note_on_c, 0, 75, 0
2, 34776, Note_on_c, 0, 66, 80
2, 34788, Note_on_c, 0, 66, 0
2, 34788, Note_on_c, 0, 75, 80
2, 34800, Note_on_c, 0, 75, 0
2, 34800, Note_on_c, 0, 65, 80
2, 34812, Note_on_c, 0, 65, 0
2, 34812, Note_on_c, 0, 75, 80
2, 34824, Note_on_c, 0, 75, 0
2, 34824, Note_on_c, 0, 66, 80
2, 34836, Note_on_c, 0, 66, 0
2, 34836, Note_on_c, 0, 75, 80
2, 34848, Note_on_c, 0, 75, 0
2, 34848, Note_on_c, 0, 65, 80
2, 34871, Note_on_c, 0, 65, 0
2, 34872, Note_on_c, 0, 75, 80
2, 34895, Note_on_c, 0, 75, 0
2, 34896, Note_on_c, 0, 75, 80
2, 34919, Note_on_c, 0, 75, 0
2, 34920, Note_on_c, 0, 75, 80
2, 34943, Note_on_c, 0, 75, 0
2, 34944, Note_on_c, 0, 75, 80
2, 34956, Note_on_c, 0, 75, 0
2, 34956, Note_on_c, 0, 74, 79
2, 34968, Note_on_c, 0, 74, 0
2, 34968, Note_on_c, 0, 72, 78
2, 34980, Note_on_c, 0, 72, 0
2, 34980, Note_on_c, 0, 70, 78
2, 34992, Note_on_c, 0, 70, 0
2, 34992, Note_on_c, 0, 70, 77
2, 35002, Note_on_c, 0, 70, 0
2, 35016, Note_on_c, 0, 75, 76
2, 35039, Note_on_c, 0, 75, 0
2, 35040, Note_on_c, 0, 75, 74
2, 35052, Note_on_c, 0, 75, 0
2, 35052, Note_on_c, 0, 74, 74
2, 35064, Note_on_c, 0, 74, 0
2, 35064, Note_on_c, 0, 72, 73
2, 35076, Note_on_c, 0, 72, 0
2, 35076, Note_on_c, 0, 70, 72
2, 35088, Note_on_c, 0, 70, 0
2, 35088, Note_on_c, 0, 70, 72
2, 35098, Note_on_c, 0, 70, 0
2, 35112, Note_on_c, 0, 75, 70
2, 35135, Note_on_c, 0, 75, 0
2, 35136, Note_on_c, 0, 75, 69
2, 35148, Note_on_c, 0, 75, 0
2, 35148, Note_on_c, 0, 74, 68
2, 35160, Note_on_c, 0, 74, 0
2, 35160, Note_on_c, 0, 72, 68
2, 35172, Note_on_c, 0, 72, 0
2, 35172, Note_on_c, 0, 70, 67
2, 35184, Note_on_c, 0, 70, 0
2, 35184, Note_on_c, 0, 70, 66
2, 35204, Note_on_c, 0, 70, 0
2, 35328, Note_on_c, 0, 63, 75
2, 35328, Note_on_c, 0, 55, 75
2, 35395, Note_on_c, 0, 63, 0
2, 35395, Note_on_c, 0, 55, 0
2, 35400, Note_on_c, 0, 68, 75
2, 35400, Note_on_c, 0, 60, 75
2, 35423, Note_on_c, 0, 68, 0
2, 35423, Note_on_c, 0, 60, 0
2, 35424, Note_on_c, 0, 68, 75
2, 35424, Note_on_c, 0, 60, 75
2, 35448, Note_on_c, 0, 68, 0
2, 35448, Note_on_c, 0, 60, 0
2, 35448, Note_on_c, 0, 67, 75
2, 35448, Note_on_c, 0, 58, 75
2, 35471, Note_on_c, 0, 67, 0
2, 35471, Note_on_c, 0, 58, 0
2, 35472, Note_on_c, 0, 67, 75
2, 35472, Note_on_c, 0, 58, 75
2, 35496, Note_on_c, 0, 67, 0
2, 35496, Note_on_c, 0, 58, 0
2, 35496, Note_on_c, 0, 65, 75
2, 35496, Note_on_c, 0, 56, 75
2, 35519, Note_on_c, 0, 65, 0
2, 35519, Note_on_c, 0, 56, 0
2, 35520, Note_on_c, 0, 63, 75
2, 35520, Note_on_c, 0, 55, 75
2, 35587, Note_on_c, 0, 63, 0
2, 35587, Note_on_c, 0, 55, 0
2, 35592, Note_on_c, 0, 72, 75
2, 35592, Note_on_c, 0, 68, 75
2, 35615, Note_on_c, 0, 72, 0
2, 35615, Note_on_c, 0, 68, 0
2, 35616, Note_on_c, 0, 72, 75
2, 35616, Note_on_c, 0, 68, 75
2, 35640, Note_on_c, 0, 72, 0
2, 35640, Note_on_c, 0, 68, 0
2, 35640, Note_on_c, 0, 70, 75
2, 35640, Note_on_c, 0, 67, 75
2, 35663, Note_on_c, 0, 70, 0
2, 35663, Note_on_c, 0, 67, 0
2, 35664, Note_on_c, 0, 70, 75
2, 35664, Note_on_c, 0, 67, 75
2, 35688, Note_on_c, 0, 70, 0
2, 35688, Note_on_c, 0, 67, 0
2, 35688, Note_on_c, 0, 68, 75
2, 35688, Note_on_c, 0, 65, 75
2, 35711, Note_on_c, 0, 68, 0
2, 35711, Note_on_c, 0, 65, 0
2, 35712, Note_on_c, 0, 67, 75
2, 35712, Note_on_c, 0, 63, 75
2, 35779, Note_on_c, 0, 67, 0
2, 35779, Note_on_c, 0, 63, 0
2, 35784, Note_on_c, 0, 75, 75
2, 35784, Note_on_c, 0, 72, 75
2, 35807, Note_on_c, 0, 75, 0
2, 35807, Note_on_c, 0, 72, 0
2, 35808, Note_on_c, 0, 75, 75
2, 35808, Note_on_c, 0, 72, 75
2, 35832, Note_on_c, 0, 75, 0
2, 35832, Note_on_c, 0, 72, 0
2, 35832, Note_on_c, 0, 74, 75
2, 35832, Note_on_c, 0, 70, 75
2, 35855, Note_on_c, 0, 74, 0
2, 35855, Note_on_c, 0, 70, 0
2, 35856, Note_on_c, 0, 74, 75
2, 35856, Note_on_c, 0, 70, 75
2, 35880, Note_on_c, 0, 74, 0
2, 35880, Note_on_c, 0, 70, 0
2, 35880, Note_on_c, 0, 72, 75
2, 35880, Note_on_c, 0, 68, 75
2, 35903, Note_on_c, 0, 72, 0
2, 35903, Note_on_c, 0, 68, 0
2, 35904, Note_on_c, 0, 70, 75
2, 35904, Note_on_c, 0, 67, 75
2, 35993, Note_on_c, 0, 70, 0
2, 35993, Note_on_c, 0, 67, 0
2, 36000, Note_on_c, 0, 55, 77
2, 36004, Note_on_c, 0, 58, 77
2, 36008, Note_on_c, 0, 61, 77
2, 36012, Note_on_c, 0, 64, 77
2, 36016, Note_on_c, 0, 67, 77
2, 36020, Note_on_c, 0, 70, 77
2, 36024, Note_on_c, 0, 73, 77
2, 36028, Note_on_c, 0, 76, 77
2, 36089, Note_on_c, 0, 76, 0
2, 36089, Note_on_c, 0, 73, 0
2, 36089, Note_on_c, 0, 70, 0
2, 36089, Note_on_c, 0, 67, 0
2, 36089, Note_on_c, 0, 64, 0
2, 36089, Note_on_c, 0, 61, 0
2, 36089, Note_on_c, 0, 58, 0
2, 36089, Note_on_c, 0, 55, 0
2, 36096, Note_on_c, 0, 65, 80
2, 36130, Note_on_c, 0, 65, 0
2, 36132, Note_on_c, 0, 67, 82
2, 36138, Note_on_c, 0, 67, 0
2, 36138, Note_on_c, 0, 68, 82
2, 36144, Note_on_c, 0, 68, 0
2, 36144, Note_on_c, 0, 70, 83
2, 36150, Note_on_c, 0, 70, 0
2, 36150, Note_on_c, 0, 72, 83
2, 36156, Note_on_c, 0, 72, 0
2, 36156, Note_on_c, 0, 74, 83
2, 36162, Note_on_c, 0, 74, 0
2, 36162, Note_on_c, 0, 76, 84
2, 36168, Note_on_c, 0, 76, 0
2, 36168, Note_on_c, 0, 77, 84
2, 36174, Note_on_c, 0, 77, 0
2, 36174, Note_on_c, 0, 79, 84
2, 36180, Note_on_c, 0, 79, 0
2, 36180, Note_on_c, 0, 80, 85
2, 36186, Note_on_c, 0, 80, 0
2, 36186, Note_on_c, 0, 82, 85
2, 36192, Note_on_c, 0, 82, 0
2, 36192, Note_on_c, 0, 84, 86
2, 36237, Note_on_c, 0, 84, 0
2, 36264, Note_on_c, 0, 72, 80
2, 36272, Note_on_c, 0, 72, 0
2, 36272, Note_on_c, 0, 68, 79
2, 36280, Note_on_c, 0, 68, 0
2, 36280, Note_on_c, 0, 65, 79
2, 36288, Note_on_c, 0, 65, 0
2, 36288, Note_on_c, 0, 63, 78
2, 36421, Note_on_c, 0, 63, 0
2, 36432, Note_on_c, 0, 67, 70
2, 36438, Note_on_c, 0, 67, 0
2, 36438, Note_on_c, 0, 65, 70
2, 36455, Note_on_c, 0, 65, 0
2, 36456, Note_on_c, 0, 63, 68
2, 36479, Note_on_c, 0, 63, 0
2, 36480, Note_on_c, 0, 63, 67
2, 36527, Note_on_c, 0, 63, 0
2, 36552, Note_on_c, 0, 55, 80
2, 36564, Note_on_c, 0, 55, 0
2, 36564, Note_on_c, 0, 63, 80
2, 36576, Note_on_c, 0, 63, 0
2, 36576, Note_on_c, 0, 56, 80
2, 36588, Note_on_c, 0, 56, 0
2, 36588, Note_on_c, 0, 63, 80
2, 36600, Note_on_c, 0, 63, 0
2, 36600, Note_on_c, 0, 55, 80
2, 36612, Note_on_c, 0, 55, 0
2, 36612, Note_on_c, 0, 63, 81
2, 36624, Note_on_c, 0, 63, 0
2, 36624, Note_on_c, 0, 56, 81
2, 36636, Note_on_c, 0, 56, 0
2, 36636, Note_on_c, 0, 63, 82
2, 36648, Note_on_c, 0, 63, 0
2, 36648, Note_on_c, 0, 57, 82
2, 36660, Note_on_c, 0, 57, 0
2, 36660, Note_on_c, 0, 63, 82
2, 36672, Note_on_c, 0, 63, 0
2, 36672, Note_on_c, 0, 58, 83
2, 36684, Note_on_c, 0, 58, 0
2, 36684, Note_on_c, 0, 63, 83
2, 36696, Note_on_c, 0, 63, 0
2, 36696, Note_on_c, 0, 57, 84
2, 36708, Note_on_c, 0, 57, 0
2, 36708, Note_on_c, 0, 63, 84
2, 36720, Note_on_c, 0, 63, 0
2, 36720, Note_on_c, 0, 58, 84
2, 36732, Note_on_c, 0, 58, 0
2, 36732, Note_on_c, 0, 63, 85
2, 36744, Note_on_c, 0, 63, 0
2, 36744, Note_on_c, 0, 55, 85
2, 36756, Note_on_c, 0, 55, 0
2, 36756, Note_on_c, 0, 63, 86
2, 36768, Note_on_c, 0, 63, 0
2, 36768, Note_on_c, 0, 56, 84
2, 36780, Note_on_c, 0, 56, 0
2, 36780, Note_on_c, 0, 63, 83
2, 36792, Note_on_c, 0, 63, 0
2, 36792, Note_on_c, 0, 57, 82
2, 36804, Note_on_c, 0, 57, 0
2, 36804, Note_on_c, 0, 63, 81
2, 36816, Note_on_c, 0, 63, 0
2, 36816, Note_on_c, 0, 58, 80
2, 36828, Note_on_c, 0, 58, 0
2, 36828, Note_on_c, 0, 63, 79
2, 36840, Note_on_c, 0, 63, 0
2, 36840, Note_on_c, 0, 59, 78
2, 36852, Note_on_c, 0, 59, 0
2, 36852, Note_on_c, 0, 63, 77
2, 36864, Note_on_c, 0, 63, 0
2, 36864, Note_on_c, 0, 60, 76
2, 36876, Note_on_c, 0, 60, 0
2, 36876, Note_on_c, 0, 63, 75
2, 36888, Note_on_c, 0, 63, 0
2, 36888, Note_on_c, 0, 59, 74
2, 36900, Note_on_c, 0, 59, 0
2, 36900, Note_on_c, 0, 63, 73
2, 36912, Note_on_c, 0, 63, 0
2, 36912, Note_on_c, 0, 60, 72
2, 36935, Note_on_c, 0, 60, 0
2, 36936, Note_on_c, 0, 72, 70
2, 36936, Note_on_c, 0, 68, 70
2, 36959, Note_on_c, 0, 72, 0
2, 36959, Note_on_c, 0, 68, 0
2, 36960, Note_on_c, 0, 72, 70
2, 36960, Note_on_c, 0, 68, 70
2, 36984, Note_on_c, 0, 72, 0
2, 36984, Note_on_c, 0, 68, 0
2, 36984, Note_on_c, 0, 70, 70
2, 36984, Note_on_c, 0, 67, 70
2, 37007, Note_on_c, 0, 70, 0
2, 37007, Note_on_c, 0, 67, 0
2, 37032, Note_on_c, 0, 62, 70
2, 37032, Note_on_c, 0, 56, 70
2, 37055, Note_on_c, 0, 62, 0
2, 37055, Note_on_c, 0, 56, 0
2, 37056, Note_on_c, 0, 62, 70
2, 37056, Note_on_c, 0, 56, 70
2, 37080, Note_on_c, 0, 62, 0
2, 37080, Note_on_c, 0, 56, 0
2, 37080, Note_on_c, 0, 63, 70
2, 37080, Note_on_c, 0, 55, 70
2, 37103, Note_on_c, 0, 63, 0
2, 37103, Note_on_c, 0, 55, 0
2, 37128, Note_on_c, 0, 72, 70
2, 37128, Note_on_c, 0, 68, 70
2, 37151, Note_on_c, 0, 72, 0
2, 37151, Note_on_c, 0, 68, 0
2, 37152, Note_on_c, 0, 72, 70
2, 37152, Note_on_c, 0, 68, 70
2, 37176, Note_on_c, 0, 72, 0
2, 37176, Note_on_c, 0, 68, 0
2, 37176, Note_on_c, 0, 70, 70
2, 37176, Note_on_c, 0, 67, 70
2, 37199, Note_on_c, 0, 70, 0
2, 37199, Note_on_c, 0, 67, 0
2, 37224, Note_on_c, 0, 62, 75
2, 37224, Note_on_c, 0, 56, 75
2, 37247, Note_on_c, 0, 62, 0
2, 37247, Note_on_c, 0, 56, 0
2, 37248, Note_on_c, 0, 63, 75
2, 37260, Note_on_c, 0, 63, 0
2, 37260, Note_on_c, 0, 70, 75
2, 37272, Note_on_c, 0, 70, 0
2, 37272, Note_on_c, 0, 67, 75
2, 37284, Note_on_c, 0, 67, 0
2, 37284, Note_on_c, 0, 63, 75
2, 37296, Note_on_c, 0, 63, 0
2, 37296, Note_on_c, 0, 58, 75
2, 37308, Note_on_c, 0, 58, 0
2, 37308, Note_on_c, 0, 68, 75
2, 37320, Note_on_c, 0, 68, 0
2, 37320, Note_on_c, 0, 65, 75
2, 37332, Note_on_c, 0, 65, 0
2, 37332, Note_on_c, 0, 62, 75
2, 37344, Note_on_c, 0, 62, 0
2, 37344, Note_on_c, 0, 63, 75
2, 37356, Note_on_c, 0, 63, 0
2, 37356, Note_on_c, 0, 70, 75
2, 37368, Note_on_c, 0, 70, 0
2, 37368, Note_on_c, 0, 67, 75
2, 37380, Note_on_c, 0, 67, 0
2, 37380, Note_on_c, 0, 63, 75
2, 37392, Note_on_c, 0, 63, 0
2, 37392, Note_on_c, 0, 58, 75
2, 37404, Note_on_c, 0, 58, 0
2, 37404, Note_on_c, 0, 68, 75
2, 37416, Note_on_c, 0, 68, 0
2, 37416, Note_on_c, 0, 65, 75
2, 37428, Note_on_c, 0, 65, 0
2, 37428, Note_on_c, 0, 62, 75
2, 37440, Note_on_c, 0, 62, 0
2, 37440, Note_on_c, 0, 63, 75
2, 37485, Note_on_c, 0, 63, 0
2, 37488, Note_on_c, 0, 79, 75
2, 37488, Note_on_c, 0, 75, 75
2, 37533, Note_on_c, 0, 79, 0
2, 37533, Note_on_c, 0, 75, 0
2, 37632, Note_on_c, 0, 67, 80
2, 37721, Note_on_c, 0, 67, 0
2, 37728, Note_on_c, 0, 59, 80
2, 37751, Note_on_c, 0, 59, 0
2, 37752, Note_on_c, 0, 60, 80
2, 37760, Note_on_c, 0, 60, 0
2, 37760, Note_on_c, 0, 59, 80
2, 37768, Note_on_c, 0, 59, 0
2, 37768, Note_on_c, 0, 57, 80
2, 37776, Note_on_c, 0, 57, 0
2, 37776, Note_on_c, 0, 59, 80
2, 37799, Note_on_c, 0, 59, 0
2, 37800, Note_on_c, 0, 60, 80
2, 37823, Note_on_c, 0, 60, 0
2, 37824, Note_on_c, 0, 62, 80
2, 37869, Note_on_c, 0, 62, 0
2, 37872, Note_on_c, 0, 55, 80
2, 37917, Note_on_c, 0, 55, 0
2, 37992, Note_on_c, 0, 84, 64
2, 38016, Note_on_c, 0, 84, 0
2, 38016, Note_on_c, 0, 72, 64
2, 38039, Note_on_c, 0, 72, 0
2, 38088, Note_on_c, 0, 84, 64
2, 38112, Note_on_c, 0, 84, 0
2, 38112, Note_on_c, 0, 74, 64
2, 38135, Note_on_c, 0, 74, 0
2, 38184, Note_on_c, 0, 84, 64
2, 38207, Note_on_c, 0, 84, 0
2, 38208, Note_on_c, 0, 76, 64
2, 38231, Note_on_c, 0, 76, 0
2, 38280, Note_on_c, 0, 84, 64
2, 38303, Note_on_c, 0, 84, 0
2, 38304, Note_on_c, 0, 77, 64
2, 38316, Note_on_c, 0, 77, 0
2, 38316, Note_on_c, 0, 80, 66
2, 38328, Note_on_c, 0, 80, 0
2, 38328, Note_on_c, 0, 84, 68
2, 38340, Note_on_c, 0, 84, 0
2, 38340, Note_on_c, 0, 82, 70
2, 38352, Note_on_c, 0, 82, 0
2, 38352, Note_on_c, 0, 80, 72
2, 38364, Note_on_c, 0, 80, 0
2, 38364, Note_on_c, 0, 79, 74
2, 38376, Note_on_c, 0, 79, 0
2, 38376, Note_on_c, 0, 77, 76
2, 38388, Note_on_c, 0, 77, 0
2, 38388, Note_on_c, 0, 75, 78
2, 38400, Note_on_c, 0, 75, 0
2, 38400, Note_on_c, 0, 74, 80
2, 38412, Note_on_c, 0, 74, 0
2, 38412, Note_on_c, 0, 75, 80
2, 38424, Note_on_c, 0, 75, 0
2, 38424, Note_on_c, 0, 77, 80
2, 38436, Note_on_c, 0, 77, 0
2, 38436, Note_on_c, 0, 75, 80
2, 38448, Note_on_c, 0, 75, 0
2, 38448, Note_on_c, 0, 74, 80
2, 38460, Note_on_c, 0, 74, 0
2, 38460, Note_on_c, 0, 72, 80
2, 38472, Note_on_c, 0, 72, 0
2, 38472, Note_on_c, 0, 70, 80
2, 38484, Note_on_c, 0, 70, 0
2, 38484, Note_on_c, 0, 69, 80
2, 38496, Note_on_c, 0, 69, 0
2, 38496, Note_on_c, 0, 70, 80
2, 38519, Note_on_c, 0, 70, 0
2, 38520, Note_on_c, 0, 89, 80
2, 38543, Note_on_c, 0, 89, 0
2, 38544, Note_on_c, 0, 87, 80
2, 38556, Note_on_c, 0, 87, 0
2, 38556, Note_on_c, 0, 86, 80
2, 38568, Note_on_c, 0, 86, 0
2, 38568, Note_on_c, 0, 84, 80
2, 38580, Note_on_c, 0, 84, 0
2, 38580, Note_on_c, 0, 82, 80
2, 38592, Note_on_c, 0, 82, 0
2, 38592, Note_on_c, 0, 80, 80
2, 38604, Note_on_c, 0, 80, 0
2, 38604, Note_on_c, 0, 82, 80
2, 38616, Note_on_c, 0, 82, 0
2, 38616, Note_on_c, 0, 84, 80
2, 38628, Note_on_c, 0, 84, 0
2, 38628, Note_on_c, 0, 82, 80
2, 38640, Note_on_c, 0, 82, 0
2, 38640, Note_on_c, 0, 80, 80
2, 38652, Note_on_c, 0, 80, 0
2, 38652, Note_on_c, 0, 79, 80
2, 38664, Note_on_c, 0, 79, 0
2, 38664, Note_on_c, 0, 77, 80
2, 38676, Note_on_c, 0, 77, 0
2, 38676, Note_on_c, 0, 75, 80
2, 38688, Note_on_c, 0, 75, 0
2, 38688, Note_on_c, 0, 74, 80
2, 38700, Note_on_c, 0, 74, 0
2, 38700, Note_on_c, 0, 75, 80
2, 38712, Note_on_c, 0, 75, 0
2, 38712, Note_on_c, 0, 77, 80
2, 38724, Note_on_c, 0, 77, 0
2, 38724, Note_on_c, 0, 75, 80
2, 38736, Note_on_c, 0, 75, 0
2, 38736, Note_on_c, 0, 74, 80
2, 38748, Note_on_c, 0, 74, 0
2, 38748, Note_on_c, 0, 72, 80
2, 38760, Note_on_c, 0, 72, 0
2, 38760, Note_on_c, 0, 70, 80
2, 38772, Note_on_c, 0, 70, 0
2, 38772, Note_on_c, 0, 68, 80
2, 38784, Note_on_c, 0, 68, 0
2, 38784, Note_on_c, 0, 67, 80
2, 38796, Note_on_c, 0, 67, 0
2, 38796, Note_on_c, 0, 68, 80
2, 38808, Note_on_c, 0, 68, 0
2, 38808, Note_on_c, 0, 70, 80
2, 38820, Note_on_c, 0, 70, 0
2, 38820, Note_on_c, 0, 68, 80
2, 38832, Note_on_c, 0, 68, 0
2, 38832, Note_on_c, 0, 67, 80
2, 38844, Note_on_c, 0, 67, 0
2, 38844, Note_on_c, 0, 65, 80
2, 38856, Note_on_c, 0, 65, 0
2, 38856, Note_on_c, 0, 63, 80
2, 38868, Note_on_c, 0, 63, 0
2, 38868, Note_on_c, 0, 62, 80
2, 38880, Note_on_c, 0, 62, 0
2, 38880, Note_on_c, 0, 63, 80
2, 38903, Note_on_c, 0, 63, 0
2, 38904, Note_on_c, 0, 82, 80
2, 38927, Note_on_c, 0, 82, 0
2, 38928, Note_on_c, 0, 80, 80
2, 38940, Note_on_c, 0, 80, 0
2, 38940, Note_on_c, 0, 79, 80
2, 38952, Note_on_c, 0, 79, 0
2, 38952, Note_on_c, 0, 77, 80
2, 38964, Note_on_c, 0, 77, 0
2, 38964, Note_on_c, 0, 75, 80
2, 38976, Note_on_c, 0, 75, 0
2, 38976, Note_on_c, 0, 73, 80
2, 38988, Note_on_c, 0, 73, 0
2, 38988, Note_on_c, 0, 75, 80
2, 39000, Note_on_c, 0, 75, 0
2, 39000, Note_on_c, 0, 77, 80
2, 39012, Note_on_c, 0, 77, 0
2, 39012, Note_on_c, 0, 75, 80
2, 39024, Note_on_c, 0, 75, 0
2, 39024, Note_on_c, 0, 73, 80
2, 39036, Note_on_c, 0, 73, 0
2, 39036, Note_on_c, 0, 72, 80
2, 39048, Note_on_c, 0, 72, 0
2, 39048, Note_on_c, 0, 70, 80
2, 39060, Note_on_c, 0, 70, 0
2, 39060, Note_on_c, 0, 68, 80
2, 39072, Note_on_c, 0, 68, 0
2, 39072, Note_on_c, 0, 67, 80
2, 39084, Note_on_c, 0, 67, 0
2, 39084, Note_on_c, 0, 68, 80
2, 39096, Note_on_c, 0, 68, 0
2, 39096, Note_on_c, 0, 70, 80
2, 39108, Note_on_c, 0, 70, 0
2, 39108, Note_on_c, 0, 68, 80
2, 39120, Note_on_c, 0, 68, 0
2, 39120, Note_on_c, 0, 67, 80
2, 39132, Note_on_c, 0, 67, 0
2, 39132, Note_on_c, 0, 65, 80
2, 39144, Note_on_c, 0, 65, 0
2, 39144, Note_on_c, 0, 64, 80
2, 39156, Note_on_c, 0, 64, 0
2, 39156, Note_on_c, 0, 62, 80
2, 39168, Note_on_c, 0, 62, 0
2, 39168, Note_on_c, 0, 60, 80
2, 39257, Note_on_c, 0, 60, 0
2, 39264, Note_on_c, 0, 52, 80
2, 39287, Note_on_c, 0, 52, 0
2, 39288, Note_on_c, 0, 53, 80
2, 39296, Note_on_c, 0, 53, 0
2, 39296, Note_on_c, 0, 52, 80
2, 39304, Note_on_c, 0, 52, 0
2, 39304, Note_on_c, 0, 50, 80
2, 39312, Note_on_c, 0, 50, 0
2, 39312, Note_on_c, 0, 52, 80
2, 39335, Note_on_c, 0, 52, 0
2, 39336, Note_on_c, 0, 53, 80
2, 39359, Note_on_c, 0, 53, 0
2, 39552, Note_on_c, 0, 65, 75
2, 39552, Note_on_c, 0, 56, 75
2, 39619, Note_on_c, 0, 65, 0
2, 39619, Note_on_c, 0, 56, 0
2, 39624, Note_on_c, 0, 70, 75
2, 39624, Note_on_c, 0, 61, 75
2, 39647, Note_on_c, 0, 70, 0
2, 39647, Note_on_c, 0, 61, 0
2, 39648, Note_on_c, 0, 70, 75
2, 39648, Note_on_c, 0, 61, 75
2, 39672, Note_on_c, 0, 70, 0
2, 39672, Note_on_c, 0, 61, 0
2, 39672, Note_on_c, 0, 68, 75
2, 39672, Note_on_c, 0, 60, 75
2, 39695, Note_on_c, 0, 68, 0
2, 39695, Note_on_c, 0, 60, 0
2, 39696, Note_on_c, 0, 68, 75
2, 39696, Note_on_c, 0, 60, 75
2, 39720, Note_on_c, 0, 68, 0
2, 39720, Note_on_c, 0, 60, 0
2, 39720, Note_on_c, 0, 67, 75
2, 39720, Note_on_c, 0, 58, 75
2, 39743, Note_on_c, 0, 67, 0
2, 39743, Note_on_c, 0, 58, 0
2, 39744, Note_on_c, 0, 65, 75
2, 39744, Note_on_c, 0, 56, 75
2, 39811, Note_on_c, 0, 65, 0
2, 39811, Note_on_c, 0, 56, 0
2, 39816, Note_on_c, 0, 73, 75
2, 39816, Note_on_c, 0, 70, 75
2, 39839, Note_on_c, 0, 73, 0
2, 39839, Note_on_c, 0, 70, 0
2, 39840, Note_on_c, 0, 73, 75
2, 39840, Note_on_c, 0, 70, 75
2, 39864, Note_on_c, 0, 73, 0
2, 39864, Note_on_c, 0, 70, 0
2, 39864, Note_on_c, 0, 72, 75
2, 39864, Note_on_c, 0, 68, 75
2, 39887, Note_on_c, 0, 72, 0
2, 39887, Note_on_c, 0, 68, 0
2, 39888, Note_on_c, 0, 72, 75
2, 39888, Note_on_c, 0, 68, 75
2, 39912, Note_on_c, 0, 72, 0
2, 39912, Note_on_c, 0, 68, 0
2, 39912, Note_on_c, 0, 70, 75
2, 39912, Note_on_c, 0, 67, 75
2, 39935, Note_on_c, 0, 70, 0
2, 39935, Note_on_c, 0, 67, 0
2, 39936, Note_on_c, 0, 68, 75
2, 39936, Note_on_c, 0, 65, 75
2, 40003, Note_on_c, 0, 68, 0
2, 40003, Note_on_c, 0, 65, 0
2, 40008, Note_on_c, 0, 77, 75
2, 40008, Note_on_c, 0, 73, 75
2, 40031, Note_on_c, 0, 77, 0
2, 40031, Note_on_c, 0, 73, 0
2, 40032, Note_on_c, 0, 77, 75
2, 40032, Note_on_c, 0, 73, 75
2, 40056, Note_on_c, 0, 77, 0
2, 40056, Note_on_c, 0, 73, 0
2, 40056, Note_on_c, 0, 75, 75
2, 40056, Note_on_c, 0, 72, 75
2, 40079, Note_on_c, 0, 75, 0
2, 40079, Note_on_c, 0, 72, 0
2, 40080, Note_on_c, 0, 75, 75
2, 40080, Note_on_c, 0, 72, 75
2, 40104, Note_on_c, 0, 75, 0
2, 40104, Note_on_c, 0, 72, 0
2, 40104, Note_on_c, 0, 73, 75
2, 40104, Note_on_c, 0, 70, 75
2, 40127, Note_on_c, 0, 73, 0
2, 40127, Note_on_c, 0, 70, 0
2, 40128, Note_on_c, 0, 72, 80
2, 40247, Note_on_c, 0, 72, 0
2, 40248, Note_on_c, 0, 78, 80
2, 40271, Note_on_c, 0, 78, 0
2, 40272, Note_on_c, 0, 77, 80
2, 40295, Note_on_c, 0, 77, 0
2, 40296, Note_on_c, 0, 75, 80
2, 40319, Note_on_c, 0, 75, 0
2, 40320, Note_on_c, 0, 74, 80
2, 40343, Note_on_c, 0, 74, 0
2, 40344, Note_on_c, 0, 75, 80
2, 40367, Note_on_c, 0, 75, 0
2, 40368, Note_on_c, 0, 74, 80
2, 40391, Note_on_c, 0, 74, 0
2, 40392, Note_on_c, 0, 75, 80
2, 40415, Note_on_c, 0, 75, 0
2, 40416, Note_on_c, 0, 74, 80
2, 40439, Note_on_c, 0, 74, 0
2, 40440, Note_on_c, 0, 84, 80
2, 40463, Note_on_c, 0, 84, 0
2, 40464, Note_on_c, 0, 82, 80
2, 40487, Note_on_c, 0, 82, 0
2, 40488, Note_on_c, 0, 80, 80
2, 40511, Note_on_c, 0, 80, 0
2, 40512, Note_on_c, 0, 79, 80
2, 40535, Note_on_c, 0, 79, 0
2, 40536, Note_on_c, 0, 80, 80
2, 40559, Note_on_c, 0, 80, 0
2, 40560, Note_on_c, 0, 79, 80
2, 40583, Note_on_c, 0, 79, 0
2, 40584, Note_on_c, 0, 80, 80
2, 40607, Note_on_c, 0, 80, 0
2, 40608, Note_on_c, 0, 79, 80
2, 40631, Note_on_c, 0, 79, 0
2, 40632, Note_on_c, 0, 77, 80
2, 40655, Note_on_c, 0, 77, 0
2, 40656, Note_on_c, 0, 75, 80
2, 40679, Note_on_c, 0, 75, 0
2, 40680, Note_on_c, 0, 73, 80
2, 40703, Note_on_c, 0, 73, 0
2, 40704, Note_on_c, 0, 72, 80
2, 40704, Note_on_c, 0, 68, 80
2, 40727, Note_on_c, 0, 72, 0
2, 40727, Note_on_c, 0, 68, 0
2, 40728, Note_on_c, 0, 63, 80
2, 40736, Note_on_c, 0, 63, 0
2, 40736, Note_on_c, 0, 65, 80
2, 40744, Note_on_c, 0, 65, 0
2, 40744, Note_on_c, 0, 63, 80
2, 40752, Note_on_c, 0, 63, 0
2, 40752, Note_on_c, 0, 68, 80
2, 40775, Note_on_c, 0, 68, 0
2, 40776, Note_on_c, 0, 60, 80
2, 40788, Note_on_c, 0, 60, 0
2, 40788, Note_on_c, 0, 68, 80
2, 40800, Note_on_c, 0, 68, 0
2, 40800, Note_on_c, 0, 61, 80
2, 40812, Note_on_c, 0, 61, 0
2, 40812, Note_on_c, 0, 68, 80
2, 40824, Note_on_c, 0, 68, 0
2, 40824, Note_on_c, 0, 60, 80
2, 40836, Note_on_c, 0, 60, 0
2, 40836, Note_on_c, 0, 68, 80
2, 40848, Note_on_c, 0, 68, 0
2, 40848, Note_on_c, 0, 61, 80
2, 40860, Note_on_c, 0, 61, 0
2, 40860, Note_on_c, 0, 68, 80
2, 40872, Note_on_c, 0, 68, 0
2, 40872, Note_on_c, 0, 63, 80
2, 40884, Note_on_c, 0, 63, 0
2, 40884, Note_on_c, 0, 68, 80
2, 40896, Note_on_c, 0, 68, 0
2, 40896, Note_on_c, 0, 65, 80
2, 40919, Note_on_c, 0, 65, 0
2, 40920, Note_on_c, 0, 73, 80
2, 40920, Note_on_c, 0, 65, 80
2, 40943, Note_on_c, 0, 73, 0
2, 40943, Note_on_c, 0, 65, 0
2, 40944, Note_on_c, 0, 73, 80
2, 40944, Note_on_c, 0, 65, 80
2, 40967, Note_on_c, 0, 73, 0
2, 40967, Note_on_c, 0, 65, 0
2, 40968, Note_on_c, 0, 73, 80
2, 40968, Note_on_c, 0, 65, 80
2, 40991, Note_on_c, 0, 73, 0
2, 40991, Note_on_c, 0, 65, 0
2, 40992, Note_on_c, 0, 73, 80
2, 40992, Note_on_c, 0, 65, 80
2, 41016, Note_on_c, 0, 73, 0
2, 41016, Note_on_c, 0, 65, 0
2, 41016, Note_on_c, 0, 72, 80
2, 41016, Note_on_c, 0, 63, 80
2, 41039, Note_on_c, 0, 72, 0
2, 41039, Note_on_c, 0, 63, 0
2, 41040, Note_on_c, 0, 72, 80
2, 41040, Note_on_c, 0, 63, 80
2, 41064, Note_on_c, 0, 72, 0
2, 41064, Note_on_c, 0, 63, 0
2, 41064, Note_on_c, 0, 70, 80
2, 41064, Note_on_c, 0, 61, 80
2, 41087, Note_on_c, 0, 70, 0
2, 41087, Note_on_c, 0, 61, 0
2, 41088, Note_on_c, 0, 68, 80
2, 41088, Note_on_c, 0, 60, 80
2, 41111, Note_on_c, 0, 68, 0
2, 41111, Note_on_c, 0, 60, 0
2, 41112, Note_on_c, 0, 63, 80
2, 41120, Note_on_c, 0, 63, 0
2, 41120, Note_on_c, 0, 65, 80
2, 41128, Note_on_c, 0, 65, 0
2, 41128, Note_on_c, 0, 63, 80
2, 41136, Note_on_c, 0, 63, 0
2, 41136, Note_on_c, 0, 68, 80
2, 41159, Note_on_c, 0, 68, 0
2, 41160, Note_on_c, 0, 60, 80
2, 41172, Note_on_c, 0, 60, 0
2, 41172, Note_on_c, 0, 68, 80
2, 41184, Note_on_c, 0, 68, 0
2, 41184, Note_on_c, 0, 61, 80
2, 41196, Note_on_c, 0, 61, 0
2, 41196, Note_on_c, 0, 68, 80
2, 41208, Note_on_c, 0, 68, 0
2, 41208, Note_on_c, 0, 60, 80
2, 41220, Note_on_c, 0, 60, 0
2, 41220, Note_on_c, 0, 68, 80
2, 41232, Note_on_c, 0, 68, 0
2, 41232, Note_on_c, 0, 61, 80
2, 41244, Note_on_c, 0, 61, 0
2, 41244, Note_on_c, 0, 68, 80
2, 41256, Note_on_c, 0, 68, 0
2, 41256, Note_on_c, 0, 63, 80
2, 41268, Note_on_c, 0, 63, 0
2, 41268, Note_on_c, 0, 68, 80
2, 41280, Note_on_c, 0, 68, 0
2, 41280, Note_on_c, 0, 65, 80
2, 41303, Note_on_c, 0, 65, 0
2, 41304, Note_on_c, 0, 77, 80
2, 41304, Note_on_c, 0, 73, 80
2, 41327, Note_on_c, 0, 77, 0
2, 41327, Note_on_c, 0, 73, 0
2, 41328, Note_on_c, 0, 77, 80
2, 41328, Note_on_c, 0, 73, 80
2, 41351, Note_on_c, 0, 77, 0
2, 41351, Note_on_c, 0, 73, 0
2, 41352, Note_on_c, 0, 77, 80
2, 41352, Note_on_c, 0, 73, 80
2, 41375, Note_on_c, 0, 77, 0
2, 41375, Note_on_c, 0, 73, 0
2, 41376, Note_on_c, 0, 77, 80
2, 41376, Note_on_c, 0, 73, 80
2, 41400, Note_on_c, 0, 77, 0
2, 41400, Note_on_c, 0, 73, 0
2, 41400, Note_on_c, 0, 75, 80
2, 41400, Note_on_c, 0, 72, 80
2, 41423, Note_on_c, 0, 75, 0
2, 41423, Note_on_c, 0, 72, 0
2, 41424, Note_on_c, 0, 75, 80
2, 41424, Note_on_c, 0, 72, 80
2, 41448, Note_on_c, 0, 75, 0
2, 41448, Note_on_c, 0, 72, 0
2, 41448, Note_on_c, 0, 73, 80
2, 41448, Note_on_c, 0, 70, 80
2, 41471, Note_on_c, 0, 73, 0
2, 41471, Note_on_c, 0, 70, 0
2, 41472, Note_on_c, 0, 72, 80
2, 41472, Note_on_c, 0, 68, 80
2, 41495, Note_on_c, 0, 72, 0
2, 41495, Note_on_c, 0, 68, 0
2, 41496, Note_on_c, 0, 75, 80
2, 41504, Note_on_c, 0, 75, 0
2, 41504, Note_on_c, 0, 77, 80
2, 41512, Note_on_c, 0, 77, 0
2, 41512, Note_on_c, 0, 75, 80
2, 41520, Note_on_c, 0, 75, 0
2, 41520, Note_on_c, 0, 80, 80
2, 41530, Note_on_c, 0, 80, 0
2, 41544, Note_on_c, 0, 75, 80
2, 41556, Note_on_c, 0, 75, 0
2, 41556, Note_on_c, 0, 80, 80
2, 41568, Note_on_c, 0, 80, 0
2, 41568, Note_on_c, 0, 77, 80
2, 41580, Note_on_c, 0, 77, 0
2, 41580, Note_on_c, 0, 80, 80
2, 41592, Note_on_c, 0, 80, 0
2, 41592, Note_on_c, 0, 75, 80
2, 41604, Note_on_c, 0, 75, 0
2, 41604, Note_on_c, 0, 80, 80
2, 41616, Note_on_c, 0, 80, 0
2, 41616, Note_on_c, 0, 77, 80
2, 41628, Note_on_c, 0, 77, 0
2, 41628, Note_on_c, 0, 80, 80
2, 41640, Note_on_c, 0, 80, 0
2, 41640, Note_on_c, 0, 75, 80
2, 41652, Note_on_c, 0, 75, 0
2, 41652, Note_on_c, 0, 80, 80
2, 41664, Note_on_c, 0, 80, 0
2, 41664, Note_on_c, 0, 74, 80
2, 41676, Note_on_c, 0, 74, 0
2, 41676, Note_on_c, 0, 80, 80
2, 41688, Note_on_c, 0, 80, 0
2, 41688, Note_on_c, 0, 79, 80
2, 41700, Note_on_c, 0, 79, 0
2, 41700, Note_on_c, 0, 80, 80
2, 41712, Note_on_c, 0, 80, 0
2, 41712, Note_on_c, 0, 82, 80
2, 41724, Note_on_c, 0, 82, 0
2, 41724, Note_on_c, 0, 80, 80
2, 41736, Note_on_c, 0, 80, 0
2, 41736, Note_on_c, 0, 79, 80
2, 41748, Note_on_c, 0, 79, 0
2, 41748, Note_on_c, 0, 80, 80
2, 41760, Note_on_c, 0, 80, 0
2, 41760, Note_on_c, 0, 89, 80
2, 41772, Note_on_c, 0, 89, 0
2, 41772, Note_on_c, 0, 87, 78
2, 41784, Note_on_c, 0, 87, 0
2, 41784, Note_on_c, 0, 86, 77
2, 41796, Note_on_c, 0, 86, 0
2, 41796, Note_on_c, 0, 84, 76
2, 41808, Note_on_c, 0, 84, 0
2, 41808, Note_on_c, 0, 82, 75
2, 41820, Note_on_c, 0, 82, 0
2, 41820, Note_on_c, 0, 80, 73
2, 41832, Note_on_c, 0, 80, 0
2, 41832, Note_on_c, 0, 79, 72
2, 41844, Note_on_c, 0, 79, 0
2, 41844, Note_on_c, 0, 77, 71
2, 41856, Note_on_c, 0, 77, 0
2, 41856, Note_on_c, 0, 75, 70
2, 41952, Note_on_c, 0, 75, 0
2, 41952, Note_on_c, 0, 74, 70
2, 41997, Note_on_c, 0, 74, 0
2, 42000, Note_on_c, 0, 73, 70
2, 42045, Note_on_c, 0, 73, 0
2, 42048, Note_on_c, 0, 71, 70
2, 42096, Note_on_c, 0, 71, 0
2, 42096, Note_on_c, 0, 72, 70
2, 42141, Note_on_c, 0, 72, 0
2, 42240, Note_on_c, 0, 77, 70
2, 42285, Note_on_c, 0, 77, 0
2, 42288, Note_on_c, 0, 70, 70
2, 42381, Note_on_c, 0, 70, 0
2, 42384, Note_on_c, 0, 74, 70
2, 42390, Note_on_c, 0, 74, 0
2, 42390, Note_on_c, 0, 72, 70
2, 42407, Note_on_c, 0, 72, 0
2, 42408, Note_on_c, 0, 70, 70
2, 42431, Note_on_c, 0, 70, 0
2, 42432, Note_on_c, 0, 70, 70
2, 42455, Note_on_c, 0, 70, 0
2, 42456, Note_on_c, 0, 72, 70
2, 42468, Note_on_c, 0, 72, 0
2, 42468, Note_on_c, 0, 74, 71
2, 42480, Note_on_c, 0, 74, 0
2, 42480, Note_on_c, 0, 75, 71
2, 42492, Note_on_c, 0, 75, 0
2, 42492, Note_on_c, 0, 77, 72
2, 42504, Note_on_c, 0, 77, 0
2, 42504, Note_on_c, 0, 79, 72
2, 42516, Note_on_c, 0, 79, 0
2, 42516, Note_on_c, 0, 80, 72
2, 42528, Note_on_c, 0, 80, 0
2, 42528, Note_on_c, 0, 82, 73
2, 42573, Note_on_c, 0, 82, 0
2, 42624, Note_on_c, 0, 77, 70
2, 42669, Note_on_c, 0, 77, 0
2, 42672, Note_on_c, 0, 70, 70
2, 42765, Note_on_c, 0, 70, 0
2, 42768, Note_on_c, 0, 74, 70
2, 42774, Note_on_c, 0, 74, 0
2, 42774, Note_on_c, 0, 72, 70
2, 42791, Note_on_c, 0, 72, 0
2, 42792, Note_on_c, 0, 70, 70
2, 42815, Note_on_c, 0, 70, 0
2, 42816, Note_on_c, 0, 70, 70
2, 42839, Note_on_c, 0, 70, 0
2, 42840, Note_on_c, 0, 72, 70
2, 42852, Note_on_c, 0, 72, 0
2, 42852, Note_on_c, 0, 73, 71
2, 42864, Note_on_c, 0, 73, 0
2, 42864, Note_on_c, 0, 75, 71
2, 42876, Note_on_c, 0, 75, 0
2, 42876, Note_on_c, 0, 77, 72
2, 42888, Note_on_c, 0, 77, 0
2, 42888, Note_on_c, 0, 79, 72
2, 42900, Note_on_c, 0, 79, 0
2, 42900, Note_on_c, 0, 80, 72
2, 42912, Note_on_c, 0, 80, 0
2, 42912, Note_on_c, 0, 82, 73
2, 42957, Note_on_c, 0, 82, 0
2, 43008, Note_on_c, 0, 70, 75
2, 43031, Note_on_c, 0, 70, 0
2, 43032, Note_on_c, 0, 72, 75
2, 43044, Note_on_c, 0, 72, 0
2, 43044, Note_on_c, 0, 74, 76
2, 43056, Note_on_c, 0, 74, 0
2, 43056, Note_on_c, 0, 76, 76
2, 43068, Note_on_c, 0, 76, 0
2, 43068, Note_on_c, 0, 77, 77
2, 43080, Note_on_c, 0, 77, 0
2, 43080, Note_on_c, 0, 79, 77
2, 43092, Note_on_c, 0, 79, 0
2, 43092, Note_on_c, 0, 80, 77
2, 43104, Note_on_c, 0, 80, 0
2, 43104, Note_on_c, 0, 82, 78
2, 43149, Note_on_c, 0, 82, 0
2, 43200, Note_on_c, 0, 72, 80
2, 43212, Note_on_c, 0, 72, 0
2, 43212, Note_on_c, 0, 74, 80
2, 43224, Note_on_c, 0, 74, 0
2, 43224, Note_on_c, 0, 76, 81
2, 43236, Note_on_c, 0, 76, 0
2, 43236, Note_on_c, 0, 77, 81
2, 43248, Note_on_c, 0, 77, 0
2, 43248, Note_on_c, 0, 79, 82
2, 43260, Note_on_c, 0, 79, 0
2, 43260, Note_on_c, 0, 80, 82
2, 43272, Note_on_c, 0, 80, 0
2, 43272, Note_on_c, 0, 82, 83
2, 43284, Note_on_c, 0, 82, 0
2, 43284, Note_on_c, 0, 84, 83
2, 43296, Note_on_c, 0, 84, 0
2, 43296, Note_on_c, 0, 85, 84
2, 43341, Note_on_c, 0, 85, 0
2, 43368, Note_on_c, 0, 76, 86
2, 43391, Note_on_c, 0, 76, 0
2, 43392, Note_on_c, 0, 77, 80
2, 43481, Note_on_c, 0, 77, 0
2, 43488, Note_on_c, 0, 68, 80
2, 43511, Note_on_c, 0, 68, 0
2, 43512, Note_on_c, 0, 70, 80
2, 43520, Note_on_c, 0, 70, 0
2, 43520, Note_on_c, 0, 68, 80
2, 43528, Note_on_c, 0, 68, 0
2, 43528, Note_on_c, 0, 67, 80
2, 43536, Note_on_c, 0, 67, 0
2, 43536, Note_on_c, 0, 68, 80
2, 43559, Note_on_c, 0, 68, 0
2, 43560, Note_on_c, 0, 70, 80
2, 43583, Note_on_c, 0, 70, 0
2, 43584, Note_on_c, 0, 72, 80
2, 43604, Note_on_c, 0, 72, 0
2, 43632, Note_on_c, 0, 72, 80
2, 43652, Note_on_c, 0, 72, 0
2, 43680, Note_on_c, 0, 72, 80
2, 43703, Note_on_c, 0, 72, 0
2, 43704, Note_on_c, 0, 74, 80
2, 43716, Note_on_c, 0, 74, 0
2, 43716, Note_on_c, 0, 76, 80
2, 43728, Note_on_c, 0, 76, 0
2, 43728, Note_on_c, 0, 77, 80
2, 43740, Note_on_c, 0, 77, 0
2, 43740, Note_on_c, 0, 79, 80
2, 43752, Note_on_c, 0, 79, 0
2, 43752, Note_on_c, 0, 80, 80
2, 43764, Note_on_c, 0, 80, 0
2, 43764, Note_on_c, 0, 82, 80
2, 43776, Note_on_c, 0, 82, 0
2, 43776, Note_on_c, 0, 84, 80
2, 43810, Note_on_c, 0, 84, 0
2, 43812, Note_on_c, 0, 79, 80
2, 43824, Note_on_c, 0, 79, 0
2, 43824, Note_on_c, 0, 80, 80
2, 43858, Note_on_c, 0, 80, 0
2, 43860, Note_on_c, 0, 76, 80
2, 43872, Note_on_c, 0, 76, 0
2, 43872, Note_on_c, 0, 77, 80
2, 43906, Note_on_c, 0, 77, 0
2, 43908, Note_on_c, 0, 73, 80
2, 43920, Note_on_c, 0, 73, 0
2, 43920, Note_on_c, 0, 72, 80
2, 43926, Note_on_c, 0, 72, 0
2, 43926, Note_on_c, 0, 74, 80
2, 43932, Note_on_c, 0, 74, 0
2, 43932, Note_on_c, 0, 72, 80
2, 43954, Note_on_c, 0, 72, 0
2, 43956, Note_on_c, 0, 71, 80
2, 43968, Note_on_c, 0, 71, 0
2, 43968, Note_on_c, 0, 72, 80
2, 44013, Note_on_c, 0, 72, 0
2, 44016, Note_on_c, 0, 60, 80
2, 44061, Note_on_c, 0, 60, 0
2, 44160, Note_on_c, 0, 75, 75
2, 44183, Note_on_c, 0, 75, 0
2, 44184, Note_on_c, 0, 74, 75
2, 44207, Note_on_c, 0, 74, 0
2, 44208, Note_on_c, 0, 75, 75
2, 44231, Note_on_c, 0, 75, 0
2, 44232, Note_on_c, 0, 74, 75
2, 44255, Note_on_c, 0, 74, 0
2, 44256, Note_on_c, 0, 75, 91
2, 44280, Note_on_c, 0, 75, 0
2, 44280, Note_on_c, 0, 84, 75
2, 44292, Note_on_c, 0, 84, 0
2, 44292, Note_on_c, 0, 82, 75
2, 44304, Note_on_c, 0, 82, 0
2, 44304, Note_on_c, 0, 81, 75
2, 44316, Note_on_c, 0, 81, 0
2, 44316, Note_on_c, 0, 79, 75
2, 44328, Note_on_c, 0, 79, 0
2, 44328, Note_on_c, 0, 77, 75
2, 44340, Note_on_c, 0, 77, 0
2, 44340, Note_on_c, 0, 75, 75
2, 44352, Note_on_c, 0, 75, 0
2, 44352, Note_on_c, 0, 74, 75
2, 44375, Note_on_c, 0, 74, 0
2, 44376, Note_on_c, 0, 75, 75
2, 44399, Note_on_c, 0, 75, 0
2, 44400, Note_on_c, 0, 74, 75
2, 44423, Note_on_c, 0, 74, 0
2, 44424, Note_on_c, 0, 75, 75
2, 44447, Note_on_c, 0, 75, 0
2, 44448, Note_on_c, 0, 74, 91
2, 44472, Note_on_c, 0, 74, 0
2, 44472, Note_on_c, 0, 77, 75
2, 44484, Note_on_c, 0, 77, 0
2, 44484, Note_on_c, 0, 75, 75
2, 44496, Note_on_c, 0, 75, 0
2, 44496, Note_on_c, 0, 74, 75
2, 44508, Note_on_c, 0, 74, 0
2, 44508, Note_on_c, 0, 72, 75
2, 44520, Note_on_c, 0, 72, 0
2, 44520, Note_on_c, 0, 70, 75
2, 44532, Note_on_c, 0, 70, 0
2, 44532, Note_on_c, 0, 68, 75
2, 44544, Note_on_c, 0, 68, 0
2, 44544, Note_on_c, 0, 67, 75
2, 44567, Note_on_c, 0, 67, 0
2, 44568, Note_on_c, 0, 68, 75
2, 44591, Note_on_c, 0, 68, 0
2, 44592, Note_on_c, 0, 67, 75
2, 44615, Note_on_c, 0, 67, 0
2, 44616, Note_on_c, 0, 68, 75
2, 44639, Note_on_c, 0, 68, 0
2, 44640, Note_on_c, 0, 67, 91
2, 44664, Note_on_c, 0, 67, 0
2, 44664, Note_on_c, 0, 82, 75
2, 44676, Note_on_c, 0, 82, 0
2, 44676, Note_on_c, 0, 80, 75
2, 44688, Note_on_c, 0, 80, 0
2, 44688, Note_on_c, 0, 79, 75
2, 44700, Note_on_c, 0, 79, 0
2, 44700, Note_on_c, 0, 77, 75
2, 44712, Note_on_c, 0, 77, 0
2, 44712, Note_on_c, 0, 75, 75
2, 44724, Note_on_c, 0, 75, 0
2, 44724, Note_on_c, 0, 73, 75
2, 44736, Note_on_c, 0, 73, 0
2, 44736, Note_on_c, 0, 72, 75
2, 44759, Note_on_c, 0, 72, 0
2, 44760, Note_on_c, 0, 73, 75
2, 44783, Note_on_c, 0, 73, 0
2, 44784, Note_on_c, 0, 72, 75
2, 44807, Note_on_c, 0, 72, 0
2, 44808, Note_on_c, 0, 73, 75
2, 44831, Note_on_c, 0, 73, 0
2, 44832, Note_on_c, 0, 72, 91
2, 44856, Note_on_c, 0, 72, 0
2, 44856, Note_on_c, 0, 79, 75
2, 44868, Note_on_c, 0, 79, 0
2, 44868, Note_on_c, 0, 77, 75
2, 44880, Note_on_c, 0, 77, 0
2, 44880, Note_on_c, 0, 76, 75
2, 44892, Note_on_c, 0, 76, 0
2, 44892, Note_on_c, 0, 74, 75
2, 44904, Note_on_c, 0, 74, 0
2, 44904, Note_on_c, 0, 72, 75
2, 44916, Note_on_c, 0, 72, 0
2, 44916, Note_on_c, 0, 70, 75
2, 44928, Note_on_c, 0, 70, 0
2, 44928, Note_on_c, 0, 69, 75
2, 44951, Note_on_c, 0, 69, 0
2, 44952, Note_on_c, 0, 70, 75
2, 44975, Note_on_c, 0, 70, 0
2, 44976, Note_on_c, 0, 69, 75
2, 44999, Note_on_c, 0, 69, 0
2, 45000, Note_on_c, 0, 70, 75
2, 45023, Note_on_c, 0, 70, 0
2, 45024, Note_on_c, 0, 69, 91
2, 45048, Note_on_c, 0, 69, 0
2, 45048, Note_on_c, 0, 84, 75
2, 45060, Note_on_c, 0, 84, 0
2, 45060, Note_on_c, 0, 82, 75
2, 45072, Note_on_c, 0, 82, 0
2, 45072, Note_on_c, 0, 81, 75
2, 45084, Note_on_c, 0, 81, 0
2, 45084, Note_on_c, 0, 79, 75
2, 45096, Note_on_c, 0, 79, 0
2, 45096, Note_on_c, 0, 77, 75
2, 45108, Note_on_c, 0, 77, 0
2, 45108, Note_on_c, 0, 75, 75
2, 45120, Note_on_c, 0, 75, 0
2, 45120, Note_on_c, 0, 74, 75
2, 45143, Note_on_c, 0, 74, 0
2, 45144, Note_on_c, 0, 75, 75
2, 45167, Note_on_c, 0, 75, 0
2, 45168, Note_on_c, 0, 74, 75
2, 45191, Note_on_c, 0, 74, 0
2, 45192, Note_on_c, 0, 75, 75
2, 45215, Note_on_c, 0, 75, 0
2, 45216, Note_on_c, 0, 74, 91
2, 45240, Note_on_c, 0, 74, 0
2, 45240, Note_on_c, 0, 81, 75
2, 45252, Note_on_c, 0, 81, 0
2, 45252, Note_on_c, 0, 79, 75
2, 45264, Note_on_c, 0, 79, 0
2, 45264, Note_on_c, 0, 78, 75
2, 45276, Note_on_c, 0, 78, 0
2, 45276, Note_on_c, 0, 76, 75
2, 45288, Note_on_c, 0, 76, 0
2, 45288, Note_on_c, 0, 74, 75
2, 45300, Note_on_c, 0, 74, 0
2, 45300, Note_on_c, 0, 72, 75
2, 45312, Note_on_c, 0, 72, 0
2, 45312, Note_on_c, 0, 70, 91
2, 45336, Note_on_c, 0, 70, 0
2, 45336, Note_on_c, 0, 86, 75
2, 45348, Note_on_c, 0, 86, 0
2, 45348, Note_on_c, 0, 84, 75
2, 45360, Note_on_c, 0, 84, 0
2, 45360, Note_on_c, 0, 82, 75
2, 45372, Note_on_c, 0, 82, 0
2, 45372, Note_on_c, 0, 81, 75
2, 45384, Note_on_c, 0, 81, 0
2, 45384, Note_on_c, 0, 79, 75
2, 45396, Note_on_c, 0, 79, 0
2, 45396, Note_on_c, 0, 77, 75
2, 45408, Note_on_c, 0, 77, 0
2, 45408, Note_on_c, 0, 75, 91
2, 45432, Note_on_c, 0, 75, 0
2, 45432, Note_on_c, 0, 72, 76
2, 45444, Note_on_c, 0, 72, 0
2, 45444, Note_on_c, 0, 70, 76
2, 45456, Note_on_c, 0, 70, 0
2, 45456, Note_on_c, 0, 69, 77
2, 45468, Note_on_c, 0, 69, 0
2, 45468, Note_on_c, 0, 67, 78
2, 45480, Note_on_c, 0, 67, 0
2, 45480, Note_on_c, 0, 66, 78
2, 45492, Note_on_c, 0, 66, 0
2, 45492, Note_on_c, 0, 64, 79
2, 45504, Note_on_c, 0, 64, 0
2, 45504, Note_on_c, 0, 62, 80
2, 45549, Note_on_c, 0, 62, 0
2, 45552, Note_on_c, 0, 74, 80
2, 45575, Note_on_c, 0, 74, 0
2, 45576, Note_on_c, 0, 66, 80
2, 45588, Note_on_c, 0, 66, 0
2, 45588, Note_on_c, 0, 74, 80
2, 45600, Note_on_c, 0, 74, 0
2, 45600, Note_on_c, 0, 67, 80
2, 45612, Note_on_c, 0, 67, 0
2, 45612, Note_on_c, 0, 74, 80
2, 45624, Note_on_c, 0, 74, 0
2, 45624, Note_on_c, 0, 69, 80
2, 45636, Note_on_c, 0, 69, 0
2, 45636, Note_on_c, 0, 74, 80
2, 45648, Note_on_c, 0, 74, 0
2, 45648, Note_on_c, 0, 70, 80
2, 45660, Note_on_c, 0, 70, 0
2, 45660, Note_on_c, 0, 74, 80
2, 45672, Note_on_c, 0, 74, 0
2, 45672, Note_on_c, 0, 61, 80
2, 45684, Note_on_c, 0, 61, 0
2, 45684, Note_on_c, 0, 74, 80
2, 45696, Note_on_c, 0, 74, 0
2, 45696, Note_on_c, 0, 62, 80
2, 45708, Note_on_c, 0, 62, 0
2, 45708, Note_on_c, 0, 74, 80
2, 45720, Note_on_c, 0, 74, 0
2, 45720, Note_on_c, 0, 61, 80
2, 45732, Note_on_c, 0, 61, 0
2, 45732, Note_on_c, 0, 74, 80
2, 45744, Note_on_c, 0, 74, 0
2, 45744, Note_on_c, 0, 62, 80
2, 45756, Note_on_c, 0, 62, 0
2, 45756, Note_on_c, 0, 74, 80
2, 45768, Note_on_c, 0, 74, 0
2, 45768, Note_on_c, 0, 66, 80
2, 45780, Note_on_c, 0, 66, 0
2, 45780, Note_on_c, 0, 74, 80
2, 45792, Note_on_c, 0, 74, 0
2, 45792, Note_on_c, 0, 67, 80
2, 45804, Note_on_c, 0, 67, 0
2, 45804, Note_on_c, 0, 74, 80
2, 45816, Note_on_c, 0, 74, 0
2, 45816, Note_on_c, 0, 69, 80
2, 45828, Note_on_c, 0, 69, 0
2, 45828, Note_on_c, 0, 74, 80
2, 45840, Note_on_c, 0, 74, 0
2, 45840, Note_on_c, 0, 70, 80
2, 45852, Note_on_c, 0, 70, 0
2, 45852, Note_on_c, 0, 74, 80
2, 45864, Note_on_c, 0, 74, 0
2, 45864, Note_on_c, 0, 61, 80
2, 45876, Note_on_c, 0, 61, 0
2, 45876, Note_on_c, 0, 74, 80
2, 45888, Note_on_c, 0, 74, 0
2, 45888, Note_on_c, 0, 62, 80
2, 45900, Note_on_c, 0, 62, 0
2, 45900, Note_on_c, 0, 74, 80
2, 45912, Note_on_c, 0, 74, 0
2, 45912, Note_on_c, 0, 61, 80
2, 45924, Note_on_c, 0, 61, 0
2, 45924, Note_on_c, 0, 74, 80
2, 45936, Note_on_c, 0, 74, 0
2, 45936, Note_on_c, 0, 62, 80
2, 45948, Note_on_c, 0, 62, 0
2, 45948, Note_on_c, 0, 74, 80
2, 45960, Note_on_c, 0, 74, 0
2, 45960, Note_on_c, 0, 70, 80
2, 45972, Note_on_c, 0, 70, 0
2, 45972, Note_on_c, 0, 74, 80
2, 45984, Note_on_c, 0, 74, 0
2, 45984, Note_on_c, 0, 69, 80
2, 45996, Note_on_c, 0, 69, 0
2, 45996, Note_on_c, 0, 74, 80
2, 46008, Note_on_c, 0, 74, 0
2, 46008, Note_on_c, 0, 61, 80
2, 46020, Note_on_c, 0, 61, 0
2, 46020, Note_on_c, 0, 74, 80
2, 46032, Note_on_c, 0, 74, 0
2, 46032, Note_on_c, 0, 62, 80
2, 46044, Note_on_c, 0, 62, 0
2, 46044, Note_on_c, 0, 74, 80
2, 46056, Note_on_c, 0, 74, 0
2, 46056, Note_on_c, 0, 70, 80
2, 46068, Note_on_c, 0, 70, 0
2, 46068, Note_on_c, 0, 74, 80
2, 46080, Note_on_c, 0, 74, 0
2, 46080, Note_on_c, 0, 69, 80
2, 46092, Note_on_c, 0, 69, 0
2, 46092, Note_on_c, 0, 74, 80
2, 46104, Note_on_c, 0, 74, 0
2, 46104, Note_on_c, 0, 61, 80
2, 46116, Note_on_c, 0, 61, 0
2, 46116, Note_on_c, 0, 74, 80
2, 46128, Note_on_c, 0, 74, 0
2, 46128, Note_on_c, 0, 62, 80
2, 46140, Note_on_c, 0, 62, 0
2, 46140, Note_on_c, 0, 74, 80
2, 46152, Note_on_c, 0, 74, 0
2, 46152, Note_on_c, 0, 70, 80
2, 46164, Note_on_c, 0, 70, 0
2, 46164, Note_on_c, 0, 74, 80
2, 46176, Note_on_c, 0, 74, 0
2, 46176, Note_on_c, 0, 69, 80
2, 46188, Note_on_c, 0, 69, 0
2, 46188, Note_on_c, 0, 74, 80
2, 46200, Note_on_c, 0, 74, 0
2, 46200, Note_on_c, 0, 70, 80
2, 46212, Note_on_c, 0, 70, 0
2, 46212, Note_on_c, 0, 74, 80
2, 46224, Note_on_c, 0, 74, 0
2, 46224, Note_on_c, 0, 69, 80
2, 46236, Note_on_c, 0, 69, 0
2, 46236, Note_on_c, 0, 74, 80
2, 46248, Note_on_c, 0, 74, 0
2, 46248, Note_on_c, 0, 70, 80
2, 46260, Note_on_c, 0, 70, 0
2, 46260, Note_on_c, 0, 74, 80
2, 46272, Note_on_c, 0, 74, 0
2, 46272, Note_on_c, 0, 69, 80
2, 46311, Note_on_c, 0, 69, 0
2, 46464, Note_on_c, 0, 63, 64
2, 46553, Note_on_c, 0, 63, 0
2, 46560, Note_on_c, 0, 55, 64
2, 46583, Note_on_c, 0, 55, 0
2, 46584, Note_on_c, 0, 57, 64
2, 46592, Note_on_c, 0, 57, 0
2, 46592, Note_on_c, 0, 55, 64
2, 46600, Note_on_c, 0, 55, 0
2, 46600, Note_on_c, 0, 53, 64
2, 46608, Note_on_c, 0, 53, 0
2, 46608, Note_on_c, 0, 55, 64
2, 46631, Note_on_c, 0, 55, 0
2, 46632, Note_on_c, 0, 57, 64
2, 46655, Note_on_c, 0, 57, 0
2, 46656, Note_on_c, 0, 58, 64
2, 46676, Note_on_c, 0, 58, 0
2, 46704, Note_on_c, 0, 58, 64
2, 46724, Note_on_c, 0, 58, 0
2, 46752, Note_on_c, 0, 58, 64
2, 46797, Note_on_c, 0, 58, 0
2, 46800, Note_on_c, 0, 57, 64
2, 46812, Note_on_c, 0, 57, 0
2, 46812, Note_on_c, 0, 58, 64
2, 46824, Note_on_c, 0, 58, 0
2, 46824, Note_on_c, 0, 60, 64
2, 46836, Note_on_c, 0, 60, 0
2, 46836, Note_on_c, 0, 58, 64
2, 46848, Note_on_c, 0, 58, 0
2, 46848, Note_on_c, 0, 63, 64
2, 46868, Note_on_c, 0, 63, 0
2, 46896, Note_on_c, 0, 63, 67
2, 46916, Note_on_c, 0, 63, 0
2, 46944, Note_on_c, 0, 63, 71
2, 46989, Note_on_c, 0, 63, 0
2, 46992, Note_on_c, 0, 67, 75
2, 46998, Note_on_c, 0, 67, 0
2, 46998, Note_on_c, 0, 65, 75
2, 47037, Note_on_c, 0, 65, 0
2, 47040, Note_on_c, 0, 63, 72
2, 47184, Note_on_c, 0, 63, 0
2, 47184, Note_on_c, 0, 62, 66
2, 47229, Note_on_c, 0, 62, 0
2, 47232, Note_on_c, 0, 60, 80
2, 47362, Note_on_c, 0, 60, 0
2, 47364, Note_on_c, 0, 64, 64
2, 47376, Note_on_c, 0, 64, 0
2, 47376, Note_on_c, 0, 65, 64
2, 47410, Note_on_c, 0, 65, 0
2, 47412, Note_on_c, 0, 68, 64
2, 47424, Note_on_c, 0, 68, 0
2, 47424, Note_on_c, 0, 58, 80
2, 47554, Note_on_c, 0, 58, 0
2, 47556, Note_on_c, 0, 62, 64
2, 47568, Note_on_c, 0, 62, 0
2, 47568, Note_on_c, 0, 63, 64
2, 47602, Note_on_c, 0, 63, 0
2, 47604, Note_on_c, 0, 67, 64
2, 47616, Note_on_c, 0, 67, 0
2, 47616, Note_on_c, 0, 67, 64
2, 47664, Note_on_c, 0, 67, 0
2, 47664, Note_on_c, 0, 60, 67
2, 47698, Note_on_c, 0, 60, 0
2, 47700, Note_on_c, 0, 68, 69
2, 47712, Note_on_c, 0, 68, 0
2, 47712, Note_on_c, 0, 68, 70
2, 47784, Note_on_c, 0, 68, 0
2, 47784, Note_on_c, 0, 65, 68
2, 47796, Note_on_c, 0, 65, 0
2, 47796, Note_on_c, 0, 62, 67
2, 47808, Note_on_c, 0, 62, 0
2, 47808, Note_on_c, 0, 62, 67
2, 47904, Note_on_c, 0, 62, 0
2, 47904, Note_on_c, 0, 63, 65
2, 47949, Note_on_c, 0, 63, 0
2, 48000, Note_on_c, 0, 72, 80
2, 48130, Note_on_c, 0, 72, 0
2, 48132, Note_on_c, 0, 76, 64
2, 48144, Note_on_c, 0, 76, 0
2, 48144, Note_on_c, 0, 77, 64
2, 48178, Note_on_c, 0, 77, 0
2, 48180, Note_on_c, 0, 80, 64
2, 48192, Note_on_c, 0, 80, 0
2, 48192, Note_on_c, 0, 70, 80
2, 48322, Note_on_c, 0, 70, 0
2, 48324, Note_on_c, 0, 74, 64
2, 48336, Note_on_c, 0, 74, 0
2, 48336, Note_on_c, 0, 75, 64
2, 48370, Note_on_c, 0, 75, 0
2, 48372, Note_on_c, 0, 79, 64
2, 48384, Note_on_c, 0, 79, 0
2, 48408, Note_on_c, 0, 75, 64
2, 48431, Note_on_c, 0, 75, 0
2, 48432, Note_on_c, 0, 74, 65
2, 48455, Note_on_c, 0, 74, 0
2, 48456, Note_on_c, 0, 79, 65
2, 48479, Note_on_c, 0, 79, 0
2, 48480, Note_on_c, 0, 77, 66
2, 48503, Note_on_c, 0, 77, 0
2, 48504, Note_on_c, 0, 75, 66
2, 48527, Note_on_c, 0, 75, 0
2, 48528, Note_on_c, 0, 74, 67
2, 48551, Note_on_c, 0, 74, 0
2, 48552, Note_on_c, 0, 79, 68
2, 48575, Note_on_c, 0, 79, 0
2, 48576, Note_on_c, 0, 77, 68
2, 48599, Note_on_c, 0, 77, 0
2, 48600, Note_on_c, 0, 72, 69
2, 48612, Note_on_c, 0, 72, 0
2, 48612, Note_on_c, 0, 75, 69
2, 48624, Note_on_c, 0, 75, 0
2, 48624, Note_on_c, 0, 70, 69
2, 48636, Note_on_c, 0, 70, 0
2, 48636, Note_on_c, 0, 75, 70
2, 48648, Note_on_c, 0, 75, 0
2, 48648, Note_on_c, 0, 68, 70
2, 48660, Note_on_c, 0, 68, 0
2, 48660, Note_on_c, 0, 75, 70
2, 48672, Note_on_c, 0, 75, 0
2, 48672, Note_on_c, 0, 67, 70
2, 48695, Note_on_c, 0, 67, 0
2, 48696, Note_on_c, 0, 72, 71
2, 48708, Note_on_c, 0, 72, 0
2, 48708, Note_on_c, 0, 75, 71
2, 48720, Note_on_c, 0, 75, 0
2, 48720, Note_on_c, 0, 70, 72
2, 48732, Note_on_c, 0, 70, 0
2, 48732, Note_on_c, 0, 75, 72
2, 48744, Note_on_c, 0, 75, 0
2, 48744, Note_on_c, 0, 68, 72
2, 48756, Note_on_c, 0, 68, 0
2, 48756, Note_on_c, 0, 75, 72
2, 48768, Note_on_c, 0, 75, 0
2, 48768, Note_on_c, 0, 67, 73
2, 48780, Note_on_c, 0, 67, 0
2, 48780, Note_on_c, 0, 75, 73
2, 48792, Note_on_c, 0, 75, 0
2, 48792, Note_on_c, 0, 68, 73
2, 48804, Note_on_c, 0, 68, 0
2, 48804, Note_on_c, 0, 75, 74
2, 48816, Note_on_c, 0, 75, 0
2, 48816, Note_on_c, 0, 67, 74
2, 48828, Note_on_c, 0, 67, 0
2, 48828, Note_on_c, 0, 75, 74
2, 48840, Note_on_c, 0, 75, 0
2, 48840, Note_on_c, 0, 65, 74
2, 48852, Note_on_c, 0, 65, 0
2, 48852, Note_on_c, 0, 75, 75
2, 48864, Note_on_c, 0, 75, 0
2, 48864, Note_on_c, 0, 63, 75
2, 48876, Note_on_c, 0, 63, 0
2, 48876, Note_on_c, 0, 75, 75
2, 48888, Note_on_c, 0, 75, 0
2, 48888, Note_on_c, 0, 65, 76
2, 48900, Note_on_c, 0, 65, 0
2, 48900, Note_on_c, 0, 75, 76
2, 48912, Note_on_c, 0, 75, 0
2, 48912, Note_on_c, 0, 63, 76
2, 48924, Note_on_c, 0, 63, 0
2, 48924, Note_on_c, 0, 75, 76
2, 48936, Note_on_c, 0, 75, 0
2, 48936, Note_on_c, 0, 61, 77
2, 48948, Note_on_c, 0, 61, 0
2, 48948, Note_on_c, 0, 75, 77
2, 48960, Note_on_c, 0, 75, 0
2, 48960, Note_on_c, 0, 60, 77
2, 48983, Note_on_c, 0, 60, 0
2, 48984, Note_on_c, 0, 62, 78
2, 48996, Note_on_c, 0, 62, 0
2, 48996, Note_on_c, 0, 64, 78
2, 49008, Note_on_c, 0, 64, 0
2, 49008, Note_on_c, 0, 65, 78
2, 49020, Note_on_c, 0, 65, 0
2, 49020, Note_on_c, 0, 67, 79
2, 49032, Note_on_c, 0, 67, 0
2, 49032, Note_on_c, 0, 68, 79
2, 49044, Note_on_c, 0, 68, 0
2, 49044, Note_on_c, 0, 70, 79
2, 49056, Note_on_c, 0, 70, 0
2, 49056, Note_on_c, 0, 72, 80
2, 49090, Note_on_c, 0, 72, 0
2, 49092, Note_on_c, 0, 67, 80
2, 49104, Note_on_c, 0, 67, 0
2, 49104, Note_on_c, 0, 68, 80
2, 49138, Note_on_c, 0, 68, 0
2, 49140, Note_on_c, 0, 64, 80
2, 49152, Note_on_c, 0, 64, 0
2, 49152, Note_on_c, 0, 65, 80
2, 49186, Note_on_c, 0, 65, 0
2, 49188, Note_on_c, 0, 67, 80
2, 49194, Note_on_c, 0, 67, 0
2, 49194, Note_on_c, 0, 68, 80
2, 49200, Note_on_c, 0, 68, 0
2, 49200, Note_on_c, 0, 70, 80
2, 49206, Note_on_c, 0, 70, 0
2, 49206, Note_on_c, 0, 72, 80
2, 49212, Note_on_c, 0, 72, 0
2, 49212, Note_on_c, 0, 74, 80
2, 49218, Note_on_c, 0, 74, 0
2, 49218, Note_on_c, 0, 76, 80
2, 49224, Note_on_c, 0, 76, 0
2, 49224, Note_on_c, 0, 77, 80
2, 49230, Note_on_c, 0, 77, 0
2, 49230, Note_on_c, 0, 79, 80
2, 49236, Note_on_c, 0, 79, 0
2, 49236, Note_on_c, 0, 80, 80
2, 49242, Note_on_c, 0, 80, 0
2, 49242, Note_on_c, 0, 82, 80
2, 49248, Note_on_c, 0, 82, 0
2, 49248, Note_on_c, 0, 84, 80
2, 49282, Note_on_c, 0, 84, 0
2, 49284, Note_on_c, 0, 79, 80
2, 49296, Note_on_c, 0, 79, 0
2, 49296, Note_on_c, 0, 82, 80
2, 49308, Note_on_c, 0, 82, 0
2, 49308, Note_on_c, 0, 80, 80
2, 49320, Note_on_c, 0, 80, 0
2, 49320, Note_on_c, 0, 79, 80
2, 49332, Note_on_c, 0, 79, 0
2, 49332, Note_on_c, 0, 77, 78
2, 49344, Note_on_c, 0, 77, 0
2, 49344, Note_on_c, 0, 75, 77
2, 49440, Note_on_c, 0, 75, 0
2, 49440, Note_on_c, 0, 74, 68
2, 49485, Note_on_c, 0, 74, 0
2, 49536, Note_on_c, 0, 63, 75
2, 49536, Note_on_c, 0, 55, 75
2, 49559, Note_on_c, 0, 63, 0
2, 49559, Note_on_c, 0, 55, 0
2, 49560, Note_on_c, 0, 58, 75
2, 49568, Note_on_c, 0, 58, 0
2, 49568, Note_on_c, 0, 60, 75
2, 49576, Note_on_c, 0, 60, 0
2, 49576, Note_on_c, 0, 58, 75
2, 49584, Note_on_c, 0, 58, 0
2, 49584, Note_on_c, 0, 63, 75
2, 49607, Note_on_c, 0, 63, 0
2, 49608, Note_on_c, 0, 55, 75
2, 49620, Note_on_c, 0, 55, 0
2, 49620, Note_on_c, 0, 63, 75
2, 49632, Note_on_c, 0, 63, 0
2, 49632, Note_on_c, 0, 56, 75
2, 49644, Note_on_c, 0, 56, 0
2, 49644, Note_on_c, 0, 63, 75
2, 49656, Note_on_c, 0, 63, 0
2, 49656, Note_on_c, 0, 55, 75
2, 49668, Note_on_c, 0, 55, 0
2, 49668, Note_on_c, 0, 63, 75
2, 49680, Note_on_c, 0, 63, 0
2, 49680, Note_on_c, 0, 56, 75
2, 49692, Note_on_c, 0, 56, 0
2, 49692, Note_on_c, 0, 63, 75
2, 49704, Note_on_c, 0, 63, 0
2, 49704, Note_on_c, 0, 58, 75
2, 49716, Note_on_c, 0, 58, 0
2, 49716, Note_on_c, 0, 63, 75
2, 49728, Note_on_c, 0, 63, 0
2, 49728, Note_on_c, 0, 60, 75
2, 49751, Note_on_c, 0, 60, 0
2, 49752, Note_on_c, 0, 68, 75
2, 49752, Note_on_c, 0, 60, 75
2, 49775, Note_on_c, 0, 68, 0
2, 49775, Note_on_c, 0, 60, 0
2, 49776, Note_on_c, 0, 68, 75
2, 49776, Note_on_c, 0, 60, 75
2, 49799, Note_on_c, 0, 68, 0
2, 49799, Note_on_c, 0, 60, 0
2, 49800, Note_on_c, 0, 68, 75
2, 49800, Note_on_c, 0, 60, 75
2, 49823, Note_on_c, 0, 68, 0
2, 49823, Note_on_c, 0, 60, 0
2, 49824, Note_on_c, 0, 68, 75
2, 49824, Note_on_c, 0, 60, 75
2, 49848, Note_on_c, 0, 68, 0
2, 49848, Note_on_c, 0, 60, 0
2, 49848, Note_on_c, 0, 67, 75
2, 49848, Note_on_c, 0, 58, 75
2, 49871, Note_on_c, 0, 67, 0
2, 49871, Note_on_c, 0, 58, 0
2, 49872, Note_on_c, 0, 67, 75
2, 49872, Note_on_c, 0, 58, 75
2, 49896, Note_on_c, 0, 67, 0
2, 49896, Note_on_c, 0, 58, 0
2, 49896, Note_on_c, 0, 65, 75
2, 49896, Note_on_c, 0, 56, 75
2, 49919, Note_on_c, 0, 65, 0
2, 49919, Note_on_c, 0, 56, 0
2, 49920, Note_on_c, 0, 63, 75
2, 49920, Note_on_c, 0, 55, 75
2, 49943, Note_on_c, 0, 63, 0
2, 49943, Note_on_c, 0, 55, 0
2, 49944, Note_on_c, 0, 58, 75
2, 49952, Note_on_c, 0, 58, 0
2, 49952, Note_on_c, 0, 60, 75
2, 49960, Note_on_c, 0, 60, 0
2, 49960, Note_on_c, 0, 58, 75
2, 49968, Note_on_c, 0, 58, 0
2, 49968, Note_on_c, 0, 63, 75
2, 49991, Note_on_c, 0, 63, 0
2, 49992, Note_on_c, 0, 55, 75
2, 50004, Note_on_c, 0, 55, 0
2, 50004, Note_on_c, 0, 63, 75
2, 50016, Note_on_c, 0, 63, 0
2, 50016, Note_on_c, 0, 56, 75
2, 50028, Note_on_c, 0, 56, 0
2, 50028, Note_on_c, 0, 63, 75
2, 50040, Note_on_c, 0, 63, 0
2, 50040, Note_on_c, 0, 55, 75
2, 50052, Note_on_c, 0, 55, 0
2, 50052, Note_on_c, 0, 63, 75
2, 50064, Note_on_c, 0, 63, 0
2, 50064, Note_on_c, 0, 56, 75
2, 50076, Note_on_c, 0, 56, 0
2, 50076, Note_on_c, 0, 63, 75
2, 50088, Note_on_c, 0, 63, 0
2, 50088, Note_on_c, 0, 58, 75
2, 50100, Note_on_c, 0, 58, 0
2, 50100, Note_on_c, 0, 63, 75
2, 50112, Note_on_c, 0, 63, 0
2, 50112, Note_on_c, 0, 60, 75
2, 50135, Note_on_c, 0, 60, 0
2, 50136, Note_on_c, 0, 72, 75
2, 50136, Note_on_c, 0, 68, 75
2, 50159, Note_on_c, 0, 72, 0
2, 50159, Note_on_c, 0, 68, 0
2, 50160, Note_on_c, 0, 72, 75
2, 50160, Note_on_c, 0, 68, 75
2, 50183, Note_on_c, 0, 72, 0
2, 50183, Note_on_c, 0, 68, 0
2, 50184, Note_on_c, 0, 72, 75
2, 50184, Note_on_c, 0, 68, 75
2, 50207, Note_on_c, 0, 72, 0
2, 50207, Note_on_c, 0, 68, 0
2, 50208, Note_on_c, 0, 72, 75
2, 50208, Note_on_c, 0, 68, 75
2, 50232, Note_on_c, 0, 72, 0
2, 50232, Note_on_c, 0, 68, 0
2, 50232, Note_on_c, 0, 70, 75
2, 50232, Note_on_c, 0, 67, 75
2, 50255, Note_on_c, 0, 70, 0
2, 50255, Note_on_c, 0, 67, 0
2, 50256, Note_on_c, 0, 70, 75
2, 50256, Note_on_c, 0, 67, 75
2, 50280, Note_on_c, 0, 70, 0
2, 50280, Note_on_c, 0, 67, 0
2, 50280, Note_on_c, 0, 68, 75
2, 50280, Note_on_c, 0, 65, 75
2, 50303, Note_on_c, 0, 68, 0
2, 50303, Note_on_c, 0, 65, 0
2, 50304, Note_on_c, 0, 67, 75
2, 50304, Note_on_c, 0, 63, 75
2, 50327, Note_on_c, 0, 67, 0
2, 50327, Note_on_c, 0, 63, 0
2, 50328, Note_on_c, 0, 70, 75
2, 50336, Note_on_c, 0, 70, 0
2, 50336, Note_on_c, 0, 72, 75
2, 50344, Note_on_c, 0, 72, 0
2, 50344, Note_on_c, 0, 70, 75
2, 50352, Note_on_c, 0, 70, 0
2, 50352, Note_on_c, 0, 75, 75
2, 50375, Note_on_c, 0, 75, 0
2, 50376, Note_on_c, 0, 70, 75
2, 50388, Note_on_c, 0, 70, 0
2, 50388, Note_on_c, 0, 75, 75
2, 50400, Note_on_c, 0, 75, 0
2, 50400, Note_on_c, 0, 72, 75
2, 50412, Note_on_c, 0, 72, 0
2, 50412, Note_on_c, 0, 75, 75
2, 50424, Note_on_c, 0, 75, 0
2, 50424, Note_on_c, 0, 70, 75
2, 50436, Note_on_c, 0, 70, 0
2, 50436, Note_on_c, 0, 75, 75
2, 50448, Note_on_c, 0, 75, 0
2, 50448, Note_on_c, 0, 72, 75
2, 50460, Note_on_c, 0, 72, 0
2, 50460, Note_on_c, 0, 75, 75
2, 50472, Note_on_c, 0, 75, 0
2, 50472, Note_on_c, 0, 73, 75
2, 50484, Note_on_c, 0, 73, 0
2, 50484, Note_on_c, 0, 75, 75
2, 50496, Note_on_c, 0, 75, 0
2, 50496, Note_on_c, 0, 72, 75
2, 50519, Note_on_c, 0, 72, 0
2, 50520, Note_on_c, 0, 80, 75
2, 50530, Note_on_c, 0, 80, 0
2, 50544, Note_on_c, 0, 80, 75
2, 50554, Note_on_c, 0, 80, 0
2, 50568, Note_on_c, 0, 80, 75
2, 50578, Note_on_c, 0, 80, 0
2, 50592, Note_on_c, 0, 80, 75
2, 50604, Note_on_c, 0, 80, 0
2, 50604, Note_on_c, 0, 82, 75
2, 50616, Note_on_c, 0, 82, 0
2, 50616, Note_on_c, 0, 80, 75
2, 50628, Note_on_c, 0, 80, 0
2, 50628, Note_on_c, 0, 79, 75
2, 50640, Note_on_c, 0, 79, 0
2, 50640, Note_on_c, 0, 77, 75
2, 50652, Note_on_c, 0, 77, 0
2, 50652, Note_on_c, 0, 75, 75
2, 50664, Note_on_c, 0, 75, 0
2, 50664, Note_on_c, 0, 74, 75
2, 50676, Note_on_c, 0, 74, 0
2, 50676, Note_on_c, 0, 72, 75
2, 50688, Note_on_c, 0, 72, 0
2, 50688, Note_on_c, 0, 70, 75
2, 50733, Note_on_c, 0, 70, 0
2, 50808, Note_on_c, 0, 79, 75
2, 50820, Note_on_c, 0, 79, 0
2, 50820, Note_on_c, 0, 77, 75
2, 50832, Note_on_c, 0, 77, 0
2, 50832, Note_on_c, 0, 75, 75
2, 50844, Note_on_c, 0, 75, 0
2, 50844, Note_on_c, 0, 74, 75
2, 50856, Note_on_c, 0, 74, 0
2, 50856, Note_on_c, 0, 72, 75
2, 50868, Note_on_c, 0, 72, 0
2, 50868, Note_on_c, 0, 70, 75
2, 50880, Note_on_c, 0, 70, 0
2, 50880, Note_on_c, 0, 68, 75
2, 50925, Note_on_c, 0, 68, 0
2, 51000, Note_on_c, 0, 77, 75
2, 51012, Note_on_c, 0, 77, 0
2, 51012, Note_on_c, 0, 75, 75
2, 51024, Note_on_c, 0, 75, 0
2, 51024, Note_on_c, 0, 74, 75
2, 51036, Note_on_c, 0, 74, 0
2, 51036, Note_on_c, 0, 72, 75
2, 51048, Note_on_c, 0, 72, 0
2, 51048, Note_on_c, 0, 70, 75
2, 51060, Note_on_c, 0, 70, 0
2, 51060, Note_on_c, 0, 68, 75
2, 51072, Note_on_c, 0, 68, 0
2, 51072, Note_on_c, 0, 67, 75
2, 51117, Note_on_c, 0, 67, 0
2, 51192, Note_on_c, 0, 75, 75
2, 51204, Note_on_c, 0, 75, 0
2, 51204, Note_on_c, 0, 74, 75
2, 51216, Note_on_c, 0, 74, 0
2, 51216, Note_on_c, 0, 72, 75
2, 51228, Note_on_c, 0, 72, 0
2, 51228, Note_on_c, 0, 70, 75
2, 51240, Note_on_c, 0, 70, 0
2, 51240, Note_on_c, 0, 68, 75
2, 51252, Note_on_c, 0, 68, 0
2, 51252, Note_on_c, 0, 67, 75
2, 51264, Note_on_c, 0, 67, 0
2, 51264, Note_on_c, 0, 65, 75
2, 51309, Note_on_c, 0, 65, 0
2, 51336, Note_on_c, 0, 75, 75
2, 51360, Note_on_c, 0, 75, 0
2, 51360, Note_on_c, 0, 67, 75
2, 51383, Note_on_c, 0, 67, 0
2, 51432, Note_on_c, 0, 75, 76
2, 51456, Note_on_c, 0, 75, 0
2, 51456, Note_on_c, 0, 68, 77
2, 51479, Note_on_c, 0, 68, 0
2, 51528, Note_on_c, 0, 75, 78
2, 51552, Note_on_c, 0, 75, 0
2, 51552, Note_on_c, 0, 67, 78
2, 51575, Note_on_c, 0, 67, 0
2, 51624, Note_on_c, 0, 75, 79
2, 51647, Note_on_c, 0, 75, 0
2, 51648, Note_on_c, 0, 65, 79
2, 51660, Note_on_c, 0, 65, 0
2, 51660, Note_on_c, 0, 75, 80
2, 51672, Note_on_c, 0, 75, 0
2, 51672, Note_on_c, 0, 66, 80
2, 51684, Note_on_c, 0, 66, 0
2, 51684, Note_on_c, 0, 75, 80
2, 51696, Note_on_c, 0, 75, 0
2, 51696, Note_on_c, 0, 65, 80
2, 51708, Note_on_c, 0, 65, 0
2, 51708, Note_on_c, 0, 75, 80
2, 51720, Note_on_c, 0, 75, 0
2, 51720, Note_on_c, 0, 66, 80
2, 51732, Note_on_c, 0, 66, 0
2, 51732, Note_on_c, 0, 75, 80
2, 51744, Note_on_c, 0, 75, 0
2, 51744, Note_on_c, 0, 65, 80
2, 51767, Note_on_c, 0, 65, 0
2, 51768, Note_on_c, 0, 75, 80
2, 51791, Note_on_c, 0, 75, 0
2, 51792, Note_on_c, 0, 75, 80
2, 51815, Note_on_c, 0, 75, 0
2, 51816, Note_on_c, 0, 75, 80
2, 51839, Note_on_c, 0, 75, 0
2, 51840, Note_on_c, 0, 75, 80
2, 51852, Note_on_c, 0, 75, 0
2, 51852, Note_on_c, 0, 74, 79
2, 51864, Note_on_c, 0, 74, 0
2, 51864, Note_on_c, 0, 72, 78
2, 51876, Note_on_c, 0, 72, 0
2, 51876, Note_on_c, 0, 70, 78
2, 51888, Note_on_c, 0, 70, 0
2, 51888, Note_on_c, 0, 70, 77
2, 51898, Note_on_c, 0, 70, 0
2, 51912, Note_on_c, 0, 75, 76
2, 51935, Note_on_c, 0, 75, 0
2, 51936, Note_on_c, 0, 75, 74
2, 51948, Note_on_c, 0, 75, 0
2, 51948, Note_on_c, 0, 74, 74
2, 51960, Note_on_c, 0, 74, 0
2, 51960, Note_on_c, 0, 72, 73
2, 51972, Note_on_c, 0, 72, 0
2, 51972, Note_on_c, 0, 70, 72
2, 51984, Note_on_c, 0, 70, 0
2, 51984, Note_on_c, 0, 70, 72
2, 51994, Note_on_c, 0, 70, 0
2, 52008, Note_on_c, 0, 75, 70
2, 52031, Note_on_c, 0, 75, 0
2, 52032, Note_on_c, 0, 75, 69
2, 52044, Note_on_c, 0, 75, 0
2, 52044, Note_on_c, 0, 74, 68
2, 52056, Note_on_c, 0, 74, 0
2, 52056, Note_on_c, 0, 72, 68
2, 52068, Note_on_c, 0, 72, 0
2, 52068, Note_on_c, 0, 70, 67
2, 52080, Note_on_c, 0, 70, 0
2, 52080, Note_on_c, 0, 70, 66
2, 52100, Note_on_c, 0, 70, 0
2, 52224, Note_on_c, 0, 63, 75
2, 52224, Note_on_c, 0, 55, 75
2, 52291, Note_on_c, 0, 63, 0
2, 52291, Note_on_c, 0, 55, 0
2, 52296, Note_on_c, 0, 68, 75
2, 52296, Note_on_c, 0, 60, 75
2, 52319, Note_on_c, 0, 68, 0
2, 52319, Note_on_c, 0, 60, 0
2, 52320, Note_on_c, 0, 68, 75
2, 52320, Note_on_c, 0, 60, 75
2, 52344, Note_on_c, 0, 68, 0
2, 52344, Note_on_c, 0, 60, 0
2, 52344, Note_on_c, 0, 67, 75
2, 52344, Note_on_c, 0, 58, 75
2, 52367, Note_on_c, 0, 67, 0
2, 52367, Note_on_c, 0, 58, 0
2, 52368, Note_on_c, 0, 67, 75
2, 52368, Note_on_c, 0, 58, 75
2, 52392, Note_on_c, 0, 67, 0
2, 52392, Note_on_c, 0, 58, 0
2, 52392, Note_on_c, 0, 65, 75
2, 52392, Note_on_c, 0, 56, 75
2, 52415, Note_on_c, 0, 65, 0
2, 52415, Note_on_c, 0, 56, 0
2, 52416, Note_on_c, 0, 63, 75
2, 52416, Note_on_c, 0, 55, 75
2, 52483, Note_on_c, 0, 63, 0
2, 52483, Note_on_c, 0, 55, 0
2, 52488, Note_on_c, 0, 72, 75
2, 52488, Note_on_c, 0, 68, 75
2, 52511, Note_on_c, 0, 72, 0
2, 52511, Note_on_c, 0, 68, 0
2, 52512, Note_on_c, 0, 72, 75
2, 52512, Note_on_c, 0, 68, 75
2, 52536, Note_on_c, 0, 72, 0
2, 52536, Note_on_c, 0, 68, 0
2, 52536, Note_on_c, 0, 70, 75
2, 52536, Note_on_c, 0, 67, 75
2, 52559, Note_on_c, 0, 70, 0
2, 52559, Note_on_c, 0, 67, 0
2, 52560, Note_on_c, 0, 70, 75
2, 52560, Note_on_c, 0, 67, 75
2, 52584, Note_on_c, 0, 70, 0
2, 52584, Note_on_c, 0, 67, 0
2, 52584, Note_on_c, 0, 68, 75
2, 52584, Note_on_c, 0, 65, 75
2, 52607, Note_on_c, 0, 68, 0
2, 52607, Note_on_c, 0, 65, 0
2, 52608, Note_on_c, 0, 67, 75
2, 52608, Note_on_c, 0, 63, 75
2, 52675, Note_on_c, 0, 67, 0
2, 52675, Note_on_c, 0, 63, 0
2, 52680, Note_on_c, 0, 75, 75
2, 52680, Note_on_c, 0, 72, 75
2, 52703, Note_on_c, 0, 75, 0
2, 52703, Note_on_c, 0, 72, 0
2, 52704, Note_on_c, 0, 75, 75
2, 52704, Note_on_c, 0, 72, 75
2, 52728, Note_on_c, 0, 75, 0
2, 52728, Note_on_c, 0, 72, 0
2, 52728, Note_on_c, 0, 74, 75
2, 52728, Note_on_c, 0, 70, 75
2, 52751, Note_on_c, 0, 74, 0
2, 52751, Note_on_c, 0, 70, 0
2, 52752, Note_on_c, 0, 74, 75
2, 52752, Note_on_c, 0, 70, 75
2, 52776, Note_on_c, 0, 74, 0
2, 52776, Note_on_c, 0, 70, 0
2, 52776, Note_on_c, 0, 72, 75
2, 52776, Note_on_c, 0, 68, 75
2, 52799, Note_on_c, 0, 72, 0
2, 52799, Note_on_c, 0, 68, 0
2, 52800, Note_on_c, 0, 70, 75
2, 52800, Note_on_c, 0, 67, 75
2, 52889, Note_on_c, 0, 70, 0
2, 52889, Note_on_c, 0, 67, 0
2, 52896, Note_on_c, 0, 55, 77
2, 52900, Note_on_c, 0, 58, 77
2, 52904, Note_on_c, 0, 61, 77
2, 52908, Note_on_c, 0, 64, 77
2, 52912, Note_on_c, 0, 67, 77
2, 52916, Note_on_c, 0, 70, 77
2, 52920, Note_on_c, 0, 73, 77
2, 52924, Note_on_c, 0, 76, 77
2, 52985, Note_on_c, 0, 76, 0
2, 52985, Note_on_c, 0, 73, 0
2, 52985, Note_on_c, 0, 70, 0
2, 52985, Note_on_c, 0, 67, 0
2, 52985, Note_on_c, 0, 64, 0
2, 52985, Note_on_c, 0, 61, 0
2, 52985, Note_on_c, 0, 58, 0
2, 52985, Note_on_c, 0, 55, 0
2, 52992, Note_on_c, 0, 65, 80
2, 53026, Note_on_c, 0, 65, 0
2, 53028, Note_on_c, 0, 67, 82
2, 53034, Note_on_c, 0, 67, 0
2, 53034, Note_on_c, 0, 68, 82
2, 53040, Note_on_c, 0, 68, 0
2, 53040, Note_on_c, 0, 70, 83
2, 53046, Note_on_c, 0, 70, 0
2, 53046, Note_on_c, 0, 72, 83
2, 53052, Note_on_c, 0, 72, 0
2, 53052, Note_on_c, 0, 74, 83
2, 53058, Note_on_c, 0, 74, 0
2, 53058, Note_on_c, 0, 76, 84
2, 53064, Note_on_c, 0, 76, 0
2, 53064, Note_on_c, 0, 77, 84
2, 53070, Note_on_c, 0, 77, 0
2, 53070, Note_on_c, 0, 79, 84
2, 53076, Note_on_c, 0, 79, 0
2, 53076, Note_on_c, 0, 80, 85
2, 53082, Note_on_c, 0, 80, 0
2, 53082, Note_on_c, 0, 82, 85
2, 53088, Note_on_c, 0, 82, 0
2, 53088, Note_on_c, 0, 84, 86
2, 53133, Note_on_c, 0, 84, 0
2, 53160, Note_on_c, 0, 72, 80
2, 53168, Note_on_c, 0, 72, 0
2, 53168, Note_on_c, 0, 68, 79
2, 53176, Note_on_c, 0, 68, 0
2, 53176, Note_on_c, 0, 65, 79
2, 53184, Note_on_c, 0, 65, 0
2, 53184, Note_on_c, 0, 63, 78
2, 53317, Note_on_c, 0, 63, 0
2, 53328, Note_on_c, 0, 67, 70
2, 53334, Note_on_c, 0, 67, 0
2, 53334, Note_on_c, 0, 65, 70
2, 53351, Note_on_c, 0, 65, 0
2, 53352, Note_on_c, 0, 63, 68
2, 53375, Note_on_c, 0, 63, 0
2, 53376, Note_on_c, 0, 63, 67
2, 53423, Note_on_c, 0, 63, 0
2, 53448, Note_on_c, 0, 55, 80
2, 53460, Note_on_c, 0, 55, 0
2, 53460, Note_on_c, 0, 63, 80
2, 53472, Note_on_c, 0, 63, 0
2, 53472, Note_on_c, 0, 56, 80
2, 53484, Note_on_c, 0, 56, 0
2, 53484, Note_on_c, 0, 63, 80
2, 53496, Note_on_c, 0, 63, 0
2, 53496, Note_on_c, 0, 55, 80
2, 53508, Note_on_c, 0, 55, 0
2, 53508, Note_on_c, 0, 63, 81
2, 53520, Note_on_c, 0, 63, 0
2, 53520, Note_on_c, 0, 56, 81
2, 53532, Note_on_c, 0, 56, 0
2, 53532, Note_on_c, 0, 63, 82
2, 53544, Note_on_c, 0, 63, 0
2, 53544, Note_on_c, 0, 57, 82
2, 53556, Note_on_c, 0, 57, 0
2, 53556, Note_on_c, 0, 63, 82
2, 53568, Note_on_c, 0, 63, 0
2, 53568, Note_on_c, 0, 58, 83
2, 53580, Note_on_c, 0, 58, 0
2, 53580, Note_on_c, 0, 63, 83
2, 53592, Note_on_c, 0, 63, 0
2, 53592, Note_on_c, 0, 57, 84
2, 53604, Note_on_c, 0, 57, 0
2, 53604, Note_on_c, 0, 63, 84
2, 53616, Note_on_c, 0, 63, 0
2, 53616, Note_on_c, 0, 58, 84
2, 53628, Note_on_c, 0, 58, 0
2, 53628, Note_on_c, 0, 63, 85
2, 53640, Note_on_c, 0, 63, 0
2, 53640, Note_on_c, 0, 55, 85
2, 53652, Note_on_c, 0, 55, 0
2, 53652, Note_on_c, 0, 63, 86
2, 53664, Note_on_c, 0, 63, 0
2, 53664, Note_on_c, 0, 56, 84
2, 53676, Note_on_c, 0, 56, 0
2, 53676, Note_on_c, 0, 63, 83
2, 53688, Note_on_c, 0, 63, 0
2, 53688, Note_on_c, 0, 57, 82
2, 53700, Note_on_c, 0, 57, 0
2, 53700, Note_on_c, 0, 63, 81
2, 53712, Note_on_c, 0, 63, 0
2, 53712, Note_on_c, 0, 58, 80
2, 53724, Note_on_c, 0, 58, 0
2, 53724, Note_on_c, 0, 63, 79
2, 53736, Note_on_c, 0, 63, 0
2, 53736, Note_on_c, 0, 59, 78
2, 53748, Note_on_c, 0, 59, 0
2, 53748, Note_on_c, 0, 63, 77
2, 53760, Note_on_c, 0, 63, 0
2, 53760, Note_on_c, 0, 60, 76
2, 53772, Note_on_c, 0, 60, 0
2, 53772, Note_on_c, 0, 63, 75
2, 53784, Note_on_c, 0, 63, 0
2, 53784, Note_on_c, 0, 59, 74
2, 53796, Note_on_c, 0, 59, 0
2, 53796, Note_on_c, 0, 63, 73
2, 53808, Note_on_c, 0, 63, 0
2, 53808, Note_on_c, 0, 60, 72
2, 53831, Note_on_c, 0, 60, 0
2, 53832, Note_on_c, 0, 72, 70
2, 53832, Note_on_c, 0, 68, 70
2, 53855, Note_on_c, 0, 72, 0
2, 53855, Note_on_c, 0, 68, 0
2, 53856, Note_on_c, 0, 72, 70
2, 53856, Note_on_c, 0, 68, 70
2, 53880, Note_on_c, 0, 72, 0
2, 53880, Note_on_c, 0, 68, 0
2, 53880, Note_on_c, 0, 70, 70
2, 53880, Note_on_c, 0, 67, 70
2, 53903, Note_on_c, 0, 70, 0
2, 53903, Note_on_c, 0, 67, 0
2, 53928, Note_on_c, 0, 62, 70
2, 53928, Note_on_c, 0, 56, 70
2, 53951, Note_on_c, 0, 62, 0
2, 53951, Note_on_c, 0, 56, 0
2, 53952, Note_on_c, 0, 62, 70
2, 53952, Note_on_c, 0, 56, 70
2, 53976, Note_on_c, 0, 62, 0
2, 53976, Note_on_c, 0, 56, 0
2, 53976, Note_on_c, 0, 63, 70
2, 53976, Note_on_c, 0, 55, 70
2, 53999, Note_on_c, 0, 63, 0
2, 53999, Note_on_c, 0, 55, 0
2, 54024, Note_on_c, 0, 72, 70
2, 54024, Note_on_c, 0, 68, 70
2, 54047, Note_on_c, 0, 72, 0
2, 54047, Note_on_c, 0, 68, 0
2, 54048, Note_on_c, 0, 72, 70
2, 54048, Note_on_c, 0, 68, 70
2, 54072, Note_on_c, 0, 72, 0
2, 54072, Note_on_c, 0, 68, 0
2, 54072, Note_on_c, 0, 70, 70
2, 54072, Note_on_c, 0, 67, 70
2, 54095, Note_on_c, 0, 70, 0
2, 54095, Note_on_c, 0, 67, 0
2, 54120, Note_on_c, 0, 62, 75
2, 54120, Note_on_c, 0, 56, 75
2, 54143, Note_on_c, 0, 62, 0
2, 54143, Note_on_c, 0, 56, 0
2, 54144, Note_on_c, 0, 63, 75
2, 54156, Note_on_c, 0, 63, 0
2, 54156, Note_on_c, 0, 70, 75
2, 54168, Note_on_c, 0, 70, 0
2, 54168, Note_on_c, 0, 67, 75
2, 54180, Note_on_c, 0, 67, 0
2, 54180, Note_on_c, 0, 63, 75
2, 54192, Note_on_c, 0, 63, 0
2, 54192, Note_on_c, 0, 58, 75
2, 54204, Note_on_c, 0, 58, 0
2, 54204, Note_on_c, 0, 68, 75
2, 54216, Note_on_c, 0, 68, 0
2, 54216, Note_on_c, 0, 65, 75
2, 54228, Note_on_c, 0, 65, 0
2, 54228, Note_on_c, 0, 62, 75
2, 54240, Note_on_c, 0, 62, 0
2, 54240, Note_on_c, 0, 63, 75
2, 54252, Note_on_c, 0, 63, 0
2, 54252, Note_on_c, 0, 70, 75
2, 54264, Note_on_c, 0, 70, 0
2, 54264, Note_on_c, 0, 67, 75
2, 54276, Note_on_c, 0, 67, 0
2, 54276, Note_on_c, 0, 63, 75
2, 54288, Note_on_c, 0, 63, 0
2, 54288, Note_on_c, 0, 58, 75
2, 54300, Note_on_c, 0, 58, 0
2, 54300, Note_on_c, 0, 68, 75
2, 54312, Note_on_c, 0, 68, 0
2, 54312, Note_on_c, 0, 65, 75
2, 54324, Note_on_c, 0, 65, 0
2, 54324, Note_on_c, 0, 62, 75
2, 54336, Note_on_c, 0, 62, 0
2, 54336, Note_on_c, 0, 63, 75
2, 54381, Note_on_c, 0, 63, 0
2, 54384, Note_on_c, 0, 79, 75
2, 54384, Note_on_c, 0, 75, 75
2, 54429, Note_on_c, 0, 79, 0
2, 54429, Note_on_c, 0, 75, 0
2, 54528, End_track
3, 0, Start_track
3, 0, Program_c, 0, 0
3, 0, Control_c, 0, 7, 127
3, 0, Control_c, 0, 10, 64
3, 23232, Note_on_c, 0, 69, 80
3, 23255, Note_on_c, 0, 69, 0
3, 23256, Note_on_c, 0, 70, 80
3, 23279, Note_on_c, 0, 70, 0
3, 23280, Note_on_c, 0, 69, 80
3, 23303, Note_on_c, 0, 69, 0
3, 23304, Note_on_c, 0, 70, 80
3, 23327, Note_on_c, 0, 70, 0
3, 23328, Note_on_c, 0, 69, 80
3, 23351, Note_on_c, 0, 69, 0
3, 23352, Note_on_c, 0, 75, 80
3, 23375, Note_on_c, 0, 75, 0
3, 23376, Note_on_c, 0, 73, 80
3, 23399, Note_on_c, 0, 73, 0
3, 23400, Note_on_c, 0, 72, 80
3, 23423, Note_on_c, 0, 72, 0
3, 23424, Note_on_c, 0, 68, 80
3, 23543, Note_on_c, 0, 68, 0
3, 23544, Note_on_c, 0, 80, 80
3, 23567, Note_on_c, 0, 80, 0
3, 23568, Note_on_c, 0, 79, 80
3, 23591, Note_on_c, 0, 79, 0
3, 23592, Note_on_c, 0, 77, 80
3, 23615, Note_on_c, 0, 77, 0
3, 23616, Note_on_c, 0, 75, 80
3, 23735, Note_on_c, 0, 75, 0
3, 23736, Note_on_c, 0, 73, 80
3, 23759, Note_on_c, 0, 73, 0
3, 23760, Note_on_c, 0, 72, 80
3, 23783, Note_on_c, 0, 72, 0
3, 23784, Note_on_c, 0, 70, 80
3, 23807, Note_on_c, 0, 70, 0
3, 40128, Note_on_c, 0, 69, 80
3, 40151, Note_on_c, 0, 69, 0
3, 40152, Note_on_c, 0, 70, 80
3, 40175, Note_on_c, 0, 70, 0
3, 40176, Note_on_c, 0, 69, 80
3, 40199, Note_on_c, 0, 69, 0
3, 40200, Note_on_c, 0, 70, 80
3, 40223, Note_on_c, 0, 70, 0
3, 40224, Note_on_c, 0, 69, 80
3, 40247, Note_on_c, 0, 69, 0
3, 40248, Note_on_c, 0, 75, 80
3, 40271, Note_on_c, 0, 75, 0
3, 40272, Note_on_c, 0, 73, 80
3, 40295, Note_on_c, 0, 73, 0
3, 40296, Note_on_c, 0, 72, 80
3, 40319, Note_on_c, 0, 72, 0
3, 40320, Note_on_c, 0, 68, 80
3, 40439, Note_on_c, 0, 68, 0
3, 40440, Note_on_c, 0, 80, 80
3, 40463, Note_on_c, 0, 80, 0
3, 40464, Note_on_c, 0, 79, 80
3, 40487, Note_on_c, 0, 79, 0
3, 40488, Note_on_c, 0, 77, 80
3, 40511, Note_on_c, 0, 77, 0
3, 40512, Note_on_c, 0, 75, 80
3, 40631, Note_on_c, 0, 75, 0
3, 40632, Note_on_c, 0, 73, 80
3, 40655, Note_on_c, 0, 73, 0
3, 40656, Note_on_c, 0, 72, 80
3, 40679, Note_on_c, 0, 72, 0
3, 40680, Note_on_c, 0, 70, 80
3, 40703, Note_on_c, 0, 70, 0
3, 54528, End_track
4, 0, Start_track
4, 0, Program_c, 1, 0
4, 0, Control_c, 1, 7, 127
4, 0, Control_c, 1, 10, 64
4, 0, Note_on_c, 1, 51, 64
4, 0, Note_on_c, 1, 39, 64
4, 177, Note_on_c, 1, 51, 0
4, 177, Note_on_c, 1, 39, 0
4, 192, Note_on_c, 1, 50, 64
4, 192, Note_on_c, 1, 38, 64
4, 369, Note_on_c, 1, 50, 0
4, 369, Note_on_c, 1, 38, 0
4, 384, Note_on_c, 1, 48, 64
4, 384, Note_on_c, 1, 36, 64
4, 423, Note_on_c, 1, 48, 0
4, 423, Note_on_c, 1, 36, 0
4, 480, Note_on_c, 1, 45, 64
4, 480, Note_on_c, 1, 33, 64
4, 519, Note_on_c, 1, 45, 0
4, 519, Note_on_c, 1, 33, 0
4, 576, Note_on_c, 1, 46, 64
4, 576, Note_on_c, 1, 34, 64
4, 615, Note_on_c, 1, 46, 0
4, 615, Note_on_c, 1, 34, 0
4, 672, Note_on_c, 1, 58, 64
4, 711, Note_on_c, 1, 58, 0
4, 804, Note_on_c, 1, 52, 64
4, 816, Note_on_c, 1, 52, 0
4, 816, Note_on_c, 1, 55, 64
4, 850, Note_on_c, 1, 55, 0
4, 852, Note_on_c, 1, 58, 64
4, 864, Note_on_c, 1, 58, 0
4, 864, Note_on_c, 1, 58, 64
4, 912, Note_on_c, 1, 58, 0
4, 912, Note_on_c, 1, 56, 64
4, 957, Note_on_c, 1, 56, 0
4, 996, Note_on_c, 1, 50, 64
4, 1008, Note_on_c, 1, 50, 0
4, 1008, Note_on_c, 1, 53, 64
4, 1042, Note_on_c, 1, 53, 0
4, 1044, Note_on_c, 1, 56, 64
4, 1056, Note_on_c, 1, 56, 0
4, 1056, Note_on_c, 1, 56, 64
4, 1104, Note_on_c, 1, 56, 0
4, 1104, Note_on_c, 1, 55, 64
4, 1149, Note_on_c, 1, 55, 0
4, 1200, Note_on_c, 1, 44, 64
4, 1245, Note_on_c, 1, 44, 0
4, 1296, Note_on_c, 1, 56, 64
4, 1296, Note_on_c, 1, 46, 64
4, 1341, Note_on_c, 1, 56, 0
4, 1341, Note_on_c, 1, 46, 0
4, 1344, Note_on_c, 1, 56, 64
4, 1344, Note_on_c, 1, 51, 64
4, 1440, Note_on_c, 1, 56, 0
4, 1440, Note_on_c, 1, 55, 64
4, 1485, Note_on_c, 1, 55, 0
4, 1485, Note_on_c, 1, 51, 0
4, 1572, Note_on_c, 1, 64, 64
4, 1584, Note_on_c, 1, 64, 0
4, 1584, Note_on_c, 1, 67, 64
4, 1618, Note_on_c, 1, 67, 0
4, 1620, Note_on_c, 1, 70, 64
4, 1632, Note_on_c, 1, 70, 0
4, 1632, Note_on_c, 1, 70, 64
4, 1680, Note_on_c, 1, 70, 0
4, 1680, Note_on_c, 1, 68, 64
4, 1725, Note_on_c, 1, 68, 0
4, 1764, Note_on_c, 1, 62, 64
4, 1776, Note_on_c, 1, 62, 0
4, 1776, Note_on_c, 1, 65, 64
4, 1810, Note_on_c, 1, 65, 0
4, 1812, Note_on_c, 1, 68, 64
4, 1824, Note_on_c, 1, 68, 0
4, 1824, Note_on_c, 1, 68, 64
4, 1872, Note_on_c, 1, 68, 0
4, 1872, Note_on_c, 1, 67, 64
4, 1917, Note_on_c, 1, 67, 0
4, 1944, Note_on_c, 1, 75, 64
4, 1967, Note_on_c, 1, 75, 0
4, 1968, Note_on_c, 1, 74, 65
4, 1991, Note_on_c, 1, 74, 0
4, 1992, Note_on_c, 1, 72, 66
4, 2015, Note_on_c, 1, 72, 0
4, 2016, Note_on_c, 1, 70, 67
4, 2039, Note_on_c, 1, 70, 0
4, 2040, Note_on_c, 1, 68, 68
4, 2063, Note_on_c, 1, 68, 0
4, 2064, Note_on_c, 1, 67, 69
4, 2087, Note_on_c, 1, 67, 0
4, 2088, Note_on_c, 1, 65, 70
4, 2111, Note_on_c, 1, 65, 0
4, 2112, Note_on_c, 1, 63, 71
4, 2201, Note_on_c, 1, 63, 0
4, 2304, Note_on_c, 1, 56, 75
4, 2393, Note_on_c, 1, 56, 0
4, 2592, Note_on_c, 1, 58, 75
4, 2612, Note_on_c, 1, 58, 0
4, 2688, Note_on_c, 1, 63, 58
4, 2711, Note_on_c, 1, 63, 0
4, 2712, Note_on_c, 1, 67, 58
4, 2735, Note_on_c, 1, 67, 0
4, 2736, Note_on_c, 1, 63, 58
4, 2759, Note_on_c, 1, 63, 0
4, 2760, Note_on_c, 1, 67, 58
4, 2783, Note_on_c, 1, 67, 0
4, 2784, Note_on_c, 1, 63, 58
4, 2807, Note_on_c, 1, 63, 0
4, 2808, Note_on_c, 1, 67, 58
4, 2831, Note_on_c, 1, 67, 0
4, 2832, Note_on_c, 1, 63, 58
4, 2855, Note_on_c, 1, 63, 0
4, 2856, Note_on_c, 1, 67, 58
4, 2879, Note_on_c, 1, 67, 0
4, 2880, Note_on_c, 1, 63, 58
4, 2903, Note_on_c, 1, 63, 0
4, 2904, Note_on_c, 1, 68, 58
4, 2927, Note_on_c, 1, 68, 0
4, 2928, Note_on_c, 1, 63, 58
4, 2951, Note_on_c, 1, 63, 0
4, 2952, Note_on_c, 1, 68, 58
4, 2975, Note_on_c, 1, 68, 0
4, 2976, Note_on_c, 1, 63, 58
4, 2999, Note_on_c, 1, 63, 0
4, 3000, Note_on_c, 1, 68, 58
4, 3023, Note_on_c, 1, 68, 0
4, 3024, Note_on_c, 1, 63, 58
4, 3047, Note_on_c, 1, 63, 0
4, 3048, Note_on_c, 1, 68, 58
4, 3071, Note_on_c, 1, 68, 0
4, 3072, Note_on_c, 1, 62, 58
4, 3095, Note_on_c, 1, 62, 0
4, 3096, Note_on_c, 1, 68, 58
4, 3119, Note_on_c, 1, 68, 0
4, 3120, Note_on_c, 1, 62, 58
4, 3143, Note_on_c, 1, 62, 0
4, 3144, Note_on_c, 1, 68, 58
4, 3167, Note_on_c, 1, 68, 0
4, 3168, Note_on_c, 1, 62, 58
4, 3191, Note_on_c, 1, 62, 0
4, 3192, Note_on_c, 1, 68, 58
4, 3215, Note_on_c, 1, 68, 0
4, 3216, Note_on_c, 1, 62, 58
4, 3239, Note_on_c, 1, 62, 0
4, 3240, Note_on_c, 1, 68, 58
4, 3263, Note_on_c, 1, 68, 0
4, 3264, Note_on_c, 1, 63, 58
4, 3287, Note_on_c, 1, 63, 0
4, 3288, Note_on_c, 1, 67, 58
4, 3311, Note_on_c, 1, 67, 0
4, 3312, Note_on_c, 1, 63, 58
4, 3335, Note_on_c, 1, 63, 0
4, 3336, Note_on_c, 1, 67, 58
4, 3359, Note_on_c, 1, 67, 0
4, 3360, Note_on_c, 1, 63, 58
4, 3383, Note_on_c, 1, 63, 0
4, 3384, Note_on_c, 1, 67, 58
4, 3407, Note_on_c, 1, 67, 0
4, 3408, Note_on_c, 1, 63, 58
4, 3431, Note_on_c, 1, 63, 0
4, 3432, Note_on_c, 1, 67, 58
4, 3455, Note_on_c, 1, 67, 0
4, 3456, Note_on_c, 1, 62, 58
4, 3479, Note_on_c, 1, 62, 0
4, 3480, Note_on_c, 1, 68, 58
4, 3503, Note_on_c, 1, 68, 0
4, 3504, Note_on_c, 1, 62, 58
4, 3527, Note_on_c, 1, 62, 0
4, 3528, Note_on_c, 1, 68, 58
4, 3551, Note_on_c, 1, 68, 0
4, 3552, Note_on_c, 1, 62, 58
4, 3575, Note_on_c, 1, 62, 0
4, 3576, Note_on_c, 1, 68, 58
4, 3599, Note_on_c, 1, 68, 0
4, 3600, Note_on_c, 1, 62, 58
4, 3623, Note_on_c, 1, 62, 0
4, 3624, Note_on_c, 1, 68, 58
4, 3647, Note_on_c, 1, 68, 0
4, 3648, Note_on_c, 1, 63, 58
4, 3671, Note_on_c, 1, 63, 0
4, 3672, Note_on_c, 1, 67, 58
4, 3695, Note_on_c, 1, 67, 0
4, 3696, Note_on_c, 1, 63, 58
4, 3719, Note_on_c, 1, 63, 0
4, 3720, Note_on_c, 1, 67, 58
4, 3743, Note_on_c, 1, 67, 0
4, 3744, Note_on_c, 1, 63, 58
4, 3767, Note_on_c, 1, 63, 0
4, 3768, Note_on_c, 1, 67, 58
4, 3791, Note_on_c, 1, 67, 0
4, 3792, Note_on_c, 1, 63, 58
4, 3815, Note_on_c, 1, 63, 0
4, 3816, Note_on_c, 1, 67, 58
4, 3839, Note_on_c, 1, 67, 0
4, 3840, Note_on_c, 1, 60, 58
4, 3863, Note_on_c, 1, 60, 0
4, 3864, Note_on_c, 1, 63, 58
4, 3887, Note_on_c, 1, 63, 0
4, 3888, Note_on_c, 1, 68, 58
4, 3911, Note_on_c, 1, 68, 0
4, 3912, Note_on_c, 1, 72, 58
4, 3935, Note_on_c, 1, 72, 0
4, 3936, Note_on_c, 1, 58, 58
4, 3959, Note_on_c, 1, 58, 0
4, 3960, Note_on_c, 1, 62, 58
4, 3983, Note_on_c, 1, 62, 0
4, 3984, Note_on_c, 1, 67, 58
4, 4007, Note_on_c, 1, 67, 0
4, 4008, Note_on_c, 1, 70, 58
4, 4031, Note_on_c, 1, 70, 0
4, 4032, Note_on_c, 1, 56, 58
4, 4121, Note_on_c, 1, 56, 0
4, 4224, Note_on_c, 1, 56, 75
4, 4224, Note_on_c, 1, 53, 75
4, 4224, Note_on_c, 1, 46, 75
4, 4244, Note_on_c, 1, 56, 0
4, 4244, Note_on_c, 1, 53, 0
4, 4244, Note_on_c, 1, 46, 0
4, 4272, Note_on_c, 1, 55, 75
4, 4272, Note_on_c, 1, 51, 75
4, 4301, Note_on_c, 1, 55, 0
4, 4301, Note_on_c, 1, 51, 0
4, 4416, Note_on_c, 1, 48, 80
4, 4416, Note_on_c, 1, 36, 80
4, 4593, Note_on_c, 1, 48, 0
4, 4593, Note_on_c, 1, 36, 0
4, 4608, Note_on_c, 1, 47, 80
4, 4608, Note_on_c, 1, 35, 80
4, 4697, Note_on_c, 1, 47, 0
4, 4697, Note_on_c, 1, 35, 0
4, 4896, Note_on_c, 1, 59, 75
4, 4992, Note_on_c, 1, 59, 0
4, 4992, Note_on_c, 1, 60, 75
4, 5081, Note_on_c, 1, 60, 0
4, 5184, Note_on_c, 1, 62, 75
4, 5184, Note_on_c, 1, 53, 75
4, 5280, Note_on_c, 1, 62, 0
4, 5280, Note_on_c, 1, 60, 67
4, 5325, Note_on_c, 1, 60, 0
4, 5325, Note_on_c, 1, 53, 0
4, 5376, Note_on_c, 1, 46, 75
4, 5376, Note_on_c, 1, 34, 75
4, 5421, Note_on_c, 1, 46, 0
4, 5421, Note_on_c, 1, 34, 0
4, 5448, Note_on_c, 1, 58, 75
4, 5471, Note_on_c, 1, 58, 0
4, 5472, Note_on_c, 1, 60, 75
4, 5495, Note_on_c, 1, 60, 0
4, 5496, Note_on_c, 1, 58, 75
4, 5519, Note_on_c, 1, 58, 0
4, 5520, Note_on_c, 1, 60, 75
4, 5543, Note_on_c, 1, 60, 0
4, 5544, Note_on_c, 1, 62, 75
4, 5567, Note_on_c, 1, 62, 0
4, 5568, Note_on_c, 1, 63, 75
4, 5657, Note_on_c, 1, 63, 0
4, 5760, Note_on_c, 1, 46, 75
4, 5760, Note_on_c, 1, 34, 75
4, 5805, Note_on_c, 1, 46, 0
4, 5805, Note_on_c, 1, 34, 0
4, 5832, Note_on_c, 1, 58, 75
4, 5855, Note_on_c, 1, 58, 0
4, 5856, Note_on_c, 1, 60, 75
4, 5879, Note_on_c, 1, 60, 0
4, 5880, Note_on_c, 1, 58, 75
4, 5903, Note_on_c, 1, 58, 0
4, 5904, Note_on_c, 1, 60, 75
4, 5927, Note_on_c, 1, 60, 0
4, 5928, Note_on_c, 1, 62, 75
4, 5951, Note_on_c, 1, 62, 0
4, 5952, Note_on_c, 1, 63, 75
4, 6041, Note_on_c, 1, 63, 0
4, 6144, Note_on_c, 1, 46, 75
4, 6144, Note_on_c, 1, 34, 75
4, 6189, Note_on_c, 1, 46, 0
4, 6189, Note_on_c, 1, 34, 0
4, 6216, Note_on_c, 1, 74, 75
4, 6239, Note_on_c, 1, 74, 0
4, 6240, Note_on_c, 1, 75, 75
4, 6263, Note_on_c, 1, 75, 0
4, 6264, Note_on_c, 1, 74, 75
4, 6287, Note_on_c, 1, 74, 0
4, 6288, Note_on_c, 1, 75, 75
4, 6311, Note_on_c, 1, 75, 0
4, 6312, Note_on_c, 1, 77, 75
4, 6335, Note_on_c, 1, 77, 0
4, 6336, Note_on_c, 1, 75, 75
4, 6425, Note_on_c, 1, 75, 0
4, 6552, Note_on_c, 1, 75, 70
4, 6552, Note_on_c, 1, 69, 70
4, 6562, Note_on_c, 1, 75, 0
4, 6562, Note_on_c, 1, 69, 0
4, 6576, Note_on_c, 1, 75, 70
4, 6576, Note_on_c, 1, 69, 70
4, 6586, Note_on_c, 1, 75, 0
4, 6586, Note_on_c, 1, 69, 0
4, 6600, Note_on_c, 1, 75, 70
4, 6600, Note_on_c, 1, 69, 70
4, 6610, Note_on_c, 1, 75, 0
4, 6610, Note_on_c, 1, 69, 0
4, 6624, Note_on_c, 1, 74, 70
4, 6624, Note_on_c, 1, 70, 70
4, 6669, Note_on_c, 1, 74, 0
4, 6669, Note_on_c, 1, 70, 0
4, 6744, Note_on_c, 1, 74, 64
4, 6744, Note_on_c, 1, 67, 64
4, 6754, Note_on_c, 1, 74, 0
4, 6754, Note_on_c, 1, 67, 0
4, 6768, Note_on_c, 1, 74, 64
4, 6768, Note_on_c, 1, 67, 64
4, 6778, Note_on_c, 1, 74, 0
4, 6778, Note_on_c, 1, 67, 0
4, 6792, Note_on_c, 1, 74, 64
4, 6792, Note_on_c, 1, 67, 64
4, 6802, Note_on_c, 1, 74, 0
4, 6802, Note_on_c, 1, 67, 0
4, 6816, Note_on_c, 1, 72, 64
4, 6816, Note_on_c, 1, 69, 64
4, 6861, Note_on_c, 1, 72, 0
4, 6861, Note_on_c, 1, 69, 0
4, 6936, Note_on_c, 1, 72, 64
4, 6936, Note_on_c, 1, 66, 64
4, 6946, Note_on_c, 1, 72, 0
4, 6946, Note_on_c, 1, 66, 0
4, 6960, Note_on_c, 1, 72, 64
4, 6960, Note_on_c, 1, 66, 64
4, 6970, Note_on_c, 1, 72, 0
4, 6970, Note_on_c, 1, 66, 0
4, 6984, Note_on_c, 1, 72, 64
4, 6984, Note_on_c, 1, 66, 64
4, 6994, Note_on_c, 1, 72, 0
4, 6994, Note_on_c, 1, 66, 0
4, 7008, Note_on_c, 1, 70, 64
4, 7008, Note_on_c, 1, 67, 64
4, 7053, Note_on_c, 1, 70, 0
4, 7053, Note_on_c, 1, 67, 0
4, 7128, Note_on_c, 1, 70, 64
4, 7152, Note_on_c, 1, 70, 0
4, 7152, Note_on_c, 1, 64, 64
4, 7175, Note_on_c, 1, 64, 0
4, 7224, Note_on_c, 1, 70, 64
4, 7248, Note_on_c, 1, 70, 0
4, 7248, Note_on_c, 1, 65, 64
4, 7271, Note_on_c, 1, 65, 0
4, 7320, Note_on_c, 1, 70, 64
4, 7344, Note_on_c, 1, 70, 0
4, 7344, Note_on_c, 1, 67, 64
4, 7367, Note_on_c, 1, 67, 0
4, 7416, Note_on_c, 1, 70, 64
4, 7440, Note_on_c, 1, 70, 0
4, 7440, Note_on_c, 1, 65, 64
4, 7463, Note_on_c, 1, 65, 0
4, 7488, Note_on_c, 1, 64, 64
4, 7511, Note_on_c, 1, 64, 0
4, 7512, Note_on_c, 1, 65, 64
4, 7535, Note_on_c, 1, 65, 0
4, 7536, Note_on_c, 1, 64, 64
4, 7559, Note_on_c, 1, 64, 0
4, 7560, Note_on_c, 1, 65, 64
4, 7583, Note_on_c, 1, 65, 0
4, 7584, Note_on_c, 1, 64, 64
4, 7629, Note_on_c, 1, 64, 0
4, 7656, Note_on_c, 1, 72, 64
4, 7656, Note_on_c, 1, 64, 64
4, 7680, Note_on_c, 1, 72, 0
4, 7680, Note_on_c, 1, 64, 0
4, 7680, Note_on_c, 1, 72, 64
4, 7680, Note_on_c, 1, 65, 64
4, 7725, Note_on_c, 1, 72, 0
4, 7725, Note_on_c, 1, 65, 0
4, 7752, Note_on_c, 1, 72, 64
4, 7752, Note_on_c, 1, 64, 64
4, 7776, Note_on_c, 1, 72, 0
4, 7776, Note_on_c, 1, 64, 0
4, 7776, Note_on_c, 1, 72, 64
4, 7776, Note_on_c, 1, 65, 64
4, 7821, Note_on_c, 1, 72, 0
4, 7821, Note_on_c, 1, 65, 0
4, 7848, Note_on_c, 1, 72, 64
4, 7848, Note_on_c, 1, 64, 64
4, 7871, Note_on_c, 1, 72, 0
4, 7871, Note_on_c, 1, 64, 0
4, 7872, Note_on_c, 1, 72, 64
4, 7872, Note_on_c, 1, 65, 64
4, 7917, Note_on_c, 1, 72, 0
4, 7917, Note_on_c, 1, 65, 0
4, 7944, Note_on_c, 1, 43, 75
4, 7956, Note_on_c, 1, 43, 0
4, 7956, Note_on_c, 1, 55, 75
4, 7968, Note_on_c, 1, 55, 0
4, 7968, Note_on_c, 1, 41, 76
4, 7980, Note_on_c, 1, 41, 0
4, 7980, Note_on_c, 1, 53, 76
4, 7992, Note_on_c, 1, 53, 0
4, 7992, Note_on_c, 1, 39, 77
4, 8004, Note_on_c, 1, 39, 0
4, 8004, Note_on_c, 1, 51, 77
4, 8016, Note_on_c, 1, 51, 0
4, 8016, Note_on_c, 1, 38, 78
4, 8028, Note_on_c, 1, 38, 0
4, 8028, Note_on_c, 1, 50, 78
4, 8040, Note_on_c, 1, 50, 0
4, 8040, Note_on_c, 1, 36, 79
4, 8052, Note_on_c, 1, 36, 0
4, 8052, Note_on_c, 1, 48, 80
4, 8064, Note_on_c, 1, 48, 0
4, 8064, Note_on_c, 1, 34, 80
4, 8087, Note_on_c, 1, 34, 0
4, 8088, Note_on_c, 1, 46, 80
4, 8111, Note_on_c, 1, 46, 0
4, 8112, Note_on_c, 1, 46, 80
4, 8135, Note_on_c, 1, 46, 0
4, 8136, Note_on_c, 1, 46, 80
4, 8159, Note_on_c, 1, 46, 0
4, 8160, Note_on_c, 1, 46, 80
4, 8183, Note_on_c, 1, 46, 0
4, 8184, Note_on_c, 1, 46, 80
4, 8207, Note_on_c, 1, 46, 0
4, 8208, Note_on_c, 1, 46, 80
4, 8231, Note_on_c, 1, 46, 0
4, 8232, Note_on_c, 1, 46, 80
4, 8255, Note_on_c, 1, 46, 0
4, 8256, Note_on_c, 1, 34, 80
4, 8279, Note_on_c, 1, 34, 0
4, 8280, Note_on_c, 1, 46, 80
4, 8303, Note_on_c, 1, 46, 0
4, 8304, Note_on_c, 1, 46, 80
4, 8327, Note_on_c, 1, 46, 0
4, 8328, Note_on_c, 1, 46, 80
4, 8351, Note_on_c, 1, 46, 0
4, 8352, Note_on_c, 1, 46, 80
4, 8375, Note_on_c, 1, 46, 0
4, 8376, Note_on_c, 1, 46, 80
4, 8399, Note_on_c, 1, 46, 0
4, 8400, Note_on_c, 1, 46, 80
4, 8423, Note_on_c, 1, 46, 0
4, 8424, Note_on_c, 1, 46, 80
4, 8447, Note_on_c, 1, 46, 0
4, 8448, Note_on_c, 1, 34, 80
4, 8471, Note_on_c, 1, 34, 0
4, 8472, Note_on_c, 1, 46, 80
4, 8495, Note_on_c, 1, 46, 0
4, 8496, Note_on_c, 1, 46, 80
4, 8516, Note_on_c, 1, 46, 0
4, 8640, Note_on_c, 1, 70, 80
4, 8663, Note_on_c, 1, 70, 0
4, 8664, Note_on_c, 1, 70, 80
4, 8687, Note_on_c, 1, 70, 0
4, 8688, Note_on_c, 1, 70, 80
4, 8711, Note_on_c, 1, 70, 0
4, 8712, Note_on_c, 1, 70, 80
4, 8735, Note_on_c, 1, 70, 0
4, 8832, Note_on_c, 1, 72, 80
4, 8844, Note_on_c, 1, 72, 0
4, 8844, Note_on_c, 1, 74, 80
4, 8856, Note_on_c, 1, 74, 0
4, 8856, Note_on_c, 1, 75, 80
4, 8868, Note_on_c, 1, 75, 0
4, 8868, Note_on_c, 1, 77, 80
4, 8880, Note_on_c, 1, 77, 0
4, 9072, Note_on_c, 1, 61, 76
4, 9072, Note_on_c, 1, 52, 76
4, 9117, Note_on_c, 1, 61, 0
4, 9117, Note_on_c, 1, 52, 0
4, 9120, Note_on_c, 1, 62, 73
4, 9120, Note_on_c, 1, 53, 73
4, 9168, Note_on_c, 1, 62, 0
4, 9168, Note_on_c, 1, 63, 70
4, 9213, Note_on_c, 1, 63, 0
4, 9213, Note_on_c, 1, 53, 0
4, 9216, Note_on_c, 1, 62, 67
4, 9216, Note_on_c, 1, 55, 67
4, 9261, Note_on_c, 1, 62, 0
4, 9261, Note_on_c, 1, 55, 0
4, 9288, Note_on_c, 1, 50, 80
4, 9311, Note_on_c, 1, 50, 0
4, 9312, Note_on_c, 1, 51, 80
4, 9335, Note_on_c, 1, 51, 0
4, 9336, Note_on_c, 1, 50, 80
4, 9359, Note_on_c, 1, 50, 0
4, 9360, Note_on_c, 1, 51, 81
4, 9383, Note_on_c, 1, 51, 0
4, 9384, Note_on_c, 1, 52, 82
4, 9407, Note_on_c, 1, 52, 0
4, 9408, Note_on_c, 1, 53, 83
4, 9431, Note_on_c, 1, 53, 0
4, 9432, Note_on_c, 1, 52, 83
4, 9455, Note_on_c, 1, 52, 0
4, 9456, Note_on_c, 1, 53, 84
4, 9479, Note_on_c, 1, 53, 0
4, 9480, Note_on_c, 1, 50, 85
4, 9503, Note_on_c, 1, 50, 0
4, 9504, Note_on_c, 1, 51, 86
4, 9527, Note_on_c, 1, 51, 0
4, 9528, Note_on_c, 1, 52, 83
4, 9551, Note_on_c, 1, 52, 0
4, 9552, Note_on_c, 1, 53, 81
4, 9575, Note_on_c, 1, 53, 0
4, 9576, Note_on_c, 1, 54, 79
4, 9599, Note_on_c, 1, 54, 0
4, 9600, Note_on_c, 1, 55, 76
4, 9623, Note_on_c, 1, 55, 0
4, 9624, Note_on_c, 1, 54, 74
4, 9647, Note_on_c, 1, 54, 0
4, 9648, Note_on_c, 1, 55, 72
4, 9671, Note_on_c, 1, 55, 0
4, 9672, Note_on_c, 1, 51, 70
4, 9695, Note_on_c, 1, 51, 0
4, 9696, Note_on_c, 1, 53, 70
4, 9741, Note_on_c, 1, 53, 0
4, 9744, Note_on_c, 1, 41, 70
4, 9789, Note_on_c, 1, 41, 0
4, 9792, Note_on_c, 1, 55, 70
4, 9837, Note_on_c, 1, 55, 0
4, 9840, Note_on_c, 1, 51, 70
4, 9885, Note_on_c, 1, 51, 0
4, 9888, Note_on_c, 1, 53, 70
4, 9933, Note_on_c, 1, 53, 0
4, 9936, Note_on_c, 1, 41, 70
4, 9981, Note_on_c, 1, 41, 0
4, 9984, Note_on_c, 1, 62, 75
4, 9984, Note_on_c, 1, 58, 75
4, 10029, Note_on_c, 1, 62, 0
4, 10029, Note_on_c, 1, 58, 0
4, 10056, Note_on_c, 1, 63, 75
4, 10079, Note_on_c, 1, 63, 0
4, 10080, Note_on_c, 1, 62, 75
4, 10125, Note_on_c, 1, 62, 0
4, 10152, Note_on_c, 1, 63, 75
4, 10175, Note_on_c, 1, 63, 0
4, 10176, Note_on_c, 1, 62, 75
4, 10221, Note_on_c, 1, 62, 0
4, 10368, Note_on_c, 1, 51, 64
4, 10368, Note_on_c, 1, 39, 64
4, 10545, Note_on_c, 1, 51, 0
4, 10545, Note_on_c, 1, 39, 0
4, 10560, Note_on_c, 1, 50, 64
4, 10560, Note_on_c, 1, 38, 64
4, 10737, Note_on_c, 1, 50, 0
4, 10737, Note_on_c, 1, 38, 0
4, 10752, Note_on_c, 1, 48, 64
4, 10752, Note_on_c, 1, 36, 64
4, 10791, Note_on_c, 1, 48, 0
4, 10791, Note_on_c, 1, 36, 0
4, 10848, Note_on_c, 1, 45, 64
4, 10848, Note_on_c, 1, 33, 64
4, 10887, Note_on_c, 1, 45, 0
4, 10887, Note_on_c, 1, 33, 0
4, 10944, Note_on_c, 1, 46, 64
4, 10944, Note_on_c, 1, 34, 64
4, 10983, Note_on_c, 1, 46, 0
4, 10983, Note_on_c, 1, 34, 0
4, 11040, Note_on_c, 1, 58, 64
4, 11079, Note_on_c, 1, 58, 0
4, 11172, Note_on_c, 1, 52, 64
4, 11184, Note_on_c, 1, 52, 0
4, 11184, Note_on_c, 1, 55, 64
4, 11218, Note_on_c, 1, 55, 0
4, 11220, Note_on_c, 1, 58, 64
4, 11232, Note_on_c, 1, 58, 0
4, 11232, Note_on_c, 1, 58, 64
4, 11280, Note_on_c, 1, 58, 0
4, 11280, Note_on_c, 1, 56, 64
4, 11325, Note_on_c, 1, 56, 0
4, 11364, Note_on_c, 1, 50, 64
4, 11376, Note_on_c, 1, 50, 0
4, 11376, Note_on_c, 1, 53, 64
4, 11410, Note_on_c, 1, 53, 0
4, 11412, Note_on_c, 1, 56, 64
4, 11424, Note_on_c, 1, 56, 0
4, 11424, Note_on_c, 1, 56, 64
4, 11472, Note_on_c, 1, 56, 0
4, 11472, Note_on_c, 1, 55, 64
4, 11517, Note_on_c, 1, 55, 0
4, 11568, Note_on_c, 1, 44, 64
4, 11613, Note_on_c, 1, 44, 0
4, 11664, Note_on_c, 1, 56, 64
4, 11664, Note_on_c, 1, 46, 64
4, 11709, Note_on_c, 1, 56, 0
4, 11709, Note_on_c, 1, 46, 0
4, 11712, Note_on_c, 1, 56, 64
4, 11712, Note_on_c, 1, 51, 64
4, 11808, Note_on_c, 1, 56, 0
4, 11808, Note_on_c, 1, 55, 64
4, 11853, Note_on_c, 1, 55, 0
4, 11853, Note_on_c, 1, 51, 0
4, 11940, Note_on_c, 1, 64, 64
4, 11952, Note_on_c, 1, 64, 0
4, 11952, Note_on_c, 1, 67, 64
4, 11986, Note_on_c, 1, 67, 0
4, 11988, Note_on_c, 1, 70, 64
4, 12000, Note_on_c, 1, 70, 0
4, 12000, Note_on_c, 1, 70, 64
4, 12048, Note_on_c, 1, 70, 0
4, 12048, Note_on_c, 1, 68, 64
4, 12093, Note_on_c, 1, 68, 0
4, 12132, Note_on_c, 1, 62, 64
4, 12144, Note_on_c, 1, 62, 0
4, 12144, Note_on_c, 1, 65, 64
4, 12178, Note_on_c, 1, 65, 0
4, 12180, Note_on_c, 1, 68, 64
4, 12192, Note_on_c, 1, 68, 0
4, 12192, Note_on_c, 1, 68, 64
4, 12240, Note_on_c, 1, 68, 0
4, 12240, Note_on_c, 1, 67, 64
4, 12285, Note_on_c, 1, 67, 0
4, 12312, Note_on_c, 1, 75, 64
4, 12335, Note_on_c, 1, 75, 0
4, 12336, Note_on_c, 1, 74, 65
4, 12359, Note_on_c, 1, 74, 0
4, 12360, Note_on_c, 1, 72, 66
4, 12383, Note_on_c, 1, 72, 0
4, 12384, Note_on_c, 1, 70, 67
4, 12407, Note_on_c, 1, 70, 0
4, 12408, Note_on_c, 1, 68, 68
4, 12431, Note_on_c, 1, 68, 0
4, 12432, Note_on_c, 1, 67, 69
4, 12455, Note_on_c, 1, 67, 0
4, 12456, Note_on_c, 1, 65, 70
4, 12479, Note_on_c, 1, 65, 0
4, 12480, Note_on_c, 1, 63, 71
4, 12569, Note_on_c, 1, 63, 0
4, 12672, Note_on_c, 1, 56, 75
4, 12761, Note_on_c, 1, 56, 0
4, 12960, Note_on_c, 1, 58, 75
4, 12980, Note_on_c, 1, 58, 0
4, 13056, Note_on_c, 1, 63, 58
4, 13079, Note_on_c, 1, 63, 0
4, 13080, Note_on_c, 1, 67, 58
4, 13103, Note_on_c, 1, 67, 0
4, 13104, Note_on_c, 1, 63, 58
4, 13127, Note_on_c, 1, 63, 0
4, 13128, Note_on_c, 1, 67, 58
4, 13151, Note_on_c, 1, 67, 0
4, 13152, Note_on_c, 1, 63, 58
4, 13175, Note_on_c, 1, 63, 0
4, 13176, Note_on_c, 1, 67, 58
4, 13199, Note_on_c, 1, 67, 0
4, 13200, Note_on_c, 1, 63, 58
4, 13223, Note_on_c, 1, 63, 0
4, 13224, Note_on_c, 1, 67, 58
4, 13247, Note_on_c, 1, 67, 0
4, 13248, Note_on_c, 1, 63, 58
4, 13271, Note_on_c, 1, 63, 0
4, 13272, Note_on_c, 1, 68, 58
4, 13295, Note_on_c, 1, 68, 0
4, 13296, Note_on_c, 1, 63, 58
4, 13319, Note_on_c, 1, 63, 0
4, 13320, Note_on_c, 1, 68, 58
4, 13343, Note_on_c, 1, 68, 0
4, 13344, Note_on_c, 1, 63, 58
4, 13367, Note_on_c, 1, 63, 0
4, 13368, Note_on_c, 1, 68, 58
4, 13391, Note_on_c, 1, 68, 0
4, 13392, Note_on_c, 1, 63, 58
4, 13415, Note_on_c, 1, 63, 0
4, 13416, Note_on_c, 1, 68, 58
4, 13439, Note_on_c, 1, 68, 0
4, 13440, Note_on_c, 1, 62, 58
4, 13463, Note_on_c, 1, 62, 0
4, 13464, Note_on_c, 1, 68, 58
4, 13487, Note_on_c, 1, 68, 0
4, 13488, Note_on_c, 1, 62, 58
4, 13511, Note_on_c, 1, 62, 0
4, 13512, Note_on_c, 1, 68, 58
4, 13535, Note_on_c, 1, 68, 0
4, 13536, Note_on_c, 1, 62, 58
4, 13559, Note_on_c, 1, 62, 0
4, 13560, Note_on_c, 1, 68, 58
4, 13583, Note_on_c, 1, 68, 0
4, 13584, Note_on_c, 1, 62, 58
4, 13607, Note_on_c, 1, 62, 0
4, 13608, Note_on_c, 1, 68, 58
4, 13631, Note_on_c, 1, 68, 0
4, 13632, Note_on_c, 1, 63, 58
4, 13655, Note_on_c, 1, 63, 0
4, 13656, Note_on_c, 1, 67, 58
4, 13679, Note_on_c, 1, 67, 0
4, 13680, Note_on_c, 1, 63, 58
4, 13703, Note_on_c, 1, 63, 0
4, 13704, Note_on_c, 1, 67, 58
4, 13727, Note_on_c, 1, 67, 0
4, 13728, Note_on_c, 1, 63, 58
4, 13751, Note_on_c, 1, 63, 0
4, 13752, Note_on_c, 1, 67, 58
4, 13775, Note_on_c, 1, 67, 0
4, 13776, Note_on_c, 1, 63, 58
4, 13799, Note_on_c, 1, 63, 0
4, 13800, Note_on_c, 1, 67, 58
4, 13823, Note_on_c, 1, 67, 0
4, 13824, Note_on_c, 1, 62, 58
4, 13847, Note_on_c, 1, 62, 0
4, 13848, Note_on_c, 1, 68, 58
4, 13871, Note_on_c, 1, 68, 0
4, 13872, Note_on_c, 1, 62, 58
4, 13895, Note_on_c, 1, 62, 0
4, 13896, Note_on_c, 1, 68, 58
4, 13919, Note_on_c, 1, 68, 0
4, 13920, Note_on_c, 1, 62, 58
4, 13943, Note_on_c, 1, 62, 0
4, 13944, Note_on_c, 1, 68, 58
4, 13967, Note_on_c, 1, 68, 0
4, 13968, Note_on_c, 1, 62, 58
4, 13991, Note_on_c, 1, 62, 0
4, 13992, Note_on_c, 1, 68, 58
4, 14015, Note_on_c, 1, 68, 0
4, 14016, Note_on_c, 1, 63, 58
4, 14039, Note_on_c, 1, 63, 0
4, 14040, Note_on_c, 1, 67, 58
4, 14063, Note_on_c, 1, 67, 0
4, 14064, Note_on_c, 1, 63, 58
4, 14087, Note_on_c, 1, 63, 0
4, 14088, Note_on_c, 1, 67, 58
4, 14111, Note_on_c, 1, 67, 0
4, 14112, Note_on_c, 1, 63, 58
4, 14135, Note_on_c, 1, 63, 0
4, 14136, Note_on_c, 1, 67, 58
4, 14159, Note_on_c, 1, 67, 0
4, 14160, Note_on_c, 1, 63, 58
4, 14183, Note_on_c, 1, 63, 0
4, 14184, Note_on_c, 1, 67, 58
4, 14207, Note_on_c, 1, 67, 0
4, 14208, Note_on_c, 1, 60, 58
4, 14231, Note_on_c, 1, 60, 0
4, 14232, Note_on_c, 1, 63, 58
4, 14255, Note_on_c, 1, 63, 0
4, 14256, Note_on_c, 1, 68, 58
4, 14279, Note_on_c, 1, 68, 0
4, 14280, Note_on_c, 1, 72, 58
4, 14303, Note_on_c, 1, 72, 0
4, 14304, Note_on_c, 1, 58, 58
4, 14327, Note_on_c, 1, 58, 0
4, 14328, Note_on_c, 1, 62, 58
4, 14351, Note_on_c, 1, 62, 0
4, 14352, Note_on_c, 1, 67, 58
4, 14375, Note_on_c, 1, 67, 0
4, 14376, Note_on_c, 1, 70, 58
4, 14399, Note_on_c, 1, 70, 0
4, 14400, Note_on_c, 1, 56, 58
4, 14489, Note_on_c, 1, 56, 0
4, 14592, Note_on_c, 1, 56, 75
4, 14592, Note_on_c, 1, 53, 75
4, 14592, Note_on_c, 1, 46, 75
4, 14612, Note_on_c, 1, 56, 0
4, 14612, Note_on_c, 1, 53, 0
4, 14612, Note_on_c, 1, 46, 0
4, 14640, Note_on_c, 1, 55, 75
4, 14640, Note_on_c, 1, 51, 75
4, 14669, Note_on_c, 1, 55, 0
4, 14669, Note_on_c, 1, 51, 0
4, 14784, Note_on_c, 1, 48, 80
4, 14784, Note_on_c, 1, 36, 80
4, 14961, Note_on_c, 1, 48, 0
4, 14961, Note_on_c, 1, 36, 0
4, 14976, Note_on_c, 1, 47, 80
4, 14976, Note_on_c, 1, 35, 80
4, 15065, Note_on_c, 1, 47, 0
4, 15065, Note_on_c, 1, 35, 0
4, 15264, Note_on_c, 1, 59, 75
4, 15360, Note_on_c, 1, 59, 0
4, 15360, Note_on_c, 1, 60, 75
4, 15449, Note_on_c, 1, 60, 0
4, 15552, Note_on_c, 1, 62, 75
4, 15552, Note_on_c, 1, 53, 75
4, 15648, Note_on_c, 1, 62, 0
4, 15648, Note_on_c, 1, 60, 67
4, 15693, Note_on_c, 1, 60, 0
4, 15693, Note_on_c, 1, 53, 0
4, 15744, Note_on_c, 1, 46, 75
4, 15744, Note_on_c, 1, 34, 75
4, 15789, Note_on_c, 1, 46, 0
4, 15789, Note_on_c, 1, 34, 0
4, 15816, Note_on_c, 1, 58, 75
4, 15839, Note_on_c, 1, 58, 0
4, 15840, Note_on_c, 1, 60, 75
4, 15863, Note_on_c, 1, 60, 0
4, 15864, Note_on_c, 1, 58, 75
4, 15887, Note_on_c, 1, 58, 0
4, 15888, Note_on_c, 1, 60, 75
4, 15911, Note_on_c, 1, 60, 0
4, 15912, Note_on_c, 1, 62, 75
4, 15935, Note_on_c, 1, 62, 0
4, 15936, Note_on_c, 1, 63, 75
4, 16025, Note_on_c, 1, 63, 0
4, 16128, Note_on_c, 1, 46, 75
4, 16128, Note_on_c, 1, 34, 75
4, 16173, Note_on_c, 1, 46, 0
4, 16173, Note_on_c, 1, 34, 0
4, 16200, Note_on_c, 1, 58, 75
4, 16223, Note_on_c, 1, 58, 0
4, 16224, Note_on_c, 1, 60, 75
4, 16247, Note_on_c, 1, 60, 0
4, 16248, Note_on_c, 1, 58, 75
4, 16271, Note_on_c, 1, 58, 0
4, 16272, Note_on_c, 1, 60, 75
4, 16295, Note_on_c, 1, 60, 0
4, 16296, Note_on_c, 1, 62, 75
4, 16319, Note_on_c, 1, 62, 0
4, 16320, Note_on_c, 1, 63, 75
4, 16409, Note_on_c, 1, 63, 0
4, 16512, Note_on_c, 1, 46, 75
4, 16512, Note_on_c, 1, 34, 75
4, 16557, Note_on_c, 1, 46, 0
4, 16557, Note_on_c, 1, 34, 0
4, 16584, Note_on_c, 1, 74, 75
4, 16607, Note_on_c, 1, 74, 0
4, 16608, Note_on_c, 1, 75, 75
4, 16631, Note_on_c, 1, 75, 0
4, 16632, Note_on_c, 1, 74, 75
4, 16655, Note_on_c, 1, 74, 0
4, 16656, Note_on_c, 1, 75, 75
4, 16679, Note_on_c, 1, 75, 0
4, 16680, Note_on_c, 1, 77, 75
4, 16703, Note_on_c, 1, 77, 0
4, 16704, Note_on_c, 1, 75, 75
4, 16793, Note_on_c, 1, 75, 0
4, 16920, Note_on_c, 1, 75, 70
4, 16920, Note_on_c, 1, 69, 70
4, 16930, Note_on_c, 1, 75, 0
4, 16930, Note_on_c, 1, 69, 0
4, 16944, Note_on_c, 1, 75, 70
4, 16944, Note_on_c, 1, 69, 70
4, 16954, Note_on_c, 1, 75, 0
4, 16954, Note_on_c, 1, 69, 0
4, 16968, Note_on_c, 1, 75, 70
4, 16968, Note_on_c, 1, 69, 70
4, 16978, Note_on_c, 1, 75, 0
4, 16978, Note_on_c, 1, 69, 0
4, 16992, Note_on_c, 1, 74, 70
4, 16992, Note_on_c, 1, 70, 70
4, 17037, Note_on_c, 1, 74, 0
4, 17037, Note_on_c, 1, 70, 0
4, 17112, Note_on_c, 1, 74, 64
4, 17112, Note_on_c, 1, 67, 64
4, 17122, Note_on_c, 1, 74, 0
4, 17122, Note_on_c, 1, 67, 0
4, 17136, Note_on_c, 1, 74, 64
4, 17136, Note_on_c, 1, 67, 64
4, 17146, Note_on_c, 1, 74, 0
4, 17146, Note_on_c, 1, 67, 0
4, 17160, Note_on_c, 1, 74, 64
4, 17160, Note_on_c, 1, 67, 64
4, 17170, Note_on_c, 1, 74, 0
4, 17170, Note_on_c, 1, 67, 0
4, 17184, Note_on_c, 1, 72, 64
4, 17184, Note_on_c, 1, 69, 64
4, 17229, Note_on_c, 1, 72, 0
4, 17229, Note_on_c, 1, 69, 0
4, 17304, Note_on_c, 1, 72, 64
4, 17304, Note_on_c, 1, 66, 64
4, 17314, Note_on_c, 1, 72, 0
4, 17314, Note_on_c, 1, 66, 0
4, 17328, Note_on_c, 1, 72, 64
4, 17328, Note_on_c, 1, 66, 64
4, 17338, Note_on_c, 1, 72, 0
4, 17338, Note_on_c, 1, 66, 0
4, 17352, Note_on_c, 1, 72, 64
4, 17352, Note_on_c, 1, 66, 64
4, 17362, Note_on_c, 1, 72, 0
4, 17362, Note_on_c, 1, 66, 0
4, 17376, Note_on_c, 1, 70, 64
4, 17376, Note_on_c, 1, 67, 64
4, 17421, Note_on_c, 1, 70, 0
4, 17421, Note_on_c, 1, 67, 0
4, 17496, Note_on_c, 1, 70, 64
4, 17520, Note_on_c, 1, 70, 0
4, 17520, Note_on_c, 1, 64, 64
4, 17543, Note_on_c, 1, 64, 0
4, 17592, Note_on_c, 1, 70, 64
4, 17616, Note_on_c, 1, 70, 0
4, 17616, Note_on_c, 1, 65, 64
4, 17639, Note_on_c, 1, 65, 0
4, 17688, Note_on_c, 1, 70, 64
4, 17712, Note_on_c, 1, 70, 0
4, 17712, Note_on_c, 1, 67, 64
4, 17735, Note_on_c, 1, 67, 0
4, 17784, Note_on_c, 1, 70, 64
4, 17808, Note_on_c, 1, 70, 0
4, 17808, Note_on_c, 1, 65, 64
4, 17831, Note_on_c, 1, 65, 0
4, 17856, Note_on_c, 1, 64, 64
4, 17879, Note_on_c, 1, 64, 0
4, 17880, Note_on_c, 1, 65, 64
4, 17903, Note_on_c, 1, 65, 0
4, 17904, Note_on_c, 1, 64, 64
4, 17927, Note_on_c, 1, 64, 0
4, 17928, Note_on_c, 1, 65, 64
4, 17951, Note_on_c, 1, 65, 0
4, 17952, Note_on_c, 1, 64, 64
4, 17997, Note_on_c, 1, 64, 0
4, 18024, Note_on_c, 1, 72, 64
4, 18024, Note_on_c, 1, 64, 64
4, 18048, Note_on_c, 1, 72, 0
4, 18048, Note_on_c, 1, 64, 0
4, 18048, Note_on_c, 1, 72, 64
4, 18048, Note_on_c, 1, 65, 64
4, 18093, Note_on_c, 1, 72, 0
4, 18093, Note_on_c, 1, 65, 0
4, 18120, Note_on_c, 1, 72, 64
4, 18120, Note_on_c, 1, 64, 64
4, 18144, Note_on_c, 1, 72, 0
4, 18144, Note_on_c, 1, 64, 0
4, 18144, Note_on_c, 1, 72, 64
4, 18144, Note_on_c, 1, 65, 64
4, 18189, Note_on_c, 1, 72, 0
4, 18189, Note_on_c, 1, 65, 0
4, 18216, Note_on_c, 1, 72, 64
4, 18216, Note_on_c, 1, 64, 64
4, 18239, Note_on_c, 1, 72, 0
4, 18239, Note_on_c, 1, 64, 0
4, 18240, Note_on_c, 1, 72, 64
4, 18240, Note_on_c, 1, 65, 64
4, 18285, Note_on_c, 1, 72, 0
4, 18285, Note_on_c, 1, 65, 0
4, 18312, Note_on_c, 1, 43, 75
4, 18324, Note_on_c, 1, 43, 0
4, 18324, Note_on_c, 1, 55, 75
4, 18336, Note_on_c, 1, 55, 0
4, 18336, Note_on_c, 1, 41, 76
4, 18348, Note_on_c, 1, 41, 0
4, 18348, Note_on_c, 1, 53, 76
4, 18360, Note_on_c, 1, 53, 0
4, 18360, Note_on_c, 1, 39, 77
4, 18372, Note_on_c, 1, 39, 0
4, 18372, Note_on_c, 1, 51, 77
4, 18384, Note_on_c, 1, 51, 0
4, 18384, Note_on_c, 1, 38, 78
4, 18396, Note_on_c, 1, 38, 0
4, 18396, Note_on_c, 1, 50, 78
4, 18408, Note_on_c, 1, 50, 0
4, 18408, Note_on_c, 1, 36, 79
4, 18420, Note_on_c, 1, 36, 0
4, 18420, Note_on_c, 1, 48, 80
4, 18432, Note_on_c, 1, 48, 0
4, 18432, Note_on_c, 1, 34, 80
4, 18455, Note_on_c, 1, 34, 0
4, 18456, Note_on_c, 1, 46, 80
4, 18479, Note_on_c, 1, 46, 0
4, 18480, Note_on_c, 1, 46, 80
4, 18503, Note_on_c, 1, 46, 0
4, 18504, Note_on_c, 1, 46, 80
4, 18527, Note_on_c, 1, 46, 0
4, 18528, Note_on_c, 1, 46, 80
4, 18551, Note_on_c, 1, 46, 0
4, 18552, Note_on_c, 1, 46, 80
4, 18575, Note_on_c, 1, 46, 0
4, 18576, Note_on_c, 1, 46, 80
4, 18599, Note_on_c, 1, 46, 0
4, 18600, Note_on_c, 1, 46, 80
4, 18623, Note_on_c, 1, 46, 0
4, 18624, Note_on_c, 1, 34, 80
4, 18647, Note_on_c, 1, 34, 0
4, 18648, Note_on_c, 1, 46, 80
4, 18671, Note_on_c, 1, 46, 0
4, 18672, Note_on_c, 1, 46, 80
4, 18695, Note_on_c, 1, 46, 0
4, 18696, Note_on_c, 1, 46, 80
4, 18719, Note_on_c, 1, 46, 0
4, 18720, Note_on_c, 1, 46, 80
4, 18743, Note_on_c, 1, 46, 0
4, 18744, Note_on_c, 1, 46, 80
4, 18767, Note_on_c, 1, 46, 0
4, 18768, Note_on_c, 1, 46, 80
4, 18791, Note_on_c, 1, 46, 0
4, 18792, Note_on_c, 1, 46, 80
4, 18815, Note_on_c, 1, 46, 0
4, 18816, Note_on_c, 1, 34, 80
4, 18839, Note_on_c, 1, 34, 0
4, 18840, Note_on_c, 1, 46, 80
4, 18863, Note_on_c, 1, 46, 0
4, 18864, Note_on_c, 1, 46, 80
4, 18884, Note_on_c, 1, 46, 0
4, 19008, Note_on_c, 1, 70, 80
4, 19031, Note_on_c, 1, 70, 0
4, 19032, Note_on_c, 1, 70, 80
4, 19055, Note_on_c, 1, 70, 0
4, 19056, Note_on_c, 1, 70, 80
4, 19079, Note_on_c, 1, 70, 0
4, 19080, Note_on_c, 1, 70, 80
4, 19103, Note_on_c, 1, 70, 0
4, 19200, Note_on_c, 1, 72, 80
4, 19212, Note_on_c, 1, 72, 0
4, 19212, Note_on_c, 1, 74, 80
4, 19224, Note_on_c, 1, 74, 0
4, 19224, Note_on_c, 1, 75, 80
4, 19236, Note_on_c, 1, 75, 0
4, 19236, Note_on_c, 1, 77, 80
4, 19248, Note_on_c, 1, 77, 0
4, 19440, Note_on_c, 1, 61, 76
4, 19440, Note_on_c, 1, 52, 76
4, 19485, Note_on_c, 1, 61, 0
4, 19485, Note_on_c, 1, 52, 0
4, 19488, Note_on_c, 1, 62, 73
4, 19488, Note_on_c, 1, 53, 73
4, 19536, Note_on_c, 1, 62, 0
4, 19536, Note_on_c, 1, 63, 70
4, 19581, Note_on_c, 1, 63, 0
4, 19581, Note_on_c, 1, 53, 0
4, 19584, Note_on_c, 1, 62, 67
4, 19584, Note_on_c, 1, 55, 67
4, 19629, Note_on_c, 1, 62, 0
4, 19629, Note_on_c, 1, 55, 0
4, 19656, Note_on_c, 1, 50, 80
4, 19679, Note_on_c, 1, 50, 0
4, 19680, Note_on_c, 1, 51, 80
4, 19703, Note_on_c, 1, 51, 0
4, 19704, Note_on_c, 1, 50, 80
4, 19727, Note_on_c, 1, 50, 0
4, 19728, Note_on_c, 1, 51, 81
4, 19751, Note_on_c, 1, 51, 0
4, 19752, Note_on_c, 1, 52, 82
4, 19775, Note_on_c, 1, 52, 0
4, 19776, Note_on_c, 1, 53, 83
4, 19799, Note_on_c, 1, 53, 0
4, 19800, Note_on_c, 1, 52, 83
4, 19823, Note_on_c, 1, 52, 0
4, 19824, Note_on_c, 1, 53, 84
4, 19847, Note_on_c, 1, 53, 0
4, 19848, Note_on_c, 1, 50, 85
4, 19871, Note_on_c, 1, 50, 0
4, 19872, Note_on_c, 1, 51, 86
4, 19895, Note_on_c, 1, 51, 0
4, 19896, Note_on_c, 1, 52, 83
4, 19919, Note_on_c, 1, 52, 0
4, 19920, Note_on_c, 1, 53, 81
4, 19943, Note_on_c, 1, 53, 0
4, 19944, Note_on_c, 1, 54, 79
4, 19967, Note_on_c, 1, 54, 0
4, 19968, Note_on_c, 1, 55, 76
4, 19991, Note_on_c, 1, 55, 0
4, 19992, Note_on_c, 1, 54, 74
4, 20015, Note_on_c, 1, 54, 0
4, 20016, Note_on_c, 1, 55, 72
4, 20039, Note_on_c, 1, 55, 0
4, 20040, Note_on_c, 1, 51, 70
4, 20063, Note_on_c, 1, 51, 0
4, 20064, Note_on_c, 1, 53, 70
4, 20109, Note_on_c, 1, 53, 0
4, 20112, Note_on_c, 1, 41, 70
4, 20157, Note_on_c, 1, 41, 0
4, 20160, Note_on_c, 1, 55, 70
4, 20205, Note_on_c, 1, 55, 0
4, 20208, Note_on_c, 1, 51, 70
4, 20253, Note_on_c, 1, 51, 0
4, 20256, Note_on_c, 1, 53, 70
4, 20301, Note_on_c, 1, 53, 0
4, 20304, Note_on_c, 1, 41, 70
4, 20349, Note_on_c, 1, 41, 0
4, 20352, Note_on_c, 1, 62, 75
4, 20352, Note_on_c, 1, 58, 75
4, 20397, Note_on_c, 1, 62, 0
4, 20397, Note_on_c, 1, 58, 0
4, 20424, Note_on_c, 1, 63, 75
4, 20447, Note_on_c, 1, 63, 0
4, 20448, Note_on_c, 1, 62, 75
4, 20493, Note_on_c, 1, 62, 0
4, 20520, Note_on_c, 1, 63, 75
4, 20543, Note_on_c, 1, 63, 0
4, 20544, Note_on_c, 1, 62, 75
4, 20589, Note_on_c, 1, 62, 0
4, 20736, Note_on_c, 1, 55, 80
4, 20736, Note_on_c, 1, 43, 80
4, 20913, Note_on_c, 1, 55, 0
4, 20913, Note_on_c, 1, 43, 0
4, 20928, Note_on_c, 1, 53, 80
4, 20928, Note_on_c, 1, 41, 80
4, 21105, Note_on_c, 1, 53, 0
4, 21105, Note_on_c, 1, 41, 0
4, 21144, Note_on_c, 1, 67, 64
4, 21168, Note_on_c, 1, 67, 0
4, 21168, Note_on_c, 1, 63, 64
4, 21191, Note_on_c, 1, 63, 0
4, 21240, Note_on_c, 1, 68, 64
4, 21264, Note_on_c, 1, 68, 0
4, 21264, Note_on_c, 1, 65, 64
4, 21287, Note_on_c, 1, 65, 0
4, 21336, Note_on_c, 1, 70, 64
4, 21360, Note_on_c, 1, 70, 0
4, 21360, Note_on_c, 1, 67, 64
4, 21383, Note_on_c, 1, 67, 0
4, 21408, Note_on_c, 1, 68, 64
4, 21453, Note_on_c, 1, 68, 0
4, 21504, Note_on_c, 1, 58, 80
4, 21504, Note_on_c, 1, 46, 80
4, 21593, Note_on_c, 1, 58, 0
4, 21593, Note_on_c, 1, 46, 0
4, 21600, Note_on_c, 1, 38, 80
4, 21667, Note_on_c, 1, 38, 0
4, 21672, Note_on_c, 1, 51, 80
4, 21672, Note_on_c, 1, 39, 80
4, 21695, Note_on_c, 1, 51, 0
4, 21695, Note_on_c, 1, 39, 0
4, 21696, Note_on_c, 1, 53, 80
4, 21696, Note_on_c, 1, 41, 80
4, 21741, Note_on_c, 1, 53, 0
4, 21741, Note_on_c, 1, 41, 0
4, 21744, Note_on_c, 1, 46, 80
4, 21744, Note_on_c, 1, 34, 80
4, 21789, Note_on_c, 1, 46, 0
4, 21789, Note_on_c, 1, 34, 0
4, 21888, Note_on_c, 1, 63, 80
4, 21888, Note_on_c, 1, 51, 80
4, 21977, Note_on_c, 1, 63, 0
4, 21977, Note_on_c, 1, 51, 0
4, 21984, Note_on_c, 1, 43, 80
4, 22051, Note_on_c, 1, 43, 0
4, 22056, Note_on_c, 1, 56, 80
4, 22056, Note_on_c, 1, 44, 80
4, 22079, Note_on_c, 1, 56, 0
4, 22079, Note_on_c, 1, 44, 0
4, 22080, Note_on_c, 1, 58, 80
4, 22080, Note_on_c, 1, 46, 80
4, 22125, Note_on_c, 1, 58, 0
4, 22125, Note_on_c, 1, 46, 0
4, 22128, Note_on_c, 1, 51, 80
4, 22128, Note_on_c, 1, 39, 80
4, 22173, Note_on_c, 1, 51, 0
4, 22173, Note_on_c, 1, 39, 0
4, 22272, Note_on_c, 1, 48, 80
4, 22272, Note_on_c, 1, 36, 80
4, 22361, Note_on_c, 1, 48, 0
4, 22361, Note_on_c, 1, 36, 0
4, 22368, Note_on_c, 1, 40, 80
4, 22435, Note_on_c, 1, 40, 0
4, 22440, Note_on_c, 1, 41, 80
4, 22463, Note_on_c, 1, 41, 0
4, 22464, Note_on_c, 1, 55, 80
4, 22464, Note_on_c, 1, 43, 80
4, 22509, Note_on_c, 1, 55, 0
4, 22509, Note_on_c, 1, 43, 0
4, 22512, Note_on_c, 1, 48, 80
4, 22512, Note_on_c, 1, 36, 80
4, 22557, Note_on_c, 1, 48, 0
4, 22557, Note_on_c, 1, 36, 0
4, 22656, Note_on_c, 1, 41, 75
4, 22679, Note_on_c, 1, 41, 0
4, 22680, Note_on_c, 1, 53, 75
4, 22703, Note_on_c, 1, 53, 0
4, 22704, Note_on_c, 1, 53, 75
4, 22727, Note_on_c, 1, 53, 0
4, 22728, Note_on_c, 1, 53, 75
4, 22751, Note_on_c, 1, 53, 0
4, 22752, Note_on_c, 1, 53, 75
4, 22775, Note_on_c, 1, 53, 0
4, 22776, Note_on_c, 1, 53, 75
4, 22799, Note_on_c, 1, 53, 0
4, 22800, Note_on_c, 1, 53, 75
4, 22823, Note_on_c, 1, 53, 0
4, 22824, Note_on_c, 1, 53, 75
4, 22847, Note_on_c, 1, 53, 0
4, 22848, Note_on_c, 1, 41, 75
4, 22871, Note_on_c, 1, 41, 0
4, 22872, Note_on_c, 1, 53, 75
4, 22895, Note_on_c, 1, 53, 0
4, 22896, Note_on_c, 1, 53, 75
4, 22919, Note_on_c, 1, 53, 0
4, 22920, Note_on_c, 1, 53, 75
4, 22943, Note_on_c, 1, 53, 0
4, 22944, Note_on_c, 1, 53, 75
4, 22967, Note_on_c, 1, 53, 0
4, 22968, Note_on_c, 1, 53, 75
4, 22991, Note_on_c, 1, 53, 0
4, 22992, Note_on_c, 1, 53, 75
4, 23015, Note_on_c, 1, 53, 0
4, 23016, Note_on_c, 1, 53, 75
4, 23039, Note_on_c, 1, 53, 0
4, 23040, Note_on_c, 1, 41, 75
4, 23063, Note_on_c, 1, 41, 0
4, 23064, Note_on_c, 1, 53, 75
4, 23087, Note_on_c, 1, 53, 0
4, 23088, Note_on_c, 1, 53, 75
4, 23133, Note_on_c, 1, 53, 0
4, 23232, Note_on_c, 1, 53, 80
4, 23244, Note_on_c, 1, 53, 0
4, 23244, Note_on_c, 1, 63, 80
4, 23256, Note_on_c, 1, 63, 0
4, 23256, Note_on_c, 1, 54, 80
4, 23268, Note_on_c, 1, 54, 0
4, 23268, Note_on_c, 1, 63, 80
4, 23280, Note_on_c, 1, 63, 0
4, 23280, Note_on_c, 1, 53, 80
4, 23292, Note_on_c, 1, 53, 0
4, 23292, Note_on_c, 1, 63, 80
4, 23304, Note_on_c, 1, 63, 0
4, 23304, Note_on_c, 1, 54, 80
4, 23316, Note_on_c, 1, 54, 0
4, 23316, Note_on_c, 1, 63, 80
4, 23328, Note_on_c, 1, 63, 0
4, 23328, Note_on_c, 1, 53, 80
4, 23373, Note_on_c, 1, 53, 0
4, 23424, Note_on_c, 1, 58, 80
4, 23436, Note_on_c, 1, 58, 0
4, 23436, Note_on_c, 1, 65, 80
4, 23448, Note_on_c, 1, 65, 0
4, 23448, Note_on_c, 1, 59, 80
4, 23460, Note_on_c, 1, 59, 0
4, 23460, Note_on_c, 1, 65, 80
4, 23472, Note_on_c, 1, 65, 0
4, 23472, Note_on_c, 1, 58, 80
4, 23484, Note_on_c, 1, 58, 0
4, 23484, Note_on_c, 1, 65, 80
4, 23496, Note_on_c, 1, 65, 0
4, 23496, Note_on_c, 1, 59, 80
4, 23508, Note_on_c, 1, 59, 0
4, 23508, Note_on_c, 1, 65, 80
4, 23520, Note_on_c, 1, 65, 0
4, 23520, Note_on_c, 1, 58, 80
4, 23565, Note_on_c, 1, 58, 0
4, 23616, Note_on_c, 1, 63, 80
4, 23628, Note_on_c, 1, 63, 0
4, 23628, Note_on_c, 1, 70, 80
4, 23640, Note_on_c, 1, 70, 0
4, 23640, Note_on_c, 1, 64, 80
4, 23652, Note_on_c, 1, 64, 0
4, 23652, Note_on_c, 1, 70, 80
4, 23664, Note_on_c, 1, 70, 0
4, 23664, Note_on_c, 1, 63, 80
4, 23676, Note_on_c, 1, 63, 0
4, 23676, Note_on_c, 1, 70, 80
4, 23688, Note_on_c, 1, 70, 0
4, 23688, Note_on_c, 1, 64, 80
4, 23700, Note_on_c, 1, 64, 0
4, 23700, Note_on_c, 1, 70, 80
4, 23712, Note_on_c, 1, 70, 0
4, 23712, Note_on_c, 1, 63, 80
4, 23757, Note_on_c, 1, 63, 0
4, 23808, Note_on_c, 1, 56, 80
4, 23808, Note_on_c, 1, 51, 80
4, 23808, Note_on_c, 1, 48, 80
4, 23808, Note_on_c, 1, 44, 80
4, 23853, Note_on_c, 1, 56, 0
4, 23853, Note_on_c, 1, 51, 0
4, 23853, Note_on_c, 1, 48, 0
4, 23853, Note_on_c, 1, 44, 0
4, 23880, Note_on_c, 1, 56, 80
4, 23903, Note_on_c, 1, 56, 0
4, 23904, Note_on_c, 1, 58, 80
4, 23927, Note_on_c, 1, 58, 0
4, 23928, Note_on_c, 1, 56, 80
4, 23951, Note_on_c, 1, 56, 0
4, 23952, Note_on_c, 1, 58, 80
4, 23975, Note_on_c, 1, 58, 0
4, 23976, Note_on_c, 1, 60, 80
4, 23999, Note_on_c, 1, 60, 0
4, 24000, Note_on_c, 1, 61, 80
4, 24045, Note_on_c, 1, 61, 0
4, 24192, Note_on_c, 1, 56, 80
4, 24192, Note_on_c, 1, 51, 80
4, 24192, Note_on_c, 1, 48, 80
4, 24192, Note_on_c, 1, 44, 80
4, 24237, Note_on_c, 1, 56, 0
4, 24237, Note_on_c, 1, 51, 0
4, 24237, Note_on_c, 1, 48, 0
4, 24237, Note_on_c, 1, 44, 0
4, 24264, Note_on_c, 1, 56, 80
4, 24287, Note_on_c, 1, 56, 0
4, 24288, Note_on_c, 1, 58, 80
4, 24311, Note_on_c, 1, 58, 0
4, 24312, Note_on_c, 1, 56, 80
4, 24335, Note_on_c, 1, 56, 0
4, 24336, Note_on_c, 1, 58, 80
4, 24359, Note_on_c, 1, 58, 0
4, 24360, Note_on_c, 1, 60, 80
4, 24383, Note_on_c, 1, 60, 0
4, 24384, Note_on_c, 1, 61, 80
4, 24429, Note_on_c, 1, 61, 0
4, 24576, Note_on_c, 1, 56, 80
4, 24576, Note_on_c, 1, 51, 80
4, 24576, Note_on_c, 1, 48, 80
4, 24576, Note_on_c, 1, 44, 80
4, 24621, Note_on_c, 1, 56, 0
4, 24621, Note_on_c, 1, 51, 0
4, 24621, Note_on_c, 1, 48, 0
4, 24621, Note_on_c, 1, 44, 0
4, 24648, Note_on_c, 1, 72, 80
4, 24671, Note_on_c, 1, 72, 0
4, 24672, Note_on_c, 1, 73, 80
4, 24695, Note_on_c, 1, 73, 0
4, 24696, Note_on_c, 1, 72, 80
4, 24719, Note_on_c, 1, 72, 0
4, 24720, Note_on_c, 1, 73, 80
4, 24743, Note_on_c, 1, 73, 0
4, 24744, Note_on_c, 1, 72, 80
4, 24767, Note_on_c, 1, 72, 0
4, 24768, Note_on_c, 1, 70, 80
4, 24857, Note_on_c, 1, 70, 0
4, 24960, Note_on_c, 1, 63, 58
4, 24983, Note_on_c, 1, 63, 0
4, 24984, Note_on_c, 1, 67, 58
4, 25007, Note_on_c, 1, 67, 0
4, 25008, Note_on_c, 1, 63, 58
4, 25031, Note_on_c, 1, 63, 0
4, 25032, Note_on_c, 1, 67, 58
4, 25055, Note_on_c, 1, 67, 0
4, 25056, Note_on_c, 1, 63, 58
4, 25079, Note_on_c, 1, 63, 0
4, 25080, Note_on_c, 1, 67, 58
4, 25103, Note_on_c, 1, 67, 0
4, 25104, Note_on_c, 1, 63, 58
4, 25127, Note_on_c, 1, 63, 0
4, 25128, Note_on_c, 1, 67, 58
4, 25151, Note_on_c, 1, 67, 0
4, 25152, Note_on_c, 1, 63, 58
4, 25175, Note_on_c, 1, 63, 0
4, 25176, Note_on_c, 1, 68, 58
4, 25199, Note_on_c, 1, 68, 0
4, 25200, Note_on_c, 1, 63, 58
4, 25223, Note_on_c, 1, 63, 0
4, 25224, Note_on_c, 1, 68, 58
4, 25247, Note_on_c, 1, 68, 0
4, 25248, Note_on_c, 1, 63, 58
4, 25271, Note_on_c, 1, 63, 0
4, 25272, Note_on_c, 1, 68, 58
4, 25295, Note_on_c, 1, 68, 0
4, 25296, Note_on_c, 1, 63, 58
4, 25319, Note_on_c, 1, 63, 0
4, 25320, Note_on_c, 1, 68, 58
4, 25343, Note_on_c, 1, 68, 0
4, 25344, Note_on_c, 1, 62, 58
4, 25367, Note_on_c, 1, 62, 0
4, 25368, Note_on_c, 1, 68, 58
4, 25391, Note_on_c, 1, 68, 0
4, 25392, Note_on_c, 1, 62, 58
4, 25415, Note_on_c, 1, 62, 0
4, 25416, Note_on_c, 1, 68, 58
4, 25439, Note_on_c, 1, 68, 0
4, 25440, Note_on_c, 1, 62, 58
4, 25463, Note_on_c, 1, 62, 0
4, 25464, Note_on_c, 1, 68, 58
4, 25487, Note_on_c, 1, 68, 0
4, 25488, Note_on_c, 1, 62, 58
4, 25511, Note_on_c, 1, 62, 0
4, 25512, Note_on_c, 1, 68, 58
4, 25535, Note_on_c, 1, 68, 0
4, 25536, Note_on_c, 1, 63, 58
4, 25559, Note_on_c, 1, 63, 0
4, 25560, Note_on_c, 1, 67, 58
4, 25583, Note_on_c, 1, 67, 0
4, 25584, Note_on_c, 1, 63, 58
4, 25607, Note_on_c, 1, 63, 0
4, 25608, Note_on_c, 1, 67, 58
4, 25631, Note_on_c, 1, 67, 0
4, 25632, Note_on_c, 1, 63, 58
4, 25655, Note_on_c, 1, 63, 0
4, 25656, Note_on_c, 1, 67, 58
4, 25679, Note_on_c, 1, 67, 0
4, 25680, Note_on_c, 1, 63, 58
4, 25703, Note_on_c, 1, 63, 0
4, 25704, Note_on_c, 1, 67, 58
4, 25727, Note_on_c, 1, 67, 0
4, 25728, Note_on_c, 1, 62, 58
4, 25751, Note_on_c, 1, 62, 0
4, 25752, Note_on_c, 1, 68, 58
4, 25775, Note_on_c, 1, 68, 0
4, 25776, Note_on_c, 1, 62, 58
4, 25799, Note_on_c, 1, 62, 0
4, 25800, Note_on_c, 1, 68, 58
4, 25823, Note_on_c, 1, 68, 0
4, 25824, Note_on_c, 1, 62, 58
4, 25847, Note_on_c, 1, 62, 0
4, 25848, Note_on_c, 1, 68, 58
4, 25871, Note_on_c, 1, 68, 0
4, 25872, Note_on_c, 1, 62, 58
4, 25895, Note_on_c, 1, 62, 0
4, 25896, Note_on_c, 1, 68, 58
4, 25919, Note_on_c, 1, 68, 0
4, 25920, Note_on_c, 1, 61, 58
4, 25943, Note_on_c, 1, 61, 0
4, 25944, Note_on_c, 1, 67, 58
4, 25967, Note_on_c, 1, 67, 0
4, 25968, Note_on_c, 1, 61, 58
4, 25991, Note_on_c, 1, 61, 0
4, 25992, Note_on_c, 1, 67, 58
4, 26015, Note_on_c, 1, 67, 0
4, 26016, Note_on_c, 1, 61, 58
4, 26039, Note_on_c, 1, 61, 0
4, 26040, Note_on_c, 1, 67, 58
4, 26063, Note_on_c, 1, 67, 0
4, 26064, Note_on_c, 1, 61, 58
4, 26087, Note_on_c, 1, 61, 0
4, 26088, Note_on_c, 1, 67, 58
4, 26111, Note_on_c, 1, 67, 0
4, 26112, Note_on_c, 1, 60, 58
4, 26135, Note_on_c, 1, 60, 0
4, 26136, Note_on_c, 1, 67, 59
4, 26159, Note_on_c, 1, 67, 0
4, 26160, Note_on_c, 1, 60, 61
4, 26183, Note_on_c, 1, 60, 0
4, 26184, Note_on_c, 1, 67, 62
4, 26207, Note_on_c, 1, 67, 0
4, 26208, Note_on_c, 1, 60, 64
4, 26231, Note_on_c, 1, 60, 0
4, 26232, Note_on_c, 1, 67, 64
4, 26255, Note_on_c, 1, 67, 0
4, 26256, Note_on_c, 1, 60, 64
4, 26279, Note_on_c, 1, 60, 0
4, 26280, Note_on_c, 1, 67, 64
4, 26303, Note_on_c, 1, 67, 0
4, 26304, Note_on_c, 1, 58, 58
4, 26327, Note_on_c, 1, 58, 0
4, 26328, Note_on_c, 1, 67, 58
4, 26351, Note_on_c, 1, 67, 0
4, 26352, Note_on_c, 1, 58, 59
4, 26375, Note_on_c, 1, 58, 0
4, 26376, Note_on_c, 1, 67, 60
4, 26399, Note_on_c, 1, 67, 0
4, 26400, Note_on_c, 1, 58, 61
4, 26423, Note_on_c, 1, 58, 0
4, 26424, Note_on_c, 1, 67, 61
4, 26447, Note_on_c, 1, 67, 0
4, 26448, Note_on_c, 1, 58, 62
4, 26471, Note_on_c, 1, 58, 0
4, 26472, Note_on_c, 1, 67, 63
4, 26495, Note_on_c, 1, 67, 0
4, 26496, Note_on_c, 1, 65, 80
4, 26496, Note_on_c, 1, 53, 80
4, 26585, Note_on_c, 1, 65, 0
4, 26585, Note_on_c, 1, 53, 0
4, 26592, Note_on_c, 1, 56, 80
4, 26659, Note_on_c, 1, 56, 0
4, 26664, Note_on_c, 1, 58, 80
4, 26687, Note_on_c, 1, 58, 0
4, 26688, Note_on_c, 1, 60, 80
4, 26708, Note_on_c, 1, 60, 0
4, 26736, Note_on_c, 1, 60, 80
4, 26756, Note_on_c, 1, 60, 0
4, 26784, Note_on_c, 1, 60, 80
4, 26807, Note_on_c, 1, 60, 0
4, 26808, Note_on_c, 1, 62, 80
4, 26820, Note_on_c, 1, 62, 0
4, 26820, Note_on_c, 1, 64, 80
4, 26832, Note_on_c, 1, 64, 0
4, 26832, Note_on_c, 1, 65, 80
4, 26844, Note_on_c, 1, 65, 0
4, 26844, Note_on_c, 1, 67, 80
4, 26856, Note_on_c, 1, 67, 0
4, 26856, Note_on_c, 1, 68, 80
4, 26868, Note_on_c, 1, 68, 0
4, 26868, Note_on_c, 1, 70, 80
4, 26880, Note_on_c, 1, 70, 0
4, 26880, Note_on_c, 1, 72, 80
4, 26914, Note_on_c, 1, 72, 0
4, 26916, Note_on_c, 1, 67, 80
4, 26928, Note_on_c, 1, 67, 0
4, 26928, Note_on_c, 1, 68, 80
4, 26962, Note_on_c, 1, 68, 0
4, 26964, Note_on_c, 1, 64, 80
4, 26976, Note_on_c, 1, 64, 0
4, 26976, Note_on_c, 1, 65, 80
4, 27010, Note_on_c, 1, 65, 0
4, 27012, Note_on_c, 1, 61, 80
4, 27024, Note_on_c, 1, 61, 0
4, 27024, Note_on_c, 1, 60, 80
4, 27058, Note_on_c, 1, 60, 0
4, 27060, Note_on_c, 1, 59, 80
4, 27072, Note_on_c, 1, 59, 0
4, 27072, Note_on_c, 1, 60, 80
4, 27117, Note_on_c, 1, 60, 0
4, 27120, Note_on_c, 1, 48, 80
4, 27165, Note_on_c, 1, 48, 0
4, 27264, Note_on_c, 1, 57, 75
4, 27276, Note_on_c, 1, 57, 0
4, 27276, Note_on_c, 1, 66, 75
4, 27288, Note_on_c, 1, 66, 0
4, 27288, Note_on_c, 1, 58, 75
4, 27300, Note_on_c, 1, 58, 0
4, 27300, Note_on_c, 1, 66, 75
4, 27312, Note_on_c, 1, 66, 0
4, 27312, Note_on_c, 1, 57, 75
4, 27324, Note_on_c, 1, 57, 0
4, 27324, Note_on_c, 1, 66, 75
4, 27336, Note_on_c, 1, 66, 0
4, 27336, Note_on_c, 1, 58, 75
4, 27348, Note_on_c, 1, 58, 0
4, 27348, Note_on_c, 1, 66, 75
4, 27360, Note_on_c, 1, 66, 0
4, 27360, Note_on_c, 1, 57, 75
4, 27405, Note_on_c, 1, 57, 0
4, 27456, Note_on_c, 1, 58, 75
4, 27468, Note_on_c, 1, 58, 0
4, 27468, Note_on_c, 1, 68, 75
4, 27480, Note_on_c, 1, 68, 0
4, 27480, Note_on_c, 1, 59, 75
4, 27492, Note_on_c, 1, 59, 0
4, 27492, Note_on_c, 1, 68, 75
4, 27504, Note_on_c, 1, 68, 0
4, 27504, Note_on_c, 1, 58, 75
4, 27516, Note_on_c, 1, 58, 0
4, 27516, Note_on_c, 1, 68, 75
4, 27528, Note_on_c, 1, 68, 0
4, 27528, Note_on_c, 1, 60, 75
4, 27540, Note_on_c, 1, 60, 0
4, 27540, Note_on_c, 1, 68, 75
4, 27552, Note_on_c, 1, 68, 0
4, 27552, Note_on_c, 1, 58, 75
4, 27597, Note_on_c, 1, 58, 0
4, 27648, Note_on_c, 1, 51, 75
4, 27660, Note_on_c, 1, 51, 0
4, 27660, Note_on_c, 1, 61, 75
4, 27672, Note_on_c, 1, 61, 0
4, 27672, Note_on_c, 1, 52, 75
4, 27684, Note_on_c, 1, 52, 0
4, 27684, Note_on_c, 1, 61, 75
4, 27696, Note_on_c, 1, 61, 0
4, 27696, Note_on_c, 1, 51, 75
4, 27708, Note_on_c, 1, 51, 0
4, 27708, Note_on_c, 1, 61, 75
4, 27720, Note_on_c, 1, 61, 0
4, 27720, Note_on_c, 1, 52, 75
4, 27732, Note_on_c, 1, 52, 0
4, 27732, Note_on_c, 1, 61, 75
4, 27744, Note_on_c, 1, 61, 0
4, 27744, Note_on_c, 1, 51, 75
4, 27789, Note_on_c, 1, 51, 0
4, 27840, Note_on_c, 1, 64, 75
4, 27852, Note_on_c, 1, 64, 0
4, 27852, Note_on_c, 1, 70, 75
4, 27864, Note_on_c, 1, 70, 0
4, 27864, Note_on_c, 1, 65, 75
4, 27876, Note_on_c, 1, 65, 0
4, 27876, Note_on_c, 1, 70, 75
4, 27888, Note_on_c, 1, 70, 0
4, 27888, Note_on_c, 1, 64, 75
4, 27900, Note_on_c, 1, 64, 0
4, 27900, Note_on_c, 1, 70, 75
4, 27912, Note_on_c, 1, 70, 0
4, 27912, Note_on_c, 1, 65, 75
4, 27924, Note_on_c, 1, 65, 0
4, 27924, Note_on_c, 1, 70, 75
4, 27936, Note_on_c, 1, 70, 0
4, 27936, Note_on_c, 1, 64, 75
4, 27981, Note_on_c, 1, 64, 0
4, 28032, Note_on_c, 1, 53, 75
4, 28044, Note_on_c, 1, 53, 0
4, 28044, Note_on_c, 1, 63, 75
4, 28056, Note_on_c, 1, 63, 0
4, 28056, Note_on_c, 1, 54, 75
4, 28068, Note_on_c, 1, 54, 0
4, 28068, Note_on_c, 1, 63, 75
4, 28080, Note_on_c, 1, 63, 0
4, 28080, Note_on_c, 1, 53, 75
4, 28092, Note_on_c, 1, 53, 0
4, 28092, Note_on_c, 1, 63, 75
4, 28104, Note_on_c, 1, 63, 0
4, 28104, Note_on_c, 1, 54, 75
4, 28116, Note_on_c, 1, 54, 0
4, 28116, Note_on_c, 1, 63, 75
4, 28128, Note_on_c, 1, 63, 0
4, 28128, Note_on_c, 1, 53, 75
4, 28173, Note_on_c, 1, 53, 0
4, 28224, Note_on_c, 1, 66, 75
4, 28236, Note_on_c, 1, 66, 0
4, 28236, Note_on_c, 1, 72, 75
4, 28248, Note_on_c, 1, 72, 0
4, 28248, Note_on_c, 1, 67, 75
4, 28260, Note_on_c, 1, 67, 0
4, 28260, Note_on_c, 1, 72, 75
4, 28272, Note_on_c, 1, 72, 0
4, 28272, Note_on_c, 1, 66, 75
4, 28284, Note_on_c, 1, 66, 0
4, 28284, Note_on_c, 1, 72, 75
4, 28296, Note_on_c, 1, 72, 0
4, 28296, Note_on_c, 1, 67, 75
4, 28308, Note_on_c, 1, 67, 0
4, 28308, Note_on_c, 1, 72, 75
4, 28320, Note_on_c, 1, 72, 0
4, 28320, Note_on_c, 1, 66, 75
4, 28365, Note_on_c, 1, 66, 0
4, 28416, Note_on_c, 1, 67, 75
4, 28416, Note_on_c, 1, 55, 75
4, 28461, Note_on_c, 1, 67, 0
4, 28461, Note_on_c, 1, 55, 0
4, 28512, Note_on_c, 1, 60, 75
4, 28512, Note_on_c, 1, 48, 75
4, 28557, Note_on_c, 1, 60, 0
4, 28557, Note_on_c, 1, 48, 0
4, 28608, Note_on_c, 1, 50, 80
4, 28608, Note_on_c, 1, 38, 80
4, 28675, Note_on_c, 1, 50, 0
4, 28675, Note_on_c, 1, 38, 0
4, 28680, Note_on_c, 1, 54, 80
4, 28703, Note_on_c, 1, 54, 0
4, 28704, Note_on_c, 1, 55, 80
4, 28727, Note_on_c, 1, 55, 0
4, 28728, Note_on_c, 1, 57, 80
4, 28751, Note_on_c, 1, 57, 0
4, 28752, Note_on_c, 1, 58, 80
4, 28775, Note_on_c, 1, 58, 0
4, 28776, Note_on_c, 1, 49, 80
4, 28799, Note_on_c, 1, 49, 0
4, 28800, Note_on_c, 1, 50, 80
4, 28823, Note_on_c, 1, 50, 0
4, 28824, Note_on_c, 1, 49, 80
4, 28847, Note_on_c, 1, 49, 0
4, 28848, Note_on_c, 1, 50, 80
4, 28871, Note_on_c, 1, 50, 0
4, 28872, Note_on_c, 1, 54, 80
4, 28895, Note_on_c, 1, 54, 0
4, 28896, Note_on_c, 1, 55, 80
4, 28919, Note_on_c, 1, 55, 0
4, 28920, Note_on_c, 1, 57, 80
4, 28943, Note_on_c, 1, 57, 0
4, 28944, Note_on_c, 1, 58, 80
4, 28967, Note_on_c, 1, 58, 0
4, 28968, Note_on_c, 1, 49, 80
4, 28991, Note_on_c, 1, 49, 0
4, 28992, Note_on_c, 1, 50, 80
4, 29015, Note_on_c, 1, 50, 0
4, 29016, Note_on_c, 1, 49, 80
4, 29039, Note_on_c, 1, 49, 0
4, 29040, Note_on_c, 1, 50, 80
4, 29063, Note_on_c, 1, 50, 0
4, 29064, Note_on_c, 1, 55, 80
4, 29087, Note_on_c, 1, 55, 0
4, 29088, Note_on_c, 1, 54, 80
4, 29111, Note_on_c, 1, 54, 0
4, 29112, Note_on_c, 1, 49, 80
4, 29135, Note_on_c, 1, 49, 0
4, 29136, Note_on_c, 1, 50, 80
4, 29159, Note_on_c, 1, 50, 0
4, 29160, Note_on_c, 1, 55, 80
4, 29183, Note_on_c, 1, 55, 0
4, 29184, Note_on_c, 1, 54, 80
4, 29207, Note_on_c, 1, 54, 0
4, 29208, Note_on_c, 1, 49, 80
4, 29231, Note_on_c, 1, 49, 0
4, 29232, Note_on_c, 1, 50, 80
4, 29255, Note_on_c, 1, 50, 0
4, 29256, Note_on_c, 1, 55, 80
4, 29279, Note_on_c, 1, 55, 0
4, 29280, Note_on_c, 1, 54, 80
4, 29303, Note_on_c, 1, 54, 0
4, 29304, Note_on_c, 1, 55, 80
4, 29327, Note_on_c, 1, 55, 0
4, 29328, Note_on_c, 1, 54, 80
4, 29351, Note_on_c, 1, 54, 0
4, 29352, Note_on_c, 1, 55, 80
4, 29375, Note_on_c, 1, 55, 0
4, 29376, Note_on_c, 1, 54, 80
4, 29415, Note_on_c, 1, 54, 0
4, 29568, Note_on_c, 1, 51, 64
4, 29568, Note_on_c, 1, 39, 64
4, 29745, Note_on_c, 1, 51, 0
4, 29745, Note_on_c, 1, 39, 0
4, 29760, Note_on_c, 1, 50, 64
4, 29760, Note_on_c, 1, 38, 64
4, 29937, Note_on_c, 1, 50, 0
4, 29937, Note_on_c, 1, 38, 0
4, 29952, Note_on_c, 1, 48, 64
4, 29952, Note_on_c, 1, 36, 64
4, 29991, Note_on_c, 1, 48, 0
4, 29991, Note_on_c, 1, 36, 0
4, 30048, Note_on_c, 1, 45, 64
4, 30048, Note_on_c, 1, 33, 64
4, 30087, Note_on_c, 1, 45, 0
4, 30087, Note_on_c, 1, 33, 0
4, 30144, Note_on_c, 1, 46, 64
4, 30144, Note_on_c, 1, 34, 64
4, 30183, Note_on_c, 1, 46, 0
4, 30183, Note_on_c, 1, 34, 0
4, 30240, Note_on_c, 1, 58, 64
4, 30279, Note_on_c, 1, 58, 0
4, 30372, Note_on_c, 1, 52, 64
4, 30384, Note_on_c, 1, 52, 0
4, 30384, Note_on_c, 1, 55, 64
4, 30418, Note_on_c, 1, 55, 0
4, 30420, Note_on_c, 1, 58, 64
4, 30432, Note_on_c, 1, 58, 0
4, 30432, Note_on_c, 1, 58, 64
4, 30480, Note_on_c, 1, 58, 0
4, 30480, Note_on_c, 1, 56, 64
4, 30525, Note_on_c, 1, 56, 0
4, 30564, Note_on_c, 1, 50, 64
4, 30576, Note_on_c, 1, 50, 0
4, 30576, Note_on_c, 1, 53, 64
4, 30610, Note_on_c, 1, 53, 0
4, 30612, Note_on_c, 1, 56, 64
4, 30624, Note_on_c, 1, 56, 0
4, 30624, Note_on_c, 1, 56, 64
4, 30672, Note_on_c, 1, 56, 0
4, 30672, Note_on_c, 1, 55, 64
4, 30717, Note_on_c, 1, 55, 0
4, 30768, Note_on_c, 1, 44, 64
4, 30813, Note_on_c, 1, 44, 0
4, 30864, Note_on_c, 1, 56, 64
4, 30864, Note_on_c, 1, 46, 64
4, 30909, Note_on_c, 1, 56, 0
4, 30909, Note_on_c, 1, 46, 0
4, 30912, Note_on_c, 1, 56, 64
4, 30912, Note_on_c, 1, 51, 64
4, 31008, Note_on_c, 1, 56, 0
4, 31008, Note_on_c, 1, 55, 64
4, 31053, Note_on_c, 1, 55, 0
4, 31053, Note_on_c, 1, 51, 0
4, 31140, Note_on_c, 1, 64, 64
4, 31152, Note_on_c, 1, 64, 0
4, 31152, Note_on_c, 1, 67, 64
4, 31186, Note_on_c, 1, 67, 0
4, 31188, Note_on_c, 1, 70, 64
4, 31200, Note_on_c, 1, 70, 0
4, 31200, Note_on_c, 1, 70, 64
4, 31248, Note_on_c, 1, 70, 0
4, 31248, Note_on_c, 1, 68, 64
4, 31293, Note_on_c, 1, 68, 0
4, 31332, Note_on_c, 1, 62, 64
4, 31344, Note_on_c, 1, 62, 0
4, 31344, Note_on_c, 1, 65, 64
4, 31378, Note_on_c, 1, 65, 0
4, 31380, Note_on_c, 1, 68, 64
4, 31392, Note_on_c, 1, 68, 0
4, 31392, Note_on_c, 1, 68, 64
4, 31440, Note_on_c, 1, 68, 0
4, 31440, Note_on_c, 1, 67, 64
4, 31485, Note_on_c, 1, 67, 0
4, 31488, Note_on_c, 1, 70, 64
4, 31511, Note_on_c, 1, 70, 0
4, 31512, Note_on_c, 1, 67, 64
4, 31524, Note_on_c, 1, 67, 0
4, 31524, Note_on_c, 1, 70, 64
4, 31536, Note_on_c, 1, 70, 0
4, 31536, Note_on_c, 1, 65, 65
4, 31548, Note_on_c, 1, 65, 0
4, 31548, Note_on_c, 1, 70, 65
4, 31560, Note_on_c, 1, 70, 0
4, 31560, Note_on_c, 1, 63, 65
4, 31572, Note_on_c, 1, 63, 0
4, 31572, Note_on_c, 1, 70, 66
4, 31584, Note_on_c, 1, 70, 0
4, 31584, Note_on_c, 1, 62, 66
4, 31607, Note_on_c, 1, 62, 0
4, 31608, Note_on_c, 1, 67, 66
4, 31620, Note_on_c, 1, 67, 0
4, 31620, Note_on_c, 1, 70, 67
4, 31632, Note_on_c, 1, 70, 0
4, 31632, Note_on_c, 1, 65, 67
4, 31644, Note_on_c, 1, 65, 0
4, 31644, Note_on_c, 1, 70, 67
4, 31656, Note_on_c, 1, 70, 0
4, 31656, Note_on_c, 1, 63, 68
4, 31668, Note_on_c, 1, 63, 0
4, 31668, Note_on_c, 1, 70, 68
4, 31680, Note_on_c, 1, 70, 0
4, 31680, Note_on_c, 1, 62, 68
4, 31703, Note_on_c, 1, 62, 0
4, 31704, Note_on_c, 1, 68, 69
4, 31727, Note_on_c, 1, 68, 0
4, 31728, Note_on_c, 1, 67, 69
4, 31751, Note_on_c, 1, 67, 0
4, 31752, Note_on_c, 1, 65, 70
4, 31775, Note_on_c, 1, 65, 0
4, 31776, Note_on_c, 1, 63, 70
4, 31799, Note_on_c, 1, 63, 0
4, 31800, Note_on_c, 1, 68, 71
4, 31823, Note_on_c, 1, 68, 0
4, 31824, Note_on_c, 1, 67, 72
4, 31847, Note_on_c, 1, 67, 0
4, 31848, Note_on_c, 1, 65, 72
4, 31871, Note_on_c, 1, 65, 0
4, 31872, Note_on_c, 1, 63, 73
4, 31895, Note_on_c, 1, 63, 0
4, 31896, Note_on_c, 1, 65, 73
4, 31919, Note_on_c, 1, 65, 0
4, 31920, Note_on_c, 1, 63, 74
4, 31943, Note_on_c, 1, 63, 0
4, 31944, Note_on_c, 1, 61, 74
4, 31967, Note_on_c, 1, 61, 0
4, 31968, Note_on_c, 1, 60, 75
4, 31991, Note_on_c, 1, 60, 0
4, 31992, Note_on_c, 1, 61, 76
4, 32015, Note_on_c, 1, 61, 0
4, 32016, Note_on_c, 1, 60, 76
4, 32039, Note_on_c, 1, 60, 0
4, 32040, Note_on_c, 1, 58, 77
4, 32063, Note_on_c, 1, 58, 0
4, 32064, Note_on_c, 1, 56, 77
4, 32153, Note_on_c, 1, 56, 0
4, 32256, Note_on_c, 1, 53, 80
4, 32256, Note_on_c, 1, 48, 80
4, 32256, Note_on_c, 1, 44, 80
4, 32345, Note_on_c, 1, 53, 0
4, 32345, Note_on_c, 1, 48, 0
4, 32345, Note_on_c, 1, 44, 0
4, 32448, Note_on_c, 1, 67, 80
4, 32448, Note_on_c, 1, 58, 80
4, 32544, Note_on_c, 1, 67, 0
4, 32544, Note_on_c, 1, 65, 69
4, 32589, Note_on_c, 1, 65, 0
4, 32589, Note_on_c, 1, 58, 0
4, 32640, Note_on_c, 1, 51, 75
4, 32640, Note_on_c, 1, 39, 75
4, 32685, Note_on_c, 1, 51, 0
4, 32685, Note_on_c, 1, 39, 0
4, 32712, Note_on_c, 1, 51, 75
4, 32735, Note_on_c, 1, 51, 0
4, 32736, Note_on_c, 1, 53, 75
4, 32759, Note_on_c, 1, 53, 0
4, 32760, Note_on_c, 1, 51, 75
4, 32783, Note_on_c, 1, 51, 0
4, 32784, Note_on_c, 1, 53, 75
4, 32807, Note_on_c, 1, 53, 0
4, 32808, Note_on_c, 1, 55, 75
4, 32831, Note_on_c, 1, 55, 0
4, 32832, Note_on_c, 1, 56, 75
4, 32921, Note_on_c, 1, 56, 0
4, 33024, Note_on_c, 1, 51, 75
4, 33024, Note_on_c, 1, 39, 75
4, 33069, Note_on_c, 1, 51, 0
4, 33069, Note_on_c, 1, 39, 0
4, 33096, Note_on_c, 1, 51, 75
4, 33119, Note_on_c, 1, 51, 0
4, 33120, Note_on_c, 1, 41, 75
4, 33143, Note_on_c, 1, 41, 0
4, 33144, Note_on_c, 1, 39, 75
4, 33167, Note_on_c, 1, 39, 0
4, 33168, Note_on_c, 1, 41, 75
4, 33191, Note_on_c, 1, 41, 0
4, 33192, Note_on_c, 1, 43, 75
4, 33215, Note_on_c, 1, 43, 0
4, 33216, Note_on_c, 1, 44, 75
4, 33305, Note_on_c, 1, 44, 0
4, 33408, Note_on_c, 1, 51, 75
4, 33408, Note_on_c, 1, 39, 75
4, 33453, Note_on_c, 1, 51, 0
4, 33453, Note_on_c, 1, 39, 0
4, 33480, Note_on_c, 1, 67, 75
4, 33503, Note_on_c, 1, 67, 0
4, 33504, Note_on_c, 1, 68, 75
4, 33527, Note_on_c, 1, 68, 0
4, 33528, Note_on_c, 1, 67, 75
4, 33551, Note_on_c, 1, 67, 0
4, 33552, Note_on_c, 1, 68, 75
4, 33575, Note_on_c, 1, 68, 0
4, 33576, Note_on_c, 1, 70, 75
4, 33599, Note_on_c, 1, 70, 0
4, 33600, Note_on_c, 1, 68, 75
4, 33689, Note_on_c, 1, 68, 0
4, 33816, Note_on_c, 1, 68, 70
4, 33816, Note_on_c, 1, 62, 70
4, 33826, Note_on_c, 1, 68, 0
4, 33826, Note_on_c, 1, 62, 0
4, 33840, Note_on_c, 1, 68, 70
4, 33840, Note_on_c, 1, 62, 70
4, 33850, Note_on_c, 1, 68, 0
4, 33850, Note_on_c, 1, 62, 0
4, 33864, Note_on_c, 1, 68, 70
4, 33864, Note_on_c, 1, 62, 70
4, 33874, Note_on_c, 1, 68, 0
4, 33874, Note_on_c, 1, 62, 0
4, 33888, Note_on_c, 1, 67, 70
4, 33888, Note_on_c, 1, 63, 70
4, 33933, Note_on_c, 1, 67, 0
4, 33933, Note_on_c, 1, 63, 0
4, 34008, Note_on_c, 1, 67, 64
4, 34008, Note_on_c, 1, 60, 64
4, 34018, Note_on_c, 1, 67, 0
4, 34018, Note_on_c, 1, 60, 0
4, 34032, Note_on_c, 1, 67, 64
4, 34032, Note_on_c, 1, 60, 64
4, 34042, Note_on_c, 1, 67, 0
4, 34042, Note_on_c, 1, 60, 0
4, 34056, Note_on_c, 1, 67, 64
4, 34056, Note_on_c, 1, 60, 64
4, 34066, Note_on_c, 1, 67, 0
4, 34066, Note_on_c, 1, 60, 0
4, 34080, Note_on_c, 1, 65, 64
4, 34080, Note_on_c, 1, 62, 64
4, 34125, Note_on_c, 1, 65, 0
4, 34125, Note_on_c, 1, 62, 0
4, 34200, Note_on_c, 1, 65, 64
4, 34200, Note_on_c, 1, 59, 64
4, 34210, Note_on_c, 1, 65, 0
4, 34210, Note_on_c, 1, 59, 0
4, 34224, Note_on_c, 1, 65, 64
4, 34224, Note_on_c, 1, 59, 64
4, 34234, Note_on_c, 1, 65, 0
4, 34234, Note_on_c, 1, 59, 0
4, 34248, Note_on_c, 1, 65, 64
4, 34248, Note_on_c, 1, 59, 64
4, 34258, Note_on_c, 1, 65, 0
4, 34258, Note_on_c, 1, 59, 0
4, 34272, Note_on_c, 1, 63, 64
4, 34272, Note_on_c, 1, 60, 64
4, 34317, Note_on_c, 1, 63, 0
4, 34317, Note_on_c, 1, 60, 0
4, 34392, Note_on_c, 1, 63, 75
4, 34416, Note_on_c, 1, 63, 0
4, 34416, Note_on_c, 1, 57, 75
4, 34439, Note_on_c, 1, 57, 0
4, 34488, Note_on_c, 1, 63, 76
4, 34512, Note_on_c, 1, 63, 0
4, 34512, Note_on_c, 1, 58, 76
4, 34535, Note_on_c, 1, 58, 0
4, 34584, Note_on_c, 1, 63, 77
4, 34608, Note_on_c, 1, 63, 0
4, 34608, Note_on_c, 1, 60, 77
4, 34631, Note_on_c, 1, 60, 0
4, 34680, Note_on_c, 1, 63, 78
4, 34704, Note_on_c, 1, 63, 0
4, 34704, Note_on_c, 1, 58, 79
4, 34727, Note_on_c, 1, 58, 0
4, 34752, Note_on_c, 1, 57, 79
4, 34775, Note_on_c, 1, 57, 0
4, 34776, Note_on_c, 1, 58, 80
4, 34799, Note_on_c, 1, 58, 0
4, 34800, Note_on_c, 1, 57, 80
4, 34823, Note_on_c, 1, 57, 0
4, 34824, Note_on_c, 1, 58, 80
4, 34847, Note_on_c, 1, 58, 0
4, 34848, Note_on_c, 1, 57, 80
4, 34893, Note_on_c, 1, 57, 0
4, 34920, Note_on_c, 1, 65, 80
4, 34920, Note_on_c, 1, 57, 80
4, 34944, Note_on_c, 1, 65, 0
4, 34944, Note_on_c, 1, 57, 0
4, 34944, Note_on_c, 1, 65, 80
4, 34944, Note_on_c, 1, 58, 80
4, 34989, Note_on_c, 1, 65, 0
4, 34989, Note_on_c, 1, 58, 0
4, 35016, Note_on_c, 1, 65, 77
4, 35016, Note_on_c, 1, 57, 77
4, 35040, Note_on_c, 1, 65, 0
4, 35040, Note_on_c, 1, 57, 0
4, 35040, Note_on_c, 1, 65, 76
4, 35040, Note_on_c, 1, 58, 76
4, 35085, Note_on_c, 1, 65, 0
4, 35085, Note_on_c, 1, 58, 0
4, 35112, Note_on_c, 1, 65, 73
4, 35112, Note_on_c, 1, 57, 73
4, 35136, Note_on_c, 1, 65, 0
4, 35136, Note_on_c, 1, 57, 0
4, 35136, Note_on_c, 1, 65, 72
4, 35136, Note_on_c, 1, 58, 72
4, 35181, Note_on_c, 1, 65, 0
4, 35181, Note_on_c, 1, 58, 0
4, 35208, Note_on_c, 1, 34, 64
4, 35220, Note_on_c, 1, 34, 0
4, 35220, Note_on_c, 1, 46, 66
4, 35232, Note_on_c, 1, 46, 0
4, 35232, Note_on_c, 1, 36, 68
4, 35244, Note_on_c, 1, 36, 0
4, 35244, Note_on_c, 1, 48, 70
4, 35256, Note_on_c, 1, 48, 0
4, 35256, Note_on_c, 1, 34, 72
4, 35268, Note_on_c, 1, 34, 0
4, 35268, Note_on_c, 1, 46, 75
4, 35280, Note_on_c, 1, 46, 0
4, 35280, Note_on_c, 1, 36, 77
4, 35292, Note_on_c, 1, 36, 0
4, 35292, Note_on_c, 1, 48, 79
4, 35304, Note_on_c, 1, 48, 0
4, 35304, Note_on_c, 1, 38, 81
4, 35316, Note_on_c, 1, 38, 0
4, 35316, Note_on_c, 1, 50, 83
4, 35328, Note_on_c, 1, 50, 0
4, 35328, Note_on_c, 1, 39, 86
4, 35351, Note_on_c, 1, 39, 0
4, 35352, Note_on_c, 1, 51, 86
4, 35375, Note_on_c, 1, 51, 0
4, 35376, Note_on_c, 1, 51, 86
4, 35399, Note_on_c, 1, 51, 0
4, 35400, Note_on_c, 1, 51, 86
4, 35423, Note_on_c, 1, 51, 0
4, 35424, Note_on_c, 1, 51, 86
4, 35447, Note_on_c, 1, 51, 0
4, 35448, Note_on_c, 1, 51, 86
4, 35471, Note_on_c, 1, 51, 0
4, 35472, Note_on_c, 1, 51, 86
4, 35495, Note_on_c, 1, 51, 0
4, 35496, Note_on_c, 1, 51, 86
4, 35519, Note_on_c, 1, 51, 0
4, 35520, Note_on_c, 1, 39, 86
4, 35543, Note_on_c, 1, 39, 0
4, 35544, Note_on_c, 1, 51, 86
4, 35567, Note_on_c, 1, 51, 0
4, 35568, Note_on_c, 1, 51, 86
4, 35591, Note_on_c, 1, 51, 0
4, 35592, Note_on_c, 1, 51, 86
4, 35615, Note_on_c, 1, 51, 0
4, 35616, Note_on_c, 1, 51, 86
4, 35639, Note_on_c, 1, 51, 0
4, 35640, Note_on_c, 1, 51, 86
4, 35663, Note_on_c, 1, 51, 0
4, 35664, Note_on_c, 1, 51, 86
4, 35687, Note_on_c, 1, 51, 0
4, 35688, Note_on_c, 1, 51, 86
4, 35711, Note_on_c, 1, 51, 0
4, 35712, Note_on_c, 1, 39, 86
4, 35735, Note_on_c, 1, 39, 0
4, 35736, Note_on_c, 1, 51, 86
4, 35759, Note_on_c, 1, 51, 0
4, 35760, Note_on_c, 1, 51, 86
4, 35805, Note_on_c, 1, 51, 0
4, 35904, Note_on_c, 1, 63, 75
4, 35927, Note_on_c, 1, 63, 0
4, 35928, Note_on_c, 1, 63, 75
4, 35951, Note_on_c, 1, 63, 0
4, 35952, Note_on_c, 1, 63, 76
4, 35975, Note_on_c, 1, 63, 0
4, 35976, Note_on_c, 1, 63, 77
4, 35999, Note_on_c, 1, 63, 0
4, 36096, Note_on_c, 1, 65, 80
4, 36096, Note_on_c, 1, 60, 80
4, 36096, Note_on_c, 1, 56, 80
4, 36229, Note_on_c, 1, 65, 0
4, 36229, Note_on_c, 1, 60, 0
4, 36229, Note_on_c, 1, 56, 0
4, 36336, Note_on_c, 1, 54, 76
4, 36336, Note_on_c, 1, 45, 76
4, 36381, Note_on_c, 1, 54, 0
4, 36381, Note_on_c, 1, 45, 0
4, 36384, Note_on_c, 1, 55, 73
4, 36384, Note_on_c, 1, 46, 73
4, 36432, Note_on_c, 1, 55, 0
4, 36432, Note_on_c, 1, 56, 70
4, 36477, Note_on_c, 1, 56, 0
4, 36477, Note_on_c, 1, 46, 0
4, 36480, Note_on_c, 1, 55, 67
4, 36480, Note_on_c, 1, 48, 67
4, 36527, Note_on_c, 1, 55, 0
4, 36527, Note_on_c, 1, 48, 0
4, 36552, Note_on_c, 1, 43, 80
4, 36575, Note_on_c, 1, 43, 0
4, 36576, Note_on_c, 1, 44, 80
4, 36599, Note_on_c, 1, 44, 0
4, 36600, Note_on_c, 1, 43, 80
4, 36623, Note_on_c, 1, 43, 0
4, 36624, Note_on_c, 1, 44, 81
4, 36647, Note_on_c, 1, 44, 0
4, 36648, Note_on_c, 1, 45, 82
4, 36671, Note_on_c, 1, 45, 0
4, 36672, Note_on_c, 1, 46, 83
4, 36695, Note_on_c, 1, 46, 0
4, 36696, Note_on_c, 1, 45, 83
4, 36719, Note_on_c, 1, 45, 0
4, 36720, Note_on_c, 1, 46, 84
4, 36743, Note_on_c, 1, 46, 0
4, 36744, Note_on_c, 1, 43, 85
4, 36767, Note_on_c, 1, 43, 0
4, 36768, Note_on_c, 1, 44, 86
4, 36791, Note_on_c, 1, 44, 0
4, 36792, Note_on_c, 1, 45, 83
4, 36815, Note_on_c, 1, 45, 0
4, 36816, Note_on_c, 1, 46, 81
4, 36839, Note_on_c, 1, 46, 0
4, 36840, Note_on_c, 1, 47, 79
4, 36863, Note_on_c, 1, 47, 0
4, 36864, Note_on_c, 1, 48, 76
4, 36887, Note_on_c, 1, 48, 0
4, 36888, Note_on_c, 1, 47, 74
4, 36911, Note_on_c, 1, 47, 0
4, 36912, Note_on_c, 1, 48, 72
4, 36935, Note_on_c, 1, 48, 0
4, 36936, Note_on_c, 1, 44, 70
4, 36959, Note_on_c, 1, 44, 0
4, 36960, Note_on_c, 1, 46, 70
4, 37005, Note_on_c, 1, 46, 0
4, 37008, Note_on_c, 1, 34, 70
4, 37053, Note_on_c, 1, 34, 0
4, 37056, Note_on_c, 1, 48, 70
4, 37101, Note_on_c, 1, 48, 0
4, 37104, Note_on_c, 1, 44, 70
4, 37149, Note_on_c, 1, 44, 0
4, 37152, Note_on_c, 1, 46, 70
4, 37197, Note_on_c, 1, 46, 0
4, 37200, Note_on_c, 1, 34, 70
4, 37245, Note_on_c, 1, 34, 0
4, 37248, Note_on_c, 1, 55, 75
4, 37248, Note_on_c, 1, 51, 75
4, 37293, Note_on_c, 1, 55, 0
4, 37293, Note_on_c, 1, 51, 0
4, 37320, Note_on_c, 1, 56, 75
4, 37320, Note_on_c, 1, 46, 75
4, 37343, Note_on_c, 1, 56, 0
4, 37343, Note_on_c, 1, 46, 0
4, 37344, Note_on_c, 1, 55, 75
4, 37344, Note_on_c, 1, 51, 75
4, 37389, Note_on_c, 1, 55, 0
4, 37389, Note_on_c, 1, 51, 0
4, 37416, Note_on_c, 1, 56, 75
4, 37416, Note_on_c, 1, 46, 75
4, 37439, Note_on_c, 1, 56, 0
4, 37439, Note_on_c, 1, 46, 0
4, 37440, Note_on_c, 1, 55, 75
4, 37440, Note_on_c, 1, 51, 75
4, 37485, Note_on_c, 1, 55, 0
4, 37485, Note_on_c, 1, 51, 0
4, 37632, Note_on_c, 1, 55, 80
4, 37632, Note_on_c, 1, 43, 80
4, 37809, Note_on_c, 1, 55, 0
4, 37809, Note_on_c, 1, 43, 0
4, 37824, Note_on_c, 1, 53, 80
4, 37824, Note_on_c, 1, 41, 80
4, 38001, Note_on_c, 1, 53, 0
4, 38001, Note_on_c, 1, 41, 0
4, 38040, Note_on_c, 1, 67, 64
4, 38064, Note_on_c, 1, 67, 0
4, 38064, Note_on_c, 1, 63, 64
4, 38087, Note_on_c, 1, 63, 0
4, 38136, Note_on_c, 1, 68, 64
4, 38160, Note_on_c, 1, 68, 0
4, 38160, Note_on_c, 1, 65, 64
4, 38183, Note_on_c, 1, 65, 0
4, 38232, Note_on_c, 1, 70, 64
4, 38256, Note_on_c, 1, 70, 0
4, 38256, Note_on_c, 1, 67, 64
4, 38279, Note_on_c, 1, 67, 0
4, 38304, Note_on_c, 1, 68, 64
4, 38349, Note_on_c, 1, 68, 0
4, 38400, Note_on_c, 1, 58, 80
4, 38400, Note_on_c, 1, 46, 80
4, 38489, Note_on_c, 1, 58, 0
4, 38489, Note_on_c, 1, 46, 0
4, 38496, Note_on_c, 1, 38, 80
4, 38563, Note_on_c, 1, 38, 0
4, 38568, Note_on_c, 1, 51, 80
4, 38568, Note_on_c, 1, 39, 80
4, 38591, Note_on_c, 1, 51, 0
4, 38591, Note_on_c, 1, 39, 0
4, 38592, Note_on_c, 1, 53, 80
4, 38592, Note_on_c, 1, 41, 80
4, 38637, Note_on_c, 1, 53, 0
4, 38637, Note_on_c, 1, 41, 0
4, 38640, Note_on_c, 1, 46, 80
4, 38640, Note_on_c, 1, 34, 80
4, 38685, Note_on_c, 1, 46, 0
4, 38685, Note_on_c, 1, 34, 0
4, 38784, Note_on_c, 1, 63, 80
4, 38784, Note_on_c, 1, 51, 80
4, 38873, Note_on_c, 1, 63, 0
4, 38873, Note_on_c, 1, 51, 0
4, 38880, Note_on_c, 1, 43, 80
4, 38947, Note_on_c, 1, 43, 0
4, 38952, Note_on_c, 1, 56, 80
4, 38952, Note_on_c, 1, 44, 80
4, 38975, Note_on_c, 1, 56, 0
4, 38975, Note_on_c, 1, 44, 0
4, 38976, Note_on_c, 1, 58, 80
4, 38976, Note_on_c, 1, 46, 80
4, 39021, Note_on_c, 1, 58, 0
4, 39021, Note_on_c, 1, 46, 0
4, 39024, Note_on_c, 1, 51, 80
4, 39024, Note_on_c, 1, 39, 80
4, 39069, Note_on_c, 1, 51, 0
4, 39069, Note_on_c, 1, 39, 0
4, 39168, Note_on_c, 1, 48, 80
4, 39168, Note_on_c, 1, 36, 80
4, 39257, Note_on_c, 1, 48, 0
4, 39257, Note_on_c, 1, 36, 0
4, 39264, Note_on_c, 1, 40, 80
4, 39331, Note_on_c, 1, 40, 0
4, 39336, Note_on_c, 1, 41, 80
4, 39359, Note_on_c, 1, 41, 0
4, 39360, Note_on_c, 1, 55, 80
4, 39360, Note_on_c, 1, 43, 80
4, 39405, Note_on_c, 1, 55, 0
4, 39405, Note_on_c, 1, 43, 0
4, 39408, Note_on_c, 1, 48, 80
4, 39408, Note_on_c, 1, 36, 80
4, 39453, Note_on_c, 1, 48, 0
4, 39453, Note_on_c, 1, 36, 0
4, 39552, Note_on_c, 1, 41, 75
4, 39575, Note_on_c, 1, 41, 0
4, 39576, Note_on_c, 1, 53, 75
4, 39599, Note_on_c, 1, 53, 0
4, 39600, Note_on_c, 1, 53, 75
4, 39623, Note_on_c, 1, 53, 0
4, 39624, Note_on_c, 1, 53, 75
4, 39647, Note_on_c, 1, 53, 0
4, 39648, Note_on_c, 1, 53, 75
4, 39671, Note_on_c, 1, 53, 0
4, 39672, Note_on_c, 1, 53, 75
4, 39695, Note_on_c, 1, 53, 0
4, 39696, Note_on_c, 1, 53, 75
4, 39719, Note_on_c, 1, 53, 0
4, 39720, Note_on_c, 1, 53, 75
4, 39743, Note_on_c, 1, 53, 0
4, 39744, Note_on_c, 1, 41, 75
4, 39767, Note_on_c, 1, 41, 0
4, 39768, Note_on_c, 1, 53, 75
4, 39791, Note_on_c, 1, 53, 0
4, 39792, Note_on_c, 1, 53, 75
4, 39815, Note_on_c, 1, 53, 0
4, 39816, Note_on_c, 1, 53, 75
4, 39839, Note_on_c, 1, 53, 0
4, 39840, Note_on_c, 1, 53, 75
4, 39863, Note_on_c, 1, 53, 0
4, 39864, Note_on_c, 1, 53, 75
4, 39887, Note_on_c, 1, 53, 0
4, 39888, Note_on_c, 1, 53, 75
4, 39911, Note_on_c, 1, 53, 0
4, 39912, Note_on_c, 1, 53, 75
4, 39935, Note_on_c, 1, 53, 0
4, 39936, Note_on_c, 1, 41, 75
4, 39959, Note_on_c, 1, 41, 0
4, 39960, Note_on_c, 1, 53, 75
4, 39983, Note_on_c, 1, 53, 0
4, 39984, Note_on_c, 1, 53, 75
4, 40029, Note_on_c, 1, 53, 0
4, 40128, Note_on_c, 1, 53, 80
4, 40140, Note_on_c, 1, 53, 0
4, 40140, Note_on_c, 1, 63, 80
4, 40152, Note_on_c, 1, 63, 0
4, 40152, Note_on_c, 1, 54, 80
4, 40164, Note_on_c, 1, 54, 0
4, 40164, Note_on_c, 1, 63, 80
4, 40176, Note_on_c, 1, 63, 0
4, 40176, Note_on_c, 1, 53, 80
4, 40188, Note_on_c, 1, 53, 0
4, 40188, Note_on_c, 1, 63, 80
4, 40200, Note_on_c, 1, 63, 0
4, 40200, Note_on_c, 1, 54, 80
4, 40212, Note_on_c, 1, 54, 0
4, 40212, Note_on_c, 1, 63, 80
4, 40224, Note_on_c, 1, 63, 0
4, 40224, Note_on_c, 1, 53, 80
4, 40269, Note_on_c, 1, 53, 0
4, 40320, Note_on_c, 1, 58, 80
4, 40332, Note_on_c, 1, 58, 0
4, 40332, Note_on_c, 1, 65, 80
4, 40344, Note_on_c, 1, 65, 0
4, 40344, Note_on_c, 1, 59, 80
4, 40356, Note_on_c, 1, 59, 0
4, 40356, Note_on_c, 1, 65, 80
4, 40368, Note_on_c, 1, 65, 0
4, 40368, Note_on_c, 1, 58, 80
4, 40380, Note_on_c, 1, 58, 0
4, 40380, Note_on_c, 1, 65, 80
4, 40392, Note_on_c, 1, 65, 0
4, 40392, Note_on_c, 1, 59, 80
4, 40404, Note_on_c, 1, 59, 0
4, 40404, Note_on_c, 1, 65, 80
4, 40416, Note_on_c, 1, 65, 0
4, 40416, Note_on_c, 1, 58, 80
4, 40461, Note_on_c, 1, 58, 0
4, 40512, Note_on_c, 1, 63, 80
4, 40524, Note_on_c, 1, 63, 0
4, 40524, Note_on_c, 1, 70, 80
4, 40536, Note_on_c, 1, 70, 0
4, 40536, Note_on_c, 1, 64, 80
4, 40548, Note_on_c, 1, 64, 0
4, 40548, Note_on_c, 1, 70, 80
4, 40560, Note_on_c, 1, 70, 0
4, 40560, Note_on_c, 1, 63, 80
4, 40572, Note_on_c, 1, 63, 0
4, 40572, Note_on_c, 1, 70, 80
4, 40584, Note_on_c, 1, 70, 0
4, 40584, Note_on_c, 1, 64, 80
4, 40596, Note_on_c, 1, 64, 0
4, 40596, Note_on_c, 1, 70, 80
4, 40608, Note_on_c, 1, 70, 0
4, 40608, Note_on_c, 1, 63, 80
4, 40653, Note_on_c, 1, 63, 0
4, 40704, Note_on_c, 1, 56, 80
4, 40704, Note_on_c, 1, 51, 80
4, 40704, Note_on_c, 1, 48, 80
4, 40704, Note_on_c, 1, 44, 80
4, 40749, Note_on_c, 1, 56, 0
4, 40749, Note_on_c, 1, 51, 0
4, 40749, Note_on_c, 1, 48, 0
4, 40749, Note_on_c, 1, 44, 0
4, 40776, Note_on_c, 1, 56, 80
4, 40799, Note_on_c, 1, 56, 0
4, 40800, Note_on_c, 1, 58, 80
4, 40823, Note_on_c, 1, 58, 0
4, 40824, Note_on_c, 1, 56, 80
4, 40847, Note_on_c, 1, 56, 0
4, 40848, Note_on_c, 1, 58, 80
4, 40871, Note_on_c, 1, 58, 0
4, 40872, Note_on_c, 1, 60, 80
4, 40895, Note_on_c, 1, 60, 0
4, 40896, Note_on_c, 1, 61, 80
4, 40941, Note_on_c, 1, 61, 0
4, 41088, Note_on_c, 1, 56, 80
4, 41088, Note_on_c, 1, 51, 80
4, 41088, Note_on_c, 1, 48, 80
4, 41088, Note_on_c, 1, 44, 80
4, 41133, Note_on_c, 1, 56, 0
4, 41133, Note_on_c, 1, 51, 0
4, 41133, Note_on_c, 1, 48, 0
4, 41133, Note_on_c, 1, 44, 0
4, 41160, Note_on_c, 1, 56, 80
4, 41183, Note_on_c, 1, 56, 0
4, 41184, Note_on_c, 1, 58, 80
4, 41207, Note_on_c, 1, 58, 0
4, 41208, Note_on_c, 1, 56, 80
4, 41231, Note_on_c, 1, 56, 0
4, 41232, Note_on_c, 1, 58, 80
4, 41255, Note_on_c, 1, 58, 0
4, 41256, Note_on_c, 1, 60, 80
4, 41279, Note_on_c, 1, 60, 0
4, 41280, Note_on_c, 1, 61, 80
4, 41325, Note_on_c, 1, 61, 0
4, 41472, Note_on_c, 1, 56, 80
4, 41472, Note_on_c, 1, 51, 80
4, 41472, Note_on_c, 1, 48, 80
4, 41472, Note_on_c, 1, 44, 80
4, 41517, Note_on_c, 1, 56, 0
4, 41517, Note_on_c, 1, 51, 0
4, 41517, Note_on_c, 1, 48, 0
4, 41517, Note_on_c, 1, 44, 0
4, 41544, Note_on_c, 1, 72, 80
4, 41567, Note_on_c, 1, 72, 0
4, 41568, Note_on_c, 1, 73, 80
4, 41591, Note_on_c, 1, 73, 0
4, 41592, Note_on_c, 1, 72, 80
4, 41615, Note_on_c, 1, 72, 0
4, 41616, Note_on_c, 1, 73, 80
4, 41639, Note_on_c, 1, 73, 0
4, 41640, Note_on_c, 1, 72, 80
4, 41663, Note_on_c, 1, 72, 0
4, 41664, Note_on_c, 1, 70, 80
4, 41753, Note_on_c, 1, 70, 0
4, 41856, Note_on_c, 1, 63, 58
4, 41879, Note_on_c, 1, 63, 0
4, 41880, Note_on_c, 1, 67, 58
4, 41903, Note_on_c, 1, 67, 0
4, 41904, Note_on_c, 1, 63, 58
4, 41927, Note_on_c, 1, 63, 0
4, 41928, Note_on_c, 1, 67, 58
4, 41951, Note_on_c, 1, 67, 0
4, 41952, Note_on_c, 1, 63, 58
4, 41975, Note_on_c, 1, 63, 0
4, 41976, Note_on_c, 1, 67, 58
4, 41999, Note_on_c, 1, 67, 0
4, 42000, Note_on_c, 1, 63, 58
4, 42023, Note_on_c, 1, 63, 0
4, 42024, Note_on_c, 1, 67, 58
4, 42047, Note_on_c, 1, 67, 0
4, 42048, Note_on_c, 1, 63, 58
4, 42071, Note_on_c, 1, 63, 0
4, 42072, Note_on_c, 1, 68, 58
4, 42095, Note_on_c, 1, 68, 0
4, 42096, Note_on_c, 1, 63, 58
4, 42119, Note_on_c, 1, 63, 0
4, 42120, Note_on_c, 1, 68, 58
4, 42143, Note_on_c, 1, 68, 0
4, 42144, Note_on_c, 1, 63, 58
4, 42167, Note_on_c, 1, 63, 0
4, 42168, Note_on_c, 1, 68, 58
4, 42191, Note_on_c, 1, 68, 0
4, 42192, Note_on_c, 1, 63, 58
4, 42215, Note_on_c, 1, 63, 0
4, 42216, Note_on_c, 1, 68, 58
4, 42239, Note_on_c, 1, 68, 0
4, 42240, Note_on_c, 1, 62, 58
4, 42263, Note_on_c, 1, 62, 0
4, 42264, Note_on_c, 1, 68, 58
4, 42287, Note_on_c, 1, 68, 0
4, 42288, Note_on_c, 1, 62, 58
4, 42311, Note_on_c, 1, 62, 0
4, 42312, Note_on_c, 1, 68, 58
4, 42335, Note_on_c, 1, 68, 0
4, 42336, Note_on_c, 1, 62, 58
4, 42359, Note_on_c, 1, 62, 0
4, 42360, Note_on_c, 1, 68, 58
4, 42383, Note_on_c, 1, 68, 0
4, 42384, Note_on_c, 1, 62, 58
4, 42407, Note_on_c, 1, 62, 0
4, 42408, Note_on_c, 1, 68, 58
4, 42431, Note_on_c, 1, 68, 0
4, 42432, Note_on_c, 1, 63, 58
4, 42455, Note_on_c, 1, 63, 0
4, 42456, Note_on_c, 1, 67, 58
4, 42479, Note_on_c, 1, 67, 0
4, 42480, Note_on_c, 1, 63, 58
4, 42503, Note_on_c, 1, 63, 0
4, 42504, Note_on_c, 1, 67, 58
4, 42527, Note_on_c, 1, 67, 0
4, 42528, Note_on_c, 1, 63, 58
4, 42551, Note_on_c, 1, 63, 0
4, 42552, Note_on_c, 1, 67, 58
4, 42575, Note_on_c, 1, 67, 0
4, 42576, Note_on_c, 1, 63, 58
4, 42599, Note_on_c, 1, 63, 0
4, 42600, Note_on_c, 1, 67, 58
4, 42623, Note_on_c, 1, 67, 0
4, 42624, Note_on_c, 1, 62, 58
4, 42647, Note_on_c, 1, 62, 0
4, 42648, Note_on_c, 1, 68, 58
4, 42671, Note_on_c, 1, 68, 0
4, 42672, Note_on_c, 1, 62, 58
4, 42695, Note_on_c, 1, 62, 0
4, 42696, Note_on_c, 1, 68, 58
4, 42719, Note_on_c, 1, 68, 0
4, 42720, Note_on_c, 1, 62, 58
4, 42743, Note_on_c, 1, 62, 0
4, 42744, Note_on_c, 1, 68, 58
4, 42767, Note_on_c, 1, 68, 0
4, 42768, Note_on_c, 1, 62, 58
4, 42791, Note_on_c, 1, 62, 0
4, 42792, Note_on_c, 1, 68, 58
4, 42815, Note_on_c, 1, 68, 0
4, 42816, Note_on_c, 1, 61, 58
4, 42839, Note_on_c, 1, 61, 0
4, 42840, Note_on_c, 1, 67, 58
4, 42863, Note_on_c, 1, 67, 0
4, 42864, Note_on_c, 1, 61, 58
4, 42887, Note_on_c, 1, 61, 0
4, 42888, Note_on_c, 1, 67, 58
4, 42911, Note_on_c, 1, 67, 0
4, 42912, Note_on_c, 1, 61, 58
4, 42935, Note_on_c, 1, 61, 0
4, 42936, Note_on_c, 1, 67, 58
4, 42959, Note_on_c, 1, 67, 0
4, 42960, Note_on_c, 1, 61, 58
4, 42983, Note_on_c, 1, 61, 0
4, 42984, Note_on_c, 1, 67, 58
4, 43007, Note_on_c, 1, 67, 0
4, 43008, Note_on_c, 1, 60, 58
4, 43031, Note_on_c, 1, 60, 0
4, 43032, Note_on_c, 1, 67, 59
4, 43055, Note_on_c, 1, 67, 0
4, 43056, Note_on_c, 1, 60, 61
4, 43079, Note_on_c, 1, 60, 0
4, 43080, Note_on_c, 1, 67, 62
4, 43103, Note_on_c, 1, 67, 0
4, 43104, Note_on_c, 1, 60, 64
4, 43127, Note_on_c, 1, 60, 0
4, 43128, Note_on_c, 1, 67, 64
4, 43151, Note_on_c, 1, 67, 0
4, 43152, Note_on_c, 1, 60, 64
4, 43175, Note_on_c, 1, 60, 0
4, 43176, Note_on_c, 1, 67, 64
4, 43199, Note_on_c, 1, 67, 0
4, 43200, Note_on_c, 1, 58, 58
4, 43223, Note_on_c, 1, 58, 0
4, 43224, Note_on_c, 1, 67, 58
4, 43247, Note_on_c, 1, 67, 0
4, 43248, Note_on_c, 1, 58, 59
4, 43271, Note_on_c, 1, 58, 0
4, 43272, Note_on_c, 1, 67, 60
4, 43295, Note_on_c, 1, 67, 0
4, 43296, Note_on_c, 1, 58, 61
4, 43319, Note_on_c, 1, 58, 0
4, 43320, Note_on_c, 1, 67, 61
4, 43343, Note_on_c, 1, 67, 0
4, 43344, Note_on_c, 1, 58, 62
4, 43367, Note_on_c, 1, 58, 0
4, 43368, Note_on_c, 1, 67, 63
4, 43391, Note_on_c, 1, 67, 0
4, 43392, Note_on_c, 1, 65, 80
4, 43392, Note_on_c, 1, 53, 80
4, 43481, Note_on_c, 1, 65, 0
4, 43481, Note_on_c, 1, 53, 0
4, 43488, Note_on_c, 1, 56, 80
4, 43555, Note_on_c, 1, 56, 0
4, 43560, Note_on_c, 1, 58, 80
4, 43583, Note_on_c, 1, 58, 0
4, 43584, Note_on_c, 1, 60, 80
4, 43604, Note_on_c, 1, 60, 0
4, 43632, Note_on_c, 1, 60, 80
4, 43652, Note_on_c, 1, 60, 0
4, 43680, Note_on_c, 1, 60, 80
4, 43703, Note_on_c, 1, 60, 0
4, 43704, Note_on_c, 1, 62, 80
4, 43716, Note_on_c, 1, 62, 0
4, 43716, Note_on_c, 1, 64, 80
4, 43728, Note_on_c, 1, 64, 0
4, 43728, Note_on_c, 1, 65, 80
4, 43740, Note_on_c, 1, 65, 0
4, 43740, Note_on_c, 1, 67, 80
4, 43752, Note_on_c, 1, 67, 0
4, 43752, Note_on_c, 1, 68, 80
4, 43764, Note_on_c, 1, 68, 0
4, 43764, Note_on_c, 1, 70, 80
4, 43776, Note_on_c, 1, 70, 0
4, 43776, Note_on_c, 1, 72, 80
4, 43810, Note_on_c, 1, 72, 0
4, 43812, Note_on_c, 1, 67, 80
4, 43824, Note_on_c, 1, 67, 0
4, 43824, Note_on_c, 1, 68, 80
4, 43858, Note_on_c, 1, 68, 0
4, 43860, Note_on_c, 1, 64, 80
4, 43872, Note_on_c, 1, 64, 0
4, 43872, Note_on_c, 1, 65, 80
4, 43906, Note_on_c, 1, 65, 0
4, 43908, Note_on_c, 1, 61, 80
4, 43920, Note_on_c, 1, 61, 0
4, 43920, Note_on_c, 1, 60, 80
4, 43954, Note_on_c, 1, 60, 0
4, 43956, Note_on_c, 1, 59, 80
4, 43968, Note_on_c, 1, 59, 0
4, 43968, Note_on_c, 1, 60, 80
4, 44013, Note_on_c, 1, 60, 0
4, 44016, Note_on_c, 1, 48, 80
4, 44061, Note_on_c, 1, 48, 0
4, 44160, Note_on_c, 1, 57, 75
4, 44172, Note_on_c, 1, 57, 0
4, 44172, Note_on_c, 1, 66, 75
4, 44184, Note_on_c, 1, 66, 0
4, 44184, Note_on_c, 1, 58, 75
4, 44196, Note_on_c, 1, 58, 0
4, 44196, Note_on_c, 1, 66, 75
4, 44208, Note_on_c, 1, 66, 0
4, 44208, Note_on_c, 1, 57, 75
4, 44220, Note_on_c, 1, 57, 0
4, 44220, Note_on_c, 1, 66, 75
4, 44232, Note_on_c, 1, 66, 0
4, 44232, Note_on_c, 1, 58, 75
4, 44244, Note_on_c, 1, 58, 0
4, 44244, Note_on_c, 1, 66, 75
4, 44256, Note_on_c, 1, 66, 0
4, 44256, Note_on_c, 1, 57, 75
4, 44301, Note_on_c, 1, 57, 0
4, 44352, Note_on_c, 1, 58, 75
4, 44364, Note_on_c, 1, 58, 0
4, 44364, Note_on_c, 1, 68, 75
4, 44376, Note_on_c, 1, 68, 0
4, 44376, Note_on_c, 1, 59, 75
4, 44388, Note_on_c, 1, 59, 0
4, 44388, Note_on_c, 1, 68, 75
4, 44400, Note_on_c, 1, 68, 0
4, 44400, Note_on_c, 1, 58, 75
4, 44412, Note_on_c, 1, 58, 0
4, 44412, Note_on_c, 1, 68, 75
4, 44424, Note_on_c, 1, 68, 0
4, 44424, Note_on_c, 1, 60, 75
4, 44436, Note_on_c, 1, 60, 0
4, 44436, Note_on_c, 1, 68, 75
4, 44448, Note_on_c, 1, 68, 0
4, 44448, Note_on_c, 1, 58, 75
4, 44493, Note_on_c, 1, 58, 0
4, 44544, Note_on_c, 1, 51, 75
4, 44556, Note_on_c, 1, 51, 0
4, 44556, Note_on_c, 1, 61, 75
4, 44568, Note_on_c, 1, 61, 0
4, 44568, Note_on_c, 1, 52, 75
4, 44580, Note_on_c, 1, 52, 0
4, 44580, Note_on_c, 1, 61, 75
4, 44592, Note_on_c, 1, 61, 0
4, 44592, Note_on_c, 1, 51, 75
4, 44604, Note_on_c, 1, 51, 0
4, 44604, Note_on_c, 1, 61, 75
4, 44616, Note_on_c, 1, 61, 0
4, 44616, Note_on_c, 1, 52, 75
4, 44628, Note_on_c, 1, 52, 0
4, 44628, Note_on_c, 1, 61, 75
4, 44640, Note_on_c, 1, 61, 0
4, 44640, Note_on_c, 1, 51, 75
4, 44685, Note_on_c, 1, 51, 0
4, 44736, Note_on_c, 1, 64, 75
4, 44748, Note_on_c, 1, 64, 0
4, 44748, Note_on_c, 1, 70, 75
4, 44760, Note_on_c, 1, 70, 0
4, 44760, Note_on_c, 1, 65, 75
4, 44772, Note_on_c, 1, 65, 0
4, 44772, Note_on_c, 1, 70, 75
4, 44784, Note_on_c, 1, 70, 0
4, 44784, Note_on_c, 1, 64, 75
4, 44796, Note_on_c, 1, 64, 0
4, 44796, Note_on_c, 1, 70, 75
4, 44808, Note_on_c, 1, 70, 0
4, 44808, Note_on_c, 1, 65, 75
4, 44820, Note_on_c, 1, 65, 0
4, 44820, Note_on_c, 1, 70, 75
4, 44832, Note_on_c, 1, 70, 0
4, 44832, Note_on_c, 1, 64, 75
4, 44877, Note_on_c, 1, 64, 0
4, 44928, Note_on_c, 1, 53, 75
4, 44940, Note_on_c, 1, 53, 0
4, 44940, Note_on_c, 1, 63, 75
4, 44952, Note_on_c, 1, 63, 0
4, 44952, Note_on_c, 1, 54, 75
4, 44964, Note_on_c, 1, 54, 0
4, 44964, Note_on_c, 1, 63, 75
4, 44976, Note_on_c, 1, 63, 0
4, 44976, Note_on_c, 1, 53, 75
4, 44988, Note_on_c, 1, 53, 0
4, 44988, Note_on_c, 1, 63, 75
4, 45000, Note_on_c, 1, 63, 0
4, 45000, Note_on_c, 1, 54, 75
4, 45012, Note_on_c, 1, 54, 0
4, 45012, Note_on_c, 1, 63, 75
4, 45024, Note_on_c, 1, 63, 0
4, 45024, Note_on_c, 1, 53, 75
4, 45069, Note_on_c, 1, 53, 0
4, 45120, Note_on_c, 1, 66, 75
4, 45132, Note_on_c, 1, 66, 0
4, 45132, Note_on_c, 1, 72, 75
4, 45144, Note_on_c, 1, 72, 0
4, 45144, Note_on_c, 1, 67, 75
4, 45156, Note_on_c, 1, 67, 0
4, 45156, Note_on_c, 1, 72, 75
4, 45168, Note_on_c, 1, 72, 0
4, 45168, Note_on_c, 1, 66, 75
4, 45180, Note_on_c, 1, 66, 0
4, 45180, Note_on_c, 1, 72, 75
4, 45192, Note_on_c, 1, 72, 0
4, 45192, Note_on_c, 1, 67, 75
4, 45204, Note_on_c, 1, 67, 0
4, 45204, Note_on_c, 1, 72, 75
4, 45216, Note_on_c, 1, 72, 0
4, 45216, Note_on_c, 1, 66, 75
4, 45261, Note_on_c, 1, 66, 0
4, 45312, Note_on_c, 1, 67, 75
4, 45312, Note_on_c, 1, 55, 75
4, 45357, Note_on_c, 1, 67, 0
4, 45357, Note_on_c, 1, 55, 0
4, 45408, Note_on_c, 1, 60, 75
4, 45408, Note_on_c, 1, 48, 75
4, 45453, Note_on_c, 1, 60, 0
4, 45453, Note_on_c, 1, 48, 0
4, 45504, Note_on_c, 1, 50, 80
4, 45504, Note_on_c, 1, 38, 80
4, 45571, Note_on_c, 1, 50, 0
4, 45571, Note_on_c, 1, 38, 0
4, 45576, Note_on_c, 1, 54, 80
4, 45599, Note_on_c, 1, 54, 0
4, 45600, Note_on_c, 1, 55, 80
4, 45623, Note_on_c, 1, 55, 0
4, 45624, Note_on_c, 1, 57, 80
4, 45647, Note_on_c, 1, 57, 0
4, 45648, Note_on_c, 1, 58, 80
4, 45671, Note_on_c, 1, 58, 0
4, 45672, Note_on_c, 1, 49, 80
4, 45695, Note_on_c, 1, 49, 0
4, 45696, Note_on_c, 1, 50, 80
4, 45719, Note_on_c, 1, 50, 0
4, 45720, Note_on_c, 1, 49, 80
4, 45743, Note_on_c, 1, 49, 0
4, 45744, Note_on_c, 1, 50, 80
4, 45767, Note_on_c, 1, 50, 0
4, 45768, Note_on_c, 1, 54, 80
4, 45791, Note_on_c, 1, 54, 0
4, 45792, Note_on_c, 1, 55, 80
4, 45815, Note_on_c, 1, 55, 0
4, 45816, Note_on_c, 1, 57, 80
4, 45839, Note_on_c, 1, 57, 0
4, 45840, Note_on_c, 1, 58, 80
4, 45863, Note_on_c, 1, 58, 0
4, 45864, Note_on_c, 1, 49, 80
4, 45887, Note_on_c, 1, 49, 0
4, 45888, Note_on_c, 1, 50, 80
4, 45911, Note_on_c, 1, 50, 0
4, 45912, Note_on_c, 1, 49, 80
4, 45935, Note_on_c, 1, 49, 0
4, 45936, Note_on_c, 1, 50, 80
4, 45959, Note_on_c, 1, 50, 0
4, 45960, Note_on_c, 1, 55, 80
4, 45983, Note_on_c, 1, 55, 0
4, 45984, Note_on_c, 1, 54, 80
4, 46007, Note_on_c, 1, 54, 0
4, 46008, Note_on_c, 1, 49, 80
4, 46031, Note_on_c, 1, 49, 0
4, 46032, Note_on_c, 1, 50, 80
4, 46055, Note_on_c, 1, 50, 0
4, 46056, Note_on_c, 1, 55, 80
4, 46079, Note_on_c, 1, 55, 0
4, 46080, Note_on_c, 1, 54, 80
4, 46103, Note_on_c, 1, 54, 0
4, 46104, Note_on_c, 1, 49, 80
4, 46127, Note_on_c, 1, 49, 0
4, 46128, Note_on_c, 1, 50, 80
4, 46151, Note_on_c, 1, 50, 0
4, 46152, Note_on_c, 1, 55, 80
4, 46175, Note_on_c, 1, 55, 0
4, 46176, Note_on_c, 1, 54, 80
4, 46199, Note_on_c, 1, 54, 0
4, 46200, Note_on_c, 1, 55, 80
4, 46223, Note_on_c, 1, 55, 0
4, 46224, Note_on_c, 1, 54, 80
4, 46247, Note_on_c, 1, 54, 0
4, 46248, Note_on_c, 1, 55, 80
4, 46271, Note_on_c, 1, 55, 0
4, 46272, Note_on_c, 1, 54, 80
4, 46311, Note_on_c, 1, 54, 0
4, 46464, Note_on_c, 1, 51, 64
4, 46464, Note_on_c, 1, 39, 64
4, 46641, Note_on_c, 1, 51, 0
4, 46641, Note_on_c, 1, 39, 0
4, 46656, Note_on_c, 1, 50, 64
4, 46656, Note_on_c, 1, 38, 64
4, 46833, Note_on_c, 1, 50, 0
4, 46833, Note_on_c, 1, 38, 0
4, 46848, Note_on_c, 1, 48, 64
4, 46848, Note_on_c, 1, 36, 64
4, 46887, Note_on_c, 1, 48, 0
4, 46887, Note_on_c, 1, 36, 0
4, 46944, Note_on_c, 1, 45, 64
4, 46944, Note_on_c, 1, 33, 64
4, 46983, Note_on_c, 1, 45, 0
4, 46983, Note_on_c, 1, 33, 0
4, 47040, Note_on_c, 1, 46, 64
4, 47040, Note_on_c, 1, 34, 64
4, 47079, Note_on_c, 1, 46, 0
4, 47079, Note_on_c, 1, 34, 0
4, 47136, Note_on_c, 1, 58, 64
4, 47175, Note_on_c, 1, 58, 0
4, 47268, Note_on_c, 1, 52, 64
4, 47280, Note_on_c, 1, 52, 0
4, 47280, Note_on_c, 1, 55, 64
4, 47314, Note_on_c, 1, 55, 0
4, 47316, Note_on_c, 1, 58, 64
4, 47328, Note_on_c, 1, 58, 0
4, 47328, Note_on_c, 1, 58, 64
4, 47376, Note_on_c, 1, 58, 0
4, 47376, Note_on_c, 1, 56, 64
4, 47421, Note_on_c, 1, 56, 0
4, 47460, Note_on_c, 1, 50, 64
4, 47472, Note_on_c, 1, 50, 0
4, 47472, Note_on_c, 1, 53, 64
4, 47506, Note_on_c, 1, 53, 0
4, 47508, Note_on_c, 1, 56, 64
4, 47520, Note_on_c, 1, 56, 0
4, 47520, Note_on_c, 1, 56, 64
4, 47568, Note_on_c, 1, 56, 0
4, 47568, Note_on_c, 1, 55, 64
4, 47613, Note_on_c, 1, 55, 0
4, 47664, Note_on_c, 1, 44, 64
4, 47709, Note_on_c, 1, 44, 0
4, 47760, Note_on_c, 1, 56, 64
4, 47760, Note_on_c, 1, 46, 64
4, 47805, Note_on_c, 1, 56, 0
4, 47805, Note_on_c, 1, 46, 0
4, 47808, Note_on_c, 1, 56, 64
4, 47808, Note_on_c, 1, 51, 64
4, 47904, Note_on_c, 1, 56, 0
4, 47904, Note_on_c, 1, 55, 64
4, 47949, Note_on_c, 1, 55, 0
4, 47949, Note_on_c, 1, 51, 0
4, 48036, Note_on_c, 1, 64, 64
4, 48048, Note_on_c, 1, 64, 0
4, 48048, Note_on_c, 1, 67, 64
4, 48082, Note_on_c, 1, 67, 0
4, 48084, Note_on_c, 1, 70, 64
4, 48096, Note_on_c, 1, 70, 0
4, 48096, Note_on_c, 1, 70, 64
4, 48144, Note_on_c, 1, 70, 0
4, 48144, Note_on_c, 1, 68, 64
4, 48189, Note_on_c, 1, 68, 0
4, 48228, Note_on_c, 1, 62, 64
4, 48240, Note_on_c, 1, 62, 0
4, 48240, Note_on_c, 1, 65, 64
4, 48274, Note_on_c, 1, 65, 0
4, 48276, Note_on_c, 1, 68, 64
4, 48288, Note_on_c, 1, 68, 0
4, 48288, Note_on_c, 1, 68, 64
4, 48336, Note_on_c, 1, 68, 0
4, 48336, Note_on_c, 1, 67, 64
4, 48381, Note_on_c, 1, 67, 0
4, 48384, Note_on_c, 1, 70, 64
4, 48407, Note_on_c, 1, 70, 0
4, 48408, Note_on_c, 1, 67, 64
4, 48420, Note_on_c, 1, 67, 0
4, 48420, Note_on_c, 1, 70, 64
4, 48432, Note_on_c, 1, 70, 0
4, 48432, Note_on_c, 1, 65, 65
4, 48444, Note_on_c, 1, 65, 0
4, 48444, Note_on_c, 1, 70, 65
4, 48456, Note_on_c, 1, 70, 0
4, 48456, Note_on_c, 1, 63, 65
4, 48468, Note_on_c, 1, 63, 0
4, 48468, Note_on_c, 1, 70, 66
4, 48480, Note_on_c, 1, 70, 0
4, 48480, Note_on_c, 1, 62, 66
4, 48503, Note_on_c, 1, 62, 0
4, 48504, Note_on_c, 1, 67, 66
4, 48516, Note_on_c, 1, 67, 0
4, 48516, Note_on_c, 1, 70, 67
4, 48528, Note_on_c, 1, 70, 0
4, 48528, Note_on_c, 1, 65, 67
4, 48540, Note_on_c, 1, 65, 0
4, 48540, Note_on_c, 1, 70, 67
4, 48552, Note_on_c, 1, 70, 0
4, 48552, Note_on_c, 1, 63, 68
4, 48564, Note_on_c, 1, 63, 0
4, 48564, Note_on_c, 1, 70, 68
4, 48576, Note_on_c, 1, 70, 0
4, 48576, Note_on_c, 1, 62, 68
4, 48599, Note_on_c, 1, 62, 0
4, 48600, Note_on_c, 1, 68, 69
4, 48623, Note_on_c, 1, 68, 0
4, 48624, Note_on_c, 1, 67, 69
4, 48647, Note_on_c, 1, 67, 0
4, 48648, Note_on_c, 1, 65, 70
4, 48671, Note_on_c, 1, 65, 0
4, 48672, Note_on_c, 1, 63, 70
4, 48695, Note_on_c, 1, 63, 0
4, 48696, Note_on_c, 1, 68, 71
4, 48719, Note_on_c, 1, 68, 0
4, 48720, Note_on_c, 1, 67, 72
4, 48743, Note_on_c, 1, 67, 0
4, 48744, Note_on_c, 1, 65, 72
4, 48767, Note_on_c, 1, 65, 0
4, 48768, Note_on_c, 1, 63, 73
4, 48791, Note_on_c, 1, 63, 0
4, 48792, Note_on_c, 1, 65, 73
4, 48815, Note_on_c, 1, 65, 0
4, 48816, Note_on_c, 1, 63, 74
4, 48839, Note_on_c, 1, 63, 0
4, 48840, Note_on_c, 1, 61, 74
4, 48863, Note_on_c, 1, 61, 0
4, 48864, Note_on_c, 1, 60, 75
4, 48887, Note_on_c, 1, 60, 0
4, 48888, Note_on_c, 1, 61, 76
4, 48911, Note_on_c, 1, 61, 0
4, 48912, Note_on_c, 1, 60, 76
4, 48935, Note_on_c, 1, 60, 0
4, 48936, Note_on_c, 1, 58, 77
4, 48959, Note_on_c, 1, 58, 0
4, 48960, Note_on_c, 1, 56, 77
4, 49049, Note_on_c, 1, 56, 0
4, 49152, Note_on_c, 1, 53, 80
4, 49152, Note_on_c, 1, 48, 80
4, 49152, Note_on_c, 1, 44, 80
4, 49241, Note_on_c, 1, 53, 0
4, 49241, Note_on_c, 1, 48, 0
4, 49241, Note_on_c, 1, 44, 0
4, 49344, Note_on_c, 1, 67, 80
4, 49344, Note_on_c, 1, 58, 80
4, 49440, Note_on_c, 1, 67, 0
4, 49440, Note_on_c, 1, 65, 69
4, 49485, Note_on_c, 1, 65, 0
4, 49485, Note_on_c, 1, 58, 0
4, 49536, Note_on_c, 1, 51, 75
4, 49536, Note_on_c, 1, 39, 75
4, 49581, Note_on_c, 1, 51, 0
4, 49581, Note_on_c, 1, 39, 0
4, 49608, Note_on_c, 1, 51, 75
4, 49631, Note_on_c, 1, 51, 0
4, 49632, Note_on_c, 1, 53, 75
4, 49655, Note_on_c, 1, 53, 0
4, 49656, Note_on_c, 1, 51, 75
4, 49679, Note_on_c, 1, 51, 0
4, 49680, Note_on_c, 1, 53, 75
4, 49703, Note_on_c, 1, 53, 0
4, 49704, Note_on_c, 1, 55, 75
4, 49727, Note_on_c, 1, 55, 0
4, 49728, Note_on_c, 1, 56, 75
4, 49817, Note_on_c, 1, 56, 0
4, 49920, Note_on_c, 1, 51, 75
4, 49920, Note_on_c, 1, 39, 75
4, 49965, Note_on_c, 1, 51, 0
4, 49965, Note_on_c, 1, 39, 0
4, 49992, Note_on_c, 1, 51, 75
4, 50015, Note_on_c, 1, 51, 0
4, 50016, Note_on_c, 1, 41, 75
4, 50039, Note_on_c, 1, 41, 0
4, 50040, Note_on_c, 1, 39, 75
4, 50063, Note_on_c, 1, 39, 0
4, 50064, Note_on_c, 1, 41, 75
4, 50087, Note_on_c, 1, 41, 0
4, 50088, Note_on_c, 1, 43, 75
4, 50111, Note_on_c, 1, 43, 0
4, 50112, Note_on_c, 1, 44, 75
4, 50201, Note_on_c, 1, 44, 0
4, 50304, Note_on_c, 1, 51, 75
4, 50304, Note_on_c, 1, 39, 75
4, 50349, Note_on_c, 1, 51, 0
4, 50349, Note_on_c, 1, 39, 0
4, 50376, Note_on_c, 1, 67, 75
4, 50399, Note_on_c, 1, 67, 0
4, 50400, Note_on_c, 1, 68, 75
4, 50423, Note_on_c, 1, 68, 0
4, 50424, Note_on_c, 1, 67, 75
4, 50447, Note_on_c, 1, 67, 0
4, 50448, Note_on_c, 1, 68, 75
4, 50471, Note_on_c, 1, 68, 0
4, 50472, Note_on_c, 1, 70, 75
4, 50495, Note_on_c, 1, 70, 0
4, 50496, Note_on_c, 1, 68, 75
4, 50585, Note_on_c, 1, 68, 0
4, 50712, Note_on_c, 1, 68, 70
4, 50712, Note_on_c, 1, 62, 70
4, 50722, Note_on_c, 1, 68, 0
4, 50722, Note_on_c, 1, 62, 0
4, 50736, Note_on_c, 1, 68, 70
4, 50736, Note_on_c, 1, 62, 70
4, 50746, Note_on_c, 1, 68, 0
4, 50746, Note_on_c, 1, 62, 0
4, 50760, Note_on_c, 1, 68, 70
4, 50760, Note_on_c, 1, 62, 70
4, 50770, Note_on_c, 1, 68, 0
4, 50770, Note_on_c, 1, 62, 0
4, 50784, Note_on_c, 1, 67, 70
4, 50784, Note_on_c, 1, 63, 70
4, 50829, Note_on_c, 1, 67, 0
4, 50829, Note_on_c, 1, 63, 0
4, 50904, Note_on_c, 1, 67, 64
4, 50904, Note_on_c, 1, 60, 64
4, 50914, Note_on_c, 1, 67, 0
4, 50914, Note_on_c, 1, 60, 0
4, 50928, Note_on_c, 1, 67, 64
4, 50928, Note_on_c, 1, 60, 64
4, 50938, Note_on_c, 1, 67, 0
4, 50938, Note_on_c, 1, 60, 0
4, 50952, Note_on_c, 1, 67, 64
4, 50952, Note_on_c, 1, 60, 64
4, 50962, Note_on_c, 1, 67, 0
4, 50962, Note_on_c, 1, 60, 0
4, 50976, Note_on_c, 1, 65, 64
4, 50976, Note_on_c, 1, 62, 64
4, 51021, Note_on_c, 1, 65, 0
4, 51021, Note_on_c, 1, 62, 0
4, 51096, Note_on_c, 1, 65, 64
4, 51096, Note_on_c, 1, 59, 64
4, 51106, Note_on_c, 1, 65, 0
4, 51106, Note_on_c, 1, 59, 0
4, 51120, Note_on_c, 1, 65, 64
4, 51120, Note_on_c, 1, 59, 64
4, 51130, Note_on_c, 1, 65, 0
4, 51130, Note_on_c, 1, 59, 0
4, 51144, Note_on_c, 1, 65, 64
4, 51144, Note_on_c, 1, 59, 64
4, 51154, Note_on_c, 1, 65, 0
4, 51154, Note_on_c, 1, 59, 0
4, 51168, Note_on_c, 1, 63, 64
4, 51168, Note_on_c, 1, 60, 64
4, 51213, Note_on_c, 1, 63, 0
4, 51213, Note_on_c, 1, 60, 0
4, 51288, Note_on_c, 1, 63, 75
4, 51312, Note_on_c, 1, 63, 0
4, 51312, Note_on_c, 1, 57, 75
4, 51335, Note_on_c, 1, 57, 0
4, 51384, Note_on_c, 1, 63, 76
4, 51408, Note_on_c, 1, 63, 0
4, 51408, Note_on_c, 1, 58, 76
4, 51431, Note_on_c, 1, 58, 0
4, 51480, Note_on_c, 1, 63, 77
4, 51504, Note_on_c, 1, 63, 0
4, 51504, Note_on_c, 1, 60, 77
4, 51527, Note_on_c, 1, 60, 0
4, 51576, Note_on_c, 1, 63, 78
4, 51600, Note_on_c, 1, 63, 0
4, 51600, Note_on_c, 1, 58, 79
4, 51623, Note_on_c, 1, 58, 0
4, 51648, Note_on_c, 1, 57, 79
4, 51671, Note_on_c, 1, 57, 0
4, 51672, Note_on_c, 1, 58, 80
4, 51695, Note_on_c, 1, 58, 0
4, 51696, Note_on_c, 1, 57, 80
4, 51719, Note_on_c, 1, 57, 0
4, 51720, Note_on_c, 1, 58, 80
4, 51743, Note_on_c, 1, 58, 0
4, 51744, Note_on_c, 1, 57, 80
4, 51789, Note_on_c, 1, 57, 0
4, 51816, Note_on_c, 1, 65, 80
4, 51816, Note_on_c, 1, 57, 80
4, 51840, Note_on_c, 1, 65, 0
4, 51840, Note_on_c, 1, 57, 0
4, 51840, Note_on_c, 1, 65, 80
4, 51840, Note_on_c, 1, 58, 80
4, 51885, Note_on_c, 1, 65, 0
4, 51885, Note_on_c, 1, 58, 0
4, 51912, Note_on_c, 1, 65, 77
4, 51912, Note_on_c, 1, 57, 77
4, 51936, Note_on_c, 1, 65, 0
4, 51936, Note_on_c, 1, 57, 0
4, 51936, Note_on_c, 1, 65, 76
4, 51936, Note_on_c, 1, 58, 76
4, 51981, Note_on_c, 1, 65, 0
4, 51981, Note_on_c, 1, 58, 0
4, 52008, Note_on_c, 1, 65, 73
4, 52008, Note_on_c, 1, 57, 73
4, 52032, Note_on_c, 1, 65, 0
4, 52032, Note_on_c, 1, 57, 0
4, 52032, Note_on_c, 1, 65, 72
4, 52032, Note_on_c, 1, 58, 72
4, 52077, Note_on_c, 1, 65, 0
4, 52077, Note_on_c, 1, 58, 0
4, 52104, Note_on_c, 1, 34, 64
4, 52116, Note_on_c, 1, 34, 0
4, 52116, Note_on_c, 1, 46, 66
4, 52128, Note_on_c, 1, 46, 0
4, 52128, Note_on_c, 1, 36, 68
4, 52140, Note_on_c, 1, 36, 0
4, 52140, Note_on_c, 1, 48, 70
4, 52152, Note_on_c, 1, 48, 0
4, 52152, Note_on_c, 1, 34, 72
4, 52164, Note_on_c, 1, 34, 0
4, 52164, Note_on_c, 1, 46, 75
4, 52176, Note_on_c, 1, 46, 0
4, 52176, Note_on_c, 1, 36, 77
4, 52188, Note_on_c, 1, 36, 0
4, 52188, Note_on_c, 1, 48, 79
4, 52200, Note_on_c, 1, 48, 0
4, 52200, Note_on_c, 1, 38, 81
4, 52212, Note_on_c, 1, 38, 0
4, 52212, Note_on_c, 1, 50, 83
4, 52224, Note_on_c, 1, 50, 0
4, 52224, Note_on_c, 1, 39, 86
4, 52247, Note_on_c, 1, 39, 0
4, 52248, Note_on_c, 1, 51, 86
4, 52271, Note_on_c, 1, 51, 0
4, 52272, Note_on_c, 1, 51, 86
4, 52295, Note_on_c, 1, 51, 0
4, 52296, Note_on_c, 1, 51, 86
4, 52319, Note_on_c, 1, 51, 0
4, 52320, Note_on_c, 1, 51, 86
4, 52343, Note_on_c, 1, 51, 0
4, 52344, Note_on_c, 1, 51, 86
4, 52367, Note_on_c, 1, 51, 0
4, 52368, Note_on_c, 1, 51, 86
4, 52391, Note_on_c, 1, 51, 0
4, 52392, Note_on_c, 1, 51, 86
4, 52415, Note_on_c, 1, 51, 0
4, 52416, Note_on_c, 1, 39, 86
4, 52439, Note_on_c, 1, 39, 0
4, 52440, Note_on_c, 1, 51, 86
4, 52463, Note_on_c, 1, 51, 0
4, 52464, Note_on_c, 1, 51, 86
4, 52487, Note_on_c, 1, 51, 0
4, 52488, Note_on_c, 1, 51, 86
4, 52511, Note_on_c, 1, 51, 0
4, 52512, Note_on_c, 1, 51, 86
4, 52535, Note_on_c, 1, 51, 0
4, 52536, Note_on_c, 1, 51, 86
4, 52559, Note_on_c, 1, 51, 0
4, 52560, Note_on_c, 1, 51, 86
4, 52583, Note_on_c, 1, 51, 0
4, 52584, Note_on_c, 1, 51, 86
4, 52607, Note_on_c, 1, 51, 0
4, 52608, Note_on_c, 1, 39, 86
4, 52631, Note_on_c, 1, 39, 0
4, 52632, Note_on_c, 1, 51, 86
4, 52655, Note_on_c, 1, 51, 0
4, 52656, Note_on_c, 1, 51, 86
4, 52701, Note_on_c, 1, 51, 0
4, 52800, Note_on_c, 1, 63, 75
4, 52823, Note_on_c, 1, 63, 0
4, 52824, Note_on_c, 1, 63, 75
4, 52847, Note_on_c, 1, 63, 0
4, 52848, Note_on_c, 1, 63, 76
4, 52871, Note_on_c, 1, 63, 0
4, 52872, Note_on_c, 1, 63, 77
4, 52895, Note_on_c, 1, 63, 0
4, 52992, Note_on_c, 1, 65, 80
4, 52992, Note_on_c, 1, 60, 80
4, 52992, Note_on_c, 1, 56, 80
4, 53125, Note_on_c, 1, 65, 0
4, 53125, Note_on_c, 1, 60, 0
4, 53125, Note_on_c, 1, 56, 0
4, 53232, Note_on_c, 1, 54, 76
4, 53232, Note_on_c, 1, 45, 76
4, 53277, Note_on_c, 1, 54, 0
4, 53277, Note_on_c, 1, 45, 0
4, 53280, Note_on_c, 1, 55, 73
4, 53280, Note_on_c, 1, 46, 73
4, 53328, Note_on_c, 1, 55, 0
4, 53328, Note_on_c, 1, 56, 70
4, 53373, Note_on_c, 1, 56, 0
4, 53373, Note_on_c, 1, 46, 0
4, 53376, Note_on_c, 1, 55, 67
4, 53376, Note_on_c, 1, 48, 67
4, 53423, Note_on_c, 1, 55, 0
4, 53423, Note_on_c, 1, 48, 0
4, 53448, Note_on_c, 1, 43, 80
4, 53471, Note_on_c, 1, 43, 0
4, 53472, Note_on_c, 1, 44, 80
4, 53495, Note_on_c, 1, 44, 0
4, 53496, Note_on_c, 1, 43, 80
4, 53519, Note_on_c, 1, 43, 0
4, 53520, Note_on_c, 1, 44, 81
4, 53543, Note_on_c, 1, 44, 0
4, 53544, Note_on_c, 1, 45, 82
4, 53567, Note_on_c, 1, 45, 0
4, 53568, Note_on_c, 1, 46, 83
4, 53591, Note_on_c, 1, 46, 0
4, 53592, Note_on_c, 1, 45, 83
4, 53615, Note_on_c, 1, 45, 0
4, 53616, Note_on_c, 1, 46, 84
4, 53639, Note_on_c, 1, 46, 0
4, 53640, Note_on_c, 1, 43, 85
4, 53663, Note_on_c, 1, 43, 0
4, 53664, Note_on_c, 1, 44, 86
4, 53687, Note_on_c, 1, 44, 0
4, 53688, Note_on_c, 1, 45, 83
4, 53711, Note_on_c, 1, 45, 0
4, 53712, Note_on_c, 1, 46, 81
4, 53735, Note_on_c, 1, 46, 0
4, 53736, Note_on_c, 1, 47, 79
4, 53759, Note_on_c, 1, 47, 0
4, 53760, Note_on_c, 1, 48, 76
4, 53783, Note_on_c, 1, 48, 0
4, 53784, Note_on_c, 1, 47, 74
4, 53807, Note_on_c, 1, 47, 0
4, 53808, Note_on_c, 1, 48, 72
4, 53831, Note_on_c, 1, 48, 0
4, 53832, Note_on_c, 1, 44, 70
4, 53855, Note_on_c, 1, 44, 0
4, 53856, Note_on_c, 1, 46, 70
4, 53901, Note_on_c, 1, 46, 0
4, 53904, Note_on_c, 1, 34, 70
4, 53949, Note_on_c, 1, 34, 0
4, 53952, Note_on_c, 1, 48, 70
4, 53997, Note_on_c, 1, 48, 0
4, 54000, Note_on_c, 1, 44, 70
4, 54045, Note_on_c, 1, 44, 0
4, 54048, Note_on_c, 1, 46, 70
4, 54093, Note_on_c, 1, 46, 0
4, 54096, Note_on_c, 1, 34, 70
4, 54141, Note_on_c, 1, 34, 0
4, 54144, Note_on_c, 1, 55, 75
4, 54144, Note_on_c, 1, 51, 75
4, 54189, Note_on_c, 1, 55, 0
4, 54189, Note_on_c, 1, 51, 0
4, 54216, Note_on_c, 1, 56, 75
4, 54216, Note_on_c, 1, 46, 75
4, 54239, Note_on_c, 1, 56, 0
4, 54239, Note_on_c, 1, 46, 0
4, 54240, Note_on_c, 1, 55, 75
4, 54240, Note_on_c, 1, 51, 75
4, 54285, Note_on_c, 1, 55, 0
4, 54285, Note_on_c, 1, 51, 0
4, 54312, Note_on_c, 1, 56, 75
4, 54312, Note_on_c, 1, 46, 75
4, 54335, Note_on_c, 1, 56, 0
4, 54335, Note_on_c, 1, 46, 0
4, 54336, Note_on_c, 1, 55, 75
4, 54336, Note_on_c, 1, 51, 75
4, 54381, Note_on_c, 1, 55, 0
4, 54381, Note_on_c, 1, 51, 0
4, 54528, Note_on_c, 1, 51, 0
4, 54573, Note_on_c, 1, 51, 0
4, 54576, End_track
5, 0, Start_track
5, 0, Program_c, 1, 0
5, 0, Control_c, 1, 7, 127
5, 0, Control_c, 1, 10, 64
5, 21600, Note_on_c, 1, 50, 80
5, 21623, Note_on_c, 1, 50, 0
5, 21624, Note_on_c, 1, 51, 80
5, 21632, Note_on_c, 1, 51, 0
5, 21632, Note_on_c, 1, 50, 80
5, 21640, Note_on_c, 1, 50, 0
5, 21640, Note_on_c, 1, 48, 80
5, 21648, Note_on_c, 1, 48, 0
5, 21648, Note_on_c, 1, 50, 80
5, 21671, Note_on_c, 1, 50, 0
5, 21888, Note_on_c, 1, 55, 80
5, 21977, Note_on_c, 1, 55, 0
5, 21984, Note_on_c, 1, 55, 80
5, 22007, Note_on_c, 1, 55, 0
5, 22008, Note_on_c, 1, 56, 80
5, 22016, Note_on_c, 1, 56, 0
5, 22016, Note_on_c, 1, 55, 80
5, 22024, Note_on_c, 1, 55, 0
5, 22024, Note_on_c, 1, 53, 80
5, 22032, Note_on_c, 1, 53, 0
5, 22032, Note_on_c, 1, 55, 80
5, 22055, Note_on_c, 1, 55, 0
5, 29280, Note_on_c, 1, 50, 80
5, 29465, Note_on_c, 1, 50, 0
5, 38496, Note_on_c, 1, 50, 80
5, 38519, Note_on_c, 1, 50, 0
5, 38520, Note_on_c, 1, 51, 80
5, 38528, Note_on_c, 1, 51, 0
5, 38528, Note_on_c, 1, 50, 80
5, 38536, Note_on_c, 1, 50, 0
5, 38536, Note_on_c, 1, 48, 80
5, 38544, Note_on_c, 1, 48, 0
5, 38544, Note_on_c, 1, 50, 80
5, 38567, Note_on_c, 1, 50, 0
5, 38784, Note_on_c, 1, 55, 80
5, 38873, Note_on_c, 1, 55, 0
5, 38880, Note_on_c, 1, 55, 80
5, 38903, Note_on_c, 1, 55, 0
5, 38904, Note_on_c, 1, 56, 80
5, 38912, Note_on_c, 1, 56, 0
5, 38912, Note_on_c, 1, 55, 80
5, 38920, Note_on_c, 1, 55, 0
5, 38920, Note_on_c, 1, 53, 80
5, 38928, Note_on_c, 1, 53, 0
5, 38928, Note_on_c, 1, 55, 80
5, 38951, Note_on_c, 1, 55, 0
5, 46176, Note_on_c, 1, 50, 80
5, 46361, Note_on_c, 1, 50, 0
5, 54528, End_track
6, 0, Start_track
6, 0, Title_t, "Sonata I   Haydn  "
6, 0, End_track
0, 0, End_of_file
