0, 0, Header, 1, 6, 96
1, 0, Start_track
1, 0, Copyright_t, "Copyright  2000 <copyright holder>"
1, 0, Text_t, "Sonata I\015\012"
1, 0, Text_t, "Haydn\015\012"
1, 0, Sequencer_specific, 16, 68, 87, 77, 90, 86, 82, 83, 78, 32, 55, 46, 49, 46, 51, 46, 48
1, 0, Time_signature, 3, 2, 72, 8
1, 0, Tempo, 208333
1, 0, Key_signature, 2, "major"
1, 15840, Tempo, 222222
1, 16032, Tempo, 229885
1, 16128, Tempo, 240963
1, 16224, Tempo, 1000000
1, 16320, Tempo, 208333
1, 33696, Tempo, 222222
1, 33888, Tempo, 229885
1, 33984, Tempo, 240963
1, 34080, Tempo, 1000000
1, 34176, Tempo, 208333
1, 49248, End_track
2, 0, Start_track
2, 0, Program_c, 0, 0
2, 0, Control_c, 0, 7, 127
2, 0, Control_c, 0, 10, 64
2, 576, Note_on_c, 0, 61, 73
2, 665, Note_on_c, 0, 61, 0
2, 672, Note_on_c, 0, 62, 71
2, 761, Note_on_c, 0, 62, 0
2, 768, Note_on_c, 0, 66, 69
2, 857, Note_on_c, 0, 66, 0
2, 864, Note_on_c, 0, 69, 67
2, 997, Note_on_c, 0, 69, 0
2, 1008, Note_on_c, 0, 74, 80
2, 1056, Note_on_c, 0, 74, 0
2, 1056, Note_on_c, 0, 78, 64
2, 1101, Note_on_c, 0, 78, 0
2, 1104, Note_on_c, 0, 74, 64
2, 1149, Note_on_c, 0, 74, 0
2, 1152, Note_on_c, 0, 69, 64
2, 1241, Note_on_c, 0, 69, 0
2, 1344, Note_on_c, 0, 69, 81
2, 1344, Note_on_c, 0, 57, 81
2, 1433, Note_on_c, 0, 69, 0
2, 1433, Note_on_c, 0, 57, 0
2, 1440, Note_on_c, 0, 69, 70
2, 1440, Note_on_c, 0, 59, 70
2, 1728, Note_on_c, 0, 69, 0
2, 1728, Note_on_c, 0, 67, 64
2, 1905, Note_on_c, 0, 67, 0
2, 1905, Note_on_c, 0, 59, 0
2, 1920, Note_on_c, 0, 67, 81
2, 1920, Note_on_c, 0, 58, 81
2, 2009, Note_on_c, 0, 67, 0
2, 2009, Note_on_c, 0, 58, 0
2, 2016, Note_on_c, 0, 67, 64
2, 2016, Note_on_c, 0, 57, 64
2, 2304, Note_on_c, 0, 67, 0
2, 2304, Note_on_c, 0, 66, 64
2, 2481, Note_on_c, 0, 66, 0
2, 2481, Note_on_c, 0, 57, 0
2, 2496, Note_on_c, 0, 66, 81
2, 2496, Note_on_c, 0, 59, 81
2, 2592, Note_on_c, 0, 66, 0
2, 2592, Note_on_c, 0, 64, 64
2, 2688, Note_on_c, 0, 64, 0
2, 2688, Note_on_c, 0, 62, 64
2, 2777, Note_on_c, 0, 62, 0
2, 2777, Note_on_c, 0, 59, 0
2, 2784, Note_on_c, 0, 67, 81
2, 2784, Note_on_c, 0, 61, 81
2, 2880, Note_on_c, 0, 67, 0
2, 2880, Note_on_c, 0, 66, 64
2, 2976, Note_on_c, 0, 66, 0
2, 2976, Note_on_c, 0, 64, 64
2, 3065, Note_on_c, 0, 64, 0
2, 3065, Note_on_c, 0, 61, 0
2, 3072, Note_on_c, 0, 69, 81
2, 3072, Note_on_c, 0, 62, 81
2, 3168, Note_on_c, 0, 69, 0
2, 3168, Note_on_c, 0, 67, 64
2, 3264, Note_on_c, 0, 67, 0
2, 3264, Note_on_c, 0, 66, 64
2, 3353, Note_on_c, 0, 66, 0
2, 3353, Note_on_c, 0, 62, 0
2, 3360, Note_on_c, 0, 71, 81
2, 3360, Note_on_c, 0, 64, 81
2, 3449, Note_on_c, 0, 71, 0
2, 3449, Note_on_c, 0, 64, 0
2, 3456, Note_on_c, 0, 69, 64
2, 3456, Note_on_c, 0, 64, 64
2, 3552, Note_on_c, 0, 69, 0
2, 3552, Note_on_c, 0, 64, 0
2, 3552, Note_on_c, 0, 68, 67
2, 3552, Note_on_c, 0, 65, 67
2, 3641, Note_on_c, 0, 68, 0
2, 3641, Note_on_c, 0, 65, 0
2, 3648, Note_on_c, 0, 69, 70
2, 3648, Note_on_c, 0, 64, 70
2, 3737, Note_on_c, 0, 69, 0
2, 3737, Note_on_c, 0, 64, 0
2, 3744, Note_on_c, 0, 74, 73
2, 3744, Note_on_c, 0, 68, 73
2, 3840, Note_on_c, 0, 74, 0
2, 3840, Note_on_c, 0, 68, 0
2, 3840, Note_on_c, 0, 73, 76
2, 3840, Note_on_c, 0, 69, 76
2, 3929, Note_on_c, 0, 73, 0
2, 3929, Note_on_c, 0, 69, 0
2, 3936, Note_on_c, 0, 78, 97
2, 4025, Note_on_c, 0, 78, 0
2, 4032, Note_on_c, 0, 69, 80
2, 4209, Note_on_c, 0, 69, 0
2, 4224, Note_on_c, 0, 71, 77
2, 4269, Note_on_c, 0, 71, 0
2, 4272, Note_on_c, 0, 68, 76
2, 4317, Note_on_c, 0, 68, 0
2, 4320, Note_on_c, 0, 69, 76
2, 4320, Note_on_c, 0, 61, 76
2, 4409, Note_on_c, 0, 69, 0
2, 4409, Note_on_c, 0, 61, 0
2, 4512, Note_on_c, 0, 76, 92
2, 4512, Note_on_c, 0, 67, 92
2, 4608, Note_on_c, 0, 67, 0
2, 4608, Note_on_c, 0, 65, 75
2, 4697, Note_on_c, 0, 76, 0
2, 4697, Note_on_c, 0, 65, 0
2, 4704, Note_on_c, 0, 74, 75
2, 4704, Note_on_c, 0, 66, 75
2, 4793, Note_on_c, 0, 74, 0
2, 4793, Note_on_c, 0, 66, 0
2, 4800, Note_on_c, 0, 73, 75
2, 4800, Note_on_c, 0, 64, 75
2, 4889, Note_on_c, 0, 73, 0
2, 4889, Note_on_c, 0, 64, 0
2, 4896, Note_on_c, 0, 71, 75
2, 4896, Note_on_c, 0, 62, 75
2, 4985, Note_on_c, 0, 71, 0
2, 4985, Note_on_c, 0, 62, 0
2, 4992, Note_on_c, 0, 69, 75
2, 4992, Note_on_c, 0, 61, 75
2, 5081, Note_on_c, 0, 69, 0
2, 5081, Note_on_c, 0, 61, 0
2, 5088, Note_on_c, 0, 68, 75
2, 5088, Note_on_c, 0, 59, 75
2, 5177, Note_on_c, 0, 68, 0
2, 5177, Note_on_c, 0, 59, 0
2, 5184, Note_on_c, 0, 69, 92
2, 5184, Note_on_c, 0, 57, 92
2, 5273, Note_on_c, 0, 69, 0
2, 5273, Note_on_c, 0, 57, 0
2, 5280, Note_on_c, 0, 68, 75
2, 5280, Note_on_c, 0, 59, 75
2, 5369, Note_on_c, 0, 68, 0
2, 5369, Note_on_c, 0, 59, 0
2, 5376, Note_on_c, 0, 69, 75
2, 5376, Note_on_c, 0, 61, 75
2, 5465, Note_on_c, 0, 69, 0
2, 5465, Note_on_c, 0, 61, 0
2, 5472, Note_on_c, 0, 71, 75
2, 5472, Note_on_c, 0, 62, 75
2, 5561, Note_on_c, 0, 71, 0
2, 5561, Note_on_c, 0, 62, 0
2, 5568, Note_on_c, 0, 69, 75
2, 5568, Note_on_c, 0, 61, 75
2, 5657, Note_on_c, 0, 69, 0
2, 5657, Note_on_c, 0, 61, 0
2, 5664, Note_on_c, 0, 68, 75
2, 5664, Note_on_c, 0, 59, 75
2, 5753, Note_on_c, 0, 68, 0
2, 5753, Note_on_c, 0, 59, 0
2, 5760, Note_on_c, 0, 69, 92
2, 5760, Note_on_c, 0, 57, 92
2, 5849, Note_on_c, 0, 69, 0
2, 5849, Note_on_c, 0, 57, 0
2, 5856, Note_on_c, 0, 68, 64
2, 5856, Note_on_c, 0, 59, 64
2, 5945, Note_on_c, 0, 68, 0
2, 5945, Note_on_c, 0, 59, 0
2, 5952, Note_on_c, 0, 69, 64
2, 5952, Note_on_c, 0, 61, 64
2, 6041, Note_on_c, 0, 69, 0
2, 6041, Note_on_c, 0, 61, 0
2, 6048, Note_on_c, 0, 71, 64
2, 6048, Note_on_c, 0, 62, 64
2, 6137, Note_on_c, 0, 71, 0
2, 6137, Note_on_c, 0, 62, 0
2, 6144, Note_on_c, 0, 69, 64
2, 6144, Note_on_c, 0, 61, 64
2, 6233, Note_on_c, 0, 69, 0
2, 6233, Note_on_c, 0, 61, 0
2, 6240, Note_on_c, 0, 68, 64
2, 6240, Note_on_c, 0, 59, 64
2, 6329, Note_on_c, 0, 68, 0
2, 6329, Note_on_c, 0, 59, 0
2, 6336, Note_on_c, 0, 69, 81
2, 6336, Note_on_c, 0, 57, 81
2, 6425, Note_on_c, 0, 69, 0
2, 6425, Note_on_c, 0, 57, 0
2, 6432, Note_on_c, 0, 69, 58
2, 6432, Note_on_c, 0, 61, 58
2, 6521, Note_on_c, 0, 69, 0
2, 6521, Note_on_c, 0, 61, 0
2, 6528, Note_on_c, 0, 69, 58
2, 6528, Note_on_c, 0, 61, 58
2, 6617, Note_on_c, 0, 69, 0
2, 6617, Note_on_c, 0, 61, 0
2, 6624, Note_on_c, 0, 69, 58
2, 6624, Note_on_c, 0, 61, 58
2, 6801, Note_on_c, 0, 69, 0
2, 6801, Note_on_c, 0, 61, 0
2, 7200, Note_on_c, 0, 61, 73
2, 7289, Note_on_c, 0, 61, 0
2, 7296, Note_on_c, 0, 62, 71
2, 7385, Note_on_c, 0, 62, 0
2, 7392, Note_on_c, 0, 66, 69
2, 7481, Note_on_c, 0, 66, 0
2, 7488, Note_on_c, 0, 69, 67
2, 7621, Note_on_c, 0, 69, 0
2, 7632, Note_on_c, 0, 74, 80
2, 7680, Note_on_c, 0, 74, 0
2, 7680, Note_on_c, 0, 78, 64
2, 7725, Note_on_c, 0, 78, 0
2, 7728, Note_on_c, 0, 74, 64
2, 7773, Note_on_c, 0, 74, 0
2, 7776, Note_on_c, 0, 69, 64
2, 7865, Note_on_c, 0, 69, 0
2, 7968, Note_on_c, 0, 69, 81
2, 7968, Note_on_c, 0, 57, 81
2, 8057, Note_on_c, 0, 69, 0
2, 8057, Note_on_c, 0, 57, 0
2, 8064, Note_on_c, 0, 69, 70
2, 8064, Note_on_c, 0, 59, 70
2, 8352, Note_on_c, 0, 69, 0
2, 8352, Note_on_c, 0, 67, 64
2, 8529, Note_on_c, 0, 67, 0
2, 8529, Note_on_c, 0, 59, 0
2, 8544, Note_on_c, 0, 67, 81
2, 8544, Note_on_c, 0, 58, 81
2, 8633, Note_on_c, 0, 67, 0
2, 8633, Note_on_c, 0, 58, 0
2, 8640, Note_on_c, 0, 67, 64
2, 8640, Note_on_c, 0, 57, 64
2, 8928, Note_on_c, 0, 67, 0
2, 8928, Note_on_c, 0, 66, 64
2, 9105, Note_on_c, 0, 66, 0
2, 9105, Note_on_c, 0, 57, 0
2, 9120, Note_on_c, 0, 66, 81
2, 9120, Note_on_c, 0, 59, 81
2, 9216, Note_on_c, 0, 66, 0
2, 9216, Note_on_c, 0, 64, 64
2, 9312, Note_on_c, 0, 64, 0
2, 9312, Note_on_c, 0, 62, 64
2, 9401, Note_on_c, 0, 62, 0
2, 9401, Note_on_c, 0, 59, 0
2, 9408, Note_on_c, 0, 67, 81
2, 9408, Note_on_c, 0, 61, 81
2, 9504, Note_on_c, 0, 67, 0
2, 9504, Note_on_c, 0, 66, 64
2, 9600, Note_on_c, 0, 66, 0
2, 9600, Note_on_c, 0, 64, 64
2, 9689, Note_on_c, 0, 64, 0
2, 9689, Note_on_c, 0, 61, 0
2, 9696, Note_on_c, 0, 69, 81
2, 9696, Note_on_c, 0, 62, 81
2, 9792, Note_on_c, 0, 69, 0
2, 9792, Note_on_c, 0, 67, 64
2, 9888, Note_on_c, 0, 67, 0
2, 9888, Note_on_c, 0, 66, 64
2, 9977, Note_on_c, 0, 66, 0
2, 9977, Note_on_c, 0, 62, 0
2, 9984, Note_on_c, 0, 71, 81
2, 9984, Note_on_c, 0, 64, 81
2, 10073, Note_on_c, 0, 71, 0
2, 10073, Note_on_c, 0, 64, 0
2, 10080, Note_on_c, 0, 69, 64
2, 10080, Note_on_c, 0, 64, 64
2, 10176, Note_on_c, 0, 69, 0
2, 10176, Note_on_c, 0, 64, 0
2, 10176, Note_on_c, 0, 68, 67
2, 10176, Note_on_c, 0, 65, 67
2, 10265, Note_on_c, 0, 68, 0
2, 10265, Note_on_c, 0, 65, 0
2, 10272, Note_on_c, 0, 69, 70
2, 10272, Note_on_c, 0, 64, 70
2, 10361, Note_on_c, 0, 69, 0
2, 10361, Note_on_c, 0, 64, 0
2, 10368, Note_on_c, 0, 74, 73
2, 10368, Note_on_c, 0, 68, 73
2, 10464, Note_on_c, 0, 74, 0
2, 10464, Note_on_c, 0, 68, 0
2, 10464, Note_on_c, 0, 73, 76
2, 10464, Note_on_c, 0, 69, 76
2, 10553, Note_on_c, 0, 73, 0
2, 10553, Note_on_c, 0, 69, 0
2, 10560, Note_on_c, 0, 78, 97
2, 10649, Note_on_c, 0, 78, 0
2, 10656, Note_on_c, 0, 69, 80
2, 10833, Note_on_c, 0, 69, 0
2, 10848, Note_on_c, 0, 71, 77
2, 10893, Note_on_c, 0, 71, 0
2, 10896, Note_on_c, 0, 68, 76
2, 10941, Note_on_c, 0, 68, 0
2, 10944, Note_on_c, 0, 69, 76
2, 10944, Note_on_c, 0, 61, 76
2, 11033, Note_on_c, 0, 69, 0
2, 11033, Note_on_c, 0, 61, 0
2, 11136, Note_on_c, 0, 76, 92
2, 11136, Note_on_c, 0, 67, 92
2, 11232, Note_on_c, 0, 67, 0
2, 11232, Note_on_c, 0, 65, 75
2, 11321, Note_on_c, 0, 76, 0
2, 11321, Note_on_c, 0, 65, 0
2, 11328, Note_on_c, 0, 74, 75
2, 11328, Note_on_c, 0, 66, 75
2, 11417, Note_on_c, 0, 74, 0
2, 11417, Note_on_c, 0, 66, 0
2, 11424, Note_on_c, 0, 73, 75
2, 11424, Note_on_c, 0, 64, 75
2, 11513, Note_on_c, 0, 73, 0
2, 11513, Note_on_c, 0, 64, 0
2, 11520, Note_on_c, 0, 71, 75
2, 11520, Note_on_c, 0, 62, 75
2, 11609, Note_on_c, 0, 71, 0
2, 11609, Note_on_c, 0, 62, 0
2, 11616, Note_on_c, 0, 69, 75
2, 11616, Note_on_c, 0, 61, 75
2, 11705, Note_on_c, 0, 69, 0
2, 11705, Note_on_c, 0, 61, 0
2, 11712, Note_on_c, 0, 68, 75
2, 11712, Note_on_c, 0, 59, 75
2, 11801, Note_on_c, 0, 68, 0
2, 11801, Note_on_c, 0, 59, 0
2, 11808, Note_on_c, 0, 69, 92
2, 11808, Note_on_c, 0, 57, 92
2, 11897, Note_on_c, 0, 69, 0
2, 11897, Note_on_c, 0, 57, 0
2, 11904, Note_on_c, 0, 68, 75
2, 11904, Note_on_c, 0, 59, 75
2, 11993, Note_on_c, 0, 68, 0
2, 11993, Note_on_c, 0, 59, 0
2, 12000, Note_on_c, 0, 69, 75
2, 12000, Note_on_c, 0, 61, 75
2, 12089, Note_on_c, 0, 69, 0
2, 12089, Note_on_c, 0, 61, 0
2, 12096, Note_on_c, 0, 71, 75
2, 12096, Note_on_c, 0, 62, 75
2, 12185, Note_on_c, 0, 71, 0
2, 12185, Note_on_c, 0, 62, 0
2, 12192, Note_on_c, 0, 69, 75
2, 12192, Note_on_c, 0, 61, 75
2, 12281, Note_on_c, 0, 69, 0
2, 12281, Note_on_c, 0, 61, 0
2, 12288, Note_on_c, 0, 68, 75
2, 12288, Note_on_c, 0, 59, 75
2, 12377, Note_on_c, 0, 68, 0
2, 12377, Note_on_c, 0, 59, 0
2, 12384, Note_on_c, 0, 69, 92
2, 12384, Note_on_c, 0, 57, 92
2, 12473, Note_on_c, 0, 69, 0
2, 12473, Note_on_c, 0, 57, 0
2, 12480, Note_on_c, 0, 68, 64
2, 12480, Note_on_c, 0, 59, 64
2, 12569, Note_on_c, 0, 68, 0
2, 12569, Note_on_c, 0, 59, 0
2, 12576, Note_on_c, 0, 69, 64
2, 12576, Note_on_c, 0, 61, 64
2, 12665, Note_on_c, 0, 69, 0
2, 12665, Note_on_c, 0, 61, 0
2, 12672, Note_on_c, 0, 71, 64
2, 12672, Note_on_c, 0, 62, 64
2, 12761, Note_on_c, 0, 71, 0
2, 12761, Note_on_c, 0, 62, 0
2, 12768, Note_on_c, 0, 69, 64
2, 12768, Note_on_c, 0, 61, 64
2, 12857, Note_on_c, 0, 69, 0
2, 12857, Note_on_c, 0, 61, 0
2, 12864, Note_on_c, 0, 68, 64
2, 12864, Note_on_c, 0, 59, 64
2, 12953, Note_on_c, 0, 68, 0
2, 12953, Note_on_c, 0, 59, 0
2, 12960, Note_on_c, 0, 69, 81
2, 12960, Note_on_c, 0, 57, 81
2, 13049, Note_on_c, 0, 69, 0
2, 13049, Note_on_c, 0, 57, 0
2, 13056, Note_on_c, 0, 69, 58
2, 13056, Note_on_c, 0, 61, 58
2, 13145, Note_on_c, 0, 69, 0
2, 13145, Note_on_c, 0, 61, 0
2, 13152, Note_on_c, 0, 69, 58
2, 13152, Note_on_c, 0, 61, 58
2, 13241, Note_on_c, 0, 69, 0
2, 13241, Note_on_c, 0, 61, 0
2, 13248, Note_on_c, 0, 69, 58
2, 13248, Note_on_c, 0, 61, 58
2, 13425, Note_on_c, 0, 69, 0
2, 13425, Note_on_c, 0, 61, 0
2, 13440, Note_on_c, 0, 67, 64
2, 13529, Note_on_c, 0, 67, 0
2, 13536, Note_on_c, 0, 66, 64
2, 13625, Note_on_c, 0, 66, 0
2, 13632, Note_on_c, 0, 65, 64
2, 13721, Note_on_c, 0, 65, 0
2, 13728, Note_on_c, 0, 66, 64
2, 13817, Note_on_c, 0, 66, 0
2, 13824, Note_on_c, 0, 64, 64
2, 13920, Note_on_c, 0, 64, 0
2, 13920, Note_on_c, 0, 62, 64
2, 14009, Note_on_c, 0, 62, 0
2, 14016, Note_on_c, 0, 74, 64
2, 14105, Note_on_c, 0, 74, 0
2, 14112, Note_on_c, 0, 73, 64
2, 14201, Note_on_c, 0, 73, 0
2, 14208, Note_on_c, 0, 71, 64
2, 14297, Note_on_c, 0, 71, 0
2, 14304, Note_on_c, 0, 69, 64
2, 14393, Note_on_c, 0, 69, 0
2, 14400, Note_on_c, 0, 67, 64
2, 14489, Note_on_c, 0, 67, 0
2, 14496, Note_on_c, 0, 66, 64
2, 14585, Note_on_c, 0, 66, 0
2, 14592, Note_on_c, 0, 65, 81
2, 14681, Note_on_c, 0, 65, 0
2, 14688, Note_on_c, 0, 66, 64
2, 14777, Note_on_c, 0, 66, 0
2, 14784, Note_on_c, 0, 70, 66
2, 14873, Note_on_c, 0, 70, 0
2, 14880, Note_on_c, 0, 73, 68
2, 14969, Note_on_c, 0, 73, 0
2, 14976, Note_on_c, 0, 77, 70
2, 15072, Note_on_c, 0, 77, 0
2, 15072, Note_on_c, 0, 78, 72
2, 15161, Note_on_c, 0, 78, 0
2, 15168, Note_on_c, 0, 70, 75
2, 15257, Note_on_c, 0, 70, 0
2, 15264, Note_on_c, 0, 71, 75
2, 15353, Note_on_c, 0, 71, 0
2, 15360, Note_on_c, 0, 74, 75
2, 15449, Note_on_c, 0, 74, 0
2, 15456, Note_on_c, 0, 78, 75
2, 15545, Note_on_c, 0, 78, 0
2, 15552, Note_on_c, 0, 82, 75
2, 15648, Note_on_c, 0, 82, 0
2, 15648, Note_on_c, 0, 83, 75
2, 15737, Note_on_c, 0, 83, 0
2, 15744, Note_on_c, 0, 81, 91
2, 15744, Note_on_c, 0, 72, 91
2, 15840, Note_on_c, 0, 81, 0
2, 15840, Note_on_c, 0, 72, 0
2, 15840, Note_on_c, 0, 79, 76
2, 15840, Note_on_c, 0, 71, 76
2, 15929, Note_on_c, 0, 79, 0
2, 15929, Note_on_c, 0, 71, 0
2, 15936, Note_on_c, 0, 83, 93
2, 15936, Note_on_c, 0, 74, 93
2, 16032, Note_on_c, 0, 83, 0
2, 16032, Note_on_c, 0, 74, 0
2, 16032, Note_on_c, 0, 82, 78
2, 16032, Note_on_c, 0, 73, 78
2, 16121, Note_on_c, 0, 82, 0
2, 16121, Note_on_c, 0, 73, 0
2, 16128, Note_on_c, 0, 85, 79
2, 16128, Note_on_c, 0, 76, 79
2, 16217, Note_on_c, 0, 85, 0
2, 16217, Note_on_c, 0, 76, 0
2, 16224, Note_on_c, 0, 86, 97
2, 16224, Note_on_c, 0, 77, 97
2, 16313, Note_on_c, 0, 86, 0
2, 16313, Note_on_c, 0, 77, 0
2, 16320, Note_on_c, 0, 74, 64
2, 16320, Note_on_c, 0, 71, 64
2, 16505, Note_on_c, 0, 74, 0
2, 16505, Note_on_c, 0, 71, 0
2, 16512, Note_on_c, 0, 76, 64
2, 16512, Note_on_c, 0, 73, 64
2, 16601, Note_on_c, 0, 76, 0
2, 16601, Note_on_c, 0, 73, 0
2, 16608, Note_on_c, 0, 70, 81
2, 16608, Note_on_c, 0, 64, 81
2, 16697, Note_on_c, 0, 70, 0
2, 16697, Note_on_c, 0, 64, 0
2, 16704, Note_on_c, 0, 71, 64
2, 16704, Note_on_c, 0, 62, 64
2, 17169, Note_on_c, 0, 71, 0
2, 17169, Note_on_c, 0, 62, 0
2, 17184, Note_on_c, 0, 69, 81
2, 17184, Note_on_c, 0, 66, 81
2, 17273, Note_on_c, 0, 69, 0
2, 17273, Note_on_c, 0, 66, 0
2, 17280, Note_on_c, 0, 67, 64
2, 17280, Note_on_c, 0, 66, 64
2, 17568, Note_on_c, 0, 66, 0
2, 17568, Note_on_c, 0, 64, 67
2, 17745, Note_on_c, 0, 67, 0
2, 17745, Note_on_c, 0, 64, 0
2, 17760, Note_on_c, 0, 68, 87
2, 17849, Note_on_c, 0, 68, 0
2, 17856, Note_on_c, 0, 69, 70
2, 17945, Note_on_c, 0, 69, 0
2, 17952, Note_on_c, 0, 73, 71
2, 18041, Note_on_c, 0, 73, 0
2, 18048, Note_on_c, 0, 76, 72
2, 18137, Note_on_c, 0, 76, 0
2, 18144, Note_on_c, 0, 80, 73
2, 18233, Note_on_c, 0, 80, 0
2, 18240, Note_on_c, 0, 81, 75
2, 18329, Note_on_c, 0, 81, 0
2, 18336, Note_on_c, 0, 83, 92
2, 18425, Note_on_c, 0, 83, 0
2, 18432, Note_on_c, 0, 79, 80
2, 18521, Note_on_c, 0, 79, 0
2, 18528, Note_on_c, 0, 76, 80
2, 18617, Note_on_c, 0, 76, 0
2, 18624, Note_on_c, 0, 79, 96
2, 18672, Note_on_c, 0, 79, 0
2, 18672, Note_on_c, 0, 76, 80
2, 18717, Note_on_c, 0, 76, 0
2, 18720, Note_on_c, 0, 73, 80
2, 18765, Note_on_c, 0, 73, 0
2, 18768, Note_on_c, 0, 76, 80
2, 18813, Note_on_c, 0, 76, 0
2, 18816, Note_on_c, 0, 73, 80
2, 18861, Note_on_c, 0, 73, 0
2, 18864, Note_on_c, 0, 67, 80
2, 18909, Note_on_c, 0, 67, 0
2, 18912, Note_on_c, 0, 73, 96
2, 18960, Note_on_c, 0, 73, 0
2, 18960, Note_on_c, 0, 67, 80
2, 19005, Note_on_c, 0, 67, 0
2, 19008, Note_on_c, 0, 64, 80
2, 19053, Note_on_c, 0, 64, 0
2, 19056, Note_on_c, 0, 67, 80
2, 19101, Note_on_c, 0, 67, 0
2, 19104, Note_on_c, 0, 64, 80
2, 19149, Note_on_c, 0, 64, 0
2, 19152, Note_on_c, 0, 61, 80
2, 19197, Note_on_c, 0, 61, 0
2, 19200, Note_on_c, 0, 64, 96
2, 19248, Note_on_c, 0, 64, 0
2, 19248, Note_on_c, 0, 61, 80
2, 19293, Note_on_c, 0, 61, 0
2, 20160, Note_on_c, 0, 61, 73
2, 20249, Note_on_c, 0, 61, 0
2, 20256, Note_on_c, 0, 62, 71
2, 20345, Note_on_c, 0, 62, 0
2, 20352, Note_on_c, 0, 66, 69
2, 20441, Note_on_c, 0, 66, 0
2, 20448, Note_on_c, 0, 69, 67
2, 20581, Note_on_c, 0, 69, 0
2, 20592, Note_on_c, 0, 74, 80
2, 20640, Note_on_c, 0, 74, 0
2, 20640, Note_on_c, 0, 78, 64
2, 20685, Note_on_c, 0, 78, 0
2, 20688, Note_on_c, 0, 74, 64
2, 20733, Note_on_c, 0, 74, 0
2, 20736, Note_on_c, 0, 69, 64
2, 20825, Note_on_c, 0, 69, 0
2, 20928, Note_on_c, 0, 69, 81
2, 20928, Note_on_c, 0, 57, 81
2, 21017, Note_on_c, 0, 69, 0
2, 21017, Note_on_c, 0, 57, 0
2, 21024, Note_on_c, 0, 69, 70
2, 21024, Note_on_c, 0, 59, 70
2, 21312, Note_on_c, 0, 69, 0
2, 21312, Note_on_c, 0, 67, 64
2, 21489, Note_on_c, 0, 67, 0
2, 21489, Note_on_c, 0, 59, 0
2, 21504, Note_on_c, 0, 67, 81
2, 21504, Note_on_c, 0, 58, 81
2, 21593, Note_on_c, 0, 67, 0
2, 21593, Note_on_c, 0, 58, 0
2, 21600, Note_on_c, 0, 67, 64
2, 21600, Note_on_c, 0, 57, 64
2, 21888, Note_on_c, 0, 67, 0
2, 21888, Note_on_c, 0, 66, 64
2, 22065, Note_on_c, 0, 66, 0
2, 22065, Note_on_c, 0, 57, 0
2, 22080, Note_on_c, 0, 66, 81
2, 22080, Note_on_c, 0, 59, 81
2, 22176, Note_on_c, 0, 66, 0
2, 22176, Note_on_c, 0, 64, 64
2, 22272, Note_on_c, 0, 64, 0
2, 22272, Note_on_c, 0, 62, 64
2, 22361, Note_on_c, 0, 62, 0
2, 22361, Note_on_c, 0, 59, 0
2, 22368, Note_on_c, 0, 67, 81
2, 22368, Note_on_c, 0, 61, 81
2, 22464, Note_on_c, 0, 67, 0
2, 22464, Note_on_c, 0, 66, 64
2, 22560, Note_on_c, 0, 66, 0
2, 22560, Note_on_c, 0, 64, 64
2, 22649, Note_on_c, 0, 64, 0
2, 22649, Note_on_c, 0, 61, 0
2, 22656, Note_on_c, 0, 69, 81
2, 22656, Note_on_c, 0, 62, 81
2, 22752, Note_on_c, 0, 69, 0
2, 22752, Note_on_c, 0, 67, 64
2, 22848, Note_on_c, 0, 67, 0
2, 22848, Note_on_c, 0, 66, 64
2, 22937, Note_on_c, 0, 66, 0
2, 22937, Note_on_c, 0, 62, 0
2, 22944, Note_on_c, 0, 71, 81
2, 22944, Note_on_c, 0, 64, 81
2, 23033, Note_on_c, 0, 71, 0
2, 23033, Note_on_c, 0, 64, 0
2, 23040, Note_on_c, 0, 69, 64
2, 23040, Note_on_c, 0, 64, 64
2, 23136, Note_on_c, 0, 69, 0
2, 23136, Note_on_c, 0, 64, 0
2, 23136, Note_on_c, 0, 68, 67
2, 23136, Note_on_c, 0, 65, 67
2, 23225, Note_on_c, 0, 68, 0
2, 23225, Note_on_c, 0, 65, 0
2, 23232, Note_on_c, 0, 69, 70
2, 23232, Note_on_c, 0, 64, 70
2, 23321, Note_on_c, 0, 69, 0
2, 23321, Note_on_c, 0, 64, 0
2, 23328, Note_on_c, 0, 74, 73
2, 23328, Note_on_c, 0, 68, 73
2, 23424, Note_on_c, 0, 74, 0
2, 23424, Note_on_c, 0, 68, 0
2, 23424, Note_on_c, 0, 73, 76
2, 23424, Note_on_c, 0, 69, 76
2, 23513, Note_on_c, 0, 73, 0
2, 23513, Note_on_c, 0, 69, 0
2, 23520, Note_on_c, 0, 76, 97
2, 23520, Note_on_c, 0, 71, 97
2, 23609, Note_on_c, 0, 76, 0
2, 23609, Note_on_c, 0, 71, 0
2, 23616, Note_on_c, 0, 74, 75
2, 23616, Note_on_c, 0, 69, 75
2, 23705, Note_on_c, 0, 74, 0
2, 23705, Note_on_c, 0, 69, 0
2, 23712, Note_on_c, 0, 73, 75
2, 23712, Note_on_c, 0, 70, 75
2, 23801, Note_on_c, 0, 73, 0
2, 23801, Note_on_c, 0, 70, 0
2, 23808, Note_on_c, 0, 74, 75
2, 23808, Note_on_c, 0, 69, 75
2, 23897, Note_on_c, 0, 74, 0
2, 23897, Note_on_c, 0, 69, 0
2, 23904, Note_on_c, 0, 79, 75
2, 23904, Note_on_c, 0, 73, 75
2, 23993, Note_on_c, 0, 79, 0
2, 23993, Note_on_c, 0, 73, 0
2, 24000, Note_on_c, 0, 78, 75
2, 24000, Note_on_c, 0, 74, 75
2, 24089, Note_on_c, 0, 78, 0
2, 24089, Note_on_c, 0, 74, 0
2, 24096, Note_on_c, 0, 81, 92
2, 24096, Note_on_c, 0, 69, 92
2, 24185, Note_on_c, 0, 81, 0
2, 24185, Note_on_c, 0, 69, 0
2, 24192, Note_on_c, 0, 81, 75
2, 24457, Note_on_c, 0, 81, 0
2, 24480, Note_on_c, 0, 79, 80
2, 24569, Note_on_c, 0, 79, 0
2, 24576, Note_on_c, 0, 76, 76
2, 24665, Note_on_c, 0, 76, 0
2, 24672, Note_on_c, 0, 74, 73
2, 24761, Note_on_c, 0, 74, 0
2, 24768, Note_on_c, 0, 73, 70
2, 24857, Note_on_c, 0, 73, 0
2, 24864, Note_on_c, 0, 79, 71
2, 24864, Note_on_c, 0, 76, 71
2, 24953, Note_on_c, 0, 79, 0
2, 24953, Note_on_c, 0, 76, 0
2, 24960, Note_on_c, 0, 78, 72
2, 24960, Note_on_c, 0, 74, 72
2, 25049, Note_on_c, 0, 78, 0
2, 25049, Note_on_c, 0, 74, 0
2, 25056, Note_on_c, 0, 76, 74
2, 25056, Note_on_c, 0, 73, 74
2, 25145, Note_on_c, 0, 76, 0
2, 25145, Note_on_c, 0, 73, 0
2, 25152, Note_on_c, 0, 81, 75
2, 25152, Note_on_c, 0, 78, 75
2, 25241, Note_on_c, 0, 81, 0
2, 25241, Note_on_c, 0, 78, 0
2, 25248, Note_on_c, 0, 79, 77
2, 25248, Note_on_c, 0, 76, 77
2, 25337, Note_on_c, 0, 79, 0
2, 25337, Note_on_c, 0, 76, 0
2, 25344, Note_on_c, 0, 78, 78
2, 25344, Note_on_c, 0, 74, 78
2, 25433, Note_on_c, 0, 78, 0
2, 25433, Note_on_c, 0, 74, 0
2, 25440, Note_on_c, 0, 83, 80
2, 25440, Note_on_c, 0, 79, 80
2, 25529, Note_on_c, 0, 83, 0
2, 25529, Note_on_c, 0, 79, 0
2, 25536, Note_on_c, 0, 81, 80
2, 25536, Note_on_c, 0, 78, 80
2, 25625, Note_on_c, 0, 81, 0
2, 25625, Note_on_c, 0, 78, 0
2, 25632, Note_on_c, 0, 79, 81
2, 25632, Note_on_c, 0, 76, 81
2, 25721, Note_on_c, 0, 79, 0
2, 25721, Note_on_c, 0, 76, 0
2, 25728, Note_on_c, 0, 81, 82
2, 25728, Note_on_c, 0, 78, 82
2, 25817, Note_on_c, 0, 81, 0
2, 25817, Note_on_c, 0, 78, 0
2, 25824, Note_on_c, 0, 79, 83
2, 25824, Note_on_c, 0, 76, 83
2, 25913, Note_on_c, 0, 79, 0
2, 25913, Note_on_c, 0, 76, 0
2, 25920, Note_on_c, 0, 78, 84
2, 25920, Note_on_c, 0, 74, 84
2, 26097, Note_on_c, 0, 78, 0
2, 26097, Note_on_c, 0, 74, 0
2, 26112, Note_on_c, 0, 86, 102
2, 26385, Note_on_c, 0, 86, 0
2, 26400, Note_on_c, 0, 85, 102
2, 26673, Note_on_c, 0, 85, 0
2, 26688, Note_on_c, 0, 83, 103
2, 26961, Note_on_c, 0, 83, 0
2, 26976, Note_on_c, 0, 81, 103
2, 27249, Note_on_c, 0, 81, 0
2, 27264, Note_on_c, 0, 79, 86
2, 27353, Note_on_c, 0, 79, 0
2, 27360, Note_on_c, 0, 78, 86
2, 27360, Note_on_c, 0, 74, 86
2, 27449, Note_on_c, 0, 78, 0
2, 27449, Note_on_c, 0, 74, 0
2, 27456, Note_on_c, 0, 81, 86
2, 27456, Note_on_c, 0, 78, 86
2, 27545, Note_on_c, 0, 81, 0
2, 27545, Note_on_c, 0, 78, 0
2, 27552, Note_on_c, 0, 73, 103
2, 27552, Note_on_c, 0, 67, 103
2, 27648, Note_on_c, 0, 73, 0
2, 27648, Note_on_c, 0, 76, 86
2, 27737, Note_on_c, 0, 76, 0
2, 27737, Note_on_c, 0, 67, 0
2, 27744, Note_on_c, 0, 74, 86
2, 27744, Note_on_c, 0, 66, 86
2, 27833, Note_on_c, 0, 74, 0
2, 27833, Note_on_c, 0, 66, 0
2, 27840, Note_on_c, 0, 72, 103
2, 27929, Note_on_c, 0, 72, 0
2, 27936, Note_on_c, 0, 71, 86
2, 28113, Note_on_c, 0, 71, 0
2, 28128, Note_on_c, 0, 69, 103
2, 28217, Note_on_c, 0, 69, 0
2, 28224, Note_on_c, 0, 67, 75
2, 28401, Note_on_c, 0, 67, 0
2, 28416, Note_on_c, 0, 66, 77
2, 28505, Note_on_c, 0, 66, 0
2, 28512, Note_on_c, 0, 64, 78
2, 28601, Note_on_c, 0, 64, 0
2, 28608, Note_on_c, 0, 71, 80
2, 28697, Note_on_c, 0, 71, 0
2, 28704, Note_on_c, 0, 61, 80
2, 28793, Note_on_c, 0, 61, 0
2, 28800, Note_on_c, 0, 62, 80
2, 28889, Note_on_c, 0, 62, 0
2, 28992, Note_on_c, 0, 81, 97
2, 28992, Note_on_c, 0, 72, 97
2, 29088, Note_on_c, 0, 72, 0
2, 29088, Note_on_c, 0, 70, 75
2, 29177, Note_on_c, 0, 81, 0
2, 29177, Note_on_c, 0, 70, 0
2, 29184, Note_on_c, 0, 79, 75
2, 29184, Note_on_c, 0, 71, 75
2, 29273, Note_on_c, 0, 79, 0
2, 29273, Note_on_c, 0, 71, 0
2, 29280, Note_on_c, 0, 78, 75
2, 29280, Note_on_c, 0, 69, 75
2, 29369, Note_on_c, 0, 78, 0
2, 29369, Note_on_c, 0, 69, 0
2, 29376, Note_on_c, 0, 76, 75
2, 29376, Note_on_c, 0, 67, 75
2, 29465, Note_on_c, 0, 76, 0
2, 29465, Note_on_c, 0, 67, 0
2, 29472, Note_on_c, 0, 74, 75
2, 29472, Note_on_c, 0, 66, 75
2, 29561, Note_on_c, 0, 74, 0
2, 29561, Note_on_c, 0, 66, 0
2, 29568, Note_on_c, 0, 73, 75
2, 29568, Note_on_c, 0, 64, 75
2, 29657, Note_on_c, 0, 73, 0
2, 29657, Note_on_c, 0, 64, 0
2, 29664, Note_on_c, 0, 74, 92
2, 29664, Note_on_c, 0, 62, 92
2, 29753, Note_on_c, 0, 74, 0
2, 29753, Note_on_c, 0, 62, 0
2, 29760, Note_on_c, 0, 73, 64
2, 29760, Note_on_c, 0, 64, 64
2, 29849, Note_on_c, 0, 73, 0
2, 29849, Note_on_c, 0, 64, 0
2, 29856, Note_on_c, 0, 74, 64
2, 29856, Note_on_c, 0, 66, 64
2, 29945, Note_on_c, 0, 74, 0
2, 29945, Note_on_c, 0, 66, 0
2, 29952, Note_on_c, 0, 76, 64
2, 29952, Note_on_c, 0, 67, 64
2, 30041, Note_on_c, 0, 76, 0
2, 30041, Note_on_c, 0, 67, 0
2, 30048, Note_on_c, 0, 74, 64
2, 30048, Note_on_c, 0, 66, 64
2, 30137, Note_on_c, 0, 74, 0
2, 30137, Note_on_c, 0, 66, 0
2, 30144, Note_on_c, 0, 73, 64
2, 30144, Note_on_c, 0, 64, 64
2, 30233, Note_on_c, 0, 73, 0
2, 30233, Note_on_c, 0, 64, 0
2, 30240, Note_on_c, 0, 74, 81
2, 30240, Note_on_c, 0, 62, 81
2, 30329, Note_on_c, 0, 74, 0
2, 30329, Note_on_c, 0, 62, 0
2, 30336, Note_on_c, 0, 73, 58
2, 30336, Note_on_c, 0, 64, 58
2, 30425, Note_on_c, 0, 73, 0
2, 30425, Note_on_c, 0, 64, 0
2, 30432, Note_on_c, 0, 74, 58
2, 30432, Note_on_c, 0, 66, 58
2, 30521, Note_on_c, 0, 74, 0
2, 30521, Note_on_c, 0, 66, 0
2, 30528, Note_on_c, 0, 76, 58
2, 30528, Note_on_c, 0, 67, 58
2, 30617, Note_on_c, 0, 76, 0
2, 30617, Note_on_c, 0, 67, 0
2, 30624, Note_on_c, 0, 74, 58
2, 30624, Note_on_c, 0, 66, 58
2, 30713, Note_on_c, 0, 74, 0
2, 30713, Note_on_c, 0, 66, 0
2, 30720, Note_on_c, 0, 73, 58
2, 30720, Note_on_c, 0, 64, 58
2, 30809, Note_on_c, 0, 73, 0
2, 30809, Note_on_c, 0, 64, 0
2, 30816, Note_on_c, 0, 74, 58
2, 30816, Note_on_c, 0, 62, 58
2, 30905, Note_on_c, 0, 74, 0
2, 30905, Note_on_c, 0, 62, 0
2, 30912, Note_on_c, 0, 74, 58
2, 30912, Note_on_c, 0, 66, 58
2, 31001, Note_on_c, 0, 74, 0
2, 31001, Note_on_c, 0, 66, 0
2, 31008, Note_on_c, 0, 74, 58
2, 31008, Note_on_c, 0, 66, 58
2, 31097, Note_on_c, 0, 74, 0
2, 31097, Note_on_c, 0, 66, 0
2, 31104, Note_on_c, 0, 74, 58
2, 31193, Note_on_c, 0, 74, 0
2, 31296, Note_on_c, 0, 67, 58
2, 31385, Note_on_c, 0, 67, 0
2, 31392, Note_on_c, 0, 66, 64
2, 31481, Note_on_c, 0, 66, 0
2, 31488, Note_on_c, 0, 65, 64
2, 31577, Note_on_c, 0, 65, 0
2, 31584, Note_on_c, 0, 66, 64
2, 31673, Note_on_c, 0, 66, 0
2, 31680, Note_on_c, 0, 64, 64
2, 31776, Note_on_c, 0, 64, 0
2, 31776, Note_on_c, 0, 62, 64
2, 31865, Note_on_c, 0, 62, 0
2, 31872, Note_on_c, 0, 74, 64
2, 31961, Note_on_c, 0, 74, 0
2, 31968, Note_on_c, 0, 73, 64
2, 32057, Note_on_c, 0, 73, 0
2, 32064, Note_on_c, 0, 71, 64
2, 32153, Note_on_c, 0, 71, 0
2, 32160, Note_on_c, 0, 69, 64
2, 32249, Note_on_c, 0, 69, 0
2, 32256, Note_on_c, 0, 67, 64
2, 32345, Note_on_c, 0, 67, 0
2, 32352, Note_on_c, 0, 66, 64
2, 32441, Note_on_c, 0, 66, 0
2, 32448, Note_on_c, 0, 65, 81
2, 32537, Note_on_c, 0, 65, 0
2, 32544, Note_on_c, 0, 66, 64
2, 32633, Note_on_c, 0, 66, 0
2, 32640, Note_on_c, 0, 70, 66
2, 32729, Note_on_c, 0, 70, 0
2, 32736, Note_on_c, 0, 73, 68
2, 32825, Note_on_c, 0, 73, 0
2, 32832, Note_on_c, 0, 77, 70
2, 32928, Note_on_c, 0, 77, 0
2, 32928, Note_on_c, 0, 78, 72
2, 33017, Note_on_c, 0, 78, 0
2, 33024, Note_on_c, 0, 70, 75
2, 33113, Note_on_c, 0, 70, 0
2, 33120, Note_on_c, 0, 71, 75
2, 33209, Note_on_c, 0, 71, 0
2, 33216, Note_on_c, 0, 74, 75
2, 33305, Note_on_c, 0, 74, 0
2, 33312, Note_on_c, 0, 78, 75
2, 33401, Note_on_c, 0, 78, 0
2, 33408, Note_on_c, 0, 82, 75
2, 33504, Note_on_c, 0, 82, 0
2, 33504, Note_on_c, 0, 83, 75
2, 33593, Note_on_c, 0, 83, 0
2, 33600, Note_on_c, 0, 81, 91
2, 33600, Note_on_c, 0, 72, 91
2, 33696, Note_on_c, 0, 81, 0
2, 33696, Note_on_c, 0, 72, 0
2, 33696, Note_on_c, 0, 79, 76
2, 33696, Note_on_c, 0, 71, 76
2, 33785, Note_on_c, 0, 79, 0
2, 33785, Note_on_c, 0, 71, 0
2, 33792, Note_on_c, 0, 83, 93
2, 33792, Note_on_c, 0, 74, 93
2, 33888, Note_on_c, 0, 83, 0
2, 33888, Note_on_c, 0, 74, 0
2, 33888, Note_on_c, 0, 82, 78
2, 33888, Note_on_c, 0, 73, 78
2, 33977, Note_on_c, 0, 82, 0
2, 33977, Note_on_c, 0, 73, 0
2, 33984, Note_on_c, 0, 85, 79
2, 33984, Note_on_c, 0, 76, 79
2, 34073, Note_on_c, 0, 85, 0
2, 34073, Note_on_c, 0, 76, 0
2, 34080, Note_on_c, 0, 86, 97
2, 34080, Note_on_c, 0, 77, 97
2, 34169, Note_on_c, 0, 86, 0
2, 34169, Note_on_c, 0, 77, 0
2, 34176, Note_on_c, 0, 74, 64
2, 34176, Note_on_c, 0, 71, 64
2, 34361, Note_on_c, 0, 74, 0
2, 34361, Note_on_c, 0, 71, 0
2, 34368, Note_on_c, 0, 76, 64
2, 34368, Note_on_c, 0, 73, 64
2, 34457, Note_on_c, 0, 76, 0
2, 34457, Note_on_c, 0, 73, 0
2, 34464, Note_on_c, 0, 70, 81
2, 34464, Note_on_c, 0, 64, 81
2, 34553, Note_on_c, 0, 70, 0
2, 34553, Note_on_c, 0, 64, 0
2, 34560, Note_on_c, 0, 71, 64
2, 34560, Note_on_c, 0, 62, 64
2, 35025, Note_on_c, 0, 71, 0
2, 35025, Note_on_c, 0, 62, 0
2, 35040, Note_on_c, 0, 69, 81
2, 35040, Note_on_c, 0, 66, 81
2, 35129, Note_on_c, 0, 69, 0
2, 35129, Note_on_c, 0, 66, 0
2, 35136, Note_on_c, 0, 67, 64
2, 35136, Note_on_c, 0, 66, 64
2, 35424, Note_on_c, 0, 66, 0
2, 35424, Note_on_c, 0, 64, 67
2, 35601, Note_on_c, 0, 67, 0
2, 35601, Note_on_c, 0, 64, 0
2, 35616, Note_on_c, 0, 68, 87
2, 35705, Note_on_c, 0, 68, 0
2, 35712, Note_on_c, 0, 69, 70
2, 35801, Note_on_c, 0, 69, 0
2, 35808, Note_on_c, 0, 73, 71
2, 35897, Note_on_c, 0, 73, 0
2, 35904, Note_on_c, 0, 76, 72
2, 35993, Note_on_c, 0, 76, 0
2, 36000, Note_on_c, 0, 80, 73
2, 36089, Note_on_c, 0, 80, 0
2, 36096, Note_on_c, 0, 81, 75
2, 36185, Note_on_c, 0, 81, 0
2, 36192, Note_on_c, 0, 83, 92
2, 36281, Note_on_c, 0, 83, 0
2, 36288, Note_on_c, 0, 79, 80
2, 36377, Note_on_c, 0, 79, 0
2, 36384, Note_on_c, 0, 76, 80
2, 36473, Note_on_c, 0, 76, 0
2, 36480, Note_on_c, 0, 79, 96
2, 36528, Note_on_c, 0, 79, 0
2, 36528, Note_on_c, 0, 76, 80
2, 36573, Note_on_c, 0, 76, 0
2, 36576, Note_on_c, 0, 73, 80
2, 36621, Note_on_c, 0, 73, 0
2, 36624, Note_on_c, 0, 76, 80
2, 36669, Note_on_c, 0, 76, 0
2, 36672, Note_on_c, 0, 73, 80
2, 36717, Note_on_c, 0, 73, 0
2, 36720, Note_on_c, 0, 67, 80
2, 36765, Note_on_c, 0, 67, 0
2, 36768, Note_on_c, 0, 73, 96
2, 36816, Note_on_c, 0, 73, 0
2, 36816, Note_on_c, 0, 67, 80
2, 36861, Note_on_c, 0, 67, 0
2, 36864, Note_on_c, 0, 64, 80
2, 36909, Note_on_c, 0, 64, 0
2, 36912, Note_on_c, 0, 67, 80
2, 36957, Note_on_c, 0, 67, 0
2, 36960, Note_on_c, 0, 64, 80
2, 37005, Note_on_c, 0, 64, 0
2, 37008, Note_on_c, 0, 61, 80
2, 37053, Note_on_c, 0, 61, 0
2, 37056, Note_on_c, 0, 64, 96
2, 37104, Note_on_c, 0, 64, 0
2, 37104, Note_on_c, 0, 61, 80
2, 37149, Note_on_c, 0, 61, 0
2, 38016, Note_on_c, 0, 61, 73
2, 38105, Note_on_c, 0, 61, 0
2, 38112, Note_on_c, 0, 62, 71
2, 38201, Note_on_c, 0, 62, 0
2, 38208, Note_on_c, 0, 66, 69
2, 38297, Note_on_c, 0, 66, 0
2, 38304, Note_on_c, 0, 69, 67
2, 38437, Note_on_c, 0, 69, 0
2, 38448, Note_on_c, 0, 74, 80
2, 38496, Note_on_c, 0, 74, 0
2, 38496, Note_on_c, 0, 78, 64
2, 38541, Note_on_c, 0, 78, 0
2, 38544, Note_on_c, 0, 74, 64
2, 38589, Note_on_c, 0, 74, 0
2, 38592, Note_on_c, 0, 69, 64
2, 38681, Note_on_c, 0, 69, 0
2, 38784, Note_on_c, 0, 69, 81
2, 38784, Note_on_c, 0, 57, 81
2, 38873, Note_on_c, 0, 69, 0
2, 38873, Note_on_c, 0, 57, 0
2, 38880, Note_on_c, 0, 69, 70
2, 38880, Note_on_c, 0, 59, 70
2, 39168, Note_on_c, 0, 69, 0
2, 39168, Note_on_c, 0, 67, 64
2, 39345, Note_on_c, 0, 67, 0
2, 39345, Note_on_c, 0, 59, 0
2, 39360, Note_on_c, 0, 67, 81
2, 39360, Note_on_c, 0, 58, 81
2, 39449, Note_on_c, 0, 67, 0
2, 39449, Note_on_c, 0, 58, 0
2, 39456, Note_on_c, 0, 67, 64
2, 39456, Note_on_c, 0, 57, 64
2, 39744, Note_on_c, 0, 67, 0
2, 39744, Note_on_c, 0, 66, 64
2, 39921, Note_on_c, 0, 66, 0
2, 39921, Note_on_c, 0, 57, 0
2, 39936, Note_on_c, 0, 66, 81
2, 39936, Note_on_c, 0, 59, 81
2, 40032, Note_on_c, 0, 66, 0
2, 40032, Note_on_c, 0, 64, 64
2, 40128, Note_on_c, 0, 64, 0
2, 40128, Note_on_c, 0, 62, 64
2, 40217, Note_on_c, 0, 62, 0
2, 40217, Note_on_c, 0, 59, 0
2, 40224, Note_on_c, 0, 67, 81
2, 40224, Note_on_c, 0, 61, 81
2, 40320, Note_on_c, 0, 67, 0
2, 40320, Note_on_c, 0, 66, 64
2, 40416, Note_on_c, 0, 66, 0
2, 40416, Note_on_c, 0, 64, 64
2, 40505, Note_on_c, 0, 64, 0
2, 40505, Note_on_c, 0, 61, 0
2, 40512, Note_on_c, 0, 69, 81
2, 40512, Note_on_c, 0, 62, 81
2, 40608, Note_on_c, 0, 69, 0
2, 40608, Note_on_c, 0, 67, 64
2, 40704, Note_on_c, 0, 67, 0
2, 40704, Note_on_c, 0, 66, 64
2, 40793, Note_on_c, 0, 66, 0
2, 40793, Note_on_c, 0, 62, 0
2, 40800, Note_on_c, 0, 71, 81
2, 40800, Note_on_c, 0, 64, 81
2, 40889, Note_on_c, 0, 71, 0
2, 40889, Note_on_c, 0, 64, 0
2, 40896, Note_on_c, 0, 69, 64
2, 40896, Note_on_c, 0, 64, 64
2, 40992, Note_on_c, 0, 69, 0
2, 40992, Note_on_c, 0, 64, 0
2, 40992, Note_on_c, 0, 68, 67
2, 40992, Note_on_c, 0, 65, 67
2, 41081, Note_on_c, 0, 68, 0
2, 41081, Note_on_c, 0, 65, 0
2, 41088, Note_on_c, 0, 69, 70
2, 41088, Note_on_c, 0, 64, 70
2, 41177, Note_on_c, 0, 69, 0
2, 41177, Note_on_c, 0, 64, 0
2, 41184, Note_on_c, 0, 74, 73
2, 41184, Note_on_c, 0, 68, 73
2, 41280, Note_on_c, 0, 74, 0
2, 41280, Note_on_c, 0, 68, 0
2, 41280, Note_on_c, 0, 73, 76
2, 41280, Note_on_c, 0, 69, 76
2, 41369, Note_on_c, 0, 73, 0
2, 41369, Note_on_c, 0, 69, 0
2, 41376, Note_on_c, 0, 76, 97
2, 41376, Note_on_c, 0, 71, 97
2, 41465, Note_on_c, 0, 76, 0
2, 41465, Note_on_c, 0, 71, 0
2, 41472, Note_on_c, 0, 74, 75
2, 41472, Note_on_c, 0, 69, 75
2, 41561, Note_on_c, 0, 74, 0
2, 41561, Note_on_c, 0, 69, 0
2, 41568, Note_on_c, 0, 73, 75
2, 41568, Note_on_c, 0, 70, 75
2, 41657, Note_on_c, 0, 73, 0
2, 41657, Note_on_c, 0, 70, 0
2, 41664, Note_on_c, 0, 74, 75
2, 41664, Note_on_c, 0, 69, 75
2, 41753, Note_on_c, 0, 74, 0
2, 41753, Note_on_c, 0, 69, 0
2, 41760, Note_on_c, 0, 79, 75
2, 41760, Note_on_c, 0, 73, 75
2, 41849, Note_on_c, 0, 79, 0
2, 41849, Note_on_c, 0, 73, 0
2, 41856, Note_on_c, 0, 78, 75
2, 41856, Note_on_c, 0, 74, 75
2, 41945, Note_on_c, 0, 78, 0
2, 41945, Note_on_c, 0, 74, 0
2, 41952, Note_on_c, 0, 81, 92
2, 41952, Note_on_c, 0, 69, 92
2, 42041, Note_on_c, 0, 81, 0
2, 42041, Note_on_c, 0, 69, 0
2, 42048, Note_on_c, 0, 81, 75
2, 42313, Note_on_c, 0, 81, 0
2, 42336, Note_on_c, 0, 79, 80
2, 42425, Note_on_c, 0, 79, 0
2, 42432, Note_on_c, 0, 76, 76
2, 42521, Note_on_c, 0, 76, 0
2, 42528, Note_on_c, 0, 74, 73
2, 42617, Note_on_c, 0, 74, 0
2, 42624, Note_on_c, 0, 73, 70
2, 42713, Note_on_c, 0, 73, 0
2, 42720, Note_on_c, 0, 79, 71
2, 42720, Note_on_c, 0, 76, 71
2, 42809, Note_on_c, 0, 79, 0
2, 42809, Note_on_c, 0, 76, 0
2, 42816, Note_on_c, 0, 78, 72
2, 42816, Note_on_c, 0, 74, 72
2, 42905, Note_on_c, 0, 78, 0
2, 42905, Note_on_c, 0, 74, 0
2, 42912, Note_on_c, 0, 76, 74
2, 42912, Note_on_c, 0, 73, 74
2, 43001, Note_on_c, 0, 76, 0
2, 43001, Note_on_c, 0, 73, 0
2, 43008, Note_on_c, 0, 81, 75
2, 43008, Note_on_c, 0, 78, 75
2, 43097, Note_on_c, 0, 81, 0
2, 43097, Note_on_c, 0, 78, 0
2, 43104, Note_on_c, 0, 79, 77
2, 43104, Note_on_c, 0, 76, 77
2, 43193, Note_on_c, 0, 79, 0
2, 43193, Note_on_c, 0, 76, 0
2, 43200, Note_on_c, 0, 78, 78
2, 43200, Note_on_c, 0, 74, 78
2, 43289, Note_on_c, 0, 78, 0
2, 43289, Note_on_c, 0, 74, 0
2, 43296, Note_on_c, 0, 83, 80
2, 43296, Note_on_c, 0, 79, 80
2, 43385, Note_on_c, 0, 83, 0
2, 43385, Note_on_c, 0, 79, 0
2, 43392, Note_on_c, 0, 81, 80
2, 43392, Note_on_c, 0, 78, 80
2, 43481, Note_on_c, 0, 81, 0
2, 43481, Note_on_c, 0, 78, 0
2, 43488, Note_on_c, 0, 79, 81
2, 43488, Note_on_c, 0, 76, 81
2, 43577, Note_on_c, 0, 79, 0
2, 43577, Note_on_c, 0, 76, 0
2, 43584, Note_on_c, 0, 81, 82
2, 43584, Note_on_c, 0, 78, 82
2, 43673, Note_on_c, 0, 81, 0
2, 43673, Note_on_c, 0, 78, 0
2, 43680, Note_on_c, 0, 79, 83
2, 43680, Note_on_c, 0, 76, 83
2, 43769, Note_on_c, 0, 79, 0
2, 43769, Note_on_c, 0, 76, 0
2, 43776, Note_on_c, 0, 78, 84
2, 43776, Note_on_c, 0, 74, 84
2, 43953, Note_on_c, 0, 78, 0
2, 43953, Note_on_c, 0, 74, 0
2, 43968, Note_on_c, 0, 86, 102
2, 44241, Note_on_c, 0, 86, 0
2, 44256, Note_on_c, 0, 85, 102
2, 44529, Note_on_c, 0, 85, 0
2, 44544, Note_on_c, 0, 83, 103
2, 44817, Note_on_c, 0, 83, 0
2, 44832, Note_on_c, 0, 81, 103
2, 45105, Note_on_c, 0, 81, 0
2, 45120, Note_on_c, 0, 79, 86
2, 45209, Note_on_c, 0, 79, 0
2, 45216, Note_on_c, 0, 78, 86
2, 45216, Note_on_c, 0, 74, 86
2, 45305, Note_on_c, 0, 78, 0
2, 45305, Note_on_c, 0, 74, 0
2, 45312, Note_on_c, 0, 81, 86
2, 45312, Note_on_c, 0, 78, 86
2, 45401, Note_on_c, 0, 81, 0
2, 45401, Note_on_c, 0, 78, 0
2, 45408, Note_on_c, 0, 73, 103
2, 45408, Note_on_c, 0, 67, 103
2, 45504, Note_on_c, 0, 73, 0
2, 45504, Note_on_c, 0, 76, 86
2, 45593, Note_on_c, 0, 76, 0
2, 45593, Note_on_c, 0, 67, 0
2, 45600, Note_on_c, 0, 74, 86
2, 45600, Note_on_c, 0, 66, 86
2, 45689, Note_on_c, 0, 74, 0
2, 45689, Note_on_c, 0, 66, 0
2, 45696, Note_on_c, 0, 72, 103
2, 45785, Note_on_c, 0, 72, 0
2, 45792, Note_on_c, 0, 71, 86
2, 45969, Note_on_c, 0, 71, 0
2, 45984, Note_on_c, 0, 69, 103
2, 46073, Note_on_c, 0, 69, 0
2, 46080, Note_on_c, 0, 67, 75
2, 46257, Note_on_c, 0, 67, 0
2, 46272, Note_on_c, 0, 66, 77
2, 46361, Note_on_c, 0, 66, 0
2, 46368, Note_on_c, 0, 64, 78
2, 46457, Note_on_c, 0, 64, 0
2, 46464, Note_on_c, 0, 71, 80
2, 46553, Note_on_c, 0, 71, 0
2, 46560, Note_on_c, 0, 61, 80
2, 46649, Note_on_c, 0, 61, 0
2, 46656, Note_on_c, 0, 62, 80
2, 46745, Note_on_c, 0, 62, 0
2, 46848, Note_on_c, 0, 81, 97
2, 46848, Note_on_c, 0, 72, 97
2, 46944, Note_on_c, 0, 72, 0
2, 46944, Note_on_c, 0, 70, 75
2, 47033, Note_on_c, 0, 81, 0
2, 47033, Note_on_c, 0, 70, 0
2, 47040, Note_on_c, 0, 79, 75
2, 47040, Note_on_c, 0, 71, 75
2, 47129, Note_on_c, 0, 79, 0
2, 47129, Note_on_c, 0, 71, 0
2, 47136, Note_on_c, 0, 78, 75
2, 47136, Note_on_c, 0, 69, 75
2, 47225, Note_on_c, 0, 78, 0
2, 47225, Note_on_c, 0, 69, 0
2, 47232, Note_on_c, 0, 76, 75
2, 47232, Note_on_c, 0, 67, 75
2, 47321, Note_on_c, 0, 76, 0
2, 47321, Note_on_c, 0, 67, 0
2, 47328, Note_on_c, 0, 74, 75
2, 47328, Note_on_c, 0, 66, 75
2, 47417, Note_on_c, 0, 74, 0
2, 47417, Note_on_c, 0, 66, 0
2, 47424, Note_on_c, 0, 73, 75
2, 47424, Note_on_c, 0, 64, 75
2, 47513, Note_on_c, 0, 73, 0
2, 47513, Note_on_c, 0, 64, 0
2, 47520, Note_on_c, 0, 74, 92
2, 47520, Note_on_c, 0, 62, 92
2, 47609, Note_on_c, 0, 74, 0
2, 47609, Note_on_c, 0, 62, 0
2, 47616, Note_on_c, 0, 73, 64
2, 47616, Note_on_c, 0, 64, 64
2, 47705, Note_on_c, 0, 73, 0
2, 47705, Note_on_c, 0, 64, 0
2, 47712, Note_on_c, 0, 74, 64
2, 47712, Note_on_c, 0, 66, 64
2, 47801, Note_on_c, 0, 74, 0
2, 47801, Note_on_c, 0, 66, 0
2, 47808, Note_on_c, 0, 76, 64
2, 47808, Note_on_c, 0, 67, 64
2, 47897, Note_on_c, 0, 76, 0
2, 47897, Note_on_c, 0, 67, 0
2, 47904, Note_on_c, 0, 74, 64
2, 47904, Note_on_c, 0, 66, 64
2, 47993, Note_on_c, 0, 74, 0
2, 47993, Note_on_c, 0, 66, 0
2, 48000, Note_on_c, 0, 73, 64
2, 48000, Note_on_c, 0, 64, 64
2, 48089, Note_on_c, 0, 73, 0
2, 48089, Note_on_c, 0, 64, 0
2, 48096, Note_on_c, 0, 74, 81
2, 48096, Note_on_c, 0, 62, 81
2, 48185, Note_on_c, 0, 74, 0
2, 48185, Note_on_c, 0, 62, 0
2, 48192, Note_on_c, 0, 73, 58
2, 48192, Note_on_c, 0, 64, 58
2, 48281, Note_on_c, 0, 73, 0
2, 48281, Note_on_c, 0, 64, 0
2, 48288, Note_on_c, 0, 74, 58
2, 48288, Note_on_c, 0, 66, 58
2, 48377, Note_on_c, 0, 74, 0
2, 48377, Note_on_c, 0, 66, 0
2, 48384, Note_on_c, 0, 76, 58
2, 48384, Note_on_c, 0, 67, 58
2, 48473, Note_on_c, 0, 76, 0
2, 48473, Note_on_c, 0, 67, 0
2, 48480, Note_on_c, 0, 74, 58
2, 48480, Note_on_c, 0, 66, 58
2, 48569, Note_on_c, 0, 74, 0
2, 48569, Note_on_c, 0, 66, 0
2, 48576, Note_on_c, 0, 73, 58
2, 48576, Note_on_c, 0, 64, 58
2, 48665, Note_on_c, 0, 73, 0
2, 48665, Note_on_c, 0, 64, 0
2, 48672, Note_on_c, 0, 74, 58
2, 48672, Note_on_c, 0, 62, 58
2, 48761, Note_on_c, 0, 74, 0
2, 48761, Note_on_c, 0, 62, 0
2, 48768, Note_on_c, 0, 74, 58
2, 48768, Note_on_c, 0, 66, 58
2, 48807, Note_on_c, 0, 74, 0
2, 48807, Note_on_c, 0, 66, 0
2, 48864, Note_on_c, 0, 74, 58
2, 48864, Note_on_c, 0, 66, 58
2, 48903, Note_on_c, 0, 74, 0
2, 48903, Note_on_c, 0, 66, 0
2, 48960, Note_on_c, 0, 74, 58
2, 48960, Note_on_c, 0, 66, 58
2, 49137, Note_on_c, 0, 74, 0
2, 49137, Note_on_c, 0, 66, 0
2, 49248, End_track
3, 0, Start_track
3, 0, Program_c, 0, 0
3, 0, Control_c, 0, 7, 127
3, 0, Control_c, 0, 10, 64
3, 24192, Note_on_c, 0, 71, 64
3, 24745, Note_on_c, 0, 71, 0
3, 26112, Note_on_c, 0, 81, 80
3, 26208, Note_on_c, 0, 81, 0
3, 26208, Note_on_c, 0, 79, 64
3, 26297, Note_on_c, 0, 79, 0
3, 26304, Note_on_c, 0, 83, 64
3, 26393, Note_on_c, 0, 83, 0
3, 26400, Note_on_c, 0, 79, 80
3, 26496, Note_on_c, 0, 79, 0
3, 26496, Note_on_c, 0, 78, 64
3, 26585, Note_on_c, 0, 78, 0
3, 26592, Note_on_c, 0, 81, 64
3, 26681, Note_on_c, 0, 81, 0
3, 26688, Note_on_c, 0, 78, 81
3, 26777, Note_on_c, 0, 78, 0
3, 26784, Note_on_c, 0, 76, 64
3, 26873, Note_on_c, 0, 76, 0
3, 26880, Note_on_c, 0, 79, 64
3, 26969, Note_on_c, 0, 79, 0
3, 26976, Note_on_c, 0, 76, 81
3, 27065, Note_on_c, 0, 76, 0
3, 27072, Note_on_c, 0, 74, 64
3, 27161, Note_on_c, 0, 74, 0
3, 27168, Note_on_c, 0, 78, 64
3, 27257, Note_on_c, 0, 78, 0
3, 27264, Note_on_c, 0, 76, 64
3, 27353, Note_on_c, 0, 76, 0
3, 27840, Note_on_c, 0, 69, 64
3, 28025, Note_on_c, 0, 69, 0
3, 28032, Note_on_c, 0, 67, 64
3, 28121, Note_on_c, 0, 67, 0
3, 28128, Note_on_c, 0, 66, 81
3, 28313, Note_on_c, 0, 66, 0
3, 28320, Note_on_c, 0, 64, 64
3, 28409, Note_on_c, 0, 64, 0
3, 28416, Note_on_c, 0, 62, 64
3, 28505, Note_on_c, 0, 62, 0
3, 42048, Note_on_c, 0, 71, 64
3, 42601, Note_on_c, 0, 71, 0
3, 43968, Note_on_c, 0, 81, 80
3, 44064, Note_on_c, 0, 81, 0
3, 44064, Note_on_c, 0, 79, 64
3, 44153, Note_on_c, 0, 79, 0
3, 44160, Note_on_c, 0, 83, 64
3, 44249, Note_on_c, 0, 83, 0
3, 44256, Note_on_c, 0, 79, 80
3, 44352, Note_on_c, 0, 79, 0
3, 44352, Note_on_c, 0, 78, 64
3, 44441, Note_on_c, 0, 78, 0
3, 44448, Note_on_c, 0, 81, 64
3, 44537, Note_on_c, 0, 81, 0
3, 44544, Note_on_c, 0, 78, 81
3, 44633, Note_on_c, 0, 78, 0
3, 44640, Note_on_c, 0, 76, 64
3, 44729, Note_on_c, 0, 76, 0
3, 44736, Note_on_c, 0, 79, 64
3, 44825, Note_on_c, 0, 79, 0
3, 44832, Note_on_c, 0, 76, 81
3, 44921, Note_on_c, 0, 76, 0
3, 44928, Note_on_c, 0, 74, 64
3, 45017, Note_on_c, 0, 74, 0
3, 45024, Note_on_c, 0, 78, 64
3, 45113, Note_on_c, 0, 78, 0
3, 45120, Note_on_c, 0, 76, 64
3, 45209, Note_on_c, 0, 76, 0
3, 45696, Note_on_c, 0, 69, 64
3, 45881, Note_on_c, 0, 69, 0
3, 45888, Note_on_c, 0, 67, 64
3, 45977, Note_on_c, 0, 67, 0
3, 45984, Note_on_c, 0, 66, 81
3, 46169, Note_on_c, 0, 66, 0
3, 46176, Note_on_c, 0, 64, 64
3, 46265, Note_on_c, 0, 64, 0
3, 46272, Note_on_c, 0, 62, 64
3, 46361, Note_on_c, 0, 62, 0
3, 49248, End_track
4, 0, Start_track
4, 0, Program_c, 1, 0
4, 0, Control_c, 1, 7, 127
4, 0, Control_c, 1, 10, 64
4, 192, Note_on_c, 1, 49, 97
4, 192, Note_on_c, 1, 37, 97
4, 281, Note_on_c, 1, 49, 0
4, 281, Note_on_c, 1, 37, 0
4, 288, Note_on_c, 1, 50, 75
4, 288, Note_on_c, 1, 38, 75
4, 377, Note_on_c, 1, 50, 0
4, 377, Note_on_c, 1, 38, 0
4, 384, Note_on_c, 1, 54, 75
4, 384, Note_on_c, 1, 42, 75
4, 473, Note_on_c, 1, 54, 0
4, 473, Note_on_c, 1, 42, 0
4, 480, Note_on_c, 1, 57, 75
4, 480, Note_on_c, 1, 45, 75
4, 569, Note_on_c, 1, 57, 0
4, 569, Note_on_c, 1, 45, 0
4, 576, Note_on_c, 1, 49, 73
4, 665, Note_on_c, 1, 49, 0
4, 672, Note_on_c, 1, 50, 71
4, 761, Note_on_c, 1, 50, 0
4, 768, Note_on_c, 1, 54, 69
4, 857, Note_on_c, 1, 54, 0
4, 864, Note_on_c, 1, 57, 67
4, 997, Note_on_c, 1, 57, 0
4, 1008, Note_on_c, 1, 62, 80
4, 1056, Note_on_c, 1, 62, 0
4, 1056, Note_on_c, 1, 66, 64
4, 1101, Note_on_c, 1, 66, 0
4, 1104, Note_on_c, 1, 62, 64
4, 1149, Note_on_c, 1, 62, 0
4, 1152, Note_on_c, 1, 57, 64
4, 1241, Note_on_c, 1, 57, 0
4, 1344, Note_on_c, 1, 42, 81
4, 1440, Note_on_c, 1, 42, 0
4, 1440, Note_on_c, 1, 43, 70
4, 1529, Note_on_c, 1, 43, 0
4, 1536, Note_on_c, 1, 51, 70
4, 1632, Note_on_c, 1, 51, 0
4, 1632, Note_on_c, 1, 54, 70
4, 1721, Note_on_c, 1, 54, 0
4, 1728, Note_on_c, 1, 52, 64
4, 1817, Note_on_c, 1, 52, 0
4, 1824, Note_on_c, 1, 55, 64
4, 1913, Note_on_c, 1, 55, 0
4, 1920, Note_on_c, 1, 40, 81
4, 2016, Note_on_c, 1, 40, 0
4, 2016, Note_on_c, 1, 42, 64
4, 2105, Note_on_c, 1, 42, 0
4, 2112, Note_on_c, 1, 49, 64
4, 2208, Note_on_c, 1, 49, 0
4, 2208, Note_on_c, 1, 52, 64
4, 2297, Note_on_c, 1, 52, 0
4, 2304, Note_on_c, 1, 50, 64
4, 2400, Note_on_c, 1, 50, 0
4, 2400, Note_on_c, 1, 54, 64
4, 2489, Note_on_c, 1, 54, 0
4, 2496, Note_on_c, 1, 43, 81
4, 2585, Note_on_c, 1, 43, 0
4, 2592, Note_on_c, 1, 55, 64
4, 2681, Note_on_c, 1, 55, 0
4, 2688, Note_on_c, 1, 52, 64
4, 2777, Note_on_c, 1, 52, 0
4, 2784, Note_on_c, 1, 45, 81
4, 2873, Note_on_c, 1, 45, 0
4, 2880, Note_on_c, 1, 57, 64
4, 2969, Note_on_c, 1, 57, 0
4, 2976, Note_on_c, 1, 54, 64
4, 3065, Note_on_c, 1, 54, 0
4, 3072, Note_on_c, 1, 47, 81
4, 3161, Note_on_c, 1, 47, 0
4, 3168, Note_on_c, 1, 59, 64
4, 3257, Note_on_c, 1, 59, 0
4, 3264, Note_on_c, 1, 55, 64
4, 3353, Note_on_c, 1, 55, 0
4, 3360, Note_on_c, 1, 49, 81
4, 3449, Note_on_c, 1, 49, 0
4, 3456, Note_on_c, 1, 61, 64
4, 3545, Note_on_c, 1, 61, 0
4, 3552, Note_on_c, 1, 62, 67
4, 3641, Note_on_c, 1, 62, 0
4, 3648, Note_on_c, 1, 61, 70
4, 3737, Note_on_c, 1, 61, 0
4, 3744, Note_on_c, 1, 59, 73
4, 3840, Note_on_c, 1, 59, 0
4, 3840, Note_on_c, 1, 57, 76
4, 3929, Note_on_c, 1, 57, 0
4, 3936, Note_on_c, 1, 62, 97
4, 3936, Note_on_c, 1, 50, 97
4, 4025, Note_on_c, 1, 62, 0
4, 4025, Note_on_c, 1, 50, 0
4, 4032, Note_on_c, 1, 61, 80
4, 4032, Note_on_c, 1, 57, 80
4, 4209, Note_on_c, 1, 61, 0
4, 4209, Note_on_c, 1, 57, 0
4, 4224, Note_on_c, 1, 62, 77
4, 4313, Note_on_c, 1, 62, 0
4, 4320, Note_on_c, 1, 45, 76
4, 4409, Note_on_c, 1, 45, 0
4, 4416, Note_on_c, 1, 47, 75
4, 4505, Note_on_c, 1, 47, 0
4, 4512, Note_on_c, 1, 49, 92
4, 4601, Note_on_c, 1, 49, 0
4, 4608, Note_on_c, 1, 50, 75
4, 4785, Note_on_c, 1, 50, 0
4, 4800, Note_on_c, 1, 52, 75
4, 4889, Note_on_c, 1, 52, 0
4, 4896, Note_on_c, 1, 53, 75
4, 4985, Note_on_c, 1, 53, 0
4, 4992, Note_on_c, 1, 52, 75
4, 5081, Note_on_c, 1, 52, 0
4, 5088, Note_on_c, 1, 50, 75
4, 5177, Note_on_c, 1, 50, 0
4, 5184, Note_on_c, 1, 49, 92
4, 5273, Note_on_c, 1, 49, 0
4, 5280, Note_on_c, 1, 50, 75
4, 5369, Note_on_c, 1, 50, 0
4, 5376, Note_on_c, 1, 52, 75
4, 5465, Note_on_c, 1, 52, 0
4, 5472, Note_on_c, 1, 53, 75
4, 5561, Note_on_c, 1, 53, 0
4, 5568, Note_on_c, 1, 52, 75
4, 5657, Note_on_c, 1, 52, 0
4, 5664, Note_on_c, 1, 50, 75
4, 5753, Note_on_c, 1, 50, 0
4, 5760, Note_on_c, 1, 49, 92
4, 5849, Note_on_c, 1, 49, 0
4, 5856, Note_on_c, 1, 50, 64
4, 5945, Note_on_c, 1, 50, 0
4, 5952, Note_on_c, 1, 52, 64
4, 6041, Note_on_c, 1, 52, 0
4, 6048, Note_on_c, 1, 53, 64
4, 6137, Note_on_c, 1, 53, 0
4, 6144, Note_on_c, 1, 52, 64
4, 6233, Note_on_c, 1, 52, 0
4, 6240, Note_on_c, 1, 50, 64
4, 6329, Note_on_c, 1, 50, 0
4, 6336, Note_on_c, 1, 49, 81
4, 6425, Note_on_c, 1, 49, 0
4, 6432, Note_on_c, 1, 37, 58
4, 6521, Note_on_c, 1, 37, 0
4, 6528, Note_on_c, 1, 40, 58
4, 6617, Note_on_c, 1, 40, 0
4, 6624, Note_on_c, 1, 33, 58
4, 6713, Note_on_c, 1, 33, 0
4, 6720, Note_on_c, 1, 35, 58
4, 6809, Note_on_c, 1, 35, 0
4, 6816, Note_on_c, 1, 49, 75
4, 6816, Note_on_c, 1, 37, 75
4, 6905, Note_on_c, 1, 49, 0
4, 6905, Note_on_c, 1, 37, 0
4, 6912, Note_on_c, 1, 50, 75
4, 6912, Note_on_c, 1, 38, 75
4, 7001, Note_on_c, 1, 50, 0
4, 7001, Note_on_c, 1, 38, 0
4, 7008, Note_on_c, 1, 54, 75
4, 7008, Note_on_c, 1, 42, 75
4, 7097, Note_on_c, 1, 54, 0
4, 7097, Note_on_c, 1, 42, 0
4, 7104, Note_on_c, 1, 57, 75
4, 7104, Note_on_c, 1, 45, 75
4, 7193, Note_on_c, 1, 57, 0
4, 7193, Note_on_c, 1, 45, 0
4, 7200, Note_on_c, 1, 49, 73
4, 7289, Note_on_c, 1, 49, 0
4, 7296, Note_on_c, 1, 50, 71
4, 7385, Note_on_c, 1, 50, 0
4, 7392, Note_on_c, 1, 54, 69
4, 7481, Note_on_c, 1, 54, 0
4, 7488, Note_on_c, 1, 57, 67
4, 7621, Note_on_c, 1, 57, 0
4, 7632, Note_on_c, 1, 62, 80
4, 7680, Note_on_c, 1, 62, 0
4, 7680, Note_on_c, 1, 66, 64
4, 7725, Note_on_c, 1, 66, 0
4, 7728, Note_on_c, 1, 62, 64
4, 7773, Note_on_c, 1, 62, 0
4, 7776, Note_on_c, 1, 57, 64
4, 7865, Note_on_c, 1, 57, 0
4, 7968, Note_on_c, 1, 42, 81
4, 8064, Note_on_c, 1, 42, 0
4, 8064, Note_on_c, 1, 43, 70
4, 8153, Note_on_c, 1, 43, 0
4, 8160, Note_on_c, 1, 51, 70
4, 8256, Note_on_c, 1, 51, 0
4, 8256, Note_on_c, 1, 54, 70
4, 8345, Note_on_c, 1, 54, 0
4, 8352, Note_on_c, 1, 52, 64
4, 8441, Note_on_c, 1, 52, 0
4, 8448, Note_on_c, 1, 55, 64
4, 8537, Note_on_c, 1, 55, 0
4, 8544, Note_on_c, 1, 40, 81
4, 8640, Note_on_c, 1, 40, 0
4, 8640, Note_on_c, 1, 42, 64
4, 8729, Note_on_c, 1, 42, 0
4, 8736, Note_on_c, 1, 49, 64
4, 8832, Note_on_c, 1, 49, 0
4, 8832, Note_on_c, 1, 52, 64
4, 8921, Note_on_c, 1, 52, 0
4, 8928, Note_on_c, 1, 50, 64
4, 9024, Note_on_c, 1, 50, 0
4, 9024, Note_on_c, 1, 54, 64
4, 9113, Note_on_c, 1, 54, 0
4, 9120, Note_on_c, 1, 43, 81
4, 9209, Note_on_c, 1, 43, 0
4, 9216, Note_on_c, 1, 55, 64
4, 9305, Note_on_c, 1, 55, 0
4, 9312, Note_on_c, 1, 52, 64
4, 9401, Note_on_c, 1, 52, 0
4, 9408, Note_on_c, 1, 45, 81
4, 9497, Note_on_c, 1, 45, 0
4, 9504, Note_on_c, 1, 57, 64
4, 9593, Note_on_c, 1, 57, 0
4, 9600, Note_on_c, 1, 54, 64
4, 9689, Note_on_c, 1, 54, 0
4, 9696, Note_on_c, 1, 47, 81
4, 9785, Note_on_c, 1, 47, 0
4, 9792, Note_on_c, 1, 59, 64
4, 9881, Note_on_c, 1, 59, 0
4, 9888, Note_on_c, 1, 55, 64
4, 9977, Note_on_c, 1, 55, 0
4, 9984, Note_on_c, 1, 49, 81
4, 10073, Note_on_c, 1, 49, 0
4, 10080, Note_on_c, 1, 61, 64
4, 10169, Note_on_c, 1, 61, 0
4, 10176, Note_on_c, 1, 62, 67
4, 10265, Note_on_c, 1, 62, 0
4, 10272, Note_on_c, 1, 61, 70
4, 10361, Note_on_c, 1, 61, 0
4, 10368, Note_on_c, 1, 59, 73
4, 10464, Note_on_c, 1, 59, 0
4, 10464, Note_on_c, 1, 57, 76
4, 10553, Note_on_c, 1, 57, 0
4, 10560, Note_on_c, 1, 62, 97
4, 10560, Note_on_c, 1, 50, 97
4, 10649, Note_on_c, 1, 62, 0
4, 10649, Note_on_c, 1, 50, 0
4, 10656, Note_on_c, 1, 61, 80
4, 10656, Note_on_c, 1, 57, 80
4, 10833, Note_on_c, 1, 61, 0
4, 10833, Note_on_c, 1, 57, 0
4, 10848, Note_on_c, 1, 62, 77
4, 10937, Note_on_c, 1, 62, 0
4, 10944, Note_on_c, 1, 45, 76
4, 11033, Note_on_c, 1, 45, 0
4, 11040, Note_on_c, 1, 47, 75
4, 11129, Note_on_c, 1, 47, 0
4, 11136, Note_on_c, 1, 49, 92
4, 11225, Note_on_c, 1, 49, 0
4, 11232, Note_on_c, 1, 50, 75
4, 11409, Note_on_c, 1, 50, 0
4, 11424, Note_on_c, 1, 52, 75
4, 11513, Note_on_c, 1, 52, 0
4, 11520, Note_on_c, 1, 53, 75
4, 11609, Note_on_c, 1, 53, 0
4, 11616, Note_on_c, 1, 52, 75
4, 11705, Note_on_c, 1, 52, 0
4, 11712, Note_on_c, 1, 50, 75
4, 11801, Note_on_c, 1, 50, 0
4, 11808, Note_on_c, 1, 49, 92
4, 11897, Note_on_c, 1, 49, 0
4, 11904, Note_on_c, 1, 50, 75
4, 11993, Note_on_c, 1, 50, 0
4, 12000, Note_on_c, 1, 52, 75
4, 12089, Note_on_c, 1, 52, 0
4, 12096, Note_on_c, 1, 53, 75
4, 12185, Note_on_c, 1, 53, 0
4, 12192, Note_on_c, 1, 52, 75
4, 12281, Note_on_c, 1, 52, 0
4, 12288, Note_on_c, 1, 50, 75
4, 12377, Note_on_c, 1, 50, 0
4, 12384, Note_on_c, 1, 49, 92
4, 12473, Note_on_c, 1, 49, 0
4, 12480, Note_on_c, 1, 50, 64
4, 12569, Note_on_c, 1, 50, 0
4, 12576, Note_on_c, 1, 52, 64
4, 12665, Note_on_c, 1, 52, 0
4, 12672, Note_on_c, 1, 53, 64
4, 12761, Note_on_c, 1, 53, 0
4, 12768, Note_on_c, 1, 52, 64
4, 12857, Note_on_c, 1, 52, 0
4, 12864, Note_on_c, 1, 50, 64
4, 12953, Note_on_c, 1, 50, 0
4, 12960, Note_on_c, 1, 49, 81
4, 13049, Note_on_c, 1, 49, 0
4, 13056, Note_on_c, 1, 37, 58
4, 13145, Note_on_c, 1, 37, 0
4, 13152, Note_on_c, 1, 40, 58
4, 13241, Note_on_c, 1, 40, 0
4, 13248, Note_on_c, 1, 33, 58
4, 13425, Note_on_c, 1, 33, 0
4, 13440, Note_on_c, 1, 62, 64
4, 13440, Note_on_c, 1, 59, 64
4, 13529, Note_on_c, 1, 62, 0
4, 13529, Note_on_c, 1, 59, 0
4, 13536, Note_on_c, 1, 61, 64
4, 13536, Note_on_c, 1, 58, 64
4, 13713, Note_on_c, 1, 61, 0
4, 13713, Note_on_c, 1, 58, 0
4, 13728, Note_on_c, 1, 58, 64
4, 13728, Note_on_c, 1, 54, 64
4, 13817, Note_on_c, 1, 58, 0
4, 13817, Note_on_c, 1, 54, 0
4, 13824, Note_on_c, 1, 59, 64
4, 14001, Note_on_c, 1, 59, 0
4, 14016, Note_on_c, 1, 61, 64
4, 14105, Note_on_c, 1, 61, 0
4, 14112, Note_on_c, 1, 62, 64
4, 14289, Note_on_c, 1, 62, 0
4, 14304, Note_on_c, 1, 61, 64
4, 14393, Note_on_c, 1, 61, 0
4, 14400, Note_on_c, 1, 59, 64
4, 14400, Note_on_c, 1, 55, 64
4, 14577, Note_on_c, 1, 59, 0
4, 14577, Note_on_c, 1, 55, 0
4, 14592, Note_on_c, 1, 59, 81
4, 14592, Note_on_c, 1, 55, 81
4, 14681, Note_on_c, 1, 59, 0
4, 14681, Note_on_c, 1, 55, 0
4, 14688, Note_on_c, 1, 61, 64
4, 14688, Note_on_c, 1, 58, 64
4, 14688, Note_on_c, 1, 54, 64
4, 15153, Note_on_c, 1, 61, 0
4, 15153, Note_on_c, 1, 58, 0
4, 15153, Note_on_c, 1, 54, 0
4, 15168, Note_on_c, 1, 61, 92
4, 15168, Note_on_c, 1, 54, 92
4, 15168, Note_on_c, 1, 52, 92
4, 15257, Note_on_c, 1, 61, 0
4, 15257, Note_on_c, 1, 54, 0
4, 15257, Note_on_c, 1, 52, 0
4, 15264, Note_on_c, 1, 59, 75
4, 15264, Note_on_c, 1, 54, 75
4, 15264, Note_on_c, 1, 50, 75
4, 15729, Note_on_c, 1, 59, 0
4, 15729, Note_on_c, 1, 54, 0
4, 15729, Note_on_c, 1, 50, 0
4, 15744, Note_on_c, 1, 63, 75
4, 15833, Note_on_c, 1, 63, 0
4, 15840, Note_on_c, 1, 64, 76
4, 15929, Note_on_c, 1, 64, 0
4, 15936, Note_on_c, 1, 65, 77
4, 16025, Note_on_c, 1, 65, 0
4, 16032, Note_on_c, 1, 66, 78
4, 16121, Note_on_c, 1, 66, 0
4, 16128, Note_on_c, 1, 67, 79
4, 16217, Note_on_c, 1, 67, 0
4, 16224, Note_on_c, 1, 68, 97
4, 16313, Note_on_c, 1, 68, 0
4, 16320, Note_on_c, 1, 53, 97
4, 16409, Note_on_c, 1, 53, 0
4, 16416, Note_on_c, 1, 54, 80
4, 16593, Note_on_c, 1, 54, 0
4, 16608, Note_on_c, 1, 42, 97
4, 16697, Note_on_c, 1, 42, 0
4, 16704, Note_on_c, 1, 43, 80
4, 16793, Note_on_c, 1, 43, 0
4, 16800, Note_on_c, 1, 47, 80
4, 16889, Note_on_c, 1, 47, 0
4, 16896, Note_on_c, 1, 50, 80
4, 16985, Note_on_c, 1, 50, 0
4, 16992, Note_on_c, 1, 54, 80
4, 17088, Note_on_c, 1, 54, 0
4, 17088, Note_on_c, 1, 55, 80
4, 17177, Note_on_c, 1, 55, 0
4, 17184, Note_on_c, 1, 39, 97
4, 17273, Note_on_c, 1, 39, 0
4, 17280, Note_on_c, 1, 40, 80
4, 17369, Note_on_c, 1, 40, 0
4, 17376, Note_on_c, 1, 43, 81
4, 17465, Note_on_c, 1, 43, 0
4, 17472, Note_on_c, 1, 47, 83
4, 17561, Note_on_c, 1, 47, 0
4, 17568, Note_on_c, 1, 51, 84
4, 17664, Note_on_c, 1, 51, 0
4, 17664, Note_on_c, 1, 52, 86
4, 17753, Note_on_c, 1, 52, 0
4, 17760, Note_on_c, 1, 53, 103
4, 17760, Note_on_c, 1, 50, 103
4, 17849, Note_on_c, 1, 53, 0
4, 17849, Note_on_c, 1, 50, 0
4, 17856, Note_on_c, 1, 52, 86
4, 17856, Note_on_c, 1, 49, 86
4, 18409, Note_on_c, 1, 52, 0
4, 18409, Note_on_c, 1, 49, 0
4, 18432, Note_on_c, 1, 57, 80
4, 18432, Note_on_c, 1, 55, 80
4, 18432, Note_on_c, 1, 52, 80
4, 18432, Note_on_c, 1, 49, 80
4, 19273, Note_on_c, 1, 57, 0
4, 19273, Note_on_c, 1, 55, 0
4, 19273, Note_on_c, 1, 52, 0
4, 19273, Note_on_c, 1, 49, 0
4, 19296, Note_on_c, 1, 55, 80
4, 19341, Note_on_c, 1, 55, 0
4, 19344, Note_on_c, 1, 61, 80
4, 19389, Note_on_c, 1, 61, 0
4, 19392, Note_on_c, 1, 55, 80
4, 19437, Note_on_c, 1, 55, 0
4, 19440, Note_on_c, 1, 52, 80
4, 19485, Note_on_c, 1, 52, 0
4, 19488, Note_on_c, 1, 55, 113
4, 19488, Note_on_c, 1, 43, 113
4, 19536, Note_on_c, 1, 55, 0
4, 19536, Note_on_c, 1, 43, 0
4, 19536, Note_on_c, 1, 52, 80
4, 19536, Note_on_c, 1, 40, 80
4, 19581, Note_on_c, 1, 52, 0
4, 19581, Note_on_c, 1, 40, 0
4, 19584, Note_on_c, 1, 49, 80
4, 19584, Note_on_c, 1, 37, 80
4, 19629, Note_on_c, 1, 49, 0
4, 19629, Note_on_c, 1, 37, 0
4, 19632, Note_on_c, 1, 52, 80
4, 19632, Note_on_c, 1, 40, 80
4, 19677, Note_on_c, 1, 52, 0
4, 19677, Note_on_c, 1, 40, 0
4, 19680, Note_on_c, 1, 49, 80
4, 19680, Note_on_c, 1, 37, 80
4, 19725, Note_on_c, 1, 49, 0
4, 19725, Note_on_c, 1, 37, 0
4, 19728, Note_on_c, 1, 45, 80
4, 19728, Note_on_c, 1, 33, 80
4, 19773, Note_on_c, 1, 45, 0
4, 19773, Note_on_c, 1, 33, 0
4, 19776, Note_on_c, 1, 47, 80
4, 19776, Note_on_c, 1, 35, 80
4, 19821, Note_on_c, 1, 47, 0
4, 19821, Note_on_c, 1, 35, 0
4, 19824, Note_on_c, 1, 49, 80
4, 19824, Note_on_c, 1, 37, 80
4, 19869, Note_on_c, 1, 49, 0
4, 19869, Note_on_c, 1, 37, 0
4, 19872, Note_on_c, 1, 50, 75
4, 19872, Note_on_c, 1, 38, 75
4, 19961, Note_on_c, 1, 50, 0
4, 19961, Note_on_c, 1, 38, 0
4, 19968, Note_on_c, 1, 54, 75
4, 19968, Note_on_c, 1, 42, 75
4, 20057, Note_on_c, 1, 54, 0
4, 20057, Note_on_c, 1, 42, 0
4, 20064, Note_on_c, 1, 57, 75
4, 20064, Note_on_c, 1, 45, 75
4, 20153, Note_on_c, 1, 57, 0
4, 20153, Note_on_c, 1, 45, 0
4, 20160, Note_on_c, 1, 49, 73
4, 20249, Note_on_c, 1, 49, 0
4, 20256, Note_on_c, 1, 50, 71
4, 20345, Note_on_c, 1, 50, 0
4, 20352, Note_on_c, 1, 54, 69
4, 20441, Note_on_c, 1, 54, 0
4, 20448, Note_on_c, 1, 57, 67
4, 20581, Note_on_c, 1, 57, 0
4, 20592, Note_on_c, 1, 62, 80
4, 20640, Note_on_c, 1, 62, 0
4, 20640, Note_on_c, 1, 66, 64
4, 20685, Note_on_c, 1, 66, 0
4, 20688, Note_on_c, 1, 62, 64
4, 20733, Note_on_c, 1, 62, 0
4, 20736, Note_on_c, 1, 57, 64
4, 20825, Note_on_c, 1, 57, 0
4, 20928, Note_on_c, 1, 42, 81
4, 21024, Note_on_c, 1, 42, 0
4, 21024, Note_on_c, 1, 43, 70
4, 21113, Note_on_c, 1, 43, 0
4, 21120, Note_on_c, 1, 51, 70
4, 21216, Note_on_c, 1, 51, 0
4, 21216, Note_on_c, 1, 54, 70
4, 21305, Note_on_c, 1, 54, 0
4, 21312, Note_on_c, 1, 52, 64
4, 21401, Note_on_c, 1, 52, 0
4, 21408, Note_on_c, 1, 55, 64
4, 21497, Note_on_c, 1, 55, 0
4, 21504, Note_on_c, 1, 40, 81
4, 21600, Note_on_c, 1, 40, 0
4, 21600, Note_on_c, 1, 42, 64
4, 21689, Note_on_c, 1, 42, 0
4, 21696, Note_on_c, 1, 49, 64
4, 21792, Note_on_c, 1, 49, 0
4, 21792, Note_on_c, 1, 52, 64
4, 21881, Note_on_c, 1, 52, 0
4, 21888, Note_on_c, 1, 50, 64
4, 21984, Note_on_c, 1, 50, 0
4, 21984, Note_on_c, 1, 54, 64
4, 22073, Note_on_c, 1, 54, 0
4, 22080, Note_on_c, 1, 43, 81
4, 22169, Note_on_c, 1, 43, 0
4, 22176, Note_on_c, 1, 55, 64
4, 22265, Note_on_c, 1, 55, 0
4, 22272, Note_on_c, 1, 52, 64
4, 22361, Note_on_c, 1, 52, 0
4, 22368, Note_on_c, 1, 45, 81
4, 22457, Note_on_c, 1, 45, 0
4, 22464, Note_on_c, 1, 57, 64
4, 22553, Note_on_c, 1, 57, 0
4, 22560, Note_on_c, 1, 54, 64
4, 22649, Note_on_c, 1, 54, 0
4, 22656, Note_on_c, 1, 47, 81
4, 22745, Note_on_c, 1, 47, 0
4, 22752, Note_on_c, 1, 59, 64
4, 22841, Note_on_c, 1, 59, 0
4, 22848, Note_on_c, 1, 55, 64
4, 22937, Note_on_c, 1, 55, 0
4, 22944, Note_on_c, 1, 49, 81
4, 23033, Note_on_c, 1, 49, 0
4, 23040, Note_on_c, 1, 61, 64
4, 23129, Note_on_c, 1, 61, 0
4, 23136, Note_on_c, 1, 62, 67
4, 23225, Note_on_c, 1, 62, 0
4, 23232, Note_on_c, 1, 61, 70
4, 23321, Note_on_c, 1, 61, 0
4, 23328, Note_on_c, 1, 59, 73
4, 23424, Note_on_c, 1, 59, 0
4, 23424, Note_on_c, 1, 57, 76
4, 23513, Note_on_c, 1, 57, 0
4, 23520, Note_on_c, 1, 67, 97
4, 23609, Note_on_c, 1, 67, 0
4, 23616, Note_on_c, 1, 66, 75
4, 23705, Note_on_c, 1, 66, 0
4, 23712, Note_on_c, 1, 67, 75
4, 23801, Note_on_c, 1, 67, 0
4, 23808, Note_on_c, 1, 66, 75
4, 23897, Note_on_c, 1, 66, 0
4, 23904, Note_on_c, 1, 64, 75
4, 24000, Note_on_c, 1, 64, 0
4, 24000, Note_on_c, 1, 62, 75
4, 24089, Note_on_c, 1, 62, 0
4, 24096, Note_on_c, 1, 54, 92
4, 24185, Note_on_c, 1, 54, 0
4, 24192, Note_on_c, 1, 55, 75
4, 24281, Note_on_c, 1, 55, 0
4, 24288, Note_on_c, 1, 59, 75
4, 24377, Note_on_c, 1, 59, 0
4, 24384, Note_on_c, 1, 63, 75
4, 24473, Note_on_c, 1, 63, 0
4, 24480, Note_on_c, 1, 64, 80
4, 24569, Note_on_c, 1, 64, 0
4, 24576, Note_on_c, 1, 67, 76
4, 24665, Note_on_c, 1, 67, 0
4, 24672, Note_on_c, 1, 68, 73
4, 24761, Note_on_c, 1, 68, 0
4, 24768, Note_on_c, 1, 69, 70
4, 24857, Note_on_c, 1, 69, 0
4, 24864, Note_on_c, 1, 57, 71
4, 24953, Note_on_c, 1, 57, 0
4, 24960, Note_on_c, 1, 69, 72
4, 25145, Note_on_c, 1, 69, 0
4, 25152, Note_on_c, 1, 57, 75
4, 25241, Note_on_c, 1, 57, 0
4, 25248, Note_on_c, 1, 69, 77
4, 25433, Note_on_c, 1, 69, 0
4, 25440, Note_on_c, 1, 57, 80
4, 25529, Note_on_c, 1, 57, 0
4, 25536, Note_on_c, 1, 69, 81
4, 25721, Note_on_c, 1, 69, 0
4, 25728, Note_on_c, 1, 57, 83
4, 25817, Note_on_c, 1, 57, 0
4, 25824, Note_on_c, 1, 69, 84
4, 25913, Note_on_c, 1, 69, 0
4, 25920, Note_on_c, 1, 70, 85
4, 26016, Note_on_c, 1, 70, 0
4, 26016, Note_on_c, 1, 71, 86
4, 26105, Note_on_c, 1, 71, 0
4, 26112, Note_on_c, 1, 59, 103
4, 26201, Note_on_c, 1, 59, 0
4, 26208, Note_on_c, 1, 71, 86
4, 26297, Note_on_c, 1, 71, 0
4, 26304, Note_on_c, 1, 67, 86
4, 26393, Note_on_c, 1, 67, 0
4, 26400, Note_on_c, 1, 57, 103
4, 26489, Note_on_c, 1, 57, 0
4, 26496, Note_on_c, 1, 69, 86
4, 26585, Note_on_c, 1, 69, 0
4, 26592, Note_on_c, 1, 66, 86
4, 26681, Note_on_c, 1, 66, 0
4, 26688, Note_on_c, 1, 55, 103
4, 26777, Note_on_c, 1, 55, 0
4, 26784, Note_on_c, 1, 67, 86
4, 26873, Note_on_c, 1, 67, 0
4, 26880, Note_on_c, 1, 64, 86
4, 26969, Note_on_c, 1, 64, 0
4, 26976, Note_on_c, 1, 54, 103
4, 27065, Note_on_c, 1, 54, 0
4, 27072, Note_on_c, 1, 66, 86
4, 27161, Note_on_c, 1, 66, 0
4, 27168, Note_on_c, 1, 62, 86
4, 27257, Note_on_c, 1, 62, 0
4, 27264, Note_on_c, 1, 55, 86
4, 27353, Note_on_c, 1, 55, 0
4, 27360, Note_on_c, 1, 57, 86
4, 27537, Note_on_c, 1, 57, 0
4, 27552, Note_on_c, 1, 57, 103
4, 27648, Note_on_c, 1, 57, 0
4, 27648, Note_on_c, 1, 59, 86
4, 27737, Note_on_c, 1, 59, 0
4, 27744, Note_on_c, 1, 62, 86
4, 27833, Note_on_c, 1, 62, 0
4, 27840, Note_on_c, 1, 54, 103
4, 27936, Note_on_c, 1, 54, 0
4, 27936, Note_on_c, 1, 55, 86
4, 28025, Note_on_c, 1, 55, 0
4, 28032, Note_on_c, 1, 59, 86
4, 28121, Note_on_c, 1, 59, 0
4, 28128, Note_on_c, 1, 51, 103
4, 28224, Note_on_c, 1, 51, 0
4, 28224, Note_on_c, 1, 52, 75
4, 28313, Note_on_c, 1, 52, 0
4, 28320, Note_on_c, 1, 49, 76
4, 28409, Note_on_c, 1, 49, 0
4, 28416, Note_on_c, 1, 50, 77
4, 28505, Note_on_c, 1, 50, 0
4, 28512, Note_on_c, 1, 55, 78
4, 28512, Note_on_c, 1, 43, 78
4, 28689, Note_on_c, 1, 55, 0
4, 28689, Note_on_c, 1, 43, 0
4, 28704, Note_on_c, 1, 52, 80
4, 28704, Note_on_c, 1, 45, 80
4, 28793, Note_on_c, 1, 52, 0
4, 28793, Note_on_c, 1, 45, 0
4, 28800, Note_on_c, 1, 50, 80
4, 28889, Note_on_c, 1, 50, 0
4, 28896, Note_on_c, 1, 52, 80
4, 28985, Note_on_c, 1, 52, 0
4, 28992, Note_on_c, 1, 54, 97
4, 29081, Note_on_c, 1, 54, 0
4, 29088, Note_on_c, 1, 55, 75
4, 29265, Note_on_c, 1, 55, 0
4, 29280, Note_on_c, 1, 57, 75
4, 29369, Note_on_c, 1, 57, 0
4, 29376, Note_on_c, 1, 58, 75
4, 29465, Note_on_c, 1, 58, 0
4, 29472, Note_on_c, 1, 57, 75
4, 29561, Note_on_c, 1, 57, 0
4, 29568, Note_on_c, 1, 55, 75
4, 29657, Note_on_c, 1, 55, 0
4, 29664, Note_on_c, 1, 54, 92
4, 29753, Note_on_c, 1, 54, 0
4, 29760, Note_on_c, 1, 55, 64
4, 29849, Note_on_c, 1, 55, 0
4, 29856, Note_on_c, 1, 57, 64
4, 29945, Note_on_c, 1, 57, 0
4, 29952, Note_on_c, 1, 58, 64
4, 30041, Note_on_c, 1, 58, 0
4, 30048, Note_on_c, 1, 57, 64
4, 30137, Note_on_c, 1, 57, 0
4, 30144, Note_on_c, 1, 55, 64
4, 30233, Note_on_c, 1, 55, 0
4, 30240, Note_on_c, 1, 54, 81
4, 30329, Note_on_c, 1, 54, 0
4, 30336, Note_on_c, 1, 55, 58
4, 30425, Note_on_c, 1, 55, 0
4, 30432, Note_on_c, 1, 57, 58
4, 30521, Note_on_c, 1, 57, 0
4, 30528, Note_on_c, 1, 58, 58
4, 30617, Note_on_c, 1, 58, 0
4, 30624, Note_on_c, 1, 57, 58
4, 30713, Note_on_c, 1, 57, 0
4, 30720, Note_on_c, 1, 55, 58
4, 30809, Note_on_c, 1, 55, 0
4, 30816, Note_on_c, 1, 54, 58
4, 30905, Note_on_c, 1, 54, 0
4, 30912, Note_on_c, 1, 42, 58
4, 31001, Note_on_c, 1, 42, 0
4, 31008, Note_on_c, 1, 45, 58
4, 31097, Note_on_c, 1, 45, 0
4, 31104, Note_on_c, 1, 38, 58
4, 31193, Note_on_c, 1, 38, 0
4, 31296, Note_on_c, 1, 62, 58
4, 31296, Note_on_c, 1, 59, 58
4, 31385, Note_on_c, 1, 62, 0
4, 31385, Note_on_c, 1, 59, 0
4, 31392, Note_on_c, 1, 61, 64
4, 31392, Note_on_c, 1, 58, 64
4, 31569, Note_on_c, 1, 61, 0
4, 31569, Note_on_c, 1, 58, 0
4, 31584, Note_on_c, 1, 58, 64
4, 31584, Note_on_c, 1, 54, 64
4, 31673, Note_on_c, 1, 58, 0
4, 31673, Note_on_c, 1, 54, 0
4, 31680, Note_on_c, 1, 59, 64
4, 31857, Note_on_c, 1, 59, 0
4, 31872, Note_on_c, 1, 61, 64
4, 31961, Note_on_c, 1, 61, 0
4, 31968, Note_on_c, 1, 62, 64
4, 32145, Note_on_c, 1, 62, 0
4, 32160, Note_on_c, 1, 61, 64
4, 32249, Note_on_c, 1, 61, 0
4, 32256, Note_on_c, 1, 59, 64
4, 32256, Note_on_c, 1, 55, 64
4, 32433, Note_on_c, 1, 59, 0
4, 32433, Note_on_c, 1, 55, 0
4, 32448, Note_on_c, 1, 59, 81
4, 32448, Note_on_c, 1, 55, 81
4, 32537, Note_on_c, 1, 59, 0
4, 32537, Note_on_c, 1, 55, 0
4, 32544, Note_on_c, 1, 61, 64
4, 32544, Note_on_c, 1, 58, 64
4, 32544, Note_on_c, 1, 54, 64
4, 33009, Note_on_c, 1, 61, 0
4, 33009, Note_on_c, 1, 58, 0
4, 33009, Note_on_c, 1, 54, 0
4, 33024, Note_on_c, 1, 61, 92
4, 33024, Note_on_c, 1, 54, 92
4, 33024, Note_on_c, 1, 52, 92
4, 33113, Note_on_c, 1, 61, 0
4, 33113, Note_on_c, 1, 54, 0
4, 33113, Note_on_c, 1, 52, 0
4, 33120, Note_on_c, 1, 59, 75
4, 33120, Note_on_c, 1, 54, 75
4, 33120, Note_on_c, 1, 50, 75
4, 33585, Note_on_c, 1, 59, 0
4, 33585, Note_on_c, 1, 54, 0
4, 33585, Note_on_c, 1, 50, 0
4, 33600, Note_on_c, 1, 63, 75
4, 33689, Note_on_c, 1, 63, 0
4, 33696, Note_on_c, 1, 64, 76
4, 33785, Note_on_c, 1, 64, 0
4, 33792, Note_on_c, 1, 65, 77
4, 33881, Note_on_c, 1, 65, 0
4, 33888, Note_on_c, 1, 66, 78
4, 33977, Note_on_c, 1, 66, 0
4, 33984, Note_on_c, 1, 67, 79
4, 34073, Note_on_c, 1, 67, 0
4, 34080, Note_on_c, 1, 68, 97
4, 34169, Note_on_c, 1, 68, 0
4, 34176, Note_on_c, 1, 53, 97
4, 34265, Note_on_c, 1, 53, 0
4, 34272, Note_on_c, 1, 54, 80
4, 34449, Note_on_c, 1, 54, 0
4, 34464, Note_on_c, 1, 42, 97
4, 34553, Note_on_c, 1, 42, 0
4, 34560, Note_on_c, 1, 43, 80
4, 34649, Note_on_c, 1, 43, 0
4, 34656, Note_on_c, 1, 47, 80
4, 34745, Note_on_c, 1, 47, 0
4, 34752, Note_on_c, 1, 50, 80
4, 34841, Note_on_c, 1, 50, 0
4, 34848, Note_on_c, 1, 54, 80
4, 34944, Note_on_c, 1, 54, 0
4, 34944, Note_on_c, 1, 55, 80
4, 35033, Note_on_c, 1, 55, 0
4, 35040, Note_on_c, 1, 39, 97
4, 35129, Note_on_c, 1, 39, 0
4, 35136, Note_on_c, 1, 40, 80
4, 35225, Note_on_c, 1, 40, 0
4, 35232, Note_on_c, 1, 43, 81
4, 35321, Note_on_c, 1, 43, 0
4, 35328, Note_on_c, 1, 47, 83
4, 35417, Note_on_c, 1, 47, 0
4, 35424, Note_on_c, 1, 51, 84
4, 35520, Note_on_c, 1, 51, 0
4, 35520, Note_on_c, 1, 52, 86
4, 35609, Note_on_c, 1, 52, 0
4, 35616, Note_on_c, 1, 53, 103
4, 35616, Note_on_c, 1, 50, 103
4, 35705, Note_on_c, 1, 53, 0
4, 35705, Note_on_c, 1, 50, 0
4, 35712, Note_on_c, 1, 52, 86
4, 35712, Note_on_c, 1, 49, 86
4, 36265, Note_on_c, 1, 52, 0
4, 36265, Note_on_c, 1, 49, 0
4, 36288, Note_on_c, 1, 57, 80
4, 36288, Note_on_c, 1, 55, 80
4, 36288, Note_on_c, 1, 52, 80
4, 36288, Note_on_c, 1, 49, 80
4, 37129, Note_on_c, 1, 57, 0
4, 37129, Note_on_c, 1, 55, 0
4, 37129, Note_on_c, 1, 52, 0
4, 37129, Note_on_c, 1, 49, 0
4, 37152, Note_on_c, 1, 55, 80
4, 37197, Note_on_c, 1, 55, 0
4, 37200, Note_on_c, 1, 61, 80
4, 37245, Note_on_c, 1, 61, 0
4, 37248, Note_on_c, 1, 55, 80
4, 37293, Note_on_c, 1, 55, 0
4, 37296, Note_on_c, 1, 52, 80
4, 37341, Note_on_c, 1, 52, 0
4, 37344, Note_on_c, 1, 55, 113
4, 37344, Note_on_c, 1, 43, 113
4, 37392, Note_on_c, 1, 55, 0
4, 37392, Note_on_c, 1, 43, 0
4, 37392, Note_on_c, 1, 52, 80
4, 37392, Note_on_c, 1, 40, 80
4, 37437, Note_on_c, 1, 52, 0
4, 37437, Note_on_c, 1, 40, 0
4, 37440, Note_on_c, 1, 49, 80
4, 37440, Note_on_c, 1, 37, 80
4, 37485, Note_on_c, 1, 49, 0
4, 37485, Note_on_c, 1, 37, 0
4, 37488, Note_on_c, 1, 52, 80
4, 37488, Note_on_c, 1, 40, 80
4, 37533, Note_on_c, 1, 52, 0
4, 37533, Note_on_c, 1, 40, 0
4, 37536, Note_on_c, 1, 49, 80
4, 37536, Note_on_c, 1, 37, 80
4, 37581, Note_on_c, 1, 49, 0
4, 37581, Note_on_c, 1, 37, 0
4, 37584, Note_on_c, 1, 45, 80
4, 37584, Note_on_c, 1, 33, 80
4, 37629, Note_on_c, 1, 45, 0
4, 37629, Note_on_c, 1, 33, 0
4, 37632, Note_on_c, 1, 47, 80
4, 37632, Note_on_c, 1, 35, 80
4, 37677, Note_on_c, 1, 47, 0
4, 37677, Note_on_c, 1, 35, 0
4, 37680, Note_on_c, 1, 49, 80
4, 37680, Note_on_c, 1, 37, 80
4, 37725, Note_on_c, 1, 49, 0
4, 37725, Note_on_c, 1, 37, 0
4, 37728, Note_on_c, 1, 50, 75
4, 37728, Note_on_c, 1, 38, 75
4, 37817, Note_on_c, 1, 50, 0
4, 37817, Note_on_c, 1, 38, 0
4, 37824, Note_on_c, 1, 54, 75
4, 37824, Note_on_c, 1, 42, 75
4, 37913, Note_on_c, 1, 54, 0
4, 37913, Note_on_c, 1, 42, 0
4, 37920, Note_on_c, 1, 57, 75
4, 37920, Note_on_c, 1, 45, 75
4, 38009, Note_on_c, 1, 57, 0
4, 38009, Note_on_c, 1, 45, 0
4, 38016, Note_on_c, 1, 49, 73
4, 38105, Note_on_c, 1, 49, 0
4, 38112, Note_on_c, 1, 50, 71
4, 38201, Note_on_c, 1, 50, 0
4, 38208, Note_on_c, 1, 54, 69
4, 38297, Note_on_c, 1, 54, 0
4, 38304, Note_on_c, 1, 57, 67
4, 38437, Note_on_c, 1, 57, 0
4, 38448, Note_on_c, 1, 62, 80
4, 38496, Note_on_c, 1, 62, 0
4, 38496, Note_on_c, 1, 66, 64
4, 38541, Note_on_c, 1, 66, 0
4, 38544, Note_on_c, 1, 62, 64
4, 38589, Note_on_c, 1, 62, 0
4, 38592, Note_on_c, 1, 57, 64
4, 38681, Note_on_c, 1, 57, 0
4, 38784, Note_on_c, 1, 42, 81
4, 38880, Note_on_c, 1, 42, 0
4, 38880, Note_on_c, 1, 43, 70
4, 38969, Note_on_c, 1, 43, 0
4, 38976, Note_on_c, 1, 51, 70
4, 39072, Note_on_c, 1, 51, 0
4, 39072, Note_on_c, 1, 54, 70
4, 39161, Note_on_c, 1, 54, 0
4, 39168, Note_on_c, 1, 52, 64
4, 39257, Note_on_c, 1, 52, 0
4, 39264, Note_on_c, 1, 55, 64
4, 39353, Note_on_c, 1, 55, 0
4, 39360, Note_on_c, 1, 40, 81
4, 39456, Note_on_c, 1, 40, 0
4, 39456, Note_on_c, 1, 42, 64
4, 39545, Note_on_c, 1, 42, 0
4, 39552, Note_on_c, 1, 49, 64
4, 39648, Note_on_c, 1, 49, 0
4, 39648, Note_on_c, 1, 52, 64
4, 39737, Note_on_c, 1, 52, 0
4, 39744, Note_on_c, 1, 50, 64
4, 39840, Note_on_c, 1, 50, 0
4, 39840, Note_on_c, 1, 54, 64
4, 39929, Note_on_c, 1, 54, 0
4, 39936, Note_on_c, 1, 43, 81
4, 40025, Note_on_c, 1, 43, 0
4, 40032, Note_on_c, 1, 55, 64
4, 40121, Note_on_c, 1, 55, 0
4, 40128, Note_on_c, 1, 52, 64
4, 40217, Note_on_c, 1, 52, 0
4, 40224, Note_on_c, 1, 45, 81
4, 40313, Note_on_c, 1, 45, 0
4, 40320, Note_on_c, 1, 57, 64
4, 40409, Note_on_c, 1, 57, 0
4, 40416, Note_on_c, 1, 54, 64
4, 40505, Note_on_c, 1, 54, 0
4, 40512, Note_on_c, 1, 47, 81
4, 40601, Note_on_c, 1, 47, 0
4, 40608, Note_on_c, 1, 59, 64
4, 40697, Note_on_c, 1, 59, 0
4, 40704, Note_on_c, 1, 55, 64
4, 40793, Note_on_c, 1, 55, 0
4, 40800, Note_on_c, 1, 49, 81
4, 40889, Note_on_c, 1, 49, 0
4, 40896, Note_on_c, 1, 61, 64
4, 40985, Note_on_c, 1, 61, 0
4, 40992, Note_on_c, 1, 62, 67
4, 41081, Note_on_c, 1, 62, 0
4, 41088, Note_on_c, 1, 61, 70
4, 41177, Note_on_c, 1, 61, 0
4, 41184, Note_on_c, 1, 59, 73
4, 41280, Note_on_c, 1, 59, 0
4, 41280, Note_on_c, 1, 57, 76
4, 41369, Note_on_c, 1, 57, 0
4, 41376, Note_on_c, 1, 67, 97
4, 41465, Note_on_c, 1, 67, 0
4, 41472, Note_on_c, 1, 66, 75
4, 41561, Note_on_c, 1, 66, 0
4, 41568, Note_on_c, 1, 67, 75
4, 41657, Note_on_c, 1, 67, 0
4, 41664, Note_on_c, 1, 66, 75
4, 41753, Note_on_c, 1, 66, 0
4, 41760, Note_on_c, 1, 64, 75
4, 41856, Note_on_c, 1, 64, 0
4, 41856, Note_on_c, 1, 62, 75
4, 41945, Note_on_c, 1, 62, 0
4, 41952, Note_on_c, 1, 54, 92
4, 42041, Note_on_c, 1, 54, 0
4, 42048, Note_on_c, 1, 55, 75
4, 42137, Note_on_c, 1, 55, 0
4, 42144, Note_on_c, 1, 59, 75
4, 42233, Note_on_c, 1, 59, 0
4, 42240, Note_on_c, 1, 63, 75
4, 42329, Note_on_c, 1, 63, 0
4, 42336, Note_on_c, 1, 64, 80
4, 42425, Note_on_c, 1, 64, 0
4, 42432, Note_on_c, 1, 67, 76
4, 42521, Note_on_c, 1, 67, 0
4, 42528, Note_on_c, 1, 68, 73
4, 42617, Note_on_c, 1, 68, 0
4, 42624, Note_on_c, 1, 69, 70
4, 42713, Note_on_c, 1, 69, 0
4, 42720, Note_on_c, 1, 57, 71
4, 42809, Note_on_c, 1, 57, 0
4, 42816, Note_on_c, 1, 69, 72
4, 43001, Note_on_c, 1, 69, 0
4, 43008, Note_on_c, 1, 57, 75
4, 43097, Note_on_c, 1, 57, 0
4, 43104, Note_on_c, 1, 69, 77
4, 43289, Note_on_c, 1, 69, 0
4, 43296, Note_on_c, 1, 57, 80
4, 43385, Note_on_c, 1, 57, 0
4, 43392, Note_on_c, 1, 69, 81
4, 43577, Note_on_c, 1, 69, 0
4, 43584, Note_on_c, 1, 57, 83
4, 43673, Note_on_c, 1, 57, 0
4, 43680, Note_on_c, 1, 69, 84
4, 43769, Note_on_c, 1, 69, 0
4, 43776, Note_on_c, 1, 70, 85
4, 43872, Note_on_c, 1, 70, 0
4, 43872, Note_on_c, 1, 71, 86
4, 43961, Note_on_c, 1, 71, 0
4, 43968, Note_on_c, 1, 59, 103
4, 44057, Note_on_c, 1, 59, 0
4, 44064, Note_on_c, 1, 71, 86
4, 44153, Note_on_c, 1, 71, 0
4, 44160, Note_on_c, 1, 67, 86
4, 44249, Note_on_c, 1, 67, 0
4, 44256, Note_on_c, 1, 57, 103
4, 44345, Note_on_c, 1, 57, 0
4, 44352, Note_on_c, 1, 69, 86
4, 44441, Note_on_c, 1, 69, 0
4, 44448, Note_on_c, 1, 66, 86
4, 44537, Note_on_c, 1, 66, 0
4, 44544, Note_on_c, 1, 55, 103
4, 44633, Note_on_c, 1, 55, 0
4, 44640, Note_on_c, 1, 67, 86
4, 44729, Note_on_c, 1, 67, 0
4, 44736, Note_on_c, 1, 64, 86
4, 44825, Note_on_c, 1, 64, 0
4, 44832, Note_on_c, 1, 54, 103
4, 44921, Note_on_c, 1, 54, 0
4, 44928, Note_on_c, 1, 66, 86
4, 45017, Note_on_c, 1, 66, 0
4, 45024, Note_on_c, 1, 62, 86
4, 45113, Note_on_c, 1, 62, 0
4, 45120, Note_on_c, 1, 55, 86
4, 45209, Note_on_c, 1, 55, 0
4, 45216, Note_on_c, 1, 57, 86
4, 45393, Note_on_c, 1, 57, 0
4, 45408, Note_on_c, 1, 57, 103
4, 45504, Note_on_c, 1, 57, 0
4, 45504, Note_on_c, 1, 59, 86
4, 45593, Note_on_c, 1, 59, 0
4, 45600, Note_on_c, 1, 62, 86
4, 45689, Note_on_c, 1, 62, 0
4, 45696, Note_on_c, 1, 54, 103
4, 45792, Note_on_c, 1, 54, 0
4, 45792, Note_on_c, 1, 55, 86
4, 45881, Note_on_c, 1, 55, 0
4, 45888, Note_on_c, 1, 59, 86
4, 45977, Note_on_c, 1, 59, 0
4, 45984, Note_on_c, 1, 51, 103
4, 46080, Note_on_c, 1, 51, 0
4, 46080, Note_on_c, 1, 52, 75
4, 46169, Note_on_c, 1, 52, 0
4, 46176, Note_on_c, 1, 49, 76
4, 46265, Note_on_c, 1, 49, 0
4, 46272, Note_on_c, 1, 50, 77
4, 46361, Note_on_c, 1, 50, 0
4, 46368, Note_on_c, 1, 55, 78
4, 46368, Note_on_c, 1, 43, 78
4, 46545, Note_on_c, 1, 55, 0
4, 46545, Note_on_c, 1, 43, 0
4, 46560, Note_on_c, 1, 52, 80
4, 46560, Note_on_c, 1, 45, 80
4, 46649, Note_on_c, 1, 52, 0
4, 46649, Note_on_c, 1, 45, 0
4, 46656, Note_on_c, 1, 50, 80
4, 46745, Note_on_c, 1, 50, 0
4, 46752, Note_on_c, 1, 52, 80
4, 46841, Note_on_c, 1, 52, 0
4, 46848, Note_on_c, 1, 54, 97
4, 46937, Note_on_c, 1, 54, 0
4, 46944, Note_on_c, 1, 55, 75
4, 47121, Note_on_c, 1, 55, 0
4, 47136, Note_on_c, 1, 57, 75
4, 47225, Note_on_c, 1, 57, 0
4, 47232, Note_on_c, 1, 58, 75
4, 47321, Note_on_c, 1, 58, 0
4, 47328, Note_on_c, 1, 57, 75
4, 47417, Note_on_c, 1, 57, 0
4, 47424, Note_on_c, 1, 55, 75
4, 47513, Note_on_c, 1, 55, 0
4, 47520, Note_on_c, 1, 54, 92
4, 47609, Note_on_c, 1, 54, 0
4, 47616, Note_on_c, 1, 55, 64
4, 47705, Note_on_c, 1, 55, 0
4, 47712, Note_on_c, 1, 57, 64
4, 47801, Note_on_c, 1, 57, 0
4, 47808, Note_on_c, 1, 58, 64
4, 47897, Note_on_c, 1, 58, 0
4, 47904, Note_on_c, 1, 57, 64
4, 47993, Note_on_c, 1, 57, 0
4, 48000, Note_on_c, 1, 55, 64
4, 48089, Note_on_c, 1, 55, 0
4, 48096, Note_on_c, 1, 54, 81
4, 48185, Note_on_c, 1, 54, 0
4, 48192, Note_on_c, 1, 55, 58
4, 48281, Note_on_c, 1, 55, 0
4, 48288, Note_on_c, 1, 57, 58
4, 48377, Note_on_c, 1, 57, 0
4, 48384, Note_on_c, 1, 58, 58
4, 48473, Note_on_c, 1, 58, 0
4, 48480, Note_on_c, 1, 57, 58
4, 48569, Note_on_c, 1, 57, 0
4, 48576, Note_on_c, 1, 55, 58
4, 48665, Note_on_c, 1, 55, 0
4, 48672, Note_on_c, 1, 54, 58
4, 48761, Note_on_c, 1, 54, 0
4, 48768, Note_on_c, 1, 42, 58
4, 48807, Note_on_c, 1, 42, 0
4, 48864, Note_on_c, 1, 45, 58
4, 48903, Note_on_c, 1, 45, 0
4, 48960, Note_on_c, 1, 38, 58
4, 49137, Note_on_c, 1, 38, 0
4, 49248, Note_on_c, 1, 38, 0
4, 49425, Note_on_c, 1, 38, 0
4, 49440, End_track
5, 0, Start_track
5, 0, Program_c, 1, 0
5, 0, Control_c, 1, 7, 127
5, 0, Control_c, 1, 10, 64
5, 4320, Note_on_c, 1, 45, 64
5, 5161, Note_on_c, 1, 45, 0
5, 5184, Note_on_c, 1, 45, 64
5, 5737, Note_on_c, 1, 45, 0
5, 5760, Note_on_c, 1, 45, 64
5, 6425, Note_on_c, 1, 45, 0
5, 10944, Note_on_c, 1, 45, 64
5, 11785, Note_on_c, 1, 45, 0
5, 11808, Note_on_c, 1, 45, 64
5, 12361, Note_on_c, 1, 45, 0
5, 12384, Note_on_c, 1, 45, 64
5, 13049, Note_on_c, 1, 45, 0
5, 13824, Note_on_c, 1, 55, 64
5, 14289, Note_on_c, 1, 55, 0
5, 28800, Note_on_c, 1, 50, 75
5, 29641, Note_on_c, 1, 50, 0
5, 29664, Note_on_c, 1, 50, 92
5, 30217, Note_on_c, 1, 50, 0
5, 30240, Note_on_c, 1, 50, 92
5, 30905, Note_on_c, 1, 50, 0
5, 31680, Note_on_c, 1, 55, 64
5, 32145, Note_on_c, 1, 55, 0
5, 46656, Note_on_c, 1, 50, 75
5, 47497, Note_on_c, 1, 50, 0
5, 47520, Note_on_c, 1, 50, 92
5, 48073, Note_on_c, 1, 50, 0
5, 48096, Note_on_c, 1, 50, 92
5, 48672, Note_on_c, 1, 50, 75
5, 48761, Note_on_c, 1, 50, 0
5, 49248, End_track
6, 0, Start_track
6, 0, Title_t, "Sonata I   Haydn  "
6, 0, End_track
0, 0, End_of_file
