0, 0, Header, 1, 6, 96
1, 0, Start_track
1, 0, Copyright_t, "Copyright  2000 <copyright holder>"
1, 0, Text_t, "Sonata III\015\012"
1, 0, Text_t, "<composer>\015\012"
1, 0, Sequencer_specific, 16, 68, 87, 77, 90, 86, 82, 83, 78, 32, 55, 46, 48, 46, 56, 46, 48
1, 0, Time_signature, 4, 2, 24, 8
1, 0, Tempo, 100000
1, 0, Key_signature, -2, "major"
1, 336, Tempo, 857142
1, 29112, Tempo, 338983
1, 29520, Tempo, 857142
1, 31680, Tempo, 1714285
1, 31824, Tempo, 857142
1, 38400, Tempo, 1000000
1, 38496, Tempo, 1090909
1, 39072, Tempo, 857142
1, 47544, Tempo, 338983
1, 47952, Tempo, 857142
1, 50112, Tempo, 1714285
1, 50256, Tempo, 857142
1, 56832, Tempo, 1000000
1, 56928, Tempo, 1090909
1, 57504, Tempo, 857142
1, 60288, End_track
2, 0, Start_track
2, 0, Program_c, 0, 0
2, 0, Control_c, 0, 7, 127
2, 0, Control_c, 0, 10, 64
2, 336, Note_on_c, 0, 74, 69
2, 351, Note_on_c, 0, 74, 0
2, 352, Note_on_c, 0, 75, 69
2, 367, Note_on_c, 0, 75, 0
2, 368, Note_on_c, 0, 74, 69
2, 383, Note_on_c, 0, 74, 0
2, 384, Note_on_c, 0, 79, 69
2, 404, Note_on_c, 0, 79, 0
2, 432, Note_on_c, 0, 77, 69
2, 452, Note_on_c, 0, 77, 0
2, 480, Note_on_c, 0, 75, 69
2, 500, Note_on_c, 0, 75, 0
2, 528, Note_on_c, 0, 74, 69
2, 548, Note_on_c, 0, 74, 0
2, 576, Note_on_c, 0, 73, 69
2, 672, Note_on_c, 0, 73, 0
2, 672, Note_on_c, 0, 74, 69
2, 692, Note_on_c, 0, 74, 0
2, 720, Note_on_c, 0, 74, 69
2, 732, Note_on_c, 0, 74, 0
2, 732, Note_on_c, 0, 72, 69
2, 744, Note_on_c, 0, 72, 0
2, 744, Note_on_c, 0, 70, 69
2, 756, Note_on_c, 0, 70, 0
2, 756, Note_on_c, 0, 72, 69
2, 768, Note_on_c, 0, 72, 0
2, 768, Note_on_c, 0, 70, 69
2, 816, Note_on_c, 0, 70, 0
2, 816, Note_on_c, 0, 74, 69
2, 861, Note_on_c, 0, 74, 0
2, 912, Note_on_c, 0, 75, 69
2, 932, Note_on_c, 0, 75, 0
2, 960, Note_on_c, 0, 67, 69
2, 1056, Note_on_c, 0, 67, 0
2, 1056, Note_on_c, 0, 66, 69
2, 1101, Note_on_c, 0, 66, 0
2, 1104, Note_on_c, 0, 74, 69
2, 1119, Note_on_c, 0, 74, 0
2, 1120, Note_on_c, 0, 75, 69
2, 1135, Note_on_c, 0, 75, 0
2, 1136, Note_on_c, 0, 74, 69
2, 1151, Note_on_c, 0, 74, 0
2, 1152, Note_on_c, 0, 79, 69
2, 1172, Note_on_c, 0, 79, 0
2, 1200, Note_on_c, 0, 77, 69
2, 1220, Note_on_c, 0, 77, 0
2, 1248, Note_on_c, 0, 75, 69
2, 1268, Note_on_c, 0, 75, 0
2, 1296, Note_on_c, 0, 74, 69
2, 1316, Note_on_c, 0, 74, 0
2, 1344, Note_on_c, 0, 73, 69
2, 1440, Note_on_c, 0, 73, 0
2, 1440, Note_on_c, 0, 74, 69
2, 1460, Note_on_c, 0, 74, 0
2, 1488, Note_on_c, 0, 75, 69
2, 1503, Note_on_c, 0, 75, 0
2, 1504, Note_on_c, 0, 74, 69
2, 1519, Note_on_c, 0, 74, 0
2, 1520, Note_on_c, 0, 72, 69
2, 1535, Note_on_c, 0, 72, 0
2, 1536, Note_on_c, 0, 74, 69
2, 1536, Note_on_c, 0, 70, 69
2, 1581, Note_on_c, 0, 74, 0
2, 1581, Note_on_c, 0, 70, 0
2, 1584, Note_on_c, 0, 79, 69
2, 1584, Note_on_c, 0, 70, 69
2, 1629, Note_on_c, 0, 79, 0
2, 1629, Note_on_c, 0, 70, 0
2, 1632, Note_on_c, 0, 81, 69
2, 1632, Note_on_c, 0, 72, 69
2, 1677, Note_on_c, 0, 81, 0
2, 1677, Note_on_c, 0, 72, 0
2, 1680, Note_on_c, 0, 78, 69
2, 1680, Note_on_c, 0, 69, 69
2, 1725, Note_on_c, 0, 78, 0
2, 1725, Note_on_c, 0, 69, 0
2, 1728, Note_on_c, 0, 79, 69
2, 1728, Note_on_c, 0, 67, 69
2, 1822, Note_on_c, 0, 79, 0
2, 1822, Note_on_c, 0, 67, 0
2, 1872, Note_on_c, 0, 62, 69
2, 1887, Note_on_c, 0, 62, 0
2, 1888, Note_on_c, 0, 63, 69
2, 1903, Note_on_c, 0, 63, 0
2, 1904, Note_on_c, 0, 62, 69
2, 1919, Note_on_c, 0, 62, 0
2, 1920, Note_on_c, 0, 67, 69
2, 1968, Note_on_c, 0, 67, 0
2, 1968, Note_on_c, 0, 66, 69
2, 1988, Note_on_c, 0, 66, 0
2, 2016, Note_on_c, 0, 69, 69
2, 2064, Note_on_c, 0, 69, 0
2, 2064, Note_on_c, 0, 67, 69
2, 2084, Note_on_c, 0, 67, 0
2, 2112, Note_on_c, 0, 70, 69
2, 2179, Note_on_c, 0, 70, 0
2, 2184, Note_on_c, 0, 72, 69
2, 2196, Note_on_c, 0, 72, 0
2, 2196, Note_on_c, 0, 70, 69
2, 2208, Note_on_c, 0, 70, 0
2, 2208, Note_on_c, 0, 69, 69
2, 2228, Note_on_c, 0, 69, 0
2, 2256, Note_on_c, 0, 62, 69
2, 2271, Note_on_c, 0, 62, 0
2, 2272, Note_on_c, 0, 63, 69
2, 2287, Note_on_c, 0, 63, 0
2, 2288, Note_on_c, 0, 62, 69
2, 2303, Note_on_c, 0, 62, 0
2, 2304, Note_on_c, 0, 69, 69
2, 2352, Note_on_c, 0, 69, 0
2, 2352, Note_on_c, 0, 67, 69
2, 2372, Note_on_c, 0, 67, 0
2, 2400, Note_on_c, 0, 70, 69
2, 2448, Note_on_c, 0, 70, 0
2, 2448, Note_on_c, 0, 69, 69
2, 2468, Note_on_c, 0, 69, 0
2, 2496, Note_on_c, 0, 71, 69
2, 2502, Note_on_c, 0, 71, 0
2, 2502, Note_on_c, 0, 72, 69
2, 2508, Note_on_c, 0, 72, 0
2, 2508, Note_on_c, 0, 74, 69
2, 2514, Note_on_c, 0, 74, 0
2, 2514, Note_on_c, 0, 72, 69
2, 2629, Note_on_c, 0, 72, 0
2, 2640, Note_on_c, 0, 70, 69
2, 2652, Note_on_c, 0, 70, 0
2, 2652, Note_on_c, 0, 69, 69
2, 2664, Note_on_c, 0, 69, 0
2, 2664, Note_on_c, 0, 67, 69
2, 2676, Note_on_c, 0, 67, 0
2, 2676, Note_on_c, 0, 65, 69
2, 2688, Note_on_c, 0, 65, 0
2, 2688, Note_on_c, 0, 77, 69
2, 2807, Note_on_c, 0, 77, 0
2, 2808, Note_on_c, 0, 79, 69
2, 2820, Note_on_c, 0, 79, 0
2, 2820, Note_on_c, 0, 77, 69
2, 2832, Note_on_c, 0, 77, 0
2, 2832, Note_on_c, 0, 75, 69
2, 2844, Note_on_c, 0, 75, 0
2, 2844, Note_on_c, 0, 74, 69
2, 2856, Note_on_c, 0, 74, 0
2, 2856, Note_on_c, 0, 72, 69
2, 2868, Note_on_c, 0, 72, 0
2, 2868, Note_on_c, 0, 70, 69
2, 2880, Note_on_c, 0, 70, 0
2, 2880, Note_on_c, 0, 69, 69
2, 2999, Note_on_c, 0, 69, 0
2, 3000, Note_on_c, 0, 81, 69
2, 3023, Note_on_c, 0, 81, 0
2, 3024, Note_on_c, 0, 82, 69
2, 3036, Note_on_c, 0, 82, 0
2, 3036, Note_on_c, 0, 81, 69
2, 3048, Note_on_c, 0, 81, 0
2, 3048, Note_on_c, 0, 79, 69
2, 3060, Note_on_c, 0, 79, 0
2, 3060, Note_on_c, 0, 77, 69
2, 3072, Note_on_c, 0, 77, 0
2, 3072, Note_on_c, 0, 82, 69
2, 3191, Note_on_c, 0, 82, 0
2, 3192, Note_on_c, 0, 86, 69
2, 3215, Note_on_c, 0, 86, 0
2, 3216, Note_on_c, 0, 87, 69
2, 3228, Note_on_c, 0, 87, 0
2, 3228, Note_on_c, 0, 86, 69
2, 3240, Note_on_c, 0, 86, 0
2, 3240, Note_on_c, 0, 84, 69
2, 3252, Note_on_c, 0, 84, 0
2, 3252, Note_on_c, 0, 82, 69
2, 3264, Note_on_c, 0, 82, 0
2, 3264, Note_on_c, 0, 81, 69
2, 3383, Note_on_c, 0, 81, 0
2, 3384, Note_on_c, 0, 81, 69
2, 3407, Note_on_c, 0, 81, 0
2, 3408, Note_on_c, 0, 82, 69
2, 3420, Note_on_c, 0, 82, 0
2, 3420, Note_on_c, 0, 81, 69
2, 3432, Note_on_c, 0, 81, 0
2, 3432, Note_on_c, 0, 79, 69
2, 3444, Note_on_c, 0, 79, 0
2, 3444, Note_on_c, 0, 77, 69
2, 3456, Note_on_c, 0, 77, 0
2, 3456, Note_on_c, 0, 82, 69
2, 3575, Note_on_c, 0, 82, 0
2, 3576, Note_on_c, 0, 85, 69
2, 3599, Note_on_c, 0, 85, 0
2, 3600, Note_on_c, 0, 84, 69
2, 3623, Note_on_c, 0, 84, 0
2, 3624, Note_on_c, 0, 82, 69
2, 3647, Note_on_c, 0, 82, 0
2, 3648, Note_on_c, 0, 82, 90
2, 3696, Note_on_c, 0, 82, 0
2, 3696, Note_on_c, 0, 81, 69
2, 3741, Note_on_c, 0, 81, 0
2, 3768, Note_on_c, 0, 81, 69
2, 3791, Note_on_c, 0, 81, 0
2, 3792, Note_on_c, 0, 87, 69
2, 3815, Note_on_c, 0, 87, 0
2, 3816, Note_on_c, 0, 81, 69
2, 3839, Note_on_c, 0, 81, 0
2, 3840, Note_on_c, 0, 84, 75
2, 3888, Note_on_c, 0, 84, 0
2, 3888, Note_on_c, 0, 82, 75
2, 3959, Note_on_c, 0, 82, 0
2, 3960, Note_on_c, 0, 84, 75
2, 3983, Note_on_c, 0, 84, 0
2, 3984, Note_on_c, 0, 84, 75
2, 4007, Note_on_c, 0, 84, 0
2, 4008, Note_on_c, 0, 85, 75
2, 4031, Note_on_c, 0, 85, 0
2, 4032, Note_on_c, 0, 85, 75
2, 4080, Note_on_c, 0, 85, 0
2, 4080, Note_on_c, 0, 84, 75
2, 4125, Note_on_c, 0, 84, 0
2, 4128, Note_on_c, 0, 82, 75
2, 4269, Note_on_c, 0, 82, 0
2, 4272, Note_on_c, 0, 80, 75
2, 4317, Note_on_c, 0, 80, 0
2, 4320, Note_on_c, 0, 78, 75
2, 4365, Note_on_c, 0, 78, 0
2, 4368, Note_on_c, 0, 77, 75
2, 4413, Note_on_c, 0, 77, 0
2, 4416, Note_on_c, 0, 77, 75
2, 4512, Note_on_c, 0, 77, 0
2, 4512, Note_on_c, 0, 76, 75
2, 4518, Note_on_c, 0, 76, 0
2, 4518, Note_on_c, 0, 77, 75
2, 4524, Note_on_c, 0, 77, 0
2, 4524, Note_on_c, 0, 76, 75
2, 4559, Note_on_c, 0, 76, 0
2, 4560, Note_on_c, 0, 85, 75
2, 4583, Note_on_c, 0, 85, 0
2, 4584, Note_on_c, 0, 76, 75
2, 4607, Note_on_c, 0, 76, 0
2, 4608, Note_on_c, 0, 76, 75
2, 4741, Note_on_c, 0, 76, 0
2, 4752, Note_on_c, 0, 79, 75
2, 4775, Note_on_c, 0, 79, 0
2, 4776, Note_on_c, 0, 77, 75
2, 4799, Note_on_c, 0, 77, 0
2, 4800, Note_on_c, 0, 77, 75
2, 4845, Note_on_c, 0, 77, 0
2, 4944, Note_on_c, 0, 77, 84
2, 4956, Note_on_c, 0, 77, 0
2, 4956, Note_on_c, 0, 74, 84
2, 4968, Note_on_c, 0, 74, 0
2, 4968, Note_on_c, 0, 70, 84
2, 4980, Note_on_c, 0, 70, 0
2, 4980, Note_on_c, 0, 65, 84
2, 4986, Note_on_c, 0, 65, 0
2, 4986, Note_on_c, 0, 62, 84
2, 4992, Note_on_c, 0, 62, 0
2, 4992, Note_on_c, 0, 58, 84
2, 5012, Note_on_c, 0, 58, 0
2, 5040, Note_on_c, 0, 82, 84
2, 5055, Note_on_c, 0, 82, 0
2, 5056, Note_on_c, 0, 84, 84
2, 5071, Note_on_c, 0, 84, 0
2, 5072, Note_on_c, 0, 82, 84
2, 5087, Note_on_c, 0, 82, 0
2, 5088, Note_on_c, 0, 81, 84
2, 5108, Note_on_c, 0, 81, 0
2, 5136, Note_on_c, 0, 77, 84
2, 5148, Note_on_c, 0, 77, 0
2, 5148, Note_on_c, 0, 74, 84
2, 5160, Note_on_c, 0, 74, 0
2, 5160, Note_on_c, 0, 70, 84
2, 5172, Note_on_c, 0, 70, 0
2, 5172, Note_on_c, 0, 65, 84
2, 5178, Note_on_c, 0, 65, 0
2, 5178, Note_on_c, 0, 62, 84
2, 5184, Note_on_c, 0, 62, 0
2, 5184, Note_on_c, 0, 58, 84
2, 5204, Note_on_c, 0, 58, 0
2, 5232, Note_on_c, 0, 74, 84
2, 5239, Note_on_c, 0, 74, 0
2, 5239, Note_on_c, 0, 75, 84
2, 5246, Note_on_c, 0, 75, 0
2, 5246, Note_on_c, 0, 74, 84
2, 5253, Note_on_c, 0, 74, 0
2, 5253, Note_on_c, 0, 75, 84
2, 5260, Note_on_c, 0, 75, 0
2, 5260, Note_on_c, 0, 74, 84
2, 5267, Note_on_c, 0, 74, 0
2, 5267, Note_on_c, 0, 72, 84
2, 5274, Note_on_c, 0, 72, 0
2, 5274, Note_on_c, 0, 74, 84
2, 5280, Note_on_c, 0, 74, 0
2, 5280, Note_on_c, 0, 72, 84
2, 5300, Note_on_c, 0, 72, 0
2, 5328, Note_on_c, 0, 77, 69
2, 5340, Note_on_c, 0, 77, 0
2, 5340, Note_on_c, 0, 74, 69
2, 5352, Note_on_c, 0, 74, 0
2, 5352, Note_on_c, 0, 70, 69
2, 5364, Note_on_c, 0, 70, 0
2, 5364, Note_on_c, 0, 65, 69
2, 5370, Note_on_c, 0, 65, 0
2, 5370, Note_on_c, 0, 62, 69
2, 5376, Note_on_c, 0, 62, 0
2, 5376, Note_on_c, 0, 58, 69
2, 5396, Note_on_c, 0, 58, 0
2, 5424, Note_on_c, 0, 82, 69
2, 5439, Note_on_c, 0, 82, 0
2, 5440, Note_on_c, 0, 84, 69
2, 5455, Note_on_c, 0, 84, 0
2, 5456, Note_on_c, 0, 82, 69
2, 5471, Note_on_c, 0, 82, 0
2, 5472, Note_on_c, 0, 81, 69
2, 5492, Note_on_c, 0, 81, 0
2, 5520, Note_on_c, 0, 77, 69
2, 5532, Note_on_c, 0, 77, 0
2, 5532, Note_on_c, 0, 74, 69
2, 5544, Note_on_c, 0, 74, 0
2, 5544, Note_on_c, 0, 70, 69
2, 5556, Note_on_c, 0, 70, 0
2, 5556, Note_on_c, 0, 65, 69
2, 5562, Note_on_c, 0, 65, 0
2, 5562, Note_on_c, 0, 62, 69
2, 5568, Note_on_c, 0, 62, 0
2, 5568, Note_on_c, 0, 58, 69
2, 5588, Note_on_c, 0, 58, 0
2, 5616, Note_on_c, 0, 74, 69
2, 5623, Note_on_c, 0, 74, 0
2, 5623, Note_on_c, 0, 75, 69
2, 5630, Note_on_c, 0, 75, 0
2, 5630, Note_on_c, 0, 74, 69
2, 5637, Note_on_c, 0, 74, 0
2, 5637, Note_on_c, 0, 75, 69
2, 5644, Note_on_c, 0, 75, 0
2, 5644, Note_on_c, 0, 74, 69
2, 5651, Note_on_c, 0, 74, 0
2, 5651, Note_on_c, 0, 72, 69
2, 5658, Note_on_c, 0, 72, 0
2, 5658, Note_on_c, 0, 74, 69
2, 5664, Note_on_c, 0, 74, 0
2, 5664, Note_on_c, 0, 72, 69
2, 5684, Note_on_c, 0, 72, 0
2, 5712, Note_on_c, 0, 77, 69
2, 5724, Note_on_c, 0, 77, 0
2, 5724, Note_on_c, 0, 74, 69
2, 5736, Note_on_c, 0, 74, 0
2, 5736, Note_on_c, 0, 70, 69
2, 5748, Note_on_c, 0, 70, 0
2, 5748, Note_on_c, 0, 65, 69
2, 5760, Note_on_c, 0, 65, 0
2, 5760, Note_on_c, 0, 67, 69
2, 5783, Note_on_c, 0, 67, 0
2, 5784, Note_on_c, 0, 79, 70
2, 5807, Note_on_c, 0, 79, 0
2, 5832, Note_on_c, 0, 77, 70
2, 5855, Note_on_c, 0, 77, 0
2, 5856, Note_on_c, 0, 75, 71
2, 5879, Note_on_c, 0, 75, 0
2, 5880, Note_on_c, 0, 74, 71
2, 5903, Note_on_c, 0, 74, 0
2, 5904, Note_on_c, 0, 72, 72
2, 5927, Note_on_c, 0, 72, 0
2, 5928, Note_on_c, 0, 70, 72
2, 5951, Note_on_c, 0, 70, 0
2, 5952, Note_on_c, 0, 70, 72
2, 6048, Note_on_c, 0, 70, 0
2, 6048, Note_on_c, 0, 69, 74
2, 6093, Note_on_c, 0, 69, 0
2, 6096, Note_on_c, 0, 81, 75
2, 6108, Note_on_c, 0, 81, 0
2, 6108, Note_on_c, 0, 77, 75
2, 6120, Note_on_c, 0, 77, 0
2, 6120, Note_on_c, 0, 74, 75
2, 6132, Note_on_c, 0, 74, 0
2, 6132, Note_on_c, 0, 69, 75
2, 6144, Note_on_c, 0, 69, 0
2, 6144, Note_on_c, 0, 70, 75
2, 6167, Note_on_c, 0, 70, 0
2, 6168, Note_on_c, 0, 82, 76
2, 6191, Note_on_c, 0, 82, 0
2, 6216, Note_on_c, 0, 81, 77
2, 6239, Note_on_c, 0, 81, 0
2, 6240, Note_on_c, 0, 81, 77
2, 6246, Note_on_c, 0, 81, 0
2, 6246, Note_on_c, 0, 79, 77
2, 6263, Note_on_c, 0, 79, 0
2, 6264, Note_on_c, 0, 77, 77
2, 6287, Note_on_c, 0, 77, 0
2, 6288, Note_on_c, 0, 77, 78
2, 6294, Note_on_c, 0, 77, 0
2, 6294, Note_on_c, 0, 75, 78
2, 6311, Note_on_c, 0, 75, 0
2, 6312, Note_on_c, 0, 74, 78
2, 6335, Note_on_c, 0, 74, 0
2, 6336, Note_on_c, 0, 74, 79
2, 6432, Note_on_c, 0, 74, 0
2, 6432, Note_on_c, 0, 72, 80
2, 6477, Note_on_c, 0, 72, 0
2, 6480, Note_on_c, 0, 84, 81
2, 6492, Note_on_c, 0, 84, 0
2, 6492, Note_on_c, 0, 81, 81
2, 6504, Note_on_c, 0, 81, 0
2, 6504, Note_on_c, 0, 77, 81
2, 6516, Note_on_c, 0, 77, 0
2, 6516, Note_on_c, 0, 72, 81
2, 6528, Note_on_c, 0, 72, 0
2, 6528, Note_on_c, 0, 74, 82
2, 6551, Note_on_c, 0, 74, 0
2, 6552, Note_on_c, 0, 86, 82
2, 6575, Note_on_c, 0, 86, 0
2, 6600, Note_on_c, 0, 84, 83
2, 6623, Note_on_c, 0, 84, 0
2, 6624, Note_on_c, 0, 82, 83
2, 6647, Note_on_c, 0, 82, 0
2, 6648, Note_on_c, 0, 81, 84
2, 6671, Note_on_c, 0, 81, 0
2, 6672, Note_on_c, 0, 79, 84
2, 6695, Note_on_c, 0, 79, 0
2, 6696, Note_on_c, 0, 77, 84
2, 6719, Note_on_c, 0, 77, 0
2, 6720, Note_on_c, 0, 77, 84
2, 6809, Note_on_c, 0, 77, 0
2, 6816, Note_on_c, 0, 76, 84
2, 6822, Note_on_c, 0, 76, 0
2, 6822, Note_on_c, 0, 77, 84
2, 6828, Note_on_c, 0, 77, 0
2, 6828, Note_on_c, 0, 76, 84
2, 6885, Note_on_c, 0, 76, 0
2, 6888, Note_on_c, 0, 79, 84
2, 6911, Note_on_c, 0, 79, 0
2, 6912, Note_on_c, 0, 79, 84
2, 7001, Note_on_c, 0, 79, 0
2, 7008, Note_on_c, 0, 77, 84
2, 7014, Note_on_c, 0, 77, 0
2, 7014, Note_on_c, 0, 79, 84
2, 7020, Note_on_c, 0, 79, 0
2, 7020, Note_on_c, 0, 77, 84
2, 7077, Note_on_c, 0, 77, 0
2, 7080, Note_on_c, 0, 84, 84
2, 7103, Note_on_c, 0, 84, 0
2, 7104, Note_on_c, 0, 84, 84
2, 7149, Note_on_c, 0, 84, 0
2, 7152, Note_on_c, 0, 75, 84
2, 7241, Note_on_c, 0, 75, 0
2, 7248, Note_on_c, 0, 77, 84
2, 7260, Note_on_c, 0, 77, 0
2, 7260, Note_on_c, 0, 75, 84
2, 7272, Note_on_c, 0, 75, 0
2, 7272, Note_on_c, 0, 74, 84
2, 7284, Note_on_c, 0, 74, 0
2, 7284, Note_on_c, 0, 75, 84
2, 7296, Note_on_c, 0, 75, 0
2, 7296, Note_on_c, 0, 74, 84
2, 7341, Note_on_c, 0, 74, 0
2, 7344, Note_on_c, 0, 82, 84
2, 7415, Note_on_c, 0, 82, 0
2, 7416, Note_on_c, 0, 80, 84
2, 7439, Note_on_c, 0, 80, 0
2, 7440, Note_on_c, 0, 79, 84
2, 7463, Note_on_c, 0, 79, 0
2, 7464, Note_on_c, 0, 78, 84
2, 7487, Note_on_c, 0, 78, 0
2, 7488, Note_on_c, 0, 78, 84
2, 7536, Note_on_c, 0, 78, 0
2, 7536, Note_on_c, 0, 79, 84
2, 7556, Note_on_c, 0, 79, 0
2, 7632, Note_on_c, 0, 84, 84
2, 7644, Note_on_c, 0, 84, 0
2, 7644, Note_on_c, 0, 82, 84
2, 7656, Note_on_c, 0, 82, 0
2, 7656, Note_on_c, 0, 81, 84
2, 7668, Note_on_c, 0, 81, 0
2, 7668, Note_on_c, 0, 79, 84
2, 7680, Note_on_c, 0, 79, 0
2, 7680, Note_on_c, 0, 79, 84
2, 7692, Note_on_c, 0, 79, 0
2, 7692, Note_on_c, 0, 77, 84
2, 7704, Note_on_c, 0, 77, 0
2, 7704, Note_on_c, 0, 76, 84
2, 7716, Note_on_c, 0, 76, 0
2, 7716, Note_on_c, 0, 77, 84
2, 7728, Note_on_c, 0, 77, 0
2, 7728, Note_on_c, 0, 81, 84
2, 7740, Note_on_c, 0, 81, 0
2, 7740, Note_on_c, 0, 79, 84
2, 7752, Note_on_c, 0, 79, 0
2, 7752, Note_on_c, 0, 77, 84
2, 7764, Note_on_c, 0, 77, 0
2, 7764, Note_on_c, 0, 75, 84
2, 7776, Note_on_c, 0, 75, 0
2, 7776, Note_on_c, 0, 74, 84
2, 7821, Note_on_c, 0, 74, 0
2, 7824, Note_on_c, 0, 72, 84
2, 7831, Note_on_c, 0, 72, 0
2, 7831, Note_on_c, 0, 74, 84
2, 7838, Note_on_c, 0, 74, 0
2, 7838, Note_on_c, 0, 72, 84
2, 7845, Note_on_c, 0, 72, 0
2, 7845, Note_on_c, 0, 74, 84
2, 7852, Note_on_c, 0, 74, 0
2, 7852, Note_on_c, 0, 72, 84
2, 7859, Note_on_c, 0, 72, 0
2, 7859, Note_on_c, 0, 70, 84
2, 7866, Note_on_c, 0, 70, 0
2, 7866, Note_on_c, 0, 72, 84
2, 7872, Note_on_c, 0, 72, 0
2, 7872, Note_on_c, 0, 70, 84
2, 7961, Note_on_c, 0, 70, 0
2, 8016, Note_on_c, 0, 65, 75
2, 8061, Note_on_c, 0, 65, 0
2, 8064, Note_on_c, 0, 70, 75
2, 8112, Note_on_c, 0, 70, 0
2, 8112, Note_on_c, 0, 69, 75
2, 8132, Note_on_c, 0, 69, 0
2, 8160, Note_on_c, 0, 72, 75
2, 8208, Note_on_c, 0, 72, 0
2, 8208, Note_on_c, 0, 70, 75
2, 8228, Note_on_c, 0, 70, 0
2, 8256, Note_on_c, 0, 74, 75
2, 8323, Note_on_c, 0, 74, 0
2, 8328, Note_on_c, 0, 75, 75
2, 8340, Note_on_c, 0, 75, 0
2, 8340, Note_on_c, 0, 74, 75
2, 8352, Note_on_c, 0, 74, 0
2, 8352, Note_on_c, 0, 72, 75
2, 8397, Note_on_c, 0, 72, 0
2, 8448, Note_on_c, 0, 72, 75
2, 8496, Note_on_c, 0, 72, 0
2, 8496, Note_on_c, 0, 70, 75
2, 8541, Note_on_c, 0, 70, 0
2, 8544, Note_on_c, 0, 74, 75
2, 8592, Note_on_c, 0, 74, 0
2, 8592, Note_on_c, 0, 72, 75
2, 8612, Note_on_c, 0, 72, 0
2, 8640, Note_on_c, 0, 75, 75
2, 8707, Note_on_c, 0, 75, 0
2, 8712, Note_on_c, 0, 79, 75
2, 8720, Note_on_c, 0, 79, 0
2, 8720, Note_on_c, 0, 77, 75
2, 8728, Note_on_c, 0, 77, 0
2, 8728, Note_on_c, 0, 75, 75
2, 8736, Note_on_c, 0, 75, 0
2, 8736, Note_on_c, 0, 74, 75
2, 8781, Note_on_c, 0, 74, 0
2, 8832, Note_on_c, 0, 74, 75
2, 8855, Note_on_c, 0, 74, 0
2, 8856, Note_on_c, 0, 70, 75
2, 8879, Note_on_c, 0, 70, 0
2, 8880, Note_on_c, 0, 72, 75
2, 8903, Note_on_c, 0, 72, 0
2, 8904, Note_on_c, 0, 69, 75
2, 8927, Note_on_c, 0, 69, 0
2, 8928, Note_on_c, 0, 75, 75
2, 8951, Note_on_c, 0, 75, 0
2, 8952, Note_on_c, 0, 72, 75
2, 8975, Note_on_c, 0, 72, 0
2, 8976, Note_on_c, 0, 74, 75
2, 8999, Note_on_c, 0, 74, 0
2, 9000, Note_on_c, 0, 70, 75
2, 9023, Note_on_c, 0, 70, 0
2, 9024, Note_on_c, 0, 79, 96
2, 9113, Note_on_c, 0, 79, 0
2, 9120, Note_on_c, 0, 77, 75
2, 9165, Note_on_c, 0, 77, 0
2, 9168, Note_on_c, 0, 75, 75
2, 9175, Note_on_c, 0, 75, 0
2, 9175, Note_on_c, 0, 77, 75
2, 9182, Note_on_c, 0, 77, 0
2, 9182, Note_on_c, 0, 75, 75
2, 9189, Note_on_c, 0, 75, 0
2, 9189, Note_on_c, 0, 77, 75
2, 9196, Note_on_c, 0, 77, 0
2, 9196, Note_on_c, 0, 75, 75
2, 9203, Note_on_c, 0, 75, 0
2, 9203, Note_on_c, 0, 74, 75
2, 9210, Note_on_c, 0, 74, 0
2, 9210, Note_on_c, 0, 75, 75
2, 9216, Note_on_c, 0, 75, 0
2, 9216, Note_on_c, 0, 74, 75
2, 9216, Note_on_c, 0, 70, 75
2, 9261, Note_on_c, 0, 74, 0
2, 9261, Note_on_c, 0, 70, 0
2, 9264, Note_on_c, 0, 75, 75
2, 9287, Note_on_c, 0, 75, 0
2, 9288, Note_on_c, 0, 72, 75
2, 9311, Note_on_c, 0, 72, 0
2, 9312, Note_on_c, 0, 70, 75
2, 9357, Note_on_c, 0, 70, 0
2, 9360, Note_on_c, 0, 69, 75
2, 9367, Note_on_c, 0, 69, 0
2, 9367, Note_on_c, 0, 70, 75
2, 9374, Note_on_c, 0, 70, 0
2, 9374, Note_on_c, 0, 69, 75
2, 9381, Note_on_c, 0, 69, 0
2, 9381, Note_on_c, 0, 70, 75
2, 9388, Note_on_c, 0, 70, 0
2, 9388, Note_on_c, 0, 69, 75
2, 9395, Note_on_c, 0, 69, 0
2, 9395, Note_on_c, 0, 67, 75
2, 9402, Note_on_c, 0, 67, 0
2, 9402, Note_on_c, 0, 69, 75
2, 9408, Note_on_c, 0, 69, 0
2, 9408, Note_on_c, 0, 70, 75
2, 9431, Note_on_c, 0, 70, 0
2, 9432, Note_on_c, 0, 77, 75
2, 9455, Note_on_c, 0, 77, 0
2, 9480, Note_on_c, 0, 77, 75
2, 9503, Note_on_c, 0, 77, 0
2, 9528, Note_on_c, 0, 77, 75
2, 9551, Note_on_c, 0, 77, 0
2, 9576, Note_on_c, 0, 77, 75
2, 9599, Note_on_c, 0, 77, 0
2, 9624, Note_on_c, 0, 77, 75
2, 9647, Note_on_c, 0, 77, 0
2, 9672, Note_on_c, 0, 77, 76
2, 9695, Note_on_c, 0, 77, 0
2, 9720, Note_on_c, 0, 77, 78
2, 9743, Note_on_c, 0, 77, 0
2, 9768, Note_on_c, 0, 77, 79
2, 9791, Note_on_c, 0, 77, 0
2, 9816, Note_on_c, 0, 77, 81
2, 9839, Note_on_c, 0, 77, 0
2, 9864, Note_on_c, 0, 77, 82
2, 9887, Note_on_c, 0, 77, 0
2, 9912, Note_on_c, 0, 77, 84
2, 9935, Note_on_c, 0, 77, 0
2, 9936, Note_on_c, 0, 89, 84
2, 9948, Note_on_c, 0, 89, 0
2, 9948, Note_on_c, 0, 86, 81
2, 9960, Note_on_c, 0, 86, 0
2, 9960, Note_on_c, 0, 82, 79
2, 9972, Note_on_c, 0, 82, 0
2, 9972, Note_on_c, 0, 77, 77
2, 9984, Note_on_c, 0, 77, 0
2, 9984, Note_on_c, 0, 79, 75
2, 10007, Note_on_c, 0, 79, 0
2, 10008, Note_on_c, 0, 81, 75
2, 10020, Note_on_c, 0, 81, 0
2, 10020, Note_on_c, 0, 82, 75
2, 10032, Note_on_c, 0, 82, 0
2, 10032, Note_on_c, 0, 81, 75
2, 10044, Note_on_c, 0, 81, 0
2, 10044, Note_on_c, 0, 79, 75
2, 10056, Note_on_c, 0, 79, 0
2, 10056, Note_on_c, 0, 77, 75
2, 10068, Note_on_c, 0, 77, 0
2, 10068, Note_on_c, 0, 75, 75
2, 10080, Note_on_c, 0, 75, 0
2, 10080, Note_on_c, 0, 74, 75
2, 10125, Note_on_c, 0, 74, 0
2, 10128, Note_on_c, 0, 72, 75
2, 10135, Note_on_c, 0, 72, 0
2, 10135, Note_on_c, 0, 74, 75
2, 10142, Note_on_c, 0, 74, 0
2, 10142, Note_on_c, 0, 72, 75
2, 10149, Note_on_c, 0, 72, 0
2, 10149, Note_on_c, 0, 74, 75
2, 10156, Note_on_c, 0, 74, 0
2, 10156, Note_on_c, 0, 72, 75
2, 10163, Note_on_c, 0, 72, 0
2, 10163, Note_on_c, 0, 70, 75
2, 10170, Note_on_c, 0, 70, 0
2, 10170, Note_on_c, 0, 72, 75
2, 10176, Note_on_c, 0, 72, 0
2, 10176, Note_on_c, 0, 70, 75
2, 10199, Note_on_c, 0, 70, 0
2, 10200, Note_on_c, 0, 77, 75
2, 10223, Note_on_c, 0, 77, 0
2, 10248, Note_on_c, 0, 77, 75
2, 10271, Note_on_c, 0, 77, 0
2, 10296, Note_on_c, 0, 77, 75
2, 10319, Note_on_c, 0, 77, 0
2, 10344, Note_on_c, 0, 77, 75
2, 10367, Note_on_c, 0, 77, 0
2, 10392, Note_on_c, 0, 77, 75
2, 10415, Note_on_c, 0, 77, 0
2, 10440, Note_on_c, 0, 77, 77
2, 10463, Note_on_c, 0, 77, 0
2, 10488, Note_on_c, 0, 77, 78
2, 10511, Note_on_c, 0, 77, 0
2, 10536, Note_on_c, 0, 77, 80
2, 10559, Note_on_c, 0, 77, 0
2, 10584, Note_on_c, 0, 77, 81
2, 10607, Note_on_c, 0, 77, 0
2, 10632, Note_on_c, 0, 77, 83
2, 10655, Note_on_c, 0, 77, 0
2, 10680, Note_on_c, 0, 77, 84
2, 10703, Note_on_c, 0, 77, 0
2, 10704, Note_on_c, 0, 89, 84
2, 10716, Note_on_c, 0, 89, 0
2, 10716, Note_on_c, 0, 86, 81
2, 10728, Note_on_c, 0, 86, 0
2, 10728, Note_on_c, 0, 82, 79
2, 10740, Note_on_c, 0, 82, 0
2, 10740, Note_on_c, 0, 77, 77
2, 10752, Note_on_c, 0, 77, 0
2, 10752, Note_on_c, 0, 79, 75
2, 10775, Note_on_c, 0, 79, 0
2, 10776, Note_on_c, 0, 81, 75
2, 10788, Note_on_c, 0, 81, 0
2, 10788, Note_on_c, 0, 82, 75
2, 10800, Note_on_c, 0, 82, 0
2, 10800, Note_on_c, 0, 81, 75
2, 10812, Note_on_c, 0, 81, 0
2, 10812, Note_on_c, 0, 79, 75
2, 10824, Note_on_c, 0, 79, 0
2, 10824, Note_on_c, 0, 77, 75
2, 10836, Note_on_c, 0, 77, 0
2, 10836, Note_on_c, 0, 75, 75
2, 10848, Note_on_c, 0, 75, 0
2, 10848, Note_on_c, 0, 74, 75
2, 10893, Note_on_c, 0, 74, 0
2, 10896, Note_on_c, 0, 72, 75
2, 10903, Note_on_c, 0, 72, 0
2, 10903, Note_on_c, 0, 74, 75
2, 10910, Note_on_c, 0, 74, 0
2, 10910, Note_on_c, 0, 72, 75
2, 10917, Note_on_c, 0, 72, 0
2, 10917, Note_on_c, 0, 74, 75
2, 10924, Note_on_c, 0, 74, 0
2, 10924, Note_on_c, 0, 72, 75
2, 10931, Note_on_c, 0, 72, 0
2, 10931, Note_on_c, 0, 70, 75
2, 10938, Note_on_c, 0, 70, 0
2, 10938, Note_on_c, 0, 72, 75
2, 10944, Note_on_c, 0, 72, 0
2, 10944, Note_on_c, 0, 70, 75
2, 11033, Note_on_c, 0, 70, 0
2, 11088, Note_on_c, 0, 75, 75
2, 11088, Note_on_c, 0, 67, 75
2, 11181, Note_on_c, 0, 75, 0
2, 11181, Note_on_c, 0, 67, 0
2, 11184, Note_on_c, 0, 74, 75
2, 11184, Note_on_c, 0, 65, 75
2, 11229, Note_on_c, 0, 74, 0
2, 11229, Note_on_c, 0, 65, 0
2, 11280, Note_on_c, 0, 72, 75
2, 11280, Note_on_c, 0, 63, 75
2, 11369, Note_on_c, 0, 72, 0
2, 11369, Note_on_c, 0, 63, 0
2, 11376, Note_on_c, 0, 70, 75
2, 11376, Note_on_c, 0, 62, 75
2, 11421, Note_on_c, 0, 70, 0
2, 11421, Note_on_c, 0, 62, 0
2, 11472, Note_on_c, 0, 63, 73
2, 11565, Note_on_c, 0, 63, 0
2, 11568, Note_on_c, 0, 62, 69
2, 11657, Note_on_c, 0, 62, 0
2, 11664, Note_on_c, 0, 61, 66
2, 11709, Note_on_c, 0, 61, 0
2, 11712, Note_on_c, 0, 62, 64
2, 11801, Note_on_c, 0, 62, 0
2, 11856, Note_on_c, 0, 74, 75
2, 11871, Note_on_c, 0, 74, 0
2, 11872, Note_on_c, 0, 75, 75
2, 11887, Note_on_c, 0, 75, 0
2, 11888, Note_on_c, 0, 74, 75
2, 11903, Note_on_c, 0, 74, 0
2, 11904, Note_on_c, 0, 79, 69
2, 11924, Note_on_c, 0, 79, 0
2, 11952, Note_on_c, 0, 77, 69
2, 11972, Note_on_c, 0, 77, 0
2, 12000, Note_on_c, 0, 75, 69
2, 12020, Note_on_c, 0, 75, 0
2, 12048, Note_on_c, 0, 74, 69
2, 12068, Note_on_c, 0, 74, 0
2, 12096, Note_on_c, 0, 73, 69
2, 12192, Note_on_c, 0, 73, 0
2, 12192, Note_on_c, 0, 74, 69
2, 12212, Note_on_c, 0, 74, 0
2, 12240, Note_on_c, 0, 74, 69
2, 12252, Note_on_c, 0, 74, 0
2, 12252, Note_on_c, 0, 72, 69
2, 12264, Note_on_c, 0, 72, 0
2, 12264, Note_on_c, 0, 70, 69
2, 12276, Note_on_c, 0, 70, 0
2, 12276, Note_on_c, 0, 72, 69
2, 12288, Note_on_c, 0, 72, 0
2, 12288, Note_on_c, 0, 70, 69
2, 12336, Note_on_c, 0, 70, 0
2, 12336, Note_on_c, 0, 74, 69
2, 12381, Note_on_c, 0, 74, 0
2, 12432, Note_on_c, 0, 75, 69
2, 12452, Note_on_c, 0, 75, 0
2, 12480, Note_on_c, 0, 67, 69
2, 12576, Note_on_c, 0, 67, 0
2, 12576, Note_on_c, 0, 66, 69
2, 12621, Note_on_c, 0, 66, 0
2, 12624, Note_on_c, 0, 74, 69
2, 12639, Note_on_c, 0, 74, 0
2, 12640, Note_on_c, 0, 75, 69
2, 12655, Note_on_c, 0, 75, 0
2, 12656, Note_on_c, 0, 74, 69
2, 12671, Note_on_c, 0, 74, 0
2, 12672, Note_on_c, 0, 79, 69
2, 12692, Note_on_c, 0, 79, 0
2, 12720, Note_on_c, 0, 77, 69
2, 12740, Note_on_c, 0, 77, 0
2, 12768, Note_on_c, 0, 75, 69
2, 12788, Note_on_c, 0, 75, 0
2, 12816, Note_on_c, 0, 74, 69
2, 12836, Note_on_c, 0, 74, 0
2, 12864, Note_on_c, 0, 73, 69
2, 12960, Note_on_c, 0, 73, 0
2, 12960, Note_on_c, 0, 74, 69
2, 12980, Note_on_c, 0, 74, 0
2, 13008, Note_on_c, 0, 75, 69
2, 13023, Note_on_c, 0, 75, 0
2, 13024, Note_on_c, 0, 74, 69
2, 13039, Note_on_c, 0, 74, 0
2, 13040, Note_on_c, 0, 72, 69
2, 13055, Note_on_c, 0, 72, 0
2, 13056, Note_on_c, 0, 74, 69
2, 13056, Note_on_c, 0, 70, 69
2, 13101, Note_on_c, 0, 74, 0
2, 13101, Note_on_c, 0, 70, 0
2, 13104, Note_on_c, 0, 79, 69
2, 13104, Note_on_c, 0, 70, 69
2, 13149, Note_on_c, 0, 79, 0
2, 13149, Note_on_c, 0, 70, 0
2, 13152, Note_on_c, 0, 81, 69
2, 13152, Note_on_c, 0, 72, 69
2, 13197, Note_on_c, 0, 81, 0
2, 13197, Note_on_c, 0, 72, 0
2, 13200, Note_on_c, 0, 78, 69
2, 13200, Note_on_c, 0, 69, 69
2, 13245, Note_on_c, 0, 78, 0
2, 13245, Note_on_c, 0, 69, 0
2, 13248, Note_on_c, 0, 79, 69
2, 13248, Note_on_c, 0, 67, 69
2, 13342, Note_on_c, 0, 79, 0
2, 13342, Note_on_c, 0, 67, 0
2, 13392, Note_on_c, 0, 62, 69
2, 13407, Note_on_c, 0, 62, 0
2, 13408, Note_on_c, 0, 63, 69
2, 13423, Note_on_c, 0, 63, 0
2, 13424, Note_on_c, 0, 62, 69
2, 13439, Note_on_c, 0, 62, 0
2, 13440, Note_on_c, 0, 67, 69
2, 13488, Note_on_c, 0, 67, 0
2, 13488, Note_on_c, 0, 66, 69
2, 13508, Note_on_c, 0, 66, 0
2, 13536, Note_on_c, 0, 69, 69
2, 13584, Note_on_c, 0, 69, 0
2, 13584, Note_on_c, 0, 67, 69
2, 13604, Note_on_c, 0, 67, 0
2, 13632, Note_on_c, 0, 70, 69
2, 13699, Note_on_c, 0, 70, 0
2, 13704, Note_on_c, 0, 72, 69
2, 13716, Note_on_c, 0, 72, 0
2, 13716, Note_on_c, 0, 70, 69
2, 13728, Note_on_c, 0, 70, 0
2, 13728, Note_on_c, 0, 69, 69
2, 13748, Note_on_c, 0, 69, 0
2, 13776, Note_on_c, 0, 62, 69
2, 13791, Note_on_c, 0, 62, 0
2, 13792, Note_on_c, 0, 63, 69
2, 13807, Note_on_c, 0, 63, 0
2, 13808, Note_on_c, 0, 62, 69
2, 13823, Note_on_c, 0, 62, 0
2, 13824, Note_on_c, 0, 69, 69
2, 13872, Note_on_c, 0, 69, 0
2, 13872, Note_on_c, 0, 67, 69
2, 13892, Note_on_c, 0, 67, 0
2, 13920, Note_on_c, 0, 70, 69
2, 13968, Note_on_c, 0, 70, 0
2, 13968, Note_on_c, 0, 69, 69
2, 13988, Note_on_c, 0, 69, 0
2, 14016, Note_on_c, 0, 71, 69
2, 14022, Note_on_c, 0, 71, 0
2, 14022, Note_on_c, 0, 72, 69
2, 14028, Note_on_c, 0, 72, 0
2, 14028, Note_on_c, 0, 74, 69
2, 14034, Note_on_c, 0, 74, 0
2, 14034, Note_on_c, 0, 72, 69
2, 14149, Note_on_c, 0, 72, 0
2, 14160, Note_on_c, 0, 70, 69
2, 14172, Note_on_c, 0, 70, 0
2, 14172, Note_on_c, 0, 69, 69
2, 14184, Note_on_c, 0, 69, 0
2, 14184, Note_on_c, 0, 67, 69
2, 14196, Note_on_c, 0, 67, 0
2, 14196, Note_on_c, 0, 65, 69
2, 14208, Note_on_c, 0, 65, 0
2, 14208, Note_on_c, 0, 77, 69
2, 14327, Note_on_c, 0, 77, 0
2, 14328, Note_on_c, 0, 79, 69
2, 14340, Note_on_c, 0, 79, 0
2, 14340, Note_on_c, 0, 77, 69
2, 14352, Note_on_c, 0, 77, 0
2, 14352, Note_on_c, 0, 75, 69
2, 14364, Note_on_c, 0, 75, 0
2, 14364, Note_on_c, 0, 74, 69
2, 14376, Note_on_c, 0, 74, 0
2, 14376, Note_on_c, 0, 72, 69
2, 14388, Note_on_c, 0, 72, 0
2, 14388, Note_on_c, 0, 70, 69
2, 14400, Note_on_c, 0, 70, 0
2, 14400, Note_on_c, 0, 69, 69
2, 14519, Note_on_c, 0, 69, 0
2, 14520, Note_on_c, 0, 81, 69
2, 14543, Note_on_c, 0, 81, 0
2, 14544, Note_on_c, 0, 82, 69
2, 14556, Note_on_c, 0, 82, 0
2, 14556, Note_on_c, 0, 81, 69
2, 14568, Note_on_c, 0, 81, 0
2, 14568, Note_on_c, 0, 79, 69
2, 14580, Note_on_c, 0, 79, 0
2, 14580, Note_on_c, 0, 77, 69
2, 14592, Note_on_c, 0, 77, 0
2, 14592, Note_on_c, 0, 82, 69
2, 14711, Note_on_c, 0, 82, 0
2, 14712, Note_on_c, 0, 86, 69
2, 14735, Note_on_c, 0, 86, 0
2, 14736, Note_on_c, 0, 87, 69
2, 14748, Note_on_c, 0, 87, 0
2, 14748, Note_on_c, 0, 86, 69
2, 14760, Note_on_c, 0, 86, 0
2, 14760, Note_on_c, 0, 84, 69
2, 14772, Note_on_c, 0, 84, 0
2, 14772, Note_on_c, 0, 82, 69
2, 14784, Note_on_c, 0, 82, 0
2, 14784, Note_on_c, 0, 81, 69
2, 14903, Note_on_c, 0, 81, 0
2, 14904, Note_on_c, 0, 81, 69
2, 14927, Note_on_c, 0, 81, 0
2, 14928, Note_on_c, 0, 82, 69
2, 14940, Note_on_c, 0, 82, 0
2, 14940, Note_on_c, 0, 81, 69
2, 14952, Note_on_c, 0, 81, 0
2, 14952, Note_on_c, 0, 79, 69
2, 14964, Note_on_c, 0, 79, 0
2, 14964, Note_on_c, 0, 77, 69
2, 14976, Note_on_c, 0, 77, 0
2, 14976, Note_on_c, 0, 82, 69
2, 15095, Note_on_c, 0, 82, 0
2, 15096, Note_on_c, 0, 85, 69
2, 15119, Note_on_c, 0, 85, 0
2, 15120, Note_on_c, 0, 84, 69
2, 15143, Note_on_c, 0, 84, 0
2, 15144, Note_on_c, 0, 82, 69
2, 15167, Note_on_c, 0, 82, 0
2, 15168, Note_on_c, 0, 82, 90
2, 15216, Note_on_c, 0, 82, 0
2, 15216, Note_on_c, 0, 81, 69
2, 15261, Note_on_c, 0, 81, 0
2, 15288, Note_on_c, 0, 81, 69
2, 15311, Note_on_c, 0, 81, 0
2, 15312, Note_on_c, 0, 87, 69
2, 15335, Note_on_c, 0, 87, 0
2, 15336, Note_on_c, 0, 81, 69
2, 15359, Note_on_c, 0, 81, 0
2, 15360, Note_on_c, 0, 84, 75
2, 15408, Note_on_c, 0, 84, 0
2, 15408, Note_on_c, 0, 82, 75
2, 15479, Note_on_c, 0, 82, 0
2, 15480, Note_on_c, 0, 84, 75
2, 15503, Note_on_c, 0, 84, 0
2, 15504, Note_on_c, 0, 84, 75
2, 15527, Note_on_c, 0, 84, 0
2, 15528, Note_on_c, 0, 85, 75
2, 15551, Note_on_c, 0, 85, 0
2, 15552, Note_on_c, 0, 85, 75
2, 15600, Note_on_c, 0, 85, 0
2, 15600, Note_on_c, 0, 84, 75
2, 15645, Note_on_c, 0, 84, 0
2, 15648, Note_on_c, 0, 82, 75
2, 15789, Note_on_c, 0, 82, 0
2, 15792, Note_on_c, 0, 80, 75
2, 15837, Note_on_c, 0, 80, 0
2, 15840, Note_on_c, 0, 78, 75
2, 15885, Note_on_c, 0, 78, 0
2, 15888, Note_on_c, 0, 77, 75
2, 15933, Note_on_c, 0, 77, 0
2, 15936, Note_on_c, 0, 77, 75
2, 16032, Note_on_c, 0, 77, 0
2, 16032, Note_on_c, 0, 76, 75
2, 16038, Note_on_c, 0, 76, 0
2, 16038, Note_on_c, 0, 77, 75
2, 16044, Note_on_c, 0, 77, 0
2, 16044, Note_on_c, 0, 76, 75
2, 16079, Note_on_c, 0, 76, 0
2, 16080, Note_on_c, 0, 85, 75
2, 16103, Note_on_c, 0, 85, 0
2, 16104, Note_on_c, 0, 76, 75
2, 16127, Note_on_c, 0, 76, 0
2, 16128, Note_on_c, 0, 76, 75
2, 16261, Note_on_c, 0, 76, 0
2, 16272, Note_on_c, 0, 79, 75
2, 16295, Note_on_c, 0, 79, 0
2, 16296, Note_on_c, 0, 77, 75
2, 16319, Note_on_c, 0, 77, 0
2, 16320, Note_on_c, 0, 77, 75
2, 16365, Note_on_c, 0, 77, 0
2, 16464, Note_on_c, 0, 77, 84
2, 16476, Note_on_c, 0, 77, 0
2, 16476, Note_on_c, 0, 74, 84
2, 16488, Note_on_c, 0, 74, 0
2, 16488, Note_on_c, 0, 70, 84
2, 16500, Note_on_c, 0, 70, 0
2, 16500, Note_on_c, 0, 65, 84
2, 16506, Note_on_c, 0, 65, 0
2, 16506, Note_on_c, 0, 62, 84
2, 16512, Note_on_c, 0, 62, 0
2, 16512, Note_on_c, 0, 58, 84
2, 16532, Note_on_c, 0, 58, 0
2, 16560, Note_on_c, 0, 82, 84
2, 16575, Note_on_c, 0, 82, 0
2, 16576, Note_on_c, 0, 84, 84
2, 16591, Note_on_c, 0, 84, 0
2, 16592, Note_on_c, 0, 82, 84
2, 16607, Note_on_c, 0, 82, 0
2, 16608, Note_on_c, 0, 81, 84
2, 16628, Note_on_c, 0, 81, 0
2, 16656, Note_on_c, 0, 77, 84
2, 16668, Note_on_c, 0, 77, 0
2, 16668, Note_on_c, 0, 74, 84
2, 16680, Note_on_c, 0, 74, 0
2, 16680, Note_on_c, 0, 70, 84
2, 16692, Note_on_c, 0, 70, 0
2, 16692, Note_on_c, 0, 65, 84
2, 16698, Note_on_c, 0, 65, 0
2, 16698, Note_on_c, 0, 62, 84
2, 16704, Note_on_c, 0, 62, 0
2, 16704, Note_on_c, 0, 58, 84
2, 16724, Note_on_c, 0, 58, 0
2, 16752, Note_on_c, 0, 74, 84
2, 16759, Note_on_c, 0, 74, 0
2, 16759, Note_on_c, 0, 75, 84
2, 16766, Note_on_c, 0, 75, 0
2, 16766, Note_on_c, 0, 74, 84
2, 16773, Note_on_c, 0, 74, 0
2, 16773, Note_on_c, 0, 75, 84
2, 16780, Note_on_c, 0, 75, 0
2, 16780, Note_on_c, 0, 74, 84
2, 16787, Note_on_c, 0, 74, 0
2, 16787, Note_on_c, 0, 72, 84
2, 16794, Note_on_c, 0, 72, 0
2, 16794, Note_on_c, 0, 74, 84
2, 16800, Note_on_c, 0, 74, 0
2, 16800, Note_on_c, 0, 72, 84
2, 16820, Note_on_c, 0, 72, 0
2, 16848, Note_on_c, 0, 77, 69
2, 16860, Note_on_c, 0, 77, 0
2, 16860, Note_on_c, 0, 74, 69
2, 16872, Note_on_c, 0, 74, 0
2, 16872, Note_on_c, 0, 70, 69
2, 16884, Note_on_c, 0, 70, 0
2, 16884, Note_on_c, 0, 65, 69
2, 16890, Note_on_c, 0, 65, 0
2, 16890, Note_on_c, 0, 62, 69
2, 16896, Note_on_c, 0, 62, 0
2, 16896, Note_on_c, 0, 58, 69
2, 16916, Note_on_c, 0, 58, 0
2, 16944, Note_on_c, 0, 82, 69
2, 16959, Note_on_c, 0, 82, 0
2, 16960, Note_on_c, 0, 84, 69
2, 16975, Note_on_c, 0, 84, 0
2, 16976, Note_on_c, 0, 82, 69
2, 16991, Note_on_c, 0, 82, 0
2, 16992, Note_on_c, 0, 81, 69
2, 17012, Note_on_c, 0, 81, 0
2, 17040, Note_on_c, 0, 77, 69
2, 17052, Note_on_c, 0, 77, 0
2, 17052, Note_on_c, 0, 74, 69
2, 17064, Note_on_c, 0, 74, 0
2, 17064, Note_on_c, 0, 70, 69
2, 17076, Note_on_c, 0, 70, 0
2, 17076, Note_on_c, 0, 65, 69
2, 17082, Note_on_c, 0, 65, 0
2, 17082, Note_on_c, 0, 62, 69
2, 17088, Note_on_c, 0, 62, 0
2, 17088, Note_on_c, 0, 58, 69
2, 17108, Note_on_c, 0, 58, 0
2, 17136, Note_on_c, 0, 74, 69
2, 17143, Note_on_c, 0, 74, 0
2, 17143, Note_on_c, 0, 75, 69
2, 17150, Note_on_c, 0, 75, 0
2, 17150, Note_on_c, 0, 74, 69
2, 17157, Note_on_c, 0, 74, 0
2, 17157, Note_on_c, 0, 75, 69
2, 17164, Note_on_c, 0, 75, 0
2, 17164, Note_on_c, 0, 74, 69
2, 17171, Note_on_c, 0, 74, 0
2, 17171, Note_on_c, 0, 72, 69
2, 17178, Note_on_c, 0, 72, 0
2, 17178, Note_on_c, 0, 74, 69
2, 17184, Note_on_c, 0, 74, 0
2, 17184, Note_on_c, 0, 72, 69
2, 17204, Note_on_c, 0, 72, 0
2, 17232, Note_on_c, 0, 77, 69
2, 17244, Note_on_c, 0, 77, 0
2, 17244, Note_on_c, 0, 74, 69
2, 17256, Note_on_c, 0, 74, 0
2, 17256, Note_on_c, 0, 70, 69
2, 17268, Note_on_c, 0, 70, 0
2, 17268, Note_on_c, 0, 65, 69
2, 17280, Note_on_c, 0, 65, 0
2, 17280, Note_on_c, 0, 67, 69
2, 17303, Note_on_c, 0, 67, 0
2, 17304, Note_on_c, 0, 79, 70
2, 17327, Note_on_c, 0, 79, 0
2, 17352, Note_on_c, 0, 77, 70
2, 17375, Note_on_c, 0, 77, 0
2, 17376, Note_on_c, 0, 75, 71
2, 17399, Note_on_c, 0, 75, 0
2, 17400, Note_on_c, 0, 74, 71
2, 17423, Note_on_c, 0, 74, 0
2, 17424, Note_on_c, 0, 72, 72
2, 17447, Note_on_c, 0, 72, 0
2, 17448, Note_on_c, 0, 70, 72
2, 17471, Note_on_c, 0, 70, 0
2, 17472, Note_on_c, 0, 70, 72
2, 17568, Note_on_c, 0, 70, 0
2, 17568, Note_on_c, 0, 69, 74
2, 17613, Note_on_c, 0, 69, 0
2, 17616, Note_on_c, 0, 81, 75
2, 17628, Note_on_c, 0, 81, 0
2, 17628, Note_on_c, 0, 77, 75
2, 17640, Note_on_c, 0, 77, 0
2, 17640, Note_on_c, 0, 74, 75
2, 17652, Note_on_c, 0, 74, 0
2, 17652, Note_on_c, 0, 69, 75
2, 17664, Note_on_c, 0, 69, 0
2, 17664, Note_on_c, 0, 70, 75
2, 17687, Note_on_c, 0, 70, 0
2, 17688, Note_on_c, 0, 82, 76
2, 17711, Note_on_c, 0, 82, 0
2, 17736, Note_on_c, 0, 81, 77
2, 17759, Note_on_c, 0, 81, 0
2, 17760, Note_on_c, 0, 81, 77
2, 17766, Note_on_c, 0, 81, 0
2, 17766, Note_on_c, 0, 79, 77
2, 17783, Note_on_c, 0, 79, 0
2, 17784, Note_on_c, 0, 77, 77
2, 17807, Note_on_c, 0, 77, 0
2, 17808, Note_on_c, 0, 77, 78
2, 17814, Note_on_c, 0, 77, 0
2, 17814, Note_on_c, 0, 75, 78
2, 17831, Note_on_c, 0, 75, 0
2, 17832, Note_on_c, 0, 74, 78
2, 17855, Note_on_c, 0, 74, 0
2, 17856, Note_on_c, 0, 74, 79
2, 17952, Note_on_c, 0, 74, 0
2, 17952, Note_on_c, 0, 72, 80
2, 17997, Note_on_c, 0, 72, 0
2, 18000, Note_on_c, 0, 84, 81
2, 18012, Note_on_c, 0, 84, 0
2, 18012, Note_on_c, 0, 81, 81
2, 18024, Note_on_c, 0, 81, 0
2, 18024, Note_on_c, 0, 77, 81
2, 18036, Note_on_c, 0, 77, 0
2, 18036, Note_on_c, 0, 72, 81
2, 18048, Note_on_c, 0, 72, 0
2, 18048, Note_on_c, 0, 74, 82
2, 18071, Note_on_c, 0, 74, 0
2, 18072, Note_on_c, 0, 86, 82
2, 18095, Note_on_c, 0, 86, 0
2, 18120, Note_on_c, 0, 84, 83
2, 18143, Note_on_c, 0, 84, 0
2, 18144, Note_on_c, 0, 82, 83
2, 18167, Note_on_c, 0, 82, 0
2, 18168, Note_on_c, 0, 81, 84
2, 18191, Note_on_c, 0, 81, 0
2, 18192, Note_on_c, 0, 79, 84
2, 18215, Note_on_c, 0, 79, 0
2, 18216, Note_on_c, 0, 77, 84
2, 18239, Note_on_c, 0, 77, 0
2, 18240, Note_on_c, 0, 77, 84
2, 18329, Note_on_c, 0, 77, 0
2, 18336, Note_on_c, 0, 76, 84
2, 18342, Note_on_c, 0, 76, 0
2, 18342, Note_on_c, 0, 77, 84
2, 18348, Note_on_c, 0, 77, 0
2, 18348, Note_on_c, 0, 76, 84
2, 18405, Note_on_c, 0, 76, 0
2, 18408, Note_on_c, 0, 79, 84
2, 18431, Note_on_c, 0, 79, 0
2, 18432, Note_on_c, 0, 79, 84
2, 18521, Note_on_c, 0, 79, 0
2, 18528, Note_on_c, 0, 77, 84
2, 18534, Note_on_c, 0, 77, 0
2, 18534, Note_on_c, 0, 79, 84
2, 18540, Note_on_c, 0, 79, 0
2, 18540, Note_on_c, 0, 77, 84
2, 18597, Note_on_c, 0, 77, 0
2, 18600, Note_on_c, 0, 84, 84
2, 18623, Note_on_c, 0, 84, 0
2, 18624, Note_on_c, 0, 84, 84
2, 18669, Note_on_c, 0, 84, 0
2, 18672, Note_on_c, 0, 75, 84
2, 18761, Note_on_c, 0, 75, 0
2, 18768, Note_on_c, 0, 77, 84
2, 18780, Note_on_c, 0, 77, 0
2, 18780, Note_on_c, 0, 75, 84
2, 18792, Note_on_c, 0, 75, 0
2, 18792, Note_on_c, 0, 74, 84
2, 18804, Note_on_c, 0, 74, 0
2, 18804, Note_on_c, 0, 75, 84
2, 18816, Note_on_c, 0, 75, 0
2, 18816, Note_on_c, 0, 74, 84
2, 18861, Note_on_c, 0, 74, 0
2, 18864, Note_on_c, 0, 82, 84
2, 18935, Note_on_c, 0, 82, 0
2, 18936, Note_on_c, 0, 80, 84
2, 18959, Note_on_c, 0, 80, 0
2, 18960, Note_on_c, 0, 79, 84
2, 18983, Note_on_c, 0, 79, 0
2, 18984, Note_on_c, 0, 78, 84
2, 19007, Note_on_c, 0, 78, 0
2, 19008, Note_on_c, 0, 78, 84
2, 19056, Note_on_c, 0, 78, 0
2, 19056, Note_on_c, 0, 79, 84
2, 19076, Note_on_c, 0, 79, 0
2, 19152, Note_on_c, 0, 84, 84
2, 19164, Note_on_c, 0, 84, 0
2, 19164, Note_on_c, 0, 82, 84
2, 19176, Note_on_c, 0, 82, 0
2, 19176, Note_on_c, 0, 81, 84
2, 19188, Note_on_c, 0, 81, 0
2, 19188, Note_on_c, 0, 79, 84
2, 19200, Note_on_c, 0, 79, 0
2, 19200, Note_on_c, 0, 79, 84
2, 19212, Note_on_c, 0, 79, 0
2, 19212, Note_on_c, 0, 77, 84
2, 19224, Note_on_c, 0, 77, 0
2, 19224, Note_on_c, 0, 76, 84
2, 19236, Note_on_c, 0, 76, 0
2, 19236, Note_on_c, 0, 77, 84
2, 19248, Note_on_c, 0, 77, 0
2, 19248, Note_on_c, 0, 81, 84
2, 19260, Note_on_c, 0, 81, 0
2, 19260, Note_on_c, 0, 79, 84
2, 19272, Note_on_c, 0, 79, 0
2, 19272, Note_on_c, 0, 77, 84
2, 19284, Note_on_c, 0, 77, 0
2, 19284, Note_on_c, 0, 75, 84
2, 19296, Note_on_c, 0, 75, 0
2, 19296, Note_on_c, 0, 74, 84
2, 19341, Note_on_c, 0, 74, 0
2, 19344, Note_on_c, 0, 72, 84
2, 19351, Note_on_c, 0, 72, 0
2, 19351, Note_on_c, 0, 74, 84
2, 19358, Note_on_c, 0, 74, 0
2, 19358, Note_on_c, 0, 72, 84
2, 19365, Note_on_c, 0, 72, 0
2, 19365, Note_on_c, 0, 74, 84
2, 19372, Note_on_c, 0, 74, 0
2, 19372, Note_on_c, 0, 72, 84
2, 19379, Note_on_c, 0, 72, 0
2, 19379, Note_on_c, 0, 70, 84
2, 19386, Note_on_c, 0, 70, 0
2, 19386, Note_on_c, 0, 72, 84
2, 19392, Note_on_c, 0, 72, 0
2, 19392, Note_on_c, 0, 70, 84
2, 19481, Note_on_c, 0, 70, 0
2, 19536, Note_on_c, 0, 65, 75
2, 19581, Note_on_c, 0, 65, 0
2, 19584, Note_on_c, 0, 70, 75
2, 19632, Note_on_c, 0, 70, 0
2, 19632, Note_on_c, 0, 69, 75
2, 19652, Note_on_c, 0, 69, 0
2, 19680, Note_on_c, 0, 72, 75
2, 19728, Note_on_c, 0, 72, 0
2, 19728, Note_on_c, 0, 70, 75
2, 19748, Note_on_c, 0, 70, 0
2, 19776, Note_on_c, 0, 74, 75
2, 19843, Note_on_c, 0, 74, 0
2, 19848, Note_on_c, 0, 75, 75
2, 19860, Note_on_c, 0, 75, 0
2, 19860, Note_on_c, 0, 74, 75
2, 19872, Note_on_c, 0, 74, 0
2, 19872, Note_on_c, 0, 72, 75
2, 19917, Note_on_c, 0, 72, 0
2, 19968, Note_on_c, 0, 72, 75
2, 20016, Note_on_c, 0, 72, 0
2, 20016, Note_on_c, 0, 70, 75
2, 20061, Note_on_c, 0, 70, 0
2, 20064, Note_on_c, 0, 74, 75
2, 20112, Note_on_c, 0, 74, 0
2, 20112, Note_on_c, 0, 72, 75
2, 20132, Note_on_c, 0, 72, 0
2, 20160, Note_on_c, 0, 75, 75
2, 20227, Note_on_c, 0, 75, 0
2, 20232, Note_on_c, 0, 79, 75
2, 20240, Note_on_c, 0, 79, 0
2, 20240, Note_on_c, 0, 77, 75
2, 20248, Note_on_c, 0, 77, 0
2, 20248, Note_on_c, 0, 75, 75
2, 20256, Note_on_c, 0, 75, 0
2, 20256, Note_on_c, 0, 74, 75
2, 20301, Note_on_c, 0, 74, 0
2, 20352, Note_on_c, 0, 74, 75
2, 20375, Note_on_c, 0, 74, 0
2, 20376, Note_on_c, 0, 70, 75
2, 20399, Note_on_c, 0, 70, 0
2, 20400, Note_on_c, 0, 72, 75
2, 20423, Note_on_c, 0, 72, 0
2, 20424, Note_on_c, 0, 69, 75
2, 20447, Note_on_c, 0, 69, 0
2, 20448, Note_on_c, 0, 75, 75
2, 20471, Note_on_c, 0, 75, 0
2, 20472, Note_on_c, 0, 72, 75
2, 20495, Note_on_c, 0, 72, 0
2, 20496, Note_on_c, 0, 74, 75
2, 20519, Note_on_c, 0, 74, 0
2, 20520, Note_on_c, 0, 70, 75
2, 20543, Note_on_c, 0, 70, 0
2, 20544, Note_on_c, 0, 79, 96
2, 20633, Note_on_c, 0, 79, 0
2, 20640, Note_on_c, 0, 77, 75
2, 20685, Note_on_c, 0, 77, 0
2, 20688, Note_on_c, 0, 75, 75
2, 20695, Note_on_c, 0, 75, 0
2, 20695, Note_on_c, 0, 77, 75
2, 20702, Note_on_c, 0, 77, 0
2, 20702, Note_on_c, 0, 75, 75
2, 20709, Note_on_c, 0, 75, 0
2, 20709, Note_on_c, 0, 77, 75
2, 20716, Note_on_c, 0, 77, 0
2, 20716, Note_on_c, 0, 75, 75
2, 20723, Note_on_c, 0, 75, 0
2, 20723, Note_on_c, 0, 74, 75
2, 20730, Note_on_c, 0, 74, 0
2, 20730, Note_on_c, 0, 75, 75
2, 20736, Note_on_c, 0, 75, 0
2, 20736, Note_on_c, 0, 74, 75
2, 20736, Note_on_c, 0, 70, 75
2, 20781, Note_on_c, 0, 74, 0
2, 20781, Note_on_c, 0, 70, 0
2, 20784, Note_on_c, 0, 75, 75
2, 20807, Note_on_c, 0, 75, 0
2, 20808, Note_on_c, 0, 72, 75
2, 20831, Note_on_c, 0, 72, 0
2, 20832, Note_on_c, 0, 70, 75
2, 20877, Note_on_c, 0, 70, 0
2, 20880, Note_on_c, 0, 69, 75
2, 20887, Note_on_c, 0, 69, 0
2, 20887, Note_on_c, 0, 70, 75
2, 20894, Note_on_c, 0, 70, 0
2, 20894, Note_on_c, 0, 69, 75
2, 20901, Note_on_c, 0, 69, 0
2, 20901, Note_on_c, 0, 70, 75
2, 20908, Note_on_c, 0, 70, 0
2, 20908, Note_on_c, 0, 69, 75
2, 20915, Note_on_c, 0, 69, 0
2, 20915, Note_on_c, 0, 67, 75
2, 20922, Note_on_c, 0, 67, 0
2, 20922, Note_on_c, 0, 69, 75
2, 20928, Note_on_c, 0, 69, 0
2, 20928, Note_on_c, 0, 70, 75
2, 20951, Note_on_c, 0, 70, 0
2, 20952, Note_on_c, 0, 77, 75
2, 20975, Note_on_c, 0, 77, 0
2, 21000, Note_on_c, 0, 77, 75
2, 21023, Note_on_c, 0, 77, 0
2, 21048, Note_on_c, 0, 77, 75
2, 21071, Note_on_c, 0, 77, 0
2, 21096, Note_on_c, 0, 77, 75
2, 21119, Note_on_c, 0, 77, 0
2, 21144, Note_on_c, 0, 77, 75
2, 21167, Note_on_c, 0, 77, 0
2, 21192, Note_on_c, 0, 77, 76
2, 21215, Note_on_c, 0, 77, 0
2, 21240, Note_on_c, 0, 77, 78
2, 21263, Note_on_c, 0, 77, 0
2, 21288, Note_on_c, 0, 77, 79
2, 21311, Note_on_c, 0, 77, 0
2, 21336, Note_on_c, 0, 77, 81
2, 21359, Note_on_c, 0, 77, 0
2, 21384, Note_on_c, 0, 77, 82
2, 21407, Note_on_c, 0, 77, 0
2, 21432, Note_on_c, 0, 77, 84
2, 21455, Note_on_c, 0, 77, 0
2, 21456, Note_on_c, 0, 89, 84
2, 21468, Note_on_c, 0, 89, 0
2, 21468, Note_on_c, 0, 86, 81
2, 21480, Note_on_c, 0, 86, 0
2, 21480, Note_on_c, 0, 82, 79
2, 21492, Note_on_c, 0, 82, 0
2, 21492, Note_on_c, 0, 77, 77
2, 21504, Note_on_c, 0, 77, 0
2, 21504, Note_on_c, 0, 79, 75
2, 21527, Note_on_c, 0, 79, 0
2, 21528, Note_on_c, 0, 81, 75
2, 21540, Note_on_c, 0, 81, 0
2, 21540, Note_on_c, 0, 82, 75
2, 21552, Note_on_c, 0, 82, 0
2, 21552, Note_on_c, 0, 81, 75
2, 21564, Note_on_c, 0, 81, 0
2, 21564, Note_on_c, 0, 79, 75
2, 21576, Note_on_c, 0, 79, 0
2, 21576, Note_on_c, 0, 77, 75
2, 21588, Note_on_c, 0, 77, 0
2, 21588, Note_on_c, 0, 75, 75
2, 21600, Note_on_c, 0, 75, 0
2, 21600, Note_on_c, 0, 74, 75
2, 21645, Note_on_c, 0, 74, 0
2, 21648, Note_on_c, 0, 72, 75
2, 21655, Note_on_c, 0, 72, 0
2, 21655, Note_on_c, 0, 74, 75
2, 21662, Note_on_c, 0, 74, 0
2, 21662, Note_on_c, 0, 72, 75
2, 21669, Note_on_c, 0, 72, 0
2, 21669, Note_on_c, 0, 74, 75
2, 21676, Note_on_c, 0, 74, 0
2, 21676, Note_on_c, 0, 72, 75
2, 21683, Note_on_c, 0, 72, 0
2, 21683, Note_on_c, 0, 70, 75
2, 21690, Note_on_c, 0, 70, 0
2, 21690, Note_on_c, 0, 72, 75
2, 21696, Note_on_c, 0, 72, 0
2, 21696, Note_on_c, 0, 70, 75
2, 21719, Note_on_c, 0, 70, 0
2, 21720, Note_on_c, 0, 77, 75
2, 21743, Note_on_c, 0, 77, 0
2, 21768, Note_on_c, 0, 77, 75
2, 21791, Note_on_c, 0, 77, 0
2, 21816, Note_on_c, 0, 77, 75
2, 21839, Note_on_c, 0, 77, 0
2, 21864, Note_on_c, 0, 77, 75
2, 21887, Note_on_c, 0, 77, 0
2, 21912, Note_on_c, 0, 77, 75
2, 21935, Note_on_c, 0, 77, 0
2, 21960, Note_on_c, 0, 77, 77
2, 21983, Note_on_c, 0, 77, 0
2, 22008, Note_on_c, 0, 77, 78
2, 22031, Note_on_c, 0, 77, 0
2, 22056, Note_on_c, 0, 77, 80
2, 22079, Note_on_c, 0, 77, 0
2, 22104, Note_on_c, 0, 77, 81
2, 22127, Note_on_c, 0, 77, 0
2, 22152, Note_on_c, 0, 77, 83
2, 22175, Note_on_c, 0, 77, 0
2, 22200, Note_on_c, 0, 77, 84
2, 22223, Note_on_c, 0, 77, 0
2, 22224, Note_on_c, 0, 89, 84
2, 22236, Note_on_c, 0, 89, 0
2, 22236, Note_on_c, 0, 86, 81
2, 22248, Note_on_c, 0, 86, 0
2, 22248, Note_on_c, 0, 82, 79
2, 22260, Note_on_c, 0, 82, 0
2, 22260, Note_on_c, 0, 77, 77
2, 22272, Note_on_c, 0, 77, 0
2, 22272, Note_on_c, 0, 79, 75
2, 22295, Note_on_c, 0, 79, 0
2, 22296, Note_on_c, 0, 81, 75
2, 22308, Note_on_c, 0, 81, 0
2, 22308, Note_on_c, 0, 82, 75
2, 22320, Note_on_c, 0, 82, 0
2, 22320, Note_on_c, 0, 81, 75
2, 22332, Note_on_c, 0, 81, 0
2, 22332, Note_on_c, 0, 79, 75
2, 22344, Note_on_c, 0, 79, 0
2, 22344, Note_on_c, 0, 77, 75
2, 22356, Note_on_c, 0, 77, 0
2, 22356, Note_on_c, 0, 75, 75
2, 22368, Note_on_c, 0, 75, 0
2, 22368, Note_on_c, 0, 74, 75
2, 22413, Note_on_c, 0, 74, 0
2, 22416, Note_on_c, 0, 72, 75
2, 22423, Note_on_c, 0, 72, 0
2, 22423, Note_on_c, 0, 74, 75
2, 22430, Note_on_c, 0, 74, 0
2, 22430, Note_on_c, 0, 72, 75
2, 22437, Note_on_c, 0, 72, 0
2, 22437, Note_on_c, 0, 74, 75
2, 22444, Note_on_c, 0, 74, 0
2, 22444, Note_on_c, 0, 72, 75
2, 22451, Note_on_c, 0, 72, 0
2, 22451, Note_on_c, 0, 70, 75
2, 22458, Note_on_c, 0, 70, 0
2, 22458, Note_on_c, 0, 72, 75
2, 22464, Note_on_c, 0, 72, 0
2, 22464, Note_on_c, 0, 70, 75
2, 22553, Note_on_c, 0, 70, 0
2, 22608, Note_on_c, 0, 75, 75
2, 22608, Note_on_c, 0, 67, 75
2, 22701, Note_on_c, 0, 75, 0
2, 22701, Note_on_c, 0, 67, 0
2, 22704, Note_on_c, 0, 74, 75
2, 22704, Note_on_c, 0, 65, 75
2, 22749, Note_on_c, 0, 74, 0
2, 22749, Note_on_c, 0, 65, 0
2, 22800, Note_on_c, 0, 72, 75
2, 22800, Note_on_c, 0, 63, 75
2, 22889, Note_on_c, 0, 72, 0
2, 22889, Note_on_c, 0, 63, 0
2, 22896, Note_on_c, 0, 70, 75
2, 22896, Note_on_c, 0, 62, 75
2, 22941, Note_on_c, 0, 70, 0
2, 22941, Note_on_c, 0, 62, 0
2, 22992, Note_on_c, 0, 63, 73
2, 23085, Note_on_c, 0, 63, 0
2, 23088, Note_on_c, 0, 62, 69
2, 23177, Note_on_c, 0, 62, 0
2, 23184, Note_on_c, 0, 60, 66
2, 23273, Note_on_c, 0, 60, 0
2, 23280, Note_on_c, 0, 59, 62
2, 23325, Note_on_c, 0, 59, 0
2, 23376, Note_on_c, 0, 79, 75
2, 23391, Note_on_c, 0, 79, 0
2, 23392, Note_on_c, 0, 80, 75
2, 23407, Note_on_c, 0, 80, 0
2, 23408, Note_on_c, 0, 79, 75
2, 23423, Note_on_c, 0, 79, 0
2, 23424, Note_on_c, 0, 84, 75
2, 23444, Note_on_c, 0, 84, 0
2, 23472, Note_on_c, 0, 82, 75
2, 23492, Note_on_c, 0, 82, 0
2, 23520, Note_on_c, 0, 80, 75
2, 23540, Note_on_c, 0, 80, 0
2, 23568, Note_on_c, 0, 79, 75
2, 23588, Note_on_c, 0, 79, 0
2, 23616, Note_on_c, 0, 78, 75
2, 23712, Note_on_c, 0, 78, 0
2, 23712, Note_on_c, 0, 79, 75
2, 23732, Note_on_c, 0, 79, 0
2, 23760, Note_on_c, 0, 79, 75
2, 23772, Note_on_c, 0, 79, 0
2, 23772, Note_on_c, 0, 77, 75
2, 23784, Note_on_c, 0, 77, 0
2, 23784, Note_on_c, 0, 75, 75
2, 23796, Note_on_c, 0, 75, 0
2, 23796, Note_on_c, 0, 77, 75
2, 23808, Note_on_c, 0, 77, 0
2, 23808, Note_on_c, 0, 75, 75
2, 23856, Note_on_c, 0, 75, 0
2, 23856, Note_on_c, 0, 79, 75
2, 23901, Note_on_c, 0, 79, 0
2, 23952, Note_on_c, 0, 80, 75
2, 23972, Note_on_c, 0, 80, 0
2, 24000, Note_on_c, 0, 72, 75
2, 24096, Note_on_c, 0, 72, 0
2, 24096, Note_on_c, 0, 71, 75
2, 24116, Note_on_c, 0, 71, 0
2, 24144, Note_on_c, 0, 67, 75
2, 24159, Note_on_c, 0, 67, 0
2, 24160, Note_on_c, 0, 68, 75
2, 24175, Note_on_c, 0, 68, 0
2, 24176, Note_on_c, 0, 67, 75
2, 24191, Note_on_c, 0, 67, 0
2, 24192, Note_on_c, 0, 72, 75
2, 24240, Note_on_c, 0, 72, 0
2, 24240, Note_on_c, 0, 70, 75
2, 24260, Note_on_c, 0, 70, 0
2, 24288, Note_on_c, 0, 68, 75
2, 24336, Note_on_c, 0, 68, 0
2, 24336, Note_on_c, 0, 67, 75
2, 24356, Note_on_c, 0, 67, 0
2, 24384, Note_on_c, 0, 66, 75
2, 24561, Note_on_c, 0, 66, 0
2, 24576, Note_on_c, 0, 67, 75
2, 24665, Note_on_c, 0, 67, 0
2, 24912, Note_on_c, 0, 62, 75
2, 24927, Note_on_c, 0, 62, 0
2, 24928, Note_on_c, 0, 63, 75
2, 24943, Note_on_c, 0, 63, 0
2, 24944, Note_on_c, 0, 62, 75
2, 24959, Note_on_c, 0, 62, 0
2, 24960, Note_on_c, 0, 70, 75
2, 25008, Note_on_c, 0, 70, 0
2, 25008, Note_on_c, 0, 68, 75
2, 25028, Note_on_c, 0, 68, 0
2, 25056, Note_on_c, 0, 67, 75
2, 25104, Note_on_c, 0, 67, 0
2, 25104, Note_on_c, 0, 65, 75
2, 25124, Note_on_c, 0, 65, 0
2, 25152, Note_on_c, 0, 64, 75
2, 25329, Note_on_c, 0, 64, 0
2, 25344, Note_on_c, 0, 65, 75
2, 25433, Note_on_c, 0, 65, 0
2, 25728, Note_on_c, 0, 84, 75
2, 25861, Note_on_c, 0, 84, 0
2, 25872, Note_on_c, 0, 82, 75
2, 25884, Note_on_c, 0, 82, 0
2, 25884, Note_on_c, 0, 80, 75
2, 25896, Note_on_c, 0, 80, 0
2, 25896, Note_on_c, 0, 79, 75
2, 25908, Note_on_c, 0, 79, 0
2, 25908, Note_on_c, 0, 77, 75
2, 25920, Note_on_c, 0, 77, 0
2, 25920, Note_on_c, 0, 84, 75
2, 26053, Note_on_c, 0, 84, 0
2, 26064, Note_on_c, 0, 82, 75
2, 26076, Note_on_c, 0, 82, 0
2, 26076, Note_on_c, 0, 81, 75
2, 26088, Note_on_c, 0, 81, 0
2, 26088, Note_on_c, 0, 79, 75
2, 26100, Note_on_c, 0, 79, 0
2, 26100, Note_on_c, 0, 77, 75
2, 26112, Note_on_c, 0, 77, 0
2, 26112, Note_on_c, 0, 84, 76
2, 26245, Note_on_c, 0, 84, 0
2, 26256, Note_on_c, 0, 82, 80
2, 26268, Note_on_c, 0, 82, 0
2, 26268, Note_on_c, 0, 81, 80
2, 26280, Note_on_c, 0, 81, 0
2, 26280, Note_on_c, 0, 79, 80
2, 26292, Note_on_c, 0, 79, 0
2, 26292, Note_on_c, 0, 78, 81
2, 26304, Note_on_c, 0, 78, 0
2, 26304, Note_on_c, 0, 87, 81
2, 26423, Note_on_c, 0, 87, 0
2, 26424, Note_on_c, 0, 86, 84
2, 26436, Note_on_c, 0, 86, 0
2, 26436, Note_on_c, 0, 84, 84
2, 26448, Note_on_c, 0, 84, 0
2, 26448, Note_on_c, 0, 82, 84
2, 26460, Note_on_c, 0, 82, 0
2, 26460, Note_on_c, 0, 81, 84
2, 26472, Note_on_c, 0, 81, 0
2, 26472, Note_on_c, 0, 79, 84
2, 26484, Note_on_c, 0, 79, 0
2, 26484, Note_on_c, 0, 78, 84
2, 26496, Note_on_c, 0, 78, 0
2, 26496, Note_on_c, 0, 79, 84
2, 26629, Note_on_c, 0, 79, 0
2, 26640, Note_on_c, 0, 84, 75
2, 26646, Note_on_c, 0, 84, 0
2, 26646, Note_on_c, 0, 82, 75
2, 26663, Note_on_c, 0, 82, 0
2, 26664, Note_on_c, 0, 80, 75
2, 26687, Note_on_c, 0, 80, 0
2, 26688, Note_on_c, 0, 80, 75
2, 26821, Note_on_c, 0, 80, 0
2, 26832, Note_on_c, 0, 82, 75
2, 26838, Note_on_c, 0, 82, 0
2, 26838, Note_on_c, 0, 80, 75
2, 26855, Note_on_c, 0, 80, 0
2, 26856, Note_on_c, 0, 79, 75
2, 26879, Note_on_c, 0, 79, 0
2, 26880, Note_on_c, 0, 79, 75
2, 27013, Note_on_c, 0, 79, 0
2, 27024, Note_on_c, 0, 84, 75
2, 27030, Note_on_c, 0, 84, 0
2, 27030, Note_on_c, 0, 82, 75
2, 27047, Note_on_c, 0, 82, 0
2, 27048, Note_on_c, 0, 80, 75
2, 27071, Note_on_c, 0, 80, 0
2, 27072, Note_on_c, 0, 80, 75
2, 27205, Note_on_c, 0, 80, 0
2, 27216, Note_on_c, 0, 82, 75
2, 27222, Note_on_c, 0, 82, 0
2, 27222, Note_on_c, 0, 80, 75
2, 27239, Note_on_c, 0, 80, 0
2, 27240, Note_on_c, 0, 79, 75
2, 27263, Note_on_c, 0, 79, 0
2, 27264, Note_on_c, 0, 79, 75
2, 27397, Note_on_c, 0, 79, 0
2, 27408, Note_on_c, 0, 82, 75
2, 27414, Note_on_c, 0, 82, 0
2, 27414, Note_on_c, 0, 80, 75
2, 27431, Note_on_c, 0, 80, 0
2, 27432, Note_on_c, 0, 79, 75
2, 27455, Note_on_c, 0, 79, 0
2, 27456, Note_on_c, 0, 79, 75
2, 27589, Note_on_c, 0, 79, 0
2, 27600, Note_on_c, 0, 82, 75
2, 27606, Note_on_c, 0, 82, 0
2, 27606, Note_on_c, 0, 80, 75
2, 27623, Note_on_c, 0, 80, 0
2, 27624, Note_on_c, 0, 79, 75
2, 27647, Note_on_c, 0, 79, 0
2, 27648, Note_on_c, 0, 79, 75
2, 27744, Note_on_c, 0, 79, 0
2, 27744, Note_on_c, 0, 78, 75
2, 27767, Note_on_c, 0, 78, 0
2, 27768, Note_on_c, 0, 72, 75
2, 27791, Note_on_c, 0, 72, 0
2, 27792, Note_on_c, 0, 84, 75
2, 27815, Note_on_c, 0, 84, 0
2, 27816, Note_on_c, 0, 78, 75
2, 27839, Note_on_c, 0, 78, 0
2, 27840, Note_on_c, 0, 79, 75
2, 27885, Note_on_c, 0, 79, 0
2, 27984, Note_on_c, 0, 79, 75
2, 27996, Note_on_c, 0, 79, 0
2, 27996, Note_on_c, 0, 75, 75
2, 28008, Note_on_c, 0, 75, 0
2, 28008, Note_on_c, 0, 72, 75
2, 28020, Note_on_c, 0, 72, 0
2, 28020, Note_on_c, 0, 67, 75
2, 28026, Note_on_c, 0, 67, 0
2, 28026, Note_on_c, 0, 63, 75
2, 28032, Note_on_c, 0, 63, 0
2, 28080, Note_on_c, 0, 84, 75
2, 28095, Note_on_c, 0, 84, 0
2, 28096, Note_on_c, 0, 86, 75
2, 28111, Note_on_c, 0, 86, 0
2, 28112, Note_on_c, 0, 84, 75
2, 28127, Note_on_c, 0, 84, 0
2, 28128, Note_on_c, 0, 83, 75
2, 28148, Note_on_c, 0, 83, 0
2, 28176, Note_on_c, 0, 79, 75
2, 28188, Note_on_c, 0, 79, 0
2, 28188, Note_on_c, 0, 75, 75
2, 28200, Note_on_c, 0, 75, 0
2, 28200, Note_on_c, 0, 72, 75
2, 28212, Note_on_c, 0, 72, 0
2, 28212, Note_on_c, 0, 67, 75
2, 28218, Note_on_c, 0, 67, 0
2, 28218, Note_on_c, 0, 63, 75
2, 28224, Note_on_c, 0, 63, 0
2, 28272, Note_on_c, 0, 75, 75
2, 28279, Note_on_c, 0, 75, 0
2, 28279, Note_on_c, 0, 77, 75
2, 28286, Note_on_c, 0, 77, 0
2, 28286, Note_on_c, 0, 75, 75
2, 28293, Note_on_c, 0, 75, 0
2, 28293, Note_on_c, 0, 77, 75
2, 28300, Note_on_c, 0, 77, 0
2, 28300, Note_on_c, 0, 75, 75
2, 28307, Note_on_c, 0, 75, 0
2, 28307, Note_on_c, 0, 74, 75
2, 28314, Note_on_c, 0, 74, 0
2, 28314, Note_on_c, 0, 75, 75
2, 28320, Note_on_c, 0, 75, 0
2, 28320, Note_on_c, 0, 74, 75
2, 28365, Note_on_c, 0, 74, 0
2, 28368, Note_on_c, 0, 79, 69
2, 28380, Note_on_c, 0, 79, 0
2, 28380, Note_on_c, 0, 75, 69
2, 28392, Note_on_c, 0, 75, 0
2, 28392, Note_on_c, 0, 72, 69
2, 28404, Note_on_c, 0, 72, 0
2, 28404, Note_on_c, 0, 67, 69
2, 28410, Note_on_c, 0, 67, 0
2, 28410, Note_on_c, 0, 63, 69
2, 28416, Note_on_c, 0, 63, 0
2, 28464, Note_on_c, 0, 84, 69
2, 28479, Note_on_c, 0, 84, 0
2, 28480, Note_on_c, 0, 86, 69
2, 28495, Note_on_c, 0, 86, 0
2, 28496, Note_on_c, 0, 84, 69
2, 28511, Note_on_c, 0, 84, 0
2, 28512, Note_on_c, 0, 83, 69
2, 28532, Note_on_c, 0, 83, 0
2, 28560, Note_on_c, 0, 79, 69
2, 28572, Note_on_c, 0, 79, 0
2, 28572, Note_on_c, 0, 75, 69
2, 28584, Note_on_c, 0, 75, 0
2, 28584, Note_on_c, 0, 72, 69
2, 28596, Note_on_c, 0, 72, 0
2, 28596, Note_on_c, 0, 67, 69
2, 28602, Note_on_c, 0, 67, 0
2, 28602, Note_on_c, 0, 63, 69
2, 28608, Note_on_c, 0, 63, 0
2, 28656, Note_on_c, 0, 75, 69
2, 28663, Note_on_c, 0, 75, 0
2, 28663, Note_on_c, 0, 77, 69
2, 28670, Note_on_c, 0, 77, 0
2, 28670, Note_on_c, 0, 75, 69
2, 28677, Note_on_c, 0, 75, 0
2, 28677, Note_on_c, 0, 77, 69
2, 28684, Note_on_c, 0, 77, 0
2, 28684, Note_on_c, 0, 75, 69
2, 28691, Note_on_c, 0, 75, 0
2, 28691, Note_on_c, 0, 74, 69
2, 28698, Note_on_c, 0, 74, 0
2, 28698, Note_on_c, 0, 75, 69
2, 28704, Note_on_c, 0, 75, 0
2, 28704, Note_on_c, 0, 74, 69
2, 28749, Note_on_c, 0, 74, 0
2, 28752, Note_on_c, 0, 79, 84
2, 28764, Note_on_c, 0, 79, 0
2, 28764, Note_on_c, 0, 75, 84
2, 28776, Note_on_c, 0, 75, 0
2, 28776, Note_on_c, 0, 72, 84
2, 28788, Note_on_c, 0, 72, 0
2, 28788, Note_on_c, 0, 67, 84
2, 28800, Note_on_c, 0, 67, 0
2, 28812, Note_on_c, 0, 72, 85
2, 28824, Note_on_c, 0, 72, 0
2, 28824, Note_on_c, 0, 74, 87
2, 28836, Note_on_c, 0, 74, 0
2, 28836, Note_on_c, 0, 75, 89
2, 28848, Note_on_c, 0, 75, 0
2, 28848, Note_on_c, 0, 77, 91
2, 28860, Note_on_c, 0, 77, 0
2, 28860, Note_on_c, 0, 79, 93
2, 28872, Note_on_c, 0, 79, 0
2, 28872, Note_on_c, 0, 80, 95
2, 28884, Note_on_c, 0, 80, 0
2, 28884, Note_on_c, 0, 82, 96
2, 28896, Note_on_c, 0, 82, 0
2, 28896, Note_on_c, 0, 84, 98
2, 28916, Note_on_c, 0, 84, 0
2, 28944, Note_on_c, 0, 77, 106
2, 28956, Note_on_c, 0, 77, 0
2, 28956, Note_on_c, 0, 74, 100
2, 28968, Note_on_c, 0, 74, 0
2, 28968, Note_on_c, 0, 70, 95
2, 28980, Note_on_c, 0, 70, 0
2, 28980, Note_on_c, 0, 65, 89
2, 28992, Note_on_c, 0, 65, 0
2, 29004, Note_on_c, 0, 70, 84
2, 29016, Note_on_c, 0, 70, 0
2, 29016, Note_on_c, 0, 72, 86
2, 29028, Note_on_c, 0, 72, 0
2, 29028, Note_on_c, 0, 74, 88
2, 29040, Note_on_c, 0, 74, 0
2, 29040, Note_on_c, 0, 75, 91
2, 29052, Note_on_c, 0, 75, 0
2, 29052, Note_on_c, 0, 77, 93
2, 29064, Note_on_c, 0, 77, 0
2, 29064, Note_on_c, 0, 79, 96
2, 29076, Note_on_c, 0, 79, 0
2, 29076, Note_on_c, 0, 80, 98
2, 29088, Note_on_c, 0, 80, 0
2, 29088, Note_on_c, 0, 82, 101
2, 29111, Note_on_c, 0, 82, 0
2, 29520, Note_on_c, 0, 58, 75
2, 29535, Note_on_c, 0, 58, 0
2, 29536, Note_on_c, 0, 60, 75
2, 29551, Note_on_c, 0, 60, 0
2, 29552, Note_on_c, 0, 58, 75
2, 29567, Note_on_c, 0, 58, 0
2, 29568, Note_on_c, 0, 63, 75
2, 29588, Note_on_c, 0, 63, 0
2, 29616, Note_on_c, 0, 62, 75
2, 29636, Note_on_c, 0, 62, 0
2, 29664, Note_on_c, 0, 60, 75
2, 29684, Note_on_c, 0, 60, 0
2, 29712, Note_on_c, 0, 58, 75
2, 29732, Note_on_c, 0, 58, 0
2, 29760, Note_on_c, 0, 57, 75
2, 29856, Note_on_c, 0, 57, 0
2, 29856, Note_on_c, 0, 58, 75
2, 29876, Note_on_c, 0, 58, 0
2, 29904, Note_on_c, 0, 58, 75
2, 29919, Note_on_c, 0, 58, 0
2, 29920, Note_on_c, 0, 60, 75
2, 29935, Note_on_c, 0, 60, 0
2, 29936, Note_on_c, 0, 58, 75
2, 29951, Note_on_c, 0, 58, 0
2, 29952, Note_on_c, 0, 65, 75
2, 29972, Note_on_c, 0, 65, 0
2, 30000, Note_on_c, 0, 63, 75
2, 30020, Note_on_c, 0, 63, 0
2, 30048, Note_on_c, 0, 62, 75
2, 30068, Note_on_c, 0, 62, 0
2, 30096, Note_on_c, 0, 60, 75
2, 30116, Note_on_c, 0, 60, 0
2, 30144, Note_on_c, 0, 59, 75
2, 30240, Note_on_c, 0, 59, 0
2, 30240, Note_on_c, 0, 60, 75
2, 30260, Note_on_c, 0, 60, 0
2, 30288, Note_on_c, 0, 60, 75
2, 30303, Note_on_c, 0, 60, 0
2, 30304, Note_on_c, 0, 62, 75
2, 30319, Note_on_c, 0, 62, 0
2, 30320, Note_on_c, 0, 60, 75
2, 30335, Note_on_c, 0, 60, 0
2, 30336, Note_on_c, 0, 67, 75
2, 30356, Note_on_c, 0, 67, 0
2, 30384, Note_on_c, 0, 65, 75
2, 30404, Note_on_c, 0, 65, 0
2, 30432, Note_on_c, 0, 63, 75
2, 30452, Note_on_c, 0, 63, 0
2, 30480, Note_on_c, 0, 62, 75
2, 30500, Note_on_c, 0, 62, 0
2, 30528, Note_on_c, 0, 63, 75
2, 30573, Note_on_c, 0, 63, 0
2, 30576, Note_on_c, 0, 64, 75
2, 30621, Note_on_c, 0, 64, 0
2, 30624, Note_on_c, 0, 65, 76
2, 30669, Note_on_c, 0, 65, 0
2, 30672, Note_on_c, 0, 67, 77
2, 30687, Note_on_c, 0, 67, 0
2, 30688, Note_on_c, 0, 68, 77
2, 30703, Note_on_c, 0, 68, 0
2, 30704, Note_on_c, 0, 67, 77
2, 30719, Note_on_c, 0, 67, 0
2, 30720, Note_on_c, 0, 72, 78
2, 30740, Note_on_c, 0, 72, 0
2, 30768, Note_on_c, 0, 72, 78
2, 30783, Note_on_c, 0, 72, 0
2, 30784, Note_on_c, 0, 74, 79
2, 30799, Note_on_c, 0, 74, 0
2, 30800, Note_on_c, 0, 72, 79
2, 30815, Note_on_c, 0, 72, 0
2, 30816, Note_on_c, 0, 77, 79
2, 30836, Note_on_c, 0, 77, 0
2, 30864, Note_on_c, 0, 77, 80
2, 30879, Note_on_c, 0, 77, 0
2, 30880, Note_on_c, 0, 79, 80
2, 30895, Note_on_c, 0, 79, 0
2, 30896, Note_on_c, 0, 77, 80
2, 30911, Note_on_c, 0, 77, 0
2, 30912, Note_on_c, 0, 82, 80
2, 30932, Note_on_c, 0, 82, 0
2, 30960, Note_on_c, 0, 82, 81
2, 30975, Note_on_c, 0, 82, 0
2, 30976, Note_on_c, 0, 84, 81
2, 30991, Note_on_c, 0, 84, 0
2, 30992, Note_on_c, 0, 82, 82
2, 31007, Note_on_c, 0, 82, 0
2, 31008, Note_on_c, 0, 87, 82
2, 31028, Note_on_c, 0, 87, 0
2, 31056, Note_on_c, 0, 86, 84
2, 31076, Note_on_c, 0, 86, 0
2, 31104, Note_on_c, 0, 84, 84
2, 31124, Note_on_c, 0, 84, 0
2, 31152, Note_on_c, 0, 82, 82
2, 31172, Note_on_c, 0, 82, 0
2, 31200, Note_on_c, 0, 80, 81
2, 31220, Note_on_c, 0, 80, 0
2, 31248, Note_on_c, 0, 80, 80
2, 31268, Note_on_c, 0, 80, 0
2, 31296, Note_on_c, 0, 79, 79
2, 31621, Note_on_c, 0, 79, 0
2, 31632, Note_on_c, 0, 73, 75
2, 31677, Note_on_c, 0, 73, 0
2, 31680, Note_on_c, 0, 74, 75
2, 31769, Note_on_c, 0, 74, 0
2, 31824, Note_on_c, 0, 62, 75
2, 31839, Note_on_c, 0, 62, 0
2, 31840, Note_on_c, 0, 63, 75
2, 31855, Note_on_c, 0, 63, 0
2, 31856, Note_on_c, 0, 62, 75
2, 31871, Note_on_c, 0, 62, 0
2, 31872, Note_on_c, 0, 67, 75
2, 31892, Note_on_c, 0, 67, 0
2, 31920, Note_on_c, 0, 65, 75
2, 31940, Note_on_c, 0, 65, 0
2, 31968, Note_on_c, 0, 63, 75
2, 31988, Note_on_c, 0, 63, 0
2, 32016, Note_on_c, 0, 62, 75
2, 32036, Note_on_c, 0, 62, 0
2, 32064, Note_on_c, 0, 61, 75
2, 32160, Note_on_c, 0, 61, 0
2, 32160, Note_on_c, 0, 62, 75
2, 32180, Note_on_c, 0, 62, 0
2, 32208, Note_on_c, 0, 62, 75
2, 32220, Note_on_c, 0, 62, 0
2, 32220, Note_on_c, 0, 60, 75
2, 32232, Note_on_c, 0, 60, 0
2, 32232, Note_on_c, 0, 58, 75
2, 32244, Note_on_c, 0, 58, 0
2, 32244, Note_on_c, 0, 60, 75
2, 32256, Note_on_c, 0, 60, 0
2, 32256, Note_on_c, 0, 58, 75
2, 32304, Note_on_c, 0, 58, 0
2, 32304, Note_on_c, 0, 62, 75
2, 32349, Note_on_c, 0, 62, 0
2, 32400, Note_on_c, 0, 63, 75
2, 32420, Note_on_c, 0, 63, 0
2, 32448, Note_on_c, 0, 55, 75
2, 32544, Note_on_c, 0, 55, 0
2, 32544, Note_on_c, 0, 54, 75
2, 32589, Note_on_c, 0, 54, 0
2, 32592, Note_on_c, 0, 74, 75
2, 32607, Note_on_c, 0, 74, 0
2, 32608, Note_on_c, 0, 75, 75
2, 32623, Note_on_c, 0, 75, 0
2, 32624, Note_on_c, 0, 74, 75
2, 32639, Note_on_c, 0, 74, 0
2, 32640, Note_on_c, 0, 79, 75
2, 32660, Note_on_c, 0, 79, 0
2, 32688, Note_on_c, 0, 77, 75
2, 32708, Note_on_c, 0, 77, 0
2, 32736, Note_on_c, 0, 75, 75
2, 32756, Note_on_c, 0, 75, 0
2, 32784, Note_on_c, 0, 74, 75
2, 32804, Note_on_c, 0, 74, 0
2, 32832, Note_on_c, 0, 73, 75
2, 32921, Note_on_c, 0, 73, 0
2, 32928, Note_on_c, 0, 74, 75
2, 32973, Note_on_c, 0, 74, 0
2, 32976, Note_on_c, 0, 72, 75
2, 33021, Note_on_c, 0, 72, 0
2, 33024, Note_on_c, 0, 71, 75
2, 33113, Note_on_c, 0, 71, 0
2, 33120, Note_on_c, 0, 72, 75
2, 33165, Note_on_c, 0, 72, 0
2, 33168, Note_on_c, 0, 70, 75
2, 33213, Note_on_c, 0, 70, 0
2, 33216, Note_on_c, 0, 69, 75
2, 33305, Note_on_c, 0, 69, 0
2, 33312, Note_on_c, 0, 70, 75
2, 33453, Note_on_c, 0, 70, 0
2, 33456, Note_on_c, 0, 69, 75
2, 33545, Note_on_c, 0, 69, 0
2, 33552, Note_on_c, 0, 67, 75
2, 33641, Note_on_c, 0, 67, 0
2, 33648, Note_on_c, 0, 66, 75
2, 33693, Note_on_c, 0, 66, 0
2, 33696, Note_on_c, 0, 67, 75
2, 33837, Note_on_c, 0, 67, 0
2, 33840, Note_on_c, 0, 66, 75
2, 33885, Note_on_c, 0, 66, 0
2, 33936, Note_on_c, 0, 74, 84
2, 33948, Note_on_c, 0, 74, 0
2, 33948, Note_on_c, 0, 70, 84
2, 33960, Note_on_c, 0, 70, 0
2, 33960, Note_on_c, 0, 67, 84
2, 33972, Note_on_c, 0, 67, 0
2, 33972, Note_on_c, 0, 62, 84
2, 33978, Note_on_c, 0, 62, 0
2, 33978, Note_on_c, 0, 58, 84
2, 33984, Note_on_c, 0, 58, 0
2, 33984, Note_on_c, 0, 55, 84
2, 34004, Note_on_c, 0, 55, 0
2, 34032, Note_on_c, 0, 79, 84
2, 34047, Note_on_c, 0, 79, 0
2, 34048, Note_on_c, 0, 81, 84
2, 34063, Note_on_c, 0, 81, 0
2, 34064, Note_on_c, 0, 79, 84
2, 34079, Note_on_c, 0, 79, 0
2, 34080, Note_on_c, 0, 78, 84
2, 34100, Note_on_c, 0, 78, 0
2, 34128, Note_on_c, 0, 74, 84
2, 34140, Note_on_c, 0, 74, 0
2, 34140, Note_on_c, 0, 70, 84
2, 34152, Note_on_c, 0, 70, 0
2, 34152, Note_on_c, 0, 67, 84
2, 34164, Note_on_c, 0, 67, 0
2, 34164, Note_on_c, 0, 62, 84
2, 34170, Note_on_c, 0, 62, 0
2, 34170, Note_on_c, 0, 58, 84
2, 34176, Note_on_c, 0, 58, 0
2, 34176, Note_on_c, 0, 55, 84
2, 34196, Note_on_c, 0, 55, 0
2, 34224, Note_on_c, 0, 70, 84
2, 34231, Note_on_c, 0, 70, 0
2, 34231, Note_on_c, 0, 72, 84
2, 34238, Note_on_c, 0, 72, 0
2, 34238, Note_on_c, 0, 70, 84
2, 34245, Note_on_c, 0, 70, 0
2, 34245, Note_on_c, 0, 72, 84
2, 34252, Note_on_c, 0, 72, 0
2, 34252, Note_on_c, 0, 70, 84
2, 34259, Note_on_c, 0, 70, 0
2, 34259, Note_on_c, 0, 69, 84
2, 34266, Note_on_c, 0, 69, 0
2, 34266, Note_on_c, 0, 70, 84
2, 34272, Note_on_c, 0, 70, 0
2, 34272, Note_on_c, 0, 69, 84
2, 34292, Note_on_c, 0, 69, 0
2, 34320, Note_on_c, 0, 74, 69
2, 34332, Note_on_c, 0, 74, 0
2, 34332, Note_on_c, 0, 70, 69
2, 34344, Note_on_c, 0, 70, 0
2, 34344, Note_on_c, 0, 67, 69
2, 34356, Note_on_c, 0, 67, 0
2, 34356, Note_on_c, 0, 62, 69
2, 34362, Note_on_c, 0, 62, 0
2, 34362, Note_on_c, 0, 58, 69
2, 34368, Note_on_c, 0, 58, 0
2, 34368, Note_on_c, 0, 55, 69
2, 34388, Note_on_c, 0, 55, 0
2, 34416, Note_on_c, 0, 79, 69
2, 34431, Note_on_c, 0, 79, 0
2, 34432, Note_on_c, 0, 81, 69
2, 34447, Note_on_c, 0, 81, 0
2, 34448, Note_on_c, 0, 79, 69
2, 34463, Note_on_c, 0, 79, 0
2, 34464, Note_on_c, 0, 78, 69
2, 34484, Note_on_c, 0, 78, 0
2, 34512, Note_on_c, 0, 74, 69
2, 34524, Note_on_c, 0, 74, 0
2, 34524, Note_on_c, 0, 70, 69
2, 34536, Note_on_c, 0, 70, 0
2, 34536, Note_on_c, 0, 67, 69
2, 34548, Note_on_c, 0, 67, 0
2, 34548, Note_on_c, 0, 62, 69
2, 34554, Note_on_c, 0, 62, 0
2, 34554, Note_on_c, 0, 58, 69
2, 34560, Note_on_c, 0, 58, 0
2, 34560, Note_on_c, 0, 55, 69
2, 34580, Note_on_c, 0, 55, 0
2, 34608, Note_on_c, 0, 70, 69
2, 34615, Note_on_c, 0, 70, 0
2, 34615, Note_on_c, 0, 72, 69
2, 34622, Note_on_c, 0, 72, 0
2, 34622, Note_on_c, 0, 70, 69
2, 34629, Note_on_c, 0, 70, 0
2, 34629, Note_on_c, 0, 72, 69
2, 34636, Note_on_c, 0, 72, 0
2, 34636, Note_on_c, 0, 70, 69
2, 34643, Note_on_c, 0, 70, 0
2, 34643, Note_on_c, 0, 69, 69
2, 34650, Note_on_c, 0, 69, 0
2, 34650, Note_on_c, 0, 70, 69
2, 34656, Note_on_c, 0, 70, 0
2, 34656, Note_on_c, 0, 69, 69
2, 34701, Note_on_c, 0, 69, 0
2, 34704, Note_on_c, 0, 74, 75
2, 34716, Note_on_c, 0, 74, 0
2, 34716, Note_on_c, 0, 70, 75
2, 34728, Note_on_c, 0, 70, 0
2, 34728, Note_on_c, 0, 67, 75
2, 34740, Note_on_c, 0, 67, 0
2, 34740, Note_on_c, 0, 62, 75
2, 34752, Note_on_c, 0, 62, 0
2, 34752, Note_on_c, 0, 63, 75
2, 34775, Note_on_c, 0, 63, 0
2, 34776, Note_on_c, 0, 75, 75
2, 34799, Note_on_c, 0, 75, 0
2, 34824, Note_on_c, 0, 74, 76
2, 34834, Note_on_c, 0, 74, 0
2, 34848, Note_on_c, 0, 72, 76
2, 34871, Note_on_c, 0, 72, 0
2, 34872, Note_on_c, 0, 70, 76
2, 34895, Note_on_c, 0, 70, 0
2, 34896, Note_on_c, 0, 69, 77
2, 34919, Note_on_c, 0, 69, 0
2, 34920, Note_on_c, 0, 67, 77
2, 34943, Note_on_c, 0, 67, 0
2, 34944, Note_on_c, 0, 67, 77
2, 35040, Note_on_c, 0, 67, 0
2, 35040, Note_on_c, 0, 65, 78
2, 35085, Note_on_c, 0, 65, 0
2, 35088, Note_on_c, 0, 77, 79
2, 35100, Note_on_c, 0, 77, 0
2, 35100, Note_on_c, 0, 74, 79
2, 35112, Note_on_c, 0, 74, 0
2, 35112, Note_on_c, 0, 70, 79
2, 35124, Note_on_c, 0, 70, 0
2, 35124, Note_on_c, 0, 65, 79
2, 35136, Note_on_c, 0, 65, 0
2, 35136, Note_on_c, 0, 67, 79
2, 35159, Note_on_c, 0, 67, 0
2, 35160, Note_on_c, 0, 79, 80
2, 35183, Note_on_c, 0, 79, 0
2, 35208, Note_on_c, 0, 77, 80
2, 35231, Note_on_c, 0, 77, 0
2, 35232, Note_on_c, 0, 77, 81
2, 35238, Note_on_c, 0, 77, 0
2, 35238, Note_on_c, 0, 75, 81
2, 35256, Note_on_c, 0, 75, 0
2, 35256, Note_on_c, 0, 74, 81
2, 35279, Note_on_c, 0, 74, 0
2, 35280, Note_on_c, 0, 74, 81
2, 35286, Note_on_c, 0, 74, 0
2, 35286, Note_on_c, 0, 72, 81
2, 35304, Note_on_c, 0, 72, 0
2, 35304, Note_on_c, 0, 70, 81
2, 35327, Note_on_c, 0, 70, 0
2, 35328, Note_on_c, 0, 70, 82
2, 35424, Note_on_c, 0, 70, 0
2, 35424, Note_on_c, 0, 69, 83
2, 35469, Note_on_c, 0, 69, 0
2, 35472, Note_on_c, 0, 81, 83
2, 35484, Note_on_c, 0, 81, 0
2, 35484, Note_on_c, 0, 77, 84
2, 35496, Note_on_c, 0, 77, 0
2, 35496, Note_on_c, 0, 74, 84
2, 35508, Note_on_c, 0, 74, 0
2, 35508, Note_on_c, 0, 69, 84
2, 35520, Note_on_c, 0, 69, 0
2, 35520, Note_on_c, 0, 70, 84
2, 35543, Note_on_c, 0, 70, 0
2, 35544, Note_on_c, 0, 82, 84
2, 35567, Note_on_c, 0, 82, 0
2, 35592, Note_on_c, 0, 81, 84
2, 35615, Note_on_c, 0, 81, 0
2, 35616, Note_on_c, 0, 81, 84
2, 35622, Note_on_c, 0, 81, 0
2, 35622, Note_on_c, 0, 79, 84
2, 35640, Note_on_c, 0, 79, 0
2, 35640, Note_on_c, 0, 77, 84
2, 35663, Note_on_c, 0, 77, 0
2, 35664, Note_on_c, 0, 77, 84
2, 35670, Note_on_c, 0, 77, 0
2, 35670, Note_on_c, 0, 75, 84
2, 35688, Note_on_c, 0, 75, 0
2, 35688, Note_on_c, 0, 74, 84
2, 35711, Note_on_c, 0, 74, 0
2, 35712, Note_on_c, 0, 72, 84
2, 35735, Note_on_c, 0, 72, 0
2, 35736, Note_on_c, 0, 84, 84
2, 35759, Note_on_c, 0, 84, 0
2, 35784, Note_on_c, 0, 82, 84
2, 35807, Note_on_c, 0, 82, 0
2, 35808, Note_on_c, 0, 82, 84
2, 35814, Note_on_c, 0, 82, 0
2, 35814, Note_on_c, 0, 81, 84
2, 35832, Note_on_c, 0, 81, 0
2, 35832, Note_on_c, 0, 79, 84
2, 35855, Note_on_c, 0, 79, 0
2, 35856, Note_on_c, 0, 79, 84
2, 35862, Note_on_c, 0, 79, 0
2, 35862, Note_on_c, 0, 78, 84
2, 35880, Note_on_c, 0, 78, 0
2, 35880, Note_on_c, 0, 75, 84
2, 35903, Note_on_c, 0, 75, 0
2, 35904, Note_on_c, 0, 74, 84
2, 35927, Note_on_c, 0, 74, 0
2, 35928, Note_on_c, 0, 86, 84
2, 35951, Note_on_c, 0, 86, 0
2, 35976, Note_on_c, 0, 84, 84
2, 35999, Note_on_c, 0, 84, 0
2, 36000, Note_on_c, 0, 84, 84
2, 36023, Note_on_c, 0, 84, 0
2, 36024, Note_on_c, 0, 82, 84
2, 36047, Note_on_c, 0, 82, 0
2, 36048, Note_on_c, 0, 81, 84
2, 36071, Note_on_c, 0, 81, 0
2, 36072, Note_on_c, 0, 79, 84
2, 36095, Note_on_c, 0, 79, 0
2, 36096, Note_on_c, 0, 77, 84
2, 36119, Note_on_c, 0, 77, 0
2, 36120, Note_on_c, 0, 75, 84
2, 36143, Note_on_c, 0, 75, 0
2, 36144, Note_on_c, 0, 74, 84
2, 36167, Note_on_c, 0, 74, 0
2, 36168, Note_on_c, 0, 72, 84
2, 36191, Note_on_c, 0, 72, 0
2, 36192, Note_on_c, 0, 70, 84
2, 36237, Note_on_c, 0, 70, 0
2, 36240, Note_on_c, 0, 69, 84
2, 36247, Note_on_c, 0, 69, 0
2, 36247, Note_on_c, 0, 70, 84
2, 36254, Note_on_c, 0, 70, 0
2, 36254, Note_on_c, 0, 69, 84
2, 36261, Note_on_c, 0, 69, 0
2, 36261, Note_on_c, 0, 70, 84
2, 36268, Note_on_c, 0, 70, 0
2, 36268, Note_on_c, 0, 69, 84
2, 36275, Note_on_c, 0, 69, 0
2, 36275, Note_on_c, 0, 67, 84
2, 36282, Note_on_c, 0, 67, 0
2, 36282, Note_on_c, 0, 69, 84
2, 36288, Note_on_c, 0, 69, 0
2, 36288, Note_on_c, 0, 67, 84
2, 36377, Note_on_c, 0, 67, 0
2, 36432, Note_on_c, 0, 62, 75
2, 36477, Note_on_c, 0, 62, 0
2, 36480, Note_on_c, 0, 67, 75
2, 36528, Note_on_c, 0, 67, 0
2, 36528, Note_on_c, 0, 66, 75
2, 36548, Note_on_c, 0, 66, 0
2, 36576, Note_on_c, 0, 69, 75
2, 36624, Note_on_c, 0, 69, 0
2, 36624, Note_on_c, 0, 67, 75
2, 36644, Note_on_c, 0, 67, 0
2, 36672, Note_on_c, 0, 70, 75
2, 36739, Note_on_c, 0, 70, 0
2, 36744, Note_on_c, 0, 72, 75
2, 36756, Note_on_c, 0, 72, 0
2, 36756, Note_on_c, 0, 70, 75
2, 36768, Note_on_c, 0, 70, 0
2, 36768, Note_on_c, 0, 69, 75
2, 36813, Note_on_c, 0, 69, 0
2, 36816, Note_on_c, 0, 62, 75
2, 36836, Note_on_c, 0, 62, 0
2, 36864, Note_on_c, 0, 69, 75
2, 36912, Note_on_c, 0, 69, 0
2, 36912, Note_on_c, 0, 67, 75
2, 36932, Note_on_c, 0, 67, 0
2, 36960, Note_on_c, 0, 70, 75
2, 37008, Note_on_c, 0, 70, 0
2, 37008, Note_on_c, 0, 69, 75
2, 37028, Note_on_c, 0, 69, 0
2, 37056, Note_on_c, 0, 72, 75
2, 37123, Note_on_c, 0, 72, 0
2, 37128, Note_on_c, 0, 75, 75
2, 37136, Note_on_c, 0, 75, 0
2, 37136, Note_on_c, 0, 74, 75
2, 37144, Note_on_c, 0, 74, 0
2, 37144, Note_on_c, 0, 72, 75
2, 37152, Note_on_c, 0, 72, 0
2, 37152, Note_on_c, 0, 70, 75
2, 37197, Note_on_c, 0, 70, 0
2, 37200, Note_on_c, 0, 62, 75
2, 37220, Note_on_c, 0, 62, 0
2, 37248, Note_on_c, 0, 70, 75
2, 37271, Note_on_c, 0, 70, 0
2, 37272, Note_on_c, 0, 67, 75
2, 37295, Note_on_c, 0, 67, 0
2, 37296, Note_on_c, 0, 69, 75
2, 37319, Note_on_c, 0, 69, 0
2, 37320, Note_on_c, 0, 66, 75
2, 37343, Note_on_c, 0, 66, 0
2, 37344, Note_on_c, 0, 72, 75
2, 37367, Note_on_c, 0, 72, 0
2, 37368, Note_on_c, 0, 69, 75
2, 37391, Note_on_c, 0, 69, 0
2, 37392, Note_on_c, 0, 70, 75
2, 37415, Note_on_c, 0, 70, 0
2, 37416, Note_on_c, 0, 67, 75
2, 37439, Note_on_c, 0, 67, 0
2, 37440, Note_on_c, 0, 75, 75
2, 37463, Note_on_c, 0, 75, 0
2, 37464, Note_on_c, 0, 72, 75
2, 37487, Note_on_c, 0, 72, 0
2, 37488, Note_on_c, 0, 74, 75
2, 37511, Note_on_c, 0, 74, 0
2, 37512, Note_on_c, 0, 70, 75
2, 37535, Note_on_c, 0, 70, 0
2, 37536, Note_on_c, 0, 69, 75
2, 37560, Note_on_c, 0, 69, 0
2, 37560, Note_on_c, 0, 78, 75
2, 37583, Note_on_c, 0, 78, 0
2, 37584, Note_on_c, 0, 70, 76
2, 37608, Note_on_c, 0, 70, 0
2, 37608, Note_on_c, 0, 79, 77
2, 37631, Note_on_c, 0, 79, 0
2, 37632, Note_on_c, 0, 72, 77
2, 37656, Note_on_c, 0, 72, 0
2, 37656, Note_on_c, 0, 81, 78
2, 37679, Note_on_c, 0, 81, 0
2, 37680, Note_on_c, 0, 74, 79
2, 37704, Note_on_c, 0, 74, 0
2, 37704, Note_on_c, 0, 82, 79
2, 37727, Note_on_c, 0, 82, 0
2, 37728, Note_on_c, 0, 75, 80
2, 37752, Note_on_c, 0, 75, 0
2, 37752, Note_on_c, 0, 84, 81
2, 37775, Note_on_c, 0, 84, 0
2, 37776, Note_on_c, 0, 75, 81
2, 37800, Note_on_c, 0, 75, 0
2, 37800, Note_on_c, 0, 84, 82
2, 37823, Note_on_c, 0, 84, 0
2, 37824, Note_on_c, 0, 75, 83
2, 37848, Note_on_c, 0, 75, 0
2, 37848, Note_on_c, 0, 87, 84
2, 37871, Note_on_c, 0, 87, 0
2, 37872, Note_on_c, 0, 86, 84
2, 37895, Note_on_c, 0, 86, 0
2, 37896, Note_on_c, 0, 84, 84
2, 37919, Note_on_c, 0, 84, 0
2, 37920, Note_on_c, 0, 82, 84
2, 37943, Note_on_c, 0, 82, 0
2, 37944, Note_on_c, 0, 81, 84
2, 37967, Note_on_c, 0, 81, 0
2, 37968, Note_on_c, 0, 79, 84
2, 37991, Note_on_c, 0, 79, 0
2, 37992, Note_on_c, 0, 78, 84
2, 38015, Note_on_c, 0, 78, 0
2, 38016, Note_on_c, 0, 79, 84
2, 38039, Note_on_c, 0, 79, 0
2, 38040, Note_on_c, 0, 81, 84
2, 38063, Note_on_c, 0, 81, 0
2, 38064, Note_on_c, 0, 79, 84
2, 38087, Note_on_c, 0, 79, 0
2, 38088, Note_on_c, 0, 78, 84
2, 38111, Note_on_c, 0, 78, 0
2, 38112, Note_on_c, 0, 75, 84
2, 38135, Note_on_c, 0, 75, 0
2, 38136, Note_on_c, 0, 74, 84
2, 38159, Note_on_c, 0, 74, 0
2, 38160, Note_on_c, 0, 77, 84
2, 38183, Note_on_c, 0, 77, 0
2, 38184, Note_on_c, 0, 75, 84
2, 38207, Note_on_c, 0, 75, 0
2, 38208, Note_on_c, 0, 75, 84
2, 38232, Note_on_c, 0, 75, 0
2, 38232, Note_on_c, 0, 87, 84
2, 38255, Note_on_c, 0, 87, 0
2, 38256, Note_on_c, 0, 86, 84
2, 38279, Note_on_c, 0, 86, 0
2, 38280, Note_on_c, 0, 84, 84
2, 38303, Note_on_c, 0, 84, 0
2, 38304, Note_on_c, 0, 82, 84
2, 38327, Note_on_c, 0, 82, 0
2, 38328, Note_on_c, 0, 81, 84
2, 38351, Note_on_c, 0, 81, 0
2, 38352, Note_on_c, 0, 79, 84
2, 38375, Note_on_c, 0, 79, 0
2, 38376, Note_on_c, 0, 78, 84
2, 38399, Note_on_c, 0, 78, 0
2, 38400, Note_on_c, 0, 79, 84
2, 38423, Note_on_c, 0, 79, 0
2, 38424, Note_on_c, 0, 81, 84
2, 38447, Note_on_c, 0, 81, 0
2, 38448, Note_on_c, 0, 79, 84
2, 38471, Note_on_c, 0, 79, 0
2, 38472, Note_on_c, 0, 78, 84
2, 38495, Note_on_c, 0, 78, 0
2, 38496, Note_on_c, 0, 75, 84
2, 38519, Note_on_c, 0, 75, 0
2, 38520, Note_on_c, 0, 74, 84
2, 38543, Note_on_c, 0, 74, 0
2, 38544, Note_on_c, 0, 77, 84
2, 38567, Note_on_c, 0, 77, 0
2, 38568, Note_on_c, 0, 75, 84
2, 38591, Note_on_c, 0, 75, 0
2, 38592, Note_on_c, 0, 75, 84
2, 38769, Note_on_c, 0, 75, 0
2, 39096, Note_on_c, 0, 74, 75
2, 39108, Note_on_c, 0, 74, 0
2, 39108, Note_on_c, 0, 75, 75
2, 39120, Note_on_c, 0, 75, 0
2, 39120, Note_on_c, 0, 77, 75
2, 39132, Note_on_c, 0, 77, 0
2, 39132, Note_on_c, 0, 75, 75
2, 39144, Note_on_c, 0, 75, 0
2, 39144, Note_on_c, 0, 74, 75
2, 39156, Note_on_c, 0, 74, 0
2, 39156, Note_on_c, 0, 72, 75
2, 39168, Note_on_c, 0, 72, 0
2, 39168, Note_on_c, 0, 72, 75
2, 39180, Note_on_c, 0, 72, 0
2, 39180, Note_on_c, 0, 70, 75
2, 39192, Note_on_c, 0, 70, 0
2, 39192, Note_on_c, 0, 69, 75
2, 39204, Note_on_c, 0, 69, 0
2, 39204, Note_on_c, 0, 70, 75
2, 39216, Note_on_c, 0, 70, 0
2, 39216, Note_on_c, 0, 74, 75
2, 39228, Note_on_c, 0, 74, 0
2, 39228, Note_on_c, 0, 72, 75
2, 39240, Note_on_c, 0, 72, 0
2, 39240, Note_on_c, 0, 70, 75
2, 39252, Note_on_c, 0, 70, 0
2, 39252, Note_on_c, 0, 69, 75
2, 39264, Note_on_c, 0, 69, 0
2, 39264, Note_on_c, 0, 67, 75
2, 39309, Note_on_c, 0, 67, 0
2, 39312, Note_on_c, 0, 66, 75
2, 39319, Note_on_c, 0, 66, 0
2, 39319, Note_on_c, 0, 67, 75
2, 39326, Note_on_c, 0, 67, 0
2, 39326, Note_on_c, 0, 66, 75
2, 39333, Note_on_c, 0, 66, 0
2, 39333, Note_on_c, 0, 67, 75
2, 39340, Note_on_c, 0, 67, 0
2, 39340, Note_on_c, 0, 66, 75
2, 39347, Note_on_c, 0, 66, 0
2, 39347, Note_on_c, 0, 64, 75
2, 39354, Note_on_c, 0, 64, 0
2, 39354, Note_on_c, 0, 66, 75
2, 39360, Note_on_c, 0, 66, 0
2, 39360, Note_on_c, 0, 67, 75
2, 39383, Note_on_c, 0, 67, 0
2, 39384, Note_on_c, 0, 74, 75
2, 39407, Note_on_c, 0, 74, 0
2, 39432, Note_on_c, 0, 74, 75
2, 39455, Note_on_c, 0, 74, 0
2, 39480, Note_on_c, 0, 74, 75
2, 39503, Note_on_c, 0, 74, 0
2, 39528, Note_on_c, 0, 74, 75
2, 39551, Note_on_c, 0, 74, 0
2, 39576, Note_on_c, 0, 74, 75
2, 39599, Note_on_c, 0, 74, 0
2, 39624, Note_on_c, 0, 74, 77
2, 39647, Note_on_c, 0, 74, 0
2, 39672, Note_on_c, 0, 74, 78
2, 39695, Note_on_c, 0, 74, 0
2, 39720, Note_on_c, 0, 74, 79
2, 39743, Note_on_c, 0, 74, 0
2, 39768, Note_on_c, 0, 74, 81
2, 39791, Note_on_c, 0, 74, 0
2, 39816, Note_on_c, 0, 74, 82
2, 39839, Note_on_c, 0, 74, 0
2, 39864, Note_on_c, 0, 74, 84
2, 39887, Note_on_c, 0, 74, 0
2, 39888, Note_on_c, 0, 86, 84
2, 39900, Note_on_c, 0, 86, 0
2, 39900, Note_on_c, 0, 81, 81
2, 39912, Note_on_c, 0, 81, 0
2, 39912, Note_on_c, 0, 78, 79
2, 39924, Note_on_c, 0, 78, 0
2, 39924, Note_on_c, 0, 74, 77
2, 39936, Note_on_c, 0, 74, 0
2, 39936, Note_on_c, 0, 81, 75
2, 39948, Note_on_c, 0, 81, 0
2, 39948, Note_on_c, 0, 79, 75
2, 39960, Note_on_c, 0, 79, 0
2, 39960, Note_on_c, 0, 78, 75
2, 39972, Note_on_c, 0, 78, 0
2, 39972, Note_on_c, 0, 79, 75
2, 39984, Note_on_c, 0, 79, 0
2, 39984, Note_on_c, 0, 77, 75
2, 39996, Note_on_c, 0, 77, 0
2, 39996, Note_on_c, 0, 75, 75
2, 40008, Note_on_c, 0, 75, 0
2, 40008, Note_on_c, 0, 74, 75
2, 40020, Note_on_c, 0, 74, 0
2, 40020, Note_on_c, 0, 72, 75
2, 40032, Note_on_c, 0, 72, 0
2, 40032, Note_on_c, 0, 70, 75
2, 40077, Note_on_c, 0, 70, 0
2, 40080, Note_on_c, 0, 69, 75
2, 40087, Note_on_c, 0, 69, 0
2, 40087, Note_on_c, 0, 70, 75
2, 40094, Note_on_c, 0, 70, 0
2, 40094, Note_on_c, 0, 69, 75
2, 40101, Note_on_c, 0, 69, 0
2, 40101, Note_on_c, 0, 70, 75
2, 40108, Note_on_c, 0, 70, 0
2, 40108, Note_on_c, 0, 69, 75
2, 40115, Note_on_c, 0, 69, 0
2, 40115, Note_on_c, 0, 67, 75
2, 40122, Note_on_c, 0, 67, 0
2, 40122, Note_on_c, 0, 69, 75
2, 40128, Note_on_c, 0, 69, 0
2, 40128, Note_on_c, 0, 67, 75
2, 40151, Note_on_c, 0, 67, 0
2, 40152, Note_on_c, 0, 74, 75
2, 40175, Note_on_c, 0, 74, 0
2, 40200, Note_on_c, 0, 74, 75
2, 40223, Note_on_c, 0, 74, 0
2, 40248, Note_on_c, 0, 74, 75
2, 40271, Note_on_c, 0, 74, 0
2, 40296, Note_on_c, 0, 74, 75
2, 40319, Note_on_c, 0, 74, 0
2, 40344, Note_on_c, 0, 74, 75
2, 40367, Note_on_c, 0, 74, 0
2, 40392, Note_on_c, 0, 74, 77
2, 40415, Note_on_c, 0, 74, 0
2, 40440, Note_on_c, 0, 74, 78
2, 40463, Note_on_c, 0, 74, 0
2, 40488, Note_on_c, 0, 74, 79
2, 40511, Note_on_c, 0, 74, 0
2, 40536, Note_on_c, 0, 74, 81
2, 40559, Note_on_c, 0, 74, 0
2, 40584, Note_on_c, 0, 74, 82
2, 40607, Note_on_c, 0, 74, 0
2, 40632, Note_on_c, 0, 74, 84
2, 40655, Note_on_c, 0, 74, 0
2, 40656, Note_on_c, 0, 86, 81
2, 40668, Note_on_c, 0, 86, 0
2, 40668, Note_on_c, 0, 81, 79
2, 40680, Note_on_c, 0, 81, 0
2, 40680, Note_on_c, 0, 78, 78
2, 40692, Note_on_c, 0, 78, 0
2, 40692, Note_on_c, 0, 74, 76
2, 40704, Note_on_c, 0, 74, 0
2, 40704, Note_on_c, 0, 81, 75
2, 40716, Note_on_c, 0, 81, 0
2, 40716, Note_on_c, 0, 79, 75
2, 40728, Note_on_c, 0, 79, 0
2, 40728, Note_on_c, 0, 78, 75
2, 40740, Note_on_c, 0, 78, 0
2, 40740, Note_on_c, 0, 79, 75
2, 40752, Note_on_c, 0, 79, 0
2, 40752, Note_on_c, 0, 77, 75
2, 40764, Note_on_c, 0, 77, 0
2, 40764, Note_on_c, 0, 75, 75
2, 40776, Note_on_c, 0, 75, 0
2, 40776, Note_on_c, 0, 74, 75
2, 40788, Note_on_c, 0, 74, 0
2, 40788, Note_on_c, 0, 72, 75
2, 40800, Note_on_c, 0, 72, 0
2, 40800, Note_on_c, 0, 70, 75
2, 40845, Note_on_c, 0, 70, 0
2, 40848, Note_on_c, 0, 69, 75
2, 40855, Note_on_c, 0, 69, 0
2, 40855, Note_on_c, 0, 70, 75
2, 40862, Note_on_c, 0, 70, 0
2, 40862, Note_on_c, 0, 69, 75
2, 40869, Note_on_c, 0, 69, 0
2, 40869, Note_on_c, 0, 70, 75
2, 40876, Note_on_c, 0, 70, 0
2, 40876, Note_on_c, 0, 69, 75
2, 40883, Note_on_c, 0, 69, 0
2, 40883, Note_on_c, 0, 67, 75
2, 40890, Note_on_c, 0, 67, 0
2, 40890, Note_on_c, 0, 69, 75
2, 40896, Note_on_c, 0, 69, 0
2, 40896, Note_on_c, 0, 67, 75
2, 40985, Note_on_c, 0, 67, 0
2, 41040, Note_on_c, 0, 75, 75
2, 41040, Note_on_c, 0, 72, 75
2, 41133, Note_on_c, 0, 75, 0
2, 41133, Note_on_c, 0, 72, 0
2, 41136, Note_on_c, 0, 74, 75
2, 41136, Note_on_c, 0, 70, 75
2, 41181, Note_on_c, 0, 74, 0
2, 41181, Note_on_c, 0, 70, 0
2, 41232, Note_on_c, 0, 72, 75
2, 41232, Note_on_c, 0, 66, 75
2, 41328, Note_on_c, 0, 72, 0
2, 41328, Note_on_c, 0, 66, 0
2, 41328, Note_on_c, 0, 70, 75
2, 41328, Note_on_c, 0, 67, 75
2, 41373, Note_on_c, 0, 70, 0
2, 41373, Note_on_c, 0, 67, 0
2, 41424, Note_on_c, 0, 63, 75
2, 41517, Note_on_c, 0, 63, 0
2, 41520, Note_on_c, 0, 62, 71
2, 41609, Note_on_c, 0, 62, 0
2, 41616, Note_on_c, 0, 60, 67
2, 41705, Note_on_c, 0, 60, 0
2, 41712, Note_on_c, 0, 59, 63
2, 41757, Note_on_c, 0, 59, 0
2, 41808, Note_on_c, 0, 79, 75
2, 41823, Note_on_c, 0, 79, 0
2, 41824, Note_on_c, 0, 80, 75
2, 41839, Note_on_c, 0, 80, 0
2, 41840, Note_on_c, 0, 79, 75
2, 41855, Note_on_c, 0, 79, 0
2, 41856, Note_on_c, 0, 84, 75
2, 41876, Note_on_c, 0, 84, 0
2, 41904, Note_on_c, 0, 82, 75
2, 41924, Note_on_c, 0, 82, 0
2, 41952, Note_on_c, 0, 80, 75
2, 41972, Note_on_c, 0, 80, 0
2, 42000, Note_on_c, 0, 79, 75
2, 42020, Note_on_c, 0, 79, 0
2, 42048, Note_on_c, 0, 78, 75
2, 42144, Note_on_c, 0, 78, 0
2, 42144, Note_on_c, 0, 79, 75
2, 42164, Note_on_c, 0, 79, 0
2, 42192, Note_on_c, 0, 79, 75
2, 42204, Note_on_c, 0, 79, 0
2, 42204, Note_on_c, 0, 77, 75
2, 42216, Note_on_c, 0, 77, 0
2, 42216, Note_on_c, 0, 75, 75
2, 42228, Note_on_c, 0, 75, 0
2, 42228, Note_on_c, 0, 77, 75
2, 42240, Note_on_c, 0, 77, 0
2, 42240, Note_on_c, 0, 75, 75
2, 42288, Note_on_c, 0, 75, 0
2, 42288, Note_on_c, 0, 79, 75
2, 42333, Note_on_c, 0, 79, 0
2, 42384, Note_on_c, 0, 80, 75
2, 42404, Note_on_c, 0, 80, 0
2, 42432, Note_on_c, 0, 72, 75
2, 42528, Note_on_c, 0, 72, 0
2, 42528, Note_on_c, 0, 71, 75
2, 42548, Note_on_c, 0, 71, 0
2, 42576, Note_on_c, 0, 67, 75
2, 42591, Note_on_c, 0, 67, 0
2, 42592, Note_on_c, 0, 68, 75
2, 42607, Note_on_c, 0, 68, 0
2, 42608, Note_on_c, 0, 67, 75
2, 42623, Note_on_c, 0, 67, 0
2, 42624, Note_on_c, 0, 72, 75
2, 42672, Note_on_c, 0, 72, 0
2, 42672, Note_on_c, 0, 70, 75
2, 42692, Note_on_c, 0, 70, 0
2, 42720, Note_on_c, 0, 68, 75
2, 42768, Note_on_c, 0, 68, 0
2, 42768, Note_on_c, 0, 67, 75
2, 42788, Note_on_c, 0, 67, 0
2, 42816, Note_on_c, 0, 66, 75
2, 42993, Note_on_c, 0, 66, 0
2, 43008, Note_on_c, 0, 67, 75
2, 43097, Note_on_c, 0, 67, 0
2, 43344, Note_on_c, 0, 62, 75
2, 43359, Note_on_c, 0, 62, 0
2, 43360, Note_on_c, 0, 63, 75
2, 43375, Note_on_c, 0, 63, 0
2, 43376, Note_on_c, 0, 62, 75
2, 43391, Note_on_c, 0, 62, 0
2, 43392, Note_on_c, 0, 70, 75
2, 43440, Note_on_c, 0, 70, 0
2, 43440, Note_on_c, 0, 68, 75
2, 43460, Note_on_c, 0, 68, 0
2, 43488, Note_on_c, 0, 67, 75
2, 43536, Note_on_c, 0, 67, 0
2, 43536, Note_on_c, 0, 65, 75
2, 43556, Note_on_c, 0, 65, 0
2, 43584, Note_on_c, 0, 64, 75
2, 43761, Note_on_c, 0, 64, 0
2, 43776, Note_on_c, 0, 65, 75
2, 43865, Note_on_c, 0, 65, 0
2, 44160, Note_on_c, 0, 84, 75
2, 44293, Note_on_c, 0, 84, 0
2, 44304, Note_on_c, 0, 82, 75
2, 44316, Note_on_c, 0, 82, 0
2, 44316, Note_on_c, 0, 80, 75
2, 44328, Note_on_c, 0, 80, 0
2, 44328, Note_on_c, 0, 79, 75
2, 44340, Note_on_c, 0, 79, 0
2, 44340, Note_on_c, 0, 77, 75
2, 44352, Note_on_c, 0, 77, 0
2, 44352, Note_on_c, 0, 84, 75
2, 44485, Note_on_c, 0, 84, 0
2, 44496, Note_on_c, 0, 82, 75
2, 44508, Note_on_c, 0, 82, 0
2, 44508, Note_on_c, 0, 81, 75
2, 44520, Note_on_c, 0, 81, 0
2, 44520, Note_on_c, 0, 79, 75
2, 44532, Note_on_c, 0, 79, 0
2, 44532, Note_on_c, 0, 77, 75
2, 44544, Note_on_c, 0, 77, 0
2, 44544, Note_on_c, 0, 84, 76
2, 44677, Note_on_c, 0, 84, 0
2, 44688, Note_on_c, 0, 82, 80
2, 44700, Note_on_c, 0, 82, 0
2, 44700, Note_on_c, 0, 81, 80
2, 44712, Note_on_c, 0, 81, 0
2, 44712, Note_on_c, 0, 79, 80
2, 44724, Note_on_c, 0, 79, 0
2, 44724, Note_on_c, 0, 78, 81
2, 44736, Note_on_c, 0, 78, 0
2, 44736, Note_on_c, 0, 87, 81
2, 44855, Note_on_c, 0, 87, 0
2, 44856, Note_on_c, 0, 86, 84
2, 44868, Note_on_c, 0, 86, 0
2, 44868, Note_on_c, 0, 84, 84
2, 44880, Note_on_c, 0, 84, 0
2, 44880, Note_on_c, 0, 82, 84
2, 44892, Note_on_c, 0, 82, 0
2, 44892, Note_on_c, 0, 81, 84
2, 44904, Note_on_c, 0, 81, 0
2, 44904, Note_on_c, 0, 79, 84
2, 44916, Note_on_c, 0, 79, 0
2, 44916, Note_on_c, 0, 78, 84
2, 44928, Note_on_c, 0, 78, 0
2, 44928, Note_on_c, 0, 79, 84
2, 45061, Note_on_c, 0, 79, 0
2, 45072, Note_on_c, 0, 84, 75
2, 45078, Note_on_c, 0, 84, 0
2, 45078, Note_on_c, 0, 82, 75
2, 45095, Note_on_c, 0, 82, 0
2, 45096, Note_on_c, 0, 80, 75
2, 45119, Note_on_c, 0, 80, 0
2, 45120, Note_on_c, 0, 80, 75
2, 45253, Note_on_c, 0, 80, 0
2, 45264, Note_on_c, 0, 82, 75
2, 45270, Note_on_c, 0, 82, 0
2, 45270, Note_on_c, 0, 80, 75
2, 45287, Note_on_c, 0, 80, 0
2, 45288, Note_on_c, 0, 79, 75
2, 45311, Note_on_c, 0, 79, 0
2, 45312, Note_on_c, 0, 79, 75
2, 45445, Note_on_c, 0, 79, 0
2, 45456, Note_on_c, 0, 84, 75
2, 45462, Note_on_c, 0, 84, 0
2, 45462, Note_on_c, 0, 82, 75
2, 45479, Note_on_c, 0, 82, 0
2, 45480, Note_on_c, 0, 80, 75
2, 45503, Note_on_c, 0, 80, 0
2, 45504, Note_on_c, 0, 80, 75
2, 45637, Note_on_c, 0, 80, 0
2, 45648, Note_on_c, 0, 82, 75
2, 45654, Note_on_c, 0, 82, 0
2, 45654, Note_on_c, 0, 80, 75
2, 45671, Note_on_c, 0, 80, 0
2, 45672, Note_on_c, 0, 79, 75
2, 45695, Note_on_c, 0, 79, 0
2, 45696, Note_on_c, 0, 79, 75
2, 45829, Note_on_c, 0, 79, 0
2, 45840, Note_on_c, 0, 82, 75
2, 45846, Note_on_c, 0, 82, 0
2, 45846, Note_on_c, 0, 80, 75
2, 45863, Note_on_c, 0, 80, 0
2, 45864, Note_on_c, 0, 79, 75
2, 45887, Note_on_c, 0, 79, 0
2, 45888, Note_on_c, 0, 79, 75
2, 46021, Note_on_c, 0, 79, 0
2, 46032, Note_on_c, 0, 82, 75
2, 46038, Note_on_c, 0, 82, 0
2, 46038, Note_on_c, 0, 80, 75
2, 46055, Note_on_c, 0, 80, 0
2, 46056, Note_on_c, 0, 79, 75
2, 46079, Note_on_c, 0, 79, 0
2, 46080, Note_on_c, 0, 79, 75
2, 46176, Note_on_c, 0, 79, 0
2, 46176, Note_on_c, 0, 78, 75
2, 46199, Note_on_c, 0, 78, 0
2, 46200, Note_on_c, 0, 72, 75
2, 46223, Note_on_c, 0, 72, 0
2, 46224, Note_on_c, 0, 84, 75
2, 46247, Note_on_c, 0, 84, 0
2, 46248, Note_on_c, 0, 78, 75
2, 46271, Note_on_c, 0, 78, 0
2, 46272, Note_on_c, 0, 79, 75
2, 46317, Note_on_c, 0, 79, 0
2, 46416, Note_on_c, 0, 79, 75
2, 46428, Note_on_c, 0, 79, 0
2, 46428, Note_on_c, 0, 75, 75
2, 46440, Note_on_c, 0, 75, 0
2, 46440, Note_on_c, 0, 72, 75
2, 46452, Note_on_c, 0, 72, 0
2, 46452, Note_on_c, 0, 67, 75
2, 46458, Note_on_c, 0, 67, 0
2, 46458, Note_on_c, 0, 63, 75
2, 46464, Note_on_c, 0, 63, 0
2, 46512, Note_on_c, 0, 84, 75
2, 46527, Note_on_c, 0, 84, 0
2, 46528, Note_on_c, 0, 86, 75
2, 46543, Note_on_c, 0, 86, 0
2, 46544, Note_on_c, 0, 84, 75
2, 46559, Note_on_c, 0, 84, 0
2, 46560, Note_on_c, 0, 83, 75
2, 46580, Note_on_c, 0, 83, 0
2, 46608, Note_on_c, 0, 79, 75
2, 46620, Note_on_c, 0, 79, 0
2, 46620, Note_on_c, 0, 75, 75
2, 46632, Note_on_c, 0, 75, 0
2, 46632, Note_on_c, 0, 72, 75
2, 46644, Note_on_c, 0, 72, 0
2, 46644, Note_on_c, 0, 67, 75
2, 46650, Note_on_c, 0, 67, 0
2, 46650, Note_on_c, 0, 63, 75
2, 46656, Note_on_c, 0, 63, 0
2, 46704, Note_on_c, 0, 75, 75
2, 46711, Note_on_c, 0, 75, 0
2, 46711, Note_on_c, 0, 77, 75
2, 46718, Note_on_c, 0, 77, 0
2, 46718, Note_on_c, 0, 75, 75
2, 46725, Note_on_c, 0, 75, 0
2, 46725, Note_on_c, 0, 77, 75
2, 46732, Note_on_c, 0, 77, 0
2, 46732, Note_on_c, 0, 75, 75
2, 46739, Note_on_c, 0, 75, 0
2, 46739, Note_on_c, 0, 74, 75
2, 46746, Note_on_c, 0, 74, 0
2, 46746, Note_on_c, 0, 75, 75
2, 46752, Note_on_c, 0, 75, 0
2, 46752, Note_on_c, 0, 74, 75
2, 46797, Note_on_c, 0, 74, 0
2, 46800, Note_on_c, 0, 79, 69
2, 46812, Note_on_c, 0, 79, 0
2, 46812, Note_on_c, 0, 75, 69
2, 46824, Note_on_c, 0, 75, 0
2, 46824, Note_on_c, 0, 72, 69
2, 46836, Note_on_c, 0, 72, 0
2, 46836, Note_on_c, 0, 67, 69
2, 46842, Note_on_c, 0, 67, 0
2, 46842, Note_on_c, 0, 63, 69
2, 46848, Note_on_c, 0, 63, 0
2, 46896, Note_on_c, 0, 84, 69
2, 46911, Note_on_c, 0, 84, 0
2, 46912, Note_on_c, 0, 86, 69
2, 46927, Note_on_c, 0, 86, 0
2, 46928, Note_on_c, 0, 84, 69
2, 46943, Note_on_c, 0, 84, 0
2, 46944, Note_on_c, 0, 83, 69
2, 46964, Note_on_c, 0, 83, 0
2, 46992, Note_on_c, 0, 79, 69
2, 47004, Note_on_c, 0, 79, 0
2, 47004, Note_on_c, 0, 75, 69
2, 47016, Note_on_c, 0, 75, 0
2, 47016, Note_on_c, 0, 72, 69
2, 47028, Note_on_c, 0, 72, 0
2, 47028, Note_on_c, 0, 67, 69
2, 47034, Note_on_c, 0, 67, 0
2, 47034, Note_on_c, 0, 63, 69
2, 47040, Note_on_c, 0, 63, 0
2, 47088, Note_on_c, 0, 75, 69
2, 47095, Note_on_c, 0, 75, 0
2, 47095, Note_on_c, 0, 77, 69
2, 47102, Note_on_c, 0, 77, 0
2, 47102, Note_on_c, 0, 75, 69
2, 47109, Note_on_c, 0, 75, 0
2, 47109, Note_on_c, 0, 77, 69
2, 47116, Note_on_c, 0, 77, 0
2, 47116, Note_on_c, 0, 75, 69
2, 47123, Note_on_c, 0, 75, 0
2, 47123, Note_on_c, 0, 74, 69
2, 47130, Note_on_c, 0, 74, 0
2, 47130, Note_on_c, 0, 75, 69
2, 47136, Note_on_c, 0, 75, 0
2, 47136, Note_on_c, 0, 74, 69
2, 47181, Note_on_c, 0, 74, 0
2, 47184, Note_on_c, 0, 79, 84
2, 47196, Note_on_c, 0, 79, 0
2, 47196, Note_on_c, 0, 75, 84
2, 47208, Note_on_c, 0, 75, 0
2, 47208, Note_on_c, 0, 72, 84
2, 47220, Note_on_c, 0, 72, 0
2, 47220, Note_on_c, 0, 67, 84
2, 47232, Note_on_c, 0, 67, 0
2, 47244, Note_on_c, 0, 72, 85
2, 47256, Note_on_c, 0, 72, 0
2, 47256, Note_on_c, 0, 74, 87
2, 47268, Note_on_c, 0, 74, 0
2, 47268, Note_on_c, 0, 75, 89
2, 47280, Note_on_c, 0, 75, 0
2, 47280, Note_on_c, 0, 77, 91
2, 47292, Note_on_c, 0, 77, 0
2, 47292, Note_on_c, 0, 79, 93
2, 47304, Note_on_c, 0, 79, 0
2, 47304, Note_on_c, 0, 80, 95
2, 47316, Note_on_c, 0, 80, 0
2, 47316, Note_on_c, 0, 82, 96
2, 47328, Note_on_c, 0, 82, 0
2, 47328, Note_on_c, 0, 84, 98
2, 47348, Note_on_c, 0, 84, 0
2, 47376, Note_on_c, 0, 77, 106
2, 47388, Note_on_c, 0, 77, 0
2, 47388, Note_on_c, 0, 74, 100
2, 47400, Note_on_c, 0, 74, 0
2, 47400, Note_on_c, 0, 70, 95
2, 47412, Note_on_c, 0, 70, 0
2, 47412, Note_on_c, 0, 65, 89
2, 47424, Note_on_c, 0, 65, 0
2, 47436, Note_on_c, 0, 70, 84
2, 47448, Note_on_c, 0, 70, 0
2, 47448, Note_on_c, 0, 72, 86
2, 47460, Note_on_c, 0, 72, 0
2, 47460, Note_on_c, 0, 74, 88
2, 47472, Note_on_c, 0, 74, 0
2, 47472, Note_on_c, 0, 75, 91
2, 47484, Note_on_c, 0, 75, 0
2, 47484, Note_on_c, 0, 77, 93
2, 47496, Note_on_c, 0, 77, 0
2, 47496, Note_on_c, 0, 79, 96
2, 47508, Note_on_c, 0, 79, 0
2, 47508, Note_on_c, 0, 80, 98
2, 47520, Note_on_c, 0, 80, 0
2, 47520, Note_on_c, 0, 82, 101
2, 47543, Note_on_c, 0, 82, 0
2, 47952, Note_on_c, 0, 58, 75
2, 47967, Note_on_c, 0, 58, 0
2, 47968, Note_on_c, 0, 60, 75
2, 47983, Note_on_c, 0, 60, 0
2, 47984, Note_on_c, 0, 58, 75
2, 47999, Note_on_c, 0, 58, 0
2, 48000, Note_on_c, 0, 63, 75
2, 48020, Note_on_c, 0, 63, 0
2, 48048, Note_on_c, 0, 62, 75
2, 48068, Note_on_c, 0, 62, 0
2, 48096, Note_on_c, 0, 60, 75
2, 48116, Note_on_c, 0, 60, 0
2, 48144, Note_on_c, 0, 58, 75
2, 48164, Note_on_c, 0, 58, 0
2, 48192, Note_on_c, 0, 57, 75
2, 48288, Note_on_c, 0, 57, 0
2, 48288, Note_on_c, 0, 58, 75
2, 48308, Note_on_c, 0, 58, 0
2, 48336, Note_on_c, 0, 58, 75
2, 48351, Note_on_c, 0, 58, 0
2, 48352, Note_on_c, 0, 60, 75
2, 48367, Note_on_c, 0, 60, 0
2, 48368, Note_on_c, 0, 58, 75
2, 48383, Note_on_c, 0, 58, 0
2, 48384, Note_on_c, 0, 65, 75
2, 48404, Note_on_c, 0, 65, 0
2, 48432, Note_on_c, 0, 63, 75
2, 48452, Note_on_c, 0, 63, 0
2, 48480, Note_on_c, 0, 62, 75
2, 48500, Note_on_c, 0, 62, 0
2, 48528, Note_on_c, 0, 60, 75
2, 48548, Note_on_c, 0, 60, 0
2, 48576, Note_on_c, 0, 59, 75
2, 48672, Note_on_c, 0, 59, 0
2, 48672, Note_on_c, 0, 60, 75
2, 48692, Note_on_c, 0, 60, 0
2, 48720, Note_on_c, 0, 60, 75
2, 48735, Note_on_c, 0, 60, 0
2, 48736, Note_on_c, 0, 62, 75
2, 48751, Note_on_c, 0, 62, 0
2, 48752, Note_on_c, 0, 60, 75
2, 48767, Note_on_c, 0, 60, 0
2, 48768, Note_on_c, 0, 67, 75
2, 48788, Note_on_c, 0, 67, 0
2, 48816, Note_on_c, 0, 65, 75
2, 48836, Note_on_c, 0, 65, 0
2, 48864, Note_on_c, 0, 63, 75
2, 48884, Note_on_c, 0, 63, 0
2, 48912, Note_on_c, 0, 62, 75
2, 48932, Note_on_c, 0, 62, 0
2, 48960, Note_on_c, 0, 63, 75
2, 49005, Note_on_c, 0, 63, 0
2, 49008, Note_on_c, 0, 64, 75
2, 49053, Note_on_c, 0, 64, 0
2, 49056, Note_on_c, 0, 65, 76
2, 49101, Note_on_c, 0, 65, 0
2, 49104, Note_on_c, 0, 67, 77
2, 49119, Note_on_c, 0, 67, 0
2, 49120, Note_on_c, 0, 68, 77
2, 49135, Note_on_c, 0, 68, 0
2, 49136, Note_on_c, 0, 67, 77
2, 49151, Note_on_c, 0, 67, 0
2, 49152, Note_on_c, 0, 72, 78
2, 49172, Note_on_c, 0, 72, 0
2, 49200, Note_on_c, 0, 72, 78
2, 49215, Note_on_c, 0, 72, 0
2, 49216, Note_on_c, 0, 74, 79
2, 49231, Note_on_c, 0, 74, 0
2, 49232, Note_on_c, 0, 72, 79
2, 49247, Note_on_c, 0, 72, 0
2, 49248, Note_on_c, 0, 77, 79
2, 49268, Note_on_c, 0, 77, 0
2, 49296, Note_on_c, 0, 77, 80
2, 49311, Note_on_c, 0, 77, 0
2, 49312, Note_on_c, 0, 79, 80
2, 49327, Note_on_c, 0, 79, 0
2, 49328, Note_on_c, 0, 77, 80
2, 49343, Note_on_c, 0, 77, 0
2, 49344, Note_on_c, 0, 82, 80
2, 49364, Note_on_c, 0, 82, 0
2, 49392, Note_on_c, 0, 82, 81
2, 49407, Note_on_c, 0, 82, 0
2, 49408, Note_on_c, 0, 84, 81
2, 49423, Note_on_c, 0, 84, 0
2, 49424, Note_on_c, 0, 82, 82
2, 49439, Note_on_c, 0, 82, 0
2, 49440, Note_on_c, 0, 87, 82
2, 49460, Note_on_c, 0, 87, 0
2, 49488, Note_on_c, 0, 86, 84
2, 49508, Note_on_c, 0, 86, 0
2, 49536, Note_on_c, 0, 84, 84
2, 49556, Note_on_c, 0, 84, 0
2, 49584, Note_on_c, 0, 82, 82
2, 49604, Note_on_c, 0, 82, 0
2, 49632, Note_on_c, 0, 80, 81
2, 49652, Note_on_c, 0, 80, 0
2, 49680, Note_on_c, 0, 80, 80
2, 49700, Note_on_c, 0, 80, 0
2, 49728, Note_on_c, 0, 79, 79
2, 50053, Note_on_c, 0, 79, 0
2, 50064, Note_on_c, 0, 73, 75
2, 50109, Note_on_c, 0, 73, 0
2, 50112, Note_on_c, 0, 74, 75
2, 50201, Note_on_c, 0, 74, 0
2, 50256, Note_on_c, 0, 62, 75
2, 50271, Note_on_c, 0, 62, 0
2, 50272, Note_on_c, 0, 63, 75
2, 50287, Note_on_c, 0, 63, 0
2, 50288, Note_on_c, 0, 62, 75
2, 50303, Note_on_c, 0, 62, 0
2, 50304, Note_on_c, 0, 67, 75
2, 50324, Note_on_c, 0, 67, 0
2, 50352, Note_on_c, 0, 65, 75
2, 50372, Note_on_c, 0, 65, 0
2, 50400, Note_on_c, 0, 63, 75
2, 50420, Note_on_c, 0, 63, 0
2, 50448, Note_on_c, 0, 62, 75
2, 50468, Note_on_c, 0, 62, 0
2, 50496, Note_on_c, 0, 61, 75
2, 50592, Note_on_c, 0, 61, 0
2, 50592, Note_on_c, 0, 62, 75
2, 50612, Note_on_c, 0, 62, 0
2, 50640, Note_on_c, 0, 62, 75
2, 50652, Note_on_c, 0, 62, 0
2, 50652, Note_on_c, 0, 60, 75
2, 50664, Note_on_c, 0, 60, 0
2, 50664, Note_on_c, 0, 58, 75
2, 50676, Note_on_c, 0, 58, 0
2, 50676, Note_on_c, 0, 60, 75
2, 50688, Note_on_c, 0, 60, 0
2, 50688, Note_on_c, 0, 58, 75
2, 50736, Note_on_c, 0, 58, 0
2, 50736, Note_on_c, 0, 62, 75
2, 50781, Note_on_c, 0, 62, 0
2, 50832, Note_on_c, 0, 63, 75
2, 50852, Note_on_c, 0, 63, 0
2, 50880, Note_on_c, 0, 55, 75
2, 50976, Note_on_c, 0, 55, 0
2, 50976, Note_on_c, 0, 54, 75
2, 51021, Note_on_c, 0, 54, 0
2, 51024, Note_on_c, 0, 74, 75
2, 51039, Note_on_c, 0, 74, 0
2, 51040, Note_on_c, 0, 75, 75
2, 51055, Note_on_c, 0, 75, 0
2, 51056, Note_on_c, 0, 74, 75
2, 51071, Note_on_c, 0, 74, 0
2, 51072, Note_on_c, 0, 79, 75
2, 51092, Note_on_c, 0, 79, 0
2, 51120, Note_on_c, 0, 77, 75
2, 51140, Note_on_c, 0, 77, 0
2, 51168, Note_on_c, 0, 75, 75
2, 51188, Note_on_c, 0, 75, 0
2, 51216, Note_on_c, 0, 74, 75
2, 51236, Note_on_c, 0, 74, 0
2, 51264, Note_on_c, 0, 73, 75
2, 51353, Note_on_c, 0, 73, 0
2, 51360, Note_on_c, 0, 74, 75
2, 51405, Note_on_c, 0, 74, 0
2, 51408, Note_on_c, 0, 72, 75
2, 51453, Note_on_c, 0, 72, 0
2, 51456, Note_on_c, 0, 71, 75
2, 51545, Note_on_c, 0, 71, 0
2, 51552, Note_on_c, 0, 72, 75
2, 51597, Note_on_c, 0, 72, 0
2, 51600, Note_on_c, 0, 70, 75
2, 51645, Note_on_c, 0, 70, 0
2, 51648, Note_on_c, 0, 69, 75
2, 51737, Note_on_c, 0, 69, 0
2, 51744, Note_on_c, 0, 70, 75
2, 51885, Note_on_c, 0, 70, 0
2, 51888, Note_on_c, 0, 69, 75
2, 51977, Note_on_c, 0, 69, 0
2, 51984, Note_on_c, 0, 67, 75
2, 52073, Note_on_c, 0, 67, 0
2, 52080, Note_on_c, 0, 66, 75
2, 52125, Note_on_c, 0, 66, 0
2, 52128, Note_on_c, 0, 67, 75
2, 52269, Note_on_c, 0, 67, 0
2, 52272, Note_on_c, 0, 66, 75
2, 52317, Note_on_c, 0, 66, 0
2, 52368, Note_on_c, 0, 74, 84
2, 52380, Note_on_c, 0, 74, 0
2, 52380, Note_on_c, 0, 70, 84
2, 52392, Note_on_c, 0, 70, 0
2, 52392, Note_on_c, 0, 67, 84
2, 52404, Note_on_c, 0, 67, 0
2, 52404, Note_on_c, 0, 62, 84
2, 52410, Note_on_c, 0, 62, 0
2, 52410, Note_on_c, 0, 58, 84
2, 52416, Note_on_c, 0, 58, 0
2, 52416, Note_on_c, 0, 55, 84
2, 52436, Note_on_c, 0, 55, 0
2, 52464, Note_on_c, 0, 79, 84
2, 52479, Note_on_c, 0, 79, 0
2, 52480, Note_on_c, 0, 81, 84
2, 52495, Note_on_c, 0, 81, 0
2, 52496, Note_on_c, 0, 79, 84
2, 52511, Note_on_c, 0, 79, 0
2, 52512, Note_on_c, 0, 78, 84
2, 52532, Note_on_c, 0, 78, 0
2, 52560, Note_on_c, 0, 74, 84
2, 52572, Note_on_c, 0, 74, 0
2, 52572, Note_on_c, 0, 70, 84
2, 52584, Note_on_c, 0, 70, 0
2, 52584, Note_on_c, 0, 67, 84
2, 52596, Note_on_c, 0, 67, 0
2, 52596, Note_on_c, 0, 62, 84
2, 52602, Note_on_c, 0, 62, 0
2, 52602, Note_on_c, 0, 58, 84
2, 52608, Note_on_c, 0, 58, 0
2, 52608, Note_on_c, 0, 55, 84
2, 52628, Note_on_c, 0, 55, 0
2, 52656, Note_on_c, 0, 70, 84
2, 52663, Note_on_c, 0, 70, 0
2, 52663, Note_on_c, 0, 72, 84
2, 52670, Note_on_c, 0, 72, 0
2, 52670, Note_on_c, 0, 70, 84
2, 52677, Note_on_c, 0, 70, 0
2, 52677, Note_on_c, 0, 72, 84
2, 52684, Note_on_c, 0, 72, 0
2, 52684, Note_on_c, 0, 70, 84
2, 52691, Note_on_c, 0, 70, 0
2, 52691, Note_on_c, 0, 69, 84
2, 52698, Note_on_c, 0, 69, 0
2, 52698, Note_on_c, 0, 70, 84
2, 52704, Note_on_c, 0, 70, 0
2, 52704, Note_on_c, 0, 69, 84
2, 52724, Note_on_c, 0, 69, 0
2, 52752, Note_on_c, 0, 74, 69
2, 52764, Note_on_c, 0, 74, 0
2, 52764, Note_on_c, 0, 70, 69
2, 52776, Note_on_c, 0, 70, 0
2, 52776, Note_on_c, 0, 67, 69
2, 52788, Note_on_c, 0, 67, 0
2, 52788, Note_on_c, 0, 62, 69
2, 52794, Note_on_c, 0, 62, 0
2, 52794, Note_on_c, 0, 58, 69
2, 52800, Note_on_c, 0, 58, 0
2, 52800, Note_on_c, 0, 55, 69
2, 52820, Note_on_c, 0, 55, 0
2, 52848, Note_on_c, 0, 79, 69
2, 52863, Note_on_c, 0, 79, 0
2, 52864, Note_on_c, 0, 81, 69
2, 52879, Note_on_c, 0, 81, 0
2, 52880, Note_on_c, 0, 79, 69
2, 52895, Note_on_c, 0, 79, 0
2, 52896, Note_on_c, 0, 78, 69
2, 52916, Note_on_c, 0, 78, 0
2, 52944, Note_on_c, 0, 74, 69
2, 52956, Note_on_c, 0, 74, 0
2, 52956, Note_on_c, 0, 70, 69
2, 52968, Note_on_c, 0, 70, 0
2, 52968, Note_on_c, 0, 67, 69
2, 52980, Note_on_c, 0, 67, 0
2, 52980, Note_on_c, 0, 62, 69
2, 52986, Note_on_c, 0, 62, 0
2, 52986, Note_on_c, 0, 58, 69
2, 52992, Note_on_c, 0, 58, 0
2, 52992, Note_on_c, 0, 55, 69
2, 53012, Note_on_c, 0, 55, 0
2, 53040, Note_on_c, 0, 70, 69
2, 53047, Note_on_c, 0, 70, 0
2, 53047, Note_on_c, 0, 72, 69
2, 53054, Note_on_c, 0, 72, 0
2, 53054, Note_on_c, 0, 70, 69
2, 53061, Note_on_c, 0, 70, 0
2, 53061, Note_on_c, 0, 72, 69
2, 53068, Note_on_c, 0, 72, 0
2, 53068, Note_on_c, 0, 70, 69
2, 53075, Note_on_c, 0, 70, 0
2, 53075, Note_on_c, 0, 69, 69
2, 53082, Note_on_c, 0, 69, 0
2, 53082, Note_on_c, 0, 70, 69
2, 53088, Note_on_c, 0, 70, 0
2, 53088, Note_on_c, 0, 69, 69
2, 53133, Note_on_c, 0, 69, 0
2, 53136, Note_on_c, 0, 74, 75
2, 53148, Note_on_c, 0, 74, 0
2, 53148, Note_on_c, 0, 70, 75
2, 53160, Note_on_c, 0, 70, 0
2, 53160, Note_on_c, 0, 67, 75
2, 53172, Note_on_c, 0, 67, 0
2, 53172, Note_on_c, 0, 62, 75
2, 53184, Note_on_c, 0, 62, 0
2, 53184, Note_on_c, 0, 63, 75
2, 53207, Note_on_c, 0, 63, 0
2, 53208, Note_on_c, 0, 75, 75
2, 53231, Note_on_c, 0, 75, 0
2, 53256, Note_on_c, 0, 74, 76
2, 53266, Note_on_c, 0, 74, 0
2, 53280, Note_on_c, 0, 72, 76
2, 53303, Note_on_c, 0, 72, 0
2, 53304, Note_on_c, 0, 70, 76
2, 53327, Note_on_c, 0, 70, 0
2, 53328, Note_on_c, 0, 69, 77
2, 53351, Note_on_c, 0, 69, 0
2, 53352, Note_on_c, 0, 67, 77
2, 53375, Note_on_c, 0, 67, 0
2, 53376, Note_on_c, 0, 67, 77
2, 53472, Note_on_c, 0, 67, 0
2, 53472, Note_on_c, 0, 65, 78
2, 53517, Note_on_c, 0, 65, 0
2, 53520, Note_on_c, 0, 77, 79
2, 53532, Note_on_c, 0, 77, 0
2, 53532, Note_on_c, 0, 74, 79
2, 53544, Note_on_c, 0, 74, 0
2, 53544, Note_on_c, 0, 70, 79
2, 53556, Note_on_c, 0, 70, 0
2, 53556, Note_on_c, 0, 65, 79
2, 53568, Note_on_c, 0, 65, 0
2, 53568, Note_on_c, 0, 67, 79
2, 53591, Note_on_c, 0, 67, 0
2, 53592, Note_on_c, 0, 79, 80
2, 53615, Note_on_c, 0, 79, 0
2, 53640, Note_on_c, 0, 77, 80
2, 53663, Note_on_c, 0, 77, 0
2, 53664, Note_on_c, 0, 77, 81
2, 53670, Note_on_c, 0, 77, 0
2, 53670, Note_on_c, 0, 75, 81
2, 53688, Note_on_c, 0, 75, 0
2, 53688, Note_on_c, 0, 74, 81
2, 53711, Note_on_c, 0, 74, 0
2, 53712, Note_on_c, 0, 74, 81
2, 53718, Note_on_c, 0, 74, 0
2, 53718, Note_on_c, 0, 72, 81
2, 53736, Note_on_c, 0, 72, 0
2, 53736, Note_on_c, 0, 70, 81
2, 53759, Note_on_c, 0, 70, 0
2, 53760, Note_on_c, 0, 70, 82
2, 53856, Note_on_c, 0, 70, 0
2, 53856, Note_on_c, 0, 69, 83
2, 53901, Note_on_c, 0, 69, 0
2, 53904, Note_on_c, 0, 81, 83
2, 53916, Note_on_c, 0, 81, 0
2, 53916, Note_on_c, 0, 77, 84
2, 53928, Note_on_c, 0, 77, 0
2, 53928, Note_on_c, 0, 74, 84
2, 53940, Note_on_c, 0, 74, 0
2, 53940, Note_on_c, 0, 69, 84
2, 53952, Note_on_c, 0, 69, 0
2, 53952, Note_on_c, 0, 70, 84
2, 53975, Note_on_c, 0, 70, 0
2, 53976, Note_on_c, 0, 82, 84
2, 53999, Note_on_c, 0, 82, 0
2, 54024, Note_on_c, 0, 81, 84
2, 54047, Note_on_c, 0, 81, 0
2, 54048, Note_on_c, 0, 81, 84
2, 54054, Note_on_c, 0, 81, 0
2, 54054, Note_on_c, 0, 79, 84
2, 54072, Note_on_c, 0, 79, 0
2, 54072, Note_on_c, 0, 77, 84
2, 54095, Note_on_c, 0, 77, 0
2, 54096, Note_on_c, 0, 77, 84
2, 54102, Note_on_c, 0, 77, 0
2, 54102, Note_on_c, 0, 75, 84
2, 54120, Note_on_c, 0, 75, 0
2, 54120, Note_on_c, 0, 74, 84
2, 54143, Note_on_c, 0, 74, 0
2, 54144, Note_on_c, 0, 72, 84
2, 54167, Note_on_c, 0, 72, 0
2, 54168, Note_on_c, 0, 84, 84
2, 54191, Note_on_c, 0, 84, 0
2, 54216, Note_on_c, 0, 82, 84
2, 54239, Note_on_c, 0, 82, 0
2, 54240, Note_on_c, 0, 82, 84
2, 54246, Note_on_c, 0, 82, 0
2, 54246, Note_on_c, 0, 81, 84
2, 54264, Note_on_c, 0, 81, 0
2, 54264, Note_on_c, 0, 79, 84
2, 54287, Note_on_c, 0, 79, 0
2, 54288, Note_on_c, 0, 79, 84
2, 54294, Note_on_c, 0, 79, 0
2, 54294, Note_on_c, 0, 78, 84
2, 54312, Note_on_c, 0, 78, 0
2, 54312, Note_on_c, 0, 75, 84
2, 54335, Note_on_c, 0, 75, 0
2, 54336, Note_on_c, 0, 74, 84
2, 54359, Note_on_c, 0, 74, 0
2, 54360, Note_on_c, 0, 86, 84
2, 54383, Note_on_c, 0, 86, 0
2, 54408, Note_on_c, 0, 84, 84
2, 54431, Note_on_c, 0, 84, 0
2, 54432, Note_on_c, 0, 84, 84
2, 54455, Note_on_c, 0, 84, 0
2, 54456, Note_on_c, 0, 82, 84
2, 54479, Note_on_c, 0, 82, 0
2, 54480, Note_on_c, 0, 81, 84
2, 54503, Note_on_c, 0, 81, 0
2, 54504, Note_on_c, 0, 79, 84
2, 54527, Note_on_c, 0, 79, 0
2, 54528, Note_on_c, 0, 77, 84
2, 54551, Note_on_c, 0, 77, 0
2, 54552, Note_on_c, 0, 75, 84
2, 54575, Note_on_c, 0, 75, 0
2, 54576, Note_on_c, 0, 74, 84
2, 54599, Note_on_c, 0, 74, 0
2, 54600, Note_on_c, 0, 72, 84
2, 54623, Note_on_c, 0, 72, 0
2, 54624, Note_on_c, 0, 70, 84
2, 54669, Note_on_c, 0, 70, 0
2, 54672, Note_on_c, 0, 69, 84
2, 54679, Note_on_c, 0, 69, 0
2, 54679, Note_on_c, 0, 70, 84
2, 54686, Note_on_c, 0, 70, 0
2, 54686, Note_on_c, 0, 69, 84
2, 54693, Note_on_c, 0, 69, 0
2, 54693, Note_on_c, 0, 70, 84
2, 54700, Note_on_c, 0, 70, 0
2, 54700, Note_on_c, 0, 69, 84
2, 54707, Note_on_c, 0, 69, 0
2, 54707, Note_on_c, 0, 67, 84
2, 54714, Note_on_c, 0, 67, 0
2, 54714, Note_on_c, 0, 69, 84
2, 54720, Note_on_c, 0, 69, 0
2, 54720, Note_on_c, 0, 67, 84
2, 54809, Note_on_c, 0, 67, 0
2, 54864, Note_on_c, 0, 62, 75
2, 54909, Note_on_c, 0, 62, 0
2, 54912, Note_on_c, 0, 67, 75
2, 54960, Note_on_c, 0, 67, 0
2, 54960, Note_on_c, 0, 66, 75
2, 54980, Note_on_c, 0, 66, 0
2, 55008, Note_on_c, 0, 69, 75
2, 55056, Note_on_c, 0, 69, 0
2, 55056, Note_on_c, 0, 67, 75
2, 55076, Note_on_c, 0, 67, 0
2, 55104, Note_on_c, 0, 70, 75
2, 55171, Note_on_c, 0, 70, 0
2, 55176, Note_on_c, 0, 72, 75
2, 55188, Note_on_c, 0, 72, 0
2, 55188, Note_on_c, 0, 70, 75
2, 55200, Note_on_c, 0, 70, 0
2, 55200, Note_on_c, 0, 69, 75
2, 55245, Note_on_c, 0, 69, 0
2, 55248, Note_on_c, 0, 62, 75
2, 55268, Note_on_c, 0, 62, 0
2, 55296, Note_on_c, 0, 69, 75
2, 55344, Note_on_c, 0, 69, 0
2, 55344, Note_on_c, 0, 67, 75
2, 55364, Note_on_c, 0, 67, 0
2, 55392, Note_on_c, 0, 70, 75
2, 55440, Note_on_c, 0, 70, 0
2, 55440, Note_on_c, 0, 69, 75
2, 55460, Note_on_c, 0, 69, 0
2, 55488, Note_on_c, 0, 72, 75
2, 55555, Note_on_c, 0, 72, 0
2, 55560, Note_on_c, 0, 75, 75
2, 55568, Note_on_c, 0, 75, 0
2, 55568, Note_on_c, 0, 74, 75
2, 55576, Note_on_c, 0, 74, 0
2, 55576, Note_on_c, 0, 72, 75
2, 55584, Note_on_c, 0, 72, 0
2, 55584, Note_on_c, 0, 70, 75
2, 55629, Note_on_c, 0, 70, 0
2, 55632, Note_on_c, 0, 62, 75
2, 55652, Note_on_c, 0, 62, 0
2, 55680, Note_on_c, 0, 70, 75
2, 55703, Note_on_c, 0, 70, 0
2, 55704, Note_on_c, 0, 67, 75
2, 55727, Note_on_c, 0, 67, 0
2, 55728, Note_on_c, 0, 69, 75
2, 55751, Note_on_c, 0, 69, 0
2, 55752, Note_on_c, 0, 66, 75
2, 55775, Note_on_c, 0, 66, 0
2, 55776, Note_on_c, 0, 72, 75
2, 55799, Note_on_c, 0, 72, 0
2, 55800, Note_on_c, 0, 69, 75
2, 55823, Note_on_c, 0, 69, 0
2, 55824, Note_on_c, 0, 70, 75
2, 55847, Note_on_c, 0, 70, 0
2, 55848, Note_on_c, 0, 67, 75
2, 55871, Note_on_c, 0, 67, 0
2, 55872, Note_on_c, 0, 75, 75
2, 55895, Note_on_c, 0, 75, 0
2, 55896, Note_on_c, 0, 72, 75
2, 55919, Note_on_c, 0, 72, 0
2, 55920, Note_on_c, 0, 74, 75
2, 55943, Note_on_c, 0, 74, 0
2, 55944, Note_on_c, 0, 70, 75
2, 55967, Note_on_c, 0, 70, 0
2, 55968, Note_on_c, 0, 69, 75
2, 55992, Note_on_c, 0, 69, 0
2, 55992, Note_on_c, 0, 78, 75
2, 56015, Note_on_c, 0, 78, 0
2, 56016, Note_on_c, 0, 70, 76
2, 56040, Note_on_c, 0, 70, 0
2, 56040, Note_on_c, 0, 79, 77
2, 56063, Note_on_c, 0, 79, 0
2, 56064, Note_on_c, 0, 72, 77
2, 56088, Note_on_c, 0, 72, 0
2, 56088, Note_on_c, 0, 81, 78
2, 56111, Note_on_c, 0, 81, 0
2, 56112, Note_on_c, 0, 74, 79
2, 56136, Note_on_c, 0, 74, 0
2, 56136, Note_on_c, 0, 82, 79
2, 56159, Note_on_c, 0, 82, 0
2, 56160, Note_on_c, 0, 75, 80
2, 56184, Note_on_c, 0, 75, 0
2, 56184, Note_on_c, 0, 84, 81
2, 56207, Note_on_c, 0, 84, 0
2, 56208, Note_on_c, 0, 75, 81
2, 56232, Note_on_c, 0, 75, 0
2, 56232, Note_on_c, 0, 84, 82
2, 56255, Note_on_c, 0, 84, 0
2, 56256, Note_on_c, 0, 75, 83
2, 56280, Note_on_c, 0, 75, 0
2, 56280, Note_on_c, 0, 87, 84
2, 56303, Note_on_c, 0, 87, 0
2, 56304, Note_on_c, 0, 86, 84
2, 56327, Note_on_c, 0, 86, 0
2, 56328, Note_on_c, 0, 84, 84
2, 56351, Note_on_c, 0, 84, 0
2, 56352, Note_on_c, 0, 82, 84
2, 56375, Note_on_c, 0, 82, 0
2, 56376, Note_on_c, 0, 81, 84
2, 56399, Note_on_c, 0, 81, 0
2, 56400, Note_on_c, 0, 79, 84
2, 56423, Note_on_c, 0, 79, 0
2, 56424, Note_on_c, 0, 78, 84
2, 56447, Note_on_c, 0, 78, 0
2, 56448, Note_on_c, 0, 79, 84
2, 56471, Note_on_c, 0, 79, 0
2, 56472, Note_on_c, 0, 81, 84
2, 56495, Note_on_c, 0, 81, 0
2, 56496, Note_on_c, 0, 79, 84
2, 56519, Note_on_c, 0, 79, 0
2, 56520, Note_on_c, 0, 78, 84
2, 56543, Note_on_c, 0, 78, 0
2, 56544, Note_on_c, 0, 75, 84
2, 56567, Note_on_c, 0, 75, 0
2, 56568, Note_on_c, 0, 74, 84
2, 56591, Note_on_c, 0, 74, 0
2, 56592, Note_on_c, 0, 77, 84
2, 56615, Note_on_c, 0, 77, 0
2, 56616, Note_on_c, 0, 75, 84
2, 56639, Note_on_c, 0, 75, 0
2, 56640, Note_on_c, 0, 75, 84
2, 56664, Note_on_c, 0, 75, 0
2, 56664, Note_on_c, 0, 87, 84
2, 56687, Note_on_c, 0, 87, 0
2, 56688, Note_on_c, 0, 86, 84
2, 56711, Note_on_c, 0, 86, 0
2, 56712, Note_on_c, 0, 84, 84
2, 56735, Note_on_c, 0, 84, 0
2, 56736, Note_on_c, 0, 82, 84
2, 56759, Note_on_c, 0, 82, 0
2, 56760, Note_on_c, 0, 81, 84
2, 56783, Note_on_c, 0, 81, 0
2, 56784, Note_on_c, 0, 79, 84
2, 56807, Note_on_c, 0, 79, 0
2, 56808, Note_on_c, 0, 78, 84
2, 56831, Note_on_c, 0, 78, 0
2, 56832, Note_on_c, 0, 79, 84
2, 56855, Note_on_c, 0, 79, 0
2, 56856, Note_on_c, 0, 81, 84
2, 56879, Note_on_c, 0, 81, 0
2, 56880, Note_on_c, 0, 79, 84
2, 56903, Note_on_c, 0, 79, 0
2, 56904, Note_on_c, 0, 78, 84
2, 56927, Note_on_c, 0, 78, 0
2, 56928, Note_on_c, 0, 75, 84
2, 56951, Note_on_c, 0, 75, 0
2, 56952, Note_on_c, 0, 74, 84
2, 56975, Note_on_c, 0, 74, 0
2, 56976, Note_on_c, 0, 77, 84
2, 56999, Note_on_c, 0, 77, 0
2, 57000, Note_on_c, 0, 75, 84
2, 57023, Note_on_c, 0, 75, 0
2, 57024, Note_on_c, 0, 75, 84
2, 57201, Note_on_c, 0, 75, 0
2, 57528, Note_on_c, 0, 74, 75
2, 57540, Note_on_c, 0, 74, 0
2, 57540, Note_on_c, 0, 75, 75
2, 57552, Note_on_c, 0, 75, 0
2, 57552, Note_on_c, 0, 77, 75
2, 57564, Note_on_c, 0, 77, 0
2, 57564, Note_on_c, 0, 75, 75
2, 57576, Note_on_c, 0, 75, 0
2, 57576, Note_on_c, 0, 74, 75
2, 57588, Note_on_c, 0, 74, 0
2, 57588, Note_on_c, 0, 72, 75
2, 57600, Note_on_c, 0, 72, 0
2, 57600, Note_on_c, 0, 72, 75
2, 57612, Note_on_c, 0, 72, 0
2, 57612, Note_on_c, 0, 70, 75
2, 57624, Note_on_c, 0, 70, 0
2, 57624, Note_on_c, 0, 69, 75
2, 57636, Note_on_c, 0, 69, 0
2, 57636, Note_on_c, 0, 70, 75
2, 57648, Note_on_c, 0, 70, 0
2, 57648, Note_on_c, 0, 74, 75
2, 57660, Note_on_c, 0, 74, 0
2, 57660, Note_on_c, 0, 72, 75
2, 57672, Note_on_c, 0, 72, 0
2, 57672, Note_on_c, 0, 70, 75
2, 57684, Note_on_c, 0, 70, 0
2, 57684, Note_on_c, 0, 69, 75
2, 57696, Note_on_c, 0, 69, 0
2, 57696, Note_on_c, 0, 67, 75
2, 57741, Note_on_c, 0, 67, 0
2, 57744, Note_on_c, 0, 66, 75
2, 57751, Note_on_c, 0, 66, 0
2, 57751, Note_on_c, 0, 67, 75
2, 57758, Note_on_c, 0, 67, 0
2, 57758, Note_on_c, 0, 66, 75
2, 57765, Note_on_c, 0, 66, 0
2, 57765, Note_on_c, 0, 67, 75
2, 57772, Note_on_c, 0, 67, 0
2, 57772, Note_on_c, 0, 66, 75
2, 57779, Note_on_c, 0, 66, 0
2, 57779, Note_on_c, 0, 64, 75
2, 57786, Note_on_c, 0, 64, 0
2, 57786, Note_on_c, 0, 66, 75
2, 57792, Note_on_c, 0, 66, 0
2, 57792, Note_on_c, 0, 67, 75
2, 57815, Note_on_c, 0, 67, 0
2, 57816, Note_on_c, 0, 74, 75
2, 57839, Note_on_c, 0, 74, 0
2, 57864, Note_on_c, 0, 74, 75
2, 57887, Note_on_c, 0, 74, 0
2, 57912, Note_on_c, 0, 74, 75
2, 57935, Note_on_c, 0, 74, 0
2, 57960, Note_on_c, 0, 74, 75
2, 57983, Note_on_c, 0, 74, 0
2, 58008, Note_on_c, 0, 74, 75
2, 58031, Note_on_c, 0, 74, 0
2, 58056, Note_on_c, 0, 74, 77
2, 58079, Note_on_c, 0, 74, 0
2, 58104, Note_on_c, 0, 74, 78
2, 58127, Note_on_c, 0, 74, 0
2, 58152, Note_on_c, 0, 74, 79
2, 58175, Note_on_c, 0, 74, 0
2, 58200, Note_on_c, 0, 74, 81
2, 58223, Note_on_c, 0, 74, 0
2, 58248, Note_on_c, 0, 74, 82
2, 58271, Note_on_c, 0, 74, 0
2, 58296, Note_on_c, 0, 74, 84
2, 58319, Note_on_c, 0, 74, 0
2, 58320, Note_on_c, 0, 86, 84
2, 58332, Note_on_c, 0, 86, 0
2, 58332, Note_on_c, 0, 81, 81
2, 58344, Note_on_c, 0, 81, 0
2, 58344, Note_on_c, 0, 78, 79
2, 58356, Note_on_c, 0, 78, 0
2, 58356, Note_on_c, 0, 74, 77
2, 58368, Note_on_c, 0, 74, 0
2, 58368, Note_on_c, 0, 81, 75
2, 58380, Note_on_c, 0, 81, 0
2, 58380, Note_on_c, 0, 79, 75
2, 58392, Note_on_c, 0, 79, 0
2, 58392, Note_on_c, 0, 78, 75
2, 58404, Note_on_c, 0, 78, 0
2, 58404, Note_on_c, 0, 79, 75
2, 58416, Note_on_c, 0, 79, 0
2, 58416, Note_on_c, 0, 77, 75
2, 58428, Note_on_c, 0, 77, 0
2, 58428, Note_on_c, 0, 75, 75
2, 58440, Note_on_c, 0, 75, 0
2, 58440, Note_on_c, 0, 74, 75
2, 58452, Note_on_c, 0, 74, 0
2, 58452, Note_on_c, 0, 72, 75
2, 58464, Note_on_c, 0, 72, 0
2, 58464, Note_on_c, 0, 70, 75
2, 58509, Note_on_c, 0, 70, 0
2, 58512, Note_on_c, 0, 69, 75
2, 58519, Note_on_c, 0, 69, 0
2, 58519, Note_on_c, 0, 70, 75
2, 58526, Note_on_c, 0, 70, 0
2, 58526, Note_on_c, 0, 69, 75
2, 58533, Note_on_c, 0, 69, 0
2, 58533, Note_on_c, 0, 70, 75
2, 58540, Note_on_c, 0, 70, 0
2, 58540, Note_on_c, 0, 69, 75
2, 58547, Note_on_c, 0, 69, 0
2, 58547, Note_on_c, 0, 67, 75
2, 58554, Note_on_c, 0, 67, 0
2, 58554, Note_on_c, 0, 69, 75
2, 58560, Note_on_c, 0, 69, 0
2, 58560, Note_on_c, 0, 67, 75
2, 58583, Note_on_c, 0, 67, 0
2, 58584, Note_on_c, 0, 74, 75
2, 58607, Note_on_c, 0, 74, 0
2, 58632, Note_on_c, 0, 74, 75
2, 58655, Note_on_c, 0, 74, 0
2, 58680, Note_on_c, 0, 74, 75
2, 58703, Note_on_c, 0, 74, 0
2, 58728, Note_on_c, 0, 74, 75
2, 58751, Note_on_c, 0, 74, 0
2, 58776, Note_on_c, 0, 74, 75
2, 58799, Note_on_c, 0, 74, 0
2, 58824, Note_on_c, 0, 74, 77
2, 58847, Note_on_c, 0, 74, 0
2, 58872, Note_on_c, 0, 74, 78
2, 58895, Note_on_c, 0, 74, 0
2, 58920, Note_on_c, 0, 74, 79
2, 58943, Note_on_c, 0, 74, 0
2, 58968, Note_on_c, 0, 74, 81
2, 58991, Note_on_c, 0, 74, 0
2, 59016, Note_on_c, 0, 74, 82
2, 59039, Note_on_c, 0, 74, 0
2, 59064, Note_on_c, 0, 74, 84
2, 59087, Note_on_c, 0, 74, 0
2, 59088, Note_on_c, 0, 86, 81
2, 59100, Note_on_c, 0, 86, 0
2, 59100, Note_on_c, 0, 81, 79
2, 59112, Note_on_c, 0, 81, 0
2, 59112, Note_on_c, 0, 78, 78
2, 59124, Note_on_c, 0, 78, 0
2, 59124, Note_on_c, 0, 74, 76
2, 59136, Note_on_c, 0, 74, 0
2, 59136, Note_on_c, 0, 81, 75
2, 59148, Note_on_c, 0, 81, 0
2, 59148, Note_on_c, 0, 79, 75
2, 59160, Note_on_c, 0, 79, 0
2, 59160, Note_on_c, 0, 78, 75
2, 59172, Note_on_c, 0, 78, 0
2, 59172, Note_on_c, 0, 79, 75
2, 59184, Note_on_c, 0, 79, 0
2, 59184, Note_on_c, 0, 77, 75
2, 59196, Note_on_c, 0, 77, 0
2, 59196, Note_on_c, 0, 75, 75
2, 59208, Note_on_c, 0, 75, 0
2, 59208, Note_on_c, 0, 74, 75
2, 59220, Note_on_c, 0, 74, 0
2, 59220, Note_on_c, 0, 72, 75
2, 59232, Note_on_c, 0, 72, 0
2, 59232, Note_on_c, 0, 70, 75
2, 59277, Note_on_c, 0, 70, 0
2, 59280, Note_on_c, 0, 69, 75
2, 59287, Note_on_c, 0, 69, 0
2, 59287, Note_on_c, 0, 70, 75
2, 59294, Note_on_c, 0, 70, 0
2, 59294, Note_on_c, 0, 69, 75
2, 59301, Note_on_c, 0, 69, 0
2, 59301, Note_on_c, 0, 70, 75
2, 59308, Note_on_c, 0, 70, 0
2, 59308, Note_on_c, 0, 69, 75
2, 59315, Note_on_c, 0, 69, 0
2, 59315, Note_on_c, 0, 67, 75
2, 59322, Note_on_c, 0, 67, 0
2, 59322, Note_on_c, 0, 69, 75
2, 59328, Note_on_c, 0, 69, 0
2, 59328, Note_on_c, 0, 67, 75
2, 59417, Note_on_c, 0, 67, 0
2, 59472, Note_on_c, 0, 75, 75
2, 59472, Note_on_c, 0, 72, 75
2, 59565, Note_on_c, 0, 75, 0
2, 59565, Note_on_c, 0, 72, 0
2, 59568, Note_on_c, 0, 74, 75
2, 59568, Note_on_c, 0, 70, 75
2, 59613, Note_on_c, 0, 74, 0
2, 59613, Note_on_c, 0, 70, 0
2, 59664, Note_on_c, 0, 72, 75
2, 59664, Note_on_c, 0, 66, 75
2, 59760, Note_on_c, 0, 72, 0
2, 59760, Note_on_c, 0, 66, 0
2, 59760, Note_on_c, 0, 70, 75
2, 59760, Note_on_c, 0, 67, 75
2, 59805, Note_on_c, 0, 70, 0
2, 59805, Note_on_c, 0, 67, 0
2, 59856, Note_on_c, 0, 63, 75
2, 59856, Note_on_c, 0, 60, 75
2, 59949, Note_on_c, 0, 63, 0
2, 59949, Note_on_c, 0, 60, 0
2, 59952, Note_on_c, 0, 62, 67
2, 59952, Note_on_c, 0, 58, 67
2, 59997, Note_on_c, 0, 62, 0
2, 59997, Note_on_c, 0, 58, 0
2, 60048, Note_on_c, 0, 54, 60
2, 60048, Note_on_c, 0, 48, 60
2, 60096, Note_on_c, 0, 54, 0
2, 60096, Note_on_c, 0, 48, 0
2, 60096, Note_on_c, 0, 55, 56
2, 60096, Note_on_c, 0, 46, 56
2, 60116, Note_on_c, 0, 55, 0
2, 60116, Note_on_c, 0, 46, 0
2, 60288, End_track
3, 0, Start_track
3, 0, Program_c, 0, 0
3, 0, Control_c, 0, 7, 127
3, 0, Control_c, 0, 10, 64
3, 1248, Note_on_c, 0, 82, 85
3, 1389, Note_on_c, 0, 82, 0
3, 1392, Note_on_c, 0, 81, 64
3, 1525, Note_on_c, 0, 81, 0
3, 8064, Note_on_c, 0, 62, 64
3, 8112, Note_on_c, 0, 62, 0
3, 8112, Note_on_c, 0, 60, 64
3, 8157, Note_on_c, 0, 60, 0
3, 8160, Note_on_c, 0, 63, 64
3, 8208, Note_on_c, 0, 63, 0
3, 8208, Note_on_c, 0, 62, 64
3, 8253, Note_on_c, 0, 62, 0
3, 8256, Note_on_c, 0, 70, 64
3, 8345, Note_on_c, 0, 70, 0
3, 8352, Note_on_c, 0, 69, 64
3, 8397, Note_on_c, 0, 69, 0
3, 8400, Note_on_c, 0, 65, 64
3, 8420, Note_on_c, 0, 65, 0
3, 8448, Note_on_c, 0, 63, 64
3, 8496, Note_on_c, 0, 63, 0
3, 8496, Note_on_c, 0, 62, 64
3, 8516, Note_on_c, 0, 62, 0
3, 8544, Note_on_c, 0, 70, 64
3, 8592, Note_on_c, 0, 70, 0
3, 8592, Note_on_c, 0, 69, 64
3, 8612, Note_on_c, 0, 69, 0
3, 8640, Note_on_c, 0, 72, 64
3, 8729, Note_on_c, 0, 72, 0
3, 8736, Note_on_c, 0, 70, 64
3, 8781, Note_on_c, 0, 70, 0
3, 8784, Note_on_c, 0, 65, 64
3, 8804, Note_on_c, 0, 65, 0
3, 9024, Note_on_c, 0, 75, 64
3, 9113, Note_on_c, 0, 75, 0
3, 9120, Note_on_c, 0, 74, 64
3, 9165, Note_on_c, 0, 74, 0
3, 9168, Note_on_c, 0, 72, 64
3, 9213, Note_on_c, 0, 72, 0
3, 12768, Note_on_c, 0, 82, 85
3, 12909, Note_on_c, 0, 82, 0
3, 12912, Note_on_c, 0, 81, 64
3, 13045, Note_on_c, 0, 81, 0
3, 19584, Note_on_c, 0, 62, 64
3, 19632, Note_on_c, 0, 62, 0
3, 19632, Note_on_c, 0, 60, 64
3, 19677, Note_on_c, 0, 60, 0
3, 19680, Note_on_c, 0, 63, 64
3, 19728, Note_on_c, 0, 63, 0
3, 19728, Note_on_c, 0, 62, 64
3, 19773, Note_on_c, 0, 62, 0
3, 19776, Note_on_c, 0, 70, 64
3, 19865, Note_on_c, 0, 70, 0
3, 19872, Note_on_c, 0, 69, 64
3, 19917, Note_on_c, 0, 69, 0
3, 19920, Note_on_c, 0, 65, 64
3, 19940, Note_on_c, 0, 65, 0
3, 19968, Note_on_c, 0, 63, 64
3, 20016, Note_on_c, 0, 63, 0
3, 20016, Note_on_c, 0, 62, 64
3, 20036, Note_on_c, 0, 62, 0
3, 20064, Note_on_c, 0, 70, 64
3, 20112, Note_on_c, 0, 70, 0
3, 20112, Note_on_c, 0, 69, 64
3, 20132, Note_on_c, 0, 69, 0
3, 20160, Note_on_c, 0, 72, 64
3, 20249, Note_on_c, 0, 72, 0
3, 20256, Note_on_c, 0, 70, 64
3, 20301, Note_on_c, 0, 70, 0
3, 20304, Note_on_c, 0, 65, 64
3, 20324, Note_on_c, 0, 65, 0
3, 20544, Note_on_c, 0, 75, 64
3, 20633, Note_on_c, 0, 75, 0
3, 20640, Note_on_c, 0, 74, 64
3, 20685, Note_on_c, 0, 74, 0
3, 20688, Note_on_c, 0, 72, 64
3, 20733, Note_on_c, 0, 72, 0
3, 24288, Note_on_c, 0, 75, 85
3, 24525, Note_on_c, 0, 75, 0
3, 24528, Note_on_c, 0, 75, 64
3, 24599, Note_on_c, 0, 75, 0
3, 24600, Note_on_c, 0, 74, 75
3, 24623, Note_on_c, 0, 74, 0
3, 24624, Note_on_c, 0, 73, 76
3, 24647, Note_on_c, 0, 73, 0
3, 24648, Note_on_c, 0, 74, 77
3, 24671, Note_on_c, 0, 74, 0
3, 24672, Note_on_c, 0, 79, 78
3, 24695, Note_on_c, 0, 79, 0
3, 24696, Note_on_c, 0, 78, 78
3, 24719, Note_on_c, 0, 78, 0
3, 24720, Note_on_c, 0, 81, 79
3, 24743, Note_on_c, 0, 81, 0
3, 24744, Note_on_c, 0, 79, 80
3, 24767, Note_on_c, 0, 79, 0
3, 24768, Note_on_c, 0, 82, 81
3, 24857, Note_on_c, 0, 82, 0
3, 25056, Note_on_c, 0, 73, 105
3, 25293, Note_on_c, 0, 73, 0
3, 25296, Note_on_c, 0, 73, 84
3, 25367, Note_on_c, 0, 73, 0
3, 25368, Note_on_c, 0, 72, 75
3, 25391, Note_on_c, 0, 72, 0
3, 25392, Note_on_c, 0, 71, 75
3, 25415, Note_on_c, 0, 71, 0
3, 25416, Note_on_c, 0, 72, 76
3, 25439, Note_on_c, 0, 72, 0
3, 25440, Note_on_c, 0, 77, 77
3, 25463, Note_on_c, 0, 77, 0
3, 25464, Note_on_c, 0, 76, 78
3, 25487, Note_on_c, 0, 76, 0
3, 25488, Note_on_c, 0, 79, 79
3, 25511, Note_on_c, 0, 79, 0
3, 25512, Note_on_c, 0, 77, 79
3, 25535, Note_on_c, 0, 77, 0
3, 25536, Note_on_c, 0, 80, 80
3, 25625, Note_on_c, 0, 80, 0
3, 25680, Note_on_c, 0, 72, 75
3, 25695, Note_on_c, 0, 72, 0
3, 25696, Note_on_c, 0, 73, 75
3, 25711, Note_on_c, 0, 73, 0
3, 25712, Note_on_c, 0, 72, 75
3, 25727, Note_on_c, 0, 72, 0
3, 30672, Note_on_c, 0, 64, 75
3, 30717, Note_on_c, 0, 64, 0
3, 30720, Note_on_c, 0, 65, 75
3, 30765, Note_on_c, 0, 65, 0
3, 30768, Note_on_c, 0, 69, 75
3, 30813, Note_on_c, 0, 69, 0
3, 30816, Note_on_c, 0, 70, 75
3, 30861, Note_on_c, 0, 70, 0
3, 30864, Note_on_c, 0, 72, 75
3, 30909, Note_on_c, 0, 72, 0
3, 30912, Note_on_c, 0, 74, 75
3, 30957, Note_on_c, 0, 74, 0
3, 30960, Note_on_c, 0, 77, 75
3, 31005, Note_on_c, 0, 77, 0
3, 31008, Note_on_c, 0, 75, 75
3, 31053, Note_on_c, 0, 75, 0
3, 31152, Note_on_c, 0, 79, 75
3, 31172, Note_on_c, 0, 79, 0
3, 31200, Note_on_c, 0, 77, 75
3, 31220, Note_on_c, 0, 77, 0
3, 31248, Note_on_c, 0, 77, 75
3, 31268, Note_on_c, 0, 77, 0
3, 31296, Note_on_c, 0, 77, 75
3, 31385, Note_on_c, 0, 77, 0
3, 31392, Note_on_c, 0, 75, 75
3, 31412, Note_on_c, 0, 75, 0
3, 31440, Note_on_c, 0, 74, 75
3, 31460, Note_on_c, 0, 74, 0
3, 31488, Note_on_c, 0, 73, 75
3, 31621, Note_on_c, 0, 73, 0
3, 31632, Note_on_c, 0, 70, 75
3, 31725, Note_on_c, 0, 70, 0
3, 31728, Note_on_c, 0, 69, 75
3, 31748, Note_on_c, 0, 69, 0
3, 32736, Note_on_c, 0, 82, 96
3, 32877, Note_on_c, 0, 82, 0
3, 32880, Note_on_c, 0, 81, 75
3, 33013, Note_on_c, 0, 81, 0
3, 33024, Note_on_c, 0, 80, 91
3, 33072, Note_on_c, 0, 80, 0
3, 33072, Note_on_c, 0, 79, 75
3, 33205, Note_on_c, 0, 79, 0
3, 33216, Note_on_c, 0, 78, 91
3, 33264, Note_on_c, 0, 78, 0
3, 33264, Note_on_c, 0, 77, 75
3, 33397, Note_on_c, 0, 77, 0
3, 33408, Note_on_c, 0, 75, 75
3, 33497, Note_on_c, 0, 75, 0
3, 33504, Note_on_c, 0, 74, 75
3, 33593, Note_on_c, 0, 74, 0
3, 33600, Note_on_c, 0, 72, 75
3, 33733, Note_on_c, 0, 72, 0
3, 33744, Note_on_c, 0, 70, 75
3, 33837, Note_on_c, 0, 70, 0
3, 33840, Note_on_c, 0, 69, 75
3, 33885, Note_on_c, 0, 69, 0
3, 36672, Note_on_c, 0, 67, 75
3, 36761, Note_on_c, 0, 67, 0
3, 36768, Note_on_c, 0, 66, 75
3, 36813, Note_on_c, 0, 66, 0
3, 37056, Note_on_c, 0, 69, 75
3, 37145, Note_on_c, 0, 69, 0
3, 37152, Note_on_c, 0, 67, 75
3, 37197, Note_on_c, 0, 67, 0
3, 42720, Note_on_c, 0, 75, 85
3, 42957, Note_on_c, 0, 75, 0
3, 42960, Note_on_c, 0, 75, 64
3, 43031, Note_on_c, 0, 75, 0
3, 43032, Note_on_c, 0, 74, 75
3, 43055, Note_on_c, 0, 74, 0
3, 43056, Note_on_c, 0, 73, 76
3, 43079, Note_on_c, 0, 73, 0
3, 43080, Note_on_c, 0, 74, 77
3, 43103, Note_on_c, 0, 74, 0
3, 43104, Note_on_c, 0, 79, 78
3, 43127, Note_on_c, 0, 79, 0
3, 43128, Note_on_c, 0, 78, 78
3, 43151, Note_on_c, 0, 78, 0
3, 43152, Note_on_c, 0, 81, 79
3, 43175, Note_on_c, 0, 81, 0
3, 43176, Note_on_c, 0, 79, 80
3, 43199, Note_on_c, 0, 79, 0
3, 43200, Note_on_c, 0, 82, 81
3, 43289, Note_on_c, 0, 82, 0
3, 43488, Note_on_c, 0, 73, 105
3, 43725, Note_on_c, 0, 73, 0
3, 43728, Note_on_c, 0, 73, 84
3, 43799, Note_on_c, 0, 73, 0
3, 43800, Note_on_c, 0, 72, 75
3, 43823, Note_on_c, 0, 72, 0
3, 43824, Note_on_c, 0, 71, 75
3, 43847, Note_on_c, 0, 71, 0
3, 43848, Note_on_c, 0, 72, 76
3, 43871, Note_on_c, 0, 72, 0
3, 43872, Note_on_c, 0, 77, 77
3, 43895, Note_on_c, 0, 77, 0
3, 43896, Note_on_c, 0, 76, 78
3, 43919, Note_on_c, 0, 76, 0
3, 43920, Note_on_c, 0, 79, 79
3, 43943, Note_on_c, 0, 79, 0
3, 43944, Note_on_c, 0, 77, 79
3, 43967, Note_on_c, 0, 77, 0
3, 43968, Note_on_c, 0, 80, 80
3, 44057, Note_on_c, 0, 80, 0
3, 44112, Note_on_c, 0, 72, 75
3, 44127, Note_on_c, 0, 72, 0
3, 44128, Note_on_c, 0, 73, 75
3, 44143, Note_on_c, 0, 73, 0
3, 44144, Note_on_c, 0, 72, 75
3, 44159, Note_on_c, 0, 72, 0
3, 49104, Note_on_c, 0, 64, 75
3, 49149, Note_on_c, 0, 64, 0
3, 49152, Note_on_c, 0, 65, 75
3, 49197, Note_on_c, 0, 65, 0
3, 49200, Note_on_c, 0, 69, 75
3, 49245, Note_on_c, 0, 69, 0
3, 49248, Note_on_c, 0, 70, 75
3, 49293, Note_on_c, 0, 70, 0
3, 49296, Note_on_c, 0, 72, 75
3, 49341, Note_on_c, 0, 72, 0
3, 49344, Note_on_c, 0, 74, 75
3, 49389, Note_on_c, 0, 74, 0
3, 49392, Note_on_c, 0, 77, 75
3, 49437, Note_on_c, 0, 77, 0
3, 49440, Note_on_c, 0, 75, 75
3, 49485, Note_on_c, 0, 75, 0
3, 49584, Note_on_c, 0, 79, 75
3, 49604, Note_on_c, 0, 79, 0
3, 49632, Note_on_c, 0, 77, 75
3, 49652, Note_on_c, 0, 77, 0
3, 49680, Note_on_c, 0, 77, 75
3, 49700, Note_on_c, 0, 77, 0
3, 49728, Note_on_c, 0, 77, 75
3, 49817, Note_on_c, 0, 77, 0
3, 49824, Note_on_c, 0, 75, 75
3, 49844, Note_on_c, 0, 75, 0
3, 49872, Note_on_c, 0, 74, 75
3, 49892, Note_on_c, 0, 74, 0
3, 49920, Note_on_c, 0, 73, 75
3, 50053, Note_on_c, 0, 73, 0
3, 50064, Note_on_c, 0, 70, 75
3, 50157, Note_on_c, 0, 70, 0
3, 50160, Note_on_c, 0, 69, 75
3, 50180, Note_on_c, 0, 69, 0
3, 51168, Note_on_c, 0, 82, 96
3, 51309, Note_on_c, 0, 82, 0
3, 51312, Note_on_c, 0, 81, 75
3, 51445, Note_on_c, 0, 81, 0
3, 51456, Note_on_c, 0, 80, 91
3, 51504, Note_on_c, 0, 80, 0
3, 51504, Note_on_c, 0, 79, 75
3, 51637, Note_on_c, 0, 79, 0
3, 51648, Note_on_c, 0, 78, 91
3, 51696, Note_on_c, 0, 78, 0
3, 51696, Note_on_c, 0, 77, 75
3, 51829, Note_on_c, 0, 77, 0
3, 51840, Note_on_c, 0, 75, 75
3, 51929, Note_on_c, 0, 75, 0
3, 51936, Note_on_c, 0, 74, 75
3, 52025, Note_on_c, 0, 74, 0
3, 52032, Note_on_c, 0, 72, 75
3, 52165, Note_on_c, 0, 72, 0
3, 52176, Note_on_c, 0, 70, 75
3, 52269, Note_on_c, 0, 70, 0
3, 52272, Note_on_c, 0, 69, 75
3, 52317, Note_on_c, 0, 69, 0
3, 55104, Note_on_c, 0, 67, 75
3, 55193, Note_on_c, 0, 67, 0
3, 55200, Note_on_c, 0, 66, 75
3, 55245, Note_on_c, 0, 66, 0
3, 55488, Note_on_c, 0, 69, 75
3, 55577, Note_on_c, 0, 69, 0
3, 55584, Note_on_c, 0, 67, 75
3, 55629, Note_on_c, 0, 67, 0
3, 60288, End_track
4, 0, Start_track
4, 0, Program_c, 1, 0
4, 0, Control_c, 1, 7, 127
4, 0, Control_c, 1, 10, 64
4, 384, Note_on_c, 1, 58, 75
4, 384, Note_on_c, 1, 55, 75
4, 404, Note_on_c, 1, 58, 0
4, 404, Note_on_c, 1, 55, 0
4, 480, Note_on_c, 1, 70, 75
4, 480, Note_on_c, 1, 67, 75
4, 500, Note_on_c, 1, 70, 0
4, 500, Note_on_c, 1, 67, 0
4, 624, Note_on_c, 1, 69, 75
4, 720, Note_on_c, 1, 69, 0
4, 720, Note_on_c, 1, 66, 75
4, 765, Note_on_c, 1, 66, 0
4, 768, Note_on_c, 1, 67, 75
4, 807, Note_on_c, 1, 67, 0
4, 864, Note_on_c, 1, 60, 75
4, 903, Note_on_c, 1, 60, 0
4, 1008, Note_on_c, 1, 62, 75
4, 1053, Note_on_c, 1, 62, 0
4, 1056, Note_on_c, 1, 50, 75
4, 1101, Note_on_c, 1, 50, 0
4, 1248, Note_on_c, 1, 67, 96
4, 1433, Note_on_c, 1, 67, 0
4, 1440, Note_on_c, 1, 66, 75
4, 1529, Note_on_c, 1, 66, 0
4, 1536, Note_on_c, 1, 67, 75
4, 1581, Note_on_c, 1, 67, 0
4, 1584, Note_on_c, 1, 63, 75
4, 1629, Note_on_c, 1, 63, 0
4, 1632, Note_on_c, 1, 60, 75
4, 1677, Note_on_c, 1, 60, 0
4, 1680, Note_on_c, 1, 62, 75
4, 1725, Note_on_c, 1, 62, 0
4, 1728, Note_on_c, 1, 55, 75
4, 1822, Note_on_c, 1, 55, 0
4, 2160, Note_on_c, 1, 67, 75
4, 2160, Note_on_c, 1, 61, 75
4, 2208, Note_on_c, 1, 67, 0
4, 2208, Note_on_c, 1, 61, 0
4, 2208, Note_on_c, 1, 66, 75
4, 2208, Note_on_c, 1, 62, 75
4, 2255, Note_on_c, 1, 66, 0
4, 2255, Note_on_c, 1, 62, 0
4, 2544, Note_on_c, 1, 63, 61
4, 2544, Note_on_c, 1, 57, 61
4, 2544, Note_on_c, 1, 53, 61
4, 2564, Note_on_c, 1, 63, 0
4, 2564, Note_on_c, 1, 57, 0
4, 2564, Note_on_c, 1, 53, 0
4, 2592, Note_on_c, 1, 63, 61
4, 2592, Note_on_c, 1, 57, 61
4, 2592, Note_on_c, 1, 53, 61
4, 2639, Note_on_c, 1, 63, 0
4, 2639, Note_on_c, 1, 57, 0
4, 2639, Note_on_c, 1, 53, 0
4, 2736, Note_on_c, 1, 62, 61
4, 2736, Note_on_c, 1, 58, 61
4, 2736, Note_on_c, 1, 53, 61
4, 2756, Note_on_c, 1, 62, 0
4, 2756, Note_on_c, 1, 58, 0
4, 2756, Note_on_c, 1, 53, 0
4, 2784, Note_on_c, 1, 62, 61
4, 2784, Note_on_c, 1, 58, 61
4, 2784, Note_on_c, 1, 53, 61
4, 2831, Note_on_c, 1, 62, 0
4, 2831, Note_on_c, 1, 58, 0
4, 2831, Note_on_c, 1, 53, 0
4, 2928, Note_on_c, 1, 63, 61
4, 2928, Note_on_c, 1, 57, 61
4, 2928, Note_on_c, 1, 53, 61
4, 2948, Note_on_c, 1, 63, 0
4, 2948, Note_on_c, 1, 57, 0
4, 2948, Note_on_c, 1, 53, 0
4, 2976, Note_on_c, 1, 63, 61
4, 2976, Note_on_c, 1, 57, 61
4, 2976, Note_on_c, 1, 53, 61
4, 3023, Note_on_c, 1, 63, 0
4, 3023, Note_on_c, 1, 57, 0
4, 3023, Note_on_c, 1, 53, 0
4, 3120, Note_on_c, 1, 62, 61
4, 3120, Note_on_c, 1, 58, 61
4, 3120, Note_on_c, 1, 53, 61
4, 3140, Note_on_c, 1, 62, 0
4, 3140, Note_on_c, 1, 58, 0
4, 3140, Note_on_c, 1, 53, 0
4, 3168, Note_on_c, 1, 62, 61
4, 3168, Note_on_c, 1, 58, 61
4, 3168, Note_on_c, 1, 53, 61
4, 3215, Note_on_c, 1, 62, 0
4, 3215, Note_on_c, 1, 58, 0
4, 3215, Note_on_c, 1, 53, 0
4, 3312, Note_on_c, 1, 63, 61
4, 3312, Note_on_c, 1, 57, 61
4, 3312, Note_on_c, 1, 53, 61
4, 3332, Note_on_c, 1, 63, 0
4, 3332, Note_on_c, 1, 57, 0
4, 3332, Note_on_c, 1, 53, 0
4, 3360, Note_on_c, 1, 63, 61
4, 3360, Note_on_c, 1, 57, 61
4, 3360, Note_on_c, 1, 53, 61
4, 3407, Note_on_c, 1, 63, 0
4, 3407, Note_on_c, 1, 57, 0
4, 3407, Note_on_c, 1, 53, 0
4, 3504, Note_on_c, 1, 61, 61
4, 3504, Note_on_c, 1, 58, 61
4, 3504, Note_on_c, 1, 53, 61
4, 3524, Note_on_c, 1, 61, 0
4, 3524, Note_on_c, 1, 58, 0
4, 3524, Note_on_c, 1, 53, 0
4, 3552, Note_on_c, 1, 61, 61
4, 3552, Note_on_c, 1, 58, 61
4, 3552, Note_on_c, 1, 53, 61
4, 3599, Note_on_c, 1, 61, 0
4, 3599, Note_on_c, 1, 58, 0
4, 3599, Note_on_c, 1, 53, 0
4, 3696, Note_on_c, 1, 63, 61
4, 3696, Note_on_c, 1, 57, 61
4, 3696, Note_on_c, 1, 53, 61
4, 3716, Note_on_c, 1, 63, 0
4, 3716, Note_on_c, 1, 57, 0
4, 3716, Note_on_c, 1, 53, 0
4, 3744, Note_on_c, 1, 63, 61
4, 3744, Note_on_c, 1, 57, 61
4, 3744, Note_on_c, 1, 53, 61
4, 3791, Note_on_c, 1, 63, 0
4, 3791, Note_on_c, 1, 57, 0
4, 3791, Note_on_c, 1, 53, 0
4, 3888, Note_on_c, 1, 61, 61
4, 3908, Note_on_c, 1, 61, 0
4, 3936, Note_on_c, 1, 61, 61
4, 3981, Note_on_c, 1, 61, 0
4, 3984, Note_on_c, 1, 60, 61
4, 4029, Note_on_c, 1, 60, 0
4, 4032, Note_on_c, 1, 58, 69
4, 4165, Note_on_c, 1, 58, 0
4, 4176, Note_on_c, 1, 60, 69
4, 4221, Note_on_c, 1, 60, 0
4, 4224, Note_on_c, 1, 61, 69
4, 4461, Note_on_c, 1, 61, 0
4, 4464, Note_on_c, 1, 61, 69
4, 4509, Note_on_c, 1, 61, 0
4, 4512, Note_on_c, 1, 60, 69
4, 4557, Note_on_c, 1, 60, 0
4, 4560, Note_on_c, 1, 58, 69
4, 4605, Note_on_c, 1, 58, 0
4, 4608, Note_on_c, 1, 58, 69
4, 4704, Note_on_c, 1, 58, 0
4, 4704, Note_on_c, 1, 57, 69
4, 4793, Note_on_c, 1, 57, 0
4, 5040, Note_on_c, 1, 77, 84
4, 5040, Note_on_c, 1, 74, 84
4, 5088, Note_on_c, 1, 77, 0
4, 5088, Note_on_c, 1, 74, 0
4, 5088, Note_on_c, 1, 75, 84
4, 5088, Note_on_c, 1, 72, 84
4, 5133, Note_on_c, 1, 75, 0
4, 5133, Note_on_c, 1, 72, 0
4, 5232, Note_on_c, 1, 70, 84
4, 5232, Note_on_c, 1, 64, 84
4, 5280, Note_on_c, 1, 70, 0
4, 5280, Note_on_c, 1, 64, 0
4, 5280, Note_on_c, 1, 69, 84
4, 5280, Note_on_c, 1, 65, 84
4, 5325, Note_on_c, 1, 69, 0
4, 5325, Note_on_c, 1, 65, 0
4, 5424, Note_on_c, 1, 77, 69
4, 5424, Note_on_c, 1, 74, 69
4, 5472, Note_on_c, 1, 77, 0
4, 5472, Note_on_c, 1, 74, 0
4, 5472, Note_on_c, 1, 75, 69
4, 5472, Note_on_c, 1, 72, 69
4, 5517, Note_on_c, 1, 75, 0
4, 5517, Note_on_c, 1, 72, 0
4, 5616, Note_on_c, 1, 70, 69
4, 5616, Note_on_c, 1, 64, 69
4, 5664, Note_on_c, 1, 70, 0
4, 5664, Note_on_c, 1, 64, 0
4, 5664, Note_on_c, 1, 69, 69
4, 5664, Note_on_c, 1, 65, 69
4, 5709, Note_on_c, 1, 69, 0
4, 5709, Note_on_c, 1, 65, 0
4, 5712, Note_on_c, 1, 58, 69
4, 5805, Note_on_c, 1, 58, 0
4, 5808, Note_on_c, 1, 55, 70
4, 5853, Note_on_c, 1, 55, 0
4, 5856, Note_on_c, 1, 60, 71
4, 5997, Note_on_c, 1, 60, 0
4, 6000, Note_on_c, 1, 57, 73
4, 6045, Note_on_c, 1, 57, 0
4, 6048, Note_on_c, 1, 62, 74
4, 6189, Note_on_c, 1, 62, 0
4, 6192, Note_on_c, 1, 58, 76
4, 6237, Note_on_c, 1, 58, 0
4, 6240, Note_on_c, 1, 63, 76
4, 6381, Note_on_c, 1, 63, 0
4, 6384, Note_on_c, 1, 60, 79
4, 6429, Note_on_c, 1, 60, 0
4, 6432, Note_on_c, 1, 65, 79
4, 6573, Note_on_c, 1, 65, 0
4, 6576, Note_on_c, 1, 62, 81
4, 6621, Note_on_c, 1, 62, 0
4, 6624, Note_on_c, 1, 67, 82
4, 6713, Note_on_c, 1, 67, 0
4, 6744, Note_on_c, 1, 58, 84
4, 6767, Note_on_c, 1, 58, 0
4, 6768, Note_on_c, 1, 61, 84
4, 6791, Note_on_c, 1, 61, 0
4, 6792, Note_on_c, 1, 64, 84
4, 6815, Note_on_c, 1, 64, 0
4, 6816, Note_on_c, 1, 67, 84
4, 6839, Note_on_c, 1, 67, 0
4, 6840, Note_on_c, 1, 70, 84
4, 6863, Note_on_c, 1, 70, 0
4, 6864, Note_on_c, 1, 73, 84
4, 6887, Note_on_c, 1, 73, 0
4, 6936, Note_on_c, 1, 57, 84
4, 6959, Note_on_c, 1, 57, 0
4, 6960, Note_on_c, 1, 60, 84
4, 6983, Note_on_c, 1, 60, 0
4, 6984, Note_on_c, 1, 64, 84
4, 7007, Note_on_c, 1, 64, 0
4, 7008, Note_on_c, 1, 65, 84
4, 7031, Note_on_c, 1, 65, 0
4, 7032, Note_on_c, 1, 69, 84
4, 7055, Note_on_c, 1, 69, 0
4, 7056, Note_on_c, 1, 72, 84
4, 7079, Note_on_c, 1, 72, 0
4, 7128, Note_on_c, 1, 53, 84
4, 7151, Note_on_c, 1, 53, 0
4, 7152, Note_on_c, 1, 57, 84
4, 7175, Note_on_c, 1, 57, 0
4, 7176, Note_on_c, 1, 60, 84
4, 7199, Note_on_c, 1, 60, 0
4, 7200, Note_on_c, 1, 65, 84
4, 7223, Note_on_c, 1, 65, 0
4, 7224, Note_on_c, 1, 69, 84
4, 7247, Note_on_c, 1, 69, 0
4, 7248, Note_on_c, 1, 72, 84
4, 7271, Note_on_c, 1, 72, 0
4, 7272, Note_on_c, 1, 69, 84
4, 7295, Note_on_c, 1, 69, 0
4, 7296, Note_on_c, 1, 70, 84
4, 7341, Note_on_c, 1, 70, 0
4, 7392, Note_on_c, 1, 58, 84
4, 7392, Note_on_c, 1, 50, 84
4, 7488, Note_on_c, 1, 50, 0
4, 7488, Note_on_c, 1, 51, 84
4, 7577, Note_on_c, 1, 58, 0
4, 7577, Note_on_c, 1, 51, 0
4, 7632, Note_on_c, 1, 58, 84
4, 7632, Note_on_c, 1, 51, 84
4, 7680, Note_on_c, 1, 51, 0
4, 7813, Note_on_c, 1, 58, 0
4, 7824, Note_on_c, 1, 57, 84
4, 7869, Note_on_c, 1, 57, 0
4, 7872, Note_on_c, 1, 58, 84
4, 7895, Note_on_c, 1, 58, 0
4, 7896, Note_on_c, 1, 46, 84
4, 7919, Note_on_c, 1, 46, 0
4, 7920, Note_on_c, 1, 50, 84
4, 7943, Note_on_c, 1, 50, 0
4, 7944, Note_on_c, 1, 53, 84
4, 7967, Note_on_c, 1, 53, 0
4, 7968, Note_on_c, 1, 58, 84
4, 8013, Note_on_c, 1, 58, 0
4, 8304, Note_on_c, 1, 64, 75
4, 8352, Note_on_c, 1, 64, 0
4, 8352, Note_on_c, 1, 65, 75
4, 8397, Note_on_c, 1, 65, 0
4, 8688, Note_on_c, 1, 53, 75
4, 8736, Note_on_c, 1, 53, 0
4, 8736, Note_on_c, 1, 58, 75
4, 8781, Note_on_c, 1, 58, 0
4, 9072, Note_on_c, 1, 57, 75
4, 9072, Note_on_c, 1, 53, 75
4, 9117, Note_on_c, 1, 57, 0
4, 9117, Note_on_c, 1, 53, 0
4, 9120, Note_on_c, 1, 58, 75
4, 9120, Note_on_c, 1, 55, 75
4, 9165, Note_on_c, 1, 58, 0
4, 9165, Note_on_c, 1, 55, 0
4, 9168, Note_on_c, 1, 60, 75
4, 9168, Note_on_c, 1, 57, 75
4, 9213, Note_on_c, 1, 60, 0
4, 9213, Note_on_c, 1, 57, 0
4, 9216, Note_on_c, 1, 58, 75
4, 9261, Note_on_c, 1, 58, 0
4, 9264, Note_on_c, 1, 51, 75
4, 9309, Note_on_c, 1, 51, 0
4, 9312, Note_on_c, 1, 53, 75
4, 9401, Note_on_c, 1, 53, 0
4, 9408, Note_on_c, 1, 58, 75
4, 9453, Note_on_c, 1, 58, 0
4, 9456, Note_on_c, 1, 46, 75
4, 9501, Note_on_c, 1, 46, 0
4, 9504, Note_on_c, 1, 50, 78
4, 9549, Note_on_c, 1, 50, 0
4, 9552, Note_on_c, 1, 53, 81
4, 9597, Note_on_c, 1, 53, 0
4, 9600, Note_on_c, 1, 62, 84
4, 9600, Note_on_c, 1, 58, 84
4, 9648, Note_on_c, 1, 62, 0
4, 9648, Note_on_c, 1, 58, 0
4, 9648, Note_on_c, 1, 60, 87
4, 9648, Note_on_c, 1, 57, 87
4, 9668, Note_on_c, 1, 60, 0
4, 9668, Note_on_c, 1, 57, 0
4, 9696, Note_on_c, 1, 63, 91
4, 9696, Note_on_c, 1, 60, 91
4, 9744, Note_on_c, 1, 63, 0
4, 9744, Note_on_c, 1, 60, 0
4, 9744, Note_on_c, 1, 62, 95
4, 9744, Note_on_c, 1, 58, 95
4, 9764, Note_on_c, 1, 62, 0
4, 9764, Note_on_c, 1, 58, 0
4, 9792, Note_on_c, 1, 67, 98
4, 9792, Note_on_c, 1, 63, 98
4, 9840, Note_on_c, 1, 67, 0
4, 9840, Note_on_c, 1, 69, 102
4, 9885, Note_on_c, 1, 69, 0
4, 9885, Note_on_c, 1, 63, 0
4, 9888, Note_on_c, 1, 70, 106
4, 9888, Note_on_c, 1, 62, 106
4, 9933, Note_on_c, 1, 70, 0
4, 9933, Note_on_c, 1, 62, 0
4, 9936, Note_on_c, 1, 58, 84
4, 9936, Note_on_c, 1, 50, 84
4, 9981, Note_on_c, 1, 58, 0
4, 9981, Note_on_c, 1, 50, 0
4, 9984, Note_on_c, 1, 58, 81
4, 9984, Note_on_c, 1, 51, 81
4, 10073, Note_on_c, 1, 58, 0
4, 10073, Note_on_c, 1, 51, 0
4, 10080, Note_on_c, 1, 58, 77
4, 10080, Note_on_c, 1, 53, 77
4, 10128, Note_on_c, 1, 58, 0
4, 10128, Note_on_c, 1, 57, 75
4, 10173, Note_on_c, 1, 57, 0
4, 10173, Note_on_c, 1, 53, 0
4, 10176, Note_on_c, 1, 58, 75
4, 10221, Note_on_c, 1, 58, 0
4, 10224, Note_on_c, 1, 46, 75
4, 10244, Note_on_c, 1, 46, 0
4, 10272, Note_on_c, 1, 50, 78
4, 10292, Note_on_c, 1, 50, 0
4, 10320, Note_on_c, 1, 53, 81
4, 10340, Note_on_c, 1, 53, 0
4, 10368, Note_on_c, 1, 62, 84
4, 10391, Note_on_c, 1, 62, 0
4, 10392, Note_on_c, 1, 58, 85
4, 10415, Note_on_c, 1, 58, 0
4, 10416, Note_on_c, 1, 60, 87
4, 10439, Note_on_c, 1, 60, 0
4, 10440, Note_on_c, 1, 57, 88
4, 10463, Note_on_c, 1, 57, 0
4, 10464, Note_on_c, 1, 63, 90
4, 10487, Note_on_c, 1, 63, 0
4, 10488, Note_on_c, 1, 60, 91
4, 10511, Note_on_c, 1, 60, 0
4, 10512, Note_on_c, 1, 62, 93
4, 10535, Note_on_c, 1, 62, 0
4, 10536, Note_on_c, 1, 58, 95
4, 10559, Note_on_c, 1, 58, 0
4, 10560, Note_on_c, 1, 67, 96
4, 10560, Note_on_c, 1, 63, 96
4, 10608, Note_on_c, 1, 67, 0
4, 10608, Note_on_c, 1, 69, 99
4, 10653, Note_on_c, 1, 69, 0
4, 10653, Note_on_c, 1, 63, 0
4, 10656, Note_on_c, 1, 70, 102
4, 10656, Note_on_c, 1, 62, 102
4, 10701, Note_on_c, 1, 70, 0
4, 10701, Note_on_c, 1, 62, 0
4, 10704, Note_on_c, 1, 58, 84
4, 10704, Note_on_c, 1, 50, 84
4, 10749, Note_on_c, 1, 58, 0
4, 10749, Note_on_c, 1, 50, 0
4, 10752, Note_on_c, 1, 58, 81
4, 10752, Note_on_c, 1, 51, 81
4, 10841, Note_on_c, 1, 58, 0
4, 10841, Note_on_c, 1, 51, 0
4, 10848, Note_on_c, 1, 58, 77
4, 10848, Note_on_c, 1, 53, 77
4, 10896, Note_on_c, 1, 58, 0
4, 10896, Note_on_c, 1, 57, 75
4, 10941, Note_on_c, 1, 57, 0
4, 10941, Note_on_c, 1, 53, 0
4, 10944, Note_on_c, 1, 58, 75
4, 10967, Note_on_c, 1, 58, 0
4, 10968, Note_on_c, 1, 46, 75
4, 10991, Note_on_c, 1, 46, 0
4, 10992, Note_on_c, 1, 50, 75
4, 11015, Note_on_c, 1, 50, 0
4, 11016, Note_on_c, 1, 53, 75
4, 11039, Note_on_c, 1, 53, 0
4, 11040, Note_on_c, 1, 58, 75
4, 11085, Note_on_c, 1, 58, 0
4, 11136, Note_on_c, 1, 34, 75
4, 11175, Note_on_c, 1, 34, 0
4, 11232, Note_on_c, 1, 46, 75
4, 11271, Note_on_c, 1, 46, 0
4, 11328, Note_on_c, 1, 34, 75
4, 11367, Note_on_c, 1, 34, 0
4, 11424, Note_on_c, 1, 58, 69
4, 11424, Note_on_c, 1, 55, 69
4, 11513, Note_on_c, 1, 58, 0
4, 11513, Note_on_c, 1, 55, 0
4, 11520, Note_on_c, 1, 57, 67
4, 11520, Note_on_c, 1, 53, 67
4, 11609, Note_on_c, 1, 57, 0
4, 11609, Note_on_c, 1, 53, 0
4, 11616, Note_on_c, 1, 55, 65
4, 11616, Note_on_c, 1, 51, 65
4, 11705, Note_on_c, 1, 55, 0
4, 11705, Note_on_c, 1, 51, 0
4, 11712, Note_on_c, 1, 54, 63
4, 11712, Note_on_c, 1, 50, 63
4, 11801, Note_on_c, 1, 54, 0
4, 11801, Note_on_c, 1, 50, 0
4, 11904, Note_on_c, 1, 58, 75
4, 11904, Note_on_c, 1, 55, 75
4, 11924, Note_on_c, 1, 58, 0
4, 11924, Note_on_c, 1, 55, 0
4, 12000, Note_on_c, 1, 70, 75
4, 12000, Note_on_c, 1, 67, 75
4, 12020, Note_on_c, 1, 70, 0
4, 12020, Note_on_c, 1, 67, 0
4, 12144, Note_on_c, 1, 69, 75
4, 12240, Note_on_c, 1, 69, 0
4, 12240, Note_on_c, 1, 66, 75
4, 12285, Note_on_c, 1, 66, 0
4, 12288, Note_on_c, 1, 67, 75
4, 12327, Note_on_c, 1, 67, 0
4, 12384, Note_on_c, 1, 60, 75
4, 12423, Note_on_c, 1, 60, 0
4, 12528, Note_on_c, 1, 62, 75
4, 12573, Note_on_c, 1, 62, 0
4, 12576, Note_on_c, 1, 50, 75
4, 12621, Note_on_c, 1, 50, 0
4, 12768, Note_on_c, 1, 67, 96
4, 12953, Note_on_c, 1, 67, 0
4, 12960, Note_on_c, 1, 66, 75
4, 13049, Note_on_c, 1, 66, 0
4, 13056, Note_on_c, 1, 67, 75
4, 13101, Note_on_c, 1, 67, 0
4, 13104, Note_on_c, 1, 63, 75
4, 13149, Note_on_c, 1, 63, 0
4, 13152, Note_on_c, 1, 60, 75
4, 13197, Note_on_c, 1, 60, 0
4, 13200, Note_on_c, 1, 62, 75
4, 13245, Note_on_c, 1, 62, 0
4, 13248, Note_on_c, 1, 55, 75
4, 13342, Note_on_c, 1, 55, 0
4, 13680, Note_on_c, 1, 67, 75
4, 13680, Note_on_c, 1, 61, 75
4, 13728, Note_on_c, 1, 67, 0
4, 13728, Note_on_c, 1, 61, 0
4, 13728, Note_on_c, 1, 66, 75
4, 13728, Note_on_c, 1, 62, 75
4, 13775, Note_on_c, 1, 66, 0
4, 13775, Note_on_c, 1, 62, 0
4, 14064, Note_on_c, 1, 63, 61
4, 14064, Note_on_c, 1, 57, 61
4, 14064, Note_on_c, 1, 53, 61
4, 14084, Note_on_c, 1, 63, 0
4, 14084, Note_on_c, 1, 57, 0
4, 14084, Note_on_c, 1, 53, 0
4, 14112, Note_on_c, 1, 63, 61
4, 14112, Note_on_c, 1, 57, 61
4, 14112, Note_on_c, 1, 53, 61
4, 14159, Note_on_c, 1, 63, 0
4, 14159, Note_on_c, 1, 57, 0
4, 14159, Note_on_c, 1, 53, 0
4, 14256, Note_on_c, 1, 62, 61
4, 14256, Note_on_c, 1, 58, 61
4, 14256, Note_on_c, 1, 53, 61
4, 14276, Note_on_c, 1, 62, 0
4, 14276, Note_on_c, 1, 58, 0
4, 14276, Note_on_c, 1, 53, 0
4, 14304, Note_on_c, 1, 62, 61
4, 14304, Note_on_c, 1, 58, 61
4, 14304, Note_on_c, 1, 53, 61
4, 14351, Note_on_c, 1, 62, 0
4, 14351, Note_on_c, 1, 58, 0
4, 14351, Note_on_c, 1, 53, 0
4, 14448, Note_on_c, 1, 63, 61
4, 14448, Note_on_c, 1, 57, 61
4, 14448, Note_on_c, 1, 53, 61
4, 14468, Note_on_c, 1, 63, 0
4, 14468, Note_on_c, 1, 57, 0
4, 14468, Note_on_c, 1, 53, 0
4, 14496, Note_on_c, 1, 63, 61
4, 14496, Note_on_c, 1, 57, 61
4, 14496, Note_on_c, 1, 53, 61
4, 14543, Note_on_c, 1, 63, 0
4, 14543, Note_on_c, 1, 57, 0
4, 14543, Note_on_c, 1, 53, 0
4, 14640, Note_on_c, 1, 62, 61
4, 14640, Note_on_c, 1, 58, 61
4, 14640, Note_on_c, 1, 53, 61
4, 14660, Note_on_c, 1, 62, 0
4, 14660, Note_on_c, 1, 58, 0
4, 14660, Note_on_c, 1, 53, 0
4, 14688, Note_on_c, 1, 62, 61
4, 14688, Note_on_c, 1, 58, 61
4, 14688, Note_on_c, 1, 53, 61
4, 14735, Note_on_c, 1, 62, 0
4, 14735, Note_on_c, 1, 58, 0
4, 14735, Note_on_c, 1, 53, 0
4, 14832, Note_on_c, 1, 63, 61
4, 14832, Note_on_c, 1, 57, 61
4, 14832, Note_on_c, 1, 53, 61
4, 14852, Note_on_c, 1, 63, 0
4, 14852, Note_on_c, 1, 57, 0
4, 14852, Note_on_c, 1, 53, 0
4, 14880, Note_on_c, 1, 63, 61
4, 14880, Note_on_c, 1, 57, 61
4, 14880, Note_on_c, 1, 53, 61
4, 14927, Note_on_c, 1, 63, 0
4, 14927, Note_on_c, 1, 57, 0
4, 14927, Note_on_c, 1, 53, 0
4, 15024, Note_on_c, 1, 61, 61
4, 15024, Note_on_c, 1, 58, 61
4, 15024, Note_on_c, 1, 53, 61
4, 15044, Note_on_c, 1, 61, 0
4, 15044, Note_on_c, 1, 58, 0
4, 15044, Note_on_c, 1, 53, 0
4, 15072, Note_on_c, 1, 61, 61
4, 15072, Note_on_c, 1, 58, 61
4, 15072, Note_on_c, 1, 53, 61
4, 15119, Note_on_c, 1, 61, 0
4, 15119, Note_on_c, 1, 58, 0
4, 15119, Note_on_c, 1, 53, 0
4, 15216, Note_on_c, 1, 63, 61
4, 15216, Note_on_c, 1, 57, 61
4, 15216, Note_on_c, 1, 53, 61
4, 15236, Note_on_c, 1, 63, 0
4, 15236, Note_on_c, 1, 57, 0
4, 15236, Note_on_c, 1, 53, 0
4, 15264, Note_on_c, 1, 63, 61
4, 15264, Note_on_c, 1, 57, 61
4, 15264, Note_on_c, 1, 53, 61
4, 15311, Note_on_c, 1, 63, 0
4, 15311, Note_on_c, 1, 57, 0
4, 15311, Note_on_c, 1, 53, 0
4, 15408, Note_on_c, 1, 61, 61
4, 15428, Note_on_c, 1, 61, 0
4, 15456, Note_on_c, 1, 61, 61
4, 15501, Note_on_c, 1, 61, 0
4, 15504, Note_on_c, 1, 60, 61
4, 15549, Note_on_c, 1, 60, 0
4, 15552, Note_on_c, 1, 58, 69
4, 15685, Note_on_c, 1, 58, 0
4, 15696, Note_on_c, 1, 60, 69
4, 15741, Note_on_c, 1, 60, 0
4, 15744, Note_on_c, 1, 61, 69
4, 15981, Note_on_c, 1, 61, 0
4, 15984, Note_on_c, 1, 61, 69
4, 16029, Note_on_c, 1, 61, 0
4, 16032, Note_on_c, 1, 60, 69
4, 16077, Note_on_c, 1, 60, 0
4, 16080, Note_on_c, 1, 58, 69
4, 16125, Note_on_c, 1, 58, 0
4, 16128, Note_on_c, 1, 58, 69
4, 16224, Note_on_c, 1, 58, 0
4, 16224, Note_on_c, 1, 57, 69
4, 16313, Note_on_c, 1, 57, 0
4, 16560, Note_on_c, 1, 77, 84
4, 16560, Note_on_c, 1, 74, 84
4, 16608, Note_on_c, 1, 77, 0
4, 16608, Note_on_c, 1, 74, 0
4, 16608, Note_on_c, 1, 75, 84
4, 16608, Note_on_c, 1, 72, 84
4, 16653, Note_on_c, 1, 75, 0
4, 16653, Note_on_c, 1, 72, 0
4, 16752, Note_on_c, 1, 70, 84
4, 16752, Note_on_c, 1, 64, 84
4, 16800, Note_on_c, 1, 70, 0
4, 16800, Note_on_c, 1, 64, 0
4, 16800, Note_on_c, 1, 69, 84
4, 16800, Note_on_c, 1, 65, 84
4, 16845, Note_on_c, 1, 69, 0
4, 16845, Note_on_c, 1, 65, 0
4, 16944, Note_on_c, 1, 77, 69
4, 16944, Note_on_c, 1, 74, 69
4, 16992, Note_on_c, 1, 77, 0
4, 16992, Note_on_c, 1, 74, 0
4, 16992, Note_on_c, 1, 75, 69
4, 16992, Note_on_c, 1, 72, 69
4, 17037, Note_on_c, 1, 75, 0
4, 17037, Note_on_c, 1, 72, 0
4, 17136, Note_on_c, 1, 70, 69
4, 17136, Note_on_c, 1, 64, 69
4, 17184, Note_on_c, 1, 70, 0
4, 17184, Note_on_c, 1, 64, 0
4, 17184, Note_on_c, 1, 69, 69
4, 17184, Note_on_c, 1, 65, 69
4, 17229, Note_on_c, 1, 69, 0
4, 17229, Note_on_c, 1, 65, 0
4, 17232, Note_on_c, 1, 58, 69
4, 17325, Note_on_c, 1, 58, 0
4, 17328, Note_on_c, 1, 55, 70
4, 17373, Note_on_c, 1, 55, 0
4, 17376, Note_on_c, 1, 60, 71
4, 17517, Note_on_c, 1, 60, 0
4, 17520, Note_on_c, 1, 57, 73
4, 17565, Note_on_c, 1, 57, 0
4, 17568, Note_on_c, 1, 62, 74
4, 17709, Note_on_c, 1, 62, 0
4, 17712, Note_on_c, 1, 58, 76
4, 17757, Note_on_c, 1, 58, 0
4, 17760, Note_on_c, 1, 63, 76
4, 17901, Note_on_c, 1, 63, 0
4, 17904, Note_on_c, 1, 60, 79
4, 17949, Note_on_c, 1, 60, 0
4, 17952, Note_on_c, 1, 65, 79
4, 18093, Note_on_c, 1, 65, 0
4, 18096, Note_on_c, 1, 62, 81
4, 18141, Note_on_c, 1, 62, 0
4, 18144, Note_on_c, 1, 67, 82
4, 18233, Note_on_c, 1, 67, 0
4, 18264, Note_on_c, 1, 58, 84
4, 18287, Note_on_c, 1, 58, 0
4, 18288, Note_on_c, 1, 61, 84
4, 18311, Note_on_c, 1, 61, 0
4, 18312, Note_on_c, 1, 64, 84
4, 18335, Note_on_c, 1, 64, 0
4, 18336, Note_on_c, 1, 67, 84
4, 18359, Note_on_c, 1, 67, 0
4, 18360, Note_on_c, 1, 70, 84
4, 18383, Note_on_c, 1, 70, 0
4, 18384, Note_on_c, 1, 73, 84
4, 18407, Note_on_c, 1, 73, 0
4, 18456, Note_on_c, 1, 57, 84
4, 18479, Note_on_c, 1, 57, 0
4, 18480, Note_on_c, 1, 60, 84
4, 18503, Note_on_c, 1, 60, 0
4, 18504, Note_on_c, 1, 64, 84
4, 18527, Note_on_c, 1, 64, 0
4, 18528, Note_on_c, 1, 65, 84
4, 18551, Note_on_c, 1, 65, 0
4, 18552, Note_on_c, 1, 69, 84
4, 18575, Note_on_c, 1, 69, 0
4, 18576, Note_on_c, 1, 72, 84
4, 18599, Note_on_c, 1, 72, 0
4, 18648, Note_on_c, 1, 53, 84
4, 18671, Note_on_c, 1, 53, 0
4, 18672, Note_on_c, 1, 57, 84
4, 18695, Note_on_c, 1, 57, 0
4, 18696, Note_on_c, 1, 60, 84
4, 18719, Note_on_c, 1, 60, 0
4, 18720, Note_on_c, 1, 65, 84
4, 18743, Note_on_c, 1, 65, 0
4, 18744, Note_on_c, 1, 69, 84
4, 18767, Note_on_c, 1, 69, 0
4, 18768, Note_on_c, 1, 72, 84
4, 18791, Note_on_c, 1, 72, 0
4, 18792, Note_on_c, 1, 69, 84
4, 18815, Note_on_c, 1, 69, 0
4, 18816, Note_on_c, 1, 70, 84
4, 18861, Note_on_c, 1, 70, 0
4, 18912, Note_on_c, 1, 58, 84
4, 18912, Note_on_c, 1, 50, 84
4, 19008, Note_on_c, 1, 50, 0
4, 19008, Note_on_c, 1, 51, 84
4, 19097, Note_on_c, 1, 58, 0
4, 19097, Note_on_c, 1, 51, 0
4, 19152, Note_on_c, 1, 58, 84
4, 19152, Note_on_c, 1, 51, 84
4, 19200, Note_on_c, 1, 51, 0
4, 19333, Note_on_c, 1, 58, 0
4, 19344, Note_on_c, 1, 57, 84
4, 19389, Note_on_c, 1, 57, 0
4, 19392, Note_on_c, 1, 58, 84
4, 19415, Note_on_c, 1, 58, 0
4, 19416, Note_on_c, 1, 46, 84
4, 19439, Note_on_c, 1, 46, 0
4, 19440, Note_on_c, 1, 50, 84
4, 19463, Note_on_c, 1, 50, 0
4, 19464, Note_on_c, 1, 53, 84
4, 19487, Note_on_c, 1, 53, 0
4, 19488, Note_on_c, 1, 58, 84
4, 19533, Note_on_c, 1, 58, 0
4, 19824, Note_on_c, 1, 64, 75
4, 19872, Note_on_c, 1, 64, 0
4, 19872, Note_on_c, 1, 65, 75
4, 19917, Note_on_c, 1, 65, 0
4, 20208, Note_on_c, 1, 53, 75
4, 20256, Note_on_c, 1, 53, 0
4, 20256, Note_on_c, 1, 58, 75
4, 20301, Note_on_c, 1, 58, 0
4, 20592, Note_on_c, 1, 57, 75
4, 20592, Note_on_c, 1, 53, 75
4, 20637, Note_on_c, 1, 57, 0
4, 20637, Note_on_c, 1, 53, 0
4, 20640, Note_on_c, 1, 58, 75
4, 20640, Note_on_c, 1, 55, 75
4, 20685, Note_on_c, 1, 58, 0
4, 20685, Note_on_c, 1, 55, 0
4, 20688, Note_on_c, 1, 60, 75
4, 20688, Note_on_c, 1, 57, 75
4, 20733, Note_on_c, 1, 60, 0
4, 20733, Note_on_c, 1, 57, 0
4, 20736, Note_on_c, 1, 58, 75
4, 20781, Note_on_c, 1, 58, 0
4, 20784, Note_on_c, 1, 51, 75
4, 20829, Note_on_c, 1, 51, 0
4, 20832, Note_on_c, 1, 53, 75
4, 20921, Note_on_c, 1, 53, 0
4, 20928, Note_on_c, 1, 58, 75
4, 20973, Note_on_c, 1, 58, 0
4, 20976, Note_on_c, 1, 46, 75
4, 21021, Note_on_c, 1, 46, 0
4, 21024, Note_on_c, 1, 50, 78
4, 21069, Note_on_c, 1, 50, 0
4, 21072, Note_on_c, 1, 53, 81
4, 21117, Note_on_c, 1, 53, 0
4, 21120, Note_on_c, 1, 62, 84
4, 21120, Note_on_c, 1, 58, 84
4, 21168, Note_on_c, 1, 62, 0
4, 21168, Note_on_c, 1, 58, 0
4, 21168, Note_on_c, 1, 60, 87
4, 21168, Note_on_c, 1, 57, 87
4, 21188, Note_on_c, 1, 60, 0
4, 21188, Note_on_c, 1, 57, 0
4, 21216, Note_on_c, 1, 63, 91
4, 21216, Note_on_c, 1, 60, 91
4, 21264, Note_on_c, 1, 63, 0
4, 21264, Note_on_c, 1, 60, 0
4, 21264, Note_on_c, 1, 62, 95
4, 21264, Note_on_c, 1, 58, 95
4, 21284, Note_on_c, 1, 62, 0
4, 21284, Note_on_c, 1, 58, 0
4, 21312, Note_on_c, 1, 67, 98
4, 21312, Note_on_c, 1, 63, 98
4, 21360, Note_on_c, 1, 67, 0
4, 21360, Note_on_c, 1, 69, 102
4, 21405, Note_on_c, 1, 69, 0
4, 21405, Note_on_c, 1, 63, 0
4, 21408, Note_on_c, 1, 70, 106
4, 21408, Note_on_c, 1, 62, 106
4, 21453, Note_on_c, 1, 70, 0
4, 21453, Note_on_c, 1, 62, 0
4, 21456, Note_on_c, 1, 58, 84
4, 21456, Note_on_c, 1, 50, 84
4, 21501, Note_on_c, 1, 58, 0
4, 21501, Note_on_c, 1, 50, 0
4, 21504, Note_on_c, 1, 58, 81
4, 21504, Note_on_c, 1, 51, 81
4, 21593, Note_on_c, 1, 58, 0
4, 21593, Note_on_c, 1, 51, 0
4, 21600, Note_on_c, 1, 58, 77
4, 21600, Note_on_c, 1, 53, 77
4, 21648, Note_on_c, 1, 58, 0
4, 21648, Note_on_c, 1, 57, 75
4, 21693, Note_on_c, 1, 57, 0
4, 21693, Note_on_c, 1, 53, 0
4, 21696, Note_on_c, 1, 58, 75
4, 21741, Note_on_c, 1, 58, 0
4, 21744, Note_on_c, 1, 46, 75
4, 21764, Note_on_c, 1, 46, 0
4, 21792, Note_on_c, 1, 50, 78
4, 21812, Note_on_c, 1, 50, 0
4, 21840, Note_on_c, 1, 53, 81
4, 21860, Note_on_c, 1, 53, 0
4, 21888, Note_on_c, 1, 62, 84
4, 21911, Note_on_c, 1, 62, 0
4, 21912, Note_on_c, 1, 58, 85
4, 21935, Note_on_c, 1, 58, 0
4, 21936, Note_on_c, 1, 60, 87
4, 21959, Note_on_c, 1, 60, 0
4, 21960, Note_on_c, 1, 57, 88
4, 21983, Note_on_c, 1, 57, 0
4, 21984, Note_on_c, 1, 63, 90
4, 22007, Note_on_c, 1, 63, 0
4, 22008, Note_on_c, 1, 60, 91
4, 22031, Note_on_c, 1, 60, 0
4, 22032, Note_on_c, 1, 62, 93
4, 22055, Note_on_c, 1, 62, 0
4, 22056, Note_on_c, 1, 58, 95
4, 22079, Note_on_c, 1, 58, 0
4, 22080, Note_on_c, 1, 67, 96
4, 22080, Note_on_c, 1, 63, 96
4, 22128, Note_on_c, 1, 67, 0
4, 22128, Note_on_c, 1, 69, 99
4, 22173, Note_on_c, 1, 69, 0
4, 22173, Note_on_c, 1, 63, 0
4, 22176, Note_on_c, 1, 70, 102
4, 22176, Note_on_c, 1, 62, 102
4, 22221, Note_on_c, 1, 70, 0
4, 22221, Note_on_c, 1, 62, 0
4, 22224, Note_on_c, 1, 58, 84
4, 22224, Note_on_c, 1, 50, 84
4, 22269, Note_on_c, 1, 58, 0
4, 22269, Note_on_c, 1, 50, 0
4, 22272, Note_on_c, 1, 58, 84
4, 22272, Note_on_c, 1, 51, 84
4, 22361, Note_on_c, 1, 58, 0
4, 22361, Note_on_c, 1, 51, 0
4, 22368, Note_on_c, 1, 58, 68
4, 22368, Note_on_c, 1, 53, 68
4, 22416, Note_on_c, 1, 58, 0
4, 22416, Note_on_c, 1, 57, 61
4, 22461, Note_on_c, 1, 57, 0
4, 22461, Note_on_c, 1, 53, 0
4, 22464, Note_on_c, 1, 58, 61
4, 22487, Note_on_c, 1, 58, 0
4, 22488, Note_on_c, 1, 46, 61
4, 22511, Note_on_c, 1, 46, 0
4, 22512, Note_on_c, 1, 50, 61
4, 22535, Note_on_c, 1, 50, 0
4, 22536, Note_on_c, 1, 53, 61
4, 22559, Note_on_c, 1, 53, 0
4, 22560, Note_on_c, 1, 58, 61
4, 22605, Note_on_c, 1, 58, 0
4, 22656, Note_on_c, 1, 34, 61
4, 22695, Note_on_c, 1, 34, 0
4, 22752, Note_on_c, 1, 46, 61
4, 22791, Note_on_c, 1, 46, 0
4, 22848, Note_on_c, 1, 34, 61
4, 22887, Note_on_c, 1, 34, 0
4, 22944, Note_on_c, 1, 58, 69
4, 22944, Note_on_c, 1, 55, 69
4, 23033, Note_on_c, 1, 58, 0
4, 23033, Note_on_c, 1, 55, 0
4, 23040, Note_on_c, 1, 56, 67
4, 23040, Note_on_c, 1, 53, 67
4, 23129, Note_on_c, 1, 56, 0
4, 23129, Note_on_c, 1, 53, 0
4, 23136, Note_on_c, 1, 55, 65
4, 23136, Note_on_c, 1, 51, 65
4, 23225, Note_on_c, 1, 55, 0
4, 23225, Note_on_c, 1, 51, 0
4, 23232, Note_on_c, 1, 53, 63
4, 23232, Note_on_c, 1, 50, 63
4, 23321, Note_on_c, 1, 53, 0
4, 23321, Note_on_c, 1, 50, 0
4, 23664, Note_on_c, 1, 74, 75
4, 23760, Note_on_c, 1, 74, 0
4, 23760, Note_on_c, 1, 71, 75
4, 23805, Note_on_c, 1, 71, 0
4, 23808, Note_on_c, 1, 72, 75
4, 23847, Note_on_c, 1, 72, 0
4, 23904, Note_on_c, 1, 65, 75
4, 23943, Note_on_c, 1, 65, 0
4, 24048, Note_on_c, 1, 67, 75
4, 24093, Note_on_c, 1, 67, 0
4, 24096, Note_on_c, 1, 55, 75
4, 24141, Note_on_c, 1, 55, 0
4, 24288, Note_on_c, 1, 48, 96
4, 24407, Note_on_c, 1, 48, 0
4, 24408, Note_on_c, 1, 51, 75
4, 24431, Note_on_c, 1, 51, 0
4, 24432, Note_on_c, 1, 54, 75
4, 24455, Note_on_c, 1, 54, 0
4, 24456, Note_on_c, 1, 57, 75
4, 24479, Note_on_c, 1, 57, 0
4, 24480, Note_on_c, 1, 60, 75
4, 24503, Note_on_c, 1, 60, 0
4, 24504, Note_on_c, 1, 63, 75
4, 24527, Note_on_c, 1, 63, 0
4, 24528, Note_on_c, 1, 62, 75
4, 24551, Note_on_c, 1, 62, 0
4, 24552, Note_on_c, 1, 60, 75
4, 24575, Note_on_c, 1, 60, 0
4, 24576, Note_on_c, 1, 58, 75
4, 24753, Note_on_c, 1, 58, 0
4, 25056, Note_on_c, 1, 46, 96
4, 25175, Note_on_c, 1, 46, 0
4, 25176, Note_on_c, 1, 49, 75
4, 25199, Note_on_c, 1, 49, 0
4, 25200, Note_on_c, 1, 52, 75
4, 25223, Note_on_c, 1, 52, 0
4, 25224, Note_on_c, 1, 55, 75
4, 25247, Note_on_c, 1, 55, 0
4, 25248, Note_on_c, 1, 58, 75
4, 25271, Note_on_c, 1, 58, 0
4, 25272, Note_on_c, 1, 61, 75
4, 25295, Note_on_c, 1, 61, 0
4, 25296, Note_on_c, 1, 60, 75
4, 25319, Note_on_c, 1, 60, 0
4, 25320, Note_on_c, 1, 58, 75
4, 25343, Note_on_c, 1, 58, 0
4, 25344, Note_on_c, 1, 56, 75
4, 25521, Note_on_c, 1, 56, 0
4, 25776, Note_on_c, 1, 60, 61
4, 25776, Note_on_c, 1, 56, 61
4, 25776, Note_on_c, 1, 53, 61
4, 25796, Note_on_c, 1, 60, 0
4, 25796, Note_on_c, 1, 56, 0
4, 25796, Note_on_c, 1, 53, 0
4, 25824, Note_on_c, 1, 60, 61
4, 25824, Note_on_c, 1, 56, 61
4, 25824, Note_on_c, 1, 53, 61
4, 25871, Note_on_c, 1, 60, 0
4, 25871, Note_on_c, 1, 56, 0
4, 25871, Note_on_c, 1, 53, 0
4, 25968, Note_on_c, 1, 60, 61
4, 25968, Note_on_c, 1, 57, 61
4, 25968, Note_on_c, 1, 53, 61
4, 25968, Note_on_c, 1, 51, 61
4, 25988, Note_on_c, 1, 60, 0
4, 25988, Note_on_c, 1, 57, 0
4, 25988, Note_on_c, 1, 53, 0
4, 25988, Note_on_c, 1, 51, 0
4, 26016, Note_on_c, 1, 60, 61
4, 26016, Note_on_c, 1, 57, 61
4, 26016, Note_on_c, 1, 53, 61
4, 26016, Note_on_c, 1, 51, 61
4, 26063, Note_on_c, 1, 60, 0
4, 26063, Note_on_c, 1, 57, 0
4, 26063, Note_on_c, 1, 53, 0
4, 26063, Note_on_c, 1, 51, 0
4, 26160, Note_on_c, 1, 60, 61
4, 26160, Note_on_c, 1, 57, 61
4, 26160, Note_on_c, 1, 54, 61
4, 26160, Note_on_c, 1, 50, 61
4, 26180, Note_on_c, 1, 60, 0
4, 26180, Note_on_c, 1, 57, 0
4, 26180, Note_on_c, 1, 54, 0
4, 26180, Note_on_c, 1, 50, 0
4, 26208, Note_on_c, 1, 60, 61
4, 26208, Note_on_c, 1, 57, 61
4, 26208, Note_on_c, 1, 54, 61
4, 26208, Note_on_c, 1, 50, 61
4, 26255, Note_on_c, 1, 60, 0
4, 26255, Note_on_c, 1, 57, 0
4, 26255, Note_on_c, 1, 54, 0
4, 26255, Note_on_c, 1, 50, 0
4, 26352, Note_on_c, 1, 57, 61
4, 26352, Note_on_c, 1, 54, 61
4, 26352, Note_on_c, 1, 50, 61
4, 26352, Note_on_c, 1, 48, 61
4, 26372, Note_on_c, 1, 57, 0
4, 26372, Note_on_c, 1, 54, 0
4, 26372, Note_on_c, 1, 50, 0
4, 26372, Note_on_c, 1, 48, 0
4, 26400, Note_on_c, 1, 57, 61
4, 26400, Note_on_c, 1, 54, 61
4, 26400, Note_on_c, 1, 50, 61
4, 26400, Note_on_c, 1, 48, 61
4, 26447, Note_on_c, 1, 57, 0
4, 26447, Note_on_c, 1, 54, 0
4, 26447, Note_on_c, 1, 50, 0
4, 26447, Note_on_c, 1, 48, 0
4, 26544, Note_on_c, 1, 55, 61
4, 26544, Note_on_c, 1, 50, 61
4, 26544, Note_on_c, 1, 46, 61
4, 26564, Note_on_c, 1, 55, 0
4, 26564, Note_on_c, 1, 50, 0
4, 26564, Note_on_c, 1, 46, 0
4, 26592, Note_on_c, 1, 55, 61
4, 26592, Note_on_c, 1, 50, 61
4, 26592, Note_on_c, 1, 46, 61
4, 26639, Note_on_c, 1, 55, 0
4, 26639, Note_on_c, 1, 50, 0
4, 26639, Note_on_c, 1, 46, 0
4, 26712, Note_on_c, 1, 58, 69
4, 26735, Note_on_c, 1, 58, 0
4, 26736, Note_on_c, 1, 62, 69
4, 26759, Note_on_c, 1, 62, 0
4, 26760, Note_on_c, 1, 65, 69
4, 26783, Note_on_c, 1, 65, 0
4, 26784, Note_on_c, 1, 58, 69
4, 26829, Note_on_c, 1, 58, 0
4, 26904, Note_on_c, 1, 58, 69
4, 26927, Note_on_c, 1, 58, 0
4, 26928, Note_on_c, 1, 63, 69
4, 26951, Note_on_c, 1, 63, 0
4, 26952, Note_on_c, 1, 67, 69
4, 26975, Note_on_c, 1, 67, 0
4, 26976, Note_on_c, 1, 58, 69
4, 27021, Note_on_c, 1, 58, 0
4, 27096, Note_on_c, 1, 58, 69
4, 27119, Note_on_c, 1, 58, 0
4, 27120, Note_on_c, 1, 62, 69
4, 27143, Note_on_c, 1, 62, 0
4, 27144, Note_on_c, 1, 65, 69
4, 27167, Note_on_c, 1, 65, 0
4, 27168, Note_on_c, 1, 58, 69
4, 27213, Note_on_c, 1, 58, 0
4, 27288, Note_on_c, 1, 59, 69
4, 27311, Note_on_c, 1, 59, 0
4, 27312, Note_on_c, 1, 62, 69
4, 27335, Note_on_c, 1, 62, 0
4, 27336, Note_on_c, 1, 67, 69
4, 27359, Note_on_c, 1, 67, 0
4, 27360, Note_on_c, 1, 59, 69
4, 27405, Note_on_c, 1, 59, 0
4, 27480, Note_on_c, 1, 60, 69
4, 27503, Note_on_c, 1, 60, 0
4, 27504, Note_on_c, 1, 63, 69
4, 27527, Note_on_c, 1, 63, 0
4, 27528, Note_on_c, 1, 67, 69
4, 27551, Note_on_c, 1, 67, 0
4, 27552, Note_on_c, 1, 60, 69
4, 27597, Note_on_c, 1, 60, 0
4, 27672, Note_on_c, 1, 56, 69
4, 27695, Note_on_c, 1, 56, 0
4, 27696, Note_on_c, 1, 60, 69
4, 27719, Note_on_c, 1, 60, 0
4, 27720, Note_on_c, 1, 63, 69
4, 27743, Note_on_c, 1, 63, 0
4, 27744, Note_on_c, 1, 68, 69
4, 27789, Note_on_c, 1, 68, 0
4, 27864, Note_on_c, 1, 67, 69
4, 27887, Note_on_c, 1, 67, 0
4, 27888, Note_on_c, 1, 62, 69
4, 27911, Note_on_c, 1, 62, 0
4, 27912, Note_on_c, 1, 59, 69
4, 27935, Note_on_c, 1, 59, 0
4, 27936, Note_on_c, 1, 55, 69
4, 27981, Note_on_c, 1, 55, 0
4, 28032, Note_on_c, 1, 60, 75
4, 28052, Note_on_c, 1, 60, 0
4, 28080, Note_on_c, 1, 79, 75
4, 28080, Note_on_c, 1, 75, 75
4, 28128, Note_on_c, 1, 79, 0
4, 28128, Note_on_c, 1, 75, 0
4, 28128, Note_on_c, 1, 77, 75
4, 28128, Note_on_c, 1, 74, 75
4, 28173, Note_on_c, 1, 77, 0
4, 28173, Note_on_c, 1, 74, 0
4, 28224, Note_on_c, 1, 60, 75
4, 28244, Note_on_c, 1, 60, 0
4, 28272, Note_on_c, 1, 72, 75
4, 28272, Note_on_c, 1, 66, 75
4, 28320, Note_on_c, 1, 72, 0
4, 28320, Note_on_c, 1, 66, 0
4, 28320, Note_on_c, 1, 71, 75
4, 28320, Note_on_c, 1, 67, 75
4, 28365, Note_on_c, 1, 71, 0
4, 28365, Note_on_c, 1, 67, 0
4, 28416, Note_on_c, 1, 60, 69
4, 28436, Note_on_c, 1, 60, 0
4, 28464, Note_on_c, 1, 79, 69
4, 28464, Note_on_c, 1, 75, 69
4, 28512, Note_on_c, 1, 79, 0
4, 28512, Note_on_c, 1, 75, 0
4, 28512, Note_on_c, 1, 77, 69
4, 28512, Note_on_c, 1, 74, 69
4, 28557, Note_on_c, 1, 77, 0
4, 28557, Note_on_c, 1, 74, 0
4, 28608, Note_on_c, 1, 60, 69
4, 28628, Note_on_c, 1, 60, 0
4, 28656, Note_on_c, 1, 72, 69
4, 28656, Note_on_c, 1, 66, 69
4, 28704, Note_on_c, 1, 72, 0
4, 28704, Note_on_c, 1, 66, 0
4, 28704, Note_on_c, 1, 71, 69
4, 28704, Note_on_c, 1, 67, 69
4, 28749, Note_on_c, 1, 71, 0
4, 28749, Note_on_c, 1, 67, 0
4, 28752, Note_on_c, 1, 60, 84
4, 28797, Note_on_c, 1, 60, 0
4, 28800, Note_on_c, 1, 68, 84
4, 28889, Note_on_c, 1, 68, 0
4, 28944, Note_on_c, 1, 58, 84
4, 28989, Note_on_c, 1, 58, 0
4, 28992, Note_on_c, 1, 67, 84
4, 29081, Note_on_c, 1, 67, 0
4, 29808, Note_on_c, 1, 53, 75
4, 29897, Note_on_c, 1, 53, 0
4, 30192, Note_on_c, 1, 55, 75
4, 30281, Note_on_c, 1, 55, 0
4, 30528, Note_on_c, 1, 60, 75
4, 30669, Note_on_c, 1, 60, 0
4, 30672, Note_on_c, 1, 60, 75
4, 30717, Note_on_c, 1, 60, 0
4, 30720, Note_on_c, 1, 60, 75
4, 30720, Note_on_c, 1, 56, 75
4, 30720, Note_on_c, 1, 53, 75
4, 30765, Note_on_c, 1, 60, 0
4, 30765, Note_on_c, 1, 56, 0
4, 30765, Note_on_c, 1, 53, 0
4, 30768, Note_on_c, 1, 65, 75
4, 30768, Note_on_c, 1, 63, 75
4, 30813, Note_on_c, 1, 65, 0
4, 30813, Note_on_c, 1, 63, 0
4, 30816, Note_on_c, 1, 65, 75
4, 30816, Note_on_c, 1, 62, 75
4, 30861, Note_on_c, 1, 65, 0
4, 30861, Note_on_c, 1, 62, 0
4, 30864, Note_on_c, 1, 69, 75
4, 30864, Note_on_c, 1, 65, 75
4, 30864, Note_on_c, 1, 63, 75
4, 30864, Note_on_c, 1, 60, 75
4, 30909, Note_on_c, 1, 69, 0
4, 30909, Note_on_c, 1, 65, 0
4, 30909, Note_on_c, 1, 63, 0
4, 30909, Note_on_c, 1, 60, 0
4, 30912, Note_on_c, 1, 70, 75
4, 30912, Note_on_c, 1, 65, 75
4, 30912, Note_on_c, 1, 62, 75
4, 30912, Note_on_c, 1, 58, 75
4, 30957, Note_on_c, 1, 70, 0
4, 30957, Note_on_c, 1, 65, 0
4, 30957, Note_on_c, 1, 62, 0
4, 30957, Note_on_c, 1, 58, 0
4, 30960, Note_on_c, 1, 65, 75
4, 30960, Note_on_c, 1, 62, 75
4, 30960, Note_on_c, 1, 58, 75
4, 30960, Note_on_c, 1, 56, 75
4, 31005, Note_on_c, 1, 65, 0
4, 31005, Note_on_c, 1, 62, 0
4, 31005, Note_on_c, 1, 58, 0
4, 31005, Note_on_c, 1, 56, 0
4, 31008, Note_on_c, 1, 67, 75
4, 31008, Note_on_c, 1, 63, 75
4, 31008, Note_on_c, 1, 58, 75
4, 31008, Note_on_c, 1, 55, 75
4, 31053, Note_on_c, 1, 67, 0
4, 31053, Note_on_c, 1, 63, 0
4, 31053, Note_on_c, 1, 58, 0
4, 31053, Note_on_c, 1, 55, 0
4, 31056, Note_on_c, 1, 75, 75
4, 31071, Note_on_c, 1, 75, 0
4, 31072, Note_on_c, 1, 77, 75
4, 31087, Note_on_c, 1, 77, 0
4, 31088, Note_on_c, 1, 75, 75
4, 31103, Note_on_c, 1, 75, 0
4, 31104, Note_on_c, 1, 80, 75
4, 31124, Note_on_c, 1, 80, 0
4, 31152, Note_on_c, 1, 72, 75
4, 31167, Note_on_c, 1, 72, 0
4, 31168, Note_on_c, 1, 73, 75
4, 31183, Note_on_c, 1, 73, 0
4, 31184, Note_on_c, 1, 72, 75
4, 31199, Note_on_c, 1, 72, 0
4, 31200, Note_on_c, 1, 77, 75
4, 31220, Note_on_c, 1, 77, 0
4, 31248, Note_on_c, 1, 58, 75
4, 31263, Note_on_c, 1, 58, 0
4, 31264, Note_on_c, 1, 60, 75
4, 31279, Note_on_c, 1, 60, 0
4, 31280, Note_on_c, 1, 58, 75
4, 31295, Note_on_c, 1, 58, 0
4, 31344, Note_on_c, 1, 70, 75
4, 31359, Note_on_c, 1, 70, 0
4, 31360, Note_on_c, 1, 72, 75
4, 31375, Note_on_c, 1, 72, 0
4, 31376, Note_on_c, 1, 70, 75
4, 31391, Note_on_c, 1, 70, 0
4, 31536, Note_on_c, 1, 67, 75
4, 31551, Note_on_c, 1, 67, 0
4, 31552, Note_on_c, 1, 69, 75
4, 31567, Note_on_c, 1, 69, 0
4, 31568, Note_on_c, 1, 67, 75
4, 31583, Note_on_c, 1, 67, 0
4, 31584, Note_on_c, 1, 70, 75
4, 31604, Note_on_c, 1, 70, 0
4, 31632, Note_on_c, 1, 67, 75
4, 31725, Note_on_c, 1, 67, 0
4, 31728, Note_on_c, 1, 66, 75
4, 31773, Note_on_c, 1, 66, 0
4, 32112, Note_on_c, 1, 57, 75
4, 32208, Note_on_c, 1, 57, 0
4, 32208, Note_on_c, 1, 54, 75
4, 32253, Note_on_c, 1, 54, 0
4, 32256, Note_on_c, 1, 55, 75
4, 32295, Note_on_c, 1, 55, 0
4, 32352, Note_on_c, 1, 48, 75
4, 32391, Note_on_c, 1, 48, 0
4, 32496, Note_on_c, 1, 50, 75
4, 32541, Note_on_c, 1, 50, 0
4, 32544, Note_on_c, 1, 38, 75
4, 32589, Note_on_c, 1, 38, 0
4, 32736, Note_on_c, 1, 67, 96
4, 32913, Note_on_c, 1, 67, 0
4, 32928, Note_on_c, 1, 65, 75
4, 33113, Note_on_c, 1, 65, 0
4, 33120, Note_on_c, 1, 63, 75
4, 33357, Note_on_c, 1, 63, 0
4, 33360, Note_on_c, 1, 62, 75
4, 33405, Note_on_c, 1, 62, 0
4, 33408, Note_on_c, 1, 60, 75
4, 33453, Note_on_c, 1, 60, 0
4, 33456, Note_on_c, 1, 65, 75
4, 33501, Note_on_c, 1, 65, 0
4, 33504, Note_on_c, 1, 58, 75
4, 33549, Note_on_c, 1, 58, 0
4, 33552, Note_on_c, 1, 63, 75
4, 33597, Note_on_c, 1, 63, 0
4, 33600, Note_on_c, 1, 57, 75
4, 33645, Note_on_c, 1, 57, 0
4, 33648, Note_on_c, 1, 62, 75
4, 33693, Note_on_c, 1, 62, 0
4, 33696, Note_on_c, 1, 55, 75
4, 33741, Note_on_c, 1, 55, 0
4, 33744, Note_on_c, 1, 61, 75
4, 33789, Note_on_c, 1, 61, 0
4, 33792, Note_on_c, 1, 62, 75
4, 33837, Note_on_c, 1, 62, 0
4, 33840, Note_on_c, 1, 50, 75
4, 33885, Note_on_c, 1, 50, 0
4, 34032, Note_on_c, 1, 74, 84
4, 34032, Note_on_c, 1, 70, 84
4, 34080, Note_on_c, 1, 74, 0
4, 34080, Note_on_c, 1, 70, 0
4, 34080, Note_on_c, 1, 72, 84
4, 34080, Note_on_c, 1, 69, 84
4, 34125, Note_on_c, 1, 72, 0
4, 34125, Note_on_c, 1, 69, 0
4, 34224, Note_on_c, 1, 67, 84
4, 34224, Note_on_c, 1, 61, 84
4, 34272, Note_on_c, 1, 67, 0
4, 34272, Note_on_c, 1, 61, 0
4, 34272, Note_on_c, 1, 66, 84
4, 34272, Note_on_c, 1, 62, 84
4, 34317, Note_on_c, 1, 66, 0
4, 34317, Note_on_c, 1, 62, 0
4, 34416, Note_on_c, 1, 74, 69
4, 34416, Note_on_c, 1, 70, 69
4, 34464, Note_on_c, 1, 74, 0
4, 34464, Note_on_c, 1, 70, 0
4, 34464, Note_on_c, 1, 72, 69
4, 34464, Note_on_c, 1, 69, 69
4, 34509, Note_on_c, 1, 72, 0
4, 34509, Note_on_c, 1, 69, 0
4, 34608, Note_on_c, 1, 67, 69
4, 34608, Note_on_c, 1, 61, 69
4, 34656, Note_on_c, 1, 67, 0
4, 34656, Note_on_c, 1, 61, 0
4, 34656, Note_on_c, 1, 66, 69
4, 34656, Note_on_c, 1, 62, 69
4, 34701, Note_on_c, 1, 66, 0
4, 34701, Note_on_c, 1, 62, 0
4, 34704, Note_on_c, 1, 55, 75
4, 34797, Note_on_c, 1, 55, 0
4, 34800, Note_on_c, 1, 51, 75
4, 34845, Note_on_c, 1, 51, 0
4, 34848, Note_on_c, 1, 57, 76
4, 34989, Note_on_c, 1, 57, 0
4, 34992, Note_on_c, 1, 53, 77
4, 35037, Note_on_c, 1, 53, 0
4, 35040, Note_on_c, 1, 58, 78
4, 35181, Note_on_c, 1, 58, 0
4, 35184, Note_on_c, 1, 55, 80
4, 35229, Note_on_c, 1, 55, 0
4, 35232, Note_on_c, 1, 60, 80
4, 35373, Note_on_c, 1, 60, 0
4, 35376, Note_on_c, 1, 57, 82
4, 35421, Note_on_c, 1, 57, 0
4, 35424, Note_on_c, 1, 62, 82
4, 35565, Note_on_c, 1, 62, 0
4, 35568, Note_on_c, 1, 58, 84
4, 35613, Note_on_c, 1, 58, 0
4, 35616, Note_on_c, 1, 63, 84
4, 35757, Note_on_c, 1, 63, 0
4, 35760, Note_on_c, 1, 60, 84
4, 35805, Note_on_c, 1, 60, 0
4, 35808, Note_on_c, 1, 66, 84
4, 35949, Note_on_c, 1, 66, 0
4, 35952, Note_on_c, 1, 62, 84
4, 35997, Note_on_c, 1, 62, 0
4, 36000, Note_on_c, 1, 67, 84
4, 36141, Note_on_c, 1, 67, 0
4, 36144, Note_on_c, 1, 67, 84
4, 36233, Note_on_c, 1, 67, 0
4, 36240, Note_on_c, 1, 66, 84
4, 36285, Note_on_c, 1, 66, 0
4, 36312, Note_on_c, 1, 43, 84
4, 36335, Note_on_c, 1, 43, 0
4, 36336, Note_on_c, 1, 46, 84
4, 36359, Note_on_c, 1, 46, 0
4, 36360, Note_on_c, 1, 50, 84
4, 36383, Note_on_c, 1, 50, 0
4, 36384, Note_on_c, 1, 55, 84
4, 36429, Note_on_c, 1, 55, 0
4, 36480, Note_on_c, 1, 58, 75
4, 36528, Note_on_c, 1, 58, 0
4, 36528, Note_on_c, 1, 57, 75
4, 36548, Note_on_c, 1, 57, 0
4, 36576, Note_on_c, 1, 60, 75
4, 36624, Note_on_c, 1, 60, 0
4, 36624, Note_on_c, 1, 58, 75
4, 36644, Note_on_c, 1, 58, 0
4, 36720, Note_on_c, 1, 61, 75
4, 36768, Note_on_c, 1, 61, 0
4, 36768, Note_on_c, 1, 62, 75
4, 36813, Note_on_c, 1, 62, 0
4, 36864, Note_on_c, 1, 60, 75
4, 36912, Note_on_c, 1, 60, 0
4, 36912, Note_on_c, 1, 58, 75
4, 36932, Note_on_c, 1, 58, 0
4, 36960, Note_on_c, 1, 67, 75
4, 37008, Note_on_c, 1, 67, 0
4, 37008, Note_on_c, 1, 66, 75
4, 37028, Note_on_c, 1, 66, 0
4, 37104, Note_on_c, 1, 50, 75
4, 37152, Note_on_c, 1, 50, 0
4, 37152, Note_on_c, 1, 55, 75
4, 37197, Note_on_c, 1, 55, 0
4, 37728, Note_on_c, 1, 72, 75
4, 37728, Note_on_c, 1, 69, 75
4, 37773, Note_on_c, 1, 72, 0
4, 37773, Note_on_c, 1, 69, 0
4, 37776, Note_on_c, 1, 72, 79
4, 37776, Note_on_c, 1, 70, 79
4, 37776, Note_on_c, 1, 67, 79
4, 37821, Note_on_c, 1, 72, 0
4, 37821, Note_on_c, 1, 70, 0
4, 37821, Note_on_c, 1, 67, 0
4, 37824, Control_c, 1, 64, 127
4, 37824, Note_on_c, 1, 72, 105
4, 37824, Note_on_c, 1, 69, 105
4, 37824, Note_on_c, 1, 66, 105
4, 38585, Note_on_c, 1, 72, 0
4, 38585, Note_on_c, 1, 69, 0
4, 38585, Note_on_c, 1, 66, 0
4, 38592, Control_c, 1, 64, 0
4, 38640, Control_c, 1, 64, 127
4, 38640, Note_on_c, 1, 66, 84
4, 38688, Note_on_c, 1, 69, 84
4, 38736, Note_on_c, 1, 72, 84
4, 38784, Note_on_c, 1, 75, 84
4, 39049, Note_on_c, 1, 75, 0
4, 39049, Note_on_c, 1, 72, 0
4, 39049, Note_on_c, 1, 69, 0
4, 39049, Note_on_c, 1, 66, 0
4, 39072, Control_c, 1, 64, 0
4, 39120, Note_on_c, 1, 62, 75
4, 39120, Note_on_c, 1, 54, 75
4, 39165, Note_on_c, 1, 62, 0
4, 39165, Note_on_c, 1, 54, 0
4, 39168, Note_on_c, 1, 62, 75
4, 39168, Note_on_c, 1, 55, 75
4, 39213, Note_on_c, 1, 62, 0
4, 39213, Note_on_c, 1, 55, 0
4, 39216, Note_on_c, 1, 60, 75
4, 39216, Note_on_c, 1, 48, 75
4, 39261, Note_on_c, 1, 60, 0
4, 39261, Note_on_c, 1, 48, 0
4, 39264, Note_on_c, 1, 58, 75
4, 39264, Note_on_c, 1, 50, 75
4, 39309, Note_on_c, 1, 58, 0
4, 39309, Note_on_c, 1, 50, 0
4, 39312, Note_on_c, 1, 57, 75
4, 39312, Note_on_c, 1, 50, 75
4, 39357, Note_on_c, 1, 57, 0
4, 39357, Note_on_c, 1, 50, 0
4, 39360, Note_on_c, 1, 55, 75
4, 39405, Note_on_c, 1, 55, 0
4, 39408, Note_on_c, 1, 43, 75
4, 39428, Note_on_c, 1, 43, 0
4, 39456, Note_on_c, 1, 46, 78
4, 39476, Note_on_c, 1, 46, 0
4, 39504, Note_on_c, 1, 50, 81
4, 39524, Note_on_c, 1, 50, 0
4, 39552, Note_on_c, 1, 58, 84
4, 39552, Note_on_c, 1, 55, 84
4, 39600, Note_on_c, 1, 58, 0
4, 39600, Note_on_c, 1, 55, 0
4, 39600, Note_on_c, 1, 57, 86
4, 39600, Note_on_c, 1, 54, 86
4, 39620, Note_on_c, 1, 57, 0
4, 39620, Note_on_c, 1, 54, 0
4, 39648, Note_on_c, 1, 60, 89
4, 39648, Note_on_c, 1, 57, 89
4, 39696, Note_on_c, 1, 60, 0
4, 39696, Note_on_c, 1, 57, 0
4, 39696, Note_on_c, 1, 58, 92
4, 39696, Note_on_c, 1, 55, 92
4, 39716, Note_on_c, 1, 58, 0
4, 39716, Note_on_c, 1, 55, 0
4, 39744, Note_on_c, 1, 66, 95
4, 39744, Note_on_c, 1, 57, 95
4, 39789, Note_on_c, 1, 66, 0
4, 39789, Note_on_c, 1, 57, 0
4, 39792, Note_on_c, 1, 67, 97
4, 39792, Note_on_c, 1, 58, 97
4, 39837, Note_on_c, 1, 67, 0
4, 39837, Note_on_c, 1, 58, 0
4, 39840, Note_on_c, 1, 69, 100
4, 39840, Note_on_c, 1, 60, 100
4, 39929, Note_on_c, 1, 69, 0
4, 39929, Note_on_c, 1, 60, 0
4, 39936, Note_on_c, 1, 67, 84
4, 40077, Note_on_c, 1, 67, 0
4, 40080, Note_on_c, 1, 66, 75
4, 40125, Note_on_c, 1, 66, 0
4, 40176, Note_on_c, 1, 43, 75
4, 40196, Note_on_c, 1, 43, 0
4, 40224, Note_on_c, 1, 46, 78
4, 40244, Note_on_c, 1, 46, 0
4, 40272, Note_on_c, 1, 50, 81
4, 40292, Note_on_c, 1, 50, 0
4, 40320, Note_on_c, 1, 58, 84
4, 40343, Note_on_c, 1, 58, 0
4, 40344, Note_on_c, 1, 55, 85
4, 40367, Note_on_c, 1, 55, 0
4, 40368, Note_on_c, 1, 57, 86
4, 40391, Note_on_c, 1, 57, 0
4, 40392, Note_on_c, 1, 54, 88
4, 40415, Note_on_c, 1, 54, 0
4, 40416, Note_on_c, 1, 60, 89
4, 40439, Note_on_c, 1, 60, 0
4, 40440, Note_on_c, 1, 57, 90
4, 40463, Note_on_c, 1, 57, 0
4, 40464, Note_on_c, 1, 58, 92
4, 40487, Note_on_c, 1, 58, 0
4, 40488, Note_on_c, 1, 55, 93
4, 40511, Note_on_c, 1, 55, 0
4, 40512, Note_on_c, 1, 66, 95
4, 40512, Note_on_c, 1, 57, 95
4, 40557, Note_on_c, 1, 66, 0
4, 40557, Note_on_c, 1, 57, 0
4, 40560, Note_on_c, 1, 67, 97
4, 40560, Note_on_c, 1, 58, 97
4, 40605, Note_on_c, 1, 67, 0
4, 40605, Note_on_c, 1, 58, 0
4, 40608, Note_on_c, 1, 69, 100
4, 40608, Note_on_c, 1, 60, 100
4, 40697, Note_on_c, 1, 69, 0
4, 40697, Note_on_c, 1, 60, 0
4, 40704, Note_on_c, 1, 67, 84
4, 40848, Note_on_c, 1, 67, 0
4, 40848, Note_on_c, 1, 66, 77
4, 40893, Note_on_c, 1, 66, 0
4, 41088, Note_on_c, 1, 31, 75
4, 41127, Note_on_c, 1, 31, 0
4, 41184, Note_on_c, 1, 43, 75
4, 41223, Note_on_c, 1, 43, 0
4, 41280, Note_on_c, 1, 31, 75
4, 41319, Note_on_c, 1, 31, 0
4, 41376, Note_on_c, 1, 58, 75
4, 41376, Note_on_c, 1, 55, 75
4, 41465, Note_on_c, 1, 58, 0
4, 41465, Note_on_c, 1, 55, 0
4, 41472, Note_on_c, 1, 56, 71
4, 41472, Note_on_c, 1, 53, 71
4, 41561, Note_on_c, 1, 56, 0
4, 41561, Note_on_c, 1, 53, 0
4, 41568, Note_on_c, 1, 55, 68
4, 41568, Note_on_c, 1, 51, 68
4, 41657, Note_on_c, 1, 55, 0
4, 41657, Note_on_c, 1, 51, 0
4, 41664, Note_on_c, 1, 53, 64
4, 41664, Note_on_c, 1, 50, 64
4, 41753, Note_on_c, 1, 53, 0
4, 41753, Note_on_c, 1, 50, 0
4, 42096, Note_on_c, 1, 74, 75
4, 42192, Note_on_c, 1, 74, 0
4, 42192, Note_on_c, 1, 71, 75
4, 42237, Note_on_c, 1, 71, 0
4, 42240, Note_on_c, 1, 72, 75
4, 42279, Note_on_c, 1, 72, 0
4, 42336, Note_on_c, 1, 65, 75
4, 42375, Note_on_c, 1, 65, 0
4, 42480, Note_on_c, 1, 67, 75
4, 42525, Note_on_c, 1, 67, 0
4, 42528, Note_on_c, 1, 55, 75
4, 42573, Note_on_c, 1, 55, 0
4, 42720, Note_on_c, 1, 48, 96
4, 42839, Note_on_c, 1, 48, 0
4, 42840, Note_on_c, 1, 51, 75
4, 42863, Note_on_c, 1, 51, 0
4, 42864, Note_on_c, 1, 54, 75
4, 42887, Note_on_c, 1, 54, 0
4, 42888, Note_on_c, 1, 57, 75
4, 42911, Note_on_c, 1, 57, 0
4, 42912, Note_on_c, 1, 60, 75
4, 42935, Note_on_c, 1, 60, 0
4, 42936, Note_on_c, 1, 63, 75
4, 42959, Note_on_c, 1, 63, 0
4, 42960, Note_on_c, 1, 62, 75
4, 42983, Note_on_c, 1, 62, 0
4, 42984, Note_on_c, 1, 60, 75
4, 43007, Note_on_c, 1, 60, 0
4, 43008, Note_on_c, 1, 58, 75
4, 43185, Note_on_c, 1, 58, 0
4, 43488, Note_on_c, 1, 46, 96
4, 43607, Note_on_c, 1, 46, 0
4, 43608, Note_on_c, 1, 49, 75
4, 43631, Note_on_c, 1, 49, 0
4, 43632, Note_on_c, 1, 52, 75
4, 43655, Note_on_c, 1, 52, 0
4, 43656, Note_on_c, 1, 55, 75
4, 43679, Note_on_c, 1, 55, 0
4, 43680, Note_on_c, 1, 58, 75
4, 43703, Note_on_c, 1, 58, 0
4, 43704, Note_on_c, 1, 61, 75
4, 43727, Note_on_c, 1, 61, 0
4, 43728, Note_on_c, 1, 60, 75
4, 43751, Note_on_c, 1, 60, 0
4, 43752, Note_on_c, 1, 58, 75
4, 43775, Note_on_c, 1, 58, 0
4, 43776, Note_on_c, 1, 56, 75
4, 43953, Note_on_c, 1, 56, 0
4, 44208, Note_on_c, 1, 60, 61
4, 44208, Note_on_c, 1, 56, 61
4, 44208, Note_on_c, 1, 53, 61
4, 44228, Note_on_c, 1, 60, 0
4, 44228, Note_on_c, 1, 56, 0
4, 44228, Note_on_c, 1, 53, 0
4, 44256, Note_on_c, 1, 60, 61
4, 44256, Note_on_c, 1, 56, 61
4, 44256, Note_on_c, 1, 53, 61
4, 44303, Note_on_c, 1, 60, 0
4, 44303, Note_on_c, 1, 56, 0
4, 44303, Note_on_c, 1, 53, 0
4, 44400, Note_on_c, 1, 60, 61
4, 44400, Note_on_c, 1, 57, 61
4, 44400, Note_on_c, 1, 53, 61
4, 44400, Note_on_c, 1, 51, 61
4, 44420, Note_on_c, 1, 60, 0
4, 44420, Note_on_c, 1, 57, 0
4, 44420, Note_on_c, 1, 53, 0
4, 44420, Note_on_c, 1, 51, 0
4, 44448, Note_on_c, 1, 60, 61
4, 44448, Note_on_c, 1, 57, 61
4, 44448, Note_on_c, 1, 53, 61
4, 44448, Note_on_c, 1, 51, 61
4, 44495, Note_on_c, 1, 60, 0
4, 44495, Note_on_c, 1, 57, 0
4, 44495, Note_on_c, 1, 53, 0
4, 44495, Note_on_c, 1, 51, 0
4, 44592, Note_on_c, 1, 60, 61
4, 44592, Note_on_c, 1, 57, 61
4, 44592, Note_on_c, 1, 54, 61
4, 44592, Note_on_c, 1, 50, 61
4, 44612, Note_on_c, 1, 60, 0
4, 44612, Note_on_c, 1, 57, 0
4, 44612, Note_on_c, 1, 54, 0
4, 44612, Note_on_c, 1, 50, 0
4, 44640, Note_on_c, 1, 60, 61
4, 44640, Note_on_c, 1, 57, 61
4, 44640, Note_on_c, 1, 54, 61
4, 44640, Note_on_c, 1, 50, 61
4, 44687, Note_on_c, 1, 60, 0
4, 44687, Note_on_c, 1, 57, 0
4, 44687, Note_on_c, 1, 54, 0
4, 44687, Note_on_c, 1, 50, 0
4, 44784, Note_on_c, 1, 57, 61
4, 44784, Note_on_c, 1, 54, 61
4, 44784, Note_on_c, 1, 50, 61
4, 44784, Note_on_c, 1, 48, 61
4, 44804, Note_on_c, 1, 57, 0
4, 44804, Note_on_c, 1, 54, 0
4, 44804, Note_on_c, 1, 50, 0
4, 44804, Note_on_c, 1, 48, 0
4, 44832, Note_on_c, 1, 57, 61
4, 44832, Note_on_c, 1, 54, 61
4, 44832, Note_on_c, 1, 50, 61
4, 44832, Note_on_c, 1, 48, 61
4, 44879, Note_on_c, 1, 57, 0
4, 44879, Note_on_c, 1, 54, 0
4, 44879, Note_on_c, 1, 50, 0
4, 44879, Note_on_c, 1, 48, 0
4, 44976, Note_on_c, 1, 55, 61
4, 44976, Note_on_c, 1, 50, 61
4, 44976, Note_on_c, 1, 46, 61
4, 44996, Note_on_c, 1, 55, 0
4, 44996, Note_on_c, 1, 50, 0
4, 44996, Note_on_c, 1, 46, 0
4, 45024, Note_on_c, 1, 55, 61
4, 45024, Note_on_c, 1, 50, 61
4, 45024, Note_on_c, 1, 46, 61
4, 45071, Note_on_c, 1, 55, 0
4, 45071, Note_on_c, 1, 50, 0
4, 45071, Note_on_c, 1, 46, 0
4, 45144, Note_on_c, 1, 58, 69
4, 45167, Note_on_c, 1, 58, 0
4, 45168, Note_on_c, 1, 62, 69
4, 45191, Note_on_c, 1, 62, 0
4, 45192, Note_on_c, 1, 65, 69
4, 45215, Note_on_c, 1, 65, 0
4, 45216, Note_on_c, 1, 58, 69
4, 45261, Note_on_c, 1, 58, 0
4, 45336, Note_on_c, 1, 58, 69
4, 45359, Note_on_c, 1, 58, 0
4, 45360, Note_on_c, 1, 63, 69
4, 45383, Note_on_c, 1, 63, 0
4, 45384, Note_on_c, 1, 67, 69
4, 45407, Note_on_c, 1, 67, 0
4, 45408, Note_on_c, 1, 58, 69
4, 45453, Note_on_c, 1, 58, 0
4, 45528, Note_on_c, 1, 58, 69
4, 45551, Note_on_c, 1, 58, 0
4, 45552, Note_on_c, 1, 62, 69
4, 45575, Note_on_c, 1, 62, 0
4, 45576, Note_on_c, 1, 65, 69
4, 45599, Note_on_c, 1, 65, 0
4, 45600, Note_on_c, 1, 58, 69
4, 45645, Note_on_c, 1, 58, 0
4, 45720, Note_on_c, 1, 59, 69
4, 45743, Note_on_c, 1, 59, 0
4, 45744, Note_on_c, 1, 62, 69
4, 45767, Note_on_c, 1, 62, 0
4, 45768, Note_on_c, 1, 67, 69
4, 45791, Note_on_c, 1, 67, 0
4, 45792, Note_on_c, 1, 59, 69
4, 45837, Note_on_c, 1, 59, 0
4, 45912, Note_on_c, 1, 60, 69
4, 45935, Note_on_c, 1, 60, 0
4, 45936, Note_on_c, 1, 63, 69
4, 45959, Note_on_c, 1, 63, 0
4, 45960, Note_on_c, 1, 67, 69
4, 45983, Note_on_c, 1, 67, 0
4, 45984, Note_on_c, 1, 60, 69
4, 46029, Note_on_c, 1, 60, 0
4, 46104, Note_on_c, 1, 56, 69
4, 46127, Note_on_c, 1, 56, 0
4, 46128, Note_on_c, 1, 60, 69
4, 46151, Note_on_c, 1, 60, 0
4, 46152, Note_on_c, 1, 63, 69
4, 46175, Note_on_c, 1, 63, 0
4, 46176, Note_on_c, 1, 68, 69
4, 46221, Note_on_c, 1, 68, 0
4, 46296, Note_on_c, 1, 67, 69
4, 46319, Note_on_c, 1, 67, 0
4, 46320, Note_on_c, 1, 62, 69
4, 46343, Note_on_c, 1, 62, 0
4, 46344, Note_on_c, 1, 59, 69
4, 46367, Note_on_c, 1, 59, 0
4, 46368, Note_on_c, 1, 55, 69
4, 46413, Note_on_c, 1, 55, 0
4, 46464, Note_on_c, 1, 60, 75
4, 46484, Note_on_c, 1, 60, 0
4, 46512, Note_on_c, 1, 79, 75
4, 46512, Note_on_c, 1, 75, 75
4, 46560, Note_on_c, 1, 79, 0
4, 46560, Note_on_c, 1, 75, 0
4, 46560, Note_on_c, 1, 77, 75
4, 46560, Note_on_c, 1, 74, 75
4, 46605, Note_on_c, 1, 77, 0
4, 46605, Note_on_c, 1, 74, 0
4, 46656, Note_on_c, 1, 60, 75
4, 46676, Note_on_c, 1, 60, 0
4, 46704, Note_on_c, 1, 72, 75
4, 46704, Note_on_c, 1, 66, 75
4, 46752, Note_on_c, 1, 72, 0
4, 46752, Note_on_c, 1, 66, 0
4, 46752, Note_on_c, 1, 71, 75
4, 46752, Note_on_c, 1, 67, 75
4, 46797, Note_on_c, 1, 71, 0
4, 46797, Note_on_c, 1, 67, 0
4, 46848, Note_on_c, 1, 60, 69
4, 46868, Note_on_c, 1, 60, 0
4, 46896, Note_on_c, 1, 79, 69
4, 46896, Note_on_c, 1, 75, 69
4, 46944, Note_on_c, 1, 79, 0
4, 46944, Note_on_c, 1, 75, 0
4, 46944, Note_on_c, 1, 77, 69
4, 46944, Note_on_c, 1, 74, 69
4, 46989, Note_on_c, 1, 77, 0
4, 46989, Note_on_c, 1, 74, 0
4, 47040, Note_on_c, 1, 60, 69
4, 47060, Note_on_c, 1, 60, 0
4, 47088, Note_on_c, 1, 72, 69
4, 47088, Note_on_c, 1, 66, 69
4, 47136, Note_on_c, 1, 72, 0
4, 47136, Note_on_c, 1, 66, 0
4, 47136, Note_on_c, 1, 71, 69
4, 47136, Note_on_c, 1, 67, 69
4, 47181, Note_on_c, 1, 71, 0
4, 47181, Note_on_c, 1, 67, 0
4, 47184, Note_on_c, 1, 60, 84
4, 47229, Note_on_c, 1, 60, 0
4, 47232, Note_on_c, 1, 68, 84
4, 47321, Note_on_c, 1, 68, 0
4, 47376, Note_on_c, 1, 58, 84
4, 47421, Note_on_c, 1, 58, 0
4, 47424, Note_on_c, 1, 67, 84
4, 47513, Note_on_c, 1, 67, 0
4, 48240, Note_on_c, 1, 53, 75
4, 48329, Note_on_c, 1, 53, 0
4, 48624, Note_on_c, 1, 55, 75
4, 48713, Note_on_c, 1, 55, 0
4, 48960, Note_on_c, 1, 60, 75
4, 49101, Note_on_c, 1, 60, 0
4, 49104, Note_on_c, 1, 60, 75
4, 49149, Note_on_c, 1, 60, 0
4, 49152, Note_on_c, 1, 60, 75
4, 49152, Note_on_c, 1, 56, 75
4, 49152, Note_on_c, 1, 53, 75
4, 49197, Note_on_c, 1, 60, 0
4, 49197, Note_on_c, 1, 56, 0
4, 49197, Note_on_c, 1, 53, 0
4, 49200, Note_on_c, 1, 65, 75
4, 49200, Note_on_c, 1, 63, 75
4, 49245, Note_on_c, 1, 65, 0
4, 49245, Note_on_c, 1, 63, 0
4, 49248, Note_on_c, 1, 65, 75
4, 49248, Note_on_c, 1, 62, 75
4, 49293, Note_on_c, 1, 65, 0
4, 49293, Note_on_c, 1, 62, 0
4, 49296, Note_on_c, 1, 69, 75
4, 49296, Note_on_c, 1, 65, 75
4, 49296, Note_on_c, 1, 63, 75
4, 49296, Note_on_c, 1, 60, 75
4, 49341, Note_on_c, 1, 69, 0
4, 49341, Note_on_c, 1, 65, 0
4, 49341, Note_on_c, 1, 63, 0
4, 49341, Note_on_c, 1, 60, 0
4, 49344, Note_on_c, 1, 70, 75
4, 49344, Note_on_c, 1, 65, 75
4, 49344, Note_on_c, 1, 62, 75
4, 49344, Note_on_c, 1, 58, 75
4, 49389, Note_on_c, 1, 70, 0
4, 49389, Note_on_c, 1, 65, 0
4, 49389, Note_on_c, 1, 62, 0
4, 49389, Note_on_c, 1, 58, 0
4, 49392, Note_on_c, 1, 65, 75
4, 49392, Note_on_c, 1, 62, 75
4, 49392, Note_on_c, 1, 58, 75
4, 49392, Note_on_c, 1, 56, 75
4, 49437, Note_on_c, 1, 65, 0
4, 49437, Note_on_c, 1, 62, 0
4, 49437, Note_on_c, 1, 58, 0
4, 49437, Note_on_c, 1, 56, 0
4, 49440, Note_on_c, 1, 67, 75
4, 49440, Note_on_c, 1, 63, 75
4, 49440, Note_on_c, 1, 58, 75
4, 49440, Note_on_c, 1, 55, 75
4, 49485, Note_on_c, 1, 67, 0
4, 49485, Note_on_c, 1, 63, 0
4, 49485, Note_on_c, 1, 58, 0
4, 49485, Note_on_c, 1, 55, 0
4, 49488, Note_on_c, 1, 75, 75
4, 49503, Note_on_c, 1, 75, 0
4, 49504, Note_on_c, 1, 77, 75
4, 49519, Note_on_c, 1, 77, 0
4, 49520, Note_on_c, 1, 75, 75
4, 49535, Note_on_c, 1, 75, 0
4, 49536, Note_on_c, 1, 80, 75
4, 49556, Note_on_c, 1, 80, 0
4, 49584, Note_on_c, 1, 72, 75
4, 49599, Note_on_c, 1, 72, 0
4, 49600, Note_on_c, 1, 73, 75
4, 49615, Note_on_c, 1, 73, 0
4, 49616, Note_on_c, 1, 72, 75
4, 49631, Note_on_c, 1, 72, 0
4, 49632, Note_on_c, 1, 77, 75
4, 49652, Note_on_c, 1, 77, 0
4, 49680, Note_on_c, 1, 58, 75
4, 49695, Note_on_c, 1, 58, 0
4, 49696, Note_on_c, 1, 60, 75
4, 49711, Note_on_c, 1, 60, 0
4, 49712, Note_on_c, 1, 58, 75
4, 49727, Note_on_c, 1, 58, 0
4, 49776, Note_on_c, 1, 70, 75
4, 49791, Note_on_c, 1, 70, 0
4, 49792, Note_on_c, 1, 72, 75
4, 49807, Note_on_c, 1, 72, 0
4, 49808, Note_on_c, 1, 70, 75
4, 49823, Note_on_c, 1, 70, 0
4, 49968, Note_on_c, 1, 67, 75
4, 49983, Note_on_c, 1, 67, 0
4, 49984, Note_on_c, 1, 69, 75
4, 49999, Note_on_c, 1, 69, 0
4, 50000, Note_on_c, 1, 67, 75
4, 50015, Note_on_c, 1, 67, 0
4, 50016, Note_on_c, 1, 70, 75
4, 50036, Note_on_c, 1, 70, 0
4, 50064, Note_on_c, 1, 67, 75
4, 50157, Note_on_c, 1, 67, 0
4, 50160, Note_on_c, 1, 66, 75
4, 50205, Note_on_c, 1, 66, 0
4, 50544, Note_on_c, 1, 57, 75
4, 50640, Note_on_c, 1, 57, 0
4, 50640, Note_on_c, 1, 54, 75
4, 50685, Note_on_c, 1, 54, 0
4, 50688, Note_on_c, 1, 55, 75
4, 50727, Note_on_c, 1, 55, 0
4, 50784, Note_on_c, 1, 48, 75
4, 50823, Note_on_c, 1, 48, 0
4, 50928, Note_on_c, 1, 50, 75
4, 50973, Note_on_c, 1, 50, 0
4, 50976, Note_on_c, 1, 38, 75
4, 51021, Note_on_c, 1, 38, 0
4, 51168, Note_on_c, 1, 67, 96
4, 51345, Note_on_c, 1, 67, 0
4, 51360, Note_on_c, 1, 65, 75
4, 51545, Note_on_c, 1, 65, 0
4, 51552, Note_on_c, 1, 63, 75
4, 51789, Note_on_c, 1, 63, 0
4, 51792, Note_on_c, 1, 62, 75
4, 51837, Note_on_c, 1, 62, 0
4, 51840, Note_on_c, 1, 60, 75
4, 51885, Note_on_c, 1, 60, 0
4, 51888, Note_on_c, 1, 65, 75
4, 51933, Note_on_c, 1, 65, 0
4, 51936, Note_on_c, 1, 58, 75
4, 51981, Note_on_c, 1, 58, 0
4, 51984, Note_on_c, 1, 63, 75
4, 52029, Note_on_c, 1, 63, 0
4, 52032, Note_on_c, 1, 57, 75
4, 52077, Note_on_c, 1, 57, 0
4, 52080, Note_on_c, 1, 62, 75
4, 52125, Note_on_c, 1, 62, 0
4, 52128, Note_on_c, 1, 55, 75
4, 52173, Note_on_c, 1, 55, 0
4, 52176, Note_on_c, 1, 61, 75
4, 52221, Note_on_c, 1, 61, 0
4, 52224, Note_on_c, 1, 62, 75
4, 52269, Note_on_c, 1, 62, 0
4, 52272, Note_on_c, 1, 50, 75
4, 52317, Note_on_c, 1, 50, 0
4, 52464, Note_on_c, 1, 74, 84
4, 52464, Note_on_c, 1, 70, 84
4, 52512, Note_on_c, 1, 74, 0
4, 52512, Note_on_c, 1, 70, 0
4, 52512, Note_on_c, 1, 72, 84
4, 52512, Note_on_c, 1, 69, 84
4, 52557, Note_on_c, 1, 72, 0
4, 52557, Note_on_c, 1, 69, 0
4, 52656, Note_on_c, 1, 67, 84
4, 52656, Note_on_c, 1, 61, 84
4, 52704, Note_on_c, 1, 67, 0
4, 52704, Note_on_c, 1, 61, 0
4, 52704, Note_on_c, 1, 66, 84
4, 52704, Note_on_c, 1, 62, 84
4, 52749, Note_on_c, 1, 66, 0
4, 52749, Note_on_c, 1, 62, 0
4, 52848, Note_on_c, 1, 74, 69
4, 52848, Note_on_c, 1, 70, 69
4, 52896, Note_on_c, 1, 74, 0
4, 52896, Note_on_c, 1, 70, 0
4, 52896, Note_on_c, 1, 72, 69
4, 52896, Note_on_c, 1, 69, 69
4, 52941, Note_on_c, 1, 72, 0
4, 52941, Note_on_c, 1, 69, 0
4, 53040, Note_on_c, 1, 67, 69
4, 53040, Note_on_c, 1, 61, 69
4, 53088, Note_on_c, 1, 67, 0
4, 53088, Note_on_c, 1, 61, 0
4, 53088, Note_on_c, 1, 66, 69
4, 53088, Note_on_c, 1, 62, 69
4, 53133, Note_on_c, 1, 66, 0
4, 53133, Note_on_c, 1, 62, 0
4, 53136, Note_on_c, 1, 55, 75
4, 53229, Note_on_c, 1, 55, 0
4, 53232, Note_on_c, 1, 51, 75
4, 53277, Note_on_c, 1, 51, 0
4, 53280, Note_on_c, 1, 57, 76
4, 53421, Note_on_c, 1, 57, 0
4, 53424, Note_on_c, 1, 53, 77
4, 53469, Note_on_c, 1, 53, 0
4, 53472, Note_on_c, 1, 58, 78
4, 53613, Note_on_c, 1, 58, 0
4, 53616, Note_on_c, 1, 55, 80
4, 53661, Note_on_c, 1, 55, 0
4, 53664, Note_on_c, 1, 60, 80
4, 53805, Note_on_c, 1, 60, 0
4, 53808, Note_on_c, 1, 57, 82
4, 53853, Note_on_c, 1, 57, 0
4, 53856, Note_on_c, 1, 62, 82
4, 53997, Note_on_c, 1, 62, 0
4, 54000, Note_on_c, 1, 58, 84
4, 54045, Note_on_c, 1, 58, 0
4, 54048, Note_on_c, 1, 63, 84
4, 54189, Note_on_c, 1, 63, 0
4, 54192, Note_on_c, 1, 60, 84
4, 54237, Note_on_c, 1, 60, 0
4, 54240, Note_on_c, 1, 66, 84
4, 54381, Note_on_c, 1, 66, 0
4, 54384, Note_on_c, 1, 62, 84
4, 54429, Note_on_c, 1, 62, 0
4, 54432, Note_on_c, 1, 67, 84
4, 54573, Note_on_c, 1, 67, 0
4, 54576, Note_on_c, 1, 67, 84
4, 54665, Note_on_c, 1, 67, 0
4, 54672, Note_on_c, 1, 66, 84
4, 54717, Note_on_c, 1, 66, 0
4, 54744, Note_on_c, 1, 43, 84
4, 54767, Note_on_c, 1, 43, 0
4, 54768, Note_on_c, 1, 46, 84
4, 54791, Note_on_c, 1, 46, 0
4, 54792, Note_on_c, 1, 50, 84
4, 54815, Note_on_c, 1, 50, 0
4, 54816, Note_on_c, 1, 55, 84
4, 54861, Note_on_c, 1, 55, 0
4, 54912, Note_on_c, 1, 58, 75
4, 54960, Note_on_c, 1, 58, 0
4, 54960, Note_on_c, 1, 57, 75
4, 54980, Note_on_c, 1, 57, 0
4, 55008, Note_on_c, 1, 60, 75
4, 55056, Note_on_c, 1, 60, 0
4, 55056, Note_on_c, 1, 58, 75
4, 55076, Note_on_c, 1, 58, 0
4, 55152, Note_on_c, 1, 61, 75
4, 55200, Note_on_c, 1, 61, 0
4, 55200, Note_on_c, 1, 62, 75
4, 55245, Note_on_c, 1, 62, 0
4, 55296, Note_on_c, 1, 60, 75
4, 55344, Note_on_c, 1, 60, 0
4, 55344, Note_on_c, 1, 58, 75
4, 55364, Note_on_c, 1, 58, 0
4, 55392, Note_on_c, 1, 67, 75
4, 55440, Note_on_c, 1, 67, 0
4, 55440, Note_on_c, 1, 66, 75
4, 55460, Note_on_c, 1, 66, 0
4, 55536, Note_on_c, 1, 50, 75
4, 55584, Note_on_c, 1, 50, 0
4, 55584, Note_on_c, 1, 55, 75
4, 55629, Note_on_c, 1, 55, 0
4, 56160, Note_on_c, 1, 72, 75
4, 56160, Note_on_c, 1, 69, 75
4, 56205, Note_on_c, 1, 72, 0
4, 56205, Note_on_c, 1, 69, 0
4, 56208, Note_on_c, 1, 72, 79
4, 56208, Note_on_c, 1, 70, 79
4, 56208, Note_on_c, 1, 67, 79
4, 56253, Note_on_c, 1, 72, 0
4, 56253, Note_on_c, 1, 70, 0
4, 56253, Note_on_c, 1, 67, 0
4, 56256, Control_c, 1, 64, 127
4, 56256, Note_on_c, 1, 72, 105
4, 56256, Note_on_c, 1, 69, 105
4, 56256, Note_on_c, 1, 66, 105
4, 57017, Note_on_c, 1, 72, 0
4, 57017, Note_on_c, 1, 69, 0
4, 57017, Note_on_c, 1, 66, 0
4, 57024, Control_c, 1, 64, 0
4, 57072, Control_c, 1, 64, 127
4, 57072, Note_on_c, 1, 66, 84
4, 57120, Note_on_c, 1, 69, 84
4, 57168, Note_on_c, 1, 72, 84
4, 57216, Note_on_c, 1, 75, 84
4, 57481, Note_on_c, 1, 75, 0
4, 57481, Note_on_c, 1, 72, 0
4, 57481, Note_on_c, 1, 69, 0
4, 57481, Note_on_c, 1, 66, 0
4, 57504, Control_c, 1, 64, 0
4, 57552, Note_on_c, 1, 62, 75
4, 57552, Note_on_c, 1, 54, 75
4, 57597, Note_on_c, 1, 62, 0
4, 57597, Note_on_c, 1, 54, 0
4, 57600, Note_on_c, 1, 62, 75
4, 57600, Note_on_c, 1, 55, 75
4, 57645, Note_on_c, 1, 62, 0
4, 57645, Note_on_c, 1, 55, 0
4, 57648, Note_on_c, 1, 60, 75
4, 57648, Note_on_c, 1, 48, 75
4, 57693, Note_on_c, 1, 60, 0
4, 57693, Note_on_c, 1, 48, 0
4, 57696, Note_on_c, 1, 58, 75
4, 57696, Note_on_c, 1, 50, 75
4, 57741, Note_on_c, 1, 58, 0
4, 57741, Note_on_c, 1, 50, 0
4, 57744, Note_on_c, 1, 57, 75
4, 57744, Note_on_c, 1, 50, 75
4, 57789, Note_on_c, 1, 57, 0
4, 57789, Note_on_c, 1, 50, 0
4, 57792, Note_on_c, 1, 55, 75
4, 57837, Note_on_c, 1, 55, 0
4, 57840, Note_on_c, 1, 43, 75
4, 57860, Note_on_c, 1, 43, 0
4, 57888, Note_on_c, 1, 46, 78
4, 57908, Note_on_c, 1, 46, 0
4, 57936, Note_on_c, 1, 50, 81
4, 57956, Note_on_c, 1, 50, 0
4, 57984, Note_on_c, 1, 58, 84
4, 57984, Note_on_c, 1, 55, 84
4, 58032, Note_on_c, 1, 58, 0
4, 58032, Note_on_c, 1, 55, 0
4, 58032, Note_on_c, 1, 57, 86
4, 58032, Note_on_c, 1, 54, 86
4, 58052, Note_on_c, 1, 57, 0
4, 58052, Note_on_c, 1, 54, 0
4, 58080, Note_on_c, 1, 60, 89
4, 58080, Note_on_c, 1, 57, 89
4, 58128, Note_on_c, 1, 60, 0
4, 58128, Note_on_c, 1, 57, 0
4, 58128, Note_on_c, 1, 58, 92
4, 58128, Note_on_c, 1, 55, 92
4, 58148, Note_on_c, 1, 58, 0
4, 58148, Note_on_c, 1, 55, 0
4, 58176, Note_on_c, 1, 66, 95
4, 58176, Note_on_c, 1, 57, 95
4, 58221, Note_on_c, 1, 66, 0
4, 58221, Note_on_c, 1, 57, 0
4, 58224, Note_on_c, 1, 67, 97
4, 58224, Note_on_c, 1, 58, 97
4, 58269, Note_on_c, 1, 67, 0
4, 58269, Note_on_c, 1, 58, 0
4, 58272, Note_on_c, 1, 69, 100
4, 58272, Note_on_c, 1, 60, 100
4, 58361, Note_on_c, 1, 69, 0
4, 58361, Note_on_c, 1, 60, 0
4, 58368, Note_on_c, 1, 67, 84
4, 58509, Note_on_c, 1, 67, 0
4, 58512, Note_on_c, 1, 66, 75
4, 58557, Note_on_c, 1, 66, 0
4, 58608, Note_on_c, 1, 43, 75
4, 58628, Note_on_c, 1, 43, 0
4, 58656, Note_on_c, 1, 46, 78
4, 58676, Note_on_c, 1, 46, 0
4, 58704, Note_on_c, 1, 50, 81
4, 58724, Note_on_c, 1, 50, 0
4, 58752, Note_on_c, 1, 58, 84
4, 58775, Note_on_c, 1, 58, 0
4, 58776, Note_on_c, 1, 55, 85
4, 58799, Note_on_c, 1, 55, 0
4, 58800, Note_on_c, 1, 57, 86
4, 58823, Note_on_c, 1, 57, 0
4, 58824, Note_on_c, 1, 54, 88
4, 58847, Note_on_c, 1, 54, 0
4, 58848, Note_on_c, 1, 60, 89
4, 58871, Note_on_c, 1, 60, 0
4, 58872, Note_on_c, 1, 57, 90
4, 58895, Note_on_c, 1, 57, 0
4, 58896, Note_on_c, 1, 58, 92
4, 58919, Note_on_c, 1, 58, 0
4, 58920, Note_on_c, 1, 55, 93
4, 58943, Note_on_c, 1, 55, 0
4, 58944, Note_on_c, 1, 66, 95
4, 58944, Note_on_c, 1, 57, 95
4, 58989, Note_on_c, 1, 66, 0
4, 58989, Note_on_c, 1, 57, 0
4, 58992, Note_on_c, 1, 67, 97
4, 58992, Note_on_c, 1, 58, 97
4, 59037, Note_on_c, 1, 67, 0
4, 59037, Note_on_c, 1, 58, 0
4, 59040, Note_on_c, 1, 69, 100
4, 59040, Note_on_c, 1, 60, 100
4, 59129, Note_on_c, 1, 69, 0
4, 59129, Note_on_c, 1, 60, 0
4, 59136, Note_on_c, 1, 67, 84
4, 59280, Note_on_c, 1, 67, 0
4, 59280, Note_on_c, 1, 66, 77
4, 59325, Note_on_c, 1, 66, 0
4, 59520, Note_on_c, 1, 31, 75
4, 59559, Note_on_c, 1, 31, 0
4, 59616, Note_on_c, 1, 43, 75
4, 59655, Note_on_c, 1, 43, 0
4, 59712, Note_on_c, 1, 31, 75
4, 59751, Note_on_c, 1, 31, 0
4, 59808, Note_on_c, 1, 48, 75
4, 59897, Note_on_c, 1, 48, 0
4, 59904, Note_on_c, 1, 50, 70
4, 59993, Note_on_c, 1, 50, 0
4, 60000, Note_on_c, 1, 38, 66
4, 60089, Note_on_c, 1, 38, 0
4, 60144, Note_on_c, 1, 43, 59
4, 60164, Note_on_c, 1, 43, 0
4, 60192, Note_on_c, 1, 31, 57
4, 60231, Note_on_c, 1, 31, 0
4, 60288, Note_on_c, 1, 31, 0
4, 60377, Note_on_c, 1, 31, 0
4, 60384, End_track
5, 0, Start_track
5, 0, Program_c, 1, 0
5, 0, Control_c, 1, 7, 127
5, 0, Control_c, 1, 10, 64
5, 624, Note_on_c, 1, 67, 64
5, 669, Note_on_c, 1, 67, 0
5, 672, Note_on_c, 1, 66, 64
5, 692, Note_on_c, 1, 66, 0
5, 720, Note_on_c, 1, 62, 64
5, 765, Note_on_c, 1, 62, 0
5, 3888, Note_on_c, 1, 53, 64
5, 3933, Note_on_c, 1, 53, 0
5, 3936, Note_on_c, 1, 53, 64
5, 3981, Note_on_c, 1, 53, 0
5, 3984, Note_on_c, 1, 53, 64
5, 4029, Note_on_c, 1, 53, 0
5, 4032, Note_on_c, 1, 54, 64
5, 4401, Note_on_c, 1, 54, 0
5, 4416, Note_on_c, 1, 54, 64
5, 4593, Note_on_c, 1, 54, 0
5, 4608, Note_on_c, 1, 53, 64
5, 4785, Note_on_c, 1, 53, 0
5, 5712, Note_on_c, 1, 50, 69
5, 5757, Note_on_c, 1, 50, 0
5, 5760, Note_on_c, 1, 51, 69
5, 5893, Note_on_c, 1, 51, 0
5, 5904, Note_on_c, 1, 51, 71
5, 5949, Note_on_c, 1, 51, 0
5, 5952, Note_on_c, 1, 53, 72
5, 6085, Note_on_c, 1, 53, 0
5, 6096, Note_on_c, 1, 53, 74
5, 6141, Note_on_c, 1, 53, 0
5, 6144, Note_on_c, 1, 55, 75
5, 6277, Note_on_c, 1, 55, 0
5, 6288, Note_on_c, 1, 55, 77
5, 6333, Note_on_c, 1, 55, 0
5, 6336, Note_on_c, 1, 57, 78
5, 6469, Note_on_c, 1, 57, 0
5, 6480, Note_on_c, 1, 57, 80
5, 6525, Note_on_c, 1, 57, 0
5, 6528, Note_on_c, 1, 58, 81
5, 6705, Note_on_c, 1, 58, 0
5, 7680, Note_on_c, 1, 50, 84
5, 7725, Note_on_c, 1, 50, 0
5, 7728, Note_on_c, 1, 51, 84
5, 7773, Note_on_c, 1, 51, 0
5, 7776, Note_on_c, 1, 53, 84
5, 7865, Note_on_c, 1, 53, 0
5, 9264, Note_on_c, 1, 63, 84
5, 9309, Note_on_c, 1, 63, 0
5, 9312, Note_on_c, 1, 62, 84
5, 9357, Note_on_c, 1, 62, 0
5, 9360, Note_on_c, 1, 60, 84
5, 9405, Note_on_c, 1, 60, 0
5, 12144, Note_on_c, 1, 67, 64
5, 12189, Note_on_c, 1, 67, 0
5, 12192, Note_on_c, 1, 66, 64
5, 12212, Note_on_c, 1, 66, 0
5, 12240, Note_on_c, 1, 62, 64
5, 12285, Note_on_c, 1, 62, 0
5, 15408, Note_on_c, 1, 53, 64
5, 15453, Note_on_c, 1, 53, 0
5, 15456, Note_on_c, 1, 53, 64
5, 15501, Note_on_c, 1, 53, 0
5, 15504, Note_on_c, 1, 53, 64
5, 15549, Note_on_c, 1, 53, 0
5, 15552, Note_on_c, 1, 54, 64
5, 15921, Note_on_c, 1, 54, 0
5, 15936, Note_on_c, 1, 54, 64
5, 16113, Note_on_c, 1, 54, 0
5, 16128, Note_on_c, 1, 53, 64
5, 16305, Note_on_c, 1, 53, 0
5, 17232, Note_on_c, 1, 50, 69
5, 17277, Note_on_c, 1, 50, 0
5, 17280, Note_on_c, 1, 51, 69
5, 17413, Note_on_c, 1, 51, 0
5, 17424, Note_on_c, 1, 51, 71
5, 17469, Note_on_c, 1, 51, 0
5, 17472, Note_on_c, 1, 53, 72
5, 17605, Note_on_c, 1, 53, 0
5, 17616, Note_on_c, 1, 53, 74
5, 17661, Note_on_c, 1, 53, 0
5, 17664, Note_on_c, 1, 55, 75
5, 17797, Note_on_c, 1, 55, 0
5, 17808, Note_on_c, 1, 55, 77
5, 17853, Note_on_c, 1, 55, 0
5, 17856, Note_on_c, 1, 57, 78
5, 17989, Note_on_c, 1, 57, 0
5, 18000, Note_on_c, 1, 57, 80
5, 18045, Note_on_c, 1, 57, 0
5, 18048, Note_on_c, 1, 58, 81
5, 18225, Note_on_c, 1, 58, 0
5, 19200, Note_on_c, 1, 50, 84
5, 19245, Note_on_c, 1, 50, 0
5, 19248, Note_on_c, 1, 51, 84
5, 19293, Note_on_c, 1, 51, 0
5, 19296, Note_on_c, 1, 53, 84
5, 19385, Note_on_c, 1, 53, 0
5, 20784, Note_on_c, 1, 63, 84
5, 20829, Note_on_c, 1, 63, 0
5, 20832, Note_on_c, 1, 62, 84
5, 20877, Note_on_c, 1, 62, 0
5, 20880, Note_on_c, 1, 60, 84
5, 20925, Note_on_c, 1, 60, 0
5, 23664, Note_on_c, 1, 72, 84
5, 23709, Note_on_c, 1, 72, 0
5, 23712, Note_on_c, 1, 71, 84
5, 23732, Note_on_c, 1, 71, 0
5, 23760, Note_on_c, 1, 67, 84
5, 23805, Note_on_c, 1, 67, 0
5, 29808, Note_on_c, 1, 51, 84
5, 29853, Note_on_c, 1, 51, 0
5, 29856, Note_on_c, 1, 50, 84
5, 29901, Note_on_c, 1, 50, 0
5, 30192, Note_on_c, 1, 53, 84
5, 30237, Note_on_c, 1, 53, 0
5, 30240, Note_on_c, 1, 51, 84
5, 30285, Note_on_c, 1, 51, 0
5, 30480, Note_on_c, 1, 55, 84
5, 30495, Note_on_c, 1, 55, 0
5, 30496, Note_on_c, 1, 56, 84
5, 30511, Note_on_c, 1, 56, 0
5, 30512, Note_on_c, 1, 55, 84
5, 30527, Note_on_c, 1, 55, 0
5, 30528, Note_on_c, 1, 60, 84
5, 30548, Note_on_c, 1, 60, 0
5, 30576, Note_on_c, 1, 58, 84
5, 30596, Note_on_c, 1, 58, 0
5, 30624, Note_on_c, 1, 56, 84
5, 30644, Note_on_c, 1, 56, 0
5, 30672, Note_on_c, 1, 58, 84
5, 30672, Note_on_c, 1, 55, 84
5, 30692, Note_on_c, 1, 58, 0
5, 30692, Note_on_c, 1, 55, 0
5, 31296, Note_on_c, 1, 63, 84
5, 31665, Note_on_c, 1, 63, 0
5, 31680, Note_on_c, 1, 62, 84
5, 31769, Note_on_c, 1, 62, 0
5, 32112, Note_on_c, 1, 55, 84
5, 32157, Note_on_c, 1, 55, 0
5, 32160, Note_on_c, 1, 54, 84
5, 32180, Note_on_c, 1, 54, 0
5, 32208, Note_on_c, 1, 50, 84
5, 32253, Note_on_c, 1, 50, 0
5, 34704, Note_on_c, 1, 46, 75
5, 34749, Note_on_c, 1, 46, 0
5, 34752, Note_on_c, 1, 48, 75
5, 34885, Note_on_c, 1, 48, 0
5, 34896, Note_on_c, 1, 48, 76
5, 34941, Note_on_c, 1, 48, 0
5, 34944, Note_on_c, 1, 50, 77
5, 35077, Note_on_c, 1, 50, 0
5, 35088, Note_on_c, 1, 50, 78
5, 35133, Note_on_c, 1, 50, 0
5, 35136, Note_on_c, 1, 51, 79
5, 35269, Note_on_c, 1, 51, 0
5, 35280, Note_on_c, 1, 51, 81
5, 35325, Note_on_c, 1, 51, 0
5, 35328, Note_on_c, 1, 53, 81
5, 35461, Note_on_c, 1, 53, 0
5, 35472, Note_on_c, 1, 53, 83
5, 35517, Note_on_c, 1, 53, 0
5, 35520, Note_on_c, 1, 55, 84
5, 35609, Note_on_c, 1, 55, 0
5, 35616, Note_on_c, 1, 55, 84
5, 35661, Note_on_c, 1, 55, 0
5, 35712, Note_on_c, 1, 57, 84
5, 35845, Note_on_c, 1, 57, 0
5, 35856, Note_on_c, 1, 57, 84
5, 35901, Note_on_c, 1, 57, 0
5, 35904, Note_on_c, 1, 58, 84
5, 36037, Note_on_c, 1, 58, 0
5, 36048, Note_on_c, 1, 58, 84
5, 36093, Note_on_c, 1, 58, 0
5, 36096, Note_on_c, 1, 60, 84
5, 36185, Note_on_c, 1, 60, 0
5, 36192, Note_on_c, 1, 62, 84
5, 36281, Note_on_c, 1, 62, 0
5, 39936, Note_on_c, 1, 58, 84
5, 39981, Note_on_c, 1, 58, 0
5, 39984, Note_on_c, 1, 60, 84
5, 40029, Note_on_c, 1, 60, 0
5, 40032, Note_on_c, 1, 62, 84
5, 40121, Note_on_c, 1, 62, 0
5, 40704, Note_on_c, 1, 58, 84
5, 40749, Note_on_c, 1, 58, 0
5, 40752, Note_on_c, 1, 60, 84
5, 40797, Note_on_c, 1, 60, 0
5, 40800, Note_on_c, 1, 62, 84
5, 40889, Note_on_c, 1, 62, 0
5, 40920, Note_on_c, 1, 43, 84
5, 40943, Note_on_c, 1, 43, 0
5, 40944, Note_on_c, 1, 46, 84
5, 40967, Note_on_c, 1, 46, 0
5, 40968, Note_on_c, 1, 50, 84
5, 40991, Note_on_c, 1, 50, 0
5, 40992, Note_on_c, 1, 55, 84
5, 41037, Note_on_c, 1, 55, 0
5, 42096, Note_on_c, 1, 72, 84
5, 42141, Note_on_c, 1, 72, 0
5, 42144, Note_on_c, 1, 71, 84
5, 42164, Note_on_c, 1, 71, 0
5, 42192, Note_on_c, 1, 67, 84
5, 42237, Note_on_c, 1, 67, 0
5, 48240, Note_on_c, 1, 51, 84
5, 48285, Note_on_c, 1, 51, 0
5, 48288, Note_on_c, 1, 50, 84
5, 48333, Note_on_c, 1, 50, 0
5, 48624, Note_on_c, 1, 53, 84
5, 48669, Note_on_c, 1, 53, 0
5, 48672, Note_on_c, 1, 51, 84
5, 48717, Note_on_c, 1, 51, 0
5, 48912, Note_on_c, 1, 55, 84
5, 48927, Note_on_c, 1, 55, 0
5, 48928, Note_on_c, 1, 56, 84
5, 48943, Note_on_c, 1, 56, 0
5, 48944, Note_on_c, 1, 55, 84
5, 48959, Note_on_c, 1, 55, 0
5, 48960, Note_on_c, 1, 60, 84
5, 48980, Note_on_c, 1, 60, 0
5, 49008, Note_on_c, 1, 58, 84
5, 49028, Note_on_c, 1, 58, 0
5, 49056, Note_on_c, 1, 56, 84
5, 49076, Note_on_c, 1, 56, 0
5, 49104, Note_on_c, 1, 58, 84
5, 49104, Note_on_c, 1, 55, 84
5, 49124, Note_on_c, 1, 58, 0
5, 49124, Note_on_c, 1, 55, 0
5, 49728, Note_on_c, 1, 63, 84
5, 50097, Note_on_c, 1, 63, 0
5, 50112, Note_on_c, 1, 62, 84
5, 50201, Note_on_c, 1, 62, 0
5, 50544, Note_on_c, 1, 55, 84
5, 50589, Note_on_c, 1, 55, 0
5, 50592, Note_on_c, 1, 54, 84
5, 50612, Note_on_c, 1, 54, 0
5, 50640, Note_on_c, 1, 50, 84
5, 50685, Note_on_c, 1, 50, 0
5, 53136, Note_on_c, 1, 46, 75
5, 53181, Note_on_c, 1, 46, 0
5, 53184, Note_on_c, 1, 48, 75
5, 53317, Note_on_c, 1, 48, 0
5, 53328, Note_on_c, 1, 48, 76
5, 53373, Note_on_c, 1, 48, 0
5, 53376, Note_on_c, 1, 50, 77
5, 53509, Note_on_c, 1, 50, 0
5, 53520, Note_on_c, 1, 50, 78
5, 53565, Note_on_c, 1, 50, 0
5, 53568, Note_on_c, 1, 51, 79
5, 53701, Note_on_c, 1, 51, 0
5, 53712, Note_on_c, 1, 51, 81
5, 53757, Note_on_c, 1, 51, 0
5, 53760, Note_on_c, 1, 53, 81
5, 53893, Note_on_c, 1, 53, 0
5, 53904, Note_on_c, 1, 53, 83
5, 53949, Note_on_c, 1, 53, 0
5, 53952, Note_on_c, 1, 55, 84
5, 54041, Note_on_c, 1, 55, 0
5, 54048, Note_on_c, 1, 55, 84
5, 54093, Note_on_c, 1, 55, 0
5, 54144, Note_on_c, 1, 57, 84
5, 54277, Note_on_c, 1, 57, 0
5, 54288, Note_on_c, 1, 57, 84
5, 54333, Note_on_c, 1, 57, 0
5, 54336, Note_on_c, 1, 58, 84
5, 54469, Note_on_c, 1, 58, 0
5, 54480, Note_on_c, 1, 58, 84
5, 54525, Note_on_c, 1, 58, 0
5, 54528, Note_on_c, 1, 60, 84
5, 54617, Note_on_c, 1, 60, 0
5, 54624, Note_on_c, 1, 62, 84
5, 54713, Note_on_c, 1, 62, 0
5, 58368, Note_on_c, 1, 58, 84
5, 58413, Note_on_c, 1, 58, 0
5, 58416, Note_on_c, 1, 60, 84
5, 58461, Note_on_c, 1, 60, 0
5, 58464, Note_on_c, 1, 62, 84
5, 58553, Note_on_c, 1, 62, 0
5, 59136, Note_on_c, 1, 58, 84
5, 59181, Note_on_c, 1, 58, 0
5, 59184, Note_on_c, 1, 60, 84
5, 59229, Note_on_c, 1, 60, 0
5, 59232, Note_on_c, 1, 62, 84
5, 59321, Note_on_c, 1, 62, 0
5, 59352, Note_on_c, 1, 43, 84
5, 59375, Note_on_c, 1, 43, 0
5, 59376, Note_on_c, 1, 46, 84
5, 59399, Note_on_c, 1, 46, 0
5, 59400, Note_on_c, 1, 50, 84
5, 59423, Note_on_c, 1, 50, 0
5, 59424, Note_on_c, 1, 55, 84
5, 59469, Note_on_c, 1, 55, 0
5, 60288, End_track
6, 0, Start_track
6, 0, Title_t, "Sonata III   <composer>  "
6, 0, End_track
0, 0, End_of_file
