0, 0, Header, 1, 6, 96
1, 0, Start_track
1, 0, Copyright_t, "Copyright  2000 <copyright holder>"
1, 0, Text_t, "Sonata I\015\012"
1, 0, Text_t, "Haydn\015\012"
1, 0, Sequencer_specific, 16, 68, 87, 77, 90, 86, 82, 83, 78, 32, 55, 46, 49, 46, 50, 46, 48
1, 0, Time_signature, 4, 2, 24, 8
1, 0, Tempo, 444444
1, 0, Key_signature, -1, "major"
1, 4992, Tempo, 631578
1, 5376, Time_signature, 1, 2, 24, 8
1, 5472, Time_signature, 4, 2, 24, 8
1, 5472, Tempo, 461538
1, 5856, Tempo, 444444
1, 10944, Tempo, 171428
1, 11232, Tempo, 444444
1, 19296, Tempo, 631578
1, 19680, Time_signature, 1, 2, 24, 8
1, 19776, Time_signature, 4, 2, 24, 8
1, 19776, Tempo, 461538
1, 20160, Tempo, 444444
1, 25248, Tempo, 171428
1, 25536, Tempo, 444444
1, 40128, Time_signature, 5, 2, 24, 8
1, 40608, Time_signature, 4, 2, 24, 8
1, 45984, Time_signature, 2, 2, 24, 8
1, 46176, Time_signature, 4, 2, 24, 8
1, 66144, Time_signature, 5, 2, 24, 8
1, 66624, Time_signature, 4, 2, 24, 8
1, 72000, Time_signature, 2, 2, 24, 8
1, 72192, Time_signature, 4, 2, 24, 8
1, 80832, End_track
2, 0, Start_track
2, 0, Program_c, 0, 0
2, 0, Control_c, 0, 7, 127
2, 0, Control_c, 0, 10, 64
2, 0, Note_on_c, 0, 69, 91
2, 192, Note_on_c, 0, 69, 0
2, 192, Note_on_c, 0, 61, 75
2, 288, Note_on_c, 0, 61, 0
2, 288, Note_on_c, 0, 62, 75
2, 377, Note_on_c, 0, 62, 0
2, 384, Note_on_c, 0, 70, 75
2, 396, Note_on_c, 0, 70, 0
2, 396, Note_on_c, 0, 69, 75
2, 408, Note_on_c, 0, 69, 0
2, 408, Note_on_c, 0, 70, 75
2, 517, Note_on_c, 0, 70, 0
2, 528, Note_on_c, 0, 67, 75
2, 573, Note_on_c, 0, 67, 0
2, 576, Note_on_c, 0, 69, 75
2, 753, Note_on_c, 0, 69, 0
2, 768, Note_on_c, 0, 67, 75
2, 901, Note_on_c, 0, 67, 0
2, 912, Note_on_c, 0, 64, 75
2, 957, Note_on_c, 0, 64, 0
2, 960, Note_on_c, 0, 67, 76
2, 1005, Note_on_c, 0, 67, 0
2, 1008, Note_on_c, 0, 65, 77
2, 1053, Note_on_c, 0, 65, 0
2, 1056, Note_on_c, 0, 64, 78
2, 1101, Note_on_c, 0, 64, 0
2, 1104, Note_on_c, 0, 62, 79
2, 1149, Note_on_c, 0, 62, 0
2, 1152, Note_on_c, 0, 61, 80
2, 1164, Note_on_c, 0, 61, 0
2, 1164, Note_on_c, 0, 62, 80
2, 1176, Note_on_c, 0, 62, 0
2, 1176, Note_on_c, 0, 64, 80
2, 1188, Note_on_c, 0, 64, 0
2, 1188, Note_on_c, 0, 62, 80
2, 1344, Note_on_c, 0, 62, 0
2, 1344, Note_on_c, 0, 61, 76
2, 1433, Note_on_c, 0, 61, 0
2, 1488, Note_on_c, 0, 82, 70
2, 1508, Note_on_c, 0, 82, 0
2, 1536, Note_on_c, 0, 82, 86
2, 1536, Note_on_c, 0, 79, 86
2, 1728, Note_on_c, 0, 82, 0
2, 1728, Note_on_c, 0, 79, 0
2, 1728, Note_on_c, 0, 81, 70
2, 1767, Note_on_c, 0, 81, 0
2, 1872, Note_on_c, 0, 85, 70
2, 1892, Note_on_c, 0, 85, 0
2, 1920, Note_on_c, 0, 85, 86
2, 1920, Note_on_c, 0, 82, 86
2, 2112, Note_on_c, 0, 85, 0
2, 2112, Note_on_c, 0, 82, 0
2, 2112, Note_on_c, 0, 86, 70
2, 2112, Note_on_c, 0, 81, 70
2, 2151, Note_on_c, 0, 86, 0
2, 2151, Note_on_c, 0, 81, 0
2, 2304, Note_on_c, 0, 87, 70
2, 2343, Note_on_c, 0, 87, 0
2, 2496, Note_on_c, 0, 85, 70
2, 2535, Note_on_c, 0, 85, 0
2, 2784, Note_on_c, 0, 69, 91
2, 2823, Note_on_c, 0, 69, 0
2, 2880, Note_on_c, 0, 61, 75
2, 2976, Note_on_c, 0, 61, 0
2, 2976, Note_on_c, 0, 62, 75
2, 3065, Note_on_c, 0, 62, 0
2, 3072, Note_on_c, 0, 70, 75
2, 3205, Note_on_c, 0, 70, 0
2, 3216, Note_on_c, 0, 67, 75
2, 3261, Note_on_c, 0, 67, 0
2, 3264, Note_on_c, 0, 69, 75
2, 3441, Note_on_c, 0, 69, 0
2, 3456, Note_on_c, 0, 67, 75
2, 3589, Note_on_c, 0, 67, 0
2, 3600, Note_on_c, 0, 64, 75
2, 3645, Note_on_c, 0, 64, 0
2, 3648, Note_on_c, 0, 67, 76
2, 3693, Note_on_c, 0, 67, 0
2, 3696, Note_on_c, 0, 65, 77
2, 3741, Note_on_c, 0, 65, 0
2, 3744, Note_on_c, 0, 64, 78
2, 3789, Note_on_c, 0, 64, 0
2, 3792, Note_on_c, 0, 62, 79
2, 3837, Note_on_c, 0, 62, 0
2, 3840, Note_on_c, 0, 61, 80
2, 3852, Note_on_c, 0, 61, 0
2, 3852, Note_on_c, 0, 62, 80
2, 3864, Note_on_c, 0, 62, 0
2, 3864, Note_on_c, 0, 64, 80
2, 3876, Note_on_c, 0, 64, 0
2, 3876, Note_on_c, 0, 62, 80
2, 4032, Note_on_c, 0, 62, 0
2, 4032, Note_on_c, 0, 61, 76
2, 4121, Note_on_c, 0, 61, 0
2, 4256, Note_on_c, 0, 61, 75
2, 4288, Note_on_c, 0, 61, 0
2, 4288, Note_on_c, 0, 62, 75
2, 4318, Note_on_c, 0, 62, 0
2, 4320, Note_on_c, 0, 65, 91
2, 4352, Note_on_c, 0, 65, 0
2, 4352, Note_on_c, 0, 61, 76
2, 4384, Note_on_c, 0, 61, 0
2, 4384, Note_on_c, 0, 62, 76
2, 4414, Note_on_c, 0, 62, 0
2, 4416, Note_on_c, 0, 67, 93
2, 4448, Note_on_c, 0, 67, 0
2, 4448, Note_on_c, 0, 61, 77
2, 4480, Note_on_c, 0, 61, 0
2, 4480, Note_on_c, 0, 62, 77
2, 4510, Note_on_c, 0, 62, 0
2, 4512, Note_on_c, 0, 69, 94
2, 4544, Note_on_c, 0, 69, 0
2, 4544, Note_on_c, 0, 61, 78
2, 4576, Note_on_c, 0, 61, 0
2, 4576, Note_on_c, 0, 62, 79
2, 4606, Note_on_c, 0, 62, 0
2, 4608, Control_c, 0, 64, 127
2, 4640, Note_on_c, 0, 58, 80
2, 4670, Note_on_c, 0, 58, 0
2, 4672, Note_on_c, 0, 63, 80
2, 4702, Note_on_c, 0, 63, 0
2, 4704, Note_on_c, 0, 67, 80
2, 4734, Note_on_c, 0, 67, 0
2, 4736, Note_on_c, 0, 63, 80
2, 4766, Note_on_c, 0, 63, 0
2, 4768, Note_on_c, 0, 67, 80
2, 4798, Note_on_c, 0, 67, 0
2, 4800, Note_on_c, 0, 70, 80
2, 4830, Note_on_c, 0, 70, 0
2, 4832, Note_on_c, 0, 67, 80
2, 4862, Note_on_c, 0, 67, 0
2, 4864, Note_on_c, 0, 70, 80
2, 4894, Note_on_c, 0, 70, 0
2, 4896, Note_on_c, 0, 75, 80
2, 4926, Note_on_c, 0, 75, 0
2, 4928, Note_on_c, 0, 70, 80
2, 4958, Note_on_c, 0, 70, 0
2, 4960, Note_on_c, 0, 79, 80
2, 4990, Note_on_c, 0, 79, 0
2, 4992, Control_c, 0, 64, 0
2, 4992, Note_on_c, 0, 82, 80
2, 5022, Note_on_c, 0, 82, 0
2, 5024, Note_on_c, 0, 81, 78
2, 5054, Note_on_c, 0, 81, 0
2, 5056, Note_on_c, 0, 79, 76
2, 5088, Note_on_c, 0, 79, 0
2, 5088, Note_on_c, 0, 77, 75
2, 5088, Note_on_c, 0, 74, 75
2, 5177, Note_on_c, 0, 77, 0
2, 5177, Note_on_c, 0, 74, 0
2, 5280, Note_on_c, 0, 76, 70
2, 5280, Note_on_c, 0, 73, 70
2, 5280, Note_on_c, 0, 69, 70
2, 5369, Note_on_c, 0, 76, 0
2, 5369, Note_on_c, 0, 73, 0
2, 5369, Note_on_c, 0, 69, 0
2, 5472, Note_on_c, 0, 74, 70
2, 5472, Note_on_c, 0, 65, 70
2, 5605, Note_on_c, 0, 74, 0
2, 5605, Note_on_c, 0, 65, 0
2, 5616, Note_on_c, 0, 76, 70
2, 5616, Note_on_c, 0, 69, 70
2, 5661, Note_on_c, 0, 76, 0
2, 5661, Note_on_c, 0, 69, 0
2, 5664, Note_on_c, 0, 77, 70
2, 5664, Note_on_c, 0, 74, 70
2, 5703, Note_on_c, 0, 77, 0
2, 5703, Note_on_c, 0, 74, 0
2, 5928, Note_on_c, 0, 81, 80
2, 5951, Note_on_c, 0, 81, 0
2, 5952, Note_on_c, 0, 84, 80
2, 5975, Note_on_c, 0, 84, 0
2, 5976, Note_on_c, 0, 82, 80
2, 5999, Note_on_c, 0, 82, 0
2, 6000, Note_on_c, 0, 81, 80
2, 6023, Note_on_c, 0, 81, 0
2, 6024, Note_on_c, 0, 79, 80
2, 6047, Note_on_c, 0, 79, 0
2, 6048, Note_on_c, 0, 77, 80
2, 6071, Note_on_c, 0, 77, 0
2, 6072, Note_on_c, 0, 76, 80
2, 6095, Note_on_c, 0, 76, 0
2, 6096, Note_on_c, 0, 74, 80
2, 6119, Note_on_c, 0, 74, 0
2, 6120, Note_on_c, 0, 72, 80
2, 6143, Note_on_c, 0, 72, 0
2, 6144, Note_on_c, 0, 70, 80
2, 6167, Note_on_c, 0, 70, 0
2, 6168, Note_on_c, 0, 69, 80
2, 6191, Note_on_c, 0, 69, 0
2, 6192, Note_on_c, 0, 67, 80
2, 6215, Note_on_c, 0, 67, 0
2, 6216, Note_on_c, 0, 65, 80
2, 6239, Note_on_c, 0, 65, 0
2, 6240, Note_on_c, 0, 76, 75
2, 6240, Note_on_c, 0, 64, 75
2, 6270, Note_on_c, 0, 76, 0
2, 6270, Note_on_c, 0, 64, 0
2, 6272, Note_on_c, 0, 74, 75
2, 6272, Note_on_c, 0, 62, 75
2, 6302, Note_on_c, 0, 74, 0
2, 6302, Note_on_c, 0, 62, 0
2, 6304, Note_on_c, 0, 72, 75
2, 6304, Note_on_c, 0, 60, 75
2, 6334, Note_on_c, 0, 72, 0
2, 6334, Note_on_c, 0, 60, 0
2, 6336, Note_on_c, 0, 70, 75
2, 6336, Note_on_c, 0, 58, 75
2, 6366, Note_on_c, 0, 70, 0
2, 6366, Note_on_c, 0, 58, 0
2, 6368, Note_on_c, 0, 69, 75
2, 6368, Note_on_c, 0, 57, 75
2, 6398, Note_on_c, 0, 69, 0
2, 6398, Note_on_c, 0, 57, 0
2, 6400, Note_on_c, 0, 67, 75
2, 6400, Note_on_c, 0, 55, 75
2, 6430, Note_on_c, 0, 67, 0
2, 6430, Note_on_c, 0, 55, 0
2, 6432, Note_on_c, 0, 66, 80
2, 6462, Note_on_c, 0, 66, 0
2, 6464, Note_on_c, 0, 63, 80
2, 6494, Note_on_c, 0, 63, 0
2, 6496, Note_on_c, 0, 62, 80
2, 6526, Note_on_c, 0, 62, 0
2, 6528, Note_on_c, 0, 60, 80
2, 6558, Note_on_c, 0, 60, 0
2, 6560, Note_on_c, 0, 58, 80
2, 6590, Note_on_c, 0, 58, 0
2, 6592, Note_on_c, 0, 57, 80
2, 6622, Note_on_c, 0, 57, 0
2, 6624, Note_on_c, 0, 58, 80
2, 6654, Note_on_c, 0, 58, 0
2, 6656, Note_on_c, 0, 55, 80
2, 6686, Note_on_c, 0, 55, 0
2, 6688, Note_on_c, 0, 58, 80
2, 6718, Note_on_c, 0, 58, 0
2, 6720, Note_on_c, 0, 62, 80
2, 6750, Note_on_c, 0, 62, 0
2, 6752, Note_on_c, 0, 58, 80
2, 6782, Note_on_c, 0, 58, 0
2, 6784, Note_on_c, 0, 62, 80
2, 6814, Note_on_c, 0, 62, 0
2, 6816, Note_on_c, 0, 67, 80
2, 6846, Note_on_c, 0, 67, 0
2, 6848, Note_on_c, 0, 62, 80
2, 6878, Note_on_c, 0, 62, 0
2, 6880, Note_on_c, 0, 67, 80
2, 6910, Note_on_c, 0, 67, 0
2, 6912, Note_on_c, 0, 70, 80
2, 6942, Note_on_c, 0, 70, 0
2, 6944, Note_on_c, 0, 67, 80
2, 6974, Note_on_c, 0, 67, 0
2, 6976, Note_on_c, 0, 70, 80
2, 7006, Note_on_c, 0, 70, 0
2, 7008, Note_on_c, 0, 64, 80
2, 7038, Note_on_c, 0, 64, 0
2, 7040, Note_on_c, 0, 79, 80
2, 7070, Note_on_c, 0, 79, 0
2, 7072, Note_on_c, 0, 77, 80
2, 7102, Note_on_c, 0, 77, 0
2, 7104, Note_on_c, 0, 76, 80
2, 7134, Note_on_c, 0, 76, 0
2, 7136, Note_on_c, 0, 74, 80
2, 7166, Note_on_c, 0, 74, 0
2, 7168, Note_on_c, 0, 72, 80
2, 7198, Note_on_c, 0, 72, 0
2, 7200, Note_on_c, 0, 70, 80
2, 7223, Note_on_c, 0, 70, 0
2, 7224, Note_on_c, 0, 69, 80
2, 7247, Note_on_c, 0, 69, 0
2, 7248, Note_on_c, 0, 67, 80
2, 7271, Note_on_c, 0, 67, 0
2, 7272, Note_on_c, 0, 65, 80
2, 7295, Note_on_c, 0, 65, 0
2, 7296, Note_on_c, 0, 64, 75
2, 7296, Note_on_c, 0, 52, 75
2, 7319, Note_on_c, 0, 64, 0
2, 7319, Note_on_c, 0, 52, 0
2, 7320, Note_on_c, 0, 62, 75
2, 7320, Note_on_c, 0, 50, 75
2, 7343, Note_on_c, 0, 62, 0
2, 7343, Note_on_c, 0, 50, 0
2, 7344, Note_on_c, 0, 60, 75
2, 7344, Note_on_c, 0, 48, 75
2, 7367, Note_on_c, 0, 60, 0
2, 7367, Note_on_c, 0, 48, 0
2, 7368, Note_on_c, 0, 58, 75
2, 7368, Note_on_c, 0, 46, 75
2, 7391, Note_on_c, 0, 58, 0
2, 7391, Note_on_c, 0, 46, 0
2, 7392, Note_on_c, 0, 72, 80
2, 7422, Note_on_c, 0, 72, 0
2, 7424, Note_on_c, 0, 69, 80
2, 7454, Note_on_c, 0, 69, 0
2, 7456, Note_on_c, 0, 60, 80
2, 7486, Note_on_c, 0, 60, 0
2, 7488, Note_on_c, 0, 72, 80
2, 7518, Note_on_c, 0, 72, 0
2, 7520, Note_on_c, 0, 69, 80
2, 7550, Note_on_c, 0, 69, 0
2, 7552, Note_on_c, 0, 60, 80
2, 7582, Note_on_c, 0, 60, 0
2, 7584, Note_on_c, 0, 70, 80
2, 7614, Note_on_c, 0, 70, 0
2, 7616, Note_on_c, 0, 67, 80
2, 7646, Note_on_c, 0, 67, 0
2, 7648, Note_on_c, 0, 60, 80
2, 7678, Note_on_c, 0, 60, 0
2, 7680, Note_on_c, 0, 70, 80
2, 7710, Note_on_c, 0, 70, 0
2, 7712, Note_on_c, 0, 67, 80
2, 7742, Note_on_c, 0, 67, 0
2, 7744, Note_on_c, 0, 60, 80
2, 7774, Note_on_c, 0, 60, 0
2, 7776, Note_on_c, 0, 69, 80
2, 7806, Note_on_c, 0, 69, 0
2, 7808, Note_on_c, 0, 65, 80
2, 7838, Note_on_c, 0, 65, 0
2, 7840, Note_on_c, 0, 60, 80
2, 7870, Note_on_c, 0, 60, 0
2, 7872, Note_on_c, 0, 69, 80
2, 7902, Note_on_c, 0, 69, 0
2, 7904, Note_on_c, 0, 65, 80
2, 7934, Note_on_c, 0, 65, 0
2, 7936, Note_on_c, 0, 60, 80
2, 7966, Note_on_c, 0, 60, 0
2, 7968, Note_on_c, 0, 67, 80
2, 7998, Note_on_c, 0, 67, 0
2, 8000, Note_on_c, 0, 64, 80
2, 8030, Note_on_c, 0, 64, 0
2, 8032, Note_on_c, 0, 60, 80
2, 8062, Note_on_c, 0, 60, 0
2, 8064, Note_on_c, 0, 67, 80
2, 8094, Note_on_c, 0, 67, 0
2, 8096, Note_on_c, 0, 64, 80
2, 8126, Note_on_c, 0, 64, 0
2, 8128, Note_on_c, 0, 60, 80
2, 8158, Note_on_c, 0, 60, 0
2, 8160, Note_on_c, 0, 72, 80
2, 8190, Note_on_c, 0, 72, 0
2, 8192, Note_on_c, 0, 69, 80
2, 8222, Note_on_c, 0, 69, 0
2, 8224, Note_on_c, 0, 60, 80
2, 8254, Note_on_c, 0, 60, 0
2, 8256, Note_on_c, 0, 72, 81
2, 8286, Note_on_c, 0, 72, 0
2, 8288, Note_on_c, 0, 69, 81
2, 8318, Note_on_c, 0, 69, 0
2, 8320, Note_on_c, 0, 60, 82
2, 8350, Note_on_c, 0, 60, 0
2, 8352, Note_on_c, 0, 70, 82
2, 8382, Note_on_c, 0, 70, 0
2, 8384, Note_on_c, 0, 67, 83
2, 8414, Note_on_c, 0, 67, 0
2, 8416, Note_on_c, 0, 60, 83
2, 8446, Note_on_c, 0, 60, 0
2, 8448, Note_on_c, 0, 70, 84
2, 8478, Note_on_c, 0, 70, 0
2, 8480, Note_on_c, 0, 67, 84
2, 8510, Note_on_c, 0, 67, 0
2, 8512, Note_on_c, 0, 60, 85
2, 8542, Note_on_c, 0, 60, 0
2, 8544, Note_on_c, 0, 69, 86
2, 8574, Note_on_c, 0, 69, 0
2, 8576, Note_on_c, 0, 65, 86
2, 8606, Note_on_c, 0, 65, 0
2, 8608, Note_on_c, 0, 60, 85
2, 8638, Note_on_c, 0, 60, 0
2, 8640, Note_on_c, 0, 69, 84
2, 8670, Note_on_c, 0, 69, 0
2, 8672, Note_on_c, 0, 65, 84
2, 8702, Note_on_c, 0, 65, 0
2, 8704, Note_on_c, 0, 60, 83
2, 8734, Note_on_c, 0, 60, 0
2, 8736, Note_on_c, 0, 67, 83
2, 8766, Note_on_c, 0, 67, 0
2, 8768, Note_on_c, 0, 64, 82
2, 8798, Note_on_c, 0, 64, 0
2, 8800, Note_on_c, 0, 60, 82
2, 8830, Note_on_c, 0, 60, 0
2, 8832, Note_on_c, 0, 67, 81
2, 8862, Note_on_c, 0, 67, 0
2, 8864, Note_on_c, 0, 64, 81
2, 8894, Note_on_c, 0, 64, 0
2, 8896, Note_on_c, 0, 60, 80
2, 8926, Note_on_c, 0, 60, 0
2, 8928, Note_on_c, 0, 65, 80
2, 8951, Note_on_c, 0, 65, 0
2, 8952, Note_on_c, 0, 62, 79
2, 8975, Note_on_c, 0, 62, 0
2, 8976, Note_on_c, 0, 59, 78
2, 8999, Note_on_c, 0, 59, 0
2, 9000, Note_on_c, 0, 62, 78
2, 9023, Note_on_c, 0, 62, 0
2, 9024, Note_on_c, 0, 65, 77
2, 9047, Note_on_c, 0, 65, 0
2, 9048, Note_on_c, 0, 62, 76
2, 9071, Note_on_c, 0, 62, 0
2, 9072, Note_on_c, 0, 59, 76
2, 9095, Note_on_c, 0, 59, 0
2, 9096, Note_on_c, 0, 62, 75
2, 9119, Note_on_c, 0, 62, 0
2, 9120, Note_on_c, 0, 64, 75
2, 9168, Note_on_c, 0, 64, 0
2, 9168, Note_on_c, 0, 72, 75
2, 9213, Note_on_c, 0, 72, 0
2, 9504, Note_on_c, 0, 64, 70
2, 9552, Note_on_c, 0, 64, 0
2, 9552, Note_on_c, 0, 72, 70
2, 9597, Note_on_c, 0, 72, 0
2, 9888, Note_on_c, 0, 66, 70
2, 9936, Note_on_c, 0, 66, 0
2, 9936, Note_on_c, 0, 74, 70
2, 9981, Note_on_c, 0, 74, 0
2, 10272, Note_on_c, 0, 67, 70
2, 10320, Note_on_c, 0, 67, 0
2, 10320, Note_on_c, 0, 75, 70
2, 10365, Note_on_c, 0, 75, 0
2, 10368, Note_on_c, 0, 66, 70
2, 10416, Note_on_c, 0, 66, 0
2, 10416, Note_on_c, 0, 74, 70
2, 10461, Note_on_c, 0, 74, 0
2, 10656, Note_on_c, 0, 64, 70
2, 10704, Note_on_c, 0, 64, 0
2, 10704, Note_on_c, 0, 72, 70
2, 10749, Note_on_c, 0, 72, 0
2, 10752, Note_on_c, 0, 65, 70
2, 10800, Note_on_c, 0, 65, 0
2, 10800, Note_on_c, 0, 72, 70
2, 10845, Note_on_c, 0, 72, 0
2, 10848, Note_on_c, 0, 64, 70
2, 10896, Note_on_c, 0, 64, 0
2, 10896, Note_on_c, 0, 73, 70
2, 10941, Note_on_c, 0, 73, 0
2, 11232, Note_on_c, 0, 73, 70
2, 11232, Note_on_c, 0, 70, 70
2, 11409, Note_on_c, 0, 73, 0
2, 11409, Note_on_c, 0, 70, 0
2, 11424, Note_on_c, 0, 72, 70
2, 11424, Note_on_c, 0, 70, 70
2, 11611, Note_on_c, 0, 72, 0
2, 11611, Note_on_c, 0, 70, 0
2, 11616, Note_on_c, 0, 72, 70
2, 11616, Note_on_c, 0, 70, 70
2, 11803, Note_on_c, 0, 72, 0
2, 11803, Note_on_c, 0, 70, 0
2, 11808, Note_on_c, 0, 72, 70
2, 11808, Note_on_c, 0, 68, 70
2, 11855, Note_on_c, 0, 72, 0
2, 11855, Note_on_c, 0, 68, 0
2, 11856, Note_on_c, 0, 68, 71
2, 11901, Note_on_c, 0, 68, 0
2, 11904, Note_on_c, 0, 67, 72
2, 11949, Note_on_c, 0, 67, 0
2, 11952, Note_on_c, 0, 68, 73
2, 11997, Note_on_c, 0, 68, 0
2, 12000, Note_on_c, 0, 75, 75
2, 12000, Note_on_c, 0, 72, 75
2, 12177, Note_on_c, 0, 75, 0
2, 12177, Note_on_c, 0, 72, 0
2, 12192, Note_on_c, 0, 74, 75
2, 12192, Note_on_c, 0, 72, 75
2, 12379, Note_on_c, 0, 74, 0
2, 12379, Note_on_c, 0, 72, 0
2, 12384, Note_on_c, 0, 77, 75
2, 12384, Note_on_c, 0, 74, 75
2, 12576, Note_on_c, 0, 77, 0
2, 12576, Note_on_c, 0, 74, 0
2, 12576, Note_on_c, 0, 76, 71
2, 12576, Note_on_c, 0, 73, 71
2, 12665, Note_on_c, 0, 76, 0
2, 12665, Note_on_c, 0, 73, 0
2, 12720, Note_on_c, 0, 81, 80
2, 12740, Note_on_c, 0, 81, 0
2, 12768, Note_on_c, 0, 81, 96
2, 12816, Note_on_c, 0, 81, 0
2, 12816, Note_on_c, 0, 82, 80
2, 12831, Note_on_c, 0, 82, 0
2, 12832, Note_on_c, 0, 81, 80
2, 12847, Note_on_c, 0, 81, 0
2, 12848, Note_on_c, 0, 79, 80
2, 12863, Note_on_c, 0, 79, 0
2, 12864, Note_on_c, 0, 81, 80
2, 12909, Note_on_c, 0, 81, 0
2, 12912, Note_on_c, 0, 84, 80
2, 12932, Note_on_c, 0, 84, 0
2, 12960, Note_on_c, 0, 77, 96
2, 13008, Note_on_c, 0, 77, 0
2, 13008, Note_on_c, 0, 79, 80
2, 13023, Note_on_c, 0, 79, 0
2, 13024, Note_on_c, 0, 77, 80
2, 13039, Note_on_c, 0, 77, 0
2, 13040, Note_on_c, 0, 76, 80
2, 13055, Note_on_c, 0, 76, 0
2, 13056, Note_on_c, 0, 77, 80
2, 13101, Note_on_c, 0, 77, 0
2, 13104, Note_on_c, 0, 81, 80
2, 13124, Note_on_c, 0, 81, 0
2, 13152, Note_on_c, 0, 72, 96
2, 13200, Note_on_c, 0, 72, 0
2, 13200, Note_on_c, 0, 74, 80
2, 13215, Note_on_c, 0, 74, 0
2, 13216, Note_on_c, 0, 72, 80
2, 13231, Note_on_c, 0, 72, 0
2, 13232, Note_on_c, 0, 71, 80
2, 13247, Note_on_c, 0, 71, 0
2, 13248, Note_on_c, 0, 72, 80
2, 13293, Note_on_c, 0, 72, 0
2, 13296, Note_on_c, 0, 77, 80
2, 13316, Note_on_c, 0, 77, 0
2, 13344, Note_on_c, 0, 69, 96
2, 13392, Note_on_c, 0, 69, 0
2, 13392, Note_on_c, 0, 70, 80
2, 13407, Note_on_c, 0, 70, 0
2, 13408, Note_on_c, 0, 69, 80
2, 13423, Note_on_c, 0, 69, 0
2, 13424, Note_on_c, 0, 67, 80
2, 13439, Note_on_c, 0, 67, 0
2, 13440, Note_on_c, 0, 69, 80
2, 13485, Note_on_c, 0, 69, 0
2, 13488, Note_on_c, 0, 72, 80
2, 13508, Note_on_c, 0, 72, 0
2, 13536, Note_on_c, 0, 65, 80
2, 13581, Note_on_c, 0, 65, 0
2, 13584, Note_on_c, 0, 69, 80
2, 13629, Note_on_c, 0, 69, 0
2, 13632, Note_on_c, 0, 74, 80
2, 13677, Note_on_c, 0, 74, 0
2, 13680, Note_on_c, 0, 72, 80
2, 13725, Note_on_c, 0, 72, 0
2, 13728, Note_on_c, 0, 72, 80
2, 13728, Note_on_c, 0, 69, 80
2, 13773, Note_on_c, 0, 72, 0
2, 13773, Note_on_c, 0, 69, 0
2, 13776, Note_on_c, 0, 70, 78
2, 13776, Note_on_c, 0, 67, 78
2, 13821, Note_on_c, 0, 70, 0
2, 13821, Note_on_c, 0, 67, 0
2, 13824, Note_on_c, 0, 69, 77
2, 13824, Note_on_c, 0, 65, 77
2, 13869, Note_on_c, 0, 69, 0
2, 13869, Note_on_c, 0, 65, 0
2, 13872, Note_on_c, 0, 67, 76
2, 13872, Note_on_c, 0, 64, 76
2, 13917, Note_on_c, 0, 67, 0
2, 13917, Note_on_c, 0, 64, 0
2, 13920, Note_on_c, 0, 67, 75
2, 13920, Note_on_c, 0, 64, 75
2, 14112, Note_on_c, 0, 67, 0
2, 14112, Note_on_c, 0, 64, 0
2, 14112, Note_on_c, 0, 65, 75
2, 14201, Note_on_c, 0, 65, 0
2, 14304, Note_on_c, 0, 69, 91
2, 14496, Note_on_c, 0, 69, 0
2, 14496, Note_on_c, 0, 61, 75
2, 14592, Note_on_c, 0, 61, 0
2, 14592, Note_on_c, 0, 62, 75
2, 14681, Note_on_c, 0, 62, 0
2, 14688, Note_on_c, 0, 70, 75
2, 14700, Note_on_c, 0, 70, 0
2, 14700, Note_on_c, 0, 69, 75
2, 14712, Note_on_c, 0, 69, 0
2, 14712, Note_on_c, 0, 70, 75
2, 14821, Note_on_c, 0, 70, 0
2, 14832, Note_on_c, 0, 67, 75
2, 14877, Note_on_c, 0, 67, 0
2, 14880, Note_on_c, 0, 69, 75
2, 15057, Note_on_c, 0, 69, 0
2, 15072, Note_on_c, 0, 67, 75
2, 15205, Note_on_c, 0, 67, 0
2, 15216, Note_on_c, 0, 64, 75
2, 15261, Note_on_c, 0, 64, 0
2, 15264, Note_on_c, 0, 67, 76
2, 15309, Note_on_c, 0, 67, 0
2, 15312, Note_on_c, 0, 65, 77
2, 15357, Note_on_c, 0, 65, 0
2, 15360, Note_on_c, 0, 64, 78
2, 15405, Note_on_c, 0, 64, 0
2, 15408, Note_on_c, 0, 62, 79
2, 15453, Note_on_c, 0, 62, 0
2, 15456, Note_on_c, 0, 61, 80
2, 15468, Note_on_c, 0, 61, 0
2, 15468, Note_on_c, 0, 62, 80
2, 15480, Note_on_c, 0, 62, 0
2, 15480, Note_on_c, 0, 64, 80
2, 15492, Note_on_c, 0, 64, 0
2, 15492, Note_on_c, 0, 62, 80
2, 15648, Note_on_c, 0, 62, 0
2, 15648, Note_on_c, 0, 61, 76
2, 15737, Note_on_c, 0, 61, 0
2, 15792, Note_on_c, 0, 82, 70
2, 15812, Note_on_c, 0, 82, 0
2, 15840, Note_on_c, 0, 82, 86
2, 15840, Note_on_c, 0, 79, 86
2, 16032, Note_on_c, 0, 82, 0
2, 16032, Note_on_c, 0, 79, 0
2, 16032, Note_on_c, 0, 81, 70
2, 16071, Note_on_c, 0, 81, 0
2, 16176, Note_on_c, 0, 85, 70
2, 16196, Note_on_c, 0, 85, 0
2, 16224, Note_on_c, 0, 85, 86
2, 16224, Note_on_c, 0, 82, 86
2, 16416, Note_on_c, 0, 85, 0
2, 16416, Note_on_c, 0, 82, 0
2, 16416, Note_on_c, 0, 86, 70
2, 16416, Note_on_c, 0, 81, 70
2, 16455, Note_on_c, 0, 86, 0
2, 16455, Note_on_c, 0, 81, 0
2, 16608, Note_on_c, 0, 87, 70
2, 16647, Note_on_c, 0, 87, 0
2, 16800, Note_on_c, 0, 85, 70
2, 16839, Note_on_c, 0, 85, 0
2, 17088, Note_on_c, 0, 69, 91
2, 17127, Note_on_c, 0, 69, 0
2, 17184, Note_on_c, 0, 61, 75
2, 17280, Note_on_c, 0, 61, 0
2, 17280, Note_on_c, 0, 62, 75
2, 17369, Note_on_c, 0, 62, 0
2, 17376, Note_on_c, 0, 70, 75
2, 17509, Note_on_c, 0, 70, 0
2, 17520, Note_on_c, 0, 67, 75
2, 17565, Note_on_c, 0, 67, 0
2, 17568, Note_on_c, 0, 69, 75
2, 17745, Note_on_c, 0, 69, 0
2, 17760, Note_on_c, 0, 67, 75
2, 17893, Note_on_c, 0, 67, 0
2, 17904, Note_on_c, 0, 64, 75
2, 17949, Note_on_c, 0, 64, 0
2, 17952, Note_on_c, 0, 67, 76
2, 17997, Note_on_c, 0, 67, 0
2, 18000, Note_on_c, 0, 65, 77
2, 18045, Note_on_c, 0, 65, 0
2, 18048, Note_on_c, 0, 64, 78
2, 18093, Note_on_c, 0, 64, 0
2, 18096, Note_on_c, 0, 62, 79
2, 18141, Note_on_c, 0, 62, 0
2, 18144, Note_on_c, 0, 61, 80
2, 18156, Note_on_c, 0, 61, 0
2, 18156, Note_on_c, 0, 62, 80
2, 18168, Note_on_c, 0, 62, 0
2, 18168, Note_on_c, 0, 64, 80
2, 18180, Note_on_c, 0, 64, 0
2, 18180, Note_on_c, 0, 62, 80
2, 18336, Note_on_c, 0, 62, 0
2, 18336, Note_on_c, 0, 61, 76
2, 18425, Note_on_c, 0, 61, 0
2, 18560, Note_on_c, 0, 61, 75
2, 18592, Note_on_c, 0, 61, 0
2, 18592, Note_on_c, 0, 62, 75
2, 18622, Note_on_c, 0, 62, 0
2, 18624, Note_on_c, 0, 65, 91
2, 18656, Note_on_c, 0, 65, 0
2, 18656, Note_on_c, 0, 61, 76
2, 18688, Note_on_c, 0, 61, 0
2, 18688, Note_on_c, 0, 62, 76
2, 18718, Note_on_c, 0, 62, 0
2, 18720, Note_on_c, 0, 67, 93
2, 18752, Note_on_c, 0, 67, 0
2, 18752, Note_on_c, 0, 61, 77
2, 18784, Note_on_c, 0, 61, 0
2, 18784, Note_on_c, 0, 62, 77
2, 18814, Note_on_c, 0, 62, 0
2, 18816, Note_on_c, 0, 69, 94
2, 18848, Note_on_c, 0, 69, 0
2, 18848, Note_on_c, 0, 61, 78
2, 18880, Note_on_c, 0, 61, 0
2, 18880, Note_on_c, 0, 62, 79
2, 18910, Note_on_c, 0, 62, 0
2, 18912, Control_c, 0, 64, 127
2, 18944, Note_on_c, 0, 58, 80
2, 18974, Note_on_c, 0, 58, 0
2, 18976, Note_on_c, 0, 63, 80
2, 19006, Note_on_c, 0, 63, 0
2, 19008, Note_on_c, 0, 67, 80
2, 19038, Note_on_c, 0, 67, 0
2, 19040, Note_on_c, 0, 63, 80
2, 19070, Note_on_c, 0, 63, 0
2, 19072, Note_on_c, 0, 67, 80
2, 19102, Note_on_c, 0, 67, 0
2, 19104, Note_on_c, 0, 70, 80
2, 19134, Note_on_c, 0, 70, 0
2, 19136, Note_on_c, 0, 67, 80
2, 19166, Note_on_c, 0, 67, 0
2, 19168, Note_on_c, 0, 70, 80
2, 19198, Note_on_c, 0, 70, 0
2, 19200, Note_on_c, 0, 75, 80
2, 19230, Note_on_c, 0, 75, 0
2, 19232, Note_on_c, 0, 70, 80
2, 19262, Note_on_c, 0, 70, 0
2, 19264, Note_on_c, 0, 79, 80
2, 19294, Note_on_c, 0, 79, 0
2, 19296, Control_c, 0, 64, 0
2, 19296, Note_on_c, 0, 82, 80
2, 19326, Note_on_c, 0, 82, 0
2, 19328, Note_on_c, 0, 81, 78
2, 19358, Note_on_c, 0, 81, 0
2, 19360, Note_on_c, 0, 79, 76
2, 19392, Note_on_c, 0, 79, 0
2, 19392, Note_on_c, 0, 77, 75
2, 19392, Note_on_c, 0, 74, 75
2, 19481, Note_on_c, 0, 77, 0
2, 19481, Note_on_c, 0, 74, 0
2, 19584, Note_on_c, 0, 76, 70
2, 19584, Note_on_c, 0, 73, 70
2, 19584, Note_on_c, 0, 69, 70
2, 19673, Note_on_c, 0, 76, 0
2, 19673, Note_on_c, 0, 73, 0
2, 19673, Note_on_c, 0, 69, 0
2, 19776, Note_on_c, 0, 74, 70
2, 19776, Note_on_c, 0, 65, 70
2, 19909, Note_on_c, 0, 74, 0
2, 19909, Note_on_c, 0, 65, 0
2, 19920, Note_on_c, 0, 76, 70
2, 19920, Note_on_c, 0, 69, 70
2, 19965, Note_on_c, 0, 76, 0
2, 19965, Note_on_c, 0, 69, 0
2, 19968, Note_on_c, 0, 77, 70
2, 19968, Note_on_c, 0, 74, 70
2, 20007, Note_on_c, 0, 77, 0
2, 20007, Note_on_c, 0, 74, 0
2, 20232, Note_on_c, 0, 81, 80
2, 20255, Note_on_c, 0, 81, 0
2, 20256, Note_on_c, 0, 84, 80
2, 20279, Note_on_c, 0, 84, 0
2, 20280, Note_on_c, 0, 82, 80
2, 20303, Note_on_c, 0, 82, 0
2, 20304, Note_on_c, 0, 81, 80
2, 20327, Note_on_c, 0, 81, 0
2, 20328, Note_on_c, 0, 79, 80
2, 20351, Note_on_c, 0, 79, 0
2, 20352, Note_on_c, 0, 77, 80
2, 20375, Note_on_c, 0, 77, 0
2, 20376, Note_on_c, 0, 76, 80
2, 20399, Note_on_c, 0, 76, 0
2, 20400, Note_on_c, 0, 74, 80
2, 20423, Note_on_c, 0, 74, 0
2, 20424, Note_on_c, 0, 72, 80
2, 20447, Note_on_c, 0, 72, 0
2, 20448, Note_on_c, 0, 70, 80
2, 20471, Note_on_c, 0, 70, 0
2, 20472, Note_on_c, 0, 69, 80
2, 20495, Note_on_c, 0, 69, 0
2, 20496, Note_on_c, 0, 67, 80
2, 20519, Note_on_c, 0, 67, 0
2, 20520, Note_on_c, 0, 65, 80
2, 20543, Note_on_c, 0, 65, 0
2, 20544, Note_on_c, 0, 76, 75
2, 20544, Note_on_c, 0, 64, 75
2, 20574, Note_on_c, 0, 76, 0
2, 20574, Note_on_c, 0, 64, 0
2, 20576, Note_on_c, 0, 74, 75
2, 20576, Note_on_c, 0, 62, 75
2, 20606, Note_on_c, 0, 74, 0
2, 20606, Note_on_c, 0, 62, 0
2, 20608, Note_on_c, 0, 72, 75
2, 20608, Note_on_c, 0, 60, 75
2, 20638, Note_on_c, 0, 72, 0
2, 20638, Note_on_c, 0, 60, 0
2, 20640, Note_on_c, 0, 70, 75
2, 20640, Note_on_c, 0, 58, 75
2, 20670, Note_on_c, 0, 70, 0
2, 20670, Note_on_c, 0, 58, 0
2, 20672, Note_on_c, 0, 69, 75
2, 20672, Note_on_c, 0, 57, 75
2, 20702, Note_on_c, 0, 69, 0
2, 20702, Note_on_c, 0, 57, 0
2, 20704, Note_on_c, 0, 67, 75
2, 20704, Note_on_c, 0, 55, 75
2, 20734, Note_on_c, 0, 67, 0
2, 20734, Note_on_c, 0, 55, 0
2, 20736, Note_on_c, 0, 66, 80
2, 20766, Note_on_c, 0, 66, 0
2, 20768, Note_on_c, 0, 63, 80
2, 20798, Note_on_c, 0, 63, 0
2, 20800, Note_on_c, 0, 62, 80
2, 20830, Note_on_c, 0, 62, 0
2, 20832, Note_on_c, 0, 60, 80
2, 20862, Note_on_c, 0, 60, 0
2, 20864, Note_on_c, 0, 58, 80
2, 20894, Note_on_c, 0, 58, 0
2, 20896, Note_on_c, 0, 57, 80
2, 20926, Note_on_c, 0, 57, 0
2, 20928, Note_on_c, 0, 58, 80
2, 20958, Note_on_c, 0, 58, 0
2, 20960, Note_on_c, 0, 55, 80
2, 20990, Note_on_c, 0, 55, 0
2, 20992, Note_on_c, 0, 58, 80
2, 21022, Note_on_c, 0, 58, 0
2, 21024, Note_on_c, 0, 62, 80
2, 21054, Note_on_c, 0, 62, 0
2, 21056, Note_on_c, 0, 58, 80
2, 21086, Note_on_c, 0, 58, 0
2, 21088, Note_on_c, 0, 62, 80
2, 21118, Note_on_c, 0, 62, 0
2, 21120, Note_on_c, 0, 67, 80
2, 21150, Note_on_c, 0, 67, 0
2, 21152, Note_on_c, 0, 62, 80
2, 21182, Note_on_c, 0, 62, 0
2, 21184, Note_on_c, 0, 67, 80
2, 21214, Note_on_c, 0, 67, 0
2, 21216, Note_on_c, 0, 70, 80
2, 21246, Note_on_c, 0, 70, 0
2, 21248, Note_on_c, 0, 67, 80
2, 21278, Note_on_c, 0, 67, 0
2, 21280, Note_on_c, 0, 70, 80
2, 21310, Note_on_c, 0, 70, 0
2, 21312, Note_on_c, 0, 64, 80
2, 21342, Note_on_c, 0, 64, 0
2, 21344, Note_on_c, 0, 79, 80
2, 21374, Note_on_c, 0, 79, 0
2, 21376, Note_on_c, 0, 77, 80
2, 21406, Note_on_c, 0, 77, 0
2, 21408, Note_on_c, 0, 76, 80
2, 21438, Note_on_c, 0, 76, 0
2, 21440, Note_on_c, 0, 74, 80
2, 21470, Note_on_c, 0, 74, 0
2, 21472, Note_on_c, 0, 72, 80
2, 21502, Note_on_c, 0, 72, 0
2, 21504, Note_on_c, 0, 70, 80
2, 21527, Note_on_c, 0, 70, 0
2, 21528, Note_on_c, 0, 69, 80
2, 21551, Note_on_c, 0, 69, 0
2, 21552, Note_on_c, 0, 67, 80
2, 21575, Note_on_c, 0, 67, 0
2, 21576, Note_on_c, 0, 65, 80
2, 21599, Note_on_c, 0, 65, 0
2, 21600, Note_on_c, 0, 64, 75
2, 21600, Note_on_c, 0, 52, 75
2, 21623, Note_on_c, 0, 64, 0
2, 21623, Note_on_c, 0, 52, 0
2, 21624, Note_on_c, 0, 62, 75
2, 21624, Note_on_c, 0, 50, 75
2, 21647, Note_on_c, 0, 62, 0
2, 21647, Note_on_c, 0, 50, 0
2, 21648, Note_on_c, 0, 60, 75
2, 21648, Note_on_c, 0, 48, 75
2, 21671, Note_on_c, 0, 60, 0
2, 21671, Note_on_c, 0, 48, 0
2, 21672, Note_on_c, 0, 58, 75
2, 21672, Note_on_c, 0, 46, 75
2, 21695, Note_on_c, 0, 58, 0
2, 21695, Note_on_c, 0, 46, 0
2, 21696, Note_on_c, 0, 72, 80
2, 21726, Note_on_c, 0, 72, 0
2, 21728, Note_on_c, 0, 69, 80
2, 21758, Note_on_c, 0, 69, 0
2, 21760, Note_on_c, 0, 60, 80
2, 21790, Note_on_c, 0, 60, 0
2, 21792, Note_on_c, 0, 72, 80
2, 21822, Note_on_c, 0, 72, 0
2, 21824, Note_on_c, 0, 69, 80
2, 21854, Note_on_c, 0, 69, 0
2, 21856, Note_on_c, 0, 60, 80
2, 21886, Note_on_c, 0, 60, 0
2, 21888, Note_on_c, 0, 70, 80
2, 21918, Note_on_c, 0, 70, 0
2, 21920, Note_on_c, 0, 67, 80
2, 21950, Note_on_c, 0, 67, 0
2, 21952, Note_on_c, 0, 60, 80
2, 21982, Note_on_c, 0, 60, 0
2, 21984, Note_on_c, 0, 70, 80
2, 22014, Note_on_c, 0, 70, 0
2, 22016, Note_on_c, 0, 67, 80
2, 22046, Note_on_c, 0, 67, 0
2, 22048, Note_on_c, 0, 60, 80
2, 22078, Note_on_c, 0, 60, 0
2, 22080, Note_on_c, 0, 69, 80
2, 22110, Note_on_c, 0, 69, 0
2, 22112, Note_on_c, 0, 65, 80
2, 22142, Note_on_c, 0, 65, 0
2, 22144, Note_on_c, 0, 60, 80
2, 22174, Note_on_c, 0, 60, 0
2, 22176, Note_on_c, 0, 69, 80
2, 22206, Note_on_c, 0, 69, 0
2, 22208, Note_on_c, 0, 65, 80
2, 22238, Note_on_c, 0, 65, 0
2, 22240, Note_on_c, 0, 60, 80
2, 22270, Note_on_c, 0, 60, 0
2, 22272, Note_on_c, 0, 67, 80
2, 22302, Note_on_c, 0, 67, 0
2, 22304, Note_on_c, 0, 64, 80
2, 22334, Note_on_c, 0, 64, 0
2, 22336, Note_on_c, 0, 60, 80
2, 22366, Note_on_c, 0, 60, 0
2, 22368, Note_on_c, 0, 67, 80
2, 22398, Note_on_c, 0, 67, 0
2, 22400, Note_on_c, 0, 64, 80
2, 22430, Note_on_c, 0, 64, 0
2, 22432, Note_on_c, 0, 60, 80
2, 22462, Note_on_c, 0, 60, 0
2, 22464, Note_on_c, 0, 72, 80
2, 22494, Note_on_c, 0, 72, 0
2, 22496, Note_on_c, 0, 69, 80
2, 22526, Note_on_c, 0, 69, 0
2, 22528, Note_on_c, 0, 60, 80
2, 22558, Note_on_c, 0, 60, 0
2, 22560, Note_on_c, 0, 72, 81
2, 22590, Note_on_c, 0, 72, 0
2, 22592, Note_on_c, 0, 69, 81
2, 22622, Note_on_c, 0, 69, 0
2, 22624, Note_on_c, 0, 60, 82
2, 22654, Note_on_c, 0, 60, 0
2, 22656, Note_on_c, 0, 70, 82
2, 22686, Note_on_c, 0, 70, 0
2, 22688, Note_on_c, 0, 67, 83
2, 22718, Note_on_c, 0, 67, 0
2, 22720, Note_on_c, 0, 60, 83
2, 22750, Note_on_c, 0, 60, 0
2, 22752, Note_on_c, 0, 70, 84
2, 22782, Note_on_c, 0, 70, 0
2, 22784, Note_on_c, 0, 67, 84
2, 22814, Note_on_c, 0, 67, 0
2, 22816, Note_on_c, 0, 60, 85
2, 22846, Note_on_c, 0, 60, 0
2, 22848, Note_on_c, 0, 69, 86
2, 22878, Note_on_c, 0, 69, 0
2, 22880, Note_on_c, 0, 65, 86
2, 22910, Note_on_c, 0, 65, 0
2, 22912, Note_on_c, 0, 60, 85
2, 22942, Note_on_c, 0, 60, 0
2, 22944, Note_on_c, 0, 69, 84
2, 22974, Note_on_c, 0, 69, 0
2, 22976, Note_on_c, 0, 65, 84
2, 23006, Note_on_c, 0, 65, 0
2, 23008, Note_on_c, 0, 60, 83
2, 23038, Note_on_c, 0, 60, 0
2, 23040, Note_on_c, 0, 67, 83
2, 23070, Note_on_c, 0, 67, 0
2, 23072, Note_on_c, 0, 64, 82
2, 23102, Note_on_c, 0, 64, 0
2, 23104, Note_on_c, 0, 60, 82
2, 23134, Note_on_c, 0, 60, 0
2, 23136, Note_on_c, 0, 67, 81
2, 23166, Note_on_c, 0, 67, 0
2, 23168, Note_on_c, 0, 64, 81
2, 23198, Note_on_c, 0, 64, 0
2, 23200, Note_on_c, 0, 60, 80
2, 23230, Note_on_c, 0, 60, 0
2, 23232, Note_on_c, 0, 65, 80
2, 23255, Note_on_c, 0, 65, 0
2, 23256, Note_on_c, 0, 62, 79
2, 23279, Note_on_c, 0, 62, 0
2, 23280, Note_on_c, 0, 59, 78
2, 23303, Note_on_c, 0, 59, 0
2, 23304, Note_on_c, 0, 62, 78
2, 23327, Note_on_c, 0, 62, 0
2, 23328, Note_on_c, 0, 65, 77
2, 23351, Note_on_c, 0, 65, 0
2, 23352, Note_on_c, 0, 62, 76
2, 23375, Note_on_c, 0, 62, 0
2, 23376, Note_on_c, 0, 59, 76
2, 23399, Note_on_c, 0, 59, 0
2, 23400, Note_on_c, 0, 62, 75
2, 23423, Note_on_c, 0, 62, 0
2, 23424, Note_on_c, 0, 64, 75
2, 23472, Note_on_c, 0, 64, 0
2, 23472, Note_on_c, 0, 72, 75
2, 23517, Note_on_c, 0, 72, 0
2, 23808, Note_on_c, 0, 64, 70
2, 23856, Note_on_c, 0, 64, 0
2, 23856, Note_on_c, 0, 72, 70
2, 23901, Note_on_c, 0, 72, 0
2, 24192, Note_on_c, 0, 66, 70
2, 24240, Note_on_c, 0, 66, 0
2, 24240, Note_on_c, 0, 74, 70
2, 24285, Note_on_c, 0, 74, 0
2, 24576, Note_on_c, 0, 67, 70
2, 24624, Note_on_c, 0, 67, 0
2, 24624, Note_on_c, 0, 75, 70
2, 24669, Note_on_c, 0, 75, 0
2, 24672, Note_on_c, 0, 66, 70
2, 24720, Note_on_c, 0, 66, 0
2, 24720, Note_on_c, 0, 74, 70
2, 24765, Note_on_c, 0, 74, 0
2, 24960, Note_on_c, 0, 64, 70
2, 25008, Note_on_c, 0, 64, 0
2, 25008, Note_on_c, 0, 72, 70
2, 25053, Note_on_c, 0, 72, 0
2, 25056, Note_on_c, 0, 65, 70
2, 25104, Note_on_c, 0, 65, 0
2, 25104, Note_on_c, 0, 72, 70
2, 25149, Note_on_c, 0, 72, 0
2, 25152, Note_on_c, 0, 64, 70
2, 25200, Note_on_c, 0, 64, 0
2, 25200, Note_on_c, 0, 73, 70
2, 25245, Note_on_c, 0, 73, 0
2, 25536, Note_on_c, 0, 73, 70
2, 25536, Note_on_c, 0, 70, 70
2, 25713, Note_on_c, 0, 73, 0
2, 25713, Note_on_c, 0, 70, 0
2, 25728, Note_on_c, 0, 72, 70
2, 25728, Note_on_c, 0, 70, 70
2, 25915, Note_on_c, 0, 72, 0
2, 25915, Note_on_c, 0, 70, 0
2, 25920, Note_on_c, 0, 72, 70
2, 25920, Note_on_c, 0, 70, 70
2, 26107, Note_on_c, 0, 72, 0
2, 26107, Note_on_c, 0, 70, 0
2, 26112, Note_on_c, 0, 72, 70
2, 26112, Note_on_c, 0, 68, 70
2, 26159, Note_on_c, 0, 72, 0
2, 26159, Note_on_c, 0, 68, 0
2, 26160, Note_on_c, 0, 68, 71
2, 26205, Note_on_c, 0, 68, 0
2, 26208, Note_on_c, 0, 67, 72
2, 26253, Note_on_c, 0, 67, 0
2, 26256, Note_on_c, 0, 68, 73
2, 26301, Note_on_c, 0, 68, 0
2, 26304, Note_on_c, 0, 75, 75
2, 26304, Note_on_c, 0, 72, 75
2, 26481, Note_on_c, 0, 75, 0
2, 26481, Note_on_c, 0, 72, 0
2, 26496, Note_on_c, 0, 74, 75
2, 26496, Note_on_c, 0, 72, 75
2, 26683, Note_on_c, 0, 74, 0
2, 26683, Note_on_c, 0, 72, 0
2, 26688, Note_on_c, 0, 77, 75
2, 26688, Note_on_c, 0, 74, 75
2, 26880, Note_on_c, 0, 77, 0
2, 26880, Note_on_c, 0, 74, 0
2, 26880, Note_on_c, 0, 76, 71
2, 26880, Note_on_c, 0, 73, 71
2, 26969, Note_on_c, 0, 76, 0
2, 26969, Note_on_c, 0, 73, 0
2, 27024, Note_on_c, 0, 81, 80
2, 27044, Note_on_c, 0, 81, 0
2, 27072, Note_on_c, 0, 81, 96
2, 27120, Note_on_c, 0, 81, 0
2, 27120, Note_on_c, 0, 82, 80
2, 27135, Note_on_c, 0, 82, 0
2, 27136, Note_on_c, 0, 81, 80
2, 27151, Note_on_c, 0, 81, 0
2, 27152, Note_on_c, 0, 79, 80
2, 27167, Note_on_c, 0, 79, 0
2, 27168, Note_on_c, 0, 81, 80
2, 27213, Note_on_c, 0, 81, 0
2, 27216, Note_on_c, 0, 84, 80
2, 27236, Note_on_c, 0, 84, 0
2, 27264, Note_on_c, 0, 77, 96
2, 27312, Note_on_c, 0, 77, 0
2, 27312, Note_on_c, 0, 79, 80
2, 27327, Note_on_c, 0, 79, 0
2, 27328, Note_on_c, 0, 77, 80
2, 27343, Note_on_c, 0, 77, 0
2, 27344, Note_on_c, 0, 76, 80
2, 27359, Note_on_c, 0, 76, 0
2, 27360, Note_on_c, 0, 77, 80
2, 27405, Note_on_c, 0, 77, 0
2, 27408, Note_on_c, 0, 81, 80
2, 27428, Note_on_c, 0, 81, 0
2, 27456, Note_on_c, 0, 72, 96
2, 27504, Note_on_c, 0, 72, 0
2, 27504, Note_on_c, 0, 74, 80
2, 27519, Note_on_c, 0, 74, 0
2, 27520, Note_on_c, 0, 72, 80
2, 27535, Note_on_c, 0, 72, 0
2, 27536, Note_on_c, 0, 71, 80
2, 27551, Note_on_c, 0, 71, 0
2, 27552, Note_on_c, 0, 72, 80
2, 27597, Note_on_c, 0, 72, 0
2, 27600, Note_on_c, 0, 77, 80
2, 27620, Note_on_c, 0, 77, 0
2, 27648, Note_on_c, 0, 69, 96
2, 27696, Note_on_c, 0, 69, 0
2, 27696, Note_on_c, 0, 70, 80
2, 27711, Note_on_c, 0, 70, 0
2, 27712, Note_on_c, 0, 69, 80
2, 27727, Note_on_c, 0, 69, 0
2, 27728, Note_on_c, 0, 67, 80
2, 27743, Note_on_c, 0, 67, 0
2, 27744, Note_on_c, 0, 69, 80
2, 27789, Note_on_c, 0, 69, 0
2, 27792, Note_on_c, 0, 72, 80
2, 27812, Note_on_c, 0, 72, 0
2, 27840, Note_on_c, 0, 65, 80
2, 27885, Note_on_c, 0, 65, 0
2, 27888, Note_on_c, 0, 69, 80
2, 27933, Note_on_c, 0, 69, 0
2, 27936, Note_on_c, 0, 74, 80
2, 27981, Note_on_c, 0, 74, 0
2, 27984, Note_on_c, 0, 72, 80
2, 28029, Note_on_c, 0, 72, 0
2, 28032, Note_on_c, 0, 72, 80
2, 28032, Note_on_c, 0, 69, 80
2, 28077, Note_on_c, 0, 72, 0
2, 28077, Note_on_c, 0, 69, 0
2, 28080, Note_on_c, 0, 70, 78
2, 28080, Note_on_c, 0, 67, 78
2, 28125, Note_on_c, 0, 70, 0
2, 28125, Note_on_c, 0, 67, 0
2, 28128, Note_on_c, 0, 69, 77
2, 28128, Note_on_c, 0, 65, 77
2, 28173, Note_on_c, 0, 69, 0
2, 28173, Note_on_c, 0, 65, 0
2, 28176, Note_on_c, 0, 67, 76
2, 28176, Note_on_c, 0, 64, 76
2, 28221, Note_on_c, 0, 67, 0
2, 28221, Note_on_c, 0, 64, 0
2, 28224, Note_on_c, 0, 67, 75
2, 28224, Note_on_c, 0, 64, 75
2, 28416, Note_on_c, 0, 67, 0
2, 28416, Note_on_c, 0, 64, 0
2, 28416, Note_on_c, 0, 65, 75
2, 28505, Note_on_c, 0, 65, 0
2, 28608, Note_on_c, 0, 69, 80
2, 28631, Note_on_c, 0, 69, 0
2, 28632, Note_on_c, 0, 72, 80
2, 28655, Note_on_c, 0, 72, 0
2, 28656, Note_on_c, 0, 75, 80
2, 28679, Note_on_c, 0, 75, 0
2, 28680, Note_on_c, 0, 78, 80
2, 28703, Note_on_c, 0, 78, 0
2, 28704, Note_on_c, 0, 75, 80
2, 28727, Note_on_c, 0, 75, 0
2, 28728, Note_on_c, 0, 78, 80
2, 28751, Note_on_c, 0, 78, 0
2, 28752, Note_on_c, 0, 81, 80
2, 28775, Note_on_c, 0, 81, 0
2, 28776, Note_on_c, 0, 84, 80
2, 28799, Note_on_c, 0, 84, 0
2, 28800, Note_on_c, 0, 82, 80
2, 28800, Note_on_c, 0, 81, 80
2, 28848, Note_on_c, 0, 81, 0
2, 28848, Note_on_c, 0, 79, 80
2, 28893, Note_on_c, 0, 82, 0
2, 28893, Note_on_c, 0, 79, 0
2, 28992, Note_on_c, 0, 66, 70
2, 29022, Note_on_c, 0, 66, 0
2, 29024, Note_on_c, 0, 69, 70
2, 29054, Note_on_c, 0, 69, 0
2, 29056, Note_on_c, 0, 72, 70
2, 29086, Note_on_c, 0, 72, 0
2, 29088, Note_on_c, 0, 69, 70
2, 29118, Note_on_c, 0, 69, 0
2, 29120, Note_on_c, 0, 72, 70
2, 29150, Note_on_c, 0, 72, 0
2, 29152, Note_on_c, 0, 75, 70
2, 29182, Note_on_c, 0, 75, 0
2, 29184, Note_on_c, 0, 69, 70
2, 29214, Note_on_c, 0, 69, 0
2, 29216, Note_on_c, 0, 72, 70
2, 29246, Note_on_c, 0, 72, 0
2, 29248, Note_on_c, 0, 75, 70
2, 29278, Note_on_c, 0, 75, 0
2, 29280, Note_on_c, 0, 69, 70
2, 29310, Note_on_c, 0, 69, 0
2, 29312, Note_on_c, 0, 70, 70
2, 29342, Note_on_c, 0, 70, 0
2, 29344, Note_on_c, 0, 72, 70
2, 29374, Note_on_c, 0, 72, 0
2, 29376, Note_on_c, 0, 66, 70
2, 29406, Note_on_c, 0, 66, 0
2, 29408, Note_on_c, 0, 69, 70
2, 29438, Note_on_c, 0, 69, 0
2, 29440, Note_on_c, 0, 72, 70
2, 29470, Note_on_c, 0, 72, 0
2, 29472, Note_on_c, 0, 66, 70
2, 29502, Note_on_c, 0, 66, 0
2, 29504, Note_on_c, 0, 69, 70
2, 29534, Note_on_c, 0, 69, 0
2, 29536, Note_on_c, 0, 72, 70
2, 29566, Note_on_c, 0, 72, 0
2, 29568, Note_on_c, 0, 67, 70
2, 29598, Note_on_c, 0, 67, 0
2, 29600, Note_on_c, 0, 70, 70
2, 29630, Note_on_c, 0, 70, 0
2, 29632, Note_on_c, 0, 74, 70
2, 29662, Note_on_c, 0, 74, 0
2, 29664, Note_on_c, 0, 78, 70
2, 29694, Note_on_c, 0, 78, 0
2, 29696, Note_on_c, 0, 79, 70
2, 29726, Note_on_c, 0, 79, 0
2, 29728, Note_on_c, 0, 81, 70
2, 29758, Note_on_c, 0, 81, 0
2, 29760, Note_on_c, 0, 82, 70
2, 29790, Note_on_c, 0, 82, 0
2, 29792, Note_on_c, 0, 86, 70
2, 29822, Note_on_c, 0, 86, 0
2, 29824, Note_on_c, 0, 84, 70
2, 29854, Note_on_c, 0, 84, 0
2, 29856, Note_on_c, 0, 82, 70
2, 29886, Note_on_c, 0, 82, 0
2, 29888, Note_on_c, 0, 81, 70
2, 29918, Note_on_c, 0, 81, 0
2, 29920, Note_on_c, 0, 79, 70
2, 29950, Note_on_c, 0, 79, 0
2, 29952, Note_on_c, 0, 78, 70
2, 29982, Note_on_c, 0, 78, 0
2, 29984, Note_on_c, 0, 75, 70
2, 30014, Note_on_c, 0, 75, 0
2, 30016, Note_on_c, 0, 74, 70
2, 30046, Note_on_c, 0, 74, 0
2, 30048, Note_on_c, 0, 72, 70
2, 30078, Note_on_c, 0, 72, 0
2, 30080, Note_on_c, 0, 70, 70
2, 30110, Note_on_c, 0, 70, 0
2, 30112, Note_on_c, 0, 69, 70
2, 30142, Note_on_c, 0, 69, 0
2, 30144, Note_on_c, 0, 70, 70
2, 30174, Note_on_c, 0, 70, 0
2, 30176, Note_on_c, 0, 66, 70
2, 30208, Note_on_c, 0, 66, 0
2, 30208, Note_on_c, 0, 67, 70
2, 30238, Note_on_c, 0, 67, 0
2, 30240, Note_on_c, 0, 72, 70
2, 30270, Note_on_c, 0, 72, 0
2, 30272, Note_on_c, 0, 66, 70
2, 30304, Note_on_c, 0, 66, 0
2, 30304, Note_on_c, 0, 67, 70
2, 30334, Note_on_c, 0, 67, 0
2, 30336, Note_on_c, 0, 75, 86
2, 30368, Note_on_c, 0, 75, 0
2, 30368, Note_on_c, 0, 74, 70
2, 30398, Note_on_c, 0, 74, 0
2, 30400, Note_on_c, 0, 72, 70
2, 30430, Note_on_c, 0, 72, 0
2, 30432, Note_on_c, 0, 70, 70
2, 30462, Note_on_c, 0, 70, 0
2, 30464, Note_on_c, 0, 69, 70
2, 30494, Note_on_c, 0, 69, 0
2, 30496, Note_on_c, 0, 67, 70
2, 30526, Note_on_c, 0, 67, 0
2, 30528, Note_on_c, 0, 68, 70
2, 30558, Note_on_c, 0, 68, 0
2, 30560, Note_on_c, 0, 64, 70
2, 30592, Note_on_c, 0, 64, 0
2, 30592, Note_on_c, 0, 65, 70
2, 30622, Note_on_c, 0, 65, 0
2, 30624, Note_on_c, 0, 70, 70
2, 30654, Note_on_c, 0, 70, 0
2, 30656, Note_on_c, 0, 64, 70
2, 30688, Note_on_c, 0, 64, 0
2, 30688, Note_on_c, 0, 65, 70
2, 30718, Note_on_c, 0, 65, 0
2, 30720, Note_on_c, 0, 73, 86
2, 30752, Note_on_c, 0, 73, 0
2, 30752, Note_on_c, 0, 72, 70
2, 30782, Note_on_c, 0, 72, 0
2, 30784, Note_on_c, 0, 70, 70
2, 30814, Note_on_c, 0, 70, 0
2, 30816, Note_on_c, 0, 68, 70
2, 30846, Note_on_c, 0, 68, 0
2, 30848, Note_on_c, 0, 67, 70
2, 30878, Note_on_c, 0, 67, 0
2, 30880, Note_on_c, 0, 65, 70
2, 30910, Note_on_c, 0, 65, 0
2, 30960, Note_on_c, 0, 82, 75
2, 30960, Note_on_c, 0, 79, 75
2, 30980, Note_on_c, 0, 82, 0
2, 30980, Note_on_c, 0, 79, 0
2, 31008, Note_on_c, 0, 82, 75
2, 31008, Note_on_c, 0, 79, 75
2, 31053, Note_on_c, 0, 82, 0
2, 31053, Note_on_c, 0, 79, 0
2, 31056, Note_on_c, 0, 80, 75
2, 31056, Note_on_c, 0, 77, 75
2, 31101, Note_on_c, 0, 80, 0
2, 31101, Note_on_c, 0, 77, 0
2, 31104, Note_on_c, 0, 79, 75
2, 31104, Note_on_c, 0, 76, 75
2, 31152, Note_on_c, 0, 79, 0
2, 31152, Note_on_c, 0, 76, 0
2, 31152, Note_on_c, 0, 77, 75
2, 31152, Note_on_c, 0, 73, 75
2, 31197, Note_on_c, 0, 77, 0
2, 31197, Note_on_c, 0, 73, 0
2, 31200, Note_on_c, 0, 76, 75
2, 31200, Note_on_c, 0, 72, 75
2, 31248, Note_on_c, 0, 76, 0
2, 31248, Note_on_c, 0, 72, 0
2, 31248, Note_on_c, 0, 73, 75
2, 31248, Note_on_c, 0, 70, 75
2, 31293, Note_on_c, 0, 73, 0
2, 31293, Note_on_c, 0, 70, 0
2, 31296, Note_on_c, 0, 73, 75
2, 31296, Note_on_c, 0, 70, 75
2, 31344, Note_on_c, 0, 73, 0
2, 31344, Note_on_c, 0, 70, 0
2, 31344, Note_on_c, 0, 72, 74
2, 31344, Note_on_c, 0, 68, 74
2, 31389, Note_on_c, 0, 72, 0
2, 31389, Note_on_c, 0, 68, 0
2, 31392, Note_on_c, 0, 70, 73
2, 31392, Note_on_c, 0, 67, 73
2, 31440, Note_on_c, 0, 70, 0
2, 31440, Note_on_c, 0, 67, 0
2, 31440, Note_on_c, 0, 68, 73
2, 31440, Note_on_c, 0, 65, 73
2, 31485, Note_on_c, 0, 68, 0
2, 31485, Note_on_c, 0, 65, 0
2, 31488, Note_on_c, 0, 67, 72
2, 31488, Note_on_c, 0, 64, 72
2, 31533, Note_on_c, 0, 67, 0
2, 31533, Note_on_c, 0, 64, 0
2, 31536, Note_on_c, 0, 68, 71
2, 31536, Note_on_c, 0, 65, 71
2, 31581, Note_on_c, 0, 68, 0
2, 31581, Note_on_c, 0, 65, 0
2, 31584, Note_on_c, 0, 70, 71
2, 31584, Note_on_c, 0, 67, 71
2, 31629, Note_on_c, 0, 70, 0
2, 31629, Note_on_c, 0, 67, 0
2, 31632, Note_on_c, 0, 73, 70
2, 31632, Note_on_c, 0, 70, 70
2, 31677, Note_on_c, 0, 73, 0
2, 31677, Note_on_c, 0, 70, 0
2, 31680, Note_on_c, 0, 73, 70
2, 31725, Note_on_c, 0, 73, 0
2, 31728, Note_on_c, 0, 76, 69
2, 31773, Note_on_c, 0, 76, 0
2, 31776, Note_on_c, 0, 79, 68
2, 31821, Note_on_c, 0, 79, 0
2, 31824, Note_on_c, 0, 73, 67
2, 31869, Note_on_c, 0, 73, 0
2, 31872, Note_on_c, 0, 72, 67
2, 31917, Note_on_c, 0, 72, 0
2, 31920, Note_on_c, 0, 76, 66
2, 31965, Note_on_c, 0, 76, 0
2, 31968, Note_on_c, 0, 79, 65
2, 32013, Note_on_c, 0, 79, 0
2, 32016, Note_on_c, 0, 70, 64
2, 32061, Note_on_c, 0, 70, 0
2, 32064, Note_on_c, 0, 65, 64
2, 32109, Note_on_c, 0, 65, 0
2, 32112, Note_on_c, 0, 67, 64
2, 32157, Note_on_c, 0, 67, 0
2, 32160, Note_on_c, 0, 68, 64
2, 32205, Note_on_c, 0, 68, 0
2, 32208, Note_on_c, 0, 65, 64
2, 32253, Note_on_c, 0, 65, 0
2, 32256, Note_on_c, 0, 71, 64
2, 32301, Note_on_c, 0, 71, 0
2, 32304, Note_on_c, 0, 68, 64
2, 32349, Note_on_c, 0, 68, 0
2, 32352, Note_on_c, 0, 67, 64
2, 32397, Note_on_c, 0, 67, 0
2, 32400, Note_on_c, 0, 65, 64
2, 32445, Note_on_c, 0, 65, 0
2, 32448, Note_on_c, 0, 72, 75
2, 32448, Note_on_c, 0, 67, 75
2, 32448, Note_on_c, 0, 64, 75
2, 32625, Note_on_c, 0, 72, 0
2, 32625, Note_on_c, 0, 67, 0
2, 32625, Note_on_c, 0, 64, 0
2, 32640, Note_on_c, 0, 64, 75
2, 32729, Note_on_c, 0, 64, 0
2, 32736, Note_on_c, 0, 65, 75
2, 32825, Note_on_c, 0, 65, 0
2, 32832, Note_on_c, 0, 73, 75
2, 32965, Note_on_c, 0, 73, 0
2, 32976, Note_on_c, 0, 70, 75
2, 33021, Note_on_c, 0, 70, 0
2, 33024, Note_on_c, 0, 72, 75
2, 33113, Note_on_c, 0, 72, 0
2, 33216, Note_on_c, 0, 82, 75
2, 33349, Note_on_c, 0, 82, 0
2, 33360, Note_on_c, 0, 79, 76
2, 33405, Note_on_c, 0, 79, 0
2, 33408, Note_on_c, 0, 82, 77
2, 33453, Note_on_c, 0, 82, 0
2, 33456, Note_on_c, 0, 80, 78
2, 33501, Note_on_c, 0, 80, 0
2, 33504, Note_on_c, 0, 79, 78
2, 33549, Note_on_c, 0, 79, 0
2, 33552, Note_on_c, 0, 77, 79
2, 33597, Note_on_c, 0, 77, 0
2, 33600, Note_on_c, 0, 77, 80
2, 33792, Note_on_c, 0, 77, 0
2, 33792, Note_on_c, 0, 76, 76
2, 33881, Note_on_c, 0, 76, 0
2, 33984, Note_on_c, 0, 75, 75
2, 33984, Note_on_c, 0, 69, 75
2, 33984, Note_on_c, 0, 66, 75
2, 34161, Note_on_c, 0, 75, 0
2, 34161, Note_on_c, 0, 69, 0
2, 34161, Note_on_c, 0, 66, 0
2, 34176, Note_on_c, 0, 66, 75
2, 34265, Note_on_c, 0, 66, 0
2, 34272, Note_on_c, 0, 67, 75
2, 34361, Note_on_c, 0, 67, 0
2, 34368, Note_on_c, 0, 75, 75
2, 34501, Note_on_c, 0, 75, 0
2, 34512, Note_on_c, 0, 72, 75
2, 34557, Note_on_c, 0, 72, 0
2, 34560, Note_on_c, 0, 74, 75
2, 34649, Note_on_c, 0, 74, 0
2, 34752, Note_on_c, 0, 84, 75
2, 34885, Note_on_c, 0, 84, 0
2, 34896, Note_on_c, 0, 81, 76
2, 34941, Note_on_c, 0, 81, 0
2, 34944, Note_on_c, 0, 84, 77
2, 34989, Note_on_c, 0, 84, 0
2, 34992, Note_on_c, 0, 82, 78
2, 35037, Note_on_c, 0, 82, 0
2, 35040, Note_on_c, 0, 81, 78
2, 35085, Note_on_c, 0, 81, 0
2, 35088, Note_on_c, 0, 79, 79
2, 35133, Note_on_c, 0, 79, 0
2, 35136, Note_on_c, 0, 79, 80
2, 35328, Note_on_c, 0, 79, 0
2, 35328, Note_on_c, 0, 78, 76
2, 35417, Note_on_c, 0, 78, 0
2, 35520, Note_on_c, 0, 77, 75
2, 35550, Note_on_c, 0, 77, 0
2, 35552, Note_on_c, 0, 74, 75
2, 35582, Note_on_c, 0, 74, 0
2, 35584, Note_on_c, 0, 71, 75
2, 35614, Note_on_c, 0, 71, 0
2, 35616, Note_on_c, 0, 77, 75
2, 35646, Note_on_c, 0, 77, 0
2, 35648, Note_on_c, 0, 74, 75
2, 35678, Note_on_c, 0, 74, 0
2, 35680, Note_on_c, 0, 71, 75
2, 35710, Note_on_c, 0, 71, 0
2, 35712, Note_on_c, 0, 76, 75
2, 35742, Note_on_c, 0, 76, 0
2, 35744, Note_on_c, 0, 71, 75
2, 35776, Note_on_c, 0, 71, 0
2, 35776, Note_on_c, 0, 72, 75
2, 35806, Note_on_c, 0, 72, 0
2, 35808, Note_on_c, 0, 76, 75
2, 35838, Note_on_c, 0, 76, 0
2, 35840, Note_on_c, 0, 71, 75
2, 35872, Note_on_c, 0, 71, 0
2, 35872, Note_on_c, 0, 72, 75
2, 35902, Note_on_c, 0, 72, 0
2, 35904, Note_on_c, 0, 75, 75
2, 35934, Note_on_c, 0, 75, 0
2, 35936, Note_on_c, 0, 72, 75
2, 35966, Note_on_c, 0, 72, 0
2, 35968, Note_on_c, 0, 69, 75
2, 35998, Note_on_c, 0, 69, 0
2, 36000, Note_on_c, 0, 75, 75
2, 36030, Note_on_c, 0, 75, 0
2, 36032, Note_on_c, 0, 72, 75
2, 36062, Note_on_c, 0, 72, 0
2, 36064, Note_on_c, 0, 69, 75
2, 36094, Note_on_c, 0, 69, 0
2, 36096, Note_on_c, 0, 74, 75
2, 36126, Note_on_c, 0, 74, 0
2, 36128, Note_on_c, 0, 69, 75
2, 36160, Note_on_c, 0, 69, 0
2, 36160, Note_on_c, 0, 70, 75
2, 36190, Note_on_c, 0, 70, 0
2, 36192, Note_on_c, 0, 74, 75
2, 36222, Note_on_c, 0, 74, 0
2, 36224, Note_on_c, 0, 69, 75
2, 36256, Note_on_c, 0, 69, 0
2, 36256, Note_on_c, 0, 70, 75
2, 36286, Note_on_c, 0, 70, 0
2, 36288, Note_on_c, 0, 73, 75
2, 36318, Note_on_c, 0, 73, 0
2, 36320, Note_on_c, 0, 70, 75
2, 36350, Note_on_c, 0, 70, 0
2, 36352, Note_on_c, 0, 67, 75
2, 36382, Note_on_c, 0, 67, 0
2, 36384, Note_on_c, 0, 73, 75
2, 36414, Note_on_c, 0, 73, 0
2, 36416, Note_on_c, 0, 70, 75
2, 36446, Note_on_c, 0, 70, 0
2, 36448, Note_on_c, 0, 67, 75
2, 36478, Note_on_c, 0, 67, 0
2, 36480, Note_on_c, 0, 72, 75
2, 36510, Note_on_c, 0, 72, 0
2, 36512, Note_on_c, 0, 67, 75
2, 36544, Note_on_c, 0, 67, 0
2, 36544, Note_on_c, 0, 68, 75
2, 36574, Note_on_c, 0, 68, 0
2, 36576, Note_on_c, 0, 72, 75
2, 36606, Note_on_c, 0, 72, 0
2, 36608, Note_on_c, 0, 67, 75
2, 36640, Note_on_c, 0, 67, 0
2, 36640, Note_on_c, 0, 68, 75
2, 36670, Note_on_c, 0, 68, 0
2, 36672, Note_on_c, 0, 72, 75
2, 36702, Note_on_c, 0, 72, 0
2, 36704, Note_on_c, 0, 69, 75
2, 36734, Note_on_c, 0, 69, 0
2, 36736, Note_on_c, 0, 66, 75
2, 36766, Note_on_c, 0, 66, 0
2, 36768, Note_on_c, 0, 72, 75
2, 36798, Note_on_c, 0, 72, 0
2, 36800, Note_on_c, 0, 69, 75
2, 36830, Note_on_c, 0, 69, 0
2, 36832, Note_on_c, 0, 66, 75
2, 36862, Note_on_c, 0, 66, 0
2, 36864, Note_on_c, 0, 67, 75
2, 36894, Note_on_c, 0, 67, 0
2, 36896, Note_on_c, 0, 66, 75
2, 36926, Note_on_c, 0, 66, 0
2, 36928, Note_on_c, 0, 67, 75
2, 36958, Note_on_c, 0, 67, 0
2, 36960, Note_on_c, 0, 70, 75
2, 36990, Note_on_c, 0, 70, 0
2, 36992, Note_on_c, 0, 66, 75
2, 37022, Note_on_c, 0, 66, 0
2, 37024, Note_on_c, 0, 67, 75
2, 37054, Note_on_c, 0, 67, 0
2, 37104, Note_on_c, 0, 82, 96
2, 37104, Note_on_c, 0, 79, 96
2, 37124, Note_on_c, 0, 82, 0
2, 37124, Note_on_c, 0, 79, 0
2, 37152, Note_on_c, 0, 81, 80
2, 37152, Note_on_c, 0, 78, 80
2, 37172, Note_on_c, 0, 81, 0
2, 37172, Note_on_c, 0, 78, 0
2, 37200, Note_on_c, 0, 79, 80
2, 37200, Note_on_c, 0, 75, 80
2, 37220, Note_on_c, 0, 79, 0
2, 37220, Note_on_c, 0, 75, 0
2, 37248, Note_on_c, 0, 78, 80
2, 37248, Note_on_c, 0, 74, 80
2, 37268, Note_on_c, 0, 78, 0
2, 37268, Note_on_c, 0, 74, 0
2, 37296, Note_on_c, 0, 75, 80
2, 37296, Note_on_c, 0, 72, 80
2, 37316, Note_on_c, 0, 75, 0
2, 37316, Note_on_c, 0, 72, 0
2, 37344, Note_on_c, 0, 74, 80
2, 37344, Note_on_c, 0, 70, 80
2, 37364, Note_on_c, 0, 74, 0
2, 37364, Note_on_c, 0, 70, 0
2, 37392, Note_on_c, 0, 72, 80
2, 37392, Note_on_c, 0, 69, 80
2, 37412, Note_on_c, 0, 72, 0
2, 37412, Note_on_c, 0, 69, 0
2, 37440, Note_on_c, 0, 70, 96
2, 37488, Note_on_c, 0, 70, 0
2, 37488, Note_on_c, 0, 67, 80
2, 37533, Note_on_c, 0, 67, 0
2, 37536, Note_on_c, 0, 66, 80
2, 37581, Note_on_c, 0, 66, 0
2, 37584, Note_on_c, 0, 67, 80
2, 37629, Note_on_c, 0, 67, 0
2, 37632, Note_on_c, 0, 72, 80
2, 37652, Note_on_c, 0, 72, 0
2, 37680, Note_on_c, 0, 70, 80
2, 37700, Note_on_c, 0, 70, 0
2, 37728, Note_on_c, 0, 69, 80
2, 37748, Note_on_c, 0, 69, 0
2, 37776, Note_on_c, 0, 67, 80
2, 37796, Note_on_c, 0, 67, 0
2, 37824, Note_on_c, 0, 67, 96
2, 38016, Note_on_c, 0, 67, 0
2, 38016, Note_on_c, 0, 66, 80
2, 38105, Note_on_c, 0, 66, 0
2, 38208, Note_on_c, 0, 75, 91
2, 38352, Note_on_c, 0, 75, 0
2, 38352, Note_on_c, 0, 72, 73
2, 38397, Note_on_c, 0, 72, 0
2, 38400, Note_on_c, 0, 75, 73
2, 38445, Note_on_c, 0, 75, 0
2, 38448, Note_on_c, 0, 74, 73
2, 38493, Note_on_c, 0, 74, 0
2, 38496, Note_on_c, 0, 72, 72
2, 38541, Note_on_c, 0, 72, 0
2, 38544, Note_on_c, 0, 70, 72
2, 38589, Note_on_c, 0, 70, 0
2, 38592, Note_on_c, 0, 70, 88
2, 38784, Note_on_c, 0, 70, 0
2, 38784, Note_on_c, 0, 69, 70
2, 38873, Note_on_c, 0, 69, 0
2, 38976, Note_on_c, 0, 82, 86
2, 39264, Note_on_c, 0, 82, 0
2, 39264, Note_on_c, 0, 79, 68
2, 39353, Note_on_c, 0, 79, 0
2, 39360, Note_on_c, 0, 77, 68
2, 39449, Note_on_c, 0, 77, 0
2, 39456, Note_on_c, 0, 76, 67
2, 39545, Note_on_c, 0, 76, 0
2, 39552, Note_on_c, 0, 74, 67
2, 39641, Note_on_c, 0, 74, 0
2, 39648, Note_on_c, 0, 74, 66
2, 39921, Note_on_c, 0, 74, 0
2, 39936, Note_on_c, 0, 73, 65
2, 40305, Note_on_c, 0, 73, 0
2, 40608, Note_on_c, 0, 81, 91
2, 40800, Note_on_c, 0, 81, 0
2, 40800, Note_on_c, 0, 73, 75
2, 40896, Note_on_c, 0, 73, 0
2, 40896, Note_on_c, 0, 74, 75
2, 40985, Note_on_c, 0, 74, 0
2, 40992, Note_on_c, 0, 82, 75
2, 41125, Note_on_c, 0, 82, 0
2, 41136, Note_on_c, 0, 79, 75
2, 41181, Note_on_c, 0, 79, 0
2, 41184, Note_on_c, 0, 81, 75
2, 41361, Note_on_c, 0, 81, 0
2, 41376, Note_on_c, 0, 67, 75
2, 41509, Note_on_c, 0, 67, 0
2, 41520, Note_on_c, 0, 64, 75
2, 41565, Note_on_c, 0, 64, 0
2, 41568, Note_on_c, 0, 67, 76
2, 41613, Note_on_c, 0, 67, 0
2, 41616, Note_on_c, 0, 65, 77
2, 41661, Note_on_c, 0, 65, 0
2, 41664, Note_on_c, 0, 64, 78
2, 41709, Note_on_c, 0, 64, 0
2, 41712, Note_on_c, 0, 62, 79
2, 41757, Note_on_c, 0, 62, 0
2, 41760, Note_on_c, 0, 62, 80
2, 41952, Note_on_c, 0, 62, 0
2, 41952, Note_on_c, 0, 61, 76
2, 42041, Note_on_c, 0, 61, 0
2, 42096, Note_on_c, 0, 73, 70
2, 42116, Note_on_c, 0, 73, 0
2, 42144, Note_on_c, 0, 73, 86
2, 42144, Note_on_c, 0, 70, 86
2, 42336, Note_on_c, 0, 73, 0
2, 42336, Note_on_c, 0, 70, 0
2, 42336, Note_on_c, 0, 74, 70
2, 42336, Note_on_c, 0, 69, 70
2, 42375, Note_on_c, 0, 74, 0
2, 42375, Note_on_c, 0, 69, 0
2, 42480, Note_on_c, 0, 82, 70
2, 42500, Note_on_c, 0, 82, 0
2, 42528, Note_on_c, 0, 82, 86
2, 42528, Note_on_c, 0, 76, 86
2, 42720, Note_on_c, 0, 82, 0
2, 42720, Note_on_c, 0, 76, 0
2, 42720, Note_on_c, 0, 81, 70
2, 42720, Note_on_c, 0, 77, 70
2, 42759, Note_on_c, 0, 81, 0
2, 42759, Note_on_c, 0, 77, 0
2, 42912, Note_on_c, 0, 63, 96
2, 43008, Note_on_c, 0, 63, 0
2, 43008, Note_on_c, 0, 77, 80
2, 43020, Note_on_c, 0, 77, 0
2, 43020, Note_on_c, 0, 75, 80
2, 43032, Note_on_c, 0, 75, 0
2, 43032, Note_on_c, 0, 74, 80
2, 43044, Note_on_c, 0, 74, 0
2, 43044, Note_on_c, 0, 75, 96
2, 43200, Note_on_c, 0, 75, 0
2, 43200, Note_on_c, 0, 73, 80
2, 43289, Note_on_c, 0, 73, 0
2, 43296, Note_on_c, 0, 74, 96
2, 43392, Note_on_c, 0, 74, 0
2, 43488, Note_on_c, 0, 73, 75
2, 43584, Note_on_c, 0, 73, 0
2, 43584, Note_on_c, 0, 74, 77
2, 43673, Note_on_c, 0, 74, 0
2, 43680, Note_on_c, 0, 82, 80
2, 43692, Note_on_c, 0, 82, 0
2, 43692, Note_on_c, 0, 81, 80
2, 43704, Note_on_c, 0, 81, 0
2, 43704, Note_on_c, 0, 82, 96
2, 43824, Note_on_c, 0, 82, 0
2, 43824, Note_on_c, 0, 79, 78
2, 43869, Note_on_c, 0, 79, 0
2, 43872, Note_on_c, 0, 81, 77
2, 44049, Note_on_c, 0, 81, 0
2, 44064, Note_on_c, 0, 55, 96
2, 44208, Note_on_c, 0, 55, 0
2, 44208, Note_on_c, 0, 52, 80
2, 44253, Note_on_c, 0, 52, 0
2, 44256, Note_on_c, 0, 55, 81
2, 44301, Note_on_c, 0, 55, 0
2, 44304, Note_on_c, 0, 53, 82
2, 44349, Note_on_c, 0, 53, 0
2, 44352, Note_on_c, 0, 52, 83
2, 44397, Note_on_c, 0, 52, 0
2, 44400, Note_on_c, 0, 50, 84
2, 44445, Note_on_c, 0, 50, 0
2, 44448, Note_on_c, 0, 50, 102
2, 44640, Note_on_c, 0, 50, 0
2, 44640, Note_on_c, 0, 49, 82
2, 44729, Note_on_c, 0, 49, 0
2, 44864, Note_on_c, 0, 73, 75
2, 44896, Note_on_c, 0, 73, 0
2, 44896, Note_on_c, 0, 74, 75
2, 44926, Note_on_c, 0, 74, 0
2, 44928, Note_on_c, 0, 77, 91
2, 44960, Note_on_c, 0, 77, 0
2, 44960, Note_on_c, 0, 73, 76
2, 44992, Note_on_c, 0, 73, 0
2, 44992, Note_on_c, 0, 74, 76
2, 45022, Note_on_c, 0, 74, 0
2, 45024, Note_on_c, 0, 79, 93
2, 45056, Note_on_c, 0, 79, 0
2, 45056, Note_on_c, 0, 73, 77
2, 45088, Note_on_c, 0, 73, 0
2, 45088, Note_on_c, 0, 74, 77
2, 45118, Note_on_c, 0, 74, 0
2, 45120, Note_on_c, 0, 81, 94
2, 45152, Note_on_c, 0, 81, 0
2, 45152, Note_on_c, 0, 73, 78
2, 45184, Note_on_c, 0, 73, 0
2, 45184, Note_on_c, 0, 74, 79
2, 45214, Note_on_c, 0, 74, 0
2, 45248, Control_c, 0, 64, 127
2, 45248, Note_on_c, 0, 82, 80
2, 45278, Note_on_c, 0, 82, 0
2, 45280, Note_on_c, 0, 79, 80
2, 45310, Note_on_c, 0, 79, 0
2, 45312, Note_on_c, 0, 75, 80
2, 45342, Note_on_c, 0, 75, 0
2, 45344, Note_on_c, 0, 79, 80
2, 45374, Note_on_c, 0, 79, 0
2, 45376, Note_on_c, 0, 75, 80
2, 45406, Note_on_c, 0, 75, 0
2, 45408, Note_on_c, 0, 70, 80
2, 45438, Note_on_c, 0, 70, 0
2, 45440, Note_on_c, 0, 75, 80
2, 45470, Note_on_c, 0, 75, 0
2, 45472, Note_on_c, 0, 70, 80
2, 45502, Note_on_c, 0, 70, 0
2, 45504, Note_on_c, 0, 67, 80
2, 45534, Note_on_c, 0, 67, 0
2, 45536, Note_on_c, 0, 70, 80
2, 45566, Note_on_c, 0, 70, 0
2, 45568, Control_c, 0, 64, 0
2, 45568, Note_on_c, 0, 67, 80
2, 45598, Note_on_c, 0, 67, 0
2, 45648, Note_on_c, 0, 82, 80
2, 45648, Note_on_c, 0, 79, 80
2, 45693, Note_on_c, 0, 82, 0
2, 45693, Note_on_c, 0, 79, 0
2, 45696, Note_on_c, 0, 81, 79
2, 45696, Note_on_c, 0, 77, 79
2, 45741, Note_on_c, 0, 81, 0
2, 45741, Note_on_c, 0, 77, 0
2, 45744, Note_on_c, 0, 79, 78
2, 45744, Note_on_c, 0, 76, 78
2, 45789, Note_on_c, 0, 79, 0
2, 45789, Note_on_c, 0, 76, 0
2, 45792, Note_on_c, 0, 77, 77
2, 45792, Note_on_c, 0, 74, 77
2, 45881, Note_on_c, 0, 77, 0
2, 45881, Note_on_c, 0, 74, 0
2, 45984, Note_on_c, 0, 76, 70
2, 45984, Note_on_c, 0, 73, 70
2, 45984, Note_on_c, 0, 69, 70
2, 46073, Note_on_c, 0, 76, 0
2, 46073, Note_on_c, 0, 73, 0
2, 46073, Note_on_c, 0, 69, 0
2, 46248, Note_on_c, 0, 77, 80
2, 46271, Note_on_c, 0, 77, 0
2, 46272, Note_on_c, 0, 81, 80
2, 46295, Note_on_c, 0, 81, 0
2, 46296, Note_on_c, 0, 79, 80
2, 46319, Note_on_c, 0, 79, 0
2, 46320, Note_on_c, 0, 77, 80
2, 46343, Note_on_c, 0, 77, 0
2, 46344, Note_on_c, 0, 76, 80
2, 46367, Note_on_c, 0, 76, 0
2, 46368, Note_on_c, 0, 74, 80
2, 46391, Note_on_c, 0, 74, 0
2, 46392, Note_on_c, 0, 72, 80
2, 46415, Note_on_c, 0, 72, 0
2, 46416, Note_on_c, 0, 70, 80
2, 46439, Note_on_c, 0, 70, 0
2, 46440, Note_on_c, 0, 69, 80
2, 46463, Note_on_c, 0, 69, 0
2, 46464, Note_on_c, 0, 67, 80
2, 46487, Note_on_c, 0, 67, 0
2, 46488, Note_on_c, 0, 65, 80
2, 46511, Note_on_c, 0, 65, 0
2, 46512, Note_on_c, 0, 64, 80
2, 46535, Note_on_c, 0, 64, 0
2, 46536, Note_on_c, 0, 62, 80
2, 46559, Note_on_c, 0, 62, 0
2, 46560, Note_on_c, 0, 70, 80
2, 46583, Note_on_c, 0, 70, 0
2, 46584, Note_on_c, 0, 69, 80
2, 46607, Note_on_c, 0, 69, 0
2, 46608, Note_on_c, 0, 67, 80
2, 46631, Note_on_c, 0, 67, 0
2, 46632, Note_on_c, 0, 65, 80
2, 46655, Note_on_c, 0, 65, 0
2, 46656, Note_on_c, 0, 64, 80
2, 46686, Note_on_c, 0, 64, 0
2, 46688, Note_on_c, 0, 62, 80
2, 46718, Note_on_c, 0, 62, 0
2, 46720, Note_on_c, 0, 60, 80
2, 46750, Note_on_c, 0, 60, 0
2, 46752, Note_on_c, 0, 58, 80
2, 46782, Note_on_c, 0, 58, 0
2, 46784, Note_on_c, 0, 57, 80
2, 46814, Note_on_c, 0, 57, 0
2, 46816, Note_on_c, 0, 55, 80
2, 46846, Note_on_c, 0, 55, 0
2, 46848, Note_on_c, 0, 53, 80
2, 46878, Note_on_c, 0, 53, 0
2, 46880, Note_on_c, 0, 52, 80
2, 46910, Note_on_c, 0, 52, 0
2, 46912, Note_on_c, 0, 50, 80
2, 46942, Note_on_c, 0, 50, 0
2, 46944, Note_on_c, 0, 49, 80
2, 46974, Note_on_c, 0, 49, 0
2, 46976, Note_on_c, 0, 45, 80
2, 47006, Note_on_c, 0, 45, 0
2, 47008, Note_on_c, 0, 49, 80
2, 47038, Note_on_c, 0, 49, 0
2, 47040, Note_on_c, 0, 52, 80
2, 47070, Note_on_c, 0, 52, 0
2, 47072, Note_on_c, 0, 49, 80
2, 47102, Note_on_c, 0, 49, 0
2, 47104, Note_on_c, 0, 52, 80
2, 47134, Note_on_c, 0, 52, 0
2, 47136, Note_on_c, 0, 55, 80
2, 47166, Note_on_c, 0, 55, 0
2, 47168, Note_on_c, 0, 52, 80
2, 47198, Note_on_c, 0, 52, 0
2, 47200, Note_on_c, 0, 55, 80
2, 47230, Note_on_c, 0, 55, 0
2, 47232, Note_on_c, 0, 61, 80
2, 47262, Note_on_c, 0, 61, 0
2, 47264, Note_on_c, 0, 57, 80
2, 47294, Note_on_c, 0, 57, 0
2, 47296, Note_on_c, 0, 61, 80
2, 47326, Note_on_c, 0, 61, 0
2, 47360, Note_on_c, 0, 76, 80
2, 47390, Note_on_c, 0, 76, 0
2, 47392, Note_on_c, 0, 74, 80
2, 47422, Note_on_c, 0, 74, 0
2, 47424, Note_on_c, 0, 73, 80
2, 47454, Note_on_c, 0, 73, 0
2, 47456, Note_on_c, 0, 70, 80
2, 47486, Note_on_c, 0, 70, 0
2, 47488, Note_on_c, 0, 69, 80
2, 47518, Note_on_c, 0, 69, 0
2, 47520, Note_on_c, 0, 67, 80
2, 47550, Note_on_c, 0, 67, 0
2, 47552, Note_on_c, 0, 65, 80
2, 47582, Note_on_c, 0, 65, 0
2, 47584, Note_on_c, 0, 64, 80
2, 47614, Note_on_c, 0, 64, 0
2, 47616, Note_on_c, 0, 62, 80
2, 47646, Note_on_c, 0, 62, 0
2, 47648, Note_on_c, 0, 61, 80
2, 47678, Note_on_c, 0, 61, 0
2, 47680, Note_on_c, 0, 58, 80
2, 47710, Note_on_c, 0, 58, 0
2, 47712, Note_on_c, 0, 57, 80
2, 47742, Note_on_c, 0, 57, 0
2, 47744, Note_on_c, 0, 54, 80
2, 47774, Note_on_c, 0, 54, 0
2, 47776, Note_on_c, 0, 57, 80
2, 47806, Note_on_c, 0, 57, 0
2, 47808, Note_on_c, 0, 60, 80
2, 47838, Note_on_c, 0, 60, 0
2, 47840, Note_on_c, 0, 57, 80
2, 47870, Note_on_c, 0, 57, 0
2, 47872, Note_on_c, 0, 60, 80
2, 47902, Note_on_c, 0, 60, 0
2, 47904, Note_on_c, 0, 66, 80
2, 47934, Note_on_c, 0, 66, 0
2, 47936, Note_on_c, 0, 60, 80
2, 47966, Note_on_c, 0, 60, 0
2, 47968, Note_on_c, 0, 66, 80
2, 47998, Note_on_c, 0, 66, 0
2, 48000, Note_on_c, 0, 69, 80
2, 48030, Note_on_c, 0, 69, 0
2, 48032, Note_on_c, 0, 66, 80
2, 48062, Note_on_c, 0, 66, 0
2, 48064, Note_on_c, 0, 69, 80
2, 48094, Note_on_c, 0, 69, 0
2, 48096, Note_on_c, 0, 70, 80
2, 48126, Note_on_c, 0, 70, 0
2, 48128, Note_on_c, 0, 67, 80
2, 48158, Note_on_c, 0, 67, 0
2, 48160, Note_on_c, 0, 62, 81
2, 48190, Note_on_c, 0, 62, 0
2, 48192, Note_on_c, 0, 69, 81
2, 48222, Note_on_c, 0, 69, 0
2, 48224, Note_on_c, 0, 66, 82
2, 48254, Note_on_c, 0, 66, 0
2, 48256, Note_on_c, 0, 62, 82
2, 48286, Note_on_c, 0, 62, 0
2, 48288, Note_on_c, 0, 70, 83
2, 48318, Note_on_c, 0, 70, 0
2, 48320, Note_on_c, 0, 67, 83
2, 48350, Note_on_c, 0, 67, 0
2, 48352, Note_on_c, 0, 62, 84
2, 48382, Note_on_c, 0, 62, 0
2, 48384, Note_on_c, 0, 72, 84
2, 48414, Note_on_c, 0, 72, 0
2, 48416, Note_on_c, 0, 69, 85
2, 48446, Note_on_c, 0, 69, 0
2, 48448, Note_on_c, 0, 62, 86
2, 48478, Note_on_c, 0, 62, 0
2, 48480, Note_on_c, 0, 75, 86
2, 48510, Note_on_c, 0, 75, 0
2, 48512, Note_on_c, 0, 72, 86
2, 48542, Note_on_c, 0, 72, 0
2, 48544, Note_on_c, 0, 62, 86
2, 48574, Note_on_c, 0, 62, 0
2, 48576, Note_on_c, 0, 74, 86
2, 48606, Note_on_c, 0, 74, 0
2, 48608, Note_on_c, 0, 70, 86
2, 48638, Note_on_c, 0, 70, 0
2, 48640, Note_on_c, 0, 62, 86
2, 48670, Note_on_c, 0, 62, 0
2, 48672, Note_on_c, 0, 72, 86
2, 48702, Note_on_c, 0, 72, 0
2, 48704, Note_on_c, 0, 69, 86
2, 48734, Note_on_c, 0, 69, 0
2, 48736, Note_on_c, 0, 62, 86
2, 48766, Note_on_c, 0, 62, 0
2, 48768, Note_on_c, 0, 70, 86
2, 48798, Note_on_c, 0, 70, 0
2, 48800, Note_on_c, 0, 67, 86
2, 48830, Note_on_c, 0, 67, 0
2, 48832, Note_on_c, 0, 62, 86
2, 48862, Note_on_c, 0, 62, 0
2, 48864, Note_on_c, 0, 72, 86
2, 48894, Note_on_c, 0, 72, 0
2, 48896, Note_on_c, 0, 69, 87
2, 48926, Note_on_c, 0, 69, 0
2, 48928, Note_on_c, 0, 63, 88
2, 48958, Note_on_c, 0, 63, 0
2, 48960, Note_on_c, 0, 72, 89
2, 48990, Note_on_c, 0, 72, 0
2, 48992, Note_on_c, 0, 69, 90
2, 49022, Note_on_c, 0, 69, 0
2, 49024, Note_on_c, 0, 63, 91
2, 49054, Note_on_c, 0, 63, 0
2, 49056, Note_on_c, 0, 73, 92
2, 49079, Note_on_c, 0, 73, 0
2, 49080, Note_on_c, 0, 67, 94
2, 49103, Note_on_c, 0, 67, 0
2, 49104, Note_on_c, 0, 64, 94
2, 49127, Note_on_c, 0, 64, 0
2, 49128, Note_on_c, 0, 67, 94
2, 49151, Note_on_c, 0, 67, 0
2, 49152, Note_on_c, 0, 73, 94
2, 49175, Note_on_c, 0, 73, 0
2, 49176, Note_on_c, 0, 67, 94
2, 49199, Note_on_c, 0, 67, 0
2, 49200, Note_on_c, 0, 64, 94
2, 49223, Note_on_c, 0, 64, 0
2, 49224, Note_on_c, 0, 67, 94
2, 49247, Note_on_c, 0, 67, 0
2, 49248, Note_on_c, 0, 74, 94
2, 49293, Note_on_c, 0, 74, 0
2, 49296, Note_on_c, 0, 62, 94
2, 49341, Note_on_c, 0, 62, 0
2, 49632, Note_on_c, 0, 75, 70
2, 49632, Note_on_c, 0, 72, 70
2, 49809, Note_on_c, 0, 75, 0
2, 49809, Note_on_c, 0, 72, 0
2, 49824, Note_on_c, 0, 74, 70
2, 49824, Note_on_c, 0, 72, 70
2, 50001, Note_on_c, 0, 74, 0
2, 50001, Note_on_c, 0, 72, 0
2, 50016, Note_on_c, 0, 74, 70
2, 50016, Note_on_c, 0, 72, 70
2, 50193, Note_on_c, 0, 74, 0
2, 50193, Note_on_c, 0, 72, 0
2, 50208, Note_on_c, 0, 74, 70
2, 50208, Note_on_c, 0, 70, 70
2, 50255, Note_on_c, 0, 74, 0
2, 50255, Note_on_c, 0, 70, 0
2, 50256, Note_on_c, 0, 70, 71
2, 50301, Note_on_c, 0, 70, 0
2, 50304, Note_on_c, 0, 69, 72
2, 50349, Note_on_c, 0, 69, 0
2, 50352, Note_on_c, 0, 70, 73
2, 50397, Note_on_c, 0, 70, 0
2, 50400, Note_on_c, 0, 82, 75
2, 50400, Note_on_c, 0, 79, 75
2, 50577, Note_on_c, 0, 82, 0
2, 50577, Note_on_c, 0, 79, 0
2, 50592, Note_on_c, 0, 81, 71
2, 50592, Note_on_c, 0, 79, 71
2, 50681, Note_on_c, 0, 81, 0
2, 50681, Note_on_c, 0, 79, 0
2, 50736, Note_on_c, 0, 74, 80
2, 50756, Note_on_c, 0, 74, 0
2, 50784, Note_on_c, 0, 74, 96
2, 50832, Note_on_c, 0, 74, 0
2, 50832, Note_on_c, 0, 76, 80
2, 50847, Note_on_c, 0, 76, 0
2, 50848, Note_on_c, 0, 74, 80
2, 50863, Note_on_c, 0, 74, 0
2, 50864, Note_on_c, 0, 73, 80
2, 50879, Note_on_c, 0, 73, 0
2, 50880, Note_on_c, 0, 74, 80
2, 50925, Note_on_c, 0, 74, 0
2, 50928, Note_on_c, 0, 77, 80
2, 50948, Note_on_c, 0, 77, 0
2, 50976, Note_on_c, 0, 69, 96
2, 51024, Note_on_c, 0, 69, 0
2, 51024, Note_on_c, 0, 70, 80
2, 51039, Note_on_c, 0, 70, 0
2, 51040, Note_on_c, 0, 69, 80
2, 51055, Note_on_c, 0, 69, 0
2, 51056, Note_on_c, 0, 67, 80
2, 51071, Note_on_c, 0, 67, 0
2, 51072, Note_on_c, 0, 69, 80
2, 51117, Note_on_c, 0, 69, 0
2, 51120, Note_on_c, 0, 74, 80
2, 51140, Note_on_c, 0, 74, 0
2, 51168, Note_on_c, 0, 65, 96
2, 51216, Note_on_c, 0, 65, 0
2, 51216, Note_on_c, 0, 67, 80
2, 51231, Note_on_c, 0, 67, 0
2, 51232, Note_on_c, 0, 65, 80
2, 51247, Note_on_c, 0, 65, 0
2, 51248, Note_on_c, 0, 64, 80
2, 51263, Note_on_c, 0, 64, 0
2, 51264, Note_on_c, 0, 65, 80
2, 51309, Note_on_c, 0, 65, 0
2, 51312, Note_on_c, 0, 69, 80
2, 51357, Note_on_c, 0, 69, 0
2, 51360, Note_on_c, 0, 69, 96
2, 51408, Note_on_c, 0, 69, 0
2, 51408, Note_on_c, 0, 62, 80
2, 51453, Note_on_c, 0, 62, 0
2, 51456, Note_on_c, 0, 70, 80
2, 51501, Note_on_c, 0, 70, 0
2, 51504, Note_on_c, 0, 69, 80
2, 51549, Note_on_c, 0, 69, 0
2, 51552, Note_on_c, 0, 67, 80
2, 51552, Note_on_c, 0, 64, 80
2, 51597, Note_on_c, 0, 67, 0
2, 51597, Note_on_c, 0, 64, 0
2, 51600, Note_on_c, 0, 65, 80
2, 51600, Note_on_c, 0, 62, 80
2, 51645, Note_on_c, 0, 65, 0
2, 51645, Note_on_c, 0, 62, 0
2, 51648, Note_on_c, 0, 64, 81
2, 51648, Note_on_c, 0, 61, 81
2, 51693, Note_on_c, 0, 64, 0
2, 51693, Note_on_c, 0, 61, 0
2, 51696, Note_on_c, 0, 62, 82
2, 51696, Note_on_c, 0, 58, 82
2, 51741, Note_on_c, 0, 62, 0
2, 51741, Note_on_c, 0, 58, 0
2, 51744, Note_on_c, 0, 61, 83
2, 51744, Note_on_c, 0, 57, 83
2, 51789, Note_on_c, 0, 61, 0
2, 51789, Note_on_c, 0, 57, 0
2, 51792, Note_on_c, 0, 58, 83
2, 51792, Note_on_c, 0, 55, 83
2, 51837, Note_on_c, 0, 58, 0
2, 51837, Note_on_c, 0, 55, 0
2, 51840, Note_on_c, 0, 57, 84
2, 51840, Note_on_c, 0, 53, 84
2, 51885, Note_on_c, 0, 57, 0
2, 51885, Note_on_c, 0, 53, 0
2, 51888, Note_on_c, 0, 55, 85
2, 51888, Note_on_c, 0, 52, 85
2, 51933, Note_on_c, 0, 55, 0
2, 51933, Note_on_c, 0, 52, 0
2, 51936, Note_on_c, 0, 53, 86
2, 51936, Note_on_c, 0, 50, 86
2, 51975, Note_on_c, 0, 53, 0
2, 51975, Note_on_c, 0, 50, 0
2, 52128, Note_on_c, 0, 65, 86
2, 52128, Note_on_c, 0, 62, 86
2, 52128, Note_on_c, 0, 59, 86
2, 52167, Note_on_c, 0, 65, 0
2, 52167, Note_on_c, 0, 62, 0
2, 52167, Note_on_c, 0, 59, 0
2, 52320, Note_on_c, 0, 64, 86
2, 52320, Note_on_c, 0, 62, 86
2, 52359, Note_on_c, 0, 64, 0
2, 52359, Note_on_c, 0, 62, 0
2, 52512, Note_on_c, 0, 69, 86
2, 52512, Note_on_c, 0, 64, 86
2, 52512, Note_on_c, 0, 61, 86
2, 52601, Note_on_c, 0, 69, 0
2, 52601, Note_on_c, 0, 64, 0
2, 52601, Note_on_c, 0, 61, 0
2, 52752, Note_on_c, 0, 61, 75
2, 52797, Note_on_c, 0, 61, 0
2, 52800, Note_on_c, 0, 62, 74
2, 52845, Note_on_c, 0, 62, 0
2, 52848, Note_on_c, 0, 61, 73
2, 52893, Note_on_c, 0, 61, 0
2, 52896, Note_on_c, 0, 62, 73
2, 52941, Note_on_c, 0, 62, 0
2, 52944, Note_on_c, 0, 64, 72
2, 52944, Note_on_c, 0, 61, 72
2, 52989, Note_on_c, 0, 64, 0
2, 52989, Note_on_c, 0, 61, 0
2, 52992, Note_on_c, 0, 65, 72
2, 52992, Note_on_c, 0, 62, 72
2, 53037, Note_on_c, 0, 65, 0
2, 53037, Note_on_c, 0, 62, 0
2, 53040, Note_on_c, 0, 64, 71
2, 53040, Note_on_c, 0, 61, 71
2, 53085, Note_on_c, 0, 64, 0
2, 53085, Note_on_c, 0, 61, 0
2, 53088, Note_on_c, 0, 65, 71
2, 53088, Note_on_c, 0, 62, 71
2, 53133, Note_on_c, 0, 65, 0
2, 53133, Note_on_c, 0, 62, 0
2, 53136, Note_on_c, 0, 73, 70
2, 53136, Note_on_c, 0, 64, 70
2, 53181, Note_on_c, 0, 73, 0
2, 53181, Note_on_c, 0, 64, 0
2, 53184, Note_on_c, 0, 74, 70
2, 53184, Note_on_c, 0, 65, 70
2, 53229, Note_on_c, 0, 74, 0
2, 53229, Note_on_c, 0, 65, 0
2, 53232, Note_on_c, 0, 73, 69
2, 53232, Note_on_c, 0, 64, 69
2, 53277, Note_on_c, 0, 73, 0
2, 53277, Note_on_c, 0, 64, 0
2, 53280, Note_on_c, 0, 74, 69
2, 53280, Note_on_c, 0, 65, 69
2, 53325, Note_on_c, 0, 74, 0
2, 53325, Note_on_c, 0, 65, 0
2, 53328, Note_on_c, 0, 76, 68
2, 53328, Note_on_c, 0, 73, 68
2, 53373, Note_on_c, 0, 76, 0
2, 53373, Note_on_c, 0, 73, 0
2, 53376, Note_on_c, 0, 77, 68
2, 53376, Note_on_c, 0, 74, 68
2, 53421, Note_on_c, 0, 77, 0
2, 53421, Note_on_c, 0, 74, 0
2, 53424, Note_on_c, 0, 76, 67
2, 53424, Note_on_c, 0, 73, 67
2, 53469, Note_on_c, 0, 76, 0
2, 53469, Note_on_c, 0, 73, 0
2, 53472, Note_on_c, 0, 77, 67
2, 53472, Note_on_c, 0, 74, 67
2, 53517, Note_on_c, 0, 77, 0
2, 53517, Note_on_c, 0, 74, 0
2, 53520, Note_on_c, 0, 85, 66
2, 53520, Note_on_c, 0, 76, 66
2, 53565, Note_on_c, 0, 85, 0
2, 53565, Note_on_c, 0, 76, 0
2, 53568, Note_on_c, 0, 86, 66
2, 53568, Note_on_c, 0, 77, 66
2, 53613, Note_on_c, 0, 86, 0
2, 53613, Note_on_c, 0, 77, 0
2, 53616, Note_on_c, 0, 85, 65
2, 53616, Note_on_c, 0, 76, 65
2, 53661, Note_on_c, 0, 85, 0
2, 53661, Note_on_c, 0, 76, 0
2, 53664, Note_on_c, 0, 86, 65
2, 53664, Note_on_c, 0, 77, 65
2, 53753, Note_on_c, 0, 86, 0
2, 53753, Note_on_c, 0, 77, 0
2, 53808, Note_on_c, 0, 82, 64
2, 53828, Note_on_c, 0, 82, 0
2, 53856, Note_on_c, 0, 82, 64
2, 53856, Note_on_c, 0, 79, 64
2, 53856, Note_on_c, 0, 76, 64
2, 53856, Note_on_c, 0, 73, 64
2, 54144, Note_on_c, 0, 82, 0
2, 54144, Note_on_c, 0, 79, 0
2, 54144, Note_on_c, 0, 76, 0
2, 54144, Note_on_c, 0, 73, 0
2, 54144, Note_on_c, 0, 81, 64
2, 54144, Note_on_c, 0, 77, 64
2, 54144, Note_on_c, 0, 74, 64
2, 54505, Note_on_c, 0, 81, 0
2, 54505, Note_on_c, 0, 77, 0
2, 54505, Note_on_c, 0, 74, 0
2, 54624, Note_on_c, 0, 69, 80
2, 54647, Note_on_c, 0, 69, 0
2, 54648, Note_on_c, 0, 72, 80
2, 54671, Note_on_c, 0, 72, 0
2, 54672, Note_on_c, 0, 75, 80
2, 54695, Note_on_c, 0, 75, 0
2, 54696, Note_on_c, 0, 78, 80
2, 54719, Note_on_c, 0, 78, 0
2, 54720, Note_on_c, 0, 75, 80
2, 54743, Note_on_c, 0, 75, 0
2, 54744, Note_on_c, 0, 78, 80
2, 54767, Note_on_c, 0, 78, 0
2, 54768, Note_on_c, 0, 81, 80
2, 54791, Note_on_c, 0, 81, 0
2, 54792, Note_on_c, 0, 84, 80
2, 54815, Note_on_c, 0, 84, 0
2, 54816, Note_on_c, 0, 82, 80
2, 54816, Note_on_c, 0, 81, 80
2, 54864, Note_on_c, 0, 81, 0
2, 54864, Note_on_c, 0, 79, 80
2, 54909, Note_on_c, 0, 82, 0
2, 54909, Note_on_c, 0, 79, 0
2, 55008, Note_on_c, 0, 66, 70
2, 55038, Note_on_c, 0, 66, 0
2, 55040, Note_on_c, 0, 69, 70
2, 55070, Note_on_c, 0, 69, 0
2, 55072, Note_on_c, 0, 72, 70
2, 55102, Note_on_c, 0, 72, 0
2, 55104, Note_on_c, 0, 69, 70
2, 55134, Note_on_c, 0, 69, 0
2, 55136, Note_on_c, 0, 72, 70
2, 55166, Note_on_c, 0, 72, 0
2, 55168, Note_on_c, 0, 75, 70
2, 55198, Note_on_c, 0, 75, 0
2, 55200, Note_on_c, 0, 69, 70
2, 55230, Note_on_c, 0, 69, 0
2, 55232, Note_on_c, 0, 72, 70
2, 55262, Note_on_c, 0, 72, 0
2, 55264, Note_on_c, 0, 75, 70
2, 55294, Note_on_c, 0, 75, 0
2, 55296, Note_on_c, 0, 69, 70
2, 55326, Note_on_c, 0, 69, 0
2, 55328, Note_on_c, 0, 70, 70
2, 55358, Note_on_c, 0, 70, 0
2, 55360, Note_on_c, 0, 72, 70
2, 55390, Note_on_c, 0, 72, 0
2, 55392, Note_on_c, 0, 66, 70
2, 55422, Note_on_c, 0, 66, 0
2, 55424, Note_on_c, 0, 69, 70
2, 55454, Note_on_c, 0, 69, 0
2, 55456, Note_on_c, 0, 72, 70
2, 55486, Note_on_c, 0, 72, 0
2, 55488, Note_on_c, 0, 66, 70
2, 55518, Note_on_c, 0, 66, 0
2, 55520, Note_on_c, 0, 69, 70
2, 55550, Note_on_c, 0, 69, 0
2, 55552, Note_on_c, 0, 72, 70
2, 55582, Note_on_c, 0, 72, 0
2, 55584, Note_on_c, 0, 67, 70
2, 55614, Note_on_c, 0, 67, 0
2, 55616, Note_on_c, 0, 70, 70
2, 55646, Note_on_c, 0, 70, 0
2, 55648, Note_on_c, 0, 74, 70
2, 55678, Note_on_c, 0, 74, 0
2, 55680, Note_on_c, 0, 78, 70
2, 55710, Note_on_c, 0, 78, 0
2, 55712, Note_on_c, 0, 79, 70
2, 55742, Note_on_c, 0, 79, 0
2, 55744, Note_on_c, 0, 81, 70
2, 55774, Note_on_c, 0, 81, 0
2, 55776, Note_on_c, 0, 82, 70
2, 55806, Note_on_c, 0, 82, 0
2, 55808, Note_on_c, 0, 86, 70
2, 55838, Note_on_c, 0, 86, 0
2, 55840, Note_on_c, 0, 84, 70
2, 55870, Note_on_c, 0, 84, 0
2, 55872, Note_on_c, 0, 82, 70
2, 55902, Note_on_c, 0, 82, 0
2, 55904, Note_on_c, 0, 81, 70
2, 55934, Note_on_c, 0, 81, 0
2, 55936, Note_on_c, 0, 79, 70
2, 55966, Note_on_c, 0, 79, 0
2, 55968, Note_on_c, 0, 78, 70
2, 55998, Note_on_c, 0, 78, 0
2, 56000, Note_on_c, 0, 75, 70
2, 56030, Note_on_c, 0, 75, 0
2, 56032, Note_on_c, 0, 74, 70
2, 56062, Note_on_c, 0, 74, 0
2, 56064, Note_on_c, 0, 72, 70
2, 56094, Note_on_c, 0, 72, 0
2, 56096, Note_on_c, 0, 70, 70
2, 56126, Note_on_c, 0, 70, 0
2, 56128, Note_on_c, 0, 69, 70
2, 56158, Note_on_c, 0, 69, 0
2, 56160, Note_on_c, 0, 70, 70
2, 56190, Note_on_c, 0, 70, 0
2, 56192, Note_on_c, 0, 66, 70
2, 56224, Note_on_c, 0, 66, 0
2, 56224, Note_on_c, 0, 67, 70
2, 56254, Note_on_c, 0, 67, 0
2, 56256, Note_on_c, 0, 72, 70
2, 56286, Note_on_c, 0, 72, 0
2, 56288, Note_on_c, 0, 66, 70
2, 56320, Note_on_c, 0, 66, 0
2, 56320, Note_on_c, 0, 67, 70
2, 56350, Note_on_c, 0, 67, 0
2, 56352, Note_on_c, 0, 75, 86
2, 56384, Note_on_c, 0, 75, 0
2, 56384, Note_on_c, 0, 74, 70
2, 56414, Note_on_c, 0, 74, 0
2, 56416, Note_on_c, 0, 72, 70
2, 56446, Note_on_c, 0, 72, 0
2, 56448, Note_on_c, 0, 70, 70
2, 56478, Note_on_c, 0, 70, 0
2, 56480, Note_on_c, 0, 69, 70
2, 56510, Note_on_c, 0, 69, 0
2, 56512, Note_on_c, 0, 67, 70
2, 56542, Note_on_c, 0, 67, 0
2, 56544, Note_on_c, 0, 68, 70
2, 56574, Note_on_c, 0, 68, 0
2, 56576, Note_on_c, 0, 64, 70
2, 56608, Note_on_c, 0, 64, 0
2, 56608, Note_on_c, 0, 65, 70
2, 56638, Note_on_c, 0, 65, 0
2, 56640, Note_on_c, 0, 70, 70
2, 56670, Note_on_c, 0, 70, 0
2, 56672, Note_on_c, 0, 64, 70
2, 56704, Note_on_c, 0, 64, 0
2, 56704, Note_on_c, 0, 65, 70
2, 56734, Note_on_c, 0, 65, 0
2, 56736, Note_on_c, 0, 73, 86
2, 56768, Note_on_c, 0, 73, 0
2, 56768, Note_on_c, 0, 72, 70
2, 56798, Note_on_c, 0, 72, 0
2, 56800, Note_on_c, 0, 70, 70
2, 56830, Note_on_c, 0, 70, 0
2, 56832, Note_on_c, 0, 68, 70
2, 56862, Note_on_c, 0, 68, 0
2, 56864, Note_on_c, 0, 67, 70
2, 56894, Note_on_c, 0, 67, 0
2, 56896, Note_on_c, 0, 65, 70
2, 56926, Note_on_c, 0, 65, 0
2, 56976, Note_on_c, 0, 82, 75
2, 56976, Note_on_c, 0, 79, 75
2, 56996, Note_on_c, 0, 82, 0
2, 56996, Note_on_c, 0, 79, 0
2, 57024, Note_on_c, 0, 82, 75
2, 57024, Note_on_c, 0, 79, 75
2, 57069, Note_on_c, 0, 82, 0
2, 57069, Note_on_c, 0, 79, 0
2, 57072, Note_on_c, 0, 80, 75
2, 57072, Note_on_c, 0, 77, 75
2, 57117, Note_on_c, 0, 80, 0
2, 57117, Note_on_c, 0, 77, 0
2, 57120, Note_on_c, 0, 79, 75
2, 57120, Note_on_c, 0, 76, 75
2, 57168, Note_on_c, 0, 79, 0
2, 57168, Note_on_c, 0, 76, 0
2, 57168, Note_on_c, 0, 77, 75
2, 57168, Note_on_c, 0, 73, 75
2, 57213, Note_on_c, 0, 77, 0
2, 57213, Note_on_c, 0, 73, 0
2, 57216, Note_on_c, 0, 76, 75
2, 57216, Note_on_c, 0, 72, 75
2, 57264, Note_on_c, 0, 76, 0
2, 57264, Note_on_c, 0, 72, 0
2, 57264, Note_on_c, 0, 73, 75
2, 57264, Note_on_c, 0, 70, 75
2, 57309, Note_on_c, 0, 73, 0
2, 57309, Note_on_c, 0, 70, 0
2, 57312, Note_on_c, 0, 73, 75
2, 57312, Note_on_c, 0, 70, 75
2, 57360, Note_on_c, 0, 73, 0
2, 57360, Note_on_c, 0, 70, 0
2, 57360, Note_on_c, 0, 72, 74
2, 57360, Note_on_c, 0, 68, 74
2, 57405, Note_on_c, 0, 72, 0
2, 57405, Note_on_c, 0, 68, 0
2, 57408, Note_on_c, 0, 70, 73
2, 57408, Note_on_c, 0, 67, 73
2, 57456, Note_on_c, 0, 70, 0
2, 57456, Note_on_c, 0, 67, 0
2, 57456, Note_on_c, 0, 68, 73
2, 57456, Note_on_c, 0, 65, 73
2, 57501, Note_on_c, 0, 68, 0
2, 57501, Note_on_c, 0, 65, 0
2, 57504, Note_on_c, 0, 67, 72
2, 57504, Note_on_c, 0, 64, 72
2, 57549, Note_on_c, 0, 67, 0
2, 57549, Note_on_c, 0, 64, 0
2, 57552, Note_on_c, 0, 68, 71
2, 57552, Note_on_c, 0, 65, 71
2, 57597, Note_on_c, 0, 68, 0
2, 57597, Note_on_c, 0, 65, 0
2, 57600, Note_on_c, 0, 70, 71
2, 57600, Note_on_c, 0, 67, 71
2, 57645, Note_on_c, 0, 70, 0
2, 57645, Note_on_c, 0, 67, 0
2, 57648, Note_on_c, 0, 73, 70
2, 57648, Note_on_c, 0, 70, 70
2, 57693, Note_on_c, 0, 73, 0
2, 57693, Note_on_c, 0, 70, 0
2, 57696, Note_on_c, 0, 73, 70
2, 57741, Note_on_c, 0, 73, 0
2, 57744, Note_on_c, 0, 76, 69
2, 57789, Note_on_c, 0, 76, 0
2, 57792, Note_on_c, 0, 79, 68
2, 57837, Note_on_c, 0, 79, 0
2, 57840, Note_on_c, 0, 73, 67
2, 57885, Note_on_c, 0, 73, 0
2, 57888, Note_on_c, 0, 72, 67
2, 57933, Note_on_c, 0, 72, 0
2, 57936, Note_on_c, 0, 76, 66
2, 57981, Note_on_c, 0, 76, 0
2, 57984, Note_on_c, 0, 79, 65
2, 58029, Note_on_c, 0, 79, 0
2, 58032, Note_on_c, 0, 70, 64
2, 58077, Note_on_c, 0, 70, 0
2, 58080, Note_on_c, 0, 65, 64
2, 58125, Note_on_c, 0, 65, 0
2, 58128, Note_on_c, 0, 67, 64
2, 58173, Note_on_c, 0, 67, 0
2, 58176, Note_on_c, 0, 68, 64
2, 58221, Note_on_c, 0, 68, 0
2, 58224, Note_on_c, 0, 65, 64
2, 58269, Note_on_c, 0, 65, 0
2, 58272, Note_on_c, 0, 71, 64
2, 58317, Note_on_c, 0, 71, 0
2, 58320, Note_on_c, 0, 68, 64
2, 58365, Note_on_c, 0, 68, 0
2, 58368, Note_on_c, 0, 67, 64
2, 58413, Note_on_c, 0, 67, 0
2, 58416, Note_on_c, 0, 65, 64
2, 58461, Note_on_c, 0, 65, 0
2, 58464, Note_on_c, 0, 72, 75
2, 58464, Note_on_c, 0, 67, 75
2, 58464, Note_on_c, 0, 64, 75
2, 58641, Note_on_c, 0, 72, 0
2, 58641, Note_on_c, 0, 67, 0
2, 58641, Note_on_c, 0, 64, 0
2, 58656, Note_on_c, 0, 64, 75
2, 58745, Note_on_c, 0, 64, 0
2, 58752, Note_on_c, 0, 65, 75
2, 58841, Note_on_c, 0, 65, 0
2, 58848, Note_on_c, 0, 73, 75
2, 58981, Note_on_c, 0, 73, 0
2, 58992, Note_on_c, 0, 70, 75
2, 59037, Note_on_c, 0, 70, 0
2, 59040, Note_on_c, 0, 72, 75
2, 59129, Note_on_c, 0, 72, 0
2, 59232, Note_on_c, 0, 82, 75
2, 59365, Note_on_c, 0, 82, 0
2, 59376, Note_on_c, 0, 79, 76
2, 59421, Note_on_c, 0, 79, 0
2, 59424, Note_on_c, 0, 82, 77
2, 59469, Note_on_c, 0, 82, 0
2, 59472, Note_on_c, 0, 80, 78
2, 59517, Note_on_c, 0, 80, 0
2, 59520, Note_on_c, 0, 79, 78
2, 59565, Note_on_c, 0, 79, 0
2, 59568, Note_on_c, 0, 77, 79
2, 59613, Note_on_c, 0, 77, 0
2, 59616, Note_on_c, 0, 77, 80
2, 59808, Note_on_c, 0, 77, 0
2, 59808, Note_on_c, 0, 76, 76
2, 59897, Note_on_c, 0, 76, 0
2, 60000, Note_on_c, 0, 75, 75
2, 60000, Note_on_c, 0, 69, 75
2, 60000, Note_on_c, 0, 66, 75
2, 60177, Note_on_c, 0, 75, 0
2, 60177, Note_on_c, 0, 69, 0
2, 60177, Note_on_c, 0, 66, 0
2, 60192, Note_on_c, 0, 66, 75
2, 60281, Note_on_c, 0, 66, 0
2, 60288, Note_on_c, 0, 67, 75
2, 60377, Note_on_c, 0, 67, 0
2, 60384, Note_on_c, 0, 75, 75
2, 60517, Note_on_c, 0, 75, 0
2, 60528, Note_on_c, 0, 72, 75
2, 60573, Note_on_c, 0, 72, 0
2, 60576, Note_on_c, 0, 74, 75
2, 60665, Note_on_c, 0, 74, 0
2, 60768, Note_on_c, 0, 84, 75
2, 60901, Note_on_c, 0, 84, 0
2, 60912, Note_on_c, 0, 81, 76
2, 60957, Note_on_c, 0, 81, 0
2, 60960, Note_on_c, 0, 84, 77
2, 61005, Note_on_c, 0, 84, 0
2, 61008, Note_on_c, 0, 82, 78
2, 61053, Note_on_c, 0, 82, 0
2, 61056, Note_on_c, 0, 81, 78
2, 61101, Note_on_c, 0, 81, 0
2, 61104, Note_on_c, 0, 79, 79
2, 61149, Note_on_c, 0, 79, 0
2, 61152, Note_on_c, 0, 79, 80
2, 61344, Note_on_c, 0, 79, 0
2, 61344, Note_on_c, 0, 78, 76
2, 61433, Note_on_c, 0, 78, 0
2, 61536, Note_on_c, 0, 77, 75
2, 61566, Note_on_c, 0, 77, 0
2, 61568, Note_on_c, 0, 74, 75
2, 61598, Note_on_c, 0, 74, 0
2, 61600, Note_on_c, 0, 71, 75
2, 61630, Note_on_c, 0, 71, 0
2, 61632, Note_on_c, 0, 77, 75
2, 61662, Note_on_c, 0, 77, 0
2, 61664, Note_on_c, 0, 74, 75
2, 61694, Note_on_c, 0, 74, 0
2, 61696, Note_on_c, 0, 71, 75
2, 61726, Note_on_c, 0, 71, 0
2, 61728, Note_on_c, 0, 76, 75
2, 61758, Note_on_c, 0, 76, 0
2, 61760, Note_on_c, 0, 71, 75
2, 61792, Note_on_c, 0, 71, 0
2, 61792, Note_on_c, 0, 72, 75
2, 61822, Note_on_c, 0, 72, 0
2, 61824, Note_on_c, 0, 76, 75
2, 61854, Note_on_c, 0, 76, 0
2, 61856, Note_on_c, 0, 71, 75
2, 61888, Note_on_c, 0, 71, 0
2, 61888, Note_on_c, 0, 72, 75
2, 61918, Note_on_c, 0, 72, 0
2, 61920, Note_on_c, 0, 75, 75
2, 61950, Note_on_c, 0, 75, 0
2, 61952, Note_on_c, 0, 72, 75
2, 61982, Note_on_c, 0, 72, 0
2, 61984, Note_on_c, 0, 69, 75
2, 62014, Note_on_c, 0, 69, 0
2, 62016, Note_on_c, 0, 75, 75
2, 62046, Note_on_c, 0, 75, 0
2, 62048, Note_on_c, 0, 72, 75
2, 62078, Note_on_c, 0, 72, 0
2, 62080, Note_on_c, 0, 69, 75
2, 62110, Note_on_c, 0, 69, 0
2, 62112, Note_on_c, 0, 74, 75
2, 62142, Note_on_c, 0, 74, 0
2, 62144, Note_on_c, 0, 69, 75
2, 62176, Note_on_c, 0, 69, 0
2, 62176, Note_on_c, 0, 70, 75
2, 62206, Note_on_c, 0, 70, 0
2, 62208, Note_on_c, 0, 74, 75
2, 62238, Note_on_c, 0, 74, 0
2, 62240, Note_on_c, 0, 69, 75
2, 62272, Note_on_c, 0, 69, 0
2, 62272, Note_on_c, 0, 70, 75
2, 62302, Note_on_c, 0, 70, 0
2, 62304, Note_on_c, 0, 73, 75
2, 62334, Note_on_c, 0, 73, 0
2, 62336, Note_on_c, 0, 70, 75
2, 62366, Note_on_c, 0, 70, 0
2, 62368, Note_on_c, 0, 67, 75
2, 62398, Note_on_c, 0, 67, 0
2, 62400, Note_on_c, 0, 73, 75
2, 62430, Note_on_c, 0, 73, 0
2, 62432, Note_on_c, 0, 70, 75
2, 62462, Note_on_c, 0, 70, 0
2, 62464, Note_on_c, 0, 67, 75
2, 62494, Note_on_c, 0, 67, 0
2, 62496, Note_on_c, 0, 72, 75
2, 62526, Note_on_c, 0, 72, 0
2, 62528, Note_on_c, 0, 67, 75
2, 62560, Note_on_c, 0, 67, 0
2, 62560, Note_on_c, 0, 68, 75
2, 62590, Note_on_c, 0, 68, 0
2, 62592, Note_on_c, 0, 72, 75
2, 62622, Note_on_c, 0, 72, 0
2, 62624, Note_on_c, 0, 67, 75
2, 62656, Note_on_c, 0, 67, 0
2, 62656, Note_on_c, 0, 68, 75
2, 62686, Note_on_c, 0, 68, 0
2, 62688, Note_on_c, 0, 72, 75
2, 62718, Note_on_c, 0, 72, 0
2, 62720, Note_on_c, 0, 69, 75
2, 62750, Note_on_c, 0, 69, 0
2, 62752, Note_on_c, 0, 66, 75
2, 62782, Note_on_c, 0, 66, 0
2, 62784, Note_on_c, 0, 72, 75
2, 62814, Note_on_c, 0, 72, 0
2, 62816, Note_on_c, 0, 69, 75
2, 62846, Note_on_c, 0, 69, 0
2, 62848, Note_on_c, 0, 66, 75
2, 62878, Note_on_c, 0, 66, 0
2, 62880, Note_on_c, 0, 67, 75
2, 62910, Note_on_c, 0, 67, 0
2, 62912, Note_on_c, 0, 66, 75
2, 62942, Note_on_c, 0, 66, 0
2, 62944, Note_on_c, 0, 67, 75
2, 62974, Note_on_c, 0, 67, 0
2, 62976, Note_on_c, 0, 70, 75
2, 63006, Note_on_c, 0, 70, 0
2, 63008, Note_on_c, 0, 66, 75
2, 63038, Note_on_c, 0, 66, 0
2, 63040, Note_on_c, 0, 67, 75
2, 63070, Note_on_c, 0, 67, 0
2, 63120, Note_on_c, 0, 82, 96
2, 63120, Note_on_c, 0, 79, 96
2, 63140, Note_on_c, 0, 82, 0
2, 63140, Note_on_c, 0, 79, 0
2, 63168, Note_on_c, 0, 81, 80
2, 63168, Note_on_c, 0, 78, 80
2, 63188, Note_on_c, 0, 81, 0
2, 63188, Note_on_c, 0, 78, 0
2, 63216, Note_on_c, 0, 79, 80
2, 63216, Note_on_c, 0, 75, 80
2, 63236, Note_on_c, 0, 79, 0
2, 63236, Note_on_c, 0, 75, 0
2, 63264, Note_on_c, 0, 78, 80
2, 63264, Note_on_c, 0, 74, 80
2, 63284, Note_on_c, 0, 78, 0
2, 63284, Note_on_c, 0, 74, 0
2, 63312, Note_on_c, 0, 75, 80
2, 63312, Note_on_c, 0, 72, 80
2, 63332, Note_on_c, 0, 75, 0
2, 63332, Note_on_c, 0, 72, 0
2, 63360, Note_on_c, 0, 74, 80
2, 63360, Note_on_c, 0, 70, 80
2, 63380, Note_on_c, 0, 74, 0
2, 63380, Note_on_c, 0, 70, 0
2, 63408, Note_on_c, 0, 72, 80
2, 63408, Note_on_c, 0, 69, 80
2, 63428, Note_on_c, 0, 72, 0
2, 63428, Note_on_c, 0, 69, 0
2, 63456, Note_on_c, 0, 70, 96
2, 63504, Note_on_c, 0, 70, 0
2, 63504, Note_on_c, 0, 67, 80
2, 63549, Note_on_c, 0, 67, 0
2, 63552, Note_on_c, 0, 66, 80
2, 63597, Note_on_c, 0, 66, 0
2, 63600, Note_on_c, 0, 67, 80
2, 63645, Note_on_c, 0, 67, 0
2, 63648, Note_on_c, 0, 72, 80
2, 63668, Note_on_c, 0, 72, 0
2, 63696, Note_on_c, 0, 70, 80
2, 63716, Note_on_c, 0, 70, 0
2, 63744, Note_on_c, 0, 69, 80
2, 63764, Note_on_c, 0, 69, 0
2, 63792, Note_on_c, 0, 67, 80
2, 63812, Note_on_c, 0, 67, 0
2, 63840, Note_on_c, 0, 67, 96
2, 64032, Note_on_c, 0, 67, 0
2, 64032, Note_on_c, 0, 66, 80
2, 64121, Note_on_c, 0, 66, 0
2, 64224, Note_on_c, 0, 75, 91
2, 64368, Note_on_c, 0, 75, 0
2, 64368, Note_on_c, 0, 72, 73
2, 64413, Note_on_c, 0, 72, 0
2, 64416, Note_on_c, 0, 75, 73
2, 64461, Note_on_c, 0, 75, 0
2, 64464, Note_on_c, 0, 74, 73
2, 64509, Note_on_c, 0, 74, 0
2, 64512, Note_on_c, 0, 72, 72
2, 64557, Note_on_c, 0, 72, 0
2, 64560, Note_on_c, 0, 70, 72
2, 64605, Note_on_c, 0, 70, 0
2, 64608, Note_on_c, 0, 70, 88
2, 64800, Note_on_c, 0, 70, 0
2, 64800, Note_on_c, 0, 69, 70
2, 64889, Note_on_c, 0, 69, 0
2, 64992, Note_on_c, 0, 82, 86
2, 65280, Note_on_c, 0, 82, 0
2, 65280, Note_on_c, 0, 79, 68
2, 65369, Note_on_c, 0, 79, 0
2, 65376, Note_on_c, 0, 77, 68
2, 65465, Note_on_c, 0, 77, 0
2, 65472, Note_on_c, 0, 76, 67
2, 65561, Note_on_c, 0, 76, 0
2, 65568, Note_on_c, 0, 74, 67
2, 65657, Note_on_c, 0, 74, 0
2, 65664, Note_on_c, 0, 74, 66
2, 65937, Note_on_c, 0, 74, 0
2, 65952, Note_on_c, 0, 73, 65
2, 66321, Note_on_c, 0, 73, 0
2, 66624, Note_on_c, 0, 81, 91
2, 66816, Note_on_c, 0, 81, 0
2, 66816, Note_on_c, 0, 73, 75
2, 66912, Note_on_c, 0, 73, 0
2, 66912, Note_on_c, 0, 74, 75
2, 67001, Note_on_c, 0, 74, 0
2, 67008, Note_on_c, 0, 82, 75
2, 67141, Note_on_c, 0, 82, 0
2, 67152, Note_on_c, 0, 79, 75
2, 67197, Note_on_c, 0, 79, 0
2, 67200, Note_on_c, 0, 81, 75
2, 67377, Note_on_c, 0, 81, 0
2, 67392, Note_on_c, 0, 67, 75
2, 67525, Note_on_c, 0, 67, 0
2, 67536, Note_on_c, 0, 64, 75
2, 67581, Note_on_c, 0, 64, 0
2, 67584, Note_on_c, 0, 67, 76
2, 67629, Note_on_c, 0, 67, 0
2, 67632, Note_on_c, 0, 65, 77
2, 67677, Note_on_c, 0, 65, 0
2, 67680, Note_on_c, 0, 64, 78
2, 67725, Note_on_c, 0, 64, 0
2, 67728, Note_on_c, 0, 62, 79
2, 67773, Note_on_c, 0, 62, 0
2, 67776, Note_on_c, 0, 62, 80
2, 67968, Note_on_c, 0, 62, 0
2, 67968, Note_on_c, 0, 61, 76
2, 68057, Note_on_c, 0, 61, 0
2, 68112, Note_on_c, 0, 73, 70
2, 68132, Note_on_c, 0, 73, 0
2, 68160, Note_on_c, 0, 73, 86
2, 68160, Note_on_c, 0, 70, 86
2, 68352, Note_on_c, 0, 73, 0
2, 68352, Note_on_c, 0, 70, 0
2, 68352, Note_on_c, 0, 74, 70
2, 68352, Note_on_c, 0, 69, 70
2, 68391, Note_on_c, 0, 74, 0
2, 68391, Note_on_c, 0, 69, 0
2, 68496, Note_on_c, 0, 82, 70
2, 68516, Note_on_c, 0, 82, 0
2, 68544, Note_on_c, 0, 82, 86
2, 68544, Note_on_c, 0, 76, 86
2, 68736, Note_on_c, 0, 82, 0
2, 68736, Note_on_c, 0, 76, 0
2, 68736, Note_on_c, 0, 81, 70
2, 68736, Note_on_c, 0, 77, 70
2, 68775, Note_on_c, 0, 81, 0
2, 68775, Note_on_c, 0, 77, 0
2, 68928, Note_on_c, 0, 63, 96
2, 69024, Note_on_c, 0, 63, 0
2, 69024, Note_on_c, 0, 77, 80
2, 69036, Note_on_c, 0, 77, 0
2, 69036, Note_on_c, 0, 75, 80
2, 69048, Note_on_c, 0, 75, 0
2, 69048, Note_on_c, 0, 74, 80
2, 69060, Note_on_c, 0, 74, 0
2, 69060, Note_on_c, 0, 75, 96
2, 69216, Note_on_c, 0, 75, 0
2, 69216, Note_on_c, 0, 73, 80
2, 69305, Note_on_c, 0, 73, 0
2, 69312, Note_on_c, 0, 74, 96
2, 69408, Note_on_c, 0, 74, 0
2, 69504, Note_on_c, 0, 73, 75
2, 69600, Note_on_c, 0, 73, 0
2, 69600, Note_on_c, 0, 74, 77
2, 69689, Note_on_c, 0, 74, 0
2, 69696, Note_on_c, 0, 82, 80
2, 69708, Note_on_c, 0, 82, 0
2, 69708, Note_on_c, 0, 81, 80
2, 69720, Note_on_c, 0, 81, 0
2, 69720, Note_on_c, 0, 82, 96
2, 69840, Note_on_c, 0, 82, 0
2, 69840, Note_on_c, 0, 79, 78
2, 69885, Note_on_c, 0, 79, 0
2, 69888, Note_on_c, 0, 81, 77
2, 70065, Note_on_c, 0, 81, 0
2, 70080, Note_on_c, 0, 55, 96
2, 70224, Note_on_c, 0, 55, 0
2, 70224, Note_on_c, 0, 52, 80
2, 70269, Note_on_c, 0, 52, 0
2, 70272, Note_on_c, 0, 55, 81
2, 70317, Note_on_c, 0, 55, 0
2, 70320, Note_on_c, 0, 53, 82
2, 70365, Note_on_c, 0, 53, 0
2, 70368, Note_on_c, 0, 52, 83
2, 70413, Note_on_c, 0, 52, 0
2, 70416, Note_on_c, 0, 50, 84
2, 70461, Note_on_c, 0, 50, 0
2, 70464, Note_on_c, 0, 50, 102
2, 70656, Note_on_c, 0, 50, 0
2, 70656, Note_on_c, 0, 49, 82
2, 70745, Note_on_c, 0, 49, 0
2, 70880, Note_on_c, 0, 73, 75
2, 70912, Note_on_c, 0, 73, 0
2, 70912, Note_on_c, 0, 74, 75
2, 70942, Note_on_c, 0, 74, 0
2, 70944, Note_on_c, 0, 77, 91
2, 70976, Note_on_c, 0, 77, 0
2, 70976, Note_on_c, 0, 73, 76
2, 71008, Note_on_c, 0, 73, 0
2, 71008, Note_on_c, 0, 74, 76
2, 71038, Note_on_c, 0, 74, 0
2, 71040, Note_on_c, 0, 79, 93
2, 71072, Note_on_c, 0, 79, 0
2, 71072, Note_on_c, 0, 73, 77
2, 71104, Note_on_c, 0, 73, 0
2, 71104, Note_on_c, 0, 74, 77
2, 71134, Note_on_c, 0, 74, 0
2, 71136, Note_on_c, 0, 81, 94
2, 71168, Note_on_c, 0, 81, 0
2, 71168, Note_on_c, 0, 73, 78
2, 71200, Note_on_c, 0, 73, 0
2, 71200, Note_on_c, 0, 74, 79
2, 71230, Note_on_c, 0, 74, 0
2, 71264, Control_c, 0, 64, 127
2, 71264, Note_on_c, 0, 82, 80
2, 71294, Note_on_c, 0, 82, 0
2, 71296, Note_on_c, 0, 79, 80
2, 71326, Note_on_c, 0, 79, 0
2, 71328, Note_on_c, 0, 75, 80
2, 71358, Note_on_c, 0, 75, 0
2, 71360, Note_on_c, 0, 79, 80
2, 71390, Note_on_c, 0, 79, 0
2, 71392, Note_on_c, 0, 75, 80
2, 71422, Note_on_c, 0, 75, 0
2, 71424, Note_on_c, 0, 70, 80
2, 71454, Note_on_c, 0, 70, 0
2, 71456, Note_on_c, 0, 75, 80
2, 71486, Note_on_c, 0, 75, 0
2, 71488, Note_on_c, 0, 70, 80
2, 71518, Note_on_c, 0, 70, 0
2, 71520, Note_on_c, 0, 67, 80
2, 71550, Note_on_c, 0, 67, 0
2, 71552, Note_on_c, 0, 70, 80
2, 71582, Note_on_c, 0, 70, 0
2, 71584, Control_c, 0, 64, 0
2, 71584, Note_on_c, 0, 67, 80
2, 71614, Note_on_c, 0, 67, 0
2, 71664, Note_on_c, 0, 82, 80
2, 71664, Note_on_c, 0, 79, 80
2, 71709, Note_on_c, 0, 82, 0
2, 71709, Note_on_c, 0, 79, 0
2, 71712, Note_on_c, 0, 81, 79
2, 71712, Note_on_c, 0, 77, 79
2, 71757, Note_on_c, 0, 81, 0
2, 71757, Note_on_c, 0, 77, 0
2, 71760, Note_on_c, 0, 79, 78
2, 71760, Note_on_c, 0, 76, 78
2, 71805, Note_on_c, 0, 79, 0
2, 71805, Note_on_c, 0, 76, 0
2, 71808, Note_on_c, 0, 77, 77
2, 71808, Note_on_c, 0, 74, 77
2, 71897, Note_on_c, 0, 77, 0
2, 71897, Note_on_c, 0, 74, 0
2, 72000, Note_on_c, 0, 76, 70
2, 72000, Note_on_c, 0, 73, 70
2, 72000, Note_on_c, 0, 69, 70
2, 72089, Note_on_c, 0, 76, 0
2, 72089, Note_on_c, 0, 73, 0
2, 72089, Note_on_c, 0, 69, 0
2, 72264, Note_on_c, 0, 77, 80
2, 72287, Note_on_c, 0, 77, 0
2, 72288, Note_on_c, 0, 81, 80
2, 72311, Note_on_c, 0, 81, 0
2, 72312, Note_on_c, 0, 79, 80
2, 72335, Note_on_c, 0, 79, 0
2, 72336, Note_on_c, 0, 77, 80
2, 72359, Note_on_c, 0, 77, 0
2, 72360, Note_on_c, 0, 76, 80
2, 72383, Note_on_c, 0, 76, 0
2, 72384, Note_on_c, 0, 74, 80
2, 72407, Note_on_c, 0, 74, 0
2, 72408, Note_on_c, 0, 72, 80
2, 72431, Note_on_c, 0, 72, 0
2, 72432, Note_on_c, 0, 70, 80
2, 72455, Note_on_c, 0, 70, 0
2, 72456, Note_on_c, 0, 69, 80
2, 72479, Note_on_c, 0, 69, 0
2, 72480, Note_on_c, 0, 67, 80
2, 72503, Note_on_c, 0, 67, 0
2, 72504, Note_on_c, 0, 65, 80
2, 72527, Note_on_c, 0, 65, 0
2, 72528, Note_on_c, 0, 64, 80
2, 72551, Note_on_c, 0, 64, 0
2, 72552, Note_on_c, 0, 62, 80
2, 72575, Note_on_c, 0, 62, 0
2, 72576, Note_on_c, 0, 70, 80
2, 72599, Note_on_c, 0, 70, 0
2, 72600, Note_on_c, 0, 69, 80
2, 72623, Note_on_c, 0, 69, 0
2, 72624, Note_on_c, 0, 67, 80
2, 72647, Note_on_c, 0, 67, 0
2, 72648, Note_on_c, 0, 65, 80
2, 72671, Note_on_c, 0, 65, 0
2, 72672, Note_on_c, 0, 64, 80
2, 72702, Note_on_c, 0, 64, 0
2, 72704, Note_on_c, 0, 62, 80
2, 72734, Note_on_c, 0, 62, 0
2, 72736, Note_on_c, 0, 60, 80
2, 72766, Note_on_c, 0, 60, 0
2, 72768, Note_on_c, 0, 58, 80
2, 72798, Note_on_c, 0, 58, 0
2, 72800, Note_on_c, 0, 57, 80
2, 72830, Note_on_c, 0, 57, 0
2, 72832, Note_on_c, 0, 55, 80
2, 72862, Note_on_c, 0, 55, 0
2, 72864, Note_on_c, 0, 53, 80
2, 72894, Note_on_c, 0, 53, 0
2, 72896, Note_on_c, 0, 52, 80
2, 72926, Note_on_c, 0, 52, 0
2, 72928, Note_on_c, 0, 50, 80
2, 72958, Note_on_c, 0, 50, 0
2, 72960, Note_on_c, 0, 49, 80
2, 72990, Note_on_c, 0, 49, 0
2, 72992, Note_on_c, 0, 45, 80
2, 73022, Note_on_c, 0, 45, 0
2, 73024, Note_on_c, 0, 49, 80
2, 73054, Note_on_c, 0, 49, 0
2, 73056, Note_on_c, 0, 52, 80
2, 73086, Note_on_c, 0, 52, 0
2, 73088, Note_on_c, 0, 49, 80
2, 73118, Note_on_c, 0, 49, 0
2, 73120, Note_on_c, 0, 52, 80
2, 73150, Note_on_c, 0, 52, 0
2, 73152, Note_on_c, 0, 55, 80
2, 73182, Note_on_c, 0, 55, 0
2, 73184, Note_on_c, 0, 52, 80
2, 73214, Note_on_c, 0, 52, 0
2, 73216, Note_on_c, 0, 55, 80
2, 73246, Note_on_c, 0, 55, 0
2, 73248, Note_on_c, 0, 61, 80
2, 73278, Note_on_c, 0, 61, 0
2, 73280, Note_on_c, 0, 57, 80
2, 73310, Note_on_c, 0, 57, 0
2, 73312, Note_on_c, 0, 61, 80
2, 73342, Note_on_c, 0, 61, 0
2, 73376, Note_on_c, 0, 76, 80
2, 73406, Note_on_c, 0, 76, 0
2, 73408, Note_on_c, 0, 74, 80
2, 73438, Note_on_c, 0, 74, 0
2, 73440, Note_on_c, 0, 73, 80
2, 73470, Note_on_c, 0, 73, 0
2, 73472, Note_on_c, 0, 70, 80
2, 73502, Note_on_c, 0, 70, 0
2, 73504, Note_on_c, 0, 69, 80
2, 73534, Note_on_c, 0, 69, 0
2, 73536, Note_on_c, 0, 67, 80
2, 73566, Note_on_c, 0, 67, 0
2, 73568, Note_on_c, 0, 65, 80
2, 73598, Note_on_c, 0, 65, 0
2, 73600, Note_on_c, 0, 64, 80
2, 73630, Note_on_c, 0, 64, 0
2, 73632, Note_on_c, 0, 62, 80
2, 73662, Note_on_c, 0, 62, 0
2, 73664, Note_on_c, 0, 61, 80
2, 73694, Note_on_c, 0, 61, 0
2, 73696, Note_on_c, 0, 58, 80
2, 73726, Note_on_c, 0, 58, 0
2, 73728, Note_on_c, 0, 57, 80
2, 73758, Note_on_c, 0, 57, 0
2, 73760, Note_on_c, 0, 54, 80
2, 73790, Note_on_c, 0, 54, 0
2, 73792, Note_on_c, 0, 57, 80
2, 73822, Note_on_c, 0, 57, 0
2, 73824, Note_on_c, 0, 60, 80
2, 73854, Note_on_c, 0, 60, 0
2, 73856, Note_on_c, 0, 57, 80
2, 73886, Note_on_c, 0, 57, 0
2, 73888, Note_on_c, 0, 60, 80
2, 73918, Note_on_c, 0, 60, 0
2, 73920, Note_on_c, 0, 66, 80
2, 73950, Note_on_c, 0, 66, 0
2, 73952, Note_on_c, 0, 60, 80
2, 73982, Note_on_c, 0, 60, 0
2, 73984, Note_on_c, 0, 66, 80
2, 74014, Note_on_c, 0, 66, 0
2, 74016, Note_on_c, 0, 69, 80
2, 74046, Note_on_c, 0, 69, 0
2, 74048, Note_on_c, 0, 66, 80
2, 74078, Note_on_c, 0, 66, 0
2, 74080, Note_on_c, 0, 69, 80
2, 74110, Note_on_c, 0, 69, 0
2, 74112, Note_on_c, 0, 70, 80
2, 74142, Note_on_c, 0, 70, 0
2, 74144, Note_on_c, 0, 67, 80
2, 74174, Note_on_c, 0, 67, 0
2, 74176, Note_on_c, 0, 62, 81
2, 74206, Note_on_c, 0, 62, 0
2, 74208, Note_on_c, 0, 69, 81
2, 74238, Note_on_c, 0, 69, 0
2, 74240, Note_on_c, 0, 66, 82
2, 74270, Note_on_c, 0, 66, 0
2, 74272, Note_on_c, 0, 62, 82
2, 74302, Note_on_c, 0, 62, 0
2, 74304, Note_on_c, 0, 70, 83
2, 74334, Note_on_c, 0, 70, 0
2, 74336, Note_on_c, 0, 67, 83
2, 74366, Note_on_c, 0, 67, 0
2, 74368, Note_on_c, 0, 62, 84
2, 74398, Note_on_c, 0, 62, 0
2, 74400, Note_on_c, 0, 72, 84
2, 74430, Note_on_c, 0, 72, 0
2, 74432, Note_on_c, 0, 69, 85
2, 74462, Note_on_c, 0, 69, 0
2, 74464, Note_on_c, 0, 62, 86
2, 74494, Note_on_c, 0, 62, 0
2, 74496, Note_on_c, 0, 75, 86
2, 74526, Note_on_c, 0, 75, 0
2, 74528, Note_on_c, 0, 72, 86
2, 74558, Note_on_c, 0, 72, 0
2, 74560, Note_on_c, 0, 62, 86
2, 74590, Note_on_c, 0, 62, 0
2, 74592, Note_on_c, 0, 74, 86
2, 74622, Note_on_c, 0, 74, 0
2, 74624, Note_on_c, 0, 70, 86
2, 74654, Note_on_c, 0, 70, 0
2, 74656, Note_on_c, 0, 62, 86
2, 74686, Note_on_c, 0, 62, 0
2, 74688, Note_on_c, 0, 72, 86
2, 74718, Note_on_c, 0, 72, 0
2, 74720, Note_on_c, 0, 69, 86
2, 74750, Note_on_c, 0, 69, 0
2, 74752, Note_on_c, 0, 62, 86
2, 74782, Note_on_c, 0, 62, 0
2, 74784, Note_on_c, 0, 70, 86
2, 74814, Note_on_c, 0, 70, 0
2, 74816, Note_on_c, 0, 67, 86
2, 74846, Note_on_c, 0, 67, 0
2, 74848, Note_on_c, 0, 62, 86
2, 74878, Note_on_c, 0, 62, 0
2, 74880, Note_on_c, 0, 72, 86
2, 74910, Note_on_c, 0, 72, 0
2, 74912, Note_on_c, 0, 69, 87
2, 74942, Note_on_c, 0, 69, 0
2, 74944, Note_on_c, 0, 63, 88
2, 74974, Note_on_c, 0, 63, 0
2, 74976, Note_on_c, 0, 72, 89
2, 75006, Note_on_c, 0, 72, 0
2, 75008, Note_on_c, 0, 69, 90
2, 75038, Note_on_c, 0, 69, 0
2, 75040, Note_on_c, 0, 63, 91
2, 75070, Note_on_c, 0, 63, 0
2, 75072, Note_on_c, 0, 73, 92
2, 75095, Note_on_c, 0, 73, 0
2, 75096, Note_on_c, 0, 67, 94
2, 75119, Note_on_c, 0, 67, 0
2, 75120, Note_on_c, 0, 64, 94
2, 75143, Note_on_c, 0, 64, 0
2, 75144, Note_on_c, 0, 67, 94
2, 75167, Note_on_c, 0, 67, 0
2, 75168, Note_on_c, 0, 73, 94
2, 75191, Note_on_c, 0, 73, 0
2, 75192, Note_on_c, 0, 67, 94
2, 75215, Note_on_c, 0, 67, 0
2, 75216, Note_on_c, 0, 64, 94
2, 75239, Note_on_c, 0, 64, 0
2, 75240, Note_on_c, 0, 67, 94
2, 75263, Note_on_c, 0, 67, 0
2, 75264, Note_on_c, 0, 74, 94
2, 75309, Note_on_c, 0, 74, 0
2, 75312, Note_on_c, 0, 62, 94
2, 75357, Note_on_c, 0, 62, 0
2, 75648, Note_on_c, 0, 75, 70
2, 75648, Note_on_c, 0, 72, 70
2, 75825, Note_on_c, 0, 75, 0
2, 75825, Note_on_c, 0, 72, 0
2, 75840, Note_on_c, 0, 74, 70
2, 75840, Note_on_c, 0, 72, 70
2, 76017, Note_on_c, 0, 74, 0
2, 76017, Note_on_c, 0, 72, 0
2, 76032, Note_on_c, 0, 74, 70
2, 76032, Note_on_c, 0, 72, 70
2, 76209, Note_on_c, 0, 74, 0
2, 76209, Note_on_c, 0, 72, 0
2, 76224, Note_on_c, 0, 74, 70
2, 76224, Note_on_c, 0, 70, 70
2, 76271, Note_on_c, 0, 74, 0
2, 76271, Note_on_c, 0, 70, 0
2, 76272, Note_on_c, 0, 70, 71
2, 76317, Note_on_c, 0, 70, 0
2, 76320, Note_on_c, 0, 69, 72
2, 76365, Note_on_c, 0, 69, 0
2, 76368, Note_on_c, 0, 70, 73
2, 76413, Note_on_c, 0, 70, 0
2, 76416, Note_on_c, 0, 82, 75
2, 76416, Note_on_c, 0, 79, 75
2, 76593, Note_on_c, 0, 82, 0
2, 76593, Note_on_c, 0, 79, 0
2, 76608, Note_on_c, 0, 81, 71
2, 76608, Note_on_c, 0, 79, 71
2, 76697, Note_on_c, 0, 81, 0
2, 76697, Note_on_c, 0, 79, 0
2, 76752, Note_on_c, 0, 74, 80
2, 76772, Note_on_c, 0, 74, 0
2, 76800, Note_on_c, 0, 74, 96
2, 76848, Note_on_c, 0, 74, 0
2, 76848, Note_on_c, 0, 76, 80
2, 76863, Note_on_c, 0, 76, 0
2, 76864, Note_on_c, 0, 74, 80
2, 76879, Note_on_c, 0, 74, 0
2, 76880, Note_on_c, 0, 73, 80
2, 76895, Note_on_c, 0, 73, 0
2, 76896, Note_on_c, 0, 74, 80
2, 76941, Note_on_c, 0, 74, 0
2, 76944, Note_on_c, 0, 77, 80
2, 76964, Note_on_c, 0, 77, 0
2, 76992, Note_on_c, 0, 69, 96
2, 77040, Note_on_c, 0, 69, 0
2, 77040, Note_on_c, 0, 70, 80
2, 77055, Note_on_c, 0, 70, 0
2, 77056, Note_on_c, 0, 69, 80
2, 77071, Note_on_c, 0, 69, 0
2, 77072, Note_on_c, 0, 67, 80
2, 77087, Note_on_c, 0, 67, 0
2, 77088, Note_on_c, 0, 69, 80
2, 77133, Note_on_c, 0, 69, 0
2, 77136, Note_on_c, 0, 74, 80
2, 77156, Note_on_c, 0, 74, 0
2, 77184, Note_on_c, 0, 65, 96
2, 77232, Note_on_c, 0, 65, 0
2, 77232, Note_on_c, 0, 67, 80
2, 77247, Note_on_c, 0, 67, 0
2, 77248, Note_on_c, 0, 65, 80
2, 77263, Note_on_c, 0, 65, 0
2, 77264, Note_on_c, 0, 64, 80
2, 77279, Note_on_c, 0, 64, 0
2, 77280, Note_on_c, 0, 65, 80
2, 77325, Note_on_c, 0, 65, 0
2, 77328, Note_on_c, 0, 69, 80
2, 77373, Note_on_c, 0, 69, 0
2, 77376, Note_on_c, 0, 69, 96
2, 77424, Note_on_c, 0, 69, 0
2, 77424, Note_on_c, 0, 62, 80
2, 77469, Note_on_c, 0, 62, 0
2, 77472, Note_on_c, 0, 70, 80
2, 77517, Note_on_c, 0, 70, 0
2, 77520, Note_on_c, 0, 69, 80
2, 77565, Note_on_c, 0, 69, 0
2, 77568, Note_on_c, 0, 67, 80
2, 77568, Note_on_c, 0, 64, 80
2, 77613, Note_on_c, 0, 67, 0
2, 77613, Note_on_c, 0, 64, 0
2, 77616, Note_on_c, 0, 65, 80
2, 77616, Note_on_c, 0, 62, 80
2, 77661, Note_on_c, 0, 65, 0
2, 77661, Note_on_c, 0, 62, 0
2, 77664, Note_on_c, 0, 64, 81
2, 77664, Note_on_c, 0, 61, 81
2, 77709, Note_on_c, 0, 64, 0
2, 77709, Note_on_c, 0, 61, 0
2, 77712, Note_on_c, 0, 62, 82
2, 77712, Note_on_c, 0, 58, 82
2, 77757, Note_on_c, 0, 62, 0
2, 77757, Note_on_c, 0, 58, 0
2, 77760, Note_on_c, 0, 61, 83
2, 77760, Note_on_c, 0, 57, 83
2, 77805, Note_on_c, 0, 61, 0
2, 77805, Note_on_c, 0, 57, 0
2, 77808, Note_on_c, 0, 58, 83
2, 77808, Note_on_c, 0, 55, 83
2, 77853, Note_on_c, 0, 58, 0
2, 77853, Note_on_c, 0, 55, 0
2, 77856, Note_on_c, 0, 57, 84
2, 77856, Note_on_c, 0, 53, 84
2, 77901, Note_on_c, 0, 57, 0
2, 77901, Note_on_c, 0, 53, 0
2, 77904, Note_on_c, 0, 55, 85
2, 77904, Note_on_c, 0, 52, 85
2, 77949, Note_on_c, 0, 55, 0
2, 77949, Note_on_c, 0, 52, 0
2, 77952, Note_on_c, 0, 53, 86
2, 77952, Note_on_c, 0, 50, 86
2, 77991, Note_on_c, 0, 53, 0
2, 77991, Note_on_c, 0, 50, 0
2, 78144, Note_on_c, 0, 65, 86
2, 78144, Note_on_c, 0, 62, 86
2, 78144, Note_on_c, 0, 59, 86
2, 78183, Note_on_c, 0, 65, 0
2, 78183, Note_on_c, 0, 62, 0
2, 78183, Note_on_c, 0, 59, 0
2, 78336, Note_on_c, 0, 64, 86
2, 78336, Note_on_c, 0, 62, 86
2, 78375, Note_on_c, 0, 64, 0
2, 78375, Note_on_c, 0, 62, 0
2, 78528, Note_on_c, 0, 69, 86
2, 78528, Note_on_c, 0, 64, 86
2, 78528, Note_on_c, 0, 61, 86
2, 78617, Note_on_c, 0, 69, 0
2, 78617, Note_on_c, 0, 64, 0
2, 78617, Note_on_c, 0, 61, 0
2, 78768, Note_on_c, 0, 61, 75
2, 78813, Note_on_c, 0, 61, 0
2, 78816, Note_on_c, 0, 62, 74
2, 78861, Note_on_c, 0, 62, 0
2, 78864, Note_on_c, 0, 61, 73
2, 78909, Note_on_c, 0, 61, 0
2, 78912, Note_on_c, 0, 62, 73
2, 78957, Note_on_c, 0, 62, 0
2, 78960, Note_on_c, 0, 64, 72
2, 78960, Note_on_c, 0, 61, 72
2, 79005, Note_on_c, 0, 64, 0
2, 79005, Note_on_c, 0, 61, 0
2, 79008, Note_on_c, 0, 65, 72
2, 79008, Note_on_c, 0, 62, 72
2, 79053, Note_on_c, 0, 65, 0
2, 79053, Note_on_c, 0, 62, 0
2, 79056, Note_on_c, 0, 64, 71
2, 79056, Note_on_c, 0, 61, 71
2, 79101, Note_on_c, 0, 64, 0
2, 79101, Note_on_c, 0, 61, 0
2, 79104, Note_on_c, 0, 65, 71
2, 79104, Note_on_c, 0, 62, 71
2, 79149, Note_on_c, 0, 65, 0
2, 79149, Note_on_c, 0, 62, 0
2, 79152, Note_on_c, 0, 73, 70
2, 79152, Note_on_c, 0, 64, 70
2, 79197, Note_on_c, 0, 73, 0
2, 79197, Note_on_c, 0, 64, 0
2, 79200, Note_on_c, 0, 74, 70
2, 79200, Note_on_c, 0, 65, 70
2, 79245, Note_on_c, 0, 74, 0
2, 79245, Note_on_c, 0, 65, 0
2, 79248, Note_on_c, 0, 73, 69
2, 79248, Note_on_c, 0, 64, 69
2, 79293, Note_on_c, 0, 73, 0
2, 79293, Note_on_c, 0, 64, 0
2, 79296, Note_on_c, 0, 74, 69
2, 79296, Note_on_c, 0, 65, 69
2, 79341, Note_on_c, 0, 74, 0
2, 79341, Note_on_c, 0, 65, 0
2, 79344, Note_on_c, 0, 76, 68
2, 79344, Note_on_c, 0, 73, 68
2, 79389, Note_on_c, 0, 76, 0
2, 79389, Note_on_c, 0, 73, 0
2, 79392, Note_on_c, 0, 77, 68
2, 79392, Note_on_c, 0, 74, 68
2, 79437, Note_on_c, 0, 77, 0
2, 79437, Note_on_c, 0, 74, 0
2, 79440, Note_on_c, 0, 76, 67
2, 79440, Note_on_c, 0, 73, 67
2, 79485, Note_on_c, 0, 76, 0
2, 79485, Note_on_c, 0, 73, 0
2, 79488, Note_on_c, 0, 77, 67
2, 79488, Note_on_c, 0, 74, 67
2, 79533, Note_on_c, 0, 77, 0
2, 79533, Note_on_c, 0, 74, 0
2, 79536, Note_on_c, 0, 85, 66
2, 79536, Note_on_c, 0, 76, 66
2, 79581, Note_on_c, 0, 85, 0
2, 79581, Note_on_c, 0, 76, 0
2, 79584, Note_on_c, 0, 86, 66
2, 79584, Note_on_c, 0, 77, 66
2, 79629, Note_on_c, 0, 86, 0
2, 79629, Note_on_c, 0, 77, 0
2, 79632, Note_on_c, 0, 85, 65
2, 79632, Note_on_c, 0, 76, 65
2, 79677, Note_on_c, 0, 85, 0
2, 79677, Note_on_c, 0, 76, 0
2, 79680, Note_on_c, 0, 86, 65
2, 79680, Note_on_c, 0, 77, 65
2, 79769, Note_on_c, 0, 86, 0
2, 79769, Note_on_c, 0, 77, 0
2, 79824, Note_on_c, 0, 82, 64
2, 79844, Note_on_c, 0, 82, 0
2, 79872, Note_on_c, 0, 82, 64
2, 79872, Note_on_c, 0, 79, 64
2, 79872, Note_on_c, 0, 76, 64
2, 79872, Note_on_c, 0, 73, 64
2, 80160, Note_on_c, 0, 82, 0
2, 80160, Note_on_c, 0, 79, 0
2, 80160, Note_on_c, 0, 76, 0
2, 80160, Note_on_c, 0, 73, 0
2, 80160, Note_on_c, 0, 81, 64
2, 80160, Note_on_c, 0, 77, 64
2, 80160, Note_on_c, 0, 74, 64
2, 80521, Note_on_c, 0, 81, 0
2, 80521, Note_on_c, 0, 77, 0
2, 80521, Note_on_c, 0, 74, 0
2, 80640, Note_on_c, 0, 74, 0
2, 80817, Note_on_c, 0, 74, 0
2, 80832, End_track
3, 0, Start_track
3, 0, Program_c, 0, 0
3, 0, Control_c, 0, 7, 127
3, 0, Control_c, 0, 10, 64
3, 31680, Note_on_c, 0, 70, 64
3, 31857, Note_on_c, 0, 70, 0
3, 31872, Note_on_c, 0, 70, 64
3, 31961, Note_on_c, 0, 70, 0
3, 32832, Note_on_c, 0, 72, 64
3, 33009, Note_on_c, 0, 72, 0
3, 33024, Note_on_c, 0, 64, 64
3, 33113, Note_on_c, 0, 64, 0
3, 33120, Note_on_c, 0, 65, 64
3, 33209, Note_on_c, 0, 65, 0
3, 33216, Note_on_c, 0, 73, 64
3, 33349, Note_on_c, 0, 73, 0
3, 33360, Note_on_c, 0, 70, 64
3, 33405, Note_on_c, 0, 70, 0
3, 33408, Note_on_c, 0, 72, 64
3, 33497, Note_on_c, 0, 72, 0
3, 33600, Note_on_c, 0, 70, 75
3, 33733, Note_on_c, 0, 70, 0
3, 33744, Note_on_c, 0, 67, 76
3, 33789, Note_on_c, 0, 67, 0
3, 33792, Note_on_c, 0, 70, 77
3, 33837, Note_on_c, 0, 70, 0
3, 33840, Note_on_c, 0, 68, 78
3, 33885, Note_on_c, 0, 68, 0
3, 33888, Note_on_c, 0, 67, 78
3, 33933, Note_on_c, 0, 67, 0
3, 33936, Note_on_c, 0, 65, 79
3, 33981, Note_on_c, 0, 65, 0
3, 34368, Note_on_c, 0, 72, 75
3, 34545, Note_on_c, 0, 72, 0
3, 34560, Note_on_c, 0, 66, 75
3, 34649, Note_on_c, 0, 66, 0
3, 34656, Note_on_c, 0, 67, 75
3, 34745, Note_on_c, 0, 67, 0
3, 34752, Note_on_c, 0, 75, 75
3, 34885, Note_on_c, 0, 75, 0
3, 34896, Note_on_c, 0, 72, 75
3, 34941, Note_on_c, 0, 72, 0
3, 34944, Note_on_c, 0, 75, 75
3, 35033, Note_on_c, 0, 75, 0
3, 35136, Note_on_c, 0, 72, 75
3, 35269, Note_on_c, 0, 72, 0
3, 35280, Note_on_c, 0, 69, 76
3, 35325, Note_on_c, 0, 69, 0
3, 35328, Note_on_c, 0, 72, 77
3, 35373, Note_on_c, 0, 72, 0
3, 35376, Note_on_c, 0, 70, 78
3, 35421, Note_on_c, 0, 70, 0
3, 35424, Note_on_c, 0, 69, 78
3, 35469, Note_on_c, 0, 69, 0
3, 35472, Note_on_c, 0, 67, 79
3, 35517, Note_on_c, 0, 67, 0
3, 35520, Note_on_c, 0, 65, 80
3, 35565, Note_on_c, 0, 65, 0
3, 57696, Note_on_c, 0, 70, 64
3, 57873, Note_on_c, 0, 70, 0
3, 57888, Note_on_c, 0, 70, 64
3, 57977, Note_on_c, 0, 70, 0
3, 58848, Note_on_c, 0, 72, 64
3, 59025, Note_on_c, 0, 72, 0
3, 59040, Note_on_c, 0, 64, 64
3, 59129, Note_on_c, 0, 64, 0
3, 59136, Note_on_c, 0, 65, 64
3, 59225, Note_on_c, 0, 65, 0
3, 59232, Note_on_c, 0, 73, 64
3, 59365, Note_on_c, 0, 73, 0
3, 59376, Note_on_c, 0, 70, 64
3, 59421, Note_on_c, 0, 70, 0
3, 59424, Note_on_c, 0, 72, 64
3, 59513, Note_on_c, 0, 72, 0
3, 59616, Note_on_c, 0, 70, 75
3, 59749, Note_on_c, 0, 70, 0
3, 59760, Note_on_c, 0, 67, 76
3, 59805, Note_on_c, 0, 67, 0
3, 59808, Note_on_c, 0, 70, 77
3, 59853, Note_on_c, 0, 70, 0
3, 59856, Note_on_c, 0, 68, 78
3, 59901, Note_on_c, 0, 68, 0
3, 59904, Note_on_c, 0, 67, 78
3, 59949, Note_on_c, 0, 67, 0
3, 59952, Note_on_c, 0, 65, 79
3, 59997, Note_on_c, 0, 65, 0
3, 60384, Note_on_c, 0, 72, 75
3, 60561, Note_on_c, 0, 72, 0
3, 60576, Note_on_c, 0, 66, 75
3, 60665, Note_on_c, 0, 66, 0
3, 60672, Note_on_c, 0, 67, 75
3, 60761, Note_on_c, 0, 67, 0
3, 60768, Note_on_c, 0, 75, 75
3, 60901, Note_on_c, 0, 75, 0
3, 60912, Note_on_c, 0, 72, 75
3, 60957, Note_on_c, 0, 72, 0
3, 60960, Note_on_c, 0, 75, 75
3, 61049, Note_on_c, 0, 75, 0
3, 61152, Note_on_c, 0, 72, 75
3, 61285, Note_on_c, 0, 72, 0
3, 61296, Note_on_c, 0, 69, 76
3, 61341, Note_on_c, 0, 69, 0
3, 61344, Note_on_c, 0, 72, 77
3, 61389, Note_on_c, 0, 72, 0
3, 61392, Note_on_c, 0, 70, 78
3, 61437, Note_on_c, 0, 70, 0
3, 61440, Note_on_c, 0, 69, 78
3, 61485, Note_on_c, 0, 69, 0
3, 61488, Note_on_c, 0, 67, 79
3, 61533, Note_on_c, 0, 67, 0
3, 61536, Note_on_c, 0, 65, 80
3, 61581, Note_on_c, 0, 65, 0
3, 80640, End_track
4, 0, Start_track
4, 0, Program_c, 1, 0
4, 0, Control_c, 1, 7, 127
4, 0, Control_c, 1, 10, 64
4, 96, Note_on_c, 1, 50, 75
4, 185, Note_on_c, 1, 50, 0
4, 192, Note_on_c, 1, 52, 75
4, 281, Note_on_c, 1, 52, 0
4, 288, Note_on_c, 1, 53, 75
4, 377, Note_on_c, 1, 53, 0
4, 384, Note_on_c, 1, 55, 75
4, 473, Note_on_c, 1, 55, 0
4, 480, Note_on_c, 1, 52, 75
4, 569, Note_on_c, 1, 52, 0
4, 576, Note_on_c, 1, 53, 75
4, 665, Note_on_c, 1, 53, 0
4, 672, Note_on_c, 1, 41, 75
4, 761, Note_on_c, 1, 41, 0
4, 768, Note_on_c, 1, 52, 75
4, 857, Note_on_c, 1, 52, 0
4, 864, Note_on_c, 1, 49, 75
4, 953, Note_on_c, 1, 49, 0
4, 960, Note_on_c, 1, 50, 75
4, 1049, Note_on_c, 1, 50, 0
4, 1056, Note_on_c, 1, 55, 75
4, 1145, Note_on_c, 1, 55, 0
4, 1152, Note_on_c, 1, 57, 75
4, 1241, Note_on_c, 1, 57, 0
4, 1248, Note_on_c, 1, 52, 75
4, 1337, Note_on_c, 1, 52, 0
4, 1344, Note_on_c, 1, 45, 75
4, 1433, Note_on_c, 1, 45, 0
4, 1536, Note_on_c, 1, 76, 64
4, 1536, Note_on_c, 1, 73, 64
4, 1728, Note_on_c, 1, 76, 0
4, 1728, Note_on_c, 1, 73, 0
4, 1728, Note_on_c, 1, 77, 64
4, 1728, Note_on_c, 1, 74, 64
4, 1767, Note_on_c, 1, 77, 0
4, 1767, Note_on_c, 1, 74, 0
4, 1920, Note_on_c, 1, 79, 64
4, 1920, Note_on_c, 1, 70, 64
4, 2112, Note_on_c, 1, 79, 0
4, 2112, Note_on_c, 1, 70, 0
4, 2112, Note_on_c, 1, 77, 64
4, 2112, Note_on_c, 1, 69, 64
4, 2151, Note_on_c, 1, 77, 0
4, 2151, Note_on_c, 1, 69, 0
4, 2304, Note_on_c, 1, 70, 64
4, 2304, Note_on_c, 1, 67, 64
4, 2343, Note_on_c, 1, 70, 0
4, 2343, Note_on_c, 1, 67, 0
4, 2496, Note_on_c, 1, 69, 64
4, 2535, Note_on_c, 1, 69, 0
4, 2688, Note_on_c, 1, 50, 64
4, 2718, Note_on_c, 1, 50, 0
4, 2720, Note_on_c, 1, 53, 64
4, 2750, Note_on_c, 1, 53, 0
4, 2752, Note_on_c, 1, 57, 64
4, 2782, Note_on_c, 1, 57, 0
4, 2784, Note_on_c, 1, 50, 64
4, 2814, Note_on_c, 1, 50, 0
4, 2816, Note_on_c, 1, 53, 64
4, 2846, Note_on_c, 1, 53, 0
4, 2848, Note_on_c, 1, 57, 64
4, 2878, Note_on_c, 1, 57, 0
4, 2880, Note_on_c, 1, 50, 64
4, 2910, Note_on_c, 1, 50, 0
4, 2912, Note_on_c, 1, 53, 64
4, 2942, Note_on_c, 1, 53, 0
4, 2944, Note_on_c, 1, 57, 64
4, 2974, Note_on_c, 1, 57, 0
4, 2976, Note_on_c, 1, 50, 64
4, 3006, Note_on_c, 1, 50, 0
4, 3008, Note_on_c, 1, 53, 64
4, 3038, Note_on_c, 1, 53, 0
4, 3040, Note_on_c, 1, 57, 64
4, 3070, Note_on_c, 1, 57, 0
4, 3072, Note_on_c, 1, 50, 64
4, 3102, Note_on_c, 1, 50, 0
4, 3104, Note_on_c, 1, 55, 64
4, 3134, Note_on_c, 1, 55, 0
4, 3136, Note_on_c, 1, 58, 64
4, 3166, Note_on_c, 1, 58, 0
4, 3168, Note_on_c, 1, 50, 64
4, 3198, Note_on_c, 1, 50, 0
4, 3200, Note_on_c, 1, 55, 64
4, 3230, Note_on_c, 1, 55, 0
4, 3232, Note_on_c, 1, 58, 64
4, 3262, Note_on_c, 1, 58, 0
4, 3264, Note_on_c, 1, 50, 64
4, 3294, Note_on_c, 1, 50, 0
4, 3296, Note_on_c, 1, 53, 64
4, 3326, Note_on_c, 1, 53, 0
4, 3328, Note_on_c, 1, 57, 64
4, 3358, Note_on_c, 1, 57, 0
4, 3360, Note_on_c, 1, 50, 64
4, 3390, Note_on_c, 1, 50, 0
4, 3392, Note_on_c, 1, 53, 64
4, 3422, Note_on_c, 1, 53, 0
4, 3424, Note_on_c, 1, 57, 64
4, 3454, Note_on_c, 1, 57, 0
4, 3456, Note_on_c, 1, 49, 64
4, 3486, Note_on_c, 1, 49, 0
4, 3488, Note_on_c, 1, 52, 64
4, 3518, Note_on_c, 1, 52, 0
4, 3520, Note_on_c, 1, 57, 64
4, 3550, Note_on_c, 1, 57, 0
4, 3552, Note_on_c, 1, 49, 64
4, 3582, Note_on_c, 1, 49, 0
4, 3584, Note_on_c, 1, 52, 64
4, 3614, Note_on_c, 1, 52, 0
4, 3616, Note_on_c, 1, 57, 64
4, 3646, Note_on_c, 1, 57, 0
4, 3648, Note_on_c, 1, 50, 75
4, 3737, Note_on_c, 1, 50, 0
4, 3744, Note_on_c, 1, 56, 75
4, 3833, Note_on_c, 1, 56, 0
4, 3840, Note_on_c, 1, 57, 75
4, 3885, Note_on_c, 1, 57, 0
4, 3888, Note_on_c, 1, 45, 75
4, 3933, Note_on_c, 1, 45, 0
4, 3936, Note_on_c, 1, 57, 75
4, 3956, Note_on_c, 1, 57, 0
4, 3984, Note_on_c, 1, 57, 75
4, 4004, Note_on_c, 1, 57, 0
4, 4032, Note_on_c, 1, 57, 91
4, 4080, Note_on_c, 1, 57, 0
4, 4080, Note_on_c, 1, 55, 75
4, 4125, Note_on_c, 1, 55, 0
4, 4128, Note_on_c, 1, 53, 75
4, 4173, Note_on_c, 1, 53, 0
4, 4176, Note_on_c, 1, 52, 75
4, 4221, Note_on_c, 1, 52, 0
4, 4224, Note_on_c, 1, 50, 75
4, 4401, Note_on_c, 1, 50, 0
4, 4416, Note_on_c, 1, 52, 77
4, 4505, Note_on_c, 1, 52, 0
4, 4512, Note_on_c, 1, 53, 78
4, 4601, Note_on_c, 1, 53, 0
4, 4608, Control_c, 1, 64, 127
4, 4608, Note_on_c, 1, 55, 109
4, 4608, Note_on_c, 1, 51, 109
4, 4608, Note_on_c, 1, 46, 109
4, 4608, Note_on_c, 1, 43, 109
4, 4992, Note_on_c, 1, 55, 0
4, 4992, Note_on_c, 1, 51, 0
4, 4992, Note_on_c, 1, 46, 0
4, 4992, Note_on_c, 1, 43, 0
4, 5088, Control_c, 1, 64, 0
4, 5088, Note_on_c, 1, 44, 64
4, 5182, Note_on_c, 1, 44, 0
4, 5520, Note_on_c, 1, 61, 64
4, 5568, Note_on_c, 1, 61, 0
4, 5568, Note_on_c, 1, 62, 64
4, 5613, Note_on_c, 1, 62, 0
4, 5616, Note_on_c, 1, 57, 64
4, 5661, Note_on_c, 1, 57, 0
4, 5664, Note_on_c, 1, 50, 64
4, 5753, Note_on_c, 1, 50, 0
4, 5856, Note_on_c, 1, 41, 96
4, 5865, Note_on_c, 1, 45, 96
4, 5874, Note_on_c, 1, 48, 96
4, 5883, Note_on_c, 1, 53, 96
4, 6085, Note_on_c, 1, 53, 0
4, 6085, Note_on_c, 1, 48, 0
4, 6085, Note_on_c, 1, 45, 0
4, 6085, Note_on_c, 1, 41, 0
4, 6432, Note_on_c, 1, 54, 80
4, 6432, Note_on_c, 1, 42, 80
4, 6624, Note_on_c, 1, 54, 0
4, 6624, Note_on_c, 1, 42, 0
4, 6624, Note_on_c, 1, 55, 80
4, 6624, Note_on_c, 1, 43, 80
4, 6663, Note_on_c, 1, 55, 0
4, 6663, Note_on_c, 1, 43, 0
4, 7008, Note_on_c, 1, 48, 80
4, 7008, Note_on_c, 1, 40, 80
4, 7008, Note_on_c, 1, 36, 80
4, 7185, Note_on_c, 1, 48, 0
4, 7185, Note_on_c, 1, 40, 0
4, 7185, Note_on_c, 1, 36, 0
4, 7392, Note_on_c, 1, 57, 80
4, 7392, Note_on_c, 1, 53, 80
4, 7392, Note_on_c, 1, 48, 80
4, 7392, Note_on_c, 1, 45, 80
4, 7569, Note_on_c, 1, 57, 0
4, 7569, Note_on_c, 1, 53, 0
4, 7569, Note_on_c, 1, 48, 0
4, 7569, Note_on_c, 1, 45, 0
4, 7584, Note_on_c, 1, 55, 80
4, 7584, Note_on_c, 1, 52, 80
4, 7584, Note_on_c, 1, 46, 80
4, 7761, Note_on_c, 1, 55, 0
4, 7761, Note_on_c, 1, 52, 0
4, 7761, Note_on_c, 1, 46, 0
4, 7776, Note_on_c, 1, 57, 80
4, 7776, Note_on_c, 1, 53, 80
4, 7776, Note_on_c, 1, 48, 80
4, 7776, Note_on_c, 1, 45, 80
4, 7953, Note_on_c, 1, 57, 0
4, 7953, Note_on_c, 1, 53, 0
4, 7953, Note_on_c, 1, 48, 0
4, 7953, Note_on_c, 1, 45, 0
4, 7968, Note_on_c, 1, 55, 80
4, 7968, Note_on_c, 1, 52, 80
4, 7968, Note_on_c, 1, 48, 80
4, 7968, Note_on_c, 1, 43, 80
4, 8145, Note_on_c, 1, 55, 0
4, 8145, Note_on_c, 1, 52, 0
4, 8145, Note_on_c, 1, 48, 0
4, 8145, Note_on_c, 1, 43, 0
4, 8160, Note_on_c, 1, 45, 80
4, 8190, Note_on_c, 1, 45, 0
4, 8192, Note_on_c, 1, 48, 80
4, 8222, Note_on_c, 1, 48, 0
4, 8224, Note_on_c, 1, 53, 80
4, 8254, Note_on_c, 1, 53, 0
4, 8256, Note_on_c, 1, 45, 80
4, 8286, Note_on_c, 1, 45, 0
4, 8288, Note_on_c, 1, 48, 80
4, 8318, Note_on_c, 1, 48, 0
4, 8320, Note_on_c, 1, 53, 80
4, 8350, Note_on_c, 1, 53, 0
4, 8352, Note_on_c, 1, 43, 80
4, 8382, Note_on_c, 1, 43, 0
4, 8384, Note_on_c, 1, 48, 80
4, 8414, Note_on_c, 1, 48, 0
4, 8416, Note_on_c, 1, 52, 80
4, 8446, Note_on_c, 1, 52, 0
4, 8448, Note_on_c, 1, 43, 80
4, 8478, Note_on_c, 1, 43, 0
4, 8480, Note_on_c, 1, 48, 80
4, 8510, Note_on_c, 1, 48, 0
4, 8512, Note_on_c, 1, 52, 80
4, 8542, Note_on_c, 1, 52, 0
4, 8544, Note_on_c, 1, 41, 80
4, 8574, Note_on_c, 1, 41, 0
4, 8576, Note_on_c, 1, 45, 80
4, 8606, Note_on_c, 1, 45, 0
4, 8608, Note_on_c, 1, 48, 80
4, 8638, Note_on_c, 1, 48, 0
4, 8640, Note_on_c, 1, 41, 80
4, 8670, Note_on_c, 1, 41, 0
4, 8672, Note_on_c, 1, 45, 80
4, 8702, Note_on_c, 1, 45, 0
4, 8704, Note_on_c, 1, 48, 80
4, 8734, Note_on_c, 1, 48, 0
4, 8736, Note_on_c, 1, 36, 80
4, 8766, Note_on_c, 1, 36, 0
4, 8768, Note_on_c, 1, 43, 80
4, 8798, Note_on_c, 1, 43, 0
4, 8800, Note_on_c, 1, 48, 80
4, 8830, Note_on_c, 1, 48, 0
4, 8832, Note_on_c, 1, 36, 80
4, 8862, Note_on_c, 1, 36, 0
4, 8864, Note_on_c, 1, 43, 80
4, 8894, Note_on_c, 1, 43, 0
4, 8896, Note_on_c, 1, 48, 80
4, 8926, Note_on_c, 1, 48, 0
4, 8928, Note_on_c, 1, 50, 80
4, 8928, Note_on_c, 1, 38, 80
4, 9120, Note_on_c, 1, 50, 0
4, 9120, Note_on_c, 1, 38, 0
4, 9120, Note_on_c, 1, 48, 76
4, 9120, Note_on_c, 1, 36, 76
4, 9209, Note_on_c, 1, 48, 0
4, 9209, Note_on_c, 1, 36, 0
4, 9504, Note_on_c, 1, 58, 64
4, 9593, Note_on_c, 1, 58, 0
4, 9888, Note_on_c, 1, 62, 64
4, 9888, Note_on_c, 1, 60, 64
4, 9977, Note_on_c, 1, 62, 0
4, 9977, Note_on_c, 1, 60, 0
4, 10272, Note_on_c, 1, 55, 64
4, 10320, Note_on_c, 1, 55, 0
4, 10320, Note_on_c, 1, 63, 64
4, 10365, Note_on_c, 1, 63, 0
4, 10368, Note_on_c, 1, 54, 64
4, 10416, Note_on_c, 1, 54, 0
4, 10416, Note_on_c, 1, 62, 64
4, 10461, Note_on_c, 1, 62, 0
4, 10656, Note_on_c, 1, 60, 64
4, 10656, Note_on_c, 1, 58, 64
4, 10745, Note_on_c, 1, 60, 0
4, 10745, Note_on_c, 1, 58, 0
4, 10752, Note_on_c, 1, 60, 64
4, 10752, Note_on_c, 1, 57, 64
4, 10841, Note_on_c, 1, 60, 0
4, 10841, Note_on_c, 1, 57, 0
4, 10848, Note_on_c, 1, 58, 64
4, 10848, Note_on_c, 1, 55, 64
4, 10937, Note_on_c, 1, 58, 0
4, 10937, Note_on_c, 1, 55, 0
4, 11280, Note_on_c, 1, 67, 64
4, 11325, Note_on_c, 1, 67, 0
4, 11328, Note_on_c, 1, 64, 64
4, 11373, Note_on_c, 1, 64, 0
4, 11376, Note_on_c, 1, 67, 64
4, 11421, Note_on_c, 1, 67, 0
4, 11472, Note_on_c, 1, 67, 64
4, 11517, Note_on_c, 1, 67, 0
4, 11520, Note_on_c, 1, 64, 64
4, 11565, Note_on_c, 1, 64, 0
4, 11568, Note_on_c, 1, 67, 64
4, 11613, Note_on_c, 1, 67, 0
4, 11664, Note_on_c, 1, 67, 64
4, 11709, Note_on_c, 1, 67, 0
4, 11712, Note_on_c, 1, 64, 64
4, 11757, Note_on_c, 1, 64, 0
4, 11760, Note_on_c, 1, 67, 64
4, 11805, Note_on_c, 1, 67, 0
4, 11808, Note_on_c, 1, 65, 64
4, 11855, Note_on_c, 1, 65, 0
4, 11856, Note_on_c, 1, 65, 64
4, 11901, Note_on_c, 1, 65, 0
4, 11904, Note_on_c, 1, 64, 64
4, 11949, Note_on_c, 1, 64, 0
4, 11952, Note_on_c, 1, 65, 64
4, 11997, Note_on_c, 1, 65, 0
4, 12048, Note_on_c, 1, 69, 64
4, 12093, Note_on_c, 1, 69, 0
4, 12096, Note_on_c, 1, 66, 64
4, 12141, Note_on_c, 1, 66, 0
4, 12144, Note_on_c, 1, 69, 64
4, 12189, Note_on_c, 1, 69, 0
4, 12240, Note_on_c, 1, 69, 64
4, 12285, Note_on_c, 1, 69, 0
4, 12288, Note_on_c, 1, 66, 64
4, 12333, Note_on_c, 1, 66, 0
4, 12336, Note_on_c, 1, 69, 64
4, 12381, Note_on_c, 1, 69, 0
4, 12432, Note_on_c, 1, 71, 64
4, 12477, Note_on_c, 1, 71, 0
4, 12480, Note_on_c, 1, 68, 64
4, 12525, Note_on_c, 1, 68, 0
4, 12528, Note_on_c, 1, 71, 64
4, 12573, Note_on_c, 1, 71, 0
4, 12576, Note_on_c, 1, 69, 64
4, 12665, Note_on_c, 1, 69, 0
4, 12912, Note_on_c, 1, 60, 80
4, 12932, Note_on_c, 1, 60, 0
4, 12960, Note_on_c, 1, 53, 96
4, 13008, Note_on_c, 1, 53, 0
4, 13008, Note_on_c, 1, 55, 80
4, 13023, Note_on_c, 1, 55, 0
4, 13024, Note_on_c, 1, 53, 80
4, 13039, Note_on_c, 1, 53, 0
4, 13040, Note_on_c, 1, 52, 80
4, 13055, Note_on_c, 1, 52, 0
4, 13056, Note_on_c, 1, 53, 80
4, 13101, Note_on_c, 1, 53, 0
4, 13104, Note_on_c, 1, 57, 80
4, 13124, Note_on_c, 1, 57, 0
4, 13152, Note_on_c, 1, 48, 96
4, 13200, Note_on_c, 1, 48, 0
4, 13200, Note_on_c, 1, 50, 80
4, 13215, Note_on_c, 1, 50, 0
4, 13216, Note_on_c, 1, 48, 80
4, 13231, Note_on_c, 1, 48, 0
4, 13232, Note_on_c, 1, 47, 80
4, 13247, Note_on_c, 1, 47, 0
4, 13248, Note_on_c, 1, 48, 80
4, 13293, Note_on_c, 1, 48, 0
4, 13296, Note_on_c, 1, 53, 80
4, 13316, Note_on_c, 1, 53, 0
4, 13344, Note_on_c, 1, 45, 96
4, 13392, Note_on_c, 1, 45, 0
4, 13392, Note_on_c, 1, 46, 80
4, 13407, Note_on_c, 1, 46, 0
4, 13408, Note_on_c, 1, 45, 80
4, 13423, Note_on_c, 1, 45, 0
4, 13424, Note_on_c, 1, 43, 80
4, 13439, Note_on_c, 1, 43, 0
4, 13440, Note_on_c, 1, 45, 80
4, 13485, Note_on_c, 1, 45, 0
4, 13488, Note_on_c, 1, 48, 80
4, 13508, Note_on_c, 1, 48, 0
4, 13536, Note_on_c, 1, 41, 80
4, 13625, Note_on_c, 1, 41, 0
4, 13728, Note_on_c, 1, 48, 80
4, 13728, Note_on_c, 1, 36, 80
4, 13905, Note_on_c, 1, 48, 0
4, 13905, Note_on_c, 1, 36, 0
4, 13920, Note_on_c, 1, 53, 80
4, 13920, Note_on_c, 1, 41, 80
4, 14185, Note_on_c, 1, 53, 0
4, 14185, Note_on_c, 1, 41, 0
4, 14400, Note_on_c, 1, 50, 75
4, 14489, Note_on_c, 1, 50, 0
4, 14496, Note_on_c, 1, 52, 75
4, 14585, Note_on_c, 1, 52, 0
4, 14592, Note_on_c, 1, 53, 75
4, 14681, Note_on_c, 1, 53, 0
4, 14688, Note_on_c, 1, 55, 75
4, 14777, Note_on_c, 1, 55, 0
4, 14784, Note_on_c, 1, 52, 75
4, 14873, Note_on_c, 1, 52, 0
4, 14880, Note_on_c, 1, 53, 75
4, 14969, Note_on_c, 1, 53, 0
4, 14976, Note_on_c, 1, 41, 75
4, 15065, Note_on_c, 1, 41, 0
4, 15072, Note_on_c, 1, 52, 75
4, 15161, Note_on_c, 1, 52, 0
4, 15168, Note_on_c, 1, 49, 75
4, 15257, Note_on_c, 1, 49, 0
4, 15264, Note_on_c, 1, 50, 75
4, 15353, Note_on_c, 1, 50, 0
4, 15360, Note_on_c, 1, 55, 75
4, 15449, Note_on_c, 1, 55, 0
4, 15456, Note_on_c, 1, 57, 75
4, 15545, Note_on_c, 1, 57, 0
4, 15552, Note_on_c, 1, 52, 75
4, 15641, Note_on_c, 1, 52, 0
4, 15648, Note_on_c, 1, 45, 75
4, 15737, Note_on_c, 1, 45, 0
4, 15840, Note_on_c, 1, 76, 64
4, 15840, Note_on_c, 1, 73, 64
4, 16032, Note_on_c, 1, 76, 0
4, 16032, Note_on_c, 1, 73, 0
4, 16032, Note_on_c, 1, 77, 64
4, 16032, Note_on_c, 1, 74, 64
4, 16071, Note_on_c, 1, 77, 0
4, 16071, Note_on_c, 1, 74, 0
4, 16224, Note_on_c, 1, 79, 64
4, 16224, Note_on_c, 1, 70, 64
4, 16416, Note_on_c, 1, 79, 0
4, 16416, Note_on_c, 1, 70, 0
4, 16416, Note_on_c, 1, 77, 64
4, 16416, Note_on_c, 1, 69, 64
4, 16455, Note_on_c, 1, 77, 0
4, 16455, Note_on_c, 1, 69, 0
4, 16608, Note_on_c, 1, 70, 64
4, 16608, Note_on_c, 1, 67, 64
4, 16647, Note_on_c, 1, 70, 0
4, 16647, Note_on_c, 1, 67, 0
4, 16800, Note_on_c, 1, 69, 64
4, 16839, Note_on_c, 1, 69, 0
4, 16992, Note_on_c, 1, 50, 64
4, 17022, Note_on_c, 1, 50, 0
4, 17024, Note_on_c, 1, 53, 64
4, 17054, Note_on_c, 1, 53, 0
4, 17056, Note_on_c, 1, 57, 64
4, 17086, Note_on_c, 1, 57, 0
4, 17088, Note_on_c, 1, 50, 64
4, 17118, Note_on_c, 1, 50, 0
4, 17120, Note_on_c, 1, 53, 64
4, 17150, Note_on_c, 1, 53, 0
4, 17152, Note_on_c, 1, 57, 64
4, 17182, Note_on_c, 1, 57, 0
4, 17184, Note_on_c, 1, 50, 64
4, 17214, Note_on_c, 1, 50, 0
4, 17216, Note_on_c, 1, 53, 64
4, 17246, Note_on_c, 1, 53, 0
4, 17248, Note_on_c, 1, 57, 64
4, 17278, Note_on_c, 1, 57, 0
4, 17280, Note_on_c, 1, 50, 64
4, 17310, Note_on_c, 1, 50, 0
4, 17312, Note_on_c, 1, 53, 64
4, 17342, Note_on_c, 1, 53, 0
4, 17344, Note_on_c, 1, 57, 64
4, 17374, Note_on_c, 1, 57, 0
4, 17376, Note_on_c, 1, 50, 64
4, 17406, Note_on_c, 1, 50, 0
4, 17408, Note_on_c, 1, 55, 64
4, 17438, Note_on_c, 1, 55, 0
4, 17440, Note_on_c, 1, 58, 64
4, 17470, Note_on_c, 1, 58, 0
4, 17472, Note_on_c, 1, 50, 64
4, 17502, Note_on_c, 1, 50, 0
4, 17504, Note_on_c, 1, 55, 64
4, 17534, Note_on_c, 1, 55, 0
4, 17536, Note_on_c, 1, 58, 64
4, 17566, Note_on_c, 1, 58, 0
4, 17568, Note_on_c, 1, 50, 64
4, 17598, Note_on_c, 1, 50, 0
4, 17600, Note_on_c, 1, 53, 64
4, 17630, Note_on_c, 1, 53, 0
4, 17632, Note_on_c, 1, 57, 64
4, 17662, Note_on_c, 1, 57, 0
4, 17664, Note_on_c, 1, 50, 64
4, 17694, Note_on_c, 1, 50, 0
4, 17696, Note_on_c, 1, 53, 64
4, 17726, Note_on_c, 1, 53, 0
4, 17728, Note_on_c, 1, 57, 64
4, 17758, Note_on_c, 1, 57, 0
4, 17760, Note_on_c, 1, 49, 64
4, 17790, Note_on_c, 1, 49, 0
4, 17792, Note_on_c, 1, 52, 64
4, 17822, Note_on_c, 1, 52, 0
4, 17824, Note_on_c, 1, 57, 64
4, 17854, Note_on_c, 1, 57, 0
4, 17856, Note_on_c, 1, 49, 64
4, 17886, Note_on_c, 1, 49, 0
4, 17888, Note_on_c, 1, 52, 64
4, 17918, Note_on_c, 1, 52, 0
4, 17920, Note_on_c, 1, 57, 64
4, 17950, Note_on_c, 1, 57, 0
4, 17952, Note_on_c, 1, 50, 75
4, 18041, Note_on_c, 1, 50, 0
4, 18048, Note_on_c, 1, 56, 75
4, 18137, Note_on_c, 1, 56, 0
4, 18144, Note_on_c, 1, 57, 75
4, 18189, Note_on_c, 1, 57, 0
4, 18192, Note_on_c, 1, 45, 75
4, 18237, Note_on_c, 1, 45, 0
4, 18240, Note_on_c, 1, 57, 75
4, 18260, Note_on_c, 1, 57, 0
4, 18288, Note_on_c, 1, 57, 75
4, 18308, Note_on_c, 1, 57, 0
4, 18336, Note_on_c, 1, 57, 91
4, 18384, Note_on_c, 1, 57, 0
4, 18384, Note_on_c, 1, 55, 75
4, 18429, Note_on_c, 1, 55, 0
4, 18432, Note_on_c, 1, 53, 75
4, 18477, Note_on_c, 1, 53, 0
4, 18480, Note_on_c, 1, 52, 75
4, 18525, Note_on_c, 1, 52, 0
4, 18528, Note_on_c, 1, 50, 75
4, 18705, Note_on_c, 1, 50, 0
4, 18720, Note_on_c, 1, 52, 77
4, 18809, Note_on_c, 1, 52, 0
4, 18816, Note_on_c, 1, 53, 78
4, 18905, Note_on_c, 1, 53, 0
4, 18912, Control_c, 1, 64, 127
4, 18912, Note_on_c, 1, 55, 109
4, 18912, Note_on_c, 1, 51, 109
4, 18912, Note_on_c, 1, 46, 109
4, 18912, Note_on_c, 1, 43, 109
4, 19296, Note_on_c, 1, 55, 0
4, 19296, Note_on_c, 1, 51, 0
4, 19296, Note_on_c, 1, 46, 0
4, 19296, Note_on_c, 1, 43, 0
4, 19392, Control_c, 1, 64, 0
4, 19392, Note_on_c, 1, 44, 64
4, 19486, Note_on_c, 1, 44, 0
4, 19824, Note_on_c, 1, 61, 64
4, 19872, Note_on_c, 1, 61, 0
4, 19872, Note_on_c, 1, 62, 64
4, 19917, Note_on_c, 1, 62, 0
4, 19920, Note_on_c, 1, 57, 64
4, 19965, Note_on_c, 1, 57, 0
4, 19968, Note_on_c, 1, 50, 64
4, 20057, Note_on_c, 1, 50, 0
4, 20160, Note_on_c, 1, 41, 96
4, 20169, Note_on_c, 1, 45, 96
4, 20178, Note_on_c, 1, 48, 96
4, 20187, Note_on_c, 1, 53, 96
4, 20389, Note_on_c, 1, 53, 0
4, 20389, Note_on_c, 1, 48, 0
4, 20389, Note_on_c, 1, 45, 0
4, 20389, Note_on_c, 1, 41, 0
4, 20736, Note_on_c, 1, 54, 80
4, 20736, Note_on_c, 1, 42, 80
4, 20928, Note_on_c, 1, 54, 0
4, 20928, Note_on_c, 1, 42, 0
4, 20928, Note_on_c, 1, 55, 80
4, 20928, Note_on_c, 1, 43, 80
4, 20967, Note_on_c, 1, 55, 0
4, 20967, Note_on_c, 1, 43, 0
4, 21312, Note_on_c, 1, 48, 80
4, 21312, Note_on_c, 1, 40, 80
4, 21312, Note_on_c, 1, 36, 80
4, 21489, Note_on_c, 1, 48, 0
4, 21489, Note_on_c, 1, 40, 0
4, 21489, Note_on_c, 1, 36, 0
4, 21696, Note_on_c, 1, 57, 80
4, 21696, Note_on_c, 1, 53, 80
4, 21696, Note_on_c, 1, 48, 80
4, 21696, Note_on_c, 1, 45, 80
4, 21873, Note_on_c, 1, 57, 0
4, 21873, Note_on_c, 1, 53, 0
4, 21873, Note_on_c, 1, 48, 0
4, 21873, Note_on_c, 1, 45, 0
4, 21888, Note_on_c, 1, 55, 80
4, 21888, Note_on_c, 1, 52, 80
4, 21888, Note_on_c, 1, 46, 80
4, 22065, Note_on_c, 1, 55, 0
4, 22065, Note_on_c, 1, 52, 0
4, 22065, Note_on_c, 1, 46, 0
4, 22080, Note_on_c, 1, 57, 80
4, 22080, Note_on_c, 1, 53, 80
4, 22080, Note_on_c, 1, 48, 80
4, 22080, Note_on_c, 1, 45, 80
4, 22257, Note_on_c, 1, 57, 0
4, 22257, Note_on_c, 1, 53, 0
4, 22257, Note_on_c, 1, 48, 0
4, 22257, Note_on_c, 1, 45, 0
4, 22272, Note_on_c, 1, 55, 80
4, 22272, Note_on_c, 1, 52, 80
4, 22272, Note_on_c, 1, 48, 80
4, 22272, Note_on_c, 1, 43, 80
4, 22449, Note_on_c, 1, 55, 0
4, 22449, Note_on_c, 1, 52, 0
4, 22449, Note_on_c, 1, 48, 0
4, 22449, Note_on_c, 1, 43, 0
4, 22464, Note_on_c, 1, 45, 80
4, 22494, Note_on_c, 1, 45, 0
4, 22496, Note_on_c, 1, 48, 80
4, 22526, Note_on_c, 1, 48, 0
4, 22528, Note_on_c, 1, 53, 80
4, 22558, Note_on_c, 1, 53, 0
4, 22560, Note_on_c, 1, 45, 80
4, 22590, Note_on_c, 1, 45, 0
4, 22592, Note_on_c, 1, 48, 80
4, 22622, Note_on_c, 1, 48, 0
4, 22624, Note_on_c, 1, 53, 80
4, 22654, Note_on_c, 1, 53, 0
4, 22656, Note_on_c, 1, 43, 80
4, 22686, Note_on_c, 1, 43, 0
4, 22688, Note_on_c, 1, 48, 80
4, 22718, Note_on_c, 1, 48, 0
4, 22720, Note_on_c, 1, 52, 80
4, 22750, Note_on_c, 1, 52, 0
4, 22752, Note_on_c, 1, 43, 80
4, 22782, Note_on_c, 1, 43, 0
4, 22784, Note_on_c, 1, 48, 80
4, 22814, Note_on_c, 1, 48, 0
4, 22816, Note_on_c, 1, 52, 80
4, 22846, Note_on_c, 1, 52, 0
4, 22848, Note_on_c, 1, 41, 80
4, 22878, Note_on_c, 1, 41, 0
4, 22880, Note_on_c, 1, 45, 80
4, 22910, Note_on_c, 1, 45, 0
4, 22912, Note_on_c, 1, 48, 80
4, 22942, Note_on_c, 1, 48, 0
4, 22944, Note_on_c, 1, 41, 80
4, 22974, Note_on_c, 1, 41, 0
4, 22976, Note_on_c, 1, 45, 80
4, 23006, Note_on_c, 1, 45, 0
4, 23008, Note_on_c, 1, 48, 80
4, 23038, Note_on_c, 1, 48, 0
4, 23040, Note_on_c, 1, 36, 80
4, 23070, Note_on_c, 1, 36, 0
4, 23072, Note_on_c, 1, 43, 80
4, 23102, Note_on_c, 1, 43, 0
4, 23104, Note_on_c, 1, 48, 80
4, 23134, Note_on_c, 1, 48, 0
4, 23136, Note_on_c, 1, 36, 80
4, 23166, Note_on_c, 1, 36, 0
4, 23168, Note_on_c, 1, 43, 80
4, 23198, Note_on_c, 1, 43, 0
4, 23200, Note_on_c, 1, 48, 80
4, 23230, Note_on_c, 1, 48, 0
4, 23232, Note_on_c, 1, 50, 80
4, 23232, Note_on_c, 1, 38, 80
4, 23424, Note_on_c, 1, 50, 0
4, 23424, Note_on_c, 1, 38, 0
4, 23424, Note_on_c, 1, 48, 76
4, 23424, Note_on_c, 1, 36, 76
4, 23513, Note_on_c, 1, 48, 0
4, 23513, Note_on_c, 1, 36, 0
4, 23808, Note_on_c, 1, 58, 64
4, 23897, Note_on_c, 1, 58, 0
4, 24192, Note_on_c, 1, 62, 64
4, 24192, Note_on_c, 1, 60, 64
4, 24281, Note_on_c, 1, 62, 0
4, 24281, Note_on_c, 1, 60, 0
4, 24576, Note_on_c, 1, 55, 64
4, 24624, Note_on_c, 1, 55, 0
4, 24624, Note_on_c, 1, 63, 64
4, 24669, Note_on_c, 1, 63, 0
4, 24672, Note_on_c, 1, 54, 64
4, 24720, Note_on_c, 1, 54, 0
4, 24720, Note_on_c, 1, 62, 64
4, 24765, Note_on_c, 1, 62, 0
4, 24960, Note_on_c, 1, 60, 64
4, 24960, Note_on_c, 1, 58, 64
4, 25049, Note_on_c, 1, 60, 0
4, 25049, Note_on_c, 1, 58, 0
4, 25056, Note_on_c, 1, 60, 64
4, 25056, Note_on_c, 1, 57, 64
4, 25145, Note_on_c, 1, 60, 0
4, 25145, Note_on_c, 1, 57, 0
4, 25152, Note_on_c, 1, 58, 64
4, 25152, Note_on_c, 1, 55, 64
4, 25241, Note_on_c, 1, 58, 0
4, 25241, Note_on_c, 1, 55, 0
4, 25584, Note_on_c, 1, 67, 64
4, 25629, Note_on_c, 1, 67, 0
4, 25632, Note_on_c, 1, 64, 64
4, 25677, Note_on_c, 1, 64, 0
4, 25680, Note_on_c, 1, 67, 64
4, 25725, Note_on_c, 1, 67, 0
4, 25776, Note_on_c, 1, 67, 64
4, 25821, Note_on_c, 1, 67, 0
4, 25824, Note_on_c, 1, 64, 64
4, 25869, Note_on_c, 1, 64, 0
4, 25872, Note_on_c, 1, 67, 64
4, 25917, Note_on_c, 1, 67, 0
4, 25968, Note_on_c, 1, 67, 64
4, 26013, Note_on_c, 1, 67, 0
4, 26016, Note_on_c, 1, 64, 64
4, 26061, Note_on_c, 1, 64, 0
4, 26064, Note_on_c, 1, 67, 64
4, 26109, Note_on_c, 1, 67, 0
4, 26112, Note_on_c, 1, 65, 64
4, 26159, Note_on_c, 1, 65, 0
4, 26160, Note_on_c, 1, 65, 64
4, 26205, Note_on_c, 1, 65, 0
4, 26208, Note_on_c, 1, 64, 64
4, 26253, Note_on_c, 1, 64, 0
4, 26256, Note_on_c, 1, 65, 64
4, 26301, Note_on_c, 1, 65, 0
4, 26352, Note_on_c, 1, 69, 64
4, 26397, Note_on_c, 1, 69, 0
4, 26400, Note_on_c, 1, 66, 64
4, 26445, Note_on_c, 1, 66, 0
4, 26448, Note_on_c, 1, 69, 64
4, 26493, Note_on_c, 1, 69, 0
4, 26544, Note_on_c, 1, 69, 64
4, 26589, Note_on_c, 1, 69, 0
4, 26592, Note_on_c, 1, 66, 64
4, 26637, Note_on_c, 1, 66, 0
4, 26640, Note_on_c, 1, 69, 64
4, 26685, Note_on_c, 1, 69, 0
4, 26736, Note_on_c, 1, 71, 64
4, 26781, Note_on_c, 1, 71, 0
4, 26784, Note_on_c, 1, 68, 64
4, 26829, Note_on_c, 1, 68, 0
4, 26832, Note_on_c, 1, 71, 64
4, 26877, Note_on_c, 1, 71, 0
4, 26880, Note_on_c, 1, 69, 64
4, 26969, Note_on_c, 1, 69, 0
4, 27216, Note_on_c, 1, 60, 80
4, 27236, Note_on_c, 1, 60, 0
4, 27264, Note_on_c, 1, 53, 96
4, 27312, Note_on_c, 1, 53, 0
4, 27312, Note_on_c, 1, 55, 80
4, 27327, Note_on_c, 1, 55, 0
4, 27328, Note_on_c, 1, 53, 80
4, 27343, Note_on_c, 1, 53, 0
4, 27344, Note_on_c, 1, 52, 80
4, 27359, Note_on_c, 1, 52, 0
4, 27360, Note_on_c, 1, 53, 80
4, 27405, Note_on_c, 1, 53, 0
4, 27408, Note_on_c, 1, 57, 80
4, 27428, Note_on_c, 1, 57, 0
4, 27456, Note_on_c, 1, 48, 96
4, 27504, Note_on_c, 1, 48, 0
4, 27504, Note_on_c, 1, 50, 80
4, 27519, Note_on_c, 1, 50, 0
4, 27520, Note_on_c, 1, 48, 80
4, 27535, Note_on_c, 1, 48, 0
4, 27536, Note_on_c, 1, 47, 80
4, 27551, Note_on_c, 1, 47, 0
4, 27552, Note_on_c, 1, 48, 80
4, 27597, Note_on_c, 1, 48, 0
4, 27600, Note_on_c, 1, 53, 80
4, 27620, Note_on_c, 1, 53, 0
4, 27648, Note_on_c, 1, 45, 96
4, 27696, Note_on_c, 1, 45, 0
4, 27696, Note_on_c, 1, 46, 80
4, 27711, Note_on_c, 1, 46, 0
4, 27712, Note_on_c, 1, 45, 80
4, 27727, Note_on_c, 1, 45, 0
4, 27728, Note_on_c, 1, 43, 80
4, 27743, Note_on_c, 1, 43, 0
4, 27744, Note_on_c, 1, 45, 80
4, 27789, Note_on_c, 1, 45, 0
4, 27792, Note_on_c, 1, 48, 80
4, 27812, Note_on_c, 1, 48, 0
4, 27840, Note_on_c, 1, 41, 80
4, 27929, Note_on_c, 1, 41, 0
4, 28032, Note_on_c, 1, 48, 80
4, 28032, Note_on_c, 1, 36, 80
4, 28209, Note_on_c, 1, 48, 0
4, 28209, Note_on_c, 1, 36, 0
4, 28224, Note_on_c, 1, 53, 80
4, 28224, Note_on_c, 1, 41, 80
4, 28489, Note_on_c, 1, 53, 0
4, 28489, Note_on_c, 1, 41, 0
4, 28608, Note_on_c, 1, 54, 80
4, 28608, Note_on_c, 1, 42, 80
4, 28800, Note_on_c, 1, 54, 0
4, 28800, Note_on_c, 1, 42, 0
4, 28800, Note_on_c, 1, 55, 80
4, 28800, Note_on_c, 1, 43, 80
4, 28889, Note_on_c, 1, 55, 0
4, 28889, Note_on_c, 1, 43, 0
4, 28992, Note_on_c, 1, 60, 75
4, 29169, Note_on_c, 1, 60, 0
4, 29184, Note_on_c, 1, 54, 75
4, 29273, Note_on_c, 1, 54, 0
4, 29280, Note_on_c, 1, 55, 75
4, 29369, Note_on_c, 1, 55, 0
4, 29376, Note_on_c, 1, 63, 91
4, 29520, Note_on_c, 1, 63, 0
4, 29520, Note_on_c, 1, 60, 75
4, 29565, Note_on_c, 1, 60, 0
4, 29568, Note_on_c, 1, 62, 75
4, 29657, Note_on_c, 1, 62, 0
4, 29760, Note_on_c, 1, 50, 96
4, 29952, Note_on_c, 1, 50, 0
4, 29952, Note_on_c, 1, 48, 80
4, 29997, Note_on_c, 1, 48, 0
4, 30000, Note_on_c, 1, 46, 80
4, 30045, Note_on_c, 1, 46, 0
4, 30048, Note_on_c, 1, 45, 80
4, 30093, Note_on_c, 1, 45, 0
4, 30096, Note_on_c, 1, 43, 80
4, 30141, Note_on_c, 1, 43, 0
4, 30144, Note_on_c, 1, 43, 96
4, 30336, Note_on_c, 1, 43, 0
4, 30336, Note_on_c, 1, 42, 80
4, 30425, Note_on_c, 1, 42, 0
4, 30528, Note_on_c, 1, 60, 91
4, 30720, Note_on_c, 1, 60, 0
4, 30720, Note_on_c, 1, 52, 75
4, 30809, Note_on_c, 1, 52, 0
4, 30816, Note_on_c, 1, 53, 75
4, 30905, Note_on_c, 1, 53, 0
4, 30912, Note_on_c, 1, 61, 75
4, 31045, Note_on_c, 1, 61, 0
4, 31056, Note_on_c, 1, 58, 75
4, 31101, Note_on_c, 1, 58, 0
4, 31104, Note_on_c, 1, 60, 75
4, 31193, Note_on_c, 1, 60, 0
4, 31296, Note_on_c, 1, 48, 96
4, 31488, Note_on_c, 1, 48, 0
4, 31488, Note_on_c, 1, 46, 80
4, 31533, Note_on_c, 1, 46, 0
4, 31536, Note_on_c, 1, 44, 80
4, 31581, Note_on_c, 1, 44, 0
4, 31584, Note_on_c, 1, 43, 80
4, 31629, Note_on_c, 1, 43, 0
4, 31632, Note_on_c, 1, 41, 80
4, 31677, Note_on_c, 1, 41, 0
4, 31680, Note_on_c, 1, 41, 96
4, 31872, Note_on_c, 1, 41, 0
4, 31872, Note_on_c, 1, 40, 80
4, 31961, Note_on_c, 1, 40, 0
4, 32064, Note_on_c, 1, 37, 96
4, 32448, Note_on_c, 1, 37, 0
4, 32448, Note_on_c, 1, 36, 70
4, 32471, Note_on_c, 1, 36, 0
4, 32472, Note_on_c, 1, 40, 70
4, 32495, Note_on_c, 1, 40, 0
4, 32496, Note_on_c, 1, 43, 70
4, 32519, Note_on_c, 1, 43, 0
4, 32520, Note_on_c, 1, 40, 70
4, 32543, Note_on_c, 1, 40, 0
4, 32544, Note_on_c, 1, 36, 70
4, 32567, Note_on_c, 1, 36, 0
4, 32568, Note_on_c, 1, 40, 70
4, 32591, Note_on_c, 1, 40, 0
4, 32592, Note_on_c, 1, 43, 70
4, 32615, Note_on_c, 1, 43, 0
4, 32616, Note_on_c, 1, 40, 70
4, 32639, Note_on_c, 1, 40, 0
4, 32640, Note_on_c, 1, 36, 70
4, 32663, Note_on_c, 1, 36, 0
4, 32664, Note_on_c, 1, 40, 70
4, 32687, Note_on_c, 1, 40, 0
4, 32688, Note_on_c, 1, 43, 70
4, 32711, Note_on_c, 1, 43, 0
4, 32712, Note_on_c, 1, 40, 70
4, 32735, Note_on_c, 1, 40, 0
4, 32736, Note_on_c, 1, 36, 70
4, 32759, Note_on_c, 1, 36, 0
4, 32760, Note_on_c, 1, 41, 70
4, 32783, Note_on_c, 1, 41, 0
4, 32784, Note_on_c, 1, 44, 70
4, 32807, Note_on_c, 1, 44, 0
4, 32808, Note_on_c, 1, 41, 70
4, 32831, Note_on_c, 1, 41, 0
4, 32832, Note_on_c, 1, 36, 70
4, 32855, Note_on_c, 1, 36, 0
4, 32856, Note_on_c, 1, 40, 70
4, 32879, Note_on_c, 1, 40, 0
4, 32880, Note_on_c, 1, 43, 70
4, 32903, Note_on_c, 1, 43, 0
4, 32904, Note_on_c, 1, 40, 70
4, 32927, Note_on_c, 1, 40, 0
4, 32928, Note_on_c, 1, 36, 70
4, 32951, Note_on_c, 1, 36, 0
4, 32952, Note_on_c, 1, 40, 70
4, 32975, Note_on_c, 1, 40, 0
4, 32976, Note_on_c, 1, 43, 70
4, 32999, Note_on_c, 1, 43, 0
4, 33000, Note_on_c, 1, 40, 70
4, 33023, Note_on_c, 1, 40, 0
4, 33024, Note_on_c, 1, 36, 70
4, 33047, Note_on_c, 1, 36, 0
4, 33048, Note_on_c, 1, 40, 70
4, 33071, Note_on_c, 1, 40, 0
4, 33072, Note_on_c, 1, 43, 70
4, 33095, Note_on_c, 1, 43, 0
4, 33096, Note_on_c, 1, 40, 70
4, 33119, Note_on_c, 1, 40, 0
4, 33120, Note_on_c, 1, 36, 70
4, 33143, Note_on_c, 1, 36, 0
4, 33144, Note_on_c, 1, 41, 70
4, 33167, Note_on_c, 1, 41, 0
4, 33168, Note_on_c, 1, 44, 70
4, 33191, Note_on_c, 1, 44, 0
4, 33192, Note_on_c, 1, 41, 70
4, 33215, Note_on_c, 1, 41, 0
4, 33216, Note_on_c, 1, 40, 70
4, 33239, Note_on_c, 1, 40, 0
4, 33240, Note_on_c, 1, 43, 70
4, 33263, Note_on_c, 1, 43, 0
4, 33264, Note_on_c, 1, 46, 70
4, 33287, Note_on_c, 1, 46, 0
4, 33288, Note_on_c, 1, 43, 70
4, 33311, Note_on_c, 1, 43, 0
4, 33312, Note_on_c, 1, 40, 70
4, 33335, Note_on_c, 1, 40, 0
4, 33336, Note_on_c, 1, 43, 70
4, 33359, Note_on_c, 1, 43, 0
4, 33360, Note_on_c, 1, 46, 70
4, 33383, Note_on_c, 1, 46, 0
4, 33384, Note_on_c, 1, 43, 70
4, 33407, Note_on_c, 1, 43, 0
4, 33408, Note_on_c, 1, 40, 70
4, 33431, Note_on_c, 1, 40, 0
4, 33432, Note_on_c, 1, 43, 70
4, 33455, Note_on_c, 1, 43, 0
4, 33456, Note_on_c, 1, 46, 70
4, 33479, Note_on_c, 1, 46, 0
4, 33480, Note_on_c, 1, 43, 70
4, 33503, Note_on_c, 1, 43, 0
4, 33504, Note_on_c, 1, 40, 70
4, 33527, Note_on_c, 1, 40, 0
4, 33528, Note_on_c, 1, 44, 70
4, 33551, Note_on_c, 1, 44, 0
4, 33552, Note_on_c, 1, 48, 70
4, 33575, Note_on_c, 1, 48, 0
4, 33576, Note_on_c, 1, 44, 70
4, 33599, Note_on_c, 1, 44, 0
4, 33600, Note_on_c, 1, 40, 70
4, 33623, Note_on_c, 1, 40, 0
4, 33624, Note_on_c, 1, 43, 70
4, 33647, Note_on_c, 1, 43, 0
4, 33648, Note_on_c, 1, 46, 70
4, 33671, Note_on_c, 1, 46, 0
4, 33672, Note_on_c, 1, 43, 70
4, 33695, Note_on_c, 1, 43, 0
4, 33696, Note_on_c, 1, 40, 70
4, 33719, Note_on_c, 1, 40, 0
4, 33720, Note_on_c, 1, 43, 70
4, 33743, Note_on_c, 1, 43, 0
4, 33744, Note_on_c, 1, 46, 70
4, 33767, Note_on_c, 1, 46, 0
4, 33768, Note_on_c, 1, 43, 70
4, 33791, Note_on_c, 1, 43, 0
4, 33792, Note_on_c, 1, 40, 70
4, 33815, Note_on_c, 1, 40, 0
4, 33816, Note_on_c, 1, 43, 70
4, 33839, Note_on_c, 1, 43, 0
4, 33840, Note_on_c, 1, 46, 70
4, 33863, Note_on_c, 1, 46, 0
4, 33864, Note_on_c, 1, 43, 70
4, 33887, Note_on_c, 1, 43, 0
4, 33888, Note_on_c, 1, 40, 70
4, 33911, Note_on_c, 1, 40, 0
4, 33912, Note_on_c, 1, 44, 70
4, 33935, Note_on_c, 1, 44, 0
4, 33936, Note_on_c, 1, 48, 70
4, 33959, Note_on_c, 1, 48, 0
4, 33960, Note_on_c, 1, 44, 70
4, 33983, Note_on_c, 1, 44, 0
4, 33984, Note_on_c, 1, 38, 70
4, 34007, Note_on_c, 1, 38, 0
4, 34008, Note_on_c, 1, 42, 70
4, 34031, Note_on_c, 1, 42, 0
4, 34032, Note_on_c, 1, 45, 70
4, 34055, Note_on_c, 1, 45, 0
4, 34056, Note_on_c, 1, 42, 70
4, 34079, Note_on_c, 1, 42, 0
4, 34080, Note_on_c, 1, 38, 70
4, 34103, Note_on_c, 1, 38, 0
4, 34104, Note_on_c, 1, 42, 70
4, 34127, Note_on_c, 1, 42, 0
4, 34128, Note_on_c, 1, 45, 70
4, 34151, Note_on_c, 1, 45, 0
4, 34152, Note_on_c, 1, 42, 70
4, 34175, Note_on_c, 1, 42, 0
4, 34176, Note_on_c, 1, 38, 70
4, 34199, Note_on_c, 1, 38, 0
4, 34200, Note_on_c, 1, 42, 70
4, 34223, Note_on_c, 1, 42, 0
4, 34224, Note_on_c, 1, 45, 70
4, 34247, Note_on_c, 1, 45, 0
4, 34248, Note_on_c, 1, 42, 70
4, 34271, Note_on_c, 1, 42, 0
4, 34272, Note_on_c, 1, 38, 70
4, 34295, Note_on_c, 1, 38, 0
4, 34296, Note_on_c, 1, 43, 70
4, 34319, Note_on_c, 1, 43, 0
4, 34320, Note_on_c, 1, 46, 70
4, 34343, Note_on_c, 1, 46, 0
4, 34344, Note_on_c, 1, 43, 70
4, 34367, Note_on_c, 1, 43, 0
4, 34368, Note_on_c, 1, 38, 70
4, 34391, Note_on_c, 1, 38, 0
4, 34392, Note_on_c, 1, 42, 70
4, 34415, Note_on_c, 1, 42, 0
4, 34416, Note_on_c, 1, 45, 70
4, 34439, Note_on_c, 1, 45, 0
4, 34440, Note_on_c, 1, 42, 70
4, 34463, Note_on_c, 1, 42, 0
4, 34464, Note_on_c, 1, 38, 70
4, 34487, Note_on_c, 1, 38, 0
4, 34488, Note_on_c, 1, 42, 70
4, 34511, Note_on_c, 1, 42, 0
4, 34512, Note_on_c, 1, 45, 70
4, 34535, Note_on_c, 1, 45, 0
4, 34536, Note_on_c, 1, 42, 70
4, 34559, Note_on_c, 1, 42, 0
4, 34560, Note_on_c, 1, 38, 70
4, 34583, Note_on_c, 1, 38, 0
4, 34584, Note_on_c, 1, 42, 70
4, 34607, Note_on_c, 1, 42, 0
4, 34608, Note_on_c, 1, 45, 70
4, 34631, Note_on_c, 1, 45, 0
4, 34632, Note_on_c, 1, 42, 70
4, 34655, Note_on_c, 1, 42, 0
4, 34656, Note_on_c, 1, 38, 70
4, 34679, Note_on_c, 1, 38, 0
4, 34680, Note_on_c, 1, 43, 70
4, 34703, Note_on_c, 1, 43, 0
4, 34704, Note_on_c, 1, 46, 70
4, 34727, Note_on_c, 1, 46, 0
4, 34728, Note_on_c, 1, 43, 70
4, 34751, Note_on_c, 1, 43, 0
4, 34752, Note_on_c, 1, 42, 70
4, 34775, Note_on_c, 1, 42, 0
4, 34776, Note_on_c, 1, 45, 70
4, 34799, Note_on_c, 1, 45, 0
4, 34800, Note_on_c, 1, 48, 70
4, 34823, Note_on_c, 1, 48, 0
4, 34824, Note_on_c, 1, 45, 70
4, 34847, Note_on_c, 1, 45, 0
4, 34848, Note_on_c, 1, 42, 70
4, 34871, Note_on_c, 1, 42, 0
4, 34872, Note_on_c, 1, 45, 70
4, 34895, Note_on_c, 1, 45, 0
4, 34896, Note_on_c, 1, 48, 70
4, 34919, Note_on_c, 1, 48, 0
4, 34920, Note_on_c, 1, 45, 70
4, 34943, Note_on_c, 1, 45, 0
4, 34944, Note_on_c, 1, 42, 70
4, 34967, Note_on_c, 1, 42, 0
4, 34968, Note_on_c, 1, 45, 70
4, 34991, Note_on_c, 1, 45, 0
4, 34992, Note_on_c, 1, 48, 70
4, 35015, Note_on_c, 1, 48, 0
4, 35016, Note_on_c, 1, 45, 70
4, 35039, Note_on_c, 1, 45, 0
4, 35040, Note_on_c, 1, 42, 70
4, 35063, Note_on_c, 1, 42, 0
4, 35064, Note_on_c, 1, 46, 70
4, 35087, Note_on_c, 1, 46, 0
4, 35088, Note_on_c, 1, 50, 70
4, 35111, Note_on_c, 1, 50, 0
4, 35112, Note_on_c, 1, 46, 70
4, 35135, Note_on_c, 1, 46, 0
4, 35136, Note_on_c, 1, 42, 70
4, 35159, Note_on_c, 1, 42, 0
4, 35160, Note_on_c, 1, 45, 70
4, 35183, Note_on_c, 1, 45, 0
4, 35184, Note_on_c, 1, 48, 70
4, 35207, Note_on_c, 1, 48, 0
4, 35208, Note_on_c, 1, 45, 70
4, 35231, Note_on_c, 1, 45, 0
4, 35232, Note_on_c, 1, 42, 70
4, 35255, Note_on_c, 1, 42, 0
4, 35256, Note_on_c, 1, 45, 70
4, 35279, Note_on_c, 1, 45, 0
4, 35280, Note_on_c, 1, 48, 70
4, 35303, Note_on_c, 1, 48, 0
4, 35304, Note_on_c, 1, 45, 70
4, 35327, Note_on_c, 1, 45, 0
4, 35328, Note_on_c, 1, 42, 70
4, 35351, Note_on_c, 1, 42, 0
4, 35352, Note_on_c, 1, 45, 70
4, 35375, Note_on_c, 1, 45, 0
4, 35376, Note_on_c, 1, 48, 70
4, 35399, Note_on_c, 1, 48, 0
4, 35400, Note_on_c, 1, 45, 70
4, 35423, Note_on_c, 1, 45, 0
4, 35424, Note_on_c, 1, 42, 70
4, 35447, Note_on_c, 1, 42, 0
4, 35448, Note_on_c, 1, 46, 70
4, 35471, Note_on_c, 1, 46, 0
4, 35472, Note_on_c, 1, 50, 70
4, 35495, Note_on_c, 1, 50, 0
4, 35496, Note_on_c, 1, 46, 70
4, 35519, Note_on_c, 1, 46, 0
4, 35520, Note_on_c, 1, 56, 83
4, 35520, Note_on_c, 1, 44, 83
4, 35712, Note_on_c, 1, 56, 0
4, 35712, Note_on_c, 1, 44, 0
4, 35712, Note_on_c, 1, 57, 70
4, 35712, Note_on_c, 1, 45, 70
4, 35751, Note_on_c, 1, 57, 0
4, 35751, Note_on_c, 1, 45, 0
4, 35904, Note_on_c, 1, 54, 83
4, 35904, Note_on_c, 1, 42, 83
4, 36096, Note_on_c, 1, 54, 0
4, 36096, Note_on_c, 1, 42, 0
4, 36096, Note_on_c, 1, 55, 70
4, 36096, Note_on_c, 1, 43, 70
4, 36135, Note_on_c, 1, 55, 0
4, 36135, Note_on_c, 1, 43, 0
4, 36288, Note_on_c, 1, 52, 83
4, 36288, Note_on_c, 1, 40, 83
4, 36480, Note_on_c, 1, 52, 0
4, 36480, Note_on_c, 1, 40, 0
4, 36480, Note_on_c, 1, 53, 70
4, 36480, Note_on_c, 1, 41, 70
4, 36519, Note_on_c, 1, 53, 0
4, 36519, Note_on_c, 1, 41, 0
4, 36672, Note_on_c, 1, 50, 83
4, 36672, Note_on_c, 1, 38, 83
4, 36849, Note_on_c, 1, 50, 0
4, 36849, Note_on_c, 1, 38, 0
4, 36864, Note_on_c, 1, 51, 70
4, 36864, Note_on_c, 1, 39, 70
4, 37041, Note_on_c, 1, 51, 0
4, 37041, Note_on_c, 1, 39, 0
4, 37056, Note_on_c, 1, 49, 83
4, 37056, Note_on_c, 1, 37, 83
4, 37410, Note_on_c, 1, 49, 0
4, 37410, Note_on_c, 1, 37, 0
4, 37440, Note_on_c, 1, 50, 70
4, 37440, Note_on_c, 1, 38, 70
4, 37529, Note_on_c, 1, 50, 0
4, 37529, Note_on_c, 1, 38, 0
4, 37872, Note_on_c, 1, 50, 70
4, 37917, Note_on_c, 1, 50, 0
4, 37920, Note_on_c, 1, 62, 70
4, 37940, Note_on_c, 1, 62, 0
4, 37968, Note_on_c, 1, 57, 70
4, 37988, Note_on_c, 1, 57, 0
4, 38016, Note_on_c, 1, 60, 70
4, 38061, Note_on_c, 1, 60, 0
4, 38064, Note_on_c, 1, 58, 70
4, 38109, Note_on_c, 1, 58, 0
4, 38112, Note_on_c, 1, 57, 70
4, 38157, Note_on_c, 1, 57, 0
4, 38160, Note_on_c, 1, 55, 70
4, 38205, Note_on_c, 1, 55, 0
4, 38208, Note_on_c, 1, 55, 86
4, 38400, Note_on_c, 1, 55, 0
4, 38400, Note_on_c, 1, 54, 70
4, 38489, Note_on_c, 1, 54, 0
4, 38592, Note_on_c, 1, 67, 80
4, 38725, Note_on_c, 1, 67, 0
4, 38736, Note_on_c, 1, 64, 78
4, 38781, Note_on_c, 1, 64, 0
4, 38784, Note_on_c, 1, 67, 78
4, 38829, Note_on_c, 1, 67, 0
4, 38832, Note_on_c, 1, 65, 78
4, 38877, Note_on_c, 1, 65, 0
4, 38880, Note_on_c, 1, 64, 77
4, 38925, Note_on_c, 1, 64, 0
4, 38928, Note_on_c, 1, 62, 77
4, 38973, Note_on_c, 1, 62, 0
4, 38976, Note_on_c, 1, 61, 93
4, 39264, Note_on_c, 1, 61, 0
4, 41472, Note_on_c, 1, 49, 75
4, 41561, Note_on_c, 1, 49, 0
4, 41568, Note_on_c, 1, 50, 75
4, 41657, Note_on_c, 1, 50, 0
4, 41664, Note_on_c, 1, 55, 75
4, 41753, Note_on_c, 1, 55, 0
4, 41856, Note_on_c, 1, 57, 75
4, 41945, Note_on_c, 1, 57, 0
4, 41952, Note_on_c, 1, 45, 75
4, 42041, Note_on_c, 1, 45, 0
4, 42144, Note_on_c, 1, 67, 64
4, 42336, Note_on_c, 1, 67, 0
4, 42336, Note_on_c, 1, 65, 64
4, 42375, Note_on_c, 1, 65, 0
4, 42528, Note_on_c, 1, 73, 64
4, 42720, Note_on_c, 1, 73, 0
4, 42720, Note_on_c, 1, 74, 64
4, 42759, Note_on_c, 1, 74, 0
4, 43104, Note_on_c, 1, 46, 75
4, 43104, Note_on_c, 1, 43, 75
4, 43104, Note_on_c, 1, 39, 75
4, 43104, Note_on_c, 1, 34, 75
4, 43237, Note_on_c, 1, 46, 0
4, 43237, Note_on_c, 1, 43, 0
4, 43237, Note_on_c, 1, 39, 0
4, 43237, Note_on_c, 1, 34, 0
4, 43296, Note_on_c, 1, 62, 64
4, 43326, Note_on_c, 1, 62, 0
4, 43328, Note_on_c, 1, 65, 64
4, 43358, Note_on_c, 1, 65, 0
4, 43360, Note_on_c, 1, 69, 64
4, 43390, Note_on_c, 1, 69, 0
4, 43392, Note_on_c, 1, 62, 64
4, 43422, Note_on_c, 1, 62, 0
4, 43424, Note_on_c, 1, 65, 64
4, 43454, Note_on_c, 1, 65, 0
4, 43456, Note_on_c, 1, 69, 64
4, 43486, Note_on_c, 1, 69, 0
4, 43488, Note_on_c, 1, 62, 64
4, 43518, Note_on_c, 1, 62, 0
4, 43520, Note_on_c, 1, 65, 64
4, 43550, Note_on_c, 1, 65, 0
4, 43552, Note_on_c, 1, 69, 64
4, 43582, Note_on_c, 1, 69, 0
4, 43584, Note_on_c, 1, 62, 64
4, 43614, Note_on_c, 1, 62, 0
4, 43616, Note_on_c, 1, 65, 64
4, 43646, Note_on_c, 1, 65, 0
4, 43648, Note_on_c, 1, 69, 64
4, 43678, Note_on_c, 1, 69, 0
4, 43680, Note_on_c, 1, 62, 64
4, 43710, Note_on_c, 1, 62, 0
4, 43712, Note_on_c, 1, 67, 64
4, 43742, Note_on_c, 1, 67, 0
4, 43744, Note_on_c, 1, 70, 64
4, 43774, Note_on_c, 1, 70, 0
4, 43776, Note_on_c, 1, 62, 64
4, 43806, Note_on_c, 1, 62, 0
4, 43808, Note_on_c, 1, 67, 64
4, 43838, Note_on_c, 1, 67, 0
4, 43840, Note_on_c, 1, 70, 64
4, 43870, Note_on_c, 1, 70, 0
4, 43872, Note_on_c, 1, 62, 64
4, 43902, Note_on_c, 1, 62, 0
4, 43904, Note_on_c, 1, 65, 64
4, 43934, Note_on_c, 1, 65, 0
4, 43936, Note_on_c, 1, 69, 64
4, 43966, Note_on_c, 1, 69, 0
4, 43968, Note_on_c, 1, 62, 64
4, 43998, Note_on_c, 1, 62, 0
4, 44000, Note_on_c, 1, 65, 64
4, 44030, Note_on_c, 1, 65, 0
4, 44032, Note_on_c, 1, 69, 64
4, 44062, Note_on_c, 1, 69, 0
4, 44064, Note_on_c, 1, 61, 64
4, 44094, Note_on_c, 1, 61, 0
4, 44096, Note_on_c, 1, 64, 64
4, 44126, Note_on_c, 1, 64, 0
4, 44128, Note_on_c, 1, 69, 64
4, 44158, Note_on_c, 1, 69, 0
4, 44160, Note_on_c, 1, 61, 64
4, 44190, Note_on_c, 1, 61, 0
4, 44192, Note_on_c, 1, 64, 64
4, 44222, Note_on_c, 1, 64, 0
4, 44224, Note_on_c, 1, 69, 64
4, 44254, Note_on_c, 1, 69, 0
4, 44256, Note_on_c, 1, 62, 64
4, 44286, Note_on_c, 1, 62, 0
4, 44288, Note_on_c, 1, 65, 64
4, 44318, Note_on_c, 1, 65, 0
4, 44320, Note_on_c, 1, 69, 64
4, 44350, Note_on_c, 1, 69, 0
4, 44352, Note_on_c, 1, 62, 64
4, 44382, Note_on_c, 1, 62, 0
4, 44384, Note_on_c, 1, 65, 64
4, 44414, Note_on_c, 1, 65, 0
4, 44416, Note_on_c, 1, 69, 64
4, 44446, Note_on_c, 1, 69, 0
4, 44448, Note_on_c, 1, 57, 64
4, 44478, Note_on_c, 1, 57, 0
4, 44480, Note_on_c, 1, 65, 64
4, 44510, Note_on_c, 1, 65, 0
4, 44512, Note_on_c, 1, 69, 64
4, 44542, Note_on_c, 1, 69, 0
4, 44544, Note_on_c, 1, 57, 64
4, 44574, Note_on_c, 1, 57, 0
4, 44576, Note_on_c, 1, 65, 64
4, 44606, Note_on_c, 1, 65, 0
4, 44608, Note_on_c, 1, 69, 64
4, 44638, Note_on_c, 1, 69, 0
4, 44640, Note_on_c, 1, 57, 64
4, 44670, Note_on_c, 1, 57, 0
4, 44672, Note_on_c, 1, 70, 75
4, 44702, Note_on_c, 1, 70, 0
4, 44704, Note_on_c, 1, 69, 75
4, 44734, Note_on_c, 1, 69, 0
4, 44736, Note_on_c, 1, 67, 76
4, 44766, Note_on_c, 1, 67, 0
4, 44768, Note_on_c, 1, 65, 77
4, 44798, Note_on_c, 1, 65, 0
4, 44800, Note_on_c, 1, 64, 78
4, 44830, Note_on_c, 1, 64, 0
4, 44832, Note_on_c, 1, 65, 80
4, 44921, Note_on_c, 1, 65, 0
4, 44928, Note_on_c, 1, 62, 80
4, 45017, Note_on_c, 1, 62, 0
4, 45024, Note_on_c, 1, 64, 80
4, 45113, Note_on_c, 1, 64, 0
4, 45120, Note_on_c, 1, 65, 80
4, 45209, Note_on_c, 1, 65, 0
4, 45216, Note_on_c, 1, 67, 93
4, 45216, Note_on_c, 1, 63, 93
4, 45216, Note_on_c, 1, 58, 93
4, 45216, Note_on_c, 1, 55, 93
4, 45570, Note_on_c, 1, 67, 0
4, 45570, Note_on_c, 1, 63, 0
4, 45570, Note_on_c, 1, 58, 0
4, 45570, Note_on_c, 1, 55, 0
4, 45600, Note_on_c, 1, 61, 80
4, 45792, Note_on_c, 1, 61, 0
4, 45792, Note_on_c, 1, 62, 76
4, 45881, Note_on_c, 1, 62, 0
4, 46176, Note_on_c, 1, 38, 96
4, 46185, Note_on_c, 1, 41, 96
4, 46194, Note_on_c, 1, 45, 96
4, 46203, Note_on_c, 1, 50, 96
4, 46405, Note_on_c, 1, 50, 0
4, 46405, Note_on_c, 1, 45, 0
4, 46405, Note_on_c, 1, 41, 0
4, 46405, Note_on_c, 1, 38, 0
4, 46560, Note_on_c, 1, 58, 80
4, 46583, Note_on_c, 1, 58, 0
4, 46584, Note_on_c, 1, 57, 80
4, 46607, Note_on_c, 1, 57, 0
4, 46608, Note_on_c, 1, 55, 80
4, 46631, Note_on_c, 1, 55, 0
4, 46632, Note_on_c, 1, 53, 80
4, 46655, Note_on_c, 1, 53, 0
4, 46656, Note_on_c, 1, 52, 80
4, 46686, Note_on_c, 1, 52, 0
4, 46688, Note_on_c, 1, 50, 80
4, 46718, Note_on_c, 1, 50, 0
4, 46720, Note_on_c, 1, 48, 80
4, 46750, Note_on_c, 1, 48, 0
4, 46752, Note_on_c, 1, 46, 80
4, 46782, Note_on_c, 1, 46, 0
4, 46784, Note_on_c, 1, 45, 80
4, 46814, Note_on_c, 1, 45, 0
4, 46816, Note_on_c, 1, 43, 80
4, 46846, Note_on_c, 1, 43, 0
4, 46848, Note_on_c, 1, 41, 80
4, 46878, Note_on_c, 1, 41, 0
4, 46880, Note_on_c, 1, 40, 80
4, 46910, Note_on_c, 1, 40, 0
4, 46912, Note_on_c, 1, 38, 80
4, 46942, Note_on_c, 1, 38, 0
4, 46944, Note_on_c, 1, 40, 80
4, 47121, Note_on_c, 1, 40, 0
4, 47328, Note_on_c, 1, 45, 80
4, 47328, Note_on_c, 1, 33, 80
4, 47505, Note_on_c, 1, 45, 0
4, 47505, Note_on_c, 1, 33, 0
4, 47712, Note_on_c, 1, 48, 80
4, 47712, Note_on_c, 1, 36, 80
4, 47889, Note_on_c, 1, 48, 0
4, 47889, Note_on_c, 1, 36, 0
4, 48096, Note_on_c, 1, 46, 80
4, 48126, Note_on_c, 1, 46, 0
4, 48128, Note_on_c, 1, 50, 80
4, 48158, Note_on_c, 1, 50, 0
4, 48160, Note_on_c, 1, 55, 80
4, 48190, Note_on_c, 1, 55, 0
4, 48192, Note_on_c, 1, 45, 80
4, 48222, Note_on_c, 1, 45, 0
4, 48224, Note_on_c, 1, 50, 80
4, 48254, Note_on_c, 1, 50, 0
4, 48256, Note_on_c, 1, 57, 80
4, 48286, Note_on_c, 1, 57, 0
4, 48288, Note_on_c, 1, 46, 80
4, 48318, Note_on_c, 1, 46, 0
4, 48320, Note_on_c, 1, 50, 80
4, 48350, Note_on_c, 1, 50, 0
4, 48352, Note_on_c, 1, 55, 80
4, 48382, Note_on_c, 1, 55, 0
4, 48384, Note_on_c, 1, 48, 80
4, 48414, Note_on_c, 1, 48, 0
4, 48416, Note_on_c, 1, 50, 80
4, 48446, Note_on_c, 1, 50, 0
4, 48448, Note_on_c, 1, 54, 80
4, 48478, Note_on_c, 1, 54, 0
4, 48480, Note_on_c, 1, 51, 80
4, 48510, Note_on_c, 1, 51, 0
4, 48512, Note_on_c, 1, 50, 80
4, 48542, Note_on_c, 1, 50, 0
4, 48544, Note_on_c, 1, 57, 80
4, 48574, Note_on_c, 1, 57, 0
4, 48576, Note_on_c, 1, 50, 80
4, 48606, Note_on_c, 1, 50, 0
4, 48608, Note_on_c, 1, 50, 80
4, 48638, Note_on_c, 1, 50, 0
4, 48640, Note_on_c, 1, 55, 80
4, 48670, Note_on_c, 1, 55, 0
4, 48672, Note_on_c, 1, 48, 80
4, 48702, Note_on_c, 1, 48, 0
4, 48704, Note_on_c, 1, 50, 80
4, 48734, Note_on_c, 1, 50, 0
4, 48736, Note_on_c, 1, 54, 80
4, 48766, Note_on_c, 1, 54, 0
4, 48768, Note_on_c, 1, 46, 80
4, 48798, Note_on_c, 1, 46, 0
4, 48800, Note_on_c, 1, 50, 80
4, 48830, Note_on_c, 1, 50, 0
4, 48832, Note_on_c, 1, 55, 80
4, 48862, Note_on_c, 1, 55, 0
4, 48864, Note_on_c, 1, 48, 80
4, 48894, Note_on_c, 1, 48, 0
4, 48896, Note_on_c, 1, 51, 80
4, 48926, Note_on_c, 1, 51, 0
4, 48928, Note_on_c, 1, 57, 81
4, 48958, Note_on_c, 1, 57, 0
4, 48960, Note_on_c, 1, 48, 82
4, 48990, Note_on_c, 1, 48, 0
4, 48992, Note_on_c, 1, 51, 83
4, 49022, Note_on_c, 1, 51, 0
4, 49024, Note_on_c, 1, 57, 84
4, 49054, Note_on_c, 1, 57, 0
4, 49056, Note_on_c, 1, 49, 85
4, 49079, Note_on_c, 1, 49, 0
4, 49080, Note_on_c, 1, 52, 86
4, 49103, Note_on_c, 1, 52, 0
4, 49104, Note_on_c, 1, 55, 86
4, 49127, Note_on_c, 1, 55, 0
4, 49128, Note_on_c, 1, 52, 86
4, 49151, Note_on_c, 1, 52, 0
4, 49152, Note_on_c, 1, 49, 86
4, 49175, Note_on_c, 1, 49, 0
4, 49176, Note_on_c, 1, 52, 86
4, 49199, Note_on_c, 1, 52, 0
4, 49200, Note_on_c, 1, 55, 86
4, 49223, Note_on_c, 1, 55, 0
4, 49224, Note_on_c, 1, 52, 86
4, 49247, Note_on_c, 1, 52, 0
4, 49248, Note_on_c, 1, 50, 86
4, 49337, Note_on_c, 1, 50, 0
4, 49680, Note_on_c, 1, 69, 64
4, 49725, Note_on_c, 1, 69, 0
4, 49728, Note_on_c, 1, 66, 64
4, 49773, Note_on_c, 1, 66, 0
4, 49776, Note_on_c, 1, 69, 64
4, 49821, Note_on_c, 1, 69, 0
4, 49872, Note_on_c, 1, 69, 64
4, 49917, Note_on_c, 1, 69, 0
4, 49920, Note_on_c, 1, 66, 64
4, 49965, Note_on_c, 1, 66, 0
4, 49968, Note_on_c, 1, 69, 64
4, 50013, Note_on_c, 1, 69, 0
4, 50064, Note_on_c, 1, 69, 64
4, 50109, Note_on_c, 1, 69, 0
4, 50112, Note_on_c, 1, 66, 64
4, 50157, Note_on_c, 1, 66, 0
4, 50160, Note_on_c, 1, 69, 64
4, 50205, Note_on_c, 1, 69, 0
4, 50208, Note_on_c, 1, 67, 64
4, 50255, Note_on_c, 1, 67, 0
4, 50256, Note_on_c, 1, 67, 64
4, 50301, Note_on_c, 1, 67, 0
4, 50304, Note_on_c, 1, 66, 64
4, 50349, Note_on_c, 1, 66, 0
4, 50352, Note_on_c, 1, 67, 64
4, 50397, Note_on_c, 1, 67, 0
4, 50448, Note_on_c, 1, 76, 64
4, 50493, Note_on_c, 1, 76, 0
4, 50496, Note_on_c, 1, 73, 64
4, 50541, Note_on_c, 1, 73, 0
4, 50544, Note_on_c, 1, 76, 64
4, 50589, Note_on_c, 1, 76, 0
4, 50592, Note_on_c, 1, 73, 64
4, 50681, Note_on_c, 1, 73, 0
4, 50976, Note_on_c, 1, 57, 96
4, 51024, Note_on_c, 1, 57, 0
4, 51024, Note_on_c, 1, 58, 80
4, 51039, Note_on_c, 1, 58, 0
4, 51040, Note_on_c, 1, 57, 80
4, 51055, Note_on_c, 1, 57, 0
4, 51056, Note_on_c, 1, 55, 80
4, 51071, Note_on_c, 1, 55, 0
4, 51072, Note_on_c, 1, 57, 80
4, 51117, Note_on_c, 1, 57, 0
4, 51120, Note_on_c, 1, 62, 80
4, 51140, Note_on_c, 1, 62, 0
4, 51168, Note_on_c, 1, 53, 96
4, 51216, Note_on_c, 1, 53, 0
4, 51216, Note_on_c, 1, 55, 80
4, 51231, Note_on_c, 1, 55, 0
4, 51232, Note_on_c, 1, 53, 80
4, 51247, Note_on_c, 1, 53, 0
4, 51248, Note_on_c, 1, 52, 80
4, 51263, Note_on_c, 1, 52, 0
4, 51264, Note_on_c, 1, 53, 80
4, 51309, Note_on_c, 1, 53, 0
4, 51312, Note_on_c, 1, 57, 80
4, 51332, Note_on_c, 1, 57, 0
4, 51360, Note_on_c, 1, 57, 96
4, 51456, Note_on_c, 1, 57, 0
4, 51552, Note_on_c, 1, 45, 80
4, 51552, Note_on_c, 1, 33, 80
4, 51906, Note_on_c, 1, 45, 0
4, 51906, Note_on_c, 1, 33, 0
4, 51936, Note_on_c, 1, 46, 86
4, 51936, Note_on_c, 1, 34, 86
4, 51975, Note_on_c, 1, 46, 0
4, 51975, Note_on_c, 1, 34, 0
4, 52128, Note_on_c, 1, 56, 86
4, 52128, Note_on_c, 1, 44, 86
4, 52167, Note_on_c, 1, 56, 0
4, 52167, Note_on_c, 1, 44, 0
4, 52320, Note_on_c, 1, 57, 86
4, 52320, Note_on_c, 1, 45, 86
4, 52359, Note_on_c, 1, 57, 0
4, 52359, Note_on_c, 1, 45, 0
4, 52512, Note_on_c, 1, 57, 86
4, 52512, Note_on_c, 1, 45, 86
4, 52601, Note_on_c, 1, 57, 0
4, 52601, Note_on_c, 1, 45, 0
4, 52704, Note_on_c, 1, 50, 86
4, 52704, Note_on_c, 1, 38, 86
4, 52793, Note_on_c, 1, 50, 0
4, 52793, Note_on_c, 1, 38, 0
4, 53088, Note_on_c, 1, 50, 86
4, 53088, Note_on_c, 1, 38, 86
4, 53177, Note_on_c, 1, 50, 0
4, 53177, Note_on_c, 1, 38, 0
4, 54624, Note_on_c, 1, 54, 80
4, 54624, Note_on_c, 1, 42, 80
4, 54816, Note_on_c, 1, 54, 0
4, 54816, Note_on_c, 1, 42, 0
4, 54816, Note_on_c, 1, 55, 80
4, 54816, Note_on_c, 1, 43, 80
4, 54905, Note_on_c, 1, 55, 0
4, 54905, Note_on_c, 1, 43, 0
4, 55008, Note_on_c, 1, 60, 75
4, 55185, Note_on_c, 1, 60, 0
4, 55200, Note_on_c, 1, 54, 75
4, 55289, Note_on_c, 1, 54, 0
4, 55296, Note_on_c, 1, 55, 75
4, 55385, Note_on_c, 1, 55, 0
4, 55392, Note_on_c, 1, 63, 91
4, 55536, Note_on_c, 1, 63, 0
4, 55536, Note_on_c, 1, 60, 75
4, 55581, Note_on_c, 1, 60, 0
4, 55584, Note_on_c, 1, 62, 75
4, 55673, Note_on_c, 1, 62, 0
4, 55776, Note_on_c, 1, 50, 96
4, 55968, Note_on_c, 1, 50, 0
4, 55968, Note_on_c, 1, 48, 80
4, 56013, Note_on_c, 1, 48, 0
4, 56016, Note_on_c, 1, 46, 80
4, 56061, Note_on_c, 1, 46, 0
4, 56064, Note_on_c, 1, 45, 80
4, 56109, Note_on_c, 1, 45, 0
4, 56112, Note_on_c, 1, 43, 80
4, 56157, Note_on_c, 1, 43, 0
4, 56160, Note_on_c, 1, 43, 96
4, 56352, Note_on_c, 1, 43, 0
4, 56352, Note_on_c, 1, 42, 80
4, 56441, Note_on_c, 1, 42, 0
4, 56544, Note_on_c, 1, 60, 91
4, 56736, Note_on_c, 1, 60, 0
4, 56736, Note_on_c, 1, 52, 75
4, 56825, Note_on_c, 1, 52, 0
4, 56832, Note_on_c, 1, 53, 75
4, 56921, Note_on_c, 1, 53, 0
4, 56928, Note_on_c, 1, 61, 75
4, 57061, Note_on_c, 1, 61, 0
4, 57072, Note_on_c, 1, 58, 75
4, 57117, Note_on_c, 1, 58, 0
4, 57120, Note_on_c, 1, 60, 75
4, 57209, Note_on_c, 1, 60, 0
4, 57312, Note_on_c, 1, 48, 96
4, 57504, Note_on_c, 1, 48, 0
4, 57504, Note_on_c, 1, 46, 80
4, 57549, Note_on_c, 1, 46, 0
4, 57552, Note_on_c, 1, 44, 80
4, 57597, Note_on_c, 1, 44, 0
4, 57600, Note_on_c, 1, 43, 80
4, 57645, Note_on_c, 1, 43, 0
4, 57648, Note_on_c, 1, 41, 80
4, 57693, Note_on_c, 1, 41, 0
4, 57696, Note_on_c, 1, 41, 96
4, 57888, Note_on_c, 1, 41, 0
4, 57888, Note_on_c, 1, 40, 80
4, 57977, Note_on_c, 1, 40, 0
4, 58080, Note_on_c, 1, 37, 96
4, 58464, Note_on_c, 1, 37, 0
4, 58464, Note_on_c, 1, 36, 70
4, 58487, Note_on_c, 1, 36, 0
4, 58488, Note_on_c, 1, 40, 70
4, 58511, Note_on_c, 1, 40, 0
4, 58512, Note_on_c, 1, 43, 70
4, 58535, Note_on_c, 1, 43, 0
4, 58536, Note_on_c, 1, 40, 70
4, 58559, Note_on_c, 1, 40, 0
4, 58560, Note_on_c, 1, 36, 70
4, 58583, Note_on_c, 1, 36, 0
4, 58584, Note_on_c, 1, 40, 70
4, 58607, Note_on_c, 1, 40, 0
4, 58608, Note_on_c, 1, 43, 70
4, 58631, Note_on_c, 1, 43, 0
4, 58632, Note_on_c, 1, 40, 70
4, 58655, Note_on_c, 1, 40, 0
4, 58656, Note_on_c, 1, 36, 70
4, 58679, Note_on_c, 1, 36, 0
4, 58680, Note_on_c, 1, 40, 70
4, 58703, Note_on_c, 1, 40, 0
4, 58704, Note_on_c, 1, 43, 70
4, 58727, Note_on_c, 1, 43, 0
4, 58728, Note_on_c, 1, 40, 70
4, 58751, Note_on_c, 1, 40, 0
4, 58752, Note_on_c, 1, 36, 70
4, 58775, Note_on_c, 1, 36, 0
4, 58776, Note_on_c, 1, 41, 70
4, 58799, Note_on_c, 1, 41, 0
4, 58800, Note_on_c, 1, 44, 70
4, 58823, Note_on_c, 1, 44, 0
4, 58824, Note_on_c, 1, 41, 70
4, 58847, Note_on_c, 1, 41, 0
4, 58848, Note_on_c, 1, 36, 70
4, 58871, Note_on_c, 1, 36, 0
4, 58872, Note_on_c, 1, 40, 70
4, 58895, Note_on_c, 1, 40, 0
4, 58896, Note_on_c, 1, 43, 70
4, 58919, Note_on_c, 1, 43, 0
4, 58920, Note_on_c, 1, 40, 70
4, 58943, Note_on_c, 1, 40, 0
4, 58944, Note_on_c, 1, 36, 70
4, 58967, Note_on_c, 1, 36, 0
4, 58968, Note_on_c, 1, 40, 70
4, 58991, Note_on_c, 1, 40, 0
4, 58992, Note_on_c, 1, 43, 70
4, 59015, Note_on_c, 1, 43, 0
4, 59016, Note_on_c, 1, 40, 70
4, 59039, Note_on_c, 1, 40, 0
4, 59040, Note_on_c, 1, 36, 70
4, 59063, Note_on_c, 1, 36, 0
4, 59064, Note_on_c, 1, 40, 70
4, 59087, Note_on_c, 1, 40, 0
4, 59088, Note_on_c, 1, 43, 70
4, 59111, Note_on_c, 1, 43, 0
4, 59112, Note_on_c, 1, 40, 70
4, 59135, Note_on_c, 1, 40, 0
4, 59136, Note_on_c, 1, 36, 70
4, 59159, Note_on_c, 1, 36, 0
4, 59160, Note_on_c, 1, 41, 70
4, 59183, Note_on_c, 1, 41, 0
4, 59184, Note_on_c, 1, 44, 70
4, 59207, Note_on_c, 1, 44, 0
4, 59208, Note_on_c, 1, 41, 70
4, 59231, Note_on_c, 1, 41, 0
4, 59232, Note_on_c, 1, 40, 70
4, 59255, Note_on_c, 1, 40, 0
4, 59256, Note_on_c, 1, 43, 70
4, 59279, Note_on_c, 1, 43, 0
4, 59280, Note_on_c, 1, 46, 70
4, 59303, Note_on_c, 1, 46, 0
4, 59304, Note_on_c, 1, 43, 70
4, 59327, Note_on_c, 1, 43, 0
4, 59328, Note_on_c, 1, 40, 70
4, 59351, Note_on_c, 1, 40, 0
4, 59352, Note_on_c, 1, 43, 70
4, 59375, Note_on_c, 1, 43, 0
4, 59376, Note_on_c, 1, 46, 70
4, 59399, Note_on_c, 1, 46, 0
4, 59400, Note_on_c, 1, 43, 70
4, 59423, Note_on_c, 1, 43, 0
4, 59424, Note_on_c, 1, 40, 70
4, 59447, Note_on_c, 1, 40, 0
4, 59448, Note_on_c, 1, 43, 70
4, 59471, Note_on_c, 1, 43, 0
4, 59472, Note_on_c, 1, 46, 70
4, 59495, Note_on_c, 1, 46, 0
4, 59496, Note_on_c, 1, 43, 70
4, 59519, Note_on_c, 1, 43, 0
4, 59520, Note_on_c, 1, 40, 70
4, 59543, Note_on_c, 1, 40, 0
4, 59544, Note_on_c, 1, 44, 70
4, 59567, Note_on_c, 1, 44, 0
4, 59568, Note_on_c, 1, 48, 70
4, 59591, Note_on_c, 1, 48, 0
4, 59592, Note_on_c, 1, 44, 70
4, 59615, Note_on_c, 1, 44, 0
4, 59616, Note_on_c, 1, 40, 70
4, 59639, Note_on_c, 1, 40, 0
4, 59640, Note_on_c, 1, 43, 70
4, 59663, Note_on_c, 1, 43, 0
4, 59664, Note_on_c, 1, 46, 70
4, 59687, Note_on_c, 1, 46, 0
4, 59688, Note_on_c, 1, 43, 70
4, 59711, Note_on_c, 1, 43, 0
4, 59712, Note_on_c, 1, 40, 70
4, 59735, Note_on_c, 1, 40, 0
4, 59736, Note_on_c, 1, 43, 70
4, 59759, Note_on_c, 1, 43, 0
4, 59760, Note_on_c, 1, 46, 70
4, 59783, Note_on_c, 1, 46, 0
4, 59784, Note_on_c, 1, 43, 70
4, 59807, Note_on_c, 1, 43, 0
4, 59808, Note_on_c, 1, 40, 70
4, 59831, Note_on_c, 1, 40, 0
4, 59832, Note_on_c, 1, 43, 70
4, 59855, Note_on_c, 1, 43, 0
4, 59856, Note_on_c, 1, 46, 70
4, 59879, Note_on_c, 1, 46, 0
4, 59880, Note_on_c, 1, 43, 70
4, 59903, Note_on_c, 1, 43, 0
4, 59904, Note_on_c, 1, 40, 70
4, 59927, Note_on_c, 1, 40, 0
4, 59928, Note_on_c, 1, 44, 70
4, 59951, Note_on_c, 1, 44, 0
4, 59952, Note_on_c, 1, 48, 70
4, 59975, Note_on_c, 1, 48, 0
4, 59976, Note_on_c, 1, 44, 70
4, 59999, Note_on_c, 1, 44, 0
4, 60000, Note_on_c, 1, 38, 70
4, 60023, Note_on_c, 1, 38, 0
4, 60024, Note_on_c, 1, 42, 70
4, 60047, Note_on_c, 1, 42, 0
4, 60048, Note_on_c, 1, 45, 70
4, 60071, Note_on_c, 1, 45, 0
4, 60072, Note_on_c, 1, 42, 70
4, 60095, Note_on_c, 1, 42, 0
4, 60096, Note_on_c, 1, 38, 70
4, 60119, Note_on_c, 1, 38, 0
4, 60120, Note_on_c, 1, 42, 70
4, 60143, Note_on_c, 1, 42, 0
4, 60144, Note_on_c, 1, 45, 70
4, 60167, Note_on_c, 1, 45, 0
4, 60168, Note_on_c, 1, 42, 70
4, 60191, Note_on_c, 1, 42, 0
4, 60192, Note_on_c, 1, 38, 70
4, 60215, Note_on_c, 1, 38, 0
4, 60216, Note_on_c, 1, 42, 70
4, 60239, Note_on_c, 1, 42, 0
4, 60240, Note_on_c, 1, 45, 70
4, 60263, Note_on_c, 1, 45, 0
4, 60264, Note_on_c, 1, 42, 70
4, 60287, Note_on_c, 1, 42, 0
4, 60288, Note_on_c, 1, 38, 70
4, 60311, Note_on_c, 1, 38, 0
4, 60312, Note_on_c, 1, 43, 70
4, 60335, Note_on_c, 1, 43, 0
4, 60336, Note_on_c, 1, 46, 70
4, 60359, Note_on_c, 1, 46, 0
4, 60360, Note_on_c, 1, 43, 70
4, 60383, Note_on_c, 1, 43, 0
4, 60384, Note_on_c, 1, 38, 70
4, 60407, Note_on_c, 1, 38, 0
4, 60408, Note_on_c, 1, 42, 70
4, 60431, Note_on_c, 1, 42, 0
4, 60432, Note_on_c, 1, 45, 70
4, 60455, Note_on_c, 1, 45, 0
4, 60456, Note_on_c, 1, 42, 70
4, 60479, Note_on_c, 1, 42, 0
4, 60480, Note_on_c, 1, 38, 70
4, 60503, Note_on_c, 1, 38, 0
4, 60504, Note_on_c, 1, 42, 70
4, 60527, Note_on_c, 1, 42, 0
4, 60528, Note_on_c, 1, 45, 70
4, 60551, Note_on_c, 1, 45, 0
4, 60552, Note_on_c, 1, 42, 70
4, 60575, Note_on_c, 1, 42, 0
4, 60576, Note_on_c, 1, 38, 70
4, 60599, Note_on_c, 1, 38, 0
4, 60600, Note_on_c, 1, 42, 70
4, 60623, Note_on_c, 1, 42, 0
4, 60624, Note_on_c, 1, 45, 70
4, 60647, Note_on_c, 1, 45, 0
4, 60648, Note_on_c, 1, 42, 70
4, 60671, Note_on_c, 1, 42, 0
4, 60672, Note_on_c, 1, 38, 70
4, 60695, Note_on_c, 1, 38, 0
4, 60696, Note_on_c, 1, 43, 70
4, 60719, Note_on_c, 1, 43, 0
4, 60720, Note_on_c, 1, 46, 70
4, 60743, Note_on_c, 1, 46, 0
4, 60744, Note_on_c, 1, 43, 70
4, 60767, Note_on_c, 1, 43, 0
4, 60768, Note_on_c, 1, 42, 70
4, 60791, Note_on_c, 1, 42, 0
4, 60792, Note_on_c, 1, 45, 70
4, 60815, Note_on_c, 1, 45, 0
4, 60816, Note_on_c, 1, 48, 70
4, 60839, Note_on_c, 1, 48, 0
4, 60840, Note_on_c, 1, 45, 70
4, 60863, Note_on_c, 1, 45, 0
4, 60864, Note_on_c, 1, 42, 70
4, 60887, Note_on_c, 1, 42, 0
4, 60888, Note_on_c, 1, 45, 70
4, 60911, Note_on_c, 1, 45, 0
4, 60912, Note_on_c, 1, 48, 70
4, 60935, Note_on_c, 1, 48, 0
4, 60936, Note_on_c, 1, 45, 70
4, 60959, Note_on_c, 1, 45, 0
4, 60960, Note_on_c, 1, 42, 70
4, 60983, Note_on_c, 1, 42, 0
4, 60984, Note_on_c, 1, 45, 70
4, 61007, Note_on_c, 1, 45, 0
4, 61008, Note_on_c, 1, 48, 70
4, 61031, Note_on_c, 1, 48, 0
4, 61032, Note_on_c, 1, 45, 70
4, 61055, Note_on_c, 1, 45, 0
4, 61056, Note_on_c, 1, 42, 70
4, 61079, Note_on_c, 1, 42, 0
4, 61080, Note_on_c, 1, 46, 70
4, 61103, Note_on_c, 1, 46, 0
4, 61104, Note_on_c, 1, 50, 70
4, 61127, Note_on_c, 1, 50, 0
4, 61128, Note_on_c, 1, 46, 70
4, 61151, Note_on_c, 1, 46, 0
4, 61152, Note_on_c, 1, 42, 70
4, 61175, Note_on_c, 1, 42, 0
4, 61176, Note_on_c, 1, 45, 70
4, 61199, Note_on_c, 1, 45, 0
4, 61200, Note_on_c, 1, 48, 70
4, 61223, Note_on_c, 1, 48, 0
4, 61224, Note_on_c, 1, 45, 70
4, 61247, Note_on_c, 1, 45, 0
4, 61248, Note_on_c, 1, 42, 70
4, 61271, Note_on_c, 1, 42, 0
4, 61272, Note_on_c, 1, 45, 70
4, 61295, Note_on_c, 1, 45, 0
4, 61296, Note_on_c, 1, 48, 70
4, 61319, Note_on_c, 1, 48, 0
4, 61320, Note_on_c, 1, 45, 70
4, 61343, Note_on_c, 1, 45, 0
4, 61344, Note_on_c, 1, 42, 70
4, 61367, Note_on_c, 1, 42, 0
4, 61368, Note_on_c, 1, 45, 70
4, 61391, Note_on_c, 1, 45, 0
4, 61392, Note_on_c, 1, 48, 70
4, 61415, Note_on_c, 1, 48, 0
4, 61416, Note_on_c, 1, 45, 70
4, 61439, Note_on_c, 1, 45, 0
4, 61440, Note_on_c, 1, 42, 70
4, 61463, Note_on_c, 1, 42, 0
4, 61464, Note_on_c, 1, 46, 70
4, 61487, Note_on_c, 1, 46, 0
4, 61488, Note_on_c, 1, 50, 70
4, 61511, Note_on_c, 1, 50, 0
4, 61512, Note_on_c, 1, 46, 70
4, 61535, Note_on_c, 1, 46, 0
4, 61536, Note_on_c, 1, 56, 83
4, 61536, Note_on_c, 1, 44, 83
4, 61728, Note_on_c, 1, 56, 0
4, 61728, Note_on_c, 1, 44, 0
4, 61728, Note_on_c, 1, 57, 70
4, 61728, Note_on_c, 1, 45, 70
4, 61767, Note_on_c, 1, 57, 0
4, 61767, Note_on_c, 1, 45, 0
4, 61920, Note_on_c, 1, 54, 83
4, 61920, Note_on_c, 1, 42, 83
4, 62112, Note_on_c, 1, 54, 0
4, 62112, Note_on_c, 1, 42, 0
4, 62112, Note_on_c, 1, 55, 70
4, 62112, Note_on_c, 1, 43, 70
4, 62151, Note_on_c, 1, 55, 0
4, 62151, Note_on_c, 1, 43, 0
4, 62304, Note_on_c, 1, 52, 83
4, 62304, Note_on_c, 1, 40, 83
4, 62496, Note_on_c, 1, 52, 0
4, 62496, Note_on_c, 1, 40, 0
4, 62496, Note_on_c, 1, 53, 70
4, 62496, Note_on_c, 1, 41, 70
4, 62535, Note_on_c, 1, 53, 0
4, 62535, Note_on_c, 1, 41, 0
4, 62688, Note_on_c, 1, 50, 83
4, 62688, Note_on_c, 1, 38, 83
4, 62865, Note_on_c, 1, 50, 0
4, 62865, Note_on_c, 1, 38, 0
4, 62880, Note_on_c, 1, 51, 70
4, 62880, Note_on_c, 1, 39, 70
4, 63057, Note_on_c, 1, 51, 0
4, 63057, Note_on_c, 1, 39, 0
4, 63072, Note_on_c, 1, 49, 83
4, 63072, Note_on_c, 1, 37, 83
4, 63426, Note_on_c, 1, 49, 0
4, 63426, Note_on_c, 1, 37, 0
4, 63456, Note_on_c, 1, 50, 70
4, 63456, Note_on_c, 1, 38, 70
4, 63545, Note_on_c, 1, 50, 0
4, 63545, Note_on_c, 1, 38, 0
4, 63888, Note_on_c, 1, 50, 70
4, 63933, Note_on_c, 1, 50, 0
4, 63936, Note_on_c, 1, 62, 70
4, 63956, Note_on_c, 1, 62, 0
4, 63984, Note_on_c, 1, 57, 70
4, 64004, Note_on_c, 1, 57, 0
4, 64032, Note_on_c, 1, 60, 70
4, 64077, Note_on_c, 1, 60, 0
4, 64080, Note_on_c, 1, 58, 70
4, 64125, Note_on_c, 1, 58, 0
4, 64128, Note_on_c, 1, 57, 70
4, 64173, Note_on_c, 1, 57, 0
4, 64176, Note_on_c, 1, 55, 70
4, 64221, Note_on_c, 1, 55, 0
4, 64224, Note_on_c, 1, 55, 86
4, 64416, Note_on_c, 1, 55, 0
4, 64416, Note_on_c, 1, 54, 70
4, 64505, Note_on_c, 1, 54, 0
4, 64608, Note_on_c, 1, 67, 80
4, 64741, Note_on_c, 1, 67, 0
4, 64752, Note_on_c, 1, 64, 78
4, 64797, Note_on_c, 1, 64, 0
4, 64800, Note_on_c, 1, 67, 78
4, 64845, Note_on_c, 1, 67, 0
4, 64848, Note_on_c, 1, 65, 78
4, 64893, Note_on_c, 1, 65, 0
4, 64896, Note_on_c, 1, 64, 77
4, 64941, Note_on_c, 1, 64, 0
4, 64944, Note_on_c, 1, 62, 77
4, 64989, Note_on_c, 1, 62, 0
4, 64992, Note_on_c, 1, 61, 93
4, 65280, Note_on_c, 1, 61, 0
4, 67488, Note_on_c, 1, 49, 75
4, 67577, Note_on_c, 1, 49, 0
4, 67584, Note_on_c, 1, 50, 75
4, 67673, Note_on_c, 1, 50, 0
4, 67680, Note_on_c, 1, 55, 75
4, 67769, Note_on_c, 1, 55, 0
4, 67872, Note_on_c, 1, 57, 75
4, 67961, Note_on_c, 1, 57, 0
4, 67968, Note_on_c, 1, 45, 75
4, 68057, Note_on_c, 1, 45, 0
4, 68160, Note_on_c, 1, 67, 64
4, 68352, Note_on_c, 1, 67, 0
4, 68352, Note_on_c, 1, 65, 64
4, 68391, Note_on_c, 1, 65, 0
4, 68544, Note_on_c, 1, 73, 64
4, 68736, Note_on_c, 1, 73, 0
4, 68736, Note_on_c, 1, 74, 64
4, 68775, Note_on_c, 1, 74, 0
4, 69120, Note_on_c, 1, 46, 75
4, 69120, Note_on_c, 1, 43, 75
4, 69120, Note_on_c, 1, 39, 75
4, 69120, Note_on_c, 1, 34, 75
4, 69253, Note_on_c, 1, 46, 0
4, 69253, Note_on_c, 1, 43, 0
4, 69253, Note_on_c, 1, 39, 0
4, 69253, Note_on_c, 1, 34, 0
4, 69312, Note_on_c, 1, 62, 64
4, 69342, Note_on_c, 1, 62, 0
4, 69344, Note_on_c, 1, 65, 64
4, 69374, Note_on_c, 1, 65, 0
4, 69376, Note_on_c, 1, 69, 64
4, 69406, Note_on_c, 1, 69, 0
4, 69408, Note_on_c, 1, 62, 64
4, 69438, Note_on_c, 1, 62, 0
4, 69440, Note_on_c, 1, 65, 64
4, 69470, Note_on_c, 1, 65, 0
4, 69472, Note_on_c, 1, 69, 64
4, 69502, Note_on_c, 1, 69, 0
4, 69504, Note_on_c, 1, 62, 64
4, 69534, Note_on_c, 1, 62, 0
4, 69536, Note_on_c, 1, 65, 64
4, 69566, Note_on_c, 1, 65, 0
4, 69568, Note_on_c, 1, 69, 64
4, 69598, Note_on_c, 1, 69, 0
4, 69600, Note_on_c, 1, 62, 64
4, 69630, Note_on_c, 1, 62, 0
4, 69632, Note_on_c, 1, 65, 64
4, 69662, Note_on_c, 1, 65, 0
4, 69664, Note_on_c, 1, 69, 64
4, 69694, Note_on_c, 1, 69, 0
4, 69696, Note_on_c, 1, 62, 64
4, 69726, Note_on_c, 1, 62, 0
4, 69728, Note_on_c, 1, 67, 64
4, 69758, Note_on_c, 1, 67, 0
4, 69760, Note_on_c, 1, 70, 64
4, 69790, Note_on_c, 1, 70, 0
4, 69792, Note_on_c, 1, 62, 64
4, 69822, Note_on_c, 1, 62, 0
4, 69824, Note_on_c, 1, 67, 64
4, 69854, Note_on_c, 1, 67, 0
4, 69856, Note_on_c, 1, 70, 64
4, 69886, Note_on_c, 1, 70, 0
4, 69888, Note_on_c, 1, 62, 64
4, 69918, Note_on_c, 1, 62, 0
4, 69920, Note_on_c, 1, 65, 64
4, 69950, Note_on_c, 1, 65, 0
4, 69952, Note_on_c, 1, 69, 64
4, 69982, Note_on_c, 1, 69, 0
4, 69984, Note_on_c, 1, 62, 64
4, 70014, Note_on_c, 1, 62, 0
4, 70016, Note_on_c, 1, 65, 64
4, 70046, Note_on_c, 1, 65, 0
4, 70048, Note_on_c, 1, 69, 64
4, 70078, Note_on_c, 1, 69, 0
4, 70080, Note_on_c, 1, 61, 64
4, 70110, Note_on_c, 1, 61, 0
4, 70112, Note_on_c, 1, 64, 64
4, 70142, Note_on_c, 1, 64, 0
4, 70144, Note_on_c, 1, 69, 64
4, 70174, Note_on_c, 1, 69, 0
4, 70176, Note_on_c, 1, 61, 64
4, 70206, Note_on_c, 1, 61, 0
4, 70208, Note_on_c, 1, 64, 64
4, 70238, Note_on_c, 1, 64, 0
4, 70240, Note_on_c, 1, 69, 64
4, 70270, Note_on_c, 1, 69, 0
4, 70272, Note_on_c, 1, 62, 64
4, 70302, Note_on_c, 1, 62, 0
4, 70304, Note_on_c, 1, 65, 64
4, 70334, Note_on_c, 1, 65, 0
4, 70336, Note_on_c, 1, 69, 64
4, 70366, Note_on_c, 1, 69, 0
4, 70368, Note_on_c, 1, 62, 64
4, 70398, Note_on_c, 1, 62, 0
4, 70400, Note_on_c, 1, 65, 64
4, 70430, Note_on_c, 1, 65, 0
4, 70432, Note_on_c, 1, 69, 64
4, 70462, Note_on_c, 1, 69, 0
4, 70464, Note_on_c, 1, 57, 64
4, 70494, Note_on_c, 1, 57, 0
4, 70496, Note_on_c, 1, 65, 64
4, 70526, Note_on_c, 1, 65, 0
4, 70528, Note_on_c, 1, 69, 64
4, 70558, Note_on_c, 1, 69, 0
4, 70560, Note_on_c, 1, 57, 64
4, 70590, Note_on_c, 1, 57, 0
4, 70592, Note_on_c, 1, 65, 64
4, 70622, Note_on_c, 1, 65, 0
4, 70624, Note_on_c, 1, 69, 64
4, 70654, Note_on_c, 1, 69, 0
4, 70656, Note_on_c, 1, 57, 64
4, 70686, Note_on_c, 1, 57, 0
4, 70688, Note_on_c, 1, 70, 75
4, 70718, Note_on_c, 1, 70, 0
4, 70720, Note_on_c, 1, 69, 75
4, 70750, Note_on_c, 1, 69, 0
4, 70752, Note_on_c, 1, 67, 76
4, 70782, Note_on_c, 1, 67, 0
4, 70784, Note_on_c, 1, 65, 77
4, 70814, Note_on_c, 1, 65, 0
4, 70816, Note_on_c, 1, 64, 78
4, 70846, Note_on_c, 1, 64, 0
4, 70848, Note_on_c, 1, 65, 80
4, 70937, Note_on_c, 1, 65, 0
4, 70944, Note_on_c, 1, 62, 80
4, 71033, Note_on_c, 1, 62, 0
4, 71040, Note_on_c, 1, 64, 80
4, 71129, Note_on_c, 1, 64, 0
4, 71136, Note_on_c, 1, 65, 80
4, 71225, Note_on_c, 1, 65, 0
4, 71232, Note_on_c, 1, 67, 93
4, 71232, Note_on_c, 1, 63, 93
4, 71232, Note_on_c, 1, 58, 93
4, 71232, Note_on_c, 1, 55, 93
4, 71586, Note_on_c, 1, 67, 0
4, 71586, Note_on_c, 1, 63, 0
4, 71586, Note_on_c, 1, 58, 0
4, 71586, Note_on_c, 1, 55, 0
4, 71616, Note_on_c, 1, 61, 80
4, 71808, Note_on_c, 1, 61, 0
4, 71808, Note_on_c, 1, 62, 76
4, 71897, Note_on_c, 1, 62, 0
4, 72192, Note_on_c, 1, 38, 96
4, 72201, Note_on_c, 1, 41, 96
4, 72210, Note_on_c, 1, 45, 96
4, 72219, Note_on_c, 1, 50, 96
4, 72421, Note_on_c, 1, 50, 0
4, 72421, Note_on_c, 1, 45, 0
4, 72421, Note_on_c, 1, 41, 0
4, 72421, Note_on_c, 1, 38, 0
4, 72576, Note_on_c, 1, 58, 80
4, 72599, Note_on_c, 1, 58, 0
4, 72600, Note_on_c, 1, 57, 80
4, 72623, Note_on_c, 1, 57, 0
4, 72624, Note_on_c, 1, 55, 80
4, 72647, Note_on_c, 1, 55, 0
4, 72648, Note_on_c, 1, 53, 80
4, 72671, Note_on_c, 1, 53, 0
4, 72672, Note_on_c, 1, 52, 80
4, 72702, Note_on_c, 1, 52, 0
4, 72704, Note_on_c, 1, 50, 80
4, 72734, Note_on_c, 1, 50, 0
4, 72736, Note_on_c, 1, 48, 80
4, 72766, Note_on_c, 1, 48, 0
4, 72768, Note_on_c, 1, 46, 80
4, 72798, Note_on_c, 1, 46, 0
4, 72800, Note_on_c, 1, 45, 80
4, 72830, Note_on_c, 1, 45, 0
4, 72832, Note_on_c, 1, 43, 80
4, 72862, Note_on_c, 1, 43, 0
4, 72864, Note_on_c, 1, 41, 80
4, 72894, Note_on_c, 1, 41, 0
4, 72896, Note_on_c, 1, 40, 80
4, 72926, Note_on_c, 1, 40, 0
4, 72928, Note_on_c, 1, 38, 80
4, 72958, Note_on_c, 1, 38, 0
4, 72960, Note_on_c, 1, 40, 80
4, 73137, Note_on_c, 1, 40, 0
4, 73344, Note_on_c, 1, 45, 80
4, 73344, Note_on_c, 1, 33, 80
4, 73521, Note_on_c, 1, 45, 0
4, 73521, Note_on_c, 1, 33, 0
4, 73728, Note_on_c, 1, 48, 80
4, 73728, Note_on_c, 1, 36, 80
4, 73905, Note_on_c, 1, 48, 0
4, 73905, Note_on_c, 1, 36, 0
4, 74112, Note_on_c, 1, 46, 80
4, 74142, Note_on_c, 1, 46, 0
4, 74144, Note_on_c, 1, 50, 80
4, 74174, Note_on_c, 1, 50, 0
4, 74176, Note_on_c, 1, 55, 80
4, 74206, Note_on_c, 1, 55, 0
4, 74208, Note_on_c, 1, 45, 80
4, 74238, Note_on_c, 1, 45, 0
4, 74240, Note_on_c, 1, 50, 80
4, 74270, Note_on_c, 1, 50, 0
4, 74272, Note_on_c, 1, 57, 80
4, 74302, Note_on_c, 1, 57, 0
4, 74304, Note_on_c, 1, 46, 80
4, 74334, Note_on_c, 1, 46, 0
4, 74336, Note_on_c, 1, 50, 80
4, 74366, Note_on_c, 1, 50, 0
4, 74368, Note_on_c, 1, 55, 80
4, 74398, Note_on_c, 1, 55, 0
4, 74400, Note_on_c, 1, 48, 80
4, 74430, Note_on_c, 1, 48, 0
4, 74432, Note_on_c, 1, 50, 80
4, 74462, Note_on_c, 1, 50, 0
4, 74464, Note_on_c, 1, 54, 80
4, 74494, Note_on_c, 1, 54, 0
4, 74496, Note_on_c, 1, 51, 80
4, 74526, Note_on_c, 1, 51, 0
4, 74528, Note_on_c, 1, 50, 80
4, 74558, Note_on_c, 1, 50, 0
4, 74560, Note_on_c, 1, 57, 80
4, 74590, Note_on_c, 1, 57, 0
4, 74592, Note_on_c, 1, 50, 80
4, 74622, Note_on_c, 1, 50, 0
4, 74624, Note_on_c, 1, 50, 80
4, 74654, Note_on_c, 1, 50, 0
4, 74656, Note_on_c, 1, 55, 80
4, 74686, Note_on_c, 1, 55, 0
4, 74688, Note_on_c, 1, 48, 80
4, 74718, Note_on_c, 1, 48, 0
4, 74720, Note_on_c, 1, 50, 80
4, 74750, Note_on_c, 1, 50, 0
4, 74752, Note_on_c, 1, 54, 80
4, 74782, Note_on_c, 1, 54, 0
4, 74784, Note_on_c, 1, 46, 80
4, 74814, Note_on_c, 1, 46, 0
4, 74816, Note_on_c, 1, 50, 80
4, 74846, Note_on_c, 1, 50, 0
4, 74848, Note_on_c, 1, 55, 80
4, 74878, Note_on_c, 1, 55, 0
4, 74880, Note_on_c, 1, 48, 80
4, 74910, Note_on_c, 1, 48, 0
4, 74912, Note_on_c, 1, 51, 80
4, 74942, Note_on_c, 1, 51, 0
4, 74944, Note_on_c, 1, 57, 81
4, 74974, Note_on_c, 1, 57, 0
4, 74976, Note_on_c, 1, 48, 82
4, 75006, Note_on_c, 1, 48, 0
4, 75008, Note_on_c, 1, 51, 83
4, 75038, Note_on_c, 1, 51, 0
4, 75040, Note_on_c, 1, 57, 84
4, 75070, Note_on_c, 1, 57, 0
4, 75072, Note_on_c, 1, 49, 85
4, 75095, Note_on_c, 1, 49, 0
4, 75096, Note_on_c, 1, 52, 86
4, 75119, Note_on_c, 1, 52, 0
4, 75120, Note_on_c, 1, 55, 86
4, 75143, Note_on_c, 1, 55, 0
4, 75144, Note_on_c, 1, 52, 86
4, 75167, Note_on_c, 1, 52, 0
4, 75168, Note_on_c, 1, 49, 86
4, 75191, Note_on_c, 1, 49, 0
4, 75192, Note_on_c, 1, 52, 86
4, 75215, Note_on_c, 1, 52, 0
4, 75216, Note_on_c, 1, 55, 86
4, 75239, Note_on_c, 1, 55, 0
4, 75240, Note_on_c, 1, 52, 86
4, 75263, Note_on_c, 1, 52, 0
4, 75264, Note_on_c, 1, 50, 86
4, 75353, Note_on_c, 1, 50, 0
4, 75696, Note_on_c, 1, 69, 64
4, 75741, Note_on_c, 1, 69, 0
4, 75744, Note_on_c, 1, 66, 64
4, 75789, Note_on_c, 1, 66, 0
4, 75792, Note_on_c, 1, 69, 64
4, 75837, Note_on_c, 1, 69, 0
4, 75888, Note_on_c, 1, 69, 64
4, 75933, Note_on_c, 1, 69, 0
4, 75936, Note_on_c, 1, 66, 64
4, 75981, Note_on_c, 1, 66, 0
4, 75984, Note_on_c, 1, 69, 64
4, 76029, Note_on_c, 1, 69, 0
4, 76080, Note_on_c, 1, 69, 64
4, 76125, Note_on_c, 1, 69, 0
4, 76128, Note_on_c, 1, 66, 64
4, 76173, Note_on_c, 1, 66, 0
4, 76176, Note_on_c, 1, 69, 64
4, 76221, Note_on_c, 1, 69, 0
4, 76224, Note_on_c, 1, 67, 64
4, 76271, Note_on_c, 1, 67, 0
4, 76272, Note_on_c, 1, 67, 64
4, 76317, Note_on_c, 1, 67, 0
4, 76320, Note_on_c, 1, 66, 64
4, 76365, Note_on_c, 1, 66, 0
4, 76368, Note_on_c, 1, 67, 64
4, 76413, Note_on_c, 1, 67, 0
4, 76464, Note_on_c, 1, 76, 64
4, 76509, Note_on_c, 1, 76, 0
4, 76512, Note_on_c, 1, 73, 64
4, 76557, Note_on_c, 1, 73, 0
4, 76560, Note_on_c, 1, 76, 64
4, 76605, Note_on_c, 1, 76, 0
4, 76608, Note_on_c, 1, 73, 64
4, 76697, Note_on_c, 1, 73, 0
4, 76992, Note_on_c, 1, 57, 96
4, 77040, Note_on_c, 1, 57, 0
4, 77040, Note_on_c, 1, 58, 80
4, 77055, Note_on_c, 1, 58, 0
4, 77056, Note_on_c, 1, 57, 80
4, 77071, Note_on_c, 1, 57, 0
4, 77072, Note_on_c, 1, 55, 80
4, 77087, Note_on_c, 1, 55, 0
4, 77088, Note_on_c, 1, 57, 80
4, 77133, Note_on_c, 1, 57, 0
4, 77136, Note_on_c, 1, 62, 80
4, 77156, Note_on_c, 1, 62, 0
4, 77184, Note_on_c, 1, 53, 96
4, 77232, Note_on_c, 1, 53, 0
4, 77232, Note_on_c, 1, 55, 80
4, 77247, Note_on_c, 1, 55, 0
4, 77248, Note_on_c, 1, 53, 80
4, 77263, Note_on_c, 1, 53, 0
4, 77264, Note_on_c, 1, 52, 80
4, 77279, Note_on_c, 1, 52, 0
4, 77280, Note_on_c, 1, 53, 80
4, 77325, Note_on_c, 1, 53, 0
4, 77328, Note_on_c, 1, 57, 80
4, 77348, Note_on_c, 1, 57, 0
4, 77376, Note_on_c, 1, 57, 96
4, 77472, Note_on_c, 1, 57, 0
4, 77568, Note_on_c, 1, 45, 80
4, 77568, Note_on_c, 1, 33, 80
4, 77922, Note_on_c, 1, 45, 0
4, 77922, Note_on_c, 1, 33, 0
4, 77952, Note_on_c, 1, 46, 86
4, 77952, Note_on_c, 1, 34, 86
4, 77991, Note_on_c, 1, 46, 0
4, 77991, Note_on_c, 1, 34, 0
4, 78144, Note_on_c, 1, 56, 86
4, 78144, Note_on_c, 1, 44, 86
4, 78183, Note_on_c, 1, 56, 0
4, 78183, Note_on_c, 1, 44, 0
4, 78336, Note_on_c, 1, 57, 86
4, 78336, Note_on_c, 1, 45, 86
4, 78375, Note_on_c, 1, 57, 0
4, 78375, Note_on_c, 1, 45, 0
4, 78528, Note_on_c, 1, 57, 86
4, 78528, Note_on_c, 1, 45, 86
4, 78617, Note_on_c, 1, 57, 0
4, 78617, Note_on_c, 1, 45, 0
4, 78720, Note_on_c, 1, 50, 86
4, 78720, Note_on_c, 1, 38, 86
4, 78809, Note_on_c, 1, 50, 0
4, 78809, Note_on_c, 1, 38, 0
4, 79104, Note_on_c, 1, 50, 86
4, 79104, Note_on_c, 1, 38, 86
4, 79193, Note_on_c, 1, 50, 0
4, 79193, Note_on_c, 1, 38, 0
4, 80640, End_track
5, 0, Start_track
5, 0, Program_c, 1, 0
5, 0, Control_c, 1, 7, 127
5, 0, Control_c, 1, 10, 64
5, 80640, End_track
6, 0, Start_track
6, 0, Title_t, "Sonata I   Haydn  "
6, 0, End_track
0, 0, End_of_file
