0, 0, Header, 1, 5, 96
1, 0, Start_track
1, 0, Copyright_t, "Copyright  1994-2002 Mozart Music Software"
1, 0, Sequencer_specific, 16, 68, 87, 77, 90, 86, 82, 83, 78, 32, 55, 46, 48, 46, 55, 46, 48
1, 0, Time_signature, 3, 2, 24, 8
1, 0, Tempo, 705882
1, 0, Key_signature, -1, "major"
1, 53280, End_track
2, 0, Start_track
2, 0, Program_c, 0, 0
2, 0, Control_c, 0, 7, 127
2, 0, Control_c, 0, 10, 64
2, 24, Note_on_c, 0, 60, 70
2, 47, Note_on_c, 0, 60, 0
2, 48, Note_on_c, 0, 62, 70
2, 71, Note_on_c, 0, 62, 0
2, 72, Note_on_c, 0, 64, 70
2, 95, Note_on_c, 0, 64, 0
2, 96, Note_on_c, 0, 65, 70
2, 119, Note_on_c, 0, 65, 0
2, 120, Note_on_c, 0, 67, 71
2, 143, Note_on_c, 0, 67, 0
2, 144, Note_on_c, 0, 69, 72
2, 167, Note_on_c, 0, 69, 0
2, 168, Note_on_c, 0, 70, 73
2, 191, Note_on_c, 0, 70, 0
2, 192, Note_on_c, 0, 72, 75
2, 215, Note_on_c, 0, 72, 0
2, 216, Note_on_c, 0, 69, 73
2, 239, Note_on_c, 0, 69, 0
2, 240, Note_on_c, 0, 67, 72
2, 263, Note_on_c, 0, 67, 0
2, 264, Note_on_c, 0, 65, 71
2, 287, Note_on_c, 0, 65, 0
2, 288, Note_on_c, 0, 65, 70
2, 480, Note_on_c, 0, 65, 0
2, 480, Note_on_c, 0, 64, 70
2, 569, Note_on_c, 0, 64, 0
2, 600, Note_on_c, 0, 72, 70
2, 623, Note_on_c, 0, 72, 0
2, 624, Note_on_c, 0, 70, 70
2, 647, Note_on_c, 0, 70, 0
2, 648, Note_on_c, 0, 69, 70
2, 671, Note_on_c, 0, 69, 0
2, 672, Note_on_c, 0, 67, 70
2, 695, Note_on_c, 0, 67, 0
2, 696, Note_on_c, 0, 65, 70
2, 719, Note_on_c, 0, 65, 0
2, 720, Note_on_c, 0, 64, 70
2, 743, Note_on_c, 0, 64, 0
2, 744, Note_on_c, 0, 65, 70
2, 767, Note_on_c, 0, 65, 0
2, 768, Note_on_c, 0, 77, 70
2, 791, Note_on_c, 0, 77, 0
2, 792, Note_on_c, 0, 76, 70
2, 815, Note_on_c, 0, 76, 0
2, 816, Note_on_c, 0, 74, 70
2, 839, Note_on_c, 0, 74, 0
2, 840, Note_on_c, 0, 72, 70
2, 863, Note_on_c, 0, 72, 0
2, 864, Note_on_c, 0, 72, 70
2, 953, Note_on_c, 0, 72, 0
2, 960, Note_on_c, 0, 70, 70
2, 1175, Note_on_c, 0, 70, 0
2, 1176, Note_on_c, 0, 67, 70
2, 1199, Note_on_c, 0, 67, 0
2, 1200, Note_on_c, 0, 69, 70
2, 1223, Note_on_c, 0, 69, 0
2, 1224, Note_on_c, 0, 70, 70
2, 1247, Note_on_c, 0, 70, 0
2, 1248, Note_on_c, 0, 72, 70
2, 1271, Note_on_c, 0, 72, 0
2, 1272, Note_on_c, 0, 74, 71
2, 1295, Note_on_c, 0, 74, 0
2, 1296, Note_on_c, 0, 76, 73
2, 1319, Note_on_c, 0, 76, 0
2, 1320, Note_on_c, 0, 77, 75
2, 1343, Note_on_c, 0, 77, 0
2, 1344, Note_on_c, 0, 79, 74
2, 1367, Note_on_c, 0, 79, 0
2, 1368, Note_on_c, 0, 76, 73
2, 1391, Note_on_c, 0, 76, 0
2, 1392, Note_on_c, 0, 72, 72
2, 1415, Note_on_c, 0, 72, 0
2, 1416, Note_on_c, 0, 70, 71
2, 1439, Note_on_c, 0, 70, 0
2, 1440, Note_on_c, 0, 70, 86
2, 1536, Note_on_c, 0, 70, 0
2, 1536, Note_on_c, 0, 69, 70
2, 1625, Note_on_c, 0, 69, 0
2, 1632, Note_on_c, 0, 77, 70
2, 1655, Note_on_c, 0, 77, 0
2, 1656, Note_on_c, 0, 76, 70
2, 1679, Note_on_c, 0, 76, 0
2, 1680, Note_on_c, 0, 74, 70
2, 1703, Note_on_c, 0, 74, 0
2, 1704, Note_on_c, 0, 72, 70
2, 1727, Note_on_c, 0, 72, 0
2, 1728, Note_on_c, 0, 74, 70
2, 1751, Note_on_c, 0, 74, 0
2, 1752, Note_on_c, 0, 70, 70
2, 1775, Note_on_c, 0, 70, 0
2, 1776, Note_on_c, 0, 69, 70
2, 1799, Note_on_c, 0, 69, 0
2, 1800, Note_on_c, 0, 67, 70
2, 1823, Note_on_c, 0, 67, 0
2, 1824, Note_on_c, 0, 70, 70
2, 1847, Note_on_c, 0, 70, 0
2, 1848, Note_on_c, 0, 69, 70
2, 1871, Note_on_c, 0, 69, 0
2, 1872, Note_on_c, 0, 72, 70
2, 1895, Note_on_c, 0, 72, 0
2, 1896, Note_on_c, 0, 65, 70
2, 1906, Note_on_c, 0, 65, 0
2, 1920, Note_on_c, 0, 69, 70
2, 1943, Note_on_c, 0, 69, 0
2, 1944, Note_on_c, 0, 67, 70
2, 1967, Note_on_c, 0, 67, 0
2, 1968, Note_on_c, 0, 65, 70
2, 1991, Note_on_c, 0, 65, 0
2, 1992, Note_on_c, 0, 64, 70
2, 2015, Note_on_c, 0, 64, 0
2, 2016, Note_on_c, 0, 65, 70
2, 2039, Note_on_c, 0, 65, 0
2, 2040, Note_on_c, 0, 57, 70
2, 2063, Note_on_c, 0, 57, 0
2, 2064, Note_on_c, 0, 58, 70
2, 2087, Note_on_c, 0, 58, 0
2, 2088, Note_on_c, 0, 60, 70
2, 2111, Note_on_c, 0, 60, 0
2, 2112, Note_on_c, 0, 62, 71
2, 2135, Note_on_c, 0, 62, 0
2, 2136, Note_on_c, 0, 64, 71
2, 2159, Note_on_c, 0, 64, 0
2, 2160, Note_on_c, 0, 65, 72
2, 2183, Note_on_c, 0, 65, 0
2, 2184, Note_on_c, 0, 67, 72
2, 2207, Note_on_c, 0, 67, 0
2, 2208, Note_on_c, 0, 69, 72
2, 2231, Note_on_c, 0, 69, 0
2, 2232, Note_on_c, 0, 67, 73
2, 2255, Note_on_c, 0, 67, 0
2, 2256, Note_on_c, 0, 70, 73
2, 2279, Note_on_c, 0, 70, 0
2, 2280, Note_on_c, 0, 69, 74
2, 2303, Note_on_c, 0, 69, 0
2, 2304, Note_on_c, 0, 72, 74
2, 2327, Note_on_c, 0, 72, 0
2, 2328, Note_on_c, 0, 65, 70
2, 2351, Note_on_c, 0, 65, 0
2, 2352, Note_on_c, 0, 67, 70
2, 2375, Note_on_c, 0, 67, 0
2, 2376, Note_on_c, 0, 69, 70
2, 2399, Note_on_c, 0, 69, 0
2, 2400, Note_on_c, 0, 70, 71
2, 2423, Note_on_c, 0, 70, 0
2, 2424, Note_on_c, 0, 72, 71
2, 2447, Note_on_c, 0, 72, 0
2, 2448, Note_on_c, 0, 74, 72
2, 2471, Note_on_c, 0, 74, 0
2, 2472, Note_on_c, 0, 76, 72
2, 2495, Note_on_c, 0, 76, 0
2, 2496, Note_on_c, 0, 77, 73
2, 2519, Note_on_c, 0, 77, 0
2, 2520, Note_on_c, 0, 79, 73
2, 2543, Note_on_c, 0, 79, 0
2, 2544, Note_on_c, 0, 81, 74
2, 2567, Note_on_c, 0, 81, 0
2, 2568, Note_on_c, 0, 77, 74
2, 2591, Note_on_c, 0, 77, 0
2, 2592, Note_on_c, 0, 82, 75
2, 2903, Note_on_c, 0, 82, 0
2, 2904, Note_on_c, 0, 84, 75
2, 2927, Note_on_c, 0, 84, 0
2, 2928, Note_on_c, 0, 82, 75
2, 2951, Note_on_c, 0, 82, 0
2, 2952, Note_on_c, 0, 81, 75
2, 2975, Note_on_c, 0, 81, 0
2, 2976, Note_on_c, 0, 79, 75
2, 2999, Note_on_c, 0, 79, 0
2, 3000, Note_on_c, 0, 77, 75
2, 3023, Note_on_c, 0, 77, 0
2, 3024, Note_on_c, 0, 76, 75
2, 3047, Note_on_c, 0, 76, 0
2, 3048, Note_on_c, 0, 74, 75
2, 3071, Note_on_c, 0, 74, 0
2, 3072, Note_on_c, 0, 72, 75
2, 3095, Note_on_c, 0, 72, 0
2, 3096, Note_on_c, 0, 79, 75
2, 3119, Note_on_c, 0, 79, 0
2, 3120, Note_on_c, 0, 72, 75
2, 3143, Note_on_c, 0, 72, 0
2, 3144, Note_on_c, 0, 70, 75
2, 3167, Note_on_c, 0, 70, 0
2, 3168, Note_on_c, 0, 69, 75
2, 3191, Note_on_c, 0, 69, 0
2, 3192, Note_on_c, 0, 81, 75
2, 3215, Note_on_c, 0, 81, 0
2, 3216, Note_on_c, 0, 79, 75
2, 3239, Note_on_c, 0, 79, 0
2, 3240, Note_on_c, 0, 77, 75
2, 3263, Note_on_c, 0, 77, 0
2, 3264, Note_on_c, 0, 76, 75
2, 3287, Note_on_c, 0, 76, 0
2, 3288, Note_on_c, 0, 77, 75
2, 3311, Note_on_c, 0, 77, 0
2, 3312, Note_on_c, 0, 76, 75
2, 3335, Note_on_c, 0, 76, 0
2, 3336, Note_on_c, 0, 74, 75
2, 3359, Note_on_c, 0, 74, 0
2, 3360, Note_on_c, 0, 72, 75
2, 3383, Note_on_c, 0, 72, 0
2, 3384, Note_on_c, 0, 77, 75
2, 3407, Note_on_c, 0, 77, 0
2, 3408, Note_on_c, 0, 76, 75
2, 3431, Note_on_c, 0, 76, 0
2, 3432, Note_on_c, 0, 75, 75
2, 3455, Note_on_c, 0, 75, 0
2, 3456, Note_on_c, 0, 74, 75
2, 3479, Note_on_c, 0, 74, 0
2, 3480, Note_on_c, 0, 70, 74
2, 3503, Note_on_c, 0, 70, 0
2, 3504, Note_on_c, 0, 69, 74
2, 3527, Note_on_c, 0, 69, 0
2, 3528, Note_on_c, 0, 67, 73
2, 3551, Note_on_c, 0, 67, 0
2, 3552, Note_on_c, 0, 70, 73
2, 3575, Note_on_c, 0, 70, 0
2, 3576, Note_on_c, 0, 69, 72
2, 3599, Note_on_c, 0, 69, 0
2, 3600, Note_on_c, 0, 72, 72
2, 3623, Note_on_c, 0, 72, 0
2, 3624, Note_on_c, 0, 65, 72
2, 3647, Note_on_c, 0, 65, 0
2, 3648, Note_on_c, 0, 69, 71
2, 3671, Note_on_c, 0, 69, 0
2, 3672, Note_on_c, 0, 67, 71
2, 3695, Note_on_c, 0, 67, 0
2, 3696, Note_on_c, 0, 65, 70
2, 3719, Note_on_c, 0, 65, 0
2, 3720, Note_on_c, 0, 64, 70
2, 3743, Note_on_c, 0, 64, 0
2, 3744, Note_on_c, 0, 65, 70
2, 3833, Note_on_c, 0, 65, 0
2, 4032, Note_on_c, 0, 81, 58
2, 4052, Note_on_c, 0, 81, 0
2, 4080, Note_on_c, 0, 74, 58
2, 4092, Note_on_c, 0, 74, 0
2, 4092, Note_on_c, 0, 73, 58
2, 4104, Note_on_c, 0, 73, 0
2, 4104, Note_on_c, 0, 71, 58
2, 4116, Note_on_c, 0, 71, 0
2, 4116, Note_on_c, 0, 73, 58
2, 4128, Note_on_c, 0, 73, 0
2, 4128, Note_on_c, 0, 74, 59
2, 4148, Note_on_c, 0, 74, 0
2, 4176, Note_on_c, 0, 77, 60
2, 4188, Note_on_c, 0, 77, 0
2, 4188, Note_on_c, 0, 76, 60
2, 4200, Note_on_c, 0, 76, 0
2, 4200, Note_on_c, 0, 74, 60
2, 4212, Note_on_c, 0, 74, 0
2, 4212, Note_on_c, 0, 76, 60
2, 4224, Note_on_c, 0, 76, 0
2, 4224, Note_on_c, 0, 77, 61
2, 4269, Note_on_c, 0, 77, 0
2, 4272, Note_on_c, 0, 81, 62
2, 4317, Note_on_c, 0, 81, 0
2, 4320, Note_on_c, 0, 79, 63
2, 4340, Note_on_c, 0, 79, 0
2, 4368, Note_on_c, 0, 72, 63
2, 4380, Note_on_c, 0, 72, 0
2, 4380, Note_on_c, 0, 71, 63
2, 4392, Note_on_c, 0, 71, 0
2, 4392, Note_on_c, 0, 69, 63
2, 4404, Note_on_c, 0, 69, 0
2, 4404, Note_on_c, 0, 71, 64
2, 4416, Note_on_c, 0, 71, 0
2, 4416, Note_on_c, 0, 72, 64
2, 4436, Note_on_c, 0, 72, 0
2, 4464, Note_on_c, 0, 76, 65
2, 4476, Note_on_c, 0, 76, 0
2, 4476, Note_on_c, 0, 74, 66
2, 4488, Note_on_c, 0, 74, 0
2, 4488, Note_on_c, 0, 72, 66
2, 4500, Note_on_c, 0, 72, 0
2, 4500, Note_on_c, 0, 74, 66
2, 4512, Note_on_c, 0, 74, 0
2, 4512, Note_on_c, 0, 76, 67
2, 4557, Note_on_c, 0, 76, 0
2, 4560, Note_on_c, 0, 79, 68
2, 4605, Note_on_c, 0, 79, 0
2, 4608, Note_on_c, 0, 77, 70
2, 4628, Note_on_c, 0, 77, 0
2, 4656, Note_on_c, 0, 73, 70
2, 4701, Note_on_c, 0, 73, 0
2, 4704, Note_on_c, 0, 74, 70
2, 4749, Note_on_c, 0, 74, 0
2, 4752, Note_on_c, 0, 72, 70
2, 4797, Note_on_c, 0, 72, 0
2, 4800, Note_on_c, 0, 71, 70
2, 4845, Note_on_c, 0, 71, 0
2, 4848, Note_on_c, 0, 66, 70
2, 4893, Note_on_c, 0, 66, 0
2, 4896, Note_on_c, 0, 67, 70
2, 4985, Note_on_c, 0, 67, 0
2, 5040, Note_on_c, 0, 77, 70
2, 5085, Note_on_c, 0, 77, 0
2, 5088, Note_on_c, 0, 79, 70
2, 5098, Note_on_c, 0, 79, 0
2, 5098, Note_on_c, 0, 77, 70
2, 5108, Note_on_c, 0, 77, 0
2, 5108, Note_on_c, 0, 79, 70
2, 5118, Note_on_c, 0, 79, 0
2, 5118, Note_on_c, 0, 77, 70
2, 5128, Note_on_c, 0, 77, 0
2, 5128, Note_on_c, 0, 79, 70
2, 5138, Note_on_c, 0, 79, 0
2, 5138, Note_on_c, 0, 77, 70
2, 5148, Note_on_c, 0, 77, 0
2, 5148, Note_on_c, 0, 79, 70
2, 5157, Note_on_c, 0, 79, 0
2, 5157, Note_on_c, 0, 77, 70
2, 5166, Note_on_c, 0, 77, 0
2, 5166, Note_on_c, 0, 76, 70
2, 5175, Note_on_c, 0, 76, 0
2, 5175, Note_on_c, 0, 77, 70
2, 5184, Note_on_c, 0, 77, 0
2, 5184, Note_on_c, 0, 76, 70
2, 5229, Note_on_c, 0, 76, 0
2, 5232, Note_on_c, 0, 71, 70
2, 5277, Note_on_c, 0, 71, 0
2, 5280, Note_on_c, 0, 72, 70
2, 5325, Note_on_c, 0, 72, 0
2, 5328, Note_on_c, 0, 84, 86
2, 5424, Note_on_c, 0, 84, 0
2, 5424, Note_on_c, 0, 82, 70
2, 5469, Note_on_c, 0, 82, 0
2, 5472, Note_on_c, 0, 81, 70
2, 5492, Note_on_c, 0, 81, 0
2, 5520, Note_on_c, 0, 73, 70
2, 5565, Note_on_c, 0, 73, 0
2, 5568, Note_on_c, 0, 74, 70
2, 5613, Note_on_c, 0, 74, 0
2, 5616, Note_on_c, 0, 76, 70
2, 5661, Note_on_c, 0, 76, 0
2, 5664, Note_on_c, 0, 77, 70
2, 5684, Note_on_c, 0, 77, 0
2, 5712, Note_on_c, 0, 77, 70
2, 5757, Note_on_c, 0, 77, 0
2, 5760, Note_on_c, 0, 76, 70
2, 5770, Note_on_c, 0, 76, 0
2, 5770, Note_on_c, 0, 77, 70
2, 5780, Note_on_c, 0, 77, 0
2, 5780, Note_on_c, 0, 79, 70
2, 5790, Note_on_c, 0, 79, 0
2, 5790, Note_on_c, 0, 77, 70
2, 5800, Note_on_c, 0, 77, 0
2, 5800, Note_on_c, 0, 79, 70
2, 5810, Note_on_c, 0, 79, 0
2, 5810, Note_on_c, 0, 77, 70
2, 5820, Note_on_c, 0, 77, 0
2, 5820, Note_on_c, 0, 79, 70
2, 5830, Note_on_c, 0, 79, 0
2, 5830, Note_on_c, 0, 77, 70
2, 5840, Note_on_c, 0, 77, 0
2, 5840, Note_on_c, 0, 79, 70
2, 5850, Note_on_c, 0, 79, 0
2, 5850, Note_on_c, 0, 77, 70
2, 5860, Note_on_c, 0, 77, 0
2, 5860, Note_on_c, 0, 79, 70
2, 5870, Note_on_c, 0, 79, 0
2, 5870, Note_on_c, 0, 77, 71
2, 5880, Note_on_c, 0, 77, 0
2, 5880, Note_on_c, 0, 79, 71
2, 5890, Note_on_c, 0, 79, 0
2, 5890, Note_on_c, 0, 77, 71
2, 5900, Note_on_c, 0, 77, 0
2, 5900, Note_on_c, 0, 79, 71
2, 5910, Note_on_c, 0, 79, 0
2, 5910, Note_on_c, 0, 77, 71
2, 5920, Note_on_c, 0, 77, 0
2, 5920, Note_on_c, 0, 79, 71
2, 5930, Note_on_c, 0, 79, 0
2, 5930, Note_on_c, 0, 77, 71
2, 5940, Note_on_c, 0, 77, 0
2, 5940, Note_on_c, 0, 79, 71
2, 5949, Note_on_c, 0, 79, 0
2, 5949, Note_on_c, 0, 77, 71
2, 5958, Note_on_c, 0, 77, 0
2, 5958, Note_on_c, 0, 79, 72
2, 5967, Note_on_c, 0, 79, 0
2, 5967, Note_on_c, 0, 77, 72
2, 5976, Note_on_c, 0, 77, 0
2, 5976, Note_on_c, 0, 79, 72
2, 5985, Note_on_c, 0, 79, 0
2, 5985, Note_on_c, 0, 77, 72
2, 5994, Note_on_c, 0, 77, 0
2, 5994, Note_on_c, 0, 79, 72
2, 6003, Note_on_c, 0, 79, 0
2, 6003, Note_on_c, 0, 77, 72
2, 6012, Note_on_c, 0, 77, 0
2, 6012, Note_on_c, 0, 76, 72
2, 6030, Note_on_c, 0, 76, 0
2, 6030, Note_on_c, 0, 77, 72
2, 6048, Note_on_c, 0, 77, 0
2, 6048, Note_on_c, 0, 76, 75
2, 6071, Note_on_c, 0, 76, 0
2, 6072, Note_on_c, 0, 79, 75
2, 6095, Note_on_c, 0, 79, 0
2, 6096, Note_on_c, 0, 74, 75
2, 6119, Note_on_c, 0, 74, 0
2, 6120, Note_on_c, 0, 77, 75
2, 6143, Note_on_c, 0, 77, 0
2, 6144, Note_on_c, 0, 72, 75
2, 6167, Note_on_c, 0, 72, 0
2, 6168, Note_on_c, 0, 76, 75
2, 6191, Note_on_c, 0, 76, 0
2, 6192, Note_on_c, 0, 71, 75
2, 6215, Note_on_c, 0, 71, 0
2, 6216, Note_on_c, 0, 74, 75
2, 6239, Note_on_c, 0, 74, 0
2, 6240, Note_on_c, 0, 72, 75
2, 6263, Note_on_c, 0, 72, 0
2, 6264, Note_on_c, 0, 76, 75
2, 6287, Note_on_c, 0, 76, 0
2, 6288, Note_on_c, 0, 67, 75
2, 6311, Note_on_c, 0, 67, 0
2, 6312, Note_on_c, 0, 70, 75
2, 6335, Note_on_c, 0, 70, 0
2, 6336, Note_on_c, 0, 69, 70
2, 6360, Note_on_c, 0, 69, 0
2, 6360, Note_on_c, 0, 81, 70
2, 6383, Note_on_c, 0, 81, 0
2, 6384, Note_on_c, 0, 77, 70
2, 6394, Note_on_c, 0, 77, 0
2, 6408, Note_on_c, 0, 74, 70
2, 6418, Note_on_c, 0, 74, 0
2, 6432, Note_on_c, 0, 67, 70
2, 6456, Note_on_c, 0, 67, 0
2, 6456, Note_on_c, 0, 79, 70
2, 6479, Note_on_c, 0, 79, 0
2, 6480, Note_on_c, 0, 76, 70
2, 6490, Note_on_c, 0, 76, 0
2, 6504, Note_on_c, 0, 72, 70
2, 6514, Note_on_c, 0, 72, 0
2, 6528, Note_on_c, 0, 65, 70
2, 6552, Note_on_c, 0, 65, 0
2, 6552, Note_on_c, 0, 77, 70
2, 6575, Note_on_c, 0, 77, 0
2, 6576, Note_on_c, 0, 74, 70
2, 6586, Note_on_c, 0, 74, 0
2, 6600, Note_on_c, 0, 71, 70
2, 6610, Note_on_c, 0, 71, 0
2, 6624, Note_on_c, 0, 72, 70
2, 6634, Note_on_c, 0, 72, 0
2, 6648, Note_on_c, 0, 64, 70
2, 6671, Note_on_c, 0, 64, 0
2, 6672, Note_on_c, 0, 62, 70
2, 6695, Note_on_c, 0, 62, 0
2, 6696, Note_on_c, 0, 64, 70
2, 6719, Note_on_c, 0, 64, 0
2, 6720, Note_on_c, 0, 72, 70
2, 6730, Note_on_c, 0, 72, 0
2, 6744, Note_on_c, 0, 65, 70
2, 6767, Note_on_c, 0, 65, 0
2, 6768, Note_on_c, 0, 64, 70
2, 6791, Note_on_c, 0, 64, 0
2, 6792, Note_on_c, 0, 65, 70
2, 6815, Note_on_c, 0, 65, 0
2, 6816, Note_on_c, 0, 72, 70
2, 6826, Note_on_c, 0, 72, 0
2, 6840, Note_on_c, 0, 67, 70
2, 6863, Note_on_c, 0, 67, 0
2, 6864, Note_on_c, 0, 65, 70
2, 6887, Note_on_c, 0, 65, 0
2, 6888, Note_on_c, 0, 67, 70
2, 6911, Note_on_c, 0, 67, 0
2, 6912, Note_on_c, 0, 70, 70
2, 6936, Note_on_c, 0, 70, 0
2, 6936, Note_on_c, 0, 69, 70
2, 6959, Note_on_c, 0, 69, 0
2, 6960, Note_on_c, 0, 67, 70
2, 6970, Note_on_c, 0, 67, 0
2, 6984, Note_on_c, 0, 65, 70
2, 6994, Note_on_c, 0, 65, 0
2, 7008, Note_on_c, 0, 64, 70
2, 7008, Note_on_c, 0, 60, 70
2, 7097, Note_on_c, 0, 64, 0
2, 7097, Note_on_c, 0, 60, 0
2, 7104, Note_on_c, 0, 62, 70
2, 7104, Note_on_c, 0, 59, 70
2, 7193, Note_on_c, 0, 62, 0
2, 7193, Note_on_c, 0, 59, 0
2, 7224, Note_on_c, 0, 64, 70
2, 7224, Note_on_c, 0, 60, 70
2, 7247, Note_on_c, 0, 64, 0
2, 7247, Note_on_c, 0, 60, 0
2, 7248, Note_on_c, 0, 65, 70
2, 7248, Note_on_c, 0, 62, 70
2, 7271, Note_on_c, 0, 65, 0
2, 7271, Note_on_c, 0, 62, 0
2, 7272, Note_on_c, 0, 67, 70
2, 7272, Note_on_c, 0, 64, 70
2, 7295, Note_on_c, 0, 67, 0
2, 7295, Note_on_c, 0, 64, 0
2, 7296, Note_on_c, 0, 69, 71
2, 7296, Note_on_c, 0, 65, 71
2, 7319, Note_on_c, 0, 69, 0
2, 7319, Note_on_c, 0, 65, 0
2, 7320, Note_on_c, 0, 71, 71
2, 7320, Note_on_c, 0, 67, 71
2, 7343, Note_on_c, 0, 71, 0
2, 7343, Note_on_c, 0, 67, 0
2, 7344, Note_on_c, 0, 72, 72
2, 7344, Note_on_c, 0, 69, 72
2, 7367, Note_on_c, 0, 72, 0
2, 7367, Note_on_c, 0, 69, 0
2, 7368, Note_on_c, 0, 74, 73
2, 7368, Note_on_c, 0, 71, 73
2, 7391, Note_on_c, 0, 74, 0
2, 7391, Note_on_c, 0, 71, 0
2, 7392, Note_on_c, 0, 76, 73
2, 7392, Note_on_c, 0, 72, 73
2, 7412, Note_on_c, 0, 76, 0
2, 7412, Note_on_c, 0, 72, 0
2, 7440, Note_on_c, 0, 76, 75
2, 7440, Note_on_c, 0, 72, 75
2, 7460, Note_on_c, 0, 76, 0
2, 7460, Note_on_c, 0, 72, 0
2, 7488, Note_on_c, 0, 76, 75
2, 7488, Note_on_c, 0, 72, 75
2, 7577, Note_on_c, 0, 76, 0
2, 7577, Note_on_c, 0, 72, 0
2, 7800, Note_on_c, 0, 76, 75
2, 7800, Note_on_c, 0, 72, 75
2, 7823, Note_on_c, 0, 76, 0
2, 7823, Note_on_c, 0, 72, 0
2, 7824, Note_on_c, 0, 77, 76
2, 7824, Note_on_c, 0, 74, 76
2, 7847, Note_on_c, 0, 77, 0
2, 7847, Note_on_c, 0, 74, 0
2, 7848, Note_on_c, 0, 79, 77
2, 7848, Note_on_c, 0, 76, 77
2, 7871, Note_on_c, 0, 79, 0
2, 7871, Note_on_c, 0, 76, 0
2, 7872, Note_on_c, 0, 81, 78
2, 7872, Note_on_c, 0, 77, 78
2, 7895, Note_on_c, 0, 81, 0
2, 7895, Note_on_c, 0, 77, 0
2, 7896, Note_on_c, 0, 83, 78
2, 7896, Note_on_c, 0, 79, 78
2, 7919, Note_on_c, 0, 83, 0
2, 7919, Note_on_c, 0, 79, 0
2, 7920, Note_on_c, 0, 84, 79
2, 7920, Note_on_c, 0, 81, 79
2, 7943, Note_on_c, 0, 84, 0
2, 7943, Note_on_c, 0, 81, 0
2, 7944, Note_on_c, 0, 86, 80
2, 7944, Note_on_c, 0, 83, 80
2, 7967, Note_on_c, 0, 86, 0
2, 7967, Note_on_c, 0, 83, 0
2, 7968, Note_on_c, 0, 88, 81
2, 7968, Note_on_c, 0, 84, 81
2, 8057, Note_on_c, 0, 88, 0
2, 8057, Note_on_c, 0, 84, 0
2, 8088, Note_on_c, 0, 81, 75
2, 8088, Note_on_c, 0, 77, 75
2, 8111, Note_on_c, 0, 81, 0
2, 8111, Note_on_c, 0, 77, 0
2, 8112, Note_on_c, 0, 79, 74
2, 8112, Note_on_c, 0, 76, 74
2, 8135, Note_on_c, 0, 79, 0
2, 8135, Note_on_c, 0, 76, 0
2, 8136, Note_on_c, 0, 77, 74
2, 8136, Note_on_c, 0, 74, 74
2, 8159, Note_on_c, 0, 77, 0
2, 8159, Note_on_c, 0, 74, 0
2, 8160, Note_on_c, 0, 77, 73
2, 8160, Note_on_c, 0, 74, 73
2, 8184, Note_on_c, 0, 77, 0
2, 8184, Note_on_c, 0, 74, 0
2, 8184, Note_on_c, 0, 76, 73
2, 8184, Note_on_c, 0, 72, 73
2, 8207, Note_on_c, 0, 76, 0
2, 8207, Note_on_c, 0, 72, 0
2, 8208, Note_on_c, 0, 79, 72
2, 8208, Note_on_c, 0, 76, 72
2, 8218, Note_on_c, 0, 79, 0
2, 8218, Note_on_c, 0, 76, 0
2, 8232, Note_on_c, 0, 76, 72
2, 8232, Note_on_c, 0, 72, 72
2, 8242, Note_on_c, 0, 76, 0
2, 8242, Note_on_c, 0, 72, 0
2, 8256, Note_on_c, 0, 76, 71
2, 8256, Note_on_c, 0, 72, 71
2, 8280, Note_on_c, 0, 76, 0
2, 8280, Note_on_c, 0, 72, 0
2, 8280, Note_on_c, 0, 74, 71
2, 8280, Note_on_c, 0, 71, 71
2, 8303, Note_on_c, 0, 74, 0
2, 8303, Note_on_c, 0, 71, 0
2, 8304, Note_on_c, 0, 77, 70
2, 8304, Note_on_c, 0, 74, 70
2, 8314, Note_on_c, 0, 77, 0
2, 8314, Note_on_c, 0, 74, 0
2, 8328, Note_on_c, 0, 74, 70
2, 8328, Note_on_c, 0, 71, 70
2, 8338, Note_on_c, 0, 74, 0
2, 8338, Note_on_c, 0, 71, 0
2, 8376, Note_on_c, 0, 84, 75
2, 8376, Note_on_c, 0, 72, 75
2, 8399, Note_on_c, 0, 84, 0
2, 8399, Note_on_c, 0, 72, 0
2, 8400, Note_on_c, 0, 83, 75
2, 8400, Note_on_c, 0, 71, 75
2, 8423, Note_on_c, 0, 83, 0
2, 8423, Note_on_c, 0, 71, 0
2, 8424, Note_on_c, 0, 81, 75
2, 8424, Note_on_c, 0, 69, 75
2, 8447, Note_on_c, 0, 81, 0
2, 8447, Note_on_c, 0, 69, 0
2, 8448, Note_on_c, 0, 79, 75
2, 8448, Note_on_c, 0, 67, 75
2, 8471, Note_on_c, 0, 79, 0
2, 8471, Note_on_c, 0, 67, 0
2, 8472, Note_on_c, 0, 77, 75
2, 8472, Note_on_c, 0, 65, 75
2, 8495, Note_on_c, 0, 77, 0
2, 8495, Note_on_c, 0, 65, 0
2, 8496, Note_on_c, 0, 76, 75
2, 8496, Note_on_c, 0, 64, 75
2, 8519, Note_on_c, 0, 76, 0
2, 8519, Note_on_c, 0, 64, 0
2, 8520, Note_on_c, 0, 74, 75
2, 8520, Note_on_c, 0, 62, 75
2, 8543, Note_on_c, 0, 74, 0
2, 8543, Note_on_c, 0, 62, 0
2, 8544, Note_on_c, 0, 72, 75
2, 8544, Note_on_c, 0, 60, 75
2, 8567, Note_on_c, 0, 72, 0
2, 8567, Note_on_c, 0, 60, 0
2, 8568, Note_on_c, 0, 71, 75
2, 8568, Note_on_c, 0, 59, 75
2, 8591, Note_on_c, 0, 71, 0
2, 8591, Note_on_c, 0, 59, 0
2, 8592, Note_on_c, 0, 69, 75
2, 8592, Note_on_c, 0, 57, 75
2, 8615, Note_on_c, 0, 69, 0
2, 8615, Note_on_c, 0, 57, 0
2, 8616, Note_on_c, 0, 67, 75
2, 8616, Note_on_c, 0, 55, 75
2, 8639, Note_on_c, 0, 67, 0
2, 8639, Note_on_c, 0, 55, 0
2, 8664, Note_on_c, 0, 69, 75
2, 8664, Note_on_c, 0, 65, 75
2, 8687, Note_on_c, 0, 69, 0
2, 8687, Note_on_c, 0, 65, 0
2, 8688, Note_on_c, 0, 67, 73
2, 8688, Note_on_c, 0, 64, 73
2, 8711, Note_on_c, 0, 67, 0
2, 8711, Note_on_c, 0, 64, 0
2, 8712, Note_on_c, 0, 65, 72
2, 8712, Note_on_c, 0, 62, 72
2, 8735, Note_on_c, 0, 65, 0
2, 8735, Note_on_c, 0, 62, 0
2, 8736, Note_on_c, 0, 65, 71
2, 8736, Note_on_c, 0, 62, 71
2, 8760, Note_on_c, 0, 65, 0
2, 8760, Note_on_c, 0, 62, 0
2, 8760, Note_on_c, 0, 64, 70
2, 8760, Note_on_c, 0, 60, 70
2, 8783, Note_on_c, 0, 64, 0
2, 8783, Note_on_c, 0, 60, 0
2, 8784, Note_on_c, 0, 67, 69
2, 8784, Note_on_c, 0, 64, 69
2, 8794, Note_on_c, 0, 67, 0
2, 8794, Note_on_c, 0, 64, 0
2, 8808, Note_on_c, 0, 64, 68
2, 8808, Note_on_c, 0, 60, 68
2, 8818, Note_on_c, 0, 64, 0
2, 8818, Note_on_c, 0, 60, 0
2, 8832, Note_on_c, 0, 64, 67
2, 8832, Note_on_c, 0, 60, 67
2, 8856, Note_on_c, 0, 64, 0
2, 8856, Note_on_c, 0, 60, 0
2, 8856, Note_on_c, 0, 62, 65
2, 8856, Note_on_c, 0, 59, 65
2, 8879, Note_on_c, 0, 62, 0
2, 8879, Note_on_c, 0, 59, 0
2, 8880, Note_on_c, 0, 65, 64
2, 8880, Note_on_c, 0, 62, 64
2, 8890, Note_on_c, 0, 65, 0
2, 8890, Note_on_c, 0, 62, 0
2, 8904, Note_on_c, 0, 62, 63
2, 8904, Note_on_c, 0, 59, 63
2, 8914, Note_on_c, 0, 62, 0
2, 8914, Note_on_c, 0, 59, 0
2, 8928, Note_on_c, 0, 60, 62
2, 9017, Note_on_c, 0, 60, 0
2, 9240, Note_on_c, 0, 60, 70
2, 9263, Note_on_c, 0, 60, 0
2, 9264, Note_on_c, 0, 62, 70
2, 9287, Note_on_c, 0, 62, 0
2, 9288, Note_on_c, 0, 64, 70
2, 9311, Note_on_c, 0, 64, 0
2, 9312, Note_on_c, 0, 65, 70
2, 9335, Note_on_c, 0, 65, 0
2, 9336, Note_on_c, 0, 67, 71
2, 9359, Note_on_c, 0, 67, 0
2, 9360, Note_on_c, 0, 69, 72
2, 9383, Note_on_c, 0, 69, 0
2, 9384, Note_on_c, 0, 70, 73
2, 9407, Note_on_c, 0, 70, 0
2, 9408, Note_on_c, 0, 72, 75
2, 9431, Note_on_c, 0, 72, 0
2, 9432, Note_on_c, 0, 69, 73
2, 9455, Note_on_c, 0, 69, 0
2, 9456, Note_on_c, 0, 67, 72
2, 9479, Note_on_c, 0, 67, 0
2, 9480, Note_on_c, 0, 65, 71
2, 9503, Note_on_c, 0, 65, 0
2, 9504, Note_on_c, 0, 65, 70
2, 9696, Note_on_c, 0, 65, 0
2, 9696, Note_on_c, 0, 64, 70
2, 9785, Note_on_c, 0, 64, 0
2, 9816, Note_on_c, 0, 72, 70
2, 9839, Note_on_c, 0, 72, 0
2, 9840, Note_on_c, 0, 70, 70
2, 9863, Note_on_c, 0, 70, 0
2, 9864, Note_on_c, 0, 69, 70
2, 9887, Note_on_c, 0, 69, 0
2, 9888, Note_on_c, 0, 67, 70
2, 9911, Note_on_c, 0, 67, 0
2, 9912, Note_on_c, 0, 65, 70
2, 9935, Note_on_c, 0, 65, 0
2, 9936, Note_on_c, 0, 64, 70
2, 9959, Note_on_c, 0, 64, 0
2, 9960, Note_on_c, 0, 65, 70
2, 9983, Note_on_c, 0, 65, 0
2, 9984, Note_on_c, 0, 77, 70
2, 10007, Note_on_c, 0, 77, 0
2, 10008, Note_on_c, 0, 76, 70
2, 10031, Note_on_c, 0, 76, 0
2, 10032, Note_on_c, 0, 74, 70
2, 10055, Note_on_c, 0, 74, 0
2, 10056, Note_on_c, 0, 72, 70
2, 10079, Note_on_c, 0, 72, 0
2, 10080, Note_on_c, 0, 72, 70
2, 10169, Note_on_c, 0, 72, 0
2, 10176, Note_on_c, 0, 70, 70
2, 10391, Note_on_c, 0, 70, 0
2, 10392, Note_on_c, 0, 67, 70
2, 10415, Note_on_c, 0, 67, 0
2, 10416, Note_on_c, 0, 69, 70
2, 10439, Note_on_c, 0, 69, 0
2, 10440, Note_on_c, 0, 70, 70
2, 10463, Note_on_c, 0, 70, 0
2, 10464, Note_on_c, 0, 72, 70
2, 10487, Note_on_c, 0, 72, 0
2, 10488, Note_on_c, 0, 74, 71
2, 10511, Note_on_c, 0, 74, 0
2, 10512, Note_on_c, 0, 76, 73
2, 10535, Note_on_c, 0, 76, 0
2, 10536, Note_on_c, 0, 77, 75
2, 10559, Note_on_c, 0, 77, 0
2, 10560, Note_on_c, 0, 79, 74
2, 10583, Note_on_c, 0, 79, 0
2, 10584, Note_on_c, 0, 76, 73
2, 10607, Note_on_c, 0, 76, 0
2, 10608, Note_on_c, 0, 72, 72
2, 10631, Note_on_c, 0, 72, 0
2, 10632, Note_on_c, 0, 70, 71
2, 10655, Note_on_c, 0, 70, 0
2, 10656, Note_on_c, 0, 70, 86
2, 10752, Note_on_c, 0, 70, 0
2, 10752, Note_on_c, 0, 69, 70
2, 10841, Note_on_c, 0, 69, 0
2, 10848, Note_on_c, 0, 77, 70
2, 10871, Note_on_c, 0, 77, 0
2, 10872, Note_on_c, 0, 76, 70
2, 10895, Note_on_c, 0, 76, 0
2, 10896, Note_on_c, 0, 74, 70
2, 10919, Note_on_c, 0, 74, 0
2, 10920, Note_on_c, 0, 72, 70
2, 10943, Note_on_c, 0, 72, 0
2, 10944, Note_on_c, 0, 74, 70
2, 10967, Note_on_c, 0, 74, 0
2, 10968, Note_on_c, 0, 70, 70
2, 10991, Note_on_c, 0, 70, 0
2, 10992, Note_on_c, 0, 69, 70
2, 11015, Note_on_c, 0, 69, 0
2, 11016, Note_on_c, 0, 67, 70
2, 11039, Note_on_c, 0, 67, 0
2, 11040, Note_on_c, 0, 70, 70
2, 11063, Note_on_c, 0, 70, 0
2, 11064, Note_on_c, 0, 69, 70
2, 11087, Note_on_c, 0, 69, 0
2, 11088, Note_on_c, 0, 72, 70
2, 11111, Note_on_c, 0, 72, 0
2, 11112, Note_on_c, 0, 65, 70
2, 11122, Note_on_c, 0, 65, 0
2, 11136, Note_on_c, 0, 69, 70
2, 11159, Note_on_c, 0, 69, 0
2, 11160, Note_on_c, 0, 67, 70
2, 11183, Note_on_c, 0, 67, 0
2, 11184, Note_on_c, 0, 65, 70
2, 11207, Note_on_c, 0, 65, 0
2, 11208, Note_on_c, 0, 64, 70
2, 11231, Note_on_c, 0, 64, 0
2, 11232, Note_on_c, 0, 65, 70
2, 11255, Note_on_c, 0, 65, 0
2, 11256, Note_on_c, 0, 57, 70
2, 11279, Note_on_c, 0, 57, 0
2, 11280, Note_on_c, 0, 58, 70
2, 11303, Note_on_c, 0, 58, 0
2, 11304, Note_on_c, 0, 60, 70
2, 11327, Note_on_c, 0, 60, 0
2, 11328, Note_on_c, 0, 62, 71
2, 11351, Note_on_c, 0, 62, 0
2, 11352, Note_on_c, 0, 64, 71
2, 11375, Note_on_c, 0, 64, 0
2, 11376, Note_on_c, 0, 65, 72
2, 11399, Note_on_c, 0, 65, 0
2, 11400, Note_on_c, 0, 67, 72
2, 11423, Note_on_c, 0, 67, 0
2, 11424, Note_on_c, 0, 69, 72
2, 11447, Note_on_c, 0, 69, 0
2, 11448, Note_on_c, 0, 67, 73
2, 11471, Note_on_c, 0, 67, 0
2, 11472, Note_on_c, 0, 70, 73
2, 11495, Note_on_c, 0, 70, 0
2, 11496, Note_on_c, 0, 69, 74
2, 11519, Note_on_c, 0, 69, 0
2, 11520, Note_on_c, 0, 72, 74
2, 11543, Note_on_c, 0, 72, 0
2, 11544, Note_on_c, 0, 65, 70
2, 11567, Note_on_c, 0, 65, 0
2, 11568, Note_on_c, 0, 67, 70
2, 11591, Note_on_c, 0, 67, 0
2, 11592, Note_on_c, 0, 69, 70
2, 11615, Note_on_c, 0, 69, 0
2, 11616, Note_on_c, 0, 70, 71
2, 11639, Note_on_c, 0, 70, 0
2, 11640, Note_on_c, 0, 72, 71
2, 11663, Note_on_c, 0, 72, 0
2, 11664, Note_on_c, 0, 74, 72
2, 11687, Note_on_c, 0, 74, 0
2, 11688, Note_on_c, 0, 76, 72
2, 11711, Note_on_c, 0, 76, 0
2, 11712, Note_on_c, 0, 77, 73
2, 11735, Note_on_c, 0, 77, 0
2, 11736, Note_on_c, 0, 79, 73
2, 11759, Note_on_c, 0, 79, 0
2, 11760, Note_on_c, 0, 81, 74
2, 11783, Note_on_c, 0, 81, 0
2, 11784, Note_on_c, 0, 77, 74
2, 11807, Note_on_c, 0, 77, 0
2, 11808, Note_on_c, 0, 82, 75
2, 12119, Note_on_c, 0, 82, 0
2, 12120, Note_on_c, 0, 84, 75
2, 12143, Note_on_c, 0, 84, 0
2, 12144, Note_on_c, 0, 82, 75
2, 12167, Note_on_c, 0, 82, 0
2, 12168, Note_on_c, 0, 81, 75
2, 12191, Note_on_c, 0, 81, 0
2, 12192, Note_on_c, 0, 79, 75
2, 12215, Note_on_c, 0, 79, 0
2, 12216, Note_on_c, 0, 77, 75
2, 12239, Note_on_c, 0, 77, 0
2, 12240, Note_on_c, 0, 76, 75
2, 12263, Note_on_c, 0, 76, 0
2, 12264, Note_on_c, 0, 74, 75
2, 12287, Note_on_c, 0, 74, 0
2, 12288, Note_on_c, 0, 72, 75
2, 12311, Note_on_c, 0, 72, 0
2, 12312, Note_on_c, 0, 79, 75
2, 12335, Note_on_c, 0, 79, 0
2, 12336, Note_on_c, 0, 72, 75
2, 12359, Note_on_c, 0, 72, 0
2, 12360, Note_on_c, 0, 70, 75
2, 12383, Note_on_c, 0, 70, 0
2, 12384, Note_on_c, 0, 69, 75
2, 12407, Note_on_c, 0, 69, 0
2, 12408, Note_on_c, 0, 81, 75
2, 12431, Note_on_c, 0, 81, 0
2, 12432, Note_on_c, 0, 79, 75
2, 12455, Note_on_c, 0, 79, 0
2, 12456, Note_on_c, 0, 77, 75
2, 12479, Note_on_c, 0, 77, 0
2, 12480, Note_on_c, 0, 76, 75
2, 12503, Note_on_c, 0, 76, 0
2, 12504, Note_on_c, 0, 77, 75
2, 12527, Note_on_c, 0, 77, 0
2, 12528, Note_on_c, 0, 76, 75
2, 12551, Note_on_c, 0, 76, 0
2, 12552, Note_on_c, 0, 74, 75
2, 12575, Note_on_c, 0, 74, 0
2, 12576, Note_on_c, 0, 72, 75
2, 12599, Note_on_c, 0, 72, 0
2, 12600, Note_on_c, 0, 77, 75
2, 12623, Note_on_c, 0, 77, 0
2, 12624, Note_on_c, 0, 76, 75
2, 12647, Note_on_c, 0, 76, 0
2, 12648, Note_on_c, 0, 75, 75
2, 12671, Note_on_c, 0, 75, 0
2, 12672, Note_on_c, 0, 74, 75
2, 12695, Note_on_c, 0, 74, 0
2, 12696, Note_on_c, 0, 70, 74
2, 12719, Note_on_c, 0, 70, 0
2, 12720, Note_on_c, 0, 69, 74
2, 12743, Note_on_c, 0, 69, 0
2, 12744, Note_on_c, 0, 67, 73
2, 12767, Note_on_c, 0, 67, 0
2, 12768, Note_on_c, 0, 70, 73
2, 12791, Note_on_c, 0, 70, 0
2, 12792, Note_on_c, 0, 69, 72
2, 12815, Note_on_c, 0, 69, 0
2, 12816, Note_on_c, 0, 72, 72
2, 12839, Note_on_c, 0, 72, 0
2, 12840, Note_on_c, 0, 65, 72
2, 12863, Note_on_c, 0, 65, 0
2, 12864, Note_on_c, 0, 69, 71
2, 12887, Note_on_c, 0, 69, 0
2, 12888, Note_on_c, 0, 67, 71
2, 12911, Note_on_c, 0, 67, 0
2, 12912, Note_on_c, 0, 65, 70
2, 12935, Note_on_c, 0, 65, 0
2, 12936, Note_on_c, 0, 64, 70
2, 12959, Note_on_c, 0, 64, 0
2, 12960, Note_on_c, 0, 65, 70
2, 13049, Note_on_c, 0, 65, 0
2, 13248, Note_on_c, 0, 81, 58
2, 13268, Note_on_c, 0, 81, 0
2, 13296, Note_on_c, 0, 74, 58
2, 13308, Note_on_c, 0, 74, 0
2, 13308, Note_on_c, 0, 73, 58
2, 13320, Note_on_c, 0, 73, 0
2, 13320, Note_on_c, 0, 71, 58
2, 13332, Note_on_c, 0, 71, 0
2, 13332, Note_on_c, 0, 73, 58
2, 13344, Note_on_c, 0, 73, 0
2, 13344, Note_on_c, 0, 74, 59
2, 13364, Note_on_c, 0, 74, 0
2, 13392, Note_on_c, 0, 77, 60
2, 13404, Note_on_c, 0, 77, 0
2, 13404, Note_on_c, 0, 76, 60
2, 13416, Note_on_c, 0, 76, 0
2, 13416, Note_on_c, 0, 74, 60
2, 13428, Note_on_c, 0, 74, 0
2, 13428, Note_on_c, 0, 76, 60
2, 13440, Note_on_c, 0, 76, 0
2, 13440, Note_on_c, 0, 77, 61
2, 13485, Note_on_c, 0, 77, 0
2, 13488, Note_on_c, 0, 81, 62
2, 13533, Note_on_c, 0, 81, 0
2, 13536, Note_on_c, 0, 79, 63
2, 13556, Note_on_c, 0, 79, 0
2, 13584, Note_on_c, 0, 72, 63
2, 13596, Note_on_c, 0, 72, 0
2, 13596, Note_on_c, 0, 71, 63
2, 13608, Note_on_c, 0, 71, 0
2, 13608, Note_on_c, 0, 69, 63
2, 13620, Note_on_c, 0, 69, 0
2, 13620, Note_on_c, 0, 71, 64
2, 13632, Note_on_c, 0, 71, 0
2, 13632, Note_on_c, 0, 72, 64
2, 13652, Note_on_c, 0, 72, 0
2, 13680, Note_on_c, 0, 76, 65
2, 13692, Note_on_c, 0, 76, 0
2, 13692, Note_on_c, 0, 74, 66
2, 13704, Note_on_c, 0, 74, 0
2, 13704, Note_on_c, 0, 72, 66
2, 13716, Note_on_c, 0, 72, 0
2, 13716, Note_on_c, 0, 74, 66
2, 13728, Note_on_c, 0, 74, 0
2, 13728, Note_on_c, 0, 76, 67
2, 13773, Note_on_c, 0, 76, 0
2, 13776, Note_on_c, 0, 79, 68
2, 13821, Note_on_c, 0, 79, 0
2, 13824, Note_on_c, 0, 77, 70
2, 13844, Note_on_c, 0, 77, 0
2, 13872, Note_on_c, 0, 73, 70
2, 13917, Note_on_c, 0, 73, 0
2, 13920, Note_on_c, 0, 74, 70
2, 13965, Note_on_c, 0, 74, 0
2, 13968, Note_on_c, 0, 72, 70
2, 14013, Note_on_c, 0, 72, 0
2, 14016, Note_on_c, 0, 71, 70
2, 14061, Note_on_c, 0, 71, 0
2, 14064, Note_on_c, 0, 66, 70
2, 14109, Note_on_c, 0, 66, 0
2, 14112, Note_on_c, 0, 67, 70
2, 14201, Note_on_c, 0, 67, 0
2, 14256, Note_on_c, 0, 77, 70
2, 14301, Note_on_c, 0, 77, 0
2, 14304, Note_on_c, 0, 79, 70
2, 14314, Note_on_c, 0, 79, 0
2, 14314, Note_on_c, 0, 77, 70
2, 14324, Note_on_c, 0, 77, 0
2, 14324, Note_on_c, 0, 79, 70
2, 14334, Note_on_c, 0, 79, 0
2, 14334, Note_on_c, 0, 77, 70
2, 14344, Note_on_c, 0, 77, 0
2, 14344, Note_on_c, 0, 79, 70
2, 14354, Note_on_c, 0, 79, 0
2, 14354, Note_on_c, 0, 77, 70
2, 14364, Note_on_c, 0, 77, 0
2, 14364, Note_on_c, 0, 79, 70
2, 14373, Note_on_c, 0, 79, 0
2, 14373, Note_on_c, 0, 77, 70
2, 14382, Note_on_c, 0, 77, 0
2, 14382, Note_on_c, 0, 76, 70
2, 14391, Note_on_c, 0, 76, 0
2, 14391, Note_on_c, 0, 77, 70
2, 14400, Note_on_c, 0, 77, 0
2, 14400, Note_on_c, 0, 76, 70
2, 14445, Note_on_c, 0, 76, 0
2, 14448, Note_on_c, 0, 71, 70
2, 14493, Note_on_c, 0, 71, 0
2, 14496, Note_on_c, 0, 72, 70
2, 14541, Note_on_c, 0, 72, 0
2, 14544, Note_on_c, 0, 84, 86
2, 14640, Note_on_c, 0, 84, 0
2, 14640, Note_on_c, 0, 82, 70
2, 14685, Note_on_c, 0, 82, 0
2, 14688, Note_on_c, 0, 81, 70
2, 14708, Note_on_c, 0, 81, 0
2, 14736, Note_on_c, 0, 73, 70
2, 14781, Note_on_c, 0, 73, 0
2, 14784, Note_on_c, 0, 74, 70
2, 14829, Note_on_c, 0, 74, 0
2, 14832, Note_on_c, 0, 76, 70
2, 14877, Note_on_c, 0, 76, 0
2, 14880, Note_on_c, 0, 77, 70
2, 14900, Note_on_c, 0, 77, 0
2, 14928, Note_on_c, 0, 77, 70
2, 14973, Note_on_c, 0, 77, 0
2, 14976, Note_on_c, 0, 76, 70
2, 14986, Note_on_c, 0, 76, 0
2, 14986, Note_on_c, 0, 77, 70
2, 14996, Note_on_c, 0, 77, 0
2, 14996, Note_on_c, 0, 79, 70
2, 15006, Note_on_c, 0, 79, 0
2, 15006, Note_on_c, 0, 77, 70
2, 15016, Note_on_c, 0, 77, 0
2, 15016, Note_on_c, 0, 79, 70
2, 15026, Note_on_c, 0, 79, 0
2, 15026, Note_on_c, 0, 77, 70
2, 15036, Note_on_c, 0, 77, 0
2, 15036, Note_on_c, 0, 79, 70
2, 15046, Note_on_c, 0, 79, 0
2, 15046, Note_on_c, 0, 77, 70
2, 15056, Note_on_c, 0, 77, 0
2, 15056, Note_on_c, 0, 79, 70
2, 15066, Note_on_c, 0, 79, 0
2, 15066, Note_on_c, 0, 77, 70
2, 15076, Note_on_c, 0, 77, 0
2, 15076, Note_on_c, 0, 79, 70
2, 15086, Note_on_c, 0, 79, 0
2, 15086, Note_on_c, 0, 77, 71
2, 15096, Note_on_c, 0, 77, 0
2, 15096, Note_on_c, 0, 79, 71
2, 15106, Note_on_c, 0, 79, 0
2, 15106, Note_on_c, 0, 77, 71
2, 15116, Note_on_c, 0, 77, 0
2, 15116, Note_on_c, 0, 79, 71
2, 15126, Note_on_c, 0, 79, 0
2, 15126, Note_on_c, 0, 77, 71
2, 15136, Note_on_c, 0, 77, 0
2, 15136, Note_on_c, 0, 79, 71
2, 15146, Note_on_c, 0, 79, 0
2, 15146, Note_on_c, 0, 77, 71
2, 15156, Note_on_c, 0, 77, 0
2, 15156, Note_on_c, 0, 79, 71
2, 15165, Note_on_c, 0, 79, 0
2, 15165, Note_on_c, 0, 77, 71
2, 15174, Note_on_c, 0, 77, 0
2, 15174, Note_on_c, 0, 79, 72
2, 15183, Note_on_c, 0, 79, 0
2, 15183, Note_on_c, 0, 77, 72
2, 15192, Note_on_c, 0, 77, 0
2, 15192, Note_on_c, 0, 79, 72
2, 15201, Note_on_c, 0, 79, 0
2, 15201, Note_on_c, 0, 77, 72
2, 15210, Note_on_c, 0, 77, 0
2, 15210, Note_on_c, 0, 79, 72
2, 15219, Note_on_c, 0, 79, 0
2, 15219, Note_on_c, 0, 77, 72
2, 15228, Note_on_c, 0, 77, 0
2, 15228, Note_on_c, 0, 76, 72
2, 15246, Note_on_c, 0, 76, 0
2, 15246, Note_on_c, 0, 77, 72
2, 15264, Note_on_c, 0, 77, 0
2, 15264, Note_on_c, 0, 76, 75
2, 15287, Note_on_c, 0, 76, 0
2, 15288, Note_on_c, 0, 79, 75
2, 15311, Note_on_c, 0, 79, 0
2, 15312, Note_on_c, 0, 74, 75
2, 15335, Note_on_c, 0, 74, 0
2, 15336, Note_on_c, 0, 77, 75
2, 15359, Note_on_c, 0, 77, 0
2, 15360, Note_on_c, 0, 72, 75
2, 15383, Note_on_c, 0, 72, 0
2, 15384, Note_on_c, 0, 76, 75
2, 15407, Note_on_c, 0, 76, 0
2, 15408, Note_on_c, 0, 71, 75
2, 15431, Note_on_c, 0, 71, 0
2, 15432, Note_on_c, 0, 74, 75
2, 15455, Note_on_c, 0, 74, 0
2, 15456, Note_on_c, 0, 72, 75
2, 15479, Note_on_c, 0, 72, 0
2, 15480, Note_on_c, 0, 76, 75
2, 15503, Note_on_c, 0, 76, 0
2, 15504, Note_on_c, 0, 67, 75
2, 15527, Note_on_c, 0, 67, 0
2, 15528, Note_on_c, 0, 70, 75
2, 15551, Note_on_c, 0, 70, 0
2, 15552, Note_on_c, 0, 69, 70
2, 15576, Note_on_c, 0, 69, 0
2, 15576, Note_on_c, 0, 81, 70
2, 15599, Note_on_c, 0, 81, 0
2, 15600, Note_on_c, 0, 77, 70
2, 15610, Note_on_c, 0, 77, 0
2, 15624, Note_on_c, 0, 74, 70
2, 15634, Note_on_c, 0, 74, 0
2, 15648, Note_on_c, 0, 67, 70
2, 15672, Note_on_c, 0, 67, 0
2, 15672, Note_on_c, 0, 79, 70
2, 15695, Note_on_c, 0, 79, 0
2, 15696, Note_on_c, 0, 76, 70
2, 15706, Note_on_c, 0, 76, 0
2, 15720, Note_on_c, 0, 72, 70
2, 15730, Note_on_c, 0, 72, 0
2, 15744, Note_on_c, 0, 65, 70
2, 15768, Note_on_c, 0, 65, 0
2, 15768, Note_on_c, 0, 77, 70
2, 15791, Note_on_c, 0, 77, 0
2, 15792, Note_on_c, 0, 74, 70
2, 15802, Note_on_c, 0, 74, 0
2, 15816, Note_on_c, 0, 71, 70
2, 15826, Note_on_c, 0, 71, 0
2, 15840, Note_on_c, 0, 72, 70
2, 15850, Note_on_c, 0, 72, 0
2, 15864, Note_on_c, 0, 64, 70
2, 15887, Note_on_c, 0, 64, 0
2, 15888, Note_on_c, 0, 62, 70
2, 15911, Note_on_c, 0, 62, 0
2, 15912, Note_on_c, 0, 64, 70
2, 15935, Note_on_c, 0, 64, 0
2, 15936, Note_on_c, 0, 72, 70
2, 15946, Note_on_c, 0, 72, 0
2, 15960, Note_on_c, 0, 65, 70
2, 15983, Note_on_c, 0, 65, 0
2, 15984, Note_on_c, 0, 64, 70
2, 16007, Note_on_c, 0, 64, 0
2, 16008, Note_on_c, 0, 65, 70
2, 16031, Note_on_c, 0, 65, 0
2, 16032, Note_on_c, 0, 72, 70
2, 16042, Note_on_c, 0, 72, 0
2, 16056, Note_on_c, 0, 67, 70
2, 16079, Note_on_c, 0, 67, 0
2, 16080, Note_on_c, 0, 65, 70
2, 16103, Note_on_c, 0, 65, 0
2, 16104, Note_on_c, 0, 67, 70
2, 16127, Note_on_c, 0, 67, 0
2, 16128, Note_on_c, 0, 70, 70
2, 16152, Note_on_c, 0, 70, 0
2, 16152, Note_on_c, 0, 69, 70
2, 16175, Note_on_c, 0, 69, 0
2, 16176, Note_on_c, 0, 67, 70
2, 16186, Note_on_c, 0, 67, 0
2, 16200, Note_on_c, 0, 65, 70
2, 16210, Note_on_c, 0, 65, 0
2, 16224, Note_on_c, 0, 64, 70
2, 16224, Note_on_c, 0, 60, 70
2, 16313, Note_on_c, 0, 64, 0
2, 16313, Note_on_c, 0, 60, 0
2, 16320, Note_on_c, 0, 62, 70
2, 16320, Note_on_c, 0, 59, 70
2, 16409, Note_on_c, 0, 62, 0
2, 16409, Note_on_c, 0, 59, 0
2, 16440, Note_on_c, 0, 64, 70
2, 16440, Note_on_c, 0, 60, 70
2, 16463, Note_on_c, 0, 64, 0
2, 16463, Note_on_c, 0, 60, 0
2, 16464, Note_on_c, 0, 65, 70
2, 16464, Note_on_c, 0, 62, 70
2, 16487, Note_on_c, 0, 65, 0
2, 16487, Note_on_c, 0, 62, 0
2, 16488, Note_on_c, 0, 67, 70
2, 16488, Note_on_c, 0, 64, 70
2, 16511, Note_on_c, 0, 67, 0
2, 16511, Note_on_c, 0, 64, 0
2, 16512, Note_on_c, 0, 69, 71
2, 16512, Note_on_c, 0, 65, 71
2, 16535, Note_on_c, 0, 69, 0
2, 16535, Note_on_c, 0, 65, 0
2, 16536, Note_on_c, 0, 71, 71
2, 16536, Note_on_c, 0, 67, 71
2, 16559, Note_on_c, 0, 71, 0
2, 16559, Note_on_c, 0, 67, 0
2, 16560, Note_on_c, 0, 72, 72
2, 16560, Note_on_c, 0, 69, 72
2, 16583, Note_on_c, 0, 72, 0
2, 16583, Note_on_c, 0, 69, 0
2, 16584, Note_on_c, 0, 74, 73
2, 16584, Note_on_c, 0, 71, 73
2, 16607, Note_on_c, 0, 74, 0
2, 16607, Note_on_c, 0, 71, 0
2, 16608, Note_on_c, 0, 76, 73
2, 16608, Note_on_c, 0, 72, 73
2, 16628, Note_on_c, 0, 76, 0
2, 16628, Note_on_c, 0, 72, 0
2, 16656, Note_on_c, 0, 76, 75
2, 16656, Note_on_c, 0, 72, 75
2, 16676, Note_on_c, 0, 76, 0
2, 16676, Note_on_c, 0, 72, 0
2, 16704, Note_on_c, 0, 76, 75
2, 16704, Note_on_c, 0, 72, 75
2, 16793, Note_on_c, 0, 76, 0
2, 16793, Note_on_c, 0, 72, 0
2, 17016, Note_on_c, 0, 76, 75
2, 17016, Note_on_c, 0, 72, 75
2, 17039, Note_on_c, 0, 76, 0
2, 17039, Note_on_c, 0, 72, 0
2, 17040, Note_on_c, 0, 77, 76
2, 17040, Note_on_c, 0, 74, 76
2, 17063, Note_on_c, 0, 77, 0
2, 17063, Note_on_c, 0, 74, 0
2, 17064, Note_on_c, 0, 79, 77
2, 17064, Note_on_c, 0, 76, 77
2, 17087, Note_on_c, 0, 79, 0
2, 17087, Note_on_c, 0, 76, 0
2, 17088, Note_on_c, 0, 81, 78
2, 17088, Note_on_c, 0, 77, 78
2, 17111, Note_on_c, 0, 81, 0
2, 17111, Note_on_c, 0, 77, 0
2, 17112, Note_on_c, 0, 83, 78
2, 17112, Note_on_c, 0, 79, 78
2, 17135, Note_on_c, 0, 83, 0
2, 17135, Note_on_c, 0, 79, 0
2, 17136, Note_on_c, 0, 84, 79
2, 17136, Note_on_c, 0, 81, 79
2, 17159, Note_on_c, 0, 84, 0
2, 17159, Note_on_c, 0, 81, 0
2, 17160, Note_on_c, 0, 86, 80
2, 17160, Note_on_c, 0, 83, 80
2, 17183, Note_on_c, 0, 86, 0
2, 17183, Note_on_c, 0, 83, 0
2, 17184, Note_on_c, 0, 88, 81
2, 17184, Note_on_c, 0, 84, 81
2, 17273, Note_on_c, 0, 88, 0
2, 17273, Note_on_c, 0, 84, 0
2, 17304, Note_on_c, 0, 81, 75
2, 17304, Note_on_c, 0, 77, 75
2, 17327, Note_on_c, 0, 81, 0
2, 17327, Note_on_c, 0, 77, 0
2, 17328, Note_on_c, 0, 79, 74
2, 17328, Note_on_c, 0, 76, 74
2, 17351, Note_on_c, 0, 79, 0
2, 17351, Note_on_c, 0, 76, 0
2, 17352, Note_on_c, 0, 77, 74
2, 17352, Note_on_c, 0, 74, 74
2, 17375, Note_on_c, 0, 77, 0
2, 17375, Note_on_c, 0, 74, 0
2, 17376, Note_on_c, 0, 77, 73
2, 17376, Note_on_c, 0, 74, 73
2, 17400, Note_on_c, 0, 77, 0
2, 17400, Note_on_c, 0, 74, 0
2, 17400, Note_on_c, 0, 76, 73
2, 17400, Note_on_c, 0, 72, 73
2, 17423, Note_on_c, 0, 76, 0
2, 17423, Note_on_c, 0, 72, 0
2, 17424, Note_on_c, 0, 79, 72
2, 17424, Note_on_c, 0, 76, 72
2, 17434, Note_on_c, 0, 79, 0
2, 17434, Note_on_c, 0, 76, 0
2, 17448, Note_on_c, 0, 76, 72
2, 17448, Note_on_c, 0, 72, 72
2, 17458, Note_on_c, 0, 76, 0
2, 17458, Note_on_c, 0, 72, 0
2, 17472, Note_on_c, 0, 76, 71
2, 17472, Note_on_c, 0, 72, 71
2, 17496, Note_on_c, 0, 76, 0
2, 17496, Note_on_c, 0, 72, 0
2, 17496, Note_on_c, 0, 74, 71
2, 17496, Note_on_c, 0, 71, 71
2, 17519, Note_on_c, 0, 74, 0
2, 17519, Note_on_c, 0, 71, 0
2, 17520, Note_on_c, 0, 77, 70
2, 17520, Note_on_c, 0, 74, 70
2, 17530, Note_on_c, 0, 77, 0
2, 17530, Note_on_c, 0, 74, 0
2, 17544, Note_on_c, 0, 74, 70
2, 17544, Note_on_c, 0, 71, 70
2, 17554, Note_on_c, 0, 74, 0
2, 17554, Note_on_c, 0, 71, 0
2, 17592, Note_on_c, 0, 84, 75
2, 17592, Note_on_c, 0, 72, 75
2, 17615, Note_on_c, 0, 84, 0
2, 17615, Note_on_c, 0, 72, 0
2, 17616, Note_on_c, 0, 83, 75
2, 17616, Note_on_c, 0, 71, 75
2, 17639, Note_on_c, 0, 83, 0
2, 17639, Note_on_c, 0, 71, 0
2, 17640, Note_on_c, 0, 81, 75
2, 17640, Note_on_c, 0, 69, 75
2, 17663, Note_on_c, 0, 81, 0
2, 17663, Note_on_c, 0, 69, 0
2, 17664, Note_on_c, 0, 79, 75
2, 17664, Note_on_c, 0, 67, 75
2, 17687, Note_on_c, 0, 79, 0
2, 17687, Note_on_c, 0, 67, 0
2, 17688, Note_on_c, 0, 77, 75
2, 17688, Note_on_c, 0, 65, 75
2, 17711, Note_on_c, 0, 77, 0
2, 17711, Note_on_c, 0, 65, 0
2, 17712, Note_on_c, 0, 76, 75
2, 17712, Note_on_c, 0, 64, 75
2, 17735, Note_on_c, 0, 76, 0
2, 17735, Note_on_c, 0, 64, 0
2, 17736, Note_on_c, 0, 74, 75
2, 17736, Note_on_c, 0, 62, 75
2, 17759, Note_on_c, 0, 74, 0
2, 17759, Note_on_c, 0, 62, 0
2, 17760, Note_on_c, 0, 72, 75
2, 17760, Note_on_c, 0, 60, 75
2, 17783, Note_on_c, 0, 72, 0
2, 17783, Note_on_c, 0, 60, 0
2, 17784, Note_on_c, 0, 71, 75
2, 17784, Note_on_c, 0, 59, 75
2, 17807, Note_on_c, 0, 71, 0
2, 17807, Note_on_c, 0, 59, 0
2, 17808, Note_on_c, 0, 69, 75
2, 17808, Note_on_c, 0, 57, 75
2, 17831, Note_on_c, 0, 69, 0
2, 17831, Note_on_c, 0, 57, 0
2, 17832, Note_on_c, 0, 67, 75
2, 17832, Note_on_c, 0, 55, 75
2, 17855, Note_on_c, 0, 67, 0
2, 17855, Note_on_c, 0, 55, 0
2, 17880, Note_on_c, 0, 69, 75
2, 17880, Note_on_c, 0, 65, 75
2, 17903, Note_on_c, 0, 69, 0
2, 17903, Note_on_c, 0, 65, 0
2, 17904, Note_on_c, 0, 67, 73
2, 17904, Note_on_c, 0, 64, 73
2, 17927, Note_on_c, 0, 67, 0
2, 17927, Note_on_c, 0, 64, 0
2, 17928, Note_on_c, 0, 65, 72
2, 17928, Note_on_c, 0, 62, 72
2, 17951, Note_on_c, 0, 65, 0
2, 17951, Note_on_c, 0, 62, 0
2, 17952, Note_on_c, 0, 65, 71
2, 17952, Note_on_c, 0, 62, 71
2, 17976, Note_on_c, 0, 65, 0
2, 17976, Note_on_c, 0, 62, 0
2, 17976, Note_on_c, 0, 64, 70
2, 17976, Note_on_c, 0, 60, 70
2, 17999, Note_on_c, 0, 64, 0
2, 17999, Note_on_c, 0, 60, 0
2, 18000, Note_on_c, 0, 67, 69
2, 18000, Note_on_c, 0, 64, 69
2, 18010, Note_on_c, 0, 67, 0
2, 18010, Note_on_c, 0, 64, 0
2, 18024, Note_on_c, 0, 64, 68
2, 18024, Note_on_c, 0, 60, 68
2, 18034, Note_on_c, 0, 64, 0
2, 18034, Note_on_c, 0, 60, 0
2, 18048, Note_on_c, 0, 64, 67
2, 18048, Note_on_c, 0, 60, 67
2, 18072, Note_on_c, 0, 64, 0
2, 18072, Note_on_c, 0, 60, 0
2, 18072, Note_on_c, 0, 62, 65
2, 18072, Note_on_c, 0, 59, 65
2, 18095, Note_on_c, 0, 62, 0
2, 18095, Note_on_c, 0, 59, 0
2, 18096, Note_on_c, 0, 65, 64
2, 18096, Note_on_c, 0, 62, 64
2, 18106, Note_on_c, 0, 65, 0
2, 18106, Note_on_c, 0, 62, 0
2, 18120, Note_on_c, 0, 62, 63
2, 18120, Note_on_c, 0, 59, 63
2, 18130, Note_on_c, 0, 62, 0
2, 18130, Note_on_c, 0, 59, 0
2, 18144, Note_on_c, 0, 60, 62
2, 18233, Note_on_c, 0, 60, 0
2, 18456, Note_on_c, 0, 67, 70
2, 18479, Note_on_c, 0, 67, 0
2, 18480, Note_on_c, 0, 69, 70
2, 18503, Note_on_c, 0, 69, 0
2, 18504, Note_on_c, 0, 71, 70
2, 18527, Note_on_c, 0, 71, 0
2, 18528, Note_on_c, 0, 72, 70
2, 18551, Note_on_c, 0, 72, 0
2, 18552, Note_on_c, 0, 74, 71
2, 18575, Note_on_c, 0, 74, 0
2, 18576, Note_on_c, 0, 76, 73
2, 18599, Note_on_c, 0, 76, 0
2, 18600, Note_on_c, 0, 77, 75
2, 18623, Note_on_c, 0, 77, 0
2, 18624, Note_on_c, 0, 79, 74
2, 18647, Note_on_c, 0, 79, 0
2, 18648, Note_on_c, 0, 76, 73
2, 18671, Note_on_c, 0, 76, 0
2, 18672, Note_on_c, 0, 74, 72
2, 18695, Note_on_c, 0, 74, 0
2, 18696, Note_on_c, 0, 72, 71
2, 18719, Note_on_c, 0, 72, 0
2, 18720, Note_on_c, 0, 72, 70
2, 18912, Note_on_c, 0, 72, 0
2, 18912, Note_on_c, 0, 71, 70
2, 19001, Note_on_c, 0, 71, 0
2, 19032, Note_on_c, 0, 79, 70
2, 19055, Note_on_c, 0, 79, 0
2, 19056, Note_on_c, 0, 77, 70
2, 19079, Note_on_c, 0, 77, 0
2, 19080, Note_on_c, 0, 76, 70
2, 19103, Note_on_c, 0, 76, 0
2, 19104, Note_on_c, 0, 74, 70
2, 19127, Note_on_c, 0, 74, 0
2, 19128, Note_on_c, 0, 72, 71
2, 19151, Note_on_c, 0, 72, 0
2, 19152, Note_on_c, 0, 71, 72
2, 19175, Note_on_c, 0, 71, 0
2, 19176, Note_on_c, 0, 72, 73
2, 19199, Note_on_c, 0, 72, 0
2, 19200, Note_on_c, 0, 84, 75
2, 19223, Note_on_c, 0, 84, 0
2, 19224, Note_on_c, 0, 83, 73
2, 19247, Note_on_c, 0, 83, 0
2, 19248, Note_on_c, 0, 81, 72
2, 19271, Note_on_c, 0, 81, 0
2, 19272, Note_on_c, 0, 79, 71
2, 19295, Note_on_c, 0, 79, 0
2, 19296, Note_on_c, 0, 79, 70
2, 19392, Note_on_c, 0, 79, 0
2, 19392, Note_on_c, 0, 77, 70
2, 19607, Note_on_c, 0, 77, 0
2, 19608, Note_on_c, 0, 74, 70
2, 19631, Note_on_c, 0, 74, 0
2, 19632, Note_on_c, 0, 76, 70
2, 19655, Note_on_c, 0, 76, 0
2, 19656, Note_on_c, 0, 77, 70
2, 19679, Note_on_c, 0, 77, 0
2, 19680, Note_on_c, 0, 79, 70
2, 19703, Note_on_c, 0, 79, 0
2, 19704, Note_on_c, 0, 81, 70
2, 19727, Note_on_c, 0, 81, 0
2, 19728, Note_on_c, 0, 83, 70
2, 19751, Note_on_c, 0, 83, 0
2, 19752, Note_on_c, 0, 84, 70
2, 19775, Note_on_c, 0, 84, 0
2, 19776, Note_on_c, 0, 86, 70
2, 19799, Note_on_c, 0, 86, 0
2, 19800, Note_on_c, 0, 83, 70
2, 19823, Note_on_c, 0, 83, 0
2, 19824, Note_on_c, 0, 79, 70
2, 19847, Note_on_c, 0, 79, 0
2, 19848, Note_on_c, 0, 77, 70
2, 19871, Note_on_c, 0, 77, 0
2, 19872, Note_on_c, 0, 77, 70
2, 19968, Note_on_c, 0, 77, 0
2, 19968, Note_on_c, 0, 76, 70
2, 20057, Note_on_c, 0, 76, 0
2, 20064, Note_on_c, 0, 84, 70
2, 20087, Note_on_c, 0, 84, 0
2, 20088, Note_on_c, 0, 83, 70
2, 20111, Note_on_c, 0, 83, 0
2, 20112, Note_on_c, 0, 81, 70
2, 20135, Note_on_c, 0, 81, 0
2, 20136, Note_on_c, 0, 79, 70
2, 20159, Note_on_c, 0, 79, 0
2, 20160, Note_on_c, 0, 81, 70
2, 20183, Note_on_c, 0, 81, 0
2, 20184, Note_on_c, 0, 77, 70
2, 20207, Note_on_c, 0, 77, 0
2, 20208, Note_on_c, 0, 76, 70
2, 20231, Note_on_c, 0, 76, 0
2, 20232, Note_on_c, 0, 74, 70
2, 20255, Note_on_c, 0, 74, 0
2, 20256, Note_on_c, 0, 77, 70
2, 20279, Note_on_c, 0, 77, 0
2, 20280, Note_on_c, 0, 76, 70
2, 20303, Note_on_c, 0, 76, 0
2, 20304, Note_on_c, 0, 79, 70
2, 20327, Note_on_c, 0, 79, 0
2, 20328, Note_on_c, 0, 72, 70
2, 20351, Note_on_c, 0, 72, 0
2, 20352, Note_on_c, 0, 76, 70
2, 20375, Note_on_c, 0, 76, 0
2, 20376, Note_on_c, 0, 74, 67
2, 20399, Note_on_c, 0, 74, 0
2, 20400, Note_on_c, 0, 72, 64
2, 20423, Note_on_c, 0, 72, 0
2, 20424, Note_on_c, 0, 71, 61
2, 20447, Note_on_c, 0, 71, 0
2, 20448, Note_on_c, 0, 72, 58
2, 20537, Note_on_c, 0, 72, 0
2, 20760, Note_on_c, 0, 67, 58
2, 20783, Note_on_c, 0, 67, 0
2, 20784, Note_on_c, 0, 69, 58
2, 20807, Note_on_c, 0, 69, 0
2, 20808, Note_on_c, 0, 71, 58
2, 20831, Note_on_c, 0, 71, 0
2, 20832, Note_on_c, 0, 72, 58
2, 20855, Note_on_c, 0, 72, 0
2, 20856, Note_on_c, 0, 74, 58
2, 20879, Note_on_c, 0, 74, 0
2, 20880, Note_on_c, 0, 75, 58
2, 20903, Note_on_c, 0, 75, 0
2, 20904, Note_on_c, 0, 77, 58
2, 20927, Note_on_c, 0, 77, 0
2, 20928, Note_on_c, 0, 79, 58
2, 20951, Note_on_c, 0, 79, 0
2, 20952, Note_on_c, 0, 75, 58
2, 20975, Note_on_c, 0, 75, 0
2, 20976, Note_on_c, 0, 74, 58
2, 20999, Note_on_c, 0, 74, 0
2, 21000, Note_on_c, 0, 72, 58
2, 21023, Note_on_c, 0, 72, 0
2, 21024, Note_on_c, 0, 78, 58
2, 21069, Note_on_c, 0, 78, 0
2, 21072, Note_on_c, 0, 79, 59
2, 21117, Note_on_c, 0, 79, 0
2, 21120, Note_on_c, 0, 81, 60
2, 21140, Note_on_c, 0, 81, 0
2, 21168, Note_on_c, 0, 72, 77
2, 21264, Note_on_c, 0, 72, 0
2, 21264, Note_on_c, 0, 69, 63
2, 21309, Note_on_c, 0, 69, 0
2, 21312, Note_on_c, 0, 70, 64
2, 21357, Note_on_c, 0, 70, 0
2, 21360, Note_on_c, 0, 66, 65
2, 21405, Note_on_c, 0, 66, 0
2, 21408, Note_on_c, 0, 67, 66
2, 21428, Note_on_c, 0, 67, 0
2, 21456, Note_on_c, 0, 79, 83
2, 21552, Note_on_c, 0, 79, 0
2, 21552, Note_on_c, 0, 77, 70
2, 21597, Note_on_c, 0, 77, 0
2, 21600, Note_on_c, 0, 76, 70
2, 21645, Note_on_c, 0, 76, 0
2, 21648, Note_on_c, 0, 71, 71
2, 21693, Note_on_c, 0, 71, 0
2, 21696, Note_on_c, 0, 72, 72
2, 21716, Note_on_c, 0, 72, 0
2, 21744, Note_on_c, 0, 72, 89
2, 21840, Note_on_c, 0, 72, 0
2, 21840, Note_on_c, 0, 70, 75
2, 21885, Note_on_c, 0, 70, 0
2, 21888, Note_on_c, 0, 69, 75
2, 21933, Note_on_c, 0, 69, 0
2, 21936, Note_on_c, 0, 64, 75
2, 21981, Note_on_c, 0, 64, 0
2, 21984, Note_on_c, 0, 65, 75
2, 22004, Note_on_c, 0, 65, 0
2, 22032, Note_on_c, 0, 77, 91
2, 22128, Note_on_c, 0, 77, 0
2, 22128, Note_on_c, 0, 75, 75
2, 22173, Note_on_c, 0, 75, 0
2, 22176, Note_on_c, 0, 74, 75
2, 22221, Note_on_c, 0, 74, 0
2, 22224, Note_on_c, 0, 69, 75
2, 22269, Note_on_c, 0, 69, 0
2, 22272, Note_on_c, 0, 70, 75
2, 22292, Note_on_c, 0, 70, 0
2, 22320, Note_on_c, 0, 79, 91
2, 22416, Note_on_c, 0, 79, 0
2, 22416, Note_on_c, 0, 77, 75
2, 22461, Note_on_c, 0, 77, 0
2, 22464, Note_on_c, 0, 76, 75
2, 22509, Note_on_c, 0, 76, 0
2, 22512, Note_on_c, 0, 71, 75
2, 22557, Note_on_c, 0, 71, 0
2, 22560, Note_on_c, 0, 72, 75
2, 22580, Note_on_c, 0, 72, 0
2, 22608, Note_on_c, 0, 81, 91
2, 22704, Note_on_c, 0, 81, 0
2, 22704, Note_on_c, 0, 79, 75
2, 22749, Note_on_c, 0, 79, 0
2, 22752, Note_on_c, 0, 77, 75
2, 22797, Note_on_c, 0, 77, 0
2, 22800, Note_on_c, 0, 73, 75
2, 22845, Note_on_c, 0, 73, 0
2, 22848, Note_on_c, 0, 74, 75
2, 22893, Note_on_c, 0, 74, 0
2, 22896, Note_on_c, 0, 77, 75
2, 22919, Note_on_c, 0, 77, 0
2, 22920, Note_on_c, 0, 81, 75
2, 22943, Note_on_c, 0, 81, 0
2, 22944, Note_on_c, 0, 79, 75
2, 22967, Note_on_c, 0, 79, 0
2, 22968, Note_on_c, 0, 82, 75
2, 22991, Note_on_c, 0, 82, 0
2, 22992, Note_on_c, 0, 81, 75
2, 23015, Note_on_c, 0, 81, 0
2, 23016, Note_on_c, 0, 84, 75
2, 23039, Note_on_c, 0, 84, 0
2, 23040, Note_on_c, 0, 82, 75
2, 23063, Note_on_c, 0, 82, 0
2, 23064, Note_on_c, 0, 86, 75
2, 23087, Note_on_c, 0, 86, 0
2, 23088, Note_on_c, 0, 81, 75
2, 23111, Note_on_c, 0, 81, 0
2, 23112, Note_on_c, 0, 84, 75
2, 23135, Note_on_c, 0, 84, 0
2, 23136, Note_on_c, 0, 79, 75
2, 23159, Note_on_c, 0, 79, 0
2, 23160, Note_on_c, 0, 82, 75
2, 23183, Note_on_c, 0, 82, 0
2, 23184, Note_on_c, 0, 78, 75
2, 23207, Note_on_c, 0, 78, 0
2, 23208, Note_on_c, 0, 81, 75
2, 23231, Note_on_c, 0, 81, 0
2, 23232, Note_on_c, 0, 79, 75
2, 23255, Note_on_c, 0, 79, 0
2, 23256, Note_on_c, 0, 82, 75
2, 23279, Note_on_c, 0, 82, 0
2, 23280, Note_on_c, 0, 74, 75
2, 23303, Note_on_c, 0, 74, 0
2, 23304, Note_on_c, 0, 77, 75
2, 23327, Note_on_c, 0, 77, 0
2, 23328, Note_on_c, 0, 76, 75
2, 23351, Note_on_c, 0, 76, 0
2, 23352, Note_on_c, 0, 79, 75
2, 23375, Note_on_c, 0, 79, 0
2, 23376, Note_on_c, 0, 74, 75
2, 23399, Note_on_c, 0, 74, 0
2, 23400, Note_on_c, 0, 77, 75
2, 23423, Note_on_c, 0, 77, 0
2, 23424, Note_on_c, 0, 72, 75
2, 23447, Note_on_c, 0, 72, 0
2, 23448, Note_on_c, 0, 76, 75
2, 23471, Note_on_c, 0, 76, 0
2, 23472, Note_on_c, 0, 71, 75
2, 23495, Note_on_c, 0, 71, 0
2, 23496, Note_on_c, 0, 74, 75
2, 23519, Note_on_c, 0, 74, 0
2, 23520, Note_on_c, 0, 72, 75
2, 23543, Note_on_c, 0, 72, 0
2, 23544, Note_on_c, 0, 76, 75
2, 23567, Note_on_c, 0, 76, 0
2, 23568, Note_on_c, 0, 79, 75
2, 23591, Note_on_c, 0, 79, 0
2, 23592, Note_on_c, 0, 82, 75
2, 23615, Note_on_c, 0, 82, 0
2, 23616, Note_on_c, 0, 81, 75
2, 23639, Note_on_c, 0, 81, 0
2, 23640, Note_on_c, 0, 84, 75
2, 23663, Note_on_c, 0, 84, 0
2, 23664, Note_on_c, 0, 79, 75
2, 23687, Note_on_c, 0, 79, 0
2, 23688, Note_on_c, 0, 82, 75
2, 23711, Note_on_c, 0, 82, 0
2, 23712, Note_on_c, 0, 77, 75
2, 23735, Note_on_c, 0, 77, 0
2, 23736, Note_on_c, 0, 81, 75
2, 23759, Note_on_c, 0, 81, 0
2, 23760, Note_on_c, 0, 76, 75
2, 23783, Note_on_c, 0, 76, 0
2, 23784, Note_on_c, 0, 79, 75
2, 23807, Note_on_c, 0, 79, 0
2, 23808, Note_on_c, 0, 77, 75
2, 23831, Note_on_c, 0, 77, 0
2, 23832, Note_on_c, 0, 81, 75
2, 23855, Note_on_c, 0, 81, 0
2, 23856, Note_on_c, 0, 72, 75
2, 23879, Note_on_c, 0, 72, 0
2, 23880, Note_on_c, 0, 75, 75
2, 23903, Note_on_c, 0, 75, 0
2, 23904, Note_on_c, 0, 74, 75
2, 23927, Note_on_c, 0, 74, 0
2, 23928, Note_on_c, 0, 77, 75
2, 23951, Note_on_c, 0, 77, 0
2, 23952, Note_on_c, 0, 72, 75
2, 23975, Note_on_c, 0, 72, 0
2, 23976, Note_on_c, 0, 75, 75
2, 23999, Note_on_c, 0, 75, 0
2, 24000, Note_on_c, 0, 70, 75
2, 24023, Note_on_c, 0, 70, 0
2, 24024, Note_on_c, 0, 74, 75
2, 24047, Note_on_c, 0, 74, 0
2, 24048, Note_on_c, 0, 69, 75
2, 24071, Note_on_c, 0, 69, 0
2, 24072, Note_on_c, 0, 72, 75
2, 24095, Note_on_c, 0, 72, 0
2, 24096, Note_on_c, 0, 70, 75
2, 24119, Note_on_c, 0, 70, 0
2, 24120, Note_on_c, 0, 74, 75
2, 24143, Note_on_c, 0, 74, 0
2, 24144, Note_on_c, 0, 72, 75
2, 24167, Note_on_c, 0, 72, 0
2, 24168, Note_on_c, 0, 75, 75
2, 24191, Note_on_c, 0, 75, 0
2, 24192, Note_on_c, 0, 74, 75
2, 24215, Note_on_c, 0, 74, 0
2, 24216, Note_on_c, 0, 77, 73
2, 24239, Note_on_c, 0, 77, 0
2, 24240, Note_on_c, 0, 72, 72
2, 24263, Note_on_c, 0, 72, 0
2, 24264, Note_on_c, 0, 75, 71
2, 24287, Note_on_c, 0, 75, 0
2, 24288, Note_on_c, 0, 70, 70
2, 24311, Note_on_c, 0, 70, 0
2, 24312, Note_on_c, 0, 74, 69
2, 24335, Note_on_c, 0, 74, 0
2, 24336, Note_on_c, 0, 69, 68
2, 24359, Note_on_c, 0, 69, 0
2, 24360, Note_on_c, 0, 72, 67
2, 24383, Note_on_c, 0, 72, 0
2, 24384, Note_on_c, 0, 67, 66
2, 24407, Note_on_c, 0, 67, 0
2, 24408, Note_on_c, 0, 70, 65
2, 24431, Note_on_c, 0, 70, 0
2, 24432, Note_on_c, 0, 65, 64
2, 24455, Note_on_c, 0, 65, 0
2, 24456, Note_on_c, 0, 69, 63
2, 24479, Note_on_c, 0, 69, 0
2, 24480, Note_on_c, 0, 64, 62
2, 24503, Note_on_c, 0, 64, 0
2, 24504, Note_on_c, 0, 67, 61
2, 24527, Note_on_c, 0, 67, 0
2, 24528, Note_on_c, 0, 62, 60
2, 24551, Note_on_c, 0, 62, 0
2, 24552, Note_on_c, 0, 65, 59
2, 24575, Note_on_c, 0, 65, 0
2, 24792, Note_on_c, 0, 60, 70
2, 24815, Note_on_c, 0, 60, 0
2, 24816, Note_on_c, 0, 62, 70
2, 24839, Note_on_c, 0, 62, 0
2, 24840, Note_on_c, 0, 64, 70
2, 24863, Note_on_c, 0, 64, 0
2, 24864, Note_on_c, 0, 65, 70
2, 24887, Note_on_c, 0, 65, 0
2, 24888, Note_on_c, 0, 67, 71
2, 24911, Note_on_c, 0, 67, 0
2, 24912, Note_on_c, 0, 69, 72
2, 24935, Note_on_c, 0, 69, 0
2, 24936, Note_on_c, 0, 70, 73
2, 24959, Note_on_c, 0, 70, 0
2, 24960, Note_on_c, 0, 72, 75
2, 24983, Note_on_c, 0, 72, 0
2, 24984, Note_on_c, 0, 69, 73
2, 25007, Note_on_c, 0, 69, 0
2, 25008, Note_on_c, 0, 67, 72
2, 25031, Note_on_c, 0, 67, 0
2, 25032, Note_on_c, 0, 65, 71
2, 25055, Note_on_c, 0, 65, 0
2, 25056, Note_on_c, 0, 65, 70
2, 25248, Note_on_c, 0, 65, 0
2, 25248, Note_on_c, 0, 64, 70
2, 25337, Note_on_c, 0, 64, 0
2, 25368, Note_on_c, 0, 72, 70
2, 25391, Note_on_c, 0, 72, 0
2, 25392, Note_on_c, 0, 70, 70
2, 25415, Note_on_c, 0, 70, 0
2, 25416, Note_on_c, 0, 69, 70
2, 25439, Note_on_c, 0, 69, 0
2, 25440, Note_on_c, 0, 67, 70
2, 25463, Note_on_c, 0, 67, 0
2, 25464, Note_on_c, 0, 65, 70
2, 25487, Note_on_c, 0, 65, 0
2, 25488, Note_on_c, 0, 64, 70
2, 25511, Note_on_c, 0, 64, 0
2, 25512, Note_on_c, 0, 65, 70
2, 25535, Note_on_c, 0, 65, 0
2, 25536, Note_on_c, 0, 77, 70
2, 25559, Note_on_c, 0, 77, 0
2, 25560, Note_on_c, 0, 76, 70
2, 25583, Note_on_c, 0, 76, 0
2, 25584, Note_on_c, 0, 74, 70
2, 25607, Note_on_c, 0, 74, 0
2, 25608, Note_on_c, 0, 72, 70
2, 25631, Note_on_c, 0, 72, 0
2, 25632, Note_on_c, 0, 72, 70
2, 25721, Note_on_c, 0, 72, 0
2, 25728, Note_on_c, 0, 70, 70
2, 25943, Note_on_c, 0, 70, 0
2, 25944, Note_on_c, 0, 67, 70
2, 25967, Note_on_c, 0, 67, 0
2, 25968, Note_on_c, 0, 69, 70
2, 25991, Note_on_c, 0, 69, 0
2, 25992, Note_on_c, 0, 70, 70
2, 26015, Note_on_c, 0, 70, 0
2, 26016, Note_on_c, 0, 72, 70
2, 26039, Note_on_c, 0, 72, 0
2, 26040, Note_on_c, 0, 74, 71
2, 26063, Note_on_c, 0, 74, 0
2, 26064, Note_on_c, 0, 76, 73
2, 26087, Note_on_c, 0, 76, 0
2, 26088, Note_on_c, 0, 77, 75
2, 26111, Note_on_c, 0, 77, 0
2, 26112, Note_on_c, 0, 79, 74
2, 26135, Note_on_c, 0, 79, 0
2, 26136, Note_on_c, 0, 76, 73
2, 26159, Note_on_c, 0, 76, 0
2, 26160, Note_on_c, 0, 72, 72
2, 26183, Note_on_c, 0, 72, 0
2, 26184, Note_on_c, 0, 70, 71
2, 26207, Note_on_c, 0, 70, 0
2, 26208, Note_on_c, 0, 70, 86
2, 26304, Note_on_c, 0, 70, 0
2, 26304, Note_on_c, 0, 69, 70
2, 26393, Note_on_c, 0, 69, 0
2, 26400, Note_on_c, 0, 77, 70
2, 26423, Note_on_c, 0, 77, 0
2, 26424, Note_on_c, 0, 76, 70
2, 26447, Note_on_c, 0, 76, 0
2, 26448, Note_on_c, 0, 74, 70
2, 26471, Note_on_c, 0, 74, 0
2, 26472, Note_on_c, 0, 72, 70
2, 26495, Note_on_c, 0, 72, 0
2, 26496, Note_on_c, 0, 74, 70
2, 26519, Note_on_c, 0, 74, 0
2, 26520, Note_on_c, 0, 70, 70
2, 26543, Note_on_c, 0, 70, 0
2, 26544, Note_on_c, 0, 69, 70
2, 26567, Note_on_c, 0, 69, 0
2, 26568, Note_on_c, 0, 67, 70
2, 26591, Note_on_c, 0, 67, 0
2, 26592, Note_on_c, 0, 70, 70
2, 26615, Note_on_c, 0, 70, 0
2, 26616, Note_on_c, 0, 69, 70
2, 26639, Note_on_c, 0, 69, 0
2, 26640, Note_on_c, 0, 72, 70
2, 26663, Note_on_c, 0, 72, 0
2, 26664, Note_on_c, 0, 65, 70
2, 26674, Note_on_c, 0, 65, 0
2, 26688, Note_on_c, 0, 69, 70
2, 26711, Note_on_c, 0, 69, 0
2, 26712, Note_on_c, 0, 67, 70
2, 26735, Note_on_c, 0, 67, 0
2, 26736, Note_on_c, 0, 65, 70
2, 26759, Note_on_c, 0, 65, 0
2, 26760, Note_on_c, 0, 64, 70
2, 26783, Note_on_c, 0, 64, 0
2, 26784, Note_on_c, 0, 65, 70
2, 26807, Note_on_c, 0, 65, 0
2, 26808, Note_on_c, 0, 57, 70
2, 26831, Note_on_c, 0, 57, 0
2, 26832, Note_on_c, 0, 58, 70
2, 26855, Note_on_c, 0, 58, 0
2, 26856, Note_on_c, 0, 60, 70
2, 26879, Note_on_c, 0, 60, 0
2, 26880, Note_on_c, 0, 62, 71
2, 26903, Note_on_c, 0, 62, 0
2, 26904, Note_on_c, 0, 64, 71
2, 26927, Note_on_c, 0, 64, 0
2, 26928, Note_on_c, 0, 65, 72
2, 26951, Note_on_c, 0, 65, 0
2, 26952, Note_on_c, 0, 67, 72
2, 26975, Note_on_c, 0, 67, 0
2, 26976, Note_on_c, 0, 69, 72
2, 26999, Note_on_c, 0, 69, 0
2, 27000, Note_on_c, 0, 67, 73
2, 27023, Note_on_c, 0, 67, 0
2, 27024, Note_on_c, 0, 70, 73
2, 27047, Note_on_c, 0, 70, 0
2, 27048, Note_on_c, 0, 69, 74
2, 27071, Note_on_c, 0, 69, 0
2, 27072, Note_on_c, 0, 72, 74
2, 27082, Note_on_c, 0, 72, 0
2, 27096, Note_on_c, 0, 72, 70
2, 27119, Note_on_c, 0, 72, 0
2, 27120, Note_on_c, 0, 77, 70
2, 27143, Note_on_c, 0, 77, 0
2, 27144, Note_on_c, 0, 76, 70
2, 27167, Note_on_c, 0, 76, 0
2, 27168, Note_on_c, 0, 79, 71
2, 27191, Note_on_c, 0, 79, 0
2, 27192, Note_on_c, 0, 77, 71
2, 27215, Note_on_c, 0, 77, 0
2, 27216, Note_on_c, 0, 81, 72
2, 27239, Note_on_c, 0, 81, 0
2, 27240, Note_on_c, 0, 79, 72
2, 27263, Note_on_c, 0, 79, 0
2, 27264, Note_on_c, 0, 77, 73
2, 27287, Note_on_c, 0, 77, 0
2, 27288, Note_on_c, 0, 76, 73
2, 27311, Note_on_c, 0, 76, 0
2, 27312, Note_on_c, 0, 74, 74
2, 27335, Note_on_c, 0, 74, 0
2, 27336, Note_on_c, 0, 72, 74
2, 27359, Note_on_c, 0, 72, 0
2, 27360, Note_on_c, 0, 70, 75
2, 27449, Note_on_c, 0, 70, 0
2, 27672, Note_on_c, 0, 70, 70
2, 27695, Note_on_c, 0, 70, 0
2, 27696, Note_on_c, 0, 76, 71
2, 27719, Note_on_c, 0, 76, 0
2, 27720, Note_on_c, 0, 74, 72
2, 27743, Note_on_c, 0, 74, 0
2, 27744, Note_on_c, 0, 77, 73
2, 27767, Note_on_c, 0, 77, 0
2, 27768, Note_on_c, 0, 76, 74
2, 27791, Note_on_c, 0, 76, 0
2, 27792, Note_on_c, 0, 79, 75
2, 27815, Note_on_c, 0, 79, 0
2, 27816, Note_on_c, 0, 77, 74
2, 27839, Note_on_c, 0, 77, 0
2, 27840, Note_on_c, 0, 76, 73
2, 27863, Note_on_c, 0, 76, 0
2, 27864, Note_on_c, 0, 74, 72
2, 27887, Note_on_c, 0, 74, 0
2, 27888, Note_on_c, 0, 72, 71
2, 27911, Note_on_c, 0, 72, 0
2, 27912, Note_on_c, 0, 70, 70
2, 27935, Note_on_c, 0, 70, 0
2, 27936, Note_on_c, 0, 69, 70
2, 28025, Note_on_c, 0, 69, 0
2, 28248, Note_on_c, 0, 62, 70
2, 28271, Note_on_c, 0, 62, 0
2, 28272, Note_on_c, 0, 67, 70
2, 28295, Note_on_c, 0, 67, 0
2, 28296, Note_on_c, 0, 66, 70
2, 28319, Note_on_c, 0, 66, 0
2, 28320, Note_on_c, 0, 69, 70
2, 28343, Note_on_c, 0, 69, 0
2, 28344, Note_on_c, 0, 67, 70
2, 28367, Note_on_c, 0, 67, 0
2, 28368, Note_on_c, 0, 70, 70
2, 28391, Note_on_c, 0, 70, 0
2, 28392, Note_on_c, 0, 69, 70
2, 28415, Note_on_c, 0, 69, 0
2, 28416, Note_on_c, 0, 72, 70
2, 28439, Note_on_c, 0, 72, 0
2, 28440, Note_on_c, 0, 70, 70
2, 28463, Note_on_c, 0, 70, 0
2, 28464, Note_on_c, 0, 74, 70
2, 28487, Note_on_c, 0, 74, 0
2, 28488, Note_on_c, 0, 65, 70
2, 28511, Note_on_c, 0, 65, 0
2, 28512, Note_on_c, 0, 64, 70
2, 28535, Note_on_c, 0, 64, 0
2, 28536, Note_on_c, 0, 67, 70
2, 28559, Note_on_c, 0, 67, 0
2, 28560, Note_on_c, 0, 65, 70
2, 28583, Note_on_c, 0, 65, 0
2, 28584, Note_on_c, 0, 69, 70
2, 28607, Note_on_c, 0, 69, 0
2, 28608, Note_on_c, 0, 67, 70
2, 28631, Note_on_c, 0, 67, 0
2, 28632, Note_on_c, 0, 70, 70
2, 28655, Note_on_c, 0, 70, 0
2, 28656, Note_on_c, 0, 69, 70
2, 28679, Note_on_c, 0, 69, 0
2, 28680, Note_on_c, 0, 72, 70
2, 28703, Note_on_c, 0, 72, 0
2, 28704, Note_on_c, 0, 70, 70
2, 28727, Note_on_c, 0, 70, 0
2, 28728, Note_on_c, 0, 74, 70
2, 28751, Note_on_c, 0, 74, 0
2, 28752, Note_on_c, 0, 67, 70
2, 28775, Note_on_c, 0, 67, 0
2, 28776, Note_on_c, 0, 70, 70
2, 28799, Note_on_c, 0, 70, 0
2, 28800, Note_on_c, 0, 69, 70
2, 28823, Note_on_c, 0, 69, 0
2, 28824, Note_on_c, 0, 72, 70
2, 28847, Note_on_c, 0, 72, 0
2, 28848, Note_on_c, 0, 70, 70
2, 28871, Note_on_c, 0, 70, 0
2, 28872, Note_on_c, 0, 74, 70
2, 28895, Note_on_c, 0, 74, 0
2, 28896, Note_on_c, 0, 72, 70
2, 28919, Note_on_c, 0, 72, 0
2, 28920, Note_on_c, 0, 75, 70
2, 28943, Note_on_c, 0, 75, 0
2, 28944, Note_on_c, 0, 74, 70
2, 28967, Note_on_c, 0, 74, 0
2, 28968, Note_on_c, 0, 77, 70
2, 28991, Note_on_c, 0, 77, 0
2, 28992, Note_on_c, 0, 75, 70
2, 29015, Note_on_c, 0, 75, 0
2, 29016, Note_on_c, 0, 79, 67
2, 29039, Note_on_c, 0, 79, 0
2, 29040, Note_on_c, 0, 72, 64
2, 29063, Note_on_c, 0, 72, 0
2, 29064, Note_on_c, 0, 75, 61
2, 29087, Note_on_c, 0, 75, 0
2, 29088, Note_on_c, 0, 74, 58
2, 29108, Note_on_c, 0, 74, 0
2, 29136, Note_on_c, 0, 67, 58
2, 29148, Note_on_c, 0, 67, 0
2, 29148, Note_on_c, 0, 66, 58
2, 29160, Note_on_c, 0, 66, 0
2, 29160, Note_on_c, 0, 64, 58
2, 29172, Note_on_c, 0, 64, 0
2, 29172, Note_on_c, 0, 66, 58
2, 29184, Note_on_c, 0, 66, 0
2, 29184, Note_on_c, 0, 67, 59
2, 29204, Note_on_c, 0, 67, 0
2, 29232, Note_on_c, 0, 70, 60
2, 29244, Note_on_c, 0, 70, 0
2, 29244, Note_on_c, 0, 69, 60
2, 29256, Note_on_c, 0, 69, 0
2, 29256, Note_on_c, 0, 67, 60
2, 29268, Note_on_c, 0, 67, 0
2, 29268, Note_on_c, 0, 69, 60
2, 29280, Note_on_c, 0, 69, 0
2, 29280, Note_on_c, 0, 70, 61
2, 29325, Note_on_c, 0, 70, 0
2, 29328, Note_on_c, 0, 74, 62
2, 29373, Note_on_c, 0, 74, 0
2, 29376, Note_on_c, 0, 72, 63
2, 29396, Note_on_c, 0, 72, 0
2, 29424, Note_on_c, 0, 65, 63
2, 29436, Note_on_c, 0, 65, 0
2, 29436, Note_on_c, 0, 64, 63
2, 29448, Note_on_c, 0, 64, 0
2, 29448, Note_on_c, 0, 62, 63
2, 29460, Note_on_c, 0, 62, 0
2, 29460, Note_on_c, 0, 64, 64
2, 29472, Note_on_c, 0, 64, 0
2, 29472, Note_on_c, 0, 65, 64
2, 29492, Note_on_c, 0, 65, 0
2, 29520, Note_on_c, 0, 69, 65
2, 29532, Note_on_c, 0, 69, 0
2, 29532, Note_on_c, 0, 67, 66
2, 29544, Note_on_c, 0, 67, 0
2, 29544, Note_on_c, 0, 65, 66
2, 29556, Note_on_c, 0, 65, 0
2, 29556, Note_on_c, 0, 67, 66
2, 29568, Note_on_c, 0, 67, 0
2, 29568, Note_on_c, 0, 69, 67
2, 29613, Note_on_c, 0, 69, 0
2, 29616, Note_on_c, 0, 72, 68
2, 29661, Note_on_c, 0, 72, 0
2, 29664, Note_on_c, 0, 70, 70
2, 29684, Note_on_c, 0, 70, 0
2, 29712, Note_on_c, 0, 78, 70
2, 29757, Note_on_c, 0, 78, 0
2, 29760, Note_on_c, 0, 79, 70
2, 29805, Note_on_c, 0, 79, 0
2, 29808, Note_on_c, 0, 77, 70
2, 29853, Note_on_c, 0, 77, 0
2, 29856, Note_on_c, 0, 76, 70
2, 29901, Note_on_c, 0, 76, 0
2, 29904, Note_on_c, 0, 71, 70
2, 29949, Note_on_c, 0, 71, 0
2, 29952, Note_on_c, 0, 72, 70
2, 30041, Note_on_c, 0, 72, 0
2, 30096, Note_on_c, 0, 82, 70
2, 30141, Note_on_c, 0, 82, 0
2, 30144, Note_on_c, 0, 84, 70
2, 30154, Note_on_c, 0, 84, 0
2, 30154, Note_on_c, 0, 82, 70
2, 30164, Note_on_c, 0, 82, 0
2, 30164, Note_on_c, 0, 84, 70
2, 30174, Note_on_c, 0, 84, 0
2, 30174, Note_on_c, 0, 82, 70
2, 30184, Note_on_c, 0, 82, 0
2, 30184, Note_on_c, 0, 84, 70
2, 30194, Note_on_c, 0, 84, 0
2, 30194, Note_on_c, 0, 82, 70
2, 30204, Note_on_c, 0, 82, 0
2, 30204, Note_on_c, 0, 84, 70
2, 30213, Note_on_c, 0, 84, 0
2, 30213, Note_on_c, 0, 82, 70
2, 30222, Note_on_c, 0, 82, 0
2, 30222, Note_on_c, 0, 81, 70
2, 30231, Note_on_c, 0, 81, 0
2, 30231, Note_on_c, 0, 82, 70
2, 30240, Note_on_c, 0, 82, 0
2, 30240, Note_on_c, 0, 81, 70
2, 30260, Note_on_c, 0, 81, 0
2, 30288, Note_on_c, 0, 76, 70
2, 30336, Note_on_c, 0, 76, 0
2, 30336, Note_on_c, 0, 77, 70
2, 30356, Note_on_c, 0, 77, 0
2, 30384, Note_on_c, 0, 77, 86
2, 30480, Note_on_c, 0, 77, 0
2, 30480, Note_on_c, 0, 75, 70
2, 30525, Note_on_c, 0, 75, 0
2, 30528, Note_on_c, 0, 74, 70
2, 30548, Note_on_c, 0, 74, 0
2, 30576, Note_on_c, 0, 66, 70
2, 30621, Note_on_c, 0, 66, 0
2, 30624, Note_on_c, 0, 67, 70
2, 30669, Note_on_c, 0, 67, 0
2, 30672, Note_on_c, 0, 69, 70
2, 30717, Note_on_c, 0, 69, 0
2, 30720, Note_on_c, 0, 70, 70
2, 30740, Note_on_c, 0, 70, 0
2, 30768, Note_on_c, 0, 70, 70
2, 30813, Note_on_c, 0, 70, 0
2, 30816, Note_on_c, 0, 69, 58
2, 30826, Note_on_c, 0, 69, 0
2, 30826, Note_on_c, 0, 70, 58
2, 30836, Note_on_c, 0, 70, 0
2, 30836, Note_on_c, 0, 72, 58
2, 30846, Note_on_c, 0, 72, 0
2, 30846, Note_on_c, 0, 70, 58
2, 30856, Note_on_c, 0, 70, 0
2, 30856, Note_on_c, 0, 72, 59
2, 30866, Note_on_c, 0, 72, 0
2, 30866, Note_on_c, 0, 70, 59
2, 30876, Note_on_c, 0, 70, 0
2, 30876, Note_on_c, 0, 72, 59
2, 30886, Note_on_c, 0, 72, 0
2, 30886, Note_on_c, 0, 70, 59
2, 30896, Note_on_c, 0, 70, 0
2, 30896, Note_on_c, 0, 72, 60
2, 30906, Note_on_c, 0, 72, 0
2, 30906, Note_on_c, 0, 70, 60
2, 30916, Note_on_c, 0, 70, 0
2, 30916, Note_on_c, 0, 72, 60
2, 30926, Note_on_c, 0, 72, 0
2, 30926, Note_on_c, 0, 70, 60
2, 30936, Note_on_c, 0, 70, 0
2, 30936, Note_on_c, 0, 72, 61
2, 30946, Note_on_c, 0, 72, 0
2, 30946, Note_on_c, 0, 70, 61
2, 30956, Note_on_c, 0, 70, 0
2, 30956, Note_on_c, 0, 72, 61
2, 30966, Note_on_c, 0, 72, 0
2, 30966, Note_on_c, 0, 70, 61
2, 30976, Note_on_c, 0, 70, 0
2, 30976, Note_on_c, 0, 72, 62
2, 30986, Note_on_c, 0, 72, 0
2, 30986, Note_on_c, 0, 70, 62
2, 30996, Note_on_c, 0, 70, 0
2, 30996, Note_on_c, 0, 72, 62
2, 31005, Note_on_c, 0, 72, 0
2, 31005, Note_on_c, 0, 70, 62
2, 31014, Note_on_c, 0, 70, 0
2, 31014, Note_on_c, 0, 72, 63
2, 31023, Note_on_c, 0, 72, 0
2, 31023, Note_on_c, 0, 70, 63
2, 31032, Note_on_c, 0, 70, 0
2, 31032, Note_on_c, 0, 72, 63
2, 31041, Note_on_c, 0, 72, 0
2, 31041, Note_on_c, 0, 70, 63
2, 31050, Note_on_c, 0, 70, 0
2, 31050, Note_on_c, 0, 72, 64
2, 31059, Note_on_c, 0, 72, 0
2, 31059, Note_on_c, 0, 70, 64
2, 31068, Note_on_c, 0, 70, 0
2, 31068, Note_on_c, 0, 69, 64
2, 31086, Note_on_c, 0, 69, 0
2, 31086, Note_on_c, 0, 70, 65
2, 31104, Note_on_c, 0, 70, 0
2, 31104, Note_on_c, 0, 69, 70
2, 31127, Note_on_c, 0, 69, 0
2, 31128, Note_on_c, 0, 72, 70
2, 31151, Note_on_c, 0, 72, 0
2, 31152, Note_on_c, 0, 67, 70
2, 31175, Note_on_c, 0, 67, 0
2, 31176, Note_on_c, 0, 70, 70
2, 31199, Note_on_c, 0, 70, 0
2, 31200, Note_on_c, 0, 65, 70
2, 31223, Note_on_c, 0, 65, 0
2, 31224, Note_on_c, 0, 69, 70
2, 31247, Note_on_c, 0, 69, 0
2, 31248, Note_on_c, 0, 64, 70
2, 31271, Note_on_c, 0, 64, 0
2, 31272, Note_on_c, 0, 67, 70
2, 31295, Note_on_c, 0, 67, 0
2, 31296, Note_on_c, 0, 65, 70
2, 31319, Note_on_c, 0, 65, 0
2, 31320, Note_on_c, 0, 69, 70
2, 31343, Note_on_c, 0, 69, 0
2, 31344, Note_on_c, 0, 60, 70
2, 31367, Note_on_c, 0, 60, 0
2, 31368, Note_on_c, 0, 63, 70
2, 31391, Note_on_c, 0, 63, 0
2, 31392, Note_on_c, 0, 62, 70
2, 31416, Note_on_c, 0, 62, 0
2, 31416, Note_on_c, 0, 74, 69
2, 31439, Note_on_c, 0, 74, 0
2, 31440, Note_on_c, 0, 70, 68
2, 31450, Note_on_c, 0, 70, 0
2, 31464, Note_on_c, 0, 67, 68
2, 31474, Note_on_c, 0, 67, 0
2, 31488, Note_on_c, 0, 60, 67
2, 31512, Note_on_c, 0, 60, 0
2, 31512, Note_on_c, 0, 72, 67
2, 31535, Note_on_c, 0, 72, 0
2, 31536, Note_on_c, 0, 69, 66
2, 31546, Note_on_c, 0, 69, 0
2, 31560, Note_on_c, 0, 65, 65
2, 31570, Note_on_c, 0, 65, 0
2, 31584, Note_on_c, 0, 60, 65
2, 31608, Note_on_c, 0, 60, 0
2, 31608, Note_on_c, 0, 70, 64
2, 31631, Note_on_c, 0, 70, 0
2, 31632, Note_on_c, 0, 67, 64
2, 31642, Note_on_c, 0, 67, 0
2, 31656, Note_on_c, 0, 64, 63
2, 31666, Note_on_c, 0, 64, 0
2, 31680, Note_on_c, 0, 77, 70
2, 31690, Note_on_c, 0, 77, 0
2, 31704, Note_on_c, 0, 69, 70
2, 31727, Note_on_c, 0, 69, 0
2, 31728, Note_on_c, 0, 67, 70
2, 31751, Note_on_c, 0, 67, 0
2, 31752, Note_on_c, 0, 69, 70
2, 31775, Note_on_c, 0, 69, 0
2, 31776, Note_on_c, 0, 77, 70
2, 31786, Note_on_c, 0, 77, 0
2, 31800, Note_on_c, 0, 70, 70
2, 31823, Note_on_c, 0, 70, 0
2, 31824, Note_on_c, 0, 69, 70
2, 31847, Note_on_c, 0, 69, 0
2, 31848, Note_on_c, 0, 70, 70
2, 31871, Note_on_c, 0, 70, 0
2, 31872, Note_on_c, 0, 77, 70
2, 31882, Note_on_c, 0, 77, 0
2, 31896, Note_on_c, 0, 72, 70
2, 31919, Note_on_c, 0, 72, 0
2, 31920, Note_on_c, 0, 70, 70
2, 31943, Note_on_c, 0, 70, 0
2, 31944, Note_on_c, 0, 72, 70
2, 31967, Note_on_c, 0, 72, 0
2, 31968, Note_on_c, 0, 75, 86
2, 31992, Note_on_c, 0, 75, 0
2, 31992, Note_on_c, 0, 74, 69
2, 32015, Note_on_c, 0, 74, 0
2, 32016, Note_on_c, 0, 72, 68
2, 32026, Note_on_c, 0, 72, 0
2, 32040, Note_on_c, 0, 70, 68
2, 32050, Note_on_c, 0, 70, 0
2, 32064, Note_on_c, 0, 69, 67
2, 32064, Note_on_c, 0, 65, 67
2, 32153, Note_on_c, 0, 69, 0
2, 32153, Note_on_c, 0, 65, 0
2, 32160, Note_on_c, 0, 69, 65
2, 32170, Note_on_c, 0, 69, 0
2, 32170, Note_on_c, 0, 67, 65
2, 32180, Note_on_c, 0, 67, 0
2, 32180, Note_on_c, 0, 69, 65
2, 32190, Note_on_c, 0, 69, 0
2, 32190, Note_on_c, 0, 67, 64
2, 32200, Note_on_c, 0, 67, 0
2, 32200, Note_on_c, 0, 69, 64
2, 32210, Note_on_c, 0, 69, 0
2, 32210, Note_on_c, 0, 67, 64
2, 32220, Note_on_c, 0, 67, 0
2, 32220, Note_on_c, 0, 69, 64
2, 32229, Note_on_c, 0, 69, 0
2, 32229, Note_on_c, 0, 67, 64
2, 32238, Note_on_c, 0, 67, 0
2, 32238, Note_on_c, 0, 65, 64
2, 32247, Note_on_c, 0, 65, 0
2, 32247, Note_on_c, 0, 67, 64
2, 32256, Note_on_c, 0, 67, 0
2, 32280, Note_on_c, 0, 69, 70
2, 32280, Note_on_c, 0, 65, 70
2, 32303, Note_on_c, 0, 69, 0
2, 32303, Note_on_c, 0, 65, 0
2, 32304, Note_on_c, 0, 67, 70
2, 32304, Note_on_c, 0, 64, 70
2, 32327, Note_on_c, 0, 67, 0
2, 32327, Note_on_c, 0, 64, 0
2, 32328, Note_on_c, 0, 69, 70
2, 32328, Note_on_c, 0, 65, 70
2, 32351, Note_on_c, 0, 69, 0
2, 32351, Note_on_c, 0, 65, 0
2, 32376, Note_on_c, 0, 70, 70
2, 32376, Note_on_c, 0, 67, 70
2, 32399, Note_on_c, 0, 70, 0
2, 32399, Note_on_c, 0, 67, 0
2, 32400, Note_on_c, 0, 69, 70
2, 32400, Note_on_c, 0, 65, 70
2, 32423, Note_on_c, 0, 69, 0
2, 32423, Note_on_c, 0, 65, 0
2, 32424, Note_on_c, 0, 70, 70
2, 32424, Note_on_c, 0, 67, 70
2, 32447, Note_on_c, 0, 70, 0
2, 32447, Note_on_c, 0, 67, 0
2, 32472, Note_on_c, 0, 72, 70
2, 32472, Note_on_c, 0, 69, 70
2, 32495, Note_on_c, 0, 72, 0
2, 32495, Note_on_c, 0, 69, 0
2, 32496, Note_on_c, 0, 70, 70
2, 32496, Note_on_c, 0, 67, 70
2, 32519, Note_on_c, 0, 70, 0
2, 32519, Note_on_c, 0, 67, 0
2, 32520, Note_on_c, 0, 72, 70
2, 32520, Note_on_c, 0, 69, 70
2, 32543, Note_on_c, 0, 72, 0
2, 32543, Note_on_c, 0, 69, 0
2, 32568, Note_on_c, 0, 74, 70
2, 32568, Note_on_c, 0, 70, 70
2, 32591, Note_on_c, 0, 74, 0
2, 32591, Note_on_c, 0, 70, 0
2, 32592, Note_on_c, 0, 72, 70
2, 32592, Note_on_c, 0, 69, 70
2, 32615, Note_on_c, 0, 72, 0
2, 32615, Note_on_c, 0, 69, 0
2, 32616, Note_on_c, 0, 74, 70
2, 32616, Note_on_c, 0, 70, 70
2, 32639, Note_on_c, 0, 74, 0
2, 32639, Note_on_c, 0, 70, 0
2, 32664, Note_on_c, 0, 75, 70
2, 32664, Note_on_c, 0, 72, 70
2, 32687, Note_on_c, 0, 75, 0
2, 32687, Note_on_c, 0, 72, 0
2, 32688, Note_on_c, 0, 74, 70
2, 32688, Note_on_c, 0, 70, 70
2, 32711, Note_on_c, 0, 74, 0
2, 32711, Note_on_c, 0, 70, 0
2, 32712, Note_on_c, 0, 75, 70
2, 32712, Note_on_c, 0, 72, 70
2, 32735, Note_on_c, 0, 75, 0
2, 32735, Note_on_c, 0, 72, 0
2, 32760, Note_on_c, 0, 79, 71
2, 32760, Note_on_c, 0, 75, 71
2, 32783, Note_on_c, 0, 79, 0
2, 32783, Note_on_c, 0, 75, 0
2, 32784, Note_on_c, 0, 77, 71
2, 32784, Note_on_c, 0, 74, 71
2, 32807, Note_on_c, 0, 77, 0
2, 32807, Note_on_c, 0, 74, 0
2, 32808, Note_on_c, 0, 75, 71
2, 32808, Note_on_c, 0, 72, 71
2, 32831, Note_on_c, 0, 75, 0
2, 32831, Note_on_c, 0, 72, 0
2, 32832, Note_on_c, 0, 74, 71
2, 32832, Note_on_c, 0, 70, 71
2, 32921, Note_on_c, 0, 74, 0
2, 32921, Note_on_c, 0, 70, 0
2, 32928, Note_on_c, 0, 82, 72
2, 32928, Note_on_c, 0, 74, 72
2, 32967, Note_on_c, 0, 82, 0
2, 32967, Note_on_c, 0, 74, 0
2, 33024, Note_on_c, 0, 86, 72
2, 33024, Note_on_c, 0, 82, 72
2, 33063, Note_on_c, 0, 86, 0
2, 33063, Note_on_c, 0, 82, 0
2, 33144, Note_on_c, 0, 86, 73
2, 33144, Note_on_c, 0, 82, 73
2, 33167, Note_on_c, 0, 86, 0
2, 33167, Note_on_c, 0, 82, 0
2, 33168, Note_on_c, 0, 84, 73
2, 33168, Note_on_c, 0, 81, 73
2, 33191, Note_on_c, 0, 84, 0
2, 33191, Note_on_c, 0, 81, 0
2, 33192, Note_on_c, 0, 82, 73
2, 33192, Note_on_c, 0, 79, 73
2, 33215, Note_on_c, 0, 82, 0
2, 33215, Note_on_c, 0, 79, 0
2, 33240, Note_on_c, 0, 82, 74
2, 33240, Note_on_c, 0, 79, 74
2, 33263, Note_on_c, 0, 82, 0
2, 33263, Note_on_c, 0, 79, 0
2, 33264, Note_on_c, 0, 81, 74
2, 33264, Note_on_c, 0, 77, 74
2, 33287, Note_on_c, 0, 81, 0
2, 33287, Note_on_c, 0, 77, 0
2, 33288, Note_on_c, 0, 79, 74
2, 33288, Note_on_c, 0, 76, 74
2, 33311, Note_on_c, 0, 79, 0
2, 33311, Note_on_c, 0, 76, 0
2, 33336, Note_on_c, 0, 81, 74
2, 33336, Note_on_c, 0, 77, 74
2, 33359, Note_on_c, 0, 81, 0
2, 33359, Note_on_c, 0, 77, 0
2, 33360, Note_on_c, 0, 79, 74
2, 33360, Note_on_c, 0, 76, 74
2, 33383, Note_on_c, 0, 79, 0
2, 33383, Note_on_c, 0, 76, 0
2, 33384, Note_on_c, 0, 81, 74
2, 33384, Note_on_c, 0, 77, 74
2, 33407, Note_on_c, 0, 81, 0
2, 33407, Note_on_c, 0, 77, 0
2, 33432, Note_on_c, 0, 74, 74
2, 33432, Note_on_c, 0, 70, 74
2, 33455, Note_on_c, 0, 74, 0
2, 33455, Note_on_c, 0, 70, 0
2, 33456, Note_on_c, 0, 72, 74
2, 33456, Note_on_c, 0, 69, 74
2, 33479, Note_on_c, 0, 72, 0
2, 33479, Note_on_c, 0, 69, 0
2, 33480, Note_on_c, 0, 70, 73
2, 33480, Note_on_c, 0, 67, 73
2, 33503, Note_on_c, 0, 70, 0
2, 33503, Note_on_c, 0, 67, 0
2, 33504, Note_on_c, 0, 70, 73
2, 33504, Note_on_c, 0, 67, 73
2, 33528, Note_on_c, 0, 70, 0
2, 33528, Note_on_c, 0, 67, 0
2, 33528, Note_on_c, 0, 69, 72
2, 33528, Note_on_c, 0, 65, 72
2, 33551, Note_on_c, 0, 69, 0
2, 33551, Note_on_c, 0, 65, 0
2, 33552, Note_on_c, 0, 72, 72
2, 33552, Note_on_c, 0, 69, 72
2, 33562, Note_on_c, 0, 72, 0
2, 33562, Note_on_c, 0, 69, 0
2, 33576, Note_on_c, 0, 69, 72
2, 33576, Note_on_c, 0, 65, 72
2, 33586, Note_on_c, 0, 69, 0
2, 33586, Note_on_c, 0, 65, 0
2, 33600, Note_on_c, 0, 69, 71
2, 33600, Note_on_c, 0, 65, 71
2, 33624, Note_on_c, 0, 69, 0
2, 33624, Note_on_c, 0, 65, 0
2, 33624, Note_on_c, 0, 67, 71
2, 33624, Note_on_c, 0, 64, 71
2, 33647, Note_on_c, 0, 67, 0
2, 33647, Note_on_c, 0, 64, 0
2, 33648, Note_on_c, 0, 70, 70
2, 33648, Note_on_c, 0, 67, 70
2, 33658, Note_on_c, 0, 70, 0
2, 33658, Note_on_c, 0, 67, 0
2, 33672, Note_on_c, 0, 67, 70
2, 33672, Note_on_c, 0, 64, 70
2, 33682, Note_on_c, 0, 67, 0
2, 33682, Note_on_c, 0, 64, 0
2, 33720, Note_on_c, 0, 81, 75
2, 33720, Note_on_c, 0, 69, 75
2, 33743, Note_on_c, 0, 81, 0
2, 33743, Note_on_c, 0, 69, 0
2, 33744, Note_on_c, 0, 79, 75
2, 33744, Note_on_c, 0, 67, 75
2, 33767, Note_on_c, 0, 79, 0
2, 33767, Note_on_c, 0, 67, 0
2, 33768, Note_on_c, 0, 77, 75
2, 33768, Note_on_c, 0, 65, 75
2, 33791, Note_on_c, 0, 77, 0
2, 33791, Note_on_c, 0, 65, 0
2, 33792, Note_on_c, 0, 76, 75
2, 33792, Note_on_c, 0, 64, 75
2, 33815, Note_on_c, 0, 76, 0
2, 33815, Note_on_c, 0, 64, 0
2, 33816, Note_on_c, 0, 74, 75
2, 33816, Note_on_c, 0, 62, 75
2, 33839, Note_on_c, 0, 74, 0
2, 33839, Note_on_c, 0, 62, 0
2, 33840, Note_on_c, 0, 72, 75
2, 33840, Note_on_c, 0, 60, 75
2, 33863, Note_on_c, 0, 72, 0
2, 33863, Note_on_c, 0, 60, 0
2, 33864, Note_on_c, 0, 71, 75
2, 33864, Note_on_c, 0, 59, 75
2, 33887, Note_on_c, 0, 71, 0
2, 33887, Note_on_c, 0, 59, 0
2, 33888, Note_on_c, 0, 72, 75
2, 33888, Note_on_c, 0, 60, 75
2, 33977, Note_on_c, 0, 72, 0
2, 33977, Note_on_c, 0, 60, 0
2, 34008, Note_on_c, 0, 82, 75
2, 34008, Note_on_c, 0, 70, 75
2, 34031, Note_on_c, 0, 82, 0
2, 34031, Note_on_c, 0, 70, 0
2, 34032, Note_on_c, 0, 82, 75
2, 34032, Note_on_c, 0, 70, 75
2, 34055, Note_on_c, 0, 82, 0
2, 34055, Note_on_c, 0, 70, 0
2, 34056, Note_on_c, 0, 81, 75
2, 34056, Note_on_c, 0, 69, 75
2, 34079, Note_on_c, 0, 81, 0
2, 34079, Note_on_c, 0, 69, 0
2, 34080, Note_on_c, 0, 79, 75
2, 34080, Note_on_c, 0, 67, 75
2, 34103, Note_on_c, 0, 79, 0
2, 34103, Note_on_c, 0, 67, 0
2, 34104, Note_on_c, 0, 77, 75
2, 34104, Note_on_c, 0, 65, 75
2, 34127, Note_on_c, 0, 77, 0
2, 34127, Note_on_c, 0, 65, 0
2, 34128, Note_on_c, 0, 76, 75
2, 34128, Note_on_c, 0, 64, 75
2, 34151, Note_on_c, 0, 76, 0
2, 34151, Note_on_c, 0, 64, 0
2, 34152, Note_on_c, 0, 74, 75
2, 34152, Note_on_c, 0, 62, 75
2, 34175, Note_on_c, 0, 74, 0
2, 34175, Note_on_c, 0, 62, 0
2, 34176, Note_on_c, 0, 72, 75
2, 34176, Note_on_c, 0, 60, 75
2, 34265, Note_on_c, 0, 72, 0
2, 34265, Note_on_c, 0, 60, 0
2, 34296, Note_on_c, 0, 81, 63
2, 34296, Note_on_c, 0, 69, 63
2, 34319, Note_on_c, 0, 81, 0
2, 34319, Note_on_c, 0, 69, 0
2, 34320, Note_on_c, 0, 79, 63
2, 34320, Note_on_c, 0, 67, 63
2, 34343, Note_on_c, 0, 79, 0
2, 34343, Note_on_c, 0, 67, 0
2, 34344, Note_on_c, 0, 77, 63
2, 34344, Note_on_c, 0, 65, 63
2, 34367, Note_on_c, 0, 77, 0
2, 34367, Note_on_c, 0, 65, 0
2, 34368, Note_on_c, 0, 76, 63
2, 34368, Note_on_c, 0, 64, 63
2, 34391, Note_on_c, 0, 76, 0
2, 34391, Note_on_c, 0, 64, 0
2, 34392, Note_on_c, 0, 74, 63
2, 34392, Note_on_c, 0, 62, 63
2, 34415, Note_on_c, 0, 74, 0
2, 34415, Note_on_c, 0, 62, 0
2, 34416, Note_on_c, 0, 72, 63
2, 34416, Note_on_c, 0, 60, 63
2, 34439, Note_on_c, 0, 72, 0
2, 34439, Note_on_c, 0, 60, 0
2, 34440, Note_on_c, 0, 71, 63
2, 34440, Note_on_c, 0, 59, 63
2, 34463, Note_on_c, 0, 71, 0
2, 34463, Note_on_c, 0, 59, 0
2, 34464, Note_on_c, 0, 72, 63
2, 34464, Note_on_c, 0, 60, 63
2, 34553, Note_on_c, 0, 72, 0
2, 34553, Note_on_c, 0, 60, 0
2, 34584, Note_on_c, 0, 82, 63
2, 34584, Note_on_c, 0, 70, 63
2, 34607, Note_on_c, 0, 82, 0
2, 34607, Note_on_c, 0, 70, 0
2, 34608, Note_on_c, 0, 82, 63
2, 34608, Note_on_c, 0, 70, 63
2, 34631, Note_on_c, 0, 82, 0
2, 34631, Note_on_c, 0, 70, 0
2, 34632, Note_on_c, 0, 81, 63
2, 34632, Note_on_c, 0, 69, 63
2, 34655, Note_on_c, 0, 81, 0
2, 34655, Note_on_c, 0, 69, 0
2, 34656, Note_on_c, 0, 79, 63
2, 34656, Note_on_c, 0, 67, 63
2, 34679, Note_on_c, 0, 79, 0
2, 34679, Note_on_c, 0, 67, 0
2, 34680, Note_on_c, 0, 77, 63
2, 34680, Note_on_c, 0, 65, 63
2, 34703, Note_on_c, 0, 77, 0
2, 34703, Note_on_c, 0, 65, 0
2, 34704, Note_on_c, 0, 76, 63
2, 34704, Note_on_c, 0, 64, 63
2, 34727, Note_on_c, 0, 76, 0
2, 34727, Note_on_c, 0, 64, 0
2, 34728, Note_on_c, 0, 74, 63
2, 34728, Note_on_c, 0, 62, 63
2, 34751, Note_on_c, 0, 74, 0
2, 34751, Note_on_c, 0, 62, 0
2, 34752, Note_on_c, 0, 72, 63
2, 34752, Note_on_c, 0, 60, 63
2, 34841, Note_on_c, 0, 72, 0
2, 34841, Note_on_c, 0, 60, 0
2, 34872, Note_on_c, 0, 84, 75
2, 34872, Note_on_c, 0, 72, 75
2, 34895, Note_on_c, 0, 84, 0
2, 34895, Note_on_c, 0, 72, 0
2, 34896, Note_on_c, 0, 82, 75
2, 34896, Note_on_c, 0, 70, 75
2, 34919, Note_on_c, 0, 82, 0
2, 34919, Note_on_c, 0, 70, 0
2, 34920, Note_on_c, 0, 81, 75
2, 34920, Note_on_c, 0, 69, 75
2, 34943, Note_on_c, 0, 81, 0
2, 34943, Note_on_c, 0, 69, 0
2, 34944, Note_on_c, 0, 79, 75
2, 34944, Note_on_c, 0, 67, 75
2, 34967, Note_on_c, 0, 79, 0
2, 34967, Note_on_c, 0, 67, 0
2, 34968, Note_on_c, 0, 77, 75
2, 34968, Note_on_c, 0, 65, 75
2, 34991, Note_on_c, 0, 77, 0
2, 34991, Note_on_c, 0, 65, 0
2, 34992, Note_on_c, 0, 76, 75
2, 34992, Note_on_c, 0, 64, 75
2, 35015, Note_on_c, 0, 76, 0
2, 35015, Note_on_c, 0, 64, 0
2, 35016, Note_on_c, 0, 74, 75
2, 35016, Note_on_c, 0, 62, 75
2, 35039, Note_on_c, 0, 74, 0
2, 35039, Note_on_c, 0, 62, 0
2, 35040, Note_on_c, 0, 72, 75
2, 35040, Note_on_c, 0, 60, 75
2, 35063, Note_on_c, 0, 72, 0
2, 35063, Note_on_c, 0, 60, 0
2, 35064, Note_on_c, 0, 74, 75
2, 35064, Note_on_c, 0, 62, 75
2, 35087, Note_on_c, 0, 74, 0
2, 35087, Note_on_c, 0, 62, 0
2, 35088, Note_on_c, 0, 76, 75
2, 35088, Note_on_c, 0, 64, 75
2, 35111, Note_on_c, 0, 76, 0
2, 35111, Note_on_c, 0, 64, 0
2, 35112, Note_on_c, 0, 77, 75
2, 35112, Note_on_c, 0, 65, 75
2, 35135, Note_on_c, 0, 77, 0
2, 35135, Note_on_c, 0, 65, 0
2, 35160, Note_on_c, 0, 74, 75
2, 35160, Note_on_c, 0, 70, 75
2, 35183, Note_on_c, 0, 74, 0
2, 35183, Note_on_c, 0, 70, 0
2, 35184, Note_on_c, 0, 72, 73
2, 35184, Note_on_c, 0, 69, 73
2, 35207, Note_on_c, 0, 72, 0
2, 35207, Note_on_c, 0, 69, 0
2, 35208, Note_on_c, 0, 70, 71
2, 35208, Note_on_c, 0, 67, 71
2, 35231, Note_on_c, 0, 70, 0
2, 35231, Note_on_c, 0, 67, 0
2, 35232, Note_on_c, 0, 70, 70
2, 35232, Note_on_c, 0, 67, 70
2, 35256, Note_on_c, 0, 70, 0
2, 35256, Note_on_c, 0, 67, 0
2, 35256, Note_on_c, 0, 69, 68
2, 35256, Note_on_c, 0, 65, 68
2, 35279, Note_on_c, 0, 69, 0
2, 35279, Note_on_c, 0, 65, 0
2, 35280, Note_on_c, 0, 72, 67
2, 35280, Note_on_c, 0, 69, 67
2, 35290, Note_on_c, 0, 72, 0
2, 35290, Note_on_c, 0, 69, 0
2, 35304, Note_on_c, 0, 69, 65
2, 35304, Note_on_c, 0, 65, 65
2, 35314, Note_on_c, 0, 69, 0
2, 35314, Note_on_c, 0, 65, 0
2, 35328, Note_on_c, 0, 69, 64
2, 35328, Note_on_c, 0, 65, 64
2, 35352, Note_on_c, 0, 69, 0
2, 35352, Note_on_c, 0, 65, 0
2, 35352, Note_on_c, 0, 67, 62
2, 35352, Note_on_c, 0, 64, 62
2, 35375, Note_on_c, 0, 67, 0
2, 35375, Note_on_c, 0, 64, 0
2, 35376, Note_on_c, 0, 70, 61
2, 35376, Note_on_c, 0, 67, 61
2, 35386, Note_on_c, 0, 70, 0
2, 35386, Note_on_c, 0, 67, 0
2, 35400, Note_on_c, 0, 67, 59
2, 35400, Note_on_c, 0, 64, 59
2, 35410, Note_on_c, 0, 67, 0
2, 35410, Note_on_c, 0, 64, 0
2, 35448, Note_on_c, 0, 65, 63
2, 35471, Note_on_c, 0, 65, 0
2, 35472, Note_on_c, 0, 64, 63
2, 35495, Note_on_c, 0, 64, 0
2, 35496, Note_on_c, 0, 65, 63
2, 35519, Note_on_c, 0, 65, 0
2, 35520, Note_on_c, 0, 60, 63
2, 35543, Note_on_c, 0, 60, 0
2, 35544, Note_on_c, 0, 65, 63
2, 35567, Note_on_c, 0, 65, 0
2, 35568, Note_on_c, 0, 57, 63
2, 35578, Note_on_c, 0, 57, 0
2, 35592, Note_on_c, 0, 60, 63
2, 35602, Note_on_c, 0, 60, 0
2, 35616, Note_on_c, 0, 53, 63
2, 35705, Note_on_c, 0, 53, 0
2, 35736, Note_on_c, 0, 67, 70
2, 35759, Note_on_c, 0, 67, 0
2, 35760, Note_on_c, 0, 69, 70
2, 35783, Note_on_c, 0, 69, 0
2, 35784, Note_on_c, 0, 71, 70
2, 35807, Note_on_c, 0, 71, 0
2, 35808, Note_on_c, 0, 72, 70
2, 35831, Note_on_c, 0, 72, 0
2, 35832, Note_on_c, 0, 74, 71
2, 35855, Note_on_c, 0, 74, 0
2, 35856, Note_on_c, 0, 76, 73
2, 35879, Note_on_c, 0, 76, 0
2, 35880, Note_on_c, 0, 77, 75
2, 35903, Note_on_c, 0, 77, 0
2, 35904, Note_on_c, 0, 79, 74
2, 35927, Note_on_c, 0, 79, 0
2, 35928, Note_on_c, 0, 76, 73
2, 35951, Note_on_c, 0, 76, 0
2, 35952, Note_on_c, 0, 74, 72
2, 35975, Note_on_c, 0, 74, 0
2, 35976, Note_on_c, 0, 72, 71
2, 35999, Note_on_c, 0, 72, 0
2, 36000, Note_on_c, 0, 72, 70
2, 36192, Note_on_c, 0, 72, 0
2, 36192, Note_on_c, 0, 71, 70
2, 36281, Note_on_c, 0, 71, 0
2, 36312, Note_on_c, 0, 79, 70
2, 36335, Note_on_c, 0, 79, 0
2, 36336, Note_on_c, 0, 77, 70
2, 36359, Note_on_c, 0, 77, 0
2, 36360, Note_on_c, 0, 76, 70
2, 36383, Note_on_c, 0, 76, 0
2, 36384, Note_on_c, 0, 74, 70
2, 36407, Note_on_c, 0, 74, 0
2, 36408, Note_on_c, 0, 72, 71
2, 36431, Note_on_c, 0, 72, 0
2, 36432, Note_on_c, 0, 71, 72
2, 36455, Note_on_c, 0, 71, 0
2, 36456, Note_on_c, 0, 72, 73
2, 36479, Note_on_c, 0, 72, 0
2, 36480, Note_on_c, 0, 84, 75
2, 36503, Note_on_c, 0, 84, 0
2, 36504, Note_on_c, 0, 83, 73
2, 36527, Note_on_c, 0, 83, 0
2, 36528, Note_on_c, 0, 81, 72
2, 36551, Note_on_c, 0, 81, 0
2, 36552, Note_on_c, 0, 79, 71
2, 36575, Note_on_c, 0, 79, 0
2, 36576, Note_on_c, 0, 79, 70
2, 36672, Note_on_c, 0, 79, 0
2, 36672, Note_on_c, 0, 77, 70
2, 36887, Note_on_c, 0, 77, 0
2, 36888, Note_on_c, 0, 74, 70
2, 36911, Note_on_c, 0, 74, 0
2, 36912, Note_on_c, 0, 76, 70
2, 36935, Note_on_c, 0, 76, 0
2, 36936, Note_on_c, 0, 77, 70
2, 36959, Note_on_c, 0, 77, 0
2, 36960, Note_on_c, 0, 79, 70
2, 36983, Note_on_c, 0, 79, 0
2, 36984, Note_on_c, 0, 81, 70
2, 37007, Note_on_c, 0, 81, 0
2, 37008, Note_on_c, 0, 83, 70
2, 37031, Note_on_c, 0, 83, 0
2, 37032, Note_on_c, 0, 84, 70
2, 37055, Note_on_c, 0, 84, 0
2, 37056, Note_on_c, 0, 86, 70
2, 37079, Note_on_c, 0, 86, 0
2, 37080, Note_on_c, 0, 83, 70
2, 37103, Note_on_c, 0, 83, 0
2, 37104, Note_on_c, 0, 79, 70
2, 37127, Note_on_c, 0, 79, 0
2, 37128, Note_on_c, 0, 77, 70
2, 37151, Note_on_c, 0, 77, 0
2, 37152, Note_on_c, 0, 77, 70
2, 37248, Note_on_c, 0, 77, 0
2, 37248, Note_on_c, 0, 76, 70
2, 37337, Note_on_c, 0, 76, 0
2, 37344, Note_on_c, 0, 84, 70
2, 37367, Note_on_c, 0, 84, 0
2, 37368, Note_on_c, 0, 83, 70
2, 37391, Note_on_c, 0, 83, 0
2, 37392, Note_on_c, 0, 81, 70
2, 37415, Note_on_c, 0, 81, 0
2, 37416, Note_on_c, 0, 79, 70
2, 37439, Note_on_c, 0, 79, 0
2, 37440, Note_on_c, 0, 81, 70
2, 37463, Note_on_c, 0, 81, 0
2, 37464, Note_on_c, 0, 77, 70
2, 37487, Note_on_c, 0, 77, 0
2, 37488, Note_on_c, 0, 76, 70
2, 37511, Note_on_c, 0, 76, 0
2, 37512, Note_on_c, 0, 74, 70
2, 37535, Note_on_c, 0, 74, 0
2, 37536, Note_on_c, 0, 77, 70
2, 37559, Note_on_c, 0, 77, 0
2, 37560, Note_on_c, 0, 76, 70
2, 37583, Note_on_c, 0, 76, 0
2, 37584, Note_on_c, 0, 79, 70
2, 37607, Note_on_c, 0, 79, 0
2, 37608, Note_on_c, 0, 72, 70
2, 37631, Note_on_c, 0, 72, 0
2, 37632, Note_on_c, 0, 76, 70
2, 37655, Note_on_c, 0, 76, 0
2, 37656, Note_on_c, 0, 74, 67
2, 37679, Note_on_c, 0, 74, 0
2, 37680, Note_on_c, 0, 72, 64
2, 37703, Note_on_c, 0, 72, 0
2, 37704, Note_on_c, 0, 71, 61
2, 37727, Note_on_c, 0, 71, 0
2, 37728, Note_on_c, 0, 72, 58
2, 37817, Note_on_c, 0, 72, 0
2, 38040, Note_on_c, 0, 67, 58
2, 38063, Note_on_c, 0, 67, 0
2, 38064, Note_on_c, 0, 69, 58
2, 38087, Note_on_c, 0, 69, 0
2, 38088, Note_on_c, 0, 71, 58
2, 38111, Note_on_c, 0, 71, 0
2, 38112, Note_on_c, 0, 72, 58
2, 38135, Note_on_c, 0, 72, 0
2, 38136, Note_on_c, 0, 74, 58
2, 38159, Note_on_c, 0, 74, 0
2, 38160, Note_on_c, 0, 75, 58
2, 38183, Note_on_c, 0, 75, 0
2, 38184, Note_on_c, 0, 77, 58
2, 38207, Note_on_c, 0, 77, 0
2, 38208, Note_on_c, 0, 79, 58
2, 38231, Note_on_c, 0, 79, 0
2, 38232, Note_on_c, 0, 75, 58
2, 38255, Note_on_c, 0, 75, 0
2, 38256, Note_on_c, 0, 74, 58
2, 38279, Note_on_c, 0, 74, 0
2, 38280, Note_on_c, 0, 72, 58
2, 38303, Note_on_c, 0, 72, 0
2, 38304, Note_on_c, 0, 78, 58
2, 38349, Note_on_c, 0, 78, 0
2, 38352, Note_on_c, 0, 79, 59
2, 38397, Note_on_c, 0, 79, 0
2, 38400, Note_on_c, 0, 81, 60
2, 38420, Note_on_c, 0, 81, 0
2, 38448, Note_on_c, 0, 72, 77
2, 38544, Note_on_c, 0, 72, 0
2, 38544, Note_on_c, 0, 69, 63
2, 38589, Note_on_c, 0, 69, 0
2, 38592, Note_on_c, 0, 70, 64
2, 38637, Note_on_c, 0, 70, 0
2, 38640, Note_on_c, 0, 66, 65
2, 38685, Note_on_c, 0, 66, 0
2, 38688, Note_on_c, 0, 67, 66
2, 38708, Note_on_c, 0, 67, 0
2, 38736, Note_on_c, 0, 79, 83
2, 38832, Note_on_c, 0, 79, 0
2, 38832, Note_on_c, 0, 77, 70
2, 38877, Note_on_c, 0, 77, 0
2, 38880, Note_on_c, 0, 76, 70
2, 38925, Note_on_c, 0, 76, 0
2, 38928, Note_on_c, 0, 71, 71
2, 38973, Note_on_c, 0, 71, 0
2, 38976, Note_on_c, 0, 72, 72
2, 38996, Note_on_c, 0, 72, 0
2, 39024, Note_on_c, 0, 72, 89
2, 39120, Note_on_c, 0, 72, 0
2, 39120, Note_on_c, 0, 70, 75
2, 39165, Note_on_c, 0, 70, 0
2, 39168, Note_on_c, 0, 69, 75
2, 39213, Note_on_c, 0, 69, 0
2, 39216, Note_on_c, 0, 64, 75
2, 39261, Note_on_c, 0, 64, 0
2, 39264, Note_on_c, 0, 65, 75
2, 39284, Note_on_c, 0, 65, 0
2, 39312, Note_on_c, 0, 77, 91
2, 39408, Note_on_c, 0, 77, 0
2, 39408, Note_on_c, 0, 75, 75
2, 39453, Note_on_c, 0, 75, 0
2, 39456, Note_on_c, 0, 74, 75
2, 39501, Note_on_c, 0, 74, 0
2, 39504, Note_on_c, 0, 69, 75
2, 39549, Note_on_c, 0, 69, 0
2, 39552, Note_on_c, 0, 70, 75
2, 39572, Note_on_c, 0, 70, 0
2, 39600, Note_on_c, 0, 79, 91
2, 39696, Note_on_c, 0, 79, 0
2, 39696, Note_on_c, 0, 77, 75
2, 39741, Note_on_c, 0, 77, 0
2, 39744, Note_on_c, 0, 76, 75
2, 39789, Note_on_c, 0, 76, 0
2, 39792, Note_on_c, 0, 71, 75
2, 39837, Note_on_c, 0, 71, 0
2, 39840, Note_on_c, 0, 72, 75
2, 39860, Note_on_c, 0, 72, 0
2, 39888, Note_on_c, 0, 81, 91
2, 39984, Note_on_c, 0, 81, 0
2, 39984, Note_on_c, 0, 79, 75
2, 40029, Note_on_c, 0, 79, 0
2, 40032, Note_on_c, 0, 77, 75
2, 40077, Note_on_c, 0, 77, 0
2, 40080, Note_on_c, 0, 73, 75
2, 40125, Note_on_c, 0, 73, 0
2, 40128, Note_on_c, 0, 74, 75
2, 40173, Note_on_c, 0, 74, 0
2, 40176, Note_on_c, 0, 77, 75
2, 40199, Note_on_c, 0, 77, 0
2, 40200, Note_on_c, 0, 81, 75
2, 40223, Note_on_c, 0, 81, 0
2, 40224, Note_on_c, 0, 79, 75
2, 40247, Note_on_c, 0, 79, 0
2, 40248, Note_on_c, 0, 82, 75
2, 40271, Note_on_c, 0, 82, 0
2, 40272, Note_on_c, 0, 81, 75
2, 40295, Note_on_c, 0, 81, 0
2, 40296, Note_on_c, 0, 84, 75
2, 40319, Note_on_c, 0, 84, 0
2, 40320, Note_on_c, 0, 82, 75
2, 40343, Note_on_c, 0, 82, 0
2, 40344, Note_on_c, 0, 86, 75
2, 40367, Note_on_c, 0, 86, 0
2, 40368, Note_on_c, 0, 81, 75
2, 40391, Note_on_c, 0, 81, 0
2, 40392, Note_on_c, 0, 84, 75
2, 40415, Note_on_c, 0, 84, 0
2, 40416, Note_on_c, 0, 79, 75
2, 40439, Note_on_c, 0, 79, 0
2, 40440, Note_on_c, 0, 82, 75
2, 40463, Note_on_c, 0, 82, 0
2, 40464, Note_on_c, 0, 78, 75
2, 40487, Note_on_c, 0, 78, 0
2, 40488, Note_on_c, 0, 81, 75
2, 40511, Note_on_c, 0, 81, 0
2, 40512, Note_on_c, 0, 79, 75
2, 40535, Note_on_c, 0, 79, 0
2, 40536, Note_on_c, 0, 82, 75
2, 40559, Note_on_c, 0, 82, 0
2, 40560, Note_on_c, 0, 74, 75
2, 40583, Note_on_c, 0, 74, 0
2, 40584, Note_on_c, 0, 77, 75
2, 40607, Note_on_c, 0, 77, 0
2, 40608, Note_on_c, 0, 76, 75
2, 40631, Note_on_c, 0, 76, 0
2, 40632, Note_on_c, 0, 79, 75
2, 40655, Note_on_c, 0, 79, 0
2, 40656, Note_on_c, 0, 74, 75
2, 40679, Note_on_c, 0, 74, 0
2, 40680, Note_on_c, 0, 77, 75
2, 40703, Note_on_c, 0, 77, 0
2, 40704, Note_on_c, 0, 72, 75
2, 40727, Note_on_c, 0, 72, 0
2, 40728, Note_on_c, 0, 76, 75
2, 40751, Note_on_c, 0, 76, 0
2, 40752, Note_on_c, 0, 71, 75
2, 40775, Note_on_c, 0, 71, 0
2, 40776, Note_on_c, 0, 74, 75
2, 40799, Note_on_c, 0, 74, 0
2, 40800, Note_on_c, 0, 72, 75
2, 40823, Note_on_c, 0, 72, 0
2, 40824, Note_on_c, 0, 76, 75
2, 40847, Note_on_c, 0, 76, 0
2, 40848, Note_on_c, 0, 79, 75
2, 40871, Note_on_c, 0, 79, 0
2, 40872, Note_on_c, 0, 82, 75
2, 40895, Note_on_c, 0, 82, 0
2, 40896, Note_on_c, 0, 81, 75
2, 40919, Note_on_c, 0, 81, 0
2, 40920, Note_on_c, 0, 84, 75
2, 40943, Note_on_c, 0, 84, 0
2, 40944, Note_on_c, 0, 79, 75
2, 40967, Note_on_c, 0, 79, 0
2, 40968, Note_on_c, 0, 82, 75
2, 40991, Note_on_c, 0, 82, 0
2, 40992, Note_on_c, 0, 77, 75
2, 41015, Note_on_c, 0, 77, 0
2, 41016, Note_on_c, 0, 81, 75
2, 41039, Note_on_c, 0, 81, 0
2, 41040, Note_on_c, 0, 76, 75
2, 41063, Note_on_c, 0, 76, 0
2, 41064, Note_on_c, 0, 79, 75
2, 41087, Note_on_c, 0, 79, 0
2, 41088, Note_on_c, 0, 77, 75
2, 41111, Note_on_c, 0, 77, 0
2, 41112, Note_on_c, 0, 81, 75
2, 41135, Note_on_c, 0, 81, 0
2, 41136, Note_on_c, 0, 72, 75
2, 41159, Note_on_c, 0, 72, 0
2, 41160, Note_on_c, 0, 75, 75
2, 41183, Note_on_c, 0, 75, 0
2, 41184, Note_on_c, 0, 74, 75
2, 41207, Note_on_c, 0, 74, 0
2, 41208, Note_on_c, 0, 77, 75
2, 41231, Note_on_c, 0, 77, 0
2, 41232, Note_on_c, 0, 72, 75
2, 41255, Note_on_c, 0, 72, 0
2, 41256, Note_on_c, 0, 75, 75
2, 41279, Note_on_c, 0, 75, 0
2, 41280, Note_on_c, 0, 70, 75
2, 41303, Note_on_c, 0, 70, 0
2, 41304, Note_on_c, 0, 74, 75
2, 41327, Note_on_c, 0, 74, 0
2, 41328, Note_on_c, 0, 69, 75
2, 41351, Note_on_c, 0, 69, 0
2, 41352, Note_on_c, 0, 72, 75
2, 41375, Note_on_c, 0, 72, 0
2, 41376, Note_on_c, 0, 70, 75
2, 41399, Note_on_c, 0, 70, 0
2, 41400, Note_on_c, 0, 74, 75
2, 41423, Note_on_c, 0, 74, 0
2, 41424, Note_on_c, 0, 72, 75
2, 41447, Note_on_c, 0, 72, 0
2, 41448, Note_on_c, 0, 75, 75
2, 41471, Note_on_c, 0, 75, 0
2, 41472, Note_on_c, 0, 74, 75
2, 41495, Note_on_c, 0, 74, 0
2, 41496, Note_on_c, 0, 77, 73
2, 41519, Note_on_c, 0, 77, 0
2, 41520, Note_on_c, 0, 72, 72
2, 41543, Note_on_c, 0, 72, 0
2, 41544, Note_on_c, 0, 75, 71
2, 41567, Note_on_c, 0, 75, 0
2, 41568, Note_on_c, 0, 70, 70
2, 41591, Note_on_c, 0, 70, 0
2, 41592, Note_on_c, 0, 74, 69
2, 41615, Note_on_c, 0, 74, 0
2, 41616, Note_on_c, 0, 69, 68
2, 41639, Note_on_c, 0, 69, 0
2, 41640, Note_on_c, 0, 72, 67
2, 41663, Note_on_c, 0, 72, 0
2, 41664, Note_on_c, 0, 67, 66
2, 41687, Note_on_c, 0, 67, 0
2, 41688, Note_on_c, 0, 70, 65
2, 41711, Note_on_c, 0, 70, 0
2, 41712, Note_on_c, 0, 65, 64
2, 41735, Note_on_c, 0, 65, 0
2, 41736, Note_on_c, 0, 69, 63
2, 41759, Note_on_c, 0, 69, 0
2, 41760, Note_on_c, 0, 64, 62
2, 41783, Note_on_c, 0, 64, 0
2, 41784, Note_on_c, 0, 67, 61
2, 41807, Note_on_c, 0, 67, 0
2, 41808, Note_on_c, 0, 62, 60
2, 41831, Note_on_c, 0, 62, 0
2, 41832, Note_on_c, 0, 65, 59
2, 41855, Note_on_c, 0, 65, 0
2, 42072, Note_on_c, 0, 60, 70
2, 42095, Note_on_c, 0, 60, 0
2, 42096, Note_on_c, 0, 62, 70
2, 42119, Note_on_c, 0, 62, 0
2, 42120, Note_on_c, 0, 64, 70
2, 42143, Note_on_c, 0, 64, 0
2, 42144, Note_on_c, 0, 65, 70
2, 42167, Note_on_c, 0, 65, 0
2, 42168, Note_on_c, 0, 67, 71
2, 42191, Note_on_c, 0, 67, 0
2, 42192, Note_on_c, 0, 69, 72
2, 42215, Note_on_c, 0, 69, 0
2, 42216, Note_on_c, 0, 70, 73
2, 42239, Note_on_c, 0, 70, 0
2, 42240, Note_on_c, 0, 72, 75
2, 42263, Note_on_c, 0, 72, 0
2, 42264, Note_on_c, 0, 69, 73
2, 42287, Note_on_c, 0, 69, 0
2, 42288, Note_on_c, 0, 67, 72
2, 42311, Note_on_c, 0, 67, 0
2, 42312, Note_on_c, 0, 65, 71
2, 42335, Note_on_c, 0, 65, 0
2, 42336, Note_on_c, 0, 65, 70
2, 42528, Note_on_c, 0, 65, 0
2, 42528, Note_on_c, 0, 64, 70
2, 42617, Note_on_c, 0, 64, 0
2, 42648, Note_on_c, 0, 72, 70
2, 42671, Note_on_c, 0, 72, 0
2, 42672, Note_on_c, 0, 70, 70
2, 42695, Note_on_c, 0, 70, 0
2, 42696, Note_on_c, 0, 69, 70
2, 42719, Note_on_c, 0, 69, 0
2, 42720, Note_on_c, 0, 67, 70
2, 42743, Note_on_c, 0, 67, 0
2, 42744, Note_on_c, 0, 65, 70
2, 42767, Note_on_c, 0, 65, 0
2, 42768, Note_on_c, 0, 64, 70
2, 42791, Note_on_c, 0, 64, 0
2, 42792, Note_on_c, 0, 65, 70
2, 42815, Note_on_c, 0, 65, 0
2, 42816, Note_on_c, 0, 77, 70
2, 42839, Note_on_c, 0, 77, 0
2, 42840, Note_on_c, 0, 76, 70
2, 42863, Note_on_c, 0, 76, 0
2, 42864, Note_on_c, 0, 74, 70
2, 42887, Note_on_c, 0, 74, 0
2, 42888, Note_on_c, 0, 72, 70
2, 42911, Note_on_c, 0, 72, 0
2, 42912, Note_on_c, 0, 72, 70
2, 43001, Note_on_c, 0, 72, 0
2, 43008, Note_on_c, 0, 70, 70
2, 43223, Note_on_c, 0, 70, 0
2, 43224, Note_on_c, 0, 67, 70
2, 43247, Note_on_c, 0, 67, 0
2, 43248, Note_on_c, 0, 69, 70
2, 43271, Note_on_c, 0, 69, 0
2, 43272, Note_on_c, 0, 70, 70
2, 43295, Note_on_c, 0, 70, 0
2, 43296, Note_on_c, 0, 72, 70
2, 43319, Note_on_c, 0, 72, 0
2, 43320, Note_on_c, 0, 74, 71
2, 43343, Note_on_c, 0, 74, 0
2, 43344, Note_on_c, 0, 76, 73
2, 43367, Note_on_c, 0, 76, 0
2, 43368, Note_on_c, 0, 77, 75
2, 43391, Note_on_c, 0, 77, 0
2, 43392, Note_on_c, 0, 79, 74
2, 43415, Note_on_c, 0, 79, 0
2, 43416, Note_on_c, 0, 76, 73
2, 43439, Note_on_c, 0, 76, 0
2, 43440, Note_on_c, 0, 72, 72
2, 43463, Note_on_c, 0, 72, 0
2, 43464, Note_on_c, 0, 70, 71
2, 43487, Note_on_c, 0, 70, 0
2, 43488, Note_on_c, 0, 70, 86
2, 43584, Note_on_c, 0, 70, 0
2, 43584, Note_on_c, 0, 69, 70
2, 43673, Note_on_c, 0, 69, 0
2, 43680, Note_on_c, 0, 77, 70
2, 43703, Note_on_c, 0, 77, 0
2, 43704, Note_on_c, 0, 76, 70
2, 43727, Note_on_c, 0, 76, 0
2, 43728, Note_on_c, 0, 74, 70
2, 43751, Note_on_c, 0, 74, 0
2, 43752, Note_on_c, 0, 72, 70
2, 43775, Note_on_c, 0, 72, 0
2, 43776, Note_on_c, 0, 74, 70
2, 43799, Note_on_c, 0, 74, 0
2, 43800, Note_on_c, 0, 70, 70
2, 43823, Note_on_c, 0, 70, 0
2, 43824, Note_on_c, 0, 69, 70
2, 43847, Note_on_c, 0, 69, 0
2, 43848, Note_on_c, 0, 67, 70
2, 43871, Note_on_c, 0, 67, 0
2, 43872, Note_on_c, 0, 70, 70
2, 43895, Note_on_c, 0, 70, 0
2, 43896, Note_on_c, 0, 69, 70
2, 43919, Note_on_c, 0, 69, 0
2, 43920, Note_on_c, 0, 72, 70
2, 43943, Note_on_c, 0, 72, 0
2, 43944, Note_on_c, 0, 65, 70
2, 43954, Note_on_c, 0, 65, 0
2, 43968, Note_on_c, 0, 69, 70
2, 43991, Note_on_c, 0, 69, 0
2, 43992, Note_on_c, 0, 67, 70
2, 44015, Note_on_c, 0, 67, 0
2, 44016, Note_on_c, 0, 65, 70
2, 44039, Note_on_c, 0, 65, 0
2, 44040, Note_on_c, 0, 64, 70
2, 44063, Note_on_c, 0, 64, 0
2, 44064, Note_on_c, 0, 65, 70
2, 44087, Note_on_c, 0, 65, 0
2, 44088, Note_on_c, 0, 57, 70
2, 44111, Note_on_c, 0, 57, 0
2, 44112, Note_on_c, 0, 58, 70
2, 44135, Note_on_c, 0, 58, 0
2, 44136, Note_on_c, 0, 60, 70
2, 44159, Note_on_c, 0, 60, 0
2, 44160, Note_on_c, 0, 62, 71
2, 44183, Note_on_c, 0, 62, 0
2, 44184, Note_on_c, 0, 64, 71
2, 44207, Note_on_c, 0, 64, 0
2, 44208, Note_on_c, 0, 65, 72
2, 44231, Note_on_c, 0, 65, 0
2, 44232, Note_on_c, 0, 67, 72
2, 44255, Note_on_c, 0, 67, 0
2, 44256, Note_on_c, 0, 69, 72
2, 44279, Note_on_c, 0, 69, 0
2, 44280, Note_on_c, 0, 67, 73
2, 44303, Note_on_c, 0, 67, 0
2, 44304, Note_on_c, 0, 70, 73
2, 44327, Note_on_c, 0, 70, 0
2, 44328, Note_on_c, 0, 69, 74
2, 44351, Note_on_c, 0, 69, 0
2, 44352, Note_on_c, 0, 72, 74
2, 44362, Note_on_c, 0, 72, 0
2, 44376, Note_on_c, 0, 72, 70
2, 44399, Note_on_c, 0, 72, 0
2, 44400, Note_on_c, 0, 77, 70
2, 44423, Note_on_c, 0, 77, 0
2, 44424, Note_on_c, 0, 76, 70
2, 44447, Note_on_c, 0, 76, 0
2, 44448, Note_on_c, 0, 79, 71
2, 44471, Note_on_c, 0, 79, 0
2, 44472, Note_on_c, 0, 77, 71
2, 44495, Note_on_c, 0, 77, 0
2, 44496, Note_on_c, 0, 81, 72
2, 44519, Note_on_c, 0, 81, 0
2, 44520, Note_on_c, 0, 79, 72
2, 44543, Note_on_c, 0, 79, 0
2, 44544, Note_on_c, 0, 77, 73
2, 44567, Note_on_c, 0, 77, 0
2, 44568, Note_on_c, 0, 76, 73
2, 44591, Note_on_c, 0, 76, 0
2, 44592, Note_on_c, 0, 74, 74
2, 44615, Note_on_c, 0, 74, 0
2, 44616, Note_on_c, 0, 72, 74
2, 44639, Note_on_c, 0, 72, 0
2, 44640, Note_on_c, 0, 70, 75
2, 44729, Note_on_c, 0, 70, 0
2, 44952, Note_on_c, 0, 70, 70
2, 44975, Note_on_c, 0, 70, 0
2, 44976, Note_on_c, 0, 76, 71
2, 44999, Note_on_c, 0, 76, 0
2, 45000, Note_on_c, 0, 74, 72
2, 45023, Note_on_c, 0, 74, 0
2, 45024, Note_on_c, 0, 77, 73
2, 45047, Note_on_c, 0, 77, 0
2, 45048, Note_on_c, 0, 76, 74
2, 45071, Note_on_c, 0, 76, 0
2, 45072, Note_on_c, 0, 79, 75
2, 45095, Note_on_c, 0, 79, 0
2, 45096, Note_on_c, 0, 77, 74
2, 45119, Note_on_c, 0, 77, 0
2, 45120, Note_on_c, 0, 76, 73
2, 45143, Note_on_c, 0, 76, 0
2, 45144, Note_on_c, 0, 74, 72
2, 45167, Note_on_c, 0, 74, 0
2, 45168, Note_on_c, 0, 72, 71
2, 45191, Note_on_c, 0, 72, 0
2, 45192, Note_on_c, 0, 70, 70
2, 45215, Note_on_c, 0, 70, 0
2, 45216, Note_on_c, 0, 69, 70
2, 45305, Note_on_c, 0, 69, 0
2, 45528, Note_on_c, 0, 62, 70
2, 45551, Note_on_c, 0, 62, 0
2, 45552, Note_on_c, 0, 67, 70
2, 45575, Note_on_c, 0, 67, 0
2, 45576, Note_on_c, 0, 66, 70
2, 45599, Note_on_c, 0, 66, 0
2, 45600, Note_on_c, 0, 69, 70
2, 45623, Note_on_c, 0, 69, 0
2, 45624, Note_on_c, 0, 67, 70
2, 45647, Note_on_c, 0, 67, 0
2, 45648, Note_on_c, 0, 70, 70
2, 45671, Note_on_c, 0, 70, 0
2, 45672, Note_on_c, 0, 69, 70
2, 45695, Note_on_c, 0, 69, 0
2, 45696, Note_on_c, 0, 72, 70
2, 45719, Note_on_c, 0, 72, 0
2, 45720, Note_on_c, 0, 70, 70
2, 45743, Note_on_c, 0, 70, 0
2, 45744, Note_on_c, 0, 74, 70
2, 45767, Note_on_c, 0, 74, 0
2, 45768, Note_on_c, 0, 65, 70
2, 45791, Note_on_c, 0, 65, 0
2, 45792, Note_on_c, 0, 64, 70
2, 45815, Note_on_c, 0, 64, 0
2, 45816, Note_on_c, 0, 67, 70
2, 45839, Note_on_c, 0, 67, 0
2, 45840, Note_on_c, 0, 65, 70
2, 45863, Note_on_c, 0, 65, 0
2, 45864, Note_on_c, 0, 69, 70
2, 45887, Note_on_c, 0, 69, 0
2, 45888, Note_on_c, 0, 67, 70
2, 45911, Note_on_c, 0, 67, 0
2, 45912, Note_on_c, 0, 70, 70
2, 45935, Note_on_c, 0, 70, 0
2, 45936, Note_on_c, 0, 69, 70
2, 45959, Note_on_c, 0, 69, 0
2, 45960, Note_on_c, 0, 72, 70
2, 45983, Note_on_c, 0, 72, 0
2, 45984, Note_on_c, 0, 70, 70
2, 46007, Note_on_c, 0, 70, 0
2, 46008, Note_on_c, 0, 74, 70
2, 46031, Note_on_c, 0, 74, 0
2, 46032, Note_on_c, 0, 67, 70
2, 46055, Note_on_c, 0, 67, 0
2, 46056, Note_on_c, 0, 70, 70
2, 46079, Note_on_c, 0, 70, 0
2, 46080, Note_on_c, 0, 69, 70
2, 46103, Note_on_c, 0, 69, 0
2, 46104, Note_on_c, 0, 72, 70
2, 46127, Note_on_c, 0, 72, 0
2, 46128, Note_on_c, 0, 70, 70
2, 46151, Note_on_c, 0, 70, 0
2, 46152, Note_on_c, 0, 74, 70
2, 46175, Note_on_c, 0, 74, 0
2, 46176, Note_on_c, 0, 72, 70
2, 46199, Note_on_c, 0, 72, 0
2, 46200, Note_on_c, 0, 75, 70
2, 46223, Note_on_c, 0, 75, 0
2, 46224, Note_on_c, 0, 74, 70
2, 46247, Note_on_c, 0, 74, 0
2, 46248, Note_on_c, 0, 77, 70
2, 46271, Note_on_c, 0, 77, 0
2, 46272, Note_on_c, 0, 75, 70
2, 46295, Note_on_c, 0, 75, 0
2, 46296, Note_on_c, 0, 79, 67
2, 46319, Note_on_c, 0, 79, 0
2, 46320, Note_on_c, 0, 72, 64
2, 46343, Note_on_c, 0, 72, 0
2, 46344, Note_on_c, 0, 75, 61
2, 46367, Note_on_c, 0, 75, 0
2, 46368, Note_on_c, 0, 74, 58
2, 46388, Note_on_c, 0, 74, 0
2, 46416, Note_on_c, 0, 67, 58
2, 46428, Note_on_c, 0, 67, 0
2, 46428, Note_on_c, 0, 66, 58
2, 46440, Note_on_c, 0, 66, 0
2, 46440, Note_on_c, 0, 64, 58
2, 46452, Note_on_c, 0, 64, 0
2, 46452, Note_on_c, 0, 66, 58
2, 46464, Note_on_c, 0, 66, 0
2, 46464, Note_on_c, 0, 67, 59
2, 46484, Note_on_c, 0, 67, 0
2, 46512, Note_on_c, 0, 70, 60
2, 46524, Note_on_c, 0, 70, 0
2, 46524, Note_on_c, 0, 69, 60
2, 46536, Note_on_c, 0, 69, 0
2, 46536, Note_on_c, 0, 67, 60
2, 46548, Note_on_c, 0, 67, 0
2, 46548, Note_on_c, 0, 69, 60
2, 46560, Note_on_c, 0, 69, 0
2, 46560, Note_on_c, 0, 70, 61
2, 46605, Note_on_c, 0, 70, 0
2, 46608, Note_on_c, 0, 74, 62
2, 46653, Note_on_c, 0, 74, 0
2, 46656, Note_on_c, 0, 72, 63
2, 46676, Note_on_c, 0, 72, 0
2, 46704, Note_on_c, 0, 65, 63
2, 46716, Note_on_c, 0, 65, 0
2, 46716, Note_on_c, 0, 64, 63
2, 46728, Note_on_c, 0, 64, 0
2, 46728, Note_on_c, 0, 62, 63
2, 46740, Note_on_c, 0, 62, 0
2, 46740, Note_on_c, 0, 64, 64
2, 46752, Note_on_c, 0, 64, 0
2, 46752, Note_on_c, 0, 65, 64
2, 46772, Note_on_c, 0, 65, 0
2, 46800, Note_on_c, 0, 69, 65
2, 46812, Note_on_c, 0, 69, 0
2, 46812, Note_on_c, 0, 67, 66
2, 46824, Note_on_c, 0, 67, 0
2, 46824, Note_on_c, 0, 65, 66
2, 46836, Note_on_c, 0, 65, 0
2, 46836, Note_on_c, 0, 67, 66
2, 46848, Note_on_c, 0, 67, 0
2, 46848, Note_on_c, 0, 69, 67
2, 46893, Note_on_c, 0, 69, 0
2, 46896, Note_on_c, 0, 72, 68
2, 46941, Note_on_c, 0, 72, 0
2, 46944, Note_on_c, 0, 70, 70
2, 46964, Note_on_c, 0, 70, 0
2, 46992, Note_on_c, 0, 78, 70
2, 47037, Note_on_c, 0, 78, 0
2, 47040, Note_on_c, 0, 79, 70
2, 47085, Note_on_c, 0, 79, 0
2, 47088, Note_on_c, 0, 77, 70
2, 47133, Note_on_c, 0, 77, 0
2, 47136, Note_on_c, 0, 76, 70
2, 47181, Note_on_c, 0, 76, 0
2, 47184, Note_on_c, 0, 71, 70
2, 47229, Note_on_c, 0, 71, 0
2, 47232, Note_on_c, 0, 72, 70
2, 47321, Note_on_c, 0, 72, 0
2, 47376, Note_on_c, 0, 82, 70
2, 47421, Note_on_c, 0, 82, 0
2, 47424, Note_on_c, 0, 84, 70
2, 47434, Note_on_c, 0, 84, 0
2, 47434, Note_on_c, 0, 82, 70
2, 47444, Note_on_c, 0, 82, 0
2, 47444, Note_on_c, 0, 84, 70
2, 47454, Note_on_c, 0, 84, 0
2, 47454, Note_on_c, 0, 82, 70
2, 47464, Note_on_c, 0, 82, 0
2, 47464, Note_on_c, 0, 84, 70
2, 47474, Note_on_c, 0, 84, 0
2, 47474, Note_on_c, 0, 82, 70
2, 47484, Note_on_c, 0, 82, 0
2, 47484, Note_on_c, 0, 84, 70
2, 47493, Note_on_c, 0, 84, 0
2, 47493, Note_on_c, 0, 82, 70
2, 47502, Note_on_c, 0, 82, 0
2, 47502, Note_on_c, 0, 81, 70
2, 47511, Note_on_c, 0, 81, 0
2, 47511, Note_on_c, 0, 82, 70
2, 47520, Note_on_c, 0, 82, 0
2, 47520, Note_on_c, 0, 81, 70
2, 47540, Note_on_c, 0, 81, 0
2, 47568, Note_on_c, 0, 76, 70
2, 47616, Note_on_c, 0, 76, 0
2, 47616, Note_on_c, 0, 77, 70
2, 47636, Note_on_c, 0, 77, 0
2, 47664, Note_on_c, 0, 77, 86
2, 47760, Note_on_c, 0, 77, 0
2, 47760, Note_on_c, 0, 75, 70
2, 47805, Note_on_c, 0, 75, 0
2, 47808, Note_on_c, 0, 74, 70
2, 47828, Note_on_c, 0, 74, 0
2, 47856, Note_on_c, 0, 66, 70
2, 47901, Note_on_c, 0, 66, 0
2, 47904, Note_on_c, 0, 67, 70
2, 47949, Note_on_c, 0, 67, 0
2, 47952, Note_on_c, 0, 69, 70
2, 47997, Note_on_c, 0, 69, 0
2, 48000, Note_on_c, 0, 70, 70
2, 48020, Note_on_c, 0, 70, 0
2, 48048, Note_on_c, 0, 70, 70
2, 48093, Note_on_c, 0, 70, 0
2, 48096, Note_on_c, 0, 69, 58
2, 48106, Note_on_c, 0, 69, 0
2, 48106, Note_on_c, 0, 70, 58
2, 48116, Note_on_c, 0, 70, 0
2, 48116, Note_on_c, 0, 72, 58
2, 48126, Note_on_c, 0, 72, 0
2, 48126, Note_on_c, 0, 70, 58
2, 48136, Note_on_c, 0, 70, 0
2, 48136, Note_on_c, 0, 72, 59
2, 48146, Note_on_c, 0, 72, 0
2, 48146, Note_on_c, 0, 70, 59
2, 48156, Note_on_c, 0, 70, 0
2, 48156, Note_on_c, 0, 72, 59
2, 48166, Note_on_c, 0, 72, 0
2, 48166, Note_on_c, 0, 70, 59
2, 48176, Note_on_c, 0, 70, 0
2, 48176, Note_on_c, 0, 72, 60
2, 48186, Note_on_c, 0, 72, 0
2, 48186, Note_on_c, 0, 70, 60
2, 48196, Note_on_c, 0, 70, 0
2, 48196, Note_on_c, 0, 72, 60
2, 48206, Note_on_c, 0, 72, 0
2, 48206, Note_on_c, 0, 70, 60
2, 48216, Note_on_c, 0, 70, 0
2, 48216, Note_on_c, 0, 72, 61
2, 48226, Note_on_c, 0, 72, 0
2, 48226, Note_on_c, 0, 70, 61
2, 48236, Note_on_c, 0, 70, 0
2, 48236, Note_on_c, 0, 72, 61
2, 48246, Note_on_c, 0, 72, 0
2, 48246, Note_on_c, 0, 70, 61
2, 48256, Note_on_c, 0, 70, 0
2, 48256, Note_on_c, 0, 72, 62
2, 48266, Note_on_c, 0, 72, 0
2, 48266, Note_on_c, 0, 70, 62
2, 48276, Note_on_c, 0, 70, 0
2, 48276, Note_on_c, 0, 72, 62
2, 48285, Note_on_c, 0, 72, 0
2, 48285, Note_on_c, 0, 70, 62
2, 48294, Note_on_c, 0, 70, 0
2, 48294, Note_on_c, 0, 72, 63
2, 48303, Note_on_c, 0, 72, 0
2, 48303, Note_on_c, 0, 70, 63
2, 48312, Note_on_c, 0, 70, 0
2, 48312, Note_on_c, 0, 72, 63
2, 48321, Note_on_c, 0, 72, 0
2, 48321, Note_on_c, 0, 70, 63
2, 48330, Note_on_c, 0, 70, 0
2, 48330, Note_on_c, 0, 72, 64
2, 48339, Note_on_c, 0, 72, 0
2, 48339, Note_on_c, 0, 70, 64
2, 48348, Note_on_c, 0, 70, 0
2, 48348, Note_on_c, 0, 69, 64
2, 48366, Note_on_c, 0, 69, 0
2, 48366, Note_on_c, 0, 70, 65
2, 48384, Note_on_c, 0, 70, 0
2, 48384, Note_on_c, 0, 69, 70
2, 48407, Note_on_c, 0, 69, 0
2, 48408, Note_on_c, 0, 72, 70
2, 48431, Note_on_c, 0, 72, 0
2, 48432, Note_on_c, 0, 67, 70
2, 48455, Note_on_c, 0, 67, 0
2, 48456, Note_on_c, 0, 70, 70
2, 48479, Note_on_c, 0, 70, 0
2, 48480, Note_on_c, 0, 65, 70
2, 48503, Note_on_c, 0, 65, 0
2, 48504, Note_on_c, 0, 69, 70
2, 48527, Note_on_c, 0, 69, 0
2, 48528, Note_on_c, 0, 64, 70
2, 48551, Note_on_c, 0, 64, 0
2, 48552, Note_on_c, 0, 67, 70
2, 48575, Note_on_c, 0, 67, 0
2, 48576, Note_on_c, 0, 65, 70
2, 48599, Note_on_c, 0, 65, 0
2, 48600, Note_on_c, 0, 69, 70
2, 48623, Note_on_c, 0, 69, 0
2, 48624, Note_on_c, 0, 60, 70
2, 48647, Note_on_c, 0, 60, 0
2, 48648, Note_on_c, 0, 63, 70
2, 48671, Note_on_c, 0, 63, 0
2, 48672, Note_on_c, 0, 62, 70
2, 48696, Note_on_c, 0, 62, 0
2, 48696, Note_on_c, 0, 74, 69
2, 48719, Note_on_c, 0, 74, 0
2, 48720, Note_on_c, 0, 70, 68
2, 48730, Note_on_c, 0, 70, 0
2, 48744, Note_on_c, 0, 67, 68
2, 48754, Note_on_c, 0, 67, 0
2, 48768, Note_on_c, 0, 60, 67
2, 48792, Note_on_c, 0, 60, 0
2, 48792, Note_on_c, 0, 72, 67
2, 48815, Note_on_c, 0, 72, 0
2, 48816, Note_on_c, 0, 69, 66
2, 48826, Note_on_c, 0, 69, 0
2, 48840, Note_on_c, 0, 65, 65
2, 48850, Note_on_c, 0, 65, 0
2, 48864, Note_on_c, 0, 60, 65
2, 48888, Note_on_c, 0, 60, 0
2, 48888, Note_on_c, 0, 70, 64
2, 48911, Note_on_c, 0, 70, 0
2, 48912, Note_on_c, 0, 67, 64
2, 48922, Note_on_c, 0, 67, 0
2, 48936, Note_on_c, 0, 64, 63
2, 48946, Note_on_c, 0, 64, 0
2, 48960, Note_on_c, 0, 77, 70
2, 48970, Note_on_c, 0, 77, 0
2, 48984, Note_on_c, 0, 69, 70
2, 49007, Note_on_c, 0, 69, 0
2, 49008, Note_on_c, 0, 67, 70
2, 49031, Note_on_c, 0, 67, 0
2, 49032, Note_on_c, 0, 69, 70
2, 49055, Note_on_c, 0, 69, 0
2, 49056, Note_on_c, 0, 77, 70
2, 49066, Note_on_c, 0, 77, 0
2, 49080, Note_on_c, 0, 70, 70
2, 49103, Note_on_c, 0, 70, 0
2, 49104, Note_on_c, 0, 69, 70
2, 49127, Note_on_c, 0, 69, 0
2, 49128, Note_on_c, 0, 70, 70
2, 49151, Note_on_c, 0, 70, 0
2, 49152, Note_on_c, 0, 77, 70
2, 49162, Note_on_c, 0, 77, 0
2, 49176, Note_on_c, 0, 72, 70
2, 49199, Note_on_c, 0, 72, 0
2, 49200, Note_on_c, 0, 70, 70
2, 49223, Note_on_c, 0, 70, 0
2, 49224, Note_on_c, 0, 72, 70
2, 49247, Note_on_c, 0, 72, 0
2, 49248, Note_on_c, 0, 75, 86
2, 49272, Note_on_c, 0, 75, 0
2, 49272, Note_on_c, 0, 74, 69
2, 49295, Note_on_c, 0, 74, 0
2, 49296, Note_on_c, 0, 72, 68
2, 49306, Note_on_c, 0, 72, 0
2, 49320, Note_on_c, 0, 70, 68
2, 49330, Note_on_c, 0, 70, 0
2, 49344, Note_on_c, 0, 69, 67
2, 49344, Note_on_c, 0, 65, 67
2, 49433, Note_on_c, 0, 69, 0
2, 49433, Note_on_c, 0, 65, 0
2, 49440, Note_on_c, 0, 69, 65
2, 49450, Note_on_c, 0, 69, 0
2, 49450, Note_on_c, 0, 67, 65
2, 49460, Note_on_c, 0, 67, 0
2, 49460, Note_on_c, 0, 69, 65
2, 49470, Note_on_c, 0, 69, 0
2, 49470, Note_on_c, 0, 67, 64
2, 49480, Note_on_c, 0, 67, 0
2, 49480, Note_on_c, 0, 69, 64
2, 49490, Note_on_c, 0, 69, 0
2, 49490, Note_on_c, 0, 67, 64
2, 49500, Note_on_c, 0, 67, 0
2, 49500, Note_on_c, 0, 69, 64
2, 49509, Note_on_c, 0, 69, 0
2, 49509, Note_on_c, 0, 67, 64
2, 49518, Note_on_c, 0, 67, 0
2, 49518, Note_on_c, 0, 65, 64
2, 49527, Note_on_c, 0, 65, 0
2, 49527, Note_on_c, 0, 67, 64
2, 49536, Note_on_c, 0, 67, 0
2, 49560, Note_on_c, 0, 69, 70
2, 49560, Note_on_c, 0, 65, 70
2, 49583, Note_on_c, 0, 69, 0
2, 49583, Note_on_c, 0, 65, 0
2, 49584, Note_on_c, 0, 67, 70
2, 49584, Note_on_c, 0, 64, 70
2, 49607, Note_on_c, 0, 67, 0
2, 49607, Note_on_c, 0, 64, 0
2, 49608, Note_on_c, 0, 69, 70
2, 49608, Note_on_c, 0, 65, 70
2, 49631, Note_on_c, 0, 69, 0
2, 49631, Note_on_c, 0, 65, 0
2, 49656, Note_on_c, 0, 70, 70
2, 49656, Note_on_c, 0, 67, 70
2, 49679, Note_on_c, 0, 70, 0
2, 49679, Note_on_c, 0, 67, 0
2, 49680, Note_on_c, 0, 69, 70
2, 49680, Note_on_c, 0, 65, 70
2, 49703, Note_on_c, 0, 69, 0
2, 49703, Note_on_c, 0, 65, 0
2, 49704, Note_on_c, 0, 70, 70
2, 49704, Note_on_c, 0, 67, 70
2, 49727, Note_on_c, 0, 70, 0
2, 49727, Note_on_c, 0, 67, 0
2, 49752, Note_on_c, 0, 72, 70
2, 49752, Note_on_c, 0, 69, 70
2, 49775, Note_on_c, 0, 72, 0
2, 49775, Note_on_c, 0, 69, 0
2, 49776, Note_on_c, 0, 70, 70
2, 49776, Note_on_c, 0, 67, 70
2, 49799, Note_on_c, 0, 70, 0
2, 49799, Note_on_c, 0, 67, 0
2, 49800, Note_on_c, 0, 72, 70
2, 49800, Note_on_c, 0, 69, 70
2, 49823, Note_on_c, 0, 72, 0
2, 49823, Note_on_c, 0, 69, 0
2, 49848, Note_on_c, 0, 74, 70
2, 49848, Note_on_c, 0, 70, 70
2, 49871, Note_on_c, 0, 74, 0
2, 49871, Note_on_c, 0, 70, 0
2, 49872, Note_on_c, 0, 72, 70
2, 49872, Note_on_c, 0, 69, 70
2, 49895, Note_on_c, 0, 72, 0
2, 49895, Note_on_c, 0, 69, 0
2, 49896, Note_on_c, 0, 74, 70
2, 49896, Note_on_c, 0, 70, 70
2, 49919, Note_on_c, 0, 74, 0
2, 49919, Note_on_c, 0, 70, 0
2, 49944, Note_on_c, 0, 75, 70
2, 49944, Note_on_c, 0, 72, 70
2, 49967, Note_on_c, 0, 75, 0
2, 49967, Note_on_c, 0, 72, 0
2, 49968, Note_on_c, 0, 74, 70
2, 49968, Note_on_c, 0, 70, 70
2, 49991, Note_on_c, 0, 74, 0
2, 49991, Note_on_c, 0, 70, 0
2, 49992, Note_on_c, 0, 75, 70
2, 49992, Note_on_c, 0, 72, 70
2, 50015, Note_on_c, 0, 75, 0
2, 50015, Note_on_c, 0, 72, 0
2, 50040, Note_on_c, 0, 79, 71
2, 50040, Note_on_c, 0, 75, 71
2, 50063, Note_on_c, 0, 79, 0
2, 50063, Note_on_c, 0, 75, 0
2, 50064, Note_on_c, 0, 77, 71
2, 50064, Note_on_c, 0, 74, 71
2, 50087, Note_on_c, 0, 77, 0
2, 50087, Note_on_c, 0, 74, 0
2, 50088, Note_on_c, 0, 75, 71
2, 50088, Note_on_c, 0, 72, 71
2, 50111, Note_on_c, 0, 75, 0
2, 50111, Note_on_c, 0, 72, 0
2, 50112, Note_on_c, 0, 74, 71
2, 50112, Note_on_c, 0, 70, 71
2, 50201, Note_on_c, 0, 74, 0
2, 50201, Note_on_c, 0, 70, 0
2, 50208, Note_on_c, 0, 82, 72
2, 50208, Note_on_c, 0, 74, 72
2, 50247, Note_on_c, 0, 82, 0
2, 50247, Note_on_c, 0, 74, 0
2, 50304, Note_on_c, 0, 86, 72
2, 50304, Note_on_c, 0, 82, 72
2, 50343, Note_on_c, 0, 86, 0
2, 50343, Note_on_c, 0, 82, 0
2, 50424, Note_on_c, 0, 86, 73
2, 50424, Note_on_c, 0, 82, 73
2, 50447, Note_on_c, 0, 86, 0
2, 50447, Note_on_c, 0, 82, 0
2, 50448, Note_on_c, 0, 84, 73
2, 50448, Note_on_c, 0, 81, 73
2, 50471, Note_on_c, 0, 84, 0
2, 50471, Note_on_c, 0, 81, 0
2, 50472, Note_on_c, 0, 82, 73
2, 50472, Note_on_c, 0, 79, 73
2, 50495, Note_on_c, 0, 82, 0
2, 50495, Note_on_c, 0, 79, 0
2, 50520, Note_on_c, 0, 82, 74
2, 50520, Note_on_c, 0, 79, 74
2, 50543, Note_on_c, 0, 82, 0
2, 50543, Note_on_c, 0, 79, 0
2, 50544, Note_on_c, 0, 81, 74
2, 50544, Note_on_c, 0, 77, 74
2, 50567, Note_on_c, 0, 81, 0
2, 50567, Note_on_c, 0, 77, 0
2, 50568, Note_on_c, 0, 79, 74
2, 50568, Note_on_c, 0, 76, 74
2, 50591, Note_on_c, 0, 79, 0
2, 50591, Note_on_c, 0, 76, 0
2, 50616, Note_on_c, 0, 81, 74
2, 50616, Note_on_c, 0, 77, 74
2, 50639, Note_on_c, 0, 81, 0
2, 50639, Note_on_c, 0, 77, 0
2, 50640, Note_on_c, 0, 79, 74
2, 50640, Note_on_c, 0, 76, 74
2, 50663, Note_on_c, 0, 79, 0
2, 50663, Note_on_c, 0, 76, 0
2, 50664, Note_on_c, 0, 81, 74
2, 50664, Note_on_c, 0, 77, 74
2, 50687, Note_on_c, 0, 81, 0
2, 50687, Note_on_c, 0, 77, 0
2, 50712, Note_on_c, 0, 74, 74
2, 50712, Note_on_c, 0, 70, 74
2, 50735, Note_on_c, 0, 74, 0
2, 50735, Note_on_c, 0, 70, 0
2, 50736, Note_on_c, 0, 72, 74
2, 50736, Note_on_c, 0, 69, 74
2, 50759, Note_on_c, 0, 72, 0
2, 50759, Note_on_c, 0, 69, 0
2, 50760, Note_on_c, 0, 70, 73
2, 50760, Note_on_c, 0, 67, 73
2, 50783, Note_on_c, 0, 70, 0
2, 50783, Note_on_c, 0, 67, 0
2, 50784, Note_on_c, 0, 70, 73
2, 50784, Note_on_c, 0, 67, 73
2, 50808, Note_on_c, 0, 70, 0
2, 50808, Note_on_c, 0, 67, 0
2, 50808, Note_on_c, 0, 69, 72
2, 50808, Note_on_c, 0, 65, 72
2, 50831, Note_on_c, 0, 69, 0
2, 50831, Note_on_c, 0, 65, 0
2, 50832, Note_on_c, 0, 72, 72
2, 50832, Note_on_c, 0, 69, 72
2, 50842, Note_on_c, 0, 72, 0
2, 50842, Note_on_c, 0, 69, 0
2, 50856, Note_on_c, 0, 69, 72
2, 50856, Note_on_c, 0, 65, 72
2, 50866, Note_on_c, 0, 69, 0
2, 50866, Note_on_c, 0, 65, 0
2, 50880, Note_on_c, 0, 69, 71
2, 50880, Note_on_c, 0, 65, 71
2, 50904, Note_on_c, 0, 69, 0
2, 50904, Note_on_c, 0, 65, 0
2, 50904, Note_on_c, 0, 67, 71
2, 50904, Note_on_c, 0, 64, 71
2, 50927, Note_on_c, 0, 67, 0
2, 50927, Note_on_c, 0, 64, 0
2, 50928, Note_on_c, 0, 70, 70
2, 50928, Note_on_c, 0, 67, 70
2, 50938, Note_on_c, 0, 70, 0
2, 50938, Note_on_c, 0, 67, 0
2, 50952, Note_on_c, 0, 67, 70
2, 50952, Note_on_c, 0, 64, 70
2, 50962, Note_on_c, 0, 67, 0
2, 50962, Note_on_c, 0, 64, 0
2, 51000, Note_on_c, 0, 81, 75
2, 51000, Note_on_c, 0, 69, 75
2, 51023, Note_on_c, 0, 81, 0
2, 51023, Note_on_c, 0, 69, 0
2, 51024, Note_on_c, 0, 79, 75
2, 51024, Note_on_c, 0, 67, 75
2, 51047, Note_on_c, 0, 79, 0
2, 51047, Note_on_c, 0, 67, 0
2, 51048, Note_on_c, 0, 77, 75
2, 51048, Note_on_c, 0, 65, 75
2, 51071, Note_on_c, 0, 77, 0
2, 51071, Note_on_c, 0, 65, 0
2, 51072, Note_on_c, 0, 76, 75
2, 51072, Note_on_c, 0, 64, 75
2, 51095, Note_on_c, 0, 76, 0
2, 51095, Note_on_c, 0, 64, 0
2, 51096, Note_on_c, 0, 74, 75
2, 51096, Note_on_c, 0, 62, 75
2, 51119, Note_on_c, 0, 74, 0
2, 51119, Note_on_c, 0, 62, 0
2, 51120, Note_on_c, 0, 72, 75
2, 51120, Note_on_c, 0, 60, 75
2, 51143, Note_on_c, 0, 72, 0
2, 51143, Note_on_c, 0, 60, 0
2, 51144, Note_on_c, 0, 71, 75
2, 51144, Note_on_c, 0, 59, 75
2, 51167, Note_on_c, 0, 71, 0
2, 51167, Note_on_c, 0, 59, 0
2, 51168, Note_on_c, 0, 72, 75
2, 51168, Note_on_c, 0, 60, 75
2, 51257, Note_on_c, 0, 72, 0
2, 51257, Note_on_c, 0, 60, 0
2, 51288, Note_on_c, 0, 82, 75
2, 51288, Note_on_c, 0, 70, 75
2, 51311, Note_on_c, 0, 82, 0
2, 51311, Note_on_c, 0, 70, 0
2, 51312, Note_on_c, 0, 82, 75
2, 51312, Note_on_c, 0, 70, 75
2, 51335, Note_on_c, 0, 82, 0
2, 51335, Note_on_c, 0, 70, 0
2, 51336, Note_on_c, 0, 81, 75
2, 51336, Note_on_c, 0, 69, 75
2, 51359, Note_on_c, 0, 81, 0
2, 51359, Note_on_c, 0, 69, 0
2, 51360, Note_on_c, 0, 79, 75
2, 51360, Note_on_c, 0, 67, 75
2, 51383, Note_on_c, 0, 79, 0
2, 51383, Note_on_c, 0, 67, 0
2, 51384, Note_on_c, 0, 77, 75
2, 51384, Note_on_c, 0, 65, 75
2, 51407, Note_on_c, 0, 77, 0
2, 51407, Note_on_c, 0, 65, 0
2, 51408, Note_on_c, 0, 76, 75
2, 51408, Note_on_c, 0, 64, 75
2, 51431, Note_on_c, 0, 76, 0
2, 51431, Note_on_c, 0, 64, 0
2, 51432, Note_on_c, 0, 74, 75
2, 51432, Note_on_c, 0, 62, 75
2, 51455, Note_on_c, 0, 74, 0
2, 51455, Note_on_c, 0, 62, 0
2, 51456, Note_on_c, 0, 72, 75
2, 51456, Note_on_c, 0, 60, 75
2, 51545, Note_on_c, 0, 72, 0
2, 51545, Note_on_c, 0, 60, 0
2, 51576, Note_on_c, 0, 81, 63
2, 51576, Note_on_c, 0, 69, 63
2, 51599, Note_on_c, 0, 81, 0
2, 51599, Note_on_c, 0, 69, 0
2, 51600, Note_on_c, 0, 79, 63
2, 51600, Note_on_c, 0, 67, 63
2, 51623, Note_on_c, 0, 79, 0
2, 51623, Note_on_c, 0, 67, 0
2, 51624, Note_on_c, 0, 77, 63
2, 51624, Note_on_c, 0, 65, 63
2, 51647, Note_on_c, 0, 77, 0
2, 51647, Note_on_c, 0, 65, 0
2, 51648, Note_on_c, 0, 76, 63
2, 51648, Note_on_c, 0, 64, 63
2, 51671, Note_on_c, 0, 76, 0
2, 51671, Note_on_c, 0, 64, 0
2, 51672, Note_on_c, 0, 74, 63
2, 51672, Note_on_c, 0, 62, 63
2, 51695, Note_on_c, 0, 74, 0
2, 51695, Note_on_c, 0, 62, 0
2, 51696, Note_on_c, 0, 72, 63
2, 51696, Note_on_c, 0, 60, 63
2, 51719, Note_on_c, 0, 72, 0
2, 51719, Note_on_c, 0, 60, 0
2, 51720, Note_on_c, 0, 71, 63
2, 51720, Note_on_c, 0, 59, 63
2, 51743, Note_on_c, 0, 71, 0
2, 51743, Note_on_c, 0, 59, 0
2, 51744, Note_on_c, 0, 72, 63
2, 51744, Note_on_c, 0, 60, 63
2, 51833, Note_on_c, 0, 72, 0
2, 51833, Note_on_c, 0, 60, 0
2, 51864, Note_on_c, 0, 82, 63
2, 51864, Note_on_c, 0, 70, 63
2, 51887, Note_on_c, 0, 82, 0
2, 51887, Note_on_c, 0, 70, 0
2, 51888, Note_on_c, 0, 82, 63
2, 51888, Note_on_c, 0, 70, 63
2, 51911, Note_on_c, 0, 82, 0
2, 51911, Note_on_c, 0, 70, 0
2, 51912, Note_on_c, 0, 81, 63
2, 51912, Note_on_c, 0, 69, 63
2, 51935, Note_on_c, 0, 81, 0
2, 51935, Note_on_c, 0, 69, 0
2, 51936, Note_on_c, 0, 79, 63
2, 51936, Note_on_c, 0, 67, 63
2, 51959, Note_on_c, 0, 79, 0
2, 51959, Note_on_c, 0, 67, 0
2, 51960, Note_on_c, 0, 77, 63
2, 51960, Note_on_c, 0, 65, 63
2, 51983, Note_on_c, 0, 77, 0
2, 51983, Note_on_c, 0, 65, 0
2, 51984, Note_on_c, 0, 76, 63
2, 51984, Note_on_c, 0, 64, 63
2, 52007, Note_on_c, 0, 76, 0
2, 52007, Note_on_c, 0, 64, 0
2, 52008, Note_on_c, 0, 74, 63
2, 52008, Note_on_c, 0, 62, 63
2, 52031, Note_on_c, 0, 74, 0
2, 52031, Note_on_c, 0, 62, 0
2, 52032, Note_on_c, 0, 72, 63
2, 52032, Note_on_c, 0, 60, 63
2, 52121, Note_on_c, 0, 72, 0
2, 52121, Note_on_c, 0, 60, 0
2, 52152, Note_on_c, 0, 84, 75
2, 52152, Note_on_c, 0, 72, 75
2, 52175, Note_on_c, 0, 84, 0
2, 52175, Note_on_c, 0, 72, 0
2, 52176, Note_on_c, 0, 82, 75
2, 52176, Note_on_c, 0, 70, 75
2, 52199, Note_on_c, 0, 82, 0
2, 52199, Note_on_c, 0, 70, 0
2, 52200, Note_on_c, 0, 81, 75
2, 52200, Note_on_c, 0, 69, 75
2, 52223, Note_on_c, 0, 81, 0
2, 52223, Note_on_c, 0, 69, 0
2, 52224, Note_on_c, 0, 79, 75
2, 52224, Note_on_c, 0, 67, 75
2, 52247, Note_on_c, 0, 79, 0
2, 52247, Note_on_c, 0, 67, 0
2, 52248, Note_on_c, 0, 77, 75
2, 52248, Note_on_c, 0, 65, 75
2, 52271, Note_on_c, 0, 77, 0
2, 52271, Note_on_c, 0, 65, 0
2, 52272, Note_on_c, 0, 76, 75
2, 52272, Note_on_c, 0, 64, 75
2, 52295, Note_on_c, 0, 76, 0
2, 52295, Note_on_c, 0, 64, 0
2, 52296, Note_on_c, 0, 74, 75
2, 52296, Note_on_c, 0, 62, 75
2, 52319, Note_on_c, 0, 74, 0
2, 52319, Note_on_c, 0, 62, 0
2, 52320, Note_on_c, 0, 72, 75
2, 52320, Note_on_c, 0, 60, 75
2, 52343, Note_on_c, 0, 72, 0
2, 52343, Note_on_c, 0, 60, 0
2, 52344, Note_on_c, 0, 74, 75
2, 52344, Note_on_c, 0, 62, 75
2, 52367, Note_on_c, 0, 74, 0
2, 52367, Note_on_c, 0, 62, 0
2, 52368, Note_on_c, 0, 76, 75
2, 52368, Note_on_c, 0, 64, 75
2, 52391, Note_on_c, 0, 76, 0
2, 52391, Note_on_c, 0, 64, 0
2, 52392, Note_on_c, 0, 77, 75
2, 52392, Note_on_c, 0, 65, 75
2, 52415, Note_on_c, 0, 77, 0
2, 52415, Note_on_c, 0, 65, 0
2, 52440, Note_on_c, 0, 74, 75
2, 52440, Note_on_c, 0, 70, 75
2, 52463, Note_on_c, 0, 74, 0
2, 52463, Note_on_c, 0, 70, 0
2, 52464, Note_on_c, 0, 72, 73
2, 52464, Note_on_c, 0, 69, 73
2, 52487, Note_on_c, 0, 72, 0
2, 52487, Note_on_c, 0, 69, 0
2, 52488, Note_on_c, 0, 70, 71
2, 52488, Note_on_c, 0, 67, 71
2, 52511, Note_on_c, 0, 70, 0
2, 52511, Note_on_c, 0, 67, 0
2, 52512, Note_on_c, 0, 70, 70
2, 52512, Note_on_c, 0, 67, 70
2, 52536, Note_on_c, 0, 70, 0
2, 52536, Note_on_c, 0, 67, 0
2, 52536, Note_on_c, 0, 69, 68
2, 52536, Note_on_c, 0, 65, 68
2, 52559, Note_on_c, 0, 69, 0
2, 52559, Note_on_c, 0, 65, 0
2, 52560, Note_on_c, 0, 72, 67
2, 52560, Note_on_c, 0, 69, 67
2, 52570, Note_on_c, 0, 72, 0
2, 52570, Note_on_c, 0, 69, 0
2, 52584, Note_on_c, 0, 69, 65
2, 52584, Note_on_c, 0, 65, 65
2, 52594, Note_on_c, 0, 69, 0
2, 52594, Note_on_c, 0, 65, 0
2, 52608, Note_on_c, 0, 69, 64
2, 52608, Note_on_c, 0, 65, 64
2, 52632, Note_on_c, 0, 69, 0
2, 52632, Note_on_c, 0, 65, 0
2, 52632, Note_on_c, 0, 67, 62
2, 52632, Note_on_c, 0, 64, 62
2, 52655, Note_on_c, 0, 67, 0
2, 52655, Note_on_c, 0, 64, 0
2, 52656, Note_on_c, 0, 70, 61
2, 52656, Note_on_c, 0, 67, 61
2, 52666, Note_on_c, 0, 70, 0
2, 52666, Note_on_c, 0, 67, 0
2, 52680, Note_on_c, 0, 67, 59
2, 52680, Note_on_c, 0, 64, 59
2, 52690, Note_on_c, 0, 67, 0
2, 52690, Note_on_c, 0, 64, 0
2, 52728, Note_on_c, 0, 65, 63
2, 52751, Note_on_c, 0, 65, 0
2, 52752, Note_on_c, 0, 64, 63
2, 52775, Note_on_c, 0, 64, 0
2, 52776, Note_on_c, 0, 65, 63
2, 52799, Note_on_c, 0, 65, 0
2, 52800, Note_on_c, 0, 60, 63
2, 52823, Note_on_c, 0, 60, 0
2, 52824, Note_on_c, 0, 65, 63
2, 52847, Note_on_c, 0, 65, 0
2, 52848, Note_on_c, 0, 57, 63
2, 52858, Note_on_c, 0, 57, 0
2, 52872, Note_on_c, 0, 60, 63
2, 52882, Note_on_c, 0, 60, 0
2, 52896, Note_on_c, 0, 53, 63
2, 52920, Note_on_c, 0, 53, 0
2, 52920, Note_on_c, 0, 57, 63
2, 52943, Note_on_c, 0, 57, 0
2, 52944, Note_on_c, 0, 60, 63
2, 52954, Note_on_c, 0, 60, 0
2, 52968, Note_on_c, 0, 65, 63
2, 52978, Note_on_c, 0, 65, 0
2, 52992, Note_on_c, 0, 53, 63
2, 53169, Note_on_c, 0, 53, 0
2, 53280, End_track
3, 0, Start_track
3, 0, Program_c, 0, 0
3, 0, Control_c, 0, 7, 127
3, 0, Control_c, 0, 10, 64
3, 6912, Note_on_c, 0, 65, 75
3, 6957, Note_on_c, 0, 65, 0
3, 6960, Note_on_c, 0, 64, 75
3, 6970, Note_on_c, 0, 64, 0
3, 6984, Note_on_c, 0, 62, 75
3, 6994, Note_on_c, 0, 62, 0
3, 16128, Note_on_c, 0, 65, 75
3, 16173, Note_on_c, 0, 65, 0
3, 16176, Note_on_c, 0, 64, 75
3, 16186, Note_on_c, 0, 64, 0
3, 16200, Note_on_c, 0, 62, 75
3, 16210, Note_on_c, 0, 62, 0
3, 32160, Note_on_c, 0, 64, 75
3, 32249, Note_on_c, 0, 64, 0
3, 49440, Note_on_c, 0, 64, 75
3, 49529, Note_on_c, 0, 64, 0
3, 53280, End_track
4, 0, Start_track
4, 0, Program_c, 1, 0
4, 0, Control_c, 1, 7, 127
4, 0, Control_c, 1, 10, 64
4, 0, Note_on_c, 1, 57, 70
4, 0, Note_on_c, 1, 53, 70
4, 177, Note_on_c, 1, 57, 0
4, 177, Note_on_c, 1, 53, 0
4, 312, Note_on_c, 1, 48, 70
4, 335, Note_on_c, 1, 48, 0
4, 336, Note_on_c, 1, 50, 71
4, 359, Note_on_c, 1, 50, 0
4, 360, Note_on_c, 1, 52, 72
4, 383, Note_on_c, 1, 52, 0
4, 384, Note_on_c, 1, 53, 73
4, 407, Note_on_c, 1, 53, 0
4, 408, Note_on_c, 1, 55, 74
4, 431, Note_on_c, 1, 55, 0
4, 432, Note_on_c, 1, 57, 75
4, 455, Note_on_c, 1, 57, 0
4, 456, Note_on_c, 1, 58, 74
4, 479, Note_on_c, 1, 58, 0
4, 480, Note_on_c, 1, 60, 73
4, 503, Note_on_c, 1, 60, 0
4, 504, Note_on_c, 1, 62, 72
4, 527, Note_on_c, 1, 62, 0
4, 528, Note_on_c, 1, 60, 71
4, 551, Note_on_c, 1, 60, 0
4, 552, Note_on_c, 1, 58, 70
4, 575, Note_on_c, 1, 58, 0
4, 576, Note_on_c, 1, 57, 70
4, 887, Note_on_c, 1, 57, 0
4, 888, Note_on_c, 1, 50, 70
4, 911, Note_on_c, 1, 50, 0
4, 912, Note_on_c, 1, 52, 70
4, 935, Note_on_c, 1, 52, 0
4, 936, Note_on_c, 1, 54, 70
4, 959, Note_on_c, 1, 54, 0
4, 960, Note_on_c, 1, 55, 70
4, 983, Note_on_c, 1, 55, 0
4, 984, Note_on_c, 1, 57, 71
4, 1007, Note_on_c, 1, 57, 0
4, 1008, Note_on_c, 1, 58, 72
4, 1031, Note_on_c, 1, 58, 0
4, 1032, Note_on_c, 1, 60, 73
4, 1055, Note_on_c, 1, 60, 0
4, 1056, Note_on_c, 1, 58, 75
4, 1079, Note_on_c, 1, 58, 0
4, 1080, Note_on_c, 1, 57, 73
4, 1103, Note_on_c, 1, 57, 0
4, 1104, Note_on_c, 1, 55, 72
4, 1127, Note_on_c, 1, 55, 0
4, 1128, Note_on_c, 1, 53, 71
4, 1151, Note_on_c, 1, 53, 0
4, 1152, Note_on_c, 1, 52, 70
4, 1344, Note_on_c, 1, 52, 0
4, 1344, Note_on_c, 1, 48, 70
4, 1433, Note_on_c, 1, 48, 0
4, 1464, Note_on_c, 1, 50, 70
4, 1487, Note_on_c, 1, 50, 0
4, 1488, Note_on_c, 1, 52, 70
4, 1511, Note_on_c, 1, 52, 0
4, 1512, Note_on_c, 1, 53, 70
4, 1535, Note_on_c, 1, 53, 0
4, 1536, Note_on_c, 1, 55, 70
4, 1559, Note_on_c, 1, 55, 0
4, 1560, Note_on_c, 1, 57, 71
4, 1583, Note_on_c, 1, 57, 0
4, 1584, Note_on_c, 1, 58, 72
4, 1607, Note_on_c, 1, 58, 0
4, 1608, Note_on_c, 1, 60, 73
4, 1631, Note_on_c, 1, 60, 0
4, 1632, Note_on_c, 1, 62, 75
4, 1655, Note_on_c, 1, 62, 0
4, 1656, Note_on_c, 1, 60, 73
4, 1679, Note_on_c, 1, 60, 0
4, 1680, Note_on_c, 1, 58, 72
4, 1703, Note_on_c, 1, 58, 0
4, 1704, Note_on_c, 1, 57, 71
4, 1727, Note_on_c, 1, 57, 0
4, 1728, Note_on_c, 1, 58, 70
4, 1751, Note_on_c, 1, 58, 0
4, 1752, Note_on_c, 1, 62, 70
4, 1775, Note_on_c, 1, 62, 0
4, 1776, Note_on_c, 1, 60, 70
4, 1799, Note_on_c, 1, 60, 0
4, 1800, Note_on_c, 1, 58, 70
4, 1823, Note_on_c, 1, 58, 0
4, 1824, Note_on_c, 1, 60, 70
4, 1913, Note_on_c, 1, 60, 0
4, 1920, Note_on_c, 1, 48, 70
4, 2009, Note_on_c, 1, 48, 0
4, 2040, Note_on_c, 1, 41, 70
4, 2063, Note_on_c, 1, 41, 0
4, 2064, Note_on_c, 1, 43, 70
4, 2087, Note_on_c, 1, 43, 0
4, 2088, Note_on_c, 1, 45, 70
4, 2111, Note_on_c, 1, 45, 0
4, 2112, Note_on_c, 1, 46, 71
4, 2135, Note_on_c, 1, 46, 0
4, 2136, Note_on_c, 1, 48, 71
4, 2159, Note_on_c, 1, 48, 0
4, 2160, Note_on_c, 1, 50, 72
4, 2183, Note_on_c, 1, 50, 0
4, 2184, Note_on_c, 1, 52, 72
4, 2207, Note_on_c, 1, 52, 0
4, 2208, Note_on_c, 1, 53, 73
4, 2231, Note_on_c, 1, 53, 0
4, 2232, Note_on_c, 1, 52, 73
4, 2255, Note_on_c, 1, 52, 0
4, 2256, Note_on_c, 1, 55, 74
4, 2279, Note_on_c, 1, 55, 0
4, 2280, Note_on_c, 1, 53, 74
4, 2303, Note_on_c, 1, 53, 0
4, 2304, Note_on_c, 1, 57, 75
4, 2569, Note_on_c, 1, 57, 0
4, 2616, Note_on_c, 1, 55, 70
4, 2639, Note_on_c, 1, 55, 0
4, 2640, Note_on_c, 1, 57, 70
4, 2663, Note_on_c, 1, 57, 0
4, 2664, Note_on_c, 1, 58, 70
4, 2687, Note_on_c, 1, 58, 0
4, 2688, Note_on_c, 1, 60, 71
4, 2711, Note_on_c, 1, 60, 0
4, 2712, Note_on_c, 1, 62, 71
4, 2735, Note_on_c, 1, 62, 0
4, 2736, Note_on_c, 1, 64, 72
4, 2759, Note_on_c, 1, 64, 0
4, 2760, Note_on_c, 1, 66, 72
4, 2783, Note_on_c, 1, 66, 0
4, 2784, Note_on_c, 1, 67, 73
4, 2807, Note_on_c, 1, 67, 0
4, 2808, Note_on_c, 1, 69, 73
4, 2831, Note_on_c, 1, 69, 0
4, 2832, Note_on_c, 1, 70, 74
4, 2855, Note_on_c, 1, 70, 0
4, 2856, Note_on_c, 1, 67, 74
4, 2879, Note_on_c, 1, 67, 0
4, 2880, Note_on_c, 1, 64, 75
4, 3145, Note_on_c, 1, 64, 0
4, 3192, Note_on_c, 1, 65, 75
4, 3215, Note_on_c, 1, 65, 0
4, 3216, Note_on_c, 1, 64, 75
4, 3239, Note_on_c, 1, 64, 0
4, 3240, Note_on_c, 1, 62, 75
4, 3263, Note_on_c, 1, 62, 0
4, 3264, Note_on_c, 1, 60, 75
4, 3287, Note_on_c, 1, 60, 0
4, 3288, Note_on_c, 1, 62, 75
4, 3311, Note_on_c, 1, 62, 0
4, 3312, Note_on_c, 1, 60, 75
4, 3335, Note_on_c, 1, 60, 0
4, 3336, Note_on_c, 1, 58, 75
4, 3359, Note_on_c, 1, 58, 0
4, 3360, Note_on_c, 1, 57, 75
4, 3383, Note_on_c, 1, 57, 0
4, 3384, Note_on_c, 1, 53, 75
4, 3407, Note_on_c, 1, 53, 0
4, 3408, Note_on_c, 1, 55, 75
4, 3431, Note_on_c, 1, 55, 0
4, 3432, Note_on_c, 1, 57, 75
4, 3455, Note_on_c, 1, 57, 0
4, 3456, Note_on_c, 1, 58, 75
4, 3479, Note_on_c, 1, 58, 0
4, 3480, Note_on_c, 1, 62, 74
4, 3503, Note_on_c, 1, 62, 0
4, 3504, Note_on_c, 1, 60, 74
4, 3527, Note_on_c, 1, 60, 0
4, 3528, Note_on_c, 1, 58, 73
4, 3551, Note_on_c, 1, 58, 0
4, 3552, Note_on_c, 1, 60, 73
4, 3641, Note_on_c, 1, 60, 0
4, 3648, Note_on_c, 1, 48, 71
4, 3737, Note_on_c, 1, 48, 0
4, 3744, Note_on_c, 1, 53, 70
4, 3767, Note_on_c, 1, 53, 0
4, 3768, Note_on_c, 1, 57, 69
4, 3791, Note_on_c, 1, 57, 0
4, 3792, Note_on_c, 1, 55, 68
4, 3815, Note_on_c, 1, 55, 0
4, 3816, Note_on_c, 1, 58, 67
4, 3839, Note_on_c, 1, 58, 0
4, 3840, Note_on_c, 1, 57, 66
4, 3863, Note_on_c, 1, 57, 0
4, 3864, Note_on_c, 1, 60, 65
4, 3887, Note_on_c, 1, 60, 0
4, 3888, Note_on_c, 1, 58, 64
4, 3911, Note_on_c, 1, 58, 0
4, 3912, Note_on_c, 1, 62, 63
4, 3935, Note_on_c, 1, 62, 0
4, 3936, Note_on_c, 1, 57, 62
4, 3959, Note_on_c, 1, 57, 0
4, 3960, Note_on_c, 1, 60, 61
4, 3983, Note_on_c, 1, 60, 0
4, 3984, Note_on_c, 1, 55, 60
4, 4007, Note_on_c, 1, 55, 0
4, 4008, Note_on_c, 1, 58, 59
4, 4031, Note_on_c, 1, 58, 0
4, 4032, Note_on_c, 1, 53, 58
4, 4055, Note_on_c, 1, 53, 0
4, 4056, Note_on_c, 1, 57, 58
4, 4079, Note_on_c, 1, 57, 0
4, 4080, Note_on_c, 1, 55, 58
4, 4103, Note_on_c, 1, 55, 0
4, 4104, Note_on_c, 1, 58, 58
4, 4127, Note_on_c, 1, 58, 0
4, 4128, Note_on_c, 1, 53, 59
4, 4151, Note_on_c, 1, 53, 0
4, 4152, Note_on_c, 1, 57, 59
4, 4175, Note_on_c, 1, 57, 0
4, 4176, Note_on_c, 1, 49, 60
4, 4199, Note_on_c, 1, 49, 0
4, 4200, Note_on_c, 1, 57, 60
4, 4223, Note_on_c, 1, 57, 0
4, 4224, Note_on_c, 1, 50, 61
4, 4247, Note_on_c, 1, 50, 0
4, 4248, Note_on_c, 1, 57, 61
4, 4271, Note_on_c, 1, 57, 0
4, 4272, Note_on_c, 1, 53, 62
4, 4295, Note_on_c, 1, 53, 0
4, 4296, Note_on_c, 1, 57, 62
4, 4319, Note_on_c, 1, 57, 0
4, 4320, Note_on_c, 1, 52, 63
4, 4343, Note_on_c, 1, 52, 0
4, 4344, Note_on_c, 1, 55, 63
4, 4367, Note_on_c, 1, 55, 0
4, 4368, Note_on_c, 1, 53, 63
4, 4391, Note_on_c, 1, 53, 0
4, 4392, Note_on_c, 1, 55, 63
4, 4415, Note_on_c, 1, 55, 0
4, 4416, Note_on_c, 1, 52, 64
4, 4439, Note_on_c, 1, 52, 0
4, 4440, Note_on_c, 1, 55, 65
4, 4463, Note_on_c, 1, 55, 0
4, 4464, Note_on_c, 1, 47, 66
4, 4487, Note_on_c, 1, 47, 0
4, 4488, Note_on_c, 1, 55, 66
4, 4511, Note_on_c, 1, 55, 0
4, 4512, Note_on_c, 1, 48, 67
4, 4535, Note_on_c, 1, 48, 0
4, 4536, Note_on_c, 1, 55, 68
4, 4559, Note_on_c, 1, 55, 0
4, 4560, Note_on_c, 1, 52, 69
4, 4583, Note_on_c, 1, 52, 0
4, 4584, Note_on_c, 1, 55, 70
4, 4607, Note_on_c, 1, 55, 0
4, 4608, Note_on_c, 1, 50, 70
4, 4631, Note_on_c, 1, 50, 0
4, 4632, Note_on_c, 1, 53, 70
4, 4655, Note_on_c, 1, 53, 0
4, 4656, Note_on_c, 1, 52, 70
4, 4679, Note_on_c, 1, 52, 0
4, 4680, Note_on_c, 1, 55, 70
4, 4703, Note_on_c, 1, 55, 0
4, 4704, Note_on_c, 1, 53, 70
4, 4727, Note_on_c, 1, 53, 0
4, 4728, Note_on_c, 1, 57, 70
4, 4751, Note_on_c, 1, 57, 0
4, 4752, Note_on_c, 1, 54, 70
4, 4775, Note_on_c, 1, 54, 0
4, 4776, Note_on_c, 1, 57, 70
4, 4799, Note_on_c, 1, 57, 0
4, 4800, Note_on_c, 1, 55, 70
4, 4823, Note_on_c, 1, 55, 0
4, 4824, Note_on_c, 1, 59, 70
4, 4847, Note_on_c, 1, 59, 0
4, 4848, Note_on_c, 1, 57, 70
4, 4871, Note_on_c, 1, 57, 0
4, 4872, Note_on_c, 1, 60, 70
4, 4895, Note_on_c, 1, 60, 0
4, 4896, Note_on_c, 1, 59, 70
4, 4919, Note_on_c, 1, 59, 0
4, 4920, Note_on_c, 1, 62, 70
4, 4943, Note_on_c, 1, 62, 0
4, 4944, Note_on_c, 1, 57, 70
4, 4967, Note_on_c, 1, 57, 0
4, 4968, Note_on_c, 1, 60, 70
4, 4991, Note_on_c, 1, 60, 0
4, 4992, Note_on_c, 1, 55, 70
4, 5015, Note_on_c, 1, 55, 0
4, 5016, Note_on_c, 1, 59, 70
4, 5039, Note_on_c, 1, 59, 0
4, 5040, Note_on_c, 1, 57, 70
4, 5063, Note_on_c, 1, 57, 0
4, 5064, Note_on_c, 1, 60, 70
4, 5087, Note_on_c, 1, 60, 0
4, 5088, Note_on_c, 1, 59, 70
4, 5111, Note_on_c, 1, 59, 0
4, 5112, Note_on_c, 1, 62, 70
4, 5135, Note_on_c, 1, 62, 0
4, 5136, Note_on_c, 1, 55, 70
4, 5159, Note_on_c, 1, 55, 0
4, 5160, Note_on_c, 1, 59, 70
4, 5183, Note_on_c, 1, 59, 0
4, 5184, Note_on_c, 1, 60, 70
4, 5207, Note_on_c, 1, 60, 0
4, 5208, Note_on_c, 1, 64, 70
4, 5231, Note_on_c, 1, 64, 0
4, 5232, Note_on_c, 1, 62, 70
4, 5255, Note_on_c, 1, 62, 0
4, 5256, Note_on_c, 1, 65, 70
4, 5279, Note_on_c, 1, 65, 0
4, 5280, Note_on_c, 1, 64, 70
4, 5303, Note_on_c, 1, 64, 0
4, 5304, Note_on_c, 1, 67, 70
4, 5327, Note_on_c, 1, 67, 0
4, 5328, Note_on_c, 1, 60, 70
4, 5351, Note_on_c, 1, 60, 0
4, 5352, Note_on_c, 1, 64, 70
4, 5375, Note_on_c, 1, 64, 0
4, 5376, Note_on_c, 1, 62, 70
4, 5399, Note_on_c, 1, 62, 0
4, 5400, Note_on_c, 1, 65, 70
4, 5423, Note_on_c, 1, 65, 0
4, 5424, Note_on_c, 1, 64, 70
4, 5447, Note_on_c, 1, 64, 0
4, 5448, Note_on_c, 1, 67, 70
4, 5471, Note_on_c, 1, 67, 0
4, 5472, Note_on_c, 1, 65, 70
4, 5495, Note_on_c, 1, 65, 0
4, 5496, Note_on_c, 1, 69, 70
4, 5519, Note_on_c, 1, 69, 0
4, 5520, Note_on_c, 1, 67, 70
4, 5543, Note_on_c, 1, 67, 0
4, 5544, Note_on_c, 1, 70, 70
4, 5567, Note_on_c, 1, 70, 0
4, 5568, Note_on_c, 1, 65, 70
4, 5591, Note_on_c, 1, 65, 0
4, 5592, Note_on_c, 1, 69, 70
4, 5615, Note_on_c, 1, 69, 0
4, 5616, Note_on_c, 1, 64, 70
4, 5639, Note_on_c, 1, 64, 0
4, 5640, Note_on_c, 1, 67, 70
4, 5663, Note_on_c, 1, 67, 0
4, 5664, Note_on_c, 1, 62, 70
4, 5687, Note_on_c, 1, 62, 0
4, 5688, Note_on_c, 1, 65, 70
4, 5711, Note_on_c, 1, 65, 0
4, 5712, Note_on_c, 1, 60, 70
4, 5735, Note_on_c, 1, 60, 0
4, 5736, Note_on_c, 1, 64, 70
4, 5759, Note_on_c, 1, 64, 0
4, 5760, Note_on_c, 1, 59, 70
4, 5783, Note_on_c, 1, 59, 0
4, 5784, Note_on_c, 1, 62, 70
4, 5807, Note_on_c, 1, 62, 0
4, 5808, Note_on_c, 1, 57, 70
4, 5831, Note_on_c, 1, 57, 0
4, 5832, Note_on_c, 1, 60, 71
4, 5855, Note_on_c, 1, 60, 0
4, 5856, Note_on_c, 1, 55, 71
4, 5879, Note_on_c, 1, 55, 0
4, 5880, Note_on_c, 1, 59, 72
4, 5903, Note_on_c, 1, 59, 0
4, 5904, Note_on_c, 1, 57, 72
4, 5927, Note_on_c, 1, 57, 0
4, 5928, Note_on_c, 1, 60, 72
4, 5951, Note_on_c, 1, 60, 0
4, 5952, Note_on_c, 1, 59, 73
4, 5975, Note_on_c, 1, 59, 0
4, 5976, Note_on_c, 1, 62, 73
4, 5999, Note_on_c, 1, 62, 0
4, 6000, Note_on_c, 1, 55, 74
4, 6023, Note_on_c, 1, 55, 0
4, 6024, Note_on_c, 1, 59, 74
4, 6047, Note_on_c, 1, 59, 0
4, 6048, Note_on_c, 1, 60, 75
4, 6093, Note_on_c, 1, 60, 0
4, 6096, Note_on_c, 1, 62, 75
4, 6141, Note_on_c, 1, 62, 0
4, 6144, Note_on_c, 1, 64, 75
4, 6189, Note_on_c, 1, 64, 0
4, 6192, Note_on_c, 1, 65, 75
4, 6237, Note_on_c, 1, 65, 0
4, 6240, Note_on_c, 1, 64, 75
4, 6285, Note_on_c, 1, 64, 0
4, 6288, Note_on_c, 1, 52, 75
4, 6333, Note_on_c, 1, 52, 0
4, 6336, Note_on_c, 1, 53, 70
4, 6425, Note_on_c, 1, 53, 0
4, 6432, Note_on_c, 1, 55, 70
4, 6521, Note_on_c, 1, 55, 0
4, 6528, Note_on_c, 1, 43, 70
4, 6617, Note_on_c, 1, 43, 0
4, 6624, Note_on_c, 1, 36, 70
4, 6634, Note_on_c, 1, 36, 0
4, 6648, Note_on_c, 1, 48, 70
4, 6671, Note_on_c, 1, 48, 0
4, 6672, Note_on_c, 1, 47, 70
4, 6695, Note_on_c, 1, 47, 0
4, 6696, Note_on_c, 1, 48, 70
4, 6719, Note_on_c, 1, 48, 0
4, 6720, Note_on_c, 1, 38, 70
4, 6730, Note_on_c, 1, 38, 0
4, 6744, Note_on_c, 1, 50, 70
4, 6767, Note_on_c, 1, 50, 0
4, 6768, Note_on_c, 1, 48, 70
4, 6791, Note_on_c, 1, 48, 0
4, 6792, Note_on_c, 1, 50, 70
4, 6815, Note_on_c, 1, 50, 0
4, 6816, Note_on_c, 1, 40, 70
4, 6826, Note_on_c, 1, 40, 0
4, 6840, Note_on_c, 1, 52, 70
4, 6863, Note_on_c, 1, 52, 0
4, 6864, Note_on_c, 1, 50, 70
4, 6887, Note_on_c, 1, 50, 0
4, 6888, Note_on_c, 1, 52, 70
4, 6911, Note_on_c, 1, 52, 0
4, 6912, Note_on_c, 1, 41, 70
4, 6922, Note_on_c, 1, 41, 0
4, 6936, Note_on_c, 1, 53, 70
4, 6959, Note_on_c, 1, 53, 0
4, 6960, Note_on_c, 1, 52, 70
4, 6983, Note_on_c, 1, 52, 0
4, 6984, Note_on_c, 1, 53, 70
4, 7007, Note_on_c, 1, 53, 0
4, 7008, Note_on_c, 1, 43, 70
4, 7018, Note_on_c, 1, 43, 0
4, 7032, Note_on_c, 1, 55, 70
4, 7055, Note_on_c, 1, 55, 0
4, 7056, Note_on_c, 1, 54, 70
4, 7079, Note_on_c, 1, 54, 0
4, 7080, Note_on_c, 1, 55, 70
4, 7103, Note_on_c, 1, 55, 0
4, 7104, Note_on_c, 1, 43, 70
4, 7114, Note_on_c, 1, 43, 0
4, 7128, Note_on_c, 1, 55, 70
4, 7151, Note_on_c, 1, 55, 0
4, 7152, Note_on_c, 1, 54, 70
4, 7175, Note_on_c, 1, 54, 0
4, 7176, Note_on_c, 1, 55, 70
4, 7199, Note_on_c, 1, 55, 0
4, 7200, Note_on_c, 1, 48, 70
4, 7289, Note_on_c, 1, 48, 0
4, 7512, Note_on_c, 1, 40, 70
4, 7512, Note_on_c, 1, 36, 70
4, 7535, Note_on_c, 1, 40, 0
4, 7535, Note_on_c, 1, 36, 0
4, 7536, Note_on_c, 1, 41, 70
4, 7536, Note_on_c, 1, 38, 70
4, 7559, Note_on_c, 1, 41, 0
4, 7559, Note_on_c, 1, 38, 0
4, 7560, Note_on_c, 1, 43, 71
4, 7560, Note_on_c, 1, 40, 71
4, 7583, Note_on_c, 1, 43, 0
4, 7583, Note_on_c, 1, 40, 0
4, 7584, Note_on_c, 1, 45, 72
4, 7584, Note_on_c, 1, 41, 72
4, 7607, Note_on_c, 1, 45, 0
4, 7607, Note_on_c, 1, 41, 0
4, 7608, Note_on_c, 1, 47, 72
4, 7608, Note_on_c, 1, 43, 72
4, 7631, Note_on_c, 1, 47, 0
4, 7631, Note_on_c, 1, 43, 0
4, 7632, Note_on_c, 1, 48, 73
4, 7632, Note_on_c, 1, 45, 73
4, 7655, Note_on_c, 1, 48, 0
4, 7655, Note_on_c, 1, 45, 0
4, 7656, Note_on_c, 1, 50, 74
4, 7656, Note_on_c, 1, 47, 74
4, 7679, Note_on_c, 1, 50, 0
4, 7679, Note_on_c, 1, 47, 0
4, 7680, Note_on_c, 1, 52, 75
4, 7680, Note_on_c, 1, 48, 75
4, 7700, Note_on_c, 1, 52, 0
4, 7700, Note_on_c, 1, 48, 0
4, 7728, Note_on_c, 1, 52, 75
4, 7728, Note_on_c, 1, 48, 75
4, 7748, Note_on_c, 1, 52, 0
4, 7748, Note_on_c, 1, 48, 0
4, 7776, Note_on_c, 1, 52, 75
4, 7776, Note_on_c, 1, 48, 75
4, 7865, Note_on_c, 1, 52, 0
4, 7865, Note_on_c, 1, 48, 0
4, 8016, Note_on_c, 1, 55, 75
4, 8016, Note_on_c, 1, 52, 75
4, 8061, Note_on_c, 1, 55, 0
4, 8061, Note_on_c, 1, 52, 0
4, 8064, Note_on_c, 1, 57, 75
4, 8064, Note_on_c, 1, 53, 75
4, 8160, Note_on_c, 1, 57, 0
4, 8160, Note_on_c, 1, 53, 0
4, 8160, Note_on_c, 1, 55, 73
4, 8249, Note_on_c, 1, 55, 0
4, 8256, Note_on_c, 1, 43, 71
4, 8345, Note_on_c, 1, 43, 0
4, 8352, Note_on_c, 1, 52, 75
4, 8352, Note_on_c, 1, 40, 75
4, 8617, Note_on_c, 1, 52, 0
4, 8617, Note_on_c, 1, 40, 0
4, 8640, Note_on_c, 1, 53, 75
4, 8736, Note_on_c, 1, 53, 0
4, 8736, Note_on_c, 1, 55, 75
4, 8825, Note_on_c, 1, 55, 0
4, 8832, Note_on_c, 1, 43, 75
4, 8921, Note_on_c, 1, 43, 0
4, 8952, Note_on_c, 1, 48, 75
4, 8975, Note_on_c, 1, 48, 0
4, 8976, Note_on_c, 1, 47, 72
4, 8999, Note_on_c, 1, 47, 0
4, 9000, Note_on_c, 1, 48, 70
4, 9023, Note_on_c, 1, 48, 0
4, 9024, Note_on_c, 1, 43, 67
4, 9047, Note_on_c, 1, 43, 0
4, 9048, Note_on_c, 1, 48, 65
4, 9071, Note_on_c, 1, 48, 0
4, 9072, Note_on_c, 1, 40, 62
4, 9082, Note_on_c, 1, 40, 0
4, 9096, Note_on_c, 1, 43, 60
4, 9106, Note_on_c, 1, 43, 0
4, 9120, Note_on_c, 1, 36, 58
4, 9214, Note_on_c, 1, 36, 0
4, 9216, Note_on_c, 1, 57, 70
4, 9216, Note_on_c, 1, 53, 70
4, 9393, Note_on_c, 1, 57, 0
4, 9393, Note_on_c, 1, 53, 0
4, 9528, Note_on_c, 1, 48, 70
4, 9551, Note_on_c, 1, 48, 0
4, 9552, Note_on_c, 1, 50, 71
4, 9575, Note_on_c, 1, 50, 0
4, 9576, Note_on_c, 1, 52, 72
4, 9599, Note_on_c, 1, 52, 0
4, 9600, Note_on_c, 1, 53, 73
4, 9623, Note_on_c, 1, 53, 0
4, 9624, Note_on_c, 1, 55, 74
4, 9647, Note_on_c, 1, 55, 0
4, 9648, Note_on_c, 1, 57, 75
4, 9671, Note_on_c, 1, 57, 0
4, 9672, Note_on_c, 1, 58, 74
4, 9695, Note_on_c, 1, 58, 0
4, 9696, Note_on_c, 1, 60, 73
4, 9719, Note_on_c, 1, 60, 0
4, 9720, Note_on_c, 1, 62, 72
4, 9743, Note_on_c, 1, 62, 0
4, 9744, Note_on_c, 1, 60, 71
4, 9767, Note_on_c, 1, 60, 0
4, 9768, Note_on_c, 1, 58, 70
4, 9791, Note_on_c, 1, 58, 0
4, 9792, Note_on_c, 1, 57, 70
4, 10103, Note_on_c, 1, 57, 0
4, 10104, Note_on_c, 1, 50, 70
4, 10127, Note_on_c, 1, 50, 0
4, 10128, Note_on_c, 1, 52, 70
4, 10151, Note_on_c, 1, 52, 0
4, 10152, Note_on_c, 1, 54, 70
4, 10175, Note_on_c, 1, 54, 0
4, 10176, Note_on_c, 1, 55, 70
4, 10199, Note_on_c, 1, 55, 0
4, 10200, Note_on_c, 1, 57, 71
4, 10223, Note_on_c, 1, 57, 0
4, 10224, Note_on_c, 1, 58, 72
4, 10247, Note_on_c, 1, 58, 0
4, 10248, Note_on_c, 1, 60, 73
4, 10271, Note_on_c, 1, 60, 0
4, 10272, Note_on_c, 1, 58, 75
4, 10295, Note_on_c, 1, 58, 0
4, 10296, Note_on_c, 1, 57, 73
4, 10319, Note_on_c, 1, 57, 0
4, 10320, Note_on_c, 1, 55, 72
4, 10343, Note_on_c, 1, 55, 0
4, 10344, Note_on_c, 1, 53, 71
4, 10367, Note_on_c, 1, 53, 0
4, 10368, Note_on_c, 1, 52, 70
4, 10560, Note_on_c, 1, 52, 0
4, 10560, Note_on_c, 1, 48, 70
4, 10649, Note_on_c, 1, 48, 0
4, 10680, Note_on_c, 1, 50, 70
4, 10703, Note_on_c, 1, 50, 0
4, 10704, Note_on_c, 1, 52, 70
4, 10727, Note_on_c, 1, 52, 0
4, 10728, Note_on_c, 1, 53, 70
4, 10751, Note_on_c, 1, 53, 0
4, 10752, Note_on_c, 1, 55, 70
4, 10775, Note_on_c, 1, 55, 0
4, 10776, Note_on_c, 1, 57, 71
4, 10799, Note_on_c, 1, 57, 0
4, 10800, Note_on_c, 1, 58, 72
4, 10823, Note_on_c, 1, 58, 0
4, 10824, Note_on_c, 1, 60, 73
4, 10847, Note_on_c, 1, 60, 0
4, 10848, Note_on_c, 1, 62, 75
4, 10871, Note_on_c, 1, 62, 0
4, 10872, Note_on_c, 1, 60, 73
4, 10895, Note_on_c, 1, 60, 0
4, 10896, Note_on_c, 1, 58, 72
4, 10919, Note_on_c, 1, 58, 0
4, 10920, Note_on_c, 1, 57, 71
4, 10943, Note_on_c, 1, 57, 0
4, 10944, Note_on_c, 1, 58, 70
4, 10967, Note_on_c, 1, 58, 0
4, 10968, Note_on_c, 1, 62, 70
4, 10991, Note_on_c, 1, 62, 0
4, 10992, Note_on_c, 1, 60, 70
4, 11015, Note_on_c, 1, 60, 0
4, 11016, Note_on_c, 1, 58, 70
4, 11039, Note_on_c, 1, 58, 0
4, 11040, Note_on_c, 1, 60, 70
4, 11129, Note_on_c, 1, 60, 0
4, 11136, Note_on_c, 1, 48, 70
4, 11225, Note_on_c, 1, 48, 0
4, 11256, Note_on_c, 1, 41, 70
4, 11279, Note_on_c, 1, 41, 0
4, 11280, Note_on_c, 1, 43, 70
4, 11303, Note_on_c, 1, 43, 0
4, 11304, Note_on_c, 1, 45, 70
4, 11327, Note_on_c, 1, 45, 0
4, 11328, Note_on_c, 1, 46, 71
4, 11351, Note_on_c, 1, 46, 0
4, 11352, Note_on_c, 1, 48, 71
4, 11375, Note_on_c, 1, 48, 0
4, 11376, Note_on_c, 1, 50, 72
4, 11399, Note_on_c, 1, 50, 0
4, 11400, Note_on_c, 1, 52, 72
4, 11423, Note_on_c, 1, 52, 0
4, 11424, Note_on_c, 1, 53, 73
4, 11447, Note_on_c, 1, 53, 0
4, 11448, Note_on_c, 1, 52, 73
4, 11471, Note_on_c, 1, 52, 0
4, 11472, Note_on_c, 1, 55, 74
4, 11495, Note_on_c, 1, 55, 0
4, 11496, Note_on_c, 1, 53, 74
4, 11519, Note_on_c, 1, 53, 0
4, 11520, Note_on_c, 1, 57, 75
4, 11785, Note_on_c, 1, 57, 0
4, 11832, Note_on_c, 1, 55, 70
4, 11855, Note_on_c, 1, 55, 0
4, 11856, Note_on_c, 1, 57, 70
4, 11879, Note_on_c, 1, 57, 0
4, 11880, Note_on_c, 1, 58, 70
4, 11903, Note_on_c, 1, 58, 0
4, 11904, Note_on_c, 1, 60, 71
4, 11927, Note_on_c, 1, 60, 0
4, 11928, Note_on_c, 1, 62, 71
4, 11951, Note_on_c, 1, 62, 0
4, 11952, Note_on_c, 1, 64, 72
4, 11975, Note_on_c, 1, 64, 0
4, 11976, Note_on_c, 1, 66, 72
4, 11999, Note_on_c, 1, 66, 0
4, 12000, Note_on_c, 1, 67, 73
4, 12023, Note_on_c, 1, 67, 0
4, 12024, Note_on_c, 1, 69, 73
4, 12047, Note_on_c, 1, 69, 0
4, 12048, Note_on_c, 1, 70, 74
4, 12071, Note_on_c, 1, 70, 0
4, 12072, Note_on_c, 1, 67, 74
4, 12095, Note_on_c, 1, 67, 0
4, 12096, Note_on_c, 1, 64, 75
4, 12361, Note_on_c, 1, 64, 0
4, 12408, Note_on_c, 1, 65, 75
4, 12431, Note_on_c, 1, 65, 0
4, 12432, Note_on_c, 1, 64, 75
4, 12455, Note_on_c, 1, 64, 0
4, 12456, Note_on_c, 1, 62, 75
4, 12479, Note_on_c, 1, 62, 0
4, 12480, Note_on_c, 1, 60, 75
4, 12503, Note_on_c, 1, 60, 0
4, 12504, Note_on_c, 1, 62, 75
4, 12527, Note_on_c, 1, 62, 0
4, 12528, Note_on_c, 1, 60, 75
4, 12551, Note_on_c, 1, 60, 0
4, 12552, Note_on_c, 1, 58, 75
4, 12575, Note_on_c, 1, 58, 0
4, 12576, Note_on_c, 1, 57, 75
4, 12599, Note_on_c, 1, 57, 0
4, 12600, Note_on_c, 1, 53, 75
4, 12623, Note_on_c, 1, 53, 0
4, 12624, Note_on_c, 1, 55, 75
4, 12647, Note_on_c, 1, 55, 0
4, 12648, Note_on_c, 1, 57, 75
4, 12671, Note_on_c, 1, 57, 0
4, 12672, Note_on_c, 1, 58, 75
4, 12695, Note_on_c, 1, 58, 0
4, 12696, Note_on_c, 1, 62, 74
4, 12719, Note_on_c, 1, 62, 0
4, 12720, Note_on_c, 1, 60, 74
4, 12743, Note_on_c, 1, 60, 0
4, 12744, Note_on_c, 1, 58, 73
4, 12767, Note_on_c, 1, 58, 0
4, 12768, Note_on_c, 1, 60, 73
4, 12857, Note_on_c, 1, 60, 0
4, 12864, Note_on_c, 1, 48, 71
4, 12953, Note_on_c, 1, 48, 0
4, 12960, Note_on_c, 1, 53, 70
4, 12983, Note_on_c, 1, 53, 0
4, 12984, Note_on_c, 1, 57, 69
4, 13007, Note_on_c, 1, 57, 0
4, 13008, Note_on_c, 1, 55, 68
4, 13031, Note_on_c, 1, 55, 0
4, 13032, Note_on_c, 1, 58, 67
4, 13055, Note_on_c, 1, 58, 0
4, 13056, Note_on_c, 1, 57, 66
4, 13079, Note_on_c, 1, 57, 0
4, 13080, Note_on_c, 1, 60, 65
4, 13103, Note_on_c, 1, 60, 0
4, 13104, Note_on_c, 1, 58, 64
4, 13127, Note_on_c, 1, 58, 0
4, 13128, Note_on_c, 1, 62, 63
4, 13151, Note_on_c, 1, 62, 0
4, 13152, Note_on_c, 1, 57, 62
4, 13175, Note_on_c, 1, 57, 0
4, 13176, Note_on_c, 1, 60, 61
4, 13199, Note_on_c, 1, 60, 0
4, 13200, Note_on_c, 1, 55, 60
4, 13223, Note_on_c, 1, 55, 0
4, 13224, Note_on_c, 1, 58, 59
4, 13247, Note_on_c, 1, 58, 0
4, 13248, Note_on_c, 1, 53, 58
4, 13271, Note_on_c, 1, 53, 0
4, 13272, Note_on_c, 1, 57, 58
4, 13295, Note_on_c, 1, 57, 0
4, 13296, Note_on_c, 1, 55, 58
4, 13319, Note_on_c, 1, 55, 0
4, 13320, Note_on_c, 1, 58, 58
4, 13343, Note_on_c, 1, 58, 0
4, 13344, Note_on_c, 1, 53, 59
4, 13367, Note_on_c, 1, 53, 0
4, 13368, Note_on_c, 1, 57, 59
4, 13391, Note_on_c, 1, 57, 0
4, 13392, Note_on_c, 1, 49, 60
4, 13415, Note_on_c, 1, 49, 0
4, 13416, Note_on_c, 1, 57, 60
4, 13439, Note_on_c, 1, 57, 0
4, 13440, Note_on_c, 1, 50, 61
4, 13463, Note_on_c, 1, 50, 0
4, 13464, Note_on_c, 1, 57, 61
4, 13487, Note_on_c, 1, 57, 0
4, 13488, Note_on_c, 1, 53, 62
4, 13511, Note_on_c, 1, 53, 0
4, 13512, Note_on_c, 1, 57, 62
4, 13535, Note_on_c, 1, 57, 0
4, 13536, Note_on_c, 1, 52, 63
4, 13559, Note_on_c, 1, 52, 0
4, 13560, Note_on_c, 1, 55, 63
4, 13583, Note_on_c, 1, 55, 0
4, 13584, Note_on_c, 1, 53, 63
4, 13607, Note_on_c, 1, 53, 0
4, 13608, Note_on_c, 1, 55, 63
4, 13631, Note_on_c, 1, 55, 0
4, 13632, Note_on_c, 1, 52, 64
4, 13655, Note_on_c, 1, 52, 0
4, 13656, Note_on_c, 1, 55, 65
4, 13679, Note_on_c, 1, 55, 0
4, 13680, Note_on_c, 1, 47, 66
4, 13703, Note_on_c, 1, 47, 0
4, 13704, Note_on_c, 1, 55, 66
4, 13727, Note_on_c, 1, 55, 0
4, 13728, Note_on_c, 1, 48, 67
4, 13751, Note_on_c, 1, 48, 0
4, 13752, Note_on_c, 1, 55, 68
4, 13775, Note_on_c, 1, 55, 0
4, 13776, Note_on_c, 1, 52, 69
4, 13799, Note_on_c, 1, 52, 0
4, 13800, Note_on_c, 1, 55, 70
4, 13823, Note_on_c, 1, 55, 0
4, 13824, Note_on_c, 1, 50, 70
4, 13847, Note_on_c, 1, 50, 0
4, 13848, Note_on_c, 1, 53, 70
4, 13871, Note_on_c, 1, 53, 0
4, 13872, Note_on_c, 1, 52, 70
4, 13895, Note_on_c, 1, 52, 0
4, 13896, Note_on_c, 1, 55, 70
4, 13919, Note_on_c, 1, 55, 0
4, 13920, Note_on_c, 1, 53, 70
4, 13943, Note_on_c, 1, 53, 0
4, 13944, Note_on_c, 1, 57, 70
4, 13967, Note_on_c, 1, 57, 0
4, 13968, Note_on_c, 1, 54, 70
4, 13991, Note_on_c, 1, 54, 0
4, 13992, Note_on_c, 1, 57, 70
4, 14015, Note_on_c, 1, 57, 0
4, 14016, Note_on_c, 1, 55, 70
4, 14039, Note_on_c, 1, 55, 0
4, 14040, Note_on_c, 1, 59, 70
4, 14063, Note_on_c, 1, 59, 0
4, 14064, Note_on_c, 1, 57, 70
4, 14087, Note_on_c, 1, 57, 0
4, 14088, Note_on_c, 1, 60, 70
4, 14111, Note_on_c, 1, 60, 0
4, 14112, Note_on_c, 1, 59, 70
4, 14135, Note_on_c, 1, 59, 0
4, 14136, Note_on_c, 1, 62, 70
4, 14159, Note_on_c, 1, 62, 0
4, 14160, Note_on_c, 1, 57, 70
4, 14183, Note_on_c, 1, 57, 0
4, 14184, Note_on_c, 1, 60, 70
4, 14207, Note_on_c, 1, 60, 0
4, 14208, Note_on_c, 1, 55, 70
4, 14231, Note_on_c, 1, 55, 0
4, 14232, Note_on_c, 1, 59, 70
4, 14255, Note_on_c, 1, 59, 0
4, 14256, Note_on_c, 1, 57, 70
4, 14279, Note_on_c, 1, 57, 0
4, 14280, Note_on_c, 1, 60, 70
4, 14303, Note_on_c, 1, 60, 0
4, 14304, Note_on_c, 1, 59, 70
4, 14327, Note_on_c, 1, 59, 0
4, 14328, Note_on_c, 1, 62, 70
4, 14351, Note_on_c, 1, 62, 0
4, 14352, Note_on_c, 1, 55, 70
4, 14375, Note_on_c, 1, 55, 0
4, 14376, Note_on_c, 1, 59, 70
4, 14399, Note_on_c, 1, 59, 0
4, 14400, Note_on_c, 1, 60, 70
4, 14423, Note_on_c, 1, 60, 0
4, 14424, Note_on_c, 1, 64, 70
4, 14447, Note_on_c, 1, 64, 0
4, 14448, Note_on_c, 1, 62, 70
4, 14471, Note_on_c, 1, 62, 0
4, 14472, Note_on_c, 1, 65, 70
4, 14495, Note_on_c, 1, 65, 0
4, 14496, Note_on_c, 1, 64, 70
4, 14519, Note_on_c, 1, 64, 0
4, 14520, Note_on_c, 1, 67, 70
4, 14543, Note_on_c, 1, 67, 0
4, 14544, Note_on_c, 1, 60, 70
4, 14567, Note_on_c, 1, 60, 0
4, 14568, Note_on_c, 1, 64, 70
4, 14591, Note_on_c, 1, 64, 0
4, 14592, Note_on_c, 1, 62, 70
4, 14615, Note_on_c, 1, 62, 0
4, 14616, Note_on_c, 1, 65, 70
4, 14639, Note_on_c, 1, 65, 0
4, 14640, Note_on_c, 1, 64, 70
4, 14663, Note_on_c, 1, 64, 0
4, 14664, Note_on_c, 1, 67, 70
4, 14687, Note_on_c, 1, 67, 0
4, 14688, Note_on_c, 1, 65, 70
4, 14711, Note_on_c, 1, 65, 0
4, 14712, Note_on_c, 1, 69, 70
4, 14735, Note_on_c, 1, 69, 0
4, 14736, Note_on_c, 1, 67, 70
4, 14759, Note_on_c, 1, 67, 0
4, 14760, Note_on_c, 1, 70, 70
4, 14783, Note_on_c, 1, 70, 0
4, 14784, Note_on_c, 1, 65, 70
4, 14807, Note_on_c, 1, 65, 0
4, 14808, Note_on_c, 1, 69, 70
4, 14831, Note_on_c, 1, 69, 0
4, 14832, Note_on_c, 1, 64, 70
4, 14855, Note_on_c, 1, 64, 0
4, 14856, Note_on_c, 1, 67, 70
4, 14879, Note_on_c, 1, 67, 0
4, 14880, Note_on_c, 1, 62, 70
4, 14903, Note_on_c, 1, 62, 0
4, 14904, Note_on_c, 1, 65, 70
4, 14927, Note_on_c, 1, 65, 0
4, 14928, Note_on_c, 1, 60, 70
4, 14951, Note_on_c, 1, 60, 0
4, 14952, Note_on_c, 1, 64, 70
4, 14975, Note_on_c, 1, 64, 0
4, 14976, Note_on_c, 1, 59, 70
4, 14999, Note_on_c, 1, 59, 0
4, 15000, Note_on_c, 1, 62, 70
4, 15023, Note_on_c, 1, 62, 0
4, 15024, Note_on_c, 1, 57, 70
4, 15047, Note_on_c, 1, 57, 0
4, 15048, Note_on_c, 1, 60, 71
4, 15071, Note_on_c, 1, 60, 0
4, 15072, Note_on_c, 1, 55, 71
4, 15095, Note_on_c, 1, 55, 0
4, 15096, Note_on_c, 1, 59, 72
4, 15119, Note_on_c, 1, 59, 0
4, 15120, Note_on_c, 1, 57, 72
4, 15143, Note_on_c, 1, 57, 0
4, 15144, Note_on_c, 1, 60, 72
4, 15167, Note_on_c, 1, 60, 0
4, 15168, Note_on_c, 1, 59, 73
4, 15191, Note_on_c, 1, 59, 0
4, 15192, Note_on_c, 1, 62, 73
4, 15215, Note_on_c, 1, 62, 0
4, 15216, Note_on_c, 1, 55, 74
4, 15239, Note_on_c, 1, 55, 0
4, 15240, Note_on_c, 1, 59, 74
4, 15263, Note_on_c, 1, 59, 0
4, 15264, Note_on_c, 1, 60, 75
4, 15309, Note_on_c, 1, 60, 0
4, 15312, Note_on_c, 1, 62, 75
4, 15357, Note_on_c, 1, 62, 0
4, 15360, Note_on_c, 1, 64, 75
4, 15405, Note_on_c, 1, 64, 0
4, 15408, Note_on_c, 1, 65, 75
4, 15453, Note_on_c, 1, 65, 0
4, 15456, Note_on_c, 1, 64, 75
4, 15501, Note_on_c, 1, 64, 0
4, 15504, Note_on_c, 1, 52, 75
4, 15549, Note_on_c, 1, 52, 0
4, 15552, Note_on_c, 1, 53, 70
4, 15641, Note_on_c, 1, 53, 0
4, 15648, Note_on_c, 1, 55, 70
4, 15737, Note_on_c, 1, 55, 0
4, 15744, Note_on_c, 1, 43, 70
4, 15833, Note_on_c, 1, 43, 0
4, 15840, Note_on_c, 1, 36, 70
4, 15850, Note_on_c, 1, 36, 0
4, 15864, Note_on_c, 1, 48, 70
4, 15887, Note_on_c, 1, 48, 0
4, 15888, Note_on_c, 1, 47, 70
4, 15911, Note_on_c, 1, 47, 0
4, 15912, Note_on_c, 1, 48, 70
4, 15935, Note_on_c, 1, 48, 0
4, 15936, Note_on_c, 1, 38, 70
4, 15946, Note_on_c, 1, 38, 0
4, 15960, Note_on_c, 1, 50, 70
4, 15983, Note_on_c, 1, 50, 0
4, 15984, Note_on_c, 1, 48, 70
4, 16007, Note_on_c, 1, 48, 0
4, 16008, Note_on_c, 1, 50, 70
4, 16031, Note_on_c, 1, 50, 0
4, 16032, Note_on_c, 1, 40, 70
4, 16042, Note_on_c, 1, 40, 0
4, 16056, Note_on_c, 1, 52, 70
4, 16079, Note_on_c, 1, 52, 0
4, 16080, Note_on_c, 1, 50, 70
4, 16103, Note_on_c, 1, 50, 0
4, 16104, Note_on_c, 1, 52, 70
4, 16127, Note_on_c, 1, 52, 0
4, 16128, Note_on_c, 1, 41, 70
4, 16138, Note_on_c, 1, 41, 0
4, 16152, Note_on_c, 1, 53, 70
4, 16175, Note_on_c, 1, 53, 0
4, 16176, Note_on_c, 1, 52, 70
4, 16199, Note_on_c, 1, 52, 0
4, 16200, Note_on_c, 1, 53, 70
4, 16223, Note_on_c, 1, 53, 0
4, 16224, Note_on_c, 1, 43, 70
4, 16234, Note_on_c, 1, 43, 0
4, 16248, Note_on_c, 1, 55, 70
4, 16271, Note_on_c, 1, 55, 0
4, 16272, Note_on_c, 1, 54, 70
4, 16295, Note_on_c, 1, 54, 0
4, 16296, Note_on_c, 1, 55, 70
4, 16319, Note_on_c, 1, 55, 0
4, 16320, Note_on_c, 1, 43, 70
4, 16330, Note_on_c, 1, 43, 0
4, 16344, Note_on_c, 1, 55, 70
4, 16367, Note_on_c, 1, 55, 0
4, 16368, Note_on_c, 1, 54, 70
4, 16391, Note_on_c, 1, 54, 0
4, 16392, Note_on_c, 1, 55, 70
4, 16415, Note_on_c, 1, 55, 0
4, 16416, Note_on_c, 1, 48, 70
4, 16505, Note_on_c, 1, 48, 0
4, 16728, Note_on_c, 1, 40, 70
4, 16728, Note_on_c, 1, 36, 70
4, 16751, Note_on_c, 1, 40, 0
4, 16751, Note_on_c, 1, 36, 0
4, 16752, Note_on_c, 1, 41, 70
4, 16752, Note_on_c, 1, 38, 70
4, 16775, Note_on_c, 1, 41, 0
4, 16775, Note_on_c, 1, 38, 0
4, 16776, Note_on_c, 1, 43, 71
4, 16776, Note_on_c, 1, 40, 71
4, 16799, Note_on_c, 1, 43, 0
4, 16799, Note_on_c, 1, 40, 0
4, 16800, Note_on_c, 1, 45, 72
4, 16800, Note_on_c, 1, 41, 72
4, 16823, Note_on_c, 1, 45, 0
4, 16823, Note_on_c, 1, 41, 0
4, 16824, Note_on_c, 1, 47, 72
4, 16824, Note_on_c, 1, 43, 72
4, 16847, Note_on_c, 1, 47, 0
4, 16847, Note_on_c, 1, 43, 0
4, 16848, Note_on_c, 1, 48, 73
4, 16848, Note_on_c, 1, 45, 73
4, 16871, Note_on_c, 1, 48, 0
4, 16871, Note_on_c, 1, 45, 0
4, 16872, Note_on_c, 1, 50, 74
4, 16872, Note_on_c, 1, 47, 74
4, 16895, Note_on_c, 1, 50, 0
4, 16895, Note_on_c, 1, 47, 0
4, 16896, Note_on_c, 1, 52, 75
4, 16896, Note_on_c, 1, 48, 75
4, 16916, Note_on_c, 1, 52, 0
4, 16916, Note_on_c, 1, 48, 0
4, 16944, Note_on_c, 1, 52, 75
4, 16944, Note_on_c, 1, 48, 75
4, 16964, Note_on_c, 1, 52, 0
4, 16964, Note_on_c, 1, 48, 0
4, 16992, Note_on_c, 1, 52, 75
4, 16992, Note_on_c, 1, 48, 75
4, 17081, Note_on_c, 1, 52, 0
4, 17081, Note_on_c, 1, 48, 0
4, 17232, Note_on_c, 1, 55, 75
4, 17232, Note_on_c, 1, 52, 75
4, 17277, Note_on_c, 1, 55, 0
4, 17277, Note_on_c, 1, 52, 0
4, 17280, Note_on_c, 1, 57, 75
4, 17280, Note_on_c, 1, 53, 75
4, 17376, Note_on_c, 1, 57, 0
4, 17376, Note_on_c, 1, 53, 0
4, 17376, Note_on_c, 1, 55, 73
4, 17465, Note_on_c, 1, 55, 0
4, 17472, Note_on_c, 1, 43, 71
4, 17561, Note_on_c, 1, 43, 0
4, 17568, Note_on_c, 1, 52, 75
4, 17568, Note_on_c, 1, 40, 75
4, 17833, Note_on_c, 1, 52, 0
4, 17833, Note_on_c, 1, 40, 0
4, 17856, Note_on_c, 1, 53, 75
4, 17952, Note_on_c, 1, 53, 0
4, 17952, Note_on_c, 1, 55, 75
4, 18041, Note_on_c, 1, 55, 0
4, 18048, Note_on_c, 1, 43, 75
4, 18137, Note_on_c, 1, 43, 0
4, 18168, Note_on_c, 1, 48, 75
4, 18191, Note_on_c, 1, 48, 0
4, 18192, Note_on_c, 1, 47, 72
4, 18215, Note_on_c, 1, 47, 0
4, 18216, Note_on_c, 1, 48, 70
4, 18239, Note_on_c, 1, 48, 0
4, 18240, Note_on_c, 1, 43, 67
4, 18263, Note_on_c, 1, 43, 0
4, 18264, Note_on_c, 1, 48, 65
4, 18287, Note_on_c, 1, 48, 0
4, 18288, Note_on_c, 1, 40, 62
4, 18298, Note_on_c, 1, 40, 0
4, 18312, Note_on_c, 1, 43, 60
4, 18322, Note_on_c, 1, 43, 0
4, 18336, Note_on_c, 1, 36, 58
4, 18430, Note_on_c, 1, 36, 0
4, 18432, Note_on_c, 1, 64, 70
4, 18432, Note_on_c, 1, 60, 70
4, 18697, Note_on_c, 1, 64, 0
4, 18697, Note_on_c, 1, 60, 0
4, 18744, Note_on_c, 1, 55, 70
4, 18767, Note_on_c, 1, 55, 0
4, 18768, Note_on_c, 1, 57, 70
4, 18791, Note_on_c, 1, 57, 0
4, 18792, Note_on_c, 1, 59, 70
4, 18815, Note_on_c, 1, 59, 0
4, 18816, Note_on_c, 1, 60, 70
4, 18839, Note_on_c, 1, 60, 0
4, 18840, Note_on_c, 1, 62, 71
4, 18863, Note_on_c, 1, 62, 0
4, 18864, Note_on_c, 1, 64, 72
4, 18887, Note_on_c, 1, 64, 0
4, 18888, Note_on_c, 1, 65, 73
4, 18911, Note_on_c, 1, 65, 0
4, 18912, Note_on_c, 1, 67, 75
4, 18935, Note_on_c, 1, 67, 0
4, 18936, Note_on_c, 1, 69, 73
4, 18959, Note_on_c, 1, 69, 0
4, 18960, Note_on_c, 1, 67, 72
4, 18983, Note_on_c, 1, 67, 0
4, 18984, Note_on_c, 1, 65, 71
4, 19007, Note_on_c, 1, 65, 0
4, 19008, Note_on_c, 1, 64, 70
4, 19273, Note_on_c, 1, 64, 0
4, 19320, Note_on_c, 1, 57, 70
4, 19343, Note_on_c, 1, 57, 0
4, 19344, Note_on_c, 1, 59, 70
4, 19367, Note_on_c, 1, 59, 0
4, 19368, Note_on_c, 1, 61, 70
4, 19391, Note_on_c, 1, 61, 0
4, 19392, Note_on_c, 1, 62, 70
4, 19415, Note_on_c, 1, 62, 0
4, 19416, Note_on_c, 1, 64, 71
4, 19439, Note_on_c, 1, 64, 0
4, 19440, Note_on_c, 1, 65, 72
4, 19463, Note_on_c, 1, 65, 0
4, 19464, Note_on_c, 1, 67, 73
4, 19487, Note_on_c, 1, 67, 0
4, 19488, Note_on_c, 1, 65, 75
4, 19511, Note_on_c, 1, 65, 0
4, 19512, Note_on_c, 1, 64, 73
4, 19535, Note_on_c, 1, 64, 0
4, 19536, Note_on_c, 1, 62, 72
4, 19559, Note_on_c, 1, 62, 0
4, 19560, Note_on_c, 1, 60, 71
4, 19583, Note_on_c, 1, 60, 0
4, 19584, Note_on_c, 1, 59, 70
4, 19776, Note_on_c, 1, 59, 0
4, 19776, Note_on_c, 1, 55, 70
4, 19865, Note_on_c, 1, 55, 0
4, 19896, Note_on_c, 1, 57, 70
4, 19919, Note_on_c, 1, 57, 0
4, 19920, Note_on_c, 1, 59, 70
4, 19943, Note_on_c, 1, 59, 0
4, 19944, Note_on_c, 1, 60, 70
4, 19967, Note_on_c, 1, 60, 0
4, 19968, Note_on_c, 1, 62, 70
4, 19991, Note_on_c, 1, 62, 0
4, 19992, Note_on_c, 1, 64, 71
4, 20015, Note_on_c, 1, 64, 0
4, 20016, Note_on_c, 1, 65, 73
4, 20039, Note_on_c, 1, 65, 0
4, 20040, Note_on_c, 1, 67, 75
4, 20063, Note_on_c, 1, 67, 0
4, 20064, Note_on_c, 1, 69, 74
4, 20087, Note_on_c, 1, 69, 0
4, 20088, Note_on_c, 1, 67, 73
4, 20111, Note_on_c, 1, 67, 0
4, 20112, Note_on_c, 1, 65, 72
4, 20135, Note_on_c, 1, 65, 0
4, 20136, Note_on_c, 1, 64, 71
4, 20159, Note_on_c, 1, 64, 0
4, 20160, Note_on_c, 1, 65, 70
4, 20183, Note_on_c, 1, 65, 0
4, 20184, Note_on_c, 1, 69, 70
4, 20207, Note_on_c, 1, 69, 0
4, 20208, Note_on_c, 1, 67, 70
4, 20231, Note_on_c, 1, 67, 0
4, 20232, Note_on_c, 1, 65, 70
4, 20255, Note_on_c, 1, 65, 0
4, 20256, Note_on_c, 1, 67, 70
4, 20345, Note_on_c, 1, 67, 0
4, 20352, Note_on_c, 1, 55, 70
4, 20441, Note_on_c, 1, 55, 0
4, 20472, Note_on_c, 1, 48, 58
4, 20495, Note_on_c, 1, 48, 0
4, 20496, Note_on_c, 1, 50, 59
4, 20519, Note_on_c, 1, 50, 0
4, 20520, Note_on_c, 1, 51, 61
4, 20543, Note_on_c, 1, 51, 0
4, 20544, Note_on_c, 1, 53, 63
4, 20567, Note_on_c, 1, 53, 0
4, 20568, Note_on_c, 1, 55, 64
4, 20591, Note_on_c, 1, 55, 0
4, 20592, Note_on_c, 1, 57, 66
4, 20615, Note_on_c, 1, 57, 0
4, 20616, Note_on_c, 1, 59, 68
4, 20639, Note_on_c, 1, 59, 0
4, 20640, Note_on_c, 1, 60, 69
4, 20663, Note_on_c, 1, 60, 0
4, 20664, Note_on_c, 1, 59, 71
4, 20687, Note_on_c, 1, 59, 0
4, 20688, Note_on_c, 1, 62, 73
4, 20711, Note_on_c, 1, 62, 0
4, 20712, Note_on_c, 1, 60, 75
4, 20735, Note_on_c, 1, 60, 0
4, 20736, Note_on_c, 1, 63, 73
4, 20928, Note_on_c, 1, 63, 0
4, 20928, Note_on_c, 1, 51, 63
4, 21017, Note_on_c, 1, 51, 0
4, 21024, Note_on_c, 1, 50, 58
4, 21047, Note_on_c, 1, 50, 0
4, 21048, Note_on_c, 1, 54, 58
4, 21071, Note_on_c, 1, 54, 0
4, 21072, Note_on_c, 1, 52, 59
4, 21095, Note_on_c, 1, 52, 0
4, 21096, Note_on_c, 1, 55, 60
4, 21119, Note_on_c, 1, 55, 0
4, 21120, Note_on_c, 1, 54, 60
4, 21143, Note_on_c, 1, 54, 0
4, 21144, Note_on_c, 1, 57, 61
4, 21167, Note_on_c, 1, 57, 0
4, 21168, Note_on_c, 1, 50, 62
4, 21191, Note_on_c, 1, 50, 0
4, 21192, Note_on_c, 1, 54, 63
4, 21215, Note_on_c, 1, 54, 0
4, 21216, Note_on_c, 1, 52, 63
4, 21239, Note_on_c, 1, 52, 0
4, 21240, Note_on_c, 1, 55, 63
4, 21263, Note_on_c, 1, 55, 0
4, 21264, Note_on_c, 1, 54, 63
4, 21287, Note_on_c, 1, 54, 0
4, 21288, Note_on_c, 1, 57, 63
4, 21311, Note_on_c, 1, 57, 0
4, 21312, Note_on_c, 1, 55, 64
4, 21335, Note_on_c, 1, 55, 0
4, 21336, Note_on_c, 1, 58, 65
4, 21359, Note_on_c, 1, 58, 0
4, 21360, Note_on_c, 1, 57, 66
4, 21383, Note_on_c, 1, 57, 0
4, 21384, Note_on_c, 1, 60, 67
4, 21407, Note_on_c, 1, 60, 0
4, 21408, Note_on_c, 1, 58, 68
4, 21431, Note_on_c, 1, 58, 0
4, 21432, Note_on_c, 1, 62, 69
4, 21455, Note_on_c, 1, 62, 0
4, 21456, Note_on_c, 1, 55, 70
4, 21479, Note_on_c, 1, 55, 0
4, 21480, Note_on_c, 1, 59, 70
4, 21503, Note_on_c, 1, 59, 0
4, 21504, Note_on_c, 1, 57, 70
4, 21527, Note_on_c, 1, 57, 0
4, 21528, Note_on_c, 1, 60, 70
4, 21551, Note_on_c, 1, 60, 0
4, 21552, Note_on_c, 1, 59, 71
4, 21575, Note_on_c, 1, 59, 0
4, 21576, Note_on_c, 1, 62, 71
4, 21599, Note_on_c, 1, 62, 0
4, 21600, Note_on_c, 1, 60, 72
4, 21623, Note_on_c, 1, 60, 0
4, 21624, Note_on_c, 1, 64, 72
4, 21647, Note_on_c, 1, 64, 0
4, 21648, Note_on_c, 1, 62, 73
4, 21671, Note_on_c, 1, 62, 0
4, 21672, Note_on_c, 1, 65, 73
4, 21695, Note_on_c, 1, 65, 0
4, 21696, Note_on_c, 1, 64, 74
4, 21719, Note_on_c, 1, 64, 0
4, 21720, Note_on_c, 1, 67, 74
4, 21743, Note_on_c, 1, 67, 0
4, 21744, Note_on_c, 1, 48, 75
4, 21767, Note_on_c, 1, 48, 0
4, 21768, Note_on_c, 1, 52, 75
4, 21791, Note_on_c, 1, 52, 0
4, 21792, Note_on_c, 1, 50, 75
4, 21815, Note_on_c, 1, 50, 0
4, 21816, Note_on_c, 1, 53, 75
4, 21839, Note_on_c, 1, 53, 0
4, 21840, Note_on_c, 1, 52, 75
4, 21863, Note_on_c, 1, 52, 0
4, 21864, Note_on_c, 1, 55, 75
4, 21887, Note_on_c, 1, 55, 0
4, 21888, Note_on_c, 1, 53, 75
4, 21911, Note_on_c, 1, 53, 0
4, 21912, Note_on_c, 1, 57, 75
4, 21935, Note_on_c, 1, 57, 0
4, 21936, Note_on_c, 1, 55, 75
4, 21959, Note_on_c, 1, 55, 0
4, 21960, Note_on_c, 1, 58, 75
4, 21983, Note_on_c, 1, 58, 0
4, 21984, Note_on_c, 1, 57, 75
4, 22007, Note_on_c, 1, 57, 0
4, 22008, Note_on_c, 1, 60, 75
4, 22031, Note_on_c, 1, 60, 0
4, 22032, Note_on_c, 1, 53, 75
4, 22055, Note_on_c, 1, 53, 0
4, 22056, Note_on_c, 1, 57, 75
4, 22079, Note_on_c, 1, 57, 0
4, 22080, Note_on_c, 1, 55, 75
4, 22103, Note_on_c, 1, 55, 0
4, 22104, Note_on_c, 1, 58, 75
4, 22127, Note_on_c, 1, 58, 0
4, 22128, Note_on_c, 1, 57, 75
4, 22151, Note_on_c, 1, 57, 0
4, 22152, Note_on_c, 1, 60, 75
4, 22175, Note_on_c, 1, 60, 0
4, 22176, Note_on_c, 1, 58, 75
4, 22199, Note_on_c, 1, 58, 0
4, 22200, Note_on_c, 1, 62, 75
4, 22223, Note_on_c, 1, 62, 0
4, 22224, Note_on_c, 1, 60, 75
4, 22247, Note_on_c, 1, 60, 0
4, 22248, Note_on_c, 1, 63, 75
4, 22271, Note_on_c, 1, 63, 0
4, 22272, Note_on_c, 1, 62, 75
4, 22295, Note_on_c, 1, 62, 0
4, 22296, Note_on_c, 1, 65, 75
4, 22319, Note_on_c, 1, 65, 0
4, 22320, Note_on_c, 1, 55, 75
4, 22343, Note_on_c, 1, 55, 0
4, 22344, Note_on_c, 1, 59, 75
4, 22367, Note_on_c, 1, 59, 0
4, 22368, Note_on_c, 1, 57, 75
4, 22391, Note_on_c, 1, 57, 0
4, 22392, Note_on_c, 1, 60, 75
4, 22415, Note_on_c, 1, 60, 0
4, 22416, Note_on_c, 1, 59, 75
4, 22439, Note_on_c, 1, 59, 0
4, 22440, Note_on_c, 1, 62, 75
4, 22463, Note_on_c, 1, 62, 0
4, 22464, Note_on_c, 1, 60, 75
4, 22487, Note_on_c, 1, 60, 0
4, 22488, Note_on_c, 1, 64, 75
4, 22511, Note_on_c, 1, 64, 0
4, 22512, Note_on_c, 1, 62, 75
4, 22535, Note_on_c, 1, 62, 0
4, 22536, Note_on_c, 1, 65, 75
4, 22559, Note_on_c, 1, 65, 0
4, 22560, Note_on_c, 1, 64, 75
4, 22583, Note_on_c, 1, 64, 0
4, 22584, Note_on_c, 1, 67, 75
4, 22607, Note_on_c, 1, 67, 0
4, 22608, Note_on_c, 1, 57, 75
4, 22631, Note_on_c, 1, 57, 0
4, 22632, Note_on_c, 1, 61, 75
4, 22655, Note_on_c, 1, 61, 0
4, 22656, Note_on_c, 1, 59, 75
4, 22679, Note_on_c, 1, 59, 0
4, 22680, Note_on_c, 1, 62, 75
4, 22703, Note_on_c, 1, 62, 0
4, 22704, Note_on_c, 1, 61, 75
4, 22727, Note_on_c, 1, 61, 0
4, 22728, Note_on_c, 1, 64, 75
4, 22751, Note_on_c, 1, 64, 0
4, 22752, Note_on_c, 1, 62, 75
4, 22775, Note_on_c, 1, 62, 0
4, 22776, Note_on_c, 1, 65, 75
4, 22799, Note_on_c, 1, 65, 0
4, 22800, Note_on_c, 1, 64, 75
4, 22823, Note_on_c, 1, 64, 0
4, 22824, Note_on_c, 1, 67, 75
4, 22847, Note_on_c, 1, 67, 0
4, 22848, Note_on_c, 1, 65, 75
4, 22871, Note_on_c, 1, 65, 0
4, 22872, Note_on_c, 1, 69, 75
4, 22895, Note_on_c, 1, 69, 0
4, 22896, Note_on_c, 1, 62, 75
4, 22919, Note_on_c, 1, 62, 0
4, 22920, Note_on_c, 1, 65, 75
4, 22943, Note_on_c, 1, 65, 0
4, 22944, Note_on_c, 1, 64, 75
4, 22967, Note_on_c, 1, 64, 0
4, 22968, Note_on_c, 1, 67, 75
4, 22991, Note_on_c, 1, 67, 0
4, 22992, Note_on_c, 1, 65, 75
4, 23015, Note_on_c, 1, 65, 0
4, 23016, Note_on_c, 1, 69, 75
4, 23039, Note_on_c, 1, 69, 0
4, 23040, Note_on_c, 1, 67, 75
4, 23085, Note_on_c, 1, 67, 0
4, 23088, Note_on_c, 1, 69, 75
4, 23133, Note_on_c, 1, 69, 0
4, 23136, Note_on_c, 1, 70, 75
4, 23181, Note_on_c, 1, 70, 0
4, 23184, Note_on_c, 1, 72, 75
4, 23229, Note_on_c, 1, 72, 0
4, 23232, Note_on_c, 1, 70, 75
4, 23252, Note_on_c, 1, 70, 0
4, 23280, Note_on_c, 1, 59, 75
4, 23325, Note_on_c, 1, 59, 0
4, 23328, Note_on_c, 1, 60, 75
4, 23373, Note_on_c, 1, 60, 0
4, 23376, Note_on_c, 1, 62, 75
4, 23421, Note_on_c, 1, 62, 0
4, 23424, Note_on_c, 1, 64, 75
4, 23469, Note_on_c, 1, 64, 0
4, 23472, Note_on_c, 1, 65, 75
4, 23517, Note_on_c, 1, 65, 0
4, 23520, Note_on_c, 1, 64, 75
4, 23565, Note_on_c, 1, 64, 0
4, 23568, Note_on_c, 1, 60, 75
4, 23613, Note_on_c, 1, 60, 0
4, 23616, Note_on_c, 1, 65, 75
4, 23661, Note_on_c, 1, 65, 0
4, 23664, Note_on_c, 1, 67, 75
4, 23709, Note_on_c, 1, 67, 0
4, 23712, Note_on_c, 1, 69, 75
4, 23757, Note_on_c, 1, 69, 0
4, 23760, Note_on_c, 1, 70, 75
4, 23805, Note_on_c, 1, 70, 0
4, 23808, Note_on_c, 1, 69, 75
4, 23853, Note_on_c, 1, 69, 0
4, 23856, Note_on_c, 1, 57, 75
4, 23901, Note_on_c, 1, 57, 0
4, 23904, Note_on_c, 1, 58, 75
4, 23949, Note_on_c, 1, 58, 0
4, 23952, Note_on_c, 1, 60, 75
4, 23997, Note_on_c, 1, 60, 0
4, 24000, Note_on_c, 1, 62, 75
4, 24045, Note_on_c, 1, 62, 0
4, 24048, Note_on_c, 1, 63, 75
4, 24093, Note_on_c, 1, 63, 0
4, 24096, Note_on_c, 1, 62, 75
4, 24141, Note_on_c, 1, 62, 0
4, 24144, Note_on_c, 1, 57, 75
4, 24189, Note_on_c, 1, 57, 0
4, 24192, Note_on_c, 1, 58, 75
4, 24237, Note_on_c, 1, 58, 0
4, 24240, Note_on_c, 1, 60, 72
4, 24285, Note_on_c, 1, 60, 0
4, 24288, Note_on_c, 1, 62, 70
4, 24333, Note_on_c, 1, 62, 0
4, 24336, Note_on_c, 1, 60, 68
4, 24381, Note_on_c, 1, 60, 0
4, 24384, Note_on_c, 1, 58, 66
4, 24429, Note_on_c, 1, 58, 0
4, 24432, Note_on_c, 1, 59, 64
4, 24477, Note_on_c, 1, 59, 0
4, 24480, Note_on_c, 1, 60, 62
4, 24569, Note_on_c, 1, 60, 0
4, 24576, Note_on_c, 1, 60, 58
4, 24599, Note_on_c, 1, 60, 0
4, 24600, Note_on_c, 1, 64, 59
4, 24623, Note_on_c, 1, 64, 0
4, 24624, Note_on_c, 1, 58, 61
4, 24647, Note_on_c, 1, 58, 0
4, 24648, Note_on_c, 1, 62, 62
4, 24671, Note_on_c, 1, 62, 0
4, 24672, Note_on_c, 1, 57, 64
4, 24695, Note_on_c, 1, 57, 0
4, 24696, Note_on_c, 1, 60, 65
4, 24719, Note_on_c, 1, 60, 0
4, 24720, Note_on_c, 1, 55, 67
4, 24743, Note_on_c, 1, 55, 0
4, 24744, Note_on_c, 1, 58, 68
4, 24767, Note_on_c, 1, 58, 0
4, 24768, Note_on_c, 1, 57, 70
4, 24768, Note_on_c, 1, 53, 70
4, 24945, Note_on_c, 1, 57, 0
4, 24945, Note_on_c, 1, 53, 0
4, 25080, Note_on_c, 1, 48, 70
4, 25103, Note_on_c, 1, 48, 0
4, 25104, Note_on_c, 1, 50, 71
4, 25127, Note_on_c, 1, 50, 0
4, 25128, Note_on_c, 1, 52, 72
4, 25151, Note_on_c, 1, 52, 0
4, 25152, Note_on_c, 1, 53, 73
4, 25175, Note_on_c, 1, 53, 0
4, 25176, Note_on_c, 1, 55, 74
4, 25199, Note_on_c, 1, 55, 0
4, 25200, Note_on_c, 1, 57, 75
4, 25223, Note_on_c, 1, 57, 0
4, 25224, Note_on_c, 1, 58, 74
4, 25247, Note_on_c, 1, 58, 0
4, 25248, Note_on_c, 1, 60, 73
4, 25271, Note_on_c, 1, 60, 0
4, 25272, Note_on_c, 1, 62, 72
4, 25295, Note_on_c, 1, 62, 0
4, 25296, Note_on_c, 1, 60, 71
4, 25319, Note_on_c, 1, 60, 0
4, 25320, Note_on_c, 1, 58, 70
4, 25343, Note_on_c, 1, 58, 0
4, 25344, Note_on_c, 1, 57, 70
4, 25655, Note_on_c, 1, 57, 0
4, 25656, Note_on_c, 1, 50, 70
4, 25679, Note_on_c, 1, 50, 0
4, 25680, Note_on_c, 1, 52, 70
4, 25703, Note_on_c, 1, 52, 0
4, 25704, Note_on_c, 1, 54, 70
4, 25727, Note_on_c, 1, 54, 0
4, 25728, Note_on_c, 1, 55, 70
4, 25751, Note_on_c, 1, 55, 0
4, 25752, Note_on_c, 1, 57, 71
4, 25775, Note_on_c, 1, 57, 0
4, 25776, Note_on_c, 1, 58, 73
4, 25799, Note_on_c, 1, 58, 0
4, 25800, Note_on_c, 1, 60, 75
4, 25823, Note_on_c, 1, 60, 0
4, 25824, Note_on_c, 1, 58, 74
4, 25847, Note_on_c, 1, 58, 0
4, 25848, Note_on_c, 1, 57, 73
4, 25871, Note_on_c, 1, 57, 0
4, 25872, Note_on_c, 1, 55, 72
4, 25895, Note_on_c, 1, 55, 0
4, 25896, Note_on_c, 1, 53, 71
4, 25919, Note_on_c, 1, 53, 0
4, 25920, Note_on_c, 1, 52, 70
4, 26112, Note_on_c, 1, 52, 0
4, 26112, Note_on_c, 1, 48, 70
4, 26201, Note_on_c, 1, 48, 0
4, 26232, Note_on_c, 1, 50, 70
4, 26255, Note_on_c, 1, 50, 0
4, 26256, Note_on_c, 1, 52, 70
4, 26279, Note_on_c, 1, 52, 0
4, 26280, Note_on_c, 1, 53, 70
4, 26303, Note_on_c, 1, 53, 0
4, 26304, Note_on_c, 1, 55, 70
4, 26327, Note_on_c, 1, 55, 0
4, 26328, Note_on_c, 1, 57, 71
4, 26351, Note_on_c, 1, 57, 0
4, 26352, Note_on_c, 1, 58, 72
4, 26375, Note_on_c, 1, 58, 0
4, 26376, Note_on_c, 1, 60, 73
4, 26399, Note_on_c, 1, 60, 0
4, 26400, Note_on_c, 1, 62, 75
4, 26423, Note_on_c, 1, 62, 0
4, 26424, Note_on_c, 1, 60, 73
4, 26447, Note_on_c, 1, 60, 0
4, 26448, Note_on_c, 1, 58, 72
4, 26471, Note_on_c, 1, 58, 0
4, 26472, Note_on_c, 1, 57, 71
4, 26495, Note_on_c, 1, 57, 0
4, 26496, Note_on_c, 1, 58, 70
4, 26519, Note_on_c, 1, 58, 0
4, 26520, Note_on_c, 1, 62, 70
4, 26543, Note_on_c, 1, 62, 0
4, 26544, Note_on_c, 1, 60, 70
4, 26567, Note_on_c, 1, 60, 0
4, 26568, Note_on_c, 1, 58, 70
4, 26591, Note_on_c, 1, 58, 0
4, 26592, Note_on_c, 1, 60, 70
4, 26681, Note_on_c, 1, 60, 0
4, 26688, Note_on_c, 1, 48, 70
4, 26777, Note_on_c, 1, 48, 0
4, 26808, Note_on_c, 1, 41, 70
4, 26831, Note_on_c, 1, 41, 0
4, 26832, Note_on_c, 1, 43, 70
4, 26855, Note_on_c, 1, 43, 0
4, 26856, Note_on_c, 1, 45, 70
4, 26879, Note_on_c, 1, 45, 0
4, 26880, Note_on_c, 1, 46, 71
4, 26903, Note_on_c, 1, 46, 0
4, 26904, Note_on_c, 1, 48, 71
4, 26927, Note_on_c, 1, 48, 0
4, 26928, Note_on_c, 1, 50, 72
4, 26951, Note_on_c, 1, 50, 0
4, 26952, Note_on_c, 1, 52, 72
4, 26975, Note_on_c, 1, 52, 0
4, 26976, Note_on_c, 1, 53, 73
4, 26999, Note_on_c, 1, 53, 0
4, 27000, Note_on_c, 1, 52, 73
4, 27023, Note_on_c, 1, 52, 0
4, 27024, Note_on_c, 1, 55, 74
4, 27047, Note_on_c, 1, 55, 0
4, 27048, Note_on_c, 1, 53, 74
4, 27071, Note_on_c, 1, 53, 0
4, 27072, Note_on_c, 1, 57, 75
4, 27161, Note_on_c, 1, 57, 0
4, 27384, Note_on_c, 1, 50, 70
4, 27407, Note_on_c, 1, 50, 0
4, 27408, Note_on_c, 1, 55, 72
4, 27431, Note_on_c, 1, 55, 0
4, 27432, Note_on_c, 1, 54, 74
4, 27455, Note_on_c, 1, 54, 0
4, 27456, Note_on_c, 1, 57, 76
4, 27479, Note_on_c, 1, 57, 0
4, 27480, Note_on_c, 1, 55, 78
4, 27503, Note_on_c, 1, 55, 0
4, 27504, Note_on_c, 1, 58, 81
4, 27527, Note_on_c, 1, 58, 0
4, 27528, Note_on_c, 1, 57, 80
4, 27551, Note_on_c, 1, 57, 0
4, 27552, Note_on_c, 1, 55, 79
4, 27575, Note_on_c, 1, 55, 0
4, 27576, Note_on_c, 1, 53, 78
4, 27599, Note_on_c, 1, 53, 0
4, 27600, Note_on_c, 1, 52, 77
4, 27623, Note_on_c, 1, 52, 0
4, 27624, Note_on_c, 1, 50, 76
4, 27647, Note_on_c, 1, 50, 0
4, 27648, Note_on_c, 1, 48, 75
4, 27737, Note_on_c, 1, 48, 0
4, 27960, Note_on_c, 1, 48, 70
4, 27983, Note_on_c, 1, 48, 0
4, 27984, Note_on_c, 1, 53, 71
4, 28007, Note_on_c, 1, 53, 0
4, 28008, Note_on_c, 1, 52, 72
4, 28031, Note_on_c, 1, 52, 0
4, 28032, Note_on_c, 1, 55, 73
4, 28055, Note_on_c, 1, 55, 0
4, 28056, Note_on_c, 1, 53, 74
4, 28079, Note_on_c, 1, 53, 0
4, 28080, Note_on_c, 1, 57, 75
4, 28103, Note_on_c, 1, 57, 0
4, 28104, Note_on_c, 1, 55, 74
4, 28127, Note_on_c, 1, 55, 0
4, 28128, Note_on_c, 1, 53, 73
4, 28151, Note_on_c, 1, 53, 0
4, 28152, Note_on_c, 1, 52, 72
4, 28175, Note_on_c, 1, 52, 0
4, 28176, Note_on_c, 1, 50, 71
4, 28199, Note_on_c, 1, 50, 0
4, 28200, Note_on_c, 1, 48, 70
4, 28223, Note_on_c, 1, 48, 0
4, 28224, Note_on_c, 1, 46, 70
4, 28461, Note_on_c, 1, 46, 0
4, 28464, Note_on_c, 1, 47, 70
4, 28509, Note_on_c, 1, 47, 0
4, 28512, Note_on_c, 1, 48, 70
4, 28535, Note_on_c, 1, 48, 0
4, 28536, Note_on_c, 1, 52, 70
4, 28559, Note_on_c, 1, 52, 0
4, 28560, Note_on_c, 1, 50, 70
4, 28583, Note_on_c, 1, 50, 0
4, 28584, Note_on_c, 1, 53, 70
4, 28607, Note_on_c, 1, 53, 0
4, 28608, Note_on_c, 1, 52, 70
4, 28631, Note_on_c, 1, 52, 0
4, 28632, Note_on_c, 1, 55, 70
4, 28655, Note_on_c, 1, 55, 0
4, 28656, Note_on_c, 1, 53, 70
4, 28679, Note_on_c, 1, 53, 0
4, 28680, Note_on_c, 1, 57, 70
4, 28703, Note_on_c, 1, 57, 0
4, 28704, Note_on_c, 1, 55, 70
4, 28727, Note_on_c, 1, 55, 0
4, 28728, Note_on_c, 1, 58, 70
4, 28751, Note_on_c, 1, 58, 0
4, 28752, Note_on_c, 1, 52, 70
4, 28775, Note_on_c, 1, 52, 0
4, 28776, Note_on_c, 1, 55, 70
4, 28799, Note_on_c, 1, 55, 0
4, 28800, Note_on_c, 1, 53, 70
4, 28823, Note_on_c, 1, 53, 0
4, 28824, Note_on_c, 1, 57, 70
4, 28847, Note_on_c, 1, 57, 0
4, 28848, Note_on_c, 1, 55, 70
4, 28871, Note_on_c, 1, 55, 0
4, 28872, Note_on_c, 1, 58, 70
4, 28895, Note_on_c, 1, 58, 0
4, 28896, Note_on_c, 1, 57, 70
4, 28919, Note_on_c, 1, 57, 0
4, 28920, Note_on_c, 1, 60, 70
4, 28943, Note_on_c, 1, 60, 0
4, 28944, Note_on_c, 1, 58, 70
4, 28967, Note_on_c, 1, 58, 0
4, 28968, Note_on_c, 1, 62, 70
4, 28991, Note_on_c, 1, 62, 0
4, 28992, Note_on_c, 1, 60, 70
4, 29015, Note_on_c, 1, 60, 0
4, 29016, Note_on_c, 1, 63, 67
4, 29039, Note_on_c, 1, 63, 0
4, 29040, Note_on_c, 1, 57, 64
4, 29063, Note_on_c, 1, 57, 0
4, 29064, Note_on_c, 1, 60, 61
4, 29087, Note_on_c, 1, 60, 0
4, 29088, Note_on_c, 1, 58, 58
4, 29111, Note_on_c, 1, 58, 0
4, 29112, Note_on_c, 1, 62, 58
4, 29135, Note_on_c, 1, 62, 0
4, 29136, Note_on_c, 1, 60, 58
4, 29159, Note_on_c, 1, 60, 0
4, 29160, Note_on_c, 1, 62, 59
4, 29183, Note_on_c, 1, 62, 0
4, 29184, Note_on_c, 1, 58, 59
4, 29207, Note_on_c, 1, 58, 0
4, 29208, Note_on_c, 1, 62, 60
4, 29231, Note_on_c, 1, 62, 0
4, 29232, Note_on_c, 1, 54, 60
4, 29255, Note_on_c, 1, 54, 0
4, 29256, Note_on_c, 1, 62, 61
4, 29279, Note_on_c, 1, 62, 0
4, 29280, Note_on_c, 1, 55, 61
4, 29303, Note_on_c, 1, 55, 0
4, 29304, Note_on_c, 1, 62, 62
4, 29327, Note_on_c, 1, 62, 0
4, 29328, Note_on_c, 1, 58, 62
4, 29351, Note_on_c, 1, 58, 0
4, 29352, Note_on_c, 1, 62, 63
4, 29375, Note_on_c, 1, 62, 0
4, 29376, Note_on_c, 1, 57, 63
4, 29399, Note_on_c, 1, 57, 0
4, 29400, Note_on_c, 1, 60, 63
4, 29423, Note_on_c, 1, 60, 0
4, 29424, Note_on_c, 1, 58, 63
4, 29447, Note_on_c, 1, 58, 0
4, 29448, Note_on_c, 1, 60, 63
4, 29471, Note_on_c, 1, 60, 0
4, 29472, Note_on_c, 1, 57, 64
4, 29495, Note_on_c, 1, 57, 0
4, 29496, Note_on_c, 1, 60, 65
4, 29519, Note_on_c, 1, 60, 0
4, 29520, Note_on_c, 1, 52, 65
4, 29543, Note_on_c, 1, 52, 0
4, 29544, Note_on_c, 1, 60, 66
4, 29567, Note_on_c, 1, 60, 0
4, 29568, Note_on_c, 1, 53, 67
4, 29591, Note_on_c, 1, 53, 0
4, 29592, Note_on_c, 1, 60, 67
4, 29615, Note_on_c, 1, 60, 0
4, 29616, Note_on_c, 1, 57, 68
4, 29639, Note_on_c, 1, 57, 0
4, 29640, Note_on_c, 1, 60, 69
4, 29663, Note_on_c, 1, 60, 0
4, 29664, Note_on_c, 1, 55, 70
4, 29687, Note_on_c, 1, 55, 0
4, 29688, Note_on_c, 1, 58, 70
4, 29711, Note_on_c, 1, 58, 0
4, 29712, Note_on_c, 1, 57, 70
4, 29735, Note_on_c, 1, 57, 0
4, 29736, Note_on_c, 1, 60, 70
4, 29759, Note_on_c, 1, 60, 0
4, 29760, Note_on_c, 1, 58, 70
4, 29783, Note_on_c, 1, 58, 0
4, 29784, Note_on_c, 1, 62, 70
4, 29807, Note_on_c, 1, 62, 0
4, 29808, Note_on_c, 1, 59, 70
4, 29831, Note_on_c, 1, 59, 0
4, 29832, Note_on_c, 1, 62, 70
4, 29855, Note_on_c, 1, 62, 0
4, 29856, Note_on_c, 1, 60, 70
4, 29879, Note_on_c, 1, 60, 0
4, 29880, Note_on_c, 1, 64, 70
4, 29903, Note_on_c, 1, 64, 0
4, 29904, Note_on_c, 1, 62, 70
4, 29927, Note_on_c, 1, 62, 0
4, 29928, Note_on_c, 1, 65, 70
4, 29951, Note_on_c, 1, 65, 0
4, 29952, Note_on_c, 1, 64, 70
4, 29975, Note_on_c, 1, 64, 0
4, 29976, Note_on_c, 1, 67, 70
4, 29999, Note_on_c, 1, 67, 0
4, 30000, Note_on_c, 1, 62, 70
4, 30023, Note_on_c, 1, 62, 0
4, 30024, Note_on_c, 1, 65, 70
4, 30047, Note_on_c, 1, 65, 0
4, 30048, Note_on_c, 1, 60, 70
4, 30071, Note_on_c, 1, 60, 0
4, 30072, Note_on_c, 1, 64, 70
4, 30095, Note_on_c, 1, 64, 0
4, 30096, Note_on_c, 1, 62, 70
4, 30119, Note_on_c, 1, 62, 0
4, 30120, Note_on_c, 1, 65, 70
4, 30143, Note_on_c, 1, 65, 0
4, 30144, Note_on_c, 1, 64, 70
4, 30167, Note_on_c, 1, 64, 0
4, 30168, Note_on_c, 1, 67, 70
4, 30191, Note_on_c, 1, 67, 0
4, 30192, Note_on_c, 1, 60, 70
4, 30215, Note_on_c, 1, 60, 0
4, 30216, Note_on_c, 1, 64, 70
4, 30239, Note_on_c, 1, 64, 0
4, 30240, Note_on_c, 1, 53, 70
4, 30263, Note_on_c, 1, 53, 0
4, 30264, Note_on_c, 1, 57, 70
4, 30287, Note_on_c, 1, 57, 0
4, 30288, Note_on_c, 1, 55, 70
4, 30311, Note_on_c, 1, 55, 0
4, 30312, Note_on_c, 1, 58, 70
4, 30335, Note_on_c, 1, 58, 0
4, 30336, Note_on_c, 1, 57, 70
4, 30359, Note_on_c, 1, 57, 0
4, 30360, Note_on_c, 1, 60, 70
4, 30383, Note_on_c, 1, 60, 0
4, 30384, Note_on_c, 1, 53, 70
4, 30407, Note_on_c, 1, 53, 0
4, 30408, Note_on_c, 1, 57, 70
4, 30431, Note_on_c, 1, 57, 0
4, 30432, Note_on_c, 1, 55, 70
4, 30455, Note_on_c, 1, 55, 0
4, 30456, Note_on_c, 1, 58, 70
4, 30479, Note_on_c, 1, 58, 0
4, 30480, Note_on_c, 1, 57, 70
4, 30503, Note_on_c, 1, 57, 0
4, 30504, Note_on_c, 1, 60, 70
4, 30527, Note_on_c, 1, 60, 0
4, 30528, Note_on_c, 1, 58, 70
4, 30551, Note_on_c, 1, 58, 0
4, 30552, Note_on_c, 1, 62, 70
4, 30575, Note_on_c, 1, 62, 0
4, 30576, Note_on_c, 1, 60, 70
4, 30599, Note_on_c, 1, 60, 0
4, 30600, Note_on_c, 1, 63, 70
4, 30623, Note_on_c, 1, 63, 0
4, 30624, Note_on_c, 1, 58, 70
4, 30647, Note_on_c, 1, 58, 0
4, 30648, Note_on_c, 1, 62, 70
4, 30671, Note_on_c, 1, 62, 0
4, 30672, Note_on_c, 1, 57, 70
4, 30695, Note_on_c, 1, 57, 0
4, 30696, Note_on_c, 1, 60, 70
4, 30719, Note_on_c, 1, 60, 0
4, 30720, Note_on_c, 1, 55, 70
4, 30743, Note_on_c, 1, 55, 0
4, 30744, Note_on_c, 1, 58, 70
4, 30767, Note_on_c, 1, 58, 0
4, 30768, Note_on_c, 1, 53, 70
4, 30791, Note_on_c, 1, 53, 0
4, 30792, Note_on_c, 1, 57, 70
4, 30815, Note_on_c, 1, 57, 0
4, 30816, Note_on_c, 1, 52, 58
4, 30839, Note_on_c, 1, 52, 0
4, 30840, Note_on_c, 1, 55, 59
4, 30863, Note_on_c, 1, 55, 0
4, 30864, Note_on_c, 1, 50, 60
4, 30887, Note_on_c, 1, 50, 0
4, 30888, Note_on_c, 1, 53, 61
4, 30911, Note_on_c, 1, 53, 0
4, 30912, Note_on_c, 1, 48, 62
4, 30935, Note_on_c, 1, 48, 0
4, 30936, Note_on_c, 1, 52, 63
4, 30959, Note_on_c, 1, 52, 0
4, 30960, Note_on_c, 1, 50, 64
4, 30983, Note_on_c, 1, 50, 0
4, 30984, Note_on_c, 1, 53, 65
4, 31007, Note_on_c, 1, 53, 0
4, 31008, Note_on_c, 1, 52, 66
4, 31031, Note_on_c, 1, 52, 0
4, 31032, Note_on_c, 1, 55, 67
4, 31055, Note_on_c, 1, 55, 0
4, 31056, Note_on_c, 1, 48, 68
4, 31079, Note_on_c, 1, 48, 0
4, 31080, Note_on_c, 1, 52, 69
4, 31103, Note_on_c, 1, 52, 0
4, 31104, Note_on_c, 1, 53, 70
4, 31149, Note_on_c, 1, 53, 0
4, 31152, Note_on_c, 1, 55, 70
4, 31197, Note_on_c, 1, 55, 0
4, 31200, Note_on_c, 1, 57, 70
4, 31245, Note_on_c, 1, 57, 0
4, 31248, Note_on_c, 1, 58, 70
4, 31293, Note_on_c, 1, 58, 0
4, 31296, Note_on_c, 1, 57, 70
4, 31341, Note_on_c, 1, 57, 0
4, 31344, Note_on_c, 1, 45, 70
4, 31389, Note_on_c, 1, 45, 0
4, 31392, Note_on_c, 1, 46, 70
4, 31488, Note_on_c, 1, 46, 0
4, 31488, Note_on_c, 1, 48, 67
4, 31577, Note_on_c, 1, 48, 0
4, 31584, Note_on_c, 1, 36, 65
4, 31673, Note_on_c, 1, 36, 0
4, 31680, Note_on_c, 1, 41, 70
4, 31690, Note_on_c, 1, 41, 0
4, 31704, Note_on_c, 1, 53, 70
4, 31727, Note_on_c, 1, 53, 0
4, 31728, Note_on_c, 1, 52, 70
4, 31751, Note_on_c, 1, 52, 0
4, 31752, Note_on_c, 1, 53, 70
4, 31775, Note_on_c, 1, 53, 0
4, 31776, Note_on_c, 1, 43, 70
4, 31786, Note_on_c, 1, 43, 0
4, 31800, Note_on_c, 1, 55, 70
4, 31823, Note_on_c, 1, 55, 0
4, 31824, Note_on_c, 1, 53, 70
4, 31847, Note_on_c, 1, 53, 0
4, 31848, Note_on_c, 1, 55, 70
4, 31871, Note_on_c, 1, 55, 0
4, 31872, Note_on_c, 1, 45, 70
4, 31882, Note_on_c, 1, 45, 0
4, 31896, Note_on_c, 1, 57, 70
4, 31919, Note_on_c, 1, 57, 0
4, 31920, Note_on_c, 1, 55, 70
4, 31943, Note_on_c, 1, 55, 0
4, 31944, Note_on_c, 1, 57, 70
4, 31967, Note_on_c, 1, 57, 0
4, 31968, Note_on_c, 1, 46, 70
4, 31978, Note_on_c, 1, 46, 0
4, 31992, Note_on_c, 1, 58, 69
4, 32015, Note_on_c, 1, 58, 0
4, 32016, Note_on_c, 1, 57, 68
4, 32039, Note_on_c, 1, 57, 0
4, 32040, Note_on_c, 1, 58, 68
4, 32063, Note_on_c, 1, 58, 0
4, 32064, Note_on_c, 1, 48, 67
4, 32074, Note_on_c, 1, 48, 0
4, 32088, Note_on_c, 1, 60, 67
4, 32111, Note_on_c, 1, 60, 0
4, 32112, Note_on_c, 1, 59, 66
4, 32135, Note_on_c, 1, 59, 0
4, 32136, Note_on_c, 1, 60, 65
4, 32159, Note_on_c, 1, 60, 0
4, 32160, Note_on_c, 1, 48, 65
4, 32170, Note_on_c, 1, 48, 0
4, 32184, Note_on_c, 1, 60, 64
4, 32207, Note_on_c, 1, 60, 0
4, 32208, Note_on_c, 1, 59, 64
4, 32231, Note_on_c, 1, 59, 0
4, 32232, Note_on_c, 1, 60, 63
4, 32255, Note_on_c, 1, 60, 0
4, 32256, Note_on_c, 1, 53, 70
4, 32295, Note_on_c, 1, 53, 0
4, 32352, Note_on_c, 1, 53, 70
4, 32352, Note_on_c, 1, 41, 70
4, 32446, Note_on_c, 1, 53, 0
4, 32446, Note_on_c, 1, 41, 0
4, 32448, Note_on_c, 1, 53, 70
4, 32448, Note_on_c, 1, 41, 70
4, 32542, Note_on_c, 1, 53, 0
4, 32542, Note_on_c, 1, 41, 0
4, 32544, Note_on_c, 1, 53, 70
4, 32544, Note_on_c, 1, 41, 70
4, 32638, Note_on_c, 1, 53, 0
4, 32638, Note_on_c, 1, 41, 0
4, 32640, Note_on_c, 1, 53, 70
4, 32640, Note_on_c, 1, 41, 70
4, 32734, Note_on_c, 1, 53, 0
4, 32734, Note_on_c, 1, 41, 0
4, 32736, Note_on_c, 1, 53, 71
4, 32736, Note_on_c, 1, 41, 71
4, 32830, Note_on_c, 1, 53, 0
4, 32830, Note_on_c, 1, 41, 0
4, 32856, Note_on_c, 1, 65, 71
4, 32856, Note_on_c, 1, 62, 71
4, 32879, Note_on_c, 1, 65, 0
4, 32879, Note_on_c, 1, 62, 0
4, 32880, Note_on_c, 1, 63, 71
4, 32880, Note_on_c, 1, 60, 71
4, 32903, Note_on_c, 1, 63, 0
4, 32903, Note_on_c, 1, 60, 0
4, 32904, Note_on_c, 1, 65, 72
4, 32904, Note_on_c, 1, 62, 72
4, 32927, Note_on_c, 1, 65, 0
4, 32927, Note_on_c, 1, 62, 0
4, 32952, Note_on_c, 1, 62, 72
4, 32952, Note_on_c, 1, 58, 72
4, 32975, Note_on_c, 1, 62, 0
4, 32975, Note_on_c, 1, 58, 0
4, 32976, Note_on_c, 1, 60, 72
4, 32976, Note_on_c, 1, 57, 72
4, 32999, Note_on_c, 1, 60, 0
4, 32999, Note_on_c, 1, 57, 0
4, 33000, Note_on_c, 1, 62, 72
4, 33000, Note_on_c, 1, 58, 72
4, 33023, Note_on_c, 1, 62, 0
4, 33023, Note_on_c, 1, 58, 0
4, 33048, Note_on_c, 1, 58, 72
4, 33048, Note_on_c, 1, 55, 72
4, 33071, Note_on_c, 1, 58, 0
4, 33071, Note_on_c, 1, 55, 0
4, 33072, Note_on_c, 1, 57, 73
4, 33072, Note_on_c, 1, 53, 73
4, 33095, Note_on_c, 1, 57, 0
4, 33095, Note_on_c, 1, 53, 0
4, 33096, Note_on_c, 1, 58, 73
4, 33096, Note_on_c, 1, 55, 73
4, 33119, Note_on_c, 1, 58, 0
4, 33119, Note_on_c, 1, 55, 0
4, 33120, Note_on_c, 1, 55, 73
4, 33120, Note_on_c, 1, 52, 73
4, 33216, Note_on_c, 1, 55, 0
4, 33216, Note_on_c, 1, 52, 0
4, 33216, Note_on_c, 1, 60, 73
4, 33305, Note_on_c, 1, 60, 0
4, 33312, Note_on_c, 1, 53, 74
4, 33401, Note_on_c, 1, 53, 0
4, 33408, Note_on_c, 1, 58, 75
4, 33497, Note_on_c, 1, 58, 0
4, 33504, Note_on_c, 1, 60, 73
4, 33593, Note_on_c, 1, 60, 0
4, 33600, Note_on_c, 1, 48, 71
4, 33689, Note_on_c, 1, 48, 0
4, 33696, Note_on_c, 1, 53, 70
4, 33785, Note_on_c, 1, 53, 0
4, 33936, Note_on_c, 1, 57, 75
4, 33936, Note_on_c, 1, 53, 75
4, 33981, Note_on_c, 1, 57, 0
4, 33981, Note_on_c, 1, 53, 0
4, 33984, Note_on_c, 1, 58, 75
4, 33984, Note_on_c, 1, 55, 75
4, 33984, Note_on_c, 1, 52, 75
4, 34073, Note_on_c, 1, 58, 0
4, 34073, Note_on_c, 1, 55, 0
4, 34073, Note_on_c, 1, 52, 0
4, 34224, Note_on_c, 1, 58, 75
4, 34224, Note_on_c, 1, 55, 75
4, 34224, Note_on_c, 1, 52, 75
4, 34269, Note_on_c, 1, 58, 0
4, 34269, Note_on_c, 1, 55, 0
4, 34269, Note_on_c, 1, 52, 0
4, 34272, Note_on_c, 1, 57, 75
4, 34272, Note_on_c, 1, 53, 75
4, 34361, Note_on_c, 1, 57, 0
4, 34361, Note_on_c, 1, 53, 0
4, 34512, Note_on_c, 1, 57, 58
4, 34512, Note_on_c, 1, 53, 58
4, 34557, Note_on_c, 1, 57, 0
4, 34557, Note_on_c, 1, 53, 0
4, 34560, Note_on_c, 1, 58, 58
4, 34560, Note_on_c, 1, 55, 58
4, 34560, Note_on_c, 1, 52, 58
4, 34649, Note_on_c, 1, 58, 0
4, 34649, Note_on_c, 1, 55, 0
4, 34649, Note_on_c, 1, 52, 0
4, 34800, Note_on_c, 1, 58, 58
4, 34800, Note_on_c, 1, 55, 58
4, 34800, Note_on_c, 1, 52, 58
4, 34845, Note_on_c, 1, 58, 0
4, 34845, Note_on_c, 1, 55, 0
4, 34845, Note_on_c, 1, 52, 0
4, 34848, Note_on_c, 1, 57, 58
4, 34848, Note_on_c, 1, 53, 58
4, 34937, Note_on_c, 1, 57, 0
4, 34937, Note_on_c, 1, 53, 0
4, 35040, Note_on_c, 1, 45, 75
4, 35129, Note_on_c, 1, 45, 0
4, 35136, Note_on_c, 1, 58, 75
4, 35232, Note_on_c, 1, 58, 0
4, 35232, Note_on_c, 1, 60, 69
4, 35321, Note_on_c, 1, 60, 0
4, 35328, Note_on_c, 1, 48, 63
4, 35417, Note_on_c, 1, 48, 0
4, 35424, Note_on_c, 1, 41, 63
4, 35447, Note_on_c, 1, 41, 0
4, 35448, Note_on_c, 1, 53, 63
4, 35471, Note_on_c, 1, 53, 0
4, 35472, Note_on_c, 1, 52, 63
4, 35495, Note_on_c, 1, 52, 0
4, 35496, Note_on_c, 1, 53, 63
4, 35519, Note_on_c, 1, 53, 0
4, 35520, Note_on_c, 1, 48, 63
4, 35543, Note_on_c, 1, 48, 0
4, 35544, Note_on_c, 1, 53, 63
4, 35567, Note_on_c, 1, 53, 0
4, 35568, Note_on_c, 1, 45, 63
4, 35578, Note_on_c, 1, 45, 0
4, 35592, Note_on_c, 1, 48, 63
4, 35602, Note_on_c, 1, 48, 0
4, 35616, Note_on_c, 1, 41, 63
4, 35705, Note_on_c, 1, 41, 0
4, 35712, Note_on_c, 1, 64, 70
4, 35712, Note_on_c, 1, 60, 70
4, 35977, Note_on_c, 1, 64, 0
4, 35977, Note_on_c, 1, 60, 0
4, 36024, Note_on_c, 1, 55, 70
4, 36047, Note_on_c, 1, 55, 0
4, 36048, Note_on_c, 1, 57, 70
4, 36071, Note_on_c, 1, 57, 0
4, 36072, Note_on_c, 1, 59, 70
4, 36095, Note_on_c, 1, 59, 0
4, 36096, Note_on_c, 1, 60, 70
4, 36119, Note_on_c, 1, 60, 0
4, 36120, Note_on_c, 1, 62, 71
4, 36143, Note_on_c, 1, 62, 0
4, 36144, Note_on_c, 1, 64, 72
4, 36167, Note_on_c, 1, 64, 0
4, 36168, Note_on_c, 1, 65, 73
4, 36191, Note_on_c, 1, 65, 0
4, 36192, Note_on_c, 1, 67, 75
4, 36215, Note_on_c, 1, 67, 0
4, 36216, Note_on_c, 1, 69, 73
4, 36239, Note_on_c, 1, 69, 0
4, 36240, Note_on_c, 1, 67, 72
4, 36263, Note_on_c, 1, 67, 0
4, 36264, Note_on_c, 1, 65, 71
4, 36287, Note_on_c, 1, 65, 0
4, 36288, Note_on_c, 1, 64, 70
4, 36553, Note_on_c, 1, 64, 0
4, 36600, Note_on_c, 1, 57, 70
4, 36623, Note_on_c, 1, 57, 0
4, 36624, Note_on_c, 1, 59, 70
4, 36647, Note_on_c, 1, 59, 0
4, 36648, Note_on_c, 1, 61, 70
4, 36671, Note_on_c, 1, 61, 0
4, 36672, Note_on_c, 1, 62, 70
4, 36695, Note_on_c, 1, 62, 0
4, 36696, Note_on_c, 1, 64, 71
4, 36719, Note_on_c, 1, 64, 0
4, 36720, Note_on_c, 1, 65, 72
4, 36743, Note_on_c, 1, 65, 0
4, 36744, Note_on_c, 1, 67, 73
4, 36767, Note_on_c, 1, 67, 0
4, 36768, Note_on_c, 1, 65, 75
4, 36791, Note_on_c, 1, 65, 0
4, 36792, Note_on_c, 1, 64, 73
4, 36815, Note_on_c, 1, 64, 0
4, 36816, Note_on_c, 1, 62, 72
4, 36839, Note_on_c, 1, 62, 0
4, 36840, Note_on_c, 1, 60, 71
4, 36863, Note_on_c, 1, 60, 0
4, 36864, Note_on_c, 1, 59, 70
4, 37056, Note_on_c, 1, 59, 0
4, 37056, Note_on_c, 1, 55, 70
4, 37145, Note_on_c, 1, 55, 0
4, 37176, Note_on_c, 1, 57, 70
4, 37199, Note_on_c, 1, 57, 0
4, 37200, Note_on_c, 1, 59, 70
4, 37223, Note_on_c, 1, 59, 0
4, 37224, Note_on_c, 1, 60, 70
4, 37247, Note_on_c, 1, 60, 0
4, 37248, Note_on_c, 1, 62, 70
4, 37271, Note_on_c, 1, 62, 0
4, 37272, Note_on_c, 1, 64, 71
4, 37295, Note_on_c, 1, 64, 0
4, 37296, Note_on_c, 1, 65, 73
4, 37319, Note_on_c, 1, 65, 0
4, 37320, Note_on_c, 1, 67, 75
4, 37343, Note_on_c, 1, 67, 0
4, 37344, Note_on_c, 1, 69, 74
4, 37367, Note_on_c, 1, 69, 0
4, 37368, Note_on_c, 1, 67, 73
4, 37391, Note_on_c, 1, 67, 0
4, 37392, Note_on_c, 1, 65, 72
4, 37415, Note_on_c, 1, 65, 0
4, 37416, Note_on_c, 1, 64, 71
4, 37439, Note_on_c, 1, 64, 0
4, 37440, Note_on_c, 1, 65, 70
4, 37463, Note_on_c, 1, 65, 0
4, 37464, Note_on_c, 1, 69, 70
4, 37487, Note_on_c, 1, 69, 0
4, 37488, Note_on_c, 1, 67, 70
4, 37511, Note_on_c, 1, 67, 0
4, 37512, Note_on_c, 1, 65, 70
4, 37535, Note_on_c, 1, 65, 0
4, 37536, Note_on_c, 1, 67, 70
4, 37625, Note_on_c, 1, 67, 0
4, 37632, Note_on_c, 1, 55, 70
4, 37721, Note_on_c, 1, 55, 0
4, 37752, Note_on_c, 1, 48, 58
4, 37775, Note_on_c, 1, 48, 0
4, 37776, Note_on_c, 1, 50, 59
4, 37799, Note_on_c, 1, 50, 0
4, 37800, Note_on_c, 1, 51, 61
4, 37823, Note_on_c, 1, 51, 0
4, 37824, Note_on_c, 1, 53, 63
4, 37847, Note_on_c, 1, 53, 0
4, 37848, Note_on_c, 1, 55, 64
4, 37871, Note_on_c, 1, 55, 0
4, 37872, Note_on_c, 1, 57, 66
4, 37895, Note_on_c, 1, 57, 0
4, 37896, Note_on_c, 1, 59, 68
4, 37919, Note_on_c, 1, 59, 0
4, 37920, Note_on_c, 1, 60, 69
4, 37943, Note_on_c, 1, 60, 0
4, 37944, Note_on_c, 1, 59, 71
4, 37967, Note_on_c, 1, 59, 0
4, 37968, Note_on_c, 1, 62, 73
4, 37991, Note_on_c, 1, 62, 0
4, 37992, Note_on_c, 1, 60, 75
4, 38015, Note_on_c, 1, 60, 0
4, 38016, Note_on_c, 1, 63, 73
4, 38208, Note_on_c, 1, 63, 0
4, 38208, Note_on_c, 1, 51, 63
4, 38297, Note_on_c, 1, 51, 0
4, 38304, Note_on_c, 1, 50, 58
4, 38327, Note_on_c, 1, 50, 0
4, 38328, Note_on_c, 1, 54, 58
4, 38351, Note_on_c, 1, 54, 0
4, 38352, Note_on_c, 1, 52, 59
4, 38375, Note_on_c, 1, 52, 0
4, 38376, Note_on_c, 1, 55, 60
4, 38399, Note_on_c, 1, 55, 0
4, 38400, Note_on_c, 1, 54, 60
4, 38423, Note_on_c, 1, 54, 0
4, 38424, Note_on_c, 1, 57, 61
4, 38447, Note_on_c, 1, 57, 0
4, 38448, Note_on_c, 1, 50, 62
4, 38471, Note_on_c, 1, 50, 0
4, 38472, Note_on_c, 1, 54, 63
4, 38495, Note_on_c, 1, 54, 0
4, 38496, Note_on_c, 1, 52, 63
4, 38519, Note_on_c, 1, 52, 0
4, 38520, Note_on_c, 1, 55, 63
4, 38543, Note_on_c, 1, 55, 0
4, 38544, Note_on_c, 1, 54, 63
4, 38567, Note_on_c, 1, 54, 0
4, 38568, Note_on_c, 1, 57, 63
4, 38591, Note_on_c, 1, 57, 0
4, 38592, Note_on_c, 1, 55, 64
4, 38615, Note_on_c, 1, 55, 0
4, 38616, Note_on_c, 1, 58, 65
4, 38639, Note_on_c, 1, 58, 0
4, 38640, Note_on_c, 1, 57, 66
4, 38663, Note_on_c, 1, 57, 0
4, 38664, Note_on_c, 1, 60, 67
4, 38687, Note_on_c, 1, 60, 0
4, 38688, Note_on_c, 1, 58, 68
4, 38711, Note_on_c, 1, 58, 0
4, 38712, Note_on_c, 1, 62, 69
4, 38735, Note_on_c, 1, 62, 0
4, 38736, Note_on_c, 1, 55, 70
4, 38759, Note_on_c, 1, 55, 0
4, 38760, Note_on_c, 1, 59, 70
4, 38783, Note_on_c, 1, 59, 0
4, 38784, Note_on_c, 1, 57, 70
4, 38807, Note_on_c, 1, 57, 0
4, 38808, Note_on_c, 1, 60, 70
4, 38831, Note_on_c, 1, 60, 0
4, 38832, Note_on_c, 1, 59, 71
4, 38855, Note_on_c, 1, 59, 0
4, 38856, Note_on_c, 1, 62, 71
4, 38879, Note_on_c, 1, 62, 0
4, 38880, Note_on_c, 1, 60, 72
4, 38903, Note_on_c, 1, 60, 0
4, 38904, Note_on_c, 1, 64, 72
4, 38927, Note_on_c, 1, 64, 0
4, 38928, Note_on_c, 1, 62, 73
4, 38951, Note_on_c, 1, 62, 0
4, 38952, Note_on_c, 1, 65, 73
4, 38975, Note_on_c, 1, 65, 0
4, 38976, Note_on_c, 1, 64, 74
4, 38999, Note_on_c, 1, 64, 0
4, 39000, Note_on_c, 1, 67, 74
4, 39023, Note_on_c, 1, 67, 0
4, 39024, Note_on_c, 1, 48, 75
4, 39047, Note_on_c, 1, 48, 0
4, 39048, Note_on_c, 1, 52, 75
4, 39071, Note_on_c, 1, 52, 0
4, 39072, Note_on_c, 1, 50, 75
4, 39095, Note_on_c, 1, 50, 0
4, 39096, Note_on_c, 1, 53, 75
4, 39119, Note_on_c, 1, 53, 0
4, 39120, Note_on_c, 1, 52, 75
4, 39143, Note_on_c, 1, 52, 0
4, 39144, Note_on_c, 1, 55, 75
4, 39167, Note_on_c, 1, 55, 0
4, 39168, Note_on_c, 1, 53, 75
4, 39191, Note_on_c, 1, 53, 0
4, 39192, Note_on_c, 1, 57, 75
4, 39215, Note_on_c, 1, 57, 0
4, 39216, Note_on_c, 1, 55, 75
4, 39239, Note_on_c, 1, 55, 0
4, 39240, Note_on_c, 1, 58, 75
4, 39263, Note_on_c, 1, 58, 0
4, 39264, Note_on_c, 1, 57, 75
4, 39287, Note_on_c, 1, 57, 0
4, 39288, Note_on_c, 1, 60, 75
4, 39311, Note_on_c, 1, 60, 0
4, 39312, Note_on_c, 1, 53, 75
4, 39335, Note_on_c, 1, 53, 0
4, 39336, Note_on_c, 1, 57, 75
4, 39359, Note_on_c, 1, 57, 0
4, 39360, Note_on_c, 1, 55, 75
4, 39383, Note_on_c, 1, 55, 0
4, 39384, Note_on_c, 1, 58, 75
4, 39407, Note_on_c, 1, 58, 0
4, 39408, Note_on_c, 1, 57, 75
4, 39431, Note_on_c, 1, 57, 0
4, 39432, Note_on_c, 1, 60, 75
4, 39455, Note_on_c, 1, 60, 0
4, 39456, Note_on_c, 1, 58, 75
4, 39479, Note_on_c, 1, 58, 0
4, 39480, Note_on_c, 1, 62, 75
4, 39503, Note_on_c, 1, 62, 0
4, 39504, Note_on_c, 1, 60, 75
4, 39527, Note_on_c, 1, 60, 0
4, 39528, Note_on_c, 1, 63, 75
4, 39551, Note_on_c, 1, 63, 0
4, 39552, Note_on_c, 1, 62, 75
4, 39575, Note_on_c, 1, 62, 0
4, 39576, Note_on_c, 1, 65, 75
4, 39599, Note_on_c, 1, 65, 0
4, 39600, Note_on_c, 1, 55, 75
4, 39623, Note_on_c, 1, 55, 0
4, 39624, Note_on_c, 1, 59, 75
4, 39647, Note_on_c, 1, 59, 0
4, 39648, Note_on_c, 1, 57, 75
4, 39671, Note_on_c, 1, 57, 0
4, 39672, Note_on_c, 1, 60, 75
4, 39695, Note_on_c, 1, 60, 0
4, 39696, Note_on_c, 1, 59, 75
4, 39719, Note_on_c, 1, 59, 0
4, 39720, Note_on_c, 1, 62, 75
4, 39743, Note_on_c, 1, 62, 0
4, 39744, Note_on_c, 1, 60, 75
4, 39767, Note_on_c, 1, 60, 0
4, 39768, Note_on_c, 1, 64, 75
4, 39791, Note_on_c, 1, 64, 0
4, 39792, Note_on_c, 1, 62, 75
4, 39815, Note_on_c, 1, 62, 0
4, 39816, Note_on_c, 1, 65, 75
4, 39839, Note_on_c, 1, 65, 0
4, 39840, Note_on_c, 1, 64, 75
4, 39863, Note_on_c, 1, 64, 0
4, 39864, Note_on_c, 1, 67, 75
4, 39887, Note_on_c, 1, 67, 0
4, 39888, Note_on_c, 1, 57, 75
4, 39911, Note_on_c, 1, 57, 0
4, 39912, Note_on_c, 1, 61, 75
4, 39935, Note_on_c, 1, 61, 0
4, 39936, Note_on_c, 1, 59, 75
4, 39959, Note_on_c, 1, 59, 0
4, 39960, Note_on_c, 1, 62, 75
4, 39983, Note_on_c, 1, 62, 0
4, 39984, Note_on_c, 1, 61, 75
4, 40007, Note_on_c, 1, 61, 0
4, 40008, Note_on_c, 1, 64, 75
4, 40031, Note_on_c, 1, 64, 0
4, 40032, Note_on_c, 1, 62, 75
4, 40055, Note_on_c, 1, 62, 0
4, 40056, Note_on_c, 1, 65, 75
4, 40079, Note_on_c, 1, 65, 0
4, 40080, Note_on_c, 1, 64, 75
4, 40103, Note_on_c, 1, 64, 0
4, 40104, Note_on_c, 1, 67, 75
4, 40127, Note_on_c, 1, 67, 0
4, 40128, Note_on_c, 1, 65, 75
4, 40151, Note_on_c, 1, 65, 0
4, 40152, Note_on_c, 1, 69, 75
4, 40175, Note_on_c, 1, 69, 0
4, 40176, Note_on_c, 1, 62, 75
4, 40199, Note_on_c, 1, 62, 0
4, 40200, Note_on_c, 1, 65, 75
4, 40223, Note_on_c, 1, 65, 0
4, 40224, Note_on_c, 1, 64, 75
4, 40247, Note_on_c, 1, 64, 0
4, 40248, Note_on_c, 1, 67, 75
4, 40271, Note_on_c, 1, 67, 0
4, 40272, Note_on_c, 1, 65, 75
4, 40295, Note_on_c, 1, 65, 0
4, 40296, Note_on_c, 1, 69, 75
4, 40319, Note_on_c, 1, 69, 0
4, 40320, Note_on_c, 1, 67, 75
4, 40365, Note_on_c, 1, 67, 0
4, 40368, Note_on_c, 1, 69, 75
4, 40413, Note_on_c, 1, 69, 0
4, 40416, Note_on_c, 1, 70, 75
4, 40461, Note_on_c, 1, 70, 0
4, 40464, Note_on_c, 1, 72, 75
4, 40509, Note_on_c, 1, 72, 0
4, 40512, Note_on_c, 1, 70, 75
4, 40532, Note_on_c, 1, 70, 0
4, 40560, Note_on_c, 1, 59, 75
4, 40605, Note_on_c, 1, 59, 0
4, 40608, Note_on_c, 1, 60, 75
4, 40653, Note_on_c, 1, 60, 0
4, 40656, Note_on_c, 1, 62, 75
4, 40701, Note_on_c, 1, 62, 0
4, 40704, Note_on_c, 1, 64, 75
4, 40749, Note_on_c, 1, 64, 0
4, 40752, Note_on_c, 1, 65, 75
4, 40797, Note_on_c, 1, 65, 0
4, 40800, Note_on_c, 1, 64, 75
4, 40845, Note_on_c, 1, 64, 0
4, 40848, Note_on_c, 1, 60, 75
4, 40893, Note_on_c, 1, 60, 0
4, 40896, Note_on_c, 1, 65, 75
4, 40941, Note_on_c, 1, 65, 0
4, 40944, Note_on_c, 1, 67, 75
4, 40989, Note_on_c, 1, 67, 0
4, 40992, Note_on_c, 1, 69, 75
4, 41037, Note_on_c, 1, 69, 0
4, 41040, Note_on_c, 1, 70, 75
4, 41085, Note_on_c, 1, 70, 0
4, 41088, Note_on_c, 1, 69, 75
4, 41133, Note_on_c, 1, 69, 0
4, 41136, Note_on_c, 1, 57, 75
4, 41181, Note_on_c, 1, 57, 0
4, 41184, Note_on_c, 1, 58, 75
4, 41229, Note_on_c, 1, 58, 0
4, 41232, Note_on_c, 1, 60, 75
4, 41277, Note_on_c, 1, 60, 0
4, 41280, Note_on_c, 1, 62, 75
4, 41325, Note_on_c, 1, 62, 0
4, 41328, Note_on_c, 1, 63, 75
4, 41373, Note_on_c, 1, 63, 0
4, 41376, Note_on_c, 1, 62, 75
4, 41421, Note_on_c, 1, 62, 0
4, 41424, Note_on_c, 1, 57, 75
4, 41469, Note_on_c, 1, 57, 0
4, 41472, Note_on_c, 1, 58, 75
4, 41517, Note_on_c, 1, 58, 0
4, 41520, Note_on_c, 1, 60, 72
4, 41565, Note_on_c, 1, 60, 0
4, 41568, Note_on_c, 1, 62, 70
4, 41613, Note_on_c, 1, 62, 0
4, 41616, Note_on_c, 1, 60, 68
4, 41661, Note_on_c, 1, 60, 0
4, 41664, Note_on_c, 1, 58, 66
4, 41709, Note_on_c, 1, 58, 0
4, 41712, Note_on_c, 1, 59, 64
4, 41757, Note_on_c, 1, 59, 0
4, 41760, Note_on_c, 1, 60, 62
4, 41849, Note_on_c, 1, 60, 0
4, 41856, Note_on_c, 1, 60, 58
4, 41879, Note_on_c, 1, 60, 0
4, 41880, Note_on_c, 1, 64, 59
4, 41903, Note_on_c, 1, 64, 0
4, 41904, Note_on_c, 1, 58, 61
4, 41927, Note_on_c, 1, 58, 0
4, 41928, Note_on_c, 1, 62, 62
4, 41951, Note_on_c, 1, 62, 0
4, 41952, Note_on_c, 1, 57, 64
4, 41975, Note_on_c, 1, 57, 0
4, 41976, Note_on_c, 1, 60, 65
4, 41999, Note_on_c, 1, 60, 0
4, 42000, Note_on_c, 1, 55, 67
4, 42023, Note_on_c, 1, 55, 0
4, 42024, Note_on_c, 1, 58, 68
4, 42047, Note_on_c, 1, 58, 0
4, 42048, Note_on_c, 1, 57, 70
4, 42048, Note_on_c, 1, 53, 70
4, 42225, Note_on_c, 1, 57, 0
4, 42225, Note_on_c, 1, 53, 0
4, 42360, Note_on_c, 1, 48, 70
4, 42383, Note_on_c, 1, 48, 0
4, 42384, Note_on_c, 1, 50, 71
4, 42407, Note_on_c, 1, 50, 0
4, 42408, Note_on_c, 1, 52, 72
4, 42431, Note_on_c, 1, 52, 0
4, 42432, Note_on_c, 1, 53, 73
4, 42455, Note_on_c, 1, 53, 0
4, 42456, Note_on_c, 1, 55, 74
4, 42479, Note_on_c, 1, 55, 0
4, 42480, Note_on_c, 1, 57, 75
4, 42503, Note_on_c, 1, 57, 0
4, 42504, Note_on_c, 1, 58, 74
4, 42527, Note_on_c, 1, 58, 0
4, 42528, Note_on_c, 1, 60, 73
4, 42551, Note_on_c, 1, 60, 0
4, 42552, Note_on_c, 1, 62, 72
4, 42575, Note_on_c, 1, 62, 0
4, 42576, Note_on_c, 1, 60, 71
4, 42599, Note_on_c, 1, 60, 0
4, 42600, Note_on_c, 1, 58, 70
4, 42623, Note_on_c, 1, 58, 0
4, 42624, Note_on_c, 1, 57, 70
4, 42935, Note_on_c, 1, 57, 0
4, 42936, Note_on_c, 1, 50, 70
4, 42959, Note_on_c, 1, 50, 0
4, 42960, Note_on_c, 1, 52, 70
4, 42983, Note_on_c, 1, 52, 0
4, 42984, Note_on_c, 1, 54, 70
4, 43007, Note_on_c, 1, 54, 0
4, 43008, Note_on_c, 1, 55, 70
4, 43031, Note_on_c, 1, 55, 0
4, 43032, Note_on_c, 1, 57, 71
4, 43055, Note_on_c, 1, 57, 0
4, 43056, Note_on_c, 1, 58, 73
4, 43079, Note_on_c, 1, 58, 0
4, 43080, Note_on_c, 1, 60, 75
4, 43103, Note_on_c, 1, 60, 0
4, 43104, Note_on_c, 1, 58, 74
4, 43127, Note_on_c, 1, 58, 0
4, 43128, Note_on_c, 1, 57, 73
4, 43151, Note_on_c, 1, 57, 0
4, 43152, Note_on_c, 1, 55, 72
4, 43175, Note_on_c, 1, 55, 0
4, 43176, Note_on_c, 1, 53, 71
4, 43199, Note_on_c, 1, 53, 0
4, 43200, Note_on_c, 1, 52, 70
4, 43392, Note_on_c, 1, 52, 0
4, 43392, Note_on_c, 1, 48, 70
4, 43481, Note_on_c, 1, 48, 0
4, 43512, Note_on_c, 1, 50, 70
4, 43535, Note_on_c, 1, 50, 0
4, 43536, Note_on_c, 1, 52, 70
4, 43559, Note_on_c, 1, 52, 0
4, 43560, Note_on_c, 1, 53, 70
4, 43583, Note_on_c, 1, 53, 0
4, 43584, Note_on_c, 1, 55, 70
4, 43607, Note_on_c, 1, 55, 0
4, 43608, Note_on_c, 1, 57, 71
4, 43631, Note_on_c, 1, 57, 0
4, 43632, Note_on_c, 1, 58, 72
4, 43655, Note_on_c, 1, 58, 0
4, 43656, Note_on_c, 1, 60, 73
4, 43679, Note_on_c, 1, 60, 0
4, 43680, Note_on_c, 1, 62, 75
4, 43703, Note_on_c, 1, 62, 0
4, 43704, Note_on_c, 1, 60, 73
4, 43727, Note_on_c, 1, 60, 0
4, 43728, Note_on_c, 1, 58, 72
4, 43751, Note_on_c, 1, 58, 0
4, 43752, Note_on_c, 1, 57, 71
4, 43775, Note_on_c, 1, 57, 0
4, 43776, Note_on_c, 1, 58, 70
4, 43799, Note_on_c, 1, 58, 0
4, 43800, Note_on_c, 1, 62, 70
4, 43823, Note_on_c, 1, 62, 0
4, 43824, Note_on_c, 1, 60, 70
4, 43847, Note_on_c, 1, 60, 0
4, 43848, Note_on_c, 1, 58, 70
4, 43871, Note_on_c, 1, 58, 0
4, 43872, Note_on_c, 1, 60, 70
4, 43961, Note_on_c, 1, 60, 0
4, 43968, Note_on_c, 1, 48, 70
4, 44057, Note_on_c, 1, 48, 0
4, 44088, Note_on_c, 1, 41, 70
4, 44111, Note_on_c, 1, 41, 0
4, 44112, Note_on_c, 1, 43, 70
4, 44135, Note_on_c, 1, 43, 0
4, 44136, Note_on_c, 1, 45, 70
4, 44159, Note_on_c, 1, 45, 0
4, 44160, Note_on_c, 1, 46, 71
4, 44183, Note_on_c, 1, 46, 0
4, 44184, Note_on_c, 1, 48, 71
4, 44207, Note_on_c, 1, 48, 0
4, 44208, Note_on_c, 1, 50, 72
4, 44231, Note_on_c, 1, 50, 0
4, 44232, Note_on_c, 1, 52, 72
4, 44255, Note_on_c, 1, 52, 0
4, 44256, Note_on_c, 1, 53, 73
4, 44279, Note_on_c, 1, 53, 0
4, 44280, Note_on_c, 1, 52, 73
4, 44303, Note_on_c, 1, 52, 0
4, 44304, Note_on_c, 1, 55, 74
4, 44327, Note_on_c, 1, 55, 0
4, 44328, Note_on_c, 1, 53, 74
4, 44351, Note_on_c, 1, 53, 0
4, 44352, Note_on_c, 1, 57, 75
4, 44441, Note_on_c, 1, 57, 0
4, 44664, Note_on_c, 1, 50, 70
4, 44687, Note_on_c, 1, 50, 0
4, 44688, Note_on_c, 1, 55, 72
4, 44711, Note_on_c, 1, 55, 0
4, 44712, Note_on_c, 1, 54, 74
4, 44735, Note_on_c, 1, 54, 0
4, 44736, Note_on_c, 1, 57, 76
4, 44759, Note_on_c, 1, 57, 0
4, 44760, Note_on_c, 1, 55, 78
4, 44783, Note_on_c, 1, 55, 0
4, 44784, Note_on_c, 1, 58, 81
4, 44807, Note_on_c, 1, 58, 0
4, 44808, Note_on_c, 1, 57, 80
4, 44831, Note_on_c, 1, 57, 0
4, 44832, Note_on_c, 1, 55, 79
4, 44855, Note_on_c, 1, 55, 0
4, 44856, Note_on_c, 1, 53, 78
4, 44879, Note_on_c, 1, 53, 0
4, 44880, Note_on_c, 1, 52, 77
4, 44903, Note_on_c, 1, 52, 0
4, 44904, Note_on_c, 1, 50, 76
4, 44927, Note_on_c, 1, 50, 0
4, 44928, Note_on_c, 1, 48, 75
4, 45017, Note_on_c, 1, 48, 0
4, 45240, Note_on_c, 1, 48, 70
4, 45263, Note_on_c, 1, 48, 0
4, 45264, Note_on_c, 1, 53, 71
4, 45287, Note_on_c, 1, 53, 0
4, 45288, Note_on_c, 1, 52, 72
4, 45311, Note_on_c, 1, 52, 0
4, 45312, Note_on_c, 1, 55, 73
4, 45335, Note_on_c, 1, 55, 0
4, 45336, Note_on_c, 1, 53, 74
4, 45359, Note_on_c, 1, 53, 0
4, 45360, Note_on_c, 1, 57, 75
4, 45383, Note_on_c, 1, 57, 0
4, 45384, Note_on_c, 1, 55, 74
4, 45407, Note_on_c, 1, 55, 0
4, 45408, Note_on_c, 1, 53, 73
4, 45431, Note_on_c, 1, 53, 0
4, 45432, Note_on_c, 1, 52, 72
4, 45455, Note_on_c, 1, 52, 0
4, 45456, Note_on_c, 1, 50, 71
4, 45479, Note_on_c, 1, 50, 0
4, 45480, Note_on_c, 1, 48, 70
4, 45503, Note_on_c, 1, 48, 0
4, 45504, Note_on_c, 1, 46, 70
4, 45741, Note_on_c, 1, 46, 0
4, 45744, Note_on_c, 1, 47, 70
4, 45789, Note_on_c, 1, 47, 0
4, 45792, Note_on_c, 1, 48, 70
4, 45815, Note_on_c, 1, 48, 0
4, 45816, Note_on_c, 1, 52, 70
4, 45839, Note_on_c, 1, 52, 0
4, 45840, Note_on_c, 1, 50, 70
4, 45863, Note_on_c, 1, 50, 0
4, 45864, Note_on_c, 1, 53, 70
4, 45887, Note_on_c, 1, 53, 0
4, 45888, Note_on_c, 1, 52, 70
4, 45911, Note_on_c, 1, 52, 0
4, 45912, Note_on_c, 1, 55, 70
4, 45935, Note_on_c, 1, 55, 0
4, 45936, Note_on_c, 1, 53, 70
4, 45959, Note_on_c, 1, 53, 0
4, 45960, Note_on_c, 1, 57, 70
4, 45983, Note_on_c, 1, 57, 0
4, 45984, Note_on_c, 1, 55, 70
4, 46007, Note_on_c, 1, 55, 0
4, 46008, Note_on_c, 1, 58, 70
4, 46031, Note_on_c, 1, 58, 0
4, 46032, Note_on_c, 1, 52, 70
4, 46055, Note_on_c, 1, 52, 0
4, 46056, Note_on_c, 1, 55, 70
4, 46079, Note_on_c, 1, 55, 0
4, 46080, Note_on_c, 1, 53, 70
4, 46103, Note_on_c, 1, 53, 0
4, 46104, Note_on_c, 1, 57, 70
4, 46127, Note_on_c, 1, 57, 0
4, 46128, Note_on_c, 1, 55, 70
4, 46151, Note_on_c, 1, 55, 0
4, 46152, Note_on_c, 1, 58, 70
4, 46175, Note_on_c, 1, 58, 0
4, 46176, Note_on_c, 1, 57, 70
4, 46199, Note_on_c, 1, 57, 0
4, 46200, Note_on_c, 1, 60, 70
4, 46223, Note_on_c, 1, 60, 0
4, 46224, Note_on_c, 1, 58, 70
4, 46247, Note_on_c, 1, 58, 0
4, 46248, Note_on_c, 1, 62, 70
4, 46271, Note_on_c, 1, 62, 0
4, 46272, Note_on_c, 1, 60, 70
4, 46295, Note_on_c, 1, 60, 0
4, 46296, Note_on_c, 1, 63, 67
4, 46319, Note_on_c, 1, 63, 0
4, 46320, Note_on_c, 1, 57, 64
4, 46343, Note_on_c, 1, 57, 0
4, 46344, Note_on_c, 1, 60, 61
4, 46367, Note_on_c, 1, 60, 0
4, 46368, Note_on_c, 1, 58, 58
4, 46391, Note_on_c, 1, 58, 0
4, 46392, Note_on_c, 1, 62, 58
4, 46415, Note_on_c, 1, 62, 0
4, 46416, Note_on_c, 1, 60, 58
4, 46439, Note_on_c, 1, 60, 0
4, 46440, Note_on_c, 1, 62, 59
4, 46463, Note_on_c, 1, 62, 0
4, 46464, Note_on_c, 1, 58, 59
4, 46487, Note_on_c, 1, 58, 0
4, 46488, Note_on_c, 1, 62, 60
4, 46511, Note_on_c, 1, 62, 0
4, 46512, Note_on_c, 1, 54, 60
4, 46535, Note_on_c, 1, 54, 0
4, 46536, Note_on_c, 1, 62, 61
4, 46559, Note_on_c, 1, 62, 0
4, 46560, Note_on_c, 1, 55, 61
4, 46583, Note_on_c, 1, 55, 0
4, 46584, Note_on_c, 1, 62, 62
4, 46607, Note_on_c, 1, 62, 0
4, 46608, Note_on_c, 1, 58, 62
4, 46631, Note_on_c, 1, 58, 0
4, 46632, Note_on_c, 1, 62, 63
4, 46655, Note_on_c, 1, 62, 0
4, 46656, Note_on_c, 1, 57, 63
4, 46679, Note_on_c, 1, 57, 0
4, 46680, Note_on_c, 1, 60, 63
4, 46703, Note_on_c, 1, 60, 0
4, 46704, Note_on_c, 1, 58, 63
4, 46727, Note_on_c, 1, 58, 0
4, 46728, Note_on_c, 1, 60, 63
4, 46751, Note_on_c, 1, 60, 0
4, 46752, Note_on_c, 1, 57, 64
4, 46775, Note_on_c, 1, 57, 0
4, 46776, Note_on_c, 1, 60, 65
4, 46799, Note_on_c, 1, 60, 0
4, 46800, Note_on_c, 1, 52, 65
4, 46823, Note_on_c, 1, 52, 0
4, 46824, Note_on_c, 1, 60, 66
4, 46847, Note_on_c, 1, 60, 0
4, 46848, Note_on_c, 1, 53, 67
4, 46871, Note_on_c, 1, 53, 0
4, 46872, Note_on_c, 1, 60, 67
4, 46895, Note_on_c, 1, 60, 0
4, 46896, Note_on_c, 1, 57, 68
4, 46919, Note_on_c, 1, 57, 0
4, 46920, Note_on_c, 1, 60, 69
4, 46943, Note_on_c, 1, 60, 0
4, 46944, Note_on_c, 1, 55, 70
4, 46967, Note_on_c, 1, 55, 0
4, 46968, Note_on_c, 1, 58, 70
4, 46991, Note_on_c, 1, 58, 0
4, 46992, Note_on_c, 1, 57, 70
4, 47015, Note_on_c, 1, 57, 0
4, 47016, Note_on_c, 1, 60, 70
4, 47039, Note_on_c, 1, 60, 0
4, 47040, Note_on_c, 1, 58, 70
4, 47063, Note_on_c, 1, 58, 0
4, 47064, Note_on_c, 1, 62, 70
4, 47087, Note_on_c, 1, 62, 0
4, 47088, Note_on_c, 1, 59, 70
4, 47111, Note_on_c, 1, 59, 0
4, 47112, Note_on_c, 1, 62, 70
4, 47135, Note_on_c, 1, 62, 0
4, 47136, Note_on_c, 1, 60, 70
4, 47159, Note_on_c, 1, 60, 0
4, 47160, Note_on_c, 1, 64, 70
4, 47183, Note_on_c, 1, 64, 0
4, 47184, Note_on_c, 1, 62, 70
4, 47207, Note_on_c, 1, 62, 0
4, 47208, Note_on_c, 1, 65, 70
4, 47231, Note_on_c, 1, 65, 0
4, 47232, Note_on_c, 1, 64, 70
4, 47255, Note_on_c, 1, 64, 0
4, 47256, Note_on_c, 1, 67, 70
4, 47279, Note_on_c, 1, 67, 0
4, 47280, Note_on_c, 1, 62, 70
4, 47303, Note_on_c, 1, 62, 0
4, 47304, Note_on_c, 1, 65, 70
4, 47327, Note_on_c, 1, 65, 0
4, 47328, Note_on_c, 1, 60, 70
4, 47351, Note_on_c, 1, 60, 0
4, 47352, Note_on_c, 1, 64, 70
4, 47375, Note_on_c, 1, 64, 0
4, 47376, Note_on_c, 1, 62, 70
4, 47399, Note_on_c, 1, 62, 0
4, 47400, Note_on_c, 1, 65, 70
4, 47423, Note_on_c, 1, 65, 0
4, 47424, Note_on_c, 1, 64, 70
4, 47447, Note_on_c, 1, 64, 0
4, 47448, Note_on_c, 1, 67, 70
4, 47471, Note_on_c, 1, 67, 0
4, 47472, Note_on_c, 1, 60, 70
4, 47495, Note_on_c, 1, 60, 0
4, 47496, Note_on_c, 1, 64, 70
4, 47519, Note_on_c, 1, 64, 0
4, 47520, Note_on_c, 1, 53, 70
4, 47543, Note_on_c, 1, 53, 0
4, 47544, Note_on_c, 1, 57, 70
4, 47567, Note_on_c, 1, 57, 0
4, 47568, Note_on_c, 1, 55, 70
4, 47591, Note_on_c, 1, 55, 0
4, 47592, Note_on_c, 1, 58, 70
4, 47615, Note_on_c, 1, 58, 0
4, 47616, Note_on_c, 1, 57, 70
4, 47639, Note_on_c, 1, 57, 0
4, 47640, Note_on_c, 1, 60, 70
4, 47663, Note_on_c, 1, 60, 0
4, 47664, Note_on_c, 1, 53, 70
4, 47687, Note_on_c, 1, 53, 0
4, 47688, Note_on_c, 1, 57, 70
4, 47711, Note_on_c, 1, 57, 0
4, 47712, Note_on_c, 1, 55, 70
4, 47735, Note_on_c, 1, 55, 0
4, 47736, Note_on_c, 1, 58, 70
4, 47759, Note_on_c, 1, 58, 0
4, 47760, Note_on_c, 1, 57, 70
4, 47783, Note_on_c, 1, 57, 0
4, 47784, Note_on_c, 1, 60, 70
4, 47807, Note_on_c, 1, 60, 0
4, 47808, Note_on_c, 1, 58, 70
4, 47831, Note_on_c, 1, 58, 0
4, 47832, Note_on_c, 1, 62, 70
4, 47855, Note_on_c, 1, 62, 0
4, 47856, Note_on_c, 1, 60, 70
4, 47879, Note_on_c, 1, 60, 0
4, 47880, Note_on_c, 1, 63, 70
4, 47903, Note_on_c, 1, 63, 0
4, 47904, Note_on_c, 1, 58, 70
4, 47927, Note_on_c, 1, 58, 0
4, 47928, Note_on_c, 1, 62, 70
4, 47951, Note_on_c, 1, 62, 0
4, 47952, Note_on_c, 1, 57, 70
4, 47975, Note_on_c, 1, 57, 0
4, 47976, Note_on_c, 1, 60, 70
4, 47999, Note_on_c, 1, 60, 0
4, 48000, Note_on_c, 1, 55, 70
4, 48023, Note_on_c, 1, 55, 0
4, 48024, Note_on_c, 1, 58, 70
4, 48047, Note_on_c, 1, 58, 0
4, 48048, Note_on_c, 1, 53, 70
4, 48071, Note_on_c, 1, 53, 0
4, 48072, Note_on_c, 1, 57, 70
4, 48095, Note_on_c, 1, 57, 0
4, 48096, Note_on_c, 1, 52, 58
4, 48119, Note_on_c, 1, 52, 0
4, 48120, Note_on_c, 1, 55, 59
4, 48143, Note_on_c, 1, 55, 0
4, 48144, Note_on_c, 1, 50, 60
4, 48167, Note_on_c, 1, 50, 0
4, 48168, Note_on_c, 1, 53, 61
4, 48191, Note_on_c, 1, 53, 0
4, 48192, Note_on_c, 1, 48, 62
4, 48215, Note_on_c, 1, 48, 0
4, 48216, Note_on_c, 1, 52, 63
4, 48239, Note_on_c, 1, 52, 0
4, 48240, Note_on_c, 1, 50, 64
4, 48263, Note_on_c, 1, 50, 0
4, 48264, Note_on_c, 1, 53, 65
4, 48287, Note_on_c, 1, 53, 0
4, 48288, Note_on_c, 1, 52, 66
4, 48311, Note_on_c, 1, 52, 0
4, 48312, Note_on_c, 1, 55, 67
4, 48335, Note_on_c, 1, 55, 0
4, 48336, Note_on_c, 1, 48, 68
4, 48359, Note_on_c, 1, 48, 0
4, 48360, Note_on_c, 1, 52, 69
4, 48383, Note_on_c, 1, 52, 0
4, 48384, Note_on_c, 1, 53, 70
4, 48429, Note_on_c, 1, 53, 0
4, 48432, Note_on_c, 1, 55, 70
4, 48477, Note_on_c, 1, 55, 0
4, 48480, Note_on_c, 1, 57, 70
4, 48525, Note_on_c, 1, 57, 0
4, 48528, Note_on_c, 1, 58, 70
4, 48573, Note_on_c, 1, 58, 0
4, 48576, Note_on_c, 1, 57, 70
4, 48621, Note_on_c, 1, 57, 0
4, 48624, Note_on_c, 1, 45, 70
4, 48669, Note_on_c, 1, 45, 0
4, 48672, Note_on_c, 1, 46, 70
4, 48768, Note_on_c, 1, 46, 0
4, 48768, Note_on_c, 1, 48, 67
4, 48857, Note_on_c, 1, 48, 0
4, 48864, Note_on_c, 1, 36, 65
4, 48953, Note_on_c, 1, 36, 0
4, 48960, Note_on_c, 1, 41, 70
4, 48970, Note_on_c, 1, 41, 0
4, 48984, Note_on_c, 1, 53, 70
4, 49007, Note_on_c, 1, 53, 0
4, 49008, Note_on_c, 1, 52, 70
4, 49031, Note_on_c, 1, 52, 0
4, 49032, Note_on_c, 1, 53, 70
4, 49055, Note_on_c, 1, 53, 0
4, 49056, Note_on_c, 1, 43, 70
4, 49066, Note_on_c, 1, 43, 0
4, 49080, Note_on_c, 1, 55, 70
4, 49103, Note_on_c, 1, 55, 0
4, 49104, Note_on_c, 1, 53, 70
4, 49127, Note_on_c, 1, 53, 0
4, 49128, Note_on_c, 1, 55, 70
4, 49151, Note_on_c, 1, 55, 0
4, 49152, Note_on_c, 1, 45, 70
4, 49162, Note_on_c, 1, 45, 0
4, 49176, Note_on_c, 1, 57, 70
4, 49199, Note_on_c, 1, 57, 0
4, 49200, Note_on_c, 1, 55, 70
4, 49223, Note_on_c, 1, 55, 0
4, 49224, Note_on_c, 1, 57, 70
4, 49247, Note_on_c, 1, 57, 0
4, 49248, Note_on_c, 1, 46, 70
4, 49258, Note_on_c, 1, 46, 0
4, 49272, Note_on_c, 1, 58, 69
4, 49295, Note_on_c, 1, 58, 0
4, 49296, Note_on_c, 1, 57, 68
4, 49319, Note_on_c, 1, 57, 0
4, 49320, Note_on_c, 1, 58, 68
4, 49343, Note_on_c, 1, 58, 0
4, 49344, Note_on_c, 1, 48, 67
4, 49354, Note_on_c, 1, 48, 0
4, 49368, Note_on_c, 1, 60, 67
4, 49391, Note_on_c, 1, 60, 0
4, 49392, Note_on_c, 1, 59, 66
4, 49415, Note_on_c, 1, 59, 0
4, 49416, Note_on_c, 1, 60, 65
4, 49439, Note_on_c, 1, 60, 0
4, 49440, Note_on_c, 1, 48, 65
4, 49450, Note_on_c, 1, 48, 0
4, 49464, Note_on_c, 1, 60, 64
4, 49487, Note_on_c, 1, 60, 0
4, 49488, Note_on_c, 1, 59, 64
4, 49511, Note_on_c, 1, 59, 0
4, 49512, Note_on_c, 1, 60, 63
4, 49535, Note_on_c, 1, 60, 0
4, 49536, Note_on_c, 1, 53, 70
4, 49575, Note_on_c, 1, 53, 0
4, 49632, Note_on_c, 1, 53, 70
4, 49632, Note_on_c, 1, 41, 70
4, 49726, Note_on_c, 1, 53, 0
4, 49726, Note_on_c, 1, 41, 0
4, 49728, Note_on_c, 1, 53, 70
4, 49728, Note_on_c, 1, 41, 70
4, 49822, Note_on_c, 1, 53, 0
4, 49822, Note_on_c, 1, 41, 0
4, 49824, Note_on_c, 1, 53, 70
4, 49824, Note_on_c, 1, 41, 70
4, 49918, Note_on_c, 1, 53, 0
4, 49918, Note_on_c, 1, 41, 0
4, 49920, Note_on_c, 1, 53, 70
4, 49920, Note_on_c, 1, 41, 70
4, 50014, Note_on_c, 1, 53, 0
4, 50014, Note_on_c, 1, 41, 0
4, 50016, Note_on_c, 1, 53, 71
4, 50016, Note_on_c, 1, 41, 71
4, 50110, Note_on_c, 1, 53, 0
4, 50110, Note_on_c, 1, 41, 0
4, 50136, Note_on_c, 1, 65, 71
4, 50136, Note_on_c, 1, 62, 71
4, 50159, Note_on_c, 1, 65, 0
4, 50159, Note_on_c, 1, 62, 0
4, 50160, Note_on_c, 1, 63, 71
4, 50160, Note_on_c, 1, 60, 71
4, 50183, Note_on_c, 1, 63, 0
4, 50183, Note_on_c, 1, 60, 0
4, 50184, Note_on_c, 1, 65, 72
4, 50184, Note_on_c, 1, 62, 72
4, 50207, Note_on_c, 1, 65, 0
4, 50207, Note_on_c, 1, 62, 0
4, 50232, Note_on_c, 1, 62, 72
4, 50232, Note_on_c, 1, 58, 72
4, 50255, Note_on_c, 1, 62, 0
4, 50255, Note_on_c, 1, 58, 0
4, 50256, Note_on_c, 1, 60, 72
4, 50256, Note_on_c, 1, 57, 72
4, 50279, Note_on_c, 1, 60, 0
4, 50279, Note_on_c, 1, 57, 0
4, 50280, Note_on_c, 1, 62, 72
4, 50280, Note_on_c, 1, 58, 72
4, 50303, Note_on_c, 1, 62, 0
4, 50303, Note_on_c, 1, 58, 0
4, 50328, Note_on_c, 1, 58, 72
4, 50328, Note_on_c, 1, 55, 72
4, 50351, Note_on_c, 1, 58, 0
4, 50351, Note_on_c, 1, 55, 0
4, 50352, Note_on_c, 1, 57, 73
4, 50352, Note_on_c, 1, 53, 73
4, 50375, Note_on_c, 1, 57, 0
4, 50375, Note_on_c, 1, 53, 0
4, 50376, Note_on_c, 1, 58, 73
4, 50376, Note_on_c, 1, 55, 73
4, 50399, Note_on_c, 1, 58, 0
4, 50399, Note_on_c, 1, 55, 0
4, 50400, Note_on_c, 1, 55, 73
4, 50400, Note_on_c, 1, 52, 73
4, 50496, Note_on_c, 1, 55, 0
4, 50496, Note_on_c, 1, 52, 0
4, 50496, Note_on_c, 1, 60, 73
4, 50585, Note_on_c, 1, 60, 0
4, 50592, Note_on_c, 1, 53, 74
4, 50681, Note_on_c, 1, 53, 0
4, 50688, Note_on_c, 1, 58, 75
4, 50777, Note_on_c, 1, 58, 0
4, 50784, Note_on_c, 1, 60, 73
4, 50873, Note_on_c, 1, 60, 0
4, 50880, Note_on_c, 1, 48, 71
4, 50969, Note_on_c, 1, 48, 0
4, 50976, Note_on_c, 1, 53, 70
4, 51065, Note_on_c, 1, 53, 0
4, 51216, Note_on_c, 1, 57, 75
4, 51216, Note_on_c, 1, 53, 75
4, 51261, Note_on_c, 1, 57, 0
4, 51261, Note_on_c, 1, 53, 0
4, 51264, Note_on_c, 1, 58, 75
4, 51264, Note_on_c, 1, 55, 75
4, 51264, Note_on_c, 1, 52, 75
4, 51353, Note_on_c, 1, 58, 0
4, 51353, Note_on_c, 1, 55, 0
4, 51353, Note_on_c, 1, 52, 0
4, 51504, Note_on_c, 1, 58, 75
4, 51504, Note_on_c, 1, 55, 75
4, 51504, Note_on_c, 1, 52, 75
4, 51549, Note_on_c, 1, 58, 0
4, 51549, Note_on_c, 1, 55, 0
4, 51549, Note_on_c, 1, 52, 0
4, 51552, Note_on_c, 1, 57, 75
4, 51552, Note_on_c, 1, 53, 75
4, 51641, Note_on_c, 1, 57, 0
4, 51641, Note_on_c, 1, 53, 0
4, 51792, Note_on_c, 1, 57, 58
4, 51792, Note_on_c, 1, 53, 58
4, 51837, Note_on_c, 1, 57, 0
4, 51837, Note_on_c, 1, 53, 0
4, 51840, Note_on_c, 1, 58, 58
4, 51840, Note_on_c, 1, 55, 58
4, 51840, Note_on_c, 1, 52, 58
4, 51929, Note_on_c, 1, 58, 0
4, 51929, Note_on_c, 1, 55, 0
4, 51929, Note_on_c, 1, 52, 0
4, 52080, Note_on_c, 1, 58, 58
4, 52080, Note_on_c, 1, 55, 58
4, 52080, Note_on_c, 1, 52, 58
4, 52125, Note_on_c, 1, 58, 0
4, 52125, Note_on_c, 1, 55, 0
4, 52125, Note_on_c, 1, 52, 0
4, 52128, Note_on_c, 1, 57, 58
4, 52128, Note_on_c, 1, 53, 58
4, 52217, Note_on_c, 1, 57, 0
4, 52217, Note_on_c, 1, 53, 0
4, 52320, Note_on_c, 1, 45, 75
4, 52409, Note_on_c, 1, 45, 0
4, 52416, Note_on_c, 1, 58, 75
4, 52512, Note_on_c, 1, 58, 0
4, 52512, Note_on_c, 1, 60, 69
4, 52601, Note_on_c, 1, 60, 0
4, 52608, Note_on_c, 1, 48, 63
4, 52697, Note_on_c, 1, 48, 0
4, 52704, Note_on_c, 1, 41, 63
4, 52727, Note_on_c, 1, 41, 0
4, 52728, Note_on_c, 1, 53, 63
4, 52751, Note_on_c, 1, 53, 0
4, 52752, Note_on_c, 1, 52, 63
4, 52775, Note_on_c, 1, 52, 0
4, 52776, Note_on_c, 1, 53, 63
4, 52799, Note_on_c, 1, 53, 0
4, 52800, Note_on_c, 1, 48, 63
4, 52823, Note_on_c, 1, 48, 0
4, 52824, Note_on_c, 1, 53, 63
4, 52847, Note_on_c, 1, 53, 0
4, 52848, Note_on_c, 1, 45, 63
4, 52858, Note_on_c, 1, 45, 0
4, 52872, Note_on_c, 1, 48, 63
4, 52882, Note_on_c, 1, 48, 0
4, 52896, Note_on_c, 1, 41, 63
4, 52920, Note_on_c, 1, 41, 0
4, 52920, Note_on_c, 1, 45, 63
4, 52943, Note_on_c, 1, 45, 0
4, 52944, Note_on_c, 1, 48, 63
4, 52954, Note_on_c, 1, 48, 0
4, 52968, Note_on_c, 1, 53, 63
4, 52978, Note_on_c, 1, 53, 0
4, 52992, Note_on_c, 1, 41, 63
4, 53169, Note_on_c, 1, 41, 0
4, 53280, Note_on_c, 1, 41, 0
4, 53457, Note_on_c, 1, 41, 0
4, 53472, End_track
5, 0, Start_track
5, 0, Title_t, "<No Title>"
5, 0, End_track
0, 0, End_of_file
