0, 0, Header, 1, 6, 96
1, 0, Start_track
1, 0, Copyright_t, "Copyright  2000 <copyright holder>"
1, 0, Text_t, "Sonata VI\015\012"
1, 0, Text_t, "Haydn"
1, 0, Sequencer_specific, 16, 68, 87, 77, 90, 86, 82, 83, 78, 32, 54, 46, 48, 46, 57, 46, 48
1, 0, Time_signature, 4, 2, 24, 8
1, 0, Tempo, 722891
1, 0, Key_signature, 2, "major"
1, 53760, End_track
2, 0, Start_track
2, 0, Program_c, 0, 0
2, 0, Control_c, 0, 7, 127
2, 0, Control_c, 0, 10, 79
2, 0, Note_on_c, 0, 59, 64
2, 12, Note_on_c, 0, 59, 0
2, 12, Note_on_c, 0, 58, 64
2, 24, Note_on_c, 0, 58, 0
2, 24, Note_on_c, 0, 59, 64
2, 179, Note_on_c, 0, 59, 0
2, 192, Note_on_c, 0, 66, 64
2, 204, Note_on_c, 0, 66, 0
2, 204, Note_on_c, 0, 65, 64
2, 216, Note_on_c, 0, 65, 0
2, 216, Note_on_c, 0, 66, 64
2, 371, Note_on_c, 0, 66, 0
2, 384, Note_on_c, 0, 71, 64
2, 396, Note_on_c, 0, 71, 0
2, 396, Note_on_c, 0, 70, 64
2, 408, Note_on_c, 0, 70, 0
2, 408, Note_on_c, 0, 71, 64
2, 521, Note_on_c, 0, 71, 0
2, 528, Note_on_c, 0, 73, 64
2, 562, Note_on_c, 0, 73, 0
2, 564, Note_on_c, 0, 74, 64
2, 576, Note_on_c, 0, 74, 0
2, 576, Note_on_c, 0, 71, 64
2, 621, Note_on_c, 0, 71, 0
2, 624, Note_on_c, 0, 78, 64
2, 644, Note_on_c, 0, 78, 0
2, 672, Note_on_c, 0, 78, 64
2, 692, Note_on_c, 0, 78, 0
2, 720, Note_on_c, 0, 78, 64
2, 740, Note_on_c, 0, 78, 0
2, 768, Note_on_c, 0, 78, 64
2, 887, Note_on_c, 0, 78, 0
2, 888, Note_on_c, 0, 79, 64
2, 894, Note_on_c, 0, 79, 0
2, 894, Note_on_c, 0, 78, 64
2, 900, Note_on_c, 0, 78, 0
2, 900, Note_on_c, 0, 76, 64
2, 906, Note_on_c, 0, 76, 0
2, 906, Note_on_c, 0, 78, 64
2, 912, Note_on_c, 0, 78, 0
2, 912, Note_on_c, 0, 79, 64
2, 946, Note_on_c, 0, 79, 0
2, 948, Note_on_c, 0, 76, 64
2, 960, Note_on_c, 0, 76, 0
2, 960, Note_on_c, 0, 76, 64
2, 1056, Note_on_c, 0, 76, 0
2, 1056, Note_on_c, 0, 74, 64
2, 1068, Note_on_c, 0, 74, 0
2, 1068, Note_on_c, 0, 76, 64
2, 1080, Note_on_c, 0, 76, 0
2, 1080, Note_on_c, 0, 74, 64
2, 1101, Note_on_c, 0, 74, 0
2, 1104, Note_on_c, 0, 78, 64
2, 1138, Note_on_c, 0, 78, 0
2, 1140, Note_on_c, 0, 71, 64
2, 1152, Note_on_c, 0, 71, 0
2, 1152, Note_on_c, 0, 74, 64
2, 1164, Note_on_c, 0, 74, 0
2, 1164, Note_on_c, 0, 73, 64
2, 1176, Note_on_c, 0, 73, 0
2, 1176, Note_on_c, 0, 71, 64
2, 1188, Note_on_c, 0, 71, 0
2, 1188, Note_on_c, 0, 73, 64
2, 1200, Note_on_c, 0, 73, 0
2, 1200, Note_on_c, 0, 71, 64
2, 1245, Note_on_c, 0, 71, 0
2, 1248, Note_on_c, 0, 74, 64
2, 1271, Note_on_c, 0, 74, 0
2, 1272, Note_on_c, 0, 73, 64
2, 1295, Note_on_c, 0, 73, 0
2, 1296, Note_on_c, 0, 71, 64
2, 1319, Note_on_c, 0, 71, 0
2, 1320, Note_on_c, 0, 70, 64
2, 1343, Note_on_c, 0, 70, 0
2, 1344, Note_on_c, 0, 71, 64
2, 1433, Note_on_c, 0, 71, 0
2, 1488, Note_on_c, 0, 83, 64
2, 1512, Note_on_c, 0, 83, 0
2, 1512, Note_on_c, 0, 79, 64
2, 1535, Note_on_c, 0, 79, 0
2, 1536, Note_on_c, 0, 78, 64
2, 1559, Note_on_c, 0, 78, 0
2, 1560, Note_on_c, 0, 76, 64
2, 1583, Note_on_c, 0, 76, 0
2, 1584, Note_on_c, 0, 75, 64
2, 1607, Note_on_c, 0, 75, 0
2, 1608, Note_on_c, 0, 76, 64
2, 1631, Note_on_c, 0, 76, 0
2, 1632, Note_on_c, 0, 78, 64
2, 1656, Note_on_c, 0, 78, 0
2, 1656, Note_on_c, 0, 76, 64
2, 1679, Note_on_c, 0, 76, 0
2, 1680, Note_on_c, 0, 79, 64
2, 1704, Note_on_c, 0, 79, 0
2, 1704, Note_on_c, 0, 76, 64
2, 1727, Note_on_c, 0, 76, 0
2, 1728, Note_on_c, 0, 70, 64
2, 1824, Note_on_c, 0, 70, 0
2, 1824, Note_on_c, 0, 71, 64
2, 1844, Note_on_c, 0, 71, 0
2, 1872, Note_on_c, 0, 83, 64
2, 1896, Note_on_c, 0, 83, 0
2, 1896, Note_on_c, 0, 79, 64
2, 1919, Note_on_c, 0, 79, 0
2, 1920, Note_on_c, 0, 78, 64
2, 1943, Note_on_c, 0, 78, 0
2, 1944, Note_on_c, 0, 76, 64
2, 1967, Note_on_c, 0, 76, 0
2, 1968, Note_on_c, 0, 75, 64
2, 1991, Note_on_c, 0, 75, 0
2, 1992, Note_on_c, 0, 76, 64
2, 2015, Note_on_c, 0, 76, 0
2, 2016, Note_on_c, 0, 78, 64
2, 2040, Note_on_c, 0, 78, 0
2, 2040, Note_on_c, 0, 76, 64
2, 2063, Note_on_c, 0, 76, 0
2, 2064, Note_on_c, 0, 79, 64
2, 2088, Note_on_c, 0, 79, 0
2, 2088, Note_on_c, 0, 76, 64
2, 2111, Note_on_c, 0, 76, 0
2, 2112, Note_on_c, 0, 70, 64
2, 2208, Note_on_c, 0, 70, 0
2, 2208, Note_on_c, 0, 71, 64
2, 2228, Note_on_c, 0, 71, 0
2, 2256, Note_on_c, 0, 83, 64
2, 2280, Note_on_c, 0, 83, 0
2, 2280, Note_on_c, 0, 79, 64
2, 2303, Note_on_c, 0, 79, 0
2, 2304, Note_on_c, 0, 78, 64
2, 2327, Note_on_c, 0, 78, 0
2, 2328, Note_on_c, 0, 76, 64
2, 2351, Note_on_c, 0, 76, 0
2, 2352, Note_on_c, 0, 75, 64
2, 2375, Note_on_c, 0, 75, 0
2, 2376, Note_on_c, 0, 76, 64
2, 2399, Note_on_c, 0, 76, 0
2, 2400, Note_on_c, 0, 78, 64
2, 2424, Note_on_c, 0, 78, 0
2, 2424, Note_on_c, 0, 76, 64
2, 2447, Note_on_c, 0, 76, 0
2, 2448, Note_on_c, 0, 79, 64
2, 2472, Note_on_c, 0, 79, 0
2, 2472, Note_on_c, 0, 76, 64
2, 2495, Note_on_c, 0, 76, 0
2, 2496, Note_on_c, 0, 82, 64
2, 2496, Note_on_c, 0, 73, 64
2, 2592, Note_on_c, 0, 82, 0
2, 2592, Note_on_c, 0, 73, 0
2, 2592, Note_on_c, 0, 83, 64
2, 2592, Note_on_c, 0, 74, 64
2, 2612, Note_on_c, 0, 83, 0
2, 2612, Note_on_c, 0, 74, 0
2, 2640, Note_on_c, 0, 79, 64
2, 2652, Note_on_c, 0, 79, 0
2, 2652, Note_on_c, 0, 78, 64
2, 2664, Note_on_c, 0, 78, 0
2, 2664, Note_on_c, 0, 79, 64
2, 2685, Note_on_c, 0, 79, 0
2, 2688, Note_on_c, 0, 78, 64
2, 2688, Note_on_c, 0, 74, 64
2, 2733, Note_on_c, 0, 78, 0
2, 2733, Note_on_c, 0, 74, 0
2, 2736, Note_on_c, 0, 76, 64
2, 2736, Note_on_c, 0, 73, 64
2, 2781, Note_on_c, 0, 76, 0
2, 2781, Note_on_c, 0, 73, 0
2, 2784, Note_on_c, 0, 74, 64
2, 2796, Note_on_c, 0, 74, 0
2, 2796, Note_on_c, 0, 76, 64
2, 2808, Note_on_c, 0, 76, 0
2, 2808, Note_on_c, 0, 74, 64
2, 2829, Note_on_c, 0, 74, 0
2, 2832, Note_on_c, 0, 73, 64
2, 2832, Note_on_c, 0, 70, 64
2, 2877, Note_on_c, 0, 73, 0
2, 2877, Note_on_c, 0, 70, 0
2, 2880, Note_on_c, 0, 71, 64
2, 2892, Note_on_c, 0, 71, 0
2, 2892, Note_on_c, 0, 73, 64
2, 2904, Note_on_c, 0, 73, 0
2, 2904, Note_on_c, 0, 71, 64
2, 2969, Note_on_c, 0, 71, 0
2, 3072, Note_on_c, 0, 59, 64
2, 3084, Note_on_c, 0, 59, 0
2, 3084, Note_on_c, 0, 58, 64
2, 3096, Note_on_c, 0, 58, 0
2, 3096, Note_on_c, 0, 59, 64
2, 3251, Note_on_c, 0, 59, 0
2, 3264, Note_on_c, 0, 66, 64
2, 3276, Note_on_c, 0, 66, 0
2, 3276, Note_on_c, 0, 65, 64
2, 3288, Note_on_c, 0, 65, 0
2, 3288, Note_on_c, 0, 66, 64
2, 3443, Note_on_c, 0, 66, 0
2, 3456, Note_on_c, 0, 71, 64
2, 3589, Note_on_c, 0, 71, 0
2, 3600, Note_on_c, 0, 73, 64
2, 3634, Note_on_c, 0, 73, 0
2, 3636, Note_on_c, 0, 74, 64
2, 3648, Note_on_c, 0, 74, 0
2, 3648, Note_on_c, 0, 71, 64
2, 3668, Note_on_c, 0, 71, 0
2, 3696, Note_on_c, 0, 73, 64
2, 3730, Note_on_c, 0, 73, 0
2, 3732, Note_on_c, 0, 74, 64
2, 3744, Note_on_c, 0, 74, 0
2, 3744, Note_on_c, 0, 71, 64
2, 3764, Note_on_c, 0, 71, 0
2, 3792, Note_on_c, 0, 73, 64
2, 3826, Note_on_c, 0, 73, 0
2, 3828, Note_on_c, 0, 74, 64
2, 3840, Note_on_c, 0, 74, 0
2, 3840, Note_on_c, 0, 71, 64
2, 3973, Note_on_c, 0, 71, 0
2, 3984, Note_on_c, 0, 73, 64
2, 4018, Note_on_c, 0, 73, 0
2, 4020, Note_on_c, 0, 74, 64
2, 4032, Note_on_c, 0, 74, 0
2, 4032, Note_on_c, 0, 69, 64
2, 4162, Note_on_c, 0, 69, 0
2, 4164, Note_on_c, 0, 74, 64
2, 4176, Note_on_c, 0, 74, 0
2, 4176, Note_on_c, 0, 78, 64
2, 4210, Note_on_c, 0, 78, 0
2, 4212, Note_on_c, 0, 81, 64
2, 4224, Note_on_c, 0, 81, 0
2, 4224, Note_on_c, 0, 79, 64
2, 4258, Note_on_c, 0, 79, 0
2, 4260, Note_on_c, 0, 83, 64
2, 4272, Note_on_c, 0, 83, 0
2, 4272, Note_on_c, 0, 76, 64
2, 4306, Note_on_c, 0, 76, 0
2, 4308, Note_on_c, 0, 79, 64
2, 4320, Note_on_c, 0, 79, 0
2, 4320, Note_on_c, 0, 78, 64
2, 4354, Note_on_c, 0, 78, 0
2, 4356, Note_on_c, 0, 74, 64
2, 4368, Note_on_c, 0, 74, 0
2, 4368, Note_on_c, 0, 86, 64
2, 4402, Note_on_c, 0, 86, 0
2, 4404, Note_on_c, 0, 78, 64
2, 4416, Note_on_c, 0, 78, 0
2, 4416, Note_on_c, 0, 79, 64
2, 4424, Note_on_c, 0, 79, 0
2, 4424, Note_on_c, 0, 78, 64
2, 4432, Note_on_c, 0, 78, 0
2, 4432, Note_on_c, 0, 79, 64
2, 4440, Note_on_c, 0, 79, 0
2, 4440, Note_on_c, 0, 78, 64
2, 4448, Note_on_c, 0, 78, 0
2, 4448, Note_on_c, 0, 76, 64
2, 4456, Note_on_c, 0, 76, 0
2, 4456, Note_on_c, 0, 78, 64
2, 4464, Note_on_c, 0, 78, 0
2, 4464, Note_on_c, 0, 76, 64
2, 4509, Note_on_c, 0, 76, 0
2, 4656, Note_on_c, 0, 74, 64
2, 4680, Note_on_c, 0, 74, 0
2, 4680, Note_on_c, 0, 62, 64
2, 4703, Note_on_c, 0, 62, 0
2, 4704, Note_on_c, 0, 73, 64
2, 4728, Note_on_c, 0, 73, 0
2, 4728, Note_on_c, 0, 62, 64
2, 4751, Note_on_c, 0, 62, 0
2, 4752, Note_on_c, 0, 72, 64
2, 4776, Note_on_c, 0, 72, 0
2, 4776, Note_on_c, 0, 62, 64
2, 4799, Note_on_c, 0, 62, 0
2, 4800, Note_on_c, 0, 71, 64
2, 4824, Note_on_c, 0, 71, 0
2, 4824, Note_on_c, 0, 62, 64
2, 4847, Note_on_c, 0, 62, 0
2, 4848, Note_on_c, 0, 70, 64
2, 4872, Note_on_c, 0, 70, 0
2, 4872, Note_on_c, 0, 62, 64
2, 4895, Note_on_c, 0, 62, 0
2, 4896, Note_on_c, 0, 71, 64
2, 4920, Note_on_c, 0, 71, 0
2, 4920, Note_on_c, 0, 62, 64
2, 4943, Note_on_c, 0, 62, 0
2, 4944, Note_on_c, 0, 67, 64
2, 4968, Note_on_c, 0, 67, 0
2, 4968, Note_on_c, 0, 62, 64
2, 4991, Note_on_c, 0, 62, 0
2, 4992, Note_on_c, 0, 66, 64
2, 5016, Note_on_c, 0, 66, 0
2, 5016, Note_on_c, 0, 62, 64
2, 5039, Note_on_c, 0, 62, 0
2, 5040, Note_on_c, 0, 74, 64
2, 5064, Note_on_c, 0, 74, 0
2, 5064, Note_on_c, 0, 62, 64
2, 5087, Note_on_c, 0, 62, 0
2, 5088, Note_on_c, 0, 73, 64
2, 5112, Note_on_c, 0, 73, 0
2, 5112, Note_on_c, 0, 62, 64
2, 5135, Note_on_c, 0, 62, 0
2, 5136, Note_on_c, 0, 72, 64
2, 5160, Note_on_c, 0, 72, 0
2, 5160, Note_on_c, 0, 62, 64
2, 5183, Note_on_c, 0, 62, 0
2, 5184, Note_on_c, 0, 71, 64
2, 5208, Note_on_c, 0, 71, 0
2, 5208, Note_on_c, 0, 62, 64
2, 5231, Note_on_c, 0, 62, 0
2, 5232, Note_on_c, 0, 70, 64
2, 5256, Note_on_c, 0, 70, 0
2, 5256, Note_on_c, 0, 62, 64
2, 5279, Note_on_c, 0, 62, 0
2, 5280, Note_on_c, 0, 71, 64
2, 5304, Note_on_c, 0, 71, 0
2, 5304, Note_on_c, 0, 62, 64
2, 5327, Note_on_c, 0, 62, 0
2, 5328, Note_on_c, 0, 67, 64
2, 5352, Note_on_c, 0, 67, 0
2, 5352, Note_on_c, 0, 62, 64
2, 5375, Note_on_c, 0, 62, 0
2, 5376, Note_on_c, 0, 66, 64
2, 5400, Note_on_c, 0, 66, 0
2, 5400, Note_on_c, 0, 62, 64
2, 5423, Note_on_c, 0, 62, 0
2, 5424, Note_on_c, 0, 74, 64
2, 5448, Note_on_c, 0, 74, 0
2, 5448, Note_on_c, 0, 62, 64
2, 5471, Note_on_c, 0, 62, 0
2, 5472, Note_on_c, 0, 73, 64
2, 5496, Note_on_c, 0, 73, 0
2, 5496, Note_on_c, 0, 62, 64
2, 5519, Note_on_c, 0, 62, 0
2, 5520, Note_on_c, 0, 72, 64
2, 5544, Note_on_c, 0, 72, 0
2, 5544, Note_on_c, 0, 62, 64
2, 5567, Note_on_c, 0, 62, 0
2, 5568, Note_on_c, 0, 71, 64
2, 5592, Note_on_c, 0, 71, 0
2, 5592, Note_on_c, 0, 62, 64
2, 5615, Note_on_c, 0, 62, 0
2, 5616, Note_on_c, 0, 70, 64
2, 5640, Note_on_c, 0, 70, 0
2, 5640, Note_on_c, 0, 62, 64
2, 5663, Note_on_c, 0, 62, 0
2, 5664, Note_on_c, 0, 71, 64
2, 5688, Note_on_c, 0, 71, 0
2, 5688, Note_on_c, 0, 62, 64
2, 5711, Note_on_c, 0, 62, 0
2, 5712, Note_on_c, 0, 74, 64
2, 5736, Note_on_c, 0, 74, 0
2, 5736, Note_on_c, 0, 62, 64
2, 5759, Note_on_c, 0, 62, 0
2, 5760, Note_on_c, 0, 69, 64
2, 5784, Note_on_c, 0, 69, 0
2, 5784, Note_on_c, 0, 62, 64
2, 5807, Note_on_c, 0, 62, 0
2, 5808, Note_on_c, 0, 68, 64
2, 5832, Note_on_c, 0, 68, 0
2, 5832, Note_on_c, 0, 62, 64
2, 5855, Note_on_c, 0, 62, 0
2, 5856, Note_on_c, 0, 69, 64
2, 5880, Note_on_c, 0, 69, 0
2, 5880, Note_on_c, 0, 62, 64
2, 5903, Note_on_c, 0, 62, 0
2, 5904, Note_on_c, 0, 72, 64
2, 5928, Note_on_c, 0, 72, 0
2, 5928, Note_on_c, 0, 62, 64
2, 5951, Note_on_c, 0, 62, 0
2, 5952, Note_on_c, 0, 71, 64
2, 5976, Note_on_c, 0, 71, 0
2, 5976, Note_on_c, 0, 62, 64
2, 5999, Note_on_c, 0, 62, 0
2, 6000, Note_on_c, 0, 70, 64
2, 6024, Note_on_c, 0, 70, 0
2, 6024, Note_on_c, 0, 62, 64
2, 6047, Note_on_c, 0, 62, 0
2, 6048, Note_on_c, 0, 71, 64
2, 6072, Note_on_c, 0, 71, 0
2, 6072, Note_on_c, 0, 62, 64
2, 6095, Note_on_c, 0, 62, 0
2, 6096, Note_on_c, 0, 74, 64
2, 6120, Note_on_c, 0, 74, 0
2, 6120, Note_on_c, 0, 62, 64
2, 6143, Note_on_c, 0, 62, 0
2, 6144, Note_on_c, 0, 69, 64
2, 6168, Note_on_c, 0, 69, 0
2, 6168, Note_on_c, 0, 62, 64
2, 6191, Note_on_c, 0, 62, 0
2, 6192, Note_on_c, 0, 68, 64
2, 6216, Note_on_c, 0, 68, 0
2, 6216, Note_on_c, 0, 62, 64
2, 6239, Note_on_c, 0, 62, 0
2, 6240, Note_on_c, 0, 69, 64
2, 6264, Note_on_c, 0, 69, 0
2, 6264, Note_on_c, 0, 62, 64
2, 6287, Note_on_c, 0, 62, 0
2, 6288, Note_on_c, 0, 72, 64
2, 6312, Note_on_c, 0, 72, 0
2, 6312, Note_on_c, 0, 62, 64
2, 6335, Note_on_c, 0, 62, 0
2, 6336, Note_on_c, 0, 71, 64
2, 6360, Note_on_c, 0, 71, 0
2, 6360, Note_on_c, 0, 62, 64
2, 6383, Note_on_c, 0, 62, 0
2, 6384, Note_on_c, 0, 71, 64
2, 6408, Note_on_c, 0, 71, 0
2, 6408, Note_on_c, 0, 62, 64
2, 6431, Note_on_c, 0, 62, 0
2, 6432, Note_on_c, 0, 69, 64
2, 6456, Note_on_c, 0, 69, 0
2, 6456, Note_on_c, 0, 63, 64
2, 6479, Note_on_c, 0, 63, 0
2, 6480, Note_on_c, 0, 69, 64
2, 6504, Note_on_c, 0, 69, 0
2, 6504, Note_on_c, 0, 63, 64
2, 6527, Note_on_c, 0, 63, 0
2, 6528, Note_on_c, 0, 67, 64
2, 6551, Note_on_c, 0, 67, 0
2, 6552, Note_on_c, 0, 64, 64
2, 6575, Note_on_c, 0, 64, 0
2, 6576, Note_on_c, 0, 67, 64
2, 6599, Note_on_c, 0, 67, 0
2, 6600, Note_on_c, 0, 64, 64
2, 6623, Note_on_c, 0, 64, 0
2, 6624, Note_on_c, 0, 66, 64
2, 6647, Note_on_c, 0, 66, 0
2, 6648, Note_on_c, 0, 63, 64
2, 6671, Note_on_c, 0, 63, 0
2, 6672, Note_on_c, 0, 66, 64
2, 6695, Note_on_c, 0, 66, 0
2, 6696, Note_on_c, 0, 63, 64
2, 6719, Note_on_c, 0, 63, 0
2, 6720, Note_on_c, 0, 67, 64
2, 6743, Note_on_c, 0, 67, 0
2, 6744, Note_on_c, 0, 64, 64
2, 6767, Note_on_c, 0, 64, 0
2, 6768, Note_on_c, 0, 67, 64
2, 6791, Note_on_c, 0, 67, 0
2, 6792, Note_on_c, 0, 64, 64
2, 6815, Note_on_c, 0, 64, 0
2, 6816, Note_on_c, 0, 66, 64
2, 6839, Note_on_c, 0, 66, 0
2, 6840, Note_on_c, 0, 62, 64
2, 6863, Note_on_c, 0, 62, 0
2, 6864, Note_on_c, 0, 66, 64
2, 6887, Note_on_c, 0, 66, 0
2, 6888, Note_on_c, 0, 62, 64
2, 6911, Note_on_c, 0, 62, 0
2, 6912, Note_on_c, 0, 61, 64
2, 6957, Note_on_c, 0, 61, 0
2, 6960, Note_on_c, 0, 62, 64
2, 7005, Note_on_c, 0, 62, 0
2, 7008, Note_on_c, 0, 64, 64
2, 7053, Note_on_c, 0, 64, 0
2, 7056, Note_on_c, 0, 67, 64
2, 7068, Note_on_c, 0, 67, 0
2, 7068, Note_on_c, 0, 66, 64
2, 7080, Note_on_c, 0, 66, 0
2, 7080, Note_on_c, 0, 64, 64
2, 7092, Note_on_c, 0, 64, 0
2, 7092, Note_on_c, 0, 66, 64
2, 7104, Note_on_c, 0, 66, 0
2, 7104, Note_on_c, 0, 67, 64
2, 7149, Note_on_c, 0, 67, 0
2, 7152, Note_on_c, 0, 66, 64
2, 7197, Note_on_c, 0, 66, 0
2, 7200, Note_on_c, 0, 67, 64
2, 7245, Note_on_c, 0, 67, 0
2, 7248, Note_on_c, 0, 64, 64
2, 7293, Note_on_c, 0, 64, 0
2, 7296, Note_on_c, 0, 66, 64
2, 7319, Note_on_c, 0, 66, 0
2, 7320, Note_on_c, 0, 62, 64
2, 7343, Note_on_c, 0, 62, 0
2, 7344, Note_on_c, 0, 67, 64
2, 7367, Note_on_c, 0, 67, 0
2, 7368, Note_on_c, 0, 62, 64
2, 7391, Note_on_c, 0, 62, 0
2, 7392, Note_on_c, 0, 69, 64
2, 7415, Note_on_c, 0, 69, 0
2, 7416, Note_on_c, 0, 62, 64
2, 7439, Note_on_c, 0, 62, 0
2, 7440, Note_on_c, 0, 72, 64
2, 7452, Note_on_c, 0, 72, 0
2, 7452, Note_on_c, 0, 71, 64
2, 7464, Note_on_c, 0, 71, 0
2, 7464, Note_on_c, 0, 69, 64
2, 7476, Note_on_c, 0, 69, 0
2, 7476, Note_on_c, 0, 71, 64
2, 7488, Note_on_c, 0, 71, 0
2, 7488, Note_on_c, 0, 72, 64
2, 7511, Note_on_c, 0, 72, 0
2, 7512, Note_on_c, 0, 62, 64
2, 7535, Note_on_c, 0, 62, 0
2, 7536, Note_on_c, 0, 71, 64
2, 7559, Note_on_c, 0, 71, 0
2, 7560, Note_on_c, 0, 62, 64
2, 7583, Note_on_c, 0, 62, 0
2, 7584, Note_on_c, 0, 72, 64
2, 7607, Note_on_c, 0, 72, 0
2, 7608, Note_on_c, 0, 62, 64
2, 7631, Note_on_c, 0, 62, 0
2, 7632, Note_on_c, 0, 69, 64
2, 7655, Note_on_c, 0, 69, 0
2, 7656, Note_on_c, 0, 62, 64
2, 7679, Note_on_c, 0, 62, 0
2, 7680, Note_on_c, 0, 71, 64
2, 7703, Note_on_c, 0, 71, 0
2, 7704, Note_on_c, 0, 62, 64
2, 7727, Note_on_c, 0, 62, 0
2, 7728, Note_on_c, 0, 70, 64
2, 7751, Note_on_c, 0, 70, 0
2, 7752, Note_on_c, 0, 62, 64
2, 7775, Note_on_c, 0, 62, 0
2, 7776, Note_on_c, 0, 71, 64
2, 7799, Note_on_c, 0, 71, 0
2, 7800, Note_on_c, 0, 62, 64
2, 7823, Note_on_c, 0, 62, 0
2, 7824, Note_on_c, 0, 74, 64
2, 7836, Note_on_c, 0, 74, 0
2, 7836, Note_on_c, 0, 73, 64
2, 7848, Note_on_c, 0, 73, 0
2, 7848, Note_on_c, 0, 71, 64
2, 7860, Note_on_c, 0, 71, 0
2, 7860, Note_on_c, 0, 73, 64
2, 7872, Note_on_c, 0, 73, 0
2, 7872, Note_on_c, 0, 74, 64
2, 7895, Note_on_c, 0, 74, 0
2, 7896, Note_on_c, 0, 62, 64
2, 7919, Note_on_c, 0, 62, 0
2, 7920, Note_on_c, 0, 76, 64
2, 7943, Note_on_c, 0, 76, 0
2, 7944, Note_on_c, 0, 69, 64
2, 7967, Note_on_c, 0, 69, 0
2, 7968, Note_on_c, 0, 78, 64
2, 7991, Note_on_c, 0, 78, 0
2, 7992, Note_on_c, 0, 69, 64
2, 8015, Note_on_c, 0, 69, 0
2, 8016, Note_on_c, 0, 81, 64
2, 8028, Note_on_c, 0, 81, 0
2, 8028, Note_on_c, 0, 79, 64
2, 8040, Note_on_c, 0, 79, 0
2, 8040, Note_on_c, 0, 78, 64
2, 8052, Note_on_c, 0, 78, 0
2, 8052, Note_on_c, 0, 79, 64
2, 8064, Note_on_c, 0, 79, 0
2, 8064, Note_on_c, 0, 81, 64
2, 8084, Note_on_c, 0, 81, 0
2, 8112, Note_on_c, 0, 86, 64
2, 8127, Note_on_c, 0, 86, 0
2, 8128, Note_on_c, 0, 85, 64
2, 8143, Note_on_c, 0, 85, 0
2, 8144, Note_on_c, 0, 83, 64
2, 8159, Note_on_c, 0, 83, 0
2, 8160, Note_on_c, 0, 81, 64
2, 8175, Note_on_c, 0, 81, 0
2, 8176, Note_on_c, 0, 79, 64
2, 8191, Note_on_c, 0, 79, 0
2, 8192, Note_on_c, 0, 78, 64
2, 8207, Note_on_c, 0, 78, 0
2, 8208, Note_on_c, 0, 76, 64
2, 8223, Note_on_c, 0, 76, 0
2, 8224, Note_on_c, 0, 74, 64
2, 8239, Note_on_c, 0, 74, 0
2, 8240, Note_on_c, 0, 73, 64
2, 8255, Note_on_c, 0, 73, 0
2, 8256, Note_on_c, 0, 71, 64
2, 8276, Note_on_c, 0, 71, 0
2, 8304, Note_on_c, 0, 66, 64
2, 8319, Note_on_c, 0, 66, 0
2, 8320, Note_on_c, 0, 67, 64
2, 8335, Note_on_c, 0, 67, 0
2, 8336, Note_on_c, 0, 69, 64
2, 8351, Note_on_c, 0, 69, 0
2, 8352, Note_on_c, 0, 71, 64
2, 8367, Note_on_c, 0, 71, 0
2, 8368, Note_on_c, 0, 73, 64
2, 8383, Note_on_c, 0, 73, 0
2, 8384, Note_on_c, 0, 74, 64
2, 8399, Note_on_c, 0, 74, 0
2, 8400, Note_on_c, 0, 76, 64
2, 8415, Note_on_c, 0, 76, 0
2, 8416, Note_on_c, 0, 78, 64
2, 8431, Note_on_c, 0, 78, 0
2, 8432, Note_on_c, 0, 79, 64
2, 8447, Note_on_c, 0, 79, 0
2, 8448, Note_on_c, 0, 81, 64
2, 8493, Note_on_c, 0, 81, 0
2, 8496, Note_on_c, 0, 78, 64
2, 8511, Note_on_c, 0, 78, 0
2, 8512, Note_on_c, 0, 76, 64
2, 8527, Note_on_c, 0, 76, 0
2, 8528, Note_on_c, 0, 74, 64
2, 8543, Note_on_c, 0, 74, 0
2, 8544, Note_on_c, 0, 78, 64
2, 8552, Note_on_c, 0, 78, 0
2, 8552, Note_on_c, 0, 76, 64
2, 8560, Note_on_c, 0, 76, 0
2, 8560, Note_on_c, 0, 78, 64
2, 8568, Note_on_c, 0, 78, 0
2, 8568, Note_on_c, 0, 76, 64
2, 8576, Note_on_c, 0, 76, 0
2, 8576, Note_on_c, 0, 78, 64
2, 8584, Note_on_c, 0, 78, 0
2, 8584, Note_on_c, 0, 76, 64
2, 8592, Note_on_c, 0, 76, 0
2, 8592, Note_on_c, 0, 78, 64
2, 8600, Note_on_c, 0, 78, 0
2, 8600, Note_on_c, 0, 76, 64
2, 8608, Note_on_c, 0, 76, 0
2, 8608, Note_on_c, 0, 78, 64
2, 8616, Note_on_c, 0, 78, 0
2, 8616, Note_on_c, 0, 76, 64
2, 8624, Note_on_c, 0, 76, 0
2, 8624, Note_on_c, 0, 74, 64
2, 8632, Note_on_c, 0, 74, 0
2, 8632, Note_on_c, 0, 76, 64
2, 8640, Note_on_c, 0, 76, 0
2, 8640, Note_on_c, 0, 74, 64
2, 8660, Note_on_c, 0, 74, 0
2, 8688, Note_on_c, 0, 86, 64
2, 8703, Note_on_c, 0, 86, 0
2, 8704, Note_on_c, 0, 85, 64
2, 8719, Note_on_c, 0, 85, 0
2, 8720, Note_on_c, 0, 83, 64
2, 8735, Note_on_c, 0, 83, 0
2, 8736, Note_on_c, 0, 81, 64
2, 8751, Note_on_c, 0, 81, 0
2, 8752, Note_on_c, 0, 79, 64
2, 8767, Note_on_c, 0, 79, 0
2, 8768, Note_on_c, 0, 78, 64
2, 8783, Note_on_c, 0, 78, 0
2, 8784, Note_on_c, 0, 76, 64
2, 8799, Note_on_c, 0, 76, 0
2, 8800, Note_on_c, 0, 74, 64
2, 8815, Note_on_c, 0, 74, 0
2, 8816, Note_on_c, 0, 73, 64
2, 8831, Note_on_c, 0, 73, 0
2, 8832, Note_on_c, 0, 71, 64
2, 8852, Note_on_c, 0, 71, 0
2, 8880, Note_on_c, 0, 66, 64
2, 8895, Note_on_c, 0, 66, 0
2, 8896, Note_on_c, 0, 67, 64
2, 8911, Note_on_c, 0, 67, 0
2, 8912, Note_on_c, 0, 69, 64
2, 8927, Note_on_c, 0, 69, 0
2, 8928, Note_on_c, 0, 71, 64
2, 8943, Note_on_c, 0, 71, 0
2, 8944, Note_on_c, 0, 73, 64
2, 8959, Note_on_c, 0, 73, 0
2, 8960, Note_on_c, 0, 74, 64
2, 8975, Note_on_c, 0, 74, 0
2, 8976, Note_on_c, 0, 76, 64
2, 8991, Note_on_c, 0, 76, 0
2, 8992, Note_on_c, 0, 78, 64
2, 9007, Note_on_c, 0, 78, 0
2, 9008, Note_on_c, 0, 79, 64
2, 9023, Note_on_c, 0, 79, 0
2, 9024, Note_on_c, 0, 81, 64
2, 9044, Note_on_c, 0, 81, 0
2, 9072, Note_on_c, 0, 78, 64
2, 9087, Note_on_c, 0, 78, 0
2, 9088, Note_on_c, 0, 76, 64
2, 9103, Note_on_c, 0, 76, 0
2, 9104, Note_on_c, 0, 74, 64
2, 9119, Note_on_c, 0, 74, 0
2, 9120, Note_on_c, 0, 78, 64
2, 9128, Note_on_c, 0, 78, 0
2, 9128, Note_on_c, 0, 76, 64
2, 9136, Note_on_c, 0, 76, 0
2, 9136, Note_on_c, 0, 78, 64
2, 9144, Note_on_c, 0, 78, 0
2, 9144, Note_on_c, 0, 76, 64
2, 9152, Note_on_c, 0, 76, 0
2, 9152, Note_on_c, 0, 78, 64
2, 9160, Note_on_c, 0, 78, 0
2, 9160, Note_on_c, 0, 76, 64
2, 9168, Note_on_c, 0, 76, 0
2, 9168, Note_on_c, 0, 78, 64
2, 9176, Note_on_c, 0, 78, 0
2, 9176, Note_on_c, 0, 76, 64
2, 9184, Note_on_c, 0, 76, 0
2, 9184, Note_on_c, 0, 78, 64
2, 9192, Note_on_c, 0, 78, 0
2, 9192, Note_on_c, 0, 76, 64
2, 9200, Note_on_c, 0, 76, 0
2, 9200, Note_on_c, 0, 74, 64
2, 9208, Note_on_c, 0, 74, 0
2, 9208, Note_on_c, 0, 76, 64
2, 9216, Note_on_c, 0, 76, 0
2, 9216, Note_on_c, 0, 74, 64
2, 9236, Note_on_c, 0, 74, 0
2, 9264, Note_on_c, 0, 66, 64
2, 9287, Note_on_c, 0, 66, 0
2, 9288, Note_on_c, 0, 74, 64
2, 9311, Note_on_c, 0, 74, 0
2, 9312, Note_on_c, 0, 67, 64
2, 9335, Note_on_c, 0, 67, 0
2, 9336, Note_on_c, 0, 74, 64
2, 9359, Note_on_c, 0, 74, 0
2, 9360, Note_on_c, 0, 69, 64
2, 9383, Note_on_c, 0, 69, 0
2, 9384, Note_on_c, 0, 74, 64
2, 9407, Note_on_c, 0, 74, 0
2, 9408, Note_on_c, 0, 71, 64
2, 9431, Note_on_c, 0, 71, 0
2, 9432, Note_on_c, 0, 74, 64
2, 9455, Note_on_c, 0, 74, 0
2, 9456, Note_on_c, 0, 70, 64
2, 9479, Note_on_c, 0, 70, 0
2, 9480, Note_on_c, 0, 74, 64
2, 9503, Note_on_c, 0, 74, 0
2, 9504, Note_on_c, 0, 71, 64
2, 9527, Note_on_c, 0, 71, 0
2, 9528, Note_on_c, 0, 74, 64
2, 9551, Note_on_c, 0, 74, 0
2, 9552, Note_on_c, 0, 73, 64
2, 9575, Note_on_c, 0, 73, 0
2, 9576, Note_on_c, 0, 79, 64
2, 9599, Note_on_c, 0, 79, 0
2, 9600, Note_on_c, 0, 78, 64
2, 9623, Note_on_c, 0, 78, 0
2, 9624, Note_on_c, 0, 74, 64
2, 9647, Note_on_c, 0, 74, 0
2, 9648, Note_on_c, 0, 67, 64
2, 9671, Note_on_c, 0, 67, 0
2, 9672, Note_on_c, 0, 76, 64
2, 9695, Note_on_c, 0, 76, 0
2, 9696, Note_on_c, 0, 66, 64
2, 9719, Note_on_c, 0, 66, 0
2, 9720, Note_on_c, 0, 74, 64
2, 9743, Note_on_c, 0, 74, 0
2, 9744, Note_on_c, 0, 64, 64
2, 9767, Note_on_c, 0, 64, 0
2, 9768, Note_on_c, 0, 73, 64
2, 9791, Note_on_c, 0, 73, 0
2, 9792, Note_on_c, 0, 74, 64
2, 9792, Note_on_c, 0, 66, 64
2, 9837, Note_on_c, 0, 74, 0
2, 9837, Note_on_c, 0, 66, 0
2, 9840, Note_on_c, 0, 66, 64
2, 9863, Note_on_c, 0, 66, 0
2, 9864, Note_on_c, 0, 74, 64
2, 9887, Note_on_c, 0, 74, 0
2, 9888, Note_on_c, 0, 67, 64
2, 9911, Note_on_c, 0, 67, 0
2, 9912, Note_on_c, 0, 74, 64
2, 9935, Note_on_c, 0, 74, 0
2, 9936, Note_on_c, 0, 69, 64
2, 9959, Note_on_c, 0, 69, 0
2, 9960, Note_on_c, 0, 74, 64
2, 9983, Note_on_c, 0, 74, 0
2, 9984, Note_on_c, 0, 71, 64
2, 10007, Note_on_c, 0, 71, 0
2, 10008, Note_on_c, 0, 74, 64
2, 10031, Note_on_c, 0, 74, 0
2, 10032, Note_on_c, 0, 70, 64
2, 10055, Note_on_c, 0, 70, 0
2, 10056, Note_on_c, 0, 74, 64
2, 10079, Note_on_c, 0, 74, 0
2, 10080, Note_on_c, 0, 71, 64
2, 10103, Note_on_c, 0, 71, 0
2, 10104, Note_on_c, 0, 74, 64
2, 10127, Note_on_c, 0, 74, 0
2, 10128, Note_on_c, 0, 73, 64
2, 10151, Note_on_c, 0, 73, 0
2, 10152, Note_on_c, 0, 79, 64
2, 10175, Note_on_c, 0, 79, 0
2, 10176, Note_on_c, 0, 78, 64
2, 10199, Note_on_c, 0, 78, 0
2, 10200, Note_on_c, 0, 74, 64
2, 10223, Note_on_c, 0, 74, 0
2, 10224, Note_on_c, 0, 67, 64
2, 10247, Note_on_c, 0, 67, 0
2, 10248, Note_on_c, 0, 76, 64
2, 10271, Note_on_c, 0, 76, 0
2, 10272, Note_on_c, 0, 66, 64
2, 10295, Note_on_c, 0, 66, 0
2, 10296, Note_on_c, 0, 74, 64
2, 10319, Note_on_c, 0, 74, 0
2, 10320, Note_on_c, 0, 64, 64
2, 10343, Note_on_c, 0, 64, 0
2, 10344, Note_on_c, 0, 73, 64
2, 10367, Note_on_c, 0, 73, 0
2, 10368, Note_on_c, 0, 74, 64
2, 10388, Note_on_c, 0, 74, 0
2, 10416, Note_on_c, 0, 79, 64
2, 10428, Note_on_c, 0, 79, 0
2, 10428, Note_on_c, 0, 78, 64
2, 10440, Note_on_c, 0, 78, 0
2, 10440, Note_on_c, 0, 76, 64
2, 10452, Note_on_c, 0, 76, 0
2, 10452, Note_on_c, 0, 78, 64
2, 10464, Note_on_c, 0, 78, 0
2, 10464, Note_on_c, 0, 81, 64
2, 10484, Note_on_c, 0, 81, 0
2, 10512, Note_on_c, 0, 78, 64
2, 10532, Note_on_c, 0, 78, 0
2, 10560, Note_on_c, 0, 86, 64
2, 10560, Note_on_c, 0, 81, 64
2, 10560, Note_on_c, 0, 78, 64
2, 10560, Note_on_c, 0, 74, 64
2, 10649, Note_on_c, 0, 86, 0
2, 10649, Note_on_c, 0, 81, 0
2, 10649, Note_on_c, 0, 78, 0
2, 10649, Note_on_c, 0, 74, 0
2, 10752, Note_on_c, 0, 59, 64
2, 10764, Note_on_c, 0, 59, 0
2, 10764, Note_on_c, 0, 58, 64
2, 10776, Note_on_c, 0, 58, 0
2, 10776, Note_on_c, 0, 59, 64
2, 10931, Note_on_c, 0, 59, 0
2, 10944, Note_on_c, 0, 66, 64
2, 10956, Note_on_c, 0, 66, 0
2, 10956, Note_on_c, 0, 65, 64
2, 10968, Note_on_c, 0, 65, 0
2, 10968, Note_on_c, 0, 66, 64
2, 11123, Note_on_c, 0, 66, 0
2, 11136, Note_on_c, 0, 71, 64
2, 11148, Note_on_c, 0, 71, 0
2, 11148, Note_on_c, 0, 70, 64
2, 11160, Note_on_c, 0, 70, 0
2, 11160, Note_on_c, 0, 71, 64
2, 11273, Note_on_c, 0, 71, 0
2, 11280, Note_on_c, 0, 73, 64
2, 11314, Note_on_c, 0, 73, 0
2, 11316, Note_on_c, 0, 74, 64
2, 11328, Note_on_c, 0, 74, 0
2, 11328, Note_on_c, 0, 71, 64
2, 11373, Note_on_c, 0, 71, 0
2, 11376, Note_on_c, 0, 78, 64
2, 11396, Note_on_c, 0, 78, 0
2, 11424, Note_on_c, 0, 78, 64
2, 11444, Note_on_c, 0, 78, 0
2, 11472, Note_on_c, 0, 78, 64
2, 11492, Note_on_c, 0, 78, 0
2, 11520, Note_on_c, 0, 78, 64
2, 11639, Note_on_c, 0, 78, 0
2, 11640, Note_on_c, 0, 79, 64
2, 11646, Note_on_c, 0, 79, 0
2, 11646, Note_on_c, 0, 78, 64
2, 11652, Note_on_c, 0, 78, 0
2, 11652, Note_on_c, 0, 76, 64
2, 11658, Note_on_c, 0, 76, 0
2, 11658, Note_on_c, 0, 78, 64
2, 11664, Note_on_c, 0, 78, 0
2, 11664, Note_on_c, 0, 79, 64
2, 11698, Note_on_c, 0, 79, 0
2, 11700, Note_on_c, 0, 76, 64
2, 11712, Note_on_c, 0, 76, 0
2, 11712, Note_on_c, 0, 76, 64
2, 11808, Note_on_c, 0, 76, 0
2, 11808, Note_on_c, 0, 74, 64
2, 11820, Note_on_c, 0, 74, 0
2, 11820, Note_on_c, 0, 76, 64
2, 11832, Note_on_c, 0, 76, 0
2, 11832, Note_on_c, 0, 74, 64
2, 11853, Note_on_c, 0, 74, 0
2, 11856, Note_on_c, 0, 78, 64
2, 11890, Note_on_c, 0, 78, 0
2, 11892, Note_on_c, 0, 71, 64
2, 11904, Note_on_c, 0, 71, 0
2, 11904, Note_on_c, 0, 74, 64
2, 11916, Note_on_c, 0, 74, 0
2, 11916, Note_on_c, 0, 73, 64
2, 11928, Note_on_c, 0, 73, 0
2, 11928, Note_on_c, 0, 71, 64
2, 11940, Note_on_c, 0, 71, 0
2, 11940, Note_on_c, 0, 73, 64
2, 11952, Note_on_c, 0, 73, 0
2, 11952, Note_on_c, 0, 71, 64
2, 11997, Note_on_c, 0, 71, 0
2, 12000, Note_on_c, 0, 74, 64
2, 12023, Note_on_c, 0, 74, 0
2, 12024, Note_on_c, 0, 73, 64
2, 12047, Note_on_c, 0, 73, 0
2, 12048, Note_on_c, 0, 71, 64
2, 12071, Note_on_c, 0, 71, 0
2, 12072, Note_on_c, 0, 70, 64
2, 12095, Note_on_c, 0, 70, 0
2, 12096, Note_on_c, 0, 71, 64
2, 12185, Note_on_c, 0, 71, 0
2, 12240, Note_on_c, 0, 83, 64
2, 12264, Note_on_c, 0, 83, 0
2, 12264, Note_on_c, 0, 79, 64
2, 12287, Note_on_c, 0, 79, 0
2, 12288, Note_on_c, 0, 78, 64
2, 12311, Note_on_c, 0, 78, 0
2, 12312, Note_on_c, 0, 76, 64
2, 12335, Note_on_c, 0, 76, 0
2, 12336, Note_on_c, 0, 75, 64
2, 12359, Note_on_c, 0, 75, 0
2, 12360, Note_on_c, 0, 76, 64
2, 12383, Note_on_c, 0, 76, 0
2, 12384, Note_on_c, 0, 78, 64
2, 12408, Note_on_c, 0, 78, 0
2, 12408, Note_on_c, 0, 76, 64
2, 12431, Note_on_c, 0, 76, 0
2, 12432, Note_on_c, 0, 79, 64
2, 12456, Note_on_c, 0, 79, 0
2, 12456, Note_on_c, 0, 76, 64
2, 12479, Note_on_c, 0, 76, 0
2, 12480, Note_on_c, 0, 70, 64
2, 12576, Note_on_c, 0, 70, 0
2, 12576, Note_on_c, 0, 71, 64
2, 12596, Note_on_c, 0, 71, 0
2, 12624, Note_on_c, 0, 83, 64
2, 12648, Note_on_c, 0, 83, 0
2, 12648, Note_on_c, 0, 79, 64
2, 12671, Note_on_c, 0, 79, 0
2, 12672, Note_on_c, 0, 78, 64
2, 12695, Note_on_c, 0, 78, 0
2, 12696, Note_on_c, 0, 76, 64
2, 12719, Note_on_c, 0, 76, 0
2, 12720, Note_on_c, 0, 75, 64
2, 12743, Note_on_c, 0, 75, 0
2, 12744, Note_on_c, 0, 76, 64
2, 12767, Note_on_c, 0, 76, 0
2, 12768, Note_on_c, 0, 78, 64
2, 12792, Note_on_c, 0, 78, 0
2, 12792, Note_on_c, 0, 76, 64
2, 12815, Note_on_c, 0, 76, 0
2, 12816, Note_on_c, 0, 79, 64
2, 12840, Note_on_c, 0, 79, 0
2, 12840, Note_on_c, 0, 76, 64
2, 12863, Note_on_c, 0, 76, 0
2, 12864, Note_on_c, 0, 70, 64
2, 12960, Note_on_c, 0, 70, 0
2, 12960, Note_on_c, 0, 71, 64
2, 12980, Note_on_c, 0, 71, 0
2, 13008, Note_on_c, 0, 83, 64
2, 13032, Note_on_c, 0, 83, 0
2, 13032, Note_on_c, 0, 79, 64
2, 13055, Note_on_c, 0, 79, 0
2, 13056, Note_on_c, 0, 78, 64
2, 13079, Note_on_c, 0, 78, 0
2, 13080, Note_on_c, 0, 76, 64
2, 13103, Note_on_c, 0, 76, 0
2, 13104, Note_on_c, 0, 75, 64
2, 13127, Note_on_c, 0, 75, 0
2, 13128, Note_on_c, 0, 76, 64
2, 13151, Note_on_c, 0, 76, 0
2, 13152, Note_on_c, 0, 78, 64
2, 13176, Note_on_c, 0, 78, 0
2, 13176, Note_on_c, 0, 76, 64
2, 13199, Note_on_c, 0, 76, 0
2, 13200, Note_on_c, 0, 79, 64
2, 13224, Note_on_c, 0, 79, 0
2, 13224, Note_on_c, 0, 76, 64
2, 13247, Note_on_c, 0, 76, 0
2, 13248, Note_on_c, 0, 82, 64
2, 13248, Note_on_c, 0, 73, 64
2, 13344, Note_on_c, 0, 82, 0
2, 13344, Note_on_c, 0, 73, 0
2, 13344, Note_on_c, 0, 83, 64
2, 13344, Note_on_c, 0, 74, 64
2, 13364, Note_on_c, 0, 83, 0
2, 13364, Note_on_c, 0, 74, 0
2, 13392, Note_on_c, 0, 79, 64
2, 13404, Note_on_c, 0, 79, 0
2, 13404, Note_on_c, 0, 78, 64
2, 13416, Note_on_c, 0, 78, 0
2, 13416, Note_on_c, 0, 79, 64
2, 13437, Note_on_c, 0, 79, 0
2, 13440, Note_on_c, 0, 78, 64
2, 13440, Note_on_c, 0, 74, 64
2, 13485, Note_on_c, 0, 78, 0
2, 13485, Note_on_c, 0, 74, 0
2, 13488, Note_on_c, 0, 76, 64
2, 13488, Note_on_c, 0, 73, 64
2, 13533, Note_on_c, 0, 76, 0
2, 13533, Note_on_c, 0, 73, 0
2, 13536, Note_on_c, 0, 74, 64
2, 13548, Note_on_c, 0, 74, 0
2, 13548, Note_on_c, 0, 76, 64
2, 13560, Note_on_c, 0, 76, 0
2, 13560, Note_on_c, 0, 74, 64
2, 13581, Note_on_c, 0, 74, 0
2, 13584, Note_on_c, 0, 73, 64
2, 13584, Note_on_c, 0, 70, 64
2, 13629, Note_on_c, 0, 73, 0
2, 13629, Note_on_c, 0, 70, 0
2, 13632, Note_on_c, 0, 71, 64
2, 13644, Note_on_c, 0, 71, 0
2, 13644, Note_on_c, 0, 73, 64
2, 13656, Note_on_c, 0, 73, 0
2, 13656, Note_on_c, 0, 71, 64
2, 13721, Note_on_c, 0, 71, 0
2, 13824, Note_on_c, 0, 59, 64
2, 13836, Note_on_c, 0, 59, 0
2, 13836, Note_on_c, 0, 58, 64
2, 13848, Note_on_c, 0, 58, 0
2, 13848, Note_on_c, 0, 59, 64
2, 14003, Note_on_c, 0, 59, 0
2, 14016, Note_on_c, 0, 66, 64
2, 14028, Note_on_c, 0, 66, 0
2, 14028, Note_on_c, 0, 65, 64
2, 14040, Note_on_c, 0, 65, 0
2, 14040, Note_on_c, 0, 66, 64
2, 14195, Note_on_c, 0, 66, 0
2, 14208, Note_on_c, 0, 71, 64
2, 14341, Note_on_c, 0, 71, 0
2, 14352, Note_on_c, 0, 73, 64
2, 14386, Note_on_c, 0, 73, 0
2, 14388, Note_on_c, 0, 74, 64
2, 14400, Note_on_c, 0, 74, 0
2, 14400, Note_on_c, 0, 71, 64
2, 14420, Note_on_c, 0, 71, 0
2, 14448, Note_on_c, 0, 73, 64
2, 14482, Note_on_c, 0, 73, 0
2, 14484, Note_on_c, 0, 74, 64
2, 14496, Note_on_c, 0, 74, 0
2, 14496, Note_on_c, 0, 71, 64
2, 14516, Note_on_c, 0, 71, 0
2, 14544, Note_on_c, 0, 73, 64
2, 14578, Note_on_c, 0, 73, 0
2, 14580, Note_on_c, 0, 74, 64
2, 14592, Note_on_c, 0, 74, 0
2, 14592, Note_on_c, 0, 71, 64
2, 14725, Note_on_c, 0, 71, 0
2, 14736, Note_on_c, 0, 73, 64
2, 14770, Note_on_c, 0, 73, 0
2, 14772, Note_on_c, 0, 74, 64
2, 14784, Note_on_c, 0, 74, 0
2, 14784, Note_on_c, 0, 69, 64
2, 14914, Note_on_c, 0, 69, 0
2, 14916, Note_on_c, 0, 74, 64
2, 14928, Note_on_c, 0, 74, 0
2, 14928, Note_on_c, 0, 78, 64
2, 14962, Note_on_c, 0, 78, 0
2, 14964, Note_on_c, 0, 81, 64
2, 14976, Note_on_c, 0, 81, 0
2, 14976, Note_on_c, 0, 79, 64
2, 15010, Note_on_c, 0, 79, 0
2, 15012, Note_on_c, 0, 83, 64
2, 15024, Note_on_c, 0, 83, 0
2, 15024, Note_on_c, 0, 76, 64
2, 15058, Note_on_c, 0, 76, 0
2, 15060, Note_on_c, 0, 79, 64
2, 15072, Note_on_c, 0, 79, 0
2, 15072, Note_on_c, 0, 78, 64
2, 15106, Note_on_c, 0, 78, 0
2, 15108, Note_on_c, 0, 74, 64
2, 15120, Note_on_c, 0, 74, 0
2, 15120, Note_on_c, 0, 86, 64
2, 15154, Note_on_c, 0, 86, 0
2, 15156, Note_on_c, 0, 78, 64
2, 15168, Note_on_c, 0, 78, 0
2, 15168, Note_on_c, 0, 79, 64
2, 15176, Note_on_c, 0, 79, 0
2, 15176, Note_on_c, 0, 78, 64
2, 15184, Note_on_c, 0, 78, 0
2, 15184, Note_on_c, 0, 79, 64
2, 15192, Note_on_c, 0, 79, 0
2, 15192, Note_on_c, 0, 78, 64
2, 15200, Note_on_c, 0, 78, 0
2, 15200, Note_on_c, 0, 76, 64
2, 15208, Note_on_c, 0, 76, 0
2, 15208, Note_on_c, 0, 78, 64
2, 15216, Note_on_c, 0, 78, 0
2, 15216, Note_on_c, 0, 76, 64
2, 15261, Note_on_c, 0, 76, 0
2, 15408, Note_on_c, 0, 74, 64
2, 15432, Note_on_c, 0, 74, 0
2, 15432, Note_on_c, 0, 62, 64
2, 15455, Note_on_c, 0, 62, 0
2, 15456, Note_on_c, 0, 73, 64
2, 15480, Note_on_c, 0, 73, 0
2, 15480, Note_on_c, 0, 62, 64
2, 15503, Note_on_c, 0, 62, 0
2, 15504, Note_on_c, 0, 72, 64
2, 15528, Note_on_c, 0, 72, 0
2, 15528, Note_on_c, 0, 62, 64
2, 15551, Note_on_c, 0, 62, 0
2, 15552, Note_on_c, 0, 71, 64
2, 15576, Note_on_c, 0, 71, 0
2, 15576, Note_on_c, 0, 62, 64
2, 15599, Note_on_c, 0, 62, 0
2, 15600, Note_on_c, 0, 70, 64
2, 15624, Note_on_c, 0, 70, 0
2, 15624, Note_on_c, 0, 62, 64
2, 15647, Note_on_c, 0, 62, 0
2, 15648, Note_on_c, 0, 71, 64
2, 15672, Note_on_c, 0, 71, 0
2, 15672, Note_on_c, 0, 62, 64
2, 15695, Note_on_c, 0, 62, 0
2, 15696, Note_on_c, 0, 67, 64
2, 15720, Note_on_c, 0, 67, 0
2, 15720, Note_on_c, 0, 62, 64
2, 15743, Note_on_c, 0, 62, 0
2, 15744, Note_on_c, 0, 66, 64
2, 15768, Note_on_c, 0, 66, 0
2, 15768, Note_on_c, 0, 62, 64
2, 15791, Note_on_c, 0, 62, 0
2, 15792, Note_on_c, 0, 74, 64
2, 15816, Note_on_c, 0, 74, 0
2, 15816, Note_on_c, 0, 62, 64
2, 15839, Note_on_c, 0, 62, 0
2, 15840, Note_on_c, 0, 73, 64
2, 15864, Note_on_c, 0, 73, 0
2, 15864, Note_on_c, 0, 62, 64
2, 15887, Note_on_c, 0, 62, 0
2, 15888, Note_on_c, 0, 72, 64
2, 15912, Note_on_c, 0, 72, 0
2, 15912, Note_on_c, 0, 62, 64
2, 15935, Note_on_c, 0, 62, 0
2, 15936, Note_on_c, 0, 71, 64
2, 15960, Note_on_c, 0, 71, 0
2, 15960, Note_on_c, 0, 62, 64
2, 15983, Note_on_c, 0, 62, 0
2, 15984, Note_on_c, 0, 70, 64
2, 16008, Note_on_c, 0, 70, 0
2, 16008, Note_on_c, 0, 62, 64
2, 16031, Note_on_c, 0, 62, 0
2, 16032, Note_on_c, 0, 71, 64
2, 16056, Note_on_c, 0, 71, 0
2, 16056, Note_on_c, 0, 62, 64
2, 16079, Note_on_c, 0, 62, 0
2, 16080, Note_on_c, 0, 67, 64
2, 16104, Note_on_c, 0, 67, 0
2, 16104, Note_on_c, 0, 62, 64
2, 16127, Note_on_c, 0, 62, 0
2, 16128, Note_on_c, 0, 66, 64
2, 16152, Note_on_c, 0, 66, 0
2, 16152, Note_on_c, 0, 62, 64
2, 16175, Note_on_c, 0, 62, 0
2, 16176, Note_on_c, 0, 74, 64
2, 16200, Note_on_c, 0, 74, 0
2, 16200, Note_on_c, 0, 62, 64
2, 16223, Note_on_c, 0, 62, 0
2, 16224, Note_on_c, 0, 73, 64
2, 16248, Note_on_c, 0, 73, 0
2, 16248, Note_on_c, 0, 62, 64
2, 16271, Note_on_c, 0, 62, 0
2, 16272, Note_on_c, 0, 72, 64
2, 16296, Note_on_c, 0, 72, 0
2, 16296, Note_on_c, 0, 62, 64
2, 16319, Note_on_c, 0, 62, 0
2, 16320, Note_on_c, 0, 71, 64
2, 16344, Note_on_c, 0, 71, 0
2, 16344, Note_on_c, 0, 62, 64
2, 16367, Note_on_c, 0, 62, 0
2, 16368, Note_on_c, 0, 70, 64
2, 16392, Note_on_c, 0, 70, 0
2, 16392, Note_on_c, 0, 62, 64
2, 16415, Note_on_c, 0, 62, 0
2, 16416, Note_on_c, 0, 71, 64
2, 16440, Note_on_c, 0, 71, 0
2, 16440, Note_on_c, 0, 62, 64
2, 16463, Note_on_c, 0, 62, 0
2, 16464, Note_on_c, 0, 74, 64
2, 16488, Note_on_c, 0, 74, 0
2, 16488, Note_on_c, 0, 62, 64
2, 16511, Note_on_c, 0, 62, 0
2, 16512, Note_on_c, 0, 69, 64
2, 16536, Note_on_c, 0, 69, 0
2, 16536, Note_on_c, 0, 62, 64
2, 16559, Note_on_c, 0, 62, 0
2, 16560, Note_on_c, 0, 68, 64
2, 16584, Note_on_c, 0, 68, 0
2, 16584, Note_on_c, 0, 62, 64
2, 16607, Note_on_c, 0, 62, 0
2, 16608, Note_on_c, 0, 69, 64
2, 16632, Note_on_c, 0, 69, 0
2, 16632, Note_on_c, 0, 62, 64
2, 16655, Note_on_c, 0, 62, 0
2, 16656, Note_on_c, 0, 72, 64
2, 16680, Note_on_c, 0, 72, 0
2, 16680, Note_on_c, 0, 62, 64
2, 16703, Note_on_c, 0, 62, 0
2, 16704, Note_on_c, 0, 71, 64
2, 16728, Note_on_c, 0, 71, 0
2, 16728, Note_on_c, 0, 62, 64
2, 16751, Note_on_c, 0, 62, 0
2, 16752, Note_on_c, 0, 70, 64
2, 16776, Note_on_c, 0, 70, 0
2, 16776, Note_on_c, 0, 62, 64
2, 16799, Note_on_c, 0, 62, 0
2, 16800, Note_on_c, 0, 71, 64
2, 16824, Note_on_c, 0, 71, 0
2, 16824, Note_on_c, 0, 62, 64
2, 16847, Note_on_c, 0, 62, 0
2, 16848, Note_on_c, 0, 74, 64
2, 16872, Note_on_c, 0, 74, 0
2, 16872, Note_on_c, 0, 62, 64
2, 16895, Note_on_c, 0, 62, 0
2, 16896, Note_on_c, 0, 69, 64
2, 16920, Note_on_c, 0, 69, 0
2, 16920, Note_on_c, 0, 62, 64
2, 16943, Note_on_c, 0, 62, 0
2, 16944, Note_on_c, 0, 68, 64
2, 16968, Note_on_c, 0, 68, 0
2, 16968, Note_on_c, 0, 62, 64
2, 16991, Note_on_c, 0, 62, 0
2, 16992, Note_on_c, 0, 69, 64
2, 17016, Note_on_c, 0, 69, 0
2, 17016, Note_on_c, 0, 62, 64
2, 17039, Note_on_c, 0, 62, 0
2, 17040, Note_on_c, 0, 72, 64
2, 17064, Note_on_c, 0, 72, 0
2, 17064, Note_on_c, 0, 62, 64
2, 17087, Note_on_c, 0, 62, 0
2, 17088, Note_on_c, 0, 71, 64
2, 17112, Note_on_c, 0, 71, 0
2, 17112, Note_on_c, 0, 62, 64
2, 17135, Note_on_c, 0, 62, 0
2, 17136, Note_on_c, 0, 71, 64
2, 17160, Note_on_c, 0, 71, 0
2, 17160, Note_on_c, 0, 62, 64
2, 17183, Note_on_c, 0, 62, 0
2, 17184, Note_on_c, 0, 69, 64
2, 17208, Note_on_c, 0, 69, 0
2, 17208, Note_on_c, 0, 63, 64
2, 17231, Note_on_c, 0, 63, 0
2, 17232, Note_on_c, 0, 69, 64
2, 17256, Note_on_c, 0, 69, 0
2, 17256, Note_on_c, 0, 63, 64
2, 17279, Note_on_c, 0, 63, 0
2, 17280, Note_on_c, 0, 67, 64
2, 17303, Note_on_c, 0, 67, 0
2, 17304, Note_on_c, 0, 64, 64
2, 17327, Note_on_c, 0, 64, 0
2, 17328, Note_on_c, 0, 67, 64
2, 17351, Note_on_c, 0, 67, 0
2, 17352, Note_on_c, 0, 64, 64
2, 17375, Note_on_c, 0, 64, 0
2, 17376, Note_on_c, 0, 66, 64
2, 17399, Note_on_c, 0, 66, 0
2, 17400, Note_on_c, 0, 63, 64
2, 17423, Note_on_c, 0, 63, 0
2, 17424, Note_on_c, 0, 66, 64
2, 17447, Note_on_c, 0, 66, 0
2, 17448, Note_on_c, 0, 63, 64
2, 17471, Note_on_c, 0, 63, 0
2, 17472, Note_on_c, 0, 67, 64
2, 17495, Note_on_c, 0, 67, 0
2, 17496, Note_on_c, 0, 64, 64
2, 17519, Note_on_c, 0, 64, 0
2, 17520, Note_on_c, 0, 67, 64
2, 17543, Note_on_c, 0, 67, 0
2, 17544, Note_on_c, 0, 64, 64
2, 17567, Note_on_c, 0, 64, 0
2, 17568, Note_on_c, 0, 66, 64
2, 17591, Note_on_c, 0, 66, 0
2, 17592, Note_on_c, 0, 62, 64
2, 17615, Note_on_c, 0, 62, 0
2, 17616, Note_on_c, 0, 66, 64
2, 17639, Note_on_c, 0, 66, 0
2, 17640, Note_on_c, 0, 62, 64
2, 17663, Note_on_c, 0, 62, 0
2, 17664, Note_on_c, 0, 61, 64
2, 17709, Note_on_c, 0, 61, 0
2, 17712, Note_on_c, 0, 62, 64
2, 17757, Note_on_c, 0, 62, 0
2, 17760, Note_on_c, 0, 64, 64
2, 17805, Note_on_c, 0, 64, 0
2, 17808, Note_on_c, 0, 67, 64
2, 17820, Note_on_c, 0, 67, 0
2, 17820, Note_on_c, 0, 66, 64
2, 17832, Note_on_c, 0, 66, 0
2, 17832, Note_on_c, 0, 64, 64
2, 17844, Note_on_c, 0, 64, 0
2, 17844, Note_on_c, 0, 66, 64
2, 17856, Note_on_c, 0, 66, 0
2, 17856, Note_on_c, 0, 67, 64
2, 17901, Note_on_c, 0, 67, 0
2, 17904, Note_on_c, 0, 66, 64
2, 17949, Note_on_c, 0, 66, 0
2, 17952, Note_on_c, 0, 67, 64
2, 17997, Note_on_c, 0, 67, 0
2, 18000, Note_on_c, 0, 64, 64
2, 18045, Note_on_c, 0, 64, 0
2, 18048, Note_on_c, 0, 66, 64
2, 18071, Note_on_c, 0, 66, 0
2, 18072, Note_on_c, 0, 62, 64
2, 18095, Note_on_c, 0, 62, 0
2, 18096, Note_on_c, 0, 67, 64
2, 18119, Note_on_c, 0, 67, 0
2, 18120, Note_on_c, 0, 62, 64
2, 18143, Note_on_c, 0, 62, 0
2, 18144, Note_on_c, 0, 69, 64
2, 18167, Note_on_c, 0, 69, 0
2, 18168, Note_on_c, 0, 62, 64
2, 18191, Note_on_c, 0, 62, 0
2, 18192, Note_on_c, 0, 72, 64
2, 18204, Note_on_c, 0, 72, 0
2, 18204, Note_on_c, 0, 71, 64
2, 18216, Note_on_c, 0, 71, 0
2, 18216, Note_on_c, 0, 69, 64
2, 18228, Note_on_c, 0, 69, 0
2, 18228, Note_on_c, 0, 71, 64
2, 18240, Note_on_c, 0, 71, 0
2, 18240, Note_on_c, 0, 72, 64
2, 18263, Note_on_c, 0, 72, 0
2, 18264, Note_on_c, 0, 62, 64
2, 18287, Note_on_c, 0, 62, 0
2, 18288, Note_on_c, 0, 71, 64
2, 18311, Note_on_c, 0, 71, 0
2, 18312, Note_on_c, 0, 62, 64
2, 18335, Note_on_c, 0, 62, 0
2, 18336, Note_on_c, 0, 72, 64
2, 18359, Note_on_c, 0, 72, 0
2, 18360, Note_on_c, 0, 62, 64
2, 18383, Note_on_c, 0, 62, 0
2, 18384, Note_on_c, 0, 69, 64
2, 18407, Note_on_c, 0, 69, 0
2, 18408, Note_on_c, 0, 62, 64
2, 18431, Note_on_c, 0, 62, 0
2, 18432, Note_on_c, 0, 71, 64
2, 18455, Note_on_c, 0, 71, 0
2, 18456, Note_on_c, 0, 62, 64
2, 18479, Note_on_c, 0, 62, 0
2, 18480, Note_on_c, 0, 70, 64
2, 18503, Note_on_c, 0, 70, 0
2, 18504, Note_on_c, 0, 62, 64
2, 18527, Note_on_c, 0, 62, 0
2, 18528, Note_on_c, 0, 71, 64
2, 18551, Note_on_c, 0, 71, 0
2, 18552, Note_on_c, 0, 62, 64
2, 18575, Note_on_c, 0, 62, 0
2, 18576, Note_on_c, 0, 74, 64
2, 18588, Note_on_c, 0, 74, 0
2, 18588, Note_on_c, 0, 73, 64
2, 18600, Note_on_c, 0, 73, 0
2, 18600, Note_on_c, 0, 71, 64
2, 18612, Note_on_c, 0, 71, 0
2, 18612, Note_on_c, 0, 73, 64
2, 18624, Note_on_c, 0, 73, 0
2, 18624, Note_on_c, 0, 74, 64
2, 18647, Note_on_c, 0, 74, 0
2, 18648, Note_on_c, 0, 62, 64
2, 18671, Note_on_c, 0, 62, 0
2, 18672, Note_on_c, 0, 76, 64
2, 18695, Note_on_c, 0, 76, 0
2, 18696, Note_on_c, 0, 69, 64
2, 18719, Note_on_c, 0, 69, 0
2, 18720, Note_on_c, 0, 78, 64
2, 18743, Note_on_c, 0, 78, 0
2, 18744, Note_on_c, 0, 69, 64
2, 18767, Note_on_c, 0, 69, 0
2, 18768, Note_on_c, 0, 81, 64
2, 18780, Note_on_c, 0, 81, 0
2, 18780, Note_on_c, 0, 79, 64
2, 18792, Note_on_c, 0, 79, 0
2, 18792, Note_on_c, 0, 78, 64
2, 18804, Note_on_c, 0, 78, 0
2, 18804, Note_on_c, 0, 79, 64
2, 18816, Note_on_c, 0, 79, 0
2, 18816, Note_on_c, 0, 81, 64
2, 18836, Note_on_c, 0, 81, 0
2, 18864, Note_on_c, 0, 86, 64
2, 18879, Note_on_c, 0, 86, 0
2, 18880, Note_on_c, 0, 85, 64
2, 18895, Note_on_c, 0, 85, 0
2, 18896, Note_on_c, 0, 83, 64
2, 18911, Note_on_c, 0, 83, 0
2, 18912, Note_on_c, 0, 81, 64
2, 18927, Note_on_c, 0, 81, 0
2, 18928, Note_on_c, 0, 79, 64
2, 18943, Note_on_c, 0, 79, 0
2, 18944, Note_on_c, 0, 78, 64
2, 18959, Note_on_c, 0, 78, 0
2, 18960, Note_on_c, 0, 76, 64
2, 18975, Note_on_c, 0, 76, 0
2, 18976, Note_on_c, 0, 74, 64
2, 18991, Note_on_c, 0, 74, 0
2, 18992, Note_on_c, 0, 73, 64
2, 19007, Note_on_c, 0, 73, 0
2, 19008, Note_on_c, 0, 71, 64
2, 19028, Note_on_c, 0, 71, 0
2, 19056, Note_on_c, 0, 66, 64
2, 19071, Note_on_c, 0, 66, 0
2, 19072, Note_on_c, 0, 67, 64
2, 19087, Note_on_c, 0, 67, 0
2, 19088, Note_on_c, 0, 69, 64
2, 19103, Note_on_c, 0, 69, 0
2, 19104, Note_on_c, 0, 71, 64
2, 19119, Note_on_c, 0, 71, 0
2, 19120, Note_on_c, 0, 73, 64
2, 19135, Note_on_c, 0, 73, 0
2, 19136, Note_on_c, 0, 74, 64
2, 19151, Note_on_c, 0, 74, 0
2, 19152, Note_on_c, 0, 76, 64
2, 19167, Note_on_c, 0, 76, 0
2, 19168, Note_on_c, 0, 78, 64
2, 19183, Note_on_c, 0, 78, 0
2, 19184, Note_on_c, 0, 79, 64
2, 19199, Note_on_c, 0, 79, 0
2, 19200, Note_on_c, 0, 81, 64
2, 19245, Note_on_c, 0, 81, 0
2, 19248, Note_on_c, 0, 78, 64
2, 19263, Note_on_c, 0, 78, 0
2, 19264, Note_on_c, 0, 76, 64
2, 19279, Note_on_c, 0, 76, 0
2, 19280, Note_on_c, 0, 74, 64
2, 19295, Note_on_c, 0, 74, 0
2, 19296, Note_on_c, 0, 78, 64
2, 19304, Note_on_c, 0, 78, 0
2, 19304, Note_on_c, 0, 76, 64
2, 19312, Note_on_c, 0, 76, 0
2, 19312, Note_on_c, 0, 78, 64
2, 19320, Note_on_c, 0, 78, 0
2, 19320, Note_on_c, 0, 76, 64
2, 19328, Note_on_c, 0, 76, 0
2, 19328, Note_on_c, 0, 78, 64
2, 19336, Note_on_c, 0, 78, 0
2, 19336, Note_on_c, 0, 76, 64
2, 19344, Note_on_c, 0, 76, 0
2, 19344, Note_on_c, 0, 78, 64
2, 19352, Note_on_c, 0, 78, 0
2, 19352, Note_on_c, 0, 76, 64
2, 19360, Note_on_c, 0, 76, 0
2, 19360, Note_on_c, 0, 78, 64
2, 19368, Note_on_c, 0, 78, 0
2, 19368, Note_on_c, 0, 76, 64
2, 19376, Note_on_c, 0, 76, 0
2, 19376, Note_on_c, 0, 74, 64
2, 19384, Note_on_c, 0, 74, 0
2, 19384, Note_on_c, 0, 76, 64
2, 19392, Note_on_c, 0, 76, 0
2, 19392, Note_on_c, 0, 74, 64
2, 19412, Note_on_c, 0, 74, 0
2, 19440, Note_on_c, 0, 86, 64
2, 19455, Note_on_c, 0, 86, 0
2, 19456, Note_on_c, 0, 85, 64
2, 19471, Note_on_c, 0, 85, 0
2, 19472, Note_on_c, 0, 83, 64
2, 19487, Note_on_c, 0, 83, 0
2, 19488, Note_on_c, 0, 81, 64
2, 19503, Note_on_c, 0, 81, 0
2, 19504, Note_on_c, 0, 79, 64
2, 19519, Note_on_c, 0, 79, 0
2, 19520, Note_on_c, 0, 78, 64
2, 19535, Note_on_c, 0, 78, 0
2, 19536, Note_on_c, 0, 76, 64
2, 19551, Note_on_c, 0, 76, 0
2, 19552, Note_on_c, 0, 74, 64
2, 19567, Note_on_c, 0, 74, 0
2, 19568, Note_on_c, 0, 73, 64
2, 19583, Note_on_c, 0, 73, 0
2, 19584, Note_on_c, 0, 71, 64
2, 19604, Note_on_c, 0, 71, 0
2, 19632, Note_on_c, 0, 66, 64
2, 19647, Note_on_c, 0, 66, 0
2, 19648, Note_on_c, 0, 67, 64
2, 19663, Note_on_c, 0, 67, 0
2, 19664, Note_on_c, 0, 69, 64
2, 19679, Note_on_c, 0, 69, 0
2, 19680, Note_on_c, 0, 71, 64
2, 19695, Note_on_c, 0, 71, 0
2, 19696, Note_on_c, 0, 73, 64
2, 19711, Note_on_c, 0, 73, 0
2, 19712, Note_on_c, 0, 74, 64
2, 19727, Note_on_c, 0, 74, 0
2, 19728, Note_on_c, 0, 76, 64
2, 19743, Note_on_c, 0, 76, 0
2, 19744, Note_on_c, 0, 78, 64
2, 19759, Note_on_c, 0, 78, 0
2, 19760, Note_on_c, 0, 79, 64
2, 19775, Note_on_c, 0, 79, 0
2, 19776, Note_on_c, 0, 81, 64
2, 19796, Note_on_c, 0, 81, 0
2, 19824, Note_on_c, 0, 78, 64
2, 19839, Note_on_c, 0, 78, 0
2, 19840, Note_on_c, 0, 76, 64
2, 19855, Note_on_c, 0, 76, 0
2, 19856, Note_on_c, 0, 74, 64
2, 19871, Note_on_c, 0, 74, 0
2, 19872, Note_on_c, 0, 78, 64
2, 19880, Note_on_c, 0, 78, 0
2, 19880, Note_on_c, 0, 76, 64
2, 19888, Note_on_c, 0, 76, 0
2, 19888, Note_on_c, 0, 78, 64
2, 19896, Note_on_c, 0, 78, 0
2, 19896, Note_on_c, 0, 76, 64
2, 19904, Note_on_c, 0, 76, 0
2, 19904, Note_on_c, 0, 78, 64
2, 19912, Note_on_c, 0, 78, 0
2, 19912, Note_on_c, 0, 76, 64
2, 19920, Note_on_c, 0, 76, 0
2, 19920, Note_on_c, 0, 78, 64
2, 19928, Note_on_c, 0, 78, 0
2, 19928, Note_on_c, 0, 76, 64
2, 19936, Note_on_c, 0, 76, 0
2, 19936, Note_on_c, 0, 78, 64
2, 19944, Note_on_c, 0, 78, 0
2, 19944, Note_on_c, 0, 76, 64
2, 19952, Note_on_c, 0, 76, 0
2, 19952, Note_on_c, 0, 74, 64
2, 19960, Note_on_c, 0, 74, 0
2, 19960, Note_on_c, 0, 76, 64
2, 19968, Note_on_c, 0, 76, 0
2, 19968, Note_on_c, 0, 74, 64
2, 19988, Note_on_c, 0, 74, 0
2, 20016, Note_on_c, 0, 66, 64
2, 20039, Note_on_c, 0, 66, 0
2, 20040, Note_on_c, 0, 74, 64
2, 20063, Note_on_c, 0, 74, 0
2, 20064, Note_on_c, 0, 67, 64
2, 20087, Note_on_c, 0, 67, 0
2, 20088, Note_on_c, 0, 74, 64
2, 20111, Note_on_c, 0, 74, 0
2, 20112, Note_on_c, 0, 69, 64
2, 20135, Note_on_c, 0, 69, 0
2, 20136, Note_on_c, 0, 74, 64
2, 20159, Note_on_c, 0, 74, 0
2, 20160, Note_on_c, 0, 71, 64
2, 20183, Note_on_c, 0, 71, 0
2, 20184, Note_on_c, 0, 74, 64
2, 20207, Note_on_c, 0, 74, 0
2, 20208, Note_on_c, 0, 70, 64
2, 20231, Note_on_c, 0, 70, 0
2, 20232, Note_on_c, 0, 74, 64
2, 20255, Note_on_c, 0, 74, 0
2, 20256, Note_on_c, 0, 71, 64
2, 20279, Note_on_c, 0, 71, 0
2, 20280, Note_on_c, 0, 74, 64
2, 20303, Note_on_c, 0, 74, 0
2, 20304, Note_on_c, 0, 73, 64
2, 20327, Note_on_c, 0, 73, 0
2, 20328, Note_on_c, 0, 79, 64
2, 20351, Note_on_c, 0, 79, 0
2, 20352, Note_on_c, 0, 78, 64
2, 20375, Note_on_c, 0, 78, 0
2, 20376, Note_on_c, 0, 74, 64
2, 20399, Note_on_c, 0, 74, 0
2, 20400, Note_on_c, 0, 67, 64
2, 20423, Note_on_c, 0, 67, 0
2, 20424, Note_on_c, 0, 76, 64
2, 20447, Note_on_c, 0, 76, 0
2, 20448, Note_on_c, 0, 66, 64
2, 20471, Note_on_c, 0, 66, 0
2, 20472, Note_on_c, 0, 74, 64
2, 20495, Note_on_c, 0, 74, 0
2, 20496, Note_on_c, 0, 64, 64
2, 20519, Note_on_c, 0, 64, 0
2, 20520, Note_on_c, 0, 73, 64
2, 20543, Note_on_c, 0, 73, 0
2, 20544, Note_on_c, 0, 74, 64
2, 20544, Note_on_c, 0, 66, 64
2, 20589, Note_on_c, 0, 74, 0
2, 20589, Note_on_c, 0, 66, 0
2, 20592, Note_on_c, 0, 66, 64
2, 20615, Note_on_c, 0, 66, 0
2, 20616, Note_on_c, 0, 74, 64
2, 20639, Note_on_c, 0, 74, 0
2, 20640, Note_on_c, 0, 67, 64
2, 20663, Note_on_c, 0, 67, 0
2, 20664, Note_on_c, 0, 74, 64
2, 20687, Note_on_c, 0, 74, 0
2, 20688, Note_on_c, 0, 69, 64
2, 20711, Note_on_c, 0, 69, 0
2, 20712, Note_on_c, 0, 74, 64
2, 20735, Note_on_c, 0, 74, 0
2, 20736, Note_on_c, 0, 71, 64
2, 20759, Note_on_c, 0, 71, 0
2, 20760, Note_on_c, 0, 74, 64
2, 20783, Note_on_c, 0, 74, 0
2, 20784, Note_on_c, 0, 70, 64
2, 20807, Note_on_c, 0, 70, 0
2, 20808, Note_on_c, 0, 74, 64
2, 20831, Note_on_c, 0, 74, 0
2, 20832, Note_on_c, 0, 71, 64
2, 20855, Note_on_c, 0, 71, 0
2, 20856, Note_on_c, 0, 74, 64
2, 20879, Note_on_c, 0, 74, 0
2, 20880, Note_on_c, 0, 73, 64
2, 20903, Note_on_c, 0, 73, 0
2, 20904, Note_on_c, 0, 79, 64
2, 20927, Note_on_c, 0, 79, 0
2, 20928, Note_on_c, 0, 78, 64
2, 20951, Note_on_c, 0, 78, 0
2, 20952, Note_on_c, 0, 74, 64
2, 20975, Note_on_c, 0, 74, 0
2, 20976, Note_on_c, 0, 67, 64
2, 20999, Note_on_c, 0, 67, 0
2, 21000, Note_on_c, 0, 76, 64
2, 21023, Note_on_c, 0, 76, 0
2, 21024, Note_on_c, 0, 66, 64
2, 21047, Note_on_c, 0, 66, 0
2, 21048, Note_on_c, 0, 74, 64
2, 21071, Note_on_c, 0, 74, 0
2, 21072, Note_on_c, 0, 64, 64
2, 21095, Note_on_c, 0, 64, 0
2, 21096, Note_on_c, 0, 73, 64
2, 21119, Note_on_c, 0, 73, 0
2, 21120, Note_on_c, 0, 74, 64
2, 21140, Note_on_c, 0, 74, 0
2, 21168, Note_on_c, 0, 79, 64
2, 21180, Note_on_c, 0, 79, 0
2, 21180, Note_on_c, 0, 78, 64
2, 21192, Note_on_c, 0, 78, 0
2, 21192, Note_on_c, 0, 76, 64
2, 21204, Note_on_c, 0, 76, 0
2, 21204, Note_on_c, 0, 78, 64
2, 21216, Note_on_c, 0, 78, 0
2, 21216, Note_on_c, 0, 81, 64
2, 21236, Note_on_c, 0, 81, 0
2, 21264, Note_on_c, 0, 78, 64
2, 21284, Note_on_c, 0, 78, 0
2, 21312, Note_on_c, 0, 86, 64
2, 21312, Note_on_c, 0, 81, 64
2, 21312, Note_on_c, 0, 78, 64
2, 21312, Note_on_c, 0, 74, 64
2, 21401, Note_on_c, 0, 86, 0
2, 21401, Note_on_c, 0, 81, 0
2, 21401, Note_on_c, 0, 78, 0
2, 21401, Note_on_c, 0, 74, 0
2, 21504, Note_on_c, 0, 60, 64
2, 21516, Note_on_c, 0, 60, 0
2, 21516, Note_on_c, 0, 59, 64
2, 21528, Note_on_c, 0, 59, 0
2, 21528, Note_on_c, 0, 60, 64
2, 21683, Note_on_c, 0, 60, 0
2, 21696, Note_on_c, 0, 69, 64
2, 21708, Note_on_c, 0, 69, 0
2, 21708, Note_on_c, 0, 68, 64
2, 21720, Note_on_c, 0, 68, 0
2, 21720, Note_on_c, 0, 69, 64
2, 21875, Note_on_c, 0, 69, 0
2, 21888, Note_on_c, 0, 78, 64
2, 21900, Note_on_c, 0, 78, 0
2, 21900, Note_on_c, 0, 77, 64
2, 21912, Note_on_c, 0, 77, 0
2, 21912, Note_on_c, 0, 78, 64
2, 22067, Note_on_c, 0, 78, 0
2, 22080, Note_on_c, 0, 84, 64
2, 22213, Note_on_c, 0, 84, 0
2, 22224, Note_on_c, 0, 63, 64
2, 22269, Note_on_c, 0, 63, 0
2, 22272, Note_on_c, 0, 64, 64
2, 22284, Note_on_c, 0, 64, 0
2, 22284, Note_on_c, 0, 63, 64
2, 22296, Note_on_c, 0, 63, 0
2, 22296, Note_on_c, 0, 64, 64
2, 22451, Note_on_c, 0, 64, 0
2, 22464, Note_on_c, 0, 71, 64
2, 22476, Note_on_c, 0, 71, 0
2, 22476, Note_on_c, 0, 70, 64
2, 22488, Note_on_c, 0, 70, 0
2, 22488, Note_on_c, 0, 71, 64
2, 22641, Note_on_c, 0, 71, 0
2, 22656, Note_on_c, 0, 76, 64
2, 22789, Note_on_c, 0, 76, 0
2, 22800, Note_on_c, 0, 78, 64
2, 22834, Note_on_c, 0, 78, 0
2, 22836, Note_on_c, 0, 79, 64
2, 22848, Note_on_c, 0, 79, 0
2, 22848, Note_on_c, 0, 76, 64
2, 22893, Note_on_c, 0, 76, 0
2, 22896, Note_on_c, 0, 83, 64
2, 22916, Note_on_c, 0, 83, 0
2, 22944, Note_on_c, 0, 83, 64
2, 22964, Note_on_c, 0, 83, 0
2, 22992, Note_on_c, 0, 83, 64
2, 23012, Note_on_c, 0, 83, 0
2, 23040, Note_on_c, 0, 83, 64
2, 23159, Note_on_c, 0, 83, 0
2, 23160, Note_on_c, 0, 84, 64
2, 23166, Note_on_c, 0, 84, 0
2, 23166, Note_on_c, 0, 83, 64
2, 23172, Note_on_c, 0, 83, 0
2, 23172, Note_on_c, 0, 81, 64
2, 23178, Note_on_c, 0, 81, 0
2, 23178, Note_on_c, 0, 83, 64
2, 23184, Note_on_c, 0, 83, 0
2, 23184, Note_on_c, 0, 84, 64
2, 23218, Note_on_c, 0, 84, 0
2, 23220, Note_on_c, 0, 81, 64
2, 23232, Note_on_c, 0, 81, 0
2, 23232, Note_on_c, 0, 81, 64
2, 23328, Note_on_c, 0, 81, 0
2, 23328, Note_on_c, 0, 79, 64
2, 23340, Note_on_c, 0, 79, 0
2, 23340, Note_on_c, 0, 81, 64
2, 23352, Note_on_c, 0, 81, 0
2, 23352, Note_on_c, 0, 79, 64
2, 23373, Note_on_c, 0, 79, 0
2, 23376, Note_on_c, 0, 83, 64
2, 23410, Note_on_c, 0, 83, 0
2, 23412, Note_on_c, 0, 76, 64
2, 23424, Note_on_c, 0, 76, 0
2, 23424, Note_on_c, 0, 79, 64
2, 23430, Note_on_c, 0, 79, 0
2, 23430, Note_on_c, 0, 78, 64
2, 23469, Note_on_c, 0, 78, 0
2, 23472, Note_on_c, 0, 76, 64
2, 23517, Note_on_c, 0, 76, 0
2, 23520, Note_on_c, 0, 79, 64
2, 23543, Note_on_c, 0, 79, 0
2, 23544, Note_on_c, 0, 78, 64
2, 23567, Note_on_c, 0, 78, 0
2, 23568, Note_on_c, 0, 76, 64
2, 23591, Note_on_c, 0, 76, 0
2, 23592, Note_on_c, 0, 75, 64
2, 23615, Note_on_c, 0, 75, 0
2, 23616, Note_on_c, 0, 76, 64
2, 23661, Note_on_c, 0, 76, 0
2, 23664, Note_on_c, 0, 74, 64
2, 23709, Note_on_c, 0, 74, 0
2, 23712, Note_on_c, 0, 83, 64
2, 23831, Note_on_c, 0, 83, 0
2, 23832, Note_on_c, 0, 81, 64
2, 23855, Note_on_c, 0, 81, 0
2, 23856, Note_on_c, 0, 80, 64
2, 23879, Note_on_c, 0, 80, 0
2, 23880, Note_on_c, 0, 81, 64
2, 23903, Note_on_c, 0, 81, 0
2, 23904, Note_on_c, 0, 80, 64
2, 23927, Note_on_c, 0, 80, 0
2, 23928, Note_on_c, 0, 78, 64
2, 23951, Note_on_c, 0, 78, 0
2, 23952, Note_on_c, 0, 76, 64
2, 23975, Note_on_c, 0, 76, 0
2, 23976, Note_on_c, 0, 74, 64
2, 23999, Note_on_c, 0, 74, 0
2, 24000, Note_on_c, 0, 76, 64
2, 24006, Note_on_c, 0, 76, 0
2, 24006, Note_on_c, 0, 74, 64
2, 24045, Note_on_c, 0, 74, 0
2, 24048, Note_on_c, 0, 73, 64
2, 24093, Note_on_c, 0, 73, 0
2, 24096, Note_on_c, 0, 80, 64
2, 24215, Note_on_c, 0, 80, 0
2, 24216, Note_on_c, 0, 78, 64
2, 24239, Note_on_c, 0, 78, 0
2, 24240, Note_on_c, 0, 77, 64
2, 24263, Note_on_c, 0, 77, 0
2, 24264, Note_on_c, 0, 78, 64
2, 24287, Note_on_c, 0, 78, 0
2, 24288, Note_on_c, 0, 77, 64
2, 24311, Note_on_c, 0, 77, 0
2, 24312, Note_on_c, 0, 74, 64
2, 24335, Note_on_c, 0, 74, 0
2, 24336, Note_on_c, 0, 73, 64
2, 24359, Note_on_c, 0, 73, 0
2, 24360, Note_on_c, 0, 71, 64
2, 24383, Note_on_c, 0, 71, 0
2, 24384, Note_on_c, 0, 69, 64
2, 24418, Note_on_c, 0, 69, 0
2, 24420, Note_on_c, 0, 73, 64
2, 24432, Note_on_c, 0, 73, 0
2, 24432, Note_on_c, 0, 74, 64
2, 24440, Note_on_c, 0, 74, 0
2, 24440, Note_on_c, 0, 73, 64
2, 24448, Note_on_c, 0, 73, 0
2, 24448, Note_on_c, 0, 74, 64
2, 24456, Note_on_c, 0, 74, 0
2, 24456, Note_on_c, 0, 73, 64
2, 24464, Note_on_c, 0, 73, 0
2, 24464, Note_on_c, 0, 71, 64
2, 24472, Note_on_c, 0, 71, 0
2, 24472, Note_on_c, 0, 73, 64
2, 24480, Note_on_c, 0, 73, 0
2, 24480, Note_on_c, 0, 81, 64
2, 24621, Note_on_c, 0, 81, 0
2, 24624, Note_on_c, 0, 80, 64
2, 24647, Note_on_c, 0, 80, 0
2, 24648, Note_on_c, 0, 78, 64
2, 24671, Note_on_c, 0, 78, 0
2, 24672, Note_on_c, 0, 76, 64
2, 24695, Note_on_c, 0, 76, 0
2, 24696, Note_on_c, 0, 74, 64
2, 24719, Note_on_c, 0, 74, 0
2, 24720, Note_on_c, 0, 73, 64
2, 24743, Note_on_c, 0, 73, 0
2, 24744, Note_on_c, 0, 72, 64
2, 24767, Note_on_c, 0, 72, 0
2, 24768, Note_on_c, 0, 72, 64
2, 24864, Note_on_c, 0, 72, 0
2, 24864, Note_on_c, 0, 73, 64
2, 24909, Note_on_c, 0, 73, 0
2, 24960, Note_on_c, 0, 66, 64
2, 24972, Note_on_c, 0, 66, 0
2, 24972, Note_on_c, 0, 65, 64
2, 24984, Note_on_c, 0, 65, 0
2, 24984, Note_on_c, 0, 66, 64
2, 25139, Note_on_c, 0, 66, 0
2, 25152, Note_on_c, 0, 73, 64
2, 25164, Note_on_c, 0, 73, 0
2, 25164, Note_on_c, 0, 72, 64
2, 25176, Note_on_c, 0, 72, 0
2, 25176, Note_on_c, 0, 73, 64
2, 25331, Note_on_c, 0, 73, 0
2, 25344, Note_on_c, 0, 78, 64
2, 25477, Note_on_c, 0, 78, 0
2, 25488, Note_on_c, 0, 80, 64
2, 25522, Note_on_c, 0, 80, 0
2, 25524, Note_on_c, 0, 81, 64
2, 25536, Note_on_c, 0, 81, 0
2, 25536, Note_on_c, 0, 78, 64
2, 25556, Note_on_c, 0, 78, 0
2, 25584, Note_on_c, 0, 80, 64
2, 25618, Note_on_c, 0, 80, 0
2, 25620, Note_on_c, 0, 81, 64
2, 25632, Note_on_c, 0, 81, 0
2, 25632, Note_on_c, 0, 78, 64
2, 25652, Note_on_c, 0, 78, 0
2, 25680, Note_on_c, 0, 80, 64
2, 25714, Note_on_c, 0, 80, 0
2, 25716, Note_on_c, 0, 81, 64
2, 25728, Note_on_c, 0, 81, 0
2, 25728, Note_on_c, 0, 78, 64
2, 25861, Note_on_c, 0, 78, 0
2, 25872, Note_on_c, 0, 80, 64
2, 25906, Note_on_c, 0, 80, 0
2, 25908, Note_on_c, 0, 81, 64
2, 25920, Note_on_c, 0, 81, 0
2, 25920, Note_on_c, 0, 78, 64
2, 26053, Note_on_c, 0, 78, 0
2, 26064, Note_on_c, 0, 80, 64
2, 26098, Note_on_c, 0, 80, 0
2, 26100, Note_on_c, 0, 81, 64
2, 26112, Note_on_c, 0, 81, 0
2, 26112, Note_on_c, 0, 76, 64
2, 26157, Note_on_c, 0, 76, 0
2, 26160, Note_on_c, 0, 80, 64
2, 26194, Note_on_c, 0, 80, 0
2, 26196, Note_on_c, 0, 81, 64
2, 26208, Note_on_c, 0, 81, 0
2, 26208, Note_on_c, 0, 74, 64
2, 26253, Note_on_c, 0, 74, 0
2, 26256, Note_on_c, 0, 80, 64
2, 26290, Note_on_c, 0, 80, 0
2, 26292, Note_on_c, 0, 81, 64
2, 26304, Note_on_c, 0, 81, 0
2, 26304, Note_on_c, 0, 73, 64
2, 26349, Note_on_c, 0, 73, 0
2, 26352, Note_on_c, 0, 80, 64
2, 26386, Note_on_c, 0, 80, 0
2, 26388, Note_on_c, 0, 81, 64
2, 26400, Note_on_c, 0, 81, 0
2, 26400, Note_on_c, 0, 71, 64
2, 26445, Note_on_c, 0, 71, 0
2, 26448, Note_on_c, 0, 80, 64
2, 26482, Note_on_c, 0, 80, 0
2, 26484, Note_on_c, 0, 81, 64
2, 26496, Note_on_c, 0, 81, 0
2, 26496, Note_on_c, 0, 69, 64
2, 26541, Note_on_c, 0, 69, 0
2, 26544, Note_on_c, 0, 80, 64
2, 26578, Note_on_c, 0, 80, 0
2, 26580, Note_on_c, 0, 81, 64
2, 26592, Note_on_c, 0, 81, 0
2, 26592, Note_on_c, 0, 72, 64
2, 26637, Note_on_c, 0, 72, 0
2, 26640, Note_on_c, 0, 78, 64
2, 26674, Note_on_c, 0, 78, 0
2, 26676, Note_on_c, 0, 81, 64
2, 26688, Note_on_c, 0, 81, 0
2, 26688, Note_on_c, 0, 73, 64
2, 26733, Note_on_c, 0, 73, 0
2, 26736, Note_on_c, 0, 76, 64
2, 26770, Note_on_c, 0, 76, 0
2, 26772, Note_on_c, 0, 80, 64
2, 26784, Note_on_c, 0, 80, 0
2, 26784, Note_on_c, 0, 68, 64
2, 26829, Note_on_c, 0, 68, 0
2, 26832, Note_on_c, 0, 75, 64
2, 26866, Note_on_c, 0, 75, 0
2, 26868, Note_on_c, 0, 78, 64
2, 26880, Note_on_c, 0, 78, 0
2, 26880, Note_on_c, 0, 68, 64
2, 26925, Note_on_c, 0, 68, 0
2, 26928, Note_on_c, 0, 73, 64
2, 26962, Note_on_c, 0, 73, 0
2, 26964, Note_on_c, 0, 76, 64
2, 26976, Note_on_c, 0, 76, 0
2, 26976, Note_on_c, 0, 69, 64
2, 27021, Note_on_c, 0, 69, 0
2, 27024, Note_on_c, 0, 73, 64
2, 27058, Note_on_c, 0, 73, 0
2, 27060, Note_on_c, 0, 76, 64
2, 27072, Note_on_c, 0, 76, 0
2, 27072, Note_on_c, 0, 68, 64
2, 27117, Note_on_c, 0, 68, 0
2, 27120, Note_on_c, 0, 73, 64
2, 27154, Note_on_c, 0, 73, 0
2, 27156, Note_on_c, 0, 76, 64
2, 27168, Note_on_c, 0, 76, 0
2, 27168, Note_on_c, 0, 67, 64
2, 27213, Note_on_c, 0, 67, 0
2, 27216, Note_on_c, 0, 73, 64
2, 27250, Note_on_c, 0, 73, 0
2, 27252, Note_on_c, 0, 76, 64
2, 27264, Note_on_c, 0, 76, 0
2, 27264, Note_on_c, 0, 66, 64
2, 27309, Note_on_c, 0, 66, 0
2, 27312, Note_on_c, 0, 73, 64
2, 27346, Note_on_c, 0, 73, 0
2, 27348, Note_on_c, 0, 76, 64
2, 27360, Note_on_c, 0, 76, 0
2, 27360, Note_on_c, 0, 66, 64
2, 27405, Note_on_c, 0, 66, 0
2, 27408, Note_on_c, 0, 70, 64
2, 27442, Note_on_c, 0, 70, 0
2, 27444, Note_on_c, 0, 73, 64
2, 27456, Note_on_c, 0, 73, 0
2, 27456, Note_on_c, 0, 66, 64
2, 27501, Note_on_c, 0, 66, 0
2, 27504, Note_on_c, 0, 71, 64
2, 27538, Note_on_c, 0, 71, 0
2, 27540, Note_on_c, 0, 74, 64
2, 27552, Note_on_c, 0, 74, 0
2, 27552, Note_on_c, 0, 66, 64
2, 27597, Note_on_c, 0, 66, 0
2, 27600, Note_on_c, 0, 73, 64
2, 27634, Note_on_c, 0, 73, 0
2, 27636, Note_on_c, 0, 76, 64
2, 27648, Note_on_c, 0, 76, 0
2, 27648, Note_on_c, 0, 66, 64
2, 27693, Note_on_c, 0, 66, 0
2, 27696, Note_on_c, 0, 74, 64
2, 27730, Note_on_c, 0, 74, 0
2, 27732, Note_on_c, 0, 78, 64
2, 27744, Note_on_c, 0, 78, 0
2, 27744, Note_on_c, 0, 66, 64
2, 27789, Note_on_c, 0, 66, 0
2, 27792, Note_on_c, 0, 70, 64
2, 27826, Note_on_c, 0, 70, 0
2, 27828, Note_on_c, 0, 73, 64
2, 27840, Note_on_c, 0, 73, 0
2, 27840, Note_on_c, 0, 66, 64
2, 27885, Note_on_c, 0, 66, 0
2, 27888, Note_on_c, 0, 71, 64
2, 27922, Note_on_c, 0, 71, 0
2, 27924, Note_on_c, 0, 74, 64
2, 27936, Note_on_c, 0, 74, 0
2, 27936, Note_on_c, 0, 65, 64
2, 27981, Note_on_c, 0, 65, 0
2, 27984, Note_on_c, 0, 71, 64
2, 28018, Note_on_c, 0, 71, 0
2, 28020, Note_on_c, 0, 74, 64
2, 28032, Note_on_c, 0, 74, 0
2, 28032, Note_on_c, 0, 66, 64
2, 28077, Note_on_c, 0, 66, 0
2, 28080, Note_on_c, 0, 70, 64
2, 28114, Note_on_c, 0, 70, 0
2, 28116, Note_on_c, 0, 73, 64
2, 28128, Note_on_c, 0, 73, 0
2, 28128, Note_on_c, 0, 64, 64
2, 28173, Note_on_c, 0, 64, 0
2, 28176, Note_on_c, 0, 70, 64
2, 28210, Note_on_c, 0, 70, 0
2, 28212, Note_on_c, 0, 73, 64
2, 28224, Note_on_c, 0, 73, 0
2, 28224, Note_on_c, 0, 62, 64
2, 28269, Note_on_c, 0, 62, 0
2, 28272, Note_on_c, 0, 66, 64
2, 28306, Note_on_c, 0, 66, 0
2, 28308, Note_on_c, 0, 71, 64
2, 28320, Note_on_c, 0, 71, 0
2, 28320, Note_on_c, 0, 59, 64
2, 28365, Note_on_c, 0, 59, 0
2, 28368, Note_on_c, 0, 62, 64
2, 28402, Note_on_c, 0, 62, 0
2, 28404, Note_on_c, 0, 65, 64
2, 28416, Note_on_c, 0, 65, 0
2, 28416, Note_on_c, 0, 58, 64
2, 28461, Note_on_c, 0, 58, 0
2, 28464, Note_on_c, 0, 61, 64
2, 28498, Note_on_c, 0, 61, 0
2, 28500, Note_on_c, 0, 66, 64
2, 28512, Note_on_c, 0, 66, 0
2, 28512, Note_on_c, 0, 55, 64
2, 28557, Note_on_c, 0, 55, 0
2, 28560, Note_on_c, 0, 58, 64
2, 28594, Note_on_c, 0, 58, 0
2, 28596, Note_on_c, 0, 61, 64
2, 28608, Note_on_c, 0, 61, 0
2, 28608, Note_on_c, 0, 54, 64
2, 28653, Note_on_c, 0, 54, 0
2, 28656, Note_on_c, 0, 58, 64
2, 28690, Note_on_c, 0, 58, 0
2, 28692, Note_on_c, 0, 61, 64
2, 28704, Note_on_c, 0, 61, 0
2, 28704, Note_on_c, 0, 52, 64
2, 28749, Note_on_c, 0, 52, 0
2, 28752, Note_on_c, 0, 58, 64
2, 28786, Note_on_c, 0, 58, 0
2, 28788, Note_on_c, 0, 61, 64
2, 28800, Note_on_c, 0, 61, 0
2, 28800, Note_on_c, 0, 59, 64
2, 28977, Note_on_c, 0, 59, 0
2, 28992, Note_on_c, 0, 66, 64
2, 29004, Note_on_c, 0, 66, 0
2, 29004, Note_on_c, 0, 65, 64
2, 29016, Note_on_c, 0, 65, 0
2, 29016, Note_on_c, 0, 66, 64
2, 29171, Note_on_c, 0, 66, 0
2, 29184, Note_on_c, 0, 71, 64
2, 29196, Note_on_c, 0, 71, 0
2, 29196, Note_on_c, 0, 70, 64
2, 29208, Note_on_c, 0, 70, 0
2, 29208, Note_on_c, 0, 71, 64
2, 29321, Note_on_c, 0, 71, 0
2, 29328, Note_on_c, 0, 73, 64
2, 29362, Note_on_c, 0, 73, 0
2, 29364, Note_on_c, 0, 74, 64
2, 29376, Note_on_c, 0, 74, 0
2, 29376, Note_on_c, 0, 71, 64
2, 29421, Note_on_c, 0, 71, 0
2, 29424, Note_on_c, 0, 78, 64
2, 29444, Note_on_c, 0, 78, 0
2, 29472, Note_on_c, 0, 78, 64
2, 29492, Note_on_c, 0, 78, 0
2, 29520, Note_on_c, 0, 78, 64
2, 29540, Note_on_c, 0, 78, 0
2, 29568, Note_on_c, 0, 78, 64
2, 29687, Note_on_c, 0, 78, 0
2, 29688, Note_on_c, 0, 79, 64
2, 29694, Note_on_c, 0, 79, 0
2, 29694, Note_on_c, 0, 78, 64
2, 29700, Note_on_c, 0, 78, 0
2, 29700, Note_on_c, 0, 76, 64
2, 29706, Note_on_c, 0, 76, 0
2, 29706, Note_on_c, 0, 78, 64
2, 29712, Note_on_c, 0, 78, 0
2, 29712, Note_on_c, 0, 79, 64
2, 29746, Note_on_c, 0, 79, 0
2, 29748, Note_on_c, 0, 76, 64
2, 29760, Note_on_c, 0, 76, 0
2, 29760, Note_on_c, 0, 76, 64
2, 29856, Note_on_c, 0, 76, 0
2, 29856, Note_on_c, 0, 74, 64
2, 29868, Note_on_c, 0, 74, 0
2, 29868, Note_on_c, 0, 76, 64
2, 29880, Note_on_c, 0, 76, 0
2, 29880, Note_on_c, 0, 74, 64
2, 29901, Note_on_c, 0, 74, 0
2, 29904, Note_on_c, 0, 78, 64
2, 29938, Note_on_c, 0, 78, 0
2, 29940, Note_on_c, 0, 71, 64
2, 29952, Note_on_c, 0, 71, 0
2, 29952, Note_on_c, 0, 73, 64
2, 29964, Note_on_c, 0, 73, 0
2, 29964, Note_on_c, 0, 74, 64
2, 29976, Note_on_c, 0, 74, 0
2, 29976, Note_on_c, 0, 73, 64
2, 29997, Note_on_c, 0, 73, 0
2, 30000, Note_on_c, 0, 71, 64
2, 30045, Note_on_c, 0, 71, 0
2, 30048, Note_on_c, 0, 74, 64
2, 30071, Note_on_c, 0, 74, 0
2, 30072, Note_on_c, 0, 73, 64
2, 30095, Note_on_c, 0, 73, 0
2, 30096, Note_on_c, 0, 71, 64
2, 30119, Note_on_c, 0, 71, 0
2, 30120, Note_on_c, 0, 70, 64
2, 30143, Note_on_c, 0, 70, 0
2, 30144, Note_on_c, 0, 71, 64
2, 30233, Note_on_c, 0, 71, 0
2, 30288, Note_on_c, 0, 83, 64
2, 30312, Note_on_c, 0, 83, 0
2, 30312, Note_on_c, 0, 79, 64
2, 30335, Note_on_c, 0, 79, 0
2, 30336, Note_on_c, 0, 78, 64
2, 30359, Note_on_c, 0, 78, 0
2, 30360, Note_on_c, 0, 76, 64
2, 30383, Note_on_c, 0, 76, 0
2, 30384, Note_on_c, 0, 75, 64
2, 30407, Note_on_c, 0, 75, 0
2, 30408, Note_on_c, 0, 76, 64
2, 30431, Note_on_c, 0, 76, 0
2, 30432, Note_on_c, 0, 78, 64
2, 30456, Note_on_c, 0, 78, 0
2, 30456, Note_on_c, 0, 76, 64
2, 30479, Note_on_c, 0, 76, 0
2, 30480, Note_on_c, 0, 79, 64
2, 30504, Note_on_c, 0, 79, 0
2, 30504, Note_on_c, 0, 76, 64
2, 30527, Note_on_c, 0, 76, 0
2, 30528, Note_on_c, 0, 70, 64
2, 30624, Note_on_c, 0, 70, 0
2, 30624, Note_on_c, 0, 71, 64
2, 30644, Note_on_c, 0, 71, 0
2, 30672, Note_on_c, 0, 78, 64
2, 30696, Note_on_c, 0, 78, 0
2, 30696, Note_on_c, 0, 74, 64
2, 30719, Note_on_c, 0, 74, 0
2, 30720, Note_on_c, 0, 73, 64
2, 30743, Note_on_c, 0, 73, 0
2, 30744, Note_on_c, 0, 71, 64
2, 30767, Note_on_c, 0, 71, 0
2, 30768, Note_on_c, 0, 70, 64
2, 30791, Note_on_c, 0, 70, 0
2, 30792, Note_on_c, 0, 71, 64
2, 30815, Note_on_c, 0, 71, 0
2, 30816, Note_on_c, 0, 73, 64
2, 30840, Note_on_c, 0, 73, 0
2, 30840, Note_on_c, 0, 71, 64
2, 30863, Note_on_c, 0, 71, 0
2, 30864, Note_on_c, 0, 74, 64
2, 30888, Note_on_c, 0, 74, 0
2, 30888, Note_on_c, 0, 71, 64
2, 30911, Note_on_c, 0, 71, 0
2, 30912, Note_on_c, 0, 65, 64
2, 31008, Note_on_c, 0, 65, 0
2, 31008, Note_on_c, 0, 66, 64
2, 31053, Note_on_c, 0, 66, 0
2, 31056, Note_on_c, 0, 73, 64
2, 31079, Note_on_c, 0, 73, 0
2, 31080, Note_on_c, 0, 64, 64
2, 31103, Note_on_c, 0, 64, 0
2, 31104, Note_on_c, 0, 64, 64
2, 31127, Note_on_c, 0, 64, 0
2, 31128, Note_on_c, 0, 62, 64
2, 31151, Note_on_c, 0, 62, 0
2, 31152, Note_on_c, 0, 61, 64
2, 31175, Note_on_c, 0, 61, 0
2, 31176, Note_on_c, 0, 62, 64
2, 31199, Note_on_c, 0, 62, 0
2, 31200, Note_on_c, 0, 61, 64
2, 31223, Note_on_c, 0, 61, 0
2, 31224, Note_on_c, 0, 59, 64
2, 31247, Note_on_c, 0, 59, 0
2, 31248, Note_on_c, 0, 58, 64
2, 31271, Note_on_c, 0, 58, 0
2, 31272, Note_on_c, 0, 59, 64
2, 31295, Note_on_c, 0, 59, 0
2, 31296, Note_on_c, 0, 66, 64
2, 31385, Note_on_c, 0, 66, 0
2, 31494, Note_on_c, 0, 62, 64
2, 31500, Note_on_c, 0, 66, 64
2, 31506, Note_on_c, 0, 71, 64
2, 31536, Note_on_c, 0, 83, 64
2, 31559, Note_on_c, 0, 83, 0
2, 31559, Note_on_c, 0, 71, 0
2, 31559, Note_on_c, 0, 66, 0
2, 31559, Note_on_c, 0, 62, 0
2, 31560, Note_on_c, 0, 71, 64
2, 31583, Note_on_c, 0, 71, 0
2, 31584, Note_on_c, 0, 82, 64
2, 31607, Note_on_c, 0, 82, 0
2, 31608, Note_on_c, 0, 71, 64
2, 31631, Note_on_c, 0, 71, 0
2, 31632, Note_on_c, 0, 81, 64
2, 31655, Note_on_c, 0, 81, 0
2, 31656, Note_on_c, 0, 71, 64
2, 31679, Note_on_c, 0, 71, 0
2, 31680, Note_on_c, 0, 79, 64
2, 31703, Note_on_c, 0, 79, 0
2, 31704, Note_on_c, 0, 71, 64
2, 31727, Note_on_c, 0, 71, 0
2, 31728, Note_on_c, 0, 78, 64
2, 31751, Note_on_c, 0, 78, 0
2, 31752, Note_on_c, 0, 71, 64
2, 31775, Note_on_c, 0, 71, 0
2, 31776, Note_on_c, 0, 79, 64
2, 31799, Note_on_c, 0, 79, 0
2, 31800, Note_on_c, 0, 71, 64
2, 31823, Note_on_c, 0, 71, 0
2, 31824, Note_on_c, 0, 76, 64
2, 31847, Note_on_c, 0, 76, 0
2, 31848, Note_on_c, 0, 70, 64
2, 31871, Note_on_c, 0, 70, 0
2, 31878, Note_on_c, 0, 62, 64
2, 31884, Note_on_c, 0, 66, 64
2, 31890, Note_on_c, 0, 71, 64
2, 31920, Note_on_c, 0, 83, 64
2, 31943, Note_on_c, 0, 83, 0
2, 31943, Note_on_c, 0, 71, 0
2, 31943, Note_on_c, 0, 66, 0
2, 31943, Note_on_c, 0, 62, 0
2, 31944, Note_on_c, 0, 71, 64
2, 31967, Note_on_c, 0, 71, 0
2, 31968, Note_on_c, 0, 82, 64
2, 31991, Note_on_c, 0, 82, 0
2, 31992, Note_on_c, 0, 71, 64
2, 32015, Note_on_c, 0, 71, 0
2, 32016, Note_on_c, 0, 81, 64
2, 32039, Note_on_c, 0, 81, 0
2, 32040, Note_on_c, 0, 71, 64
2, 32063, Note_on_c, 0, 71, 0
2, 32064, Note_on_c, 0, 79, 64
2, 32087, Note_on_c, 0, 79, 0
2, 32088, Note_on_c, 0, 71, 64
2, 32111, Note_on_c, 0, 71, 0
2, 32112, Note_on_c, 0, 78, 64
2, 32135, Note_on_c, 0, 78, 0
2, 32136, Note_on_c, 0, 71, 64
2, 32159, Note_on_c, 0, 71, 0
2, 32160, Note_on_c, 0, 79, 64
2, 32183, Note_on_c, 0, 79, 0
2, 32184, Note_on_c, 0, 71, 64
2, 32207, Note_on_c, 0, 71, 0
2, 32208, Note_on_c, 0, 76, 64
2, 32231, Note_on_c, 0, 76, 0
2, 32232, Note_on_c, 0, 70, 64
2, 32255, Note_on_c, 0, 70, 0
2, 32262, Note_on_c, 0, 62, 64
2, 32268, Note_on_c, 0, 66, 64
2, 32274, Note_on_c, 0, 71, 64
2, 32304, Note_on_c, 0, 83, 64
2, 32327, Note_on_c, 0, 83, 0
2, 32327, Note_on_c, 0, 71, 0
2, 32327, Note_on_c, 0, 66, 0
2, 32327, Note_on_c, 0, 62, 0
2, 32328, Note_on_c, 0, 71, 64
2, 32351, Note_on_c, 0, 71, 0
2, 32352, Note_on_c, 0, 82, 64
2, 32375, Note_on_c, 0, 82, 0
2, 32376, Note_on_c, 0, 71, 64
2, 32399, Note_on_c, 0, 71, 0
2, 32400, Note_on_c, 0, 81, 64
2, 32423, Note_on_c, 0, 81, 0
2, 32424, Note_on_c, 0, 71, 64
2, 32447, Note_on_c, 0, 71, 0
2, 32448, Note_on_c, 0, 79, 64
2, 32471, Note_on_c, 0, 79, 0
2, 32472, Note_on_c, 0, 71, 64
2, 32495, Note_on_c, 0, 71, 0
2, 32496, Note_on_c, 0, 78, 64
2, 32519, Note_on_c, 0, 78, 0
2, 32520, Note_on_c, 0, 71, 64
2, 32543, Note_on_c, 0, 71, 0
2, 32544, Note_on_c, 0, 79, 64
2, 32567, Note_on_c, 0, 79, 0
2, 32568, Note_on_c, 0, 71, 64
2, 32591, Note_on_c, 0, 71, 0
2, 32592, Note_on_c, 0, 83, 64
2, 32615, Note_on_c, 0, 83, 0
2, 32616, Note_on_c, 0, 71, 64
2, 32639, Note_on_c, 0, 71, 0
2, 32640, Note_on_c, 0, 78, 64
2, 32663, Note_on_c, 0, 78, 0
2, 32664, Note_on_c, 0, 71, 64
2, 32687, Note_on_c, 0, 71, 0
2, 32688, Note_on_c, 0, 76, 64
2, 32711, Note_on_c, 0, 76, 0
2, 32712, Note_on_c, 0, 71, 64
2, 32735, Note_on_c, 0, 71, 0
2, 32736, Note_on_c, 0, 78, 64
2, 32759, Note_on_c, 0, 78, 0
2, 32760, Note_on_c, 0, 71, 64
2, 32783, Note_on_c, 0, 71, 0
2, 32784, Note_on_c, 0, 74, 64
2, 32807, Note_on_c, 0, 74, 0
2, 32808, Note_on_c, 0, 71, 64
2, 32831, Note_on_c, 0, 71, 0
2, 32832, Note_on_c, 0, 76, 64
2, 32855, Note_on_c, 0, 76, 0
2, 32856, Note_on_c, 0, 71, 64
2, 32879, Note_on_c, 0, 71, 0
2, 32880, Note_on_c, 0, 74, 64
2, 32903, Note_on_c, 0, 74, 0
2, 32904, Note_on_c, 0, 71, 64
2, 32927, Note_on_c, 0, 71, 0
2, 32928, Note_on_c, 0, 76, 64
2, 32951, Note_on_c, 0, 76, 0
2, 32952, Note_on_c, 0, 71, 64
2, 32975, Note_on_c, 0, 71, 0
2, 32976, Note_on_c, 0, 73, 64
2, 32999, Note_on_c, 0, 73, 0
2, 33000, Note_on_c, 0, 71, 64
2, 33023, Note_on_c, 0, 71, 0
2, 33024, Note_on_c, 0, 74, 64
2, 33047, Note_on_c, 0, 74, 0
2, 33048, Note_on_c, 0, 71, 64
2, 33071, Note_on_c, 0, 71, 0
2, 33072, Note_on_c, 0, 73, 64
2, 33095, Note_on_c, 0, 73, 0
2, 33096, Note_on_c, 0, 71, 64
2, 33119, Note_on_c, 0, 71, 0
2, 33120, Note_on_c, 0, 74, 64
2, 33143, Note_on_c, 0, 74, 0
2, 33144, Note_on_c, 0, 71, 64
2, 33167, Note_on_c, 0, 71, 0
2, 33168, Note_on_c, 0, 78, 64
2, 33191, Note_on_c, 0, 78, 0
2, 33192, Note_on_c, 0, 71, 64
2, 33215, Note_on_c, 0, 71, 0
2, 33216, Note_on_c, 0, 77, 64
2, 33239, Note_on_c, 0, 77, 0
2, 33240, Note_on_c, 0, 71, 64
2, 33263, Note_on_c, 0, 71, 0
2, 33264, Note_on_c, 0, 77, 64
2, 33287, Note_on_c, 0, 77, 0
2, 33288, Note_on_c, 0, 71, 64
2, 33311, Note_on_c, 0, 71, 0
2, 33312, Note_on_c, 0, 76, 64
2, 33335, Note_on_c, 0, 76, 0
2, 33336, Note_on_c, 0, 70, 64
2, 33359, Note_on_c, 0, 70, 0
2, 33360, Note_on_c, 0, 76, 64
2, 33383, Note_on_c, 0, 76, 0
2, 33384, Note_on_c, 0, 70, 64
2, 33407, Note_on_c, 0, 70, 0
2, 33408, Note_on_c, 0, 74, 64
2, 33431, Note_on_c, 0, 74, 0
2, 33432, Note_on_c, 0, 71, 64
2, 33455, Note_on_c, 0, 71, 0
2, 33456, Note_on_c, 0, 74, 64
2, 33479, Note_on_c, 0, 74, 0
2, 33480, Note_on_c, 0, 71, 64
2, 33503, Note_on_c, 0, 71, 0
2, 33504, Note_on_c, 0, 78, 64
2, 33527, Note_on_c, 0, 78, 0
2, 33528, Note_on_c, 0, 69, 64
2, 33551, Note_on_c, 0, 69, 0
2, 33552, Note_on_c, 0, 78, 64
2, 33575, Note_on_c, 0, 78, 0
2, 33576, Note_on_c, 0, 69, 64
2, 33599, Note_on_c, 0, 69, 0
2, 33600, Note_on_c, 0, 76, 64
2, 33623, Note_on_c, 0, 76, 0
2, 33624, Note_on_c, 0, 67, 64
2, 33647, Note_on_c, 0, 67, 0
2, 33648, Note_on_c, 0, 76, 64
2, 33671, Note_on_c, 0, 76, 0
2, 33672, Note_on_c, 0, 67, 64
2, 33695, Note_on_c, 0, 67, 0
2, 33696, Note_on_c, 0, 74, 64
2, 33719, Note_on_c, 0, 74, 0
2, 33720, Note_on_c, 0, 71, 64
2, 33743, Note_on_c, 0, 71, 0
2, 33744, Note_on_c, 0, 74, 64
2, 33767, Note_on_c, 0, 74, 0
2, 33768, Note_on_c, 0, 71, 64
2, 33791, Note_on_c, 0, 71, 0
2, 33792, Note_on_c, 0, 70, 64
2, 33837, Note_on_c, 0, 70, 0
2, 33840, Note_on_c, 0, 71, 64
2, 33885, Note_on_c, 0, 71, 0
2, 33888, Note_on_c, 0, 73, 64
2, 33933, Note_on_c, 0, 73, 0
2, 33936, Note_on_c, 0, 76, 64
2, 33948, Note_on_c, 0, 76, 0
2, 33948, Note_on_c, 0, 74, 64
2, 33960, Note_on_c, 0, 74, 0
2, 33960, Note_on_c, 0, 73, 64
2, 33972, Note_on_c, 0, 73, 0
2, 33972, Note_on_c, 0, 74, 64
2, 33984, Note_on_c, 0, 74, 0
2, 33984, Note_on_c, 0, 76, 64
2, 34029, Note_on_c, 0, 76, 0
2, 34032, Note_on_c, 0, 74, 64
2, 34077, Note_on_c, 0, 74, 0
2, 34080, Note_on_c, 0, 76, 64
2, 34125, Note_on_c, 0, 76, 0
2, 34128, Note_on_c, 0, 73, 64
2, 34173, Note_on_c, 0, 73, 0
2, 34176, Note_on_c, 0, 74, 64
2, 34199, Note_on_c, 0, 74, 0
2, 34200, Note_on_c, 0, 71, 64
2, 34223, Note_on_c, 0, 71, 0
2, 34224, Note_on_c, 0, 76, 64
2, 34247, Note_on_c, 0, 76, 0
2, 34248, Note_on_c, 0, 71, 64
2, 34271, Note_on_c, 0, 71, 0
2, 34272, Note_on_c, 0, 78, 64
2, 34295, Note_on_c, 0, 78, 0
2, 34296, Note_on_c, 0, 71, 64
2, 34319, Note_on_c, 0, 71, 0
2, 34320, Note_on_c, 0, 81, 64
2, 34332, Note_on_c, 0, 81, 0
2, 34332, Note_on_c, 0, 79, 64
2, 34344, Note_on_c, 0, 79, 0
2, 34344, Note_on_c, 0, 78, 64
2, 34356, Note_on_c, 0, 78, 0
2, 34356, Note_on_c, 0, 79, 64
2, 34368, Note_on_c, 0, 79, 0
2, 34368, Note_on_c, 0, 81, 64
2, 34391, Note_on_c, 0, 81, 0
2, 34392, Note_on_c, 0, 71, 64
2, 34415, Note_on_c, 0, 71, 0
2, 34416, Note_on_c, 0, 79, 64
2, 34439, Note_on_c, 0, 79, 0
2, 34440, Note_on_c, 0, 71, 64
2, 34463, Note_on_c, 0, 71, 0
2, 34464, Note_on_c, 0, 81, 64
2, 34487, Note_on_c, 0, 81, 0
2, 34488, Note_on_c, 0, 71, 64
2, 34511, Note_on_c, 0, 71, 0
2, 34512, Note_on_c, 0, 78, 64
2, 34535, Note_on_c, 0, 78, 0
2, 34536, Note_on_c, 0, 71, 64
2, 34559, Note_on_c, 0, 71, 0
2, 34560, Note_on_c, 0, 79, 64
2, 34583, Note_on_c, 0, 79, 0
2, 34584, Note_on_c, 0, 71, 64
2, 34607, Note_on_c, 0, 71, 0
2, 34608, Note_on_c, 0, 78, 64
2, 34631, Note_on_c, 0, 78, 0
2, 34632, Note_on_c, 0, 71, 64
2, 34655, Note_on_c, 0, 71, 0
2, 34656, Note_on_c, 0, 79, 64
2, 34679, Note_on_c, 0, 79, 0
2, 34680, Note_on_c, 0, 71, 64
2, 34703, Note_on_c, 0, 71, 0
2, 34704, Note_on_c, 0, 82, 64
2, 34727, Note_on_c, 0, 82, 0
2, 34728, Note_on_c, 0, 73, 64
2, 34751, Note_on_c, 0, 73, 0
2, 34752, Note_on_c, 0, 83, 64
2, 34775, Note_on_c, 0, 83, 0
2, 34776, Note_on_c, 0, 71, 64
2, 34799, Note_on_c, 0, 71, 0
2, 34800, Note_on_c, 0, 82, 64
2, 34823, Note_on_c, 0, 82, 0
2, 34824, Note_on_c, 0, 73, 64
2, 34847, Note_on_c, 0, 73, 0
2, 34848, Note_on_c, 0, 83, 64
2, 34871, Note_on_c, 0, 83, 0
2, 34872, Note_on_c, 0, 71, 64
2, 34895, Note_on_c, 0, 71, 0
2, 34896, Note_on_c, 0, 82, 64
2, 34919, Note_on_c, 0, 82, 0
2, 34920, Note_on_c, 0, 73, 64
2, 34943, Note_on_c, 0, 73, 0
2, 34944, Note_on_c, 0, 83, 64
2, 34964, Note_on_c, 0, 83, 0
2, 34992, Note_on_c, 0, 86, 64
2, 35007, Note_on_c, 0, 86, 0
2, 35008, Note_on_c, 0, 85, 64
2, 35023, Note_on_c, 0, 85, 0
2, 35024, Note_on_c, 0, 83, 64
2, 35039, Note_on_c, 0, 83, 0
2, 35040, Note_on_c, 0, 81, 64
2, 35055, Note_on_c, 0, 81, 0
2, 35056, Note_on_c, 0, 79, 64
2, 35071, Note_on_c, 0, 79, 0
2, 35072, Note_on_c, 0, 78, 64
2, 35087, Note_on_c, 0, 78, 0
2, 35088, Note_on_c, 0, 76, 64
2, 35103, Note_on_c, 0, 76, 0
2, 35104, Note_on_c, 0, 74, 64
2, 35119, Note_on_c, 0, 74, 0
2, 35120, Note_on_c, 0, 73, 64
2, 35135, Note_on_c, 0, 73, 0
2, 35136, Note_on_c, 0, 71, 64
2, 35156, Note_on_c, 0, 71, 0
2, 35184, Note_on_c, 0, 75, 64
2, 35199, Note_on_c, 0, 75, 0
2, 35200, Note_on_c, 0, 76, 64
2, 35215, Note_on_c, 0, 76, 0
2, 35216, Note_on_c, 0, 78, 64
2, 35231, Note_on_c, 0, 78, 0
2, 35232, Note_on_c, 0, 79, 64
2, 35247, Note_on_c, 0, 79, 0
2, 35248, Note_on_c, 0, 78, 64
2, 35263, Note_on_c, 0, 78, 0
2, 35264, Note_on_c, 0, 76, 64
2, 35279, Note_on_c, 0, 76, 0
2, 35280, Note_on_c, 0, 88, 64
2, 35295, Note_on_c, 0, 88, 0
2, 35296, Note_on_c, 0, 85, 64
2, 35311, Note_on_c, 0, 85, 0
2, 35312, Note_on_c, 0, 82, 64
2, 35327, Note_on_c, 0, 82, 0
2, 35328, Note_on_c, 0, 83, 64
2, 35373, Note_on_c, 0, 83, 0
2, 35376, Note_on_c, 0, 81, 64
2, 35388, Note_on_c, 0, 81, 0
2, 35388, Note_on_c, 0, 79, 64
2, 35400, Note_on_c, 0, 79, 0
2, 35400, Note_on_c, 0, 78, 64
2, 35412, Note_on_c, 0, 78, 0
2, 35412, Note_on_c, 0, 76, 64
2, 35424, Note_on_c, 0, 76, 0
2, 35424, Note_on_c, 0, 74, 64
2, 35469, Note_on_c, 0, 74, 0
2, 35472, Note_on_c, 0, 74, 64
2, 35480, Note_on_c, 0, 74, 0
2, 35480, Note_on_c, 0, 73, 64
2, 35488, Note_on_c, 0, 73, 0
2, 35488, Note_on_c, 0, 74, 64
2, 35496, Note_on_c, 0, 74, 0
2, 35496, Note_on_c, 0, 73, 64
2, 35504, Note_on_c, 0, 73, 0
2, 35504, Note_on_c, 0, 71, 64
2, 35512, Note_on_c, 0, 71, 0
2, 35512, Note_on_c, 0, 73, 64
2, 35520, Note_on_c, 0, 73, 0
2, 35520, Note_on_c, 0, 71, 64
2, 35540, Note_on_c, 0, 71, 0
2, 35568, Note_on_c, 0, 74, 64
2, 35583, Note_on_c, 0, 74, 0
2, 35584, Note_on_c, 0, 73, 64
2, 35599, Note_on_c, 0, 73, 0
2, 35600, Note_on_c, 0, 71, 64
2, 35615, Note_on_c, 0, 71, 0
2, 35616, Note_on_c, 0, 69, 64
2, 35631, Note_on_c, 0, 69, 0
2, 35632, Note_on_c, 0, 67, 64
2, 35647, Note_on_c, 0, 67, 0
2, 35648, Note_on_c, 0, 66, 64
2, 35663, Note_on_c, 0, 66, 0
2, 35664, Note_on_c, 0, 64, 64
2, 35679, Note_on_c, 0, 64, 0
2, 35680, Note_on_c, 0, 62, 64
2, 35695, Note_on_c, 0, 62, 0
2, 35696, Note_on_c, 0, 61, 64
2, 35711, Note_on_c, 0, 61, 0
2, 35712, Note_on_c, 0, 59, 64
2, 35757, Note_on_c, 0, 59, 0
2, 35808, Note_on_c, 0, 67, 64
2, 35823, Note_on_c, 0, 67, 0
2, 35824, Note_on_c, 0, 70, 64
2, 35839, Note_on_c, 0, 70, 0
2, 35840, Note_on_c, 0, 73, 64
2, 35855, Note_on_c, 0, 73, 0
2, 35856, Note_on_c, 0, 76, 64
2, 35871, Note_on_c, 0, 76, 0
2, 35872, Note_on_c, 0, 79, 64
2, 35887, Note_on_c, 0, 79, 0
2, 35888, Note_on_c, 0, 82, 64
2, 35903, Note_on_c, 0, 82, 0
2, 35904, Note_on_c, 0, 83, 64
2, 35949, Note_on_c, 0, 83, 0
2, 35952, Note_on_c, 0, 81, 64
2, 35964, Note_on_c, 0, 81, 0
2, 35964, Note_on_c, 0, 79, 64
2, 35976, Note_on_c, 0, 79, 0
2, 35976, Note_on_c, 0, 78, 64
2, 35988, Note_on_c, 0, 78, 0
2, 35988, Note_on_c, 0, 76, 64
2, 36000, Note_on_c, 0, 76, 0
2, 36000, Note_on_c, 0, 74, 64
2, 36045, Note_on_c, 0, 74, 0
2, 36048, Note_on_c, 0, 74, 64
2, 36056, Note_on_c, 0, 74, 0
2, 36056, Note_on_c, 0, 73, 64
2, 36064, Note_on_c, 0, 73, 0
2, 36064, Note_on_c, 0, 74, 64
2, 36072, Note_on_c, 0, 74, 0
2, 36072, Note_on_c, 0, 73, 64
2, 36080, Note_on_c, 0, 73, 0
2, 36080, Note_on_c, 0, 71, 64
2, 36088, Note_on_c, 0, 71, 0
2, 36088, Note_on_c, 0, 73, 64
2, 36096, Note_on_c, 0, 73, 0
2, 36096, Note_on_c, 0, 71, 64
2, 36116, Note_on_c, 0, 71, 0
2, 36144, Note_on_c, 0, 74, 64
2, 36168, Note_on_c, 0, 74, 0
2, 36168, Note_on_c, 0, 83, 64
2, 36191, Note_on_c, 0, 83, 0
2, 36192, Note_on_c, 0, 76, 64
2, 36215, Note_on_c, 0, 76, 0
2, 36216, Note_on_c, 0, 83, 64
2, 36239, Note_on_c, 0, 83, 0
2, 36240, Note_on_c, 0, 78, 64
2, 36263, Note_on_c, 0, 78, 0
2, 36264, Note_on_c, 0, 83, 64
2, 36287, Note_on_c, 0, 83, 0
2, 36288, Note_on_c, 0, 79, 64
2, 36311, Note_on_c, 0, 79, 0
2, 36312, Note_on_c, 0, 83, 64
2, 36335, Note_on_c, 0, 83, 0
2, 36336, Note_on_c, 0, 78, 64
2, 36359, Note_on_c, 0, 78, 0
2, 36360, Note_on_c, 0, 83, 64
2, 36383, Note_on_c, 0, 83, 0
2, 36384, Note_on_c, 0, 79, 64
2, 36407, Note_on_c, 0, 79, 0
2, 36408, Note_on_c, 0, 83, 64
2, 36431, Note_on_c, 0, 83, 0
2, 36432, Note_on_c, 0, 82, 64
2, 36455, Note_on_c, 0, 82, 0
2, 36456, Note_on_c, 0, 88, 64
2, 36479, Note_on_c, 0, 88, 0
2, 36480, Note_on_c, 0, 86, 64
2, 36503, Note_on_c, 0, 86, 0
2, 36504, Note_on_c, 0, 83, 64
2, 36527, Note_on_c, 0, 83, 0
2, 36528, Note_on_c, 0, 76, 64
2, 36551, Note_on_c, 0, 76, 0
2, 36552, Note_on_c, 0, 85, 64
2, 36575, Note_on_c, 0, 85, 0
2, 36576, Note_on_c, 0, 74, 64
2, 36599, Note_on_c, 0, 74, 0
2, 36600, Note_on_c, 0, 83, 64
2, 36623, Note_on_c, 0, 83, 0
2, 36624, Note_on_c, 0, 73, 64
2, 36647, Note_on_c, 0, 73, 0
2, 36648, Note_on_c, 0, 82, 64
2, 36671, Note_on_c, 0, 82, 0
2, 36672, Note_on_c, 0, 83, 64
2, 36672, Note_on_c, 0, 74, 64
2, 36717, Note_on_c, 0, 83, 0
2, 36717, Note_on_c, 0, 74, 0
2, 36720, Note_on_c, 0, 62, 64
2, 36744, Note_on_c, 0, 62, 0
2, 36744, Note_on_c, 0, 71, 64
2, 36767, Note_on_c, 0, 71, 0
2, 36768, Note_on_c, 0, 64, 64
2, 36791, Note_on_c, 0, 64, 0
2, 36792, Note_on_c, 0, 71, 64
2, 36815, Note_on_c, 0, 71, 0
2, 36816, Note_on_c, 0, 66, 64
2, 36839, Note_on_c, 0, 66, 0
2, 36840, Note_on_c, 0, 71, 64
2, 36863, Note_on_c, 0, 71, 0
2, 36864, Note_on_c, 0, 67, 64
2, 36887, Note_on_c, 0, 67, 0
2, 36888, Note_on_c, 0, 71, 64
2, 36911, Note_on_c, 0, 71, 0
2, 36912, Note_on_c, 0, 66, 64
2, 36935, Note_on_c, 0, 66, 0
2, 36936, Note_on_c, 0, 71, 64
2, 36959, Note_on_c, 0, 71, 0
2, 36960, Note_on_c, 0, 67, 64
2, 36983, Note_on_c, 0, 67, 0
2, 36984, Note_on_c, 0, 71, 64
2, 37007, Note_on_c, 0, 71, 0
2, 37008, Note_on_c, 0, 70, 64
2, 37031, Note_on_c, 0, 70, 0
2, 37032, Note_on_c, 0, 76, 64
2, 37055, Note_on_c, 0, 76, 0
2, 37056, Note_on_c, 0, 74, 64
2, 37079, Note_on_c, 0, 74, 0
2, 37080, Note_on_c, 0, 71, 64
2, 37103, Note_on_c, 0, 71, 0
2, 37104, Note_on_c, 0, 64, 64
2, 37127, Note_on_c, 0, 64, 0
2, 37128, Note_on_c, 0, 73, 64
2, 37151, Note_on_c, 0, 73, 0
2, 37152, Note_on_c, 0, 62, 64
2, 37175, Note_on_c, 0, 62, 0
2, 37176, Note_on_c, 0, 71, 64
2, 37199, Note_on_c, 0, 71, 0
2, 37200, Note_on_c, 0, 61, 64
2, 37223, Note_on_c, 0, 61, 0
2, 37224, Note_on_c, 0, 70, 64
2, 37247, Note_on_c, 0, 70, 0
2, 37248, Note_on_c, 0, 71, 64
2, 37248, Note_on_c, 0, 62, 64
2, 37268, Note_on_c, 0, 71, 0
2, 37268, Note_on_c, 0, 62, 0
2, 37296, Note_on_c, 0, 76, 64
2, 37308, Note_on_c, 0, 76, 0
2, 37308, Note_on_c, 0, 74, 64
2, 37320, Note_on_c, 0, 74, 0
2, 37320, Note_on_c, 0, 73, 64
2, 37332, Note_on_c, 0, 73, 0
2, 37332, Note_on_c, 0, 74, 64
2, 37344, Note_on_c, 0, 74, 0
2, 37344, Note_on_c, 0, 78, 64
2, 37344, Note_on_c, 0, 74, 64
2, 37364, Note_on_c, 0, 78, 0
2, 37364, Note_on_c, 0, 74, 0
2, 37392, Note_on_c, 0, 74, 64
2, 37392, Note_on_c, 0, 71, 64
2, 37412, Note_on_c, 0, 74, 0
2, 37412, Note_on_c, 0, 71, 0
2, 37440, Note_on_c, 0, 83, 64
2, 37440, Note_on_c, 0, 78, 64
2, 37440, Note_on_c, 0, 74, 64
2, 37440, Note_on_c, 0, 71, 64
2, 37529, Note_on_c, 0, 83, 0
2, 37529, Note_on_c, 0, 78, 0
2, 37529, Note_on_c, 0, 74, 0
2, 37529, Note_on_c, 0, 71, 0
2, 37632, Note_on_c, 0, 60, 64
2, 37644, Note_on_c, 0, 60, 0
2, 37644, Note_on_c, 0, 59, 64
2, 37656, Note_on_c, 0, 59, 0
2, 37656, Note_on_c, 0, 60, 64
2, 37811, Note_on_c, 0, 60, 0
2, 37824, Note_on_c, 0, 69, 64
2, 37836, Note_on_c, 0, 69, 0
2, 37836, Note_on_c, 0, 68, 64
2, 37848, Note_on_c, 0, 68, 0
2, 37848, Note_on_c, 0, 69, 64
2, 38003, Note_on_c, 0, 69, 0
2, 38016, Note_on_c, 0, 78, 64
2, 38028, Note_on_c, 0, 78, 0
2, 38028, Note_on_c, 0, 77, 64
2, 38040, Note_on_c, 0, 77, 0
2, 38040, Note_on_c, 0, 78, 64
2, 38195, Note_on_c, 0, 78, 0
2, 38208, Note_on_c, 0, 84, 64
2, 38341, Note_on_c, 0, 84, 0
2, 38352, Note_on_c, 0, 63, 64
2, 38397, Note_on_c, 0, 63, 0
2, 38400, Note_on_c, 0, 64, 64
2, 38412, Note_on_c, 0, 64, 0
2, 38412, Note_on_c, 0, 63, 64
2, 38424, Note_on_c, 0, 63, 0
2, 38424, Note_on_c, 0, 64, 64
2, 38579, Note_on_c, 0, 64, 0
2, 38592, Note_on_c, 0, 71, 64
2, 38604, Note_on_c, 0, 71, 0
2, 38604, Note_on_c, 0, 70, 64
2, 38616, Note_on_c, 0, 70, 0
2, 38616, Note_on_c, 0, 71, 64
2, 38769, Note_on_c, 0, 71, 0
2, 38784, Note_on_c, 0, 76, 64
2, 38917, Note_on_c, 0, 76, 0
2, 38928, Note_on_c, 0, 78, 64
2, 38962, Note_on_c, 0, 78, 0
2, 38964, Note_on_c, 0, 79, 64
2, 38976, Note_on_c, 0, 79, 0
2, 38976, Note_on_c, 0, 76, 64
2, 39021, Note_on_c, 0, 76, 0
2, 39024, Note_on_c, 0, 83, 64
2, 39044, Note_on_c, 0, 83, 0
2, 39072, Note_on_c, 0, 83, 64
2, 39092, Note_on_c, 0, 83, 0
2, 39120, Note_on_c, 0, 83, 64
2, 39140, Note_on_c, 0, 83, 0
2, 39168, Note_on_c, 0, 83, 64
2, 39287, Note_on_c, 0, 83, 0
2, 39288, Note_on_c, 0, 84, 64
2, 39294, Note_on_c, 0, 84, 0
2, 39294, Note_on_c, 0, 83, 64
2, 39300, Note_on_c, 0, 83, 0
2, 39300, Note_on_c, 0, 81, 64
2, 39306, Note_on_c, 0, 81, 0
2, 39306, Note_on_c, 0, 83, 64
2, 39312, Note_on_c, 0, 83, 0
2, 39312, Note_on_c, 0, 84, 64
2, 39346, Note_on_c, 0, 84, 0
2, 39348, Note_on_c, 0, 81, 64
2, 39360, Note_on_c, 0, 81, 0
2, 39360, Note_on_c, 0, 81, 64
2, 39456, Note_on_c, 0, 81, 0
2, 39456, Note_on_c, 0, 79, 64
2, 39468, Note_on_c, 0, 79, 0
2, 39468, Note_on_c, 0, 81, 64
2, 39480, Note_on_c, 0, 81, 0
2, 39480, Note_on_c, 0, 79, 64
2, 39501, Note_on_c, 0, 79, 0
2, 39504, Note_on_c, 0, 83, 64
2, 39538, Note_on_c, 0, 83, 0
2, 39540, Note_on_c, 0, 76, 64
2, 39552, Note_on_c, 0, 76, 0
2, 39552, Note_on_c, 0, 79, 64
2, 39558, Note_on_c, 0, 79, 0
2, 39558, Note_on_c, 0, 78, 64
2, 39597, Note_on_c, 0, 78, 0
2, 39600, Note_on_c, 0, 76, 64
2, 39645, Note_on_c, 0, 76, 0
2, 39648, Note_on_c, 0, 79, 64
2, 39671, Note_on_c, 0, 79, 0
2, 39672, Note_on_c, 0, 78, 64
2, 39695, Note_on_c, 0, 78, 0
2, 39696, Note_on_c, 0, 76, 64
2, 39719, Note_on_c, 0, 76, 0
2, 39720, Note_on_c, 0, 75, 64
2, 39743, Note_on_c, 0, 75, 0
2, 39744, Note_on_c, 0, 76, 64
2, 39789, Note_on_c, 0, 76, 0
2, 39792, Note_on_c, 0, 74, 64
2, 39837, Note_on_c, 0, 74, 0
2, 39840, Note_on_c, 0, 83, 64
2, 39959, Note_on_c, 0, 83, 0
2, 39960, Note_on_c, 0, 81, 64
2, 39983, Note_on_c, 0, 81, 0
2, 39984, Note_on_c, 0, 80, 64
2, 40007, Note_on_c, 0, 80, 0
2, 40008, Note_on_c, 0, 81, 64
2, 40031, Note_on_c, 0, 81, 0
2, 40032, Note_on_c, 0, 80, 64
2, 40055, Note_on_c, 0, 80, 0
2, 40056, Note_on_c, 0, 78, 64
2, 40079, Note_on_c, 0, 78, 0
2, 40080, Note_on_c, 0, 76, 64
2, 40103, Note_on_c, 0, 76, 0
2, 40104, Note_on_c, 0, 74, 64
2, 40127, Note_on_c, 0, 74, 0
2, 40128, Note_on_c, 0, 76, 64
2, 40134, Note_on_c, 0, 76, 0
2, 40134, Note_on_c, 0, 74, 64
2, 40173, Note_on_c, 0, 74, 0
2, 40176, Note_on_c, 0, 73, 64
2, 40221, Note_on_c, 0, 73, 0
2, 40224, Note_on_c, 0, 80, 64
2, 40343, Note_on_c, 0, 80, 0
2, 40344, Note_on_c, 0, 78, 64
2, 40367, Note_on_c, 0, 78, 0
2, 40368, Note_on_c, 0, 77, 64
2, 40391, Note_on_c, 0, 77, 0
2, 40392, Note_on_c, 0, 78, 64
2, 40415, Note_on_c, 0, 78, 0
2, 40416, Note_on_c, 0, 77, 64
2, 40439, Note_on_c, 0, 77, 0
2, 40440, Note_on_c, 0, 74, 64
2, 40463, Note_on_c, 0, 74, 0
2, 40464, Note_on_c, 0, 73, 64
2, 40487, Note_on_c, 0, 73, 0
2, 40488, Note_on_c, 0, 71, 64
2, 40511, Note_on_c, 0, 71, 0
2, 40512, Note_on_c, 0, 69, 64
2, 40546, Note_on_c, 0, 69, 0
2, 40548, Note_on_c, 0, 73, 64
2, 40560, Note_on_c, 0, 73, 0
2, 40560, Note_on_c, 0, 74, 64
2, 40568, Note_on_c, 0, 74, 0
2, 40568, Note_on_c, 0, 73, 64
2, 40576, Note_on_c, 0, 73, 0
2, 40576, Note_on_c, 0, 74, 64
2, 40584, Note_on_c, 0, 74, 0
2, 40584, Note_on_c, 0, 73, 64
2, 40592, Note_on_c, 0, 73, 0
2, 40592, Note_on_c, 0, 71, 64
2, 40600, Note_on_c, 0, 71, 0
2, 40600, Note_on_c, 0, 73, 64
2, 40608, Note_on_c, 0, 73, 0
2, 40608, Note_on_c, 0, 81, 64
2, 40749, Note_on_c, 0, 81, 0
2, 40752, Note_on_c, 0, 80, 64
2, 40775, Note_on_c, 0, 80, 0
2, 40776, Note_on_c, 0, 78, 64
2, 40799, Note_on_c, 0, 78, 0
2, 40800, Note_on_c, 0, 76, 64
2, 40823, Note_on_c, 0, 76, 0
2, 40824, Note_on_c, 0, 74, 64
2, 40847, Note_on_c, 0, 74, 0
2, 40848, Note_on_c, 0, 73, 64
2, 40871, Note_on_c, 0, 73, 0
2, 40872, Note_on_c, 0, 72, 64
2, 40895, Note_on_c, 0, 72, 0
2, 40896, Note_on_c, 0, 72, 64
2, 40992, Note_on_c, 0, 72, 0
2, 40992, Note_on_c, 0, 73, 64
2, 41037, Note_on_c, 0, 73, 0
2, 41088, Note_on_c, 0, 66, 64
2, 41100, Note_on_c, 0, 66, 0
2, 41100, Note_on_c, 0, 65, 64
2, 41112, Note_on_c, 0, 65, 0
2, 41112, Note_on_c, 0, 66, 64
2, 41267, Note_on_c, 0, 66, 0
2, 41280, Note_on_c, 0, 73, 64
2, 41292, Note_on_c, 0, 73, 0
2, 41292, Note_on_c, 0, 72, 64
2, 41304, Note_on_c, 0, 72, 0
2, 41304, Note_on_c, 0, 73, 64
2, 41459, Note_on_c, 0, 73, 0
2, 41472, Note_on_c, 0, 78, 64
2, 41605, Note_on_c, 0, 78, 0
2, 41616, Note_on_c, 0, 80, 64
2, 41650, Note_on_c, 0, 80, 0
2, 41652, Note_on_c, 0, 81, 64
2, 41664, Note_on_c, 0, 81, 0
2, 41664, Note_on_c, 0, 78, 64
2, 41684, Note_on_c, 0, 78, 0
2, 41712, Note_on_c, 0, 80, 64
2, 41746, Note_on_c, 0, 80, 0
2, 41748, Note_on_c, 0, 81, 64
2, 41760, Note_on_c, 0, 81, 0
2, 41760, Note_on_c, 0, 78, 64
2, 41780, Note_on_c, 0, 78, 0
2, 41808, Note_on_c, 0, 80, 64
2, 41842, Note_on_c, 0, 80, 0
2, 41844, Note_on_c, 0, 81, 64
2, 41856, Note_on_c, 0, 81, 0
2, 41856, Note_on_c, 0, 78, 64
2, 41989, Note_on_c, 0, 78, 0
2, 42000, Note_on_c, 0, 80, 64
2, 42034, Note_on_c, 0, 80, 0
2, 42036, Note_on_c, 0, 81, 64
2, 42048, Note_on_c, 0, 81, 0
2, 42048, Note_on_c, 0, 78, 64
2, 42181, Note_on_c, 0, 78, 0
2, 42192, Note_on_c, 0, 80, 64
2, 42226, Note_on_c, 0, 80, 0
2, 42228, Note_on_c, 0, 81, 64
2, 42240, Note_on_c, 0, 81, 0
2, 42240, Note_on_c, 0, 76, 64
2, 42285, Note_on_c, 0, 76, 0
2, 42288, Note_on_c, 0, 80, 64
2, 42322, Note_on_c, 0, 80, 0
2, 42324, Note_on_c, 0, 81, 64
2, 42336, Note_on_c, 0, 81, 0
2, 42336, Note_on_c, 0, 74, 64
2, 42381, Note_on_c, 0, 74, 0
2, 42384, Note_on_c, 0, 80, 64
2, 42418, Note_on_c, 0, 80, 0
2, 42420, Note_on_c, 0, 81, 64
2, 42432, Note_on_c, 0, 81, 0
2, 42432, Note_on_c, 0, 73, 64
2, 42477, Note_on_c, 0, 73, 0
2, 42480, Note_on_c, 0, 80, 64
2, 42514, Note_on_c, 0, 80, 0
2, 42516, Note_on_c, 0, 81, 64
2, 42528, Note_on_c, 0, 81, 0
2, 42528, Note_on_c, 0, 71, 64
2, 42573, Note_on_c, 0, 71, 0
2, 42576, Note_on_c, 0, 80, 64
2, 42610, Note_on_c, 0, 80, 0
2, 42612, Note_on_c, 0, 81, 64
2, 42624, Note_on_c, 0, 81, 0
2, 42624, Note_on_c, 0, 69, 64
2, 42669, Note_on_c, 0, 69, 0
2, 42672, Note_on_c, 0, 80, 64
2, 42706, Note_on_c, 0, 80, 0
2, 42708, Note_on_c, 0, 81, 64
2, 42720, Note_on_c, 0, 81, 0
2, 42720, Note_on_c, 0, 72, 64
2, 42765, Note_on_c, 0, 72, 0
2, 42768, Note_on_c, 0, 78, 64
2, 42802, Note_on_c, 0, 78, 0
2, 42804, Note_on_c, 0, 81, 64
2, 42816, Note_on_c, 0, 81, 0
2, 42816, Note_on_c, 0, 73, 64
2, 42861, Note_on_c, 0, 73, 0
2, 42864, Note_on_c, 0, 76, 64
2, 42898, Note_on_c, 0, 76, 0
2, 42900, Note_on_c, 0, 80, 64
2, 42912, Note_on_c, 0, 80, 0
2, 42912, Note_on_c, 0, 68, 64
2, 42957, Note_on_c, 0, 68, 0
2, 42960, Note_on_c, 0, 75, 64
2, 42994, Note_on_c, 0, 75, 0
2, 42996, Note_on_c, 0, 78, 64
2, 43008, Note_on_c, 0, 78, 0
2, 43008, Note_on_c, 0, 68, 64
2, 43053, Note_on_c, 0, 68, 0
2, 43056, Note_on_c, 0, 73, 64
2, 43090, Note_on_c, 0, 73, 0
2, 43092, Note_on_c, 0, 76, 64
2, 43104, Note_on_c, 0, 76, 0
2, 43104, Note_on_c, 0, 69, 64
2, 43149, Note_on_c, 0, 69, 0
2, 43152, Note_on_c, 0, 73, 64
2, 43186, Note_on_c, 0, 73, 0
2, 43188, Note_on_c, 0, 76, 64
2, 43200, Note_on_c, 0, 76, 0
2, 43200, Note_on_c, 0, 68, 64
2, 43245, Note_on_c, 0, 68, 0
2, 43248, Note_on_c, 0, 73, 64
2, 43282, Note_on_c, 0, 73, 0
2, 43284, Note_on_c, 0, 76, 64
2, 43296, Note_on_c, 0, 76, 0
2, 43296, Note_on_c, 0, 67, 64
2, 43341, Note_on_c, 0, 67, 0
2, 43344, Note_on_c, 0, 73, 64
2, 43378, Note_on_c, 0, 73, 0
2, 43380, Note_on_c, 0, 76, 64
2, 43392, Note_on_c, 0, 76, 0
2, 43392, Note_on_c, 0, 66, 64
2, 43437, Note_on_c, 0, 66, 0
2, 43440, Note_on_c, 0, 73, 64
2, 43474, Note_on_c, 0, 73, 0
2, 43476, Note_on_c, 0, 76, 64
2, 43488, Note_on_c, 0, 76, 0
2, 43488, Note_on_c, 0, 66, 64
2, 43533, Note_on_c, 0, 66, 0
2, 43536, Note_on_c, 0, 70, 64
2, 43570, Note_on_c, 0, 70, 0
2, 43572, Note_on_c, 0, 73, 64
2, 43584, Note_on_c, 0, 73, 0
2, 43584, Note_on_c, 0, 66, 64
2, 43629, Note_on_c, 0, 66, 0
2, 43632, Note_on_c, 0, 71, 64
2, 43666, Note_on_c, 0, 71, 0
2, 43668, Note_on_c, 0, 74, 64
2, 43680, Note_on_c, 0, 74, 0
2, 43680, Note_on_c, 0, 66, 64
2, 43725, Note_on_c, 0, 66, 0
2, 43728, Note_on_c, 0, 73, 64
2, 43762, Note_on_c, 0, 73, 0
2, 43764, Note_on_c, 0, 76, 64
2, 43776, Note_on_c, 0, 76, 0
2, 43776, Note_on_c, 0, 66, 64
2, 43821, Note_on_c, 0, 66, 0
2, 43824, Note_on_c, 0, 74, 64
2, 43858, Note_on_c, 0, 74, 0
2, 43860, Note_on_c, 0, 78, 64
2, 43872, Note_on_c, 0, 78, 0
2, 43872, Note_on_c, 0, 66, 64
2, 43917, Note_on_c, 0, 66, 0
2, 43920, Note_on_c, 0, 70, 64
2, 43954, Note_on_c, 0, 70, 0
2, 43956, Note_on_c, 0, 73, 64
2, 43968, Note_on_c, 0, 73, 0
2, 43968, Note_on_c, 0, 66, 64
2, 44013, Note_on_c, 0, 66, 0
2, 44016, Note_on_c, 0, 71, 64
2, 44050, Note_on_c, 0, 71, 0
2, 44052, Note_on_c, 0, 74, 64
2, 44064, Note_on_c, 0, 74, 0
2, 44064, Note_on_c, 0, 65, 64
2, 44109, Note_on_c, 0, 65, 0
2, 44112, Note_on_c, 0, 71, 64
2, 44146, Note_on_c, 0, 71, 0
2, 44148, Note_on_c, 0, 74, 64
2, 44160, Note_on_c, 0, 74, 0
2, 44160, Note_on_c, 0, 66, 64
2, 44205, Note_on_c, 0, 66, 0
2, 44208, Note_on_c, 0, 70, 64
2, 44242, Note_on_c, 0, 70, 0
2, 44244, Note_on_c, 0, 73, 64
2, 44256, Note_on_c, 0, 73, 0
2, 44256, Note_on_c, 0, 64, 64
2, 44301, Note_on_c, 0, 64, 0
2, 44304, Note_on_c, 0, 70, 64
2, 44338, Note_on_c, 0, 70, 0
2, 44340, Note_on_c, 0, 73, 64
2, 44352, Note_on_c, 0, 73, 0
2, 44352, Note_on_c, 0, 62, 64
2, 44397, Note_on_c, 0, 62, 0
2, 44400, Note_on_c, 0, 66, 64
2, 44434, Note_on_c, 0, 66, 0
2, 44436, Note_on_c, 0, 71, 64
2, 44448, Note_on_c, 0, 71, 0
2, 44448, Note_on_c, 0, 59, 64
2, 44493, Note_on_c, 0, 59, 0
2, 44496, Note_on_c, 0, 62, 64
2, 44530, Note_on_c, 0, 62, 0
2, 44532, Note_on_c, 0, 65, 64
2, 44544, Note_on_c, 0, 65, 0
2, 44544, Note_on_c, 0, 58, 64
2, 44589, Note_on_c, 0, 58, 0
2, 44592, Note_on_c, 0, 61, 64
2, 44626, Note_on_c, 0, 61, 0
2, 44628, Note_on_c, 0, 66, 64
2, 44640, Note_on_c, 0, 66, 0
2, 44640, Note_on_c, 0, 55, 64
2, 44685, Note_on_c, 0, 55, 0
2, 44688, Note_on_c, 0, 58, 64
2, 44722, Note_on_c, 0, 58, 0
2, 44724, Note_on_c, 0, 61, 64
2, 44736, Note_on_c, 0, 61, 0
2, 44736, Note_on_c, 0, 54, 64
2, 44781, Note_on_c, 0, 54, 0
2, 44784, Note_on_c, 0, 58, 64
2, 44818, Note_on_c, 0, 58, 0
2, 44820, Note_on_c, 0, 61, 64
2, 44832, Note_on_c, 0, 61, 0
2, 44832, Note_on_c, 0, 52, 64
2, 44877, Note_on_c, 0, 52, 0
2, 44880, Note_on_c, 0, 58, 64
2, 44914, Note_on_c, 0, 58, 0
2, 44916, Note_on_c, 0, 61, 64
2, 44928, Note_on_c, 0, 61, 0
2, 44928, Note_on_c, 0, 59, 64
2, 45105, Note_on_c, 0, 59, 0
2, 45120, Note_on_c, 0, 66, 64
2, 45132, Note_on_c, 0, 66, 0
2, 45132, Note_on_c, 0, 65, 64
2, 45144, Note_on_c, 0, 65, 0
2, 45144, Note_on_c, 0, 66, 64
2, 45299, Note_on_c, 0, 66, 0
2, 45312, Note_on_c, 0, 71, 64
2, 45324, Note_on_c, 0, 71, 0
2, 45324, Note_on_c, 0, 70, 64
2, 45336, Note_on_c, 0, 70, 0
2, 45336, Note_on_c, 0, 71, 64
2, 45449, Note_on_c, 0, 71, 0
2, 45456, Note_on_c, 0, 73, 64
2, 45490, Note_on_c, 0, 73, 0
2, 45492, Note_on_c, 0, 74, 64
2, 45504, Note_on_c, 0, 74, 0
2, 45504, Note_on_c, 0, 71, 64
2, 45549, Note_on_c, 0, 71, 0
2, 45552, Note_on_c, 0, 78, 64
2, 45572, Note_on_c, 0, 78, 0
2, 45600, Note_on_c, 0, 78, 64
2, 45620, Note_on_c, 0, 78, 0
2, 45648, Note_on_c, 0, 78, 64
2, 45668, Note_on_c, 0, 78, 0
2, 45696, Note_on_c, 0, 78, 64
2, 45815, Note_on_c, 0, 78, 0
2, 45816, Note_on_c, 0, 79, 64
2, 45822, Note_on_c, 0, 79, 0
2, 45822, Note_on_c, 0, 78, 64
2, 45828, Note_on_c, 0, 78, 0
2, 45828, Note_on_c, 0, 76, 64
2, 45834, Note_on_c, 0, 76, 0
2, 45834, Note_on_c, 0, 78, 64
2, 45840, Note_on_c, 0, 78, 0
2, 45840, Note_on_c, 0, 79, 64
2, 45874, Note_on_c, 0, 79, 0
2, 45876, Note_on_c, 0, 76, 64
2, 45888, Note_on_c, 0, 76, 0
2, 45888, Note_on_c, 0, 76, 64
2, 45984, Note_on_c, 0, 76, 0
2, 45984, Note_on_c, 0, 74, 64
2, 45996, Note_on_c, 0, 74, 0
2, 45996, Note_on_c, 0, 76, 64
2, 46008, Note_on_c, 0, 76, 0
2, 46008, Note_on_c, 0, 74, 64
2, 46029, Note_on_c, 0, 74, 0
2, 46032, Note_on_c, 0, 78, 64
2, 46066, Note_on_c, 0, 78, 0
2, 46068, Note_on_c, 0, 71, 64
2, 46080, Note_on_c, 0, 71, 0
2, 46080, Note_on_c, 0, 73, 64
2, 46092, Note_on_c, 0, 73, 0
2, 46092, Note_on_c, 0, 74, 64
2, 46104, Note_on_c, 0, 74, 0
2, 46104, Note_on_c, 0, 73, 64
2, 46125, Note_on_c, 0, 73, 0
2, 46128, Note_on_c, 0, 71, 64
2, 46173, Note_on_c, 0, 71, 0
2, 46176, Note_on_c, 0, 74, 64
2, 46199, Note_on_c, 0, 74, 0
2, 46200, Note_on_c, 0, 73, 64
2, 46223, Note_on_c, 0, 73, 0
2, 46224, Note_on_c, 0, 71, 64
2, 46247, Note_on_c, 0, 71, 0
2, 46248, Note_on_c, 0, 70, 64
2, 46271, Note_on_c, 0, 70, 0
2, 46272, Note_on_c, 0, 71, 64
2, 46361, Note_on_c, 0, 71, 0
2, 46416, Note_on_c, 0, 83, 64
2, 46440, Note_on_c, 0, 83, 0
2, 46440, Note_on_c, 0, 79, 64
2, 46463, Note_on_c, 0, 79, 0
2, 46464, Note_on_c, 0, 78, 64
2, 46487, Note_on_c, 0, 78, 0
2, 46488, Note_on_c, 0, 76, 64
2, 46511, Note_on_c, 0, 76, 0
2, 46512, Note_on_c, 0, 75, 64
2, 46535, Note_on_c, 0, 75, 0
2, 46536, Note_on_c, 0, 76, 64
2, 46559, Note_on_c, 0, 76, 0
2, 46560, Note_on_c, 0, 78, 64
2, 46584, Note_on_c, 0, 78, 0
2, 46584, Note_on_c, 0, 76, 64
2, 46607, Note_on_c, 0, 76, 0
2, 46608, Note_on_c, 0, 79, 64
2, 46632, Note_on_c, 0, 79, 0
2, 46632, Note_on_c, 0, 76, 64
2, 46655, Note_on_c, 0, 76, 0
2, 46656, Note_on_c, 0, 70, 64
2, 46752, Note_on_c, 0, 70, 0
2, 46752, Note_on_c, 0, 71, 64
2, 46772, Note_on_c, 0, 71, 0
2, 46800, Note_on_c, 0, 78, 64
2, 46824, Note_on_c, 0, 78, 0
2, 46824, Note_on_c, 0, 74, 64
2, 46847, Note_on_c, 0, 74, 0
2, 46848, Note_on_c, 0, 73, 64
2, 46871, Note_on_c, 0, 73, 0
2, 46872, Note_on_c, 0, 71, 64
2, 46895, Note_on_c, 0, 71, 0
2, 46896, Note_on_c, 0, 70, 64
2, 46919, Note_on_c, 0, 70, 0
2, 46920, Note_on_c, 0, 71, 64
2, 46943, Note_on_c, 0, 71, 0
2, 46944, Note_on_c, 0, 73, 64
2, 46968, Note_on_c, 0, 73, 0
2, 46968, Note_on_c, 0, 71, 64
2, 46991, Note_on_c, 0, 71, 0
2, 46992, Note_on_c, 0, 74, 64
2, 47016, Note_on_c, 0, 74, 0
2, 47016, Note_on_c, 0, 71, 64
2, 47039, Note_on_c, 0, 71, 0
2, 47040, Note_on_c, 0, 65, 64
2, 47136, Note_on_c, 0, 65, 0
2, 47136, Note_on_c, 0, 66, 64
2, 47181, Note_on_c, 0, 66, 0
2, 47184, Note_on_c, 0, 73, 64
2, 47207, Note_on_c, 0, 73, 0
2, 47208, Note_on_c, 0, 64, 64
2, 47231, Note_on_c, 0, 64, 0
2, 47232, Note_on_c, 0, 64, 64
2, 47255, Note_on_c, 0, 64, 0
2, 47256, Note_on_c, 0, 62, 64
2, 47279, Note_on_c, 0, 62, 0
2, 47280, Note_on_c, 0, 61, 64
2, 47303, Note_on_c, 0, 61, 0
2, 47304, Note_on_c, 0, 62, 64
2, 47327, Note_on_c, 0, 62, 0
2, 47328, Note_on_c, 0, 61, 64
2, 47351, Note_on_c, 0, 61, 0
2, 47352, Note_on_c, 0, 59, 64
2, 47375, Note_on_c, 0, 59, 0
2, 47376, Note_on_c, 0, 58, 64
2, 47399, Note_on_c, 0, 58, 0
2, 47400, Note_on_c, 0, 59, 64
2, 47423, Note_on_c, 0, 59, 0
2, 47424, Note_on_c, 0, 66, 64
2, 47513, Note_on_c, 0, 66, 0
2, 47622, Note_on_c, 0, 62, 64
2, 47628, Note_on_c, 0, 66, 64
2, 47634, Note_on_c, 0, 71, 64
2, 47664, Note_on_c, 0, 83, 64
2, 47687, Note_on_c, 0, 83, 0
2, 47687, Note_on_c, 0, 71, 0
2, 47687, Note_on_c, 0, 66, 0
2, 47687, Note_on_c, 0, 62, 0
2, 47688, Note_on_c, 0, 71, 64
2, 47711, Note_on_c, 0, 71, 0
2, 47712, Note_on_c, 0, 82, 64
2, 47735, Note_on_c, 0, 82, 0
2, 47736, Note_on_c, 0, 71, 64
2, 47759, Note_on_c, 0, 71, 0
2, 47760, Note_on_c, 0, 81, 64
2, 47783, Note_on_c, 0, 81, 0
2, 47784, Note_on_c, 0, 71, 64
2, 47807, Note_on_c, 0, 71, 0
2, 47808, Note_on_c, 0, 79, 64
2, 47831, Note_on_c, 0, 79, 0
2, 47832, Note_on_c, 0, 71, 64
2, 47855, Note_on_c, 0, 71, 0
2, 47856, Note_on_c, 0, 78, 64
2, 47879, Note_on_c, 0, 78, 0
2, 47880, Note_on_c, 0, 71, 64
2, 47903, Note_on_c, 0, 71, 0
2, 47904, Note_on_c, 0, 79, 64
2, 47927, Note_on_c, 0, 79, 0
2, 47928, Note_on_c, 0, 71, 64
2, 47951, Note_on_c, 0, 71, 0
2, 47952, Note_on_c, 0, 76, 64
2, 47975, Note_on_c, 0, 76, 0
2, 47976, Note_on_c, 0, 70, 64
2, 47999, Note_on_c, 0, 70, 0
2, 48006, Note_on_c, 0, 62, 64
2, 48012, Note_on_c, 0, 66, 64
2, 48018, Note_on_c, 0, 71, 64
2, 48048, Note_on_c, 0, 83, 64
2, 48071, Note_on_c, 0, 83, 0
2, 48071, Note_on_c, 0, 71, 0
2, 48071, Note_on_c, 0, 66, 0
2, 48071, Note_on_c, 0, 62, 0
2, 48072, Note_on_c, 0, 71, 64
2, 48095, Note_on_c, 0, 71, 0
2, 48096, Note_on_c, 0, 82, 64
2, 48119, Note_on_c, 0, 82, 0
2, 48120, Note_on_c, 0, 71, 64
2, 48143, Note_on_c, 0, 71, 0
2, 48144, Note_on_c, 0, 81, 64
2, 48167, Note_on_c, 0, 81, 0
2, 48168, Note_on_c, 0, 71, 64
2, 48191, Note_on_c, 0, 71, 0
2, 48192, Note_on_c, 0, 79, 64
2, 48215, Note_on_c, 0, 79, 0
2, 48216, Note_on_c, 0, 71, 64
2, 48239, Note_on_c, 0, 71, 0
2, 48240, Note_on_c, 0, 78, 64
2, 48263, Note_on_c, 0, 78, 0
2, 48264, Note_on_c, 0, 71, 64
2, 48287, Note_on_c, 0, 71, 0
2, 48288, Note_on_c, 0, 79, 64
2, 48311, Note_on_c, 0, 79, 0
2, 48312, Note_on_c, 0, 71, 64
2, 48335, Note_on_c, 0, 71, 0
2, 48336, Note_on_c, 0, 76, 64
2, 48359, Note_on_c, 0, 76, 0
2, 48360, Note_on_c, 0, 70, 64
2, 48383, Note_on_c, 0, 70, 0
2, 48390, Note_on_c, 0, 62, 64
2, 48396, Note_on_c, 0, 66, 64
2, 48402, Note_on_c, 0, 71, 64
2, 48432, Note_on_c, 0, 83, 64
2, 48455, Note_on_c, 0, 83, 0
2, 48455, Note_on_c, 0, 71, 0
2, 48455, Note_on_c, 0, 66, 0
2, 48455, Note_on_c, 0, 62, 0
2, 48456, Note_on_c, 0, 71, 64
2, 48479, Note_on_c, 0, 71, 0
2, 48480, Note_on_c, 0, 82, 64
2, 48503, Note_on_c, 0, 82, 0
2, 48504, Note_on_c, 0, 71, 64
2, 48527, Note_on_c, 0, 71, 0
2, 48528, Note_on_c, 0, 81, 64
2, 48551, Note_on_c, 0, 81, 0
2, 48552, Note_on_c, 0, 71, 64
2, 48575, Note_on_c, 0, 71, 0
2, 48576, Note_on_c, 0, 79, 64
2, 48599, Note_on_c, 0, 79, 0
2, 48600, Note_on_c, 0, 71, 64
2, 48623, Note_on_c, 0, 71, 0
2, 48624, Note_on_c, 0, 78, 64
2, 48647, Note_on_c, 0, 78, 0
2, 48648, Note_on_c, 0, 71, 64
2, 48671, Note_on_c, 0, 71, 0
2, 48672, Note_on_c, 0, 79, 64
2, 48695, Note_on_c, 0, 79, 0
2, 48696, Note_on_c, 0, 71, 64
2, 48719, Note_on_c, 0, 71, 0
2, 48720, Note_on_c, 0, 83, 64
2, 48743, Note_on_c, 0, 83, 0
2, 48744, Note_on_c, 0, 71, 64
2, 48767, Note_on_c, 0, 71, 0
2, 48768, Note_on_c, 0, 78, 64
2, 48791, Note_on_c, 0, 78, 0
2, 48792, Note_on_c, 0, 71, 64
2, 48815, Note_on_c, 0, 71, 0
2, 48816, Note_on_c, 0, 76, 64
2, 48839, Note_on_c, 0, 76, 0
2, 48840, Note_on_c, 0, 71, 64
2, 48863, Note_on_c, 0, 71, 0
2, 48864, Note_on_c, 0, 78, 64
2, 48887, Note_on_c, 0, 78, 0
2, 48888, Note_on_c, 0, 71, 64
2, 48911, Note_on_c, 0, 71, 0
2, 48912, Note_on_c, 0, 74, 64
2, 48935, Note_on_c, 0, 74, 0
2, 48936, Note_on_c, 0, 71, 64
2, 48959, Note_on_c, 0, 71, 0
2, 48960, Note_on_c, 0, 76, 64
2, 48983, Note_on_c, 0, 76, 0
2, 48984, Note_on_c, 0, 71, 64
2, 49007, Note_on_c, 0, 71, 0
2, 49008, Note_on_c, 0, 74, 64
2, 49031, Note_on_c, 0, 74, 0
2, 49032, Note_on_c, 0, 71, 64
2, 49055, Note_on_c, 0, 71, 0
2, 49056, Note_on_c, 0, 76, 64
2, 49079, Note_on_c, 0, 76, 0
2, 49080, Note_on_c, 0, 71, 64
2, 49103, Note_on_c, 0, 71, 0
2, 49104, Note_on_c, 0, 73, 64
2, 49127, Note_on_c, 0, 73, 0
2, 49128, Note_on_c, 0, 71, 64
2, 49151, Note_on_c, 0, 71, 0
2, 49152, Note_on_c, 0, 74, 64
2, 49175, Note_on_c, 0, 74, 0
2, 49176, Note_on_c, 0, 71, 64
2, 49199, Note_on_c, 0, 71, 0
2, 49200, Note_on_c, 0, 73, 64
2, 49223, Note_on_c, 0, 73, 0
2, 49224, Note_on_c, 0, 71, 64
2, 49247, Note_on_c, 0, 71, 0
2, 49248, Note_on_c, 0, 74, 64
2, 49271, Note_on_c, 0, 74, 0
2, 49272, Note_on_c, 0, 71, 64
2, 49295, Note_on_c, 0, 71, 0
2, 49296, Note_on_c, 0, 78, 64
2, 49319, Note_on_c, 0, 78, 0
2, 49320, Note_on_c, 0, 71, 64
2, 49343, Note_on_c, 0, 71, 0
2, 49344, Note_on_c, 0, 77, 64
2, 49367, Note_on_c, 0, 77, 0
2, 49368, Note_on_c, 0, 71, 64
2, 49391, Note_on_c, 0, 71, 0
2, 49392, Note_on_c, 0, 77, 64
2, 49415, Note_on_c, 0, 77, 0
2, 49416, Note_on_c, 0, 71, 64
2, 49439, Note_on_c, 0, 71, 0
2, 49440, Note_on_c, 0, 76, 64
2, 49463, Note_on_c, 0, 76, 0
2, 49464, Note_on_c, 0, 70, 64
2, 49487, Note_on_c, 0, 70, 0
2, 49488, Note_on_c, 0, 76, 64
2, 49511, Note_on_c, 0, 76, 0
2, 49512, Note_on_c, 0, 70, 64
2, 49535, Note_on_c, 0, 70, 0
2, 49536, Note_on_c, 0, 74, 64
2, 49559, Note_on_c, 0, 74, 0
2, 49560, Note_on_c, 0, 71, 64
2, 49583, Note_on_c, 0, 71, 0
2, 49584, Note_on_c, 0, 74, 64
2, 49607, Note_on_c, 0, 74, 0
2, 49608, Note_on_c, 0, 71, 64
2, 49631, Note_on_c, 0, 71, 0
2, 49632, Note_on_c, 0, 78, 64
2, 49655, Note_on_c, 0, 78, 0
2, 49656, Note_on_c, 0, 69, 64
2, 49679, Note_on_c, 0, 69, 0
2, 49680, Note_on_c, 0, 78, 64
2, 49703, Note_on_c, 0, 78, 0
2, 49704, Note_on_c, 0, 69, 64
2, 49727, Note_on_c, 0, 69, 0
2, 49728, Note_on_c, 0, 76, 64
2, 49751, Note_on_c, 0, 76, 0
2, 49752, Note_on_c, 0, 67, 64
2, 49775, Note_on_c, 0, 67, 0
2, 49776, Note_on_c, 0, 76, 64
2, 49799, Note_on_c, 0, 76, 0
2, 49800, Note_on_c, 0, 67, 64
2, 49823, Note_on_c, 0, 67, 0
2, 49824, Note_on_c, 0, 74, 64
2, 49847, Note_on_c, 0, 74, 0
2, 49848, Note_on_c, 0, 71, 64
2, 49871, Note_on_c, 0, 71, 0
2, 49872, Note_on_c, 0, 74, 64
2, 49895, Note_on_c, 0, 74, 0
2, 49896, Note_on_c, 0, 71, 64
2, 49919, Note_on_c, 0, 71, 0
2, 49920, Note_on_c, 0, 70, 64
2, 49965, Note_on_c, 0, 70, 0
2, 49968, Note_on_c, 0, 71, 64
2, 50013, Note_on_c, 0, 71, 0
2, 50016, Note_on_c, 0, 73, 64
2, 50061, Note_on_c, 0, 73, 0
2, 50064, Note_on_c, 0, 76, 64
2, 50076, Note_on_c, 0, 76, 0
2, 50076, Note_on_c, 0, 74, 64
2, 50088, Note_on_c, 0, 74, 0
2, 50088, Note_on_c, 0, 73, 64
2, 50100, Note_on_c, 0, 73, 0
2, 50100, Note_on_c, 0, 74, 64
2, 50112, Note_on_c, 0, 74, 0
2, 50112, Note_on_c, 0, 76, 64
2, 50157, Note_on_c, 0, 76, 0
2, 50160, Note_on_c, 0, 74, 64
2, 50205, Note_on_c, 0, 74, 0
2, 50208, Note_on_c, 0, 76, 64
2, 50253, Note_on_c, 0, 76, 0
2, 50256, Note_on_c, 0, 73, 64
2, 50301, Note_on_c, 0, 73, 0
2, 50304, Note_on_c, 0, 74, 64
2, 50327, Note_on_c, 0, 74, 0
2, 50328, Note_on_c, 0, 71, 64
2, 50351, Note_on_c, 0, 71, 0
2, 50352, Note_on_c, 0, 76, 64
2, 50375, Note_on_c, 0, 76, 0
2, 50376, Note_on_c, 0, 71, 64
2, 50399, Note_on_c, 0, 71, 0
2, 50400, Note_on_c, 0, 78, 64
2, 50423, Note_on_c, 0, 78, 0
2, 50424, Note_on_c, 0, 71, 64
2, 50447, Note_on_c, 0, 71, 0
2, 50448, Note_on_c, 0, 81, 64
2, 50460, Note_on_c, 0, 81, 0
2, 50460, Note_on_c, 0, 79, 64
2, 50472, Note_on_c, 0, 79, 0
2, 50472, Note_on_c, 0, 78, 64
2, 50484, Note_on_c, 0, 78, 0
2, 50484, Note_on_c, 0, 79, 64
2, 50496, Note_on_c, 0, 79, 0
2, 50496, Note_on_c, 0, 81, 64
2, 50519, Note_on_c, 0, 81, 0
2, 50520, Note_on_c, 0, 71, 64
2, 50543, Note_on_c, 0, 71, 0
2, 50544, Note_on_c, 0, 79, 64
2, 50567, Note_on_c, 0, 79, 0
2, 50568, Note_on_c, 0, 71, 64
2, 50591, Note_on_c, 0, 71, 0
2, 50592, Note_on_c, 0, 81, 64
2, 50615, Note_on_c, 0, 81, 0
2, 50616, Note_on_c, 0, 71, 64
2, 50639, Note_on_c, 0, 71, 0
2, 50640, Note_on_c, 0, 78, 64
2, 50663, Note_on_c, 0, 78, 0
2, 50664, Note_on_c, 0, 71, 64
2, 50687, Note_on_c, 0, 71, 0
2, 50688, Note_on_c, 0, 79, 64
2, 50711, Note_on_c, 0, 79, 0
2, 50712, Note_on_c, 0, 71, 64
2, 50735, Note_on_c, 0, 71, 0
2, 50736, Note_on_c, 0, 78, 64
2, 50759, Note_on_c, 0, 78, 0
2, 50760, Note_on_c, 0, 71, 64
2, 50783, Note_on_c, 0, 71, 0
2, 50784, Note_on_c, 0, 79, 64
2, 50807, Note_on_c, 0, 79, 0
2, 50808, Note_on_c, 0, 71, 64
2, 50831, Note_on_c, 0, 71, 0
2, 50832, Note_on_c, 0, 82, 64
2, 50855, Note_on_c, 0, 82, 0
2, 50856, Note_on_c, 0, 73, 64
2, 50879, Note_on_c, 0, 73, 0
2, 50880, Note_on_c, 0, 83, 64
2, 50903, Note_on_c, 0, 83, 0
2, 50904, Note_on_c, 0, 71, 64
2, 50927, Note_on_c, 0, 71, 0
2, 50928, Note_on_c, 0, 82, 64
2, 50951, Note_on_c, 0, 82, 0
2, 50952, Note_on_c, 0, 73, 64
2, 50975, Note_on_c, 0, 73, 0
2, 50976, Note_on_c, 0, 83, 64
2, 50999, Note_on_c, 0, 83, 0
2, 51000, Note_on_c, 0, 71, 64
2, 51023, Note_on_c, 0, 71, 0
2, 51024, Note_on_c, 0, 82, 64
2, 51047, Note_on_c, 0, 82, 0
2, 51048, Note_on_c, 0, 73, 64
2, 51071, Note_on_c, 0, 73, 0
2, 51072, Note_on_c, 0, 83, 64
2, 51092, Note_on_c, 0, 83, 0
2, 51120, Note_on_c, 0, 86, 64
2, 51135, Note_on_c, 0, 86, 0
2, 51136, Note_on_c, 0, 85, 64
2, 51151, Note_on_c, 0, 85, 0
2, 51152, Note_on_c, 0, 83, 64
2, 51167, Note_on_c, 0, 83, 0
2, 51168, Note_on_c, 0, 81, 64
2, 51183, Note_on_c, 0, 81, 0
2, 51184, Note_on_c, 0, 79, 64
2, 51199, Note_on_c, 0, 79, 0
2, 51200, Note_on_c, 0, 78, 64
2, 51215, Note_on_c, 0, 78, 0
2, 51216, Note_on_c, 0, 76, 64
2, 51231, Note_on_c, 0, 76, 0
2, 51232, Note_on_c, 0, 74, 64
2, 51247, Note_on_c, 0, 74, 0
2, 51248, Note_on_c, 0, 73, 64
2, 51263, Note_on_c, 0, 73, 0
2, 51264, Note_on_c, 0, 71, 64
2, 51284, Note_on_c, 0, 71, 0
2, 51312, Note_on_c, 0, 75, 64
2, 51327, Note_on_c, 0, 75, 0
2, 51328, Note_on_c, 0, 76, 64
2, 51343, Note_on_c, 0, 76, 0
2, 51344, Note_on_c, 0, 78, 64
2, 51359, Note_on_c, 0, 78, 0
2, 51360, Note_on_c, 0, 79, 64
2, 51375, Note_on_c, 0, 79, 0
2, 51376, Note_on_c, 0, 78, 64
2, 51391, Note_on_c, 0, 78, 0
2, 51392, Note_on_c, 0, 76, 64
2, 51407, Note_on_c, 0, 76, 0
2, 51408, Note_on_c, 0, 88, 64
2, 51423, Note_on_c, 0, 88, 0
2, 51424, Note_on_c, 0, 85, 64
2, 51439, Note_on_c, 0, 85, 0
2, 51440, Note_on_c, 0, 82, 64
2, 51455, Note_on_c, 0, 82, 0
2, 51456, Note_on_c, 0, 83, 64
2, 51501, Note_on_c, 0, 83, 0
2, 51504, Note_on_c, 0, 81, 64
2, 51516, Note_on_c, 0, 81, 0
2, 51516, Note_on_c, 0, 79, 64
2, 51528, Note_on_c, 0, 79, 0
2, 51528, Note_on_c, 0, 78, 64
2, 51540, Note_on_c, 0, 78, 0
2, 51540, Note_on_c, 0, 76, 64
2, 51552, Note_on_c, 0, 76, 0
2, 51552, Note_on_c, 0, 74, 64
2, 51597, Note_on_c, 0, 74, 0
2, 51600, Note_on_c, 0, 74, 64
2, 51608, Note_on_c, 0, 74, 0
2, 51608, Note_on_c, 0, 73, 64
2, 51616, Note_on_c, 0, 73, 0
2, 51616, Note_on_c, 0, 74, 64
2, 51624, Note_on_c, 0, 74, 0
2, 51624, Note_on_c, 0, 73, 64
2, 51632, Note_on_c, 0, 73, 0
2, 51632, Note_on_c, 0, 71, 64
2, 51640, Note_on_c, 0, 71, 0
2, 51640, Note_on_c, 0, 73, 64
2, 51648, Note_on_c, 0, 73, 0
2, 51648, Note_on_c, 0, 71, 64
2, 51668, Note_on_c, 0, 71, 0
2, 51696, Note_on_c, 0, 74, 64
2, 51711, Note_on_c, 0, 74, 0
2, 51712, Note_on_c, 0, 73, 64
2, 51727, Note_on_c, 0, 73, 0
2, 51728, Note_on_c, 0, 71, 64
2, 51743, Note_on_c, 0, 71, 0
2, 51744, Note_on_c, 0, 69, 64
2, 51759, Note_on_c, 0, 69, 0
2, 51760, Note_on_c, 0, 67, 64
2, 51775, Note_on_c, 0, 67, 0
2, 51776, Note_on_c, 0, 66, 64
2, 51791, Note_on_c, 0, 66, 0
2, 51792, Note_on_c, 0, 64, 64
2, 51807, Note_on_c, 0, 64, 0
2, 51808, Note_on_c, 0, 62, 64
2, 51823, Note_on_c, 0, 62, 0
2, 51824, Note_on_c, 0, 61, 64
2, 51839, Note_on_c, 0, 61, 0
2, 51840, Note_on_c, 0, 59, 64
2, 51885, Note_on_c, 0, 59, 0
2, 51936, Note_on_c, 0, 67, 64
2, 51951, Note_on_c, 0, 67, 0
2, 51952, Note_on_c, 0, 70, 64
2, 51967, Note_on_c, 0, 70, 0
2, 51968, Note_on_c, 0, 73, 64
2, 51983, Note_on_c, 0, 73, 0
2, 51984, Note_on_c, 0, 76, 64
2, 51999, Note_on_c, 0, 76, 0
2, 52000, Note_on_c, 0, 79, 64
2, 52015, Note_on_c, 0, 79, 0
2, 52016, Note_on_c, 0, 82, 64
2, 52031, Note_on_c, 0, 82, 0
2, 52032, Note_on_c, 0, 83, 64
2, 52077, Note_on_c, 0, 83, 0
2, 52080, Note_on_c, 0, 81, 64
2, 52092, Note_on_c, 0, 81, 0
2, 52092, Note_on_c, 0, 79, 64
2, 52104, Note_on_c, 0, 79, 0
2, 52104, Note_on_c, 0, 78, 64
2, 52116, Note_on_c, 0, 78, 0
2, 52116, Note_on_c, 0, 76, 64
2, 52128, Note_on_c, 0, 76, 0
2, 52128, Note_on_c, 0, 74, 64
2, 52173, Note_on_c, 0, 74, 0
2, 52176, Note_on_c, 0, 74, 64
2, 52184, Note_on_c, 0, 74, 0
2, 52184, Note_on_c, 0, 73, 64
2, 52192, Note_on_c, 0, 73, 0
2, 52192, Note_on_c, 0, 74, 64
2, 52200, Note_on_c, 0, 74, 0
2, 52200, Note_on_c, 0, 73, 64
2, 52208, Note_on_c, 0, 73, 0
2, 52208, Note_on_c, 0, 71, 64
2, 52216, Note_on_c, 0, 71, 0
2, 52216, Note_on_c, 0, 73, 64
2, 52224, Note_on_c, 0, 73, 0
2, 52224, Note_on_c, 0, 71, 64
2, 52244, Note_on_c, 0, 71, 0
2, 52272, Note_on_c, 0, 74, 64
2, 52296, Note_on_c, 0, 74, 0
2, 52296, Note_on_c, 0, 83, 64
2, 52319, Note_on_c, 0, 83, 0
2, 52320, Note_on_c, 0, 76, 64
2, 52343, Note_on_c, 0, 76, 0
2, 52344, Note_on_c, 0, 83, 64
2, 52367, Note_on_c, 0, 83, 0
2, 52368, Note_on_c, 0, 78, 64
2, 52391, Note_on_c, 0, 78, 0
2, 52392, Note_on_c, 0, 83, 64
2, 52415, Note_on_c, 0, 83, 0
2, 52416, Note_on_c, 0, 79, 64
2, 52439, Note_on_c, 0, 79, 0
2, 52440, Note_on_c, 0, 83, 64
2, 52463, Note_on_c, 0, 83, 0
2, 52464, Note_on_c, 0, 78, 64
2, 52487, Note_on_c, 0, 78, 0
2, 52488, Note_on_c, 0, 83, 64
2, 52511, Note_on_c, 0, 83, 0
2, 52512, Note_on_c, 0, 79, 64
2, 52535, Note_on_c, 0, 79, 0
2, 52536, Note_on_c, 0, 83, 64
2, 52559, Note_on_c, 0, 83, 0
2, 52560, Note_on_c, 0, 82, 64
2, 52583, Note_on_c, 0, 82, 0
2, 52584, Note_on_c, 0, 88, 64
2, 52607, Note_on_c, 0, 88, 0
2, 52608, Note_on_c, 0, 86, 64
2, 52631, Note_on_c, 0, 86, 0
2, 52632, Note_on_c, 0, 83, 64
2, 52655, Note_on_c, 0, 83, 0
2, 52656, Note_on_c, 0, 76, 64
2, 52679, Note_on_c, 0, 76, 0
2, 52680, Note_on_c, 0, 85, 64
2, 52703, Note_on_c, 0, 85, 0
2, 52704, Note_on_c, 0, 74, 64
2, 52727, Note_on_c, 0, 74, 0
2, 52728, Note_on_c, 0, 83, 64
2, 52751, Note_on_c, 0, 83, 0
2, 52752, Note_on_c, 0, 73, 64
2, 52775, Note_on_c, 0, 73, 0
2, 52776, Note_on_c, 0, 82, 64
2, 52799, Note_on_c, 0, 82, 0
2, 52800, Note_on_c, 0, 83, 64
2, 52800, Note_on_c, 0, 74, 64
2, 52845, Note_on_c, 0, 83, 0
2, 52845, Note_on_c, 0, 74, 0
2, 52848, Note_on_c, 0, 62, 64
2, 52872, Note_on_c, 0, 62, 0
2, 52872, Note_on_c, 0, 71, 64
2, 52895, Note_on_c, 0, 71, 0
2, 52896, Note_on_c, 0, 64, 64
2, 52919, Note_on_c, 0, 64, 0
2, 52920, Note_on_c, 0, 71, 64
2, 52943, Note_on_c, 0, 71, 0
2, 52944, Note_on_c, 0, 66, 64
2, 52967, Note_on_c, 0, 66, 0
2, 52968, Note_on_c, 0, 71, 64
2, 52991, Note_on_c, 0, 71, 0
2, 52992, Note_on_c, 0, 67, 64
2, 53015, Note_on_c, 0, 67, 0
2, 53016, Note_on_c, 0, 71, 64
2, 53039, Note_on_c, 0, 71, 0
2, 53040, Note_on_c, 0, 66, 64
2, 53063, Note_on_c, 0, 66, 0
2, 53064, Note_on_c, 0, 71, 64
2, 53087, Note_on_c, 0, 71, 0
2, 53088, Note_on_c, 0, 67, 64
2, 53111, Note_on_c, 0, 67, 0
2, 53112, Note_on_c, 0, 71, 64
2, 53135, Note_on_c, 0, 71, 0
2, 53136, Note_on_c, 0, 70, 64
2, 53159, Note_on_c, 0, 70, 0
2, 53160, Note_on_c, 0, 76, 64
2, 53183, Note_on_c, 0, 76, 0
2, 53184, Note_on_c, 0, 74, 64
2, 53207, Note_on_c, 0, 74, 0
2, 53208, Note_on_c, 0, 71, 64
2, 53231, Note_on_c, 0, 71, 0
2, 53232, Note_on_c, 0, 64, 64
2, 53255, Note_on_c, 0, 64, 0
2, 53256, Note_on_c, 0, 73, 64
2, 53279, Note_on_c, 0, 73, 0
2, 53280, Note_on_c, 0, 62, 64
2, 53303, Note_on_c, 0, 62, 0
2, 53304, Note_on_c, 0, 71, 64
2, 53327, Note_on_c, 0, 71, 0
2, 53328, Note_on_c, 0, 61, 64
2, 53351, Note_on_c, 0, 61, 0
2, 53352, Note_on_c, 0, 70, 64
2, 53375, Note_on_c, 0, 70, 0
2, 53376, Note_on_c, 0, 71, 64
2, 53376, Note_on_c, 0, 62, 64
2, 53396, Note_on_c, 0, 71, 0
2, 53396, Note_on_c, 0, 62, 0
2, 53424, Note_on_c, 0, 76, 64
2, 53436, Note_on_c, 0, 76, 0
2, 53436, Note_on_c, 0, 74, 64
2, 53448, Note_on_c, 0, 74, 0
2, 53448, Note_on_c, 0, 73, 64
2, 53460, Note_on_c, 0, 73, 0
2, 53460, Note_on_c, 0, 74, 64
2, 53472, Note_on_c, 0, 74, 0
2, 53472, Note_on_c, 0, 78, 64
2, 53472, Note_on_c, 0, 74, 64
2, 53492, Note_on_c, 0, 78, 0
2, 53492, Note_on_c, 0, 74, 0
2, 53520, Note_on_c, 0, 74, 64
2, 53520, Note_on_c, 0, 71, 64
2, 53540, Note_on_c, 0, 74, 0
2, 53540, Note_on_c, 0, 71, 0
2, 53568, Note_on_c, 0, 83, 64
2, 53568, Note_on_c, 0, 78, 64
2, 53568, Note_on_c, 0, 74, 64
2, 53568, Note_on_c, 0, 71, 64
2, 53657, Note_on_c, 0, 83, 0
2, 53657, Note_on_c, 0, 78, 0
2, 53657, Note_on_c, 0, 74, 0
2, 53657, Note_on_c, 0, 71, 0
2, 53760, End_track
3, 0, Start_track
3, 0, Program_c, 0, 0
3, 0, Control_c, 0, 7, 127
3, 0, Control_c, 0, 10, 79
3, 2640, Note_on_c, 0, 76, 64
3, 2685, Note_on_c, 0, 76, 0
3, 2784, Note_on_c, 0, 71, 64
3, 2829, Note_on_c, 0, 71, 0
3, 7464, Note_on_c, 0, 62, 64
3, 7487, Note_on_c, 0, 62, 0
3, 7848, Note_on_c, 0, 64, 64
3, 7871, Note_on_c, 0, 64, 0
3, 8040, Note_on_c, 0, 64, 64
3, 8063, Note_on_c, 0, 64, 0
3, 10368, Note_on_c, 0, 66, 64
3, 10388, Note_on_c, 0, 66, 0
3, 10416, Note_on_c, 0, 74, 64
3, 10436, Note_on_c, 0, 74, 0
3, 10464, Note_on_c, 0, 78, 64
3, 10484, Note_on_c, 0, 78, 0
3, 10512, Note_on_c, 0, 74, 64
3, 10532, Note_on_c, 0, 74, 0
3, 13392, Note_on_c, 0, 76, 64
3, 13437, Note_on_c, 0, 76, 0
3, 13536, Note_on_c, 0, 71, 64
3, 13581, Note_on_c, 0, 71, 0
3, 18216, Note_on_c, 0, 62, 64
3, 18239, Note_on_c, 0, 62, 0
3, 18600, Note_on_c, 0, 64, 64
3, 18623, Note_on_c, 0, 64, 0
3, 18792, Note_on_c, 0, 64, 64
3, 18815, Note_on_c, 0, 64, 0
3, 21120, Note_on_c, 0, 66, 64
3, 21140, Note_on_c, 0, 66, 0
3, 21168, Note_on_c, 0, 74, 64
3, 21188, Note_on_c, 0, 74, 0
3, 21216, Note_on_c, 0, 78, 64
3, 21236, Note_on_c, 0, 78, 0
3, 21264, Note_on_c, 0, 74, 64
3, 21284, Note_on_c, 0, 74, 0
3, 31506, Note_on_c, 0, 59, 64
3, 31816, Note_on_c, 0, 59, 0
3, 31890, Note_on_c, 0, 59, 64
3, 32200, Note_on_c, 0, 59, 0
3, 32274, Note_on_c, 0, 59, 64
3, 32584, Note_on_c, 0, 59, 0
3, 34344, Note_on_c, 0, 71, 64
3, 34367, Note_on_c, 0, 71, 0
3, 37296, Note_on_c, 0, 71, 64
3, 37316, Note_on_c, 0, 71, 0
3, 47634, Note_on_c, 0, 59, 64
3, 47944, Note_on_c, 0, 59, 0
3, 48018, Note_on_c, 0, 59, 64
3, 48328, Note_on_c, 0, 59, 0
3, 48402, Note_on_c, 0, 59, 64
3, 48712, Note_on_c, 0, 59, 0
3, 50472, Note_on_c, 0, 71, 64
3, 50495, Note_on_c, 0, 71, 0
3, 53424, Note_on_c, 0, 71, 64
3, 53444, Note_on_c, 0, 71, 0
3, 53760, End_track
4, 0, Start_track
4, 0, Program_c, 1, 0
4, 0, Control_c, 1, 7, 127
4, 0, Control_c, 1, 10, 79
4, 48, Note_on_c, 1, 47, 64
4, 68, Note_on_c, 1, 47, 0
4, 96, Note_on_c, 1, 50, 64
4, 116, Note_on_c, 1, 50, 0
4, 144, Note_on_c, 1, 47, 64
4, 164, Note_on_c, 1, 47, 0
4, 240, Note_on_c, 1, 46, 64
4, 260, Note_on_c, 1, 46, 0
4, 288, Note_on_c, 1, 49, 64
4, 308, Note_on_c, 1, 49, 0
4, 336, Note_on_c, 1, 42, 64
4, 356, Note_on_c, 1, 42, 0
4, 432, Note_on_c, 1, 43, 64
4, 452, Note_on_c, 1, 43, 0
4, 480, Note_on_c, 1, 42, 64
4, 500, Note_on_c, 1, 42, 0
4, 528, Note_on_c, 1, 40, 64
4, 548, Note_on_c, 1, 40, 0
4, 576, Note_on_c, 1, 38, 64
4, 615, Note_on_c, 1, 38, 0
4, 816, Note_on_c, 1, 61, 64
4, 816, Note_on_c, 1, 58, 64
4, 861, Note_on_c, 1, 61, 0
4, 861, Note_on_c, 1, 58, 0
4, 864, Note_on_c, 1, 61, 64
4, 864, Note_on_c, 1, 58, 64
4, 909, Note_on_c, 1, 61, 0
4, 909, Note_on_c, 1, 58, 0
4, 912, Note_on_c, 1, 61, 64
4, 912, Note_on_c, 1, 58, 64
4, 957, Note_on_c, 1, 61, 0
4, 957, Note_on_c, 1, 58, 0
4, 1008, Note_on_c, 1, 66, 64
4, 1008, Note_on_c, 1, 59, 64
4, 1053, Note_on_c, 1, 66, 0
4, 1053, Note_on_c, 1, 59, 0
4, 1056, Note_on_c, 1, 66, 64
4, 1056, Note_on_c, 1, 59, 64
4, 1101, Note_on_c, 1, 66, 0
4, 1101, Note_on_c, 1, 59, 0
4, 1104, Note_on_c, 1, 62, 64
4, 1149, Note_on_c, 1, 62, 0
4, 1152, Note_on_c, 1, 64, 64
4, 1197, Note_on_c, 1, 64, 0
4, 1200, Note_on_c, 1, 62, 64
4, 1245, Note_on_c, 1, 62, 0
4, 1248, Note_on_c, 1, 64, 64
4, 1293, Note_on_c, 1, 64, 0
4, 1296, Note_on_c, 1, 66, 64
4, 1341, Note_on_c, 1, 66, 0
4, 1344, Note_on_c, 1, 67, 64
4, 1433, Note_on_c, 1, 67, 0
4, 1728, Note_on_c, 1, 67, 64
4, 1728, Note_on_c, 1, 64, 64
4, 1824, Note_on_c, 1, 67, 0
4, 1824, Note_on_c, 1, 64, 0
4, 1824, Note_on_c, 1, 66, 64
4, 1824, Note_on_c, 1, 62, 64
4, 1869, Note_on_c, 1, 66, 0
4, 1869, Note_on_c, 1, 62, 0
4, 2112, Note_on_c, 1, 67, 64
4, 2112, Note_on_c, 1, 64, 64
4, 2208, Note_on_c, 1, 67, 0
4, 2208, Note_on_c, 1, 64, 0
4, 2208, Note_on_c, 1, 66, 64
4, 2208, Note_on_c, 1, 62, 64
4, 2253, Note_on_c, 1, 66, 0
4, 2253, Note_on_c, 1, 62, 0
4, 2496, Note_on_c, 1, 67, 64
4, 2496, Note_on_c, 1, 64, 64
4, 2592, Note_on_c, 1, 67, 0
4, 2592, Note_on_c, 1, 64, 0
4, 2592, Note_on_c, 1, 66, 64
4, 2592, Note_on_c, 1, 62, 64
4, 2637, Note_on_c, 1, 66, 0
4, 2637, Note_on_c, 1, 62, 0
4, 2640, Note_on_c, 1, 64, 64
4, 2685, Note_on_c, 1, 64, 0
4, 2688, Note_on_c, 1, 66, 64
4, 2777, Note_on_c, 1, 66, 0
4, 2784, Note_on_c, 1, 54, 64
4, 2873, Note_on_c, 1, 54, 0
4, 2880, Note_on_c, 1, 59, 64
4, 2880, Note_on_c, 1, 47, 64
4, 2969, Note_on_c, 1, 59, 0
4, 2969, Note_on_c, 1, 47, 0
4, 3120, Note_on_c, 1, 47, 64
4, 3140, Note_on_c, 1, 47, 0
4, 3168, Note_on_c, 1, 50, 64
4, 3188, Note_on_c, 1, 50, 0
4, 3216, Note_on_c, 1, 47, 64
4, 3236, Note_on_c, 1, 47, 0
4, 3312, Note_on_c, 1, 46, 64
4, 3332, Note_on_c, 1, 46, 0
4, 3360, Note_on_c, 1, 49, 64
4, 3380, Note_on_c, 1, 49, 0
4, 3408, Note_on_c, 1, 42, 64
4, 3428, Note_on_c, 1, 42, 0
4, 3504, Note_on_c, 1, 43, 64
4, 3524, Note_on_c, 1, 43, 0
4, 3552, Note_on_c, 1, 42, 64
4, 3572, Note_on_c, 1, 42, 0
4, 3600, Note_on_c, 1, 40, 64
4, 3620, Note_on_c, 1, 40, 0
4, 3648, Note_on_c, 1, 38, 64
4, 3687, Note_on_c, 1, 38, 0
4, 3888, Note_on_c, 1, 55, 64
4, 3936, Note_on_c, 1, 55, 0
4, 3936, Note_on_c, 1, 67, 64
4, 3981, Note_on_c, 1, 67, 0
4, 4080, Note_on_c, 1, 54, 64
4, 4125, Note_on_c, 1, 54, 0
4, 4128, Note_on_c, 1, 66, 64
4, 4224, Note_on_c, 1, 66, 0
4, 4224, Note_on_c, 1, 64, 64
4, 4269, Note_on_c, 1, 64, 0
4, 4272, Note_on_c, 1, 61, 64
4, 4317, Note_on_c, 1, 61, 0
4, 4320, Note_on_c, 1, 62, 64
4, 4365, Note_on_c, 1, 62, 0
4, 4368, Note_on_c, 1, 56, 64
4, 4413, Note_on_c, 1, 56, 0
4, 4416, Note_on_c, 1, 57, 64
4, 4505, Note_on_c, 1, 57, 0
4, 4608, Note_on_c, 1, 38, 84
4, 4614, Note_on_c, 1, 42, 84
4, 4620, Note_on_c, 1, 45, 84
4, 4626, Note_on_c, 1, 50, 84
4, 4655, Note_on_c, 1, 50, 0
4, 4655, Note_on_c, 1, 45, 0
4, 4655, Note_on_c, 1, 42, 0
4, 4655, Note_on_c, 1, 38, 0
4, 4656, Note_on_c, 1, 50, 84
4, 4701, Note_on_c, 1, 50, 0
4, 4704, Note_on_c, 1, 52, 84
4, 4749, Note_on_c, 1, 52, 0
4, 4752, Note_on_c, 1, 54, 84
4, 4797, Note_on_c, 1, 54, 0
4, 4800, Note_on_c, 1, 55, 84
4, 4845, Note_on_c, 1, 55, 0
4, 4848, Note_on_c, 1, 54, 84
4, 4893, Note_on_c, 1, 54, 0
4, 4896, Note_on_c, 1, 55, 84
4, 4941, Note_on_c, 1, 55, 0
4, 4944, Note_on_c, 1, 59, 84
4, 4989, Note_on_c, 1, 59, 0
4, 4992, Note_on_c, 1, 38, 84
4, 4998, Note_on_c, 1, 42, 84
4, 5004, Note_on_c, 1, 45, 84
4, 5010, Note_on_c, 1, 50, 84
4, 5039, Note_on_c, 1, 50, 0
4, 5039, Note_on_c, 1, 45, 0
4, 5039, Note_on_c, 1, 42, 0
4, 5039, Note_on_c, 1, 38, 0
4, 5040, Note_on_c, 1, 50, 84
4, 5085, Note_on_c, 1, 50, 0
4, 5088, Note_on_c, 1, 52, 84
4, 5133, Note_on_c, 1, 52, 0
4, 5136, Note_on_c, 1, 54, 84
4, 5181, Note_on_c, 1, 54, 0
4, 5184, Note_on_c, 1, 55, 84
4, 5229, Note_on_c, 1, 55, 0
4, 5232, Note_on_c, 1, 54, 84
4, 5277, Note_on_c, 1, 54, 0
4, 5280, Note_on_c, 1, 55, 84
4, 5325, Note_on_c, 1, 55, 0
4, 5328, Note_on_c, 1, 59, 84
4, 5373, Note_on_c, 1, 59, 0
4, 5376, Note_on_c, 1, 38, 84
4, 5382, Note_on_c, 1, 42, 84
4, 5388, Note_on_c, 1, 45, 84
4, 5394, Note_on_c, 1, 50, 84
4, 5423, Note_on_c, 1, 50, 0
4, 5423, Note_on_c, 1, 45, 0
4, 5423, Note_on_c, 1, 42, 0
4, 5423, Note_on_c, 1, 38, 0
4, 5424, Note_on_c, 1, 50, 78
4, 5469, Note_on_c, 1, 50, 0
4, 5472, Note_on_c, 1, 52, 78
4, 5517, Note_on_c, 1, 52, 0
4, 5520, Note_on_c, 1, 54, 78
4, 5565, Note_on_c, 1, 54, 0
4, 5568, Note_on_c, 1, 55, 78
4, 5613, Note_on_c, 1, 55, 0
4, 5616, Note_on_c, 1, 54, 78
4, 5661, Note_on_c, 1, 54, 0
4, 5664, Note_on_c, 1, 55, 78
4, 5709, Note_on_c, 1, 55, 0
4, 5712, Note_on_c, 1, 59, 78
4, 5757, Note_on_c, 1, 59, 0
4, 5760, Note_on_c, 1, 54, 78
4, 5805, Note_on_c, 1, 54, 0
4, 5808, Note_on_c, 1, 53, 78
4, 5853, Note_on_c, 1, 53, 0
4, 5856, Note_on_c, 1, 54, 78
4, 5901, Note_on_c, 1, 54, 0
4, 5904, Note_on_c, 1, 57, 78
4, 5949, Note_on_c, 1, 57, 0
4, 5952, Note_on_c, 1, 55, 78
4, 5997, Note_on_c, 1, 55, 0
4, 6000, Note_on_c, 1, 54, 78
4, 6045, Note_on_c, 1, 54, 0
4, 6048, Note_on_c, 1, 55, 78
4, 6093, Note_on_c, 1, 55, 0
4, 6096, Note_on_c, 1, 59, 78
4, 6141, Note_on_c, 1, 59, 0
4, 6144, Note_on_c, 1, 54, 78
4, 6189, Note_on_c, 1, 54, 0
4, 6192, Note_on_c, 1, 53, 78
4, 6237, Note_on_c, 1, 53, 0
4, 6240, Note_on_c, 1, 54, 78
4, 6285, Note_on_c, 1, 54, 0
4, 6288, Note_on_c, 1, 57, 78
4, 6333, Note_on_c, 1, 57, 0
4, 6336, Note_on_c, 1, 55, 78
4, 6359, Note_on_c, 1, 55, 0
4, 6360, Note_on_c, 1, 59, 78
4, 6383, Note_on_c, 1, 59, 0
4, 6384, Note_on_c, 1, 55, 78
4, 6407, Note_on_c, 1, 55, 0
4, 6408, Note_on_c, 1, 59, 78
4, 6431, Note_on_c, 1, 59, 0
4, 6432, Note_on_c, 1, 54, 78
4, 6455, Note_on_c, 1, 54, 0
4, 6456, Note_on_c, 1, 60, 78
4, 6479, Note_on_c, 1, 60, 0
4, 6480, Note_on_c, 1, 54, 78
4, 6503, Note_on_c, 1, 54, 0
4, 6504, Note_on_c, 1, 60, 78
4, 6527, Note_on_c, 1, 60, 0
4, 6528, Note_on_c, 1, 55, 78
4, 6551, Note_on_c, 1, 55, 0
4, 6552, Note_on_c, 1, 59, 78
4, 6575, Note_on_c, 1, 59, 0
4, 6576, Note_on_c, 1, 55, 78
4, 6599, Note_on_c, 1, 55, 0
4, 6600, Note_on_c, 1, 59, 78
4, 6623, Note_on_c, 1, 59, 0
4, 6624, Note_on_c, 1, 57, 78
4, 6647, Note_on_c, 1, 57, 0
4, 6648, Note_on_c, 1, 60, 78
4, 6671, Note_on_c, 1, 60, 0
4, 6672, Note_on_c, 1, 57, 78
4, 6695, Note_on_c, 1, 57, 0
4, 6696, Note_on_c, 1, 60, 78
4, 6719, Note_on_c, 1, 60, 0
4, 6720, Note_on_c, 1, 55, 78
4, 6743, Note_on_c, 1, 55, 0
4, 6744, Note_on_c, 1, 59, 78
4, 6767, Note_on_c, 1, 59, 0
4, 6768, Note_on_c, 1, 55, 78
4, 6791, Note_on_c, 1, 55, 0
4, 6792, Note_on_c, 1, 59, 78
4, 6815, Note_on_c, 1, 59, 0
4, 6816, Note_on_c, 1, 56, 78
4, 6839, Note_on_c, 1, 56, 0
4, 6840, Note_on_c, 1, 59, 78
4, 6863, Note_on_c, 1, 59, 0
4, 6864, Note_on_c, 1, 56, 78
4, 6887, Note_on_c, 1, 56, 0
4, 6888, Note_on_c, 1, 59, 78
4, 6911, Note_on_c, 1, 59, 0
4, 6912, Note_on_c, 1, 45, 78
4, 6935, Note_on_c, 1, 45, 0
4, 6936, Note_on_c, 1, 57, 78
4, 6959, Note_on_c, 1, 57, 0
4, 6960, Note_on_c, 1, 47, 78
4, 6983, Note_on_c, 1, 47, 0
4, 6984, Note_on_c, 1, 57, 78
4, 7007, Note_on_c, 1, 57, 0
4, 7008, Note_on_c, 1, 49, 78
4, 7031, Note_on_c, 1, 49, 0
4, 7032, Note_on_c, 1, 57, 78
4, 7055, Note_on_c, 1, 57, 0
4, 7056, Note_on_c, 1, 50, 78
4, 7079, Note_on_c, 1, 50, 0
4, 7080, Note_on_c, 1, 57, 78
4, 7103, Note_on_c, 1, 57, 0
4, 7104, Note_on_c, 1, 52, 78
4, 7127, Note_on_c, 1, 52, 0
4, 7128, Note_on_c, 1, 57, 78
4, 7151, Note_on_c, 1, 57, 0
4, 7152, Note_on_c, 1, 51, 78
4, 7175, Note_on_c, 1, 51, 0
4, 7176, Note_on_c, 1, 57, 78
4, 7199, Note_on_c, 1, 57, 0
4, 7200, Note_on_c, 1, 52, 78
4, 7223, Note_on_c, 1, 52, 0
4, 7224, Note_on_c, 1, 57, 78
4, 7247, Note_on_c, 1, 57, 0
4, 7248, Note_on_c, 1, 49, 78
4, 7271, Note_on_c, 1, 49, 0
4, 7272, Note_on_c, 1, 57, 78
4, 7295, Note_on_c, 1, 57, 0
4, 7296, Note_on_c, 1, 50, 78
4, 7341, Note_on_c, 1, 50, 0
4, 7344, Note_on_c, 1, 52, 78
4, 7389, Note_on_c, 1, 52, 0
4, 7392, Note_on_c, 1, 54, 78
4, 7437, Note_on_c, 1, 54, 0
4, 7440, Note_on_c, 1, 55, 78
4, 7485, Note_on_c, 1, 55, 0
4, 7488, Note_on_c, 1, 57, 78
4, 7533, Note_on_c, 1, 57, 0
4, 7536, Note_on_c, 1, 56, 78
4, 7581, Note_on_c, 1, 56, 0
4, 7584, Note_on_c, 1, 57, 78
4, 7629, Note_on_c, 1, 57, 0
4, 7632, Note_on_c, 1, 54, 78
4, 7677, Note_on_c, 1, 54, 0
4, 7680, Note_on_c, 1, 55, 78
4, 7725, Note_on_c, 1, 55, 0
4, 7728, Note_on_c, 1, 54, 78
4, 7773, Note_on_c, 1, 54, 0
4, 7776, Note_on_c, 1, 55, 78
4, 7821, Note_on_c, 1, 55, 0
4, 7824, Note_on_c, 1, 67, 78
4, 7869, Note_on_c, 1, 67, 0
4, 7872, Note_on_c, 1, 66, 78
4, 7917, Note_on_c, 1, 66, 0
4, 7920, Note_on_c, 1, 61, 78
4, 7965, Note_on_c, 1, 61, 0
4, 7968, Note_on_c, 1, 62, 78
4, 8013, Note_on_c, 1, 62, 0
4, 8016, Note_on_c, 1, 64, 78
4, 8061, Note_on_c, 1, 64, 0
4, 8064, Note_on_c, 1, 66, 78
4, 8153, Note_on_c, 1, 66, 0
4, 8256, Note_on_c, 1, 55, 78
4, 8345, Note_on_c, 1, 55, 0
4, 8496, Note_on_c, 1, 54, 78
4, 8541, Note_on_c, 1, 54, 0
4, 8544, Note_on_c, 1, 55, 78
4, 8589, Note_on_c, 1, 55, 0
4, 8592, Note_on_c, 1, 57, 78
4, 8637, Note_on_c, 1, 57, 0
4, 8640, Note_on_c, 1, 50, 78
4, 8729, Note_on_c, 1, 50, 0
4, 8832, Note_on_c, 1, 55, 78
4, 8921, Note_on_c, 1, 55, 0
4, 9072, Note_on_c, 1, 54, 78
4, 9117, Note_on_c, 1, 54, 0
4, 9120, Note_on_c, 1, 55, 78
4, 9165, Note_on_c, 1, 55, 0
4, 9168, Note_on_c, 1, 57, 78
4, 9213, Note_on_c, 1, 57, 0
4, 9216, Note_on_c, 1, 50, 78
4, 9261, Note_on_c, 1, 50, 0
4, 9264, Note_on_c, 1, 62, 78
4, 9309, Note_on_c, 1, 62, 0
4, 9312, Note_on_c, 1, 64, 78
4, 9357, Note_on_c, 1, 64, 0
4, 9360, Note_on_c, 1, 66, 78
4, 9405, Note_on_c, 1, 66, 0
4, 9408, Note_on_c, 1, 67, 78
4, 9453, Note_on_c, 1, 67, 0
4, 9456, Note_on_c, 1, 66, 78
4, 9501, Note_on_c, 1, 66, 0
4, 9504, Note_on_c, 1, 67, 78
4, 9549, Note_on_c, 1, 67, 0
4, 9552, Note_on_c, 1, 69, 78
4, 9597, Note_on_c, 1, 69, 0
4, 9600, Note_on_c, 1, 71, 78
4, 9645, Note_on_c, 1, 71, 0
4, 9648, Note_on_c, 1, 55, 78
4, 9693, Note_on_c, 1, 55, 0
4, 9696, Note_on_c, 1, 57, 78
4, 9741, Note_on_c, 1, 57, 0
4, 9744, Note_on_c, 1, 45, 78
4, 9789, Note_on_c, 1, 45, 0
4, 9792, Note_on_c, 1, 50, 78
4, 9837, Note_on_c, 1, 50, 0
4, 9840, Note_on_c, 1, 38, 78
4, 9863, Note_on_c, 1, 38, 0
4, 9864, Note_on_c, 1, 50, 78
4, 9887, Note_on_c, 1, 50, 0
4, 9888, Note_on_c, 1, 40, 78
4, 9911, Note_on_c, 1, 40, 0
4, 9912, Note_on_c, 1, 50, 78
4, 9935, Note_on_c, 1, 50, 0
4, 9936, Note_on_c, 1, 42, 78
4, 9959, Note_on_c, 1, 42, 0
4, 9960, Note_on_c, 1, 50, 78
4, 9983, Note_on_c, 1, 50, 0
4, 9984, Note_on_c, 1, 43, 78
4, 10007, Note_on_c, 1, 43, 0
4, 10008, Note_on_c, 1, 50, 78
4, 10031, Note_on_c, 1, 50, 0
4, 10032, Note_on_c, 1, 42, 78
4, 10055, Note_on_c, 1, 42, 0
4, 10056, Note_on_c, 1, 50, 78
4, 10079, Note_on_c, 1, 50, 0
4, 10080, Note_on_c, 1, 43, 78
4, 10103, Note_on_c, 1, 43, 0
4, 10104, Note_on_c, 1, 50, 78
4, 10127, Note_on_c, 1, 50, 0
4, 10128, Note_on_c, 1, 45, 78
4, 10151, Note_on_c, 1, 45, 0
4, 10152, Note_on_c, 1, 57, 78
4, 10175, Note_on_c, 1, 57, 0
4, 10176, Note_on_c, 1, 47, 78
4, 10199, Note_on_c, 1, 47, 0
4, 10200, Note_on_c, 1, 59, 78
4, 10223, Note_on_c, 1, 59, 0
4, 10224, Note_on_c, 1, 55, 78
4, 10269, Note_on_c, 1, 55, 0
4, 10272, Note_on_c, 1, 57, 78
4, 10317, Note_on_c, 1, 57, 0
4, 10320, Note_on_c, 1, 45, 78
4, 10365, Note_on_c, 1, 45, 0
4, 10368, Note_on_c, 1, 50, 78
4, 10457, Note_on_c, 1, 50, 0
4, 10560, Note_on_c, 1, 50, 78
4, 10560, Note_on_c, 1, 45, 78
4, 10560, Note_on_c, 1, 42, 78
4, 10560, Note_on_c, 1, 38, 78
4, 10649, Note_on_c, 1, 50, 0
4, 10649, Note_on_c, 1, 45, 0
4, 10649, Note_on_c, 1, 42, 0
4, 10649, Note_on_c, 1, 38, 0
4, 10800, Note_on_c, 1, 47, 64
4, 10820, Note_on_c, 1, 47, 0
4, 10848, Note_on_c, 1, 50, 64
4, 10868, Note_on_c, 1, 50, 0
4, 10896, Note_on_c, 1, 47, 64
4, 10916, Note_on_c, 1, 47, 0
4, 10992, Note_on_c, 1, 46, 64
4, 11012, Note_on_c, 1, 46, 0
4, 11040, Note_on_c, 1, 49, 64
4, 11060, Note_on_c, 1, 49, 0
4, 11088, Note_on_c, 1, 42, 64
4, 11108, Note_on_c, 1, 42, 0
4, 11184, Note_on_c, 1, 43, 64
4, 11204, Note_on_c, 1, 43, 0
4, 11232, Note_on_c, 1, 42, 64
4, 11252, Note_on_c, 1, 42, 0
4, 11280, Note_on_c, 1, 40, 64
4, 11300, Note_on_c, 1, 40, 0
4, 11328, Note_on_c, 1, 38, 64
4, 11367, Note_on_c, 1, 38, 0
4, 11568, Note_on_c, 1, 61, 64
4, 11568, Note_on_c, 1, 58, 64
4, 11613, Note_on_c, 1, 61, 0
4, 11613, Note_on_c, 1, 58, 0
4, 11616, Note_on_c, 1, 61, 64
4, 11616, Note_on_c, 1, 58, 64
4, 11661, Note_on_c, 1, 61, 0
4, 11661, Note_on_c, 1, 58, 0
4, 11664, Note_on_c, 1, 61, 64
4, 11664, Note_on_c, 1, 58, 64
4, 11709, Note_on_c, 1, 61, 0
4, 11709, Note_on_c, 1, 58, 0
4, 11760, Note_on_c, 1, 66, 64
4, 11760, Note_on_c, 1, 59, 64
4, 11805, Note_on_c, 1, 66, 0
4, 11805, Note_on_c, 1, 59, 0
4, 11808, Note_on_c, 1, 66, 64
4, 11808, Note_on_c, 1, 59, 64
4, 11853, Note_on_c, 1, 66, 0
4, 11853, Note_on_c, 1, 59, 0
4, 11856, Note_on_c, 1, 62, 64
4, 11901, Note_on_c, 1, 62, 0
4, 11904, Note_on_c, 1, 64, 64
4, 11949, Note_on_c, 1, 64, 0
4, 11952, Note_on_c, 1, 62, 64
4, 11997, Note_on_c, 1, 62, 0
4, 12000, Note_on_c, 1, 64, 64
4, 12045, Note_on_c, 1, 64, 0
4, 12048, Note_on_c, 1, 66, 64
4, 12093, Note_on_c, 1, 66, 0
4, 12096, Note_on_c, 1, 67, 64
4, 12185, Note_on_c, 1, 67, 0
4, 12480, Note_on_c, 1, 67, 64
4, 12480, Note_on_c, 1, 64, 64
4, 12576, Note_on_c, 1, 67, 0
4, 12576, Note_on_c, 1, 64, 0
4, 12576, Note_on_c, 1, 66, 64
4, 12576, Note_on_c, 1, 62, 64
4, 12621, Note_on_c, 1, 66, 0
4, 12621, Note_on_c, 1, 62, 0
4, 12864, Note_on_c, 1, 67, 64
4, 12864, Note_on_c, 1, 64, 64
4, 12960, Note_on_c, 1, 67, 0
4, 12960, Note_on_c, 1, 64, 0
4, 12960, Note_on_c, 1, 66, 64
4, 12960, Note_on_c, 1, 62, 64
4, 13005, Note_on_c, 1, 66, 0
4, 13005, Note_on_c, 1, 62, 0
4, 13248, Note_on_c, 1, 67, 64
4, 13248, Note_on_c, 1, 64, 64
4, 13344, Note_on_c, 1, 67, 0
4, 13344, Note_on_c, 1, 64, 0
4, 13344, Note_on_c, 1, 66, 64
4, 13344, Note_on_c, 1, 62, 64
4, 13389, Note_on_c, 1, 66, 0
4, 13389, Note_on_c, 1, 62, 0
4, 13392, Note_on_c, 1, 64, 64
4, 13437, Note_on_c, 1, 64, 0
4, 13440, Note_on_c, 1, 66, 64
4, 13529, Note_on_c, 1, 66, 0
4, 13536, Note_on_c, 1, 54, 64
4, 13625, Note_on_c, 1, 54, 0
4, 13632, Note_on_c, 1, 59, 64
4, 13632, Note_on_c, 1, 47, 64
4, 13721, Note_on_c, 1, 59, 0
4, 13721, Note_on_c, 1, 47, 0
4, 13872, Note_on_c, 1, 47, 64
4, 13892, Note_on_c, 1, 47, 0
4, 13920, Note_on_c, 1, 50, 64
4, 13940, Note_on_c, 1, 50, 0
4, 13968, Note_on_c, 1, 47, 64
4, 13988, Note_on_c, 1, 47, 0
4, 14064, Note_on_c, 1, 46, 64
4, 14084, Note_on_c, 1, 46, 0
4, 14112, Note_on_c, 1, 49, 64
4, 14132, Note_on_c, 1, 49, 0
4, 14160, Note_on_c, 1, 42, 64
4, 14180, Note_on_c, 1, 42, 0
4, 14256, Note_on_c, 1, 43, 64
4, 14276, Note_on_c, 1, 43, 0
4, 14304, Note_on_c, 1, 42, 64
4, 14324, Note_on_c, 1, 42, 0
4, 14352, Note_on_c, 1, 40, 64
4, 14372, Note_on_c, 1, 40, 0
4, 14400, Note_on_c, 1, 38, 64
4, 14439, Note_on_c, 1, 38, 0
4, 14640, Note_on_c, 1, 55, 64
4, 14688, Note_on_c, 1, 55, 0
4, 14688, Note_on_c, 1, 67, 64
4, 14733, Note_on_c, 1, 67, 0
4, 14832, Note_on_c, 1, 54, 64
4, 14877, Note_on_c, 1, 54, 0
4, 14880, Note_on_c, 1, 66, 64
4, 14976, Note_on_c, 1, 66, 0
4, 14976, Note_on_c, 1, 64, 64
4, 15021, Note_on_c, 1, 64, 0
4, 15024, Note_on_c, 1, 61, 64
4, 15069, Note_on_c, 1, 61, 0
4, 15072, Note_on_c, 1, 62, 64
4, 15117, Note_on_c, 1, 62, 0
4, 15120, Note_on_c, 1, 56, 64
4, 15165, Note_on_c, 1, 56, 0
4, 15168, Note_on_c, 1, 57, 64
4, 15257, Note_on_c, 1, 57, 0
4, 15360, Note_on_c, 1, 38, 84
4, 15366, Note_on_c, 1, 42, 84
4, 15372, Note_on_c, 1, 45, 84
4, 15378, Note_on_c, 1, 50, 84
4, 15407, Note_on_c, 1, 50, 0
4, 15407, Note_on_c, 1, 45, 0
4, 15407, Note_on_c, 1, 42, 0
4, 15407, Note_on_c, 1, 38, 0
4, 15408, Note_on_c, 1, 50, 84
4, 15453, Note_on_c, 1, 50, 0
4, 15456, Note_on_c, 1, 52, 84
4, 15501, Note_on_c, 1, 52, 0
4, 15504, Note_on_c, 1, 54, 84
4, 15549, Note_on_c, 1, 54, 0
4, 15552, Note_on_c, 1, 55, 84
4, 15597, Note_on_c, 1, 55, 0
4, 15600, Note_on_c, 1, 54, 84
4, 15645, Note_on_c, 1, 54, 0
4, 15648, Note_on_c, 1, 55, 84
4, 15693, Note_on_c, 1, 55, 0
4, 15696, Note_on_c, 1, 59, 84
4, 15741, Note_on_c, 1, 59, 0
4, 15744, Note_on_c, 1, 38, 84
4, 15750, Note_on_c, 1, 42, 84
4, 15756, Note_on_c, 1, 45, 84
4, 15762, Note_on_c, 1, 50, 84
4, 15791, Note_on_c, 1, 50, 0
4, 15791, Note_on_c, 1, 45, 0
4, 15791, Note_on_c, 1, 42, 0
4, 15791, Note_on_c, 1, 38, 0
4, 15792, Note_on_c, 1, 50, 84
4, 15837, Note_on_c, 1, 50, 0
4, 15840, Note_on_c, 1, 52, 84
4, 15885, Note_on_c, 1, 52, 0
4, 15888, Note_on_c, 1, 54, 84
4, 15933, Note_on_c, 1, 54, 0
4, 15936, Note_on_c, 1, 55, 84
4, 15981, Note_on_c, 1, 55, 0
4, 15984, Note_on_c, 1, 54, 84
4, 16029, Note_on_c, 1, 54, 0
4, 16032, Note_on_c, 1, 55, 84
4, 16077, Note_on_c, 1, 55, 0
4, 16080, Note_on_c, 1, 59, 84
4, 16125, Note_on_c, 1, 59, 0
4, 16128, Note_on_c, 1, 38, 84
4, 16134, Note_on_c, 1, 42, 84
4, 16140, Note_on_c, 1, 45, 84
4, 16146, Note_on_c, 1, 50, 84
4, 16175, Note_on_c, 1, 50, 0
4, 16175, Note_on_c, 1, 45, 0
4, 16175, Note_on_c, 1, 42, 0
4, 16175, Note_on_c, 1, 38, 0
4, 16176, Note_on_c, 1, 50, 78
4, 16221, Note_on_c, 1, 50, 0
4, 16224, Note_on_c, 1, 52, 78
4, 16269, Note_on_c, 1, 52, 0
4, 16272, Note_on_c, 1, 54, 78
4, 16317, Note_on_c, 1, 54, 0
4, 16320, Note_on_c, 1, 55, 78
4, 16365, Note_on_c, 1, 55, 0
4, 16368, Note_on_c, 1, 54, 78
4, 16413, Note_on_c, 1, 54, 0
4, 16416, Note_on_c, 1, 55, 78
4, 16461, Note_on_c, 1, 55, 0
4, 16464, Note_on_c, 1, 59, 78
4, 16509, Note_on_c, 1, 59, 0
4, 16512, Note_on_c, 1, 54, 78
4, 16557, Note_on_c, 1, 54, 0
4, 16560, Note_on_c, 1, 53, 78
4, 16605, Note_on_c, 1, 53, 0
4, 16608, Note_on_c, 1, 54, 78
4, 16653, Note_on_c, 1, 54, 0
4, 16656, Note_on_c, 1, 57, 78
4, 16701, Note_on_c, 1, 57, 0
4, 16704, Note_on_c, 1, 55, 78
4, 16749, Note_on_c, 1, 55, 0
4, 16752, Note_on_c, 1, 54, 78
4, 16797, Note_on_c, 1, 54, 0
4, 16800, Note_on_c, 1, 55, 78
4, 16845, Note_on_c, 1, 55, 0
4, 16848, Note_on_c, 1, 59, 78
4, 16893, Note_on_c, 1, 59, 0
4, 16896, Note_on_c, 1, 54, 78
4, 16941, Note_on_c, 1, 54, 0
4, 16944, Note_on_c, 1, 53, 78
4, 16989, Note_on_c, 1, 53, 0
4, 16992, Note_on_c, 1, 54, 78
4, 17037, Note_on_c, 1, 54, 0
4, 17040, Note_on_c, 1, 57, 78
4, 17085, Note_on_c, 1, 57, 0
4, 17088, Note_on_c, 1, 55, 78
4, 17111, Note_on_c, 1, 55, 0
4, 17112, Note_on_c, 1, 59, 78
4, 17135, Note_on_c, 1, 59, 0
4, 17136, Note_on_c, 1, 55, 78
4, 17159, Note_on_c, 1, 55, 0
4, 17160, Note_on_c, 1, 59, 78
4, 17183, Note_on_c, 1, 59, 0
4, 17184, Note_on_c, 1, 54, 78
4, 17207, Note_on_c, 1, 54, 0
4, 17208, Note_on_c, 1, 60, 78
4, 17231, Note_on_c, 1, 60, 0
4, 17232, Note_on_c, 1, 54, 78
4, 17255, Note_on_c, 1, 54, 0
4, 17256, Note_on_c, 1, 60, 78
4, 17279, Note_on_c, 1, 60, 0
4, 17280, Note_on_c, 1, 55, 78
4, 17303, Note_on_c, 1, 55, 0
4, 17304, Note_on_c, 1, 59, 78
4, 17327, Note_on_c, 1, 59, 0
4, 17328, Note_on_c, 1, 55, 78
4, 17351, Note_on_c, 1, 55, 0
4, 17352, Note_on_c, 1, 59, 78
4, 17375, Note_on_c, 1, 59, 0
4, 17376, Note_on_c, 1, 57, 78
4, 17399, Note_on_c, 1, 57, 0
4, 17400, Note_on_c, 1, 60, 78
4, 17423, Note_on_c, 1, 60, 0
4, 17424, Note_on_c, 1, 57, 78
4, 17447, Note_on_c, 1, 57, 0
4, 17448, Note_on_c, 1, 60, 78
4, 17471, Note_on_c, 1, 60, 0
4, 17472, Note_on_c, 1, 55, 78
4, 17495, Note_on_c, 1, 55, 0
4, 17496, Note_on_c, 1, 59, 78
4, 17519, Note_on_c, 1, 59, 0
4, 17520, Note_on_c, 1, 55, 78
4, 17543, Note_on_c, 1, 55, 0
4, 17544, Note_on_c, 1, 59, 78
4, 17567, Note_on_c, 1, 59, 0
4, 17568, Note_on_c, 1, 56, 78
4, 17591, Note_on_c, 1, 56, 0
4, 17592, Note_on_c, 1, 59, 78
4, 17615, Note_on_c, 1, 59, 0
4, 17616, Note_on_c, 1, 56, 78
4, 17639, Note_on_c, 1, 56, 0
4, 17640, Note_on_c, 1, 59, 78
4, 17663, Note_on_c, 1, 59, 0
4, 17664, Note_on_c, 1, 45, 78
4, 17687, Note_on_c, 1, 45, 0
4, 17688, Note_on_c, 1, 57, 78
4, 17711, Note_on_c, 1, 57, 0
4, 17712, Note_on_c, 1, 47, 78
4, 17735, Note_on_c, 1, 47, 0
4, 17736, Note_on_c, 1, 57, 78
4, 17759, Note_on_c, 1, 57, 0
4, 17760, Note_on_c, 1, 49, 78
4, 17783, Note_on_c, 1, 49, 0
4, 17784, Note_on_c, 1, 57, 78
4, 17807, Note_on_c, 1, 57, 0
4, 17808, Note_on_c, 1, 50, 78
4, 17831, Note_on_c, 1, 50, 0
4, 17832, Note_on_c, 1, 57, 78
4, 17855, Note_on_c, 1, 57, 0
4, 17856, Note_on_c, 1, 52, 78
4, 17879, Note_on_c, 1, 52, 0
4, 17880, Note_on_c, 1, 57, 78
4, 17903, Note_on_c, 1, 57, 0
4, 17904, Note_on_c, 1, 51, 78
4, 17927, Note_on_c, 1, 51, 0
4, 17928, Note_on_c, 1, 57, 78
4, 17951, Note_on_c, 1, 57, 0
4, 17952, Note_on_c, 1, 52, 78
4, 17975, Note_on_c, 1, 52, 0
4, 17976, Note_on_c, 1, 57, 78
4, 17999, Note_on_c, 1, 57, 0
4, 18000, Note_on_c, 1, 49, 78
4, 18023, Note_on_c, 1, 49, 0
4, 18024, Note_on_c, 1, 57, 78
4, 18047, Note_on_c, 1, 57, 0
4, 18048, Note_on_c, 1, 50, 78
4, 18093, Note_on_c, 1, 50, 0
4, 18096, Note_on_c, 1, 52, 78
4, 18141, Note_on_c, 1, 52, 0
4, 18144, Note_on_c, 1, 54, 78
4, 18189, Note_on_c, 1, 54, 0
4, 18192, Note_on_c, 1, 55, 78
4, 18237, Note_on_c, 1, 55, 0
4, 18240, Note_on_c, 1, 57, 78
4, 18285, Note_on_c, 1, 57, 0
4, 18288, Note_on_c, 1, 56, 78
4, 18333, Note_on_c, 1, 56, 0
4, 18336, Note_on_c, 1, 57, 78
4, 18381, Note_on_c, 1, 57, 0
4, 18384, Note_on_c, 1, 54, 78
4, 18429, Note_on_c, 1, 54, 0
4, 18432, Note_on_c, 1, 55, 78
4, 18477, Note_on_c, 1, 55, 0
4, 18480, Note_on_c, 1, 54, 78
4, 18525, Note_on_c, 1, 54, 0
4, 18528, Note_on_c, 1, 55, 78
4, 18573, Note_on_c, 1, 55, 0
4, 18576, Note_on_c, 1, 67, 78
4, 18621, Note_on_c, 1, 67, 0
4, 18624, Note_on_c, 1, 66, 78
4, 18669, Note_on_c, 1, 66, 0
4, 18672, Note_on_c, 1, 61, 78
4, 18717, Note_on_c, 1, 61, 0
4, 18720, Note_on_c, 1, 62, 78
4, 18765, Note_on_c, 1, 62, 0
4, 18768, Note_on_c, 1, 64, 78
4, 18813, Note_on_c, 1, 64, 0
4, 18816, Note_on_c, 1, 66, 78
4, 18905, Note_on_c, 1, 66, 0
4, 19008, Note_on_c, 1, 55, 78
4, 19097, Note_on_c, 1, 55, 0
4, 19248, Note_on_c, 1, 54, 78
4, 19293, Note_on_c, 1, 54, 0
4, 19296, Note_on_c, 1, 55, 78
4, 19341, Note_on_c, 1, 55, 0
4, 19344, Note_on_c, 1, 57, 78
4, 19389, Note_on_c, 1, 57, 0
4, 19392, Note_on_c, 1, 50, 78
4, 19481, Note_on_c, 1, 50, 0
4, 19584, Note_on_c, 1, 55, 78
4, 19673, Note_on_c, 1, 55, 0
4, 19824, Note_on_c, 1, 54, 78
4, 19869, Note_on_c, 1, 54, 0
4, 19872, Note_on_c, 1, 55, 78
4, 19917, Note_on_c, 1, 55, 0
4, 19920, Note_on_c, 1, 57, 78
4, 19965, Note_on_c, 1, 57, 0
4, 19968, Note_on_c, 1, 50, 78
4, 20013, Note_on_c, 1, 50, 0
4, 20016, Note_on_c, 1, 62, 78
4, 20061, Note_on_c, 1, 62, 0
4, 20064, Note_on_c, 1, 64, 78
4, 20109, Note_on_c, 1, 64, 0
4, 20112, Note_on_c, 1, 66, 78
4, 20157, Note_on_c, 1, 66, 0
4, 20160, Note_on_c, 1, 67, 78
4, 20205, Note_on_c, 1, 67, 0
4, 20208, Note_on_c, 1, 66, 78
4, 20253, Note_on_c, 1, 66, 0
4, 20256, Note_on_c, 1, 67, 78
4, 20301, Note_on_c, 1, 67, 0
4, 20304, Note_on_c, 1, 69, 78
4, 20349, Note_on_c, 1, 69, 0
4, 20352, Note_on_c, 1, 71, 78
4, 20397, Note_on_c, 1, 71, 0
4, 20400, Note_on_c, 1, 55, 78
4, 20445, Note_on_c, 1, 55, 0
4, 20448, Note_on_c, 1, 57, 78
4, 20493, Note_on_c, 1, 57, 0
4, 20496, Note_on_c, 1, 45, 78
4, 20541, Note_on_c, 1, 45, 0
4, 20544, Note_on_c, 1, 50, 78
4, 20589, Note_on_c, 1, 50, 0
4, 20592, Note_on_c, 1, 38, 78
4, 20615, Note_on_c, 1, 38, 0
4, 20616, Note_on_c, 1, 50, 78
4, 20639, Note_on_c, 1, 50, 0
4, 20640, Note_on_c, 1, 40, 78
4, 20663, Note_on_c, 1, 40, 0
4, 20664, Note_on_c, 1, 50, 78
4, 20687, Note_on_c, 1, 50, 0
4, 20688, Note_on_c, 1, 42, 78
4, 20711, Note_on_c, 1, 42, 0
4, 20712, Note_on_c, 1, 50, 78
4, 20735, Note_on_c, 1, 50, 0
4, 20736, Note_on_c, 1, 43, 78
4, 20759, Note_on_c, 1, 43, 0
4, 20760, Note_on_c, 1, 50, 78
4, 20783, Note_on_c, 1, 50, 0
4, 20784, Note_on_c, 1, 42, 78
4, 20807, Note_on_c, 1, 42, 0
4, 20808, Note_on_c, 1, 50, 78
4, 20831, Note_on_c, 1, 50, 0
4, 20832, Note_on_c, 1, 43, 78
4, 20855, Note_on_c, 1, 43, 0
4, 20856, Note_on_c, 1, 50, 78
4, 20879, Note_on_c, 1, 50, 0
4, 20880, Note_on_c, 1, 45, 78
4, 20903, Note_on_c, 1, 45, 0
4, 20904, Note_on_c, 1, 57, 78
4, 20927, Note_on_c, 1, 57, 0
4, 20928, Note_on_c, 1, 47, 78
4, 20951, Note_on_c, 1, 47, 0
4, 20952, Note_on_c, 1, 59, 78
4, 20975, Note_on_c, 1, 59, 0
4, 20976, Note_on_c, 1, 55, 78
4, 21021, Note_on_c, 1, 55, 0
4, 21024, Note_on_c, 1, 57, 78
4, 21069, Note_on_c, 1, 57, 0
4, 21072, Note_on_c, 1, 45, 78
4, 21117, Note_on_c, 1, 45, 0
4, 21120, Note_on_c, 1, 50, 78
4, 21209, Note_on_c, 1, 50, 0
4, 21312, Note_on_c, 1, 50, 78
4, 21312, Note_on_c, 1, 45, 78
4, 21312, Note_on_c, 1, 42, 78
4, 21312, Note_on_c, 1, 38, 78
4, 21401, Note_on_c, 1, 50, 0
4, 21401, Note_on_c, 1, 45, 0
4, 21401, Note_on_c, 1, 42, 0
4, 21401, Note_on_c, 1, 38, 0
4, 21552, Note_on_c, 1, 50, 78
4, 21572, Note_on_c, 1, 50, 0
4, 21600, Note_on_c, 1, 54, 78
4, 21620, Note_on_c, 1, 54, 0
4, 21648, Note_on_c, 1, 50, 78
4, 21668, Note_on_c, 1, 50, 0
4, 21744, Note_on_c, 1, 48, 78
4, 21764, Note_on_c, 1, 48, 0
4, 21792, Note_on_c, 1, 54, 78
4, 21812, Note_on_c, 1, 54, 0
4, 21840, Note_on_c, 1, 48, 78
4, 21860, Note_on_c, 1, 48, 0
4, 21936, Note_on_c, 1, 45, 78
4, 21956, Note_on_c, 1, 45, 0
4, 21984, Note_on_c, 1, 51, 78
4, 22004, Note_on_c, 1, 51, 0
4, 22032, Note_on_c, 1, 45, 78
4, 22052, Note_on_c, 1, 45, 0
4, 22128, Note_on_c, 1, 42, 78
4, 22148, Note_on_c, 1, 42, 0
4, 22176, Note_on_c, 1, 51, 78
4, 22196, Note_on_c, 1, 51, 0
4, 22224, Note_on_c, 1, 57, 78
4, 22244, Note_on_c, 1, 57, 0
4, 22320, Note_on_c, 1, 52, 78
4, 22340, Note_on_c, 1, 52, 0
4, 22368, Note_on_c, 1, 55, 78
4, 22388, Note_on_c, 1, 55, 0
4, 22416, Note_on_c, 1, 52, 78
4, 22436, Note_on_c, 1, 52, 0
4, 22512, Note_on_c, 1, 51, 78
4, 22532, Note_on_c, 1, 51, 0
4, 22560, Note_on_c, 1, 54, 78
4, 22580, Note_on_c, 1, 54, 0
4, 22608, Note_on_c, 1, 47, 78
4, 22628, Note_on_c, 1, 47, 0
4, 22704, Note_on_c, 1, 48, 78
4, 22724, Note_on_c, 1, 48, 0
4, 22752, Note_on_c, 1, 47, 78
4, 22772, Note_on_c, 1, 47, 0
4, 22800, Note_on_c, 1, 45, 78
4, 22820, Note_on_c, 1, 45, 0
4, 22848, Note_on_c, 1, 43, 78
4, 22937, Note_on_c, 1, 43, 0
4, 23088, Note_on_c, 1, 66, 78
4, 23088, Note_on_c, 1, 63, 78
4, 23133, Note_on_c, 1, 66, 0
4, 23133, Note_on_c, 1, 63, 0
4, 23136, Note_on_c, 1, 66, 78
4, 23136, Note_on_c, 1, 63, 78
4, 23181, Note_on_c, 1, 66, 0
4, 23181, Note_on_c, 1, 63, 0
4, 23184, Note_on_c, 1, 66, 78
4, 23184, Note_on_c, 1, 63, 78
4, 23229, Note_on_c, 1, 66, 0
4, 23229, Note_on_c, 1, 63, 0
4, 23280, Note_on_c, 1, 71, 78
4, 23280, Note_on_c, 1, 64, 78
4, 23325, Note_on_c, 1, 71, 0
4, 23325, Note_on_c, 1, 64, 0
4, 23328, Note_on_c, 1, 71, 78
4, 23328, Note_on_c, 1, 64, 78
4, 23373, Note_on_c, 1, 71, 0
4, 23373, Note_on_c, 1, 64, 0
4, 23376, Note_on_c, 1, 67, 78
4, 23421, Note_on_c, 1, 67, 0
4, 23424, Note_on_c, 1, 69, 78
4, 23469, Note_on_c, 1, 69, 0
4, 23472, Note_on_c, 1, 67, 78
4, 23517, Note_on_c, 1, 67, 0
4, 23520, Note_on_c, 1, 69, 78
4, 23565, Note_on_c, 1, 69, 0
4, 23568, Note_on_c, 1, 71, 78
4, 23613, Note_on_c, 1, 71, 0
4, 23616, Note_on_c, 1, 68, 63
4, 23639, Note_on_c, 1, 68, 0
4, 23640, Note_on_c, 1, 71, 63
4, 23663, Note_on_c, 1, 71, 0
4, 23664, Note_on_c, 1, 68, 63
4, 23687, Note_on_c, 1, 68, 0
4, 23688, Note_on_c, 1, 71, 63
4, 23711, Note_on_c, 1, 71, 0
4, 23712, Note_on_c, 1, 68, 63
4, 23735, Note_on_c, 1, 68, 0
4, 23736, Note_on_c, 1, 71, 63
4, 23759, Note_on_c, 1, 71, 0
4, 23760, Note_on_c, 1, 68, 63
4, 23783, Note_on_c, 1, 68, 0
4, 23784, Note_on_c, 1, 71, 63
4, 23807, Note_on_c, 1, 71, 0
4, 23808, Note_on_c, 1, 68, 63
4, 23831, Note_on_c, 1, 68, 0
4, 23832, Note_on_c, 1, 71, 63
4, 23855, Note_on_c, 1, 71, 0
4, 23856, Note_on_c, 1, 68, 63
4, 23879, Note_on_c, 1, 68, 0
4, 23880, Note_on_c, 1, 71, 63
4, 23903, Note_on_c, 1, 71, 0
4, 23904, Note_on_c, 1, 68, 63
4, 23927, Note_on_c, 1, 68, 0
4, 23928, Note_on_c, 1, 71, 63
4, 23951, Note_on_c, 1, 71, 0
4, 23952, Note_on_c, 1, 68, 63
4, 23975, Note_on_c, 1, 68, 0
4, 23976, Note_on_c, 1, 71, 63
4, 23999, Note_on_c, 1, 71, 0
4, 24000, Note_on_c, 1, 65, 63
4, 24023, Note_on_c, 1, 65, 0
4, 24024, Note_on_c, 1, 68, 63
4, 24047, Note_on_c, 1, 68, 0
4, 24048, Note_on_c, 1, 65, 63
4, 24071, Note_on_c, 1, 65, 0
4, 24072, Note_on_c, 1, 68, 63
4, 24095, Note_on_c, 1, 68, 0
4, 24096, Note_on_c, 1, 65, 63
4, 24119, Note_on_c, 1, 65, 0
4, 24120, Note_on_c, 1, 68, 63
4, 24143, Note_on_c, 1, 68, 0
4, 24144, Note_on_c, 1, 65, 63
4, 24167, Note_on_c, 1, 65, 0
4, 24168, Note_on_c, 1, 68, 63
4, 24191, Note_on_c, 1, 68, 0
4, 24192, Note_on_c, 1, 65, 63
4, 24215, Note_on_c, 1, 65, 0
4, 24216, Note_on_c, 1, 68, 63
4, 24239, Note_on_c, 1, 68, 0
4, 24240, Note_on_c, 1, 65, 63
4, 24263, Note_on_c, 1, 65, 0
4, 24264, Note_on_c, 1, 68, 63
4, 24287, Note_on_c, 1, 68, 0
4, 24288, Note_on_c, 1, 65, 63
4, 24311, Note_on_c, 1, 65, 0
4, 24312, Note_on_c, 1, 68, 63
4, 24335, Note_on_c, 1, 68, 0
4, 24336, Note_on_c, 1, 65, 63
4, 24359, Note_on_c, 1, 65, 0
4, 24360, Note_on_c, 1, 68, 63
4, 24383, Note_on_c, 1, 68, 0
4, 24384, Note_on_c, 1, 66, 63
4, 24407, Note_on_c, 1, 66, 0
4, 24408, Note_on_c, 1, 69, 63
4, 24431, Note_on_c, 1, 69, 0
4, 24432, Note_on_c, 1, 66, 63
4, 24455, Note_on_c, 1, 66, 0
4, 24456, Note_on_c, 1, 69, 63
4, 24479, Note_on_c, 1, 69, 0
4, 24480, Note_on_c, 1, 66, 63
4, 24503, Note_on_c, 1, 66, 0
4, 24504, Note_on_c, 1, 69, 63
4, 24527, Note_on_c, 1, 69, 0
4, 24528, Note_on_c, 1, 66, 63
4, 24551, Note_on_c, 1, 66, 0
4, 24552, Note_on_c, 1, 69, 63
4, 24575, Note_on_c, 1, 69, 0
4, 24576, Note_on_c, 1, 62, 63
4, 24599, Note_on_c, 1, 62, 0
4, 24600, Note_on_c, 1, 66, 63
4, 24623, Note_on_c, 1, 66, 0
4, 24624, Note_on_c, 1, 62, 63
4, 24647, Note_on_c, 1, 62, 0
4, 24648, Note_on_c, 1, 66, 63
4, 24671, Note_on_c, 1, 66, 0
4, 24672, Note_on_c, 1, 62, 63
4, 24695, Note_on_c, 1, 62, 0
4, 24696, Note_on_c, 1, 66, 63
4, 24719, Note_on_c, 1, 66, 0
4, 24720, Note_on_c, 1, 62, 63
4, 24743, Note_on_c, 1, 62, 0
4, 24744, Note_on_c, 1, 66, 63
4, 24767, Note_on_c, 1, 66, 0
4, 24768, Note_on_c, 1, 66, 63
4, 24768, Note_on_c, 1, 61, 63
4, 24864, Note_on_c, 1, 66, 0
4, 24864, Note_on_c, 1, 65, 63
4, 24909, Note_on_c, 1, 65, 0
4, 24909, Note_on_c, 1, 61, 0
4, 25008, Note_on_c, 1, 54, 78
4, 25008, Note_on_c, 1, 42, 78
4, 25028, Note_on_c, 1, 54, 0
4, 25028, Note_on_c, 1, 42, 0
4, 25056, Note_on_c, 1, 57, 78
4, 25056, Note_on_c, 1, 45, 78
4, 25076, Note_on_c, 1, 57, 0
4, 25076, Note_on_c, 1, 45, 0
4, 25104, Note_on_c, 1, 54, 78
4, 25104, Note_on_c, 1, 42, 78
4, 25124, Note_on_c, 1, 54, 0
4, 25124, Note_on_c, 1, 42, 0
4, 25200, Note_on_c, 1, 53, 78
4, 25200, Note_on_c, 1, 41, 78
4, 25220, Note_on_c, 1, 53, 0
4, 25220, Note_on_c, 1, 41, 0
4, 25248, Note_on_c, 1, 56, 78
4, 25248, Note_on_c, 1, 44, 78
4, 25268, Note_on_c, 1, 56, 0
4, 25268, Note_on_c, 1, 44, 0
4, 25296, Note_on_c, 1, 49, 78
4, 25296, Note_on_c, 1, 37, 78
4, 25316, Note_on_c, 1, 49, 0
4, 25316, Note_on_c, 1, 37, 0
4, 25392, Note_on_c, 1, 50, 78
4, 25392, Note_on_c, 1, 38, 78
4, 25412, Note_on_c, 1, 50, 0
4, 25412, Note_on_c, 1, 38, 0
4, 25440, Note_on_c, 1, 49, 78
4, 25440, Note_on_c, 1, 37, 78
4, 25460, Note_on_c, 1, 49, 0
4, 25460, Note_on_c, 1, 37, 0
4, 25488, Note_on_c, 1, 47, 78
4, 25488, Note_on_c, 1, 35, 78
4, 25508, Note_on_c, 1, 47, 0
4, 25508, Note_on_c, 1, 35, 0
4, 25536, Note_on_c, 1, 45, 78
4, 25536, Note_on_c, 1, 33, 78
4, 25625, Note_on_c, 1, 45, 0
4, 25625, Note_on_c, 1, 33, 0
4, 25776, Note_on_c, 1, 57, 78
4, 25824, Note_on_c, 1, 57, 0
4, 25824, Note_on_c, 1, 69, 78
4, 25869, Note_on_c, 1, 69, 0
4, 25968, Note_on_c, 1, 62, 78
4, 26016, Note_on_c, 1, 62, 0
4, 26016, Note_on_c, 1, 74, 78
4, 26061, Note_on_c, 1, 74, 0
4, 26112, Note_on_c, 1, 73, 78
4, 26201, Note_on_c, 1, 73, 0
4, 26208, Note_on_c, 1, 71, 78
4, 26297, Note_on_c, 1, 71, 0
4, 26304, Note_on_c, 1, 69, 78
4, 26393, Note_on_c, 1, 69, 0
4, 26400, Note_on_c, 1, 68, 78
4, 26489, Note_on_c, 1, 68, 0
4, 26496, Note_on_c, 1, 66, 78
4, 26673, Note_on_c, 1, 66, 0
4, 26688, Note_on_c, 1, 64, 78
4, 26777, Note_on_c, 1, 64, 0
4, 26784, Note_on_c, 1, 60, 78
4, 26873, Note_on_c, 1, 60, 0
4, 26880, Note_on_c, 1, 61, 78
4, 26969, Note_on_c, 1, 61, 0
4, 26976, Note_on_c, 1, 57, 78
4, 27021, Note_on_c, 1, 57, 0
4, 27024, Note_on_c, 1, 61, 78
4, 27058, Note_on_c, 1, 61, 0
4, 27060, Note_on_c, 1, 64, 78
4, 27072, Note_on_c, 1, 64, 0
4, 27072, Note_on_c, 1, 56, 78
4, 27117, Note_on_c, 1, 56, 0
4, 27120, Note_on_c, 1, 61, 78
4, 27154, Note_on_c, 1, 61, 0
4, 27156, Note_on_c, 1, 64, 78
4, 27168, Note_on_c, 1, 64, 0
4, 27168, Note_on_c, 1, 55, 78
4, 27213, Note_on_c, 1, 55, 0
4, 27216, Note_on_c, 1, 61, 78
4, 27250, Note_on_c, 1, 61, 0
4, 27252, Note_on_c, 1, 64, 78
4, 27264, Note_on_c, 1, 64, 0
4, 27264, Note_on_c, 1, 54, 78
4, 27309, Note_on_c, 1, 54, 0
4, 27312, Note_on_c, 1, 61, 78
4, 27346, Note_on_c, 1, 61, 0
4, 27348, Note_on_c, 1, 64, 78
4, 27360, Note_on_c, 1, 64, 0
4, 27360, Note_on_c, 1, 54, 78
4, 27405, Note_on_c, 1, 54, 0
4, 27408, Note_on_c, 1, 61, 78
4, 27442, Note_on_c, 1, 61, 0
4, 27444, Note_on_c, 1, 64, 78
4, 27456, Note_on_c, 1, 64, 0
4, 27456, Note_on_c, 1, 54, 78
4, 27501, Note_on_c, 1, 54, 0
4, 27504, Note_on_c, 1, 59, 78
4, 27538, Note_on_c, 1, 59, 0
4, 27540, Note_on_c, 1, 62, 78
4, 27552, Note_on_c, 1, 62, 0
4, 27552, Note_on_c, 1, 54, 78
4, 27597, Note_on_c, 1, 54, 0
4, 27600, Note_on_c, 1, 58, 78
4, 27634, Note_on_c, 1, 58, 0
4, 27636, Note_on_c, 1, 61, 78
4, 27648, Note_on_c, 1, 61, 0
4, 27648, Note_on_c, 1, 54, 78
4, 27693, Note_on_c, 1, 54, 0
4, 27696, Note_on_c, 1, 59, 78
4, 27730, Note_on_c, 1, 59, 0
4, 27732, Note_on_c, 1, 62, 78
4, 27744, Note_on_c, 1, 62, 0
4, 27744, Note_on_c, 1, 54, 78
4, 27789, Note_on_c, 1, 54, 0
4, 27792, Note_on_c, 1, 61, 78
4, 27826, Note_on_c, 1, 61, 0
4, 27828, Note_on_c, 1, 64, 78
4, 27840, Note_on_c, 1, 64, 0
4, 27840, Note_on_c, 1, 54, 78
4, 27885, Note_on_c, 1, 54, 0
4, 27888, Note_on_c, 1, 59, 78
4, 27922, Note_on_c, 1, 59, 0
4, 27924, Note_on_c, 1, 62, 78
4, 27936, Note_on_c, 1, 62, 0
4, 27936, Note_on_c, 1, 54, 78
4, 27981, Note_on_c, 1, 54, 0
4, 27984, Note_on_c, 1, 56, 78
4, 28018, Note_on_c, 1, 56, 0
4, 28020, Note_on_c, 1, 59, 78
4, 28032, Note_on_c, 1, 59, 0
4, 28032, Note_on_c, 1, 54, 78
4, 28386, Note_on_c, 1, 54, 0
4, 28416, Note_on_c, 1, 42, 78
4, 28608, Note_on_c, 1, 30, 78
4, 28785, Note_on_c, 1, 42, 0
4, 28785, Note_on_c, 1, 30, 0
4, 28800, Note_on_c, 1, 35, 78
4, 28845, Note_on_c, 1, 35, 0
4, 28848, Note_on_c, 1, 47, 78
4, 28868, Note_on_c, 1, 47, 0
4, 28896, Note_on_c, 1, 50, 78
4, 28916, Note_on_c, 1, 50, 0
4, 28944, Note_on_c, 1, 47, 78
4, 28964, Note_on_c, 1, 47, 0
4, 29040, Note_on_c, 1, 46, 78
4, 29060, Note_on_c, 1, 46, 0
4, 29088, Note_on_c, 1, 49, 78
4, 29108, Note_on_c, 1, 49, 0
4, 29136, Note_on_c, 1, 42, 78
4, 29156, Note_on_c, 1, 42, 0
4, 29232, Note_on_c, 1, 43, 78
4, 29252, Note_on_c, 1, 43, 0
4, 29280, Note_on_c, 1, 42, 78
4, 29300, Note_on_c, 1, 42, 0
4, 29328, Note_on_c, 1, 40, 78
4, 29348, Note_on_c, 1, 40, 0
4, 29376, Note_on_c, 1, 38, 78
4, 29415, Note_on_c, 1, 38, 0
4, 29616, Note_on_c, 1, 61, 78
4, 29616, Note_on_c, 1, 58, 78
4, 29661, Note_on_c, 1, 61, 0
4, 29661, Note_on_c, 1, 58, 0
4, 29664, Note_on_c, 1, 61, 78
4, 29664, Note_on_c, 1, 58, 78
4, 29709, Note_on_c, 1, 61, 0
4, 29709, Note_on_c, 1, 58, 0
4, 29712, Note_on_c, 1, 61, 78
4, 29712, Note_on_c, 1, 58, 78
4, 29757, Note_on_c, 1, 61, 0
4, 29757, Note_on_c, 1, 58, 0
4, 29808, Note_on_c, 1, 66, 78
4, 29808, Note_on_c, 1, 59, 78
4, 29853, Note_on_c, 1, 66, 0
4, 29853, Note_on_c, 1, 59, 0
4, 29856, Note_on_c, 1, 66, 78
4, 29856, Note_on_c, 1, 59, 78
4, 29901, Note_on_c, 1, 66, 0
4, 29901, Note_on_c, 1, 59, 0
4, 29904, Note_on_c, 1, 62, 78
4, 29949, Note_on_c, 1, 62, 0
4, 29952, Note_on_c, 1, 64, 78
4, 29997, Note_on_c, 1, 64, 0
4, 30000, Note_on_c, 1, 62, 78
4, 30045, Note_on_c, 1, 62, 0
4, 30048, Note_on_c, 1, 64, 78
4, 30093, Note_on_c, 1, 64, 0
4, 30096, Note_on_c, 1, 66, 78
4, 30141, Note_on_c, 1, 66, 0
4, 30144, Note_on_c, 1, 67, 78
4, 30233, Note_on_c, 1, 67, 0
4, 30528, Note_on_c, 1, 67, 78
4, 30528, Note_on_c, 1, 64, 78
4, 30624, Note_on_c, 1, 67, 0
4, 30624, Note_on_c, 1, 64, 0
4, 30624, Note_on_c, 1, 66, 78
4, 30624, Note_on_c, 1, 62, 78
4, 30669, Note_on_c, 1, 66, 0
4, 30669, Note_on_c, 1, 62, 0
4, 30912, Note_on_c, 1, 62, 78
4, 30912, Note_on_c, 1, 59, 78
4, 31008, Note_on_c, 1, 62, 0
4, 31008, Note_on_c, 1, 59, 0
4, 31008, Note_on_c, 1, 61, 78
4, 31008, Note_on_c, 1, 58, 78
4, 31053, Note_on_c, 1, 61, 0
4, 31053, Note_on_c, 1, 58, 0
4, 31056, Note_on_c, 1, 61, 78
4, 31079, Note_on_c, 1, 61, 0
4, 31080, Note_on_c, 1, 52, 78
4, 31103, Note_on_c, 1, 52, 0
4, 31104, Note_on_c, 1, 52, 78
4, 31127, Note_on_c, 1, 52, 0
4, 31128, Note_on_c, 1, 50, 78
4, 31151, Note_on_c, 1, 50, 0
4, 31152, Note_on_c, 1, 49, 78
4, 31175, Note_on_c, 1, 49, 0
4, 31176, Note_on_c, 1, 50, 78
4, 31199, Note_on_c, 1, 50, 0
4, 31200, Note_on_c, 1, 49, 78
4, 31223, Note_on_c, 1, 49, 0
4, 31224, Note_on_c, 1, 47, 78
4, 31247, Note_on_c, 1, 47, 0
4, 31248, Note_on_c, 1, 46, 78
4, 31271, Note_on_c, 1, 46, 0
4, 31272, Note_on_c, 1, 47, 78
4, 31295, Note_on_c, 1, 47, 0
4, 31296, Note_on_c, 1, 42, 78
4, 31385, Note_on_c, 1, 42, 0
4, 31488, Note_on_c, 1, 47, 84
4, 31494, Note_on_c, 1, 50, 84
4, 31500, Note_on_c, 1, 54, 84
4, 31506, Note_on_c, 1, 59, 84
4, 31536, Note_on_c, 1, 54, 0
4, 31536, Note_on_c, 1, 50, 0
4, 31536, Note_on_c, 1, 47, 0
4, 31581, Note_on_c, 1, 59, 0
4, 31584, Note_on_c, 1, 61, 84
4, 31629, Note_on_c, 1, 61, 0
4, 31632, Note_on_c, 1, 63, 84
4, 31677, Note_on_c, 1, 63, 0
4, 31680, Note_on_c, 1, 64, 84
4, 31725, Note_on_c, 1, 64, 0
4, 31728, Note_on_c, 1, 63, 84
4, 31773, Note_on_c, 1, 63, 0
4, 31776, Note_on_c, 1, 64, 84
4, 31821, Note_on_c, 1, 64, 0
4, 31824, Note_on_c, 1, 67, 84
4, 31869, Note_on_c, 1, 67, 0
4, 31872, Note_on_c, 1, 47, 84
4, 31878, Note_on_c, 1, 50, 84
4, 31884, Note_on_c, 1, 54, 84
4, 31890, Note_on_c, 1, 59, 84
4, 31920, Note_on_c, 1, 54, 0
4, 31920, Note_on_c, 1, 50, 0
4, 31920, Note_on_c, 1, 47, 0
4, 31965, Note_on_c, 1, 59, 0
4, 31968, Note_on_c, 1, 61, 84
4, 32013, Note_on_c, 1, 61, 0
4, 32016, Note_on_c, 1, 63, 84
4, 32061, Note_on_c, 1, 63, 0
4, 32064, Note_on_c, 1, 64, 84
4, 32109, Note_on_c, 1, 64, 0
4, 32112, Note_on_c, 1, 63, 84
4, 32157, Note_on_c, 1, 63, 0
4, 32160, Note_on_c, 1, 64, 84
4, 32205, Note_on_c, 1, 64, 0
4, 32208, Note_on_c, 1, 67, 84
4, 32253, Note_on_c, 1, 67, 0
4, 32256, Note_on_c, 1, 47, 84
4, 32262, Note_on_c, 1, 50, 84
4, 32268, Note_on_c, 1, 54, 84
4, 32274, Note_on_c, 1, 59, 84
4, 32304, Note_on_c, 1, 54, 0
4, 32304, Note_on_c, 1, 50, 0
4, 32304, Note_on_c, 1, 47, 0
4, 32349, Note_on_c, 1, 59, 0
4, 32352, Note_on_c, 1, 61, 78
4, 32397, Note_on_c, 1, 61, 0
4, 32400, Note_on_c, 1, 63, 78
4, 32445, Note_on_c, 1, 63, 0
4, 32448, Note_on_c, 1, 64, 78
4, 32493, Note_on_c, 1, 64, 0
4, 32496, Note_on_c, 1, 63, 78
4, 32541, Note_on_c, 1, 63, 0
4, 32544, Note_on_c, 1, 64, 78
4, 32589, Note_on_c, 1, 64, 0
4, 32592, Note_on_c, 1, 67, 78
4, 32637, Note_on_c, 1, 67, 0
4, 32640, Note_on_c, 1, 62, 78
4, 32685, Note_on_c, 1, 62, 0
4, 32688, Note_on_c, 1, 61, 78
4, 32733, Note_on_c, 1, 61, 0
4, 32736, Note_on_c, 1, 62, 78
4, 32781, Note_on_c, 1, 62, 0
4, 32784, Note_on_c, 1, 66, 78
4, 32829, Note_on_c, 1, 66, 0
4, 32832, Note_on_c, 1, 67, 78
4, 32877, Note_on_c, 1, 67, 0
4, 32880, Note_on_c, 1, 66, 78
4, 32925, Note_on_c, 1, 66, 0
4, 32928, Note_on_c, 1, 67, 78
4, 32973, Note_on_c, 1, 67, 0
4, 32976, Note_on_c, 1, 64, 78
4, 33021, Note_on_c, 1, 64, 0
4, 33024, Note_on_c, 1, 66, 78
4, 33069, Note_on_c, 1, 66, 0
4, 33072, Note_on_c, 1, 64, 78
4, 33117, Note_on_c, 1, 64, 0
4, 33120, Note_on_c, 1, 66, 78
4, 33165, Note_on_c, 1, 66, 0
4, 33168, Note_on_c, 1, 62, 78
4, 33213, Note_on_c, 1, 62, 0
4, 33216, Note_on_c, 1, 61, 78
4, 33239, Note_on_c, 1, 61, 0
4, 33240, Note_on_c, 1, 68, 78
4, 33263, Note_on_c, 1, 68, 0
4, 33264, Note_on_c, 1, 61, 78
4, 33287, Note_on_c, 1, 61, 0
4, 33288, Note_on_c, 1, 68, 78
4, 33311, Note_on_c, 1, 68, 0
4, 33312, Note_on_c, 1, 61, 78
4, 33335, Note_on_c, 1, 61, 0
4, 33336, Note_on_c, 1, 67, 78
4, 33359, Note_on_c, 1, 67, 0
4, 33360, Note_on_c, 1, 61, 78
4, 33383, Note_on_c, 1, 61, 0
4, 33384, Note_on_c, 1, 67, 78
4, 33407, Note_on_c, 1, 67, 0
4, 33408, Note_on_c, 1, 62, 78
4, 33431, Note_on_c, 1, 62, 0
4, 33432, Note_on_c, 1, 66, 78
4, 33455, Note_on_c, 1, 66, 0
4, 33456, Note_on_c, 1, 62, 78
4, 33479, Note_on_c, 1, 62, 0
4, 33480, Note_on_c, 1, 66, 78
4, 33503, Note_on_c, 1, 66, 0
4, 33504, Note_on_c, 1, 63, 78
4, 33527, Note_on_c, 1, 63, 0
4, 33528, Note_on_c, 1, 72, 78
4, 33551, Note_on_c, 1, 72, 0
4, 33552, Note_on_c, 1, 63, 78
4, 33575, Note_on_c, 1, 63, 0
4, 33576, Note_on_c, 1, 72, 78
4, 33599, Note_on_c, 1, 72, 0
4, 33600, Note_on_c, 1, 64, 78
4, 33623, Note_on_c, 1, 64, 0
4, 33624, Note_on_c, 1, 71, 78
4, 33647, Note_on_c, 1, 71, 0
4, 33648, Note_on_c, 1, 64, 78
4, 33671, Note_on_c, 1, 64, 0
4, 33672, Note_on_c, 1, 71, 78
4, 33695, Note_on_c, 1, 71, 0
4, 33696, Note_on_c, 1, 65, 78
4, 33719, Note_on_c, 1, 65, 0
4, 33720, Note_on_c, 1, 68, 78
4, 33743, Note_on_c, 1, 68, 0
4, 33744, Note_on_c, 1, 65, 78
4, 33767, Note_on_c, 1, 65, 0
4, 33768, Note_on_c, 1, 68, 78
4, 33791, Note_on_c, 1, 68, 0
4, 33792, Note_on_c, 1, 54, 78
4, 33815, Note_on_c, 1, 54, 0
4, 33816, Note_on_c, 1, 66, 78
4, 33839, Note_on_c, 1, 66, 0
4, 33840, Note_on_c, 1, 56, 78
4, 33863, Note_on_c, 1, 56, 0
4, 33864, Note_on_c, 1, 66, 78
4, 33887, Note_on_c, 1, 66, 0
4, 33888, Note_on_c, 1, 58, 78
4, 33911, Note_on_c, 1, 58, 0
4, 33912, Note_on_c, 1, 66, 78
4, 33935, Note_on_c, 1, 66, 0
4, 33936, Note_on_c, 1, 59, 78
4, 33959, Note_on_c, 1, 59, 0
4, 33960, Note_on_c, 1, 66, 78
4, 33983, Note_on_c, 1, 66, 0
4, 33984, Note_on_c, 1, 61, 78
4, 34007, Note_on_c, 1, 61, 0
4, 34008, Note_on_c, 1, 66, 78
4, 34031, Note_on_c, 1, 66, 0
4, 34032, Note_on_c, 1, 59, 78
4, 34055, Note_on_c, 1, 59, 0
4, 34056, Note_on_c, 1, 66, 78
4, 34079, Note_on_c, 1, 66, 0
4, 34080, Note_on_c, 1, 61, 78
4, 34103, Note_on_c, 1, 61, 0
4, 34104, Note_on_c, 1, 66, 78
4, 34127, Note_on_c, 1, 66, 0
4, 34128, Note_on_c, 1, 58, 78
4, 34151, Note_on_c, 1, 58, 0
4, 34152, Note_on_c, 1, 66, 78
4, 34175, Note_on_c, 1, 66, 0
4, 34176, Note_on_c, 1, 59, 78
4, 34221, Note_on_c, 1, 59, 0
4, 34224, Note_on_c, 1, 61, 78
4, 34269, Note_on_c, 1, 61, 0
4, 34272, Note_on_c, 1, 62, 78
4, 34317, Note_on_c, 1, 62, 0
4, 34320, Note_on_c, 1, 64, 78
4, 34365, Note_on_c, 1, 64, 0
4, 34368, Note_on_c, 1, 66, 78
4, 34413, Note_on_c, 1, 66, 0
4, 34416, Note_on_c, 1, 64, 78
4, 34461, Note_on_c, 1, 64, 0
4, 34464, Note_on_c, 1, 66, 78
4, 34509, Note_on_c, 1, 66, 0
4, 34512, Note_on_c, 1, 63, 78
4, 34557, Note_on_c, 1, 63, 0
4, 34560, Note_on_c, 1, 64, 78
4, 34605, Note_on_c, 1, 64, 0
4, 34608, Note_on_c, 1, 63, 78
4, 34653, Note_on_c, 1, 63, 0
4, 34656, Note_on_c, 1, 64, 78
4, 34701, Note_on_c, 1, 64, 0
4, 34704, Note_on_c, 1, 61, 78
4, 34749, Note_on_c, 1, 61, 0
4, 34752, Note_on_c, 1, 66, 78
4, 34752, Note_on_c, 1, 62, 78
4, 34797, Note_on_c, 1, 66, 0
4, 34797, Note_on_c, 1, 62, 0
4, 34800, Note_on_c, 1, 67, 78
4, 34800, Note_on_c, 1, 64, 78
4, 34845, Note_on_c, 1, 67, 0
4, 34845, Note_on_c, 1, 64, 0
4, 34848, Note_on_c, 1, 66, 78
4, 34848, Note_on_c, 1, 62, 78
4, 34893, Note_on_c, 1, 66, 0
4, 34893, Note_on_c, 1, 62, 0
4, 34896, Note_on_c, 1, 67, 78
4, 34896, Note_on_c, 1, 64, 78
4, 34941, Note_on_c, 1, 67, 0
4, 34941, Note_on_c, 1, 64, 0
4, 34944, Note_on_c, 1, 66, 78
4, 34944, Note_on_c, 1, 62, 78
4, 34944, Note_on_c, 1, 59, 78
4, 35033, Note_on_c, 1, 66, 0
4, 35033, Note_on_c, 1, 62, 0
4, 35033, Note_on_c, 1, 59, 0
4, 35136, Note_on_c, 1, 67, 78
4, 35225, Note_on_c, 1, 67, 0
4, 35280, Note_on_c, 1, 64, 78
4, 35325, Note_on_c, 1, 64, 0
4, 35328, Note_on_c, 1, 62, 78
4, 35373, Note_on_c, 1, 62, 0
4, 35376, Note_on_c, 1, 64, 78
4, 35421, Note_on_c, 1, 64, 0
4, 35424, Note_on_c, 1, 66, 78
4, 35469, Note_on_c, 1, 66, 0
4, 35472, Note_on_c, 1, 54, 78
4, 35517, Note_on_c, 1, 54, 0
4, 35520, Note_on_c, 1, 59, 78
4, 35609, Note_on_c, 1, 59, 0
4, 35712, Note_on_c, 1, 55, 78
4, 35732, Note_on_c, 1, 55, 0
4, 35760, Note_on_c, 1, 58, 78
4, 35775, Note_on_c, 1, 58, 0
4, 35776, Note_on_c, 1, 61, 78
4, 35791, Note_on_c, 1, 61, 0
4, 35792, Note_on_c, 1, 64, 78
4, 35807, Note_on_c, 1, 64, 0
4, 35952, Note_on_c, 1, 64, 78
4, 35997, Note_on_c, 1, 64, 0
4, 36000, Note_on_c, 1, 66, 78
4, 36045, Note_on_c, 1, 66, 0
4, 36048, Note_on_c, 1, 54, 78
4, 36093, Note_on_c, 1, 54, 0
4, 36096, Note_on_c, 1, 59, 78
4, 36116, Note_on_c, 1, 59, 0
4, 36144, Note_on_c, 1, 59, 78
4, 36189, Note_on_c, 1, 59, 0
4, 36192, Note_on_c, 1, 61, 78
4, 36237, Note_on_c, 1, 61, 0
4, 36240, Note_on_c, 1, 62, 78
4, 36285, Note_on_c, 1, 62, 0
4, 36288, Note_on_c, 1, 64, 78
4, 36333, Note_on_c, 1, 64, 0
4, 36336, Note_on_c, 1, 62, 78
4, 36381, Note_on_c, 1, 62, 0
4, 36384, Note_on_c, 1, 64, 78
4, 36429, Note_on_c, 1, 64, 0
4, 36432, Note_on_c, 1, 66, 78
4, 36477, Note_on_c, 1, 66, 0
4, 36480, Note_on_c, 1, 67, 78
4, 36525, Note_on_c, 1, 67, 0
4, 36528, Note_on_c, 1, 64, 78
4, 36573, Note_on_c, 1, 64, 0
4, 36576, Note_on_c, 1, 66, 78
4, 36621, Note_on_c, 1, 66, 0
4, 36624, Note_on_c, 1, 54, 78
4, 36669, Note_on_c, 1, 54, 0
4, 36672, Note_on_c, 1, 59, 78
4, 36717, Note_on_c, 1, 59, 0
4, 36720, Note_on_c, 1, 35, 78
4, 36743, Note_on_c, 1, 35, 0
4, 36744, Note_on_c, 1, 47, 78
4, 36767, Note_on_c, 1, 47, 0
4, 36768, Note_on_c, 1, 37, 78
4, 36791, Note_on_c, 1, 37, 0
4, 36792, Note_on_c, 1, 49, 78
4, 36815, Note_on_c, 1, 49, 0
4, 36816, Note_on_c, 1, 38, 78
4, 36839, Note_on_c, 1, 38, 0
4, 36840, Note_on_c, 1, 50, 78
4, 36863, Note_on_c, 1, 50, 0
4, 36864, Note_on_c, 1, 40, 78
4, 36887, Note_on_c, 1, 40, 0
4, 36888, Note_on_c, 1, 52, 78
4, 36911, Note_on_c, 1, 52, 0
4, 36912, Note_on_c, 1, 38, 78
4, 36935, Note_on_c, 1, 38, 0
4, 36936, Note_on_c, 1, 50, 78
4, 36959, Note_on_c, 1, 50, 0
4, 36960, Note_on_c, 1, 40, 78
4, 36983, Note_on_c, 1, 40, 0
4, 36984, Note_on_c, 1, 52, 78
4, 37007, Note_on_c, 1, 52, 0
4, 37008, Note_on_c, 1, 42, 78
4, 37031, Note_on_c, 1, 42, 0
4, 37032, Note_on_c, 1, 54, 78
4, 37055, Note_on_c, 1, 54, 0
4, 37056, Note_on_c, 1, 43, 78
4, 37079, Note_on_c, 1, 43, 0
4, 37080, Note_on_c, 1, 55, 78
4, 37103, Note_on_c, 1, 55, 0
4, 37104, Note_on_c, 1, 52, 78
4, 37149, Note_on_c, 1, 52, 0
4, 37152, Note_on_c, 1, 54, 78
4, 37197, Note_on_c, 1, 54, 0
4, 37200, Note_on_c, 1, 42, 78
4, 37245, Note_on_c, 1, 42, 0
4, 37248, Note_on_c, 1, 47, 78
4, 37337, Note_on_c, 1, 47, 0
4, 37440, Note_on_c, 1, 47, 78
4, 37440, Note_on_c, 1, 42, 78
4, 37440, Note_on_c, 1, 38, 78
4, 37440, Note_on_c, 1, 35, 78
4, 37529, Note_on_c, 1, 47, 0
4, 37529, Note_on_c, 1, 42, 0
4, 37529, Note_on_c, 1, 38, 0
4, 37529, Note_on_c, 1, 35, 0
4, 37680, Note_on_c, 1, 50, 78
4, 37700, Note_on_c, 1, 50, 0
4, 37728, Note_on_c, 1, 54, 78
4, 37748, Note_on_c, 1, 54, 0
4, 37776, Note_on_c, 1, 50, 78
4, 37796, Note_on_c, 1, 50, 0
4, 37872, Note_on_c, 1, 48, 78
4, 37892, Note_on_c, 1, 48, 0
4, 37920, Note_on_c, 1, 54, 78
4, 37940, Note_on_c, 1, 54, 0
4, 37968, Note_on_c, 1, 48, 78
4, 37988, Note_on_c, 1, 48, 0
4, 38064, Note_on_c, 1, 45, 78
4, 38084, Note_on_c, 1, 45, 0
4, 38112, Note_on_c, 1, 51, 78
4, 38132, Note_on_c, 1, 51, 0
4, 38160, Note_on_c, 1, 45, 78
4, 38180, Note_on_c, 1, 45, 0
4, 38256, Note_on_c, 1, 42, 78
4, 38276, Note_on_c, 1, 42, 0
4, 38304, Note_on_c, 1, 51, 78
4, 38324, Note_on_c, 1, 51, 0
4, 38352, Note_on_c, 1, 57, 78
4, 38372, Note_on_c, 1, 57, 0
4, 38448, Note_on_c, 1, 52, 78
4, 38468, Note_on_c, 1, 52, 0
4, 38496, Note_on_c, 1, 55, 78
4, 38516, Note_on_c, 1, 55, 0
4, 38544, Note_on_c, 1, 52, 78
4, 38564, Note_on_c, 1, 52, 0
4, 38640, Note_on_c, 1, 51, 78
4, 38660, Note_on_c, 1, 51, 0
4, 38688, Note_on_c, 1, 54, 78
4, 38708, Note_on_c, 1, 54, 0
4, 38736, Note_on_c, 1, 47, 78
4, 38756, Note_on_c, 1, 47, 0
4, 38832, Note_on_c, 1, 48, 78
4, 38852, Note_on_c, 1, 48, 0
4, 38880, Note_on_c, 1, 47, 78
4, 38900, Note_on_c, 1, 47, 0
4, 38928, Note_on_c, 1, 45, 78
4, 38948, Note_on_c, 1, 45, 0
4, 38976, Note_on_c, 1, 43, 78
4, 39065, Note_on_c, 1, 43, 0
4, 39216, Note_on_c, 1, 66, 78
4, 39216, Note_on_c, 1, 63, 78
4, 39261, Note_on_c, 1, 66, 0
4, 39261, Note_on_c, 1, 63, 0
4, 39264, Note_on_c, 1, 66, 78
4, 39264, Note_on_c, 1, 63, 78
4, 39309, Note_on_c, 1, 66, 0
4, 39309, Note_on_c, 1, 63, 0
4, 39312, Note_on_c, 1, 66, 78
4, 39312, Note_on_c, 1, 63, 78
4, 39357, Note_on_c, 1, 66, 0
4, 39357, Note_on_c, 1, 63, 0
4, 39408, Note_on_c, 1, 71, 78
4, 39408, Note_on_c, 1, 64, 78
4, 39453, Note_on_c, 1, 71, 0
4, 39453, Note_on_c, 1, 64, 0
4, 39456, Note_on_c, 1, 71, 78
4, 39456, Note_on_c, 1, 64, 78
4, 39501, Note_on_c, 1, 71, 0
4, 39501, Note_on_c, 1, 64, 0
4, 39504, Note_on_c, 1, 67, 78
4, 39549, Note_on_c, 1, 67, 0
4, 39552, Note_on_c, 1, 69, 78
4, 39597, Note_on_c, 1, 69, 0
4, 39600, Note_on_c, 1, 67, 78
4, 39645, Note_on_c, 1, 67, 0
4, 39648, Note_on_c, 1, 69, 78
4, 39693, Note_on_c, 1, 69, 0
4, 39696, Note_on_c, 1, 71, 78
4, 39741, Note_on_c, 1, 71, 0
4, 39744, Note_on_c, 1, 68, 63
4, 39767, Note_on_c, 1, 68, 0
4, 39768, Note_on_c, 1, 71, 63
4, 39791, Note_on_c, 1, 71, 0
4, 39792, Note_on_c, 1, 68, 63
4, 39815, Note_on_c, 1, 68, 0
4, 39816, Note_on_c, 1, 71, 63
4, 39839, Note_on_c, 1, 71, 0
4, 39840, Note_on_c, 1, 68, 63
4, 39863, Note_on_c, 1, 68, 0
4, 39864, Note_on_c, 1, 71, 63
4, 39887, Note_on_c, 1, 71, 0
4, 39888, Note_on_c, 1, 68, 63
4, 39911, Note_on_c, 1, 68, 0
4, 39912, Note_on_c, 1, 71, 63
4, 39935, Note_on_c, 1, 71, 0
4, 39936, Note_on_c, 1, 68, 63
4, 39959, Note_on_c, 1, 68, 0
4, 39960, Note_on_c, 1, 71, 63
4, 39983, Note_on_c, 1, 71, 0
4, 39984, Note_on_c, 1, 68, 63
4, 40007, Note_on_c, 1, 68, 0
4, 40008, Note_on_c, 1, 71, 63
4, 40031, Note_on_c, 1, 71, 0
4, 40032, Note_on_c, 1, 68, 63
4, 40055, Note_on_c, 1, 68, 0
4, 40056, Note_on_c, 1, 71, 63
4, 40079, Note_on_c, 1, 71, 0
4, 40080, Note_on_c, 1, 68, 63
4, 40103, Note_on_c, 1, 68, 0
4, 40104, Note_on_c, 1, 71, 63
4, 40127, Note_on_c, 1, 71, 0
4, 40128, Note_on_c, 1, 65, 63
4, 40151, Note_on_c, 1, 65, 0
4, 40152, Note_on_c, 1, 68, 63
4, 40175, Note_on_c, 1, 68, 0
4, 40176, Note_on_c, 1, 65, 63
4, 40199, Note_on_c, 1, 65, 0
4, 40200, Note_on_c, 1, 68, 63
4, 40223, Note_on_c, 1, 68, 0
4, 40224, Note_on_c, 1, 65, 63
4, 40247, Note_on_c, 1, 65, 0
4, 40248, Note_on_c, 1, 68, 63
4, 40271, Note_on_c, 1, 68, 0
4, 40272, Note_on_c, 1, 65, 63
4, 40295, Note_on_c, 1, 65, 0
4, 40296, Note_on_c, 1, 68, 63
4, 40319, Note_on_c, 1, 68, 0
4, 40320, Note_on_c, 1, 65, 63
4, 40343, Note_on_c, 1, 65, 0
4, 40344, Note_on_c, 1, 68, 63
4, 40367, Note_on_c, 1, 68, 0
4, 40368, Note_on_c, 1, 65, 63
4, 40391, Note_on_c, 1, 65, 0
4, 40392, Note_on_c, 1, 68, 63
4, 40415, Note_on_c, 1, 68, 0
4, 40416, Note_on_c, 1, 65, 63
4, 40439, Note_on_c, 1, 65, 0
4, 40440, Note_on_c, 1, 68, 63
4, 40463, Note_on_c, 1, 68, 0
4, 40464, Note_on_c, 1, 65, 63
4, 40487, Note_on_c, 1, 65, 0
4, 40488, Note_on_c, 1, 68, 63
4, 40511, Note_on_c, 1, 68, 0
4, 40512, Note_on_c, 1, 66, 63
4, 40535, Note_on_c, 1, 66, 0
4, 40536, Note_on_c, 1, 69, 63
4, 40559, Note_on_c, 1, 69, 0
4, 40560, Note_on_c, 1, 66, 63
4, 40583, Note_on_c, 1, 66, 0
4, 40584, Note_on_c, 1, 69, 63
4, 40607, Note_on_c, 1, 69, 0
4, 40608, Note_on_c, 1, 66, 63
4, 40631, Note_on_c, 1, 66, 0
4, 40632, Note_on_c, 1, 69, 63
4, 40655, Note_on_c, 1, 69, 0
4, 40656, Note_on_c, 1, 66, 63
4, 40679, Note_on_c, 1, 66, 0
4, 40680, Note_on_c, 1, 69, 63
4, 40703, Note_on_c, 1, 69, 0
4, 40704, Note_on_c, 1, 62, 63
4, 40727, Note_on_c, 1, 62, 0
4, 40728, Note_on_c, 1, 66, 63
4, 40751, Note_on_c, 1, 66, 0
4, 40752, Note_on_c, 1, 62, 63
4, 40775, Note_on_c, 1, 62, 0
4, 40776, Note_on_c, 1, 66, 63
4, 40799, Note_on_c, 1, 66, 0
4, 40800, Note_on_c, 1, 62, 63
4, 40823, Note_on_c, 1, 62, 0
4, 40824, Note_on_c, 1, 66, 63
4, 40847, Note_on_c, 1, 66, 0
4, 40848, Note_on_c, 1, 62, 63
4, 40871, Note_on_c, 1, 62, 0
4, 40872, Note_on_c, 1, 66, 63
4, 40895, Note_on_c, 1, 66, 0
4, 40896, Note_on_c, 1, 66, 63
4, 40896, Note_on_c, 1, 61, 63
4, 40992, Note_on_c, 1, 66, 0
4, 40992, Note_on_c, 1, 65, 63
4, 41037, Note_on_c, 1, 65, 0
4, 41037, Note_on_c, 1, 61, 0
4, 41136, Note_on_c, 1, 54, 78
4, 41136, Note_on_c, 1, 42, 78
4, 41156, Note_on_c, 1, 54, 0
4, 41156, Note_on_c, 1, 42, 0
4, 41184, Note_on_c, 1, 57, 78
4, 41184, Note_on_c, 1, 45, 78
4, 41204, Note_on_c, 1, 57, 0
4, 41204, Note_on_c, 1, 45, 0
4, 41232, Note_on_c, 1, 54, 78
4, 41232, Note_on_c, 1, 42, 78
4, 41252, Note_on_c, 1, 54, 0
4, 41252, Note_on_c, 1, 42, 0
4, 41328, Note_on_c, 1, 53, 78
4, 41328, Note_on_c, 1, 41, 78
4, 41348, Note_on_c, 1, 53, 0
4, 41348, Note_on_c, 1, 41, 0
4, 41376, Note_on_c, 1, 56, 78
4, 41376, Note_on_c, 1, 44, 78
4, 41396, Note_on_c, 1, 56, 0
4, 41396, Note_on_c, 1, 44, 0
4, 41424, Note_on_c, 1, 49, 78
4, 41424, Note_on_c, 1, 37, 78
4, 41444, Note_on_c, 1, 49, 0
4, 41444, Note_on_c, 1, 37, 0
4, 41520, Note_on_c, 1, 50, 78
4, 41520, Note_on_c, 1, 38, 78
4, 41540, Note_on_c, 1, 50, 0
4, 41540, Note_on_c, 1, 38, 0
4, 41568, Note_on_c, 1, 49, 78
4, 41568, Note_on_c, 1, 37, 78
4, 41588, Note_on_c, 1, 49, 0
4, 41588, Note_on_c, 1, 37, 0
4, 41616, Note_on_c, 1, 47, 78
4, 41616, Note_on_c, 1, 35, 78
4, 41636, Note_on_c, 1, 47, 0
4, 41636, Note_on_c, 1, 35, 0
4, 41664, Note_on_c, 1, 45, 78
4, 41664, Note_on_c, 1, 33, 78
4, 41753, Note_on_c, 1, 45, 0
4, 41753, Note_on_c, 1, 33, 0
4, 41904, Note_on_c, 1, 57, 78
4, 41952, Note_on_c, 1, 57, 0
4, 41952, Note_on_c, 1, 69, 78
4, 41997, Note_on_c, 1, 69, 0
4, 42096, Note_on_c, 1, 62, 78
4, 42144, Note_on_c, 1, 62, 0
4, 42144, Note_on_c, 1, 74, 78
4, 42189, Note_on_c, 1, 74, 0
4, 42240, Note_on_c, 1, 73, 78
4, 42329, Note_on_c, 1, 73, 0
4, 42336, Note_on_c, 1, 71, 78
4, 42425, Note_on_c, 1, 71, 0
4, 42432, Note_on_c, 1, 69, 78
4, 42521, Note_on_c, 1, 69, 0
4, 42528, Note_on_c, 1, 68, 78
4, 42617, Note_on_c, 1, 68, 0
4, 42624, Note_on_c, 1, 66, 78
4, 42801, Note_on_c, 1, 66, 0
4, 42816, Note_on_c, 1, 64, 78
4, 42905, Note_on_c, 1, 64, 0
4, 42912, Note_on_c, 1, 60, 78
4, 43001, Note_on_c, 1, 60, 0
4, 43008, Note_on_c, 1, 61, 78
4, 43097, Note_on_c, 1, 61, 0
4, 43104, Note_on_c, 1, 57, 78
4, 43149, Note_on_c, 1, 57, 0
4, 43152, Note_on_c, 1, 61, 78
4, 43186, Note_on_c, 1, 61, 0
4, 43188, Note_on_c, 1, 64, 78
4, 43200, Note_on_c, 1, 64, 0
4, 43200, Note_on_c, 1, 56, 78
4, 43245, Note_on_c, 1, 56, 0
4, 43248, Note_on_c, 1, 61, 78
4, 43282, Note_on_c, 1, 61, 0
4, 43284, Note_on_c, 1, 64, 78
4, 43296, Note_on_c, 1, 64, 0
4, 43296, Note_on_c, 1, 55, 78
4, 43341, Note_on_c, 1, 55, 0
4, 43344, Note_on_c, 1, 61, 78
4, 43378, Note_on_c, 1, 61, 0
4, 43380, Note_on_c, 1, 64, 78
4, 43392, Note_on_c, 1, 64, 0
4, 43392, Note_on_c, 1, 54, 78
4, 43437, Note_on_c, 1, 54, 0
4, 43440, Note_on_c, 1, 61, 78
4, 43474, Note_on_c, 1, 61, 0
4, 43476, Note_on_c, 1, 64, 78
4, 43488, Note_on_c, 1, 64, 0
4, 43488, Note_on_c, 1, 54, 78
4, 43533, Note_on_c, 1, 54, 0
4, 43536, Note_on_c, 1, 61, 78
4, 43570, Note_on_c, 1, 61, 0
4, 43572, Note_on_c, 1, 64, 78
4, 43584, Note_on_c, 1, 64, 0
4, 43584, Note_on_c, 1, 54, 78
4, 43629, Note_on_c, 1, 54, 0
4, 43632, Note_on_c, 1, 59, 78
4, 43666, Note_on_c, 1, 59, 0
4, 43668, Note_on_c, 1, 62, 78
4, 43680, Note_on_c, 1, 62, 0
4, 43680, Note_on_c, 1, 54, 78
4, 43725, Note_on_c, 1, 54, 0
4, 43728, Note_on_c, 1, 58, 78
4, 43762, Note_on_c, 1, 58, 0
4, 43764, Note_on_c, 1, 61, 78
4, 43776, Note_on_c, 1, 61, 0
4, 43776, Note_on_c, 1, 54, 78
4, 43821, Note_on_c, 1, 54, 0
4, 43824, Note_on_c, 1, 59, 78
4, 43858, Note_on_c, 1, 59, 0
4, 43860, Note_on_c, 1, 62, 78
4, 43872, Note_on_c, 1, 62, 0
4, 43872, Note_on_c, 1, 54, 78
4, 43917, Note_on_c, 1, 54, 0
4, 43920, Note_on_c, 1, 61, 78
4, 43954, Note_on_c, 1, 61, 0
4, 43956, Note_on_c, 1, 64, 78
4, 43968, Note_on_c, 1, 64, 0
4, 43968, Note_on_c, 1, 54, 78
4, 44013, Note_on_c, 1, 54, 0
4, 44016, Note_on_c, 1, 59, 78
4, 44050, Note_on_c, 1, 59, 0
4, 44052, Note_on_c, 1, 62, 78
4, 44064, Note_on_c, 1, 62, 0
4, 44064, Note_on_c, 1, 54, 78
4, 44109, Note_on_c, 1, 54, 0
4, 44112, Note_on_c, 1, 56, 78
4, 44146, Note_on_c, 1, 56, 0
4, 44148, Note_on_c, 1, 59, 78
4, 44160, Note_on_c, 1, 59, 0
4, 44160, Note_on_c, 1, 54, 78
4, 44514, Note_on_c, 1, 54, 0
4, 44544, Note_on_c, 1, 42, 78
4, 44736, Note_on_c, 1, 30, 78
4, 44913, Note_on_c, 1, 42, 0
4, 44913, Note_on_c, 1, 30, 0
4, 44928, Note_on_c, 1, 35, 78
4, 44973, Note_on_c, 1, 35, 0
4, 44976, Note_on_c, 1, 47, 78
4, 44996, Note_on_c, 1, 47, 0
4, 45024, Note_on_c, 1, 50, 78
4, 45044, Note_on_c, 1, 50, 0
4, 45072, Note_on_c, 1, 47, 78
4, 45092, Note_on_c, 1, 47, 0
4, 45168, Note_on_c, 1, 46, 78
4, 45188, Note_on_c, 1, 46, 0
4, 45216, Note_on_c, 1, 49, 78
4, 45236, Note_on_c, 1, 49, 0
4, 45264, Note_on_c, 1, 42, 78
4, 45284, Note_on_c, 1, 42, 0
4, 45360, Note_on_c, 1, 43, 78
4, 45380, Note_on_c, 1, 43, 0
4, 45408, Note_on_c, 1, 42, 78
4, 45428, Note_on_c, 1, 42, 0
4, 45456, Note_on_c, 1, 40, 78
4, 45476, Note_on_c, 1, 40, 0
4, 45504, Note_on_c, 1, 38, 78
4, 45543, Note_on_c, 1, 38, 0
4, 45744, Note_on_c, 1, 61, 78
4, 45744, Note_on_c, 1, 58, 78
4, 45789, Note_on_c, 1, 61, 0
4, 45789, Note_on_c, 1, 58, 0
4, 45792, Note_on_c, 1, 61, 78
4, 45792, Note_on_c, 1, 58, 78
4, 45837, Note_on_c, 1, 61, 0
4, 45837, Note_on_c, 1, 58, 0
4, 45840, Note_on_c, 1, 61, 78
4, 45840, Note_on_c, 1, 58, 78
4, 45885, Note_on_c, 1, 61, 0
4, 45885, Note_on_c, 1, 58, 0
4, 45936, Note_on_c, 1, 66, 78
4, 45936, Note_on_c, 1, 59, 78
4, 45981, Note_on_c, 1, 66, 0
4, 45981, Note_on_c, 1, 59, 0
4, 45984, Note_on_c, 1, 66, 78
4, 45984, Note_on_c, 1, 59, 78
4, 46029, Note_on_c, 1, 66, 0
4, 46029, Note_on_c, 1, 59, 0
4, 46032, Note_on_c, 1, 62, 78
4, 46077, Note_on_c, 1, 62, 0
4, 46080, Note_on_c, 1, 64, 78
4, 46125, Note_on_c, 1, 64, 0
4, 46128, Note_on_c, 1, 62, 78
4, 46173, Note_on_c, 1, 62, 0
4, 46176, Note_on_c, 1, 64, 78
4, 46221, Note_on_c, 1, 64, 0
4, 46224, Note_on_c, 1, 66, 78
4, 46269, Note_on_c, 1, 66, 0
4, 46272, Note_on_c, 1, 67, 78
4, 46361, Note_on_c, 1, 67, 0
4, 46656, Note_on_c, 1, 67, 78
4, 46656, Note_on_c, 1, 64, 78
4, 46752, Note_on_c, 1, 67, 0
4, 46752, Note_on_c, 1, 64, 0
4, 46752, Note_on_c, 1, 66, 78
4, 46752, Note_on_c, 1, 62, 78
4, 46797, Note_on_c, 1, 66, 0
4, 46797, Note_on_c, 1, 62, 0
4, 47040, Note_on_c, 1, 62, 78
4, 47040, Note_on_c, 1, 59, 78
4, 47136, Note_on_c, 1, 62, 0
4, 47136, Note_on_c, 1, 59, 0
4, 47136, Note_on_c, 1, 61, 78
4, 47136, Note_on_c, 1, 58, 78
4, 47181, Note_on_c, 1, 61, 0
4, 47181, Note_on_c, 1, 58, 0
4, 47184, Note_on_c, 1, 61, 78
4, 47207, Note_on_c, 1, 61, 0
4, 47208, Note_on_c, 1, 52, 78
4, 47231, Note_on_c, 1, 52, 0
4, 47232, Note_on_c, 1, 52, 78
4, 47255, Note_on_c, 1, 52, 0
4, 47256, Note_on_c, 1, 50, 78
4, 47279, Note_on_c, 1, 50, 0
4, 47280, Note_on_c, 1, 49, 78
4, 47303, Note_on_c, 1, 49, 0
4, 47304, Note_on_c, 1, 50, 78
4, 47327, Note_on_c, 1, 50, 0
4, 47328, Note_on_c, 1, 49, 78
4, 47351, Note_on_c, 1, 49, 0
4, 47352, Note_on_c, 1, 47, 78
4, 47375, Note_on_c, 1, 47, 0
4, 47376, Note_on_c, 1, 46, 78
4, 47399, Note_on_c, 1, 46, 0
4, 47400, Note_on_c, 1, 47, 78
4, 47423, Note_on_c, 1, 47, 0
4, 47424, Note_on_c, 1, 42, 78
4, 47513, Note_on_c, 1, 42, 0
4, 47616, Note_on_c, 1, 47, 84
4, 47622, Note_on_c, 1, 50, 84
4, 47628, Note_on_c, 1, 54, 84
4, 47634, Note_on_c, 1, 59, 84
4, 47664, Note_on_c, 1, 54, 0
4, 47664, Note_on_c, 1, 50, 0
4, 47664, Note_on_c, 1, 47, 0
4, 47709, Note_on_c, 1, 59, 0
4, 47712, Note_on_c, 1, 61, 84
4, 47757, Note_on_c, 1, 61, 0
4, 47760, Note_on_c, 1, 63, 84
4, 47805, Note_on_c, 1, 63, 0
4, 47808, Note_on_c, 1, 64, 84
4, 47853, Note_on_c, 1, 64, 0
4, 47856, Note_on_c, 1, 63, 84
4, 47901, Note_on_c, 1, 63, 0
4, 47904, Note_on_c, 1, 64, 84
4, 47949, Note_on_c, 1, 64, 0
4, 47952, Note_on_c, 1, 67, 84
4, 47997, Note_on_c, 1, 67, 0
4, 48000, Note_on_c, 1, 47, 84
4, 48006, Note_on_c, 1, 50, 84
4, 48012, Note_on_c, 1, 54, 84
4, 48018, Note_on_c, 1, 59, 84
4, 48048, Note_on_c, 1, 54, 0
4, 48048, Note_on_c, 1, 50, 0
4, 48048, Note_on_c, 1, 47, 0
4, 48093, Note_on_c, 1, 59, 0
4, 48096, Note_on_c, 1, 61, 84
4, 48141, Note_on_c, 1, 61, 0
4, 48144, Note_on_c, 1, 63, 84
4, 48189, Note_on_c, 1, 63, 0
4, 48192, Note_on_c, 1, 64, 84
4, 48237, Note_on_c, 1, 64, 0
4, 48240, Note_on_c, 1, 63, 84
4, 48285, Note_on_c, 1, 63, 0
4, 48288, Note_on_c, 1, 64, 84
4, 48333, Note_on_c, 1, 64, 0
4, 48336, Note_on_c, 1, 67, 84
4, 48381, Note_on_c, 1, 67, 0
4, 48384, Note_on_c, 1, 47, 84
4, 48390, Note_on_c, 1, 50, 84
4, 48396, Note_on_c, 1, 54, 84
4, 48402, Note_on_c, 1, 59, 84
4, 48432, Note_on_c, 1, 54, 0
4, 48432, Note_on_c, 1, 50, 0
4, 48432, Note_on_c, 1, 47, 0
4, 48477, Note_on_c, 1, 59, 0
4, 48480, Note_on_c, 1, 61, 78
4, 48525, Note_on_c, 1, 61, 0
4, 48528, Note_on_c, 1, 63, 78
4, 48573, Note_on_c, 1, 63, 0
4, 48576, Note_on_c, 1, 64, 78
4, 48621, Note_on_c, 1, 64, 0
4, 48624, Note_on_c, 1, 63, 78
4, 48669, Note_on_c, 1, 63, 0
4, 48672, Note_on_c, 1, 64, 78
4, 48717, Note_on_c, 1, 64, 0
4, 48720, Note_on_c, 1, 67, 78
4, 48765, Note_on_c, 1, 67, 0
4, 48768, Note_on_c, 1, 62, 78
4, 48813, Note_on_c, 1, 62, 0
4, 48816, Note_on_c, 1, 61, 78
4, 48861, Note_on_c, 1, 61, 0
4, 48864, Note_on_c, 1, 62, 78
4, 48909, Note_on_c, 1, 62, 0
4, 48912, Note_on_c, 1, 66, 78
4, 48957, Note_on_c, 1, 66, 0
4, 48960, Note_on_c, 1, 67, 78
4, 49005, Note_on_c, 1, 67, 0
4, 49008, Note_on_c, 1, 66, 78
4, 49053, Note_on_c, 1, 66, 0
4, 49056, Note_on_c, 1, 67, 78
4, 49101, Note_on_c, 1, 67, 0
4, 49104, Note_on_c, 1, 64, 78
4, 49149, Note_on_c, 1, 64, 0
4, 49152, Note_on_c, 1, 66, 78
4, 49197, Note_on_c, 1, 66, 0
4, 49200, Note_on_c, 1, 64, 78
4, 49245, Note_on_c, 1, 64, 0
4, 49248, Note_on_c, 1, 66, 78
4, 49293, Note_on_c, 1, 66, 0
4, 49296, Note_on_c, 1, 62, 78
4, 49341, Note_on_c, 1, 62, 0
4, 49344, Note_on_c, 1, 61, 78
4, 49367, Note_on_c, 1, 61, 0
4, 49368, Note_on_c, 1, 68, 78
4, 49391, Note_on_c, 1, 68, 0
4, 49392, Note_on_c, 1, 61, 78
4, 49415, Note_on_c, 1, 61, 0
4, 49416, Note_on_c, 1, 68, 78
4, 49439, Note_on_c, 1, 68, 0
4, 49440, Note_on_c, 1, 61, 78
4, 49463, Note_on_c, 1, 61, 0
4, 49464, Note_on_c, 1, 67, 78
4, 49487, Note_on_c, 1, 67, 0
4, 49488, Note_on_c, 1, 61, 78
4, 49511, Note_on_c, 1, 61, 0
4, 49512, Note_on_c, 1, 67, 78
4, 49535, Note_on_c, 1, 67, 0
4, 49536, Note_on_c, 1, 62, 78
4, 49559, Note_on_c, 1, 62, 0
4, 49560, Note_on_c, 1, 66, 78
4, 49583, Note_on_c, 1, 66, 0
4, 49584, Note_on_c, 1, 62, 78
4, 49607, Note_on_c, 1, 62, 0
4, 49608, Note_on_c, 1, 66, 78
4, 49631, Note_on_c, 1, 66, 0
4, 49632, Note_on_c, 1, 63, 78
4, 49655, Note_on_c, 1, 63, 0
4, 49656, Note_on_c, 1, 72, 78
4, 49679, Note_on_c, 1, 72, 0
4, 49680, Note_on_c, 1, 63, 78
4, 49703, Note_on_c, 1, 63, 0
4, 49704, Note_on_c, 1, 72, 78
4, 49727, Note_on_c, 1, 72, 0
4, 49728, Note_on_c, 1, 64, 78
4, 49751, Note_on_c, 1, 64, 0
4, 49752, Note_on_c, 1, 71, 78
4, 49775, Note_on_c, 1, 71, 0
4, 49776, Note_on_c, 1, 64, 78
4, 49799, Note_on_c, 1, 64, 0
4, 49800, Note_on_c, 1, 71, 78
4, 49823, Note_on_c, 1, 71, 0
4, 49824, Note_on_c, 1, 65, 78
4, 49847, Note_on_c, 1, 65, 0
4, 49848, Note_on_c, 1, 68, 78
4, 49871, Note_on_c, 1, 68, 0
4, 49872, Note_on_c, 1, 65, 78
4, 49895, Note_on_c, 1, 65, 0
4, 49896, Note_on_c, 1, 68, 78
4, 49919, Note_on_c, 1, 68, 0
4, 49920, Note_on_c, 1, 54, 78
4, 49943, Note_on_c, 1, 54, 0
4, 49944, Note_on_c, 1, 66, 78
4, 49967, Note_on_c, 1, 66, 0
4, 49968, Note_on_c, 1, 56, 78
4, 49991, Note_on_c, 1, 56, 0
4, 49992, Note_on_c, 1, 66, 78
4, 50015, Note_on_c, 1, 66, 0
4, 50016, Note_on_c, 1, 58, 78
4, 50039, Note_on_c, 1, 58, 0
4, 50040, Note_on_c, 1, 66, 78
4, 50063, Note_on_c, 1, 66, 0
4, 50064, Note_on_c, 1, 59, 78
4, 50087, Note_on_c, 1, 59, 0
4, 50088, Note_on_c, 1, 66, 78
4, 50111, Note_on_c, 1, 66, 0
4, 50112, Note_on_c, 1, 61, 78
4, 50135, Note_on_c, 1, 61, 0
4, 50136, Note_on_c, 1, 66, 78
4, 50159, Note_on_c, 1, 66, 0
4, 50160, Note_on_c, 1, 59, 78
4, 50183, Note_on_c, 1, 59, 0
4, 50184, Note_on_c, 1, 66, 78
4, 50207, Note_on_c, 1, 66, 0
4, 50208, Note_on_c, 1, 61, 78
4, 50231, Note_on_c, 1, 61, 0
4, 50232, Note_on_c, 1, 66, 78
4, 50255, Note_on_c, 1, 66, 0
4, 50256, Note_on_c, 1, 58, 78
4, 50279, Note_on_c, 1, 58, 0
4, 50280, Note_on_c, 1, 66, 78
4, 50303, Note_on_c, 1, 66, 0
4, 50304, Note_on_c, 1, 59, 78
4, 50349, Note_on_c, 1, 59, 0
4, 50352, Note_on_c, 1, 61, 78
4, 50397, Note_on_c, 1, 61, 0
4, 50400, Note_on_c, 1, 62, 78
4, 50445, Note_on_c, 1, 62, 0
4, 50448, Note_on_c, 1, 64, 78
4, 50493, Note_on_c, 1, 64, 0
4, 50496, Note_on_c, 1, 66, 78
4, 50541, Note_on_c, 1, 66, 0
4, 50544, Note_on_c, 1, 64, 78
4, 50589, Note_on_c, 1, 64, 0
4, 50592, Note_on_c, 1, 66, 78
4, 50637, Note_on_c, 1, 66, 0
4, 50640, Note_on_c, 1, 63, 78
4, 50685, Note_on_c, 1, 63, 0
4, 50688, Note_on_c, 1, 64, 78
4, 50733, Note_on_c, 1, 64, 0
4, 50736, Note_on_c, 1, 63, 78
4, 50781, Note_on_c, 1, 63, 0
4, 50784, Note_on_c, 1, 64, 78
4, 50829, Note_on_c, 1, 64, 0
4, 50832, Note_on_c, 1, 61, 78
4, 50877, Note_on_c, 1, 61, 0
4, 50880, Note_on_c, 1, 66, 78
4, 50880, Note_on_c, 1, 62, 78
4, 50925, Note_on_c, 1, 66, 0
4, 50925, Note_on_c, 1, 62, 0
4, 50928, Note_on_c, 1, 67, 78
4, 50928, Note_on_c, 1, 64, 78
4, 50973, Note_on_c, 1, 67, 0
4, 50973, Note_on_c, 1, 64, 0
4, 50976, Note_on_c, 1, 66, 78
4, 50976, Note_on_c, 1, 62, 78
4, 51021, Note_on_c, 1, 66, 0
4, 51021, Note_on_c, 1, 62, 0
4, 51024, Note_on_c, 1, 67, 78
4, 51024, Note_on_c, 1, 64, 78
4, 51069, Note_on_c, 1, 67, 0
4, 51069, Note_on_c, 1, 64, 0
4, 51072, Note_on_c, 1, 66, 78
4, 51072, Note_on_c, 1, 62, 78
4, 51072, Note_on_c, 1, 59, 78
4, 51161, Note_on_c, 1, 66, 0
4, 51161, Note_on_c, 1, 62, 0
4, 51161, Note_on_c, 1, 59, 0
4, 51264, Note_on_c, 1, 67, 78
4, 51353, Note_on_c, 1, 67, 0
4, 51408, Note_on_c, 1, 64, 78
4, 51453, Note_on_c, 1, 64, 0
4, 51456, Note_on_c, 1, 62, 78
4, 51501, Note_on_c, 1, 62, 0
4, 51504, Note_on_c, 1, 64, 78
4, 51549, Note_on_c, 1, 64, 0
4, 51552, Note_on_c, 1, 66, 78
4, 51597, Note_on_c, 1, 66, 0
4, 51600, Note_on_c, 1, 54, 78
4, 51645, Note_on_c, 1, 54, 0
4, 51648, Note_on_c, 1, 59, 78
4, 51737, Note_on_c, 1, 59, 0
4, 51840, Note_on_c, 1, 55, 78
4, 51860, Note_on_c, 1, 55, 0
4, 51888, Note_on_c, 1, 58, 78
4, 51903, Note_on_c, 1, 58, 0
4, 51904, Note_on_c, 1, 61, 78
4, 51919, Note_on_c, 1, 61, 0
4, 51920, Note_on_c, 1, 64, 78
4, 51935, Note_on_c, 1, 64, 0
4, 52080, Note_on_c, 1, 64, 78
4, 52125, Note_on_c, 1, 64, 0
4, 52128, Note_on_c, 1, 66, 78
4, 52173, Note_on_c, 1, 66, 0
4, 52176, Note_on_c, 1, 54, 78
4, 52221, Note_on_c, 1, 54, 0
4, 52224, Note_on_c, 1, 59, 78
4, 52244, Note_on_c, 1, 59, 0
4, 52272, Note_on_c, 1, 59, 78
4, 52317, Note_on_c, 1, 59, 0
4, 52320, Note_on_c, 1, 61, 78
4, 52365, Note_on_c, 1, 61, 0
4, 52368, Note_on_c, 1, 62, 78
4, 52413, Note_on_c, 1, 62, 0
4, 52416, Note_on_c, 1, 64, 78
4, 52461, Note_on_c, 1, 64, 0
4, 52464, Note_on_c, 1, 62, 78
4, 52509, Note_on_c, 1, 62, 0
4, 52512, Note_on_c, 1, 64, 78
4, 52557, Note_on_c, 1, 64, 0
4, 52560, Note_on_c, 1, 66, 78
4, 52605, Note_on_c, 1, 66, 0
4, 52608, Note_on_c, 1, 67, 78
4, 52653, Note_on_c, 1, 67, 0
4, 52656, Note_on_c, 1, 64, 78
4, 52701, Note_on_c, 1, 64, 0
4, 52704, Note_on_c, 1, 66, 78
4, 52749, Note_on_c, 1, 66, 0
4, 52752, Note_on_c, 1, 54, 78
4, 52797, Note_on_c, 1, 54, 0
4, 52800, Note_on_c, 1, 59, 78
4, 52845, Note_on_c, 1, 59, 0
4, 52848, Note_on_c, 1, 35, 78
4, 52871, Note_on_c, 1, 35, 0
4, 52872, Note_on_c, 1, 47, 78
4, 52895, Note_on_c, 1, 47, 0
4, 52896, Note_on_c, 1, 37, 78
4, 52919, Note_on_c, 1, 37, 0
4, 52920, Note_on_c, 1, 49, 78
4, 52943, Note_on_c, 1, 49, 0
4, 52944, Note_on_c, 1, 38, 78
4, 52967, Note_on_c, 1, 38, 0
4, 52968, Note_on_c, 1, 50, 78
4, 52991, Note_on_c, 1, 50, 0
4, 52992, Note_on_c, 1, 40, 78
4, 53015, Note_on_c, 1, 40, 0
4, 53016, Note_on_c, 1, 52, 78
4, 53039, Note_on_c, 1, 52, 0
4, 53040, Note_on_c, 1, 38, 78
4, 53063, Note_on_c, 1, 38, 0
4, 53064, Note_on_c, 1, 50, 78
4, 53087, Note_on_c, 1, 50, 0
4, 53088, Note_on_c, 1, 40, 78
4, 53111, Note_on_c, 1, 40, 0
4, 53112, Note_on_c, 1, 52, 78
4, 53135, Note_on_c, 1, 52, 0
4, 53136, Note_on_c, 1, 42, 78
4, 53159, Note_on_c, 1, 42, 0
4, 53160, Note_on_c, 1, 54, 78
4, 53183, Note_on_c, 1, 54, 0
4, 53184, Note_on_c, 1, 43, 78
4, 53207, Note_on_c, 1, 43, 0
4, 53208, Note_on_c, 1, 55, 78
4, 53231, Note_on_c, 1, 55, 0
4, 53232, Note_on_c, 1, 52, 78
4, 53277, Note_on_c, 1, 52, 0
4, 53280, Note_on_c, 1, 54, 78
4, 53325, Note_on_c, 1, 54, 0
4, 53328, Note_on_c, 1, 42, 78
4, 53373, Note_on_c, 1, 42, 0
4, 53376, Note_on_c, 1, 47, 78
4, 53465, Note_on_c, 1, 47, 0
4, 53568, Note_on_c, 1, 47, 78
4, 53568, Note_on_c, 1, 42, 78
4, 53568, Note_on_c, 1, 38, 78
4, 53568, Note_on_c, 1, 35, 78
4, 53657, Note_on_c, 1, 47, 0
4, 53657, Note_on_c, 1, 42, 0
4, 53657, Note_on_c, 1, 38, 0
4, 53657, Note_on_c, 1, 35, 0
4, 53760, End_track
5, 0, Start_track
5, 0, Program_c, 1, 0
5, 0, Control_c, 1, 7, 127
5, 0, Control_c, 1, 10, 79
5, 4320, Note_on_c, 1, 62, 64
5, 4461, Note_on_c, 1, 62, 0
5, 4464, Note_on_c, 1, 61, 64
5, 4509, Note_on_c, 1, 61, 0
5, 4608, Note_on_c, 1, 50, 64
5, 4962, Note_on_c, 1, 50, 0
5, 4992, Note_on_c, 1, 50, 64
5, 5346, Note_on_c, 1, 50, 0
5, 5376, Note_on_c, 1, 50, 64
5, 6114, Note_on_c, 1, 50, 0
5, 6144, Note_on_c, 1, 50, 64
5, 6321, Note_on_c, 1, 50, 0
5, 15072, Note_on_c, 1, 62, 64
5, 15213, Note_on_c, 1, 62, 0
5, 15216, Note_on_c, 1, 61, 64
5, 15261, Note_on_c, 1, 61, 0
5, 15360, Note_on_c, 1, 50, 64
5, 15714, Note_on_c, 1, 50, 0
5, 15744, Note_on_c, 1, 50, 64
5, 16098, Note_on_c, 1, 50, 0
5, 16128, Note_on_c, 1, 50, 64
5, 16866, Note_on_c, 1, 50, 0
5, 16896, Note_on_c, 1, 50, 64
5, 17073, Note_on_c, 1, 50, 0
5, 31488, Note_on_c, 1, 59, 64
5, 31842, Note_on_c, 1, 59, 0
5, 31872, Note_on_c, 1, 59, 64
5, 32226, Note_on_c, 1, 59, 0
5, 32256, Note_on_c, 1, 59, 64
5, 32994, Note_on_c, 1, 59, 0
5, 33024, Note_on_c, 1, 59, 64
5, 33201, Note_on_c, 1, 59, 0
5, 34176, Note_on_c, 1, 59, 64
5, 34929, Note_on_c, 1, 59, 0
5, 47616, Note_on_c, 1, 59, 64
5, 47970, Note_on_c, 1, 59, 0
5, 48000, Note_on_c, 1, 59, 64
5, 48354, Note_on_c, 1, 59, 0
5, 48384, Note_on_c, 1, 59, 64
5, 49122, Note_on_c, 1, 59, 0
5, 49152, Note_on_c, 1, 59, 64
5, 49329, Note_on_c, 1, 59, 0
5, 50304, Note_on_c, 1, 59, 64
5, 51057, Note_on_c, 1, 59, 0
5, 53760, End_track
6, 0, Start_track
6, 0, Title_t, "Sonata VI   Haydn"
6, 0, End_track
0, 0, End_of_file
