0, 0, Header, 1, 6, 96
1, 0, Start_track
1, 0, Copyright_t, "Copyright  2000 <copyright holder>"
1, 0, Text_t, "Sonata VI\015\012"
1, 0, Text_t, "Haydn\015\012"
1, 0, Sequencer_specific, 16, 68, 87, 77, 90, 86, 82, 83, 78, 32, 54, 46, 48, 46, 57, 46, 48
1, 0, Time_signature, 3, 2, 24, 8
1, 0, Tempo, 500000
1, 0, Key_signature, 5, "major"
1, 12672, Key_signature, 2, "major"
1, 23040, Key_signature, 5, "major"
1, 36000, End_track
2, 0, Start_track
2, 0, Program_c, 0, 0
2, 0, Control_c, 0, 7, 127
2, 0, Control_c, 0, 10, 64
2, 192, Note_on_c, 0, 80, 64
2, 215, Note_on_c, 0, 80, 0
2, 216, Note_on_c, 0, 78, 64
2, 239, Note_on_c, 0, 78, 0
2, 240, Note_on_c, 0, 76, 64
2, 263, Note_on_c, 0, 76, 0
2, 264, Note_on_c, 0, 75, 64
2, 287, Note_on_c, 0, 75, 0
2, 288, Note_on_c, 0, 73, 64
2, 355, Note_on_c, 0, 73, 0
2, 360, Note_on_c, 0, 71, 64
2, 383, Note_on_c, 0, 71, 0
2, 384, Note_on_c, 0, 83, 64
2, 547, Note_on_c, 0, 83, 0
2, 552, Note_on_c, 0, 82, 64
2, 575, Note_on_c, 0, 82, 0
2, 576, Note_on_c, 0, 80, 64
2, 588, Note_on_c, 0, 80, 0
2, 588, Note_on_c, 0, 82, 64
2, 600, Note_on_c, 0, 82, 0
2, 600, Note_on_c, 0, 80, 64
2, 612, Note_on_c, 0, 80, 0
2, 612, Note_on_c, 0, 82, 64
2, 624, Note_on_c, 0, 82, 0
2, 624, Note_on_c, 0, 80, 64
2, 636, Note_on_c, 0, 80, 0
2, 636, Note_on_c, 0, 82, 64
2, 643, Note_on_c, 0, 82, 0
2, 648, Note_on_c, 0, 78, 64
2, 660, Note_on_c, 0, 78, 0
2, 660, Note_on_c, 0, 80, 64
2, 672, Note_on_c, 0, 80, 0
2, 672, Note_on_c, 0, 78, 64
2, 711, Note_on_c, 0, 78, 0
2, 768, Note_on_c, 0, 80, 64
2, 791, Note_on_c, 0, 80, 0
2, 792, Note_on_c, 0, 78, 64
2, 815, Note_on_c, 0, 78, 0
2, 816, Note_on_c, 0, 76, 64
2, 839, Note_on_c, 0, 76, 0
2, 840, Note_on_c, 0, 75, 64
2, 863, Note_on_c, 0, 75, 0
2, 864, Note_on_c, 0, 73, 64
2, 931, Note_on_c, 0, 73, 0
2, 936, Note_on_c, 0, 71, 64
2, 959, Note_on_c, 0, 71, 0
2, 960, Note_on_c, 0, 76, 64
2, 1123, Note_on_c, 0, 76, 0
2, 1128, Note_on_c, 0, 75, 64
2, 1151, Note_on_c, 0, 75, 0
2, 1152, Note_on_c, 0, 73, 64
2, 1164, Note_on_c, 0, 73, 0
2, 1164, Note_on_c, 0, 75, 64
2, 1176, Note_on_c, 0, 75, 0
2, 1176, Note_on_c, 0, 73, 64
2, 1188, Note_on_c, 0, 73, 0
2, 1188, Note_on_c, 0, 75, 64
2, 1200, Note_on_c, 0, 75, 0
2, 1200, Note_on_c, 0, 73, 64
2, 1212, Note_on_c, 0, 73, 0
2, 1212, Note_on_c, 0, 75, 64
2, 1219, Note_on_c, 0, 75, 0
2, 1224, Note_on_c, 0, 71, 64
2, 1236, Note_on_c, 0, 71, 0
2, 1236, Note_on_c, 0, 73, 64
2, 1248, Note_on_c, 0, 73, 0
2, 1248, Note_on_c, 0, 71, 64
2, 1287, Note_on_c, 0, 71, 0
2, 1344, Note_on_c, 0, 68, 64
2, 1367, Note_on_c, 0, 68, 0
2, 1368, Note_on_c, 0, 66, 64
2, 1391, Note_on_c, 0, 66, 0
2, 1392, Note_on_c, 0, 64, 64
2, 1415, Note_on_c, 0, 64, 0
2, 1416, Note_on_c, 0, 63, 64
2, 1439, Note_on_c, 0, 63, 0
2, 1440, Note_on_c, 0, 61, 64
2, 1507, Note_on_c, 0, 61, 0
2, 1512, Note_on_c, 0, 59, 64
2, 1535, Note_on_c, 0, 59, 0
2, 1536, Note_on_c, 0, 75, 64
2, 1677, Note_on_c, 0, 75, 0
2, 1680, Note_on_c, 0, 75, 64
2, 1700, Note_on_c, 0, 75, 0
2, 1728, Note_on_c, 0, 75, 64
2, 1751, Note_on_c, 0, 75, 0
2, 1752, Note_on_c, 0, 73, 64
2, 1775, Note_on_c, 0, 73, 0
2, 1776, Note_on_c, 0, 72, 64
2, 1799, Note_on_c, 0, 72, 0
2, 1800, Note_on_c, 0, 73, 64
2, 1823, Note_on_c, 0, 73, 0
2, 1824, Note_on_c, 0, 78, 64
2, 1844, Note_on_c, 0, 78, 0
2, 1872, Note_on_c, 0, 78, 64
2, 1892, Note_on_c, 0, 78, 0
2, 1968, Note_on_c, 0, 75, 64
2, 2013, Note_on_c, 0, 75, 0
2, 2016, Note_on_c, 0, 75, 64
2, 2039, Note_on_c, 0, 75, 0
2, 2040, Note_on_c, 0, 73, 64
2, 2063, Note_on_c, 0, 73, 0
2, 2064, Note_on_c, 0, 72, 64
2, 2087, Note_on_c, 0, 72, 0
2, 2088, Note_on_c, 0, 73, 64
2, 2111, Note_on_c, 0, 73, 0
2, 2112, Note_on_c, 0, 78, 64
2, 2132, Note_on_c, 0, 78, 0
2, 2160, Note_on_c, 0, 78, 64
2, 2180, Note_on_c, 0, 78, 0
2, 2256, Note_on_c, 0, 75, 64
2, 2301, Note_on_c, 0, 75, 0
2, 2304, Note_on_c, 0, 75, 64
2, 2327, Note_on_c, 0, 75, 0
2, 2328, Note_on_c, 0, 73, 64
2, 2351, Note_on_c, 0, 73, 0
2, 2352, Note_on_c, 0, 72, 64
2, 2375, Note_on_c, 0, 72, 0
2, 2376, Note_on_c, 0, 73, 64
2, 2399, Note_on_c, 0, 73, 0
2, 2400, Note_on_c, 0, 75, 64
2, 2423, Note_on_c, 0, 75, 0
2, 2424, Note_on_c, 0, 77, 64
2, 2447, Note_on_c, 0, 77, 0
2, 2448, Note_on_c, 0, 78, 64
2, 2471, Note_on_c, 0, 78, 0
2, 2472, Note_on_c, 0, 80, 64
2, 2495, Note_on_c, 0, 80, 0
2, 2496, Note_on_c, 0, 82, 64
2, 2519, Note_on_c, 0, 82, 0
2, 2520, Note_on_c, 0, 78, 64
2, 2543, Note_on_c, 0, 78, 0
2, 2544, Note_on_c, 0, 77, 64
2, 2567, Note_on_c, 0, 77, 0
2, 2568, Note_on_c, 0, 78, 64
2, 2591, Note_on_c, 0, 78, 0
2, 2592, Note_on_c, 0, 77, 64
2, 2615, Note_on_c, 0, 77, 0
2, 2616, Note_on_c, 0, 75, 64
2, 2639, Note_on_c, 0, 75, 0
2, 2640, Note_on_c, 0, 73, 64
2, 2663, Note_on_c, 0, 73, 0
2, 2664, Note_on_c, 0, 71, 64
2, 2687, Note_on_c, 0, 71, 0
2, 2688, Note_on_c, 0, 70, 64
2, 2777, Note_on_c, 0, 70, 0
2, 2784, Note_on_c, 0, 68, 64
2, 2796, Note_on_c, 0, 68, 0
2, 2796, Note_on_c, 0, 70, 64
2, 2808, Note_on_c, 0, 70, 0
2, 2808, Note_on_c, 0, 68, 64
2, 2820, Note_on_c, 0, 68, 0
2, 2820, Note_on_c, 0, 70, 64
2, 2832, Note_on_c, 0, 70, 0
2, 2832, Note_on_c, 0, 68, 64
2, 2844, Note_on_c, 0, 68, 0
2, 2844, Note_on_c, 0, 70, 64
2, 2851, Note_on_c, 0, 70, 0
2, 2856, Note_on_c, 0, 66, 64
2, 2868, Note_on_c, 0, 66, 0
2, 2868, Note_on_c, 0, 68, 64
2, 2880, Note_on_c, 0, 68, 0
2, 2880, Note_on_c, 0, 66, 64
2, 3057, Note_on_c, 0, 66, 0
2, 3072, Note_on_c, 0, 80, 64
2, 3095, Note_on_c, 0, 80, 0
2, 3096, Note_on_c, 0, 78, 64
2, 3119, Note_on_c, 0, 78, 0
2, 3120, Note_on_c, 0, 76, 64
2, 3143, Note_on_c, 0, 76, 0
2, 3144, Note_on_c, 0, 75, 64
2, 3167, Note_on_c, 0, 75, 0
2, 3168, Note_on_c, 0, 73, 64
2, 3235, Note_on_c, 0, 73, 0
2, 3240, Note_on_c, 0, 71, 64
2, 3263, Note_on_c, 0, 71, 0
2, 3264, Note_on_c, 0, 83, 64
2, 3427, Note_on_c, 0, 83, 0
2, 3432, Note_on_c, 0, 82, 64
2, 3455, Note_on_c, 0, 82, 0
2, 3456, Note_on_c, 0, 80, 64
2, 3468, Note_on_c, 0, 80, 0
2, 3468, Note_on_c, 0, 82, 64
2, 3480, Note_on_c, 0, 82, 0
2, 3480, Note_on_c, 0, 80, 64
2, 3492, Note_on_c, 0, 80, 0
2, 3492, Note_on_c, 0, 82, 64
2, 3504, Note_on_c, 0, 82, 0
2, 3504, Note_on_c, 0, 80, 64
2, 3516, Note_on_c, 0, 80, 0
2, 3516, Note_on_c, 0, 82, 64
2, 3523, Note_on_c, 0, 82, 0
2, 3528, Note_on_c, 0, 78, 64
2, 3540, Note_on_c, 0, 78, 0
2, 3540, Note_on_c, 0, 80, 64
2, 3552, Note_on_c, 0, 80, 0
2, 3552, Note_on_c, 0, 78, 64
2, 3591, Note_on_c, 0, 78, 0
2, 3648, Note_on_c, 0, 80, 64
2, 3671, Note_on_c, 0, 80, 0
2, 3672, Note_on_c, 0, 78, 64
2, 3695, Note_on_c, 0, 78, 0
2, 3696, Note_on_c, 0, 76, 64
2, 3719, Note_on_c, 0, 76, 0
2, 3720, Note_on_c, 0, 75, 64
2, 3743, Note_on_c, 0, 75, 0
2, 3744, Note_on_c, 0, 73, 64
2, 3811, Note_on_c, 0, 73, 0
2, 3816, Note_on_c, 0, 71, 64
2, 3839, Note_on_c, 0, 71, 0
2, 3840, Note_on_c, 0, 76, 64
2, 4003, Note_on_c, 0, 76, 0
2, 4008, Note_on_c, 0, 75, 64
2, 4031, Note_on_c, 0, 75, 0
2, 4032, Note_on_c, 0, 73, 64
2, 4044, Note_on_c, 0, 73, 0
2, 4044, Note_on_c, 0, 75, 64
2, 4056, Note_on_c, 0, 75, 0
2, 4056, Note_on_c, 0, 73, 64
2, 4068, Note_on_c, 0, 73, 0
2, 4068, Note_on_c, 0, 75, 64
2, 4080, Note_on_c, 0, 75, 0
2, 4080, Note_on_c, 0, 73, 64
2, 4092, Note_on_c, 0, 73, 0
2, 4092, Note_on_c, 0, 75, 64
2, 4099, Note_on_c, 0, 75, 0
2, 4104, Note_on_c, 0, 71, 64
2, 4116, Note_on_c, 0, 71, 0
2, 4116, Note_on_c, 0, 73, 64
2, 4128, Note_on_c, 0, 73, 0
2, 4128, Note_on_c, 0, 71, 64
2, 4167, Note_on_c, 0, 71, 0
2, 4224, Note_on_c, 0, 68, 64
2, 4247, Note_on_c, 0, 68, 0
2, 4248, Note_on_c, 0, 66, 64
2, 4271, Note_on_c, 0, 66, 0
2, 4272, Note_on_c, 0, 64, 64
2, 4295, Note_on_c, 0, 64, 0
2, 4296, Note_on_c, 0, 63, 64
2, 4319, Note_on_c, 0, 63, 0
2, 4320, Note_on_c, 0, 61, 64
2, 4387, Note_on_c, 0, 61, 0
2, 4392, Note_on_c, 0, 59, 64
2, 4415, Note_on_c, 0, 59, 0
2, 4416, Note_on_c, 0, 75, 64
2, 4557, Note_on_c, 0, 75, 0
2, 4560, Note_on_c, 0, 75, 64
2, 4580, Note_on_c, 0, 75, 0
2, 4608, Note_on_c, 0, 75, 64
2, 4631, Note_on_c, 0, 75, 0
2, 4632, Note_on_c, 0, 73, 64
2, 4655, Note_on_c, 0, 73, 0
2, 4656, Note_on_c, 0, 72, 64
2, 4679, Note_on_c, 0, 72, 0
2, 4680, Note_on_c, 0, 73, 64
2, 4703, Note_on_c, 0, 73, 0
2, 4704, Note_on_c, 0, 78, 64
2, 4724, Note_on_c, 0, 78, 0
2, 4752, Note_on_c, 0, 78, 64
2, 4772, Note_on_c, 0, 78, 0
2, 4848, Note_on_c, 0, 75, 64
2, 4893, Note_on_c, 0, 75, 0
2, 4896, Note_on_c, 0, 75, 64
2, 4919, Note_on_c, 0, 75, 0
2, 4920, Note_on_c, 0, 73, 64
2, 4943, Note_on_c, 0, 73, 0
2, 4944, Note_on_c, 0, 72, 64
2, 4967, Note_on_c, 0, 72, 0
2, 4968, Note_on_c, 0, 73, 64
2, 4991, Note_on_c, 0, 73, 0
2, 4992, Note_on_c, 0, 78, 64
2, 5012, Note_on_c, 0, 78, 0
2, 5040, Note_on_c, 0, 78, 64
2, 5060, Note_on_c, 0, 78, 0
2, 5136, Note_on_c, 0, 75, 64
2, 5181, Note_on_c, 0, 75, 0
2, 5184, Note_on_c, 0, 75, 64
2, 5207, Note_on_c, 0, 75, 0
2, 5208, Note_on_c, 0, 73, 64
2, 5231, Note_on_c, 0, 73, 0
2, 5232, Note_on_c, 0, 72, 64
2, 5255, Note_on_c, 0, 72, 0
2, 5256, Note_on_c, 0, 73, 64
2, 5279, Note_on_c, 0, 73, 0
2, 5280, Note_on_c, 0, 75, 64
2, 5303, Note_on_c, 0, 75, 0
2, 5304, Note_on_c, 0, 77, 64
2, 5327, Note_on_c, 0, 77, 0
2, 5328, Note_on_c, 0, 78, 64
2, 5351, Note_on_c, 0, 78, 0
2, 5352, Note_on_c, 0, 80, 64
2, 5375, Note_on_c, 0, 80, 0
2, 5376, Note_on_c, 0, 82, 64
2, 5399, Note_on_c, 0, 82, 0
2, 5400, Note_on_c, 0, 78, 64
2, 5423, Note_on_c, 0, 78, 0
2, 5424, Note_on_c, 0, 77, 64
2, 5447, Note_on_c, 0, 77, 0
2, 5448, Note_on_c, 0, 78, 64
2, 5471, Note_on_c, 0, 78, 0
2, 5472, Note_on_c, 0, 77, 64
2, 5495, Note_on_c, 0, 77, 0
2, 5496, Note_on_c, 0, 75, 64
2, 5519, Note_on_c, 0, 75, 0
2, 5520, Note_on_c, 0, 73, 64
2, 5543, Note_on_c, 0, 73, 0
2, 5544, Note_on_c, 0, 71, 64
2, 5567, Note_on_c, 0, 71, 0
2, 5568, Note_on_c, 0, 70, 64
2, 5657, Note_on_c, 0, 70, 0
2, 5664, Note_on_c, 0, 68, 64
2, 5676, Note_on_c, 0, 68, 0
2, 5676, Note_on_c, 0, 70, 64
2, 5688, Note_on_c, 0, 70, 0
2, 5688, Note_on_c, 0, 68, 64
2, 5700, Note_on_c, 0, 68, 0
2, 5700, Note_on_c, 0, 70, 64
2, 5712, Note_on_c, 0, 70, 0
2, 5712, Note_on_c, 0, 68, 64
2, 5724, Note_on_c, 0, 68, 0
2, 5724, Note_on_c, 0, 70, 64
2, 5731, Note_on_c, 0, 70, 0
2, 5736, Note_on_c, 0, 66, 64
2, 5748, Note_on_c, 0, 66, 0
2, 5748, Note_on_c, 0, 68, 64
2, 5760, Note_on_c, 0, 68, 0
2, 5760, Note_on_c, 0, 66, 64
2, 5937, Note_on_c, 0, 66, 0
2, 5952, Note_on_c, 0, 68, 64
2, 5975, Note_on_c, 0, 68, 0
2, 5976, Note_on_c, 0, 66, 64
2, 5999, Note_on_c, 0, 66, 0
2, 6000, Note_on_c, 0, 64, 64
2, 6023, Note_on_c, 0, 64, 0
2, 6024, Note_on_c, 0, 63, 64
2, 6047, Note_on_c, 0, 63, 0
2, 6048, Note_on_c, 0, 61, 64
2, 6115, Note_on_c, 0, 61, 0
2, 6120, Note_on_c, 0, 60, 64
2, 6143, Note_on_c, 0, 60, 0
2, 6144, Note_on_c, 0, 69, 64
2, 6285, Note_on_c, 0, 69, 0
2, 6288, Note_on_c, 0, 60, 64
2, 6333, Note_on_c, 0, 60, 0
2, 6336, Note_on_c, 0, 61, 64
2, 6381, Note_on_c, 0, 61, 0
2, 6384, Note_on_c, 0, 64, 64
2, 6429, Note_on_c, 0, 64, 0
2, 6432, Note_on_c, 0, 68, 64
2, 6477, Note_on_c, 0, 68, 0
2, 6480, Note_on_c, 0, 73, 64
2, 6525, Note_on_c, 0, 73, 0
2, 6528, Note_on_c, 0, 78, 64
2, 6551, Note_on_c, 0, 78, 0
2, 6552, Note_on_c, 0, 76, 64
2, 6575, Note_on_c, 0, 76, 0
2, 6576, Note_on_c, 0, 75, 64
2, 6599, Note_on_c, 0, 75, 0
2, 6600, Note_on_c, 0, 73, 64
2, 6623, Note_on_c, 0, 73, 0
2, 6624, Note_on_c, 0, 71, 64
2, 6691, Note_on_c, 0, 71, 0
2, 6696, Note_on_c, 0, 70, 64
2, 6719, Note_on_c, 0, 70, 0
2, 6720, Note_on_c, 0, 80, 64
2, 6861, Note_on_c, 0, 80, 0
2, 6864, Note_on_c, 0, 70, 64
2, 6909, Note_on_c, 0, 70, 0
2, 6912, Note_on_c, 0, 71, 64
2, 6935, Note_on_c, 0, 71, 0
2, 6936, Note_on_c, 0, 73, 64
2, 6959, Note_on_c, 0, 73, 0
2, 6960, Note_on_c, 0, 75, 64
2, 6983, Note_on_c, 0, 75, 0
2, 6984, Note_on_c, 0, 76, 64
2, 7007, Note_on_c, 0, 76, 0
2, 7008, Note_on_c, 0, 78, 64
2, 7031, Note_on_c, 0, 78, 0
2, 7032, Note_on_c, 0, 80, 64
2, 7055, Note_on_c, 0, 80, 0
2, 7056, Note_on_c, 0, 82, 64
2, 7079, Note_on_c, 0, 82, 0
2, 7080, Note_on_c, 0, 83, 64
2, 7103, Note_on_c, 0, 83, 0
2, 7104, Note_on_c, 0, 82, 64
2, 7127, Note_on_c, 0, 82, 0
2, 7128, Note_on_c, 0, 83, 64
2, 7151, Note_on_c, 0, 83, 0
2, 7152, Note_on_c, 0, 82, 64
2, 7175, Note_on_c, 0, 82, 0
2, 7176, Note_on_c, 0, 83, 64
2, 7199, Note_on_c, 0, 83, 0
2, 7200, Note_on_c, 0, 82, 64
2, 7223, Note_on_c, 0, 82, 0
2, 7224, Note_on_c, 0, 80, 64
2, 7247, Note_on_c, 0, 80, 0
2, 7248, Note_on_c, 0, 78, 64
2, 7271, Note_on_c, 0, 78, 0
2, 7272, Note_on_c, 0, 80, 64
2, 7295, Note_on_c, 0, 80, 0
2, 7296, Note_on_c, 0, 78, 64
2, 7319, Note_on_c, 0, 78, 0
2, 7320, Note_on_c, 0, 76, 64
2, 7343, Note_on_c, 0, 76, 0
2, 7344, Note_on_c, 0, 75, 64
2, 7367, Note_on_c, 0, 75, 0
2, 7368, Note_on_c, 0, 76, 64
2, 7391, Note_on_c, 0, 76, 0
2, 7392, Note_on_c, 0, 75, 64
2, 7415, Note_on_c, 0, 75, 0
2, 7416, Note_on_c, 0, 73, 64
2, 7439, Note_on_c, 0, 73, 0
2, 7440, Note_on_c, 0, 72, 64
2, 7463, Note_on_c, 0, 72, 0
2, 7464, Note_on_c, 0, 73, 64
2, 7487, Note_on_c, 0, 73, 0
2, 7488, Note_on_c, 0, 71, 64
2, 7584, Note_on_c, 0, 71, 0
2, 7584, Note_on_c, 0, 70, 64
2, 7673, Note_on_c, 0, 70, 0
2, 7680, Note_on_c, 0, 66, 64
2, 7703, Note_on_c, 0, 66, 0
2, 7704, Note_on_c, 0, 64, 64
2, 7727, Note_on_c, 0, 64, 0
2, 7728, Note_on_c, 0, 63, 64
2, 7751, Note_on_c, 0, 63, 0
2, 7752, Note_on_c, 0, 61, 64
2, 7775, Note_on_c, 0, 61, 0
2, 7776, Note_on_c, 0, 59, 64
2, 7843, Note_on_c, 0, 59, 0
2, 7848, Note_on_c, 0, 58, 64
2, 7871, Note_on_c, 0, 58, 0
2, 7872, Note_on_c, 0, 80, 64
2, 8013, Note_on_c, 0, 80, 0
2, 8016, Note_on_c, 0, 80, 64
2, 8036, Note_on_c, 0, 80, 0
2, 8064, Note_on_c, 0, 80, 64
2, 8087, Note_on_c, 0, 80, 0
2, 8088, Note_on_c, 0, 78, 64
2, 8111, Note_on_c, 0, 78, 0
2, 8112, Note_on_c, 0, 77, 64
2, 8135, Note_on_c, 0, 77, 0
2, 8136, Note_on_c, 0, 78, 64
2, 8159, Note_on_c, 0, 78, 0
2, 8160, Note_on_c, 0, 83, 64
2, 8180, Note_on_c, 0, 83, 0
2, 8208, Note_on_c, 0, 83, 64
2, 8228, Note_on_c, 0, 83, 0
2, 8304, Note_on_c, 0, 80, 64
2, 8349, Note_on_c, 0, 80, 0
2, 8352, Note_on_c, 0, 80, 64
2, 8375, Note_on_c, 0, 80, 0
2, 8376, Note_on_c, 0, 78, 64
2, 8399, Note_on_c, 0, 78, 0
2, 8400, Note_on_c, 0, 77, 64
2, 8423, Note_on_c, 0, 77, 0
2, 8424, Note_on_c, 0, 78, 64
2, 8447, Note_on_c, 0, 78, 0
2, 8448, Note_on_c, 0, 83, 64
2, 8468, Note_on_c, 0, 83, 0
2, 8496, Note_on_c, 0, 83, 64
2, 8516, Note_on_c, 0, 83, 0
2, 8592, Note_on_c, 0, 80, 64
2, 8637, Note_on_c, 0, 80, 0
2, 8640, Note_on_c, 0, 80, 64
2, 8663, Note_on_c, 0, 80, 0
2, 8664, Note_on_c, 0, 78, 64
2, 8687, Note_on_c, 0, 78, 0
2, 8688, Note_on_c, 0, 77, 64
2, 8711, Note_on_c, 0, 77, 0
2, 8712, Note_on_c, 0, 78, 64
2, 8735, Note_on_c, 0, 78, 0
2, 8736, Note_on_c, 0, 83, 64
2, 8759, Note_on_c, 0, 83, 0
2, 8760, Note_on_c, 0, 82, 64
2, 8783, Note_on_c, 0, 82, 0
2, 8784, Note_on_c, 0, 80, 64
2, 8807, Note_on_c, 0, 80, 0
2, 8808, Note_on_c, 0, 78, 64
2, 8831, Note_on_c, 0, 78, 0
2, 8832, Note_on_c, 0, 76, 64
2, 8855, Note_on_c, 0, 76, 0
2, 8856, Note_on_c, 0, 75, 64
2, 8879, Note_on_c, 0, 75, 0
2, 8880, Note_on_c, 0, 73, 64
2, 8903, Note_on_c, 0, 73, 0
2, 8904, Note_on_c, 0, 71, 64
2, 8927, Note_on_c, 0, 71, 0
2, 8928, Note_on_c, 0, 75, 64
2, 8951, Note_on_c, 0, 75, 0
2, 8952, Note_on_c, 0, 73, 64
2, 8975, Note_on_c, 0, 73, 0
2, 8976, Note_on_c, 0, 76, 64
2, 8999, Note_on_c, 0, 76, 0
2, 9000, Note_on_c, 0, 73, 64
2, 9023, Note_on_c, 0, 73, 0
2, 9024, Note_on_c, 0, 71, 64
2, 9113, Note_on_c, 0, 71, 0
2, 9120, Note_on_c, 0, 70, 64
2, 9132, Note_on_c, 0, 70, 0
2, 9132, Note_on_c, 0, 71, 64
2, 9144, Note_on_c, 0, 71, 0
2, 9144, Note_on_c, 0, 70, 64
2, 9156, Note_on_c, 0, 70, 0
2, 9156, Note_on_c, 0, 71, 64
2, 9168, Note_on_c, 0, 71, 0
2, 9168, Note_on_c, 0, 70, 64
2, 9180, Note_on_c, 0, 70, 0
2, 9180, Note_on_c, 0, 71, 64
2, 9187, Note_on_c, 0, 71, 0
2, 9192, Note_on_c, 0, 68, 64
2, 9204, Note_on_c, 0, 68, 0
2, 9204, Note_on_c, 0, 70, 64
2, 9216, Note_on_c, 0, 70, 0
2, 9216, Note_on_c, 0, 71, 64
2, 9393, Note_on_c, 0, 71, 0
2, 9408, Note_on_c, 0, 68, 64
2, 9431, Note_on_c, 0, 68, 0
2, 9432, Note_on_c, 0, 66, 64
2, 9455, Note_on_c, 0, 66, 0
2, 9456, Note_on_c, 0, 64, 64
2, 9479, Note_on_c, 0, 64, 0
2, 9480, Note_on_c, 0, 63, 64
2, 9503, Note_on_c, 0, 63, 0
2, 9504, Note_on_c, 0, 61, 64
2, 9571, Note_on_c, 0, 61, 0
2, 9576, Note_on_c, 0, 60, 64
2, 9599, Note_on_c, 0, 60, 0
2, 9600, Note_on_c, 0, 69, 64
2, 9741, Note_on_c, 0, 69, 0
2, 9744, Note_on_c, 0, 60, 64
2, 9789, Note_on_c, 0, 60, 0
2, 9792, Note_on_c, 0, 61, 64
2, 9837, Note_on_c, 0, 61, 0
2, 9840, Note_on_c, 0, 64, 64
2, 9885, Note_on_c, 0, 64, 0
2, 9888, Note_on_c, 0, 68, 64
2, 9933, Note_on_c, 0, 68, 0
2, 9936, Note_on_c, 0, 73, 64
2, 9981, Note_on_c, 0, 73, 0
2, 9984, Note_on_c, 0, 78, 64
2, 10007, Note_on_c, 0, 78, 0
2, 10008, Note_on_c, 0, 76, 64
2, 10031, Note_on_c, 0, 76, 0
2, 10032, Note_on_c, 0, 75, 64
2, 10055, Note_on_c, 0, 75, 0
2, 10056, Note_on_c, 0, 73, 64
2, 10079, Note_on_c, 0, 73, 0
2, 10080, Note_on_c, 0, 71, 64
2, 10147, Note_on_c, 0, 71, 0
2, 10152, Note_on_c, 0, 70, 64
2, 10175, Note_on_c, 0, 70, 0
2, 10176, Note_on_c, 0, 80, 64
2, 10317, Note_on_c, 0, 80, 0
2, 10320, Note_on_c, 0, 70, 64
2, 10365, Note_on_c, 0, 70, 0
2, 10368, Note_on_c, 0, 71, 64
2, 10391, Note_on_c, 0, 71, 0
2, 10392, Note_on_c, 0, 73, 64
2, 10415, Note_on_c, 0, 73, 0
2, 10416, Note_on_c, 0, 75, 64
2, 10439, Note_on_c, 0, 75, 0
2, 10440, Note_on_c, 0, 76, 64
2, 10463, Note_on_c, 0, 76, 0
2, 10464, Note_on_c, 0, 78, 64
2, 10487, Note_on_c, 0, 78, 0
2, 10488, Note_on_c, 0, 80, 64
2, 10511, Note_on_c, 0, 80, 0
2, 10512, Note_on_c, 0, 82, 64
2, 10535, Note_on_c, 0, 82, 0
2, 10536, Note_on_c, 0, 83, 64
2, 10559, Note_on_c, 0, 83, 0
2, 10560, Note_on_c, 0, 82, 64
2, 10583, Note_on_c, 0, 82, 0
2, 10584, Note_on_c, 0, 83, 64
2, 10607, Note_on_c, 0, 83, 0
2, 10608, Note_on_c, 0, 82, 64
2, 10631, Note_on_c, 0, 82, 0
2, 10632, Note_on_c, 0, 83, 64
2, 10655, Note_on_c, 0, 83, 0
2, 10656, Note_on_c, 0, 82, 64
2, 10679, Note_on_c, 0, 82, 0
2, 10680, Note_on_c, 0, 80, 64
2, 10703, Note_on_c, 0, 80, 0
2, 10704, Note_on_c, 0, 78, 64
2, 10727, Note_on_c, 0, 78, 0
2, 10728, Note_on_c, 0, 80, 64
2, 10751, Note_on_c, 0, 80, 0
2, 10752, Note_on_c, 0, 78, 64
2, 10775, Note_on_c, 0, 78, 0
2, 10776, Note_on_c, 0, 76, 64
2, 10799, Note_on_c, 0, 76, 0
2, 10800, Note_on_c, 0, 75, 64
2, 10823, Note_on_c, 0, 75, 0
2, 10824, Note_on_c, 0, 76, 64
2, 10847, Note_on_c, 0, 76, 0
2, 10848, Note_on_c, 0, 75, 64
2, 10871, Note_on_c, 0, 75, 0
2, 10872, Note_on_c, 0, 73, 64
2, 10895, Note_on_c, 0, 73, 0
2, 10896, Note_on_c, 0, 72, 64
2, 10919, Note_on_c, 0, 72, 0
2, 10920, Note_on_c, 0, 73, 64
2, 10943, Note_on_c, 0, 73, 0
2, 10944, Note_on_c, 0, 71, 64
2, 11040, Note_on_c, 0, 71, 0
2, 11040, Note_on_c, 0, 70, 64
2, 11129, Note_on_c, 0, 70, 0
2, 11136, Note_on_c, 0, 66, 64
2, 11159, Note_on_c, 0, 66, 0
2, 11160, Note_on_c, 0, 64, 64
2, 11183, Note_on_c, 0, 64, 0
2, 11184, Note_on_c, 0, 63, 64
2, 11207, Note_on_c, 0, 63, 0
2, 11208, Note_on_c, 0, 61, 64
2, 11231, Note_on_c, 0, 61, 0
2, 11232, Note_on_c, 0, 59, 64
2, 11299, Note_on_c, 0, 59, 0
2, 11304, Note_on_c, 0, 58, 64
2, 11327, Note_on_c, 0, 58, 0
2, 11328, Note_on_c, 0, 80, 64
2, 11469, Note_on_c, 0, 80, 0
2, 11472, Note_on_c, 0, 80, 64
2, 11492, Note_on_c, 0, 80, 0
2, 11520, Note_on_c, 0, 80, 64
2, 11543, Note_on_c, 0, 80, 0
2, 11544, Note_on_c, 0, 78, 64
2, 11567, Note_on_c, 0, 78, 0
2, 11568, Note_on_c, 0, 77, 64
2, 11591, Note_on_c, 0, 77, 0
2, 11592, Note_on_c, 0, 78, 64
2, 11615, Note_on_c, 0, 78, 0
2, 11616, Note_on_c, 0, 83, 64
2, 11636, Note_on_c, 0, 83, 0
2, 11664, Note_on_c, 0, 83, 64
2, 11684, Note_on_c, 0, 83, 0
2, 11760, Note_on_c, 0, 80, 64
2, 11805, Note_on_c, 0, 80, 0
2, 11808, Note_on_c, 0, 80, 64
2, 11831, Note_on_c, 0, 80, 0
2, 11832, Note_on_c, 0, 78, 64
2, 11855, Note_on_c, 0, 78, 0
2, 11856, Note_on_c, 0, 77, 64
2, 11879, Note_on_c, 0, 77, 0
2, 11880, Note_on_c, 0, 78, 64
2, 11903, Note_on_c, 0, 78, 0
2, 11904, Note_on_c, 0, 83, 64
2, 11924, Note_on_c, 0, 83, 0
2, 11952, Note_on_c, 0, 83, 64
2, 11972, Note_on_c, 0, 83, 0
2, 12048, Note_on_c, 0, 80, 64
2, 12093, Note_on_c, 0, 80, 0
2, 12096, Note_on_c, 0, 80, 64
2, 12119, Note_on_c, 0, 80, 0
2, 12120, Note_on_c, 0, 78, 64
2, 12143, Note_on_c, 0, 78, 0
2, 12144, Note_on_c, 0, 77, 64
2, 12167, Note_on_c, 0, 77, 0
2, 12168, Note_on_c, 0, 78, 64
2, 12191, Note_on_c, 0, 78, 0
2, 12192, Note_on_c, 0, 83, 64
2, 12215, Note_on_c, 0, 83, 0
2, 12216, Note_on_c, 0, 82, 64
2, 12239, Note_on_c, 0, 82, 0
2, 12240, Note_on_c, 0, 80, 64
2, 12263, Note_on_c, 0, 80, 0
2, 12264, Note_on_c, 0, 78, 64
2, 12287, Note_on_c, 0, 78, 0
2, 12288, Note_on_c, 0, 76, 64
2, 12311, Note_on_c, 0, 76, 0
2, 12312, Note_on_c, 0, 75, 64
2, 12335, Note_on_c, 0, 75, 0
2, 12336, Note_on_c, 0, 73, 64
2, 12359, Note_on_c, 0, 73, 0
2, 12360, Note_on_c, 0, 71, 64
2, 12383, Note_on_c, 0, 71, 0
2, 12384, Note_on_c, 0, 75, 64
2, 12407, Note_on_c, 0, 75, 0
2, 12408, Note_on_c, 0, 73, 64
2, 12431, Note_on_c, 0, 73, 0
2, 12432, Note_on_c, 0, 76, 64
2, 12455, Note_on_c, 0, 76, 0
2, 12456, Note_on_c, 0, 73, 64
2, 12479, Note_on_c, 0, 73, 0
2, 12480, Note_on_c, 0, 71, 64
2, 12569, Note_on_c, 0, 71, 0
2, 12576, Note_on_c, 0, 70, 64
2, 12588, Note_on_c, 0, 70, 0
2, 12588, Note_on_c, 0, 71, 64
2, 12600, Note_on_c, 0, 71, 0
2, 12600, Note_on_c, 0, 70, 64
2, 12612, Note_on_c, 0, 70, 0
2, 12612, Note_on_c, 0, 71, 64
2, 12624, Note_on_c, 0, 71, 0
2, 12624, Note_on_c, 0, 70, 64
2, 12636, Note_on_c, 0, 70, 0
2, 12636, Note_on_c, 0, 71, 64
2, 12643, Note_on_c, 0, 71, 0
2, 12648, Note_on_c, 0, 68, 64
2, 12660, Note_on_c, 0, 68, 0
2, 12660, Note_on_c, 0, 70, 64
2, 12672, Note_on_c, 0, 70, 0
2, 12672, Note_on_c, 0, 71, 64
2, 12849, Note_on_c, 0, 71, 0
2, 12864, Note_on_c, 0, 59, 64
2, 12953, Note_on_c, 0, 59, 0
2, 13536, Note_on_c, 0, 62, 64
2, 13556, Note_on_c, 0, 62, 0
2, 13584, Note_on_c, 0, 58, 64
2, 13604, Note_on_c, 0, 58, 0
2, 13632, Note_on_c, 0, 59, 64
2, 13652, Note_on_c, 0, 59, 0
2, 13680, Note_on_c, 0, 61, 64
2, 13700, Note_on_c, 0, 61, 0
2, 13728, Note_on_c, 0, 62, 64
2, 13748, Note_on_c, 0, 62, 0
2, 13776, Note_on_c, 0, 64, 64
2, 13796, Note_on_c, 0, 64, 0
2, 13824, Note_on_c, 0, 66, 64
2, 13844, Note_on_c, 0, 66, 0
2, 13872, Note_on_c, 0, 64, 64
2, 13892, Note_on_c, 0, 64, 0
2, 13920, Note_on_c, 0, 66, 64
2, 13940, Note_on_c, 0, 66, 0
2, 13968, Note_on_c, 0, 62, 64
2, 13988, Note_on_c, 0, 62, 0
2, 14016, Note_on_c, 0, 64, 64
2, 14036, Note_on_c, 0, 64, 0
2, 14064, Note_on_c, 0, 66, 64
2, 14084, Note_on_c, 0, 66, 0
2, 14112, Note_on_c, 0, 67, 64
2, 14135, Note_on_c, 0, 67, 0
2, 14136, Note_on_c, 0, 59, 64
2, 14159, Note_on_c, 0, 59, 0
2, 14160, Note_on_c, 0, 61, 64
2, 14183, Note_on_c, 0, 61, 0
2, 14184, Note_on_c, 0, 59, 64
2, 14207, Note_on_c, 0, 59, 0
2, 14208, Note_on_c, 0, 67, 64
2, 14231, Note_on_c, 0, 67, 0
2, 14232, Note_on_c, 0, 55, 64
2, 14255, Note_on_c, 0, 55, 0
2, 14256, Note_on_c, 0, 66, 64
2, 14279, Note_on_c, 0, 66, 0
2, 14280, Note_on_c, 0, 55, 64
2, 14303, Note_on_c, 0, 55, 0
2, 14304, Note_on_c, 0, 64, 64
2, 14327, Note_on_c, 0, 64, 0
2, 14328, Note_on_c, 0, 55, 64
2, 14351, Note_on_c, 0, 55, 0
2, 14352, Note_on_c, 0, 62, 64
2, 14375, Note_on_c, 0, 62, 0
2, 14376, Note_on_c, 0, 55, 64
2, 14399, Note_on_c, 0, 55, 0
2, 14400, Note_on_c, 0, 61, 64
2, 14423, Note_on_c, 0, 61, 0
2, 14424, Note_on_c, 0, 55, 64
2, 14447, Note_on_c, 0, 55, 0
2, 14448, Note_on_c, 0, 62, 64
2, 14471, Note_on_c, 0, 62, 0
2, 14472, Note_on_c, 0, 55, 64
2, 14495, Note_on_c, 0, 55, 0
2, 14496, Note_on_c, 0, 64, 64
2, 14519, Note_on_c, 0, 64, 0
2, 14520, Note_on_c, 0, 55, 64
2, 14543, Note_on_c, 0, 55, 0
2, 14544, Note_on_c, 0, 62, 64
2, 14567, Note_on_c, 0, 62, 0
2, 14568, Note_on_c, 0, 55, 64
2, 14591, Note_on_c, 0, 55, 0
2, 14592, Note_on_c, 0, 64, 64
2, 14615, Note_on_c, 0, 64, 0
2, 14616, Note_on_c, 0, 55, 64
2, 14639, Note_on_c, 0, 55, 0
2, 14640, Note_on_c, 0, 61, 64
2, 14663, Note_on_c, 0, 61, 0
2, 14664, Note_on_c, 0, 55, 64
2, 14687, Note_on_c, 0, 55, 0
2, 15168, Note_on_c, 0, 59, 64
2, 15257, Note_on_c, 0, 59, 0
2, 15840, Note_on_c, 0, 62, 64
2, 15860, Note_on_c, 0, 62, 0
2, 15888, Note_on_c, 0, 58, 64
2, 15908, Note_on_c, 0, 58, 0
2, 15936, Note_on_c, 0, 59, 64
2, 15956, Note_on_c, 0, 59, 0
2, 15984, Note_on_c, 0, 61, 64
2, 16004, Note_on_c, 0, 61, 0
2, 16032, Note_on_c, 0, 62, 64
2, 16052, Note_on_c, 0, 62, 0
2, 16080, Note_on_c, 0, 64, 64
2, 16100, Note_on_c, 0, 64, 0
2, 16128, Note_on_c, 0, 66, 64
2, 16148, Note_on_c, 0, 66, 0
2, 16176, Note_on_c, 0, 64, 64
2, 16196, Note_on_c, 0, 64, 0
2, 16224, Note_on_c, 0, 66, 64
2, 16244, Note_on_c, 0, 66, 0
2, 16272, Note_on_c, 0, 62, 64
2, 16292, Note_on_c, 0, 62, 0
2, 16320, Note_on_c, 0, 64, 64
2, 16340, Note_on_c, 0, 64, 0
2, 16368, Note_on_c, 0, 66, 64
2, 16388, Note_on_c, 0, 66, 0
2, 16416, Note_on_c, 0, 67, 64
2, 16439, Note_on_c, 0, 67, 0
2, 16440, Note_on_c, 0, 59, 64
2, 16463, Note_on_c, 0, 59, 0
2, 16464, Note_on_c, 0, 61, 64
2, 16487, Note_on_c, 0, 61, 0
2, 16488, Note_on_c, 0, 59, 64
2, 16511, Note_on_c, 0, 59, 0
2, 16512, Note_on_c, 0, 67, 64
2, 16535, Note_on_c, 0, 67, 0
2, 16536, Note_on_c, 0, 55, 64
2, 16559, Note_on_c, 0, 55, 0
2, 16560, Note_on_c, 0, 66, 64
2, 16583, Note_on_c, 0, 66, 0
2, 16584, Note_on_c, 0, 55, 64
2, 16607, Note_on_c, 0, 55, 0
2, 16608, Note_on_c, 0, 64, 64
2, 16631, Note_on_c, 0, 64, 0
2, 16632, Note_on_c, 0, 55, 64
2, 16655, Note_on_c, 0, 55, 0
2, 16656, Note_on_c, 0, 62, 64
2, 16679, Note_on_c, 0, 62, 0
2, 16680, Note_on_c, 0, 55, 64
2, 16703, Note_on_c, 0, 55, 0
2, 16704, Note_on_c, 0, 61, 64
2, 16727, Note_on_c, 0, 61, 0
2, 16728, Note_on_c, 0, 55, 64
2, 16751, Note_on_c, 0, 55, 0
2, 16752, Note_on_c, 0, 62, 64
2, 16775, Note_on_c, 0, 62, 0
2, 16776, Note_on_c, 0, 55, 64
2, 16799, Note_on_c, 0, 55, 0
2, 16800, Note_on_c, 0, 64, 64
2, 16823, Note_on_c, 0, 64, 0
2, 16824, Note_on_c, 0, 55, 64
2, 16847, Note_on_c, 0, 55, 0
2, 16848, Note_on_c, 0, 62, 64
2, 16871, Note_on_c, 0, 62, 0
2, 16872, Note_on_c, 0, 55, 64
2, 16895, Note_on_c, 0, 55, 0
2, 16896, Note_on_c, 0, 64, 64
2, 16919, Note_on_c, 0, 64, 0
2, 16920, Note_on_c, 0, 55, 64
2, 16943, Note_on_c, 0, 55, 0
2, 16944, Note_on_c, 0, 61, 64
2, 16967, Note_on_c, 0, 61, 0
2, 16968, Note_on_c, 0, 55, 64
2, 16991, Note_on_c, 0, 55, 0
2, 17472, Note_on_c, 0, 66, 64
2, 17561, Note_on_c, 0, 66, 0
2, 17568, Note_on_c, 0, 65, 64
2, 17591, Note_on_c, 0, 65, 0
2, 17592, Note_on_c, 0, 66, 64
2, 17615, Note_on_c, 0, 66, 0
2, 17616, Note_on_c, 0, 67, 64
2, 17639, Note_on_c, 0, 67, 0
2, 17640, Note_on_c, 0, 66, 64
2, 17663, Note_on_c, 0, 66, 0
2, 17664, Note_on_c, 0, 65, 64
2, 17687, Note_on_c, 0, 65, 0
2, 17688, Note_on_c, 0, 66, 64
2, 17711, Note_on_c, 0, 66, 0
2, 17712, Note_on_c, 0, 67, 64
2, 17735, Note_on_c, 0, 67, 0
2, 17736, Note_on_c, 0, 66, 64
2, 17759, Note_on_c, 0, 66, 0
2, 17760, Note_on_c, 0, 65, 64
2, 17783, Note_on_c, 0, 65, 0
2, 17784, Note_on_c, 0, 66, 64
2, 17807, Note_on_c, 0, 66, 0
2, 17808, Note_on_c, 0, 67, 64
2, 17831, Note_on_c, 0, 67, 0
2, 17832, Note_on_c, 0, 66, 64
2, 17855, Note_on_c, 0, 66, 0
2, 17856, Note_on_c, 0, 65, 64
2, 17879, Note_on_c, 0, 65, 0
2, 17880, Note_on_c, 0, 66, 64
2, 17903, Note_on_c, 0, 66, 0
2, 17904, Note_on_c, 0, 67, 64
2, 17927, Note_on_c, 0, 67, 0
2, 17928, Note_on_c, 0, 66, 64
2, 17951, Note_on_c, 0, 66, 0
2, 17952, Note_on_c, 0, 65, 64
2, 17975, Note_on_c, 0, 65, 0
2, 17976, Note_on_c, 0, 66, 64
2, 17999, Note_on_c, 0, 66, 0
2, 18000, Note_on_c, 0, 67, 64
2, 18023, Note_on_c, 0, 67, 0
2, 18024, Note_on_c, 0, 66, 64
2, 18047, Note_on_c, 0, 66, 0
2, 18048, Note_on_c, 0, 65, 64
2, 18071, Note_on_c, 0, 65, 0
2, 18072, Note_on_c, 0, 66, 64
2, 18095, Note_on_c, 0, 66, 0
2, 18096, Note_on_c, 0, 67, 64
2, 18119, Note_on_c, 0, 67, 0
2, 18120, Note_on_c, 0, 66, 64
2, 18143, Note_on_c, 0, 66, 0
2, 18144, Note_on_c, 0, 65, 64
2, 18167, Note_on_c, 0, 65, 0
2, 18168, Note_on_c, 0, 66, 64
2, 18191, Note_on_c, 0, 66, 0
2, 18192, Note_on_c, 0, 67, 64
2, 18215, Note_on_c, 0, 67, 0
2, 18216, Note_on_c, 0, 66, 64
2, 18239, Note_on_c, 0, 66, 0
2, 18240, Note_on_c, 0, 65, 64
2, 18263, Note_on_c, 0, 65, 0
2, 18264, Note_on_c, 0, 66, 64
2, 18287, Note_on_c, 0, 66, 0
2, 18288, Note_on_c, 0, 67, 64
2, 18311, Note_on_c, 0, 67, 0
2, 18312, Note_on_c, 0, 66, 64
2, 18335, Note_on_c, 0, 66, 0
2, 18336, Note_on_c, 0, 65, 64
2, 18359, Note_on_c, 0, 65, 0
2, 18360, Note_on_c, 0, 66, 64
2, 18383, Note_on_c, 0, 66, 0
2, 18384, Note_on_c, 0, 67, 64
2, 18407, Note_on_c, 0, 67, 0
2, 18408, Note_on_c, 0, 66, 64
2, 18431, Note_on_c, 0, 66, 0
2, 18432, Note_on_c, 0, 65, 64
2, 18455, Note_on_c, 0, 65, 0
2, 18456, Note_on_c, 0, 66, 64
2, 18479, Note_on_c, 0, 66, 0
2, 18480, Note_on_c, 0, 67, 64
2, 18503, Note_on_c, 0, 67, 0
2, 18504, Note_on_c, 0, 66, 64
2, 18527, Note_on_c, 0, 66, 0
2, 18528, Note_on_c, 0, 64, 64
2, 18551, Note_on_c, 0, 64, 0
2, 18552, Note_on_c, 0, 67, 64
2, 18575, Note_on_c, 0, 67, 0
2, 18576, Note_on_c, 0, 66, 64
2, 18599, Note_on_c, 0, 66, 0
2, 18600, Note_on_c, 0, 64, 64
2, 18623, Note_on_c, 0, 64, 0
2, 18624, Note_on_c, 0, 62, 64
2, 18647, Note_on_c, 0, 62, 0
2, 18648, Note_on_c, 0, 61, 64
2, 18671, Note_on_c, 0, 61, 0
2, 18672, Note_on_c, 0, 59, 64
2, 18695, Note_on_c, 0, 59, 0
2, 18696, Note_on_c, 0, 58, 64
2, 18719, Note_on_c, 0, 58, 0
2, 19296, Note_on_c, 0, 62, 64
2, 19319, Note_on_c, 0, 62, 0
2, 19320, Note_on_c, 0, 55, 64
2, 19343, Note_on_c, 0, 55, 0
2, 19344, Note_on_c, 0, 57, 64
2, 19367, Note_on_c, 0, 57, 0
2, 19368, Note_on_c, 0, 55, 64
2, 19391, Note_on_c, 0, 55, 0
2, 19392, Note_on_c, 0, 64, 64
2, 19415, Note_on_c, 0, 64, 0
2, 19416, Note_on_c, 0, 58, 64
2, 19439, Note_on_c, 0, 58, 0
2, 19440, Note_on_c, 0, 59, 64
2, 19463, Note_on_c, 0, 59, 0
2, 19464, Note_on_c, 0, 58, 64
2, 19487, Note_on_c, 0, 58, 0
2, 19488, Note_on_c, 0, 66, 64
2, 19511, Note_on_c, 0, 66, 0
2, 19512, Note_on_c, 0, 59, 64
2, 19535, Note_on_c, 0, 59, 0
2, 19536, Note_on_c, 0, 61, 64
2, 19559, Note_on_c, 0, 61, 0
2, 19560, Note_on_c, 0, 59, 64
2, 19583, Note_on_c, 0, 59, 0
2, 19584, Note_on_c, 0, 67, 64
2, 19607, Note_on_c, 0, 67, 0
2, 19608, Note_on_c, 0, 61, 64
2, 19631, Note_on_c, 0, 61, 0
2, 19632, Note_on_c, 0, 62, 64
2, 19655, Note_on_c, 0, 62, 0
2, 19656, Note_on_c, 0, 61, 64
2, 19679, Note_on_c, 0, 61, 0
2, 19680, Note_on_c, 0, 66, 64
2, 19703, Note_on_c, 0, 66, 0
2, 19704, Note_on_c, 0, 59, 64
2, 19727, Note_on_c, 0, 59, 0
2, 19728, Note_on_c, 0, 61, 64
2, 19751, Note_on_c, 0, 61, 0
2, 19752, Note_on_c, 0, 59, 64
2, 19775, Note_on_c, 0, 59, 0
2, 19776, Note_on_c, 0, 64, 64
2, 19799, Note_on_c, 0, 64, 0
2, 19800, Note_on_c, 0, 58, 64
2, 19823, Note_on_c, 0, 58, 0
2, 19824, Note_on_c, 0, 59, 64
2, 19847, Note_on_c, 0, 59, 0
2, 19848, Note_on_c, 0, 58, 64
2, 19871, Note_on_c, 0, 58, 0
2, 19872, Note_on_c, 0, 62, 64
2, 19895, Note_on_c, 0, 62, 0
2, 19896, Note_on_c, 0, 59, 64
2, 19919, Note_on_c, 0, 59, 0
2, 19920, Note_on_c, 0, 58, 64
2, 19943, Note_on_c, 0, 58, 0
2, 19944, Note_on_c, 0, 59, 64
2, 19967, Note_on_c, 0, 59, 0
2, 20016, Note_on_c, 0, 61, 64
2, 20061, Note_on_c, 0, 61, 0
2, 20112, Note_on_c, 0, 58, 64
2, 20157, Note_on_c, 0, 58, 0
2, 20256, Note_on_c, 0, 59, 64
2, 20295, Note_on_c, 0, 59, 0
2, 20352, Note_on_c, 0, 66, 64
2, 20441, Note_on_c, 0, 66, 0
2, 20448, Note_on_c, 0, 65, 64
2, 20471, Note_on_c, 0, 65, 0
2, 20472, Note_on_c, 0, 66, 64
2, 20495, Note_on_c, 0, 66, 0
2, 20496, Note_on_c, 0, 67, 64
2, 20519, Note_on_c, 0, 67, 0
2, 20520, Note_on_c, 0, 66, 64
2, 20543, Note_on_c, 0, 66, 0
2, 20544, Note_on_c, 0, 65, 64
2, 20567, Note_on_c, 0, 65, 0
2, 20568, Note_on_c, 0, 66, 64
2, 20591, Note_on_c, 0, 66, 0
2, 20592, Note_on_c, 0, 67, 64
2, 20615, Note_on_c, 0, 67, 0
2, 20616, Note_on_c, 0, 66, 64
2, 20639, Note_on_c, 0, 66, 0
2, 20640, Note_on_c, 0, 65, 64
2, 20663, Note_on_c, 0, 65, 0
2, 20664, Note_on_c, 0, 66, 64
2, 20687, Note_on_c, 0, 66, 0
2, 20688, Note_on_c, 0, 67, 64
2, 20711, Note_on_c, 0, 67, 0
2, 20712, Note_on_c, 0, 66, 64
2, 20735, Note_on_c, 0, 66, 0
2, 20736, Note_on_c, 0, 65, 64
2, 20759, Note_on_c, 0, 65, 0
2, 20760, Note_on_c, 0, 66, 64
2, 20783, Note_on_c, 0, 66, 0
2, 20784, Note_on_c, 0, 67, 64
2, 20807, Note_on_c, 0, 67, 0
2, 20808, Note_on_c, 0, 66, 64
2, 20831, Note_on_c, 0, 66, 0
2, 20832, Note_on_c, 0, 65, 64
2, 20855, Note_on_c, 0, 65, 0
2, 20856, Note_on_c, 0, 66, 64
2, 20879, Note_on_c, 0, 66, 0
2, 20880, Note_on_c, 0, 67, 64
2, 20903, Note_on_c, 0, 67, 0
2, 20904, Note_on_c, 0, 66, 64
2, 20927, Note_on_c, 0, 66, 0
2, 20928, Note_on_c, 0, 65, 64
2, 20951, Note_on_c, 0, 65, 0
2, 20952, Note_on_c, 0, 66, 64
2, 20975, Note_on_c, 0, 66, 0
2, 20976, Note_on_c, 0, 67, 64
2, 20999, Note_on_c, 0, 67, 0
2, 21000, Note_on_c, 0, 66, 64
2, 21023, Note_on_c, 0, 66, 0
2, 21024, Note_on_c, 0, 65, 64
2, 21047, Note_on_c, 0, 65, 0
2, 21048, Note_on_c, 0, 66, 64
2, 21071, Note_on_c, 0, 66, 0
2, 21072, Note_on_c, 0, 67, 64
2, 21095, Note_on_c, 0, 67, 0
2, 21096, Note_on_c, 0, 66, 64
2, 21119, Note_on_c, 0, 66, 0
2, 21120, Note_on_c, 0, 65, 64
2, 21143, Note_on_c, 0, 65, 0
2, 21144, Note_on_c, 0, 66, 64
2, 21167, Note_on_c, 0, 66, 0
2, 21168, Note_on_c, 0, 67, 64
2, 21191, Note_on_c, 0, 67, 0
2, 21192, Note_on_c, 0, 66, 64
2, 21215, Note_on_c, 0, 66, 0
2, 21216, Note_on_c, 0, 65, 64
2, 21239, Note_on_c, 0, 65, 0
2, 21240, Note_on_c, 0, 66, 64
2, 21263, Note_on_c, 0, 66, 0
2, 21264, Note_on_c, 0, 67, 64
2, 21287, Note_on_c, 0, 67, 0
2, 21288, Note_on_c, 0, 66, 64
2, 21311, Note_on_c, 0, 66, 0
2, 21312, Note_on_c, 0, 65, 64
2, 21335, Note_on_c, 0, 65, 0
2, 21336, Note_on_c, 0, 66, 64
2, 21359, Note_on_c, 0, 66, 0
2, 21360, Note_on_c, 0, 67, 64
2, 21383, Note_on_c, 0, 67, 0
2, 21384, Note_on_c, 0, 66, 64
2, 21407, Note_on_c, 0, 66, 0
2, 21408, Note_on_c, 0, 64, 64
2, 21431, Note_on_c, 0, 64, 0
2, 21432, Note_on_c, 0, 67, 64
2, 21455, Note_on_c, 0, 67, 0
2, 21456, Note_on_c, 0, 66, 64
2, 21479, Note_on_c, 0, 66, 0
2, 21480, Note_on_c, 0, 64, 64
2, 21503, Note_on_c, 0, 64, 0
2, 21504, Note_on_c, 0, 62, 64
2, 21527, Note_on_c, 0, 62, 0
2, 21528, Note_on_c, 0, 61, 64
2, 21551, Note_on_c, 0, 61, 0
2, 21552, Note_on_c, 0, 59, 64
2, 21575, Note_on_c, 0, 59, 0
2, 21576, Note_on_c, 0, 58, 64
2, 21599, Note_on_c, 0, 58, 0
2, 22176, Note_on_c, 0, 62, 64
2, 22199, Note_on_c, 0, 62, 0
2, 22200, Note_on_c, 0, 55, 64
2, 22223, Note_on_c, 0, 55, 0
2, 22224, Note_on_c, 0, 57, 64
2, 22247, Note_on_c, 0, 57, 0
2, 22248, Note_on_c, 0, 55, 64
2, 22271, Note_on_c, 0, 55, 0
2, 22272, Note_on_c, 0, 64, 64
2, 22295, Note_on_c, 0, 64, 0
2, 22296, Note_on_c, 0, 58, 64
2, 22319, Note_on_c, 0, 58, 0
2, 22320, Note_on_c, 0, 59, 64
2, 22343, Note_on_c, 0, 59, 0
2, 22344, Note_on_c, 0, 58, 64
2, 22367, Note_on_c, 0, 58, 0
2, 22368, Note_on_c, 0, 66, 64
2, 22391, Note_on_c, 0, 66, 0
2, 22392, Note_on_c, 0, 59, 64
2, 22415, Note_on_c, 0, 59, 0
2, 22416, Note_on_c, 0, 61, 64
2, 22439, Note_on_c, 0, 61, 0
2, 22440, Note_on_c, 0, 59, 64
2, 22463, Note_on_c, 0, 59, 0
2, 22464, Note_on_c, 0, 67, 64
2, 22487, Note_on_c, 0, 67, 0
2, 22488, Note_on_c, 0, 61, 64
2, 22511, Note_on_c, 0, 61, 0
2, 22512, Note_on_c, 0, 62, 64
2, 22535, Note_on_c, 0, 62, 0
2, 22536, Note_on_c, 0, 61, 64
2, 22559, Note_on_c, 0, 61, 0
2, 22560, Note_on_c, 0, 66, 64
2, 22583, Note_on_c, 0, 66, 0
2, 22584, Note_on_c, 0, 59, 64
2, 22607, Note_on_c, 0, 59, 0
2, 22608, Note_on_c, 0, 61, 64
2, 22631, Note_on_c, 0, 61, 0
2, 22632, Note_on_c, 0, 59, 64
2, 22655, Note_on_c, 0, 59, 0
2, 22656, Note_on_c, 0, 64, 64
2, 22679, Note_on_c, 0, 64, 0
2, 22680, Note_on_c, 0, 58, 64
2, 22703, Note_on_c, 0, 58, 0
2, 22704, Note_on_c, 0, 59, 64
2, 22727, Note_on_c, 0, 59, 0
2, 22728, Note_on_c, 0, 58, 64
2, 22751, Note_on_c, 0, 58, 0
2, 22752, Note_on_c, 0, 62, 64
2, 22775, Note_on_c, 0, 62, 0
2, 22776, Note_on_c, 0, 59, 64
2, 22799, Note_on_c, 0, 59, 0
2, 22800, Note_on_c, 0, 58, 64
2, 22823, Note_on_c, 0, 58, 0
2, 22824, Note_on_c, 0, 59, 64
2, 22847, Note_on_c, 0, 59, 0
2, 22896, Note_on_c, 0, 61, 64
2, 22941, Note_on_c, 0, 61, 0
2, 22992, Note_on_c, 0, 58, 64
2, 23037, Note_on_c, 0, 58, 0
2, 23136, Note_on_c, 0, 59, 64
2, 23175, Note_on_c, 0, 59, 0
2, 23232, Note_on_c, 0, 80, 64
2, 23255, Note_on_c, 0, 80, 0
2, 23256, Note_on_c, 0, 78, 64
2, 23279, Note_on_c, 0, 78, 0
2, 23280, Note_on_c, 0, 76, 64
2, 23303, Note_on_c, 0, 76, 0
2, 23304, Note_on_c, 0, 75, 64
2, 23327, Note_on_c, 0, 75, 0
2, 23328, Note_on_c, 0, 73, 64
2, 23395, Note_on_c, 0, 73, 0
2, 23400, Note_on_c, 0, 71, 64
2, 23423, Note_on_c, 0, 71, 0
2, 23424, Note_on_c, 0, 83, 64
2, 23587, Note_on_c, 0, 83, 0
2, 23592, Note_on_c, 0, 82, 64
2, 23615, Note_on_c, 0, 82, 0
2, 23616, Note_on_c, 0, 80, 64
2, 23628, Note_on_c, 0, 80, 0
2, 23628, Note_on_c, 0, 82, 64
2, 23640, Note_on_c, 0, 82, 0
2, 23640, Note_on_c, 0, 80, 64
2, 23652, Note_on_c, 0, 80, 0
2, 23652, Note_on_c, 0, 82, 64
2, 23664, Note_on_c, 0, 82, 0
2, 23664, Note_on_c, 0, 80, 64
2, 23676, Note_on_c, 0, 80, 0
2, 23676, Note_on_c, 0, 82, 64
2, 23683, Note_on_c, 0, 82, 0
2, 23688, Note_on_c, 0, 78, 64
2, 23700, Note_on_c, 0, 78, 0
2, 23700, Note_on_c, 0, 80, 64
2, 23712, Note_on_c, 0, 80, 0
2, 23712, Note_on_c, 0, 78, 64
2, 23751, Note_on_c, 0, 78, 0
2, 23808, Note_on_c, 0, 80, 64
2, 23831, Note_on_c, 0, 80, 0
2, 23832, Note_on_c, 0, 78, 64
2, 23855, Note_on_c, 0, 78, 0
2, 23856, Note_on_c, 0, 76, 64
2, 23879, Note_on_c, 0, 76, 0
2, 23880, Note_on_c, 0, 75, 64
2, 23903, Note_on_c, 0, 75, 0
2, 23904, Note_on_c, 0, 73, 64
2, 23971, Note_on_c, 0, 73, 0
2, 23976, Note_on_c, 0, 71, 64
2, 23999, Note_on_c, 0, 71, 0
2, 24000, Note_on_c, 0, 76, 64
2, 24163, Note_on_c, 0, 76, 0
2, 24168, Note_on_c, 0, 75, 64
2, 24191, Note_on_c, 0, 75, 0
2, 24192, Note_on_c, 0, 73, 64
2, 24204, Note_on_c, 0, 73, 0
2, 24204, Note_on_c, 0, 75, 64
2, 24216, Note_on_c, 0, 75, 0
2, 24216, Note_on_c, 0, 73, 64
2, 24228, Note_on_c, 0, 73, 0
2, 24228, Note_on_c, 0, 75, 64
2, 24240, Note_on_c, 0, 75, 0
2, 24240, Note_on_c, 0, 73, 64
2, 24252, Note_on_c, 0, 73, 0
2, 24252, Note_on_c, 0, 75, 64
2, 24259, Note_on_c, 0, 75, 0
2, 24264, Note_on_c, 0, 71, 64
2, 24276, Note_on_c, 0, 71, 0
2, 24276, Note_on_c, 0, 73, 64
2, 24288, Note_on_c, 0, 73, 0
2, 24288, Note_on_c, 0, 71, 64
2, 24327, Note_on_c, 0, 71, 0
2, 24384, Note_on_c, 0, 68, 64
2, 24407, Note_on_c, 0, 68, 0
2, 24408, Note_on_c, 0, 66, 64
2, 24431, Note_on_c, 0, 66, 0
2, 24432, Note_on_c, 0, 64, 64
2, 24455, Note_on_c, 0, 64, 0
2, 24456, Note_on_c, 0, 63, 64
2, 24479, Note_on_c, 0, 63, 0
2, 24480, Note_on_c, 0, 61, 64
2, 24547, Note_on_c, 0, 61, 0
2, 24552, Note_on_c, 0, 59, 64
2, 24575, Note_on_c, 0, 59, 0
2, 24576, Note_on_c, 0, 75, 64
2, 24717, Note_on_c, 0, 75, 0
2, 24720, Note_on_c, 0, 75, 64
2, 24740, Note_on_c, 0, 75, 0
2, 24768, Note_on_c, 0, 75, 64
2, 24791, Note_on_c, 0, 75, 0
2, 24792, Note_on_c, 0, 73, 64
2, 24815, Note_on_c, 0, 73, 0
2, 24816, Note_on_c, 0, 72, 64
2, 24839, Note_on_c, 0, 72, 0
2, 24840, Note_on_c, 0, 73, 64
2, 24863, Note_on_c, 0, 73, 0
2, 24864, Note_on_c, 0, 78, 64
2, 24884, Note_on_c, 0, 78, 0
2, 24912, Note_on_c, 0, 78, 64
2, 24932, Note_on_c, 0, 78, 0
2, 25008, Note_on_c, 0, 75, 64
2, 25053, Note_on_c, 0, 75, 0
2, 25056, Note_on_c, 0, 75, 64
2, 25079, Note_on_c, 0, 75, 0
2, 25080, Note_on_c, 0, 73, 64
2, 25103, Note_on_c, 0, 73, 0
2, 25104, Note_on_c, 0, 72, 64
2, 25127, Note_on_c, 0, 72, 0
2, 25128, Note_on_c, 0, 73, 64
2, 25151, Note_on_c, 0, 73, 0
2, 25152, Note_on_c, 0, 78, 64
2, 25172, Note_on_c, 0, 78, 0
2, 25200, Note_on_c, 0, 78, 64
2, 25220, Note_on_c, 0, 78, 0
2, 25296, Note_on_c, 0, 75, 64
2, 25341, Note_on_c, 0, 75, 0
2, 25344, Note_on_c, 0, 75, 64
2, 25367, Note_on_c, 0, 75, 0
2, 25368, Note_on_c, 0, 73, 64
2, 25391, Note_on_c, 0, 73, 0
2, 25392, Note_on_c, 0, 72, 64
2, 25415, Note_on_c, 0, 72, 0
2, 25416, Note_on_c, 0, 73, 64
2, 25439, Note_on_c, 0, 73, 0
2, 25440, Note_on_c, 0, 75, 64
2, 25463, Note_on_c, 0, 75, 0
2, 25464, Note_on_c, 0, 77, 64
2, 25487, Note_on_c, 0, 77, 0
2, 25488, Note_on_c, 0, 78, 64
2, 25511, Note_on_c, 0, 78, 0
2, 25512, Note_on_c, 0, 80, 64
2, 25535, Note_on_c, 0, 80, 0
2, 25536, Note_on_c, 0, 82, 64
2, 25559, Note_on_c, 0, 82, 0
2, 25560, Note_on_c, 0, 78, 64
2, 25583, Note_on_c, 0, 78, 0
2, 25584, Note_on_c, 0, 77, 64
2, 25607, Note_on_c, 0, 77, 0
2, 25608, Note_on_c, 0, 78, 64
2, 25631, Note_on_c, 0, 78, 0
2, 25632, Note_on_c, 0, 77, 64
2, 25655, Note_on_c, 0, 77, 0
2, 25656, Note_on_c, 0, 75, 64
2, 25679, Note_on_c, 0, 75, 0
2, 25680, Note_on_c, 0, 73, 64
2, 25703, Note_on_c, 0, 73, 0
2, 25704, Note_on_c, 0, 71, 64
2, 25727, Note_on_c, 0, 71, 0
2, 25728, Note_on_c, 0, 70, 64
2, 25817, Note_on_c, 0, 70, 0
2, 25824, Note_on_c, 0, 68, 64
2, 25836, Note_on_c, 0, 68, 0
2, 25836, Note_on_c, 0, 70, 64
2, 25848, Note_on_c, 0, 70, 0
2, 25848, Note_on_c, 0, 68, 64
2, 25860, Note_on_c, 0, 68, 0
2, 25860, Note_on_c, 0, 70, 64
2, 25872, Note_on_c, 0, 70, 0
2, 25872, Note_on_c, 0, 68, 64
2, 25884, Note_on_c, 0, 68, 0
2, 25884, Note_on_c, 0, 70, 64
2, 25891, Note_on_c, 0, 70, 0
2, 25896, Note_on_c, 0, 66, 64
2, 25908, Note_on_c, 0, 66, 0
2, 25908, Note_on_c, 0, 68, 64
2, 25920, Note_on_c, 0, 68, 0
2, 25920, Note_on_c, 0, 66, 64
2, 26097, Note_on_c, 0, 66, 0
2, 26112, Note_on_c, 0, 80, 64
2, 26135, Note_on_c, 0, 80, 0
2, 26136, Note_on_c, 0, 78, 64
2, 26159, Note_on_c, 0, 78, 0
2, 26160, Note_on_c, 0, 76, 64
2, 26183, Note_on_c, 0, 76, 0
2, 26184, Note_on_c, 0, 75, 64
2, 26207, Note_on_c, 0, 75, 0
2, 26208, Note_on_c, 0, 73, 64
2, 26275, Note_on_c, 0, 73, 0
2, 26280, Note_on_c, 0, 71, 64
2, 26303, Note_on_c, 0, 71, 0
2, 26304, Note_on_c, 0, 83, 64
2, 26467, Note_on_c, 0, 83, 0
2, 26472, Note_on_c, 0, 82, 64
2, 26495, Note_on_c, 0, 82, 0
2, 26496, Note_on_c, 0, 80, 64
2, 26508, Note_on_c, 0, 80, 0
2, 26508, Note_on_c, 0, 82, 64
2, 26520, Note_on_c, 0, 82, 0
2, 26520, Note_on_c, 0, 80, 64
2, 26532, Note_on_c, 0, 80, 0
2, 26532, Note_on_c, 0, 82, 64
2, 26544, Note_on_c, 0, 82, 0
2, 26544, Note_on_c, 0, 80, 64
2, 26556, Note_on_c, 0, 80, 0
2, 26556, Note_on_c, 0, 82, 64
2, 26563, Note_on_c, 0, 82, 0
2, 26568, Note_on_c, 0, 78, 64
2, 26580, Note_on_c, 0, 78, 0
2, 26580, Note_on_c, 0, 80, 64
2, 26592, Note_on_c, 0, 80, 0
2, 26592, Note_on_c, 0, 78, 64
2, 26631, Note_on_c, 0, 78, 0
2, 26688, Note_on_c, 0, 80, 64
2, 26711, Note_on_c, 0, 80, 0
2, 26712, Note_on_c, 0, 78, 64
2, 26735, Note_on_c, 0, 78, 0
2, 26736, Note_on_c, 0, 76, 64
2, 26759, Note_on_c, 0, 76, 0
2, 26760, Note_on_c, 0, 75, 64
2, 26783, Note_on_c, 0, 75, 0
2, 26784, Note_on_c, 0, 73, 64
2, 26851, Note_on_c, 0, 73, 0
2, 26856, Note_on_c, 0, 71, 64
2, 26879, Note_on_c, 0, 71, 0
2, 26880, Note_on_c, 0, 76, 64
2, 27043, Note_on_c, 0, 76, 0
2, 27048, Note_on_c, 0, 75, 64
2, 27071, Note_on_c, 0, 75, 0
2, 27072, Note_on_c, 0, 73, 64
2, 27084, Note_on_c, 0, 73, 0
2, 27084, Note_on_c, 0, 75, 64
2, 27096, Note_on_c, 0, 75, 0
2, 27096, Note_on_c, 0, 73, 64
2, 27108, Note_on_c, 0, 73, 0
2, 27108, Note_on_c, 0, 75, 64
2, 27120, Note_on_c, 0, 75, 0
2, 27120, Note_on_c, 0, 73, 64
2, 27132, Note_on_c, 0, 73, 0
2, 27132, Note_on_c, 0, 75, 64
2, 27139, Note_on_c, 0, 75, 0
2, 27144, Note_on_c, 0, 71, 64
2, 27156, Note_on_c, 0, 71, 0
2, 27156, Note_on_c, 0, 73, 64
2, 27168, Note_on_c, 0, 73, 0
2, 27168, Note_on_c, 0, 71, 64
2, 27207, Note_on_c, 0, 71, 0
2, 27264, Note_on_c, 0, 68, 64
2, 27287, Note_on_c, 0, 68, 0
2, 27288, Note_on_c, 0, 66, 64
2, 27311, Note_on_c, 0, 66, 0
2, 27312, Note_on_c, 0, 64, 64
2, 27335, Note_on_c, 0, 64, 0
2, 27336, Note_on_c, 0, 63, 64
2, 27359, Note_on_c, 0, 63, 0
2, 27360, Note_on_c, 0, 61, 64
2, 27427, Note_on_c, 0, 61, 0
2, 27432, Note_on_c, 0, 59, 64
2, 27455, Note_on_c, 0, 59, 0
2, 27456, Note_on_c, 0, 75, 64
2, 27597, Note_on_c, 0, 75, 0
2, 27600, Note_on_c, 0, 75, 64
2, 27620, Note_on_c, 0, 75, 0
2, 27648, Note_on_c, 0, 75, 64
2, 27671, Note_on_c, 0, 75, 0
2, 27672, Note_on_c, 0, 73, 64
2, 27695, Note_on_c, 0, 73, 0
2, 27696, Note_on_c, 0, 72, 64
2, 27719, Note_on_c, 0, 72, 0
2, 27720, Note_on_c, 0, 73, 64
2, 27743, Note_on_c, 0, 73, 0
2, 27744, Note_on_c, 0, 78, 64
2, 27764, Note_on_c, 0, 78, 0
2, 27792, Note_on_c, 0, 78, 64
2, 27812, Note_on_c, 0, 78, 0
2, 27888, Note_on_c, 0, 75, 64
2, 27933, Note_on_c, 0, 75, 0
2, 27936, Note_on_c, 0, 75, 64
2, 27959, Note_on_c, 0, 75, 0
2, 27960, Note_on_c, 0, 73, 64
2, 27983, Note_on_c, 0, 73, 0
2, 27984, Note_on_c, 0, 72, 64
2, 28007, Note_on_c, 0, 72, 0
2, 28008, Note_on_c, 0, 73, 64
2, 28031, Note_on_c, 0, 73, 0
2, 28032, Note_on_c, 0, 78, 64
2, 28052, Note_on_c, 0, 78, 0
2, 28080, Note_on_c, 0, 78, 64
2, 28100, Note_on_c, 0, 78, 0
2, 28176, Note_on_c, 0, 75, 64
2, 28221, Note_on_c, 0, 75, 0
2, 28224, Note_on_c, 0, 75, 64
2, 28247, Note_on_c, 0, 75, 0
2, 28248, Note_on_c, 0, 73, 64
2, 28271, Note_on_c, 0, 73, 0
2, 28272, Note_on_c, 0, 72, 64
2, 28295, Note_on_c, 0, 72, 0
2, 28296, Note_on_c, 0, 73, 64
2, 28319, Note_on_c, 0, 73, 0
2, 28320, Note_on_c, 0, 75, 64
2, 28343, Note_on_c, 0, 75, 0
2, 28344, Note_on_c, 0, 77, 64
2, 28367, Note_on_c, 0, 77, 0
2, 28368, Note_on_c, 0, 78, 64
2, 28391, Note_on_c, 0, 78, 0
2, 28392, Note_on_c, 0, 80, 64
2, 28415, Note_on_c, 0, 80, 0
2, 28416, Note_on_c, 0, 82, 64
2, 28439, Note_on_c, 0, 82, 0
2, 28440, Note_on_c, 0, 78, 64
2, 28463, Note_on_c, 0, 78, 0
2, 28464, Note_on_c, 0, 77, 64
2, 28487, Note_on_c, 0, 77, 0
2, 28488, Note_on_c, 0, 78, 64
2, 28511, Note_on_c, 0, 78, 0
2, 28512, Note_on_c, 0, 77, 64
2, 28535, Note_on_c, 0, 77, 0
2, 28536, Note_on_c, 0, 75, 64
2, 28559, Note_on_c, 0, 75, 0
2, 28560, Note_on_c, 0, 73, 64
2, 28583, Note_on_c, 0, 73, 0
2, 28584, Note_on_c, 0, 71, 64
2, 28607, Note_on_c, 0, 71, 0
2, 28608, Note_on_c, 0, 70, 64
2, 28697, Note_on_c, 0, 70, 0
2, 28704, Note_on_c, 0, 68, 64
2, 28716, Note_on_c, 0, 68, 0
2, 28716, Note_on_c, 0, 70, 64
2, 28728, Note_on_c, 0, 70, 0
2, 28728, Note_on_c, 0, 68, 64
2, 28740, Note_on_c, 0, 68, 0
2, 28740, Note_on_c, 0, 70, 64
2, 28752, Note_on_c, 0, 70, 0
2, 28752, Note_on_c, 0, 68, 64
2, 28764, Note_on_c, 0, 68, 0
2, 28764, Note_on_c, 0, 70, 64
2, 28771, Note_on_c, 0, 70, 0
2, 28776, Note_on_c, 0, 66, 64
2, 28788, Note_on_c, 0, 66, 0
2, 28788, Note_on_c, 0, 68, 64
2, 28800, Note_on_c, 0, 68, 0
2, 28800, Note_on_c, 0, 66, 64
2, 28977, Note_on_c, 0, 66, 0
2, 28992, Note_on_c, 0, 68, 64
2, 29015, Note_on_c, 0, 68, 0
2, 29016, Note_on_c, 0, 66, 64
2, 29039, Note_on_c, 0, 66, 0
2, 29040, Note_on_c, 0, 64, 64
2, 29063, Note_on_c, 0, 64, 0
2, 29064, Note_on_c, 0, 63, 64
2, 29087, Note_on_c, 0, 63, 0
2, 29088, Note_on_c, 0, 61, 64
2, 29155, Note_on_c, 0, 61, 0
2, 29160, Note_on_c, 0, 60, 64
2, 29183, Note_on_c, 0, 60, 0
2, 29184, Note_on_c, 0, 69, 64
2, 29325, Note_on_c, 0, 69, 0
2, 29328, Note_on_c, 0, 60, 64
2, 29373, Note_on_c, 0, 60, 0
2, 29376, Note_on_c, 0, 61, 64
2, 29421, Note_on_c, 0, 61, 0
2, 29424, Note_on_c, 0, 64, 64
2, 29469, Note_on_c, 0, 64, 0
2, 29472, Note_on_c, 0, 68, 64
2, 29517, Note_on_c, 0, 68, 0
2, 29520, Note_on_c, 0, 73, 64
2, 29565, Note_on_c, 0, 73, 0
2, 29568, Note_on_c, 0, 78, 64
2, 29591, Note_on_c, 0, 78, 0
2, 29592, Note_on_c, 0, 76, 64
2, 29615, Note_on_c, 0, 76, 0
2, 29616, Note_on_c, 0, 75, 64
2, 29639, Note_on_c, 0, 75, 0
2, 29640, Note_on_c, 0, 73, 64
2, 29663, Note_on_c, 0, 73, 0
2, 29664, Note_on_c, 0, 71, 64
2, 29731, Note_on_c, 0, 71, 0
2, 29736, Note_on_c, 0, 70, 64
2, 29759, Note_on_c, 0, 70, 0
2, 29760, Note_on_c, 0, 80, 64
2, 29901, Note_on_c, 0, 80, 0
2, 29904, Note_on_c, 0, 70, 64
2, 29949, Note_on_c, 0, 70, 0
2, 29952, Note_on_c, 0, 71, 64
2, 29975, Note_on_c, 0, 71, 0
2, 29976, Note_on_c, 0, 73, 64
2, 29999, Note_on_c, 0, 73, 0
2, 30000, Note_on_c, 0, 75, 64
2, 30023, Note_on_c, 0, 75, 0
2, 30024, Note_on_c, 0, 76, 64
2, 30047, Note_on_c, 0, 76, 0
2, 30048, Note_on_c, 0, 78, 64
2, 30071, Note_on_c, 0, 78, 0
2, 30072, Note_on_c, 0, 80, 64
2, 30095, Note_on_c, 0, 80, 0
2, 30096, Note_on_c, 0, 82, 64
2, 30119, Note_on_c, 0, 82, 0
2, 30120, Note_on_c, 0, 83, 64
2, 30143, Note_on_c, 0, 83, 0
2, 30144, Note_on_c, 0, 82, 64
2, 30167, Note_on_c, 0, 82, 0
2, 30168, Note_on_c, 0, 83, 64
2, 30191, Note_on_c, 0, 83, 0
2, 30192, Note_on_c, 0, 82, 64
2, 30215, Note_on_c, 0, 82, 0
2, 30216, Note_on_c, 0, 83, 64
2, 30239, Note_on_c, 0, 83, 0
2, 30240, Note_on_c, 0, 82, 64
2, 30263, Note_on_c, 0, 82, 0
2, 30264, Note_on_c, 0, 80, 64
2, 30287, Note_on_c, 0, 80, 0
2, 30288, Note_on_c, 0, 78, 64
2, 30311, Note_on_c, 0, 78, 0
2, 30312, Note_on_c, 0, 80, 64
2, 30335, Note_on_c, 0, 80, 0
2, 30336, Note_on_c, 0, 78, 64
2, 30359, Note_on_c, 0, 78, 0
2, 30360, Note_on_c, 0, 76, 64
2, 30383, Note_on_c, 0, 76, 0
2, 30384, Note_on_c, 0, 75, 64
2, 30407, Note_on_c, 0, 75, 0
2, 30408, Note_on_c, 0, 76, 64
2, 30431, Note_on_c, 0, 76, 0
2, 30432, Note_on_c, 0, 75, 64
2, 30455, Note_on_c, 0, 75, 0
2, 30456, Note_on_c, 0, 73, 64
2, 30479, Note_on_c, 0, 73, 0
2, 30480, Note_on_c, 0, 72, 64
2, 30503, Note_on_c, 0, 72, 0
2, 30504, Note_on_c, 0, 73, 64
2, 30527, Note_on_c, 0, 73, 0
2, 30528, Note_on_c, 0, 71, 64
2, 30624, Note_on_c, 0, 71, 0
2, 30624, Note_on_c, 0, 70, 64
2, 30713, Note_on_c, 0, 70, 0
2, 30720, Note_on_c, 0, 66, 64
2, 30743, Note_on_c, 0, 66, 0
2, 30744, Note_on_c, 0, 64, 64
2, 30767, Note_on_c, 0, 64, 0
2, 30768, Note_on_c, 0, 63, 64
2, 30791, Note_on_c, 0, 63, 0
2, 30792, Note_on_c, 0, 61, 64
2, 30815, Note_on_c, 0, 61, 0
2, 30816, Note_on_c, 0, 59, 64
2, 30883, Note_on_c, 0, 59, 0
2, 30888, Note_on_c, 0, 58, 64
2, 30911, Note_on_c, 0, 58, 0
2, 30912, Note_on_c, 0, 80, 64
2, 31053, Note_on_c, 0, 80, 0
2, 31056, Note_on_c, 0, 80, 64
2, 31076, Note_on_c, 0, 80, 0
2, 31104, Note_on_c, 0, 80, 64
2, 31127, Note_on_c, 0, 80, 0
2, 31128, Note_on_c, 0, 78, 64
2, 31151, Note_on_c, 0, 78, 0
2, 31152, Note_on_c, 0, 77, 64
2, 31175, Note_on_c, 0, 77, 0
2, 31176, Note_on_c, 0, 78, 64
2, 31199, Note_on_c, 0, 78, 0
2, 31200, Note_on_c, 0, 83, 64
2, 31220, Note_on_c, 0, 83, 0
2, 31248, Note_on_c, 0, 83, 64
2, 31268, Note_on_c, 0, 83, 0
2, 31344, Note_on_c, 0, 80, 64
2, 31389, Note_on_c, 0, 80, 0
2, 31392, Note_on_c, 0, 80, 64
2, 31415, Note_on_c, 0, 80, 0
2, 31416, Note_on_c, 0, 78, 64
2, 31439, Note_on_c, 0, 78, 0
2, 31440, Note_on_c, 0, 77, 64
2, 31463, Note_on_c, 0, 77, 0
2, 31464, Note_on_c, 0, 78, 64
2, 31487, Note_on_c, 0, 78, 0
2, 31488, Note_on_c, 0, 83, 64
2, 31508, Note_on_c, 0, 83, 0
2, 31536, Note_on_c, 0, 83, 64
2, 31556, Note_on_c, 0, 83, 0
2, 31632, Note_on_c, 0, 80, 64
2, 31677, Note_on_c, 0, 80, 0
2, 31680, Note_on_c, 0, 80, 64
2, 31703, Note_on_c, 0, 80, 0
2, 31704, Note_on_c, 0, 78, 64
2, 31727, Note_on_c, 0, 78, 0
2, 31728, Note_on_c, 0, 77, 64
2, 31751, Note_on_c, 0, 77, 0
2, 31752, Note_on_c, 0, 78, 64
2, 31775, Note_on_c, 0, 78, 0
2, 31776, Note_on_c, 0, 83, 64
2, 31799, Note_on_c, 0, 83, 0
2, 31800, Note_on_c, 0, 82, 64
2, 31823, Note_on_c, 0, 82, 0
2, 31824, Note_on_c, 0, 80, 64
2, 31847, Note_on_c, 0, 80, 0
2, 31848, Note_on_c, 0, 78, 64
2, 31871, Note_on_c, 0, 78, 0
2, 31872, Note_on_c, 0, 76, 64
2, 31895, Note_on_c, 0, 76, 0
2, 31896, Note_on_c, 0, 75, 64
2, 31919, Note_on_c, 0, 75, 0
2, 31920, Note_on_c, 0, 73, 64
2, 31943, Note_on_c, 0, 73, 0
2, 31944, Note_on_c, 0, 71, 64
2, 31967, Note_on_c, 0, 71, 0
2, 31968, Note_on_c, 0, 75, 64
2, 31991, Note_on_c, 0, 75, 0
2, 31992, Note_on_c, 0, 73, 64
2, 32015, Note_on_c, 0, 73, 0
2, 32016, Note_on_c, 0, 76, 64
2, 32039, Note_on_c, 0, 76, 0
2, 32040, Note_on_c, 0, 73, 64
2, 32063, Note_on_c, 0, 73, 0
2, 32064, Note_on_c, 0, 71, 64
2, 32153, Note_on_c, 0, 71, 0
2, 32160, Note_on_c, 0, 70, 64
2, 32172, Note_on_c, 0, 70, 0
2, 32172, Note_on_c, 0, 71, 64
2, 32184, Note_on_c, 0, 71, 0
2, 32184, Note_on_c, 0, 70, 64
2, 32196, Note_on_c, 0, 70, 0
2, 32196, Note_on_c, 0, 71, 64
2, 32208, Note_on_c, 0, 71, 0
2, 32208, Note_on_c, 0, 70, 64
2, 32220, Note_on_c, 0, 70, 0
2, 32220, Note_on_c, 0, 71, 64
2, 32227, Note_on_c, 0, 71, 0
2, 32232, Note_on_c, 0, 68, 64
2, 32244, Note_on_c, 0, 68, 0
2, 32244, Note_on_c, 0, 70, 64
2, 32256, Note_on_c, 0, 70, 0
2, 32256, Note_on_c, 0, 71, 64
2, 32433, Note_on_c, 0, 71, 0
2, 32448, Note_on_c, 0, 68, 64
2, 32471, Note_on_c, 0, 68, 0
2, 32472, Note_on_c, 0, 66, 64
2, 32495, Note_on_c, 0, 66, 0
2, 32496, Note_on_c, 0, 64, 64
2, 32519, Note_on_c, 0, 64, 0
2, 32520, Note_on_c, 0, 63, 64
2, 32543, Note_on_c, 0, 63, 0
2, 32544, Note_on_c, 0, 61, 64
2, 32611, Note_on_c, 0, 61, 0
2, 32616, Note_on_c, 0, 60, 64
2, 32639, Note_on_c, 0, 60, 0
2, 32640, Note_on_c, 0, 69, 64
2, 32781, Note_on_c, 0, 69, 0
2, 32784, Note_on_c, 0, 60, 64
2, 32829, Note_on_c, 0, 60, 0
2, 32832, Note_on_c, 0, 61, 64
2, 32877, Note_on_c, 0, 61, 0
2, 32880, Note_on_c, 0, 64, 64
2, 32925, Note_on_c, 0, 64, 0
2, 32928, Note_on_c, 0, 68, 64
2, 32973, Note_on_c, 0, 68, 0
2, 32976, Note_on_c, 0, 73, 64
2, 33021, Note_on_c, 0, 73, 0
2, 33024, Note_on_c, 0, 78, 64
2, 33047, Note_on_c, 0, 78, 0
2, 33048, Note_on_c, 0, 76, 64
2, 33071, Note_on_c, 0, 76, 0
2, 33072, Note_on_c, 0, 75, 64
2, 33095, Note_on_c, 0, 75, 0
2, 33096, Note_on_c, 0, 73, 64
2, 33119, Note_on_c, 0, 73, 0
2, 33120, Note_on_c, 0, 71, 64
2, 33187, Note_on_c, 0, 71, 0
2, 33192, Note_on_c, 0, 70, 64
2, 33215, Note_on_c, 0, 70, 0
2, 33216, Note_on_c, 0, 80, 64
2, 33357, Note_on_c, 0, 80, 0
2, 33360, Note_on_c, 0, 70, 64
2, 33405, Note_on_c, 0, 70, 0
2, 33408, Note_on_c, 0, 71, 64
2, 33431, Note_on_c, 0, 71, 0
2, 33432, Note_on_c, 0, 73, 64
2, 33455, Note_on_c, 0, 73, 0
2, 33456, Note_on_c, 0, 75, 64
2, 33479, Note_on_c, 0, 75, 0
2, 33480, Note_on_c, 0, 76, 64
2, 33503, Note_on_c, 0, 76, 0
2, 33504, Note_on_c, 0, 78, 64
2, 33527, Note_on_c, 0, 78, 0
2, 33528, Note_on_c, 0, 80, 64
2, 33551, Note_on_c, 0, 80, 0
2, 33552, Note_on_c, 0, 82, 64
2, 33575, Note_on_c, 0, 82, 0
2, 33576, Note_on_c, 0, 83, 64
2, 33599, Note_on_c, 0, 83, 0
2, 33600, Note_on_c, 0, 82, 64
2, 33623, Note_on_c, 0, 82, 0
2, 33624, Note_on_c, 0, 83, 64
2, 33647, Note_on_c, 0, 83, 0
2, 33648, Note_on_c, 0, 82, 64
2, 33671, Note_on_c, 0, 82, 0
2, 33672, Note_on_c, 0, 83, 64
2, 33695, Note_on_c, 0, 83, 0
2, 33696, Note_on_c, 0, 82, 64
2, 33719, Note_on_c, 0, 82, 0
2, 33720, Note_on_c, 0, 80, 64
2, 33743, Note_on_c, 0, 80, 0
2, 33744, Note_on_c, 0, 78, 64
2, 33767, Note_on_c, 0, 78, 0
2, 33768, Note_on_c, 0, 80, 64
2, 33791, Note_on_c, 0, 80, 0
2, 33792, Note_on_c, 0, 78, 64
2, 33815, Note_on_c, 0, 78, 0
2, 33816, Note_on_c, 0, 76, 64
2, 33839, Note_on_c, 0, 76, 0
2, 33840, Note_on_c, 0, 75, 64
2, 33863, Note_on_c, 0, 75, 0
2, 33864, Note_on_c, 0, 76, 64
2, 33887, Note_on_c, 0, 76, 0
2, 33888, Note_on_c, 0, 75, 64
2, 33911, Note_on_c, 0, 75, 0
2, 33912, Note_on_c, 0, 73, 64
2, 33935, Note_on_c, 0, 73, 0
2, 33936, Note_on_c, 0, 72, 64
2, 33959, Note_on_c, 0, 72, 0
2, 33960, Note_on_c, 0, 73, 64
2, 33983, Note_on_c, 0, 73, 0
2, 33984, Note_on_c, 0, 71, 64
2, 34080, Note_on_c, 0, 71, 0
2, 34080, Note_on_c, 0, 70, 64
2, 34169, Note_on_c, 0, 70, 0
2, 34176, Note_on_c, 0, 66, 64
2, 34199, Note_on_c, 0, 66, 0
2, 34200, Note_on_c, 0, 64, 64
2, 34223, Note_on_c, 0, 64, 0
2, 34224, Note_on_c, 0, 63, 64
2, 34247, Note_on_c, 0, 63, 0
2, 34248, Note_on_c, 0, 61, 64
2, 34271, Note_on_c, 0, 61, 0
2, 34272, Note_on_c, 0, 59, 64
2, 34339, Note_on_c, 0, 59, 0
2, 34344, Note_on_c, 0, 58, 64
2, 34367, Note_on_c, 0, 58, 0
2, 34368, Note_on_c, 0, 80, 64
2, 34509, Note_on_c, 0, 80, 0
2, 34512, Note_on_c, 0, 80, 64
2, 34532, Note_on_c, 0, 80, 0
2, 34560, Note_on_c, 0, 80, 64
2, 34583, Note_on_c, 0, 80, 0
2, 34584, Note_on_c, 0, 78, 64
2, 34607, Note_on_c, 0, 78, 0
2, 34608, Note_on_c, 0, 77, 64
2, 34631, Note_on_c, 0, 77, 0
2, 34632, Note_on_c, 0, 78, 64
2, 34655, Note_on_c, 0, 78, 0
2, 34656, Note_on_c, 0, 83, 64
2, 34676, Note_on_c, 0, 83, 0
2, 34704, Note_on_c, 0, 83, 64
2, 34724, Note_on_c, 0, 83, 0
2, 34800, Note_on_c, 0, 80, 64
2, 34845, Note_on_c, 0, 80, 0
2, 34848, Note_on_c, 0, 80, 64
2, 34871, Note_on_c, 0, 80, 0
2, 34872, Note_on_c, 0, 78, 64
2, 34895, Note_on_c, 0, 78, 0
2, 34896, Note_on_c, 0, 77, 64
2, 34919, Note_on_c, 0, 77, 0
2, 34920, Note_on_c, 0, 78, 64
2, 34943, Note_on_c, 0, 78, 0
2, 34944, Note_on_c, 0, 83, 64
2, 34964, Note_on_c, 0, 83, 0
2, 34992, Note_on_c, 0, 83, 64
2, 35012, Note_on_c, 0, 83, 0
2, 35088, Note_on_c, 0, 80, 64
2, 35133, Note_on_c, 0, 80, 0
2, 35136, Note_on_c, 0, 80, 64
2, 35159, Note_on_c, 0, 80, 0
2, 35160, Note_on_c, 0, 78, 64
2, 35183, Note_on_c, 0, 78, 0
2, 35184, Note_on_c, 0, 77, 64
2, 35207, Note_on_c, 0, 77, 0
2, 35208, Note_on_c, 0, 78, 64
2, 35231, Note_on_c, 0, 78, 0
2, 35232, Note_on_c, 0, 83, 64
2, 35255, Note_on_c, 0, 83, 0
2, 35256, Note_on_c, 0, 82, 64
2, 35279, Note_on_c, 0, 82, 0
2, 35280, Note_on_c, 0, 80, 64
2, 35303, Note_on_c, 0, 80, 0
2, 35304, Note_on_c, 0, 78, 64
2, 35327, Note_on_c, 0, 78, 0
2, 35328, Note_on_c, 0, 76, 64
2, 35351, Note_on_c, 0, 76, 0
2, 35352, Note_on_c, 0, 75, 64
2, 35375, Note_on_c, 0, 75, 0
2, 35376, Note_on_c, 0, 73, 64
2, 35399, Note_on_c, 0, 73, 0
2, 35400, Note_on_c, 0, 71, 64
2, 35423, Note_on_c, 0, 71, 0
2, 35424, Note_on_c, 0, 75, 64
2, 35447, Note_on_c, 0, 75, 0
2, 35448, Note_on_c, 0, 73, 64
2, 35471, Note_on_c, 0, 73, 0
2, 35472, Note_on_c, 0, 76, 64
2, 35495, Note_on_c, 0, 76, 0
2, 35496, Note_on_c, 0, 73, 64
2, 35519, Note_on_c, 0, 73, 0
2, 35520, Note_on_c, 0, 71, 64
2, 35609, Note_on_c, 0, 71, 0
2, 35616, Note_on_c, 0, 70, 64
2, 35628, Note_on_c, 0, 70, 0
2, 35628, Note_on_c, 0, 71, 64
2, 35640, Note_on_c, 0, 71, 0
2, 35640, Note_on_c, 0, 70, 64
2, 35652, Note_on_c, 0, 70, 0
2, 35652, Note_on_c, 0, 71, 64
2, 35664, Note_on_c, 0, 71, 0
2, 35664, Note_on_c, 0, 70, 64
2, 35676, Note_on_c, 0, 70, 0
2, 35676, Note_on_c, 0, 71, 64
2, 35683, Note_on_c, 0, 71, 0
2, 35688, Note_on_c, 0, 68, 64
2, 35700, Note_on_c, 0, 68, 0
2, 35700, Note_on_c, 0, 70, 64
2, 35712, Note_on_c, 0, 70, 0
2, 35712, Note_on_c, 0, 71, 64
2, 35889, Note_on_c, 0, 71, 0
2, 36000, End_track
3, 0, Start_track
3, 0, Program_c, 0, 0
3, 0, Control_c, 0, 7, 127
3, 0, Control_c, 0, 10, 64
3, 36000, End_track
4, 0, Start_track
4, 0, Program_c, 1, 0
4, 0, Control_c, 1, 7, 127
4, 0, Control_c, 1, 10, 64
4, 480, Note_on_c, 1, 71, 64
4, 480, Note_on_c, 1, 63, 64
4, 569, Note_on_c, 1, 71, 0
4, 569, Note_on_c, 1, 63, 0
4, 576, Note_on_c, 1, 71, 64
4, 576, Note_on_c, 1, 64, 64
4, 665, Note_on_c, 1, 71, 0
4, 665, Note_on_c, 1, 64, 0
4, 672, Note_on_c, 1, 71, 64
4, 672, Note_on_c, 1, 63, 64
4, 761, Note_on_c, 1, 71, 0
4, 761, Note_on_c, 1, 63, 0
4, 960, Note_on_c, 1, 68, 64
4, 1049, Note_on_c, 1, 68, 0
4, 1056, Note_on_c, 1, 66, 64
4, 1145, Note_on_c, 1, 66, 0
4, 1152, Note_on_c, 1, 64, 64
4, 1241, Note_on_c, 1, 64, 0
4, 1248, Note_on_c, 1, 63, 64
4, 1337, Note_on_c, 1, 63, 0
4, 1632, Note_on_c, 1, 65, 64
4, 1632, Note_on_c, 1, 59, 64
4, 1728, Note_on_c, 1, 65, 0
4, 1728, Note_on_c, 1, 59, 0
4, 1728, Note_on_c, 1, 66, 64
4, 1728, Note_on_c, 1, 58, 64
4, 1817, Note_on_c, 1, 66, 0
4, 1817, Note_on_c, 1, 58, 0
4, 1920, Note_on_c, 1, 65, 64
4, 1920, Note_on_c, 1, 59, 64
4, 2016, Note_on_c, 1, 65, 0
4, 2016, Note_on_c, 1, 59, 0
4, 2016, Note_on_c, 1, 66, 64
4, 2016, Note_on_c, 1, 58, 64
4, 2105, Note_on_c, 1, 66, 0
4, 2105, Note_on_c, 1, 58, 0
4, 2208, Note_on_c, 1, 65, 64
4, 2208, Note_on_c, 1, 59, 64
4, 2304, Note_on_c, 1, 65, 0
4, 2304, Note_on_c, 1, 59, 0
4, 2304, Note_on_c, 1, 66, 64
4, 2304, Note_on_c, 1, 58, 64
4, 2592, Note_on_c, 1, 58, 0
4, 2681, Note_on_c, 1, 66, 0
4, 2688, Note_on_c, 1, 66, 64
4, 2777, Note_on_c, 1, 66, 0
4, 2784, Note_on_c, 1, 65, 64
4, 2873, Note_on_c, 1, 65, 0
4, 2880, Note_on_c, 1, 54, 64
4, 2969, Note_on_c, 1, 54, 0
4, 2976, Note_on_c, 1, 42, 64
4, 3065, Note_on_c, 1, 42, 0
4, 3360, Note_on_c, 1, 71, 64
4, 3360, Note_on_c, 1, 63, 64
4, 3449, Note_on_c, 1, 71, 0
4, 3449, Note_on_c, 1, 63, 0
4, 3456, Note_on_c, 1, 71, 64
4, 3456, Note_on_c, 1, 64, 64
4, 3545, Note_on_c, 1, 71, 0
4, 3545, Note_on_c, 1, 64, 0
4, 3552, Note_on_c, 1, 71, 64
4, 3552, Note_on_c, 1, 63, 64
4, 3641, Note_on_c, 1, 71, 0
4, 3641, Note_on_c, 1, 63, 0
4, 3840, Note_on_c, 1, 68, 64
4, 3929, Note_on_c, 1, 68, 0
4, 3936, Note_on_c, 1, 66, 64
4, 4025, Note_on_c, 1, 66, 0
4, 4032, Note_on_c, 1, 64, 64
4, 4121, Note_on_c, 1, 64, 0
4, 4128, Note_on_c, 1, 63, 64
4, 4217, Note_on_c, 1, 63, 0
4, 4512, Note_on_c, 1, 65, 64
4, 4512, Note_on_c, 1, 59, 64
4, 4608, Note_on_c, 1, 65, 0
4, 4608, Note_on_c, 1, 59, 0
4, 4608, Note_on_c, 1, 66, 64
4, 4608, Note_on_c, 1, 58, 64
4, 4697, Note_on_c, 1, 66, 0
4, 4697, Note_on_c, 1, 58, 0
4, 4800, Note_on_c, 1, 65, 64
4, 4800, Note_on_c, 1, 59, 64
4, 4896, Note_on_c, 1, 65, 0
4, 4896, Note_on_c, 1, 59, 0
4, 4896, Note_on_c, 1, 66, 64
4, 4896, Note_on_c, 1, 58, 64
4, 4985, Note_on_c, 1, 66, 0
4, 4985, Note_on_c, 1, 58, 0
4, 5088, Note_on_c, 1, 65, 64
4, 5088, Note_on_c, 1, 59, 64
4, 5184, Note_on_c, 1, 65, 0
4, 5184, Note_on_c, 1, 59, 0
4, 5184, Note_on_c, 1, 66, 64
4, 5184, Note_on_c, 1, 58, 64
4, 5472, Note_on_c, 1, 58, 0
4, 5561, Note_on_c, 1, 66, 0
4, 5568, Note_on_c, 1, 66, 64
4, 5657, Note_on_c, 1, 66, 0
4, 5664, Note_on_c, 1, 65, 64
4, 5753, Note_on_c, 1, 65, 0
4, 5760, Note_on_c, 1, 54, 64
4, 5849, Note_on_c, 1, 54, 0
4, 5856, Note_on_c, 1, 42, 64
4, 5945, Note_on_c, 1, 42, 0
4, 6240, Note_on_c, 1, 54, 64
4, 6329, Note_on_c, 1, 54, 0
4, 6336, Note_on_c, 1, 52, 64
4, 6425, Note_on_c, 1, 52, 0
4, 6816, Note_on_c, 1, 64, 64
4, 6905, Note_on_c, 1, 64, 0
4, 6912, Note_on_c, 1, 63, 64
4, 7177, Note_on_c, 1, 63, 0
4, 7200, Note_on_c, 1, 64, 64
4, 7437, Note_on_c, 1, 64, 0
4, 7440, Note_on_c, 1, 65, 64
4, 7485, Note_on_c, 1, 65, 0
4, 7488, Note_on_c, 1, 66, 64
4, 7577, Note_on_c, 1, 66, 0
4, 7584, Note_on_c, 1, 54, 64
4, 7673, Note_on_c, 1, 54, 0
4, 7968, Note_on_c, 1, 70, 64
4, 7968, Note_on_c, 1, 64, 64
4, 8064, Note_on_c, 1, 70, 0
4, 8064, Note_on_c, 1, 64, 0
4, 8064, Note_on_c, 1, 71, 64
4, 8064, Note_on_c, 1, 63, 64
4, 8153, Note_on_c, 1, 71, 0
4, 8153, Note_on_c, 1, 63, 0
4, 8256, Note_on_c, 1, 70, 64
4, 8256, Note_on_c, 1, 64, 64
4, 8352, Note_on_c, 1, 70, 0
4, 8352, Note_on_c, 1, 64, 0
4, 8352, Note_on_c, 1, 71, 64
4, 8352, Note_on_c, 1, 63, 64
4, 8441, Note_on_c, 1, 71, 0
4, 8441, Note_on_c, 1, 63, 0
4, 8544, Note_on_c, 1, 58, 64
4, 8544, Note_on_c, 1, 52, 64
4, 8640, Note_on_c, 1, 58, 0
4, 8640, Note_on_c, 1, 52, 0
4, 8640, Note_on_c, 1, 59, 64
4, 8640, Note_on_c, 1, 51, 64
4, 8905, Note_on_c, 1, 59, 0
4, 8905, Note_on_c, 1, 51, 0
4, 8976, Note_on_c, 1, 64, 64
4, 9021, Note_on_c, 1, 64, 0
4, 9024, Note_on_c, 1, 63, 64
4, 9113, Note_on_c, 1, 63, 0
4, 9120, Note_on_c, 1, 61, 64
4, 9209, Note_on_c, 1, 61, 0
4, 9216, Note_on_c, 1, 59, 64
4, 9305, Note_on_c, 1, 59, 0
4, 9312, Note_on_c, 1, 47, 64
4, 9401, Note_on_c, 1, 47, 0
4, 9696, Note_on_c, 1, 54, 64
4, 9785, Note_on_c, 1, 54, 0
4, 9792, Note_on_c, 1, 52, 64
4, 9881, Note_on_c, 1, 52, 0
4, 10272, Note_on_c, 1, 64, 64
4, 10361, Note_on_c, 1, 64, 0
4, 10368, Note_on_c, 1, 63, 64
4, 10633, Note_on_c, 1, 63, 0
4, 10656, Note_on_c, 1, 64, 64
4, 10893, Note_on_c, 1, 64, 0
4, 10896, Note_on_c, 1, 65, 64
4, 10941, Note_on_c, 1, 65, 0
4, 10944, Note_on_c, 1, 66, 64
4, 11033, Note_on_c, 1, 66, 0
4, 11040, Note_on_c, 1, 54, 64
4, 11129, Note_on_c, 1, 54, 0
4, 11424, Note_on_c, 1, 70, 64
4, 11424, Note_on_c, 1, 64, 64
4, 11520, Note_on_c, 1, 70, 0
4, 11520, Note_on_c, 1, 64, 0
4, 11520, Note_on_c, 1, 71, 64
4, 11520, Note_on_c, 1, 63, 64
4, 11609, Note_on_c, 1, 71, 0
4, 11609, Note_on_c, 1, 63, 0
4, 11712, Note_on_c, 1, 70, 64
4, 11712, Note_on_c, 1, 64, 64
4, 11808, Note_on_c, 1, 70, 0
4, 11808, Note_on_c, 1, 64, 0
4, 11808, Note_on_c, 1, 71, 64
4, 11808, Note_on_c, 1, 63, 64
4, 11897, Note_on_c, 1, 71, 0
4, 11897, Note_on_c, 1, 63, 0
4, 12000, Note_on_c, 1, 58, 64
4, 12000, Note_on_c, 1, 52, 64
4, 12096, Note_on_c, 1, 58, 0
4, 12096, Note_on_c, 1, 52, 0
4, 12096, Note_on_c, 1, 59, 64
4, 12096, Note_on_c, 1, 51, 64
4, 12361, Note_on_c, 1, 59, 0
4, 12361, Note_on_c, 1, 51, 0
4, 12432, Note_on_c, 1, 64, 64
4, 12477, Note_on_c, 1, 64, 0
4, 12480, Note_on_c, 1, 63, 64
4, 12569, Note_on_c, 1, 63, 0
4, 12576, Note_on_c, 1, 61, 64
4, 12665, Note_on_c, 1, 61, 0
4, 12672, Note_on_c, 1, 59, 64
4, 12761, Note_on_c, 1, 59, 0
4, 12768, Note_on_c, 1, 47, 64
4, 12857, Note_on_c, 1, 47, 0
4, 12960, Note_on_c, 1, 62, 64
4, 12983, Note_on_c, 1, 62, 0
4, 12984, Note_on_c, 1, 54, 64
4, 13007, Note_on_c, 1, 54, 0
4, 13008, Note_on_c, 1, 53, 64
4, 13031, Note_on_c, 1, 53, 0
4, 13032, Note_on_c, 1, 54, 64
4, 13055, Note_on_c, 1, 54, 0
4, 13056, Note_on_c, 1, 59, 64
4, 13079, Note_on_c, 1, 59, 0
4, 13080, Note_on_c, 1, 54, 64
4, 13103, Note_on_c, 1, 54, 0
4, 13104, Note_on_c, 1, 58, 64
4, 13127, Note_on_c, 1, 58, 0
4, 13128, Note_on_c, 1, 54, 64
4, 13151, Note_on_c, 1, 54, 0
4, 13152, Note_on_c, 1, 59, 64
4, 13175, Note_on_c, 1, 59, 0
4, 13176, Note_on_c, 1, 54, 64
4, 13199, Note_on_c, 1, 54, 0
4, 13200, Note_on_c, 1, 61, 64
4, 13223, Note_on_c, 1, 61, 0
4, 13224, Note_on_c, 1, 54, 64
4, 13247, Note_on_c, 1, 54, 0
4, 13248, Note_on_c, 1, 62, 64
4, 13271, Note_on_c, 1, 62, 0
4, 13272, Note_on_c, 1, 54, 64
4, 13295, Note_on_c, 1, 54, 0
4, 13296, Note_on_c, 1, 53, 64
4, 13319, Note_on_c, 1, 53, 0
4, 13320, Note_on_c, 1, 54, 64
4, 13343, Note_on_c, 1, 54, 0
4, 13344, Note_on_c, 1, 59, 64
4, 13367, Note_on_c, 1, 59, 0
4, 13368, Note_on_c, 1, 54, 64
4, 13391, Note_on_c, 1, 54, 0
4, 13392, Note_on_c, 1, 58, 64
4, 13415, Note_on_c, 1, 58, 0
4, 13416, Note_on_c, 1, 54, 64
4, 13439, Note_on_c, 1, 54, 0
4, 13440, Note_on_c, 1, 59, 64
4, 13463, Note_on_c, 1, 59, 0
4, 13464, Note_on_c, 1, 54, 64
4, 13487, Note_on_c, 1, 54, 0
4, 13488, Note_on_c, 1, 61, 64
4, 13511, Note_on_c, 1, 61, 0
4, 13512, Note_on_c, 1, 54, 64
4, 13535, Note_on_c, 1, 54, 0
4, 13536, Note_on_c, 1, 47, 64
4, 13556, Note_on_c, 1, 47, 0
4, 13584, Note_on_c, 1, 49, 64
4, 13604, Note_on_c, 1, 49, 0
4, 13632, Note_on_c, 1, 50, 64
4, 13652, Note_on_c, 1, 50, 0
4, 13680, Note_on_c, 1, 46, 64
4, 13700, Note_on_c, 1, 46, 0
4, 13728, Note_on_c, 1, 47, 64
4, 13748, Note_on_c, 1, 47, 0
4, 13776, Note_on_c, 1, 49, 64
4, 13796, Note_on_c, 1, 49, 0
4, 13824, Note_on_c, 1, 50, 64
4, 13844, Note_on_c, 1, 50, 0
4, 13872, Note_on_c, 1, 49, 64
4, 13892, Note_on_c, 1, 49, 0
4, 13920, Note_on_c, 1, 50, 64
4, 13940, Note_on_c, 1, 50, 0
4, 13968, Note_on_c, 1, 47, 64
4, 13988, Note_on_c, 1, 47, 0
4, 14016, Note_on_c, 1, 49, 64
4, 14036, Note_on_c, 1, 49, 0
4, 14064, Note_on_c, 1, 50, 64
4, 14084, Note_on_c, 1, 50, 0
4, 14112, Note_on_c, 1, 52, 64
4, 14157, Note_on_c, 1, 52, 0
4, 14160, Note_on_c, 1, 55, 64
4, 14205, Note_on_c, 1, 55, 0
4, 14208, Note_on_c, 1, 52, 64
4, 14253, Note_on_c, 1, 52, 0
4, 14256, Note_on_c, 1, 50, 64
4, 14301, Note_on_c, 1, 50, 0
4, 14304, Note_on_c, 1, 49, 64
4, 14349, Note_on_c, 1, 49, 0
4, 14352, Note_on_c, 1, 47, 64
4, 14397, Note_on_c, 1, 47, 0
4, 14400, Note_on_c, 1, 45, 64
4, 14445, Note_on_c, 1, 45, 0
4, 14448, Note_on_c, 1, 47, 64
4, 14493, Note_on_c, 1, 47, 0
4, 14496, Note_on_c, 1, 49, 64
4, 14541, Note_on_c, 1, 49, 0
4, 14544, Note_on_c, 1, 47, 64
4, 14589, Note_on_c, 1, 47, 0
4, 14592, Note_on_c, 1, 49, 64
4, 14637, Note_on_c, 1, 49, 0
4, 14640, Note_on_c, 1, 45, 64
4, 14685, Note_on_c, 1, 45, 0
4, 14688, Note_on_c, 1, 62, 64
4, 14711, Note_on_c, 1, 62, 0
4, 14712, Note_on_c, 1, 57, 64
4, 14735, Note_on_c, 1, 57, 0
4, 14736, Note_on_c, 1, 59, 64
4, 14759, Note_on_c, 1, 59, 0
4, 14760, Note_on_c, 1, 57, 64
4, 14783, Note_on_c, 1, 57, 0
4, 14784, Note_on_c, 1, 59, 64
4, 14807, Note_on_c, 1, 59, 0
4, 14808, Note_on_c, 1, 52, 64
4, 14831, Note_on_c, 1, 52, 0
4, 14832, Note_on_c, 1, 54, 64
4, 14855, Note_on_c, 1, 54, 0
4, 14856, Note_on_c, 1, 52, 64
4, 14879, Note_on_c, 1, 52, 0
4, 14880, Note_on_c, 1, 55, 64
4, 14903, Note_on_c, 1, 55, 0
4, 14904, Note_on_c, 1, 49, 64
4, 14927, Note_on_c, 1, 49, 0
4, 14928, Note_on_c, 1, 50, 64
4, 14951, Note_on_c, 1, 50, 0
4, 14952, Note_on_c, 1, 49, 64
4, 14975, Note_on_c, 1, 49, 0
4, 14976, Note_on_c, 1, 50, 64
4, 15065, Note_on_c, 1, 50, 0
4, 15264, Note_on_c, 1, 62, 64
4, 15287, Note_on_c, 1, 62, 0
4, 15288, Note_on_c, 1, 54, 64
4, 15311, Note_on_c, 1, 54, 0
4, 15312, Note_on_c, 1, 53, 64
4, 15335, Note_on_c, 1, 53, 0
4, 15336, Note_on_c, 1, 54, 64
4, 15359, Note_on_c, 1, 54, 0
4, 15360, Note_on_c, 1, 59, 64
4, 15383, Note_on_c, 1, 59, 0
4, 15384, Note_on_c, 1, 54, 64
4, 15407, Note_on_c, 1, 54, 0
4, 15408, Note_on_c, 1, 58, 64
4, 15431, Note_on_c, 1, 58, 0
4, 15432, Note_on_c, 1, 54, 64
4, 15455, Note_on_c, 1, 54, 0
4, 15456, Note_on_c, 1, 59, 64
4, 15479, Note_on_c, 1, 59, 0
4, 15480, Note_on_c, 1, 54, 64
4, 15503, Note_on_c, 1, 54, 0
4, 15504, Note_on_c, 1, 61, 64
4, 15527, Note_on_c, 1, 61, 0
4, 15528, Note_on_c, 1, 54, 64
4, 15551, Note_on_c, 1, 54, 0
4, 15552, Note_on_c, 1, 62, 64
4, 15575, Note_on_c, 1, 62, 0
4, 15576, Note_on_c, 1, 54, 64
4, 15599, Note_on_c, 1, 54, 0
4, 15600, Note_on_c, 1, 53, 64
4, 15623, Note_on_c, 1, 53, 0
4, 15624, Note_on_c, 1, 54, 64
4, 15647, Note_on_c, 1, 54, 0
4, 15648, Note_on_c, 1, 59, 64
4, 15671, Note_on_c, 1, 59, 0
4, 15672, Note_on_c, 1, 54, 64
4, 15695, Note_on_c, 1, 54, 0
4, 15696, Note_on_c, 1, 58, 64
4, 15719, Note_on_c, 1, 58, 0
4, 15720, Note_on_c, 1, 54, 64
4, 15743, Note_on_c, 1, 54, 0
4, 15744, Note_on_c, 1, 59, 64
4, 15767, Note_on_c, 1, 59, 0
4, 15768, Note_on_c, 1, 54, 64
4, 15791, Note_on_c, 1, 54, 0
4, 15792, Note_on_c, 1, 61, 64
4, 15815, Note_on_c, 1, 61, 0
4, 15816, Note_on_c, 1, 54, 64
4, 15839, Note_on_c, 1, 54, 0
4, 15840, Note_on_c, 1, 47, 64
4, 15860, Note_on_c, 1, 47, 0
4, 15888, Note_on_c, 1, 49, 64
4, 15908, Note_on_c, 1, 49, 0
4, 15936, Note_on_c, 1, 50, 64
4, 15956, Note_on_c, 1, 50, 0
4, 15984, Note_on_c, 1, 46, 64
4, 16004, Note_on_c, 1, 46, 0
4, 16032, Note_on_c, 1, 47, 64
4, 16052, Note_on_c, 1, 47, 0
4, 16080, Note_on_c, 1, 49, 64
4, 16100, Note_on_c, 1, 49, 0
4, 16128, Note_on_c, 1, 50, 64
4, 16148, Note_on_c, 1, 50, 0
4, 16176, Note_on_c, 1, 49, 64
4, 16196, Note_on_c, 1, 49, 0
4, 16224, Note_on_c, 1, 50, 64
4, 16244, Note_on_c, 1, 50, 0
4, 16272, Note_on_c, 1, 47, 64
4, 16292, Note_on_c, 1, 47, 0
4, 16320, Note_on_c, 1, 49, 64
4, 16340, Note_on_c, 1, 49, 0
4, 16368, Note_on_c, 1, 50, 64
4, 16388, Note_on_c, 1, 50, 0
4, 16416, Note_on_c, 1, 52, 64
4, 16461, Note_on_c, 1, 52, 0
4, 16464, Note_on_c, 1, 55, 64
4, 16509, Note_on_c, 1, 55, 0
4, 16512, Note_on_c, 1, 52, 64
4, 16557, Note_on_c, 1, 52, 0
4, 16560, Note_on_c, 1, 50, 64
4, 16605, Note_on_c, 1, 50, 0
4, 16608, Note_on_c, 1, 49, 64
4, 16653, Note_on_c, 1, 49, 0
4, 16656, Note_on_c, 1, 47, 64
4, 16701, Note_on_c, 1, 47, 0
4, 16704, Note_on_c, 1, 45, 64
4, 16749, Note_on_c, 1, 45, 0
4, 16752, Note_on_c, 1, 47, 64
4, 16797, Note_on_c, 1, 47, 0
4, 16800, Note_on_c, 1, 49, 64
4, 16845, Note_on_c, 1, 49, 0
4, 16848, Note_on_c, 1, 47, 64
4, 16893, Note_on_c, 1, 47, 0
4, 16896, Note_on_c, 1, 49, 64
4, 16941, Note_on_c, 1, 49, 0
4, 16944, Note_on_c, 1, 45, 64
4, 16989, Note_on_c, 1, 45, 0
4, 16992, Note_on_c, 1, 62, 64
4, 17015, Note_on_c, 1, 62, 0
4, 17016, Note_on_c, 1, 57, 64
4, 17039, Note_on_c, 1, 57, 0
4, 17040, Note_on_c, 1, 59, 64
4, 17063, Note_on_c, 1, 59, 0
4, 17064, Note_on_c, 1, 57, 64
4, 17087, Note_on_c, 1, 57, 0
4, 17088, Note_on_c, 1, 59, 64
4, 17111, Note_on_c, 1, 59, 0
4, 17112, Note_on_c, 1, 52, 64
4, 17135, Note_on_c, 1, 52, 0
4, 17136, Note_on_c, 1, 54, 64
4, 17159, Note_on_c, 1, 54, 0
4, 17160, Note_on_c, 1, 52, 64
4, 17183, Note_on_c, 1, 52, 0
4, 17184, Note_on_c, 1, 55, 64
4, 17207, Note_on_c, 1, 55, 0
4, 17208, Note_on_c, 1, 49, 64
4, 17231, Note_on_c, 1, 49, 0
4, 17232, Note_on_c, 1, 50, 64
4, 17255, Note_on_c, 1, 50, 0
4, 17256, Note_on_c, 1, 49, 64
4, 17279, Note_on_c, 1, 49, 0
4, 17280, Note_on_c, 1, 50, 64
4, 17369, Note_on_c, 1, 50, 0
4, 17616, Note_on_c, 1, 54, 64
4, 17661, Note_on_c, 1, 54, 0
4, 17664, Note_on_c, 1, 58, 64
4, 17709, Note_on_c, 1, 58, 0
4, 17712, Note_on_c, 1, 61, 64
4, 17757, Note_on_c, 1, 61, 0
4, 17760, Note_on_c, 1, 64, 64
4, 17805, Note_on_c, 1, 64, 0
4, 17808, Note_on_c, 1, 61, 64
4, 17853, Note_on_c, 1, 61, 0
4, 17856, Note_on_c, 1, 62, 64
4, 17901, Note_on_c, 1, 62, 0
4, 17904, Note_on_c, 1, 54, 64
4, 17949, Note_on_c, 1, 54, 0
4, 17952, Note_on_c, 1, 59, 64
4, 17997, Note_on_c, 1, 59, 0
4, 18000, Note_on_c, 1, 50, 64
4, 18045, Note_on_c, 1, 50, 0
4, 18048, Note_on_c, 1, 54, 64
4, 18093, Note_on_c, 1, 54, 0
4, 18096, Note_on_c, 1, 47, 64
4, 18141, Note_on_c, 1, 47, 0
4, 18144, Note_on_c, 1, 46, 64
4, 18189, Note_on_c, 1, 46, 0
4, 18192, Note_on_c, 1, 49, 64
4, 18192, Note_on_c, 1, 37, 64
4, 18237, Note_on_c, 1, 49, 0
4, 18237, Note_on_c, 1, 37, 0
4, 18240, Note_on_c, 1, 52, 64
4, 18240, Note_on_c, 1, 40, 64
4, 18285, Note_on_c, 1, 52, 0
4, 18285, Note_on_c, 1, 40, 0
4, 18288, Note_on_c, 1, 49, 64
4, 18288, Note_on_c, 1, 37, 64
4, 18333, Note_on_c, 1, 49, 0
4, 18333, Note_on_c, 1, 37, 0
4, 18336, Note_on_c, 1, 50, 64
4, 18336, Note_on_c, 1, 38, 64
4, 18381, Note_on_c, 1, 50, 0
4, 18381, Note_on_c, 1, 38, 0
4, 18384, Note_on_c, 1, 47, 64
4, 18384, Note_on_c, 1, 35, 64
4, 18429, Note_on_c, 1, 47, 0
4, 18429, Note_on_c, 1, 35, 0
4, 18432, Note_on_c, 1, 42, 64
4, 18432, Note_on_c, 1, 30, 64
4, 18521, Note_on_c, 1, 42, 0
4, 18521, Note_on_c, 1, 30, 0
4, 18720, Note_on_c, 1, 62, 64
4, 18743, Note_on_c, 1, 62, 0
4, 18744, Note_on_c, 1, 54, 64
4, 18767, Note_on_c, 1, 54, 0
4, 18768, Note_on_c, 1, 53, 64
4, 18791, Note_on_c, 1, 53, 0
4, 18792, Note_on_c, 1, 54, 64
4, 18815, Note_on_c, 1, 54, 0
4, 18816, Note_on_c, 1, 59, 64
4, 18839, Note_on_c, 1, 59, 0
4, 18840, Note_on_c, 1, 54, 64
4, 18863, Note_on_c, 1, 54, 0
4, 18864, Note_on_c, 1, 58, 64
4, 18887, Note_on_c, 1, 58, 0
4, 18888, Note_on_c, 1, 54, 64
4, 18911, Note_on_c, 1, 54, 0
4, 18912, Note_on_c, 1, 59, 64
4, 18935, Note_on_c, 1, 59, 0
4, 18936, Note_on_c, 1, 54, 64
4, 18959, Note_on_c, 1, 54, 0
4, 18960, Note_on_c, 1, 61, 64
4, 18983, Note_on_c, 1, 61, 0
4, 18984, Note_on_c, 1, 54, 64
4, 19007, Note_on_c, 1, 54, 0
4, 19008, Note_on_c, 1, 62, 64
4, 19031, Note_on_c, 1, 62, 0
4, 19032, Note_on_c, 1, 54, 64
4, 19055, Note_on_c, 1, 54, 0
4, 19056, Note_on_c, 1, 53, 64
4, 19079, Note_on_c, 1, 53, 0
4, 19080, Note_on_c, 1, 54, 64
4, 19103, Note_on_c, 1, 54, 0
4, 19104, Note_on_c, 1, 59, 64
4, 19127, Note_on_c, 1, 59, 0
4, 19128, Note_on_c, 1, 54, 64
4, 19151, Note_on_c, 1, 54, 0
4, 19152, Note_on_c, 1, 58, 64
4, 19175, Note_on_c, 1, 58, 0
4, 19176, Note_on_c, 1, 54, 64
4, 19199, Note_on_c, 1, 54, 0
4, 19200, Note_on_c, 1, 59, 64
4, 19223, Note_on_c, 1, 59, 0
4, 19224, Note_on_c, 1, 54, 64
4, 19247, Note_on_c, 1, 54, 0
4, 19248, Note_on_c, 1, 61, 64
4, 19271, Note_on_c, 1, 61, 0
4, 19272, Note_on_c, 1, 54, 64
4, 19295, Note_on_c, 1, 54, 0
4, 19296, Note_on_c, 1, 47, 64
4, 19385, Note_on_c, 1, 47, 0
4, 19392, Note_on_c, 1, 49, 64
4, 19481, Note_on_c, 1, 49, 0
4, 19488, Note_on_c, 1, 50, 64
4, 19577, Note_on_c, 1, 50, 0
4, 19584, Note_on_c, 1, 52, 64
4, 19673, Note_on_c, 1, 52, 0
4, 19680, Note_on_c, 1, 50, 64
4, 19769, Note_on_c, 1, 50, 0
4, 19776, Note_on_c, 1, 49, 64
4, 19865, Note_on_c, 1, 49, 0
4, 19872, Note_on_c, 1, 47, 64
4, 19961, Note_on_c, 1, 47, 0
4, 19968, Note_on_c, 1, 40, 64
4, 20057, Note_on_c, 1, 40, 0
4, 20064, Note_on_c, 1, 42, 64
4, 20153, Note_on_c, 1, 42, 0
4, 20160, Note_on_c, 1, 35, 64
4, 20249, Note_on_c, 1, 35, 0
4, 20496, Note_on_c, 1, 54, 64
4, 20541, Note_on_c, 1, 54, 0
4, 20544, Note_on_c, 1, 58, 64
4, 20589, Note_on_c, 1, 58, 0
4, 20592, Note_on_c, 1, 61, 64
4, 20637, Note_on_c, 1, 61, 0
4, 20640, Note_on_c, 1, 64, 64
4, 20685, Note_on_c, 1, 64, 0
4, 20688, Note_on_c, 1, 61, 64
4, 20733, Note_on_c, 1, 61, 0
4, 20736, Note_on_c, 1, 62, 64
4, 20781, Note_on_c, 1, 62, 0
4, 20784, Note_on_c, 1, 54, 64
4, 20829, Note_on_c, 1, 54, 0
4, 20832, Note_on_c, 1, 59, 64
4, 20877, Note_on_c, 1, 59, 0
4, 20880, Note_on_c, 1, 50, 64
4, 20925, Note_on_c, 1, 50, 0
4, 20928, Note_on_c, 1, 54, 64
4, 20973, Note_on_c, 1, 54, 0
4, 20976, Note_on_c, 1, 47, 64
4, 21021, Note_on_c, 1, 47, 0
4, 21024, Note_on_c, 1, 46, 64
4, 21069, Note_on_c, 1, 46, 0
4, 21072, Note_on_c, 1, 49, 64
4, 21072, Note_on_c, 1, 37, 64
4, 21117, Note_on_c, 1, 49, 0
4, 21117, Note_on_c, 1, 37, 0
4, 21120, Note_on_c, 1, 52, 64
4, 21120, Note_on_c, 1, 40, 64
4, 21165, Note_on_c, 1, 52, 0
4, 21165, Note_on_c, 1, 40, 0
4, 21168, Note_on_c, 1, 49, 64
4, 21168, Note_on_c, 1, 37, 64
4, 21213, Note_on_c, 1, 49, 0
4, 21213, Note_on_c, 1, 37, 0
4, 21216, Note_on_c, 1, 50, 64
4, 21216, Note_on_c, 1, 38, 64
4, 21261, Note_on_c, 1, 50, 0
4, 21261, Note_on_c, 1, 38, 0
4, 21264, Note_on_c, 1, 47, 64
4, 21264, Note_on_c, 1, 35, 64
4, 21309, Note_on_c, 1, 47, 0
4, 21309, Note_on_c, 1, 35, 0
4, 21312, Note_on_c, 1, 42, 64
4, 21312, Note_on_c, 1, 30, 64
4, 21401, Note_on_c, 1, 42, 0
4, 21401, Note_on_c, 1, 30, 0
4, 21600, Note_on_c, 1, 62, 64
4, 21623, Note_on_c, 1, 62, 0
4, 21624, Note_on_c, 1, 54, 64
4, 21647, Note_on_c, 1, 54, 0
4, 21648, Note_on_c, 1, 53, 64
4, 21671, Note_on_c, 1, 53, 0
4, 21672, Note_on_c, 1, 54, 64
4, 21695, Note_on_c, 1, 54, 0
4, 21696, Note_on_c, 1, 59, 64
4, 21719, Note_on_c, 1, 59, 0
4, 21720, Note_on_c, 1, 54, 64
4, 21743, Note_on_c, 1, 54, 0
4, 21744, Note_on_c, 1, 58, 64
4, 21767, Note_on_c, 1, 58, 0
4, 21768, Note_on_c, 1, 54, 64
4, 21791, Note_on_c, 1, 54, 0
4, 21792, Note_on_c, 1, 59, 64
4, 21815, Note_on_c, 1, 59, 0
4, 21816, Note_on_c, 1, 54, 64
4, 21839, Note_on_c, 1, 54, 0
4, 21840, Note_on_c, 1, 61, 64
4, 21863, Note_on_c, 1, 61, 0
4, 21864, Note_on_c, 1, 54, 64
4, 21887, Note_on_c, 1, 54, 0
4, 21888, Note_on_c, 1, 62, 64
4, 21911, Note_on_c, 1, 62, 0
4, 21912, Note_on_c, 1, 54, 64
4, 21935, Note_on_c, 1, 54, 0
4, 21936, Note_on_c, 1, 53, 64
4, 21959, Note_on_c, 1, 53, 0
4, 21960, Note_on_c, 1, 54, 64
4, 21983, Note_on_c, 1, 54, 0
4, 21984, Note_on_c, 1, 59, 64
4, 22007, Note_on_c, 1, 59, 0
4, 22008, Note_on_c, 1, 54, 64
4, 22031, Note_on_c, 1, 54, 0
4, 22032, Note_on_c, 1, 58, 64
4, 22055, Note_on_c, 1, 58, 0
4, 22056, Note_on_c, 1, 54, 64
4, 22079, Note_on_c, 1, 54, 0
4, 22080, Note_on_c, 1, 59, 64
4, 22103, Note_on_c, 1, 59, 0
4, 22104, Note_on_c, 1, 54, 64
4, 22127, Note_on_c, 1, 54, 0
4, 22128, Note_on_c, 1, 61, 64
4, 22151, Note_on_c, 1, 61, 0
4, 22152, Note_on_c, 1, 54, 64
4, 22175, Note_on_c, 1, 54, 0
4, 22176, Note_on_c, 1, 47, 64
4, 22265, Note_on_c, 1, 47, 0
4, 22272, Note_on_c, 1, 49, 64
4, 22361, Note_on_c, 1, 49, 0
4, 22368, Note_on_c, 1, 50, 64
4, 22457, Note_on_c, 1, 50, 0
4, 22464, Note_on_c, 1, 52, 64
4, 22553, Note_on_c, 1, 52, 0
4, 22560, Note_on_c, 1, 50, 64
4, 22649, Note_on_c, 1, 50, 0
4, 22656, Note_on_c, 1, 49, 64
4, 22745, Note_on_c, 1, 49, 0
4, 22752, Note_on_c, 1, 47, 64
4, 22841, Note_on_c, 1, 47, 0
4, 22848, Note_on_c, 1, 40, 64
4, 22937, Note_on_c, 1, 40, 0
4, 22944, Note_on_c, 1, 42, 64
4, 23033, Note_on_c, 1, 42, 0
4, 23040, Note_on_c, 1, 35, 64
4, 23129, Note_on_c, 1, 35, 0
4, 23520, Note_on_c, 1, 71, 64
4, 23520, Note_on_c, 1, 63, 64
4, 23609, Note_on_c, 1, 71, 0
4, 23609, Note_on_c, 1, 63, 0
4, 23616, Note_on_c, 1, 71, 64
4, 23616, Note_on_c, 1, 64, 64
4, 23705, Note_on_c, 1, 71, 0
4, 23705, Note_on_c, 1, 64, 0
4, 23712, Note_on_c, 1, 71, 64
4, 23712, Note_on_c, 1, 63, 64
4, 23801, Note_on_c, 1, 71, 0
4, 23801, Note_on_c, 1, 63, 0
4, 24000, Note_on_c, 1, 68, 64
4, 24089, Note_on_c, 1, 68, 0
4, 24096, Note_on_c, 1, 66, 64
4, 24185, Note_on_c, 1, 66, 0
4, 24192, Note_on_c, 1, 64, 64
4, 24281, Note_on_c, 1, 64, 0
4, 24288, Note_on_c, 1, 63, 64
4, 24377, Note_on_c, 1, 63, 0
4, 24672, Note_on_c, 1, 65, 64
4, 24672, Note_on_c, 1, 59, 64
4, 24768, Note_on_c, 1, 65, 0
4, 24768, Note_on_c, 1, 59, 0
4, 24768, Note_on_c, 1, 66, 64
4, 24768, Note_on_c, 1, 58, 64
4, 24857, Note_on_c, 1, 66, 0
4, 24857, Note_on_c, 1, 58, 0
4, 24960, Note_on_c, 1, 65, 64
4, 24960, Note_on_c, 1, 59, 64
4, 25056, Note_on_c, 1, 65, 0
4, 25056, Note_on_c, 1, 59, 0
4, 25056, Note_on_c, 1, 66, 64
4, 25056, Note_on_c, 1, 58, 64
4, 25145, Note_on_c, 1, 66, 0
4, 25145, Note_on_c, 1, 58, 0
4, 25248, Note_on_c, 1, 65, 64
4, 25248, Note_on_c, 1, 59, 64
4, 25344, Note_on_c, 1, 65, 0
4, 25344, Note_on_c, 1, 59, 0
4, 25344, Note_on_c, 1, 66, 64
4, 25344, Note_on_c, 1, 58, 64
4, 25632, Note_on_c, 1, 58, 0
4, 25721, Note_on_c, 1, 66, 0
4, 25728, Note_on_c, 1, 66, 64
4, 25817, Note_on_c, 1, 66, 0
4, 25824, Note_on_c, 1, 65, 64
4, 25913, Note_on_c, 1, 65, 0
4, 25920, Note_on_c, 1, 54, 64
4, 26009, Note_on_c, 1, 54, 0
4, 26016, Note_on_c, 1, 42, 64
4, 26105, Note_on_c, 1, 42, 0
4, 26400, Note_on_c, 1, 71, 64
4, 26400, Note_on_c, 1, 63, 64
4, 26489, Note_on_c, 1, 71, 0
4, 26489, Note_on_c, 1, 63, 0
4, 26496, Note_on_c, 1, 71, 64
4, 26496, Note_on_c, 1, 64, 64
4, 26585, Note_on_c, 1, 71, 0
4, 26585, Note_on_c, 1, 64, 0
4, 26592, Note_on_c, 1, 71, 64
4, 26592, Note_on_c, 1, 63, 64
4, 26681, Note_on_c, 1, 71, 0
4, 26681, Note_on_c, 1, 63, 0
4, 26880, Note_on_c, 1, 68, 64
4, 26969, Note_on_c, 1, 68, 0
4, 26976, Note_on_c, 1, 66, 64
4, 27065, Note_on_c, 1, 66, 0
4, 27072, Note_on_c, 1, 64, 64
4, 27161, Note_on_c, 1, 64, 0
4, 27168, Note_on_c, 1, 63, 64
4, 27257, Note_on_c, 1, 63, 0
4, 27552, Note_on_c, 1, 65, 64
4, 27552, Note_on_c, 1, 59, 64
4, 27648, Note_on_c, 1, 65, 0
4, 27648, Note_on_c, 1, 59, 0
4, 27648, Note_on_c, 1, 66, 64
4, 27648, Note_on_c, 1, 58, 64
4, 27737, Note_on_c, 1, 66, 0
4, 27737, Note_on_c, 1, 58, 0
4, 27840, Note_on_c, 1, 65, 64
4, 27840, Note_on_c, 1, 59, 64
4, 27936, Note_on_c, 1, 65, 0
4, 27936, Note_on_c, 1, 59, 0
4, 27936, Note_on_c, 1, 66, 64
4, 27936, Note_on_c, 1, 58, 64
4, 28025, Note_on_c, 1, 66, 0
4, 28025, Note_on_c, 1, 58, 0
4, 28128, Note_on_c, 1, 65, 64
4, 28128, Note_on_c, 1, 59, 64
4, 28224, Note_on_c, 1, 65, 0
4, 28224, Note_on_c, 1, 59, 0
4, 28224, Note_on_c, 1, 66, 64
4, 28224, Note_on_c, 1, 58, 64
4, 28512, Note_on_c, 1, 58, 0
4, 28601, Note_on_c, 1, 66, 0
4, 28608, Note_on_c, 1, 66, 64
4, 28697, Note_on_c, 1, 66, 0
4, 28704, Note_on_c, 1, 65, 64
4, 28793, Note_on_c, 1, 65, 0
4, 28800, Note_on_c, 1, 54, 64
4, 28889, Note_on_c, 1, 54, 0
4, 28896, Note_on_c, 1, 42, 64
4, 28985, Note_on_c, 1, 42, 0
4, 29280, Note_on_c, 1, 54, 64
4, 29369, Note_on_c, 1, 54, 0
4, 29376, Note_on_c, 1, 52, 64
4, 29465, Note_on_c, 1, 52, 0
4, 29856, Note_on_c, 1, 64, 64
4, 29945, Note_on_c, 1, 64, 0
4, 29952, Note_on_c, 1, 63, 64
4, 30217, Note_on_c, 1, 63, 0
4, 30240, Note_on_c, 1, 64, 64
4, 30477, Note_on_c, 1, 64, 0
4, 30480, Note_on_c, 1, 65, 64
4, 30525, Note_on_c, 1, 65, 0
4, 30528, Note_on_c, 1, 66, 64
4, 30617, Note_on_c, 1, 66, 0
4, 30624, Note_on_c, 1, 54, 64
4, 30713, Note_on_c, 1, 54, 0
4, 31008, Note_on_c, 1, 70, 64
4, 31008, Note_on_c, 1, 64, 64
4, 31104, Note_on_c, 1, 70, 0
4, 31104, Note_on_c, 1, 64, 0
4, 31104, Note_on_c, 1, 71, 64
4, 31104, Note_on_c, 1, 63, 64
4, 31193, Note_on_c, 1, 71, 0
4, 31193, Note_on_c, 1, 63, 0
4, 31296, Note_on_c, 1, 70, 64
4, 31296, Note_on_c, 1, 64, 64
4, 31392, Note_on_c, 1, 70, 0
4, 31392, Note_on_c, 1, 64, 0
4, 31392, Note_on_c, 1, 71, 64
4, 31392, Note_on_c, 1, 63, 64
4, 31481, Note_on_c, 1, 71, 0
4, 31481, Note_on_c, 1, 63, 0
4, 31584, Note_on_c, 1, 58, 64
4, 31584, Note_on_c, 1, 52, 64
4, 31680, Note_on_c, 1, 58, 0
4, 31680, Note_on_c, 1, 52, 0
4, 31680, Note_on_c, 1, 59, 64
4, 31680, Note_on_c, 1, 51, 64
4, 31945, Note_on_c, 1, 59, 0
4, 31945, Note_on_c, 1, 51, 0
4, 32016, Note_on_c, 1, 64, 64
4, 32061, Note_on_c, 1, 64, 0
4, 32064, Note_on_c, 1, 63, 64
4, 32153, Note_on_c, 1, 63, 0
4, 32160, Note_on_c, 1, 61, 64
4, 32249, Note_on_c, 1, 61, 0
4, 32256, Note_on_c, 1, 59, 64
4, 32345, Note_on_c, 1, 59, 0
4, 32352, Note_on_c, 1, 47, 64
4, 32441, Note_on_c, 1, 47, 0
4, 32736, Note_on_c, 1, 54, 64
4, 32825, Note_on_c, 1, 54, 0
4, 32832, Note_on_c, 1, 52, 64
4, 32921, Note_on_c, 1, 52, 0
4, 33312, Note_on_c, 1, 64, 64
4, 33401, Note_on_c, 1, 64, 0
4, 33408, Note_on_c, 1, 63, 64
4, 33673, Note_on_c, 1, 63, 0
4, 33696, Note_on_c, 1, 64, 64
4, 33933, Note_on_c, 1, 64, 0
4, 33936, Note_on_c, 1, 65, 64
4, 33981, Note_on_c, 1, 65, 0
4, 33984, Note_on_c, 1, 66, 64
4, 34073, Note_on_c, 1, 66, 0
4, 34080, Note_on_c, 1, 54, 64
4, 34169, Note_on_c, 1, 54, 0
4, 34464, Note_on_c, 1, 70, 64
4, 34464, Note_on_c, 1, 64, 64
4, 34560, Note_on_c, 1, 70, 0
4, 34560, Note_on_c, 1, 64, 0
4, 34560, Note_on_c, 1, 71, 64
4, 34560, Note_on_c, 1, 63, 64
4, 34649, Note_on_c, 1, 71, 0
4, 34649, Note_on_c, 1, 63, 0
4, 34752, Note_on_c, 1, 70, 64
4, 34752, Note_on_c, 1, 64, 64
4, 34848, Note_on_c, 1, 70, 0
4, 34848, Note_on_c, 1, 64, 0
4, 34848, Note_on_c, 1, 71, 64
4, 34848, Note_on_c, 1, 63, 64
4, 34937, Note_on_c, 1, 71, 0
4, 34937, Note_on_c, 1, 63, 0
4, 35040, Note_on_c, 1, 58, 64
4, 35040, Note_on_c, 1, 52, 64
4, 35136, Note_on_c, 1, 58, 0
4, 35136, Note_on_c, 1, 52, 0
4, 35136, Note_on_c, 1, 59, 64
4, 35136, Note_on_c, 1, 51, 64
4, 35401, Note_on_c, 1, 59, 0
4, 35401, Note_on_c, 1, 51, 0
4, 35472, Note_on_c, 1, 64, 64
4, 35517, Note_on_c, 1, 64, 0
4, 35520, Note_on_c, 1, 63, 64
4, 35609, Note_on_c, 1, 63, 0
4, 35616, Note_on_c, 1, 61, 64
4, 35705, Note_on_c, 1, 61, 0
4, 35712, Note_on_c, 1, 59, 64
4, 35801, Note_on_c, 1, 59, 0
4, 35808, Note_on_c, 1, 47, 64
4, 35897, Note_on_c, 1, 47, 0
4, 36000, End_track
5, 0, Start_track
5, 0, Program_c, 1, 0
5, 0, Control_c, 1, 7, 127
5, 0, Control_c, 1, 10, 64
5, 2592, Note_on_c, 1, 59, 64
5, 2681, Note_on_c, 1, 59, 0
5, 2688, Note_on_c, 1, 61, 64
5, 2865, Note_on_c, 1, 61, 0
5, 5472, Note_on_c, 1, 59, 64
5, 5561, Note_on_c, 1, 59, 0
5, 5568, Note_on_c, 1, 61, 64
5, 5745, Note_on_c, 1, 61, 0
5, 8928, Note_on_c, 1, 52, 64
5, 9017, Note_on_c, 1, 52, 0
5, 9024, Note_on_c, 1, 54, 64
5, 9201, Note_on_c, 1, 54, 0
5, 12384, Note_on_c, 1, 52, 64
5, 12473, Note_on_c, 1, 52, 0
5, 12480, Note_on_c, 1, 54, 64
5, 12657, Note_on_c, 1, 54, 0
5, 12960, Note_on_c, 1, 47, 64
5, 12960, Note_on_c, 1, 35, 64
5, 13049, Note_on_c, 1, 47, 0
5, 13049, Note_on_c, 1, 35, 0
5, 13056, Note_on_c, 1, 50, 64
5, 13101, Note_on_c, 1, 50, 0
5, 13104, Note_on_c, 1, 49, 64
5, 13149, Note_on_c, 1, 49, 0
5, 13152, Note_on_c, 1, 50, 64
5, 13197, Note_on_c, 1, 50, 0
5, 13200, Note_on_c, 1, 46, 64
5, 13245, Note_on_c, 1, 46, 0
5, 13248, Note_on_c, 1, 47, 64
5, 13248, Note_on_c, 1, 35, 64
5, 13337, Note_on_c, 1, 47, 0
5, 13337, Note_on_c, 1, 35, 0
5, 13344, Note_on_c, 1, 50, 64
5, 13389, Note_on_c, 1, 50, 0
5, 13392, Note_on_c, 1, 49, 64
5, 13437, Note_on_c, 1, 49, 0
5, 13440, Note_on_c, 1, 50, 64
5, 13485, Note_on_c, 1, 50, 0
5, 13488, Note_on_c, 1, 46, 64
5, 13533, Note_on_c, 1, 46, 0
5, 14688, Note_on_c, 1, 42, 64
5, 14777, Note_on_c, 1, 42, 0
5, 14784, Note_on_c, 1, 43, 64
5, 14873, Note_on_c, 1, 43, 0
5, 14880, Note_on_c, 1, 45, 64
5, 14969, Note_on_c, 1, 45, 0
5, 14976, Note_on_c, 1, 38, 64
5, 15065, Note_on_c, 1, 38, 0
5, 15072, Note_on_c, 1, 50, 64
5, 15161, Note_on_c, 1, 50, 0
5, 15264, Note_on_c, 1, 47, 64
5, 15264, Note_on_c, 1, 35, 64
5, 15353, Note_on_c, 1, 47, 0
5, 15353, Note_on_c, 1, 35, 0
5, 15360, Note_on_c, 1, 50, 64
5, 15405, Note_on_c, 1, 50, 0
5, 15408, Note_on_c, 1, 49, 64
5, 15453, Note_on_c, 1, 49, 0
5, 15456, Note_on_c, 1, 50, 64
5, 15501, Note_on_c, 1, 50, 0
5, 15504, Note_on_c, 1, 46, 64
5, 15549, Note_on_c, 1, 46, 0
5, 15552, Note_on_c, 1, 47, 64
5, 15552, Note_on_c, 1, 35, 64
5, 15641, Note_on_c, 1, 47, 0
5, 15641, Note_on_c, 1, 35, 0
5, 15648, Note_on_c, 1, 50, 64
5, 15693, Note_on_c, 1, 50, 0
5, 15696, Note_on_c, 1, 49, 64
5, 15741, Note_on_c, 1, 49, 0
5, 15744, Note_on_c, 1, 50, 64
5, 15789, Note_on_c, 1, 50, 0
5, 15792, Note_on_c, 1, 46, 64
5, 15837, Note_on_c, 1, 46, 0
5, 16992, Note_on_c, 1, 42, 64
5, 17081, Note_on_c, 1, 42, 0
5, 17088, Note_on_c, 1, 43, 64
5, 17177, Note_on_c, 1, 43, 0
5, 17184, Note_on_c, 1, 45, 64
5, 17273, Note_on_c, 1, 45, 0
5, 17280, Note_on_c, 1, 38, 64
5, 17369, Note_on_c, 1, 38, 0
5, 17376, Note_on_c, 1, 50, 64
5, 17465, Note_on_c, 1, 50, 0
5, 18720, Note_on_c, 1, 47, 64
5, 18720, Note_on_c, 1, 35, 64
5, 18809, Note_on_c, 1, 47, 0
5, 18809, Note_on_c, 1, 35, 0
5, 18816, Note_on_c, 1, 50, 64
5, 18861, Note_on_c, 1, 50, 0
5, 18864, Note_on_c, 1, 49, 64
5, 18909, Note_on_c, 1, 49, 0
5, 18912, Note_on_c, 1, 50, 64
5, 18957, Note_on_c, 1, 50, 0
5, 18960, Note_on_c, 1, 46, 64
5, 19005, Note_on_c, 1, 46, 0
5, 19008, Note_on_c, 1, 47, 64
5, 19008, Note_on_c, 1, 35, 64
5, 19097, Note_on_c, 1, 47, 0
5, 19097, Note_on_c, 1, 35, 0
5, 19104, Note_on_c, 1, 50, 64
5, 19149, Note_on_c, 1, 50, 0
5, 19152, Note_on_c, 1, 49, 64
5, 19197, Note_on_c, 1, 49, 0
5, 19200, Note_on_c, 1, 50, 64
5, 19245, Note_on_c, 1, 50, 0
5, 19248, Note_on_c, 1, 46, 64
5, 19293, Note_on_c, 1, 46, 0
5, 21600, Note_on_c, 1, 47, 64
5, 21600, Note_on_c, 1, 35, 64
5, 21689, Note_on_c, 1, 47, 0
5, 21689, Note_on_c, 1, 35, 0
5, 21696, Note_on_c, 1, 50, 64
5, 21741, Note_on_c, 1, 50, 0
5, 21744, Note_on_c, 1, 49, 64
5, 21789, Note_on_c, 1, 49, 0
5, 21792, Note_on_c, 1, 50, 64
5, 21837, Note_on_c, 1, 50, 0
5, 21840, Note_on_c, 1, 46, 64
5, 21885, Note_on_c, 1, 46, 0
5, 21888, Note_on_c, 1, 47, 64
5, 21888, Note_on_c, 1, 35, 64
5, 21977, Note_on_c, 1, 47, 0
5, 21977, Note_on_c, 1, 35, 0
5, 21984, Note_on_c, 1, 50, 64
5, 22029, Note_on_c, 1, 50, 0
5, 22032, Note_on_c, 1, 49, 64
5, 22077, Note_on_c, 1, 49, 0
5, 22080, Note_on_c, 1, 50, 64
5, 22125, Note_on_c, 1, 50, 0
5, 22128, Note_on_c, 1, 46, 64
5, 22173, Note_on_c, 1, 46, 0
5, 25632, Note_on_c, 1, 59, 64
5, 25721, Note_on_c, 1, 59, 0
5, 25728, Note_on_c, 1, 61, 64
5, 25905, Note_on_c, 1, 61, 0
5, 28512, Note_on_c, 1, 59, 64
5, 28601, Note_on_c, 1, 59, 0
5, 28608, Note_on_c, 1, 61, 64
5, 28785, Note_on_c, 1, 61, 0
5, 31968, Note_on_c, 1, 52, 64
5, 32057, Note_on_c, 1, 52, 0
5, 32064, Note_on_c, 1, 54, 64
5, 32241, Note_on_c, 1, 54, 0
5, 35424, Note_on_c, 1, 52, 64
5, 35513, Note_on_c, 1, 52, 0
5, 35520, Note_on_c, 1, 54, 64
5, 35697, Note_on_c, 1, 54, 0
5, 36000, End_track
6, 0, Start_track
6, 0, Title_t, "Sonata VI   Haydn  "
6, 0, End_track
0, 0, End_of_file
