0, 0, Header, 1, 6, 96
1, 0, Start_track
1, 0, Copyright_t, "Copyright  2000 <copyright holder>"
1, 0, Text_t, "Sonata I\015\012"
1, 0, Text_t, "Haydn\015\012"
1, 0, Sequencer_specific, 16, 68, 87, 77, 90, 86, 82, 83, 78, 32, 55, 46, 48, 46, 56, 46, 48
1, 0, Time_signature, 2, 2, 24, 8
1, 0, Tempo, 500000
1, 0, Key_signature, 0, "major"
1, 144, Tempo, 821917
1, 3456, Tempo, 952380
1, 3600, Tempo, 821917
1, 9792, Tempo, 952380
1, 9936, Tempo, 821917
1, 11088, Tempo, 821917
1, 14400, Tempo, 952380
1, 14544, Tempo, 821917
1, 20736, Tempo, 952380
1, 20880, Tempo, 821917
1, 32640, Tempo, 952380
1, 32784, Tempo, 821917
1, 38400, Tempo, 952380
1, 38544, Tempo, 821917
1, 50304, Tempo, 952380
1, 50448, Tempo, 821917
1, 56064, Tempo, 952380
1, 56208, Tempo, 821917
1, 57408, End_track
2, 0, Start_track
2, 0, Program_c, 0, 0
2, 0, Control_c, 0, 7, 127
2, 0, Control_c, 0, 10, 64
2, 144, Note_on_c, 0, 72, 78
2, 178, Note_on_c, 0, 72, 0
2, 180, Note_on_c, 0, 76, 78
2, 192, Note_on_c, 0, 76, 0
2, 192, Note_on_c, 0, 79, 78
2, 226, Note_on_c, 0, 79, 0
2, 228, Note_on_c, 0, 76, 80
2, 240, Note_on_c, 0, 76, 0
2, 240, Note_on_c, 0, 84, 97
2, 322, Note_on_c, 0, 84, 0
2, 324, Note_on_c, 0, 83, 82
2, 336, Note_on_c, 0, 83, 0
2, 336, Note_on_c, 0, 81, 81
2, 370, Note_on_c, 0, 81, 0
2, 372, Note_on_c, 0, 79, 78
2, 384, Note_on_c, 0, 79, 0
2, 384, Note_on_c, 0, 79, 78
2, 473, Note_on_c, 0, 79, 0
2, 480, Note_on_c, 0, 77, 78
2, 486, Note_on_c, 0, 77, 0
2, 486, Note_on_c, 0, 79, 78
2, 492, Note_on_c, 0, 79, 0
2, 492, Note_on_c, 0, 77, 78
2, 514, Note_on_c, 0, 77, 0
2, 516, Note_on_c, 0, 76, 78
2, 528, Note_on_c, 0, 76, 0
2, 528, Note_on_c, 0, 74, 78
2, 534, Note_on_c, 0, 74, 0
2, 534, Note_on_c, 0, 76, 78
2, 540, Note_on_c, 0, 76, 0
2, 540, Note_on_c, 0, 74, 78
2, 562, Note_on_c, 0, 74, 0
2, 564, Note_on_c, 0, 72, 78
2, 576, Note_on_c, 0, 72, 0
2, 576, Note_on_c, 0, 72, 78
2, 672, Note_on_c, 0, 72, 0
2, 672, Note_on_c, 0, 71, 78
2, 678, Note_on_c, 0, 71, 0
2, 678, Note_on_c, 0, 72, 78
2, 684, Note_on_c, 0, 72, 0
2, 684, Note_on_c, 0, 71, 78
2, 706, Note_on_c, 0, 71, 0
2, 708, Note_on_c, 0, 81, 78
2, 720, Note_on_c, 0, 81, 0
2, 720, Note_on_c, 0, 79, 78
2, 754, Note_on_c, 0, 79, 0
2, 756, Note_on_c, 0, 77, 78
2, 768, Note_on_c, 0, 77, 0
2, 768, Note_on_c, 0, 77, 78
2, 857, Note_on_c, 0, 77, 0
2, 864, Note_on_c, 0, 77, 78
2, 870, Note_on_c, 0, 77, 0
2, 870, Note_on_c, 0, 76, 78
2, 876, Note_on_c, 0, 76, 0
2, 876, Note_on_c, 0, 74, 78
2, 882, Note_on_c, 0, 74, 0
2, 882, Note_on_c, 0, 76, 78
2, 898, Note_on_c, 0, 76, 0
2, 900, Note_on_c, 0, 79, 78
2, 912, Note_on_c, 0, 79, 0
2, 912, Note_on_c, 0, 72, 78
2, 946, Note_on_c, 0, 72, 0
2, 948, Note_on_c, 0, 76, 78
2, 960, Note_on_c, 0, 76, 0
2, 960, Note_on_c, 0, 69, 78
2, 994, Note_on_c, 0, 69, 0
2, 996, Note_on_c, 0, 73, 78
2, 1008, Note_on_c, 0, 73, 0
2, 1008, Note_on_c, 0, 74, 78
2, 1014, Note_on_c, 0, 74, 0
2, 1014, Note_on_c, 0, 73, 78
2, 1020, Note_on_c, 0, 73, 0
2, 1020, Note_on_c, 0, 74, 78
2, 1042, Note_on_c, 0, 74, 0
2, 1044, Note_on_c, 0, 77, 78
2, 1056, Note_on_c, 0, 77, 0
2, 1056, Note_on_c, 0, 76, 78
2, 1090, Note_on_c, 0, 76, 0
2, 1092, Note_on_c, 0, 79, 78
2, 1104, Note_on_c, 0, 79, 0
2, 1104, Note_on_c, 0, 71, 78
2, 1138, Note_on_c, 0, 71, 0
2, 1140, Note_on_c, 0, 74, 78
2, 1152, Note_on_c, 0, 74, 0
2, 1152, Note_on_c, 0, 72, 78
2, 1191, Note_on_c, 0, 72, 0
2, 1296, Note_on_c, 0, 60, 78
2, 1330, Note_on_c, 0, 60, 0
2, 1332, Note_on_c, 0, 64, 80
2, 1344, Note_on_c, 0, 64, 0
2, 1344, Note_on_c, 0, 67, 81
2, 1378, Note_on_c, 0, 67, 0
2, 1380, Note_on_c, 0, 64, 84
2, 1392, Note_on_c, 0, 64, 0
2, 1392, Note_on_c, 0, 72, 101
2, 1474, Note_on_c, 0, 72, 0
2, 1476, Note_on_c, 0, 71, 80
2, 1488, Note_on_c, 0, 71, 0
2, 1488, Note_on_c, 0, 69, 80
2, 1522, Note_on_c, 0, 69, 0
2, 1524, Note_on_c, 0, 67, 78
2, 1536, Note_on_c, 0, 67, 0
2, 1536, Note_on_c, 0, 67, 78
2, 1625, Note_on_c, 0, 67, 0
2, 1632, Note_on_c, 0, 65, 78
2, 1638, Note_on_c, 0, 65, 0
2, 1638, Note_on_c, 0, 67, 78
2, 1644, Note_on_c, 0, 67, 0
2, 1644, Note_on_c, 0, 65, 78
2, 1666, Note_on_c, 0, 65, 0
2, 1668, Note_on_c, 0, 64, 78
2, 1680, Note_on_c, 0, 64, 0
2, 1680, Note_on_c, 0, 62, 78
2, 1686, Note_on_c, 0, 62, 0
2, 1686, Note_on_c, 0, 64, 78
2, 1692, Note_on_c, 0, 64, 0
2, 1692, Note_on_c, 0, 62, 78
2, 1714, Note_on_c, 0, 62, 0
2, 1716, Note_on_c, 0, 60, 78
2, 1728, Note_on_c, 0, 60, 0
2, 1728, Note_on_c, 0, 60, 78
2, 1824, Note_on_c, 0, 60, 0
2, 1824, Note_on_c, 0, 59, 78
2, 1839, Note_on_c, 0, 59, 0
2, 1840, Note_on_c, 0, 62, 78
2, 1855, Note_on_c, 0, 62, 0
2, 1856, Note_on_c, 0, 65, 78
2, 1871, Note_on_c, 0, 65, 0
2, 1872, Note_on_c, 0, 69, 78
2, 1887, Note_on_c, 0, 69, 0
2, 1888, Note_on_c, 0, 67, 78
2, 1903, Note_on_c, 0, 67, 0
2, 1904, Note_on_c, 0, 65, 78
2, 1919, Note_on_c, 0, 65, 0
2, 1920, Note_on_c, 0, 65, 78
2, 2016, Note_on_c, 0, 65, 0
2, 2016, Note_on_c, 0, 64, 78
2, 2022, Note_on_c, 0, 64, 0
2, 2022, Note_on_c, 0, 65, 78
2, 2028, Note_on_c, 0, 65, 0
2, 2028, Note_on_c, 0, 64, 78
2, 2063, Note_on_c, 0, 64, 0
2, 2148, Note_on_c, 0, 60, 78
2, 2160, Note_on_c, 0, 60, 0
2, 2160, Note_on_c, 0, 64, 78
2, 2194, Note_on_c, 0, 64, 0
2, 2196, Note_on_c, 0, 67, 80
2, 2208, Note_on_c, 0, 67, 0
2, 2208, Note_on_c, 0, 72, 80
2, 2242, Note_on_c, 0, 72, 0
2, 2244, Note_on_c, 0, 67, 82
2, 2244, Note_on_c, 0, 64, 82
2, 2256, Note_on_c, 0, 67, 0
2, 2256, Note_on_c, 0, 64, 0
2, 2256, Note_on_c, 0, 67, 83
2, 2256, Note_on_c, 0, 64, 83
2, 2290, Note_on_c, 0, 67, 0
2, 2290, Note_on_c, 0, 64, 0
2, 2292, Note_on_c, 0, 67, 85
2, 2292, Note_on_c, 0, 64, 85
2, 2304, Note_on_c, 0, 67, 0
2, 2304, Note_on_c, 0, 64, 0
2, 2304, Note_on_c, 0, 67, 84
2, 2304, Note_on_c, 0, 64, 84
2, 2400, Note_on_c, 0, 67, 0
2, 2400, Note_on_c, 0, 64, 0
2, 2400, Note_on_c, 0, 69, 80
2, 2400, Note_on_c, 0, 65, 80
2, 2445, Note_on_c, 0, 69, 0
2, 2445, Note_on_c, 0, 65, 0
2, 2532, Note_on_c, 0, 65, 78
2, 2544, Note_on_c, 0, 65, 0
2, 2544, Note_on_c, 0, 77, 78
2, 2544, Note_on_c, 0, 69, 78
2, 2578, Note_on_c, 0, 77, 0
2, 2578, Note_on_c, 0, 69, 0
2, 2580, Note_on_c, 0, 77, 80
2, 2580, Note_on_c, 0, 69, 80
2, 2592, Note_on_c, 0, 77, 0
2, 2592, Note_on_c, 0, 69, 0
2, 2592, Note_on_c, 0, 77, 80
2, 2592, Note_on_c, 0, 69, 80
2, 2626, Note_on_c, 0, 77, 0
2, 2626, Note_on_c, 0, 69, 0
2, 2628, Note_on_c, 0, 72, 82
2, 2628, Note_on_c, 0, 69, 82
2, 2640, Note_on_c, 0, 72, 0
2, 2640, Note_on_c, 0, 69, 0
2, 2640, Note_on_c, 0, 70, 83
2, 2640, Note_on_c, 0, 67, 83
2, 2674, Note_on_c, 0, 70, 0
2, 2674, Note_on_c, 0, 67, 0
2, 2676, Note_on_c, 0, 69, 85
2, 2676, Note_on_c, 0, 65, 85
2, 2688, Note_on_c, 0, 69, 0
2, 2688, Note_on_c, 0, 65, 0
2, 2688, Note_on_c, 0, 69, 84
2, 2688, Note_on_c, 0, 65, 84
2, 2784, Note_on_c, 0, 69, 0
2, 2784, Note_on_c, 0, 65, 0
2, 2784, Note_on_c, 0, 67, 80
2, 2784, Note_on_c, 0, 64, 80
2, 2829, Note_on_c, 0, 67, 0
2, 2829, Note_on_c, 0, 64, 0
2, 2916, Note_on_c, 0, 67, 78
2, 2928, Note_on_c, 0, 67, 0
2, 2928, Note_on_c, 0, 76, 78
2, 2962, Note_on_c, 0, 76, 0
2, 2964, Note_on_c, 0, 74, 78
2, 2976, Note_on_c, 0, 74, 0
2, 2976, Note_on_c, 0, 72, 78
2, 3010, Note_on_c, 0, 72, 0
2, 3012, Note_on_c, 0, 71, 78
2, 3024, Note_on_c, 0, 71, 0
2, 3024, Note_on_c, 0, 69, 78
2, 3058, Note_on_c, 0, 69, 0
2, 3060, Note_on_c, 0, 67, 78
2, 3072, Note_on_c, 0, 67, 0
2, 3072, Note_on_c, 0, 67, 78
2, 3106, Note_on_c, 0, 67, 0
2, 3108, Note_on_c, 0, 66, 78
2, 3120, Note_on_c, 0, 66, 0
2, 3120, Note_on_c, 0, 74, 78
2, 3154, Note_on_c, 0, 74, 0
2, 3156, Note_on_c, 0, 65, 78
2, 3168, Note_on_c, 0, 65, 0
2, 3168, Note_on_c, 0, 65, 78
2, 3202, Note_on_c, 0, 65, 0
2, 3204, Note_on_c, 0, 64, 78
2, 3216, Note_on_c, 0, 64, 0
2, 3216, Note_on_c, 0, 72, 78
2, 3250, Note_on_c, 0, 72, 0
2, 3252, Note_on_c, 0, 61, 85
2, 3264, Note_on_c, 0, 61, 0
2, 3264, Note_on_c, 0, 62, 85
2, 3279, Note_on_c, 0, 62, 0
2, 3300, Note_on_c, 0, 64, 85
2, 3312, Note_on_c, 0, 64, 0
2, 3312, Note_on_c, 0, 65, 85
2, 3327, Note_on_c, 0, 65, 0
2, 3348, Note_on_c, 0, 66, 85
2, 3360, Note_on_c, 0, 66, 0
2, 3360, Note_on_c, 0, 67, 85
2, 3375, Note_on_c, 0, 67, 0
2, 3396, Note_on_c, 0, 68, 85
2, 3408, Note_on_c, 0, 68, 0
2, 3408, Note_on_c, 0, 69, 85
2, 3423, Note_on_c, 0, 69, 0
2, 3444, Note_on_c, 0, 65, 85
2, 3444, Note_on_c, 0, 62, 85
2, 3456, Note_on_c, 0, 65, 0
2, 3456, Note_on_c, 0, 62, 0
2, 3456, Note_on_c, 0, 64, 85
2, 3456, Note_on_c, 0, 60, 85
2, 3552, Note_on_c, 0, 64, 0
2, 3552, Note_on_c, 0, 60, 0
2, 3552, Note_on_c, 0, 62, 85
2, 3552, Note_on_c, 0, 59, 85
2, 3572, Note_on_c, 0, 62, 0
2, 3572, Note_on_c, 0, 59, 0
2, 3600, Note_on_c, 0, 71, 78
2, 3634, Note_on_c, 0, 71, 0
2, 3636, Note_on_c, 0, 74, 78
2, 3648, Note_on_c, 0, 74, 0
2, 3648, Note_on_c, 0, 79, 78
2, 3682, Note_on_c, 0, 79, 0
2, 3684, Note_on_c, 0, 74, 78
2, 3696, Note_on_c, 0, 74, 0
2, 3696, Note_on_c, 0, 83, 94
2, 3759, Note_on_c, 0, 83, 0
2, 3760, Note_on_c, 0, 78, 78
2, 3775, Note_on_c, 0, 78, 0
2, 3776, Note_on_c, 0, 79, 78
2, 3791, Note_on_c, 0, 79, 0
2, 3792, Note_on_c, 0, 83, 78
2, 3807, Note_on_c, 0, 83, 0
2, 3808, Note_on_c, 0, 79, 78
2, 3823, Note_on_c, 0, 79, 0
2, 3824, Note_on_c, 0, 76, 78
2, 3839, Note_on_c, 0, 76, 0
2, 3840, Note_on_c, 0, 74, 78
2, 3885, Note_on_c, 0, 74, 0
2, 3888, Note_on_c, 0, 72, 78
2, 3894, Note_on_c, 0, 72, 0
2, 3894, Note_on_c, 0, 74, 78
2, 3900, Note_on_c, 0, 74, 0
2, 3900, Note_on_c, 0, 72, 78
2, 3935, Note_on_c, 0, 72, 0
2, 3984, Note_on_c, 0, 72, 78
2, 4018, Note_on_c, 0, 72, 0
2, 4020, Note_on_c, 0, 78, 78
2, 4032, Note_on_c, 0, 78, 0
2, 4032, Note_on_c, 0, 81, 78
2, 4066, Note_on_c, 0, 81, 0
2, 4068, Note_on_c, 0, 78, 78
2, 4080, Note_on_c, 0, 78, 0
2, 4080, Note_on_c, 0, 84, 94
2, 4143, Note_on_c, 0, 84, 0
2, 4144, Note_on_c, 0, 81, 78
2, 4159, Note_on_c, 0, 81, 0
2, 4160, Note_on_c, 0, 78, 78
2, 4175, Note_on_c, 0, 78, 0
2, 4176, Note_on_c, 0, 81, 78
2, 4191, Note_on_c, 0, 81, 0
2, 4192, Note_on_c, 0, 78, 78
2, 4207, Note_on_c, 0, 78, 0
2, 4208, Note_on_c, 0, 74, 78
2, 4223, Note_on_c, 0, 74, 0
2, 4224, Note_on_c, 0, 72, 78
2, 4269, Note_on_c, 0, 72, 0
2, 4272, Note_on_c, 0, 71, 78
2, 4278, Note_on_c, 0, 71, 0
2, 4278, Note_on_c, 0, 72, 78
2, 4284, Note_on_c, 0, 72, 0
2, 4284, Note_on_c, 0, 71, 78
2, 4319, Note_on_c, 0, 71, 0
2, 4368, Note_on_c, 0, 74, 78
2, 4402, Note_on_c, 0, 74, 0
2, 4404, Note_on_c, 0, 79, 78
2, 4416, Note_on_c, 0, 79, 0
2, 4416, Note_on_c, 0, 83, 78
2, 4450, Note_on_c, 0, 83, 0
2, 4452, Note_on_c, 0, 79, 78
2, 4464, Note_on_c, 0, 79, 0
2, 4464, Note_on_c, 0, 86, 94
2, 4527, Note_on_c, 0, 86, 0
2, 4528, Note_on_c, 0, 84, 78
2, 4543, Note_on_c, 0, 84, 0
2, 4544, Note_on_c, 0, 83, 78
2, 4559, Note_on_c, 0, 83, 0
2, 4560, Note_on_c, 0, 81, 78
2, 4575, Note_on_c, 0, 81, 0
2, 4576, Note_on_c, 0, 79, 78
2, 4591, Note_on_c, 0, 79, 0
2, 4592, Note_on_c, 0, 78, 78
2, 4607, Note_on_c, 0, 78, 0
2, 4608, Note_on_c, 0, 76, 78
2, 4719, Note_on_c, 0, 76, 0
2, 4720, Note_on_c, 0, 84, 78
2, 4735, Note_on_c, 0, 84, 0
2, 4736, Note_on_c, 0, 83, 78
2, 4751, Note_on_c, 0, 83, 0
2, 4752, Note_on_c, 0, 81, 78
2, 4767, Note_on_c, 0, 81, 0
2, 4768, Note_on_c, 0, 79, 78
2, 4783, Note_on_c, 0, 79, 0
2, 4784, Note_on_c, 0, 78, 78
2, 4799, Note_on_c, 0, 78, 0
2, 4800, Note_on_c, 0, 76, 78
2, 4848, Note_on_c, 0, 76, 0
2, 4848, Note_on_c, 0, 74, 78
2, 4889, Note_on_c, 0, 74, 0
2, 4912, Note_on_c, 0, 83, 78
2, 4927, Note_on_c, 0, 83, 0
2, 4928, Note_on_c, 0, 81, 78
2, 4943, Note_on_c, 0, 81, 0
2, 4944, Note_on_c, 0, 79, 78
2, 4959, Note_on_c, 0, 79, 0
2, 4960, Note_on_c, 0, 78, 78
2, 4975, Note_on_c, 0, 78, 0
2, 4976, Note_on_c, 0, 76, 78
2, 4991, Note_on_c, 0, 76, 0
2, 4992, Note_on_c, 0, 74, 78
2, 5026, Note_on_c, 0, 74, 0
2, 5028, Note_on_c, 0, 72, 78
2, 5040, Note_on_c, 0, 72, 0
2, 5040, Note_on_c, 0, 81, 78
2, 5074, Note_on_c, 0, 81, 0
2, 5076, Note_on_c, 0, 72, 78
2, 5088, Note_on_c, 0, 72, 0
2, 5088, Note_on_c, 0, 72, 78
2, 5122, Note_on_c, 0, 72, 0
2, 5124, Note_on_c, 0, 71, 78
2, 5136, Note_on_c, 0, 71, 0
2, 5136, Note_on_c, 0, 79, 78
2, 5170, Note_on_c, 0, 79, 0
2, 5172, Note_on_c, 0, 71, 78
2, 5172, Note_on_c, 0, 67, 78
2, 5184, Note_on_c, 0, 71, 0
2, 5184, Note_on_c, 0, 67, 0
2, 5184, Note_on_c, 0, 69, 78
2, 5184, Note_on_c, 0, 66, 78
2, 5273, Note_on_c, 0, 69, 0
2, 5273, Note_on_c, 0, 66, 0
2, 5328, Note_on_c, 0, 66, 80
2, 5362, Note_on_c, 0, 66, 0
2, 5364, Note_on_c, 0, 78, 81
2, 5376, Note_on_c, 0, 78, 0
2, 5376, Note_on_c, 0, 67, 81
2, 5410, Note_on_c, 0, 67, 0
2, 5412, Note_on_c, 0, 79, 82
2, 5424, Note_on_c, 0, 79, 0
2, 5424, Note_on_c, 0, 69, 82
2, 5458, Note_on_c, 0, 69, 0
2, 5460, Note_on_c, 0, 81, 83
2, 5472, Note_on_c, 0, 81, 0
2, 5472, Note_on_c, 0, 71, 83
2, 5506, Note_on_c, 0, 71, 0
2, 5508, Note_on_c, 0, 83, 84
2, 5520, Note_on_c, 0, 83, 0
2, 5520, Note_on_c, 0, 73, 84
2, 5554, Note_on_c, 0, 73, 0
2, 5556, Note_on_c, 0, 85, 85
2, 5568, Note_on_c, 0, 85, 0
2, 5568, Note_on_c, 0, 74, 85
2, 5602, Note_on_c, 0, 74, 0
2, 5604, Note_on_c, 0, 86, 83
2, 5616, Note_on_c, 0, 86, 0
2, 5616, Note_on_c, 0, 85, 83
2, 5650, Note_on_c, 0, 85, 0
2, 5652, Note_on_c, 0, 86, 81
2, 5664, Note_on_c, 0, 86, 0
2, 5664, Note_on_c, 0, 84, 81
2, 5698, Note_on_c, 0, 84, 0
2, 5700, Note_on_c, 0, 86, 79
2, 5712, Note_on_c, 0, 86, 0
2, 5712, Note_on_c, 0, 81, 79
2, 5746, Note_on_c, 0, 81, 0
2, 5748, Note_on_c, 0, 84, 78
2, 5760, Note_on_c, 0, 84, 0
2, 5760, Note_on_c, 0, 83, 78
2, 5794, Note_on_c, 0, 83, 0
2, 5796, Note_on_c, 0, 86, 78
2, 5808, Note_on_c, 0, 86, 0
2, 5808, Note_on_c, 0, 78, 78
2, 5842, Note_on_c, 0, 78, 0
2, 5844, Note_on_c, 0, 81, 78
2, 5856, Note_on_c, 0, 81, 0
2, 5856, Note_on_c, 0, 79, 78
2, 5890, Note_on_c, 0, 79, 0
2, 5892, Note_on_c, 0, 83, 78
2, 5904, Note_on_c, 0, 83, 0
2, 5904, Note_on_c, 0, 73, 78
2, 5938, Note_on_c, 0, 73, 0
2, 5940, Note_on_c, 0, 76, 78
2, 5952, Note_on_c, 0, 76, 0
2, 5952, Note_on_c, 0, 74, 78
2, 5986, Note_on_c, 0, 74, 0
2, 5988, Note_on_c, 0, 81, 78
2, 6000, Note_on_c, 0, 81, 0
2, 6000, Note_on_c, 0, 78, 78
2, 6034, Note_on_c, 0, 78, 0
2, 6036, Note_on_c, 0, 74, 78
2, 6048, Note_on_c, 0, 74, 0
2, 6048, Note_on_c, 0, 74, 78
2, 6093, Note_on_c, 0, 74, 0
2, 6096, Note_on_c, 0, 74, 78
2, 6104, Note_on_c, 0, 74, 0
2, 6104, Note_on_c, 0, 72, 78
2, 6112, Note_on_c, 0, 72, 0
2, 6112, Note_on_c, 0, 74, 78
2, 6120, Note_on_c, 0, 74, 0
2, 6120, Note_on_c, 0, 72, 78
2, 6128, Note_on_c, 0, 72, 0
2, 6128, Note_on_c, 0, 71, 78
2, 6136, Note_on_c, 0, 71, 0
2, 6136, Note_on_c, 0, 72, 78
2, 6144, Note_on_c, 0, 72, 0
2, 6144, Note_on_c, 0, 71, 78
2, 6159, Note_on_c, 0, 71, 0
2, 6160, Note_on_c, 0, 82, 78
2, 6175, Note_on_c, 0, 82, 0
2, 6176, Note_on_c, 0, 83, 78
2, 6191, Note_on_c, 0, 83, 0
2, 6192, Note_on_c, 0, 78, 78
2, 6207, Note_on_c, 0, 78, 0
2, 6208, Note_on_c, 0, 79, 78
2, 6223, Note_on_c, 0, 79, 0
2, 6224, Note_on_c, 0, 76, 78
2, 6239, Note_on_c, 0, 76, 0
2, 6240, Note_on_c, 0, 74, 78
2, 6285, Note_on_c, 0, 74, 0
2, 6288, Note_on_c, 0, 74, 78
2, 6296, Note_on_c, 0, 74, 0
2, 6296, Note_on_c, 0, 72, 78
2, 6304, Note_on_c, 0, 72, 0
2, 6304, Note_on_c, 0, 74, 78
2, 6312, Note_on_c, 0, 74, 0
2, 6312, Note_on_c, 0, 72, 78
2, 6320, Note_on_c, 0, 72, 0
2, 6320, Note_on_c, 0, 71, 78
2, 6328, Note_on_c, 0, 71, 0
2, 6328, Note_on_c, 0, 72, 78
2, 6336, Note_on_c, 0, 72, 0
2, 6336, Note_on_c, 0, 71, 78
2, 6351, Note_on_c, 0, 71, 0
2, 6352, Note_on_c, 0, 82, 78
2, 6367, Note_on_c, 0, 82, 0
2, 6368, Note_on_c, 0, 83, 78
2, 6383, Note_on_c, 0, 83, 0
2, 6384, Note_on_c, 0, 78, 78
2, 6399, Note_on_c, 0, 78, 0
2, 6400, Note_on_c, 0, 79, 78
2, 6415, Note_on_c, 0, 79, 0
2, 6416, Note_on_c, 0, 76, 78
2, 6431, Note_on_c, 0, 76, 0
2, 6432, Note_on_c, 0, 74, 78
2, 6477, Note_on_c, 0, 74, 0
2, 6480, Note_on_c, 0, 74, 78
2, 6488, Note_on_c, 0, 74, 0
2, 6488, Note_on_c, 0, 72, 78
2, 6496, Note_on_c, 0, 72, 0
2, 6496, Note_on_c, 0, 74, 78
2, 6504, Note_on_c, 0, 74, 0
2, 6504, Note_on_c, 0, 72, 78
2, 6512, Note_on_c, 0, 72, 0
2, 6512, Note_on_c, 0, 71, 78
2, 6520, Note_on_c, 0, 71, 0
2, 6520, Note_on_c, 0, 72, 78
2, 6528, Note_on_c, 0, 72, 0
2, 6528, Note_on_c, 0, 71, 78
2, 6543, Note_on_c, 0, 71, 0
2, 6544, Note_on_c, 0, 82, 78
2, 6559, Note_on_c, 0, 82, 0
2, 6560, Note_on_c, 0, 83, 78
2, 6575, Note_on_c, 0, 83, 0
2, 6576, Note_on_c, 0, 78, 78
2, 6591, Note_on_c, 0, 78, 0
2, 6592, Note_on_c, 0, 79, 78
2, 6607, Note_on_c, 0, 79, 0
2, 6608, Note_on_c, 0, 75, 78
2, 6623, Note_on_c, 0, 75, 0
2, 6624, Note_on_c, 0, 76, 78
2, 6639, Note_on_c, 0, 76, 0
2, 6640, Note_on_c, 0, 79, 78
2, 6655, Note_on_c, 0, 79, 0
2, 6656, Note_on_c, 0, 71, 78
2, 6671, Note_on_c, 0, 71, 0
2, 6672, Note_on_c, 0, 72, 78
2, 6687, Note_on_c, 0, 72, 0
2, 6688, Note_on_c, 0, 76, 78
2, 6703, Note_on_c, 0, 76, 0
2, 6704, Note_on_c, 0, 69, 78
2, 6719, Note_on_c, 0, 69, 0
2, 6720, Note_on_c, 0, 67, 78
2, 6809, Note_on_c, 0, 67, 0
2, 6816, Note_on_c, 0, 67, 78
2, 6824, Note_on_c, 0, 67, 0
2, 6824, Note_on_c, 0, 69, 78
2, 6832, Note_on_c, 0, 69, 0
2, 6832, Note_on_c, 0, 71, 78
2, 6840, Note_on_c, 0, 71, 0
2, 6840, Note_on_c, 0, 69, 78
2, 6848, Note_on_c, 0, 69, 0
2, 6848, Note_on_c, 0, 71, 78
2, 6856, Note_on_c, 0, 71, 0
2, 6856, Note_on_c, 0, 69, 78
2, 6864, Note_on_c, 0, 69, 0
2, 6864, Note_on_c, 0, 71, 78
2, 6872, Note_on_c, 0, 71, 0
2, 6872, Note_on_c, 0, 69, 78
2, 6880, Note_on_c, 0, 69, 0
2, 6880, Note_on_c, 0, 71, 78
2, 6888, Note_on_c, 0, 71, 0
2, 6888, Note_on_c, 0, 69, 78
2, 6896, Note_on_c, 0, 69, 0
2, 6896, Note_on_c, 0, 67, 78
2, 6904, Note_on_c, 0, 67, 0
2, 6904, Note_on_c, 0, 69, 78
2, 6912, Note_on_c, 0, 69, 0
2, 6912, Note_on_c, 0, 67, 78
2, 6932, Note_on_c, 0, 67, 0
2, 7024, Note_on_c, 0, 62, 78
2, 7039, Note_on_c, 0, 62, 0
2, 7040, Note_on_c, 0, 66, 78
2, 7055, Note_on_c, 0, 66, 0
2, 7056, Note_on_c, 0, 67, 78
2, 7071, Note_on_c, 0, 67, 0
2, 7072, Note_on_c, 0, 69, 78
2, 7087, Note_on_c, 0, 69, 0
2, 7088, Note_on_c, 0, 70, 78
2, 7103, Note_on_c, 0, 70, 0
2, 7104, Note_on_c, 0, 69, 78
2, 7124, Note_on_c, 0, 69, 0
2, 7216, Note_on_c, 0, 66, 78
2, 7231, Note_on_c, 0, 66, 0
2, 7232, Note_on_c, 0, 69, 78
2, 7247, Note_on_c, 0, 69, 0
2, 7248, Note_on_c, 0, 72, 78
2, 7263, Note_on_c, 0, 72, 0
2, 7264, Note_on_c, 0, 74, 78
2, 7279, Note_on_c, 0, 74, 0
2, 7280, Note_on_c, 0, 75, 78
2, 7295, Note_on_c, 0, 75, 0
2, 7296, Note_on_c, 0, 74, 78
2, 7316, Note_on_c, 0, 74, 0
2, 7408, Note_on_c, 0, 74, 78
2, 7423, Note_on_c, 0, 74, 0
2, 7424, Note_on_c, 0, 78, 78
2, 7439, Note_on_c, 0, 78, 0
2, 7440, Note_on_c, 0, 79, 78
2, 7455, Note_on_c, 0, 79, 0
2, 7456, Note_on_c, 0, 81, 78
2, 7471, Note_on_c, 0, 81, 0
2, 7472, Note_on_c, 0, 82, 78
2, 7487, Note_on_c, 0, 82, 0
2, 7504, Note_on_c, 0, 72, 78
2, 7519, Note_on_c, 0, 72, 0
2, 7520, Note_on_c, 0, 78, 78
2, 7535, Note_on_c, 0, 78, 0
2, 7536, Note_on_c, 0, 81, 78
2, 7551, Note_on_c, 0, 81, 0
2, 7552, Note_on_c, 0, 82, 78
2, 7567, Note_on_c, 0, 82, 0
2, 7568, Note_on_c, 0, 84, 78
2, 7583, Note_on_c, 0, 84, 0
2, 7600, Note_on_c, 0, 70, 78
2, 7615, Note_on_c, 0, 70, 0
2, 7616, Note_on_c, 0, 82, 78
2, 7631, Note_on_c, 0, 82, 0
2, 7648, Note_on_c, 0, 69, 78
2, 7663, Note_on_c, 0, 69, 0
2, 7664, Note_on_c, 0, 81, 78
2, 7679, Note_on_c, 0, 81, 0
2, 7696, Note_on_c, 0, 78, 78
2, 7711, Note_on_c, 0, 78, 0
2, 7712, Note_on_c, 0, 79, 78
2, 7727, Note_on_c, 0, 79, 0
2, 7728, Note_on_c, 0, 82, 78
2, 7743, Note_on_c, 0, 82, 0
2, 7744, Note_on_c, 0, 79, 78
2, 7759, Note_on_c, 0, 79, 0
2, 7760, Note_on_c, 0, 75, 78
2, 7775, Note_on_c, 0, 75, 0
2, 7776, Note_on_c, 0, 74, 78
2, 7821, Note_on_c, 0, 74, 0
2, 7824, Note_on_c, 0, 74, 78
2, 7830, Note_on_c, 0, 74, 0
2, 7830, Note_on_c, 0, 73, 78
2, 7836, Note_on_c, 0, 73, 0
2, 7836, Note_on_c, 0, 71, 78
2, 7842, Note_on_c, 0, 71, 0
2, 7842, Note_on_c, 0, 73, 78
2, 7869, Note_on_c, 0, 73, 0
2, 7872, Note_on_c, 0, 74, 78
2, 7961, Note_on_c, 0, 74, 0
2, 7984, Note_on_c, 0, 72, 78
2, 7999, Note_on_c, 0, 72, 0
2, 8000, Note_on_c, 0, 78, 78
2, 8015, Note_on_c, 0, 78, 0
2, 8016, Note_on_c, 0, 81, 78
2, 8031, Note_on_c, 0, 81, 0
2, 8032, Note_on_c, 0, 78, 78
2, 8047, Note_on_c, 0, 78, 0
2, 8048, Note_on_c, 0, 72, 78
2, 8063, Note_on_c, 0, 72, 0
2, 8064, Note_on_c, 0, 71, 78
2, 8084, Note_on_c, 0, 71, 0
2, 8176, Note_on_c, 0, 74, 78
2, 8191, Note_on_c, 0, 74, 0
2, 8192, Note_on_c, 0, 79, 78
2, 8207, Note_on_c, 0, 79, 0
2, 8208, Note_on_c, 0, 83, 78
2, 8223, Note_on_c, 0, 83, 0
2, 8224, Note_on_c, 0, 79, 78
2, 8239, Note_on_c, 0, 79, 0
2, 8240, Note_on_c, 0, 74, 78
2, 8255, Note_on_c, 0, 74, 0
2, 8256, Note_on_c, 0, 72, 78
2, 8276, Note_on_c, 0, 72, 0
2, 8368, Note_on_c, 0, 88, 78
2, 8383, Note_on_c, 0, 88, 0
2, 8384, Note_on_c, 0, 86, 78
2, 8399, Note_on_c, 0, 86, 0
2, 8400, Note_on_c, 0, 84, 78
2, 8415, Note_on_c, 0, 84, 0
2, 8416, Note_on_c, 0, 83, 78
2, 8431, Note_on_c, 0, 83, 0
2, 8432, Note_on_c, 0, 81, 78
2, 8447, Note_on_c, 0, 81, 0
2, 8448, Note_on_c, 0, 79, 78
2, 8463, Note_on_c, 0, 79, 0
2, 8464, Note_on_c, 0, 78, 78
2, 8479, Note_on_c, 0, 78, 0
2, 8480, Note_on_c, 0, 84, 78
2, 8495, Note_on_c, 0, 84, 0
2, 8496, Note_on_c, 0, 81, 78
2, 8511, Note_on_c, 0, 81, 0
2, 8512, Note_on_c, 0, 78, 78
2, 8527, Note_on_c, 0, 78, 0
2, 8528, Note_on_c, 0, 72, 78
2, 8543, Note_on_c, 0, 72, 0
2, 8544, Note_on_c, 0, 69, 78
2, 8559, Note_on_c, 0, 69, 0
2, 8560, Note_on_c, 0, 66, 78
2, 8575, Note_on_c, 0, 66, 0
2, 8576, Note_on_c, 0, 62, 78
2, 8591, Note_on_c, 0, 62, 0
2, 8784, Note_on_c, 0, 62, 78
2, 8799, Note_on_c, 0, 62, 0
2, 8800, Note_on_c, 0, 67, 78
2, 8815, Note_on_c, 0, 67, 0
2, 8816, Note_on_c, 0, 71, 78
2, 8831, Note_on_c, 0, 71, 0
2, 8832, Note_on_c, 0, 62, 78
2, 8847, Note_on_c, 0, 62, 0
2, 8848, Note_on_c, 0, 61, 78
2, 8863, Note_on_c, 0, 61, 0
2, 8864, Note_on_c, 0, 60, 78
2, 8879, Note_on_c, 0, 60, 0
2, 8880, Note_on_c, 0, 69, 94
2, 8943, Note_on_c, 0, 69, 0
2, 8944, Note_on_c, 0, 67, 78
2, 8959, Note_on_c, 0, 67, 0
2, 8960, Note_on_c, 0, 66, 78
2, 8975, Note_on_c, 0, 66, 0
2, 8976, Note_on_c, 0, 64, 78
2, 8991, Note_on_c, 0, 64, 0
2, 8992, Note_on_c, 0, 62, 78
2, 9007, Note_on_c, 0, 62, 0
2, 9008, Note_on_c, 0, 60, 78
2, 9023, Note_on_c, 0, 60, 0
2, 9024, Note_on_c, 0, 59, 78
2, 9039, Note_on_c, 0, 59, 0
2, 9040, Note_on_c, 0, 62, 78
2, 9055, Note_on_c, 0, 62, 0
2, 9056, Note_on_c, 0, 67, 78
2, 9071, Note_on_c, 0, 67, 0
2, 9072, Note_on_c, 0, 62, 78
2, 9087, Note_on_c, 0, 62, 0
2, 9088, Note_on_c, 0, 67, 78
2, 9103, Note_on_c, 0, 67, 0
2, 9104, Note_on_c, 0, 71, 78
2, 9119, Note_on_c, 0, 71, 0
2, 9120, Note_on_c, 0, 74, 78
2, 9140, Note_on_c, 0, 74, 0
2, 9168, Note_on_c, 0, 62, 78
2, 9183, Note_on_c, 0, 62, 0
2, 9184, Note_on_c, 0, 67, 78
2, 9199, Note_on_c, 0, 67, 0
2, 9200, Note_on_c, 0, 71, 78
2, 9215, Note_on_c, 0, 71, 0
2, 9216, Note_on_c, 0, 62, 78
2, 9231, Note_on_c, 0, 62, 0
2, 9232, Note_on_c, 0, 61, 78
2, 9247, Note_on_c, 0, 61, 0
2, 9248, Note_on_c, 0, 60, 78
2, 9263, Note_on_c, 0, 60, 0
2, 9264, Note_on_c, 0, 69, 94
2, 9327, Note_on_c, 0, 69, 0
2, 9328, Note_on_c, 0, 67, 78
2, 9343, Note_on_c, 0, 67, 0
2, 9344, Note_on_c, 0, 66, 78
2, 9359, Note_on_c, 0, 66, 0
2, 9360, Note_on_c, 0, 64, 78
2, 9375, Note_on_c, 0, 64, 0
2, 9376, Note_on_c, 0, 62, 78
2, 9391, Note_on_c, 0, 62, 0
2, 9392, Note_on_c, 0, 60, 78
2, 9407, Note_on_c, 0, 60, 0
2, 9408, Note_on_c, 0, 59, 78
2, 9423, Note_on_c, 0, 59, 0
2, 9424, Note_on_c, 0, 62, 78
2, 9439, Note_on_c, 0, 62, 0
2, 9440, Note_on_c, 0, 67, 78
2, 9455, Note_on_c, 0, 67, 0
2, 9456, Note_on_c, 0, 62, 78
2, 9471, Note_on_c, 0, 62, 0
2, 9472, Note_on_c, 0, 67, 78
2, 9487, Note_on_c, 0, 67, 0
2, 9488, Note_on_c, 0, 71, 78
2, 9503, Note_on_c, 0, 71, 0
2, 9504, Note_on_c, 0, 74, 78
2, 9519, Note_on_c, 0, 74, 0
2, 9520, Note_on_c, 0, 72, 78
2, 9535, Note_on_c, 0, 72, 0
2, 9536, Note_on_c, 0, 71, 78
2, 9551, Note_on_c, 0, 71, 0
2, 9552, Note_on_c, 0, 69, 78
2, 9567, Note_on_c, 0, 69, 0
2, 9568, Note_on_c, 0, 67, 78
2, 9583, Note_on_c, 0, 67, 0
2, 9584, Note_on_c, 0, 66, 78
2, 9599, Note_on_c, 0, 66, 0
2, 9600, Note_on_c, 0, 64, 78
2, 9615, Note_on_c, 0, 64, 0
2, 9616, Note_on_c, 0, 75, 78
2, 9631, Note_on_c, 0, 75, 0
2, 9632, Note_on_c, 0, 76, 78
2, 9647, Note_on_c, 0, 76, 0
2, 9648, Note_on_c, 0, 74, 78
2, 9660, Note_on_c, 0, 74, 0
2, 9660, Note_on_c, 0, 72, 78
2, 9671, Note_on_c, 0, 72, 0
2, 9672, Note_on_c, 0, 71, 78
2, 9684, Note_on_c, 0, 71, 0
2, 9684, Note_on_c, 0, 69, 78
2, 9696, Note_on_c, 0, 69, 0
2, 9696, Note_on_c, 0, 67, 78
2, 9741, Note_on_c, 0, 67, 0
2, 9744, Note_on_c, 0, 66, 78
2, 9744, Note_on_c, 0, 62, 78
2, 9789, Note_on_c, 0, 66, 0
2, 9789, Note_on_c, 0, 62, 0
2, 9792, Note_on_c, 0, 66, 78
2, 9888, Note_on_c, 0, 66, 0
2, 9888, Note_on_c, 0, 67, 78
2, 9935, Note_on_c, 0, 67, 0
2, 9936, Note_on_c, 0, 74, 78
2, 9951, Note_on_c, 0, 74, 0
2, 9952, Note_on_c, 0, 79, 78
2, 9967, Note_on_c, 0, 79, 0
2, 9968, Note_on_c, 0, 83, 78
2, 9983, Note_on_c, 0, 83, 0
2, 9984, Note_on_c, 0, 74, 78
2, 9999, Note_on_c, 0, 74, 0
2, 10000, Note_on_c, 0, 73, 78
2, 10015, Note_on_c, 0, 73, 0
2, 10016, Note_on_c, 0, 72, 78
2, 10031, Note_on_c, 0, 72, 0
2, 10032, Note_on_c, 0, 81, 94
2, 10095, Note_on_c, 0, 81, 0
2, 10096, Note_on_c, 0, 79, 78
2, 10111, Note_on_c, 0, 79, 0
2, 10112, Note_on_c, 0, 78, 78
2, 10127, Note_on_c, 0, 78, 0
2, 10128, Note_on_c, 0, 76, 78
2, 10143, Note_on_c, 0, 76, 0
2, 10144, Note_on_c, 0, 74, 78
2, 10159, Note_on_c, 0, 74, 0
2, 10160, Note_on_c, 0, 72, 78
2, 10175, Note_on_c, 0, 72, 0
2, 10176, Note_on_c, 0, 71, 78
2, 10191, Note_on_c, 0, 71, 0
2, 10192, Note_on_c, 0, 74, 78
2, 10207, Note_on_c, 0, 74, 0
2, 10208, Note_on_c, 0, 79, 78
2, 10223, Note_on_c, 0, 79, 0
2, 10224, Note_on_c, 0, 74, 78
2, 10239, Note_on_c, 0, 74, 0
2, 10240, Note_on_c, 0, 79, 78
2, 10255, Note_on_c, 0, 79, 0
2, 10256, Note_on_c, 0, 83, 78
2, 10271, Note_on_c, 0, 83, 0
2, 10272, Note_on_c, 0, 86, 78
2, 10292, Note_on_c, 0, 86, 0
2, 10320, Note_on_c, 0, 74, 78
2, 10335, Note_on_c, 0, 74, 0
2, 10336, Note_on_c, 0, 79, 78
2, 10351, Note_on_c, 0, 79, 0
2, 10352, Note_on_c, 0, 83, 78
2, 10367, Note_on_c, 0, 83, 0
2, 10368, Note_on_c, 0, 74, 78
2, 10383, Note_on_c, 0, 74, 0
2, 10384, Note_on_c, 0, 73, 78
2, 10399, Note_on_c, 0, 73, 0
2, 10400, Note_on_c, 0, 72, 78
2, 10415, Note_on_c, 0, 72, 0
2, 10416, Note_on_c, 0, 81, 94
2, 10479, Note_on_c, 0, 81, 0
2, 10480, Note_on_c, 0, 79, 78
2, 10495, Note_on_c, 0, 79, 0
2, 10496, Note_on_c, 0, 78, 78
2, 10511, Note_on_c, 0, 78, 0
2, 10512, Note_on_c, 0, 76, 78
2, 10527, Note_on_c, 0, 76, 0
2, 10528, Note_on_c, 0, 74, 78
2, 10543, Note_on_c, 0, 74, 0
2, 10544, Note_on_c, 0, 72, 78
2, 10559, Note_on_c, 0, 72, 0
2, 10560, Note_on_c, 0, 71, 78
2, 10575, Note_on_c, 0, 71, 0
2, 10576, Note_on_c, 0, 78, 78
2, 10591, Note_on_c, 0, 78, 0
2, 10592, Note_on_c, 0, 79, 78
2, 10607, Note_on_c, 0, 79, 0
2, 10608, Note_on_c, 0, 75, 78
2, 10623, Note_on_c, 0, 75, 0
2, 10624, Note_on_c, 0, 76, 78
2, 10639, Note_on_c, 0, 76, 0
2, 10640, Note_on_c, 0, 73, 78
2, 10655, Note_on_c, 0, 73, 0
2, 10656, Note_on_c, 0, 74, 78
2, 10671, Note_on_c, 0, 74, 0
2, 10672, Note_on_c, 0, 71, 78
2, 10687, Note_on_c, 0, 71, 0
2, 10688, Note_on_c, 0, 72, 78
2, 10703, Note_on_c, 0, 72, 0
2, 10704, Note_on_c, 0, 76, 78
2, 10719, Note_on_c, 0, 76, 0
2, 10720, Note_on_c, 0, 72, 78
2, 10735, Note_on_c, 0, 72, 0
2, 10736, Note_on_c, 0, 69, 78
2, 10751, Note_on_c, 0, 69, 0
2, 10752, Note_on_c, 0, 67, 78
2, 10841, Note_on_c, 0, 67, 0
2, 10848, Note_on_c, 0, 67, 78
2, 10856, Note_on_c, 0, 67, 0
2, 10856, Note_on_c, 0, 69, 78
2, 10864, Note_on_c, 0, 69, 0
2, 10864, Note_on_c, 0, 71, 78
2, 10872, Note_on_c, 0, 71, 0
2, 10872, Note_on_c, 0, 69, 78
2, 10880, Note_on_c, 0, 69, 0
2, 10880, Note_on_c, 0, 71, 78
2, 10888, Note_on_c, 0, 71, 0
2, 10888, Note_on_c, 0, 69, 78
2, 10896, Note_on_c, 0, 69, 0
2, 10896, Note_on_c, 0, 71, 78
2, 10904, Note_on_c, 0, 71, 0
2, 10904, Note_on_c, 0, 69, 78
2, 10912, Note_on_c, 0, 69, 0
2, 10912, Note_on_c, 0, 71, 78
2, 10920, Note_on_c, 0, 71, 0
2, 10920, Note_on_c, 0, 69, 78
2, 10928, Note_on_c, 0, 69, 0
2, 10928, Note_on_c, 0, 67, 78
2, 10936, Note_on_c, 0, 67, 0
2, 10936, Note_on_c, 0, 69, 78
2, 10944, Note_on_c, 0, 69, 0
2, 10944, Note_on_c, 0, 67, 78
2, 11033, Note_on_c, 0, 67, 0
2, 11088, Note_on_c, 0, 72, 78
2, 11122, Note_on_c, 0, 72, 0
2, 11124, Note_on_c, 0, 76, 78
2, 11136, Note_on_c, 0, 76, 0
2, 11136, Note_on_c, 0, 79, 78
2, 11170, Note_on_c, 0, 79, 0
2, 11172, Note_on_c, 0, 76, 80
2, 11184, Note_on_c, 0, 76, 0
2, 11184, Note_on_c, 0, 84, 97
2, 11266, Note_on_c, 0, 84, 0
2, 11268, Note_on_c, 0, 83, 82
2, 11280, Note_on_c, 0, 83, 0
2, 11280, Note_on_c, 0, 81, 81
2, 11314, Note_on_c, 0, 81, 0
2, 11316, Note_on_c, 0, 79, 78
2, 11328, Note_on_c, 0, 79, 0
2, 11328, Note_on_c, 0, 79, 78
2, 11417, Note_on_c, 0, 79, 0
2, 11424, Note_on_c, 0, 77, 78
2, 11430, Note_on_c, 0, 77, 0
2, 11430, Note_on_c, 0, 79, 78
2, 11436, Note_on_c, 0, 79, 0
2, 11436, Note_on_c, 0, 77, 78
2, 11458, Note_on_c, 0, 77, 0
2, 11460, Note_on_c, 0, 76, 78
2, 11472, Note_on_c, 0, 76, 0
2, 11472, Note_on_c, 0, 74, 78
2, 11478, Note_on_c, 0, 74, 0
2, 11478, Note_on_c, 0, 76, 78
2, 11484, Note_on_c, 0, 76, 0
2, 11484, Note_on_c, 0, 74, 78
2, 11506, Note_on_c, 0, 74, 0
2, 11508, Note_on_c, 0, 72, 78
2, 11520, Note_on_c, 0, 72, 0
2, 11520, Note_on_c, 0, 72, 78
2, 11616, Note_on_c, 0, 72, 0
2, 11616, Note_on_c, 0, 71, 78
2, 11622, Note_on_c, 0, 71, 0
2, 11622, Note_on_c, 0, 72, 78
2, 11628, Note_on_c, 0, 72, 0
2, 11628, Note_on_c, 0, 71, 78
2, 11650, Note_on_c, 0, 71, 0
2, 11652, Note_on_c, 0, 81, 78
2, 11664, Note_on_c, 0, 81, 0
2, 11664, Note_on_c, 0, 79, 78
2, 11698, Note_on_c, 0, 79, 0
2, 11700, Note_on_c, 0, 77, 78
2, 11712, Note_on_c, 0, 77, 0
2, 11712, Note_on_c, 0, 77, 78
2, 11801, Note_on_c, 0, 77, 0
2, 11808, Note_on_c, 0, 77, 78
2, 11814, Note_on_c, 0, 77, 0
2, 11814, Note_on_c, 0, 76, 78
2, 11820, Note_on_c, 0, 76, 0
2, 11820, Note_on_c, 0, 74, 78
2, 11826, Note_on_c, 0, 74, 0
2, 11826, Note_on_c, 0, 76, 78
2, 11842, Note_on_c, 0, 76, 0
2, 11844, Note_on_c, 0, 79, 78
2, 11856, Note_on_c, 0, 79, 0
2, 11856, Note_on_c, 0, 72, 78
2, 11890, Note_on_c, 0, 72, 0
2, 11892, Note_on_c, 0, 76, 78
2, 11904, Note_on_c, 0, 76, 0
2, 11904, Note_on_c, 0, 69, 78
2, 11938, Note_on_c, 0, 69, 0
2, 11940, Note_on_c, 0, 73, 78
2, 11952, Note_on_c, 0, 73, 0
2, 11952, Note_on_c, 0, 74, 78
2, 11958, Note_on_c, 0, 74, 0
2, 11958, Note_on_c, 0, 73, 78
2, 11964, Note_on_c, 0, 73, 0
2, 11964, Note_on_c, 0, 74, 78
2, 11986, Note_on_c, 0, 74, 0
2, 11988, Note_on_c, 0, 77, 78
2, 12000, Note_on_c, 0, 77, 0
2, 12000, Note_on_c, 0, 76, 78
2, 12034, Note_on_c, 0, 76, 0
2, 12036, Note_on_c, 0, 79, 78
2, 12048, Note_on_c, 0, 79, 0
2, 12048, Note_on_c, 0, 71, 78
2, 12082, Note_on_c, 0, 71, 0
2, 12084, Note_on_c, 0, 74, 78
2, 12096, Note_on_c, 0, 74, 0
2, 12096, Note_on_c, 0, 72, 78
2, 12135, Note_on_c, 0, 72, 0
2, 12240, Note_on_c, 0, 60, 78
2, 12274, Note_on_c, 0, 60, 0
2, 12276, Note_on_c, 0, 64, 80
2, 12288, Note_on_c, 0, 64, 0
2, 12288, Note_on_c, 0, 67, 81
2, 12322, Note_on_c, 0, 67, 0
2, 12324, Note_on_c, 0, 64, 84
2, 12336, Note_on_c, 0, 64, 0
2, 12336, Note_on_c, 0, 72, 101
2, 12418, Note_on_c, 0, 72, 0
2, 12420, Note_on_c, 0, 71, 80
2, 12432, Note_on_c, 0, 71, 0
2, 12432, Note_on_c, 0, 69, 80
2, 12466, Note_on_c, 0, 69, 0
2, 12468, Note_on_c, 0, 67, 78
2, 12480, Note_on_c, 0, 67, 0
2, 12480, Note_on_c, 0, 67, 78
2, 12569, Note_on_c, 0, 67, 0
2, 12576, Note_on_c, 0, 65, 78
2, 12582, Note_on_c, 0, 65, 0
2, 12582, Note_on_c, 0, 67, 78
2, 12588, Note_on_c, 0, 67, 0
2, 12588, Note_on_c, 0, 65, 78
2, 12610, Note_on_c, 0, 65, 0
2, 12612, Note_on_c, 0, 64, 78
2, 12624, Note_on_c, 0, 64, 0
2, 12624, Note_on_c, 0, 62, 78
2, 12630, Note_on_c, 0, 62, 0
2, 12630, Note_on_c, 0, 64, 78
2, 12636, Note_on_c, 0, 64, 0
2, 12636, Note_on_c, 0, 62, 78
2, 12658, Note_on_c, 0, 62, 0
2, 12660, Note_on_c, 0, 60, 78
2, 12672, Note_on_c, 0, 60, 0
2, 12672, Note_on_c, 0, 60, 78
2, 12768, Note_on_c, 0, 60, 0
2, 12768, Note_on_c, 0, 59, 78
2, 12783, Note_on_c, 0, 59, 0
2, 12784, Note_on_c, 0, 62, 78
2, 12799, Note_on_c, 0, 62, 0
2, 12800, Note_on_c, 0, 65, 78
2, 12815, Note_on_c, 0, 65, 0
2, 12816, Note_on_c, 0, 69, 78
2, 12831, Note_on_c, 0, 69, 0
2, 12832, Note_on_c, 0, 67, 78
2, 12847, Note_on_c, 0, 67, 0
2, 12848, Note_on_c, 0, 65, 78
2, 12863, Note_on_c, 0, 65, 0
2, 12864, Note_on_c, 0, 65, 78
2, 12960, Note_on_c, 0, 65, 0
2, 12960, Note_on_c, 0, 64, 78
2, 12966, Note_on_c, 0, 64, 0
2, 12966, Note_on_c, 0, 65, 78
2, 12972, Note_on_c, 0, 65, 0
2, 12972, Note_on_c, 0, 64, 78
2, 13007, Note_on_c, 0, 64, 0
2, 13092, Note_on_c, 0, 60, 78
2, 13104, Note_on_c, 0, 60, 0
2, 13104, Note_on_c, 0, 64, 78
2, 13138, Note_on_c, 0, 64, 0
2, 13140, Note_on_c, 0, 67, 80
2, 13152, Note_on_c, 0, 67, 0
2, 13152, Note_on_c, 0, 72, 80
2, 13186, Note_on_c, 0, 72, 0
2, 13188, Note_on_c, 0, 67, 82
2, 13188, Note_on_c, 0, 64, 82
2, 13200, Note_on_c, 0, 67, 0
2, 13200, Note_on_c, 0, 64, 0
2, 13200, Note_on_c, 0, 67, 83
2, 13200, Note_on_c, 0, 64, 83
2, 13234, Note_on_c, 0, 67, 0
2, 13234, Note_on_c, 0, 64, 0
2, 13236, Note_on_c, 0, 67, 85
2, 13236, Note_on_c, 0, 64, 85
2, 13248, Note_on_c, 0, 67, 0
2, 13248, Note_on_c, 0, 64, 0
2, 13248, Note_on_c, 0, 67, 84
2, 13248, Note_on_c, 0, 64, 84
2, 13344, Note_on_c, 0, 67, 0
2, 13344, Note_on_c, 0, 64, 0
2, 13344, Note_on_c, 0, 69, 80
2, 13344, Note_on_c, 0, 65, 80
2, 13389, Note_on_c, 0, 69, 0
2, 13389, Note_on_c, 0, 65, 0
2, 13476, Note_on_c, 0, 65, 78
2, 13488, Note_on_c, 0, 65, 0
2, 13488, Note_on_c, 0, 77, 78
2, 13488, Note_on_c, 0, 69, 78
2, 13522, Note_on_c, 0, 77, 0
2, 13522, Note_on_c, 0, 69, 0
2, 13524, Note_on_c, 0, 77, 80
2, 13524, Note_on_c, 0, 69, 80
2, 13536, Note_on_c, 0, 77, 0
2, 13536, Note_on_c, 0, 69, 0
2, 13536, Note_on_c, 0, 77, 80
2, 13536, Note_on_c, 0, 69, 80
2, 13570, Note_on_c, 0, 77, 0
2, 13570, Note_on_c, 0, 69, 0
2, 13572, Note_on_c, 0, 72, 82
2, 13572, Note_on_c, 0, 69, 82
2, 13584, Note_on_c, 0, 72, 0
2, 13584, Note_on_c, 0, 69, 0
2, 13584, Note_on_c, 0, 70, 83
2, 13584, Note_on_c, 0, 67, 83
2, 13618, Note_on_c, 0, 70, 0
2, 13618, Note_on_c, 0, 67, 0
2, 13620, Note_on_c, 0, 69, 85
2, 13620, Note_on_c, 0, 65, 85
2, 13632, Note_on_c, 0, 69, 0
2, 13632, Note_on_c, 0, 65, 0
2, 13632, Note_on_c, 0, 69, 84
2, 13632, Note_on_c, 0, 65, 84
2, 13728, Note_on_c, 0, 69, 0
2, 13728, Note_on_c, 0, 65, 0
2, 13728, Note_on_c, 0, 67, 80
2, 13728, Note_on_c, 0, 64, 80
2, 13773, Note_on_c, 0, 67, 0
2, 13773, Note_on_c, 0, 64, 0
2, 13860, Note_on_c, 0, 67, 78
2, 13872, Note_on_c, 0, 67, 0
2, 13872, Note_on_c, 0, 76, 78
2, 13906, Note_on_c, 0, 76, 0
2, 13908, Note_on_c, 0, 74, 78
2, 13920, Note_on_c, 0, 74, 0
2, 13920, Note_on_c, 0, 72, 78
2, 13954, Note_on_c, 0, 72, 0
2, 13956, Note_on_c, 0, 71, 78
2, 13968, Note_on_c, 0, 71, 0
2, 13968, Note_on_c, 0, 69, 78
2, 14002, Note_on_c, 0, 69, 0
2, 14004, Note_on_c, 0, 67, 78
2, 14016, Note_on_c, 0, 67, 0
2, 14016, Note_on_c, 0, 67, 78
2, 14050, Note_on_c, 0, 67, 0
2, 14052, Note_on_c, 0, 66, 78
2, 14064, Note_on_c, 0, 66, 0
2, 14064, Note_on_c, 0, 74, 78
2, 14098, Note_on_c, 0, 74, 0
2, 14100, Note_on_c, 0, 65, 78
2, 14112, Note_on_c, 0, 65, 0
2, 14112, Note_on_c, 0, 65, 78
2, 14146, Note_on_c, 0, 65, 0
2, 14148, Note_on_c, 0, 64, 78
2, 14160, Note_on_c, 0, 64, 0
2, 14160, Note_on_c, 0, 72, 78
2, 14194, Note_on_c, 0, 72, 0
2, 14196, Note_on_c, 0, 61, 85
2, 14208, Note_on_c, 0, 61, 0
2, 14208, Note_on_c, 0, 62, 85
2, 14223, Note_on_c, 0, 62, 0
2, 14244, Note_on_c, 0, 64, 85
2, 14256, Note_on_c, 0, 64, 0
2, 14256, Note_on_c, 0, 65, 85
2, 14271, Note_on_c, 0, 65, 0
2, 14292, Note_on_c, 0, 66, 85
2, 14304, Note_on_c, 0, 66, 0
2, 14304, Note_on_c, 0, 67, 85
2, 14319, Note_on_c, 0, 67, 0
2, 14340, Note_on_c, 0, 68, 85
2, 14352, Note_on_c, 0, 68, 0
2, 14352, Note_on_c, 0, 69, 85
2, 14367, Note_on_c, 0, 69, 0
2, 14388, Note_on_c, 0, 65, 85
2, 14388, Note_on_c, 0, 62, 85
2, 14400, Note_on_c, 0, 65, 0
2, 14400, Note_on_c, 0, 62, 0
2, 14400, Note_on_c, 0, 64, 85
2, 14400, Note_on_c, 0, 60, 85
2, 14496, Note_on_c, 0, 64, 0
2, 14496, Note_on_c, 0, 60, 0
2, 14496, Note_on_c, 0, 62, 85
2, 14496, Note_on_c, 0, 59, 85
2, 14516, Note_on_c, 0, 62, 0
2, 14516, Note_on_c, 0, 59, 0
2, 14544, Note_on_c, 0, 71, 78
2, 14578, Note_on_c, 0, 71, 0
2, 14580, Note_on_c, 0, 74, 78
2, 14592, Note_on_c, 0, 74, 0
2, 14592, Note_on_c, 0, 79, 78
2, 14626, Note_on_c, 0, 79, 0
2, 14628, Note_on_c, 0, 74, 78
2, 14640, Note_on_c, 0, 74, 0
2, 14640, Note_on_c, 0, 83, 94
2, 14703, Note_on_c, 0, 83, 0
2, 14704, Note_on_c, 0, 78, 78
2, 14719, Note_on_c, 0, 78, 0
2, 14720, Note_on_c, 0, 79, 78
2, 14735, Note_on_c, 0, 79, 0
2, 14736, Note_on_c, 0, 83, 78
2, 14751, Note_on_c, 0, 83, 0
2, 14752, Note_on_c, 0, 79, 78
2, 14767, Note_on_c, 0, 79, 0
2, 14768, Note_on_c, 0, 76, 78
2, 14783, Note_on_c, 0, 76, 0
2, 14784, Note_on_c, 0, 74, 78
2, 14829, Note_on_c, 0, 74, 0
2, 14832, Note_on_c, 0, 72, 78
2, 14838, Note_on_c, 0, 72, 0
2, 14838, Note_on_c, 0, 74, 78
2, 14844, Note_on_c, 0, 74, 0
2, 14844, Note_on_c, 0, 72, 78
2, 14879, Note_on_c, 0, 72, 0
2, 14928, Note_on_c, 0, 72, 78
2, 14962, Note_on_c, 0, 72, 0
2, 14964, Note_on_c, 0, 78, 78
2, 14976, Note_on_c, 0, 78, 0
2, 14976, Note_on_c, 0, 81, 78
2, 15010, Note_on_c, 0, 81, 0
2, 15012, Note_on_c, 0, 78, 78
2, 15024, Note_on_c, 0, 78, 0
2, 15024, Note_on_c, 0, 84, 94
2, 15087, Note_on_c, 0, 84, 0
2, 15088, Note_on_c, 0, 81, 78
2, 15103, Note_on_c, 0, 81, 0
2, 15104, Note_on_c, 0, 78, 78
2, 15119, Note_on_c, 0, 78, 0
2, 15120, Note_on_c, 0, 81, 78
2, 15135, Note_on_c, 0, 81, 0
2, 15136, Note_on_c, 0, 78, 78
2, 15151, Note_on_c, 0, 78, 0
2, 15152, Note_on_c, 0, 74, 78
2, 15167, Note_on_c, 0, 74, 0
2, 15168, Note_on_c, 0, 72, 78
2, 15213, Note_on_c, 0, 72, 0
2, 15216, Note_on_c, 0, 71, 78
2, 15222, Note_on_c, 0, 71, 0
2, 15222, Note_on_c, 0, 72, 78
2, 15228, Note_on_c, 0, 72, 0
2, 15228, Note_on_c, 0, 71, 78
2, 15263, Note_on_c, 0, 71, 0
2, 15312, Note_on_c, 0, 74, 78
2, 15346, Note_on_c, 0, 74, 0
2, 15348, Note_on_c, 0, 79, 78
2, 15360, Note_on_c, 0, 79, 0
2, 15360, Note_on_c, 0, 83, 78
2, 15394, Note_on_c, 0, 83, 0
2, 15396, Note_on_c, 0, 79, 78
2, 15408, Note_on_c, 0, 79, 0
2, 15408, Note_on_c, 0, 86, 94
2, 15471, Note_on_c, 0, 86, 0
2, 15472, Note_on_c, 0, 84, 78
2, 15487, Note_on_c, 0, 84, 0
2, 15488, Note_on_c, 0, 83, 78
2, 15503, Note_on_c, 0, 83, 0
2, 15504, Note_on_c, 0, 81, 78
2, 15519, Note_on_c, 0, 81, 0
2, 15520, Note_on_c, 0, 79, 78
2, 15535, Note_on_c, 0, 79, 0
2, 15536, Note_on_c, 0, 78, 78
2, 15551, Note_on_c, 0, 78, 0
2, 15552, Note_on_c, 0, 76, 78
2, 15663, Note_on_c, 0, 76, 0
2, 15664, Note_on_c, 0, 84, 78
2, 15679, Note_on_c, 0, 84, 0
2, 15680, Note_on_c, 0, 83, 78
2, 15695, Note_on_c, 0, 83, 0
2, 15696, Note_on_c, 0, 81, 78
2, 15711, Note_on_c, 0, 81, 0
2, 15712, Note_on_c, 0, 79, 78
2, 15727, Note_on_c, 0, 79, 0
2, 15728, Note_on_c, 0, 78, 78
2, 15743, Note_on_c, 0, 78, 0
2, 15744, Note_on_c, 0, 76, 78
2, 15792, Note_on_c, 0, 76, 0
2, 15792, Note_on_c, 0, 74, 78
2, 15833, Note_on_c, 0, 74, 0
2, 15856, Note_on_c, 0, 83, 78
2, 15871, Note_on_c, 0, 83, 0
2, 15872, Note_on_c, 0, 81, 78
2, 15887, Note_on_c, 0, 81, 0
2, 15888, Note_on_c, 0, 79, 78
2, 15903, Note_on_c, 0, 79, 0
2, 15904, Note_on_c, 0, 78, 78
2, 15919, Note_on_c, 0, 78, 0
2, 15920, Note_on_c, 0, 76, 78
2, 15935, Note_on_c, 0, 76, 0
2, 15936, Note_on_c, 0, 74, 78
2, 15970, Note_on_c, 0, 74, 0
2, 15972, Note_on_c, 0, 72, 78
2, 15984, Note_on_c, 0, 72, 0
2, 15984, Note_on_c, 0, 81, 78
2, 16018, Note_on_c, 0, 81, 0
2, 16020, Note_on_c, 0, 72, 78
2, 16032, Note_on_c, 0, 72, 0
2, 16032, Note_on_c, 0, 72, 78
2, 16066, Note_on_c, 0, 72, 0
2, 16068, Note_on_c, 0, 71, 78
2, 16080, Note_on_c, 0, 71, 0
2, 16080, Note_on_c, 0, 79, 78
2, 16114, Note_on_c, 0, 79, 0
2, 16116, Note_on_c, 0, 71, 78
2, 16116, Note_on_c, 0, 67, 78
2, 16128, Note_on_c, 0, 71, 0
2, 16128, Note_on_c, 0, 67, 0
2, 16128, Note_on_c, 0, 69, 78
2, 16128, Note_on_c, 0, 66, 78
2, 16217, Note_on_c, 0, 69, 0
2, 16217, Note_on_c, 0, 66, 0
2, 16272, Note_on_c, 0, 66, 80
2, 16306, Note_on_c, 0, 66, 0
2, 16308, Note_on_c, 0, 78, 81
2, 16320, Note_on_c, 0, 78, 0
2, 16320, Note_on_c, 0, 67, 81
2, 16354, Note_on_c, 0, 67, 0
2, 16356, Note_on_c, 0, 79, 82
2, 16368, Note_on_c, 0, 79, 0
2, 16368, Note_on_c, 0, 69, 82
2, 16402, Note_on_c, 0, 69, 0
2, 16404, Note_on_c, 0, 81, 83
2, 16416, Note_on_c, 0, 81, 0
2, 16416, Note_on_c, 0, 71, 83
2, 16450, Note_on_c, 0, 71, 0
2, 16452, Note_on_c, 0, 83, 84
2, 16464, Note_on_c, 0, 83, 0
2, 16464, Note_on_c, 0, 73, 84
2, 16498, Note_on_c, 0, 73, 0
2, 16500, Note_on_c, 0, 85, 85
2, 16512, Note_on_c, 0, 85, 0
2, 16512, Note_on_c, 0, 74, 85
2, 16546, Note_on_c, 0, 74, 0
2, 16548, Note_on_c, 0, 86, 83
2, 16560, Note_on_c, 0, 86, 0
2, 16560, Note_on_c, 0, 85, 83
2, 16594, Note_on_c, 0, 85, 0
2, 16596, Note_on_c, 0, 86, 81
2, 16608, Note_on_c, 0, 86, 0
2, 16608, Note_on_c, 0, 84, 81
2, 16642, Note_on_c, 0, 84, 0
2, 16644, Note_on_c, 0, 86, 79
2, 16656, Note_on_c, 0, 86, 0
2, 16656, Note_on_c, 0, 81, 79
2, 16690, Note_on_c, 0, 81, 0
2, 16692, Note_on_c, 0, 84, 78
2, 16704, Note_on_c, 0, 84, 0
2, 16704, Note_on_c, 0, 83, 78
2, 16738, Note_on_c, 0, 83, 0
2, 16740, Note_on_c, 0, 86, 78
2, 16752, Note_on_c, 0, 86, 0
2, 16752, Note_on_c, 0, 78, 78
2, 16786, Note_on_c, 0, 78, 0
2, 16788, Note_on_c, 0, 81, 78
2, 16800, Note_on_c, 0, 81, 0
2, 16800, Note_on_c, 0, 79, 78
2, 16834, Note_on_c, 0, 79, 0
2, 16836, Note_on_c, 0, 83, 78
2, 16848, Note_on_c, 0, 83, 0
2, 16848, Note_on_c, 0, 73, 78
2, 16882, Note_on_c, 0, 73, 0
2, 16884, Note_on_c, 0, 76, 78
2, 16896, Note_on_c, 0, 76, 0
2, 16896, Note_on_c, 0, 74, 78
2, 16930, Note_on_c, 0, 74, 0
2, 16932, Note_on_c, 0, 81, 78
2, 16944, Note_on_c, 0, 81, 0
2, 16944, Note_on_c, 0, 78, 78
2, 16978, Note_on_c, 0, 78, 0
2, 16980, Note_on_c, 0, 74, 78
2, 16992, Note_on_c, 0, 74, 0
2, 16992, Note_on_c, 0, 74, 78
2, 17037, Note_on_c, 0, 74, 0
2, 17040, Note_on_c, 0, 74, 78
2, 17048, Note_on_c, 0, 74, 0
2, 17048, Note_on_c, 0, 72, 78
2, 17056, Note_on_c, 0, 72, 0
2, 17056, Note_on_c, 0, 74, 78
2, 17064, Note_on_c, 0, 74, 0
2, 17064, Note_on_c, 0, 72, 78
2, 17072, Note_on_c, 0, 72, 0
2, 17072, Note_on_c, 0, 71, 78
2, 17080, Note_on_c, 0, 71, 0
2, 17080, Note_on_c, 0, 72, 78
2, 17088, Note_on_c, 0, 72, 0
2, 17088, Note_on_c, 0, 71, 78
2, 17103, Note_on_c, 0, 71, 0
2, 17104, Note_on_c, 0, 82, 78
2, 17119, Note_on_c, 0, 82, 0
2, 17120, Note_on_c, 0, 83, 78
2, 17135, Note_on_c, 0, 83, 0
2, 17136, Note_on_c, 0, 78, 78
2, 17151, Note_on_c, 0, 78, 0
2, 17152, Note_on_c, 0, 79, 78
2, 17167, Note_on_c, 0, 79, 0
2, 17168, Note_on_c, 0, 76, 78
2, 17183, Note_on_c, 0, 76, 0
2, 17184, Note_on_c, 0, 74, 78
2, 17229, Note_on_c, 0, 74, 0
2, 17232, Note_on_c, 0, 74, 78
2, 17240, Note_on_c, 0, 74, 0
2, 17240, Note_on_c, 0, 72, 78
2, 17248, Note_on_c, 0, 72, 0
2, 17248, Note_on_c, 0, 74, 78
2, 17256, Note_on_c, 0, 74, 0
2, 17256, Note_on_c, 0, 72, 78
2, 17264, Note_on_c, 0, 72, 0
2, 17264, Note_on_c, 0, 71, 78
2, 17272, Note_on_c, 0, 71, 0
2, 17272, Note_on_c, 0, 72, 78
2, 17280, Note_on_c, 0, 72, 0
2, 17280, Note_on_c, 0, 71, 78
2, 17295, Note_on_c, 0, 71, 0
2, 17296, Note_on_c, 0, 82, 78
2, 17311, Note_on_c, 0, 82, 0
2, 17312, Note_on_c, 0, 83, 78
2, 17327, Note_on_c, 0, 83, 0
2, 17328, Note_on_c, 0, 78, 78
2, 17343, Note_on_c, 0, 78, 0
2, 17344, Note_on_c, 0, 79, 78
2, 17359, Note_on_c, 0, 79, 0
2, 17360, Note_on_c, 0, 76, 78
2, 17375, Note_on_c, 0, 76, 0
2, 17376, Note_on_c, 0, 74, 78
2, 17421, Note_on_c, 0, 74, 0
2, 17424, Note_on_c, 0, 74, 78
2, 17432, Note_on_c, 0, 74, 0
2, 17432, Note_on_c, 0, 72, 78
2, 17440, Note_on_c, 0, 72, 0
2, 17440, Note_on_c, 0, 74, 78
2, 17448, Note_on_c, 0, 74, 0
2, 17448, Note_on_c, 0, 72, 78
2, 17456, Note_on_c, 0, 72, 0
2, 17456, Note_on_c, 0, 71, 78
2, 17464, Note_on_c, 0, 71, 0
2, 17464, Note_on_c, 0, 72, 78
2, 17472, Note_on_c, 0, 72, 0
2, 17472, Note_on_c, 0, 71, 78
2, 17487, Note_on_c, 0, 71, 0
2, 17488, Note_on_c, 0, 82, 78
2, 17503, Note_on_c, 0, 82, 0
2, 17504, Note_on_c, 0, 83, 78
2, 17519, Note_on_c, 0, 83, 0
2, 17520, Note_on_c, 0, 78, 78
2, 17535, Note_on_c, 0, 78, 0
2, 17536, Note_on_c, 0, 79, 78
2, 17551, Note_on_c, 0, 79, 0
2, 17552, Note_on_c, 0, 75, 78
2, 17567, Note_on_c, 0, 75, 0
2, 17568, Note_on_c, 0, 76, 78
2, 17583, Note_on_c, 0, 76, 0
2, 17584, Note_on_c, 0, 79, 78
2, 17599, Note_on_c, 0, 79, 0
2, 17600, Note_on_c, 0, 71, 78
2, 17615, Note_on_c, 0, 71, 0
2, 17616, Note_on_c, 0, 72, 78
2, 17631, Note_on_c, 0, 72, 0
2, 17632, Note_on_c, 0, 76, 78
2, 17647, Note_on_c, 0, 76, 0
2, 17648, Note_on_c, 0, 69, 78
2, 17663, Note_on_c, 0, 69, 0
2, 17664, Note_on_c, 0, 67, 78
2, 17753, Note_on_c, 0, 67, 0
2, 17760, Note_on_c, 0, 67, 78
2, 17768, Note_on_c, 0, 67, 0
2, 17768, Note_on_c, 0, 69, 78
2, 17776, Note_on_c, 0, 69, 0
2, 17776, Note_on_c, 0, 71, 78
2, 17784, Note_on_c, 0, 71, 0
2, 17784, Note_on_c, 0, 69, 78
2, 17792, Note_on_c, 0, 69, 0
2, 17792, Note_on_c, 0, 71, 78
2, 17800, Note_on_c, 0, 71, 0
2, 17800, Note_on_c, 0, 69, 78
2, 17808, Note_on_c, 0, 69, 0
2, 17808, Note_on_c, 0, 71, 78
2, 17816, Note_on_c, 0, 71, 0
2, 17816, Note_on_c, 0, 69, 78
2, 17824, Note_on_c, 0, 69, 0
2, 17824, Note_on_c, 0, 71, 78
2, 17832, Note_on_c, 0, 71, 0
2, 17832, Note_on_c, 0, 69, 78
2, 17840, Note_on_c, 0, 69, 0
2, 17840, Note_on_c, 0, 67, 78
2, 17848, Note_on_c, 0, 67, 0
2, 17848, Note_on_c, 0, 69, 78
2, 17856, Note_on_c, 0, 69, 0
2, 17856, Note_on_c, 0, 67, 78
2, 17876, Note_on_c, 0, 67, 0
2, 17968, Note_on_c, 0, 62, 78
2, 17983, Note_on_c, 0, 62, 0
2, 17984, Note_on_c, 0, 66, 78
2, 17999, Note_on_c, 0, 66, 0
2, 18000, Note_on_c, 0, 67, 78
2, 18015, Note_on_c, 0, 67, 0
2, 18016, Note_on_c, 0, 69, 78
2, 18031, Note_on_c, 0, 69, 0
2, 18032, Note_on_c, 0, 70, 78
2, 18047, Note_on_c, 0, 70, 0
2, 18048, Note_on_c, 0, 69, 78
2, 18068, Note_on_c, 0, 69, 0
2, 18160, Note_on_c, 0, 66, 78
2, 18175, Note_on_c, 0, 66, 0
2, 18176, Note_on_c, 0, 69, 78
2, 18191, Note_on_c, 0, 69, 0
2, 18192, Note_on_c, 0, 72, 78
2, 18207, Note_on_c, 0, 72, 0
2, 18208, Note_on_c, 0, 74, 78
2, 18223, Note_on_c, 0, 74, 0
2, 18224, Note_on_c, 0, 75, 78
2, 18239, Note_on_c, 0, 75, 0
2, 18240, Note_on_c, 0, 74, 78
2, 18260, Note_on_c, 0, 74, 0
2, 18352, Note_on_c, 0, 74, 78
2, 18367, Note_on_c, 0, 74, 0
2, 18368, Note_on_c, 0, 78, 78
2, 18383, Note_on_c, 0, 78, 0
2, 18384, Note_on_c, 0, 79, 78
2, 18399, Note_on_c, 0, 79, 0
2, 18400, Note_on_c, 0, 81, 78
2, 18415, Note_on_c, 0, 81, 0
2, 18416, Note_on_c, 0, 82, 78
2, 18431, Note_on_c, 0, 82, 0
2, 18448, Note_on_c, 0, 72, 78
2, 18463, Note_on_c, 0, 72, 0
2, 18464, Note_on_c, 0, 78, 78
2, 18479, Note_on_c, 0, 78, 0
2, 18480, Note_on_c, 0, 81, 78
2, 18495, Note_on_c, 0, 81, 0
2, 18496, Note_on_c, 0, 82, 78
2, 18511, Note_on_c, 0, 82, 0
2, 18512, Note_on_c, 0, 84, 78
2, 18527, Note_on_c, 0, 84, 0
2, 18544, Note_on_c, 0, 70, 78
2, 18559, Note_on_c, 0, 70, 0
2, 18560, Note_on_c, 0, 82, 78
2, 18575, Note_on_c, 0, 82, 0
2, 18592, Note_on_c, 0, 69, 78
2, 18607, Note_on_c, 0, 69, 0
2, 18608, Note_on_c, 0, 81, 78
2, 18623, Note_on_c, 0, 81, 0
2, 18640, Note_on_c, 0, 78, 78
2, 18655, Note_on_c, 0, 78, 0
2, 18656, Note_on_c, 0, 79, 78
2, 18671, Note_on_c, 0, 79, 0
2, 18672, Note_on_c, 0, 82, 78
2, 18687, Note_on_c, 0, 82, 0
2, 18688, Note_on_c, 0, 79, 78
2, 18703, Note_on_c, 0, 79, 0
2, 18704, Note_on_c, 0, 75, 78
2, 18719, Note_on_c, 0, 75, 0
2, 18720, Note_on_c, 0, 74, 78
2, 18765, Note_on_c, 0, 74, 0
2, 18768, Note_on_c, 0, 74, 78
2, 18774, Note_on_c, 0, 74, 0
2, 18774, Note_on_c, 0, 73, 78
2, 18780, Note_on_c, 0, 73, 0
2, 18780, Note_on_c, 0, 71, 78
2, 18786, Note_on_c, 0, 71, 0
2, 18786, Note_on_c, 0, 73, 78
2, 18813, Note_on_c, 0, 73, 0
2, 18816, Note_on_c, 0, 74, 78
2, 18905, Note_on_c, 0, 74, 0
2, 18928, Note_on_c, 0, 72, 78
2, 18943, Note_on_c, 0, 72, 0
2, 18944, Note_on_c, 0, 78, 78
2, 18959, Note_on_c, 0, 78, 0
2, 18960, Note_on_c, 0, 81, 78
2, 18975, Note_on_c, 0, 81, 0
2, 18976, Note_on_c, 0, 78, 78
2, 18991, Note_on_c, 0, 78, 0
2, 18992, Note_on_c, 0, 72, 78
2, 19007, Note_on_c, 0, 72, 0
2, 19008, Note_on_c, 0, 71, 78
2, 19028, Note_on_c, 0, 71, 0
2, 19120, Note_on_c, 0, 74, 78
2, 19135, Note_on_c, 0, 74, 0
2, 19136, Note_on_c, 0, 79, 78
2, 19151, Note_on_c, 0, 79, 0
2, 19152, Note_on_c, 0, 83, 78
2, 19167, Note_on_c, 0, 83, 0
2, 19168, Note_on_c, 0, 79, 78
2, 19183, Note_on_c, 0, 79, 0
2, 19184, Note_on_c, 0, 74, 78
2, 19199, Note_on_c, 0, 74, 0
2, 19200, Note_on_c, 0, 72, 78
2, 19220, Note_on_c, 0, 72, 0
2, 19312, Note_on_c, 0, 88, 78
2, 19327, Note_on_c, 0, 88, 0
2, 19328, Note_on_c, 0, 86, 78
2, 19343, Note_on_c, 0, 86, 0
2, 19344, Note_on_c, 0, 84, 78
2, 19359, Note_on_c, 0, 84, 0
2, 19360, Note_on_c, 0, 83, 78
2, 19375, Note_on_c, 0, 83, 0
2, 19376, Note_on_c, 0, 81, 78
2, 19391, Note_on_c, 0, 81, 0
2, 19392, Note_on_c, 0, 79, 78
2, 19407, Note_on_c, 0, 79, 0
2, 19408, Note_on_c, 0, 78, 78
2, 19423, Note_on_c, 0, 78, 0
2, 19424, Note_on_c, 0, 84, 78
2, 19439, Note_on_c, 0, 84, 0
2, 19440, Note_on_c, 0, 81, 78
2, 19455, Note_on_c, 0, 81, 0
2, 19456, Note_on_c, 0, 78, 78
2, 19471, Note_on_c, 0, 78, 0
2, 19472, Note_on_c, 0, 72, 78
2, 19487, Note_on_c, 0, 72, 0
2, 19488, Note_on_c, 0, 69, 78
2, 19503, Note_on_c, 0, 69, 0
2, 19504, Note_on_c, 0, 66, 78
2, 19519, Note_on_c, 0, 66, 0
2, 19520, Note_on_c, 0, 62, 78
2, 19535, Note_on_c, 0, 62, 0
2, 19728, Note_on_c, 0, 62, 78
2, 19743, Note_on_c, 0, 62, 0
2, 19744, Note_on_c, 0, 67, 78
2, 19759, Note_on_c, 0, 67, 0
2, 19760, Note_on_c, 0, 71, 78
2, 19775, Note_on_c, 0, 71, 0
2, 19776, Note_on_c, 0, 62, 78
2, 19791, Note_on_c, 0, 62, 0
2, 19792, Note_on_c, 0, 61, 78
2, 19807, Note_on_c, 0, 61, 0
2, 19808, Note_on_c, 0, 60, 78
2, 19823, Note_on_c, 0, 60, 0
2, 19824, Note_on_c, 0, 69, 94
2, 19887, Note_on_c, 0, 69, 0
2, 19888, Note_on_c, 0, 67, 78
2, 19903, Note_on_c, 0, 67, 0
2, 19904, Note_on_c, 0, 66, 78
2, 19919, Note_on_c, 0, 66, 0
2, 19920, Note_on_c, 0, 64, 78
2, 19935, Note_on_c, 0, 64, 0
2, 19936, Note_on_c, 0, 62, 78
2, 19951, Note_on_c, 0, 62, 0
2, 19952, Note_on_c, 0, 60, 78
2, 19967, Note_on_c, 0, 60, 0
2, 19968, Note_on_c, 0, 59, 78
2, 19983, Note_on_c, 0, 59, 0
2, 19984, Note_on_c, 0, 62, 78
2, 19999, Note_on_c, 0, 62, 0
2, 20000, Note_on_c, 0, 67, 78
2, 20015, Note_on_c, 0, 67, 0
2, 20016, Note_on_c, 0, 62, 78
2, 20031, Note_on_c, 0, 62, 0
2, 20032, Note_on_c, 0, 67, 78
2, 20047, Note_on_c, 0, 67, 0
2, 20048, Note_on_c, 0, 71, 78
2, 20063, Note_on_c, 0, 71, 0
2, 20064, Note_on_c, 0, 74, 78
2, 20084, Note_on_c, 0, 74, 0
2, 20112, Note_on_c, 0, 62, 78
2, 20127, Note_on_c, 0, 62, 0
2, 20128, Note_on_c, 0, 67, 78
2, 20143, Note_on_c, 0, 67, 0
2, 20144, Note_on_c, 0, 71, 78
2, 20159, Note_on_c, 0, 71, 0
2, 20160, Note_on_c, 0, 62, 78
2, 20175, Note_on_c, 0, 62, 0
2, 20176, Note_on_c, 0, 61, 78
2, 20191, Note_on_c, 0, 61, 0
2, 20192, Note_on_c, 0, 60, 78
2, 20207, Note_on_c, 0, 60, 0
2, 20208, Note_on_c, 0, 69, 94
2, 20271, Note_on_c, 0, 69, 0
2, 20272, Note_on_c, 0, 67, 78
2, 20287, Note_on_c, 0, 67, 0
2, 20288, Note_on_c, 0, 66, 78
2, 20303, Note_on_c, 0, 66, 0
2, 20304, Note_on_c, 0, 64, 78
2, 20319, Note_on_c, 0, 64, 0
2, 20320, Note_on_c, 0, 62, 78
2, 20335, Note_on_c, 0, 62, 0
2, 20336, Note_on_c, 0, 60, 78
2, 20351, Note_on_c, 0, 60, 0
2, 20352, Note_on_c, 0, 59, 78
2, 20367, Note_on_c, 0, 59, 0
2, 20368, Note_on_c, 0, 62, 78
2, 20383, Note_on_c, 0, 62, 0
2, 20384, Note_on_c, 0, 67, 78
2, 20399, Note_on_c, 0, 67, 0
2, 20400, Note_on_c, 0, 62, 78
2, 20415, Note_on_c, 0, 62, 0
2, 20416, Note_on_c, 0, 67, 78
2, 20431, Note_on_c, 0, 67, 0
2, 20432, Note_on_c, 0, 71, 78
2, 20447, Note_on_c, 0, 71, 0
2, 20448, Note_on_c, 0, 74, 78
2, 20463, Note_on_c, 0, 74, 0
2, 20464, Note_on_c, 0, 72, 78
2, 20479, Note_on_c, 0, 72, 0
2, 20480, Note_on_c, 0, 71, 78
2, 20495, Note_on_c, 0, 71, 0
2, 20496, Note_on_c, 0, 69, 78
2, 20511, Note_on_c, 0, 69, 0
2, 20512, Note_on_c, 0, 67, 78
2, 20527, Note_on_c, 0, 67, 0
2, 20528, Note_on_c, 0, 66, 78
2, 20543, Note_on_c, 0, 66, 0
2, 20544, Note_on_c, 0, 64, 78
2, 20559, Note_on_c, 0, 64, 0
2, 20560, Note_on_c, 0, 75, 78
2, 20575, Note_on_c, 0, 75, 0
2, 20576, Note_on_c, 0, 76, 78
2, 20591, Note_on_c, 0, 76, 0
2, 20592, Note_on_c, 0, 74, 78
2, 20604, Note_on_c, 0, 74, 0
2, 20604, Note_on_c, 0, 72, 78
2, 20615, Note_on_c, 0, 72, 0
2, 20616, Note_on_c, 0, 71, 78
2, 20628, Note_on_c, 0, 71, 0
2, 20628, Note_on_c, 0, 69, 78
2, 20640, Note_on_c, 0, 69, 0
2, 20640, Note_on_c, 0, 67, 78
2, 20685, Note_on_c, 0, 67, 0
2, 20688, Note_on_c, 0, 66, 78
2, 20688, Note_on_c, 0, 62, 78
2, 20733, Note_on_c, 0, 66, 0
2, 20733, Note_on_c, 0, 62, 0
2, 20736, Note_on_c, 0, 66, 78
2, 20832, Note_on_c, 0, 66, 0
2, 20832, Note_on_c, 0, 67, 78
2, 20879, Note_on_c, 0, 67, 0
2, 20880, Note_on_c, 0, 74, 78
2, 20895, Note_on_c, 0, 74, 0
2, 20896, Note_on_c, 0, 79, 78
2, 20911, Note_on_c, 0, 79, 0
2, 20912, Note_on_c, 0, 83, 78
2, 20927, Note_on_c, 0, 83, 0
2, 20928, Note_on_c, 0, 74, 78
2, 20943, Note_on_c, 0, 74, 0
2, 20944, Note_on_c, 0, 73, 78
2, 20959, Note_on_c, 0, 73, 0
2, 20960, Note_on_c, 0, 72, 78
2, 20975, Note_on_c, 0, 72, 0
2, 20976, Note_on_c, 0, 81, 94
2, 21039, Note_on_c, 0, 81, 0
2, 21040, Note_on_c, 0, 79, 78
2, 21055, Note_on_c, 0, 79, 0
2, 21056, Note_on_c, 0, 78, 78
2, 21071, Note_on_c, 0, 78, 0
2, 21072, Note_on_c, 0, 76, 78
2, 21087, Note_on_c, 0, 76, 0
2, 21088, Note_on_c, 0, 74, 78
2, 21103, Note_on_c, 0, 74, 0
2, 21104, Note_on_c, 0, 72, 78
2, 21119, Note_on_c, 0, 72, 0
2, 21120, Note_on_c, 0, 71, 78
2, 21135, Note_on_c, 0, 71, 0
2, 21136, Note_on_c, 0, 74, 78
2, 21151, Note_on_c, 0, 74, 0
2, 21152, Note_on_c, 0, 79, 78
2, 21167, Note_on_c, 0, 79, 0
2, 21168, Note_on_c, 0, 74, 78
2, 21183, Note_on_c, 0, 74, 0
2, 21184, Note_on_c, 0, 79, 78
2, 21199, Note_on_c, 0, 79, 0
2, 21200, Note_on_c, 0, 83, 78
2, 21215, Note_on_c, 0, 83, 0
2, 21216, Note_on_c, 0, 86, 78
2, 21236, Note_on_c, 0, 86, 0
2, 21264, Note_on_c, 0, 74, 78
2, 21279, Note_on_c, 0, 74, 0
2, 21280, Note_on_c, 0, 79, 78
2, 21295, Note_on_c, 0, 79, 0
2, 21296, Note_on_c, 0, 83, 78
2, 21311, Note_on_c, 0, 83, 0
2, 21312, Note_on_c, 0, 74, 78
2, 21327, Note_on_c, 0, 74, 0
2, 21328, Note_on_c, 0, 73, 78
2, 21343, Note_on_c, 0, 73, 0
2, 21344, Note_on_c, 0, 72, 78
2, 21359, Note_on_c, 0, 72, 0
2, 21360, Note_on_c, 0, 81, 94
2, 21423, Note_on_c, 0, 81, 0
2, 21424, Note_on_c, 0, 79, 78
2, 21439, Note_on_c, 0, 79, 0
2, 21440, Note_on_c, 0, 78, 78
2, 21455, Note_on_c, 0, 78, 0
2, 21456, Note_on_c, 0, 76, 78
2, 21471, Note_on_c, 0, 76, 0
2, 21472, Note_on_c, 0, 74, 78
2, 21487, Note_on_c, 0, 74, 0
2, 21488, Note_on_c, 0, 72, 78
2, 21503, Note_on_c, 0, 72, 0
2, 21504, Note_on_c, 0, 71, 78
2, 21519, Note_on_c, 0, 71, 0
2, 21520, Note_on_c, 0, 78, 78
2, 21535, Note_on_c, 0, 78, 0
2, 21536, Note_on_c, 0, 79, 78
2, 21551, Note_on_c, 0, 79, 0
2, 21552, Note_on_c, 0, 75, 78
2, 21567, Note_on_c, 0, 75, 0
2, 21568, Note_on_c, 0, 76, 78
2, 21583, Note_on_c, 0, 76, 0
2, 21584, Note_on_c, 0, 73, 78
2, 21599, Note_on_c, 0, 73, 0
2, 21600, Note_on_c, 0, 74, 78
2, 21615, Note_on_c, 0, 74, 0
2, 21616, Note_on_c, 0, 71, 78
2, 21631, Note_on_c, 0, 71, 0
2, 21632, Note_on_c, 0, 72, 78
2, 21647, Note_on_c, 0, 72, 0
2, 21648, Note_on_c, 0, 76, 78
2, 21663, Note_on_c, 0, 76, 0
2, 21664, Note_on_c, 0, 72, 78
2, 21679, Note_on_c, 0, 72, 0
2, 21680, Note_on_c, 0, 69, 78
2, 21695, Note_on_c, 0, 69, 0
2, 21696, Note_on_c, 0, 67, 78
2, 21785, Note_on_c, 0, 67, 0
2, 21792, Note_on_c, 0, 67, 78
2, 21800, Note_on_c, 0, 67, 0
2, 21800, Note_on_c, 0, 69, 78
2, 21808, Note_on_c, 0, 69, 0
2, 21808, Note_on_c, 0, 71, 78
2, 21816, Note_on_c, 0, 71, 0
2, 21816, Note_on_c, 0, 69, 78
2, 21824, Note_on_c, 0, 69, 0
2, 21824, Note_on_c, 0, 71, 78
2, 21832, Note_on_c, 0, 71, 0
2, 21832, Note_on_c, 0, 69, 78
2, 21840, Note_on_c, 0, 69, 0
2, 21840, Note_on_c, 0, 71, 78
2, 21848, Note_on_c, 0, 71, 0
2, 21848, Note_on_c, 0, 69, 78
2, 21856, Note_on_c, 0, 69, 0
2, 21856, Note_on_c, 0, 71, 78
2, 21864, Note_on_c, 0, 71, 0
2, 21864, Note_on_c, 0, 69, 78
2, 21872, Note_on_c, 0, 69, 0
2, 21872, Note_on_c, 0, 67, 78
2, 21880, Note_on_c, 0, 67, 0
2, 21880, Note_on_c, 0, 69, 78
2, 21888, Note_on_c, 0, 69, 0
2, 21888, Note_on_c, 0, 67, 78
2, 21977, Note_on_c, 0, 67, 0
2, 22032, Note_on_c, 0, 67, 78
2, 22066, Note_on_c, 0, 67, 0
2, 22068, Note_on_c, 0, 71, 78
2, 22080, Note_on_c, 0, 71, 0
2, 22080, Note_on_c, 0, 74, 78
2, 22114, Note_on_c, 0, 74, 0
2, 22116, Note_on_c, 0, 71, 80
2, 22128, Note_on_c, 0, 71, 0
2, 22128, Note_on_c, 0, 79, 97
2, 22210, Note_on_c, 0, 79, 0
2, 22212, Note_on_c, 0, 78, 82
2, 22224, Note_on_c, 0, 78, 0
2, 22224, Note_on_c, 0, 76, 81
2, 22258, Note_on_c, 0, 76, 0
2, 22260, Note_on_c, 0, 74, 78
2, 22272, Note_on_c, 0, 74, 0
2, 22272, Note_on_c, 0, 74, 78
2, 22361, Note_on_c, 0, 74, 0
2, 22368, Note_on_c, 0, 72, 78
2, 22374, Note_on_c, 0, 72, 0
2, 22374, Note_on_c, 0, 74, 78
2, 22380, Note_on_c, 0, 74, 0
2, 22380, Note_on_c, 0, 72, 78
2, 22402, Note_on_c, 0, 72, 0
2, 22404, Note_on_c, 0, 71, 78
2, 22416, Note_on_c, 0, 71, 0
2, 22416, Note_on_c, 0, 69, 78
2, 22422, Note_on_c, 0, 69, 0
2, 22422, Note_on_c, 0, 71, 78
2, 22428, Note_on_c, 0, 71, 0
2, 22428, Note_on_c, 0, 69, 78
2, 22450, Note_on_c, 0, 69, 0
2, 22452, Note_on_c, 0, 67, 78
2, 22464, Note_on_c, 0, 67, 0
2, 22464, Note_on_c, 0, 67, 78
2, 22560, Note_on_c, 0, 67, 0
2, 22560, Note_on_c, 0, 66, 78
2, 22575, Note_on_c, 0, 66, 0
2, 22576, Note_on_c, 0, 69, 78
2, 22591, Note_on_c, 0, 69, 0
2, 22592, Note_on_c, 0, 72, 78
2, 22607, Note_on_c, 0, 72, 0
2, 22608, Note_on_c, 0, 76, 78
2, 22623, Note_on_c, 0, 76, 0
2, 22624, Note_on_c, 0, 74, 78
2, 22639, Note_on_c, 0, 74, 0
2, 22640, Note_on_c, 0, 72, 78
2, 22655, Note_on_c, 0, 72, 0
2, 22656, Note_on_c, 0, 72, 78
2, 22745, Note_on_c, 0, 72, 0
2, 22752, Note_on_c, 0, 72, 78
2, 22758, Note_on_c, 0, 72, 0
2, 22758, Note_on_c, 0, 71, 78
2, 22764, Note_on_c, 0, 71, 0
2, 22764, Note_on_c, 0, 69, 78
2, 22770, Note_on_c, 0, 69, 0
2, 22770, Note_on_c, 0, 71, 78
2, 22786, Note_on_c, 0, 71, 0
2, 22788, Note_on_c, 0, 74, 78
2, 22800, Note_on_c, 0, 74, 0
2, 22800, Note_on_c, 0, 67, 78
2, 22834, Note_on_c, 0, 67, 0
2, 22836, Note_on_c, 0, 71, 78
2, 22848, Note_on_c, 0, 71, 0
2, 22848, Note_on_c, 0, 64, 78
2, 22882, Note_on_c, 0, 64, 0
2, 22884, Note_on_c, 0, 68, 78
2, 22896, Note_on_c, 0, 68, 0
2, 22896, Note_on_c, 0, 69, 78
2, 22902, Note_on_c, 0, 69, 0
2, 22902, Note_on_c, 0, 68, 78
2, 22908, Note_on_c, 0, 68, 0
2, 22908, Note_on_c, 0, 69, 78
2, 22930, Note_on_c, 0, 69, 0
2, 22932, Note_on_c, 0, 72, 78
2, 22944, Note_on_c, 0, 72, 0
2, 22944, Note_on_c, 0, 71, 78
2, 22978, Note_on_c, 0, 71, 0
2, 22980, Note_on_c, 0, 74, 78
2, 22992, Note_on_c, 0, 74, 0
2, 22992, Note_on_c, 0, 66, 78
2, 23026, Note_on_c, 0, 66, 0
2, 23028, Note_on_c, 0, 69, 78
2, 23040, Note_on_c, 0, 69, 0
2, 23040, Note_on_c, 0, 67, 78
2, 23079, Note_on_c, 0, 67, 0
2, 23268, Note_on_c, 0, 74, 78
2, 23268, Note_on_c, 0, 71, 78
2, 23280, Note_on_c, 0, 74, 0
2, 23280, Note_on_c, 0, 71, 0
2, 23280, Note_on_c, 0, 79, 79
2, 23280, Note_on_c, 0, 71, 79
2, 23314, Note_on_c, 0, 79, 0
2, 23314, Note_on_c, 0, 71, 0
2, 23316, Note_on_c, 0, 79, 83
2, 23316, Note_on_c, 0, 71, 83
2, 23328, Note_on_c, 0, 79, 0
2, 23328, Note_on_c, 0, 71, 0
2, 23328, Note_on_c, 0, 79, 85
2, 23328, Note_on_c, 0, 71, 85
2, 23362, Note_on_c, 0, 79, 0
2, 23362, Note_on_c, 0, 71, 0
2, 23364, Note_on_c, 0, 77, 82
2, 23364, Note_on_c, 0, 74, 82
2, 23376, Note_on_c, 0, 77, 0
2, 23376, Note_on_c, 0, 74, 0
2, 23376, Note_on_c, 0, 76, 81
2, 23376, Note_on_c, 0, 72, 81
2, 23410, Note_on_c, 0, 76, 0
2, 23410, Note_on_c, 0, 72, 0
2, 23412, Note_on_c, 0, 74, 78
2, 23412, Note_on_c, 0, 71, 78
2, 23424, Note_on_c, 0, 74, 0
2, 23424, Note_on_c, 0, 71, 0
2, 23424, Note_on_c, 0, 74, 78
2, 23424, Note_on_c, 0, 71, 78
2, 23520, Note_on_c, 0, 74, 0
2, 23520, Note_on_c, 0, 71, 0
2, 23520, Note_on_c, 0, 76, 78
2, 23520, Note_on_c, 0, 72, 78
2, 23609, Note_on_c, 0, 76, 0
2, 23609, Note_on_c, 0, 72, 0
2, 23652, Note_on_c, 0, 79, 78
2, 23652, Note_on_c, 0, 76, 78
2, 23664, Note_on_c, 0, 79, 0
2, 23664, Note_on_c, 0, 76, 0
2, 23664, Note_on_c, 0, 84, 79
2, 23664, Note_on_c, 0, 76, 79
2, 23698, Note_on_c, 0, 84, 0
2, 23698, Note_on_c, 0, 76, 0
2, 23700, Note_on_c, 0, 84, 83
2, 23700, Note_on_c, 0, 76, 83
2, 23712, Note_on_c, 0, 84, 0
2, 23712, Note_on_c, 0, 76, 0
2, 23712, Note_on_c, 0, 84, 85
2, 23712, Note_on_c, 0, 76, 85
2, 23746, Note_on_c, 0, 84, 0
2, 23746, Note_on_c, 0, 76, 0
2, 23748, Note_on_c, 0, 79, 82
2, 23748, Note_on_c, 0, 76, 82
2, 23760, Note_on_c, 0, 79, 0
2, 23760, Note_on_c, 0, 76, 0
2, 23760, Note_on_c, 0, 77, 81
2, 23760, Note_on_c, 0, 74, 81
2, 23794, Note_on_c, 0, 77, 0
2, 23794, Note_on_c, 0, 74, 0
2, 23796, Note_on_c, 0, 76, 78
2, 23796, Note_on_c, 0, 72, 78
2, 23808, Note_on_c, 0, 76, 0
2, 23808, Note_on_c, 0, 72, 0
2, 23808, Note_on_c, 0, 76, 78
2, 23808, Note_on_c, 0, 72, 78
2, 23904, Note_on_c, 0, 76, 0
2, 23904, Note_on_c, 0, 72, 0
2, 23904, Note_on_c, 0, 74, 78
2, 23904, Note_on_c, 0, 71, 78
2, 23993, Note_on_c, 0, 74, 0
2, 23993, Note_on_c, 0, 71, 0
2, 24036, Note_on_c, 0, 74, 78
2, 24036, Note_on_c, 0, 71, 78
2, 24048, Note_on_c, 0, 74, 0
2, 24048, Note_on_c, 0, 71, 0
2, 24048, Note_on_c, 0, 83, 79
2, 24048, Note_on_c, 0, 74, 79
2, 24082, Note_on_c, 0, 83, 0
2, 24082, Note_on_c, 0, 74, 0
2, 24084, Note_on_c, 0, 83, 83
2, 24084, Note_on_c, 0, 74, 83
2, 24096, Note_on_c, 0, 83, 0
2, 24096, Note_on_c, 0, 74, 0
2, 24096, Note_on_c, 0, 83, 85
2, 24096, Note_on_c, 0, 74, 85
2, 24130, Note_on_c, 0, 83, 0
2, 24130, Note_on_c, 0, 74, 0
2, 24132, Note_on_c, 0, 77, 82
2, 24132, Note_on_c, 0, 74, 82
2, 24144, Note_on_c, 0, 77, 0
2, 24144, Note_on_c, 0, 74, 0
2, 24144, Note_on_c, 0, 76, 81
2, 24144, Note_on_c, 0, 72, 81
2, 24178, Note_on_c, 0, 76, 0
2, 24178, Note_on_c, 0, 72, 0
2, 24180, Note_on_c, 0, 74, 78
2, 24180, Note_on_c, 0, 71, 78
2, 24192, Note_on_c, 0, 74, 0
2, 24192, Note_on_c, 0, 71, 0
2, 24192, Note_on_c, 0, 74, 78
2, 24281, Note_on_c, 0, 74, 0
2, 24288, Note_on_c, 0, 72, 78
2, 24294, Note_on_c, 0, 72, 0
2, 24294, Note_on_c, 0, 74, 78
2, 24300, Note_on_c, 0, 74, 0
2, 24300, Note_on_c, 0, 72, 78
2, 24379, Note_on_c, 0, 72, 0
2, 24420, Note_on_c, 0, 81, 78
2, 24420, Note_on_c, 0, 72, 78
2, 24432, Note_on_c, 0, 81, 0
2, 24432, Note_on_c, 0, 72, 0
2, 24432, Note_on_c, 0, 81, 78
2, 24432, Note_on_c, 0, 72, 78
2, 24466, Note_on_c, 0, 81, 0
2, 24466, Note_on_c, 0, 72, 0
2, 24468, Note_on_c, 0, 81, 78
2, 24468, Note_on_c, 0, 72, 78
2, 24480, Note_on_c, 0, 81, 0
2, 24480, Note_on_c, 0, 72, 0
2, 24480, Note_on_c, 0, 81, 78
2, 24480, Note_on_c, 0, 72, 78
2, 24514, Note_on_c, 0, 81, 0
2, 24514, Note_on_c, 0, 72, 0
2, 24516, Note_on_c, 0, 72, 78
2, 24516, Note_on_c, 0, 69, 78
2, 24528, Note_on_c, 0, 72, 0
2, 24528, Note_on_c, 0, 69, 0
2, 24528, Note_on_c, 0, 72, 78
2, 24528, Note_on_c, 0, 69, 78
2, 24562, Note_on_c, 0, 72, 0
2, 24562, Note_on_c, 0, 69, 0
2, 24564, Note_on_c, 0, 72, 78
2, 24564, Note_on_c, 0, 69, 78
2, 24576, Note_on_c, 0, 72, 0
2, 24576, Note_on_c, 0, 69, 0
2, 24576, Note_on_c, 0, 71, 78
2, 24576, Note_on_c, 0, 68, 78
2, 24665, Note_on_c, 0, 71, 0
2, 24665, Note_on_c, 0, 68, 0
2, 24720, Note_on_c, 0, 68, 80
2, 24754, Note_on_c, 0, 68, 0
2, 24756, Note_on_c, 0, 80, 81
2, 24768, Note_on_c, 0, 80, 0
2, 24768, Note_on_c, 0, 69, 81
2, 24802, Note_on_c, 0, 69, 0
2, 24804, Note_on_c, 0, 81, 82
2, 24816, Note_on_c, 0, 81, 0
2, 24816, Note_on_c, 0, 71, 82
2, 24850, Note_on_c, 0, 71, 0
2, 24852, Note_on_c, 0, 83, 83
2, 24864, Note_on_c, 0, 83, 0
2, 24864, Note_on_c, 0, 72, 83
2, 24898, Note_on_c, 0, 72, 0
2, 24900, Note_on_c, 0, 84, 83
2, 24912, Note_on_c, 0, 84, 0
2, 24912, Note_on_c, 0, 75, 84
2, 24946, Note_on_c, 0, 75, 0
2, 24948, Note_on_c, 0, 87, 84
2, 24960, Note_on_c, 0, 87, 0
2, 24960, Note_on_c, 0, 76, 85
2, 25049, Note_on_c, 0, 76, 0
2, 25104, Note_on_c, 0, 68, 78
2, 25138, Note_on_c, 0, 68, 0
2, 25140, Note_on_c, 0, 71, 79
2, 25152, Note_on_c, 0, 71, 0
2, 25152, Note_on_c, 0, 69, 80
2, 25186, Note_on_c, 0, 69, 0
2, 25188, Note_on_c, 0, 72, 82
2, 25200, Note_on_c, 0, 72, 0
2, 25200, Note_on_c, 0, 71, 82
2, 25234, Note_on_c, 0, 71, 0
2, 25236, Note_on_c, 0, 74, 84
2, 25248, Note_on_c, 0, 74, 0
2, 25248, Note_on_c, 0, 72, 85
2, 25282, Note_on_c, 0, 72, 0
2, 25284, Note_on_c, 0, 76, 85
2, 25296, Note_on_c, 0, 76, 0
2, 25296, Note_on_c, 0, 73, 85
2, 25330, Note_on_c, 0, 73, 0
2, 25332, Note_on_c, 0, 76, 85
2, 25344, Note_on_c, 0, 76, 0
2, 25344, Note_on_c, 0, 74, 85
2, 25378, Note_on_c, 0, 74, 0
2, 25380, Note_on_c, 0, 77, 85
2, 25392, Note_on_c, 0, 77, 0
2, 25392, Note_on_c, 0, 76, 85
2, 25426, Note_on_c, 0, 76, 0
2, 25428, Note_on_c, 0, 79, 85
2, 25440, Note_on_c, 0, 79, 0
2, 25440, Note_on_c, 0, 77, 85
2, 25474, Note_on_c, 0, 77, 0
2, 25476, Note_on_c, 0, 81, 85
2, 25488, Note_on_c, 0, 81, 0
2, 25488, Note_on_c, 0, 76, 85
2, 25522, Note_on_c, 0, 76, 0
2, 25524, Note_on_c, 0, 81, 85
2, 25536, Note_on_c, 0, 81, 0
2, 25536, Note_on_c, 0, 74, 85
2, 25570, Note_on_c, 0, 74, 0
2, 25572, Note_on_c, 0, 81, 85
2, 25584, Note_on_c, 0, 81, 0
2, 25584, Note_on_c, 0, 72, 85
2, 25618, Note_on_c, 0, 72, 0
2, 25620, Note_on_c, 0, 81, 85
2, 25632, Note_on_c, 0, 81, 0
2, 25632, Note_on_c, 0, 71, 85
2, 25666, Note_on_c, 0, 71, 0
2, 25668, Note_on_c, 0, 81, 85
2, 25680, Note_on_c, 0, 81, 0
2, 25680, Note_on_c, 0, 69, 85
2, 25714, Note_on_c, 0, 69, 0
2, 25716, Note_on_c, 0, 81, 85
2, 25728, Note_on_c, 0, 81, 0
2, 25728, Note_on_c, 0, 68, 85
2, 25762, Note_on_c, 0, 68, 0
2, 25764, Note_on_c, 0, 80, 85
2, 25776, Note_on_c, 0, 80, 0
2, 25776, Note_on_c, 0, 65, 85
2, 25810, Note_on_c, 0, 65, 0
2, 25812, Note_on_c, 0, 77, 85
2, 25824, Note_on_c, 0, 77, 0
2, 25824, Note_on_c, 0, 64, 85
2, 25858, Note_on_c, 0, 64, 0
2, 25860, Note_on_c, 0, 83, 85
2, 25872, Note_on_c, 0, 83, 0
2, 25872, Note_on_c, 0, 71, 85
2, 25906, Note_on_c, 0, 71, 0
2, 25908, Note_on_c, 0, 74, 85
2, 25920, Note_on_c, 0, 74, 0
2, 25920, Note_on_c, 0, 72, 85
2, 25935, Note_on_c, 0, 72, 0
2, 25936, Note_on_c, 0, 83, 78
2, 25951, Note_on_c, 0, 83, 0
2, 25952, Note_on_c, 0, 84, 78
2, 25967, Note_on_c, 0, 84, 0
2, 25968, Note_on_c, 0, 80, 78
2, 25983, Note_on_c, 0, 80, 0
2, 25984, Note_on_c, 0, 81, 78
2, 25999, Note_on_c, 0, 81, 0
2, 26000, Note_on_c, 0, 77, 78
2, 26015, Note_on_c, 0, 77, 0
2, 26016, Note_on_c, 0, 76, 78
2, 26061, Note_on_c, 0, 76, 0
2, 26064, Note_on_c, 0, 76, 78
2, 26072, Note_on_c, 0, 76, 0
2, 26072, Note_on_c, 0, 74, 78
2, 26080, Note_on_c, 0, 74, 0
2, 26080, Note_on_c, 0, 76, 78
2, 26088, Note_on_c, 0, 76, 0
2, 26088, Note_on_c, 0, 74, 78
2, 26096, Note_on_c, 0, 74, 0
2, 26096, Note_on_c, 0, 72, 78
2, 26104, Note_on_c, 0, 72, 0
2, 26104, Note_on_c, 0, 74, 78
2, 26112, Note_on_c, 0, 74, 0
2, 26112, Note_on_c, 0, 72, 78
2, 26127, Note_on_c, 0, 72, 0
2, 26128, Note_on_c, 0, 83, 78
2, 26143, Note_on_c, 0, 83, 0
2, 26144, Note_on_c, 0, 84, 78
2, 26159, Note_on_c, 0, 84, 0
2, 26160, Note_on_c, 0, 80, 78
2, 26175, Note_on_c, 0, 80, 0
2, 26176, Note_on_c, 0, 81, 78
2, 26191, Note_on_c, 0, 81, 0
2, 26192, Note_on_c, 0, 77, 78
2, 26207, Note_on_c, 0, 77, 0
2, 26208, Note_on_c, 0, 76, 78
2, 26253, Note_on_c, 0, 76, 0
2, 26256, Note_on_c, 0, 76, 78
2, 26264, Note_on_c, 0, 76, 0
2, 26264, Note_on_c, 0, 74, 78
2, 26272, Note_on_c, 0, 74, 0
2, 26272, Note_on_c, 0, 76, 78
2, 26280, Note_on_c, 0, 76, 0
2, 26280, Note_on_c, 0, 74, 78
2, 26288, Note_on_c, 0, 74, 0
2, 26288, Note_on_c, 0, 72, 78
2, 26296, Note_on_c, 0, 72, 0
2, 26296, Note_on_c, 0, 74, 78
2, 26304, Note_on_c, 0, 74, 0
2, 26304, Control_c, 0, 64, 127
2, 26320, Note_on_c, 0, 72, 78
2, 26335, Note_on_c, 0, 72, 0
2, 26336, Note_on_c, 0, 76, 78
2, 26351, Note_on_c, 0, 76, 0
2, 26352, Note_on_c, 0, 81, 78
2, 26367, Note_on_c, 0, 81, 0
2, 26368, Note_on_c, 0, 76, 78
2, 26383, Note_on_c, 0, 76, 0
2, 26384, Note_on_c, 0, 72, 78
2, 26399, Note_on_c, 0, 72, 0
2, 26416, Note_on_c, 0, 69, 78
2, 26431, Note_on_c, 0, 69, 0
2, 26432, Note_on_c, 0, 72, 78
2, 26447, Note_on_c, 0, 72, 0
2, 26448, Note_on_c, 0, 81, 78
2, 26463, Note_on_c, 0, 81, 0
2, 26464, Note_on_c, 0, 72, 78
2, 26479, Note_on_c, 0, 72, 0
2, 26480, Note_on_c, 0, 69, 78
2, 26495, Note_on_c, 0, 69, 0
2, 26512, Note_on_c, 0, 69, 78
2, 26527, Note_on_c, 0, 69, 0
2, 26528, Note_on_c, 0, 72, 78
2, 26543, Note_on_c, 0, 72, 0
2, 26544, Note_on_c, 0, 81, 78
2, 26559, Note_on_c, 0, 81, 0
2, 26560, Note_on_c, 0, 72, 78
2, 26575, Note_on_c, 0, 72, 0
2, 26576, Note_on_c, 0, 69, 78
2, 26591, Note_on_c, 0, 69, 0
2, 26608, Note_on_c, 0, 69, 78
2, 26623, Note_on_c, 0, 69, 0
2, 26624, Note_on_c, 0, 81, 78
2, 26639, Note_on_c, 0, 81, 0
2, 26656, Note_on_c, 0, 72, 78
2, 26671, Note_on_c, 0, 72, 0
2, 26672, Note_on_c, 0, 84, 78
2, 26687, Note_on_c, 0, 84, 0
2, 26688, Control_c, 0, 64, 0
2, 26688, Control_c, 0, 64, 127
2, 26688, Control_c, 0, 64, 127
2, 26704, Note_on_c, 0, 68, 78
2, 26719, Note_on_c, 0, 68, 0
2, 26720, Note_on_c, 0, 71, 78
2, 26735, Note_on_c, 0, 71, 0
2, 26736, Note_on_c, 0, 77, 78
2, 26751, Note_on_c, 0, 77, 0
2, 26752, Note_on_c, 0, 71, 78
2, 26767, Note_on_c, 0, 71, 0
2, 26768, Note_on_c, 0, 68, 78
2, 26783, Note_on_c, 0, 68, 0
2, 26800, Note_on_c, 0, 71, 78
2, 26815, Note_on_c, 0, 71, 0
2, 26816, Note_on_c, 0, 83, 78
2, 26831, Note_on_c, 0, 83, 0
2, 26848, Note_on_c, 0, 68, 78
2, 26863, Note_on_c, 0, 68, 0
2, 26864, Note_on_c, 0, 80, 78
2, 26879, Note_on_c, 0, 80, 0
2, 26880, Control_c, 0, 64, 0
2, 26896, Note_on_c, 0, 69, 78
2, 26911, Note_on_c, 0, 69, 0
2, 26912, Note_on_c, 0, 81, 78
2, 26927, Note_on_c, 0, 81, 0
2, 26944, Note_on_c, 0, 67, 78
2, 26959, Note_on_c, 0, 67, 0
2, 26960, Note_on_c, 0, 79, 78
2, 26975, Note_on_c, 0, 79, 0
2, 26992, Note_on_c, 0, 65, 78
2, 27007, Note_on_c, 0, 65, 0
2, 27008, Note_on_c, 0, 77, 78
2, 27023, Note_on_c, 0, 77, 0
2, 27040, Note_on_c, 0, 67, 78
2, 27055, Note_on_c, 0, 67, 0
2, 27056, Note_on_c, 0, 73, 78
2, 27071, Note_on_c, 0, 73, 0
2, 27088, Note_on_c, 0, 69, 78
2, 27103, Note_on_c, 0, 69, 0
2, 27104, Note_on_c, 0, 74, 78
2, 27119, Note_on_c, 0, 74, 0
2, 27136, Note_on_c, 0, 69, 78
2, 27151, Note_on_c, 0, 69, 0
2, 27152, Note_on_c, 0, 77, 78
2, 27167, Note_on_c, 0, 77, 0
2, 27184, Note_on_c, 0, 69, 78
2, 27199, Note_on_c, 0, 69, 0
2, 27200, Note_on_c, 0, 74, 78
2, 27215, Note_on_c, 0, 74, 0
2, 27232, Note_on_c, 0, 67, 78
2, 27247, Note_on_c, 0, 67, 0
2, 27248, Note_on_c, 0, 72, 78
2, 27263, Note_on_c, 0, 72, 0
2, 27264, Note_on_c, 0, 70, 78
2, 27284, Note_on_c, 0, 70, 0
2, 27328, Note_on_c, 0, 65, 85
2, 27343, Note_on_c, 0, 65, 0
2, 27344, Note_on_c, 0, 70, 85
2, 27359, Note_on_c, 0, 70, 0
2, 27360, Note_on_c, 0, 74, 85
2, 27375, Note_on_c, 0, 74, 0
2, 27376, Note_on_c, 0, 70, 86
2, 27391, Note_on_c, 0, 70, 0
2, 27392, Note_on_c, 0, 74, 86
2, 27407, Note_on_c, 0, 74, 0
2, 27408, Note_on_c, 0, 77, 87
2, 27423, Note_on_c, 0, 77, 0
2, 27424, Note_on_c, 0, 74, 87
2, 27439, Note_on_c, 0, 74, 0
2, 27440, Note_on_c, 0, 77, 88
2, 27455, Note_on_c, 0, 77, 0
2, 27456, Note_on_c, 0, 82, 88
2, 27471, Note_on_c, 0, 82, 0
2, 27472, Note_on_c, 0, 77, 89
2, 27487, Note_on_c, 0, 77, 0
2, 27488, Note_on_c, 0, 82, 89
2, 27503, Note_on_c, 0, 82, 0
2, 27504, Note_on_c, 0, 86, 90
2, 27519, Note_on_c, 0, 86, 0
2, 27520, Note_on_c, 0, 82, 90
2, 27535, Note_on_c, 0, 82, 0
2, 27536, Note_on_c, 0, 86, 91
2, 27551, Note_on_c, 0, 86, 0
2, 27552, Note_on_c, 0, 89, 94
2, 27567, Note_on_c, 0, 89, 0
2, 27588, Control_c, 0, 64, 127
2, 27588, Note_on_c, 0, 69, 94
2, 27588, Note_on_c, 0, 66, 94
2, 27588, Note_on_c, 0, 63, 94
2, 27600, Note_on_c, 0, 69, 0
2, 27600, Note_on_c, 0, 66, 0
2, 27600, Note_on_c, 0, 63, 0
2, 27600, Note_on_c, 0, 69, 94
2, 27600, Note_on_c, 0, 66, 94
2, 27600, Note_on_c, 0, 63, 94
2, 27634, Note_on_c, 0, 69, 0
2, 27634, Note_on_c, 0, 66, 0
2, 27634, Note_on_c, 0, 63, 0
2, 27636, Note_on_c, 0, 69, 94
2, 27636, Note_on_c, 0, 66, 94
2, 27636, Note_on_c, 0, 63, 94
2, 27648, Note_on_c, 0, 69, 0
2, 27648, Note_on_c, 0, 66, 0
2, 27648, Note_on_c, 0, 63, 0
2, 27648, Control_c, 0, 64, 0
2, 27648, Note_on_c, 0, 64, 94
2, 27663, Note_on_c, 0, 64, 0
2, 27664, Note_on_c, 0, 69, 92
2, 27679, Note_on_c, 0, 69, 0
2, 27680, Note_on_c, 0, 72, 91
2, 27695, Note_on_c, 0, 72, 0
2, 27696, Note_on_c, 0, 76, 89
2, 27711, Note_on_c, 0, 76, 0
2, 27712, Note_on_c, 0, 72, 88
2, 27727, Note_on_c, 0, 72, 0
2, 27728, Note_on_c, 0, 69, 86
2, 27743, Note_on_c, 0, 69, 0
2, 27744, Note_on_c, 0, 64, 85
2, 27789, Note_on_c, 0, 64, 0
2, 27792, Note_on_c, 0, 56, 79
2, 27792, Note_on_c, 0, 50, 79
2, 27837, Note_on_c, 0, 56, 0
2, 27837, Note_on_c, 0, 50, 0
2, 27840, Note_on_c, 0, 56, 73
2, 27840, Note_on_c, 0, 50, 73
2, 27936, Note_on_c, 0, 56, 0
2, 27936, Note_on_c, 0, 50, 0
2, 27936, Note_on_c, 0, 57, 59
2, 27936, Note_on_c, 0, 48, 59
2, 27981, Note_on_c, 0, 57, 0
2, 27981, Note_on_c, 0, 48, 0
2, 27984, Note_on_c, 0, 76, 78
2, 27999, Note_on_c, 0, 76, 0
2, 28000, Note_on_c, 0, 81, 78
2, 28015, Note_on_c, 0, 81, 0
2, 28016, Note_on_c, 0, 84, 78
2, 28031, Note_on_c, 0, 84, 0
2, 28032, Note_on_c, 0, 76, 78
2, 28047, Note_on_c, 0, 76, 0
2, 28048, Note_on_c, 0, 75, 78
2, 28063, Note_on_c, 0, 75, 0
2, 28064, Note_on_c, 0, 74, 78
2, 28079, Note_on_c, 0, 74, 0
2, 28080, Note_on_c, 0, 83, 78
2, 28143, Note_on_c, 0, 83, 0
2, 28144, Note_on_c, 0, 81, 78
2, 28159, Note_on_c, 0, 81, 0
2, 28160, Note_on_c, 0, 80, 78
2, 28175, Note_on_c, 0, 80, 0
2, 28176, Note_on_c, 0, 78, 78
2, 28191, Note_on_c, 0, 78, 0
2, 28192, Note_on_c, 0, 76, 78
2, 28207, Note_on_c, 0, 76, 0
2, 28208, Note_on_c, 0, 74, 78
2, 28223, Note_on_c, 0, 74, 0
2, 28224, Note_on_c, 0, 72, 78
2, 28239, Note_on_c, 0, 72, 0
2, 28240, Note_on_c, 0, 76, 78
2, 28255, Note_on_c, 0, 76, 0
2, 28256, Note_on_c, 0, 81, 78
2, 28271, Note_on_c, 0, 81, 0
2, 28272, Note_on_c, 0, 76, 78
2, 28287, Note_on_c, 0, 76, 0
2, 28288, Note_on_c, 0, 81, 78
2, 28303, Note_on_c, 0, 81, 0
2, 28304, Note_on_c, 0, 84, 78
2, 28319, Note_on_c, 0, 84, 0
2, 28320, Note_on_c, 0, 88, 78
2, 28340, Note_on_c, 0, 88, 0
2, 28368, Note_on_c, 0, 76, 78
2, 28383, Note_on_c, 0, 76, 0
2, 28384, Note_on_c, 0, 81, 78
2, 28399, Note_on_c, 0, 81, 0
2, 28400, Note_on_c, 0, 84, 78
2, 28415, Note_on_c, 0, 84, 0
2, 28416, Note_on_c, 0, 76, 78
2, 28431, Note_on_c, 0, 76, 0
2, 28432, Note_on_c, 0, 75, 78
2, 28447, Note_on_c, 0, 75, 0
2, 28448, Note_on_c, 0, 74, 78
2, 28463, Note_on_c, 0, 74, 0
2, 28464, Note_on_c, 0, 83, 94
2, 28527, Note_on_c, 0, 83, 0
2, 28528, Note_on_c, 0, 81, 78
2, 28543, Note_on_c, 0, 81, 0
2, 28544, Note_on_c, 0, 80, 78
2, 28559, Note_on_c, 0, 80, 0
2, 28560, Note_on_c, 0, 78, 78
2, 28575, Note_on_c, 0, 78, 0
2, 28576, Note_on_c, 0, 76, 78
2, 28591, Note_on_c, 0, 76, 0
2, 28592, Note_on_c, 0, 74, 78
2, 28607, Note_on_c, 0, 74, 0
2, 28608, Note_on_c, 0, 74, 78
2, 28623, Note_on_c, 0, 74, 0
2, 28624, Note_on_c, 0, 73, 78
2, 28639, Note_on_c, 0, 73, 0
2, 28640, Note_on_c, 0, 72, 78
2, 28655, Note_on_c, 0, 72, 0
2, 28656, Note_on_c, 0, 81, 94
2, 28719, Note_on_c, 0, 81, 0
2, 28720, Note_on_c, 0, 79, 78
2, 28735, Note_on_c, 0, 79, 0
2, 28736, Note_on_c, 0, 78, 78
2, 28751, Note_on_c, 0, 78, 0
2, 28752, Note_on_c, 0, 76, 78
2, 28767, Note_on_c, 0, 76, 0
2, 28768, Note_on_c, 0, 74, 78
2, 28783, Note_on_c, 0, 74, 0
2, 28784, Note_on_c, 0, 72, 78
2, 28799, Note_on_c, 0, 72, 0
2, 28800, Note_on_c, 0, 72, 78
2, 28815, Note_on_c, 0, 72, 0
2, 28816, Note_on_c, 0, 71, 78
2, 28831, Note_on_c, 0, 71, 0
2, 28832, Note_on_c, 0, 70, 78
2, 28847, Note_on_c, 0, 70, 0
2, 28848, Note_on_c, 0, 79, 94
2, 28911, Note_on_c, 0, 79, 0
2, 28912, Note_on_c, 0, 77, 78
2, 28927, Note_on_c, 0, 77, 0
2, 28928, Note_on_c, 0, 76, 78
2, 28943, Note_on_c, 0, 76, 0
2, 28944, Note_on_c, 0, 74, 78
2, 28959, Note_on_c, 0, 74, 0
2, 28960, Note_on_c, 0, 72, 78
2, 28975, Note_on_c, 0, 72, 0
2, 28976, Note_on_c, 0, 70, 78
2, 28991, Note_on_c, 0, 70, 0
2, 28992, Note_on_c, 0, 69, 78
2, 29007, Note_on_c, 0, 69, 0
2, 29008, Note_on_c, 0, 77, 78
2, 29023, Note_on_c, 0, 77, 0
2, 29024, Note_on_c, 0, 76, 78
2, 29039, Note_on_c, 0, 76, 0
2, 29040, Note_on_c, 0, 74, 78
2, 29055, Note_on_c, 0, 74, 0
2, 29056, Note_on_c, 0, 81, 78
2, 29071, Note_on_c, 0, 81, 0
2, 29072, Note_on_c, 0, 79, 78
2, 29087, Note_on_c, 0, 79, 0
2, 29088, Note_on_c, 0, 77, 78
2, 29103, Note_on_c, 0, 77, 0
2, 29104, Note_on_c, 0, 76, 78
2, 29119, Note_on_c, 0, 76, 0
2, 29120, Note_on_c, 0, 74, 78
2, 29135, Note_on_c, 0, 74, 0
2, 29136, Note_on_c, 0, 72, 78
2, 29151, Note_on_c, 0, 72, 0
2, 29152, Note_on_c, 0, 71, 78
2, 29167, Note_on_c, 0, 71, 0
2, 29168, Note_on_c, 0, 72, 78
2, 29183, Note_on_c, 0, 72, 0
2, 29184, Note_on_c, 0, 72, 78
2, 29280, Note_on_c, 0, 72, 0
2, 29280, Note_on_c, 0, 71, 78
2, 29300, Note_on_c, 0, 71, 0
2, 29328, Note_on_c, 0, 72, 78
2, 29362, Note_on_c, 0, 72, 0
2, 29364, Note_on_c, 0, 76, 78
2, 29376, Note_on_c, 0, 76, 0
2, 29376, Note_on_c, 0, 79, 78
2, 29410, Note_on_c, 0, 79, 0
2, 29412, Note_on_c, 0, 76, 78
2, 29424, Note_on_c, 0, 76, 0
2, 29424, Note_on_c, 0, 84, 94
2, 29506, Note_on_c, 0, 84, 0
2, 29508, Note_on_c, 0, 83, 78
2, 29520, Note_on_c, 0, 83, 0
2, 29520, Note_on_c, 0, 81, 78
2, 29554, Note_on_c, 0, 81, 0
2, 29556, Note_on_c, 0, 79, 78
2, 29568, Note_on_c, 0, 79, 0
2, 29568, Note_on_c, 0, 79, 78
2, 29657, Note_on_c, 0, 79, 0
2, 29664, Note_on_c, 0, 77, 78
2, 29670, Note_on_c, 0, 77, 0
2, 29670, Note_on_c, 0, 79, 78
2, 29676, Note_on_c, 0, 79, 0
2, 29676, Note_on_c, 0, 77, 78
2, 29698, Note_on_c, 0, 77, 0
2, 29700, Note_on_c, 0, 76, 78
2, 29712, Note_on_c, 0, 76, 0
2, 29712, Note_on_c, 0, 74, 78
2, 29718, Note_on_c, 0, 74, 0
2, 29718, Note_on_c, 0, 76, 78
2, 29724, Note_on_c, 0, 76, 0
2, 29724, Note_on_c, 0, 74, 78
2, 29746, Note_on_c, 0, 74, 0
2, 29748, Note_on_c, 0, 72, 78
2, 29760, Note_on_c, 0, 72, 0
2, 29760, Note_on_c, 0, 72, 78
2, 29856, Note_on_c, 0, 72, 0
2, 29856, Note_on_c, 0, 71, 78
2, 29871, Note_on_c, 0, 71, 0
2, 29872, Note_on_c, 0, 74, 78
2, 29887, Note_on_c, 0, 74, 0
2, 29888, Note_on_c, 0, 77, 78
2, 29903, Note_on_c, 0, 77, 0
2, 29904, Note_on_c, 0, 81, 78
2, 29919, Note_on_c, 0, 81, 0
2, 29920, Note_on_c, 0, 79, 78
2, 29935, Note_on_c, 0, 79, 0
2, 29936, Note_on_c, 0, 77, 78
2, 29951, Note_on_c, 0, 77, 0
2, 29952, Note_on_c, 0, 77, 78
2, 30041, Note_on_c, 0, 77, 0
2, 30048, Note_on_c, 0, 77, 78
2, 30054, Note_on_c, 0, 77, 0
2, 30054, Note_on_c, 0, 76, 78
2, 30060, Note_on_c, 0, 76, 0
2, 30060, Note_on_c, 0, 74, 78
2, 30066, Note_on_c, 0, 74, 0
2, 30066, Note_on_c, 0, 76, 78
2, 30082, Note_on_c, 0, 76, 0
2, 30084, Note_on_c, 0, 79, 78
2, 30096, Note_on_c, 0, 79, 0
2, 30096, Note_on_c, 0, 72, 78
2, 30130, Note_on_c, 0, 72, 0
2, 30132, Note_on_c, 0, 76, 78
2, 30144, Note_on_c, 0, 76, 0
2, 30144, Note_on_c, 0, 69, 78
2, 30178, Note_on_c, 0, 69, 0
2, 30180, Note_on_c, 0, 73, 78
2, 30192, Note_on_c, 0, 73, 0
2, 30192, Note_on_c, 0, 74, 78
2, 30198, Note_on_c, 0, 74, 0
2, 30198, Note_on_c, 0, 73, 78
2, 30204, Note_on_c, 0, 73, 0
2, 30204, Note_on_c, 0, 74, 78
2, 30226, Note_on_c, 0, 74, 0
2, 30228, Note_on_c, 0, 77, 78
2, 30240, Note_on_c, 0, 77, 0
2, 30240, Note_on_c, 0, 76, 78
2, 30274, Note_on_c, 0, 76, 0
2, 30276, Note_on_c, 0, 79, 78
2, 30288, Note_on_c, 0, 79, 0
2, 30288, Note_on_c, 0, 71, 78
2, 30322, Note_on_c, 0, 71, 0
2, 30324, Note_on_c, 0, 74, 78
2, 30336, Note_on_c, 0, 74, 0
2, 30336, Note_on_c, 0, 72, 78
2, 30375, Note_on_c, 0, 72, 0
2, 30480, Note_on_c, 0, 60, 78
2, 30514, Note_on_c, 0, 60, 0
2, 30516, Note_on_c, 0, 64, 80
2, 30528, Note_on_c, 0, 64, 0
2, 30528, Note_on_c, 0, 67, 81
2, 30562, Note_on_c, 0, 67, 0
2, 30564, Note_on_c, 0, 64, 84
2, 30576, Note_on_c, 0, 64, 0
2, 30576, Note_on_c, 0, 72, 85
2, 30658, Note_on_c, 0, 72, 0
2, 30660, Note_on_c, 0, 71, 80
2, 30672, Note_on_c, 0, 71, 0
2, 30672, Note_on_c, 0, 69, 80
2, 30706, Note_on_c, 0, 69, 0
2, 30708, Note_on_c, 0, 67, 78
2, 30720, Note_on_c, 0, 67, 0
2, 30720, Note_on_c, 0, 67, 78
2, 30809, Note_on_c, 0, 67, 0
2, 30816, Note_on_c, 0, 65, 78
2, 30822, Note_on_c, 0, 65, 0
2, 30822, Note_on_c, 0, 67, 78
2, 30828, Note_on_c, 0, 67, 0
2, 30828, Note_on_c, 0, 65, 78
2, 30850, Note_on_c, 0, 65, 0
2, 30852, Note_on_c, 0, 64, 78
2, 30864, Note_on_c, 0, 64, 0
2, 30864, Note_on_c, 0, 62, 78
2, 30870, Note_on_c, 0, 62, 0
2, 30870, Note_on_c, 0, 64, 78
2, 30876, Note_on_c, 0, 64, 0
2, 30876, Note_on_c, 0, 62, 78
2, 30898, Note_on_c, 0, 62, 0
2, 30900, Note_on_c, 0, 60, 78
2, 30912, Note_on_c, 0, 60, 0
2, 30912, Note_on_c, 0, 60, 78
2, 31008, Note_on_c, 0, 60, 0
2, 31008, Note_on_c, 0, 59, 78
2, 31023, Note_on_c, 0, 59, 0
2, 31024, Note_on_c, 0, 62, 78
2, 31039, Note_on_c, 0, 62, 0
2, 31040, Note_on_c, 0, 65, 78
2, 31055, Note_on_c, 0, 65, 0
2, 31056, Note_on_c, 0, 69, 78
2, 31071, Note_on_c, 0, 69, 0
2, 31072, Note_on_c, 0, 67, 78
2, 31087, Note_on_c, 0, 67, 0
2, 31088, Note_on_c, 0, 65, 78
2, 31103, Note_on_c, 0, 65, 0
2, 31104, Note_on_c, 0, 65, 78
2, 31193, Note_on_c, 0, 65, 0
2, 31200, Note_on_c, 0, 64, 78
2, 31206, Note_on_c, 0, 64, 0
2, 31206, Note_on_c, 0, 65, 78
2, 31212, Note_on_c, 0, 65, 0
2, 31212, Note_on_c, 0, 64, 78
2, 31247, Note_on_c, 0, 64, 0
2, 31332, Note_on_c, 0, 60, 78
2, 31344, Note_on_c, 0, 60, 0
2, 31344, Note_on_c, 0, 64, 79
2, 31378, Note_on_c, 0, 64, 0
2, 31380, Note_on_c, 0, 67, 83
2, 31392, Note_on_c, 0, 67, 0
2, 31392, Note_on_c, 0, 72, 85
2, 31426, Note_on_c, 0, 72, 0
2, 31428, Note_on_c, 0, 67, 82
2, 31428, Note_on_c, 0, 64, 82
2, 31440, Note_on_c, 0, 67, 0
2, 31440, Note_on_c, 0, 64, 0
2, 31440, Note_on_c, 0, 67, 81
2, 31440, Note_on_c, 0, 64, 81
2, 31474, Note_on_c, 0, 67, 0
2, 31474, Note_on_c, 0, 64, 0
2, 31476, Note_on_c, 0, 67, 78
2, 31476, Note_on_c, 0, 64, 78
2, 31488, Note_on_c, 0, 67, 0
2, 31488, Note_on_c, 0, 64, 0
2, 31488, Note_on_c, 0, 67, 78
2, 31488, Note_on_c, 0, 64, 78
2, 31584, Note_on_c, 0, 67, 0
2, 31584, Note_on_c, 0, 64, 0
2, 31584, Note_on_c, 0, 69, 78
2, 31584, Note_on_c, 0, 65, 78
2, 31629, Note_on_c, 0, 69, 0
2, 31629, Note_on_c, 0, 65, 0
2, 31716, Note_on_c, 0, 65, 78
2, 31728, Note_on_c, 0, 65, 0
2, 31728, Note_on_c, 0, 77, 79
2, 31728, Note_on_c, 0, 69, 79
2, 31762, Note_on_c, 0, 77, 0
2, 31762, Note_on_c, 0, 69, 0
2, 31764, Note_on_c, 0, 77, 83
2, 31764, Note_on_c, 0, 69, 83
2, 31776, Note_on_c, 0, 77, 0
2, 31776, Note_on_c, 0, 69, 0
2, 31776, Note_on_c, 0, 77, 85
2, 31776, Note_on_c, 0, 69, 85
2, 31810, Note_on_c, 0, 77, 0
2, 31810, Note_on_c, 0, 69, 0
2, 31812, Note_on_c, 0, 72, 82
2, 31812, Note_on_c, 0, 69, 82
2, 31824, Note_on_c, 0, 72, 0
2, 31824, Note_on_c, 0, 69, 0
2, 31824, Note_on_c, 0, 70, 81
2, 31824, Note_on_c, 0, 67, 81
2, 31858, Note_on_c, 0, 70, 0
2, 31858, Note_on_c, 0, 67, 0
2, 31860, Note_on_c, 0, 69, 78
2, 31860, Note_on_c, 0, 65, 78
2, 31872, Note_on_c, 0, 69, 0
2, 31872, Note_on_c, 0, 65, 0
2, 31872, Note_on_c, 0, 69, 78
2, 31872, Note_on_c, 0, 65, 78
2, 31968, Note_on_c, 0, 69, 0
2, 31968, Note_on_c, 0, 65, 0
2, 31968, Note_on_c, 0, 67, 78
2, 31968, Note_on_c, 0, 64, 78
2, 32013, Note_on_c, 0, 67, 0
2, 32013, Note_on_c, 0, 64, 0
2, 32100, Note_on_c, 0, 67, 78
2, 32112, Note_on_c, 0, 67, 0
2, 32112, Note_on_c, 0, 76, 78
2, 32146, Note_on_c, 0, 76, 0
2, 32148, Note_on_c, 0, 74, 78
2, 32160, Note_on_c, 0, 74, 0
2, 32160, Note_on_c, 0, 72, 78
2, 32194, Note_on_c, 0, 72, 0
2, 32196, Note_on_c, 0, 71, 78
2, 32208, Note_on_c, 0, 71, 0
2, 32208, Note_on_c, 0, 69, 78
2, 32242, Note_on_c, 0, 69, 0
2, 32244, Note_on_c, 0, 67, 78
2, 32256, Note_on_c, 0, 67, 0
2, 32256, Note_on_c, 0, 67, 78
2, 32290, Note_on_c, 0, 67, 0
2, 32292, Note_on_c, 0, 66, 78
2, 32304, Note_on_c, 0, 66, 0
2, 32304, Note_on_c, 0, 74, 78
2, 32338, Note_on_c, 0, 74, 0
2, 32340, Note_on_c, 0, 65, 78
2, 32352, Note_on_c, 0, 65, 0
2, 32352, Note_on_c, 0, 65, 78
2, 32386, Note_on_c, 0, 65, 0
2, 32388, Note_on_c, 0, 64, 78
2, 32400, Note_on_c, 0, 64, 0
2, 32400, Note_on_c, 0, 72, 78
2, 32434, Note_on_c, 0, 72, 0
2, 32436, Note_on_c, 0, 61, 85
2, 32448, Note_on_c, 0, 61, 0
2, 32448, Note_on_c, 0, 62, 85
2, 32463, Note_on_c, 0, 62, 0
2, 32484, Note_on_c, 0, 64, 85
2, 32496, Note_on_c, 0, 64, 0
2, 32496, Note_on_c, 0, 65, 85
2, 32511, Note_on_c, 0, 65, 0
2, 32532, Note_on_c, 0, 66, 85
2, 32544, Note_on_c, 0, 66, 0
2, 32544, Note_on_c, 0, 67, 85
2, 32559, Note_on_c, 0, 67, 0
2, 32580, Note_on_c, 0, 68, 85
2, 32592, Note_on_c, 0, 68, 0
2, 32592, Note_on_c, 0, 69, 85
2, 32607, Note_on_c, 0, 69, 0
2, 32628, Note_on_c, 0, 65, 85
2, 32628, Note_on_c, 0, 62, 85
2, 32640, Note_on_c, 0, 65, 0
2, 32640, Note_on_c, 0, 62, 0
2, 32640, Note_on_c, 0, 64, 85
2, 32640, Note_on_c, 0, 60, 85
2, 32736, Note_on_c, 0, 64, 0
2, 32736, Note_on_c, 0, 60, 0
2, 32736, Note_on_c, 0, 62, 85
2, 32736, Note_on_c, 0, 59, 85
2, 32756, Note_on_c, 0, 62, 0
2, 32756, Note_on_c, 0, 59, 0
2, 32784, Note_on_c, 0, 64, 78
2, 32818, Note_on_c, 0, 64, 0
2, 32820, Note_on_c, 0, 67, 78
2, 32832, Note_on_c, 0, 67, 0
2, 32832, Note_on_c, 0, 72, 78
2, 32866, Note_on_c, 0, 72, 0
2, 32868, Note_on_c, 0, 67, 78
2, 32880, Note_on_c, 0, 67, 0
2, 32880, Note_on_c, 0, 76, 94
2, 32943, Note_on_c, 0, 76, 0
2, 32944, Note_on_c, 0, 71, 78
2, 32959, Note_on_c, 0, 71, 0
2, 32960, Note_on_c, 0, 72, 78
2, 32975, Note_on_c, 0, 72, 0
2, 32976, Note_on_c, 0, 76, 78
2, 32991, Note_on_c, 0, 76, 0
2, 32992, Note_on_c, 0, 72, 78
2, 33007, Note_on_c, 0, 72, 0
2, 33008, Note_on_c, 0, 69, 78
2, 33023, Note_on_c, 0, 69, 0
2, 33024, Note_on_c, 0, 67, 78
2, 33069, Note_on_c, 0, 67, 0
2, 33072, Note_on_c, 0, 65, 78
2, 33078, Note_on_c, 0, 65, 0
2, 33078, Note_on_c, 0, 67, 78
2, 33084, Note_on_c, 0, 67, 0
2, 33084, Note_on_c, 0, 65, 78
2, 33119, Note_on_c, 0, 65, 0
2, 33168, Note_on_c, 0, 65, 78
2, 33202, Note_on_c, 0, 65, 0
2, 33204, Note_on_c, 0, 71, 78
2, 33216, Note_on_c, 0, 71, 0
2, 33216, Note_on_c, 0, 74, 78
2, 33250, Note_on_c, 0, 74, 0
2, 33252, Note_on_c, 0, 71, 78
2, 33264, Note_on_c, 0, 71, 0
2, 33264, Note_on_c, 0, 77, 94
2, 33327, Note_on_c, 0, 77, 0
2, 33328, Note_on_c, 0, 74, 78
2, 33343, Note_on_c, 0, 74, 0
2, 33344, Note_on_c, 0, 71, 78
2, 33359, Note_on_c, 0, 71, 0
2, 33360, Note_on_c, 0, 74, 78
2, 33375, Note_on_c, 0, 74, 0
2, 33376, Note_on_c, 0, 71, 78
2, 33391, Note_on_c, 0, 71, 0
2, 33392, Note_on_c, 0, 67, 78
2, 33407, Note_on_c, 0, 67, 0
2, 33408, Note_on_c, 0, 65, 78
2, 33453, Note_on_c, 0, 65, 0
2, 33456, Note_on_c, 0, 64, 78
2, 33462, Note_on_c, 0, 64, 0
2, 33462, Note_on_c, 0, 65, 78
2, 33468, Note_on_c, 0, 65, 0
2, 33468, Note_on_c, 0, 64, 78
2, 33503, Note_on_c, 0, 64, 0
2, 33552, Note_on_c, 0, 67, 78
2, 33586, Note_on_c, 0, 67, 0
2, 33588, Note_on_c, 0, 72, 78
2, 33600, Note_on_c, 0, 72, 0
2, 33600, Note_on_c, 0, 76, 78
2, 33634, Note_on_c, 0, 76, 0
2, 33636, Note_on_c, 0, 72, 78
2, 33648, Note_on_c, 0, 72, 0
2, 33648, Note_on_c, 0, 79, 94
2, 33711, Note_on_c, 0, 79, 0
2, 33712, Note_on_c, 0, 77, 78
2, 33727, Note_on_c, 0, 77, 0
2, 33728, Note_on_c, 0, 76, 78
2, 33743, Note_on_c, 0, 76, 0
2, 33744, Note_on_c, 0, 74, 78
2, 33759, Note_on_c, 0, 74, 0
2, 33760, Note_on_c, 0, 72, 78
2, 33775, Note_on_c, 0, 72, 0
2, 33776, Note_on_c, 0, 71, 78
2, 33791, Note_on_c, 0, 71, 0
2, 33792, Note_on_c, 0, 69, 78
2, 33903, Note_on_c, 0, 69, 0
2, 33904, Note_on_c, 0, 77, 78
2, 33919, Note_on_c, 0, 77, 0
2, 33920, Note_on_c, 0, 76, 78
2, 33935, Note_on_c, 0, 76, 0
2, 33936, Note_on_c, 0, 74, 78
2, 33951, Note_on_c, 0, 74, 0
2, 33952, Note_on_c, 0, 72, 78
2, 33967, Note_on_c, 0, 72, 0
2, 33968, Note_on_c, 0, 71, 78
2, 33983, Note_on_c, 0, 71, 0
2, 33984, Note_on_c, 0, 69, 78
2, 34032, Note_on_c, 0, 69, 0
2, 34032, Note_on_c, 0, 67, 78
2, 34073, Note_on_c, 0, 67, 0
2, 34096, Note_on_c, 0, 76, 78
2, 34111, Note_on_c, 0, 76, 0
2, 34112, Note_on_c, 0, 74, 78
2, 34127, Note_on_c, 0, 74, 0
2, 34128, Note_on_c, 0, 72, 78
2, 34143, Note_on_c, 0, 72, 0
2, 34144, Note_on_c, 0, 71, 78
2, 34159, Note_on_c, 0, 71, 0
2, 34160, Note_on_c, 0, 69, 78
2, 34175, Note_on_c, 0, 69, 0
2, 34176, Note_on_c, 0, 67, 78
2, 34210, Note_on_c, 0, 67, 0
2, 34212, Note_on_c, 0, 65, 78
2, 34224, Note_on_c, 0, 65, 0
2, 34224, Note_on_c, 0, 74, 78
2, 34258, Note_on_c, 0, 74, 0
2, 34260, Note_on_c, 0, 65, 78
2, 34272, Note_on_c, 0, 65, 0
2, 34272, Note_on_c, 0, 65, 78
2, 34306, Note_on_c, 0, 65, 0
2, 34308, Note_on_c, 0, 64, 78
2, 34320, Note_on_c, 0, 64, 0
2, 34320, Note_on_c, 0, 72, 78
2, 34354, Note_on_c, 0, 72, 0
2, 34356, Note_on_c, 0, 64, 78
2, 34356, Note_on_c, 0, 60, 78
2, 34368, Note_on_c, 0, 64, 0
2, 34368, Note_on_c, 0, 60, 0
2, 34368, Note_on_c, 0, 62, 78
2, 34368, Note_on_c, 0, 59, 78
2, 34457, Note_on_c, 0, 62, 0
2, 34457, Note_on_c, 0, 59, 0
2, 34512, Note_on_c, 0, 59, 78
2, 34546, Note_on_c, 0, 59, 0
2, 34548, Note_on_c, 0, 71, 79
2, 34560, Note_on_c, 0, 71, 0
2, 34560, Note_on_c, 0, 60, 79
2, 34594, Note_on_c, 0, 60, 0
2, 34596, Note_on_c, 0, 72, 80
2, 34608, Note_on_c, 0, 72, 0
2, 34608, Note_on_c, 0, 62, 80
2, 34642, Note_on_c, 0, 62, 0
2, 34644, Note_on_c, 0, 74, 81
2, 34656, Note_on_c, 0, 74, 0
2, 34656, Note_on_c, 0, 64, 82
2, 34690, Note_on_c, 0, 64, 0
2, 34692, Note_on_c, 0, 76, 83
2, 34704, Note_on_c, 0, 76, 0
2, 34704, Note_on_c, 0, 66, 83
2, 34738, Note_on_c, 0, 66, 0
2, 34740, Note_on_c, 0, 78, 84
2, 34752, Note_on_c, 0, 78, 0
2, 34752, Note_on_c, 0, 67, 85
2, 34841, Note_on_c, 0, 67, 0
2, 34896, Note_on_c, 0, 59, 78
2, 34930, Note_on_c, 0, 59, 0
2, 34932, Note_on_c, 0, 71, 79
2, 34944, Note_on_c, 0, 71, 0
2, 34944, Note_on_c, 0, 60, 79
2, 34978, Note_on_c, 0, 60, 0
2, 34980, Note_on_c, 0, 72, 80
2, 34992, Note_on_c, 0, 72, 0
2, 34992, Note_on_c, 0, 62, 80
2, 35026, Note_on_c, 0, 62, 0
2, 35028, Note_on_c, 0, 74, 81
2, 35040, Note_on_c, 0, 74, 0
2, 35040, Note_on_c, 0, 63, 82
2, 35074, Note_on_c, 0, 63, 0
2, 35076, Note_on_c, 0, 75, 83
2, 35088, Note_on_c, 0, 75, 0
2, 35088, Note_on_c, 0, 66, 83
2, 35122, Note_on_c, 0, 66, 0
2, 35124, Note_on_c, 0, 78, 84
2, 35136, Note_on_c, 0, 78, 0
2, 35136, Note_on_c, 0, 67, 85
2, 35170, Note_on_c, 0, 67, 0
2, 35172, Note_on_c, 0, 79, 85
2, 35184, Note_on_c, 0, 79, 0
2, 35184, Note_on_c, 0, 67, 85
2, 35218, Note_on_c, 0, 67, 0
2, 35220, Note_on_c, 0, 79, 85
2, 35232, Note_on_c, 0, 79, 0
2, 35232, Note_on_c, 0, 68, 85
2, 35266, Note_on_c, 0, 68, 0
2, 35268, Note_on_c, 0, 79, 85
2, 35280, Note_on_c, 0, 79, 0
2, 35280, Note_on_c, 0, 71, 85
2, 35314, Note_on_c, 0, 71, 0
2, 35316, Note_on_c, 0, 79, 85
2, 35328, Note_on_c, 0, 79, 0
2, 35328, Note_on_c, 0, 72, 85
2, 35362, Note_on_c, 0, 72, 0
2, 35364, Note_on_c, 0, 79, 83
2, 35376, Note_on_c, 0, 79, 0
2, 35376, Note_on_c, 0, 74, 83
2, 35410, Note_on_c, 0, 74, 0
2, 35412, Note_on_c, 0, 79, 81
2, 35424, Note_on_c, 0, 79, 0
2, 35424, Note_on_c, 0, 75, 81
2, 35458, Note_on_c, 0, 75, 0
2, 35460, Note_on_c, 0, 79, 79
2, 35472, Note_on_c, 0, 79, 0
2, 35472, Note_on_c, 0, 72, 79
2, 35506, Note_on_c, 0, 72, 0
2, 35508, Note_on_c, 0, 84, 78
2, 35520, Note_on_c, 0, 84, 0
2, 35520, Note_on_c, 0, 83, 78
2, 35554, Note_on_c, 0, 83, 0
2, 35556, Note_on_c, 0, 86, 78
2, 35568, Note_on_c, 0, 86, 0
2, 35568, Note_on_c, 0, 74, 78
2, 35602, Note_on_c, 0, 74, 0
2, 35604, Note_on_c, 0, 77, 78
2, 35616, Note_on_c, 0, 77, 0
2, 35616, Note_on_c, 0, 75, 78
2, 35650, Note_on_c, 0, 75, 0
2, 35652, Note_on_c, 0, 79, 78
2, 35664, Note_on_c, 0, 79, 0
2, 35664, Note_on_c, 0, 72, 78
2, 35698, Note_on_c, 0, 72, 0
2, 35700, Note_on_c, 0, 75, 78
2, 35712, Note_on_c, 0, 75, 0
2, 35712, Note_on_c, 0, 71, 78
2, 35746, Note_on_c, 0, 71, 0
2, 35748, Note_on_c, 0, 74, 78
2, 35760, Note_on_c, 0, 74, 0
2, 35760, Note_on_c, 0, 71, 78
2, 35794, Note_on_c, 0, 71, 0
2, 35796, Note_on_c, 0, 74, 78
2, 35808, Note_on_c, 0, 74, 0
2, 35808, Note_on_c, 0, 72, 78
2, 35842, Note_on_c, 0, 72, 0
2, 35844, Note_on_c, 0, 75, 78
2, 35856, Note_on_c, 0, 75, 0
2, 35856, Note_on_c, 0, 66, 78
2, 35890, Note_on_c, 0, 66, 0
2, 35892, Note_on_c, 0, 69, 78
2, 35904, Note_on_c, 0, 69, 0
2, 35904, Note_on_c, 0, 67, 78
2, 35938, Note_on_c, 0, 67, 0
2, 35940, Note_on_c, 0, 71, 78
2, 35952, Note_on_c, 0, 71, 0
2, 35952, Note_on_c, 0, 71, 78
2, 35986, Note_on_c, 0, 71, 0
2, 35988, Note_on_c, 0, 74, 78
2, 36000, Note_on_c, 0, 74, 0
2, 36000, Note_on_c, 0, 72, 78
2, 36034, Note_on_c, 0, 72, 0
2, 36036, Note_on_c, 0, 75, 78
2, 36048, Note_on_c, 0, 75, 0
2, 36048, Note_on_c, 0, 66, 78
2, 36082, Note_on_c, 0, 66, 0
2, 36084, Note_on_c, 0, 69, 78
2, 36096, Note_on_c, 0, 69, 0
2, 36096, Note_on_c, 0, 67, 78
2, 36130, Note_on_c, 0, 67, 0
2, 36132, Note_on_c, 0, 71, 78
2, 36144, Note_on_c, 0, 71, 0
2, 36144, Note_on_c, 0, 71, 78
2, 36178, Note_on_c, 0, 71, 0
2, 36180, Note_on_c, 0, 74, 78
2, 36192, Note_on_c, 0, 74, 0
2, 36192, Note_on_c, 0, 72, 78
2, 36226, Note_on_c, 0, 72, 0
2, 36228, Note_on_c, 0, 75, 78
2, 36240, Note_on_c, 0, 75, 0
2, 36240, Note_on_c, 0, 66, 78
2, 36274, Note_on_c, 0, 66, 0
2, 36276, Note_on_c, 0, 69, 78
2, 36288, Note_on_c, 0, 69, 0
2, 36288, Note_on_c, 0, 67, 78
2, 36377, Note_on_c, 0, 67, 0
2, 36400, Note_on_c, 0, 65, 78
2, 36415, Note_on_c, 0, 65, 0
2, 36416, Note_on_c, 0, 71, 78
2, 36431, Note_on_c, 0, 71, 0
2, 36432, Note_on_c, 0, 74, 78
2, 36447, Note_on_c, 0, 74, 0
2, 36448, Note_on_c, 0, 71, 78
2, 36463, Note_on_c, 0, 71, 0
2, 36464, Note_on_c, 0, 65, 78
2, 36479, Note_on_c, 0, 65, 0
2, 36480, Note_on_c, 0, 64, 78
2, 36500, Note_on_c, 0, 64, 0
2, 36592, Note_on_c, 0, 67, 78
2, 36607, Note_on_c, 0, 67, 0
2, 36608, Note_on_c, 0, 72, 78
2, 36623, Note_on_c, 0, 72, 0
2, 36624, Note_on_c, 0, 76, 78
2, 36639, Note_on_c, 0, 76, 0
2, 36640, Note_on_c, 0, 72, 78
2, 36655, Note_on_c, 0, 72, 0
2, 36656, Note_on_c, 0, 67, 78
2, 36671, Note_on_c, 0, 67, 0
2, 36672, Note_on_c, 0, 65, 78
2, 36692, Note_on_c, 0, 65, 0
2, 36784, Note_on_c, 0, 81, 78
2, 36799, Note_on_c, 0, 81, 0
2, 36800, Note_on_c, 0, 79, 78
2, 36815, Note_on_c, 0, 79, 0
2, 36816, Note_on_c, 0, 77, 78
2, 36831, Note_on_c, 0, 77, 0
2, 36832, Note_on_c, 0, 76, 78
2, 36847, Note_on_c, 0, 76, 0
2, 36848, Note_on_c, 0, 74, 78
2, 36863, Note_on_c, 0, 74, 0
2, 36864, Note_on_c, 0, 72, 78
2, 36879, Note_on_c, 0, 72, 0
2, 36880, Note_on_c, 0, 71, 78
2, 36895, Note_on_c, 0, 71, 0
2, 36896, Note_on_c, 0, 77, 78
2, 36911, Note_on_c, 0, 77, 0
2, 36912, Note_on_c, 0, 74, 78
2, 36927, Note_on_c, 0, 74, 0
2, 36928, Note_on_c, 0, 71, 78
2, 36943, Note_on_c, 0, 71, 0
2, 36944, Note_on_c, 0, 67, 78
2, 36959, Note_on_c, 0, 67, 0
2, 36960, Note_on_c, 0, 65, 78
2, 36980, Note_on_c, 0, 65, 0
2, 37072, Control_c, 0, 64, 127
2, 37072, Note_on_c, 0, 67, 78
2, 37087, Note_on_c, 0, 67, 0
2, 37088, Note_on_c, 0, 71, 78
2, 37103, Note_on_c, 0, 71, 0
2, 37104, Note_on_c, 0, 74, 78
2, 37119, Note_on_c, 0, 74, 0
2, 37120, Note_on_c, 0, 71, 78
2, 37135, Note_on_c, 0, 71, 0
2, 37136, Note_on_c, 0, 74, 78
2, 37151, Note_on_c, 0, 74, 0
2, 37152, Note_on_c, 0, 77, 78
2, 37167, Note_on_c, 0, 77, 0
2, 37168, Note_on_c, 0, 74, 78
2, 37183, Note_on_c, 0, 74, 0
2, 37184, Note_on_c, 0, 77, 78
2, 37199, Note_on_c, 0, 77, 0
2, 37200, Note_on_c, 0, 83, 78
2, 37215, Note_on_c, 0, 83, 0
2, 37216, Note_on_c, 0, 77, 78
2, 37231, Note_on_c, 0, 77, 0
2, 37232, Note_on_c, 0, 83, 78
2, 37247, Note_on_c, 0, 83, 0
2, 37248, Note_on_c, 0, 86, 78
2, 37268, Note_on_c, 0, 86, 0
2, 37392, Control_c, 0, 64, 0
2, 37392, Note_on_c, 0, 55, 78
2, 37407, Note_on_c, 0, 55, 0
2, 37408, Note_on_c, 0, 60, 78
2, 37423, Note_on_c, 0, 60, 0
2, 37424, Note_on_c, 0, 64, 78
2, 37439, Note_on_c, 0, 64, 0
2, 37440, Note_on_c, 0, 55, 78
2, 37455, Note_on_c, 0, 55, 0
2, 37456, Note_on_c, 0, 54, 78
2, 37471, Note_on_c, 0, 54, 0
2, 37472, Note_on_c, 0, 53, 78
2, 37487, Note_on_c, 0, 53, 0
2, 37488, Note_on_c, 0, 62, 94
2, 37551, Note_on_c, 0, 62, 0
2, 37552, Note_on_c, 0, 60, 78
2, 37567, Note_on_c, 0, 60, 0
2, 37568, Note_on_c, 0, 59, 78
2, 37583, Note_on_c, 0, 59, 0
2, 37584, Note_on_c, 0, 57, 78
2, 37599, Note_on_c, 0, 57, 0
2, 37600, Note_on_c, 0, 55, 78
2, 37615, Note_on_c, 0, 55, 0
2, 37616, Note_on_c, 0, 53, 78
2, 37631, Note_on_c, 0, 53, 0
2, 37632, Note_on_c, 0, 52, 78
2, 37647, Note_on_c, 0, 52, 0
2, 37648, Note_on_c, 0, 55, 78
2, 37663, Note_on_c, 0, 55, 0
2, 37664, Note_on_c, 0, 60, 78
2, 37679, Note_on_c, 0, 60, 0
2, 37680, Note_on_c, 0, 55, 78
2, 37695, Note_on_c, 0, 55, 0
2, 37696, Note_on_c, 0, 60, 78
2, 37711, Note_on_c, 0, 60, 0
2, 37712, Note_on_c, 0, 64, 78
2, 37727, Note_on_c, 0, 64, 0
2, 37728, Note_on_c, 0, 67, 78
2, 37748, Note_on_c, 0, 67, 0
2, 37776, Note_on_c, 0, 55, 78
2, 37791, Note_on_c, 0, 55, 0
2, 37792, Note_on_c, 0, 60, 78
2, 37807, Note_on_c, 0, 60, 0
2, 37808, Note_on_c, 0, 64, 78
2, 37823, Note_on_c, 0, 64, 0
2, 37824, Note_on_c, 0, 55, 78
2, 37839, Note_on_c, 0, 55, 0
2, 37840, Note_on_c, 0, 54, 78
2, 37855, Note_on_c, 0, 54, 0
2, 37856, Note_on_c, 0, 53, 78
2, 37871, Note_on_c, 0, 53, 0
2, 37872, Note_on_c, 0, 62, 94
2, 37935, Note_on_c, 0, 62, 0
2, 37936, Note_on_c, 0, 60, 78
2, 37951, Note_on_c, 0, 60, 0
2, 37952, Note_on_c, 0, 59, 78
2, 37967, Note_on_c, 0, 59, 0
2, 37968, Note_on_c, 0, 57, 78
2, 37983, Note_on_c, 0, 57, 0
2, 37984, Note_on_c, 0, 55, 78
2, 37999, Note_on_c, 0, 55, 0
2, 38000, Note_on_c, 0, 53, 78
2, 38015, Note_on_c, 0, 53, 0
2, 38016, Note_on_c, 0, 52, 78
2, 38031, Note_on_c, 0, 52, 0
2, 38032, Note_on_c, 0, 55, 78
2, 38047, Note_on_c, 0, 55, 0
2, 38048, Note_on_c, 0, 60, 78
2, 38063, Note_on_c, 0, 60, 0
2, 38064, Note_on_c, 0, 55, 78
2, 38079, Note_on_c, 0, 55, 0
2, 38080, Note_on_c, 0, 60, 78
2, 38095, Note_on_c, 0, 60, 0
2, 38096, Note_on_c, 0, 64, 78
2, 38111, Note_on_c, 0, 64, 0
2, 38112, Note_on_c, 0, 67, 78
2, 38127, Note_on_c, 0, 67, 0
2, 38128, Note_on_c, 0, 65, 78
2, 38143, Note_on_c, 0, 65, 0
2, 38144, Note_on_c, 0, 64, 78
2, 38159, Note_on_c, 0, 64, 0
2, 38160, Note_on_c, 0, 62, 78
2, 38175, Note_on_c, 0, 62, 0
2, 38176, Note_on_c, 0, 60, 78
2, 38191, Note_on_c, 0, 60, 0
2, 38192, Note_on_c, 0, 59, 78
2, 38207, Note_on_c, 0, 59, 0
2, 38208, Note_on_c, 0, 57, 78
2, 38223, Note_on_c, 0, 57, 0
2, 38224, Note_on_c, 0, 68, 78
2, 38239, Note_on_c, 0, 68, 0
2, 38240, Note_on_c, 0, 69, 78
2, 38255, Note_on_c, 0, 69, 0
2, 38256, Note_on_c, 0, 67, 78
2, 38268, Note_on_c, 0, 67, 0
2, 38268, Note_on_c, 0, 65, 78
2, 38279, Note_on_c, 0, 65, 0
2, 38280, Note_on_c, 0, 64, 78
2, 38292, Note_on_c, 0, 64, 0
2, 38292, Note_on_c, 0, 62, 78
2, 38304, Note_on_c, 0, 62, 0
2, 38304, Note_on_c, 0, 60, 78
2, 38349, Note_on_c, 0, 60, 0
2, 38352, Note_on_c, 0, 59, 74
2, 38397, Note_on_c, 0, 59, 0
2, 38400, Note_on_c, 0, 59, 70
2, 38496, Note_on_c, 0, 59, 0
2, 38496, Note_on_c, 0, 60, 62
2, 38543, Note_on_c, 0, 60, 0
2, 38544, Note_on_c, 0, 67, 78
2, 38559, Note_on_c, 0, 67, 0
2, 38560, Note_on_c, 0, 72, 78
2, 38575, Note_on_c, 0, 72, 0
2, 38576, Note_on_c, 0, 76, 78
2, 38591, Note_on_c, 0, 76, 0
2, 38592, Note_on_c, 0, 67, 78
2, 38607, Note_on_c, 0, 67, 0
2, 38608, Note_on_c, 0, 66, 78
2, 38623, Note_on_c, 0, 66, 0
2, 38624, Note_on_c, 0, 65, 78
2, 38639, Note_on_c, 0, 65, 0
2, 38640, Note_on_c, 0, 74, 94
2, 38703, Note_on_c, 0, 74, 0
2, 38704, Note_on_c, 0, 72, 78
2, 38719, Note_on_c, 0, 72, 0
2, 38720, Note_on_c, 0, 71, 78
2, 38735, Note_on_c, 0, 71, 0
2, 38736, Note_on_c, 0, 69, 78
2, 38751, Note_on_c, 0, 69, 0
2, 38752, Note_on_c, 0, 67, 78
2, 38767, Note_on_c, 0, 67, 0
2, 38768, Note_on_c, 0, 65, 78
2, 38783, Note_on_c, 0, 65, 0
2, 38784, Note_on_c, 0, 64, 78
2, 38799, Note_on_c, 0, 64, 0
2, 38800, Note_on_c, 0, 67, 78
2, 38815, Note_on_c, 0, 67, 0
2, 38816, Note_on_c, 0, 72, 78
2, 38831, Note_on_c, 0, 72, 0
2, 38832, Note_on_c, 0, 67, 78
2, 38847, Note_on_c, 0, 67, 0
2, 38848, Note_on_c, 0, 72, 78
2, 38863, Note_on_c, 0, 72, 0
2, 38864, Note_on_c, 0, 76, 78
2, 38879, Note_on_c, 0, 76, 0
2, 38880, Note_on_c, 0, 79, 78
2, 38900, Note_on_c, 0, 79, 0
2, 38928, Note_on_c, 0, 79, 78
2, 38943, Note_on_c, 0, 79, 0
2, 38944, Note_on_c, 0, 84, 78
2, 38959, Note_on_c, 0, 84, 0
2, 38960, Note_on_c, 0, 88, 78
2, 38975, Note_on_c, 0, 88, 0
2, 38976, Note_on_c, 0, 79, 78
2, 38991, Note_on_c, 0, 79, 0
2, 38992, Note_on_c, 0, 78, 78
2, 39007, Note_on_c, 0, 78, 0
2, 39008, Note_on_c, 0, 77, 78
2, 39023, Note_on_c, 0, 77, 0
2, 39024, Note_on_c, 0, 86, 94
2, 39087, Note_on_c, 0, 86, 0
2, 39088, Note_on_c, 0, 84, 78
2, 39103, Note_on_c, 0, 84, 0
2, 39104, Note_on_c, 0, 83, 78
2, 39119, Note_on_c, 0, 83, 0
2, 39120, Note_on_c, 0, 81, 78
2, 39135, Note_on_c, 0, 81, 0
2, 39136, Note_on_c, 0, 79, 78
2, 39151, Note_on_c, 0, 79, 0
2, 39152, Note_on_c, 0, 77, 78
2, 39167, Note_on_c, 0, 77, 0
2, 39168, Note_on_c, 0, 76, 78
2, 39183, Note_on_c, 0, 76, 0
2, 39184, Note_on_c, 0, 83, 78
2, 39199, Note_on_c, 0, 83, 0
2, 39200, Note_on_c, 0, 84, 78
2, 39215, Note_on_c, 0, 84, 0
2, 39216, Note_on_c, 0, 80, 78
2, 39231, Note_on_c, 0, 80, 0
2, 39232, Note_on_c, 0, 81, 78
2, 39247, Note_on_c, 0, 81, 0
2, 39248, Note_on_c, 0, 78, 78
2, 39263, Note_on_c, 0, 78, 0
2, 39264, Note_on_c, 0, 79, 78
2, 39279, Note_on_c, 0, 79, 0
2, 39280, Note_on_c, 0, 76, 78
2, 39295, Note_on_c, 0, 76, 0
2, 39296, Note_on_c, 0, 77, 78
2, 39311, Note_on_c, 0, 77, 0
2, 39312, Note_on_c, 0, 81, 78
2, 39327, Note_on_c, 0, 81, 0
2, 39328, Note_on_c, 0, 77, 78
2, 39343, Note_on_c, 0, 77, 0
2, 39344, Note_on_c, 0, 74, 78
2, 39359, Note_on_c, 0, 74, 0
2, 39360, Note_on_c, 0, 72, 78
2, 39449, Note_on_c, 0, 72, 0
2, 39456, Note_on_c, 0, 72, 78
2, 39464, Note_on_c, 0, 72, 0
2, 39464, Note_on_c, 0, 74, 78
2, 39472, Note_on_c, 0, 74, 0
2, 39472, Note_on_c, 0, 76, 78
2, 39480, Note_on_c, 0, 76, 0
2, 39480, Note_on_c, 0, 74, 78
2, 39488, Note_on_c, 0, 74, 0
2, 39488, Note_on_c, 0, 76, 78
2, 39496, Note_on_c, 0, 76, 0
2, 39496, Note_on_c, 0, 74, 78
2, 39504, Note_on_c, 0, 74, 0
2, 39504, Note_on_c, 0, 76, 78
2, 39512, Note_on_c, 0, 76, 0
2, 39512, Note_on_c, 0, 74, 78
2, 39520, Note_on_c, 0, 74, 0
2, 39520, Note_on_c, 0, 76, 78
2, 39528, Note_on_c, 0, 76, 0
2, 39528, Note_on_c, 0, 74, 78
2, 39536, Note_on_c, 0, 74, 0
2, 39536, Note_on_c, 0, 72, 78
2, 39544, Note_on_c, 0, 72, 0
2, 39544, Note_on_c, 0, 74, 78
2, 39552, Note_on_c, 0, 74, 0
2, 39552, Note_on_c, 0, 72, 78
2, 39641, Note_on_c, 0, 72, 0
2, 39696, Note_on_c, 0, 67, 78
2, 39730, Note_on_c, 0, 67, 0
2, 39732, Note_on_c, 0, 71, 78
2, 39744, Note_on_c, 0, 71, 0
2, 39744, Note_on_c, 0, 74, 78
2, 39778, Note_on_c, 0, 74, 0
2, 39780, Note_on_c, 0, 71, 80
2, 39792, Note_on_c, 0, 71, 0
2, 39792, Note_on_c, 0, 79, 97
2, 39874, Note_on_c, 0, 79, 0
2, 39876, Note_on_c, 0, 78, 82
2, 39888, Note_on_c, 0, 78, 0
2, 39888, Note_on_c, 0, 76, 81
2, 39922, Note_on_c, 0, 76, 0
2, 39924, Note_on_c, 0, 74, 78
2, 39936, Note_on_c, 0, 74, 0
2, 39936, Note_on_c, 0, 74, 78
2, 40025, Note_on_c, 0, 74, 0
2, 40032, Note_on_c, 0, 72, 78
2, 40038, Note_on_c, 0, 72, 0
2, 40038, Note_on_c, 0, 74, 78
2, 40044, Note_on_c, 0, 74, 0
2, 40044, Note_on_c, 0, 72, 78
2, 40066, Note_on_c, 0, 72, 0
2, 40068, Note_on_c, 0, 71, 78
2, 40080, Note_on_c, 0, 71, 0
2, 40080, Note_on_c, 0, 69, 78
2, 40086, Note_on_c, 0, 69, 0
2, 40086, Note_on_c, 0, 71, 78
2, 40092, Note_on_c, 0, 71, 0
2, 40092, Note_on_c, 0, 69, 78
2, 40114, Note_on_c, 0, 69, 0
2, 40116, Note_on_c, 0, 67, 78
2, 40128, Note_on_c, 0, 67, 0
2, 40128, Note_on_c, 0, 67, 78
2, 40224, Note_on_c, 0, 67, 0
2, 40224, Note_on_c, 0, 66, 78
2, 40239, Note_on_c, 0, 66, 0
2, 40240, Note_on_c, 0, 69, 78
2, 40255, Note_on_c, 0, 69, 0
2, 40256, Note_on_c, 0, 72, 78
2, 40271, Note_on_c, 0, 72, 0
2, 40272, Note_on_c, 0, 76, 78
2, 40287, Note_on_c, 0, 76, 0
2, 40288, Note_on_c, 0, 74, 78
2, 40303, Note_on_c, 0, 74, 0
2, 40304, Note_on_c, 0, 72, 78
2, 40319, Note_on_c, 0, 72, 0
2, 40320, Note_on_c, 0, 72, 78
2, 40409, Note_on_c, 0, 72, 0
2, 40416, Note_on_c, 0, 72, 78
2, 40422, Note_on_c, 0, 72, 0
2, 40422, Note_on_c, 0, 71, 78
2, 40428, Note_on_c, 0, 71, 0
2, 40428, Note_on_c, 0, 69, 78
2, 40434, Note_on_c, 0, 69, 0
2, 40434, Note_on_c, 0, 71, 78
2, 40450, Note_on_c, 0, 71, 0
2, 40452, Note_on_c, 0, 74, 78
2, 40464, Note_on_c, 0, 74, 0
2, 40464, Note_on_c, 0, 67, 78
2, 40498, Note_on_c, 0, 67, 0
2, 40500, Note_on_c, 0, 71, 78
2, 40512, Note_on_c, 0, 71, 0
2, 40512, Note_on_c, 0, 64, 78
2, 40546, Note_on_c, 0, 64, 0
2, 40548, Note_on_c, 0, 68, 78
2, 40560, Note_on_c, 0, 68, 0
2, 40560, Note_on_c, 0, 69, 78
2, 40566, Note_on_c, 0, 69, 0
2, 40566, Note_on_c, 0, 68, 78
2, 40572, Note_on_c, 0, 68, 0
2, 40572, Note_on_c, 0, 69, 78
2, 40594, Note_on_c, 0, 69, 0
2, 40596, Note_on_c, 0, 72, 78
2, 40608, Note_on_c, 0, 72, 0
2, 40608, Note_on_c, 0, 71, 78
2, 40642, Note_on_c, 0, 71, 0
2, 40644, Note_on_c, 0, 74, 78
2, 40656, Note_on_c, 0, 74, 0
2, 40656, Note_on_c, 0, 66, 78
2, 40690, Note_on_c, 0, 66, 0
2, 40692, Note_on_c, 0, 69, 78
2, 40704, Note_on_c, 0, 69, 0
2, 40704, Note_on_c, 0, 67, 78
2, 40743, Note_on_c, 0, 67, 0
2, 40932, Note_on_c, 0, 74, 78
2, 40932, Note_on_c, 0, 71, 78
2, 40944, Note_on_c, 0, 74, 0
2, 40944, Note_on_c, 0, 71, 0
2, 40944, Note_on_c, 0, 79, 79
2, 40944, Note_on_c, 0, 71, 79
2, 40978, Note_on_c, 0, 79, 0
2, 40978, Note_on_c, 0, 71, 0
2, 40980, Note_on_c, 0, 79, 83
2, 40980, Note_on_c, 0, 71, 83
2, 40992, Note_on_c, 0, 79, 0
2, 40992, Note_on_c, 0, 71, 0
2, 40992, Note_on_c, 0, 79, 85
2, 40992, Note_on_c, 0, 71, 85
2, 41026, Note_on_c, 0, 79, 0
2, 41026, Note_on_c, 0, 71, 0
2, 41028, Note_on_c, 0, 77, 82
2, 41028, Note_on_c, 0, 74, 82
2, 41040, Note_on_c, 0, 77, 0
2, 41040, Note_on_c, 0, 74, 0
2, 41040, Note_on_c, 0, 76, 81
2, 41040, Note_on_c, 0, 72, 81
2, 41074, Note_on_c, 0, 76, 0
2, 41074, Note_on_c, 0, 72, 0
2, 41076, Note_on_c, 0, 74, 78
2, 41076, Note_on_c, 0, 71, 78
2, 41088, Note_on_c, 0, 74, 0
2, 41088, Note_on_c, 0, 71, 0
2, 41088, Note_on_c, 0, 74, 78
2, 41088, Note_on_c, 0, 71, 78
2, 41184, Note_on_c, 0, 74, 0
2, 41184, Note_on_c, 0, 71, 0
2, 41184, Note_on_c, 0, 76, 78
2, 41184, Note_on_c, 0, 72, 78
2, 41273, Note_on_c, 0, 76, 0
2, 41273, Note_on_c, 0, 72, 0
2, 41316, Note_on_c, 0, 79, 78
2, 41316, Note_on_c, 0, 76, 78
2, 41328, Note_on_c, 0, 79, 0
2, 41328, Note_on_c, 0, 76, 0
2, 41328, Note_on_c, 0, 84, 79
2, 41328, Note_on_c, 0, 76, 79
2, 41362, Note_on_c, 0, 84, 0
2, 41362, Note_on_c, 0, 76, 0
2, 41364, Note_on_c, 0, 84, 83
2, 41364, Note_on_c, 0, 76, 83
2, 41376, Note_on_c, 0, 84, 0
2, 41376, Note_on_c, 0, 76, 0
2, 41376, Note_on_c, 0, 84, 85
2, 41376, Note_on_c, 0, 76, 85
2, 41410, Note_on_c, 0, 84, 0
2, 41410, Note_on_c, 0, 76, 0
2, 41412, Note_on_c, 0, 79, 82
2, 41412, Note_on_c, 0, 76, 82
2, 41424, Note_on_c, 0, 79, 0
2, 41424, Note_on_c, 0, 76, 0
2, 41424, Note_on_c, 0, 77, 81
2, 41424, Note_on_c, 0, 74, 81
2, 41458, Note_on_c, 0, 77, 0
2, 41458, Note_on_c, 0, 74, 0
2, 41460, Note_on_c, 0, 76, 78
2, 41460, Note_on_c, 0, 72, 78
2, 41472, Note_on_c, 0, 76, 0
2, 41472, Note_on_c, 0, 72, 0
2, 41472, Note_on_c, 0, 76, 78
2, 41472, Note_on_c, 0, 72, 78
2, 41568, Note_on_c, 0, 76, 0
2, 41568, Note_on_c, 0, 72, 0
2, 41568, Note_on_c, 0, 74, 78
2, 41568, Note_on_c, 0, 71, 78
2, 41657, Note_on_c, 0, 74, 0
2, 41657, Note_on_c, 0, 71, 0
2, 41700, Note_on_c, 0, 74, 78
2, 41700, Note_on_c, 0, 71, 78
2, 41712, Note_on_c, 0, 74, 0
2, 41712, Note_on_c, 0, 71, 0
2, 41712, Note_on_c, 0, 83, 79
2, 41712, Note_on_c, 0, 74, 79
2, 41746, Note_on_c, 0, 83, 0
2, 41746, Note_on_c, 0, 74, 0
2, 41748, Note_on_c, 0, 83, 83
2, 41748, Note_on_c, 0, 74, 83
2, 41760, Note_on_c, 0, 83, 0
2, 41760, Note_on_c, 0, 74, 0
2, 41760, Note_on_c, 0, 83, 85
2, 41760, Note_on_c, 0, 74, 85
2, 41794, Note_on_c, 0, 83, 0
2, 41794, Note_on_c, 0, 74, 0
2, 41796, Note_on_c, 0, 77, 82
2, 41796, Note_on_c, 0, 74, 82
2, 41808, Note_on_c, 0, 77, 0
2, 41808, Note_on_c, 0, 74, 0
2, 41808, Note_on_c, 0, 76, 81
2, 41808, Note_on_c, 0, 72, 81
2, 41842, Note_on_c, 0, 76, 0
2, 41842, Note_on_c, 0, 72, 0
2, 41844, Note_on_c, 0, 74, 78
2, 41844, Note_on_c, 0, 71, 78
2, 41856, Note_on_c, 0, 74, 0
2, 41856, Note_on_c, 0, 71, 0
2, 41856, Note_on_c, 0, 74, 78
2, 41945, Note_on_c, 0, 74, 0
2, 41952, Note_on_c, 0, 72, 78
2, 41958, Note_on_c, 0, 72, 0
2, 41958, Note_on_c, 0, 74, 78
2, 41964, Note_on_c, 0, 74, 0
2, 41964, Note_on_c, 0, 72, 78
2, 42043, Note_on_c, 0, 72, 0
2, 42084, Note_on_c, 0, 81, 78
2, 42084, Note_on_c, 0, 72, 78
2, 42096, Note_on_c, 0, 81, 0
2, 42096, Note_on_c, 0, 72, 0
2, 42096, Note_on_c, 0, 81, 78
2, 42096, Note_on_c, 0, 72, 78
2, 42130, Note_on_c, 0, 81, 0
2, 42130, Note_on_c, 0, 72, 0
2, 42132, Note_on_c, 0, 81, 78
2, 42132, Note_on_c, 0, 72, 78
2, 42144, Note_on_c, 0, 81, 0
2, 42144, Note_on_c, 0, 72, 0
2, 42144, Note_on_c, 0, 81, 78
2, 42144, Note_on_c, 0, 72, 78
2, 42178, Note_on_c, 0, 81, 0
2, 42178, Note_on_c, 0, 72, 0
2, 42180, Note_on_c, 0, 72, 78
2, 42180, Note_on_c, 0, 69, 78
2, 42192, Note_on_c, 0, 72, 0
2, 42192, Note_on_c, 0, 69, 0
2, 42192, Note_on_c, 0, 72, 78
2, 42192, Note_on_c, 0, 69, 78
2, 42226, Note_on_c, 0, 72, 0
2, 42226, Note_on_c, 0, 69, 0
2, 42228, Note_on_c, 0, 72, 78
2, 42228, Note_on_c, 0, 69, 78
2, 42240, Note_on_c, 0, 72, 0
2, 42240, Note_on_c, 0, 69, 0
2, 42240, Note_on_c, 0, 71, 78
2, 42240, Note_on_c, 0, 68, 78
2, 42329, Note_on_c, 0, 71, 0
2, 42329, Note_on_c, 0, 68, 0
2, 42384, Note_on_c, 0, 68, 80
2, 42418, Note_on_c, 0, 68, 0
2, 42420, Note_on_c, 0, 80, 81
2, 42432, Note_on_c, 0, 80, 0
2, 42432, Note_on_c, 0, 69, 81
2, 42466, Note_on_c, 0, 69, 0
2, 42468, Note_on_c, 0, 81, 82
2, 42480, Note_on_c, 0, 81, 0
2, 42480, Note_on_c, 0, 71, 82
2, 42514, Note_on_c, 0, 71, 0
2, 42516, Note_on_c, 0, 83, 83
2, 42528, Note_on_c, 0, 83, 0
2, 42528, Note_on_c, 0, 72, 83
2, 42562, Note_on_c, 0, 72, 0
2, 42564, Note_on_c, 0, 84, 83
2, 42576, Note_on_c, 0, 84, 0
2, 42576, Note_on_c, 0, 75, 84
2, 42610, Note_on_c, 0, 75, 0
2, 42612, Note_on_c, 0, 87, 84
2, 42624, Note_on_c, 0, 87, 0
2, 42624, Note_on_c, 0, 76, 85
2, 42713, Note_on_c, 0, 76, 0
2, 42768, Note_on_c, 0, 68, 78
2, 42802, Note_on_c, 0, 68, 0
2, 42804, Note_on_c, 0, 71, 79
2, 42816, Note_on_c, 0, 71, 0
2, 42816, Note_on_c, 0, 69, 80
2, 42850, Note_on_c, 0, 69, 0
2, 42852, Note_on_c, 0, 72, 82
2, 42864, Note_on_c, 0, 72, 0
2, 42864, Note_on_c, 0, 71, 82
2, 42898, Note_on_c, 0, 71, 0
2, 42900, Note_on_c, 0, 74, 84
2, 42912, Note_on_c, 0, 74, 0
2, 42912, Note_on_c, 0, 72, 85
2, 42946, Note_on_c, 0, 72, 0
2, 42948, Note_on_c, 0, 76, 85
2, 42960, Note_on_c, 0, 76, 0
2, 42960, Note_on_c, 0, 73, 85
2, 42994, Note_on_c, 0, 73, 0
2, 42996, Note_on_c, 0, 76, 85
2, 43008, Note_on_c, 0, 76, 0
2, 43008, Note_on_c, 0, 74, 85
2, 43042, Note_on_c, 0, 74, 0
2, 43044, Note_on_c, 0, 77, 85
2, 43056, Note_on_c, 0, 77, 0
2, 43056, Note_on_c, 0, 76, 85
2, 43090, Note_on_c, 0, 76, 0
2, 43092, Note_on_c, 0, 79, 85
2, 43104, Note_on_c, 0, 79, 0
2, 43104, Note_on_c, 0, 77, 85
2, 43138, Note_on_c, 0, 77, 0
2, 43140, Note_on_c, 0, 81, 85
2, 43152, Note_on_c, 0, 81, 0
2, 43152, Note_on_c, 0, 76, 85
2, 43186, Note_on_c, 0, 76, 0
2, 43188, Note_on_c, 0, 81, 85
2, 43200, Note_on_c, 0, 81, 0
2, 43200, Note_on_c, 0, 74, 85
2, 43234, Note_on_c, 0, 74, 0
2, 43236, Note_on_c, 0, 81, 85
2, 43248, Note_on_c, 0, 81, 0
2, 43248, Note_on_c, 0, 72, 85
2, 43282, Note_on_c, 0, 72, 0
2, 43284, Note_on_c, 0, 81, 85
2, 43296, Note_on_c, 0, 81, 0
2, 43296, Note_on_c, 0, 71, 85
2, 43330, Note_on_c, 0, 71, 0
2, 43332, Note_on_c, 0, 81, 85
2, 43344, Note_on_c, 0, 81, 0
2, 43344, Note_on_c, 0, 69, 85
2, 43378, Note_on_c, 0, 69, 0
2, 43380, Note_on_c, 0, 81, 85
2, 43392, Note_on_c, 0, 81, 0
2, 43392, Note_on_c, 0, 68, 85
2, 43426, Note_on_c, 0, 68, 0
2, 43428, Note_on_c, 0, 80, 85
2, 43440, Note_on_c, 0, 80, 0
2, 43440, Note_on_c, 0, 65, 85
2, 43474, Note_on_c, 0, 65, 0
2, 43476, Note_on_c, 0, 77, 85
2, 43488, Note_on_c, 0, 77, 0
2, 43488, Note_on_c, 0, 64, 85
2, 43522, Note_on_c, 0, 64, 0
2, 43524, Note_on_c, 0, 83, 85
2, 43536, Note_on_c, 0, 83, 0
2, 43536, Note_on_c, 0, 71, 85
2, 43570, Note_on_c, 0, 71, 0
2, 43572, Note_on_c, 0, 74, 85
2, 43584, Note_on_c, 0, 74, 0
2, 43584, Note_on_c, 0, 72, 85
2, 43599, Note_on_c, 0, 72, 0
2, 43600, Note_on_c, 0, 83, 78
2, 43615, Note_on_c, 0, 83, 0
2, 43616, Note_on_c, 0, 84, 78
2, 43631, Note_on_c, 0, 84, 0
2, 43632, Note_on_c, 0, 80, 78
2, 43647, Note_on_c, 0, 80, 0
2, 43648, Note_on_c, 0, 81, 78
2, 43663, Note_on_c, 0, 81, 0
2, 43664, Note_on_c, 0, 77, 78
2, 43679, Note_on_c, 0, 77, 0
2, 43680, Note_on_c, 0, 76, 78
2, 43725, Note_on_c, 0, 76, 0
2, 43728, Note_on_c, 0, 76, 78
2, 43736, Note_on_c, 0, 76, 0
2, 43736, Note_on_c, 0, 74, 78
2, 43744, Note_on_c, 0, 74, 0
2, 43744, Note_on_c, 0, 76, 78
2, 43752, Note_on_c, 0, 76, 0
2, 43752, Note_on_c, 0, 74, 78
2, 43760, Note_on_c, 0, 74, 0
2, 43760, Note_on_c, 0, 72, 78
2, 43768, Note_on_c, 0, 72, 0
2, 43768, Note_on_c, 0, 74, 78
2, 43776, Note_on_c, 0, 74, 0
2, 43776, Note_on_c, 0, 72, 78
2, 43791, Note_on_c, 0, 72, 0
2, 43792, Note_on_c, 0, 83, 78
2, 43807, Note_on_c, 0, 83, 0
2, 43808, Note_on_c, 0, 84, 78
2, 43823, Note_on_c, 0, 84, 0
2, 43824, Note_on_c, 0, 80, 78
2, 43839, Note_on_c, 0, 80, 0
2, 43840, Note_on_c, 0, 81, 78
2, 43855, Note_on_c, 0, 81, 0
2, 43856, Note_on_c, 0, 77, 78
2, 43871, Note_on_c, 0, 77, 0
2, 43872, Note_on_c, 0, 76, 78
2, 43917, Note_on_c, 0, 76, 0
2, 43920, Note_on_c, 0, 76, 78
2, 43928, Note_on_c, 0, 76, 0
2, 43928, Note_on_c, 0, 74, 78
2, 43936, Note_on_c, 0, 74, 0
2, 43936, Note_on_c, 0, 76, 78
2, 43944, Note_on_c, 0, 76, 0
2, 43944, Note_on_c, 0, 74, 78
2, 43952, Note_on_c, 0, 74, 0
2, 43952, Note_on_c, 0, 72, 78
2, 43960, Note_on_c, 0, 72, 0
2, 43960, Note_on_c, 0, 74, 78
2, 43968, Note_on_c, 0, 74, 0
2, 43968, Control_c, 0, 64, 127
2, 43984, Note_on_c, 0, 72, 78
2, 43999, Note_on_c, 0, 72, 0
2, 44000, Note_on_c, 0, 76, 78
2, 44015, Note_on_c, 0, 76, 0
2, 44016, Note_on_c, 0, 81, 78
2, 44031, Note_on_c, 0, 81, 0
2, 44032, Note_on_c, 0, 76, 78
2, 44047, Note_on_c, 0, 76, 0
2, 44048, Note_on_c, 0, 72, 78
2, 44063, Note_on_c, 0, 72, 0
2, 44080, Note_on_c, 0, 69, 78
2, 44095, Note_on_c, 0, 69, 0
2, 44096, Note_on_c, 0, 72, 78
2, 44111, Note_on_c, 0, 72, 0
2, 44112, Note_on_c, 0, 81, 78
2, 44127, Note_on_c, 0, 81, 0
2, 44128, Note_on_c, 0, 72, 78
2, 44143, Note_on_c, 0, 72, 0
2, 44144, Note_on_c, 0, 69, 78
2, 44159, Note_on_c, 0, 69, 0
2, 44176, Note_on_c, 0, 69, 78
2, 44191, Note_on_c, 0, 69, 0
2, 44192, Note_on_c, 0, 72, 78
2, 44207, Note_on_c, 0, 72, 0
2, 44208, Note_on_c, 0, 81, 78
2, 44223, Note_on_c, 0, 81, 0
2, 44224, Note_on_c, 0, 72, 78
2, 44239, Note_on_c, 0, 72, 0
2, 44240, Note_on_c, 0, 69, 78
2, 44255, Note_on_c, 0, 69, 0
2, 44272, Note_on_c, 0, 69, 78
2, 44287, Note_on_c, 0, 69, 0
2, 44288, Note_on_c, 0, 81, 78
2, 44303, Note_on_c, 0, 81, 0
2, 44320, Note_on_c, 0, 72, 78
2, 44335, Note_on_c, 0, 72, 0
2, 44336, Note_on_c, 0, 84, 78
2, 44351, Note_on_c, 0, 84, 0
2, 44352, Control_c, 0, 64, 0
2, 44352, Control_c, 0, 64, 127
2, 44352, Control_c, 0, 64, 127
2, 44368, Note_on_c, 0, 68, 78
2, 44383, Note_on_c, 0, 68, 0
2, 44384, Note_on_c, 0, 71, 78
2, 44399, Note_on_c, 0, 71, 0
2, 44400, Note_on_c, 0, 77, 78
2, 44415, Note_on_c, 0, 77, 0
2, 44416, Note_on_c, 0, 71, 78
2, 44431, Note_on_c, 0, 71, 0
2, 44432, Note_on_c, 0, 68, 78
2, 44447, Note_on_c, 0, 68, 0
2, 44464, Note_on_c, 0, 71, 78
2, 44479, Note_on_c, 0, 71, 0
2, 44480, Note_on_c, 0, 83, 78
2, 44495, Note_on_c, 0, 83, 0
2, 44512, Note_on_c, 0, 68, 78
2, 44527, Note_on_c, 0, 68, 0
2, 44528, Note_on_c, 0, 80, 78
2, 44543, Note_on_c, 0, 80, 0
2, 44544, Control_c, 0, 64, 0
2, 44560, Note_on_c, 0, 69, 78
2, 44575, Note_on_c, 0, 69, 0
2, 44576, Note_on_c, 0, 81, 78
2, 44591, Note_on_c, 0, 81, 0
2, 44608, Note_on_c, 0, 67, 78
2, 44623, Note_on_c, 0, 67, 0
2, 44624, Note_on_c, 0, 79, 78
2, 44639, Note_on_c, 0, 79, 0
2, 44656, Note_on_c, 0, 65, 78
2, 44671, Note_on_c, 0, 65, 0
2, 44672, Note_on_c, 0, 77, 78
2, 44687, Note_on_c, 0, 77, 0
2, 44704, Note_on_c, 0, 67, 78
2, 44719, Note_on_c, 0, 67, 0
2, 44720, Note_on_c, 0, 73, 78
2, 44735, Note_on_c, 0, 73, 0
2, 44752, Note_on_c, 0, 69, 78
2, 44767, Note_on_c, 0, 69, 0
2, 44768, Note_on_c, 0, 74, 78
2, 44783, Note_on_c, 0, 74, 0
2, 44800, Note_on_c, 0, 69, 78
2, 44815, Note_on_c, 0, 69, 0
2, 44816, Note_on_c, 0, 77, 78
2, 44831, Note_on_c, 0, 77, 0
2, 44848, Note_on_c, 0, 69, 78
2, 44863, Note_on_c, 0, 69, 0
2, 44864, Note_on_c, 0, 74, 78
2, 44879, Note_on_c, 0, 74, 0
2, 44896, Note_on_c, 0, 67, 78
2, 44911, Note_on_c, 0, 67, 0
2, 44912, Note_on_c, 0, 72, 78
2, 44927, Note_on_c, 0, 72, 0
2, 44928, Note_on_c, 0, 70, 78
2, 44948, Note_on_c, 0, 70, 0
2, 44992, Note_on_c, 0, 65, 85
2, 45007, Note_on_c, 0, 65, 0
2, 45008, Note_on_c, 0, 70, 85
2, 45023, Note_on_c, 0, 70, 0
2, 45024, Note_on_c, 0, 74, 85
2, 45039, Note_on_c, 0, 74, 0
2, 45040, Note_on_c, 0, 70, 86
2, 45055, Note_on_c, 0, 70, 0
2, 45056, Note_on_c, 0, 74, 86
2, 45071, Note_on_c, 0, 74, 0
2, 45072, Note_on_c, 0, 77, 87
2, 45087, Note_on_c, 0, 77, 0
2, 45088, Note_on_c, 0, 74, 87
2, 45103, Note_on_c, 0, 74, 0
2, 45104, Note_on_c, 0, 77, 88
2, 45119, Note_on_c, 0, 77, 0
2, 45120, Note_on_c, 0, 82, 88
2, 45135, Note_on_c, 0, 82, 0
2, 45136, Note_on_c, 0, 77, 89
2, 45151, Note_on_c, 0, 77, 0
2, 45152, Note_on_c, 0, 82, 89
2, 45167, Note_on_c, 0, 82, 0
2, 45168, Note_on_c, 0, 86, 90
2, 45183, Note_on_c, 0, 86, 0
2, 45184, Note_on_c, 0, 82, 90
2, 45199, Note_on_c, 0, 82, 0
2, 45200, Note_on_c, 0, 86, 91
2, 45215, Note_on_c, 0, 86, 0
2, 45216, Note_on_c, 0, 89, 94
2, 45231, Note_on_c, 0, 89, 0
2, 45252, Control_c, 0, 64, 127
2, 45252, Note_on_c, 0, 69, 94
2, 45252, Note_on_c, 0, 66, 94
2, 45252, Note_on_c, 0, 63, 94
2, 45264, Note_on_c, 0, 69, 0
2, 45264, Note_on_c, 0, 66, 0
2, 45264, Note_on_c, 0, 63, 0
2, 45264, Note_on_c, 0, 69, 94
2, 45264, Note_on_c, 0, 66, 94
2, 45264, Note_on_c, 0, 63, 94
2, 45298, Note_on_c, 0, 69, 0
2, 45298, Note_on_c, 0, 66, 0
2, 45298, Note_on_c, 0, 63, 0
2, 45300, Note_on_c, 0, 69, 94
2, 45300, Note_on_c, 0, 66, 94
2, 45300, Note_on_c, 0, 63, 94
2, 45312, Note_on_c, 0, 69, 0
2, 45312, Note_on_c, 0, 66, 0
2, 45312, Note_on_c, 0, 63, 0
2, 45312, Control_c, 0, 64, 0
2, 45312, Note_on_c, 0, 64, 94
2, 45327, Note_on_c, 0, 64, 0
2, 45328, Note_on_c, 0, 69, 92
2, 45343, Note_on_c, 0, 69, 0
2, 45344, Note_on_c, 0, 72, 91
2, 45359, Note_on_c, 0, 72, 0
2, 45360, Note_on_c, 0, 76, 89
2, 45375, Note_on_c, 0, 76, 0
2, 45376, Note_on_c, 0, 72, 88
2, 45391, Note_on_c, 0, 72, 0
2, 45392, Note_on_c, 0, 69, 86
2, 45407, Note_on_c, 0, 69, 0
2, 45408, Note_on_c, 0, 64, 85
2, 45453, Note_on_c, 0, 64, 0
2, 45456, Note_on_c, 0, 56, 79
2, 45456, Note_on_c, 0, 50, 79
2, 45501, Note_on_c, 0, 56, 0
2, 45501, Note_on_c, 0, 50, 0
2, 45504, Note_on_c, 0, 56, 73
2, 45504, Note_on_c, 0, 50, 73
2, 45600, Note_on_c, 0, 56, 0
2, 45600, Note_on_c, 0, 50, 0
2, 45600, Note_on_c, 0, 57, 59
2, 45600, Note_on_c, 0, 48, 59
2, 45645, Note_on_c, 0, 57, 0
2, 45645, Note_on_c, 0, 48, 0
2, 45648, Note_on_c, 0, 76, 78
2, 45663, Note_on_c, 0, 76, 0
2, 45664, Note_on_c, 0, 81, 78
2, 45679, Note_on_c, 0, 81, 0
2, 45680, Note_on_c, 0, 84, 78
2, 45695, Note_on_c, 0, 84, 0
2, 45696, Note_on_c, 0, 76, 78
2, 45711, Note_on_c, 0, 76, 0
2, 45712, Note_on_c, 0, 75, 78
2, 45727, Note_on_c, 0, 75, 0
2, 45728, Note_on_c, 0, 74, 78
2, 45743, Note_on_c, 0, 74, 0
2, 45744, Note_on_c, 0, 83, 78
2, 45807, Note_on_c, 0, 83, 0
2, 45808, Note_on_c, 0, 81, 78
2, 45823, Note_on_c, 0, 81, 0
2, 45824, Note_on_c, 0, 80, 78
2, 45839, Note_on_c, 0, 80, 0
2, 45840, Note_on_c, 0, 78, 78
2, 45855, Note_on_c, 0, 78, 0
2, 45856, Note_on_c, 0, 76, 78
2, 45871, Note_on_c, 0, 76, 0
2, 45872, Note_on_c, 0, 74, 78
2, 45887, Note_on_c, 0, 74, 0
2, 45888, Note_on_c, 0, 72, 78
2, 45903, Note_on_c, 0, 72, 0
2, 45904, Note_on_c, 0, 76, 78
2, 45919, Note_on_c, 0, 76, 0
2, 45920, Note_on_c, 0, 81, 78
2, 45935, Note_on_c, 0, 81, 0
2, 45936, Note_on_c, 0, 76, 78
2, 45951, Note_on_c, 0, 76, 0
2, 45952, Note_on_c, 0, 81, 78
2, 45967, Note_on_c, 0, 81, 0
2, 45968, Note_on_c, 0, 84, 78
2, 45983, Note_on_c, 0, 84, 0
2, 45984, Note_on_c, 0, 88, 78
2, 46004, Note_on_c, 0, 88, 0
2, 46032, Note_on_c, 0, 76, 78
2, 46047, Note_on_c, 0, 76, 0
2, 46048, Note_on_c, 0, 81, 78
2, 46063, Note_on_c, 0, 81, 0
2, 46064, Note_on_c, 0, 84, 78
2, 46079, Note_on_c, 0, 84, 0
2, 46080, Note_on_c, 0, 76, 78
2, 46095, Note_on_c, 0, 76, 0
2, 46096, Note_on_c, 0, 75, 78
2, 46111, Note_on_c, 0, 75, 0
2, 46112, Note_on_c, 0, 74, 78
2, 46127, Note_on_c, 0, 74, 0
2, 46128, Note_on_c, 0, 83, 94
2, 46191, Note_on_c, 0, 83, 0
2, 46192, Note_on_c, 0, 81, 78
2, 46207, Note_on_c, 0, 81, 0
2, 46208, Note_on_c, 0, 80, 78
2, 46223, Note_on_c, 0, 80, 0
2, 46224, Note_on_c, 0, 78, 78
2, 46239, Note_on_c, 0, 78, 0
2, 46240, Note_on_c, 0, 76, 78
2, 46255, Note_on_c, 0, 76, 0
2, 46256, Note_on_c, 0, 74, 78
2, 46271, Note_on_c, 0, 74, 0
2, 46272, Note_on_c, 0, 74, 78
2, 46287, Note_on_c, 0, 74, 0
2, 46288, Note_on_c, 0, 73, 78
2, 46303, Note_on_c, 0, 73, 0
2, 46304, Note_on_c, 0, 72, 78
2, 46319, Note_on_c, 0, 72, 0
2, 46320, Note_on_c, 0, 81, 94
2, 46383, Note_on_c, 0, 81, 0
2, 46384, Note_on_c, 0, 79, 78
2, 46399, Note_on_c, 0, 79, 0
2, 46400, Note_on_c, 0, 78, 78
2, 46415, Note_on_c, 0, 78, 0
2, 46416, Note_on_c, 0, 76, 78
2, 46431, Note_on_c, 0, 76, 0
2, 46432, Note_on_c, 0, 74, 78
2, 46447, Note_on_c, 0, 74, 0
2, 46448, Note_on_c, 0, 72, 78
2, 46463, Note_on_c, 0, 72, 0
2, 46464, Note_on_c, 0, 72, 78
2, 46479, Note_on_c, 0, 72, 0
2, 46480, Note_on_c, 0, 71, 78
2, 46495, Note_on_c, 0, 71, 0
2, 46496, Note_on_c, 0, 70, 78
2, 46511, Note_on_c, 0, 70, 0
2, 46512, Note_on_c, 0, 79, 94
2, 46575, Note_on_c, 0, 79, 0
2, 46576, Note_on_c, 0, 77, 78
2, 46591, Note_on_c, 0, 77, 0
2, 46592, Note_on_c, 0, 76, 78
2, 46607, Note_on_c, 0, 76, 0
2, 46608, Note_on_c, 0, 74, 78
2, 46623, Note_on_c, 0, 74, 0
2, 46624, Note_on_c, 0, 72, 78
2, 46639, Note_on_c, 0, 72, 0
2, 46640, Note_on_c, 0, 70, 78
2, 46655, Note_on_c, 0, 70, 0
2, 46656, Note_on_c, 0, 69, 78
2, 46671, Note_on_c, 0, 69, 0
2, 46672, Note_on_c, 0, 77, 78
2, 46687, Note_on_c, 0, 77, 0
2, 46688, Note_on_c, 0, 76, 78
2, 46703, Note_on_c, 0, 76, 0
2, 46704, Note_on_c, 0, 74, 78
2, 46719, Note_on_c, 0, 74, 0
2, 46720, Note_on_c, 0, 81, 78
2, 46735, Note_on_c, 0, 81, 0
2, 46736, Note_on_c, 0, 79, 78
2, 46751, Note_on_c, 0, 79, 0
2, 46752, Note_on_c, 0, 77, 78
2, 46767, Note_on_c, 0, 77, 0
2, 46768, Note_on_c, 0, 76, 78
2, 46783, Note_on_c, 0, 76, 0
2, 46784, Note_on_c, 0, 74, 78
2, 46799, Note_on_c, 0, 74, 0
2, 46800, Note_on_c, 0, 72, 78
2, 46815, Note_on_c, 0, 72, 0
2, 46816, Note_on_c, 0, 71, 78
2, 46831, Note_on_c, 0, 71, 0
2, 46832, Note_on_c, 0, 72, 78
2, 46847, Note_on_c, 0, 72, 0
2, 46848, Note_on_c, 0, 72, 78
2, 46944, Note_on_c, 0, 72, 0
2, 46944, Note_on_c, 0, 71, 78
2, 46964, Note_on_c, 0, 71, 0
2, 46992, Note_on_c, 0, 72, 78
2, 47026, Note_on_c, 0, 72, 0
2, 47028, Note_on_c, 0, 76, 78
2, 47040, Note_on_c, 0, 76, 0
2, 47040, Note_on_c, 0, 79, 78
2, 47074, Note_on_c, 0, 79, 0
2, 47076, Note_on_c, 0, 76, 78
2, 47088, Note_on_c, 0, 76, 0
2, 47088, Note_on_c, 0, 84, 94
2, 47170, Note_on_c, 0, 84, 0
2, 47172, Note_on_c, 0, 83, 78
2, 47184, Note_on_c, 0, 83, 0
2, 47184, Note_on_c, 0, 81, 78
2, 47218, Note_on_c, 0, 81, 0
2, 47220, Note_on_c, 0, 79, 78
2, 47232, Note_on_c, 0, 79, 0
2, 47232, Note_on_c, 0, 79, 78
2, 47321, Note_on_c, 0, 79, 0
2, 47328, Note_on_c, 0, 77, 78
2, 47334, Note_on_c, 0, 77, 0
2, 47334, Note_on_c, 0, 79, 78
2, 47340, Note_on_c, 0, 79, 0
2, 47340, Note_on_c, 0, 77, 78
2, 47362, Note_on_c, 0, 77, 0
2, 47364, Note_on_c, 0, 76, 78
2, 47376, Note_on_c, 0, 76, 0
2, 47376, Note_on_c, 0, 74, 78
2, 47382, Note_on_c, 0, 74, 0
2, 47382, Note_on_c, 0, 76, 78
2, 47388, Note_on_c, 0, 76, 0
2, 47388, Note_on_c, 0, 74, 78
2, 47410, Note_on_c, 0, 74, 0
2, 47412, Note_on_c, 0, 72, 78
2, 47424, Note_on_c, 0, 72, 0
2, 47424, Note_on_c, 0, 72, 78
2, 47520, Note_on_c, 0, 72, 0
2, 47520, Note_on_c, 0, 71, 78
2, 47535, Note_on_c, 0, 71, 0
2, 47536, Note_on_c, 0, 74, 78
2, 47551, Note_on_c, 0, 74, 0
2, 47552, Note_on_c, 0, 77, 78
2, 47567, Note_on_c, 0, 77, 0
2, 47568, Note_on_c, 0, 81, 78
2, 47583, Note_on_c, 0, 81, 0
2, 47584, Note_on_c, 0, 79, 78
2, 47599, Note_on_c, 0, 79, 0
2, 47600, Note_on_c, 0, 77, 78
2, 47615, Note_on_c, 0, 77, 0
2, 47616, Note_on_c, 0, 77, 78
2, 47705, Note_on_c, 0, 77, 0
2, 47712, Note_on_c, 0, 77, 78
2, 47718, Note_on_c, 0, 77, 0
2, 47718, Note_on_c, 0, 76, 78
2, 47724, Note_on_c, 0, 76, 0
2, 47724, Note_on_c, 0, 74, 78
2, 47730, Note_on_c, 0, 74, 0
2, 47730, Note_on_c, 0, 76, 78
2, 47746, Note_on_c, 0, 76, 0
2, 47748, Note_on_c, 0, 79, 78
2, 47760, Note_on_c, 0, 79, 0
2, 47760, Note_on_c, 0, 72, 78
2, 47794, Note_on_c, 0, 72, 0
2, 47796, Note_on_c, 0, 76, 78
2, 47808, Note_on_c, 0, 76, 0
2, 47808, Note_on_c, 0, 69, 78
2, 47842, Note_on_c, 0, 69, 0
2, 47844, Note_on_c, 0, 73, 78
2, 47856, Note_on_c, 0, 73, 0
2, 47856, Note_on_c, 0, 74, 78
2, 47862, Note_on_c, 0, 74, 0
2, 47862, Note_on_c, 0, 73, 78
2, 47868, Note_on_c, 0, 73, 0
2, 47868, Note_on_c, 0, 74, 78
2, 47890, Note_on_c, 0, 74, 0
2, 47892, Note_on_c, 0, 77, 78
2, 47904, Note_on_c, 0, 77, 0
2, 47904, Note_on_c, 0, 76, 78
2, 47938, Note_on_c, 0, 76, 0
2, 47940, Note_on_c, 0, 79, 78
2, 47952, Note_on_c, 0, 79, 0
2, 47952, Note_on_c, 0, 71, 78
2, 47986, Note_on_c, 0, 71, 0
2, 47988, Note_on_c, 0, 74, 78
2, 48000, Note_on_c, 0, 74, 0
2, 48000, Note_on_c, 0, 72, 78
2, 48039, Note_on_c, 0, 72, 0
2, 48144, Note_on_c, 0, 60, 78
2, 48178, Note_on_c, 0, 60, 0
2, 48180, Note_on_c, 0, 64, 80
2, 48192, Note_on_c, 0, 64, 0
2, 48192, Note_on_c, 0, 67, 81
2, 48226, Note_on_c, 0, 67, 0
2, 48228, Note_on_c, 0, 64, 84
2, 48240, Note_on_c, 0, 64, 0
2, 48240, Note_on_c, 0, 72, 85
2, 48322, Note_on_c, 0, 72, 0
2, 48324, Note_on_c, 0, 71, 80
2, 48336, Note_on_c, 0, 71, 0
2, 48336, Note_on_c, 0, 69, 80
2, 48370, Note_on_c, 0, 69, 0
2, 48372, Note_on_c, 0, 67, 78
2, 48384, Note_on_c, 0, 67, 0
2, 48384, Note_on_c, 0, 67, 78
2, 48473, Note_on_c, 0, 67, 0
2, 48480, Note_on_c, 0, 65, 78
2, 48486, Note_on_c, 0, 65, 0
2, 48486, Note_on_c, 0, 67, 78
2, 48492, Note_on_c, 0, 67, 0
2, 48492, Note_on_c, 0, 65, 78
2, 48514, Note_on_c, 0, 65, 0
2, 48516, Note_on_c, 0, 64, 78
2, 48528, Note_on_c, 0, 64, 0
2, 48528, Note_on_c, 0, 62, 78
2, 48534, Note_on_c, 0, 62, 0
2, 48534, Note_on_c, 0, 64, 78
2, 48540, Note_on_c, 0, 64, 0
2, 48540, Note_on_c, 0, 62, 78
2, 48562, Note_on_c, 0, 62, 0
2, 48564, Note_on_c, 0, 60, 78
2, 48576, Note_on_c, 0, 60, 0
2, 48576, Note_on_c, 0, 60, 78
2, 48672, Note_on_c, 0, 60, 0
2, 48672, Note_on_c, 0, 59, 78
2, 48687, Note_on_c, 0, 59, 0
2, 48688, Note_on_c, 0, 62, 78
2, 48703, Note_on_c, 0, 62, 0
2, 48704, Note_on_c, 0, 65, 78
2, 48719, Note_on_c, 0, 65, 0
2, 48720, Note_on_c, 0, 69, 78
2, 48735, Note_on_c, 0, 69, 0
2, 48736, Note_on_c, 0, 67, 78
2, 48751, Note_on_c, 0, 67, 0
2, 48752, Note_on_c, 0, 65, 78
2, 48767, Note_on_c, 0, 65, 0
2, 48768, Note_on_c, 0, 65, 78
2, 48857, Note_on_c, 0, 65, 0
2, 48864, Note_on_c, 0, 64, 78
2, 48870, Note_on_c, 0, 64, 0
2, 48870, Note_on_c, 0, 65, 78
2, 48876, Note_on_c, 0, 65, 0
2, 48876, Note_on_c, 0, 64, 78
2, 48911, Note_on_c, 0, 64, 0
2, 48996, Note_on_c, 0, 60, 78
2, 49008, Note_on_c, 0, 60, 0
2, 49008, Note_on_c, 0, 64, 79
2, 49042, Note_on_c, 0, 64, 0
2, 49044, Note_on_c, 0, 67, 83
2, 49056, Note_on_c, 0, 67, 0
2, 49056, Note_on_c, 0, 72, 85
2, 49090, Note_on_c, 0, 72, 0
2, 49092, Note_on_c, 0, 67, 82
2, 49092, Note_on_c, 0, 64, 82
2, 49104, Note_on_c, 0, 67, 0
2, 49104, Note_on_c, 0, 64, 0
2, 49104, Note_on_c, 0, 67, 81
2, 49104, Note_on_c, 0, 64, 81
2, 49138, Note_on_c, 0, 67, 0
2, 49138, Note_on_c, 0, 64, 0
2, 49140, Note_on_c, 0, 67, 78
2, 49140, Note_on_c, 0, 64, 78
2, 49152, Note_on_c, 0, 67, 0
2, 49152, Note_on_c, 0, 64, 0
2, 49152, Note_on_c, 0, 67, 78
2, 49152, Note_on_c, 0, 64, 78
2, 49248, Note_on_c, 0, 67, 0
2, 49248, Note_on_c, 0, 64, 0
2, 49248, Note_on_c, 0, 69, 78
2, 49248, Note_on_c, 0, 65, 78
2, 49293, Note_on_c, 0, 69, 0
2, 49293, Note_on_c, 0, 65, 0
2, 49380, Note_on_c, 0, 65, 78
2, 49392, Note_on_c, 0, 65, 0
2, 49392, Note_on_c, 0, 77, 79
2, 49392, Note_on_c, 0, 69, 79
2, 49426, Note_on_c, 0, 77, 0
2, 49426, Note_on_c, 0, 69, 0
2, 49428, Note_on_c, 0, 77, 83
2, 49428, Note_on_c, 0, 69, 83
2, 49440, Note_on_c, 0, 77, 0
2, 49440, Note_on_c, 0, 69, 0
2, 49440, Note_on_c, 0, 77, 85
2, 49440, Note_on_c, 0, 69, 85
2, 49474, Note_on_c, 0, 77, 0
2, 49474, Note_on_c, 0, 69, 0
2, 49476, Note_on_c, 0, 72, 82
2, 49476, Note_on_c, 0, 69, 82
2, 49488, Note_on_c, 0, 72, 0
2, 49488, Note_on_c, 0, 69, 0
2, 49488, Note_on_c, 0, 70, 81
2, 49488, Note_on_c, 0, 67, 81
2, 49522, Note_on_c, 0, 70, 0
2, 49522, Note_on_c, 0, 67, 0
2, 49524, Note_on_c, 0, 69, 78
2, 49524, Note_on_c, 0, 65, 78
2, 49536, Note_on_c, 0, 69, 0
2, 49536, Note_on_c, 0, 65, 0
2, 49536, Note_on_c, 0, 69, 78
2, 49536, Note_on_c, 0, 65, 78
2, 49632, Note_on_c, 0, 69, 0
2, 49632, Note_on_c, 0, 65, 0
2, 49632, Note_on_c, 0, 67, 78
2, 49632, Note_on_c, 0, 64, 78
2, 49677, Note_on_c, 0, 67, 0
2, 49677, Note_on_c, 0, 64, 0
2, 49764, Note_on_c, 0, 67, 78
2, 49776, Note_on_c, 0, 67, 0
2, 49776, Note_on_c, 0, 76, 78
2, 49810, Note_on_c, 0, 76, 0
2, 49812, Note_on_c, 0, 74, 78
2, 49824, Note_on_c, 0, 74, 0
2, 49824, Note_on_c, 0, 72, 78
2, 49858, Note_on_c, 0, 72, 0
2, 49860, Note_on_c, 0, 71, 78
2, 49872, Note_on_c, 0, 71, 0
2, 49872, Note_on_c, 0, 69, 78
2, 49906, Note_on_c, 0, 69, 0
2, 49908, Note_on_c, 0, 67, 78
2, 49920, Note_on_c, 0, 67, 0
2, 49920, Note_on_c, 0, 67, 78
2, 49954, Note_on_c, 0, 67, 0
2, 49956, Note_on_c, 0, 66, 78
2, 49968, Note_on_c, 0, 66, 0
2, 49968, Note_on_c, 0, 74, 78
2, 50002, Note_on_c, 0, 74, 0
2, 50004, Note_on_c, 0, 65, 78
2, 50016, Note_on_c, 0, 65, 0
2, 50016, Note_on_c, 0, 65, 78
2, 50050, Note_on_c, 0, 65, 0
2, 50052, Note_on_c, 0, 64, 78
2, 50064, Note_on_c, 0, 64, 0
2, 50064, Note_on_c, 0, 72, 78
2, 50098, Note_on_c, 0, 72, 0
2, 50100, Note_on_c, 0, 61, 85
2, 50112, Note_on_c, 0, 61, 0
2, 50112, Note_on_c, 0, 62, 85
2, 50127, Note_on_c, 0, 62, 0
2, 50148, Note_on_c, 0, 64, 85
2, 50160, Note_on_c, 0, 64, 0
2, 50160, Note_on_c, 0, 65, 85
2, 50175, Note_on_c, 0, 65, 0
2, 50196, Note_on_c, 0, 66, 85
2, 50208, Note_on_c, 0, 66, 0
2, 50208, Note_on_c, 0, 67, 85
2, 50223, Note_on_c, 0, 67, 0
2, 50244, Note_on_c, 0, 68, 85
2, 50256, Note_on_c, 0, 68, 0
2, 50256, Note_on_c, 0, 69, 85
2, 50271, Note_on_c, 0, 69, 0
2, 50292, Note_on_c, 0, 65, 85
2, 50292, Note_on_c, 0, 62, 85
2, 50304, Note_on_c, 0, 65, 0
2, 50304, Note_on_c, 0, 62, 0
2, 50304, Note_on_c, 0, 64, 85
2, 50304, Note_on_c, 0, 60, 85
2, 50400, Note_on_c, 0, 64, 0
2, 50400, Note_on_c, 0, 60, 0
2, 50400, Note_on_c, 0, 62, 85
2, 50400, Note_on_c, 0, 59, 85
2, 50420, Note_on_c, 0, 62, 0
2, 50420, Note_on_c, 0, 59, 0
2, 50448, Note_on_c, 0, 64, 78
2, 50482, Note_on_c, 0, 64, 0
2, 50484, Note_on_c, 0, 67, 78
2, 50496, Note_on_c, 0, 67, 0
2, 50496, Note_on_c, 0, 72, 78
2, 50530, Note_on_c, 0, 72, 0
2, 50532, Note_on_c, 0, 67, 78
2, 50544, Note_on_c, 0, 67, 0
2, 50544, Note_on_c, 0, 76, 94
2, 50607, Note_on_c, 0, 76, 0
2, 50608, Note_on_c, 0, 71, 78
2, 50623, Note_on_c, 0, 71, 0
2, 50624, Note_on_c, 0, 72, 78
2, 50639, Note_on_c, 0, 72, 0
2, 50640, Note_on_c, 0, 76, 78
2, 50655, Note_on_c, 0, 76, 0
2, 50656, Note_on_c, 0, 72, 78
2, 50671, Note_on_c, 0, 72, 0
2, 50672, Note_on_c, 0, 69, 78
2, 50687, Note_on_c, 0, 69, 0
2, 50688, Note_on_c, 0, 67, 78
2, 50733, Note_on_c, 0, 67, 0
2, 50736, Note_on_c, 0, 65, 78
2, 50742, Note_on_c, 0, 65, 0
2, 50742, Note_on_c, 0, 67, 78
2, 50748, Note_on_c, 0, 67, 0
2, 50748, Note_on_c, 0, 65, 78
2, 50783, Note_on_c, 0, 65, 0
2, 50832, Note_on_c, 0, 65, 78
2, 50866, Note_on_c, 0, 65, 0
2, 50868, Note_on_c, 0, 71, 78
2, 50880, Note_on_c, 0, 71, 0
2, 50880, Note_on_c, 0, 74, 78
2, 50914, Note_on_c, 0, 74, 0
2, 50916, Note_on_c, 0, 71, 78
2, 50928, Note_on_c, 0, 71, 0
2, 50928, Note_on_c, 0, 77, 94
2, 50991, Note_on_c, 0, 77, 0
2, 50992, Note_on_c, 0, 74, 78
2, 51007, Note_on_c, 0, 74, 0
2, 51008, Note_on_c, 0, 71, 78
2, 51023, Note_on_c, 0, 71, 0
2, 51024, Note_on_c, 0, 74, 78
2, 51039, Note_on_c, 0, 74, 0
2, 51040, Note_on_c, 0, 71, 78
2, 51055, Note_on_c, 0, 71, 0
2, 51056, Note_on_c, 0, 67, 78
2, 51071, Note_on_c, 0, 67, 0
2, 51072, Note_on_c, 0, 65, 78
2, 51117, Note_on_c, 0, 65, 0
2, 51120, Note_on_c, 0, 64, 78
2, 51126, Note_on_c, 0, 64, 0
2, 51126, Note_on_c, 0, 65, 78
2, 51132, Note_on_c, 0, 65, 0
2, 51132, Note_on_c, 0, 64, 78
2, 51167, Note_on_c, 0, 64, 0
2, 51216, Note_on_c, 0, 67, 78
2, 51250, Note_on_c, 0, 67, 0
2, 51252, Note_on_c, 0, 72, 78
2, 51264, Note_on_c, 0, 72, 0
2, 51264, Note_on_c, 0, 76, 78
2, 51298, Note_on_c, 0, 76, 0
2, 51300, Note_on_c, 0, 72, 78
2, 51312, Note_on_c, 0, 72, 0
2, 51312, Note_on_c, 0, 79, 94
2, 51375, Note_on_c, 0, 79, 0
2, 51376, Note_on_c, 0, 77, 78
2, 51391, Note_on_c, 0, 77, 0
2, 51392, Note_on_c, 0, 76, 78
2, 51407, Note_on_c, 0, 76, 0
2, 51408, Note_on_c, 0, 74, 78
2, 51423, Note_on_c, 0, 74, 0
2, 51424, Note_on_c, 0, 72, 78
2, 51439, Note_on_c, 0, 72, 0
2, 51440, Note_on_c, 0, 71, 78
2, 51455, Note_on_c, 0, 71, 0
2, 51456, Note_on_c, 0, 69, 78
2, 51567, Note_on_c, 0, 69, 0
2, 51568, Note_on_c, 0, 77, 78
2, 51583, Note_on_c, 0, 77, 0
2, 51584, Note_on_c, 0, 76, 78
2, 51599, Note_on_c, 0, 76, 0
2, 51600, Note_on_c, 0, 74, 78
2, 51615, Note_on_c, 0, 74, 0
2, 51616, Note_on_c, 0, 72, 78
2, 51631, Note_on_c, 0, 72, 0
2, 51632, Note_on_c, 0, 71, 78
2, 51647, Note_on_c, 0, 71, 0
2, 51648, Note_on_c, 0, 69, 78
2, 51696, Note_on_c, 0, 69, 0
2, 51696, Note_on_c, 0, 67, 78
2, 51737, Note_on_c, 0, 67, 0
2, 51760, Note_on_c, 0, 76, 78
2, 51775, Note_on_c, 0, 76, 0
2, 51776, Note_on_c, 0, 74, 78
2, 51791, Note_on_c, 0, 74, 0
2, 51792, Note_on_c, 0, 72, 78
2, 51807, Note_on_c, 0, 72, 0
2, 51808, Note_on_c, 0, 71, 78
2, 51823, Note_on_c, 0, 71, 0
2, 51824, Note_on_c, 0, 69, 78
2, 51839, Note_on_c, 0, 69, 0
2, 51840, Note_on_c, 0, 67, 78
2, 51874, Note_on_c, 0, 67, 0
2, 51876, Note_on_c, 0, 65, 78
2, 51888, Note_on_c, 0, 65, 0
2, 51888, Note_on_c, 0, 74, 78
2, 51922, Note_on_c, 0, 74, 0
2, 51924, Note_on_c, 0, 65, 78
2, 51936, Note_on_c, 0, 65, 0
2, 51936, Note_on_c, 0, 65, 78
2, 51970, Note_on_c, 0, 65, 0
2, 51972, Note_on_c, 0, 64, 78
2, 51984, Note_on_c, 0, 64, 0
2, 51984, Note_on_c, 0, 72, 78
2, 52018, Note_on_c, 0, 72, 0
2, 52020, Note_on_c, 0, 64, 78
2, 52020, Note_on_c, 0, 60, 78
2, 52032, Note_on_c, 0, 64, 0
2, 52032, Note_on_c, 0, 60, 0
2, 52032, Note_on_c, 0, 62, 78
2, 52032, Note_on_c, 0, 59, 78
2, 52121, Note_on_c, 0, 62, 0
2, 52121, Note_on_c, 0, 59, 0
2, 52176, Note_on_c, 0, 59, 78
2, 52210, Note_on_c, 0, 59, 0
2, 52212, Note_on_c, 0, 71, 79
2, 52224, Note_on_c, 0, 71, 0
2, 52224, Note_on_c, 0, 60, 79
2, 52258, Note_on_c, 0, 60, 0
2, 52260, Note_on_c, 0, 72, 80
2, 52272, Note_on_c, 0, 72, 0
2, 52272, Note_on_c, 0, 62, 80
2, 52306, Note_on_c, 0, 62, 0
2, 52308, Note_on_c, 0, 74, 81
2, 52320, Note_on_c, 0, 74, 0
2, 52320, Note_on_c, 0, 64, 82
2, 52354, Note_on_c, 0, 64, 0
2, 52356, Note_on_c, 0, 76, 83
2, 52368, Note_on_c, 0, 76, 0
2, 52368, Note_on_c, 0, 66, 83
2, 52402, Note_on_c, 0, 66, 0
2, 52404, Note_on_c, 0, 78, 84
2, 52416, Note_on_c, 0, 78, 0
2, 52416, Note_on_c, 0, 67, 85
2, 52505, Note_on_c, 0, 67, 0
2, 52560, Note_on_c, 0, 59, 78
2, 52594, Note_on_c, 0, 59, 0
2, 52596, Note_on_c, 0, 71, 79
2, 52608, Note_on_c, 0, 71, 0
2, 52608, Note_on_c, 0, 60, 79
2, 52642, Note_on_c, 0, 60, 0
2, 52644, Note_on_c, 0, 72, 80
2, 52656, Note_on_c, 0, 72, 0
2, 52656, Note_on_c, 0, 62, 80
2, 52690, Note_on_c, 0, 62, 0
2, 52692, Note_on_c, 0, 74, 81
2, 52704, Note_on_c, 0, 74, 0
2, 52704, Note_on_c, 0, 63, 82
2, 52738, Note_on_c, 0, 63, 0
2, 52740, Note_on_c, 0, 75, 83
2, 52752, Note_on_c, 0, 75, 0
2, 52752, Note_on_c, 0, 66, 83
2, 52786, Note_on_c, 0, 66, 0
2, 52788, Note_on_c, 0, 78, 84
2, 52800, Note_on_c, 0, 78, 0
2, 52800, Note_on_c, 0, 67, 85
2, 52834, Note_on_c, 0, 67, 0
2, 52836, Note_on_c, 0, 79, 85
2, 52848, Note_on_c, 0, 79, 0
2, 52848, Note_on_c, 0, 67, 85
2, 52882, Note_on_c, 0, 67, 0
2, 52884, Note_on_c, 0, 79, 85
2, 52896, Note_on_c, 0, 79, 0
2, 52896, Note_on_c, 0, 68, 85
2, 52930, Note_on_c, 0, 68, 0
2, 52932, Note_on_c, 0, 79, 85
2, 52944, Note_on_c, 0, 79, 0
2, 52944, Note_on_c, 0, 71, 85
2, 52978, Note_on_c, 0, 71, 0
2, 52980, Note_on_c, 0, 79, 85
2, 52992, Note_on_c, 0, 79, 0
2, 52992, Note_on_c, 0, 72, 85
2, 53026, Note_on_c, 0, 72, 0
2, 53028, Note_on_c, 0, 79, 83
2, 53040, Note_on_c, 0, 79, 0
2, 53040, Note_on_c, 0, 74, 83
2, 53074, Note_on_c, 0, 74, 0
2, 53076, Note_on_c, 0, 79, 81
2, 53088, Note_on_c, 0, 79, 0
2, 53088, Note_on_c, 0, 75, 81
2, 53122, Note_on_c, 0, 75, 0
2, 53124, Note_on_c, 0, 79, 79
2, 53136, Note_on_c, 0, 79, 0
2, 53136, Note_on_c, 0, 72, 79
2, 53170, Note_on_c, 0, 72, 0
2, 53172, Note_on_c, 0, 84, 78
2, 53184, Note_on_c, 0, 84, 0
2, 53184, Note_on_c, 0, 83, 78
2, 53218, Note_on_c, 0, 83, 0
2, 53220, Note_on_c, 0, 86, 78
2, 53232, Note_on_c, 0, 86, 0
2, 53232, Note_on_c, 0, 74, 78
2, 53266, Note_on_c, 0, 74, 0
2, 53268, Note_on_c, 0, 77, 78
2, 53280, Note_on_c, 0, 77, 0
2, 53280, Note_on_c, 0, 75, 78
2, 53314, Note_on_c, 0, 75, 0
2, 53316, Note_on_c, 0, 79, 78
2, 53328, Note_on_c, 0, 79, 0
2, 53328, Note_on_c, 0, 72, 78
2, 53362, Note_on_c, 0, 72, 0
2, 53364, Note_on_c, 0, 75, 78
2, 53376, Note_on_c, 0, 75, 0
2, 53376, Note_on_c, 0, 71, 78
2, 53410, Note_on_c, 0, 71, 0
2, 53412, Note_on_c, 0, 74, 78
2, 53424, Note_on_c, 0, 74, 0
2, 53424, Note_on_c, 0, 71, 78
2, 53458, Note_on_c, 0, 71, 0
2, 53460, Note_on_c, 0, 74, 78
2, 53472, Note_on_c, 0, 74, 0
2, 53472, Note_on_c, 0, 72, 78
2, 53506, Note_on_c, 0, 72, 0
2, 53508, Note_on_c, 0, 75, 78
2, 53520, Note_on_c, 0, 75, 0
2, 53520, Note_on_c, 0, 66, 78
2, 53554, Note_on_c, 0, 66, 0
2, 53556, Note_on_c, 0, 69, 78
2, 53568, Note_on_c, 0, 69, 0
2, 53568, Note_on_c, 0, 67, 78
2, 53602, Note_on_c, 0, 67, 0
2, 53604, Note_on_c, 0, 71, 78
2, 53616, Note_on_c, 0, 71, 0
2, 53616, Note_on_c, 0, 71, 78
2, 53650, Note_on_c, 0, 71, 0
2, 53652, Note_on_c, 0, 74, 78
2, 53664, Note_on_c, 0, 74, 0
2, 53664, Note_on_c, 0, 72, 78
2, 53698, Note_on_c, 0, 72, 0
2, 53700, Note_on_c, 0, 75, 78
2, 53712, Note_on_c, 0, 75, 0
2, 53712, Note_on_c, 0, 66, 78
2, 53746, Note_on_c, 0, 66, 0
2, 53748, Note_on_c, 0, 69, 78
2, 53760, Note_on_c, 0, 69, 0
2, 53760, Note_on_c, 0, 67, 78
2, 53794, Note_on_c, 0, 67, 0
2, 53796, Note_on_c, 0, 71, 78
2, 53808, Note_on_c, 0, 71, 0
2, 53808, Note_on_c, 0, 71, 78
2, 53842, Note_on_c, 0, 71, 0
2, 53844, Note_on_c, 0, 74, 78
2, 53856, Note_on_c, 0, 74, 0
2, 53856, Note_on_c, 0, 72, 78
2, 53890, Note_on_c, 0, 72, 0
2, 53892, Note_on_c, 0, 75, 78
2, 53904, Note_on_c, 0, 75, 0
2, 53904, Note_on_c, 0, 66, 78
2, 53938, Note_on_c, 0, 66, 0
2, 53940, Note_on_c, 0, 69, 78
2, 53952, Note_on_c, 0, 69, 0
2, 53952, Note_on_c, 0, 67, 78
2, 54041, Note_on_c, 0, 67, 0
2, 54064, Note_on_c, 0, 65, 78
2, 54079, Note_on_c, 0, 65, 0
2, 54080, Note_on_c, 0, 71, 78
2, 54095, Note_on_c, 0, 71, 0
2, 54096, Note_on_c, 0, 74, 78
2, 54111, Note_on_c, 0, 74, 0
2, 54112, Note_on_c, 0, 71, 78
2, 54127, Note_on_c, 0, 71, 0
2, 54128, Note_on_c, 0, 65, 78
2, 54143, Note_on_c, 0, 65, 0
2, 54144, Note_on_c, 0, 64, 78
2, 54164, Note_on_c, 0, 64, 0
2, 54256, Note_on_c, 0, 67, 78
2, 54271, Note_on_c, 0, 67, 0
2, 54272, Note_on_c, 0, 72, 78
2, 54287, Note_on_c, 0, 72, 0
2, 54288, Note_on_c, 0, 76, 78
2, 54303, Note_on_c, 0, 76, 0
2, 54304, Note_on_c, 0, 72, 78
2, 54319, Note_on_c, 0, 72, 0
2, 54320, Note_on_c, 0, 67, 78
2, 54335, Note_on_c, 0, 67, 0
2, 54336, Note_on_c, 0, 65, 78
2, 54356, Note_on_c, 0, 65, 0
2, 54448, Note_on_c, 0, 81, 78
2, 54463, Note_on_c, 0, 81, 0
2, 54464, Note_on_c, 0, 79, 78
2, 54479, Note_on_c, 0, 79, 0
2, 54480, Note_on_c, 0, 77, 78
2, 54495, Note_on_c, 0, 77, 0
2, 54496, Note_on_c, 0, 76, 78
2, 54511, Note_on_c, 0, 76, 0
2, 54512, Note_on_c, 0, 74, 78
2, 54527, Note_on_c, 0, 74, 0
2, 54528, Note_on_c, 0, 72, 78
2, 54543, Note_on_c, 0, 72, 0
2, 54544, Note_on_c, 0, 71, 78
2, 54559, Note_on_c, 0, 71, 0
2, 54560, Note_on_c, 0, 77, 78
2, 54575, Note_on_c, 0, 77, 0
2, 54576, Note_on_c, 0, 74, 78
2, 54591, Note_on_c, 0, 74, 0
2, 54592, Note_on_c, 0, 71, 78
2, 54607, Note_on_c, 0, 71, 0
2, 54608, Note_on_c, 0, 67, 78
2, 54623, Note_on_c, 0, 67, 0
2, 54624, Note_on_c, 0, 65, 78
2, 54644, Note_on_c, 0, 65, 0
2, 54736, Control_c, 0, 64, 127
2, 54736, Note_on_c, 0, 67, 78
2, 54751, Note_on_c, 0, 67, 0
2, 54752, Note_on_c, 0, 71, 78
2, 54767, Note_on_c, 0, 71, 0
2, 54768, Note_on_c, 0, 74, 78
2, 54783, Note_on_c, 0, 74, 0
2, 54784, Note_on_c, 0, 71, 78
2, 54799, Note_on_c, 0, 71, 0
2, 54800, Note_on_c, 0, 74, 78
2, 54815, Note_on_c, 0, 74, 0
2, 54816, Note_on_c, 0, 77, 78
2, 54831, Note_on_c, 0, 77, 0
2, 54832, Note_on_c, 0, 74, 78
2, 54847, Note_on_c, 0, 74, 0
2, 54848, Note_on_c, 0, 77, 78
2, 54863, Note_on_c, 0, 77, 0
2, 54864, Note_on_c, 0, 83, 78
2, 54879, Note_on_c, 0, 83, 0
2, 54880, Note_on_c, 0, 77, 78
2, 54895, Note_on_c, 0, 77, 0
2, 54896, Note_on_c, 0, 83, 78
2, 54911, Note_on_c, 0, 83, 0
2, 54912, Note_on_c, 0, 86, 78
2, 54932, Note_on_c, 0, 86, 0
2, 55056, Control_c, 0, 64, 0
2, 55056, Note_on_c, 0, 55, 78
2, 55071, Note_on_c, 0, 55, 0
2, 55072, Note_on_c, 0, 60, 78
2, 55087, Note_on_c, 0, 60, 0
2, 55088, Note_on_c, 0, 64, 78
2, 55103, Note_on_c, 0, 64, 0
2, 55104, Note_on_c, 0, 55, 78
2, 55119, Note_on_c, 0, 55, 0
2, 55120, Note_on_c, 0, 54, 78
2, 55135, Note_on_c, 0, 54, 0
2, 55136, Note_on_c, 0, 53, 78
2, 55151, Note_on_c, 0, 53, 0
2, 55152, Note_on_c, 0, 62, 94
2, 55215, Note_on_c, 0, 62, 0
2, 55216, Note_on_c, 0, 60, 78
2, 55231, Note_on_c, 0, 60, 0
2, 55232, Note_on_c, 0, 59, 78
2, 55247, Note_on_c, 0, 59, 0
2, 55248, Note_on_c, 0, 57, 78
2, 55263, Note_on_c, 0, 57, 0
2, 55264, Note_on_c, 0, 55, 78
2, 55279, Note_on_c, 0, 55, 0
2, 55280, Note_on_c, 0, 53, 78
2, 55295, Note_on_c, 0, 53, 0
2, 55296, Note_on_c, 0, 52, 78
2, 55311, Note_on_c, 0, 52, 0
2, 55312, Note_on_c, 0, 55, 78
2, 55327, Note_on_c, 0, 55, 0
2, 55328, Note_on_c, 0, 60, 78
2, 55343, Note_on_c, 0, 60, 0
2, 55344, Note_on_c, 0, 55, 78
2, 55359, Note_on_c, 0, 55, 0
2, 55360, Note_on_c, 0, 60, 78
2, 55375, Note_on_c, 0, 60, 0
2, 55376, Note_on_c, 0, 64, 78
2, 55391, Note_on_c, 0, 64, 0
2, 55392, Note_on_c, 0, 67, 78
2, 55412, Note_on_c, 0, 67, 0
2, 55440, Note_on_c, 0, 55, 78
2, 55455, Note_on_c, 0, 55, 0
2, 55456, Note_on_c, 0, 60, 78
2, 55471, Note_on_c, 0, 60, 0
2, 55472, Note_on_c, 0, 64, 78
2, 55487, Note_on_c, 0, 64, 0
2, 55488, Note_on_c, 0, 55, 78
2, 55503, Note_on_c, 0, 55, 0
2, 55504, Note_on_c, 0, 54, 78
2, 55519, Note_on_c, 0, 54, 0
2, 55520, Note_on_c, 0, 53, 78
2, 55535, Note_on_c, 0, 53, 0
2, 55536, Note_on_c, 0, 62, 94
2, 55599, Note_on_c, 0, 62, 0
2, 55600, Note_on_c, 0, 60, 78
2, 55615, Note_on_c, 0, 60, 0
2, 55616, Note_on_c, 0, 59, 78
2, 55631, Note_on_c, 0, 59, 0
2, 55632, Note_on_c, 0, 57, 78
2, 55647, Note_on_c, 0, 57, 0
2, 55648, Note_on_c, 0, 55, 78
2, 55663, Note_on_c, 0, 55, 0
2, 55664, Note_on_c, 0, 53, 78
2, 55679, Note_on_c, 0, 53, 0
2, 55680, Note_on_c, 0, 52, 78
2, 55695, Note_on_c, 0, 52, 0
2, 55696, Note_on_c, 0, 55, 78
2, 55711, Note_on_c, 0, 55, 0
2, 55712, Note_on_c, 0, 60, 78
2, 55727, Note_on_c, 0, 60, 0
2, 55728, Note_on_c, 0, 55, 78
2, 55743, Note_on_c, 0, 55, 0
2, 55744, Note_on_c, 0, 60, 78
2, 55759, Note_on_c, 0, 60, 0
2, 55760, Note_on_c, 0, 64, 78
2, 55775, Note_on_c, 0, 64, 0
2, 55776, Note_on_c, 0, 67, 78
2, 55791, Note_on_c, 0, 67, 0
2, 55792, Note_on_c, 0, 65, 78
2, 55807, Note_on_c, 0, 65, 0
2, 55808, Note_on_c, 0, 64, 78
2, 55823, Note_on_c, 0, 64, 0
2, 55824, Note_on_c, 0, 62, 78
2, 55839, Note_on_c, 0, 62, 0
2, 55840, Note_on_c, 0, 60, 78
2, 55855, Note_on_c, 0, 60, 0
2, 55856, Note_on_c, 0, 59, 78
2, 55871, Note_on_c, 0, 59, 0
2, 55872, Note_on_c, 0, 57, 78
2, 55887, Note_on_c, 0, 57, 0
2, 55888, Note_on_c, 0, 68, 78
2, 55903, Note_on_c, 0, 68, 0
2, 55904, Note_on_c, 0, 69, 78
2, 55919, Note_on_c, 0, 69, 0
2, 55920, Note_on_c, 0, 67, 78
2, 55932, Note_on_c, 0, 67, 0
2, 55932, Note_on_c, 0, 65, 78
2, 55943, Note_on_c, 0, 65, 0
2, 55944, Note_on_c, 0, 64, 78
2, 55956, Note_on_c, 0, 64, 0
2, 55956, Note_on_c, 0, 62, 78
2, 55968, Note_on_c, 0, 62, 0
2, 55968, Note_on_c, 0, 60, 78
2, 56013, Note_on_c, 0, 60, 0
2, 56016, Note_on_c, 0, 59, 74
2, 56061, Note_on_c, 0, 59, 0
2, 56064, Note_on_c, 0, 59, 70
2, 56160, Note_on_c, 0, 59, 0
2, 56160, Note_on_c, 0, 60, 62
2, 56207, Note_on_c, 0, 60, 0
2, 56208, Note_on_c, 0, 67, 78
2, 56223, Note_on_c, 0, 67, 0
2, 56224, Note_on_c, 0, 72, 78
2, 56239, Note_on_c, 0, 72, 0
2, 56240, Note_on_c, 0, 76, 78
2, 56255, Note_on_c, 0, 76, 0
2, 56256, Note_on_c, 0, 67, 78
2, 56271, Note_on_c, 0, 67, 0
2, 56272, Note_on_c, 0, 66, 78
2, 56287, Note_on_c, 0, 66, 0
2, 56288, Note_on_c, 0, 65, 78
2, 56303, Note_on_c, 0, 65, 0
2, 56304, Note_on_c, 0, 74, 94
2, 56367, Note_on_c, 0, 74, 0
2, 56368, Note_on_c, 0, 72, 78
2, 56383, Note_on_c, 0, 72, 0
2, 56384, Note_on_c, 0, 71, 78
2, 56399, Note_on_c, 0, 71, 0
2, 56400, Note_on_c, 0, 69, 78
2, 56415, Note_on_c, 0, 69, 0
2, 56416, Note_on_c, 0, 67, 78
2, 56431, Note_on_c, 0, 67, 0
2, 56432, Note_on_c, 0, 65, 78
2, 56447, Note_on_c, 0, 65, 0
2, 56448, Note_on_c, 0, 64, 78
2, 56463, Note_on_c, 0, 64, 0
2, 56464, Note_on_c, 0, 67, 78
2, 56479, Note_on_c, 0, 67, 0
2, 56480, Note_on_c, 0, 72, 78
2, 56495, Note_on_c, 0, 72, 0
2, 56496, Note_on_c, 0, 67, 78
2, 56511, Note_on_c, 0, 67, 0
2, 56512, Note_on_c, 0, 72, 78
2, 56527, Note_on_c, 0, 72, 0
2, 56528, Note_on_c, 0, 76, 78
2, 56543, Note_on_c, 0, 76, 0
2, 56544, Note_on_c, 0, 79, 78
2, 56564, Note_on_c, 0, 79, 0
2, 56592, Note_on_c, 0, 79, 78
2, 56607, Note_on_c, 0, 79, 0
2, 56608, Note_on_c, 0, 84, 78
2, 56623, Note_on_c, 0, 84, 0
2, 56624, Note_on_c, 0, 88, 78
2, 56639, Note_on_c, 0, 88, 0
2, 56640, Note_on_c, 0, 79, 78
2, 56655, Note_on_c, 0, 79, 0
2, 56656, Note_on_c, 0, 78, 78
2, 56671, Note_on_c, 0, 78, 0
2, 56672, Note_on_c, 0, 77, 78
2, 56687, Note_on_c, 0, 77, 0
2, 56688, Note_on_c, 0, 86, 94
2, 56751, Note_on_c, 0, 86, 0
2, 56752, Note_on_c, 0, 84, 78
2, 56767, Note_on_c, 0, 84, 0
2, 56768, Note_on_c, 0, 83, 78
2, 56783, Note_on_c, 0, 83, 0
2, 56784, Note_on_c, 0, 81, 78
2, 56799, Note_on_c, 0, 81, 0
2, 56800, Note_on_c, 0, 79, 78
2, 56815, Note_on_c, 0, 79, 0
2, 56816, Note_on_c, 0, 77, 78
2, 56831, Note_on_c, 0, 77, 0
2, 56832, Note_on_c, 0, 76, 78
2, 56847, Note_on_c, 0, 76, 0
2, 56848, Note_on_c, 0, 83, 78
2, 56863, Note_on_c, 0, 83, 0
2, 56864, Note_on_c, 0, 84, 78
2, 56879, Note_on_c, 0, 84, 0
2, 56880, Note_on_c, 0, 80, 78
2, 56895, Note_on_c, 0, 80, 0
2, 56896, Note_on_c, 0, 81, 78
2, 56911, Note_on_c, 0, 81, 0
2, 56912, Note_on_c, 0, 78, 78
2, 56927, Note_on_c, 0, 78, 0
2, 56928, Note_on_c, 0, 79, 78
2, 56943, Note_on_c, 0, 79, 0
2, 56944, Note_on_c, 0, 76, 78
2, 56959, Note_on_c, 0, 76, 0
2, 56960, Note_on_c, 0, 77, 78
2, 56975, Note_on_c, 0, 77, 0
2, 56976, Note_on_c, 0, 81, 78
2, 56991, Note_on_c, 0, 81, 0
2, 56992, Note_on_c, 0, 77, 78
2, 57007, Note_on_c, 0, 77, 0
2, 57008, Note_on_c, 0, 74, 78
2, 57023, Note_on_c, 0, 74, 0
2, 57024, Note_on_c, 0, 72, 78
2, 57113, Note_on_c, 0, 72, 0
2, 57120, Note_on_c, 0, 72, 78
2, 57128, Note_on_c, 0, 72, 0
2, 57128, Note_on_c, 0, 74, 78
2, 57136, Note_on_c, 0, 74, 0
2, 57136, Note_on_c, 0, 76, 78
2, 57144, Note_on_c, 0, 76, 0
2, 57144, Note_on_c, 0, 74, 78
2, 57152, Note_on_c, 0, 74, 0
2, 57152, Note_on_c, 0, 76, 78
2, 57160, Note_on_c, 0, 76, 0
2, 57160, Note_on_c, 0, 74, 78
2, 57168, Note_on_c, 0, 74, 0
2, 57168, Note_on_c, 0, 76, 78
2, 57176, Note_on_c, 0, 76, 0
2, 57176, Note_on_c, 0, 74, 78
2, 57184, Note_on_c, 0, 74, 0
2, 57184, Note_on_c, 0, 76, 78
2, 57192, Note_on_c, 0, 76, 0
2, 57192, Note_on_c, 0, 74, 78
2, 57200, Note_on_c, 0, 74, 0
2, 57200, Note_on_c, 0, 72, 78
2, 57208, Note_on_c, 0, 72, 0
2, 57208, Note_on_c, 0, 74, 78
2, 57216, Note_on_c, 0, 74, 0
2, 57216, Note_on_c, 0, 72, 78
2, 57305, Note_on_c, 0, 72, 0
2, 57408, End_track
3, 0, Start_track
3, 0, Program_c, 0, 0
3, 0, Control_c, 0, 7, 127
3, 0, Control_c, 0, 10, 64
3, 9792, Note_on_c, 0, 60, 64
3, 9888, Note_on_c, 0, 60, 0
3, 9888, Note_on_c, 0, 59, 64
3, 9933, Note_on_c, 0, 59, 0
3, 20736, Note_on_c, 0, 60, 64
3, 20832, Note_on_c, 0, 60, 0
3, 20832, Note_on_c, 0, 59, 64
3, 20877, Note_on_c, 0, 59, 0
3, 24192, Note_on_c, 0, 71, 64
3, 24281, Note_on_c, 0, 71, 0
3, 24288, Note_on_c, 0, 69, 64
3, 24377, Note_on_c, 0, 69, 0
3, 35760, Note_on_c, 0, 68, 64
3, 35805, Note_on_c, 0, 68, 0
3, 35808, Note_on_c, 0, 67, 64
3, 35853, Note_on_c, 0, 67, 0
3, 35856, Note_on_c, 0, 63, 64
3, 35901, Note_on_c, 0, 63, 0
3, 35904, Note_on_c, 0, 62, 64
3, 35949, Note_on_c, 0, 62, 0
3, 35952, Note_on_c, 0, 68, 64
3, 35997, Note_on_c, 0, 68, 0
3, 36000, Note_on_c, 0, 67, 64
3, 36045, Note_on_c, 0, 67, 0
3, 36048, Note_on_c, 0, 63, 64
3, 36093, Note_on_c, 0, 63, 0
3, 36096, Note_on_c, 0, 62, 64
3, 36141, Note_on_c, 0, 62, 0
3, 36144, Note_on_c, 0, 68, 64
3, 36189, Note_on_c, 0, 68, 0
3, 36192, Note_on_c, 0, 67, 64
3, 36237, Note_on_c, 0, 67, 0
3, 36240, Note_on_c, 0, 63, 64
3, 36285, Note_on_c, 0, 63, 0
3, 36288, Note_on_c, 0, 62, 64
3, 36377, Note_on_c, 0, 62, 0
3, 41856, Note_on_c, 0, 71, 64
3, 41945, Note_on_c, 0, 71, 0
3, 41952, Note_on_c, 0, 69, 64
3, 42041, Note_on_c, 0, 69, 0
3, 53424, Note_on_c, 0, 68, 64
3, 53469, Note_on_c, 0, 68, 0
3, 53472, Note_on_c, 0, 67, 64
3, 53517, Note_on_c, 0, 67, 0
3, 53520, Note_on_c, 0, 63, 64
3, 53565, Note_on_c, 0, 63, 0
3, 53568, Note_on_c, 0, 62, 64
3, 53613, Note_on_c, 0, 62, 0
3, 53616, Note_on_c, 0, 68, 64
3, 53661, Note_on_c, 0, 68, 0
3, 53664, Note_on_c, 0, 67, 64
3, 53709, Note_on_c, 0, 67, 0
3, 53712, Note_on_c, 0, 63, 64
3, 53757, Note_on_c, 0, 63, 0
3, 53760, Note_on_c, 0, 62, 64
3, 53805, Note_on_c, 0, 62, 0
3, 53808, Note_on_c, 0, 68, 64
3, 53853, Note_on_c, 0, 68, 0
3, 53856, Note_on_c, 0, 67, 64
3, 53901, Note_on_c, 0, 67, 0
3, 53904, Note_on_c, 0, 63, 64
3, 53949, Note_on_c, 0, 63, 0
3, 53952, Note_on_c, 0, 62, 64
3, 54041, Note_on_c, 0, 62, 0
3, 57408, End_track
4, 0, Start_track
4, 0, Program_c, 1, 0
4, 0, Control_c, 1, 7, 127
4, 0, Control_c, 1, 10, 64
4, 240, Note_on_c, 1, 48, 78
4, 285, Note_on_c, 1, 48, 0
4, 288, Note_on_c, 1, 60, 78
4, 333, Note_on_c, 1, 60, 0
4, 336, Note_on_c, 1, 64, 78
4, 381, Note_on_c, 1, 64, 0
4, 384, Note_on_c, 1, 62, 78
4, 429, Note_on_c, 1, 62, 0
4, 432, Note_on_c, 1, 50, 78
4, 477, Note_on_c, 1, 50, 0
4, 480, Note_on_c, 1, 62, 78
4, 525, Note_on_c, 1, 62, 0
4, 528, Note_on_c, 1, 65, 78
4, 573, Note_on_c, 1, 65, 0
4, 576, Note_on_c, 1, 67, 78
4, 621, Note_on_c, 1, 67, 0
4, 624, Note_on_c, 1, 55, 78
4, 669, Note_on_c, 1, 55, 0
4, 720, Note_on_c, 1, 59, 78
4, 765, Note_on_c, 1, 59, 0
4, 768, Note_on_c, 1, 60, 78
4, 813, Note_on_c, 1, 60, 0
4, 816, Note_on_c, 1, 48, 78
4, 861, Note_on_c, 1, 48, 0
4, 912, Note_on_c, 1, 52, 78
4, 957, Note_on_c, 1, 52, 0
4, 960, Note_on_c, 1, 53, 78
4, 1005, Note_on_c, 1, 53, 0
4, 1008, Note_on_c, 1, 41, 78
4, 1053, Note_on_c, 1, 41, 0
4, 1104, Note_on_c, 1, 65, 78
4, 1104, Note_on_c, 1, 55, 78
4, 1149, Note_on_c, 1, 65, 0
4, 1149, Note_on_c, 1, 55, 0
4, 1188, Note_on_c, 1, 48, 78
4, 1200, Note_on_c, 1, 48, 0
4, 1200, Note_on_c, 1, 52, 78
4, 1234, Note_on_c, 1, 52, 0
4, 1236, Note_on_c, 1, 55, 78
4, 1248, Note_on_c, 1, 55, 0
4, 1248, Note_on_c, 1, 60, 78
4, 1268, Note_on_c, 1, 60, 0
4, 1392, Note_on_c, 1, 36, 78
4, 1437, Note_on_c, 1, 36, 0
4, 1440, Note_on_c, 1, 48, 78
4, 1485, Note_on_c, 1, 48, 0
4, 1488, Note_on_c, 1, 52, 78
4, 1533, Note_on_c, 1, 52, 0
4, 1536, Note_on_c, 1, 50, 78
4, 1581, Note_on_c, 1, 50, 0
4, 1584, Note_on_c, 1, 38, 78
4, 1629, Note_on_c, 1, 38, 0
4, 1632, Note_on_c, 1, 50, 78
4, 1677, Note_on_c, 1, 50, 0
4, 1680, Note_on_c, 1, 53, 78
4, 1725, Note_on_c, 1, 53, 0
4, 1728, Note_on_c, 1, 55, 78
4, 1773, Note_on_c, 1, 55, 0
4, 1776, Note_on_c, 1, 43, 78
4, 1821, Note_on_c, 1, 43, 0
4, 1872, Note_on_c, 1, 47, 78
4, 1917, Note_on_c, 1, 47, 0
4, 1956, Note_on_c, 1, 36, 78
4, 1968, Note_on_c, 1, 36, 0
4, 1968, Note_on_c, 1, 48, 78
4, 2002, Note_on_c, 1, 48, 0
4, 2004, Note_on_c, 1, 47, 78
4, 2016, Note_on_c, 1, 47, 0
4, 2016, Note_on_c, 1, 48, 78
4, 2031, Note_on_c, 1, 48, 0
4, 2052, Note_on_c, 1, 48, 78
4, 2064, Note_on_c, 1, 48, 0
4, 2064, Note_on_c, 1, 52, 78
4, 2098, Note_on_c, 1, 52, 0
4, 2100, Note_on_c, 1, 55, 78
4, 2112, Note_on_c, 1, 55, 0
4, 2112, Note_on_c, 1, 58, 78
4, 2289, Note_on_c, 1, 58, 0
4, 2340, Note_on_c, 1, 36, 78
4, 2352, Note_on_c, 1, 36, 0
4, 2352, Note_on_c, 1, 48, 78
4, 2386, Note_on_c, 1, 48, 0
4, 2388, Note_on_c, 1, 47, 78
4, 2400, Note_on_c, 1, 47, 0
4, 2400, Note_on_c, 1, 48, 79
4, 2415, Note_on_c, 1, 48, 0
4, 2436, Note_on_c, 1, 48, 79
4, 2448, Note_on_c, 1, 48, 0
4, 2448, Note_on_c, 1, 53, 80
4, 2482, Note_on_c, 1, 53, 0
4, 2484, Note_on_c, 1, 57, 80
4, 2496, Note_on_c, 1, 57, 0
4, 2496, Note_on_c, 1, 60, 81
4, 2673, Note_on_c, 1, 60, 0
4, 2724, Note_on_c, 1, 36, 78
4, 2736, Note_on_c, 1, 36, 0
4, 2736, Note_on_c, 1, 48, 78
4, 2770, Note_on_c, 1, 48, 0
4, 2772, Note_on_c, 1, 47, 79
4, 2784, Note_on_c, 1, 47, 0
4, 2784, Note_on_c, 1, 48, 79
4, 2799, Note_on_c, 1, 48, 0
4, 2820, Note_on_c, 1, 48, 80
4, 2832, Note_on_c, 1, 48, 0
4, 2832, Note_on_c, 1, 52, 81
4, 2866, Note_on_c, 1, 52, 0
4, 2868, Note_on_c, 1, 55, 82
4, 2880, Note_on_c, 1, 55, 0
4, 2880, Note_on_c, 1, 60, 82
4, 2969, Note_on_c, 1, 60, 0
4, 3024, Note_on_c, 1, 60, 78
4, 3069, Note_on_c, 1, 60, 0
4, 3072, Note_on_c, 1, 62, 78
4, 3117, Note_on_c, 1, 62, 0
4, 3120, Note_on_c, 1, 59, 78
4, 3165, Note_on_c, 1, 59, 0
4, 3168, Note_on_c, 1, 60, 78
4, 3213, Note_on_c, 1, 60, 0
4, 3252, Note_on_c, 1, 49, 85
4, 3264, Note_on_c, 1, 49, 0
4, 3264, Note_on_c, 1, 50, 85
4, 3279, Note_on_c, 1, 50, 0
4, 3300, Note_on_c, 1, 52, 85
4, 3312, Note_on_c, 1, 52, 0
4, 3312, Note_on_c, 1, 53, 85
4, 3327, Note_on_c, 1, 53, 0
4, 3348, Note_on_c, 1, 54, 85
4, 3360, Note_on_c, 1, 54, 0
4, 3360, Note_on_c, 1, 55, 85
4, 3375, Note_on_c, 1, 55, 0
4, 3396, Note_on_c, 1, 56, 85
4, 3408, Note_on_c, 1, 56, 0
4, 3408, Note_on_c, 1, 57, 85
4, 3423, Note_on_c, 1, 57, 0
4, 3444, Note_on_c, 1, 53, 85
4, 3456, Note_on_c, 1, 53, 0
4, 3456, Note_on_c, 1, 55, 85
4, 3545, Note_on_c, 1, 55, 0
4, 3552, Note_on_c, 1, 43, 85
4, 3597, Note_on_c, 1, 43, 0
4, 3696, Note_on_c, 1, 59, 78
4, 3696, Note_on_c, 1, 55, 78
4, 3741, Note_on_c, 1, 59, 0
4, 3741, Note_on_c, 1, 55, 0
4, 3744, Note_on_c, 1, 71, 78
4, 3744, Note_on_c, 1, 67, 78
4, 3789, Note_on_c, 1, 71, 0
4, 3789, Note_on_c, 1, 67, 0
4, 3888, Note_on_c, 1, 60, 78
4, 3888, Note_on_c, 1, 57, 78
4, 3933, Note_on_c, 1, 60, 0
4, 3933, Note_on_c, 1, 57, 0
4, 3936, Note_on_c, 1, 72, 78
4, 3936, Note_on_c, 1, 69, 78
4, 3981, Note_on_c, 1, 72, 0
4, 3981, Note_on_c, 1, 69, 0
4, 4080, Note_on_c, 1, 57, 78
4, 4080, Note_on_c, 1, 54, 78
4, 4125, Note_on_c, 1, 57, 0
4, 4125, Note_on_c, 1, 54, 0
4, 4128, Note_on_c, 1, 69, 78
4, 4128, Note_on_c, 1, 66, 78
4, 4173, Note_on_c, 1, 69, 0
4, 4173, Note_on_c, 1, 66, 0
4, 4272, Note_on_c, 1, 59, 78
4, 4272, Note_on_c, 1, 55, 78
4, 4317, Note_on_c, 1, 59, 0
4, 4317, Note_on_c, 1, 55, 0
4, 4320, Note_on_c, 1, 71, 78
4, 4320, Note_on_c, 1, 67, 78
4, 4365, Note_on_c, 1, 71, 0
4, 4365, Note_on_c, 1, 67, 0
4, 4464, Note_on_c, 1, 59, 78
4, 4498, Note_on_c, 1, 59, 0
4, 4500, Note_on_c, 1, 62, 78
4, 4512, Note_on_c, 1, 62, 0
4, 4512, Note_on_c, 1, 67, 78
4, 4557, Note_on_c, 1, 67, 0
4, 4560, Note_on_c, 1, 71, 78
4, 4605, Note_on_c, 1, 71, 0
4, 4608, Note_on_c, 1, 72, 78
4, 4642, Note_on_c, 1, 72, 0
4, 4644, Note_on_c, 1, 60, 78
4, 4656, Note_on_c, 1, 60, 0
4, 4656, Note_on_c, 1, 64, 78
4, 4690, Note_on_c, 1, 64, 0
4, 4692, Note_on_c, 1, 68, 78
4, 4704, Note_on_c, 1, 68, 0
4, 4704, Note_on_c, 1, 69, 78
4, 4834, Note_on_c, 1, 69, 0
4, 4836, Note_on_c, 1, 62, 78
4, 4848, Note_on_c, 1, 62, 0
4, 4848, Note_on_c, 1, 64, 78
4, 4882, Note_on_c, 1, 64, 0
4, 4884, Note_on_c, 1, 66, 78
4, 4896, Note_on_c, 1, 66, 0
4, 4896, Note_on_c, 1, 67, 78
4, 5037, Note_on_c, 1, 67, 0
4, 5040, Note_on_c, 1, 66, 78
4, 5085, Note_on_c, 1, 66, 0
4, 5088, Note_on_c, 1, 67, 78
4, 5133, Note_on_c, 1, 67, 0
4, 5136, Note_on_c, 1, 61, 78
4, 5181, Note_on_c, 1, 61, 0
4, 5184, Note_on_c, 1, 50, 78
4, 5218, Note_on_c, 1, 50, 0
4, 5220, Note_on_c, 1, 62, 78
4, 5232, Note_on_c, 1, 62, 0
4, 5232, Note_on_c, 1, 61, 78
4, 5266, Note_on_c, 1, 61, 0
4, 5268, Note_on_c, 1, 62, 79
4, 5280, Note_on_c, 1, 62, 0
4, 5280, Note_on_c, 1, 60, 79
4, 5314, Note_on_c, 1, 60, 0
4, 5316, Note_on_c, 1, 62, 80
4, 5328, Note_on_c, 1, 62, 0
4, 5328, Note_on_c, 1, 57, 80
4, 5362, Note_on_c, 1, 57, 0
4, 5364, Note_on_c, 1, 62, 81
4, 5376, Note_on_c, 1, 62, 0
4, 5376, Note_on_c, 1, 59, 81
4, 5410, Note_on_c, 1, 59, 0
4, 5412, Note_on_c, 1, 62, 82
4, 5424, Note_on_c, 1, 62, 0
4, 5424, Note_on_c, 1, 54, 82
4, 5458, Note_on_c, 1, 54, 0
4, 5460, Note_on_c, 1, 62, 83
4, 5472, Note_on_c, 1, 62, 0
4, 5472, Note_on_c, 1, 55, 83
4, 5506, Note_on_c, 1, 55, 0
4, 5508, Note_on_c, 1, 62, 84
4, 5520, Note_on_c, 1, 62, 0
4, 5520, Note_on_c, 1, 52, 84
4, 5554, Note_on_c, 1, 52, 0
4, 5556, Note_on_c, 1, 62, 85
4, 5568, Note_on_c, 1, 62, 0
4, 5568, Note_on_c, 1, 50, 85
4, 5657, Note_on_c, 1, 50, 0
4, 5712, Note_on_c, 1, 66, 78
4, 5746, Note_on_c, 1, 66, 0
4, 5748, Note_on_c, 1, 69, 78
4, 5760, Note_on_c, 1, 69, 0
4, 5760, Note_on_c, 1, 67, 78
4, 5794, Note_on_c, 1, 67, 0
4, 5796, Note_on_c, 1, 71, 78
4, 5808, Note_on_c, 1, 71, 0
4, 5808, Note_on_c, 1, 69, 78
4, 5842, Note_on_c, 1, 69, 0
4, 5844, Note_on_c, 1, 72, 78
4, 5856, Note_on_c, 1, 72, 0
4, 5856, Note_on_c, 1, 71, 78
4, 5901, Note_on_c, 1, 71, 0
4, 5904, Note_on_c, 1, 64, 78
4, 5938, Note_on_c, 1, 64, 0
4, 5940, Note_on_c, 1, 67, 78
4, 5952, Note_on_c, 1, 67, 0
4, 5952, Note_on_c, 1, 66, 78
4, 6041, Note_on_c, 1, 66, 0
4, 6084, Note_on_c, 1, 62, 78
4, 6096, Note_on_c, 1, 62, 0
4, 6096, Note_on_c, 1, 64, 78
4, 6130, Note_on_c, 1, 64, 0
4, 6132, Note_on_c, 1, 66, 78
4, 6144, Note_on_c, 1, 66, 0
4, 6144, Note_on_c, 1, 67, 78
4, 6233, Note_on_c, 1, 67, 0
4, 6276, Note_on_c, 1, 62, 78
4, 6288, Note_on_c, 1, 62, 0
4, 6288, Note_on_c, 1, 64, 78
4, 6322, Note_on_c, 1, 64, 0
4, 6324, Note_on_c, 1, 66, 78
4, 6336, Note_on_c, 1, 66, 0
4, 6336, Note_on_c, 1, 67, 78
4, 6425, Note_on_c, 1, 67, 0
4, 6468, Note_on_c, 1, 62, 78
4, 6480, Note_on_c, 1, 62, 0
4, 6480, Note_on_c, 1, 64, 78
4, 6514, Note_on_c, 1, 64, 0
4, 6516, Note_on_c, 1, 66, 78
4, 6528, Note_on_c, 1, 66, 0
4, 6528, Note_on_c, 1, 67, 78
4, 6617, Note_on_c, 1, 67, 0
4, 6768, Note_on_c, 1, 47, 78
4, 6813, Note_on_c, 1, 47, 0
4, 6816, Note_on_c, 1, 48, 78
4, 6861, Note_on_c, 1, 48, 0
4, 6864, Note_on_c, 1, 50, 78
4, 6909, Note_on_c, 1, 50, 0
4, 6928, Note_on_c, 1, 43, 78
4, 6943, Note_on_c, 1, 43, 0
4, 6944, Note_on_c, 1, 46, 78
4, 6959, Note_on_c, 1, 46, 0
4, 6960, Note_on_c, 1, 50, 78
4, 6975, Note_on_c, 1, 50, 0
4, 6976, Note_on_c, 1, 55, 78
4, 6991, Note_on_c, 1, 55, 0
4, 6992, Note_on_c, 1, 57, 78
4, 7007, Note_on_c, 1, 57, 0
4, 7008, Note_on_c, 1, 58, 78
4, 7053, Note_on_c, 1, 58, 0
4, 7120, Note_on_c, 1, 50, 78
4, 7135, Note_on_c, 1, 50, 0
4, 7136, Note_on_c, 1, 54, 78
4, 7151, Note_on_c, 1, 54, 0
4, 7152, Note_on_c, 1, 57, 78
4, 7167, Note_on_c, 1, 57, 0
4, 7168, Note_on_c, 1, 60, 78
4, 7183, Note_on_c, 1, 60, 0
4, 7184, Note_on_c, 1, 62, 78
4, 7199, Note_on_c, 1, 62, 0
4, 7200, Note_on_c, 1, 63, 78
4, 7245, Note_on_c, 1, 63, 0
4, 7312, Note_on_c, 1, 55, 78
4, 7327, Note_on_c, 1, 55, 0
4, 7328, Note_on_c, 1, 58, 78
4, 7343, Note_on_c, 1, 58, 0
4, 7344, Note_on_c, 1, 62, 78
4, 7359, Note_on_c, 1, 62, 0
4, 7360, Note_on_c, 1, 67, 78
4, 7375, Note_on_c, 1, 67, 0
4, 7376, Note_on_c, 1, 69, 78
4, 7391, Note_on_c, 1, 69, 0
4, 7392, Note_on_c, 1, 70, 78
4, 7412, Note_on_c, 1, 70, 0
4, 7488, Note_on_c, 1, 69, 78
4, 7508, Note_on_c, 1, 69, 0
4, 7584, Note_on_c, 1, 67, 78
4, 7604, Note_on_c, 1, 67, 0
4, 7632, Note_on_c, 1, 65, 78
4, 7652, Note_on_c, 1, 65, 0
4, 7776, Note_on_c, 1, 67, 78
4, 7906, Note_on_c, 1, 67, 0
4, 7908, Note_on_c, 1, 64, 78
4, 7920, Note_on_c, 1, 64, 0
4, 7920, Note_on_c, 1, 66, 78
4, 7954, Note_on_c, 1, 66, 0
4, 7956, Note_on_c, 1, 67, 78
4, 7968, Note_on_c, 1, 67, 0
4, 7968, Note_on_c, 1, 69, 78
4, 8098, Note_on_c, 1, 69, 0
4, 8100, Note_on_c, 1, 66, 78
4, 8112, Note_on_c, 1, 66, 0
4, 8112, Note_on_c, 1, 67, 78
4, 8146, Note_on_c, 1, 67, 0
4, 8148, Note_on_c, 1, 69, 78
4, 8160, Note_on_c, 1, 69, 0
4, 8160, Note_on_c, 1, 71, 78
4, 8290, Note_on_c, 1, 71, 0
4, 8292, Note_on_c, 1, 68, 78
4, 8304, Note_on_c, 1, 68, 0
4, 8304, Note_on_c, 1, 69, 78
4, 8338, Note_on_c, 1, 69, 0
4, 8340, Note_on_c, 1, 71, 78
4, 8352, Note_on_c, 1, 71, 0
4, 8352, Note_on_c, 1, 72, 78
4, 8397, Note_on_c, 1, 72, 0
4, 8880, Note_on_c, 1, 50, 78
4, 8925, Note_on_c, 1, 50, 0
4, 8928, Note_on_c, 1, 52, 78
4, 8973, Note_on_c, 1, 52, 0
4, 8976, Note_on_c, 1, 54, 78
4, 9021, Note_on_c, 1, 54, 0
4, 9024, Note_on_c, 1, 55, 78
4, 9113, Note_on_c, 1, 55, 0
4, 9264, Note_on_c, 1, 50, 78
4, 9309, Note_on_c, 1, 50, 0
4, 9312, Note_on_c, 1, 52, 78
4, 9357, Note_on_c, 1, 52, 0
4, 9360, Note_on_c, 1, 54, 78
4, 9405, Note_on_c, 1, 54, 0
4, 9408, Note_on_c, 1, 55, 78
4, 9497, Note_on_c, 1, 55, 0
4, 9552, Note_on_c, 1, 47, 78
4, 9597, Note_on_c, 1, 47, 0
4, 9648, Note_on_c, 1, 60, 78
4, 9693, Note_on_c, 1, 60, 0
4, 9696, Note_on_c, 1, 59, 78
4, 9741, Note_on_c, 1, 59, 0
4, 9744, Note_on_c, 1, 57, 78
4, 9789, Note_on_c, 1, 57, 0
4, 9792, Note_on_c, 1, 57, 78
4, 9792, Note_on_c, 1, 52, 78
4, 9888, Note_on_c, 1, 57, 0
4, 9888, Note_on_c, 1, 55, 78
4, 9933, Note_on_c, 1, 55, 0
4, 9933, Note_on_c, 1, 52, 0
4, 10032, Note_on_c, 1, 62, 78
4, 10077, Note_on_c, 1, 62, 0
4, 10080, Note_on_c, 1, 64, 78
4, 10125, Note_on_c, 1, 64, 0
4, 10128, Note_on_c, 1, 66, 78
4, 10173, Note_on_c, 1, 66, 0
4, 10176, Note_on_c, 1, 67, 78
4, 10265, Note_on_c, 1, 67, 0
4, 10416, Note_on_c, 1, 62, 78
4, 10461, Note_on_c, 1, 62, 0
4, 10464, Note_on_c, 1, 64, 78
4, 10509, Note_on_c, 1, 64, 0
4, 10512, Note_on_c, 1, 66, 78
4, 10557, Note_on_c, 1, 66, 0
4, 10560, Note_on_c, 1, 67, 78
4, 10649, Note_on_c, 1, 67, 0
4, 10800, Note_on_c, 1, 47, 78
4, 10845, Note_on_c, 1, 47, 0
4, 10848, Note_on_c, 1, 48, 78
4, 10893, Note_on_c, 1, 48, 0
4, 10896, Note_on_c, 1, 50, 78
4, 10941, Note_on_c, 1, 50, 0
4, 10944, Note_on_c, 1, 43, 78
4, 10959, Note_on_c, 1, 43, 0
4, 10960, Note_on_c, 1, 47, 78
4, 10975, Note_on_c, 1, 47, 0
4, 10976, Note_on_c, 1, 50, 78
4, 10991, Note_on_c, 1, 50, 0
4, 10992, Note_on_c, 1, 55, 78
4, 11007, Note_on_c, 1, 55, 0
4, 11008, Note_on_c, 1, 59, 78
4, 11023, Note_on_c, 1, 59, 0
4, 11024, Note_on_c, 1, 55, 78
4, 11039, Note_on_c, 1, 55, 0
4, 11040, Note_on_c, 1, 43, 78
4, 11085, Note_on_c, 1, 43, 0
4, 11184, Note_on_c, 1, 48, 78
4, 11229, Note_on_c, 1, 48, 0
4, 11232, Note_on_c, 1, 60, 78
4, 11277, Note_on_c, 1, 60, 0
4, 11280, Note_on_c, 1, 64, 78
4, 11325, Note_on_c, 1, 64, 0
4, 11328, Note_on_c, 1, 62, 78
4, 11373, Note_on_c, 1, 62, 0
4, 11376, Note_on_c, 1, 50, 78
4, 11421, Note_on_c, 1, 50, 0
4, 11424, Note_on_c, 1, 62, 78
4, 11469, Note_on_c, 1, 62, 0
4, 11472, Note_on_c, 1, 65, 78
4, 11517, Note_on_c, 1, 65, 0
4, 11520, Note_on_c, 1, 67, 78
4, 11565, Note_on_c, 1, 67, 0
4, 11568, Note_on_c, 1, 55, 78
4, 11613, Note_on_c, 1, 55, 0
4, 11664, Note_on_c, 1, 59, 78
4, 11709, Note_on_c, 1, 59, 0
4, 11712, Note_on_c, 1, 60, 78
4, 11757, Note_on_c, 1, 60, 0
4, 11760, Note_on_c, 1, 48, 78
4, 11805, Note_on_c, 1, 48, 0
4, 11856, Note_on_c, 1, 52, 78
4, 11901, Note_on_c, 1, 52, 0
4, 11904, Note_on_c, 1, 53, 78
4, 11949, Note_on_c, 1, 53, 0
4, 11952, Note_on_c, 1, 41, 78
4, 11997, Note_on_c, 1, 41, 0
4, 12048, Note_on_c, 1, 65, 78
4, 12048, Note_on_c, 1, 55, 78
4, 12093, Note_on_c, 1, 65, 0
4, 12093, Note_on_c, 1, 55, 0
4, 12132, Note_on_c, 1, 48, 78
4, 12144, Note_on_c, 1, 48, 0
4, 12144, Note_on_c, 1, 52, 78
4, 12178, Note_on_c, 1, 52, 0
4, 12180, Note_on_c, 1, 55, 78
4, 12192, Note_on_c, 1, 55, 0
4, 12192, Note_on_c, 1, 60, 78
4, 12212, Note_on_c, 1, 60, 0
4, 12336, Note_on_c, 1, 36, 78
4, 12381, Note_on_c, 1, 36, 0
4, 12384, Note_on_c, 1, 48, 78
4, 12429, Note_on_c, 1, 48, 0
4, 12432, Note_on_c, 1, 52, 78
4, 12477, Note_on_c, 1, 52, 0
4, 12480, Note_on_c, 1, 50, 78
4, 12525, Note_on_c, 1, 50, 0
4, 12528, Note_on_c, 1, 38, 78
4, 12573, Note_on_c, 1, 38, 0
4, 12576, Note_on_c, 1, 50, 78
4, 12621, Note_on_c, 1, 50, 0
4, 12624, Note_on_c, 1, 53, 78
4, 12669, Note_on_c, 1, 53, 0
4, 12672, Note_on_c, 1, 55, 78
4, 12717, Note_on_c, 1, 55, 0
4, 12720, Note_on_c, 1, 43, 78
4, 12765, Note_on_c, 1, 43, 0
4, 12816, Note_on_c, 1, 47, 78
4, 12861, Note_on_c, 1, 47, 0
4, 12900, Note_on_c, 1, 36, 78
4, 12912, Note_on_c, 1, 36, 0
4, 12912, Note_on_c, 1, 48, 78
4, 12946, Note_on_c, 1, 48, 0
4, 12948, Note_on_c, 1, 47, 78
4, 12960, Note_on_c, 1, 47, 0
4, 12960, Note_on_c, 1, 48, 78
4, 12975, Note_on_c, 1, 48, 0
4, 12996, Note_on_c, 1, 48, 78
4, 13008, Note_on_c, 1, 48, 0
4, 13008, Note_on_c, 1, 52, 78
4, 13042, Note_on_c, 1, 52, 0
4, 13044, Note_on_c, 1, 55, 78
4, 13056, Note_on_c, 1, 55, 0
4, 13056, Note_on_c, 1, 58, 78
4, 13233, Note_on_c, 1, 58, 0
4, 13284, Note_on_c, 1, 36, 78
4, 13296, Note_on_c, 1, 36, 0
4, 13296, Note_on_c, 1, 48, 78
4, 13330, Note_on_c, 1, 48, 0
4, 13332, Note_on_c, 1, 47, 78
4, 13344, Note_on_c, 1, 47, 0
4, 13344, Note_on_c, 1, 48, 79
4, 13359, Note_on_c, 1, 48, 0
4, 13380, Note_on_c, 1, 48, 79
4, 13392, Note_on_c, 1, 48, 0
4, 13392, Note_on_c, 1, 53, 80
4, 13426, Note_on_c, 1, 53, 0
4, 13428, Note_on_c, 1, 57, 80
4, 13440, Note_on_c, 1, 57, 0
4, 13440, Note_on_c, 1, 60, 81
4, 13617, Note_on_c, 1, 60, 0
4, 13668, Note_on_c, 1, 36, 78
4, 13680, Note_on_c, 1, 36, 0
4, 13680, Note_on_c, 1, 48, 78
4, 13714, Note_on_c, 1, 48, 0
4, 13716, Note_on_c, 1, 47, 79
4, 13728, Note_on_c, 1, 47, 0
4, 13728, Note_on_c, 1, 48, 79
4, 13743, Note_on_c, 1, 48, 0
4, 13764, Note_on_c, 1, 48, 80
4, 13776, Note_on_c, 1, 48, 0
4, 13776, Note_on_c, 1, 52, 81
4, 13810, Note_on_c, 1, 52, 0
4, 13812, Note_on_c, 1, 55, 82
4, 13824, Note_on_c, 1, 55, 0
4, 13824, Note_on_c, 1, 60, 82
4, 13913, Note_on_c, 1, 60, 0
4, 13968, Note_on_c, 1, 60, 78
4, 14013, Note_on_c, 1, 60, 0
4, 14016, Note_on_c, 1, 62, 78
4, 14061, Note_on_c, 1, 62, 0
4, 14064, Note_on_c, 1, 59, 78
4, 14109, Note_on_c, 1, 59, 0
4, 14112, Note_on_c, 1, 60, 78
4, 14157, Note_on_c, 1, 60, 0
4, 14196, Note_on_c, 1, 49, 85
4, 14208, Note_on_c, 1, 49, 0
4, 14208, Note_on_c, 1, 50, 85
4, 14223, Note_on_c, 1, 50, 0
4, 14244, Note_on_c, 1, 52, 85
4, 14256, Note_on_c, 1, 52, 0
4, 14256, Note_on_c, 1, 53, 85
4, 14271, Note_on_c, 1, 53, 0
4, 14292, Note_on_c, 1, 54, 85
4, 14304, Note_on_c, 1, 54, 0
4, 14304, Note_on_c, 1, 55, 85
4, 14319, Note_on_c, 1, 55, 0
4, 14340, Note_on_c, 1, 56, 85
4, 14352, Note_on_c, 1, 56, 0
4, 14352, Note_on_c, 1, 57, 85
4, 14367, Note_on_c, 1, 57, 0
4, 14388, Note_on_c, 1, 53, 85
4, 14400, Note_on_c, 1, 53, 0
4, 14400, Note_on_c, 1, 55, 85
4, 14489, Note_on_c, 1, 55, 0
4, 14496, Note_on_c, 1, 43, 85
4, 14541, Note_on_c, 1, 43, 0
4, 14640, Note_on_c, 1, 59, 78
4, 14640, Note_on_c, 1, 55, 78
4, 14685, Note_on_c, 1, 59, 0
4, 14685, Note_on_c, 1, 55, 0
4, 14688, Note_on_c, 1, 71, 78
4, 14688, Note_on_c, 1, 67, 78
4, 14733, Note_on_c, 1, 71, 0
4, 14733, Note_on_c, 1, 67, 0
4, 14832, Note_on_c, 1, 60, 78
4, 14832, Note_on_c, 1, 57, 78
4, 14877, Note_on_c, 1, 60, 0
4, 14877, Note_on_c, 1, 57, 0
4, 14880, Note_on_c, 1, 72, 78
4, 14880, Note_on_c, 1, 69, 78
4, 14925, Note_on_c, 1, 72, 0
4, 14925, Note_on_c, 1, 69, 0
4, 15024, Note_on_c, 1, 57, 78
4, 15024, Note_on_c, 1, 54, 78
4, 15069, Note_on_c, 1, 57, 0
4, 15069, Note_on_c, 1, 54, 0
4, 15072, Note_on_c, 1, 69, 78
4, 15072, Note_on_c, 1, 66, 78
4, 15117, Note_on_c, 1, 69, 0
4, 15117, Note_on_c, 1, 66, 0
4, 15216, Note_on_c, 1, 59, 78
4, 15216, Note_on_c, 1, 55, 78
4, 15261, Note_on_c, 1, 59, 0
4, 15261, Note_on_c, 1, 55, 0
4, 15264, Note_on_c, 1, 71, 78
4, 15264, Note_on_c, 1, 67, 78
4, 15309, Note_on_c, 1, 71, 0
4, 15309, Note_on_c, 1, 67, 0
4, 15408, Note_on_c, 1, 59, 78
4, 15442, Note_on_c, 1, 59, 0
4, 15444, Note_on_c, 1, 62, 78
4, 15456, Note_on_c, 1, 62, 0
4, 15456, Note_on_c, 1, 67, 78
4, 15501, Note_on_c, 1, 67, 0
4, 15504, Note_on_c, 1, 71, 78
4, 15549, Note_on_c, 1, 71, 0
4, 15552, Note_on_c, 1, 72, 78
4, 15586, Note_on_c, 1, 72, 0
4, 15588, Note_on_c, 1, 60, 78
4, 15600, Note_on_c, 1, 60, 0
4, 15600, Note_on_c, 1, 64, 78
4, 15634, Note_on_c, 1, 64, 0
4, 15636, Note_on_c, 1, 68, 78
4, 15648, Note_on_c, 1, 68, 0
4, 15648, Note_on_c, 1, 69, 78
4, 15778, Note_on_c, 1, 69, 0
4, 15780, Note_on_c, 1, 62, 78
4, 15792, Note_on_c, 1, 62, 0
4, 15792, Note_on_c, 1, 64, 78
4, 15826, Note_on_c, 1, 64, 0
4, 15828, Note_on_c, 1, 66, 78
4, 15840, Note_on_c, 1, 66, 0
4, 15840, Note_on_c, 1, 67, 78
4, 15981, Note_on_c, 1, 67, 0
4, 15984, Note_on_c, 1, 66, 78
4, 16029, Note_on_c, 1, 66, 0
4, 16032, Note_on_c, 1, 67, 78
4, 16077, Note_on_c, 1, 67, 0
4, 16080, Note_on_c, 1, 61, 78
4, 16125, Note_on_c, 1, 61, 0
4, 16128, Note_on_c, 1, 50, 78
4, 16162, Note_on_c, 1, 50, 0
4, 16164, Note_on_c, 1, 62, 78
4, 16176, Note_on_c, 1, 62, 0
4, 16176, Note_on_c, 1, 61, 78
4, 16210, Note_on_c, 1, 61, 0
4, 16212, Note_on_c, 1, 62, 79
4, 16224, Note_on_c, 1, 62, 0
4, 16224, Note_on_c, 1, 60, 79
4, 16258, Note_on_c, 1, 60, 0
4, 16260, Note_on_c, 1, 62, 80
4, 16272, Note_on_c, 1, 62, 0
4, 16272, Note_on_c, 1, 57, 80
4, 16306, Note_on_c, 1, 57, 0
4, 16308, Note_on_c, 1, 62, 81
4, 16320, Note_on_c, 1, 62, 0
4, 16320, Note_on_c, 1, 59, 81
4, 16354, Note_on_c, 1, 59, 0
4, 16356, Note_on_c, 1, 62, 82
4, 16368, Note_on_c, 1, 62, 0
4, 16368, Note_on_c, 1, 54, 82
4, 16402, Note_on_c, 1, 54, 0
4, 16404, Note_on_c, 1, 62, 83
4, 16416, Note_on_c, 1, 62, 0
4, 16416, Note_on_c, 1, 55, 83
4, 16450, Note_on_c, 1, 55, 0
4, 16452, Note_on_c, 1, 62, 84
4, 16464, Note_on_c, 1, 62, 0
4, 16464, Note_on_c, 1, 52, 84
4, 16498, Note_on_c, 1, 52, 0
4, 16500, Note_on_c, 1, 62, 85
4, 16512, Note_on_c, 1, 62, 0
4, 16512, Note_on_c, 1, 50, 85
4, 16601, Note_on_c, 1, 50, 0
4, 16656, Note_on_c, 1, 66, 78
4, 16690, Note_on_c, 1, 66, 0
4, 16692, Note_on_c, 1, 69, 78
4, 16704, Note_on_c, 1, 69, 0
4, 16704, Note_on_c, 1, 67, 78
4, 16738, Note_on_c, 1, 67, 0
4, 16740, Note_on_c, 1, 71, 78
4, 16752, Note_on_c, 1, 71, 0
4, 16752, Note_on_c, 1, 69, 78
4, 16786, Note_on_c, 1, 69, 0
4, 16788, Note_on_c, 1, 72, 78
4, 16800, Note_on_c, 1, 72, 0
4, 16800, Note_on_c, 1, 71, 78
4, 16845, Note_on_c, 1, 71, 0
4, 16848, Note_on_c, 1, 64, 78
4, 16882, Note_on_c, 1, 64, 0
4, 16884, Note_on_c, 1, 67, 78
4, 16896, Note_on_c, 1, 67, 0
4, 16896, Note_on_c, 1, 66, 78
4, 16985, Note_on_c, 1, 66, 0
4, 17028, Note_on_c, 1, 62, 78
4, 17040, Note_on_c, 1, 62, 0
4, 17040, Note_on_c, 1, 64, 78
4, 17074, Note_on_c, 1, 64, 0
4, 17076, Note_on_c, 1, 66, 78
4, 17088, Note_on_c, 1, 66, 0
4, 17088, Note_on_c, 1, 67, 78
4, 17177, Note_on_c, 1, 67, 0
4, 17220, Note_on_c, 1, 62, 78
4, 17232, Note_on_c, 1, 62, 0
4, 17232, Note_on_c, 1, 64, 78
4, 17266, Note_on_c, 1, 64, 0
4, 17268, Note_on_c, 1, 66, 78
4, 17280, Note_on_c, 1, 66, 0
4, 17280, Note_on_c, 1, 67, 78
4, 17369, Note_on_c, 1, 67, 0
4, 17412, Note_on_c, 1, 62, 78
4, 17424, Note_on_c, 1, 62, 0
4, 17424, Note_on_c, 1, 64, 78
4, 17458, Note_on_c, 1, 64, 0
4, 17460, Note_on_c, 1, 66, 78
4, 17472, Note_on_c, 1, 66, 0
4, 17472, Note_on_c, 1, 67, 78
4, 17561, Note_on_c, 1, 67, 0
4, 17712, Note_on_c, 1, 47, 78
4, 17757, Note_on_c, 1, 47, 0
4, 17760, Note_on_c, 1, 48, 78
4, 17805, Note_on_c, 1, 48, 0
4, 17808, Note_on_c, 1, 50, 78
4, 17853, Note_on_c, 1, 50, 0
4, 17872, Note_on_c, 1, 43, 78
4, 17887, Note_on_c, 1, 43, 0
4, 17888, Note_on_c, 1, 46, 78
4, 17903, Note_on_c, 1, 46, 0
4, 17904, Note_on_c, 1, 50, 78
4, 17919, Note_on_c, 1, 50, 0
4, 17920, Note_on_c, 1, 55, 78
4, 17935, Note_on_c, 1, 55, 0
4, 17936, Note_on_c, 1, 57, 78
4, 17951, Note_on_c, 1, 57, 0
4, 17952, Note_on_c, 1, 58, 78
4, 17997, Note_on_c, 1, 58, 0
4, 18064, Note_on_c, 1, 50, 78
4, 18079, Note_on_c, 1, 50, 0
4, 18080, Note_on_c, 1, 54, 78
4, 18095, Note_on_c, 1, 54, 0
4, 18096, Note_on_c, 1, 57, 78
4, 18111, Note_on_c, 1, 57, 0
4, 18112, Note_on_c, 1, 60, 78
4, 18127, Note_on_c, 1, 60, 0
4, 18128, Note_on_c, 1, 62, 78
4, 18143, Note_on_c, 1, 62, 0
4, 18144, Note_on_c, 1, 63, 78
4, 18189, Note_on_c, 1, 63, 0
4, 18256, Note_on_c, 1, 55, 78
4, 18271, Note_on_c, 1, 55, 0
4, 18272, Note_on_c, 1, 58, 78
4, 18287, Note_on_c, 1, 58, 0
4, 18288, Note_on_c, 1, 62, 78
4, 18303, Note_on_c, 1, 62, 0
4, 18304, Note_on_c, 1, 67, 78
4, 18319, Note_on_c, 1, 67, 0
4, 18320, Note_on_c, 1, 69, 78
4, 18335, Note_on_c, 1, 69, 0
4, 18336, Note_on_c, 1, 70, 78
4, 18356, Note_on_c, 1, 70, 0
4, 18432, Note_on_c, 1, 69, 78
4, 18452, Note_on_c, 1, 69, 0
4, 18528, Note_on_c, 1, 67, 78
4, 18548, Note_on_c, 1, 67, 0
4, 18576, Note_on_c, 1, 65, 78
4, 18596, Note_on_c, 1, 65, 0
4, 18720, Note_on_c, 1, 67, 78
4, 18850, Note_on_c, 1, 67, 0
4, 18852, Note_on_c, 1, 64, 78
4, 18864, Note_on_c, 1, 64, 0
4, 18864, Note_on_c, 1, 66, 78
4, 18898, Note_on_c, 1, 66, 0
4, 18900, Note_on_c, 1, 67, 78
4, 18912, Note_on_c, 1, 67, 0
4, 18912, Note_on_c, 1, 69, 78
4, 19042, Note_on_c, 1, 69, 0
4, 19044, Note_on_c, 1, 66, 78
4, 19056, Note_on_c, 1, 66, 0
4, 19056, Note_on_c, 1, 67, 78
4, 19090, Note_on_c, 1, 67, 0
4, 19092, Note_on_c, 1, 69, 78
4, 19104, Note_on_c, 1, 69, 0
4, 19104, Note_on_c, 1, 71, 78
4, 19234, Note_on_c, 1, 71, 0
4, 19236, Note_on_c, 1, 68, 78
4, 19248, Note_on_c, 1, 68, 0
4, 19248, Note_on_c, 1, 69, 78
4, 19282, Note_on_c, 1, 69, 0
4, 19284, Note_on_c, 1, 71, 78
4, 19296, Note_on_c, 1, 71, 0
4, 19296, Note_on_c, 1, 72, 78
4, 19341, Note_on_c, 1, 72, 0
4, 19824, Note_on_c, 1, 50, 78
4, 19869, Note_on_c, 1, 50, 0
4, 19872, Note_on_c, 1, 52, 78
4, 19917, Note_on_c, 1, 52, 0
4, 19920, Note_on_c, 1, 54, 78
4, 19965, Note_on_c, 1, 54, 0
4, 19968, Note_on_c, 1, 55, 78
4, 20057, Note_on_c, 1, 55, 0
4, 20208, Note_on_c, 1, 50, 78
4, 20253, Note_on_c, 1, 50, 0
4, 20256, Note_on_c, 1, 52, 78
4, 20301, Note_on_c, 1, 52, 0
4, 20304, Note_on_c, 1, 54, 78
4, 20349, Note_on_c, 1, 54, 0
4, 20352, Note_on_c, 1, 55, 78
4, 20441, Note_on_c, 1, 55, 0
4, 20496, Note_on_c, 1, 47, 78
4, 20541, Note_on_c, 1, 47, 0
4, 20592, Note_on_c, 1, 60, 78
4, 20637, Note_on_c, 1, 60, 0
4, 20640, Note_on_c, 1, 59, 78
4, 20685, Note_on_c, 1, 59, 0
4, 20688, Note_on_c, 1, 57, 78
4, 20733, Note_on_c, 1, 57, 0
4, 20736, Note_on_c, 1, 57, 78
4, 20736, Note_on_c, 1, 52, 78
4, 20832, Note_on_c, 1, 57, 0
4, 20832, Note_on_c, 1, 55, 78
4, 20877, Note_on_c, 1, 55, 0
4, 20877, Note_on_c, 1, 52, 0
4, 20976, Note_on_c, 1, 62, 78
4, 21021, Note_on_c, 1, 62, 0
4, 21024, Note_on_c, 1, 64, 78
4, 21069, Note_on_c, 1, 64, 0
4, 21072, Note_on_c, 1, 66, 78
4, 21117, Note_on_c, 1, 66, 0
4, 21120, Note_on_c, 1, 67, 78
4, 21209, Note_on_c, 1, 67, 0
4, 21360, Note_on_c, 1, 62, 78
4, 21405, Note_on_c, 1, 62, 0
4, 21408, Note_on_c, 1, 64, 78
4, 21453, Note_on_c, 1, 64, 0
4, 21456, Note_on_c, 1, 66, 78
4, 21501, Note_on_c, 1, 66, 0
4, 21504, Note_on_c, 1, 67, 78
4, 21593, Note_on_c, 1, 67, 0
4, 21744, Note_on_c, 1, 47, 78
4, 21789, Note_on_c, 1, 47, 0
4, 21792, Note_on_c, 1, 48, 78
4, 21837, Note_on_c, 1, 48, 0
4, 21840, Note_on_c, 1, 50, 78
4, 21885, Note_on_c, 1, 50, 0
4, 21888, Note_on_c, 1, 43, 78
4, 21903, Note_on_c, 1, 43, 0
4, 21904, Note_on_c, 1, 47, 78
4, 21919, Note_on_c, 1, 47, 0
4, 21920, Note_on_c, 1, 50, 78
4, 21935, Note_on_c, 1, 50, 0
4, 21936, Note_on_c, 1, 55, 78
4, 21951, Note_on_c, 1, 55, 0
4, 21952, Note_on_c, 1, 59, 78
4, 21967, Note_on_c, 1, 59, 0
4, 21968, Note_on_c, 1, 55, 78
4, 21983, Note_on_c, 1, 55, 0
4, 21984, Note_on_c, 1, 43, 78
4, 22029, Note_on_c, 1, 43, 0
4, 22128, Note_on_c, 1, 43, 78
4, 22173, Note_on_c, 1, 43, 0
4, 22176, Note_on_c, 1, 55, 78
4, 22221, Note_on_c, 1, 55, 0
4, 22224, Note_on_c, 1, 59, 78
4, 22269, Note_on_c, 1, 59, 0
4, 22272, Note_on_c, 1, 57, 78
4, 22317, Note_on_c, 1, 57, 0
4, 22320, Note_on_c, 1, 45, 78
4, 22365, Note_on_c, 1, 45, 0
4, 22368, Note_on_c, 1, 57, 78
4, 22413, Note_on_c, 1, 57, 0
4, 22416, Note_on_c, 1, 60, 78
4, 22461, Note_on_c, 1, 60, 0
4, 22464, Note_on_c, 1, 62, 78
4, 22509, Note_on_c, 1, 62, 0
4, 22512, Note_on_c, 1, 50, 78
4, 22557, Note_on_c, 1, 50, 0
4, 22608, Note_on_c, 1, 54, 78
4, 22653, Note_on_c, 1, 54, 0
4, 22656, Note_on_c, 1, 55, 78
4, 22701, Note_on_c, 1, 55, 0
4, 22704, Note_on_c, 1, 43, 78
4, 22749, Note_on_c, 1, 43, 0
4, 22800, Note_on_c, 1, 59, 78
4, 22845, Note_on_c, 1, 59, 0
4, 22848, Note_on_c, 1, 60, 78
4, 22893, Note_on_c, 1, 60, 0
4, 22896, Note_on_c, 1, 48, 78
4, 22941, Note_on_c, 1, 48, 0
4, 22992, Note_on_c, 1, 60, 78
4, 22992, Note_on_c, 1, 50, 78
4, 23037, Note_on_c, 1, 60, 0
4, 23037, Note_on_c, 1, 50, 0
4, 23076, Note_on_c, 1, 43, 78
4, 23088, Note_on_c, 1, 43, 0
4, 23088, Note_on_c, 1, 55, 78
4, 23122, Note_on_c, 1, 55, 0
4, 23124, Note_on_c, 1, 54, 78
4, 23136, Note_on_c, 1, 54, 0
4, 23136, Note_on_c, 1, 55, 79
4, 23151, Note_on_c, 1, 55, 0
4, 23172, Note_on_c, 1, 55, 79
4, 23184, Note_on_c, 1, 55, 0
4, 23184, Note_on_c, 1, 59, 80
4, 23218, Note_on_c, 1, 59, 0
4, 23220, Note_on_c, 1, 62, 80
4, 23232, Note_on_c, 1, 62, 0
4, 23232, Note_on_c, 1, 67, 81
4, 23409, Note_on_c, 1, 67, 0
4, 23460, Note_on_c, 1, 43, 78
4, 23472, Note_on_c, 1, 43, 0
4, 23472, Note_on_c, 1, 55, 78
4, 23506, Note_on_c, 1, 55, 0
4, 23508, Note_on_c, 1, 54, 80
4, 23520, Note_on_c, 1, 54, 0
4, 23520, Note_on_c, 1, 55, 80
4, 23535, Note_on_c, 1, 55, 0
4, 23556, Note_on_c, 1, 55, 82
4, 23568, Note_on_c, 1, 55, 0
4, 23568, Note_on_c, 1, 60, 82
4, 23602, Note_on_c, 1, 60, 0
4, 23604, Note_on_c, 1, 64, 84
4, 23616, Note_on_c, 1, 64, 0
4, 23616, Note_on_c, 1, 67, 85
4, 23793, Note_on_c, 1, 67, 0
4, 23844, Note_on_c, 1, 43, 78
4, 23856, Note_on_c, 1, 43, 0
4, 23856, Note_on_c, 1, 55, 78
4, 23890, Note_on_c, 1, 55, 0
4, 23892, Note_on_c, 1, 54, 78
4, 23904, Note_on_c, 1, 54, 0
4, 23904, Note_on_c, 1, 55, 79
4, 23919, Note_on_c, 1, 55, 0
4, 23940, Note_on_c, 1, 55, 79
4, 23952, Note_on_c, 1, 55, 0
4, 23952, Note_on_c, 1, 59, 80
4, 23986, Note_on_c, 1, 59, 0
4, 23988, Note_on_c, 1, 62, 80
4, 24000, Note_on_c, 1, 62, 0
4, 24000, Note_on_c, 1, 67, 81
4, 24096, Note_on_c, 1, 67, 0
4, 24096, Note_on_c, 1, 68, 83
4, 24185, Note_on_c, 1, 68, 0
4, 24228, Note_on_c, 1, 45, 78
4, 24240, Note_on_c, 1, 45, 0
4, 24240, Note_on_c, 1, 57, 78
4, 24274, Note_on_c, 1, 57, 0
4, 24276, Note_on_c, 1, 56, 79
4, 24288, Note_on_c, 1, 56, 0
4, 24288, Note_on_c, 1, 57, 79
4, 24303, Note_on_c, 1, 57, 0
4, 24324, Note_on_c, 1, 57, 80
4, 24336, Note_on_c, 1, 57, 0
4, 24336, Note_on_c, 1, 60, 81
4, 24370, Note_on_c, 1, 60, 0
4, 24372, Note_on_c, 1, 64, 82
4, 24384, Note_on_c, 1, 64, 0
4, 24384, Note_on_c, 1, 69, 82
4, 24480, Note_on_c, 1, 69, 0
4, 24480, Note_on_c, 1, 63, 85
4, 24569, Note_on_c, 1, 63, 0
4, 24576, Note_on_c, 1, 52, 78
4, 24610, Note_on_c, 1, 52, 0
4, 24612, Note_on_c, 1, 64, 78
4, 24624, Note_on_c, 1, 64, 0
4, 24624, Note_on_c, 1, 63, 78
4, 24658, Note_on_c, 1, 63, 0
4, 24660, Note_on_c, 1, 64, 79
4, 24672, Note_on_c, 1, 64, 0
4, 24672, Note_on_c, 1, 62, 79
4, 24706, Note_on_c, 1, 62, 0
4, 24708, Note_on_c, 1, 64, 80
4, 24720, Note_on_c, 1, 64, 0
4, 24720, Note_on_c, 1, 59, 80
4, 24754, Note_on_c, 1, 59, 0
4, 24756, Note_on_c, 1, 64, 81
4, 24768, Note_on_c, 1, 64, 0
4, 24768, Note_on_c, 1, 60, 81
4, 24802, Note_on_c, 1, 60, 0
4, 24804, Note_on_c, 1, 64, 82
4, 24816, Note_on_c, 1, 64, 0
4, 24816, Note_on_c, 1, 56, 82
4, 24850, Note_on_c, 1, 56, 0
4, 24852, Note_on_c, 1, 64, 83
4, 24864, Note_on_c, 1, 64, 0
4, 24864, Note_on_c, 1, 57, 83
4, 24898, Note_on_c, 1, 57, 0
4, 24900, Note_on_c, 1, 64, 83
4, 24912, Note_on_c, 1, 64, 0
4, 24912, Note_on_c, 1, 54, 84
4, 24946, Note_on_c, 1, 54, 0
4, 24948, Note_on_c, 1, 64, 84
4, 24960, Note_on_c, 1, 64, 0
4, 24960, Note_on_c, 1, 52, 85
4, 24994, Note_on_c, 1, 52, 0
4, 24996, Note_on_c, 1, 64, 82
4, 25008, Note_on_c, 1, 64, 0
4, 25008, Note_on_c, 1, 63, 81
4, 25042, Note_on_c, 1, 63, 0
4, 25044, Note_on_c, 1, 64, 78
4, 25056, Note_on_c, 1, 64, 0
4, 25056, Note_on_c, 1, 62, 78
4, 25090, Note_on_c, 1, 62, 0
4, 25092, Note_on_c, 1, 64, 79
4, 25104, Note_on_c, 1, 64, 0
4, 25104, Note_on_c, 1, 59, 79
4, 25138, Note_on_c, 1, 59, 0
4, 25140, Note_on_c, 1, 64, 81
4, 25152, Note_on_c, 1, 64, 0
4, 25152, Note_on_c, 1, 60, 81
4, 25186, Note_on_c, 1, 60, 0
4, 25188, Note_on_c, 1, 64, 82
4, 25200, Note_on_c, 1, 64, 0
4, 25200, Note_on_c, 1, 56, 83
4, 25234, Note_on_c, 1, 56, 0
4, 25236, Note_on_c, 1, 64, 84
4, 25248, Note_on_c, 1, 64, 0
4, 25248, Note_on_c, 1, 57, 85
4, 25293, Note_on_c, 1, 57, 0
4, 25296, Note_on_c, 1, 67, 85
4, 25341, Note_on_c, 1, 67, 0
4, 25344, Note_on_c, 1, 65, 85
4, 25389, Note_on_c, 1, 65, 0
4, 25392, Note_on_c, 1, 61, 85
4, 25437, Note_on_c, 1, 61, 0
4, 25440, Note_on_c, 1, 62, 85
4, 25485, Note_on_c, 1, 62, 0
4, 25488, Note_on_c, 1, 64, 85
4, 25533, Note_on_c, 1, 64, 0
4, 25536, Note_on_c, 1, 65, 85
4, 25581, Note_on_c, 1, 65, 0
4, 25584, Note_on_c, 1, 64, 85
4, 25629, Note_on_c, 1, 64, 0
4, 25632, Note_on_c, 1, 62, 85
4, 25677, Note_on_c, 1, 62, 0
4, 25680, Note_on_c, 1, 60, 85
4, 25725, Note_on_c, 1, 60, 0
4, 25728, Note_on_c, 1, 59, 85
4, 25773, Note_on_c, 1, 59, 0
4, 25776, Note_on_c, 1, 57, 85
4, 25821, Note_on_c, 1, 57, 0
4, 25824, Note_on_c, 1, 56, 85
4, 25913, Note_on_c, 1, 56, 0
4, 25920, Note_on_c, 1, 57, 85
4, 26009, Note_on_c, 1, 57, 0
4, 26112, Note_on_c, 1, 69, 78
4, 26201, Note_on_c, 1, 69, 0
4, 26244, Note_on_c, 1, 64, 78
4, 26256, Note_on_c, 1, 64, 0
4, 26256, Note_on_c, 1, 66, 78
4, 26290, Note_on_c, 1, 66, 0
4, 26292, Note_on_c, 1, 68, 78
4, 26304, Note_on_c, 1, 68, 0
4, 26304, Control_c, 1, 64, 127
4, 26304, Note_on_c, 1, 69, 78
4, 26349, Note_on_c, 1, 69, 0
4, 26400, Control_c, 1, 64, 0
4, 26400, Control_c, 1, 64, 127
4, 26400, Note_on_c, 1, 65, 78
4, 26445, Note_on_c, 1, 65, 0
4, 26496, Control_c, 1, 64, 0
4, 26496, Control_c, 1, 64, 127
4, 26496, Note_on_c, 1, 64, 78
4, 26541, Note_on_c, 1, 64, 0
4, 26592, Control_c, 1, 64, 0
4, 26592, Note_on_c, 1, 63, 78
4, 26612, Note_on_c, 1, 63, 0
4, 26640, Note_on_c, 1, 75, 78
4, 26660, Note_on_c, 1, 75, 0
4, 26688, Control_c, 1, 64, 127
4, 26688, Note_on_c, 1, 62, 78
4, 26777, Note_on_c, 1, 62, 0
4, 26784, Control_c, 1, 64, 0
4, 26784, Control_c, 1, 64, 127
4, 26784, Note_on_c, 1, 68, 78
4, 26804, Note_on_c, 1, 68, 0
4, 26832, Note_on_c, 1, 62, 78
4, 26852, Note_on_c, 1, 62, 0
4, 26880, Control_c, 1, 64, 0
4, 26880, Note_on_c, 1, 60, 78
4, 26900, Note_on_c, 1, 60, 0
4, 26928, Note_on_c, 1, 61, 78
4, 26948, Note_on_c, 1, 61, 0
4, 26976, Note_on_c, 1, 62, 78
4, 26996, Note_on_c, 1, 62, 0
4, 27024, Note_on_c, 1, 64, 78
4, 27044, Note_on_c, 1, 64, 0
4, 27072, Note_on_c, 1, 65, 78
4, 27092, Note_on_c, 1, 65, 0
4, 27120, Note_on_c, 1, 69, 78
4, 27140, Note_on_c, 1, 69, 0
4, 27168, Note_on_c, 1, 65, 78
4, 27188, Note_on_c, 1, 65, 0
4, 27216, Note_on_c, 1, 64, 78
4, 27236, Note_on_c, 1, 64, 0
4, 27264, Note_on_c, 1, 62, 78
4, 27279, Note_on_c, 1, 62, 0
4, 27280, Note_on_c, 1, 50, 78
4, 27295, Note_on_c, 1, 50, 0
4, 27296, Note_on_c, 1, 53, 78
4, 27311, Note_on_c, 1, 53, 0
4, 27312, Note_on_c, 1, 58, 78
4, 27357, Note_on_c, 1, 58, 0
4, 27588, Control_c, 1, 64, 127
4, 27588, Note_on_c, 1, 60, 94
4, 27588, Note_on_c, 1, 57, 94
4, 27588, Note_on_c, 1, 54, 94
4, 27588, Note_on_c, 1, 51, 94
4, 27600, Note_on_c, 1, 60, 0
4, 27600, Note_on_c, 1, 57, 0
4, 27600, Note_on_c, 1, 54, 0
4, 27600, Note_on_c, 1, 51, 0
4, 27600, Note_on_c, 1, 60, 94
4, 27600, Note_on_c, 1, 57, 94
4, 27600, Note_on_c, 1, 54, 94
4, 27600, Note_on_c, 1, 51, 94
4, 27634, Note_on_c, 1, 60, 0
4, 27634, Note_on_c, 1, 57, 0
4, 27634, Note_on_c, 1, 54, 0
4, 27634, Note_on_c, 1, 51, 0
4, 27636, Note_on_c, 1, 60, 94
4, 27636, Note_on_c, 1, 57, 94
4, 27636, Note_on_c, 1, 54, 94
4, 27636, Note_on_c, 1, 51, 94
4, 27648, Note_on_c, 1, 60, 0
4, 27648, Note_on_c, 1, 57, 0
4, 27648, Note_on_c, 1, 54, 0
4, 27648, Note_on_c, 1, 51, 0
4, 27648, Control_c, 1, 64, 0
4, 27648, Note_on_c, 1, 60, 94
4, 27648, Note_on_c, 1, 57, 94
4, 27648, Note_on_c, 1, 52, 94
4, 27737, Note_on_c, 1, 60, 0
4, 27737, Note_on_c, 1, 57, 0
4, 27737, Note_on_c, 1, 52, 0
4, 27792, Note_on_c, 1, 40, 76
4, 27837, Note_on_c, 1, 40, 0
4, 27840, Note_on_c, 1, 33, 70
4, 27981, Note_on_c, 1, 33, 0
4, 28080, Note_on_c, 1, 64, 78
4, 28125, Note_on_c, 1, 64, 0
4, 28128, Note_on_c, 1, 66, 78
4, 28173, Note_on_c, 1, 66, 0
4, 28176, Note_on_c, 1, 68, 78
4, 28221, Note_on_c, 1, 68, 0
4, 28224, Note_on_c, 1, 69, 78
4, 28313, Note_on_c, 1, 69, 0
4, 28464, Note_on_c, 1, 64, 78
4, 28509, Note_on_c, 1, 64, 0
4, 28512, Note_on_c, 1, 66, 78
4, 28557, Note_on_c, 1, 66, 0
4, 28560, Note_on_c, 1, 68, 78
4, 28605, Note_on_c, 1, 68, 0
4, 28608, Note_on_c, 1, 69, 78
4, 28653, Note_on_c, 1, 69, 0
4, 28656, Note_on_c, 1, 62, 78
4, 28701, Note_on_c, 1, 62, 0
4, 28704, Note_on_c, 1, 64, 78
4, 28749, Note_on_c, 1, 64, 0
4, 28752, Note_on_c, 1, 66, 78
4, 28797, Note_on_c, 1, 66, 0
4, 28800, Note_on_c, 1, 67, 78
4, 28845, Note_on_c, 1, 67, 0
4, 28848, Note_on_c, 1, 60, 78
4, 28893, Note_on_c, 1, 60, 0
4, 28896, Note_on_c, 1, 62, 78
4, 28941, Note_on_c, 1, 62, 0
4, 28944, Note_on_c, 1, 64, 78
4, 28989, Note_on_c, 1, 64, 0
4, 28992, Note_on_c, 1, 65, 78
4, 29125, Note_on_c, 1, 65, 0
4, 29136, Note_on_c, 1, 66, 78
4, 29181, Note_on_c, 1, 66, 0
4, 29184, Note_on_c, 1, 67, 78
4, 29229, Note_on_c, 1, 67, 0
4, 29232, Note_on_c, 1, 62, 78
4, 29277, Note_on_c, 1, 62, 0
4, 29280, Note_on_c, 1, 55, 78
4, 29325, Note_on_c, 1, 55, 0
4, 29424, Note_on_c, 1, 48, 78
4, 29469, Note_on_c, 1, 48, 0
4, 29472, Note_on_c, 1, 60, 78
4, 29517, Note_on_c, 1, 60, 0
4, 29520, Note_on_c, 1, 64, 78
4, 29565, Note_on_c, 1, 64, 0
4, 29568, Note_on_c, 1, 62, 78
4, 29613, Note_on_c, 1, 62, 0
4, 29616, Note_on_c, 1, 50, 78
4, 29661, Note_on_c, 1, 50, 0
4, 29664, Note_on_c, 1, 62, 78
4, 29709, Note_on_c, 1, 62, 0
4, 29712, Note_on_c, 1, 65, 78
4, 29757, Note_on_c, 1, 65, 0
4, 29760, Note_on_c, 1, 67, 78
4, 29805, Note_on_c, 1, 67, 0
4, 29808, Note_on_c, 1, 55, 78
4, 29853, Note_on_c, 1, 55, 0
4, 29904, Note_on_c, 1, 59, 78
4, 29949, Note_on_c, 1, 59, 0
4, 29952, Note_on_c, 1, 60, 78
4, 29997, Note_on_c, 1, 60, 0
4, 30000, Note_on_c, 1, 48, 78
4, 30045, Note_on_c, 1, 48, 0
4, 30096, Note_on_c, 1, 52, 78
4, 30141, Note_on_c, 1, 52, 0
4, 30144, Note_on_c, 1, 53, 78
4, 30189, Note_on_c, 1, 53, 0
4, 30192, Note_on_c, 1, 41, 78
4, 30237, Note_on_c, 1, 41, 0
4, 30288, Note_on_c, 1, 65, 78
4, 30288, Note_on_c, 1, 55, 78
4, 30333, Note_on_c, 1, 65, 0
4, 30333, Note_on_c, 1, 55, 0
4, 30372, Note_on_c, 1, 48, 78
4, 30384, Note_on_c, 1, 48, 0
4, 30384, Note_on_c, 1, 52, 78
4, 30418, Note_on_c, 1, 52, 0
4, 30420, Note_on_c, 1, 55, 78
4, 30432, Note_on_c, 1, 55, 0
4, 30432, Note_on_c, 1, 60, 78
4, 30452, Note_on_c, 1, 60, 0
4, 30564, Note_on_c, 1, 36, 78
4, 30576, Note_on_c, 1, 36, 0
4, 30576, Note_on_c, 1, 40, 78
4, 30610, Note_on_c, 1, 40, 0
4, 30612, Note_on_c, 1, 43, 78
4, 30624, Note_on_c, 1, 43, 0
4, 30624, Note_on_c, 1, 48, 78
4, 30669, Note_on_c, 1, 48, 0
4, 30672, Note_on_c, 1, 52, 78
4, 30717, Note_on_c, 1, 52, 0
4, 30756, Note_on_c, 1, 50, 78
4, 30768, Note_on_c, 1, 50, 0
4, 30768, Note_on_c, 1, 53, 78
4, 30802, Note_on_c, 1, 53, 0
4, 30804, Note_on_c, 1, 57, 78
4, 30816, Note_on_c, 1, 57, 0
4, 30816, Note_on_c, 1, 62, 78
4, 30850, Note_on_c, 1, 62, 0
4, 30852, Note_on_c, 1, 60, 78
4, 30864, Note_on_c, 1, 60, 0
4, 30864, Note_on_c, 1, 59, 78
4, 30870, Note_on_c, 1, 59, 0
4, 30870, Note_on_c, 1, 60, 78
4, 30876, Note_on_c, 1, 60, 0
4, 30876, Note_on_c, 1, 59, 78
4, 30898, Note_on_c, 1, 59, 0
4, 30900, Note_on_c, 1, 57, 78
4, 30912, Note_on_c, 1, 57, 0
4, 30912, Note_on_c, 1, 55, 78
4, 30946, Note_on_c, 1, 55, 0
4, 30948, Note_on_c, 1, 43, 78
4, 30960, Note_on_c, 1, 43, 0
4, 30960, Note_on_c, 1, 47, 78
4, 30994, Note_on_c, 1, 47, 0
4, 30996, Note_on_c, 1, 50, 78
4, 31008, Note_on_c, 1, 50, 0
4, 31008, Note_on_c, 1, 55, 78
4, 31028, Note_on_c, 1, 55, 0
4, 31056, Note_on_c, 1, 47, 78
4, 31101, Note_on_c, 1, 47, 0
4, 31140, Note_on_c, 1, 36, 78
4, 31152, Note_on_c, 1, 36, 0
4, 31152, Note_on_c, 1, 48, 78
4, 31186, Note_on_c, 1, 48, 0
4, 31188, Note_on_c, 1, 47, 80
4, 31200, Note_on_c, 1, 47, 0
4, 31200, Note_on_c, 1, 48, 80
4, 31215, Note_on_c, 1, 48, 0
4, 31236, Note_on_c, 1, 48, 82
4, 31248, Note_on_c, 1, 48, 0
4, 31248, Note_on_c, 1, 52, 82
4, 31282, Note_on_c, 1, 52, 0
4, 31284, Note_on_c, 1, 55, 84
4, 31296, Note_on_c, 1, 55, 0
4, 31296, Note_on_c, 1, 58, 85
4, 31473, Note_on_c, 1, 58, 0
4, 31524, Note_on_c, 1, 36, 78
4, 31536, Note_on_c, 1, 36, 0
4, 31536, Note_on_c, 1, 48, 78
4, 31570, Note_on_c, 1, 48, 0
4, 31572, Note_on_c, 1, 47, 80
4, 31584, Note_on_c, 1, 47, 0
4, 31584, Note_on_c, 1, 48, 80
4, 31599, Note_on_c, 1, 48, 0
4, 31620, Note_on_c, 1, 48, 82
4, 31632, Note_on_c, 1, 48, 0
4, 31632, Note_on_c, 1, 53, 82
4, 31666, Note_on_c, 1, 53, 0
4, 31668, Note_on_c, 1, 57, 84
4, 31680, Note_on_c, 1, 57, 0
4, 31680, Note_on_c, 1, 60, 85
4, 31857, Note_on_c, 1, 60, 0
4, 31908, Note_on_c, 1, 36, 78
4, 31920, Note_on_c, 1, 36, 0
4, 31920, Note_on_c, 1, 48, 78
4, 31954, Note_on_c, 1, 48, 0
4, 31956, Note_on_c, 1, 47, 80
4, 31968, Note_on_c, 1, 47, 0
4, 31968, Note_on_c, 1, 48, 80
4, 31983, Note_on_c, 1, 48, 0
4, 32004, Note_on_c, 1, 48, 82
4, 32016, Note_on_c, 1, 48, 0
4, 32016, Note_on_c, 1, 52, 82
4, 32050, Note_on_c, 1, 52, 0
4, 32052, Note_on_c, 1, 55, 84
4, 32064, Note_on_c, 1, 55, 0
4, 32064, Note_on_c, 1, 60, 85
4, 32153, Note_on_c, 1, 60, 0
4, 32208, Note_on_c, 1, 60, 85
4, 32253, Note_on_c, 1, 60, 0
4, 32256, Note_on_c, 1, 62, 85
4, 32301, Note_on_c, 1, 62, 0
4, 32304, Note_on_c, 1, 59, 85
4, 32349, Note_on_c, 1, 59, 0
4, 32352, Note_on_c, 1, 60, 85
4, 32397, Note_on_c, 1, 60, 0
4, 32436, Note_on_c, 1, 49, 85
4, 32448, Note_on_c, 1, 49, 0
4, 32448, Note_on_c, 1, 50, 85
4, 32463, Note_on_c, 1, 50, 0
4, 32484, Note_on_c, 1, 52, 85
4, 32496, Note_on_c, 1, 52, 0
4, 32496, Note_on_c, 1, 53, 85
4, 32511, Note_on_c, 1, 53, 0
4, 32532, Note_on_c, 1, 54, 85
4, 32544, Note_on_c, 1, 54, 0
4, 32544, Note_on_c, 1, 55, 85
4, 32559, Note_on_c, 1, 55, 0
4, 32580, Note_on_c, 1, 56, 85
4, 32592, Note_on_c, 1, 56, 0
4, 32592, Note_on_c, 1, 57, 85
4, 32607, Note_on_c, 1, 57, 0
4, 32628, Note_on_c, 1, 53, 85
4, 32640, Note_on_c, 1, 53, 0
4, 32640, Note_on_c, 1, 55, 85
4, 32729, Note_on_c, 1, 55, 0
4, 32736, Note_on_c, 1, 43, 85
4, 32781, Note_on_c, 1, 43, 0
4, 32880, Note_on_c, 1, 52, 78
4, 32880, Note_on_c, 1, 48, 78
4, 32925, Note_on_c, 1, 52, 0
4, 32925, Note_on_c, 1, 48, 0
4, 32928, Note_on_c, 1, 64, 78
4, 32928, Note_on_c, 1, 60, 78
4, 32973, Note_on_c, 1, 64, 0
4, 32973, Note_on_c, 1, 60, 0
4, 33072, Note_on_c, 1, 53, 78
4, 33072, Note_on_c, 1, 50, 78
4, 33117, Note_on_c, 1, 53, 0
4, 33117, Note_on_c, 1, 50, 0
4, 33120, Note_on_c, 1, 65, 78
4, 33120, Note_on_c, 1, 62, 78
4, 33165, Note_on_c, 1, 65, 0
4, 33165, Note_on_c, 1, 62, 0
4, 33264, Note_on_c, 1, 47, 78
4, 33264, Note_on_c, 1, 43, 78
4, 33309, Note_on_c, 1, 47, 0
4, 33309, Note_on_c, 1, 43, 0
4, 33312, Note_on_c, 1, 59, 78
4, 33312, Note_on_c, 1, 55, 78
4, 33357, Note_on_c, 1, 59, 0
4, 33357, Note_on_c, 1, 55, 0
4, 33456, Note_on_c, 1, 52, 78
4, 33456, Note_on_c, 1, 48, 78
4, 33501, Note_on_c, 1, 52, 0
4, 33501, Note_on_c, 1, 48, 0
4, 33504, Note_on_c, 1, 64, 78
4, 33504, Note_on_c, 1, 60, 78
4, 33549, Note_on_c, 1, 64, 0
4, 33549, Note_on_c, 1, 60, 0
4, 33648, Note_on_c, 1, 52, 78
4, 33682, Note_on_c, 1, 52, 0
4, 33684, Note_on_c, 1, 55, 78
4, 33696, Note_on_c, 1, 55, 0
4, 33696, Note_on_c, 1, 60, 78
4, 33741, Note_on_c, 1, 60, 0
4, 33744, Note_on_c, 1, 64, 78
4, 33789, Note_on_c, 1, 64, 0
4, 33792, Note_on_c, 1, 65, 78
4, 33826, Note_on_c, 1, 65, 0
4, 33828, Note_on_c, 1, 53, 78
4, 33840, Note_on_c, 1, 53, 0
4, 33840, Note_on_c, 1, 57, 78
4, 33874, Note_on_c, 1, 57, 0
4, 33876, Note_on_c, 1, 61, 78
4, 33888, Note_on_c, 1, 61, 0
4, 33888, Note_on_c, 1, 62, 78
4, 34018, Note_on_c, 1, 62, 0
4, 34020, Note_on_c, 1, 55, 78
4, 34032, Note_on_c, 1, 55, 0
4, 34032, Note_on_c, 1, 57, 78
4, 34066, Note_on_c, 1, 57, 0
4, 34068, Note_on_c, 1, 59, 78
4, 34080, Note_on_c, 1, 59, 0
4, 34080, Note_on_c, 1, 60, 78
4, 34221, Note_on_c, 1, 60, 0
4, 34224, Note_on_c, 1, 59, 78
4, 34269, Note_on_c, 1, 59, 0
4, 34272, Note_on_c, 1, 60, 78
4, 34317, Note_on_c, 1, 60, 0
4, 34320, Note_on_c, 1, 54, 78
4, 34365, Note_on_c, 1, 54, 0
4, 34368, Note_on_c, 1, 43, 78
4, 34402, Note_on_c, 1, 43, 0
4, 34404, Note_on_c, 1, 55, 78
4, 34416, Note_on_c, 1, 55, 0
4, 34416, Note_on_c, 1, 54, 78
4, 34450, Note_on_c, 1, 54, 0
4, 34452, Note_on_c, 1, 55, 79
4, 34464, Note_on_c, 1, 55, 0
4, 34464, Note_on_c, 1, 53, 79
4, 34498, Note_on_c, 1, 53, 0
4, 34500, Note_on_c, 1, 55, 80
4, 34512, Note_on_c, 1, 55, 0
4, 34512, Note_on_c, 1, 50, 80
4, 34546, Note_on_c, 1, 50, 0
4, 34548, Note_on_c, 1, 55, 81
4, 34560, Note_on_c, 1, 55, 0
4, 34560, Note_on_c, 1, 52, 81
4, 34594, Note_on_c, 1, 52, 0
4, 34596, Note_on_c, 1, 55, 82
4, 34608, Note_on_c, 1, 55, 0
4, 34608, Note_on_c, 1, 47, 82
4, 34642, Note_on_c, 1, 47, 0
4, 34644, Note_on_c, 1, 55, 83
4, 34656, Note_on_c, 1, 55, 0
4, 34656, Note_on_c, 1, 48, 83
4, 34690, Note_on_c, 1, 48, 0
4, 34692, Note_on_c, 1, 55, 84
4, 34704, Note_on_c, 1, 55, 0
4, 34704, Note_on_c, 1, 45, 84
4, 34738, Note_on_c, 1, 45, 0
4, 34740, Note_on_c, 1, 55, 85
4, 34752, Note_on_c, 1, 55, 0
4, 34752, Note_on_c, 1, 43, 85
4, 34786, Note_on_c, 1, 43, 0
4, 34788, Note_on_c, 1, 55, 82
4, 34800, Note_on_c, 1, 55, 0
4, 34800, Note_on_c, 1, 54, 81
4, 34834, Note_on_c, 1, 54, 0
4, 34836, Note_on_c, 1, 55, 78
4, 34848, Note_on_c, 1, 55, 0
4, 34848, Note_on_c, 1, 53, 78
4, 34882, Note_on_c, 1, 53, 0
4, 34884, Note_on_c, 1, 55, 78
4, 34896, Note_on_c, 1, 55, 0
4, 34896, Note_on_c, 1, 50, 78
4, 34930, Note_on_c, 1, 50, 0
4, 34932, Note_on_c, 1, 55, 79
4, 34944, Note_on_c, 1, 55, 0
4, 34944, Note_on_c, 1, 51, 79
4, 34978, Note_on_c, 1, 51, 0
4, 34980, Note_on_c, 1, 55, 80
4, 34992, Note_on_c, 1, 55, 0
4, 34992, Note_on_c, 1, 47, 80
4, 35026, Note_on_c, 1, 47, 0
4, 35028, Note_on_c, 1, 55, 81
4, 35040, Note_on_c, 1, 55, 0
4, 35040, Note_on_c, 1, 48, 82
4, 35074, Note_on_c, 1, 48, 0
4, 35076, Note_on_c, 1, 55, 83
4, 35088, Note_on_c, 1, 55, 0
4, 35088, Note_on_c, 1, 45, 83
4, 35122, Note_on_c, 1, 45, 0
4, 35124, Note_on_c, 1, 55, 84
4, 35136, Note_on_c, 1, 55, 0
4, 35136, Note_on_c, 1, 43, 85
4, 35181, Note_on_c, 1, 43, 0
4, 35184, Note_on_c, 1, 59, 85
4, 35229, Note_on_c, 1, 59, 0
4, 35232, Note_on_c, 1, 60, 85
4, 35277, Note_on_c, 1, 60, 0
4, 35280, Note_on_c, 1, 62, 85
4, 35325, Note_on_c, 1, 62, 0
4, 35328, Note_on_c, 1, 63, 85
4, 35373, Note_on_c, 1, 63, 0
4, 35376, Note_on_c, 1, 65, 83
4, 35421, Note_on_c, 1, 65, 0
4, 35424, Note_on_c, 1, 67, 81
4, 35469, Note_on_c, 1, 67, 0
4, 35472, Note_on_c, 1, 66, 79
4, 35517, Note_on_c, 1, 66, 0
4, 35520, Note_on_c, 1, 65, 78
4, 35567, Note_on_c, 1, 65, 0
4, 35568, Note_on_c, 1, 59, 78
4, 35613, Note_on_c, 1, 59, 0
4, 35616, Note_on_c, 1, 60, 78
4, 35661, Note_on_c, 1, 60, 0
4, 35664, Note_on_c, 1, 63, 78
4, 35709, Note_on_c, 1, 63, 0
4, 35712, Note_on_c, 1, 67, 78
4, 35757, Note_on_c, 1, 67, 0
4, 35760, Note_on_c, 1, 65, 78
4, 35805, Note_on_c, 1, 65, 0
4, 35808, Note_on_c, 1, 63, 78
4, 35853, Note_on_c, 1, 63, 0
4, 35856, Note_on_c, 1, 60, 78
4, 35901, Note_on_c, 1, 60, 0
4, 35904, Note_on_c, 1, 59, 78
4, 35949, Note_on_c, 1, 59, 0
4, 35952, Note_on_c, 1, 65, 78
4, 35997, Note_on_c, 1, 65, 0
4, 36000, Note_on_c, 1, 63, 78
4, 36045, Note_on_c, 1, 63, 0
4, 36048, Note_on_c, 1, 60, 78
4, 36093, Note_on_c, 1, 60, 0
4, 36096, Note_on_c, 1, 59, 78
4, 36141, Note_on_c, 1, 59, 0
4, 36144, Note_on_c, 1, 65, 78
4, 36189, Note_on_c, 1, 65, 0
4, 36192, Note_on_c, 1, 63, 78
4, 36237, Note_on_c, 1, 63, 0
4, 36240, Note_on_c, 1, 60, 78
4, 36322, Note_on_c, 1, 60, 0
4, 36324, Note_on_c, 1, 57, 78
4, 36336, Note_on_c, 1, 57, 0
4, 36336, Note_on_c, 1, 59, 78
4, 36370, Note_on_c, 1, 59, 0
4, 36372, Note_on_c, 1, 60, 78
4, 36384, Note_on_c, 1, 60, 0
4, 36384, Note_on_c, 1, 62, 78
4, 36514, Note_on_c, 1, 62, 0
4, 36516, Note_on_c, 1, 59, 78
4, 36528, Note_on_c, 1, 59, 0
4, 36528, Note_on_c, 1, 60, 78
4, 36562, Note_on_c, 1, 60, 0
4, 36564, Note_on_c, 1, 62, 78
4, 36576, Note_on_c, 1, 62, 0
4, 36576, Note_on_c, 1, 64, 78
4, 36706, Note_on_c, 1, 64, 0
4, 36708, Note_on_c, 1, 60, 78
4, 36720, Note_on_c, 1, 60, 0
4, 36720, Note_on_c, 1, 62, 78
4, 36754, Note_on_c, 1, 62, 0
4, 36756, Note_on_c, 1, 64, 78
4, 36768, Note_on_c, 1, 64, 0
4, 36768, Note_on_c, 1, 65, 78
4, 36813, Note_on_c, 1, 65, 0
4, 36976, Note_on_c, 1, 62, 78
4, 36991, Note_on_c, 1, 62, 0
4, 36992, Note_on_c, 1, 59, 78
4, 37007, Note_on_c, 1, 59, 0
4, 37008, Note_on_c, 1, 55, 78
4, 37023, Note_on_c, 1, 55, 0
4, 37024, Note_on_c, 1, 59, 78
4, 37039, Note_on_c, 1, 59, 0
4, 37040, Note_on_c, 1, 62, 78
4, 37055, Note_on_c, 1, 62, 0
4, 37056, Note_on_c, 1, 65, 78
4, 37076, Note_on_c, 1, 65, 0
4, 37488, Note_on_c, 1, 43, 78
4, 37533, Note_on_c, 1, 43, 0
4, 37536, Note_on_c, 1, 45, 78
4, 37581, Note_on_c, 1, 45, 0
4, 37584, Note_on_c, 1, 47, 78
4, 37629, Note_on_c, 1, 47, 0
4, 37632, Note_on_c, 1, 48, 78
4, 37721, Note_on_c, 1, 48, 0
4, 37872, Note_on_c, 1, 43, 78
4, 37917, Note_on_c, 1, 43, 0
4, 37920, Note_on_c, 1, 45, 78
4, 37965, Note_on_c, 1, 45, 0
4, 37968, Note_on_c, 1, 47, 78
4, 38013, Note_on_c, 1, 47, 0
4, 38016, Note_on_c, 1, 48, 78
4, 38105, Note_on_c, 1, 48, 0
4, 38160, Note_on_c, 1, 52, 78
4, 38205, Note_on_c, 1, 52, 0
4, 38208, Note_on_c, 1, 53, 78
4, 38297, Note_on_c, 1, 53, 0
4, 38304, Note_on_c, 1, 52, 78
4, 38349, Note_on_c, 1, 52, 0
4, 38352, Note_on_c, 1, 53, 74
4, 38352, Note_on_c, 1, 50, 74
4, 38397, Note_on_c, 1, 53, 0
4, 38397, Note_on_c, 1, 50, 0
4, 38400, Note_on_c, 1, 53, 70
4, 38496, Note_on_c, 1, 53, 0
4, 38496, Note_on_c, 1, 52, 62
4, 38543, Note_on_c, 1, 52, 0
4, 38640, Note_on_c, 1, 55, 78
4, 38685, Note_on_c, 1, 55, 0
4, 38688, Note_on_c, 1, 57, 78
4, 38733, Note_on_c, 1, 57, 0
4, 38736, Note_on_c, 1, 59, 78
4, 38781, Note_on_c, 1, 59, 0
4, 38784, Note_on_c, 1, 60, 78
4, 38873, Note_on_c, 1, 60, 0
4, 39024, Note_on_c, 1, 67, 78
4, 39069, Note_on_c, 1, 67, 0
4, 39072, Note_on_c, 1, 69, 78
4, 39117, Note_on_c, 1, 69, 0
4, 39120, Note_on_c, 1, 71, 78
4, 39165, Note_on_c, 1, 71, 0
4, 39168, Note_on_c, 1, 72, 78
4, 39257, Note_on_c, 1, 72, 0
4, 39408, Note_on_c, 1, 52, 78
4, 39453, Note_on_c, 1, 52, 0
4, 39456, Note_on_c, 1, 53, 78
4, 39501, Note_on_c, 1, 53, 0
4, 39504, Note_on_c, 1, 55, 78
4, 39549, Note_on_c, 1, 55, 0
4, 39552, Note_on_c, 1, 48, 78
4, 39567, Note_on_c, 1, 48, 0
4, 39568, Note_on_c, 1, 52, 78
4, 39583, Note_on_c, 1, 52, 0
4, 39584, Note_on_c, 1, 55, 78
4, 39599, Note_on_c, 1, 55, 0
4, 39600, Note_on_c, 1, 60, 78
4, 39615, Note_on_c, 1, 60, 0
4, 39616, Note_on_c, 1, 64, 78
4, 39631, Note_on_c, 1, 64, 0
4, 39632, Note_on_c, 1, 60, 78
4, 39647, Note_on_c, 1, 60, 0
4, 39648, Note_on_c, 1, 48, 78
4, 39693, Note_on_c, 1, 48, 0
4, 39792, Note_on_c, 1, 43, 78
4, 39837, Note_on_c, 1, 43, 0
4, 39840, Note_on_c, 1, 55, 78
4, 39885, Note_on_c, 1, 55, 0
4, 39888, Note_on_c, 1, 59, 78
4, 39933, Note_on_c, 1, 59, 0
4, 39936, Note_on_c, 1, 57, 78
4, 39981, Note_on_c, 1, 57, 0
4, 39984, Note_on_c, 1, 45, 78
4, 40029, Note_on_c, 1, 45, 0
4, 40032, Note_on_c, 1, 57, 78
4, 40077, Note_on_c, 1, 57, 0
4, 40080, Note_on_c, 1, 60, 78
4, 40125, Note_on_c, 1, 60, 0
4, 40128, Note_on_c, 1, 62, 78
4, 40173, Note_on_c, 1, 62, 0
4, 40176, Note_on_c, 1, 50, 78
4, 40221, Note_on_c, 1, 50, 0
4, 40272, Note_on_c, 1, 54, 78
4, 40317, Note_on_c, 1, 54, 0
4, 40320, Note_on_c, 1, 55, 78
4, 40365, Note_on_c, 1, 55, 0
4, 40368, Note_on_c, 1, 43, 78
4, 40413, Note_on_c, 1, 43, 0
4, 40464, Note_on_c, 1, 59, 78
4, 40509, Note_on_c, 1, 59, 0
4, 40512, Note_on_c, 1, 60, 78
4, 40557, Note_on_c, 1, 60, 0
4, 40560, Note_on_c, 1, 48, 78
4, 40605, Note_on_c, 1, 48, 0
4, 40656, Note_on_c, 1, 60, 78
4, 40656, Note_on_c, 1, 50, 78
4, 40701, Note_on_c, 1, 60, 0
4, 40701, Note_on_c, 1, 50, 0
4, 40740, Note_on_c, 1, 43, 78
4, 40752, Note_on_c, 1, 43, 0
4, 40752, Note_on_c, 1, 55, 78
4, 40786, Note_on_c, 1, 55, 0
4, 40788, Note_on_c, 1, 54, 78
4, 40800, Note_on_c, 1, 54, 0
4, 40800, Note_on_c, 1, 55, 79
4, 40815, Note_on_c, 1, 55, 0
4, 40836, Note_on_c, 1, 55, 79
4, 40848, Note_on_c, 1, 55, 0
4, 40848, Note_on_c, 1, 59, 80
4, 40882, Note_on_c, 1, 59, 0
4, 40884, Note_on_c, 1, 62, 80
4, 40896, Note_on_c, 1, 62, 0
4, 40896, Note_on_c, 1, 67, 81
4, 41073, Note_on_c, 1, 67, 0
4, 41124, Note_on_c, 1, 43, 78
4, 41136, Note_on_c, 1, 43, 0
4, 41136, Note_on_c, 1, 55, 78
4, 41170, Note_on_c, 1, 55, 0
4, 41172, Note_on_c, 1, 54, 80
4, 41184, Note_on_c, 1, 54, 0
4, 41184, Note_on_c, 1, 55, 80
4, 41199, Note_on_c, 1, 55, 0
4, 41220, Note_on_c, 1, 55, 82
4, 41232, Note_on_c, 1, 55, 0
4, 41232, Note_on_c, 1, 60, 82
4, 41266, Note_on_c, 1, 60, 0
4, 41268, Note_on_c, 1, 64, 84
4, 41280, Note_on_c, 1, 64, 0
4, 41280, Note_on_c, 1, 67, 85
4, 41457, Note_on_c, 1, 67, 0
4, 41508, Note_on_c, 1, 43, 78
4, 41520, Note_on_c, 1, 43, 0
4, 41520, Note_on_c, 1, 55, 78
4, 41554, Note_on_c, 1, 55, 0
4, 41556, Note_on_c, 1, 54, 78
4, 41568, Note_on_c, 1, 54, 0
4, 41568, Note_on_c, 1, 55, 79
4, 41583, Note_on_c, 1, 55, 0
4, 41604, Note_on_c, 1, 55, 79
4, 41616, Note_on_c, 1, 55, 0
4, 41616, Note_on_c, 1, 59, 80
4, 41650, Note_on_c, 1, 59, 0
4, 41652, Note_on_c, 1, 62, 80
4, 41664, Note_on_c, 1, 62, 0
4, 41664, Note_on_c, 1, 67, 81
4, 41760, Note_on_c, 1, 67, 0
4, 41760, Note_on_c, 1, 68, 83
4, 41849, Note_on_c, 1, 68, 0
4, 41892, Note_on_c, 1, 45, 78
4, 41904, Note_on_c, 1, 45, 0
4, 41904, Note_on_c, 1, 57, 78
4, 41938, Note_on_c, 1, 57, 0
4, 41940, Note_on_c, 1, 56, 79
4, 41952, Note_on_c, 1, 56, 0
4, 41952, Note_on_c, 1, 57, 79
4, 41967, Note_on_c, 1, 57, 0
4, 41988, Note_on_c, 1, 57, 80
4, 42000, Note_on_c, 1, 57, 0
4, 42000, Note_on_c, 1, 60, 81
4, 42034, Note_on_c, 1, 60, 0
4, 42036, Note_on_c, 1, 64, 82
4, 42048, Note_on_c, 1, 64, 0
4, 42048, Note_on_c, 1, 69, 82
4, 42144, Note_on_c, 1, 69, 0
4, 42144, Note_on_c, 1, 63, 85
4, 42233, Note_on_c, 1, 63, 0
4, 42240, Note_on_c, 1, 52, 78
4, 42274, Note_on_c, 1, 52, 0
4, 42276, Note_on_c, 1, 64, 78
4, 42288, Note_on_c, 1, 64, 0
4, 42288, Note_on_c, 1, 63, 78
4, 42322, Note_on_c, 1, 63, 0
4, 42324, Note_on_c, 1, 64, 79
4, 42336, Note_on_c, 1, 64, 0
4, 42336, Note_on_c, 1, 62, 79
4, 42370, Note_on_c, 1, 62, 0
4, 42372, Note_on_c, 1, 64, 80
4, 42384, Note_on_c, 1, 64, 0
4, 42384, Note_on_c, 1, 59, 80
4, 42418, Note_on_c, 1, 59, 0
4, 42420, Note_on_c, 1, 64, 81
4, 42432, Note_on_c, 1, 64, 0
4, 42432, Note_on_c, 1, 60, 81
4, 42466, Note_on_c, 1, 60, 0
4, 42468, Note_on_c, 1, 64, 82
4, 42480, Note_on_c, 1, 64, 0
4, 42480, Note_on_c, 1, 56, 82
4, 42514, Note_on_c, 1, 56, 0
4, 42516, Note_on_c, 1, 64, 83
4, 42528, Note_on_c, 1, 64, 0
4, 42528, Note_on_c, 1, 57, 83
4, 42562, Note_on_c, 1, 57, 0
4, 42564, Note_on_c, 1, 64, 83
4, 42576, Note_on_c, 1, 64, 0
4, 42576, Note_on_c, 1, 54, 84
4, 42610, Note_on_c, 1, 54, 0
4, 42612, Note_on_c, 1, 64, 84
4, 42624, Note_on_c, 1, 64, 0
4, 42624, Note_on_c, 1, 52, 85
4, 42658, Note_on_c, 1, 52, 0
4, 42660, Note_on_c, 1, 64, 82
4, 42672, Note_on_c, 1, 64, 0
4, 42672, Note_on_c, 1, 63, 81
4, 42706, Note_on_c, 1, 63, 0
4, 42708, Note_on_c, 1, 64, 78
4, 42720, Note_on_c, 1, 64, 0
4, 42720, Note_on_c, 1, 62, 78
4, 42754, Note_on_c, 1, 62, 0
4, 42756, Note_on_c, 1, 64, 79
4, 42768, Note_on_c, 1, 64, 0
4, 42768, Note_on_c, 1, 59, 79
4, 42802, Note_on_c, 1, 59, 0
4, 42804, Note_on_c, 1, 64, 81
4, 42816, Note_on_c, 1, 64, 0
4, 42816, Note_on_c, 1, 60, 81
4, 42850, Note_on_c, 1, 60, 0
4, 42852, Note_on_c, 1, 64, 82
4, 42864, Note_on_c, 1, 64, 0
4, 42864, Note_on_c, 1, 56, 83
4, 42898, Note_on_c, 1, 56, 0
4, 42900, Note_on_c, 1, 64, 84
4, 42912, Note_on_c, 1, 64, 0
4, 42912, Note_on_c, 1, 57, 85
4, 42957, Note_on_c, 1, 57, 0
4, 42960, Note_on_c, 1, 67, 85
4, 43005, Note_on_c, 1, 67, 0
4, 43008, Note_on_c, 1, 65, 85
4, 43053, Note_on_c, 1, 65, 0
4, 43056, Note_on_c, 1, 61, 85
4, 43101, Note_on_c, 1, 61, 0
4, 43104, Note_on_c, 1, 62, 85
4, 43149, Note_on_c, 1, 62, 0
4, 43152, Note_on_c, 1, 64, 85
4, 43197, Note_on_c, 1, 64, 0
4, 43200, Note_on_c, 1, 65, 85
4, 43245, Note_on_c, 1, 65, 0
4, 43248, Note_on_c, 1, 64, 85
4, 43293, Note_on_c, 1, 64, 0
4, 43296, Note_on_c, 1, 62, 85
4, 43341, Note_on_c, 1, 62, 0
4, 43344, Note_on_c, 1, 60, 85
4, 43389, Note_on_c, 1, 60, 0
4, 43392, Note_on_c, 1, 59, 85
4, 43437, Note_on_c, 1, 59, 0
4, 43440, Note_on_c, 1, 57, 85
4, 43485, Note_on_c, 1, 57, 0
4, 43488, Note_on_c, 1, 56, 85
4, 43577, Note_on_c, 1, 56, 0
4, 43584, Note_on_c, 1, 57, 85
4, 43673, Note_on_c, 1, 57, 0
4, 43776, Note_on_c, 1, 69, 78
4, 43865, Note_on_c, 1, 69, 0
4, 43908, Note_on_c, 1, 64, 78
4, 43920, Note_on_c, 1, 64, 0
4, 43920, Note_on_c, 1, 66, 78
4, 43954, Note_on_c, 1, 66, 0
4, 43956, Note_on_c, 1, 68, 78
4, 43968, Note_on_c, 1, 68, 0
4, 43968, Control_c, 1, 64, 127
4, 43968, Note_on_c, 1, 69, 78
4, 44013, Note_on_c, 1, 69, 0
4, 44064, Control_c, 1, 64, 0
4, 44064, Control_c, 1, 64, 127
4, 44064, Note_on_c, 1, 65, 78
4, 44109, Note_on_c, 1, 65, 0
4, 44160, Control_c, 1, 64, 0
4, 44160, Control_c, 1, 64, 127
4, 44160, Note_on_c, 1, 64, 78
4, 44205, Note_on_c, 1, 64, 0
4, 44256, Control_c, 1, 64, 0
4, 44256, Note_on_c, 1, 63, 78
4, 44276, Note_on_c, 1, 63, 0
4, 44304, Note_on_c, 1, 75, 78
4, 44324, Note_on_c, 1, 75, 0
4, 44352, Control_c, 1, 64, 127
4, 44352, Note_on_c, 1, 62, 78
4, 44441, Note_on_c, 1, 62, 0
4, 44448, Control_c, 1, 64, 0
4, 44448, Control_c, 1, 64, 127
4, 44448, Note_on_c, 1, 68, 78
4, 44468, Note_on_c, 1, 68, 0
4, 44496, Note_on_c, 1, 62, 78
4, 44516, Note_on_c, 1, 62, 0
4, 44544, Control_c, 1, 64, 0
4, 44544, Note_on_c, 1, 60, 78
4, 44564, Note_on_c, 1, 60, 0
4, 44592, Note_on_c, 1, 61, 78
4, 44612, Note_on_c, 1, 61, 0
4, 44640, Note_on_c, 1, 62, 78
4, 44660, Note_on_c, 1, 62, 0
4, 44688, Note_on_c, 1, 64, 78
4, 44708, Note_on_c, 1, 64, 0
4, 44736, Note_on_c, 1, 65, 78
4, 44756, Note_on_c, 1, 65, 0
4, 44784, Note_on_c, 1, 69, 78
4, 44804, Note_on_c, 1, 69, 0
4, 44832, Note_on_c, 1, 65, 78
4, 44852, Note_on_c, 1, 65, 0
4, 44880, Note_on_c, 1, 64, 78
4, 44900, Note_on_c, 1, 64, 0
4, 44928, Note_on_c, 1, 62, 78
4, 44943, Note_on_c, 1, 62, 0
4, 44944, Note_on_c, 1, 50, 78
4, 44959, Note_on_c, 1, 50, 0
4, 44960, Note_on_c, 1, 53, 78
4, 44975, Note_on_c, 1, 53, 0
4, 44976, Note_on_c, 1, 58, 78
4, 45021, Note_on_c, 1, 58, 0
4, 45252, Control_c, 1, 64, 127
4, 45252, Note_on_c, 1, 60, 94
4, 45252, Note_on_c, 1, 57, 94
4, 45252, Note_on_c, 1, 54, 94
4, 45252, Note_on_c, 1, 51, 94
4, 45264, Note_on_c, 1, 60, 0
4, 45264, Note_on_c, 1, 57, 0
4, 45264, Note_on_c, 1, 54, 0
4, 45264, Note_on_c, 1, 51, 0
4, 45264, Note_on_c, 1, 60, 94
4, 45264, Note_on_c, 1, 57, 94
4, 45264, Note_on_c, 1, 54, 94
4, 45264, Note_on_c, 1, 51, 94
4, 45298, Note_on_c, 1, 60, 0
4, 45298, Note_on_c, 1, 57, 0
4, 45298, Note_on_c, 1, 54, 0
4, 45298, Note_on_c, 1, 51, 0
4, 45300, Note_on_c, 1, 60, 94
4, 45300, Note_on_c, 1, 57, 94
4, 45300, Note_on_c, 1, 54, 94
4, 45300, Note_on_c, 1, 51, 94
4, 45312, Note_on_c, 1, 60, 0
4, 45312, Note_on_c, 1, 57, 0
4, 45312, Note_on_c, 1, 54, 0
4, 45312, Note_on_c, 1, 51, 0
4, 45312, Control_c, 1, 64, 0
4, 45312, Note_on_c, 1, 60, 94
4, 45312, Note_on_c, 1, 57, 94
4, 45312, Note_on_c, 1, 52, 94
4, 45401, Note_on_c, 1, 60, 0
4, 45401, Note_on_c, 1, 57, 0
4, 45401, Note_on_c, 1, 52, 0
4, 45456, Note_on_c, 1, 40, 76
4, 45501, Note_on_c, 1, 40, 0
4, 45504, Note_on_c, 1, 33, 70
4, 45645, Note_on_c, 1, 33, 0
4, 45744, Note_on_c, 1, 64, 78
4, 45789, Note_on_c, 1, 64, 0
4, 45792, Note_on_c, 1, 66, 78
4, 45837, Note_on_c, 1, 66, 0
4, 45840, Note_on_c, 1, 68, 78
4, 45885, Note_on_c, 1, 68, 0
4, 45888, Note_on_c, 1, 69, 78
4, 45977, Note_on_c, 1, 69, 0
4, 46128, Note_on_c, 1, 64, 78
4, 46173, Note_on_c, 1, 64, 0
4, 46176, Note_on_c, 1, 66, 78
4, 46221, Note_on_c, 1, 66, 0
4, 46224, Note_on_c, 1, 68, 78
4, 46269, Note_on_c, 1, 68, 0
4, 46272, Note_on_c, 1, 69, 78
4, 46317, Note_on_c, 1, 69, 0
4, 46320, Note_on_c, 1, 62, 78
4, 46365, Note_on_c, 1, 62, 0
4, 46368, Note_on_c, 1, 64, 78
4, 46413, Note_on_c, 1, 64, 0
4, 46416, Note_on_c, 1, 66, 78
4, 46461, Note_on_c, 1, 66, 0
4, 46464, Note_on_c, 1, 67, 78
4, 46509, Note_on_c, 1, 67, 0
4, 46512, Note_on_c, 1, 60, 78
4, 46557, Note_on_c, 1, 60, 0
4, 46560, Note_on_c, 1, 62, 78
4, 46605, Note_on_c, 1, 62, 0
4, 46608, Note_on_c, 1, 64, 78
4, 46653, Note_on_c, 1, 64, 0
4, 46656, Note_on_c, 1, 65, 78
4, 46789, Note_on_c, 1, 65, 0
4, 46800, Note_on_c, 1, 66, 78
4, 46845, Note_on_c, 1, 66, 0
4, 46848, Note_on_c, 1, 67, 78
4, 46893, Note_on_c, 1, 67, 0
4, 46896, Note_on_c, 1, 62, 78
4, 46941, Note_on_c, 1, 62, 0
4, 46944, Note_on_c, 1, 55, 78
4, 46989, Note_on_c, 1, 55, 0
4, 47088, Note_on_c, 1, 48, 78
4, 47133, Note_on_c, 1, 48, 0
4, 47136, Note_on_c, 1, 60, 78
4, 47181, Note_on_c, 1, 60, 0
4, 47184, Note_on_c, 1, 64, 78
4, 47229, Note_on_c, 1, 64, 0
4, 47232, Note_on_c, 1, 62, 78
4, 47277, Note_on_c, 1, 62, 0
4, 47280, Note_on_c, 1, 50, 78
4, 47325, Note_on_c, 1, 50, 0
4, 47328, Note_on_c, 1, 62, 78
4, 47373, Note_on_c, 1, 62, 0
4, 47376, Note_on_c, 1, 65, 78
4, 47421, Note_on_c, 1, 65, 0
4, 47424, Note_on_c, 1, 67, 78
4, 47469, Note_on_c, 1, 67, 0
4, 47472, Note_on_c, 1, 55, 78
4, 47517, Note_on_c, 1, 55, 0
4, 47568, Note_on_c, 1, 59, 78
4, 47613, Note_on_c, 1, 59, 0
4, 47616, Note_on_c, 1, 60, 78
4, 47661, Note_on_c, 1, 60, 0
4, 47664, Note_on_c, 1, 48, 78
4, 47709, Note_on_c, 1, 48, 0
4, 47760, Note_on_c, 1, 52, 78
4, 47805, Note_on_c, 1, 52, 0
4, 47808, Note_on_c, 1, 53, 78
4, 47853, Note_on_c, 1, 53, 0
4, 47856, Note_on_c, 1, 41, 78
4, 47901, Note_on_c, 1, 41, 0
4, 47952, Note_on_c, 1, 65, 78
4, 47952, Note_on_c, 1, 55, 78
4, 47997, Note_on_c, 1, 65, 0
4, 47997, Note_on_c, 1, 55, 0
4, 48036, Note_on_c, 1, 48, 78
4, 48048, Note_on_c, 1, 48, 0
4, 48048, Note_on_c, 1, 52, 78
4, 48082, Note_on_c, 1, 52, 0
4, 48084, Note_on_c, 1, 55, 78
4, 48096, Note_on_c, 1, 55, 0
4, 48096, Note_on_c, 1, 60, 78
4, 48116, Note_on_c, 1, 60, 0
4, 48228, Note_on_c, 1, 36, 78
4, 48240, Note_on_c, 1, 36, 0
4, 48240, Note_on_c, 1, 40, 78
4, 48274, Note_on_c, 1, 40, 0
4, 48276, Note_on_c, 1, 43, 78
4, 48288, Note_on_c, 1, 43, 0
4, 48288, Note_on_c, 1, 48, 78
4, 48333, Note_on_c, 1, 48, 0
4, 48336, Note_on_c, 1, 52, 78
4, 48381, Note_on_c, 1, 52, 0
4, 48420, Note_on_c, 1, 50, 78
4, 48432, Note_on_c, 1, 50, 0
4, 48432, Note_on_c, 1, 53, 78
4, 48466, Note_on_c, 1, 53, 0
4, 48468, Note_on_c, 1, 57, 78
4, 48480, Note_on_c, 1, 57, 0
4, 48480, Note_on_c, 1, 62, 78
4, 48514, Note_on_c, 1, 62, 0
4, 48516, Note_on_c, 1, 60, 78
4, 48528, Note_on_c, 1, 60, 0
4, 48528, Note_on_c, 1, 59, 78
4, 48534, Note_on_c, 1, 59, 0
4, 48534, Note_on_c, 1, 60, 78
4, 48540, Note_on_c, 1, 60, 0
4, 48540, Note_on_c, 1, 59, 78
4, 48562, Note_on_c, 1, 59, 0
4, 48564, Note_on_c, 1, 57, 78
4, 48576, Note_on_c, 1, 57, 0
4, 48576, Note_on_c, 1, 55, 78
4, 48610, Note_on_c, 1, 55, 0
4, 48612, Note_on_c, 1, 43, 78
4, 48624, Note_on_c, 1, 43, 0
4, 48624, Note_on_c, 1, 47, 78
4, 48658, Note_on_c, 1, 47, 0
4, 48660, Note_on_c, 1, 50, 78
4, 48672, Note_on_c, 1, 50, 0
4, 48672, Note_on_c, 1, 55, 78
4, 48692, Note_on_c, 1, 55, 0
4, 48720, Note_on_c, 1, 47, 78
4, 48765, Note_on_c, 1, 47, 0
4, 48804, Note_on_c, 1, 36, 78
4, 48816, Note_on_c, 1, 36, 0
4, 48816, Note_on_c, 1, 48, 78
4, 48850, Note_on_c, 1, 48, 0
4, 48852, Note_on_c, 1, 47, 80
4, 48864, Note_on_c, 1, 47, 0
4, 48864, Note_on_c, 1, 48, 80
4, 48879, Note_on_c, 1, 48, 0
4, 48900, Note_on_c, 1, 48, 82
4, 48912, Note_on_c, 1, 48, 0
4, 48912, Note_on_c, 1, 52, 82
4, 48946, Note_on_c, 1, 52, 0
4, 48948, Note_on_c, 1, 55, 84
4, 48960, Note_on_c, 1, 55, 0
4, 48960, Note_on_c, 1, 58, 85
4, 49137, Note_on_c, 1, 58, 0
4, 49188, Note_on_c, 1, 36, 78
4, 49200, Note_on_c, 1, 36, 0
4, 49200, Note_on_c, 1, 48, 78
4, 49234, Note_on_c, 1, 48, 0
4, 49236, Note_on_c, 1, 47, 80
4, 49248, Note_on_c, 1, 47, 0
4, 49248, Note_on_c, 1, 48, 80
4, 49263, Note_on_c, 1, 48, 0
4, 49284, Note_on_c, 1, 48, 82
4, 49296, Note_on_c, 1, 48, 0
4, 49296, Note_on_c, 1, 53, 82
4, 49330, Note_on_c, 1, 53, 0
4, 49332, Note_on_c, 1, 57, 84
4, 49344, Note_on_c, 1, 57, 0
4, 49344, Note_on_c, 1, 60, 85
4, 49521, Note_on_c, 1, 60, 0
4, 49572, Note_on_c, 1, 36, 78
4, 49584, Note_on_c, 1, 36, 0
4, 49584, Note_on_c, 1, 48, 78
4, 49618, Note_on_c, 1, 48, 0
4, 49620, Note_on_c, 1, 47, 80
4, 49632, Note_on_c, 1, 47, 0
4, 49632, Note_on_c, 1, 48, 80
4, 49647, Note_on_c, 1, 48, 0
4, 49668, Note_on_c, 1, 48, 82
4, 49680, Note_on_c, 1, 48, 0
4, 49680, Note_on_c, 1, 52, 82
4, 49714, Note_on_c, 1, 52, 0
4, 49716, Note_on_c, 1, 55, 84
4, 49728, Note_on_c, 1, 55, 0
4, 49728, Note_on_c, 1, 60, 85
4, 49817, Note_on_c, 1, 60, 0
4, 49872, Note_on_c, 1, 60, 85
4, 49917, Note_on_c, 1, 60, 0
4, 49920, Note_on_c, 1, 62, 85
4, 49965, Note_on_c, 1, 62, 0
4, 49968, Note_on_c, 1, 59, 85
4, 50013, Note_on_c, 1, 59, 0
4, 50016, Note_on_c, 1, 60, 85
4, 50061, Note_on_c, 1, 60, 0
4, 50100, Note_on_c, 1, 49, 85
4, 50112, Note_on_c, 1, 49, 0
4, 50112, Note_on_c, 1, 50, 85
4, 50127, Note_on_c, 1, 50, 0
4, 50148, Note_on_c, 1, 52, 85
4, 50160, Note_on_c, 1, 52, 0
4, 50160, Note_on_c, 1, 53, 85
4, 50175, Note_on_c, 1, 53, 0
4, 50196, Note_on_c, 1, 54, 85
4, 50208, Note_on_c, 1, 54, 0
4, 50208, Note_on_c, 1, 55, 85
4, 50223, Note_on_c, 1, 55, 0
4, 50244, Note_on_c, 1, 56, 85
4, 50256, Note_on_c, 1, 56, 0
4, 50256, Note_on_c, 1, 57, 85
4, 50271, Note_on_c, 1, 57, 0
4, 50292, Note_on_c, 1, 53, 85
4, 50304, Note_on_c, 1, 53, 0
4, 50304, Note_on_c, 1, 55, 85
4, 50393, Note_on_c, 1, 55, 0
4, 50400, Note_on_c, 1, 43, 85
4, 50445, Note_on_c, 1, 43, 0
4, 50544, Note_on_c, 1, 52, 78
4, 50544, Note_on_c, 1, 48, 78
4, 50589, Note_on_c, 1, 52, 0
4, 50589, Note_on_c, 1, 48, 0
4, 50592, Note_on_c, 1, 64, 78
4, 50592, Note_on_c, 1, 60, 78
4, 50637, Note_on_c, 1, 64, 0
4, 50637, Note_on_c, 1, 60, 0
4, 50736, Note_on_c, 1, 53, 78
4, 50736, Note_on_c, 1, 50, 78
4, 50781, Note_on_c, 1, 53, 0
4, 50781, Note_on_c, 1, 50, 0
4, 50784, Note_on_c, 1, 65, 78
4, 50784, Note_on_c, 1, 62, 78
4, 50829, Note_on_c, 1, 65, 0
4, 50829, Note_on_c, 1, 62, 0
4, 50928, Note_on_c, 1, 47, 78
4, 50928, Note_on_c, 1, 43, 78
4, 50973, Note_on_c, 1, 47, 0
4, 50973, Note_on_c, 1, 43, 0
4, 50976, Note_on_c, 1, 59, 78
4, 50976, Note_on_c, 1, 55, 78
4, 51021, Note_on_c, 1, 59, 0
4, 51021, Note_on_c, 1, 55, 0
4, 51120, Note_on_c, 1, 52, 78
4, 51120, Note_on_c, 1, 48, 78
4, 51165, Note_on_c, 1, 52, 0
4, 51165, Note_on_c, 1, 48, 0
4, 51168, Note_on_c, 1, 64, 78
4, 51168, Note_on_c, 1, 60, 78
4, 51213, Note_on_c, 1, 64, 0
4, 51213, Note_on_c, 1, 60, 0
4, 51312, Note_on_c, 1, 52, 78
4, 51346, Note_on_c, 1, 52, 0
4, 51348, Note_on_c, 1, 55, 78
4, 51360, Note_on_c, 1, 55, 0
4, 51360, Note_on_c, 1, 60, 78
4, 51405, Note_on_c, 1, 60, 0
4, 51408, Note_on_c, 1, 64, 78
4, 51453, Note_on_c, 1, 64, 0
4, 51456, Note_on_c, 1, 65, 78
4, 51490, Note_on_c, 1, 65, 0
4, 51492, Note_on_c, 1, 53, 78
4, 51504, Note_on_c, 1, 53, 0
4, 51504, Note_on_c, 1, 57, 78
4, 51538, Note_on_c, 1, 57, 0
4, 51540, Note_on_c, 1, 61, 78
4, 51552, Note_on_c, 1, 61, 0
4, 51552, Note_on_c, 1, 62, 78
4, 51682, Note_on_c, 1, 62, 0
4, 51684, Note_on_c, 1, 55, 78
4, 51696, Note_on_c, 1, 55, 0
4, 51696, Note_on_c, 1, 57, 78
4, 51730, Note_on_c, 1, 57, 0
4, 51732, Note_on_c, 1, 59, 78
4, 51744, Note_on_c, 1, 59, 0
4, 51744, Note_on_c, 1, 60, 78
4, 51885, Note_on_c, 1, 60, 0
4, 51888, Note_on_c, 1, 59, 78
4, 51933, Note_on_c, 1, 59, 0
4, 51936, Note_on_c, 1, 60, 78
4, 51981, Note_on_c, 1, 60, 0
4, 51984, Note_on_c, 1, 54, 78
4, 52029, Note_on_c, 1, 54, 0
4, 52032, Note_on_c, 1, 43, 78
4, 52066, Note_on_c, 1, 43, 0
4, 52068, Note_on_c, 1, 55, 78
4, 52080, Note_on_c, 1, 55, 0
4, 52080, Note_on_c, 1, 54, 78
4, 52114, Note_on_c, 1, 54, 0
4, 52116, Note_on_c, 1, 55, 79
4, 52128, Note_on_c, 1, 55, 0
4, 52128, Note_on_c, 1, 53, 79
4, 52162, Note_on_c, 1, 53, 0
4, 52164, Note_on_c, 1, 55, 80
4, 52176, Note_on_c, 1, 55, 0
4, 52176, Note_on_c, 1, 50, 80
4, 52210, Note_on_c, 1, 50, 0
4, 52212, Note_on_c, 1, 55, 81
4, 52224, Note_on_c, 1, 55, 0
4, 52224, Note_on_c, 1, 52, 81
4, 52258, Note_on_c, 1, 52, 0
4, 52260, Note_on_c, 1, 55, 82
4, 52272, Note_on_c, 1, 55, 0
4, 52272, Note_on_c, 1, 47, 82
4, 52306, Note_on_c, 1, 47, 0
4, 52308, Note_on_c, 1, 55, 83
4, 52320, Note_on_c, 1, 55, 0
4, 52320, Note_on_c, 1, 48, 83
4, 52354, Note_on_c, 1, 48, 0
4, 52356, Note_on_c, 1, 55, 84
4, 52368, Note_on_c, 1, 55, 0
4, 52368, Note_on_c, 1, 45, 84
4, 52402, Note_on_c, 1, 45, 0
4, 52404, Note_on_c, 1, 55, 85
4, 52416, Note_on_c, 1, 55, 0
4, 52416, Note_on_c, 1, 43, 85
4, 52450, Note_on_c, 1, 43, 0
4, 52452, Note_on_c, 1, 55, 82
4, 52464, Note_on_c, 1, 55, 0
4, 52464, Note_on_c, 1, 54, 81
4, 52498, Note_on_c, 1, 54, 0
4, 52500, Note_on_c, 1, 55, 78
4, 52512, Note_on_c, 1, 55, 0
4, 52512, Note_on_c, 1, 53, 78
4, 52546, Note_on_c, 1, 53, 0
4, 52548, Note_on_c, 1, 55, 78
4, 52560, Note_on_c, 1, 55, 0
4, 52560, Note_on_c, 1, 50, 78
4, 52594, Note_on_c, 1, 50, 0
4, 52596, Note_on_c, 1, 55, 79
4, 52608, Note_on_c, 1, 55, 0
4, 52608, Note_on_c, 1, 51, 79
4, 52642, Note_on_c, 1, 51, 0
4, 52644, Note_on_c, 1, 55, 80
4, 52656, Note_on_c, 1, 55, 0
4, 52656, Note_on_c, 1, 47, 80
4, 52690, Note_on_c, 1, 47, 0
4, 52692, Note_on_c, 1, 55, 81
4, 52704, Note_on_c, 1, 55, 0
4, 52704, Note_on_c, 1, 48, 82
4, 52738, Note_on_c, 1, 48, 0
4, 52740, Note_on_c, 1, 55, 83
4, 52752, Note_on_c, 1, 55, 0
4, 52752, Note_on_c, 1, 45, 83
4, 52786, Note_on_c, 1, 45, 0
4, 52788, Note_on_c, 1, 55, 84
4, 52800, Note_on_c, 1, 55, 0
4, 52800, Note_on_c, 1, 43, 85
4, 52845, Note_on_c, 1, 43, 0
4, 52848, Note_on_c, 1, 59, 85
4, 52893, Note_on_c, 1, 59, 0
4, 52896, Note_on_c, 1, 60, 85
4, 52941, Note_on_c, 1, 60, 0
4, 52944, Note_on_c, 1, 62, 85
4, 52989, Note_on_c, 1, 62, 0
4, 52992, Note_on_c, 1, 63, 85
4, 53037, Note_on_c, 1, 63, 0
4, 53040, Note_on_c, 1, 65, 83
4, 53085, Note_on_c, 1, 65, 0
4, 53088, Note_on_c, 1, 67, 81
4, 53133, Note_on_c, 1, 67, 0
4, 53136, Note_on_c, 1, 66, 79
4, 53181, Note_on_c, 1, 66, 0
4, 53184, Note_on_c, 1, 65, 78
4, 53231, Note_on_c, 1, 65, 0
4, 53232, Note_on_c, 1, 59, 78
4, 53277, Note_on_c, 1, 59, 0
4, 53280, Note_on_c, 1, 60, 78
4, 53325, Note_on_c, 1, 60, 0
4, 53328, Note_on_c, 1, 63, 78
4, 53373, Note_on_c, 1, 63, 0
4, 53376, Note_on_c, 1, 67, 78
4, 53421, Note_on_c, 1, 67, 0
4, 53424, Note_on_c, 1, 65, 78
4, 53469, Note_on_c, 1, 65, 0
4, 53472, Note_on_c, 1, 63, 78
4, 53517, Note_on_c, 1, 63, 0
4, 53520, Note_on_c, 1, 60, 78
4, 53565, Note_on_c, 1, 60, 0
4, 53568, Note_on_c, 1, 59, 78
4, 53613, Note_on_c, 1, 59, 0
4, 53616, Note_on_c, 1, 65, 78
4, 53661, Note_on_c, 1, 65, 0
4, 53664, Note_on_c, 1, 63, 78
4, 53709, Note_on_c, 1, 63, 0
4, 53712, Note_on_c, 1, 60, 78
4, 53757, Note_on_c, 1, 60, 0
4, 53760, Note_on_c, 1, 59, 78
4, 53805, Note_on_c, 1, 59, 0
4, 53808, Note_on_c, 1, 65, 78
4, 53853, Note_on_c, 1, 65, 0
4, 53856, Note_on_c, 1, 63, 78
4, 53901, Note_on_c, 1, 63, 0
4, 53904, Note_on_c, 1, 60, 78
4, 53986, Note_on_c, 1, 60, 0
4, 53988, Note_on_c, 1, 57, 78
4, 54000, Note_on_c, 1, 57, 0
4, 54000, Note_on_c, 1, 59, 78
4, 54034, Note_on_c, 1, 59, 0
4, 54036, Note_on_c, 1, 60, 78
4, 54048, Note_on_c, 1, 60, 0
4, 54048, Note_on_c, 1, 62, 78
4, 54178, Note_on_c, 1, 62, 0
4, 54180, Note_on_c, 1, 59, 78
4, 54192, Note_on_c, 1, 59, 0
4, 54192, Note_on_c, 1, 60, 78
4, 54226, Note_on_c, 1, 60, 0
4, 54228, Note_on_c, 1, 62, 78
4, 54240, Note_on_c, 1, 62, 0
4, 54240, Note_on_c, 1, 64, 78
4, 54370, Note_on_c, 1, 64, 0
4, 54372, Note_on_c, 1, 60, 78
4, 54384, Note_on_c, 1, 60, 0
4, 54384, Note_on_c, 1, 62, 78
4, 54418, Note_on_c, 1, 62, 0
4, 54420, Note_on_c, 1, 64, 78
4, 54432, Note_on_c, 1, 64, 0
4, 54432, Note_on_c, 1, 65, 78
4, 54477, Note_on_c, 1, 65, 0
4, 54640, Note_on_c, 1, 62, 78
4, 54655, Note_on_c, 1, 62, 0
4, 54656, Note_on_c, 1, 59, 78
4, 54671, Note_on_c, 1, 59, 0
4, 54672, Note_on_c, 1, 55, 78
4, 54687, Note_on_c, 1, 55, 0
4, 54688, Note_on_c, 1, 59, 78
4, 54703, Note_on_c, 1, 59, 0
4, 54704, Note_on_c, 1, 62, 78
4, 54719, Note_on_c, 1, 62, 0
4, 54720, Note_on_c, 1, 65, 78
4, 54740, Note_on_c, 1, 65, 0
4, 55152, Note_on_c, 1, 43, 78
4, 55197, Note_on_c, 1, 43, 0
4, 55200, Note_on_c, 1, 45, 78
4, 55245, Note_on_c, 1, 45, 0
4, 55248, Note_on_c, 1, 47, 78
4, 55293, Note_on_c, 1, 47, 0
4, 55296, Note_on_c, 1, 48, 78
4, 55385, Note_on_c, 1, 48, 0
4, 55536, Note_on_c, 1, 43, 78
4, 55581, Note_on_c, 1, 43, 0
4, 55584, Note_on_c, 1, 45, 78
4, 55629, Note_on_c, 1, 45, 0
4, 55632, Note_on_c, 1, 47, 78
4, 55677, Note_on_c, 1, 47, 0
4, 55680, Note_on_c, 1, 48, 78
4, 55769, Note_on_c, 1, 48, 0
4, 55824, Note_on_c, 1, 52, 78
4, 55869, Note_on_c, 1, 52, 0
4, 55872, Note_on_c, 1, 53, 78
4, 55961, Note_on_c, 1, 53, 0
4, 55968, Note_on_c, 1, 52, 78
4, 56013, Note_on_c, 1, 52, 0
4, 56016, Note_on_c, 1, 53, 74
4, 56016, Note_on_c, 1, 50, 74
4, 56061, Note_on_c, 1, 53, 0
4, 56061, Note_on_c, 1, 50, 0
4, 56064, Note_on_c, 1, 53, 70
4, 56160, Note_on_c, 1, 53, 0
4, 56160, Note_on_c, 1, 52, 62
4, 56207, Note_on_c, 1, 52, 0
4, 56304, Note_on_c, 1, 55, 78
4, 56349, Note_on_c, 1, 55, 0
4, 56352, Note_on_c, 1, 57, 78
4, 56397, Note_on_c, 1, 57, 0
4, 56400, Note_on_c, 1, 59, 78
4, 56445, Note_on_c, 1, 59, 0
4, 56448, Note_on_c, 1, 60, 78
4, 56537, Note_on_c, 1, 60, 0
4, 56688, Note_on_c, 1, 67, 78
4, 56733, Note_on_c, 1, 67, 0
4, 56736, Note_on_c, 1, 69, 78
4, 56781, Note_on_c, 1, 69, 0
4, 56784, Note_on_c, 1, 71, 78
4, 56829, Note_on_c, 1, 71, 0
4, 56832, Note_on_c, 1, 72, 78
4, 56921, Note_on_c, 1, 72, 0
4, 57072, Note_on_c, 1, 52, 78
4, 57117, Note_on_c, 1, 52, 0
4, 57120, Note_on_c, 1, 53, 78
4, 57165, Note_on_c, 1, 53, 0
4, 57168, Note_on_c, 1, 55, 78
4, 57213, Note_on_c, 1, 55, 0
4, 57216, Note_on_c, 1, 48, 78
4, 57231, Note_on_c, 1, 48, 0
4, 57232, Note_on_c, 1, 52, 78
4, 57247, Note_on_c, 1, 52, 0
4, 57248, Note_on_c, 1, 55, 78
4, 57263, Note_on_c, 1, 55, 0
4, 57264, Note_on_c, 1, 60, 78
4, 57279, Note_on_c, 1, 60, 0
4, 57280, Note_on_c, 1, 64, 78
4, 57295, Note_on_c, 1, 64, 0
4, 57296, Note_on_c, 1, 60, 78
4, 57311, Note_on_c, 1, 60, 0
4, 57312, Note_on_c, 1, 48, 78
4, 57357, Note_on_c, 1, 48, 0
4, 57360, Note_on_c, 1, 48, 0
4, 57405, Note_on_c, 1, 48, 0
4, 57408, End_track
5, 0, Start_track
5, 0, Program_c, 1, 0
5, 0, Control_c, 1, 7, 127
5, 0, Control_c, 1, 10, 64
5, 4752, Note_on_c, 1, 60, 64
5, 4797, Note_on_c, 1, 60, 0
5, 4800, Note_on_c, 1, 59, 64
5, 4933, Note_on_c, 1, 59, 0
5, 4944, Note_on_c, 1, 59, 64
5, 4989, Note_on_c, 1, 59, 0
5, 4992, Note_on_c, 1, 57, 64
5, 5081, Note_on_c, 1, 57, 0
5, 5088, Note_on_c, 1, 55, 64
5, 5133, Note_on_c, 1, 55, 0
5, 5136, Note_on_c, 1, 61, 64
5, 5181, Note_on_c, 1, 61, 0
5, 7680, Note_on_c, 1, 63, 64
5, 7857, Note_on_c, 1, 63, 0
5, 7872, Note_on_c, 1, 62, 64
5, 8397, Note_on_c, 1, 62, 0
5, 8592, Note_on_c, 1, 60, 64
5, 8607, Note_on_c, 1, 60, 0
5, 8608, Note_on_c, 1, 57, 64
5, 8623, Note_on_c, 1, 57, 0
5, 8624, Note_on_c, 1, 54, 64
5, 8639, Note_on_c, 1, 54, 0
5, 8640, Note_on_c, 1, 48, 64
5, 8660, Note_on_c, 1, 48, 0
5, 9600, Note_on_c, 1, 48, 64
5, 9689, Note_on_c, 1, 48, 0
5, 9696, Note_on_c, 1, 50, 64
5, 9785, Note_on_c, 1, 50, 0
5, 15696, Note_on_c, 1, 60, 64
5, 15741, Note_on_c, 1, 60, 0
5, 15744, Note_on_c, 1, 59, 64
5, 15877, Note_on_c, 1, 59, 0
5, 15888, Note_on_c, 1, 59, 64
5, 15933, Note_on_c, 1, 59, 0
5, 15936, Note_on_c, 1, 57, 64
5, 16025, Note_on_c, 1, 57, 0
5, 16032, Note_on_c, 1, 55, 64
5, 16077, Note_on_c, 1, 55, 0
5, 16080, Note_on_c, 1, 61, 64
5, 16125, Note_on_c, 1, 61, 0
5, 18624, Note_on_c, 1, 63, 64
5, 18801, Note_on_c, 1, 63, 0
5, 18816, Note_on_c, 1, 62, 64
5, 19341, Note_on_c, 1, 62, 0
5, 19536, Note_on_c, 1, 60, 64
5, 19551, Note_on_c, 1, 60, 0
5, 19552, Note_on_c, 1, 57, 64
5, 19567, Note_on_c, 1, 57, 0
5, 19568, Note_on_c, 1, 54, 64
5, 19583, Note_on_c, 1, 54, 0
5, 19584, Note_on_c, 1, 48, 64
5, 19604, Note_on_c, 1, 48, 0
5, 20544, Note_on_c, 1, 48, 64
5, 20633, Note_on_c, 1, 48, 0
5, 20640, Note_on_c, 1, 50, 64
5, 20729, Note_on_c, 1, 50, 0
5, 25296, Note_on_c, 1, 69, 64
5, 25581, Note_on_c, 1, 69, 0
5, 25584, Note_on_c, 1, 67, 64
5, 25629, Note_on_c, 1, 67, 0
5, 25632, Note_on_c, 1, 65, 64
5, 25677, Note_on_c, 1, 65, 0
5, 25680, Note_on_c, 1, 64, 64
5, 25725, Note_on_c, 1, 64, 0
5, 25728, Note_on_c, 1, 62, 64
5, 25773, Note_on_c, 1, 62, 0
5, 25776, Note_on_c, 1, 60, 64
5, 25821, Note_on_c, 1, 60, 0
5, 25824, Note_on_c, 1, 59, 64
5, 25869, Note_on_c, 1, 59, 0
5, 25872, Note_on_c, 1, 64, 64
5, 26009, Note_on_c, 1, 64, 0
5, 26052, Note_on_c, 1, 64, 64
5, 26064, Note_on_c, 1, 64, 0
5, 26064, Note_on_c, 1, 66, 64
5, 26098, Note_on_c, 1, 66, 0
5, 26100, Note_on_c, 1, 68, 64
5, 26112, Note_on_c, 1, 68, 0
5, 33936, Note_on_c, 1, 53, 64
5, 33981, Note_on_c, 1, 53, 0
5, 33984, Note_on_c, 1, 52, 64
5, 34117, Note_on_c, 1, 52, 0
5, 34128, Note_on_c, 1, 52, 64
5, 34173, Note_on_c, 1, 52, 0
5, 34176, Note_on_c, 1, 50, 64
5, 34265, Note_on_c, 1, 50, 0
5, 34272, Note_on_c, 1, 48, 64
5, 34317, Note_on_c, 1, 48, 0
5, 34320, Note_on_c, 1, 54, 64
5, 34365, Note_on_c, 1, 54, 0
5, 35184, Note_on_c, 1, 55, 110
5, 35757, Note_on_c, 1, 55, 0
5, 35760, Note_on_c, 1, 55, 110
5, 35949, Note_on_c, 1, 55, 0
5, 35952, Note_on_c, 1, 55, 110
5, 36141, Note_on_c, 1, 55, 0
5, 36144, Note_on_c, 1, 55, 110
5, 36813, Note_on_c, 1, 55, 0
5, 38256, Note_on_c, 1, 41, 94
5, 38301, Note_on_c, 1, 41, 0
5, 38304, Note_on_c, 1, 43, 94
5, 38393, Note_on_c, 1, 43, 0
5, 38400, Note_on_c, 1, 50, 94
5, 38400, Note_on_c, 1, 45, 94
5, 38496, Note_on_c, 1, 50, 0
5, 38496, Note_on_c, 1, 48, 94
5, 38543, Note_on_c, 1, 48, 0
5, 38543, Note_on_c, 1, 45, 0
5, 42960, Note_on_c, 1, 69, 64
5, 43245, Note_on_c, 1, 69, 0
5, 43248, Note_on_c, 1, 67, 64
5, 43293, Note_on_c, 1, 67, 0
5, 43296, Note_on_c, 1, 65, 64
5, 43341, Note_on_c, 1, 65, 0
5, 43344, Note_on_c, 1, 64, 64
5, 43389, Note_on_c, 1, 64, 0
5, 43392, Note_on_c, 1, 62, 64
5, 43437, Note_on_c, 1, 62, 0
5, 43440, Note_on_c, 1, 60, 64
5, 43485, Note_on_c, 1, 60, 0
5, 43488, Note_on_c, 1, 59, 64
5, 43533, Note_on_c, 1, 59, 0
5, 43536, Note_on_c, 1, 64, 64
5, 43673, Note_on_c, 1, 64, 0
5, 43716, Note_on_c, 1, 64, 64
5, 43728, Note_on_c, 1, 64, 0
5, 43728, Note_on_c, 1, 66, 64
5, 43762, Note_on_c, 1, 66, 0
5, 43764, Note_on_c, 1, 68, 64
5, 43776, Note_on_c, 1, 68, 0
5, 51600, Note_on_c, 1, 53, 64
5, 51645, Note_on_c, 1, 53, 0
5, 51648, Note_on_c, 1, 52, 64
5, 51781, Note_on_c, 1, 52, 0
5, 51792, Note_on_c, 1, 52, 64
5, 51837, Note_on_c, 1, 52, 0
5, 51840, Note_on_c, 1, 50, 64
5, 51929, Note_on_c, 1, 50, 0
5, 51936, Note_on_c, 1, 48, 64
5, 51981, Note_on_c, 1, 48, 0
5, 51984, Note_on_c, 1, 54, 64
5, 52029, Note_on_c, 1, 54, 0
5, 52848, Note_on_c, 1, 55, 110
5, 53421, Note_on_c, 1, 55, 0
5, 53424, Note_on_c, 1, 55, 110
5, 53613, Note_on_c, 1, 55, 0
5, 53616, Note_on_c, 1, 55, 110
5, 53805, Note_on_c, 1, 55, 0
5, 53808, Note_on_c, 1, 55, 110
5, 54477, Note_on_c, 1, 55, 0
5, 55920, Note_on_c, 1, 41, 94
5, 55965, Note_on_c, 1, 41, 0
5, 55968, Note_on_c, 1, 43, 94
5, 56057, Note_on_c, 1, 43, 0
5, 56064, Note_on_c, 1, 50, 94
5, 56064, Note_on_c, 1, 45, 94
5, 56160, Note_on_c, 1, 50, 0
5, 56160, Note_on_c, 1, 48, 94
5, 56207, Note_on_c, 1, 48, 0
5, 56207, Note_on_c, 1, 45, 0
5, 57408, End_track
6, 0, Start_track
6, 0, Title_t, "Sonata I   Haydn  "
6, 0, End_track
0, 0, End_of_file
