0, 0, Header, 1, 6, 96
1, 0, Start_track
1, 0, Copyright_t, "Copyright  1994-2002 Mozart Music Software"
1, 0, Text_t, "Piano Solo\015\012"
1, 0, Text_t, "<composer>\015\012"
1, 0, Sequencer_specific, 16, 68, 87, 77, 90, 86, 82, 83, 78, 32, 55, 46, 48, 46, 55, 46, 48
1, 0, Time_signature, 3, 3, 24, 8
1, 0, Tempo, 500000
1, 0, Key_signature, 1, "major"
1, 25920, End_track
2, 0, Start_track
2, 0, Program_c, 0, 0
2, 0, Control_c, 0, 7, 127
2, 0, Control_c, 0, 10, 64
2, 0, Note_on_c, 0, 67, 75
2, 45, Note_on_c, 0, 67, 0
2, 48, Note_on_c, 0, 72, 75
2, 71, Note_on_c, 0, 72, 0
2, 72, Note_on_c, 0, 71, 75
2, 95, Note_on_c, 0, 71, 0
2, 96, Note_on_c, 0, 76, 75
2, 119, Note_on_c, 0, 76, 0
2, 120, Note_on_c, 0, 74, 75
2, 143, Note_on_c, 0, 74, 0
2, 144, Note_on_c, 0, 74, 75
2, 167, Note_on_c, 0, 74, 0
2, 168, Note_on_c, 0, 79, 75
2, 191, Note_on_c, 0, 79, 0
2, 192, Note_on_c, 0, 74, 75
2, 237, Note_on_c, 0, 74, 0
2, 288, Note_on_c, 0, 76, 75
2, 311, Note_on_c, 0, 76, 0
2, 312, Note_on_c, 0, 79, 75
2, 335, Note_on_c, 0, 79, 0
2, 336, Note_on_c, 0, 76, 75
2, 381, Note_on_c, 0, 76, 0
2, 432, Note_on_c, 0, 74, 75
2, 455, Note_on_c, 0, 74, 0
2, 456, Note_on_c, 0, 78, 75
2, 479, Note_on_c, 0, 78, 0
2, 480, Note_on_c, 0, 81, 75
2, 503, Note_on_c, 0, 81, 0
2, 504, Note_on_c, 0, 84, 75
2, 527, Note_on_c, 0, 84, 0
2, 528, Note_on_c, 0, 83, 75
2, 551, Note_on_c, 0, 83, 0
2, 552, Note_on_c, 0, 79, 75
2, 575, Note_on_c, 0, 79, 0
2, 576, Note_on_c, 0, 74, 75
2, 621, Note_on_c, 0, 74, 0
2, 624, Note_on_c, 0, 72, 75
2, 636, Note_on_c, 0, 72, 0
2, 636, Note_on_c, 0, 74, 75
2, 648, Note_on_c, 0, 74, 0
2, 648, Note_on_c, 0, 72, 75
2, 669, Note_on_c, 0, 72, 0
2, 672, Note_on_c, 0, 71, 75
2, 717, Note_on_c, 0, 71, 0
2, 720, Note_on_c, 0, 74, 75
2, 743, Note_on_c, 0, 74, 0
2, 744, Note_on_c, 0, 78, 75
2, 767, Note_on_c, 0, 78, 0
2, 768, Note_on_c, 0, 81, 75
2, 791, Note_on_c, 0, 81, 0
2, 792, Note_on_c, 0, 84, 75
2, 815, Note_on_c, 0, 84, 0
2, 816, Note_on_c, 0, 83, 75
2, 839, Note_on_c, 0, 83, 0
2, 840, Note_on_c, 0, 79, 75
2, 863, Note_on_c, 0, 79, 0
2, 864, Note_on_c, 0, 86, 75
2, 887, Note_on_c, 0, 86, 0
2, 888, Note_on_c, 0, 81, 75
2, 911, Note_on_c, 0, 81, 0
2, 912, Note_on_c, 0, 78, 75
2, 935, Note_on_c, 0, 78, 0
2, 936, Note_on_c, 0, 74, 75
2, 959, Note_on_c, 0, 74, 0
2, 960, Note_on_c, 0, 79, 75
2, 983, Note_on_c, 0, 79, 0
2, 984, Note_on_c, 0, 83, 75
2, 1007, Note_on_c, 0, 83, 0
2, 1008, Note_on_c, 0, 74, 75
2, 1031, Note_on_c, 0, 74, 0
2, 1032, Note_on_c, 0, 72, 75
2, 1055, Note_on_c, 0, 72, 0
2, 1056, Note_on_c, 0, 81, 75
2, 1079, Note_on_c, 0, 81, 0
2, 1080, Note_on_c, 0, 72, 75
2, 1103, Note_on_c, 0, 72, 0
2, 1104, Note_on_c, 0, 71, 75
2, 1127, Note_on_c, 0, 71, 0
2, 1128, Note_on_c, 0, 79, 75
2, 1151, Note_on_c, 0, 79, 0
2, 1152, Note_on_c, 0, 74, 75
2, 1175, Note_on_c, 0, 74, 0
2, 1176, Note_on_c, 0, 72, 75
2, 1199, Note_on_c, 0, 72, 0
2, 1200, Note_on_c, 0, 81, 75
2, 1223, Note_on_c, 0, 81, 0
2, 1224, Note_on_c, 0, 72, 75
2, 1247, Note_on_c, 0, 72, 0
2, 1248, Note_on_c, 0, 71, 75
2, 1271, Note_on_c, 0, 71, 0
2, 1272, Note_on_c, 0, 79, 75
2, 1295, Note_on_c, 0, 79, 0
2, 1296, Note_on_c, 0, 71, 75
2, 1308, Note_on_c, 0, 71, 0
2, 1308, Note_on_c, 0, 72, 75
2, 1320, Note_on_c, 0, 72, 0
2, 1320, Note_on_c, 0, 71, 75
2, 1341, Note_on_c, 0, 71, 0
2, 1344, Note_on_c, 0, 69, 75
2, 1389, Note_on_c, 0, 69, 0
2, 1440, Note_on_c, 0, 76, 81
2, 1446, Note_on_c, 0, 76, 0
2, 1446, Note_on_c, 0, 74, 81
2, 1452, Note_on_c, 0, 74, 0
2, 1452, Note_on_c, 0, 73, 81
2, 1458, Note_on_c, 0, 73, 0
2, 1458, Note_on_c, 0, 74, 81
2, 1487, Note_on_c, 0, 74, 0
2, 1488, Note_on_c, 0, 62, 81
2, 1503, Note_on_c, 0, 62, 0
2, 1504, Note_on_c, 0, 66, 81
2, 1519, Note_on_c, 0, 66, 0
2, 1520, Note_on_c, 0, 69, 81
2, 1535, Note_on_c, 0, 69, 0
2, 1536, Note_on_c, 0, 74, 81
2, 1551, Note_on_c, 0, 74, 0
2, 1552, Note_on_c, 0, 78, 81
2, 1567, Note_on_c, 0, 78, 0
2, 1568, Note_on_c, 0, 81, 81
2, 1583, Note_on_c, 0, 81, 0
2, 1584, Note_on_c, 0, 79, 81
2, 1599, Note_on_c, 0, 79, 0
2, 1600, Note_on_c, 0, 78, 81
2, 1615, Note_on_c, 0, 78, 0
2, 1616, Note_on_c, 0, 76, 81
2, 1631, Note_on_c, 0, 76, 0
2, 1632, Note_on_c, 0, 74, 81
2, 1647, Note_on_c, 0, 74, 0
2, 1648, Note_on_c, 0, 73, 81
2, 1663, Note_on_c, 0, 73, 0
2, 1664, Note_on_c, 0, 71, 81
2, 1679, Note_on_c, 0, 71, 0
2, 1680, Note_on_c, 0, 69, 81
2, 1695, Note_on_c, 0, 69, 0
2, 1696, Note_on_c, 0, 76, 81
2, 1711, Note_on_c, 0, 76, 0
2, 1712, Note_on_c, 0, 79, 81
2, 1727, Note_on_c, 0, 79, 0
2, 1728, Note_on_c, 0, 78, 81
2, 1773, Note_on_c, 0, 78, 0
2, 1776, Note_on_c, 0, 62, 81
2, 1791, Note_on_c, 0, 62, 0
2, 1792, Note_on_c, 0, 66, 81
2, 1807, Note_on_c, 0, 66, 0
2, 1808, Note_on_c, 0, 69, 81
2, 1823, Note_on_c, 0, 69, 0
2, 1824, Note_on_c, 0, 74, 81
2, 1839, Note_on_c, 0, 74, 0
2, 1840, Note_on_c, 0, 78, 81
2, 1855, Note_on_c, 0, 78, 0
2, 1856, Note_on_c, 0, 81, 81
2, 1871, Note_on_c, 0, 81, 0
2, 1872, Note_on_c, 0, 79, 81
2, 1887, Note_on_c, 0, 79, 0
2, 1888, Note_on_c, 0, 78, 81
2, 1903, Note_on_c, 0, 78, 0
2, 1904, Note_on_c, 0, 76, 81
2, 1919, Note_on_c, 0, 76, 0
2, 1920, Note_on_c, 0, 74, 81
2, 1935, Note_on_c, 0, 74, 0
2, 1936, Note_on_c, 0, 73, 81
2, 1951, Note_on_c, 0, 73, 0
2, 1952, Note_on_c, 0, 71, 81
2, 1967, Note_on_c, 0, 71, 0
2, 1968, Note_on_c, 0, 69, 81
2, 1983, Note_on_c, 0, 69, 0
2, 1984, Note_on_c, 0, 76, 81
2, 1999, Note_on_c, 0, 76, 0
2, 2000, Note_on_c, 0, 79, 81
2, 2015, Note_on_c, 0, 79, 0
2, 2016, Note_on_c, 0, 78, 81
2, 2061, Note_on_c, 0, 78, 0
2, 2080, Note_on_c, 0, 69, 75
2, 2095, Note_on_c, 0, 69, 0
2, 2096, Note_on_c, 0, 74, 75
2, 2111, Note_on_c, 0, 74, 0
2, 2128, Note_on_c, 0, 74, 75
2, 2143, Note_on_c, 0, 74, 0
2, 2144, Note_on_c, 0, 78, 75
2, 2159, Note_on_c, 0, 78, 0
2, 2176, Note_on_c, 0, 78, 75
2, 2191, Note_on_c, 0, 78, 0
2, 2192, Note_on_c, 0, 81, 75
2, 2207, Note_on_c, 0, 81, 0
2, 2224, Note_on_c, 0, 74, 75
2, 2239, Note_on_c, 0, 74, 0
2, 2240, Note_on_c, 0, 78, 75
2, 2255, Note_on_c, 0, 78, 0
2, 2272, Note_on_c, 0, 69, 75
2, 2287, Note_on_c, 0, 69, 0
2, 2288, Note_on_c, 0, 74, 75
2, 2303, Note_on_c, 0, 74, 0
2, 2320, Note_on_c, 0, 64, 75
2, 2335, Note_on_c, 0, 64, 0
2, 2336, Note_on_c, 0, 67, 75
2, 2351, Note_on_c, 0, 67, 0
2, 2368, Note_on_c, 0, 67, 75
2, 2383, Note_on_c, 0, 67, 0
2, 2384, Note_on_c, 0, 73, 75
2, 2399, Note_on_c, 0, 73, 0
2, 2416, Note_on_c, 0, 73, 75
2, 2431, Note_on_c, 0, 73, 0
2, 2432, Note_on_c, 0, 76, 75
2, 2447, Note_on_c, 0, 76, 0
2, 2464, Note_on_c, 0, 76, 75
2, 2479, Note_on_c, 0, 76, 0
2, 2480, Note_on_c, 0, 79, 75
2, 2495, Note_on_c, 0, 79, 0
2, 2512, Note_on_c, 0, 73, 75
2, 2527, Note_on_c, 0, 73, 0
2, 2528, Note_on_c, 0, 76, 75
2, 2543, Note_on_c, 0, 76, 0
2, 2560, Note_on_c, 0, 67, 75
2, 2575, Note_on_c, 0, 67, 0
2, 2576, Note_on_c, 0, 73, 75
2, 2591, Note_on_c, 0, 73, 0
2, 2640, Note_on_c, 0, 69, 81
2, 2655, Note_on_c, 0, 69, 0
2, 2656, Note_on_c, 0, 71, 81
2, 2671, Note_on_c, 0, 71, 0
2, 2672, Note_on_c, 0, 73, 81
2, 2687, Note_on_c, 0, 73, 0
2, 2688, Note_on_c, 0, 74, 81
2, 2703, Note_on_c, 0, 74, 0
2, 2704, Note_on_c, 0, 76, 81
2, 2719, Note_on_c, 0, 76, 0
2, 2720, Note_on_c, 0, 78, 81
2, 2735, Note_on_c, 0, 78, 0
2, 2736, Note_on_c, 0, 71, 81
2, 2781, Note_on_c, 0, 71, 0
2, 2784, Note_on_c, 0, 79, 81
2, 2799, Note_on_c, 0, 79, 0
2, 2800, Note_on_c, 0, 78, 81
2, 2815, Note_on_c, 0, 78, 0
2, 2816, Note_on_c, 0, 76, 81
2, 2831, Note_on_c, 0, 76, 0
2, 2832, Note_on_c, 0, 83, 81
2, 2847, Note_on_c, 0, 83, 0
2, 2848, Note_on_c, 0, 81, 81
2, 2863, Note_on_c, 0, 81, 0
2, 2864, Note_on_c, 0, 79, 81
2, 2879, Note_on_c, 0, 79, 0
2, 2880, Note_on_c, 0, 78, 81
2, 2895, Note_on_c, 0, 78, 0
2, 2896, Note_on_c, 0, 79, 81
2, 2911, Note_on_c, 0, 79, 0
2, 2912, Note_on_c, 0, 81, 81
2, 2927, Note_on_c, 0, 81, 0
2, 2928, Note_on_c, 0, 74, 81
2, 2973, Note_on_c, 0, 74, 0
2, 2976, Note_on_c, 0, 73, 81
2, 2988, Note_on_c, 0, 73, 0
2, 2988, Note_on_c, 0, 74, 81
2, 3000, Note_on_c, 0, 74, 0
2, 3000, Note_on_c, 0, 73, 81
2, 3021, Note_on_c, 0, 73, 0
2, 3024, Note_on_c, 0, 74, 81
2, 3113, Note_on_c, 0, 74, 0
2, 3216, Note_on_c, 0, 81, 70
2, 3216, Note_on_c, 0, 77, 70
2, 3264, Note_on_c, 0, 81, 0
2, 3264, Note_on_c, 0, 77, 0
2, 3264, Note_on_c, 0, 79, 70
2, 3264, Note_on_c, 0, 76, 70
2, 3309, Note_on_c, 0, 79, 0
2, 3309, Note_on_c, 0, 76, 0
2, 3360, Note_on_c, 0, 77, 70
2, 3360, Note_on_c, 0, 74, 70
2, 3408, Note_on_c, 0, 77, 0
2, 3408, Note_on_c, 0, 74, 0
2, 3408, Note_on_c, 0, 76, 70
2, 3408, Note_on_c, 0, 73, 70
2, 3453, Note_on_c, 0, 76, 0
2, 3453, Note_on_c, 0, 73, 0
2, 3504, Note_on_c, 0, 77, 70
2, 3504, Note_on_c, 0, 69, 70
2, 3552, Note_on_c, 0, 77, 0
2, 3552, Note_on_c, 0, 69, 0
2, 3552, Note_on_c, 0, 76, 70
2, 3552, Note_on_c, 0, 67, 70
2, 3597, Note_on_c, 0, 76, 0
2, 3597, Note_on_c, 0, 67, 0
2, 3648, Note_on_c, 0, 65, 70
2, 3648, Note_on_c, 0, 62, 70
2, 3696, Note_on_c, 0, 65, 0
2, 3696, Note_on_c, 0, 62, 0
2, 3696, Note_on_c, 0, 64, 70
2, 3696, Note_on_c, 0, 61, 70
2, 3741, Note_on_c, 0, 64, 0
2, 3741, Note_on_c, 0, 61, 0
2, 3744, Note_on_c, 0, 76, 81
2, 3750, Note_on_c, 0, 76, 0
2, 3750, Note_on_c, 0, 74, 81
2, 3756, Note_on_c, 0, 74, 0
2, 3756, Note_on_c, 0, 73, 81
2, 3762, Note_on_c, 0, 73, 0
2, 3762, Note_on_c, 0, 74, 81
2, 3791, Note_on_c, 0, 74, 0
2, 3792, Note_on_c, 0, 62, 81
2, 3807, Note_on_c, 0, 62, 0
2, 3808, Note_on_c, 0, 66, 81
2, 3823, Note_on_c, 0, 66, 0
2, 3824, Note_on_c, 0, 69, 81
2, 3839, Note_on_c, 0, 69, 0
2, 3840, Note_on_c, 0, 74, 81
2, 3855, Note_on_c, 0, 74, 0
2, 3856, Note_on_c, 0, 78, 81
2, 3871, Note_on_c, 0, 78, 0
2, 3872, Note_on_c, 0, 81, 81
2, 3887, Note_on_c, 0, 81, 0
2, 3888, Note_on_c, 0, 83, 81
2, 3933, Note_on_c, 0, 83, 0
2, 3936, Note_on_c, 0, 74, 81
2, 3951, Note_on_c, 0, 74, 0
2, 3952, Note_on_c, 0, 79, 81
2, 3967, Note_on_c, 0, 79, 0
2, 3968, Note_on_c, 0, 83, 81
2, 3983, Note_on_c, 0, 83, 0
2, 3984, Note_on_c, 0, 86, 81
2, 3999, Note_on_c, 0, 86, 0
2, 4000, Note_on_c, 0, 85, 81
2, 4015, Note_on_c, 0, 85, 0
2, 4016, Note_on_c, 0, 83, 81
2, 4031, Note_on_c, 0, 83, 0
2, 4032, Note_on_c, 0, 81, 81
2, 4077, Note_on_c, 0, 81, 0
2, 4080, Note_on_c, 0, 74, 81
2, 4125, Note_on_c, 0, 74, 0
2, 4128, Note_on_c, 0, 73, 81
2, 4140, Note_on_c, 0, 73, 0
2, 4140, Note_on_c, 0, 74, 81
2, 4152, Note_on_c, 0, 74, 0
2, 4152, Note_on_c, 0, 73, 81
2, 4173, Note_on_c, 0, 73, 0
2, 4176, Note_on_c, 0, 74, 81
2, 4221, Note_on_c, 0, 74, 0
2, 4224, Note_on_c, 0, 74, 75
2, 4224, Note_on_c, 0, 71, 75
2, 4269, Note_on_c, 0, 74, 0
2, 4269, Note_on_c, 0, 71, 0
2, 4272, Note_on_c, 0, 73, 75
2, 4272, Note_on_c, 0, 69, 75
2, 4317, Note_on_c, 0, 73, 0
2, 4317, Note_on_c, 0, 69, 0
2, 4320, Note_on_c, 0, 71, 75
2, 4320, Note_on_c, 0, 67, 75
2, 4365, Note_on_c, 0, 71, 0
2, 4365, Note_on_c, 0, 67, 0
2, 4368, Note_on_c, 0, 69, 75
2, 4368, Note_on_c, 0, 66, 75
2, 4413, Note_on_c, 0, 69, 0
2, 4413, Note_on_c, 0, 66, 0
2, 4416, Note_on_c, 0, 67, 75
2, 4416, Note_on_c, 0, 64, 75
2, 4461, Note_on_c, 0, 67, 0
2, 4461, Note_on_c, 0, 64, 0
2, 4464, Note_on_c, 0, 66, 75
2, 4464, Note_on_c, 0, 62, 75
2, 4509, Note_on_c, 0, 66, 0
2, 4509, Note_on_c, 0, 62, 0
2, 4512, Note_on_c, 0, 71, 75
2, 4512, Note_on_c, 0, 67, 75
2, 4557, Note_on_c, 0, 71, 0
2, 4557, Note_on_c, 0, 67, 0
2, 4560, Note_on_c, 0, 69, 75
2, 4560, Note_on_c, 0, 66, 75
2, 4605, Note_on_c, 0, 69, 0
2, 4605, Note_on_c, 0, 66, 0
2, 4608, Note_on_c, 0, 67, 75
2, 4608, Note_on_c, 0, 64, 75
2, 4653, Note_on_c, 0, 67, 0
2, 4653, Note_on_c, 0, 64, 0
2, 4656, Note_on_c, 0, 66, 75
2, 4656, Note_on_c, 0, 62, 75
2, 4701, Note_on_c, 0, 66, 0
2, 4701, Note_on_c, 0, 62, 0
2, 4704, Note_on_c, 0, 64, 75
2, 4704, Note_on_c, 0, 61, 75
2, 4749, Note_on_c, 0, 64, 0
2, 4749, Note_on_c, 0, 61, 0
2, 4752, Note_on_c, 0, 66, 75
2, 4752, Note_on_c, 0, 62, 75
2, 4752, Note_on_c, 0, 57, 75
2, 4841, Note_on_c, 0, 66, 0
2, 4841, Note_on_c, 0, 62, 0
2, 4841, Note_on_c, 0, 57, 0
2, 4896, Note_on_c, 0, 67, 75
2, 4941, Note_on_c, 0, 67, 0
2, 4944, Note_on_c, 0, 72, 75
2, 4967, Note_on_c, 0, 72, 0
2, 4968, Note_on_c, 0, 71, 75
2, 4991, Note_on_c, 0, 71, 0
2, 4992, Note_on_c, 0, 76, 75
2, 5015, Note_on_c, 0, 76, 0
2, 5016, Note_on_c, 0, 74, 75
2, 5039, Note_on_c, 0, 74, 0
2, 5040, Note_on_c, 0, 74, 75
2, 5063, Note_on_c, 0, 74, 0
2, 5064, Note_on_c, 0, 79, 75
2, 5087, Note_on_c, 0, 79, 0
2, 5088, Note_on_c, 0, 74, 75
2, 5133, Note_on_c, 0, 74, 0
2, 5184, Note_on_c, 0, 76, 75
2, 5207, Note_on_c, 0, 76, 0
2, 5208, Note_on_c, 0, 79, 75
2, 5231, Note_on_c, 0, 79, 0
2, 5232, Note_on_c, 0, 76, 75
2, 5277, Note_on_c, 0, 76, 0
2, 5328, Note_on_c, 0, 74, 75
2, 5351, Note_on_c, 0, 74, 0
2, 5352, Note_on_c, 0, 78, 75
2, 5375, Note_on_c, 0, 78, 0
2, 5376, Note_on_c, 0, 81, 75
2, 5399, Note_on_c, 0, 81, 0
2, 5400, Note_on_c, 0, 84, 75
2, 5423, Note_on_c, 0, 84, 0
2, 5424, Note_on_c, 0, 83, 75
2, 5447, Note_on_c, 0, 83, 0
2, 5448, Note_on_c, 0, 79, 75
2, 5471, Note_on_c, 0, 79, 0
2, 5472, Note_on_c, 0, 74, 75
2, 5517, Note_on_c, 0, 74, 0
2, 5520, Note_on_c, 0, 72, 75
2, 5532, Note_on_c, 0, 72, 0
2, 5532, Note_on_c, 0, 74, 75
2, 5544, Note_on_c, 0, 74, 0
2, 5544, Note_on_c, 0, 72, 75
2, 5565, Note_on_c, 0, 72, 0
2, 5568, Note_on_c, 0, 71, 75
2, 5613, Note_on_c, 0, 71, 0
2, 5616, Note_on_c, 0, 74, 75
2, 5639, Note_on_c, 0, 74, 0
2, 5640, Note_on_c, 0, 78, 75
2, 5663, Note_on_c, 0, 78, 0
2, 5664, Note_on_c, 0, 81, 75
2, 5687, Note_on_c, 0, 81, 0
2, 5688, Note_on_c, 0, 84, 75
2, 5711, Note_on_c, 0, 84, 0
2, 5712, Note_on_c, 0, 83, 75
2, 5735, Note_on_c, 0, 83, 0
2, 5736, Note_on_c, 0, 79, 75
2, 5759, Note_on_c, 0, 79, 0
2, 5760, Note_on_c, 0, 86, 75
2, 5783, Note_on_c, 0, 86, 0
2, 5784, Note_on_c, 0, 81, 75
2, 5807, Note_on_c, 0, 81, 0
2, 5808, Note_on_c, 0, 78, 75
2, 5831, Note_on_c, 0, 78, 0
2, 5832, Note_on_c, 0, 74, 75
2, 5855, Note_on_c, 0, 74, 0
2, 5856, Note_on_c, 0, 79, 75
2, 5879, Note_on_c, 0, 79, 0
2, 5880, Note_on_c, 0, 83, 75
2, 5903, Note_on_c, 0, 83, 0
2, 5904, Note_on_c, 0, 74, 75
2, 5927, Note_on_c, 0, 74, 0
2, 5928, Note_on_c, 0, 72, 75
2, 5951, Note_on_c, 0, 72, 0
2, 5952, Note_on_c, 0, 81, 75
2, 5975, Note_on_c, 0, 81, 0
2, 5976, Note_on_c, 0, 72, 75
2, 5999, Note_on_c, 0, 72, 0
2, 6000, Note_on_c, 0, 71, 75
2, 6023, Note_on_c, 0, 71, 0
2, 6024, Note_on_c, 0, 79, 75
2, 6047, Note_on_c, 0, 79, 0
2, 6048, Note_on_c, 0, 74, 75
2, 6071, Note_on_c, 0, 74, 0
2, 6072, Note_on_c, 0, 72, 75
2, 6095, Note_on_c, 0, 72, 0
2, 6096, Note_on_c, 0, 81, 75
2, 6119, Note_on_c, 0, 81, 0
2, 6120, Note_on_c, 0, 72, 75
2, 6143, Note_on_c, 0, 72, 0
2, 6144, Note_on_c, 0, 71, 75
2, 6167, Note_on_c, 0, 71, 0
2, 6168, Note_on_c, 0, 79, 75
2, 6191, Note_on_c, 0, 79, 0
2, 6192, Note_on_c, 0, 71, 75
2, 6204, Note_on_c, 0, 71, 0
2, 6204, Note_on_c, 0, 72, 75
2, 6216, Note_on_c, 0, 72, 0
2, 6216, Note_on_c, 0, 71, 75
2, 6237, Note_on_c, 0, 71, 0
2, 6240, Note_on_c, 0, 69, 75
2, 6285, Note_on_c, 0, 69, 0
2, 6336, Note_on_c, 0, 76, 81
2, 6342, Note_on_c, 0, 76, 0
2, 6342, Note_on_c, 0, 74, 81
2, 6348, Note_on_c, 0, 74, 0
2, 6348, Note_on_c, 0, 73, 81
2, 6354, Note_on_c, 0, 73, 0
2, 6354, Note_on_c, 0, 74, 81
2, 6383, Note_on_c, 0, 74, 0
2, 6384, Note_on_c, 0, 62, 81
2, 6399, Note_on_c, 0, 62, 0
2, 6400, Note_on_c, 0, 66, 81
2, 6415, Note_on_c, 0, 66, 0
2, 6416, Note_on_c, 0, 69, 81
2, 6431, Note_on_c, 0, 69, 0
2, 6432, Note_on_c, 0, 74, 81
2, 6447, Note_on_c, 0, 74, 0
2, 6448, Note_on_c, 0, 78, 81
2, 6463, Note_on_c, 0, 78, 0
2, 6464, Note_on_c, 0, 81, 81
2, 6479, Note_on_c, 0, 81, 0
2, 6480, Note_on_c, 0, 79, 81
2, 6495, Note_on_c, 0, 79, 0
2, 6496, Note_on_c, 0, 78, 81
2, 6511, Note_on_c, 0, 78, 0
2, 6512, Note_on_c, 0, 76, 81
2, 6527, Note_on_c, 0, 76, 0
2, 6528, Note_on_c, 0, 74, 81
2, 6543, Note_on_c, 0, 74, 0
2, 6544, Note_on_c, 0, 73, 81
2, 6559, Note_on_c, 0, 73, 0
2, 6560, Note_on_c, 0, 71, 81
2, 6575, Note_on_c, 0, 71, 0
2, 6576, Note_on_c, 0, 69, 81
2, 6591, Note_on_c, 0, 69, 0
2, 6592, Note_on_c, 0, 76, 81
2, 6607, Note_on_c, 0, 76, 0
2, 6608, Note_on_c, 0, 79, 81
2, 6623, Note_on_c, 0, 79, 0
2, 6624, Note_on_c, 0, 78, 81
2, 6669, Note_on_c, 0, 78, 0
2, 6672, Note_on_c, 0, 62, 81
2, 6687, Note_on_c, 0, 62, 0
2, 6688, Note_on_c, 0, 66, 81
2, 6703, Note_on_c, 0, 66, 0
2, 6704, Note_on_c, 0, 69, 81
2, 6719, Note_on_c, 0, 69, 0
2, 6720, Note_on_c, 0, 74, 81
2, 6735, Note_on_c, 0, 74, 0
2, 6736, Note_on_c, 0, 78, 81
2, 6751, Note_on_c, 0, 78, 0
2, 6752, Note_on_c, 0, 81, 81
2, 6767, Note_on_c, 0, 81, 0
2, 6768, Note_on_c, 0, 79, 81
2, 6783, Note_on_c, 0, 79, 0
2, 6784, Note_on_c, 0, 78, 81
2, 6799, Note_on_c, 0, 78, 0
2, 6800, Note_on_c, 0, 76, 81
2, 6815, Note_on_c, 0, 76, 0
2, 6816, Note_on_c, 0, 74, 81
2, 6831, Note_on_c, 0, 74, 0
2, 6832, Note_on_c, 0, 73, 81
2, 6847, Note_on_c, 0, 73, 0
2, 6848, Note_on_c, 0, 71, 81
2, 6863, Note_on_c, 0, 71, 0
2, 6864, Note_on_c, 0, 69, 81
2, 6879, Note_on_c, 0, 69, 0
2, 6880, Note_on_c, 0, 76, 81
2, 6895, Note_on_c, 0, 76, 0
2, 6896, Note_on_c, 0, 79, 81
2, 6911, Note_on_c, 0, 79, 0
2, 6912, Note_on_c, 0, 78, 81
2, 6957, Note_on_c, 0, 78, 0
2, 6976, Note_on_c, 0, 69, 75
2, 6991, Note_on_c, 0, 69, 0
2, 6992, Note_on_c, 0, 74, 75
2, 7007, Note_on_c, 0, 74, 0
2, 7024, Note_on_c, 0, 74, 75
2, 7039, Note_on_c, 0, 74, 0
2, 7040, Note_on_c, 0, 78, 75
2, 7055, Note_on_c, 0, 78, 0
2, 7072, Note_on_c, 0, 78, 75
2, 7087, Note_on_c, 0, 78, 0
2, 7088, Note_on_c, 0, 81, 75
2, 7103, Note_on_c, 0, 81, 0
2, 7120, Note_on_c, 0, 74, 75
2, 7135, Note_on_c, 0, 74, 0
2, 7136, Note_on_c, 0, 78, 75
2, 7151, Note_on_c, 0, 78, 0
2, 7168, Note_on_c, 0, 69, 75
2, 7183, Note_on_c, 0, 69, 0
2, 7184, Note_on_c, 0, 74, 75
2, 7199, Note_on_c, 0, 74, 0
2, 7216, Note_on_c, 0, 64, 75
2, 7231, Note_on_c, 0, 64, 0
2, 7232, Note_on_c, 0, 67, 75
2, 7247, Note_on_c, 0, 67, 0
2, 7264, Note_on_c, 0, 67, 75
2, 7279, Note_on_c, 0, 67, 0
2, 7280, Note_on_c, 0, 73, 75
2, 7295, Note_on_c, 0, 73, 0
2, 7312, Note_on_c, 0, 73, 75
2, 7327, Note_on_c, 0, 73, 0
2, 7328, Note_on_c, 0, 76, 75
2, 7343, Note_on_c, 0, 76, 0
2, 7360, Note_on_c, 0, 76, 75
2, 7375, Note_on_c, 0, 76, 0
2, 7376, Note_on_c, 0, 79, 75
2, 7391, Note_on_c, 0, 79, 0
2, 7408, Note_on_c, 0, 73, 75
2, 7423, Note_on_c, 0, 73, 0
2, 7424, Note_on_c, 0, 76, 75
2, 7439, Note_on_c, 0, 76, 0
2, 7456, Note_on_c, 0, 67, 75
2, 7471, Note_on_c, 0, 67, 0
2, 7472, Note_on_c, 0, 73, 75
2, 7487, Note_on_c, 0, 73, 0
2, 7536, Note_on_c, 0, 69, 81
2, 7551, Note_on_c, 0, 69, 0
2, 7552, Note_on_c, 0, 71, 81
2, 7567, Note_on_c, 0, 71, 0
2, 7568, Note_on_c, 0, 73, 81
2, 7583, Note_on_c, 0, 73, 0
2, 7584, Note_on_c, 0, 74, 81
2, 7599, Note_on_c, 0, 74, 0
2, 7600, Note_on_c, 0, 76, 81
2, 7615, Note_on_c, 0, 76, 0
2, 7616, Note_on_c, 0, 78, 81
2, 7631, Note_on_c, 0, 78, 0
2, 7632, Note_on_c, 0, 71, 81
2, 7677, Note_on_c, 0, 71, 0
2, 7680, Note_on_c, 0, 79, 81
2, 7695, Note_on_c, 0, 79, 0
2, 7696, Note_on_c, 0, 78, 81
2, 7711, Note_on_c, 0, 78, 0
2, 7712, Note_on_c, 0, 76, 81
2, 7727, Note_on_c, 0, 76, 0
2, 7728, Note_on_c, 0, 83, 81
2, 7743, Note_on_c, 0, 83, 0
2, 7744, Note_on_c, 0, 81, 81
2, 7759, Note_on_c, 0, 81, 0
2, 7760, Note_on_c, 0, 79, 81
2, 7775, Note_on_c, 0, 79, 0
2, 7776, Note_on_c, 0, 78, 81
2, 7791, Note_on_c, 0, 78, 0
2, 7792, Note_on_c, 0, 79, 81
2, 7807, Note_on_c, 0, 79, 0
2, 7808, Note_on_c, 0, 81, 81
2, 7823, Note_on_c, 0, 81, 0
2, 7824, Note_on_c, 0, 74, 81
2, 7869, Note_on_c, 0, 74, 0
2, 7872, Note_on_c, 0, 73, 81
2, 7884, Note_on_c, 0, 73, 0
2, 7884, Note_on_c, 0, 74, 81
2, 7896, Note_on_c, 0, 74, 0
2, 7896, Note_on_c, 0, 73, 81
2, 7917, Note_on_c, 0, 73, 0
2, 7920, Note_on_c, 0, 74, 81
2, 8009, Note_on_c, 0, 74, 0
2, 8112, Note_on_c, 0, 81, 70
2, 8112, Note_on_c, 0, 77, 70
2, 8160, Note_on_c, 0, 81, 0
2, 8160, Note_on_c, 0, 77, 0
2, 8160, Note_on_c, 0, 79, 70
2, 8160, Note_on_c, 0, 76, 70
2, 8205, Note_on_c, 0, 79, 0
2, 8205, Note_on_c, 0, 76, 0
2, 8256, Note_on_c, 0, 77, 70
2, 8256, Note_on_c, 0, 74, 70
2, 8304, Note_on_c, 0, 77, 0
2, 8304, Note_on_c, 0, 74, 0
2, 8304, Note_on_c, 0, 76, 70
2, 8304, Note_on_c, 0, 73, 70
2, 8349, Note_on_c, 0, 76, 0
2, 8349, Note_on_c, 0, 73, 0
2, 8400, Note_on_c, 0, 77, 70
2, 8400, Note_on_c, 0, 69, 70
2, 8448, Note_on_c, 0, 77, 0
2, 8448, Note_on_c, 0, 69, 0
2, 8448, Note_on_c, 0, 76, 70
2, 8448, Note_on_c, 0, 67, 70
2, 8493, Note_on_c, 0, 76, 0
2, 8493, Note_on_c, 0, 67, 0
2, 8544, Note_on_c, 0, 65, 70
2, 8544, Note_on_c, 0, 62, 70
2, 8592, Note_on_c, 0, 65, 0
2, 8592, Note_on_c, 0, 62, 0
2, 8592, Note_on_c, 0, 64, 70
2, 8592, Note_on_c, 0, 61, 70
2, 8637, Note_on_c, 0, 64, 0
2, 8637, Note_on_c, 0, 61, 0
2, 8640, Note_on_c, 0, 76, 81
2, 8646, Note_on_c, 0, 76, 0
2, 8646, Note_on_c, 0, 74, 81
2, 8652, Note_on_c, 0, 74, 0
2, 8652, Note_on_c, 0, 73, 81
2, 8658, Note_on_c, 0, 73, 0
2, 8658, Note_on_c, 0, 74, 81
2, 8687, Note_on_c, 0, 74, 0
2, 8688, Note_on_c, 0, 62, 81
2, 8703, Note_on_c, 0, 62, 0
2, 8704, Note_on_c, 0, 66, 81
2, 8719, Note_on_c, 0, 66, 0
2, 8720, Note_on_c, 0, 69, 81
2, 8735, Note_on_c, 0, 69, 0
2, 8736, Note_on_c, 0, 74, 81
2, 8751, Note_on_c, 0, 74, 0
2, 8752, Note_on_c, 0, 78, 81
2, 8767, Note_on_c, 0, 78, 0
2, 8768, Note_on_c, 0, 81, 81
2, 8783, Note_on_c, 0, 81, 0
2, 8784, Note_on_c, 0, 83, 81
2, 8829, Note_on_c, 0, 83, 0
2, 8832, Note_on_c, 0, 74, 81
2, 8847, Note_on_c, 0, 74, 0
2, 8848, Note_on_c, 0, 79, 81
2, 8863, Note_on_c, 0, 79, 0
2, 8864, Note_on_c, 0, 83, 81
2, 8879, Note_on_c, 0, 83, 0
2, 8880, Note_on_c, 0, 86, 81
2, 8895, Note_on_c, 0, 86, 0
2, 8896, Note_on_c, 0, 85, 81
2, 8911, Note_on_c, 0, 85, 0
2, 8912, Note_on_c, 0, 83, 81
2, 8927, Note_on_c, 0, 83, 0
2, 8928, Note_on_c, 0, 81, 81
2, 8973, Note_on_c, 0, 81, 0
2, 8976, Note_on_c, 0, 74, 81
2, 9021, Note_on_c, 0, 74, 0
2, 9024, Note_on_c, 0, 73, 81
2, 9036, Note_on_c, 0, 73, 0
2, 9036, Note_on_c, 0, 74, 81
2, 9048, Note_on_c, 0, 74, 0
2, 9048, Note_on_c, 0, 73, 81
2, 9069, Note_on_c, 0, 73, 0
2, 9072, Note_on_c, 0, 74, 81
2, 9117, Note_on_c, 0, 74, 0
2, 9120, Note_on_c, 0, 74, 75
2, 9120, Note_on_c, 0, 71, 75
2, 9165, Note_on_c, 0, 74, 0
2, 9165, Note_on_c, 0, 71, 0
2, 9168, Note_on_c, 0, 73, 75
2, 9168, Note_on_c, 0, 69, 75
2, 9213, Note_on_c, 0, 73, 0
2, 9213, Note_on_c, 0, 69, 0
2, 9216, Note_on_c, 0, 71, 75
2, 9216, Note_on_c, 0, 67, 75
2, 9261, Note_on_c, 0, 71, 0
2, 9261, Note_on_c, 0, 67, 0
2, 9264, Note_on_c, 0, 69, 75
2, 9264, Note_on_c, 0, 66, 75
2, 9309, Note_on_c, 0, 69, 0
2, 9309, Note_on_c, 0, 66, 0
2, 9312, Note_on_c, 0, 67, 75
2, 9312, Note_on_c, 0, 64, 75
2, 9357, Note_on_c, 0, 67, 0
2, 9357, Note_on_c, 0, 64, 0
2, 9360, Note_on_c, 0, 66, 75
2, 9360, Note_on_c, 0, 62, 75
2, 9405, Note_on_c, 0, 66, 0
2, 9405, Note_on_c, 0, 62, 0
2, 9408, Note_on_c, 0, 71, 75
2, 9408, Note_on_c, 0, 67, 75
2, 9453, Note_on_c, 0, 71, 0
2, 9453, Note_on_c, 0, 67, 0
2, 9456, Note_on_c, 0, 69, 75
2, 9456, Note_on_c, 0, 66, 75
2, 9501, Note_on_c, 0, 69, 0
2, 9501, Note_on_c, 0, 66, 0
2, 9504, Note_on_c, 0, 67, 75
2, 9504, Note_on_c, 0, 64, 75
2, 9549, Note_on_c, 0, 67, 0
2, 9549, Note_on_c, 0, 64, 0
2, 9552, Note_on_c, 0, 66, 75
2, 9552, Note_on_c, 0, 62, 75
2, 9597, Note_on_c, 0, 66, 0
2, 9597, Note_on_c, 0, 62, 0
2, 9600, Note_on_c, 0, 64, 75
2, 9600, Note_on_c, 0, 61, 75
2, 9645, Note_on_c, 0, 64, 0
2, 9645, Note_on_c, 0, 61, 0
2, 9648, Note_on_c, 0, 66, 75
2, 9648, Note_on_c, 0, 62, 75
2, 9648, Note_on_c, 0, 57, 75
2, 9737, Note_on_c, 0, 66, 0
2, 9737, Note_on_c, 0, 62, 0
2, 9737, Note_on_c, 0, 57, 0
2, 9792, Note_on_c, 0, 74, 75
2, 9837, Note_on_c, 0, 74, 0
2, 9840, Note_on_c, 0, 79, 75
2, 9863, Note_on_c, 0, 79, 0
2, 9864, Note_on_c, 0, 78, 75
2, 9887, Note_on_c, 0, 78, 0
2, 9888, Note_on_c, 0, 83, 75
2, 9911, Note_on_c, 0, 83, 0
2, 9912, Note_on_c, 0, 81, 75
2, 9935, Note_on_c, 0, 81, 0
2, 9936, Note_on_c, 0, 81, 75
2, 9959, Note_on_c, 0, 81, 0
2, 9960, Note_on_c, 0, 86, 75
2, 9983, Note_on_c, 0, 86, 0
2, 9984, Note_on_c, 0, 81, 75
2, 10029, Note_on_c, 0, 81, 0
2, 10080, Note_on_c, 0, 83, 75
2, 10103, Note_on_c, 0, 83, 0
2, 10104, Note_on_c, 0, 86, 75
2, 10127, Note_on_c, 0, 86, 0
2, 10128, Note_on_c, 0, 83, 75
2, 10173, Note_on_c, 0, 83, 0
2, 10224, Note_on_c, 0, 81, 75
2, 10247, Note_on_c, 0, 81, 0
2, 10248, Note_on_c, 0, 84, 75
2, 10271, Note_on_c, 0, 84, 0
2, 10272, Note_on_c, 0, 81, 75
2, 10317, Note_on_c, 0, 81, 0
2, 10368, Note_on_c, 0, 79, 75
2, 10383, Note_on_c, 0, 79, 0
2, 10384, Note_on_c, 0, 78, 75
2, 10399, Note_on_c, 0, 78, 0
2, 10400, Note_on_c, 0, 76, 75
2, 10415, Note_on_c, 0, 76, 0
2, 10416, Note_on_c, 0, 83, 75
2, 10439, Note_on_c, 0, 83, 0
2, 10440, Note_on_c, 0, 79, 75
2, 10463, Note_on_c, 0, 79, 0
2, 10464, Note_on_c, 0, 78, 75
2, 10487, Note_on_c, 0, 78, 0
2, 10488, Note_on_c, 0, 76, 75
2, 10511, Note_on_c, 0, 76, 0
2, 10512, Note_on_c, 0, 84, 91
2, 10560, Note_on_c, 0, 84, 0
2, 10656, Note_on_c, 0, 81, 73
2, 10671, Note_on_c, 0, 81, 0
2, 10672, Note_on_c, 0, 79, 73
2, 10687, Note_on_c, 0, 79, 0
2, 10688, Note_on_c, 0, 78, 73
2, 10703, Note_on_c, 0, 78, 0
2, 10704, Note_on_c, 0, 78, 73
2, 10719, Note_on_c, 0, 78, 0
2, 10720, Note_on_c, 0, 76, 73
2, 10735, Note_on_c, 0, 76, 0
2, 10736, Note_on_c, 0, 74, 73
2, 10751, Note_on_c, 0, 74, 0
2, 10752, Note_on_c, 0, 84, 73
2, 10767, Note_on_c, 0, 84, 0
2, 10768, Note_on_c, 0, 83, 73
2, 10783, Note_on_c, 0, 83, 0
2, 10784, Note_on_c, 0, 81, 73
2, 10799, Note_on_c, 0, 81, 0
2, 10800, Note_on_c, 0, 83, 88
2, 10848, Note_on_c, 0, 83, 0
2, 10944, Note_on_c, 0, 79, 71
2, 10959, Note_on_c, 0, 79, 0
2, 10960, Note_on_c, 0, 78, 71
2, 10975, Note_on_c, 0, 78, 0
2, 10976, Note_on_c, 0, 76, 71
2, 10991, Note_on_c, 0, 76, 0
2, 10992, Note_on_c, 0, 76, 71
2, 11007, Note_on_c, 0, 76, 0
2, 11008, Note_on_c, 0, 74, 71
2, 11023, Note_on_c, 0, 74, 0
2, 11024, Note_on_c, 0, 72, 71
2, 11039, Note_on_c, 0, 72, 0
2, 11040, Note_on_c, 0, 83, 71
2, 11055, Note_on_c, 0, 83, 0
2, 11056, Note_on_c, 0, 81, 71
2, 11071, Note_on_c, 0, 81, 0
2, 11072, Note_on_c, 0, 79, 71
2, 11087, Note_on_c, 0, 79, 0
2, 11088, Note_on_c, 0, 81, 86
2, 11136, Note_on_c, 0, 81, 0
2, 11232, Note_on_c, 0, 78, 70
2, 11247, Note_on_c, 0, 78, 0
2, 11248, Note_on_c, 0, 76, 70
2, 11263, Note_on_c, 0, 76, 0
2, 11264, Note_on_c, 0, 75, 70
2, 11279, Note_on_c, 0, 75, 0
2, 11280, Note_on_c, 0, 75, 70
2, 11295, Note_on_c, 0, 75, 0
2, 11296, Note_on_c, 0, 73, 70
2, 11311, Note_on_c, 0, 73, 0
2, 11312, Note_on_c, 0, 71, 70
2, 11327, Note_on_c, 0, 71, 0
2, 11328, Note_on_c, 0, 81, 81
2, 11343, Note_on_c, 0, 81, 0
2, 11344, Note_on_c, 0, 79, 81
2, 11359, Note_on_c, 0, 79, 0
2, 11360, Note_on_c, 0, 78, 81
2, 11375, Note_on_c, 0, 78, 0
2, 11376, Note_on_c, 0, 79, 81
2, 11421, Note_on_c, 0, 79, 0
2, 11424, Note_on_c, 0, 71, 81
2, 11439, Note_on_c, 0, 71, 0
2, 11440, Note_on_c, 0, 73, 81
2, 11455, Note_on_c, 0, 73, 0
2, 11456, Note_on_c, 0, 75, 81
2, 11471, Note_on_c, 0, 75, 0
2, 11472, Note_on_c, 0, 76, 81
2, 11487, Note_on_c, 0, 76, 0
2, 11488, Note_on_c, 0, 78, 81
2, 11503, Note_on_c, 0, 78, 0
2, 11504, Note_on_c, 0, 79, 81
2, 11519, Note_on_c, 0, 79, 0
2, 11520, Note_on_c, 0, 81, 81
2, 11565, Note_on_c, 0, 81, 0
2, 11568, Note_on_c, 0, 71, 81
2, 11583, Note_on_c, 0, 71, 0
2, 11584, Note_on_c, 0, 75, 81
2, 11599, Note_on_c, 0, 75, 0
2, 11600, Note_on_c, 0, 76, 81
2, 11615, Note_on_c, 0, 76, 0
2, 11616, Note_on_c, 0, 78, 81
2, 11631, Note_on_c, 0, 78, 0
2, 11632, Note_on_c, 0, 79, 81
2, 11647, Note_on_c, 0, 79, 0
2, 11648, Note_on_c, 0, 81, 81
2, 11663, Note_on_c, 0, 81, 0
2, 11664, Note_on_c, 0, 79, 81
2, 11709, Note_on_c, 0, 79, 0
2, 11712, Note_on_c, 0, 76, 81
2, 11712, Note_on_c, 0, 67, 81
2, 11757, Note_on_c, 0, 76, 0
2, 11757, Note_on_c, 0, 67, 0
2, 11760, Note_on_c, 0, 75, 81
2, 11760, Note_on_c, 0, 66, 81
2, 11805, Note_on_c, 0, 75, 0
2, 11805, Note_on_c, 0, 66, 0
2, 11808, Note_on_c, 0, 76, 81
2, 11808, Note_on_c, 0, 71, 81
2, 11808, Note_on_c, 0, 67, 81
2, 11897, Note_on_c, 0, 76, 0
2, 11897, Note_on_c, 0, 71, 0
2, 11897, Note_on_c, 0, 67, 0
2, 11952, Note_on_c, 0, 64, 70
2, 11997, Note_on_c, 0, 64, 0
2, 12000, Note_on_c, 0, 69, 70
2, 12023, Note_on_c, 0, 69, 0
2, 12024, Note_on_c, 0, 68, 70
2, 12047, Note_on_c, 0, 68, 0
2, 12048, Note_on_c, 0, 71, 70
2, 12071, Note_on_c, 0, 71, 0
2, 12072, Note_on_c, 0, 69, 70
2, 12095, Note_on_c, 0, 69, 0
2, 12096, Note_on_c, 0, 74, 70
2, 12119, Note_on_c, 0, 74, 0
2, 12120, Note_on_c, 0, 71, 70
2, 12143, Note_on_c, 0, 71, 0
2, 12144, Note_on_c, 0, 68, 70
2, 12167, Note_on_c, 0, 68, 0
2, 12168, Note_on_c, 0, 64, 70
2, 12191, Note_on_c, 0, 64, 0
2, 12192, Note_on_c, 0, 72, 70
2, 12237, Note_on_c, 0, 72, 0
2, 12240, Note_on_c, 0, 62, 75
2, 12285, Note_on_c, 0, 62, 0
2, 12288, Note_on_c, 0, 67, 75
2, 12311, Note_on_c, 0, 67, 0
2, 12312, Note_on_c, 0, 66, 75
2, 12335, Note_on_c, 0, 66, 0
2, 12336, Note_on_c, 0, 69, 75
2, 12359, Note_on_c, 0, 69, 0
2, 12360, Note_on_c, 0, 67, 75
2, 12383, Note_on_c, 0, 67, 0
2, 12384, Note_on_c, 0, 72, 75
2, 12407, Note_on_c, 0, 72, 0
2, 12408, Note_on_c, 0, 69, 75
2, 12431, Note_on_c, 0, 69, 0
2, 12432, Note_on_c, 0, 66, 75
2, 12455, Note_on_c, 0, 66, 0
2, 12456, Note_on_c, 0, 62, 75
2, 12479, Note_on_c, 0, 62, 0
2, 12480, Note_on_c, 0, 71, 75
2, 12525, Note_on_c, 0, 71, 0
2, 12528, Note_on_c, 0, 74, 70
2, 12573, Note_on_c, 0, 74, 0
2, 12576, Note_on_c, 0, 79, 70
2, 12621, Note_on_c, 0, 79, 0
2, 12624, Note_on_c, 0, 77, 71
2, 12669, Note_on_c, 0, 77, 0
2, 12672, Note_on_c, 0, 76, 72
2, 12717, Note_on_c, 0, 76, 0
2, 12720, Note_on_c, 0, 68, 72
2, 12743, Note_on_c, 0, 68, 0
2, 12744, Note_on_c, 0, 69, 73
2, 12767, Note_on_c, 0, 69, 0
2, 12768, Note_on_c, 0, 68, 73
2, 12791, Note_on_c, 0, 68, 0
2, 12792, Note_on_c, 0, 69, 74
2, 12815, Note_on_c, 0, 69, 0
2, 12816, Note_on_c, 0, 78, 74
2, 12861, Note_on_c, 0, 78, 0
2, 12864, Note_on_c, 0, 70, 75
2, 12887, Note_on_c, 0, 70, 0
2, 12888, Note_on_c, 0, 71, 75
2, 12911, Note_on_c, 0, 71, 0
2, 12912, Note_on_c, 0, 70, 75
2, 12935, Note_on_c, 0, 70, 0
2, 12936, Note_on_c, 0, 71, 76
2, 12959, Note_on_c, 0, 71, 0
2, 12960, Note_on_c, 0, 79, 76
2, 13005, Note_on_c, 0, 79, 0
2, 13008, Note_on_c, 0, 71, 77
2, 13031, Note_on_c, 0, 71, 0
2, 13032, Note_on_c, 0, 72, 77
2, 13055, Note_on_c, 0, 72, 0
2, 13056, Note_on_c, 0, 71, 78
2, 13079, Note_on_c, 0, 71, 0
2, 13080, Note_on_c, 0, 72, 78
2, 13103, Note_on_c, 0, 72, 0
2, 13104, Note_on_c, 0, 81, 78
2, 13149, Note_on_c, 0, 81, 0
2, 13152, Note_on_c, 0, 74, 79
2, 13197, Note_on_c, 0, 74, 0
2, 13200, Note_on_c, 0, 72, 80
2, 13245, Note_on_c, 0, 72, 0
2, 13248, Note_on_c, 0, 71, 81
2, 13271, Note_on_c, 0, 71, 0
2, 13272, Note_on_c, 0, 74, 80
2, 13295, Note_on_c, 0, 74, 0
2, 13296, Note_on_c, 0, 79, 79
2, 13311, Note_on_c, 0, 79, 0
2, 13312, Note_on_c, 0, 78, 79
2, 13327, Note_on_c, 0, 78, 0
2, 13328, Note_on_c, 0, 76, 79
2, 13343, Note_on_c, 0, 76, 0
2, 13344, Note_on_c, 0, 74, 78
2, 13359, Note_on_c, 0, 74, 0
2, 13360, Note_on_c, 0, 72, 78
2, 13375, Note_on_c, 0, 72, 0
2, 13376, Note_on_c, 0, 71, 78
2, 13391, Note_on_c, 0, 71, 0
2, 13392, Note_on_c, 0, 71, 78
2, 13404, Note_on_c, 0, 71, 0
2, 13404, Note_on_c, 0, 72, 78
2, 13416, Note_on_c, 0, 72, 0
2, 13416, Note_on_c, 0, 71, 78
2, 13437, Note_on_c, 0, 71, 0
2, 13440, Note_on_c, 0, 69, 76
2, 13485, Note_on_c, 0, 69, 0
2, 13536, Note_on_c, 0, 67, 75
2, 13581, Note_on_c, 0, 67, 0
2, 13584, Note_on_c, 0, 72, 75
2, 13607, Note_on_c, 0, 72, 0
2, 13608, Note_on_c, 0, 71, 75
2, 13631, Note_on_c, 0, 71, 0
2, 13632, Note_on_c, 0, 76, 75
2, 13655, Note_on_c, 0, 76, 0
2, 13656, Note_on_c, 0, 74, 75
2, 13679, Note_on_c, 0, 74, 0
2, 13680, Note_on_c, 0, 74, 75
2, 13703, Note_on_c, 0, 74, 0
2, 13704, Note_on_c, 0, 79, 75
2, 13727, Note_on_c, 0, 79, 0
2, 13728, Note_on_c, 0, 74, 75
2, 13773, Note_on_c, 0, 74, 0
2, 13824, Note_on_c, 0, 76, 75
2, 13847, Note_on_c, 0, 76, 0
2, 13848, Note_on_c, 0, 79, 75
2, 13871, Note_on_c, 0, 79, 0
2, 13872, Note_on_c, 0, 76, 75
2, 13917, Note_on_c, 0, 76, 0
2, 13968, Note_on_c, 0, 74, 75
2, 13991, Note_on_c, 0, 74, 0
2, 13992, Note_on_c, 0, 78, 75
2, 14015, Note_on_c, 0, 78, 0
2, 14016, Note_on_c, 0, 81, 75
2, 14039, Note_on_c, 0, 81, 0
2, 14040, Note_on_c, 0, 84, 75
2, 14063, Note_on_c, 0, 84, 0
2, 14064, Note_on_c, 0, 83, 75
2, 14087, Note_on_c, 0, 83, 0
2, 14088, Note_on_c, 0, 79, 75
2, 14111, Note_on_c, 0, 79, 0
2, 14112, Note_on_c, 0, 74, 75
2, 14135, Note_on_c, 0, 74, 0
2, 14136, Note_on_c, 0, 72, 75
2, 14159, Note_on_c, 0, 72, 0
2, 14160, Note_on_c, 0, 81, 75
2, 14183, Note_on_c, 0, 81, 0
2, 14184, Note_on_c, 0, 72, 75
2, 14207, Note_on_c, 0, 72, 0
2, 14208, Note_on_c, 0, 71, 75
2, 14231, Note_on_c, 0, 71, 0
2, 14232, Note_on_c, 0, 79, 75
2, 14255, Note_on_c, 0, 79, 0
2, 14256, Note_on_c, 0, 71, 75
2, 14268, Note_on_c, 0, 71, 0
2, 14268, Note_on_c, 0, 72, 75
2, 14280, Note_on_c, 0, 72, 0
2, 14280, Note_on_c, 0, 71, 75
2, 14301, Note_on_c, 0, 71, 0
2, 14304, Note_on_c, 0, 69, 75
2, 14349, Note_on_c, 0, 69, 0
2, 14400, Note_on_c, 0, 81, 81
2, 14406, Note_on_c, 0, 81, 0
2, 14406, Note_on_c, 0, 79, 81
2, 14412, Note_on_c, 0, 79, 0
2, 14412, Note_on_c, 0, 78, 81
2, 14418, Note_on_c, 0, 78, 0
2, 14418, Note_on_c, 0, 79, 81
2, 14447, Note_on_c, 0, 79, 0
2, 14448, Note_on_c, 0, 67, 81
2, 14463, Note_on_c, 0, 67, 0
2, 14464, Note_on_c, 0, 71, 81
2, 14479, Note_on_c, 0, 71, 0
2, 14480, Note_on_c, 0, 74, 81
2, 14495, Note_on_c, 0, 74, 0
2, 14496, Note_on_c, 0, 79, 81
2, 14511, Note_on_c, 0, 79, 0
2, 14512, Note_on_c, 0, 83, 81
2, 14527, Note_on_c, 0, 83, 0
2, 14528, Note_on_c, 0, 86, 81
2, 14543, Note_on_c, 0, 86, 0
2, 14544, Note_on_c, 0, 84, 81
2, 14559, Note_on_c, 0, 84, 0
2, 14560, Note_on_c, 0, 83, 81
2, 14575, Note_on_c, 0, 83, 0
2, 14576, Note_on_c, 0, 81, 81
2, 14591, Note_on_c, 0, 81, 0
2, 14592, Note_on_c, 0, 79, 81
2, 14607, Note_on_c, 0, 79, 0
2, 14608, Note_on_c, 0, 78, 81
2, 14623, Note_on_c, 0, 78, 0
2, 14624, Note_on_c, 0, 76, 81
2, 14639, Note_on_c, 0, 76, 0
2, 14640, Note_on_c, 0, 74, 81
2, 14655, Note_on_c, 0, 74, 0
2, 14656, Note_on_c, 0, 81, 81
2, 14671, Note_on_c, 0, 81, 0
2, 14672, Note_on_c, 0, 84, 81
2, 14687, Note_on_c, 0, 84, 0
2, 14688, Note_on_c, 0, 83, 81
2, 14733, Note_on_c, 0, 83, 0
2, 14736, Note_on_c, 0, 67, 81
2, 14751, Note_on_c, 0, 67, 0
2, 14752, Note_on_c, 0, 71, 81
2, 14767, Note_on_c, 0, 71, 0
2, 14768, Note_on_c, 0, 74, 81
2, 14783, Note_on_c, 0, 74, 0
2, 14784, Note_on_c, 0, 79, 81
2, 14799, Note_on_c, 0, 79, 0
2, 14800, Note_on_c, 0, 83, 81
2, 14815, Note_on_c, 0, 83, 0
2, 14816, Note_on_c, 0, 86, 81
2, 14831, Note_on_c, 0, 86, 0
2, 14832, Note_on_c, 0, 84, 81
2, 14847, Note_on_c, 0, 84, 0
2, 14848, Note_on_c, 0, 83, 81
2, 14863, Note_on_c, 0, 83, 0
2, 14864, Note_on_c, 0, 81, 81
2, 14879, Note_on_c, 0, 81, 0
2, 14880, Note_on_c, 0, 79, 81
2, 14895, Note_on_c, 0, 79, 0
2, 14896, Note_on_c, 0, 78, 81
2, 14911, Note_on_c, 0, 78, 0
2, 14912, Note_on_c, 0, 76, 81
2, 14927, Note_on_c, 0, 76, 0
2, 14928, Note_on_c, 0, 74, 81
2, 14943, Note_on_c, 0, 74, 0
2, 14944, Note_on_c, 0, 81, 81
2, 14959, Note_on_c, 0, 81, 0
2, 14960, Note_on_c, 0, 84, 81
2, 14975, Note_on_c, 0, 84, 0
2, 14976, Note_on_c, 0, 83, 81
2, 15021, Note_on_c, 0, 83, 0
2, 15040, Note_on_c, 0, 74, 75
2, 15055, Note_on_c, 0, 74, 0
2, 15056, Note_on_c, 0, 79, 75
2, 15071, Note_on_c, 0, 79, 0
2, 15088, Note_on_c, 0, 79, 75
2, 15103, Note_on_c, 0, 79, 0
2, 15104, Note_on_c, 0, 83, 75
2, 15119, Note_on_c, 0, 83, 0
2, 15136, Note_on_c, 0, 69, 75
2, 15151, Note_on_c, 0, 69, 0
2, 15152, Note_on_c, 0, 72, 75
2, 15167, Note_on_c, 0, 72, 0
2, 15184, Note_on_c, 0, 72, 75
2, 15199, Note_on_c, 0, 72, 0
2, 15200, Note_on_c, 0, 78, 75
2, 15215, Note_on_c, 0, 78, 0
2, 15232, Note_on_c, 0, 78, 75
2, 15247, Note_on_c, 0, 78, 0
2, 15248, Note_on_c, 0, 81, 75
2, 15263, Note_on_c, 0, 81, 0
2, 15280, Note_on_c, 0, 71, 75
2, 15295, Note_on_c, 0, 71, 0
2, 15296, Note_on_c, 0, 74, 75
2, 15311, Note_on_c, 0, 74, 0
2, 15328, Note_on_c, 0, 74, 75
2, 15343, Note_on_c, 0, 74, 0
2, 15344, Note_on_c, 0, 79, 75
2, 15359, Note_on_c, 0, 79, 0
2, 15376, Note_on_c, 0, 79, 75
2, 15391, Note_on_c, 0, 79, 0
2, 15392, Note_on_c, 0, 81, 75
2, 15407, Note_on_c, 0, 81, 0
2, 15424, Note_on_c, 0, 69, 75
2, 15439, Note_on_c, 0, 69, 0
2, 15440, Note_on_c, 0, 72, 75
2, 15455, Note_on_c, 0, 72, 0
2, 15472, Note_on_c, 0, 72, 75
2, 15487, Note_on_c, 0, 72, 0
2, 15488, Note_on_c, 0, 78, 75
2, 15503, Note_on_c, 0, 78, 0
2, 15520, Note_on_c, 0, 78, 75
2, 15535, Note_on_c, 0, 78, 0
2, 15536, Note_on_c, 0, 81, 75
2, 15551, Note_on_c, 0, 81, 0
2, 15552, Note_on_c, 0, 79, 81
2, 15597, Note_on_c, 0, 79, 0
2, 15600, Note_on_c, 0, 83, 81
2, 15615, Note_on_c, 0, 83, 0
2, 15616, Note_on_c, 0, 81, 81
2, 15631, Note_on_c, 0, 81, 0
2, 15632, Note_on_c, 0, 79, 81
2, 15647, Note_on_c, 0, 79, 0
2, 15648, Note_on_c, 0, 78, 81
2, 15663, Note_on_c, 0, 78, 0
2, 15664, Note_on_c, 0, 76, 81
2, 15679, Note_on_c, 0, 76, 0
2, 15680, Note_on_c, 0, 74, 81
2, 15695, Note_on_c, 0, 74, 0
2, 15696, Note_on_c, 0, 76, 81
2, 15741, Note_on_c, 0, 76, 0
2, 15744, Note_on_c, 0, 84, 81
2, 15759, Note_on_c, 0, 84, 0
2, 15760, Note_on_c, 0, 83, 81
2, 15775, Note_on_c, 0, 83, 0
2, 15776, Note_on_c, 0, 81, 81
2, 15791, Note_on_c, 0, 81, 0
2, 15792, Note_on_c, 0, 79, 81
2, 15807, Note_on_c, 0, 79, 0
2, 15808, Note_on_c, 0, 78, 81
2, 15823, Note_on_c, 0, 78, 0
2, 15824, Note_on_c, 0, 76, 81
2, 15839, Note_on_c, 0, 76, 0
2, 15840, Note_on_c, 0, 74, 81
2, 15885, Note_on_c, 0, 74, 0
2, 15888, Note_on_c, 0, 79, 81
2, 15933, Note_on_c, 0, 79, 0
2, 15936, Note_on_c, 0, 78, 81
2, 15948, Note_on_c, 0, 78, 0
2, 15948, Note_on_c, 0, 79, 81
2, 15960, Note_on_c, 0, 79, 0
2, 15960, Note_on_c, 0, 78, 81
2, 15981, Note_on_c, 0, 78, 0
2, 15984, Note_on_c, 0, 79, 81
2, 16073, Note_on_c, 0, 79, 0
2, 16176, Note_on_c, 0, 74, 81
2, 16176, Note_on_c, 0, 70, 81
2, 16224, Note_on_c, 0, 74, 0
2, 16224, Note_on_c, 0, 70, 0
2, 16224, Note_on_c, 0, 72, 81
2, 16224, Note_on_c, 0, 69, 81
2, 16269, Note_on_c, 0, 72, 0
2, 16269, Note_on_c, 0, 69, 0
2, 16320, Note_on_c, 0, 70, 81
2, 16320, Note_on_c, 0, 67, 81
2, 16368, Note_on_c, 0, 70, 0
2, 16368, Note_on_c, 0, 67, 0
2, 16368, Note_on_c, 0, 69, 81
2, 16368, Note_on_c, 0, 66, 81
2, 16413, Note_on_c, 0, 69, 0
2, 16413, Note_on_c, 0, 66, 0
2, 16464, Note_on_c, 0, 86, 81
2, 16464, Note_on_c, 0, 82, 81
2, 16512, Note_on_c, 0, 86, 0
2, 16512, Note_on_c, 0, 82, 0
2, 16512, Note_on_c, 0, 84, 81
2, 16512, Note_on_c, 0, 81, 81
2, 16557, Note_on_c, 0, 84, 0
2, 16557, Note_on_c, 0, 81, 0
2, 16608, Note_on_c, 0, 82, 81
2, 16608, Note_on_c, 0, 79, 81
2, 16656, Note_on_c, 0, 82, 0
2, 16656, Note_on_c, 0, 79, 0
2, 16656, Note_on_c, 0, 81, 81
2, 16656, Note_on_c, 0, 78, 81
2, 16701, Note_on_c, 0, 81, 0
2, 16701, Note_on_c, 0, 78, 0
2, 16704, Note_on_c, 0, 79, 81
2, 16749, Note_on_c, 0, 79, 0
2, 16752, Note_on_c, 0, 67, 81
2, 16767, Note_on_c, 0, 67, 0
2, 16768, Note_on_c, 0, 71, 81
2, 16783, Note_on_c, 0, 71, 0
2, 16784, Note_on_c, 0, 74, 81
2, 16799, Note_on_c, 0, 74, 0
2, 16800, Note_on_c, 0, 79, 81
2, 16815, Note_on_c, 0, 79, 0
2, 16816, Note_on_c, 0, 83, 81
2, 16831, Note_on_c, 0, 83, 0
2, 16832, Note_on_c, 0, 86, 81
2, 16847, Note_on_c, 0, 86, 0
2, 16848, Note_on_c, 0, 76, 81
2, 16893, Note_on_c, 0, 76, 0
2, 16896, Note_on_c, 0, 84, 81
2, 16911, Note_on_c, 0, 84, 0
2, 16912, Note_on_c, 0, 83, 81
2, 16927, Note_on_c, 0, 83, 0
2, 16928, Note_on_c, 0, 81, 81
2, 16943, Note_on_c, 0, 81, 0
2, 16944, Note_on_c, 0, 79, 81
2, 16959, Note_on_c, 0, 79, 0
2, 16960, Note_on_c, 0, 78, 81
2, 16975, Note_on_c, 0, 78, 0
2, 16976, Note_on_c, 0, 76, 81
2, 16991, Note_on_c, 0, 76, 0
2, 16992, Note_on_c, 0, 74, 81
2, 17037, Note_on_c, 0, 74, 0
2, 17040, Note_on_c, 0, 79, 75
2, 17085, Note_on_c, 0, 79, 0
2, 17088, Note_on_c, 0, 78, 75
2, 17100, Note_on_c, 0, 78, 0
2, 17100, Note_on_c, 0, 79, 75
2, 17112, Note_on_c, 0, 79, 0
2, 17112, Note_on_c, 0, 78, 75
2, 17133, Note_on_c, 0, 78, 0
2, 17136, Note_on_c, 0, 79, 75
2, 17181, Note_on_c, 0, 79, 0
2, 17184, Note_on_c, 0, 79, 75
2, 17184, Note_on_c, 0, 76, 75
2, 17229, Note_on_c, 0, 79, 0
2, 17229, Note_on_c, 0, 76, 0
2, 17232, Note_on_c, 0, 78, 75
2, 17232, Note_on_c, 0, 74, 75
2, 17277, Note_on_c, 0, 78, 0
2, 17277, Note_on_c, 0, 74, 0
2, 17280, Note_on_c, 0, 76, 75
2, 17280, Note_on_c, 0, 72, 75
2, 17325, Note_on_c, 0, 76, 0
2, 17325, Note_on_c, 0, 72, 0
2, 17328, Note_on_c, 0, 74, 75
2, 17328, Note_on_c, 0, 71, 75
2, 17373, Note_on_c, 0, 74, 0
2, 17373, Note_on_c, 0, 71, 0
2, 17376, Note_on_c, 0, 72, 75
2, 17376, Note_on_c, 0, 69, 75
2, 17421, Note_on_c, 0, 72, 0
2, 17421, Note_on_c, 0, 69, 0
2, 17424, Note_on_c, 0, 71, 75
2, 17424, Note_on_c, 0, 67, 75
2, 17469, Note_on_c, 0, 71, 0
2, 17469, Note_on_c, 0, 67, 0
2, 17472, Note_on_c, 0, 76, 75
2, 17472, Note_on_c, 0, 72, 75
2, 17517, Note_on_c, 0, 76, 0
2, 17517, Note_on_c, 0, 72, 0
2, 17520, Note_on_c, 0, 74, 75
2, 17520, Note_on_c, 0, 71, 75
2, 17565, Note_on_c, 0, 74, 0
2, 17565, Note_on_c, 0, 71, 0
2, 17568, Note_on_c, 0, 72, 75
2, 17568, Note_on_c, 0, 69, 75
2, 17613, Note_on_c, 0, 72, 0
2, 17613, Note_on_c, 0, 69, 0
2, 17616, Note_on_c, 0, 71, 75
2, 17616, Note_on_c, 0, 67, 75
2, 17661, Note_on_c, 0, 71, 0
2, 17661, Note_on_c, 0, 67, 0
2, 17664, Note_on_c, 0, 69, 75
2, 17664, Note_on_c, 0, 66, 75
2, 17709, Note_on_c, 0, 69, 0
2, 17709, Note_on_c, 0, 66, 0
2, 17712, Note_on_c, 0, 71, 75
2, 17712, Note_on_c, 0, 67, 75
2, 17712, Note_on_c, 0, 62, 75
2, 17801, Note_on_c, 0, 71, 0
2, 17801, Note_on_c, 0, 67, 0
2, 17801, Note_on_c, 0, 62, 0
2, 17856, Note_on_c, 0, 74, 75
2, 17901, Note_on_c, 0, 74, 0
2, 17904, Note_on_c, 0, 79, 75
2, 17927, Note_on_c, 0, 79, 0
2, 17928, Note_on_c, 0, 78, 75
2, 17951, Note_on_c, 0, 78, 0
2, 17952, Note_on_c, 0, 83, 75
2, 17975, Note_on_c, 0, 83, 0
2, 17976, Note_on_c, 0, 81, 75
2, 17999, Note_on_c, 0, 81, 0
2, 18000, Note_on_c, 0, 81, 75
2, 18023, Note_on_c, 0, 81, 0
2, 18024, Note_on_c, 0, 86, 75
2, 18047, Note_on_c, 0, 86, 0
2, 18048, Note_on_c, 0, 81, 75
2, 18093, Note_on_c, 0, 81, 0
2, 18144, Note_on_c, 0, 83, 75
2, 18167, Note_on_c, 0, 83, 0
2, 18168, Note_on_c, 0, 86, 75
2, 18191, Note_on_c, 0, 86, 0
2, 18192, Note_on_c, 0, 83, 75
2, 18237, Note_on_c, 0, 83, 0
2, 18288, Note_on_c, 0, 81, 75
2, 18311, Note_on_c, 0, 81, 0
2, 18312, Note_on_c, 0, 84, 75
2, 18335, Note_on_c, 0, 84, 0
2, 18336, Note_on_c, 0, 81, 75
2, 18381, Note_on_c, 0, 81, 0
2, 18432, Note_on_c, 0, 79, 75
2, 18447, Note_on_c, 0, 79, 0
2, 18448, Note_on_c, 0, 78, 75
2, 18463, Note_on_c, 0, 78, 0
2, 18464, Note_on_c, 0, 76, 75
2, 18479, Note_on_c, 0, 76, 0
2, 18480, Note_on_c, 0, 83, 75
2, 18503, Note_on_c, 0, 83, 0
2, 18504, Note_on_c, 0, 79, 75
2, 18527, Note_on_c, 0, 79, 0
2, 18528, Note_on_c, 0, 78, 75
2, 18551, Note_on_c, 0, 78, 0
2, 18552, Note_on_c, 0, 76, 75
2, 18575, Note_on_c, 0, 76, 0
2, 18576, Note_on_c, 0, 84, 91
2, 18624, Note_on_c, 0, 84, 0
2, 18720, Note_on_c, 0, 81, 73
2, 18735, Note_on_c, 0, 81, 0
2, 18736, Note_on_c, 0, 79, 73
2, 18751, Note_on_c, 0, 79, 0
2, 18752, Note_on_c, 0, 78, 73
2, 18767, Note_on_c, 0, 78, 0
2, 18768, Note_on_c, 0, 78, 73
2, 18783, Note_on_c, 0, 78, 0
2, 18784, Note_on_c, 0, 76, 73
2, 18799, Note_on_c, 0, 76, 0
2, 18800, Note_on_c, 0, 74, 73
2, 18815, Note_on_c, 0, 74, 0
2, 18816, Note_on_c, 0, 84, 73
2, 18831, Note_on_c, 0, 84, 0
2, 18832, Note_on_c, 0, 83, 73
2, 18847, Note_on_c, 0, 83, 0
2, 18848, Note_on_c, 0, 81, 73
2, 18863, Note_on_c, 0, 81, 0
2, 18864, Note_on_c, 0, 83, 88
2, 18912, Note_on_c, 0, 83, 0
2, 19008, Note_on_c, 0, 79, 71
2, 19023, Note_on_c, 0, 79, 0
2, 19024, Note_on_c, 0, 78, 71
2, 19039, Note_on_c, 0, 78, 0
2, 19040, Note_on_c, 0, 76, 71
2, 19055, Note_on_c, 0, 76, 0
2, 19056, Note_on_c, 0, 76, 71
2, 19071, Note_on_c, 0, 76, 0
2, 19072, Note_on_c, 0, 74, 71
2, 19087, Note_on_c, 0, 74, 0
2, 19088, Note_on_c, 0, 72, 71
2, 19103, Note_on_c, 0, 72, 0
2, 19104, Note_on_c, 0, 83, 71
2, 19119, Note_on_c, 0, 83, 0
2, 19120, Note_on_c, 0, 81, 71
2, 19135, Note_on_c, 0, 81, 0
2, 19136, Note_on_c, 0, 79, 71
2, 19151, Note_on_c, 0, 79, 0
2, 19152, Note_on_c, 0, 81, 86
2, 19200, Note_on_c, 0, 81, 0
2, 19296, Note_on_c, 0, 78, 70
2, 19311, Note_on_c, 0, 78, 0
2, 19312, Note_on_c, 0, 76, 70
2, 19327, Note_on_c, 0, 76, 0
2, 19328, Note_on_c, 0, 75, 70
2, 19343, Note_on_c, 0, 75, 0
2, 19344, Note_on_c, 0, 75, 70
2, 19359, Note_on_c, 0, 75, 0
2, 19360, Note_on_c, 0, 73, 70
2, 19375, Note_on_c, 0, 73, 0
2, 19376, Note_on_c, 0, 71, 70
2, 19391, Note_on_c, 0, 71, 0
2, 19392, Note_on_c, 0, 81, 81
2, 19407, Note_on_c, 0, 81, 0
2, 19408, Note_on_c, 0, 79, 81
2, 19423, Note_on_c, 0, 79, 0
2, 19424, Note_on_c, 0, 78, 81
2, 19439, Note_on_c, 0, 78, 0
2, 19440, Note_on_c, 0, 79, 81
2, 19485, Note_on_c, 0, 79, 0
2, 19488, Note_on_c, 0, 71, 81
2, 19503, Note_on_c, 0, 71, 0
2, 19504, Note_on_c, 0, 73, 81
2, 19519, Note_on_c, 0, 73, 0
2, 19520, Note_on_c, 0, 75, 81
2, 19535, Note_on_c, 0, 75, 0
2, 19536, Note_on_c, 0, 76, 81
2, 19551, Note_on_c, 0, 76, 0
2, 19552, Note_on_c, 0, 78, 81
2, 19567, Note_on_c, 0, 78, 0
2, 19568, Note_on_c, 0, 79, 81
2, 19583, Note_on_c, 0, 79, 0
2, 19584, Note_on_c, 0, 81, 81
2, 19629, Note_on_c, 0, 81, 0
2, 19632, Note_on_c, 0, 71, 81
2, 19647, Note_on_c, 0, 71, 0
2, 19648, Note_on_c, 0, 75, 81
2, 19663, Note_on_c, 0, 75, 0
2, 19664, Note_on_c, 0, 76, 81
2, 19679, Note_on_c, 0, 76, 0
2, 19680, Note_on_c, 0, 78, 81
2, 19695, Note_on_c, 0, 78, 0
2, 19696, Note_on_c, 0, 79, 81
2, 19711, Note_on_c, 0, 79, 0
2, 19712, Note_on_c, 0, 81, 81
2, 19727, Note_on_c, 0, 81, 0
2, 19728, Note_on_c, 0, 79, 81
2, 19773, Note_on_c, 0, 79, 0
2, 19776, Note_on_c, 0, 76, 81
2, 19776, Note_on_c, 0, 67, 81
2, 19821, Note_on_c, 0, 76, 0
2, 19821, Note_on_c, 0, 67, 0
2, 19824, Note_on_c, 0, 75, 81
2, 19824, Note_on_c, 0, 66, 81
2, 19869, Note_on_c, 0, 75, 0
2, 19869, Note_on_c, 0, 66, 0
2, 19872, Note_on_c, 0, 76, 81
2, 19872, Note_on_c, 0, 71, 81
2, 19872, Note_on_c, 0, 67, 81
2, 19961, Note_on_c, 0, 76, 0
2, 19961, Note_on_c, 0, 71, 0
2, 19961, Note_on_c, 0, 67, 0
2, 20016, Note_on_c, 0, 64, 70
2, 20061, Note_on_c, 0, 64, 0
2, 20064, Note_on_c, 0, 69, 70
2, 20087, Note_on_c, 0, 69, 0
2, 20088, Note_on_c, 0, 68, 70
2, 20111, Note_on_c, 0, 68, 0
2, 20112, Note_on_c, 0, 71, 70
2, 20135, Note_on_c, 0, 71, 0
2, 20136, Note_on_c, 0, 69, 70
2, 20159, Note_on_c, 0, 69, 0
2, 20160, Note_on_c, 0, 74, 70
2, 20183, Note_on_c, 0, 74, 0
2, 20184, Note_on_c, 0, 71, 70
2, 20207, Note_on_c, 0, 71, 0
2, 20208, Note_on_c, 0, 68, 70
2, 20231, Note_on_c, 0, 68, 0
2, 20232, Note_on_c, 0, 64, 70
2, 20255, Note_on_c, 0, 64, 0
2, 20256, Note_on_c, 0, 72, 70
2, 20301, Note_on_c, 0, 72, 0
2, 20304, Note_on_c, 0, 62, 75
2, 20349, Note_on_c, 0, 62, 0
2, 20352, Note_on_c, 0, 67, 75
2, 20375, Note_on_c, 0, 67, 0
2, 20376, Note_on_c, 0, 66, 75
2, 20399, Note_on_c, 0, 66, 0
2, 20400, Note_on_c, 0, 69, 75
2, 20423, Note_on_c, 0, 69, 0
2, 20424, Note_on_c, 0, 67, 75
2, 20447, Note_on_c, 0, 67, 0
2, 20448, Note_on_c, 0, 72, 75
2, 20471, Note_on_c, 0, 72, 0
2, 20472, Note_on_c, 0, 69, 75
2, 20495, Note_on_c, 0, 69, 0
2, 20496, Note_on_c, 0, 66, 75
2, 20519, Note_on_c, 0, 66, 0
2, 20520, Note_on_c, 0, 62, 75
2, 20543, Note_on_c, 0, 62, 0
2, 20544, Note_on_c, 0, 71, 75
2, 20589, Note_on_c, 0, 71, 0
2, 20592, Note_on_c, 0, 74, 70
2, 20637, Note_on_c, 0, 74, 0
2, 20640, Note_on_c, 0, 79, 70
2, 20685, Note_on_c, 0, 79, 0
2, 20688, Note_on_c, 0, 77, 71
2, 20733, Note_on_c, 0, 77, 0
2, 20736, Note_on_c, 0, 76, 72
2, 20781, Note_on_c, 0, 76, 0
2, 20784, Note_on_c, 0, 68, 72
2, 20807, Note_on_c, 0, 68, 0
2, 20808, Note_on_c, 0, 69, 73
2, 20831, Note_on_c, 0, 69, 0
2, 20832, Note_on_c, 0, 68, 73
2, 20855, Note_on_c, 0, 68, 0
2, 20856, Note_on_c, 0, 69, 74
2, 20879, Note_on_c, 0, 69, 0
2, 20880, Note_on_c, 0, 78, 74
2, 20925, Note_on_c, 0, 78, 0
2, 20928, Note_on_c, 0, 70, 75
2, 20951, Note_on_c, 0, 70, 0
2, 20952, Note_on_c, 0, 71, 75
2, 20975, Note_on_c, 0, 71, 0
2, 20976, Note_on_c, 0, 70, 75
2, 20999, Note_on_c, 0, 70, 0
2, 21000, Note_on_c, 0, 71, 76
2, 21023, Note_on_c, 0, 71, 0
2, 21024, Note_on_c, 0, 79, 76
2, 21069, Note_on_c, 0, 79, 0
2, 21072, Note_on_c, 0, 71, 77
2, 21095, Note_on_c, 0, 71, 0
2, 21096, Note_on_c, 0, 72, 77
2, 21119, Note_on_c, 0, 72, 0
2, 21120, Note_on_c, 0, 71, 78
2, 21143, Note_on_c, 0, 71, 0
2, 21144, Note_on_c, 0, 72, 78
2, 21167, Note_on_c, 0, 72, 0
2, 21168, Note_on_c, 0, 81, 78
2, 21213, Note_on_c, 0, 81, 0
2, 21216, Note_on_c, 0, 74, 79
2, 21261, Note_on_c, 0, 74, 0
2, 21264, Note_on_c, 0, 72, 80
2, 21309, Note_on_c, 0, 72, 0
2, 21312, Note_on_c, 0, 71, 81
2, 21335, Note_on_c, 0, 71, 0
2, 21336, Note_on_c, 0, 74, 80
2, 21359, Note_on_c, 0, 74, 0
2, 21360, Note_on_c, 0, 79, 79
2, 21375, Note_on_c, 0, 79, 0
2, 21376, Note_on_c, 0, 78, 79
2, 21391, Note_on_c, 0, 78, 0
2, 21392, Note_on_c, 0, 76, 79
2, 21407, Note_on_c, 0, 76, 0
2, 21408, Note_on_c, 0, 74, 78
2, 21423, Note_on_c, 0, 74, 0
2, 21424, Note_on_c, 0, 72, 78
2, 21439, Note_on_c, 0, 72, 0
2, 21440, Note_on_c, 0, 71, 78
2, 21455, Note_on_c, 0, 71, 0
2, 21456, Note_on_c, 0, 71, 78
2, 21468, Note_on_c, 0, 71, 0
2, 21468, Note_on_c, 0, 72, 78
2, 21480, Note_on_c, 0, 72, 0
2, 21480, Note_on_c, 0, 71, 78
2, 21501, Note_on_c, 0, 71, 0
2, 21504, Note_on_c, 0, 69, 76
2, 21549, Note_on_c, 0, 69, 0
2, 21600, Note_on_c, 0, 67, 75
2, 21645, Note_on_c, 0, 67, 0
2, 21648, Note_on_c, 0, 72, 75
2, 21671, Note_on_c, 0, 72, 0
2, 21672, Note_on_c, 0, 71, 75
2, 21695, Note_on_c, 0, 71, 0
2, 21696, Note_on_c, 0, 76, 75
2, 21719, Note_on_c, 0, 76, 0
2, 21720, Note_on_c, 0, 74, 75
2, 21743, Note_on_c, 0, 74, 0
2, 21744, Note_on_c, 0, 74, 75
2, 21767, Note_on_c, 0, 74, 0
2, 21768, Note_on_c, 0, 79, 75
2, 21791, Note_on_c, 0, 79, 0
2, 21792, Note_on_c, 0, 74, 75
2, 21837, Note_on_c, 0, 74, 0
2, 21888, Note_on_c, 0, 76, 75
2, 21911, Note_on_c, 0, 76, 0
2, 21912, Note_on_c, 0, 79, 75
2, 21935, Note_on_c, 0, 79, 0
2, 21936, Note_on_c, 0, 76, 75
2, 21981, Note_on_c, 0, 76, 0
2, 22032, Note_on_c, 0, 74, 75
2, 22055, Note_on_c, 0, 74, 0
2, 22056, Note_on_c, 0, 78, 75
2, 22079, Note_on_c, 0, 78, 0
2, 22080, Note_on_c, 0, 81, 75
2, 22103, Note_on_c, 0, 81, 0
2, 22104, Note_on_c, 0, 84, 75
2, 22127, Note_on_c, 0, 84, 0
2, 22128, Note_on_c, 0, 83, 75
2, 22151, Note_on_c, 0, 83, 0
2, 22152, Note_on_c, 0, 79, 75
2, 22175, Note_on_c, 0, 79, 0
2, 22176, Note_on_c, 0, 74, 75
2, 22199, Note_on_c, 0, 74, 0
2, 22200, Note_on_c, 0, 72, 75
2, 22223, Note_on_c, 0, 72, 0
2, 22224, Note_on_c, 0, 81, 75
2, 22247, Note_on_c, 0, 81, 0
2, 22248, Note_on_c, 0, 72, 75
2, 22271, Note_on_c, 0, 72, 0
2, 22272, Note_on_c, 0, 71, 75
2, 22295, Note_on_c, 0, 71, 0
2, 22296, Note_on_c, 0, 79, 75
2, 22319, Note_on_c, 0, 79, 0
2, 22320, Note_on_c, 0, 71, 75
2, 22332, Note_on_c, 0, 71, 0
2, 22332, Note_on_c, 0, 72, 75
2, 22344, Note_on_c, 0, 72, 0
2, 22344, Note_on_c, 0, 71, 75
2, 22365, Note_on_c, 0, 71, 0
2, 22368, Note_on_c, 0, 69, 75
2, 22413, Note_on_c, 0, 69, 0
2, 22464, Note_on_c, 0, 81, 81
2, 22470, Note_on_c, 0, 81, 0
2, 22470, Note_on_c, 0, 79, 81
2, 22476, Note_on_c, 0, 79, 0
2, 22476, Note_on_c, 0, 78, 81
2, 22482, Note_on_c, 0, 78, 0
2, 22482, Note_on_c, 0, 79, 81
2, 22511, Note_on_c, 0, 79, 0
2, 22512, Note_on_c, 0, 67, 81
2, 22527, Note_on_c, 0, 67, 0
2, 22528, Note_on_c, 0, 71, 81
2, 22543, Note_on_c, 0, 71, 0
2, 22544, Note_on_c, 0, 74, 81
2, 22559, Note_on_c, 0, 74, 0
2, 22560, Note_on_c, 0, 79, 81
2, 22575, Note_on_c, 0, 79, 0
2, 22576, Note_on_c, 0, 83, 81
2, 22591, Note_on_c, 0, 83, 0
2, 22592, Note_on_c, 0, 86, 81
2, 22607, Note_on_c, 0, 86, 0
2, 22608, Note_on_c, 0, 84, 81
2, 22623, Note_on_c, 0, 84, 0
2, 22624, Note_on_c, 0, 83, 81
2, 22639, Note_on_c, 0, 83, 0
2, 22640, Note_on_c, 0, 81, 81
2, 22655, Note_on_c, 0, 81, 0
2, 22656, Note_on_c, 0, 79, 81
2, 22671, Note_on_c, 0, 79, 0
2, 22672, Note_on_c, 0, 78, 81
2, 22687, Note_on_c, 0, 78, 0
2, 22688, Note_on_c, 0, 76, 81
2, 22703, Note_on_c, 0, 76, 0
2, 22704, Note_on_c, 0, 74, 81
2, 22719, Note_on_c, 0, 74, 0
2, 22720, Note_on_c, 0, 81, 81
2, 22735, Note_on_c, 0, 81, 0
2, 22736, Note_on_c, 0, 84, 81
2, 22751, Note_on_c, 0, 84, 0
2, 22752, Note_on_c, 0, 83, 81
2, 22797, Note_on_c, 0, 83, 0
2, 22800, Note_on_c, 0, 67, 81
2, 22815, Note_on_c, 0, 67, 0
2, 22816, Note_on_c, 0, 71, 81
2, 22831, Note_on_c, 0, 71, 0
2, 22832, Note_on_c, 0, 74, 81
2, 22847, Note_on_c, 0, 74, 0
2, 22848, Note_on_c, 0, 79, 81
2, 22863, Note_on_c, 0, 79, 0
2, 22864, Note_on_c, 0, 83, 81
2, 22879, Note_on_c, 0, 83, 0
2, 22880, Note_on_c, 0, 86, 81
2, 22895, Note_on_c, 0, 86, 0
2, 22896, Note_on_c, 0, 84, 81
2, 22911, Note_on_c, 0, 84, 0
2, 22912, Note_on_c, 0, 83, 81
2, 22927, Note_on_c, 0, 83, 0
2, 22928, Note_on_c, 0, 81, 81
2, 22943, Note_on_c, 0, 81, 0
2, 22944, Note_on_c, 0, 79, 81
2, 22959, Note_on_c, 0, 79, 0
2, 22960, Note_on_c, 0, 78, 81
2, 22975, Note_on_c, 0, 78, 0
2, 22976, Note_on_c, 0, 76, 81
2, 22991, Note_on_c, 0, 76, 0
2, 22992, Note_on_c, 0, 74, 81
2, 23007, Note_on_c, 0, 74, 0
2, 23008, Note_on_c, 0, 81, 81
2, 23023, Note_on_c, 0, 81, 0
2, 23024, Note_on_c, 0, 84, 81
2, 23039, Note_on_c, 0, 84, 0
2, 23040, Note_on_c, 0, 83, 81
2, 23085, Note_on_c, 0, 83, 0
2, 23104, Note_on_c, 0, 74, 75
2, 23119, Note_on_c, 0, 74, 0
2, 23120, Note_on_c, 0, 79, 75
2, 23135, Note_on_c, 0, 79, 0
2, 23152, Note_on_c, 0, 79, 75
2, 23167, Note_on_c, 0, 79, 0
2, 23168, Note_on_c, 0, 83, 75
2, 23183, Note_on_c, 0, 83, 0
2, 23200, Note_on_c, 0, 69, 75
2, 23215, Note_on_c, 0, 69, 0
2, 23216, Note_on_c, 0, 72, 75
2, 23231, Note_on_c, 0, 72, 0
2, 23248, Note_on_c, 0, 72, 75
2, 23263, Note_on_c, 0, 72, 0
2, 23264, Note_on_c, 0, 78, 75
2, 23279, Note_on_c, 0, 78, 0
2, 23296, Note_on_c, 0, 78, 75
2, 23311, Note_on_c, 0, 78, 0
2, 23312, Note_on_c, 0, 81, 75
2, 23327, Note_on_c, 0, 81, 0
2, 23344, Note_on_c, 0, 71, 75
2, 23359, Note_on_c, 0, 71, 0
2, 23360, Note_on_c, 0, 74, 75
2, 23375, Note_on_c, 0, 74, 0
2, 23392, Note_on_c, 0, 74, 75
2, 23407, Note_on_c, 0, 74, 0
2, 23408, Note_on_c, 0, 79, 75
2, 23423, Note_on_c, 0, 79, 0
2, 23440, Note_on_c, 0, 79, 75
2, 23455, Note_on_c, 0, 79, 0
2, 23456, Note_on_c, 0, 81, 75
2, 23471, Note_on_c, 0, 81, 0
2, 23488, Note_on_c, 0, 69, 75
2, 23503, Note_on_c, 0, 69, 0
2, 23504, Note_on_c, 0, 72, 75
2, 23519, Note_on_c, 0, 72, 0
2, 23536, Note_on_c, 0, 72, 75
2, 23551, Note_on_c, 0, 72, 0
2, 23552, Note_on_c, 0, 78, 75
2, 23567, Note_on_c, 0, 78, 0
2, 23584, Note_on_c, 0, 78, 75
2, 23599, Note_on_c, 0, 78, 0
2, 23600, Note_on_c, 0, 81, 75
2, 23615, Note_on_c, 0, 81, 0
2, 23616, Note_on_c, 0, 79, 81
2, 23661, Note_on_c, 0, 79, 0
2, 23664, Note_on_c, 0, 83, 81
2, 23679, Note_on_c, 0, 83, 0
2, 23680, Note_on_c, 0, 81, 81
2, 23695, Note_on_c, 0, 81, 0
2, 23696, Note_on_c, 0, 79, 81
2, 23711, Note_on_c, 0, 79, 0
2, 23712, Note_on_c, 0, 78, 81
2, 23727, Note_on_c, 0, 78, 0
2, 23728, Note_on_c, 0, 76, 81
2, 23743, Note_on_c, 0, 76, 0
2, 23744, Note_on_c, 0, 74, 81
2, 23759, Note_on_c, 0, 74, 0
2, 23760, Note_on_c, 0, 76, 81
2, 23805, Note_on_c, 0, 76, 0
2, 23808, Note_on_c, 0, 84, 81
2, 23823, Note_on_c, 0, 84, 0
2, 23824, Note_on_c, 0, 83, 81
2, 23839, Note_on_c, 0, 83, 0
2, 23840, Note_on_c, 0, 81, 81
2, 23855, Note_on_c, 0, 81, 0
2, 23856, Note_on_c, 0, 79, 81
2, 23871, Note_on_c, 0, 79, 0
2, 23872, Note_on_c, 0, 78, 81
2, 23887, Note_on_c, 0, 78, 0
2, 23888, Note_on_c, 0, 76, 81
2, 23903, Note_on_c, 0, 76, 0
2, 23904, Note_on_c, 0, 74, 81
2, 23949, Note_on_c, 0, 74, 0
2, 23952, Note_on_c, 0, 79, 81
2, 23997, Note_on_c, 0, 79, 0
2, 24000, Note_on_c, 0, 78, 81
2, 24012, Note_on_c, 0, 78, 0
2, 24012, Note_on_c, 0, 79, 81
2, 24024, Note_on_c, 0, 79, 0
2, 24024, Note_on_c, 0, 78, 81
2, 24045, Note_on_c, 0, 78, 0
2, 24048, Note_on_c, 0, 79, 81
2, 24137, Note_on_c, 0, 79, 0
2, 24240, Note_on_c, 0, 74, 81
2, 24240, Note_on_c, 0, 70, 81
2, 24288, Note_on_c, 0, 74, 0
2, 24288, Note_on_c, 0, 70, 0
2, 24288, Note_on_c, 0, 72, 81
2, 24288, Note_on_c, 0, 69, 81
2, 24333, Note_on_c, 0, 72, 0
2, 24333, Note_on_c, 0, 69, 0
2, 24384, Note_on_c, 0, 70, 81
2, 24384, Note_on_c, 0, 67, 81
2, 24432, Note_on_c, 0, 70, 0
2, 24432, Note_on_c, 0, 67, 0
2, 24432, Note_on_c, 0, 69, 81
2, 24432, Note_on_c, 0, 66, 81
2, 24477, Note_on_c, 0, 69, 0
2, 24477, Note_on_c, 0, 66, 0
2, 24528, Note_on_c, 0, 86, 81
2, 24528, Note_on_c, 0, 82, 81
2, 24576, Note_on_c, 0, 86, 0
2, 24576, Note_on_c, 0, 82, 0
2, 24576, Note_on_c, 0, 84, 81
2, 24576, Note_on_c, 0, 81, 81
2, 24621, Note_on_c, 0, 84, 0
2, 24621, Note_on_c, 0, 81, 0
2, 24672, Note_on_c, 0, 82, 81
2, 24672, Note_on_c, 0, 79, 81
2, 24720, Note_on_c, 0, 82, 0
2, 24720, Note_on_c, 0, 79, 0
2, 24720, Note_on_c, 0, 81, 81
2, 24720, Note_on_c, 0, 78, 81
2, 24765, Note_on_c, 0, 81, 0
2, 24765, Note_on_c, 0, 78, 0
2, 24768, Note_on_c, 0, 79, 81
2, 24813, Note_on_c, 0, 79, 0
2, 24816, Note_on_c, 0, 67, 81
2, 24831, Note_on_c, 0, 67, 0
2, 24832, Note_on_c, 0, 71, 81
2, 24847, Note_on_c, 0, 71, 0
2, 24848, Note_on_c, 0, 74, 81
2, 24863, Note_on_c, 0, 74, 0
2, 24864, Note_on_c, 0, 79, 81
2, 24879, Note_on_c, 0, 79, 0
2, 24880, Note_on_c, 0, 83, 81
2, 24895, Note_on_c, 0, 83, 0
2, 24896, Note_on_c, 0, 86, 81
2, 24911, Note_on_c, 0, 86, 0
2, 24912, Note_on_c, 0, 76, 81
2, 24957, Note_on_c, 0, 76, 0
2, 24960, Note_on_c, 0, 84, 81
2, 24975, Note_on_c, 0, 84, 0
2, 24976, Note_on_c, 0, 83, 81
2, 24991, Note_on_c, 0, 83, 0
2, 24992, Note_on_c, 0, 81, 81
2, 25007, Note_on_c, 0, 81, 0
2, 25008, Note_on_c, 0, 79, 81
2, 25023, Note_on_c, 0, 79, 0
2, 25024, Note_on_c, 0, 78, 81
2, 25039, Note_on_c, 0, 78, 0
2, 25040, Note_on_c, 0, 76, 81
2, 25055, Note_on_c, 0, 76, 0
2, 25056, Note_on_c, 0, 74, 81
2, 25101, Note_on_c, 0, 74, 0
2, 25104, Note_on_c, 0, 79, 75
2, 25149, Note_on_c, 0, 79, 0
2, 25152, Note_on_c, 0, 78, 75
2, 25164, Note_on_c, 0, 78, 0
2, 25164, Note_on_c, 0, 79, 75
2, 25176, Note_on_c, 0, 79, 0
2, 25176, Note_on_c, 0, 78, 75
2, 25197, Note_on_c, 0, 78, 0
2, 25200, Note_on_c, 0, 79, 75
2, 25245, Note_on_c, 0, 79, 0
2, 25248, Note_on_c, 0, 79, 75
2, 25248, Note_on_c, 0, 76, 75
2, 25293, Note_on_c, 0, 79, 0
2, 25293, Note_on_c, 0, 76, 0
2, 25296, Note_on_c, 0, 78, 75
2, 25296, Note_on_c, 0, 74, 75
2, 25341, Note_on_c, 0, 78, 0
2, 25341, Note_on_c, 0, 74, 0
2, 25344, Note_on_c, 0, 76, 75
2, 25344, Note_on_c, 0, 72, 75
2, 25389, Note_on_c, 0, 76, 0
2, 25389, Note_on_c, 0, 72, 0
2, 25392, Note_on_c, 0, 74, 75
2, 25392, Note_on_c, 0, 71, 75
2, 25437, Note_on_c, 0, 74, 0
2, 25437, Note_on_c, 0, 71, 0
2, 25440, Note_on_c, 0, 72, 75
2, 25440, Note_on_c, 0, 69, 75
2, 25485, Note_on_c, 0, 72, 0
2, 25485, Note_on_c, 0, 69, 0
2, 25488, Note_on_c, 0, 71, 75
2, 25488, Note_on_c, 0, 67, 75
2, 25533, Note_on_c, 0, 71, 0
2, 25533, Note_on_c, 0, 67, 0
2, 25536, Note_on_c, 0, 76, 75
2, 25536, Note_on_c, 0, 72, 75
2, 25581, Note_on_c, 0, 76, 0
2, 25581, Note_on_c, 0, 72, 0
2, 25584, Note_on_c, 0, 74, 75
2, 25584, Note_on_c, 0, 71, 75
2, 25629, Note_on_c, 0, 74, 0
2, 25629, Note_on_c, 0, 71, 0
2, 25632, Note_on_c, 0, 72, 75
2, 25632, Note_on_c, 0, 69, 75
2, 25677, Note_on_c, 0, 72, 0
2, 25677, Note_on_c, 0, 69, 0
2, 25680, Note_on_c, 0, 71, 75
2, 25680, Note_on_c, 0, 67, 75
2, 25725, Note_on_c, 0, 71, 0
2, 25725, Note_on_c, 0, 67, 0
2, 25728, Note_on_c, 0, 69, 75
2, 25728, Note_on_c, 0, 66, 75
2, 25773, Note_on_c, 0, 69, 0
2, 25773, Note_on_c, 0, 66, 0
2, 25776, Note_on_c, 0, 71, 75
2, 25776, Note_on_c, 0, 67, 75
2, 25776, Note_on_c, 0, 62, 75
2, 25865, Note_on_c, 0, 71, 0
2, 25865, Note_on_c, 0, 67, 0
2, 25865, Note_on_c, 0, 62, 0
2, 25920, End_track
3, 0, Start_track
3, 0, Program_c, 0, 0
3, 0, Control_c, 0, 7, 127
3, 0, Control_c, 0, 10, 64
3, 25920, End_track
4, 0, Start_track
4, 0, Program_c, 1, 0
4, 0, Control_c, 1, 7, 127
4, 0, Control_c, 1, 10, 64
4, 0, Note_on_c, 1, 59, 64
4, 0, Note_on_c, 1, 55, 64
4, 89, Note_on_c, 1, 59, 0
4, 89, Note_on_c, 1, 55, 0
4, 144, Note_on_c, 1, 59, 64
4, 144, Note_on_c, 1, 55, 64
4, 189, Note_on_c, 1, 59, 0
4, 189, Note_on_c, 1, 55, 0
4, 192, Note_on_c, 1, 59, 64
4, 192, Note_on_c, 1, 55, 64
4, 237, Note_on_c, 1, 59, 0
4, 237, Note_on_c, 1, 55, 0
4, 240, Note_on_c, 1, 59, 64
4, 240, Note_on_c, 1, 55, 64
4, 285, Note_on_c, 1, 59, 0
4, 285, Note_on_c, 1, 55, 0
4, 288, Note_on_c, 1, 60, 64
4, 288, Note_on_c, 1, 55, 64
4, 333, Note_on_c, 1, 60, 0
4, 333, Note_on_c, 1, 55, 0
4, 336, Note_on_c, 1, 60, 64
4, 336, Note_on_c, 1, 55, 64
4, 381, Note_on_c, 1, 60, 0
4, 381, Note_on_c, 1, 55, 0
4, 384, Note_on_c, 1, 60, 64
4, 384, Note_on_c, 1, 55, 64
4, 429, Note_on_c, 1, 60, 0
4, 429, Note_on_c, 1, 55, 0
4, 480, Note_on_c, 1, 54, 64
4, 525, Note_on_c, 1, 54, 0
4, 528, Note_on_c, 1, 55, 64
4, 573, Note_on_c, 1, 55, 0
4, 576, Note_on_c, 1, 59, 64
4, 621, Note_on_c, 1, 59, 0
4, 624, Note_on_c, 1, 57, 64
4, 669, Note_on_c, 1, 57, 0
4, 672, Note_on_c, 1, 55, 64
4, 717, Note_on_c, 1, 55, 0
4, 768, Note_on_c, 1, 54, 64
4, 813, Note_on_c, 1, 54, 0
4, 816, Note_on_c, 1, 55, 64
4, 861, Note_on_c, 1, 55, 0
4, 912, Note_on_c, 1, 60, 64
4, 957, Note_on_c, 1, 60, 0
4, 960, Note_on_c, 1, 59, 64
4, 1005, Note_on_c, 1, 59, 0
4, 1008, Note_on_c, 1, 57, 64
4, 1053, Note_on_c, 1, 57, 0
4, 1056, Note_on_c, 1, 54, 64
4, 1101, Note_on_c, 1, 54, 0
4, 1104, Note_on_c, 1, 55, 64
4, 1149, Note_on_c, 1, 55, 0
4, 1152, Note_on_c, 1, 57, 64
4, 1197, Note_on_c, 1, 57, 0
4, 1200, Note_on_c, 1, 54, 64
4, 1245, Note_on_c, 1, 54, 0
4, 1248, Note_on_c, 1, 55, 64
4, 1293, Note_on_c, 1, 55, 0
4, 1296, Note_on_c, 1, 55, 64
4, 1341, Note_on_c, 1, 55, 0
4, 1344, Note_on_c, 1, 54, 64
4, 1389, Note_on_c, 1, 54, 0
4, 1440, Note_on_c, 1, 57, 81
4, 1440, Note_on_c, 1, 54, 81
4, 1440, Note_on_c, 1, 50, 81
4, 1485, Note_on_c, 1, 57, 0
4, 1485, Note_on_c, 1, 54, 0
4, 1485, Note_on_c, 1, 50, 0
4, 1584, Note_on_c, 1, 57, 81
4, 1584, Note_on_c, 1, 52, 81
4, 1584, Note_on_c, 1, 49, 81
4, 1629, Note_on_c, 1, 57, 0
4, 1629, Note_on_c, 1, 52, 0
4, 1629, Note_on_c, 1, 49, 0
4, 1728, Note_on_c, 1, 57, 81
4, 1728, Note_on_c, 1, 54, 81
4, 1728, Note_on_c, 1, 50, 81
4, 1773, Note_on_c, 1, 57, 0
4, 1773, Note_on_c, 1, 54, 0
4, 1773, Note_on_c, 1, 50, 0
4, 1872, Note_on_c, 1, 57, 81
4, 1872, Note_on_c, 1, 52, 81
4, 1872, Note_on_c, 1, 49, 81
4, 1917, Note_on_c, 1, 57, 0
4, 1917, Note_on_c, 1, 52, 0
4, 1917, Note_on_c, 1, 49, 0
4, 2016, Note_on_c, 1, 57, 81
4, 2016, Note_on_c, 1, 54, 81
4, 2016, Note_on_c, 1, 50, 81
4, 2061, Note_on_c, 1, 57, 0
4, 2061, Note_on_c, 1, 54, 0
4, 2061, Note_on_c, 1, 50, 0
4, 2064, Note_on_c, 1, 66, 75
4, 2109, Note_on_c, 1, 66, 0
4, 2112, Note_on_c, 1, 69, 75
4, 2157, Note_on_c, 1, 69, 0
4, 2160, Note_on_c, 1, 74, 75
4, 2205, Note_on_c, 1, 74, 0
4, 2208, Note_on_c, 1, 69, 75
4, 2253, Note_on_c, 1, 69, 0
4, 2256, Note_on_c, 1, 66, 75
4, 2301, Note_on_c, 1, 66, 0
4, 2304, Note_on_c, 1, 57, 75
4, 2349, Note_on_c, 1, 57, 0
4, 2352, Note_on_c, 1, 64, 75
4, 2397, Note_on_c, 1, 64, 0
4, 2400, Note_on_c, 1, 67, 75
4, 2445, Note_on_c, 1, 67, 0
4, 2448, Note_on_c, 1, 73, 75
4, 2493, Note_on_c, 1, 73, 0
4, 2496, Note_on_c, 1, 67, 75
4, 2541, Note_on_c, 1, 67, 0
4, 2544, Note_on_c, 1, 64, 75
4, 2589, Note_on_c, 1, 64, 0
4, 2592, Note_on_c, 1, 54, 81
4, 2592, Note_on_c, 1, 42, 81
4, 2725, Note_on_c, 1, 54, 0
4, 2725, Note_on_c, 1, 42, 0
4, 2736, Note_on_c, 1, 55, 81
4, 2736, Note_on_c, 1, 43, 81
4, 2869, Note_on_c, 1, 55, 0
4, 2869, Note_on_c, 1, 43, 0
4, 2928, Note_on_c, 1, 54, 81
4, 2973, Note_on_c, 1, 54, 0
4, 2976, Note_on_c, 1, 52, 81
4, 3021, Note_on_c, 1, 52, 0
4, 3024, Note_on_c, 1, 50, 81
4, 3069, Note_on_c, 1, 50, 0
4, 3072, Note_on_c, 1, 38, 81
4, 3117, Note_on_c, 1, 38, 0
4, 3168, Note_on_c, 1, 45, 70
4, 3191, Note_on_c, 1, 45, 0
4, 3192, Note_on_c, 1, 57, 70
4, 3215, Note_on_c, 1, 57, 0
4, 3216, Note_on_c, 1, 56, 70
4, 3239, Note_on_c, 1, 56, 0
4, 3240, Note_on_c, 1, 57, 70
4, 3263, Note_on_c, 1, 57, 0
4, 3264, Note_on_c, 1, 45, 70
4, 3287, Note_on_c, 1, 45, 0
4, 3288, Note_on_c, 1, 57, 70
4, 3311, Note_on_c, 1, 57, 0
4, 3312, Note_on_c, 1, 45, 70
4, 3335, Note_on_c, 1, 45, 0
4, 3336, Note_on_c, 1, 57, 70
4, 3359, Note_on_c, 1, 57, 0
4, 3360, Note_on_c, 1, 56, 70
4, 3383, Note_on_c, 1, 56, 0
4, 3384, Note_on_c, 1, 57, 70
4, 3407, Note_on_c, 1, 57, 0
4, 3408, Note_on_c, 1, 45, 70
4, 3431, Note_on_c, 1, 45, 0
4, 3432, Note_on_c, 1, 57, 70
4, 3455, Note_on_c, 1, 57, 0
4, 3456, Note_on_c, 1, 45, 70
4, 3479, Note_on_c, 1, 45, 0
4, 3480, Note_on_c, 1, 57, 70
4, 3503, Note_on_c, 1, 57, 0
4, 3504, Note_on_c, 1, 56, 70
4, 3527, Note_on_c, 1, 56, 0
4, 3528, Note_on_c, 1, 57, 70
4, 3551, Note_on_c, 1, 57, 0
4, 3552, Note_on_c, 1, 45, 70
4, 3575, Note_on_c, 1, 45, 0
4, 3576, Note_on_c, 1, 57, 70
4, 3599, Note_on_c, 1, 57, 0
4, 3600, Note_on_c, 1, 45, 70
4, 3623, Note_on_c, 1, 45, 0
4, 3624, Note_on_c, 1, 57, 70
4, 3647, Note_on_c, 1, 57, 0
4, 3648, Note_on_c, 1, 56, 70
4, 3671, Note_on_c, 1, 56, 0
4, 3672, Note_on_c, 1, 57, 70
4, 3695, Note_on_c, 1, 57, 0
4, 3696, Note_on_c, 1, 45, 70
4, 3719, Note_on_c, 1, 45, 0
4, 3720, Note_on_c, 1, 57, 70
4, 3743, Note_on_c, 1, 57, 0
4, 3744, Note_on_c, 1, 54, 81
4, 3833, Note_on_c, 1, 54, 0
4, 3888, Note_on_c, 1, 55, 81
4, 3888, Note_on_c, 1, 43, 81
4, 3977, Note_on_c, 1, 55, 0
4, 3977, Note_on_c, 1, 43, 0
4, 4080, Note_on_c, 1, 54, 81
4, 4125, Note_on_c, 1, 54, 0
4, 4128, Note_on_c, 1, 52, 81
4, 4173, Note_on_c, 1, 52, 0
4, 4176, Note_on_c, 1, 38, 81
4, 4199, Note_on_c, 1, 38, 0
4, 4200, Note_on_c, 1, 50, 81
4, 4223, Note_on_c, 1, 50, 0
4, 4224, Note_on_c, 1, 38, 81
4, 4247, Note_on_c, 1, 38, 0
4, 4248, Note_on_c, 1, 50, 75
4, 4271, Note_on_c, 1, 50, 0
4, 4272, Note_on_c, 1, 38, 75
4, 4295, Note_on_c, 1, 38, 0
4, 4296, Note_on_c, 1, 50, 75
4, 4319, Note_on_c, 1, 50, 0
4, 4320, Note_on_c, 1, 38, 75
4, 4343, Note_on_c, 1, 38, 0
4, 4344, Note_on_c, 1, 50, 75
4, 4367, Note_on_c, 1, 50, 0
4, 4368, Note_on_c, 1, 38, 75
4, 4391, Note_on_c, 1, 38, 0
4, 4392, Note_on_c, 1, 50, 75
4, 4415, Note_on_c, 1, 50, 0
4, 4416, Note_on_c, 1, 38, 75
4, 4439, Note_on_c, 1, 38, 0
4, 4440, Note_on_c, 1, 50, 75
4, 4463, Note_on_c, 1, 50, 0
4, 4464, Note_on_c, 1, 38, 75
4, 4487, Note_on_c, 1, 38, 0
4, 4488, Note_on_c, 1, 50, 75
4, 4511, Note_on_c, 1, 50, 0
4, 4512, Note_on_c, 1, 38, 75
4, 4535, Note_on_c, 1, 38, 0
4, 4536, Note_on_c, 1, 50, 75
4, 4559, Note_on_c, 1, 50, 0
4, 4560, Note_on_c, 1, 38, 75
4, 4583, Note_on_c, 1, 38, 0
4, 4584, Note_on_c, 1, 50, 75
4, 4607, Note_on_c, 1, 50, 0
4, 4608, Note_on_c, 1, 38, 75
4, 4631, Note_on_c, 1, 38, 0
4, 4632, Note_on_c, 1, 50, 75
4, 4655, Note_on_c, 1, 50, 0
4, 4656, Note_on_c, 1, 38, 75
4, 4679, Note_on_c, 1, 38, 0
4, 4680, Note_on_c, 1, 50, 75
4, 4703, Note_on_c, 1, 50, 0
4, 4704, Note_on_c, 1, 38, 75
4, 4727, Note_on_c, 1, 38, 0
4, 4728, Note_on_c, 1, 50, 75
4, 4751, Note_on_c, 1, 50, 0
4, 4752, Note_on_c, 1, 38, 75
4, 4841, Note_on_c, 1, 38, 0
4, 4896, Note_on_c, 1, 59, 64
4, 4896, Note_on_c, 1, 55, 64
4, 4985, Note_on_c, 1, 59, 0
4, 4985, Note_on_c, 1, 55, 0
4, 5040, Note_on_c, 1, 59, 64
4, 5040, Note_on_c, 1, 55, 64
4, 5085, Note_on_c, 1, 59, 0
4, 5085, Note_on_c, 1, 55, 0
4, 5088, Note_on_c, 1, 59, 64
4, 5088, Note_on_c, 1, 55, 64
4, 5133, Note_on_c, 1, 59, 0
4, 5133, Note_on_c, 1, 55, 0
4, 5136, Note_on_c, 1, 59, 64
4, 5136, Note_on_c, 1, 55, 64
4, 5181, Note_on_c, 1, 59, 0
4, 5181, Note_on_c, 1, 55, 0
4, 5184, Note_on_c, 1, 60, 64
4, 5184, Note_on_c, 1, 55, 64
4, 5229, Note_on_c, 1, 60, 0
4, 5229, Note_on_c, 1, 55, 0
4, 5232, Note_on_c, 1, 60, 64
4, 5232, Note_on_c, 1, 55, 64
4, 5277, Note_on_c, 1, 60, 0
4, 5277, Note_on_c, 1, 55, 0
4, 5280, Note_on_c, 1, 60, 64
4, 5280, Note_on_c, 1, 55, 64
4, 5325, Note_on_c, 1, 60, 0
4, 5325, Note_on_c, 1, 55, 0
4, 5376, Note_on_c, 1, 54, 64
4, 5421, Note_on_c, 1, 54, 0
4, 5424, Note_on_c, 1, 55, 64
4, 5469, Note_on_c, 1, 55, 0
4, 5472, Note_on_c, 1, 59, 64
4, 5517, Note_on_c, 1, 59, 0
4, 5520, Note_on_c, 1, 57, 64
4, 5565, Note_on_c, 1, 57, 0
4, 5568, Note_on_c, 1, 55, 64
4, 5613, Note_on_c, 1, 55, 0
4, 5664, Note_on_c, 1, 54, 64
4, 5709, Note_on_c, 1, 54, 0
4, 5712, Note_on_c, 1, 55, 64
4, 5757, Note_on_c, 1, 55, 0
4, 5808, Note_on_c, 1, 60, 64
4, 5853, Note_on_c, 1, 60, 0
4, 5856, Note_on_c, 1, 59, 64
4, 5901, Note_on_c, 1, 59, 0
4, 5904, Note_on_c, 1, 57, 64
4, 5949, Note_on_c, 1, 57, 0
4, 5952, Note_on_c, 1, 54, 64
4, 5997, Note_on_c, 1, 54, 0
4, 6000, Note_on_c, 1, 55, 64
4, 6045, Note_on_c, 1, 55, 0
4, 6048, Note_on_c, 1, 57, 64
4, 6093, Note_on_c, 1, 57, 0
4, 6096, Note_on_c, 1, 54, 64
4, 6141, Note_on_c, 1, 54, 0
4, 6144, Note_on_c, 1, 55, 64
4, 6189, Note_on_c, 1, 55, 0
4, 6192, Note_on_c, 1, 55, 64
4, 6237, Note_on_c, 1, 55, 0
4, 6240, Note_on_c, 1, 54, 64
4, 6285, Note_on_c, 1, 54, 0
4, 6336, Note_on_c, 1, 57, 81
4, 6336, Note_on_c, 1, 54, 81
4, 6336, Note_on_c, 1, 50, 81
4, 6381, Note_on_c, 1, 57, 0
4, 6381, Note_on_c, 1, 54, 0
4, 6381, Note_on_c, 1, 50, 0
4, 6480, Note_on_c, 1, 57, 81
4, 6480, Note_on_c, 1, 52, 81
4, 6480, Note_on_c, 1, 49, 81
4, 6525, Note_on_c, 1, 57, 0
4, 6525, Note_on_c, 1, 52, 0
4, 6525, Note_on_c, 1, 49, 0
4, 6624, Note_on_c, 1, 57, 81
4, 6624, Note_on_c, 1, 54, 81
4, 6624, Note_on_c, 1, 50, 81
4, 6669, Note_on_c, 1, 57, 0
4, 6669, Note_on_c, 1, 54, 0
4, 6669, Note_on_c, 1, 50, 0
4, 6768, Note_on_c, 1, 57, 81
4, 6768, Note_on_c, 1, 52, 81
4, 6768, Note_on_c, 1, 49, 81
4, 6813, Note_on_c, 1, 57, 0
4, 6813, Note_on_c, 1, 52, 0
4, 6813, Note_on_c, 1, 49, 0
4, 6912, Note_on_c, 1, 57, 81
4, 6912, Note_on_c, 1, 54, 81
4, 6912, Note_on_c, 1, 50, 81
4, 6957, Note_on_c, 1, 57, 0
4, 6957, Note_on_c, 1, 54, 0
4, 6957, Note_on_c, 1, 50, 0
4, 6960, Note_on_c, 1, 66, 75
4, 7005, Note_on_c, 1, 66, 0
4, 7008, Note_on_c, 1, 69, 75
4, 7053, Note_on_c, 1, 69, 0
4, 7056, Note_on_c, 1, 74, 75
4, 7101, Note_on_c, 1, 74, 0
4, 7104, Note_on_c, 1, 69, 75
4, 7149, Note_on_c, 1, 69, 0
4, 7152, Note_on_c, 1, 66, 75
4, 7197, Note_on_c, 1, 66, 0
4, 7200, Note_on_c, 1, 57, 75
4, 7245, Note_on_c, 1, 57, 0
4, 7248, Note_on_c, 1, 64, 75
4, 7293, Note_on_c, 1, 64, 0
4, 7296, Note_on_c, 1, 67, 75
4, 7341, Note_on_c, 1, 67, 0
4, 7344, Note_on_c, 1, 73, 75
4, 7389, Note_on_c, 1, 73, 0
4, 7392, Note_on_c, 1, 67, 75
4, 7437, Note_on_c, 1, 67, 0
4, 7440, Note_on_c, 1, 64, 75
4, 7485, Note_on_c, 1, 64, 0
4, 7488, Note_on_c, 1, 54, 81
4, 7488, Note_on_c, 1, 42, 81
4, 7621, Note_on_c, 1, 54, 0
4, 7621, Note_on_c, 1, 42, 0
4, 7632, Note_on_c, 1, 55, 81
4, 7632, Note_on_c, 1, 43, 81
4, 7765, Note_on_c, 1, 55, 0
4, 7765, Note_on_c, 1, 43, 0
4, 7824, Note_on_c, 1, 54, 81
4, 7869, Note_on_c, 1, 54, 0
4, 7872, Note_on_c, 1, 52, 81
4, 7917, Note_on_c, 1, 52, 0
4, 7920, Note_on_c, 1, 50, 81
4, 7965, Note_on_c, 1, 50, 0
4, 7968, Note_on_c, 1, 38, 81
4, 8013, Note_on_c, 1, 38, 0
4, 8064, Note_on_c, 1, 45, 70
4, 8087, Note_on_c, 1, 45, 0
4, 8088, Note_on_c, 1, 57, 70
4, 8111, Note_on_c, 1, 57, 0
4, 8112, Note_on_c, 1, 56, 70
4, 8135, Note_on_c, 1, 56, 0
4, 8136, Note_on_c, 1, 57, 70
4, 8159, Note_on_c, 1, 57, 0
4, 8160, Note_on_c, 1, 45, 70
4, 8183, Note_on_c, 1, 45, 0
4, 8184, Note_on_c, 1, 57, 70
4, 8207, Note_on_c, 1, 57, 0
4, 8208, Note_on_c, 1, 45, 70
4, 8231, Note_on_c, 1, 45, 0
4, 8232, Note_on_c, 1, 57, 70
4, 8255, Note_on_c, 1, 57, 0
4, 8256, Note_on_c, 1, 56, 70
4, 8279, Note_on_c, 1, 56, 0
4, 8280, Note_on_c, 1, 57, 70
4, 8303, Note_on_c, 1, 57, 0
4, 8304, Note_on_c, 1, 45, 70
4, 8327, Note_on_c, 1, 45, 0
4, 8328, Note_on_c, 1, 57, 70
4, 8351, Note_on_c, 1, 57, 0
4, 8352, Note_on_c, 1, 45, 70
4, 8375, Note_on_c, 1, 45, 0
4, 8376, Note_on_c, 1, 57, 70
4, 8399, Note_on_c, 1, 57, 0
4, 8400, Note_on_c, 1, 56, 70
4, 8423, Note_on_c, 1, 56, 0
4, 8424, Note_on_c, 1, 57, 70
4, 8447, Note_on_c, 1, 57, 0
4, 8448, Note_on_c, 1, 45, 70
4, 8471, Note_on_c, 1, 45, 0
4, 8472, Note_on_c, 1, 57, 70
4, 8495, Note_on_c, 1, 57, 0
4, 8496, Note_on_c, 1, 45, 70
4, 8519, Note_on_c, 1, 45, 0
4, 8520, Note_on_c, 1, 57, 70
4, 8543, Note_on_c, 1, 57, 0
4, 8544, Note_on_c, 1, 56, 70
4, 8567, Note_on_c, 1, 56, 0
4, 8568, Note_on_c, 1, 57, 70
4, 8591, Note_on_c, 1, 57, 0
4, 8592, Note_on_c, 1, 45, 70
4, 8615, Note_on_c, 1, 45, 0
4, 8616, Note_on_c, 1, 57, 70
4, 8639, Note_on_c, 1, 57, 0
4, 8640, Note_on_c, 1, 54, 81
4, 8729, Note_on_c, 1, 54, 0
4, 8784, Note_on_c, 1, 55, 81
4, 8784, Note_on_c, 1, 43, 81
4, 8873, Note_on_c, 1, 55, 0
4, 8873, Note_on_c, 1, 43, 0
4, 8976, Note_on_c, 1, 54, 81
4, 9021, Note_on_c, 1, 54, 0
4, 9024, Note_on_c, 1, 52, 81
4, 9069, Note_on_c, 1, 52, 0
4, 9072, Note_on_c, 1, 38, 81
4, 9095, Note_on_c, 1, 38, 0
4, 9096, Note_on_c, 1, 50, 81
4, 9119, Note_on_c, 1, 50, 0
4, 9120, Note_on_c, 1, 38, 81
4, 9143, Note_on_c, 1, 38, 0
4, 9144, Note_on_c, 1, 50, 75
4, 9167, Note_on_c, 1, 50, 0
4, 9168, Note_on_c, 1, 38, 75
4, 9191, Note_on_c, 1, 38, 0
4, 9192, Note_on_c, 1, 50, 75
4, 9215, Note_on_c, 1, 50, 0
4, 9216, Note_on_c, 1, 38, 75
4, 9239, Note_on_c, 1, 38, 0
4, 9240, Note_on_c, 1, 50, 75
4, 9263, Note_on_c, 1, 50, 0
4, 9264, Note_on_c, 1, 38, 75
4, 9287, Note_on_c, 1, 38, 0
4, 9288, Note_on_c, 1, 50, 75
4, 9311, Note_on_c, 1, 50, 0
4, 9312, Note_on_c, 1, 38, 75
4, 9335, Note_on_c, 1, 38, 0
4, 9336, Note_on_c, 1, 50, 75
4, 9359, Note_on_c, 1, 50, 0
4, 9360, Note_on_c, 1, 38, 75
4, 9383, Note_on_c, 1, 38, 0
4, 9384, Note_on_c, 1, 50, 75
4, 9407, Note_on_c, 1, 50, 0
4, 9408, Note_on_c, 1, 38, 75
4, 9431, Note_on_c, 1, 38, 0
4, 9432, Note_on_c, 1, 50, 75
4, 9455, Note_on_c, 1, 50, 0
4, 9456, Note_on_c, 1, 38, 75
4, 9479, Note_on_c, 1, 38, 0
4, 9480, Note_on_c, 1, 50, 75
4, 9503, Note_on_c, 1, 50, 0
4, 9504, Note_on_c, 1, 38, 75
4, 9527, Note_on_c, 1, 38, 0
4, 9528, Note_on_c, 1, 50, 75
4, 9551, Note_on_c, 1, 50, 0
4, 9552, Note_on_c, 1, 38, 75
4, 9575, Note_on_c, 1, 38, 0
4, 9576, Note_on_c, 1, 50, 75
4, 9599, Note_on_c, 1, 50, 0
4, 9600, Note_on_c, 1, 38, 75
4, 9623, Note_on_c, 1, 38, 0
4, 9624, Note_on_c, 1, 50, 75
4, 9647, Note_on_c, 1, 50, 0
4, 9648, Note_on_c, 1, 38, 75
4, 9737, Note_on_c, 1, 38, 0
4, 9792, Note_on_c, 1, 66, 75
4, 9792, Note_on_c, 1, 62, 75
4, 9881, Note_on_c, 1, 66, 0
4, 9881, Note_on_c, 1, 62, 0
4, 9936, Note_on_c, 1, 66, 75
4, 9936, Note_on_c, 1, 62, 75
4, 9981, Note_on_c, 1, 66, 0
4, 9981, Note_on_c, 1, 62, 0
4, 9984, Note_on_c, 1, 66, 75
4, 9984, Note_on_c, 1, 62, 75
4, 10029, Note_on_c, 1, 66, 0
4, 10029, Note_on_c, 1, 62, 0
4, 10032, Note_on_c, 1, 66, 75
4, 10032, Note_on_c, 1, 62, 75
4, 10077, Note_on_c, 1, 66, 0
4, 10077, Note_on_c, 1, 62, 0
4, 10080, Note_on_c, 1, 67, 75
4, 10080, Note_on_c, 1, 62, 75
4, 10125, Note_on_c, 1, 67, 0
4, 10125, Note_on_c, 1, 62, 0
4, 10128, Note_on_c, 1, 67, 75
4, 10128, Note_on_c, 1, 62, 75
4, 10173, Note_on_c, 1, 67, 0
4, 10173, Note_on_c, 1, 62, 0
4, 10176, Note_on_c, 1, 67, 75
4, 10176, Note_on_c, 1, 62, 75
4, 10221, Note_on_c, 1, 67, 0
4, 10221, Note_on_c, 1, 62, 0
4, 10224, Note_on_c, 1, 66, 91
4, 10224, Note_on_c, 1, 63, 91
4, 10272, Note_on_c, 1, 66, 0
4, 10272, Note_on_c, 1, 63, 0
4, 10272, Note_on_c, 1, 66, 75
4, 10272, Note_on_c, 1, 63, 75
4, 10317, Note_on_c, 1, 66, 0
4, 10317, Note_on_c, 1, 63, 0
4, 10320, Note_on_c, 1, 66, 75
4, 10320, Note_on_c, 1, 63, 75
4, 10365, Note_on_c, 1, 66, 0
4, 10365, Note_on_c, 1, 63, 0
4, 10368, Note_on_c, 1, 64, 75
4, 10457, Note_on_c, 1, 64, 0
4, 10512, Note_on_c, 1, 57, 75
4, 10535, Note_on_c, 1, 57, 0
4, 10536, Note_on_c, 1, 69, 74
4, 10559, Note_on_c, 1, 69, 0
4, 10560, Note_on_c, 1, 68, 74
4, 10583, Note_on_c, 1, 68, 0
4, 10584, Note_on_c, 1, 69, 74
4, 10607, Note_on_c, 1, 69, 0
4, 10608, Note_on_c, 1, 55, 74
4, 10631, Note_on_c, 1, 55, 0
4, 10632, Note_on_c, 1, 67, 74
4, 10655, Note_on_c, 1, 67, 0
4, 10656, Note_on_c, 1, 54, 73
4, 10701, Note_on_c, 1, 54, 0
4, 10800, Note_on_c, 1, 55, 72
4, 10823, Note_on_c, 1, 55, 0
4, 10824, Note_on_c, 1, 67, 72
4, 10847, Note_on_c, 1, 67, 0
4, 10848, Note_on_c, 1, 66, 72
4, 10871, Note_on_c, 1, 66, 0
4, 10872, Note_on_c, 1, 67, 72
4, 10895, Note_on_c, 1, 67, 0
4, 10896, Note_on_c, 1, 54, 71
4, 10919, Note_on_c, 1, 54, 0
4, 10920, Note_on_c, 1, 66, 71
4, 10943, Note_on_c, 1, 66, 0
4, 10944, Note_on_c, 1, 52, 71
4, 10989, Note_on_c, 1, 52, 0
4, 11088, Note_on_c, 1, 54, 70
4, 11111, Note_on_c, 1, 54, 0
4, 11112, Note_on_c, 1, 66, 70
4, 11135, Note_on_c, 1, 66, 0
4, 11136, Note_on_c, 1, 64, 70
4, 11159, Note_on_c, 1, 64, 0
4, 11160, Note_on_c, 1, 66, 70
4, 11183, Note_on_c, 1, 66, 0
4, 11184, Note_on_c, 1, 52, 70
4, 11207, Note_on_c, 1, 52, 0
4, 11208, Note_on_c, 1, 64, 70
4, 11231, Note_on_c, 1, 64, 0
4, 11232, Note_on_c, 1, 51, 70
4, 11277, Note_on_c, 1, 51, 0
4, 11328, Note_on_c, 1, 59, 81
4, 11328, Note_on_c, 1, 54, 81
4, 11328, Note_on_c, 1, 51, 81
4, 11373, Note_on_c, 1, 59, 0
4, 11373, Note_on_c, 1, 54, 0
4, 11373, Note_on_c, 1, 51, 0
4, 11376, Note_on_c, 1, 59, 81
4, 11376, Note_on_c, 1, 55, 81
4, 11376, Note_on_c, 1, 52, 81
4, 11421, Note_on_c, 1, 59, 0
4, 11421, Note_on_c, 1, 55, 0
4, 11421, Note_on_c, 1, 52, 0
4, 11472, Note_on_c, 1, 59, 81
4, 11472, Note_on_c, 1, 55, 81
4, 11472, Note_on_c, 1, 52, 81
4, 11517, Note_on_c, 1, 59, 0
4, 11517, Note_on_c, 1, 55, 0
4, 11517, Note_on_c, 1, 52, 0
4, 11520, Note_on_c, 1, 59, 81
4, 11520, Note_on_c, 1, 54, 81
4, 11520, Note_on_c, 1, 51, 81
4, 11565, Note_on_c, 1, 59, 0
4, 11565, Note_on_c, 1, 54, 0
4, 11565, Note_on_c, 1, 51, 0
4, 11616, Note_on_c, 1, 59, 81
4, 11616, Note_on_c, 1, 54, 81
4, 11616, Note_on_c, 1, 51, 81
4, 11661, Note_on_c, 1, 59, 0
4, 11661, Note_on_c, 1, 54, 0
4, 11661, Note_on_c, 1, 51, 0
4, 11664, Note_on_c, 1, 59, 81
4, 11664, Note_on_c, 1, 55, 81
4, 11664, Note_on_c, 1, 52, 81
4, 11709, Note_on_c, 1, 59, 0
4, 11709, Note_on_c, 1, 55, 0
4, 11709, Note_on_c, 1, 52, 0
4, 11712, Note_on_c, 1, 59, 81
4, 11757, Note_on_c, 1, 59, 0
4, 11760, Note_on_c, 1, 47, 81
4, 11805, Note_on_c, 1, 47, 0
4, 11808, Note_on_c, 1, 52, 81
4, 11853, Note_on_c, 1, 52, 0
4, 11856, Note_on_c, 1, 47, 81
4, 11901, Note_on_c, 1, 47, 0
4, 11904, Note_on_c, 1, 40, 81
4, 11949, Note_on_c, 1, 40, 0
4, 12096, Note_on_c, 1, 52, 70
4, 12141, Note_on_c, 1, 52, 0
4, 12144, Note_on_c, 1, 56, 70
4, 12189, Note_on_c, 1, 56, 0
4, 12192, Note_on_c, 1, 57, 70
4, 12237, Note_on_c, 1, 57, 0
4, 12384, Note_on_c, 1, 50, 75
4, 12429, Note_on_c, 1, 50, 0
4, 12432, Note_on_c, 1, 54, 75
4, 12477, Note_on_c, 1, 54, 0
4, 12480, Note_on_c, 1, 55, 75
4, 12525, Note_on_c, 1, 55, 0
4, 12528, Note_on_c, 1, 47, 70
4, 12551, Note_on_c, 1, 47, 0
4, 12552, Note_on_c, 1, 59, 70
4, 12575, Note_on_c, 1, 59, 0
4, 12576, Note_on_c, 1, 57, 70
4, 12599, Note_on_c, 1, 57, 0
4, 12600, Note_on_c, 1, 59, 71
4, 12623, Note_on_c, 1, 59, 0
4, 12624, Note_on_c, 1, 47, 71
4, 12647, Note_on_c, 1, 47, 0
4, 12648, Note_on_c, 1, 59, 71
4, 12671, Note_on_c, 1, 59, 0
4, 12672, Note_on_c, 1, 48, 72
4, 12695, Note_on_c, 1, 48, 0
4, 12696, Note_on_c, 1, 60, 72
4, 12719, Note_on_c, 1, 60, 0
4, 12720, Note_on_c, 1, 59, 72
4, 12743, Note_on_c, 1, 59, 0
4, 12744, Note_on_c, 1, 60, 73
4, 12767, Note_on_c, 1, 60, 0
4, 12768, Note_on_c, 1, 48, 73
4, 12791, Note_on_c, 1, 48, 0
4, 12792, Note_on_c, 1, 60, 74
4, 12815, Note_on_c, 1, 60, 0
4, 12816, Note_on_c, 1, 50, 74
4, 12839, Note_on_c, 1, 50, 0
4, 12840, Note_on_c, 1, 62, 74
4, 12863, Note_on_c, 1, 62, 0
4, 12864, Note_on_c, 1, 61, 75
4, 12887, Note_on_c, 1, 61, 0
4, 12888, Note_on_c, 1, 62, 75
4, 12911, Note_on_c, 1, 62, 0
4, 12912, Note_on_c, 1, 50, 75
4, 12935, Note_on_c, 1, 50, 0
4, 12936, Note_on_c, 1, 62, 76
4, 12959, Note_on_c, 1, 62, 0
4, 12960, Note_on_c, 1, 52, 76
4, 12983, Note_on_c, 1, 52, 0
4, 12984, Note_on_c, 1, 64, 76
4, 13007, Note_on_c, 1, 64, 0
4, 13008, Note_on_c, 1, 62, 77
4, 13031, Note_on_c, 1, 62, 0
4, 13032, Note_on_c, 1, 64, 77
4, 13055, Note_on_c, 1, 64, 0
4, 13056, Note_on_c, 1, 52, 78
4, 13079, Note_on_c, 1, 52, 0
4, 13080, Note_on_c, 1, 64, 78
4, 13103, Note_on_c, 1, 64, 0
4, 13104, Note_on_c, 1, 54, 78
4, 13127, Note_on_c, 1, 54, 0
4, 13128, Note_on_c, 1, 66, 79
4, 13151, Note_on_c, 1, 66, 0
4, 13152, Note_on_c, 1, 64, 79
4, 13175, Note_on_c, 1, 64, 0
4, 13176, Note_on_c, 1, 66, 79
4, 13199, Note_on_c, 1, 66, 0
4, 13200, Note_on_c, 1, 54, 80
4, 13223, Note_on_c, 1, 54, 0
4, 13224, Note_on_c, 1, 66, 80
4, 13247, Note_on_c, 1, 66, 0
4, 13248, Note_on_c, 1, 55, 81
4, 13293, Note_on_c, 1, 55, 0
4, 13392, Note_on_c, 1, 55, 77
4, 13437, Note_on_c, 1, 55, 0
4, 13440, Note_on_c, 1, 54, 76
4, 13485, Note_on_c, 1, 54, 0
4, 13536, Note_on_c, 1, 59, 75
4, 13536, Note_on_c, 1, 55, 75
4, 13625, Note_on_c, 1, 59, 0
4, 13625, Note_on_c, 1, 55, 0
4, 13680, Note_on_c, 1, 59, 75
4, 13680, Note_on_c, 1, 55, 75
4, 13725, Note_on_c, 1, 59, 0
4, 13725, Note_on_c, 1, 55, 0
4, 13728, Note_on_c, 1, 59, 75
4, 13728, Note_on_c, 1, 55, 75
4, 13773, Note_on_c, 1, 59, 0
4, 13773, Note_on_c, 1, 55, 0
4, 13776, Note_on_c, 1, 59, 75
4, 13776, Note_on_c, 1, 55, 75
4, 13821, Note_on_c, 1, 59, 0
4, 13821, Note_on_c, 1, 55, 0
4, 13824, Note_on_c, 1, 60, 75
4, 13824, Note_on_c, 1, 55, 75
4, 13869, Note_on_c, 1, 60, 0
4, 13869, Note_on_c, 1, 55, 0
4, 13872, Note_on_c, 1, 60, 75
4, 13872, Note_on_c, 1, 55, 75
4, 13917, Note_on_c, 1, 60, 0
4, 13917, Note_on_c, 1, 55, 0
4, 13920, Note_on_c, 1, 60, 75
4, 13920, Note_on_c, 1, 55, 75
4, 13965, Note_on_c, 1, 60, 0
4, 13965, Note_on_c, 1, 55, 0
4, 14016, Note_on_c, 1, 54, 75
4, 14061, Note_on_c, 1, 54, 0
4, 14064, Note_on_c, 1, 55, 75
4, 14109, Note_on_c, 1, 55, 0
4, 14112, Note_on_c, 1, 57, 75
4, 14157, Note_on_c, 1, 57, 0
4, 14160, Note_on_c, 1, 54, 75
4, 14205, Note_on_c, 1, 54, 0
4, 14208, Note_on_c, 1, 55, 75
4, 14253, Note_on_c, 1, 55, 0
4, 14256, Note_on_c, 1, 55, 75
4, 14301, Note_on_c, 1, 55, 0
4, 14304, Note_on_c, 1, 54, 75
4, 14349, Note_on_c, 1, 54, 0
4, 14400, Note_on_c, 1, 62, 81
4, 14400, Note_on_c, 1, 59, 81
4, 14400, Note_on_c, 1, 55, 81
4, 14445, Note_on_c, 1, 62, 0
4, 14445, Note_on_c, 1, 59, 0
4, 14445, Note_on_c, 1, 55, 0
4, 14544, Note_on_c, 1, 62, 81
4, 14544, Note_on_c, 1, 57, 81
4, 14544, Note_on_c, 1, 54, 81
4, 14589, Note_on_c, 1, 62, 0
4, 14589, Note_on_c, 1, 57, 0
4, 14589, Note_on_c, 1, 54, 0
4, 14688, Note_on_c, 1, 62, 81
4, 14688, Note_on_c, 1, 59, 81
4, 14688, Note_on_c, 1, 55, 81
4, 14733, Note_on_c, 1, 62, 0
4, 14733, Note_on_c, 1, 59, 0
4, 14733, Note_on_c, 1, 55, 0
4, 14832, Note_on_c, 1, 62, 81
4, 14832, Note_on_c, 1, 57, 81
4, 14832, Note_on_c, 1, 54, 81
4, 14877, Note_on_c, 1, 62, 0
4, 14877, Note_on_c, 1, 57, 0
4, 14877, Note_on_c, 1, 54, 0
4, 14976, Note_on_c, 1, 62, 81
4, 14976, Note_on_c, 1, 59, 81
4, 14976, Note_on_c, 1, 55, 81
4, 15021, Note_on_c, 1, 62, 0
4, 15021, Note_on_c, 1, 59, 0
4, 15021, Note_on_c, 1, 55, 0
4, 15024, Note_on_c, 1, 71, 75
4, 15069, Note_on_c, 1, 71, 0
4, 15072, Note_on_c, 1, 74, 75
4, 15117, Note_on_c, 1, 74, 0
4, 15120, Note_on_c, 1, 62, 75
4, 15165, Note_on_c, 1, 62, 0
4, 15168, Note_on_c, 1, 69, 75
4, 15213, Note_on_c, 1, 69, 0
4, 15216, Note_on_c, 1, 72, 75
4, 15261, Note_on_c, 1, 72, 0
4, 15264, Note_on_c, 1, 67, 75
4, 15309, Note_on_c, 1, 67, 0
4, 15312, Note_on_c, 1, 71, 75
4, 15357, Note_on_c, 1, 71, 0
4, 15360, Note_on_c, 1, 74, 75
4, 15405, Note_on_c, 1, 74, 0
4, 15408, Note_on_c, 1, 62, 75
4, 15453, Note_on_c, 1, 62, 0
4, 15456, Note_on_c, 1, 69, 75
4, 15501, Note_on_c, 1, 69, 0
4, 15504, Note_on_c, 1, 72, 75
4, 15549, Note_on_c, 1, 72, 0
4, 15552, Note_on_c, 1, 71, 81
4, 15641, Note_on_c, 1, 71, 0
4, 15696, Note_on_c, 1, 60, 81
4, 15696, Note_on_c, 1, 48, 81
4, 15785, Note_on_c, 1, 60, 0
4, 15785, Note_on_c, 1, 48, 0
4, 15888, Note_on_c, 1, 59, 81
4, 15933, Note_on_c, 1, 59, 0
4, 15936, Note_on_c, 1, 57, 81
4, 15981, Note_on_c, 1, 57, 0
4, 15984, Note_on_c, 1, 55, 81
4, 16029, Note_on_c, 1, 55, 0
4, 16032, Note_on_c, 1, 43, 81
4, 16077, Note_on_c, 1, 43, 0
4, 16128, Note_on_c, 1, 50, 70
4, 16151, Note_on_c, 1, 50, 0
4, 16152, Note_on_c, 1, 62, 70
4, 16175, Note_on_c, 1, 62, 0
4, 16176, Note_on_c, 1, 61, 70
4, 16199, Note_on_c, 1, 61, 0
4, 16200, Note_on_c, 1, 62, 70
4, 16223, Note_on_c, 1, 62, 0
4, 16224, Note_on_c, 1, 50, 70
4, 16247, Note_on_c, 1, 50, 0
4, 16248, Note_on_c, 1, 62, 70
4, 16271, Note_on_c, 1, 62, 0
4, 16272, Note_on_c, 1, 50, 70
4, 16295, Note_on_c, 1, 50, 0
4, 16296, Note_on_c, 1, 62, 70
4, 16319, Note_on_c, 1, 62, 0
4, 16320, Note_on_c, 1, 61, 70
4, 16343, Note_on_c, 1, 61, 0
4, 16344, Note_on_c, 1, 62, 70
4, 16367, Note_on_c, 1, 62, 0
4, 16368, Note_on_c, 1, 50, 70
4, 16391, Note_on_c, 1, 50, 0
4, 16392, Note_on_c, 1, 62, 70
4, 16415, Note_on_c, 1, 62, 0
4, 16416, Note_on_c, 1, 50, 70
4, 16439, Note_on_c, 1, 50, 0
4, 16440, Note_on_c, 1, 62, 70
4, 16463, Note_on_c, 1, 62, 0
4, 16464, Note_on_c, 1, 61, 70
4, 16487, Note_on_c, 1, 61, 0
4, 16488, Note_on_c, 1, 62, 70
4, 16511, Note_on_c, 1, 62, 0
4, 16512, Note_on_c, 1, 50, 70
4, 16535, Note_on_c, 1, 50, 0
4, 16536, Note_on_c, 1, 62, 70
4, 16559, Note_on_c, 1, 62, 0
4, 16560, Note_on_c, 1, 50, 70
4, 16583, Note_on_c, 1, 50, 0
4, 16584, Note_on_c, 1, 62, 70
4, 16607, Note_on_c, 1, 62, 0
4, 16608, Note_on_c, 1, 61, 70
4, 16631, Note_on_c, 1, 61, 0
4, 16632, Note_on_c, 1, 62, 70
4, 16655, Note_on_c, 1, 62, 0
4, 16656, Note_on_c, 1, 50, 70
4, 16679, Note_on_c, 1, 50, 0
4, 16680, Note_on_c, 1, 62, 70
4, 16703, Note_on_c, 1, 62, 0
4, 16704, Note_on_c, 1, 59, 81
4, 16704, Note_on_c, 1, 47, 81
4, 16793, Note_on_c, 1, 59, 0
4, 16793, Note_on_c, 1, 47, 0
4, 16848, Note_on_c, 1, 60, 81
4, 16848, Note_on_c, 1, 48, 81
4, 16937, Note_on_c, 1, 60, 0
4, 16937, Note_on_c, 1, 48, 0
4, 17040, Note_on_c, 1, 59, 75
4, 17085, Note_on_c, 1, 59, 0
4, 17088, Note_on_c, 1, 57, 75
4, 17133, Note_on_c, 1, 57, 0
4, 17136, Note_on_c, 1, 43, 75
4, 17159, Note_on_c, 1, 43, 0
4, 17160, Note_on_c, 1, 55, 75
4, 17183, Note_on_c, 1, 55, 0
4, 17184, Note_on_c, 1, 43, 75
4, 17207, Note_on_c, 1, 43, 0
4, 17208, Note_on_c, 1, 55, 75
4, 17231, Note_on_c, 1, 55, 0
4, 17232, Note_on_c, 1, 43, 75
4, 17255, Note_on_c, 1, 43, 0
4, 17256, Note_on_c, 1, 55, 75
4, 17279, Note_on_c, 1, 55, 0
4, 17280, Note_on_c, 1, 43, 75
4, 17303, Note_on_c, 1, 43, 0
4, 17304, Note_on_c, 1, 55, 75
4, 17327, Note_on_c, 1, 55, 0
4, 17328, Note_on_c, 1, 43, 75
4, 17351, Note_on_c, 1, 43, 0
4, 17352, Note_on_c, 1, 55, 75
4, 17375, Note_on_c, 1, 55, 0
4, 17376, Note_on_c, 1, 43, 75
4, 17399, Note_on_c, 1, 43, 0
4, 17400, Note_on_c, 1, 55, 75
4, 17423, Note_on_c, 1, 55, 0
4, 17424, Note_on_c, 1, 43, 75
4, 17447, Note_on_c, 1, 43, 0
4, 17448, Note_on_c, 1, 55, 75
4, 17471, Note_on_c, 1, 55, 0
4, 17472, Note_on_c, 1, 43, 75
4, 17495, Note_on_c, 1, 43, 0
4, 17496, Note_on_c, 1, 55, 75
4, 17519, Note_on_c, 1, 55, 0
4, 17520, Note_on_c, 1, 43, 75
4, 17543, Note_on_c, 1, 43, 0
4, 17544, Note_on_c, 1, 55, 75
4, 17567, Note_on_c, 1, 55, 0
4, 17568, Note_on_c, 1, 43, 75
4, 17591, Note_on_c, 1, 43, 0
4, 17592, Note_on_c, 1, 55, 75
4, 17615, Note_on_c, 1, 55, 0
4, 17616, Note_on_c, 1, 43, 75
4, 17639, Note_on_c, 1, 43, 0
4, 17640, Note_on_c, 1, 55, 75
4, 17663, Note_on_c, 1, 55, 0
4, 17664, Note_on_c, 1, 43, 75
4, 17687, Note_on_c, 1, 43, 0
4, 17688, Note_on_c, 1, 55, 75
4, 17711, Note_on_c, 1, 55, 0
4, 17712, Note_on_c, 1, 43, 75
4, 17801, Note_on_c, 1, 43, 0
4, 17856, Note_on_c, 1, 66, 75
4, 17856, Note_on_c, 1, 62, 75
4, 17945, Note_on_c, 1, 66, 0
4, 17945, Note_on_c, 1, 62, 0
4, 18000, Note_on_c, 1, 66, 75
4, 18000, Note_on_c, 1, 62, 75
4, 18045, Note_on_c, 1, 66, 0
4, 18045, Note_on_c, 1, 62, 0
4, 18048, Note_on_c, 1, 66, 75
4, 18048, Note_on_c, 1, 62, 75
4, 18093, Note_on_c, 1, 66, 0
4, 18093, Note_on_c, 1, 62, 0
4, 18096, Note_on_c, 1, 66, 75
4, 18096, Note_on_c, 1, 62, 75
4, 18141, Note_on_c, 1, 66, 0
4, 18141, Note_on_c, 1, 62, 0
4, 18144, Note_on_c, 1, 67, 75
4, 18144, Note_on_c, 1, 62, 75
4, 18189, Note_on_c, 1, 67, 0
4, 18189, Note_on_c, 1, 62, 0
4, 18192, Note_on_c, 1, 67, 75
4, 18192, Note_on_c, 1, 62, 75
4, 18237, Note_on_c, 1, 67, 0
4, 18237, Note_on_c, 1, 62, 0
4, 18240, Note_on_c, 1, 67, 75
4, 18240, Note_on_c, 1, 62, 75
4, 18285, Note_on_c, 1, 67, 0
4, 18285, Note_on_c, 1, 62, 0
4, 18288, Note_on_c, 1, 66, 91
4, 18288, Note_on_c, 1, 63, 91
4, 18336, Note_on_c, 1, 66, 0
4, 18336, Note_on_c, 1, 63, 0
4, 18336, Note_on_c, 1, 66, 75
4, 18336, Note_on_c, 1, 63, 75
4, 18381, Note_on_c, 1, 66, 0
4, 18381, Note_on_c, 1, 63, 0
4, 18384, Note_on_c, 1, 66, 75
4, 18384, Note_on_c, 1, 63, 75
4, 18429, Note_on_c, 1, 66, 0
4, 18429, Note_on_c, 1, 63, 0
4, 18432, Note_on_c, 1, 64, 75
4, 18521, Note_on_c, 1, 64, 0
4, 18576, Note_on_c, 1, 57, 75
4, 18599, Note_on_c, 1, 57, 0
4, 18600, Note_on_c, 1, 69, 74
4, 18623, Note_on_c, 1, 69, 0
4, 18624, Note_on_c, 1, 68, 74
4, 18647, Note_on_c, 1, 68, 0
4, 18648, Note_on_c, 1, 69, 74
4, 18671, Note_on_c, 1, 69, 0
4, 18672, Note_on_c, 1, 55, 74
4, 18695, Note_on_c, 1, 55, 0
4, 18696, Note_on_c, 1, 67, 74
4, 18719, Note_on_c, 1, 67, 0
4, 18720, Note_on_c, 1, 54, 73
4, 18765, Note_on_c, 1, 54, 0
4, 18864, Note_on_c, 1, 55, 72
4, 18887, Note_on_c, 1, 55, 0
4, 18888, Note_on_c, 1, 67, 72
4, 18911, Note_on_c, 1, 67, 0
4, 18912, Note_on_c, 1, 66, 72
4, 18935, Note_on_c, 1, 66, 0
4, 18936, Note_on_c, 1, 67, 72
4, 18959, Note_on_c, 1, 67, 0
4, 18960, Note_on_c, 1, 54, 71
4, 18983, Note_on_c, 1, 54, 0
4, 18984, Note_on_c, 1, 66, 71
4, 19007, Note_on_c, 1, 66, 0
4, 19008, Note_on_c, 1, 52, 71
4, 19053, Note_on_c, 1, 52, 0
4, 19152, Note_on_c, 1, 54, 70
4, 19175, Note_on_c, 1, 54, 0
4, 19176, Note_on_c, 1, 66, 70
4, 19199, Note_on_c, 1, 66, 0
4, 19200, Note_on_c, 1, 64, 70
4, 19223, Note_on_c, 1, 64, 0
4, 19224, Note_on_c, 1, 66, 70
4, 19247, Note_on_c, 1, 66, 0
4, 19248, Note_on_c, 1, 52, 70
4, 19271, Note_on_c, 1, 52, 0
4, 19272, Note_on_c, 1, 64, 70
4, 19295, Note_on_c, 1, 64, 0
4, 19296, Note_on_c, 1, 51, 70
4, 19341, Note_on_c, 1, 51, 0
4, 19392, Note_on_c, 1, 59, 81
4, 19392, Note_on_c, 1, 54, 81
4, 19392, Note_on_c, 1, 51, 81
4, 19437, Note_on_c, 1, 59, 0
4, 19437, Note_on_c, 1, 54, 0
4, 19437, Note_on_c, 1, 51, 0
4, 19440, Note_on_c, 1, 59, 81
4, 19440, Note_on_c, 1, 55, 81
4, 19440, Note_on_c, 1, 52, 81
4, 19485, Note_on_c, 1, 59, 0
4, 19485, Note_on_c, 1, 55, 0
4, 19485, Note_on_c, 1, 52, 0
4, 19536, Note_on_c, 1, 59, 81
4, 19536, Note_on_c, 1, 55, 81
4, 19536, Note_on_c, 1, 52, 81
4, 19581, Note_on_c, 1, 59, 0
4, 19581, Note_on_c, 1, 55, 0
4, 19581, Note_on_c, 1, 52, 0
4, 19584, Note_on_c, 1, 59, 81
4, 19584, Note_on_c, 1, 54, 81
4, 19584, Note_on_c, 1, 51, 81
4, 19629, Note_on_c, 1, 59, 0
4, 19629, Note_on_c, 1, 54, 0
4, 19629, Note_on_c, 1, 51, 0
4, 19680, Note_on_c, 1, 59, 81
4, 19680, Note_on_c, 1, 54, 81
4, 19680, Note_on_c, 1, 51, 81
4, 19725, Note_on_c, 1, 59, 0
4, 19725, Note_on_c, 1, 54, 0
4, 19725, Note_on_c, 1, 51, 0
4, 19728, Note_on_c, 1, 59, 81
4, 19728, Note_on_c, 1, 55, 81
4, 19728, Note_on_c, 1, 52, 81
4, 19773, Note_on_c, 1, 59, 0
4, 19773, Note_on_c, 1, 55, 0
4, 19773, Note_on_c, 1, 52, 0
4, 19776, Note_on_c, 1, 59, 81
4, 19821, Note_on_c, 1, 59, 0
4, 19824, Note_on_c, 1, 47, 81
4, 19869, Note_on_c, 1, 47, 0
4, 19872, Note_on_c, 1, 52, 81
4, 19917, Note_on_c, 1, 52, 0
4, 19920, Note_on_c, 1, 47, 81
4, 19965, Note_on_c, 1, 47, 0
4, 19968, Note_on_c, 1, 40, 81
4, 20013, Note_on_c, 1, 40, 0
4, 20160, Note_on_c, 1, 52, 70
4, 20205, Note_on_c, 1, 52, 0
4, 20208, Note_on_c, 1, 56, 70
4, 20253, Note_on_c, 1, 56, 0
4, 20256, Note_on_c, 1, 57, 70
4, 20301, Note_on_c, 1, 57, 0
4, 20448, Note_on_c, 1, 50, 75
4, 20493, Note_on_c, 1, 50, 0
4, 20496, Note_on_c, 1, 54, 75
4, 20541, Note_on_c, 1, 54, 0
4, 20544, Note_on_c, 1, 55, 75
4, 20589, Note_on_c, 1, 55, 0
4, 20592, Note_on_c, 1, 47, 70
4, 20615, Note_on_c, 1, 47, 0
4, 20616, Note_on_c, 1, 59, 70
4, 20639, Note_on_c, 1, 59, 0
4, 20640, Note_on_c, 1, 57, 70
4, 20663, Note_on_c, 1, 57, 0
4, 20664, Note_on_c, 1, 59, 71
4, 20687, Note_on_c, 1, 59, 0
4, 20688, Note_on_c, 1, 47, 71
4, 20711, Note_on_c, 1, 47, 0
4, 20712, Note_on_c, 1, 59, 71
4, 20735, Note_on_c, 1, 59, 0
4, 20736, Note_on_c, 1, 48, 72
4, 20759, Note_on_c, 1, 48, 0
4, 20760, Note_on_c, 1, 60, 72
4, 20783, Note_on_c, 1, 60, 0
4, 20784, Note_on_c, 1, 59, 72
4, 20807, Note_on_c, 1, 59, 0
4, 20808, Note_on_c, 1, 60, 73
4, 20831, Note_on_c, 1, 60, 0
4, 20832, Note_on_c, 1, 48, 73
4, 20855, Note_on_c, 1, 48, 0
4, 20856, Note_on_c, 1, 60, 74
4, 20879, Note_on_c, 1, 60, 0
4, 20880, Note_on_c, 1, 50, 74
4, 20903, Note_on_c, 1, 50, 0
4, 20904, Note_on_c, 1, 62, 74
4, 20927, Note_on_c, 1, 62, 0
4, 20928, Note_on_c, 1, 61, 75
4, 20951, Note_on_c, 1, 61, 0
4, 20952, Note_on_c, 1, 62, 75
4, 20975, Note_on_c, 1, 62, 0
4, 20976, Note_on_c, 1, 50, 75
4, 20999, Note_on_c, 1, 50, 0
4, 21000, Note_on_c, 1, 62, 76
4, 21023, Note_on_c, 1, 62, 0
4, 21024, Note_on_c, 1, 52, 76
4, 21047, Note_on_c, 1, 52, 0
4, 21048, Note_on_c, 1, 64, 76
4, 21071, Note_on_c, 1, 64, 0
4, 21072, Note_on_c, 1, 62, 77
4, 21095, Note_on_c, 1, 62, 0
4, 21096, Note_on_c, 1, 64, 77
4, 21119, Note_on_c, 1, 64, 0
4, 21120, Note_on_c, 1, 52, 78
4, 21143, Note_on_c, 1, 52, 0
4, 21144, Note_on_c, 1, 64, 78
4, 21167, Note_on_c, 1, 64, 0
4, 21168, Note_on_c, 1, 54, 78
4, 21191, Note_on_c, 1, 54, 0
4, 21192, Note_on_c, 1, 66, 79
4, 21215, Note_on_c, 1, 66, 0
4, 21216, Note_on_c, 1, 64, 79
4, 21239, Note_on_c, 1, 64, 0
4, 21240, Note_on_c, 1, 66, 79
4, 21263, Note_on_c, 1, 66, 0
4, 21264, Note_on_c, 1, 54, 80
4, 21287, Note_on_c, 1, 54, 0
4, 21288, Note_on_c, 1, 66, 80
4, 21311, Note_on_c, 1, 66, 0
4, 21312, Note_on_c, 1, 55, 81
4, 21357, Note_on_c, 1, 55, 0
4, 21456, Note_on_c, 1, 55, 77
4, 21501, Note_on_c, 1, 55, 0
4, 21504, Note_on_c, 1, 54, 76
4, 21549, Note_on_c, 1, 54, 0
4, 21600, Note_on_c, 1, 59, 75
4, 21600, Note_on_c, 1, 55, 75
4, 21689, Note_on_c, 1, 59, 0
4, 21689, Note_on_c, 1, 55, 0
4, 21744, Note_on_c, 1, 59, 75
4, 21744, Note_on_c, 1, 55, 75
4, 21789, Note_on_c, 1, 59, 0
4, 21789, Note_on_c, 1, 55, 0
4, 21792, Note_on_c, 1, 59, 75
4, 21792, Note_on_c, 1, 55, 75
4, 21837, Note_on_c, 1, 59, 0
4, 21837, Note_on_c, 1, 55, 0
4, 21840, Note_on_c, 1, 59, 75
4, 21840, Note_on_c, 1, 55, 75
4, 21885, Note_on_c, 1, 59, 0
4, 21885, Note_on_c, 1, 55, 0
4, 21888, Note_on_c, 1, 60, 75
4, 21888, Note_on_c, 1, 55, 75
4, 21933, Note_on_c, 1, 60, 0
4, 21933, Note_on_c, 1, 55, 0
4, 21936, Note_on_c, 1, 60, 75
4, 21936, Note_on_c, 1, 55, 75
4, 21981, Note_on_c, 1, 60, 0
4, 21981, Note_on_c, 1, 55, 0
4, 21984, Note_on_c, 1, 60, 75
4, 21984, Note_on_c, 1, 55, 75
4, 22029, Note_on_c, 1, 60, 0
4, 22029, Note_on_c, 1, 55, 0
4, 22080, Note_on_c, 1, 54, 75
4, 22125, Note_on_c, 1, 54, 0
4, 22128, Note_on_c, 1, 55, 75
4, 22173, Note_on_c, 1, 55, 0
4, 22176, Note_on_c, 1, 57, 75
4, 22221, Note_on_c, 1, 57, 0
4, 22224, Note_on_c, 1, 54, 75
4, 22269, Note_on_c, 1, 54, 0
4, 22272, Note_on_c, 1, 55, 75
4, 22317, Note_on_c, 1, 55, 0
4, 22320, Note_on_c, 1, 55, 75
4, 22365, Note_on_c, 1, 55, 0
4, 22368, Note_on_c, 1, 54, 75
4, 22413, Note_on_c, 1, 54, 0
4, 22464, Note_on_c, 1, 62, 81
4, 22464, Note_on_c, 1, 59, 81
4, 22464, Note_on_c, 1, 55, 81
4, 22509, Note_on_c, 1, 62, 0
4, 22509, Note_on_c, 1, 59, 0
4, 22509, Note_on_c, 1, 55, 0
4, 22608, Note_on_c, 1, 62, 81
4, 22608, Note_on_c, 1, 57, 81
4, 22608, Note_on_c, 1, 54, 81
4, 22653, Note_on_c, 1, 62, 0
4, 22653, Note_on_c, 1, 57, 0
4, 22653, Note_on_c, 1, 54, 0
4, 22752, Note_on_c, 1, 62, 81
4, 22752, Note_on_c, 1, 59, 81
4, 22752, Note_on_c, 1, 55, 81
4, 22797, Note_on_c, 1, 62, 0
4, 22797, Note_on_c, 1, 59, 0
4, 22797, Note_on_c, 1, 55, 0
4, 22896, Note_on_c, 1, 62, 81
4, 22896, Note_on_c, 1, 57, 81
4, 22896, Note_on_c, 1, 54, 81
4, 22941, Note_on_c, 1, 62, 0
4, 22941, Note_on_c, 1, 57, 0
4, 22941, Note_on_c, 1, 54, 0
4, 23040, Note_on_c, 1, 62, 81
4, 23040, Note_on_c, 1, 59, 81
4, 23040, Note_on_c, 1, 55, 81
4, 23085, Note_on_c, 1, 62, 0
4, 23085, Note_on_c, 1, 59, 0
4, 23085, Note_on_c, 1, 55, 0
4, 23088, Note_on_c, 1, 71, 75
4, 23133, Note_on_c, 1, 71, 0
4, 23136, Note_on_c, 1, 74, 75
4, 23181, Note_on_c, 1, 74, 0
4, 23184, Note_on_c, 1, 62, 75
4, 23229, Note_on_c, 1, 62, 0
4, 23232, Note_on_c, 1, 69, 75
4, 23277, Note_on_c, 1, 69, 0
4, 23280, Note_on_c, 1, 72, 75
4, 23325, Note_on_c, 1, 72, 0
4, 23328, Note_on_c, 1, 67, 75
4, 23373, Note_on_c, 1, 67, 0
4, 23376, Note_on_c, 1, 71, 75
4, 23421, Note_on_c, 1, 71, 0
4, 23424, Note_on_c, 1, 74, 75
4, 23469, Note_on_c, 1, 74, 0
4, 23472, Note_on_c, 1, 62, 75
4, 23517, Note_on_c, 1, 62, 0
4, 23520, Note_on_c, 1, 69, 75
4, 23565, Note_on_c, 1, 69, 0
4, 23568, Note_on_c, 1, 72, 75
4, 23613, Note_on_c, 1, 72, 0
4, 23616, Note_on_c, 1, 71, 81
4, 23705, Note_on_c, 1, 71, 0
4, 23760, Note_on_c, 1, 60, 81
4, 23760, Note_on_c, 1, 48, 81
4, 23849, Note_on_c, 1, 60, 0
4, 23849, Note_on_c, 1, 48, 0
4, 23952, Note_on_c, 1, 59, 81
4, 23997, Note_on_c, 1, 59, 0
4, 24000, Note_on_c, 1, 57, 81
4, 24045, Note_on_c, 1, 57, 0
4, 24048, Note_on_c, 1, 55, 81
4, 24093, Note_on_c, 1, 55, 0
4, 24096, Note_on_c, 1, 43, 81
4, 24141, Note_on_c, 1, 43, 0
4, 24192, Note_on_c, 1, 50, 70
4, 24215, Note_on_c, 1, 50, 0
4, 24216, Note_on_c, 1, 62, 70
4, 24239, Note_on_c, 1, 62, 0
4, 24240, Note_on_c, 1, 61, 70
4, 24263, Note_on_c, 1, 61, 0
4, 24264, Note_on_c, 1, 62, 70
4, 24287, Note_on_c, 1, 62, 0
4, 24288, Note_on_c, 1, 50, 70
4, 24311, Note_on_c, 1, 50, 0
4, 24312, Note_on_c, 1, 62, 70
4, 24335, Note_on_c, 1, 62, 0
4, 24336, Note_on_c, 1, 50, 70
4, 24359, Note_on_c, 1, 50, 0
4, 24360, Note_on_c, 1, 62, 70
4, 24383, Note_on_c, 1, 62, 0
4, 24384, Note_on_c, 1, 61, 70
4, 24407, Note_on_c, 1, 61, 0
4, 24408, Note_on_c, 1, 62, 70
4, 24431, Note_on_c, 1, 62, 0
4, 24432, Note_on_c, 1, 50, 70
4, 24455, Note_on_c, 1, 50, 0
4, 24456, Note_on_c, 1, 62, 70
4, 24479, Note_on_c, 1, 62, 0
4, 24480, Note_on_c, 1, 50, 70
4, 24503, Note_on_c, 1, 50, 0
4, 24504, Note_on_c, 1, 62, 70
4, 24527, Note_on_c, 1, 62, 0
4, 24528, Note_on_c, 1, 61, 70
4, 24551, Note_on_c, 1, 61, 0
4, 24552, Note_on_c, 1, 62, 70
4, 24575, Note_on_c, 1, 62, 0
4, 24576, Note_on_c, 1, 50, 70
4, 24599, Note_on_c, 1, 50, 0
4, 24600, Note_on_c, 1, 62, 70
4, 24623, Note_on_c, 1, 62, 0
4, 24624, Note_on_c, 1, 50, 70
4, 24647, Note_on_c, 1, 50, 0
4, 24648, Note_on_c, 1, 62, 70
4, 24671, Note_on_c, 1, 62, 0
4, 24672, Note_on_c, 1, 61, 70
4, 24695, Note_on_c, 1, 61, 0
4, 24696, Note_on_c, 1, 62, 70
4, 24719, Note_on_c, 1, 62, 0
4, 24720, Note_on_c, 1, 50, 70
4, 24743, Note_on_c, 1, 50, 0
4, 24744, Note_on_c, 1, 62, 70
4, 24767, Note_on_c, 1, 62, 0
4, 24768, Note_on_c, 1, 59, 81
4, 24768, Note_on_c, 1, 47, 81
4, 24857, Note_on_c, 1, 59, 0
4, 24857, Note_on_c, 1, 47, 0
4, 24912, Note_on_c, 1, 60, 81
4, 24912, Note_on_c, 1, 48, 81
4, 25001, Note_on_c, 1, 60, 0
4, 25001, Note_on_c, 1, 48, 0
4, 25104, Note_on_c, 1, 59, 75
4, 25149, Note_on_c, 1, 59, 0
4, 25152, Note_on_c, 1, 57, 75
4, 25197, Note_on_c, 1, 57, 0
4, 25200, Note_on_c, 1, 43, 75
4, 25223, Note_on_c, 1, 43, 0
4, 25224, Note_on_c, 1, 55, 75
4, 25247, Note_on_c, 1, 55, 0
4, 25248, Note_on_c, 1, 43, 75
4, 25271, Note_on_c, 1, 43, 0
4, 25272, Note_on_c, 1, 55, 75
4, 25295, Note_on_c, 1, 55, 0
4, 25296, Note_on_c, 1, 43, 75
4, 25319, Note_on_c, 1, 43, 0
4, 25320, Note_on_c, 1, 55, 75
4, 25343, Note_on_c, 1, 55, 0
4, 25344, Note_on_c, 1, 43, 75
4, 25367, Note_on_c, 1, 43, 0
4, 25368, Note_on_c, 1, 55, 75
4, 25391, Note_on_c, 1, 55, 0
4, 25392, Note_on_c, 1, 43, 75
4, 25415, Note_on_c, 1, 43, 0
4, 25416, Note_on_c, 1, 55, 75
4, 25439, Note_on_c, 1, 55, 0
4, 25440, Note_on_c, 1, 43, 75
4, 25463, Note_on_c, 1, 43, 0
4, 25464, Note_on_c, 1, 55, 75
4, 25487, Note_on_c, 1, 55, 0
4, 25488, Note_on_c, 1, 43, 75
4, 25511, Note_on_c, 1, 43, 0
4, 25512, Note_on_c, 1, 55, 75
4, 25535, Note_on_c, 1, 55, 0
4, 25536, Note_on_c, 1, 43, 75
4, 25559, Note_on_c, 1, 43, 0
4, 25560, Note_on_c, 1, 55, 75
4, 25583, Note_on_c, 1, 55, 0
4, 25584, Note_on_c, 1, 43, 75
4, 25607, Note_on_c, 1, 43, 0
4, 25608, Note_on_c, 1, 55, 75
4, 25631, Note_on_c, 1, 55, 0
4, 25632, Note_on_c, 1, 43, 75
4, 25655, Note_on_c, 1, 43, 0
4, 25656, Note_on_c, 1, 55, 75
4, 25679, Note_on_c, 1, 55, 0
4, 25680, Note_on_c, 1, 43, 75
4, 25703, Note_on_c, 1, 43, 0
4, 25704, Note_on_c, 1, 55, 75
4, 25727, Note_on_c, 1, 55, 0
4, 25728, Note_on_c, 1, 43, 75
4, 25751, Note_on_c, 1, 43, 0
4, 25752, Note_on_c, 1, 55, 75
4, 25775, Note_on_c, 1, 55, 0
4, 25776, Note_on_c, 1, 43, 75
4, 25865, Note_on_c, 1, 43, 0
4, 25920, Note_on_c, 1, 43, 0
4, 25965, Note_on_c, 1, 43, 0
4, 25968, End_track
5, 0, Start_track
5, 0, Program_c, 0, 0
5, 0, Control_c, 0, 7, 127
5, 0, Control_c, 0, 10, 64
5, 576, Note_on_c, 0, 50, 64
5, 665, Note_on_c, 0, 50, 0
5, 672, Note_on_c, 0, 55, 64
5, 717, Note_on_c, 0, 55, 0
5, 864, Note_on_c, 0, 50, 64
5, 997, Note_on_c, 0, 50, 0
5, 1008, Note_on_c, 0, 50, 64
5, 1141, Note_on_c, 0, 50, 0
5, 1152, Note_on_c, 0, 50, 64
5, 1285, Note_on_c, 0, 50, 0
5, 1296, Note_on_c, 0, 50, 64
5, 1385, Note_on_c, 0, 50, 0
5, 2880, Note_on_c, 0, 45, 64
5, 3013, Note_on_c, 0, 45, 0
5, 4032, Note_on_c, 0, 45, 64
5, 4165, Note_on_c, 0, 45, 0
5, 5472, Note_on_c, 0, 50, 64
5, 5561, Note_on_c, 0, 50, 0
5, 5568, Note_on_c, 0, 55, 64
5, 5613, Note_on_c, 0, 55, 0
5, 5760, Note_on_c, 0, 50, 64
5, 5893, Note_on_c, 0, 50, 0
5, 5904, Note_on_c, 0, 50, 64
5, 6037, Note_on_c, 0, 50, 0
5, 6048, Note_on_c, 0, 50, 64
5, 6181, Note_on_c, 0, 50, 0
5, 6192, Note_on_c, 0, 50, 64
5, 6281, Note_on_c, 0, 50, 0
5, 7776, Note_on_c, 0, 45, 64
5, 7909, Note_on_c, 0, 45, 0
5, 8928, Note_on_c, 0, 45, 64
5, 9061, Note_on_c, 0, 45, 0
5, 13392, Note_on_c, 0, 50, 64
5, 13481, Note_on_c, 0, 50, 0
5, 14112, Note_on_c, 0, 50, 64
5, 14245, Note_on_c, 0, 50, 0
5, 14256, Note_on_c, 0, 50, 64
5, 14345, Note_on_c, 0, 50, 0
5, 15840, Note_on_c, 0, 50, 64
5, 15973, Note_on_c, 0, 50, 0
5, 16992, Note_on_c, 0, 50, 64
5, 17125, Note_on_c, 0, 50, 0
5, 21456, Note_on_c, 0, 50, 64
5, 21545, Note_on_c, 0, 50, 0
5, 22176, Note_on_c, 0, 50, 64
5, 22309, Note_on_c, 0, 50, 0
5, 22320, Note_on_c, 0, 50, 64
5, 22409, Note_on_c, 0, 50, 0
5, 23904, Note_on_c, 0, 50, 64
5, 24037, Note_on_c, 0, 50, 0
5, 25056, Note_on_c, 0, 50, 64
5, 25189, Note_on_c, 0, 50, 0
5, 25920, End_track
6, 0, Start_track
6, 0, Title_t, "Piano Solo   <composer>  "
6, 0, End_track
0, 0, End_of_file
