0, 0, Header, 1, 6, 96
1, 0, Start_track
1, 0, Copyright_t, "Copyright  2000 <copyright holder>"
1, 0, Text_t, "Sonata I\015\012"
1, 0, Text_t, "Haydn\015\012"
1, 0, Sequencer_specific, 16, 68, 87, 77, 90, 86, 82, 83, 78, 32, 55, 46, 49, 46, 50, 46, 48
1, 0, Time_signature, 3, 2, 24, 8
1, 0, Tempo, 1034482
1, 0, Key_signature, 0, "major"
1, 14976, Key_signature, -3, "major"
1, 23328, Key_signature, 0, "major"
1, 35424, Key_signature, -3, "major"
1, 42048, Key_signature, 0, "major"
1, 44256, Tempo, 1200000
1, 44352, Tempo, 1200000
1, 44640, Tempo, 1034482
1, 46368, End_track
2, 0, Start_track
2, 0, Program_c, 0, 0
2, 0, Control_c, 0, 7, 127
2, 0, Control_c, 0, 10, 64
2, 0, Note_on_c, 0, 55, 80
2, 49, Note_on_c, 0, 55, 0
2, 54, Note_on_c, 0, 57, 80
2, 60, Note_on_c, 0, 57, 0
2, 60, Note_on_c, 0, 55, 80
2, 66, Note_on_c, 0, 55, 0
2, 66, Note_on_c, 0, 54, 80
2, 72, Note_on_c, 0, 54, 0
2, 72, Note_on_c, 0, 55, 80
2, 95, Note_on_c, 0, 55, 0
2, 96, Note_on_c, 0, 64, 81
2, 192, Note_on_c, 0, 64, 0
2, 192, Note_on_c, 0, 60, 85
2, 281, Note_on_c, 0, 60, 0
2, 288, Note_on_c, 0, 59, 80
2, 384, Note_on_c, 0, 59, 0
2, 384, Note_on_c, 0, 67, 86
2, 431, Note_on_c, 0, 67, 0
2, 576, Note_on_c, 0, 67, 70
2, 643, Note_on_c, 0, 67, 0
2, 648, Note_on_c, 0, 69, 70
2, 656, Note_on_c, 0, 69, 0
2, 656, Note_on_c, 0, 67, 70
2, 664, Note_on_c, 0, 67, 0
2, 664, Note_on_c, 0, 66, 70
2, 672, Note_on_c, 0, 66, 0
2, 672, Note_on_c, 0, 67, 70
2, 683, Note_on_c, 0, 67, 0
2, 683, Note_on_c, 0, 69, 70
2, 694, Note_on_c, 0, 69, 0
2, 694, Note_on_c, 0, 71, 70
2, 705, Note_on_c, 0, 71, 0
2, 705, Note_on_c, 0, 72, 70
2, 716, Note_on_c, 0, 72, 0
2, 716, Note_on_c, 0, 71, 70
2, 727, Note_on_c, 0, 71, 0
2, 727, Note_on_c, 0, 74, 71
2, 738, Note_on_c, 0, 74, 0
2, 738, Note_on_c, 0, 72, 71
2, 748, Note_on_c, 0, 72, 0
2, 748, Note_on_c, 0, 76, 71
2, 758, Note_on_c, 0, 76, 0
2, 758, Note_on_c, 0, 74, 71
2, 768, Note_on_c, 0, 74, 0
2, 768, Note_on_c, 0, 77, 72
2, 792, Note_on_c, 0, 77, 0
2, 792, Note_on_c, 0, 76, 72
2, 813, Note_on_c, 0, 76, 0
2, 816, Note_on_c, 0, 74, 73
2, 839, Note_on_c, 0, 74, 0
2, 840, Note_on_c, 0, 72, 74
2, 863, Note_on_c, 0, 72, 0
2, 864, Note_on_c, 0, 71, 75
2, 931, Note_on_c, 0, 71, 0
2, 936, Note_on_c, 0, 74, 80
2, 946, Note_on_c, 0, 74, 0
2, 960, Note_on_c, 0, 79, 80
2, 980, Note_on_c, 0, 79, 0
2, 1152, Note_on_c, 0, 72, 64
2, 1179, Note_on_c, 0, 72, 0
2, 1182, Note_on_c, 0, 74, 64
2, 1188, Note_on_c, 0, 74, 0
2, 1188, Note_on_c, 0, 72, 64
2, 1194, Note_on_c, 0, 72, 0
2, 1194, Note_on_c, 0, 71, 64
2, 1200, Note_on_c, 0, 71, 0
2, 1200, Note_on_c, 0, 72, 64
2, 1215, Note_on_c, 0, 72, 0
2, 1236, Note_on_c, 0, 76, 64
2, 1241, Note_on_c, 0, 76, 0
2, 1248, Note_on_c, 0, 79, 64
2, 1268, Note_on_c, 0, 79, 0
2, 1440, Note_on_c, 0, 74, 70
2, 1507, Note_on_c, 0, 74, 0
2, 1512, Note_on_c, 0, 76, 70
2, 1520, Note_on_c, 0, 76, 0
2, 1520, Note_on_c, 0, 74, 70
2, 1528, Note_on_c, 0, 74, 0
2, 1528, Note_on_c, 0, 73, 70
2, 1536, Note_on_c, 0, 73, 0
2, 1536, Note_on_c, 0, 74, 64
2, 1547, Note_on_c, 0, 74, 0
2, 1547, Note_on_c, 0, 75, 64
2, 1558, Note_on_c, 0, 75, 0
2, 1558, Note_on_c, 0, 76, 64
2, 1569, Note_on_c, 0, 76, 0
2, 1569, Note_on_c, 0, 77, 64
2, 1580, Note_on_c, 0, 77, 0
2, 1580, Note_on_c, 0, 78, 65
2, 1591, Note_on_c, 0, 78, 0
2, 1591, Note_on_c, 0, 79, 65
2, 1602, Note_on_c, 0, 79, 0
2, 1602, Note_on_c, 0, 80, 65
2, 1612, Note_on_c, 0, 80, 0
2, 1612, Note_on_c, 0, 81, 65
2, 1622, Note_on_c, 0, 81, 0
2, 1622, Note_on_c, 0, 83, 66
2, 1632, Note_on_c, 0, 83, 0
2, 1632, Note_on_c, 0, 81, 66
2, 1677, Note_on_c, 0, 81, 0
2, 1680, Note_on_c, 0, 79, 68
2, 1703, Note_on_c, 0, 79, 0
2, 1704, Note_on_c, 0, 77, 69
2, 1727, Note_on_c, 0, 77, 0
2, 1728, Note_on_c, 0, 76, 70
2, 1777, Note_on_c, 0, 76, 0
2, 1782, Note_on_c, 0, 77, 70
2, 1788, Note_on_c, 0, 77, 0
2, 1788, Note_on_c, 0, 76, 70
2, 1794, Note_on_c, 0, 76, 0
2, 1794, Note_on_c, 0, 75, 70
2, 1800, Note_on_c, 0, 75, 0
2, 1800, Note_on_c, 0, 76, 73
2, 1823, Note_on_c, 0, 76, 0
2, 1824, Note_on_c, 0, 84, 90
2, 1935, Note_on_c, 0, 84, 0
2, 1936, Note_on_c, 0, 83, 80
2, 1943, Note_on_c, 0, 83, 0
2, 1952, Note_on_c, 0, 81, 80
2, 1959, Note_on_c, 0, 81, 0
2, 1968, Note_on_c, 0, 79, 80
2, 1975, Note_on_c, 0, 79, 0
2, 1984, Note_on_c, 0, 78, 80
2, 1991, Note_on_c, 0, 78, 0
2, 2000, Note_on_c, 0, 76, 80
2, 2007, Note_on_c, 0, 76, 0
2, 2016, Note_on_c, 0, 75, 80
2, 2083, Note_on_c, 0, 75, 0
2, 2088, Note_on_c, 0, 76, 75
2, 2100, Note_on_c, 0, 76, 0
2, 2100, Note_on_c, 0, 78, 74
2, 2112, Note_on_c, 0, 78, 0
2, 2112, Note_on_c, 0, 76, 73
2, 2157, Note_on_c, 0, 76, 0
2, 2304, Note_on_c, 0, 81, 64
2, 2304, Note_on_c, 0, 76, 64
2, 2304, Note_on_c, 0, 72, 64
2, 2349, Note_on_c, 0, 81, 0
2, 2349, Note_on_c, 0, 76, 0
2, 2349, Note_on_c, 0, 72, 0
2, 2400, Note_on_c, 0, 79, 64
2, 2400, Note_on_c, 0, 74, 64
2, 2400, Note_on_c, 0, 71, 64
2, 2445, Note_on_c, 0, 79, 0
2, 2445, Note_on_c, 0, 74, 0
2, 2445, Note_on_c, 0, 71, 0
2, 2496, Note_on_c, 0, 78, 61
2, 2496, Note_on_c, 0, 72, 61
2, 2496, Note_on_c, 0, 69, 61
2, 2541, Note_on_c, 0, 78, 0
2, 2541, Note_on_c, 0, 72, 0
2, 2541, Note_on_c, 0, 69, 0
2, 2592, Note_on_c, 0, 67, 58
2, 2601, Note_on_c, 0, 71, 58
2, 2610, Note_on_c, 0, 74, 58
2, 2619, Note_on_c, 0, 79, 58
2, 2687, Note_on_c, 0, 79, 0
2, 2687, Note_on_c, 0, 74, 0
2, 2687, Note_on_c, 0, 71, 0
2, 2687, Note_on_c, 0, 67, 0
2, 2880, Note_on_c, 0, 55, 80
2, 2929, Note_on_c, 0, 55, 0
2, 2934, Note_on_c, 0, 57, 80
2, 2940, Note_on_c, 0, 57, 0
2, 2940, Note_on_c, 0, 55, 80
2, 2946, Note_on_c, 0, 55, 0
2, 2946, Note_on_c, 0, 54, 80
2, 2952, Note_on_c, 0, 54, 0
2, 2952, Note_on_c, 0, 55, 80
2, 2975, Note_on_c, 0, 55, 0
2, 2976, Note_on_c, 0, 64, 81
2, 3072, Note_on_c, 0, 64, 0
2, 3072, Note_on_c, 0, 60, 85
2, 3161, Note_on_c, 0, 60, 0
2, 3168, Note_on_c, 0, 59, 80
2, 3264, Note_on_c, 0, 59, 0
2, 3264, Note_on_c, 0, 67, 86
2, 3311, Note_on_c, 0, 67, 0
2, 3456, Note_on_c, 0, 67, 70
2, 3523, Note_on_c, 0, 67, 0
2, 3528, Note_on_c, 0, 69, 70
2, 3536, Note_on_c, 0, 69, 0
2, 3536, Note_on_c, 0, 67, 70
2, 3544, Note_on_c, 0, 67, 0
2, 3544, Note_on_c, 0, 66, 70
2, 3552, Note_on_c, 0, 66, 0
2, 3552, Note_on_c, 0, 67, 70
2, 3563, Note_on_c, 0, 67, 0
2, 3563, Note_on_c, 0, 69, 70
2, 3574, Note_on_c, 0, 69, 0
2, 3574, Note_on_c, 0, 71, 70
2, 3585, Note_on_c, 0, 71, 0
2, 3585, Note_on_c, 0, 72, 70
2, 3596, Note_on_c, 0, 72, 0
2, 3596, Note_on_c, 0, 71, 70
2, 3607, Note_on_c, 0, 71, 0
2, 3607, Note_on_c, 0, 74, 71
2, 3618, Note_on_c, 0, 74, 0
2, 3618, Note_on_c, 0, 72, 71
2, 3628, Note_on_c, 0, 72, 0
2, 3628, Note_on_c, 0, 76, 71
2, 3638, Note_on_c, 0, 76, 0
2, 3638, Note_on_c, 0, 74, 71
2, 3648, Note_on_c, 0, 74, 0
2, 3648, Note_on_c, 0, 77, 72
2, 3672, Note_on_c, 0, 77, 0
2, 3672, Note_on_c, 0, 76, 72
2, 3693, Note_on_c, 0, 76, 0
2, 3696, Note_on_c, 0, 74, 73
2, 3719, Note_on_c, 0, 74, 0
2, 3720, Note_on_c, 0, 72, 74
2, 3743, Note_on_c, 0, 72, 0
2, 3744, Note_on_c, 0, 71, 75
2, 3811, Note_on_c, 0, 71, 0
2, 3816, Note_on_c, 0, 74, 80
2, 3826, Note_on_c, 0, 74, 0
2, 3840, Note_on_c, 0, 79, 80
2, 3860, Note_on_c, 0, 79, 0
2, 4032, Note_on_c, 0, 72, 64
2, 4059, Note_on_c, 0, 72, 0
2, 4062, Note_on_c, 0, 74, 64
2, 4068, Note_on_c, 0, 74, 0
2, 4068, Note_on_c, 0, 72, 64
2, 4074, Note_on_c, 0, 72, 0
2, 4074, Note_on_c, 0, 71, 64
2, 4080, Note_on_c, 0, 71, 0
2, 4080, Note_on_c, 0, 72, 64
2, 4095, Note_on_c, 0, 72, 0
2, 4116, Note_on_c, 0, 76, 64
2, 4121, Note_on_c, 0, 76, 0
2, 4128, Note_on_c, 0, 79, 64
2, 4148, Note_on_c, 0, 79, 0
2, 4320, Note_on_c, 0, 74, 70
2, 4387, Note_on_c, 0, 74, 0
2, 4392, Note_on_c, 0, 76, 70
2, 4400, Note_on_c, 0, 76, 0
2, 4400, Note_on_c, 0, 74, 70
2, 4408, Note_on_c, 0, 74, 0
2, 4408, Note_on_c, 0, 73, 70
2, 4416, Note_on_c, 0, 73, 0
2, 4416, Note_on_c, 0, 74, 64
2, 4427, Note_on_c, 0, 74, 0
2, 4427, Note_on_c, 0, 75, 64
2, 4438, Note_on_c, 0, 75, 0
2, 4438, Note_on_c, 0, 76, 64
2, 4449, Note_on_c, 0, 76, 0
2, 4449, Note_on_c, 0, 77, 64
2, 4460, Note_on_c, 0, 77, 0
2, 4460, Note_on_c, 0, 78, 65
2, 4471, Note_on_c, 0, 78, 0
2, 4471, Note_on_c, 0, 79, 65
2, 4482, Note_on_c, 0, 79, 0
2, 4482, Note_on_c, 0, 80, 65
2, 4492, Note_on_c, 0, 80, 0
2, 4492, Note_on_c, 0, 81, 65
2, 4502, Note_on_c, 0, 81, 0
2, 4502, Note_on_c, 0, 83, 66
2, 4512, Note_on_c, 0, 83, 0
2, 4512, Note_on_c, 0, 81, 66
2, 4557, Note_on_c, 0, 81, 0
2, 4560, Note_on_c, 0, 79, 68
2, 4583, Note_on_c, 0, 79, 0
2, 4584, Note_on_c, 0, 77, 69
2, 4607, Note_on_c, 0, 77, 0
2, 4608, Note_on_c, 0, 76, 70
2, 4657, Note_on_c, 0, 76, 0
2, 4662, Note_on_c, 0, 77, 70
2, 4668, Note_on_c, 0, 77, 0
2, 4668, Note_on_c, 0, 76, 70
2, 4674, Note_on_c, 0, 76, 0
2, 4674, Note_on_c, 0, 75, 70
2, 4680, Note_on_c, 0, 75, 0
2, 4680, Note_on_c, 0, 76, 73
2, 4703, Note_on_c, 0, 76, 0
2, 4704, Note_on_c, 0, 84, 90
2, 4815, Note_on_c, 0, 84, 0
2, 4816, Note_on_c, 0, 83, 80
2, 4823, Note_on_c, 0, 83, 0
2, 4832, Note_on_c, 0, 81, 80
2, 4839, Note_on_c, 0, 81, 0
2, 4848, Note_on_c, 0, 79, 80
2, 4855, Note_on_c, 0, 79, 0
2, 4864, Note_on_c, 0, 78, 80
2, 4871, Note_on_c, 0, 78, 0
2, 4880, Note_on_c, 0, 76, 80
2, 4887, Note_on_c, 0, 76, 0
2, 4896, Note_on_c, 0, 75, 80
2, 4963, Note_on_c, 0, 75, 0
2, 4968, Note_on_c, 0, 76, 75
2, 4980, Note_on_c, 0, 76, 0
2, 4980, Note_on_c, 0, 78, 74
2, 4992, Note_on_c, 0, 78, 0
2, 4992, Note_on_c, 0, 76, 73
2, 5037, Note_on_c, 0, 76, 0
2, 5184, Note_on_c, 0, 81, 64
2, 5184, Note_on_c, 0, 76, 64
2, 5184, Note_on_c, 0, 72, 64
2, 5229, Note_on_c, 0, 81, 0
2, 5229, Note_on_c, 0, 76, 0
2, 5229, Note_on_c, 0, 72, 0
2, 5280, Note_on_c, 0, 79, 64
2, 5280, Note_on_c, 0, 74, 64
2, 5280, Note_on_c, 0, 71, 64
2, 5325, Note_on_c, 0, 79, 0
2, 5325, Note_on_c, 0, 74, 0
2, 5325, Note_on_c, 0, 71, 0
2, 5376, Note_on_c, 0, 78, 61
2, 5376, Note_on_c, 0, 72, 61
2, 5376, Note_on_c, 0, 69, 61
2, 5421, Note_on_c, 0, 78, 0
2, 5421, Note_on_c, 0, 72, 0
2, 5421, Note_on_c, 0, 69, 0
2, 5472, Note_on_c, 0, 67, 58
2, 5481, Note_on_c, 0, 71, 58
2, 5490, Note_on_c, 0, 74, 58
2, 5499, Note_on_c, 0, 79, 58
2, 5567, Note_on_c, 0, 79, 0
2, 5567, Note_on_c, 0, 74, 0
2, 5567, Note_on_c, 0, 71, 0
2, 5567, Note_on_c, 0, 67, 0
2, 5760, Note_on_c, 0, 79, 80
2, 5809, Note_on_c, 0, 79, 0
2, 5814, Note_on_c, 0, 80, 80
2, 5820, Note_on_c, 0, 80, 0
2, 5820, Note_on_c, 0, 79, 80
2, 5826, Note_on_c, 0, 79, 0
2, 5826, Note_on_c, 0, 78, 80
2, 5832, Note_on_c, 0, 78, 0
2, 5832, Note_on_c, 0, 79, 77
2, 5855, Note_on_c, 0, 79, 0
2, 5856, Note_on_c, 0, 84, 76
2, 5952, Note_on_c, 0, 84, 0
2, 5952, Note_on_c, 0, 83, 72
2, 6041, Note_on_c, 0, 83, 0
2, 6048, Note_on_c, 0, 80, 68
2, 6144, Note_on_c, 0, 80, 0
2, 6144, Note_on_c, 0, 79, 64
2, 6233, Note_on_c, 0, 79, 0
2, 6336, Note_on_c, 0, 77, 64
2, 6381, Note_on_c, 0, 77, 0
2, 6384, Note_on_c, 0, 79, 64
2, 6390, Note_on_c, 0, 79, 0
2, 6390, Note_on_c, 0, 77, 64
2, 6396, Note_on_c, 0, 77, 0
2, 6396, Note_on_c, 0, 76, 64
2, 6402, Note_on_c, 0, 76, 0
2, 6402, Note_on_c, 0, 77, 64
2, 6418, Note_on_c, 0, 77, 0
2, 6420, Note_on_c, 0, 79, 64
2, 6432, Note_on_c, 0, 79, 0
2, 6432, Note_on_c, 0, 75, 64
2, 6471, Note_on_c, 0, 75, 0
2, 6624, Note_on_c, 0, 74, 80
2, 7089, Note_on_c, 0, 74, 0
2, 7104, Note_on_c, 0, 75, 64
2, 7104, Note_on_c, 0, 72, 64
2, 7200, Note_on_c, 0, 75, 0
2, 7200, Note_on_c, 0, 72, 0
2, 7200, Note_on_c, 0, 74, 64
2, 7200, Note_on_c, 0, 71, 64
2, 7289, Note_on_c, 0, 74, 0
2, 7289, Note_on_c, 0, 71, 0
2, 7392, Note_on_c, 0, 84, 58
2, 7392, Note_on_c, 0, 75, 58
2, 7488, Note_on_c, 0, 84, 0
2, 7488, Note_on_c, 0, 75, 0
2, 7488, Note_on_c, 0, 83, 58
2, 7488, Note_on_c, 0, 74, 58
2, 7577, Note_on_c, 0, 83, 0
2, 7577, Note_on_c, 0, 74, 0
2, 7776, Note_on_c, 0, 55, 80
2, 7825, Note_on_c, 0, 55, 0
2, 7830, Note_on_c, 0, 57, 80
2, 7836, Note_on_c, 0, 57, 0
2, 7836, Note_on_c, 0, 55, 80
2, 7842, Note_on_c, 0, 55, 0
2, 7842, Note_on_c, 0, 54, 80
2, 7848, Note_on_c, 0, 54, 0
2, 7848, Note_on_c, 0, 55, 80
2, 7871, Note_on_c, 0, 55, 0
2, 7872, Note_on_c, 0, 64, 80
2, 7968, Note_on_c, 0, 64, 0
2, 7968, Note_on_c, 0, 60, 80
2, 8057, Note_on_c, 0, 60, 0
2, 8064, Note_on_c, 0, 59, 80
2, 8160, Note_on_c, 0, 59, 0
2, 8160, Note_on_c, 0, 67, 70
2, 8180, Note_on_c, 0, 67, 0
2, 8352, Note_on_c, 0, 60, 70
2, 8400, Note_on_c, 0, 60, 0
2, 8400, Note_on_c, 0, 62, 70
2, 8412, Note_on_c, 0, 62, 0
2, 8412, Note_on_c, 0, 64, 70
2, 8423, Note_on_c, 0, 64, 0
2, 8423, Note_on_c, 0, 65, 70
2, 8434, Note_on_c, 0, 65, 0
2, 8434, Note_on_c, 0, 67, 71
2, 8445, Note_on_c, 0, 67, 0
2, 8445, Note_on_c, 0, 69, 71
2, 8456, Note_on_c, 0, 69, 0
2, 8456, Note_on_c, 0, 71, 71
2, 8467, Note_on_c, 0, 71, 0
2, 8467, Note_on_c, 0, 72, 71
2, 8478, Note_on_c, 0, 72, 0
2, 8478, Note_on_c, 0, 74, 71
2, 8489, Note_on_c, 0, 74, 0
2, 8489, Note_on_c, 0, 76, 71
2, 8500, Note_on_c, 0, 76, 0
2, 8500, Note_on_c, 0, 77, 72
2, 8511, Note_on_c, 0, 77, 0
2, 8511, Note_on_c, 0, 79, 72
2, 8522, Note_on_c, 0, 79, 0
2, 8522, Note_on_c, 0, 81, 72
2, 8533, Note_on_c, 0, 81, 0
2, 8533, Note_on_c, 0, 83, 72
2, 8544, Note_on_c, 0, 83, 0
2, 8544, Note_on_c, 0, 84, 75
2, 8554, Note_on_c, 0, 84, 0
2, 8568, Note_on_c, 0, 79, 74
2, 8578, Note_on_c, 0, 79, 0
2, 8592, Note_on_c, 0, 76, 73
2, 8602, Note_on_c, 0, 76, 0
2, 8616, Note_on_c, 0, 72, 73
2, 8626, Note_on_c, 0, 72, 0
2, 8640, Note_on_c, 0, 71, 72
2, 8734, Note_on_c, 0, 71, 0
2, 8736, Note_on_c, 0, 79, 70
2, 8775, Note_on_c, 0, 79, 0
2, 8928, Note_on_c, 0, 73, 58
2, 9024, Note_on_c, 0, 73, 0
2, 9024, Note_on_c, 0, 82, 58
2, 9201, Note_on_c, 0, 82, 0
2, 9216, Note_on_c, 0, 74, 80
2, 9265, Note_on_c, 0, 74, 0
2, 9270, Note_on_c, 0, 76, 80
2, 9276, Note_on_c, 0, 76, 0
2, 9276, Note_on_c, 0, 74, 80
2, 9282, Note_on_c, 0, 74, 0
2, 9282, Note_on_c, 0, 73, 80
2, 9288, Note_on_c, 0, 73, 0
2, 9288, Note_on_c, 0, 74, 80
2, 9311, Note_on_c, 0, 74, 0
2, 9312, Note_on_c, 0, 76, 80
2, 9361, Note_on_c, 0, 76, 0
2, 9366, Note_on_c, 0, 77, 80
2, 9372, Note_on_c, 0, 77, 0
2, 9372, Note_on_c, 0, 76, 80
2, 9378, Note_on_c, 0, 76, 0
2, 9378, Note_on_c, 0, 74, 80
2, 9384, Note_on_c, 0, 74, 0
2, 9384, Note_on_c, 0, 76, 80
2, 9407, Note_on_c, 0, 76, 0
2, 9408, Note_on_c, 0, 77, 80
2, 9457, Note_on_c, 0, 77, 0
2, 9462, Note_on_c, 0, 79, 80
2, 9468, Note_on_c, 0, 79, 0
2, 9468, Note_on_c, 0, 77, 80
2, 9474, Note_on_c, 0, 77, 0
2, 9474, Note_on_c, 0, 76, 80
2, 9480, Note_on_c, 0, 76, 0
2, 9480, Note_on_c, 0, 77, 80
2, 9503, Note_on_c, 0, 77, 0
2, 9504, Note_on_c, 0, 81, 80
2, 9504, Note_on_c, 0, 77, 80
2, 9667, Note_on_c, 0, 81, 0
2, 9667, Note_on_c, 0, 77, 0
2, 9672, Note_on_c, 0, 79, 80
2, 9672, Note_on_c, 0, 76, 80
2, 9695, Note_on_c, 0, 79, 0
2, 9695, Note_on_c, 0, 76, 0
2, 9696, Note_on_c, 0, 77, 80
2, 9696, Note_on_c, 0, 74, 80
2, 9743, Note_on_c, 0, 77, 0
2, 9743, Note_on_c, 0, 74, 0
2, 9768, Note_on_c, 0, 76, 77
2, 9768, Note_on_c, 0, 72, 77
2, 9791, Note_on_c, 0, 76, 0
2, 9791, Note_on_c, 0, 72, 0
2, 9792, Note_on_c, 0, 76, 76
2, 9859, Note_on_c, 0, 76, 0
2, 9864, Note_on_c, 0, 74, 73
2, 9887, Note_on_c, 0, 74, 0
2, 9888, Note_on_c, 0, 72, 72
2, 9908, Note_on_c, 0, 72, 0
2, 9984, Note_on_c, 0, 72, 64
2, 9990, Note_on_c, 0, 72, 0
2, 9990, Note_on_c, 0, 71, 64
2, 9996, Note_on_c, 0, 71, 0
2, 9996, Note_on_c, 0, 69, 64
2, 10002, Note_on_c, 0, 69, 0
2, 10002, Note_on_c, 0, 71, 64
2, 10029, Note_on_c, 0, 71, 0
2, 10080, Note_on_c, 0, 72, 64
2, 10080, Note_on_c, 0, 64, 64
2, 10169, Note_on_c, 0, 72, 0
2, 10169, Note_on_c, 0, 64, 0
2, 10368, Note_on_c, 0, 79, 80
2, 10417, Note_on_c, 0, 79, 0
2, 10422, Note_on_c, 0, 80, 80
2, 10428, Note_on_c, 0, 80, 0
2, 10428, Note_on_c, 0, 79, 80
2, 10434, Note_on_c, 0, 79, 0
2, 10434, Note_on_c, 0, 78, 80
2, 10440, Note_on_c, 0, 78, 0
2, 10440, Note_on_c, 0, 79, 77
2, 10463, Note_on_c, 0, 79, 0
2, 10464, Note_on_c, 0, 84, 76
2, 10560, Note_on_c, 0, 84, 0
2, 10560, Note_on_c, 0, 83, 72
2, 10649, Note_on_c, 0, 83, 0
2, 10656, Note_on_c, 0, 80, 68
2, 10752, Note_on_c, 0, 80, 0
2, 10752, Note_on_c, 0, 79, 64
2, 10841, Note_on_c, 0, 79, 0
2, 10944, Note_on_c, 0, 77, 64
2, 10989, Note_on_c, 0, 77, 0
2, 10992, Note_on_c, 0, 79, 64
2, 10998, Note_on_c, 0, 79, 0
2, 10998, Note_on_c, 0, 77, 64
2, 11004, Note_on_c, 0, 77, 0
2, 11004, Note_on_c, 0, 76, 64
2, 11010, Note_on_c, 0, 76, 0
2, 11010, Note_on_c, 0, 77, 64
2, 11026, Note_on_c, 0, 77, 0
2, 11028, Note_on_c, 0, 79, 64
2, 11040, Note_on_c, 0, 79, 0
2, 11040, Note_on_c, 0, 75, 64
2, 11079, Note_on_c, 0, 75, 0
2, 11232, Note_on_c, 0, 74, 80
2, 11697, Note_on_c, 0, 74, 0
2, 11712, Note_on_c, 0, 75, 64
2, 11712, Note_on_c, 0, 72, 64
2, 11808, Note_on_c, 0, 75, 0
2, 11808, Note_on_c, 0, 72, 0
2, 11808, Note_on_c, 0, 74, 64
2, 11808, Note_on_c, 0, 71, 64
2, 11897, Note_on_c, 0, 74, 0
2, 11897, Note_on_c, 0, 71, 0
2, 12000, Note_on_c, 0, 84, 58
2, 12000, Note_on_c, 0, 75, 58
2, 12096, Note_on_c, 0, 84, 0
2, 12096, Note_on_c, 0, 75, 0
2, 12096, Note_on_c, 0, 83, 58
2, 12096, Note_on_c, 0, 74, 58
2, 12185, Note_on_c, 0, 83, 0
2, 12185, Note_on_c, 0, 74, 0
2, 12384, Note_on_c, 0, 55, 80
2, 12433, Note_on_c, 0, 55, 0
2, 12438, Note_on_c, 0, 57, 80
2, 12444, Note_on_c, 0, 57, 0
2, 12444, Note_on_c, 0, 55, 80
2, 12450, Note_on_c, 0, 55, 0
2, 12450, Note_on_c, 0, 54, 80
2, 12456, Note_on_c, 0, 54, 0
2, 12456, Note_on_c, 0, 55, 80
2, 12479, Note_on_c, 0, 55, 0
2, 12480, Note_on_c, 0, 64, 80
2, 12576, Note_on_c, 0, 64, 0
2, 12576, Note_on_c, 0, 60, 80
2, 12665, Note_on_c, 0, 60, 0
2, 12672, Note_on_c, 0, 59, 80
2, 12768, Note_on_c, 0, 59, 0
2, 12768, Note_on_c, 0, 67, 70
2, 12788, Note_on_c, 0, 67, 0
2, 12960, Note_on_c, 0, 60, 70
2, 13008, Note_on_c, 0, 60, 0
2, 13008, Note_on_c, 0, 62, 70
2, 13020, Note_on_c, 0, 62, 0
2, 13020, Note_on_c, 0, 64, 70
2, 13031, Note_on_c, 0, 64, 0
2, 13031, Note_on_c, 0, 65, 70
2, 13042, Note_on_c, 0, 65, 0
2, 13042, Note_on_c, 0, 67, 71
2, 13053, Note_on_c, 0, 67, 0
2, 13053, Note_on_c, 0, 69, 71
2, 13064, Note_on_c, 0, 69, 0
2, 13064, Note_on_c, 0, 71, 71
2, 13075, Note_on_c, 0, 71, 0
2, 13075, Note_on_c, 0, 72, 71
2, 13086, Note_on_c, 0, 72, 0
2, 13086, Note_on_c, 0, 74, 71
2, 13097, Note_on_c, 0, 74, 0
2, 13097, Note_on_c, 0, 76, 71
2, 13108, Note_on_c, 0, 76, 0
2, 13108, Note_on_c, 0, 77, 72
2, 13119, Note_on_c, 0, 77, 0
2, 13119, Note_on_c, 0, 79, 72
2, 13130, Note_on_c, 0, 79, 0
2, 13130, Note_on_c, 0, 81, 72
2, 13141, Note_on_c, 0, 81, 0
2, 13141, Note_on_c, 0, 83, 72
2, 13152, Note_on_c, 0, 83, 0
2, 13152, Note_on_c, 0, 84, 75
2, 13162, Note_on_c, 0, 84, 0
2, 13176, Note_on_c, 0, 79, 74
2, 13186, Note_on_c, 0, 79, 0
2, 13200, Note_on_c, 0, 76, 73
2, 13210, Note_on_c, 0, 76, 0
2, 13224, Note_on_c, 0, 72, 73
2, 13234, Note_on_c, 0, 72, 0
2, 13248, Note_on_c, 0, 71, 72
2, 13342, Note_on_c, 0, 71, 0
2, 13344, Note_on_c, 0, 79, 70
2, 13383, Note_on_c, 0, 79, 0
2, 13536, Note_on_c, 0, 73, 58
2, 13632, Note_on_c, 0, 73, 0
2, 13632, Note_on_c, 0, 82, 58
2, 13809, Note_on_c, 0, 82, 0
2, 13824, Note_on_c, 0, 74, 80
2, 13873, Note_on_c, 0, 74, 0
2, 13878, Note_on_c, 0, 76, 80
2, 13884, Note_on_c, 0, 76, 0
2, 13884, Note_on_c, 0, 74, 80
2, 13890, Note_on_c, 0, 74, 0
2, 13890, Note_on_c, 0, 73, 80
2, 13896, Note_on_c, 0, 73, 0
2, 13896, Note_on_c, 0, 74, 80
2, 13919, Note_on_c, 0, 74, 0
2, 13920, Note_on_c, 0, 76, 80
2, 13969, Note_on_c, 0, 76, 0
2, 13974, Note_on_c, 0, 77, 80
2, 13980, Note_on_c, 0, 77, 0
2, 13980, Note_on_c, 0, 76, 80
2, 13986, Note_on_c, 0, 76, 0
2, 13986, Note_on_c, 0, 74, 80
2, 13992, Note_on_c, 0, 74, 0
2, 13992, Note_on_c, 0, 76, 80
2, 14015, Note_on_c, 0, 76, 0
2, 14016, Note_on_c, 0, 77, 80
2, 14065, Note_on_c, 0, 77, 0
2, 14070, Note_on_c, 0, 79, 80
2, 14076, Note_on_c, 0, 79, 0
2, 14076, Note_on_c, 0, 77, 80
2, 14082, Note_on_c, 0, 77, 0
2, 14082, Note_on_c, 0, 76, 80
2, 14088, Note_on_c, 0, 76, 0
2, 14088, Note_on_c, 0, 77, 80
2, 14111, Note_on_c, 0, 77, 0
2, 14112, Note_on_c, 0, 81, 80
2, 14112, Note_on_c, 0, 77, 80
2, 14275, Note_on_c, 0, 81, 0
2, 14275, Note_on_c, 0, 77, 0
2, 14280, Note_on_c, 0, 79, 80
2, 14280, Note_on_c, 0, 76, 80
2, 14303, Note_on_c, 0, 79, 0
2, 14303, Note_on_c, 0, 76, 0
2, 14304, Note_on_c, 0, 77, 80
2, 14304, Note_on_c, 0, 74, 80
2, 14351, Note_on_c, 0, 77, 0
2, 14351, Note_on_c, 0, 74, 0
2, 14376, Note_on_c, 0, 76, 77
2, 14376, Note_on_c, 0, 72, 77
2, 14399, Note_on_c, 0, 76, 0
2, 14399, Note_on_c, 0, 72, 0
2, 14400, Note_on_c, 0, 76, 76
2, 14467, Note_on_c, 0, 76, 0
2, 14472, Note_on_c, 0, 74, 73
2, 14495, Note_on_c, 0, 74, 0
2, 14496, Note_on_c, 0, 72, 72
2, 14516, Note_on_c, 0, 72, 0
2, 14592, Note_on_c, 0, 72, 64
2, 14598, Note_on_c, 0, 72, 0
2, 14598, Note_on_c, 0, 71, 64
2, 14604, Note_on_c, 0, 71, 0
2, 14604, Note_on_c, 0, 69, 64
2, 14610, Note_on_c, 0, 69, 0
2, 14610, Note_on_c, 0, 71, 64
2, 14637, Note_on_c, 0, 71, 0
2, 14688, Note_on_c, 0, 72, 64
2, 14688, Note_on_c, 0, 64, 64
2, 14777, Note_on_c, 0, 72, 0
2, 14777, Note_on_c, 0, 64, 0
2, 14976, Note_on_c, 0, 67, 80
2, 15025, Note_on_c, 0, 67, 0
2, 15030, Note_on_c, 0, 68, 80
2, 15036, Note_on_c, 0, 68, 0
2, 15036, Note_on_c, 0, 67, 80
2, 15042, Note_on_c, 0, 67, 0
2, 15042, Note_on_c, 0, 66, 80
2, 15048, Note_on_c, 0, 66, 0
2, 15048, Note_on_c, 0, 67, 80
2, 15071, Note_on_c, 0, 67, 0
2, 15072, Note_on_c, 0, 75, 80
2, 15168, Note_on_c, 0, 75, 0
2, 15168, Note_on_c, 0, 72, 80
2, 15257, Note_on_c, 0, 72, 0
2, 15264, Note_on_c, 0, 71, 80
2, 15529, Note_on_c, 0, 71, 0
2, 15552, Note_on_c, 0, 72, 80
2, 15601, Note_on_c, 0, 72, 0
2, 15606, Note_on_c, 0, 74, 80
2, 15612, Note_on_c, 0, 74, 0
2, 15612, Note_on_c, 0, 72, 80
2, 15618, Note_on_c, 0, 72, 0
2, 15618, Note_on_c, 0, 71, 80
2, 15624, Note_on_c, 0, 71, 0
2, 15624, Note_on_c, 0, 72, 80
2, 15647, Note_on_c, 0, 72, 0
2, 15648, Note_on_c, 0, 79, 80
2, 15744, Note_on_c, 0, 79, 0
2, 15744, Note_on_c, 0, 75, 80
2, 15833, Note_on_c, 0, 75, 0
2, 15840, Note_on_c, 0, 74, 80
2, 15863, Note_on_c, 0, 74, 0
2, 15864, Note_on_c, 0, 75, 80
2, 15887, Note_on_c, 0, 75, 0
2, 15888, Note_on_c, 0, 77, 81
2, 15911, Note_on_c, 0, 77, 0
2, 15912, Note_on_c, 0, 75, 81
2, 15935, Note_on_c, 0, 75, 0
2, 15936, Note_on_c, 0, 79, 82
2, 15981, Note_on_c, 0, 79, 0
2, 15984, Note_on_c, 0, 77, 83
2, 16029, Note_on_c, 0, 77, 0
2, 16032, Note_on_c, 0, 75, 84
2, 16077, Note_on_c, 0, 75, 0
2, 16080, Note_on_c, 0, 74, 86
2, 16125, Note_on_c, 0, 74, 0
2, 16128, Note_on_c, 0, 72, 86
2, 16176, Note_on_c, 0, 72, 0
2, 16176, Note_on_c, 0, 71, 83
2, 16221, Note_on_c, 0, 71, 0
2, 16416, Note_on_c, 0, 74, 80
2, 16465, Note_on_c, 0, 74, 0
2, 16470, Note_on_c, 0, 75, 80
2, 16476, Note_on_c, 0, 75, 0
2, 16476, Note_on_c, 0, 74, 80
2, 16482, Note_on_c, 0, 74, 0
2, 16482, Note_on_c, 0, 73, 80
2, 16488, Note_on_c, 0, 73, 0
2, 16488, Note_on_c, 0, 74, 80
2, 16511, Note_on_c, 0, 74, 0
2, 16512, Note_on_c, 0, 82, 80
2, 16608, Note_on_c, 0, 82, 0
2, 16608, Note_on_c, 0, 79, 80
2, 16697, Note_on_c, 0, 79, 0
2, 16704, Note_on_c, 0, 78, 80
2, 16727, Note_on_c, 0, 78, 0
2, 16728, Note_on_c, 0, 75, 80
2, 16751, Note_on_c, 0, 75, 0
2, 16752, Note_on_c, 0, 74, 80
2, 16775, Note_on_c, 0, 74, 0
2, 16776, Note_on_c, 0, 72, 80
2, 16799, Note_on_c, 0, 72, 0
2, 16800, Note_on_c, 0, 70, 80
2, 16823, Note_on_c, 0, 70, 0
2, 16824, Note_on_c, 0, 69, 80
2, 16847, Note_on_c, 0, 69, 0
2, 16848, Note_on_c, 0, 67, 80
2, 16871, Note_on_c, 0, 67, 0
2, 16872, Note_on_c, 0, 66, 80
2, 16895, Note_on_c, 0, 66, 0
2, 16896, Note_on_c, 0, 63, 80
2, 16919, Note_on_c, 0, 63, 0
2, 16920, Note_on_c, 0, 62, 80
2, 16943, Note_on_c, 0, 62, 0
2, 16944, Note_on_c, 0, 60, 80
2, 16967, Note_on_c, 0, 60, 0
2, 16968, Note_on_c, 0, 58, 80
2, 16991, Note_on_c, 0, 58, 0
2, 17880, Note_on_c, 0, 67, 75
2, 17903, Note_on_c, 0, 67, 0
2, 17904, Note_on_c, 0, 68, 75
2, 17927, Note_on_c, 0, 68, 0
2, 17928, Note_on_c, 0, 69, 75
2, 17951, Note_on_c, 0, 69, 0
2, 17952, Note_on_c, 0, 70, 75
2, 17975, Note_on_c, 0, 70, 0
2, 17976, Note_on_c, 0, 71, 75
2, 17999, Note_on_c, 0, 71, 0
2, 18000, Note_on_c, 0, 72, 75
2, 18023, Note_on_c, 0, 72, 0
2, 18024, Note_on_c, 0, 74, 75
2, 18047, Note_on_c, 0, 74, 0
2, 18048, Note_on_c, 0, 77, 75
2, 18071, Note_on_c, 0, 77, 0
2, 18072, Note_on_c, 0, 75, 75
2, 18095, Note_on_c, 0, 75, 0
2, 18096, Note_on_c, 0, 74, 75
2, 18119, Note_on_c, 0, 74, 0
2, 18120, Note_on_c, 0, 72, 75
2, 18143, Note_on_c, 0, 72, 0
2, 18144, Note_on_c, 0, 72, 75
2, 18336, Note_on_c, 0, 72, 0
2, 18336, Note_on_c, 0, 71, 75
2, 18425, Note_on_c, 0, 71, 0
2, 18456, Note_on_c, 0, 72, 75
2, 18479, Note_on_c, 0, 72, 0
2, 18480, Note_on_c, 0, 75, 75
2, 18503, Note_on_c, 0, 75, 0
2, 18504, Note_on_c, 0, 74, 75
2, 18527, Note_on_c, 0, 74, 0
2, 18528, Note_on_c, 0, 77, 75
2, 18551, Note_on_c, 0, 77, 0
2, 18552, Note_on_c, 0, 75, 75
2, 18575, Note_on_c, 0, 75, 0
2, 18576, Note_on_c, 0, 79, 75
2, 18599, Note_on_c, 0, 79, 0
2, 18600, Note_on_c, 0, 77, 75
2, 18623, Note_on_c, 0, 77, 0
2, 18624, Note_on_c, 0, 80, 75
2, 18647, Note_on_c, 0, 80, 0
2, 18648, Note_on_c, 0, 79, 75
2, 18671, Note_on_c, 0, 79, 0
2, 18672, Note_on_c, 0, 77, 75
2, 18695, Note_on_c, 0, 77, 0
2, 18696, Note_on_c, 0, 75, 75
2, 18719, Note_on_c, 0, 75, 0
2, 18720, Note_on_c, 0, 74, 75
2, 18743, Note_on_c, 0, 74, 0
2, 18744, Note_on_c, 0, 75, 75
2, 18767, Note_on_c, 0, 75, 0
2, 18768, Note_on_c, 0, 77, 75
2, 18791, Note_on_c, 0, 77, 0
2, 18792, Note_on_c, 0, 79, 75
2, 18815, Note_on_c, 0, 79, 0
2, 18816, Note_on_c, 0, 82, 75
2, 18839, Note_on_c, 0, 82, 0
2, 18840, Note_on_c, 0, 80, 75
2, 18863, Note_on_c, 0, 80, 0
2, 18864, Note_on_c, 0, 79, 75
2, 18887, Note_on_c, 0, 79, 0
2, 18888, Note_on_c, 0, 77, 75
2, 18911, Note_on_c, 0, 77, 0
2, 18912, Note_on_c, 0, 77, 75
2, 18935, Note_on_c, 0, 77, 0
2, 18936, Note_on_c, 0, 75, 75
2, 18959, Note_on_c, 0, 75, 0
2, 18960, Note_on_c, 0, 74, 75
2, 18983, Note_on_c, 0, 74, 0
2, 18984, Note_on_c, 0, 72, 75
2, 19007, Note_on_c, 0, 72, 0
2, 19008, Note_on_c, 0, 74, 75
2, 19053, Note_on_c, 0, 74, 0
2, 19056, Note_on_c, 0, 72, 75
2, 19062, Note_on_c, 0, 72, 0
2, 19062, Note_on_c, 0, 74, 75
2, 19068, Note_on_c, 0, 74, 0
2, 19068, Note_on_c, 0, 72, 75
2, 19101, Note_on_c, 0, 72, 0
2, 19104, Note_on_c, 0, 71, 75
2, 19149, Note_on_c, 0, 71, 0
2, 19320, Note_on_c, 0, 62, 80
2, 19343, Note_on_c, 0, 62, 0
2, 19344, Note_on_c, 0, 67, 80
2, 19367, Note_on_c, 0, 67, 0
2, 19368, Note_on_c, 0, 70, 80
2, 19391, Note_on_c, 0, 70, 0
2, 19392, Note_on_c, 0, 74, 80
2, 19415, Note_on_c, 0, 74, 0
2, 19416, Note_on_c, 0, 79, 80
2, 19439, Note_on_c, 0, 79, 0
2, 19440, Note_on_c, 0, 82, 80
2, 19463, Note_on_c, 0, 82, 0
2, 19464, Note_on_c, 0, 86, 80
2, 19487, Note_on_c, 0, 86, 0
2, 19488, Note_on_c, 0, 84, 80
2, 19511, Note_on_c, 0, 84, 0
2, 19512, Note_on_c, 0, 82, 80
2, 19535, Note_on_c, 0, 82, 0
2, 19536, Note_on_c, 0, 81, 80
2, 19559, Note_on_c, 0, 81, 0
2, 19560, Note_on_c, 0, 79, 80
2, 19583, Note_on_c, 0, 79, 0
2, 19584, Note_on_c, 0, 78, 80
2, 19607, Note_on_c, 0, 78, 0
2, 19608, Note_on_c, 0, 75, 80
2, 19631, Note_on_c, 0, 75, 0
2, 19632, Note_on_c, 0, 74, 80
2, 19655, Note_on_c, 0, 74, 0
2, 19656, Note_on_c, 0, 72, 80
2, 19679, Note_on_c, 0, 72, 0
2, 19680, Note_on_c, 0, 70, 80
2, 19703, Note_on_c, 0, 70, 0
2, 19704, Note_on_c, 0, 69, 80
2, 19727, Note_on_c, 0, 69, 0
2, 19728, Note_on_c, 0, 67, 80
2, 19751, Note_on_c, 0, 67, 0
2, 19752, Note_on_c, 0, 66, 80
2, 19775, Note_on_c, 0, 66, 0
2, 19776, Note_on_c, 0, 63, 80
2, 19799, Note_on_c, 0, 63, 0
2, 19800, Note_on_c, 0, 62, 80
2, 19823, Note_on_c, 0, 62, 0
2, 19824, Note_on_c, 0, 60, 80
2, 19847, Note_on_c, 0, 60, 0
2, 19848, Note_on_c, 0, 58, 80
2, 19871, Note_on_c, 0, 58, 0
2, 20208, Note_on_c, 0, 48, 64
2, 20253, Note_on_c, 0, 48, 0
2, 20304, Note_on_c, 0, 45, 64
2, 20349, Note_on_c, 0, 45, 0
2, 20400, Note_on_c, 0, 50, 64
2, 20445, Note_on_c, 0, 50, 0
2, 20448, Note_on_c, 0, 43, 64
2, 20625, Note_on_c, 0, 43, 0
2, 20736, Note_on_c, 0, 67, 75
2, 20736, Note_on_c, 0, 63, 75
2, 20913, Note_on_c, 0, 67, 0
2, 20913, Note_on_c, 0, 63, 0
2, 20928, Note_on_c, 0, 65, 75
2, 20928, Note_on_c, 0, 62, 75
2, 21017, Note_on_c, 0, 65, 0
2, 21017, Note_on_c, 0, 62, 0
2, 21024, Note_on_c, 0, 67, 64
2, 21047, Note_on_c, 0, 67, 0
2, 21048, Note_on_c, 0, 69, 66
2, 21071, Note_on_c, 0, 69, 0
2, 21072, Note_on_c, 0, 71, 68
2, 21095, Note_on_c, 0, 71, 0
2, 21096, Note_on_c, 0, 72, 70
2, 21119, Note_on_c, 0, 72, 0
2, 21120, Note_on_c, 0, 74, 72
2, 21143, Note_on_c, 0, 74, 0
2, 21144, Note_on_c, 0, 75, 74
2, 21167, Note_on_c, 0, 75, 0
2, 21168, Note_on_c, 0, 77, 76
2, 21191, Note_on_c, 0, 77, 0
2, 21192, Note_on_c, 0, 79, 78
2, 21215, Note_on_c, 0, 79, 0
2, 21216, Note_on_c, 0, 80, 112
2, 21305, Note_on_c, 0, 80, 0
2, 21312, Note_on_c, 0, 79, 80
2, 21335, Note_on_c, 0, 79, 0
2, 21336, Note_on_c, 0, 80, 80
2, 21359, Note_on_c, 0, 80, 0
2, 21360, Note_on_c, 0, 82, 80
2, 21383, Note_on_c, 0, 82, 0
2, 21384, Note_on_c, 0, 84, 80
2, 21407, Note_on_c, 0, 84, 0
2, 21408, Note_on_c, 0, 85, 80
2, 21431, Note_on_c, 0, 85, 0
2, 21432, Note_on_c, 0, 84, 80
2, 21455, Note_on_c, 0, 84, 0
2, 21456, Note_on_c, 0, 82, 80
2, 21479, Note_on_c, 0, 82, 0
2, 21480, Note_on_c, 0, 80, 80
2, 21503, Note_on_c, 0, 80, 0
2, 21504, Note_on_c, 0, 79, 80
2, 21527, Note_on_c, 0, 79, 0
2, 21528, Note_on_c, 0, 82, 80
2, 21551, Note_on_c, 0, 82, 0
2, 21552, Note_on_c, 0, 80, 80
2, 21575, Note_on_c, 0, 80, 0
2, 21576, Note_on_c, 0, 79, 80
2, 21599, Note_on_c, 0, 79, 0
2, 21600, Note_on_c, 0, 80, 80
2, 21623, Note_on_c, 0, 80, 0
2, 21624, Note_on_c, 0, 82, 80
2, 21647, Note_on_c, 0, 82, 0
2, 21648, Note_on_c, 0, 84, 80
2, 21671, Note_on_c, 0, 84, 0
2, 21672, Note_on_c, 0, 82, 80
2, 21695, Note_on_c, 0, 82, 0
2, 21696, Note_on_c, 0, 80, 80
2, 21719, Note_on_c, 0, 80, 0
2, 21720, Note_on_c, 0, 79, 80
2, 21743, Note_on_c, 0, 79, 0
2, 21744, Note_on_c, 0, 77, 80
2, 21767, Note_on_c, 0, 77, 0
2, 21768, Note_on_c, 0, 76, 80
2, 21791, Note_on_c, 0, 76, 0
2, 21792, Note_on_c, 0, 79, 80
2, 21815, Note_on_c, 0, 79, 0
2, 21816, Note_on_c, 0, 77, 80
2, 21839, Note_on_c, 0, 77, 0
2, 21840, Note_on_c, 0, 80, 80
2, 21863, Note_on_c, 0, 80, 0
2, 21864, Note_on_c, 0, 79, 80
2, 21887, Note_on_c, 0, 79, 0
2, 21888, Note_on_c, 0, 82, 80
2, 21911, Note_on_c, 0, 82, 0
2, 21912, Note_on_c, 0, 80, 80
2, 21935, Note_on_c, 0, 80, 0
2, 21936, Note_on_c, 0, 79, 80
2, 21959, Note_on_c, 0, 79, 0
2, 21960, Note_on_c, 0, 77, 80
2, 21983, Note_on_c, 0, 77, 0
2, 21984, Note_on_c, 0, 75, 80
2, 22007, Note_on_c, 0, 75, 0
2, 22008, Note_on_c, 0, 74, 80
2, 22031, Note_on_c, 0, 74, 0
2, 22032, Note_on_c, 0, 77, 80
2, 22055, Note_on_c, 0, 77, 0
2, 22056, Note_on_c, 0, 75, 80
2, 22079, Note_on_c, 0, 75, 0
2, 22080, Note_on_c, 0, 79, 80
2, 22103, Note_on_c, 0, 79, 0
2, 22104, Note_on_c, 0, 77, 80
2, 22127, Note_on_c, 0, 77, 0
2, 22128, Note_on_c, 0, 75, 80
2, 22151, Note_on_c, 0, 75, 0
2, 22152, Note_on_c, 0, 74, 80
2, 22175, Note_on_c, 0, 74, 0
2, 22176, Note_on_c, 0, 72, 80
2, 22199, Note_on_c, 0, 72, 0
2, 22200, Note_on_c, 0, 71, 80
2, 22223, Note_on_c, 0, 71, 0
2, 22224, Note_on_c, 0, 74, 80
2, 22247, Note_on_c, 0, 74, 0
2, 22248, Note_on_c, 0, 72, 80
2, 22271, Note_on_c, 0, 72, 0
2, 22272, Note_on_c, 0, 75, 80
2, 22295, Note_on_c, 0, 75, 0
2, 22296, Note_on_c, 0, 74, 80
2, 22319, Note_on_c, 0, 74, 0
2, 22320, Note_on_c, 0, 77, 80
2, 22343, Note_on_c, 0, 77, 0
2, 22344, Note_on_c, 0, 75, 80
2, 22367, Note_on_c, 0, 75, 0
2, 22368, Note_on_c, 0, 77, 80
2, 22391, Note_on_c, 0, 77, 0
2, 22392, Note_on_c, 0, 75, 80
2, 22415, Note_on_c, 0, 75, 0
2, 22416, Note_on_c, 0, 74, 80
2, 22439, Note_on_c, 0, 74, 0
2, 22440, Note_on_c, 0, 72, 80
2, 22463, Note_on_c, 0, 72, 0
2, 22464, Note_on_c, 0, 71, 80
2, 22487, Note_on_c, 0, 71, 0
2, 22488, Note_on_c, 0, 74, 80
2, 22511, Note_on_c, 0, 74, 0
2, 22512, Note_on_c, 0, 72, 80
2, 22535, Note_on_c, 0, 72, 0
2, 22536, Note_on_c, 0, 69, 80
2, 22559, Note_on_c, 0, 69, 0
2, 22560, Note_on_c, 0, 67, 80
2, 22583, Note_on_c, 0, 67, 0
2, 22584, Note_on_c, 0, 71, 78
2, 22607, Note_on_c, 0, 71, 0
2, 22608, Note_on_c, 0, 69, 76
2, 22631, Note_on_c, 0, 69, 0
2, 22632, Note_on_c, 0, 66, 74
2, 22655, Note_on_c, 0, 66, 0
2, 22656, Note_on_c, 0, 67, 72
2, 22679, Note_on_c, 0, 67, 0
2, 22680, Note_on_c, 0, 62, 70
2, 22703, Note_on_c, 0, 62, 0
2, 22704, Note_on_c, 0, 63, 68
2, 22727, Note_on_c, 0, 63, 0
2, 22728, Note_on_c, 0, 60, 66
2, 22751, Note_on_c, 0, 60, 0
2, 22752, Note_on_c, 0, 62, 58
2, 22775, Note_on_c, 0, 62, 0
2, 22776, Note_on_c, 0, 59, 58
2, 22799, Note_on_c, 0, 59, 0
2, 22800, Note_on_c, 0, 60, 58
2, 22823, Note_on_c, 0, 60, 0
2, 22824, Note_on_c, 0, 57, 58
2, 22847, Note_on_c, 0, 57, 0
2, 22848, Note_on_c, 0, 59, 58
2, 22871, Note_on_c, 0, 59, 0
2, 22872, Note_on_c, 0, 55, 58
2, 22895, Note_on_c, 0, 55, 0
2, 22896, Note_on_c, 0, 57, 58
2, 22919, Note_on_c, 0, 57, 0
2, 22920, Note_on_c, 0, 54, 58
2, 22943, Note_on_c, 0, 54, 0
2, 22944, Note_on_c, 0, 55, 58
2, 22967, Note_on_c, 0, 55, 0
2, 22968, Note_on_c, 0, 59, 58
2, 22991, Note_on_c, 0, 59, 0
2, 22992, Note_on_c, 0, 50, 58
2, 23015, Note_on_c, 0, 50, 0
2, 23016, Note_on_c, 0, 55, 58
2, 23039, Note_on_c, 0, 55, 0
2, 23160, Note_on_c, 0, 43, 58
2, 23183, Note_on_c, 0, 43, 0
2, 23184, Note_on_c, 0, 45, 61
2, 23207, Note_on_c, 0, 45, 0
2, 23208, Note_on_c, 0, 47, 64
2, 23231, Note_on_c, 0, 47, 0
2, 23232, Note_on_c, 0, 48, 67
2, 23255, Note_on_c, 0, 48, 0
2, 23256, Note_on_c, 0, 50, 70
2, 23279, Note_on_c, 0, 50, 0
2, 23280, Note_on_c, 0, 52, 73
2, 23303, Note_on_c, 0, 52, 0
2, 23304, Note_on_c, 0, 53, 76
2, 23327, Note_on_c, 0, 53, 0
2, 23328, Note_on_c, 0, 55, 80
2, 23377, Note_on_c, 0, 55, 0
2, 23382, Note_on_c, 0, 57, 80
2, 23388, Note_on_c, 0, 57, 0
2, 23388, Note_on_c, 0, 55, 80
2, 23394, Note_on_c, 0, 55, 0
2, 23394, Note_on_c, 0, 54, 80
2, 23400, Note_on_c, 0, 54, 0
2, 23400, Note_on_c, 0, 55, 80
2, 23423, Note_on_c, 0, 55, 0
2, 23424, Note_on_c, 0, 64, 80
2, 23520, Note_on_c, 0, 64, 0
2, 23520, Note_on_c, 0, 60, 80
2, 23609, Note_on_c, 0, 60, 0
2, 23616, Note_on_c, 0, 59, 80
2, 23712, Note_on_c, 0, 59, 0
2, 23712, Note_on_c, 0, 67, 70
2, 23732, Note_on_c, 0, 67, 0
2, 23904, Note_on_c, 0, 67, 70
2, 23934, Note_on_c, 0, 67, 0
2, 23936, Note_on_c, 0, 79, 73
2, 23966, Note_on_c, 0, 79, 0
2, 23968, Note_on_c, 0, 78, 76
2, 23998, Note_on_c, 0, 78, 0
2, 24000, Note_on_c, 0, 81, 80
2, 24030, Note_on_c, 0, 81, 0
2, 24032, Note_on_c, 0, 79, 78
2, 24062, Note_on_c, 0, 79, 0
2, 24064, Note_on_c, 0, 77, 76
2, 24094, Note_on_c, 0, 77, 0
2, 24096, Note_on_c, 0, 76, 75
2, 24126, Note_on_c, 0, 76, 0
2, 24128, Note_on_c, 0, 74, 73
2, 24158, Note_on_c, 0, 74, 0
2, 24160, Note_on_c, 0, 72, 72
2, 24190, Note_on_c, 0, 72, 0
2, 24192, Note_on_c, 0, 71, 70
2, 24222, Note_on_c, 0, 71, 0
2, 24224, Note_on_c, 0, 81, 70
2, 24254, Note_on_c, 0, 81, 0
2, 24256, Note_on_c, 0, 79, 70
2, 24286, Note_on_c, 0, 79, 0
2, 24288, Note_on_c, 0, 79, 86
2, 24384, Note_on_c, 0, 79, 0
2, 24480, Note_on_c, 0, 72, 64
2, 24510, Note_on_c, 0, 72, 0
2, 24512, Note_on_c, 0, 76, 64
2, 24542, Note_on_c, 0, 76, 0
2, 24544, Note_on_c, 0, 77, 64
2, 24574, Note_on_c, 0, 77, 0
2, 24576, Note_on_c, 0, 78, 64
2, 24606, Note_on_c, 0, 78, 0
2, 24608, Note_on_c, 0, 81, 64
2, 24638, Note_on_c, 0, 81, 0
2, 24640, Note_on_c, 0, 79, 64
2, 24670, Note_on_c, 0, 79, 0
2, 24672, Note_on_c, 0, 79, 80
2, 24720, Note_on_c, 0, 79, 0
2, 24768, Note_on_c, 0, 74, 70
2, 24780, Note_on_c, 0, 74, 0
2, 24780, Note_on_c, 0, 73, 70
2, 24792, Note_on_c, 0, 73, 0
2, 24792, Note_on_c, 0, 76, 70
2, 24804, Note_on_c, 0, 76, 0
2, 24804, Note_on_c, 0, 74, 70
2, 24816, Note_on_c, 0, 74, 0
2, 24816, Note_on_c, 0, 77, 70
2, 24828, Note_on_c, 0, 77, 0
2, 24828, Note_on_c, 0, 76, 71
2, 24840, Note_on_c, 0, 76, 0
2, 24840, Note_on_c, 0, 79, 71
2, 24852, Note_on_c, 0, 79, 0
2, 24852, Note_on_c, 0, 77, 72
2, 24864, Note_on_c, 0, 77, 0
2, 24864, Note_on_c, 0, 81, 72
2, 24931, Note_on_c, 0, 81, 0
2, 24936, Note_on_c, 0, 80, 75
2, 24959, Note_on_c, 0, 80, 0
2, 24960, Note_on_c, 0, 79, 76
2, 24984, Note_on_c, 0, 79, 0
2, 24984, Note_on_c, 0, 78, 77
2, 24994, Note_on_c, 0, 78, 0
2, 25008, Note_on_c, 0, 77, 78
2, 25053, Note_on_c, 0, 77, 0
2, 25056, Note_on_c, 0, 76, 80
2, 25101, Note_on_c, 0, 76, 0
2, 25104, Note_on_c, 0, 78, 80
2, 25116, Note_on_c, 0, 78, 0
2, 25116, Note_on_c, 0, 79, 80
2, 25128, Note_on_c, 0, 79, 0
2, 25128, Note_on_c, 0, 81, 80
2, 25140, Note_on_c, 0, 81, 0
2, 25140, Note_on_c, 0, 83, 80
2, 25152, Note_on_c, 0, 83, 0
2, 25152, Note_on_c, 0, 84, 80
2, 25164, Note_on_c, 0, 84, 0
2, 25164, Note_on_c, 0, 83, 80
2, 25176, Note_on_c, 0, 83, 0
2, 25176, Note_on_c, 0, 84, 80
2, 25188, Note_on_c, 0, 84, 0
2, 25188, Note_on_c, 0, 86, 80
2, 25200, Note_on_c, 0, 86, 0
2, 25200, Note_on_c, 0, 84, 80
2, 25212, Note_on_c, 0, 84, 0
2, 25212, Note_on_c, 0, 83, 80
2, 25224, Note_on_c, 0, 83, 0
2, 25224, Note_on_c, 0, 81, 80
2, 25236, Note_on_c, 0, 81, 0
2, 25236, Note_on_c, 0, 79, 80
2, 25248, Note_on_c, 0, 79, 0
2, 25248, Note_on_c, 0, 78, 80
2, 25260, Note_on_c, 0, 78, 0
2, 25260, Note_on_c, 0, 81, 80
2, 25272, Note_on_c, 0, 81, 0
2, 25272, Note_on_c, 0, 79, 80
2, 25284, Note_on_c, 0, 79, 0
2, 25284, Note_on_c, 0, 83, 80
2, 25296, Note_on_c, 0, 83, 0
2, 25296, Note_on_c, 0, 81, 80
2, 25308, Note_on_c, 0, 81, 0
2, 25308, Note_on_c, 0, 79, 80
2, 25320, Note_on_c, 0, 79, 0
2, 25320, Note_on_c, 0, 78, 80
2, 25332, Note_on_c, 0, 78, 0
2, 25332, Note_on_c, 0, 76, 80
2, 25344, Note_on_c, 0, 76, 0
2, 25344, Note_on_c, 0, 75, 80
2, 25393, Note_on_c, 0, 75, 0
2, 25398, Note_on_c, 0, 76, 80
2, 25404, Note_on_c, 0, 76, 0
2, 25404, Note_on_c, 0, 75, 80
2, 25410, Note_on_c, 0, 75, 0
2, 25410, Note_on_c, 0, 73, 80
2, 25416, Note_on_c, 0, 73, 0
2, 25416, Note_on_c, 0, 75, 72
2, 25439, Note_on_c, 0, 75, 0
2, 25440, Note_on_c, 0, 76, 70
2, 25487, Note_on_c, 0, 76, 0
2, 25680, Note_on_c, 0, 72, 64
2, 25692, Note_on_c, 0, 72, 0
2, 25692, Note_on_c, 0, 76, 64
2, 25704, Note_on_c, 0, 76, 0
2, 25704, Note_on_c, 0, 80, 64
2, 25716, Note_on_c, 0, 80, 0
2, 25716, Note_on_c, 0, 81, 64
2, 25728, Note_on_c, 0, 81, 0
2, 25728, Note_on_c, 0, 79, 64
2, 25748, Note_on_c, 0, 79, 0
2, 25848, Note_on_c, 0, 60, 64
2, 25856, Note_on_c, 0, 60, 0
2, 25856, Note_on_c, 0, 62, 64
2, 25864, Note_on_c, 0, 62, 0
2, 25864, Note_on_c, 0, 66, 64
2, 25872, Note_on_c, 0, 66, 0
2, 25992, Note_on_c, 0, 59, 58
2, 26000, Note_on_c, 0, 59, 0
2, 26000, Note_on_c, 0, 62, 58
2, 26008, Note_on_c, 0, 62, 0
2, 26008, Note_on_c, 0, 66, 58
2, 26016, Note_on_c, 0, 66, 0
2, 26016, Note_on_c, 0, 67, 58
2, 26061, Note_on_c, 0, 67, 0
2, 26208, Note_on_c, 0, 79, 80
2, 26257, Note_on_c, 0, 79, 0
2, 26262, Note_on_c, 0, 80, 80
2, 26268, Note_on_c, 0, 80, 0
2, 26268, Note_on_c, 0, 79, 80
2, 26274, Note_on_c, 0, 79, 0
2, 26274, Note_on_c, 0, 78, 80
2, 26280, Note_on_c, 0, 78, 0
2, 26280, Note_on_c, 0, 79, 77
2, 26303, Note_on_c, 0, 79, 0
2, 26304, Note_on_c, 0, 84, 76
2, 26400, Note_on_c, 0, 84, 0
2, 26400, Note_on_c, 0, 83, 72
2, 26489, Note_on_c, 0, 83, 0
2, 26496, Note_on_c, 0, 82, 68
2, 26526, Note_on_c, 0, 82, 0
2, 26528, Note_on_c, 0, 81, 66
2, 26558, Note_on_c, 0, 81, 0
2, 26560, Note_on_c, 0, 80, 65
2, 26590, Note_on_c, 0, 80, 0
2, 26592, Note_on_c, 0, 79, 64
2, 26681, Note_on_c, 0, 79, 0
2, 26784, Note_on_c, 0, 77, 64
2, 26829, Note_on_c, 0, 77, 0
2, 26832, Note_on_c, 0, 79, 64
2, 26838, Note_on_c, 0, 79, 0
2, 26838, Note_on_c, 0, 77, 64
2, 26844, Note_on_c, 0, 77, 0
2, 26844, Note_on_c, 0, 76, 64
2, 26850, Note_on_c, 0, 76, 0
2, 26850, Note_on_c, 0, 77, 64
2, 26866, Note_on_c, 0, 77, 0
2, 26868, Note_on_c, 0, 79, 64
2, 26880, Note_on_c, 0, 79, 0
2, 26880, Note_on_c, 0, 75, 64
2, 26919, Note_on_c, 0, 75, 0
2, 27072, Note_on_c, 0, 74, 80
2, 27537, Note_on_c, 0, 74, 0
2, 27552, Note_on_c, 0, 75, 64
2, 27552, Note_on_c, 0, 72, 64
2, 27648, Note_on_c, 0, 75, 0
2, 27648, Note_on_c, 0, 72, 0
2, 27648, Note_on_c, 0, 74, 64
2, 27648, Note_on_c, 0, 71, 64
2, 27737, Note_on_c, 0, 74, 0
2, 27737, Note_on_c, 0, 71, 0
2, 27840, Note_on_c, 0, 84, 58
2, 27840, Note_on_c, 0, 75, 58
2, 27929, Note_on_c, 0, 84, 0
2, 27929, Note_on_c, 0, 75, 0
2, 27936, Note_on_c, 0, 83, 58
2, 27936, Note_on_c, 0, 74, 58
2, 28025, Note_on_c, 0, 83, 0
2, 28025, Note_on_c, 0, 74, 0
2, 28224, Note_on_c, 0, 55, 64
2, 28313, Note_on_c, 0, 55, 0
2, 28320, Note_on_c, 0, 64, 64
2, 28409, Note_on_c, 0, 64, 0
2, 28416, Note_on_c, 0, 60, 64
2, 28505, Note_on_c, 0, 60, 0
2, 28512, Note_on_c, 0, 59, 64
2, 28608, Note_on_c, 0, 59, 0
2, 28608, Note_on_c, 0, 67, 64
2, 28697, Note_on_c, 0, 67, 0
2, 28800, Note_on_c, 0, 67, 80
2, 28889, Note_on_c, 0, 67, 0
2, 28896, Note_on_c, 0, 76, 80
2, 28985, Note_on_c, 0, 76, 0
2, 28992, Note_on_c, 0, 72, 80
2, 29081, Note_on_c, 0, 72, 0
2, 29088, Note_on_c, 0, 71, 80
2, 29184, Note_on_c, 0, 71, 0
2, 29184, Note_on_c, 0, 79, 80
2, 29273, Note_on_c, 0, 79, 0
2, 29376, Note_on_c, 0, 73, 64
2, 29472, Note_on_c, 0, 73, 0
2, 29472, Note_on_c, 0, 82, 64
2, 29561, Note_on_c, 0, 82, 0
2, 29688, Note_on_c, 0, 69, 64
2, 29711, Note_on_c, 0, 69, 0
2, 29712, Note_on_c, 0, 70, 65
2, 29735, Note_on_c, 0, 70, 0
2, 29736, Note_on_c, 0, 69, 66
2, 29759, Note_on_c, 0, 69, 0
2, 29760, Note_on_c, 0, 74, 68
2, 29783, Note_on_c, 0, 74, 0
2, 29784, Note_on_c, 0, 73, 69
2, 29807, Note_on_c, 0, 73, 0
2, 29808, Note_on_c, 0, 76, 71
2, 29831, Note_on_c, 0, 76, 0
2, 29832, Note_on_c, 0, 74, 72
2, 29855, Note_on_c, 0, 74, 0
2, 29856, Note_on_c, 0, 77, 74
2, 29879, Note_on_c, 0, 77, 0
2, 29880, Note_on_c, 0, 76, 75
2, 29903, Note_on_c, 0, 76, 0
2, 29904, Note_on_c, 0, 79, 77
2, 29927, Note_on_c, 0, 79, 0
2, 29928, Note_on_c, 0, 77, 78
2, 29951, Note_on_c, 0, 77, 0
2, 29952, Note_on_c, 0, 81, 112
2, 29952, Note_on_c, 0, 77, 112
2, 30085, Note_on_c, 0, 81, 0
2, 30085, Note_on_c, 0, 77, 0
2, 30096, Note_on_c, 0, 79, 80
2, 30096, Note_on_c, 0, 76, 80
2, 30141, Note_on_c, 0, 79, 0
2, 30141, Note_on_c, 0, 76, 0
2, 30144, Note_on_c, 0, 77, 80
2, 30144, Note_on_c, 0, 74, 80
2, 30189, Note_on_c, 0, 77, 0
2, 30189, Note_on_c, 0, 74, 0
2, 30192, Note_on_c, 0, 76, 80
2, 30192, Note_on_c, 0, 72, 80
2, 30237, Note_on_c, 0, 76, 0
2, 30237, Note_on_c, 0, 72, 0
2, 30240, Note_on_c, 0, 76, 80
2, 30307, Note_on_c, 0, 76, 0
2, 30312, Note_on_c, 0, 74, 80
2, 30335, Note_on_c, 0, 74, 0
2, 30336, Note_on_c, 0, 72, 80
2, 30336, Note_on_c, 0, 67, 80
2, 30381, Note_on_c, 0, 72, 0
2, 30381, Note_on_c, 0, 67, 0
2, 30432, Note_on_c, 0, 72, 64
2, 30438, Note_on_c, 0, 72, 0
2, 30438, Note_on_c, 0, 71, 64
2, 30444, Note_on_c, 0, 71, 0
2, 30444, Note_on_c, 0, 69, 64
2, 30450, Note_on_c, 0, 69, 0
2, 30450, Note_on_c, 0, 71, 64
2, 30450, Note_on_c, 0, 65, 64
2, 30477, Note_on_c, 0, 71, 0
2, 30477, Note_on_c, 0, 65, 0
2, 30528, Note_on_c, 0, 72, 64
2, 30528, Note_on_c, 0, 64, 64
2, 30617, Note_on_c, 0, 72, 0
2, 30617, Note_on_c, 0, 64, 0
2, 30816, Note_on_c, 0, 79, 80
2, 30865, Note_on_c, 0, 79, 0
2, 30870, Note_on_c, 0, 80, 80
2, 30876, Note_on_c, 0, 80, 0
2, 30876, Note_on_c, 0, 79, 80
2, 30882, Note_on_c, 0, 79, 0
2, 30882, Note_on_c, 0, 78, 80
2, 30888, Note_on_c, 0, 78, 0
2, 30888, Note_on_c, 0, 79, 80
2, 30911, Note_on_c, 0, 79, 0
2, 30912, Note_on_c, 0, 84, 80
2, 31008, Note_on_c, 0, 84, 0
2, 31008, Note_on_c, 0, 83, 80
2, 31097, Note_on_c, 0, 83, 0
2, 31104, Note_on_c, 0, 80, 80
2, 31127, Note_on_c, 0, 80, 0
2, 31128, Note_on_c, 0, 82, 80
2, 31136, Note_on_c, 0, 82, 0
2, 31136, Note_on_c, 0, 80, 80
2, 31144, Note_on_c, 0, 80, 0
2, 31144, Note_on_c, 0, 79, 80
2, 31152, Note_on_c, 0, 79, 0
2, 31152, Note_on_c, 0, 80, 80
2, 31175, Note_on_c, 0, 80, 0
2, 31176, Note_on_c, 0, 82, 80
2, 31186, Note_on_c, 0, 82, 0
2, 31200, Note_on_c, 0, 79, 80
2, 31247, Note_on_c, 0, 79, 0
2, 31392, Note_on_c, 0, 77, 80
2, 31404, Note_on_c, 0, 77, 0
2, 31404, Note_on_c, 0, 79, 80
2, 31416, Note_on_c, 0, 79, 0
2, 31416, Note_on_c, 0, 80, 80
2, 31428, Note_on_c, 0, 80, 0
2, 31428, Note_on_c, 0, 79, 80
2, 31440, Note_on_c, 0, 79, 0
2, 31440, Note_on_c, 0, 82, 80
2, 31452, Note_on_c, 0, 82, 0
2, 31452, Note_on_c, 0, 80, 80
2, 31464, Note_on_c, 0, 80, 0
2, 31464, Note_on_c, 0, 79, 80
2, 31476, Note_on_c, 0, 79, 0
2, 31476, Note_on_c, 0, 77, 80
2, 31488, Note_on_c, 0, 77, 0
2, 31488, Note_on_c, 0, 75, 80
2, 31508, Note_on_c, 0, 75, 0
2, 31680, Note_on_c, 0, 74, 80
2, 32145, Note_on_c, 0, 74, 0
2, 32160, Note_on_c, 0, 75, 64
2, 32160, Note_on_c, 0, 72, 64
2, 32256, Note_on_c, 0, 75, 0
2, 32256, Note_on_c, 0, 72, 0
2, 32256, Note_on_c, 0, 74, 64
2, 32256, Note_on_c, 0, 71, 64
2, 32345, Note_on_c, 0, 74, 0
2, 32345, Note_on_c, 0, 71, 0
2, 32448, Note_on_c, 0, 84, 58
2, 32448, Note_on_c, 0, 75, 58
2, 32493, Note_on_c, 0, 84, 0
2, 32493, Note_on_c, 0, 75, 0
2, 32496, Note_on_c, 0, 84, 58
2, 32496, Note_on_c, 0, 75, 58
2, 32541, Note_on_c, 0, 84, 0
2, 32541, Note_on_c, 0, 75, 0
2, 32544, Note_on_c, 0, 83, 58
2, 32544, Note_on_c, 0, 74, 58
2, 32633, Note_on_c, 0, 83, 0
2, 32633, Note_on_c, 0, 74, 0
2, 32832, Note_on_c, 0, 55, 80
2, 32832, Note_on_c, 0, 52, 80
2, 32877, Note_on_c, 0, 55, 0
2, 32877, Note_on_c, 0, 52, 0
2, 32880, Note_on_c, 0, 57, 80
2, 32880, Note_on_c, 0, 53, 80
2, 32890, Note_on_c, 0, 57, 0
2, 32890, Note_on_c, 0, 53, 0
2, 32904, Note_on_c, 0, 59, 80
2, 32904, Note_on_c, 0, 55, 80
2, 32914, Note_on_c, 0, 59, 0
2, 32914, Note_on_c, 0, 55, 0
2, 32928, Note_on_c, 0, 60, 80
2, 32928, Note_on_c, 0, 57, 80
2, 32938, Note_on_c, 0, 60, 0
2, 32938, Note_on_c, 0, 57, 0
2, 32952, Note_on_c, 0, 62, 80
2, 32952, Note_on_c, 0, 59, 80
2, 32962, Note_on_c, 0, 62, 0
2, 32962, Note_on_c, 0, 59, 0
2, 32976, Note_on_c, 0, 64, 80
2, 32976, Note_on_c, 0, 60, 80
2, 32986, Note_on_c, 0, 64, 0
2, 32986, Note_on_c, 0, 60, 0
2, 33000, Note_on_c, 0, 65, 80
2, 33000, Note_on_c, 0, 62, 80
2, 33010, Note_on_c, 0, 65, 0
2, 33010, Note_on_c, 0, 62, 0
2, 33024, Note_on_c, 0, 67, 80
2, 33024, Note_on_c, 0, 64, 80
2, 33034, Note_on_c, 0, 67, 0
2, 33034, Note_on_c, 0, 64, 0
2, 33048, Note_on_c, 0, 69, 80
2, 33048, Note_on_c, 0, 65, 80
2, 33058, Note_on_c, 0, 69, 0
2, 33058, Note_on_c, 0, 65, 0
2, 33072, Note_on_c, 0, 71, 80
2, 33072, Note_on_c, 0, 67, 80
2, 33082, Note_on_c, 0, 71, 0
2, 33082, Note_on_c, 0, 67, 0
2, 33096, Note_on_c, 0, 72, 80
2, 33096, Note_on_c, 0, 69, 80
2, 33106, Note_on_c, 0, 72, 0
2, 33106, Note_on_c, 0, 69, 0
2, 33120, Note_on_c, 0, 59, 80
2, 33169, Note_on_c, 0, 59, 0
2, 33174, Note_on_c, 0, 60, 80
2, 33180, Note_on_c, 0, 60, 0
2, 33180, Note_on_c, 0, 59, 80
2, 33186, Note_on_c, 0, 59, 0
2, 33186, Note_on_c, 0, 57, 80
2, 33192, Note_on_c, 0, 57, 0
2, 33192, Note_on_c, 0, 59, 80
2, 33215, Note_on_c, 0, 59, 0
2, 33216, Note_on_c, 0, 67, 80
2, 33261, Note_on_c, 0, 67, 0
2, 33408, Note_on_c, 0, 67, 64
2, 33431, Note_on_c, 0, 67, 0
2, 33432, Note_on_c, 0, 79, 64
2, 33455, Note_on_c, 0, 79, 0
2, 33456, Note_on_c, 0, 71, 65
2, 33479, Note_on_c, 0, 71, 0
2, 33480, Note_on_c, 0, 79, 67
2, 33503, Note_on_c, 0, 79, 0
2, 33504, Note_on_c, 0, 72, 68
2, 33527, Note_on_c, 0, 72, 0
2, 33528, Note_on_c, 0, 79, 70
2, 33551, Note_on_c, 0, 79, 0
2, 33552, Note_on_c, 0, 76, 71
2, 33575, Note_on_c, 0, 76, 0
2, 33576, Note_on_c, 0, 79, 73
2, 33599, Note_on_c, 0, 79, 0
2, 33600, Note_on_c, 0, 77, 75
2, 33623, Note_on_c, 0, 77, 0
2, 33624, Note_on_c, 0, 76, 73
2, 33647, Note_on_c, 0, 76, 0
2, 33648, Note_on_c, 0, 74, 72
2, 33671, Note_on_c, 0, 74, 0
2, 33672, Note_on_c, 0, 72, 70
2, 33695, Note_on_c, 0, 72, 0
2, 33696, Note_on_c, 0, 72, 69
2, 33720, Note_on_c, 0, 72, 0
2, 33720, Note_on_c, 0, 71, 68
2, 33743, Note_on_c, 0, 71, 0
2, 33744, Note_on_c, 0, 81, 66
2, 33768, Note_on_c, 0, 81, 0
2, 33768, Note_on_c, 0, 79, 65
2, 33791, Note_on_c, 0, 79, 0
2, 33792, Note_on_c, 0, 79, 80
2, 33840, Note_on_c, 0, 79, 0
2, 33984, Note_on_c, 0, 64, 70
2, 33991, Note_on_c, 0, 64, 0
2, 33991, Note_on_c, 0, 67, 70
2, 33998, Note_on_c, 0, 67, 0
2, 33998, Note_on_c, 0, 70, 70
2, 34005, Note_on_c, 0, 70, 0
2, 34005, Note_on_c, 0, 73, 71
2, 34012, Note_on_c, 0, 73, 0
2, 34012, Note_on_c, 0, 76, 72
2, 34019, Note_on_c, 0, 76, 0
2, 34019, Note_on_c, 0, 79, 72
2, 34026, Note_on_c, 0, 79, 0
2, 34026, Note_on_c, 0, 82, 73
2, 34033, Note_on_c, 0, 82, 0
2, 34033, Note_on_c, 0, 85, 74
2, 34040, Note_on_c, 0, 85, 0
2, 34040, Note_on_c, 0, 82, 75
2, 34047, Note_on_c, 0, 82, 0
2, 34047, Note_on_c, 0, 79, 74
2, 34054, Note_on_c, 0, 79, 0
2, 34054, Note_on_c, 0, 76, 73
2, 34061, Note_on_c, 0, 76, 0
2, 34061, Note_on_c, 0, 73, 73
2, 34068, Note_on_c, 0, 73, 0
2, 34068, Note_on_c, 0, 70, 72
2, 34074, Note_on_c, 0, 70, 0
2, 34074, Note_on_c, 0, 67, 71
2, 34080, Note_on_c, 0, 67, 0
2, 34080, Note_on_c, 0, 64, 70
2, 34125, Note_on_c, 0, 64, 0
2, 34320, Note_on_c, 0, 57, 70
2, 34332, Note_on_c, 0, 57, 0
2, 34332, Note_on_c, 0, 62, 70
2, 34344, Note_on_c, 0, 62, 0
2, 34344, Note_on_c, 0, 61, 71
2, 34356, Note_on_c, 0, 61, 0
2, 34356, Note_on_c, 0, 64, 71
2, 34368, Note_on_c, 0, 64, 0
2, 34368, Note_on_c, 0, 62, 72
2, 34380, Note_on_c, 0, 62, 0
2, 34380, Note_on_c, 0, 65, 72
2, 34392, Note_on_c, 0, 65, 0
2, 34392, Note_on_c, 0, 64, 73
2, 34404, Note_on_c, 0, 64, 0
2, 34404, Note_on_c, 0, 67, 73
2, 34416, Note_on_c, 0, 67, 0
2, 34416, Note_on_c, 0, 65, 74
2, 34428, Note_on_c, 0, 65, 0
2, 34428, Note_on_c, 0, 69, 74
2, 34440, Note_on_c, 0, 69, 0
2, 34440, Note_on_c, 0, 67, 75
2, 34452, Note_on_c, 0, 67, 0
2, 34452, Note_on_c, 0, 70, 75
2, 34464, Note_on_c, 0, 70, 0
2, 34464, Note_on_c, 0, 69, 76
2, 34476, Note_on_c, 0, 69, 0
2, 34476, Note_on_c, 0, 74, 76
2, 34488, Note_on_c, 0, 74, 0
2, 34488, Note_on_c, 0, 73, 77
2, 34500, Note_on_c, 0, 73, 0
2, 34500, Note_on_c, 0, 76, 77
2, 34512, Note_on_c, 0, 76, 0
2, 34512, Note_on_c, 0, 74, 78
2, 34524, Note_on_c, 0, 74, 0
2, 34524, Note_on_c, 0, 77, 78
2, 34536, Note_on_c, 0, 77, 0
2, 34536, Note_on_c, 0, 76, 79
2, 34548, Note_on_c, 0, 76, 0
2, 34548, Note_on_c, 0, 79, 79
2, 34560, Note_on_c, 0, 79, 0
2, 34560, Note_on_c, 0, 81, 112
2, 34560, Note_on_c, 0, 77, 112
2, 34723, Note_on_c, 0, 81, 0
2, 34723, Note_on_c, 0, 77, 0
2, 34728, Note_on_c, 0, 79, 80
2, 34728, Note_on_c, 0, 76, 80
2, 34751, Note_on_c, 0, 79, 0
2, 34751, Note_on_c, 0, 76, 0
2, 34752, Note_on_c, 0, 77, 80
2, 34752, Note_on_c, 0, 74, 80
2, 34799, Note_on_c, 0, 77, 0
2, 34799, Note_on_c, 0, 74, 0
2, 34824, Note_on_c, 0, 76, 77
2, 34824, Note_on_c, 0, 72, 77
2, 34847, Note_on_c, 0, 76, 0
2, 34847, Note_on_c, 0, 72, 0
2, 34848, Note_on_c, 0, 76, 76
2, 34915, Note_on_c, 0, 76, 0
2, 34920, Note_on_c, 0, 74, 73
2, 34943, Note_on_c, 0, 74, 0
2, 34944, Note_on_c, 0, 72, 72
2, 34964, Note_on_c, 0, 72, 0
2, 35040, Note_on_c, 0, 72, 64
2, 35046, Note_on_c, 0, 72, 0
2, 35046, Note_on_c, 0, 71, 64
2, 35052, Note_on_c, 0, 71, 0
2, 35052, Note_on_c, 0, 69, 64
2, 35058, Note_on_c, 0, 69, 0
2, 35058, Note_on_c, 0, 71, 64
2, 35085, Note_on_c, 0, 71, 0
2, 35136, Note_on_c, 0, 72, 64
2, 35136, Note_on_c, 0, 64, 64
2, 35225, Note_on_c, 0, 72, 0
2, 35225, Note_on_c, 0, 64, 0
2, 35424, Note_on_c, 0, 55, 64
2, 35513, Note_on_c, 0, 55, 0
2, 35520, Note_on_c, 0, 63, 64
2, 35609, Note_on_c, 0, 63, 0
2, 35616, Note_on_c, 0, 60, 64
2, 35705, Note_on_c, 0, 60, 0
2, 35712, Note_on_c, 0, 59, 64
2, 35808, Note_on_c, 0, 59, 0
2, 35808, Note_on_c, 0, 67, 64
2, 35897, Note_on_c, 0, 67, 0
2, 36024, Note_on_c, 0, 67, 80
2, 36047, Note_on_c, 0, 67, 0
2, 36048, Note_on_c, 0, 72, 80
2, 36071, Note_on_c, 0, 72, 0
2, 36072, Note_on_c, 0, 75, 80
2, 36095, Note_on_c, 0, 75, 0
2, 36096, Note_on_c, 0, 79, 80
2, 36119, Note_on_c, 0, 79, 0
2, 36120, Note_on_c, 0, 72, 80
2, 36143, Note_on_c, 0, 72, 0
2, 36144, Note_on_c, 0, 75, 80
2, 36167, Note_on_c, 0, 75, 0
2, 36168, Note_on_c, 0, 79, 80
2, 36191, Note_on_c, 0, 79, 0
2, 36192, Note_on_c, 0, 84, 80
2, 36215, Note_on_c, 0, 84, 0
2, 36216, Note_on_c, 0, 79, 80
2, 36239, Note_on_c, 0, 79, 0
2, 36240, Note_on_c, 0, 84, 80
2, 36263, Note_on_c, 0, 84, 0
2, 36264, Note_on_c, 0, 87, 80
2, 36287, Note_on_c, 0, 87, 0
2, 36288, Note_on_c, 0, 86, 80
2, 36311, Note_on_c, 0, 86, 0
2, 36312, Note_on_c, 0, 77, 80
2, 36335, Note_on_c, 0, 77, 0
2, 36336, Note_on_c, 0, 86, 80
2, 36359, Note_on_c, 0, 86, 0
2, 36360, Note_on_c, 0, 77, 80
2, 36383, Note_on_c, 0, 77, 0
2, 36384, Note_on_c, 0, 86, 80
2, 36407, Note_on_c, 0, 86, 0
2, 36408, Note_on_c, 0, 77, 78
2, 36431, Note_on_c, 0, 77, 0
2, 36432, Note_on_c, 0, 86, 76
2, 36455, Note_on_c, 0, 86, 0
2, 36456, Note_on_c, 0, 77, 74
2, 36479, Note_on_c, 0, 77, 0
2, 36480, Note_on_c, 0, 86, 72
2, 36503, Note_on_c, 0, 86, 0
2, 36504, Note_on_c, 0, 77, 70
2, 36527, Note_on_c, 0, 77, 0
2, 36528, Note_on_c, 0, 86, 68
2, 36551, Note_on_c, 0, 86, 0
2, 36552, Note_on_c, 0, 77, 66
2, 36575, Note_on_c, 0, 77, 0
2, 36576, Note_on_c, 0, 85, 64
2, 36599, Note_on_c, 0, 85, 0
2, 36600, Note_on_c, 0, 76, 64
2, 36623, Note_on_c, 0, 76, 0
2, 36624, Note_on_c, 0, 85, 64
2, 36647, Note_on_c, 0, 85, 0
2, 36648, Note_on_c, 0, 76, 64
2, 36671, Note_on_c, 0, 76, 0
2, 36672, Note_on_c, 0, 85, 64
2, 36695, Note_on_c, 0, 85, 0
2, 36696, Note_on_c, 0, 76, 64
2, 36719, Note_on_c, 0, 76, 0
2, 36720, Note_on_c, 0, 85, 64
2, 36743, Note_on_c, 0, 85, 0
2, 36744, Note_on_c, 0, 76, 64
2, 36767, Note_on_c, 0, 76, 0
2, 36768, Note_on_c, 0, 85, 64
2, 36791, Note_on_c, 0, 85, 0
2, 36792, Note_on_c, 0, 76, 64
2, 36815, Note_on_c, 0, 76, 0
2, 36816, Note_on_c, 0, 85, 64
2, 36839, Note_on_c, 0, 85, 0
2, 36840, Note_on_c, 0, 76, 64
2, 36863, Note_on_c, 0, 76, 0
2, 36864, Note_on_c, 0, 84, 96
2, 36880, Note_on_c, 0, 84, 0
2, 36880, Note_on_c, 0, 80, 80
2, 36895, Note_on_c, 0, 80, 0
2, 36896, Note_on_c, 0, 77, 78
2, 36911, Note_on_c, 0, 77, 0
2, 36912, Note_on_c, 0, 72, 76
2, 36927, Note_on_c, 0, 72, 0
2, 36928, Note_on_c, 0, 77, 74
2, 36943, Note_on_c, 0, 77, 0
2, 36944, Note_on_c, 0, 80, 72
2, 36959, Note_on_c, 0, 80, 0
2, 36960, Note_on_c, 0, 84, 70
2, 36975, Note_on_c, 0, 84, 0
2, 36976, Note_on_c, 0, 80, 64
2, 36991, Note_on_c, 0, 80, 0
2, 36992, Note_on_c, 0, 77, 64
2, 37007, Note_on_c, 0, 77, 0
2, 37008, Note_on_c, 0, 72, 64
2, 37023, Note_on_c, 0, 72, 0
2, 37024, Note_on_c, 0, 77, 64
2, 37039, Note_on_c, 0, 77, 0
2, 37040, Note_on_c, 0, 80, 64
2, 37055, Note_on_c, 0, 80, 0
2, 37056, Note_on_c, 0, 84, 64
2, 37071, Note_on_c, 0, 84, 0
2, 37072, Note_on_c, 0, 80, 66
2, 37087, Note_on_c, 0, 80, 0
2, 37088, Note_on_c, 0, 77, 68
2, 37103, Note_on_c, 0, 77, 0
2, 37104, Note_on_c, 0, 84, 71
2, 37119, Note_on_c, 0, 84, 0
2, 37120, Note_on_c, 0, 80, 73
2, 37135, Note_on_c, 0, 80, 0
2, 37136, Note_on_c, 0, 77, 80
2, 37151, Note_on_c, 0, 77, 0
2, 37152, Note_on_c, 0, 84, 96
2, 37168, Note_on_c, 0, 84, 0
2, 37168, Note_on_c, 0, 82, 80
2, 37183, Note_on_c, 0, 82, 0
2, 37184, Note_on_c, 0, 79, 78
2, 37199, Note_on_c, 0, 79, 0
2, 37200, Note_on_c, 0, 76, 76
2, 37215, Note_on_c, 0, 76, 0
2, 37216, Note_on_c, 0, 79, 74
2, 37231, Note_on_c, 0, 79, 0
2, 37232, Note_on_c, 0, 82, 72
2, 37247, Note_on_c, 0, 82, 0
2, 37248, Note_on_c, 0, 84, 70
2, 37263, Note_on_c, 0, 84, 0
2, 37264, Note_on_c, 0, 82, 64
2, 37279, Note_on_c, 0, 82, 0
2, 37280, Note_on_c, 0, 79, 64
2, 37295, Note_on_c, 0, 79, 0
2, 37296, Note_on_c, 0, 76, 64
2, 37311, Note_on_c, 0, 76, 0
2, 37312, Note_on_c, 0, 79, 64
2, 37327, Note_on_c, 0, 79, 0
2, 37328, Note_on_c, 0, 82, 64
2, 37343, Note_on_c, 0, 82, 0
2, 37344, Note_on_c, 0, 84, 64
2, 37359, Note_on_c, 0, 84, 0
2, 37360, Note_on_c, 0, 82, 66
2, 37375, Note_on_c, 0, 82, 0
2, 37376, Note_on_c, 0, 79, 68
2, 37391, Note_on_c, 0, 79, 0
2, 37392, Note_on_c, 0, 84, 70
2, 37407, Note_on_c, 0, 84, 0
2, 37408, Note_on_c, 0, 82, 72
2, 37423, Note_on_c, 0, 82, 0
2, 37424, Note_on_c, 0, 79, 74
2, 37439, Note_on_c, 0, 79, 0
2, 37440, Note_on_c, 0, 84, 96
2, 37456, Note_on_c, 0, 84, 0
2, 37456, Note_on_c, 0, 80, 80
2, 37471, Note_on_c, 0, 80, 0
2, 37472, Note_on_c, 0, 77, 78
2, 37487, Note_on_c, 0, 77, 0
2, 37488, Note_on_c, 0, 72, 76
2, 37503, Note_on_c, 0, 72, 0
2, 37504, Note_on_c, 0, 77, 74
2, 37519, Note_on_c, 0, 77, 0
2, 37520, Note_on_c, 0, 80, 72
2, 37535, Note_on_c, 0, 80, 0
2, 37536, Note_on_c, 0, 84, 70
2, 37551, Note_on_c, 0, 84, 0
2, 37552, Note_on_c, 0, 80, 64
2, 37567, Note_on_c, 0, 80, 0
2, 37568, Note_on_c, 0, 77, 64
2, 37583, Note_on_c, 0, 77, 0
2, 37584, Note_on_c, 0, 72, 64
2, 37599, Note_on_c, 0, 72, 0
2, 37600, Note_on_c, 0, 77, 64
2, 37615, Note_on_c, 0, 77, 0
2, 37616, Note_on_c, 0, 80, 64
2, 37631, Note_on_c, 0, 80, 0
2, 37632, Note_on_c, 0, 84, 64
2, 37647, Note_on_c, 0, 84, 0
2, 37648, Note_on_c, 0, 80, 67
2, 37663, Note_on_c, 0, 80, 0
2, 37664, Note_on_c, 0, 77, 70
2, 37679, Note_on_c, 0, 77, 0
2, 37680, Note_on_c, 0, 84, 74
2, 37695, Note_on_c, 0, 84, 0
2, 37696, Note_on_c, 0, 80, 77
2, 37711, Note_on_c, 0, 80, 0
2, 37712, Note_on_c, 0, 77, 86
2, 37727, Note_on_c, 0, 77, 0
2, 37728, Note_on_c, 0, 84, 102
2, 37744, Note_on_c, 0, 84, 0
2, 37744, Note_on_c, 0, 80, 86
2, 37759, Note_on_c, 0, 80, 0
2, 37760, Note_on_c, 0, 77, 86
2, 37775, Note_on_c, 0, 77, 0
2, 37776, Note_on_c, 0, 84, 86
2, 37791, Note_on_c, 0, 84, 0
2, 37792, Note_on_c, 0, 80, 86
2, 37807, Note_on_c, 0, 80, 0
2, 37808, Note_on_c, 0, 77, 86
2, 37823, Note_on_c, 0, 77, 0
2, 37824, Note_on_c, 0, 82, 102
2, 37840, Note_on_c, 0, 82, 0
2, 37840, Note_on_c, 0, 80, 86
2, 37855, Note_on_c, 0, 80, 0
2, 37856, Note_on_c, 0, 77, 86
2, 37871, Note_on_c, 0, 77, 0
2, 37872, Note_on_c, 0, 82, 86
2, 37887, Note_on_c, 0, 82, 0
2, 37888, Note_on_c, 0, 80, 86
2, 37903, Note_on_c, 0, 80, 0
2, 37904, Note_on_c, 0, 77, 86
2, 37919, Note_on_c, 0, 77, 0
2, 37920, Note_on_c, 0, 82, 102
2, 37936, Note_on_c, 0, 82, 0
2, 37936, Note_on_c, 0, 80, 86
2, 37951, Note_on_c, 0, 80, 0
2, 37952, Note_on_c, 0, 77, 86
2, 37967, Note_on_c, 0, 77, 0
2, 37968, Note_on_c, 0, 82, 86
2, 37983, Note_on_c, 0, 82, 0
2, 37984, Note_on_c, 0, 80, 86
2, 37999, Note_on_c, 0, 80, 0
2, 38000, Note_on_c, 0, 77, 86
2, 38015, Note_on_c, 0, 77, 0
2, 38016, Note_on_c, 0, 79, 86
2, 38031, Note_on_c, 0, 79, 0
2, 38032, Note_on_c, 0, 82, 86
2, 38047, Note_on_c, 0, 82, 0
2, 38048, Note_on_c, 0, 80, 86
2, 38063, Note_on_c, 0, 80, 0
2, 38064, Note_on_c, 0, 79, 86
2, 38079, Note_on_c, 0, 79, 0
2, 38080, Note_on_c, 0, 77, 86
2, 38095, Note_on_c, 0, 77, 0
2, 38096, Note_on_c, 0, 75, 86
2, 38111, Note_on_c, 0, 75, 0
2, 38112, Note_on_c, 0, 74, 86
2, 38127, Note_on_c, 0, 74, 0
2, 38128, Note_on_c, 0, 72, 84
2, 38143, Note_on_c, 0, 72, 0
2, 38144, Note_on_c, 0, 70, 83
2, 38159, Note_on_c, 0, 70, 0
2, 38160, Note_on_c, 0, 68, 81
2, 38175, Note_on_c, 0, 68, 0
2, 38176, Note_on_c, 0, 67, 80
2, 38191, Note_on_c, 0, 67, 0
2, 38192, Note_on_c, 0, 65, 79
2, 38207, Note_on_c, 0, 65, 0
2, 38208, Note_on_c, 0, 63, 77
2, 38221, Note_on_c, 0, 63, 0
2, 38222, Note_on_c, 0, 62, 76
2, 38235, Note_on_c, 0, 62, 0
2, 38236, Note_on_c, 0, 60, 75
2, 38249, Note_on_c, 0, 60, 0
2, 38250, Note_on_c, 0, 58, 73
2, 38263, Note_on_c, 0, 58, 0
2, 38264, Note_on_c, 0, 56, 72
2, 38277, Note_on_c, 0, 56, 0
2, 38278, Note_on_c, 0, 55, 70
2, 38290, Note_on_c, 0, 55, 0
2, 38291, Note_on_c, 0, 53, 69
2, 38303, Note_on_c, 0, 53, 0
2, 38304, Note_on_c, 0, 51, 64
2, 38641, Note_on_c, 0, 51, 0
2, 38646, Note_on_c, 0, 53, 64
2, 38652, Note_on_c, 0, 53, 0
2, 38652, Note_on_c, 0, 51, 64
2, 38658, Note_on_c, 0, 51, 0
2, 38658, Note_on_c, 0, 50, 64
2, 38664, Note_on_c, 0, 50, 0
2, 38664, Note_on_c, 0, 51, 68
2, 38687, Note_on_c, 0, 51, 0
2, 38688, Note_on_c, 0, 60, 69
2, 38784, Note_on_c, 0, 60, 0
2, 38784, Note_on_c, 0, 56, 75
2, 38873, Note_on_c, 0, 56, 0
2, 38880, Note_on_c, 0, 55, 70
2, 38947, Note_on_c, 0, 55, 0
2, 38952, Note_on_c, 0, 65, 67
2, 38975, Note_on_c, 0, 65, 0
2, 38976, Note_on_c, 0, 63, 66
2, 39021, Note_on_c, 0, 63, 0
2, 39168, Note_on_c, 0, 63, 70
2, 39213, Note_on_c, 0, 63, 0
2, 39216, Note_on_c, 0, 65, 70
2, 39226, Note_on_c, 0, 65, 0
2, 39240, Note_on_c, 0, 67, 70
2, 39250, Note_on_c, 0, 67, 0
2, 39264, Note_on_c, 0, 68, 71
2, 39274, Note_on_c, 0, 68, 0
2, 39288, Note_on_c, 0, 70, 71
2, 39298, Note_on_c, 0, 70, 0
2, 39312, Note_on_c, 0, 72, 72
2, 39322, Note_on_c, 0, 72, 0
2, 39336, Note_on_c, 0, 73, 72
2, 39346, Note_on_c, 0, 73, 0
2, 39360, Note_on_c, 0, 75, 73
2, 39370, Note_on_c, 0, 75, 0
2, 39384, Note_on_c, 0, 77, 73
2, 39394, Note_on_c, 0, 77, 0
2, 39408, Note_on_c, 0, 79, 74
2, 39418, Note_on_c, 0, 79, 0
2, 39432, Note_on_c, 0, 80, 74
2, 39442, Note_on_c, 0, 80, 0
2, 39456, Note_on_c, 0, 79, 75
2, 39479, Note_on_c, 0, 79, 0
2, 39480, Note_on_c, 0, 75, 74
2, 39503, Note_on_c, 0, 75, 0
2, 39504, Note_on_c, 0, 73, 73
2, 39527, Note_on_c, 0, 73, 0
2, 39528, Note_on_c, 0, 70, 72
2, 39551, Note_on_c, 0, 70, 0
2, 39552, Note_on_c, 0, 67, 71
2, 39597, Note_on_c, 0, 67, 0
2, 39744, Note_on_c, 0, 68, 70
2, 39771, Note_on_c, 0, 68, 0
2, 39774, Note_on_c, 0, 70, 70
2, 39780, Note_on_c, 0, 70, 0
2, 39780, Note_on_c, 0, 68, 70
2, 39786, Note_on_c, 0, 68, 0
2, 39786, Note_on_c, 0, 67, 70
2, 39792, Note_on_c, 0, 67, 0
2, 39792, Note_on_c, 0, 68, 70
2, 39826, Note_on_c, 0, 68, 0
2, 39828, Note_on_c, 0, 72, 70
2, 39840, Note_on_c, 0, 72, 0
2, 39840, Note_on_c, 0, 75, 70
2, 39885, Note_on_c, 0, 75, 0
2, 40032, Note_on_c, 0, 69, 80
2, 40099, Note_on_c, 0, 69, 0
2, 40104, Note_on_c, 0, 69, 80
2, 40110, Note_on_c, 0, 69, 0
2, 40110, Note_on_c, 0, 70, 80
2, 40116, Note_on_c, 0, 70, 0
2, 40116, Note_on_c, 0, 72, 80
2, 40122, Note_on_c, 0, 72, 0
2, 40122, Note_on_c, 0, 73, 80
2, 40128, Note_on_c, 0, 73, 0
2, 40128, Note_on_c, 0, 75, 80
2, 40162, Note_on_c, 0, 75, 0
2, 40164, Note_on_c, 0, 72, 80
2, 40176, Note_on_c, 0, 72, 0
2, 40176, Note_on_c, 0, 78, 96
2, 40272, Note_on_c, 0, 78, 0
2, 40272, Note_on_c, 0, 77, 80
2, 40284, Note_on_c, 0, 77, 0
2, 40284, Note_on_c, 0, 75, 80
2, 40296, Note_on_c, 0, 75, 0
2, 40296, Note_on_c, 0, 73, 80
2, 40308, Note_on_c, 0, 73, 0
2, 40308, Note_on_c, 0, 72, 80
2, 40320, Note_on_c, 0, 72, 0
2, 40320, Note_on_c, 0, 70, 80
2, 40387, Note_on_c, 0, 70, 0
2, 40392, Note_on_c, 0, 72, 80
2, 40400, Note_on_c, 0, 72, 0
2, 40400, Note_on_c, 0, 73, 80
2, 40408, Note_on_c, 0, 73, 0
2, 40408, Note_on_c, 0, 75, 80
2, 40416, Note_on_c, 0, 75, 0
2, 40416, Note_on_c, 0, 77, 80
2, 40439, Note_on_c, 0, 77, 0
2, 40440, Note_on_c, 0, 76, 80
2, 40448, Note_on_c, 0, 76, 0
2, 40448, Note_on_c, 0, 77, 80
2, 40456, Note_on_c, 0, 77, 0
2, 40456, Note_on_c, 0, 79, 80
2, 40464, Note_on_c, 0, 79, 0
2, 40464, Note_on_c, 0, 80, 96
2, 40560, Note_on_c, 0, 80, 0
2, 40560, Note_on_c, 0, 79, 80
2, 40572, Note_on_c, 0, 79, 0
2, 40572, Note_on_c, 0, 77, 80
2, 40584, Note_on_c, 0, 77, 0
2, 40584, Note_on_c, 0, 75, 80
2, 40596, Note_on_c, 0, 75, 0
2, 40596, Note_on_c, 0, 74, 80
2, 40608, Note_on_c, 0, 74, 0
2, 40608, Note_on_c, 0, 72, 80
2, 40631, Note_on_c, 0, 72, 0
2, 40632, Note_on_c, 0, 74, 80
2, 40644, Note_on_c, 0, 74, 0
2, 40644, Note_on_c, 0, 75, 80
2, 40656, Note_on_c, 0, 75, 0
2, 40656, Note_on_c, 0, 77, 80
2, 40668, Note_on_c, 0, 77, 0
2, 40668, Note_on_c, 0, 79, 80
2, 40680, Note_on_c, 0, 79, 0
2, 40680, Note_on_c, 0, 81, 80
2, 40692, Note_on_c, 0, 81, 0
2, 40692, Note_on_c, 0, 83, 80
2, 40704, Note_on_c, 0, 83, 0
2, 40704, Note_on_c, 0, 84, 80
2, 40727, Note_on_c, 0, 84, 0
2, 40728, Note_on_c, 0, 83, 80
2, 40751, Note_on_c, 0, 83, 0
2, 40752, Note_on_c, 0, 86, 80
2, 40775, Note_on_c, 0, 86, 0
2, 40776, Note_on_c, 0, 84, 80
2, 40799, Note_on_c, 0, 84, 0
2, 40800, Note_on_c, 0, 87, 80
2, 40823, Note_on_c, 0, 87, 0
2, 40824, Note_on_c, 0, 86, 80
2, 40847, Note_on_c, 0, 86, 0
2, 40848, Note_on_c, 0, 89, 80
2, 40871, Note_on_c, 0, 89, 0
2, 40872, Note_on_c, 0, 87, 80
2, 40895, Note_on_c, 0, 87, 0
2, 40896, Note_on_c, 0, 86, 80
2, 40919, Note_on_c, 0, 86, 0
2, 40920, Note_on_c, 0, 84, 80
2, 40943, Note_on_c, 0, 84, 0
2, 40944, Note_on_c, 0, 87, 112
2, 40967, Note_on_c, 0, 87, 0
2, 40968, Note_on_c, 0, 86, 80
2, 40991, Note_on_c, 0, 86, 0
2, 40992, Note_on_c, 0, 84, 80
2, 41015, Note_on_c, 0, 84, 0
2, 41016, Note_on_c, 0, 83, 80
2, 41039, Note_on_c, 0, 83, 0
2, 41040, Note_on_c, 0, 86, 112
2, 41063, Note_on_c, 0, 86, 0
2, 41064, Note_on_c, 0, 84, 80
2, 41087, Note_on_c, 0, 84, 0
2, 41088, Note_on_c, 0, 82, 80
2, 41111, Note_on_c, 0, 82, 0
2, 41112, Note_on_c, 0, 80, 80
2, 41135, Note_on_c, 0, 80, 0
2, 41136, Note_on_c, 0, 79, 80
2, 41159, Note_on_c, 0, 79, 0
2, 41160, Note_on_c, 0, 78, 80
2, 41183, Note_on_c, 0, 78, 0
2, 41184, Note_on_c, 0, 79, 80
2, 41207, Note_on_c, 0, 79, 0
2, 41208, Note_on_c, 0, 74, 80
2, 41231, Note_on_c, 0, 74, 0
2, 41232, Note_on_c, 0, 75, 80
2, 41255, Note_on_c, 0, 75, 0
2, 41256, Note_on_c, 0, 72, 80
2, 41279, Note_on_c, 0, 72, 0
2, 41280, Note_on_c, 0, 74, 80
2, 41303, Note_on_c, 0, 74, 0
2, 41304, Note_on_c, 0, 71, 78
2, 41327, Note_on_c, 0, 71, 0
2, 41328, Note_on_c, 0, 72, 76
2, 41351, Note_on_c, 0, 72, 0
2, 41352, Note_on_c, 0, 69, 74
2, 41375, Note_on_c, 0, 69, 0
2, 41376, Note_on_c, 0, 71, 72
2, 41399, Note_on_c, 0, 71, 0
2, 41400, Note_on_c, 0, 67, 70
2, 41423, Note_on_c, 0, 67, 0
2, 41424, Note_on_c, 0, 69, 68
2, 41447, Note_on_c, 0, 69, 0
2, 41448, Note_on_c, 0, 66, 66
2, 41471, Note_on_c, 0, 66, 0
2, 41472, Note_on_c, 0, 67, 64
2, 41495, Note_on_c, 0, 67, 0
2, 41496, Note_on_c, 0, 62, 64
2, 41519, Note_on_c, 0, 62, 0
2, 41520, Note_on_c, 0, 63, 64
2, 41543, Note_on_c, 0, 63, 0
2, 41544, Note_on_c, 0, 60, 64
2, 41567, Note_on_c, 0, 60, 0
2, 41568, Note_on_c, 0, 59, 64
2, 41591, Note_on_c, 0, 59, 0
2, 41592, Note_on_c, 0, 62, 64
2, 41615, Note_on_c, 0, 62, 0
2, 41616, Note_on_c, 0, 60, 64
2, 41639, Note_on_c, 0, 60, 0
2, 41640, Note_on_c, 0, 57, 64
2, 41663, Note_on_c, 0, 57, 0
2, 41664, Note_on_c, 0, 55, 64
2, 41687, Note_on_c, 0, 55, 0
2, 41688, Note_on_c, 0, 59, 64
2, 41711, Note_on_c, 0, 59, 0
2, 41712, Note_on_c, 0, 57, 64
2, 41735, Note_on_c, 0, 57, 0
2, 41736, Note_on_c, 0, 54, 64
2, 41759, Note_on_c, 0, 54, 0
2, 41760, Note_on_c, 0, 55, 64
2, 41772, Note_on_c, 0, 55, 0
2, 41772, Note_on_c, 0, 59, 64
2, 41784, Note_on_c, 0, 59, 0
2, 41784, Note_on_c, 0, 57, 64
2, 41796, Note_on_c, 0, 57, 0
2, 41796, Note_on_c, 0, 60, 64
2, 41808, Note_on_c, 0, 60, 0
2, 41808, Note_on_c, 0, 59, 64
2, 41820, Note_on_c, 0, 59, 0
2, 41820, Note_on_c, 0, 62, 64
2, 41832, Note_on_c, 0, 62, 0
2, 41832, Note_on_c, 0, 60, 64
2, 41844, Note_on_c, 0, 60, 0
2, 41844, Note_on_c, 0, 64, 64
2, 41856, Note_on_c, 0, 64, 0
2, 41856, Note_on_c, 0, 62, 64
2, 41868, Note_on_c, 0, 62, 0
2, 41868, Note_on_c, 0, 65, 64
2, 41880, Note_on_c, 0, 65, 0
2, 41880, Note_on_c, 0, 64, 64
2, 41892, Note_on_c, 0, 64, 0
2, 41892, Note_on_c, 0, 67, 64
2, 41904, Note_on_c, 0, 67, 0
2, 41904, Note_on_c, 0, 65, 64
2, 41916, Note_on_c, 0, 65, 0
2, 41916, Note_on_c, 0, 69, 64
2, 41928, Note_on_c, 0, 69, 0
2, 41928, Note_on_c, 0, 67, 64
2, 41940, Note_on_c, 0, 67, 0
2, 41940, Note_on_c, 0, 71, 64
2, 41952, Note_on_c, 0, 71, 0
2, 41952, Note_on_c, 0, 69, 64
2, 41964, Note_on_c, 0, 69, 0
2, 41964, Note_on_c, 0, 72, 64
2, 41976, Note_on_c, 0, 72, 0
2, 41976, Note_on_c, 0, 71, 64
2, 41988, Note_on_c, 0, 71, 0
2, 41988, Note_on_c, 0, 74, 64
2, 42000, Note_on_c, 0, 74, 0
2, 42000, Note_on_c, 0, 72, 64
2, 42012, Note_on_c, 0, 72, 0
2, 42012, Note_on_c, 0, 76, 64
2, 42024, Note_on_c, 0, 76, 0
2, 42024, Note_on_c, 0, 74, 64
2, 42036, Note_on_c, 0, 74, 0
2, 42036, Note_on_c, 0, 77, 64
2, 42048, Note_on_c, 0, 77, 0
2, 42048, Note_on_c, 0, 76, 80
2, 42054, Note_on_c, 0, 76, 0
2, 42054, Note_on_c, 0, 79, 80
2, 42137, Note_on_c, 0, 79, 0
2, 42144, Note_on_c, 0, 88, 80
2, 42233, Note_on_c, 0, 88, 0
2, 42240, Note_on_c, 0, 84, 80
2, 42329, Note_on_c, 0, 84, 0
2, 42336, Note_on_c, 0, 83, 80
2, 42351, Note_on_c, 0, 83, 0
2, 42352, Note_on_c, 0, 84, 80
2, 42367, Note_on_c, 0, 84, 0
2, 42368, Note_on_c, 0, 85, 80
2, 42383, Note_on_c, 0, 85, 0
2, 42384, Note_on_c, 0, 86, 81
2, 42399, Note_on_c, 0, 86, 0
2, 42400, Note_on_c, 0, 87, 81
2, 42415, Note_on_c, 0, 87, 0
2, 42416, Note_on_c, 0, 88, 81
2, 42431, Note_on_c, 0, 88, 0
2, 42432, Note_on_c, 0, 89, 98
2, 42528, Note_on_c, 0, 89, 0
2, 42624, Note_on_c, 0, 72, 80
2, 42639, Note_on_c, 0, 72, 0
2, 42640, Note_on_c, 0, 76, 80
2, 42655, Note_on_c, 0, 76, 0
2, 42656, Note_on_c, 0, 74, 81
2, 42671, Note_on_c, 0, 74, 0
2, 42672, Note_on_c, 0, 72, 81
2, 42687, Note_on_c, 0, 72, 0
2, 42688, Note_on_c, 0, 79, 82
2, 42703, Note_on_c, 0, 79, 0
2, 42704, Note_on_c, 0, 77, 82
2, 42719, Note_on_c, 0, 77, 0
2, 42720, Note_on_c, 0, 76, 83
2, 42735, Note_on_c, 0, 76, 0
2, 42736, Note_on_c, 0, 89, 84
2, 42751, Note_on_c, 0, 89, 0
2, 42752, Note_on_c, 0, 88, 86
2, 42767, Note_on_c, 0, 88, 0
2, 42768, Note_on_c, 0, 86, 85
2, 42783, Note_on_c, 0, 86, 0
2, 42784, Note_on_c, 0, 84, 85
2, 42799, Note_on_c, 0, 84, 0
2, 42800, Note_on_c, 0, 83, 84
2, 42815, Note_on_c, 0, 83, 0
2, 42816, Note_on_c, 0, 81, 84
2, 42831, Note_on_c, 0, 81, 0
2, 42832, Note_on_c, 0, 79, 83
2, 42847, Note_on_c, 0, 79, 0
2, 42848, Note_on_c, 0, 77, 83
2, 42863, Note_on_c, 0, 77, 0
2, 42864, Note_on_c, 0, 76, 82
2, 42879, Note_on_c, 0, 76, 0
2, 42880, Note_on_c, 0, 74, 82
2, 42895, Note_on_c, 0, 74, 0
2, 42896, Note_on_c, 0, 72, 82
2, 42911, Note_on_c, 0, 72, 0
2, 42912, Note_on_c, 0, 71, 80
2, 43008, Note_on_c, 0, 71, 0
2, 43008, Note_on_c, 0, 79, 86
2, 43097, Note_on_c, 0, 79, 0
2, 43200, Note_on_c, 0, 73, 64
2, 43296, Note_on_c, 0, 73, 0
2, 43296, Note_on_c, 0, 82, 67
2, 43385, Note_on_c, 0, 82, 0
2, 43504, Note_on_c, 0, 73, 80
2, 43519, Note_on_c, 0, 73, 0
2, 43520, Note_on_c, 0, 74, 80
2, 43535, Note_on_c, 0, 74, 0
2, 43536, Note_on_c, 0, 77, 80
2, 43543, Note_on_c, 0, 77, 0
2, 43552, Note_on_c, 0, 76, 80
2, 43567, Note_on_c, 0, 76, 0
2, 43568, Note_on_c, 0, 77, 80
2, 43583, Note_on_c, 0, 77, 0
2, 43584, Note_on_c, 0, 81, 80
2, 43591, Note_on_c, 0, 81, 0
2, 43600, Note_on_c, 0, 80, 80
2, 43615, Note_on_c, 0, 80, 0
2, 43616, Note_on_c, 0, 81, 80
2, 43631, Note_on_c, 0, 81, 0
2, 43632, Note_on_c, 0, 86, 80
2, 43639, Note_on_c, 0, 86, 0
2, 43648, Note_on_c, 0, 76, 80
2, 43663, Note_on_c, 0, 76, 0
2, 43664, Note_on_c, 0, 77, 80
2, 43679, Note_on_c, 0, 77, 0
2, 43680, Note_on_c, 0, 81, 80
2, 43687, Note_on_c, 0, 81, 0
2, 43696, Note_on_c, 0, 73, 80
2, 43711, Note_on_c, 0, 73, 0
2, 43712, Note_on_c, 0, 74, 80
2, 43727, Note_on_c, 0, 74, 0
2, 43728, Note_on_c, 0, 77, 80
2, 43735, Note_on_c, 0, 77, 0
2, 43744, Note_on_c, 0, 76, 80
2, 43759, Note_on_c, 0, 76, 0
2, 43760, Note_on_c, 0, 77, 80
2, 43775, Note_on_c, 0, 77, 0
2, 43776, Note_on_c, 0, 81, 80
2, 43776, Note_on_c, 0, 77, 80
2, 43887, Note_on_c, 0, 81, 0
2, 43887, Note_on_c, 0, 77, 0
2, 43888, Note_on_c, 0, 77, 80
2, 43888, Note_on_c, 0, 74, 80
2, 43903, Note_on_c, 0, 77, 0
2, 43903, Note_on_c, 0, 74, 0
2, 43904, Note_on_c, 0, 79, 80
2, 43904, Note_on_c, 0, 76, 80
2, 43919, Note_on_c, 0, 79, 0
2, 43919, Note_on_c, 0, 76, 0
2, 43920, Note_on_c, 0, 81, 80
2, 43920, Note_on_c, 0, 77, 80
2, 43935, Note_on_c, 0, 81, 0
2, 43935, Note_on_c, 0, 77, 0
2, 43936, Note_on_c, 0, 79, 80
2, 43936, Note_on_c, 0, 76, 80
2, 43951, Note_on_c, 0, 79, 0
2, 43951, Note_on_c, 0, 76, 0
2, 43952, Note_on_c, 0, 77, 80
2, 43952, Note_on_c, 0, 74, 80
2, 43967, Note_on_c, 0, 77, 0
2, 43967, Note_on_c, 0, 74, 0
2, 43984, Note_on_c, 0, 76, 80
2, 43984, Note_on_c, 0, 72, 80
2, 43999, Note_on_c, 0, 76, 0
2, 43999, Note_on_c, 0, 72, 0
2, 44000, Note_on_c, 0, 77, 80
2, 44000, Note_on_c, 0, 74, 80
2, 44015, Note_on_c, 0, 77, 0
2, 44015, Note_on_c, 0, 74, 0
2, 44016, Note_on_c, 0, 79, 80
2, 44016, Note_on_c, 0, 76, 80
2, 44031, Note_on_c, 0, 79, 0
2, 44031, Note_on_c, 0, 76, 0
2, 44032, Note_on_c, 0, 77, 80
2, 44032, Note_on_c, 0, 74, 80
2, 44047, Note_on_c, 0, 77, 0
2, 44047, Note_on_c, 0, 74, 0
2, 44048, Note_on_c, 0, 76, 80
2, 44048, Note_on_c, 0, 72, 80
2, 44063, Note_on_c, 0, 76, 0
2, 44063, Note_on_c, 0, 72, 0
2, 44112, Note_on_c, 0, 69, 80
2, 44124, Note_on_c, 0, 69, 0
2, 44124, Note_on_c, 0, 74, 80
2, 44136, Note_on_c, 0, 74, 0
2, 44136, Note_on_c, 0, 77, 80
2, 44148, Note_on_c, 0, 77, 0
2, 44148, Note_on_c, 0, 81, 80
2, 44160, Note_on_c, 0, 81, 0
2, 44160, Note_on_c, 0, 72, 80
2, 44209, Note_on_c, 0, 72, 0
2, 44214, Note_on_c, 0, 74, 80
2, 44220, Note_on_c, 0, 74, 0
2, 44220, Note_on_c, 0, 72, 80
2, 44226, Note_on_c, 0, 72, 0
2, 44226, Note_on_c, 0, 71, 80
2, 44232, Note_on_c, 0, 71, 0
2, 44232, Note_on_c, 0, 72, 80
2, 44255, Note_on_c, 0, 72, 0
2, 44256, Note_on_c, 0, 76, 80
2, 44323, Note_on_c, 0, 76, 0
2, 44328, Note_on_c, 0, 74, 76
2, 44352, Note_on_c, 0, 74, 0
2, 44352, Control_c, 0, 64, 127
2, 44352, Note_on_c, 0, 72, 75
2, 44352, Note_on_c, 0, 66, 75
2, 44632, Note_on_c, 0, 72, 0
2, 44632, Note_on_c, 0, 66, 0
2, 44640, Control_c, 0, 64, 0
2, 44640, Note_on_c, 0, 65, 64
2, 44736, Note_on_c, 0, 65, 0
2, 44736, Note_on_c, 0, 74, 64
2, 44825, Note_on_c, 0, 74, 0
2, 44928, Note_on_c, 0, 64, 70
2, 45024, Note_on_c, 0, 64, 0
2, 45024, Note_on_c, 0, 72, 70
2, 45113, Note_on_c, 0, 72, 0
2, 45240, Note_on_c, 0, 68, 80
2, 45263, Note_on_c, 0, 68, 0
2, 45264, Note_on_c, 0, 56, 80
2, 45287, Note_on_c, 0, 56, 0
2, 45288, Note_on_c, 0, 68, 80
2, 45311, Note_on_c, 0, 68, 0
2, 45312, Note_on_c, 0, 56, 80
2, 45335, Note_on_c, 0, 56, 0
2, 45336, Note_on_c, 0, 68, 80
2, 45359, Note_on_c, 0, 68, 0
2, 45360, Note_on_c, 0, 56, 80
2, 45383, Note_on_c, 0, 56, 0
2, 45384, Note_on_c, 0, 68, 80
2, 45407, Note_on_c, 0, 68, 0
2, 45408, Note_on_c, 0, 57, 80
2, 45431, Note_on_c, 0, 57, 0
2, 45432, Note_on_c, 0, 69, 80
2, 45455, Note_on_c, 0, 69, 0
2, 45456, Note_on_c, 0, 57, 80
2, 45479, Note_on_c, 0, 57, 0
2, 45480, Note_on_c, 0, 69, 80
2, 45503, Note_on_c, 0, 69, 0
2, 45504, Note_on_c, 0, 55, 80
2, 45527, Note_on_c, 0, 55, 0
2, 45528, Note_on_c, 0, 67, 78
2, 45551, Note_on_c, 0, 67, 0
2, 45552, Note_on_c, 0, 64, 76
2, 45575, Note_on_c, 0, 64, 0
2, 45576, Note_on_c, 0, 60, 74
2, 45599, Note_on_c, 0, 60, 0
2, 45600, Note_on_c, 0, 55, 72
2, 45623, Note_on_c, 0, 55, 0
2, 45624, Note_on_c, 0, 64, 70
2, 45647, Note_on_c, 0, 64, 0
2, 45648, Note_on_c, 0, 60, 69
2, 45671, Note_on_c, 0, 60, 0
2, 45672, Note_on_c, 0, 55, 67
2, 45695, Note_on_c, 0, 55, 0
2, 45696, Note_on_c, 0, 53, 65
2, 45741, Note_on_c, 0, 53, 0
2, 45744, Note_on_c, 0, 59, 61
2, 45789, Note_on_c, 0, 59, 0
2, 46368, End_track
3, 0, Start_track
3, 0, Program_c, 0, 0
3, 0, Control_c, 0, 7, 127
3, 0, Control_c, 0, 10, 64
3, 6624, Note_on_c, 0, 72, 80
3, 7001, Note_on_c, 0, 72, 0
3, 7008, Note_on_c, 0, 71, 70
3, 7097, Note_on_c, 0, 71, 0
3, 9792, Note_on_c, 0, 69, 70
3, 9881, Note_on_c, 0, 69, 0
3, 9888, Note_on_c, 0, 67, 70
3, 9908, Note_on_c, 0, 67, 0
3, 9984, Note_on_c, 0, 65, 70
3, 10029, Note_on_c, 0, 65, 0
3, 11232, Note_on_c, 0, 72, 80
3, 11609, Note_on_c, 0, 72, 0
3, 11616, Note_on_c, 0, 71, 70
3, 11705, Note_on_c, 0, 71, 0
3, 14400, Note_on_c, 0, 69, 70
3, 14489, Note_on_c, 0, 69, 0
3, 14496, Note_on_c, 0, 67, 70
3, 14516, Note_on_c, 0, 67, 0
3, 14592, Note_on_c, 0, 65, 70
3, 14637, Note_on_c, 0, 65, 0
3, 27072, Note_on_c, 0, 72, 80
3, 27449, Note_on_c, 0, 72, 0
3, 27456, Note_on_c, 0, 71, 64
3, 27545, Note_on_c, 0, 71, 0
3, 30240, Note_on_c, 0, 69, 64
3, 30329, Note_on_c, 0, 69, 0
3, 31680, Note_on_c, 0, 72, 80
3, 32057, Note_on_c, 0, 72, 0
3, 32064, Note_on_c, 0, 71, 64
3, 32153, Note_on_c, 0, 71, 0
3, 34848, Note_on_c, 0, 69, 64
3, 34937, Note_on_c, 0, 69, 0
3, 34944, Note_on_c, 0, 67, 64
3, 34964, Note_on_c, 0, 67, 0
3, 35040, Note_on_c, 0, 65, 64
3, 35085, Note_on_c, 0, 65, 0
3, 44256, Note_on_c, 0, 71, 64
3, 44345, Note_on_c, 0, 71, 0
3, 46368, End_track
4, 0, Start_track
4, 0, Program_c, 1, 0
4, 0, Control_c, 1, 7, 127
4, 0, Control_c, 1, 10, 64
4, 0, Note_on_c, 1, 52, 80
4, 0, Note_on_c, 1, 48, 80
4, 265, Note_on_c, 1, 52, 0
4, 265, Note_on_c, 1, 48, 0
4, 288, Note_on_c, 1, 55, 80
4, 288, Note_on_c, 1, 53, 80
4, 288, Note_on_c, 1, 50, 80
4, 465, Note_on_c, 1, 55, 0
4, 465, Note_on_c, 1, 53, 0
4, 465, Note_on_c, 1, 50, 0
4, 576, Note_on_c, 1, 64, 80
4, 576, Note_on_c, 1, 60, 80
4, 841, Note_on_c, 1, 64, 0
4, 841, Note_on_c, 1, 60, 0
4, 864, Note_on_c, 1, 67, 80
4, 864, Note_on_c, 1, 65, 80
4, 864, Note_on_c, 1, 62, 80
4, 1129, Note_on_c, 1, 67, 0
4, 1129, Note_on_c, 1, 65, 0
4, 1129, Note_on_c, 1, 62, 0
4, 1152, Note_on_c, 1, 67, 64
4, 1152, Note_on_c, 1, 64, 64
4, 1329, Note_on_c, 1, 67, 0
4, 1329, Note_on_c, 1, 64, 0
4, 1440, Note_on_c, 1, 67, 70
4, 1440, Note_on_c, 1, 62, 70
4, 1440, Note_on_c, 1, 59, 70
4, 1705, Note_on_c, 1, 67, 0
4, 1705, Note_on_c, 1, 62, 0
4, 1705, Note_on_c, 1, 59, 0
4, 1728, Note_on_c, 1, 67, 64
4, 1728, Note_on_c, 1, 64, 64
4, 1728, Note_on_c, 1, 60, 64
4, 1817, Note_on_c, 1, 67, 0
4, 1817, Note_on_c, 1, 64, 0
4, 1817, Note_on_c, 1, 60, 0
4, 1824, Note_on_c, 1, 66, 69
4, 1824, Note_on_c, 1, 60, 69
4, 1824, Note_on_c, 1, 57, 69
4, 2001, Note_on_c, 1, 66, 0
4, 2001, Note_on_c, 1, 60, 0
4, 2001, Note_on_c, 1, 57, 0
4, 2016, Note_on_c, 1, 69, 80
4, 2016, Note_on_c, 1, 59, 80
4, 2112, Note_on_c, 1, 69, 0
4, 2112, Note_on_c, 1, 59, 0
4, 2112, Note_on_c, 1, 67, 69
4, 2112, Note_on_c, 1, 60, 69
4, 2157, Note_on_c, 1, 67, 0
4, 2157, Note_on_c, 1, 60, 0
4, 2304, Note_on_c, 1, 60, 64
4, 2304, Note_on_c, 1, 48, 64
4, 2349, Note_on_c, 1, 60, 0
4, 2349, Note_on_c, 1, 48, 0
4, 2400, Note_on_c, 1, 62, 64
4, 2400, Note_on_c, 1, 50, 64
4, 2445, Note_on_c, 1, 62, 0
4, 2445, Note_on_c, 1, 50, 0
4, 2496, Note_on_c, 1, 62, 61
4, 2496, Note_on_c, 1, 50, 61
4, 2541, Note_on_c, 1, 62, 0
4, 2541, Note_on_c, 1, 50, 0
4, 2592, Note_on_c, 1, 43, 58
4, 2601, Note_on_c, 1, 47, 58
4, 2610, Note_on_c, 1, 50, 58
4, 2619, Note_on_c, 1, 55, 58
4, 2659, Note_on_c, 1, 55, 0
4, 2659, Note_on_c, 1, 50, 0
4, 2659, Note_on_c, 1, 47, 0
4, 2659, Note_on_c, 1, 43, 0
4, 2880, Note_on_c, 1, 52, 80
4, 2880, Note_on_c, 1, 48, 80
4, 3145, Note_on_c, 1, 52, 0
4, 3145, Note_on_c, 1, 48, 0
4, 3168, Note_on_c, 1, 55, 80
4, 3168, Note_on_c, 1, 53, 80
4, 3168, Note_on_c, 1, 50, 80
4, 3345, Note_on_c, 1, 55, 0
4, 3345, Note_on_c, 1, 53, 0
4, 3345, Note_on_c, 1, 50, 0
4, 3456, Note_on_c, 1, 64, 80
4, 3456, Note_on_c, 1, 60, 80
4, 3721, Note_on_c, 1, 64, 0
4, 3721, Note_on_c, 1, 60, 0
4, 3744, Note_on_c, 1, 67, 80
4, 3744, Note_on_c, 1, 65, 80
4, 3744, Note_on_c, 1, 62, 80
4, 4009, Note_on_c, 1, 67, 0
4, 4009, Note_on_c, 1, 65, 0
4, 4009, Note_on_c, 1, 62, 0
4, 4032, Note_on_c, 1, 67, 64
4, 4032, Note_on_c, 1, 64, 64
4, 4209, Note_on_c, 1, 67, 0
4, 4209, Note_on_c, 1, 64, 0
4, 4320, Note_on_c, 1, 67, 70
4, 4320, Note_on_c, 1, 62, 70
4, 4320, Note_on_c, 1, 59, 70
4, 4585, Note_on_c, 1, 67, 0
4, 4585, Note_on_c, 1, 62, 0
4, 4585, Note_on_c, 1, 59, 0
4, 4608, Note_on_c, 1, 67, 64
4, 4608, Note_on_c, 1, 64, 64
4, 4608, Note_on_c, 1, 60, 64
4, 4697, Note_on_c, 1, 67, 0
4, 4697, Note_on_c, 1, 64, 0
4, 4697, Note_on_c, 1, 60, 0
4, 4704, Note_on_c, 1, 66, 69
4, 4704, Note_on_c, 1, 60, 69
4, 4704, Note_on_c, 1, 57, 69
4, 4881, Note_on_c, 1, 66, 0
4, 4881, Note_on_c, 1, 60, 0
4, 4881, Note_on_c, 1, 57, 0
4, 4896, Note_on_c, 1, 69, 80
4, 4896, Note_on_c, 1, 59, 80
4, 4992, Note_on_c, 1, 69, 0
4, 4992, Note_on_c, 1, 59, 0
4, 4992, Note_on_c, 1, 67, 69
4, 4992, Note_on_c, 1, 60, 69
4, 5037, Note_on_c, 1, 67, 0
4, 5037, Note_on_c, 1, 60, 0
4, 5184, Note_on_c, 1, 60, 64
4, 5184, Note_on_c, 1, 48, 64
4, 5229, Note_on_c, 1, 60, 0
4, 5229, Note_on_c, 1, 48, 0
4, 5280, Note_on_c, 1, 62, 64
4, 5280, Note_on_c, 1, 50, 64
4, 5325, Note_on_c, 1, 62, 0
4, 5325, Note_on_c, 1, 50, 0
4, 5376, Note_on_c, 1, 62, 61
4, 5376, Note_on_c, 1, 50, 61
4, 5421, Note_on_c, 1, 62, 0
4, 5421, Note_on_c, 1, 50, 0
4, 5472, Note_on_c, 1, 43, 58
4, 5481, Note_on_c, 1, 47, 58
4, 5490, Note_on_c, 1, 50, 58
4, 5499, Note_on_c, 1, 55, 58
4, 5539, Note_on_c, 1, 55, 0
4, 5539, Note_on_c, 1, 50, 0
4, 5539, Note_on_c, 1, 47, 0
4, 5539, Note_on_c, 1, 43, 0
4, 5760, Note_on_c, 1, 67, 80
4, 5760, Note_on_c, 1, 63, 80
4, 5937, Note_on_c, 1, 67, 0
4, 5937, Note_on_c, 1, 63, 0
4, 5952, Note_on_c, 1, 65, 72
4, 5952, Note_on_c, 1, 62, 72
4, 6041, Note_on_c, 1, 65, 0
4, 6041, Note_on_c, 1, 62, 0
4, 6048, Note_on_c, 1, 63, 68
4, 6048, Note_on_c, 1, 60, 68
4, 6137, Note_on_c, 1, 63, 0
4, 6137, Note_on_c, 1, 60, 0
4, 6144, Note_on_c, 1, 62, 64
4, 6144, Note_on_c, 1, 59, 64
4, 6233, Note_on_c, 1, 62, 0
4, 6233, Note_on_c, 1, 59, 0
4, 6336, Note_on_c, 1, 72, 64
4, 6336, Note_on_c, 1, 68, 64
4, 6425, Note_on_c, 1, 72, 0
4, 6425, Note_on_c, 1, 68, 0
4, 6432, Note_on_c, 1, 70, 64
4, 6432, Note_on_c, 1, 67, 64
4, 6471, Note_on_c, 1, 70, 0
4, 6471, Note_on_c, 1, 67, 0
4, 6624, Note_on_c, 1, 54, 80
4, 6673, Note_on_c, 1, 54, 0
4, 6678, Note_on_c, 1, 55, 80
4, 6684, Note_on_c, 1, 55, 0
4, 6684, Note_on_c, 1, 54, 80
4, 6690, Note_on_c, 1, 54, 0
4, 6690, Note_on_c, 1, 52, 80
4, 6696, Note_on_c, 1, 52, 0
4, 6696, Note_on_c, 1, 54, 80
4, 6719, Note_on_c, 1, 54, 0
4, 6720, Note_on_c, 1, 69, 80
4, 6816, Note_on_c, 1, 69, 0
4, 6816, Note_on_c, 1, 66, 77
4, 6905, Note_on_c, 1, 66, 0
4, 6912, Note_on_c, 1, 67, 75
4, 7089, Note_on_c, 1, 67, 0
4, 7104, Note_on_c, 1, 65, 70
4, 7127, Note_on_c, 1, 65, 0
4, 7128, Note_on_c, 1, 63, 70
4, 7151, Note_on_c, 1, 63, 0
4, 7152, Note_on_c, 1, 62, 70
4, 7175, Note_on_c, 1, 62, 0
4, 7176, Note_on_c, 1, 60, 70
4, 7199, Note_on_c, 1, 60, 0
4, 7200, Note_on_c, 1, 67, 70
4, 7239, Note_on_c, 1, 67, 0
4, 7392, Note_on_c, 1, 65, 58
4, 7415, Note_on_c, 1, 65, 0
4, 7416, Note_on_c, 1, 63, 58
4, 7439, Note_on_c, 1, 63, 0
4, 7440, Note_on_c, 1, 62, 58
4, 7463, Note_on_c, 1, 62, 0
4, 7464, Note_on_c, 1, 60, 58
4, 7487, Note_on_c, 1, 60, 0
4, 7488, Note_on_c, 1, 67, 58
4, 7527, Note_on_c, 1, 67, 0
4, 7776, Note_on_c, 1, 52, 80
4, 7776, Note_on_c, 1, 48, 80
4, 8041, Note_on_c, 1, 52, 0
4, 8041, Note_on_c, 1, 48, 0
4, 8064, Note_on_c, 1, 55, 80
4, 8064, Note_on_c, 1, 53, 80
4, 8064, Note_on_c, 1, 50, 80
4, 8241, Note_on_c, 1, 55, 0
4, 8241, Note_on_c, 1, 53, 0
4, 8241, Note_on_c, 1, 50, 0
4, 8640, Note_on_c, 1, 67, 80
4, 8640, Note_on_c, 1, 65, 80
4, 8640, Note_on_c, 1, 62, 80
4, 8817, Note_on_c, 1, 67, 0
4, 8817, Note_on_c, 1, 65, 0
4, 8817, Note_on_c, 1, 62, 0
4, 8928, Note_on_c, 1, 70, 58
4, 8928, Note_on_c, 1, 67, 58
4, 8928, Note_on_c, 1, 64, 58
4, 9193, Note_on_c, 1, 70, 0
4, 9193, Note_on_c, 1, 67, 0
4, 9193, Note_on_c, 1, 64, 0
4, 9216, Note_on_c, 1, 69, 80
4, 9216, Note_on_c, 1, 65, 80
4, 9305, Note_on_c, 1, 69, 0
4, 9305, Note_on_c, 1, 65, 0
4, 9312, Note_on_c, 1, 69, 80
4, 9312, Note_on_c, 1, 61, 80
4, 9401, Note_on_c, 1, 69, 0
4, 9401, Note_on_c, 1, 61, 0
4, 9408, Note_on_c, 1, 69, 80
4, 9408, Note_on_c, 1, 62, 80
4, 9497, Note_on_c, 1, 69, 0
4, 9497, Note_on_c, 1, 62, 0
4, 9504, Note_on_c, 1, 62, 80
4, 9504, Note_on_c, 1, 59, 80
4, 9681, Note_on_c, 1, 62, 0
4, 9681, Note_on_c, 1, 59, 0
4, 9696, Note_on_c, 1, 60, 80
4, 9741, Note_on_c, 1, 60, 0
4, 9792, Note_on_c, 1, 65, 76
4, 9792, Note_on_c, 1, 53, 76
4, 9881, Note_on_c, 1, 65, 0
4, 9881, Note_on_c, 1, 53, 0
4, 9888, Note_on_c, 1, 64, 72
4, 9888, Note_on_c, 1, 55, 72
4, 9908, Note_on_c, 1, 64, 0
4, 9908, Note_on_c, 1, 55, 0
4, 9984, Note_on_c, 1, 62, 64
4, 9984, Note_on_c, 1, 55, 64
4, 10029, Note_on_c, 1, 62, 0
4, 10029, Note_on_c, 1, 55, 0
4, 10080, Note_on_c, 1, 60, 64
4, 10080, Note_on_c, 1, 48, 64
4, 10169, Note_on_c, 1, 60, 0
4, 10169, Note_on_c, 1, 48, 0
4, 10368, Note_on_c, 1, 67, 80
4, 10368, Note_on_c, 1, 63, 80
4, 10545, Note_on_c, 1, 67, 0
4, 10545, Note_on_c, 1, 63, 0
4, 10560, Note_on_c, 1, 65, 72
4, 10560, Note_on_c, 1, 62, 72
4, 10649, Note_on_c, 1, 65, 0
4, 10649, Note_on_c, 1, 62, 0
4, 10656, Note_on_c, 1, 63, 68
4, 10656, Note_on_c, 1, 60, 68
4, 10745, Note_on_c, 1, 63, 0
4, 10745, Note_on_c, 1, 60, 0
4, 10752, Note_on_c, 1, 62, 64
4, 10752, Note_on_c, 1, 59, 64
4, 10841, Note_on_c, 1, 62, 0
4, 10841, Note_on_c, 1, 59, 0
4, 10944, Note_on_c, 1, 72, 64
4, 10944, Note_on_c, 1, 68, 64
4, 11033, Note_on_c, 1, 72, 0
4, 11033, Note_on_c, 1, 68, 0
4, 11040, Note_on_c, 1, 70, 64
4, 11040, Note_on_c, 1, 67, 64
4, 11079, Note_on_c, 1, 70, 0
4, 11079, Note_on_c, 1, 67, 0
4, 11232, Note_on_c, 1, 54, 80
4, 11281, Note_on_c, 1, 54, 0
4, 11286, Note_on_c, 1, 55, 80
4, 11292, Note_on_c, 1, 55, 0
4, 11292, Note_on_c, 1, 54, 80
4, 11298, Note_on_c, 1, 54, 0
4, 11298, Note_on_c, 1, 52, 80
4, 11304, Note_on_c, 1, 52, 0
4, 11304, Note_on_c, 1, 54, 80
4, 11327, Note_on_c, 1, 54, 0
4, 11328, Note_on_c, 1, 69, 80
4, 11424, Note_on_c, 1, 69, 0
4, 11424, Note_on_c, 1, 66, 77
4, 11513, Note_on_c, 1, 66, 0
4, 11520, Note_on_c, 1, 67, 75
4, 11697, Note_on_c, 1, 67, 0
4, 11712, Note_on_c, 1, 65, 70
4, 11735, Note_on_c, 1, 65, 0
4, 11736, Note_on_c, 1, 63, 70
4, 11759, Note_on_c, 1, 63, 0
4, 11760, Note_on_c, 1, 62, 70
4, 11783, Note_on_c, 1, 62, 0
4, 11784, Note_on_c, 1, 60, 70
4, 11807, Note_on_c, 1, 60, 0
4, 11808, Note_on_c, 1, 67, 70
4, 11847, Note_on_c, 1, 67, 0
4, 12000, Note_on_c, 1, 65, 58
4, 12023, Note_on_c, 1, 65, 0
4, 12024, Note_on_c, 1, 63, 58
4, 12047, Note_on_c, 1, 63, 0
4, 12048, Note_on_c, 1, 62, 58
4, 12071, Note_on_c, 1, 62, 0
4, 12072, Note_on_c, 1, 60, 58
4, 12095, Note_on_c, 1, 60, 0
4, 12096, Note_on_c, 1, 67, 58
4, 12135, Note_on_c, 1, 67, 0
4, 12384, Note_on_c, 1, 52, 80
4, 12384, Note_on_c, 1, 48, 80
4, 12649, Note_on_c, 1, 52, 0
4, 12649, Note_on_c, 1, 48, 0
4, 12672, Note_on_c, 1, 55, 80
4, 12672, Note_on_c, 1, 53, 80
4, 12672, Note_on_c, 1, 50, 80
4, 12849, Note_on_c, 1, 55, 0
4, 12849, Note_on_c, 1, 53, 0
4, 12849, Note_on_c, 1, 50, 0
4, 13248, Note_on_c, 1, 67, 80
4, 13248, Note_on_c, 1, 65, 80
4, 13248, Note_on_c, 1, 62, 80
4, 13425, Note_on_c, 1, 67, 0
4, 13425, Note_on_c, 1, 65, 0
4, 13425, Note_on_c, 1, 62, 0
4, 13536, Note_on_c, 1, 70, 58
4, 13536, Note_on_c, 1, 67, 58
4, 13536, Note_on_c, 1, 64, 58
4, 13801, Note_on_c, 1, 70, 0
4, 13801, Note_on_c, 1, 67, 0
4, 13801, Note_on_c, 1, 64, 0
4, 13824, Note_on_c, 1, 69, 80
4, 13824, Note_on_c, 1, 65, 80
4, 13913, Note_on_c, 1, 69, 0
4, 13913, Note_on_c, 1, 65, 0
4, 13920, Note_on_c, 1, 69, 80
4, 13920, Note_on_c, 1, 61, 80
4, 14009, Note_on_c, 1, 69, 0
4, 14009, Note_on_c, 1, 61, 0
4, 14016, Note_on_c, 1, 69, 80
4, 14016, Note_on_c, 1, 62, 80
4, 14105, Note_on_c, 1, 69, 0
4, 14105, Note_on_c, 1, 62, 0
4, 14112, Note_on_c, 1, 62, 80
4, 14112, Note_on_c, 1, 59, 80
4, 14289, Note_on_c, 1, 62, 0
4, 14289, Note_on_c, 1, 59, 0
4, 14304, Note_on_c, 1, 60, 80
4, 14349, Note_on_c, 1, 60, 0
4, 14400, Note_on_c, 1, 65, 76
4, 14400, Note_on_c, 1, 53, 76
4, 14489, Note_on_c, 1, 65, 0
4, 14489, Note_on_c, 1, 53, 0
4, 14496, Note_on_c, 1, 64, 72
4, 14496, Note_on_c, 1, 55, 72
4, 14516, Note_on_c, 1, 64, 0
4, 14516, Note_on_c, 1, 55, 0
4, 14592, Note_on_c, 1, 62, 64
4, 14592, Note_on_c, 1, 55, 64
4, 14637, Note_on_c, 1, 62, 0
4, 14637, Note_on_c, 1, 55, 0
4, 14688, Note_on_c, 1, 60, 64
4, 14688, Note_on_c, 1, 48, 64
4, 14777, Note_on_c, 1, 60, 0
4, 14777, Note_on_c, 1, 48, 0
4, 14976, Note_on_c, 1, 63, 80
4, 14976, Note_on_c, 1, 60, 80
4, 15241, Note_on_c, 1, 63, 0
4, 15241, Note_on_c, 1, 60, 0
4, 15264, Note_on_c, 1, 62, 80
4, 15313, Note_on_c, 1, 62, 0
4, 15318, Note_on_c, 1, 63, 80
4, 15324, Note_on_c, 1, 63, 0
4, 15324, Note_on_c, 1, 62, 80
4, 15330, Note_on_c, 1, 62, 0
4, 15330, Note_on_c, 1, 61, 80
4, 15336, Note_on_c, 1, 61, 0
4, 15336, Note_on_c, 1, 62, 80
4, 15359, Note_on_c, 1, 62, 0
4, 15360, Note_on_c, 1, 68, 80
4, 15456, Note_on_c, 1, 68, 0
4, 15456, Note_on_c, 1, 65, 80
4, 15545, Note_on_c, 1, 65, 0
4, 15552, Note_on_c, 1, 67, 80
4, 15552, Note_on_c, 1, 63, 80
4, 15817, Note_on_c, 1, 67, 0
4, 15817, Note_on_c, 1, 63, 0
4, 15840, Note_on_c, 1, 68, 80
4, 15840, Note_on_c, 1, 65, 80
4, 16017, Note_on_c, 1, 68, 0
4, 16017, Note_on_c, 1, 65, 0
4, 16032, Note_on_c, 1, 69, 86
4, 16032, Note_on_c, 1, 66, 86
4, 16121, Note_on_c, 1, 69, 0
4, 16121, Note_on_c, 1, 66, 0
4, 16128, Note_on_c, 1, 67, 86
4, 16217, Note_on_c, 1, 67, 0
4, 16224, Note_on_c, 1, 55, 80
4, 16313, Note_on_c, 1, 55, 0
4, 16416, Note_on_c, 1, 55, 80
4, 16416, Note_on_c, 1, 50, 80
4, 16416, Note_on_c, 1, 46, 80
4, 16416, Note_on_c, 1, 43, 80
4, 16681, Note_on_c, 1, 55, 0
4, 16681, Note_on_c, 1, 50, 0
4, 16681, Note_on_c, 1, 46, 0
4, 16681, Note_on_c, 1, 43, 0
4, 16704, Note_on_c, 1, 51, 80
4, 16704, Note_on_c, 1, 48, 80
4, 16704, Note_on_c, 1, 45, 80
4, 16969, Note_on_c, 1, 51, 0
4, 16969, Note_on_c, 1, 48, 0
4, 16969, Note_on_c, 1, 45, 0
4, 16992, Note_on_c, 1, 57, 80
4, 17015, Note_on_c, 1, 57, 0
4, 17016, Note_on_c, 1, 55, 80
4, 17039, Note_on_c, 1, 55, 0
4, 17040, Note_on_c, 1, 53, 80
4, 17063, Note_on_c, 1, 53, 0
4, 17064, Note_on_c, 1, 51, 80
4, 17087, Note_on_c, 1, 51, 0
4, 17088, Note_on_c, 1, 50, 80
4, 17111, Note_on_c, 1, 50, 0
4, 17112, Note_on_c, 1, 48, 78
4, 17135, Note_on_c, 1, 48, 0
4, 17136, Note_on_c, 1, 46, 77
4, 17159, Note_on_c, 1, 46, 0
4, 17160, Note_on_c, 1, 45, 76
4, 17183, Note_on_c, 1, 45, 0
4, 17184, Note_on_c, 1, 43, 74
4, 17207, Note_on_c, 1, 43, 0
4, 17208, Note_on_c, 1, 41, 73
4, 17231, Note_on_c, 1, 41, 0
4, 17232, Note_on_c, 1, 39, 72
4, 17255, Note_on_c, 1, 39, 0
4, 17256, Note_on_c, 1, 38, 70
4, 17279, Note_on_c, 1, 38, 0
4, 17280, Note_on_c, 1, 36, 69
4, 17376, Note_on_c, 1, 36, 0
4, 17376, Note_on_c, 1, 33, 64
4, 17465, Note_on_c, 1, 33, 0
4, 17472, Note_on_c, 1, 38, 64
4, 17561, Note_on_c, 1, 38, 0
4, 17568, Note_on_c, 1, 31, 64
4, 17745, Note_on_c, 1, 31, 0
4, 17856, Note_on_c, 1, 63, 75
4, 17856, Note_on_c, 1, 60, 75
4, 17945, Note_on_c, 1, 63, 0
4, 17945, Note_on_c, 1, 60, 0
4, 18168, Note_on_c, 1, 55, 75
4, 18191, Note_on_c, 1, 55, 0
4, 18192, Note_on_c, 1, 62, 75
4, 18215, Note_on_c, 1, 62, 0
4, 18216, Note_on_c, 1, 63, 75
4, 18239, Note_on_c, 1, 63, 0
4, 18240, Note_on_c, 1, 64, 75
4, 18263, Note_on_c, 1, 64, 0
4, 18264, Note_on_c, 1, 65, 75
4, 18287, Note_on_c, 1, 65, 0
4, 18288, Note_on_c, 1, 66, 75
4, 18311, Note_on_c, 1, 66, 0
4, 18312, Note_on_c, 1, 67, 75
4, 18335, Note_on_c, 1, 67, 0
4, 18336, Note_on_c, 1, 68, 75
4, 18359, Note_on_c, 1, 68, 0
4, 18360, Note_on_c, 1, 67, 75
4, 18383, Note_on_c, 1, 67, 0
4, 18384, Note_on_c, 1, 68, 75
4, 18407, Note_on_c, 1, 68, 0
4, 18408, Note_on_c, 1, 65, 75
4, 18431, Note_on_c, 1, 65, 0
4, 18432, Note_on_c, 1, 67, 75
4, 18432, Note_on_c, 1, 63, 75
4, 18697, Note_on_c, 1, 67, 0
4, 18697, Note_on_c, 1, 63, 0
4, 18720, Note_on_c, 1, 68, 75
4, 18720, Note_on_c, 1, 65, 75
4, 18897, Note_on_c, 1, 68, 0
4, 18897, Note_on_c, 1, 65, 0
4, 18912, Note_on_c, 1, 69, 75
4, 18912, Note_on_c, 1, 66, 75
4, 19001, Note_on_c, 1, 69, 0
4, 19001, Note_on_c, 1, 66, 0
4, 19008, Note_on_c, 1, 67, 75
4, 19097, Note_on_c, 1, 67, 0
4, 19104, Note_on_c, 1, 55, 75
4, 19193, Note_on_c, 1, 55, 0
4, 19296, Note_on_c, 1, 55, 80
4, 19296, Note_on_c, 1, 50, 80
4, 19296, Note_on_c, 1, 46, 80
4, 19296, Note_on_c, 1, 43, 80
4, 19561, Note_on_c, 1, 55, 0
4, 19561, Note_on_c, 1, 50, 0
4, 19561, Note_on_c, 1, 46, 0
4, 19561, Note_on_c, 1, 43, 0
4, 19584, Note_on_c, 1, 51, 80
4, 19584, Note_on_c, 1, 48, 80
4, 19584, Note_on_c, 1, 45, 80
4, 19849, Note_on_c, 1, 51, 0
4, 19849, Note_on_c, 1, 48, 0
4, 19849, Note_on_c, 1, 45, 0
4, 19872, Note_on_c, 1, 57, 80
4, 19895, Note_on_c, 1, 57, 0
4, 19896, Note_on_c, 1, 55, 80
4, 19919, Note_on_c, 1, 55, 0
4, 19920, Note_on_c, 1, 53, 80
4, 19943, Note_on_c, 1, 53, 0
4, 19944, Note_on_c, 1, 51, 80
4, 19967, Note_on_c, 1, 51, 0
4, 19968, Note_on_c, 1, 50, 80
4, 19991, Note_on_c, 1, 50, 0
4, 19992, Note_on_c, 1, 48, 80
4, 20015, Note_on_c, 1, 48, 0
4, 20016, Note_on_c, 1, 46, 78
4, 20039, Note_on_c, 1, 46, 0
4, 20040, Note_on_c, 1, 45, 77
4, 20063, Note_on_c, 1, 45, 0
4, 20064, Note_on_c, 1, 43, 75
4, 20087, Note_on_c, 1, 43, 0
4, 20088, Note_on_c, 1, 41, 74
4, 20111, Note_on_c, 1, 41, 0
4, 20112, Note_on_c, 1, 39, 72
4, 20135, Note_on_c, 1, 39, 0
4, 20136, Note_on_c, 1, 38, 71
4, 20159, Note_on_c, 1, 38, 0
4, 20160, Note_on_c, 1, 36, 69
4, 20256, Note_on_c, 1, 36, 0
4, 20256, Note_on_c, 1, 33, 64
4, 20345, Note_on_c, 1, 33, 0
4, 20352, Note_on_c, 1, 38, 64
4, 20441, Note_on_c, 1, 38, 0
4, 20448, Note_on_c, 1, 31, 64
4, 20625, Note_on_c, 1, 31, 0
4, 20736, Note_on_c, 1, 43, 64
4, 20759, Note_on_c, 1, 43, 0
4, 20760, Note_on_c, 1, 45, 64
4, 20783, Note_on_c, 1, 45, 0
4, 20784, Note_on_c, 1, 47, 65
4, 20807, Note_on_c, 1, 47, 0
4, 20808, Note_on_c, 1, 48, 66
4, 20831, Note_on_c, 1, 48, 0
4, 20832, Note_on_c, 1, 50, 67
4, 20855, Note_on_c, 1, 50, 0
4, 20856, Note_on_c, 1, 51, 67
4, 20879, Note_on_c, 1, 51, 0
4, 20880, Note_on_c, 1, 53, 68
4, 20903, Note_on_c, 1, 53, 0
4, 20904, Note_on_c, 1, 55, 69
4, 20927, Note_on_c, 1, 55, 0
4, 20928, Note_on_c, 1, 56, 102
4, 21017, Note_on_c, 1, 56, 0
4, 21024, Note_on_c, 1, 63, 75
4, 21024, Note_on_c, 1, 60, 75
4, 21024, Note_on_c, 1, 55, 75
4, 21201, Note_on_c, 1, 63, 0
4, 21201, Note_on_c, 1, 60, 0
4, 21201, Note_on_c, 1, 55, 0
4, 21216, Note_on_c, 1, 62, 75
4, 21216, Note_on_c, 1, 59, 75
4, 21216, Note_on_c, 1, 53, 75
4, 21305, Note_on_c, 1, 62, 0
4, 21305, Note_on_c, 1, 59, 0
4, 21305, Note_on_c, 1, 53, 0
4, 21312, Note_on_c, 1, 61, 80
4, 21312, Note_on_c, 1, 58, 80
4, 21312, Note_on_c, 1, 55, 80
4, 21312, Note_on_c, 1, 52, 80
4, 21577, Note_on_c, 1, 61, 0
4, 21577, Note_on_c, 1, 58, 0
4, 21577, Note_on_c, 1, 55, 0
4, 21577, Note_on_c, 1, 52, 0
4, 21600, Note_on_c, 1, 60, 80
4, 21600, Note_on_c, 1, 56, 80
4, 21600, Note_on_c, 1, 53, 80
4, 22153, Note_on_c, 1, 60, 0
4, 22153, Note_on_c, 1, 56, 0
4, 22153, Note_on_c, 1, 53, 0
4, 22176, Note_on_c, 1, 63, 80
4, 22176, Note_on_c, 1, 60, 80
4, 22176, Note_on_c, 1, 57, 80
4, 22176, Note_on_c, 1, 54, 80
4, 22441, Note_on_c, 1, 63, 0
4, 22441, Note_on_c, 1, 60, 0
4, 22441, Note_on_c, 1, 57, 0
4, 22441, Note_on_c, 1, 54, 0
4, 22464, Note_on_c, 1, 62, 80
4, 22464, Note_on_c, 1, 55, 80
4, 22553, Note_on_c, 1, 62, 0
4, 22553, Note_on_c, 1, 55, 0
4, 23040, Note_on_c, 1, 31, 58
4, 23087, Note_on_c, 1, 31, 0
4, 23328, Note_on_c, 1, 52, 80
4, 23328, Note_on_c, 1, 48, 80
4, 23593, Note_on_c, 1, 52, 0
4, 23593, Note_on_c, 1, 48, 0
4, 23616, Note_on_c, 1, 55, 80
4, 23616, Note_on_c, 1, 53, 80
4, 23616, Note_on_c, 1, 50, 80
4, 23793, Note_on_c, 1, 55, 0
4, 23793, Note_on_c, 1, 53, 0
4, 23793, Note_on_c, 1, 50, 0
4, 23904, Note_on_c, 1, 64, 70
4, 23904, Note_on_c, 1, 60, 70
4, 24169, Note_on_c, 1, 64, 0
4, 24169, Note_on_c, 1, 60, 0
4, 24192, Note_on_c, 1, 67, 70
4, 24192, Note_on_c, 1, 65, 70
4, 24192, Note_on_c, 1, 62, 70
4, 24457, Note_on_c, 1, 67, 0
4, 24457, Note_on_c, 1, 65, 0
4, 24457, Note_on_c, 1, 62, 0
4, 24480, Note_on_c, 1, 67, 64
4, 24480, Note_on_c, 1, 64, 64
4, 24657, Note_on_c, 1, 67, 0
4, 24657, Note_on_c, 1, 64, 0
4, 24768, Note_on_c, 1, 67, 70
4, 24768, Note_on_c, 1, 62, 70
4, 24768, Note_on_c, 1, 59, 70
4, 25033, Note_on_c, 1, 67, 0
4, 25033, Note_on_c, 1, 62, 0
4, 25033, Note_on_c, 1, 59, 0
4, 25056, Note_on_c, 1, 67, 80
4, 25056, Note_on_c, 1, 64, 80
4, 25056, Note_on_c, 1, 60, 80
4, 25145, Note_on_c, 1, 67, 0
4, 25145, Note_on_c, 1, 64, 0
4, 25145, Note_on_c, 1, 60, 0
4, 25152, Note_on_c, 1, 66, 112
4, 25152, Note_on_c, 1, 60, 112
4, 25152, Note_on_c, 1, 57, 112
4, 25329, Note_on_c, 1, 66, 0
4, 25329, Note_on_c, 1, 60, 0
4, 25329, Note_on_c, 1, 57, 0
4, 25344, Note_on_c, 1, 69, 80
4, 25344, Note_on_c, 1, 59, 80
4, 25440, Note_on_c, 1, 69, 0
4, 25440, Note_on_c, 1, 59, 0
4, 25440, Note_on_c, 1, 67, 70
4, 25440, Note_on_c, 1, 60, 70
4, 25487, Note_on_c, 1, 67, 0
4, 25487, Note_on_c, 1, 60, 0
4, 25632, Note_on_c, 1, 60, 64
4, 25644, Note_on_c, 1, 60, 0
4, 25644, Note_on_c, 1, 64, 64
4, 25656, Note_on_c, 1, 64, 0
4, 25656, Note_on_c, 1, 68, 64
4, 25668, Note_on_c, 1, 68, 0
4, 25668, Note_on_c, 1, 69, 64
4, 25680, Note_on_c, 1, 69, 0
4, 25728, Note_on_c, 1, 71, 64
4, 25728, Note_on_c, 1, 62, 64
4, 25748, Note_on_c, 1, 71, 0
4, 25748, Note_on_c, 1, 62, 0
4, 25824, Note_on_c, 1, 50, 64
4, 25832, Note_on_c, 1, 50, 0
4, 25832, Note_on_c, 1, 54, 64
4, 25840, Note_on_c, 1, 54, 0
4, 25840, Note_on_c, 1, 57, 64
4, 25848, Note_on_c, 1, 57, 0
4, 25920, Note_on_c, 1, 43, 58
4, 25976, Note_on_c, 1, 43, 0
4, 25976, Note_on_c, 1, 47, 58
4, 25984, Note_on_c, 1, 47, 0
4, 25984, Note_on_c, 1, 50, 58
4, 25992, Note_on_c, 1, 50, 0
4, 26208, Note_on_c, 1, 67, 80
4, 26208, Note_on_c, 1, 63, 80
4, 26385, Note_on_c, 1, 67, 0
4, 26385, Note_on_c, 1, 63, 0
4, 26400, Note_on_c, 1, 65, 72
4, 26400, Note_on_c, 1, 62, 72
4, 26489, Note_on_c, 1, 65, 0
4, 26489, Note_on_c, 1, 62, 0
4, 26496, Note_on_c, 1, 63, 68
4, 26496, Note_on_c, 1, 60, 68
4, 26585, Note_on_c, 1, 63, 0
4, 26585, Note_on_c, 1, 60, 0
4, 26592, Note_on_c, 1, 62, 64
4, 26592, Note_on_c, 1, 59, 64
4, 26681, Note_on_c, 1, 62, 0
4, 26681, Note_on_c, 1, 59, 0
4, 26784, Note_on_c, 1, 72, 64
4, 26784, Note_on_c, 1, 68, 64
4, 26873, Note_on_c, 1, 72, 0
4, 26873, Note_on_c, 1, 68, 0
4, 26880, Note_on_c, 1, 70, 64
4, 26880, Note_on_c, 1, 67, 64
4, 26919, Note_on_c, 1, 70, 0
4, 26919, Note_on_c, 1, 67, 0
4, 27072, Note_on_c, 1, 54, 80
4, 27121, Note_on_c, 1, 54, 0
4, 27126, Note_on_c, 1, 55, 80
4, 27132, Note_on_c, 1, 55, 0
4, 27132, Note_on_c, 1, 54, 80
4, 27138, Note_on_c, 1, 54, 0
4, 27138, Note_on_c, 1, 52, 80
4, 27144, Note_on_c, 1, 52, 0
4, 27144, Note_on_c, 1, 54, 80
4, 27167, Note_on_c, 1, 54, 0
4, 27168, Note_on_c, 1, 69, 80
4, 27257, Note_on_c, 1, 69, 0
4, 27264, Note_on_c, 1, 66, 76
4, 27353, Note_on_c, 1, 66, 0
4, 27360, Note_on_c, 1, 67, 72
4, 27537, Note_on_c, 1, 67, 0
4, 27552, Note_on_c, 1, 65, 64
4, 27575, Note_on_c, 1, 65, 0
4, 27576, Note_on_c, 1, 63, 64
4, 27599, Note_on_c, 1, 63, 0
4, 27600, Note_on_c, 1, 62, 64
4, 27623, Note_on_c, 1, 62, 0
4, 27624, Note_on_c, 1, 60, 64
4, 27647, Note_on_c, 1, 60, 0
4, 27648, Note_on_c, 1, 67, 64
4, 27742, Note_on_c, 1, 67, 0
4, 27792, Note_on_c, 1, 66, 58
4, 27816, Note_on_c, 1, 66, 0
4, 27816, Note_on_c, 1, 67, 58
4, 27839, Note_on_c, 1, 67, 0
4, 27840, Note_on_c, 1, 65, 58
4, 27863, Note_on_c, 1, 65, 0
4, 27864, Note_on_c, 1, 63, 58
4, 27887, Note_on_c, 1, 63, 0
4, 27888, Note_on_c, 1, 62, 58
4, 27911, Note_on_c, 1, 62, 0
4, 27912, Note_on_c, 1, 60, 58
4, 27935, Note_on_c, 1, 60, 0
4, 27936, Note_on_c, 1, 67, 58
4, 27975, Note_on_c, 1, 67, 0
4, 28248, Note_on_c, 1, 36, 64
4, 28271, Note_on_c, 1, 36, 0
4, 28272, Note_on_c, 1, 40, 64
4, 28295, Note_on_c, 1, 40, 0
4, 28296, Note_on_c, 1, 43, 64
4, 28319, Note_on_c, 1, 43, 0
4, 28320, Note_on_c, 1, 48, 64
4, 28343, Note_on_c, 1, 48, 0
4, 28344, Note_on_c, 1, 40, 64
4, 28367, Note_on_c, 1, 40, 0
4, 28368, Note_on_c, 1, 43, 64
4, 28391, Note_on_c, 1, 43, 0
4, 28392, Note_on_c, 1, 48, 64
4, 28415, Note_on_c, 1, 48, 0
4, 28416, Note_on_c, 1, 52, 64
4, 28439, Note_on_c, 1, 52, 0
4, 28440, Note_on_c, 1, 43, 64
4, 28463, Note_on_c, 1, 43, 0
4, 28464, Note_on_c, 1, 48, 64
4, 28487, Note_on_c, 1, 48, 0
4, 28488, Note_on_c, 1, 52, 64
4, 28511, Note_on_c, 1, 52, 0
4, 28512, Note_on_c, 1, 53, 64
4, 28535, Note_on_c, 1, 53, 0
4, 28536, Note_on_c, 1, 43, 65
4, 28559, Note_on_c, 1, 43, 0
4, 28560, Note_on_c, 1, 53, 67
4, 28583, Note_on_c, 1, 53, 0
4, 28584, Note_on_c, 1, 43, 69
4, 28607, Note_on_c, 1, 43, 0
4, 28608, Note_on_c, 1, 53, 71
4, 28631, Note_on_c, 1, 53, 0
4, 28632, Note_on_c, 1, 43, 72
4, 28655, Note_on_c, 1, 43, 0
4, 28656, Note_on_c, 1, 53, 74
4, 28679, Note_on_c, 1, 53, 0
4, 28680, Note_on_c, 1, 43, 76
4, 28703, Note_on_c, 1, 43, 0
4, 28704, Note_on_c, 1, 53, 78
4, 28727, Note_on_c, 1, 53, 0
4, 28728, Note_on_c, 1, 43, 80
4, 28751, Note_on_c, 1, 43, 0
4, 28752, Note_on_c, 1, 53, 80
4, 28775, Note_on_c, 1, 53, 0
4, 28776, Note_on_c, 1, 43, 80
4, 28799, Note_on_c, 1, 43, 0
4, 28824, Note_on_c, 1, 48, 80
4, 28847, Note_on_c, 1, 48, 0
4, 28848, Note_on_c, 1, 52, 80
4, 28871, Note_on_c, 1, 52, 0
4, 28872, Note_on_c, 1, 55, 80
4, 28895, Note_on_c, 1, 55, 0
4, 28896, Note_on_c, 1, 60, 80
4, 28919, Note_on_c, 1, 60, 0
4, 28920, Note_on_c, 1, 52, 80
4, 28943, Note_on_c, 1, 52, 0
4, 28944, Note_on_c, 1, 55, 80
4, 28967, Note_on_c, 1, 55, 0
4, 28968, Note_on_c, 1, 60, 80
4, 28991, Note_on_c, 1, 60, 0
4, 28992, Note_on_c, 1, 64, 80
4, 29015, Note_on_c, 1, 64, 0
4, 29016, Note_on_c, 1, 55, 80
4, 29039, Note_on_c, 1, 55, 0
4, 29040, Note_on_c, 1, 60, 80
4, 29063, Note_on_c, 1, 60, 0
4, 29064, Note_on_c, 1, 64, 80
4, 29087, Note_on_c, 1, 64, 0
4, 29088, Note_on_c, 1, 65, 80
4, 29111, Note_on_c, 1, 65, 0
4, 29112, Note_on_c, 1, 55, 80
4, 29135, Note_on_c, 1, 55, 0
4, 29136, Note_on_c, 1, 65, 80
4, 29159, Note_on_c, 1, 65, 0
4, 29160, Note_on_c, 1, 55, 80
4, 29183, Note_on_c, 1, 55, 0
4, 29184, Note_on_c, 1, 65, 80
4, 29207, Note_on_c, 1, 65, 0
4, 29208, Note_on_c, 1, 55, 78
4, 29231, Note_on_c, 1, 55, 0
4, 29232, Note_on_c, 1, 65, 76
4, 29255, Note_on_c, 1, 65, 0
4, 29256, Note_on_c, 1, 55, 74
4, 29279, Note_on_c, 1, 55, 0
4, 29280, Note_on_c, 1, 65, 72
4, 29303, Note_on_c, 1, 65, 0
4, 29304, Note_on_c, 1, 55, 70
4, 29327, Note_on_c, 1, 55, 0
4, 29328, Note_on_c, 1, 65, 68
4, 29351, Note_on_c, 1, 65, 0
4, 29352, Note_on_c, 1, 55, 66
4, 29375, Note_on_c, 1, 55, 0
4, 29400, Note_on_c, 1, 55, 64
4, 29423, Note_on_c, 1, 55, 0
4, 29424, Note_on_c, 1, 64, 64
4, 29447, Note_on_c, 1, 64, 0
4, 29448, Note_on_c, 1, 55, 64
4, 29471, Note_on_c, 1, 55, 0
4, 29472, Note_on_c, 1, 64, 64
4, 29495, Note_on_c, 1, 64, 0
4, 29496, Note_on_c, 1, 55, 64
4, 29519, Note_on_c, 1, 55, 0
4, 29520, Note_on_c, 1, 64, 64
4, 29543, Note_on_c, 1, 64, 0
4, 29544, Note_on_c, 1, 55, 64
4, 29567, Note_on_c, 1, 55, 0
4, 29568, Note_on_c, 1, 64, 64
4, 29591, Note_on_c, 1, 64, 0
4, 29592, Note_on_c, 1, 55, 64
4, 29615, Note_on_c, 1, 55, 0
4, 29616, Note_on_c, 1, 64, 64
4, 29639, Note_on_c, 1, 64, 0
4, 29640, Note_on_c, 1, 55, 64
4, 29663, Note_on_c, 1, 55, 0
4, 29664, Note_on_c, 1, 53, 64
4, 29841, Note_on_c, 1, 53, 0
4, 29976, Note_on_c, 1, 55, 70
4, 29999, Note_on_c, 1, 55, 0
4, 30000, Note_on_c, 1, 59, 70
4, 30023, Note_on_c, 1, 59, 0
4, 30024, Note_on_c, 1, 57, 71
4, 30047, Note_on_c, 1, 57, 0
4, 30048, Note_on_c, 1, 60, 72
4, 30071, Note_on_c, 1, 60, 0
4, 30072, Note_on_c, 1, 59, 72
4, 30095, Note_on_c, 1, 59, 0
4, 30096, Note_on_c, 1, 62, 73
4, 30119, Note_on_c, 1, 62, 0
4, 30120, Note_on_c, 1, 60, 74
4, 30143, Note_on_c, 1, 60, 0
4, 30144, Note_on_c, 1, 64, 74
4, 30167, Note_on_c, 1, 64, 0
4, 30168, Note_on_c, 1, 62, 75
4, 30191, Note_on_c, 1, 62, 0
4, 30192, Note_on_c, 1, 65, 76
4, 30215, Note_on_c, 1, 65, 0
4, 30216, Note_on_c, 1, 64, 76
4, 30239, Note_on_c, 1, 64, 0
4, 30240, Note_on_c, 1, 65, 77
4, 30240, Note_on_c, 1, 53, 77
4, 30329, Note_on_c, 1, 65, 0
4, 30329, Note_on_c, 1, 53, 0
4, 30336, Note_on_c, 1, 64, 80
4, 30336, Note_on_c, 1, 55, 80
4, 30381, Note_on_c, 1, 64, 0
4, 30381, Note_on_c, 1, 55, 0
4, 30432, Note_on_c, 1, 62, 64
4, 30432, Note_on_c, 1, 55, 64
4, 30477, Note_on_c, 1, 62, 0
4, 30477, Note_on_c, 1, 55, 0
4, 30528, Note_on_c, 1, 60, 64
4, 30528, Note_on_c, 1, 48, 64
4, 30617, Note_on_c, 1, 60, 0
4, 30617, Note_on_c, 1, 48, 0
4, 30816, Note_on_c, 1, 55, 64
4, 30831, Note_on_c, 1, 55, 0
4, 30832, Note_on_c, 1, 63, 64
4, 30847, Note_on_c, 1, 63, 0
4, 30848, Note_on_c, 1, 67, 64
4, 30863, Note_on_c, 1, 67, 0
4, 30864, Note_on_c, 1, 55, 64
4, 30879, Note_on_c, 1, 55, 0
4, 30880, Note_on_c, 1, 63, 64
4, 30895, Note_on_c, 1, 63, 0
4, 30896, Note_on_c, 1, 67, 64
4, 30911, Note_on_c, 1, 67, 0
4, 30912, Note_on_c, 1, 55, 64
4, 30927, Note_on_c, 1, 55, 0
4, 30928, Note_on_c, 1, 63, 64
4, 30943, Note_on_c, 1, 63, 0
4, 30944, Note_on_c, 1, 67, 64
4, 30959, Note_on_c, 1, 67, 0
4, 30960, Note_on_c, 1, 55, 64
4, 30975, Note_on_c, 1, 55, 0
4, 30976, Note_on_c, 1, 63, 64
4, 30991, Note_on_c, 1, 63, 0
4, 30992, Note_on_c, 1, 67, 64
4, 31007, Note_on_c, 1, 67, 0
4, 31008, Note_on_c, 1, 55, 64
4, 31023, Note_on_c, 1, 55, 0
4, 31024, Note_on_c, 1, 62, 64
4, 31039, Note_on_c, 1, 62, 0
4, 31040, Note_on_c, 1, 65, 64
4, 31055, Note_on_c, 1, 65, 0
4, 31056, Note_on_c, 1, 55, 64
4, 31071, Note_on_c, 1, 55, 0
4, 31072, Note_on_c, 1, 62, 64
4, 31087, Note_on_c, 1, 62, 0
4, 31088, Note_on_c, 1, 65, 64
4, 31103, Note_on_c, 1, 65, 0
4, 31104, Note_on_c, 1, 55, 64
4, 31119, Note_on_c, 1, 55, 0
4, 31120, Note_on_c, 1, 60, 64
4, 31135, Note_on_c, 1, 60, 0
4, 31136, Note_on_c, 1, 63, 64
4, 31151, Note_on_c, 1, 63, 0
4, 31152, Note_on_c, 1, 55, 64
4, 31167, Note_on_c, 1, 55, 0
4, 31168, Note_on_c, 1, 60, 64
4, 31183, Note_on_c, 1, 60, 0
4, 31184, Note_on_c, 1, 63, 64
4, 31199, Note_on_c, 1, 63, 0
4, 31200, Note_on_c, 1, 55, 64
4, 31215, Note_on_c, 1, 55, 0
4, 31216, Note_on_c, 1, 59, 64
4, 31231, Note_on_c, 1, 59, 0
4, 31232, Note_on_c, 1, 62, 64
4, 31247, Note_on_c, 1, 62, 0
4, 31248, Note_on_c, 1, 55, 64
4, 31263, Note_on_c, 1, 55, 0
4, 31264, Note_on_c, 1, 59, 64
4, 31279, Note_on_c, 1, 59, 0
4, 31280, Note_on_c, 1, 62, 64
4, 31295, Note_on_c, 1, 62, 0
4, 31296, Note_on_c, 1, 55, 64
4, 31341, Note_on_c, 1, 55, 0
4, 31392, Note_on_c, 1, 72, 75
4, 31392, Note_on_c, 1, 68, 75
4, 31488, Note_on_c, 1, 72, 0
4, 31488, Note_on_c, 1, 68, 0
4, 31488, Note_on_c, 1, 70, 64
4, 31488, Note_on_c, 1, 67, 64
4, 31508, Note_on_c, 1, 70, 0
4, 31508, Note_on_c, 1, 67, 0
4, 31680, Note_on_c, 1, 54, 80
4, 31725, Note_on_c, 1, 54, 0
4, 31728, Note_on_c, 1, 57, 80
4, 31740, Note_on_c, 1, 57, 0
4, 31740, Note_on_c, 1, 61, 80
4, 31752, Note_on_c, 1, 61, 0
4, 31752, Note_on_c, 1, 62, 80
4, 31764, Note_on_c, 1, 62, 0
4, 31764, Note_on_c, 1, 66, 80
4, 31776, Note_on_c, 1, 66, 0
4, 31776, Note_on_c, 1, 69, 80
4, 31872, Note_on_c, 1, 69, 0
4, 31872, Note_on_c, 1, 66, 80
4, 31961, Note_on_c, 1, 66, 0
4, 31968, Note_on_c, 1, 67, 80
4, 32145, Note_on_c, 1, 67, 0
4, 32160, Note_on_c, 1, 65, 80
4, 32183, Note_on_c, 1, 65, 0
4, 32184, Note_on_c, 1, 63, 80
4, 32207, Note_on_c, 1, 63, 0
4, 32208, Note_on_c, 1, 62, 80
4, 32231, Note_on_c, 1, 62, 0
4, 32232, Note_on_c, 1, 60, 80
4, 32255, Note_on_c, 1, 60, 0
4, 32256, Note_on_c, 1, 67, 80
4, 32301, Note_on_c, 1, 67, 0
4, 32352, Note_on_c, 1, 68, 58
4, 32375, Note_on_c, 1, 68, 0
4, 32376, Note_on_c, 1, 67, 58
4, 32399, Note_on_c, 1, 67, 0
4, 32400, Note_on_c, 1, 68, 58
4, 32423, Note_on_c, 1, 68, 0
4, 32424, Note_on_c, 1, 67, 58
4, 32447, Note_on_c, 1, 67, 0
4, 32448, Note_on_c, 1, 65, 58
4, 32471, Note_on_c, 1, 65, 0
4, 32472, Note_on_c, 1, 63, 58
4, 32495, Note_on_c, 1, 63, 0
4, 32496, Note_on_c, 1, 62, 58
4, 32519, Note_on_c, 1, 62, 0
4, 32520, Note_on_c, 1, 60, 58
4, 32543, Note_on_c, 1, 60, 0
4, 32544, Note_on_c, 1, 67, 58
4, 32583, Note_on_c, 1, 67, 0
4, 32832, Note_on_c, 1, 48, 80
4, 32832, Note_on_c, 1, 43, 80
4, 32832, Note_on_c, 1, 40, 80
4, 32832, Note_on_c, 1, 36, 80
4, 33097, Note_on_c, 1, 48, 0
4, 33097, Note_on_c, 1, 43, 0
4, 33097, Note_on_c, 1, 40, 0
4, 33097, Note_on_c, 1, 36, 0
4, 33120, Note_on_c, 1, 53, 80
4, 33120, Note_on_c, 1, 50, 80
4, 33120, Note_on_c, 1, 43, 80
4, 33261, Note_on_c, 1, 53, 0
4, 33261, Note_on_c, 1, 50, 0
4, 33261, Note_on_c, 1, 43, 0
4, 33408, Note_on_c, 1, 64, 64
4, 33408, Note_on_c, 1, 60, 64
4, 33673, Note_on_c, 1, 64, 0
4, 33673, Note_on_c, 1, 60, 0
4, 33696, Note_on_c, 1, 67, 64
4, 33696, Note_on_c, 1, 65, 64
4, 33696, Note_on_c, 1, 62, 64
4, 33837, Note_on_c, 1, 67, 0
4, 33837, Note_on_c, 1, 65, 0
4, 33837, Note_on_c, 1, 62, 0
4, 34272, Note_on_c, 1, 41, 64
4, 34284, Note_on_c, 1, 41, 0
4, 34284, Note_on_c, 1, 45, 64
4, 34296, Note_on_c, 1, 45, 0
4, 34296, Note_on_c, 1, 50, 64
4, 34308, Note_on_c, 1, 50, 0
4, 34308, Note_on_c, 1, 53, 64
4, 34320, Note_on_c, 1, 53, 0
4, 34560, Note_on_c, 1, 62, 80
4, 34560, Note_on_c, 1, 59, 80
4, 34737, Note_on_c, 1, 62, 0
4, 34737, Note_on_c, 1, 59, 0
4, 34752, Note_on_c, 1, 60, 80
4, 34797, Note_on_c, 1, 60, 0
4, 34848, Note_on_c, 1, 65, 76
4, 34848, Note_on_c, 1, 53, 76
4, 34937, Note_on_c, 1, 65, 0
4, 34937, Note_on_c, 1, 53, 0
4, 34944, Note_on_c, 1, 64, 72
4, 34944, Note_on_c, 1, 55, 72
4, 34964, Note_on_c, 1, 64, 0
4, 34964, Note_on_c, 1, 55, 0
4, 35040, Note_on_c, 1, 62, 64
4, 35040, Note_on_c, 1, 55, 64
4, 35085, Note_on_c, 1, 62, 0
4, 35085, Note_on_c, 1, 55, 0
4, 35136, Note_on_c, 1, 60, 64
4, 35136, Note_on_c, 1, 48, 64
4, 35225, Note_on_c, 1, 60, 0
4, 35225, Note_on_c, 1, 48, 0
4, 35448, Note_on_c, 1, 36, 64
4, 35471, Note_on_c, 1, 36, 0
4, 35472, Note_on_c, 1, 39, 64
4, 35495, Note_on_c, 1, 39, 0
4, 35496, Note_on_c, 1, 43, 64
4, 35519, Note_on_c, 1, 43, 0
4, 35520, Note_on_c, 1, 48, 64
4, 35543, Note_on_c, 1, 48, 0
4, 35544, Note_on_c, 1, 39, 64
4, 35567, Note_on_c, 1, 39, 0
4, 35568, Note_on_c, 1, 43, 64
4, 35591, Note_on_c, 1, 43, 0
4, 35592, Note_on_c, 1, 48, 64
4, 35615, Note_on_c, 1, 48, 0
4, 35616, Note_on_c, 1, 51, 64
4, 35639, Note_on_c, 1, 51, 0
4, 35640, Note_on_c, 1, 43, 64
4, 35663, Note_on_c, 1, 43, 0
4, 35664, Note_on_c, 1, 48, 64
4, 35687, Note_on_c, 1, 48, 0
4, 35688, Note_on_c, 1, 51, 64
4, 35711, Note_on_c, 1, 51, 0
4, 35712, Note_on_c, 1, 53, 64
4, 35735, Note_on_c, 1, 53, 0
4, 35736, Note_on_c, 1, 43, 65
4, 35759, Note_on_c, 1, 43, 0
4, 35760, Note_on_c, 1, 53, 67
4, 35783, Note_on_c, 1, 53, 0
4, 35784, Note_on_c, 1, 43, 69
4, 35807, Note_on_c, 1, 43, 0
4, 35808, Note_on_c, 1, 53, 71
4, 35831, Note_on_c, 1, 53, 0
4, 35832, Note_on_c, 1, 43, 72
4, 35855, Note_on_c, 1, 43, 0
4, 35856, Note_on_c, 1, 53, 74
4, 35879, Note_on_c, 1, 53, 0
4, 35880, Note_on_c, 1, 43, 76
4, 35903, Note_on_c, 1, 43, 0
4, 35904, Note_on_c, 1, 53, 78
4, 35927, Note_on_c, 1, 53, 0
4, 35928, Note_on_c, 1, 43, 80
4, 35951, Note_on_c, 1, 43, 0
4, 35952, Note_on_c, 1, 53, 80
4, 35975, Note_on_c, 1, 53, 0
4, 35976, Note_on_c, 1, 43, 80
4, 35999, Note_on_c, 1, 43, 0
4, 36000, Note_on_c, 1, 55, 80
4, 36000, Note_on_c, 1, 51, 80
4, 36089, Note_on_c, 1, 55, 0
4, 36089, Note_on_c, 1, 51, 0
4, 36096, Note_on_c, 1, 63, 80
4, 36192, Note_on_c, 1, 63, 0
4, 36192, Note_on_c, 1, 60, 80
4, 36281, Note_on_c, 1, 60, 0
4, 36288, Note_on_c, 1, 59, 80
4, 36384, Note_on_c, 1, 59, 0
4, 36384, Note_on_c, 1, 67, 80
4, 36473, Note_on_c, 1, 67, 0
4, 36576, Note_on_c, 1, 58, 64
4, 36672, Note_on_c, 1, 58, 0
4, 36672, Note_on_c, 1, 67, 64
4, 36761, Note_on_c, 1, 67, 0
4, 36864, Note_on_c, 1, 65, 80
4, 36864, Note_on_c, 1, 60, 80
4, 36864, Note_on_c, 1, 56, 80
4, 36953, Note_on_c, 1, 65, 0
4, 36953, Note_on_c, 1, 60, 0
4, 36953, Note_on_c, 1, 56, 0
4, 36960, Note_on_c, 1, 68, 64
4, 36960, Note_on_c, 1, 65, 64
4, 36999, Note_on_c, 1, 68, 0
4, 36999, Note_on_c, 1, 65, 0
4, 37152, Note_on_c, 1, 60, 80
4, 37152, Note_on_c, 1, 55, 80
4, 37152, Note_on_c, 1, 52, 80
4, 37241, Note_on_c, 1, 60, 0
4, 37241, Note_on_c, 1, 55, 0
4, 37241, Note_on_c, 1, 52, 0
4, 37248, Note_on_c, 1, 67, 64
4, 37248, Note_on_c, 1, 64, 64
4, 37287, Note_on_c, 1, 67, 0
4, 37287, Note_on_c, 1, 64, 0
4, 37440, Note_on_c, 1, 65, 80
4, 37440, Note_on_c, 1, 60, 80
4, 37440, Note_on_c, 1, 56, 80
4, 37529, Note_on_c, 1, 65, 0
4, 37529, Note_on_c, 1, 60, 0
4, 37529, Note_on_c, 1, 56, 0
4, 37536, Note_on_c, 1, 68, 64
4, 37536, Note_on_c, 1, 65, 64
4, 37575, Note_on_c, 1, 68, 0
4, 37575, Note_on_c, 1, 65, 0
4, 37728, Note_on_c, 1, 61, 86
4, 37728, Note_on_c, 1, 53, 86
4, 37728, Note_on_c, 1, 49, 86
4, 37905, Note_on_c, 1, 61, 0
4, 37905, Note_on_c, 1, 53, 0
4, 37905, Note_on_c, 1, 49, 0
4, 37920, Note_on_c, 1, 62, 86
4, 37920, Note_on_c, 1, 50, 86
4, 38009, Note_on_c, 1, 62, 0
4, 38009, Note_on_c, 1, 50, 0
4, 38016, Note_on_c, 1, 63, 86
4, 38016, Note_on_c, 1, 51, 86
4, 38105, Note_on_c, 1, 63, 0
4, 38105, Note_on_c, 1, 51, 0
4, 38400, Note_on_c, 1, 48, 64
4, 38445, Note_on_c, 1, 48, 0
4, 38448, Note_on_c, 1, 49, 64
4, 38493, Note_on_c, 1, 49, 0
4, 38496, Note_on_c, 1, 48, 64
4, 38541, Note_on_c, 1, 48, 0
4, 38544, Note_on_c, 1, 46, 64
4, 38589, Note_on_c, 1, 46, 0
4, 38592, Note_on_c, 1, 48, 64
4, 38592, Note_on_c, 1, 44, 64
4, 38857, Note_on_c, 1, 48, 0
4, 38857, Note_on_c, 1, 44, 0
4, 38880, Note_on_c, 1, 51, 64
4, 38880, Note_on_c, 1, 49, 64
4, 38880, Note_on_c, 1, 46, 64
4, 39021, Note_on_c, 1, 51, 0
4, 39021, Note_on_c, 1, 49, 0
4, 39021, Note_on_c, 1, 46, 0
4, 39168, Note_on_c, 1, 60, 70
4, 39168, Note_on_c, 1, 56, 70
4, 39433, Note_on_c, 1, 60, 0
4, 39433, Note_on_c, 1, 56, 0
4, 39456, Note_on_c, 1, 63, 70
4, 39456, Note_on_c, 1, 61, 70
4, 39456, Note_on_c, 1, 58, 70
4, 39589, Note_on_c, 1, 63, 0
4, 39589, Note_on_c, 1, 61, 0
4, 39589, Note_on_c, 1, 58, 0
4, 39744, Note_on_c, 1, 63, 70
4, 39744, Note_on_c, 1, 60, 70
4, 39885, Note_on_c, 1, 63, 0
4, 39885, Note_on_c, 1, 60, 0
4, 40032, Note_on_c, 1, 66, 80
4, 40032, Note_on_c, 1, 63, 80
4, 40032, Note_on_c, 1, 60, 80
4, 40121, Note_on_c, 1, 66, 0
4, 40121, Note_on_c, 1, 63, 0
4, 40121, Note_on_c, 1, 60, 0
4, 40128, Note_on_c, 1, 60, 80
4, 40128, Note_on_c, 1, 57, 80
4, 40318, Note_on_c, 1, 60, 0
4, 40318, Note_on_c, 1, 57, 0
4, 40320, Note_on_c, 1, 65, 80
4, 40320, Note_on_c, 1, 61, 80
4, 40320, Note_on_c, 1, 58, 80
4, 40409, Note_on_c, 1, 65, 0
4, 40409, Note_on_c, 1, 61, 0
4, 40409, Note_on_c, 1, 58, 0
4, 40416, Note_on_c, 1, 65, 80
4, 40416, Note_on_c, 1, 62, 80
4, 40416, Note_on_c, 1, 59, 80
4, 40512, Note_on_c, 1, 65, 0
4, 40606, Note_on_c, 1, 62, 0
4, 40606, Note_on_c, 1, 59, 0
4, 40608, Note_on_c, 1, 67, 80
4, 40608, Note_on_c, 1, 63, 80
4, 40608, Note_on_c, 1, 60, 80
4, 40697, Note_on_c, 1, 67, 0
4, 40697, Note_on_c, 1, 63, 0
4, 40697, Note_on_c, 1, 60, 0
4, 40704, Note_on_c, 1, 66, 80
4, 40704, Note_on_c, 1, 60, 80
4, 40704, Note_on_c, 1, 56, 80
4, 40896, Note_on_c, 1, 66, 0
4, 41161, Note_on_c, 1, 60, 0
4, 41161, Note_on_c, 1, 56, 0
4, 41184, Note_on_c, 1, 59, 80
4, 41184, Note_on_c, 1, 55, 80
4, 41273, Note_on_c, 1, 59, 0
4, 41273, Note_on_c, 1, 55, 0
4, 41760, Note_on_c, 1, 43, 64
4, 41760, Note_on_c, 1, 31, 64
4, 41849, Note_on_c, 1, 43, 0
4, 41849, Note_on_c, 1, 31, 0
4, 42048, Note_on_c, 1, 60, 64
4, 42063, Note_on_c, 1, 60, 0
4, 42064, Note_on_c, 1, 64, 64
4, 42079, Note_on_c, 1, 64, 0
4, 42080, Note_on_c, 1, 67, 64
4, 42095, Note_on_c, 1, 67, 0
4, 42096, Note_on_c, 1, 60, 64
4, 42111, Note_on_c, 1, 60, 0
4, 42112, Note_on_c, 1, 64, 64
4, 42127, Note_on_c, 1, 64, 0
4, 42128, Note_on_c, 1, 67, 64
4, 42143, Note_on_c, 1, 67, 0
4, 42144, Note_on_c, 1, 60, 64
4, 42159, Note_on_c, 1, 60, 0
4, 42160, Note_on_c, 1, 64, 64
4, 42175, Note_on_c, 1, 64, 0
4, 42176, Note_on_c, 1, 67, 64
4, 42191, Note_on_c, 1, 67, 0
4, 42192, Note_on_c, 1, 60, 64
4, 42207, Note_on_c, 1, 60, 0
4, 42208, Note_on_c, 1, 64, 64
4, 42223, Note_on_c, 1, 64, 0
4, 42224, Note_on_c, 1, 67, 64
4, 42239, Note_on_c, 1, 67, 0
4, 42240, Note_on_c, 1, 60, 64
4, 42255, Note_on_c, 1, 60, 0
4, 42256, Note_on_c, 1, 64, 64
4, 42271, Note_on_c, 1, 64, 0
4, 42272, Note_on_c, 1, 67, 64
4, 42287, Note_on_c, 1, 67, 0
4, 42288, Note_on_c, 1, 60, 64
4, 42303, Note_on_c, 1, 60, 0
4, 42304, Note_on_c, 1, 64, 64
4, 42319, Note_on_c, 1, 64, 0
4, 42320, Note_on_c, 1, 67, 64
4, 42335, Note_on_c, 1, 67, 0
4, 42336, Note_on_c, 1, 62, 64
4, 42351, Note_on_c, 1, 62, 0
4, 42352, Note_on_c, 1, 65, 64
4, 42367, Note_on_c, 1, 65, 0
4, 42368, Note_on_c, 1, 67, 64
4, 42383, Note_on_c, 1, 67, 0
4, 42384, Note_on_c, 1, 62, 64
4, 42399, Note_on_c, 1, 62, 0
4, 42400, Note_on_c, 1, 65, 64
4, 42415, Note_on_c, 1, 65, 0
4, 42416, Note_on_c, 1, 67, 64
4, 42431, Note_on_c, 1, 67, 0
4, 42432, Note_on_c, 1, 62, 64
4, 42447, Note_on_c, 1, 62, 0
4, 42448, Note_on_c, 1, 65, 64
4, 42463, Note_on_c, 1, 65, 0
4, 42464, Note_on_c, 1, 67, 64
4, 42479, Note_on_c, 1, 67, 0
4, 42480, Note_on_c, 1, 62, 64
4, 42495, Note_on_c, 1, 62, 0
4, 42496, Note_on_c, 1, 65, 64
4, 42511, Note_on_c, 1, 65, 0
4, 42512, Note_on_c, 1, 67, 64
4, 42527, Note_on_c, 1, 67, 0
4, 42528, Note_on_c, 1, 62, 64
4, 42543, Note_on_c, 1, 62, 0
4, 42544, Note_on_c, 1, 65, 64
4, 42559, Note_on_c, 1, 65, 0
4, 42560, Note_on_c, 1, 67, 64
4, 42575, Note_on_c, 1, 67, 0
4, 42576, Note_on_c, 1, 62, 64
4, 42591, Note_on_c, 1, 62, 0
4, 42592, Note_on_c, 1, 65, 64
4, 42607, Note_on_c, 1, 65, 0
4, 42608, Note_on_c, 1, 67, 64
4, 42623, Note_on_c, 1, 67, 0
4, 42624, Note_on_c, 1, 60, 64
4, 42639, Note_on_c, 1, 60, 0
4, 42640, Note_on_c, 1, 64, 64
4, 42655, Note_on_c, 1, 64, 0
4, 42656, Note_on_c, 1, 67, 64
4, 42671, Note_on_c, 1, 67, 0
4, 42672, Note_on_c, 1, 60, 64
4, 42687, Note_on_c, 1, 60, 0
4, 42688, Note_on_c, 1, 64, 64
4, 42703, Note_on_c, 1, 64, 0
4, 42704, Note_on_c, 1, 67, 64
4, 42719, Note_on_c, 1, 67, 0
4, 42720, Note_on_c, 1, 60, 64
4, 42735, Note_on_c, 1, 60, 0
4, 42736, Note_on_c, 1, 64, 64
4, 42751, Note_on_c, 1, 64, 0
4, 42752, Note_on_c, 1, 67, 64
4, 42767, Note_on_c, 1, 67, 0
4, 42768, Note_on_c, 1, 60, 64
4, 42783, Note_on_c, 1, 60, 0
4, 42784, Note_on_c, 1, 64, 64
4, 42799, Note_on_c, 1, 64, 0
4, 42800, Note_on_c, 1, 67, 64
4, 42815, Note_on_c, 1, 67, 0
4, 42816, Note_on_c, 1, 60, 64
4, 42831, Note_on_c, 1, 60, 0
4, 42832, Note_on_c, 1, 64, 64
4, 42847, Note_on_c, 1, 64, 0
4, 42848, Note_on_c, 1, 67, 64
4, 42863, Note_on_c, 1, 67, 0
4, 42864, Note_on_c, 1, 60, 64
4, 42879, Note_on_c, 1, 60, 0
4, 42880, Note_on_c, 1, 64, 64
4, 42895, Note_on_c, 1, 64, 0
4, 42896, Note_on_c, 1, 67, 64
4, 42911, Note_on_c, 1, 67, 0
4, 42912, Note_on_c, 1, 62, 64
4, 42927, Note_on_c, 1, 62, 0
4, 42928, Note_on_c, 1, 65, 64
4, 42943, Note_on_c, 1, 65, 0
4, 42944, Note_on_c, 1, 67, 64
4, 42959, Note_on_c, 1, 67, 0
4, 42960, Note_on_c, 1, 62, 64
4, 42975, Note_on_c, 1, 62, 0
4, 42976, Note_on_c, 1, 65, 64
4, 42991, Note_on_c, 1, 65, 0
4, 42992, Note_on_c, 1, 67, 64
4, 43007, Note_on_c, 1, 67, 0
4, 43008, Note_on_c, 1, 62, 64
4, 43023, Note_on_c, 1, 62, 0
4, 43024, Note_on_c, 1, 65, 64
4, 43039, Note_on_c, 1, 65, 0
4, 43040, Note_on_c, 1, 67, 64
4, 43055, Note_on_c, 1, 67, 0
4, 43056, Note_on_c, 1, 62, 64
4, 43071, Note_on_c, 1, 62, 0
4, 43072, Note_on_c, 1, 65, 64
4, 43087, Note_on_c, 1, 65, 0
4, 43088, Note_on_c, 1, 67, 64
4, 43103, Note_on_c, 1, 67, 0
4, 43104, Note_on_c, 1, 62, 75
4, 43119, Note_on_c, 1, 62, 0
4, 43120, Note_on_c, 1, 65, 72
4, 43135, Note_on_c, 1, 65, 0
4, 43136, Note_on_c, 1, 67, 70
4, 43151, Note_on_c, 1, 67, 0
4, 43152, Note_on_c, 1, 62, 68
4, 43167, Note_on_c, 1, 62, 0
4, 43168, Note_on_c, 1, 65, 66
4, 43183, Note_on_c, 1, 65, 0
4, 43184, Note_on_c, 1, 67, 64
4, 43199, Note_on_c, 1, 67, 0
4, 43200, Note_on_c, 1, 64, 64
4, 43215, Note_on_c, 1, 64, 0
4, 43216, Note_on_c, 1, 67, 64
4, 43231, Note_on_c, 1, 67, 0
4, 43232, Note_on_c, 1, 70, 64
4, 43247, Note_on_c, 1, 70, 0
4, 43248, Note_on_c, 1, 64, 64
4, 43263, Note_on_c, 1, 64, 0
4, 43264, Note_on_c, 1, 67, 64
4, 43279, Note_on_c, 1, 67, 0
4, 43280, Note_on_c, 1, 70, 64
4, 43295, Note_on_c, 1, 70, 0
4, 43296, Note_on_c, 1, 64, 64
4, 43311, Note_on_c, 1, 64, 0
4, 43312, Note_on_c, 1, 67, 64
4, 43327, Note_on_c, 1, 67, 0
4, 43328, Note_on_c, 1, 70, 64
4, 43343, Note_on_c, 1, 70, 0
4, 43344, Note_on_c, 1, 64, 64
4, 43359, Note_on_c, 1, 64, 0
4, 43360, Note_on_c, 1, 67, 65
4, 43375, Note_on_c, 1, 67, 0
4, 43376, Note_on_c, 1, 70, 66
4, 43391, Note_on_c, 1, 70, 0
4, 43392, Note_on_c, 1, 64, 68
4, 43407, Note_on_c, 1, 64, 0
4, 43408, Note_on_c, 1, 67, 69
4, 43423, Note_on_c, 1, 67, 0
4, 43424, Note_on_c, 1, 70, 70
4, 43439, Note_on_c, 1, 70, 0
4, 43440, Note_on_c, 1, 64, 72
4, 43455, Note_on_c, 1, 64, 0
4, 43456, Note_on_c, 1, 67, 73
4, 43471, Note_on_c, 1, 67, 0
4, 43472, Note_on_c, 1, 70, 74
4, 43487, Note_on_c, 1, 70, 0
4, 43488, Note_on_c, 1, 69, 80
4, 43488, Note_on_c, 1, 65, 80
4, 43577, Note_on_c, 1, 69, 0
4, 43577, Note_on_c, 1, 65, 0
4, 43792, Note_on_c, 1, 54, 80
4, 43807, Note_on_c, 1, 54, 0
4, 43808, Note_on_c, 1, 55, 80
4, 43823, Note_on_c, 1, 55, 0
4, 43824, Note_on_c, 1, 59, 80
4, 43839, Note_on_c, 1, 59, 0
4, 43840, Note_on_c, 1, 54, 80
4, 43855, Note_on_c, 1, 54, 0
4, 43856, Note_on_c, 1, 55, 80
4, 43871, Note_on_c, 1, 55, 0
4, 43872, Note_on_c, 1, 59, 80
4, 43892, Note_on_c, 1, 59, 0
4, 43968, Note_on_c, 1, 60, 80
4, 43988, Note_on_c, 1, 60, 0
4, 44064, Note_on_c, 1, 53, 80
4, 44076, Note_on_c, 1, 53, 0
4, 44076, Note_on_c, 1, 57, 80
4, 44088, Note_on_c, 1, 57, 0
4, 44088, Note_on_c, 1, 62, 80
4, 44100, Note_on_c, 1, 62, 0
4, 44100, Note_on_c, 1, 65, 80
4, 44112, Note_on_c, 1, 65, 0
4, 44160, Note_on_c, 1, 64, 80
4, 44160, Note_on_c, 1, 55, 80
4, 44256, Note_on_c, 1, 64, 0
4, 44256, Note_on_c, 1, 65, 80
4, 44352, Note_on_c, 1, 65, 0
4, 44352, Note_on_c, 1, 55, 0
4, 44352, Control_c, 1, 64, 127
4, 44352, Note_on_c, 1, 63, 75
4, 44352, Note_on_c, 1, 56, 75
4, 44632, Note_on_c, 1, 63, 0
4, 44632, Note_on_c, 1, 56, 0
4, 44640, Control_c, 1, 64, 0
4, 44664, Note_on_c, 1, 55, 64
4, 44687, Note_on_c, 1, 55, 0
4, 44688, Note_on_c, 1, 47, 64
4, 44711, Note_on_c, 1, 47, 0
4, 44712, Note_on_c, 1, 55, 64
4, 44735, Note_on_c, 1, 55, 0
4, 44736, Note_on_c, 1, 47, 64
4, 44759, Note_on_c, 1, 47, 0
4, 44760, Note_on_c, 1, 55, 64
4, 44783, Note_on_c, 1, 55, 0
4, 44784, Note_on_c, 1, 47, 64
4, 44807, Note_on_c, 1, 47, 0
4, 44808, Note_on_c, 1, 55, 64
4, 44831, Note_on_c, 1, 55, 0
4, 44832, Note_on_c, 1, 47, 64
4, 44855, Note_on_c, 1, 47, 0
4, 44856, Note_on_c, 1, 55, 64
4, 44879, Note_on_c, 1, 55, 0
4, 44880, Note_on_c, 1, 47, 64
4, 44903, Note_on_c, 1, 47, 0
4, 44904, Note_on_c, 1, 55, 64
4, 44927, Note_on_c, 1, 55, 0
4, 44952, Note_on_c, 1, 55, 70
4, 44975, Note_on_c, 1, 55, 0
4, 44976, Note_on_c, 1, 48, 70
4, 44999, Note_on_c, 1, 48, 0
4, 45000, Note_on_c, 1, 55, 70
4, 45023, Note_on_c, 1, 55, 0
4, 45024, Note_on_c, 1, 48, 70
4, 45047, Note_on_c, 1, 48, 0
4, 45048, Note_on_c, 1, 55, 70
4, 45071, Note_on_c, 1, 55, 0
4, 45072, Note_on_c, 1, 48, 70
4, 45095, Note_on_c, 1, 48, 0
4, 45096, Note_on_c, 1, 55, 70
4, 45119, Note_on_c, 1, 55, 0
4, 45120, Note_on_c, 1, 48, 70
4, 45143, Note_on_c, 1, 48, 0
4, 45144, Note_on_c, 1, 55, 70
4, 45167, Note_on_c, 1, 55, 0
4, 45168, Note_on_c, 1, 48, 70
4, 45191, Note_on_c, 1, 48, 0
4, 45192, Note_on_c, 1, 55, 70
4, 45215, Note_on_c, 1, 55, 0
4, 45216, Note_on_c, 1, 53, 80
4, 45312, Note_on_c, 1, 50, 75
4, 45408, Note_on_c, 1, 41, 70
4, 45504, Note_on_c, 1, 53, 0
4, 45504, Note_on_c, 1, 50, 0
4, 45504, Note_on_c, 1, 41, 0
4, 45504, Note_on_c, 1, 52, 70
4, 45504, Note_on_c, 1, 43, 70
4, 45696, Note_on_c, 1, 52, 0
4, 45696, Note_on_c, 1, 50, 64
4, 45792, Note_on_c, 1, 43, 0
4, 45792, Note_on_c, 1, 59, 58
4, 45792, Note_on_c, 1, 53, 58
4, 45792, Note_on_c, 1, 36, 58
4, 46057, Note_on_c, 1, 59, 0
4, 46057, Note_on_c, 1, 53, 0
4, 46057, Note_on_c, 1, 50, 0
4, 46057, Note_on_c, 1, 36, 0
4, 46080, Note_on_c, 1, 36, 58
4, 46086, Note_on_c, 1, 40, 58
4, 46092, Note_on_c, 1, 43, 58
4, 46098, Note_on_c, 1, 48, 58
4, 46104, Note_on_c, 1, 52, 58
4, 46110, Note_on_c, 1, 55, 58
4, 46116, Note_on_c, 1, 59, 58
4, 46122, Note_on_c, 1, 60, 58
4, 46176, Note_on_c, 1, 59, 0
4, 46353, Note_on_c, 1, 60, 0
4, 46353, Note_on_c, 1, 55, 0
4, 46353, Note_on_c, 1, 52, 0
4, 46353, Note_on_c, 1, 48, 0
4, 46353, Note_on_c, 1, 43, 0
4, 46353, Note_on_c, 1, 40, 0
4, 46353, Note_on_c, 1, 36, 0
4, 46368, Note_on_c, 1, 36, 0
4, 46545, Note_on_c, 1, 36, 0
4, 46560, End_track
5, 0, Start_track
5, 0, Program_c, 0, 0
5, 0, Control_c, 0, 7, 127
5, 0, Control_c, 0, 10, 64
5, 16992, Note_on_c, 0, 50, 64
5, 16992, Note_on_c, 0, 46, 64
5, 17081, Note_on_c, 0, 50, 0
5, 17081, Note_on_c, 0, 46, 0
5, 19872, Note_on_c, 0, 50, 64
5, 19872, Note_on_c, 0, 46, 64
5, 19961, Note_on_c, 0, 50, 0
5, 19961, Note_on_c, 0, 46, 0
5, 40236, Note_on_c, 0, 65, 75
5, 40330, Note_on_c, 0, 65, 0
5, 40524, Note_on_c, 0, 67, 75
5, 40618, Note_on_c, 0, 67, 0
5, 46380, End_track
6, 0, Start_track
6, 0, Title_t, "Sonata I   Haydn  "
6, 0, End_track
0, 0, End_of_file
