0, 0, Header, 1, 6, 96
1, 0, Start_track
1, 0, Copyright_t, "Copyright  1994-2002 Mozart Music Software"
1, 0, Text_t, "Sonata I\015\012"
1, 0, Text_t, "Haydn\015\012"
1, 0, Sequencer_specific, 16, 68, 87, 77, 90, 86, 82, 83, 78, 32, 55, 46, 48, 46, 55, 46, 48
1, 0, Time_signature, 3, 2, 24, 8
1, 0, Tempo, 1304347
1, 0, Key_signature, -2, "major"
1, 15552, End_track
2, 0, Start_track
2, 0, Program_c, 0, 0
2, 0, Control_c, 0, 7, 127
2, 0, Control_c, 0, 10, 64
2, 0, Note_on_c, 0, 62, 75
2, 67, Note_on_c, 0, 62, 0
2, 72, Note_on_c, 0, 63, 75
2, 95, Note_on_c, 0, 63, 0
2, 96, Note_on_c, 0, 62, 75
2, 163, Note_on_c, 0, 62, 0
2, 168, Note_on_c, 0, 63, 75
2, 191, Note_on_c, 0, 63, 0
2, 192, Note_on_c, 0, 62, 75
2, 259, Note_on_c, 0, 62, 0
2, 264, Note_on_c, 0, 74, 75
2, 272, Note_on_c, 0, 74, 0
2, 272, Note_on_c, 0, 70, 75
2, 280, Note_on_c, 0, 70, 0
2, 280, Note_on_c, 0, 67, 75
2, 288, Note_on_c, 0, 67, 0
2, 288, Note_on_c, 0, 67, 75
2, 384, Note_on_c, 0, 67, 0
2, 384, Note_on_c, 0, 66, 75
2, 451, Note_on_c, 0, 66, 0
2, 456, Note_on_c, 0, 75, 75
2, 464, Note_on_c, 0, 75, 0
2, 464, Note_on_c, 0, 72, 75
2, 472, Note_on_c, 0, 72, 0
2, 472, Note_on_c, 0, 69, 75
2, 480, Note_on_c, 0, 69, 0
2, 480, Note_on_c, 0, 67, 75
2, 528, Note_on_c, 0, 67, 0
2, 528, Note_on_c, 0, 66, 75
2, 551, Note_on_c, 0, 66, 0
2, 552, Note_on_c, 0, 72, 75
2, 560, Note_on_c, 0, 72, 0
2, 560, Note_on_c, 0, 69, 75
2, 568, Note_on_c, 0, 69, 0
2, 568, Note_on_c, 0, 66, 75
2, 576, Note_on_c, 0, 66, 0
2, 576, Note_on_c, 0, 63, 75
2, 624, Note_on_c, 0, 63, 0
2, 624, Note_on_c, 0, 62, 75
2, 647, Note_on_c, 0, 62, 0
2, 648, Note_on_c, 0, 72, 75
2, 656, Note_on_c, 0, 72, 0
2, 656, Note_on_c, 0, 69, 75
2, 664, Note_on_c, 0, 69, 0
2, 664, Note_on_c, 0, 66, 75
2, 672, Note_on_c, 0, 66, 0
2, 672, Note_on_c, 0, 63, 75
2, 720, Note_on_c, 0, 63, 0
2, 720, Note_on_c, 0, 62, 75
2, 743, Note_on_c, 0, 62, 0
2, 744, Note_on_c, 0, 72, 75
2, 752, Note_on_c, 0, 72, 0
2, 752, Note_on_c, 0, 69, 75
2, 760, Note_on_c, 0, 69, 0
2, 760, Note_on_c, 0, 66, 75
2, 768, Note_on_c, 0, 66, 0
2, 768, Note_on_c, 0, 63, 75
2, 835, Note_on_c, 0, 63, 0
2, 840, Note_on_c, 0, 62, 75
2, 852, Note_on_c, 0, 62, 0
2, 852, Note_on_c, 0, 60, 75
2, 864, Note_on_c, 0, 60, 0
2, 864, Note_on_c, 0, 58, 75
2, 931, Note_on_c, 0, 58, 0
2, 936, Note_on_c, 0, 57, 75
2, 948, Note_on_c, 0, 57, 0
2, 948, Note_on_c, 0, 55, 75
2, 960, Note_on_c, 0, 55, 0
2, 960, Note_on_c, 0, 58, 75
2, 966, Note_on_c, 0, 58, 0
2, 966, Note_on_c, 0, 57, 75
2, 972, Note_on_c, 0, 57, 0
2, 972, Note_on_c, 0, 55, 75
2, 978, Note_on_c, 0, 55, 0
2, 978, Note_on_c, 0, 57, 75
2, 984, Note_on_c, 0, 57, 0
2, 984, Note_on_c, 0, 55, 75
2, 1049, Note_on_c, 0, 55, 0
2, 1152, Note_on_c, 0, 62, 75
2, 1219, Note_on_c, 0, 62, 0
2, 1224, Note_on_c, 0, 63, 75
2, 1247, Note_on_c, 0, 63, 0
2, 1248, Note_on_c, 0, 62, 75
2, 1315, Note_on_c, 0, 62, 0
2, 1320, Note_on_c, 0, 63, 75
2, 1343, Note_on_c, 0, 63, 0
2, 1344, Note_on_c, 0, 62, 75
2, 1411, Note_on_c, 0, 62, 0
2, 1416, Note_on_c, 0, 67, 75
2, 1422, Note_on_c, 0, 67, 0
2, 1422, Note_on_c, 0, 65, 75
2, 1428, Note_on_c, 0, 65, 0
2, 1428, Note_on_c, 0, 63, 75
2, 1434, Note_on_c, 0, 63, 0
2, 1434, Note_on_c, 0, 62, 75
2, 1440, Note_on_c, 0, 62, 0
2, 1440, Note_on_c, 0, 63, 75
2, 1446, Note_on_c, 0, 63, 0
2, 1446, Note_on_c, 0, 65, 75
2, 1452, Note_on_c, 0, 65, 0
2, 1452, Note_on_c, 0, 63, 75
2, 1458, Note_on_c, 0, 63, 0
2, 1458, Note_on_c, 0, 65, 75
2, 1464, Note_on_c, 0, 65, 0
2, 1464, Note_on_c, 0, 63, 75
2, 1470, Note_on_c, 0, 63, 0
2, 1470, Note_on_c, 0, 65, 75
2, 1476, Note_on_c, 0, 65, 0
2, 1476, Note_on_c, 0, 63, 75
2, 1482, Note_on_c, 0, 63, 0
2, 1482, Note_on_c, 0, 65, 75
2, 1488, Note_on_c, 0, 65, 0
2, 1488, Note_on_c, 0, 63, 75
2, 1494, Note_on_c, 0, 63, 0
2, 1494, Note_on_c, 0, 65, 75
2, 1500, Note_on_c, 0, 65, 0
2, 1500, Note_on_c, 0, 63, 75
2, 1506, Note_on_c, 0, 63, 0
2, 1506, Note_on_c, 0, 65, 75
2, 1511, Note_on_c, 0, 65, 0
2, 1511, Note_on_c, 0, 63, 75
2, 1516, Note_on_c, 0, 63, 0
2, 1516, Note_on_c, 0, 62, 75
2, 1526, Note_on_c, 0, 62, 0
2, 1526, Note_on_c, 0, 63, 75
2, 1536, Note_on_c, 0, 63, 0
2, 1536, Note_on_c, 0, 62, 75
2, 1625, Note_on_c, 0, 62, 0
2, 1728, Note_on_c, 0, 79, 91
2, 1728, Note_on_c, 0, 73, 91
2, 1728, Note_on_c, 0, 70, 91
2, 1728, Note_on_c, 0, 67, 91
2, 1752, Note_on_c, 0, 79, 0
2, 1752, Note_on_c, 0, 73, 0
2, 1752, Note_on_c, 0, 70, 0
2, 1752, Note_on_c, 0, 67, 0
2, 1752, Note_on_c, 0, 82, 75
2, 1797, Note_on_c, 0, 82, 0
2, 1800, Note_on_c, 0, 81, 74
2, 1845, Note_on_c, 0, 81, 0
2, 1848, Note_on_c, 0, 79, 73
2, 1893, Note_on_c, 0, 79, 0
2, 1896, Note_on_c, 0, 67, 72
2, 1941, Note_on_c, 0, 67, 0
2, 1944, Note_on_c, 0, 70, 71
2, 1989, Note_on_c, 0, 70, 0
2, 1992, Note_on_c, 0, 73, 70
2, 2015, Note_on_c, 0, 73, 0
2, 2016, Note_on_c, 0, 73, 70
2, 2059, Note_on_c, 0, 73, 0
2, 2064, Note_on_c, 0, 74, 70
2, 2070, Note_on_c, 0, 74, 0
2, 2070, Note_on_c, 0, 73, 70
2, 2076, Note_on_c, 0, 73, 0
2, 2076, Note_on_c, 0, 71, 70
2, 2082, Note_on_c, 0, 71, 0
2, 2082, Note_on_c, 0, 73, 70
2, 2088, Note_on_c, 0, 73, 0
2, 2088, Note_on_c, 0, 74, 70
2, 2111, Note_on_c, 0, 74, 0
2, 2112, Note_on_c, 0, 62, 70
2, 2201, Note_on_c, 0, 62, 0
2, 2304, Note_on_c, 0, 72, 75
2, 2310, Note_on_c, 0, 72, 0
2, 2310, Note_on_c, 0, 70, 75
2, 2316, Note_on_c, 0, 70, 0
2, 2316, Note_on_c, 0, 69, 75
2, 2322, Note_on_c, 0, 69, 0
2, 2322, Note_on_c, 0, 70, 75
2, 2393, Note_on_c, 0, 70, 0
2, 2412, Note_on_c, 0, 70, 75
2, 2417, Note_on_c, 0, 70, 0
2, 2424, Note_on_c, 0, 72, 75
2, 2429, Note_on_c, 0, 72, 0
2, 2436, Note_on_c, 0, 74, 76
2, 2441, Note_on_c, 0, 74, 0
2, 2448, Note_on_c, 0, 75, 77
2, 2453, Note_on_c, 0, 75, 0
2, 2460, Note_on_c, 0, 77, 77
2, 2465, Note_on_c, 0, 77, 0
2, 2472, Note_on_c, 0, 79, 78
2, 2477, Note_on_c, 0, 79, 0
2, 2484, Note_on_c, 0, 81, 79
2, 2489, Note_on_c, 0, 81, 0
2, 2496, Note_on_c, 0, 82, 80
2, 2541, Note_on_c, 0, 82, 0
2, 2592, Note_on_c, 0, 72, 75
2, 2598, Note_on_c, 0, 72, 0
2, 2598, Note_on_c, 0, 70, 75
2, 2604, Note_on_c, 0, 70, 0
2, 2604, Note_on_c, 0, 69, 75
2, 2610, Note_on_c, 0, 69, 0
2, 2610, Note_on_c, 0, 70, 75
2, 2681, Note_on_c, 0, 70, 0
2, 2700, Note_on_c, 0, 70, 75
2, 2705, Note_on_c, 0, 70, 0
2, 2712, Note_on_c, 0, 72, 75
2, 2717, Note_on_c, 0, 72, 0
2, 2724, Note_on_c, 0, 74, 76
2, 2729, Note_on_c, 0, 74, 0
2, 2736, Note_on_c, 0, 75, 77
2, 2741, Note_on_c, 0, 75, 0
2, 2748, Note_on_c, 0, 77, 77
2, 2753, Note_on_c, 0, 77, 0
2, 2760, Note_on_c, 0, 79, 78
2, 2765, Note_on_c, 0, 79, 0
2, 2772, Note_on_c, 0, 81, 79
2, 2777, Note_on_c, 0, 81, 0
2, 2784, Note_on_c, 0, 82, 80
2, 2829, Note_on_c, 0, 82, 0
2, 2880, Note_on_c, 0, 72, 75
2, 2886, Note_on_c, 0, 72, 0
2, 2886, Note_on_c, 0, 70, 75
2, 2892, Note_on_c, 0, 70, 0
2, 2892, Note_on_c, 0, 69, 75
2, 2898, Note_on_c, 0, 69, 0
2, 2898, Note_on_c, 0, 70, 75
2, 2969, Note_on_c, 0, 70, 0
2, 2988, Note_on_c, 0, 70, 75
2, 2993, Note_on_c, 0, 70, 0
2, 3000, Note_on_c, 0, 72, 75
2, 3005, Note_on_c, 0, 72, 0
2, 3012, Note_on_c, 0, 74, 76
2, 3017, Note_on_c, 0, 74, 0
2, 3024, Note_on_c, 0, 75, 77
2, 3029, Note_on_c, 0, 75, 0
2, 3036, Note_on_c, 0, 77, 77
2, 3041, Note_on_c, 0, 77, 0
2, 3048, Note_on_c, 0, 79, 78
2, 3053, Note_on_c, 0, 79, 0
2, 3060, Note_on_c, 0, 81, 79
2, 3065, Note_on_c, 0, 81, 0
2, 3072, Note_on_c, 0, 82, 80
2, 3139, Note_on_c, 0, 82, 0
2, 3144, Note_on_c, 0, 77, 80
2, 3167, Note_on_c, 0, 77, 0
2, 3180, Note_on_c, 0, 77, 80
2, 3186, Note_on_c, 0, 77, 0
2, 3186, Note_on_c, 0, 75, 80
2, 3192, Note_on_c, 0, 75, 0
2, 3192, Note_on_c, 0, 84, 96
2, 3240, Note_on_c, 0, 84, 0
2, 3240, Note_on_c, 0, 82, 80
2, 3252, Note_on_c, 0, 82, 0
2, 3252, Note_on_c, 0, 81, 80
2, 3264, Note_on_c, 0, 81, 0
2, 3276, Note_on_c, 0, 79, 80
2, 3288, Note_on_c, 0, 79, 0
2, 3288, Note_on_c, 0, 77, 80
2, 3311, Note_on_c, 0, 77, 0
2, 3324, Note_on_c, 0, 77, 80
2, 3330, Note_on_c, 0, 77, 0
2, 3330, Note_on_c, 0, 75, 80
2, 3336, Note_on_c, 0, 75, 0
2, 3336, Note_on_c, 0, 84, 96
2, 3384, Note_on_c, 0, 84, 0
2, 3384, Note_on_c, 0, 82, 80
2, 3396, Note_on_c, 0, 82, 0
2, 3396, Note_on_c, 0, 81, 80
2, 3408, Note_on_c, 0, 81, 0
2, 3420, Note_on_c, 0, 77, 80
2, 3432, Note_on_c, 0, 77, 0
2, 3432, Note_on_c, 0, 75, 80
2, 3455, Note_on_c, 0, 75, 0
2, 3468, Note_on_c, 0, 75, 80
2, 3474, Note_on_c, 0, 75, 0
2, 3474, Note_on_c, 0, 74, 80
2, 3480, Note_on_c, 0, 74, 0
2, 3480, Note_on_c, 0, 86, 96
2, 3528, Note_on_c, 0, 86, 0
2, 3528, Note_on_c, 0, 84, 80
2, 3540, Note_on_c, 0, 84, 0
2, 3540, Note_on_c, 0, 82, 80
2, 3552, Note_on_c, 0, 82, 0
2, 3564, Note_on_c, 0, 79, 80
2, 3576, Note_on_c, 0, 79, 0
2, 3576, Note_on_c, 0, 77, 80
2, 3599, Note_on_c, 0, 77, 0
2, 3612, Note_on_c, 0, 75, 80
2, 3618, Note_on_c, 0, 75, 0
2, 3618, Note_on_c, 0, 74, 80
2, 3624, Note_on_c, 0, 74, 0
2, 3624, Note_on_c, 0, 86, 96
2, 3672, Note_on_c, 0, 86, 0
2, 3672, Note_on_c, 0, 84, 80
2, 3684, Note_on_c, 0, 84, 0
2, 3684, Note_on_c, 0, 82, 80
2, 3696, Note_on_c, 0, 82, 0
2, 3708, Note_on_c, 0, 77, 80
2, 3720, Note_on_c, 0, 77, 0
2, 3720, Note_on_c, 0, 74, 80
2, 3743, Note_on_c, 0, 74, 0
2, 3756, Note_on_c, 0, 77, 80
2, 3762, Note_on_c, 0, 77, 0
2, 3762, Note_on_c, 0, 75, 80
2, 3768, Note_on_c, 0, 75, 0
2, 3768, Note_on_c, 0, 84, 96
2, 3816, Note_on_c, 0, 84, 0
2, 3816, Note_on_c, 0, 82, 80
2, 3828, Note_on_c, 0, 82, 0
2, 3828, Note_on_c, 0, 81, 80
2, 3840, Note_on_c, 0, 81, 0
2, 3852, Note_on_c, 0, 79, 80
2, 3864, Note_on_c, 0, 79, 0
2, 3864, Note_on_c, 0, 77, 80
2, 3887, Note_on_c, 0, 77, 0
2, 3900, Note_on_c, 0, 77, 80
2, 3906, Note_on_c, 0, 77, 0
2, 3906, Note_on_c, 0, 75, 80
2, 3912, Note_on_c, 0, 75, 0
2, 3912, Note_on_c, 0, 84, 96
2, 3960, Note_on_c, 0, 84, 0
2, 3960, Note_on_c, 0, 82, 80
2, 3972, Note_on_c, 0, 82, 0
2, 3972, Note_on_c, 0, 81, 80
2, 3984, Note_on_c, 0, 81, 0
2, 3996, Note_on_c, 0, 77, 80
2, 4008, Note_on_c, 0, 77, 0
2, 4008, Note_on_c, 0, 75, 80
2, 4031, Note_on_c, 0, 75, 0
2, 4032, Note_on_c, 0, 74, 80
2, 4042, Note_on_c, 0, 74, 0
2, 4056, Note_on_c, 0, 82, 96
2, 4104, Note_on_c, 0, 82, 0
2, 4104, Note_on_c, 0, 77, 80
2, 4149, Note_on_c, 0, 77, 0
2, 4152, Note_on_c, 0, 74, 81
2, 4197, Note_on_c, 0, 74, 0
2, 4200, Note_on_c, 0, 70, 81
2, 4245, Note_on_c, 0, 70, 0
2, 4248, Note_on_c, 0, 65, 82
2, 4293, Note_on_c, 0, 65, 0
2, 4296, Note_on_c, 0, 66, 83
2, 4319, Note_on_c, 0, 66, 0
2, 4320, Note_on_c, 0, 67, 83
2, 4343, Note_on_c, 0, 67, 0
2, 4344, Note_on_c, 0, 71, 83
2, 4367, Note_on_c, 0, 71, 0
2, 4368, Note_on_c, 0, 72, 84
2, 4391, Note_on_c, 0, 72, 0
2, 4392, Note_on_c, 0, 74, 84
2, 4415, Note_on_c, 0, 74, 0
2, 4416, Note_on_c, 0, 75, 84
2, 4439, Note_on_c, 0, 75, 0
2, 4440, Note_on_c, 0, 76, 85
2, 4463, Note_on_c, 0, 76, 0
2, 4464, Note_on_c, 0, 77, 85
2, 4487, Note_on_c, 0, 77, 0
2, 4488, Note_on_c, 0, 78, 85
2, 4511, Note_on_c, 0, 78, 0
2, 4512, Note_on_c, 0, 79, 86
2, 4557, Note_on_c, 0, 79, 0
2, 4620, Note_on_c, 0, 71, 86
2, 4632, Note_on_c, 0, 71, 0
2, 4632, Note_on_c, 0, 72, 86
2, 4644, Note_on_c, 0, 72, 0
2, 4644, Note_on_c, 0, 74, 86
2, 4656, Note_on_c, 0, 74, 0
2, 4656, Note_on_c, 0, 75, 86
2, 4668, Note_on_c, 0, 75, 0
2, 4668, Note_on_c, 0, 76, 86
2, 4680, Note_on_c, 0, 76, 0
2, 4680, Note_on_c, 0, 77, 86
2, 4692, Note_on_c, 0, 77, 0
2, 4692, Note_on_c, 0, 78, 86
2, 4704, Note_on_c, 0, 78, 0
2, 4704, Note_on_c, 0, 79, 86
2, 4716, Note_on_c, 0, 79, 0
2, 4716, Note_on_c, 0, 77, 86
2, 4728, Note_on_c, 0, 77, 0
2, 4728, Note_on_c, 0, 75, 86
2, 4740, Note_on_c, 0, 75, 0
2, 4740, Note_on_c, 0, 74, 86
2, 4752, Note_on_c, 0, 74, 0
2, 4752, Note_on_c, 0, 72, 86
2, 4764, Note_on_c, 0, 72, 0
2, 4764, Note_on_c, 0, 82, 86
2, 4776, Note_on_c, 0, 82, 0
2, 4776, Note_on_c, 0, 81, 86
2, 4788, Note_on_c, 0, 81, 0
2, 4788, Note_on_c, 0, 82, 86
2, 4800, Note_on_c, 0, 82, 0
2, 4800, Note_on_c, 0, 71, 86
2, 4812, Note_on_c, 0, 71, 0
2, 4812, Note_on_c, 0, 72, 86
2, 4824, Note_on_c, 0, 72, 0
2, 4824, Note_on_c, 0, 78, 86
2, 4836, Note_on_c, 0, 78, 0
2, 4836, Note_on_c, 0, 79, 86
2, 4848, Note_on_c, 0, 79, 0
2, 4848, Note_on_c, 0, 77, 86
2, 4860, Note_on_c, 0, 77, 0
2, 4860, Note_on_c, 0, 75, 84
2, 4872, Note_on_c, 0, 75, 0
2, 4872, Note_on_c, 0, 74, 82
2, 4884, Note_on_c, 0, 74, 0
2, 4884, Note_on_c, 0, 72, 80
2, 4896, Note_on_c, 0, 72, 0
2, 4896, Note_on_c, 0, 70, 80
2, 4963, Note_on_c, 0, 70, 0
2, 4968, Note_on_c, 0, 69, 80
2, 4976, Note_on_c, 0, 69, 0
2, 4976, Note_on_c, 0, 67, 80
2, 4984, Note_on_c, 0, 67, 0
2, 4984, Note_on_c, 0, 65, 80
2, 4992, Note_on_c, 0, 65, 0
2, 4992, Note_on_c, 0, 74, 80
2, 4998, Note_on_c, 0, 74, 0
2, 4998, Note_on_c, 0, 72, 80
2, 5004, Note_on_c, 0, 72, 0
2, 5004, Note_on_c, 0, 74, 80
2, 5010, Note_on_c, 0, 74, 0
2, 5010, Note_on_c, 0, 72, 80
2, 5016, Note_on_c, 0, 72, 0
2, 5016, Note_on_c, 0, 74, 80
2, 5022, Note_on_c, 0, 74, 0
2, 5022, Note_on_c, 0, 72, 80
2, 5028, Note_on_c, 0, 72, 0
2, 5028, Note_on_c, 0, 74, 80
2, 5034, Note_on_c, 0, 74, 0
2, 5034, Note_on_c, 0, 72, 80
2, 5040, Note_on_c, 0, 72, 0
2, 5040, Note_on_c, 0, 74, 80
2, 5046, Note_on_c, 0, 74, 0
2, 5046, Note_on_c, 0, 72, 80
2, 5052, Note_on_c, 0, 72, 0
2, 5052, Note_on_c, 0, 74, 80
2, 5058, Note_on_c, 0, 74, 0
2, 5058, Note_on_c, 0, 72, 80
2, 5064, Note_on_c, 0, 72, 0
2, 5064, Note_on_c, 0, 74, 80
2, 5070, Note_on_c, 0, 74, 0
2, 5070, Note_on_c, 0, 72, 80
2, 5076, Note_on_c, 0, 72, 0
2, 5076, Note_on_c, 0, 74, 80
2, 5082, Note_on_c, 0, 74, 0
2, 5082, Note_on_c, 0, 72, 80
2, 5088, Note_on_c, 0, 72, 0
2, 5088, Note_on_c, 0, 74, 80
2, 5094, Note_on_c, 0, 74, 0
2, 5094, Note_on_c, 0, 72, 80
2, 5100, Note_on_c, 0, 72, 0
2, 5100, Note_on_c, 0, 74, 80
2, 5106, Note_on_c, 0, 74, 0
2, 5106, Note_on_c, 0, 72, 80
2, 5112, Note_on_c, 0, 72, 0
2, 5112, Note_on_c, 0, 74, 80
2, 5118, Note_on_c, 0, 74, 0
2, 5118, Note_on_c, 0, 72, 80
2, 5124, Note_on_c, 0, 72, 0
2, 5124, Note_on_c, 0, 74, 80
2, 5129, Note_on_c, 0, 74, 0
2, 5129, Note_on_c, 0, 72, 80
2, 5134, Note_on_c, 0, 72, 0
2, 5134, Note_on_c, 0, 74, 80
2, 5139, Note_on_c, 0, 74, 0
2, 5139, Note_on_c, 0, 72, 80
2, 5144, Note_on_c, 0, 72, 0
2, 5144, Note_on_c, 0, 74, 80
2, 5149, Note_on_c, 0, 74, 0
2, 5149, Note_on_c, 0, 72, 80
2, 5154, Note_on_c, 0, 72, 0
2, 5154, Note_on_c, 0, 74, 80
2, 5159, Note_on_c, 0, 74, 0
2, 5159, Note_on_c, 0, 72, 80
2, 5164, Note_on_c, 0, 72, 0
2, 5164, Note_on_c, 0, 70, 80
2, 5174, Note_on_c, 0, 70, 0
2, 5174, Note_on_c, 0, 72, 80
2, 5184, Note_on_c, 0, 72, 0
2, 5184, Note_on_c, 0, 70, 80
2, 5207, Note_on_c, 0, 70, 0
2, 5208, Note_on_c, 0, 70, 80
2, 5231, Note_on_c, 0, 70, 0
2, 5232, Note_on_c, 0, 69, 80
2, 5255, Note_on_c, 0, 69, 0
2, 5256, Note_on_c, 0, 72, 80
2, 5279, Note_on_c, 0, 72, 0
2, 5280, Note_on_c, 0, 70, 80
2, 5303, Note_on_c, 0, 70, 0
2, 5304, Note_on_c, 0, 74, 80
2, 5327, Note_on_c, 0, 74, 0
2, 5328, Note_on_c, 0, 72, 80
2, 5351, Note_on_c, 0, 72, 0
2, 5352, Note_on_c, 0, 75, 80
2, 5375, Note_on_c, 0, 75, 0
2, 5376, Note_on_c, 0, 74, 80
2, 5399, Note_on_c, 0, 74, 0
2, 5400, Note_on_c, 0, 79, 80
2, 5400, Note_on_c, 0, 75, 80
2, 5423, Note_on_c, 0, 79, 0
2, 5423, Note_on_c, 0, 75, 0
2, 5424, Note_on_c, 0, 77, 80
2, 5424, Note_on_c, 0, 74, 80
2, 5447, Note_on_c, 0, 77, 0
2, 5447, Note_on_c, 0, 74, 0
2, 5448, Note_on_c, 0, 81, 80
2, 5448, Note_on_c, 0, 72, 80
2, 5471, Note_on_c, 0, 81, 0
2, 5471, Note_on_c, 0, 72, 0
2, 5520, Note_on_c, 0, 84, 70
2, 5526, Note_on_c, 0, 84, 0
2, 5526, Note_on_c, 0, 82, 70
2, 5532, Note_on_c, 0, 82, 0
2, 5532, Note_on_c, 0, 81, 70
2, 5538, Note_on_c, 0, 81, 0
2, 5538, Note_on_c, 0, 82, 70
2, 5565, Note_on_c, 0, 82, 0
2, 5616, Note_on_c, 0, 84, 75
2, 5622, Note_on_c, 0, 84, 0
2, 5622, Note_on_c, 0, 82, 75
2, 5628, Note_on_c, 0, 82, 0
2, 5628, Note_on_c, 0, 81, 75
2, 5634, Note_on_c, 0, 81, 0
2, 5634, Note_on_c, 0, 82, 75
2, 5661, Note_on_c, 0, 82, 0
2, 5712, Note_on_c, 0, 84, 80
2, 5718, Note_on_c, 0, 84, 0
2, 5718, Note_on_c, 0, 82, 80
2, 5724, Note_on_c, 0, 82, 0
2, 5724, Note_on_c, 0, 81, 80
2, 5730, Note_on_c, 0, 81, 0
2, 5730, Note_on_c, 0, 82, 80
2, 5757, Note_on_c, 0, 82, 0
2, 5808, Note_on_c, 0, 82, 86
2, 5853, Note_on_c, 0, 82, 0
2, 5856, Note_on_c, 0, 65, 75
2, 5950, Note_on_c, 0, 65, 0
2, 5952, Note_on_c, 0, 74, 75
2, 5958, Note_on_c, 0, 74, 0
2, 5958, Note_on_c, 0, 72, 75
2, 5964, Note_on_c, 0, 72, 0
2, 5964, Note_on_c, 0, 74, 75
2, 5970, Note_on_c, 0, 74, 0
2, 5970, Note_on_c, 0, 72, 75
2, 5976, Note_on_c, 0, 72, 0
2, 5976, Note_on_c, 0, 74, 75
2, 5982, Note_on_c, 0, 74, 0
2, 5982, Note_on_c, 0, 72, 75
2, 5988, Note_on_c, 0, 72, 0
2, 5988, Note_on_c, 0, 74, 75
2, 5993, Note_on_c, 0, 74, 0
2, 5993, Note_on_c, 0, 72, 75
2, 5998, Note_on_c, 0, 72, 0
2, 5998, Note_on_c, 0, 74, 75
2, 6003, Note_on_c, 0, 74, 0
2, 6003, Note_on_c, 0, 72, 75
2, 6008, Note_on_c, 0, 72, 0
2, 6008, Note_on_c, 0, 74, 75
2, 6013, Note_on_c, 0, 74, 0
2, 6013, Note_on_c, 0, 72, 75
2, 6018, Note_on_c, 0, 72, 0
2, 6018, Note_on_c, 0, 74, 75
2, 6023, Note_on_c, 0, 74, 0
2, 6023, Note_on_c, 0, 72, 75
2, 6028, Note_on_c, 0, 72, 0
2, 6028, Note_on_c, 0, 74, 75
2, 6033, Note_on_c, 0, 74, 0
2, 6033, Note_on_c, 0, 72, 75
2, 6038, Note_on_c, 0, 72, 0
2, 6038, Note_on_c, 0, 70, 75
2, 6043, Note_on_c, 0, 70, 0
2, 6043, Note_on_c, 0, 72, 75
2, 6048, Note_on_c, 0, 72, 0
2, 6048, Note_on_c, 0, 70, 70
2, 6118, Note_on_c, 0, 70, 0
2, 6120, Note_on_c, 0, 77, 70
2, 6128, Note_on_c, 0, 77, 0
2, 6128, Note_on_c, 0, 74, 70
2, 6136, Note_on_c, 0, 74, 0
2, 6136, Note_on_c, 0, 70, 70
2, 6144, Note_on_c, 0, 70, 0
2, 6144, Note_on_c, 0, 65, 70
2, 6263, Note_on_c, 0, 65, 0
2, 6264, Note_on_c, 0, 64, 70
2, 6309, Note_on_c, 0, 64, 0
2, 6312, Note_on_c, 0, 63, 70
2, 6335, Note_on_c, 0, 63, 0
2, 6336, Note_on_c, 0, 63, 70
2, 6359, Note_on_c, 0, 63, 0
2, 6360, Note_on_c, 0, 62, 70
2, 6370, Note_on_c, 0, 62, 0
2, 6408, Note_on_c, 0, 77, 70
2, 6416, Note_on_c, 0, 77, 0
2, 6416, Note_on_c, 0, 74, 70
2, 6424, Note_on_c, 0, 74, 0
2, 6424, Note_on_c, 0, 70, 70
2, 6432, Note_on_c, 0, 70, 0
2, 6432, Note_on_c, 0, 65, 70
2, 6551, Note_on_c, 0, 65, 0
2, 6552, Note_on_c, 0, 64, 70
2, 6597, Note_on_c, 0, 64, 0
2, 6600, Note_on_c, 0, 63, 70
2, 6623, Note_on_c, 0, 63, 0
2, 6624, Note_on_c, 0, 62, 70
2, 6647, Note_on_c, 0, 62, 0
2, 6648, Note_on_c, 0, 63, 70
2, 6671, Note_on_c, 0, 63, 0
2, 6672, Note_on_c, 0, 64, 70
2, 6695, Note_on_c, 0, 64, 0
2, 6696, Note_on_c, 0, 65, 70
2, 6719, Note_on_c, 0, 65, 0
2, 6720, Note_on_c, 0, 66, 70
2, 6754, Note_on_c, 0, 66, 0
2, 6756, Note_on_c, 0, 67, 70
2, 6768, Note_on_c, 0, 67, 0
2, 6768, Note_on_c, 0, 65, 70
2, 6780, Note_on_c, 0, 65, 0
2, 6780, Note_on_c, 0, 63, 70
2, 6792, Note_on_c, 0, 63, 0
2, 6792, Note_on_c, 0, 62, 70
2, 6804, Note_on_c, 0, 62, 0
2, 6804, Note_on_c, 0, 60, 70
2, 6816, Note_on_c, 0, 60, 0
2, 6816, Note_on_c, 0, 58, 70
2, 6861, Note_on_c, 0, 58, 0
2, 6864, Note_on_c, 0, 62, 70
2, 6870, Note_on_c, 0, 62, 0
2, 6870, Note_on_c, 0, 60, 70
2, 6870, Note_on_c, 0, 57, 70
2, 6909, Note_on_c, 0, 60, 0
2, 6909, Note_on_c, 0, 57, 0
2, 6912, Note_on_c, 0, 58, 70
2, 6979, Note_on_c, 0, 58, 0
2, 6984, Note_on_c, 0, 58, 70
2, 6996, Note_on_c, 0, 58, 0
2, 6996, Note_on_c, 0, 60, 70
2, 7008, Note_on_c, 0, 60, 0
2, 7008, Note_on_c, 0, 62, 70
2, 7075, Note_on_c, 0, 62, 0
2, 7080, Note_on_c, 0, 62, 70
2, 7092, Note_on_c, 0, 62, 0
2, 7092, Note_on_c, 0, 63, 70
2, 7104, Note_on_c, 0, 63, 0
2, 7104, Note_on_c, 0, 65, 70
2, 7171, Note_on_c, 0, 65, 0
2, 7176, Note_on_c, 0, 65, 70
2, 7184, Note_on_c, 0, 65, 0
2, 7184, Note_on_c, 0, 67, 70
2, 7192, Note_on_c, 0, 67, 0
2, 7192, Note_on_c, 0, 69, 70
2, 7200, Note_on_c, 0, 69, 0
2, 7200, Note_on_c, 0, 70, 70
2, 7289, Note_on_c, 0, 70, 0
2, 7296, Note_on_c, 0, 60, 70
2, 7302, Note_on_c, 0, 60, 0
2, 7302, Note_on_c, 0, 58, 70
2, 7308, Note_on_c, 0, 58, 0
2, 7308, Note_on_c, 0, 57, 70
2, 7314, Note_on_c, 0, 57, 0
2, 7314, Note_on_c, 0, 58, 70
2, 7385, Note_on_c, 0, 58, 0
2, 7488, Note_on_c, 0, 65, 75
2, 7555, Note_on_c, 0, 65, 0
2, 7560, Note_on_c, 0, 67, 75
2, 7583, Note_on_c, 0, 67, 0
2, 7584, Note_on_c, 0, 65, 75
2, 7651, Note_on_c, 0, 65, 0
2, 7656, Note_on_c, 0, 67, 75
2, 7679, Note_on_c, 0, 67, 0
2, 7680, Note_on_c, 0, 65, 75
2, 7747, Note_on_c, 0, 65, 0
2, 7752, Note_on_c, 0, 77, 75
2, 7760, Note_on_c, 0, 77, 0
2, 7760, Note_on_c, 0, 74, 75
2, 7768, Note_on_c, 0, 74, 0
2, 7768, Note_on_c, 0, 70, 75
2, 7776, Note_on_c, 0, 70, 0
2, 7776, Note_on_c, 0, 70, 75
2, 7872, Note_on_c, 0, 70, 0
2, 7872, Note_on_c, 0, 69, 75
2, 7939, Note_on_c, 0, 69, 0
2, 7944, Note_on_c, 0, 79, 75
2, 7952, Note_on_c, 0, 79, 0
2, 7952, Note_on_c, 0, 75, 75
2, 7960, Note_on_c, 0, 75, 0
2, 7960, Note_on_c, 0, 72, 75
2, 7968, Note_on_c, 0, 72, 0
2, 7968, Note_on_c, 0, 70, 75
2, 8016, Note_on_c, 0, 70, 0
2, 8016, Note_on_c, 0, 69, 75
2, 8039, Note_on_c, 0, 69, 0
2, 8040, Note_on_c, 0, 75, 75
2, 8048, Note_on_c, 0, 75, 0
2, 8048, Note_on_c, 0, 72, 75
2, 8056, Note_on_c, 0, 72, 0
2, 8056, Note_on_c, 0, 69, 75
2, 8064, Note_on_c, 0, 69, 0
2, 8064, Note_on_c, 0, 67, 75
2, 8112, Note_on_c, 0, 67, 0
2, 8112, Note_on_c, 0, 65, 75
2, 8135, Note_on_c, 0, 65, 0
2, 8136, Note_on_c, 0, 75, 75
2, 8144, Note_on_c, 0, 75, 0
2, 8144, Note_on_c, 0, 72, 75
2, 8152, Note_on_c, 0, 72, 0
2, 8152, Note_on_c, 0, 69, 75
2, 8160, Note_on_c, 0, 69, 0
2, 8160, Note_on_c, 0, 67, 75
2, 8208, Note_on_c, 0, 67, 0
2, 8208, Note_on_c, 0, 65, 75
2, 8231, Note_on_c, 0, 65, 0
2, 8232, Note_on_c, 0, 75, 75
2, 8240, Note_on_c, 0, 75, 0
2, 8240, Note_on_c, 0, 72, 75
2, 8248, Note_on_c, 0, 72, 0
2, 8248, Note_on_c, 0, 69, 75
2, 8256, Note_on_c, 0, 69, 0
2, 8256, Note_on_c, 0, 67, 75
2, 8323, Note_on_c, 0, 67, 0
2, 8328, Note_on_c, 0, 65, 75
2, 8340, Note_on_c, 0, 65, 0
2, 8340, Note_on_c, 0, 63, 75
2, 8352, Note_on_c, 0, 63, 0
2, 8352, Note_on_c, 0, 63, 75
2, 8419, Note_on_c, 0, 63, 0
2, 8424, Note_on_c, 0, 62, 75
2, 8436, Note_on_c, 0, 62, 0
2, 8436, Note_on_c, 0, 60, 75
2, 8448, Note_on_c, 0, 60, 0
2, 8448, Note_on_c, 0, 62, 75
2, 8454, Note_on_c, 0, 62, 0
2, 8454, Note_on_c, 0, 60, 75
2, 8460, Note_on_c, 0, 60, 0
2, 8460, Note_on_c, 0, 58, 75
2, 8466, Note_on_c, 0, 58, 0
2, 8466, Note_on_c, 0, 60, 75
2, 8472, Note_on_c, 0, 60, 0
2, 8472, Note_on_c, 0, 58, 75
2, 8537, Note_on_c, 0, 58, 0
2, 8640, Note_on_c, 0, 65, 75
2, 8707, Note_on_c, 0, 65, 0
2, 8712, Note_on_c, 0, 68, 75
2, 8724, Note_on_c, 0, 68, 0
2, 8724, Note_on_c, 0, 67, 75
2, 8736, Note_on_c, 0, 67, 0
2, 8736, Note_on_c, 0, 65, 75
2, 8746, Note_on_c, 0, 65, 0
2, 8760, Note_on_c, 0, 77, 91
2, 8808, Note_on_c, 0, 77, 0
2, 8808, Note_on_c, 0, 74, 75
2, 8853, Note_on_c, 0, 74, 0
2, 8856, Note_on_c, 0, 71, 75
2, 8901, Note_on_c, 0, 71, 0
2, 8904, Note_on_c, 0, 68, 75
2, 8927, Note_on_c, 0, 68, 0
2, 8928, Note_on_c, 0, 65, 75
2, 8995, Note_on_c, 0, 65, 0
2, 9000, Note_on_c, 0, 68, 75
2, 9012, Note_on_c, 0, 68, 0
2, 9012, Note_on_c, 0, 67, 75
2, 9024, Note_on_c, 0, 67, 0
2, 9024, Note_on_c, 0, 65, 75
2, 9034, Note_on_c, 0, 65, 0
2, 9048, Note_on_c, 0, 80, 75
2, 9071, Note_on_c, 0, 80, 0
2, 9072, Note_on_c, 0, 77, 75
2, 9095, Note_on_c, 0, 77, 0
2, 9096, Note_on_c, 0, 74, 75
2, 9119, Note_on_c, 0, 74, 0
2, 9120, Note_on_c, 0, 71, 75
2, 9143, Note_on_c, 0, 71, 0
2, 9144, Note_on_c, 0, 68, 75
2, 9167, Note_on_c, 0, 68, 0
2, 9168, Note_on_c, 0, 67, 75
2, 9191, Note_on_c, 0, 67, 0
2, 9192, Note_on_c, 0, 65, 75
2, 9215, Note_on_c, 0, 65, 0
2, 9216, Note_on_c, 0, 63, 75
2, 9239, Note_on_c, 0, 63, 0
2, 9240, Note_on_c, 0, 64, 75
2, 9263, Note_on_c, 0, 64, 0
2, 9264, Note_on_c, 0, 65, 76
2, 9287, Note_on_c, 0, 65, 0
2, 9288, Note_on_c, 0, 66, 76
2, 9311, Note_on_c, 0, 66, 0
2, 9312, Note_on_c, 0, 67, 77
2, 9431, Note_on_c, 0, 67, 0
2, 9432, Note_on_c, 0, 68, 78
2, 9455, Note_on_c, 0, 68, 0
2, 9456, Note_on_c, 0, 67, 77
2, 9479, Note_on_c, 0, 67, 0
2, 9480, Note_on_c, 0, 65, 76
2, 9503, Note_on_c, 0, 65, 0
2, 9504, Note_on_c, 0, 63, 75
2, 9527, Note_on_c, 0, 63, 0
2, 9528, Note_on_c, 0, 64, 75
2, 9551, Note_on_c, 0, 64, 0
2, 9552, Note_on_c, 0, 65, 76
2, 9575, Note_on_c, 0, 65, 0
2, 9576, Note_on_c, 0, 66, 76
2, 9599, Note_on_c, 0, 66, 0
2, 9600, Note_on_c, 0, 67, 77
2, 9719, Note_on_c, 0, 67, 0
2, 9720, Note_on_c, 0, 68, 78
2, 9743, Note_on_c, 0, 68, 0
2, 9744, Note_on_c, 0, 67, 77
2, 9767, Note_on_c, 0, 67, 0
2, 9768, Note_on_c, 0, 65, 76
2, 9791, Note_on_c, 0, 65, 0
2, 9792, Note_on_c, 0, 64, 75
2, 9815, Note_on_c, 0, 64, 0
2, 9816, Note_on_c, 0, 65, 75
2, 9839, Note_on_c, 0, 65, 0
2, 9840, Note_on_c, 0, 67, 76
2, 9863, Note_on_c, 0, 67, 0
2, 9864, Note_on_c, 0, 68, 76
2, 9887, Note_on_c, 0, 68, 0
2, 9888, Note_on_c, 0, 70, 77
2, 10007, Note_on_c, 0, 70, 0
2, 10008, Note_on_c, 0, 73, 78
2, 10031, Note_on_c, 0, 73, 0
2, 10032, Note_on_c, 0, 72, 77
2, 10055, Note_on_c, 0, 72, 0
2, 10056, Note_on_c, 0, 70, 76
2, 10079, Note_on_c, 0, 70, 0
2, 10080, Note_on_c, 0, 68, 75
2, 10103, Note_on_c, 0, 68, 0
2, 10104, Note_on_c, 0, 69, 75
2, 10127, Note_on_c, 0, 69, 0
2, 10128, Note_on_c, 0, 70, 76
2, 10151, Note_on_c, 0, 70, 0
2, 10152, Note_on_c, 0, 71, 76
2, 10175, Note_on_c, 0, 71, 0
2, 10176, Note_on_c, 0, 72, 77
2, 10295, Note_on_c, 0, 72, 0
2, 10296, Note_on_c, 0, 75, 78
2, 10319, Note_on_c, 0, 75, 0
2, 10320, Note_on_c, 0, 74, 77
2, 10343, Note_on_c, 0, 74, 0
2, 10344, Note_on_c, 0, 72, 76
2, 10367, Note_on_c, 0, 72, 0
2, 10368, Note_on_c, 0, 70, 75
2, 10368, Note_on_c, 0, 67, 75
2, 10457, Note_on_c, 0, 70, 0
2, 10457, Note_on_c, 0, 67, 0
2, 10464, Note_on_c, 0, 79, 77
2, 10464, Note_on_c, 0, 70, 77
2, 10553, Note_on_c, 0, 79, 0
2, 10553, Note_on_c, 0, 70, 0
2, 10560, Note_on_c, 0, 82, 80
2, 10560, Note_on_c, 0, 79, 80
2, 10627, Note_on_c, 0, 82, 0
2, 10627, Note_on_c, 0, 79, 0
2, 10632, Note_on_c, 0, 70, 80
2, 10632, Note_on_c, 0, 67, 80
2, 10655, Note_on_c, 0, 70, 0
2, 10655, Note_on_c, 0, 67, 0
2, 10656, Note_on_c, 0, 72, 79
2, 10662, Note_on_c, 0, 72, 0
2, 10662, Note_on_c, 0, 70, 79
2, 10668, Note_on_c, 0, 70, 0
2, 10668, Note_on_c, 0, 69, 79
2, 10674, Note_on_c, 0, 69, 0
2, 10674, Note_on_c, 0, 70, 79
2, 10745, Note_on_c, 0, 70, 0
2, 10752, Note_on_c, 0, 69, 75
2, 10752, Note_on_c, 0, 66, 75
2, 10841, Note_on_c, 0, 69, 0
2, 10841, Note_on_c, 0, 66, 0
2, 10944, Note_on_c, 0, 69, 75
2, 10950, Note_on_c, 0, 69, 0
2, 10950, Note_on_c, 0, 67, 75
2, 10956, Note_on_c, 0, 67, 0
2, 10956, Note_on_c, 0, 66, 75
2, 10962, Note_on_c, 0, 66, 0
2, 10962, Note_on_c, 0, 67, 75
2, 11033, Note_on_c, 0, 67, 0
2, 11052, Note_on_c, 0, 62, 75
2, 11064, Note_on_c, 0, 62, 0
2, 11064, Note_on_c, 0, 64, 75
2, 11076, Note_on_c, 0, 64, 0
2, 11076, Note_on_c, 0, 66, 75
2, 11088, Note_on_c, 0, 66, 0
2, 11088, Note_on_c, 0, 67, 75
2, 11100, Note_on_c, 0, 67, 0
2, 11100, Note_on_c, 0, 69, 76
2, 11112, Note_on_c, 0, 69, 0
2, 11112, Note_on_c, 0, 70, 76
2, 11124, Note_on_c, 0, 70, 0
2, 11124, Note_on_c, 0, 72, 76
2, 11136, Note_on_c, 0, 72, 0
2, 11136, Note_on_c, 0, 74, 76
2, 11148, Note_on_c, 0, 74, 0
2, 11148, Note_on_c, 0, 76, 77
2, 11160, Note_on_c, 0, 76, 0
2, 11160, Note_on_c, 0, 78, 77
2, 11172, Note_on_c, 0, 78, 0
2, 11172, Note_on_c, 0, 79, 77
2, 11184, Note_on_c, 0, 79, 0
2, 11184, Note_on_c, 0, 81, 77
2, 11196, Note_on_c, 0, 81, 0
2, 11196, Note_on_c, 0, 82, 78
2, 11208, Note_on_c, 0, 82, 0
2, 11208, Note_on_c, 0, 84, 78
2, 11220, Note_on_c, 0, 84, 0
2, 11220, Note_on_c, 0, 86, 78
2, 11232, Note_on_c, 0, 86, 0
2, 11232, Note_on_c, 0, 84, 78
2, 11340, Note_on_c, 0, 84, 0
2, 11340, Note_on_c, 0, 82, 78
2, 11352, Note_on_c, 0, 82, 0
2, 11352, Note_on_c, 0, 81, 78
2, 11375, Note_on_c, 0, 81, 0
2, 11388, Note_on_c, 0, 79, 77
2, 11400, Note_on_c, 0, 79, 0
2, 11400, Note_on_c, 0, 78, 77
2, 11423, Note_on_c, 0, 78, 0
2, 11436, Note_on_c, 0, 75, 76
2, 11448, Note_on_c, 0, 75, 0
2, 11448, Note_on_c, 0, 74, 76
2, 11471, Note_on_c, 0, 74, 0
2, 11484, Note_on_c, 0, 72, 75
2, 11496, Note_on_c, 0, 72, 0
2, 11496, Note_on_c, 0, 69, 75
2, 11519, Note_on_c, 0, 69, 0
2, 11520, Note_on_c, 0, 70, 75
2, 11568, Note_on_c, 0, 70, 0
2, 11568, Note_on_c, 0, 67, 75
2, 11613, Note_on_c, 0, 67, 0
2, 11628, Note_on_c, 0, 62, 75
2, 11640, Note_on_c, 0, 62, 0
2, 11640, Note_on_c, 0, 64, 75
2, 11652, Note_on_c, 0, 64, 0
2, 11652, Note_on_c, 0, 66, 75
2, 11664, Note_on_c, 0, 66, 0
2, 11664, Note_on_c, 0, 67, 75
2, 11676, Note_on_c, 0, 67, 0
2, 11676, Note_on_c, 0, 69, 76
2, 11688, Note_on_c, 0, 69, 0
2, 11688, Note_on_c, 0, 70, 76
2, 11700, Note_on_c, 0, 70, 0
2, 11700, Note_on_c, 0, 72, 76
2, 11712, Note_on_c, 0, 72, 0
2, 11712, Note_on_c, 0, 74, 76
2, 11724, Note_on_c, 0, 74, 0
2, 11724, Note_on_c, 0, 76, 77
2, 11736, Note_on_c, 0, 76, 0
2, 11736, Note_on_c, 0, 78, 77
2, 11748, Note_on_c, 0, 78, 0
2, 11748, Note_on_c, 0, 79, 77
2, 11760, Note_on_c, 0, 79, 0
2, 11760, Note_on_c, 0, 81, 77
2, 11772, Note_on_c, 0, 81, 0
2, 11772, Note_on_c, 0, 82, 78
2, 11784, Note_on_c, 0, 82, 0
2, 11784, Note_on_c, 0, 84, 78
2, 11796, Note_on_c, 0, 84, 0
2, 11796, Note_on_c, 0, 86, 78
2, 11808, Note_on_c, 0, 86, 0
2, 11808, Note_on_c, 0, 84, 78
2, 11916, Note_on_c, 0, 84, 0
2, 11916, Note_on_c, 0, 82, 78
2, 11928, Note_on_c, 0, 82, 0
2, 11928, Note_on_c, 0, 81, 78
2, 11951, Note_on_c, 0, 81, 0
2, 11964, Note_on_c, 0, 79, 77
2, 11976, Note_on_c, 0, 79, 0
2, 11976, Note_on_c, 0, 78, 77
2, 11999, Note_on_c, 0, 78, 0
2, 12012, Note_on_c, 0, 75, 76
2, 12024, Note_on_c, 0, 75, 0
2, 12024, Note_on_c, 0, 74, 76
2, 12047, Note_on_c, 0, 74, 0
2, 12060, Note_on_c, 0, 72, 75
2, 12072, Note_on_c, 0, 72, 0
2, 12072, Note_on_c, 0, 69, 75
2, 12095, Note_on_c, 0, 69, 0
2, 12096, Note_on_c, 0, 70, 75
2, 12106, Note_on_c, 0, 70, 0
2, 12120, Note_on_c, 0, 79, 91
2, 12168, Note_on_c, 0, 79, 0
2, 12168, Note_on_c, 0, 74, 75
2, 12213, Note_on_c, 0, 74, 0
2, 12216, Note_on_c, 0, 70, 75
2, 12261, Note_on_c, 0, 70, 0
2, 12264, Note_on_c, 0, 67, 75
2, 12309, Note_on_c, 0, 67, 0
2, 12312, Note_on_c, 0, 62, 75
2, 12357, Note_on_c, 0, 62, 0
2, 12360, Note_on_c, 0, 62, 75
2, 12383, Note_on_c, 0, 62, 0
2, 12384, Note_on_c, 0, 63, 75
2, 12407, Note_on_c, 0, 63, 0
2, 12408, Note_on_c, 0, 66, 75
2, 12453, Note_on_c, 0, 66, 0
2, 12456, Note_on_c, 0, 69, 77
2, 12501, Note_on_c, 0, 69, 0
2, 12504, Note_on_c, 0, 72, 78
2, 12549, Note_on_c, 0, 72, 0
2, 12552, Note_on_c, 0, 75, 80
2, 12599, Note_on_c, 0, 75, 0
2, 12600, Note_on_c, 0, 66, 78
2, 12623, Note_on_c, 0, 66, 0
2, 12624, Note_on_c, 0, 66, 77
2, 12647, Note_on_c, 0, 66, 0
2, 12648, Note_on_c, 0, 66, 76
2, 12671, Note_on_c, 0, 66, 0
2, 12672, Note_on_c, 0, 67, 75
2, 12695, Note_on_c, 0, 67, 0
2, 12696, Note_on_c, 0, 78, 75
2, 12720, Note_on_c, 0, 78, 0
2, 12720, Note_on_c, 0, 79, 75
2, 12730, Note_on_c, 0, 79, 0
2, 12744, Note_on_c, 0, 74, 75
2, 12768, Note_on_c, 0, 74, 0
2, 12768, Note_on_c, 0, 75, 75
2, 12778, Note_on_c, 0, 75, 0
2, 12792, Note_on_c, 0, 73, 75
2, 12816, Note_on_c, 0, 73, 0
2, 12816, Note_on_c, 0, 74, 75
2, 12826, Note_on_c, 0, 74, 0
2, 12840, Note_on_c, 0, 69, 75
2, 12864, Note_on_c, 0, 69, 0
2, 12864, Note_on_c, 0, 70, 75
2, 12874, Note_on_c, 0, 70, 0
2, 12888, Note_on_c, 0, 66, 75
2, 12912, Note_on_c, 0, 66, 0
2, 12912, Note_on_c, 0, 67, 75
2, 12935, Note_on_c, 0, 67, 0
2, 12936, Note_on_c, 0, 61, 75
2, 12960, Note_on_c, 0, 61, 0
2, 12960, Note_on_c, 0, 62, 75
2, 13049, Note_on_c, 0, 62, 0
2, 13056, Note_on_c, 0, 70, 75
2, 13062, Note_on_c, 0, 70, 0
2, 13062, Note_on_c, 0, 69, 75
2, 13068, Note_on_c, 0, 69, 0
2, 13068, Note_on_c, 0, 70, 75
2, 13074, Note_on_c, 0, 70, 0
2, 13074, Note_on_c, 0, 69, 75
2, 13080, Note_on_c, 0, 69, 0
2, 13080, Note_on_c, 0, 70, 75
2, 13086, Note_on_c, 0, 70, 0
2, 13086, Note_on_c, 0, 69, 75
2, 13092, Note_on_c, 0, 69, 0
2, 13092, Note_on_c, 0, 70, 75
2, 13098, Note_on_c, 0, 70, 0
2, 13098, Note_on_c, 0, 69, 75
2, 13104, Note_on_c, 0, 69, 0
2, 13104, Note_on_c, 0, 70, 75
2, 13110, Note_on_c, 0, 70, 0
2, 13110, Note_on_c, 0, 69, 75
2, 13116, Note_on_c, 0, 69, 0
2, 13116, Note_on_c, 0, 70, 75
2, 13122, Note_on_c, 0, 70, 0
2, 13122, Note_on_c, 0, 69, 75
2, 13128, Note_on_c, 0, 69, 0
2, 13128, Note_on_c, 0, 70, 75
2, 13134, Note_on_c, 0, 70, 0
2, 13134, Note_on_c, 0, 69, 75
2, 13140, Note_on_c, 0, 69, 0
2, 13140, Note_on_c, 0, 70, 75
2, 13146, Note_on_c, 0, 70, 0
2, 13146, Note_on_c, 0, 69, 75
2, 13152, Note_on_c, 0, 69, 0
2, 13152, Note_on_c, 0, 70, 75
2, 13158, Note_on_c, 0, 70, 0
2, 13158, Note_on_c, 0, 69, 75
2, 13164, Note_on_c, 0, 69, 0
2, 13164, Note_on_c, 0, 70, 75
2, 13170, Note_on_c, 0, 70, 0
2, 13170, Note_on_c, 0, 69, 75
2, 13176, Note_on_c, 0, 69, 0
2, 13176, Note_on_c, 0, 70, 75
2, 13182, Note_on_c, 0, 70, 0
2, 13182, Note_on_c, 0, 69, 75
2, 13188, Note_on_c, 0, 69, 0
2, 13188, Note_on_c, 0, 70, 75
2, 13193, Note_on_c, 0, 70, 0
2, 13193, Note_on_c, 0, 69, 75
2, 13198, Note_on_c, 0, 69, 0
2, 13198, Note_on_c, 0, 70, 75
2, 13203, Note_on_c, 0, 70, 0
2, 13203, Note_on_c, 0, 69, 75
2, 13208, Note_on_c, 0, 69, 0
2, 13208, Note_on_c, 0, 70, 75
2, 13213, Note_on_c, 0, 70, 0
2, 13213, Note_on_c, 0, 69, 75
2, 13218, Note_on_c, 0, 69, 0
2, 13218, Note_on_c, 0, 70, 75
2, 13223, Note_on_c, 0, 70, 0
2, 13223, Note_on_c, 0, 69, 75
2, 13228, Note_on_c, 0, 69, 0
2, 13228, Note_on_c, 0, 67, 75
2, 13238, Note_on_c, 0, 67, 0
2, 13238, Note_on_c, 0, 69, 75
2, 13248, Note_on_c, 0, 69, 0
2, 13248, Note_on_c, 0, 67, 75
2, 13271, Note_on_c, 0, 67, 0
2, 13272, Note_on_c, 0, 67, 75
2, 13295, Note_on_c, 0, 67, 0
2, 13296, Note_on_c, 0, 66, 75
2, 13319, Note_on_c, 0, 66, 0
2, 13320, Note_on_c, 0, 69, 75
2, 13343, Note_on_c, 0, 69, 0
2, 13344, Note_on_c, 0, 67, 75
2, 13367, Note_on_c, 0, 67, 0
2, 13368, Note_on_c, 0, 70, 75
2, 13391, Note_on_c, 0, 70, 0
2, 13392, Note_on_c, 0, 69, 75
2, 13415, Note_on_c, 0, 69, 0
2, 13416, Note_on_c, 0, 72, 75
2, 13439, Note_on_c, 0, 72, 0
2, 13440, Note_on_c, 0, 70, 75
2, 13463, Note_on_c, 0, 70, 0
2, 13464, Note_on_c, 0, 75, 75
2, 13464, Note_on_c, 0, 72, 75
2, 13487, Note_on_c, 0, 75, 0
2, 13487, Note_on_c, 0, 72, 0
2, 13488, Note_on_c, 0, 74, 75
2, 13488, Note_on_c, 0, 70, 75
2, 13511, Note_on_c, 0, 74, 0
2, 13511, Note_on_c, 0, 70, 0
2, 13512, Note_on_c, 0, 78, 75
2, 13512, Note_on_c, 0, 69, 75
2, 13535, Note_on_c, 0, 78, 0
2, 13535, Note_on_c, 0, 69, 0
2, 13584, Note_on_c, 0, 81, 64
2, 13590, Note_on_c, 0, 81, 0
2, 13590, Note_on_c, 0, 79, 64
2, 13596, Note_on_c, 0, 79, 0
2, 13596, Note_on_c, 0, 78, 64
2, 13602, Note_on_c, 0, 78, 0
2, 13602, Note_on_c, 0, 79, 64
2, 13629, Note_on_c, 0, 79, 0
2, 13680, Note_on_c, 0, 81, 75
2, 13686, Note_on_c, 0, 81, 0
2, 13686, Note_on_c, 0, 79, 75
2, 13692, Note_on_c, 0, 79, 0
2, 13692, Note_on_c, 0, 78, 75
2, 13698, Note_on_c, 0, 78, 0
2, 13698, Note_on_c, 0, 79, 75
2, 13725, Note_on_c, 0, 79, 0
2, 13776, Note_on_c, 0, 81, 80
2, 13782, Note_on_c, 0, 81, 0
2, 13782, Note_on_c, 0, 79, 80
2, 13788, Note_on_c, 0, 79, 0
2, 13788, Note_on_c, 0, 78, 80
2, 13794, Note_on_c, 0, 78, 0
2, 13794, Note_on_c, 0, 79, 80
2, 13821, Note_on_c, 0, 79, 0
2, 13872, Note_on_c, 0, 79, 86
2, 13917, Note_on_c, 0, 79, 0
2, 13920, Note_on_c, 0, 62, 75
2, 14014, Note_on_c, 0, 62, 0
2, 14016, Note_on_c, 0, 70, 75
2, 14022, Note_on_c, 0, 70, 0
2, 14022, Note_on_c, 0, 69, 75
2, 14028, Note_on_c, 0, 69, 0
2, 14028, Note_on_c, 0, 70, 75
2, 14034, Note_on_c, 0, 70, 0
2, 14034, Note_on_c, 0, 69, 75
2, 14040, Note_on_c, 0, 69, 0
2, 14040, Note_on_c, 0, 70, 75
2, 14046, Note_on_c, 0, 70, 0
2, 14046, Note_on_c, 0, 69, 75
2, 14052, Note_on_c, 0, 69, 0
2, 14052, Note_on_c, 0, 70, 75
2, 14057, Note_on_c, 0, 70, 0
2, 14057, Note_on_c, 0, 69, 75
2, 14062, Note_on_c, 0, 69, 0
2, 14062, Note_on_c, 0, 70, 75
2, 14067, Note_on_c, 0, 70, 0
2, 14067, Note_on_c, 0, 69, 75
2, 14072, Note_on_c, 0, 69, 0
2, 14072, Note_on_c, 0, 70, 75
2, 14077, Note_on_c, 0, 70, 0
2, 14077, Note_on_c, 0, 69, 75
2, 14082, Note_on_c, 0, 69, 0
2, 14082, Note_on_c, 0, 70, 75
2, 14087, Note_on_c, 0, 70, 0
2, 14087, Note_on_c, 0, 69, 75
2, 14092, Note_on_c, 0, 69, 0
2, 14092, Note_on_c, 0, 70, 75
2, 14097, Note_on_c, 0, 70, 0
2, 14097, Note_on_c, 0, 69, 75
2, 14102, Note_on_c, 0, 69, 0
2, 14102, Note_on_c, 0, 67, 75
2, 14107, Note_on_c, 0, 67, 0
2, 14107, Note_on_c, 0, 69, 75
2, 14112, Note_on_c, 0, 69, 0
2, 14112, Note_on_c, 0, 67, 70
2, 14182, Note_on_c, 0, 67, 0
2, 14184, Note_on_c, 0, 74, 70
2, 14192, Note_on_c, 0, 74, 0
2, 14192, Note_on_c, 0, 70, 70
2, 14200, Note_on_c, 0, 70, 0
2, 14200, Note_on_c, 0, 67, 70
2, 14208, Note_on_c, 0, 67, 0
2, 14208, Note_on_c, 0, 62, 70
2, 14327, Note_on_c, 0, 62, 0
2, 14328, Note_on_c, 0, 61, 70
2, 14373, Note_on_c, 0, 61, 0
2, 14376, Note_on_c, 0, 60, 70
2, 14423, Note_on_c, 0, 60, 0
2, 14424, Note_on_c, 0, 58, 70
2, 14434, Note_on_c, 0, 58, 0
2, 14472, Note_on_c, 0, 74, 70
2, 14480, Note_on_c, 0, 74, 0
2, 14480, Note_on_c, 0, 70, 70
2, 14488, Note_on_c, 0, 70, 0
2, 14488, Note_on_c, 0, 67, 70
2, 14496, Note_on_c, 0, 67, 0
2, 14496, Note_on_c, 0, 62, 70
2, 14615, Note_on_c, 0, 62, 0
2, 14616, Note_on_c, 0, 61, 70
2, 14661, Note_on_c, 0, 61, 0
2, 14664, Note_on_c, 0, 60, 70
2, 14687, Note_on_c, 0, 60, 0
2, 14688, Note_on_c, 0, 58, 70
2, 14711, Note_on_c, 0, 58, 0
2, 14712, Note_on_c, 0, 60, 71
2, 14735, Note_on_c, 0, 60, 0
2, 14736, Note_on_c, 0, 61, 72
2, 14759, Note_on_c, 0, 61, 0
2, 14760, Note_on_c, 0, 62, 73
2, 14783, Note_on_c, 0, 62, 0
2, 14784, Note_on_c, 0, 63, 75
2, 14829, Note_on_c, 0, 63, 0
2, 14832, Note_on_c, 0, 62, 72
2, 14844, Note_on_c, 0, 62, 0
2, 14844, Note_on_c, 0, 60, 71
2, 14856, Note_on_c, 0, 60, 0
2, 14856, Note_on_c, 0, 58, 71
2, 14868, Note_on_c, 0, 58, 0
2, 14868, Note_on_c, 0, 57, 70
2, 14880, Note_on_c, 0, 57, 0
2, 14880, Note_on_c, 0, 55, 70
2, 14925, Note_on_c, 0, 55, 0
2, 14928, Note_on_c, 0, 57, 70
2, 14934, Note_on_c, 0, 57, 0
2, 14934, Note_on_c, 0, 58, 70
2, 14940, Note_on_c, 0, 58, 0
2, 14940, Note_on_c, 0, 57, 70
2, 14946, Note_on_c, 0, 57, 0
2, 14946, Note_on_c, 0, 58, 70
2, 14951, Note_on_c, 0, 58, 0
2, 14951, Note_on_c, 0, 57, 70
2, 14956, Note_on_c, 0, 57, 0
2, 14956, Note_on_c, 0, 58, 70
2, 14961, Note_on_c, 0, 58, 0
2, 14961, Note_on_c, 0, 57, 70
2, 14966, Note_on_c, 0, 57, 0
2, 14966, Note_on_c, 0, 55, 70
2, 14971, Note_on_c, 0, 55, 0
2, 14971, Note_on_c, 0, 57, 70
2, 14976, Note_on_c, 0, 57, 0
2, 14976, Note_on_c, 0, 55, 70
2, 15043, Note_on_c, 0, 55, 0
2, 15048, Note_on_c, 0, 55, 68
2, 15060, Note_on_c, 0, 55, 0
2, 15060, Note_on_c, 0, 57, 68
2, 15072, Note_on_c, 0, 57, 0
2, 15072, Note_on_c, 0, 58, 68
2, 15139, Note_on_c, 0, 58, 0
2, 15144, Note_on_c, 0, 58, 66
2, 15156, Note_on_c, 0, 58, 0
2, 15156, Note_on_c, 0, 60, 66
2, 15168, Note_on_c, 0, 60, 0
2, 15168, Note_on_c, 0, 62, 66
2, 15235, Note_on_c, 0, 62, 0
2, 15240, Note_on_c, 0, 64, 64
2, 15252, Note_on_c, 0, 64, 0
2, 15252, Note_on_c, 0, 66, 64
2, 15264, Note_on_c, 0, 66, 0
2, 15264, Note_on_c, 0, 67, 64
2, 15353, Note_on_c, 0, 67, 0
2, 15552, End_track
3, 0, Start_track
3, 0, Program_c, 0, 0
3, 0, Control_c, 0, 7, 127
3, 0, Control_c, 0, 10, 64
3, 10656, Note_on_c, 0, 67, 64
3, 10745, Note_on_c, 0, 67, 0
3, 15552, End_track
4, 0, Start_track
4, 0, Program_c, 1, 0
4, 0, Control_c, 1, 7, 127
4, 0, Control_c, 1, 10, 64
4, 0, Note_on_c, 1, 58, 64
4, 0, Note_on_c, 1, 55, 64
4, 47, Note_on_c, 1, 58, 0
4, 47, Note_on_c, 1, 55, 0
4, 48, Note_on_c, 1, 58, 64
4, 48, Note_on_c, 1, 55, 64
4, 95, Note_on_c, 1, 58, 0
4, 95, Note_on_c, 1, 55, 0
4, 96, Note_on_c, 1, 58, 64
4, 96, Note_on_c, 1, 55, 64
4, 143, Note_on_c, 1, 58, 0
4, 143, Note_on_c, 1, 55, 0
4, 144, Note_on_c, 1, 58, 64
4, 144, Note_on_c, 1, 55, 64
4, 191, Note_on_c, 1, 58, 0
4, 191, Note_on_c, 1, 55, 0
4, 192, Note_on_c, 1, 58, 64
4, 192, Note_on_c, 1, 55, 64
4, 239, Note_on_c, 1, 58, 0
4, 239, Note_on_c, 1, 55, 0
4, 240, Note_on_c, 1, 58, 64
4, 240, Note_on_c, 1, 55, 64
4, 287, Note_on_c, 1, 58, 0
4, 287, Note_on_c, 1, 55, 0
4, 288, Note_on_c, 1, 60, 64
4, 288, Note_on_c, 1, 57, 64
4, 335, Note_on_c, 1, 60, 0
4, 335, Note_on_c, 1, 57, 0
4, 336, Note_on_c, 1, 60, 64
4, 336, Note_on_c, 1, 57, 64
4, 383, Note_on_c, 1, 60, 0
4, 383, Note_on_c, 1, 57, 0
4, 384, Note_on_c, 1, 60, 64
4, 384, Note_on_c, 1, 57, 64
4, 431, Note_on_c, 1, 60, 0
4, 431, Note_on_c, 1, 57, 0
4, 432, Note_on_c, 1, 60, 64
4, 432, Note_on_c, 1, 57, 64
4, 479, Note_on_c, 1, 60, 0
4, 479, Note_on_c, 1, 57, 0
4, 480, Note_on_c, 1, 60, 64
4, 480, Note_on_c, 1, 57, 64
4, 527, Note_on_c, 1, 60, 0
4, 527, Note_on_c, 1, 57, 0
4, 528, Note_on_c, 1, 60, 64
4, 528, Note_on_c, 1, 57, 64
4, 575, Note_on_c, 1, 60, 0
4, 575, Note_on_c, 1, 57, 0
4, 576, Note_on_c, 1, 57, 64
4, 576, Note_on_c, 1, 54, 64
4, 623, Note_on_c, 1, 57, 0
4, 623, Note_on_c, 1, 54, 0
4, 624, Note_on_c, 1, 57, 64
4, 624, Note_on_c, 1, 54, 64
4, 671, Note_on_c, 1, 57, 0
4, 671, Note_on_c, 1, 54, 0
4, 672, Note_on_c, 1, 57, 64
4, 672, Note_on_c, 1, 54, 64
4, 719, Note_on_c, 1, 57, 0
4, 719, Note_on_c, 1, 54, 0
4, 720, Note_on_c, 1, 57, 64
4, 720, Note_on_c, 1, 54, 64
4, 767, Note_on_c, 1, 57, 0
4, 767, Note_on_c, 1, 54, 0
4, 768, Note_on_c, 1, 57, 64
4, 768, Note_on_c, 1, 54, 64
4, 815, Note_on_c, 1, 57, 0
4, 815, Note_on_c, 1, 54, 0
4, 816, Note_on_c, 1, 57, 64
4, 816, Note_on_c, 1, 54, 64
4, 863, Note_on_c, 1, 57, 0
4, 863, Note_on_c, 1, 54, 0
4, 864, Note_on_c, 1, 55, 64
4, 911, Note_on_c, 1, 55, 0
4, 912, Note_on_c, 1, 43, 64
4, 959, Note_on_c, 1, 43, 0
4, 960, Note_on_c, 1, 43, 64
4, 1007, Note_on_c, 1, 43, 0
4, 1008, Note_on_c, 1, 43, 64
4, 1055, Note_on_c, 1, 43, 0
4, 1056, Note_on_c, 1, 43, 64
4, 1103, Note_on_c, 1, 43, 0
4, 1104, Note_on_c, 1, 43, 64
4, 1151, Note_on_c, 1, 43, 0
4, 1152, Note_on_c, 1, 58, 64
4, 1152, Note_on_c, 1, 55, 64
4, 1199, Note_on_c, 1, 58, 0
4, 1199, Note_on_c, 1, 55, 0
4, 1200, Note_on_c, 1, 58, 64
4, 1200, Note_on_c, 1, 55, 64
4, 1247, Note_on_c, 1, 58, 0
4, 1247, Note_on_c, 1, 55, 0
4, 1248, Note_on_c, 1, 58, 64
4, 1248, Note_on_c, 1, 55, 64
4, 1295, Note_on_c, 1, 58, 0
4, 1295, Note_on_c, 1, 55, 0
4, 1296, Note_on_c, 1, 58, 64
4, 1296, Note_on_c, 1, 55, 64
4, 1343, Note_on_c, 1, 58, 0
4, 1343, Note_on_c, 1, 55, 0
4, 1344, Note_on_c, 1, 58, 64
4, 1344, Note_on_c, 1, 55, 64
4, 1391, Note_on_c, 1, 58, 0
4, 1391, Note_on_c, 1, 55, 0
4, 1392, Note_on_c, 1, 58, 64
4, 1392, Note_on_c, 1, 55, 64
4, 1439, Note_on_c, 1, 58, 0
4, 1439, Note_on_c, 1, 55, 0
4, 1440, Note_on_c, 1, 60, 64
4, 1440, Note_on_c, 1, 55, 64
4, 1487, Note_on_c, 1, 60, 0
4, 1487, Note_on_c, 1, 55, 0
4, 1488, Note_on_c, 1, 60, 64
4, 1488, Note_on_c, 1, 55, 64
4, 1535, Note_on_c, 1, 60, 0
4, 1535, Note_on_c, 1, 55, 0
4, 1536, Note_on_c, 1, 58, 64
4, 1536, Note_on_c, 1, 55, 64
4, 1583, Note_on_c, 1, 58, 0
4, 1583, Note_on_c, 1, 55, 0
4, 1584, Note_on_c, 1, 58, 64
4, 1584, Note_on_c, 1, 55, 64
4, 1631, Note_on_c, 1, 58, 0
4, 1631, Note_on_c, 1, 55, 0
4, 1632, Note_on_c, 1, 58, 64
4, 1632, Note_on_c, 1, 55, 64
4, 1679, Note_on_c, 1, 58, 0
4, 1679, Note_on_c, 1, 55, 0
4, 1680, Note_on_c, 1, 58, 64
4, 1680, Note_on_c, 1, 55, 64
4, 1727, Note_on_c, 1, 58, 0
4, 1727, Note_on_c, 1, 55, 0
4, 1728, Note_on_c, 1, 63, 80
4, 1728, Note_on_c, 1, 58, 80
4, 1728, Note_on_c, 1, 55, 80
4, 1728, Note_on_c, 1, 51, 80
4, 1776, Note_on_c, 1, 63, 0
4, 1776, Note_on_c, 1, 58, 0
4, 1776, Note_on_c, 1, 55, 0
4, 1776, Note_on_c, 1, 51, 0
4, 1776, Note_on_c, 1, 55, 64
4, 1776, Note_on_c, 1, 51, 64
4, 1823, Note_on_c, 1, 55, 0
4, 1823, Note_on_c, 1, 51, 0
4, 1824, Note_on_c, 1, 55, 64
4, 1824, Note_on_c, 1, 51, 64
4, 1871, Note_on_c, 1, 55, 0
4, 1871, Note_on_c, 1, 51, 0
4, 1872, Note_on_c, 1, 55, 64
4, 1872, Note_on_c, 1, 51, 64
4, 1919, Note_on_c, 1, 55, 0
4, 1919, Note_on_c, 1, 51, 0
4, 1920, Note_on_c, 1, 55, 64
4, 1920, Note_on_c, 1, 51, 64
4, 1967, Note_on_c, 1, 55, 0
4, 1967, Note_on_c, 1, 51, 0
4, 1968, Note_on_c, 1, 55, 64
4, 1968, Note_on_c, 1, 51, 64
4, 2015, Note_on_c, 1, 55, 0
4, 2015, Note_on_c, 1, 51, 0
4, 2016, Note_on_c, 1, 54, 64
4, 2016, Note_on_c, 1, 50, 64
4, 2105, Note_on_c, 1, 54, 0
4, 2105, Note_on_c, 1, 50, 0
4, 2112, Note_on_c, 1, 38, 64
4, 2201, Note_on_c, 1, 38, 0
4, 2304, Note_on_c, 1, 65, 64
4, 2304, Note_on_c, 1, 62, 64
4, 2304, Note_on_c, 1, 58, 64
4, 2351, Note_on_c, 1, 65, 0
4, 2351, Note_on_c, 1, 62, 0
4, 2351, Note_on_c, 1, 58, 0
4, 2352, Note_on_c, 1, 65, 64
4, 2352, Note_on_c, 1, 62, 64
4, 2352, Note_on_c, 1, 58, 64
4, 2399, Note_on_c, 1, 65, 0
4, 2399, Note_on_c, 1, 62, 0
4, 2399, Note_on_c, 1, 58, 0
4, 2400, Note_on_c, 1, 65, 64
4, 2400, Note_on_c, 1, 62, 64
4, 2400, Note_on_c, 1, 58, 64
4, 2447, Note_on_c, 1, 65, 0
4, 2447, Note_on_c, 1, 62, 0
4, 2447, Note_on_c, 1, 58, 0
4, 2448, Note_on_c, 1, 65, 64
4, 2448, Note_on_c, 1, 62, 64
4, 2448, Note_on_c, 1, 58, 64
4, 2495, Note_on_c, 1, 65, 0
4, 2495, Note_on_c, 1, 62, 0
4, 2495, Note_on_c, 1, 58, 0
4, 2496, Note_on_c, 1, 65, 64
4, 2496, Note_on_c, 1, 62, 64
4, 2496, Note_on_c, 1, 58, 64
4, 2543, Note_on_c, 1, 65, 0
4, 2543, Note_on_c, 1, 62, 0
4, 2543, Note_on_c, 1, 58, 0
4, 2544, Note_on_c, 1, 65, 64
4, 2544, Note_on_c, 1, 62, 64
4, 2544, Note_on_c, 1, 58, 64
4, 2591, Note_on_c, 1, 65, 0
4, 2591, Note_on_c, 1, 62, 0
4, 2591, Note_on_c, 1, 58, 0
4, 2592, Note_on_c, 1, 67, 64
4, 2592, Note_on_c, 1, 63, 64
4, 2592, Note_on_c, 1, 58, 64
4, 2639, Note_on_c, 1, 67, 0
4, 2639, Note_on_c, 1, 63, 0
4, 2639, Note_on_c, 1, 58, 0
4, 2640, Note_on_c, 1, 67, 64
4, 2640, Note_on_c, 1, 63, 64
4, 2640, Note_on_c, 1, 58, 64
4, 2687, Note_on_c, 1, 67, 0
4, 2687, Note_on_c, 1, 63, 0
4, 2687, Note_on_c, 1, 58, 0
4, 2688, Note_on_c, 1, 67, 64
4, 2688, Note_on_c, 1, 63, 64
4, 2688, Note_on_c, 1, 58, 64
4, 2735, Note_on_c, 1, 67, 0
4, 2735, Note_on_c, 1, 63, 0
4, 2735, Note_on_c, 1, 58, 0
4, 2736, Note_on_c, 1, 67, 64
4, 2736, Note_on_c, 1, 63, 64
4, 2736, Note_on_c, 1, 58, 64
4, 2783, Note_on_c, 1, 67, 0
4, 2783, Note_on_c, 1, 63, 0
4, 2783, Note_on_c, 1, 58, 0
4, 2784, Note_on_c, 1, 67, 64
4, 2784, Note_on_c, 1, 63, 64
4, 2784, Note_on_c, 1, 58, 64
4, 2831, Note_on_c, 1, 67, 0
4, 2831, Note_on_c, 1, 63, 0
4, 2831, Note_on_c, 1, 58, 0
4, 2832, Note_on_c, 1, 67, 64
4, 2832, Note_on_c, 1, 63, 64
4, 2832, Note_on_c, 1, 58, 64
4, 2879, Note_on_c, 1, 67, 0
4, 2879, Note_on_c, 1, 63, 0
4, 2879, Note_on_c, 1, 58, 0
4, 2880, Note_on_c, 1, 65, 64
4, 2880, Note_on_c, 1, 62, 64
4, 2880, Note_on_c, 1, 58, 64
4, 2927, Note_on_c, 1, 65, 0
4, 2927, Note_on_c, 1, 62, 0
4, 2927, Note_on_c, 1, 58, 0
4, 2928, Note_on_c, 1, 65, 64
4, 2928, Note_on_c, 1, 62, 64
4, 2928, Note_on_c, 1, 58, 64
4, 2975, Note_on_c, 1, 65, 0
4, 2975, Note_on_c, 1, 62, 0
4, 2975, Note_on_c, 1, 58, 0
4, 2976, Note_on_c, 1, 65, 64
4, 2976, Note_on_c, 1, 62, 64
4, 2976, Note_on_c, 1, 58, 64
4, 3023, Note_on_c, 1, 65, 0
4, 3023, Note_on_c, 1, 62, 0
4, 3023, Note_on_c, 1, 58, 0
4, 3024, Note_on_c, 1, 65, 64
4, 3024, Note_on_c, 1, 62, 64
4, 3024, Note_on_c, 1, 58, 64
4, 3071, Note_on_c, 1, 65, 0
4, 3071, Note_on_c, 1, 62, 0
4, 3071, Note_on_c, 1, 58, 0
4, 3072, Note_on_c, 1, 65, 64
4, 3072, Note_on_c, 1, 62, 64
4, 3072, Note_on_c, 1, 58, 64
4, 3119, Note_on_c, 1, 65, 0
4, 3119, Note_on_c, 1, 62, 0
4, 3119, Note_on_c, 1, 58, 0
4, 3120, Note_on_c, 1, 65, 64
4, 3120, Note_on_c, 1, 62, 64
4, 3120, Note_on_c, 1, 58, 64
4, 3167, Note_on_c, 1, 65, 0
4, 3167, Note_on_c, 1, 62, 0
4, 3167, Note_on_c, 1, 58, 0
4, 3168, Note_on_c, 1, 65, 64
4, 3168, Note_on_c, 1, 60, 64
4, 3168, Note_on_c, 1, 57, 64
4, 3215, Note_on_c, 1, 65, 0
4, 3215, Note_on_c, 1, 60, 0
4, 3215, Note_on_c, 1, 57, 0
4, 3216, Note_on_c, 1, 65, 64
4, 3216, Note_on_c, 1, 60, 64
4, 3216, Note_on_c, 1, 57, 64
4, 3263, Note_on_c, 1, 65, 0
4, 3263, Note_on_c, 1, 60, 0
4, 3263, Note_on_c, 1, 57, 0
4, 3264, Note_on_c, 1, 65, 64
4, 3264, Note_on_c, 1, 60, 64
4, 3264, Note_on_c, 1, 57, 64
4, 3311, Note_on_c, 1, 65, 0
4, 3311, Note_on_c, 1, 60, 0
4, 3311, Note_on_c, 1, 57, 0
4, 3312, Note_on_c, 1, 65, 64
4, 3312, Note_on_c, 1, 60, 64
4, 3312, Note_on_c, 1, 57, 64
4, 3359, Note_on_c, 1, 65, 0
4, 3359, Note_on_c, 1, 60, 0
4, 3359, Note_on_c, 1, 57, 0
4, 3360, Note_on_c, 1, 65, 64
4, 3360, Note_on_c, 1, 60, 64
4, 3360, Note_on_c, 1, 57, 64
4, 3407, Note_on_c, 1, 65, 0
4, 3407, Note_on_c, 1, 60, 0
4, 3407, Note_on_c, 1, 57, 0
4, 3408, Note_on_c, 1, 65, 64
4, 3408, Note_on_c, 1, 60, 64
4, 3408, Note_on_c, 1, 57, 64
4, 3455, Note_on_c, 1, 65, 0
4, 3455, Note_on_c, 1, 60, 0
4, 3455, Note_on_c, 1, 57, 0
4, 3456, Note_on_c, 1, 65, 64
4, 3456, Note_on_c, 1, 62, 64
4, 3456, Note_on_c, 1, 58, 64
4, 3503, Note_on_c, 1, 65, 0
4, 3503, Note_on_c, 1, 62, 0
4, 3503, Note_on_c, 1, 58, 0
4, 3504, Note_on_c, 1, 65, 64
4, 3504, Note_on_c, 1, 62, 64
4, 3504, Note_on_c, 1, 58, 64
4, 3551, Note_on_c, 1, 65, 0
4, 3551, Note_on_c, 1, 62, 0
4, 3551, Note_on_c, 1, 58, 0
4, 3552, Note_on_c, 1, 65, 64
4, 3552, Note_on_c, 1, 62, 64
4, 3552, Note_on_c, 1, 58, 64
4, 3599, Note_on_c, 1, 65, 0
4, 3599, Note_on_c, 1, 62, 0
4, 3599, Note_on_c, 1, 58, 0
4, 3600, Note_on_c, 1, 65, 64
4, 3600, Note_on_c, 1, 62, 64
4, 3600, Note_on_c, 1, 58, 64
4, 3647, Note_on_c, 1, 65, 0
4, 3647, Note_on_c, 1, 62, 0
4, 3647, Note_on_c, 1, 58, 0
4, 3648, Note_on_c, 1, 65, 64
4, 3648, Note_on_c, 1, 62, 64
4, 3648, Note_on_c, 1, 58, 64
4, 3695, Note_on_c, 1, 65, 0
4, 3695, Note_on_c, 1, 62, 0
4, 3695, Note_on_c, 1, 58, 0
4, 3696, Note_on_c, 1, 65, 64
4, 3696, Note_on_c, 1, 62, 64
4, 3696, Note_on_c, 1, 58, 64
4, 3743, Note_on_c, 1, 65, 0
4, 3743, Note_on_c, 1, 62, 0
4, 3743, Note_on_c, 1, 58, 0
4, 3744, Note_on_c, 1, 65, 64
4, 3744, Note_on_c, 1, 60, 64
4, 3744, Note_on_c, 1, 57, 64
4, 3791, Note_on_c, 1, 65, 0
4, 3791, Note_on_c, 1, 60, 0
4, 3791, Note_on_c, 1, 57, 0
4, 3792, Note_on_c, 1, 65, 64
4, 3792, Note_on_c, 1, 60, 64
4, 3792, Note_on_c, 1, 57, 64
4, 3839, Note_on_c, 1, 65, 0
4, 3839, Note_on_c, 1, 60, 0
4, 3839, Note_on_c, 1, 57, 0
4, 3840, Note_on_c, 1, 65, 64
4, 3840, Note_on_c, 1, 60, 64
4, 3840, Note_on_c, 1, 57, 64
4, 3887, Note_on_c, 1, 65, 0
4, 3887, Note_on_c, 1, 60, 0
4, 3887, Note_on_c, 1, 57, 0
4, 3888, Note_on_c, 1, 65, 64
4, 3888, Note_on_c, 1, 60, 64
4, 3888, Note_on_c, 1, 57, 64
4, 3935, Note_on_c, 1, 65, 0
4, 3935, Note_on_c, 1, 60, 0
4, 3935, Note_on_c, 1, 57, 0
4, 3936, Note_on_c, 1, 65, 64
4, 3936, Note_on_c, 1, 60, 64
4, 3936, Note_on_c, 1, 57, 64
4, 3983, Note_on_c, 1, 65, 0
4, 3983, Note_on_c, 1, 60, 0
4, 3983, Note_on_c, 1, 57, 0
4, 3984, Note_on_c, 1, 65, 64
4, 3984, Note_on_c, 1, 60, 64
4, 3984, Note_on_c, 1, 57, 64
4, 4031, Note_on_c, 1, 65, 0
4, 4031, Note_on_c, 1, 60, 0
4, 4031, Note_on_c, 1, 57, 0
4, 4032, Note_on_c, 1, 65, 64
4, 4032, Note_on_c, 1, 62, 64
4, 4032, Note_on_c, 1, 58, 64
4, 4079, Note_on_c, 1, 65, 0
4, 4079, Note_on_c, 1, 62, 0
4, 4079, Note_on_c, 1, 58, 0
4, 4080, Note_on_c, 1, 65, 64
4, 4080, Note_on_c, 1, 62, 64
4, 4080, Note_on_c, 1, 58, 64
4, 4127, Note_on_c, 1, 65, 0
4, 4127, Note_on_c, 1, 62, 0
4, 4127, Note_on_c, 1, 58, 0
4, 4128, Note_on_c, 1, 65, 64
4, 4128, Note_on_c, 1, 62, 64
4, 4128, Note_on_c, 1, 58, 64
4, 4175, Note_on_c, 1, 65, 0
4, 4175, Note_on_c, 1, 62, 0
4, 4175, Note_on_c, 1, 58, 0
4, 4176, Note_on_c, 1, 65, 65
4, 4176, Note_on_c, 1, 62, 65
4, 4176, Note_on_c, 1, 58, 65
4, 4223, Note_on_c, 1, 65, 0
4, 4223, Note_on_c, 1, 62, 0
4, 4223, Note_on_c, 1, 58, 0
4, 4224, Note_on_c, 1, 58, 66
4, 4224, Note_on_c, 1, 50, 66
4, 4271, Note_on_c, 1, 58, 0
4, 4271, Note_on_c, 1, 50, 0
4, 4272, Note_on_c, 1, 58, 66
4, 4272, Note_on_c, 1, 50, 66
4, 4319, Note_on_c, 1, 58, 0
4, 4319, Note_on_c, 1, 50, 0
4, 4320, Note_on_c, 1, 55, 67
4, 4320, Note_on_c, 1, 51, 67
4, 4367, Note_on_c, 1, 55, 0
4, 4367, Note_on_c, 1, 51, 0
4, 4368, Note_on_c, 1, 55, 68
4, 4368, Note_on_c, 1, 51, 68
4, 4415, Note_on_c, 1, 55, 0
4, 4415, Note_on_c, 1, 51, 0
4, 4416, Note_on_c, 1, 55, 68
4, 4416, Note_on_c, 1, 51, 68
4, 4463, Note_on_c, 1, 55, 0
4, 4463, Note_on_c, 1, 51, 0
4, 4464, Note_on_c, 1, 55, 69
4, 4464, Note_on_c, 1, 51, 69
4, 4511, Note_on_c, 1, 55, 0
4, 4511, Note_on_c, 1, 51, 0
4, 4512, Note_on_c, 1, 55, 70
4, 4512, Note_on_c, 1, 51, 70
4, 4559, Note_on_c, 1, 55, 0
4, 4559, Note_on_c, 1, 51, 0
4, 4560, Note_on_c, 1, 55, 70
4, 4560, Note_on_c, 1, 51, 70
4, 4607, Note_on_c, 1, 55, 0
4, 4607, Note_on_c, 1, 51, 0
4, 4608, Note_on_c, 1, 60, 75
4, 4608, Note_on_c, 1, 55, 75
4, 4608, Note_on_c, 1, 51, 75
4, 4697, Note_on_c, 1, 60, 0
4, 4697, Note_on_c, 1, 55, 0
4, 4697, Note_on_c, 1, 51, 0
4, 4896, Note_on_c, 1, 62, 75
4, 4896, Note_on_c, 1, 53, 75
4, 4941, Note_on_c, 1, 62, 0
4, 4941, Note_on_c, 1, 53, 0
4, 4944, Note_on_c, 1, 62, 75
4, 4944, Note_on_c, 1, 53, 75
4, 4989, Note_on_c, 1, 62, 0
4, 4989, Note_on_c, 1, 53, 0
4, 4992, Note_on_c, 1, 57, 75
4, 4992, Note_on_c, 1, 53, 75
4, 5037, Note_on_c, 1, 57, 0
4, 5037, Note_on_c, 1, 53, 0
4, 5040, Note_on_c, 1, 57, 75
4, 5040, Note_on_c, 1, 53, 75
4, 5085, Note_on_c, 1, 57, 0
4, 5085, Note_on_c, 1, 53, 0
4, 5088, Note_on_c, 1, 57, 75
4, 5088, Note_on_c, 1, 53, 75
4, 5133, Note_on_c, 1, 57, 0
4, 5133, Note_on_c, 1, 53, 0
4, 5136, Note_on_c, 1, 57, 75
4, 5136, Note_on_c, 1, 53, 75
4, 5181, Note_on_c, 1, 57, 0
4, 5181, Note_on_c, 1, 53, 0
4, 5184, Note_on_c, 1, 58, 75
4, 5207, Note_on_c, 1, 58, 0
4, 5208, Note_on_c, 1, 62, 75
4, 5231, Note_on_c, 1, 62, 0
4, 5232, Note_on_c, 1, 60, 75
4, 5255, Note_on_c, 1, 60, 0
4, 5256, Note_on_c, 1, 63, 75
4, 5279, Note_on_c, 1, 63, 0
4, 5280, Note_on_c, 1, 62, 75
4, 5303, Note_on_c, 1, 62, 0
4, 5304, Note_on_c, 1, 70, 75
4, 5327, Note_on_c, 1, 70, 0
4, 5328, Note_on_c, 1, 69, 75
4, 5351, Note_on_c, 1, 69, 0
4, 5352, Note_on_c, 1, 72, 75
4, 5375, Note_on_c, 1, 72, 0
4, 5376, Note_on_c, 1, 70, 75
4, 5465, Note_on_c, 1, 70, 0
4, 5472, Note_on_c, 1, 58, 70
4, 5472, Note_on_c, 1, 53, 70
4, 5472, Note_on_c, 1, 50, 70
4, 5561, Note_on_c, 1, 58, 0
4, 5561, Note_on_c, 1, 53, 0
4, 5561, Note_on_c, 1, 50, 0
4, 5568, Note_on_c, 1, 58, 75
4, 5568, Note_on_c, 1, 55, 75
4, 5568, Note_on_c, 1, 51, 75
4, 5657, Note_on_c, 1, 58, 0
4, 5657, Note_on_c, 1, 55, 0
4, 5657, Note_on_c, 1, 51, 0
4, 5664, Note_on_c, 1, 58, 80
4, 5664, Note_on_c, 1, 55, 80
4, 5664, Note_on_c, 1, 52, 80
4, 5753, Note_on_c, 1, 58, 0
4, 5753, Note_on_c, 1, 55, 0
4, 5753, Note_on_c, 1, 52, 0
4, 5760, Note_on_c, 1, 62, 86
4, 5760, Note_on_c, 1, 58, 86
4, 5760, Note_on_c, 1, 53, 86
4, 5849, Note_on_c, 1, 62, 0
4, 5849, Note_on_c, 1, 58, 0
4, 5849, Note_on_c, 1, 53, 0
4, 5856, Note_on_c, 1, 58, 70
4, 5856, Note_on_c, 1, 53, 70
4, 5903, Note_on_c, 1, 58, 0
4, 5903, Note_on_c, 1, 53, 0
4, 5904, Note_on_c, 1, 58, 70
4, 5904, Note_on_c, 1, 53, 70
4, 5951, Note_on_c, 1, 58, 0
4, 5951, Note_on_c, 1, 53, 0
4, 5952, Note_on_c, 1, 58, 70
4, 5952, Note_on_c, 1, 53, 70
4, 5999, Note_on_c, 1, 58, 0
4, 5999, Note_on_c, 1, 53, 0
4, 6000, Note_on_c, 1, 58, 67
4, 6000, Note_on_c, 1, 53, 67
4, 6047, Note_on_c, 1, 58, 0
4, 6047, Note_on_c, 1, 53, 0
4, 6048, Note_on_c, 1, 58, 64
4, 6048, Note_on_c, 1, 46, 64
4, 6142, Note_on_c, 1, 58, 0
4, 6142, Note_on_c, 1, 46, 0
4, 6192, Note_on_c, 1, 62, 64
4, 6237, Note_on_c, 1, 62, 0
4, 6240, Note_on_c, 1, 60, 64
4, 6285, Note_on_c, 1, 60, 0
4, 6288, Note_on_c, 1, 57, 64
4, 6333, Note_on_c, 1, 57, 0
4, 6336, Note_on_c, 1, 58, 64
4, 6381, Note_on_c, 1, 58, 0
4, 6384, Note_on_c, 1, 62, 64
4, 6431, Note_on_c, 1, 62, 0
4, 6480, Note_on_c, 1, 62, 64
4, 6525, Note_on_c, 1, 62, 0
4, 6528, Note_on_c, 1, 60, 64
4, 6573, Note_on_c, 1, 60, 0
4, 6576, Note_on_c, 1, 57, 64
4, 6621, Note_on_c, 1, 57, 0
4, 6624, Note_on_c, 1, 58, 64
4, 6713, Note_on_c, 1, 58, 0
4, 6720, Note_on_c, 1, 58, 64
4, 6809, Note_on_c, 1, 58, 0
4, 6816, Note_on_c, 1, 53, 64
4, 6861, Note_on_c, 1, 53, 0
4, 6864, Note_on_c, 1, 41, 64
4, 6909, Note_on_c, 1, 41, 0
4, 6912, Note_on_c, 1, 46, 64
4, 6912, Note_on_c, 1, 34, 64
4, 7001, Note_on_c, 1, 46, 0
4, 7001, Note_on_c, 1, 34, 0
4, 7008, Note_on_c, 1, 50, 64
4, 7008, Note_on_c, 1, 38, 64
4, 7097, Note_on_c, 1, 50, 0
4, 7097, Note_on_c, 1, 38, 0
4, 7104, Note_on_c, 1, 53, 64
4, 7104, Note_on_c, 1, 41, 64
4, 7193, Note_on_c, 1, 53, 0
4, 7193, Note_on_c, 1, 41, 0
4, 7200, Note_on_c, 1, 58, 64
4, 7289, Note_on_c, 1, 58, 0
4, 7296, Note_on_c, 1, 46, 64
4, 7385, Note_on_c, 1, 46, 0
4, 7488, Note_on_c, 1, 62, 64
4, 7488, Note_on_c, 1, 58, 64
4, 7535, Note_on_c, 1, 62, 0
4, 7535, Note_on_c, 1, 58, 0
4, 7536, Note_on_c, 1, 62, 64
4, 7536, Note_on_c, 1, 58, 64
4, 7583, Note_on_c, 1, 62, 0
4, 7583, Note_on_c, 1, 58, 0
4, 7584, Note_on_c, 1, 62, 64
4, 7584, Note_on_c, 1, 58, 64
4, 7631, Note_on_c, 1, 62, 0
4, 7631, Note_on_c, 1, 58, 0
4, 7632, Note_on_c, 1, 62, 64
4, 7632, Note_on_c, 1, 58, 64
4, 7679, Note_on_c, 1, 62, 0
4, 7679, Note_on_c, 1, 58, 0
4, 7680, Note_on_c, 1, 62, 64
4, 7680, Note_on_c, 1, 58, 64
4, 7727, Note_on_c, 1, 62, 0
4, 7727, Note_on_c, 1, 58, 0
4, 7728, Note_on_c, 1, 62, 64
4, 7728, Note_on_c, 1, 58, 64
4, 7775, Note_on_c, 1, 62, 0
4, 7775, Note_on_c, 1, 58, 0
4, 7776, Note_on_c, 1, 63, 64
4, 7776, Note_on_c, 1, 60, 64
4, 7823, Note_on_c, 1, 63, 0
4, 7823, Note_on_c, 1, 60, 0
4, 7824, Note_on_c, 1, 63, 64
4, 7824, Note_on_c, 1, 60, 64
4, 7871, Note_on_c, 1, 63, 0
4, 7871, Note_on_c, 1, 60, 0
4, 7872, Note_on_c, 1, 63, 64
4, 7872, Note_on_c, 1, 60, 64
4, 7919, Note_on_c, 1, 63, 0
4, 7919, Note_on_c, 1, 60, 0
4, 7920, Note_on_c, 1, 63, 64
4, 7920, Note_on_c, 1, 60, 64
4, 7967, Note_on_c, 1, 63, 0
4, 7967, Note_on_c, 1, 60, 0
4, 7968, Note_on_c, 1, 63, 64
4, 7968, Note_on_c, 1, 60, 64
4, 8015, Note_on_c, 1, 63, 0
4, 8015, Note_on_c, 1, 60, 0
4, 8016, Note_on_c, 1, 63, 64
4, 8016, Note_on_c, 1, 60, 64
4, 8063, Note_on_c, 1, 63, 0
4, 8063, Note_on_c, 1, 60, 0
4, 8064, Note_on_c, 1, 60, 64
4, 8064, Note_on_c, 1, 57, 64
4, 8111, Note_on_c, 1, 60, 0
4, 8111, Note_on_c, 1, 57, 0
4, 8112, Note_on_c, 1, 60, 64
4, 8112, Note_on_c, 1, 57, 64
4, 8159, Note_on_c, 1, 60, 0
4, 8159, Note_on_c, 1, 57, 0
4, 8160, Note_on_c, 1, 60, 64
4, 8160, Note_on_c, 1, 57, 64
4, 8207, Note_on_c, 1, 60, 0
4, 8207, Note_on_c, 1, 57, 0
4, 8208, Note_on_c, 1, 60, 64
4, 8208, Note_on_c, 1, 57, 64
4, 8255, Note_on_c, 1, 60, 0
4, 8255, Note_on_c, 1, 57, 0
4, 8256, Note_on_c, 1, 60, 64
4, 8256, Note_on_c, 1, 57, 64
4, 8303, Note_on_c, 1, 60, 0
4, 8303, Note_on_c, 1, 57, 0
4, 8304, Note_on_c, 1, 60, 64
4, 8304, Note_on_c, 1, 57, 64
4, 8351, Note_on_c, 1, 60, 0
4, 8351, Note_on_c, 1, 57, 0
4, 8352, Note_on_c, 1, 58, 64
4, 8399, Note_on_c, 1, 58, 0
4, 8400, Note_on_c, 1, 50, 64
4, 8400, Note_on_c, 1, 46, 64
4, 8447, Note_on_c, 1, 50, 0
4, 8447, Note_on_c, 1, 46, 0
4, 8448, Note_on_c, 1, 50, 64
4, 8448, Note_on_c, 1, 46, 64
4, 8495, Note_on_c, 1, 50, 0
4, 8495, Note_on_c, 1, 46, 0
4, 8496, Note_on_c, 1, 50, 64
4, 8496, Note_on_c, 1, 46, 64
4, 8543, Note_on_c, 1, 50, 0
4, 8543, Note_on_c, 1, 46, 0
4, 8544, Note_on_c, 1, 50, 64
4, 8544, Note_on_c, 1, 46, 64
4, 8633, Note_on_c, 1, 50, 0
4, 8633, Note_on_c, 1, 46, 0
4, 8640, Note_on_c, 1, 62, 64
4, 8640, Note_on_c, 1, 59, 64
4, 8685, Note_on_c, 1, 62, 0
4, 8685, Note_on_c, 1, 59, 0
4, 8688, Note_on_c, 1, 62, 64
4, 8688, Note_on_c, 1, 59, 64
4, 8733, Note_on_c, 1, 62, 0
4, 8733, Note_on_c, 1, 59, 0
4, 8736, Note_on_c, 1, 62, 64
4, 8736, Note_on_c, 1, 59, 64
4, 8781, Note_on_c, 1, 62, 0
4, 8781, Note_on_c, 1, 59, 0
4, 8784, Note_on_c, 1, 62, 64
4, 8784, Note_on_c, 1, 59, 64
4, 8829, Note_on_c, 1, 62, 0
4, 8829, Note_on_c, 1, 59, 0
4, 8832, Note_on_c, 1, 62, 64
4, 8832, Note_on_c, 1, 59, 64
4, 8877, Note_on_c, 1, 62, 0
4, 8877, Note_on_c, 1, 59, 0
4, 8880, Note_on_c, 1, 62, 64
4, 8880, Note_on_c, 1, 59, 64
4, 8925, Note_on_c, 1, 62, 0
4, 8925, Note_on_c, 1, 59, 0
4, 8928, Note_on_c, 1, 62, 64
4, 8928, Note_on_c, 1, 59, 64
4, 8973, Note_on_c, 1, 62, 0
4, 8973, Note_on_c, 1, 59, 0
4, 8976, Note_on_c, 1, 62, 64
4, 8976, Note_on_c, 1, 59, 64
4, 9021, Note_on_c, 1, 62, 0
4, 9021, Note_on_c, 1, 59, 0
4, 9024, Note_on_c, 1, 62, 64
4, 9024, Note_on_c, 1, 59, 64
4, 9069, Note_on_c, 1, 62, 0
4, 9069, Note_on_c, 1, 59, 0
4, 9072, Note_on_c, 1, 62, 64
4, 9072, Note_on_c, 1, 59, 64
4, 9117, Note_on_c, 1, 62, 0
4, 9117, Note_on_c, 1, 59, 0
4, 9120, Note_on_c, 1, 62, 64
4, 9120, Note_on_c, 1, 59, 64
4, 9165, Note_on_c, 1, 62, 0
4, 9165, Note_on_c, 1, 59, 0
4, 9168, Note_on_c, 1, 62, 64
4, 9168, Note_on_c, 1, 59, 64
4, 9213, Note_on_c, 1, 62, 0
4, 9213, Note_on_c, 1, 59, 0
4, 9216, Note_on_c, 1, 60, 64
4, 9305, Note_on_c, 1, 60, 0
4, 9336, Note_on_c, 1, 63, 73
4, 9359, Note_on_c, 1, 63, 0
4, 9360, Note_on_c, 1, 62, 72
4, 9383, Note_on_c, 1, 62, 0
4, 9384, Note_on_c, 1, 60, 70
4, 9407, Note_on_c, 1, 60, 0
4, 9408, Note_on_c, 1, 59, 69
4, 9497, Note_on_c, 1, 59, 0
4, 9504, Note_on_c, 1, 60, 64
4, 9593, Note_on_c, 1, 60, 0
4, 9624, Note_on_c, 1, 63, 73
4, 9647, Note_on_c, 1, 63, 0
4, 9648, Note_on_c, 1, 62, 72
4, 9671, Note_on_c, 1, 62, 0
4, 9672, Note_on_c, 1, 60, 70
4, 9695, Note_on_c, 1, 60, 0
4, 9696, Note_on_c, 1, 59, 69
4, 9785, Note_on_c, 1, 59, 0
4, 9792, Note_on_c, 1, 60, 64
4, 9881, Note_on_c, 1, 60, 0
4, 9912, Note_on_c, 1, 68, 73
4, 9935, Note_on_c, 1, 68, 0
4, 9936, Note_on_c, 1, 67, 72
4, 9959, Note_on_c, 1, 67, 0
4, 9960, Note_on_c, 1, 65, 70
4, 9983, Note_on_c, 1, 65, 0
4, 9984, Note_on_c, 1, 64, 69
4, 10073, Note_on_c, 1, 64, 0
4, 10080, Note_on_c, 1, 65, 64
4, 10169, Note_on_c, 1, 65, 0
4, 10200, Note_on_c, 1, 70, 73
4, 10223, Note_on_c, 1, 70, 0
4, 10224, Note_on_c, 1, 69, 72
4, 10247, Note_on_c, 1, 69, 0
4, 10248, Note_on_c, 1, 67, 70
4, 10271, Note_on_c, 1, 67, 0
4, 10272, Note_on_c, 1, 66, 69
4, 10361, Note_on_c, 1, 66, 0
4, 10392, Note_on_c, 1, 55, 64
4, 10415, Note_on_c, 1, 55, 0
4, 10416, Note_on_c, 1, 58, 67
4, 10439, Note_on_c, 1, 58, 0
4, 10440, Note_on_c, 1, 57, 71
4, 10463, Note_on_c, 1, 57, 0
4, 10464, Note_on_c, 1, 55, 75
4, 10487, Note_on_c, 1, 55, 0
4, 10488, Note_on_c, 1, 53, 72
4, 10511, Note_on_c, 1, 53, 0
4, 10512, Note_on_c, 1, 51, 69
4, 10535, Note_on_c, 1, 51, 0
4, 10536, Note_on_c, 1, 50, 66
4, 10559, Note_on_c, 1, 50, 0
4, 10560, Note_on_c, 1, 49, 64
4, 10605, Note_on_c, 1, 49, 0
4, 10608, Note_on_c, 1, 61, 64
4, 10653, Note_on_c, 1, 61, 0
4, 10656, Note_on_c, 1, 62, 64
4, 10745, Note_on_c, 1, 62, 0
4, 10752, Note_on_c, 1, 50, 64
4, 10841, Note_on_c, 1, 50, 0
4, 10944, Note_on_c, 1, 58, 64
4, 10944, Note_on_c, 1, 55, 64
4, 10991, Note_on_c, 1, 58, 0
4, 10991, Note_on_c, 1, 55, 0
4, 10992, Note_on_c, 1, 58, 64
4, 10992, Note_on_c, 1, 55, 64
4, 11039, Note_on_c, 1, 58, 0
4, 11039, Note_on_c, 1, 55, 0
4, 11040, Note_on_c, 1, 58, 64
4, 11040, Note_on_c, 1, 55, 64
4, 11087, Note_on_c, 1, 58, 0
4, 11087, Note_on_c, 1, 55, 0
4, 11088, Note_on_c, 1, 58, 64
4, 11088, Note_on_c, 1, 55, 64
4, 11135, Note_on_c, 1, 58, 0
4, 11135, Note_on_c, 1, 55, 0
4, 11136, Note_on_c, 1, 58, 64
4, 11136, Note_on_c, 1, 55, 64
4, 11183, Note_on_c, 1, 58, 0
4, 11183, Note_on_c, 1, 55, 0
4, 11184, Note_on_c, 1, 58, 64
4, 11184, Note_on_c, 1, 55, 64
4, 11231, Note_on_c, 1, 58, 0
4, 11231, Note_on_c, 1, 55, 0
4, 11232, Note_on_c, 1, 62, 64
4, 11232, Note_on_c, 1, 57, 64
4, 11232, Note_on_c, 1, 54, 64
4, 11279, Note_on_c, 1, 62, 0
4, 11279, Note_on_c, 1, 57, 0
4, 11279, Note_on_c, 1, 54, 0
4, 11280, Note_on_c, 1, 62, 64
4, 11280, Note_on_c, 1, 57, 64
4, 11280, Note_on_c, 1, 54, 64
4, 11327, Note_on_c, 1, 62, 0
4, 11327, Note_on_c, 1, 57, 0
4, 11327, Note_on_c, 1, 54, 0
4, 11328, Note_on_c, 1, 62, 64
4, 11328, Note_on_c, 1, 57, 64
4, 11328, Note_on_c, 1, 54, 64
4, 11375, Note_on_c, 1, 62, 0
4, 11375, Note_on_c, 1, 57, 0
4, 11375, Note_on_c, 1, 54, 0
4, 11376, Note_on_c, 1, 62, 64
4, 11376, Note_on_c, 1, 57, 64
4, 11376, Note_on_c, 1, 54, 64
4, 11423, Note_on_c, 1, 62, 0
4, 11423, Note_on_c, 1, 57, 0
4, 11423, Note_on_c, 1, 54, 0
4, 11424, Note_on_c, 1, 62, 64
4, 11424, Note_on_c, 1, 57, 64
4, 11424, Note_on_c, 1, 54, 64
4, 11471, Note_on_c, 1, 62, 0
4, 11471, Note_on_c, 1, 57, 0
4, 11471, Note_on_c, 1, 54, 0
4, 11472, Note_on_c, 1, 62, 64
4, 11472, Note_on_c, 1, 57, 64
4, 11472, Note_on_c, 1, 54, 64
4, 11519, Note_on_c, 1, 62, 0
4, 11519, Note_on_c, 1, 57, 0
4, 11519, Note_on_c, 1, 54, 0
4, 11520, Note_on_c, 1, 58, 64
4, 11520, Note_on_c, 1, 55, 64
4, 11567, Note_on_c, 1, 58, 0
4, 11567, Note_on_c, 1, 55, 0
4, 11568, Note_on_c, 1, 58, 64
4, 11568, Note_on_c, 1, 55, 64
4, 11615, Note_on_c, 1, 58, 0
4, 11615, Note_on_c, 1, 55, 0
4, 11616, Note_on_c, 1, 58, 64
4, 11616, Note_on_c, 1, 55, 64
4, 11663, Note_on_c, 1, 58, 0
4, 11663, Note_on_c, 1, 55, 0
4, 11664, Note_on_c, 1, 58, 64
4, 11664, Note_on_c, 1, 55, 64
4, 11711, Note_on_c, 1, 58, 0
4, 11711, Note_on_c, 1, 55, 0
4, 11712, Note_on_c, 1, 58, 64
4, 11712, Note_on_c, 1, 55, 64
4, 11759, Note_on_c, 1, 58, 0
4, 11759, Note_on_c, 1, 55, 0
4, 11760, Note_on_c, 1, 58, 64
4, 11760, Note_on_c, 1, 55, 64
4, 11807, Note_on_c, 1, 58, 0
4, 11807, Note_on_c, 1, 55, 0
4, 11808, Note_on_c, 1, 62, 64
4, 11808, Note_on_c, 1, 57, 64
4, 11808, Note_on_c, 1, 54, 64
4, 11855, Note_on_c, 1, 62, 0
4, 11855, Note_on_c, 1, 57, 0
4, 11855, Note_on_c, 1, 54, 0
4, 11856, Note_on_c, 1, 62, 64
4, 11856, Note_on_c, 1, 57, 64
4, 11856, Note_on_c, 1, 54, 64
4, 11903, Note_on_c, 1, 62, 0
4, 11903, Note_on_c, 1, 57, 0
4, 11903, Note_on_c, 1, 54, 0
4, 11904, Note_on_c, 1, 62, 64
4, 11904, Note_on_c, 1, 57, 64
4, 11904, Note_on_c, 1, 54, 64
4, 11951, Note_on_c, 1, 62, 0
4, 11951, Note_on_c, 1, 57, 0
4, 11951, Note_on_c, 1, 54, 0
4, 11952, Note_on_c, 1, 62, 64
4, 11952, Note_on_c, 1, 57, 64
4, 11952, Note_on_c, 1, 54, 64
4, 11999, Note_on_c, 1, 62, 0
4, 11999, Note_on_c, 1, 57, 0
4, 11999, Note_on_c, 1, 54, 0
4, 12000, Note_on_c, 1, 62, 64
4, 12000, Note_on_c, 1, 57, 64
4, 12000, Note_on_c, 1, 54, 64
4, 12047, Note_on_c, 1, 62, 0
4, 12047, Note_on_c, 1, 57, 0
4, 12047, Note_on_c, 1, 54, 0
4, 12048, Note_on_c, 1, 62, 64
4, 12048, Note_on_c, 1, 57, 64
4, 12048, Note_on_c, 1, 54, 64
4, 12095, Note_on_c, 1, 62, 0
4, 12095, Note_on_c, 1, 57, 0
4, 12095, Note_on_c, 1, 54, 0
4, 12096, Note_on_c, 1, 62, 64
4, 12096, Note_on_c, 1, 58, 64
4, 12096, Note_on_c, 1, 55, 64
4, 12143, Note_on_c, 1, 62, 0
4, 12143, Note_on_c, 1, 58, 0
4, 12143, Note_on_c, 1, 55, 0
4, 12144, Note_on_c, 1, 62, 64
4, 12144, Note_on_c, 1, 58, 64
4, 12144, Note_on_c, 1, 55, 64
4, 12191, Note_on_c, 1, 62, 0
4, 12191, Note_on_c, 1, 58, 0
4, 12191, Note_on_c, 1, 55, 0
4, 12192, Note_on_c, 1, 62, 64
4, 12192, Note_on_c, 1, 58, 64
4, 12192, Note_on_c, 1, 55, 64
4, 12239, Note_on_c, 1, 62, 0
4, 12239, Note_on_c, 1, 58, 0
4, 12239, Note_on_c, 1, 55, 0
4, 12240, Note_on_c, 1, 62, 64
4, 12240, Note_on_c, 1, 58, 64
4, 12240, Note_on_c, 1, 55, 64
4, 12287, Note_on_c, 1, 62, 0
4, 12287, Note_on_c, 1, 58, 0
4, 12287, Note_on_c, 1, 55, 0
4, 12288, Note_on_c, 1, 55, 64
4, 12288, Note_on_c, 1, 46, 64
4, 12335, Note_on_c, 1, 55, 0
4, 12335, Note_on_c, 1, 46, 0
4, 12336, Note_on_c, 1, 55, 64
4, 12336, Note_on_c, 1, 46, 64
4, 12383, Note_on_c, 1, 55, 0
4, 12383, Note_on_c, 1, 46, 0
4, 12384, Note_on_c, 1, 48, 64
4, 12429, Note_on_c, 1, 48, 0
4, 12432, Note_on_c, 1, 51, 64
4, 12477, Note_on_c, 1, 51, 0
4, 12480, Note_on_c, 1, 54, 64
4, 12525, Note_on_c, 1, 54, 0
4, 12528, Note_on_c, 1, 57, 64
4, 12573, Note_on_c, 1, 57, 0
4, 12576, Note_on_c, 1, 60, 64
4, 12665, Note_on_c, 1, 60, 0
4, 12672, Note_on_c, 1, 58, 64
4, 12761, Note_on_c, 1, 58, 0
4, 12960, Note_on_c, 1, 55, 64
4, 12960, Note_on_c, 1, 50, 64
4, 13005, Note_on_c, 1, 55, 0
4, 13005, Note_on_c, 1, 50, 0
4, 13008, Note_on_c, 1, 55, 64
4, 13008, Note_on_c, 1, 50, 64
4, 13053, Note_on_c, 1, 55, 0
4, 13053, Note_on_c, 1, 50, 0
4, 13056, Note_on_c, 1, 54, 64
4, 13056, Note_on_c, 1, 50, 64
4, 13101, Note_on_c, 1, 54, 0
4, 13101, Note_on_c, 1, 50, 0
4, 13104, Note_on_c, 1, 54, 64
4, 13104, Note_on_c, 1, 50, 64
4, 13149, Note_on_c, 1, 54, 0
4, 13149, Note_on_c, 1, 50, 0
4, 13152, Note_on_c, 1, 54, 64
4, 13152, Note_on_c, 1, 50, 64
4, 13197, Note_on_c, 1, 54, 0
4, 13197, Note_on_c, 1, 50, 0
4, 13200, Note_on_c, 1, 54, 64
4, 13200, Note_on_c, 1, 50, 64
4, 13245, Note_on_c, 1, 54, 0
4, 13245, Note_on_c, 1, 50, 0
4, 13248, Note_on_c, 1, 55, 64
4, 13271, Note_on_c, 1, 55, 0
4, 13272, Note_on_c, 1, 58, 64
4, 13295, Note_on_c, 1, 58, 0
4, 13296, Note_on_c, 1, 57, 64
4, 13319, Note_on_c, 1, 57, 0
4, 13320, Note_on_c, 1, 60, 64
4, 13343, Note_on_c, 1, 60, 0
4, 13344, Note_on_c, 1, 58, 64
4, 13367, Note_on_c, 1, 58, 0
4, 13368, Note_on_c, 1, 67, 64
4, 13391, Note_on_c, 1, 67, 0
4, 13392, Note_on_c, 1, 66, 64
4, 13415, Note_on_c, 1, 66, 0
4, 13416, Note_on_c, 1, 69, 64
4, 13439, Note_on_c, 1, 69, 0
4, 13440, Note_on_c, 1, 67, 64
4, 13529, Note_on_c, 1, 67, 0
4, 13536, Note_on_c, 1, 55, 70
4, 13536, Note_on_c, 1, 50, 70
4, 13536, Note_on_c, 1, 46, 70
4, 13625, Note_on_c, 1, 55, 0
4, 13625, Note_on_c, 1, 50, 0
4, 13625, Note_on_c, 1, 46, 0
4, 13632, Note_on_c, 1, 55, 75
4, 13632, Note_on_c, 1, 51, 75
4, 13632, Note_on_c, 1, 48, 75
4, 13721, Note_on_c, 1, 55, 0
4, 13721, Note_on_c, 1, 51, 0
4, 13721, Note_on_c, 1, 48, 0
4, 13728, Note_on_c, 1, 55, 80
4, 13728, Note_on_c, 1, 52, 80
4, 13728, Note_on_c, 1, 49, 80
4, 13817, Note_on_c, 1, 55, 0
4, 13817, Note_on_c, 1, 52, 0
4, 13817, Note_on_c, 1, 49, 0
4, 13824, Note_on_c, 1, 58, 86
4, 13824, Note_on_c, 1, 55, 86
4, 13824, Note_on_c, 1, 50, 86
4, 13913, Note_on_c, 1, 58, 0
4, 13913, Note_on_c, 1, 55, 0
4, 13913, Note_on_c, 1, 50, 0
4, 13920, Note_on_c, 1, 58, 70
4, 13920, Note_on_c, 1, 50, 70
4, 13967, Note_on_c, 1, 58, 0
4, 13967, Note_on_c, 1, 50, 0
4, 13968, Note_on_c, 1, 58, 70
4, 13968, Note_on_c, 1, 50, 70
4, 14015, Note_on_c, 1, 58, 0
4, 14015, Note_on_c, 1, 50, 0
4, 14016, Note_on_c, 1, 54, 70
4, 14016, Note_on_c, 1, 50, 70
4, 14063, Note_on_c, 1, 54, 0
4, 14063, Note_on_c, 1, 50, 0
4, 14064, Note_on_c, 1, 54, 67
4, 14064, Note_on_c, 1, 50, 67
4, 14111, Note_on_c, 1, 54, 0
4, 14111, Note_on_c, 1, 50, 0
4, 14112, Note_on_c, 1, 55, 64
4, 14112, Note_on_c, 1, 43, 64
4, 14206, Note_on_c, 1, 55, 0
4, 14206, Note_on_c, 1, 43, 0
4, 14256, Note_on_c, 1, 58, 64
4, 14301, Note_on_c, 1, 58, 0
4, 14304, Note_on_c, 1, 57, 64
4, 14349, Note_on_c, 1, 57, 0
4, 14352, Note_on_c, 1, 54, 64
4, 14397, Note_on_c, 1, 54, 0
4, 14400, Note_on_c, 1, 55, 64
4, 14445, Note_on_c, 1, 55, 0
4, 14448, Note_on_c, 1, 58, 64
4, 14495, Note_on_c, 1, 58, 0
4, 14544, Note_on_c, 1, 58, 64
4, 14589, Note_on_c, 1, 58, 0
4, 14592, Note_on_c, 1, 57, 64
4, 14637, Note_on_c, 1, 57, 0
4, 14640, Note_on_c, 1, 54, 64
4, 14685, Note_on_c, 1, 54, 0
4, 14688, Note_on_c, 1, 55, 64
4, 14777, Note_on_c, 1, 55, 0
4, 14784, Note_on_c, 1, 55, 75
4, 14784, Note_on_c, 1, 48, 75
4, 14873, Note_on_c, 1, 55, 0
4, 14873, Note_on_c, 1, 48, 0
4, 14880, Note_on_c, 1, 50, 64
4, 14925, Note_on_c, 1, 50, 0
4, 14928, Note_on_c, 1, 38, 64
4, 14973, Note_on_c, 1, 38, 0
4, 14976, Note_on_c, 1, 43, 64
4, 14976, Note_on_c, 1, 31, 64
4, 15065, Note_on_c, 1, 43, 0
4, 15065, Note_on_c, 1, 31, 0
4, 15072, Note_on_c, 1, 46, 62
4, 15072, Note_on_c, 1, 34, 62
4, 15161, Note_on_c, 1, 46, 0
4, 15161, Note_on_c, 1, 34, 0
4, 15168, Note_on_c, 1, 50, 60
4, 15168, Note_on_c, 1, 38, 60
4, 15257, Note_on_c, 1, 50, 0
4, 15257, Note_on_c, 1, 38, 0
4, 15264, Note_on_c, 1, 55, 58
4, 15264, Note_on_c, 1, 43, 58
4, 15353, Note_on_c, 1, 55, 0
4, 15353, Note_on_c, 1, 43, 0
4, 15552, Note_on_c, 1, 43, 0
4, 15641, Note_on_c, 1, 43, 0
4, 15648, End_track
5, 0, Start_track
5, 0, Program_c, 1, 0
5, 0, Control_c, 1, 7, 127
5, 0, Control_c, 1, 10, 64
5, 6192, Note_on_c, 1, 53, 64
5, 6425, Note_on_c, 1, 53, 0
5, 6480, Note_on_c, 1, 53, 64
5, 6713, Note_on_c, 1, 53, 0
5, 6720, Note_on_c, 1, 51, 64
5, 6809, Note_on_c, 1, 51, 0
5, 14256, Note_on_c, 1, 50, 64
5, 14489, Note_on_c, 1, 50, 0
5, 14544, Note_on_c, 1, 50, 64
5, 14681, Note_on_c, 1, 50, 0
5, 15552, End_track
6, 0, Start_track
6, 0, Title_t, "Sonata I   Haydn  "
6, 0, End_track
0, 0, End_of_file
