0, 0, Header, 1, 7, 96
1, 0, Start_track
1, 0, Copyright_t, "Copyright  2000 <copyright holder>"
1, 0, Text_t, "Sonata VI\015\012"
1, 0, Text_t, "Haydn\015\012"
1, 0, Sequencer_specific, 16, 68, 87, 77, 90, 86, 82, 83, 78, 32, 54, 46, 48, 46, 57, 46, 48
1, 0, Time_signature, 2, 2, 24, 8
1, 0, Tempo, 375000
1, 0, Key_signature, 2, "major"
1, 75072, End_track
2, 0, Start_track
2, 0, Program_c, 0, 0
2, 0, Control_c, 0, 7, 127
2, 0, Control_c, 0, 10, 64
2, 144, Note_on_c, 0, 59, 64
2, 164, Note_on_c, 0, 59, 0
2, 192, Note_on_c, 0, 59, 64
2, 212, Note_on_c, 0, 59, 0
2, 240, Note_on_c, 0, 59, 64
2, 260, Note_on_c, 0, 59, 0
2, 288, Note_on_c, 0, 59, 64
2, 308, Note_on_c, 0, 59, 0
2, 336, Note_on_c, 0, 59, 64
2, 356, Note_on_c, 0, 59, 0
2, 384, Note_on_c, 0, 62, 64
2, 429, Note_on_c, 0, 62, 0
2, 432, Note_on_c, 0, 61, 64
2, 477, Note_on_c, 0, 61, 0
2, 480, Note_on_c, 0, 59, 64
2, 525, Note_on_c, 0, 59, 0
2, 528, Note_on_c, 0, 67, 64
2, 548, Note_on_c, 0, 67, 0
2, 576, Note_on_c, 0, 66, 64
2, 621, Note_on_c, 0, 66, 0
2, 624, Note_on_c, 0, 65, 64
2, 669, Note_on_c, 0, 65, 0
2, 672, Note_on_c, 0, 66, 64
2, 717, Note_on_c, 0, 66, 0
2, 720, Note_on_c, 0, 64, 64
2, 740, Note_on_c, 0, 64, 0
2, 768, Note_on_c, 0, 62, 64
2, 813, Note_on_c, 0, 62, 0
2, 816, Note_on_c, 0, 61, 64
2, 861, Note_on_c, 0, 61, 0
2, 864, Note_on_c, 0, 62, 64
2, 909, Note_on_c, 0, 62, 0
2, 912, Note_on_c, 0, 61, 64
2, 932, Note_on_c, 0, 61, 0
2, 960, Note_on_c, 0, 59, 64
2, 1005, Note_on_c, 0, 59, 0
2, 1008, Note_on_c, 0, 58, 64
2, 1053, Note_on_c, 0, 58, 0
2, 1056, Note_on_c, 0, 59, 64
2, 1101, Note_on_c, 0, 59, 0
2, 1104, Note_on_c, 0, 59, 64
2, 1124, Note_on_c, 0, 59, 0
2, 1152, Note_on_c, 0, 59, 64
2, 1172, Note_on_c, 0, 59, 0
2, 1200, Note_on_c, 0, 59, 64
2, 1220, Note_on_c, 0, 59, 0
2, 1248, Note_on_c, 0, 59, 64
2, 1268, Note_on_c, 0, 59, 0
2, 1296, Note_on_c, 0, 64, 64
2, 1316, Note_on_c, 0, 64, 0
2, 1344, Note_on_c, 0, 62, 64
2, 1389, Note_on_c, 0, 62, 0
2, 1392, Note_on_c, 0, 61, 64
2, 1437, Note_on_c, 0, 61, 0
2, 1440, Note_on_c, 0, 59, 64
2, 1485, Note_on_c, 0, 59, 0
2, 1488, Note_on_c, 0, 67, 64
2, 1508, Note_on_c, 0, 67, 0
2, 1536, Note_on_c, 0, 66, 64
2, 1581, Note_on_c, 0, 66, 0
2, 1584, Note_on_c, 0, 64, 64
2, 1629, Note_on_c, 0, 64, 0
2, 1632, Note_on_c, 0, 62, 64
2, 1677, Note_on_c, 0, 62, 0
2, 1680, Note_on_c, 0, 61, 64
2, 1700, Note_on_c, 0, 61, 0
2, 1728, Note_on_c, 0, 59, 64
2, 1817, Note_on_c, 0, 59, 0
2, 1872, Note_on_c, 0, 59, 64
2, 1892, Note_on_c, 0, 59, 0
2, 1920, Note_on_c, 0, 59, 64
2, 1940, Note_on_c, 0, 59, 0
2, 1968, Note_on_c, 0, 59, 64
2, 1988, Note_on_c, 0, 59, 0
2, 2016, Note_on_c, 0, 59, 64
2, 2036, Note_on_c, 0, 59, 0
2, 2064, Note_on_c, 0, 64, 64
2, 2084, Note_on_c, 0, 64, 0
2, 2112, Note_on_c, 0, 62, 64
2, 2157, Note_on_c, 0, 62, 0
2, 2160, Note_on_c, 0, 61, 64
2, 2205, Note_on_c, 0, 61, 0
2, 2208, Note_on_c, 0, 59, 64
2, 2253, Note_on_c, 0, 59, 0
2, 2256, Note_on_c, 0, 71, 64
2, 2301, Note_on_c, 0, 71, 0
2, 2304, Note_on_c, 0, 69, 64
2, 2349, Note_on_c, 0, 69, 0
2, 2352, Note_on_c, 0, 67, 64
2, 2397, Note_on_c, 0, 67, 0
2, 2400, Note_on_c, 0, 66, 64
2, 2445, Note_on_c, 0, 66, 0
2, 2448, Note_on_c, 0, 65, 64
2, 2468, Note_on_c, 0, 65, 0
2, 2496, Note_on_c, 0, 66, 64
2, 2585, Note_on_c, 0, 66, 0
2, 2640, Note_on_c, 0, 71, 64
2, 2660, Note_on_c, 0, 71, 0
2, 2688, Note_on_c, 0, 71, 64
2, 2708, Note_on_c, 0, 71, 0
2, 2736, Note_on_c, 0, 71, 64
2, 2756, Note_on_c, 0, 71, 0
2, 2784, Note_on_c, 0, 71, 64
2, 2804, Note_on_c, 0, 71, 0
2, 2832, Note_on_c, 0, 71, 64
2, 2852, Note_on_c, 0, 71, 0
2, 2880, Note_on_c, 0, 74, 64
2, 2925, Note_on_c, 0, 74, 0
2, 2928, Note_on_c, 0, 73, 64
2, 2973, Note_on_c, 0, 73, 0
2, 2976, Note_on_c, 0, 71, 64
2, 3021, Note_on_c, 0, 71, 0
2, 3024, Note_on_c, 0, 79, 64
2, 3044, Note_on_c, 0, 79, 0
2, 3072, Note_on_c, 0, 78, 64
2, 3117, Note_on_c, 0, 78, 0
2, 3120, Note_on_c, 0, 77, 64
2, 3165, Note_on_c, 0, 77, 0
2, 3168, Note_on_c, 0, 78, 64
2, 3213, Note_on_c, 0, 78, 0
2, 3216, Note_on_c, 0, 79, 64
2, 3236, Note_on_c, 0, 79, 0
2, 3264, Note_on_c, 0, 78, 64
2, 3309, Note_on_c, 0, 78, 0
2, 3312, Note_on_c, 0, 77, 64
2, 3357, Note_on_c, 0, 77, 0
2, 3360, Note_on_c, 0, 78, 64
2, 3405, Note_on_c, 0, 78, 0
2, 3408, Note_on_c, 0, 79, 64
2, 3428, Note_on_c, 0, 79, 0
2, 3456, Note_on_c, 0, 78, 64
2, 3501, Note_on_c, 0, 78, 0
2, 3504, Note_on_c, 0, 77, 64
2, 3549, Note_on_c, 0, 77, 0
2, 3552, Note_on_c, 0, 78, 64
2, 3597, Note_on_c, 0, 78, 0
2, 3984, Note_on_c, 0, 79, 64
2, 4004, Note_on_c, 0, 79, 0
2, 4032, Note_on_c, 0, 78, 64
2, 4077, Note_on_c, 0, 78, 0
2, 4080, Note_on_c, 0, 77, 64
2, 4125, Note_on_c, 0, 77, 0
2, 4128, Note_on_c, 0, 78, 64
2, 4173, Note_on_c, 0, 78, 0
2, 4176, Note_on_c, 0, 76, 64
2, 4196, Note_on_c, 0, 76, 0
2, 4224, Note_on_c, 0, 74, 64
2, 4269, Note_on_c, 0, 74, 0
2, 4272, Note_on_c, 0, 73, 64
2, 4317, Note_on_c, 0, 73, 0
2, 4320, Note_on_c, 0, 74, 64
2, 4365, Note_on_c, 0, 74, 0
2, 4368, Note_on_c, 0, 86, 64
2, 4368, Note_on_c, 0, 74, 64
2, 4388, Note_on_c, 0, 86, 0
2, 4388, Note_on_c, 0, 74, 0
2, 4416, Note_on_c, 0, 85, 64
2, 4416, Note_on_c, 0, 73, 64
2, 4461, Note_on_c, 0, 85, 0
2, 4461, Note_on_c, 0, 73, 0
2, 4464, Note_on_c, 0, 84, 64
2, 4464, Note_on_c, 0, 72, 64
2, 4509, Note_on_c, 0, 84, 0
2, 4509, Note_on_c, 0, 72, 0
2, 4512, Note_on_c, 0, 83, 64
2, 4512, Note_on_c, 0, 71, 64
2, 4557, Note_on_c, 0, 83, 0
2, 4557, Note_on_c, 0, 71, 0
2, 4560, Note_on_c, 0, 82, 64
2, 4560, Note_on_c, 0, 70, 64
2, 4580, Note_on_c, 0, 82, 0
2, 4580, Note_on_c, 0, 70, 0
2, 4608, Note_on_c, 0, 83, 64
2, 4608, Note_on_c, 0, 71, 64
2, 4697, Note_on_c, 0, 83, 0
2, 4697, Note_on_c, 0, 71, 0
2, 4752, Note_on_c, 0, 83, 64
2, 4752, Note_on_c, 0, 79, 64
2, 4800, Note_on_c, 0, 83, 0
2, 4800, Note_on_c, 0, 79, 0
2, 4800, Note_on_c, 0, 81, 64
2, 4800, Note_on_c, 0, 78, 64
2, 4889, Note_on_c, 0, 81, 0
2, 4889, Note_on_c, 0, 78, 0
2, 4944, Note_on_c, 0, 79, 64
2, 4944, Note_on_c, 0, 73, 64
2, 4992, Note_on_c, 0, 79, 0
2, 4992, Note_on_c, 0, 73, 0
2, 4992, Note_on_c, 0, 78, 64
2, 4992, Note_on_c, 0, 74, 64
2, 5081, Note_on_c, 0, 78, 0
2, 5081, Note_on_c, 0, 74, 0
2, 5136, Note_on_c, 0, 74, 64
2, 5136, Note_on_c, 0, 62, 64
2, 5156, Note_on_c, 0, 74, 0
2, 5156, Note_on_c, 0, 62, 0
2, 5184, Note_on_c, 0, 73, 64
2, 5184, Note_on_c, 0, 61, 64
2, 5229, Note_on_c, 0, 73, 0
2, 5229, Note_on_c, 0, 61, 0
2, 5232, Note_on_c, 0, 72, 64
2, 5232, Note_on_c, 0, 60, 64
2, 5277, Note_on_c, 0, 72, 0
2, 5277, Note_on_c, 0, 60, 0
2, 5280, Note_on_c, 0, 71, 64
2, 5280, Note_on_c, 0, 59, 64
2, 5325, Note_on_c, 0, 71, 0
2, 5325, Note_on_c, 0, 59, 0
2, 5328, Note_on_c, 0, 70, 64
2, 5328, Note_on_c, 0, 58, 64
2, 5348, Note_on_c, 0, 70, 0
2, 5348, Note_on_c, 0, 58, 0
2, 5376, Note_on_c, 0, 71, 64
2, 5376, Note_on_c, 0, 59, 64
2, 5509, Note_on_c, 0, 71, 0
2, 5509, Note_on_c, 0, 59, 0
2, 5520, Note_on_c, 0, 75, 64
2, 5520, Note_on_c, 0, 63, 64
2, 5540, Note_on_c, 0, 75, 0
2, 5540, Note_on_c, 0, 63, 0
2, 5568, Note_on_c, 0, 76, 64
2, 5568, Note_on_c, 0, 64, 64
2, 5701, Note_on_c, 0, 76, 0
2, 5701, Note_on_c, 0, 64, 0
2, 5712, Note_on_c, 0, 78, 64
2, 5712, Note_on_c, 0, 66, 64
2, 5732, Note_on_c, 0, 78, 0
2, 5732, Note_on_c, 0, 66, 0
2, 5760, Note_on_c, 0, 79, 64
2, 5760, Note_on_c, 0, 67, 64
2, 5893, Note_on_c, 0, 79, 0
2, 5893, Note_on_c, 0, 67, 0
2, 5904, Note_on_c, 0, 82, 64
2, 5904, Note_on_c, 0, 70, 64
2, 5924, Note_on_c, 0, 82, 0
2, 5924, Note_on_c, 0, 70, 0
2, 5952, Note_on_c, 0, 83, 64
2, 5952, Note_on_c, 0, 71, 64
2, 6085, Note_on_c, 0, 83, 0
2, 6085, Note_on_c, 0, 71, 0
2, 6096, Note_on_c, 0, 85, 64
2, 6096, Note_on_c, 0, 73, 64
2, 6116, Note_on_c, 0, 85, 0
2, 6116, Note_on_c, 0, 73, 0
2, 6144, Note_on_c, 0, 86, 64
2, 6144, Note_on_c, 0, 74, 64
2, 6277, Note_on_c, 0, 86, 0
2, 6277, Note_on_c, 0, 74, 0
2, 6288, Note_on_c, 0, 76, 64
2, 6308, Note_on_c, 0, 76, 0
2, 6336, Note_on_c, 0, 85, 64
2, 6469, Note_on_c, 0, 85, 0
2, 6480, Note_on_c, 0, 74, 64
2, 6500, Note_on_c, 0, 74, 0
2, 6528, Note_on_c, 0, 86, 64
2, 6661, Note_on_c, 0, 86, 0
2, 6672, Note_on_c, 0, 76, 64
2, 6692, Note_on_c, 0, 76, 0
2, 6720, Note_on_c, 0, 85, 64
2, 6853, Note_on_c, 0, 85, 0
2, 6864, Note_on_c, 0, 74, 64
2, 6884, Note_on_c, 0, 74, 0
2, 6912, Note_on_c, 0, 86, 64
2, 7045, Note_on_c, 0, 86, 0
2, 7056, Note_on_c, 0, 76, 64
2, 7104, Note_on_c, 0, 85, 64
2, 7429, Note_on_c, 0, 85, 0
2, 7429, Note_on_c, 0, 76, 0
2, 7440, Note_on_c, 0, 74, 64
2, 7460, Note_on_c, 0, 74, 0
2, 7488, Note_on_c, 0, 74, 64
2, 7508, Note_on_c, 0, 74, 0
2, 7536, Note_on_c, 0, 74, 64
2, 7556, Note_on_c, 0, 74, 0
2, 7584, Note_on_c, 0, 74, 64
2, 7604, Note_on_c, 0, 74, 0
2, 7632, Note_on_c, 0, 74, 64
2, 7652, Note_on_c, 0, 74, 0
2, 7680, Note_on_c, 0, 74, 64
2, 7703, Note_on_c, 0, 74, 0
2, 7704, Note_on_c, 0, 76, 64
2, 7727, Note_on_c, 0, 76, 0
2, 7728, Note_on_c, 0, 78, 64
2, 7751, Note_on_c, 0, 78, 0
2, 7752, Note_on_c, 0, 76, 64
2, 7775, Note_on_c, 0, 76, 0
2, 7776, Note_on_c, 0, 74, 64
2, 7799, Note_on_c, 0, 74, 0
2, 7800, Note_on_c, 0, 76, 64
2, 7823, Note_on_c, 0, 76, 0
2, 7824, Note_on_c, 0, 78, 64
2, 7847, Note_on_c, 0, 78, 0
2, 7848, Note_on_c, 0, 76, 64
2, 7871, Note_on_c, 0, 76, 0
2, 7872, Note_on_c, 0, 74, 64
2, 7895, Note_on_c, 0, 74, 0
2, 7896, Note_on_c, 0, 76, 64
2, 7919, Note_on_c, 0, 76, 0
2, 7920, Note_on_c, 0, 78, 64
2, 7943, Note_on_c, 0, 78, 0
2, 7944, Note_on_c, 0, 76, 64
2, 7967, Note_on_c, 0, 76, 0
2, 7968, Note_on_c, 0, 74, 64
2, 7991, Note_on_c, 0, 74, 0
2, 7992, Note_on_c, 0, 76, 64
2, 8015, Note_on_c, 0, 76, 0
2, 8016, Note_on_c, 0, 78, 64
2, 8039, Note_on_c, 0, 78, 0
2, 8040, Note_on_c, 0, 76, 64
2, 8063, Note_on_c, 0, 76, 0
2, 8064, Note_on_c, 0, 74, 64
2, 8087, Note_on_c, 0, 74, 0
2, 8088, Note_on_c, 0, 76, 64
2, 8111, Note_on_c, 0, 76, 0
2, 8112, Note_on_c, 0, 78, 64
2, 8135, Note_on_c, 0, 78, 0
2, 8136, Note_on_c, 0, 76, 64
2, 8159, Note_on_c, 0, 76, 0
2, 8160, Note_on_c, 0, 74, 64
2, 8183, Note_on_c, 0, 74, 0
2, 8184, Note_on_c, 0, 76, 64
2, 8207, Note_on_c, 0, 76, 0
2, 8208, Note_on_c, 0, 78, 64
2, 8231, Note_on_c, 0, 78, 0
2, 8232, Note_on_c, 0, 76, 64
2, 8255, Note_on_c, 0, 76, 0
2, 8256, Note_on_c, 0, 74, 64
2, 8279, Note_on_c, 0, 74, 0
2, 8280, Note_on_c, 0, 76, 64
2, 8303, Note_on_c, 0, 76, 0
2, 8304, Note_on_c, 0, 78, 64
2, 8327, Note_on_c, 0, 78, 0
2, 8328, Note_on_c, 0, 76, 64
2, 8351, Note_on_c, 0, 76, 0
2, 8352, Note_on_c, 0, 74, 64
2, 8375, Note_on_c, 0, 74, 0
2, 8376, Note_on_c, 0, 76, 64
2, 8399, Note_on_c, 0, 76, 0
2, 8400, Note_on_c, 0, 78, 64
2, 8423, Note_on_c, 0, 78, 0
2, 8424, Note_on_c, 0, 76, 64
2, 8447, Note_on_c, 0, 76, 0
2, 8448, Note_on_c, 0, 74, 64
2, 8471, Note_on_c, 0, 74, 0
2, 8472, Note_on_c, 0, 76, 64
2, 8495, Note_on_c, 0, 76, 0
2, 8496, Note_on_c, 0, 78, 64
2, 8519, Note_on_c, 0, 78, 0
2, 8520, Note_on_c, 0, 76, 64
2, 8543, Note_on_c, 0, 76, 0
2, 8544, Note_on_c, 0, 74, 64
2, 8567, Note_on_c, 0, 74, 0
2, 8568, Note_on_c, 0, 76, 64
2, 8591, Note_on_c, 0, 76, 0
2, 8592, Note_on_c, 0, 78, 64
2, 8615, Note_on_c, 0, 78, 0
2, 8616, Note_on_c, 0, 76, 64
2, 8639, Note_on_c, 0, 76, 0
2, 8640, Note_on_c, 0, 74, 64
2, 8663, Note_on_c, 0, 74, 0
2, 8664, Note_on_c, 0, 76, 64
2, 8687, Note_on_c, 0, 76, 0
2, 8688, Note_on_c, 0, 78, 64
2, 8711, Note_on_c, 0, 78, 0
2, 8712, Note_on_c, 0, 76, 64
2, 8735, Note_on_c, 0, 76, 0
2, 8736, Note_on_c, 0, 74, 64
2, 8759, Note_on_c, 0, 74, 0
2, 8760, Note_on_c, 0, 76, 64
2, 8783, Note_on_c, 0, 76, 0
2, 8784, Note_on_c, 0, 78, 64
2, 8807, Note_on_c, 0, 78, 0
2, 8808, Note_on_c, 0, 76, 64
2, 8831, Note_on_c, 0, 76, 0
2, 8832, Note_on_c, 0, 74, 64
2, 8855, Note_on_c, 0, 74, 0
2, 8856, Note_on_c, 0, 76, 64
2, 8879, Note_on_c, 0, 76, 0
2, 8880, Note_on_c, 0, 78, 64
2, 8903, Note_on_c, 0, 78, 0
2, 8904, Note_on_c, 0, 76, 64
2, 8927, Note_on_c, 0, 76, 0
2, 8928, Note_on_c, 0, 74, 64
2, 8951, Note_on_c, 0, 74, 0
2, 8952, Note_on_c, 0, 76, 64
2, 8975, Note_on_c, 0, 76, 0
2, 8976, Note_on_c, 0, 78, 64
2, 8999, Note_on_c, 0, 78, 0
2, 9000, Note_on_c, 0, 76, 64
2, 9023, Note_on_c, 0, 76, 0
2, 9024, Note_on_c, 0, 74, 64
2, 9047, Note_on_c, 0, 74, 0
2, 9048, Note_on_c, 0, 76, 64
2, 9071, Note_on_c, 0, 76, 0
2, 9072, Note_on_c, 0, 78, 64
2, 9095, Note_on_c, 0, 78, 0
2, 9096, Note_on_c, 0, 79, 64
2, 9119, Note_on_c, 0, 79, 0
2, 9120, Note_on_c, 0, 81, 64
2, 9143, Note_on_c, 0, 81, 0
2, 9144, Note_on_c, 0, 83, 64
2, 9167, Note_on_c, 0, 83, 0
2, 9168, Note_on_c, 0, 85, 64
2, 9191, Note_on_c, 0, 85, 0
2, 9192, Note_on_c, 0, 86, 64
2, 9215, Note_on_c, 0, 86, 0
2, 9216, Note_on_c, 0, 85, 64
2, 9239, Note_on_c, 0, 85, 0
2, 9240, Note_on_c, 0, 83, 64
2, 9263, Note_on_c, 0, 83, 0
2, 9264, Note_on_c, 0, 82, 64
2, 9287, Note_on_c, 0, 82, 0
2, 9288, Note_on_c, 0, 83, 64
2, 9311, Note_on_c, 0, 83, 0
2, 9312, Note_on_c, 0, 82, 64
2, 9335, Note_on_c, 0, 82, 0
2, 9336, Note_on_c, 0, 83, 64
2, 9359, Note_on_c, 0, 83, 0
2, 9360, Note_on_c, 0, 82, 64
2, 9383, Note_on_c, 0, 82, 0
2, 9384, Note_on_c, 0, 83, 64
2, 9407, Note_on_c, 0, 83, 0
2, 9408, Note_on_c, 0, 86, 64
2, 9431, Note_on_c, 0, 86, 0
2, 9432, Note_on_c, 0, 83, 64
2, 9455, Note_on_c, 0, 83, 0
2, 9456, Note_on_c, 0, 81, 64
2, 9479, Note_on_c, 0, 81, 0
2, 9480, Note_on_c, 0, 79, 64
2, 9503, Note_on_c, 0, 79, 0
2, 9504, Note_on_c, 0, 83, 64
2, 9527, Note_on_c, 0, 83, 0
2, 9528, Note_on_c, 0, 79, 64
2, 9551, Note_on_c, 0, 79, 0
2, 9552, Note_on_c, 0, 78, 64
2, 9575, Note_on_c, 0, 78, 0
2, 9576, Note_on_c, 0, 76, 64
2, 9599, Note_on_c, 0, 76, 0
2, 9600, Note_on_c, 0, 81, 64
2, 9623, Note_on_c, 0, 81, 0
2, 9624, Note_on_c, 0, 80, 64
2, 9647, Note_on_c, 0, 80, 0
2, 9648, Note_on_c, 0, 81, 64
2, 9671, Note_on_c, 0, 81, 0
2, 9672, Note_on_c, 0, 80, 64
2, 9695, Note_on_c, 0, 80, 0
2, 9696, Note_on_c, 0, 81, 64
2, 9719, Note_on_c, 0, 81, 0
2, 9720, Note_on_c, 0, 78, 64
2, 9743, Note_on_c, 0, 78, 0
2, 9744, Note_on_c, 0, 76, 64
2, 9767, Note_on_c, 0, 76, 0
2, 9768, Note_on_c, 0, 74, 64
2, 9791, Note_on_c, 0, 74, 0
2, 9792, Note_on_c, 0, 78, 64
2, 9811, Note_on_c, 0, 78, 0
2, 9812, Note_on_c, 0, 76, 64
2, 9831, Note_on_c, 0, 76, 0
2, 9832, Note_on_c, 0, 78, 64
2, 9850, Note_on_c, 0, 78, 0
2, 9851, Note_on_c, 0, 76, 64
2, 9869, Note_on_c, 0, 76, 0
2, 9870, Note_on_c, 0, 78, 64
2, 9888, Note_on_c, 0, 78, 0
2, 9889, Note_on_c, 0, 76, 64
2, 9907, Note_on_c, 0, 76, 0
2, 9908, Note_on_c, 0, 78, 64
2, 9926, Note_on_c, 0, 78, 0
2, 9927, Note_on_c, 0, 76, 64
2, 9945, Note_on_c, 0, 76, 0
2, 9946, Note_on_c, 0, 74, 64
2, 9964, Note_on_c, 0, 74, 0
2, 9965, Note_on_c, 0, 76, 64
2, 9983, Note_on_c, 0, 76, 0
2, 9984, Note_on_c, 0, 74, 64
2, 10007, Note_on_c, 0, 74, 0
2, 10008, Note_on_c, 0, 76, 64
2, 10031, Note_on_c, 0, 76, 0
2, 10032, Note_on_c, 0, 78, 64
2, 10055, Note_on_c, 0, 78, 0
2, 10056, Note_on_c, 0, 76, 64
2, 10079, Note_on_c, 0, 76, 0
2, 10080, Note_on_c, 0, 74, 64
2, 10103, Note_on_c, 0, 74, 0
2, 10104, Note_on_c, 0, 76, 64
2, 10127, Note_on_c, 0, 76, 0
2, 10128, Note_on_c, 0, 78, 64
2, 10151, Note_on_c, 0, 78, 0
2, 10152, Note_on_c, 0, 76, 64
2, 10175, Note_on_c, 0, 76, 0
2, 10176, Note_on_c, 0, 74, 64
2, 10199, Note_on_c, 0, 74, 0
2, 10200, Note_on_c, 0, 76, 64
2, 10223, Note_on_c, 0, 76, 0
2, 10224, Note_on_c, 0, 78, 64
2, 10247, Note_on_c, 0, 78, 0
2, 10248, Note_on_c, 0, 76, 64
2, 10271, Note_on_c, 0, 76, 0
2, 10272, Note_on_c, 0, 74, 64
2, 10295, Note_on_c, 0, 74, 0
2, 10296, Note_on_c, 0, 76, 64
2, 10319, Note_on_c, 0, 76, 0
2, 10320, Note_on_c, 0, 78, 64
2, 10343, Note_on_c, 0, 78, 0
2, 10344, Note_on_c, 0, 76, 64
2, 10367, Note_on_c, 0, 76, 0
2, 10368, Note_on_c, 0, 74, 64
2, 10391, Note_on_c, 0, 74, 0
2, 10392, Note_on_c, 0, 76, 64
2, 10415, Note_on_c, 0, 76, 0
2, 10416, Note_on_c, 0, 78, 64
2, 10439, Note_on_c, 0, 78, 0
2, 10440, Note_on_c, 0, 76, 64
2, 10463, Note_on_c, 0, 76, 0
2, 10464, Note_on_c, 0, 74, 64
2, 10487, Note_on_c, 0, 74, 0
2, 10488, Note_on_c, 0, 76, 64
2, 10511, Note_on_c, 0, 76, 0
2, 10512, Note_on_c, 0, 78, 64
2, 10535, Note_on_c, 0, 78, 0
2, 10536, Note_on_c, 0, 76, 64
2, 10559, Note_on_c, 0, 76, 0
2, 10560, Note_on_c, 0, 74, 64
2, 10583, Note_on_c, 0, 74, 0
2, 10584, Note_on_c, 0, 76, 64
2, 10607, Note_on_c, 0, 76, 0
2, 10608, Note_on_c, 0, 78, 64
2, 10631, Note_on_c, 0, 78, 0
2, 10632, Note_on_c, 0, 76, 64
2, 10655, Note_on_c, 0, 76, 0
2, 10656, Note_on_c, 0, 74, 64
2, 10679, Note_on_c, 0, 74, 0
2, 10680, Note_on_c, 0, 76, 64
2, 10703, Note_on_c, 0, 76, 0
2, 10704, Note_on_c, 0, 78, 64
2, 10727, Note_on_c, 0, 78, 0
2, 10728, Note_on_c, 0, 76, 64
2, 10751, Note_on_c, 0, 76, 0
2, 10752, Note_on_c, 0, 74, 64
2, 10775, Note_on_c, 0, 74, 0
2, 10776, Note_on_c, 0, 76, 64
2, 10799, Note_on_c, 0, 76, 0
2, 10800, Note_on_c, 0, 78, 64
2, 10823, Note_on_c, 0, 78, 0
2, 10824, Note_on_c, 0, 76, 64
2, 10847, Note_on_c, 0, 76, 0
2, 10848, Note_on_c, 0, 74, 64
2, 10871, Note_on_c, 0, 74, 0
2, 10872, Note_on_c, 0, 76, 64
2, 10895, Note_on_c, 0, 76, 0
2, 10896, Note_on_c, 0, 78, 64
2, 10919, Note_on_c, 0, 78, 0
2, 10920, Note_on_c, 0, 76, 64
2, 10943, Note_on_c, 0, 76, 0
2, 10944, Note_on_c, 0, 74, 64
2, 10967, Note_on_c, 0, 74, 0
2, 10968, Note_on_c, 0, 76, 64
2, 10991, Note_on_c, 0, 76, 0
2, 10992, Note_on_c, 0, 78, 64
2, 11015, Note_on_c, 0, 78, 0
2, 11016, Note_on_c, 0, 76, 64
2, 11039, Note_on_c, 0, 76, 0
2, 11040, Note_on_c, 0, 74, 64
2, 11063, Note_on_c, 0, 74, 0
2, 11064, Note_on_c, 0, 76, 64
2, 11087, Note_on_c, 0, 76, 0
2, 11088, Note_on_c, 0, 78, 64
2, 11111, Note_on_c, 0, 78, 0
2, 11112, Note_on_c, 0, 76, 64
2, 11135, Note_on_c, 0, 76, 0
2, 11136, Note_on_c, 0, 74, 64
2, 11159, Note_on_c, 0, 74, 0
2, 11160, Note_on_c, 0, 76, 64
2, 11183, Note_on_c, 0, 76, 0
2, 11184, Note_on_c, 0, 78, 64
2, 11207, Note_on_c, 0, 78, 0
2, 11208, Note_on_c, 0, 76, 64
2, 11231, Note_on_c, 0, 76, 0
2, 11232, Note_on_c, 0, 74, 64
2, 11255, Note_on_c, 0, 74, 0
2, 11256, Note_on_c, 0, 76, 64
2, 11279, Note_on_c, 0, 76, 0
2, 11280, Note_on_c, 0, 78, 64
2, 11303, Note_on_c, 0, 78, 0
2, 11304, Note_on_c, 0, 76, 64
2, 11327, Note_on_c, 0, 76, 0
2, 11328, Note_on_c, 0, 74, 64
2, 11351, Note_on_c, 0, 74, 0
2, 11352, Note_on_c, 0, 76, 64
2, 11375, Note_on_c, 0, 76, 0
2, 11376, Note_on_c, 0, 78, 64
2, 11399, Note_on_c, 0, 78, 0
2, 11400, Note_on_c, 0, 79, 64
2, 11423, Note_on_c, 0, 79, 0
2, 11424, Note_on_c, 0, 81, 64
2, 11447, Note_on_c, 0, 81, 0
2, 11448, Note_on_c, 0, 83, 64
2, 11471, Note_on_c, 0, 83, 0
2, 11472, Note_on_c, 0, 85, 64
2, 11495, Note_on_c, 0, 85, 0
2, 11496, Note_on_c, 0, 86, 64
2, 11519, Note_on_c, 0, 86, 0
2, 11520, Note_on_c, 0, 85, 64
2, 11543, Note_on_c, 0, 85, 0
2, 11544, Note_on_c, 0, 83, 64
2, 11567, Note_on_c, 0, 83, 0
2, 11568, Note_on_c, 0, 82, 64
2, 11591, Note_on_c, 0, 82, 0
2, 11592, Note_on_c, 0, 83, 64
2, 11615, Note_on_c, 0, 83, 0
2, 11616, Note_on_c, 0, 82, 64
2, 11639, Note_on_c, 0, 82, 0
2, 11640, Note_on_c, 0, 83, 64
2, 11663, Note_on_c, 0, 83, 0
2, 11664, Note_on_c, 0, 82, 64
2, 11687, Note_on_c, 0, 82, 0
2, 11688, Note_on_c, 0, 83, 64
2, 11711, Note_on_c, 0, 83, 0
2, 11712, Note_on_c, 0, 86, 64
2, 11735, Note_on_c, 0, 86, 0
2, 11736, Note_on_c, 0, 83, 64
2, 11759, Note_on_c, 0, 83, 0
2, 11760, Note_on_c, 0, 81, 64
2, 11783, Note_on_c, 0, 81, 0
2, 11784, Note_on_c, 0, 79, 64
2, 11807, Note_on_c, 0, 79, 0
2, 11808, Note_on_c, 0, 83, 64
2, 11831, Note_on_c, 0, 83, 0
2, 11832, Note_on_c, 0, 79, 64
2, 11855, Note_on_c, 0, 79, 0
2, 11856, Note_on_c, 0, 78, 64
2, 11879, Note_on_c, 0, 78, 0
2, 11880, Note_on_c, 0, 76, 64
2, 11903, Note_on_c, 0, 76, 0
2, 11904, Note_on_c, 0, 81, 64
2, 11927, Note_on_c, 0, 81, 0
2, 11928, Note_on_c, 0, 80, 64
2, 11951, Note_on_c, 0, 80, 0
2, 11952, Note_on_c, 0, 81, 64
2, 11975, Note_on_c, 0, 81, 0
2, 11976, Note_on_c, 0, 80, 64
2, 11999, Note_on_c, 0, 80, 0
2, 12000, Note_on_c, 0, 81, 64
2, 12023, Note_on_c, 0, 81, 0
2, 12024, Note_on_c, 0, 78, 64
2, 12047, Note_on_c, 0, 78, 0
2, 12048, Note_on_c, 0, 76, 64
2, 12071, Note_on_c, 0, 76, 0
2, 12072, Note_on_c, 0, 74, 64
2, 12095, Note_on_c, 0, 74, 0
2, 12096, Note_on_c, 0, 78, 64
2, 12115, Note_on_c, 0, 78, 0
2, 12116, Note_on_c, 0, 76, 64
2, 12135, Note_on_c, 0, 76, 0
2, 12136, Note_on_c, 0, 78, 64
2, 12154, Note_on_c, 0, 78, 0
2, 12155, Note_on_c, 0, 76, 64
2, 12173, Note_on_c, 0, 76, 0
2, 12174, Note_on_c, 0, 78, 64
2, 12192, Note_on_c, 0, 78, 0
2, 12193, Note_on_c, 0, 76, 64
2, 12211, Note_on_c, 0, 76, 0
2, 12212, Note_on_c, 0, 78, 64
2, 12230, Note_on_c, 0, 78, 0
2, 12231, Note_on_c, 0, 76, 64
2, 12249, Note_on_c, 0, 76, 0
2, 12250, Note_on_c, 0, 74, 64
2, 12268, Note_on_c, 0, 74, 0
2, 12269, Note_on_c, 0, 76, 64
2, 12287, Note_on_c, 0, 76, 0
2, 12288, Note_on_c, 0, 74, 64
2, 12311, Note_on_c, 0, 74, 0
2, 12312, Note_on_c, 0, 81, 64
2, 12335, Note_on_c, 0, 81, 0
2, 12336, Note_on_c, 0, 78, 64
2, 12359, Note_on_c, 0, 78, 0
2, 12360, Note_on_c, 0, 74, 64
2, 12383, Note_on_c, 0, 74, 0
2, 12384, Note_on_c, 0, 69, 64
2, 12407, Note_on_c, 0, 69, 0
2, 12408, Note_on_c, 0, 79, 64
2, 12431, Note_on_c, 0, 79, 0
2, 12432, Note_on_c, 0, 76, 64
2, 12455, Note_on_c, 0, 76, 0
2, 12456, Note_on_c, 0, 73, 64
2, 12479, Note_on_c, 0, 73, 0
2, 12480, Note_on_c, 0, 69, 64
2, 12503, Note_on_c, 0, 69, 0
2, 12504, Note_on_c, 0, 81, 64
2, 12527, Note_on_c, 0, 81, 0
2, 12528, Note_on_c, 0, 78, 64
2, 12551, Note_on_c, 0, 78, 0
2, 12552, Note_on_c, 0, 74, 64
2, 12575, Note_on_c, 0, 74, 0
2, 12576, Note_on_c, 0, 69, 64
2, 12599, Note_on_c, 0, 69, 0
2, 12600, Note_on_c, 0, 79, 64
2, 12623, Note_on_c, 0, 79, 0
2, 12624, Note_on_c, 0, 76, 64
2, 12647, Note_on_c, 0, 76, 0
2, 12648, Note_on_c, 0, 73, 64
2, 12671, Note_on_c, 0, 73, 0
2, 12672, Note_on_c, 0, 69, 64
2, 12695, Note_on_c, 0, 69, 0
2, 12696, Note_on_c, 0, 81, 64
2, 12719, Note_on_c, 0, 81, 0
2, 12720, Note_on_c, 0, 78, 64
2, 12743, Note_on_c, 0, 78, 0
2, 12744, Note_on_c, 0, 74, 64
2, 12767, Note_on_c, 0, 74, 0
2, 12768, Note_on_c, 0, 69, 64
2, 12791, Note_on_c, 0, 69, 0
2, 12792, Note_on_c, 0, 79, 64
2, 12815, Note_on_c, 0, 79, 0
2, 12816, Note_on_c, 0, 76, 64
2, 12839, Note_on_c, 0, 76, 0
2, 12840, Note_on_c, 0, 73, 64
2, 12863, Note_on_c, 0, 73, 0
2, 12864, Note_on_c, 0, 69, 64
2, 12887, Note_on_c, 0, 69, 0
2, 12888, Note_on_c, 0, 81, 64
2, 12911, Note_on_c, 0, 81, 0
2, 12912, Note_on_c, 0, 78, 64
2, 12935, Note_on_c, 0, 78, 0
2, 12936, Note_on_c, 0, 74, 64
2, 12959, Note_on_c, 0, 74, 0
2, 12960, Note_on_c, 0, 69, 64
2, 12983, Note_on_c, 0, 69, 0
2, 12984, Note_on_c, 0, 79, 64
2, 13007, Note_on_c, 0, 79, 0
2, 13008, Note_on_c, 0, 76, 64
2, 13031, Note_on_c, 0, 76, 0
2, 13032, Note_on_c, 0, 73, 64
2, 13055, Note_on_c, 0, 73, 0
2, 13056, Note_on_c, 0, 69, 64
2, 13104, Note_on_c, 0, 69, 0
2, 13104, Note_on_c, 0, 78, 64
2, 13104, Note_on_c, 0, 74, 64
2, 13149, Note_on_c, 0, 78, 0
2, 13149, Note_on_c, 0, 74, 0
2, 13152, Note_on_c, 0, 78, 64
2, 13152, Note_on_c, 0, 74, 64
2, 13172, Note_on_c, 0, 78, 0
2, 13172, Note_on_c, 0, 74, 0
2, 13200, Note_on_c, 0, 78, 64
2, 13200, Note_on_c, 0, 74, 64
2, 13220, Note_on_c, 0, 78, 0
2, 13220, Note_on_c, 0, 74, 0
2, 13248, Note_on_c, 0, 81, 64
2, 13248, Note_on_c, 0, 78, 64
2, 13296, Note_on_c, 0, 81, 0
2, 13296, Note_on_c, 0, 74, 64
2, 13341, Note_on_c, 0, 78, 0
2, 13341, Note_on_c, 0, 74, 0
2, 13344, Note_on_c, 0, 78, 64
2, 13344, Note_on_c, 0, 74, 64
2, 13364, Note_on_c, 0, 78, 0
2, 13364, Note_on_c, 0, 74, 0
2, 13392, Note_on_c, 0, 78, 64
2, 13392, Note_on_c, 0, 74, 64
2, 13412, Note_on_c, 0, 78, 0
2, 13412, Note_on_c, 0, 74, 0
2, 13440, Note_on_c, 0, 81, 64
2, 13440, Note_on_c, 0, 78, 64
2, 13529, Note_on_c, 0, 81, 0
2, 13529, Note_on_c, 0, 78, 0
2, 13776, Note_on_c, 0, 59, 64
2, 13796, Note_on_c, 0, 59, 0
2, 13824, Note_on_c, 0, 59, 64
2, 13844, Note_on_c, 0, 59, 0
2, 13872, Note_on_c, 0, 59, 64
2, 13892, Note_on_c, 0, 59, 0
2, 13920, Note_on_c, 0, 59, 64
2, 13940, Note_on_c, 0, 59, 0
2, 13968, Note_on_c, 0, 59, 64
2, 13988, Note_on_c, 0, 59, 0
2, 14016, Note_on_c, 0, 62, 64
2, 14061, Note_on_c, 0, 62, 0
2, 14064, Note_on_c, 0, 61, 64
2, 14109, Note_on_c, 0, 61, 0
2, 14112, Note_on_c, 0, 59, 64
2, 14157, Note_on_c, 0, 59, 0
2, 14160, Note_on_c, 0, 67, 64
2, 14180, Note_on_c, 0, 67, 0
2, 14208, Note_on_c, 0, 66, 64
2, 14253, Note_on_c, 0, 66, 0
2, 14256, Note_on_c, 0, 65, 64
2, 14301, Note_on_c, 0, 65, 0
2, 14304, Note_on_c, 0, 66, 64
2, 14349, Note_on_c, 0, 66, 0
2, 14352, Note_on_c, 0, 64, 64
2, 14372, Note_on_c, 0, 64, 0
2, 14400, Note_on_c, 0, 62, 64
2, 14445, Note_on_c, 0, 62, 0
2, 14448, Note_on_c, 0, 61, 64
2, 14493, Note_on_c, 0, 61, 0
2, 14496, Note_on_c, 0, 62, 64
2, 14541, Note_on_c, 0, 62, 0
2, 14544, Note_on_c, 0, 61, 64
2, 14564, Note_on_c, 0, 61, 0
2, 14592, Note_on_c, 0, 59, 64
2, 14637, Note_on_c, 0, 59, 0
2, 14640, Note_on_c, 0, 58, 64
2, 14685, Note_on_c, 0, 58, 0
2, 14688, Note_on_c, 0, 59, 64
2, 14733, Note_on_c, 0, 59, 0
2, 14736, Note_on_c, 0, 59, 64
2, 14756, Note_on_c, 0, 59, 0
2, 14784, Note_on_c, 0, 59, 64
2, 14804, Note_on_c, 0, 59, 0
2, 14832, Note_on_c, 0, 59, 64
2, 14852, Note_on_c, 0, 59, 0
2, 14880, Note_on_c, 0, 59, 64
2, 14900, Note_on_c, 0, 59, 0
2, 14928, Note_on_c, 0, 64, 64
2, 14948, Note_on_c, 0, 64, 0
2, 14976, Note_on_c, 0, 62, 64
2, 15021, Note_on_c, 0, 62, 0
2, 15024, Note_on_c, 0, 61, 64
2, 15069, Note_on_c, 0, 61, 0
2, 15072, Note_on_c, 0, 59, 64
2, 15117, Note_on_c, 0, 59, 0
2, 15120, Note_on_c, 0, 67, 64
2, 15140, Note_on_c, 0, 67, 0
2, 15168, Note_on_c, 0, 66, 64
2, 15213, Note_on_c, 0, 66, 0
2, 15216, Note_on_c, 0, 64, 64
2, 15261, Note_on_c, 0, 64, 0
2, 15264, Note_on_c, 0, 62, 64
2, 15309, Note_on_c, 0, 62, 0
2, 15312, Note_on_c, 0, 61, 64
2, 15332, Note_on_c, 0, 61, 0
2, 15360, Note_on_c, 0, 59, 64
2, 15449, Note_on_c, 0, 59, 0
2, 15504, Note_on_c, 0, 59, 64
2, 15524, Note_on_c, 0, 59, 0
2, 15552, Note_on_c, 0, 59, 64
2, 15572, Note_on_c, 0, 59, 0
2, 15600, Note_on_c, 0, 59, 64
2, 15620, Note_on_c, 0, 59, 0
2, 15648, Note_on_c, 0, 59, 64
2, 15668, Note_on_c, 0, 59, 0
2, 15696, Note_on_c, 0, 64, 64
2, 15716, Note_on_c, 0, 64, 0
2, 15744, Note_on_c, 0, 62, 64
2, 15789, Note_on_c, 0, 62, 0
2, 15792, Note_on_c, 0, 61, 64
2, 15837, Note_on_c, 0, 61, 0
2, 15840, Note_on_c, 0, 59, 64
2, 15885, Note_on_c, 0, 59, 0
2, 15888, Note_on_c, 0, 71, 64
2, 15933, Note_on_c, 0, 71, 0
2, 15936, Note_on_c, 0, 69, 64
2, 15981, Note_on_c, 0, 69, 0
2, 15984, Note_on_c, 0, 67, 64
2, 16029, Note_on_c, 0, 67, 0
2, 16032, Note_on_c, 0, 66, 64
2, 16077, Note_on_c, 0, 66, 0
2, 16080, Note_on_c, 0, 65, 64
2, 16100, Note_on_c, 0, 65, 0
2, 16128, Note_on_c, 0, 66, 64
2, 16217, Note_on_c, 0, 66, 0
2, 16272, Note_on_c, 0, 71, 64
2, 16292, Note_on_c, 0, 71, 0
2, 16320, Note_on_c, 0, 71, 64
2, 16340, Note_on_c, 0, 71, 0
2, 16368, Note_on_c, 0, 71, 64
2, 16388, Note_on_c, 0, 71, 0
2, 16416, Note_on_c, 0, 71, 64
2, 16436, Note_on_c, 0, 71, 0
2, 16464, Note_on_c, 0, 71, 64
2, 16484, Note_on_c, 0, 71, 0
2, 16512, Note_on_c, 0, 74, 64
2, 16557, Note_on_c, 0, 74, 0
2, 16560, Note_on_c, 0, 73, 64
2, 16605, Note_on_c, 0, 73, 0
2, 16608, Note_on_c, 0, 71, 64
2, 16653, Note_on_c, 0, 71, 0
2, 16656, Note_on_c, 0, 79, 64
2, 16676, Note_on_c, 0, 79, 0
2, 16704, Note_on_c, 0, 78, 64
2, 16749, Note_on_c, 0, 78, 0
2, 16752, Note_on_c, 0, 77, 64
2, 16797, Note_on_c, 0, 77, 0
2, 16800, Note_on_c, 0, 78, 64
2, 16845, Note_on_c, 0, 78, 0
2, 16848, Note_on_c, 0, 79, 64
2, 16868, Note_on_c, 0, 79, 0
2, 16896, Note_on_c, 0, 78, 64
2, 16941, Note_on_c, 0, 78, 0
2, 16944, Note_on_c, 0, 77, 64
2, 16989, Note_on_c, 0, 77, 0
2, 16992, Note_on_c, 0, 78, 64
2, 17037, Note_on_c, 0, 78, 0
2, 17040, Note_on_c, 0, 79, 64
2, 17060, Note_on_c, 0, 79, 0
2, 17088, Note_on_c, 0, 78, 64
2, 17133, Note_on_c, 0, 78, 0
2, 17136, Note_on_c, 0, 77, 64
2, 17181, Note_on_c, 0, 77, 0
2, 17184, Note_on_c, 0, 78, 64
2, 17229, Note_on_c, 0, 78, 0
2, 17616, Note_on_c, 0, 79, 64
2, 17636, Note_on_c, 0, 79, 0
2, 17664, Note_on_c, 0, 78, 64
2, 17709, Note_on_c, 0, 78, 0
2, 17712, Note_on_c, 0, 77, 64
2, 17757, Note_on_c, 0, 77, 0
2, 17760, Note_on_c, 0, 78, 64
2, 17805, Note_on_c, 0, 78, 0
2, 17808, Note_on_c, 0, 76, 64
2, 17828, Note_on_c, 0, 76, 0
2, 17856, Note_on_c, 0, 74, 64
2, 17901, Note_on_c, 0, 74, 0
2, 17904, Note_on_c, 0, 73, 64
2, 17949, Note_on_c, 0, 73, 0
2, 17952, Note_on_c, 0, 74, 64
2, 17997, Note_on_c, 0, 74, 0
2, 18000, Note_on_c, 0, 86, 64
2, 18000, Note_on_c, 0, 74, 64
2, 18020, Note_on_c, 0, 86, 0
2, 18020, Note_on_c, 0, 74, 0
2, 18048, Note_on_c, 0, 85, 64
2, 18048, Note_on_c, 0, 73, 64
2, 18093, Note_on_c, 0, 85, 0
2, 18093, Note_on_c, 0, 73, 0
2, 18096, Note_on_c, 0, 84, 64
2, 18096, Note_on_c, 0, 72, 64
2, 18141, Note_on_c, 0, 84, 0
2, 18141, Note_on_c, 0, 72, 0
2, 18144, Note_on_c, 0, 83, 64
2, 18144, Note_on_c, 0, 71, 64
2, 18189, Note_on_c, 0, 83, 0
2, 18189, Note_on_c, 0, 71, 0
2, 18192, Note_on_c, 0, 82, 64
2, 18192, Note_on_c, 0, 70, 64
2, 18212, Note_on_c, 0, 82, 0
2, 18212, Note_on_c, 0, 70, 0
2, 18240, Note_on_c, 0, 83, 64
2, 18240, Note_on_c, 0, 71, 64
2, 18329, Note_on_c, 0, 83, 0
2, 18329, Note_on_c, 0, 71, 0
2, 18384, Note_on_c, 0, 83, 64
2, 18384, Note_on_c, 0, 79, 64
2, 18432, Note_on_c, 0, 83, 0
2, 18432, Note_on_c, 0, 79, 0
2, 18432, Note_on_c, 0, 81, 64
2, 18432, Note_on_c, 0, 78, 64
2, 18521, Note_on_c, 0, 81, 0
2, 18521, Note_on_c, 0, 78, 0
2, 18576, Note_on_c, 0, 79, 64
2, 18576, Note_on_c, 0, 73, 64
2, 18624, Note_on_c, 0, 79, 0
2, 18624, Note_on_c, 0, 73, 0
2, 18624, Note_on_c, 0, 78, 64
2, 18624, Note_on_c, 0, 74, 64
2, 18713, Note_on_c, 0, 78, 0
2, 18713, Note_on_c, 0, 74, 0
2, 18768, Note_on_c, 0, 74, 64
2, 18768, Note_on_c, 0, 62, 64
2, 18788, Note_on_c, 0, 74, 0
2, 18788, Note_on_c, 0, 62, 0
2, 18816, Note_on_c, 0, 73, 64
2, 18816, Note_on_c, 0, 61, 64
2, 18861, Note_on_c, 0, 73, 0
2, 18861, Note_on_c, 0, 61, 0
2, 18864, Note_on_c, 0, 72, 64
2, 18864, Note_on_c, 0, 60, 64
2, 18909, Note_on_c, 0, 72, 0
2, 18909, Note_on_c, 0, 60, 0
2, 18912, Note_on_c, 0, 71, 64
2, 18912, Note_on_c, 0, 59, 64
2, 18957, Note_on_c, 0, 71, 0
2, 18957, Note_on_c, 0, 59, 0
2, 18960, Note_on_c, 0, 70, 64
2, 18960, Note_on_c, 0, 58, 64
2, 18980, Note_on_c, 0, 70, 0
2, 18980, Note_on_c, 0, 58, 0
2, 19008, Note_on_c, 0, 71, 64
2, 19008, Note_on_c, 0, 59, 64
2, 19141, Note_on_c, 0, 71, 0
2, 19141, Note_on_c, 0, 59, 0
2, 19152, Note_on_c, 0, 75, 64
2, 19152, Note_on_c, 0, 63, 64
2, 19172, Note_on_c, 0, 75, 0
2, 19172, Note_on_c, 0, 63, 0
2, 19200, Note_on_c, 0, 76, 64
2, 19200, Note_on_c, 0, 64, 64
2, 19333, Note_on_c, 0, 76, 0
2, 19333, Note_on_c, 0, 64, 0
2, 19344, Note_on_c, 0, 78, 64
2, 19344, Note_on_c, 0, 66, 64
2, 19364, Note_on_c, 0, 78, 0
2, 19364, Note_on_c, 0, 66, 0
2, 19392, Note_on_c, 0, 79, 64
2, 19392, Note_on_c, 0, 67, 64
2, 19525, Note_on_c, 0, 79, 0
2, 19525, Note_on_c, 0, 67, 0
2, 19536, Note_on_c, 0, 82, 64
2, 19536, Note_on_c, 0, 70, 64
2, 19556, Note_on_c, 0, 82, 0
2, 19556, Note_on_c, 0, 70, 0
2, 19584, Note_on_c, 0, 83, 64
2, 19584, Note_on_c, 0, 71, 64
2, 19717, Note_on_c, 0, 83, 0
2, 19717, Note_on_c, 0, 71, 0
2, 19728, Note_on_c, 0, 85, 64
2, 19728, Note_on_c, 0, 73, 64
2, 19748, Note_on_c, 0, 85, 0
2, 19748, Note_on_c, 0, 73, 0
2, 19776, Note_on_c, 0, 86, 64
2, 19776, Note_on_c, 0, 74, 64
2, 19909, Note_on_c, 0, 86, 0
2, 19909, Note_on_c, 0, 74, 0
2, 19920, Note_on_c, 0, 76, 64
2, 19940, Note_on_c, 0, 76, 0
2, 19968, Note_on_c, 0, 85, 64
2, 20101, Note_on_c, 0, 85, 0
2, 20112, Note_on_c, 0, 74, 64
2, 20132, Note_on_c, 0, 74, 0
2, 20160, Note_on_c, 0, 86, 64
2, 20293, Note_on_c, 0, 86, 0
2, 20304, Note_on_c, 0, 76, 64
2, 20324, Note_on_c, 0, 76, 0
2, 20352, Note_on_c, 0, 85, 64
2, 20485, Note_on_c, 0, 85, 0
2, 20496, Note_on_c, 0, 74, 64
2, 20516, Note_on_c, 0, 74, 0
2, 20544, Note_on_c, 0, 86, 64
2, 20677, Note_on_c, 0, 86, 0
2, 20688, Note_on_c, 0, 76, 64
2, 20736, Note_on_c, 0, 85, 64
2, 21061, Note_on_c, 0, 85, 0
2, 21061, Note_on_c, 0, 76, 0
2, 21072, Note_on_c, 0, 74, 64
2, 21092, Note_on_c, 0, 74, 0
2, 21120, Note_on_c, 0, 74, 64
2, 21140, Note_on_c, 0, 74, 0
2, 21168, Note_on_c, 0, 74, 64
2, 21188, Note_on_c, 0, 74, 0
2, 21216, Note_on_c, 0, 74, 64
2, 21236, Note_on_c, 0, 74, 0
2, 21264, Note_on_c, 0, 74, 64
2, 21284, Note_on_c, 0, 74, 0
2, 21312, Note_on_c, 0, 74, 64
2, 21335, Note_on_c, 0, 74, 0
2, 21336, Note_on_c, 0, 76, 64
2, 21359, Note_on_c, 0, 76, 0
2, 21360, Note_on_c, 0, 78, 64
2, 21383, Note_on_c, 0, 78, 0
2, 21384, Note_on_c, 0, 76, 64
2, 21407, Note_on_c, 0, 76, 0
2, 21408, Note_on_c, 0, 74, 64
2, 21431, Note_on_c, 0, 74, 0
2, 21432, Note_on_c, 0, 76, 64
2, 21455, Note_on_c, 0, 76, 0
2, 21456, Note_on_c, 0, 78, 64
2, 21479, Note_on_c, 0, 78, 0
2, 21480, Note_on_c, 0, 76, 64
2, 21503, Note_on_c, 0, 76, 0
2, 21504, Note_on_c, 0, 74, 64
2, 21527, Note_on_c, 0, 74, 0
2, 21528, Note_on_c, 0, 76, 64
2, 21551, Note_on_c, 0, 76, 0
2, 21552, Note_on_c, 0, 78, 64
2, 21575, Note_on_c, 0, 78, 0
2, 21576, Note_on_c, 0, 76, 64
2, 21599, Note_on_c, 0, 76, 0
2, 21600, Note_on_c, 0, 74, 64
2, 21623, Note_on_c, 0, 74, 0
2, 21624, Note_on_c, 0, 76, 64
2, 21647, Note_on_c, 0, 76, 0
2, 21648, Note_on_c, 0, 78, 64
2, 21671, Note_on_c, 0, 78, 0
2, 21672, Note_on_c, 0, 76, 64
2, 21695, Note_on_c, 0, 76, 0
2, 21696, Note_on_c, 0, 74, 64
2, 21719, Note_on_c, 0, 74, 0
2, 21720, Note_on_c, 0, 76, 64
2, 21743, Note_on_c, 0, 76, 0
2, 21744, Note_on_c, 0, 78, 64
2, 21767, Note_on_c, 0, 78, 0
2, 21768, Note_on_c, 0, 76, 64
2, 21791, Note_on_c, 0, 76, 0
2, 21792, Note_on_c, 0, 74, 64
2, 21815, Note_on_c, 0, 74, 0
2, 21816, Note_on_c, 0, 76, 64
2, 21839, Note_on_c, 0, 76, 0
2, 21840, Note_on_c, 0, 78, 64
2, 21863, Note_on_c, 0, 78, 0
2, 21864, Note_on_c, 0, 76, 64
2, 21887, Note_on_c, 0, 76, 0
2, 21888, Note_on_c, 0, 74, 64
2, 21911, Note_on_c, 0, 74, 0
2, 21912, Note_on_c, 0, 76, 64
2, 21935, Note_on_c, 0, 76, 0
2, 21936, Note_on_c, 0, 78, 64
2, 21959, Note_on_c, 0, 78, 0
2, 21960, Note_on_c, 0, 76, 64
2, 21983, Note_on_c, 0, 76, 0
2, 21984, Note_on_c, 0, 74, 64
2, 22007, Note_on_c, 0, 74, 0
2, 22008, Note_on_c, 0, 76, 64
2, 22031, Note_on_c, 0, 76, 0
2, 22032, Note_on_c, 0, 78, 64
2, 22055, Note_on_c, 0, 78, 0
2, 22056, Note_on_c, 0, 76, 64
2, 22079, Note_on_c, 0, 76, 0
2, 22080, Note_on_c, 0, 74, 64
2, 22103, Note_on_c, 0, 74, 0
2, 22104, Note_on_c, 0, 76, 64
2, 22127, Note_on_c, 0, 76, 0
2, 22128, Note_on_c, 0, 78, 64
2, 22151, Note_on_c, 0, 78, 0
2, 22152, Note_on_c, 0, 76, 64
2, 22175, Note_on_c, 0, 76, 0
2, 22176, Note_on_c, 0, 74, 64
2, 22199, Note_on_c, 0, 74, 0
2, 22200, Note_on_c, 0, 76, 64
2, 22223, Note_on_c, 0, 76, 0
2, 22224, Note_on_c, 0, 78, 64
2, 22247, Note_on_c, 0, 78, 0
2, 22248, Note_on_c, 0, 76, 64
2, 22271, Note_on_c, 0, 76, 0
2, 22272, Note_on_c, 0, 74, 64
2, 22295, Note_on_c, 0, 74, 0
2, 22296, Note_on_c, 0, 76, 64
2, 22319, Note_on_c, 0, 76, 0
2, 22320, Note_on_c, 0, 78, 64
2, 22343, Note_on_c, 0, 78, 0
2, 22344, Note_on_c, 0, 76, 64
2, 22367, Note_on_c, 0, 76, 0
2, 22368, Note_on_c, 0, 74, 64
2, 22391, Note_on_c, 0, 74, 0
2, 22392, Note_on_c, 0, 76, 64
2, 22415, Note_on_c, 0, 76, 0
2, 22416, Note_on_c, 0, 78, 64
2, 22439, Note_on_c, 0, 78, 0
2, 22440, Note_on_c, 0, 76, 64
2, 22463, Note_on_c, 0, 76, 0
2, 22464, Note_on_c, 0, 74, 64
2, 22487, Note_on_c, 0, 74, 0
2, 22488, Note_on_c, 0, 76, 64
2, 22511, Note_on_c, 0, 76, 0
2, 22512, Note_on_c, 0, 78, 64
2, 22535, Note_on_c, 0, 78, 0
2, 22536, Note_on_c, 0, 76, 64
2, 22559, Note_on_c, 0, 76, 0
2, 22560, Note_on_c, 0, 74, 64
2, 22583, Note_on_c, 0, 74, 0
2, 22584, Note_on_c, 0, 76, 64
2, 22607, Note_on_c, 0, 76, 0
2, 22608, Note_on_c, 0, 78, 64
2, 22631, Note_on_c, 0, 78, 0
2, 22632, Note_on_c, 0, 76, 64
2, 22655, Note_on_c, 0, 76, 0
2, 22656, Note_on_c, 0, 74, 64
2, 22679, Note_on_c, 0, 74, 0
2, 22680, Note_on_c, 0, 76, 64
2, 22703, Note_on_c, 0, 76, 0
2, 22704, Note_on_c, 0, 78, 64
2, 22727, Note_on_c, 0, 78, 0
2, 22728, Note_on_c, 0, 79, 64
2, 22751, Note_on_c, 0, 79, 0
2, 22752, Note_on_c, 0, 81, 64
2, 22775, Note_on_c, 0, 81, 0
2, 22776, Note_on_c, 0, 83, 64
2, 22799, Note_on_c, 0, 83, 0
2, 22800, Note_on_c, 0, 85, 64
2, 22823, Note_on_c, 0, 85, 0
2, 22824, Note_on_c, 0, 86, 64
2, 22847, Note_on_c, 0, 86, 0
2, 22848, Note_on_c, 0, 85, 64
2, 22871, Note_on_c, 0, 85, 0
2, 22872, Note_on_c, 0, 83, 64
2, 22895, Note_on_c, 0, 83, 0
2, 22896, Note_on_c, 0, 82, 64
2, 22919, Note_on_c, 0, 82, 0
2, 22920, Note_on_c, 0, 83, 64
2, 22943, Note_on_c, 0, 83, 0
2, 22944, Note_on_c, 0, 82, 64
2, 22967, Note_on_c, 0, 82, 0
2, 22968, Note_on_c, 0, 83, 64
2, 22991, Note_on_c, 0, 83, 0
2, 22992, Note_on_c, 0, 82, 64
2, 23015, Note_on_c, 0, 82, 0
2, 23016, Note_on_c, 0, 83, 64
2, 23039, Note_on_c, 0, 83, 0
2, 23040, Note_on_c, 0, 86, 64
2, 23063, Note_on_c, 0, 86, 0
2, 23064, Note_on_c, 0, 83, 64
2, 23087, Note_on_c, 0, 83, 0
2, 23088, Note_on_c, 0, 81, 64
2, 23111, Note_on_c, 0, 81, 0
2, 23112, Note_on_c, 0, 79, 64
2, 23135, Note_on_c, 0, 79, 0
2, 23136, Note_on_c, 0, 83, 64
2, 23159, Note_on_c, 0, 83, 0
2, 23160, Note_on_c, 0, 79, 64
2, 23183, Note_on_c, 0, 79, 0
2, 23184, Note_on_c, 0, 78, 64
2, 23207, Note_on_c, 0, 78, 0
2, 23208, Note_on_c, 0, 76, 64
2, 23231, Note_on_c, 0, 76, 0
2, 23232, Note_on_c, 0, 81, 64
2, 23255, Note_on_c, 0, 81, 0
2, 23256, Note_on_c, 0, 80, 64
2, 23279, Note_on_c, 0, 80, 0
2, 23280, Note_on_c, 0, 81, 64
2, 23303, Note_on_c, 0, 81, 0
2, 23304, Note_on_c, 0, 80, 64
2, 23327, Note_on_c, 0, 80, 0
2, 23328, Note_on_c, 0, 81, 64
2, 23351, Note_on_c, 0, 81, 0
2, 23352, Note_on_c, 0, 78, 64
2, 23375, Note_on_c, 0, 78, 0
2, 23376, Note_on_c, 0, 76, 64
2, 23399, Note_on_c, 0, 76, 0
2, 23400, Note_on_c, 0, 74, 64
2, 23423, Note_on_c, 0, 74, 0
2, 23424, Note_on_c, 0, 78, 64
2, 23443, Note_on_c, 0, 78, 0
2, 23444, Note_on_c, 0, 76, 64
2, 23463, Note_on_c, 0, 76, 0
2, 23464, Note_on_c, 0, 78, 64
2, 23482, Note_on_c, 0, 78, 0
2, 23483, Note_on_c, 0, 76, 64
2, 23501, Note_on_c, 0, 76, 0
2, 23502, Note_on_c, 0, 78, 64
2, 23520, Note_on_c, 0, 78, 0
2, 23521, Note_on_c, 0, 76, 64
2, 23539, Note_on_c, 0, 76, 0
2, 23540, Note_on_c, 0, 78, 64
2, 23558, Note_on_c, 0, 78, 0
2, 23559, Note_on_c, 0, 76, 64
2, 23577, Note_on_c, 0, 76, 0
2, 23578, Note_on_c, 0, 74, 64
2, 23596, Note_on_c, 0, 74, 0
2, 23597, Note_on_c, 0, 76, 64
2, 23615, Note_on_c, 0, 76, 0
2, 23616, Note_on_c, 0, 74, 64
2, 23639, Note_on_c, 0, 74, 0
2, 23640, Note_on_c, 0, 76, 64
2, 23663, Note_on_c, 0, 76, 0
2, 23664, Note_on_c, 0, 78, 64
2, 23687, Note_on_c, 0, 78, 0
2, 23688, Note_on_c, 0, 76, 64
2, 23711, Note_on_c, 0, 76, 0
2, 23712, Note_on_c, 0, 74, 64
2, 23735, Note_on_c, 0, 74, 0
2, 23736, Note_on_c, 0, 76, 64
2, 23759, Note_on_c, 0, 76, 0
2, 23760, Note_on_c, 0, 78, 64
2, 23783, Note_on_c, 0, 78, 0
2, 23784, Note_on_c, 0, 76, 64
2, 23807, Note_on_c, 0, 76, 0
2, 23808, Note_on_c, 0, 74, 64
2, 23831, Note_on_c, 0, 74, 0
2, 23832, Note_on_c, 0, 76, 64
2, 23855, Note_on_c, 0, 76, 0
2, 23856, Note_on_c, 0, 78, 64
2, 23879, Note_on_c, 0, 78, 0
2, 23880, Note_on_c, 0, 76, 64
2, 23903, Note_on_c, 0, 76, 0
2, 23904, Note_on_c, 0, 74, 64
2, 23927, Note_on_c, 0, 74, 0
2, 23928, Note_on_c, 0, 76, 64
2, 23951, Note_on_c, 0, 76, 0
2, 23952, Note_on_c, 0, 78, 64
2, 23975, Note_on_c, 0, 78, 0
2, 23976, Note_on_c, 0, 76, 64
2, 23999, Note_on_c, 0, 76, 0
2, 24000, Note_on_c, 0, 74, 64
2, 24023, Note_on_c, 0, 74, 0
2, 24024, Note_on_c, 0, 76, 64
2, 24047, Note_on_c, 0, 76, 0
2, 24048, Note_on_c, 0, 78, 64
2, 24071, Note_on_c, 0, 78, 0
2, 24072, Note_on_c, 0, 76, 64
2, 24095, Note_on_c, 0, 76, 0
2, 24096, Note_on_c, 0, 74, 64
2, 24119, Note_on_c, 0, 74, 0
2, 24120, Note_on_c, 0, 76, 64
2, 24143, Note_on_c, 0, 76, 0
2, 24144, Note_on_c, 0, 78, 64
2, 24167, Note_on_c, 0, 78, 0
2, 24168, Note_on_c, 0, 76, 64
2, 24191, Note_on_c, 0, 76, 0
2, 24192, Note_on_c, 0, 74, 64
2, 24215, Note_on_c, 0, 74, 0
2, 24216, Note_on_c, 0, 76, 64
2, 24239, Note_on_c, 0, 76, 0
2, 24240, Note_on_c, 0, 78, 64
2, 24263, Note_on_c, 0, 78, 0
2, 24264, Note_on_c, 0, 76, 64
2, 24287, Note_on_c, 0, 76, 0
2, 24288, Note_on_c, 0, 74, 64
2, 24311, Note_on_c, 0, 74, 0
2, 24312, Note_on_c, 0, 76, 64
2, 24335, Note_on_c, 0, 76, 0
2, 24336, Note_on_c, 0, 78, 64
2, 24359, Note_on_c, 0, 78, 0
2, 24360, Note_on_c, 0, 76, 64
2, 24383, Note_on_c, 0, 76, 0
2, 24384, Note_on_c, 0, 74, 64
2, 24407, Note_on_c, 0, 74, 0
2, 24408, Note_on_c, 0, 76, 64
2, 24431, Note_on_c, 0, 76, 0
2, 24432, Note_on_c, 0, 78, 64
2, 24455, Note_on_c, 0, 78, 0
2, 24456, Note_on_c, 0, 76, 64
2, 24479, Note_on_c, 0, 76, 0
2, 24480, Note_on_c, 0, 74, 64
2, 24503, Note_on_c, 0, 74, 0
2, 24504, Note_on_c, 0, 76, 64
2, 24527, Note_on_c, 0, 76, 0
2, 24528, Note_on_c, 0, 78, 64
2, 24551, Note_on_c, 0, 78, 0
2, 24552, Note_on_c, 0, 76, 64
2, 24575, Note_on_c, 0, 76, 0
2, 24576, Note_on_c, 0, 74, 64
2, 24599, Note_on_c, 0, 74, 0
2, 24600, Note_on_c, 0, 76, 64
2, 24623, Note_on_c, 0, 76, 0
2, 24624, Note_on_c, 0, 78, 64
2, 24647, Note_on_c, 0, 78, 0
2, 24648, Note_on_c, 0, 76, 64
2, 24671, Note_on_c, 0, 76, 0
2, 24672, Note_on_c, 0, 74, 64
2, 24695, Note_on_c, 0, 74, 0
2, 24696, Note_on_c, 0, 76, 64
2, 24719, Note_on_c, 0, 76, 0
2, 24720, Note_on_c, 0, 78, 64
2, 24743, Note_on_c, 0, 78, 0
2, 24744, Note_on_c, 0, 76, 64
2, 24767, Note_on_c, 0, 76, 0
2, 24768, Note_on_c, 0, 74, 64
2, 24791, Note_on_c, 0, 74, 0
2, 24792, Note_on_c, 0, 76, 64
2, 24815, Note_on_c, 0, 76, 0
2, 24816, Note_on_c, 0, 78, 64
2, 24839, Note_on_c, 0, 78, 0
2, 24840, Note_on_c, 0, 76, 64
2, 24863, Note_on_c, 0, 76, 0
2, 24864, Note_on_c, 0, 74, 64
2, 24887, Note_on_c, 0, 74, 0
2, 24888, Note_on_c, 0, 76, 64
2, 24911, Note_on_c, 0, 76, 0
2, 24912, Note_on_c, 0, 78, 64
2, 24935, Note_on_c, 0, 78, 0
2, 24936, Note_on_c, 0, 76, 64
2, 24959, Note_on_c, 0, 76, 0
2, 24960, Note_on_c, 0, 74, 64
2, 24983, Note_on_c, 0, 74, 0
2, 24984, Note_on_c, 0, 76, 64
2, 25007, Note_on_c, 0, 76, 0
2, 25008, Note_on_c, 0, 78, 64
2, 25031, Note_on_c, 0, 78, 0
2, 25032, Note_on_c, 0, 79, 64
2, 25055, Note_on_c, 0, 79, 0
2, 25056, Note_on_c, 0, 81, 64
2, 25079, Note_on_c, 0, 81, 0
2, 25080, Note_on_c, 0, 83, 64
2, 25103, Note_on_c, 0, 83, 0
2, 25104, Note_on_c, 0, 85, 64
2, 25127, Note_on_c, 0, 85, 0
2, 25128, Note_on_c, 0, 86, 64
2, 25151, Note_on_c, 0, 86, 0
2, 25152, Note_on_c, 0, 85, 64
2, 25175, Note_on_c, 0, 85, 0
2, 25176, Note_on_c, 0, 83, 64
2, 25199, Note_on_c, 0, 83, 0
2, 25200, Note_on_c, 0, 82, 64
2, 25223, Note_on_c, 0, 82, 0
2, 25224, Note_on_c, 0, 83, 64
2, 25247, Note_on_c, 0, 83, 0
2, 25248, Note_on_c, 0, 82, 64
2, 25271, Note_on_c, 0, 82, 0
2, 25272, Note_on_c, 0, 83, 64
2, 25295, Note_on_c, 0, 83, 0
2, 25296, Note_on_c, 0, 82, 64
2, 25319, Note_on_c, 0, 82, 0
2, 25320, Note_on_c, 0, 83, 64
2, 25343, Note_on_c, 0, 83, 0
2, 25344, Note_on_c, 0, 86, 64
2, 25367, Note_on_c, 0, 86, 0
2, 25368, Note_on_c, 0, 83, 64
2, 25391, Note_on_c, 0, 83, 0
2, 25392, Note_on_c, 0, 81, 64
2, 25415, Note_on_c, 0, 81, 0
2, 25416, Note_on_c, 0, 79, 64
2, 25439, Note_on_c, 0, 79, 0
2, 25440, Note_on_c, 0, 83, 64
2, 25463, Note_on_c, 0, 83, 0
2, 25464, Note_on_c, 0, 79, 64
2, 25487, Note_on_c, 0, 79, 0
2, 25488, Note_on_c, 0, 78, 64
2, 25511, Note_on_c, 0, 78, 0
2, 25512, Note_on_c, 0, 76, 64
2, 25535, Note_on_c, 0, 76, 0
2, 25536, Note_on_c, 0, 81, 64
2, 25559, Note_on_c, 0, 81, 0
2, 25560, Note_on_c, 0, 80, 64
2, 25583, Note_on_c, 0, 80, 0
2, 25584, Note_on_c, 0, 81, 64
2, 25607, Note_on_c, 0, 81, 0
2, 25608, Note_on_c, 0, 80, 64
2, 25631, Note_on_c, 0, 80, 0
2, 25632, Note_on_c, 0, 81, 64
2, 25655, Note_on_c, 0, 81, 0
2, 25656, Note_on_c, 0, 78, 64
2, 25679, Note_on_c, 0, 78, 0
2, 25680, Note_on_c, 0, 76, 64
2, 25703, Note_on_c, 0, 76, 0
2, 25704, Note_on_c, 0, 74, 64
2, 25727, Note_on_c, 0, 74, 0
2, 25728, Note_on_c, 0, 78, 64
2, 25747, Note_on_c, 0, 78, 0
2, 25748, Note_on_c, 0, 76, 64
2, 25767, Note_on_c, 0, 76, 0
2, 25768, Note_on_c, 0, 78, 64
2, 25786, Note_on_c, 0, 78, 0
2, 25787, Note_on_c, 0, 76, 64
2, 25805, Note_on_c, 0, 76, 0
2, 25806, Note_on_c, 0, 78, 64
2, 25824, Note_on_c, 0, 78, 0
2, 25825, Note_on_c, 0, 76, 64
2, 25843, Note_on_c, 0, 76, 0
2, 25844, Note_on_c, 0, 78, 64
2, 25862, Note_on_c, 0, 78, 0
2, 25863, Note_on_c, 0, 76, 64
2, 25881, Note_on_c, 0, 76, 0
2, 25882, Note_on_c, 0, 74, 64
2, 25900, Note_on_c, 0, 74, 0
2, 25901, Note_on_c, 0, 76, 64
2, 25919, Note_on_c, 0, 76, 0
2, 25920, Note_on_c, 0, 74, 64
2, 25943, Note_on_c, 0, 74, 0
2, 25944, Note_on_c, 0, 81, 64
2, 25967, Note_on_c, 0, 81, 0
2, 25968, Note_on_c, 0, 78, 64
2, 25991, Note_on_c, 0, 78, 0
2, 25992, Note_on_c, 0, 74, 64
2, 26015, Note_on_c, 0, 74, 0
2, 26016, Note_on_c, 0, 69, 64
2, 26039, Note_on_c, 0, 69, 0
2, 26040, Note_on_c, 0, 79, 64
2, 26063, Note_on_c, 0, 79, 0
2, 26064, Note_on_c, 0, 76, 64
2, 26087, Note_on_c, 0, 76, 0
2, 26088, Note_on_c, 0, 73, 64
2, 26111, Note_on_c, 0, 73, 0
2, 26112, Note_on_c, 0, 69, 64
2, 26135, Note_on_c, 0, 69, 0
2, 26136, Note_on_c, 0, 81, 64
2, 26159, Note_on_c, 0, 81, 0
2, 26160, Note_on_c, 0, 78, 64
2, 26183, Note_on_c, 0, 78, 0
2, 26184, Note_on_c, 0, 74, 64
2, 26207, Note_on_c, 0, 74, 0
2, 26208, Note_on_c, 0, 69, 64
2, 26231, Note_on_c, 0, 69, 0
2, 26232, Note_on_c, 0, 79, 64
2, 26255, Note_on_c, 0, 79, 0
2, 26256, Note_on_c, 0, 76, 64
2, 26279, Note_on_c, 0, 76, 0
2, 26280, Note_on_c, 0, 73, 64
2, 26303, Note_on_c, 0, 73, 0
2, 26304, Note_on_c, 0, 69, 64
2, 26327, Note_on_c, 0, 69, 0
2, 26328, Note_on_c, 0, 81, 64
2, 26351, Note_on_c, 0, 81, 0
2, 26352, Note_on_c, 0, 78, 64
2, 26375, Note_on_c, 0, 78, 0
2, 26376, Note_on_c, 0, 74, 64
2, 26399, Note_on_c, 0, 74, 0
2, 26400, Note_on_c, 0, 69, 64
2, 26423, Note_on_c, 0, 69, 0
2, 26424, Note_on_c, 0, 79, 64
2, 26447, Note_on_c, 0, 79, 0
2, 26448, Note_on_c, 0, 76, 64
2, 26471, Note_on_c, 0, 76, 0
2, 26472, Note_on_c, 0, 73, 64
2, 26495, Note_on_c, 0, 73, 0
2, 26496, Note_on_c, 0, 69, 64
2, 26519, Note_on_c, 0, 69, 0
2, 26520, Note_on_c, 0, 81, 64
2, 26543, Note_on_c, 0, 81, 0
2, 26544, Note_on_c, 0, 78, 64
2, 26567, Note_on_c, 0, 78, 0
2, 26568, Note_on_c, 0, 74, 64
2, 26591, Note_on_c, 0, 74, 0
2, 26592, Note_on_c, 0, 69, 64
2, 26615, Note_on_c, 0, 69, 0
2, 26616, Note_on_c, 0, 79, 64
2, 26639, Note_on_c, 0, 79, 0
2, 26640, Note_on_c, 0, 76, 64
2, 26663, Note_on_c, 0, 76, 0
2, 26664, Note_on_c, 0, 73, 64
2, 26687, Note_on_c, 0, 73, 0
2, 26688, Note_on_c, 0, 69, 64
2, 26736, Note_on_c, 0, 69, 0
2, 26736, Note_on_c, 0, 78, 64
2, 26736, Note_on_c, 0, 74, 64
2, 26781, Note_on_c, 0, 78, 0
2, 26781, Note_on_c, 0, 74, 0
2, 26784, Note_on_c, 0, 78, 64
2, 26784, Note_on_c, 0, 74, 64
2, 26804, Note_on_c, 0, 78, 0
2, 26804, Note_on_c, 0, 74, 0
2, 26832, Note_on_c, 0, 78, 64
2, 26832, Note_on_c, 0, 74, 64
2, 26852, Note_on_c, 0, 78, 0
2, 26852, Note_on_c, 0, 74, 0
2, 26880, Note_on_c, 0, 81, 64
2, 26880, Note_on_c, 0, 78, 64
2, 26928, Note_on_c, 0, 81, 0
2, 26928, Note_on_c, 0, 74, 64
2, 26973, Note_on_c, 0, 78, 0
2, 26973, Note_on_c, 0, 74, 0
2, 26976, Note_on_c, 0, 78, 64
2, 26976, Note_on_c, 0, 74, 64
2, 26996, Note_on_c, 0, 78, 0
2, 26996, Note_on_c, 0, 74, 0
2, 27024, Note_on_c, 0, 78, 64
2, 27024, Note_on_c, 0, 74, 64
2, 27044, Note_on_c, 0, 78, 0
2, 27044, Note_on_c, 0, 74, 0
2, 27072, Note_on_c, 0, 81, 64
2, 27072, Note_on_c, 0, 78, 64
2, 27161, Note_on_c, 0, 81, 0
2, 27161, Note_on_c, 0, 78, 0
2, 27408, Note_on_c, 0, 57, 64
2, 27428, Note_on_c, 0, 57, 0
2, 27456, Note_on_c, 0, 57, 64
2, 27476, Note_on_c, 0, 57, 0
2, 27504, Note_on_c, 0, 57, 64
2, 27524, Note_on_c, 0, 57, 0
2, 27552, Note_on_c, 0, 57, 64
2, 27572, Note_on_c, 0, 57, 0
2, 27600, Note_on_c, 0, 57, 64
2, 27620, Note_on_c, 0, 57, 0
2, 27648, Note_on_c, 0, 66, 64
2, 27693, Note_on_c, 0, 66, 0
2, 27696, Note_on_c, 0, 64, 64
2, 27741, Note_on_c, 0, 64, 0
2, 27744, Note_on_c, 0, 63, 64
2, 27789, Note_on_c, 0, 63, 0
2, 27792, Note_on_c, 0, 72, 64
2, 27812, Note_on_c, 0, 72, 0
2, 27840, Note_on_c, 0, 71, 64
2, 27885, Note_on_c, 0, 71, 0
2, 27888, Note_on_c, 0, 69, 64
2, 27933, Note_on_c, 0, 69, 0
2, 27936, Note_on_c, 0, 67, 64
2, 27981, Note_on_c, 0, 67, 0
2, 27984, Note_on_c, 0, 66, 64
2, 28004, Note_on_c, 0, 66, 0
2, 28032, Note_on_c, 0, 64, 64
2, 28121, Note_on_c, 0, 64, 0
2, 28176, Note_on_c, 0, 76, 64
2, 28196, Note_on_c, 0, 76, 0
2, 28224, Note_on_c, 0, 76, 64
2, 28244, Note_on_c, 0, 76, 0
2, 28272, Note_on_c, 0, 76, 64
2, 28292, Note_on_c, 0, 76, 0
2, 28320, Note_on_c, 0, 76, 64
2, 28340, Note_on_c, 0, 76, 0
2, 28368, Note_on_c, 0, 76, 64
2, 28388, Note_on_c, 0, 76, 0
2, 28416, Note_on_c, 0, 79, 64
2, 28461, Note_on_c, 0, 79, 0
2, 28464, Note_on_c, 0, 78, 64
2, 28509, Note_on_c, 0, 78, 0
2, 28512, Note_on_c, 0, 76, 64
2, 28557, Note_on_c, 0, 76, 0
2, 28560, Note_on_c, 0, 84, 64
2, 28580, Note_on_c, 0, 84, 0
2, 28608, Note_on_c, 0, 83, 64
2, 28653, Note_on_c, 0, 83, 0
2, 28656, Note_on_c, 0, 81, 64
2, 28701, Note_on_c, 0, 81, 0
2, 28704, Note_on_c, 0, 79, 64
2, 28749, Note_on_c, 0, 79, 0
2, 28752, Note_on_c, 0, 78, 64
2, 28772, Note_on_c, 0, 78, 0
2, 28800, Note_on_c, 0, 76, 64
2, 28889, Note_on_c, 0, 76, 0
2, 28944, Note_on_c, 0, 88, 64
2, 28964, Note_on_c, 0, 88, 0
2, 28992, Note_on_c, 0, 86, 64
2, 29037, Note_on_c, 0, 86, 0
2, 29040, Note_on_c, 0, 84, 64
2, 29085, Note_on_c, 0, 84, 0
2, 29088, Note_on_c, 0, 83, 64
2, 29133, Note_on_c, 0, 83, 0
2, 29136, Note_on_c, 0, 81, 64
2, 29156, Note_on_c, 0, 81, 0
2, 29184, Note_on_c, 0, 79, 64
2, 29273, Note_on_c, 0, 79, 0
2, 29424, Note_on_c, 0, 85, 64
2, 29444, Note_on_c, 0, 85, 0
2, 29472, Note_on_c, 0, 85, 64
2, 29492, Note_on_c, 0, 85, 0
2, 29520, Note_on_c, 0, 85, 64
2, 29540, Note_on_c, 0, 85, 0
2, 29568, Note_on_c, 0, 78, 64
2, 29745, Note_on_c, 0, 78, 0
2, 29808, Note_on_c, 0, 83, 64
2, 29828, Note_on_c, 0, 83, 0
2, 29856, Note_on_c, 0, 83, 64
2, 29876, Note_on_c, 0, 83, 0
2, 29904, Note_on_c, 0, 83, 64
2, 29924, Note_on_c, 0, 83, 0
2, 29952, Note_on_c, 0, 76, 64
2, 30129, Note_on_c, 0, 76, 0
2, 30192, Note_on_c, 0, 81, 64
2, 30212, Note_on_c, 0, 81, 0
2, 30240, Note_on_c, 0, 81, 64
2, 30260, Note_on_c, 0, 81, 0
2, 30288, Note_on_c, 0, 81, 64
2, 30308, Note_on_c, 0, 81, 0
2, 30336, Note_on_c, 0, 74, 64
2, 30384, Note_on_c, 0, 74, 0
2, 30384, Note_on_c, 0, 86, 64
2, 30404, Note_on_c, 0, 86, 0
2, 30432, Note_on_c, 0, 86, 64
2, 30452, Note_on_c, 0, 86, 0
2, 30480, Note_on_c, 0, 86, 64
2, 30500, Note_on_c, 0, 86, 0
2, 30528, Note_on_c, 0, 72, 64
2, 30576, Note_on_c, 0, 72, 0
2, 30576, Note_on_c, 0, 84, 64
2, 30576, Note_on_c, 0, 78, 64
2, 30596, Note_on_c, 0, 84, 0
2, 30596, Note_on_c, 0, 78, 0
2, 30624, Note_on_c, 0, 84, 64
2, 30624, Note_on_c, 0, 78, 64
2, 30644, Note_on_c, 0, 84, 0
2, 30644, Note_on_c, 0, 78, 0
2, 30672, Note_on_c, 0, 84, 64
2, 30672, Note_on_c, 0, 78, 64
2, 30692, Note_on_c, 0, 84, 0
2, 30692, Note_on_c, 0, 78, 0
2, 30720, Note_on_c, 0, 83, 64
2, 30720, Note_on_c, 0, 79, 64
2, 30809, Note_on_c, 0, 83, 0
2, 30809, Note_on_c, 0, 79, 0
2, 30864, Note_on_c, 0, 67, 64
2, 30884, Note_on_c, 0, 67, 0
2, 30912, Note_on_c, 0, 67, 64
2, 30932, Note_on_c, 0, 67, 0
2, 30960, Note_on_c, 0, 67, 64
2, 30980, Note_on_c, 0, 67, 0
2, 31008, Note_on_c, 0, 67, 64
2, 31028, Note_on_c, 0, 67, 0
2, 31056, Note_on_c, 0, 67, 64
2, 31076, Note_on_c, 0, 67, 0
2, 31104, Note_on_c, 0, 71, 64
2, 31149, Note_on_c, 0, 71, 0
2, 31152, Note_on_c, 0, 69, 64
2, 31197, Note_on_c, 0, 69, 0
2, 31200, Note_on_c, 0, 67, 64
2, 31245, Note_on_c, 0, 67, 0
2, 31248, Note_on_c, 0, 76, 64
2, 31268, Note_on_c, 0, 76, 0
2, 31296, Note_on_c, 0, 74, 64
2, 31341, Note_on_c, 0, 74, 0
2, 31344, Note_on_c, 0, 73, 64
2, 31389, Note_on_c, 0, 73, 0
2, 31392, Note_on_c, 0, 74, 64
2, 31437, Note_on_c, 0, 74, 0
2, 31440, Note_on_c, 0, 76, 64
2, 31460, Note_on_c, 0, 76, 0
2, 31488, Note_on_c, 0, 74, 64
2, 31533, Note_on_c, 0, 74, 0
2, 31536, Note_on_c, 0, 73, 64
2, 31581, Note_on_c, 0, 73, 0
2, 31584, Note_on_c, 0, 74, 64
2, 31629, Note_on_c, 0, 74, 0
2, 31632, Note_on_c, 0, 76, 64
2, 31652, Note_on_c, 0, 76, 0
2, 31680, Note_on_c, 0, 74, 64
2, 31725, Note_on_c, 0, 74, 0
2, 31728, Note_on_c, 0, 73, 64
2, 31773, Note_on_c, 0, 73, 0
2, 31776, Note_on_c, 0, 74, 64
2, 31821, Note_on_c, 0, 74, 0
2, 32592, Note_on_c, 0, 68, 64
2, 32612, Note_on_c, 0, 68, 0
2, 32640, Note_on_c, 0, 68, 64
2, 32660, Note_on_c, 0, 68, 0
2, 32688, Note_on_c, 0, 68, 64
2, 32708, Note_on_c, 0, 68, 0
2, 32736, Note_on_c, 0, 68, 64
2, 32756, Note_on_c, 0, 68, 0
2, 32784, Note_on_c, 0, 68, 64
2, 32804, Note_on_c, 0, 68, 0
2, 32832, Note_on_c, 0, 71, 64
2, 32877, Note_on_c, 0, 71, 0
2, 32880, Note_on_c, 0, 69, 64
2, 32925, Note_on_c, 0, 69, 0
2, 32928, Note_on_c, 0, 68, 64
2, 32973, Note_on_c, 0, 68, 0
2, 32976, Note_on_c, 0, 74, 64
2, 32996, Note_on_c, 0, 74, 0
2, 33024, Note_on_c, 0, 73, 64
2, 33069, Note_on_c, 0, 73, 0
2, 33072, Note_on_c, 0, 71, 64
2, 33117, Note_on_c, 0, 71, 0
2, 33120, Note_on_c, 0, 69, 64
2, 33165, Note_on_c, 0, 69, 0
2, 33168, Note_on_c, 0, 68, 64
2, 33188, Note_on_c, 0, 68, 0
2, 33216, Note_on_c, 0, 69, 64
2, 33305, Note_on_c, 0, 69, 0
2, 33408, Note_on_c, 0, 78, 64
2, 33428, Note_on_c, 0, 78, 0
2, 33456, Note_on_c, 0, 78, 64
2, 33476, Note_on_c, 0, 78, 0
2, 33504, Note_on_c, 0, 78, 64
2, 33524, Note_on_c, 0, 78, 0
2, 33552, Note_on_c, 0, 78, 64
2, 33572, Note_on_c, 0, 78, 0
2, 33600, Note_on_c, 0, 81, 64
2, 33645, Note_on_c, 0, 81, 0
2, 33648, Note_on_c, 0, 80, 64
2, 33693, Note_on_c, 0, 80, 0
2, 33696, Note_on_c, 0, 78, 64
2, 33741, Note_on_c, 0, 78, 0
2, 33744, Note_on_c, 0, 86, 64
2, 33764, Note_on_c, 0, 86, 0
2, 33792, Note_on_c, 0, 85, 64
2, 33837, Note_on_c, 0, 85, 0
2, 33840, Note_on_c, 0, 83, 64
2, 33885, Note_on_c, 0, 83, 0
2, 33888, Note_on_c, 0, 81, 64
2, 33933, Note_on_c, 0, 81, 0
2, 33936, Note_on_c, 0, 80, 64
2, 33956, Note_on_c, 0, 80, 0
2, 33984, Note_on_c, 0, 78, 64
2, 34007, Note_on_c, 0, 78, 0
2, 34008, Note_on_c, 0, 80, 64
2, 34031, Note_on_c, 0, 80, 0
2, 34032, Note_on_c, 0, 81, 64
2, 34055, Note_on_c, 0, 81, 0
2, 34056, Note_on_c, 0, 80, 64
2, 34079, Note_on_c, 0, 80, 0
2, 34080, Note_on_c, 0, 78, 64
2, 34103, Note_on_c, 0, 78, 0
2, 34104, Note_on_c, 0, 80, 64
2, 34127, Note_on_c, 0, 80, 0
2, 34128, Note_on_c, 0, 81, 64
2, 34151, Note_on_c, 0, 81, 0
2, 34152, Note_on_c, 0, 80, 64
2, 34175, Note_on_c, 0, 80, 0
2, 34176, Note_on_c, 0, 78, 64
2, 34199, Note_on_c, 0, 78, 0
2, 34200, Note_on_c, 0, 80, 64
2, 34223, Note_on_c, 0, 80, 0
2, 34224, Note_on_c, 0, 81, 64
2, 34247, Note_on_c, 0, 81, 0
2, 34248, Note_on_c, 0, 80, 64
2, 34271, Note_on_c, 0, 80, 0
2, 34272, Note_on_c, 0, 78, 64
2, 34295, Note_on_c, 0, 78, 0
2, 34296, Note_on_c, 0, 80, 64
2, 34319, Note_on_c, 0, 80, 0
2, 34320, Note_on_c, 0, 81, 64
2, 34343, Note_on_c, 0, 81, 0
2, 34344, Note_on_c, 0, 80, 64
2, 34367, Note_on_c, 0, 80, 0
2, 34368, Note_on_c, 0, 78, 64
2, 34391, Note_on_c, 0, 78, 0
2, 34392, Note_on_c, 0, 80, 64
2, 34415, Note_on_c, 0, 80, 0
2, 34416, Note_on_c, 0, 81, 64
2, 34439, Note_on_c, 0, 81, 0
2, 34440, Note_on_c, 0, 80, 64
2, 34463, Note_on_c, 0, 80, 0
2, 34464, Note_on_c, 0, 78, 64
2, 34487, Note_on_c, 0, 78, 0
2, 34488, Note_on_c, 0, 80, 64
2, 34511, Note_on_c, 0, 80, 0
2, 34512, Note_on_c, 0, 81, 64
2, 34535, Note_on_c, 0, 81, 0
2, 34536, Note_on_c, 0, 80, 64
2, 34559, Note_on_c, 0, 80, 0
2, 34560, Note_on_c, 0, 78, 64
2, 34583, Note_on_c, 0, 78, 0
2, 34584, Note_on_c, 0, 80, 64
2, 34607, Note_on_c, 0, 80, 0
2, 34608, Note_on_c, 0, 81, 64
2, 34631, Note_on_c, 0, 81, 0
2, 34632, Note_on_c, 0, 80, 64
2, 34655, Note_on_c, 0, 80, 0
2, 34656, Note_on_c, 0, 78, 64
2, 34679, Note_on_c, 0, 78, 0
2, 34680, Note_on_c, 0, 80, 64
2, 34703, Note_on_c, 0, 80, 0
2, 34704, Note_on_c, 0, 81, 64
2, 34727, Note_on_c, 0, 81, 0
2, 34728, Note_on_c, 0, 80, 64
2, 34751, Note_on_c, 0, 80, 0
2, 34752, Note_on_c, 0, 78, 64
2, 34775, Note_on_c, 0, 78, 0
2, 34776, Note_on_c, 0, 80, 64
2, 34799, Note_on_c, 0, 80, 0
2, 34800, Note_on_c, 0, 81, 64
2, 34823, Note_on_c, 0, 81, 0
2, 34824, Note_on_c, 0, 80, 64
2, 34847, Note_on_c, 0, 80, 0
2, 34848, Note_on_c, 0, 78, 64
2, 34871, Note_on_c, 0, 78, 0
2, 34872, Note_on_c, 0, 80, 64
2, 34895, Note_on_c, 0, 80, 0
2, 34896, Note_on_c, 0, 81, 64
2, 34919, Note_on_c, 0, 81, 0
2, 34920, Note_on_c, 0, 80, 64
2, 34943, Note_on_c, 0, 80, 0
2, 34944, Note_on_c, 0, 78, 64
2, 34967, Note_on_c, 0, 78, 0
2, 34968, Note_on_c, 0, 80, 64
2, 34991, Note_on_c, 0, 80, 0
2, 34992, Note_on_c, 0, 81, 64
2, 35015, Note_on_c, 0, 81, 0
2, 35016, Note_on_c, 0, 80, 64
2, 35039, Note_on_c, 0, 80, 0
2, 35040, Note_on_c, 0, 78, 64
2, 35063, Note_on_c, 0, 78, 0
2, 35064, Note_on_c, 0, 76, 64
2, 35087, Note_on_c, 0, 76, 0
2, 35088, Note_on_c, 0, 75, 64
2, 35111, Note_on_c, 0, 75, 0
2, 35112, Note_on_c, 0, 73, 64
2, 35135, Note_on_c, 0, 73, 0
2, 35136, Note_on_c, 0, 72, 64
2, 35159, Note_on_c, 0, 72, 0
2, 35160, Note_on_c, 0, 73, 64
2, 35183, Note_on_c, 0, 73, 0
2, 35184, Note_on_c, 0, 75, 64
2, 35207, Note_on_c, 0, 75, 0
2, 35208, Note_on_c, 0, 73, 64
2, 35231, Note_on_c, 0, 73, 0
2, 35232, Note_on_c, 0, 72, 64
2, 35255, Note_on_c, 0, 72, 0
2, 35256, Note_on_c, 0, 73, 64
2, 35279, Note_on_c, 0, 73, 0
2, 35280, Note_on_c, 0, 75, 64
2, 35303, Note_on_c, 0, 75, 0
2, 35304, Note_on_c, 0, 73, 64
2, 35327, Note_on_c, 0, 73, 0
2, 35328, Note_on_c, 0, 72, 64
2, 35351, Note_on_c, 0, 72, 0
2, 35352, Note_on_c, 0, 81, 64
2, 35375, Note_on_c, 0, 81, 0
2, 35376, Note_on_c, 0, 80, 64
2, 35399, Note_on_c, 0, 80, 0
2, 35400, Note_on_c, 0, 78, 64
2, 35423, Note_on_c, 0, 78, 0
2, 35424, Note_on_c, 0, 76, 64
2, 35447, Note_on_c, 0, 76, 0
2, 35448, Note_on_c, 0, 75, 64
2, 35471, Note_on_c, 0, 75, 0
2, 35472, Note_on_c, 0, 73, 64
2, 35495, Note_on_c, 0, 73, 0
2, 35496, Note_on_c, 0, 72, 64
2, 35519, Note_on_c, 0, 72, 0
2, 35520, Note_on_c, 0, 73, 64
2, 35543, Note_on_c, 0, 73, 0
2, 35544, Note_on_c, 0, 75, 64
2, 35567, Note_on_c, 0, 75, 0
2, 35568, Note_on_c, 0, 76, 64
2, 35591, Note_on_c, 0, 76, 0
2, 35592, Note_on_c, 0, 75, 64
2, 35615, Note_on_c, 0, 75, 0
2, 35616, Note_on_c, 0, 73, 64
2, 35639, Note_on_c, 0, 73, 0
2, 35640, Note_on_c, 0, 75, 64
2, 35663, Note_on_c, 0, 75, 0
2, 35664, Note_on_c, 0, 76, 64
2, 35687, Note_on_c, 0, 76, 0
2, 35688, Note_on_c, 0, 75, 64
2, 35711, Note_on_c, 0, 75, 0
2, 35712, Note_on_c, 0, 73, 64
2, 35757, Note_on_c, 0, 73, 0
2, 35760, Note_on_c, 0, 80, 64
2, 35783, Note_on_c, 0, 80, 0
2, 35784, Note_on_c, 0, 78, 64
2, 35807, Note_on_c, 0, 78, 0
2, 35808, Note_on_c, 0, 76, 64
2, 35831, Note_on_c, 0, 76, 0
2, 35832, Note_on_c, 0, 75, 64
2, 35855, Note_on_c, 0, 75, 0
2, 35856, Note_on_c, 0, 73, 64
2, 35879, Note_on_c, 0, 73, 0
2, 35880, Note_on_c, 0, 71, 64
2, 35903, Note_on_c, 0, 71, 0
2, 35904, Note_on_c, 0, 70, 64
2, 35927, Note_on_c, 0, 70, 0
2, 35928, Note_on_c, 0, 71, 64
2, 35951, Note_on_c, 0, 71, 0
2, 35952, Note_on_c, 0, 73, 64
2, 35975, Note_on_c, 0, 73, 0
2, 35976, Note_on_c, 0, 71, 64
2, 35999, Note_on_c, 0, 71, 0
2, 36000, Note_on_c, 0, 70, 64
2, 36023, Note_on_c, 0, 70, 0
2, 36024, Note_on_c, 0, 71, 64
2, 36047, Note_on_c, 0, 71, 0
2, 36048, Note_on_c, 0, 73, 64
2, 36071, Note_on_c, 0, 73, 0
2, 36072, Note_on_c, 0, 71, 64
2, 36095, Note_on_c, 0, 71, 0
2, 36096, Note_on_c, 0, 70, 64
2, 36119, Note_on_c, 0, 70, 0
2, 36120, Note_on_c, 0, 79, 64
2, 36143, Note_on_c, 0, 79, 0
2, 36144, Note_on_c, 0, 78, 64
2, 36167, Note_on_c, 0, 78, 0
2, 36168, Note_on_c, 0, 76, 64
2, 36191, Note_on_c, 0, 76, 0
2, 36192, Note_on_c, 0, 74, 64
2, 36215, Note_on_c, 0, 74, 0
2, 36216, Note_on_c, 0, 73, 64
2, 36239, Note_on_c, 0, 73, 0
2, 36240, Note_on_c, 0, 71, 64
2, 36263, Note_on_c, 0, 71, 0
2, 36264, Note_on_c, 0, 70, 64
2, 36287, Note_on_c, 0, 70, 0
2, 36288, Note_on_c, 0, 71, 64
2, 36311, Note_on_c, 0, 71, 0
2, 36312, Note_on_c, 0, 73, 64
2, 36335, Note_on_c, 0, 73, 0
2, 36336, Note_on_c, 0, 74, 64
2, 36359, Note_on_c, 0, 74, 0
2, 36360, Note_on_c, 0, 73, 64
2, 36383, Note_on_c, 0, 73, 0
2, 36384, Note_on_c, 0, 71, 64
2, 36407, Note_on_c, 0, 71, 0
2, 36408, Note_on_c, 0, 73, 64
2, 36431, Note_on_c, 0, 73, 0
2, 36432, Note_on_c, 0, 74, 64
2, 36455, Note_on_c, 0, 74, 0
2, 36456, Note_on_c, 0, 73, 64
2, 36479, Note_on_c, 0, 73, 0
2, 36480, Note_on_c, 0, 71, 64
2, 36525, Note_on_c, 0, 71, 0
2, 36528, Note_on_c, 0, 79, 64
2, 36551, Note_on_c, 0, 79, 0
2, 36552, Note_on_c, 0, 78, 64
2, 36575, Note_on_c, 0, 78, 0
2, 36576, Note_on_c, 0, 76, 64
2, 36599, Note_on_c, 0, 76, 0
2, 36600, Note_on_c, 0, 74, 64
2, 36623, Note_on_c, 0, 74, 0
2, 36624, Note_on_c, 0, 73, 64
2, 36647, Note_on_c, 0, 73, 0
2, 36648, Note_on_c, 0, 71, 64
2, 36671, Note_on_c, 0, 71, 0
2, 36672, Note_on_c, 0, 73, 64
2, 36695, Note_on_c, 0, 73, 0
2, 36696, Note_on_c, 0, 74, 64
2, 36719, Note_on_c, 0, 74, 0
2, 36720, Note_on_c, 0, 76, 64
2, 36743, Note_on_c, 0, 76, 0
2, 36744, Note_on_c, 0, 74, 64
2, 36767, Note_on_c, 0, 74, 0
2, 36768, Note_on_c, 0, 73, 64
2, 36791, Note_on_c, 0, 73, 0
2, 36792, Note_on_c, 0, 74, 64
2, 36815, Note_on_c, 0, 74, 0
2, 36816, Note_on_c, 0, 76, 64
2, 36839, Note_on_c, 0, 76, 0
2, 36840, Note_on_c, 0, 74, 64
2, 36863, Note_on_c, 0, 74, 0
2, 36864, Note_on_c, 0, 73, 64
2, 36909, Note_on_c, 0, 73, 0
2, 36912, Note_on_c, 0, 76, 64
2, 36935, Note_on_c, 0, 76, 0
2, 36936, Note_on_c, 0, 79, 64
2, 36959, Note_on_c, 0, 79, 0
2, 36960, Note_on_c, 0, 78, 64
2, 36983, Note_on_c, 0, 78, 0
2, 36984, Note_on_c, 0, 76, 64
2, 37007, Note_on_c, 0, 76, 0
2, 37008, Note_on_c, 0, 74, 64
2, 37031, Note_on_c, 0, 74, 0
2, 37032, Note_on_c, 0, 73, 64
2, 37055, Note_on_c, 0, 73, 0
2, 37056, Note_on_c, 0, 71, 64
2, 37079, Note_on_c, 0, 71, 0
2, 37080, Note_on_c, 0, 73, 64
2, 37103, Note_on_c, 0, 73, 0
2, 37104, Note_on_c, 0, 74, 64
2, 37127, Note_on_c, 0, 74, 0
2, 37128, Note_on_c, 0, 73, 64
2, 37151, Note_on_c, 0, 73, 0
2, 37152, Note_on_c, 0, 71, 64
2, 37175, Note_on_c, 0, 71, 0
2, 37176, Note_on_c, 0, 73, 64
2, 37199, Note_on_c, 0, 73, 0
2, 37200, Note_on_c, 0, 74, 64
2, 37223, Note_on_c, 0, 74, 0
2, 37224, Note_on_c, 0, 73, 64
2, 37247, Note_on_c, 0, 73, 0
2, 37248, Note_on_c, 0, 71, 64
2, 37271, Note_on_c, 0, 71, 0
2, 37272, Note_on_c, 0, 73, 64
2, 37295, Note_on_c, 0, 73, 0
2, 37296, Note_on_c, 0, 74, 64
2, 37319, Note_on_c, 0, 74, 0
2, 37320, Note_on_c, 0, 73, 64
2, 37343, Note_on_c, 0, 73, 0
2, 37344, Note_on_c, 0, 71, 64
2, 37367, Note_on_c, 0, 71, 0
2, 37368, Note_on_c, 0, 74, 64
2, 37391, Note_on_c, 0, 74, 0
2, 37392, Note_on_c, 0, 73, 64
2, 37415, Note_on_c, 0, 73, 0
2, 37416, Note_on_c, 0, 71, 64
2, 37439, Note_on_c, 0, 71, 0
2, 37440, Note_on_c, 0, 78, 64
2, 37440, Note_on_c, 0, 70, 64
2, 37529, Note_on_c, 0, 78, 0
2, 37529, Note_on_c, 0, 70, 0
2, 37776, Note_on_c, 0, 59, 64
2, 37796, Note_on_c, 0, 59, 0
2, 37824, Note_on_c, 0, 59, 64
2, 37844, Note_on_c, 0, 59, 0
2, 37872, Note_on_c, 0, 59, 64
2, 37892, Note_on_c, 0, 59, 0
2, 37920, Note_on_c, 0, 59, 64
2, 37940, Note_on_c, 0, 59, 0
2, 37968, Note_on_c, 0, 59, 64
2, 37988, Note_on_c, 0, 59, 0
2, 38016, Note_on_c, 0, 62, 64
2, 38061, Note_on_c, 0, 62, 0
2, 38064, Note_on_c, 0, 61, 64
2, 38109, Note_on_c, 0, 61, 0
2, 38112, Note_on_c, 0, 59, 64
2, 38157, Note_on_c, 0, 59, 0
2, 38160, Note_on_c, 0, 67, 64
2, 38180, Note_on_c, 0, 67, 0
2, 38208, Note_on_c, 0, 66, 64
2, 38253, Note_on_c, 0, 66, 0
2, 38256, Note_on_c, 0, 65, 64
2, 38301, Note_on_c, 0, 65, 0
2, 38304, Note_on_c, 0, 66, 64
2, 38349, Note_on_c, 0, 66, 0
2, 38352, Note_on_c, 0, 64, 64
2, 38372, Note_on_c, 0, 64, 0
2, 38400, Note_on_c, 0, 62, 64
2, 38445, Note_on_c, 0, 62, 0
2, 38448, Note_on_c, 0, 61, 64
2, 38493, Note_on_c, 0, 61, 0
2, 38496, Note_on_c, 0, 62, 64
2, 38541, Note_on_c, 0, 62, 0
2, 38544, Note_on_c, 0, 61, 64
2, 38564, Note_on_c, 0, 61, 0
2, 38592, Note_on_c, 0, 59, 64
2, 38637, Note_on_c, 0, 59, 0
2, 38640, Note_on_c, 0, 58, 64
2, 38685, Note_on_c, 0, 58, 0
2, 38688, Note_on_c, 0, 59, 64
2, 38733, Note_on_c, 0, 59, 0
2, 38736, Note_on_c, 0, 59, 64
2, 38756, Note_on_c, 0, 59, 0
2, 38784, Note_on_c, 0, 59, 64
2, 38804, Note_on_c, 0, 59, 0
2, 38832, Note_on_c, 0, 59, 64
2, 38852, Note_on_c, 0, 59, 0
2, 38880, Note_on_c, 0, 59, 64
2, 38900, Note_on_c, 0, 59, 0
2, 38928, Note_on_c, 0, 64, 64
2, 38948, Note_on_c, 0, 64, 0
2, 38976, Note_on_c, 0, 62, 64
2, 39021, Note_on_c, 0, 62, 0
2, 39024, Note_on_c, 0, 61, 64
2, 39069, Note_on_c, 0, 61, 0
2, 39072, Note_on_c, 0, 59, 64
2, 39117, Note_on_c, 0, 59, 0
2, 39120, Note_on_c, 0, 67, 64
2, 39140, Note_on_c, 0, 67, 0
2, 39168, Note_on_c, 0, 66, 64
2, 39213, Note_on_c, 0, 66, 0
2, 39216, Note_on_c, 0, 64, 64
2, 39261, Note_on_c, 0, 64, 0
2, 39264, Note_on_c, 0, 62, 64
2, 39309, Note_on_c, 0, 62, 0
2, 39312, Note_on_c, 0, 61, 64
2, 39332, Note_on_c, 0, 61, 0
2, 39360, Note_on_c, 0, 59, 64
2, 39449, Note_on_c, 0, 59, 0
2, 39504, Note_on_c, 0, 59, 64
2, 39524, Note_on_c, 0, 59, 0
2, 39552, Note_on_c, 0, 59, 64
2, 39572, Note_on_c, 0, 59, 0
2, 39600, Note_on_c, 0, 59, 64
2, 39620, Note_on_c, 0, 59, 0
2, 39648, Note_on_c, 0, 59, 64
2, 39668, Note_on_c, 0, 59, 0
2, 39696, Note_on_c, 0, 64, 64
2, 39716, Note_on_c, 0, 64, 0
2, 39744, Note_on_c, 0, 62, 64
2, 39789, Note_on_c, 0, 62, 0
2, 39792, Note_on_c, 0, 61, 64
2, 39837, Note_on_c, 0, 61, 0
2, 39840, Note_on_c, 0, 59, 64
2, 39885, Note_on_c, 0, 59, 0
2, 39888, Note_on_c, 0, 71, 64
2, 39908, Note_on_c, 0, 71, 0
2, 39936, Note_on_c, 0, 69, 64
2, 39981, Note_on_c, 0, 69, 0
2, 39984, Note_on_c, 0, 67, 64
2, 40029, Note_on_c, 0, 67, 0
2, 40032, Note_on_c, 0, 66, 64
2, 40077, Note_on_c, 0, 66, 0
2, 40080, Note_on_c, 0, 65, 64
2, 40100, Note_on_c, 0, 65, 0
2, 40128, Note_on_c, 0, 66, 64
2, 40217, Note_on_c, 0, 66, 0
2, 40272, Note_on_c, 0, 64, 64
2, 40292, Note_on_c, 0, 64, 0
2, 40320, Note_on_c, 0, 64, 64
2, 40340, Note_on_c, 0, 64, 0
2, 40368, Note_on_c, 0, 64, 64
2, 40388, Note_on_c, 0, 64, 0
2, 40416, Note_on_c, 0, 64, 64
2, 40436, Note_on_c, 0, 64, 0
2, 40464, Note_on_c, 0, 64, 64
2, 40484, Note_on_c, 0, 64, 0
2, 40512, Note_on_c, 0, 67, 64
2, 40557, Note_on_c, 0, 67, 0
2, 40560, Note_on_c, 0, 66, 64
2, 40605, Note_on_c, 0, 66, 0
2, 40608, Note_on_c, 0, 64, 64
2, 40653, Note_on_c, 0, 64, 0
2, 40656, Note_on_c, 0, 64, 64
2, 40676, Note_on_c, 0, 64, 0
2, 40704, Note_on_c, 0, 64, 64
2, 40724, Note_on_c, 0, 64, 0
2, 40752, Note_on_c, 0, 64, 64
2, 40772, Note_on_c, 0, 64, 0
2, 40800, Note_on_c, 0, 64, 64
2, 40820, Note_on_c, 0, 64, 0
2, 40848, Note_on_c, 0, 64, 64
2, 40868, Note_on_c, 0, 64, 0
2, 40896, Note_on_c, 0, 67, 64
2, 40941, Note_on_c, 0, 67, 0
2, 40944, Note_on_c, 0, 66, 64
2, 40989, Note_on_c, 0, 66, 0
2, 40992, Note_on_c, 0, 64, 64
2, 41037, Note_on_c, 0, 64, 0
2, 41040, Note_on_c, 0, 75, 64
2, 41040, Note_on_c, 0, 63, 64
2, 41060, Note_on_c, 0, 75, 0
2, 41060, Note_on_c, 0, 63, 0
2, 41088, Note_on_c, 0, 76, 64
2, 41088, Note_on_c, 0, 64, 64
2, 41133, Note_on_c, 0, 76, 0
2, 41133, Note_on_c, 0, 64, 0
2, 41136, Note_on_c, 0, 75, 64
2, 41136, Note_on_c, 0, 63, 64
2, 41181, Note_on_c, 0, 75, 0
2, 41181, Note_on_c, 0, 63, 0
2, 41184, Note_on_c, 0, 76, 64
2, 41184, Note_on_c, 0, 64, 64
2, 41229, Note_on_c, 0, 76, 0
2, 41229, Note_on_c, 0, 64, 0
2, 41232, Note_on_c, 0, 78, 64
2, 41232, Note_on_c, 0, 66, 64
2, 41252, Note_on_c, 0, 78, 0
2, 41252, Note_on_c, 0, 66, 0
2, 41280, Note_on_c, 0, 79, 64
2, 41280, Note_on_c, 0, 67, 64
2, 41369, Note_on_c, 0, 79, 0
2, 41369, Note_on_c, 0, 67, 0
2, 41424, Note_on_c, 0, 79, 64
2, 41424, Note_on_c, 0, 76, 64
2, 41472, Note_on_c, 0, 79, 0
2, 41472, Note_on_c, 0, 76, 0
2, 41472, Note_on_c, 0, 78, 64
2, 41472, Note_on_c, 0, 74, 64
2, 41561, Note_on_c, 0, 78, 0
2, 41561, Note_on_c, 0, 74, 0
2, 41616, Note_on_c, 0, 76, 64
2, 41616, Note_on_c, 0, 73, 64
2, 41664, Note_on_c, 0, 76, 0
2, 41664, Note_on_c, 0, 73, 0
2, 41664, Note_on_c, 0, 74, 64
2, 41664, Note_on_c, 0, 71, 64
2, 41753, Note_on_c, 0, 74, 0
2, 41753, Note_on_c, 0, 71, 0
2, 41808, Note_on_c, 0, 75, 64
2, 41808, Note_on_c, 0, 63, 64
2, 41828, Note_on_c, 0, 75, 0
2, 41828, Note_on_c, 0, 63, 0
2, 41856, Note_on_c, 0, 76, 64
2, 41856, Note_on_c, 0, 64, 64
2, 41901, Note_on_c, 0, 76, 0
2, 41901, Note_on_c, 0, 64, 0
2, 41904, Note_on_c, 0, 75, 64
2, 41904, Note_on_c, 0, 63, 64
2, 41949, Note_on_c, 0, 75, 0
2, 41949, Note_on_c, 0, 63, 0
2, 41952, Note_on_c, 0, 76, 64
2, 41952, Note_on_c, 0, 64, 64
2, 41997, Note_on_c, 0, 76, 0
2, 41997, Note_on_c, 0, 64, 0
2, 42000, Note_on_c, 0, 78, 64
2, 42000, Note_on_c, 0, 66, 64
2, 42045, Note_on_c, 0, 78, 0
2, 42045, Note_on_c, 0, 66, 0
2, 42048, Note_on_c, 0, 79, 64
2, 42048, Note_on_c, 0, 67, 64
2, 42181, Note_on_c, 0, 79, 0
2, 42181, Note_on_c, 0, 67, 0
2, 42192, Note_on_c, 0, 76, 64
2, 42192, Note_on_c, 0, 64, 64
2, 42212, Note_on_c, 0, 76, 0
2, 42212, Note_on_c, 0, 64, 0
2, 42240, Note_on_c, 0, 82, 64
2, 42240, Note_on_c, 0, 70, 64
2, 42373, Note_on_c, 0, 82, 0
2, 42373, Note_on_c, 0, 70, 0
2, 42384, Note_on_c, 0, 83, 64
2, 42384, Note_on_c, 0, 71, 64
2, 42404, Note_on_c, 0, 83, 0
2, 42404, Note_on_c, 0, 71, 0
2, 42432, Note_on_c, 0, 85, 64
2, 42432, Note_on_c, 0, 73, 64
2, 42565, Note_on_c, 0, 85, 0
2, 42565, Note_on_c, 0, 73, 0
2, 42576, Note_on_c, 0, 86, 64
2, 42576, Note_on_c, 0, 74, 64
2, 42596, Note_on_c, 0, 86, 0
2, 42596, Note_on_c, 0, 74, 0
2, 42624, Note_on_c, 0, 88, 64
2, 42624, Note_on_c, 0, 76, 64
2, 42993, Note_on_c, 0, 88, 0
2, 42993, Note_on_c, 0, 76, 0
2, 43152, Note_on_c, 0, 71, 64
2, 43172, Note_on_c, 0, 71, 0
2, 43200, Note_on_c, 0, 71, 64
2, 43220, Note_on_c, 0, 71, 0
2, 43248, Note_on_c, 0, 71, 64
2, 43268, Note_on_c, 0, 71, 0
2, 43296, Note_on_c, 0, 71, 64
2, 43316, Note_on_c, 0, 71, 0
2, 43344, Note_on_c, 0, 71, 64
2, 43364, Note_on_c, 0, 71, 0
2, 43392, Note_on_c, 0, 71, 64
2, 43415, Note_on_c, 0, 71, 0
2, 43416, Note_on_c, 0, 73, 64
2, 43439, Note_on_c, 0, 73, 0
2, 43440, Note_on_c, 0, 74, 64
2, 43463, Note_on_c, 0, 74, 0
2, 43464, Note_on_c, 0, 73, 64
2, 43487, Note_on_c, 0, 73, 0
2, 43488, Note_on_c, 0, 71, 64
2, 43511, Note_on_c, 0, 71, 0
2, 43512, Note_on_c, 0, 73, 64
2, 43535, Note_on_c, 0, 73, 0
2, 43536, Note_on_c, 0, 74, 64
2, 43559, Note_on_c, 0, 74, 0
2, 43560, Note_on_c, 0, 73, 64
2, 43583, Note_on_c, 0, 73, 0
2, 43584, Note_on_c, 0, 71, 64
2, 43607, Note_on_c, 0, 71, 0
2, 43608, Note_on_c, 0, 73, 64
2, 43631, Note_on_c, 0, 73, 0
2, 43632, Note_on_c, 0, 74, 64
2, 43655, Note_on_c, 0, 74, 0
2, 43656, Note_on_c, 0, 73, 64
2, 43679, Note_on_c, 0, 73, 0
2, 43680, Note_on_c, 0, 71, 64
2, 43703, Note_on_c, 0, 71, 0
2, 43704, Note_on_c, 0, 73, 64
2, 43727, Note_on_c, 0, 73, 0
2, 43728, Note_on_c, 0, 74, 64
2, 43751, Note_on_c, 0, 74, 0
2, 43752, Note_on_c, 0, 73, 64
2, 43775, Note_on_c, 0, 73, 0
2, 43776, Note_on_c, 0, 71, 64
2, 43799, Note_on_c, 0, 71, 0
2, 43800, Note_on_c, 0, 73, 64
2, 43823, Note_on_c, 0, 73, 0
2, 43824, Note_on_c, 0, 74, 64
2, 43847, Note_on_c, 0, 74, 0
2, 43848, Note_on_c, 0, 73, 64
2, 43871, Note_on_c, 0, 73, 0
2, 43872, Note_on_c, 0, 71, 64
2, 43895, Note_on_c, 0, 71, 0
2, 43896, Note_on_c, 0, 73, 64
2, 43919, Note_on_c, 0, 73, 0
2, 43920, Note_on_c, 0, 74, 64
2, 43943, Note_on_c, 0, 74, 0
2, 43944, Note_on_c, 0, 73, 64
2, 43967, Note_on_c, 0, 73, 0
2, 43968, Note_on_c, 0, 71, 64
2, 43991, Note_on_c, 0, 71, 0
2, 43992, Note_on_c, 0, 73, 64
2, 44015, Note_on_c, 0, 73, 0
2, 44016, Note_on_c, 0, 74, 64
2, 44039, Note_on_c, 0, 74, 0
2, 44040, Note_on_c, 0, 73, 64
2, 44063, Note_on_c, 0, 73, 0
2, 44064, Note_on_c, 0, 71, 64
2, 44087, Note_on_c, 0, 71, 0
2, 44088, Note_on_c, 0, 73, 64
2, 44111, Note_on_c, 0, 73, 0
2, 44112, Note_on_c, 0, 74, 64
2, 44135, Note_on_c, 0, 74, 0
2, 44136, Note_on_c, 0, 73, 64
2, 44159, Note_on_c, 0, 73, 0
2, 44160, Note_on_c, 0, 71, 64
2, 44183, Note_on_c, 0, 71, 0
2, 44184, Note_on_c, 0, 73, 64
2, 44207, Note_on_c, 0, 73, 0
2, 44208, Note_on_c, 0, 74, 64
2, 44231, Note_on_c, 0, 74, 0
2, 44232, Note_on_c, 0, 73, 64
2, 44255, Note_on_c, 0, 73, 0
2, 44256, Note_on_c, 0, 71, 64
2, 44279, Note_on_c, 0, 71, 0
2, 44280, Note_on_c, 0, 73, 64
2, 44303, Note_on_c, 0, 73, 0
2, 44304, Note_on_c, 0, 74, 64
2, 44327, Note_on_c, 0, 74, 0
2, 44328, Note_on_c, 0, 73, 64
2, 44351, Note_on_c, 0, 73, 0
2, 44352, Note_on_c, 0, 71, 64
2, 44375, Note_on_c, 0, 71, 0
2, 44376, Note_on_c, 0, 73, 64
2, 44399, Note_on_c, 0, 73, 0
2, 44400, Note_on_c, 0, 74, 64
2, 44423, Note_on_c, 0, 74, 0
2, 44424, Note_on_c, 0, 73, 64
2, 44447, Note_on_c, 0, 73, 0
2, 44448, Note_on_c, 0, 71, 64
2, 44471, Note_on_c, 0, 71, 0
2, 44472, Note_on_c, 0, 73, 64
2, 44495, Note_on_c, 0, 73, 0
2, 44496, Note_on_c, 0, 74, 64
2, 44519, Note_on_c, 0, 74, 0
2, 44520, Note_on_c, 0, 73, 64
2, 44543, Note_on_c, 0, 73, 0
2, 44544, Note_on_c, 0, 71, 64
2, 44567, Note_on_c, 0, 71, 0
2, 44568, Note_on_c, 0, 73, 64
2, 44591, Note_on_c, 0, 73, 0
2, 44592, Note_on_c, 0, 74, 64
2, 44615, Note_on_c, 0, 74, 0
2, 44616, Note_on_c, 0, 73, 64
2, 44639, Note_on_c, 0, 73, 0
2, 44640, Note_on_c, 0, 71, 64
2, 44663, Note_on_c, 0, 71, 0
2, 44664, Note_on_c, 0, 73, 64
2, 44687, Note_on_c, 0, 73, 0
2, 44688, Note_on_c, 0, 74, 64
2, 44711, Note_on_c, 0, 74, 0
2, 44712, Note_on_c, 0, 73, 64
2, 44735, Note_on_c, 0, 73, 0
2, 44736, Note_on_c, 0, 71, 64
2, 44759, Note_on_c, 0, 71, 0
2, 44760, Note_on_c, 0, 73, 64
2, 44783, Note_on_c, 0, 73, 0
2, 44784, Note_on_c, 0, 74, 64
2, 44807, Note_on_c, 0, 74, 0
2, 44808, Note_on_c, 0, 76, 64
2, 44831, Note_on_c, 0, 76, 0
2, 44832, Note_on_c, 0, 78, 64
2, 44855, Note_on_c, 0, 78, 0
2, 44856, Note_on_c, 0, 80, 64
2, 44879, Note_on_c, 0, 80, 0
2, 44880, Note_on_c, 0, 82, 64
2, 44903, Note_on_c, 0, 82, 0
2, 44904, Note_on_c, 0, 83, 64
2, 44927, Note_on_c, 0, 83, 0
2, 44928, Note_on_c, 0, 82, 64
2, 44951, Note_on_c, 0, 82, 0
2, 44952, Note_on_c, 0, 78, 64
2, 44975, Note_on_c, 0, 78, 0
2, 44976, Note_on_c, 0, 77, 64
2, 44999, Note_on_c, 0, 77, 0
2, 45000, Note_on_c, 0, 78, 64
2, 45023, Note_on_c, 0, 78, 0
2, 45024, Note_on_c, 0, 76, 64
2, 45047, Note_on_c, 0, 76, 0
2, 45048, Note_on_c, 0, 79, 64
2, 45071, Note_on_c, 0, 79, 0
2, 45072, Note_on_c, 0, 78, 64
2, 45095, Note_on_c, 0, 78, 0
2, 45096, Note_on_c, 0, 76, 64
2, 45119, Note_on_c, 0, 76, 0
2, 45120, Note_on_c, 0, 74, 64
2, 45143, Note_on_c, 0, 74, 0
2, 45144, Note_on_c, 0, 78, 64
2, 45167, Note_on_c, 0, 78, 0
2, 45168, Note_on_c, 0, 76, 64
2, 45191, Note_on_c, 0, 76, 0
2, 45192, Note_on_c, 0, 74, 64
2, 45215, Note_on_c, 0, 74, 0
2, 45216, Note_on_c, 0, 73, 64
2, 45239, Note_on_c, 0, 73, 0
2, 45240, Note_on_c, 0, 76, 64
2, 45263, Note_on_c, 0, 76, 0
2, 45264, Note_on_c, 0, 74, 64
2, 45287, Note_on_c, 0, 74, 0
2, 45288, Note_on_c, 0, 73, 64
2, 45311, Note_on_c, 0, 73, 0
2, 45312, Note_on_c, 0, 78, 64
2, 45335, Note_on_c, 0, 78, 0
2, 45336, Note_on_c, 0, 74, 64
2, 45359, Note_on_c, 0, 74, 0
2, 45360, Note_on_c, 0, 73, 64
2, 45383, Note_on_c, 0, 73, 0
2, 45384, Note_on_c, 0, 71, 64
2, 45407, Note_on_c, 0, 71, 0
2, 45408, Note_on_c, 0, 79, 64
2, 45431, Note_on_c, 0, 79, 0
2, 45432, Note_on_c, 0, 76, 64
2, 45455, Note_on_c, 0, 76, 0
2, 45456, Note_on_c, 0, 74, 64
2, 45479, Note_on_c, 0, 74, 0
2, 45480, Note_on_c, 0, 73, 64
2, 45503, Note_on_c, 0, 73, 0
2, 45504, Note_on_c, 0, 74, 64
2, 45523, Note_on_c, 0, 74, 0
2, 45524, Note_on_c, 0, 73, 64
2, 45543, Note_on_c, 0, 73, 0
2, 45544, Note_on_c, 0, 74, 64
2, 45562, Note_on_c, 0, 74, 0
2, 45563, Note_on_c, 0, 73, 64
2, 45581, Note_on_c, 0, 73, 0
2, 45582, Note_on_c, 0, 74, 64
2, 45600, Note_on_c, 0, 74, 0
2, 45601, Note_on_c, 0, 73, 64
2, 45619, Note_on_c, 0, 73, 0
2, 45620, Note_on_c, 0, 74, 64
2, 45638, Note_on_c, 0, 74, 0
2, 45639, Note_on_c, 0, 73, 64
2, 45657, Note_on_c, 0, 73, 0
2, 45658, Note_on_c, 0, 71, 64
2, 45676, Note_on_c, 0, 71, 0
2, 45677, Note_on_c, 0, 73, 64
2, 45695, Note_on_c, 0, 73, 0
2, 45696, Note_on_c, 0, 71, 64
2, 45719, Note_on_c, 0, 71, 0
2, 45720, Note_on_c, 0, 73, 64
2, 45743, Note_on_c, 0, 73, 0
2, 45744, Note_on_c, 0, 74, 64
2, 45767, Note_on_c, 0, 74, 0
2, 45768, Note_on_c, 0, 73, 64
2, 45791, Note_on_c, 0, 73, 0
2, 45792, Note_on_c, 0, 71, 64
2, 45815, Note_on_c, 0, 71, 0
2, 45816, Note_on_c, 0, 73, 64
2, 45839, Note_on_c, 0, 73, 0
2, 45840, Note_on_c, 0, 74, 64
2, 45863, Note_on_c, 0, 74, 0
2, 45864, Note_on_c, 0, 73, 64
2, 45887, Note_on_c, 0, 73, 0
2, 45888, Note_on_c, 0, 71, 64
2, 45911, Note_on_c, 0, 71, 0
2, 45912, Note_on_c, 0, 73, 64
2, 45935, Note_on_c, 0, 73, 0
2, 45936, Note_on_c, 0, 74, 64
2, 45959, Note_on_c, 0, 74, 0
2, 45960, Note_on_c, 0, 73, 64
2, 45983, Note_on_c, 0, 73, 0
2, 45984, Note_on_c, 0, 71, 64
2, 46007, Note_on_c, 0, 71, 0
2, 46008, Note_on_c, 0, 73, 64
2, 46031, Note_on_c, 0, 73, 0
2, 46032, Note_on_c, 0, 74, 64
2, 46055, Note_on_c, 0, 74, 0
2, 46056, Note_on_c, 0, 73, 64
2, 46079, Note_on_c, 0, 73, 0
2, 46080, Note_on_c, 0, 71, 64
2, 46103, Note_on_c, 0, 71, 0
2, 46104, Note_on_c, 0, 73, 64
2, 46127, Note_on_c, 0, 73, 0
2, 46128, Note_on_c, 0, 74, 64
2, 46151, Note_on_c, 0, 74, 0
2, 46152, Note_on_c, 0, 73, 64
2, 46175, Note_on_c, 0, 73, 0
2, 46176, Note_on_c, 0, 71, 64
2, 46199, Note_on_c, 0, 71, 0
2, 46200, Note_on_c, 0, 73, 64
2, 46223, Note_on_c, 0, 73, 0
2, 46224, Note_on_c, 0, 74, 64
2, 46247, Note_on_c, 0, 74, 0
2, 46248, Note_on_c, 0, 73, 64
2, 46271, Note_on_c, 0, 73, 0
2, 46272, Note_on_c, 0, 71, 64
2, 46295, Note_on_c, 0, 71, 0
2, 46296, Note_on_c, 0, 73, 64
2, 46319, Note_on_c, 0, 73, 0
2, 46320, Note_on_c, 0, 74, 64
2, 46343, Note_on_c, 0, 74, 0
2, 46344, Note_on_c, 0, 73, 64
2, 46367, Note_on_c, 0, 73, 0
2, 46368, Note_on_c, 0, 71, 64
2, 46391, Note_on_c, 0, 71, 0
2, 46392, Note_on_c, 0, 73, 64
2, 46415, Note_on_c, 0, 73, 0
2, 46416, Note_on_c, 0, 74, 64
2, 46439, Note_on_c, 0, 74, 0
2, 46440, Note_on_c, 0, 73, 64
2, 46463, Note_on_c, 0, 73, 0
2, 46464, Note_on_c, 0, 71, 64
2, 46487, Note_on_c, 0, 71, 0
2, 46488, Note_on_c, 0, 73, 64
2, 46511, Note_on_c, 0, 73, 0
2, 46512, Note_on_c, 0, 74, 64
2, 46535, Note_on_c, 0, 74, 0
2, 46536, Note_on_c, 0, 73, 64
2, 46559, Note_on_c, 0, 73, 0
2, 46560, Note_on_c, 0, 71, 64
2, 46583, Note_on_c, 0, 71, 0
2, 46584, Note_on_c, 0, 73, 64
2, 46607, Note_on_c, 0, 73, 0
2, 46608, Note_on_c, 0, 74, 64
2, 46631, Note_on_c, 0, 74, 0
2, 46632, Note_on_c, 0, 73, 64
2, 46655, Note_on_c, 0, 73, 0
2, 46656, Note_on_c, 0, 71, 64
2, 46679, Note_on_c, 0, 71, 0
2, 46680, Note_on_c, 0, 73, 64
2, 46703, Note_on_c, 0, 73, 0
2, 46704, Note_on_c, 0, 74, 64
2, 46727, Note_on_c, 0, 74, 0
2, 46728, Note_on_c, 0, 73, 64
2, 46751, Note_on_c, 0, 73, 0
2, 46752, Note_on_c, 0, 71, 64
2, 46775, Note_on_c, 0, 71, 0
2, 46776, Note_on_c, 0, 73, 64
2, 46799, Note_on_c, 0, 73, 0
2, 46800, Note_on_c, 0, 74, 64
2, 46823, Note_on_c, 0, 74, 0
2, 46824, Note_on_c, 0, 73, 64
2, 46847, Note_on_c, 0, 73, 0
2, 46848, Note_on_c, 0, 71, 64
2, 46871, Note_on_c, 0, 71, 0
2, 46872, Note_on_c, 0, 73, 64
2, 46895, Note_on_c, 0, 73, 0
2, 46896, Note_on_c, 0, 74, 64
2, 46919, Note_on_c, 0, 74, 0
2, 46920, Note_on_c, 0, 73, 64
2, 46943, Note_on_c, 0, 73, 0
2, 46944, Note_on_c, 0, 71, 64
2, 46967, Note_on_c, 0, 71, 0
2, 46968, Note_on_c, 0, 73, 64
2, 46991, Note_on_c, 0, 73, 0
2, 46992, Note_on_c, 0, 74, 64
2, 47015, Note_on_c, 0, 74, 0
2, 47016, Note_on_c, 0, 73, 64
2, 47039, Note_on_c, 0, 73, 0
2, 47040, Note_on_c, 0, 71, 64
2, 47063, Note_on_c, 0, 71, 0
2, 47064, Note_on_c, 0, 73, 64
2, 47087, Note_on_c, 0, 73, 0
2, 47088, Note_on_c, 0, 74, 64
2, 47111, Note_on_c, 0, 74, 0
2, 47112, Note_on_c, 0, 76, 64
2, 47135, Note_on_c, 0, 76, 0
2, 47136, Note_on_c, 0, 78, 64
2, 47159, Note_on_c, 0, 78, 0
2, 47160, Note_on_c, 0, 80, 64
2, 47183, Note_on_c, 0, 80, 0
2, 47184, Note_on_c, 0, 82, 64
2, 47207, Note_on_c, 0, 82, 0
2, 47208, Note_on_c, 0, 83, 64
2, 47231, Note_on_c, 0, 83, 0
2, 47232, Note_on_c, 0, 82, 64
2, 47255, Note_on_c, 0, 82, 0
2, 47256, Note_on_c, 0, 78, 64
2, 47279, Note_on_c, 0, 78, 0
2, 47280, Note_on_c, 0, 77, 64
2, 47303, Note_on_c, 0, 77, 0
2, 47304, Note_on_c, 0, 78, 64
2, 47327, Note_on_c, 0, 78, 0
2, 47328, Note_on_c, 0, 76, 64
2, 47351, Note_on_c, 0, 76, 0
2, 47352, Note_on_c, 0, 79, 64
2, 47375, Note_on_c, 0, 79, 0
2, 47376, Note_on_c, 0, 78, 64
2, 47399, Note_on_c, 0, 78, 0
2, 47400, Note_on_c, 0, 76, 64
2, 47423, Note_on_c, 0, 76, 0
2, 47424, Note_on_c, 0, 74, 64
2, 47447, Note_on_c, 0, 74, 0
2, 47448, Note_on_c, 0, 78, 64
2, 47471, Note_on_c, 0, 78, 0
2, 47472, Note_on_c, 0, 76, 64
2, 47495, Note_on_c, 0, 76, 0
2, 47496, Note_on_c, 0, 74, 64
2, 47519, Note_on_c, 0, 74, 0
2, 47520, Note_on_c, 0, 73, 64
2, 47543, Note_on_c, 0, 73, 0
2, 47544, Note_on_c, 0, 76, 64
2, 47567, Note_on_c, 0, 76, 0
2, 47568, Note_on_c, 0, 74, 64
2, 47591, Note_on_c, 0, 74, 0
2, 47592, Note_on_c, 0, 73, 64
2, 47615, Note_on_c, 0, 73, 0
2, 47616, Note_on_c, 0, 78, 64
2, 47639, Note_on_c, 0, 78, 0
2, 47640, Note_on_c, 0, 74, 64
2, 47663, Note_on_c, 0, 74, 0
2, 47664, Note_on_c, 0, 73, 64
2, 47687, Note_on_c, 0, 73, 0
2, 47688, Note_on_c, 0, 71, 64
2, 47711, Note_on_c, 0, 71, 0
2, 47712, Note_on_c, 0, 79, 64
2, 47735, Note_on_c, 0, 79, 0
2, 47736, Note_on_c, 0, 76, 64
2, 47759, Note_on_c, 0, 76, 0
2, 47760, Note_on_c, 0, 74, 64
2, 47783, Note_on_c, 0, 74, 0
2, 47784, Note_on_c, 0, 73, 64
2, 47807, Note_on_c, 0, 73, 0
2, 47808, Note_on_c, 0, 74, 64
2, 47827, Note_on_c, 0, 74, 0
2, 47828, Note_on_c, 0, 73, 64
2, 47847, Note_on_c, 0, 73, 0
2, 47848, Note_on_c, 0, 74, 64
2, 47866, Note_on_c, 0, 74, 0
2, 47867, Note_on_c, 0, 73, 64
2, 47885, Note_on_c, 0, 73, 0
2, 47886, Note_on_c, 0, 74, 64
2, 47904, Note_on_c, 0, 74, 0
2, 47905, Note_on_c, 0, 73, 64
2, 47923, Note_on_c, 0, 73, 0
2, 47924, Note_on_c, 0, 74, 64
2, 47942, Note_on_c, 0, 74, 0
2, 47943, Note_on_c, 0, 73, 64
2, 47961, Note_on_c, 0, 73, 0
2, 47962, Note_on_c, 0, 71, 64
2, 47980, Note_on_c, 0, 71, 0
2, 47981, Note_on_c, 0, 73, 64
2, 47999, Note_on_c, 0, 73, 0
2, 48000, Note_on_c, 0, 71, 64
2, 48023, Note_on_c, 0, 71, 0
2, 48024, Note_on_c, 0, 78, 64
2, 48047, Note_on_c, 0, 78, 0
2, 48048, Note_on_c, 0, 74, 64
2, 48071, Note_on_c, 0, 74, 0
2, 48072, Note_on_c, 0, 71, 64
2, 48095, Note_on_c, 0, 71, 0
2, 48096, Note_on_c, 0, 70, 64
2, 48119, Note_on_c, 0, 70, 0
2, 48120, Note_on_c, 0, 76, 64
2, 48143, Note_on_c, 0, 76, 0
2, 48144, Note_on_c, 0, 73, 64
2, 48167, Note_on_c, 0, 73, 0
2, 48168, Note_on_c, 0, 70, 64
2, 48191, Note_on_c, 0, 70, 0
2, 48192, Note_on_c, 0, 71, 64
2, 48215, Note_on_c, 0, 71, 0
2, 48216, Note_on_c, 0, 78, 64
2, 48239, Note_on_c, 0, 78, 0
2, 48240, Note_on_c, 0, 74, 64
2, 48263, Note_on_c, 0, 74, 0
2, 48264, Note_on_c, 0, 71, 64
2, 48287, Note_on_c, 0, 71, 0
2, 48288, Note_on_c, 0, 70, 64
2, 48311, Note_on_c, 0, 70, 0
2, 48312, Note_on_c, 0, 76, 64
2, 48335, Note_on_c, 0, 76, 0
2, 48336, Note_on_c, 0, 73, 64
2, 48359, Note_on_c, 0, 73, 0
2, 48360, Note_on_c, 0, 70, 64
2, 48383, Note_on_c, 0, 70, 0
2, 48384, Note_on_c, 0, 71, 64
2, 48407, Note_on_c, 0, 71, 0
2, 48408, Note_on_c, 0, 78, 64
2, 48431, Note_on_c, 0, 78, 0
2, 48432, Note_on_c, 0, 74, 64
2, 48455, Note_on_c, 0, 74, 0
2, 48456, Note_on_c, 0, 71, 64
2, 48479, Note_on_c, 0, 71, 0
2, 48480, Note_on_c, 0, 70, 64
2, 48503, Note_on_c, 0, 70, 0
2, 48504, Note_on_c, 0, 76, 64
2, 48527, Note_on_c, 0, 76, 0
2, 48528, Note_on_c, 0, 73, 64
2, 48551, Note_on_c, 0, 73, 0
2, 48552, Note_on_c, 0, 70, 64
2, 48575, Note_on_c, 0, 70, 0
2, 48576, Note_on_c, 0, 71, 64
2, 48599, Note_on_c, 0, 71, 0
2, 48600, Note_on_c, 0, 78, 64
2, 48623, Note_on_c, 0, 78, 0
2, 48624, Note_on_c, 0, 74, 64
2, 48647, Note_on_c, 0, 74, 0
2, 48648, Note_on_c, 0, 71, 64
2, 48671, Note_on_c, 0, 71, 0
2, 48672, Note_on_c, 0, 70, 64
2, 48695, Note_on_c, 0, 70, 0
2, 48696, Note_on_c, 0, 76, 64
2, 48719, Note_on_c, 0, 76, 0
2, 48720, Note_on_c, 0, 73, 64
2, 48743, Note_on_c, 0, 73, 0
2, 48744, Note_on_c, 0, 70, 64
2, 48767, Note_on_c, 0, 70, 0
2, 48768, Note_on_c, 0, 71, 64
2, 48816, Note_on_c, 0, 74, 64
2, 48861, Note_on_c, 0, 74, 0
2, 48861, Note_on_c, 0, 71, 0
2, 48864, Note_on_c, 0, 74, 64
2, 48864, Note_on_c, 0, 71, 64
2, 48884, Note_on_c, 0, 74, 0
2, 48884, Note_on_c, 0, 71, 0
2, 48912, Note_on_c, 0, 74, 64
2, 48912, Note_on_c, 0, 71, 64
2, 48932, Note_on_c, 0, 74, 0
2, 48932, Note_on_c, 0, 71, 0
2, 48960, Note_on_c, 0, 78, 64
2, 48960, Note_on_c, 0, 74, 64
2, 49008, Note_on_c, 0, 78, 0
2, 49008, Note_on_c, 0, 71, 64
2, 49053, Note_on_c, 0, 74, 0
2, 49053, Note_on_c, 0, 71, 0
2, 49056, Note_on_c, 0, 74, 64
2, 49056, Note_on_c, 0, 71, 64
2, 49076, Note_on_c, 0, 74, 0
2, 49076, Note_on_c, 0, 71, 0
2, 49104, Note_on_c, 0, 74, 64
2, 49104, Note_on_c, 0, 71, 64
2, 49124, Note_on_c, 0, 74, 0
2, 49124, Note_on_c, 0, 71, 0
2, 49152, Note_on_c, 0, 86, 64
2, 49152, Note_on_c, 0, 83, 64
2, 49241, Note_on_c, 0, 86, 0
2, 49241, Note_on_c, 0, 83, 0
2, 49488, Note_on_c, 0, 71, 64
2, 49488, Note_on_c, 0, 59, 64
2, 49508, Note_on_c, 0, 71, 0
2, 49508, Note_on_c, 0, 59, 0
2, 49536, Note_on_c, 0, 71, 64
2, 49536, Note_on_c, 0, 59, 64
2, 49556, Note_on_c, 0, 71, 0
2, 49556, Note_on_c, 0, 59, 0
2, 49584, Note_on_c, 0, 71, 64
2, 49584, Note_on_c, 0, 59, 64
2, 49604, Note_on_c, 0, 71, 0
2, 49604, Note_on_c, 0, 59, 0
2, 49632, Note_on_c, 0, 71, 64
2, 49632, Note_on_c, 0, 59, 64
2, 49652, Note_on_c, 0, 71, 0
2, 49652, Note_on_c, 0, 59, 0
2, 49680, Note_on_c, 0, 71, 64
2, 49680, Note_on_c, 0, 59, 64
2, 49700, Note_on_c, 0, 71, 0
2, 49700, Note_on_c, 0, 59, 0
2, 49728, Note_on_c, 0, 74, 64
2, 49728, Note_on_c, 0, 62, 64
2, 49773, Note_on_c, 0, 74, 0
2, 49773, Note_on_c, 0, 62, 0
2, 49776, Note_on_c, 0, 73, 64
2, 49776, Note_on_c, 0, 61, 64
2, 49821, Note_on_c, 0, 73, 0
2, 49821, Note_on_c, 0, 61, 0
2, 49824, Note_on_c, 0, 71, 64
2, 49824, Note_on_c, 0, 59, 64
2, 49869, Note_on_c, 0, 71, 0
2, 49869, Note_on_c, 0, 59, 0
2, 49872, Note_on_c, 0, 79, 64
2, 49872, Note_on_c, 0, 67, 64
2, 49892, Note_on_c, 0, 79, 0
2, 49892, Note_on_c, 0, 67, 0
2, 49920, Note_on_c, 0, 78, 64
2, 49920, Note_on_c, 0, 66, 64
2, 49965, Note_on_c, 0, 78, 0
2, 49965, Note_on_c, 0, 66, 0
2, 49968, Note_on_c, 0, 77, 64
2, 49968, Note_on_c, 0, 65, 64
2, 50013, Note_on_c, 0, 77, 0
2, 50013, Note_on_c, 0, 65, 0
2, 50016, Note_on_c, 0, 78, 64
2, 50016, Note_on_c, 0, 66, 64
2, 50061, Note_on_c, 0, 78, 0
2, 50061, Note_on_c, 0, 66, 0
2, 50064, Note_on_c, 0, 76, 64
2, 50064, Note_on_c, 0, 64, 64
2, 50084, Note_on_c, 0, 76, 0
2, 50084, Note_on_c, 0, 64, 0
2, 50112, Note_on_c, 0, 74, 64
2, 50112, Note_on_c, 0, 62, 64
2, 50157, Note_on_c, 0, 74, 0
2, 50157, Note_on_c, 0, 62, 0
2, 50160, Note_on_c, 0, 73, 64
2, 50160, Note_on_c, 0, 61, 64
2, 50205, Note_on_c, 0, 73, 0
2, 50205, Note_on_c, 0, 61, 0
2, 50208, Note_on_c, 0, 74, 64
2, 50208, Note_on_c, 0, 62, 64
2, 50253, Note_on_c, 0, 74, 0
2, 50253, Note_on_c, 0, 62, 0
2, 50256, Note_on_c, 0, 73, 64
2, 50256, Note_on_c, 0, 61, 64
2, 50276, Note_on_c, 0, 73, 0
2, 50276, Note_on_c, 0, 61, 0
2, 50304, Note_on_c, 0, 71, 64
2, 50304, Note_on_c, 0, 59, 64
2, 50349, Note_on_c, 0, 71, 0
2, 50349, Note_on_c, 0, 59, 0
2, 50352, Note_on_c, 0, 70, 64
2, 50352, Note_on_c, 0, 58, 64
2, 50397, Note_on_c, 0, 70, 0
2, 50397, Note_on_c, 0, 58, 0
2, 50400, Note_on_c, 0, 71, 64
2, 50400, Note_on_c, 0, 59, 64
2, 50445, Note_on_c, 0, 71, 0
2, 50445, Note_on_c, 0, 59, 0
2, 50448, Note_on_c, 0, 69, 64
2, 50448, Note_on_c, 0, 57, 64
2, 50468, Note_on_c, 0, 69, 0
2, 50468, Note_on_c, 0, 57, 0
2, 50496, Note_on_c, 0, 67, 64
2, 50496, Note_on_c, 0, 55, 64
2, 50585, Note_on_c, 0, 67, 0
2, 50585, Note_on_c, 0, 55, 0
2, 51216, Note_on_c, 0, 57, 64
2, 51261, Note_on_c, 0, 57, 0
2, 51264, Note_on_c, 0, 57, 64
2, 51284, Note_on_c, 0, 57, 0
2, 51312, Note_on_c, 0, 57, 64
2, 51332, Note_on_c, 0, 57, 0
2, 51360, Note_on_c, 0, 57, 64
2, 51380, Note_on_c, 0, 57, 0
2, 51408, Note_on_c, 0, 57, 64
2, 51428, Note_on_c, 0, 57, 0
2, 51456, Note_on_c, 0, 66, 64
2, 51501, Note_on_c, 0, 66, 0
2, 51504, Note_on_c, 0, 64, 64
2, 51549, Note_on_c, 0, 64, 0
2, 51552, Note_on_c, 0, 63, 64
2, 51597, Note_on_c, 0, 63, 0
2, 51600, Note_on_c, 0, 72, 64
2, 51620, Note_on_c, 0, 72, 0
2, 51648, Note_on_c, 0, 71, 64
2, 51693, Note_on_c, 0, 71, 0
2, 51696, Note_on_c, 0, 69, 64
2, 51741, Note_on_c, 0, 69, 0
2, 51744, Note_on_c, 0, 67, 64
2, 51789, Note_on_c, 0, 67, 0
2, 51792, Note_on_c, 0, 66, 64
2, 51812, Note_on_c, 0, 66, 0
2, 51840, Note_on_c, 0, 64, 64
2, 51929, Note_on_c, 0, 64, 0
2, 51984, Note_on_c, 0, 76, 64
2, 52004, Note_on_c, 0, 76, 0
2, 52032, Note_on_c, 0, 76, 64
2, 52052, Note_on_c, 0, 76, 0
2, 52080, Note_on_c, 0, 76, 64
2, 52100, Note_on_c, 0, 76, 0
2, 52128, Note_on_c, 0, 76, 64
2, 52148, Note_on_c, 0, 76, 0
2, 52176, Note_on_c, 0, 76, 64
2, 52196, Note_on_c, 0, 76, 0
2, 52224, Note_on_c, 0, 79, 64
2, 52269, Note_on_c, 0, 79, 0
2, 52272, Note_on_c, 0, 78, 64
2, 52317, Note_on_c, 0, 78, 0
2, 52320, Note_on_c, 0, 76, 64
2, 52365, Note_on_c, 0, 76, 0
2, 52368, Note_on_c, 0, 84, 64
2, 52388, Note_on_c, 0, 84, 0
2, 52416, Note_on_c, 0, 83, 64
2, 52461, Note_on_c, 0, 83, 0
2, 52464, Note_on_c, 0, 81, 64
2, 52509, Note_on_c, 0, 81, 0
2, 52512, Note_on_c, 0, 79, 64
2, 52557, Note_on_c, 0, 79, 0
2, 52560, Note_on_c, 0, 78, 64
2, 52580, Note_on_c, 0, 78, 0
2, 52608, Note_on_c, 0, 76, 64
2, 52697, Note_on_c, 0, 76, 0
2, 52752, Note_on_c, 0, 88, 64
2, 52772, Note_on_c, 0, 88, 0
2, 52800, Note_on_c, 0, 86, 64
2, 52845, Note_on_c, 0, 86, 0
2, 52848, Note_on_c, 0, 84, 64
2, 52893, Note_on_c, 0, 84, 0
2, 52896, Note_on_c, 0, 83, 64
2, 52941, Note_on_c, 0, 83, 0
2, 52944, Note_on_c, 0, 81, 64
2, 52964, Note_on_c, 0, 81, 0
2, 52992, Note_on_c, 0, 79, 64
2, 53081, Note_on_c, 0, 79, 0
2, 53232, Note_on_c, 0, 85, 64
2, 53252, Note_on_c, 0, 85, 0
2, 53280, Note_on_c, 0, 85, 64
2, 53300, Note_on_c, 0, 85, 0
2, 53328, Note_on_c, 0, 85, 64
2, 53348, Note_on_c, 0, 85, 0
2, 53376, Note_on_c, 0, 78, 64
2, 53553, Note_on_c, 0, 78, 0
2, 53616, Note_on_c, 0, 83, 64
2, 53636, Note_on_c, 0, 83, 0
2, 53664, Note_on_c, 0, 83, 64
2, 53684, Note_on_c, 0, 83, 0
2, 53712, Note_on_c, 0, 83, 64
2, 53732, Note_on_c, 0, 83, 0
2, 53760, Note_on_c, 0, 76, 64
2, 53937, Note_on_c, 0, 76, 0
2, 54000, Note_on_c, 0, 81, 64
2, 54020, Note_on_c, 0, 81, 0
2, 54048, Note_on_c, 0, 81, 64
2, 54068, Note_on_c, 0, 81, 0
2, 54096, Note_on_c, 0, 81, 64
2, 54116, Note_on_c, 0, 81, 0
2, 54144, Note_on_c, 0, 74, 64
2, 54192, Note_on_c, 0, 74, 0
2, 54192, Note_on_c, 0, 86, 64
2, 54212, Note_on_c, 0, 86, 0
2, 54240, Note_on_c, 0, 86, 64
2, 54260, Note_on_c, 0, 86, 0
2, 54288, Note_on_c, 0, 86, 64
2, 54308, Note_on_c, 0, 86, 0
2, 54336, Note_on_c, 0, 72, 64
2, 54384, Note_on_c, 0, 72, 0
2, 54384, Note_on_c, 0, 84, 64
2, 54384, Note_on_c, 0, 78, 64
2, 54404, Note_on_c, 0, 84, 0
2, 54404, Note_on_c, 0, 78, 0
2, 54432, Note_on_c, 0, 84, 64
2, 54432, Note_on_c, 0, 78, 64
2, 54452, Note_on_c, 0, 84, 0
2, 54452, Note_on_c, 0, 78, 0
2, 54480, Note_on_c, 0, 84, 64
2, 54480, Note_on_c, 0, 78, 64
2, 54500, Note_on_c, 0, 84, 0
2, 54500, Note_on_c, 0, 78, 0
2, 54528, Note_on_c, 0, 83, 64
2, 54528, Note_on_c, 0, 79, 64
2, 54617, Note_on_c, 0, 83, 0
2, 54617, Note_on_c, 0, 79, 0
2, 54672, Note_on_c, 0, 67, 64
2, 54692, Note_on_c, 0, 67, 0
2, 54720, Note_on_c, 0, 67, 64
2, 54740, Note_on_c, 0, 67, 0
2, 54768, Note_on_c, 0, 67, 64
2, 54788, Note_on_c, 0, 67, 0
2, 54816, Note_on_c, 0, 67, 64
2, 54836, Note_on_c, 0, 67, 0
2, 54864, Note_on_c, 0, 67, 64
2, 54884, Note_on_c, 0, 67, 0
2, 54912, Note_on_c, 0, 71, 64
2, 54957, Note_on_c, 0, 71, 0
2, 54960, Note_on_c, 0, 69, 64
2, 55005, Note_on_c, 0, 69, 0
2, 55008, Note_on_c, 0, 67, 64
2, 55053, Note_on_c, 0, 67, 0
2, 55056, Note_on_c, 0, 76, 64
2, 55076, Note_on_c, 0, 76, 0
2, 55104, Note_on_c, 0, 74, 64
2, 55149, Note_on_c, 0, 74, 0
2, 55152, Note_on_c, 0, 73, 64
2, 55197, Note_on_c, 0, 73, 0
2, 55200, Note_on_c, 0, 74, 64
2, 55245, Note_on_c, 0, 74, 0
2, 55248, Note_on_c, 0, 76, 64
2, 55268, Note_on_c, 0, 76, 0
2, 55296, Note_on_c, 0, 74, 64
2, 55341, Note_on_c, 0, 74, 0
2, 55344, Note_on_c, 0, 73, 64
2, 55389, Note_on_c, 0, 73, 0
2, 55392, Note_on_c, 0, 74, 64
2, 55437, Note_on_c, 0, 74, 0
2, 55440, Note_on_c, 0, 76, 64
2, 55460, Note_on_c, 0, 76, 0
2, 55488, Note_on_c, 0, 74, 64
2, 55533, Note_on_c, 0, 74, 0
2, 55536, Note_on_c, 0, 73, 64
2, 55581, Note_on_c, 0, 73, 0
2, 55584, Note_on_c, 0, 74, 64
2, 55629, Note_on_c, 0, 74, 0
2, 56400, Note_on_c, 0, 68, 64
2, 56420, Note_on_c, 0, 68, 0
2, 56448, Note_on_c, 0, 68, 64
2, 56468, Note_on_c, 0, 68, 0
2, 56496, Note_on_c, 0, 68, 64
2, 56516, Note_on_c, 0, 68, 0
2, 56544, Note_on_c, 0, 68, 64
2, 56564, Note_on_c, 0, 68, 0
2, 56592, Note_on_c, 0, 68, 64
2, 56612, Note_on_c, 0, 68, 0
2, 56640, Note_on_c, 0, 71, 64
2, 56685, Note_on_c, 0, 71, 0
2, 56688, Note_on_c, 0, 69, 64
2, 56733, Note_on_c, 0, 69, 0
2, 56736, Note_on_c, 0, 68, 64
2, 56781, Note_on_c, 0, 68, 0
2, 56784, Note_on_c, 0, 74, 64
2, 56804, Note_on_c, 0, 74, 0
2, 56832, Note_on_c, 0, 73, 64
2, 56877, Note_on_c, 0, 73, 0
2, 56880, Note_on_c, 0, 71, 64
2, 56925, Note_on_c, 0, 71, 0
2, 56928, Note_on_c, 0, 69, 64
2, 56973, Note_on_c, 0, 69, 0
2, 56976, Note_on_c, 0, 68, 64
2, 56996, Note_on_c, 0, 68, 0
2, 57024, Note_on_c, 0, 69, 64
2, 57113, Note_on_c, 0, 69, 0
2, 57216, Note_on_c, 0, 78, 64
2, 57236, Note_on_c, 0, 78, 0
2, 57264, Note_on_c, 0, 78, 64
2, 57284, Note_on_c, 0, 78, 0
2, 57312, Note_on_c, 0, 78, 64
2, 57332, Note_on_c, 0, 78, 0
2, 57360, Note_on_c, 0, 78, 64
2, 57380, Note_on_c, 0, 78, 0
2, 57408, Note_on_c, 0, 81, 64
2, 57453, Note_on_c, 0, 81, 0
2, 57456, Note_on_c, 0, 80, 64
2, 57501, Note_on_c, 0, 80, 0
2, 57504, Note_on_c, 0, 78, 64
2, 57549, Note_on_c, 0, 78, 0
2, 57552, Note_on_c, 0, 86, 64
2, 57572, Note_on_c, 0, 86, 0
2, 57600, Note_on_c, 0, 85, 64
2, 57645, Note_on_c, 0, 85, 0
2, 57648, Note_on_c, 0, 83, 64
2, 57693, Note_on_c, 0, 83, 0
2, 57696, Note_on_c, 0, 81, 64
2, 57741, Note_on_c, 0, 81, 0
2, 57744, Note_on_c, 0, 80, 64
2, 57764, Note_on_c, 0, 80, 0
2, 57792, Note_on_c, 0, 78, 64
2, 57815, Note_on_c, 0, 78, 0
2, 57816, Note_on_c, 0, 80, 64
2, 57839, Note_on_c, 0, 80, 0
2, 57840, Note_on_c, 0, 81, 64
2, 57863, Note_on_c, 0, 81, 0
2, 57864, Note_on_c, 0, 80, 64
2, 57887, Note_on_c, 0, 80, 0
2, 57888, Note_on_c, 0, 78, 64
2, 57911, Note_on_c, 0, 78, 0
2, 57912, Note_on_c, 0, 80, 64
2, 57935, Note_on_c, 0, 80, 0
2, 57936, Note_on_c, 0, 81, 64
2, 57959, Note_on_c, 0, 81, 0
2, 57960, Note_on_c, 0, 80, 64
2, 57983, Note_on_c, 0, 80, 0
2, 57984, Note_on_c, 0, 78, 64
2, 58007, Note_on_c, 0, 78, 0
2, 58008, Note_on_c, 0, 80, 64
2, 58031, Note_on_c, 0, 80, 0
2, 58032, Note_on_c, 0, 81, 64
2, 58055, Note_on_c, 0, 81, 0
2, 58056, Note_on_c, 0, 80, 64
2, 58079, Note_on_c, 0, 80, 0
2, 58080, Note_on_c, 0, 78, 64
2, 58103, Note_on_c, 0, 78, 0
2, 58104, Note_on_c, 0, 80, 64
2, 58127, Note_on_c, 0, 80, 0
2, 58128, Note_on_c, 0, 81, 64
2, 58151, Note_on_c, 0, 81, 0
2, 58152, Note_on_c, 0, 80, 64
2, 58175, Note_on_c, 0, 80, 0
2, 58176, Note_on_c, 0, 78, 64
2, 58199, Note_on_c, 0, 78, 0
2, 58200, Note_on_c, 0, 80, 64
2, 58223, Note_on_c, 0, 80, 0
2, 58224, Note_on_c, 0, 81, 64
2, 58247, Note_on_c, 0, 81, 0
2, 58248, Note_on_c, 0, 80, 64
2, 58271, Note_on_c, 0, 80, 0
2, 58272, Note_on_c, 0, 78, 64
2, 58295, Note_on_c, 0, 78, 0
2, 58296, Note_on_c, 0, 80, 64
2, 58319, Note_on_c, 0, 80, 0
2, 58320, Note_on_c, 0, 81, 64
2, 58343, Note_on_c, 0, 81, 0
2, 58344, Note_on_c, 0, 80, 64
2, 58367, Note_on_c, 0, 80, 0
2, 58368, Note_on_c, 0, 78, 64
2, 58391, Note_on_c, 0, 78, 0
2, 58392, Note_on_c, 0, 80, 64
2, 58415, Note_on_c, 0, 80, 0
2, 58416, Note_on_c, 0, 81, 64
2, 58439, Note_on_c, 0, 81, 0
2, 58440, Note_on_c, 0, 80, 64
2, 58463, Note_on_c, 0, 80, 0
2, 58464, Note_on_c, 0, 78, 64
2, 58487, Note_on_c, 0, 78, 0
2, 58488, Note_on_c, 0, 80, 64
2, 58511, Note_on_c, 0, 80, 0
2, 58512, Note_on_c, 0, 81, 64
2, 58535, Note_on_c, 0, 81, 0
2, 58536, Note_on_c, 0, 80, 64
2, 58559, Note_on_c, 0, 80, 0
2, 58560, Note_on_c, 0, 78, 64
2, 58583, Note_on_c, 0, 78, 0
2, 58584, Note_on_c, 0, 80, 64
2, 58607, Note_on_c, 0, 80, 0
2, 58608, Note_on_c, 0, 81, 64
2, 58631, Note_on_c, 0, 81, 0
2, 58632, Note_on_c, 0, 80, 64
2, 58655, Note_on_c, 0, 80, 0
2, 58656, Note_on_c, 0, 78, 64
2, 58679, Note_on_c, 0, 78, 0
2, 58680, Note_on_c, 0, 80, 64
2, 58703, Note_on_c, 0, 80, 0
2, 58704, Note_on_c, 0, 81, 64
2, 58727, Note_on_c, 0, 81, 0
2, 58728, Note_on_c, 0, 80, 64
2, 58751, Note_on_c, 0, 80, 0
2, 58752, Note_on_c, 0, 78, 64
2, 58775, Note_on_c, 0, 78, 0
2, 58776, Note_on_c, 0, 80, 64
2, 58799, Note_on_c, 0, 80, 0
2, 58800, Note_on_c, 0, 81, 64
2, 58823, Note_on_c, 0, 81, 0
2, 58824, Note_on_c, 0, 80, 64
2, 58847, Note_on_c, 0, 80, 0
2, 58848, Note_on_c, 0, 78, 64
2, 58871, Note_on_c, 0, 78, 0
2, 58872, Note_on_c, 0, 76, 64
2, 58895, Note_on_c, 0, 76, 0
2, 58896, Note_on_c, 0, 75, 64
2, 58919, Note_on_c, 0, 75, 0
2, 58920, Note_on_c, 0, 73, 64
2, 58943, Note_on_c, 0, 73, 0
2, 58944, Note_on_c, 0, 72, 64
2, 58967, Note_on_c, 0, 72, 0
2, 58968, Note_on_c, 0, 73, 64
2, 58991, Note_on_c, 0, 73, 0
2, 58992, Note_on_c, 0, 75, 64
2, 59015, Note_on_c, 0, 75, 0
2, 59016, Note_on_c, 0, 73, 64
2, 59039, Note_on_c, 0, 73, 0
2, 59040, Note_on_c, 0, 72, 64
2, 59063, Note_on_c, 0, 72, 0
2, 59064, Note_on_c, 0, 73, 64
2, 59087, Note_on_c, 0, 73, 0
2, 59088, Note_on_c, 0, 75, 64
2, 59111, Note_on_c, 0, 75, 0
2, 59112, Note_on_c, 0, 73, 64
2, 59135, Note_on_c, 0, 73, 0
2, 59136, Note_on_c, 0, 72, 64
2, 59159, Note_on_c, 0, 72, 0
2, 59160, Note_on_c, 0, 81, 64
2, 59183, Note_on_c, 0, 81, 0
2, 59184, Note_on_c, 0, 80, 64
2, 59207, Note_on_c, 0, 80, 0
2, 59208, Note_on_c, 0, 78, 64
2, 59231, Note_on_c, 0, 78, 0
2, 59232, Note_on_c, 0, 76, 64
2, 59255, Note_on_c, 0, 76, 0
2, 59256, Note_on_c, 0, 75, 64
2, 59279, Note_on_c, 0, 75, 0
2, 59280, Note_on_c, 0, 73, 64
2, 59303, Note_on_c, 0, 73, 0
2, 59304, Note_on_c, 0, 72, 64
2, 59327, Note_on_c, 0, 72, 0
2, 59328, Note_on_c, 0, 73, 64
2, 59351, Note_on_c, 0, 73, 0
2, 59352, Note_on_c, 0, 75, 64
2, 59375, Note_on_c, 0, 75, 0
2, 59376, Note_on_c, 0, 76, 64
2, 59399, Note_on_c, 0, 76, 0
2, 59400, Note_on_c, 0, 75, 64
2, 59423, Note_on_c, 0, 75, 0
2, 59424, Note_on_c, 0, 73, 64
2, 59447, Note_on_c, 0, 73, 0
2, 59448, Note_on_c, 0, 75, 64
2, 59471, Note_on_c, 0, 75, 0
2, 59472, Note_on_c, 0, 76, 64
2, 59495, Note_on_c, 0, 76, 0
2, 59496, Note_on_c, 0, 75, 64
2, 59519, Note_on_c, 0, 75, 0
2, 59520, Note_on_c, 0, 73, 64
2, 59565, Note_on_c, 0, 73, 0
2, 59568, Note_on_c, 0, 80, 64
2, 59591, Note_on_c, 0, 80, 0
2, 59592, Note_on_c, 0, 78, 64
2, 59615, Note_on_c, 0, 78, 0
2, 59616, Note_on_c, 0, 76, 64
2, 59639, Note_on_c, 0, 76, 0
2, 59640, Note_on_c, 0, 75, 64
2, 59663, Note_on_c, 0, 75, 0
2, 59664, Note_on_c, 0, 73, 64
2, 59687, Note_on_c, 0, 73, 0
2, 59688, Note_on_c, 0, 71, 64
2, 59711, Note_on_c, 0, 71, 0
2, 59712, Note_on_c, 0, 70, 64
2, 59735, Note_on_c, 0, 70, 0
2, 59736, Note_on_c, 0, 71, 64
2, 59759, Note_on_c, 0, 71, 0
2, 59760, Note_on_c, 0, 73, 64
2, 59783, Note_on_c, 0, 73, 0
2, 59784, Note_on_c, 0, 71, 64
2, 59807, Note_on_c, 0, 71, 0
2, 59808, Note_on_c, 0, 70, 64
2, 59831, Note_on_c, 0, 70, 0
2, 59832, Note_on_c, 0, 71, 64
2, 59855, Note_on_c, 0, 71, 0
2, 59856, Note_on_c, 0, 73, 64
2, 59879, Note_on_c, 0, 73, 0
2, 59880, Note_on_c, 0, 71, 64
2, 59903, Note_on_c, 0, 71, 0
2, 59904, Note_on_c, 0, 70, 64
2, 59927, Note_on_c, 0, 70, 0
2, 59928, Note_on_c, 0, 79, 64
2, 59951, Note_on_c, 0, 79, 0
2, 59952, Note_on_c, 0, 78, 64
2, 59975, Note_on_c, 0, 78, 0
2, 59976, Note_on_c, 0, 76, 64
2, 59999, Note_on_c, 0, 76, 0
2, 60000, Note_on_c, 0, 74, 64
2, 60023, Note_on_c, 0, 74, 0
2, 60024, Note_on_c, 0, 73, 64
2, 60047, Note_on_c, 0, 73, 0
2, 60048, Note_on_c, 0, 71, 64
2, 60071, Note_on_c, 0, 71, 0
2, 60072, Note_on_c, 0, 70, 64
2, 60095, Note_on_c, 0, 70, 0
2, 60096, Note_on_c, 0, 71, 64
2, 60119, Note_on_c, 0, 71, 0
2, 60120, Note_on_c, 0, 73, 64
2, 60143, Note_on_c, 0, 73, 0
2, 60144, Note_on_c, 0, 74, 64
2, 60167, Note_on_c, 0, 74, 0
2, 60168, Note_on_c, 0, 73, 64
2, 60191, Note_on_c, 0, 73, 0
2, 60192, Note_on_c, 0, 71, 64
2, 60215, Note_on_c, 0, 71, 0
2, 60216, Note_on_c, 0, 73, 64
2, 60239, Note_on_c, 0, 73, 0
2, 60240, Note_on_c, 0, 74, 64
2, 60263, Note_on_c, 0, 74, 0
2, 60264, Note_on_c, 0, 73, 64
2, 60287, Note_on_c, 0, 73, 0
2, 60288, Note_on_c, 0, 71, 64
2, 60333, Note_on_c, 0, 71, 0
2, 60336, Note_on_c, 0, 79, 64
2, 60359, Note_on_c, 0, 79, 0
2, 60360, Note_on_c, 0, 78, 64
2, 60383, Note_on_c, 0, 78, 0
2, 60384, Note_on_c, 0, 76, 64
2, 60407, Note_on_c, 0, 76, 0
2, 60408, Note_on_c, 0, 74, 64
2, 60431, Note_on_c, 0, 74, 0
2, 60432, Note_on_c, 0, 73, 64
2, 60455, Note_on_c, 0, 73, 0
2, 60456, Note_on_c, 0, 71, 64
2, 60479, Note_on_c, 0, 71, 0
2, 60480, Note_on_c, 0, 73, 64
2, 60503, Note_on_c, 0, 73, 0
2, 60504, Note_on_c, 0, 74, 64
2, 60527, Note_on_c, 0, 74, 0
2, 60528, Note_on_c, 0, 76, 64
2, 60551, Note_on_c, 0, 76, 0
2, 60552, Note_on_c, 0, 74, 64
2, 60575, Note_on_c, 0, 74, 0
2, 60576, Note_on_c, 0, 73, 64
2, 60599, Note_on_c, 0, 73, 0
2, 60600, Note_on_c, 0, 74, 64
2, 60623, Note_on_c, 0, 74, 0
2, 60624, Note_on_c, 0, 76, 64
2, 60647, Note_on_c, 0, 76, 0
2, 60648, Note_on_c, 0, 74, 64
2, 60671, Note_on_c, 0, 74, 0
2, 60672, Note_on_c, 0, 73, 64
2, 60717, Note_on_c, 0, 73, 0
2, 60720, Note_on_c, 0, 76, 64
2, 60743, Note_on_c, 0, 76, 0
2, 60744, Note_on_c, 0, 79, 64
2, 60767, Note_on_c, 0, 79, 0
2, 60768, Note_on_c, 0, 78, 64
2, 60791, Note_on_c, 0, 78, 0
2, 60792, Note_on_c, 0, 76, 64
2, 60815, Note_on_c, 0, 76, 0
2, 60816, Note_on_c, 0, 74, 64
2, 60839, Note_on_c, 0, 74, 0
2, 60840, Note_on_c, 0, 73, 64
2, 60863, Note_on_c, 0, 73, 0
2, 60864, Note_on_c, 0, 71, 64
2, 60887, Note_on_c, 0, 71, 0
2, 60888, Note_on_c, 0, 73, 64
2, 60911, Note_on_c, 0, 73, 0
2, 60912, Note_on_c, 0, 74, 64
2, 60935, Note_on_c, 0, 74, 0
2, 60936, Note_on_c, 0, 73, 64
2, 60959, Note_on_c, 0, 73, 0
2, 60960, Note_on_c, 0, 71, 64
2, 60983, Note_on_c, 0, 71, 0
2, 60984, Note_on_c, 0, 73, 64
2, 61007, Note_on_c, 0, 73, 0
2, 61008, Note_on_c, 0, 74, 64
2, 61031, Note_on_c, 0, 74, 0
2, 61032, Note_on_c, 0, 73, 64
2, 61055, Note_on_c, 0, 73, 0
2, 61056, Note_on_c, 0, 71, 64
2, 61079, Note_on_c, 0, 71, 0
2, 61080, Note_on_c, 0, 73, 64
2, 61103, Note_on_c, 0, 73, 0
2, 61104, Note_on_c, 0, 74, 64
2, 61127, Note_on_c, 0, 74, 0
2, 61128, Note_on_c, 0, 73, 64
2, 61151, Note_on_c, 0, 73, 0
2, 61152, Note_on_c, 0, 71, 64
2, 61175, Note_on_c, 0, 71, 0
2, 61176, Note_on_c, 0, 74, 64
2, 61199, Note_on_c, 0, 74, 0
2, 61200, Note_on_c, 0, 73, 64
2, 61223, Note_on_c, 0, 73, 0
2, 61224, Note_on_c, 0, 71, 64
2, 61247, Note_on_c, 0, 71, 0
2, 61248, Note_on_c, 0, 78, 64
2, 61248, Note_on_c, 0, 70, 64
2, 61337, Note_on_c, 0, 78, 0
2, 61337, Note_on_c, 0, 70, 0
2, 61584, Note_on_c, 0, 59, 64
2, 61604, Note_on_c, 0, 59, 0
2, 61632, Note_on_c, 0, 59, 64
2, 61652, Note_on_c, 0, 59, 0
2, 61680, Note_on_c, 0, 59, 64
2, 61700, Note_on_c, 0, 59, 0
2, 61728, Note_on_c, 0, 59, 64
2, 61748, Note_on_c, 0, 59, 0
2, 61776, Note_on_c, 0, 59, 64
2, 61796, Note_on_c, 0, 59, 0
2, 61824, Note_on_c, 0, 62, 64
2, 61869, Note_on_c, 0, 62, 0
2, 61872, Note_on_c, 0, 61, 64
2, 61917, Note_on_c, 0, 61, 0
2, 61920, Note_on_c, 0, 59, 64
2, 61965, Note_on_c, 0, 59, 0
2, 61968, Note_on_c, 0, 67, 64
2, 61988, Note_on_c, 0, 67, 0
2, 62016, Note_on_c, 0, 66, 64
2, 62061, Note_on_c, 0, 66, 0
2, 62064, Note_on_c, 0, 65, 64
2, 62109, Note_on_c, 0, 65, 0
2, 62112, Note_on_c, 0, 66, 64
2, 62157, Note_on_c, 0, 66, 0
2, 62160, Note_on_c, 0, 64, 64
2, 62180, Note_on_c, 0, 64, 0
2, 62208, Note_on_c, 0, 62, 64
2, 62253, Note_on_c, 0, 62, 0
2, 62256, Note_on_c, 0, 61, 64
2, 62301, Note_on_c, 0, 61, 0
2, 62304, Note_on_c, 0, 62, 64
2, 62349, Note_on_c, 0, 62, 0
2, 62352, Note_on_c, 0, 61, 64
2, 62372, Note_on_c, 0, 61, 0
2, 62400, Note_on_c, 0, 59, 64
2, 62445, Note_on_c, 0, 59, 0
2, 62448, Note_on_c, 0, 58, 64
2, 62493, Note_on_c, 0, 58, 0
2, 62496, Note_on_c, 0, 59, 64
2, 62541, Note_on_c, 0, 59, 0
2, 62544, Note_on_c, 0, 59, 64
2, 62564, Note_on_c, 0, 59, 0
2, 62592, Note_on_c, 0, 59, 64
2, 62612, Note_on_c, 0, 59, 0
2, 62640, Note_on_c, 0, 59, 64
2, 62660, Note_on_c, 0, 59, 0
2, 62688, Note_on_c, 0, 59, 64
2, 62708, Note_on_c, 0, 59, 0
2, 62736, Note_on_c, 0, 64, 64
2, 62756, Note_on_c, 0, 64, 0
2, 62784, Note_on_c, 0, 62, 64
2, 62829, Note_on_c, 0, 62, 0
2, 62832, Note_on_c, 0, 61, 64
2, 62877, Note_on_c, 0, 61, 0
2, 62880, Note_on_c, 0, 59, 64
2, 62925, Note_on_c, 0, 59, 0
2, 62928, Note_on_c, 0, 67, 64
2, 62948, Note_on_c, 0, 67, 0
2, 62976, Note_on_c, 0, 66, 64
2, 63021, Note_on_c, 0, 66, 0
2, 63024, Note_on_c, 0, 64, 64
2, 63069, Note_on_c, 0, 64, 0
2, 63072, Note_on_c, 0, 62, 64
2, 63117, Note_on_c, 0, 62, 0
2, 63120, Note_on_c, 0, 61, 64
2, 63140, Note_on_c, 0, 61, 0
2, 63168, Note_on_c, 0, 59, 64
2, 63257, Note_on_c, 0, 59, 0
2, 63312, Note_on_c, 0, 59, 64
2, 63332, Note_on_c, 0, 59, 0
2, 63360, Note_on_c, 0, 59, 64
2, 63380, Note_on_c, 0, 59, 0
2, 63408, Note_on_c, 0, 59, 64
2, 63428, Note_on_c, 0, 59, 0
2, 63456, Note_on_c, 0, 59, 64
2, 63476, Note_on_c, 0, 59, 0
2, 63504, Note_on_c, 0, 64, 64
2, 63524, Note_on_c, 0, 64, 0
2, 63552, Note_on_c, 0, 62, 64
2, 63597, Note_on_c, 0, 62, 0
2, 63600, Note_on_c, 0, 61, 64
2, 63645, Note_on_c, 0, 61, 0
2, 63648, Note_on_c, 0, 59, 64
2, 63693, Note_on_c, 0, 59, 0
2, 63696, Note_on_c, 0, 71, 64
2, 63716, Note_on_c, 0, 71, 0
2, 63744, Note_on_c, 0, 69, 64
2, 63789, Note_on_c, 0, 69, 0
2, 63792, Note_on_c, 0, 67, 64
2, 63837, Note_on_c, 0, 67, 0
2, 63840, Note_on_c, 0, 66, 64
2, 63885, Note_on_c, 0, 66, 0
2, 63888, Note_on_c, 0, 65, 64
2, 63908, Note_on_c, 0, 65, 0
2, 63936, Note_on_c, 0, 66, 64
2, 64025, Note_on_c, 0, 66, 0
2, 64080, Note_on_c, 0, 64, 64
2, 64100, Note_on_c, 0, 64, 0
2, 64128, Note_on_c, 0, 64, 64
2, 64148, Note_on_c, 0, 64, 0
2, 64176, Note_on_c, 0, 64, 64
2, 64196, Note_on_c, 0, 64, 0
2, 64224, Note_on_c, 0, 64, 64
2, 64244, Note_on_c, 0, 64, 0
2, 64272, Note_on_c, 0, 64, 64
2, 64292, Note_on_c, 0, 64, 0
2, 64320, Note_on_c, 0, 67, 64
2, 64365, Note_on_c, 0, 67, 0
2, 64368, Note_on_c, 0, 66, 64
2, 64413, Note_on_c, 0, 66, 0
2, 64416, Note_on_c, 0, 64, 64
2, 64461, Note_on_c, 0, 64, 0
2, 64464, Note_on_c, 0, 64, 64
2, 64484, Note_on_c, 0, 64, 0
2, 64512, Note_on_c, 0, 64, 64
2, 64532, Note_on_c, 0, 64, 0
2, 64560, Note_on_c, 0, 64, 64
2, 64580, Note_on_c, 0, 64, 0
2, 64608, Note_on_c, 0, 64, 64
2, 64628, Note_on_c, 0, 64, 0
2, 64656, Note_on_c, 0, 64, 64
2, 64676, Note_on_c, 0, 64, 0
2, 64704, Note_on_c, 0, 67, 64
2, 64749, Note_on_c, 0, 67, 0
2, 64752, Note_on_c, 0, 66, 64
2, 64797, Note_on_c, 0, 66, 0
2, 64800, Note_on_c, 0, 64, 64
2, 64845, Note_on_c, 0, 64, 0
2, 64848, Note_on_c, 0, 75, 64
2, 64848, Note_on_c, 0, 63, 64
2, 64868, Note_on_c, 0, 75, 0
2, 64868, Note_on_c, 0, 63, 0
2, 64896, Note_on_c, 0, 76, 64
2, 64896, Note_on_c, 0, 64, 64
2, 64941, Note_on_c, 0, 76, 0
2, 64941, Note_on_c, 0, 64, 0
2, 64944, Note_on_c, 0, 75, 64
2, 64944, Note_on_c, 0, 63, 64
2, 64989, Note_on_c, 0, 75, 0
2, 64989, Note_on_c, 0, 63, 0
2, 64992, Note_on_c, 0, 76, 64
2, 64992, Note_on_c, 0, 64, 64
2, 65037, Note_on_c, 0, 76, 0
2, 65037, Note_on_c, 0, 64, 0
2, 65040, Note_on_c, 0, 78, 64
2, 65040, Note_on_c, 0, 66, 64
2, 65060, Note_on_c, 0, 78, 0
2, 65060, Note_on_c, 0, 66, 0
2, 65088, Note_on_c, 0, 79, 64
2, 65088, Note_on_c, 0, 67, 64
2, 65177, Note_on_c, 0, 79, 0
2, 65177, Note_on_c, 0, 67, 0
2, 65232, Note_on_c, 0, 79, 64
2, 65232, Note_on_c, 0, 76, 64
2, 65280, Note_on_c, 0, 79, 0
2, 65280, Note_on_c, 0, 76, 0
2, 65280, Note_on_c, 0, 78, 64
2, 65280, Note_on_c, 0, 74, 64
2, 65369, Note_on_c, 0, 78, 0
2, 65369, Note_on_c, 0, 74, 0
2, 65424, Note_on_c, 0, 76, 64
2, 65424, Note_on_c, 0, 73, 64
2, 65472, Note_on_c, 0, 76, 0
2, 65472, Note_on_c, 0, 73, 0
2, 65472, Note_on_c, 0, 74, 64
2, 65472, Note_on_c, 0, 71, 64
2, 65561, Note_on_c, 0, 74, 0
2, 65561, Note_on_c, 0, 71, 0
2, 65616, Note_on_c, 0, 75, 64
2, 65616, Note_on_c, 0, 63, 64
2, 65636, Note_on_c, 0, 75, 0
2, 65636, Note_on_c, 0, 63, 0
2, 65664, Note_on_c, 0, 76, 64
2, 65664, Note_on_c, 0, 64, 64
2, 65709, Note_on_c, 0, 76, 0
2, 65709, Note_on_c, 0, 64, 0
2, 65712, Note_on_c, 0, 75, 64
2, 65712, Note_on_c, 0, 63, 64
2, 65757, Note_on_c, 0, 75, 0
2, 65757, Note_on_c, 0, 63, 0
2, 65760, Note_on_c, 0, 76, 64
2, 65760, Note_on_c, 0, 64, 64
2, 65805, Note_on_c, 0, 76, 0
2, 65805, Note_on_c, 0, 64, 0
2, 65808, Note_on_c, 0, 78, 64
2, 65808, Note_on_c, 0, 66, 64
2, 65853, Note_on_c, 0, 78, 0
2, 65853, Note_on_c, 0, 66, 0
2, 65856, Note_on_c, 0, 79, 64
2, 65856, Note_on_c, 0, 67, 64
2, 65989, Note_on_c, 0, 79, 0
2, 65989, Note_on_c, 0, 67, 0
2, 66000, Note_on_c, 0, 76, 64
2, 66000, Note_on_c, 0, 64, 64
2, 66020, Note_on_c, 0, 76, 0
2, 66020, Note_on_c, 0, 64, 0
2, 66048, Note_on_c, 0, 82, 64
2, 66048, Note_on_c, 0, 70, 64
2, 66181, Note_on_c, 0, 82, 0
2, 66181, Note_on_c, 0, 70, 0
2, 66192, Note_on_c, 0, 83, 64
2, 66192, Note_on_c, 0, 71, 64
2, 66212, Note_on_c, 0, 83, 0
2, 66212, Note_on_c, 0, 71, 0
2, 66240, Note_on_c, 0, 85, 64
2, 66240, Note_on_c, 0, 73, 64
2, 66373, Note_on_c, 0, 85, 0
2, 66373, Note_on_c, 0, 73, 0
2, 66384, Note_on_c, 0, 86, 64
2, 66384, Note_on_c, 0, 74, 64
2, 66404, Note_on_c, 0, 86, 0
2, 66404, Note_on_c, 0, 74, 0
2, 66432, Note_on_c, 0, 88, 64
2, 66432, Note_on_c, 0, 76, 64
2, 66801, Note_on_c, 0, 88, 0
2, 66801, Note_on_c, 0, 76, 0
2, 66960, Note_on_c, 0, 71, 64
2, 66980, Note_on_c, 0, 71, 0
2, 67008, Note_on_c, 0, 71, 64
2, 67028, Note_on_c, 0, 71, 0
2, 67056, Note_on_c, 0, 71, 64
2, 67076, Note_on_c, 0, 71, 0
2, 67104, Note_on_c, 0, 71, 64
2, 67124, Note_on_c, 0, 71, 0
2, 67152, Note_on_c, 0, 71, 64
2, 67172, Note_on_c, 0, 71, 0
2, 67200, Note_on_c, 0, 71, 64
2, 67223, Note_on_c, 0, 71, 0
2, 67224, Note_on_c, 0, 73, 64
2, 67247, Note_on_c, 0, 73, 0
2, 67248, Note_on_c, 0, 74, 64
2, 67271, Note_on_c, 0, 74, 0
2, 67272, Note_on_c, 0, 73, 64
2, 67295, Note_on_c, 0, 73, 0
2, 67296, Note_on_c, 0, 71, 64
2, 67319, Note_on_c, 0, 71, 0
2, 67320, Note_on_c, 0, 73, 64
2, 67343, Note_on_c, 0, 73, 0
2, 67344, Note_on_c, 0, 74, 64
2, 67367, Note_on_c, 0, 74, 0
2, 67368, Note_on_c, 0, 73, 64
2, 67391, Note_on_c, 0, 73, 0
2, 67392, Note_on_c, 0, 71, 64
2, 67415, Note_on_c, 0, 71, 0
2, 67416, Note_on_c, 0, 73, 64
2, 67439, Note_on_c, 0, 73, 0
2, 67440, Note_on_c, 0, 74, 64
2, 67463, Note_on_c, 0, 74, 0
2, 67464, Note_on_c, 0, 73, 64
2, 67487, Note_on_c, 0, 73, 0
2, 67488, Note_on_c, 0, 71, 64
2, 67511, Note_on_c, 0, 71, 0
2, 67512, Note_on_c, 0, 73, 64
2, 67535, Note_on_c, 0, 73, 0
2, 67536, Note_on_c, 0, 74, 64
2, 67559, Note_on_c, 0, 74, 0
2, 67560, Note_on_c, 0, 73, 64
2, 67583, Note_on_c, 0, 73, 0
2, 67584, Note_on_c, 0, 71, 64
2, 67607, Note_on_c, 0, 71, 0
2, 67608, Note_on_c, 0, 73, 64
2, 67631, Note_on_c, 0, 73, 0
2, 67632, Note_on_c, 0, 74, 64
2, 67655, Note_on_c, 0, 74, 0
2, 67656, Note_on_c, 0, 73, 64
2, 67679, Note_on_c, 0, 73, 0
2, 67680, Note_on_c, 0, 71, 64
2, 67703, Note_on_c, 0, 71, 0
2, 67704, Note_on_c, 0, 73, 64
2, 67727, Note_on_c, 0, 73, 0
2, 67728, Note_on_c, 0, 74, 64
2, 67751, Note_on_c, 0, 74, 0
2, 67752, Note_on_c, 0, 73, 64
2, 67775, Note_on_c, 0, 73, 0
2, 67776, Note_on_c, 0, 71, 64
2, 67799, Note_on_c, 0, 71, 0
2, 67800, Note_on_c, 0, 73, 64
2, 67823, Note_on_c, 0, 73, 0
2, 67824, Note_on_c, 0, 74, 64
2, 67847, Note_on_c, 0, 74, 0
2, 67848, Note_on_c, 0, 73, 64
2, 67871, Note_on_c, 0, 73, 0
2, 67872, Note_on_c, 0, 71, 64
2, 67895, Note_on_c, 0, 71, 0
2, 67896, Note_on_c, 0, 73, 64
2, 67919, Note_on_c, 0, 73, 0
2, 67920, Note_on_c, 0, 74, 64
2, 67943, Note_on_c, 0, 74, 0
2, 67944, Note_on_c, 0, 73, 64
2, 67967, Note_on_c, 0, 73, 0
2, 67968, Note_on_c, 0, 71, 64
2, 67991, Note_on_c, 0, 71, 0
2, 67992, Note_on_c, 0, 73, 64
2, 68015, Note_on_c, 0, 73, 0
2, 68016, Note_on_c, 0, 74, 64
2, 68039, Note_on_c, 0, 74, 0
2, 68040, Note_on_c, 0, 73, 64
2, 68063, Note_on_c, 0, 73, 0
2, 68064, Note_on_c, 0, 71, 64
2, 68087, Note_on_c, 0, 71, 0
2, 68088, Note_on_c, 0, 73, 64
2, 68111, Note_on_c, 0, 73, 0
2, 68112, Note_on_c, 0, 74, 64
2, 68135, Note_on_c, 0, 74, 0
2, 68136, Note_on_c, 0, 73, 64
2, 68159, Note_on_c, 0, 73, 0
2, 68160, Note_on_c, 0, 71, 64
2, 68183, Note_on_c, 0, 71, 0
2, 68184, Note_on_c, 0, 73, 64
2, 68207, Note_on_c, 0, 73, 0
2, 68208, Note_on_c, 0, 74, 64
2, 68231, Note_on_c, 0, 74, 0
2, 68232, Note_on_c, 0, 73, 64
2, 68255, Note_on_c, 0, 73, 0
2, 68256, Note_on_c, 0, 71, 64
2, 68279, Note_on_c, 0, 71, 0
2, 68280, Note_on_c, 0, 73, 64
2, 68303, Note_on_c, 0, 73, 0
2, 68304, Note_on_c, 0, 74, 64
2, 68327, Note_on_c, 0, 74, 0
2, 68328, Note_on_c, 0, 73, 64
2, 68351, Note_on_c, 0, 73, 0
2, 68352, Note_on_c, 0, 71, 64
2, 68375, Note_on_c, 0, 71, 0
2, 68376, Note_on_c, 0, 73, 64
2, 68399, Note_on_c, 0, 73, 0
2, 68400, Note_on_c, 0, 74, 64
2, 68423, Note_on_c, 0, 74, 0
2, 68424, Note_on_c, 0, 73, 64
2, 68447, Note_on_c, 0, 73, 0
2, 68448, Note_on_c, 0, 71, 64
2, 68471, Note_on_c, 0, 71, 0
2, 68472, Note_on_c, 0, 73, 64
2, 68495, Note_on_c, 0, 73, 0
2, 68496, Note_on_c, 0, 74, 64
2, 68519, Note_on_c, 0, 74, 0
2, 68520, Note_on_c, 0, 73, 64
2, 68543, Note_on_c, 0, 73, 0
2, 68544, Note_on_c, 0, 71, 64
2, 68567, Note_on_c, 0, 71, 0
2, 68568, Note_on_c, 0, 73, 64
2, 68591, Note_on_c, 0, 73, 0
2, 68592, Note_on_c, 0, 74, 64
2, 68615, Note_on_c, 0, 74, 0
2, 68616, Note_on_c, 0, 76, 64
2, 68639, Note_on_c, 0, 76, 0
2, 68640, Note_on_c, 0, 78, 64
2, 68663, Note_on_c, 0, 78, 0
2, 68664, Note_on_c, 0, 80, 64
2, 68687, Note_on_c, 0, 80, 0
2, 68688, Note_on_c, 0, 82, 64
2, 68711, Note_on_c, 0, 82, 0
2, 68712, Note_on_c, 0, 83, 64
2, 68735, Note_on_c, 0, 83, 0
2, 68736, Note_on_c, 0, 82, 64
2, 68759, Note_on_c, 0, 82, 0
2, 68760, Note_on_c, 0, 78, 64
2, 68783, Note_on_c, 0, 78, 0
2, 68784, Note_on_c, 0, 77, 64
2, 68807, Note_on_c, 0, 77, 0
2, 68808, Note_on_c, 0, 78, 64
2, 68831, Note_on_c, 0, 78, 0
2, 68832, Note_on_c, 0, 76, 64
2, 68855, Note_on_c, 0, 76, 0
2, 68856, Note_on_c, 0, 79, 64
2, 68879, Note_on_c, 0, 79, 0
2, 68880, Note_on_c, 0, 78, 64
2, 68903, Note_on_c, 0, 78, 0
2, 68904, Note_on_c, 0, 76, 64
2, 68927, Note_on_c, 0, 76, 0
2, 68928, Note_on_c, 0, 74, 64
2, 68951, Note_on_c, 0, 74, 0
2, 68952, Note_on_c, 0, 78, 64
2, 68975, Note_on_c, 0, 78, 0
2, 68976, Note_on_c, 0, 76, 64
2, 68999, Note_on_c, 0, 76, 0
2, 69000, Note_on_c, 0, 74, 64
2, 69023, Note_on_c, 0, 74, 0
2, 69024, Note_on_c, 0, 73, 64
2, 69047, Note_on_c, 0, 73, 0
2, 69048, Note_on_c, 0, 76, 64
2, 69071, Note_on_c, 0, 76, 0
2, 69072, Note_on_c, 0, 74, 64
2, 69095, Note_on_c, 0, 74, 0
2, 69096, Note_on_c, 0, 73, 64
2, 69119, Note_on_c, 0, 73, 0
2, 69120, Note_on_c, 0, 78, 64
2, 69143, Note_on_c, 0, 78, 0
2, 69144, Note_on_c, 0, 74, 64
2, 69167, Note_on_c, 0, 74, 0
2, 69168, Note_on_c, 0, 73, 64
2, 69191, Note_on_c, 0, 73, 0
2, 69192, Note_on_c, 0, 71, 64
2, 69215, Note_on_c, 0, 71, 0
2, 69216, Note_on_c, 0, 79, 64
2, 69239, Note_on_c, 0, 79, 0
2, 69240, Note_on_c, 0, 76, 64
2, 69263, Note_on_c, 0, 76, 0
2, 69264, Note_on_c, 0, 74, 64
2, 69287, Note_on_c, 0, 74, 0
2, 69288, Note_on_c, 0, 73, 64
2, 69311, Note_on_c, 0, 73, 0
2, 69312, Note_on_c, 0, 74, 64
2, 69331, Note_on_c, 0, 74, 0
2, 69332, Note_on_c, 0, 73, 64
2, 69351, Note_on_c, 0, 73, 0
2, 69352, Note_on_c, 0, 74, 64
2, 69370, Note_on_c, 0, 74, 0
2, 69371, Note_on_c, 0, 73, 64
2, 69389, Note_on_c, 0, 73, 0
2, 69390, Note_on_c, 0, 74, 64
2, 69408, Note_on_c, 0, 74, 0
2, 69409, Note_on_c, 0, 73, 64
2, 69427, Note_on_c, 0, 73, 0
2, 69428, Note_on_c, 0, 74, 64
2, 69446, Note_on_c, 0, 74, 0
2, 69447, Note_on_c, 0, 73, 64
2, 69465, Note_on_c, 0, 73, 0
2, 69466, Note_on_c, 0, 71, 64
2, 69484, Note_on_c, 0, 71, 0
2, 69485, Note_on_c, 0, 73, 64
2, 69503, Note_on_c, 0, 73, 0
2, 69504, Note_on_c, 0, 71, 64
2, 69527, Note_on_c, 0, 71, 0
2, 69528, Note_on_c, 0, 73, 64
2, 69551, Note_on_c, 0, 73, 0
2, 69552, Note_on_c, 0, 74, 64
2, 69575, Note_on_c, 0, 74, 0
2, 69576, Note_on_c, 0, 73, 64
2, 69599, Note_on_c, 0, 73, 0
2, 69600, Note_on_c, 0, 71, 64
2, 69623, Note_on_c, 0, 71, 0
2, 69624, Note_on_c, 0, 73, 64
2, 69647, Note_on_c, 0, 73, 0
2, 69648, Note_on_c, 0, 74, 64
2, 69671, Note_on_c, 0, 74, 0
2, 69672, Note_on_c, 0, 73, 64
2, 69695, Note_on_c, 0, 73, 0
2, 69696, Note_on_c, 0, 71, 64
2, 69719, Note_on_c, 0, 71, 0
2, 69720, Note_on_c, 0, 73, 64
2, 69743, Note_on_c, 0, 73, 0
2, 69744, Note_on_c, 0, 74, 64
2, 69767, Note_on_c, 0, 74, 0
2, 69768, Note_on_c, 0, 73, 64
2, 69791, Note_on_c, 0, 73, 0
2, 69792, Note_on_c, 0, 71, 64
2, 69815, Note_on_c, 0, 71, 0
2, 69816, Note_on_c, 0, 73, 64
2, 69839, Note_on_c, 0, 73, 0
2, 69840, Note_on_c, 0, 74, 64
2, 69863, Note_on_c, 0, 74, 0
2, 69864, Note_on_c, 0, 73, 64
2, 69887, Note_on_c, 0, 73, 0
2, 69888, Note_on_c, 0, 71, 64
2, 69911, Note_on_c, 0, 71, 0
2, 69912, Note_on_c, 0, 73, 64
2, 69935, Note_on_c, 0, 73, 0
2, 69936, Note_on_c, 0, 74, 64
2, 69959, Note_on_c, 0, 74, 0
2, 69960, Note_on_c, 0, 73, 64
2, 69983, Note_on_c, 0, 73, 0
2, 69984, Note_on_c, 0, 71, 64
2, 70007, Note_on_c, 0, 71, 0
2, 70008, Note_on_c, 0, 73, 64
2, 70031, Note_on_c, 0, 73, 0
2, 70032, Note_on_c, 0, 74, 64
2, 70055, Note_on_c, 0, 74, 0
2, 70056, Note_on_c, 0, 73, 64
2, 70079, Note_on_c, 0, 73, 0
2, 70080, Note_on_c, 0, 71, 64
2, 70103, Note_on_c, 0, 71, 0
2, 70104, Note_on_c, 0, 73, 64
2, 70127, Note_on_c, 0, 73, 0
2, 70128, Note_on_c, 0, 74, 64
2, 70151, Note_on_c, 0, 74, 0
2, 70152, Note_on_c, 0, 73, 64
2, 70175, Note_on_c, 0, 73, 0
2, 70176, Note_on_c, 0, 71, 64
2, 70199, Note_on_c, 0, 71, 0
2, 70200, Note_on_c, 0, 73, 64
2, 70223, Note_on_c, 0, 73, 0
2, 70224, Note_on_c, 0, 74, 64
2, 70247, Note_on_c, 0, 74, 0
2, 70248, Note_on_c, 0, 73, 64
2, 70271, Note_on_c, 0, 73, 0
2, 70272, Note_on_c, 0, 71, 64
2, 70295, Note_on_c, 0, 71, 0
2, 70296, Note_on_c, 0, 73, 64
2, 70319, Note_on_c, 0, 73, 0
2, 70320, Note_on_c, 0, 74, 64
2, 70343, Note_on_c, 0, 74, 0
2, 70344, Note_on_c, 0, 73, 64
2, 70367, Note_on_c, 0, 73, 0
2, 70368, Note_on_c, 0, 71, 64
2, 70391, Note_on_c, 0, 71, 0
2, 70392, Note_on_c, 0, 73, 64
2, 70415, Note_on_c, 0, 73, 0
2, 70416, Note_on_c, 0, 74, 64
2, 70439, Note_on_c, 0, 74, 0
2, 70440, Note_on_c, 0, 73, 64
2, 70463, Note_on_c, 0, 73, 0
2, 70464, Note_on_c, 0, 71, 64
2, 70487, Note_on_c, 0, 71, 0
2, 70488, Note_on_c, 0, 73, 64
2, 70511, Note_on_c, 0, 73, 0
2, 70512, Note_on_c, 0, 74, 64
2, 70535, Note_on_c, 0, 74, 0
2, 70536, Note_on_c, 0, 73, 64
2, 70559, Note_on_c, 0, 73, 0
2, 70560, Note_on_c, 0, 71, 64
2, 70583, Note_on_c, 0, 71, 0
2, 70584, Note_on_c, 0, 73, 64
2, 70607, Note_on_c, 0, 73, 0
2, 70608, Note_on_c, 0, 74, 64
2, 70631, Note_on_c, 0, 74, 0
2, 70632, Note_on_c, 0, 73, 64
2, 70655, Note_on_c, 0, 73, 0
2, 70656, Note_on_c, 0, 71, 64
2, 70679, Note_on_c, 0, 71, 0
2, 70680, Note_on_c, 0, 73, 64
2, 70703, Note_on_c, 0, 73, 0
2, 70704, Note_on_c, 0, 74, 64
2, 70727, Note_on_c, 0, 74, 0
2, 70728, Note_on_c, 0, 73, 64
2, 70751, Note_on_c, 0, 73, 0
2, 70752, Note_on_c, 0, 71, 64
2, 70775, Note_on_c, 0, 71, 0
2, 70776, Note_on_c, 0, 73, 64
2, 70799, Note_on_c, 0, 73, 0
2, 70800, Note_on_c, 0, 74, 64
2, 70823, Note_on_c, 0, 74, 0
2, 70824, Note_on_c, 0, 73, 64
2, 70847, Note_on_c, 0, 73, 0
2, 70848, Note_on_c, 0, 71, 64
2, 70871, Note_on_c, 0, 71, 0
2, 70872, Note_on_c, 0, 73, 64
2, 70895, Note_on_c, 0, 73, 0
2, 70896, Note_on_c, 0, 74, 64
2, 70919, Note_on_c, 0, 74, 0
2, 70920, Note_on_c, 0, 76, 64
2, 70943, Note_on_c, 0, 76, 0
2, 70944, Note_on_c, 0, 78, 64
2, 70967, Note_on_c, 0, 78, 0
2, 70968, Note_on_c, 0, 80, 64
2, 70991, Note_on_c, 0, 80, 0
2, 70992, Note_on_c, 0, 82, 64
2, 71015, Note_on_c, 0, 82, 0
2, 71016, Note_on_c, 0, 83, 64
2, 71039, Note_on_c, 0, 83, 0
2, 71040, Note_on_c, 0, 82, 64
2, 71063, Note_on_c, 0, 82, 0
2, 71064, Note_on_c, 0, 78, 64
2, 71087, Note_on_c, 0, 78, 0
2, 71088, Note_on_c, 0, 77, 64
2, 71111, Note_on_c, 0, 77, 0
2, 71112, Note_on_c, 0, 78, 64
2, 71135, Note_on_c, 0, 78, 0
2, 71136, Note_on_c, 0, 76, 64
2, 71159, Note_on_c, 0, 76, 0
2, 71160, Note_on_c, 0, 79, 64
2, 71183, Note_on_c, 0, 79, 0
2, 71184, Note_on_c, 0, 78, 64
2, 71207, Note_on_c, 0, 78, 0
2, 71208, Note_on_c, 0, 76, 64
2, 71231, Note_on_c, 0, 76, 0
2, 71232, Note_on_c, 0, 74, 64
2, 71255, Note_on_c, 0, 74, 0
2, 71256, Note_on_c, 0, 78, 64
2, 71279, Note_on_c, 0, 78, 0
2, 71280, Note_on_c, 0, 76, 64
2, 71303, Note_on_c, 0, 76, 0
2, 71304, Note_on_c, 0, 74, 64
2, 71327, Note_on_c, 0, 74, 0
2, 71328, Note_on_c, 0, 73, 64
2, 71351, Note_on_c, 0, 73, 0
2, 71352, Note_on_c, 0, 76, 64
2, 71375, Note_on_c, 0, 76, 0
2, 71376, Note_on_c, 0, 74, 64
2, 71399, Note_on_c, 0, 74, 0
2, 71400, Note_on_c, 0, 73, 64
2, 71423, Note_on_c, 0, 73, 0
2, 71424, Note_on_c, 0, 78, 64
2, 71447, Note_on_c, 0, 78, 0
2, 71448, Note_on_c, 0, 74, 64
2, 71471, Note_on_c, 0, 74, 0
2, 71472, Note_on_c, 0, 73, 64
2, 71495, Note_on_c, 0, 73, 0
2, 71496, Note_on_c, 0, 71, 64
2, 71519, Note_on_c, 0, 71, 0
2, 71520, Note_on_c, 0, 79, 64
2, 71543, Note_on_c, 0, 79, 0
2, 71544, Note_on_c, 0, 76, 64
2, 71567, Note_on_c, 0, 76, 0
2, 71568, Note_on_c, 0, 74, 64
2, 71591, Note_on_c, 0, 74, 0
2, 71592, Note_on_c, 0, 73, 64
2, 71615, Note_on_c, 0, 73, 0
2, 71616, Note_on_c, 0, 74, 64
2, 71635, Note_on_c, 0, 74, 0
2, 71636, Note_on_c, 0, 73, 64
2, 71655, Note_on_c, 0, 73, 0
2, 71656, Note_on_c, 0, 74, 64
2, 71674, Note_on_c, 0, 74, 0
2, 71675, Note_on_c, 0, 73, 64
2, 71693, Note_on_c, 0, 73, 0
2, 71694, Note_on_c, 0, 74, 64
2, 71712, Note_on_c, 0, 74, 0
2, 71713, Note_on_c, 0, 73, 64
2, 71731, Note_on_c, 0, 73, 0
2, 71732, Note_on_c, 0, 74, 64
2, 71750, Note_on_c, 0, 74, 0
2, 71751, Note_on_c, 0, 73, 64
2, 71769, Note_on_c, 0, 73, 0
2, 71770, Note_on_c, 0, 71, 64
2, 71788, Note_on_c, 0, 71, 0
2, 71789, Note_on_c, 0, 73, 64
2, 71807, Note_on_c, 0, 73, 0
2, 71808, Note_on_c, 0, 71, 64
2, 71831, Note_on_c, 0, 71, 0
2, 71832, Note_on_c, 0, 78, 64
2, 71855, Note_on_c, 0, 78, 0
2, 71856, Note_on_c, 0, 74, 64
2, 71879, Note_on_c, 0, 74, 0
2, 71880, Note_on_c, 0, 71, 64
2, 71903, Note_on_c, 0, 71, 0
2, 71904, Note_on_c, 0, 70, 64
2, 71927, Note_on_c, 0, 70, 0
2, 71928, Note_on_c, 0, 76, 64
2, 71951, Note_on_c, 0, 76, 0
2, 71952, Note_on_c, 0, 73, 64
2, 71975, Note_on_c, 0, 73, 0
2, 71976, Note_on_c, 0, 70, 64
2, 71999, Note_on_c, 0, 70, 0
2, 72000, Note_on_c, 0, 71, 64
2, 72023, Note_on_c, 0, 71, 0
2, 72024, Note_on_c, 0, 78, 64
2, 72047, Note_on_c, 0, 78, 0
2, 72048, Note_on_c, 0, 74, 64
2, 72071, Note_on_c, 0, 74, 0
2, 72072, Note_on_c, 0, 71, 64
2, 72095, Note_on_c, 0, 71, 0
2, 72096, Note_on_c, 0, 70, 64
2, 72119, Note_on_c, 0, 70, 0
2, 72120, Note_on_c, 0, 76, 64
2, 72143, Note_on_c, 0, 76, 0
2, 72144, Note_on_c, 0, 73, 64
2, 72167, Note_on_c, 0, 73, 0
2, 72168, Note_on_c, 0, 70, 64
2, 72191, Note_on_c, 0, 70, 0
2, 72192, Note_on_c, 0, 71, 64
2, 72215, Note_on_c, 0, 71, 0
2, 72216, Note_on_c, 0, 78, 64
2, 72239, Note_on_c, 0, 78, 0
2, 72240, Note_on_c, 0, 74, 64
2, 72263, Note_on_c, 0, 74, 0
2, 72264, Note_on_c, 0, 71, 64
2, 72287, Note_on_c, 0, 71, 0
2, 72288, Note_on_c, 0, 70, 64
2, 72311, Note_on_c, 0, 70, 0
2, 72312, Note_on_c, 0, 76, 64
2, 72335, Note_on_c, 0, 76, 0
2, 72336, Note_on_c, 0, 73, 64
2, 72359, Note_on_c, 0, 73, 0
2, 72360, Note_on_c, 0, 70, 64
2, 72383, Note_on_c, 0, 70, 0
2, 72384, Note_on_c, 0, 71, 64
2, 72407, Note_on_c, 0, 71, 0
2, 72408, Note_on_c, 0, 78, 64
2, 72431, Note_on_c, 0, 78, 0
2, 72432, Note_on_c, 0, 74, 64
2, 72455, Note_on_c, 0, 74, 0
2, 72456, Note_on_c, 0, 71, 64
2, 72479, Note_on_c, 0, 71, 0
2, 72480, Note_on_c, 0, 70, 64
2, 72503, Note_on_c, 0, 70, 0
2, 72504, Note_on_c, 0, 76, 64
2, 72527, Note_on_c, 0, 76, 0
2, 72528, Note_on_c, 0, 73, 64
2, 72551, Note_on_c, 0, 73, 0
2, 72552, Note_on_c, 0, 70, 64
2, 72575, Note_on_c, 0, 70, 0
2, 72576, Note_on_c, 0, 71, 64
2, 72624, Note_on_c, 0, 74, 64
2, 72669, Note_on_c, 0, 74, 0
2, 72669, Note_on_c, 0, 71, 0
2, 72672, Note_on_c, 0, 74, 64
2, 72672, Note_on_c, 0, 71, 64
2, 72692, Note_on_c, 0, 74, 0
2, 72692, Note_on_c, 0, 71, 0
2, 72720, Note_on_c, 0, 74, 64
2, 72720, Note_on_c, 0, 71, 64
2, 72740, Note_on_c, 0, 74, 0
2, 72740, Note_on_c, 0, 71, 0
2, 72768, Note_on_c, 0, 78, 64
2, 72768, Note_on_c, 0, 74, 64
2, 72816, Note_on_c, 0, 78, 0
2, 72816, Note_on_c, 0, 71, 64
2, 72861, Note_on_c, 0, 74, 0
2, 72861, Note_on_c, 0, 71, 0
2, 72864, Note_on_c, 0, 74, 64
2, 72864, Note_on_c, 0, 71, 64
2, 72884, Note_on_c, 0, 74, 0
2, 72884, Note_on_c, 0, 71, 0
2, 72912, Note_on_c, 0, 74, 64
2, 72912, Note_on_c, 0, 71, 64
2, 72932, Note_on_c, 0, 74, 0
2, 72932, Note_on_c, 0, 71, 0
2, 72960, Note_on_c, 0, 86, 64
2, 72960, Note_on_c, 0, 83, 64
2, 73049, Note_on_c, 0, 86, 0
2, 73049, Note_on_c, 0, 83, 0
2, 73296, Note_on_c, 0, 71, 64
2, 73296, Note_on_c, 0, 59, 64
2, 73316, Note_on_c, 0, 71, 0
2, 73316, Note_on_c, 0, 59, 0
2, 73344, Note_on_c, 0, 71, 64
2, 73344, Note_on_c, 0, 59, 64
2, 73364, Note_on_c, 0, 71, 0
2, 73364, Note_on_c, 0, 59, 0
2, 73392, Note_on_c, 0, 71, 64
2, 73392, Note_on_c, 0, 59, 64
2, 73412, Note_on_c, 0, 71, 0
2, 73412, Note_on_c, 0, 59, 0
2, 73440, Note_on_c, 0, 71, 64
2, 73440, Note_on_c, 0, 59, 64
2, 73460, Note_on_c, 0, 71, 0
2, 73460, Note_on_c, 0, 59, 0
2, 73488, Note_on_c, 0, 71, 64
2, 73488, Note_on_c, 0, 59, 64
2, 73508, Note_on_c, 0, 71, 0
2, 73508, Note_on_c, 0, 59, 0
2, 73536, Note_on_c, 0, 74, 64
2, 73536, Note_on_c, 0, 62, 64
2, 73581, Note_on_c, 0, 74, 0
2, 73581, Note_on_c, 0, 62, 0
2, 73584, Note_on_c, 0, 73, 64
2, 73584, Note_on_c, 0, 61, 64
2, 73629, Note_on_c, 0, 73, 0
2, 73629, Note_on_c, 0, 61, 0
2, 73632, Note_on_c, 0, 71, 64
2, 73632, Note_on_c, 0, 59, 64
2, 73677, Note_on_c, 0, 71, 0
2, 73677, Note_on_c, 0, 59, 0
2, 73680, Note_on_c, 0, 79, 64
2, 73680, Note_on_c, 0, 67, 64
2, 73700, Note_on_c, 0, 79, 0
2, 73700, Note_on_c, 0, 67, 0
2, 73728, Note_on_c, 0, 78, 64
2, 73728, Note_on_c, 0, 66, 64
2, 73773, Note_on_c, 0, 78, 0
2, 73773, Note_on_c, 0, 66, 0
2, 73776, Note_on_c, 0, 77, 64
2, 73776, Note_on_c, 0, 65, 64
2, 73821, Note_on_c, 0, 77, 0
2, 73821, Note_on_c, 0, 65, 0
2, 73824, Note_on_c, 0, 78, 64
2, 73824, Note_on_c, 0, 66, 64
2, 73869, Note_on_c, 0, 78, 0
2, 73869, Note_on_c, 0, 66, 0
2, 73872, Note_on_c, 0, 76, 64
2, 73872, Note_on_c, 0, 64, 64
2, 73892, Note_on_c, 0, 76, 0
2, 73892, Note_on_c, 0, 64, 0
2, 73920, Note_on_c, 0, 74, 64
2, 73920, Note_on_c, 0, 62, 64
2, 73965, Note_on_c, 0, 74, 0
2, 73965, Note_on_c, 0, 62, 0
2, 73968, Note_on_c, 0, 73, 64
2, 73968, Note_on_c, 0, 61, 64
2, 74013, Note_on_c, 0, 73, 0
2, 74013, Note_on_c, 0, 61, 0
2, 74016, Note_on_c, 0, 74, 64
2, 74016, Note_on_c, 0, 62, 64
2, 74061, Note_on_c, 0, 74, 0
2, 74061, Note_on_c, 0, 62, 0
2, 74064, Note_on_c, 0, 73, 64
2, 74064, Note_on_c, 0, 61, 64
2, 74084, Note_on_c, 0, 73, 0
2, 74084, Note_on_c, 0, 61, 0
2, 74112, Note_on_c, 0, 71, 64
2, 74112, Note_on_c, 0, 59, 64
2, 74157, Note_on_c, 0, 71, 0
2, 74157, Note_on_c, 0, 59, 0
2, 74160, Note_on_c, 0, 70, 64
2, 74160, Note_on_c, 0, 58, 64
2, 74205, Note_on_c, 0, 70, 0
2, 74205, Note_on_c, 0, 58, 0
2, 74208, Note_on_c, 0, 71, 64
2, 74208, Note_on_c, 0, 59, 64
2, 74253, Note_on_c, 0, 71, 0
2, 74253, Note_on_c, 0, 59, 0
2, 74256, Note_on_c, 0, 69, 64
2, 74256, Note_on_c, 0, 57, 64
2, 74276, Note_on_c, 0, 69, 0
2, 74276, Note_on_c, 0, 57, 0
2, 74304, Note_on_c, 0, 67, 64
2, 74304, Note_on_c, 0, 55, 64
2, 74393, Note_on_c, 0, 67, 0
2, 74393, Note_on_c, 0, 55, 0
2, 75072, End_track
3, 0, Start_track
3, 0, Program_c, 0, 0
3, 0, Control_c, 0, 7, 127
3, 0, Control_c, 0, 10, 64
3, 33216, Note_on_c, 0, 69, 64
3, 33261, Note_on_c, 0, 69, 0
3, 33264, Note_on_c, 0, 68, 64
3, 33309, Note_on_c, 0, 68, 0
3, 33312, Note_on_c, 0, 66, 64
3, 33357, Note_on_c, 0, 66, 0
3, 33360, Note_on_c, 0, 74, 64
3, 33380, Note_on_c, 0, 74, 0
3, 33408, Note_on_c, 0, 73, 64
3, 33453, Note_on_c, 0, 73, 0
3, 33456, Note_on_c, 0, 71, 64
3, 33501, Note_on_c, 0, 71, 0
3, 33504, Note_on_c, 0, 69, 64
3, 33549, Note_on_c, 0, 69, 0
3, 33552, Note_on_c, 0, 68, 64
3, 33572, Note_on_c, 0, 68, 0
3, 33744, Note_on_c, 0, 73, 64
3, 33764, Note_on_c, 0, 73, 0
3, 33792, Note_on_c, 0, 73, 64
3, 33812, Note_on_c, 0, 73, 0
3, 33840, Note_on_c, 0, 73, 64
3, 33860, Note_on_c, 0, 73, 0
3, 33888, Note_on_c, 0, 73, 64
3, 33908, Note_on_c, 0, 73, 0
3, 33936, Note_on_c, 0, 73, 64
3, 33956, Note_on_c, 0, 73, 0
3, 33984, Note_on_c, 0, 73, 64
3, 33984, Note_on_c, 0, 66, 64
3, 34073, Note_on_c, 0, 73, 0
3, 34073, Note_on_c, 0, 66, 0
3, 57024, Note_on_c, 0, 69, 64
3, 57069, Note_on_c, 0, 69, 0
3, 57072, Note_on_c, 0, 68, 64
3, 57117, Note_on_c, 0, 68, 0
3, 57120, Note_on_c, 0, 66, 64
3, 57165, Note_on_c, 0, 66, 0
3, 57168, Note_on_c, 0, 74, 64
3, 57188, Note_on_c, 0, 74, 0
3, 57216, Note_on_c, 0, 73, 64
3, 57261, Note_on_c, 0, 73, 0
3, 57264, Note_on_c, 0, 71, 64
3, 57309, Note_on_c, 0, 71, 0
3, 57312, Note_on_c, 0, 69, 64
3, 57357, Note_on_c, 0, 69, 0
3, 57360, Note_on_c, 0, 68, 64
3, 57380, Note_on_c, 0, 68, 0
3, 57552, Note_on_c, 0, 73, 64
3, 57572, Note_on_c, 0, 73, 0
3, 57600, Note_on_c, 0, 73, 64
3, 57620, Note_on_c, 0, 73, 0
3, 57648, Note_on_c, 0, 73, 64
3, 57668, Note_on_c, 0, 73, 0
3, 57696, Note_on_c, 0, 73, 64
3, 57716, Note_on_c, 0, 73, 0
3, 57744, Note_on_c, 0, 73, 64
3, 57764, Note_on_c, 0, 73, 0
3, 57792, Note_on_c, 0, 73, 64
3, 57792, Note_on_c, 0, 66, 64
3, 57881, Note_on_c, 0, 73, 0
3, 57881, Note_on_c, 0, 66, 0
3, 75072, End_track
4, 0, Start_track
4, 0, Program_c, 0, 0
4, 0, Control_c, 0, 7, 127
4, 0, Control_c, 0, 10, 64
4, 33600, Note_on_c, 0, 66, 64
4, 33777, Note_on_c, 0, 66, 0
4, 33792, Note_on_c, 0, 65, 64
4, 33969, Note_on_c, 0, 65, 0
4, 57408, Note_on_c, 0, 66, 64
4, 57585, Note_on_c, 0, 66, 0
4, 57600, Note_on_c, 0, 65, 64
4, 57777, Note_on_c, 0, 65, 0
4, 75072, End_track
5, 0, Start_track
5, 0, Program_c, 1, 0
5, 0, Control_c, 1, 7, 127
5, 0, Control_c, 1, 10, 64
5, 29184, Note_on_c, 1, 64, 64
5, 29361, Note_on_c, 1, 64, 0
5, 29376, Note_on_c, 1, 64, 64
5, 29553, Note_on_c, 1, 64, 0
5, 29568, Note_on_c, 1, 63, 64
5, 29745, Note_on_c, 1, 63, 0
5, 29760, Note_on_c, 1, 62, 64
5, 29937, Note_on_c, 1, 62, 0
5, 29952, Note_on_c, 1, 61, 64
5, 30129, Note_on_c, 1, 61, 0
5, 30144, Note_on_c, 1, 60, 64
5, 30321, Note_on_c, 1, 60, 0
5, 32832, Note_on_c, 1, 54, 64
5, 33009, Note_on_c, 1, 54, 0
5, 33024, Note_on_c, 1, 53, 64
5, 33201, Note_on_c, 1, 53, 0
5, 33216, Note_on_c, 1, 54, 64
5, 33305, Note_on_c, 1, 54, 0
5, 34128, Note_on_c, 1, 66, 64
5, 34128, Note_on_c, 1, 54, 64
5, 34148, Note_on_c, 1, 66, 0
5, 34148, Note_on_c, 1, 54, 0
5, 34176, Note_on_c, 1, 64, 64
5, 34176, Note_on_c, 1, 52, 64
5, 34196, Note_on_c, 1, 64, 0
5, 34196, Note_on_c, 1, 52, 0
5, 34224, Note_on_c, 1, 62, 64
5, 34224, Note_on_c, 1, 50, 64
5, 34244, Note_on_c, 1, 62, 0
5, 34244, Note_on_c, 1, 50, 0
5, 34272, Note_on_c, 1, 61, 64
5, 34272, Note_on_c, 1, 49, 64
5, 34292, Note_on_c, 1, 61, 0
5, 34292, Note_on_c, 1, 49, 0
5, 34320, Note_on_c, 1, 59, 64
5, 34320, Note_on_c, 1, 47, 64
5, 34340, Note_on_c, 1, 59, 0
5, 34340, Note_on_c, 1, 47, 0
5, 34368, Note_on_c, 1, 57, 64
5, 34368, Note_on_c, 1, 45, 64
5, 34457, Note_on_c, 1, 57, 0
5, 34457, Note_on_c, 1, 45, 0
5, 34512, Note_on_c, 1, 62, 64
5, 34512, Note_on_c, 1, 50, 64
5, 34532, Note_on_c, 1, 62, 0
5, 34532, Note_on_c, 1, 50, 0
5, 34560, Note_on_c, 1, 61, 64
5, 34560, Note_on_c, 1, 49, 64
5, 34580, Note_on_c, 1, 61, 0
5, 34580, Note_on_c, 1, 49, 0
5, 34608, Note_on_c, 1, 59, 64
5, 34608, Note_on_c, 1, 47, 64
5, 34628, Note_on_c, 1, 59, 0
5, 34628, Note_on_c, 1, 47, 0
5, 34656, Note_on_c, 1, 57, 64
5, 34656, Note_on_c, 1, 45, 64
5, 34676, Note_on_c, 1, 57, 0
5, 34676, Note_on_c, 1, 45, 0
5, 34704, Note_on_c, 1, 56, 64
5, 34704, Note_on_c, 1, 44, 64
5, 34724, Note_on_c, 1, 56, 0
5, 34724, Note_on_c, 1, 44, 0
5, 34752, Note_on_c, 1, 54, 64
5, 34752, Note_on_c, 1, 42, 64
5, 34841, Note_on_c, 1, 54, 0
5, 34841, Note_on_c, 1, 42, 0
5, 35136, Note_on_c, 1, 68, 64
5, 35136, Note_on_c, 1, 66, 64
5, 35156, Note_on_c, 1, 68, 0
5, 35156, Note_on_c, 1, 66, 0
5, 35184, Note_on_c, 1, 68, 64
5, 35184, Note_on_c, 1, 66, 64
5, 35204, Note_on_c, 1, 68, 0
5, 35204, Note_on_c, 1, 66, 0
5, 35232, Note_on_c, 1, 68, 64
5, 35232, Note_on_c, 1, 66, 64
5, 35252, Note_on_c, 1, 68, 0
5, 35252, Note_on_c, 1, 66, 0
5, 35280, Note_on_c, 1, 68, 64
5, 35280, Note_on_c, 1, 66, 64
5, 35300, Note_on_c, 1, 68, 0
5, 35300, Note_on_c, 1, 66, 0
5, 35328, Note_on_c, 1, 68, 64
5, 35328, Note_on_c, 1, 66, 64
5, 35417, Note_on_c, 1, 68, 0
5, 35417, Note_on_c, 1, 66, 0
5, 35520, Note_on_c, 1, 68, 64
5, 35520, Note_on_c, 1, 64, 64
5, 35540, Note_on_c, 1, 68, 0
5, 35540, Note_on_c, 1, 64, 0
5, 35568, Note_on_c, 1, 68, 64
5, 35568, Note_on_c, 1, 64, 64
5, 35588, Note_on_c, 1, 68, 0
5, 35588, Note_on_c, 1, 64, 0
5, 35616, Note_on_c, 1, 68, 64
5, 35616, Note_on_c, 1, 64, 64
5, 35636, Note_on_c, 1, 68, 0
5, 35636, Note_on_c, 1, 64, 0
5, 35664, Note_on_c, 1, 68, 64
5, 35664, Note_on_c, 1, 64, 64
5, 35684, Note_on_c, 1, 68, 0
5, 35684, Note_on_c, 1, 64, 0
5, 35712, Note_on_c, 1, 68, 64
5, 35712, Note_on_c, 1, 64, 64
5, 35801, Note_on_c, 1, 68, 0
5, 35801, Note_on_c, 1, 64, 0
5, 35904, Note_on_c, 1, 66, 64
5, 35904, Note_on_c, 1, 64, 64
5, 35924, Note_on_c, 1, 66, 0
5, 35924, Note_on_c, 1, 64, 0
5, 35952, Note_on_c, 1, 66, 64
5, 35952, Note_on_c, 1, 64, 64
5, 35972, Note_on_c, 1, 66, 0
5, 35972, Note_on_c, 1, 64, 0
5, 36000, Note_on_c, 1, 66, 64
5, 36000, Note_on_c, 1, 64, 64
5, 36020, Note_on_c, 1, 66, 0
5, 36020, Note_on_c, 1, 64, 0
5, 36048, Note_on_c, 1, 66, 64
5, 36048, Note_on_c, 1, 64, 64
5, 36068, Note_on_c, 1, 66, 0
5, 36068, Note_on_c, 1, 64, 0
5, 36096, Note_on_c, 1, 66, 64
5, 36096, Note_on_c, 1, 64, 64
5, 36185, Note_on_c, 1, 66, 0
5, 36185, Note_on_c, 1, 64, 0
5, 36288, Note_on_c, 1, 66, 64
5, 36288, Note_on_c, 1, 62, 64
5, 36308, Note_on_c, 1, 66, 0
5, 36308, Note_on_c, 1, 62, 0
5, 36336, Note_on_c, 1, 66, 64
5, 36336, Note_on_c, 1, 62, 64
5, 36356, Note_on_c, 1, 66, 0
5, 36356, Note_on_c, 1, 62, 0
5, 36384, Note_on_c, 1, 66, 64
5, 36384, Note_on_c, 1, 62, 64
5, 36404, Note_on_c, 1, 66, 0
5, 36404, Note_on_c, 1, 62, 0
5, 36432, Note_on_c, 1, 66, 64
5, 36432, Note_on_c, 1, 62, 64
5, 36452, Note_on_c, 1, 66, 0
5, 36452, Note_on_c, 1, 62, 0
5, 36480, Note_on_c, 1, 66, 64
5, 36480, Note_on_c, 1, 62, 64
5, 36569, Note_on_c, 1, 66, 0
5, 36569, Note_on_c, 1, 62, 0
5, 36672, Note_on_c, 1, 66, 64
5, 36672, Note_on_c, 1, 58, 64
5, 36692, Note_on_c, 1, 66, 0
5, 36692, Note_on_c, 1, 58, 0
5, 36720, Note_on_c, 1, 66, 64
5, 36720, Note_on_c, 1, 58, 64
5, 36740, Note_on_c, 1, 66, 0
5, 36740, Note_on_c, 1, 58, 0
5, 36768, Note_on_c, 1, 66, 64
5, 36768, Note_on_c, 1, 58, 64
5, 36788, Note_on_c, 1, 66, 0
5, 36788, Note_on_c, 1, 58, 0
5, 36816, Note_on_c, 1, 66, 64
5, 36816, Note_on_c, 1, 58, 64
5, 36836, Note_on_c, 1, 66, 0
5, 36836, Note_on_c, 1, 58, 0
5, 36864, Note_on_c, 1, 66, 64
5, 36864, Note_on_c, 1, 58, 64
5, 36953, Note_on_c, 1, 66, 0
5, 36953, Note_on_c, 1, 58, 0
5, 37056, Note_on_c, 1, 66, 64
5, 37056, Note_on_c, 1, 59, 64
5, 37145, Note_on_c, 1, 66, 0
5, 37145, Note_on_c, 1, 59, 0
5, 37248, Note_on_c, 1, 65, 64
5, 37248, Note_on_c, 1, 55, 64
5, 37337, Note_on_c, 1, 65, 0
5, 37337, Note_on_c, 1, 55, 0
5, 37440, Note_on_c, 1, 66, 64
5, 37440, Note_on_c, 1, 54, 64
5, 37529, Note_on_c, 1, 66, 0
5, 37529, Note_on_c, 1, 54, 0
5, 40272, Note_on_c, 1, 61, 64
5, 40292, Note_on_c, 1, 61, 0
5, 40320, Note_on_c, 1, 61, 64
5, 40340, Note_on_c, 1, 61, 0
5, 40368, Note_on_c, 1, 61, 64
5, 40388, Note_on_c, 1, 61, 0
5, 40416, Note_on_c, 1, 61, 64
5, 40436, Note_on_c, 1, 61, 0
5, 40464, Note_on_c, 1, 61, 64
5, 40484, Note_on_c, 1, 61, 0
5, 40512, Note_on_c, 1, 64, 64
5, 40557, Note_on_c, 1, 64, 0
5, 40560, Note_on_c, 1, 62, 64
5, 40605, Note_on_c, 1, 62, 0
5, 40608, Note_on_c, 1, 61, 64
5, 40653, Note_on_c, 1, 61, 0
5, 40656, Note_on_c, 1, 61, 64
5, 40676, Note_on_c, 1, 61, 0
5, 40704, Note_on_c, 1, 61, 64
5, 40724, Note_on_c, 1, 61, 0
5, 40752, Note_on_c, 1, 61, 64
5, 40772, Note_on_c, 1, 61, 0
5, 40800, Note_on_c, 1, 61, 64
5, 40820, Note_on_c, 1, 61, 0
5, 40848, Note_on_c, 1, 61, 64
5, 40868, Note_on_c, 1, 61, 0
5, 40896, Note_on_c, 1, 64, 64
5, 40941, Note_on_c, 1, 64, 0
5, 40944, Note_on_c, 1, 62, 64
5, 40989, Note_on_c, 1, 62, 0
5, 40992, Note_on_c, 1, 61, 64
5, 41037, Note_on_c, 1, 61, 0
5, 41520, Note_on_c, 1, 66, 64
5, 41540, Note_on_c, 1, 66, 0
5, 41568, Note_on_c, 1, 66, 64
5, 41613, Note_on_c, 1, 66, 0
5, 41712, Note_on_c, 1, 67, 64
5, 41732, Note_on_c, 1, 67, 0
5, 41760, Note_on_c, 1, 67, 64
5, 41805, Note_on_c, 1, 67, 0
5, 42096, Note_on_c, 1, 51, 64
5, 42096, Note_on_c, 1, 39, 64
5, 42116, Note_on_c, 1, 51, 0
5, 42116, Note_on_c, 1, 39, 0
5, 42144, Note_on_c, 1, 52, 64
5, 42144, Note_on_c, 1, 40, 64
5, 42285, Note_on_c, 1, 52, 0
5, 42285, Note_on_c, 1, 40, 0
5, 42288, Note_on_c, 1, 50, 64
5, 42288, Note_on_c, 1, 38, 64
5, 42308, Note_on_c, 1, 50, 0
5, 42308, Note_on_c, 1, 38, 0
5, 42336, Note_on_c, 1, 49, 64
5, 42336, Note_on_c, 1, 37, 64
5, 42477, Note_on_c, 1, 49, 0
5, 42477, Note_on_c, 1, 37, 0
5, 42480, Note_on_c, 1, 47, 64
5, 42480, Note_on_c, 1, 35, 64
5, 42500, Note_on_c, 1, 47, 0
5, 42500, Note_on_c, 1, 35, 0
5, 42528, Note_on_c, 1, 46, 64
5, 42528, Note_on_c, 1, 34, 64
5, 42669, Note_on_c, 1, 46, 0
5, 42669, Note_on_c, 1, 34, 0
5, 42672, Note_on_c, 1, 44, 64
5, 42672, Note_on_c, 1, 32, 64
5, 42692, Note_on_c, 1, 44, 0
5, 42692, Note_on_c, 1, 32, 0
5, 42720, Note_on_c, 1, 42, 64
5, 42720, Note_on_c, 1, 30, 64
5, 42993, Note_on_c, 1, 42, 0
5, 42993, Note_on_c, 1, 30, 0
5, 43536, Note_on_c, 1, 59, 64
5, 43556, Note_on_c, 1, 59, 0
5, 43584, Note_on_c, 1, 57, 64
5, 43604, Note_on_c, 1, 57, 0
5, 43632, Note_on_c, 1, 55, 64
5, 43652, Note_on_c, 1, 55, 0
5, 43680, Note_on_c, 1, 54, 64
5, 43700, Note_on_c, 1, 54, 0
5, 43728, Note_on_c, 1, 52, 64
5, 43748, Note_on_c, 1, 52, 0
5, 43776, Note_on_c, 1, 50, 64
5, 43865, Note_on_c, 1, 50, 0
5, 43920, Note_on_c, 1, 55, 64
5, 43940, Note_on_c, 1, 55, 0
5, 43968, Note_on_c, 1, 54, 64
5, 43988, Note_on_c, 1, 54, 0
5, 44016, Note_on_c, 1, 52, 64
5, 44036, Note_on_c, 1, 52, 0
5, 44064, Note_on_c, 1, 50, 64
5, 44084, Note_on_c, 1, 50, 0
5, 44112, Note_on_c, 1, 49, 64
5, 44132, Note_on_c, 1, 49, 0
5, 44160, Note_on_c, 1, 47, 64
5, 44249, Note_on_c, 1, 47, 0
5, 44304, Note_on_c, 1, 52, 64
5, 44324, Note_on_c, 1, 52, 0
5, 44352, Note_on_c, 1, 50, 64
5, 44372, Note_on_c, 1, 50, 0
5, 44400, Note_on_c, 1, 49, 64
5, 44420, Note_on_c, 1, 49, 0
5, 44448, Note_on_c, 1, 47, 64
5, 44468, Note_on_c, 1, 47, 0
5, 44496, Note_on_c, 1, 45, 64
5, 44516, Note_on_c, 1, 45, 0
5, 44544, Note_on_c, 1, 43, 64
5, 44633, Note_on_c, 1, 43, 0
5, 44736, Note_on_c, 1, 65, 64
5, 44736, Note_on_c, 1, 55, 64
5, 44913, Note_on_c, 1, 65, 0
5, 44913, Note_on_c, 1, 55, 0
5, 44928, Note_on_c, 1, 66, 64
5, 44928, Note_on_c, 1, 54, 64
5, 45017, Note_on_c, 1, 66, 0
5, 45017, Note_on_c, 1, 54, 0
5, 45024, Note_on_c, 1, 70, 64
5, 45063, Note_on_c, 1, 70, 0
5, 45120, Note_on_c, 1, 71, 64
5, 45159, Note_on_c, 1, 71, 0
5, 45216, Note_on_c, 1, 64, 64
5, 45255, Note_on_c, 1, 64, 0
5, 45312, Note_on_c, 1, 62, 64
5, 45351, Note_on_c, 1, 62, 0
5, 45408, Note_on_c, 1, 64, 64
5, 45447, Note_on_c, 1, 64, 0
5, 45504, Note_on_c, 1, 66, 64
5, 45543, Note_on_c, 1, 66, 0
5, 45600, Note_on_c, 1, 54, 64
5, 45689, Note_on_c, 1, 54, 0
5, 45696, Note_on_c, 1, 59, 64
5, 45785, Note_on_c, 1, 59, 0
5, 45840, Note_on_c, 1, 59, 64
5, 45840, Note_on_c, 1, 47, 64
5, 45860, Note_on_c, 1, 59, 0
5, 45860, Note_on_c, 1, 47, 0
5, 45888, Note_on_c, 1, 57, 64
5, 45888, Note_on_c, 1, 45, 64
5, 45908, Note_on_c, 1, 57, 0
5, 45908, Note_on_c, 1, 45, 0
5, 45936, Note_on_c, 1, 55, 64
5, 45936, Note_on_c, 1, 43, 64
5, 45956, Note_on_c, 1, 55, 0
5, 45956, Note_on_c, 1, 43, 0
5, 45984, Note_on_c, 1, 54, 64
5, 45984, Note_on_c, 1, 42, 64
5, 46004, Note_on_c, 1, 54, 0
5, 46004, Note_on_c, 1, 42, 0
5, 46032, Note_on_c, 1, 52, 64
5, 46032, Note_on_c, 1, 40, 64
5, 46052, Note_on_c, 1, 52, 0
5, 46052, Note_on_c, 1, 40, 0
5, 46080, Note_on_c, 1, 50, 64
5, 46080, Note_on_c, 1, 38, 64
5, 46169, Note_on_c, 1, 50, 0
5, 46169, Note_on_c, 1, 38, 0
5, 46224, Note_on_c, 1, 55, 64
5, 46224, Note_on_c, 1, 43, 64
5, 46244, Note_on_c, 1, 55, 0
5, 46244, Note_on_c, 1, 43, 0
5, 46272, Note_on_c, 1, 54, 64
5, 46272, Note_on_c, 1, 42, 64
5, 46292, Note_on_c, 1, 54, 0
5, 46292, Note_on_c, 1, 42, 0
5, 46320, Note_on_c, 1, 52, 64
5, 46320, Note_on_c, 1, 40, 64
5, 46340, Note_on_c, 1, 52, 0
5, 46340, Note_on_c, 1, 40, 0
5, 46368, Note_on_c, 1, 50, 64
5, 46368, Note_on_c, 1, 38, 64
5, 46388, Note_on_c, 1, 50, 0
5, 46388, Note_on_c, 1, 38, 0
5, 46416, Note_on_c, 1, 49, 64
5, 46416, Note_on_c, 1, 37, 64
5, 46436, Note_on_c, 1, 49, 0
5, 46436, Note_on_c, 1, 37, 0
5, 46464, Note_on_c, 1, 47, 64
5, 46464, Note_on_c, 1, 35, 64
5, 46553, Note_on_c, 1, 47, 0
5, 46553, Note_on_c, 1, 35, 0
5, 46608, Note_on_c, 1, 52, 64
5, 46608, Note_on_c, 1, 40, 64
5, 46628, Note_on_c, 1, 52, 0
5, 46628, Note_on_c, 1, 40, 0
5, 46656, Note_on_c, 1, 50, 64
5, 46656, Note_on_c, 1, 38, 64
5, 46676, Note_on_c, 1, 50, 0
5, 46676, Note_on_c, 1, 38, 0
5, 46704, Note_on_c, 1, 49, 64
5, 46704, Note_on_c, 1, 37, 64
5, 46724, Note_on_c, 1, 49, 0
5, 46724, Note_on_c, 1, 37, 0
5, 46752, Note_on_c, 1, 47, 64
5, 46752, Note_on_c, 1, 35, 64
5, 46772, Note_on_c, 1, 47, 0
5, 46772, Note_on_c, 1, 35, 0
5, 46800, Note_on_c, 1, 45, 64
5, 46800, Note_on_c, 1, 33, 64
5, 46820, Note_on_c, 1, 45, 0
5, 46820, Note_on_c, 1, 33, 0
5, 46848, Note_on_c, 1, 43, 64
5, 46848, Note_on_c, 1, 31, 64
5, 46937, Note_on_c, 1, 43, 0
5, 46937, Note_on_c, 1, 31, 0
5, 47040, Note_on_c, 1, 65, 64
5, 47040, Note_on_c, 1, 55, 64
5, 47217, Note_on_c, 1, 65, 0
5, 47217, Note_on_c, 1, 55, 0
5, 47232, Note_on_c, 1, 54, 64
5, 47321, Note_on_c, 1, 54, 0
5, 47328, Note_on_c, 1, 70, 64
5, 47367, Note_on_c, 1, 70, 0
5, 47424, Note_on_c, 1, 71, 64
5, 47463, Note_on_c, 1, 71, 0
5, 47520, Note_on_c, 1, 64, 64
5, 47559, Note_on_c, 1, 64, 0
5, 47616, Note_on_c, 1, 62, 64
5, 47655, Note_on_c, 1, 62, 0
5, 47712, Note_on_c, 1, 64, 64
5, 47751, Note_on_c, 1, 64, 0
5, 47808, Note_on_c, 1, 66, 64
5, 47897, Note_on_c, 1, 66, 0
5, 47904, Note_on_c, 1, 54, 64
5, 47993, Note_on_c, 1, 54, 0
5, 48000, Note_on_c, 1, 62, 64
5, 48000, Note_on_c, 1, 59, 64
5, 48039, Note_on_c, 1, 62, 0
5, 48039, Note_on_c, 1, 59, 0
5, 48096, Note_on_c, 1, 64, 64
5, 48096, Note_on_c, 1, 54, 64
5, 48185, Note_on_c, 1, 64, 0
5, 48185, Note_on_c, 1, 54, 0
5, 48192, Note_on_c, 1, 62, 64
5, 48192, Note_on_c, 1, 59, 64
5, 48231, Note_on_c, 1, 62, 0
5, 48231, Note_on_c, 1, 59, 0
5, 48288, Note_on_c, 1, 64, 64
5, 48288, Note_on_c, 1, 54, 64
5, 48377, Note_on_c, 1, 64, 0
5, 48377, Note_on_c, 1, 54, 0
5, 48384, Note_on_c, 1, 62, 64
5, 48384, Note_on_c, 1, 59, 64
5, 48423, Note_on_c, 1, 62, 0
5, 48423, Note_on_c, 1, 59, 0
5, 48480, Note_on_c, 1, 64, 64
5, 48480, Note_on_c, 1, 54, 64
5, 48569, Note_on_c, 1, 64, 0
5, 48569, Note_on_c, 1, 54, 0
5, 48576, Note_on_c, 1, 62, 64
5, 48576, Note_on_c, 1, 59, 64
5, 48615, Note_on_c, 1, 62, 0
5, 48615, Note_on_c, 1, 59, 0
5, 48672, Note_on_c, 1, 64, 64
5, 48672, Note_on_c, 1, 54, 64
5, 48761, Note_on_c, 1, 64, 0
5, 48761, Note_on_c, 1, 54, 0
5, 48768, Note_on_c, 1, 62, 64
5, 48768, Note_on_c, 1, 59, 64
5, 48807, Note_on_c, 1, 62, 0
5, 48807, Note_on_c, 1, 59, 0
5, 49488, Note_on_c, 1, 47, 64
5, 49488, Note_on_c, 1, 35, 64
5, 49508, Note_on_c, 1, 47, 0
5, 49508, Note_on_c, 1, 35, 0
5, 49536, Note_on_c, 1, 47, 64
5, 49536, Note_on_c, 1, 35, 64
5, 49556, Note_on_c, 1, 47, 0
5, 49556, Note_on_c, 1, 35, 0
5, 49584, Note_on_c, 1, 47, 64
5, 49584, Note_on_c, 1, 35, 64
5, 49604, Note_on_c, 1, 47, 0
5, 49604, Note_on_c, 1, 35, 0
5, 49632, Note_on_c, 1, 47, 64
5, 49632, Note_on_c, 1, 35, 64
5, 49652, Note_on_c, 1, 47, 0
5, 49652, Note_on_c, 1, 35, 0
5, 49680, Note_on_c, 1, 47, 64
5, 49680, Note_on_c, 1, 35, 64
5, 49700, Note_on_c, 1, 47, 0
5, 49700, Note_on_c, 1, 35, 0
5, 49728, Note_on_c, 1, 50, 64
5, 49728, Note_on_c, 1, 38, 64
5, 49773, Note_on_c, 1, 50, 0
5, 49773, Note_on_c, 1, 38, 0
5, 49776, Note_on_c, 1, 49, 64
5, 49776, Note_on_c, 1, 37, 64
5, 49821, Note_on_c, 1, 49, 0
5, 49821, Note_on_c, 1, 37, 0
5, 49824, Note_on_c, 1, 47, 64
5, 49824, Note_on_c, 1, 35, 64
5, 49869, Note_on_c, 1, 47, 0
5, 49869, Note_on_c, 1, 35, 0
5, 49872, Note_on_c, 1, 55, 64
5, 49872, Note_on_c, 1, 43, 64
5, 49892, Note_on_c, 1, 55, 0
5, 49892, Note_on_c, 1, 43, 0
5, 49920, Note_on_c, 1, 54, 64
5, 49920, Note_on_c, 1, 42, 64
5, 49965, Note_on_c, 1, 54, 0
5, 49965, Note_on_c, 1, 42, 0
5, 49968, Note_on_c, 1, 53, 64
5, 49968, Note_on_c, 1, 41, 64
5, 50013, Note_on_c, 1, 53, 0
5, 50013, Note_on_c, 1, 41, 0
5, 50016, Note_on_c, 1, 54, 64
5, 50016, Note_on_c, 1, 42, 64
5, 50061, Note_on_c, 1, 54, 0
5, 50061, Note_on_c, 1, 42, 0
5, 50064, Note_on_c, 1, 52, 64
5, 50064, Note_on_c, 1, 40, 64
5, 50084, Note_on_c, 1, 52, 0
5, 50084, Note_on_c, 1, 40, 0
5, 50112, Note_on_c, 1, 50, 64
5, 50112, Note_on_c, 1, 38, 64
5, 50157, Note_on_c, 1, 50, 0
5, 50157, Note_on_c, 1, 38, 0
5, 50160, Note_on_c, 1, 49, 64
5, 50160, Note_on_c, 1, 37, 64
5, 50205, Note_on_c, 1, 49, 0
5, 50205, Note_on_c, 1, 37, 0
5, 50208, Note_on_c, 1, 50, 64
5, 50208, Note_on_c, 1, 38, 64
5, 50253, Note_on_c, 1, 50, 0
5, 50253, Note_on_c, 1, 38, 0
5, 50256, Note_on_c, 1, 49, 64
5, 50256, Note_on_c, 1, 37, 64
5, 50276, Note_on_c, 1, 49, 0
5, 50276, Note_on_c, 1, 37, 0
5, 50304, Note_on_c, 1, 47, 64
5, 50304, Note_on_c, 1, 35, 64
5, 50349, Note_on_c, 1, 47, 0
5, 50349, Note_on_c, 1, 35, 0
5, 50352, Note_on_c, 1, 46, 64
5, 50352, Note_on_c, 1, 34, 64
5, 50397, Note_on_c, 1, 46, 0
5, 50397, Note_on_c, 1, 34, 0
5, 50400, Note_on_c, 1, 47, 64
5, 50400, Note_on_c, 1, 35, 64
5, 50445, Note_on_c, 1, 47, 0
5, 50445, Note_on_c, 1, 35, 0
5, 50448, Note_on_c, 1, 45, 64
5, 50448, Note_on_c, 1, 33, 64
5, 50468, Note_on_c, 1, 45, 0
5, 50468, Note_on_c, 1, 33, 0
5, 50496, Note_on_c, 1, 43, 64
5, 50496, Note_on_c, 1, 31, 64
5, 50585, Note_on_c, 1, 43, 0
5, 50585, Note_on_c, 1, 31, 0
5, 50688, Note_on_c, 1, 58, 64
5, 50688, Note_on_c, 1, 52, 64
5, 50688, Note_on_c, 1, 49, 64
5, 50688, Note_on_c, 1, 42, 64
5, 50777, Note_on_c, 1, 58, 0
5, 50777, Note_on_c, 1, 52, 0
5, 50777, Note_on_c, 1, 49, 0
5, 50777, Note_on_c, 1, 42, 0
5, 50880, Note_on_c, 1, 59, 64
5, 50880, Note_on_c, 1, 54, 64
5, 50880, Note_on_c, 1, 50, 64
5, 50880, Note_on_c, 1, 47, 64
5, 50880, Note_on_c, 1, 35, 64
5, 50969, Note_on_c, 1, 59, 0
5, 50969, Note_on_c, 1, 54, 0
5, 50969, Note_on_c, 1, 50, 0
5, 50969, Note_on_c, 1, 47, 0
5, 50969, Note_on_c, 1, 35, 0
5, 52992, Note_on_c, 1, 64, 64
5, 53169, Note_on_c, 1, 64, 0
5, 53184, Note_on_c, 1, 64, 64
5, 53361, Note_on_c, 1, 64, 0
5, 53376, Note_on_c, 1, 63, 64
5, 53553, Note_on_c, 1, 63, 0
5, 53568, Note_on_c, 1, 62, 64
5, 53745, Note_on_c, 1, 62, 0
5, 53760, Note_on_c, 1, 61, 64
5, 53937, Note_on_c, 1, 61, 0
5, 53952, Note_on_c, 1, 60, 64
5, 54129, Note_on_c, 1, 60, 0
5, 56640, Note_on_c, 1, 54, 64
5, 56817, Note_on_c, 1, 54, 0
5, 56832, Note_on_c, 1, 53, 64
5, 57009, Note_on_c, 1, 53, 0
5, 57024, Note_on_c, 1, 54, 64
5, 57113, Note_on_c, 1, 54, 0
5, 57936, Note_on_c, 1, 66, 64
5, 57936, Note_on_c, 1, 54, 64
5, 57956, Note_on_c, 1, 66, 0
5, 57956, Note_on_c, 1, 54, 0
5, 57984, Note_on_c, 1, 64, 64
5, 57984, Note_on_c, 1, 52, 64
5, 58004, Note_on_c, 1, 64, 0
5, 58004, Note_on_c, 1, 52, 0
5, 58032, Note_on_c, 1, 62, 64
5, 58032, Note_on_c, 1, 50, 64
5, 58052, Note_on_c, 1, 62, 0
5, 58052, Note_on_c, 1, 50, 0
5, 58080, Note_on_c, 1, 61, 64
5, 58080, Note_on_c, 1, 49, 64
5, 58100, Note_on_c, 1, 61, 0
5, 58100, Note_on_c, 1, 49, 0
5, 58128, Note_on_c, 1, 59, 64
5, 58128, Note_on_c, 1, 47, 64
5, 58148, Note_on_c, 1, 59, 0
5, 58148, Note_on_c, 1, 47, 0
5, 58176, Note_on_c, 1, 57, 64
5, 58176, Note_on_c, 1, 45, 64
5, 58265, Note_on_c, 1, 57, 0
5, 58265, Note_on_c, 1, 45, 0
5, 58320, Note_on_c, 1, 62, 64
5, 58320, Note_on_c, 1, 50, 64
5, 58340, Note_on_c, 1, 62, 0
5, 58340, Note_on_c, 1, 50, 0
5, 58368, Note_on_c, 1, 61, 64
5, 58368, Note_on_c, 1, 49, 64
5, 58388, Note_on_c, 1, 61, 0
5, 58388, Note_on_c, 1, 49, 0
5, 58416, Note_on_c, 1, 59, 64
5, 58416, Note_on_c, 1, 47, 64
5, 58436, Note_on_c, 1, 59, 0
5, 58436, Note_on_c, 1, 47, 0
5, 58464, Note_on_c, 1, 57, 64
5, 58464, Note_on_c, 1, 45, 64
5, 58484, Note_on_c, 1, 57, 0
5, 58484, Note_on_c, 1, 45, 0
5, 58512, Note_on_c, 1, 56, 64
5, 58512, Note_on_c, 1, 44, 64
5, 58532, Note_on_c, 1, 56, 0
5, 58532, Note_on_c, 1, 44, 0
5, 58560, Note_on_c, 1, 54, 64
5, 58560, Note_on_c, 1, 42, 64
5, 58649, Note_on_c, 1, 54, 0
5, 58649, Note_on_c, 1, 42, 0
5, 58944, Note_on_c, 1, 68, 64
5, 58944, Note_on_c, 1, 66, 64
5, 58964, Note_on_c, 1, 68, 0
5, 58964, Note_on_c, 1, 66, 0
5, 58992, Note_on_c, 1, 68, 64
5, 58992, Note_on_c, 1, 66, 64
5, 59012, Note_on_c, 1, 68, 0
5, 59012, Note_on_c, 1, 66, 0
5, 59040, Note_on_c, 1, 68, 64
5, 59040, Note_on_c, 1, 66, 64
5, 59060, Note_on_c, 1, 68, 0
5, 59060, Note_on_c, 1, 66, 0
5, 59088, Note_on_c, 1, 68, 64
5, 59088, Note_on_c, 1, 66, 64
5, 59108, Note_on_c, 1, 68, 0
5, 59108, Note_on_c, 1, 66, 0
5, 59136, Note_on_c, 1, 68, 64
5, 59136, Note_on_c, 1, 66, 64
5, 59225, Note_on_c, 1, 68, 0
5, 59225, Note_on_c, 1, 66, 0
5, 59328, Note_on_c, 1, 68, 64
5, 59328, Note_on_c, 1, 64, 64
5, 59348, Note_on_c, 1, 68, 0
5, 59348, Note_on_c, 1, 64, 0
5, 59376, Note_on_c, 1, 68, 64
5, 59376, Note_on_c, 1, 64, 64
5, 59396, Note_on_c, 1, 68, 0
5, 59396, Note_on_c, 1, 64, 0
5, 59424, Note_on_c, 1, 68, 64
5, 59424, Note_on_c, 1, 64, 64
5, 59444, Note_on_c, 1, 68, 0
5, 59444, Note_on_c, 1, 64, 0
5, 59472, Note_on_c, 1, 68, 64
5, 59472, Note_on_c, 1, 64, 64
5, 59492, Note_on_c, 1, 68, 0
5, 59492, Note_on_c, 1, 64, 0
5, 59520, Note_on_c, 1, 68, 64
5, 59520, Note_on_c, 1, 64, 64
5, 59609, Note_on_c, 1, 68, 0
5, 59609, Note_on_c, 1, 64, 0
5, 59712, Note_on_c, 1, 66, 64
5, 59712, Note_on_c, 1, 64, 64
5, 59732, Note_on_c, 1, 66, 0
5, 59732, Note_on_c, 1, 64, 0
5, 59760, Note_on_c, 1, 66, 64
5, 59760, Note_on_c, 1, 64, 64
5, 59780, Note_on_c, 1, 66, 0
5, 59780, Note_on_c, 1, 64, 0
5, 59808, Note_on_c, 1, 66, 64
5, 59808, Note_on_c, 1, 64, 64
5, 59828, Note_on_c, 1, 66, 0
5, 59828, Note_on_c, 1, 64, 0
5, 59856, Note_on_c, 1, 66, 64
5, 59856, Note_on_c, 1, 64, 64
5, 59876, Note_on_c, 1, 66, 0
5, 59876, Note_on_c, 1, 64, 0
5, 59904, Note_on_c, 1, 66, 64
5, 59904, Note_on_c, 1, 64, 64
5, 59993, Note_on_c, 1, 66, 0
5, 59993, Note_on_c, 1, 64, 0
5, 60096, Note_on_c, 1, 66, 64
5, 60096, Note_on_c, 1, 62, 64
5, 60116, Note_on_c, 1, 66, 0
5, 60116, Note_on_c, 1, 62, 0
5, 60144, Note_on_c, 1, 66, 64
5, 60144, Note_on_c, 1, 62, 64
5, 60164, Note_on_c, 1, 66, 0
5, 60164, Note_on_c, 1, 62, 0
5, 60192, Note_on_c, 1, 66, 64
5, 60192, Note_on_c, 1, 62, 64
5, 60212, Note_on_c, 1, 66, 0
5, 60212, Note_on_c, 1, 62, 0
5, 60240, Note_on_c, 1, 66, 64
5, 60240, Note_on_c, 1, 62, 64
5, 60260, Note_on_c, 1, 66, 0
5, 60260, Note_on_c, 1, 62, 0
5, 60288, Note_on_c, 1, 66, 64
5, 60288, Note_on_c, 1, 62, 64
5, 60377, Note_on_c, 1, 66, 0
5, 60377, Note_on_c, 1, 62, 0
5, 60480, Note_on_c, 1, 66, 64
5, 60480, Note_on_c, 1, 58, 64
5, 60500, Note_on_c, 1, 66, 0
5, 60500, Note_on_c, 1, 58, 0
5, 60528, Note_on_c, 1, 66, 64
5, 60528, Note_on_c, 1, 58, 64
5, 60548, Note_on_c, 1, 66, 0
5, 60548, Note_on_c, 1, 58, 0
5, 60576, Note_on_c, 1, 66, 64
5, 60576, Note_on_c, 1, 58, 64
5, 60596, Note_on_c, 1, 66, 0
5, 60596, Note_on_c, 1, 58, 0
5, 60624, Note_on_c, 1, 66, 64
5, 60624, Note_on_c, 1, 58, 64
5, 60644, Note_on_c, 1, 66, 0
5, 60644, Note_on_c, 1, 58, 0
5, 60672, Note_on_c, 1, 66, 64
5, 60672, Note_on_c, 1, 58, 64
5, 60761, Note_on_c, 1, 66, 0
5, 60761, Note_on_c, 1, 58, 0
5, 60864, Note_on_c, 1, 66, 64
5, 60864, Note_on_c, 1, 59, 64
5, 60953, Note_on_c, 1, 66, 0
5, 60953, Note_on_c, 1, 59, 0
5, 61056, Note_on_c, 1, 65, 64
5, 61056, Note_on_c, 1, 55, 64
5, 61145, Note_on_c, 1, 65, 0
5, 61145, Note_on_c, 1, 55, 0
5, 61248, Note_on_c, 1, 66, 64
5, 61248, Note_on_c, 1, 54, 64
5, 61337, Note_on_c, 1, 66, 0
5, 61337, Note_on_c, 1, 54, 0
5, 64080, Note_on_c, 1, 61, 64
5, 64100, Note_on_c, 1, 61, 0
5, 64128, Note_on_c, 1, 61, 64
5, 64148, Note_on_c, 1, 61, 0
5, 64176, Note_on_c, 1, 61, 64
5, 64196, Note_on_c, 1, 61, 0
5, 64224, Note_on_c, 1, 61, 64
5, 64244, Note_on_c, 1, 61, 0
5, 64272, Note_on_c, 1, 61, 64
5, 64292, Note_on_c, 1, 61, 0
5, 64320, Note_on_c, 1, 64, 64
5, 64365, Note_on_c, 1, 64, 0
5, 64368, Note_on_c, 1, 62, 64
5, 64413, Note_on_c, 1, 62, 0
5, 64416, Note_on_c, 1, 61, 64
5, 64461, Note_on_c, 1, 61, 0
5, 64464, Note_on_c, 1, 61, 64
5, 64484, Note_on_c, 1, 61, 0
5, 64512, Note_on_c, 1, 61, 64
5, 64532, Note_on_c, 1, 61, 0
5, 64560, Note_on_c, 1, 61, 64
5, 64580, Note_on_c, 1, 61, 0
5, 64608, Note_on_c, 1, 61, 64
5, 64628, Note_on_c, 1, 61, 0
5, 64656, Note_on_c, 1, 61, 64
5, 64676, Note_on_c, 1, 61, 0
5, 64704, Note_on_c, 1, 64, 64
5, 64749, Note_on_c, 1, 64, 0
5, 64752, Note_on_c, 1, 62, 64
5, 64797, Note_on_c, 1, 62, 0
5, 64800, Note_on_c, 1, 61, 64
5, 64845, Note_on_c, 1, 61, 0
5, 65328, Note_on_c, 1, 66, 64
5, 65348, Note_on_c, 1, 66, 0
5, 65376, Note_on_c, 1, 66, 64
5, 65421, Note_on_c, 1, 66, 0
5, 65520, Note_on_c, 1, 67, 64
5, 65540, Note_on_c, 1, 67, 0
5, 65568, Note_on_c, 1, 67, 64
5, 65613, Note_on_c, 1, 67, 0
5, 65904, Note_on_c, 1, 51, 64
5, 65904, Note_on_c, 1, 39, 64
5, 65924, Note_on_c, 1, 51, 0
5, 65924, Note_on_c, 1, 39, 0
5, 65952, Note_on_c, 1, 52, 64
5, 65952, Note_on_c, 1, 40, 64
5, 66093, Note_on_c, 1, 52, 0
5, 66093, Note_on_c, 1, 40, 0
5, 66096, Note_on_c, 1, 50, 64
5, 66096, Note_on_c, 1, 38, 64
5, 66116, Note_on_c, 1, 50, 0
5, 66116, Note_on_c, 1, 38, 0
5, 66144, Note_on_c, 1, 49, 64
5, 66144, Note_on_c, 1, 37, 64
5, 66285, Note_on_c, 1, 49, 0
5, 66285, Note_on_c, 1, 37, 0
5, 66288, Note_on_c, 1, 47, 64
5, 66288, Note_on_c, 1, 35, 64
5, 66308, Note_on_c, 1, 47, 0
5, 66308, Note_on_c, 1, 35, 0
5, 66336, Note_on_c, 1, 46, 64
5, 66336, Note_on_c, 1, 34, 64
5, 66477, Note_on_c, 1, 46, 0
5, 66477, Note_on_c, 1, 34, 0
5, 66480, Note_on_c, 1, 44, 64
5, 66480, Note_on_c, 1, 32, 64
5, 66500, Note_on_c, 1, 44, 0
5, 66500, Note_on_c, 1, 32, 0
5, 66528, Note_on_c, 1, 42, 64
5, 66528, Note_on_c, 1, 30, 64
5, 66801, Note_on_c, 1, 42, 0
5, 66801, Note_on_c, 1, 30, 0
5, 67344, Note_on_c, 1, 59, 64
5, 67364, Note_on_c, 1, 59, 0
5, 67392, Note_on_c, 1, 57, 64
5, 67412, Note_on_c, 1, 57, 0
5, 67440, Note_on_c, 1, 55, 64
5, 67460, Note_on_c, 1, 55, 0
5, 67488, Note_on_c, 1, 54, 64
5, 67508, Note_on_c, 1, 54, 0
5, 67536, Note_on_c, 1, 52, 64
5, 67556, Note_on_c, 1, 52, 0
5, 67584, Note_on_c, 1, 50, 64
5, 67673, Note_on_c, 1, 50, 0
5, 67728, Note_on_c, 1, 55, 64
5, 67748, Note_on_c, 1, 55, 0
5, 67776, Note_on_c, 1, 54, 64
5, 67796, Note_on_c, 1, 54, 0
5, 67824, Note_on_c, 1, 52, 64
5, 67844, Note_on_c, 1, 52, 0
5, 67872, Note_on_c, 1, 50, 64
5, 67892, Note_on_c, 1, 50, 0
5, 67920, Note_on_c, 1, 49, 64
5, 67940, Note_on_c, 1, 49, 0
5, 67968, Note_on_c, 1, 47, 64
5, 68057, Note_on_c, 1, 47, 0
5, 68112, Note_on_c, 1, 52, 64
5, 68132, Note_on_c, 1, 52, 0
5, 68160, Note_on_c, 1, 50, 64
5, 68180, Note_on_c, 1, 50, 0
5, 68208, Note_on_c, 1, 49, 64
5, 68228, Note_on_c, 1, 49, 0
5, 68256, Note_on_c, 1, 47, 64
5, 68276, Note_on_c, 1, 47, 0
5, 68304, Note_on_c, 1, 45, 64
5, 68324, Note_on_c, 1, 45, 0
5, 68352, Note_on_c, 1, 43, 64
5, 68441, Note_on_c, 1, 43, 0
5, 68544, Note_on_c, 1, 65, 64
5, 68544, Note_on_c, 1, 55, 64
5, 68721, Note_on_c, 1, 65, 0
5, 68721, Note_on_c, 1, 55, 0
5, 68736, Note_on_c, 1, 66, 64
5, 68736, Note_on_c, 1, 54, 64
5, 68825, Note_on_c, 1, 66, 0
5, 68825, Note_on_c, 1, 54, 0
5, 68832, Note_on_c, 1, 70, 64
5, 68871, Note_on_c, 1, 70, 0
5, 68928, Note_on_c, 1, 71, 64
5, 68967, Note_on_c, 1, 71, 0
5, 69024, Note_on_c, 1, 64, 64
5, 69063, Note_on_c, 1, 64, 0
5, 69120, Note_on_c, 1, 62, 64
5, 69159, Note_on_c, 1, 62, 0
5, 69216, Note_on_c, 1, 64, 64
5, 69255, Note_on_c, 1, 64, 0
5, 69312, Note_on_c, 1, 66, 64
5, 69351, Note_on_c, 1, 66, 0
5, 69408, Note_on_c, 1, 54, 64
5, 69497, Note_on_c, 1, 54, 0
5, 69504, Note_on_c, 1, 59, 64
5, 69593, Note_on_c, 1, 59, 0
5, 69648, Note_on_c, 1, 59, 64
5, 69648, Note_on_c, 1, 47, 64
5, 69668, Note_on_c, 1, 59, 0
5, 69668, Note_on_c, 1, 47, 0
5, 69696, Note_on_c, 1, 57, 64
5, 69696, Note_on_c, 1, 45, 64
5, 69716, Note_on_c, 1, 57, 0
5, 69716, Note_on_c, 1, 45, 0
5, 69744, Note_on_c, 1, 55, 64
5, 69744, Note_on_c, 1, 43, 64
5, 69764, Note_on_c, 1, 55, 0
5, 69764, Note_on_c, 1, 43, 0
5, 69792, Note_on_c, 1, 54, 64
5, 69792, Note_on_c, 1, 42, 64
5, 69812, Note_on_c, 1, 54, 0
5, 69812, Note_on_c, 1, 42, 0
5, 69840, Note_on_c, 1, 52, 64
5, 69840, Note_on_c, 1, 40, 64
5, 69860, Note_on_c, 1, 52, 0
5, 69860, Note_on_c, 1, 40, 0
5, 69888, Note_on_c, 1, 50, 64
5, 69888, Note_on_c, 1, 38, 64
5, 69977, Note_on_c, 1, 50, 0
5, 69977, Note_on_c, 1, 38, 0
5, 70032, Note_on_c, 1, 55, 64
5, 70032, Note_on_c, 1, 43, 64
5, 70052, Note_on_c, 1, 55, 0
5, 70052, Note_on_c, 1, 43, 0
5, 70080, Note_on_c, 1, 54, 64
5, 70080, Note_on_c, 1, 42, 64
5, 70100, Note_on_c, 1, 54, 0
5, 70100, Note_on_c, 1, 42, 0
5, 70128, Note_on_c, 1, 52, 64
5, 70128, Note_on_c, 1, 40, 64
5, 70148, Note_on_c, 1, 52, 0
5, 70148, Note_on_c, 1, 40, 0
5, 70176, Note_on_c, 1, 50, 64
5, 70176, Note_on_c, 1, 38, 64
5, 70196, Note_on_c, 1, 50, 0
5, 70196, Note_on_c, 1, 38, 0
5, 70224, Note_on_c, 1, 49, 64
5, 70224, Note_on_c, 1, 37, 64
5, 70244, Note_on_c, 1, 49, 0
5, 70244, Note_on_c, 1, 37, 0
5, 70272, Note_on_c, 1, 47, 64
5, 70272, Note_on_c, 1, 35, 64
5, 70361, Note_on_c, 1, 47, 0
5, 70361, Note_on_c, 1, 35, 0
5, 70416, Note_on_c, 1, 52, 64
5, 70416, Note_on_c, 1, 40, 64
5, 70436, Note_on_c, 1, 52, 0
5, 70436, Note_on_c, 1, 40, 0
5, 70464, Note_on_c, 1, 50, 64
5, 70464, Note_on_c, 1, 38, 64
5, 70484, Note_on_c, 1, 50, 0
5, 70484, Note_on_c, 1, 38, 0
5, 70512, Note_on_c, 1, 49, 64
5, 70512, Note_on_c, 1, 37, 64
5, 70532, Note_on_c, 1, 49, 0
5, 70532, Note_on_c, 1, 37, 0
5, 70560, Note_on_c, 1, 47, 64
5, 70560, Note_on_c, 1, 35, 64
5, 70580, Note_on_c, 1, 47, 0
5, 70580, Note_on_c, 1, 35, 0
5, 70608, Note_on_c, 1, 45, 64
5, 70608, Note_on_c, 1, 33, 64
5, 70628, Note_on_c, 1, 45, 0
5, 70628, Note_on_c, 1, 33, 0
5, 70656, Note_on_c, 1, 43, 64
5, 70656, Note_on_c, 1, 31, 64
5, 70745, Note_on_c, 1, 43, 0
5, 70745, Note_on_c, 1, 31, 0
5, 70848, Note_on_c, 1, 65, 64
5, 70848, Note_on_c, 1, 55, 64
5, 71025, Note_on_c, 1, 65, 0
5, 71025, Note_on_c, 1, 55, 0
5, 71040, Note_on_c, 1, 54, 64
5, 71129, Note_on_c, 1, 54, 0
5, 71136, Note_on_c, 1, 70, 64
5, 71175, Note_on_c, 1, 70, 0
5, 71232, Note_on_c, 1, 71, 64
5, 71271, Note_on_c, 1, 71, 0
5, 71328, Note_on_c, 1, 64, 64
5, 71367, Note_on_c, 1, 64, 0
5, 71424, Note_on_c, 1, 62, 64
5, 71463, Note_on_c, 1, 62, 0
5, 71520, Note_on_c, 1, 64, 64
5, 71559, Note_on_c, 1, 64, 0
5, 71616, Note_on_c, 1, 66, 64
5, 71705, Note_on_c, 1, 66, 0
5, 71712, Note_on_c, 1, 54, 64
5, 71801, Note_on_c, 1, 54, 0
5, 71808, Note_on_c, 1, 62, 64
5, 71808, Note_on_c, 1, 59, 64
5, 71847, Note_on_c, 1, 62, 0
5, 71847, Note_on_c, 1, 59, 0
5, 71904, Note_on_c, 1, 64, 64
5, 71904, Note_on_c, 1, 54, 64
5, 71993, Note_on_c, 1, 64, 0
5, 71993, Note_on_c, 1, 54, 0
5, 72000, Note_on_c, 1, 62, 64
5, 72000, Note_on_c, 1, 59, 64
5, 72039, Note_on_c, 1, 62, 0
5, 72039, Note_on_c, 1, 59, 0
5, 72096, Note_on_c, 1, 64, 64
5, 72096, Note_on_c, 1, 54, 64
5, 72185, Note_on_c, 1, 64, 0
5, 72185, Note_on_c, 1, 54, 0
5, 72192, Note_on_c, 1, 62, 64
5, 72192, Note_on_c, 1, 59, 64
5, 72231, Note_on_c, 1, 62, 0
5, 72231, Note_on_c, 1, 59, 0
5, 72288, Note_on_c, 1, 64, 64
5, 72288, Note_on_c, 1, 54, 64
5, 72377, Note_on_c, 1, 64, 0
5, 72377, Note_on_c, 1, 54, 0
5, 72384, Note_on_c, 1, 62, 64
5, 72384, Note_on_c, 1, 59, 64
5, 72423, Note_on_c, 1, 62, 0
5, 72423, Note_on_c, 1, 59, 0
5, 72480, Note_on_c, 1, 64, 64
5, 72480, Note_on_c, 1, 54, 64
5, 72569, Note_on_c, 1, 64, 0
5, 72569, Note_on_c, 1, 54, 0
5, 72576, Note_on_c, 1, 62, 64
5, 72576, Note_on_c, 1, 59, 64
5, 72615, Note_on_c, 1, 62, 0
5, 72615, Note_on_c, 1, 59, 0
5, 73296, Note_on_c, 1, 47, 64
5, 73296, Note_on_c, 1, 35, 64
5, 73316, Note_on_c, 1, 47, 0
5, 73316, Note_on_c, 1, 35, 0
5, 73344, Note_on_c, 1, 47, 64
5, 73344, Note_on_c, 1, 35, 64
5, 73364, Note_on_c, 1, 47, 0
5, 73364, Note_on_c, 1, 35, 0
5, 73392, Note_on_c, 1, 47, 64
5, 73392, Note_on_c, 1, 35, 64
5, 73412, Note_on_c, 1, 47, 0
5, 73412, Note_on_c, 1, 35, 0
5, 73440, Note_on_c, 1, 47, 64
5, 73440, Note_on_c, 1, 35, 64
5, 73460, Note_on_c, 1, 47, 0
5, 73460, Note_on_c, 1, 35, 0
5, 73488, Note_on_c, 1, 47, 64
5, 73488, Note_on_c, 1, 35, 64
5, 73508, Note_on_c, 1, 47, 0
5, 73508, Note_on_c, 1, 35, 0
5, 73536, Note_on_c, 1, 50, 64
5, 73536, Note_on_c, 1, 38, 64
5, 73581, Note_on_c, 1, 50, 0
5, 73581, Note_on_c, 1, 38, 0
5, 73584, Note_on_c, 1, 49, 64
5, 73584, Note_on_c, 1, 37, 64
5, 73629, Note_on_c, 1, 49, 0
5, 73629, Note_on_c, 1, 37, 0
5, 73632, Note_on_c, 1, 47, 64
5, 73632, Note_on_c, 1, 35, 64
5, 73677, Note_on_c, 1, 47, 0
5, 73677, Note_on_c, 1, 35, 0
5, 73680, Note_on_c, 1, 55, 64
5, 73680, Note_on_c, 1, 43, 64
5, 73700, Note_on_c, 1, 55, 0
5, 73700, Note_on_c, 1, 43, 0
5, 73728, Note_on_c, 1, 54, 64
5, 73728, Note_on_c, 1, 42, 64
5, 73773, Note_on_c, 1, 54, 0
5, 73773, Note_on_c, 1, 42, 0
5, 73776, Note_on_c, 1, 53, 64
5, 73776, Note_on_c, 1, 41, 64
5, 73821, Note_on_c, 1, 53, 0
5, 73821, Note_on_c, 1, 41, 0
5, 73824, Note_on_c, 1, 54, 64
5, 73824, Note_on_c, 1, 42, 64
5, 73869, Note_on_c, 1, 54, 0
5, 73869, Note_on_c, 1, 42, 0
5, 73872, Note_on_c, 1, 52, 64
5, 73872, Note_on_c, 1, 40, 64
5, 73892, Note_on_c, 1, 52, 0
5, 73892, Note_on_c, 1, 40, 0
5, 73920, Note_on_c, 1, 50, 64
5, 73920, Note_on_c, 1, 38, 64
5, 73965, Note_on_c, 1, 50, 0
5, 73965, Note_on_c, 1, 38, 0
5, 73968, Note_on_c, 1, 49, 64
5, 73968, Note_on_c, 1, 37, 64
5, 74013, Note_on_c, 1, 49, 0
5, 74013, Note_on_c, 1, 37, 0
5, 74016, Note_on_c, 1, 50, 64
5, 74016, Note_on_c, 1, 38, 64
5, 74061, Note_on_c, 1, 50, 0
5, 74061, Note_on_c, 1, 38, 0
5, 74064, Note_on_c, 1, 49, 64
5, 74064, Note_on_c, 1, 37, 64
5, 74084, Note_on_c, 1, 49, 0
5, 74084, Note_on_c, 1, 37, 0
5, 74112, Note_on_c, 1, 47, 64
5, 74112, Note_on_c, 1, 35, 64
5, 74157, Note_on_c, 1, 47, 0
5, 74157, Note_on_c, 1, 35, 0
5, 74160, Note_on_c, 1, 46, 64
5, 74160, Note_on_c, 1, 34, 64
5, 74205, Note_on_c, 1, 46, 0
5, 74205, Note_on_c, 1, 34, 0
5, 74208, Note_on_c, 1, 47, 64
5, 74208, Note_on_c, 1, 35, 64
5, 74253, Note_on_c, 1, 47, 0
5, 74253, Note_on_c, 1, 35, 0
5, 74256, Note_on_c, 1, 45, 64
5, 74256, Note_on_c, 1, 33, 64
5, 74276, Note_on_c, 1, 45, 0
5, 74276, Note_on_c, 1, 33, 0
5, 74304, Note_on_c, 1, 43, 64
5, 74304, Note_on_c, 1, 31, 64
5, 74393, Note_on_c, 1, 43, 0
5, 74393, Note_on_c, 1, 31, 0
5, 74496, Note_on_c, 1, 58, 64
5, 74496, Note_on_c, 1, 52, 64
5, 74496, Note_on_c, 1, 49, 64
5, 74496, Note_on_c, 1, 42, 64
5, 74585, Note_on_c, 1, 58, 0
5, 74585, Note_on_c, 1, 52, 0
5, 74585, Note_on_c, 1, 49, 0
5, 74585, Note_on_c, 1, 42, 0
5, 74688, Note_on_c, 1, 59, 64
5, 74688, Note_on_c, 1, 54, 64
5, 74688, Note_on_c, 1, 50, 64
5, 74688, Note_on_c, 1, 47, 64
5, 74688, Note_on_c, 1, 35, 64
5, 74777, Note_on_c, 1, 59, 0
5, 74777, Note_on_c, 1, 54, 0
5, 74777, Note_on_c, 1, 50, 0
5, 74777, Note_on_c, 1, 47, 0
5, 74777, Note_on_c, 1, 35, 0
5, 75072, End_track
6, 0, Start_track
6, 0, Program_c, 1, 0
6, 0, Control_c, 1, 7, 127
6, 0, Control_c, 1, 10, 64
6, 528, Note_on_c, 1, 59, 64
6, 576, Note_on_c, 1, 59, 0
6, 576, Note_on_c, 1, 58, 64
6, 665, Note_on_c, 1, 58, 0
6, 720, Note_on_c, 1, 55, 64
6, 768, Note_on_c, 1, 55, 0
6, 768, Note_on_c, 1, 54, 64
6, 857, Note_on_c, 1, 54, 0
6, 912, Note_on_c, 1, 52, 64
6, 960, Note_on_c, 1, 52, 0
6, 960, Note_on_c, 1, 50, 64
6, 1049, Note_on_c, 1, 50, 0
6, 1104, Note_on_c, 1, 55, 64
6, 1124, Note_on_c, 1, 55, 0
6, 1152, Note_on_c, 1, 54, 64
6, 1197, Note_on_c, 1, 54, 0
6, 1200, Note_on_c, 1, 52, 64
6, 1245, Note_on_c, 1, 52, 0
6, 1248, Note_on_c, 1, 50, 64
6, 1293, Note_on_c, 1, 50, 0
6, 1296, Note_on_c, 1, 49, 64
6, 1316, Note_on_c, 1, 49, 0
6, 1344, Note_on_c, 1, 47, 64
6, 1433, Note_on_c, 1, 47, 0
6, 1488, Note_on_c, 1, 47, 64
6, 1533, Note_on_c, 1, 47, 0
6, 1536, Note_on_c, 1, 47, 64
6, 1556, Note_on_c, 1, 47, 0
6, 1584, Note_on_c, 1, 47, 64
6, 1604, Note_on_c, 1, 47, 0
6, 1632, Note_on_c, 1, 47, 64
6, 1652, Note_on_c, 1, 47, 0
6, 1680, Note_on_c, 1, 52, 64
6, 1725, Note_on_c, 1, 52, 0
6, 1728, Note_on_c, 1, 50, 64
6, 1773, Note_on_c, 1, 50, 0
6, 1776, Note_on_c, 1, 49, 64
6, 1821, Note_on_c, 1, 49, 0
6, 1824, Note_on_c, 1, 47, 64
6, 1869, Note_on_c, 1, 47, 0
6, 1872, Note_on_c, 1, 55, 64
6, 1892, Note_on_c, 1, 55, 0
6, 1920, Note_on_c, 1, 54, 64
6, 1965, Note_on_c, 1, 54, 0
6, 1968, Note_on_c, 1, 52, 64
6, 2013, Note_on_c, 1, 52, 0
6, 2016, Note_on_c, 1, 50, 64
6, 2061, Note_on_c, 1, 50, 0
6, 2064, Note_on_c, 1, 49, 64
6, 2084, Note_on_c, 1, 49, 0
6, 2112, Note_on_c, 1, 47, 64
6, 2201, Note_on_c, 1, 47, 0
6, 2304, Note_on_c, 1, 59, 64
6, 2304, Note_on_c, 1, 55, 64
6, 2481, Note_on_c, 1, 59, 0
6, 2481, Note_on_c, 1, 55, 0
6, 2496, Note_on_c, 1, 58, 64
6, 2496, Note_on_c, 1, 54, 64
6, 2585, Note_on_c, 1, 58, 0
6, 2585, Note_on_c, 1, 54, 0
6, 3024, Note_on_c, 1, 74, 64
6, 3024, Note_on_c, 1, 71, 64
6, 3044, Note_on_c, 1, 74, 0
6, 3044, Note_on_c, 1, 71, 0
6, 3072, Note_on_c, 1, 73, 64
6, 3072, Note_on_c, 1, 70, 64
6, 3205, Note_on_c, 1, 73, 0
6, 3205, Note_on_c, 1, 70, 0
6, 3216, Note_on_c, 1, 74, 64
6, 3216, Note_on_c, 1, 71, 64
6, 3236, Note_on_c, 1, 74, 0
6, 3236, Note_on_c, 1, 71, 0
6, 3264, Note_on_c, 1, 73, 64
6, 3264, Note_on_c, 1, 70, 64
6, 3397, Note_on_c, 1, 73, 0
6, 3397, Note_on_c, 1, 70, 0
6, 3408, Note_on_c, 1, 74, 64
6, 3408, Note_on_c, 1, 71, 64
6, 3428, Note_on_c, 1, 74, 0
6, 3428, Note_on_c, 1, 71, 0
6, 3456, Note_on_c, 1, 73, 64
6, 3456, Note_on_c, 1, 70, 64
6, 3545, Note_on_c, 1, 73, 0
6, 3545, Note_on_c, 1, 70, 0
6, 3984, Note_on_c, 1, 74, 64
6, 3984, Note_on_c, 1, 71, 64
6, 4029, Note_on_c, 1, 74, 0
6, 4029, Note_on_c, 1, 71, 0
6, 4032, Note_on_c, 1, 73, 64
6, 4032, Note_on_c, 1, 69, 64
6, 4165, Note_on_c, 1, 73, 0
6, 4165, Note_on_c, 1, 69, 0
6, 4176, Note_on_c, 1, 71, 64
6, 4176, Note_on_c, 1, 67, 64
6, 4196, Note_on_c, 1, 71, 0
6, 4196, Note_on_c, 1, 67, 0
6, 4224, Note_on_c, 1, 69, 64
6, 4224, Note_on_c, 1, 66, 64
6, 4313, Note_on_c, 1, 69, 0
6, 4313, Note_on_c, 1, 66, 0
6, 4656, Note_on_c, 1, 54, 64
6, 4656, Note_on_c, 1, 42, 64
6, 4676, Note_on_c, 1, 54, 0
6, 4676, Note_on_c, 1, 42, 0
6, 4704, Note_on_c, 1, 55, 64
6, 4704, Note_on_c, 1, 43, 64
6, 4793, Note_on_c, 1, 55, 0
6, 4793, Note_on_c, 1, 43, 0
6, 4848, Note_on_c, 1, 69, 64
6, 4868, Note_on_c, 1, 69, 0
6, 4896, Note_on_c, 1, 69, 64
6, 4941, Note_on_c, 1, 69, 0
6, 5040, Note_on_c, 1, 74, 64
6, 5060, Note_on_c, 1, 74, 0
6, 5088, Note_on_c, 1, 74, 64
6, 5133, Note_on_c, 1, 74, 0
6, 5424, Note_on_c, 1, 42, 64
6, 5424, Note_on_c, 1, 30, 64
6, 5444, Note_on_c, 1, 42, 0
6, 5444, Note_on_c, 1, 30, 0
6, 5472, Note_on_c, 1, 43, 64
6, 5472, Note_on_c, 1, 31, 64
6, 5517, Note_on_c, 1, 43, 0
6, 5517, Note_on_c, 1, 31, 0
6, 5616, Note_on_c, 1, 54, 64
6, 5616, Note_on_c, 1, 42, 64
6, 5636, Note_on_c, 1, 54, 0
6, 5636, Note_on_c, 1, 42, 0
6, 5664, Note_on_c, 1, 55, 64
6, 5664, Note_on_c, 1, 43, 64
6, 5805, Note_on_c, 1, 55, 0
6, 5805, Note_on_c, 1, 43, 0
6, 5808, Note_on_c, 1, 63, 64
6, 5808, Note_on_c, 1, 51, 64
6, 5828, Note_on_c, 1, 63, 0
6, 5828, Note_on_c, 1, 51, 0
6, 5856, Note_on_c, 1, 64, 64
6, 5856, Note_on_c, 1, 52, 64
6, 5997, Note_on_c, 1, 64, 0
6, 5997, Note_on_c, 1, 52, 0
6, 6000, Note_on_c, 1, 66, 64
6, 6000, Note_on_c, 1, 54, 64
6, 6020, Note_on_c, 1, 66, 0
6, 6020, Note_on_c, 1, 54, 0
6, 6048, Note_on_c, 1, 67, 64
6, 6048, Note_on_c, 1, 55, 64
6, 6189, Note_on_c, 1, 67, 0
6, 6189, Note_on_c, 1, 55, 0
6, 6192, Note_on_c, 1, 68, 64
6, 6212, Note_on_c, 1, 68, 0
6, 6240, Note_on_c, 1, 77, 64
6, 6329, Note_on_c, 1, 77, 0
6, 6384, Note_on_c, 1, 57, 64
6, 6404, Note_on_c, 1, 57, 0
6, 6432, Note_on_c, 1, 69, 64
6, 6521, Note_on_c, 1, 69, 0
6, 6576, Note_on_c, 1, 68, 64
6, 6596, Note_on_c, 1, 68, 0
6, 6624, Note_on_c, 1, 77, 64
6, 6713, Note_on_c, 1, 77, 0
6, 6768, Note_on_c, 1, 57, 64
6, 6788, Note_on_c, 1, 57, 0
6, 6816, Note_on_c, 1, 69, 64
6, 6905, Note_on_c, 1, 69, 0
6, 6960, Note_on_c, 1, 68, 64
6, 6980, Note_on_c, 1, 68, 0
6, 7008, Note_on_c, 1, 77, 64
6, 7097, Note_on_c, 1, 77, 0
6, 7152, Note_on_c, 1, 57, 64
6, 7200, Note_on_c, 1, 69, 64
6, 7429, Note_on_c, 1, 69, 0
6, 7429, Note_on_c, 1, 57, 0
6, 7824, Note_on_c, 1, 54, 64
6, 7824, Note_on_c, 1, 42, 64
6, 7844, Note_on_c, 1, 54, 0
6, 7844, Note_on_c, 1, 42, 0
6, 7872, Note_on_c, 1, 55, 64
6, 7872, Note_on_c, 1, 43, 64
6, 7892, Note_on_c, 1, 55, 0
6, 7892, Note_on_c, 1, 43, 0
6, 7920, Note_on_c, 1, 57, 64
6, 7920, Note_on_c, 1, 45, 64
6, 7940, Note_on_c, 1, 57, 0
6, 7940, Note_on_c, 1, 45, 0
6, 7968, Note_on_c, 1, 59, 64
6, 7968, Note_on_c, 1, 47, 64
6, 7988, Note_on_c, 1, 59, 0
6, 7988, Note_on_c, 1, 47, 0
6, 8016, Note_on_c, 1, 61, 64
6, 8016, Note_on_c, 1, 49, 64
6, 8036, Note_on_c, 1, 61, 0
6, 8036, Note_on_c, 1, 49, 0
6, 8064, Note_on_c, 1, 62, 64
6, 8064, Note_on_c, 1, 50, 64
6, 8153, Note_on_c, 1, 62, 0
6, 8153, Note_on_c, 1, 50, 0
6, 8208, Note_on_c, 1, 54, 64
6, 8208, Note_on_c, 1, 42, 64
6, 8228, Note_on_c, 1, 54, 0
6, 8228, Note_on_c, 1, 42, 0
6, 8256, Note_on_c, 1, 55, 64
6, 8256, Note_on_c, 1, 43, 64
6, 8276, Note_on_c, 1, 55, 0
6, 8276, Note_on_c, 1, 43, 0
6, 8304, Note_on_c, 1, 57, 64
6, 8304, Note_on_c, 1, 45, 64
6, 8324, Note_on_c, 1, 57, 0
6, 8324, Note_on_c, 1, 45, 0
6, 8352, Note_on_c, 1, 59, 64
6, 8352, Note_on_c, 1, 47, 64
6, 8372, Note_on_c, 1, 59, 0
6, 8372, Note_on_c, 1, 47, 0
6, 8400, Note_on_c, 1, 61, 64
6, 8400, Note_on_c, 1, 49, 64
6, 8420, Note_on_c, 1, 61, 0
6, 8420, Note_on_c, 1, 49, 0
6, 8448, Note_on_c, 1, 62, 64
6, 8448, Note_on_c, 1, 50, 64
6, 8537, Note_on_c, 1, 62, 0
6, 8537, Note_on_c, 1, 50, 0
6, 8592, Note_on_c, 1, 54, 64
6, 8592, Note_on_c, 1, 42, 64
6, 8612, Note_on_c, 1, 54, 0
6, 8612, Note_on_c, 1, 42, 0
6, 8640, Note_on_c, 1, 55, 64
6, 8640, Note_on_c, 1, 43, 64
6, 8660, Note_on_c, 1, 55, 0
6, 8660, Note_on_c, 1, 43, 0
6, 8688, Note_on_c, 1, 57, 64
6, 8688, Note_on_c, 1, 45, 64
6, 8708, Note_on_c, 1, 57, 0
6, 8708, Note_on_c, 1, 45, 0
6, 8736, Note_on_c, 1, 59, 64
6, 8736, Note_on_c, 1, 47, 64
6, 8756, Note_on_c, 1, 59, 0
6, 8756, Note_on_c, 1, 47, 0
6, 8784, Note_on_c, 1, 61, 64
6, 8784, Note_on_c, 1, 49, 64
6, 8804, Note_on_c, 1, 61, 0
6, 8804, Note_on_c, 1, 49, 0
6, 8832, Note_on_c, 1, 62, 64
6, 8832, Note_on_c, 1, 50, 64
6, 8921, Note_on_c, 1, 62, 0
6, 8921, Note_on_c, 1, 50, 0
6, 9024, Note_on_c, 1, 62, 64
6, 9024, Note_on_c, 1, 57, 64
6, 9024, Note_on_c, 1, 54, 64
6, 9113, Note_on_c, 1, 62, 0
6, 9113, Note_on_c, 1, 57, 0
6, 9113, Note_on_c, 1, 54, 0
6, 9216, Note_on_c, 1, 62, 64
6, 9216, Note_on_c, 1, 55, 64
6, 9305, Note_on_c, 1, 62, 0
6, 9305, Note_on_c, 1, 55, 0
6, 9600, Note_on_c, 1, 66, 64
6, 9600, Note_on_c, 1, 62, 64
6, 9600, Note_on_c, 1, 57, 64
6, 9620, Note_on_c, 1, 66, 0
6, 9620, Note_on_c, 1, 62, 0
6, 9620, Note_on_c, 1, 57, 0
6, 9648, Note_on_c, 1, 66, 64
6, 9648, Note_on_c, 1, 62, 64
6, 9648, Note_on_c, 1, 57, 64
6, 9668, Note_on_c, 1, 66, 0
6, 9668, Note_on_c, 1, 62, 0
6, 9668, Note_on_c, 1, 57, 0
6, 9696, Note_on_c, 1, 66, 64
6, 9696, Note_on_c, 1, 62, 64
6, 9696, Note_on_c, 1, 57, 64
6, 9716, Note_on_c, 1, 66, 0
6, 9716, Note_on_c, 1, 62, 0
6, 9716, Note_on_c, 1, 57, 0
6, 9744, Note_on_c, 1, 66, 64
6, 9744, Note_on_c, 1, 62, 64
6, 9744, Note_on_c, 1, 57, 64
6, 9764, Note_on_c, 1, 66, 0
6, 9764, Note_on_c, 1, 62, 0
6, 9764, Note_on_c, 1, 57, 0
6, 9792, Note_on_c, 1, 67, 64
6, 9792, Note_on_c, 1, 61, 64
6, 9792, Note_on_c, 1, 57, 64
6, 9812, Note_on_c, 1, 67, 0
6, 9812, Note_on_c, 1, 61, 0
6, 9812, Note_on_c, 1, 57, 0
6, 9840, Note_on_c, 1, 67, 64
6, 9840, Note_on_c, 1, 61, 64
6, 9840, Note_on_c, 1, 57, 64
6, 9860, Note_on_c, 1, 67, 0
6, 9860, Note_on_c, 1, 61, 0
6, 9860, Note_on_c, 1, 57, 0
6, 9888, Note_on_c, 1, 67, 64
6, 9888, Note_on_c, 1, 61, 64
6, 9888, Note_on_c, 1, 57, 64
6, 9908, Note_on_c, 1, 67, 0
6, 9908, Note_on_c, 1, 61, 0
6, 9908, Note_on_c, 1, 57, 0
6, 9936, Note_on_c, 1, 67, 64
6, 9936, Note_on_c, 1, 61, 64
6, 9936, Note_on_c, 1, 57, 64
6, 9956, Note_on_c, 1, 67, 0
6, 9956, Note_on_c, 1, 61, 0
6, 9956, Note_on_c, 1, 57, 0
6, 9984, Note_on_c, 1, 66, 64
6, 9984, Note_on_c, 1, 62, 64
6, 10073, Note_on_c, 1, 66, 0
6, 10073, Note_on_c, 1, 62, 0
6, 10128, Note_on_c, 1, 54, 64
6, 10128, Note_on_c, 1, 42, 64
6, 10148, Note_on_c, 1, 54, 0
6, 10148, Note_on_c, 1, 42, 0
6, 10176, Note_on_c, 1, 55, 64
6, 10176, Note_on_c, 1, 43, 64
6, 10196, Note_on_c, 1, 55, 0
6, 10196, Note_on_c, 1, 43, 0
6, 10224, Note_on_c, 1, 57, 64
6, 10224, Note_on_c, 1, 45, 64
6, 10244, Note_on_c, 1, 57, 0
6, 10244, Note_on_c, 1, 45, 0
6, 10272, Note_on_c, 1, 59, 64
6, 10272, Note_on_c, 1, 47, 64
6, 10292, Note_on_c, 1, 59, 0
6, 10292, Note_on_c, 1, 47, 0
6, 10320, Note_on_c, 1, 61, 64
6, 10320, Note_on_c, 1, 49, 64
6, 10340, Note_on_c, 1, 61, 0
6, 10340, Note_on_c, 1, 49, 0
6, 10368, Note_on_c, 1, 62, 64
6, 10368, Note_on_c, 1, 50, 64
6, 10457, Note_on_c, 1, 62, 0
6, 10457, Note_on_c, 1, 50, 0
6, 10512, Note_on_c, 1, 42, 64
6, 10512, Note_on_c, 1, 30, 64
6, 10532, Note_on_c, 1, 42, 0
6, 10532, Note_on_c, 1, 30, 0
6, 10560, Note_on_c, 1, 43, 64
6, 10560, Note_on_c, 1, 31, 64
6, 10580, Note_on_c, 1, 43, 0
6, 10580, Note_on_c, 1, 31, 0
6, 10608, Note_on_c, 1, 45, 64
6, 10608, Note_on_c, 1, 33, 64
6, 10628, Note_on_c, 1, 45, 0
6, 10628, Note_on_c, 1, 33, 0
6, 10656, Note_on_c, 1, 47, 64
6, 10656, Note_on_c, 1, 35, 64
6, 10676, Note_on_c, 1, 47, 0
6, 10676, Note_on_c, 1, 35, 0
6, 10704, Note_on_c, 1, 49, 64
6, 10704, Note_on_c, 1, 37, 64
6, 10724, Note_on_c, 1, 49, 0
6, 10724, Note_on_c, 1, 37, 0
6, 10752, Note_on_c, 1, 50, 64
6, 10752, Note_on_c, 1, 38, 64
6, 10841, Note_on_c, 1, 50, 0
6, 10841, Note_on_c, 1, 38, 0
6, 10896, Note_on_c, 1, 54, 64
6, 10896, Note_on_c, 1, 42, 64
6, 10916, Note_on_c, 1, 54, 0
6, 10916, Note_on_c, 1, 42, 0
6, 10944, Note_on_c, 1, 55, 64
6, 10944, Note_on_c, 1, 43, 64
6, 10964, Note_on_c, 1, 55, 0
6, 10964, Note_on_c, 1, 43, 0
6, 10992, Note_on_c, 1, 57, 64
6, 10992, Note_on_c, 1, 45, 64
6, 11012, Note_on_c, 1, 57, 0
6, 11012, Note_on_c, 1, 45, 0
6, 11040, Note_on_c, 1, 59, 64
6, 11040, Note_on_c, 1, 47, 64
6, 11060, Note_on_c, 1, 59, 0
6, 11060, Note_on_c, 1, 47, 0
6, 11088, Note_on_c, 1, 61, 64
6, 11088, Note_on_c, 1, 49, 64
6, 11108, Note_on_c, 1, 61, 0
6, 11108, Note_on_c, 1, 49, 0
6, 11136, Note_on_c, 1, 62, 64
6, 11136, Note_on_c, 1, 50, 64
6, 11225, Note_on_c, 1, 62, 0
6, 11225, Note_on_c, 1, 50, 0
6, 11328, Note_on_c, 1, 62, 64
6, 11328, Note_on_c, 1, 57, 64
6, 11328, Note_on_c, 1, 54, 64
6, 11417, Note_on_c, 1, 62, 0
6, 11417, Note_on_c, 1, 57, 0
6, 11417, Note_on_c, 1, 54, 0
6, 11520, Note_on_c, 1, 62, 64
6, 11520, Note_on_c, 1, 55, 64
6, 11609, Note_on_c, 1, 62, 0
6, 11609, Note_on_c, 1, 55, 0
6, 11904, Note_on_c, 1, 66, 64
6, 11904, Note_on_c, 1, 62, 64
6, 11904, Note_on_c, 1, 57, 64
6, 11924, Note_on_c, 1, 66, 0
6, 11924, Note_on_c, 1, 62, 0
6, 11924, Note_on_c, 1, 57, 0
6, 11952, Note_on_c, 1, 66, 64
6, 11952, Note_on_c, 1, 62, 64
6, 11952, Note_on_c, 1, 57, 64
6, 11972, Note_on_c, 1, 66, 0
6, 11972, Note_on_c, 1, 62, 0
6, 11972, Note_on_c, 1, 57, 0
6, 12000, Note_on_c, 1, 66, 64
6, 12000, Note_on_c, 1, 62, 64
6, 12000, Note_on_c, 1, 57, 64
6, 12020, Note_on_c, 1, 66, 0
6, 12020, Note_on_c, 1, 62, 0
6, 12020, Note_on_c, 1, 57, 0
6, 12048, Note_on_c, 1, 66, 64
6, 12048, Note_on_c, 1, 62, 64
6, 12048, Note_on_c, 1, 57, 64
6, 12068, Note_on_c, 1, 66, 0
6, 12068, Note_on_c, 1, 62, 0
6, 12068, Note_on_c, 1, 57, 0
6, 12096, Note_on_c, 1, 67, 64
6, 12096, Note_on_c, 1, 61, 64
6, 12096, Note_on_c, 1, 57, 64
6, 12116, Note_on_c, 1, 67, 0
6, 12116, Note_on_c, 1, 61, 0
6, 12116, Note_on_c, 1, 57, 0
6, 12144, Note_on_c, 1, 67, 64
6, 12144, Note_on_c, 1, 61, 64
6, 12144, Note_on_c, 1, 57, 64
6, 12164, Note_on_c, 1, 67, 0
6, 12164, Note_on_c, 1, 61, 0
6, 12164, Note_on_c, 1, 57, 0
6, 12192, Note_on_c, 1, 67, 64
6, 12192, Note_on_c, 1, 61, 64
6, 12192, Note_on_c, 1, 57, 64
6, 12212, Note_on_c, 1, 67, 0
6, 12212, Note_on_c, 1, 61, 0
6, 12212, Note_on_c, 1, 57, 0
6, 12240, Note_on_c, 1, 67, 64
6, 12240, Note_on_c, 1, 61, 64
6, 12240, Note_on_c, 1, 57, 64
6, 12260, Note_on_c, 1, 67, 0
6, 12260, Note_on_c, 1, 61, 0
6, 12260, Note_on_c, 1, 57, 0
6, 12288, Note_on_c, 1, 66, 64
6, 12288, Note_on_c, 1, 62, 64
6, 12327, Note_on_c, 1, 66, 0
6, 12327, Note_on_c, 1, 62, 0
6, 12384, Note_on_c, 1, 67, 64
6, 12384, Note_on_c, 1, 57, 64
6, 12473, Note_on_c, 1, 67, 0
6, 12473, Note_on_c, 1, 57, 0
6, 12480, Note_on_c, 1, 66, 64
6, 12480, Note_on_c, 1, 62, 64
6, 12519, Note_on_c, 1, 66, 0
6, 12519, Note_on_c, 1, 62, 0
6, 12576, Note_on_c, 1, 67, 64
6, 12576, Note_on_c, 1, 57, 64
6, 12665, Note_on_c, 1, 67, 0
6, 12665, Note_on_c, 1, 57, 0
6, 12672, Note_on_c, 1, 66, 64
6, 12672, Note_on_c, 1, 62, 64
6, 12711, Note_on_c, 1, 66, 0
6, 12711, Note_on_c, 1, 62, 0
6, 12768, Note_on_c, 1, 67, 64
6, 12768, Note_on_c, 1, 57, 64
6, 12857, Note_on_c, 1, 67, 0
6, 12857, Note_on_c, 1, 57, 0
6, 12864, Note_on_c, 1, 66, 64
6, 12864, Note_on_c, 1, 62, 64
6, 12903, Note_on_c, 1, 66, 0
6, 12903, Note_on_c, 1, 62, 0
6, 12960, Note_on_c, 1, 67, 64
6, 12960, Note_on_c, 1, 57, 64
6, 13049, Note_on_c, 1, 67, 0
6, 13049, Note_on_c, 1, 57, 0
6, 13056, Note_on_c, 1, 66, 64
6, 13056, Note_on_c, 1, 62, 64
6, 13095, Note_on_c, 1, 66, 0
6, 13095, Note_on_c, 1, 62, 0
6, 14160, Note_on_c, 1, 59, 64
6, 14208, Note_on_c, 1, 59, 0
6, 14208, Note_on_c, 1, 58, 64
6, 14297, Note_on_c, 1, 58, 0
6, 14352, Note_on_c, 1, 55, 64
6, 14400, Note_on_c, 1, 55, 0
6, 14400, Note_on_c, 1, 54, 64
6, 14489, Note_on_c, 1, 54, 0
6, 14544, Note_on_c, 1, 52, 64
6, 14592, Note_on_c, 1, 52, 0
6, 14592, Note_on_c, 1, 50, 64
6, 14681, Note_on_c, 1, 50, 0
6, 14736, Note_on_c, 1, 55, 64
6, 14756, Note_on_c, 1, 55, 0
6, 14784, Note_on_c, 1, 54, 64
6, 14829, Note_on_c, 1, 54, 0
6, 14832, Note_on_c, 1, 52, 64
6, 14877, Note_on_c, 1, 52, 0
6, 14880, Note_on_c, 1, 50, 64
6, 14925, Note_on_c, 1, 50, 0
6, 14928, Note_on_c, 1, 49, 64
6, 14948, Note_on_c, 1, 49, 0
6, 14976, Note_on_c, 1, 47, 64
6, 15065, Note_on_c, 1, 47, 0
6, 15120, Note_on_c, 1, 47, 64
6, 15165, Note_on_c, 1, 47, 0
6, 15168, Note_on_c, 1, 47, 64
6, 15188, Note_on_c, 1, 47, 0
6, 15216, Note_on_c, 1, 47, 64
6, 15236, Note_on_c, 1, 47, 0
6, 15264, Note_on_c, 1, 47, 64
6, 15284, Note_on_c, 1, 47, 0
6, 15312, Note_on_c, 1, 52, 64
6, 15357, Note_on_c, 1, 52, 0
6, 15360, Note_on_c, 1, 50, 64
6, 15405, Note_on_c, 1, 50, 0
6, 15408, Note_on_c, 1, 49, 64
6, 15453, Note_on_c, 1, 49, 0
6, 15456, Note_on_c, 1, 47, 64
6, 15501, Note_on_c, 1, 47, 0
6, 15504, Note_on_c, 1, 55, 64
6, 15524, Note_on_c, 1, 55, 0
6, 15552, Note_on_c, 1, 54, 64
6, 15597, Note_on_c, 1, 54, 0
6, 15600, Note_on_c, 1, 52, 64
6, 15645, Note_on_c, 1, 52, 0
6, 15648, Note_on_c, 1, 50, 64
6, 15693, Note_on_c, 1, 50, 0
6, 15696, Note_on_c, 1, 49, 64
6, 15716, Note_on_c, 1, 49, 0
6, 15744, Note_on_c, 1, 47, 64
6, 15833, Note_on_c, 1, 47, 0
6, 15936, Note_on_c, 1, 59, 64
6, 15936, Note_on_c, 1, 55, 64
6, 16113, Note_on_c, 1, 59, 0
6, 16113, Note_on_c, 1, 55, 0
6, 16128, Note_on_c, 1, 58, 64
6, 16128, Note_on_c, 1, 54, 64
6, 16217, Note_on_c, 1, 58, 0
6, 16217, Note_on_c, 1, 54, 0
6, 16656, Note_on_c, 1, 74, 64
6, 16656, Note_on_c, 1, 71, 64
6, 16676, Note_on_c, 1, 74, 0
6, 16676, Note_on_c, 1, 71, 0
6, 16704, Note_on_c, 1, 73, 64
6, 16704, Note_on_c, 1, 70, 64
6, 16837, Note_on_c, 1, 73, 0
6, 16837, Note_on_c, 1, 70, 0
6, 16848, Note_on_c, 1, 74, 64
6, 16848, Note_on_c, 1, 71, 64
6, 16868, Note_on_c, 1, 74, 0
6, 16868, Note_on_c, 1, 71, 0
6, 16896, Note_on_c, 1, 73, 64
6, 16896, Note_on_c, 1, 70, 64
6, 17029, Note_on_c, 1, 73, 0
6, 17029, Note_on_c, 1, 70, 0
6, 17040, Note_on_c, 1, 74, 64
6, 17040, Note_on_c, 1, 71, 64
6, 17060, Note_on_c, 1, 74, 0
6, 17060, Note_on_c, 1, 71, 0
6, 17088, Note_on_c, 1, 73, 64
6, 17088, Note_on_c, 1, 70, 64
6, 17177, Note_on_c, 1, 73, 0
6, 17177, Note_on_c, 1, 70, 0
6, 17616, Note_on_c, 1, 74, 64
6, 17616, Note_on_c, 1, 71, 64
6, 17661, Note_on_c, 1, 74, 0
6, 17661, Note_on_c, 1, 71, 0
6, 17664, Note_on_c, 1, 73, 64
6, 17664, Note_on_c, 1, 69, 64
6, 17797, Note_on_c, 1, 73, 0
6, 17797, Note_on_c, 1, 69, 0
6, 17808, Note_on_c, 1, 71, 64
6, 17808, Note_on_c, 1, 67, 64
6, 17828, Note_on_c, 1, 71, 0
6, 17828, Note_on_c, 1, 67, 0
6, 17856, Note_on_c, 1, 69, 64
6, 17856, Note_on_c, 1, 66, 64
6, 17945, Note_on_c, 1, 69, 0
6, 17945, Note_on_c, 1, 66, 0
6, 18288, Note_on_c, 1, 54, 64
6, 18288, Note_on_c, 1, 42, 64
6, 18308, Note_on_c, 1, 54, 0
6, 18308, Note_on_c, 1, 42, 0
6, 18336, Note_on_c, 1, 55, 64
6, 18336, Note_on_c, 1, 43, 64
6, 18425, Note_on_c, 1, 55, 0
6, 18425, Note_on_c, 1, 43, 0
6, 18480, Note_on_c, 1, 69, 64
6, 18500, Note_on_c, 1, 69, 0
6, 18528, Note_on_c, 1, 69, 64
6, 18573, Note_on_c, 1, 69, 0
6, 18672, Note_on_c, 1, 74, 64
6, 18692, Note_on_c, 1, 74, 0
6, 18720, Note_on_c, 1, 74, 64
6, 18765, Note_on_c, 1, 74, 0
6, 19056, Note_on_c, 1, 42, 64
6, 19056, Note_on_c, 1, 30, 64
6, 19076, Note_on_c, 1, 42, 0
6, 19076, Note_on_c, 1, 30, 0
6, 19104, Note_on_c, 1, 43, 64
6, 19104, Note_on_c, 1, 31, 64
6, 19149, Note_on_c, 1, 43, 0
6, 19149, Note_on_c, 1, 31, 0
6, 19248, Note_on_c, 1, 54, 64
6, 19248, Note_on_c, 1, 42, 64
6, 19268, Note_on_c, 1, 54, 0
6, 19268, Note_on_c, 1, 42, 0
6, 19296, Note_on_c, 1, 55, 64
6, 19296, Note_on_c, 1, 43, 64
6, 19437, Note_on_c, 1, 55, 0
6, 19437, Note_on_c, 1, 43, 0
6, 19440, Note_on_c, 1, 63, 64
6, 19440, Note_on_c, 1, 51, 64
6, 19460, Note_on_c, 1, 63, 0
6, 19460, Note_on_c, 1, 51, 0
6, 19488, Note_on_c, 1, 64, 64
6, 19488, Note_on_c, 1, 52, 64
6, 19629, Note_on_c, 1, 64, 0
6, 19629, Note_on_c, 1, 52, 0
6, 19632, Note_on_c, 1, 66, 64
6, 19632, Note_on_c, 1, 54, 64
6, 19652, Note_on_c, 1, 66, 0
6, 19652, Note_on_c, 1, 54, 0
6, 19680, Note_on_c, 1, 67, 64
6, 19680, Note_on_c, 1, 55, 64
6, 19821, Note_on_c, 1, 67, 0
6, 19821, Note_on_c, 1, 55, 0
6, 19824, Note_on_c, 1, 68, 64
6, 19844, Note_on_c, 1, 68, 0
6, 19872, Note_on_c, 1, 77, 64
6, 19961, Note_on_c, 1, 77, 0
6, 20016, Note_on_c, 1, 57, 64
6, 20036, Note_on_c, 1, 57, 0
6, 20064, Note_on_c, 1, 69, 64
6, 20153, Note_on_c, 1, 69, 0
6, 20208, Note_on_c, 1, 68, 64
6, 20228, Note_on_c, 1, 68, 0
6, 20256, Note_on_c, 1, 77, 64
6, 20345, Note_on_c, 1, 77, 0
6, 20400, Note_on_c, 1, 57, 64
6, 20420, Note_on_c, 1, 57, 0
6, 20448, Note_on_c, 1, 69, 64
6, 20537, Note_on_c, 1, 69, 0
6, 20592, Note_on_c, 1, 68, 64
6, 20612, Note_on_c, 1, 68, 0
6, 20640, Note_on_c, 1, 77, 64
6, 20729, Note_on_c, 1, 77, 0
6, 20784, Note_on_c, 1, 57, 64
6, 20832, Note_on_c, 1, 69, 64
6, 21061, Note_on_c, 1, 69, 0
6, 21061, Note_on_c, 1, 57, 0
6, 21456, Note_on_c, 1, 54, 64
6, 21456, Note_on_c, 1, 42, 64
6, 21476, Note_on_c, 1, 54, 0
6, 21476, Note_on_c, 1, 42, 0
6, 21504, Note_on_c, 1, 55, 64
6, 21504, Note_on_c, 1, 43, 64
6, 21524, Note_on_c, 1, 55, 0
6, 21524, Note_on_c, 1, 43, 0
6, 21552, Note_on_c, 1, 57, 64
6, 21552, Note_on_c, 1, 45, 64
6, 21572, Note_on_c, 1, 57, 0
6, 21572, Note_on_c, 1, 45, 0
6, 21600, Note_on_c, 1, 59, 64
6, 21600, Note_on_c, 1, 47, 64
6, 21620, Note_on_c, 1, 59, 0
6, 21620, Note_on_c, 1, 47, 0
6, 21648, Note_on_c, 1, 61, 64
6, 21648, Note_on_c, 1, 49, 64
6, 21668, Note_on_c, 1, 61, 0
6, 21668, Note_on_c, 1, 49, 0
6, 21696, Note_on_c, 1, 62, 64
6, 21696, Note_on_c, 1, 50, 64
6, 21785, Note_on_c, 1, 62, 0
6, 21785, Note_on_c, 1, 50, 0
6, 21840, Note_on_c, 1, 54, 64
6, 21840, Note_on_c, 1, 42, 64
6, 21860, Note_on_c, 1, 54, 0
6, 21860, Note_on_c, 1, 42, 0
6, 21888, Note_on_c, 1, 55, 64
6, 21888, Note_on_c, 1, 43, 64
6, 21908, Note_on_c, 1, 55, 0
6, 21908, Note_on_c, 1, 43, 0
6, 21936, Note_on_c, 1, 57, 64
6, 21936, Note_on_c, 1, 45, 64
6, 21956, Note_on_c, 1, 57, 0
6, 21956, Note_on_c, 1, 45, 0
6, 21984, Note_on_c, 1, 59, 64
6, 21984, Note_on_c, 1, 47, 64
6, 22004, Note_on_c, 1, 59, 0
6, 22004, Note_on_c, 1, 47, 0
6, 22032, Note_on_c, 1, 61, 64
6, 22032, Note_on_c, 1, 49, 64
6, 22052, Note_on_c, 1, 61, 0
6, 22052, Note_on_c, 1, 49, 0
6, 22080, Note_on_c, 1, 62, 64
6, 22080, Note_on_c, 1, 50, 64
6, 22169, Note_on_c, 1, 62, 0
6, 22169, Note_on_c, 1, 50, 0
6, 22224, Note_on_c, 1, 54, 64
6, 22224, Note_on_c, 1, 42, 64
6, 22244, Note_on_c, 1, 54, 0
6, 22244, Note_on_c, 1, 42, 0
6, 22272, Note_on_c, 1, 55, 64
6, 22272, Note_on_c, 1, 43, 64
6, 22292, Note_on_c, 1, 55, 0
6, 22292, Note_on_c, 1, 43, 0
6, 22320, Note_on_c, 1, 57, 64
6, 22320, Note_on_c, 1, 45, 64
6, 22340, Note_on_c, 1, 57, 0
6, 22340, Note_on_c, 1, 45, 0
6, 22368, Note_on_c, 1, 59, 64
6, 22368, Note_on_c, 1, 47, 64
6, 22388, Note_on_c, 1, 59, 0
6, 22388, Note_on_c, 1, 47, 0
6, 22416, Note_on_c, 1, 61, 64
6, 22416, Note_on_c, 1, 49, 64
6, 22436, Note_on_c, 1, 61, 0
6, 22436, Note_on_c, 1, 49, 0
6, 22464, Note_on_c, 1, 62, 64
6, 22464, Note_on_c, 1, 50, 64
6, 22553, Note_on_c, 1, 62, 0
6, 22553, Note_on_c, 1, 50, 0
6, 22656, Note_on_c, 1, 62, 64
6, 22656, Note_on_c, 1, 57, 64
6, 22656, Note_on_c, 1, 54, 64
6, 22745, Note_on_c, 1, 62, 0
6, 22745, Note_on_c, 1, 57, 0
6, 22745, Note_on_c, 1, 54, 0
6, 22848, Note_on_c, 1, 62, 64
6, 22848, Note_on_c, 1, 55, 64
6, 22937, Note_on_c, 1, 62, 0
6, 22937, Note_on_c, 1, 55, 0
6, 23232, Note_on_c, 1, 66, 64
6, 23232, Note_on_c, 1, 62, 64
6, 23232, Note_on_c, 1, 57, 64
6, 23252, Note_on_c, 1, 66, 0
6, 23252, Note_on_c, 1, 62, 0
6, 23252, Note_on_c, 1, 57, 0
6, 23280, Note_on_c, 1, 66, 64
6, 23280, Note_on_c, 1, 62, 64
6, 23280, Note_on_c, 1, 57, 64
6, 23300, Note_on_c, 1, 66, 0
6, 23300, Note_on_c, 1, 62, 0
6, 23300, Note_on_c, 1, 57, 0
6, 23328, Note_on_c, 1, 66, 64
6, 23328, Note_on_c, 1, 62, 64
6, 23328, Note_on_c, 1, 57, 64
6, 23348, Note_on_c, 1, 66, 0
6, 23348, Note_on_c, 1, 62, 0
6, 23348, Note_on_c, 1, 57, 0
6, 23376, Note_on_c, 1, 66, 64
6, 23376, Note_on_c, 1, 62, 64
6, 23376, Note_on_c, 1, 57, 64
6, 23396, Note_on_c, 1, 66, 0
6, 23396, Note_on_c, 1, 62, 0
6, 23396, Note_on_c, 1, 57, 0
6, 23424, Note_on_c, 1, 67, 64
6, 23424, Note_on_c, 1, 61, 64
6, 23424, Note_on_c, 1, 57, 64
6, 23444, Note_on_c, 1, 67, 0
6, 23444, Note_on_c, 1, 61, 0
6, 23444, Note_on_c, 1, 57, 0
6, 23472, Note_on_c, 1, 67, 64
6, 23472, Note_on_c, 1, 61, 64
6, 23472, Note_on_c, 1, 57, 64
6, 23492, Note_on_c, 1, 67, 0
6, 23492, Note_on_c, 1, 61, 0
6, 23492, Note_on_c, 1, 57, 0
6, 23520, Note_on_c, 1, 67, 64
6, 23520, Note_on_c, 1, 61, 64
6, 23520, Note_on_c, 1, 57, 64
6, 23540, Note_on_c, 1, 67, 0
6, 23540, Note_on_c, 1, 61, 0
6, 23540, Note_on_c, 1, 57, 0
6, 23568, Note_on_c, 1, 67, 64
6, 23568, Note_on_c, 1, 61, 64
6, 23568, Note_on_c, 1, 57, 64
6, 23588, Note_on_c, 1, 67, 0
6, 23588, Note_on_c, 1, 61, 0
6, 23588, Note_on_c, 1, 57, 0
6, 23616, Note_on_c, 1, 66, 64
6, 23616, Note_on_c, 1, 62, 64
6, 23705, Note_on_c, 1, 66, 0
6, 23705, Note_on_c, 1, 62, 0
6, 23760, Note_on_c, 1, 54, 64
6, 23760, Note_on_c, 1, 42, 64
6, 23780, Note_on_c, 1, 54, 0
6, 23780, Note_on_c, 1, 42, 0
6, 23808, Note_on_c, 1, 55, 64
6, 23808, Note_on_c, 1, 43, 64
6, 23828, Note_on_c, 1, 55, 0
6, 23828, Note_on_c, 1, 43, 0
6, 23856, Note_on_c, 1, 57, 64
6, 23856, Note_on_c, 1, 45, 64
6, 23876, Note_on_c, 1, 57, 0
6, 23876, Note_on_c, 1, 45, 0
6, 23904, Note_on_c, 1, 59, 64
6, 23904, Note_on_c, 1, 47, 64
6, 23924, Note_on_c, 1, 59, 0
6, 23924, Note_on_c, 1, 47, 0
6, 23952, Note_on_c, 1, 61, 64
6, 23952, Note_on_c, 1, 49, 64
6, 23972, Note_on_c, 1, 61, 0
6, 23972, Note_on_c, 1, 49, 0
6, 24000, Note_on_c, 1, 62, 64
6, 24000, Note_on_c, 1, 50, 64
6, 24089, Note_on_c, 1, 62, 0
6, 24089, Note_on_c, 1, 50, 0
6, 24144, Note_on_c, 1, 42, 64
6, 24144, Note_on_c, 1, 30, 64
6, 24164, Note_on_c, 1, 42, 0
6, 24164, Note_on_c, 1, 30, 0
6, 24192, Note_on_c, 1, 43, 64
6, 24192, Note_on_c, 1, 31, 64
6, 24212, Note_on_c, 1, 43, 0
6, 24212, Note_on_c, 1, 31, 0
6, 24240, Note_on_c, 1, 45, 64
6, 24240, Note_on_c, 1, 33, 64
6, 24260, Note_on_c, 1, 45, 0
6, 24260, Note_on_c, 1, 33, 0
6, 24288, Note_on_c, 1, 47, 64
6, 24288, Note_on_c, 1, 35, 64
6, 24308, Note_on_c, 1, 47, 0
6, 24308, Note_on_c, 1, 35, 0
6, 24336, Note_on_c, 1, 49, 64
6, 24336, Note_on_c, 1, 37, 64
6, 24356, Note_on_c, 1, 49, 0
6, 24356, Note_on_c, 1, 37, 0
6, 24384, Note_on_c, 1, 50, 64
6, 24384, Note_on_c, 1, 38, 64
6, 24473, Note_on_c, 1, 50, 0
6, 24473, Note_on_c, 1, 38, 0
6, 24528, Note_on_c, 1, 54, 64
6, 24528, Note_on_c, 1, 42, 64
6, 24548, Note_on_c, 1, 54, 0
6, 24548, Note_on_c, 1, 42, 0
6, 24576, Note_on_c, 1, 55, 64
6, 24576, Note_on_c, 1, 43, 64
6, 24596, Note_on_c, 1, 55, 0
6, 24596, Note_on_c, 1, 43, 0
6, 24624, Note_on_c, 1, 57, 64
6, 24624, Note_on_c, 1, 45, 64
6, 24644, Note_on_c, 1, 57, 0
6, 24644, Note_on_c, 1, 45, 0
6, 24672, Note_on_c, 1, 59, 64
6, 24672, Note_on_c, 1, 47, 64
6, 24692, Note_on_c, 1, 59, 0
6, 24692, Note_on_c, 1, 47, 0
6, 24720, Note_on_c, 1, 61, 64
6, 24720, Note_on_c, 1, 49, 64
6, 24740, Note_on_c, 1, 61, 0
6, 24740, Note_on_c, 1, 49, 0
6, 24768, Note_on_c, 1, 62, 64
6, 24768, Note_on_c, 1, 50, 64
6, 24857, Note_on_c, 1, 62, 0
6, 24857, Note_on_c, 1, 50, 0
6, 24960, Note_on_c, 1, 62, 64
6, 24960, Note_on_c, 1, 57, 64
6, 24960, Note_on_c, 1, 54, 64
6, 25049, Note_on_c, 1, 62, 0
6, 25049, Note_on_c, 1, 57, 0
6, 25049, Note_on_c, 1, 54, 0
6, 25152, Note_on_c, 1, 62, 64
6, 25152, Note_on_c, 1, 55, 64
6, 25241, Note_on_c, 1, 62, 0
6, 25241, Note_on_c, 1, 55, 0
6, 25536, Note_on_c, 1, 66, 64
6, 25536, Note_on_c, 1, 62, 64
6, 25536, Note_on_c, 1, 57, 64
6, 25556, Note_on_c, 1, 66, 0
6, 25556, Note_on_c, 1, 62, 0
6, 25556, Note_on_c, 1, 57, 0
6, 25584, Note_on_c, 1, 66, 64
6, 25584, Note_on_c, 1, 62, 64
6, 25584, Note_on_c, 1, 57, 64
6, 25604, Note_on_c, 1, 66, 0
6, 25604, Note_on_c, 1, 62, 0
6, 25604, Note_on_c, 1, 57, 0
6, 25632, Note_on_c, 1, 66, 64
6, 25632, Note_on_c, 1, 62, 64
6, 25632, Note_on_c, 1, 57, 64
6, 25652, Note_on_c, 1, 66, 0
6, 25652, Note_on_c, 1, 62, 0
6, 25652, Note_on_c, 1, 57, 0
6, 25680, Note_on_c, 1, 66, 64
6, 25680, Note_on_c, 1, 62, 64
6, 25680, Note_on_c, 1, 57, 64
6, 25700, Note_on_c, 1, 66, 0
6, 25700, Note_on_c, 1, 62, 0
6, 25700, Note_on_c, 1, 57, 0
6, 25728, Note_on_c, 1, 67, 64
6, 25728, Note_on_c, 1, 61, 64
6, 25728, Note_on_c, 1, 57, 64
6, 25748, Note_on_c, 1, 67, 0
6, 25748, Note_on_c, 1, 61, 0
6, 25748, Note_on_c, 1, 57, 0
6, 25776, Note_on_c, 1, 67, 64
6, 25776, Note_on_c, 1, 61, 64
6, 25776, Note_on_c, 1, 57, 64
6, 25796, Note_on_c, 1, 67, 0
6, 25796, Note_on_c, 1, 61, 0
6, 25796, Note_on_c, 1, 57, 0
6, 25824, Note_on_c, 1, 67, 64
6, 25824, Note_on_c, 1, 61, 64
6, 25824, Note_on_c, 1, 57, 64
6, 25844, Note_on_c, 1, 67, 0
6, 25844, Note_on_c, 1, 61, 0
6, 25844, Note_on_c, 1, 57, 0
6, 25872, Note_on_c, 1, 67, 64
6, 25872, Note_on_c, 1, 61, 64
6, 25872, Note_on_c, 1, 57, 64
6, 25892, Note_on_c, 1, 67, 0
6, 25892, Note_on_c, 1, 61, 0
6, 25892, Note_on_c, 1, 57, 0
6, 25920, Note_on_c, 1, 66, 64
6, 25920, Note_on_c, 1, 62, 64
6, 25959, Note_on_c, 1, 66, 0
6, 25959, Note_on_c, 1, 62, 0
6, 26016, Note_on_c, 1, 67, 64
6, 26016, Note_on_c, 1, 57, 64
6, 26105, Note_on_c, 1, 67, 0
6, 26105, Note_on_c, 1, 57, 0
6, 26112, Note_on_c, 1, 66, 64
6, 26112, Note_on_c, 1, 62, 64
6, 26151, Note_on_c, 1, 66, 0
6, 26151, Note_on_c, 1, 62, 0
6, 26208, Note_on_c, 1, 67, 64
6, 26208, Note_on_c, 1, 57, 64
6, 26297, Note_on_c, 1, 67, 0
6, 26297, Note_on_c, 1, 57, 0
6, 26304, Note_on_c, 1, 66, 64
6, 26304, Note_on_c, 1, 62, 64
6, 26343, Note_on_c, 1, 66, 0
6, 26343, Note_on_c, 1, 62, 0
6, 26400, Note_on_c, 1, 67, 64
6, 26400, Note_on_c, 1, 57, 64
6, 26489, Note_on_c, 1, 67, 0
6, 26489, Note_on_c, 1, 57, 0
6, 26496, Note_on_c, 1, 66, 64
6, 26496, Note_on_c, 1, 62, 64
6, 26535, Note_on_c, 1, 66, 0
6, 26535, Note_on_c, 1, 62, 0
6, 26592, Note_on_c, 1, 67, 64
6, 26592, Note_on_c, 1, 57, 64
6, 26681, Note_on_c, 1, 67, 0
6, 26681, Note_on_c, 1, 57, 0
6, 26688, Note_on_c, 1, 66, 64
6, 26688, Note_on_c, 1, 62, 64
6, 26727, Note_on_c, 1, 66, 0
6, 26727, Note_on_c, 1, 62, 0
6, 27792, Note_on_c, 1, 47, 64
6, 27812, Note_on_c, 1, 47, 0
6, 27840, Note_on_c, 1, 47, 64
6, 27860, Note_on_c, 1, 47, 0
6, 27888, Note_on_c, 1, 47, 64
6, 27908, Note_on_c, 1, 47, 0
6, 27936, Note_on_c, 1, 47, 64
6, 27956, Note_on_c, 1, 47, 0
6, 27984, Note_on_c, 1, 47, 64
6, 28004, Note_on_c, 1, 47, 0
6, 28032, Note_on_c, 1, 55, 64
6, 28077, Note_on_c, 1, 55, 0
6, 28080, Note_on_c, 1, 54, 64
6, 28125, Note_on_c, 1, 54, 0
6, 28128, Note_on_c, 1, 52, 64
6, 28173, Note_on_c, 1, 52, 0
6, 28176, Note_on_c, 1, 60, 64
6, 28196, Note_on_c, 1, 60, 0
6, 28224, Note_on_c, 1, 59, 64
6, 28269, Note_on_c, 1, 59, 0
6, 28272, Note_on_c, 1, 57, 64
6, 28317, Note_on_c, 1, 57, 0
6, 28320, Note_on_c, 1, 55, 64
6, 28365, Note_on_c, 1, 55, 0
6, 28368, Note_on_c, 1, 54, 64
6, 28388, Note_on_c, 1, 54, 0
6, 28416, Note_on_c, 1, 52, 64
6, 28505, Note_on_c, 1, 52, 0
6, 28560, Note_on_c, 1, 64, 64
6, 28580, Note_on_c, 1, 64, 0
6, 28608, Note_on_c, 1, 64, 64
6, 28628, Note_on_c, 1, 64, 0
6, 28656, Note_on_c, 1, 64, 64
6, 28676, Note_on_c, 1, 64, 0
6, 28704, Note_on_c, 1, 64, 64
6, 28724, Note_on_c, 1, 64, 0
6, 28752, Note_on_c, 1, 64, 64
6, 28772, Note_on_c, 1, 64, 0
6, 28800, Note_on_c, 1, 67, 64
6, 28845, Note_on_c, 1, 67, 0
6, 28848, Note_on_c, 1, 66, 64
6, 28893, Note_on_c, 1, 66, 0
6, 28896, Note_on_c, 1, 64, 64
6, 28941, Note_on_c, 1, 64, 0
6, 28944, Note_on_c, 1, 72, 64
6, 28989, Note_on_c, 1, 72, 0
6, 28992, Note_on_c, 1, 71, 64
6, 29037, Note_on_c, 1, 71, 0
6, 29040, Note_on_c, 1, 69, 64
6, 29085, Note_on_c, 1, 69, 0
6, 29088, Note_on_c, 1, 67, 64
6, 29133, Note_on_c, 1, 67, 0
6, 29136, Note_on_c, 1, 66, 64
6, 29156, Note_on_c, 1, 66, 0
6, 29232, Note_on_c, 1, 71, 64
6, 29252, Note_on_c, 1, 71, 0
6, 29280, Note_on_c, 1, 71, 64
6, 29300, Note_on_c, 1, 71, 0
6, 29328, Note_on_c, 1, 71, 64
6, 29348, Note_on_c, 1, 71, 0
6, 29376, Note_on_c, 1, 70, 64
6, 29553, Note_on_c, 1, 70, 0
6, 29616, Note_on_c, 1, 69, 64
6, 29636, Note_on_c, 1, 69, 0
6, 29664, Note_on_c, 1, 69, 64
6, 29684, Note_on_c, 1, 69, 0
6, 29712, Note_on_c, 1, 69, 64
6, 29732, Note_on_c, 1, 69, 0
6, 29760, Note_on_c, 1, 68, 64
6, 29937, Note_on_c, 1, 68, 0
6, 30000, Note_on_c, 1, 67, 64
6, 30020, Note_on_c, 1, 67, 0
6, 30048, Note_on_c, 1, 67, 64
6, 30068, Note_on_c, 1, 67, 0
6, 30096, Note_on_c, 1, 67, 64
6, 30116, Note_on_c, 1, 67, 0
6, 30144, Note_on_c, 1, 66, 64
6, 30321, Note_on_c, 1, 66, 0
6, 30336, Note_on_c, 1, 67, 64
6, 30336, Note_on_c, 1, 59, 64
6, 30513, Note_on_c, 1, 67, 0
6, 30513, Note_on_c, 1, 59, 0
6, 30528, Note_on_c, 1, 69, 64
6, 30528, Note_on_c, 1, 57, 64
6, 30705, Note_on_c, 1, 69, 0
6, 30705, Note_on_c, 1, 57, 0
6, 30720, Note_on_c, 1, 67, 64
6, 30720, Note_on_c, 1, 55, 64
6, 30809, Note_on_c, 1, 67, 0
6, 30809, Note_on_c, 1, 55, 0
6, 31248, Note_on_c, 1, 71, 64
6, 31248, Note_on_c, 1, 67, 64
6, 31268, Note_on_c, 1, 71, 0
6, 31268, Note_on_c, 1, 67, 0
6, 31296, Note_on_c, 1, 69, 64
6, 31296, Note_on_c, 1, 66, 64
6, 31429, Note_on_c, 1, 69, 0
6, 31429, Note_on_c, 1, 66, 0
6, 31440, Note_on_c, 1, 71, 64
6, 31440, Note_on_c, 1, 67, 64
6, 31460, Note_on_c, 1, 71, 0
6, 31460, Note_on_c, 1, 67, 0
6, 31488, Note_on_c, 1, 69, 64
6, 31488, Note_on_c, 1, 66, 64
6, 31621, Note_on_c, 1, 69, 0
6, 31621, Note_on_c, 1, 66, 0
6, 31632, Note_on_c, 1, 71, 64
6, 31632, Note_on_c, 1, 67, 64
6, 31652, Note_on_c, 1, 71, 0
6, 31652, Note_on_c, 1, 67, 0
6, 31680, Note_on_c, 1, 69, 64
6, 31680, Note_on_c, 1, 66, 64
6, 31769, Note_on_c, 1, 69, 0
6, 31769, Note_on_c, 1, 66, 0
6, 32208, Note_on_c, 1, 54, 64
6, 32228, Note_on_c, 1, 54, 0
6, 32256, Note_on_c, 1, 54, 64
6, 32276, Note_on_c, 1, 54, 0
6, 32304, Note_on_c, 1, 54, 64
6, 32324, Note_on_c, 1, 54, 0
6, 32352, Note_on_c, 1, 54, 64
6, 32372, Note_on_c, 1, 54, 0
6, 32400, Note_on_c, 1, 54, 64
6, 32420, Note_on_c, 1, 54, 0
6, 32448, Note_on_c, 1, 57, 64
6, 32493, Note_on_c, 1, 57, 0
6, 32496, Note_on_c, 1, 56, 64
6, 32541, Note_on_c, 1, 56, 0
6, 32544, Note_on_c, 1, 54, 64
6, 32589, Note_on_c, 1, 54, 0
6, 32592, Note_on_c, 1, 62, 64
6, 32612, Note_on_c, 1, 62, 0
6, 32640, Note_on_c, 1, 61, 64
6, 32685, Note_on_c, 1, 61, 0
6, 32688, Note_on_c, 1, 59, 64
6, 32733, Note_on_c, 1, 59, 0
6, 32736, Note_on_c, 1, 57, 64
6, 32781, Note_on_c, 1, 57, 0
6, 32784, Note_on_c, 1, 56, 64
6, 32804, Note_on_c, 1, 56, 0
6, 32976, Note_on_c, 1, 61, 64
6, 32996, Note_on_c, 1, 61, 0
6, 33024, Note_on_c, 1, 61, 64
6, 33044, Note_on_c, 1, 61, 0
6, 33072, Note_on_c, 1, 61, 64
6, 33092, Note_on_c, 1, 61, 0
6, 33120, Note_on_c, 1, 61, 64
6, 33140, Note_on_c, 1, 61, 0
6, 33168, Note_on_c, 1, 61, 64
6, 33188, Note_on_c, 1, 61, 0
6, 38160, Note_on_c, 1, 59, 64
6, 38208, Note_on_c, 1, 59, 0
6, 38208, Note_on_c, 1, 58, 64
6, 38297, Note_on_c, 1, 58, 0
6, 38352, Note_on_c, 1, 55, 64
6, 38400, Note_on_c, 1, 55, 0
6, 38400, Note_on_c, 1, 54, 64
6, 38489, Note_on_c, 1, 54, 0
6, 38544, Note_on_c, 1, 52, 64
6, 38592, Note_on_c, 1, 52, 0
6, 38592, Note_on_c, 1, 50, 64
6, 38681, Note_on_c, 1, 50, 0
6, 38736, Note_on_c, 1, 55, 64
6, 38756, Note_on_c, 1, 55, 0
6, 38784, Note_on_c, 1, 54, 64
6, 38829, Note_on_c, 1, 54, 0
6, 38832, Note_on_c, 1, 52, 64
6, 38877, Note_on_c, 1, 52, 0
6, 38880, Note_on_c, 1, 50, 64
6, 38925, Note_on_c, 1, 50, 0
6, 38928, Note_on_c, 1, 49, 64
6, 38948, Note_on_c, 1, 49, 0
6, 38976, Note_on_c, 1, 47, 64
6, 39065, Note_on_c, 1, 47, 0
6, 39120, Note_on_c, 1, 47, 64
6, 39140, Note_on_c, 1, 47, 0
6, 39168, Note_on_c, 1, 47, 64
6, 39188, Note_on_c, 1, 47, 0
6, 39216, Note_on_c, 1, 47, 64
6, 39236, Note_on_c, 1, 47, 0
6, 39264, Note_on_c, 1, 47, 64
6, 39284, Note_on_c, 1, 47, 0
6, 39312, Note_on_c, 1, 52, 64
6, 39332, Note_on_c, 1, 52, 0
6, 39360, Note_on_c, 1, 50, 64
6, 39405, Note_on_c, 1, 50, 0
6, 39408, Note_on_c, 1, 49, 64
6, 39453, Note_on_c, 1, 49, 0
6, 39456, Note_on_c, 1, 47, 64
6, 39501, Note_on_c, 1, 47, 0
6, 39504, Note_on_c, 1, 55, 64
6, 39524, Note_on_c, 1, 55, 0
6, 39552, Note_on_c, 1, 54, 64
6, 39597, Note_on_c, 1, 54, 0
6, 39600, Note_on_c, 1, 52, 64
6, 39645, Note_on_c, 1, 52, 0
6, 39648, Note_on_c, 1, 50, 64
6, 39693, Note_on_c, 1, 50, 0
6, 39696, Note_on_c, 1, 49, 64
6, 39716, Note_on_c, 1, 49, 0
6, 39744, Note_on_c, 1, 47, 64
6, 39833, Note_on_c, 1, 47, 0
6, 39936, Note_on_c, 1, 59, 64
6, 39936, Note_on_c, 1, 55, 64
6, 40113, Note_on_c, 1, 59, 0
6, 40113, Note_on_c, 1, 55, 0
6, 40128, Note_on_c, 1, 58, 64
6, 40128, Note_on_c, 1, 54, 64
6, 40217, Note_on_c, 1, 58, 0
6, 40217, Note_on_c, 1, 54, 0
6, 40512, Note_on_c, 1, 54, 64
6, 40601, Note_on_c, 1, 54, 0
6, 40896, Note_on_c, 1, 54, 64
6, 40985, Note_on_c, 1, 54, 0
6, 41328, Note_on_c, 1, 63, 64
6, 41328, Note_on_c, 1, 51, 64
6, 41348, Note_on_c, 1, 63, 0
6, 41348, Note_on_c, 1, 51, 0
6, 41376, Note_on_c, 1, 64, 64
6, 41376, Note_on_c, 1, 52, 64
6, 41465, Note_on_c, 1, 64, 0
6, 41465, Note_on_c, 1, 52, 0
6, 51600, Note_on_c, 1, 47, 64
6, 51620, Note_on_c, 1, 47, 0
6, 51648, Note_on_c, 1, 47, 64
6, 51668, Note_on_c, 1, 47, 0
6, 51696, Note_on_c, 1, 47, 64
6, 51716, Note_on_c, 1, 47, 0
6, 51744, Note_on_c, 1, 47, 64
6, 51764, Note_on_c, 1, 47, 0
6, 51792, Note_on_c, 1, 47, 64
6, 51812, Note_on_c, 1, 47, 0
6, 51840, Note_on_c, 1, 55, 64
6, 51885, Note_on_c, 1, 55, 0
6, 51888, Note_on_c, 1, 54, 64
6, 51933, Note_on_c, 1, 54, 0
6, 51936, Note_on_c, 1, 52, 64
6, 51981, Note_on_c, 1, 52, 0
6, 51984, Note_on_c, 1, 60, 64
6, 52004, Note_on_c, 1, 60, 0
6, 52032, Note_on_c, 1, 59, 64
6, 52077, Note_on_c, 1, 59, 0
6, 52080, Note_on_c, 1, 57, 64
6, 52125, Note_on_c, 1, 57, 0
6, 52128, Note_on_c, 1, 55, 64
6, 52173, Note_on_c, 1, 55, 0
6, 52176, Note_on_c, 1, 54, 64
6, 52196, Note_on_c, 1, 54, 0
6, 52224, Note_on_c, 1, 52, 64
6, 52313, Note_on_c, 1, 52, 0
6, 52368, Note_on_c, 1, 64, 64
6, 52388, Note_on_c, 1, 64, 0
6, 52416, Note_on_c, 1, 64, 64
6, 52436, Note_on_c, 1, 64, 0
6, 52464, Note_on_c, 1, 64, 64
6, 52484, Note_on_c, 1, 64, 0
6, 52512, Note_on_c, 1, 64, 64
6, 52532, Note_on_c, 1, 64, 0
6, 52560, Note_on_c, 1, 64, 64
6, 52580, Note_on_c, 1, 64, 0
6, 52608, Note_on_c, 1, 67, 64
6, 52653, Note_on_c, 1, 67, 0
6, 52656, Note_on_c, 1, 66, 64
6, 52701, Note_on_c, 1, 66, 0
6, 52704, Note_on_c, 1, 64, 64
6, 52749, Note_on_c, 1, 64, 0
6, 52752, Note_on_c, 1, 72, 64
6, 52797, Note_on_c, 1, 72, 0
6, 52800, Note_on_c, 1, 71, 64
6, 52845, Note_on_c, 1, 71, 0
6, 52848, Note_on_c, 1, 69, 64
6, 52893, Note_on_c, 1, 69, 0
6, 52896, Note_on_c, 1, 67, 64
6, 52941, Note_on_c, 1, 67, 0
6, 52944, Note_on_c, 1, 66, 64
6, 52964, Note_on_c, 1, 66, 0
6, 53040, Note_on_c, 1, 71, 64
6, 53060, Note_on_c, 1, 71, 0
6, 53088, Note_on_c, 1, 71, 64
6, 53108, Note_on_c, 1, 71, 0
6, 53136, Note_on_c, 1, 71, 64
6, 53156, Note_on_c, 1, 71, 0
6, 53184, Note_on_c, 1, 70, 64
6, 53361, Note_on_c, 1, 70, 0
6, 53424, Note_on_c, 1, 69, 64
6, 53444, Note_on_c, 1, 69, 0
6, 53472, Note_on_c, 1, 69, 64
6, 53492, Note_on_c, 1, 69, 0
6, 53520, Note_on_c, 1, 69, 64
6, 53540, Note_on_c, 1, 69, 0
6, 53568, Note_on_c, 1, 68, 64
6, 53745, Note_on_c, 1, 68, 0
6, 53808, Note_on_c, 1, 67, 64
6, 53828, Note_on_c, 1, 67, 0
6, 53856, Note_on_c, 1, 67, 64
6, 53876, Note_on_c, 1, 67, 0
6, 53904, Note_on_c, 1, 67, 64
6, 53924, Note_on_c, 1, 67, 0
6, 53952, Note_on_c, 1, 66, 64
6, 54129, Note_on_c, 1, 66, 0
6, 54144, Note_on_c, 1, 67, 64
6, 54144, Note_on_c, 1, 59, 64
6, 54321, Note_on_c, 1, 67, 0
6, 54321, Note_on_c, 1, 59, 0
6, 54336, Note_on_c, 1, 69, 64
6, 54336, Note_on_c, 1, 57, 64
6, 54513, Note_on_c, 1, 69, 0
6, 54513, Note_on_c, 1, 57, 0
6, 54528, Note_on_c, 1, 67, 64
6, 54528, Note_on_c, 1, 55, 64
6, 54617, Note_on_c, 1, 67, 0
6, 54617, Note_on_c, 1, 55, 0
6, 55056, Note_on_c, 1, 71, 64
6, 55056, Note_on_c, 1, 67, 64
6, 55076, Note_on_c, 1, 71, 0
6, 55076, Note_on_c, 1, 67, 0
6, 55104, Note_on_c, 1, 69, 64
6, 55104, Note_on_c, 1, 66, 64
6, 55237, Note_on_c, 1, 69, 0
6, 55237, Note_on_c, 1, 66, 0
6, 55248, Note_on_c, 1, 71, 64
6, 55248, Note_on_c, 1, 67, 64
6, 55268, Note_on_c, 1, 71, 0
6, 55268, Note_on_c, 1, 67, 0
6, 55296, Note_on_c, 1, 69, 64
6, 55296, Note_on_c, 1, 66, 64
6, 55429, Note_on_c, 1, 69, 0
6, 55429, Note_on_c, 1, 66, 0
6, 55440, Note_on_c, 1, 71, 64
6, 55440, Note_on_c, 1, 67, 64
6, 55460, Note_on_c, 1, 71, 0
6, 55460, Note_on_c, 1, 67, 0
6, 55488, Note_on_c, 1, 69, 64
6, 55488, Note_on_c, 1, 66, 64
6, 55577, Note_on_c, 1, 69, 0
6, 55577, Note_on_c, 1, 66, 0
6, 56016, Note_on_c, 1, 54, 64
6, 56036, Note_on_c, 1, 54, 0
6, 56064, Note_on_c, 1, 54, 64
6, 56084, Note_on_c, 1, 54, 0
6, 56112, Note_on_c, 1, 54, 64
6, 56132, Note_on_c, 1, 54, 0
6, 56160, Note_on_c, 1, 54, 64
6, 56180, Note_on_c, 1, 54, 0
6, 56208, Note_on_c, 1, 54, 64
6, 56228, Note_on_c, 1, 54, 0
6, 56256, Note_on_c, 1, 57, 64
6, 56301, Note_on_c, 1, 57, 0
6, 56304, Note_on_c, 1, 56, 64
6, 56349, Note_on_c, 1, 56, 0
6, 56352, Note_on_c, 1, 54, 64
6, 56397, Note_on_c, 1, 54, 0
6, 56400, Note_on_c, 1, 62, 64
6, 56420, Note_on_c, 1, 62, 0
6, 56448, Note_on_c, 1, 61, 64
6, 56493, Note_on_c, 1, 61, 0
6, 56496, Note_on_c, 1, 59, 64
6, 56541, Note_on_c, 1, 59, 0
6, 56544, Note_on_c, 1, 57, 64
6, 56589, Note_on_c, 1, 57, 0
6, 56592, Note_on_c, 1, 56, 64
6, 56612, Note_on_c, 1, 56, 0
6, 56784, Note_on_c, 1, 61, 64
6, 56804, Note_on_c, 1, 61, 0
6, 56832, Note_on_c, 1, 61, 64
6, 56852, Note_on_c, 1, 61, 0
6, 56880, Note_on_c, 1, 61, 64
6, 56900, Note_on_c, 1, 61, 0
6, 56928, Note_on_c, 1, 61, 64
6, 56948, Note_on_c, 1, 61, 0
6, 56976, Note_on_c, 1, 61, 64
6, 56996, Note_on_c, 1, 61, 0
6, 61968, Note_on_c, 1, 59, 64
6, 62016, Note_on_c, 1, 59, 0
6, 62016, Note_on_c, 1, 58, 64
6, 62105, Note_on_c, 1, 58, 0
6, 62160, Note_on_c, 1, 55, 64
6, 62208, Note_on_c, 1, 55, 0
6, 62208, Note_on_c, 1, 54, 64
6, 62297, Note_on_c, 1, 54, 0
6, 62352, Note_on_c, 1, 52, 64
6, 62400, Note_on_c, 1, 52, 0
6, 62400, Note_on_c, 1, 50, 64
6, 62489, Note_on_c, 1, 50, 0
6, 62544, Note_on_c, 1, 55, 64
6, 62564, Note_on_c, 1, 55, 0
6, 62592, Note_on_c, 1, 54, 64
6, 62637, Note_on_c, 1, 54, 0
6, 62640, Note_on_c, 1, 52, 64
6, 62685, Note_on_c, 1, 52, 0
6, 62688, Note_on_c, 1, 50, 64
6, 62733, Note_on_c, 1, 50, 0
6, 62736, Note_on_c, 1, 49, 64
6, 62756, Note_on_c, 1, 49, 0
6, 62784, Note_on_c, 1, 47, 64
6, 62873, Note_on_c, 1, 47, 0
6, 62928, Note_on_c, 1, 47, 64
6, 62948, Note_on_c, 1, 47, 0
6, 62976, Note_on_c, 1, 47, 64
6, 62996, Note_on_c, 1, 47, 0
6, 63024, Note_on_c, 1, 47, 64
6, 63044, Note_on_c, 1, 47, 0
6, 63072, Note_on_c, 1, 47, 64
6, 63092, Note_on_c, 1, 47, 0
6, 63120, Note_on_c, 1, 52, 64
6, 63140, Note_on_c, 1, 52, 0
6, 63168, Note_on_c, 1, 50, 64
6, 63213, Note_on_c, 1, 50, 0
6, 63216, Note_on_c, 1, 49, 64
6, 63261, Note_on_c, 1, 49, 0
6, 63264, Note_on_c, 1, 47, 64
6, 63309, Note_on_c, 1, 47, 0
6, 63312, Note_on_c, 1, 55, 64
6, 63332, Note_on_c, 1, 55, 0
6, 63360, Note_on_c, 1, 54, 64
6, 63405, Note_on_c, 1, 54, 0
6, 63408, Note_on_c, 1, 52, 64
6, 63453, Note_on_c, 1, 52, 0
6, 63456, Note_on_c, 1, 50, 64
6, 63501, Note_on_c, 1, 50, 0
6, 63504, Note_on_c, 1, 49, 64
6, 63524, Note_on_c, 1, 49, 0
6, 63552, Note_on_c, 1, 47, 64
6, 63641, Note_on_c, 1, 47, 0
6, 63744, Note_on_c, 1, 59, 64
6, 63744, Note_on_c, 1, 55, 64
6, 63921, Note_on_c, 1, 59, 0
6, 63921, Note_on_c, 1, 55, 0
6, 63936, Note_on_c, 1, 58, 64
6, 63936, Note_on_c, 1, 54, 64
6, 64025, Note_on_c, 1, 58, 0
6, 64025, Note_on_c, 1, 54, 0
6, 64320, Note_on_c, 1, 54, 64
6, 64409, Note_on_c, 1, 54, 0
6, 64704, Note_on_c, 1, 54, 64
6, 64793, Note_on_c, 1, 54, 0
6, 65136, Note_on_c, 1, 63, 64
6, 65136, Note_on_c, 1, 51, 64
6, 65156, Note_on_c, 1, 63, 0
6, 65156, Note_on_c, 1, 51, 0
6, 65184, Note_on_c, 1, 64, 64
6, 65184, Note_on_c, 1, 52, 64
6, 65273, Note_on_c, 1, 64, 0
6, 65273, Note_on_c, 1, 52, 0
6, 75072, End_track
7, 0, Start_track
7, 0, Title_t, "Sonata VI   Haydn  "
7, 0, End_track
0, 0, End_of_file
