0, 0, Header, 1, 6, 96
1, 0, Start_track
1, 0, Copyright_t, "Copyright  2000 <copyright holder>"
1, 0, Text_t, "Sonata I\015\012"
1, 0, Text_t, "Haydn\015\012"
1, 0, Sequencer_specific, 17, 68, 87, 77, 90, 86, 82, 83, 78, 32, 55, 46, 48, 46, 49, 48, 46, 48
1, 0, Time_signature, 4, 2, 24, 8
1, 0, Tempo, 375000
1, 0, Key_signature, 3, "major"
1, 3360, Tempo, 468750
1, 3456, Tempo, 400000
1, 18720, Tempo, 468750
1, 18816, Tempo, 400000
1, 44448, Tempo, 468750
1, 44544, Tempo, 400000
1, 69024, Tempo, 468750
1, 69120, Tempo, 400000
1, 80256, End_track
2, 0, Start_track
2, 0, Program_c, 0, 0
2, 0, Control_c, 0, 7, 127
2, 0, Control_c, 0, 10, 64
2, 0, Note_on_c, 0, 76, 75
2, 0, Note_on_c, 0, 73, 75
2, 39, Note_on_c, 0, 76, 0
2, 39, Note_on_c, 0, 73, 0
2, 96, Note_on_c, 0, 73, 75
2, 96, Note_on_c, 0, 69, 75
2, 135, Note_on_c, 0, 73, 0
2, 135, Note_on_c, 0, 69, 0
2, 384, Note_on_c, 0, 78, 75
2, 384, Note_on_c, 0, 74, 75
2, 423, Note_on_c, 0, 78, 0
2, 423, Note_on_c, 0, 74, 0
2, 480, Note_on_c, 0, 74, 75
2, 480, Note_on_c, 0, 71, 75
2, 519, Note_on_c, 0, 74, 0
2, 519, Note_on_c, 0, 71, 0
2, 768, Note_on_c, 0, 76, 75
2, 768, Note_on_c, 0, 73, 75
2, 807, Note_on_c, 0, 76, 0
2, 807, Note_on_c, 0, 73, 0
2, 864, Note_on_c, 0, 73, 75
2, 864, Note_on_c, 0, 69, 75
2, 903, Note_on_c, 0, 73, 0
2, 903, Note_on_c, 0, 69, 0
2, 1056, Note_on_c, 0, 71, 75
2, 1056, Note_on_c, 0, 68, 75
2, 1123, Note_on_c, 0, 71, 0
2, 1123, Note_on_c, 0, 68, 0
2, 1128, Note_on_c, 0, 73, 75
2, 1128, Note_on_c, 0, 69, 75
2, 1151, Note_on_c, 0, 73, 0
2, 1151, Note_on_c, 0, 69, 0
2, 1152, Note_on_c, 0, 74, 75
2, 1152, Note_on_c, 0, 71, 75
2, 1219, Note_on_c, 0, 74, 0
2, 1219, Note_on_c, 0, 71, 0
2, 1224, Note_on_c, 0, 76, 75
2, 1224, Note_on_c, 0, 73, 75
2, 1234, Note_on_c, 0, 76, 0
2, 1234, Note_on_c, 0, 73, 0
2, 1248, Note_on_c, 0, 74, 75
2, 1248, Note_on_c, 0, 71, 75
2, 1315, Note_on_c, 0, 74, 0
2, 1315, Note_on_c, 0, 71, 0
2, 1320, Note_on_c, 0, 74, 75
2, 1320, Note_on_c, 0, 71, 75
2, 1343, Note_on_c, 0, 74, 0
2, 1343, Note_on_c, 0, 71, 0
2, 1344, Note_on_c, 0, 74, 75
2, 1344, Note_on_c, 0, 71, 75
2, 1389, Note_on_c, 0, 74, 0
2, 1389, Note_on_c, 0, 71, 0
2, 1392, Note_on_c, 0, 83, 76
2, 1437, Note_on_c, 0, 83, 0
2, 1440, Note_on_c, 0, 80, 77
2, 1485, Note_on_c, 0, 80, 0
2, 1488, Note_on_c, 0, 74, 78
2, 1533, Note_on_c, 0, 74, 0
2, 1536, Note_on_c, 0, 74, 80
2, 1536, Note_on_c, 0, 71, 80
2, 1728, Note_on_c, 0, 74, 0
2, 1728, Note_on_c, 0, 71, 0
2, 1728, Note_on_c, 0, 73, 76
2, 1728, Note_on_c, 0, 69, 76
2, 1817, Note_on_c, 0, 73, 0
2, 1817, Note_on_c, 0, 69, 0
2, 1920, Note_on_c, 0, 66, 75
2, 1938, Note_on_c, 0, 66, 0
2, 1938, Note_on_c, 0, 64, 75
2, 1956, Note_on_c, 0, 64, 0
2, 1956, Note_on_c, 0, 66, 75
2, 2179, Note_on_c, 0, 66, 0
2, 2184, Note_on_c, 0, 66, 75
2, 2207, Note_on_c, 0, 66, 0
2, 2208, Note_on_c, 0, 74, 75
2, 2275, Note_on_c, 0, 74, 0
2, 2280, Note_on_c, 0, 71, 75
2, 2303, Note_on_c, 0, 71, 0
2, 2304, Note_on_c, 0, 69, 75
2, 2322, Note_on_c, 0, 69, 0
2, 2322, Note_on_c, 0, 68, 75
2, 2340, Note_on_c, 0, 68, 0
2, 2340, Note_on_c, 0, 69, 75
2, 2496, Note_on_c, 0, 69, 0
2, 2496, Note_on_c, 0, 68, 75
2, 2585, Note_on_c, 0, 68, 0
2, 2592, Note_on_c, 0, 80, 75
2, 2615, Note_on_c, 0, 80, 0
2, 2616, Note_on_c, 0, 78, 75
2, 2639, Note_on_c, 0, 78, 0
2, 2640, Note_on_c, 0, 76, 75
2, 2663, Note_on_c, 0, 76, 0
2, 2664, Note_on_c, 0, 74, 75
2, 2687, Note_on_c, 0, 74, 0
2, 2688, Note_on_c, 0, 73, 75
2, 2880, Note_on_c, 0, 73, 0
2, 2880, Note_on_c, 0, 71, 75
2, 2910, Note_on_c, 0, 71, 0
2, 2912, Note_on_c, 0, 80, 75
2, 2942, Note_on_c, 0, 80, 0
2, 2944, Note_on_c, 0, 81, 75
2, 2974, Note_on_c, 0, 81, 0
2, 2976, Note_on_c, 0, 83, 75
2, 3006, Note_on_c, 0, 83, 0
2, 3008, Note_on_c, 0, 80, 75
2, 3038, Note_on_c, 0, 80, 0
2, 3040, Note_on_c, 0, 76, 75
2, 3070, Note_on_c, 0, 76, 0
2, 3072, Note_on_c, 0, 73, 75
2, 3102, Note_on_c, 0, 73, 0
2, 3104, Note_on_c, 0, 81, 75
2, 3134, Note_on_c, 0, 81, 0
2, 3136, Note_on_c, 0, 76, 75
2, 3166, Note_on_c, 0, 76, 0
2, 3168, Note_on_c, 0, 78, 75
2, 3198, Note_on_c, 0, 78, 0
2, 3200, Note_on_c, 0, 74, 75
2, 3230, Note_on_c, 0, 74, 0
2, 3232, Note_on_c, 0, 71, 75
2, 3262, Note_on_c, 0, 71, 0
2, 3264, Note_on_c, 0, 69, 75
2, 3264, Note_on_c, 0, 61, 75
2, 3360, Note_on_c, 0, 69, 0
2, 3360, Note_on_c, 0, 61, 0
2, 3360, Note_on_c, 0, 68, 75
2, 3360, Note_on_c, 0, 59, 75
2, 3427, Note_on_c, 0, 68, 0
2, 3427, Note_on_c, 0, 59, 0
2, 3456, Note_on_c, 0, 64, 75
2, 3456, Note_on_c, 0, 61, 75
2, 3495, Note_on_c, 0, 64, 0
2, 3495, Note_on_c, 0, 61, 0
2, 3552, Note_on_c, 0, 61, 75
2, 3552, Note_on_c, 0, 57, 75
2, 3591, Note_on_c, 0, 61, 0
2, 3591, Note_on_c, 0, 57, 0
2, 3840, Note_on_c, 0, 66, 75
2, 3840, Note_on_c, 0, 62, 75
2, 3879, Note_on_c, 0, 66, 0
2, 3879, Note_on_c, 0, 62, 0
2, 3936, Note_on_c, 0, 62, 75
2, 3936, Note_on_c, 0, 59, 75
2, 3975, Note_on_c, 0, 62, 0
2, 3975, Note_on_c, 0, 59, 0
2, 4224, Note_on_c, 0, 67, 75
2, 4224, Note_on_c, 0, 64, 75
2, 4263, Note_on_c, 0, 67, 0
2, 4263, Note_on_c, 0, 64, 0
2, 4320, Note_on_c, 0, 64, 75
2, 4320, Note_on_c, 0, 61, 75
2, 4359, Note_on_c, 0, 64, 0
2, 4359, Note_on_c, 0, 61, 0
2, 4608, Note_on_c, 0, 78, 64
2, 4626, Note_on_c, 0, 78, 0
2, 4626, Note_on_c, 0, 79, 64
2, 4644, Note_on_c, 0, 79, 0
2, 4644, Note_on_c, 0, 81, 64
2, 4662, Note_on_c, 0, 81, 0
2, 4662, Note_on_c, 0, 79, 80
2, 4845, Note_on_c, 0, 79, 0
2, 4848, Note_on_c, 0, 79, 71
2, 4893, Note_on_c, 0, 79, 0
2, 4896, Note_on_c, 0, 78, 73
2, 4941, Note_on_c, 0, 78, 0
2, 4944, Note_on_c, 0, 76, 75
2, 4989, Note_on_c, 0, 76, 0
2, 4992, Note_on_c, 0, 75, 89
2, 5136, Note_on_c, 0, 75, 0
2, 5136, Note_on_c, 0, 76, 68
2, 5159, Note_on_c, 0, 76, 0
2, 5160, Note_on_c, 0, 78, 67
2, 5183, Note_on_c, 0, 78, 0
2, 5184, Note_on_c, 0, 76, 67
2, 5273, Note_on_c, 0, 76, 0
2, 5376, Note_on_c, 0, 76, 64
2, 5394, Note_on_c, 0, 76, 0
2, 5394, Note_on_c, 0, 77, 64
2, 5412, Note_on_c, 0, 77, 0
2, 5412, Note_on_c, 0, 79, 64
2, 5430, Note_on_c, 0, 79, 0
2, 5430, Note_on_c, 0, 77, 80
2, 5613, Note_on_c, 0, 77, 0
2, 5616, Note_on_c, 0, 77, 71
2, 5661, Note_on_c, 0, 77, 0
2, 5664, Note_on_c, 0, 76, 73
2, 5709, Note_on_c, 0, 76, 0
2, 5712, Note_on_c, 0, 74, 75
2, 5757, Note_on_c, 0, 74, 0
2, 5760, Note_on_c, 0, 73, 89
2, 5904, Note_on_c, 0, 73, 0
2, 5904, Note_on_c, 0, 74, 67
2, 5927, Note_on_c, 0, 74, 0
2, 5928, Note_on_c, 0, 76, 66
2, 5951, Note_on_c, 0, 76, 0
2, 5952, Note_on_c, 0, 74, 65
2, 5997, Note_on_c, 0, 74, 0
2, 6000, Note_on_c, 0, 86, 80
2, 6000, Note_on_c, 0, 81, 80
2, 6000, Note_on_c, 0, 78, 80
2, 6020, Note_on_c, 0, 86, 0
2, 6020, Note_on_c, 0, 81, 0
2, 6020, Note_on_c, 0, 78, 0
2, 6048, Note_on_c, 0, 85, 64
2, 6048, Note_on_c, 0, 80, 64
2, 6048, Note_on_c, 0, 76, 64
2, 6068, Note_on_c, 0, 85, 0
2, 6068, Note_on_c, 0, 80, 0
2, 6068, Note_on_c, 0, 76, 0
2, 6096, Note_on_c, 0, 83, 64
2, 6096, Note_on_c, 0, 78, 64
2, 6096, Note_on_c, 0, 74, 64
2, 6116, Note_on_c, 0, 83, 0
2, 6116, Note_on_c, 0, 78, 0
2, 6116, Note_on_c, 0, 74, 0
2, 6144, Note_on_c, 0, 81, 75
2, 6144, Note_on_c, 0, 76, 75
2, 6144, Note_on_c, 0, 73, 75
2, 6164, Note_on_c, 0, 81, 0
2, 6164, Note_on_c, 0, 76, 0
2, 6164, Note_on_c, 0, 73, 0
2, 6192, Note_on_c, 0, 80, 75
2, 6192, Note_on_c, 0, 74, 75
2, 6192, Note_on_c, 0, 71, 75
2, 6212, Note_on_c, 0, 80, 0
2, 6212, Note_on_c, 0, 74, 0
2, 6212, Note_on_c, 0, 71, 0
2, 6240, Note_on_c, 0, 78, 76
2, 6240, Note_on_c, 0, 73, 76
2, 6240, Note_on_c, 0, 69, 76
2, 6260, Note_on_c, 0, 78, 0
2, 6260, Note_on_c, 0, 73, 0
2, 6260, Note_on_c, 0, 69, 0
2, 6288, Note_on_c, 0, 76, 76
2, 6288, Note_on_c, 0, 71, 76
2, 6288, Note_on_c, 0, 68, 76
2, 6308, Note_on_c, 0, 76, 0
2, 6308, Note_on_c, 0, 71, 0
2, 6308, Note_on_c, 0, 68, 0
2, 6336, Note_on_c, 0, 74, 77
2, 6336, Note_on_c, 0, 69, 77
2, 6336, Note_on_c, 0, 66, 77
2, 6356, Note_on_c, 0, 74, 0
2, 6356, Note_on_c, 0, 69, 0
2, 6356, Note_on_c, 0, 66, 0
2, 6384, Note_on_c, 0, 73, 78
2, 6384, Note_on_c, 0, 68, 78
2, 6384, Note_on_c, 0, 64, 78
2, 6404, Note_on_c, 0, 73, 0
2, 6404, Note_on_c, 0, 68, 0
2, 6404, Note_on_c, 0, 64, 0
2, 6432, Note_on_c, 0, 71, 78
2, 6432, Note_on_c, 0, 66, 78
2, 6432, Note_on_c, 0, 62, 78
2, 6452, Note_on_c, 0, 71, 0
2, 6452, Note_on_c, 0, 66, 0
2, 6452, Note_on_c, 0, 62, 0
2, 6480, Note_on_c, 0, 69, 79
2, 6480, Note_on_c, 0, 64, 79
2, 6480, Note_on_c, 0, 61, 79
2, 6500, Note_on_c, 0, 69, 0
2, 6500, Note_on_c, 0, 64, 0
2, 6500, Note_on_c, 0, 61, 0
2, 6528, Note_on_c, 0, 75, 80
2, 6551, Note_on_c, 0, 75, 0
2, 6552, Note_on_c, 0, 76, 80
2, 6575, Note_on_c, 0, 76, 0
2, 6576, Note_on_c, 0, 75, 80
2, 6599, Note_on_c, 0, 75, 0
2, 6600, Note_on_c, 0, 76, 80
2, 6623, Note_on_c, 0, 76, 0
2, 6624, Note_on_c, 0, 64, 80
2, 6663, Note_on_c, 0, 64, 0
2, 6912, Note_on_c, 0, 70, 80
2, 6935, Note_on_c, 0, 70, 0
2, 6936, Note_on_c, 0, 71, 80
2, 6959, Note_on_c, 0, 71, 0
2, 6960, Note_on_c, 0, 70, 80
2, 6983, Note_on_c, 0, 70, 0
2, 6984, Note_on_c, 0, 71, 80
2, 7007, Note_on_c, 0, 71, 0
2, 7008, Note_on_c, 0, 59, 80
2, 7047, Note_on_c, 0, 59, 0
2, 7296, Note_on_c, 0, 56, 80
2, 7326, Note_on_c, 0, 56, 0
2, 7328, Note_on_c, 0, 64, 80
2, 7358, Note_on_c, 0, 64, 0
2, 7360, Note_on_c, 0, 59, 80
2, 7390, Note_on_c, 0, 59, 0
2, 7392, Note_on_c, 0, 68, 81
2, 7422, Note_on_c, 0, 68, 0
2, 7424, Note_on_c, 0, 64, 81
2, 7454, Note_on_c, 0, 64, 0
2, 7456, Note_on_c, 0, 71, 82
2, 7486, Note_on_c, 0, 71, 0
2, 7488, Note_on_c, 0, 68, 82
2, 7518, Note_on_c, 0, 68, 0
2, 7520, Note_on_c, 0, 76, 83
2, 7550, Note_on_c, 0, 76, 0
2, 7552, Note_on_c, 0, 71, 83
2, 7582, Note_on_c, 0, 71, 0
2, 7584, Note_on_c, 0, 80, 84
2, 7614, Note_on_c, 0, 80, 0
2, 7616, Note_on_c, 0, 76, 84
2, 7646, Note_on_c, 0, 76, 0
2, 7648, Note_on_c, 0, 83, 85
2, 7678, Note_on_c, 0, 83, 0
2, 7680, Note_on_c, 0, 88, 85
2, 7710, Note_on_c, 0, 88, 0
2, 7712, Note_on_c, 0, 87, 85
2, 7742, Note_on_c, 0, 87, 0
2, 7744, Note_on_c, 0, 85, 85
2, 7774, Note_on_c, 0, 85, 0
2, 7776, Note_on_c, 0, 83, 84
2, 7806, Note_on_c, 0, 83, 0
2, 7808, Note_on_c, 0, 81, 84
2, 7838, Note_on_c, 0, 81, 0
2, 7840, Note_on_c, 0, 80, 84
2, 7870, Note_on_c, 0, 80, 0
2, 7872, Note_on_c, 0, 78, 83
2, 7902, Note_on_c, 0, 78, 0
2, 7904, Note_on_c, 0, 76, 83
2, 7934, Note_on_c, 0, 76, 0
2, 7936, Note_on_c, 0, 75, 82
2, 7966, Note_on_c, 0, 75, 0
2, 7968, Note_on_c, 0, 73, 82
2, 7991, Note_on_c, 0, 73, 0
2, 7992, Note_on_c, 0, 71, 81
2, 8015, Note_on_c, 0, 71, 0
2, 8016, Note_on_c, 0, 69, 81
2, 8039, Note_on_c, 0, 69, 0
2, 8040, Note_on_c, 0, 68, 81
2, 8063, Note_on_c, 0, 68, 0
2, 8064, Note_on_c, 0, 78, 80
2, 8064, Note_on_c, 0, 75, 80
2, 8329, Note_on_c, 0, 78, 0
2, 8329, Note_on_c, 0, 75, 0
2, 8576, Note_on_c, 0, 63, 80
2, 8606, Note_on_c, 0, 63, 0
2, 8608, Note_on_c, 0, 66, 80
2, 8638, Note_on_c, 0, 66, 0
2, 8640, Note_on_c, 0, 69, 80
2, 8670, Note_on_c, 0, 69, 0
2, 8672, Note_on_c, 0, 66, 80
2, 8702, Note_on_c, 0, 66, 0
2, 8704, Note_on_c, 0, 63, 80
2, 8734, Note_on_c, 0, 63, 0
2, 8736, Note_on_c, 0, 66, 80
2, 8766, Note_on_c, 0, 66, 0
2, 8768, Note_on_c, 0, 69, 80
2, 8798, Note_on_c, 0, 69, 0
2, 8800, Note_on_c, 0, 66, 80
2, 8830, Note_on_c, 0, 66, 0
2, 8832, Note_on_c, 0, 77, 80
2, 8862, Note_on_c, 0, 77, 0
2, 8864, Note_on_c, 0, 78, 79
2, 8894, Note_on_c, 0, 78, 0
2, 8896, Note_on_c, 0, 80, 79
2, 8926, Note_on_c, 0, 80, 0
2, 8928, Note_on_c, 0, 78, 79
2, 8958, Note_on_c, 0, 78, 0
2, 8960, Note_on_c, 0, 80, 78
2, 8990, Note_on_c, 0, 80, 0
2, 8992, Note_on_c, 0, 81, 78
2, 9022, Note_on_c, 0, 81, 0
2, 9024, Note_on_c, 0, 75, 78
2, 9054, Note_on_c, 0, 75, 0
2, 9056, Note_on_c, 0, 76, 77
2, 9086, Note_on_c, 0, 76, 0
2, 9088, Note_on_c, 0, 78, 77
2, 9118, Note_on_c, 0, 78, 0
2, 9120, Note_on_c, 0, 76, 77
2, 9150, Note_on_c, 0, 76, 0
2, 9152, Note_on_c, 0, 78, 76
2, 9182, Note_on_c, 0, 78, 0
2, 9184, Note_on_c, 0, 79, 76
2, 9214, Note_on_c, 0, 79, 0
2, 9216, Note_on_c, 0, 73, 76
2, 9246, Note_on_c, 0, 73, 0
2, 9248, Note_on_c, 0, 74, 75
2, 9278, Note_on_c, 0, 74, 0
2, 9280, Note_on_c, 0, 76, 75
2, 9310, Note_on_c, 0, 76, 0
2, 9312, Note_on_c, 0, 74, 75
2, 9342, Note_on_c, 0, 74, 0
2, 9344, Note_on_c, 0, 76, 75
2, 9374, Note_on_c, 0, 76, 0
2, 9376, Note_on_c, 0, 77, 74
2, 9406, Note_on_c, 0, 77, 0
2, 9408, Note_on_c, 0, 71, 74
2, 9438, Note_on_c, 0, 71, 0
2, 9440, Note_on_c, 0, 72, 74
2, 9470, Note_on_c, 0, 72, 0
2, 9472, Note_on_c, 0, 74, 73
2, 9502, Note_on_c, 0, 74, 0
2, 9504, Note_on_c, 0, 72, 73
2, 9534, Note_on_c, 0, 72, 0
2, 9536, Note_on_c, 0, 74, 73
2, 9566, Note_on_c, 0, 74, 0
2, 9568, Note_on_c, 0, 76, 72
2, 9598, Note_on_c, 0, 76, 0
2, 9600, Note_on_c, 0, 70, 72
2, 9792, Note_on_c, 0, 70, 0
2, 9792, Note_on_c, 0, 71, 70
2, 9837, Note_on_c, 0, 71, 0
2, 9840, Note_on_c, 0, 71, 64
2, 9860, Note_on_c, 0, 71, 0
2, 9888, Note_on_c, 0, 71, 64
2, 9908, Note_on_c, 0, 71, 0
2, 9936, Note_on_c, 0, 71, 64
2, 9956, Note_on_c, 0, 71, 0
2, 9984, Note_on_c, 0, 71, 64
2, 10004, Note_on_c, 0, 71, 0
2, 10032, Note_on_c, 0, 71, 64
2, 10052, Note_on_c, 0, 71, 0
2, 10080, Note_on_c, 0, 71, 64
2, 10100, Note_on_c, 0, 71, 0
2, 10128, Note_on_c, 0, 71, 64
2, 10148, Note_on_c, 0, 71, 0
2, 10176, Note_on_c, 0, 72, 64
2, 10196, Note_on_c, 0, 72, 0
2, 10224, Note_on_c, 0, 72, 64
2, 10244, Note_on_c, 0, 72, 0
2, 10272, Note_on_c, 0, 72, 65
2, 10292, Note_on_c, 0, 72, 0
2, 10320, Note_on_c, 0, 72, 65
2, 10340, Note_on_c, 0, 72, 0
2, 10368, Note_on_c, 0, 72, 66
2, 10388, Note_on_c, 0, 72, 0
2, 10416, Note_on_c, 0, 72, 66
2, 10436, Note_on_c, 0, 72, 0
2, 10464, Note_on_c, 0, 72, 67
2, 10484, Note_on_c, 0, 72, 0
2, 10512, Note_on_c, 0, 72, 67
2, 10532, Note_on_c, 0, 72, 0
2, 10560, Note_on_c, 0, 75, 68
2, 10580, Note_on_c, 0, 75, 0
2, 10608, Note_on_c, 0, 75, 68
2, 10628, Note_on_c, 0, 75, 0
2, 10656, Note_on_c, 0, 75, 69
2, 10676, Note_on_c, 0, 75, 0
2, 10704, Note_on_c, 0, 75, 70
2, 10724, Note_on_c, 0, 75, 0
2, 10752, Note_on_c, 0, 76, 70
2, 10772, Note_on_c, 0, 76, 0
2, 10800, Note_on_c, 0, 76, 71
2, 10820, Note_on_c, 0, 76, 0
2, 10848, Note_on_c, 0, 76, 71
2, 10868, Note_on_c, 0, 76, 0
2, 10896, Note_on_c, 0, 76, 72
2, 10916, Note_on_c, 0, 76, 0
2, 10944, Note_on_c, 0, 78, 72
2, 10989, Note_on_c, 0, 78, 0
2, 10992, Note_on_c, 0, 71, 73
2, 11037, Note_on_c, 0, 71, 0
2, 11040, Note_on_c, 0, 78, 73
2, 11085, Note_on_c, 0, 78, 0
2, 11088, Note_on_c, 0, 71, 74
2, 11133, Note_on_c, 0, 71, 0
2, 11136, Note_on_c, 0, 79, 75
2, 11181, Note_on_c, 0, 79, 0
2, 11184, Note_on_c, 0, 71, 75
2, 11229, Note_on_c, 0, 71, 0
2, 11232, Note_on_c, 0, 79, 76
2, 11277, Note_on_c, 0, 79, 0
2, 11280, Note_on_c, 0, 71, 76
2, 11325, Note_on_c, 0, 71, 0
2, 11328, Note_on_c, 0, 80, 77
2, 11328, Note_on_c, 0, 76, 77
2, 11373, Note_on_c, 0, 80, 0
2, 11373, Note_on_c, 0, 76, 0
2, 11376, Note_on_c, 0, 71, 77
2, 11421, Note_on_c, 0, 71, 0
2, 11424, Note_on_c, 0, 80, 78
2, 11424, Note_on_c, 0, 76, 78
2, 11469, Note_on_c, 0, 80, 0
2, 11469, Note_on_c, 0, 76, 0
2, 11472, Note_on_c, 0, 71, 78
2, 11517, Note_on_c, 0, 71, 0
2, 11520, Note_on_c, 0, 81, 79
2, 11520, Note_on_c, 0, 76, 79
2, 11565, Note_on_c, 0, 81, 0
2, 11565, Note_on_c, 0, 76, 0
2, 11568, Note_on_c, 0, 72, 80
2, 11613, Note_on_c, 0, 72, 0
2, 11616, Note_on_c, 0, 81, 64
2, 11616, Note_on_c, 0, 76, 64
2, 11661, Note_on_c, 0, 81, 0
2, 11661, Note_on_c, 0, 76, 0
2, 11664, Note_on_c, 0, 72, 63
2, 11709, Note_on_c, 0, 72, 0
2, 11712, Note_on_c, 0, 82, 62
2, 11712, Note_on_c, 0, 76, 62
2, 11757, Note_on_c, 0, 82, 0
2, 11757, Note_on_c, 0, 76, 0
2, 11760, Note_on_c, 0, 72, 61
2, 11805, Note_on_c, 0, 72, 0
2, 11808, Note_on_c, 0, 82, 60
2, 11808, Note_on_c, 0, 76, 60
2, 11853, Note_on_c, 0, 82, 0
2, 11853, Note_on_c, 0, 76, 0
2, 11856, Note_on_c, 0, 72, 59
2, 11901, Note_on_c, 0, 72, 0
2, 11904, Note_on_c, 0, 83, 58
2, 11904, Note_on_c, 0, 75, 58
2, 11993, Note_on_c, 0, 83, 0
2, 11993, Note_on_c, 0, 75, 0
2, 12288, Note_on_c, 0, 86, 102
2, 12288, Note_on_c, 0, 83, 102
2, 12384, Note_on_c, 0, 86, 0
2, 12384, Note_on_c, 0, 83, 0
2, 12384, Note_on_c, 0, 85, 86
2, 12384, Note_on_c, 0, 81, 86
2, 12423, Note_on_c, 0, 85, 0
2, 12423, Note_on_c, 0, 81, 0
2, 12480, Note_on_c, 0, 84, 102
2, 12480, Note_on_c, 0, 81, 102
2, 12576, Note_on_c, 0, 84, 0
2, 12576, Note_on_c, 0, 81, 0
2, 12576, Note_on_c, 0, 83, 86
2, 12576, Note_on_c, 0, 80, 86
2, 12615, Note_on_c, 0, 83, 0
2, 12615, Note_on_c, 0, 80, 0
2, 12672, Note_on_c, 0, 88, 102
2, 12672, Note_on_c, 0, 85, 102
2, 12768, Note_on_c, 0, 88, 0
2, 12768, Note_on_c, 0, 85, 0
2, 12768, Note_on_c, 0, 87, 86
2, 12768, Note_on_c, 0, 83, 86
2, 12807, Note_on_c, 0, 87, 0
2, 12807, Note_on_c, 0, 83, 0
2, 12864, Note_on_c, 0, 81, 102
2, 12864, Note_on_c, 0, 78, 102
2, 12960, Note_on_c, 0, 81, 0
2, 12960, Note_on_c, 0, 78, 0
2, 12960, Note_on_c, 0, 80, 86
2, 12960, Note_on_c, 0, 76, 86
2, 12975, Note_on_c, 0, 80, 0
2, 12975, Note_on_c, 0, 76, 0
2, 13032, Note_on_c, 0, 81, 86
2, 13044, Note_on_c, 0, 81, 0
2, 13044, Note_on_c, 0, 83, 86
2, 13056, Note_on_c, 0, 83, 0
2, 13056, Note_on_c, 0, 85, 102
2, 13104, Note_on_c, 0, 85, 0
2, 13104, Note_on_c, 0, 83, 86
2, 13124, Note_on_c, 0, 83, 0
2, 13152, Note_on_c, 0, 81, 86
2, 13172, Note_on_c, 0, 81, 0
2, 13200, Note_on_c, 0, 80, 86
2, 13220, Note_on_c, 0, 80, 0
2, 13248, Note_on_c, 0, 78, 86
2, 13268, Note_on_c, 0, 78, 0
2, 13296, Note_on_c, 0, 76, 86
2, 13316, Note_on_c, 0, 76, 0
2, 13344, Note_on_c, 0, 75, 86
2, 13364, Note_on_c, 0, 75, 0
2, 13392, Note_on_c, 0, 73, 86
2, 13412, Note_on_c, 0, 73, 0
2, 13440, Note_on_c, 0, 71, 80
2, 13460, Note_on_c, 0, 71, 0
2, 13488, Note_on_c, 0, 69, 78
2, 13508, Note_on_c, 0, 69, 0
2, 13536, Note_on_c, 0, 68, 77
2, 13556, Note_on_c, 0, 68, 0
2, 13584, Note_on_c, 0, 66, 76
2, 13604, Note_on_c, 0, 66, 0
2, 13632, Note_on_c, 0, 64, 75
2, 13652, Note_on_c, 0, 64, 0
2, 13680, Note_on_c, 0, 63, 73
2, 13700, Note_on_c, 0, 63, 0
2, 13728, Note_on_c, 0, 61, 72
2, 13748, Note_on_c, 0, 61, 0
2, 13776, Note_on_c, 0, 59, 71
2, 13796, Note_on_c, 0, 59, 0
2, 13824, Note_on_c, 0, 72, 64
2, 13824, Note_on_c, 0, 64, 64
2, 13824, Note_on_c, 0, 57, 64
2, 13863, Note_on_c, 0, 72, 0
2, 13863, Note_on_c, 0, 64, 0
2, 13863, Note_on_c, 0, 57, 0
2, 14016, Note_on_c, 0, 63, 64
2, 14016, Note_on_c, 0, 57, 64
2, 14055, Note_on_c, 0, 63, 0
2, 14055, Note_on_c, 0, 57, 0
2, 14208, Note_on_c, 0, 64, 80
2, 14232, Note_on_c, 0, 64, 0
2, 14232, Note_on_c, 0, 59, 80
2, 14255, Note_on_c, 0, 59, 0
2, 14256, Note_on_c, 0, 68, 80
2, 14266, Note_on_c, 0, 68, 0
2, 14280, Note_on_c, 0, 68, 80
2, 14290, Note_on_c, 0, 68, 0
2, 14304, Note_on_c, 0, 68, 80
2, 14328, Note_on_c, 0, 68, 0
2, 14328, Note_on_c, 0, 64, 81
2, 14351, Note_on_c, 0, 64, 0
2, 14352, Note_on_c, 0, 71, 81
2, 14362, Note_on_c, 0, 71, 0
2, 14376, Note_on_c, 0, 71, 81
2, 14386, Note_on_c, 0, 71, 0
2, 14400, Note_on_c, 0, 71, 81
2, 14424, Note_on_c, 0, 71, 0
2, 14424, Note_on_c, 0, 68, 82
2, 14447, Note_on_c, 0, 68, 0
2, 14448, Note_on_c, 0, 76, 82
2, 14458, Note_on_c, 0, 76, 0
2, 14472, Note_on_c, 0, 76, 82
2, 14482, Note_on_c, 0, 76, 0
2, 14496, Note_on_c, 0, 76, 82
2, 14520, Note_on_c, 0, 76, 0
2, 14520, Note_on_c, 0, 71, 83
2, 14543, Note_on_c, 0, 71, 0
2, 14544, Note_on_c, 0, 80, 83
2, 14554, Note_on_c, 0, 80, 0
2, 14568, Note_on_c, 0, 80, 83
2, 14578, Note_on_c, 0, 80, 0
2, 14592, Note_on_c, 0, 80, 83
2, 14616, Note_on_c, 0, 80, 0
2, 14616, Note_on_c, 0, 76, 84
2, 14639, Note_on_c, 0, 76, 0
2, 14640, Note_on_c, 0, 83, 84
2, 14650, Note_on_c, 0, 83, 0
2, 14664, Note_on_c, 0, 83, 84
2, 14674, Note_on_c, 0, 83, 0
2, 14688, Note_on_c, 0, 83, 84
2, 14712, Note_on_c, 0, 83, 0
2, 14712, Note_on_c, 0, 80, 85
2, 14735, Note_on_c, 0, 80, 0
2, 14736, Note_on_c, 0, 88, 85
2, 14746, Note_on_c, 0, 88, 0
2, 14760, Note_on_c, 0, 88, 85
2, 14770, Note_on_c, 0, 88, 0
2, 14784, Note_on_c, 0, 88, 86
2, 14823, Note_on_c, 0, 88, 0
2, 14976, Note_on_c, 0, 87, 70
2, 14999, Note_on_c, 0, 87, 0
2, 15000, Note_on_c, 0, 85, 70
2, 15023, Note_on_c, 0, 85, 0
2, 15024, Note_on_c, 0, 87, 70
2, 15047, Note_on_c, 0, 87, 0
2, 15048, Note_on_c, 0, 83, 70
2, 15071, Note_on_c, 0, 83, 0
2, 15072, Note_on_c, 0, 88, 70
2, 15111, Note_on_c, 0, 88, 0
2, 15360, Note_on_c, 0, 76, 75
2, 15360, Note_on_c, 0, 73, 75
2, 15399, Note_on_c, 0, 76, 0
2, 15399, Note_on_c, 0, 73, 0
2, 15456, Note_on_c, 0, 73, 75
2, 15456, Note_on_c, 0, 69, 75
2, 15495, Note_on_c, 0, 73, 0
2, 15495, Note_on_c, 0, 69, 0
2, 15744, Note_on_c, 0, 78, 75
2, 15744, Note_on_c, 0, 74, 75
2, 15783, Note_on_c, 0, 78, 0
2, 15783, Note_on_c, 0, 74, 0
2, 15840, Note_on_c, 0, 74, 75
2, 15840, Note_on_c, 0, 71, 75
2, 15879, Note_on_c, 0, 74, 0
2, 15879, Note_on_c, 0, 71, 0
2, 16128, Note_on_c, 0, 76, 75
2, 16128, Note_on_c, 0, 73, 75
2, 16167, Note_on_c, 0, 76, 0
2, 16167, Note_on_c, 0, 73, 0
2, 16224, Note_on_c, 0, 73, 75
2, 16224, Note_on_c, 0, 69, 75
2, 16263, Note_on_c, 0, 73, 0
2, 16263, Note_on_c, 0, 69, 0
2, 16416, Note_on_c, 0, 71, 75
2, 16416, Note_on_c, 0, 68, 75
2, 16483, Note_on_c, 0, 71, 0
2, 16483, Note_on_c, 0, 68, 0
2, 16488, Note_on_c, 0, 73, 75
2, 16488, Note_on_c, 0, 69, 75
2, 16511, Note_on_c, 0, 73, 0
2, 16511, Note_on_c, 0, 69, 0
2, 16512, Note_on_c, 0, 74, 75
2, 16512, Note_on_c, 0, 71, 75
2, 16579, Note_on_c, 0, 74, 0
2, 16579, Note_on_c, 0, 71, 0
2, 16584, Note_on_c, 0, 76, 75
2, 16584, Note_on_c, 0, 73, 75
2, 16594, Note_on_c, 0, 76, 0
2, 16594, Note_on_c, 0, 73, 0
2, 16608, Note_on_c, 0, 74, 75
2, 16608, Note_on_c, 0, 71, 75
2, 16675, Note_on_c, 0, 74, 0
2, 16675, Note_on_c, 0, 71, 0
2, 16680, Note_on_c, 0, 74, 75
2, 16680, Note_on_c, 0, 71, 75
2, 16703, Note_on_c, 0, 74, 0
2, 16703, Note_on_c, 0, 71, 0
2, 16704, Note_on_c, 0, 74, 75
2, 16704, Note_on_c, 0, 71, 75
2, 16749, Note_on_c, 0, 74, 0
2, 16749, Note_on_c, 0, 71, 0
2, 16752, Note_on_c, 0, 83, 76
2, 16797, Note_on_c, 0, 83, 0
2, 16800, Note_on_c, 0, 80, 77
2, 16845, Note_on_c, 0, 80, 0
2, 16848, Note_on_c, 0, 74, 78
2, 16893, Note_on_c, 0, 74, 0
2, 16896, Note_on_c, 0, 74, 80
2, 16896, Note_on_c, 0, 71, 80
2, 17088, Note_on_c, 0, 74, 0
2, 17088, Note_on_c, 0, 71, 0
2, 17088, Note_on_c, 0, 73, 76
2, 17088, Note_on_c, 0, 69, 76
2, 17177, Note_on_c, 0, 73, 0
2, 17177, Note_on_c, 0, 69, 0
2, 17280, Note_on_c, 0, 66, 75
2, 17298, Note_on_c, 0, 66, 0
2, 17298, Note_on_c, 0, 64, 75
2, 17316, Note_on_c, 0, 64, 0
2, 17316, Note_on_c, 0, 66, 75
2, 17539, Note_on_c, 0, 66, 0
2, 17544, Note_on_c, 0, 66, 75
2, 17567, Note_on_c, 0, 66, 0
2, 17568, Note_on_c, 0, 74, 75
2, 17635, Note_on_c, 0, 74, 0
2, 17640, Note_on_c, 0, 71, 75
2, 17663, Note_on_c, 0, 71, 0
2, 17664, Note_on_c, 0, 69, 75
2, 17682, Note_on_c, 0, 69, 0
2, 17682, Note_on_c, 0, 68, 75
2, 17700, Note_on_c, 0, 68, 0
2, 17700, Note_on_c, 0, 69, 75
2, 17856, Note_on_c, 0, 69, 0
2, 17856, Note_on_c, 0, 68, 75
2, 17945, Note_on_c, 0, 68, 0
2, 17952, Note_on_c, 0, 80, 75
2, 17975, Note_on_c, 0, 80, 0
2, 17976, Note_on_c, 0, 78, 75
2, 17999, Note_on_c, 0, 78, 0
2, 18000, Note_on_c, 0, 76, 75
2, 18023, Note_on_c, 0, 76, 0
2, 18024, Note_on_c, 0, 74, 75
2, 18047, Note_on_c, 0, 74, 0
2, 18048, Note_on_c, 0, 73, 75
2, 18240, Note_on_c, 0, 73, 0
2, 18240, Note_on_c, 0, 71, 75
2, 18270, Note_on_c, 0, 71, 0
2, 18272, Note_on_c, 0, 80, 75
2, 18302, Note_on_c, 0, 80, 0
2, 18304, Note_on_c, 0, 81, 75
2, 18334, Note_on_c, 0, 81, 0
2, 18336, Note_on_c, 0, 83, 75
2, 18366, Note_on_c, 0, 83, 0
2, 18368, Note_on_c, 0, 80, 75
2, 18398, Note_on_c, 0, 80, 0
2, 18400, Note_on_c, 0, 76, 75
2, 18430, Note_on_c, 0, 76, 0
2, 18432, Note_on_c, 0, 73, 75
2, 18462, Note_on_c, 0, 73, 0
2, 18464, Note_on_c, 0, 81, 75
2, 18494, Note_on_c, 0, 81, 0
2, 18496, Note_on_c, 0, 76, 75
2, 18526, Note_on_c, 0, 76, 0
2, 18528, Note_on_c, 0, 78, 75
2, 18558, Note_on_c, 0, 78, 0
2, 18560, Note_on_c, 0, 74, 75
2, 18590, Note_on_c, 0, 74, 0
2, 18592, Note_on_c, 0, 71, 75
2, 18622, Note_on_c, 0, 71, 0
2, 18624, Note_on_c, 0, 69, 75
2, 18624, Note_on_c, 0, 61, 75
2, 18720, Note_on_c, 0, 69, 0
2, 18720, Note_on_c, 0, 61, 0
2, 18720, Note_on_c, 0, 68, 75
2, 18720, Note_on_c, 0, 59, 75
2, 18787, Note_on_c, 0, 68, 0
2, 18787, Note_on_c, 0, 59, 0
2, 18816, Note_on_c, 0, 64, 75
2, 18816, Note_on_c, 0, 61, 75
2, 18855, Note_on_c, 0, 64, 0
2, 18855, Note_on_c, 0, 61, 0
2, 18912, Note_on_c, 0, 61, 75
2, 18912, Note_on_c, 0, 57, 75
2, 18951, Note_on_c, 0, 61, 0
2, 18951, Note_on_c, 0, 57, 0
2, 19200, Note_on_c, 0, 66, 75
2, 19200, Note_on_c, 0, 62, 75
2, 19239, Note_on_c, 0, 66, 0
2, 19239, Note_on_c, 0, 62, 0
2, 19296, Note_on_c, 0, 62, 75
2, 19296, Note_on_c, 0, 59, 75
2, 19335, Note_on_c, 0, 62, 0
2, 19335, Note_on_c, 0, 59, 0
2, 19584, Note_on_c, 0, 67, 75
2, 19584, Note_on_c, 0, 64, 75
2, 19623, Note_on_c, 0, 67, 0
2, 19623, Note_on_c, 0, 64, 0
2, 19680, Note_on_c, 0, 64, 75
2, 19680, Note_on_c, 0, 61, 75
2, 19719, Note_on_c, 0, 64, 0
2, 19719, Note_on_c, 0, 61, 0
2, 19968, Note_on_c, 0, 78, 64
2, 19986, Note_on_c, 0, 78, 0
2, 19986, Note_on_c, 0, 79, 64
2, 20004, Note_on_c, 0, 79, 0
2, 20004, Note_on_c, 0, 81, 64
2, 20022, Note_on_c, 0, 81, 0
2, 20022, Note_on_c, 0, 79, 80
2, 20205, Note_on_c, 0, 79, 0
2, 20208, Note_on_c, 0, 79, 71
2, 20253, Note_on_c, 0, 79, 0
2, 20256, Note_on_c, 0, 78, 73
2, 20301, Note_on_c, 0, 78, 0
2, 20304, Note_on_c, 0, 76, 75
2, 20349, Note_on_c, 0, 76, 0
2, 20352, Note_on_c, 0, 75, 89
2, 20496, Note_on_c, 0, 75, 0
2, 20496, Note_on_c, 0, 76, 68
2, 20519, Note_on_c, 0, 76, 0
2, 20520, Note_on_c, 0, 78, 67
2, 20543, Note_on_c, 0, 78, 0
2, 20544, Note_on_c, 0, 76, 67
2, 20633, Note_on_c, 0, 76, 0
2, 20736, Note_on_c, 0, 76, 64
2, 20754, Note_on_c, 0, 76, 0
2, 20754, Note_on_c, 0, 77, 64
2, 20772, Note_on_c, 0, 77, 0
2, 20772, Note_on_c, 0, 79, 64
2, 20790, Note_on_c, 0, 79, 0
2, 20790, Note_on_c, 0, 77, 80
2, 20973, Note_on_c, 0, 77, 0
2, 20976, Note_on_c, 0, 77, 71
2, 21021, Note_on_c, 0, 77, 0
2, 21024, Note_on_c, 0, 76, 73
2, 21069, Note_on_c, 0, 76, 0
2, 21072, Note_on_c, 0, 74, 75
2, 21117, Note_on_c, 0, 74, 0
2, 21120, Note_on_c, 0, 73, 89
2, 21264, Note_on_c, 0, 73, 0
2, 21264, Note_on_c, 0, 74, 67
2, 21287, Note_on_c, 0, 74, 0
2, 21288, Note_on_c, 0, 76, 66
2, 21311, Note_on_c, 0, 76, 0
2, 21312, Note_on_c, 0, 74, 65
2, 21357, Note_on_c, 0, 74, 0
2, 21360, Note_on_c, 0, 86, 80
2, 21360, Note_on_c, 0, 81, 80
2, 21360, Note_on_c, 0, 78, 80
2, 21380, Note_on_c, 0, 86, 0
2, 21380, Note_on_c, 0, 81, 0
2, 21380, Note_on_c, 0, 78, 0
2, 21408, Note_on_c, 0, 85, 64
2, 21408, Note_on_c, 0, 80, 64
2, 21408, Note_on_c, 0, 76, 64
2, 21428, Note_on_c, 0, 85, 0
2, 21428, Note_on_c, 0, 80, 0
2, 21428, Note_on_c, 0, 76, 0
2, 21456, Note_on_c, 0, 83, 64
2, 21456, Note_on_c, 0, 78, 64
2, 21456, Note_on_c, 0, 74, 64
2, 21476, Note_on_c, 0, 83, 0
2, 21476, Note_on_c, 0, 78, 0
2, 21476, Note_on_c, 0, 74, 0
2, 21504, Note_on_c, 0, 81, 75
2, 21504, Note_on_c, 0, 76, 75
2, 21504, Note_on_c, 0, 73, 75
2, 21524, Note_on_c, 0, 81, 0
2, 21524, Note_on_c, 0, 76, 0
2, 21524, Note_on_c, 0, 73, 0
2, 21552, Note_on_c, 0, 80, 75
2, 21552, Note_on_c, 0, 74, 75
2, 21552, Note_on_c, 0, 71, 75
2, 21572, Note_on_c, 0, 80, 0
2, 21572, Note_on_c, 0, 74, 0
2, 21572, Note_on_c, 0, 71, 0
2, 21600, Note_on_c, 0, 78, 76
2, 21600, Note_on_c, 0, 73, 76
2, 21600, Note_on_c, 0, 69, 76
2, 21620, Note_on_c, 0, 78, 0
2, 21620, Note_on_c, 0, 73, 0
2, 21620, Note_on_c, 0, 69, 0
2, 21648, Note_on_c, 0, 76, 76
2, 21648, Note_on_c, 0, 71, 76
2, 21648, Note_on_c, 0, 68, 76
2, 21668, Note_on_c, 0, 76, 0
2, 21668, Note_on_c, 0, 71, 0
2, 21668, Note_on_c, 0, 68, 0
2, 21696, Note_on_c, 0, 74, 77
2, 21696, Note_on_c, 0, 69, 77
2, 21696, Note_on_c, 0, 66, 77
2, 21716, Note_on_c, 0, 74, 0
2, 21716, Note_on_c, 0, 69, 0
2, 21716, Note_on_c, 0, 66, 0
2, 21744, Note_on_c, 0, 73, 78
2, 21744, Note_on_c, 0, 68, 78
2, 21744, Note_on_c, 0, 64, 78
2, 21764, Note_on_c, 0, 73, 0
2, 21764, Note_on_c, 0, 68, 0
2, 21764, Note_on_c, 0, 64, 0
2, 21792, Note_on_c, 0, 71, 78
2, 21792, Note_on_c, 0, 66, 78
2, 21792, Note_on_c, 0, 62, 78
2, 21812, Note_on_c, 0, 71, 0
2, 21812, Note_on_c, 0, 66, 0
2, 21812, Note_on_c, 0, 62, 0
2, 21840, Note_on_c, 0, 69, 79
2, 21840, Note_on_c, 0, 64, 79
2, 21840, Note_on_c, 0, 61, 79
2, 21860, Note_on_c, 0, 69, 0
2, 21860, Note_on_c, 0, 64, 0
2, 21860, Note_on_c, 0, 61, 0
2, 21888, Note_on_c, 0, 75, 80
2, 21911, Note_on_c, 0, 75, 0
2, 21912, Note_on_c, 0, 76, 80
2, 21935, Note_on_c, 0, 76, 0
2, 21936, Note_on_c, 0, 75, 80
2, 21959, Note_on_c, 0, 75, 0
2, 21960, Note_on_c, 0, 76, 80
2, 21983, Note_on_c, 0, 76, 0
2, 21984, Note_on_c, 0, 64, 80
2, 22023, Note_on_c, 0, 64, 0
2, 22272, Note_on_c, 0, 70, 80
2, 22295, Note_on_c, 0, 70, 0
2, 22296, Note_on_c, 0, 71, 80
2, 22319, Note_on_c, 0, 71, 0
2, 22320, Note_on_c, 0, 70, 80
2, 22343, Note_on_c, 0, 70, 0
2, 22344, Note_on_c, 0, 71, 80
2, 22367, Note_on_c, 0, 71, 0
2, 22368, Note_on_c, 0, 59, 80
2, 22407, Note_on_c, 0, 59, 0
2, 22656, Note_on_c, 0, 56, 80
2, 22686, Note_on_c, 0, 56, 0
2, 22688, Note_on_c, 0, 64, 80
2, 22718, Note_on_c, 0, 64, 0
2, 22720, Note_on_c, 0, 59, 80
2, 22750, Note_on_c, 0, 59, 0
2, 22752, Note_on_c, 0, 68, 81
2, 22782, Note_on_c, 0, 68, 0
2, 22784, Note_on_c, 0, 64, 81
2, 22814, Note_on_c, 0, 64, 0
2, 22816, Note_on_c, 0, 71, 82
2, 22846, Note_on_c, 0, 71, 0
2, 22848, Note_on_c, 0, 68, 82
2, 22878, Note_on_c, 0, 68, 0
2, 22880, Note_on_c, 0, 76, 83
2, 22910, Note_on_c, 0, 76, 0
2, 22912, Note_on_c, 0, 71, 83
2, 22942, Note_on_c, 0, 71, 0
2, 22944, Note_on_c, 0, 80, 84
2, 22974, Note_on_c, 0, 80, 0
2, 22976, Note_on_c, 0, 76, 84
2, 23006, Note_on_c, 0, 76, 0
2, 23008, Note_on_c, 0, 83, 85
2, 23038, Note_on_c, 0, 83, 0
2, 23040, Note_on_c, 0, 88, 85
2, 23070, Note_on_c, 0, 88, 0
2, 23072, Note_on_c, 0, 87, 85
2, 23102, Note_on_c, 0, 87, 0
2, 23104, Note_on_c, 0, 85, 85
2, 23134, Note_on_c, 0, 85, 0
2, 23136, Note_on_c, 0, 83, 84
2, 23166, Note_on_c, 0, 83, 0
2, 23168, Note_on_c, 0, 81, 84
2, 23198, Note_on_c, 0, 81, 0
2, 23200, Note_on_c, 0, 80, 84
2, 23230, Note_on_c, 0, 80, 0
2, 23232, Note_on_c, 0, 78, 83
2, 23262, Note_on_c, 0, 78, 0
2, 23264, Note_on_c, 0, 76, 83
2, 23294, Note_on_c, 0, 76, 0
2, 23296, Note_on_c, 0, 75, 82
2, 23326, Note_on_c, 0, 75, 0
2, 23328, Note_on_c, 0, 73, 82
2, 23351, Note_on_c, 0, 73, 0
2, 23352, Note_on_c, 0, 71, 81
2, 23375, Note_on_c, 0, 71, 0
2, 23376, Note_on_c, 0, 69, 81
2, 23399, Note_on_c, 0, 69, 0
2, 23400, Note_on_c, 0, 68, 81
2, 23423, Note_on_c, 0, 68, 0
2, 23424, Note_on_c, 0, 78, 80
2, 23424, Note_on_c, 0, 75, 80
2, 23689, Note_on_c, 0, 78, 0
2, 23689, Note_on_c, 0, 75, 0
2, 23936, Note_on_c, 0, 63, 80
2, 23966, Note_on_c, 0, 63, 0
2, 23968, Note_on_c, 0, 66, 80
2, 23998, Note_on_c, 0, 66, 0
2, 24000, Note_on_c, 0, 69, 80
2, 24030, Note_on_c, 0, 69, 0
2, 24032, Note_on_c, 0, 66, 80
2, 24062, Note_on_c, 0, 66, 0
2, 24064, Note_on_c, 0, 63, 80
2, 24094, Note_on_c, 0, 63, 0
2, 24096, Note_on_c, 0, 66, 80
2, 24126, Note_on_c, 0, 66, 0
2, 24128, Note_on_c, 0, 69, 80
2, 24158, Note_on_c, 0, 69, 0
2, 24160, Note_on_c, 0, 66, 80
2, 24190, Note_on_c, 0, 66, 0
2, 24192, Note_on_c, 0, 77, 80
2, 24222, Note_on_c, 0, 77, 0
2, 24224, Note_on_c, 0, 78, 79
2, 24254, Note_on_c, 0, 78, 0
2, 24256, Note_on_c, 0, 80, 79
2, 24286, Note_on_c, 0, 80, 0
2, 24288, Note_on_c, 0, 78, 79
2, 24318, Note_on_c, 0, 78, 0
2, 24320, Note_on_c, 0, 80, 78
2, 24350, Note_on_c, 0, 80, 0
2, 24352, Note_on_c, 0, 81, 78
2, 24382, Note_on_c, 0, 81, 0
2, 24384, Note_on_c, 0, 75, 78
2, 24414, Note_on_c, 0, 75, 0
2, 24416, Note_on_c, 0, 76, 77
2, 24446, Note_on_c, 0, 76, 0
2, 24448, Note_on_c, 0, 78, 77
2, 24478, Note_on_c, 0, 78, 0
2, 24480, Note_on_c, 0, 76, 77
2, 24510, Note_on_c, 0, 76, 0
2, 24512, Note_on_c, 0, 78, 76
2, 24542, Note_on_c, 0, 78, 0
2, 24544, Note_on_c, 0, 79, 76
2, 24574, Note_on_c, 0, 79, 0
2, 24576, Note_on_c, 0, 73, 76
2, 24606, Note_on_c, 0, 73, 0
2, 24608, Note_on_c, 0, 74, 75
2, 24638, Note_on_c, 0, 74, 0
2, 24640, Note_on_c, 0, 76, 75
2, 24670, Note_on_c, 0, 76, 0
2, 24672, Note_on_c, 0, 74, 75
2, 24702, Note_on_c, 0, 74, 0
2, 24704, Note_on_c, 0, 76, 75
2, 24734, Note_on_c, 0, 76, 0
2, 24736, Note_on_c, 0, 77, 74
2, 24766, Note_on_c, 0, 77, 0
2, 24768, Note_on_c, 0, 71, 74
2, 24798, Note_on_c, 0, 71, 0
2, 24800, Note_on_c, 0, 72, 74
2, 24830, Note_on_c, 0, 72, 0
2, 24832, Note_on_c, 0, 74, 73
2, 24862, Note_on_c, 0, 74, 0
2, 24864, Note_on_c, 0, 72, 73
2, 24894, Note_on_c, 0, 72, 0
2, 24896, Note_on_c, 0, 74, 73
2, 24926, Note_on_c, 0, 74, 0
2, 24928, Note_on_c, 0, 76, 72
2, 24958, Note_on_c, 0, 76, 0
2, 24960, Note_on_c, 0, 70, 72
2, 25152, Note_on_c, 0, 70, 0
2, 25152, Note_on_c, 0, 71, 70
2, 25197, Note_on_c, 0, 71, 0
2, 25200, Note_on_c, 0, 71, 64
2, 25220, Note_on_c, 0, 71, 0
2, 25248, Note_on_c, 0, 71, 64
2, 25268, Note_on_c, 0, 71, 0
2, 25296, Note_on_c, 0, 71, 64
2, 25316, Note_on_c, 0, 71, 0
2, 25344, Note_on_c, 0, 71, 64
2, 25364, Note_on_c, 0, 71, 0
2, 25392, Note_on_c, 0, 71, 64
2, 25412, Note_on_c, 0, 71, 0
2, 25440, Note_on_c, 0, 71, 64
2, 25460, Note_on_c, 0, 71, 0
2, 25488, Note_on_c, 0, 71, 64
2, 25508, Note_on_c, 0, 71, 0
2, 25536, Note_on_c, 0, 72, 64
2, 25556, Note_on_c, 0, 72, 0
2, 25584, Note_on_c, 0, 72, 64
2, 25604, Note_on_c, 0, 72, 0
2, 25632, Note_on_c, 0, 72, 65
2, 25652, Note_on_c, 0, 72, 0
2, 25680, Note_on_c, 0, 72, 65
2, 25700, Note_on_c, 0, 72, 0
2, 25728, Note_on_c, 0, 72, 66
2, 25748, Note_on_c, 0, 72, 0
2, 25776, Note_on_c, 0, 72, 66
2, 25796, Note_on_c, 0, 72, 0
2, 25824, Note_on_c, 0, 72, 67
2, 25844, Note_on_c, 0, 72, 0
2, 25872, Note_on_c, 0, 72, 67
2, 25892, Note_on_c, 0, 72, 0
2, 25920, Note_on_c, 0, 75, 68
2, 25940, Note_on_c, 0, 75, 0
2, 25968, Note_on_c, 0, 75, 68
2, 25988, Note_on_c, 0, 75, 0
2, 26016, Note_on_c, 0, 75, 69
2, 26036, Note_on_c, 0, 75, 0
2, 26064, Note_on_c, 0, 75, 70
2, 26084, Note_on_c, 0, 75, 0
2, 26112, Note_on_c, 0, 76, 70
2, 26132, Note_on_c, 0, 76, 0
2, 26160, Note_on_c, 0, 76, 71
2, 26180, Note_on_c, 0, 76, 0
2, 26208, Note_on_c, 0, 76, 71
2, 26228, Note_on_c, 0, 76, 0
2, 26256, Note_on_c, 0, 76, 72
2, 26276, Note_on_c, 0, 76, 0
2, 26304, Note_on_c, 0, 78, 72
2, 26349, Note_on_c, 0, 78, 0
2, 26352, Note_on_c, 0, 71, 73
2, 26397, Note_on_c, 0, 71, 0
2, 26400, Note_on_c, 0, 78, 73
2, 26445, Note_on_c, 0, 78, 0
2, 26448, Note_on_c, 0, 71, 74
2, 26493, Note_on_c, 0, 71, 0
2, 26496, Note_on_c, 0, 79, 75
2, 26541, Note_on_c, 0, 79, 0
2, 26544, Note_on_c, 0, 71, 75
2, 26589, Note_on_c, 0, 71, 0
2, 26592, Note_on_c, 0, 79, 76
2, 26637, Note_on_c, 0, 79, 0
2, 26640, Note_on_c, 0, 71, 76
2, 26685, Note_on_c, 0, 71, 0
2, 26688, Note_on_c, 0, 80, 77
2, 26688, Note_on_c, 0, 76, 77
2, 26733, Note_on_c, 0, 80, 0
2, 26733, Note_on_c, 0, 76, 0
2, 26736, Note_on_c, 0, 71, 77
2, 26781, Note_on_c, 0, 71, 0
2, 26784, Note_on_c, 0, 80, 78
2, 26784, Note_on_c, 0, 76, 78
2, 26829, Note_on_c, 0, 80, 0
2, 26829, Note_on_c, 0, 76, 0
2, 26832, Note_on_c, 0, 71, 78
2, 26877, Note_on_c, 0, 71, 0
2, 26880, Note_on_c, 0, 81, 79
2, 26880, Note_on_c, 0, 76, 79
2, 26925, Note_on_c, 0, 81, 0
2, 26925, Note_on_c, 0, 76, 0
2, 26928, Note_on_c, 0, 72, 80
2, 26973, Note_on_c, 0, 72, 0
2, 26976, Note_on_c, 0, 81, 64
2, 26976, Note_on_c, 0, 76, 64
2, 27021, Note_on_c, 0, 81, 0
2, 27021, Note_on_c, 0, 76, 0
2, 27024, Note_on_c, 0, 72, 63
2, 27069, Note_on_c, 0, 72, 0
2, 27072, Note_on_c, 0, 82, 62
2, 27072, Note_on_c, 0, 76, 62
2, 27117, Note_on_c, 0, 82, 0
2, 27117, Note_on_c, 0, 76, 0
2, 27120, Note_on_c, 0, 72, 61
2, 27165, Note_on_c, 0, 72, 0
2, 27168, Note_on_c, 0, 82, 60
2, 27168, Note_on_c, 0, 76, 60
2, 27213, Note_on_c, 0, 82, 0
2, 27213, Note_on_c, 0, 76, 0
2, 27216, Note_on_c, 0, 72, 59
2, 27261, Note_on_c, 0, 72, 0
2, 27264, Note_on_c, 0, 83, 58
2, 27264, Note_on_c, 0, 75, 58
2, 27353, Note_on_c, 0, 83, 0
2, 27353, Note_on_c, 0, 75, 0
2, 27648, Note_on_c, 0, 86, 102
2, 27648, Note_on_c, 0, 83, 102
2, 27744, Note_on_c, 0, 86, 0
2, 27744, Note_on_c, 0, 83, 0
2, 27744, Note_on_c, 0, 85, 86
2, 27744, Note_on_c, 0, 81, 86
2, 27783, Note_on_c, 0, 85, 0
2, 27783, Note_on_c, 0, 81, 0
2, 27840, Note_on_c, 0, 84, 102
2, 27840, Note_on_c, 0, 81, 102
2, 27936, Note_on_c, 0, 84, 0
2, 27936, Note_on_c, 0, 81, 0
2, 27936, Note_on_c, 0, 83, 86
2, 27936, Note_on_c, 0, 80, 86
2, 27975, Note_on_c, 0, 83, 0
2, 27975, Note_on_c, 0, 80, 0
2, 28032, Note_on_c, 0, 88, 102
2, 28032, Note_on_c, 0, 85, 102
2, 28128, Note_on_c, 0, 88, 0
2, 28128, Note_on_c, 0, 85, 0
2, 28128, Note_on_c, 0, 87, 86
2, 28128, Note_on_c, 0, 83, 86
2, 28167, Note_on_c, 0, 87, 0
2, 28167, Note_on_c, 0, 83, 0
2, 28224, Note_on_c, 0, 81, 102
2, 28224, Note_on_c, 0, 78, 102
2, 28320, Note_on_c, 0, 81, 0
2, 28320, Note_on_c, 0, 78, 0
2, 28320, Note_on_c, 0, 80, 86
2, 28320, Note_on_c, 0, 76, 86
2, 28335, Note_on_c, 0, 80, 0
2, 28335, Note_on_c, 0, 76, 0
2, 28392, Note_on_c, 0, 81, 86
2, 28404, Note_on_c, 0, 81, 0
2, 28404, Note_on_c, 0, 83, 86
2, 28416, Note_on_c, 0, 83, 0
2, 28416, Note_on_c, 0, 85, 102
2, 28464, Note_on_c, 0, 85, 0
2, 28464, Note_on_c, 0, 83, 86
2, 28484, Note_on_c, 0, 83, 0
2, 28512, Note_on_c, 0, 81, 86
2, 28532, Note_on_c, 0, 81, 0
2, 28560, Note_on_c, 0, 80, 86
2, 28580, Note_on_c, 0, 80, 0
2, 28608, Note_on_c, 0, 78, 86
2, 28628, Note_on_c, 0, 78, 0
2, 28656, Note_on_c, 0, 76, 86
2, 28676, Note_on_c, 0, 76, 0
2, 28704, Note_on_c, 0, 75, 86
2, 28724, Note_on_c, 0, 75, 0
2, 28752, Note_on_c, 0, 73, 86
2, 28772, Note_on_c, 0, 73, 0
2, 28800, Note_on_c, 0, 71, 80
2, 28820, Note_on_c, 0, 71, 0
2, 28848, Note_on_c, 0, 69, 78
2, 28868, Note_on_c, 0, 69, 0
2, 28896, Note_on_c, 0, 68, 77
2, 28916, Note_on_c, 0, 68, 0
2, 28944, Note_on_c, 0, 66, 76
2, 28964, Note_on_c, 0, 66, 0
2, 28992, Note_on_c, 0, 64, 75
2, 29012, Note_on_c, 0, 64, 0
2, 29040, Note_on_c, 0, 63, 73
2, 29060, Note_on_c, 0, 63, 0
2, 29088, Note_on_c, 0, 61, 72
2, 29108, Note_on_c, 0, 61, 0
2, 29136, Note_on_c, 0, 59, 71
2, 29156, Note_on_c, 0, 59, 0
2, 29184, Note_on_c, 0, 72, 64
2, 29184, Note_on_c, 0, 64, 64
2, 29184, Note_on_c, 0, 57, 64
2, 29223, Note_on_c, 0, 72, 0
2, 29223, Note_on_c, 0, 64, 0
2, 29223, Note_on_c, 0, 57, 0
2, 29376, Note_on_c, 0, 63, 64
2, 29376, Note_on_c, 0, 57, 64
2, 29415, Note_on_c, 0, 63, 0
2, 29415, Note_on_c, 0, 57, 0
2, 29568, Note_on_c, 0, 64, 80
2, 29592, Note_on_c, 0, 64, 0
2, 29592, Note_on_c, 0, 59, 80
2, 29615, Note_on_c, 0, 59, 0
2, 29616, Note_on_c, 0, 68, 80
2, 29626, Note_on_c, 0, 68, 0
2, 29640, Note_on_c, 0, 68, 80
2, 29650, Note_on_c, 0, 68, 0
2, 29664, Note_on_c, 0, 68, 80
2, 29688, Note_on_c, 0, 68, 0
2, 29688, Note_on_c, 0, 64, 81
2, 29711, Note_on_c, 0, 64, 0
2, 29712, Note_on_c, 0, 71, 81
2, 29722, Note_on_c, 0, 71, 0
2, 29736, Note_on_c, 0, 71, 81
2, 29746, Note_on_c, 0, 71, 0
2, 29760, Note_on_c, 0, 71, 81
2, 29784, Note_on_c, 0, 71, 0
2, 29784, Note_on_c, 0, 68, 82
2, 29807, Note_on_c, 0, 68, 0
2, 29808, Note_on_c, 0, 76, 82
2, 29818, Note_on_c, 0, 76, 0
2, 29832, Note_on_c, 0, 76, 82
2, 29842, Note_on_c, 0, 76, 0
2, 29856, Note_on_c, 0, 76, 82
2, 29880, Note_on_c, 0, 76, 0
2, 29880, Note_on_c, 0, 71, 83
2, 29903, Note_on_c, 0, 71, 0
2, 29904, Note_on_c, 0, 80, 83
2, 29914, Note_on_c, 0, 80, 0
2, 29928, Note_on_c, 0, 80, 83
2, 29938, Note_on_c, 0, 80, 0
2, 29952, Note_on_c, 0, 80, 83
2, 29976, Note_on_c, 0, 80, 0
2, 29976, Note_on_c, 0, 76, 84
2, 29999, Note_on_c, 0, 76, 0
2, 30000, Note_on_c, 0, 83, 84
2, 30010, Note_on_c, 0, 83, 0
2, 30024, Note_on_c, 0, 83, 84
2, 30034, Note_on_c, 0, 83, 0
2, 30048, Note_on_c, 0, 83, 84
2, 30072, Note_on_c, 0, 83, 0
2, 30072, Note_on_c, 0, 80, 85
2, 30095, Note_on_c, 0, 80, 0
2, 30096, Note_on_c, 0, 88, 85
2, 30106, Note_on_c, 0, 88, 0
2, 30120, Note_on_c, 0, 88, 85
2, 30130, Note_on_c, 0, 88, 0
2, 30144, Note_on_c, 0, 88, 86
2, 30183, Note_on_c, 0, 88, 0
2, 30336, Note_on_c, 0, 87, 70
2, 30359, Note_on_c, 0, 87, 0
2, 30360, Note_on_c, 0, 85, 70
2, 30383, Note_on_c, 0, 85, 0
2, 30384, Note_on_c, 0, 87, 70
2, 30407, Note_on_c, 0, 87, 0
2, 30408, Note_on_c, 0, 83, 70
2, 30431, Note_on_c, 0, 83, 0
2, 30432, Note_on_c, 0, 88, 70
2, 30471, Note_on_c, 0, 88, 0
2, 30720, Note_on_c, 0, 81, 80
2, 30732, Note_on_c, 0, 81, 0
2, 30732, Note_on_c, 0, 83, 80
2, 30744, Note_on_c, 0, 83, 0
2, 30744, Note_on_c, 0, 84, 96
2, 30768, Note_on_c, 0, 84, 0
2, 30768, Note_on_c, 0, 83, 80
2, 30788, Note_on_c, 0, 83, 0
2, 30816, Note_on_c, 0, 81, 80
2, 30836, Note_on_c, 0, 81, 0
2, 30864, Note_on_c, 0, 80, 80
2, 30884, Note_on_c, 0, 80, 0
2, 30912, Note_on_c, 0, 77, 80
2, 30932, Note_on_c, 0, 77, 0
2, 30960, Note_on_c, 0, 76, 80
2, 30980, Note_on_c, 0, 76, 0
2, 31008, Note_on_c, 0, 74, 80
2, 31028, Note_on_c, 0, 74, 0
2, 31056, Note_on_c, 0, 72, 80
2, 31076, Note_on_c, 0, 72, 0
2, 31104, Note_on_c, 0, 71, 80
2, 31124, Note_on_c, 0, 71, 0
2, 31152, Note_on_c, 0, 69, 80
2, 31172, Note_on_c, 0, 69, 0
2, 31200, Note_on_c, 0, 68, 80
2, 31220, Note_on_c, 0, 68, 0
2, 31248, Note_on_c, 0, 65, 80
2, 31268, Note_on_c, 0, 65, 0
2, 31296, Note_on_c, 0, 64, 80
2, 31316, Note_on_c, 0, 64, 0
2, 31344, Note_on_c, 0, 62, 80
2, 31364, Note_on_c, 0, 62, 0
2, 31392, Note_on_c, 0, 60, 80
2, 31412, Note_on_c, 0, 60, 0
2, 31440, Note_on_c, 0, 59, 80
2, 31460, Note_on_c, 0, 59, 0
2, 31488, Note_on_c, 0, 63, 80
2, 31488, Note_on_c, 0, 57, 80
2, 31842, Note_on_c, 0, 63, 0
2, 31842, Note_on_c, 0, 57, 0
2, 31872, Note_on_c, 0, 64, 80
2, 31872, Note_on_c, 0, 56, 80
2, 32049, Note_on_c, 0, 64, 0
2, 32049, Note_on_c, 0, 56, 0
2, 32160, Note_on_c, 0, 64, 70
2, 32160, Note_on_c, 0, 56, 70
2, 32199, Note_on_c, 0, 64, 0
2, 32199, Note_on_c, 0, 56, 0
2, 32256, Note_on_c, 0, 65, 86
2, 32256, Note_on_c, 0, 62, 86
2, 32256, Note_on_c, 0, 59, 86
2, 32448, Note_on_c, 0, 65, 0
2, 32448, Note_on_c, 0, 62, 0
2, 32448, Note_on_c, 0, 59, 0
2, 32544, Note_on_c, 0, 65, 70
2, 32544, Note_on_c, 0, 62, 70
2, 32544, Note_on_c, 0, 59, 70
2, 32583, Note_on_c, 0, 65, 0
2, 32583, Note_on_c, 0, 62, 0
2, 32583, Note_on_c, 0, 59, 0
2, 32640, Note_on_c, 0, 68, 86
2, 32640, Note_on_c, 0, 64, 86
2, 32640, Note_on_c, 0, 59, 86
2, 32832, Note_on_c, 0, 68, 0
2, 32832, Note_on_c, 0, 64, 0
2, 32832, Note_on_c, 0, 59, 0
2, 32928, Note_on_c, 0, 68, 70
2, 32928, Note_on_c, 0, 64, 70
2, 32928, Note_on_c, 0, 59, 70
2, 32967, Note_on_c, 0, 68, 0
2, 32967, Note_on_c, 0, 64, 0
2, 32967, Note_on_c, 0, 59, 0
2, 33024, Note_on_c, 0, 69, 86
2, 33024, Note_on_c, 0, 64, 86
2, 33024, Note_on_c, 0, 60, 86
2, 33216, Note_on_c, 0, 69, 0
2, 33216, Note_on_c, 0, 64, 0
2, 33216, Note_on_c, 0, 60, 0
2, 33312, Note_on_c, 0, 69, 74
2, 33312, Note_on_c, 0, 64, 74
2, 33312, Note_on_c, 0, 60, 74
2, 33351, Note_on_c, 0, 69, 0
2, 33351, Note_on_c, 0, 64, 0
2, 33351, Note_on_c, 0, 60, 0
2, 33408, Note_on_c, 0, 71, 91
2, 33408, Note_on_c, 0, 68, 91
2, 33408, Note_on_c, 0, 62, 91
2, 33600, Note_on_c, 0, 71, 0
2, 33600, Note_on_c, 0, 68, 0
2, 33600, Note_on_c, 0, 62, 0
2, 33696, Note_on_c, 0, 71, 79
2, 33696, Note_on_c, 0, 68, 79
2, 33696, Note_on_c, 0, 62, 79
2, 33735, Note_on_c, 0, 71, 0
2, 33735, Note_on_c, 0, 68, 0
2, 33735, Note_on_c, 0, 62, 0
2, 33792, Note_on_c, 0, 72, 96
2, 33792, Note_on_c, 0, 69, 96
2, 33792, Note_on_c, 0, 64, 96
2, 33984, Note_on_c, 0, 72, 0
2, 33984, Note_on_c, 0, 69, 0
2, 33984, Note_on_c, 0, 64, 0
2, 34080, Note_on_c, 0, 75, 100
2, 34080, Note_on_c, 0, 69, 100
2, 34080, Note_on_c, 0, 66, 100
2, 34119, Note_on_c, 0, 75, 0
2, 34119, Note_on_c, 0, 69, 0
2, 34119, Note_on_c, 0, 66, 0
2, 34176, Note_on_c, 0, 76, 86
2, 34176, Note_on_c, 0, 72, 86
2, 34176, Note_on_c, 0, 69, 86
2, 34176, Note_on_c, 0, 64, 86
2, 34215, Note_on_c, 0, 76, 0
2, 34215, Note_on_c, 0, 72, 0
2, 34215, Note_on_c, 0, 69, 0
2, 34215, Note_on_c, 0, 64, 0
2, 34272, Note_on_c, 0, 72, 86
2, 34272, Note_on_c, 0, 69, 86
2, 34272, Note_on_c, 0, 64, 86
2, 34311, Note_on_c, 0, 72, 0
2, 34311, Note_on_c, 0, 69, 0
2, 34311, Note_on_c, 0, 64, 0
2, 34416, Note_on_c, 0, 69, 86
2, 34461, Note_on_c, 0, 69, 0
2, 34464, Note_on_c, 0, 71, 86
2, 34509, Note_on_c, 0, 71, 0
2, 34512, Note_on_c, 0, 72, 86
2, 34557, Note_on_c, 0, 72, 0
2, 34560, Note_on_c, 0, 74, 86
2, 34560, Note_on_c, 0, 71, 86
2, 34560, Note_on_c, 0, 68, 86
2, 34599, Note_on_c, 0, 74, 0
2, 34599, Note_on_c, 0, 71, 0
2, 34599, Note_on_c, 0, 68, 0
2, 34656, Note_on_c, 0, 71, 86
2, 34656, Note_on_c, 0, 68, 86
2, 34695, Note_on_c, 0, 71, 0
2, 34695, Note_on_c, 0, 68, 0
2, 34800, Note_on_c, 0, 68, 86
2, 34845, Note_on_c, 0, 68, 0
2, 34848, Note_on_c, 0, 69, 86
2, 34893, Note_on_c, 0, 69, 0
2, 34896, Note_on_c, 0, 71, 86
2, 34941, Note_on_c, 0, 71, 0
2, 34944, Note_on_c, 0, 72, 86
2, 34944, Note_on_c, 0, 69, 86
2, 34944, Note_on_c, 0, 64, 86
2, 35033, Note_on_c, 0, 72, 0
2, 35033, Note_on_c, 0, 69, 0
2, 35033, Note_on_c, 0, 64, 0
2, 35040, Note_on_c, 0, 69, 86
2, 35040, Note_on_c, 0, 64, 86
2, 35040, Note_on_c, 0, 60, 86
2, 35129, Note_on_c, 0, 69, 0
2, 35129, Note_on_c, 0, 64, 0
2, 35129, Note_on_c, 0, 60, 0
2, 35232, Note_on_c, 0, 69, 70
2, 35232, Note_on_c, 0, 64, 70
2, 35232, Note_on_c, 0, 60, 70
2, 35271, Note_on_c, 0, 69, 0
2, 35271, Note_on_c, 0, 64, 0
2, 35271, Note_on_c, 0, 60, 0
2, 35328, Note_on_c, 0, 70, 86
2, 35328, Note_on_c, 0, 65, 86
2, 35328, Note_on_c, 0, 62, 86
2, 35520, Note_on_c, 0, 70, 0
2, 35520, Note_on_c, 0, 65, 0
2, 35520, Note_on_c, 0, 62, 0
2, 35616, Note_on_c, 0, 70, 72
2, 35616, Note_on_c, 0, 65, 72
2, 35616, Note_on_c, 0, 62, 72
2, 35655, Note_on_c, 0, 70, 0
2, 35655, Note_on_c, 0, 65, 0
2, 35655, Note_on_c, 0, 62, 0
2, 35712, Note_on_c, 0, 73, 89
2, 35712, Note_on_c, 0, 67, 89
2, 35712, Note_on_c, 0, 64, 89
2, 35904, Note_on_c, 0, 73, 0
2, 35904, Note_on_c, 0, 67, 0
2, 35904, Note_on_c, 0, 64, 0
2, 36000, Note_on_c, 0, 73, 75
2, 36000, Note_on_c, 0, 67, 75
2, 36000, Note_on_c, 0, 64, 75
2, 36039, Note_on_c, 0, 73, 0
2, 36039, Note_on_c, 0, 67, 0
2, 36039, Note_on_c, 0, 64, 0
2, 36096, Note_on_c, 0, 74, 92
2, 36096, Note_on_c, 0, 69, 92
2, 36096, Note_on_c, 0, 65, 92
2, 36288, Note_on_c, 0, 74, 0
2, 36288, Note_on_c, 0, 69, 0
2, 36288, Note_on_c, 0, 65, 0
2, 36384, Note_on_c, 0, 74, 79
2, 36384, Note_on_c, 0, 69, 79
2, 36384, Note_on_c, 0, 65, 79
2, 36423, Note_on_c, 0, 74, 0
2, 36423, Note_on_c, 0, 69, 0
2, 36423, Note_on_c, 0, 65, 0
2, 36480, Note_on_c, 0, 75, 80
2, 36525, Note_on_c, 0, 75, 0
2, 36528, Note_on_c, 0, 82, 80
2, 36573, Note_on_c, 0, 82, 0
2, 36576, Note_on_c, 0, 79, 80
2, 36621, Note_on_c, 0, 79, 0
2, 36624, Note_on_c, 0, 75, 80
2, 36669, Note_on_c, 0, 75, 0
2, 36672, Note_on_c, 0, 73, 80
2, 36672, Note_on_c, 0, 70, 80
2, 36761, Note_on_c, 0, 73, 0
2, 36761, Note_on_c, 0, 70, 0
2, 36912, Note_on_c, 0, 81, 79
2, 36957, Note_on_c, 0, 81, 0
2, 36960, Note_on_c, 0, 77, 78
2, 37005, Note_on_c, 0, 77, 0
2, 37008, Note_on_c, 0, 74, 78
2, 37053, Note_on_c, 0, 74, 0
2, 37056, Note_on_c, 0, 71, 77
2, 37056, Note_on_c, 0, 67, 77
2, 37145, Note_on_c, 0, 71, 0
2, 37145, Note_on_c, 0, 67, 0
2, 37296, Note_on_c, 0, 79, 74
2, 37341, Note_on_c, 0, 79, 0
2, 37344, Note_on_c, 0, 75, 73
2, 37389, Note_on_c, 0, 75, 0
2, 37392, Note_on_c, 0, 72, 72
2, 37437, Note_on_c, 0, 72, 0
2, 37440, Note_on_c, 0, 69, 72
2, 37440, Note_on_c, 0, 66, 72
2, 37529, Note_on_c, 0, 69, 0
2, 37529, Note_on_c, 0, 66, 0
2, 37680, Note_on_c, 0, 77, 68
2, 37725, Note_on_c, 0, 77, 0
2, 37728, Note_on_c, 0, 74, 68
2, 37773, Note_on_c, 0, 74, 0
2, 37776, Note_on_c, 0, 70, 67
2, 37821, Note_on_c, 0, 70, 0
2, 37872, Note_on_c, 0, 79, 66
2, 37917, Note_on_c, 0, 79, 0
2, 37920, Note_on_c, 0, 76, 65
2, 37965, Note_on_c, 0, 76, 0
2, 37968, Note_on_c, 0, 72, 64
2, 38013, Note_on_c, 0, 72, 0
2, 38064, Note_on_c, 0, 81, 66
2, 38109, Note_on_c, 0, 81, 0
2, 38112, Note_on_c, 0, 77, 68
2, 38157, Note_on_c, 0, 77, 0
2, 38160, Note_on_c, 0, 72, 70
2, 38205, Note_on_c, 0, 72, 0
2, 38256, Note_on_c, 0, 82, 74
2, 38301, Note_on_c, 0, 82, 0
2, 38304, Note_on_c, 0, 79, 76
2, 38349, Note_on_c, 0, 79, 0
2, 38352, Note_on_c, 0, 76, 78
2, 38397, Note_on_c, 0, 76, 0
2, 38400, Note_on_c, 0, 84, 80
2, 38400, Note_on_c, 0, 81, 80
2, 38439, Note_on_c, 0, 84, 0
2, 38439, Note_on_c, 0, 81, 0
2, 38496, Note_on_c, 0, 81, 80
2, 38496, Note_on_c, 0, 77, 80
2, 38535, Note_on_c, 0, 81, 0
2, 38535, Note_on_c, 0, 77, 0
2, 38784, Note_on_c, 0, 86, 80
2, 38784, Note_on_c, 0, 82, 80
2, 38823, Note_on_c, 0, 86, 0
2, 38823, Note_on_c, 0, 82, 0
2, 38880, Note_on_c, 0, 82, 80
2, 38880, Note_on_c, 0, 79, 80
2, 38919, Note_on_c, 0, 82, 0
2, 38919, Note_on_c, 0, 79, 0
2, 39168, Note_on_c, 0, 84, 80
2, 39168, Note_on_c, 0, 81, 80
2, 39207, Note_on_c, 0, 84, 0
2, 39207, Note_on_c, 0, 81, 0
2, 39264, Note_on_c, 0, 81, 80
2, 39264, Note_on_c, 0, 77, 80
2, 39303, Note_on_c, 0, 81, 0
2, 39303, Note_on_c, 0, 77, 0
2, 39552, Note_on_c, 0, 72, 64
2, 39552, Note_on_c, 0, 69, 64
2, 39591, Note_on_c, 0, 72, 0
2, 39591, Note_on_c, 0, 69, 0
2, 39648, Note_on_c, 0, 69, 66
2, 39648, Note_on_c, 0, 66, 66
2, 39687, Note_on_c, 0, 69, 0
2, 39687, Note_on_c, 0, 66, 0
2, 39744, Note_on_c, 0, 78, 69
2, 39744, Note_on_c, 0, 75, 69
2, 39783, Note_on_c, 0, 78, 0
2, 39783, Note_on_c, 0, 75, 0
2, 39840, Note_on_c, 0, 75, 72
2, 39840, Note_on_c, 0, 72, 72
2, 39879, Note_on_c, 0, 75, 0
2, 39879, Note_on_c, 0, 72, 0
2, 39936, Note_on_c, 0, 81, 74
2, 39936, Note_on_c, 0, 78, 74
2, 39975, Note_on_c, 0, 81, 0
2, 39975, Note_on_c, 0, 78, 0
2, 40032, Note_on_c, 0, 78, 77
2, 40032, Note_on_c, 0, 75, 77
2, 40071, Note_on_c, 0, 78, 0
2, 40071, Note_on_c, 0, 75, 0
2, 40320, Note_on_c, 0, 68, 80
2, 40320, Note_on_c, 0, 65, 80
2, 40359, Note_on_c, 0, 68, 0
2, 40359, Note_on_c, 0, 65, 0
2, 40416, Note_on_c, 0, 65, 77
2, 40416, Note_on_c, 0, 62, 77
2, 40455, Note_on_c, 0, 65, 0
2, 40455, Note_on_c, 0, 62, 0
2, 40512, Note_on_c, 0, 74, 74
2, 40512, Note_on_c, 0, 71, 74
2, 40551, Note_on_c, 0, 74, 0
2, 40551, Note_on_c, 0, 71, 0
2, 40608, Note_on_c, 0, 71, 72
2, 40608, Note_on_c, 0, 68, 72
2, 40647, Note_on_c, 0, 71, 0
2, 40647, Note_on_c, 0, 68, 0
2, 40704, Note_on_c, 0, 77, 69
2, 40704, Note_on_c, 0, 74, 69
2, 40743, Note_on_c, 0, 77, 0
2, 40743, Note_on_c, 0, 74, 0
2, 40800, Note_on_c, 0, 74, 66
2, 40800, Note_on_c, 0, 71, 66
2, 40839, Note_on_c, 0, 74, 0
2, 40839, Note_on_c, 0, 71, 0
2, 41088, Note_on_c, 0, 64, 75
2, 41088, Note_on_c, 0, 61, 75
2, 41127, Note_on_c, 0, 64, 0
2, 41127, Note_on_c, 0, 61, 0
2, 41184, Note_on_c, 0, 61, 75
2, 41184, Note_on_c, 0, 57, 75
2, 41223, Note_on_c, 0, 61, 0
2, 41223, Note_on_c, 0, 57, 0
2, 41472, Note_on_c, 0, 66, 75
2, 41472, Note_on_c, 0, 62, 75
2, 41511, Note_on_c, 0, 66, 0
2, 41511, Note_on_c, 0, 62, 0
2, 41568, Note_on_c, 0, 62, 75
2, 41568, Note_on_c, 0, 59, 75
2, 41607, Note_on_c, 0, 62, 0
2, 41607, Note_on_c, 0, 59, 0
2, 41856, Note_on_c, 0, 67, 75
2, 41856, Note_on_c, 0, 64, 75
2, 41895, Note_on_c, 0, 67, 0
2, 41895, Note_on_c, 0, 64, 0
2, 41952, Note_on_c, 0, 64, 75
2, 41952, Note_on_c, 0, 61, 75
2, 41991, Note_on_c, 0, 64, 0
2, 41991, Note_on_c, 0, 61, 0
2, 42144, Note_on_c, 0, 64, 75
2, 42144, Note_on_c, 0, 61, 75
2, 42211, Note_on_c, 0, 64, 0
2, 42211, Note_on_c, 0, 61, 0
2, 42216, Note_on_c, 0, 66, 75
2, 42216, Note_on_c, 0, 62, 75
2, 42239, Note_on_c, 0, 66, 0
2, 42239, Note_on_c, 0, 62, 0
2, 42240, Note_on_c, 0, 67, 75
2, 42240, Note_on_c, 0, 64, 75
2, 42307, Note_on_c, 0, 67, 0
2, 42307, Note_on_c, 0, 64, 0
2, 42312, Note_on_c, 0, 69, 75
2, 42312, Note_on_c, 0, 66, 75
2, 42322, Note_on_c, 0, 69, 0
2, 42322, Note_on_c, 0, 66, 0
2, 42336, Note_on_c, 0, 67, 75
2, 42336, Note_on_c, 0, 64, 75
2, 42403, Note_on_c, 0, 67, 0
2, 42403, Note_on_c, 0, 64, 0
2, 42408, Note_on_c, 0, 67, 75
2, 42408, Note_on_c, 0, 64, 75
2, 42431, Note_on_c, 0, 67, 0
2, 42431, Note_on_c, 0, 64, 0
2, 42432, Note_on_c, 0, 76, 91
2, 42464, Note_on_c, 0, 76, 0
2, 42464, Note_on_c, 0, 74, 75
2, 42494, Note_on_c, 0, 74, 0
2, 42496, Note_on_c, 0, 73, 76
2, 42526, Note_on_c, 0, 73, 0
2, 42528, Note_on_c, 0, 71, 77
2, 42558, Note_on_c, 0, 71, 0
2, 42560, Note_on_c, 0, 69, 78
2, 42590, Note_on_c, 0, 69, 0
2, 42592, Note_on_c, 0, 67, 78
2, 42622, Note_on_c, 0, 67, 0
2, 42624, Note_on_c, 0, 67, 79
2, 42624, Note_on_c, 0, 64, 79
2, 42816, Note_on_c, 0, 67, 0
2, 42816, Note_on_c, 0, 64, 0
2, 42816, Note_on_c, 0, 66, 76
2, 42816, Note_on_c, 0, 62, 76
2, 42905, Note_on_c, 0, 66, 0
2, 42905, Note_on_c, 0, 62, 0
2, 43008, Note_on_c, 0, 59, 75
2, 43267, Note_on_c, 0, 59, 0
2, 43272, Note_on_c, 0, 59, 75
2, 43295, Note_on_c, 0, 59, 0
2, 43296, Note_on_c, 0, 67, 75
2, 43363, Note_on_c, 0, 67, 0
2, 43368, Note_on_c, 0, 64, 75
2, 43391, Note_on_c, 0, 64, 0
2, 43392, Note_on_c, 0, 62, 75
2, 43410, Note_on_c, 0, 62, 0
2, 43410, Note_on_c, 0, 61, 75
2, 43428, Note_on_c, 0, 61, 0
2, 43428, Note_on_c, 0, 62, 75
2, 43584, Note_on_c, 0, 62, 0
2, 43584, Note_on_c, 0, 61, 75
2, 43673, Note_on_c, 0, 61, 0
2, 43680, Note_on_c, 0, 73, 75
2, 43703, Note_on_c, 0, 73, 0
2, 43704, Note_on_c, 0, 71, 75
2, 43727, Note_on_c, 0, 71, 0
2, 43728, Note_on_c, 0, 69, 75
2, 43751, Note_on_c, 0, 69, 0
2, 43752, Note_on_c, 0, 67, 75
2, 43775, Note_on_c, 0, 67, 0
2, 43776, Note_on_c, 0, 66, 75
2, 43968, Note_on_c, 0, 66, 0
2, 43968, Note_on_c, 0, 64, 75
2, 43998, Note_on_c, 0, 64, 0
2, 44000, Note_on_c, 0, 73, 75
2, 44030, Note_on_c, 0, 73, 0
2, 44032, Note_on_c, 0, 74, 75
2, 44062, Note_on_c, 0, 74, 0
2, 44064, Note_on_c, 0, 76, 75
2, 44094, Note_on_c, 0, 76, 0
2, 44096, Note_on_c, 0, 73, 75
2, 44126, Note_on_c, 0, 73, 0
2, 44128, Note_on_c, 0, 67, 75
2, 44158, Note_on_c, 0, 67, 0
2, 44160, Note_on_c, 0, 66, 75
2, 44190, Note_on_c, 0, 66, 0
2, 44192, Note_on_c, 0, 74, 75
2, 44222, Note_on_c, 0, 74, 0
2, 44224, Note_on_c, 0, 69, 75
2, 44254, Note_on_c, 0, 69, 0
2, 44256, Note_on_c, 0, 71, 75
2, 44286, Note_on_c, 0, 71, 0
2, 44288, Note_on_c, 0, 67, 75
2, 44318, Note_on_c, 0, 67, 0
2, 44320, Note_on_c, 0, 64, 75
2, 44350, Note_on_c, 0, 64, 0
2, 44352, Note_on_c, 0, 62, 75
2, 44352, Note_on_c, 0, 54, 75
2, 44448, Note_on_c, 0, 62, 0
2, 44448, Note_on_c, 0, 54, 0
2, 44448, Note_on_c, 0, 61, 75
2, 44448, Note_on_c, 0, 52, 75
2, 44515, Note_on_c, 0, 61, 0
2, 44515, Note_on_c, 0, 52, 0
2, 44544, Note_on_c, 0, 71, 64
2, 44562, Note_on_c, 0, 71, 0
2, 44562, Note_on_c, 0, 72, 64
2, 44580, Note_on_c, 0, 72, 0
2, 44580, Note_on_c, 0, 74, 64
2, 44598, Note_on_c, 0, 74, 0
2, 44598, Note_on_c, 0, 72, 80
2, 44781, Note_on_c, 0, 72, 0
2, 44784, Note_on_c, 0, 72, 71
2, 44829, Note_on_c, 0, 72, 0
2, 44832, Note_on_c, 0, 71, 73
2, 44877, Note_on_c, 0, 71, 0
2, 44880, Note_on_c, 0, 69, 75
2, 44925, Note_on_c, 0, 69, 0
2, 44928, Note_on_c, 0, 68, 89
2, 45072, Note_on_c, 0, 68, 0
2, 45072, Note_on_c, 0, 69, 68
2, 45095, Note_on_c, 0, 69, 0
2, 45096, Note_on_c, 0, 71, 67
2, 45119, Note_on_c, 0, 71, 0
2, 45120, Note_on_c, 0, 69, 67
2, 45209, Note_on_c, 0, 69, 0
2, 45312, Note_on_c, 0, 69, 64
2, 45330, Note_on_c, 0, 69, 0
2, 45330, Note_on_c, 0, 70, 64
2, 45348, Note_on_c, 0, 70, 0
2, 45348, Note_on_c, 0, 72, 64
2, 45366, Note_on_c, 0, 72, 0
2, 45366, Note_on_c, 0, 70, 80
2, 45549, Note_on_c, 0, 70, 0
2, 45552, Note_on_c, 0, 70, 71
2, 45597, Note_on_c, 0, 70, 0
2, 45600, Note_on_c, 0, 69, 73
2, 45645, Note_on_c, 0, 69, 0
2, 45648, Note_on_c, 0, 67, 75
2, 45693, Note_on_c, 0, 67, 0
2, 45696, Note_on_c, 0, 66, 89
2, 45840, Note_on_c, 0, 66, 0
2, 45840, Note_on_c, 0, 67, 67
2, 45863, Note_on_c, 0, 67, 0
2, 45864, Note_on_c, 0, 69, 66
2, 45887, Note_on_c, 0, 69, 0
2, 45888, Note_on_c, 0, 67, 65
2, 45933, Note_on_c, 0, 67, 0
2, 45936, Note_on_c, 0, 79, 80
2, 45936, Note_on_c, 0, 74, 80
2, 45936, Note_on_c, 0, 71, 80
2, 45956, Note_on_c, 0, 79, 0
2, 45956, Note_on_c, 0, 74, 0
2, 45956, Note_on_c, 0, 71, 0
2, 45984, Note_on_c, 0, 78, 65
2, 45984, Note_on_c, 0, 73, 65
2, 45984, Note_on_c, 0, 69, 65
2, 46004, Note_on_c, 0, 78, 0
2, 46004, Note_on_c, 0, 73, 0
2, 46004, Note_on_c, 0, 69, 0
2, 46032, Note_on_c, 0, 76, 66
2, 46032, Note_on_c, 0, 71, 66
2, 46032, Note_on_c, 0, 67, 66
2, 46052, Note_on_c, 0, 76, 0
2, 46052, Note_on_c, 0, 71, 0
2, 46052, Note_on_c, 0, 67, 0
2, 46080, Note_on_c, 0, 74, 68
2, 46080, Note_on_c, 0, 69, 68
2, 46080, Note_on_c, 0, 66, 68
2, 46100, Note_on_c, 0, 74, 0
2, 46100, Note_on_c, 0, 69, 0
2, 46100, Note_on_c, 0, 66, 0
2, 46128, Note_on_c, 0, 73, 69
2, 46128, Note_on_c, 0, 68, 69
2, 46128, Note_on_c, 0, 64, 69
2, 46148, Note_on_c, 0, 73, 0
2, 46148, Note_on_c, 0, 68, 0
2, 46148, Note_on_c, 0, 64, 0
2, 46176, Note_on_c, 0, 71, 71
2, 46176, Note_on_c, 0, 66, 71
2, 46176, Note_on_c, 0, 62, 71
2, 46196, Note_on_c, 0, 71, 0
2, 46196, Note_on_c, 0, 66, 0
2, 46196, Note_on_c, 0, 62, 0
2, 46224, Note_on_c, 0, 69, 72
2, 46224, Note_on_c, 0, 64, 72
2, 46224, Note_on_c, 0, 61, 72
2, 46244, Note_on_c, 0, 69, 0
2, 46244, Note_on_c, 0, 64, 0
2, 46244, Note_on_c, 0, 61, 0
2, 46272, Note_on_c, 0, 67, 74
2, 46272, Note_on_c, 0, 62, 74
2, 46272, Note_on_c, 0, 59, 74
2, 46292, Note_on_c, 0, 67, 0
2, 46292, Note_on_c, 0, 62, 0
2, 46292, Note_on_c, 0, 59, 0
2, 46320, Note_on_c, 0, 66, 75
2, 46320, Note_on_c, 0, 61, 75
2, 46320, Note_on_c, 0, 57, 75
2, 46340, Note_on_c, 0, 66, 0
2, 46340, Note_on_c, 0, 61, 0
2, 46340, Note_on_c, 0, 57, 0
2, 46368, Note_on_c, 0, 64, 77
2, 46368, Note_on_c, 0, 59, 77
2, 46368, Note_on_c, 0, 55, 77
2, 46388, Note_on_c, 0, 64, 0
2, 46388, Note_on_c, 0, 59, 0
2, 46388, Note_on_c, 0, 55, 0
2, 46416, Note_on_c, 0, 62, 78
2, 46416, Note_on_c, 0, 57, 78
2, 46416, Note_on_c, 0, 54, 78
2, 46436, Note_on_c, 0, 62, 0
2, 46436, Note_on_c, 0, 57, 0
2, 46436, Note_on_c, 0, 54, 0
2, 46464, Note_on_c, 0, 68, 80
2, 46487, Note_on_c, 0, 68, 0
2, 46488, Note_on_c, 0, 69, 80
2, 46511, Note_on_c, 0, 69, 0
2, 46512, Note_on_c, 0, 68, 80
2, 46535, Note_on_c, 0, 68, 0
2, 46536, Note_on_c, 0, 69, 80
2, 46559, Note_on_c, 0, 69, 0
2, 46560, Note_on_c, 0, 57, 80
2, 46599, Note_on_c, 0, 57, 0
2, 46848, Note_on_c, 0, 75, 64
2, 46868, Note_on_c, 0, 75, 0
2, 46896, Note_on_c, 0, 78, 64
2, 46919, Note_on_c, 0, 78, 0
2, 46920, Note_on_c, 0, 76, 64
2, 46943, Note_on_c, 0, 76, 0
2, 46944, Note_on_c, 0, 75, 64
2, 46967, Note_on_c, 0, 75, 0
2, 46968, Note_on_c, 0, 76, 64
2, 46991, Note_on_c, 0, 76, 0
2, 46992, Note_on_c, 0, 76, 64
2, 47012, Note_on_c, 0, 76, 0
2, 47232, Note_on_c, 0, 57, 80
2, 47262, Note_on_c, 0, 57, 0
2, 47264, Note_on_c, 0, 64, 80
2, 47294, Note_on_c, 0, 64, 0
2, 47296, Note_on_c, 0, 61, 80
2, 47326, Note_on_c, 0, 61, 0
2, 47328, Note_on_c, 0, 69, 81
2, 47358, Note_on_c, 0, 69, 0
2, 47360, Note_on_c, 0, 64, 81
2, 47390, Note_on_c, 0, 64, 0
2, 47392, Note_on_c, 0, 73, 82
2, 47422, Note_on_c, 0, 73, 0
2, 47424, Note_on_c, 0, 69, 82
2, 47454, Note_on_c, 0, 69, 0
2, 47456, Note_on_c, 0, 76, 83
2, 47486, Note_on_c, 0, 76, 0
2, 47488, Note_on_c, 0, 73, 83
2, 47518, Note_on_c, 0, 73, 0
2, 47520, Note_on_c, 0, 81, 84
2, 47550, Note_on_c, 0, 81, 0
2, 47552, Note_on_c, 0, 76, 84
2, 47582, Note_on_c, 0, 76, 0
2, 47584, Note_on_c, 0, 85, 85
2, 47614, Note_on_c, 0, 85, 0
2, 47616, Note_on_c, 0, 83, 101
2, 47648, Note_on_c, 0, 83, 0
2, 47648, Note_on_c, 0, 81, 85
2, 47678, Note_on_c, 0, 81, 0
2, 47680, Note_on_c, 0, 80, 85
2, 47710, Note_on_c, 0, 80, 0
2, 47712, Note_on_c, 0, 78, 84
2, 47742, Note_on_c, 0, 78, 0
2, 47744, Note_on_c, 0, 76, 84
2, 47774, Note_on_c, 0, 76, 0
2, 47776, Note_on_c, 0, 74, 84
2, 47806, Note_on_c, 0, 74, 0
2, 47808, Note_on_c, 0, 73, 83
2, 47838, Note_on_c, 0, 73, 0
2, 47840, Note_on_c, 0, 71, 83
2, 47870, Note_on_c, 0, 71, 0
2, 47872, Note_on_c, 0, 69, 82
2, 47902, Note_on_c, 0, 69, 0
2, 47904, Note_on_c, 0, 68, 82
2, 47934, Note_on_c, 0, 68, 0
2, 47936, Note_on_c, 0, 66, 81
2, 47966, Note_on_c, 0, 66, 0
2, 47968, Note_on_c, 0, 64, 81
2, 47998, Note_on_c, 0, 64, 0
2, 48000, Note_on_c, 0, 62, 80
2, 48000, Note_on_c, 0, 59, 80
2, 48000, Note_on_c, 0, 56, 80
2, 48265, Note_on_c, 0, 62, 0
2, 48265, Note_on_c, 0, 59, 0
2, 48265, Note_on_c, 0, 56, 0
2, 48512, Note_on_c, 0, 68, 80
2, 48542, Note_on_c, 0, 68, 0
2, 48544, Note_on_c, 0, 71, 80
2, 48574, Note_on_c, 0, 71, 0
2, 48576, Note_on_c, 0, 68, 80
2, 48606, Note_on_c, 0, 68, 0
2, 48608, Note_on_c, 0, 74, 80
2, 48638, Note_on_c, 0, 74, 0
2, 48640, Note_on_c, 0, 71, 80
2, 48670, Note_on_c, 0, 71, 0
2, 48672, Note_on_c, 0, 80, 76
2, 48702, Note_on_c, 0, 80, 0
2, 48704, Note_on_c, 0, 74, 72
2, 48734, Note_on_c, 0, 74, 0
2, 48736, Note_on_c, 0, 83, 69
2, 48766, Note_on_c, 0, 83, 0
2, 48768, Note_on_c, 0, 82, 80
2, 48798, Note_on_c, 0, 82, 0
2, 48800, Note_on_c, 0, 83, 79
2, 48830, Note_on_c, 0, 83, 0
2, 48832, Note_on_c, 0, 85, 79
2, 48862, Note_on_c, 0, 85, 0
2, 48864, Note_on_c, 0, 83, 78
2, 48894, Note_on_c, 0, 83, 0
2, 48896, Note_on_c, 0, 85, 78
2, 48926, Note_on_c, 0, 85, 0
2, 48928, Note_on_c, 0, 86, 78
2, 48958, Note_on_c, 0, 86, 0
2, 48960, Note_on_c, 0, 80, 77
2, 48990, Note_on_c, 0, 80, 0
2, 48992, Note_on_c, 0, 81, 77
2, 49022, Note_on_c, 0, 81, 0
2, 49024, Note_on_c, 0, 83, 76
2, 49054, Note_on_c, 0, 83, 0
2, 49056, Note_on_c, 0, 81, 76
2, 49086, Note_on_c, 0, 81, 0
2, 49088, Note_on_c, 0, 83, 76
2, 49118, Note_on_c, 0, 83, 0
2, 49120, Note_on_c, 0, 85, 75
2, 49150, Note_on_c, 0, 85, 0
2, 49152, Note_on_c, 0, 78, 75
2, 49182, Note_on_c, 0, 78, 0
2, 49184, Note_on_c, 0, 80, 74
2, 49214, Note_on_c, 0, 80, 0
2, 49216, Note_on_c, 0, 81, 74
2, 49246, Note_on_c, 0, 81, 0
2, 49248, Note_on_c, 0, 80, 74
2, 49278, Note_on_c, 0, 80, 0
2, 49280, Note_on_c, 0, 81, 73
2, 49310, Note_on_c, 0, 81, 0
2, 49312, Note_on_c, 0, 83, 73
2, 49342, Note_on_c, 0, 83, 0
2, 49344, Note_on_c, 0, 77, 72
2, 49374, Note_on_c, 0, 77, 0
2, 49376, Note_on_c, 0, 78, 72
2, 49406, Note_on_c, 0, 78, 0
2, 49408, Note_on_c, 0, 80, 72
2, 49438, Note_on_c, 0, 80, 0
2, 49440, Note_on_c, 0, 78, 71
2, 49470, Note_on_c, 0, 78, 0
2, 49472, Note_on_c, 0, 80, 71
2, 49502, Note_on_c, 0, 80, 0
2, 49504, Note_on_c, 0, 81, 71
2, 49534, Note_on_c, 0, 81, 0
2, 49536, Note_on_c, 0, 76, 70
2, 49555, Note_on_c, 0, 76, 0
2, 49556, Note_on_c, 0, 75, 70
2, 49575, Note_on_c, 0, 75, 0
2, 49576, Note_on_c, 0, 76, 70
2, 49594, Note_on_c, 0, 76, 0
2, 49595, Note_on_c, 0, 75, 70
2, 49613, Note_on_c, 0, 75, 0
2, 49614, Note_on_c, 0, 76, 70
2, 49632, Note_on_c, 0, 76, 0
2, 49633, Note_on_c, 0, 75, 70
2, 49651, Note_on_c, 0, 75, 0
2, 49652, Note_on_c, 0, 76, 70
2, 49670, Note_on_c, 0, 76, 0
2, 49671, Note_on_c, 0, 75, 70
2, 49689, Note_on_c, 0, 75, 0
2, 49690, Note_on_c, 0, 73, 70
2, 49708, Note_on_c, 0, 73, 0
2, 49709, Note_on_c, 0, 75, 70
2, 49728, Note_on_c, 0, 75, 0
2, 49728, Note_on_c, 0, 76, 70
2, 49773, Note_on_c, 0, 76, 0
2, 49776, Note_on_c, 0, 76, 64
2, 49796, Note_on_c, 0, 76, 0
2, 49824, Note_on_c, 0, 76, 64
2, 49844, Note_on_c, 0, 76, 0
2, 49872, Note_on_c, 0, 76, 64
2, 49892, Note_on_c, 0, 76, 0
2, 49920, Note_on_c, 0, 76, 64
2, 49940, Note_on_c, 0, 76, 0
2, 49968, Note_on_c, 0, 76, 64
2, 49988, Note_on_c, 0, 76, 0
2, 50016, Note_on_c, 0, 76, 64
2, 50036, Note_on_c, 0, 76, 0
2, 50064, Note_on_c, 0, 76, 64
2, 50084, Note_on_c, 0, 76, 0
2, 50112, Note_on_c, 0, 77, 64
2, 50132, Note_on_c, 0, 77, 0
2, 50160, Note_on_c, 0, 77, 64
2, 50180, Note_on_c, 0, 77, 0
2, 50208, Note_on_c, 0, 77, 65
2, 50228, Note_on_c, 0, 77, 0
2, 50256, Note_on_c, 0, 77, 66
2, 50276, Note_on_c, 0, 77, 0
2, 50304, Note_on_c, 0, 77, 66
2, 50324, Note_on_c, 0, 77, 0
2, 50352, Note_on_c, 0, 77, 67
2, 50372, Note_on_c, 0, 77, 0
2, 50400, Note_on_c, 0, 77, 68
2, 50420, Note_on_c, 0, 77, 0
2, 50448, Note_on_c, 0, 77, 68
2, 50468, Note_on_c, 0, 77, 0
2, 50496, Note_on_c, 0, 80, 69
2, 50496, Note_on_c, 0, 74, 69
2, 50496, Note_on_c, 0, 71, 69
2, 50516, Note_on_c, 0, 80, 0
2, 50516, Note_on_c, 0, 74, 0
2, 50516, Note_on_c, 0, 71, 0
2, 50544, Note_on_c, 0, 80, 70
2, 50544, Note_on_c, 0, 74, 70
2, 50544, Note_on_c, 0, 71, 70
2, 50564, Note_on_c, 0, 80, 0
2, 50564, Note_on_c, 0, 74, 0
2, 50564, Note_on_c, 0, 71, 0
2, 50592, Note_on_c, 0, 80, 70
2, 50592, Note_on_c, 0, 74, 70
2, 50592, Note_on_c, 0, 71, 70
2, 50612, Note_on_c, 0, 80, 0
2, 50612, Note_on_c, 0, 74, 0
2, 50612, Note_on_c, 0, 71, 0
2, 50640, Note_on_c, 0, 80, 71
2, 50640, Note_on_c, 0, 74, 71
2, 50640, Note_on_c, 0, 71, 71
2, 50660, Note_on_c, 0, 80, 0
2, 50660, Note_on_c, 0, 74, 0
2, 50660, Note_on_c, 0, 71, 0
2, 50688, Note_on_c, 0, 81, 72
2, 50688, Note_on_c, 0, 76, 72
2, 50688, Note_on_c, 0, 69, 72
2, 50708, Note_on_c, 0, 81, 0
2, 50708, Note_on_c, 0, 76, 0
2, 50708, Note_on_c, 0, 69, 0
2, 50736, Note_on_c, 0, 81, 72
2, 50736, Note_on_c, 0, 76, 72
2, 50736, Note_on_c, 0, 69, 72
2, 50756, Note_on_c, 0, 81, 0
2, 50756, Note_on_c, 0, 76, 0
2, 50756, Note_on_c, 0, 69, 0
2, 50784, Note_on_c, 0, 81, 73
2, 50784, Note_on_c, 0, 76, 73
2, 50784, Note_on_c, 0, 69, 73
2, 50804, Note_on_c, 0, 81, 0
2, 50804, Note_on_c, 0, 76, 0
2, 50804, Note_on_c, 0, 69, 0
2, 50832, Note_on_c, 0, 81, 74
2, 50832, Note_on_c, 0, 76, 74
2, 50832, Note_on_c, 0, 69, 74
2, 50852, Note_on_c, 0, 81, 0
2, 50852, Note_on_c, 0, 76, 0
2, 50852, Note_on_c, 0, 69, 0
2, 50880, Note_on_c, 0, 74, 74
2, 50880, Note_on_c, 0, 71, 74
2, 50880, Note_on_c, 0, 68, 74
2, 50900, Note_on_c, 0, 74, 0
2, 50900, Note_on_c, 0, 71, 0
2, 50900, Note_on_c, 0, 68, 0
2, 50928, Note_on_c, 0, 74, 75
2, 50928, Note_on_c, 0, 71, 75
2, 50928, Note_on_c, 0, 68, 75
2, 50948, Note_on_c, 0, 74, 0
2, 50948, Note_on_c, 0, 71, 0
2, 50948, Note_on_c, 0, 68, 0
2, 50976, Note_on_c, 0, 74, 76
2, 50976, Note_on_c, 0, 71, 76
2, 50976, Note_on_c, 0, 68, 76
2, 50996, Note_on_c, 0, 74, 0
2, 50996, Note_on_c, 0, 71, 0
2, 50996, Note_on_c, 0, 68, 0
2, 51024, Note_on_c, 0, 74, 76
2, 51024, Note_on_c, 0, 71, 76
2, 51024, Note_on_c, 0, 68, 76
2, 51044, Note_on_c, 0, 74, 0
2, 51044, Note_on_c, 0, 71, 0
2, 51044, Note_on_c, 0, 68, 0
2, 51072, Note_on_c, 0, 72, 77
2, 51072, Note_on_c, 0, 71, 77
2, 51092, Note_on_c, 0, 72, 0
2, 51092, Note_on_c, 0, 71, 0
2, 51120, Note_on_c, 0, 72, 78
2, 51120, Note_on_c, 0, 71, 78
2, 51140, Note_on_c, 0, 72, 0
2, 51140, Note_on_c, 0, 71, 0
2, 51168, Note_on_c, 0, 72, 78
2, 51168, Note_on_c, 0, 69, 78
2, 51188, Note_on_c, 0, 72, 0
2, 51188, Note_on_c, 0, 69, 0
2, 51216, Note_on_c, 0, 72, 79
2, 51216, Note_on_c, 0, 69, 79
2, 51236, Note_on_c, 0, 72, 0
2, 51236, Note_on_c, 0, 69, 0
2, 51264, Note_on_c, 0, 75, 80
2, 51264, Note_on_c, 0, 72, 80
2, 51264, Note_on_c, 0, 69, 80
2, 51284, Note_on_c, 0, 75, 0
2, 51284, Note_on_c, 0, 72, 0
2, 51284, Note_on_c, 0, 69, 0
2, 51312, Note_on_c, 0, 75, 77
2, 51312, Note_on_c, 0, 72, 77
2, 51312, Note_on_c, 0, 69, 77
2, 51332, Note_on_c, 0, 75, 0
2, 51332, Note_on_c, 0, 72, 0
2, 51332, Note_on_c, 0, 69, 0
2, 51360, Note_on_c, 0, 75, 74
2, 51360, Note_on_c, 0, 72, 74
2, 51360, Note_on_c, 0, 69, 74
2, 51380, Note_on_c, 0, 75, 0
2, 51380, Note_on_c, 0, 72, 0
2, 51380, Note_on_c, 0, 69, 0
2, 51408, Note_on_c, 0, 75, 72
2, 51408, Note_on_c, 0, 72, 72
2, 51408, Note_on_c, 0, 69, 72
2, 51428, Note_on_c, 0, 75, 0
2, 51428, Note_on_c, 0, 72, 0
2, 51428, Note_on_c, 0, 69, 0
2, 51456, Note_on_c, 0, 76, 69
2, 51456, Note_on_c, 0, 71, 69
2, 51456, Note_on_c, 0, 68, 69
2, 51545, Note_on_c, 0, 76, 0
2, 51545, Note_on_c, 0, 71, 0
2, 51545, Note_on_c, 0, 68, 0
2, 51840, Note_on_c, 0, 67, 96
2, 51840, Note_on_c, 0, 64, 96
2, 51936, Note_on_c, 0, 67, 0
2, 51936, Note_on_c, 0, 64, 0
2, 51936, Note_on_c, 0, 66, 80
2, 51936, Note_on_c, 0, 62, 80
2, 51975, Note_on_c, 0, 66, 0
2, 51975, Note_on_c, 0, 62, 0
2, 52032, Note_on_c, 0, 65, 96
2, 52032, Note_on_c, 0, 62, 96
2, 52128, Note_on_c, 0, 65, 0
2, 52128, Note_on_c, 0, 62, 0
2, 52128, Note_on_c, 0, 64, 80
2, 52128, Note_on_c, 0, 61, 80
2, 52167, Note_on_c, 0, 64, 0
2, 52167, Note_on_c, 0, 61, 0
2, 52224, Note_on_c, 0, 81, 96
2, 52224, Note_on_c, 0, 78, 96
2, 52320, Note_on_c, 0, 81, 0
2, 52320, Note_on_c, 0, 78, 0
2, 52320, Note_on_c, 0, 80, 80
2, 52320, Note_on_c, 0, 76, 80
2, 52359, Note_on_c, 0, 80, 0
2, 52359, Note_on_c, 0, 76, 0
2, 52416, Note_on_c, 0, 74, 96
2, 52416, Note_on_c, 0, 71, 96
2, 52512, Note_on_c, 0, 74, 0
2, 52512, Note_on_c, 0, 71, 0
2, 52512, Note_on_c, 0, 73, 80
2, 52512, Note_on_c, 0, 69, 80
2, 52527, Note_on_c, 0, 73, 0
2, 52527, Note_on_c, 0, 69, 0
2, 52584, Note_on_c, 0, 74, 80
2, 52596, Note_on_c, 0, 74, 0
2, 52596, Note_on_c, 0, 76, 80
2, 52608, Note_on_c, 0, 76, 0
2, 52608, Note_on_c, 0, 78, 102
2, 52656, Note_on_c, 0, 78, 0
2, 52656, Note_on_c, 0, 76, 86
2, 52676, Note_on_c, 0, 76, 0
2, 52704, Note_on_c, 0, 74, 86
2, 52724, Note_on_c, 0, 74, 0
2, 52752, Note_on_c, 0, 73, 86
2, 52772, Note_on_c, 0, 73, 0
2, 52800, Note_on_c, 0, 71, 86
2, 52820, Note_on_c, 0, 71, 0
2, 52848, Note_on_c, 0, 69, 86
2, 52868, Note_on_c, 0, 69, 0
2, 52896, Note_on_c, 0, 68, 86
2, 52916, Note_on_c, 0, 68, 0
2, 52944, Note_on_c, 0, 66, 86
2, 52964, Note_on_c, 0, 66, 0
2, 52992, Note_on_c, 0, 64, 80
2, 53012, Note_on_c, 0, 64, 0
2, 53040, Note_on_c, 0, 62, 78
2, 53060, Note_on_c, 0, 62, 0
2, 53088, Note_on_c, 0, 61, 77
2, 53108, Note_on_c, 0, 61, 0
2, 53136, Note_on_c, 0, 59, 76
2, 53156, Note_on_c, 0, 59, 0
2, 53184, Note_on_c, 0, 57, 75
2, 53204, Note_on_c, 0, 57, 0
2, 53232, Note_on_c, 0, 56, 73
2, 53252, Note_on_c, 0, 56, 0
2, 53280, Note_on_c, 0, 54, 72
2, 53300, Note_on_c, 0, 54, 0
2, 53328, Note_on_c, 0, 52, 71
2, 53348, Note_on_c, 0, 52, 0
2, 53376, Note_on_c, 0, 66, 64
2, 53376, Note_on_c, 0, 62, 64
2, 53376, Note_on_c, 0, 57, 64
2, 53415, Note_on_c, 0, 66, 0
2, 53415, Note_on_c, 0, 62, 0
2, 53415, Note_on_c, 0, 57, 0
2, 53568, Note_on_c, 0, 68, 64
2, 53568, Note_on_c, 0, 64, 64
2, 53568, Note_on_c, 0, 62, 64
2, 53568, Note_on_c, 0, 59, 64
2, 53607, Note_on_c, 0, 68, 0
2, 53607, Note_on_c, 0, 64, 0
2, 53607, Note_on_c, 0, 62, 0
2, 53607, Note_on_c, 0, 59, 0
2, 53760, Note_on_c, 0, 61, 80
2, 53784, Note_on_c, 0, 61, 0
2, 53784, Note_on_c, 0, 57, 80
2, 53807, Note_on_c, 0, 57, 0
2, 53808, Note_on_c, 0, 64, 80
2, 53818, Note_on_c, 0, 64, 0
2, 53832, Note_on_c, 0, 64, 80
2, 53842, Note_on_c, 0, 64, 0
2, 53856, Note_on_c, 0, 64, 81
2, 53880, Note_on_c, 0, 64, 0
2, 53880, Note_on_c, 0, 61, 81
2, 53903, Note_on_c, 0, 61, 0
2, 53904, Note_on_c, 0, 69, 81
2, 53914, Note_on_c, 0, 69, 0
2, 53928, Note_on_c, 0, 69, 81
2, 53938, Note_on_c, 0, 69, 0
2, 53952, Note_on_c, 0, 69, 82
2, 53976, Note_on_c, 0, 69, 0
2, 53976, Note_on_c, 0, 64, 82
2, 53999, Note_on_c, 0, 64, 0
2, 54000, Note_on_c, 0, 73, 82
2, 54010, Note_on_c, 0, 73, 0
2, 54024, Note_on_c, 0, 73, 82
2, 54034, Note_on_c, 0, 73, 0
2, 54048, Note_on_c, 0, 73, 83
2, 54072, Note_on_c, 0, 73, 0
2, 54072, Note_on_c, 0, 69, 83
2, 54095, Note_on_c, 0, 69, 0
2, 54096, Note_on_c, 0, 76, 83
2, 54106, Note_on_c, 0, 76, 0
2, 54120, Note_on_c, 0, 76, 83
2, 54130, Note_on_c, 0, 76, 0
2, 54144, Note_on_c, 0, 76, 84
2, 54168, Note_on_c, 0, 76, 0
2, 54168, Note_on_c, 0, 73, 84
2, 54191, Note_on_c, 0, 73, 0
2, 54192, Note_on_c, 0, 81, 84
2, 54202, Note_on_c, 0, 81, 0
2, 54216, Note_on_c, 0, 81, 84
2, 54226, Note_on_c, 0, 81, 0
2, 54240, Note_on_c, 0, 81, 85
2, 54264, Note_on_c, 0, 81, 0
2, 54264, Note_on_c, 0, 76, 85
2, 54287, Note_on_c, 0, 76, 0
2, 54288, Note_on_c, 0, 85, 85
2, 54298, Note_on_c, 0, 85, 0
2, 54312, Note_on_c, 0, 85, 85
2, 54322, Note_on_c, 0, 85, 0
2, 54336, Note_on_c, 0, 85, 86
2, 54375, Note_on_c, 0, 85, 0
2, 54528, Note_on_c, 0, 80, 64
2, 54551, Note_on_c, 0, 80, 0
2, 54552, Note_on_c, 0, 78, 64
2, 54575, Note_on_c, 0, 78, 0
2, 54576, Note_on_c, 0, 80, 64
2, 54599, Note_on_c, 0, 80, 0
2, 54600, Note_on_c, 0, 76, 64
2, 54623, Note_on_c, 0, 76, 0
2, 54624, Note_on_c, 0, 81, 64
2, 54663, Note_on_c, 0, 81, 0
2, 54912, Note_on_c, 0, 68, 80
2, 54935, Note_on_c, 0, 68, 0
2, 54936, Note_on_c, 0, 66, 80
2, 54959, Note_on_c, 0, 66, 0
2, 54960, Note_on_c, 0, 68, 80
2, 54983, Note_on_c, 0, 68, 0
2, 54984, Note_on_c, 0, 64, 80
2, 55007, Note_on_c, 0, 64, 0
2, 55008, Note_on_c, 0, 69, 80
2, 55097, Note_on_c, 0, 69, 0
2, 55296, Note_on_c, 0, 81, 80
2, 55308, Note_on_c, 0, 81, 0
2, 55308, Note_on_c, 0, 83, 80
2, 55320, Note_on_c, 0, 83, 0
2, 55320, Note_on_c, 0, 84, 96
2, 55344, Note_on_c, 0, 84, 0
2, 55344, Note_on_c, 0, 83, 80
2, 55364, Note_on_c, 0, 83, 0
2, 55392, Note_on_c, 0, 81, 80
2, 55412, Note_on_c, 0, 81, 0
2, 55440, Note_on_c, 0, 80, 80
2, 55460, Note_on_c, 0, 80, 0
2, 55488, Note_on_c, 0, 77, 80
2, 55508, Note_on_c, 0, 77, 0
2, 55536, Note_on_c, 0, 76, 80
2, 55556, Note_on_c, 0, 76, 0
2, 55584, Note_on_c, 0, 74, 80
2, 55604, Note_on_c, 0, 74, 0
2, 55632, Note_on_c, 0, 72, 80
2, 55652, Note_on_c, 0, 72, 0
2, 55680, Note_on_c, 0, 71, 80
2, 55700, Note_on_c, 0, 71, 0
2, 55728, Note_on_c, 0, 69, 80
2, 55748, Note_on_c, 0, 69, 0
2, 55776, Note_on_c, 0, 68, 80
2, 55796, Note_on_c, 0, 68, 0
2, 55824, Note_on_c, 0, 65, 80
2, 55844, Note_on_c, 0, 65, 0
2, 55872, Note_on_c, 0, 64, 80
2, 55892, Note_on_c, 0, 64, 0
2, 55920, Note_on_c, 0, 62, 80
2, 55940, Note_on_c, 0, 62, 0
2, 55968, Note_on_c, 0, 60, 80
2, 55988, Note_on_c, 0, 60, 0
2, 56016, Note_on_c, 0, 59, 80
2, 56036, Note_on_c, 0, 59, 0
2, 56064, Note_on_c, 0, 63, 80
2, 56064, Note_on_c, 0, 57, 80
2, 56418, Note_on_c, 0, 63, 0
2, 56418, Note_on_c, 0, 57, 0
2, 56448, Note_on_c, 0, 64, 80
2, 56448, Note_on_c, 0, 56, 80
2, 56625, Note_on_c, 0, 64, 0
2, 56625, Note_on_c, 0, 56, 0
2, 56736, Note_on_c, 0, 64, 70
2, 56736, Note_on_c, 0, 56, 70
2, 56775, Note_on_c, 0, 64, 0
2, 56775, Note_on_c, 0, 56, 0
2, 56832, Note_on_c, 0, 65, 86
2, 56832, Note_on_c, 0, 62, 86
2, 56832, Note_on_c, 0, 59, 86
2, 57024, Note_on_c, 0, 65, 0
2, 57024, Note_on_c, 0, 62, 0
2, 57024, Note_on_c, 0, 59, 0
2, 57120, Note_on_c, 0, 65, 70
2, 57120, Note_on_c, 0, 62, 70
2, 57120, Note_on_c, 0, 59, 70
2, 57159, Note_on_c, 0, 65, 0
2, 57159, Note_on_c, 0, 62, 0
2, 57159, Note_on_c, 0, 59, 0
2, 57216, Note_on_c, 0, 68, 86
2, 57216, Note_on_c, 0, 64, 86
2, 57216, Note_on_c, 0, 59, 86
2, 57408, Note_on_c, 0, 68, 0
2, 57408, Note_on_c, 0, 64, 0
2, 57408, Note_on_c, 0, 59, 0
2, 57504, Note_on_c, 0, 68, 70
2, 57504, Note_on_c, 0, 64, 70
2, 57504, Note_on_c, 0, 59, 70
2, 57543, Note_on_c, 0, 68, 0
2, 57543, Note_on_c, 0, 64, 0
2, 57543, Note_on_c, 0, 59, 0
2, 57600, Note_on_c, 0, 69, 86
2, 57600, Note_on_c, 0, 64, 86
2, 57600, Note_on_c, 0, 60, 86
2, 57792, Note_on_c, 0, 69, 0
2, 57792, Note_on_c, 0, 64, 0
2, 57792, Note_on_c, 0, 60, 0
2, 57888, Note_on_c, 0, 69, 74
2, 57888, Note_on_c, 0, 64, 74
2, 57888, Note_on_c, 0, 60, 74
2, 57927, Note_on_c, 0, 69, 0
2, 57927, Note_on_c, 0, 64, 0
2, 57927, Note_on_c, 0, 60, 0
2, 57984, Note_on_c, 0, 71, 91
2, 57984, Note_on_c, 0, 68, 91
2, 57984, Note_on_c, 0, 62, 91
2, 58176, Note_on_c, 0, 71, 0
2, 58176, Note_on_c, 0, 68, 0
2, 58176, Note_on_c, 0, 62, 0
2, 58272, Note_on_c, 0, 71, 79
2, 58272, Note_on_c, 0, 68, 79
2, 58272, Note_on_c, 0, 62, 79
2, 58311, Note_on_c, 0, 71, 0
2, 58311, Note_on_c, 0, 68, 0
2, 58311, Note_on_c, 0, 62, 0
2, 58368, Note_on_c, 0, 72, 96
2, 58368, Note_on_c, 0, 69, 96
2, 58368, Note_on_c, 0, 64, 96
2, 58560, Note_on_c, 0, 72, 0
2, 58560, Note_on_c, 0, 69, 0
2, 58560, Note_on_c, 0, 64, 0
2, 58656, Note_on_c, 0, 75, 100
2, 58656, Note_on_c, 0, 69, 100
2, 58656, Note_on_c, 0, 66, 100
2, 58695, Note_on_c, 0, 75, 0
2, 58695, Note_on_c, 0, 69, 0
2, 58695, Note_on_c, 0, 66, 0
2, 58752, Note_on_c, 0, 76, 86
2, 58752, Note_on_c, 0, 72, 86
2, 58752, Note_on_c, 0, 69, 86
2, 58752, Note_on_c, 0, 64, 86
2, 58791, Note_on_c, 0, 76, 0
2, 58791, Note_on_c, 0, 72, 0
2, 58791, Note_on_c, 0, 69, 0
2, 58791, Note_on_c, 0, 64, 0
2, 58848, Note_on_c, 0, 72, 86
2, 58848, Note_on_c, 0, 69, 86
2, 58848, Note_on_c, 0, 64, 86
2, 58887, Note_on_c, 0, 72, 0
2, 58887, Note_on_c, 0, 69, 0
2, 58887, Note_on_c, 0, 64, 0
2, 58992, Note_on_c, 0, 69, 86
2, 59037, Note_on_c, 0, 69, 0
2, 59040, Note_on_c, 0, 71, 86
2, 59085, Note_on_c, 0, 71, 0
2, 59088, Note_on_c, 0, 72, 86
2, 59133, Note_on_c, 0, 72, 0
2, 59136, Note_on_c, 0, 74, 86
2, 59136, Note_on_c, 0, 71, 86
2, 59136, Note_on_c, 0, 68, 86
2, 59175, Note_on_c, 0, 74, 0
2, 59175, Note_on_c, 0, 71, 0
2, 59175, Note_on_c, 0, 68, 0
2, 59232, Note_on_c, 0, 71, 86
2, 59232, Note_on_c, 0, 68, 86
2, 59271, Note_on_c, 0, 71, 0
2, 59271, Note_on_c, 0, 68, 0
2, 59376, Note_on_c, 0, 68, 86
2, 59421, Note_on_c, 0, 68, 0
2, 59424, Note_on_c, 0, 69, 86
2, 59469, Note_on_c, 0, 69, 0
2, 59472, Note_on_c, 0, 71, 86
2, 59517, Note_on_c, 0, 71, 0
2, 59520, Note_on_c, 0, 72, 86
2, 59520, Note_on_c, 0, 69, 86
2, 59520, Note_on_c, 0, 64, 86
2, 59609, Note_on_c, 0, 72, 0
2, 59609, Note_on_c, 0, 69, 0
2, 59609, Note_on_c, 0, 64, 0
2, 59616, Note_on_c, 0, 69, 86
2, 59616, Note_on_c, 0, 64, 86
2, 59616, Note_on_c, 0, 60, 86
2, 59705, Note_on_c, 0, 69, 0
2, 59705, Note_on_c, 0, 64, 0
2, 59705, Note_on_c, 0, 60, 0
2, 59808, Note_on_c, 0, 69, 70
2, 59808, Note_on_c, 0, 64, 70
2, 59808, Note_on_c, 0, 60, 70
2, 59847, Note_on_c, 0, 69, 0
2, 59847, Note_on_c, 0, 64, 0
2, 59847, Note_on_c, 0, 60, 0
2, 59904, Note_on_c, 0, 70, 86
2, 59904, Note_on_c, 0, 65, 86
2, 59904, Note_on_c, 0, 62, 86
2, 60096, Note_on_c, 0, 70, 0
2, 60096, Note_on_c, 0, 65, 0
2, 60096, Note_on_c, 0, 62, 0
2, 60192, Note_on_c, 0, 70, 72
2, 60192, Note_on_c, 0, 65, 72
2, 60192, Note_on_c, 0, 62, 72
2, 60231, Note_on_c, 0, 70, 0
2, 60231, Note_on_c, 0, 65, 0
2, 60231, Note_on_c, 0, 62, 0
2, 60288, Note_on_c, 0, 73, 89
2, 60288, Note_on_c, 0, 67, 89
2, 60288, Note_on_c, 0, 64, 89
2, 60480, Note_on_c, 0, 73, 0
2, 60480, Note_on_c, 0, 67, 0
2, 60480, Note_on_c, 0, 64, 0
2, 60576, Note_on_c, 0, 73, 75
2, 60576, Note_on_c, 0, 67, 75
2, 60576, Note_on_c, 0, 64, 75
2, 60615, Note_on_c, 0, 73, 0
2, 60615, Note_on_c, 0, 67, 0
2, 60615, Note_on_c, 0, 64, 0
2, 60672, Note_on_c, 0, 74, 92
2, 60672, Note_on_c, 0, 69, 92
2, 60672, Note_on_c, 0, 65, 92
2, 60864, Note_on_c, 0, 74, 0
2, 60864, Note_on_c, 0, 69, 0
2, 60864, Note_on_c, 0, 65, 0
2, 60960, Note_on_c, 0, 74, 79
2, 60960, Note_on_c, 0, 69, 79
2, 60960, Note_on_c, 0, 65, 79
2, 60999, Note_on_c, 0, 74, 0
2, 60999, Note_on_c, 0, 69, 0
2, 60999, Note_on_c, 0, 65, 0
2, 61056, Note_on_c, 0, 75, 80
2, 61101, Note_on_c, 0, 75, 0
2, 61104, Note_on_c, 0, 82, 80
2, 61149, Note_on_c, 0, 82, 0
2, 61152, Note_on_c, 0, 79, 80
2, 61197, Note_on_c, 0, 79, 0
2, 61200, Note_on_c, 0, 75, 80
2, 61245, Note_on_c, 0, 75, 0
2, 61248, Note_on_c, 0, 73, 80
2, 61248, Note_on_c, 0, 70, 80
2, 61337, Note_on_c, 0, 73, 0
2, 61337, Note_on_c, 0, 70, 0
2, 61488, Note_on_c, 0, 81, 79
2, 61533, Note_on_c, 0, 81, 0
2, 61536, Note_on_c, 0, 77, 78
2, 61581, Note_on_c, 0, 77, 0
2, 61584, Note_on_c, 0, 74, 78
2, 61629, Note_on_c, 0, 74, 0
2, 61632, Note_on_c, 0, 71, 77
2, 61632, Note_on_c, 0, 67, 77
2, 61721, Note_on_c, 0, 71, 0
2, 61721, Note_on_c, 0, 67, 0
2, 61872, Note_on_c, 0, 79, 74
2, 61917, Note_on_c, 0, 79, 0
2, 61920, Note_on_c, 0, 75, 73
2, 61965, Note_on_c, 0, 75, 0
2, 61968, Note_on_c, 0, 72, 72
2, 62013, Note_on_c, 0, 72, 0
2, 62016, Note_on_c, 0, 69, 72
2, 62016, Note_on_c, 0, 66, 72
2, 62105, Note_on_c, 0, 69, 0
2, 62105, Note_on_c, 0, 66, 0
2, 62256, Note_on_c, 0, 77, 68
2, 62301, Note_on_c, 0, 77, 0
2, 62304, Note_on_c, 0, 74, 68
2, 62349, Note_on_c, 0, 74, 0
2, 62352, Note_on_c, 0, 70, 67
2, 62397, Note_on_c, 0, 70, 0
2, 62448, Note_on_c, 0, 79, 66
2, 62493, Note_on_c, 0, 79, 0
2, 62496, Note_on_c, 0, 76, 65
2, 62541, Note_on_c, 0, 76, 0
2, 62544, Note_on_c, 0, 72, 64
2, 62589, Note_on_c, 0, 72, 0
2, 62640, Note_on_c, 0, 81, 66
2, 62685, Note_on_c, 0, 81, 0
2, 62688, Note_on_c, 0, 77, 68
2, 62733, Note_on_c, 0, 77, 0
2, 62736, Note_on_c, 0, 72, 70
2, 62781, Note_on_c, 0, 72, 0
2, 62832, Note_on_c, 0, 82, 74
2, 62877, Note_on_c, 0, 82, 0
2, 62880, Note_on_c, 0, 79, 76
2, 62925, Note_on_c, 0, 79, 0
2, 62928, Note_on_c, 0, 76, 78
2, 62973, Note_on_c, 0, 76, 0
2, 62976, Note_on_c, 0, 84, 80
2, 62976, Note_on_c, 0, 81, 80
2, 63015, Note_on_c, 0, 84, 0
2, 63015, Note_on_c, 0, 81, 0
2, 63072, Note_on_c, 0, 81, 80
2, 63072, Note_on_c, 0, 77, 80
2, 63111, Note_on_c, 0, 81, 0
2, 63111, Note_on_c, 0, 77, 0
2, 63360, Note_on_c, 0, 86, 80
2, 63360, Note_on_c, 0, 82, 80
2, 63399, Note_on_c, 0, 86, 0
2, 63399, Note_on_c, 0, 82, 0
2, 63456, Note_on_c, 0, 82, 80
2, 63456, Note_on_c, 0, 79, 80
2, 63495, Note_on_c, 0, 82, 0
2, 63495, Note_on_c, 0, 79, 0
2, 63744, Note_on_c, 0, 84, 80
2, 63744, Note_on_c, 0, 81, 80
2, 63783, Note_on_c, 0, 84, 0
2, 63783, Note_on_c, 0, 81, 0
2, 63840, Note_on_c, 0, 81, 80
2, 63840, Note_on_c, 0, 77, 80
2, 63879, Note_on_c, 0, 81, 0
2, 63879, Note_on_c, 0, 77, 0
2, 64128, Note_on_c, 0, 72, 64
2, 64128, Note_on_c, 0, 69, 64
2, 64167, Note_on_c, 0, 72, 0
2, 64167, Note_on_c, 0, 69, 0
2, 64224, Note_on_c, 0, 69, 66
2, 64224, Note_on_c, 0, 66, 66
2, 64263, Note_on_c, 0, 69, 0
2, 64263, Note_on_c, 0, 66, 0
2, 64320, Note_on_c, 0, 78, 69
2, 64320, Note_on_c, 0, 75, 69
2, 64359, Note_on_c, 0, 78, 0
2, 64359, Note_on_c, 0, 75, 0
2, 64416, Note_on_c, 0, 75, 72
2, 64416, Note_on_c, 0, 72, 72
2, 64455, Note_on_c, 0, 75, 0
2, 64455, Note_on_c, 0, 72, 0
2, 64512, Note_on_c, 0, 81, 74
2, 64512, Note_on_c, 0, 78, 74
2, 64551, Note_on_c, 0, 81, 0
2, 64551, Note_on_c, 0, 78, 0
2, 64608, Note_on_c, 0, 78, 77
2, 64608, Note_on_c, 0, 75, 77
2, 64647, Note_on_c, 0, 78, 0
2, 64647, Note_on_c, 0, 75, 0
2, 64896, Note_on_c, 0, 68, 80
2, 64896, Note_on_c, 0, 65, 80
2, 64935, Note_on_c, 0, 68, 0
2, 64935, Note_on_c, 0, 65, 0
2, 64992, Note_on_c, 0, 65, 77
2, 64992, Note_on_c, 0, 62, 77
2, 65031, Note_on_c, 0, 65, 0
2, 65031, Note_on_c, 0, 62, 0
2, 65088, Note_on_c, 0, 74, 74
2, 65088, Note_on_c, 0, 71, 74
2, 65127, Note_on_c, 0, 74, 0
2, 65127, Note_on_c, 0, 71, 0
2, 65184, Note_on_c, 0, 71, 72
2, 65184, Note_on_c, 0, 68, 72
2, 65223, Note_on_c, 0, 71, 0
2, 65223, Note_on_c, 0, 68, 0
2, 65280, Note_on_c, 0, 77, 69
2, 65280, Note_on_c, 0, 74, 69
2, 65319, Note_on_c, 0, 77, 0
2, 65319, Note_on_c, 0, 74, 0
2, 65376, Note_on_c, 0, 74, 66
2, 65376, Note_on_c, 0, 71, 66
2, 65415, Note_on_c, 0, 74, 0
2, 65415, Note_on_c, 0, 71, 0
2, 65664, Note_on_c, 0, 64, 75
2, 65664, Note_on_c, 0, 61, 75
2, 65703, Note_on_c, 0, 64, 0
2, 65703, Note_on_c, 0, 61, 0
2, 65760, Note_on_c, 0, 61, 75
2, 65760, Note_on_c, 0, 57, 75
2, 65799, Note_on_c, 0, 61, 0
2, 65799, Note_on_c, 0, 57, 0
2, 66048, Note_on_c, 0, 66, 75
2, 66048, Note_on_c, 0, 62, 75
2, 66087, Note_on_c, 0, 66, 0
2, 66087, Note_on_c, 0, 62, 0
2, 66144, Note_on_c, 0, 62, 75
2, 66144, Note_on_c, 0, 59, 75
2, 66183, Note_on_c, 0, 62, 0
2, 66183, Note_on_c, 0, 59, 0
2, 66432, Note_on_c, 0, 67, 75
2, 66432, Note_on_c, 0, 64, 75
2, 66471, Note_on_c, 0, 67, 0
2, 66471, Note_on_c, 0, 64, 0
2, 66528, Note_on_c, 0, 64, 75
2, 66528, Note_on_c, 0, 61, 75
2, 66567, Note_on_c, 0, 64, 0
2, 66567, Note_on_c, 0, 61, 0
2, 66720, Note_on_c, 0, 64, 75
2, 66720, Note_on_c, 0, 61, 75
2, 66787, Note_on_c, 0, 64, 0
2, 66787, Note_on_c, 0, 61, 0
2, 66792, Note_on_c, 0, 66, 75
2, 66792, Note_on_c, 0, 62, 75
2, 66815, Note_on_c, 0, 66, 0
2, 66815, Note_on_c, 0, 62, 0
2, 66816, Note_on_c, 0, 67, 75
2, 66816, Note_on_c, 0, 64, 75
2, 66883, Note_on_c, 0, 67, 0
2, 66883, Note_on_c, 0, 64, 0
2, 66888, Note_on_c, 0, 69, 75
2, 66888, Note_on_c, 0, 66, 75
2, 66898, Note_on_c, 0, 69, 0
2, 66898, Note_on_c, 0, 66, 0
2, 66912, Note_on_c, 0, 67, 75
2, 66912, Note_on_c, 0, 64, 75
2, 66979, Note_on_c, 0, 67, 0
2, 66979, Note_on_c, 0, 64, 0
2, 66984, Note_on_c, 0, 67, 75
2, 66984, Note_on_c, 0, 64, 75
2, 67007, Note_on_c, 0, 67, 0
2, 67007, Note_on_c, 0, 64, 0
2, 67008, Note_on_c, 0, 76, 91
2, 67040, Note_on_c, 0, 76, 0
2, 67040, Note_on_c, 0, 74, 75
2, 67070, Note_on_c, 0, 74, 0
2, 67072, Note_on_c, 0, 73, 76
2, 67102, Note_on_c, 0, 73, 0
2, 67104, Note_on_c, 0, 71, 77
2, 67134, Note_on_c, 0, 71, 0
2, 67136, Note_on_c, 0, 69, 78
2, 67166, Note_on_c, 0, 69, 0
2, 67168, Note_on_c, 0, 67, 78
2, 67198, Note_on_c, 0, 67, 0
2, 67200, Note_on_c, 0, 67, 79
2, 67200, Note_on_c, 0, 64, 79
2, 67392, Note_on_c, 0, 67, 0
2, 67392, Note_on_c, 0, 64, 0
2, 67392, Note_on_c, 0, 66, 76
2, 67392, Note_on_c, 0, 62, 76
2, 67481, Note_on_c, 0, 66, 0
2, 67481, Note_on_c, 0, 62, 0
2, 67584, Note_on_c, 0, 59, 75
2, 67843, Note_on_c, 0, 59, 0
2, 67848, Note_on_c, 0, 59, 75
2, 67871, Note_on_c, 0, 59, 0
2, 67872, Note_on_c, 0, 67, 75
2, 67939, Note_on_c, 0, 67, 0
2, 67944, Note_on_c, 0, 64, 75
2, 67967, Note_on_c, 0, 64, 0
2, 67968, Note_on_c, 0, 62, 75
2, 67986, Note_on_c, 0, 62, 0
2, 67986, Note_on_c, 0, 61, 75
2, 68004, Note_on_c, 0, 61, 0
2, 68004, Note_on_c, 0, 62, 75
2, 68160, Note_on_c, 0, 62, 0
2, 68160, Note_on_c, 0, 61, 75
2, 68249, Note_on_c, 0, 61, 0
2, 68256, Note_on_c, 0, 73, 75
2, 68279, Note_on_c, 0, 73, 0
2, 68280, Note_on_c, 0, 71, 75
2, 68303, Note_on_c, 0, 71, 0
2, 68304, Note_on_c, 0, 69, 75
2, 68327, Note_on_c, 0, 69, 0
2, 68328, Note_on_c, 0, 67, 75
2, 68351, Note_on_c, 0, 67, 0
2, 68352, Note_on_c, 0, 66, 75
2, 68544, Note_on_c, 0, 66, 0
2, 68544, Note_on_c, 0, 64, 75
2, 68574, Note_on_c, 0, 64, 0
2, 68576, Note_on_c, 0, 73, 75
2, 68606, Note_on_c, 0, 73, 0
2, 68608, Note_on_c, 0, 74, 75
2, 68638, Note_on_c, 0, 74, 0
2, 68640, Note_on_c, 0, 76, 75
2, 68670, Note_on_c, 0, 76, 0
2, 68672, Note_on_c, 0, 73, 75
2, 68702, Note_on_c, 0, 73, 0
2, 68704, Note_on_c, 0, 67, 75
2, 68734, Note_on_c, 0, 67, 0
2, 68736, Note_on_c, 0, 66, 75
2, 68766, Note_on_c, 0, 66, 0
2, 68768, Note_on_c, 0, 74, 75
2, 68798, Note_on_c, 0, 74, 0
2, 68800, Note_on_c, 0, 69, 75
2, 68830, Note_on_c, 0, 69, 0
2, 68832, Note_on_c, 0, 71, 75
2, 68862, Note_on_c, 0, 71, 0
2, 68864, Note_on_c, 0, 67, 75
2, 68894, Note_on_c, 0, 67, 0
2, 68896, Note_on_c, 0, 64, 75
2, 68926, Note_on_c, 0, 64, 0
2, 68928, Note_on_c, 0, 62, 75
2, 68928, Note_on_c, 0, 54, 75
2, 69024, Note_on_c, 0, 62, 0
2, 69024, Note_on_c, 0, 54, 0
2, 69024, Note_on_c, 0, 61, 75
2, 69024, Note_on_c, 0, 52, 75
2, 69091, Note_on_c, 0, 61, 0
2, 69091, Note_on_c, 0, 52, 0
2, 69120, Note_on_c, 0, 71, 64
2, 69138, Note_on_c, 0, 71, 0
2, 69138, Note_on_c, 0, 72, 64
2, 69156, Note_on_c, 0, 72, 0
2, 69156, Note_on_c, 0, 74, 64
2, 69174, Note_on_c, 0, 74, 0
2, 69174, Note_on_c, 0, 72, 80
2, 69357, Note_on_c, 0, 72, 0
2, 69360, Note_on_c, 0, 72, 71
2, 69405, Note_on_c, 0, 72, 0
2, 69408, Note_on_c, 0, 71, 73
2, 69453, Note_on_c, 0, 71, 0
2, 69456, Note_on_c, 0, 69, 75
2, 69501, Note_on_c, 0, 69, 0
2, 69504, Note_on_c, 0, 68, 89
2, 69648, Note_on_c, 0, 68, 0
2, 69648, Note_on_c, 0, 69, 68
2, 69671, Note_on_c, 0, 69, 0
2, 69672, Note_on_c, 0, 71, 67
2, 69695, Note_on_c, 0, 71, 0
2, 69696, Note_on_c, 0, 69, 67
2, 69785, Note_on_c, 0, 69, 0
2, 69888, Note_on_c, 0, 69, 64
2, 69906, Note_on_c, 0, 69, 0
2, 69906, Note_on_c, 0, 70, 64
2, 69924, Note_on_c, 0, 70, 0
2, 69924, Note_on_c, 0, 72, 64
2, 69942, Note_on_c, 0, 72, 0
2, 69942, Note_on_c, 0, 70, 80
2, 70125, Note_on_c, 0, 70, 0
2, 70128, Note_on_c, 0, 70, 71
2, 70173, Note_on_c, 0, 70, 0
2, 70176, Note_on_c, 0, 69, 73
2, 70221, Note_on_c, 0, 69, 0
2, 70224, Note_on_c, 0, 67, 75
2, 70269, Note_on_c, 0, 67, 0
2, 70272, Note_on_c, 0, 66, 89
2, 70416, Note_on_c, 0, 66, 0
2, 70416, Note_on_c, 0, 67, 67
2, 70439, Note_on_c, 0, 67, 0
2, 70440, Note_on_c, 0, 69, 66
2, 70463, Note_on_c, 0, 69, 0
2, 70464, Note_on_c, 0, 67, 65
2, 70509, Note_on_c, 0, 67, 0
2, 70512, Note_on_c, 0, 79, 80
2, 70512, Note_on_c, 0, 74, 80
2, 70512, Note_on_c, 0, 71, 80
2, 70532, Note_on_c, 0, 79, 0
2, 70532, Note_on_c, 0, 74, 0
2, 70532, Note_on_c, 0, 71, 0
2, 70560, Note_on_c, 0, 78, 65
2, 70560, Note_on_c, 0, 73, 65
2, 70560, Note_on_c, 0, 69, 65
2, 70580, Note_on_c, 0, 78, 0
2, 70580, Note_on_c, 0, 73, 0
2, 70580, Note_on_c, 0, 69, 0
2, 70608, Note_on_c, 0, 76, 66
2, 70608, Note_on_c, 0, 71, 66
2, 70608, Note_on_c, 0, 67, 66
2, 70628, Note_on_c, 0, 76, 0
2, 70628, Note_on_c, 0, 71, 0
2, 70628, Note_on_c, 0, 67, 0
2, 70656, Note_on_c, 0, 74, 68
2, 70656, Note_on_c, 0, 69, 68
2, 70656, Note_on_c, 0, 66, 68
2, 70676, Note_on_c, 0, 74, 0
2, 70676, Note_on_c, 0, 69, 0
2, 70676, Note_on_c, 0, 66, 0
2, 70704, Note_on_c, 0, 73, 69
2, 70704, Note_on_c, 0, 68, 69
2, 70704, Note_on_c, 0, 64, 69
2, 70724, Note_on_c, 0, 73, 0
2, 70724, Note_on_c, 0, 68, 0
2, 70724, Note_on_c, 0, 64, 0
2, 70752, Note_on_c, 0, 71, 71
2, 70752, Note_on_c, 0, 66, 71
2, 70752, Note_on_c, 0, 62, 71
2, 70772, Note_on_c, 0, 71, 0
2, 70772, Note_on_c, 0, 66, 0
2, 70772, Note_on_c, 0, 62, 0
2, 70800, Note_on_c, 0, 69, 72
2, 70800, Note_on_c, 0, 64, 72
2, 70800, Note_on_c, 0, 61, 72
2, 70820, Note_on_c, 0, 69, 0
2, 70820, Note_on_c, 0, 64, 0
2, 70820, Note_on_c, 0, 61, 0
2, 70848, Note_on_c, 0, 67, 74
2, 70848, Note_on_c, 0, 62, 74
2, 70848, Note_on_c, 0, 59, 74
2, 70868, Note_on_c, 0, 67, 0
2, 70868, Note_on_c, 0, 62, 0
2, 70868, Note_on_c, 0, 59, 0
2, 70896, Note_on_c, 0, 66, 75
2, 70896, Note_on_c, 0, 61, 75
2, 70896, Note_on_c, 0, 57, 75
2, 70916, Note_on_c, 0, 66, 0
2, 70916, Note_on_c, 0, 61, 0
2, 70916, Note_on_c, 0, 57, 0
2, 70944, Note_on_c, 0, 64, 77
2, 70944, Note_on_c, 0, 59, 77
2, 70944, Note_on_c, 0, 55, 77
2, 70964, Note_on_c, 0, 64, 0
2, 70964, Note_on_c, 0, 59, 0
2, 70964, Note_on_c, 0, 55, 0
2, 70992, Note_on_c, 0, 62, 78
2, 70992, Note_on_c, 0, 57, 78
2, 70992, Note_on_c, 0, 54, 78
2, 71012, Note_on_c, 0, 62, 0
2, 71012, Note_on_c, 0, 57, 0
2, 71012, Note_on_c, 0, 54, 0
2, 71040, Note_on_c, 0, 68, 80
2, 71063, Note_on_c, 0, 68, 0
2, 71064, Note_on_c, 0, 69, 80
2, 71087, Note_on_c, 0, 69, 0
2, 71088, Note_on_c, 0, 68, 80
2, 71111, Note_on_c, 0, 68, 0
2, 71112, Note_on_c, 0, 69, 80
2, 71135, Note_on_c, 0, 69, 0
2, 71136, Note_on_c, 0, 57, 80
2, 71175, Note_on_c, 0, 57, 0
2, 71424, Note_on_c, 0, 75, 64
2, 71444, Note_on_c, 0, 75, 0
2, 71472, Note_on_c, 0, 78, 64
2, 71495, Note_on_c, 0, 78, 0
2, 71496, Note_on_c, 0, 76, 64
2, 71519, Note_on_c, 0, 76, 0
2, 71520, Note_on_c, 0, 75, 64
2, 71543, Note_on_c, 0, 75, 0
2, 71544, Note_on_c, 0, 76, 64
2, 71567, Note_on_c, 0, 76, 0
2, 71568, Note_on_c, 0, 76, 64
2, 71588, Note_on_c, 0, 76, 0
2, 71808, Note_on_c, 0, 57, 80
2, 71838, Note_on_c, 0, 57, 0
2, 71840, Note_on_c, 0, 64, 80
2, 71870, Note_on_c, 0, 64, 0
2, 71872, Note_on_c, 0, 61, 80
2, 71902, Note_on_c, 0, 61, 0
2, 71904, Note_on_c, 0, 69, 81
2, 71934, Note_on_c, 0, 69, 0
2, 71936, Note_on_c, 0, 64, 81
2, 71966, Note_on_c, 0, 64, 0
2, 71968, Note_on_c, 0, 73, 82
2, 71998, Note_on_c, 0, 73, 0
2, 72000, Note_on_c, 0, 69, 82
2, 72030, Note_on_c, 0, 69, 0
2, 72032, Note_on_c, 0, 76, 83
2, 72062, Note_on_c, 0, 76, 0
2, 72064, Note_on_c, 0, 73, 83
2, 72094, Note_on_c, 0, 73, 0
2, 72096, Note_on_c, 0, 81, 84
2, 72126, Note_on_c, 0, 81, 0
2, 72128, Note_on_c, 0, 76, 84
2, 72158, Note_on_c, 0, 76, 0
2, 72160, Note_on_c, 0, 85, 85
2, 72190, Note_on_c, 0, 85, 0
2, 72192, Note_on_c, 0, 83, 101
2, 72224, Note_on_c, 0, 83, 0
2, 72224, Note_on_c, 0, 81, 85
2, 72254, Note_on_c, 0, 81, 0
2, 72256, Note_on_c, 0, 80, 85
2, 72286, Note_on_c, 0, 80, 0
2, 72288, Note_on_c, 0, 78, 84
2, 72318, Note_on_c, 0, 78, 0
2, 72320, Note_on_c, 0, 76, 84
2, 72350, Note_on_c, 0, 76, 0
2, 72352, Note_on_c, 0, 74, 84
2, 72382, Note_on_c, 0, 74, 0
2, 72384, Note_on_c, 0, 73, 83
2, 72414, Note_on_c, 0, 73, 0
2, 72416, Note_on_c, 0, 71, 83
2, 72446, Note_on_c, 0, 71, 0
2, 72448, Note_on_c, 0, 69, 82
2, 72478, Note_on_c, 0, 69, 0
2, 72480, Note_on_c, 0, 68, 82
2, 72510, Note_on_c, 0, 68, 0
2, 72512, Note_on_c, 0, 66, 81
2, 72542, Note_on_c, 0, 66, 0
2, 72544, Note_on_c, 0, 64, 81
2, 72574, Note_on_c, 0, 64, 0
2, 72576, Note_on_c, 0, 62, 80
2, 72576, Note_on_c, 0, 59, 80
2, 72576, Note_on_c, 0, 56, 80
2, 72841, Note_on_c, 0, 62, 0
2, 72841, Note_on_c, 0, 59, 0
2, 72841, Note_on_c, 0, 56, 0
2, 73088, Note_on_c, 0, 68, 80
2, 73118, Note_on_c, 0, 68, 0
2, 73120, Note_on_c, 0, 71, 80
2, 73150, Note_on_c, 0, 71, 0
2, 73152, Note_on_c, 0, 68, 80
2, 73182, Note_on_c, 0, 68, 0
2, 73184, Note_on_c, 0, 74, 80
2, 73214, Note_on_c, 0, 74, 0
2, 73216, Note_on_c, 0, 71, 80
2, 73246, Note_on_c, 0, 71, 0
2, 73248, Note_on_c, 0, 80, 76
2, 73278, Note_on_c, 0, 80, 0
2, 73280, Note_on_c, 0, 74, 72
2, 73310, Note_on_c, 0, 74, 0
2, 73312, Note_on_c, 0, 83, 69
2, 73342, Note_on_c, 0, 83, 0
2, 73344, Note_on_c, 0, 82, 80
2, 73374, Note_on_c, 0, 82, 0
2, 73376, Note_on_c, 0, 83, 79
2, 73406, Note_on_c, 0, 83, 0
2, 73408, Note_on_c, 0, 85, 79
2, 73438, Note_on_c, 0, 85, 0
2, 73440, Note_on_c, 0, 83, 78
2, 73470, Note_on_c, 0, 83, 0
2, 73472, Note_on_c, 0, 85, 78
2, 73502, Note_on_c, 0, 85, 0
2, 73504, Note_on_c, 0, 86, 78
2, 73534, Note_on_c, 0, 86, 0
2, 73536, Note_on_c, 0, 80, 77
2, 73566, Note_on_c, 0, 80, 0
2, 73568, Note_on_c, 0, 81, 77
2, 73598, Note_on_c, 0, 81, 0
2, 73600, Note_on_c, 0, 83, 76
2, 73630, Note_on_c, 0, 83, 0
2, 73632, Note_on_c, 0, 81, 76
2, 73662, Note_on_c, 0, 81, 0
2, 73664, Note_on_c, 0, 83, 76
2, 73694, Note_on_c, 0, 83, 0
2, 73696, Note_on_c, 0, 85, 75
2, 73726, Note_on_c, 0, 85, 0
2, 73728, Note_on_c, 0, 78, 75
2, 73758, Note_on_c, 0, 78, 0
2, 73760, Note_on_c, 0, 80, 74
2, 73790, Note_on_c, 0, 80, 0
2, 73792, Note_on_c, 0, 81, 74
2, 73822, Note_on_c, 0, 81, 0
2, 73824, Note_on_c, 0, 80, 74
2, 73854, Note_on_c, 0, 80, 0
2, 73856, Note_on_c, 0, 81, 73
2, 73886, Note_on_c, 0, 81, 0
2, 73888, Note_on_c, 0, 83, 73
2, 73918, Note_on_c, 0, 83, 0
2, 73920, Note_on_c, 0, 77, 72
2, 73950, Note_on_c, 0, 77, 0
2, 73952, Note_on_c, 0, 78, 72
2, 73982, Note_on_c, 0, 78, 0
2, 73984, Note_on_c, 0, 80, 72
2, 74014, Note_on_c, 0, 80, 0
2, 74016, Note_on_c, 0, 78, 71
2, 74046, Note_on_c, 0, 78, 0
2, 74048, Note_on_c, 0, 80, 71
2, 74078, Note_on_c, 0, 80, 0
2, 74080, Note_on_c, 0, 81, 71
2, 74110, Note_on_c, 0, 81, 0
2, 74112, Note_on_c, 0, 76, 70
2, 74131, Note_on_c, 0, 76, 0
2, 74132, Note_on_c, 0, 75, 70
2, 74151, Note_on_c, 0, 75, 0
2, 74152, Note_on_c, 0, 76, 70
2, 74170, Note_on_c, 0, 76, 0
2, 74171, Note_on_c, 0, 75, 70
2, 74189, Note_on_c, 0, 75, 0
2, 74190, Note_on_c, 0, 76, 70
2, 74208, Note_on_c, 0, 76, 0
2, 74209, Note_on_c, 0, 75, 70
2, 74227, Note_on_c, 0, 75, 0
2, 74228, Note_on_c, 0, 76, 70
2, 74246, Note_on_c, 0, 76, 0
2, 74247, Note_on_c, 0, 75, 70
2, 74265, Note_on_c, 0, 75, 0
2, 74266, Note_on_c, 0, 73, 70
2, 74284, Note_on_c, 0, 73, 0
2, 74285, Note_on_c, 0, 75, 70
2, 74304, Note_on_c, 0, 75, 0
2, 74304, Note_on_c, 0, 76, 70
2, 74349, Note_on_c, 0, 76, 0
2, 74352, Note_on_c, 0, 76, 64
2, 74372, Note_on_c, 0, 76, 0
2, 74400, Note_on_c, 0, 76, 64
2, 74420, Note_on_c, 0, 76, 0
2, 74448, Note_on_c, 0, 76, 64
2, 74468, Note_on_c, 0, 76, 0
2, 74496, Note_on_c, 0, 76, 64
2, 74516, Note_on_c, 0, 76, 0
2, 74544, Note_on_c, 0, 76, 64
2, 74564, Note_on_c, 0, 76, 0
2, 74592, Note_on_c, 0, 76, 64
2, 74612, Note_on_c, 0, 76, 0
2, 74640, Note_on_c, 0, 76, 64
2, 74660, Note_on_c, 0, 76, 0
2, 74688, Note_on_c, 0, 77, 64
2, 74708, Note_on_c, 0, 77, 0
2, 74736, Note_on_c, 0, 77, 64
2, 74756, Note_on_c, 0, 77, 0
2, 74784, Note_on_c, 0, 77, 65
2, 74804, Note_on_c, 0, 77, 0
2, 74832, Note_on_c, 0, 77, 66
2, 74852, Note_on_c, 0, 77, 0
2, 74880, Note_on_c, 0, 77, 66
2, 74900, Note_on_c, 0, 77, 0
2, 74928, Note_on_c, 0, 77, 67
2, 74948, Note_on_c, 0, 77, 0
2, 74976, Note_on_c, 0, 77, 68
2, 74996, Note_on_c, 0, 77, 0
2, 75024, Note_on_c, 0, 77, 68
2, 75044, Note_on_c, 0, 77, 0
2, 75072, Note_on_c, 0, 80, 69
2, 75072, Note_on_c, 0, 74, 69
2, 75072, Note_on_c, 0, 71, 69
2, 75092, Note_on_c, 0, 80, 0
2, 75092, Note_on_c, 0, 74, 0
2, 75092, Note_on_c, 0, 71, 0
2, 75120, Note_on_c, 0, 80, 70
2, 75120, Note_on_c, 0, 74, 70
2, 75120, Note_on_c, 0, 71, 70
2, 75140, Note_on_c, 0, 80, 0
2, 75140, Note_on_c, 0, 74, 0
2, 75140, Note_on_c, 0, 71, 0
2, 75168, Note_on_c, 0, 80, 70
2, 75168, Note_on_c, 0, 74, 70
2, 75168, Note_on_c, 0, 71, 70
2, 75188, Note_on_c, 0, 80, 0
2, 75188, Note_on_c, 0, 74, 0
2, 75188, Note_on_c, 0, 71, 0
2, 75216, Note_on_c, 0, 80, 71
2, 75216, Note_on_c, 0, 74, 71
2, 75216, Note_on_c, 0, 71, 71
2, 75236, Note_on_c, 0, 80, 0
2, 75236, Note_on_c, 0, 74, 0
2, 75236, Note_on_c, 0, 71, 0
2, 75264, Note_on_c, 0, 81, 72
2, 75264, Note_on_c, 0, 76, 72
2, 75264, Note_on_c, 0, 69, 72
2, 75284, Note_on_c, 0, 81, 0
2, 75284, Note_on_c, 0, 76, 0
2, 75284, Note_on_c, 0, 69, 0
2, 75312, Note_on_c, 0, 81, 72
2, 75312, Note_on_c, 0, 76, 72
2, 75312, Note_on_c, 0, 69, 72
2, 75332, Note_on_c, 0, 81, 0
2, 75332, Note_on_c, 0, 76, 0
2, 75332, Note_on_c, 0, 69, 0
2, 75360, Note_on_c, 0, 81, 73
2, 75360, Note_on_c, 0, 76, 73
2, 75360, Note_on_c, 0, 69, 73
2, 75380, Note_on_c, 0, 81, 0
2, 75380, Note_on_c, 0, 76, 0
2, 75380, Note_on_c, 0, 69, 0
2, 75408, Note_on_c, 0, 81, 74
2, 75408, Note_on_c, 0, 76, 74
2, 75408, Note_on_c, 0, 69, 74
2, 75428, Note_on_c, 0, 81, 0
2, 75428, Note_on_c, 0, 76, 0
2, 75428, Note_on_c, 0, 69, 0
2, 75456, Note_on_c, 0, 74, 74
2, 75456, Note_on_c, 0, 71, 74
2, 75456, Note_on_c, 0, 68, 74
2, 75476, Note_on_c, 0, 74, 0
2, 75476, Note_on_c, 0, 71, 0
2, 75476, Note_on_c, 0, 68, 0
2, 75504, Note_on_c, 0, 74, 75
2, 75504, Note_on_c, 0, 71, 75
2, 75504, Note_on_c, 0, 68, 75
2, 75524, Note_on_c, 0, 74, 0
2, 75524, Note_on_c, 0, 71, 0
2, 75524, Note_on_c, 0, 68, 0
2, 75552, Note_on_c, 0, 74, 76
2, 75552, Note_on_c, 0, 71, 76
2, 75552, Note_on_c, 0, 68, 76
2, 75572, Note_on_c, 0, 74, 0
2, 75572, Note_on_c, 0, 71, 0
2, 75572, Note_on_c, 0, 68, 0
2, 75600, Note_on_c, 0, 74, 76
2, 75600, Note_on_c, 0, 71, 76
2, 75600, Note_on_c, 0, 68, 76
2, 75620, Note_on_c, 0, 74, 0
2, 75620, Note_on_c, 0, 71, 0
2, 75620, Note_on_c, 0, 68, 0
2, 75648, Note_on_c, 0, 72, 77
2, 75648, Note_on_c, 0, 71, 77
2, 75668, Note_on_c, 0, 72, 0
2, 75668, Note_on_c, 0, 71, 0
2, 75696, Note_on_c, 0, 72, 78
2, 75696, Note_on_c, 0, 71, 78
2, 75716, Note_on_c, 0, 72, 0
2, 75716, Note_on_c, 0, 71, 0
2, 75744, Note_on_c, 0, 72, 78
2, 75744, Note_on_c, 0, 69, 78
2, 75764, Note_on_c, 0, 72, 0
2, 75764, Note_on_c, 0, 69, 0
2, 75792, Note_on_c, 0, 72, 79
2, 75792, Note_on_c, 0, 69, 79
2, 75812, Note_on_c, 0, 72, 0
2, 75812, Note_on_c, 0, 69, 0
2, 75840, Note_on_c, 0, 75, 80
2, 75840, Note_on_c, 0, 72, 80
2, 75840, Note_on_c, 0, 69, 80
2, 75860, Note_on_c, 0, 75, 0
2, 75860, Note_on_c, 0, 72, 0
2, 75860, Note_on_c, 0, 69, 0
2, 75888, Note_on_c, 0, 75, 77
2, 75888, Note_on_c, 0, 72, 77
2, 75888, Note_on_c, 0, 69, 77
2, 75908, Note_on_c, 0, 75, 0
2, 75908, Note_on_c, 0, 72, 0
2, 75908, Note_on_c, 0, 69, 0
2, 75936, Note_on_c, 0, 75, 74
2, 75936, Note_on_c, 0, 72, 74
2, 75936, Note_on_c, 0, 69, 74
2, 75956, Note_on_c, 0, 75, 0
2, 75956, Note_on_c, 0, 72, 0
2, 75956, Note_on_c, 0, 69, 0
2, 75984, Note_on_c, 0, 75, 72
2, 75984, Note_on_c, 0, 72, 72
2, 75984, Note_on_c, 0, 69, 72
2, 76004, Note_on_c, 0, 75, 0
2, 76004, Note_on_c, 0, 72, 0
2, 76004, Note_on_c, 0, 69, 0
2, 76032, Note_on_c, 0, 76, 69
2, 76032, Note_on_c, 0, 71, 69
2, 76032, Note_on_c, 0, 68, 69
2, 76121, Note_on_c, 0, 76, 0
2, 76121, Note_on_c, 0, 71, 0
2, 76121, Note_on_c, 0, 68, 0
2, 76416, Note_on_c, 0, 67, 96
2, 76416, Note_on_c, 0, 64, 96
2, 76512, Note_on_c, 0, 67, 0
2, 76512, Note_on_c, 0, 64, 0
2, 76512, Note_on_c, 0, 66, 80
2, 76512, Note_on_c, 0, 62, 80
2, 76551, Note_on_c, 0, 66, 0
2, 76551, Note_on_c, 0, 62, 0
2, 76608, Note_on_c, 0, 65, 96
2, 76608, Note_on_c, 0, 62, 96
2, 76704, Note_on_c, 0, 65, 0
2, 76704, Note_on_c, 0, 62, 0
2, 76704, Note_on_c, 0, 64, 80
2, 76704, Note_on_c, 0, 61, 80
2, 76743, Note_on_c, 0, 64, 0
2, 76743, Note_on_c, 0, 61, 0
2, 76800, Note_on_c, 0, 81, 96
2, 76800, Note_on_c, 0, 78, 96
2, 76896, Note_on_c, 0, 81, 0
2, 76896, Note_on_c, 0, 78, 0
2, 76896, Note_on_c, 0, 80, 80
2, 76896, Note_on_c, 0, 76, 80
2, 76935, Note_on_c, 0, 80, 0
2, 76935, Note_on_c, 0, 76, 0
2, 76992, Note_on_c, 0, 74, 96
2, 76992, Note_on_c, 0, 71, 96
2, 77088, Note_on_c, 0, 74, 0
2, 77088, Note_on_c, 0, 71, 0
2, 77088, Note_on_c, 0, 73, 80
2, 77088, Note_on_c, 0, 69, 80
2, 77103, Note_on_c, 0, 73, 0
2, 77103, Note_on_c, 0, 69, 0
2, 77160, Note_on_c, 0, 74, 80
2, 77172, Note_on_c, 0, 74, 0
2, 77172, Note_on_c, 0, 76, 80
2, 77184, Note_on_c, 0, 76, 0
2, 77184, Note_on_c, 0, 78, 102
2, 77232, Note_on_c, 0, 78, 0
2, 77232, Note_on_c, 0, 76, 86
2, 77252, Note_on_c, 0, 76, 0
2, 77280, Note_on_c, 0, 74, 86
2, 77300, Note_on_c, 0, 74, 0
2, 77328, Note_on_c, 0, 73, 86
2, 77348, Note_on_c, 0, 73, 0
2, 77376, Note_on_c, 0, 71, 86
2, 77396, Note_on_c, 0, 71, 0
2, 77424, Note_on_c, 0, 69, 86
2, 77444, Note_on_c, 0, 69, 0
2, 77472, Note_on_c, 0, 68, 86
2, 77492, Note_on_c, 0, 68, 0
2, 77520, Note_on_c, 0, 66, 86
2, 77540, Note_on_c, 0, 66, 0
2, 77568, Note_on_c, 0, 64, 80
2, 77588, Note_on_c, 0, 64, 0
2, 77616, Note_on_c, 0, 62, 78
2, 77636, Note_on_c, 0, 62, 0
2, 77664, Note_on_c, 0, 61, 77
2, 77684, Note_on_c, 0, 61, 0
2, 77712, Note_on_c, 0, 59, 76
2, 77732, Note_on_c, 0, 59, 0
2, 77760, Note_on_c, 0, 57, 75
2, 77780, Note_on_c, 0, 57, 0
2, 77808, Note_on_c, 0, 56, 73
2, 77828, Note_on_c, 0, 56, 0
2, 77856, Note_on_c, 0, 54, 72
2, 77876, Note_on_c, 0, 54, 0
2, 77904, Note_on_c, 0, 52, 71
2, 77924, Note_on_c, 0, 52, 0
2, 77952, Note_on_c, 0, 66, 64
2, 77952, Note_on_c, 0, 62, 64
2, 77952, Note_on_c, 0, 57, 64
2, 77991, Note_on_c, 0, 66, 0
2, 77991, Note_on_c, 0, 62, 0
2, 77991, Note_on_c, 0, 57, 0
2, 78144, Note_on_c, 0, 68, 64
2, 78144, Note_on_c, 0, 64, 64
2, 78144, Note_on_c, 0, 62, 64
2, 78144, Note_on_c, 0, 59, 64
2, 78183, Note_on_c, 0, 68, 0
2, 78183, Note_on_c, 0, 64, 0
2, 78183, Note_on_c, 0, 62, 0
2, 78183, Note_on_c, 0, 59, 0
2, 78336, Note_on_c, 0, 61, 80
2, 78360, Note_on_c, 0, 61, 0
2, 78360, Note_on_c, 0, 57, 80
2, 78383, Note_on_c, 0, 57, 0
2, 78384, Note_on_c, 0, 64, 80
2, 78394, Note_on_c, 0, 64, 0
2, 78408, Note_on_c, 0, 64, 80
2, 78418, Note_on_c, 0, 64, 0
2, 78432, Note_on_c, 0, 64, 81
2, 78456, Note_on_c, 0, 64, 0
2, 78456, Note_on_c, 0, 61, 81
2, 78479, Note_on_c, 0, 61, 0
2, 78480, Note_on_c, 0, 69, 81
2, 78490, Note_on_c, 0, 69, 0
2, 78504, Note_on_c, 0, 69, 81
2, 78514, Note_on_c, 0, 69, 0
2, 78528, Note_on_c, 0, 69, 82
2, 78552, Note_on_c, 0, 69, 0
2, 78552, Note_on_c, 0, 64, 82
2, 78575, Note_on_c, 0, 64, 0
2, 78576, Note_on_c, 0, 73, 82
2, 78586, Note_on_c, 0, 73, 0
2, 78600, Note_on_c, 0, 73, 82
2, 78610, Note_on_c, 0, 73, 0
2, 78624, Note_on_c, 0, 73, 83
2, 78648, Note_on_c, 0, 73, 0
2, 78648, Note_on_c, 0, 69, 83
2, 78671, Note_on_c, 0, 69, 0
2, 78672, Note_on_c, 0, 76, 83
2, 78682, Note_on_c, 0, 76, 0
2, 78696, Note_on_c, 0, 76, 83
2, 78706, Note_on_c, 0, 76, 0
2, 78720, Note_on_c, 0, 76, 84
2, 78744, Note_on_c, 0, 76, 0
2, 78744, Note_on_c, 0, 73, 84
2, 78767, Note_on_c, 0, 73, 0
2, 78768, Note_on_c, 0, 81, 84
2, 78778, Note_on_c, 0, 81, 0
2, 78792, Note_on_c, 0, 81, 84
2, 78802, Note_on_c, 0, 81, 0
2, 78816, Note_on_c, 0, 81, 85
2, 78840, Note_on_c, 0, 81, 0
2, 78840, Note_on_c, 0, 76, 85
2, 78863, Note_on_c, 0, 76, 0
2, 78864, Note_on_c, 0, 85, 85
2, 78874, Note_on_c, 0, 85, 0
2, 78888, Note_on_c, 0, 85, 85
2, 78898, Note_on_c, 0, 85, 0
2, 78912, Note_on_c, 0, 85, 86
2, 78951, Note_on_c, 0, 85, 0
2, 79104, Note_on_c, 0, 80, 64
2, 79127, Note_on_c, 0, 80, 0
2, 79128, Note_on_c, 0, 78, 64
2, 79151, Note_on_c, 0, 78, 0
2, 79152, Note_on_c, 0, 80, 64
2, 79175, Note_on_c, 0, 80, 0
2, 79176, Note_on_c, 0, 76, 64
2, 79199, Note_on_c, 0, 76, 0
2, 79200, Note_on_c, 0, 81, 64
2, 79239, Note_on_c, 0, 81, 0
2, 79488, Note_on_c, 0, 68, 80
2, 79511, Note_on_c, 0, 68, 0
2, 79512, Note_on_c, 0, 66, 80
2, 79535, Note_on_c, 0, 66, 0
2, 79536, Note_on_c, 0, 68, 80
2, 79559, Note_on_c, 0, 68, 0
2, 79560, Note_on_c, 0, 64, 80
2, 79583, Note_on_c, 0, 64, 0
2, 79584, Note_on_c, 0, 69, 80
2, 79673, Note_on_c, 0, 69, 0
2, 80256, End_track
3, 0, Start_track
3, 0, Program_c, 0, 0
3, 0, Control_c, 0, 7, 127
3, 0, Control_c, 0, 10, 64
3, 10176, Note_on_c, 0, 71, 64
3, 10368, Note_on_c, 0, 71, 0
3, 10368, Note_on_c, 0, 69, 65
3, 10407, Note_on_c, 0, 69, 0
3, 10560, Note_on_c, 0, 69, 66
3, 10752, Note_on_c, 0, 69, 0
3, 10752, Note_on_c, 0, 67, 68
3, 10791, Note_on_c, 0, 67, 0
3, 10944, Note_on_c, 0, 63, 69
3, 11136, Note_on_c, 0, 63, 0
3, 11136, Note_on_c, 0, 64, 71
3, 11175, Note_on_c, 0, 64, 0
3, 11328, Note_on_c, 0, 62, 72
3, 11520, Note_on_c, 0, 62, 0
3, 11520, Note_on_c, 0, 60, 74
3, 11559, Note_on_c, 0, 60, 0
3, 25536, Note_on_c, 0, 71, 64
3, 25728, Note_on_c, 0, 71, 0
3, 25728, Note_on_c, 0, 69, 65
3, 25767, Note_on_c, 0, 69, 0
3, 25920, Note_on_c, 0, 69, 66
3, 26112, Note_on_c, 0, 69, 0
3, 26112, Note_on_c, 0, 67, 68
3, 26151, Note_on_c, 0, 67, 0
3, 26304, Note_on_c, 0, 63, 69
3, 26496, Note_on_c, 0, 63, 0
3, 26496, Note_on_c, 0, 64, 71
3, 26535, Note_on_c, 0, 64, 0
3, 26688, Note_on_c, 0, 62, 72
3, 26880, Note_on_c, 0, 62, 0
3, 26880, Note_on_c, 0, 60, 74
3, 26919, Note_on_c, 0, 60, 0
3, 50112, Note_on_c, 0, 76, 64
3, 50304, Note_on_c, 0, 76, 0
3, 50304, Note_on_c, 0, 74, 66
3, 50343, Note_on_c, 0, 74, 0
3, 54912, Note_on_c, 0, 62, 80
3, 55001, Note_on_c, 0, 62, 0
3, 55008, Note_on_c, 0, 61, 80
3, 55097, Note_on_c, 0, 61, 0
3, 74688, Note_on_c, 0, 76, 64
3, 74880, Note_on_c, 0, 76, 0
3, 74880, Note_on_c, 0, 74, 66
3, 74919, Note_on_c, 0, 74, 0
3, 79488, Note_on_c, 0, 62, 80
3, 79577, Note_on_c, 0, 62, 0
3, 79584, Note_on_c, 0, 61, 80
3, 79673, Note_on_c, 0, 61, 0
3, 80256, End_track
4, 0, Start_track
4, 0, Program_c, 1, 0
4, 0, Control_c, 1, 7, 127
4, 0, Control_c, 1, 10, 64
4, 192, Note_on_c, 1, 56, 75
4, 215, Note_on_c, 1, 56, 0
4, 216, Note_on_c, 1, 57, 75
4, 239, Note_on_c, 1, 57, 0
4, 240, Note_on_c, 1, 56, 75
4, 263, Note_on_c, 1, 56, 0
4, 264, Note_on_c, 1, 57, 75
4, 287, Note_on_c, 1, 57, 0
4, 288, Note_on_c, 1, 45, 75
4, 327, Note_on_c, 1, 45, 0
4, 576, Note_on_c, 1, 56, 75
4, 599, Note_on_c, 1, 56, 0
4, 600, Note_on_c, 1, 57, 75
4, 623, Note_on_c, 1, 57, 0
4, 624, Note_on_c, 1, 56, 75
4, 647, Note_on_c, 1, 56, 0
4, 648, Note_on_c, 1, 57, 75
4, 671, Note_on_c, 1, 57, 0
4, 672, Note_on_c, 1, 45, 75
4, 711, Note_on_c, 1, 45, 0
4, 1344, Note_on_c, 1, 59, 75
4, 1344, Note_on_c, 1, 52, 75
4, 1521, Note_on_c, 1, 59, 0
4, 1521, Note_on_c, 1, 52, 0
4, 1584, Note_on_c, 1, 45, 75
4, 1629, Note_on_c, 1, 45, 0
4, 1632, Note_on_c, 1, 49, 75
4, 1677, Note_on_c, 1, 49, 0
4, 1680, Note_on_c, 1, 52, 75
4, 1725, Note_on_c, 1, 52, 0
4, 1728, Note_on_c, 1, 57, 75
4, 1817, Note_on_c, 1, 57, 0
4, 2016, Note_on_c, 1, 62, 75
4, 2039, Note_on_c, 1, 62, 0
4, 2040, Note_on_c, 1, 61, 75
4, 2063, Note_on_c, 1, 61, 0
4, 2064, Note_on_c, 1, 62, 75
4, 2087, Note_on_c, 1, 62, 0
4, 2088, Note_on_c, 1, 61, 75
4, 2111, Note_on_c, 1, 61, 0
4, 2112, Note_on_c, 1, 62, 75
4, 2201, Note_on_c, 1, 62, 0
4, 2400, Note_on_c, 1, 64, 75
4, 2423, Note_on_c, 1, 64, 0
4, 2424, Note_on_c, 1, 63, 75
4, 2447, Note_on_c, 1, 63, 0
4, 2448, Note_on_c, 1, 64, 75
4, 2471, Note_on_c, 1, 64, 0
4, 2472, Note_on_c, 1, 63, 75
4, 2495, Note_on_c, 1, 63, 0
4, 2496, Note_on_c, 1, 64, 75
4, 2585, Note_on_c, 1, 64, 0
4, 2784, Note_on_c, 1, 68, 75
4, 2807, Note_on_c, 1, 68, 0
4, 2808, Note_on_c, 1, 66, 75
4, 2831, Note_on_c, 1, 66, 0
4, 2832, Note_on_c, 1, 68, 75
4, 2855, Note_on_c, 1, 68, 0
4, 2856, Note_on_c, 1, 66, 75
4, 2879, Note_on_c, 1, 66, 0
4, 2880, Note_on_c, 1, 68, 75
4, 2969, Note_on_c, 1, 68, 0
4, 3120, Note_on_c, 1, 49, 75
4, 3165, Note_on_c, 1, 49, 0
4, 3168, Note_on_c, 1, 50, 75
4, 3213, Note_on_c, 1, 50, 0
4, 3216, Note_on_c, 1, 54, 75
4, 3261, Note_on_c, 1, 54, 0
4, 3264, Note_on_c, 1, 52, 75
4, 3353, Note_on_c, 1, 52, 0
4, 3360, Note_on_c, 1, 40, 75
4, 3427, Note_on_c, 1, 40, 0
4, 3648, Note_on_c, 1, 56, 75
4, 3671, Note_on_c, 1, 56, 0
4, 3672, Note_on_c, 1, 57, 75
4, 3695, Note_on_c, 1, 57, 0
4, 3696, Note_on_c, 1, 56, 75
4, 3719, Note_on_c, 1, 56, 0
4, 3720, Note_on_c, 1, 57, 75
4, 3743, Note_on_c, 1, 57, 0
4, 3744, Note_on_c, 1, 45, 75
4, 3783, Note_on_c, 1, 45, 0
4, 4032, Note_on_c, 1, 56, 75
4, 4055, Note_on_c, 1, 56, 0
4, 4056, Note_on_c, 1, 57, 75
4, 4079, Note_on_c, 1, 57, 0
4, 4080, Note_on_c, 1, 56, 75
4, 4103, Note_on_c, 1, 56, 0
4, 4104, Note_on_c, 1, 57, 75
4, 4127, Note_on_c, 1, 57, 0
4, 4128, Note_on_c, 1, 45, 75
4, 4167, Note_on_c, 1, 45, 0
4, 4704, Note_on_c, 1, 73, 58
4, 4704, Note_on_c, 1, 70, 58
4, 4743, Note_on_c, 1, 73, 0
4, 4743, Note_on_c, 1, 70, 0
4, 4800, Note_on_c, 1, 73, 63
4, 4800, Note_on_c, 1, 70, 63
4, 4839, Note_on_c, 1, 73, 0
4, 4839, Note_on_c, 1, 70, 0
4, 4896, Note_on_c, 1, 73, 69
4, 4896, Note_on_c, 1, 70, 69
4, 4935, Note_on_c, 1, 73, 0
4, 4935, Note_on_c, 1, 70, 0
4, 5088, Note_on_c, 1, 71, 70
4, 5088, Note_on_c, 1, 69, 70
4, 5177, Note_on_c, 1, 71, 0
4, 5177, Note_on_c, 1, 69, 0
4, 5184, Note_on_c, 1, 71, 66
4, 5184, Note_on_c, 1, 68, 66
4, 5223, Note_on_c, 1, 71, 0
4, 5223, Note_on_c, 1, 68, 0
4, 5280, Note_on_c, 1, 71, 62
4, 5280, Note_on_c, 1, 68, 62
4, 5319, Note_on_c, 1, 71, 0
4, 5319, Note_on_c, 1, 68, 0
4, 5472, Note_on_c, 1, 71, 58
4, 5472, Note_on_c, 1, 68, 58
4, 5511, Note_on_c, 1, 71, 0
4, 5511, Note_on_c, 1, 68, 0
4, 5568, Note_on_c, 1, 71, 60
4, 5568, Note_on_c, 1, 68, 60
4, 5607, Note_on_c, 1, 71, 0
4, 5607, Note_on_c, 1, 68, 0
4, 5664, Note_on_c, 1, 71, 62
4, 5664, Note_on_c, 1, 68, 62
4, 5703, Note_on_c, 1, 71, 0
4, 5703, Note_on_c, 1, 68, 0
4, 5856, Note_on_c, 1, 70, 67
4, 5856, Note_on_c, 1, 67, 67
4, 5945, Note_on_c, 1, 70, 0
4, 5945, Note_on_c, 1, 67, 0
4, 5952, Note_on_c, 1, 69, 70
4, 5952, Note_on_c, 1, 66, 70
4, 5991, Note_on_c, 1, 69, 0
4, 5991, Note_on_c, 1, 66, 0
4, 6528, Note_on_c, 1, 63, 80
4, 6551, Note_on_c, 1, 63, 0
4, 6552, Note_on_c, 1, 64, 80
4, 6575, Note_on_c, 1, 64, 0
4, 6576, Note_on_c, 1, 63, 80
4, 6599, Note_on_c, 1, 63, 0
4, 6600, Note_on_c, 1, 64, 80
4, 6623, Note_on_c, 1, 64, 0
4, 6624, Note_on_c, 1, 52, 80
4, 6713, Note_on_c, 1, 52, 0
4, 6912, Note_on_c, 1, 58, 80
4, 6935, Note_on_c, 1, 58, 0
4, 6936, Note_on_c, 1, 59, 80
4, 6959, Note_on_c, 1, 59, 0
4, 6960, Note_on_c, 1, 58, 80
4, 6983, Note_on_c, 1, 58, 0
4, 6984, Note_on_c, 1, 59, 80
4, 7007, Note_on_c, 1, 59, 0
4, 7008, Note_on_c, 1, 47, 80
4, 7097, Note_on_c, 1, 47, 0
4, 7296, Note_on_c, 1, 56, 80
4, 7296, Note_on_c, 1, 52, 80
4, 7561, Note_on_c, 1, 56, 0
4, 7561, Note_on_c, 1, 52, 0
4, 8064, Note_on_c, 1, 47, 80
4, 8094, Note_on_c, 1, 47, 0
4, 8096, Note_on_c, 1, 54, 80
4, 8126, Note_on_c, 1, 54, 0
4, 8128, Note_on_c, 1, 51, 80
4, 8158, Note_on_c, 1, 51, 0
4, 8160, Note_on_c, 1, 57, 80
4, 8190, Note_on_c, 1, 57, 0
4, 8192, Note_on_c, 1, 54, 80
4, 8222, Note_on_c, 1, 54, 0
4, 8224, Note_on_c, 1, 63, 80
4, 8254, Note_on_c, 1, 63, 0
4, 8256, Note_on_c, 1, 59, 80
4, 8286, Note_on_c, 1, 59, 0
4, 8288, Note_on_c, 1, 66, 80
4, 8318, Note_on_c, 1, 66, 0
4, 8320, Note_on_c, 1, 63, 80
4, 8350, Note_on_c, 1, 63, 0
4, 8352, Note_on_c, 1, 73, 80
4, 8382, Note_on_c, 1, 73, 0
4, 8384, Note_on_c, 1, 71, 80
4, 8414, Note_on_c, 1, 71, 0
4, 8416, Note_on_c, 1, 69, 80
4, 8446, Note_on_c, 1, 69, 0
4, 8448, Note_on_c, 1, 68, 80
4, 8471, Note_on_c, 1, 68, 0
4, 8472, Note_on_c, 1, 66, 80
4, 8495, Note_on_c, 1, 66, 0
4, 8496, Note_on_c, 1, 64, 80
4, 8519, Note_on_c, 1, 64, 0
4, 8520, Note_on_c, 1, 63, 80
4, 8543, Note_on_c, 1, 63, 0
4, 8544, Note_on_c, 1, 60, 96
4, 8736, Note_on_c, 1, 60, 0
4, 8736, Note_on_c, 1, 60, 96
4, 8832, Note_on_c, 1, 60, 0
4, 8832, Note_on_c, 1, 71, 80
4, 8928, Note_on_c, 1, 71, 0
4, 8928, Note_on_c, 1, 69, 78
4, 9017, Note_on_c, 1, 69, 0
4, 9024, Note_on_c, 1, 69, 77
4, 9120, Note_on_c, 1, 69, 0
4, 9120, Note_on_c, 1, 67, 76
4, 9209, Note_on_c, 1, 67, 0
4, 9216, Note_on_c, 1, 67, 75
4, 9312, Note_on_c, 1, 67, 0
4, 9312, Note_on_c, 1, 65, 73
4, 9401, Note_on_c, 1, 65, 0
4, 9408, Note_on_c, 1, 65, 72
4, 9504, Note_on_c, 1, 65, 0
4, 9504, Note_on_c, 1, 64, 71
4, 9593, Note_on_c, 1, 64, 0
4, 9648, Note_on_c, 1, 67, 70
4, 9648, Note_on_c, 1, 64, 70
4, 9693, Note_on_c, 1, 67, 0
4, 9693, Note_on_c, 1, 64, 0
4, 9696, Note_on_c, 1, 66, 70
4, 9696, Note_on_c, 1, 63, 70
4, 9741, Note_on_c, 1, 66, 0
4, 9741, Note_on_c, 1, 63, 0
4, 9744, Note_on_c, 1, 64, 70
4, 9744, Note_on_c, 1, 61, 70
4, 9789, Note_on_c, 1, 64, 0
4, 9789, Note_on_c, 1, 61, 0
4, 9792, Note_on_c, 1, 63, 70
4, 9792, Note_on_c, 1, 59, 70
4, 9837, Note_on_c, 1, 63, 0
4, 9837, Note_on_c, 1, 59, 0
4, 12288, Note_on_c, 1, 68, 86
4, 12311, Note_on_c, 1, 68, 0
4, 12312, Note_on_c, 1, 69, 86
4, 12335, Note_on_c, 1, 69, 0
4, 12336, Note_on_c, 1, 68, 86
4, 12359, Note_on_c, 1, 68, 0
4, 12360, Note_on_c, 1, 69, 86
4, 12383, Note_on_c, 1, 69, 0
4, 12384, Note_on_c, 1, 69, 86
4, 12404, Note_on_c, 1, 69, 0
4, 12480, Note_on_c, 1, 63, 86
4, 12503, Note_on_c, 1, 63, 0
4, 12504, Note_on_c, 1, 64, 86
4, 12527, Note_on_c, 1, 64, 0
4, 12528, Note_on_c, 1, 63, 86
4, 12551, Note_on_c, 1, 63, 0
4, 12552, Note_on_c, 1, 64, 86
4, 12575, Note_on_c, 1, 64, 0
4, 12576, Note_on_c, 1, 64, 86
4, 12596, Note_on_c, 1, 64, 0
4, 12672, Note_on_c, 1, 58, 86
4, 12695, Note_on_c, 1, 58, 0
4, 12696, Note_on_c, 1, 59, 86
4, 12719, Note_on_c, 1, 59, 0
4, 12720, Note_on_c, 1, 58, 86
4, 12743, Note_on_c, 1, 58, 0
4, 12744, Note_on_c, 1, 59, 86
4, 12767, Note_on_c, 1, 59, 0
4, 12768, Note_on_c, 1, 59, 86
4, 12788, Note_on_c, 1, 59, 0
4, 12864, Note_on_c, 1, 51, 86
4, 12887, Note_on_c, 1, 51, 0
4, 12888, Note_on_c, 1, 52, 86
4, 12911, Note_on_c, 1, 52, 0
4, 12912, Note_on_c, 1, 51, 86
4, 12935, Note_on_c, 1, 51, 0
4, 12936, Note_on_c, 1, 52, 86
4, 12959, Note_on_c, 1, 52, 0
4, 12960, Note_on_c, 1, 52, 86
4, 12980, Note_on_c, 1, 52, 0
4, 13056, Note_on_c, 1, 33, 86
4, 13233, Note_on_c, 1, 33, 0
4, 13440, Note_on_c, 1, 59, 80
4, 13460, Note_on_c, 1, 59, 0
4, 13488, Note_on_c, 1, 57, 78
4, 13508, Note_on_c, 1, 57, 0
4, 13536, Note_on_c, 1, 56, 77
4, 13556, Note_on_c, 1, 56, 0
4, 13584, Note_on_c, 1, 54, 76
4, 13604, Note_on_c, 1, 54, 0
4, 13632, Note_on_c, 1, 52, 75
4, 13652, Note_on_c, 1, 52, 0
4, 13680, Note_on_c, 1, 51, 73
4, 13700, Note_on_c, 1, 51, 0
4, 13728, Note_on_c, 1, 49, 72
4, 13748, Note_on_c, 1, 49, 0
4, 13776, Note_on_c, 1, 47, 71
4, 13796, Note_on_c, 1, 47, 0
4, 13824, Note_on_c, 1, 45, 64
4, 13913, Note_on_c, 1, 45, 0
4, 14016, Note_on_c, 1, 47, 64
4, 14105, Note_on_c, 1, 47, 0
4, 14208, Note_on_c, 1, 52, 64
4, 14208, Note_on_c, 1, 40, 64
4, 14297, Note_on_c, 1, 52, 0
4, 14297, Note_on_c, 1, 40, 0
4, 14592, Note_on_c, 1, 68, 80
4, 14616, Note_on_c, 1, 68, 0
4, 14616, Note_on_c, 1, 64, 80
4, 14639, Note_on_c, 1, 64, 0
4, 14640, Note_on_c, 1, 71, 81
4, 14650, Note_on_c, 1, 71, 0
4, 14664, Note_on_c, 1, 71, 82
4, 14674, Note_on_c, 1, 71, 0
4, 14688, Note_on_c, 1, 71, 83
4, 14712, Note_on_c, 1, 71, 0
4, 14712, Note_on_c, 1, 68, 84
4, 14735, Note_on_c, 1, 68, 0
4, 14736, Note_on_c, 1, 76, 85
4, 14746, Note_on_c, 1, 76, 0
4, 14760, Note_on_c, 1, 76, 86
4, 14770, Note_on_c, 1, 76, 0
4, 14784, Note_on_c, 1, 76, 86
4, 14823, Note_on_c, 1, 76, 0
4, 14976, Note_on_c, 1, 83, 64
4, 15015, Note_on_c, 1, 83, 0
4, 15072, Note_on_c, 1, 80, 64
4, 15111, Note_on_c, 1, 80, 0
4, 15552, Note_on_c, 1, 56, 75
4, 15575, Note_on_c, 1, 56, 0
4, 15576, Note_on_c, 1, 57, 75
4, 15599, Note_on_c, 1, 57, 0
4, 15600, Note_on_c, 1, 56, 75
4, 15623, Note_on_c, 1, 56, 0
4, 15624, Note_on_c, 1, 57, 75
4, 15647, Note_on_c, 1, 57, 0
4, 15648, Note_on_c, 1, 45, 75
4, 15687, Note_on_c, 1, 45, 0
4, 15936, Note_on_c, 1, 56, 75
4, 15959, Note_on_c, 1, 56, 0
4, 15960, Note_on_c, 1, 57, 75
4, 15983, Note_on_c, 1, 57, 0
4, 15984, Note_on_c, 1, 56, 75
4, 16007, Note_on_c, 1, 56, 0
4, 16008, Note_on_c, 1, 57, 75
4, 16031, Note_on_c, 1, 57, 0
4, 16032, Note_on_c, 1, 45, 75
4, 16071, Note_on_c, 1, 45, 0
4, 16704, Note_on_c, 1, 59, 75
4, 16704, Note_on_c, 1, 52, 75
4, 16881, Note_on_c, 1, 59, 0
4, 16881, Note_on_c, 1, 52, 0
4, 16944, Note_on_c, 1, 45, 75
4, 16989, Note_on_c, 1, 45, 0
4, 16992, Note_on_c, 1, 49, 75
4, 17037, Note_on_c, 1, 49, 0
4, 17040, Note_on_c, 1, 52, 75
4, 17085, Note_on_c, 1, 52, 0
4, 17088, Note_on_c, 1, 57, 75
4, 17177, Note_on_c, 1, 57, 0
4, 17376, Note_on_c, 1, 62, 75
4, 17399, Note_on_c, 1, 62, 0
4, 17400, Note_on_c, 1, 61, 75
4, 17423, Note_on_c, 1, 61, 0
4, 17424, Note_on_c, 1, 62, 75
4, 17447, Note_on_c, 1, 62, 0
4, 17448, Note_on_c, 1, 61, 75
4, 17471, Note_on_c, 1, 61, 0
4, 17472, Note_on_c, 1, 62, 75
4, 17561, Note_on_c, 1, 62, 0
4, 17760, Note_on_c, 1, 64, 75
4, 17783, Note_on_c, 1, 64, 0
4, 17784, Note_on_c, 1, 63, 75
4, 17807, Note_on_c, 1, 63, 0
4, 17808, Note_on_c, 1, 64, 75
4, 17831, Note_on_c, 1, 64, 0
4, 17832, Note_on_c, 1, 63, 75
4, 17855, Note_on_c, 1, 63, 0
4, 17856, Note_on_c, 1, 64, 75
4, 17945, Note_on_c, 1, 64, 0
4, 18144, Note_on_c, 1, 68, 75
4, 18167, Note_on_c, 1, 68, 0
4, 18168, Note_on_c, 1, 66, 75
4, 18191, Note_on_c, 1, 66, 0
4, 18192, Note_on_c, 1, 68, 75
4, 18215, Note_on_c, 1, 68, 0
4, 18216, Note_on_c, 1, 66, 75
4, 18239, Note_on_c, 1, 66, 0
4, 18240, Note_on_c, 1, 68, 75
4, 18329, Note_on_c, 1, 68, 0
4, 18480, Note_on_c, 1, 49, 75
4, 18525, Note_on_c, 1, 49, 0
4, 18528, Note_on_c, 1, 50, 75
4, 18573, Note_on_c, 1, 50, 0
4, 18576, Note_on_c, 1, 54, 75
4, 18621, Note_on_c, 1, 54, 0
4, 18624, Note_on_c, 1, 52, 75
4, 18713, Note_on_c, 1, 52, 0
4, 18720, Note_on_c, 1, 40, 75
4, 18787, Note_on_c, 1, 40, 0
4, 19008, Note_on_c, 1, 56, 75
4, 19031, Note_on_c, 1, 56, 0
4, 19032, Note_on_c, 1, 57, 75
4, 19055, Note_on_c, 1, 57, 0
4, 19056, Note_on_c, 1, 56, 75
4, 19079, Note_on_c, 1, 56, 0
4, 19080, Note_on_c, 1, 57, 75
4, 19103, Note_on_c, 1, 57, 0
4, 19104, Note_on_c, 1, 45, 75
4, 19143, Note_on_c, 1, 45, 0
4, 19392, Note_on_c, 1, 56, 75
4, 19415, Note_on_c, 1, 56, 0
4, 19416, Note_on_c, 1, 57, 75
4, 19439, Note_on_c, 1, 57, 0
4, 19440, Note_on_c, 1, 56, 75
4, 19463, Note_on_c, 1, 56, 0
4, 19464, Note_on_c, 1, 57, 75
4, 19487, Note_on_c, 1, 57, 0
4, 19488, Note_on_c, 1, 45, 75
4, 19527, Note_on_c, 1, 45, 0
4, 20064, Note_on_c, 1, 73, 58
4, 20064, Note_on_c, 1, 70, 58
4, 20103, Note_on_c, 1, 73, 0
4, 20103, Note_on_c, 1, 70, 0
4, 20160, Note_on_c, 1, 73, 63
4, 20160, Note_on_c, 1, 70, 63
4, 20199, Note_on_c, 1, 73, 0
4, 20199, Note_on_c, 1, 70, 0
4, 20256, Note_on_c, 1, 73, 69
4, 20256, Note_on_c, 1, 70, 69
4, 20295, Note_on_c, 1, 73, 0
4, 20295, Note_on_c, 1, 70, 0
4, 20448, Note_on_c, 1, 71, 70
4, 20448, Note_on_c, 1, 69, 70
4, 20537, Note_on_c, 1, 71, 0
4, 20537, Note_on_c, 1, 69, 0
4, 20544, Note_on_c, 1, 71, 66
4, 20544, Note_on_c, 1, 68, 66
4, 20583, Note_on_c, 1, 71, 0
4, 20583, Note_on_c, 1, 68, 0
4, 20640, Note_on_c, 1, 71, 62
4, 20640, Note_on_c, 1, 68, 62
4, 20679, Note_on_c, 1, 71, 0
4, 20679, Note_on_c, 1, 68, 0
4, 20832, Note_on_c, 1, 71, 58
4, 20832, Note_on_c, 1, 68, 58
4, 20871, Note_on_c, 1, 71, 0
4, 20871, Note_on_c, 1, 68, 0
4, 20928, Note_on_c, 1, 71, 60
4, 20928, Note_on_c, 1, 68, 60
4, 20967, Note_on_c, 1, 71, 0
4, 20967, Note_on_c, 1, 68, 0
4, 21024, Note_on_c, 1, 71, 62
4, 21024, Note_on_c, 1, 68, 62
4, 21063, Note_on_c, 1, 71, 0
4, 21063, Note_on_c, 1, 68, 0
4, 21216, Note_on_c, 1, 70, 67
4, 21216, Note_on_c, 1, 67, 67
4, 21305, Note_on_c, 1, 70, 0
4, 21305, Note_on_c, 1, 67, 0
4, 21312, Note_on_c, 1, 69, 70
4, 21312, Note_on_c, 1, 66, 70
4, 21351, Note_on_c, 1, 69, 0
4, 21351, Note_on_c, 1, 66, 0
4, 21888, Note_on_c, 1, 63, 80
4, 21911, Note_on_c, 1, 63, 0
4, 21912, Note_on_c, 1, 64, 80
4, 21935, Note_on_c, 1, 64, 0
4, 21936, Note_on_c, 1, 63, 80
4, 21959, Note_on_c, 1, 63, 0
4, 21960, Note_on_c, 1, 64, 80
4, 21983, Note_on_c, 1, 64, 0
4, 21984, Note_on_c, 1, 52, 80
4, 22073, Note_on_c, 1, 52, 0
4, 22272, Note_on_c, 1, 58, 80
4, 22295, Note_on_c, 1, 58, 0
4, 22296, Note_on_c, 1, 59, 80
4, 22319, Note_on_c, 1, 59, 0
4, 22320, Note_on_c, 1, 58, 80
4, 22343, Note_on_c, 1, 58, 0
4, 22344, Note_on_c, 1, 59, 80
4, 22367, Note_on_c, 1, 59, 0
4, 22368, Note_on_c, 1, 47, 80
4, 22457, Note_on_c, 1, 47, 0
4, 22656, Note_on_c, 1, 56, 80
4, 22656, Note_on_c, 1, 52, 80
4, 22921, Note_on_c, 1, 56, 0
4, 22921, Note_on_c, 1, 52, 0
4, 23424, Note_on_c, 1, 47, 80
4, 23454, Note_on_c, 1, 47, 0
4, 23456, Note_on_c, 1, 54, 80
4, 23486, Note_on_c, 1, 54, 0
4, 23488, Note_on_c, 1, 51, 80
4, 23518, Note_on_c, 1, 51, 0
4, 23520, Note_on_c, 1, 57, 80
4, 23550, Note_on_c, 1, 57, 0
4, 23552, Note_on_c, 1, 54, 80
4, 23582, Note_on_c, 1, 54, 0
4, 23584, Note_on_c, 1, 63, 80
4, 23614, Note_on_c, 1, 63, 0
4, 23616, Note_on_c, 1, 59, 80
4, 23646, Note_on_c, 1, 59, 0
4, 23648, Note_on_c, 1, 66, 80
4, 23678, Note_on_c, 1, 66, 0
4, 23680, Note_on_c, 1, 63, 80
4, 23710, Note_on_c, 1, 63, 0
4, 23712, Note_on_c, 1, 73, 80
4, 23742, Note_on_c, 1, 73, 0
4, 23744, Note_on_c, 1, 71, 80
4, 23774, Note_on_c, 1, 71, 0
4, 23776, Note_on_c, 1, 69, 80
4, 23806, Note_on_c, 1, 69, 0
4, 23808, Note_on_c, 1, 68, 80
4, 23831, Note_on_c, 1, 68, 0
4, 23832, Note_on_c, 1, 66, 80
4, 23855, Note_on_c, 1, 66, 0
4, 23856, Note_on_c, 1, 64, 80
4, 23879, Note_on_c, 1, 64, 0
4, 23880, Note_on_c, 1, 63, 80
4, 23903, Note_on_c, 1, 63, 0
4, 23904, Note_on_c, 1, 60, 96
4, 24096, Note_on_c, 1, 60, 0
4, 24096, Note_on_c, 1, 60, 96
4, 24192, Note_on_c, 1, 60, 0
4, 24192, Note_on_c, 1, 71, 80
4, 24288, Note_on_c, 1, 71, 0
4, 24288, Note_on_c, 1, 69, 78
4, 24377, Note_on_c, 1, 69, 0
4, 24384, Note_on_c, 1, 69, 77
4, 24480, Note_on_c, 1, 69, 0
4, 24480, Note_on_c, 1, 67, 76
4, 24569, Note_on_c, 1, 67, 0
4, 24576, Note_on_c, 1, 67, 75
4, 24672, Note_on_c, 1, 67, 0
4, 24672, Note_on_c, 1, 65, 73
4, 24761, Note_on_c, 1, 65, 0
4, 24768, Note_on_c, 1, 65, 72
4, 24864, Note_on_c, 1, 65, 0
4, 24864, Note_on_c, 1, 64, 71
4, 24953, Note_on_c, 1, 64, 0
4, 25008, Note_on_c, 1, 67, 70
4, 25008, Note_on_c, 1, 64, 70
4, 25053, Note_on_c, 1, 67, 0
4, 25053, Note_on_c, 1, 64, 0
4, 25056, Note_on_c, 1, 66, 70
4, 25056, Note_on_c, 1, 63, 70
4, 25101, Note_on_c, 1, 66, 0
4, 25101, Note_on_c, 1, 63, 0
4, 25104, Note_on_c, 1, 64, 70
4, 25104, Note_on_c, 1, 61, 70
4, 25149, Note_on_c, 1, 64, 0
4, 25149, Note_on_c, 1, 61, 0
4, 25152, Note_on_c, 1, 63, 70
4, 25152, Note_on_c, 1, 59, 70
4, 25197, Note_on_c, 1, 63, 0
4, 25197, Note_on_c, 1, 59, 0
4, 27648, Note_on_c, 1, 68, 86
4, 27671, Note_on_c, 1, 68, 0
4, 27672, Note_on_c, 1, 69, 86
4, 27695, Note_on_c, 1, 69, 0
4, 27696, Note_on_c, 1, 68, 86
4, 27719, Note_on_c, 1, 68, 0
4, 27720, Note_on_c, 1, 69, 86
4, 27743, Note_on_c, 1, 69, 0
4, 27744, Note_on_c, 1, 69, 86
4, 27764, Note_on_c, 1, 69, 0
4, 27840, Note_on_c, 1, 63, 86
4, 27863, Note_on_c, 1, 63, 0
4, 27864, Note_on_c, 1, 64, 86
4, 27887, Note_on_c, 1, 64, 0
4, 27888, Note_on_c, 1, 63, 86
4, 27911, Note_on_c, 1, 63, 0
4, 27912, Note_on_c, 1, 64, 86
4, 27935, Note_on_c, 1, 64, 0
4, 27936, Note_on_c, 1, 64, 86
4, 27956, Note_on_c, 1, 64, 0
4, 28032, Note_on_c, 1, 58, 86
4, 28055, Note_on_c, 1, 58, 0
4, 28056, Note_on_c, 1, 59, 86
4, 28079, Note_on_c, 1, 59, 0
4, 28080, Note_on_c, 1, 58, 86
4, 28103, Note_on_c, 1, 58, 0
4, 28104, Note_on_c, 1, 59, 86
4, 28127, Note_on_c, 1, 59, 0
4, 28128, Note_on_c, 1, 59, 86
4, 28148, Note_on_c, 1, 59, 0
4, 28224, Note_on_c, 1, 51, 86
4, 28247, Note_on_c, 1, 51, 0
4, 28248, Note_on_c, 1, 52, 86
4, 28271, Note_on_c, 1, 52, 0
4, 28272, Note_on_c, 1, 51, 86
4, 28295, Note_on_c, 1, 51, 0
4, 28296, Note_on_c, 1, 52, 86
4, 28319, Note_on_c, 1, 52, 0
4, 28320, Note_on_c, 1, 52, 86
4, 28340, Note_on_c, 1, 52, 0
4, 28416, Note_on_c, 1, 33, 86
4, 28593, Note_on_c, 1, 33, 0
4, 28800, Note_on_c, 1, 59, 80
4, 28820, Note_on_c, 1, 59, 0
4, 28848, Note_on_c, 1, 57, 78
4, 28868, Note_on_c, 1, 57, 0
4, 28896, Note_on_c, 1, 56, 77
4, 28916, Note_on_c, 1, 56, 0
4, 28944, Note_on_c, 1, 54, 76
4, 28964, Note_on_c, 1, 54, 0
4, 28992, Note_on_c, 1, 52, 75
4, 29012, Note_on_c, 1, 52, 0
4, 29040, Note_on_c, 1, 51, 73
4, 29060, Note_on_c, 1, 51, 0
4, 29088, Note_on_c, 1, 49, 72
4, 29108, Note_on_c, 1, 49, 0
4, 29136, Note_on_c, 1, 47, 71
4, 29156, Note_on_c, 1, 47, 0
4, 29184, Note_on_c, 1, 45, 64
4, 29273, Note_on_c, 1, 45, 0
4, 29376, Note_on_c, 1, 47, 64
4, 29465, Note_on_c, 1, 47, 0
4, 29568, Note_on_c, 1, 52, 64
4, 29568, Note_on_c, 1, 40, 64
4, 29657, Note_on_c, 1, 52, 0
4, 29657, Note_on_c, 1, 40, 0
4, 29952, Note_on_c, 1, 68, 80
4, 29976, Note_on_c, 1, 68, 0
4, 29976, Note_on_c, 1, 64, 80
4, 29999, Note_on_c, 1, 64, 0
4, 30000, Note_on_c, 1, 71, 81
4, 30010, Note_on_c, 1, 71, 0
4, 30024, Note_on_c, 1, 71, 82
4, 30034, Note_on_c, 1, 71, 0
4, 30048, Note_on_c, 1, 71, 83
4, 30072, Note_on_c, 1, 71, 0
4, 30072, Note_on_c, 1, 68, 84
4, 30095, Note_on_c, 1, 68, 0
4, 30096, Note_on_c, 1, 76, 85
4, 30106, Note_on_c, 1, 76, 0
4, 30120, Note_on_c, 1, 76, 86
4, 30130, Note_on_c, 1, 76, 0
4, 30144, Note_on_c, 1, 76, 86
4, 30183, Note_on_c, 1, 76, 0
4, 30336, Note_on_c, 1, 83, 64
4, 30375, Note_on_c, 1, 83, 0
4, 30432, Note_on_c, 1, 80, 64
4, 30471, Note_on_c, 1, 80, 0
4, 30720, Note_on_c, 1, 60, 80
4, 30720, Note_on_c, 1, 57, 80
4, 30720, Note_on_c, 1, 54, 80
4, 30720, Note_on_c, 1, 51, 80
4, 30897, Note_on_c, 1, 60, 0
4, 30897, Note_on_c, 1, 57, 0
4, 30897, Note_on_c, 1, 54, 0
4, 30897, Note_on_c, 1, 51, 0
4, 31488, Note_on_c, 1, 53, 80
4, 31533, Note_on_c, 1, 53, 0
4, 31536, Note_on_c, 1, 41, 80
4, 31581, Note_on_c, 1, 41, 0
4, 31584, Note_on_c, 1, 53, 80
4, 31629, Note_on_c, 1, 53, 0
4, 31632, Note_on_c, 1, 53, 80
4, 31677, Note_on_c, 1, 53, 0
4, 31680, Note_on_c, 1, 53, 80
4, 31725, Note_on_c, 1, 53, 0
4, 31728, Note_on_c, 1, 41, 80
4, 31773, Note_on_c, 1, 41, 0
4, 31776, Note_on_c, 1, 53, 80
4, 31821, Note_on_c, 1, 53, 0
4, 31824, Note_on_c, 1, 53, 80
4, 31869, Note_on_c, 1, 53, 0
4, 31872, Note_on_c, 1, 52, 80
4, 31961, Note_on_c, 1, 52, 0
4, 31968, Note_on_c, 1, 51, 70
4, 31991, Note_on_c, 1, 51, 0
4, 31992, Note_on_c, 1, 52, 70
4, 32015, Note_on_c, 1, 52, 0
4, 32016, Note_on_c, 1, 51, 70
4, 32039, Note_on_c, 1, 51, 0
4, 32040, Note_on_c, 1, 52, 70
4, 32063, Note_on_c, 1, 52, 0
4, 32064, Note_on_c, 1, 40, 70
4, 32084, Note_on_c, 1, 40, 0
4, 32352, Note_on_c, 1, 51, 70
4, 32375, Note_on_c, 1, 51, 0
4, 32376, Note_on_c, 1, 52, 70
4, 32399, Note_on_c, 1, 52, 0
4, 32400, Note_on_c, 1, 51, 70
4, 32423, Note_on_c, 1, 51, 0
4, 32424, Note_on_c, 1, 52, 70
4, 32447, Note_on_c, 1, 52, 0
4, 32448, Note_on_c, 1, 40, 70
4, 32468, Note_on_c, 1, 40, 0
4, 32736, Note_on_c, 1, 51, 70
4, 32759, Note_on_c, 1, 51, 0
4, 32760, Note_on_c, 1, 52, 70
4, 32783, Note_on_c, 1, 52, 0
4, 32784, Note_on_c, 1, 51, 70
4, 32807, Note_on_c, 1, 51, 0
4, 32808, Note_on_c, 1, 52, 70
4, 32831, Note_on_c, 1, 52, 0
4, 32832, Note_on_c, 1, 40, 70
4, 32852, Note_on_c, 1, 40, 0
4, 33120, Note_on_c, 1, 51, 71
4, 33143, Note_on_c, 1, 51, 0
4, 33144, Note_on_c, 1, 52, 71
4, 33167, Note_on_c, 1, 52, 0
4, 33168, Note_on_c, 1, 51, 72
4, 33191, Note_on_c, 1, 51, 0
4, 33192, Note_on_c, 1, 52, 72
4, 33215, Note_on_c, 1, 52, 0
4, 33216, Note_on_c, 1, 40, 72
4, 33236, Note_on_c, 1, 40, 0
4, 33504, Note_on_c, 1, 51, 76
4, 33527, Note_on_c, 1, 51, 0
4, 33528, Note_on_c, 1, 52, 77
4, 33551, Note_on_c, 1, 52, 0
4, 33552, Note_on_c, 1, 51, 77
4, 33575, Note_on_c, 1, 51, 0
4, 33576, Note_on_c, 1, 52, 77
4, 33599, Note_on_c, 1, 52, 0
4, 33600, Note_on_c, 1, 40, 78
4, 33620, Note_on_c, 1, 40, 0
4, 33888, Note_on_c, 1, 51, 82
4, 33911, Note_on_c, 1, 51, 0
4, 33912, Note_on_c, 1, 52, 82
4, 33935, Note_on_c, 1, 52, 0
4, 33936, Note_on_c, 1, 51, 82
4, 33959, Note_on_c, 1, 51, 0
4, 33960, Note_on_c, 1, 52, 83
4, 33983, Note_on_c, 1, 52, 0
4, 33984, Note_on_c, 1, 40, 83
4, 34004, Note_on_c, 1, 40, 0
4, 34176, Note_on_c, 1, 60, 86
4, 34176, Note_on_c, 1, 48, 86
4, 34196, Note_on_c, 1, 60, 0
4, 34196, Note_on_c, 1, 48, 0
4, 34224, Note_on_c, 1, 59, 86
4, 34224, Note_on_c, 1, 47, 86
4, 34244, Note_on_c, 1, 59, 0
4, 34244, Note_on_c, 1, 47, 0
4, 34272, Note_on_c, 1, 57, 86
4, 34272, Note_on_c, 1, 45, 86
4, 34292, Note_on_c, 1, 57, 0
4, 34292, Note_on_c, 1, 45, 0
4, 34320, Note_on_c, 1, 56, 86
4, 34320, Note_on_c, 1, 44, 86
4, 34340, Note_on_c, 1, 56, 0
4, 34340, Note_on_c, 1, 44, 0
4, 34368, Note_on_c, 1, 53, 86
4, 34368, Note_on_c, 1, 41, 86
4, 34388, Note_on_c, 1, 53, 0
4, 34388, Note_on_c, 1, 41, 0
4, 34416, Note_on_c, 1, 52, 86
4, 34416, Note_on_c, 1, 40, 86
4, 34436, Note_on_c, 1, 52, 0
4, 34436, Note_on_c, 1, 40, 0
4, 34464, Note_on_c, 1, 50, 86
4, 34464, Note_on_c, 1, 38, 86
4, 34484, Note_on_c, 1, 50, 0
4, 34484, Note_on_c, 1, 38, 0
4, 34512, Note_on_c, 1, 48, 86
4, 34512, Note_on_c, 1, 36, 86
4, 34532, Note_on_c, 1, 48, 0
4, 34532, Note_on_c, 1, 36, 0
4, 34560, Note_on_c, 1, 57, 86
4, 34560, Note_on_c, 1, 45, 86
4, 34580, Note_on_c, 1, 57, 0
4, 34580, Note_on_c, 1, 45, 0
4, 34608, Note_on_c, 1, 56, 86
4, 34608, Note_on_c, 1, 44, 86
4, 34628, Note_on_c, 1, 56, 0
4, 34628, Note_on_c, 1, 44, 0
4, 34656, Note_on_c, 1, 53, 86
4, 34656, Note_on_c, 1, 41, 86
4, 34676, Note_on_c, 1, 53, 0
4, 34676, Note_on_c, 1, 41, 0
4, 34704, Note_on_c, 1, 52, 86
4, 34704, Note_on_c, 1, 40, 86
4, 34724, Note_on_c, 1, 52, 0
4, 34724, Note_on_c, 1, 40, 0
4, 34752, Note_on_c, 1, 50, 86
4, 34752, Note_on_c, 1, 38, 86
4, 34772, Note_on_c, 1, 50, 0
4, 34772, Note_on_c, 1, 38, 0
4, 34800, Note_on_c, 1, 48, 86
4, 34800, Note_on_c, 1, 36, 86
4, 34820, Note_on_c, 1, 48, 0
4, 34820, Note_on_c, 1, 36, 0
4, 34848, Note_on_c, 1, 47, 86
4, 34848, Note_on_c, 1, 35, 86
4, 34868, Note_on_c, 1, 47, 0
4, 34868, Note_on_c, 1, 35, 0
4, 34896, Note_on_c, 1, 45, 86
4, 34896, Note_on_c, 1, 33, 86
4, 34916, Note_on_c, 1, 45, 0
4, 34916, Note_on_c, 1, 33, 0
4, 34944, Note_on_c, 1, 45, 86
4, 34944, Note_on_c, 1, 33, 86
4, 34983, Note_on_c, 1, 45, 0
4, 34983, Note_on_c, 1, 33, 0
4, 35040, Note_on_c, 1, 44, 86
4, 35063, Note_on_c, 1, 44, 0
4, 35064, Note_on_c, 1, 45, 86
4, 35087, Note_on_c, 1, 45, 0
4, 35088, Note_on_c, 1, 44, 86
4, 35111, Note_on_c, 1, 44, 0
4, 35112, Note_on_c, 1, 45, 86
4, 35135, Note_on_c, 1, 45, 0
4, 35136, Note_on_c, 1, 33, 86
4, 35175, Note_on_c, 1, 33, 0
4, 35328, Note_on_c, 1, 33, 70
4, 35367, Note_on_c, 1, 33, 0
4, 35424, Note_on_c, 1, 44, 70
4, 35447, Note_on_c, 1, 44, 0
4, 35448, Note_on_c, 1, 45, 71
4, 35471, Note_on_c, 1, 45, 0
4, 35472, Note_on_c, 1, 44, 71
4, 35495, Note_on_c, 1, 44, 0
4, 35496, Note_on_c, 1, 45, 71
4, 35519, Note_on_c, 1, 45, 0
4, 35520, Note_on_c, 1, 33, 71
4, 35559, Note_on_c, 1, 33, 0
4, 35712, Note_on_c, 1, 33, 73
4, 35751, Note_on_c, 1, 33, 0
4, 35808, Note_on_c, 1, 44, 74
4, 35831, Note_on_c, 1, 44, 0
4, 35832, Note_on_c, 1, 45, 74
4, 35855, Note_on_c, 1, 45, 0
4, 35856, Note_on_c, 1, 44, 74
4, 35879, Note_on_c, 1, 44, 0
4, 35880, Note_on_c, 1, 45, 74
4, 35903, Note_on_c, 1, 45, 0
4, 35904, Note_on_c, 1, 33, 75
4, 35943, Note_on_c, 1, 33, 0
4, 36096, Note_on_c, 1, 33, 76
4, 36135, Note_on_c, 1, 33, 0
4, 36192, Note_on_c, 1, 44, 77
4, 36215, Note_on_c, 1, 44, 0
4, 36216, Note_on_c, 1, 45, 77
4, 36239, Note_on_c, 1, 45, 0
4, 36240, Note_on_c, 1, 44, 77
4, 36263, Note_on_c, 1, 44, 0
4, 36264, Note_on_c, 1, 45, 78
4, 36287, Note_on_c, 1, 45, 0
4, 36288, Note_on_c, 1, 33, 78
4, 36327, Note_on_c, 1, 33, 0
4, 36480, Note_on_c, 1, 55, 80
4, 36480, Note_on_c, 1, 51, 80
4, 36480, Note_on_c, 1, 46, 80
4, 36480, Note_on_c, 1, 43, 80
4, 36569, Note_on_c, 1, 55, 0
4, 36569, Note_on_c, 1, 51, 0
4, 36569, Note_on_c, 1, 46, 0
4, 36569, Note_on_c, 1, 43, 0
4, 36720, Note_on_c, 1, 58, 80
4, 36765, Note_on_c, 1, 58, 0
4, 36768, Note_on_c, 1, 55, 80
4, 36813, Note_on_c, 1, 55, 0
4, 36816, Note_on_c, 1, 51, 80
4, 36861, Note_on_c, 1, 51, 0
4, 36864, Note_on_c, 1, 53, 80
4, 36864, Note_on_c, 1, 50, 80
4, 36953, Note_on_c, 1, 53, 0
4, 36953, Note_on_c, 1, 50, 0
4, 37104, Note_on_c, 1, 56, 76
4, 37149, Note_on_c, 1, 56, 0
4, 37152, Note_on_c, 1, 53, 76
4, 37197, Note_on_c, 1, 53, 0
4, 37200, Note_on_c, 1, 50, 75
4, 37245, Note_on_c, 1, 50, 0
4, 37248, Note_on_c, 1, 51, 74
4, 37248, Note_on_c, 1, 48, 74
4, 37337, Note_on_c, 1, 51, 0
4, 37337, Note_on_c, 1, 48, 0
4, 37488, Note_on_c, 1, 54, 71
4, 37533, Note_on_c, 1, 54, 0
4, 37536, Note_on_c, 1, 51, 70
4, 37581, Note_on_c, 1, 51, 0
4, 37584, Note_on_c, 1, 48, 70
4, 37629, Note_on_c, 1, 48, 0
4, 37632, Note_on_c, 1, 53, 69
4, 37632, Note_on_c, 1, 50, 69
4, 37809, Note_on_c, 1, 53, 0
4, 37809, Note_on_c, 1, 50, 0
4, 37824, Note_on_c, 1, 52, 66
4, 37824, Note_on_c, 1, 48, 66
4, 38001, Note_on_c, 1, 52, 0
4, 38001, Note_on_c, 1, 48, 0
4, 38016, Note_on_c, 1, 53, 64
4, 38016, Note_on_c, 1, 48, 64
4, 38193, Note_on_c, 1, 53, 0
4, 38193, Note_on_c, 1, 48, 0
4, 38208, Note_on_c, 1, 55, 72
4, 38208, Note_on_c, 1, 48, 72
4, 38385, Note_on_c, 1, 55, 0
4, 38385, Note_on_c, 1, 48, 0
4, 38400, Note_on_c, 1, 57, 80
4, 38400, Note_on_c, 1, 53, 80
4, 38400, Note_on_c, 1, 48, 80
4, 38400, Note_on_c, 1, 45, 80
4, 38577, Note_on_c, 1, 57, 0
4, 38577, Note_on_c, 1, 53, 0
4, 38577, Note_on_c, 1, 48, 0
4, 38577, Note_on_c, 1, 45, 0
4, 38592, Note_on_c, 1, 52, 80
4, 38615, Note_on_c, 1, 52, 0
4, 38616, Note_on_c, 1, 53, 80
4, 38639, Note_on_c, 1, 53, 0
4, 38640, Note_on_c, 1, 52, 80
4, 38663, Note_on_c, 1, 52, 0
4, 38664, Note_on_c, 1, 53, 80
4, 38687, Note_on_c, 1, 53, 0
4, 38688, Note_on_c, 1, 41, 80
4, 38727, Note_on_c, 1, 41, 0
4, 38976, Note_on_c, 1, 52, 80
4, 38999, Note_on_c, 1, 52, 0
4, 39000, Note_on_c, 1, 53, 80
4, 39023, Note_on_c, 1, 53, 0
4, 39024, Note_on_c, 1, 52, 80
4, 39047, Note_on_c, 1, 52, 0
4, 39048, Note_on_c, 1, 53, 80
4, 39071, Note_on_c, 1, 53, 0
4, 39072, Note_on_c, 1, 41, 80
4, 39111, Note_on_c, 1, 41, 0
4, 39552, Note_on_c, 1, 63, 64
4, 39575, Note_on_c, 1, 63, 0
4, 39576, Note_on_c, 1, 64, 64
4, 39599, Note_on_c, 1, 64, 0
4, 39600, Note_on_c, 1, 63, 65
4, 39623, Note_on_c, 1, 63, 0
4, 39624, Note_on_c, 1, 64, 66
4, 39647, Note_on_c, 1, 64, 0
4, 39648, Note_on_c, 1, 64, 66
4, 39687, Note_on_c, 1, 64, 0
4, 39744, Note_on_c, 1, 51, 69
4, 39767, Note_on_c, 1, 51, 0
4, 39768, Note_on_c, 1, 52, 70
4, 39791, Note_on_c, 1, 52, 0
4, 39792, Note_on_c, 1, 51, 70
4, 39815, Note_on_c, 1, 51, 0
4, 39816, Note_on_c, 1, 52, 71
4, 39839, Note_on_c, 1, 52, 0
4, 39840, Note_on_c, 1, 52, 72
4, 39879, Note_on_c, 1, 52, 0
4, 39936, Note_on_c, 1, 39, 74
4, 39959, Note_on_c, 1, 39, 0
4, 39960, Note_on_c, 1, 40, 75
4, 39983, Note_on_c, 1, 40, 0
4, 39984, Note_on_c, 1, 39, 76
4, 40007, Note_on_c, 1, 39, 0
4, 40008, Note_on_c, 1, 40, 76
4, 40031, Note_on_c, 1, 40, 0
4, 40032, Note_on_c, 1, 40, 77
4, 40071, Note_on_c, 1, 40, 0
4, 41280, Note_on_c, 1, 56, 75
4, 41303, Note_on_c, 1, 56, 0
4, 41304, Note_on_c, 1, 57, 75
4, 41327, Note_on_c, 1, 57, 0
4, 41328, Note_on_c, 1, 56, 75
4, 41351, Note_on_c, 1, 56, 0
4, 41352, Note_on_c, 1, 57, 75
4, 41375, Note_on_c, 1, 57, 0
4, 41376, Note_on_c, 1, 45, 75
4, 41415, Note_on_c, 1, 45, 0
4, 41664, Note_on_c, 1, 56, 75
4, 41687, Note_on_c, 1, 56, 0
4, 41688, Note_on_c, 1, 57, 75
4, 41711, Note_on_c, 1, 57, 0
4, 41712, Note_on_c, 1, 56, 75
4, 41735, Note_on_c, 1, 56, 0
4, 41736, Note_on_c, 1, 57, 75
4, 41759, Note_on_c, 1, 57, 0
4, 41760, Note_on_c, 1, 45, 75
4, 41799, Note_on_c, 1, 45, 0
4, 42240, Note_on_c, 1, 45, 75
4, 42329, Note_on_c, 1, 45, 0
4, 42528, Note_on_c, 1, 37, 75
4, 42567, Note_on_c, 1, 37, 0
4, 42672, Note_on_c, 1, 38, 75
4, 42692, Note_on_c, 1, 38, 0
4, 42720, Note_on_c, 1, 42, 75
4, 42740, Note_on_c, 1, 42, 0
4, 42768, Note_on_c, 1, 45, 75
4, 42788, Note_on_c, 1, 45, 0
4, 42816, Note_on_c, 1, 50, 75
4, 42905, Note_on_c, 1, 50, 0
4, 43104, Note_on_c, 1, 55, 75
4, 43127, Note_on_c, 1, 55, 0
4, 43128, Note_on_c, 1, 54, 75
4, 43151, Note_on_c, 1, 54, 0
4, 43152, Note_on_c, 1, 55, 75
4, 43175, Note_on_c, 1, 55, 0
4, 43176, Note_on_c, 1, 54, 75
4, 43199, Note_on_c, 1, 54, 0
4, 43200, Note_on_c, 1, 55, 75
4, 43289, Note_on_c, 1, 55, 0
4, 43488, Note_on_c, 1, 57, 75
4, 43511, Note_on_c, 1, 57, 0
4, 43512, Note_on_c, 1, 56, 75
4, 43535, Note_on_c, 1, 56, 0
4, 43536, Note_on_c, 1, 57, 75
4, 43559, Note_on_c, 1, 57, 0
4, 43560, Note_on_c, 1, 56, 75
4, 43583, Note_on_c, 1, 56, 0
4, 43584, Note_on_c, 1, 57, 75
4, 43673, Note_on_c, 1, 57, 0
4, 43872, Note_on_c, 1, 61, 75
4, 43895, Note_on_c, 1, 61, 0
4, 43896, Note_on_c, 1, 59, 75
4, 43919, Note_on_c, 1, 59, 0
4, 43920, Note_on_c, 1, 61, 75
4, 43943, Note_on_c, 1, 61, 0
4, 43944, Note_on_c, 1, 59, 75
4, 43967, Note_on_c, 1, 59, 0
4, 43968, Note_on_c, 1, 61, 75
4, 44057, Note_on_c, 1, 61, 0
4, 44208, Note_on_c, 1, 42, 75
4, 44253, Note_on_c, 1, 42, 0
4, 44256, Note_on_c, 1, 43, 75
4, 44301, Note_on_c, 1, 43, 0
4, 44304, Note_on_c, 1, 47, 75
4, 44349, Note_on_c, 1, 47, 0
4, 44352, Note_on_c, 1, 45, 75
4, 44441, Note_on_c, 1, 45, 0
4, 44448, Note_on_c, 1, 33, 75
4, 44515, Note_on_c, 1, 33, 0
4, 44640, Note_on_c, 1, 66, 59
4, 44640, Note_on_c, 1, 63, 59
4, 44679, Note_on_c, 1, 66, 0
4, 44679, Note_on_c, 1, 63, 0
4, 44736, Note_on_c, 1, 66, 61
4, 44736, Note_on_c, 1, 63, 61
4, 44775, Note_on_c, 1, 66, 0
4, 44775, Note_on_c, 1, 63, 0
4, 44832, Note_on_c, 1, 66, 62
4, 44832, Note_on_c, 1, 63, 62
4, 44871, Note_on_c, 1, 66, 0
4, 44871, Note_on_c, 1, 63, 0
4, 45024, Note_on_c, 1, 64, 62
4, 45024, Note_on_c, 1, 62, 62
4, 45113, Note_on_c, 1, 64, 0
4, 45113, Note_on_c, 1, 62, 0
4, 45120, Note_on_c, 1, 64, 60
4, 45120, Note_on_c, 1, 61, 60
4, 45159, Note_on_c, 1, 64, 0
4, 45159, Note_on_c, 1, 61, 0
4, 45216, Note_on_c, 1, 64, 58
4, 45216, Note_on_c, 1, 61, 58
4, 45255, Note_on_c, 1, 64, 0
4, 45255, Note_on_c, 1, 61, 0
4, 45408, Note_on_c, 1, 64, 59
4, 45408, Note_on_c, 1, 61, 59
4, 45447, Note_on_c, 1, 64, 0
4, 45447, Note_on_c, 1, 61, 0
4, 45504, Note_on_c, 1, 64, 61
4, 45504, Note_on_c, 1, 61, 61
4, 45543, Note_on_c, 1, 64, 0
4, 45543, Note_on_c, 1, 61, 0
4, 45600, Note_on_c, 1, 64, 62
4, 45600, Note_on_c, 1, 61, 62
4, 45639, Note_on_c, 1, 64, 0
4, 45639, Note_on_c, 1, 61, 0
4, 45792, Note_on_c, 1, 63, 61
4, 45792, Note_on_c, 1, 60, 61
4, 45881, Note_on_c, 1, 63, 0
4, 45881, Note_on_c, 1, 60, 0
4, 45888, Note_on_c, 1, 62, 58
4, 45888, Note_on_c, 1, 59, 58
4, 45927, Note_on_c, 1, 62, 0
4, 45927, Note_on_c, 1, 59, 0
4, 46464, Note_on_c, 1, 56, 80
4, 46487, Note_on_c, 1, 56, 0
4, 46488, Note_on_c, 1, 57, 80
4, 46511, Note_on_c, 1, 57, 0
4, 46512, Note_on_c, 1, 56, 80
4, 46535, Note_on_c, 1, 56, 0
4, 46536, Note_on_c, 1, 57, 80
4, 46559, Note_on_c, 1, 57, 0
4, 46560, Note_on_c, 1, 45, 80
4, 46599, Note_on_c, 1, 45, 0
4, 47232, Note_on_c, 1, 52, 80
4, 47232, Note_on_c, 1, 49, 80
4, 47232, Note_on_c, 1, 45, 80
4, 47497, Note_on_c, 1, 52, 0
4, 47497, Note_on_c, 1, 49, 0
4, 47497, Note_on_c, 1, 45, 0
4, 48000, Note_on_c, 1, 40, 80
4, 48030, Note_on_c, 1, 40, 0
4, 48032, Note_on_c, 1, 47, 80
4, 48062, Note_on_c, 1, 47, 0
4, 48064, Note_on_c, 1, 44, 80
4, 48094, Note_on_c, 1, 44, 0
4, 48096, Note_on_c, 1, 50, 80
4, 48126, Note_on_c, 1, 50, 0
4, 48128, Note_on_c, 1, 47, 80
4, 48158, Note_on_c, 1, 47, 0
4, 48160, Note_on_c, 1, 56, 80
4, 48190, Note_on_c, 1, 56, 0
4, 48192, Note_on_c, 1, 52, 80
4, 48222, Note_on_c, 1, 52, 0
4, 48224, Note_on_c, 1, 59, 80
4, 48254, Note_on_c, 1, 59, 0
4, 48256, Note_on_c, 1, 56, 80
4, 48286, Note_on_c, 1, 56, 0
4, 48288, Note_on_c, 1, 66, 80
4, 48318, Note_on_c, 1, 66, 0
4, 48320, Note_on_c, 1, 64, 80
4, 48350, Note_on_c, 1, 64, 0
4, 48352, Note_on_c, 1, 62, 80
4, 48382, Note_on_c, 1, 62, 0
4, 48384, Note_on_c, 1, 61, 80
4, 48407, Note_on_c, 1, 61, 0
4, 48408, Note_on_c, 1, 59, 80
4, 48431, Note_on_c, 1, 59, 0
4, 48432, Note_on_c, 1, 57, 80
4, 48455, Note_on_c, 1, 57, 0
4, 48456, Note_on_c, 1, 56, 80
4, 48479, Note_on_c, 1, 56, 0
4, 48480, Note_on_c, 1, 53, 96
4, 48635, Note_on_c, 1, 53, 0
4, 48640, Note_on_c, 1, 47, 80
4, 48670, Note_on_c, 1, 47, 0
4, 48672, Note_on_c, 1, 56, 76
4, 48702, Note_on_c, 1, 56, 0
4, 48704, Note_on_c, 1, 50, 72
4, 48734, Note_on_c, 1, 50, 0
4, 48736, Note_on_c, 1, 59, 69
4, 48766, Note_on_c, 1, 59, 0
4, 48768, Note_on_c, 1, 78, 80
4, 48945, Note_on_c, 1, 78, 0
4, 48960, Note_on_c, 1, 76, 77
4, 49137, Note_on_c, 1, 76, 0
4, 49152, Note_on_c, 1, 74, 75
4, 49329, Note_on_c, 1, 74, 0
4, 49344, Note_on_c, 1, 73, 72
4, 49521, Note_on_c, 1, 73, 0
4, 49584, Note_on_c, 1, 72, 70
4, 49584, Note_on_c, 1, 69, 70
4, 49629, Note_on_c, 1, 72, 0
4, 49629, Note_on_c, 1, 69, 0
4, 49632, Note_on_c, 1, 71, 70
4, 49632, Note_on_c, 1, 68, 70
4, 49677, Note_on_c, 1, 71, 0
4, 49677, Note_on_c, 1, 68, 0
4, 49680, Note_on_c, 1, 69, 70
4, 49680, Note_on_c, 1, 66, 70
4, 49725, Note_on_c, 1, 69, 0
4, 49725, Note_on_c, 1, 66, 0
4, 49728, Note_on_c, 1, 68, 70
4, 49728, Note_on_c, 1, 64, 70
4, 49773, Note_on_c, 1, 68, 0
4, 49773, Note_on_c, 1, 64, 0
4, 50496, Note_on_c, 1, 50, 67
4, 50496, Note_on_c, 1, 38, 67
4, 50688, Note_on_c, 1, 50, 0
4, 50688, Note_on_c, 1, 38, 0
4, 50688, Note_on_c, 1, 48, 70
4, 50688, Note_on_c, 1, 36, 70
4, 50727, Note_on_c, 1, 48, 0
4, 50727, Note_on_c, 1, 36, 0
4, 50880, Note_on_c, 1, 44, 73
4, 50880, Note_on_c, 1, 32, 73
4, 51072, Note_on_c, 1, 44, 0
4, 51072, Note_on_c, 1, 32, 0
4, 51072, Note_on_c, 1, 45, 76
4, 51072, Note_on_c, 1, 33, 76
4, 51111, Note_on_c, 1, 45, 0
4, 51111, Note_on_c, 1, 33, 0
4, 51264, Note_on_c, 1, 53, 80
4, 51264, Note_on_c, 1, 41, 80
4, 51456, Note_on_c, 1, 53, 0
4, 51456, Note_on_c, 1, 41, 0
4, 51456, Note_on_c, 1, 52, 69
4, 51456, Note_on_c, 1, 40, 69
4, 51545, Note_on_c, 1, 52, 0
4, 51545, Note_on_c, 1, 40, 0
4, 51840, Note_on_c, 1, 49, 80
4, 51863, Note_on_c, 1, 49, 0
4, 51864, Note_on_c, 1, 50, 80
4, 51887, Note_on_c, 1, 50, 0
4, 51888, Note_on_c, 1, 49, 80
4, 51911, Note_on_c, 1, 49, 0
4, 51912, Note_on_c, 1, 50, 80
4, 51935, Note_on_c, 1, 50, 0
4, 51936, Note_on_c, 1, 50, 80
4, 51956, Note_on_c, 1, 50, 0
4, 52032, Note_on_c, 1, 56, 80
4, 52055, Note_on_c, 1, 56, 0
4, 52056, Note_on_c, 1, 57, 80
4, 52079, Note_on_c, 1, 57, 0
4, 52080, Note_on_c, 1, 56, 80
4, 52103, Note_on_c, 1, 56, 0
4, 52104, Note_on_c, 1, 57, 80
4, 52127, Note_on_c, 1, 57, 0
4, 52128, Note_on_c, 1, 57, 80
4, 52148, Note_on_c, 1, 57, 0
4, 52224, Note_on_c, 1, 51, 80
4, 52247, Note_on_c, 1, 51, 0
4, 52248, Note_on_c, 1, 52, 80
4, 52271, Note_on_c, 1, 52, 0
4, 52272, Note_on_c, 1, 51, 80
4, 52295, Note_on_c, 1, 51, 0
4, 52296, Note_on_c, 1, 52, 80
4, 52319, Note_on_c, 1, 52, 0
4, 52320, Note_on_c, 1, 52, 80
4, 52340, Note_on_c, 1, 52, 0
4, 52416, Note_on_c, 1, 44, 80
4, 52439, Note_on_c, 1, 44, 0
4, 52440, Note_on_c, 1, 45, 80
4, 52463, Note_on_c, 1, 45, 0
4, 52464, Note_on_c, 1, 44, 80
4, 52487, Note_on_c, 1, 44, 0
4, 52488, Note_on_c, 1, 45, 80
4, 52511, Note_on_c, 1, 45, 0
4, 52512, Note_on_c, 1, 45, 80
4, 52532, Note_on_c, 1, 45, 0
4, 52608, Note_on_c, 1, 38, 80
4, 52785, Note_on_c, 1, 38, 0
4, 52992, Note_on_c, 1, 52, 80
4, 53012, Note_on_c, 1, 52, 0
4, 53040, Note_on_c, 1, 50, 78
4, 53060, Note_on_c, 1, 50, 0
4, 53088, Note_on_c, 1, 49, 77
4, 53108, Note_on_c, 1, 49, 0
4, 53136, Note_on_c, 1, 47, 76
4, 53156, Note_on_c, 1, 47, 0
4, 53184, Note_on_c, 1, 45, 75
4, 53204, Note_on_c, 1, 45, 0
4, 53232, Note_on_c, 1, 44, 73
4, 53252, Note_on_c, 1, 44, 0
4, 53280, Note_on_c, 1, 42, 72
4, 53300, Note_on_c, 1, 42, 0
4, 53328, Note_on_c, 1, 40, 71
4, 53348, Note_on_c, 1, 40, 0
4, 53376, Note_on_c, 1, 50, 64
4, 53465, Note_on_c, 1, 50, 0
4, 53568, Note_on_c, 1, 52, 64
4, 53657, Note_on_c, 1, 52, 0
4, 53760, Note_on_c, 1, 57, 64
4, 53760, Note_on_c, 1, 45, 64
4, 53849, Note_on_c, 1, 57, 0
4, 53849, Note_on_c, 1, 45, 0
4, 54144, Note_on_c, 1, 52, 80
4, 54168, Note_on_c, 1, 52, 0
4, 54168, Note_on_c, 1, 49, 80
4, 54191, Note_on_c, 1, 49, 0
4, 54192, Note_on_c, 1, 57, 81
4, 54202, Note_on_c, 1, 57, 0
4, 54216, Note_on_c, 1, 57, 81
4, 54226, Note_on_c, 1, 57, 0
4, 54240, Note_on_c, 1, 57, 82
4, 54264, Note_on_c, 1, 57, 0
4, 54264, Note_on_c, 1, 52, 82
4, 54287, Note_on_c, 1, 52, 0
4, 54288, Note_on_c, 1, 61, 83
4, 54298, Note_on_c, 1, 61, 0
4, 54312, Note_on_c, 1, 61, 83
4, 54322, Note_on_c, 1, 61, 0
4, 54336, Note_on_c, 1, 61, 84
4, 54375, Note_on_c, 1, 61, 0
4, 54528, Note_on_c, 1, 74, 64
4, 54567, Note_on_c, 1, 74, 0
4, 54624, Note_on_c, 1, 73, 64
4, 54663, Note_on_c, 1, 73, 0
4, 54912, Note_on_c, 1, 52, 80
4, 54912, Note_on_c, 1, 40, 80
4, 55001, Note_on_c, 1, 52, 0
4, 55001, Note_on_c, 1, 40, 0
4, 55008, Note_on_c, 1, 45, 80
4, 55008, Note_on_c, 1, 33, 80
4, 55097, Note_on_c, 1, 45, 0
4, 55097, Note_on_c, 1, 33, 0
4, 55296, Note_on_c, 1, 60, 80
4, 55296, Note_on_c, 1, 57, 80
4, 55296, Note_on_c, 1, 54, 80
4, 55296, Note_on_c, 1, 51, 80
4, 55473, Note_on_c, 1, 60, 0
4, 55473, Note_on_c, 1, 57, 0
4, 55473, Note_on_c, 1, 54, 0
4, 55473, Note_on_c, 1, 51, 0
4, 56064, Note_on_c, 1, 53, 80
4, 56109, Note_on_c, 1, 53, 0
4, 56112, Note_on_c, 1, 41, 80
4, 56157, Note_on_c, 1, 41, 0
4, 56160, Note_on_c, 1, 53, 80
4, 56205, Note_on_c, 1, 53, 0
4, 56208, Note_on_c, 1, 53, 80
4, 56253, Note_on_c, 1, 53, 0
4, 56256, Note_on_c, 1, 53, 80
4, 56301, Note_on_c, 1, 53, 0
4, 56304, Note_on_c, 1, 41, 80
4, 56349, Note_on_c, 1, 41, 0
4, 56352, Note_on_c, 1, 53, 80
4, 56397, Note_on_c, 1, 53, 0
4, 56400, Note_on_c, 1, 53, 80
4, 56445, Note_on_c, 1, 53, 0
4, 56448, Note_on_c, 1, 52, 80
4, 56537, Note_on_c, 1, 52, 0
4, 56544, Note_on_c, 1, 51, 70
4, 56567, Note_on_c, 1, 51, 0
4, 56568, Note_on_c, 1, 52, 70
4, 56591, Note_on_c, 1, 52, 0
4, 56592, Note_on_c, 1, 51, 70
4, 56615, Note_on_c, 1, 51, 0
4, 56616, Note_on_c, 1, 52, 70
4, 56639, Note_on_c, 1, 52, 0
4, 56640, Note_on_c, 1, 40, 70
4, 56660, Note_on_c, 1, 40, 0
4, 56928, Note_on_c, 1, 51, 70
4, 56951, Note_on_c, 1, 51, 0
4, 56952, Note_on_c, 1, 52, 70
4, 56975, Note_on_c, 1, 52, 0
4, 56976, Note_on_c, 1, 51, 70
4, 56999, Note_on_c, 1, 51, 0
4, 57000, Note_on_c, 1, 52, 70
4, 57023, Note_on_c, 1, 52, 0
4, 57024, Note_on_c, 1, 40, 70
4, 57044, Note_on_c, 1, 40, 0
4, 57312, Note_on_c, 1, 51, 70
4, 57335, Note_on_c, 1, 51, 0
4, 57336, Note_on_c, 1, 52, 70
4, 57359, Note_on_c, 1, 52, 0
4, 57360, Note_on_c, 1, 51, 70
4, 57383, Note_on_c, 1, 51, 0
4, 57384, Note_on_c, 1, 52, 70
4, 57407, Note_on_c, 1, 52, 0
4, 57408, Note_on_c, 1, 40, 70
4, 57428, Note_on_c, 1, 40, 0
4, 57696, Note_on_c, 1, 51, 71
4, 57719, Note_on_c, 1, 51, 0
4, 57720, Note_on_c, 1, 52, 71
4, 57743, Note_on_c, 1, 52, 0
4, 57744, Note_on_c, 1, 51, 72
4, 57767, Note_on_c, 1, 51, 0
4, 57768, Note_on_c, 1, 52, 72
4, 57791, Note_on_c, 1, 52, 0
4, 57792, Note_on_c, 1, 40, 72
4, 57812, Note_on_c, 1, 40, 0
4, 58080, Note_on_c, 1, 51, 76
4, 58103, Note_on_c, 1, 51, 0
4, 58104, Note_on_c, 1, 52, 77
4, 58127, Note_on_c, 1, 52, 0
4, 58128, Note_on_c, 1, 51, 77
4, 58151, Note_on_c, 1, 51, 0
4, 58152, Note_on_c, 1, 52, 77
4, 58175, Note_on_c, 1, 52, 0
4, 58176, Note_on_c, 1, 40, 78
4, 58196, Note_on_c, 1, 40, 0
4, 58464, Note_on_c, 1, 51, 82
4, 58487, Note_on_c, 1, 51, 0
4, 58488, Note_on_c, 1, 52, 82
4, 58511, Note_on_c, 1, 52, 0
4, 58512, Note_on_c, 1, 51, 82
4, 58535, Note_on_c, 1, 51, 0
4, 58536, Note_on_c, 1, 52, 83
4, 58559, Note_on_c, 1, 52, 0
4, 58560, Note_on_c, 1, 40, 83
4, 58580, Note_on_c, 1, 40, 0
4, 58752, Note_on_c, 1, 60, 86
4, 58752, Note_on_c, 1, 48, 86
4, 58772, Note_on_c, 1, 60, 0
4, 58772, Note_on_c, 1, 48, 0
4, 58800, Note_on_c, 1, 59, 86
4, 58800, Note_on_c, 1, 47, 86
4, 58820, Note_on_c, 1, 59, 0
4, 58820, Note_on_c, 1, 47, 0
4, 58848, Note_on_c, 1, 57, 86
4, 58848, Note_on_c, 1, 45, 86
4, 58868, Note_on_c, 1, 57, 0
4, 58868, Note_on_c, 1, 45, 0
4, 58896, Note_on_c, 1, 56, 86
4, 58896, Note_on_c, 1, 44, 86
4, 58916, Note_on_c, 1, 56, 0
4, 58916, Note_on_c, 1, 44, 0
4, 58944, Note_on_c, 1, 53, 86
4, 58944, Note_on_c, 1, 41, 86
4, 58964, Note_on_c, 1, 53, 0
4, 58964, Note_on_c, 1, 41, 0
4, 58992, Note_on_c, 1, 52, 86
4, 58992, Note_on_c, 1, 40, 86
4, 59012, Note_on_c, 1, 52, 0
4, 59012, Note_on_c, 1, 40, 0
4, 59040, Note_on_c, 1, 50, 86
4, 59040, Note_on_c, 1, 38, 86
4, 59060, Note_on_c, 1, 50, 0
4, 59060, Note_on_c, 1, 38, 0
4, 59088, Note_on_c, 1, 48, 86
4, 59088, Note_on_c, 1, 36, 86
4, 59108, Note_on_c, 1, 48, 0
4, 59108, Note_on_c, 1, 36, 0
4, 59136, Note_on_c, 1, 57, 86
4, 59136, Note_on_c, 1, 45, 86
4, 59156, Note_on_c, 1, 57, 0
4, 59156, Note_on_c, 1, 45, 0
4, 59184, Note_on_c, 1, 56, 86
4, 59184, Note_on_c, 1, 44, 86
4, 59204, Note_on_c, 1, 56, 0
4, 59204, Note_on_c, 1, 44, 0
4, 59232, Note_on_c, 1, 53, 86
4, 59232, Note_on_c, 1, 41, 86
4, 59252, Note_on_c, 1, 53, 0
4, 59252, Note_on_c, 1, 41, 0
4, 59280, Note_on_c, 1, 52, 86
4, 59280, Note_on_c, 1, 40, 86
4, 59300, Note_on_c, 1, 52, 0
4, 59300, Note_on_c, 1, 40, 0
4, 59328, Note_on_c, 1, 50, 86
4, 59328, Note_on_c, 1, 38, 86
4, 59348, Note_on_c, 1, 50, 0
4, 59348, Note_on_c, 1, 38, 0
4, 59376, Note_on_c, 1, 48, 86
4, 59376, Note_on_c, 1, 36, 86
4, 59396, Note_on_c, 1, 48, 0
4, 59396, Note_on_c, 1, 36, 0
4, 59424, Note_on_c, 1, 47, 86
4, 59424, Note_on_c, 1, 35, 86
4, 59444, Note_on_c, 1, 47, 0
4, 59444, Note_on_c, 1, 35, 0
4, 59472, Note_on_c, 1, 45, 86
4, 59472, Note_on_c, 1, 33, 86
4, 59492, Note_on_c, 1, 45, 0
4, 59492, Note_on_c, 1, 33, 0
4, 59520, Note_on_c, 1, 45, 86
4, 59520, Note_on_c, 1, 33, 86
4, 59559, Note_on_c, 1, 45, 0
4, 59559, Note_on_c, 1, 33, 0
4, 59616, Note_on_c, 1, 44, 86
4, 59639, Note_on_c, 1, 44, 0
4, 59640, Note_on_c, 1, 45, 86
4, 59663, Note_on_c, 1, 45, 0
4, 59664, Note_on_c, 1, 44, 86
4, 59687, Note_on_c, 1, 44, 0
4, 59688, Note_on_c, 1, 45, 86
4, 59711, Note_on_c, 1, 45, 0
4, 59712, Note_on_c, 1, 33, 86
4, 59751, Note_on_c, 1, 33, 0
4, 59904, Note_on_c, 1, 33, 70
4, 59943, Note_on_c, 1, 33, 0
4, 60000, Note_on_c, 1, 44, 70
4, 60023, Note_on_c, 1, 44, 0
4, 60024, Note_on_c, 1, 45, 71
4, 60047, Note_on_c, 1, 45, 0
4, 60048, Note_on_c, 1, 44, 71
4, 60071, Note_on_c, 1, 44, 0
4, 60072, Note_on_c, 1, 45, 71
4, 60095, Note_on_c, 1, 45, 0
4, 60096, Note_on_c, 1, 33, 71
4, 60135, Note_on_c, 1, 33, 0
4, 60288, Note_on_c, 1, 33, 73
4, 60327, Note_on_c, 1, 33, 0
4, 60384, Note_on_c, 1, 44, 74
4, 60407, Note_on_c, 1, 44, 0
4, 60408, Note_on_c, 1, 45, 74
4, 60431, Note_on_c, 1, 45, 0
4, 60432, Note_on_c, 1, 44, 74
4, 60455, Note_on_c, 1, 44, 0
4, 60456, Note_on_c, 1, 45, 74
4, 60479, Note_on_c, 1, 45, 0
4, 60480, Note_on_c, 1, 33, 75
4, 60519, Note_on_c, 1, 33, 0
4, 60672, Note_on_c, 1, 33, 76
4, 60711, Note_on_c, 1, 33, 0
4, 60768, Note_on_c, 1, 44, 77
4, 60791, Note_on_c, 1, 44, 0
4, 60792, Note_on_c, 1, 45, 77
4, 60815, Note_on_c, 1, 45, 0
4, 60816, Note_on_c, 1, 44, 77
4, 60839, Note_on_c, 1, 44, 0
4, 60840, Note_on_c, 1, 45, 78
4, 60863, Note_on_c, 1, 45, 0
4, 60864, Note_on_c, 1, 33, 78
4, 60903, Note_on_c, 1, 33, 0
4, 61056, Note_on_c, 1, 55, 80
4, 61056, Note_on_c, 1, 51, 80
4, 61056, Note_on_c, 1, 46, 80
4, 61056, Note_on_c, 1, 43, 80
4, 61145, Note_on_c, 1, 55, 0
4, 61145, Note_on_c, 1, 51, 0
4, 61145, Note_on_c, 1, 46, 0
4, 61145, Note_on_c, 1, 43, 0
4, 61296, Note_on_c, 1, 58, 80
4, 61341, Note_on_c, 1, 58, 0
4, 61344, Note_on_c, 1, 55, 80
4, 61389, Note_on_c, 1, 55, 0
4, 61392, Note_on_c, 1, 51, 80
4, 61437, Note_on_c, 1, 51, 0
4, 61440, Note_on_c, 1, 53, 80
4, 61440, Note_on_c, 1, 50, 80
4, 61529, Note_on_c, 1, 53, 0
4, 61529, Note_on_c, 1, 50, 0
4, 61680, Note_on_c, 1, 56, 76
4, 61725, Note_on_c, 1, 56, 0
4, 61728, Note_on_c, 1, 53, 76
4, 61773, Note_on_c, 1, 53, 0
4, 61776, Note_on_c, 1, 50, 75
4, 61821, Note_on_c, 1, 50, 0
4, 61824, Note_on_c, 1, 51, 74
4, 61824, Note_on_c, 1, 48, 74
4, 61913, Note_on_c, 1, 51, 0
4, 61913, Note_on_c, 1, 48, 0
4, 62064, Note_on_c, 1, 54, 71
4, 62109, Note_on_c, 1, 54, 0
4, 62112, Note_on_c, 1, 51, 70
4, 62157, Note_on_c, 1, 51, 0
4, 62160, Note_on_c, 1, 48, 70
4, 62205, Note_on_c, 1, 48, 0
4, 62208, Note_on_c, 1, 53, 69
4, 62208, Note_on_c, 1, 50, 69
4, 62385, Note_on_c, 1, 53, 0
4, 62385, Note_on_c, 1, 50, 0
4, 62400, Note_on_c, 1, 52, 66
4, 62400, Note_on_c, 1, 48, 66
4, 62577, Note_on_c, 1, 52, 0
4, 62577, Note_on_c, 1, 48, 0
4, 62592, Note_on_c, 1, 53, 64
4, 62592, Note_on_c, 1, 48, 64
4, 62769, Note_on_c, 1, 53, 0
4, 62769, Note_on_c, 1, 48, 0
4, 62784, Note_on_c, 1, 55, 72
4, 62784, Note_on_c, 1, 48, 72
4, 62961, Note_on_c, 1, 55, 0
4, 62961, Note_on_c, 1, 48, 0
4, 62976, Note_on_c, 1, 57, 80
4, 62976, Note_on_c, 1, 53, 80
4, 62976, Note_on_c, 1, 48, 80
4, 62976, Note_on_c, 1, 45, 80
4, 63153, Note_on_c, 1, 57, 0
4, 63153, Note_on_c, 1, 53, 0
4, 63153, Note_on_c, 1, 48, 0
4, 63153, Note_on_c, 1, 45, 0
4, 63168, Note_on_c, 1, 52, 80
4, 63191, Note_on_c, 1, 52, 0
4, 63192, Note_on_c, 1, 53, 80
4, 63215, Note_on_c, 1, 53, 0
4, 63216, Note_on_c, 1, 52, 80
4, 63239, Note_on_c, 1, 52, 0
4, 63240, Note_on_c, 1, 53, 80
4, 63263, Note_on_c, 1, 53, 0
4, 63264, Note_on_c, 1, 41, 80
4, 63303, Note_on_c, 1, 41, 0
4, 63552, Note_on_c, 1, 52, 80
4, 63575, Note_on_c, 1, 52, 0
4, 63576, Note_on_c, 1, 53, 80
4, 63599, Note_on_c, 1, 53, 0
4, 63600, Note_on_c, 1, 52, 80
4, 63623, Note_on_c, 1, 52, 0
4, 63624, Note_on_c, 1, 53, 80
4, 63647, Note_on_c, 1, 53, 0
4, 63648, Note_on_c, 1, 41, 80
4, 63687, Note_on_c, 1, 41, 0
4, 64128, Note_on_c, 1, 63, 64
4, 64151, Note_on_c, 1, 63, 0
4, 64152, Note_on_c, 1, 64, 64
4, 64175, Note_on_c, 1, 64, 0
4, 64176, Note_on_c, 1, 63, 65
4, 64199, Note_on_c, 1, 63, 0
4, 64200, Note_on_c, 1, 64, 66
4, 64223, Note_on_c, 1, 64, 0
4, 64224, Note_on_c, 1, 64, 66
4, 64263, Note_on_c, 1, 64, 0
4, 64320, Note_on_c, 1, 51, 69
4, 64343, Note_on_c, 1, 51, 0
4, 64344, Note_on_c, 1, 52, 70
4, 64367, Note_on_c, 1, 52, 0
4, 64368, Note_on_c, 1, 51, 70
4, 64391, Note_on_c, 1, 51, 0
4, 64392, Note_on_c, 1, 52, 71
4, 64415, Note_on_c, 1, 52, 0
4, 64416, Note_on_c, 1, 52, 72
4, 64455, Note_on_c, 1, 52, 0
4, 64512, Note_on_c, 1, 39, 74
4, 64535, Note_on_c, 1, 39, 0
4, 64536, Note_on_c, 1, 40, 75
4, 64559, Note_on_c, 1, 40, 0
4, 64560, Note_on_c, 1, 39, 76
4, 64583, Note_on_c, 1, 39, 0
4, 64584, Note_on_c, 1, 40, 76
4, 64607, Note_on_c, 1, 40, 0
4, 64608, Note_on_c, 1, 40, 77
4, 64647, Note_on_c, 1, 40, 0
4, 65856, Note_on_c, 1, 56, 75
4, 65879, Note_on_c, 1, 56, 0
4, 65880, Note_on_c, 1, 57, 75
4, 65903, Note_on_c, 1, 57, 0
4, 65904, Note_on_c, 1, 56, 75
4, 65927, Note_on_c, 1, 56, 0
4, 65928, Note_on_c, 1, 57, 75
4, 65951, Note_on_c, 1, 57, 0
4, 65952, Note_on_c, 1, 45, 75
4, 65991, Note_on_c, 1, 45, 0
4, 66240, Note_on_c, 1, 56, 75
4, 66263, Note_on_c, 1, 56, 0
4, 66264, Note_on_c, 1, 57, 75
4, 66287, Note_on_c, 1, 57, 0
4, 66288, Note_on_c, 1, 56, 75
4, 66311, Note_on_c, 1, 56, 0
4, 66312, Note_on_c, 1, 57, 75
4, 66335, Note_on_c, 1, 57, 0
4, 66336, Note_on_c, 1, 45, 75
4, 66375, Note_on_c, 1, 45, 0
4, 66816, Note_on_c, 1, 45, 75
4, 66905, Note_on_c, 1, 45, 0
4, 67104, Note_on_c, 1, 37, 75
4, 67143, Note_on_c, 1, 37, 0
4, 67248, Note_on_c, 1, 38, 75
4, 67268, Note_on_c, 1, 38, 0
4, 67296, Note_on_c, 1, 42, 75
4, 67316, Note_on_c, 1, 42, 0
4, 67344, Note_on_c, 1, 45, 75
4, 67364, Note_on_c, 1, 45, 0
4, 67392, Note_on_c, 1, 50, 75
4, 67481, Note_on_c, 1, 50, 0
4, 67680, Note_on_c, 1, 55, 75
4, 67703, Note_on_c, 1, 55, 0
4, 67704, Note_on_c, 1, 54, 75
4, 67727, Note_on_c, 1, 54, 0
4, 67728, Note_on_c, 1, 55, 75
4, 67751, Note_on_c, 1, 55, 0
4, 67752, Note_on_c, 1, 54, 75
4, 67775, Note_on_c, 1, 54, 0
4, 67776, Note_on_c, 1, 55, 75
4, 67865, Note_on_c, 1, 55, 0
4, 68064, Note_on_c, 1, 57, 75
4, 68087, Note_on_c, 1, 57, 0
4, 68088, Note_on_c, 1, 56, 75
4, 68111, Note_on_c, 1, 56, 0
4, 68112, Note_on_c, 1, 57, 75
4, 68135, Note_on_c, 1, 57, 0
4, 68136, Note_on_c, 1, 56, 75
4, 68159, Note_on_c, 1, 56, 0
4, 68160, Note_on_c, 1, 57, 75
4, 68249, Note_on_c, 1, 57, 0
4, 68448, Note_on_c, 1, 61, 75
4, 68471, Note_on_c, 1, 61, 0
4, 68472, Note_on_c, 1, 59, 75
4, 68495, Note_on_c, 1, 59, 0
4, 68496, Note_on_c, 1, 61, 75
4, 68519, Note_on_c, 1, 61, 0
4, 68520, Note_on_c, 1, 59, 75
4, 68543, Note_on_c, 1, 59, 0
4, 68544, Note_on_c, 1, 61, 75
4, 68633, Note_on_c, 1, 61, 0
4, 68784, Note_on_c, 1, 42, 75
4, 68829, Note_on_c, 1, 42, 0
4, 68832, Note_on_c, 1, 43, 75
4, 68877, Note_on_c, 1, 43, 0
4, 68880, Note_on_c, 1, 47, 75
4, 68925, Note_on_c, 1, 47, 0
4, 68928, Note_on_c, 1, 45, 75
4, 69017, Note_on_c, 1, 45, 0
4, 69024, Note_on_c, 1, 33, 75
4, 69091, Note_on_c, 1, 33, 0
4, 69216, Note_on_c, 1, 66, 59
4, 69216, Note_on_c, 1, 63, 59
4, 69255, Note_on_c, 1, 66, 0
4, 69255, Note_on_c, 1, 63, 0
4, 69312, Note_on_c, 1, 66, 61
4, 69312, Note_on_c, 1, 63, 61
4, 69351, Note_on_c, 1, 66, 0
4, 69351, Note_on_c, 1, 63, 0
4, 69408, Note_on_c, 1, 66, 62
4, 69408, Note_on_c, 1, 63, 62
4, 69447, Note_on_c, 1, 66, 0
4, 69447, Note_on_c, 1, 63, 0
4, 69600, Note_on_c, 1, 64, 62
4, 69600, Note_on_c, 1, 62, 62
4, 69689, Note_on_c, 1, 64, 0
4, 69689, Note_on_c, 1, 62, 0
4, 69696, Note_on_c, 1, 64, 60
4, 69696, Note_on_c, 1, 61, 60
4, 69735, Note_on_c, 1, 64, 0
4, 69735, Note_on_c, 1, 61, 0
4, 69792, Note_on_c, 1, 64, 58
4, 69792, Note_on_c, 1, 61, 58
4, 69831, Note_on_c, 1, 64, 0
4, 69831, Note_on_c, 1, 61, 0
4, 69984, Note_on_c, 1, 64, 59
4, 69984, Note_on_c, 1, 61, 59
4, 70023, Note_on_c, 1, 64, 0
4, 70023, Note_on_c, 1, 61, 0
4, 70080, Note_on_c, 1, 64, 61
4, 70080, Note_on_c, 1, 61, 61
4, 70119, Note_on_c, 1, 64, 0
4, 70119, Note_on_c, 1, 61, 0
4, 70176, Note_on_c, 1, 64, 62
4, 70176, Note_on_c, 1, 61, 62
4, 70215, Note_on_c, 1, 64, 0
4, 70215, Note_on_c, 1, 61, 0
4, 70368, Note_on_c, 1, 63, 61
4, 70368, Note_on_c, 1, 60, 61
4, 70457, Note_on_c, 1, 63, 0
4, 70457, Note_on_c, 1, 60, 0
4, 70464, Note_on_c, 1, 62, 58
4, 70464, Note_on_c, 1, 59, 58
4, 70503, Note_on_c, 1, 62, 0
4, 70503, Note_on_c, 1, 59, 0
4, 71040, Note_on_c, 1, 56, 80
4, 71063, Note_on_c, 1, 56, 0
4, 71064, Note_on_c, 1, 57, 80
4, 71087, Note_on_c, 1, 57, 0
4, 71088, Note_on_c, 1, 56, 80
4, 71111, Note_on_c, 1, 56, 0
4, 71112, Note_on_c, 1, 57, 80
4, 71135, Note_on_c, 1, 57, 0
4, 71136, Note_on_c, 1, 45, 80
4, 71175, Note_on_c, 1, 45, 0
4, 71808, Note_on_c, 1, 52, 80
4, 71808, Note_on_c, 1, 49, 80
4, 71808, Note_on_c, 1, 45, 80
4, 72073, Note_on_c, 1, 52, 0
4, 72073, Note_on_c, 1, 49, 0
4, 72073, Note_on_c, 1, 45, 0
4, 72576, Note_on_c, 1, 40, 80
4, 72606, Note_on_c, 1, 40, 0
4, 72608, Note_on_c, 1, 47, 80
4, 72638, Note_on_c, 1, 47, 0
4, 72640, Note_on_c, 1, 44, 80
4, 72670, Note_on_c, 1, 44, 0
4, 72672, Note_on_c, 1, 50, 80
4, 72702, Note_on_c, 1, 50, 0
4, 72704, Note_on_c, 1, 47, 80
4, 72734, Note_on_c, 1, 47, 0
4, 72736, Note_on_c, 1, 56, 80
4, 72766, Note_on_c, 1, 56, 0
4, 72768, Note_on_c, 1, 52, 80
4, 72798, Note_on_c, 1, 52, 0
4, 72800, Note_on_c, 1, 59, 80
4, 72830, Note_on_c, 1, 59, 0
4, 72832, Note_on_c, 1, 56, 80
4, 72862, Note_on_c, 1, 56, 0
4, 72864, Note_on_c, 1, 66, 80
4, 72894, Note_on_c, 1, 66, 0
4, 72896, Note_on_c, 1, 64, 80
4, 72926, Note_on_c, 1, 64, 0
4, 72928, Note_on_c, 1, 62, 80
4, 72958, Note_on_c, 1, 62, 0
4, 72960, Note_on_c, 1, 61, 80
4, 72983, Note_on_c, 1, 61, 0
4, 72984, Note_on_c, 1, 59, 80
4, 73007, Note_on_c, 1, 59, 0
4, 73008, Note_on_c, 1, 57, 80
4, 73031, Note_on_c, 1, 57, 0
4, 73032, Note_on_c, 1, 56, 80
4, 73055, Note_on_c, 1, 56, 0
4, 73056, Note_on_c, 1, 53, 96
4, 73211, Note_on_c, 1, 53, 0
4, 73216, Note_on_c, 1, 47, 80
4, 73246, Note_on_c, 1, 47, 0
4, 73248, Note_on_c, 1, 56, 76
4, 73278, Note_on_c, 1, 56, 0
4, 73280, Note_on_c, 1, 50, 72
4, 73310, Note_on_c, 1, 50, 0
4, 73312, Note_on_c, 1, 59, 69
4, 73342, Note_on_c, 1, 59, 0
4, 73344, Note_on_c, 1, 78, 80
4, 73521, Note_on_c, 1, 78, 0
4, 73536, Note_on_c, 1, 76, 77
4, 73713, Note_on_c, 1, 76, 0
4, 73728, Note_on_c, 1, 74, 75
4, 73905, Note_on_c, 1, 74, 0
4, 73920, Note_on_c, 1, 73, 72
4, 74097, Note_on_c, 1, 73, 0
4, 74160, Note_on_c, 1, 72, 70
4, 74160, Note_on_c, 1, 69, 70
4, 74205, Note_on_c, 1, 72, 0
4, 74205, Note_on_c, 1, 69, 0
4, 74208, Note_on_c, 1, 71, 70
4, 74208, Note_on_c, 1, 68, 70
4, 74253, Note_on_c, 1, 71, 0
4, 74253, Note_on_c, 1, 68, 0
4, 74256, Note_on_c, 1, 69, 70
4, 74256, Note_on_c, 1, 66, 70
4, 74301, Note_on_c, 1, 69, 0
4, 74301, Note_on_c, 1, 66, 0
4, 74304, Note_on_c, 1, 68, 70
4, 74304, Note_on_c, 1, 64, 70
4, 74349, Note_on_c, 1, 68, 0
4, 74349, Note_on_c, 1, 64, 0
4, 75072, Note_on_c, 1, 50, 67
4, 75072, Note_on_c, 1, 38, 67
4, 75264, Note_on_c, 1, 50, 0
4, 75264, Note_on_c, 1, 38, 0
4, 75264, Note_on_c, 1, 48, 70
4, 75264, Note_on_c, 1, 36, 70
4, 75303, Note_on_c, 1, 48, 0
4, 75303, Note_on_c, 1, 36, 0
4, 75456, Note_on_c, 1, 44, 73
4, 75456, Note_on_c, 1, 32, 73
4, 75648, Note_on_c, 1, 44, 0
4, 75648, Note_on_c, 1, 32, 0
4, 75648, Note_on_c, 1, 45, 76
4, 75648, Note_on_c, 1, 33, 76
4, 75687, Note_on_c, 1, 45, 0
4, 75687, Note_on_c, 1, 33, 0
4, 75840, Note_on_c, 1, 53, 80
4, 75840, Note_on_c, 1, 41, 80
4, 76032, Note_on_c, 1, 53, 0
4, 76032, Note_on_c, 1, 41, 0
4, 76032, Note_on_c, 1, 52, 69
4, 76032, Note_on_c, 1, 40, 69
4, 76121, Note_on_c, 1, 52, 0
4, 76121, Note_on_c, 1, 40, 0
4, 76416, Note_on_c, 1, 49, 80
4, 76439, Note_on_c, 1, 49, 0
4, 76440, Note_on_c, 1, 50, 80
4, 76463, Note_on_c, 1, 50, 0
4, 76464, Note_on_c, 1, 49, 80
4, 76487, Note_on_c, 1, 49, 0
4, 76488, Note_on_c, 1, 50, 80
4, 76511, Note_on_c, 1, 50, 0
4, 76512, Note_on_c, 1, 50, 80
4, 76532, Note_on_c, 1, 50, 0
4, 76608, Note_on_c, 1, 56, 80
4, 76631, Note_on_c, 1, 56, 0
4, 76632, Note_on_c, 1, 57, 80
4, 76655, Note_on_c, 1, 57, 0
4, 76656, Note_on_c, 1, 56, 80
4, 76679, Note_on_c, 1, 56, 0
4, 76680, Note_on_c, 1, 57, 80
4, 76703, Note_on_c, 1, 57, 0
4, 76704, Note_on_c, 1, 57, 80
4, 76724, Note_on_c, 1, 57, 0
4, 76800, Note_on_c, 1, 51, 80
4, 76823, Note_on_c, 1, 51, 0
4, 76824, Note_on_c, 1, 52, 80
4, 76847, Note_on_c, 1, 52, 0
4, 76848, Note_on_c, 1, 51, 80
4, 76871, Note_on_c, 1, 51, 0
4, 76872, Note_on_c, 1, 52, 80
4, 76895, Note_on_c, 1, 52, 0
4, 76896, Note_on_c, 1, 52, 80
4, 76916, Note_on_c, 1, 52, 0
4, 76992, Note_on_c, 1, 44, 80
4, 77015, Note_on_c, 1, 44, 0
4, 77016, Note_on_c, 1, 45, 80
4, 77039, Note_on_c, 1, 45, 0
4, 77040, Note_on_c, 1, 44, 80
4, 77063, Note_on_c, 1, 44, 0
4, 77064, Note_on_c, 1, 45, 80
4, 77087, Note_on_c, 1, 45, 0
4, 77088, Note_on_c, 1, 45, 80
4, 77108, Note_on_c, 1, 45, 0
4, 77184, Note_on_c, 1, 38, 80
4, 77361, Note_on_c, 1, 38, 0
4, 77568, Note_on_c, 1, 52, 80
4, 77588, Note_on_c, 1, 52, 0
4, 77616, Note_on_c, 1, 50, 78
4, 77636, Note_on_c, 1, 50, 0
4, 77664, Note_on_c, 1, 49, 77
4, 77684, Note_on_c, 1, 49, 0
4, 77712, Note_on_c, 1, 47, 76
4, 77732, Note_on_c, 1, 47, 0
4, 77760, Note_on_c, 1, 45, 75
4, 77780, Note_on_c, 1, 45, 0
4, 77808, Note_on_c, 1, 44, 73
4, 77828, Note_on_c, 1, 44, 0
4, 77856, Note_on_c, 1, 42, 72
4, 77876, Note_on_c, 1, 42, 0
4, 77904, Note_on_c, 1, 40, 71
4, 77924, Note_on_c, 1, 40, 0
4, 77952, Note_on_c, 1, 50, 64
4, 78041, Note_on_c, 1, 50, 0
4, 78144, Note_on_c, 1, 52, 64
4, 78233, Note_on_c, 1, 52, 0
4, 78336, Note_on_c, 1, 57, 64
4, 78336, Note_on_c, 1, 45, 64
4, 78425, Note_on_c, 1, 57, 0
4, 78425, Note_on_c, 1, 45, 0
4, 78720, Note_on_c, 1, 52, 80
4, 78744, Note_on_c, 1, 52, 0
4, 78744, Note_on_c, 1, 49, 80
4, 78767, Note_on_c, 1, 49, 0
4, 78768, Note_on_c, 1, 57, 81
4, 78778, Note_on_c, 1, 57, 0
4, 78792, Note_on_c, 1, 57, 81
4, 78802, Note_on_c, 1, 57, 0
4, 78816, Note_on_c, 1, 57, 82
4, 78840, Note_on_c, 1, 57, 0
4, 78840, Note_on_c, 1, 52, 82
4, 78863, Note_on_c, 1, 52, 0
4, 78864, Note_on_c, 1, 61, 83
4, 78874, Note_on_c, 1, 61, 0
4, 78888, Note_on_c, 1, 61, 83
4, 78898, Note_on_c, 1, 61, 0
4, 78912, Note_on_c, 1, 61, 84
4, 78951, Note_on_c, 1, 61, 0
4, 79104, Note_on_c, 1, 74, 64
4, 79143, Note_on_c, 1, 74, 0
4, 79200, Note_on_c, 1, 73, 64
4, 79239, Note_on_c, 1, 73, 0
4, 79488, Note_on_c, 1, 52, 80
4, 79488, Note_on_c, 1, 40, 80
4, 79577, Note_on_c, 1, 52, 0
4, 79577, Note_on_c, 1, 40, 0
4, 79584, Note_on_c, 1, 45, 80
4, 79584, Note_on_c, 1, 33, 80
4, 79673, Note_on_c, 1, 45, 0
4, 79673, Note_on_c, 1, 33, 0
4, 79872, Note_on_c, 1, 45, 0
4, 79961, Note_on_c, 1, 45, 0
4, 80256, End_track
5, 0, Start_track
5, 0, Program_c, 1, 0
5, 0, Control_c, 1, 7, 127
5, 0, Control_c, 1, 10, 64
5, 8832, Note_on_c, 1, 73, 80
5, 9009, Note_on_c, 1, 73, 0
5, 9024, Note_on_c, 1, 71, 77
5, 9201, Note_on_c, 1, 71, 0
5, 9216, Note_on_c, 1, 69, 75
5, 9393, Note_on_c, 1, 69, 0
5, 9408, Note_on_c, 1, 67, 72
5, 9585, Note_on_c, 1, 67, 0
5, 24192, Note_on_c, 1, 73, 80
5, 24369, Note_on_c, 1, 73, 0
5, 24384, Note_on_c, 1, 71, 77
5, 24561, Note_on_c, 1, 71, 0
5, 24576, Note_on_c, 1, 69, 75
5, 24753, Note_on_c, 1, 69, 0
5, 24768, Note_on_c, 1, 67, 72
5, 24945, Note_on_c, 1, 67, 0
5, 48768, Note_on_c, 1, 76, 80
5, 48857, Note_on_c, 1, 76, 0
5, 48864, Note_on_c, 1, 74, 78
5, 48953, Note_on_c, 1, 74, 0
5, 48960, Note_on_c, 1, 74, 77
5, 49049, Note_on_c, 1, 74, 0
5, 49056, Note_on_c, 1, 73, 76
5, 49145, Note_on_c, 1, 73, 0
5, 49152, Note_on_c, 1, 73, 75
5, 49241, Note_on_c, 1, 73, 0
5, 49248, Note_on_c, 1, 71, 73
5, 49337, Note_on_c, 1, 71, 0
5, 49344, Note_on_c, 1, 71, 72
5, 49433, Note_on_c, 1, 71, 0
5, 49440, Note_on_c, 1, 69, 71
5, 49529, Note_on_c, 1, 69, 0
5, 73344, Note_on_c, 1, 76, 80
5, 73433, Note_on_c, 1, 76, 0
5, 73440, Note_on_c, 1, 74, 78
5, 73529, Note_on_c, 1, 74, 0
5, 73536, Note_on_c, 1, 74, 77
5, 73625, Note_on_c, 1, 74, 0
5, 73632, Note_on_c, 1, 73, 76
5, 73721, Note_on_c, 1, 73, 0
5, 73728, Note_on_c, 1, 73, 75
5, 73817, Note_on_c, 1, 73, 0
5, 73824, Note_on_c, 1, 71, 73
5, 73913, Note_on_c, 1, 71, 0
5, 73920, Note_on_c, 1, 71, 72
5, 74009, Note_on_c, 1, 71, 0
5, 74016, Note_on_c, 1, 69, 71
5, 74105, Note_on_c, 1, 69, 0
5, 80256, End_track
6, 0, Start_track
6, 0, Title_t, "Sonata I   Haydn  "
6, 0, End_track
0, 0, End_of_file
