0, 0, Header, 1, 6, 96
1, 0, Start_track
1, 0, Copyright_t, "Copyright  2000 <copyright holder>"
1, 0, Text_t, "Sonata III\015\012"
1, 0, Text_t, "<composer>\015\012"
1, 0, Sequencer_specific, 16, 68, 87, 77, 90, 86, 82, 83, 78, 32, 55, 46, 48, 46, 56, 46, 48
1, 0, Time_signature, 2, 2, 24, 8
1, 0, Tempo, 120000
1, 0, Key_signature, 4, "major"
1, 144, Tempo, 400000
1, 8400, Tempo, 400000
1, 41280, End_track
2, 0, Start_track
2, 0, Program_c, 0, 0
2, 0, Control_c, 0, 7, 127
2, 0, Control_c, 0, 10, 64
2, 144, Note_on_c, 0, 64, 75
2, 144, Note_on_c, 0, 56, 75
2, 164, Note_on_c, 0, 64, 0
2, 164, Note_on_c, 0, 56, 0
2, 192, Note_on_c, 0, 64, 75
2, 192, Note_on_c, 0, 56, 75
2, 281, Note_on_c, 0, 64, 0
2, 281, Note_on_c, 0, 56, 0
2, 336, Note_on_c, 0, 68, 76
2, 336, Note_on_c, 0, 64, 76
2, 356, Note_on_c, 0, 68, 0
2, 356, Note_on_c, 0, 64, 0
2, 384, Note_on_c, 0, 68, 77
2, 384, Note_on_c, 0, 64, 77
2, 473, Note_on_c, 0, 68, 0
2, 473, Note_on_c, 0, 64, 0
2, 528, Note_on_c, 0, 71, 79
2, 528, Note_on_c, 0, 68, 79
2, 548, Note_on_c, 0, 71, 0
2, 548, Note_on_c, 0, 68, 0
2, 576, Note_on_c, 0, 71, 80
2, 576, Note_on_c, 0, 68, 80
2, 665, Note_on_c, 0, 71, 0
2, 665, Note_on_c, 0, 68, 0
2, 720, Note_on_c, 0, 76, 82
2, 720, Note_on_c, 0, 68, 82
2, 740, Note_on_c, 0, 76, 0
2, 740, Note_on_c, 0, 68, 0
2, 768, Note_on_c, 0, 76, 82
2, 768, Note_on_c, 0, 68, 82
2, 857, Note_on_c, 0, 76, 0
2, 857, Note_on_c, 0, 68, 0
2, 912, Note_on_c, 0, 71, 83
2, 912, Note_on_c, 0, 68, 83
2, 957, Note_on_c, 0, 71, 0
2, 957, Note_on_c, 0, 68, 0
2, 960, Note_on_c, 0, 69, 82
2, 960, Note_on_c, 0, 66, 82
2, 1008, Note_on_c, 0, 69, 0
2, 1008, Note_on_c, 0, 66, 0
2, 1008, Note_on_c, 0, 68, 82
2, 1008, Note_on_c, 0, 64, 82
2, 1028, Note_on_c, 0, 68, 0
2, 1028, Note_on_c, 0, 64, 0
2, 1056, Note_on_c, 0, 69, 81
2, 1056, Note_on_c, 0, 66, 81
2, 1104, Note_on_c, 0, 69, 0
2, 1104, Note_on_c, 0, 63, 80
2, 1124, Note_on_c, 0, 66, 0
2, 1124, Note_on_c, 0, 63, 0
2, 1152, Note_on_c, 0, 68, 80
2, 1152, Note_on_c, 0, 64, 80
2, 1197, Note_on_c, 0, 68, 0
2, 1197, Note_on_c, 0, 64, 0
2, 1200, Note_on_c, 0, 71, 79
2, 1200, Note_on_c, 0, 68, 79
2, 1220, Note_on_c, 0, 71, 0
2, 1220, Note_on_c, 0, 68, 0
2, 1296, Note_on_c, 0, 71, 78
2, 1296, Note_on_c, 0, 68, 78
2, 1341, Note_on_c, 0, 71, 0
2, 1341, Note_on_c, 0, 68, 0
2, 1344, Note_on_c, 0, 69, 77
2, 1344, Note_on_c, 0, 66, 77
2, 1392, Note_on_c, 0, 69, 0
2, 1392, Note_on_c, 0, 66, 0
2, 1392, Note_on_c, 0, 68, 76
2, 1392, Note_on_c, 0, 64, 76
2, 1412, Note_on_c, 0, 68, 0
2, 1412, Note_on_c, 0, 64, 0
2, 1440, Note_on_c, 0, 69, 76
2, 1440, Note_on_c, 0, 66, 76
2, 1488, Note_on_c, 0, 69, 0
2, 1488, Note_on_c, 0, 63, 75
2, 1508, Note_on_c, 0, 66, 0
2, 1508, Note_on_c, 0, 63, 0
2, 1536, Note_on_c, 0, 64, 75
2, 1581, Note_on_c, 0, 64, 0
2, 1584, Note_on_c, 0, 59, 75
2, 1629, Note_on_c, 0, 59, 0
2, 1680, Note_on_c, 0, 64, 69
2, 1680, Note_on_c, 0, 55, 69
2, 1700, Note_on_c, 0, 64, 0
2, 1700, Note_on_c, 0, 55, 0
2, 1728, Note_on_c, 0, 64, 69
2, 1728, Note_on_c, 0, 55, 69
2, 1817, Note_on_c, 0, 64, 0
2, 1817, Note_on_c, 0, 55, 0
2, 1872, Note_on_c, 0, 67, 69
2, 1872, Note_on_c, 0, 64, 69
2, 1892, Note_on_c, 0, 67, 0
2, 1892, Note_on_c, 0, 64, 0
2, 1920, Note_on_c, 0, 67, 69
2, 1920, Note_on_c, 0, 64, 69
2, 2009, Note_on_c, 0, 67, 0
2, 2009, Note_on_c, 0, 64, 0
2, 2064, Note_on_c, 0, 71, 73
2, 2064, Note_on_c, 0, 67, 73
2, 2084, Note_on_c, 0, 71, 0
2, 2084, Note_on_c, 0, 67, 0
2, 2112, Note_on_c, 0, 71, 75
2, 2112, Note_on_c, 0, 67, 75
2, 2201, Note_on_c, 0, 71, 0
2, 2201, Note_on_c, 0, 67, 0
2, 2256, Note_on_c, 0, 76, 79
2, 2256, Note_on_c, 0, 67, 79
2, 2276, Note_on_c, 0, 76, 0
2, 2276, Note_on_c, 0, 67, 0
2, 2304, Note_on_c, 0, 76, 81
2, 2304, Note_on_c, 0, 67, 81
2, 2393, Note_on_c, 0, 76, 0
2, 2393, Note_on_c, 0, 67, 0
2, 2448, Note_on_c, 0, 71, 84
2, 2448, Note_on_c, 0, 67, 84
2, 2493, Note_on_c, 0, 71, 0
2, 2493, Note_on_c, 0, 67, 0
2, 2544, Note_on_c, 0, 69, 82
2, 2544, Note_on_c, 0, 66, 82
2, 2589, Note_on_c, 0, 69, 0
2, 2589, Note_on_c, 0, 66, 0
2, 2640, Note_on_c, 0, 67, 80
2, 2640, Note_on_c, 0, 64, 80
2, 2685, Note_on_c, 0, 67, 0
2, 2685, Note_on_c, 0, 64, 0
2, 2736, Note_on_c, 0, 66, 78
2, 2736, Note_on_c, 0, 63, 78
2, 2781, Note_on_c, 0, 66, 0
2, 2781, Note_on_c, 0, 63, 0
2, 2784, Note_on_c, 0, 59, 77
2, 2829, Note_on_c, 0, 59, 0
2, 2832, Note_on_c, 0, 71, 76
2, 2832, Note_on_c, 0, 67, 76
2, 2877, Note_on_c, 0, 71, 0
2, 2877, Note_on_c, 0, 67, 0
2, 2928, Note_on_c, 0, 69, 74
2, 2928, Note_on_c, 0, 66, 74
2, 2973, Note_on_c, 0, 69, 0
2, 2973, Note_on_c, 0, 66, 0
2, 3024, Note_on_c, 0, 67, 72
2, 3024, Note_on_c, 0, 64, 72
2, 3069, Note_on_c, 0, 67, 0
2, 3069, Note_on_c, 0, 64, 0
2, 3120, Note_on_c, 0, 66, 70
2, 3120, Note_on_c, 0, 63, 70
2, 3165, Note_on_c, 0, 66, 0
2, 3165, Note_on_c, 0, 63, 0
2, 3168, Note_on_c, 0, 59, 69
2, 3213, Note_on_c, 0, 59, 0
2, 3216, Note_on_c, 0, 71, 69
2, 3216, Note_on_c, 0, 67, 69
2, 3261, Note_on_c, 0, 71, 0
2, 3261, Note_on_c, 0, 67, 0
2, 3312, Note_on_c, 0, 69, 69
2, 3312, Note_on_c, 0, 66, 69
2, 3357, Note_on_c, 0, 69, 0
2, 3357, Note_on_c, 0, 66, 0
2, 3408, Note_on_c, 0, 67, 65
2, 3408, Note_on_c, 0, 64, 65
2, 3453, Note_on_c, 0, 67, 0
2, 3453, Note_on_c, 0, 64, 0
2, 3456, Note_on_c, 0, 66, 64
2, 3456, Note_on_c, 0, 63, 64
2, 3545, Note_on_c, 0, 66, 0
2, 3545, Note_on_c, 0, 63, 0
2, 3648, Control_c, 0, 64, 127
2, 3648, Note_on_c, 0, 75, 84
2, 3671, Note_on_c, 0, 75, 0
2, 3672, Note_on_c, 0, 71, 84
2, 3695, Note_on_c, 0, 71, 0
2, 3696, Note_on_c, 0, 78, 84
2, 3719, Note_on_c, 0, 78, 0
2, 3720, Note_on_c, 0, 75, 84
2, 3743, Note_on_c, 0, 75, 0
2, 3744, Note_on_c, 0, 83, 84
2, 3767, Note_on_c, 0, 83, 0
2, 3768, Note_on_c, 0, 78, 84
2, 3791, Note_on_c, 0, 78, 0
2, 3792, Note_on_c, 0, 75, 84
2, 3815, Note_on_c, 0, 75, 0
2, 3816, Note_on_c, 0, 71, 84
2, 3839, Note_on_c, 0, 71, 0
2, 3840, Note_on_c, 0, 75, 84
2, 3863, Note_on_c, 0, 75, 0
2, 3864, Note_on_c, 0, 71, 84
2, 3887, Note_on_c, 0, 71, 0
2, 3888, Note_on_c, 0, 78, 84
2, 3911, Note_on_c, 0, 78, 0
2, 3912, Note_on_c, 0, 75, 84
2, 3935, Note_on_c, 0, 75, 0
2, 3936, Note_on_c, 0, 83, 84
2, 3959, Note_on_c, 0, 83, 0
2, 3960, Note_on_c, 0, 78, 84
2, 3983, Note_on_c, 0, 78, 0
2, 3984, Note_on_c, 0, 75, 84
2, 4007, Note_on_c, 0, 75, 0
2, 4008, Note_on_c, 0, 71, 84
2, 4031, Note_on_c, 0, 71, 0
2, 4032, Note_on_c, 0, 75, 84
2, 4055, Note_on_c, 0, 75, 0
2, 4056, Note_on_c, 0, 71, 84
2, 4079, Note_on_c, 0, 71, 0
2, 4080, Note_on_c, 0, 78, 84
2, 4103, Note_on_c, 0, 78, 0
2, 4104, Note_on_c, 0, 75, 84
2, 4127, Note_on_c, 0, 75, 0
2, 4128, Note_on_c, 0, 83, 84
2, 4151, Note_on_c, 0, 83, 0
2, 4152, Note_on_c, 0, 78, 84
2, 4175, Note_on_c, 0, 78, 0
2, 4176, Note_on_c, 0, 75, 84
2, 4199, Note_on_c, 0, 75, 0
2, 4200, Note_on_c, 0, 71, 84
2, 4223, Note_on_c, 0, 71, 0
2, 4224, Note_on_c, 0, 76, 84
2, 4247, Note_on_c, 0, 76, 0
2, 4248, Note_on_c, 0, 71, 84
2, 4271, Note_on_c, 0, 71, 0
2, 4272, Note_on_c, 0, 80, 84
2, 4295, Note_on_c, 0, 80, 0
2, 4296, Note_on_c, 0, 76, 84
2, 4319, Note_on_c, 0, 76, 0
2, 4320, Note_on_c, 0, 83, 84
2, 4343, Note_on_c, 0, 83, 0
2, 4344, Note_on_c, 0, 80, 84
2, 4367, Note_on_c, 0, 80, 0
2, 4368, Note_on_c, 0, 76, 84
2, 4391, Note_on_c, 0, 76, 0
2, 4392, Control_c, 0, 64, 0
2, 4392, Note_on_c, 0, 71, 84
2, 4415, Note_on_c, 0, 71, 0
2, 4416, Control_c, 0, 64, 127
2, 4416, Note_on_c, 0, 83, 84
2, 4439, Note_on_c, 0, 83, 0
2, 4440, Note_on_c, 0, 78, 84
2, 4463, Note_on_c, 0, 78, 0
2, 4464, Note_on_c, 0, 75, 84
2, 4487, Note_on_c, 0, 75, 0
2, 4488, Control_c, 0, 64, 0
2, 4488, Note_on_c, 0, 71, 84
2, 4511, Note_on_c, 0, 71, 0
2, 4512, Control_c, 0, 64, 127
2, 4512, Note_on_c, 0, 83, 84
2, 4535, Note_on_c, 0, 83, 0
2, 4536, Note_on_c, 0, 80, 84
2, 4559, Note_on_c, 0, 80, 0
2, 4560, Note_on_c, 0, 76, 84
2, 4583, Note_on_c, 0, 76, 0
2, 4584, Control_c, 0, 64, 0
2, 4584, Note_on_c, 0, 71, 84
2, 4607, Note_on_c, 0, 71, 0
2, 4608, Control_c, 0, 64, 127
2, 4608, Note_on_c, 0, 83, 84
2, 4631, Note_on_c, 0, 83, 0
2, 4632, Note_on_c, 0, 78, 84
2, 4655, Note_on_c, 0, 78, 0
2, 4656, Note_on_c, 0, 75, 84
2, 4679, Note_on_c, 0, 75, 0
2, 4680, Control_c, 0, 64, 0
2, 4680, Note_on_c, 0, 71, 84
2, 4703, Note_on_c, 0, 71, 0
2, 4704, Control_c, 0, 64, 127
2, 4704, Note_on_c, 0, 83, 84
2, 4727, Note_on_c, 0, 83, 0
2, 4728, Note_on_c, 0, 80, 84
2, 4751, Note_on_c, 0, 80, 0
2, 4752, Note_on_c, 0, 76, 84
2, 4775, Note_on_c, 0, 76, 0
2, 4776, Control_c, 0, 64, 0
2, 4776, Note_on_c, 0, 71, 84
2, 4799, Note_on_c, 0, 71, 0
2, 4800, Control_c, 0, 64, 127
2, 4800, Note_on_c, 0, 83, 84
2, 4823, Note_on_c, 0, 83, 0
2, 4824, Note_on_c, 0, 78, 84
2, 4847, Note_on_c, 0, 78, 0
2, 4848, Note_on_c, 0, 75, 84
2, 4871, Note_on_c, 0, 75, 0
2, 4872, Control_c, 0, 64, 0
2, 4872, Note_on_c, 0, 71, 84
2, 4895, Note_on_c, 0, 71, 0
2, 4896, Control_c, 0, 64, 127
2, 4896, Note_on_c, 0, 83, 84
2, 4919, Note_on_c, 0, 83, 0
2, 4920, Note_on_c, 0, 80, 84
2, 4943, Note_on_c, 0, 80, 0
2, 4944, Note_on_c, 0, 76, 84
2, 4967, Note_on_c, 0, 76, 0
2, 4968, Control_c, 0, 64, 0
2, 4968, Note_on_c, 0, 71, 84
2, 4991, Note_on_c, 0, 71, 0
2, 4992, Note_on_c, 0, 73, 84
2, 5009, Note_on_c, 0, 73, 0
2, 5010, Note_on_c, 0, 75, 84
2, 5027, Note_on_c, 0, 75, 0
2, 5028, Note_on_c, 0, 73, 84
2, 5045, Note_on_c, 0, 73, 0
2, 5046, Note_on_c, 0, 75, 84
2, 5063, Note_on_c, 0, 75, 0
2, 5064, Note_on_c, 0, 73, 84
2, 5081, Note_on_c, 0, 73, 0
2, 5082, Note_on_c, 0, 75, 84
2, 5098, Note_on_c, 0, 75, 0
2, 5099, Note_on_c, 0, 73, 84
2, 5115, Note_on_c, 0, 73, 0
2, 5116, Note_on_c, 0, 75, 84
2, 5132, Note_on_c, 0, 75, 0
2, 5133, Note_on_c, 0, 73, 84
2, 5149, Note_on_c, 0, 73, 0
2, 5150, Note_on_c, 0, 71, 84
2, 5166, Note_on_c, 0, 71, 0
2, 5167, Note_on_c, 0, 73, 84
2, 5183, Note_on_c, 0, 73, 0
2, 5184, Note_on_c, 0, 71, 84
2, 5273, Note_on_c, 0, 71, 0
2, 5328, Note_on_c, 0, 78, 61
2, 5328, Note_on_c, 0, 75, 61
2, 5348, Note_on_c, 0, 78, 0
2, 5348, Note_on_c, 0, 75, 0
2, 5376, Note_on_c, 0, 78, 61
2, 5376, Note_on_c, 0, 75, 61
2, 5421, Note_on_c, 0, 78, 0
2, 5421, Note_on_c, 0, 75, 0
2, 5424, Note_on_c, 0, 75, 61
2, 5424, Note_on_c, 0, 71, 61
2, 5444, Note_on_c, 0, 75, 0
2, 5444, Note_on_c, 0, 71, 0
2, 5472, Note_on_c, 0, 75, 61
2, 5472, Note_on_c, 0, 71, 61
2, 5517, Note_on_c, 0, 75, 0
2, 5517, Note_on_c, 0, 71, 0
2, 5520, Note_on_c, 0, 76, 61
2, 5520, Note_on_c, 0, 73, 61
2, 5540, Note_on_c, 0, 76, 0
2, 5540, Note_on_c, 0, 73, 0
2, 5568, Note_on_c, 0, 76, 61
2, 5568, Note_on_c, 0, 73, 61
2, 5616, Note_on_c, 0, 76, 0
2, 5616, Note_on_c, 0, 70, 61
2, 5661, Note_on_c, 0, 73, 0
2, 5661, Note_on_c, 0, 70, 0
2, 5712, Note_on_c, 0, 66, 84
2, 5732, Note_on_c, 0, 66, 0
2, 5760, Note_on_c, 0, 71, 84
2, 5808, Note_on_c, 0, 71, 0
2, 5808, Note_on_c, 0, 66, 84
2, 5853, Note_on_c, 0, 66, 0
2, 5856, Note_on_c, 0, 71, 84
2, 5879, Note_on_c, 0, 71, 0
2, 5880, Note_on_c, 0, 66, 84
2, 5903, Note_on_c, 0, 66, 0
2, 5904, Note_on_c, 0, 63, 84
2, 5927, Note_on_c, 0, 63, 0
2, 5928, Note_on_c, 0, 59, 84
2, 5951, Note_on_c, 0, 59, 0
2, 5952, Note_on_c, 0, 66, 84
2, 6041, Note_on_c, 0, 66, 0
2, 6096, Note_on_c, 0, 78, 61
2, 6096, Note_on_c, 0, 74, 61
2, 6116, Note_on_c, 0, 78, 0
2, 6116, Note_on_c, 0, 74, 0
2, 6144, Note_on_c, 0, 78, 61
2, 6144, Note_on_c, 0, 74, 61
2, 6189, Note_on_c, 0, 78, 0
2, 6189, Note_on_c, 0, 74, 0
2, 6192, Note_on_c, 0, 74, 61
2, 6192, Note_on_c, 0, 71, 61
2, 6212, Note_on_c, 0, 74, 0
2, 6212, Note_on_c, 0, 71, 0
2, 6240, Note_on_c, 0, 74, 61
2, 6240, Note_on_c, 0, 71, 61
2, 6285, Note_on_c, 0, 74, 0
2, 6285, Note_on_c, 0, 71, 0
2, 6288, Note_on_c, 0, 76, 61
2, 6288, Note_on_c, 0, 73, 61
2, 6308, Note_on_c, 0, 76, 0
2, 6308, Note_on_c, 0, 73, 0
2, 6336, Note_on_c, 0, 76, 61
2, 6336, Note_on_c, 0, 73, 61
2, 6384, Note_on_c, 0, 76, 0
2, 6384, Note_on_c, 0, 70, 61
2, 6429, Note_on_c, 0, 73, 0
2, 6429, Note_on_c, 0, 70, 0
2, 6480, Note_on_c, 0, 70, 69
2, 6525, Note_on_c, 0, 70, 0
2, 6528, Note_on_c, 0, 71, 69
2, 6595, Note_on_c, 0, 71, 0
2, 6600, Note_on_c, 0, 70, 69
2, 6623, Note_on_c, 0, 70, 0
2, 6624, Note_on_c, 0, 71, 69
2, 6647, Note_on_c, 0, 71, 0
2, 6648, Note_on_c, 0, 74, 69
2, 6671, Note_on_c, 0, 74, 0
2, 6672, Note_on_c, 0, 73, 69
2, 6695, Note_on_c, 0, 73, 0
2, 6696, Note_on_c, 0, 71, 69
2, 6719, Note_on_c, 0, 71, 0
2, 6720, Note_on_c, 0, 70, 69
2, 6809, Note_on_c, 0, 70, 0
2, 6864, Note_on_c, 0, 71, 75
2, 6864, Note_on_c, 0, 63, 75
2, 6909, Note_on_c, 0, 71, 0
2, 6909, Note_on_c, 0, 63, 0
2, 6912, Note_on_c, 0, 71, 75
2, 6912, Note_on_c, 0, 63, 75
2, 6957, Note_on_c, 0, 71, 0
2, 6957, Note_on_c, 0, 63, 0
2, 6960, Note_on_c, 0, 75, 75
2, 6960, Note_on_c, 0, 71, 75
2, 6980, Note_on_c, 0, 75, 0
2, 6980, Note_on_c, 0, 71, 0
2, 7008, Note_on_c, 0, 75, 75
2, 7008, Note_on_c, 0, 71, 75
2, 7053, Note_on_c, 0, 75, 0
2, 7053, Note_on_c, 0, 71, 0
2, 7056, Note_on_c, 0, 78, 75
2, 7056, Note_on_c, 0, 75, 75
2, 7076, Note_on_c, 0, 78, 0
2, 7076, Note_on_c, 0, 75, 0
2, 7104, Note_on_c, 0, 78, 75
2, 7171, Note_on_c, 0, 78, 0
2, 7176, Note_on_c, 0, 83, 75
2, 7199, Note_on_c, 0, 83, 0
2, 7200, Note_on_c, 0, 78, 75
2, 7245, Note_on_c, 0, 78, 0
2, 7296, Note_on_c, 0, 80, 75
2, 7363, Note_on_c, 0, 80, 0
2, 7368, Note_on_c, 0, 82, 75
2, 7391, Note_on_c, 0, 82, 0
2, 7392, Note_on_c, 0, 83, 75
2, 7437, Note_on_c, 0, 83, 0
2, 7488, Note_on_c, 0, 80, 75
2, 7555, Note_on_c, 0, 80, 0
2, 7560, Note_on_c, 0, 82, 75
2, 7583, Note_on_c, 0, 82, 0
2, 7584, Note_on_c, 0, 83, 75
2, 7629, Note_on_c, 0, 83, 0
2, 7680, Note_on_c, 0, 80, 75
2, 7703, Note_on_c, 0, 80, 0
2, 7704, Note_on_c, 0, 83, 75
2, 7727, Note_on_c, 0, 83, 0
2, 7728, Note_on_c, 0, 82, 75
2, 7751, Note_on_c, 0, 82, 0
2, 7752, Note_on_c, 0, 80, 75
2, 7775, Note_on_c, 0, 80, 0
2, 7776, Note_on_c, 0, 78, 75
2, 7799, Note_on_c, 0, 78, 0
2, 7800, Note_on_c, 0, 76, 75
2, 7823, Note_on_c, 0, 76, 0
2, 7824, Note_on_c, 0, 75, 75
2, 7847, Note_on_c, 0, 75, 0
2, 7848, Note_on_c, 0, 73, 75
2, 7871, Note_on_c, 0, 73, 0
2, 7872, Note_on_c, 0, 71, 75
2, 7961, Note_on_c, 0, 71, 0
2, 7968, Note_on_c, 0, 75, 75
2, 7983, Note_on_c, 0, 75, 0
2, 7984, Note_on_c, 0, 73, 75
2, 7999, Note_on_c, 0, 73, 0
2, 8000, Note_on_c, 0, 75, 75
2, 8015, Note_on_c, 0, 75, 0
2, 8016, Note_on_c, 0, 73, 75
2, 8031, Note_on_c, 0, 73, 0
2, 8032, Note_on_c, 0, 71, 75
2, 8047, Note_on_c, 0, 71, 0
2, 8048, Note_on_c, 0, 73, 75
2, 8063, Note_on_c, 0, 73, 0
2, 8064, Note_on_c, 0, 71, 84
2, 8153, Note_on_c, 0, 71, 0
2, 8160, Note_on_c, 0, 83, 84
2, 8160, Note_on_c, 0, 75, 84
2, 8205, Note_on_c, 0, 83, 0
2, 8205, Note_on_c, 0, 75, 0
2, 8256, Note_on_c, 0, 83, 84
2, 8256, Note_on_c, 0, 75, 84
2, 8345, Note_on_c, 0, 83, 0
2, 8345, Note_on_c, 0, 75, 0
2, 8400, Note_on_c, 0, 64, 75
2, 8400, Note_on_c, 0, 56, 75
2, 8420, Note_on_c, 0, 64, 0
2, 8420, Note_on_c, 0, 56, 0
2, 8448, Note_on_c, 0, 64, 75
2, 8448, Note_on_c, 0, 56, 75
2, 8537, Note_on_c, 0, 64, 0
2, 8537, Note_on_c, 0, 56, 0
2, 8592, Note_on_c, 0, 68, 76
2, 8592, Note_on_c, 0, 64, 76
2, 8612, Note_on_c, 0, 68, 0
2, 8612, Note_on_c, 0, 64, 0
2, 8640, Note_on_c, 0, 68, 77
2, 8640, Note_on_c, 0, 64, 77
2, 8729, Note_on_c, 0, 68, 0
2, 8729, Note_on_c, 0, 64, 0
2, 8784, Note_on_c, 0, 71, 79
2, 8784, Note_on_c, 0, 68, 79
2, 8804, Note_on_c, 0, 71, 0
2, 8804, Note_on_c, 0, 68, 0
2, 8832, Note_on_c, 0, 71, 80
2, 8832, Note_on_c, 0, 68, 80
2, 8921, Note_on_c, 0, 71, 0
2, 8921, Note_on_c, 0, 68, 0
2, 8976, Note_on_c, 0, 76, 82
2, 8976, Note_on_c, 0, 68, 82
2, 8996, Note_on_c, 0, 76, 0
2, 8996, Note_on_c, 0, 68, 0
2, 9024, Note_on_c, 0, 76, 82
2, 9024, Note_on_c, 0, 68, 82
2, 9113, Note_on_c, 0, 76, 0
2, 9113, Note_on_c, 0, 68, 0
2, 9168, Note_on_c, 0, 71, 83
2, 9168, Note_on_c, 0, 68, 83
2, 9213, Note_on_c, 0, 71, 0
2, 9213, Note_on_c, 0, 68, 0
2, 9216, Note_on_c, 0, 69, 82
2, 9216, Note_on_c, 0, 66, 82
2, 9264, Note_on_c, 0, 69, 0
2, 9264, Note_on_c, 0, 66, 0
2, 9264, Note_on_c, 0, 68, 82
2, 9264, Note_on_c, 0, 64, 82
2, 9284, Note_on_c, 0, 68, 0
2, 9284, Note_on_c, 0, 64, 0
2, 9312, Note_on_c, 0, 69, 81
2, 9312, Note_on_c, 0, 66, 81
2, 9360, Note_on_c, 0, 69, 0
2, 9360, Note_on_c, 0, 63, 80
2, 9380, Note_on_c, 0, 66, 0
2, 9380, Note_on_c, 0, 63, 0
2, 9408, Note_on_c, 0, 68, 80
2, 9408, Note_on_c, 0, 64, 80
2, 9453, Note_on_c, 0, 68, 0
2, 9453, Note_on_c, 0, 64, 0
2, 9456, Note_on_c, 0, 71, 79
2, 9456, Note_on_c, 0, 68, 79
2, 9476, Note_on_c, 0, 71, 0
2, 9476, Note_on_c, 0, 68, 0
2, 9552, Note_on_c, 0, 71, 78
2, 9552, Note_on_c, 0, 68, 78
2, 9597, Note_on_c, 0, 71, 0
2, 9597, Note_on_c, 0, 68, 0
2, 9600, Note_on_c, 0, 69, 77
2, 9600, Note_on_c, 0, 66, 77
2, 9648, Note_on_c, 0, 69, 0
2, 9648, Note_on_c, 0, 66, 0
2, 9648, Note_on_c, 0, 68, 76
2, 9648, Note_on_c, 0, 64, 76
2, 9668, Note_on_c, 0, 68, 0
2, 9668, Note_on_c, 0, 64, 0
2, 9696, Note_on_c, 0, 69, 76
2, 9696, Note_on_c, 0, 66, 76
2, 9744, Note_on_c, 0, 69, 0
2, 9744, Note_on_c, 0, 63, 75
2, 9764, Note_on_c, 0, 66, 0
2, 9764, Note_on_c, 0, 63, 0
2, 9792, Note_on_c, 0, 64, 75
2, 9837, Note_on_c, 0, 64, 0
2, 9840, Note_on_c, 0, 59, 75
2, 9885, Note_on_c, 0, 59, 0
2, 9936, Note_on_c, 0, 64, 69
2, 9936, Note_on_c, 0, 55, 69
2, 9956, Note_on_c, 0, 64, 0
2, 9956, Note_on_c, 0, 55, 0
2, 9984, Note_on_c, 0, 64, 69
2, 9984, Note_on_c, 0, 55, 69
2, 10073, Note_on_c, 0, 64, 0
2, 10073, Note_on_c, 0, 55, 0
2, 10128, Note_on_c, 0, 67, 69
2, 10128, Note_on_c, 0, 64, 69
2, 10148, Note_on_c, 0, 67, 0
2, 10148, Note_on_c, 0, 64, 0
2, 10176, Note_on_c, 0, 67, 69
2, 10176, Note_on_c, 0, 64, 69
2, 10265, Note_on_c, 0, 67, 0
2, 10265, Note_on_c, 0, 64, 0
2, 10320, Note_on_c, 0, 71, 73
2, 10320, Note_on_c, 0, 67, 73
2, 10340, Note_on_c, 0, 71, 0
2, 10340, Note_on_c, 0, 67, 0
2, 10368, Note_on_c, 0, 71, 75
2, 10368, Note_on_c, 0, 67, 75
2, 10457, Note_on_c, 0, 71, 0
2, 10457, Note_on_c, 0, 67, 0
2, 10512, Note_on_c, 0, 76, 79
2, 10512, Note_on_c, 0, 67, 79
2, 10532, Note_on_c, 0, 76, 0
2, 10532, Note_on_c, 0, 67, 0
2, 10560, Note_on_c, 0, 76, 81
2, 10560, Note_on_c, 0, 67, 81
2, 10649, Note_on_c, 0, 76, 0
2, 10649, Note_on_c, 0, 67, 0
2, 10704, Note_on_c, 0, 71, 84
2, 10704, Note_on_c, 0, 67, 84
2, 10749, Note_on_c, 0, 71, 0
2, 10749, Note_on_c, 0, 67, 0
2, 10800, Note_on_c, 0, 69, 82
2, 10800, Note_on_c, 0, 66, 82
2, 10845, Note_on_c, 0, 69, 0
2, 10845, Note_on_c, 0, 66, 0
2, 10896, Note_on_c, 0, 67, 80
2, 10896, Note_on_c, 0, 64, 80
2, 10941, Note_on_c, 0, 67, 0
2, 10941, Note_on_c, 0, 64, 0
2, 10992, Note_on_c, 0, 66, 78
2, 10992, Note_on_c, 0, 63, 78
2, 11037, Note_on_c, 0, 66, 0
2, 11037, Note_on_c, 0, 63, 0
2, 11040, Note_on_c, 0, 59, 77
2, 11085, Note_on_c, 0, 59, 0
2, 11088, Note_on_c, 0, 71, 76
2, 11088, Note_on_c, 0, 67, 76
2, 11133, Note_on_c, 0, 71, 0
2, 11133, Note_on_c, 0, 67, 0
2, 11184, Note_on_c, 0, 69, 74
2, 11184, Note_on_c, 0, 66, 74
2, 11229, Note_on_c, 0, 69, 0
2, 11229, Note_on_c, 0, 66, 0
2, 11280, Note_on_c, 0, 67, 72
2, 11280, Note_on_c, 0, 64, 72
2, 11325, Note_on_c, 0, 67, 0
2, 11325, Note_on_c, 0, 64, 0
2, 11376, Note_on_c, 0, 66, 70
2, 11376, Note_on_c, 0, 63, 70
2, 11421, Note_on_c, 0, 66, 0
2, 11421, Note_on_c, 0, 63, 0
2, 11424, Note_on_c, 0, 59, 69
2, 11469, Note_on_c, 0, 59, 0
2, 11472, Note_on_c, 0, 71, 69
2, 11472, Note_on_c, 0, 67, 69
2, 11517, Note_on_c, 0, 71, 0
2, 11517, Note_on_c, 0, 67, 0
2, 11568, Note_on_c, 0, 69, 69
2, 11568, Note_on_c, 0, 66, 69
2, 11613, Note_on_c, 0, 69, 0
2, 11613, Note_on_c, 0, 66, 0
2, 11664, Note_on_c, 0, 67, 65
2, 11664, Note_on_c, 0, 64, 65
2, 11709, Note_on_c, 0, 67, 0
2, 11709, Note_on_c, 0, 64, 0
2, 11712, Note_on_c, 0, 66, 64
2, 11712, Note_on_c, 0, 63, 64
2, 11801, Note_on_c, 0, 66, 0
2, 11801, Note_on_c, 0, 63, 0
2, 11904, Control_c, 0, 64, 127
2, 11904, Note_on_c, 0, 75, 84
2, 11927, Note_on_c, 0, 75, 0
2, 11928, Note_on_c, 0, 71, 84
2, 11951, Note_on_c, 0, 71, 0
2, 11952, Note_on_c, 0, 78, 84
2, 11975, Note_on_c, 0, 78, 0
2, 11976, Note_on_c, 0, 75, 84
2, 11999, Note_on_c, 0, 75, 0
2, 12000, Note_on_c, 0, 83, 84
2, 12023, Note_on_c, 0, 83, 0
2, 12024, Note_on_c, 0, 78, 84
2, 12047, Note_on_c, 0, 78, 0
2, 12048, Note_on_c, 0, 75, 84
2, 12071, Note_on_c, 0, 75, 0
2, 12072, Note_on_c, 0, 71, 84
2, 12095, Note_on_c, 0, 71, 0
2, 12096, Note_on_c, 0, 75, 84
2, 12119, Note_on_c, 0, 75, 0
2, 12120, Note_on_c, 0, 71, 84
2, 12143, Note_on_c, 0, 71, 0
2, 12144, Note_on_c, 0, 78, 84
2, 12167, Note_on_c, 0, 78, 0
2, 12168, Note_on_c, 0, 75, 84
2, 12191, Note_on_c, 0, 75, 0
2, 12192, Note_on_c, 0, 83, 84
2, 12215, Note_on_c, 0, 83, 0
2, 12216, Note_on_c, 0, 78, 84
2, 12239, Note_on_c, 0, 78, 0
2, 12240, Note_on_c, 0, 75, 84
2, 12263, Note_on_c, 0, 75, 0
2, 12264, Note_on_c, 0, 71, 84
2, 12287, Note_on_c, 0, 71, 0
2, 12288, Note_on_c, 0, 75, 84
2, 12311, Note_on_c, 0, 75, 0
2, 12312, Note_on_c, 0, 71, 84
2, 12335, Note_on_c, 0, 71, 0
2, 12336, Note_on_c, 0, 78, 84
2, 12359, Note_on_c, 0, 78, 0
2, 12360, Note_on_c, 0, 75, 84
2, 12383, Note_on_c, 0, 75, 0
2, 12384, Note_on_c, 0, 83, 84
2, 12407, Note_on_c, 0, 83, 0
2, 12408, Note_on_c, 0, 78, 84
2, 12431, Note_on_c, 0, 78, 0
2, 12432, Note_on_c, 0, 75, 84
2, 12455, Note_on_c, 0, 75, 0
2, 12456, Note_on_c, 0, 71, 84
2, 12479, Note_on_c, 0, 71, 0
2, 12480, Note_on_c, 0, 76, 84
2, 12503, Note_on_c, 0, 76, 0
2, 12504, Note_on_c, 0, 71, 84
2, 12527, Note_on_c, 0, 71, 0
2, 12528, Note_on_c, 0, 80, 84
2, 12551, Note_on_c, 0, 80, 0
2, 12552, Note_on_c, 0, 76, 84
2, 12575, Note_on_c, 0, 76, 0
2, 12576, Note_on_c, 0, 83, 84
2, 12599, Note_on_c, 0, 83, 0
2, 12600, Note_on_c, 0, 80, 84
2, 12623, Note_on_c, 0, 80, 0
2, 12624, Note_on_c, 0, 76, 84
2, 12647, Note_on_c, 0, 76, 0
2, 12648, Control_c, 0, 64, 0
2, 12648, Note_on_c, 0, 71, 84
2, 12671, Note_on_c, 0, 71, 0
2, 12672, Control_c, 0, 64, 127
2, 12672, Note_on_c, 0, 83, 84
2, 12695, Note_on_c, 0, 83, 0
2, 12696, Note_on_c, 0, 78, 84
2, 12719, Note_on_c, 0, 78, 0
2, 12720, Note_on_c, 0, 75, 84
2, 12743, Note_on_c, 0, 75, 0
2, 12744, Control_c, 0, 64, 0
2, 12744, Note_on_c, 0, 71, 84
2, 12767, Note_on_c, 0, 71, 0
2, 12768, Control_c, 0, 64, 127
2, 12768, Note_on_c, 0, 83, 84
2, 12791, Note_on_c, 0, 83, 0
2, 12792, Note_on_c, 0, 80, 84
2, 12815, Note_on_c, 0, 80, 0
2, 12816, Note_on_c, 0, 76, 84
2, 12839, Note_on_c, 0, 76, 0
2, 12840, Control_c, 0, 64, 0
2, 12840, Note_on_c, 0, 71, 84
2, 12863, Note_on_c, 0, 71, 0
2, 12864, Control_c, 0, 64, 127
2, 12864, Note_on_c, 0, 83, 84
2, 12887, Note_on_c, 0, 83, 0
2, 12888, Note_on_c, 0, 78, 84
2, 12911, Note_on_c, 0, 78, 0
2, 12912, Note_on_c, 0, 75, 84
2, 12935, Note_on_c, 0, 75, 0
2, 12936, Control_c, 0, 64, 0
2, 12936, Note_on_c, 0, 71, 84
2, 12959, Note_on_c, 0, 71, 0
2, 12960, Control_c, 0, 64, 127
2, 12960, Note_on_c, 0, 83, 84
2, 12983, Note_on_c, 0, 83, 0
2, 12984, Note_on_c, 0, 80, 84
2, 13007, Note_on_c, 0, 80, 0
2, 13008, Note_on_c, 0, 76, 84
2, 13031, Note_on_c, 0, 76, 0
2, 13032, Control_c, 0, 64, 0
2, 13032, Note_on_c, 0, 71, 84
2, 13055, Note_on_c, 0, 71, 0
2, 13056, Control_c, 0, 64, 127
2, 13056, Note_on_c, 0, 83, 84
2, 13079, Note_on_c, 0, 83, 0
2, 13080, Note_on_c, 0, 78, 84
2, 13103, Note_on_c, 0, 78, 0
2, 13104, Note_on_c, 0, 75, 84
2, 13127, Note_on_c, 0, 75, 0
2, 13128, Control_c, 0, 64, 0
2, 13128, Note_on_c, 0, 71, 84
2, 13151, Note_on_c, 0, 71, 0
2, 13152, Control_c, 0, 64, 127
2, 13152, Note_on_c, 0, 83, 84
2, 13175, Note_on_c, 0, 83, 0
2, 13176, Note_on_c, 0, 80, 84
2, 13199, Note_on_c, 0, 80, 0
2, 13200, Note_on_c, 0, 76, 84
2, 13223, Note_on_c, 0, 76, 0
2, 13224, Control_c, 0, 64, 0
2, 13224, Note_on_c, 0, 71, 84
2, 13247, Note_on_c, 0, 71, 0
2, 13248, Note_on_c, 0, 73, 84
2, 13265, Note_on_c, 0, 73, 0
2, 13266, Note_on_c, 0, 75, 84
2, 13283, Note_on_c, 0, 75, 0
2, 13284, Note_on_c, 0, 73, 84
2, 13301, Note_on_c, 0, 73, 0
2, 13302, Note_on_c, 0, 75, 84
2, 13319, Note_on_c, 0, 75, 0
2, 13320, Note_on_c, 0, 73, 84
2, 13337, Note_on_c, 0, 73, 0
2, 13338, Note_on_c, 0, 75, 84
2, 13354, Note_on_c, 0, 75, 0
2, 13355, Note_on_c, 0, 73, 84
2, 13371, Note_on_c, 0, 73, 0
2, 13372, Note_on_c, 0, 75, 84
2, 13388, Note_on_c, 0, 75, 0
2, 13389, Note_on_c, 0, 73, 84
2, 13405, Note_on_c, 0, 73, 0
2, 13406, Note_on_c, 0, 71, 84
2, 13422, Note_on_c, 0, 71, 0
2, 13423, Note_on_c, 0, 73, 84
2, 13439, Note_on_c, 0, 73, 0
2, 13440, Note_on_c, 0, 71, 84
2, 13529, Note_on_c, 0, 71, 0
2, 13584, Note_on_c, 0, 78, 61
2, 13584, Note_on_c, 0, 75, 61
2, 13604, Note_on_c, 0, 78, 0
2, 13604, Note_on_c, 0, 75, 0
2, 13632, Note_on_c, 0, 78, 61
2, 13632, Note_on_c, 0, 75, 61
2, 13677, Note_on_c, 0, 78, 0
2, 13677, Note_on_c, 0, 75, 0
2, 13680, Note_on_c, 0, 75, 61
2, 13680, Note_on_c, 0, 71, 61
2, 13700, Note_on_c, 0, 75, 0
2, 13700, Note_on_c, 0, 71, 0
2, 13728, Note_on_c, 0, 75, 61
2, 13728, Note_on_c, 0, 71, 61
2, 13773, Note_on_c, 0, 75, 0
2, 13773, Note_on_c, 0, 71, 0
2, 13776, Note_on_c, 0, 76, 61
2, 13776, Note_on_c, 0, 73, 61
2, 13796, Note_on_c, 0, 76, 0
2, 13796, Note_on_c, 0, 73, 0
2, 13824, Note_on_c, 0, 76, 61
2, 13824, Note_on_c, 0, 73, 61
2, 13872, Note_on_c, 0, 76, 0
2, 13872, Note_on_c, 0, 70, 61
2, 13917, Note_on_c, 0, 73, 0
2, 13917, Note_on_c, 0, 70, 0
2, 13968, Note_on_c, 0, 66, 84
2, 13988, Note_on_c, 0, 66, 0
2, 14016, Note_on_c, 0, 71, 84
2, 14064, Note_on_c, 0, 71, 0
2, 14064, Note_on_c, 0, 66, 84
2, 14109, Note_on_c, 0, 66, 0
2, 14112, Note_on_c, 0, 71, 84
2, 14135, Note_on_c, 0, 71, 0
2, 14136, Note_on_c, 0, 66, 84
2, 14159, Note_on_c, 0, 66, 0
2, 14160, Note_on_c, 0, 63, 84
2, 14183, Note_on_c, 0, 63, 0
2, 14184, Note_on_c, 0, 59, 84
2, 14207, Note_on_c, 0, 59, 0
2, 14208, Note_on_c, 0, 66, 84
2, 14297, Note_on_c, 0, 66, 0
2, 14352, Note_on_c, 0, 78, 61
2, 14352, Note_on_c, 0, 74, 61
2, 14372, Note_on_c, 0, 78, 0
2, 14372, Note_on_c, 0, 74, 0
2, 14400, Note_on_c, 0, 78, 61
2, 14400, Note_on_c, 0, 74, 61
2, 14445, Note_on_c, 0, 78, 0
2, 14445, Note_on_c, 0, 74, 0
2, 14448, Note_on_c, 0, 74, 61
2, 14448, Note_on_c, 0, 71, 61
2, 14468, Note_on_c, 0, 74, 0
2, 14468, Note_on_c, 0, 71, 0
2, 14496, Note_on_c, 0, 74, 61
2, 14496, Note_on_c, 0, 71, 61
2, 14541, Note_on_c, 0, 74, 0
2, 14541, Note_on_c, 0, 71, 0
2, 14544, Note_on_c, 0, 76, 61
2, 14544, Note_on_c, 0, 73, 61
2, 14564, Note_on_c, 0, 76, 0
2, 14564, Note_on_c, 0, 73, 0
2, 14592, Note_on_c, 0, 76, 61
2, 14592, Note_on_c, 0, 73, 61
2, 14640, Note_on_c, 0, 76, 0
2, 14640, Note_on_c, 0, 70, 61
2, 14685, Note_on_c, 0, 73, 0
2, 14685, Note_on_c, 0, 70, 0
2, 14736, Note_on_c, 0, 70, 69
2, 14781, Note_on_c, 0, 70, 0
2, 14784, Note_on_c, 0, 71, 69
2, 14851, Note_on_c, 0, 71, 0
2, 14856, Note_on_c, 0, 70, 69
2, 14879, Note_on_c, 0, 70, 0
2, 14880, Note_on_c, 0, 71, 69
2, 14903, Note_on_c, 0, 71, 0
2, 14904, Note_on_c, 0, 74, 69
2, 14927, Note_on_c, 0, 74, 0
2, 14928, Note_on_c, 0, 73, 69
2, 14951, Note_on_c, 0, 73, 0
2, 14952, Note_on_c, 0, 71, 69
2, 14975, Note_on_c, 0, 71, 0
2, 14976, Note_on_c, 0, 70, 69
2, 15065, Note_on_c, 0, 70, 0
2, 15120, Note_on_c, 0, 71, 75
2, 15120, Note_on_c, 0, 63, 75
2, 15165, Note_on_c, 0, 71, 0
2, 15165, Note_on_c, 0, 63, 0
2, 15168, Note_on_c, 0, 71, 75
2, 15168, Note_on_c, 0, 63, 75
2, 15213, Note_on_c, 0, 71, 0
2, 15213, Note_on_c, 0, 63, 0
2, 15216, Note_on_c, 0, 75, 75
2, 15216, Note_on_c, 0, 71, 75
2, 15236, Note_on_c, 0, 75, 0
2, 15236, Note_on_c, 0, 71, 0
2, 15264, Note_on_c, 0, 75, 75
2, 15264, Note_on_c, 0, 71, 75
2, 15309, Note_on_c, 0, 75, 0
2, 15309, Note_on_c, 0, 71, 0
2, 15312, Note_on_c, 0, 78, 75
2, 15312, Note_on_c, 0, 75, 75
2, 15332, Note_on_c, 0, 78, 0
2, 15332, Note_on_c, 0, 75, 0
2, 15360, Note_on_c, 0, 78, 75
2, 15427, Note_on_c, 0, 78, 0
2, 15432, Note_on_c, 0, 83, 75
2, 15455, Note_on_c, 0, 83, 0
2, 15456, Note_on_c, 0, 78, 75
2, 15501, Note_on_c, 0, 78, 0
2, 15552, Note_on_c, 0, 80, 75
2, 15619, Note_on_c, 0, 80, 0
2, 15624, Note_on_c, 0, 82, 75
2, 15647, Note_on_c, 0, 82, 0
2, 15648, Note_on_c, 0, 83, 75
2, 15693, Note_on_c, 0, 83, 0
2, 15744, Note_on_c, 0, 80, 75
2, 15811, Note_on_c, 0, 80, 0
2, 15816, Note_on_c, 0, 82, 75
2, 15839, Note_on_c, 0, 82, 0
2, 15840, Note_on_c, 0, 83, 75
2, 15885, Note_on_c, 0, 83, 0
2, 15936, Note_on_c, 0, 80, 75
2, 15959, Note_on_c, 0, 80, 0
2, 15960, Note_on_c, 0, 83, 75
2, 15983, Note_on_c, 0, 83, 0
2, 15984, Note_on_c, 0, 82, 75
2, 16007, Note_on_c, 0, 82, 0
2, 16008, Note_on_c, 0, 80, 75
2, 16031, Note_on_c, 0, 80, 0
2, 16032, Note_on_c, 0, 78, 75
2, 16055, Note_on_c, 0, 78, 0
2, 16056, Note_on_c, 0, 76, 75
2, 16079, Note_on_c, 0, 76, 0
2, 16080, Note_on_c, 0, 75, 75
2, 16103, Note_on_c, 0, 75, 0
2, 16104, Note_on_c, 0, 73, 75
2, 16127, Note_on_c, 0, 73, 0
2, 16128, Note_on_c, 0, 71, 75
2, 16217, Note_on_c, 0, 71, 0
2, 16224, Note_on_c, 0, 75, 75
2, 16239, Note_on_c, 0, 75, 0
2, 16240, Note_on_c, 0, 73, 75
2, 16255, Note_on_c, 0, 73, 0
2, 16256, Note_on_c, 0, 75, 75
2, 16271, Note_on_c, 0, 75, 0
2, 16272, Note_on_c, 0, 73, 75
2, 16287, Note_on_c, 0, 73, 0
2, 16288, Note_on_c, 0, 71, 75
2, 16303, Note_on_c, 0, 71, 0
2, 16304, Note_on_c, 0, 73, 75
2, 16319, Note_on_c, 0, 73, 0
2, 16320, Note_on_c, 0, 71, 84
2, 16409, Note_on_c, 0, 71, 0
2, 16416, Note_on_c, 0, 83, 84
2, 16416, Note_on_c, 0, 75, 84
2, 16461, Note_on_c, 0, 83, 0
2, 16461, Note_on_c, 0, 75, 0
2, 16512, Note_on_c, 0, 83, 84
2, 16512, Note_on_c, 0, 75, 84
2, 16601, Note_on_c, 0, 83, 0
2, 16601, Note_on_c, 0, 75, 0
2, 16656, Note_on_c, 0, 83, 84
2, 16676, Note_on_c, 0, 83, 0
2, 16704, Note_on_c, 0, 83, 84
2, 16752, Note_on_c, 0, 83, 0
2, 16752, Note_on_c, 0, 77, 83
2, 16797, Note_on_c, 0, 77, 0
2, 16848, Note_on_c, 0, 77, 82
2, 16868, Note_on_c, 0, 77, 0
2, 16896, Note_on_c, 0, 78, 81
2, 16944, Note_on_c, 0, 78, 0
2, 16944, Note_on_c, 0, 73, 80
2, 16989, Note_on_c, 0, 73, 0
2, 17040, Note_on_c, 0, 81, 79
2, 17060, Note_on_c, 0, 81, 0
2, 17088, Note_on_c, 0, 80, 78
2, 17136, Note_on_c, 0, 80, 0
2, 17136, Note_on_c, 0, 71, 78
2, 17181, Note_on_c, 0, 71, 0
2, 17232, Note_on_c, 0, 71, 76
2, 17252, Note_on_c, 0, 71, 0
2, 17280, Note_on_c, 0, 69, 76
2, 17328, Note_on_c, 0, 69, 0
2, 17328, Note_on_c, 0, 66, 75
2, 17373, Note_on_c, 0, 66, 0
2, 17424, Note_on_c, 0, 81, 75
2, 17444, Note_on_c, 0, 81, 0
2, 17472, Note_on_c, 0, 81, 84
2, 17520, Note_on_c, 0, 81, 0
2, 17520, Note_on_c, 0, 75, 83
2, 17565, Note_on_c, 0, 75, 0
2, 17616, Note_on_c, 0, 75, 82
2, 17636, Note_on_c, 0, 75, 0
2, 17664, Note_on_c, 0, 76, 81
2, 17712, Note_on_c, 0, 76, 0
2, 17712, Note_on_c, 0, 71, 80
2, 17757, Note_on_c, 0, 71, 0
2, 17808, Note_on_c, 0, 80, 79
2, 17828, Note_on_c, 0, 80, 0
2, 17856, Note_on_c, 0, 78, 78
2, 17904, Note_on_c, 0, 78, 0
2, 17904, Note_on_c, 0, 69, 78
2, 17949, Note_on_c, 0, 69, 0
2, 18000, Note_on_c, 0, 69, 76
2, 18020, Note_on_c, 0, 69, 0
2, 18048, Note_on_c, 0, 68, 76
2, 18096, Note_on_c, 0, 68, 0
2, 18096, Note_on_c, 0, 64, 75
2, 18141, Note_on_c, 0, 64, 0
2, 18192, Note_on_c, 0, 83, 75
2, 18212, Note_on_c, 0, 83, 0
2, 18240, Note_on_c, 0, 83, 75
2, 18288, Note_on_c, 0, 83, 0
2, 18288, Note_on_c, 0, 74, 76
2, 18333, Note_on_c, 0, 74, 0
2, 18384, Note_on_c, 0, 74, 78
2, 18404, Note_on_c, 0, 74, 0
2, 18432, Note_on_c, 0, 72, 79
2, 18480, Note_on_c, 0, 72, 0
2, 18480, Note_on_c, 0, 73, 80
2, 18525, Note_on_c, 0, 73, 0
2, 18576, Note_on_c, 0, 85, 82
2, 18596, Note_on_c, 0, 85, 0
2, 18624, Note_on_c, 0, 85, 84
2, 18672, Note_on_c, 0, 85, 0
2, 18672, Note_on_c, 0, 76, 84
2, 18717, Note_on_c, 0, 76, 0
2, 18768, Note_on_c, 0, 76, 84
2, 18788, Note_on_c, 0, 76, 0
2, 18816, Control_c, 0, 64, 127
2, 18816, Note_on_c, 0, 75, 84
2, 18839, Note_on_c, 0, 75, 0
2, 18840, Note_on_c, 0, 71, 84
2, 18863, Note_on_c, 0, 71, 0
2, 18864, Note_on_c, 0, 78, 84
2, 18887, Note_on_c, 0, 78, 0
2, 18888, Note_on_c, 0, 75, 84
2, 18911, Note_on_c, 0, 75, 0
2, 18912, Note_on_c, 0, 83, 84
2, 18935, Note_on_c, 0, 83, 0
2, 18936, Note_on_c, 0, 78, 84
2, 18959, Note_on_c, 0, 78, 0
2, 18960, Note_on_c, 0, 75, 84
2, 18983, Note_on_c, 0, 75, 0
2, 18984, Control_c, 0, 64, 0
2, 18984, Note_on_c, 0, 71, 84
2, 19007, Note_on_c, 0, 71, 0
2, 19008, Control_c, 0, 64, 127
2, 19008, Note_on_c, 0, 81, 84
2, 19031, Note_on_c, 0, 81, 0
2, 19032, Note_on_c, 0, 78, 84
2, 19055, Note_on_c, 0, 78, 0
2, 19056, Note_on_c, 0, 75, 84
2, 19079, Note_on_c, 0, 75, 0
2, 19080, Control_c, 0, 64, 0
2, 19080, Note_on_c, 0, 71, 84
2, 19103, Note_on_c, 0, 71, 0
2, 19104, Control_c, 0, 64, 127
2, 19104, Note_on_c, 0, 80, 84
2, 19127, Note_on_c, 0, 80, 0
2, 19128, Note_on_c, 0, 76, 84
2, 19151, Note_on_c, 0, 76, 0
2, 19152, Note_on_c, 0, 75, 84
2, 19175, Note_on_c, 0, 75, 0
2, 19176, Control_c, 0, 64, 0
2, 19176, Note_on_c, 0, 76, 84
2, 19199, Note_on_c, 0, 76, 0
2, 19200, Control_c, 0, 64, 127
2, 19200, Note_on_c, 0, 75, 84
2, 19223, Note_on_c, 0, 75, 0
2, 19224, Note_on_c, 0, 71, 84
2, 19247, Note_on_c, 0, 71, 0
2, 19248, Note_on_c, 0, 78, 84
2, 19271, Note_on_c, 0, 78, 0
2, 19272, Note_on_c, 0, 75, 84
2, 19295, Note_on_c, 0, 75, 0
2, 19296, Note_on_c, 0, 83, 84
2, 19319, Note_on_c, 0, 83, 0
2, 19320, Note_on_c, 0, 78, 84
2, 19343, Note_on_c, 0, 78, 0
2, 19344, Note_on_c, 0, 75, 84
2, 19367, Note_on_c, 0, 75, 0
2, 19368, Control_c, 0, 64, 0
2, 19368, Note_on_c, 0, 71, 84
2, 19391, Note_on_c, 0, 71, 0
2, 19392, Control_c, 0, 64, 127
2, 19392, Note_on_c, 0, 81, 84
2, 19415, Note_on_c, 0, 81, 0
2, 19416, Note_on_c, 0, 78, 84
2, 19439, Note_on_c, 0, 78, 0
2, 19440, Note_on_c, 0, 75, 84
2, 19463, Note_on_c, 0, 75, 0
2, 19464, Control_c, 0, 64, 0
2, 19464, Note_on_c, 0, 71, 84
2, 19487, Note_on_c, 0, 71, 0
2, 19488, Control_c, 0, 64, 127
2, 19488, Note_on_c, 0, 80, 84
2, 19511, Note_on_c, 0, 80, 0
2, 19512, Note_on_c, 0, 76, 84
2, 19535, Note_on_c, 0, 76, 0
2, 19536, Note_on_c, 0, 75, 84
2, 19559, Note_on_c, 0, 75, 0
2, 19560, Control_c, 0, 64, 0
2, 19560, Note_on_c, 0, 76, 84
2, 19583, Note_on_c, 0, 76, 0
2, 19584, Note_on_c, 0, 75, 84
2, 19629, Note_on_c, 0, 75, 0
2, 19632, Note_on_c, 0, 83, 84
2, 19677, Note_on_c, 0, 83, 0
2, 19728, Note_on_c, 0, 64, 75
2, 19728, Note_on_c, 0, 56, 75
2, 19748, Note_on_c, 0, 64, 0
2, 19748, Note_on_c, 0, 56, 0
2, 19776, Note_on_c, 0, 64, 75
2, 19776, Note_on_c, 0, 56, 75
2, 19865, Note_on_c, 0, 64, 0
2, 19865, Note_on_c, 0, 56, 0
2, 19920, Note_on_c, 0, 68, 76
2, 19920, Note_on_c, 0, 64, 76
2, 19940, Note_on_c, 0, 68, 0
2, 19940, Note_on_c, 0, 64, 0
2, 19968, Note_on_c, 0, 68, 77
2, 19968, Note_on_c, 0, 64, 77
2, 20057, Note_on_c, 0, 68, 0
2, 20057, Note_on_c, 0, 64, 0
2, 20112, Note_on_c, 0, 71, 79
2, 20112, Note_on_c, 0, 68, 79
2, 20132, Note_on_c, 0, 71, 0
2, 20132, Note_on_c, 0, 68, 0
2, 20160, Note_on_c, 0, 71, 80
2, 20160, Note_on_c, 0, 68, 80
2, 20249, Note_on_c, 0, 71, 0
2, 20249, Note_on_c, 0, 68, 0
2, 20304, Note_on_c, 0, 76, 82
2, 20304, Note_on_c, 0, 68, 82
2, 20324, Note_on_c, 0, 76, 0
2, 20324, Note_on_c, 0, 68, 0
2, 20352, Note_on_c, 0, 76, 82
2, 20352, Note_on_c, 0, 68, 82
2, 20441, Note_on_c, 0, 76, 0
2, 20441, Note_on_c, 0, 68, 0
2, 20496, Note_on_c, 0, 71, 83
2, 20496, Note_on_c, 0, 68, 83
2, 20516, Note_on_c, 0, 71, 0
2, 20516, Note_on_c, 0, 68, 0
2, 20544, Note_on_c, 0, 69, 82
2, 20544, Note_on_c, 0, 66, 82
2, 20592, Note_on_c, 0, 69, 0
2, 20592, Note_on_c, 0, 66, 0
2, 20592, Note_on_c, 0, 68, 82
2, 20592, Note_on_c, 0, 64, 82
2, 20612, Note_on_c, 0, 68, 0
2, 20612, Note_on_c, 0, 64, 0
2, 20640, Note_on_c, 0, 69, 81
2, 20640, Note_on_c, 0, 66, 81
2, 20688, Note_on_c, 0, 69, 0
2, 20688, Note_on_c, 0, 63, 80
2, 20708, Note_on_c, 0, 66, 0
2, 20708, Note_on_c, 0, 63, 0
2, 20736, Note_on_c, 0, 68, 80
2, 20736, Note_on_c, 0, 64, 80
2, 20781, Note_on_c, 0, 68, 0
2, 20781, Note_on_c, 0, 64, 0
2, 20784, Note_on_c, 0, 71, 79
2, 20784, Note_on_c, 0, 68, 79
2, 20829, Note_on_c, 0, 71, 0
2, 20829, Note_on_c, 0, 68, 0
2, 20880, Note_on_c, 0, 71, 78
2, 20880, Note_on_c, 0, 68, 78
2, 20900, Note_on_c, 0, 71, 0
2, 20900, Note_on_c, 0, 68, 0
2, 20928, Note_on_c, 0, 69, 77
2, 20928, Note_on_c, 0, 66, 77
2, 20976, Note_on_c, 0, 69, 0
2, 20976, Note_on_c, 0, 66, 0
2, 20976, Note_on_c, 0, 68, 76
2, 20976, Note_on_c, 0, 64, 76
2, 20996, Note_on_c, 0, 68, 0
2, 20996, Note_on_c, 0, 64, 0
2, 21024, Note_on_c, 0, 69, 76
2, 21024, Note_on_c, 0, 66, 76
2, 21072, Note_on_c, 0, 69, 0
2, 21072, Note_on_c, 0, 63, 75
2, 21092, Note_on_c, 0, 66, 0
2, 21092, Note_on_c, 0, 63, 0
2, 21120, Note_on_c, 0, 64, 75
2, 21165, Note_on_c, 0, 64, 0
2, 21168, Note_on_c, 0, 59, 75
2, 21213, Note_on_c, 0, 59, 0
2, 21264, Note_on_c, 0, 64, 69
2, 21264, Note_on_c, 0, 55, 69
2, 21284, Note_on_c, 0, 64, 0
2, 21284, Note_on_c, 0, 55, 0
2, 21312, Note_on_c, 0, 64, 69
2, 21312, Note_on_c, 0, 55, 69
2, 21401, Note_on_c, 0, 64, 0
2, 21401, Note_on_c, 0, 55, 0
2, 21456, Note_on_c, 0, 67, 69
2, 21456, Note_on_c, 0, 64, 69
2, 21476, Note_on_c, 0, 67, 0
2, 21476, Note_on_c, 0, 64, 0
2, 21504, Note_on_c, 0, 66, 69
2, 21504, Note_on_c, 0, 63, 69
2, 21593, Note_on_c, 0, 66, 0
2, 21593, Note_on_c, 0, 63, 0
2, 21648, Note_on_c, 0, 66, 71
2, 21648, Note_on_c, 0, 63, 71
2, 21668, Note_on_c, 0, 66, 0
2, 21668, Note_on_c, 0, 63, 0
2, 21696, Note_on_c, 0, 66, 72
2, 21696, Note_on_c, 0, 63, 72
2, 21785, Note_on_c, 0, 66, 0
2, 21785, Note_on_c, 0, 63, 0
2, 21840, Note_on_c, 0, 69, 74
2, 21840, Note_on_c, 0, 66, 74
2, 21860, Note_on_c, 0, 69, 0
2, 21860, Note_on_c, 0, 66, 0
2, 21888, Note_on_c, 0, 67, 75
2, 21888, Note_on_c, 0, 64, 75
2, 21977, Note_on_c, 0, 67, 0
2, 21977, Note_on_c, 0, 64, 0
2, 22032, Note_on_c, 0, 71, 78
2, 22032, Note_on_c, 0, 67, 78
2, 22052, Note_on_c, 0, 71, 0
2, 22052, Note_on_c, 0, 67, 0
2, 22080, Note_on_c, 0, 72, 79
2, 22080, Note_on_c, 0, 69, 79
2, 22169, Note_on_c, 0, 72, 0
2, 22169, Note_on_c, 0, 69, 0
2, 22224, Note_on_c, 0, 75, 81
2, 22224, Note_on_c, 0, 66, 81
2, 22244, Note_on_c, 0, 75, 0
2, 22244, Note_on_c, 0, 66, 0
2, 22272, Note_on_c, 0, 76, 98
2, 22272, Note_on_c, 0, 67, 98
2, 22368, Note_on_c, 0, 76, 0
2, 22368, Note_on_c, 0, 67, 0
2, 22416, Note_on_c, 0, 71, 84
2, 22416, Note_on_c, 0, 67, 84
2, 22461, Note_on_c, 0, 71, 0
2, 22461, Note_on_c, 0, 67, 0
2, 22512, Note_on_c, 0, 69, 81
2, 22512, Note_on_c, 0, 66, 81
2, 22557, Note_on_c, 0, 69, 0
2, 22557, Note_on_c, 0, 66, 0
2, 22608, Note_on_c, 0, 67, 78
2, 22608, Note_on_c, 0, 64, 78
2, 22653, Note_on_c, 0, 67, 0
2, 22653, Note_on_c, 0, 64, 0
2, 22704, Note_on_c, 0, 66, 76
2, 22704, Note_on_c, 0, 63, 76
2, 22749, Note_on_c, 0, 66, 0
2, 22749, Note_on_c, 0, 63, 0
2, 22752, Note_on_c, 0, 59, 75
2, 22797, Note_on_c, 0, 59, 0
2, 22800, Note_on_c, 0, 71, 75
2, 22800, Note_on_c, 0, 67, 75
2, 22845, Note_on_c, 0, 71, 0
2, 22845, Note_on_c, 0, 67, 0
2, 22896, Note_on_c, 0, 69, 73
2, 22896, Note_on_c, 0, 66, 73
2, 22941, Note_on_c, 0, 69, 0
2, 22941, Note_on_c, 0, 66, 0
2, 22992, Note_on_c, 0, 67, 71
2, 22992, Note_on_c, 0, 64, 71
2, 23037, Note_on_c, 0, 67, 0
2, 23037, Note_on_c, 0, 64, 0
2, 23088, Note_on_c, 0, 66, 69
2, 23088, Note_on_c, 0, 63, 69
2, 23133, Note_on_c, 0, 66, 0
2, 23133, Note_on_c, 0, 63, 0
2, 23136, Note_on_c, 0, 59, 69
2, 23181, Note_on_c, 0, 59, 0
2, 23184, Note_on_c, 0, 71, 69
2, 23184, Note_on_c, 0, 67, 69
2, 23229, Note_on_c, 0, 71, 0
2, 23229, Note_on_c, 0, 67, 0
2, 23280, Note_on_c, 0, 69, 66
2, 23280, Note_on_c, 0, 66, 66
2, 23325, Note_on_c, 0, 69, 0
2, 23325, Note_on_c, 0, 66, 0
2, 23376, Note_on_c, 0, 67, 64
2, 23376, Note_on_c, 0, 64, 64
2, 23421, Note_on_c, 0, 67, 0
2, 23421, Note_on_c, 0, 64, 0
2, 23424, Note_on_c, 0, 66, 63
2, 23424, Note_on_c, 0, 63, 63
2, 23513, Note_on_c, 0, 66, 0
2, 23513, Note_on_c, 0, 63, 0
2, 23616, Control_c, 0, 64, 127
2, 23616, Note_on_c, 0, 68, 84
2, 23639, Note_on_c, 0, 68, 0
2, 23640, Note_on_c, 0, 64, 84
2, 23663, Note_on_c, 0, 64, 0
2, 23664, Note_on_c, 0, 71, 84
2, 23687, Note_on_c, 0, 71, 0
2, 23688, Note_on_c, 0, 68, 84
2, 23711, Note_on_c, 0, 68, 0
2, 23712, Note_on_c, 0, 76, 84
2, 23735, Note_on_c, 0, 76, 0
2, 23736, Note_on_c, 0, 71, 84
2, 23759, Note_on_c, 0, 71, 0
2, 23760, Note_on_c, 0, 68, 84
2, 23783, Note_on_c, 0, 68, 0
2, 23784, Note_on_c, 0, 64, 84
2, 23807, Note_on_c, 0, 64, 0
2, 23808, Note_on_c, 0, 68, 84
2, 23831, Note_on_c, 0, 68, 0
2, 23832, Note_on_c, 0, 64, 84
2, 23855, Note_on_c, 0, 64, 0
2, 23856, Note_on_c, 0, 71, 84
2, 23879, Note_on_c, 0, 71, 0
2, 23880, Note_on_c, 0, 68, 84
2, 23903, Note_on_c, 0, 68, 0
2, 23904, Note_on_c, 0, 76, 84
2, 23927, Note_on_c, 0, 76, 0
2, 23928, Note_on_c, 0, 71, 84
2, 23951, Note_on_c, 0, 71, 0
2, 23952, Note_on_c, 0, 68, 84
2, 23975, Note_on_c, 0, 68, 0
2, 23976, Note_on_c, 0, 64, 84
2, 23999, Note_on_c, 0, 64, 0
2, 24000, Note_on_c, 0, 68, 84
2, 24023, Note_on_c, 0, 68, 0
2, 24024, Note_on_c, 0, 64, 84
2, 24047, Note_on_c, 0, 64, 0
2, 24048, Note_on_c, 0, 71, 84
2, 24071, Note_on_c, 0, 71, 0
2, 24072, Note_on_c, 0, 68, 84
2, 24095, Note_on_c, 0, 68, 0
2, 24096, Note_on_c, 0, 76, 84
2, 24119, Note_on_c, 0, 76, 0
2, 24120, Note_on_c, 0, 71, 84
2, 24143, Note_on_c, 0, 71, 0
2, 24144, Note_on_c, 0, 68, 84
2, 24167, Note_on_c, 0, 68, 0
2, 24168, Control_c, 0, 64, 0
2, 24168, Note_on_c, 0, 64, 84
2, 24191, Note_on_c, 0, 64, 0
2, 24192, Control_c, 0, 64, 127
2, 24192, Note_on_c, 0, 69, 84
2, 24215, Note_on_c, 0, 69, 0
2, 24216, Note_on_c, 0, 64, 84
2, 24239, Note_on_c, 0, 64, 0
2, 24240, Note_on_c, 0, 73, 84
2, 24263, Note_on_c, 0, 73, 0
2, 24264, Note_on_c, 0, 69, 84
2, 24287, Note_on_c, 0, 69, 0
2, 24288, Note_on_c, 0, 76, 84
2, 24311, Note_on_c, 0, 76, 0
2, 24312, Note_on_c, 0, 73, 84
2, 24335, Note_on_c, 0, 73, 0
2, 24336, Note_on_c, 0, 69, 84
2, 24359, Note_on_c, 0, 69, 0
2, 24360, Control_c, 0, 64, 0
2, 24360, Note_on_c, 0, 64, 84
2, 24383, Note_on_c, 0, 64, 0
2, 24384, Control_c, 0, 64, 127
2, 24384, Note_on_c, 0, 76, 84
2, 24407, Note_on_c, 0, 76, 0
2, 24408, Note_on_c, 0, 71, 84
2, 24431, Note_on_c, 0, 71, 0
2, 24432, Note_on_c, 0, 68, 84
2, 24455, Note_on_c, 0, 68, 0
2, 24456, Control_c, 0, 64, 0
2, 24456, Note_on_c, 0, 64, 84
2, 24479, Note_on_c, 0, 64, 0
2, 24480, Control_c, 0, 64, 127
2, 24480, Note_on_c, 0, 76, 84
2, 24503, Note_on_c, 0, 76, 0
2, 24504, Note_on_c, 0, 73, 84
2, 24527, Note_on_c, 0, 73, 0
2, 24528, Note_on_c, 0, 69, 84
2, 24551, Note_on_c, 0, 69, 0
2, 24552, Control_c, 0, 64, 0
2, 24552, Note_on_c, 0, 64, 84
2, 24575, Note_on_c, 0, 64, 0
2, 24576, Control_c, 0, 64, 127
2, 24576, Note_on_c, 0, 76, 84
2, 24599, Note_on_c, 0, 76, 0
2, 24600, Note_on_c, 0, 71, 84
2, 24623, Note_on_c, 0, 71, 0
2, 24624, Note_on_c, 0, 68, 84
2, 24647, Note_on_c, 0, 68, 0
2, 24648, Control_c, 0, 64, 0
2, 24648, Note_on_c, 0, 64, 84
2, 24671, Note_on_c, 0, 64, 0
2, 24672, Control_c, 0, 64, 127
2, 24672, Note_on_c, 0, 76, 84
2, 24695, Note_on_c, 0, 76, 0
2, 24696, Note_on_c, 0, 73, 84
2, 24719, Note_on_c, 0, 73, 0
2, 24720, Note_on_c, 0, 69, 84
2, 24743, Note_on_c, 0, 69, 0
2, 24744, Control_c, 0, 64, 0
2, 24744, Note_on_c, 0, 64, 84
2, 24767, Note_on_c, 0, 64, 0
2, 24768, Control_c, 0, 64, 127
2, 24768, Note_on_c, 0, 76, 84
2, 24791, Note_on_c, 0, 76, 0
2, 24792, Note_on_c, 0, 71, 84
2, 24815, Note_on_c, 0, 71, 0
2, 24816, Note_on_c, 0, 68, 84
2, 24839, Note_on_c, 0, 68, 0
2, 24840, Control_c, 0, 64, 0
2, 24840, Note_on_c, 0, 64, 84
2, 24863, Note_on_c, 0, 64, 0
2, 24864, Control_c, 0, 64, 127
2, 24864, Note_on_c, 0, 76, 84
2, 24887, Note_on_c, 0, 76, 0
2, 24888, Note_on_c, 0, 73, 84
2, 24911, Note_on_c, 0, 73, 0
2, 24912, Note_on_c, 0, 69, 84
2, 24935, Note_on_c, 0, 69, 0
2, 24936, Control_c, 0, 64, 0
2, 24936, Note_on_c, 0, 64, 84
2, 24959, Note_on_c, 0, 64, 0
2, 24960, Note_on_c, 0, 66, 84
2, 24977, Note_on_c, 0, 66, 0
2, 24978, Note_on_c, 0, 68, 84
2, 24995, Note_on_c, 0, 68, 0
2, 24996, Note_on_c, 0, 66, 84
2, 25013, Note_on_c, 0, 66, 0
2, 25014, Note_on_c, 0, 68, 84
2, 25031, Note_on_c, 0, 68, 0
2, 25032, Note_on_c, 0, 66, 84
2, 25049, Note_on_c, 0, 66, 0
2, 25050, Note_on_c, 0, 68, 84
2, 25066, Note_on_c, 0, 68, 0
2, 25067, Note_on_c, 0, 66, 84
2, 25083, Note_on_c, 0, 66, 0
2, 25084, Note_on_c, 0, 68, 84
2, 25100, Note_on_c, 0, 68, 0
2, 25101, Note_on_c, 0, 66, 84
2, 25117, Note_on_c, 0, 66, 0
2, 25118, Note_on_c, 0, 64, 84
2, 25134, Note_on_c, 0, 64, 0
2, 25135, Note_on_c, 0, 66, 84
2, 25151, Note_on_c, 0, 66, 0
2, 25152, Note_on_c, 0, 64, 84
2, 25241, Note_on_c, 0, 64, 0
2, 25296, Note_on_c, 0, 83, 61
2, 25296, Note_on_c, 0, 80, 61
2, 25316, Note_on_c, 0, 83, 0
2, 25316, Note_on_c, 0, 80, 0
2, 25344, Note_on_c, 0, 83, 61
2, 25344, Note_on_c, 0, 80, 61
2, 25392, Note_on_c, 0, 83, 0
2, 25392, Note_on_c, 0, 76, 61
2, 25412, Note_on_c, 0, 80, 0
2, 25412, Note_on_c, 0, 76, 0
2, 25440, Note_on_c, 0, 80, 61
2, 25440, Note_on_c, 0, 76, 61
2, 25488, Note_on_c, 0, 80, 0
2, 25488, Note_on_c, 0, 76, 0
2, 25488, Note_on_c, 0, 81, 61
2, 25488, Note_on_c, 0, 78, 61
2, 25508, Note_on_c, 0, 81, 0
2, 25508, Note_on_c, 0, 78, 0
2, 25536, Note_on_c, 0, 81, 61
2, 25536, Note_on_c, 0, 78, 61
2, 25584, Note_on_c, 0, 81, 0
2, 25584, Note_on_c, 0, 75, 61
2, 25629, Note_on_c, 0, 78, 0
2, 25629, Note_on_c, 0, 75, 0
2, 25680, Note_on_c, 0, 71, 84
2, 25700, Note_on_c, 0, 71, 0
2, 25728, Note_on_c, 0, 76, 84
2, 25773, Note_on_c, 0, 76, 0
2, 25776, Note_on_c, 0, 71, 84
2, 25821, Note_on_c, 0, 71, 0
2, 25824, Note_on_c, 0, 76, 84
2, 25847, Note_on_c, 0, 76, 0
2, 25848, Note_on_c, 0, 71, 84
2, 25871, Note_on_c, 0, 71, 0
2, 25872, Note_on_c, 0, 68, 84
2, 25895, Note_on_c, 0, 68, 0
2, 25896, Note_on_c, 0, 64, 84
2, 25919, Note_on_c, 0, 64, 0
2, 25920, Note_on_c, 0, 71, 84
2, 26009, Note_on_c, 0, 71, 0
2, 26064, Note_on_c, 0, 83, 61
2, 26064, Note_on_c, 0, 79, 61
2, 26084, Note_on_c, 0, 83, 0
2, 26084, Note_on_c, 0, 79, 0
2, 26112, Note_on_c, 0, 83, 61
2, 26112, Note_on_c, 0, 79, 61
2, 26160, Note_on_c, 0, 83, 0
2, 26160, Note_on_c, 0, 76, 61
2, 26180, Note_on_c, 0, 79, 0
2, 26180, Note_on_c, 0, 76, 0
2, 26208, Note_on_c, 0, 79, 61
2, 26208, Note_on_c, 0, 76, 61
2, 26256, Note_on_c, 0, 79, 0
2, 26256, Note_on_c, 0, 76, 0
2, 26256, Note_on_c, 0, 81, 61
2, 26256, Note_on_c, 0, 78, 61
2, 26276, Note_on_c, 0, 81, 0
2, 26276, Note_on_c, 0, 78, 0
2, 26304, Note_on_c, 0, 81, 61
2, 26304, Note_on_c, 0, 78, 61
2, 26352, Note_on_c, 0, 81, 0
2, 26352, Note_on_c, 0, 75, 61
2, 26397, Note_on_c, 0, 78, 0
2, 26397, Note_on_c, 0, 75, 0
2, 26448, Note_on_c, 0, 75, 69
2, 26468, Note_on_c, 0, 75, 0
2, 26496, Note_on_c, 0, 76, 69
2, 26563, Note_on_c, 0, 76, 0
2, 26568, Note_on_c, 0, 75, 69
2, 26591, Note_on_c, 0, 75, 0
2, 26592, Note_on_c, 0, 76, 69
2, 26615, Note_on_c, 0, 76, 0
2, 26616, Note_on_c, 0, 79, 69
2, 26639, Note_on_c, 0, 79, 0
2, 26640, Note_on_c, 0, 78, 69
2, 26663, Note_on_c, 0, 78, 0
2, 26664, Note_on_c, 0, 76, 69
2, 26687, Note_on_c, 0, 76, 0
2, 26688, Note_on_c, 0, 75, 69
2, 26777, Note_on_c, 0, 75, 0
2, 26832, Note_on_c, 0, 64, 75
2, 26832, Note_on_c, 0, 56, 75
2, 26852, Note_on_c, 0, 64, 0
2, 26852, Note_on_c, 0, 56, 0
2, 26880, Note_on_c, 0, 64, 75
2, 26880, Note_on_c, 0, 56, 75
2, 26928, Note_on_c, 0, 56, 0
2, 26928, Note_on_c, 0, 68, 75
2, 26948, Note_on_c, 0, 68, 0
2, 26948, Note_on_c, 0, 64, 0
2, 26976, Note_on_c, 0, 68, 75
2, 26976, Note_on_c, 0, 64, 75
2, 27024, Note_on_c, 0, 64, 0
2, 27024, Note_on_c, 0, 71, 75
2, 27044, Note_on_c, 0, 71, 0
2, 27044, Note_on_c, 0, 68, 0
2, 27072, Note_on_c, 0, 71, 75
2, 27139, Note_on_c, 0, 71, 0
2, 27144, Note_on_c, 0, 76, 75
2, 27167, Note_on_c, 0, 76, 0
2, 27168, Note_on_c, 0, 71, 75
2, 27213, Note_on_c, 0, 71, 0
2, 27264, Note_on_c, 0, 73, 75
2, 27331, Note_on_c, 0, 73, 0
2, 27336, Note_on_c, 0, 75, 75
2, 27359, Note_on_c, 0, 75, 0
2, 27360, Note_on_c, 0, 76, 75
2, 27405, Note_on_c, 0, 76, 0
2, 27456, Note_on_c, 0, 73, 75
2, 27523, Note_on_c, 0, 73, 0
2, 27528, Note_on_c, 0, 75, 75
2, 27551, Note_on_c, 0, 75, 0
2, 27552, Note_on_c, 0, 76, 75
2, 27597, Note_on_c, 0, 76, 0
2, 27648, Note_on_c, 0, 73, 75
2, 27671, Note_on_c, 0, 73, 0
2, 27672, Note_on_c, 0, 76, 75
2, 27695, Note_on_c, 0, 76, 0
2, 27696, Note_on_c, 0, 75, 75
2, 27719, Note_on_c, 0, 75, 0
2, 27720, Note_on_c, 0, 73, 75
2, 27743, Note_on_c, 0, 73, 0
2, 27744, Note_on_c, 0, 71, 75
2, 27767, Note_on_c, 0, 71, 0
2, 27768, Note_on_c, 0, 69, 75
2, 27791, Note_on_c, 0, 69, 0
2, 27792, Note_on_c, 0, 68, 75
2, 27815, Note_on_c, 0, 68, 0
2, 27816, Note_on_c, 0, 66, 75
2, 27839, Note_on_c, 0, 66, 0
2, 27840, Note_on_c, 0, 64, 75
2, 27929, Note_on_c, 0, 64, 0
2, 27936, Note_on_c, 0, 68, 75
2, 27951, Note_on_c, 0, 68, 0
2, 27952, Note_on_c, 0, 66, 75
2, 27967, Note_on_c, 0, 66, 0
2, 27968, Note_on_c, 0, 68, 75
2, 27983, Note_on_c, 0, 68, 0
2, 27984, Note_on_c, 0, 66, 75
2, 27999, Note_on_c, 0, 66, 0
2, 28000, Note_on_c, 0, 64, 75
2, 28015, Note_on_c, 0, 64, 0
2, 28016, Note_on_c, 0, 66, 75
2, 28031, Note_on_c, 0, 66, 0
2, 28032, Note_on_c, 0, 64, 75
2, 28121, Note_on_c, 0, 64, 0
2, 28176, Note_on_c, 0, 64, 75
2, 28176, Note_on_c, 0, 56, 75
2, 28196, Note_on_c, 0, 64, 0
2, 28196, Note_on_c, 0, 56, 0
2, 28224, Note_on_c, 0, 64, 75
2, 28224, Note_on_c, 0, 56, 75
2, 28313, Note_on_c, 0, 64, 0
2, 28313, Note_on_c, 0, 56, 0
2, 28368, Note_on_c, 0, 68, 77
2, 28368, Note_on_c, 0, 64, 77
2, 28388, Note_on_c, 0, 68, 0
2, 28388, Note_on_c, 0, 64, 0
2, 28416, Note_on_c, 0, 68, 78
2, 28416, Note_on_c, 0, 64, 78
2, 28505, Note_on_c, 0, 68, 0
2, 28505, Note_on_c, 0, 64, 0
2, 28560, Note_on_c, 0, 71, 80
2, 28560, Note_on_c, 0, 68, 80
2, 28580, Note_on_c, 0, 71, 0
2, 28580, Note_on_c, 0, 68, 0
2, 28608, Note_on_c, 0, 71, 81
2, 28608, Note_on_c, 0, 68, 81
2, 28697, Note_on_c, 0, 71, 0
2, 28697, Note_on_c, 0, 68, 0
2, 28752, Note_on_c, 0, 76, 83
2, 28752, Note_on_c, 0, 68, 83
2, 28772, Note_on_c, 0, 76, 0
2, 28772, Note_on_c, 0, 68, 0
2, 28800, Note_on_c, 0, 76, 84
2, 28800, Note_on_c, 0, 68, 84
2, 28889, Note_on_c, 0, 76, 0
2, 28889, Note_on_c, 0, 68, 0
2, 28944, Note_on_c, 0, 83, 84
2, 28964, Note_on_c, 0, 83, 0
2, 28992, Note_on_c, 0, 83, 84
2, 29040, Note_on_c, 0, 83, 0
2, 29040, Note_on_c, 0, 77, 83
2, 29085, Note_on_c, 0, 77, 0
2, 29136, Note_on_c, 0, 77, 82
2, 29156, Note_on_c, 0, 77, 0
2, 29184, Note_on_c, 0, 78, 81
2, 29232, Note_on_c, 0, 78, 0
2, 29232, Note_on_c, 0, 73, 80
2, 29277, Note_on_c, 0, 73, 0
2, 29328, Note_on_c, 0, 81, 79
2, 29348, Note_on_c, 0, 81, 0
2, 29376, Note_on_c, 0, 80, 78
2, 29424, Note_on_c, 0, 80, 0
2, 29424, Note_on_c, 0, 71, 78
2, 29469, Note_on_c, 0, 71, 0
2, 29520, Note_on_c, 0, 71, 76
2, 29540, Note_on_c, 0, 71, 0
2, 29568, Note_on_c, 0, 69, 76
2, 29616, Note_on_c, 0, 69, 0
2, 29616, Note_on_c, 0, 66, 75
2, 29661, Note_on_c, 0, 66, 0
2, 29712, Note_on_c, 0, 81, 75
2, 29732, Note_on_c, 0, 81, 0
2, 29760, Note_on_c, 0, 81, 84
2, 29808, Note_on_c, 0, 81, 0
2, 29808, Note_on_c, 0, 75, 83
2, 29853, Note_on_c, 0, 75, 0
2, 29904, Note_on_c, 0, 75, 82
2, 29924, Note_on_c, 0, 75, 0
2, 29952, Note_on_c, 0, 76, 81
2, 30000, Note_on_c, 0, 76, 0
2, 30000, Note_on_c, 0, 71, 80
2, 30045, Note_on_c, 0, 71, 0
2, 30096, Note_on_c, 0, 80, 79
2, 30116, Note_on_c, 0, 80, 0
2, 30144, Note_on_c, 0, 78, 78
2, 30192, Note_on_c, 0, 78, 0
2, 30192, Note_on_c, 0, 69, 78
2, 30237, Note_on_c, 0, 69, 0
2, 30288, Note_on_c, 0, 69, 76
2, 30308, Note_on_c, 0, 69, 0
2, 30336, Note_on_c, 0, 68, 76
2, 30384, Note_on_c, 0, 68, 0
2, 30384, Note_on_c, 0, 64, 75
2, 30429, Note_on_c, 0, 64, 0
2, 30480, Note_on_c, 0, 83, 75
2, 30500, Note_on_c, 0, 83, 0
2, 30528, Note_on_c, 0, 83, 75
2, 30576, Note_on_c, 0, 83, 0
2, 30576, Note_on_c, 0, 74, 76
2, 30621, Note_on_c, 0, 74, 0
2, 30672, Note_on_c, 0, 74, 78
2, 30692, Note_on_c, 0, 74, 0
2, 30720, Note_on_c, 0, 72, 79
2, 30768, Note_on_c, 0, 72, 0
2, 30768, Note_on_c, 0, 73, 80
2, 30813, Note_on_c, 0, 73, 0
2, 30864, Note_on_c, 0, 85, 82
2, 30884, Note_on_c, 0, 85, 0
2, 30912, Note_on_c, 0, 85, 84
2, 30960, Note_on_c, 0, 85, 0
2, 30960, Note_on_c, 0, 76, 84
2, 31005, Note_on_c, 0, 76, 0
2, 31056, Note_on_c, 0, 76, 84
2, 31076, Note_on_c, 0, 76, 0
2, 31104, Control_c, 0, 64, 127
2, 31104, Note_on_c, 0, 75, 84
2, 31127, Note_on_c, 0, 75, 0
2, 31128, Note_on_c, 0, 71, 84
2, 31151, Note_on_c, 0, 71, 0
2, 31152, Note_on_c, 0, 78, 84
2, 31175, Note_on_c, 0, 78, 0
2, 31176, Note_on_c, 0, 75, 84
2, 31199, Note_on_c, 0, 75, 0
2, 31200, Note_on_c, 0, 83, 84
2, 31223, Note_on_c, 0, 83, 0
2, 31224, Note_on_c, 0, 78, 84
2, 31247, Note_on_c, 0, 78, 0
2, 31248, Note_on_c, 0, 75, 84
2, 31271, Note_on_c, 0, 75, 0
2, 31272, Control_c, 0, 64, 0
2, 31272, Note_on_c, 0, 71, 84
2, 31295, Note_on_c, 0, 71, 0
2, 31296, Control_c, 0, 64, 127
2, 31296, Note_on_c, 0, 81, 84
2, 31319, Note_on_c, 0, 81, 0
2, 31320, Note_on_c, 0, 78, 84
2, 31343, Note_on_c, 0, 78, 0
2, 31344, Note_on_c, 0, 75, 84
2, 31367, Note_on_c, 0, 75, 0
2, 31368, Control_c, 0, 64, 0
2, 31368, Note_on_c, 0, 71, 84
2, 31391, Note_on_c, 0, 71, 0
2, 31392, Control_c, 0, 64, 127
2, 31392, Note_on_c, 0, 80, 84
2, 31415, Note_on_c, 0, 80, 0
2, 31416, Note_on_c, 0, 76, 84
2, 31439, Note_on_c, 0, 76, 0
2, 31440, Note_on_c, 0, 75, 84
2, 31463, Note_on_c, 0, 75, 0
2, 31464, Control_c, 0, 64, 0
2, 31464, Note_on_c, 0, 76, 84
2, 31487, Note_on_c, 0, 76, 0
2, 31488, Control_c, 0, 64, 127
2, 31488, Note_on_c, 0, 75, 84
2, 31511, Note_on_c, 0, 75, 0
2, 31512, Note_on_c, 0, 71, 84
2, 31535, Note_on_c, 0, 71, 0
2, 31536, Note_on_c, 0, 78, 84
2, 31559, Note_on_c, 0, 78, 0
2, 31560, Note_on_c, 0, 75, 84
2, 31583, Note_on_c, 0, 75, 0
2, 31584, Note_on_c, 0, 83, 84
2, 31607, Note_on_c, 0, 83, 0
2, 31608, Note_on_c, 0, 78, 84
2, 31631, Note_on_c, 0, 78, 0
2, 31632, Note_on_c, 0, 75, 84
2, 31655, Note_on_c, 0, 75, 0
2, 31656, Control_c, 0, 64, 0
2, 31656, Note_on_c, 0, 71, 84
2, 31679, Note_on_c, 0, 71, 0
2, 31680, Control_c, 0, 64, 127
2, 31680, Note_on_c, 0, 81, 84
2, 31703, Note_on_c, 0, 81, 0
2, 31704, Note_on_c, 0, 78, 84
2, 31727, Note_on_c, 0, 78, 0
2, 31728, Note_on_c, 0, 75, 84
2, 31751, Note_on_c, 0, 75, 0
2, 31752, Control_c, 0, 64, 0
2, 31752, Note_on_c, 0, 71, 84
2, 31775, Note_on_c, 0, 71, 0
2, 31776, Control_c, 0, 64, 127
2, 31776, Note_on_c, 0, 80, 84
2, 31799, Note_on_c, 0, 80, 0
2, 31800, Note_on_c, 0, 76, 84
2, 31823, Note_on_c, 0, 76, 0
2, 31824, Note_on_c, 0, 75, 84
2, 31847, Note_on_c, 0, 75, 0
2, 31848, Control_c, 0, 64, 0
2, 31848, Note_on_c, 0, 76, 84
2, 31871, Note_on_c, 0, 76, 0
2, 31872, Note_on_c, 0, 75, 84
2, 31917, Note_on_c, 0, 75, 0
2, 31920, Note_on_c, 0, 83, 84
2, 31965, Note_on_c, 0, 83, 0
2, 32016, Note_on_c, 0, 64, 75
2, 32016, Note_on_c, 0, 56, 75
2, 32036, Note_on_c, 0, 64, 0
2, 32036, Note_on_c, 0, 56, 0
2, 32064, Note_on_c, 0, 64, 75
2, 32064, Note_on_c, 0, 56, 75
2, 32153, Note_on_c, 0, 64, 0
2, 32153, Note_on_c, 0, 56, 0
2, 32208, Note_on_c, 0, 68, 76
2, 32208, Note_on_c, 0, 64, 76
2, 32228, Note_on_c, 0, 68, 0
2, 32228, Note_on_c, 0, 64, 0
2, 32256, Note_on_c, 0, 68, 77
2, 32256, Note_on_c, 0, 64, 77
2, 32345, Note_on_c, 0, 68, 0
2, 32345, Note_on_c, 0, 64, 0
2, 32400, Note_on_c, 0, 71, 79
2, 32400, Note_on_c, 0, 68, 79
2, 32420, Note_on_c, 0, 71, 0
2, 32420, Note_on_c, 0, 68, 0
2, 32448, Note_on_c, 0, 71, 80
2, 32448, Note_on_c, 0, 68, 80
2, 32537, Note_on_c, 0, 71, 0
2, 32537, Note_on_c, 0, 68, 0
2, 32592, Note_on_c, 0, 76, 82
2, 32592, Note_on_c, 0, 68, 82
2, 32612, Note_on_c, 0, 76, 0
2, 32612, Note_on_c, 0, 68, 0
2, 32640, Note_on_c, 0, 76, 82
2, 32640, Note_on_c, 0, 68, 82
2, 32729, Note_on_c, 0, 76, 0
2, 32729, Note_on_c, 0, 68, 0
2, 32784, Note_on_c, 0, 71, 83
2, 32784, Note_on_c, 0, 68, 83
2, 32804, Note_on_c, 0, 71, 0
2, 32804, Note_on_c, 0, 68, 0
2, 32832, Note_on_c, 0, 69, 82
2, 32832, Note_on_c, 0, 66, 82
2, 32880, Note_on_c, 0, 69, 0
2, 32880, Note_on_c, 0, 66, 0
2, 32880, Note_on_c, 0, 68, 82
2, 32880, Note_on_c, 0, 64, 82
2, 32900, Note_on_c, 0, 68, 0
2, 32900, Note_on_c, 0, 64, 0
2, 32928, Note_on_c, 0, 69, 81
2, 32928, Note_on_c, 0, 66, 81
2, 32976, Note_on_c, 0, 69, 0
2, 32976, Note_on_c, 0, 63, 80
2, 32996, Note_on_c, 0, 66, 0
2, 32996, Note_on_c, 0, 63, 0
2, 33024, Note_on_c, 0, 68, 80
2, 33024, Note_on_c, 0, 64, 80
2, 33069, Note_on_c, 0, 68, 0
2, 33069, Note_on_c, 0, 64, 0
2, 33072, Note_on_c, 0, 71, 79
2, 33072, Note_on_c, 0, 68, 79
2, 33117, Note_on_c, 0, 71, 0
2, 33117, Note_on_c, 0, 68, 0
2, 33168, Note_on_c, 0, 71, 78
2, 33168, Note_on_c, 0, 68, 78
2, 33188, Note_on_c, 0, 71, 0
2, 33188, Note_on_c, 0, 68, 0
2, 33216, Note_on_c, 0, 69, 77
2, 33216, Note_on_c, 0, 66, 77
2, 33264, Note_on_c, 0, 69, 0
2, 33264, Note_on_c, 0, 66, 0
2, 33264, Note_on_c, 0, 68, 76
2, 33264, Note_on_c, 0, 64, 76
2, 33284, Note_on_c, 0, 68, 0
2, 33284, Note_on_c, 0, 64, 0
2, 33312, Note_on_c, 0, 69, 76
2, 33312, Note_on_c, 0, 66, 76
2, 33360, Note_on_c, 0, 69, 0
2, 33360, Note_on_c, 0, 63, 75
2, 33380, Note_on_c, 0, 66, 0
2, 33380, Note_on_c, 0, 63, 0
2, 33408, Note_on_c, 0, 64, 75
2, 33453, Note_on_c, 0, 64, 0
2, 33456, Note_on_c, 0, 59, 75
2, 33501, Note_on_c, 0, 59, 0
2, 33552, Note_on_c, 0, 64, 69
2, 33552, Note_on_c, 0, 55, 69
2, 33572, Note_on_c, 0, 64, 0
2, 33572, Note_on_c, 0, 55, 0
2, 33600, Note_on_c, 0, 64, 69
2, 33600, Note_on_c, 0, 55, 69
2, 33689, Note_on_c, 0, 64, 0
2, 33689, Note_on_c, 0, 55, 0
2, 33744, Note_on_c, 0, 67, 69
2, 33744, Note_on_c, 0, 64, 69
2, 33764, Note_on_c, 0, 67, 0
2, 33764, Note_on_c, 0, 64, 0
2, 33792, Note_on_c, 0, 66, 69
2, 33792, Note_on_c, 0, 63, 69
2, 33881, Note_on_c, 0, 66, 0
2, 33881, Note_on_c, 0, 63, 0
2, 33936, Note_on_c, 0, 66, 71
2, 33936, Note_on_c, 0, 63, 71
2, 33956, Note_on_c, 0, 66, 0
2, 33956, Note_on_c, 0, 63, 0
2, 33984, Note_on_c, 0, 66, 72
2, 33984, Note_on_c, 0, 63, 72
2, 34073, Note_on_c, 0, 66, 0
2, 34073, Note_on_c, 0, 63, 0
2, 34128, Note_on_c, 0, 69, 74
2, 34128, Note_on_c, 0, 66, 74
2, 34148, Note_on_c, 0, 69, 0
2, 34148, Note_on_c, 0, 66, 0
2, 34176, Note_on_c, 0, 67, 75
2, 34176, Note_on_c, 0, 64, 75
2, 34265, Note_on_c, 0, 67, 0
2, 34265, Note_on_c, 0, 64, 0
2, 34320, Note_on_c, 0, 71, 78
2, 34320, Note_on_c, 0, 67, 78
2, 34340, Note_on_c, 0, 71, 0
2, 34340, Note_on_c, 0, 67, 0
2, 34368, Note_on_c, 0, 72, 79
2, 34368, Note_on_c, 0, 69, 79
2, 34457, Note_on_c, 0, 72, 0
2, 34457, Note_on_c, 0, 69, 0
2, 34512, Note_on_c, 0, 75, 81
2, 34512, Note_on_c, 0, 66, 81
2, 34532, Note_on_c, 0, 75, 0
2, 34532, Note_on_c, 0, 66, 0
2, 34560, Note_on_c, 0, 76, 98
2, 34560, Note_on_c, 0, 67, 98
2, 34656, Note_on_c, 0, 76, 0
2, 34656, Note_on_c, 0, 67, 0
2, 34704, Note_on_c, 0, 71, 84
2, 34704, Note_on_c, 0, 67, 84
2, 34749, Note_on_c, 0, 71, 0
2, 34749, Note_on_c, 0, 67, 0
2, 34800, Note_on_c, 0, 69, 81
2, 34800, Note_on_c, 0, 66, 81
2, 34845, Note_on_c, 0, 69, 0
2, 34845, Note_on_c, 0, 66, 0
2, 34896, Note_on_c, 0, 67, 78
2, 34896, Note_on_c, 0, 64, 78
2, 34941, Note_on_c, 0, 67, 0
2, 34941, Note_on_c, 0, 64, 0
2, 34992, Note_on_c, 0, 66, 76
2, 34992, Note_on_c, 0, 63, 76
2, 35037, Note_on_c, 0, 66, 0
2, 35037, Note_on_c, 0, 63, 0
2, 35040, Note_on_c, 0, 59, 75
2, 35085, Note_on_c, 0, 59, 0
2, 35088, Note_on_c, 0, 71, 75
2, 35088, Note_on_c, 0, 67, 75
2, 35133, Note_on_c, 0, 71, 0
2, 35133, Note_on_c, 0, 67, 0
2, 35184, Note_on_c, 0, 69, 73
2, 35184, Note_on_c, 0, 66, 73
2, 35229, Note_on_c, 0, 69, 0
2, 35229, Note_on_c, 0, 66, 0
2, 35280, Note_on_c, 0, 67, 71
2, 35280, Note_on_c, 0, 64, 71
2, 35325, Note_on_c, 0, 67, 0
2, 35325, Note_on_c, 0, 64, 0
2, 35376, Note_on_c, 0, 66, 69
2, 35376, Note_on_c, 0, 63, 69
2, 35421, Note_on_c, 0, 66, 0
2, 35421, Note_on_c, 0, 63, 0
2, 35424, Note_on_c, 0, 59, 69
2, 35469, Note_on_c, 0, 59, 0
2, 35472, Note_on_c, 0, 71, 69
2, 35472, Note_on_c, 0, 67, 69
2, 35517, Note_on_c, 0, 71, 0
2, 35517, Note_on_c, 0, 67, 0
2, 35568, Note_on_c, 0, 69, 66
2, 35568, Note_on_c, 0, 66, 66
2, 35613, Note_on_c, 0, 69, 0
2, 35613, Note_on_c, 0, 66, 0
2, 35664, Note_on_c, 0, 67, 64
2, 35664, Note_on_c, 0, 64, 64
2, 35709, Note_on_c, 0, 67, 0
2, 35709, Note_on_c, 0, 64, 0
2, 35712, Note_on_c, 0, 66, 63
2, 35712, Note_on_c, 0, 63, 63
2, 35801, Note_on_c, 0, 66, 0
2, 35801, Note_on_c, 0, 63, 0
2, 35904, Control_c, 0, 64, 127
2, 35904, Note_on_c, 0, 68, 84
2, 35927, Note_on_c, 0, 68, 0
2, 35928, Note_on_c, 0, 64, 84
2, 35951, Note_on_c, 0, 64, 0
2, 35952, Note_on_c, 0, 71, 84
2, 35975, Note_on_c, 0, 71, 0
2, 35976, Note_on_c, 0, 68, 84
2, 35999, Note_on_c, 0, 68, 0
2, 36000, Note_on_c, 0, 76, 84
2, 36023, Note_on_c, 0, 76, 0
2, 36024, Note_on_c, 0, 71, 84
2, 36047, Note_on_c, 0, 71, 0
2, 36048, Note_on_c, 0, 68, 84
2, 36071, Note_on_c, 0, 68, 0
2, 36072, Note_on_c, 0, 64, 84
2, 36095, Note_on_c, 0, 64, 0
2, 36096, Note_on_c, 0, 68, 84
2, 36119, Note_on_c, 0, 68, 0
2, 36120, Note_on_c, 0, 64, 84
2, 36143, Note_on_c, 0, 64, 0
2, 36144, Note_on_c, 0, 71, 84
2, 36167, Note_on_c, 0, 71, 0
2, 36168, Note_on_c, 0, 68, 84
2, 36191, Note_on_c, 0, 68, 0
2, 36192, Note_on_c, 0, 76, 84
2, 36215, Note_on_c, 0, 76, 0
2, 36216, Note_on_c, 0, 71, 84
2, 36239, Note_on_c, 0, 71, 0
2, 36240, Note_on_c, 0, 68, 84
2, 36263, Note_on_c, 0, 68, 0
2, 36264, Note_on_c, 0, 64, 84
2, 36287, Note_on_c, 0, 64, 0
2, 36288, Note_on_c, 0, 68, 84
2, 36311, Note_on_c, 0, 68, 0
2, 36312, Note_on_c, 0, 64, 84
2, 36335, Note_on_c, 0, 64, 0
2, 36336, Note_on_c, 0, 71, 84
2, 36359, Note_on_c, 0, 71, 0
2, 36360, Note_on_c, 0, 68, 84
2, 36383, Note_on_c, 0, 68, 0
2, 36384, Note_on_c, 0, 76, 84
2, 36407, Note_on_c, 0, 76, 0
2, 36408, Note_on_c, 0, 71, 84
2, 36431, Note_on_c, 0, 71, 0
2, 36432, Note_on_c, 0, 68, 84
2, 36455, Note_on_c, 0, 68, 0
2, 36456, Control_c, 0, 64, 0
2, 36456, Note_on_c, 0, 64, 84
2, 36479, Note_on_c, 0, 64, 0
2, 36480, Control_c, 0, 64, 127
2, 36480, Note_on_c, 0, 69, 84
2, 36503, Note_on_c, 0, 69, 0
2, 36504, Note_on_c, 0, 64, 84
2, 36527, Note_on_c, 0, 64, 0
2, 36528, Note_on_c, 0, 73, 84
2, 36551, Note_on_c, 0, 73, 0
2, 36552, Note_on_c, 0, 69, 84
2, 36575, Note_on_c, 0, 69, 0
2, 36576, Note_on_c, 0, 76, 84
2, 36599, Note_on_c, 0, 76, 0
2, 36600, Note_on_c, 0, 73, 84
2, 36623, Note_on_c, 0, 73, 0
2, 36624, Note_on_c, 0, 69, 84
2, 36647, Note_on_c, 0, 69, 0
2, 36648, Control_c, 0, 64, 0
2, 36648, Note_on_c, 0, 64, 84
2, 36671, Note_on_c, 0, 64, 0
2, 36672, Control_c, 0, 64, 127
2, 36672, Note_on_c, 0, 76, 84
2, 36695, Note_on_c, 0, 76, 0
2, 36696, Note_on_c, 0, 71, 84
2, 36719, Note_on_c, 0, 71, 0
2, 36720, Note_on_c, 0, 68, 84
2, 36743, Note_on_c, 0, 68, 0
2, 36744, Control_c, 0, 64, 0
2, 36744, Note_on_c, 0, 64, 84
2, 36767, Note_on_c, 0, 64, 0
2, 36768, Control_c, 0, 64, 127
2, 36768, Note_on_c, 0, 76, 84
2, 36791, Note_on_c, 0, 76, 0
2, 36792, Note_on_c, 0, 73, 84
2, 36815, Note_on_c, 0, 73, 0
2, 36816, Note_on_c, 0, 69, 84
2, 36839, Note_on_c, 0, 69, 0
2, 36840, Control_c, 0, 64, 0
2, 36840, Note_on_c, 0, 64, 84
2, 36863, Note_on_c, 0, 64, 0
2, 36864, Control_c, 0, 64, 127
2, 36864, Note_on_c, 0, 76, 84
2, 36887, Note_on_c, 0, 76, 0
2, 36888, Note_on_c, 0, 71, 84
2, 36911, Note_on_c, 0, 71, 0
2, 36912, Note_on_c, 0, 68, 84
2, 36935, Note_on_c, 0, 68, 0
2, 36936, Control_c, 0, 64, 0
2, 36936, Note_on_c, 0, 64, 84
2, 36959, Note_on_c, 0, 64, 0
2, 36960, Control_c, 0, 64, 127
2, 36960, Note_on_c, 0, 76, 84
2, 36983, Note_on_c, 0, 76, 0
2, 36984, Note_on_c, 0, 73, 84
2, 37007, Note_on_c, 0, 73, 0
2, 37008, Note_on_c, 0, 69, 84
2, 37031, Note_on_c, 0, 69, 0
2, 37032, Control_c, 0, 64, 0
2, 37032, Note_on_c, 0, 64, 84
2, 37055, Note_on_c, 0, 64, 0
2, 37056, Control_c, 0, 64, 127
2, 37056, Note_on_c, 0, 76, 84
2, 37079, Note_on_c, 0, 76, 0
2, 37080, Note_on_c, 0, 71, 84
2, 37103, Note_on_c, 0, 71, 0
2, 37104, Note_on_c, 0, 68, 84
2, 37127, Note_on_c, 0, 68, 0
2, 37128, Control_c, 0, 64, 0
2, 37128, Note_on_c, 0, 64, 84
2, 37151, Note_on_c, 0, 64, 0
2, 37152, Control_c, 0, 64, 127
2, 37152, Note_on_c, 0, 76, 84
2, 37175, Note_on_c, 0, 76, 0
2, 37176, Note_on_c, 0, 73, 84
2, 37199, Note_on_c, 0, 73, 0
2, 37200, Note_on_c, 0, 69, 84
2, 37223, Note_on_c, 0, 69, 0
2, 37224, Control_c, 0, 64, 0
2, 37224, Note_on_c, 0, 64, 84
2, 37247, Note_on_c, 0, 64, 0
2, 37248, Note_on_c, 0, 66, 84
2, 37265, Note_on_c, 0, 66, 0
2, 37266, Note_on_c, 0, 68, 84
2, 37283, Note_on_c, 0, 68, 0
2, 37284, Note_on_c, 0, 66, 84
2, 37301, Note_on_c, 0, 66, 0
2, 37302, Note_on_c, 0, 68, 84
2, 37319, Note_on_c, 0, 68, 0
2, 37320, Note_on_c, 0, 66, 84
2, 37337, Note_on_c, 0, 66, 0
2, 37338, Note_on_c, 0, 68, 84
2, 37354, Note_on_c, 0, 68, 0
2, 37355, Note_on_c, 0, 66, 84
2, 37371, Note_on_c, 0, 66, 0
2, 37372, Note_on_c, 0, 68, 84
2, 37388, Note_on_c, 0, 68, 0
2, 37389, Note_on_c, 0, 66, 84
2, 37405, Note_on_c, 0, 66, 0
2, 37406, Note_on_c, 0, 64, 84
2, 37422, Note_on_c, 0, 64, 0
2, 37423, Note_on_c, 0, 66, 84
2, 37439, Note_on_c, 0, 66, 0
2, 37440, Note_on_c, 0, 64, 84
2, 37529, Note_on_c, 0, 64, 0
2, 37584, Note_on_c, 0, 83, 61
2, 37584, Note_on_c, 0, 80, 61
2, 37604, Note_on_c, 0, 83, 0
2, 37604, Note_on_c, 0, 80, 0
2, 37632, Note_on_c, 0, 83, 61
2, 37632, Note_on_c, 0, 80, 61
2, 37680, Note_on_c, 0, 83, 0
2, 37680, Note_on_c, 0, 76, 61
2, 37700, Note_on_c, 0, 80, 0
2, 37700, Note_on_c, 0, 76, 0
2, 37728, Note_on_c, 0, 80, 61
2, 37728, Note_on_c, 0, 76, 61
2, 37776, Note_on_c, 0, 80, 0
2, 37776, Note_on_c, 0, 76, 0
2, 37776, Note_on_c, 0, 81, 61
2, 37776, Note_on_c, 0, 78, 61
2, 37796, Note_on_c, 0, 81, 0
2, 37796, Note_on_c, 0, 78, 0
2, 37824, Note_on_c, 0, 81, 61
2, 37824, Note_on_c, 0, 78, 61
2, 37872, Note_on_c, 0, 81, 0
2, 37872, Note_on_c, 0, 75, 61
2, 37917, Note_on_c, 0, 78, 0
2, 37917, Note_on_c, 0, 75, 0
2, 37968, Note_on_c, 0, 71, 84
2, 37988, Note_on_c, 0, 71, 0
2, 38016, Note_on_c, 0, 76, 84
2, 38061, Note_on_c, 0, 76, 0
2, 38064, Note_on_c, 0, 71, 84
2, 38109, Note_on_c, 0, 71, 0
2, 38112, Note_on_c, 0, 76, 84
2, 38135, Note_on_c, 0, 76, 0
2, 38136, Note_on_c, 0, 71, 84
2, 38159, Note_on_c, 0, 71, 0
2, 38160, Note_on_c, 0, 68, 84
2, 38183, Note_on_c, 0, 68, 0
2, 38184, Note_on_c, 0, 64, 84
2, 38207, Note_on_c, 0, 64, 0
2, 38208, Note_on_c, 0, 71, 84
2, 38297, Note_on_c, 0, 71, 0
2, 38352, Note_on_c, 0, 83, 61
2, 38352, Note_on_c, 0, 79, 61
2, 38372, Note_on_c, 0, 83, 0
2, 38372, Note_on_c, 0, 79, 0
2, 38400, Note_on_c, 0, 83, 61
2, 38400, Note_on_c, 0, 79, 61
2, 38448, Note_on_c, 0, 83, 0
2, 38448, Note_on_c, 0, 76, 61
2, 38468, Note_on_c, 0, 79, 0
2, 38468, Note_on_c, 0, 76, 0
2, 38496, Note_on_c, 0, 79, 61
2, 38496, Note_on_c, 0, 76, 61
2, 38544, Note_on_c, 0, 79, 0
2, 38544, Note_on_c, 0, 76, 0
2, 38544, Note_on_c, 0, 81, 61
2, 38544, Note_on_c, 0, 78, 61
2, 38564, Note_on_c, 0, 81, 0
2, 38564, Note_on_c, 0, 78, 0
2, 38592, Note_on_c, 0, 81, 61
2, 38592, Note_on_c, 0, 78, 61
2, 38640, Note_on_c, 0, 81, 0
2, 38640, Note_on_c, 0, 75, 61
2, 38685, Note_on_c, 0, 78, 0
2, 38685, Note_on_c, 0, 75, 0
2, 38736, Note_on_c, 0, 75, 69
2, 38756, Note_on_c, 0, 75, 0
2, 38784, Note_on_c, 0, 76, 69
2, 38851, Note_on_c, 0, 76, 0
2, 38856, Note_on_c, 0, 75, 69
2, 38879, Note_on_c, 0, 75, 0
2, 38880, Note_on_c, 0, 76, 69
2, 38903, Note_on_c, 0, 76, 0
2, 38904, Note_on_c, 0, 79, 69
2, 38927, Note_on_c, 0, 79, 0
2, 38928, Note_on_c, 0, 78, 69
2, 38951, Note_on_c, 0, 78, 0
2, 38952, Note_on_c, 0, 76, 69
2, 38975, Note_on_c, 0, 76, 0
2, 38976, Note_on_c, 0, 75, 69
2, 39065, Note_on_c, 0, 75, 0
2, 39120, Note_on_c, 0, 64, 75
2, 39120, Note_on_c, 0, 56, 75
2, 39140, Note_on_c, 0, 64, 0
2, 39140, Note_on_c, 0, 56, 0
2, 39168, Note_on_c, 0, 64, 75
2, 39168, Note_on_c, 0, 56, 75
2, 39216, Note_on_c, 0, 56, 0
2, 39216, Note_on_c, 0, 68, 75
2, 39236, Note_on_c, 0, 68, 0
2, 39236, Note_on_c, 0, 64, 0
2, 39264, Note_on_c, 0, 68, 75
2, 39264, Note_on_c, 0, 64, 75
2, 39312, Note_on_c, 0, 64, 0
2, 39312, Note_on_c, 0, 71, 75
2, 39332, Note_on_c, 0, 71, 0
2, 39332, Note_on_c, 0, 68, 0
2, 39360, Note_on_c, 0, 71, 75
2, 39427, Note_on_c, 0, 71, 0
2, 39432, Note_on_c, 0, 76, 75
2, 39455, Note_on_c, 0, 76, 0
2, 39456, Note_on_c, 0, 71, 75
2, 39501, Note_on_c, 0, 71, 0
2, 39552, Note_on_c, 0, 73, 75
2, 39619, Note_on_c, 0, 73, 0
2, 39624, Note_on_c, 0, 75, 75
2, 39647, Note_on_c, 0, 75, 0
2, 39648, Note_on_c, 0, 76, 75
2, 39693, Note_on_c, 0, 76, 0
2, 39744, Note_on_c, 0, 73, 75
2, 39811, Note_on_c, 0, 73, 0
2, 39816, Note_on_c, 0, 75, 75
2, 39839, Note_on_c, 0, 75, 0
2, 39840, Note_on_c, 0, 76, 75
2, 39885, Note_on_c, 0, 76, 0
2, 39936, Note_on_c, 0, 73, 75
2, 39959, Note_on_c, 0, 73, 0
2, 39960, Note_on_c, 0, 76, 75
2, 39983, Note_on_c, 0, 76, 0
2, 39984, Note_on_c, 0, 75, 75
2, 40007, Note_on_c, 0, 75, 0
2, 40008, Note_on_c, 0, 73, 75
2, 40031, Note_on_c, 0, 73, 0
2, 40032, Note_on_c, 0, 71, 75
2, 40055, Note_on_c, 0, 71, 0
2, 40056, Note_on_c, 0, 69, 75
2, 40079, Note_on_c, 0, 69, 0
2, 40080, Note_on_c, 0, 68, 75
2, 40103, Note_on_c, 0, 68, 0
2, 40104, Note_on_c, 0, 66, 75
2, 40127, Note_on_c, 0, 66, 0
2, 40128, Note_on_c, 0, 64, 75
2, 40217, Note_on_c, 0, 64, 0
2, 40224, Note_on_c, 0, 68, 75
2, 40239, Note_on_c, 0, 68, 0
2, 40240, Note_on_c, 0, 66, 75
2, 40255, Note_on_c, 0, 66, 0
2, 40256, Note_on_c, 0, 68, 75
2, 40271, Note_on_c, 0, 68, 0
2, 40272, Note_on_c, 0, 66, 75
2, 40287, Note_on_c, 0, 66, 0
2, 40288, Note_on_c, 0, 64, 75
2, 40303, Note_on_c, 0, 64, 0
2, 40304, Note_on_c, 0, 66, 75
2, 40319, Note_on_c, 0, 66, 0
2, 40320, Note_on_c, 0, 64, 75
2, 40409, Note_on_c, 0, 64, 0
2, 40464, Note_on_c, 0, 64, 75
2, 40464, Note_on_c, 0, 56, 75
2, 40484, Note_on_c, 0, 64, 0
2, 40484, Note_on_c, 0, 56, 0
2, 40512, Note_on_c, 0, 64, 75
2, 40512, Note_on_c, 0, 56, 75
2, 40601, Note_on_c, 0, 64, 0
2, 40601, Note_on_c, 0, 56, 0
2, 40656, Note_on_c, 0, 68, 77
2, 40656, Note_on_c, 0, 64, 77
2, 40676, Note_on_c, 0, 68, 0
2, 40676, Note_on_c, 0, 64, 0
2, 40704, Note_on_c, 0, 68, 78
2, 40704, Note_on_c, 0, 64, 78
2, 40793, Note_on_c, 0, 68, 0
2, 40793, Note_on_c, 0, 64, 0
2, 40848, Note_on_c, 0, 71, 80
2, 40848, Note_on_c, 0, 68, 80
2, 40868, Note_on_c, 0, 71, 0
2, 40868, Note_on_c, 0, 68, 0
2, 40896, Note_on_c, 0, 71, 81
2, 40896, Note_on_c, 0, 68, 81
2, 40985, Note_on_c, 0, 71, 0
2, 40985, Note_on_c, 0, 68, 0
2, 41040, Note_on_c, 0, 76, 83
2, 41040, Note_on_c, 0, 68, 83
2, 41060, Note_on_c, 0, 76, 0
2, 41060, Note_on_c, 0, 68, 0
2, 41088, Note_on_c, 0, 76, 84
2, 41088, Note_on_c, 0, 68, 84
2, 41177, Note_on_c, 0, 76, 0
2, 41177, Note_on_c, 0, 68, 0
2, 41280, End_track
3, 0, Start_track
3, 0, Program_c, 0, 0
3, 0, Control_c, 0, 7, 127
3, 0, Control_c, 0, 10, 64
3, 7104, Note_on_c, 0, 75, 64
3, 7245, Note_on_c, 0, 75, 0
3, 15360, Note_on_c, 0, 75, 64
3, 15501, Note_on_c, 0, 75, 0
3, 27072, Note_on_c, 0, 68, 64
3, 27213, Note_on_c, 0, 68, 0
3, 39360, Note_on_c, 0, 68, 64
3, 39501, Note_on_c, 0, 68, 0
3, 41280, End_track
4, 0, Start_track
4, 0, Program_c, 1, 0
4, 0, Control_c, 1, 7, 127
4, 0, Control_c, 1, 10, 64
4, 240, Note_on_c, 1, 52, 75
4, 240, Note_on_c, 1, 40, 75
4, 260, Note_on_c, 1, 52, 0
4, 260, Note_on_c, 1, 40, 0
4, 288, Note_on_c, 1, 52, 76
4, 288, Note_on_c, 1, 40, 76
4, 377, Note_on_c, 1, 52, 0
4, 377, Note_on_c, 1, 40, 0
4, 432, Note_on_c, 1, 52, 78
4, 432, Note_on_c, 1, 40, 78
4, 452, Note_on_c, 1, 52, 0
4, 452, Note_on_c, 1, 40, 0
4, 480, Note_on_c, 1, 52, 78
4, 480, Note_on_c, 1, 40, 78
4, 569, Note_on_c, 1, 52, 0
4, 569, Note_on_c, 1, 40, 0
4, 624, Note_on_c, 1, 52, 80
4, 624, Note_on_c, 1, 40, 80
4, 644, Note_on_c, 1, 52, 0
4, 644, Note_on_c, 1, 40, 0
4, 672, Note_on_c, 1, 52, 81
4, 672, Note_on_c, 1, 40, 81
4, 761, Note_on_c, 1, 52, 0
4, 761, Note_on_c, 1, 40, 0
4, 816, Note_on_c, 1, 52, 83
4, 816, Note_on_c, 1, 40, 83
4, 836, Note_on_c, 1, 52, 0
4, 836, Note_on_c, 1, 40, 0
4, 864, Note_on_c, 1, 52, 84
4, 864, Note_on_c, 1, 40, 84
4, 953, Note_on_c, 1, 52, 0
4, 953, Note_on_c, 1, 40, 0
4, 960, Note_on_c, 1, 47, 82
4, 960, Note_on_c, 1, 35, 82
4, 1049, Note_on_c, 1, 47, 0
4, 1049, Note_on_c, 1, 35, 0
4, 1056, Note_on_c, 1, 47, 81
4, 1056, Note_on_c, 1, 35, 81
4, 1145, Note_on_c, 1, 47, 0
4, 1145, Note_on_c, 1, 35, 0
4, 1152, Note_on_c, 1, 52, 80
4, 1152, Note_on_c, 1, 40, 80
4, 1241, Note_on_c, 1, 52, 0
4, 1241, Note_on_c, 1, 40, 0
4, 1248, Note_on_c, 1, 52, 78
4, 1248, Note_on_c, 1, 40, 78
4, 1337, Note_on_c, 1, 52, 0
4, 1337, Note_on_c, 1, 40, 0
4, 1344, Note_on_c, 1, 47, 77
4, 1344, Note_on_c, 1, 35, 77
4, 1433, Note_on_c, 1, 47, 0
4, 1433, Note_on_c, 1, 35, 0
4, 1440, Note_on_c, 1, 47, 76
4, 1440, Note_on_c, 1, 35, 76
4, 1529, Note_on_c, 1, 47, 0
4, 1529, Note_on_c, 1, 35, 0
4, 1536, Note_on_c, 1, 52, 75
4, 1536, Note_on_c, 1, 40, 75
4, 1625, Note_on_c, 1, 52, 0
4, 1625, Note_on_c, 1, 40, 0
4, 1776, Note_on_c, 1, 52, 69
4, 1776, Note_on_c, 1, 40, 69
4, 1796, Note_on_c, 1, 52, 0
4, 1796, Note_on_c, 1, 40, 0
4, 1824, Note_on_c, 1, 52, 69
4, 1824, Note_on_c, 1, 40, 69
4, 1913, Note_on_c, 1, 52, 0
4, 1913, Note_on_c, 1, 40, 0
4, 1968, Note_on_c, 1, 52, 70
4, 1968, Note_on_c, 1, 40, 70
4, 1988, Note_on_c, 1, 52, 0
4, 1988, Note_on_c, 1, 40, 0
4, 2016, Note_on_c, 1, 52, 72
4, 2016, Note_on_c, 1, 40, 72
4, 2105, Note_on_c, 1, 52, 0
4, 2105, Note_on_c, 1, 40, 0
4, 2160, Note_on_c, 1, 52, 77
4, 2160, Note_on_c, 1, 40, 77
4, 2180, Note_on_c, 1, 52, 0
4, 2180, Note_on_c, 1, 40, 0
4, 2208, Note_on_c, 1, 52, 79
4, 2208, Note_on_c, 1, 40, 79
4, 2297, Note_on_c, 1, 52, 0
4, 2297, Note_on_c, 1, 40, 0
4, 2352, Note_on_c, 1, 52, 84
4, 2352, Note_on_c, 1, 40, 84
4, 2372, Note_on_c, 1, 52, 0
4, 2372, Note_on_c, 1, 40, 0
4, 2400, Note_on_c, 1, 52, 84
4, 2400, Note_on_c, 1, 40, 84
4, 2489, Note_on_c, 1, 52, 0
4, 2489, Note_on_c, 1, 40, 0
4, 2496, Note_on_c, 1, 47, 84
4, 2496, Note_on_c, 1, 35, 84
4, 2541, Note_on_c, 1, 47, 0
4, 2541, Note_on_c, 1, 35, 0
4, 2592, Note_on_c, 1, 47, 81
4, 2592, Note_on_c, 1, 35, 81
4, 2637, Note_on_c, 1, 47, 0
4, 2637, Note_on_c, 1, 35, 0
4, 2688, Note_on_c, 1, 47, 79
4, 2688, Note_on_c, 1, 35, 79
4, 2777, Note_on_c, 1, 47, 0
4, 2777, Note_on_c, 1, 35, 0
4, 2880, Note_on_c, 1, 47, 75
4, 2880, Note_on_c, 1, 35, 75
4, 2925, Note_on_c, 1, 47, 0
4, 2925, Note_on_c, 1, 35, 0
4, 2976, Note_on_c, 1, 47, 73
4, 2976, Note_on_c, 1, 35, 73
4, 3021, Note_on_c, 1, 47, 0
4, 3021, Note_on_c, 1, 35, 0
4, 3072, Note_on_c, 1, 47, 72
4, 3072, Note_on_c, 1, 35, 72
4, 3161, Note_on_c, 1, 47, 0
4, 3161, Note_on_c, 1, 35, 0
4, 3264, Note_on_c, 1, 47, 69
4, 3264, Note_on_c, 1, 35, 69
4, 3309, Note_on_c, 1, 47, 0
4, 3309, Note_on_c, 1, 35, 0
4, 3360, Note_on_c, 1, 47, 66
4, 3360, Note_on_c, 1, 35, 66
4, 3405, Note_on_c, 1, 47, 0
4, 3405, Note_on_c, 1, 35, 0
4, 3456, Note_on_c, 1, 47, 63
4, 3456, Note_on_c, 1, 35, 63
4, 3545, Note_on_c, 1, 47, 0
4, 3545, Note_on_c, 1, 35, 0
4, 3648, Control_c, 1, 64, 127
4, 3648, Note_on_c, 1, 63, 84
4, 3648, Note_on_c, 1, 51, 84
4, 3737, Note_on_c, 1, 63, 0
4, 3737, Note_on_c, 1, 51, 0
4, 3792, Note_on_c, 1, 63, 84
4, 3792, Note_on_c, 1, 51, 84
4, 3837, Note_on_c, 1, 63, 0
4, 3837, Note_on_c, 1, 51, 0
4, 3840, Control_c, 1, 64, 0
4, 3840, Control_c, 1, 64, 127
4, 3840, Note_on_c, 1, 64, 84
4, 3840, Note_on_c, 1, 52, 84
4, 3929, Note_on_c, 1, 64, 0
4, 3929, Note_on_c, 1, 52, 0
4, 3984, Note_on_c, 1, 64, 84
4, 3984, Note_on_c, 1, 52, 84
4, 4029, Note_on_c, 1, 64, 0
4, 4029, Note_on_c, 1, 52, 0
4, 4032, Control_c, 1, 64, 0
4, 4032, Control_c, 1, 64, 127
4, 4032, Note_on_c, 1, 66, 84
4, 4032, Note_on_c, 1, 54, 84
4, 4121, Note_on_c, 1, 66, 0
4, 4121, Note_on_c, 1, 54, 0
4, 4176, Note_on_c, 1, 66, 84
4, 4176, Note_on_c, 1, 54, 84
4, 4221, Note_on_c, 1, 66, 0
4, 4221, Note_on_c, 1, 54, 0
4, 4224, Control_c, 1, 64, 0
4, 4224, Control_c, 1, 64, 127
4, 4224, Note_on_c, 1, 68, 84
4, 4224, Note_on_c, 1, 56, 84
4, 4313, Note_on_c, 1, 68, 0
4, 4313, Note_on_c, 1, 56, 0
4, 4368, Note_on_c, 1, 68, 84
4, 4368, Note_on_c, 1, 56, 84
4, 4413, Note_on_c, 1, 68, 0
4, 4413, Note_on_c, 1, 56, 0
4, 4416, Control_c, 1, 64, 0
4, 4416, Control_c, 1, 64, 127
4, 4416, Note_on_c, 1, 63, 84
4, 4416, Note_on_c, 1, 51, 84
4, 4505, Note_on_c, 1, 63, 0
4, 4505, Note_on_c, 1, 51, 0
4, 4512, Control_c, 1, 64, 0
4, 4512, Control_c, 1, 64, 127
4, 4512, Note_on_c, 1, 64, 84
4, 4512, Note_on_c, 1, 52, 84
4, 4601, Note_on_c, 1, 64, 0
4, 4601, Note_on_c, 1, 52, 0
4, 4608, Control_c, 1, 64, 0
4, 4608, Control_c, 1, 64, 127
4, 4608, Note_on_c, 1, 63, 84
4, 4608, Note_on_c, 1, 51, 84
4, 4697, Note_on_c, 1, 63, 0
4, 4697, Note_on_c, 1, 51, 0
4, 4704, Control_c, 1, 64, 0
4, 4704, Control_c, 1, 64, 127
4, 4704, Note_on_c, 1, 64, 84
4, 4704, Note_on_c, 1, 52, 84
4, 4793, Note_on_c, 1, 64, 0
4, 4793, Note_on_c, 1, 52, 0
4, 4800, Control_c, 1, 64, 0
4, 4800, Control_c, 1, 64, 127
4, 4800, Note_on_c, 1, 63, 84
4, 4800, Note_on_c, 1, 51, 84
4, 4889, Note_on_c, 1, 63, 0
4, 4889, Note_on_c, 1, 51, 0
4, 4896, Control_c, 1, 64, 0
4, 4896, Control_c, 1, 64, 127
4, 4896, Note_on_c, 1, 64, 84
4, 4896, Note_on_c, 1, 52, 84
4, 4985, Note_on_c, 1, 64, 0
4, 4985, Note_on_c, 1, 52, 0
4, 4992, Control_c, 1, 64, 0
4, 4992, Control_c, 1, 64, 127
4, 4992, Note_on_c, 1, 66, 84
4, 5081, Note_on_c, 1, 66, 0
4, 5088, Note_on_c, 1, 54, 84
4, 5177, Note_on_c, 1, 54, 0
4, 5184, Control_c, 1, 64, 0
4, 5184, Note_on_c, 1, 59, 84
4, 5273, Note_on_c, 1, 59, 0
4, 5712, Note_on_c, 1, 54, 84
4, 5732, Note_on_c, 1, 54, 0
4, 5760, Note_on_c, 1, 59, 84
4, 5808, Note_on_c, 1, 59, 0
4, 5808, Note_on_c, 1, 54, 84
4, 5853, Note_on_c, 1, 54, 0
4, 5856, Note_on_c, 1, 59, 84
4, 5879, Note_on_c, 1, 59, 0
4, 5880, Note_on_c, 1, 54, 84
4, 5903, Note_on_c, 1, 54, 0
4, 5904, Note_on_c, 1, 51, 84
4, 5927, Note_on_c, 1, 51, 0
4, 5928, Note_on_c, 1, 47, 84
4, 5951, Note_on_c, 1, 47, 0
4, 5952, Note_on_c, 1, 54, 84
4, 6041, Note_on_c, 1, 54, 0
4, 6528, Note_on_c, 1, 62, 84
4, 6617, Note_on_c, 1, 62, 0
4, 6624, Note_on_c, 1, 65, 84
4, 6713, Note_on_c, 1, 65, 0
4, 6720, Note_on_c, 1, 66, 84
4, 6720, Note_on_c, 1, 54, 84
4, 6809, Note_on_c, 1, 66, 0
4, 6809, Note_on_c, 1, 54, 0
4, 6912, Note_on_c, 1, 59, 75
4, 6912, Note_on_c, 1, 47, 75
4, 7001, Note_on_c, 1, 59, 0
4, 7001, Note_on_c, 1, 47, 0
4, 7296, Note_on_c, 1, 64, 75
4, 7319, Note_on_c, 1, 64, 0
4, 7320, Note_on_c, 1, 71, 75
4, 7343, Note_on_c, 1, 71, 0
4, 7344, Note_on_c, 1, 68, 75
4, 7367, Note_on_c, 1, 68, 0
4, 7368, Note_on_c, 1, 71, 75
4, 7391, Note_on_c, 1, 71, 0
4, 7392, Note_on_c, 1, 63, 75
4, 7415, Note_on_c, 1, 63, 0
4, 7416, Note_on_c, 1, 71, 75
4, 7439, Note_on_c, 1, 71, 0
4, 7440, Note_on_c, 1, 66, 75
4, 7463, Note_on_c, 1, 66, 0
4, 7464, Note_on_c, 1, 71, 75
4, 7487, Note_on_c, 1, 71, 0
4, 7488, Note_on_c, 1, 64, 75
4, 7511, Note_on_c, 1, 64, 0
4, 7512, Note_on_c, 1, 71, 75
4, 7535, Note_on_c, 1, 71, 0
4, 7536, Note_on_c, 1, 68, 75
4, 7559, Note_on_c, 1, 68, 0
4, 7560, Note_on_c, 1, 71, 75
4, 7583, Note_on_c, 1, 71, 0
4, 7584, Note_on_c, 1, 63, 75
4, 7607, Note_on_c, 1, 63, 0
4, 7608, Note_on_c, 1, 71, 75
4, 7631, Note_on_c, 1, 71, 0
4, 7632, Note_on_c, 1, 66, 75
4, 7655, Note_on_c, 1, 66, 0
4, 7656, Note_on_c, 1, 71, 75
4, 7679, Note_on_c, 1, 71, 0
4, 7680, Note_on_c, 1, 64, 75
4, 7769, Note_on_c, 1, 64, 0
4, 7872, Note_on_c, 1, 59, 75
4, 7872, Note_on_c, 1, 54, 75
4, 7961, Note_on_c, 1, 59, 0
4, 7961, Note_on_c, 1, 54, 0
4, 7968, Note_on_c, 1, 58, 75
4, 7968, Note_on_c, 1, 54, 75
4, 8057, Note_on_c, 1, 58, 0
4, 8057, Note_on_c, 1, 54, 0
4, 8064, Note_on_c, 1, 47, 84
4, 8087, Note_on_c, 1, 47, 0
4, 8088, Note_on_c, 1, 51, 84
4, 8111, Note_on_c, 1, 51, 0
4, 8112, Note_on_c, 1, 54, 84
4, 8135, Note_on_c, 1, 54, 0
4, 8136, Note_on_c, 1, 59, 84
4, 8159, Note_on_c, 1, 59, 0
4, 8160, Note_on_c, 1, 47, 84
4, 8183, Note_on_c, 1, 47, 0
4, 8184, Note_on_c, 1, 51, 84
4, 8207, Note_on_c, 1, 51, 0
4, 8208, Note_on_c, 1, 54, 84
4, 8231, Note_on_c, 1, 54, 0
4, 8232, Note_on_c, 1, 59, 84
4, 8255, Note_on_c, 1, 59, 0
4, 8256, Note_on_c, 1, 47, 84
4, 8345, Note_on_c, 1, 47, 0
4, 8496, Note_on_c, 1, 52, 75
4, 8496, Note_on_c, 1, 40, 75
4, 8516, Note_on_c, 1, 52, 0
4, 8516, Note_on_c, 1, 40, 0
4, 8544, Note_on_c, 1, 52, 76
4, 8544, Note_on_c, 1, 40, 76
4, 8633, Note_on_c, 1, 52, 0
4, 8633, Note_on_c, 1, 40, 0
4, 8688, Note_on_c, 1, 52, 78
4, 8688, Note_on_c, 1, 40, 78
4, 8708, Note_on_c, 1, 52, 0
4, 8708, Note_on_c, 1, 40, 0
4, 8736, Note_on_c, 1, 52, 78
4, 8736, Note_on_c, 1, 40, 78
4, 8825, Note_on_c, 1, 52, 0
4, 8825, Note_on_c, 1, 40, 0
4, 8880, Note_on_c, 1, 52, 80
4, 8880, Note_on_c, 1, 40, 80
4, 8900, Note_on_c, 1, 52, 0
4, 8900, Note_on_c, 1, 40, 0
4, 8928, Note_on_c, 1, 52, 81
4, 8928, Note_on_c, 1, 40, 81
4, 9017, Note_on_c, 1, 52, 0
4, 9017, Note_on_c, 1, 40, 0
4, 9072, Note_on_c, 1, 52, 83
4, 9072, Note_on_c, 1, 40, 83
4, 9092, Note_on_c, 1, 52, 0
4, 9092, Note_on_c, 1, 40, 0
4, 9120, Note_on_c, 1, 52, 84
4, 9120, Note_on_c, 1, 40, 84
4, 9209, Note_on_c, 1, 52, 0
4, 9209, Note_on_c, 1, 40, 0
4, 9216, Note_on_c, 1, 47, 82
4, 9216, Note_on_c, 1, 35, 82
4, 9305, Note_on_c, 1, 47, 0
4, 9305, Note_on_c, 1, 35, 0
4, 9312, Note_on_c, 1, 47, 81
4, 9312, Note_on_c, 1, 35, 81
4, 9401, Note_on_c, 1, 47, 0
4, 9401, Note_on_c, 1, 35, 0
4, 9408, Note_on_c, 1, 52, 80
4, 9408, Note_on_c, 1, 40, 80
4, 9497, Note_on_c, 1, 52, 0
4, 9497, Note_on_c, 1, 40, 0
4, 9504, Note_on_c, 1, 52, 78
4, 9504, Note_on_c, 1, 40, 78
4, 9593, Note_on_c, 1, 52, 0
4, 9593, Note_on_c, 1, 40, 0
4, 9600, Note_on_c, 1, 47, 77
4, 9600, Note_on_c, 1, 35, 77
4, 9689, Note_on_c, 1, 47, 0
4, 9689, Note_on_c, 1, 35, 0
4, 9696, Note_on_c, 1, 47, 76
4, 9696, Note_on_c, 1, 35, 76
4, 9785, Note_on_c, 1, 47, 0
4, 9785, Note_on_c, 1, 35, 0
4, 9792, Note_on_c, 1, 52, 75
4, 9792, Note_on_c, 1, 40, 75
4, 9881, Note_on_c, 1, 52, 0
4, 9881, Note_on_c, 1, 40, 0
4, 10032, Note_on_c, 1, 52, 69
4, 10032, Note_on_c, 1, 40, 69
4, 10052, Note_on_c, 1, 52, 0
4, 10052, Note_on_c, 1, 40, 0
4, 10080, Note_on_c, 1, 52, 69
4, 10080, Note_on_c, 1, 40, 69
4, 10169, Note_on_c, 1, 52, 0
4, 10169, Note_on_c, 1, 40, 0
4, 10224, Note_on_c, 1, 52, 70
4, 10224, Note_on_c, 1, 40, 70
4, 10244, Note_on_c, 1, 52, 0
4, 10244, Note_on_c, 1, 40, 0
4, 10272, Note_on_c, 1, 52, 72
4, 10272, Note_on_c, 1, 40, 72
4, 10361, Note_on_c, 1, 52, 0
4, 10361, Note_on_c, 1, 40, 0
4, 10416, Note_on_c, 1, 52, 77
4, 10416, Note_on_c, 1, 40, 77
4, 10436, Note_on_c, 1, 52, 0
4, 10436, Note_on_c, 1, 40, 0
4, 10464, Note_on_c, 1, 52, 79
4, 10464, Note_on_c, 1, 40, 79
4, 10553, Note_on_c, 1, 52, 0
4, 10553, Note_on_c, 1, 40, 0
4, 10608, Note_on_c, 1, 52, 84
4, 10608, Note_on_c, 1, 40, 84
4, 10628, Note_on_c, 1, 52, 0
4, 10628, Note_on_c, 1, 40, 0
4, 10656, Note_on_c, 1, 52, 84
4, 10656, Note_on_c, 1, 40, 84
4, 10745, Note_on_c, 1, 52, 0
4, 10745, Note_on_c, 1, 40, 0
4, 10752, Note_on_c, 1, 47, 84
4, 10752, Note_on_c, 1, 35, 84
4, 10797, Note_on_c, 1, 47, 0
4, 10797, Note_on_c, 1, 35, 0
4, 10848, Note_on_c, 1, 47, 81
4, 10848, Note_on_c, 1, 35, 81
4, 10893, Note_on_c, 1, 47, 0
4, 10893, Note_on_c, 1, 35, 0
4, 10944, Note_on_c, 1, 47, 79
4, 10944, Note_on_c, 1, 35, 79
4, 11033, Note_on_c, 1, 47, 0
4, 11033, Note_on_c, 1, 35, 0
4, 11136, Note_on_c, 1, 47, 75
4, 11136, Note_on_c, 1, 35, 75
4, 11181, Note_on_c, 1, 47, 0
4, 11181, Note_on_c, 1, 35, 0
4, 11232, Note_on_c, 1, 47, 73
4, 11232, Note_on_c, 1, 35, 73
4, 11277, Note_on_c, 1, 47, 0
4, 11277, Note_on_c, 1, 35, 0
4, 11328, Note_on_c, 1, 47, 72
4, 11328, Note_on_c, 1, 35, 72
4, 11417, Note_on_c, 1, 47, 0
4, 11417, Note_on_c, 1, 35, 0
4, 11520, Note_on_c, 1, 47, 69
4, 11520, Note_on_c, 1, 35, 69
4, 11565, Note_on_c, 1, 47, 0
4, 11565, Note_on_c, 1, 35, 0
4, 11616, Note_on_c, 1, 47, 66
4, 11616, Note_on_c, 1, 35, 66
4, 11661, Note_on_c, 1, 47, 0
4, 11661, Note_on_c, 1, 35, 0
4, 11712, Note_on_c, 1, 47, 63
4, 11712, Note_on_c, 1, 35, 63
4, 11801, Note_on_c, 1, 47, 0
4, 11801, Note_on_c, 1, 35, 0
4, 11904, Control_c, 1, 64, 127
4, 11904, Note_on_c, 1, 63, 84
4, 11904, Note_on_c, 1, 51, 84
4, 11993, Note_on_c, 1, 63, 0
4, 11993, Note_on_c, 1, 51, 0
4, 12048, Note_on_c, 1, 63, 84
4, 12048, Note_on_c, 1, 51, 84
4, 12093, Note_on_c, 1, 63, 0
4, 12093, Note_on_c, 1, 51, 0
4, 12096, Control_c, 1, 64, 0
4, 12096, Control_c, 1, 64, 127
4, 12096, Note_on_c, 1, 64, 84
4, 12096, Note_on_c, 1, 52, 84
4, 12185, Note_on_c, 1, 64, 0
4, 12185, Note_on_c, 1, 52, 0
4, 12240, Note_on_c, 1, 64, 84
4, 12240, Note_on_c, 1, 52, 84
4, 12285, Note_on_c, 1, 64, 0
4, 12285, Note_on_c, 1, 52, 0
4, 12288, Control_c, 1, 64, 0
4, 12288, Control_c, 1, 64, 127
4, 12288, Note_on_c, 1, 66, 84
4, 12288, Note_on_c, 1, 54, 84
4, 12377, Note_on_c, 1, 66, 0
4, 12377, Note_on_c, 1, 54, 0
4, 12432, Note_on_c, 1, 66, 84
4, 12432, Note_on_c, 1, 54, 84
4, 12477, Note_on_c, 1, 66, 0
4, 12477, Note_on_c, 1, 54, 0
4, 12480, Control_c, 1, 64, 0
4, 12480, Control_c, 1, 64, 127
4, 12480, Note_on_c, 1, 68, 84
4, 12480, Note_on_c, 1, 56, 84
4, 12569, Note_on_c, 1, 68, 0
4, 12569, Note_on_c, 1, 56, 0
4, 12624, Note_on_c, 1, 68, 84
4, 12624, Note_on_c, 1, 56, 84
4, 12669, Note_on_c, 1, 68, 0
4, 12669, Note_on_c, 1, 56, 0
4, 12672, Control_c, 1, 64, 0
4, 12672, Control_c, 1, 64, 127
4, 12672, Note_on_c, 1, 63, 84
4, 12672, Note_on_c, 1, 51, 84
4, 12761, Note_on_c, 1, 63, 0
4, 12761, Note_on_c, 1, 51, 0
4, 12768, Control_c, 1, 64, 0
4, 12768, Control_c, 1, 64, 127
4, 12768, Note_on_c, 1, 64, 84
4, 12768, Note_on_c, 1, 52, 84
4, 12857, Note_on_c, 1, 64, 0
4, 12857, Note_on_c, 1, 52, 0
4, 12864, Control_c, 1, 64, 0
4, 12864, Control_c, 1, 64, 127
4, 12864, Note_on_c, 1, 63, 84
4, 12864, Note_on_c, 1, 51, 84
4, 12953, Note_on_c, 1, 63, 0
4, 12953, Note_on_c, 1, 51, 0
4, 12960, Control_c, 1, 64, 0
4, 12960, Control_c, 1, 64, 127
4, 12960, Note_on_c, 1, 64, 84
4, 12960, Note_on_c, 1, 52, 84
4, 13049, Note_on_c, 1, 64, 0
4, 13049, Note_on_c, 1, 52, 0
4, 13056, Control_c, 1, 64, 0
4, 13056, Control_c, 1, 64, 127
4, 13056, Note_on_c, 1, 63, 84
4, 13056, Note_on_c, 1, 51, 84
4, 13145, Note_on_c, 1, 63, 0
4, 13145, Note_on_c, 1, 51, 0
4, 13152, Control_c, 1, 64, 0
4, 13152, Control_c, 1, 64, 127
4, 13152, Note_on_c, 1, 64, 84
4, 13152, Note_on_c, 1, 52, 84
4, 13241, Note_on_c, 1, 64, 0
4, 13241, Note_on_c, 1, 52, 0
4, 13248, Control_c, 1, 64, 0
4, 13248, Control_c, 1, 64, 127
4, 13248, Note_on_c, 1, 66, 84
4, 13337, Note_on_c, 1, 66, 0
4, 13344, Note_on_c, 1, 54, 84
4, 13433, Note_on_c, 1, 54, 0
4, 13440, Control_c, 1, 64, 0
4, 13440, Note_on_c, 1, 59, 84
4, 13529, Note_on_c, 1, 59, 0
4, 13968, Note_on_c, 1, 54, 84
4, 13988, Note_on_c, 1, 54, 0
4, 14016, Note_on_c, 1, 59, 84
4, 14064, Note_on_c, 1, 59, 0
4, 14064, Note_on_c, 1, 54, 84
4, 14109, Note_on_c, 1, 54, 0
4, 14112, Note_on_c, 1, 59, 84
4, 14135, Note_on_c, 1, 59, 0
4, 14136, Note_on_c, 1, 54, 84
4, 14159, Note_on_c, 1, 54, 0
4, 14160, Note_on_c, 1, 51, 84
4, 14183, Note_on_c, 1, 51, 0
4, 14184, Note_on_c, 1, 47, 84
4, 14207, Note_on_c, 1, 47, 0
4, 14208, Note_on_c, 1, 54, 84
4, 14297, Note_on_c, 1, 54, 0
4, 14784, Note_on_c, 1, 62, 84
4, 14873, Note_on_c, 1, 62, 0
4, 14880, Note_on_c, 1, 65, 84
4, 14969, Note_on_c, 1, 65, 0
4, 14976, Note_on_c, 1, 66, 84
4, 14976, Note_on_c, 1, 54, 84
4, 15065, Note_on_c, 1, 66, 0
4, 15065, Note_on_c, 1, 54, 0
4, 15168, Note_on_c, 1, 59, 75
4, 15168, Note_on_c, 1, 47, 75
4, 15257, Note_on_c, 1, 59, 0
4, 15257, Note_on_c, 1, 47, 0
4, 15552, Note_on_c, 1, 64, 75
4, 15575, Note_on_c, 1, 64, 0
4, 15576, Note_on_c, 1, 71, 75
4, 15599, Note_on_c, 1, 71, 0
4, 15600, Note_on_c, 1, 68, 75
4, 15623, Note_on_c, 1, 68, 0
4, 15624, Note_on_c, 1, 71, 75
4, 15647, Note_on_c, 1, 71, 0
4, 15648, Note_on_c, 1, 63, 75
4, 15671, Note_on_c, 1, 63, 0
4, 15672, Note_on_c, 1, 71, 75
4, 15695, Note_on_c, 1, 71, 0
4, 15696, Note_on_c, 1, 66, 75
4, 15719, Note_on_c, 1, 66, 0
4, 15720, Note_on_c, 1, 71, 75
4, 15743, Note_on_c, 1, 71, 0
4, 15744, Note_on_c, 1, 64, 75
4, 15767, Note_on_c, 1, 64, 0
4, 15768, Note_on_c, 1, 71, 75
4, 15791, Note_on_c, 1, 71, 0
4, 15792, Note_on_c, 1, 68, 75
4, 15815, Note_on_c, 1, 68, 0
4, 15816, Note_on_c, 1, 71, 75
4, 15839, Note_on_c, 1, 71, 0
4, 15840, Note_on_c, 1, 63, 75
4, 15863, Note_on_c, 1, 63, 0
4, 15864, Note_on_c, 1, 71, 75
4, 15887, Note_on_c, 1, 71, 0
4, 15888, Note_on_c, 1, 66, 75
4, 15911, Note_on_c, 1, 66, 0
4, 15912, Note_on_c, 1, 71, 75
4, 15935, Note_on_c, 1, 71, 0
4, 15936, Note_on_c, 1, 64, 75
4, 16025, Note_on_c, 1, 64, 0
4, 16128, Note_on_c, 1, 59, 75
4, 16128, Note_on_c, 1, 54, 75
4, 16217, Note_on_c, 1, 59, 0
4, 16217, Note_on_c, 1, 54, 0
4, 16224, Note_on_c, 1, 58, 75
4, 16224, Note_on_c, 1, 54, 75
4, 16313, Note_on_c, 1, 58, 0
4, 16313, Note_on_c, 1, 54, 0
4, 16320, Note_on_c, 1, 47, 84
4, 16343, Note_on_c, 1, 47, 0
4, 16344, Note_on_c, 1, 51, 84
4, 16367, Note_on_c, 1, 51, 0
4, 16368, Note_on_c, 1, 54, 84
4, 16391, Note_on_c, 1, 54, 0
4, 16392, Note_on_c, 1, 59, 84
4, 16415, Note_on_c, 1, 59, 0
4, 16416, Note_on_c, 1, 47, 84
4, 16439, Note_on_c, 1, 47, 0
4, 16440, Note_on_c, 1, 51, 84
4, 16463, Note_on_c, 1, 51, 0
4, 16464, Note_on_c, 1, 54, 84
4, 16487, Note_on_c, 1, 54, 0
4, 16488, Note_on_c, 1, 59, 84
4, 16511, Note_on_c, 1, 59, 0
4, 16512, Note_on_c, 1, 47, 84
4, 16601, Note_on_c, 1, 47, 0
4, 16704, Note_on_c, 1, 49, 84
4, 16727, Note_on_c, 1, 49, 0
4, 16728, Note_on_c, 1, 59, 83
4, 16751, Note_on_c, 1, 59, 0
4, 16752, Note_on_c, 1, 56, 83
4, 16775, Note_on_c, 1, 56, 0
4, 16776, Note_on_c, 1, 59, 83
4, 16799, Note_on_c, 1, 59, 0
4, 16800, Note_on_c, 1, 49, 82
4, 16823, Note_on_c, 1, 49, 0
4, 16824, Note_on_c, 1, 59, 82
4, 16847, Note_on_c, 1, 59, 0
4, 16848, Note_on_c, 1, 56, 82
4, 16871, Note_on_c, 1, 56, 0
4, 16872, Note_on_c, 1, 59, 81
4, 16895, Note_on_c, 1, 59, 0
4, 16896, Note_on_c, 1, 49, 81
4, 16919, Note_on_c, 1, 49, 0
4, 16920, Note_on_c, 1, 57, 81
4, 16943, Note_on_c, 1, 57, 0
4, 16944, Note_on_c, 1, 54, 80
4, 16967, Note_on_c, 1, 54, 0
4, 16968, Note_on_c, 1, 57, 80
4, 16991, Note_on_c, 1, 57, 0
4, 16992, Note_on_c, 1, 49, 80
4, 17015, Note_on_c, 1, 49, 0
4, 17016, Note_on_c, 1, 57, 79
4, 17039, Note_on_c, 1, 57, 0
4, 17040, Note_on_c, 1, 54, 79
4, 17063, Note_on_c, 1, 54, 0
4, 17064, Note_on_c, 1, 57, 79
4, 17087, Note_on_c, 1, 57, 0
4, 17088, Note_on_c, 1, 49, 78
4, 17111, Note_on_c, 1, 49, 0
4, 17112, Note_on_c, 1, 56, 78
4, 17135, Note_on_c, 1, 56, 0
4, 17136, Note_on_c, 1, 53, 78
4, 17159, Note_on_c, 1, 53, 0
4, 17160, Note_on_c, 1, 56, 77
4, 17183, Note_on_c, 1, 56, 0
4, 17184, Note_on_c, 1, 49, 77
4, 17207, Note_on_c, 1, 49, 0
4, 17208, Note_on_c, 1, 56, 77
4, 17231, Note_on_c, 1, 56, 0
4, 17232, Note_on_c, 1, 53, 76
4, 17255, Note_on_c, 1, 53, 0
4, 17256, Note_on_c, 1, 56, 76
4, 17279, Note_on_c, 1, 56, 0
4, 17280, Note_on_c, 1, 49, 76
4, 17303, Note_on_c, 1, 49, 0
4, 17304, Note_on_c, 1, 57, 75
4, 17327, Note_on_c, 1, 57, 0
4, 17328, Note_on_c, 1, 54, 75
4, 17351, Note_on_c, 1, 54, 0
4, 17352, Note_on_c, 1, 57, 75
4, 17375, Note_on_c, 1, 57, 0
4, 17376, Note_on_c, 1, 49, 75
4, 17399, Note_on_c, 1, 49, 0
4, 17400, Note_on_c, 1, 57, 75
4, 17423, Note_on_c, 1, 57, 0
4, 17424, Note_on_c, 1, 54, 75
4, 17447, Note_on_c, 1, 54, 0
4, 17448, Note_on_c, 1, 57, 75
4, 17471, Note_on_c, 1, 57, 0
4, 17472, Note_on_c, 1, 47, 84
4, 17495, Note_on_c, 1, 47, 0
4, 17496, Note_on_c, 1, 57, 83
4, 17519, Note_on_c, 1, 57, 0
4, 17520, Note_on_c, 1, 54, 83
4, 17543, Note_on_c, 1, 54, 0
4, 17544, Note_on_c, 1, 57, 83
4, 17567, Note_on_c, 1, 57, 0
4, 17568, Note_on_c, 1, 47, 82
4, 17591, Note_on_c, 1, 47, 0
4, 17592, Note_on_c, 1, 57, 82
4, 17615, Note_on_c, 1, 57, 0
4, 17616, Note_on_c, 1, 54, 82
4, 17639, Note_on_c, 1, 54, 0
4, 17640, Note_on_c, 1, 57, 81
4, 17663, Note_on_c, 1, 57, 0
4, 17664, Note_on_c, 1, 47, 81
4, 17687, Note_on_c, 1, 47, 0
4, 17688, Note_on_c, 1, 56, 81
4, 17711, Note_on_c, 1, 56, 0
4, 17712, Note_on_c, 1, 52, 80
4, 17735, Note_on_c, 1, 52, 0
4, 17736, Note_on_c, 1, 56, 80
4, 17759, Note_on_c, 1, 56, 0
4, 17760, Note_on_c, 1, 47, 80
4, 17783, Note_on_c, 1, 47, 0
4, 17784, Note_on_c, 1, 56, 79
4, 17807, Note_on_c, 1, 56, 0
4, 17808, Note_on_c, 1, 52, 79
4, 17831, Note_on_c, 1, 52, 0
4, 17832, Note_on_c, 1, 56, 79
4, 17855, Note_on_c, 1, 56, 0
4, 17856, Note_on_c, 1, 47, 78
4, 17879, Note_on_c, 1, 47, 0
4, 17880, Note_on_c, 1, 54, 78
4, 17903, Note_on_c, 1, 54, 0
4, 17904, Note_on_c, 1, 51, 78
4, 17927, Note_on_c, 1, 51, 0
4, 17928, Note_on_c, 1, 54, 77
4, 17951, Note_on_c, 1, 54, 0
4, 17952, Note_on_c, 1, 47, 77
4, 17975, Note_on_c, 1, 47, 0
4, 17976, Note_on_c, 1, 54, 77
4, 17999, Note_on_c, 1, 54, 0
4, 18000, Note_on_c, 1, 51, 76
4, 18023, Note_on_c, 1, 51, 0
4, 18024, Note_on_c, 1, 54, 76
4, 18047, Note_on_c, 1, 54, 0
4, 18048, Note_on_c, 1, 47, 76
4, 18071, Note_on_c, 1, 47, 0
4, 18072, Note_on_c, 1, 56, 75
4, 18095, Note_on_c, 1, 56, 0
4, 18096, Note_on_c, 1, 52, 75
4, 18119, Note_on_c, 1, 52, 0
4, 18120, Note_on_c, 1, 56, 75
4, 18143, Note_on_c, 1, 56, 0
4, 18144, Note_on_c, 1, 47, 75
4, 18167, Note_on_c, 1, 47, 0
4, 18168, Note_on_c, 1, 56, 75
4, 18191, Note_on_c, 1, 56, 0
4, 18192, Note_on_c, 1, 52, 75
4, 18215, Note_on_c, 1, 52, 0
4, 18216, Note_on_c, 1, 56, 75
4, 18239, Note_on_c, 1, 56, 0
4, 18240, Note_on_c, 1, 44, 75
4, 18263, Note_on_c, 1, 44, 0
4, 18264, Note_on_c, 1, 52, 75
4, 18287, Note_on_c, 1, 52, 0
4, 18288, Note_on_c, 1, 47, 76
4, 18311, Note_on_c, 1, 47, 0
4, 18312, Note_on_c, 1, 52, 76
4, 18335, Note_on_c, 1, 52, 0
4, 18336, Note_on_c, 1, 44, 77
4, 18359, Note_on_c, 1, 44, 0
4, 18360, Note_on_c, 1, 52, 78
4, 18383, Note_on_c, 1, 52, 0
4, 18384, Note_on_c, 1, 47, 78
4, 18407, Note_on_c, 1, 47, 0
4, 18408, Note_on_c, 1, 52, 79
4, 18431, Note_on_c, 1, 52, 0
4, 18432, Note_on_c, 1, 45, 79
4, 18455, Note_on_c, 1, 45, 0
4, 18456, Note_on_c, 1, 52, 80
4, 18479, Note_on_c, 1, 52, 0
4, 18480, Note_on_c, 1, 49, 81
4, 18503, Note_on_c, 1, 49, 0
4, 18504, Note_on_c, 1, 52, 81
4, 18527, Note_on_c, 1, 52, 0
4, 18528, Note_on_c, 1, 45, 82
4, 18551, Note_on_c, 1, 45, 0
4, 18552, Note_on_c, 1, 52, 82
4, 18575, Note_on_c, 1, 52, 0
4, 18576, Note_on_c, 1, 49, 83
4, 18599, Note_on_c, 1, 49, 0
4, 18600, Note_on_c, 1, 52, 84
4, 18623, Note_on_c, 1, 52, 0
4, 18624, Note_on_c, 1, 46, 84
4, 18647, Note_on_c, 1, 46, 0
4, 18648, Note_on_c, 1, 54, 84
4, 18671, Note_on_c, 1, 54, 0
4, 18672, Note_on_c, 1, 49, 84
4, 18695, Note_on_c, 1, 49, 0
4, 18696, Note_on_c, 1, 54, 84
4, 18719, Note_on_c, 1, 54, 0
4, 18720, Note_on_c, 1, 46, 84
4, 18743, Note_on_c, 1, 46, 0
4, 18744, Note_on_c, 1, 54, 84
4, 18767, Note_on_c, 1, 54, 0
4, 18768, Note_on_c, 1, 49, 84
4, 18791, Note_on_c, 1, 49, 0
4, 18792, Control_c, 1, 64, 0
4, 18792, Note_on_c, 1, 54, 84
4, 18815, Note_on_c, 1, 54, 0
4, 18816, Control_c, 1, 64, 127
4, 18816, Note_on_c, 1, 47, 84
4, 18905, Note_on_c, 1, 47, 0
4, 19008, Control_c, 1, 64, 0
4, 19008, Control_c, 1, 64, 127
4, 19008, Note_on_c, 1, 63, 84
4, 19008, Note_on_c, 1, 51, 84
4, 19097, Note_on_c, 1, 63, 0
4, 19097, Note_on_c, 1, 51, 0
4, 19104, Control_c, 1, 64, 0
4, 19104, Control_c, 1, 64, 127
4, 19104, Note_on_c, 1, 64, 84
4, 19104, Note_on_c, 1, 52, 84
4, 19193, Note_on_c, 1, 64, 0
4, 19193, Note_on_c, 1, 52, 0
4, 19200, Control_c, 1, 64, 0
4, 19200, Control_c, 1, 64, 127
4, 19200, Note_on_c, 1, 59, 84
4, 19200, Note_on_c, 1, 47, 84
4, 19289, Note_on_c, 1, 59, 0
4, 19289, Note_on_c, 1, 47, 0
4, 19392, Control_c, 1, 64, 0
4, 19392, Control_c, 1, 64, 127
4, 19392, Note_on_c, 1, 63, 84
4, 19392, Note_on_c, 1, 51, 84
4, 19481, Note_on_c, 1, 63, 0
4, 19481, Note_on_c, 1, 51, 0
4, 19488, Control_c, 1, 64, 0
4, 19488, Control_c, 1, 64, 127
4, 19488, Note_on_c, 1, 64, 84
4, 19488, Note_on_c, 1, 52, 84
4, 19577, Note_on_c, 1, 64, 0
4, 19577, Note_on_c, 1, 52, 0
4, 19584, Control_c, 1, 64, 0
4, 19584, Note_on_c, 1, 59, 84
4, 19584, Note_on_c, 1, 47, 84
4, 19673, Note_on_c, 1, 59, 0
4, 19673, Note_on_c, 1, 47, 0
4, 19824, Note_on_c, 1, 52, 75
4, 19824, Note_on_c, 1, 40, 75
4, 19844, Note_on_c, 1, 52, 0
4, 19844, Note_on_c, 1, 40, 0
4, 19872, Note_on_c, 1, 52, 76
4, 19872, Note_on_c, 1, 40, 76
4, 19961, Note_on_c, 1, 52, 0
4, 19961, Note_on_c, 1, 40, 0
4, 20016, Note_on_c, 1, 52, 78
4, 20016, Note_on_c, 1, 40, 78
4, 20036, Note_on_c, 1, 52, 0
4, 20036, Note_on_c, 1, 40, 0
4, 20064, Note_on_c, 1, 52, 78
4, 20064, Note_on_c, 1, 40, 78
4, 20153, Note_on_c, 1, 52, 0
4, 20153, Note_on_c, 1, 40, 0
4, 20208, Note_on_c, 1, 52, 80
4, 20208, Note_on_c, 1, 40, 80
4, 20228, Note_on_c, 1, 52, 0
4, 20228, Note_on_c, 1, 40, 0
4, 20256, Note_on_c, 1, 52, 81
4, 20256, Note_on_c, 1, 40, 81
4, 20345, Note_on_c, 1, 52, 0
4, 20345, Note_on_c, 1, 40, 0
4, 20400, Note_on_c, 1, 52, 83
4, 20400, Note_on_c, 1, 40, 83
4, 20445, Note_on_c, 1, 52, 0
4, 20445, Note_on_c, 1, 40, 0
4, 20448, Note_on_c, 1, 52, 84
4, 20448, Note_on_c, 1, 40, 84
4, 20537, Note_on_c, 1, 52, 0
4, 20537, Note_on_c, 1, 40, 0
4, 20544, Note_on_c, 1, 47, 82
4, 20544, Note_on_c, 1, 35, 82
4, 20633, Note_on_c, 1, 47, 0
4, 20633, Note_on_c, 1, 35, 0
4, 20640, Note_on_c, 1, 47, 81
4, 20640, Note_on_c, 1, 35, 81
4, 20729, Note_on_c, 1, 47, 0
4, 20729, Note_on_c, 1, 35, 0
4, 20736, Note_on_c, 1, 52, 80
4, 20736, Note_on_c, 1, 40, 80
4, 20825, Note_on_c, 1, 52, 0
4, 20825, Note_on_c, 1, 40, 0
4, 20832, Note_on_c, 1, 52, 78
4, 20832, Note_on_c, 1, 40, 78
4, 20921, Note_on_c, 1, 52, 0
4, 20921, Note_on_c, 1, 40, 0
4, 20928, Note_on_c, 1, 47, 77
4, 20928, Note_on_c, 1, 35, 77
4, 21017, Note_on_c, 1, 47, 0
4, 21017, Note_on_c, 1, 35, 0
4, 21024, Note_on_c, 1, 47, 76
4, 21024, Note_on_c, 1, 35, 76
4, 21113, Note_on_c, 1, 47, 0
4, 21113, Note_on_c, 1, 35, 0
4, 21120, Note_on_c, 1, 52, 75
4, 21120, Note_on_c, 1, 40, 75
4, 21209, Note_on_c, 1, 52, 0
4, 21209, Note_on_c, 1, 40, 0
4, 21360, Note_on_c, 1, 52, 69
4, 21360, Note_on_c, 1, 40, 69
4, 21380, Note_on_c, 1, 52, 0
4, 21380, Note_on_c, 1, 40, 0
4, 21408, Note_on_c, 1, 52, 69
4, 21408, Note_on_c, 1, 40, 69
4, 21497, Note_on_c, 1, 52, 0
4, 21497, Note_on_c, 1, 40, 0
4, 21552, Note_on_c, 1, 47, 69
4, 21552, Note_on_c, 1, 35, 69
4, 21572, Note_on_c, 1, 47, 0
4, 21572, Note_on_c, 1, 35, 0
4, 21600, Note_on_c, 1, 47, 70
4, 21600, Note_on_c, 1, 35, 70
4, 21689, Note_on_c, 1, 47, 0
4, 21689, Note_on_c, 1, 35, 0
4, 21744, Note_on_c, 1, 47, 73
4, 21744, Note_on_c, 1, 35, 73
4, 21764, Note_on_c, 1, 47, 0
4, 21764, Note_on_c, 1, 35, 0
4, 21792, Note_on_c, 1, 47, 74
4, 21792, Note_on_c, 1, 35, 74
4, 21881, Note_on_c, 1, 47, 0
4, 21881, Note_on_c, 1, 35, 0
4, 21936, Note_on_c, 1, 52, 76
4, 21936, Note_on_c, 1, 40, 76
4, 21956, Note_on_c, 1, 52, 0
4, 21956, Note_on_c, 1, 40, 0
4, 21984, Note_on_c, 1, 52, 77
4, 21984, Note_on_c, 1, 40, 77
4, 22073, Note_on_c, 1, 52, 0
4, 22073, Note_on_c, 1, 40, 0
4, 22128, Note_on_c, 1, 52, 80
4, 22128, Note_on_c, 1, 40, 80
4, 22148, Note_on_c, 1, 52, 0
4, 22148, Note_on_c, 1, 40, 0
4, 22176, Note_on_c, 1, 52, 81
4, 22176, Note_on_c, 1, 40, 81
4, 22265, Note_on_c, 1, 52, 0
4, 22265, Note_on_c, 1, 40, 0
4, 22320, Note_on_c, 1, 52, 84
4, 22320, Note_on_c, 1, 40, 84
4, 22340, Note_on_c, 1, 52, 0
4, 22340, Note_on_c, 1, 40, 0
4, 22368, Note_on_c, 1, 52, 84
4, 22368, Note_on_c, 1, 40, 84
4, 22457, Note_on_c, 1, 52, 0
4, 22457, Note_on_c, 1, 40, 0
4, 22464, Note_on_c, 1, 47, 84
4, 22464, Note_on_c, 1, 35, 84
4, 22509, Note_on_c, 1, 47, 0
4, 22509, Note_on_c, 1, 35, 0
4, 22560, Note_on_c, 1, 47, 81
4, 22560, Note_on_c, 1, 35, 81
4, 22605, Note_on_c, 1, 47, 0
4, 22605, Note_on_c, 1, 35, 0
4, 22656, Note_on_c, 1, 47, 78
4, 22656, Note_on_c, 1, 35, 78
4, 22745, Note_on_c, 1, 47, 0
4, 22745, Note_on_c, 1, 35, 0
4, 22848, Note_on_c, 1, 47, 75
4, 22848, Note_on_c, 1, 35, 75
4, 22893, Note_on_c, 1, 47, 0
4, 22893, Note_on_c, 1, 35, 0
4, 22944, Note_on_c, 1, 47, 73
4, 22944, Note_on_c, 1, 35, 73
4, 22989, Note_on_c, 1, 47, 0
4, 22989, Note_on_c, 1, 35, 0
4, 23040, Note_on_c, 1, 47, 71
4, 23040, Note_on_c, 1, 35, 71
4, 23129, Note_on_c, 1, 47, 0
4, 23129, Note_on_c, 1, 35, 0
4, 23232, Note_on_c, 1, 47, 69
4, 23232, Note_on_c, 1, 35, 69
4, 23277, Note_on_c, 1, 47, 0
4, 23277, Note_on_c, 1, 35, 0
4, 23328, Note_on_c, 1, 47, 66
4, 23328, Note_on_c, 1, 35, 66
4, 23373, Note_on_c, 1, 47, 0
4, 23373, Note_on_c, 1, 35, 0
4, 23424, Note_on_c, 1, 47, 63
4, 23424, Note_on_c, 1, 35, 63
4, 23513, Note_on_c, 1, 47, 0
4, 23513, Note_on_c, 1, 35, 0
4, 23616, Control_c, 1, 64, 127
4, 23616, Note_on_c, 1, 56, 84
4, 23616, Note_on_c, 1, 44, 84
4, 23705, Note_on_c, 1, 56, 0
4, 23705, Note_on_c, 1, 44, 0
4, 23760, Note_on_c, 1, 56, 84
4, 23760, Note_on_c, 1, 44, 84
4, 23805, Note_on_c, 1, 56, 0
4, 23805, Note_on_c, 1, 44, 0
4, 23808, Control_c, 1, 64, 0
4, 23808, Control_c, 1, 64, 127
4, 23808, Note_on_c, 1, 57, 84
4, 23808, Note_on_c, 1, 45, 84
4, 23897, Note_on_c, 1, 57, 0
4, 23897, Note_on_c, 1, 45, 0
4, 23952, Note_on_c, 1, 57, 84
4, 23952, Note_on_c, 1, 45, 84
4, 23997, Note_on_c, 1, 57, 0
4, 23997, Note_on_c, 1, 45, 0
4, 24000, Control_c, 1, 64, 0
4, 24000, Control_c, 1, 64, 127
4, 24000, Note_on_c, 1, 59, 84
4, 24000, Note_on_c, 1, 47, 84
4, 24089, Note_on_c, 1, 59, 0
4, 24089, Note_on_c, 1, 47, 0
4, 24144, Note_on_c, 1, 59, 84
4, 24144, Note_on_c, 1, 47, 84
4, 24189, Note_on_c, 1, 59, 0
4, 24189, Note_on_c, 1, 47, 0
4, 24192, Control_c, 1, 64, 0
4, 24192, Control_c, 1, 64, 127
4, 24192, Note_on_c, 1, 61, 84
4, 24192, Note_on_c, 1, 49, 84
4, 24281, Note_on_c, 1, 61, 0
4, 24281, Note_on_c, 1, 49, 0
4, 24336, Note_on_c, 1, 61, 84
4, 24336, Note_on_c, 1, 49, 84
4, 24381, Note_on_c, 1, 61, 0
4, 24381, Note_on_c, 1, 49, 0
4, 24384, Control_c, 1, 64, 0
4, 24384, Control_c, 1, 64, 127
4, 24384, Note_on_c, 1, 56, 84
4, 24384, Note_on_c, 1, 44, 84
4, 24473, Note_on_c, 1, 56, 0
4, 24473, Note_on_c, 1, 44, 0
4, 24480, Control_c, 1, 64, 0
4, 24480, Control_c, 1, 64, 127
4, 24480, Note_on_c, 1, 57, 84
4, 24480, Note_on_c, 1, 45, 84
4, 24569, Note_on_c, 1, 57, 0
4, 24569, Note_on_c, 1, 45, 0
4, 24576, Control_c, 1, 64, 0
4, 24576, Control_c, 1, 64, 127
4, 24576, Note_on_c, 1, 56, 84
4, 24576, Note_on_c, 1, 44, 84
4, 24665, Note_on_c, 1, 56, 0
4, 24665, Note_on_c, 1, 44, 0
4, 24672, Control_c, 1, 64, 0
4, 24672, Control_c, 1, 64, 127
4, 24672, Note_on_c, 1, 57, 84
4, 24672, Note_on_c, 1, 45, 84
4, 24761, Note_on_c, 1, 57, 0
4, 24761, Note_on_c, 1, 45, 0
4, 24768, Control_c, 1, 64, 0
4, 24768, Control_c, 1, 64, 127
4, 24768, Note_on_c, 1, 56, 84
4, 24768, Note_on_c, 1, 44, 84
4, 24857, Note_on_c, 1, 56, 0
4, 24857, Note_on_c, 1, 44, 0
4, 24864, Control_c, 1, 64, 0
4, 24864, Control_c, 1, 64, 127
4, 24864, Note_on_c, 1, 57, 84
4, 24864, Note_on_c, 1, 45, 84
4, 24953, Note_on_c, 1, 57, 0
4, 24953, Note_on_c, 1, 45, 0
4, 24960, Control_c, 1, 64, 0
4, 24960, Control_c, 1, 64, 127
4, 24960, Note_on_c, 1, 59, 84
4, 25049, Note_on_c, 1, 59, 0
4, 25056, Note_on_c, 1, 47, 84
4, 25145, Note_on_c, 1, 47, 0
4, 25152, Control_c, 1, 64, 0
4, 25152, Note_on_c, 1, 52, 84
4, 25241, Note_on_c, 1, 52, 0
4, 25680, Note_on_c, 1, 59, 84
4, 25700, Note_on_c, 1, 59, 0
4, 25728, Note_on_c, 1, 64, 84
4, 25773, Note_on_c, 1, 64, 0
4, 25776, Note_on_c, 1, 59, 84
4, 25821, Note_on_c, 1, 59, 0
4, 25824, Note_on_c, 1, 64, 84
4, 25847, Note_on_c, 1, 64, 0
4, 25848, Note_on_c, 1, 59, 84
4, 25871, Note_on_c, 1, 59, 0
4, 25872, Note_on_c, 1, 56, 84
4, 25895, Note_on_c, 1, 56, 0
4, 25896, Note_on_c, 1, 52, 84
4, 25919, Note_on_c, 1, 52, 0
4, 25920, Note_on_c, 1, 59, 84
4, 26009, Note_on_c, 1, 59, 0
4, 26496, Note_on_c, 1, 55, 84
4, 26585, Note_on_c, 1, 55, 0
4, 26592, Note_on_c, 1, 58, 84
4, 26681, Note_on_c, 1, 58, 0
4, 26688, Note_on_c, 1, 59, 84
4, 26688, Note_on_c, 1, 47, 84
4, 26777, Note_on_c, 1, 59, 0
4, 26777, Note_on_c, 1, 47, 0
4, 26880, Note_on_c, 1, 52, 75
4, 26880, Note_on_c, 1, 40, 75
4, 26969, Note_on_c, 1, 52, 0
4, 26969, Note_on_c, 1, 40, 0
4, 27264, Note_on_c, 1, 57, 75
4, 27287, Note_on_c, 1, 57, 0
4, 27288, Note_on_c, 1, 64, 75
4, 27311, Note_on_c, 1, 64, 0
4, 27312, Note_on_c, 1, 61, 75
4, 27335, Note_on_c, 1, 61, 0
4, 27336, Note_on_c, 1, 64, 75
4, 27359, Note_on_c, 1, 64, 0
4, 27360, Note_on_c, 1, 56, 75
4, 27383, Note_on_c, 1, 56, 0
4, 27384, Note_on_c, 1, 64, 75
4, 27407, Note_on_c, 1, 64, 0
4, 27408, Note_on_c, 1, 59, 75
4, 27431, Note_on_c, 1, 59, 0
4, 27432, Note_on_c, 1, 64, 75
4, 27455, Note_on_c, 1, 64, 0
4, 27456, Note_on_c, 1, 57, 75
4, 27479, Note_on_c, 1, 57, 0
4, 27480, Note_on_c, 1, 64, 75
4, 27503, Note_on_c, 1, 64, 0
4, 27504, Note_on_c, 1, 61, 75
4, 27527, Note_on_c, 1, 61, 0
4, 27528, Note_on_c, 1, 64, 75
4, 27551, Note_on_c, 1, 64, 0
4, 27552, Note_on_c, 1, 56, 75
4, 27575, Note_on_c, 1, 56, 0
4, 27576, Note_on_c, 1, 64, 75
4, 27599, Note_on_c, 1, 64, 0
4, 27600, Note_on_c, 1, 59, 75
4, 27623, Note_on_c, 1, 59, 0
4, 27624, Note_on_c, 1, 64, 75
4, 27647, Note_on_c, 1, 64, 0
4, 27648, Note_on_c, 1, 57, 75
4, 27737, Note_on_c, 1, 57, 0
4, 27840, Note_on_c, 1, 52, 75
4, 27840, Note_on_c, 1, 47, 75
4, 27929, Note_on_c, 1, 52, 0
4, 27929, Note_on_c, 1, 47, 0
4, 27936, Note_on_c, 1, 51, 75
4, 27936, Note_on_c, 1, 47, 75
4, 28025, Note_on_c, 1, 51, 0
4, 28025, Note_on_c, 1, 47, 0
4, 28032, Note_on_c, 1, 52, 75
4, 28077, Note_on_c, 1, 52, 0
4, 28080, Note_on_c, 1, 47, 75
4, 28125, Note_on_c, 1, 47, 0
4, 28128, Note_on_c, 1, 40, 75
4, 28217, Note_on_c, 1, 40, 0
4, 28272, Note_on_c, 1, 52, 75
4, 28272, Note_on_c, 1, 40, 75
4, 28292, Note_on_c, 1, 52, 0
4, 28292, Note_on_c, 1, 40, 0
4, 28320, Note_on_c, 1, 52, 76
4, 28320, Note_on_c, 1, 40, 76
4, 28409, Note_on_c, 1, 52, 0
4, 28409, Note_on_c, 1, 40, 0
4, 28464, Note_on_c, 1, 52, 78
4, 28464, Note_on_c, 1, 40, 78
4, 28484, Note_on_c, 1, 52, 0
4, 28484, Note_on_c, 1, 40, 0
4, 28512, Note_on_c, 1, 52, 79
4, 28512, Note_on_c, 1, 40, 79
4, 28601, Note_on_c, 1, 52, 0
4, 28601, Note_on_c, 1, 40, 0
4, 28656, Note_on_c, 1, 52, 81
4, 28656, Note_on_c, 1, 40, 81
4, 28701, Note_on_c, 1, 52, 0
4, 28701, Note_on_c, 1, 40, 0
4, 28704, Note_on_c, 1, 52, 82
4, 28704, Note_on_c, 1, 40, 82
4, 28793, Note_on_c, 1, 52, 0
4, 28793, Note_on_c, 1, 40, 0
4, 28992, Note_on_c, 1, 49, 84
4, 29015, Note_on_c, 1, 49, 0
4, 29016, Note_on_c, 1, 59, 83
4, 29039, Note_on_c, 1, 59, 0
4, 29040, Note_on_c, 1, 56, 83
4, 29063, Note_on_c, 1, 56, 0
4, 29064, Note_on_c, 1, 59, 83
4, 29087, Note_on_c, 1, 59, 0
4, 29088, Note_on_c, 1, 49, 82
4, 29111, Note_on_c, 1, 49, 0
4, 29112, Note_on_c, 1, 59, 82
4, 29135, Note_on_c, 1, 59, 0
4, 29136, Note_on_c, 1, 56, 82
4, 29159, Note_on_c, 1, 56, 0
4, 29160, Note_on_c, 1, 59, 81
4, 29183, Note_on_c, 1, 59, 0
4, 29184, Note_on_c, 1, 49, 81
4, 29207, Note_on_c, 1, 49, 0
4, 29208, Note_on_c, 1, 57, 81
4, 29231, Note_on_c, 1, 57, 0
4, 29232, Note_on_c, 1, 54, 80
4, 29255, Note_on_c, 1, 54, 0
4, 29256, Note_on_c, 1, 57, 80
4, 29279, Note_on_c, 1, 57, 0
4, 29280, Note_on_c, 1, 49, 80
4, 29303, Note_on_c, 1, 49, 0
4, 29304, Note_on_c, 1, 57, 79
4, 29327, Note_on_c, 1, 57, 0
4, 29328, Note_on_c, 1, 54, 79
4, 29351, Note_on_c, 1, 54, 0
4, 29352, Note_on_c, 1, 57, 79
4, 29375, Note_on_c, 1, 57, 0
4, 29376, Note_on_c, 1, 49, 78
4, 29399, Note_on_c, 1, 49, 0
4, 29400, Note_on_c, 1, 56, 78
4, 29423, Note_on_c, 1, 56, 0
4, 29424, Note_on_c, 1, 53, 78
4, 29447, Note_on_c, 1, 53, 0
4, 29448, Note_on_c, 1, 56, 77
4, 29471, Note_on_c, 1, 56, 0
4, 29472, Note_on_c, 1, 49, 77
4, 29495, Note_on_c, 1, 49, 0
4, 29496, Note_on_c, 1, 56, 77
4, 29519, Note_on_c, 1, 56, 0
4, 29520, Note_on_c, 1, 53, 76
4, 29543, Note_on_c, 1, 53, 0
4, 29544, Note_on_c, 1, 56, 76
4, 29567, Note_on_c, 1, 56, 0
4, 29568, Note_on_c, 1, 49, 76
4, 29591, Note_on_c, 1, 49, 0
4, 29592, Note_on_c, 1, 57, 75
4, 29615, Note_on_c, 1, 57, 0
4, 29616, Note_on_c, 1, 54, 75
4, 29639, Note_on_c, 1, 54, 0
4, 29640, Note_on_c, 1, 57, 75
4, 29663, Note_on_c, 1, 57, 0
4, 29664, Note_on_c, 1, 49, 75
4, 29687, Note_on_c, 1, 49, 0
4, 29688, Note_on_c, 1, 57, 75
4, 29711, Note_on_c, 1, 57, 0
4, 29712, Note_on_c, 1, 54, 75
4, 29735, Note_on_c, 1, 54, 0
4, 29736, Note_on_c, 1, 57, 75
4, 29759, Note_on_c, 1, 57, 0
4, 29760, Note_on_c, 1, 47, 84
4, 29783, Note_on_c, 1, 47, 0
4, 29784, Note_on_c, 1, 57, 83
4, 29807, Note_on_c, 1, 57, 0
4, 29808, Note_on_c, 1, 54, 83
4, 29831, Note_on_c, 1, 54, 0
4, 29832, Note_on_c, 1, 57, 83
4, 29855, Note_on_c, 1, 57, 0
4, 29856, Note_on_c, 1, 47, 82
4, 29879, Note_on_c, 1, 47, 0
4, 29880, Note_on_c, 1, 57, 82
4, 29903, Note_on_c, 1, 57, 0
4, 29904, Note_on_c, 1, 54, 82
4, 29927, Note_on_c, 1, 54, 0
4, 29928, Note_on_c, 1, 57, 81
4, 29951, Note_on_c, 1, 57, 0
4, 29952, Note_on_c, 1, 47, 81
4, 29975, Note_on_c, 1, 47, 0
4, 29976, Note_on_c, 1, 56, 81
4, 29999, Note_on_c, 1, 56, 0
4, 30000, Note_on_c, 1, 52, 80
4, 30023, Note_on_c, 1, 52, 0
4, 30024, Note_on_c, 1, 56, 80
4, 30047, Note_on_c, 1, 56, 0
4, 30048, Note_on_c, 1, 47, 80
4, 30071, Note_on_c, 1, 47, 0
4, 30072, Note_on_c, 1, 56, 79
4, 30095, Note_on_c, 1, 56, 0
4, 30096, Note_on_c, 1, 52, 79
4, 30119, Note_on_c, 1, 52, 0
4, 30120, Note_on_c, 1, 56, 79
4, 30143, Note_on_c, 1, 56, 0
4, 30144, Note_on_c, 1, 47, 78
4, 30167, Note_on_c, 1, 47, 0
4, 30168, Note_on_c, 1, 54, 78
4, 30191, Note_on_c, 1, 54, 0
4, 30192, Note_on_c, 1, 51, 78
4, 30215, Note_on_c, 1, 51, 0
4, 30216, Note_on_c, 1, 54, 77
4, 30239, Note_on_c, 1, 54, 0
4, 30240, Note_on_c, 1, 47, 77
4, 30263, Note_on_c, 1, 47, 0
4, 30264, Note_on_c, 1, 54, 77
4, 30287, Note_on_c, 1, 54, 0
4, 30288, Note_on_c, 1, 51, 76
4, 30311, Note_on_c, 1, 51, 0
4, 30312, Note_on_c, 1, 54, 76
4, 30335, Note_on_c, 1, 54, 0
4, 30336, Note_on_c, 1, 47, 76
4, 30359, Note_on_c, 1, 47, 0
4, 30360, Note_on_c, 1, 56, 75
4, 30383, Note_on_c, 1, 56, 0
4, 30384, Note_on_c, 1, 52, 75
4, 30407, Note_on_c, 1, 52, 0
4, 30408, Note_on_c, 1, 56, 75
4, 30431, Note_on_c, 1, 56, 0
4, 30432, Note_on_c, 1, 47, 75
4, 30455, Note_on_c, 1, 47, 0
4, 30456, Note_on_c, 1, 56, 75
4, 30479, Note_on_c, 1, 56, 0
4, 30480, Note_on_c, 1, 52, 75
4, 30503, Note_on_c, 1, 52, 0
4, 30504, Note_on_c, 1, 56, 75
4, 30527, Note_on_c, 1, 56, 0
4, 30528, Note_on_c, 1, 44, 75
4, 30551, Note_on_c, 1, 44, 0
4, 30552, Note_on_c, 1, 52, 75
4, 30575, Note_on_c, 1, 52, 0
4, 30576, Note_on_c, 1, 47, 76
4, 30599, Note_on_c, 1, 47, 0
4, 30600, Note_on_c, 1, 52, 76
4, 30623, Note_on_c, 1, 52, 0
4, 30624, Note_on_c, 1, 44, 77
4, 30647, Note_on_c, 1, 44, 0
4, 30648, Note_on_c, 1, 52, 78
4, 30671, Note_on_c, 1, 52, 0
4, 30672, Note_on_c, 1, 47, 78
4, 30695, Note_on_c, 1, 47, 0
4, 30696, Note_on_c, 1, 52, 79
4, 30719, Note_on_c, 1, 52, 0
4, 30720, Note_on_c, 1, 45, 79
4, 30743, Note_on_c, 1, 45, 0
4, 30744, Note_on_c, 1, 52, 80
4, 30767, Note_on_c, 1, 52, 0
4, 30768, Note_on_c, 1, 49, 81
4, 30791, Note_on_c, 1, 49, 0
4, 30792, Note_on_c, 1, 52, 81
4, 30815, Note_on_c, 1, 52, 0
4, 30816, Note_on_c, 1, 45, 82
4, 30839, Note_on_c, 1, 45, 0
4, 30840, Note_on_c, 1, 52, 82
4, 30863, Note_on_c, 1, 52, 0
4, 30864, Note_on_c, 1, 49, 83
4, 30887, Note_on_c, 1, 49, 0
4, 30888, Note_on_c, 1, 52, 84
4, 30911, Note_on_c, 1, 52, 0
4, 30912, Note_on_c, 1, 46, 84
4, 30935, Note_on_c, 1, 46, 0
4, 30936, Note_on_c, 1, 54, 84
4, 30959, Note_on_c, 1, 54, 0
4, 30960, Note_on_c, 1, 49, 84
4, 30983, Note_on_c, 1, 49, 0
4, 30984, Note_on_c, 1, 54, 84
4, 31007, Note_on_c, 1, 54, 0
4, 31008, Note_on_c, 1, 46, 84
4, 31031, Note_on_c, 1, 46, 0
4, 31032, Note_on_c, 1, 54, 84
4, 31055, Note_on_c, 1, 54, 0
4, 31056, Note_on_c, 1, 49, 84
4, 31079, Note_on_c, 1, 49, 0
4, 31080, Control_c, 1, 64, 0
4, 31080, Note_on_c, 1, 54, 84
4, 31103, Note_on_c, 1, 54, 0
4, 31104, Control_c, 1, 64, 127
4, 31104, Note_on_c, 1, 47, 84
4, 31193, Note_on_c, 1, 47, 0
4, 31296, Control_c, 1, 64, 0
4, 31296, Control_c, 1, 64, 127
4, 31296, Note_on_c, 1, 63, 84
4, 31296, Note_on_c, 1, 51, 84
4, 31385, Note_on_c, 1, 63, 0
4, 31385, Note_on_c, 1, 51, 0
4, 31392, Control_c, 1, 64, 0
4, 31392, Control_c, 1, 64, 127
4, 31392, Note_on_c, 1, 64, 84
4, 31392, Note_on_c, 1, 52, 84
4, 31481, Note_on_c, 1, 64, 0
4, 31481, Note_on_c, 1, 52, 0
4, 31488, Control_c, 1, 64, 0
4, 31488, Control_c, 1, 64, 127
4, 31488, Note_on_c, 1, 59, 84
4, 31488, Note_on_c, 1, 47, 84
4, 31577, Note_on_c, 1, 59, 0
4, 31577, Note_on_c, 1, 47, 0
4, 31680, Control_c, 1, 64, 0
4, 31680, Control_c, 1, 64, 127
4, 31680, Note_on_c, 1, 63, 84
4, 31680, Note_on_c, 1, 51, 84
4, 31769, Note_on_c, 1, 63, 0
4, 31769, Note_on_c, 1, 51, 0
4, 31776, Control_c, 1, 64, 0
4, 31776, Control_c, 1, 64, 127
4, 31776, Note_on_c, 1, 64, 84
4, 31776, Note_on_c, 1, 52, 84
4, 31865, Note_on_c, 1, 64, 0
4, 31865, Note_on_c, 1, 52, 0
4, 31872, Control_c, 1, 64, 0
4, 31872, Note_on_c, 1, 59, 84
4, 31872, Note_on_c, 1, 47, 84
4, 31961, Note_on_c, 1, 59, 0
4, 31961, Note_on_c, 1, 47, 0
4, 32112, Note_on_c, 1, 52, 75
4, 32112, Note_on_c, 1, 40, 75
4, 32132, Note_on_c, 1, 52, 0
4, 32132, Note_on_c, 1, 40, 0
4, 32160, Note_on_c, 1, 52, 76
4, 32160, Note_on_c, 1, 40, 76
4, 32249, Note_on_c, 1, 52, 0
4, 32249, Note_on_c, 1, 40, 0
4, 32304, Note_on_c, 1, 52, 78
4, 32304, Note_on_c, 1, 40, 78
4, 32324, Note_on_c, 1, 52, 0
4, 32324, Note_on_c, 1, 40, 0
4, 32352, Note_on_c, 1, 52, 78
4, 32352, Note_on_c, 1, 40, 78
4, 32441, Note_on_c, 1, 52, 0
4, 32441, Note_on_c, 1, 40, 0
4, 32496, Note_on_c, 1, 52, 80
4, 32496, Note_on_c, 1, 40, 80
4, 32516, Note_on_c, 1, 52, 0
4, 32516, Note_on_c, 1, 40, 0
4, 32544, Note_on_c, 1, 52, 81
4, 32544, Note_on_c, 1, 40, 81
4, 32633, Note_on_c, 1, 52, 0
4, 32633, Note_on_c, 1, 40, 0
4, 32688, Note_on_c, 1, 52, 83
4, 32688, Note_on_c, 1, 40, 83
4, 32733, Note_on_c, 1, 52, 0
4, 32733, Note_on_c, 1, 40, 0
4, 32736, Note_on_c, 1, 52, 84
4, 32736, Note_on_c, 1, 40, 84
4, 32825, Note_on_c, 1, 52, 0
4, 32825, Note_on_c, 1, 40, 0
4, 32832, Note_on_c, 1, 47, 82
4, 32832, Note_on_c, 1, 35, 82
4, 32921, Note_on_c, 1, 47, 0
4, 32921, Note_on_c, 1, 35, 0
4, 32928, Note_on_c, 1, 47, 81
4, 32928, Note_on_c, 1, 35, 81
4, 33017, Note_on_c, 1, 47, 0
4, 33017, Note_on_c, 1, 35, 0
4, 33024, Note_on_c, 1, 52, 80
4, 33024, Note_on_c, 1, 40, 80
4, 33113, Note_on_c, 1, 52, 0
4, 33113, Note_on_c, 1, 40, 0
4, 33120, Note_on_c, 1, 52, 78
4, 33120, Note_on_c, 1, 40, 78
4, 33209, Note_on_c, 1, 52, 0
4, 33209, Note_on_c, 1, 40, 0
4, 33216, Note_on_c, 1, 47, 77
4, 33216, Note_on_c, 1, 35, 77
4, 33305, Note_on_c, 1, 47, 0
4, 33305, Note_on_c, 1, 35, 0
4, 33312, Note_on_c, 1, 47, 76
4, 33312, Note_on_c, 1, 35, 76
4, 33401, Note_on_c, 1, 47, 0
4, 33401, Note_on_c, 1, 35, 0
4, 33408, Note_on_c, 1, 52, 75
4, 33408, Note_on_c, 1, 40, 75
4, 33497, Note_on_c, 1, 52, 0
4, 33497, Note_on_c, 1, 40, 0
4, 33648, Note_on_c, 1, 52, 69
4, 33648, Note_on_c, 1, 40, 69
4, 33668, Note_on_c, 1, 52, 0
4, 33668, Note_on_c, 1, 40, 0
4, 33696, Note_on_c, 1, 52, 69
4, 33696, Note_on_c, 1, 40, 69
4, 33785, Note_on_c, 1, 52, 0
4, 33785, Note_on_c, 1, 40, 0
4, 33840, Note_on_c, 1, 47, 69
4, 33840, Note_on_c, 1, 35, 69
4, 33860, Note_on_c, 1, 47, 0
4, 33860, Note_on_c, 1, 35, 0
4, 33888, Note_on_c, 1, 47, 70
4, 33888, Note_on_c, 1, 35, 70
4, 33977, Note_on_c, 1, 47, 0
4, 33977, Note_on_c, 1, 35, 0
4, 34032, Note_on_c, 1, 47, 73
4, 34032, Note_on_c, 1, 35, 73
4, 34052, Note_on_c, 1, 47, 0
4, 34052, Note_on_c, 1, 35, 0
4, 34080, Note_on_c, 1, 47, 74
4, 34080, Note_on_c, 1, 35, 74
4, 34169, Note_on_c, 1, 47, 0
4, 34169, Note_on_c, 1, 35, 0
4, 34224, Note_on_c, 1, 52, 76
4, 34224, Note_on_c, 1, 40, 76
4, 34244, Note_on_c, 1, 52, 0
4, 34244, Note_on_c, 1, 40, 0
4, 34272, Note_on_c, 1, 52, 77
4, 34272, Note_on_c, 1, 40, 77
4, 34361, Note_on_c, 1, 52, 0
4, 34361, Note_on_c, 1, 40, 0
4, 34416, Note_on_c, 1, 52, 80
4, 34416, Note_on_c, 1, 40, 80
4, 34436, Note_on_c, 1, 52, 0
4, 34436, Note_on_c, 1, 40, 0
4, 34464, Note_on_c, 1, 52, 81
4, 34464, Note_on_c, 1, 40, 81
4, 34553, Note_on_c, 1, 52, 0
4, 34553, Note_on_c, 1, 40, 0
4, 34608, Note_on_c, 1, 52, 84
4, 34608, Note_on_c, 1, 40, 84
4, 34628, Note_on_c, 1, 52, 0
4, 34628, Note_on_c, 1, 40, 0
4, 34656, Note_on_c, 1, 52, 84
4, 34656, Note_on_c, 1, 40, 84
4, 34745, Note_on_c, 1, 52, 0
4, 34745, Note_on_c, 1, 40, 0
4, 34752, Note_on_c, 1, 47, 84
4, 34752, Note_on_c, 1, 35, 84
4, 34797, Note_on_c, 1, 47, 0
4, 34797, Note_on_c, 1, 35, 0
4, 34848, Note_on_c, 1, 47, 81
4, 34848, Note_on_c, 1, 35, 81
4, 34893, Note_on_c, 1, 47, 0
4, 34893, Note_on_c, 1, 35, 0
4, 34944, Note_on_c, 1, 47, 78
4, 34944, Note_on_c, 1, 35, 78
4, 35033, Note_on_c, 1, 47, 0
4, 35033, Note_on_c, 1, 35, 0
4, 35136, Note_on_c, 1, 47, 75
4, 35136, Note_on_c, 1, 35, 75
4, 35181, Note_on_c, 1, 47, 0
4, 35181, Note_on_c, 1, 35, 0
4, 35232, Note_on_c, 1, 47, 73
4, 35232, Note_on_c, 1, 35, 73
4, 35277, Note_on_c, 1, 47, 0
4, 35277, Note_on_c, 1, 35, 0
4, 35328, Note_on_c, 1, 47, 71
4, 35328, Note_on_c, 1, 35, 71
4, 35417, Note_on_c, 1, 47, 0
4, 35417, Note_on_c, 1, 35, 0
4, 35520, Note_on_c, 1, 47, 69
4, 35520, Note_on_c, 1, 35, 69
4, 35565, Note_on_c, 1, 47, 0
4, 35565, Note_on_c, 1, 35, 0
4, 35616, Note_on_c, 1, 47, 66
4, 35616, Note_on_c, 1, 35, 66
4, 35661, Note_on_c, 1, 47, 0
4, 35661, Note_on_c, 1, 35, 0
4, 35712, Note_on_c, 1, 47, 63
4, 35712, Note_on_c, 1, 35, 63
4, 35801, Note_on_c, 1, 47, 0
4, 35801, Note_on_c, 1, 35, 0
4, 35904, Control_c, 1, 64, 127
4, 35904, Note_on_c, 1, 56, 84
4, 35904, Note_on_c, 1, 44, 84
4, 35993, Note_on_c, 1, 56, 0
4, 35993, Note_on_c, 1, 44, 0
4, 36048, Note_on_c, 1, 56, 84
4, 36048, Note_on_c, 1, 44, 84
4, 36093, Note_on_c, 1, 56, 0
4, 36093, Note_on_c, 1, 44, 0
4, 36096, Control_c, 1, 64, 0
4, 36096, Control_c, 1, 64, 127
4, 36096, Note_on_c, 1, 57, 84
4, 36096, Note_on_c, 1, 45, 84
4, 36185, Note_on_c, 1, 57, 0
4, 36185, Note_on_c, 1, 45, 0
4, 36240, Note_on_c, 1, 57, 84
4, 36240, Note_on_c, 1, 45, 84
4, 36285, Note_on_c, 1, 57, 0
4, 36285, Note_on_c, 1, 45, 0
4, 36288, Control_c, 1, 64, 0
4, 36288, Control_c, 1, 64, 127
4, 36288, Note_on_c, 1, 59, 84
4, 36288, Note_on_c, 1, 47, 84
4, 36377, Note_on_c, 1, 59, 0
4, 36377, Note_on_c, 1, 47, 0
4, 36432, Note_on_c, 1, 59, 84
4, 36432, Note_on_c, 1, 47, 84
4, 36477, Note_on_c, 1, 59, 0
4, 36477, Note_on_c, 1, 47, 0
4, 36480, Control_c, 1, 64, 0
4, 36480, Control_c, 1, 64, 127
4, 36480, Note_on_c, 1, 61, 84
4, 36480, Note_on_c, 1, 49, 84
4, 36569, Note_on_c, 1, 61, 0
4, 36569, Note_on_c, 1, 49, 0
4, 36624, Note_on_c, 1, 61, 84
4, 36624, Note_on_c, 1, 49, 84
4, 36669, Note_on_c, 1, 61, 0
4, 36669, Note_on_c, 1, 49, 0
4, 36672, Control_c, 1, 64, 0
4, 36672, Control_c, 1, 64, 127
4, 36672, Note_on_c, 1, 56, 84
4, 36672, Note_on_c, 1, 44, 84
4, 36761, Note_on_c, 1, 56, 0
4, 36761, Note_on_c, 1, 44, 0
4, 36768, Control_c, 1, 64, 0
4, 36768, Control_c, 1, 64, 127
4, 36768, Note_on_c, 1, 57, 84
4, 36768, Note_on_c, 1, 45, 84
4, 36857, Note_on_c, 1, 57, 0
4, 36857, Note_on_c, 1, 45, 0
4, 36864, Control_c, 1, 64, 0
4, 36864, Control_c, 1, 64, 127
4, 36864, Note_on_c, 1, 56, 84
4, 36864, Note_on_c, 1, 44, 84
4, 36953, Note_on_c, 1, 56, 0
4, 36953, Note_on_c, 1, 44, 0
4, 36960, Control_c, 1, 64, 0
4, 36960, Control_c, 1, 64, 127
4, 36960, Note_on_c, 1, 57, 84
4, 36960, Note_on_c, 1, 45, 84
4, 37049, Note_on_c, 1, 57, 0
4, 37049, Note_on_c, 1, 45, 0
4, 37056, Control_c, 1, 64, 0
4, 37056, Control_c, 1, 64, 127
4, 37056, Note_on_c, 1, 56, 84
4, 37056, Note_on_c, 1, 44, 84
4, 37145, Note_on_c, 1, 56, 0
4, 37145, Note_on_c, 1, 44, 0
4, 37152, Control_c, 1, 64, 0
4, 37152, Control_c, 1, 64, 127
4, 37152, Note_on_c, 1, 57, 84
4, 37152, Note_on_c, 1, 45, 84
4, 37241, Note_on_c, 1, 57, 0
4, 37241, Note_on_c, 1, 45, 0
4, 37248, Control_c, 1, 64, 0
4, 37248, Control_c, 1, 64, 127
4, 37248, Note_on_c, 1, 59, 84
4, 37337, Note_on_c, 1, 59, 0
4, 37344, Note_on_c, 1, 47, 84
4, 37433, Note_on_c, 1, 47, 0
4, 37440, Control_c, 1, 64, 0
4, 37440, Note_on_c, 1, 52, 84
4, 37529, Note_on_c, 1, 52, 0
4, 37968, Note_on_c, 1, 59, 84
4, 37988, Note_on_c, 1, 59, 0
4, 38016, Note_on_c, 1, 64, 84
4, 38061, Note_on_c, 1, 64, 0
4, 38064, Note_on_c, 1, 59, 84
4, 38109, Note_on_c, 1, 59, 0
4, 38112, Note_on_c, 1, 64, 84
4, 38135, Note_on_c, 1, 64, 0
4, 38136, Note_on_c, 1, 59, 84
4, 38159, Note_on_c, 1, 59, 0
4, 38160, Note_on_c, 1, 56, 84
4, 38183, Note_on_c, 1, 56, 0
4, 38184, Note_on_c, 1, 52, 84
4, 38207, Note_on_c, 1, 52, 0
4, 38208, Note_on_c, 1, 59, 84
4, 38297, Note_on_c, 1, 59, 0
4, 38784, Note_on_c, 1, 55, 84
4, 38873, Note_on_c, 1, 55, 0
4, 38880, Note_on_c, 1, 58, 84
4, 38969, Note_on_c, 1, 58, 0
4, 38976, Note_on_c, 1, 59, 84
4, 38976, Note_on_c, 1, 47, 84
4, 39065, Note_on_c, 1, 59, 0
4, 39065, Note_on_c, 1, 47, 0
4, 39168, Note_on_c, 1, 52, 75
4, 39168, Note_on_c, 1, 40, 75
4, 39257, Note_on_c, 1, 52, 0
4, 39257, Note_on_c, 1, 40, 0
4, 39552, Note_on_c, 1, 57, 75
4, 39575, Note_on_c, 1, 57, 0
4, 39576, Note_on_c, 1, 64, 75
4, 39599, Note_on_c, 1, 64, 0
4, 39600, Note_on_c, 1, 61, 75
4, 39623, Note_on_c, 1, 61, 0
4, 39624, Note_on_c, 1, 64, 75
4, 39647, Note_on_c, 1, 64, 0
4, 39648, Note_on_c, 1, 56, 75
4, 39671, Note_on_c, 1, 56, 0
4, 39672, Note_on_c, 1, 64, 75
4, 39695, Note_on_c, 1, 64, 0
4, 39696, Note_on_c, 1, 59, 75
4, 39719, Note_on_c, 1, 59, 0
4, 39720, Note_on_c, 1, 64, 75
4, 39743, Note_on_c, 1, 64, 0
4, 39744, Note_on_c, 1, 57, 75
4, 39767, Note_on_c, 1, 57, 0
4, 39768, Note_on_c, 1, 64, 75
4, 39791, Note_on_c, 1, 64, 0
4, 39792, Note_on_c, 1, 61, 75
4, 39815, Note_on_c, 1, 61, 0
4, 39816, Note_on_c, 1, 64, 75
4, 39839, Note_on_c, 1, 64, 0
4, 39840, Note_on_c, 1, 56, 75
4, 39863, Note_on_c, 1, 56, 0
4, 39864, Note_on_c, 1, 64, 75
4, 39887, Note_on_c, 1, 64, 0
4, 39888, Note_on_c, 1, 59, 75
4, 39911, Note_on_c, 1, 59, 0
4, 39912, Note_on_c, 1, 64, 75
4, 39935, Note_on_c, 1, 64, 0
4, 39936, Note_on_c, 1, 57, 75
4, 40025, Note_on_c, 1, 57, 0
4, 40128, Note_on_c, 1, 52, 75
4, 40128, Note_on_c, 1, 47, 75
4, 40217, Note_on_c, 1, 52, 0
4, 40217, Note_on_c, 1, 47, 0
4, 40224, Note_on_c, 1, 51, 75
4, 40224, Note_on_c, 1, 47, 75
4, 40313, Note_on_c, 1, 51, 0
4, 40313, Note_on_c, 1, 47, 0
4, 40320, Note_on_c, 1, 52, 75
4, 40365, Note_on_c, 1, 52, 0
4, 40368, Note_on_c, 1, 47, 75
4, 40413, Note_on_c, 1, 47, 0
4, 40416, Note_on_c, 1, 40, 75
4, 40505, Note_on_c, 1, 40, 0
4, 40560, Note_on_c, 1, 52, 75
4, 40560, Note_on_c, 1, 40, 75
4, 40580, Note_on_c, 1, 52, 0
4, 40580, Note_on_c, 1, 40, 0
4, 40608, Note_on_c, 1, 52, 76
4, 40608, Note_on_c, 1, 40, 76
4, 40697, Note_on_c, 1, 52, 0
4, 40697, Note_on_c, 1, 40, 0
4, 40752, Note_on_c, 1, 52, 78
4, 40752, Note_on_c, 1, 40, 78
4, 40772, Note_on_c, 1, 52, 0
4, 40772, Note_on_c, 1, 40, 0
4, 40800, Note_on_c, 1, 52, 79
4, 40800, Note_on_c, 1, 40, 79
4, 40889, Note_on_c, 1, 52, 0
4, 40889, Note_on_c, 1, 40, 0
4, 40944, Note_on_c, 1, 52, 81
4, 40944, Note_on_c, 1, 40, 81
4, 40989, Note_on_c, 1, 52, 0
4, 40989, Note_on_c, 1, 40, 0
4, 40992, Note_on_c, 1, 52, 82
4, 40992, Note_on_c, 1, 40, 82
4, 41081, Note_on_c, 1, 52, 0
4, 41081, Note_on_c, 1, 40, 0
4, 41232, Note_on_c, 1, 40, 4
4, 41277, Note_on_c, 1, 40, 0
4, 41280, End_track
5, 0, Start_track
5, 0, Program_c, 1, 0
5, 0, Control_c, 1, 7, 127
5, 0, Control_c, 1, 10, 64
5, 6528, Note_on_c, 1, 55, 64
5, 6705, Note_on_c, 1, 55, 0
5, 14784, Note_on_c, 1, 55, 64
5, 14961, Note_on_c, 1, 55, 0
5, 26496, Note_on_c, 1, 48, 64
5, 26673, Note_on_c, 1, 48, 0
5, 38784, Note_on_c, 1, 48, 64
5, 38961, Note_on_c, 1, 48, 0
5, 41280, End_track
6, 0, Start_track
6, 0, Title_t, "Sonata III   <composer>  "
6, 0, End_track
0, 0, End_of_file
