0, 0, Header, 1, 6, 96
1, 0, Start_track
1, 0, Copyright_t, "Copyright  2000 <copyright holder>"
1, 0, Text_t, "Sonata III\015\012"
1, 0, Text_t, "<composer>\015\012"
1, 0, Sequencer_specific, 16, 68, 87, 77, 90, 86, 82, 83, 78, 32, 55, 46, 48, 46, 56, 46, 48
1, 0, Time_signature, 3, 2, 24, 8
1, 0, Tempo, 923076
1, 0, Key_signature, -4, "major"
1, 42048, End_track
2, 0, Start_track
2, 0, Program_c, 0, 0
2, 0, Control_c, 0, 7, 127
2, 0, Control_c, 0, 10, 64
2, 48, Note_on_c, 0, 75, 64
2, 93, Note_on_c, 0, 75, 0
2, 96, Note_on_c, 0, 77, 64
2, 120, Note_on_c, 0, 77, 0
2, 120, Note_on_c, 0, 75, 64
2, 143, Note_on_c, 0, 75, 0
2, 144, Note_on_c, 0, 73, 64
2, 167, Note_on_c, 0, 73, 0
2, 168, Note_on_c, 0, 72, 64
2, 191, Note_on_c, 0, 72, 0
2, 192, Note_on_c, 0, 82, 64
2, 216, Note_on_c, 0, 82, 0
2, 216, Note_on_c, 0, 80, 64
2, 239, Note_on_c, 0, 80, 0
2, 240, Note_on_c, 0, 79, 64
2, 263, Note_on_c, 0, 79, 0
2, 264, Note_on_c, 0, 77, 64
2, 287, Note_on_c, 0, 77, 0
2, 288, Note_on_c, 0, 77, 64
2, 312, Note_on_c, 0, 77, 0
2, 312, Note_on_c, 0, 75, 64
2, 322, Note_on_c, 0, 75, 0
2, 336, Note_on_c, 0, 75, 64
2, 429, Note_on_c, 0, 75, 0
2, 432, Note_on_c, 0, 72, 64
2, 466, Note_on_c, 0, 72, 0
2, 468, Note_on_c, 0, 75, 64
2, 480, Note_on_c, 0, 75, 0
2, 480, Note_on_c, 0, 75, 64
2, 503, Note_on_c, 0, 75, 0
2, 504, Note_on_c, 0, 73, 64
2, 527, Note_on_c, 0, 73, 0
2, 528, Note_on_c, 0, 72, 64
2, 551, Note_on_c, 0, 72, 0
2, 552, Note_on_c, 0, 70, 64
2, 575, Note_on_c, 0, 70, 0
2, 576, Note_on_c, 0, 70, 80
2, 672, Note_on_c, 0, 70, 0
2, 672, Note_on_c, 0, 72, 64
2, 717, Note_on_c, 0, 72, 0
2, 720, Note_on_c, 0, 68, 64
2, 754, Note_on_c, 0, 68, 0
2, 756, Note_on_c, 0, 72, 64
2, 768, Note_on_c, 0, 72, 0
2, 768, Note_on_c, 0, 72, 64
2, 791, Note_on_c, 0, 72, 0
2, 792, Note_on_c, 0, 70, 64
2, 815, Note_on_c, 0, 70, 0
2, 816, Note_on_c, 0, 68, 64
2, 822, Note_on_c, 0, 68, 0
2, 822, Note_on_c, 0, 70, 64
2, 828, Note_on_c, 0, 70, 0
2, 828, Note_on_c, 0, 68, 64
2, 839, Note_on_c, 0, 68, 0
2, 840, Note_on_c, 0, 67, 64
2, 863, Note_on_c, 0, 67, 0
2, 864, Note_on_c, 0, 67, 64
2, 888, Note_on_c, 0, 67, 0
2, 888, Note_on_c, 0, 70, 64
2, 894, Note_on_c, 0, 70, 0
2, 894, Note_on_c, 0, 68, 64
2, 900, Note_on_c, 0, 68, 0
2, 900, Note_on_c, 0, 67, 64
2, 906, Note_on_c, 0, 67, 0
2, 906, Note_on_c, 0, 68, 64
2, 912, Note_on_c, 0, 68, 0
2, 912, Note_on_c, 0, 72, 64
2, 922, Note_on_c, 0, 72, 0
2, 936, Note_on_c, 0, 68, 64
2, 946, Note_on_c, 0, 68, 0
2, 960, Note_on_c, 0, 63, 64
2, 1049, Note_on_c, 0, 63, 0
2, 1200, Note_on_c, 0, 75, 64
2, 1245, Note_on_c, 0, 75, 0
2, 1248, Note_on_c, 0, 74, 64
2, 1254, Note_on_c, 0, 74, 0
2, 1254, Note_on_c, 0, 75, 64
2, 1260, Note_on_c, 0, 75, 0
2, 1260, Note_on_c, 0, 77, 64
2, 1266, Note_on_c, 0, 77, 0
2, 1266, Note_on_c, 0, 75, 64
2, 1293, Note_on_c, 0, 75, 0
2, 1296, Note_on_c, 0, 73, 64
2, 1319, Note_on_c, 0, 73, 0
2, 1320, Note_on_c, 0, 72, 64
2, 1343, Note_on_c, 0, 72, 0
2, 1344, Note_on_c, 0, 82, 64
2, 1368, Note_on_c, 0, 82, 0
2, 1368, Note_on_c, 0, 80, 64
2, 1391, Note_on_c, 0, 80, 0
2, 1392, Note_on_c, 0, 79, 64
2, 1415, Note_on_c, 0, 79, 0
2, 1416, Note_on_c, 0, 77, 64
2, 1439, Note_on_c, 0, 77, 0
2, 1440, Note_on_c, 0, 77, 64
2, 1464, Note_on_c, 0, 77, 0
2, 1464, Note_on_c, 0, 75, 64
2, 1474, Note_on_c, 0, 75, 0
2, 1488, Note_on_c, 0, 75, 64
2, 1551, Note_on_c, 0, 75, 0
2, 1552, Note_on_c, 0, 77, 64
2, 1567, Note_on_c, 0, 77, 0
2, 1568, Note_on_c, 0, 79, 64
2, 1583, Note_on_c, 0, 79, 0
2, 1584, Note_on_c, 0, 80, 64
2, 1599, Note_on_c, 0, 80, 0
2, 1600, Note_on_c, 0, 82, 64
2, 1615, Note_on_c, 0, 82, 0
2, 1616, Note_on_c, 0, 84, 64
2, 1631, Note_on_c, 0, 84, 0
2, 1632, Note_on_c, 0, 75, 64
2, 1677, Note_on_c, 0, 75, 0
2, 1680, Note_on_c, 0, 73, 64
2, 1687, Note_on_c, 0, 73, 0
2, 1687, Note_on_c, 0, 75, 64
2, 1694, Note_on_c, 0, 75, 0
2, 1694, Note_on_c, 0, 73, 64
2, 1701, Note_on_c, 0, 73, 0
2, 1701, Note_on_c, 0, 75, 64
2, 1708, Note_on_c, 0, 75, 0
2, 1708, Note_on_c, 0, 73, 64
2, 1715, Note_on_c, 0, 73, 0
2, 1715, Note_on_c, 0, 72, 64
2, 1722, Note_on_c, 0, 72, 0
2, 1722, Note_on_c, 0, 73, 64
2, 1728, Note_on_c, 0, 73, 0
2, 1728, Note_on_c, 0, 73, 80
2, 1847, Note_on_c, 0, 73, 0
2, 1848, Note_on_c, 0, 72, 64
2, 1871, Note_on_c, 0, 72, 0
2, 1872, Note_on_c, 0, 75, 64
2, 1906, Note_on_c, 0, 75, 0
2, 1908, Note_on_c, 0, 68, 64
2, 1920, Note_on_c, 0, 68, 0
2, 1920, Note_on_c, 0, 72, 64
2, 1943, Note_on_c, 0, 72, 0
2, 1944, Note_on_c, 0, 70, 64
2, 1967, Note_on_c, 0, 70, 0
2, 1968, Note_on_c, 0, 68, 64
2, 1974, Note_on_c, 0, 68, 0
2, 1974, Note_on_c, 0, 70, 64
2, 1980, Note_on_c, 0, 70, 0
2, 1980, Note_on_c, 0, 68, 64
2, 1991, Note_on_c, 0, 68, 0
2, 1992, Note_on_c, 0, 67, 64
2, 2015, Note_on_c, 0, 67, 0
2, 2016, Note_on_c, 0, 68, 64
2, 2061, Note_on_c, 0, 68, 0
2, 2064, Note_on_c, 0, 63, 64
2, 2109, Note_on_c, 0, 63, 0
2, 2328, Note_on_c, 0, 76, 64
2, 2351, Note_on_c, 0, 76, 0
2, 2352, Note_on_c, 0, 77, 64
2, 2375, Note_on_c, 0, 77, 0
2, 2376, Note_on_c, 0, 80, 64
2, 2399, Note_on_c, 0, 80, 0
2, 2400, Note_on_c, 0, 77, 64
2, 2423, Note_on_c, 0, 77, 0
2, 2424, Note_on_c, 0, 75, 64
2, 2447, Note_on_c, 0, 75, 0
2, 2448, Note_on_c, 0, 84, 64
2, 2471, Note_on_c, 0, 84, 0
2, 2472, Note_on_c, 0, 80, 64
2, 2495, Note_on_c, 0, 80, 0
2, 2496, Note_on_c, 0, 75, 64
2, 2541, Note_on_c, 0, 75, 0
2, 2544, Note_on_c, 0, 73, 64
2, 2551, Note_on_c, 0, 73, 0
2, 2551, Note_on_c, 0, 75, 64
2, 2558, Note_on_c, 0, 75, 0
2, 2558, Note_on_c, 0, 73, 64
2, 2565, Note_on_c, 0, 73, 0
2, 2565, Note_on_c, 0, 75, 64
2, 2572, Note_on_c, 0, 75, 0
2, 2572, Note_on_c, 0, 73, 64
2, 2579, Note_on_c, 0, 73, 0
2, 2579, Note_on_c, 0, 72, 64
2, 2586, Note_on_c, 0, 72, 0
2, 2586, Note_on_c, 0, 73, 64
2, 2592, Note_on_c, 0, 73, 0
2, 2592, Note_on_c, 0, 73, 64
2, 2640, Note_on_c, 0, 73, 0
2, 2640, Note_on_c, 0, 72, 64
2, 2685, Note_on_c, 0, 72, 0
2, 2904, Note_on_c, 0, 76, 64
2, 2927, Note_on_c, 0, 76, 0
2, 2928, Note_on_c, 0, 77, 64
2, 2951, Note_on_c, 0, 77, 0
2, 2952, Note_on_c, 0, 80, 64
2, 2975, Note_on_c, 0, 80, 0
2, 3000, Note_on_c, 0, 74, 64
2, 3023, Note_on_c, 0, 74, 0
2, 3024, Note_on_c, 0, 75, 64
2, 3047, Note_on_c, 0, 75, 0
2, 3048, Note_on_c, 0, 80, 64
2, 3071, Note_on_c, 0, 80, 0
2, 3072, Note_on_c, 0, 75, 64
2, 3095, Note_on_c, 0, 75, 0
2, 3096, Note_on_c, 0, 73, 64
2, 3119, Note_on_c, 0, 73, 0
2, 3120, Note_on_c, 0, 82, 64
2, 3143, Note_on_c, 0, 82, 0
2, 3144, Note_on_c, 0, 73, 64
2, 3167, Note_on_c, 0, 73, 0
2, 3192, Note_on_c, 0, 72, 64
2, 3215, Note_on_c, 0, 72, 0
2, 3216, Note_on_c, 0, 75, 64
2, 3239, Note_on_c, 0, 75, 0
2, 3240, Note_on_c, 0, 72, 64
2, 3263, Note_on_c, 0, 72, 0
2, 3264, Note_on_c, 0, 69, 75
2, 3287, Note_on_c, 0, 69, 0
2, 3288, Note_on_c, 0, 70, 77
2, 3311, Note_on_c, 0, 70, 0
2, 3312, Note_on_c, 0, 73, 79
2, 3335, Note_on_c, 0, 73, 0
2, 3336, Note_on_c, 0, 77, 81
2, 3359, Note_on_c, 0, 77, 0
2, 3360, Note_on_c, 0, 75, 84
2, 3383, Note_on_c, 0, 75, 0
2, 3384, Note_on_c, 0, 73, 81
2, 3407, Note_on_c, 0, 73, 0
2, 3408, Note_on_c, 0, 72, 79
2, 3431, Note_on_c, 0, 72, 0
2, 3432, Note_on_c, 0, 70, 77
2, 3455, Note_on_c, 0, 70, 0
2, 3456, Note_on_c, 0, 68, 75
2, 3504, Note_on_c, 0, 68, 0
2, 3504, Note_on_c, 0, 67, 75
2, 3549, Note_on_c, 0, 67, 0
2, 3768, Note_on_c, 0, 79, 75
2, 3791, Note_on_c, 0, 79, 0
2, 3792, Note_on_c, 0, 82, 75
2, 3815, Note_on_c, 0, 82, 0
2, 3816, Note_on_c, 0, 79, 75
2, 3839, Note_on_c, 0, 79, 0
2, 3864, Note_on_c, 0, 80, 75
2, 3887, Note_on_c, 0, 80, 0
2, 3888, Note_on_c, 0, 77, 75
2, 3911, Note_on_c, 0, 77, 0
2, 3912, Note_on_c, 0, 74, 75
2, 3935, Note_on_c, 0, 74, 0
2, 3960, Note_on_c, 0, 74, 75
2, 3983, Note_on_c, 0, 74, 0
2, 3984, Note_on_c, 0, 75, 75
2, 4007, Note_on_c, 0, 75, 0
2, 4008, Note_on_c, 0, 70, 75
2, 4031, Note_on_c, 0, 70, 0
2, 4032, Note_on_c, 0, 82, 75
2, 4121, Note_on_c, 0, 82, 0
2, 4128, Note_on_c, 0, 82, 75
2, 4134, Note_on_c, 0, 82, 0
2, 4134, Note_on_c, 0, 80, 75
2, 4140, Note_on_c, 0, 80, 0
2, 4140, Note_on_c, 0, 79, 75
2, 4146, Note_on_c, 0, 79, 0
2, 4146, Note_on_c, 0, 80, 75
2, 4217, Note_on_c, 0, 80, 0
2, 4224, Note_on_c, 0, 80, 75
2, 4230, Note_on_c, 0, 80, 0
2, 4230, Note_on_c, 0, 79, 75
2, 4236, Note_on_c, 0, 79, 0
2, 4236, Note_on_c, 0, 77, 75
2, 4242, Note_on_c, 0, 77, 0
2, 4242, Note_on_c, 0, 79, 75
2, 4313, Note_on_c, 0, 79, 0
2, 4344, Note_on_c, 0, 77, 75
2, 4367, Note_on_c, 0, 77, 0
2, 4368, Note_on_c, 0, 79, 75
2, 4391, Note_on_c, 0, 79, 0
2, 4392, Note_on_c, 0, 76, 75
2, 4415, Note_on_c, 0, 76, 0
2, 4416, Note_on_c, 0, 77, 76
2, 4439, Note_on_c, 0, 77, 0
2, 4440, Note_on_c, 0, 83, 77
2, 4463, Note_on_c, 0, 83, 0
2, 4464, Note_on_c, 0, 84, 78
2, 4487, Note_on_c, 0, 84, 0
2, 4488, Note_on_c, 0, 79, 79
2, 4511, Note_on_c, 0, 79, 0
2, 4512, Note_on_c, 0, 82, 80
2, 4535, Note_on_c, 0, 82, 0
2, 4536, Note_on_c, 0, 80, 81
2, 4559, Note_on_c, 0, 80, 0
2, 4560, Note_on_c, 0, 79, 82
2, 4583, Note_on_c, 0, 79, 0
2, 4584, Note_on_c, 0, 77, 83
2, 4607, Note_on_c, 0, 77, 0
2, 4608, Note_on_c, 0, 75, 84
2, 4704, Note_on_c, 0, 75, 0
2, 4704, Note_on_c, 0, 74, 79
2, 4710, Note_on_c, 0, 74, 0
2, 4710, Note_on_c, 0, 75, 79
2, 4716, Note_on_c, 0, 75, 0
2, 4716, Note_on_c, 0, 74, 79
2, 4795, Note_on_c, 0, 74, 0
2, 4920, Note_on_c, 0, 75, 75
2, 4943, Note_on_c, 0, 75, 0
2, 4944, Note_on_c, 0, 77, 75
2, 4967, Note_on_c, 0, 77, 0
2, 4968, Note_on_c, 0, 74, 76
2, 4991, Note_on_c, 0, 74, 0
2, 4992, Note_on_c, 0, 75, 77
2, 5015, Note_on_c, 0, 75, 0
2, 5016, Note_on_c, 0, 77, 78
2, 5039, Note_on_c, 0, 77, 0
2, 5040, Note_on_c, 0, 79, 79
2, 5063, Note_on_c, 0, 79, 0
2, 5064, Note_on_c, 0, 80, 79
2, 5087, Note_on_c, 0, 80, 0
2, 5088, Note_on_c, 0, 82, 80
2, 5111, Note_on_c, 0, 82, 0
2, 5112, Note_on_c, 0, 84, 81
2, 5135, Note_on_c, 0, 84, 0
2, 5136, Note_on_c, 0, 80, 82
2, 5159, Note_on_c, 0, 80, 0
2, 5160, Note_on_c, 0, 77, 83
2, 5183, Note_on_c, 0, 77, 0
2, 5184, Note_on_c, 0, 75, 84
2, 5280, Note_on_c, 0, 75, 0
2, 5280, Note_on_c, 0, 74, 75
2, 5286, Note_on_c, 0, 74, 0
2, 5286, Note_on_c, 0, 75, 75
2, 5292, Note_on_c, 0, 75, 0
2, 5292, Note_on_c, 0, 74, 75
2, 5371, Note_on_c, 0, 74, 0
2, 5496, Note_on_c, 0, 75, 75
2, 5519, Note_on_c, 0, 75, 0
2, 5520, Note_on_c, 0, 77, 75
2, 5543, Note_on_c, 0, 77, 0
2, 5544, Note_on_c, 0, 74, 75
2, 5567, Note_on_c, 0, 74, 0
2, 5568, Note_on_c, 0, 75, 75
2, 5591, Note_on_c, 0, 75, 0
2, 5592, Note_on_c, 0, 77, 75
2, 5615, Note_on_c, 0, 77, 0
2, 5616, Note_on_c, 0, 79, 75
2, 5639, Note_on_c, 0, 79, 0
2, 5640, Note_on_c, 0, 80, 75
2, 5663, Note_on_c, 0, 80, 0
2, 5664, Note_on_c, 0, 82, 75
2, 5849, Note_on_c, 0, 82, 0
2, 5856, Note_on_c, 0, 80, 94
2, 6137, Note_on_c, 0, 80, 0
2, 6144, Note_on_c, 0, 79, 94
2, 6321, Note_on_c, 0, 79, 0
2, 6360, Note_on_c, 0, 71, 75
2, 6384, Note_on_c, 0, 71, 0
2, 6384, Note_on_c, 0, 72, 76
2, 6394, Note_on_c, 0, 72, 0
2, 6408, Note_on_c, 0, 76, 78
2, 6432, Note_on_c, 0, 76, 0
2, 6432, Note_on_c, 0, 77, 80
2, 6442, Note_on_c, 0, 77, 0
2, 6456, Note_on_c, 0, 83, 82
2, 6480, Note_on_c, 0, 83, 0
2, 6480, Note_on_c, 0, 84, 84
2, 6490, Note_on_c, 0, 84, 0
2, 6504, Note_on_c, 0, 79, 82
2, 6528, Note_on_c, 0, 79, 0
2, 6528, Note_on_c, 0, 80, 81
2, 6551, Note_on_c, 0, 80, 0
2, 6552, Note_on_c, 0, 76, 79
2, 6576, Note_on_c, 0, 76, 0
2, 6576, Note_on_c, 0, 77, 78
2, 6599, Note_on_c, 0, 77, 0
2, 6600, Note_on_c, 0, 72, 76
2, 6623, Note_on_c, 0, 72, 0
2, 6648, Note_on_c, 0, 69, 75
2, 6672, Note_on_c, 0, 69, 0
2, 6672, Note_on_c, 0, 70, 76
2, 6682, Note_on_c, 0, 70, 0
2, 6696, Note_on_c, 0, 74, 78
2, 6720, Note_on_c, 0, 74, 0
2, 6720, Note_on_c, 0, 75, 80
2, 6730, Note_on_c, 0, 75, 0
2, 6744, Note_on_c, 0, 81, 82
2, 6768, Note_on_c, 0, 81, 0
2, 6768, Note_on_c, 0, 82, 84
2, 6778, Note_on_c, 0, 82, 0
2, 6792, Note_on_c, 0, 78, 82
2, 6816, Note_on_c, 0, 78, 0
2, 6816, Note_on_c, 0, 79, 81
2, 6839, Note_on_c, 0, 79, 0
2, 6840, Note_on_c, 0, 74, 79
2, 6864, Note_on_c, 0, 74, 0
2, 6864, Note_on_c, 0, 75, 78
2, 6887, Note_on_c, 0, 75, 0
2, 6888, Note_on_c, 0, 70, 76
2, 6912, Note_on_c, 0, 70, 0
2, 6912, Note_on_c, 0, 71, 75
2, 6936, Note_on_c, 0, 71, 0
2, 6936, Note_on_c, 0, 72, 75
2, 6959, Note_on_c, 0, 72, 0
2, 6960, Note_on_c, 0, 68, 75
2, 6984, Note_on_c, 0, 68, 0
2, 6984, Note_on_c, 0, 65, 75
2, 7007, Note_on_c, 0, 65, 0
2, 7008, Note_on_c, 0, 68, 75
2, 7031, Note_on_c, 0, 68, 0
2, 7032, Note_on_c, 0, 67, 75
2, 7055, Note_on_c, 0, 67, 0
2, 7056, Note_on_c, 0, 70, 75
2, 7079, Note_on_c, 0, 70, 0
2, 7080, Note_on_c, 0, 63, 75
2, 7103, Note_on_c, 0, 63, 0
2, 7104, Note_on_c, 0, 67, 75
2, 7127, Note_on_c, 0, 67, 0
2, 7128, Note_on_c, 0, 65, 75
2, 7151, Note_on_c, 0, 65, 0
2, 7152, Note_on_c, 0, 63, 75
2, 7175, Note_on_c, 0, 63, 0
2, 7176, Note_on_c, 0, 62, 75
2, 7199, Note_on_c, 0, 62, 0
2, 7200, Note_on_c, 0, 63, 75
2, 7415, Note_on_c, 0, 63, 0
2, 7416, Note_on_c, 0, 68, 73
2, 7439, Note_on_c, 0, 68, 0
2, 7440, Note_on_c, 0, 67, 72
2, 7463, Note_on_c, 0, 67, 0
2, 7464, Note_on_c, 0, 65, 70
2, 7487, Note_on_c, 0, 65, 0
2, 7488, Note_on_c, 0, 63, 57
2, 7703, Note_on_c, 0, 63, 0
2, 7704, Note_on_c, 0, 68, 57
2, 7727, Note_on_c, 0, 68, 0
2, 7728, Note_on_c, 0, 67, 57
2, 7751, Note_on_c, 0, 67, 0
2, 7752, Note_on_c, 0, 65, 57
2, 7775, Note_on_c, 0, 65, 0
2, 7776, Note_on_c, 0, 65, 0
2, 7872, Note_on_c, 0, 65, 0
2, 7872, Note_on_c, 0, 67, 0
2, 7953, Note_on_c, 0, 67, 0
2, 8112, Note_on_c, 0, 75, 64
2, 8157, Note_on_c, 0, 75, 0
2, 8160, Note_on_c, 0, 77, 64
2, 8184, Note_on_c, 0, 77, 0
2, 8184, Note_on_c, 0, 75, 64
2, 8207, Note_on_c, 0, 75, 0
2, 8208, Note_on_c, 0, 73, 64
2, 8231, Note_on_c, 0, 73, 0
2, 8232, Note_on_c, 0, 72, 64
2, 8255, Note_on_c, 0, 72, 0
2, 8256, Note_on_c, 0, 82, 64
2, 8280, Note_on_c, 0, 82, 0
2, 8280, Note_on_c, 0, 80, 64
2, 8303, Note_on_c, 0, 80, 0
2, 8304, Note_on_c, 0, 79, 64
2, 8327, Note_on_c, 0, 79, 0
2, 8328, Note_on_c, 0, 77, 64
2, 8351, Note_on_c, 0, 77, 0
2, 8352, Note_on_c, 0, 77, 64
2, 8376, Note_on_c, 0, 77, 0
2, 8376, Note_on_c, 0, 75, 64
2, 8386, Note_on_c, 0, 75, 0
2, 8400, Note_on_c, 0, 75, 64
2, 8493, Note_on_c, 0, 75, 0
2, 8496, Note_on_c, 0, 72, 64
2, 8530, Note_on_c, 0, 72, 0
2, 8532, Note_on_c, 0, 75, 64
2, 8544, Note_on_c, 0, 75, 0
2, 8544, Note_on_c, 0, 75, 64
2, 8567, Note_on_c, 0, 75, 0
2, 8568, Note_on_c, 0, 73, 64
2, 8591, Note_on_c, 0, 73, 0
2, 8592, Note_on_c, 0, 72, 64
2, 8615, Note_on_c, 0, 72, 0
2, 8616, Note_on_c, 0, 70, 64
2, 8639, Note_on_c, 0, 70, 0
2, 8640, Note_on_c, 0, 70, 80
2, 8736, Note_on_c, 0, 70, 0
2, 8736, Note_on_c, 0, 72, 64
2, 8781, Note_on_c, 0, 72, 0
2, 8784, Note_on_c, 0, 68, 64
2, 8818, Note_on_c, 0, 68, 0
2, 8820, Note_on_c, 0, 72, 64
2, 8832, Note_on_c, 0, 72, 0
2, 8832, Note_on_c, 0, 72, 64
2, 8855, Note_on_c, 0, 72, 0
2, 8856, Note_on_c, 0, 70, 64
2, 8879, Note_on_c, 0, 70, 0
2, 8880, Note_on_c, 0, 68, 64
2, 8886, Note_on_c, 0, 68, 0
2, 8886, Note_on_c, 0, 70, 64
2, 8892, Note_on_c, 0, 70, 0
2, 8892, Note_on_c, 0, 68, 64
2, 8903, Note_on_c, 0, 68, 0
2, 8904, Note_on_c, 0, 67, 64
2, 8927, Note_on_c, 0, 67, 0
2, 8928, Note_on_c, 0, 67, 64
2, 8952, Note_on_c, 0, 67, 0
2, 8952, Note_on_c, 0, 70, 64
2, 8958, Note_on_c, 0, 70, 0
2, 8958, Note_on_c, 0, 68, 64
2, 8964, Note_on_c, 0, 68, 0
2, 8964, Note_on_c, 0, 67, 64
2, 8970, Note_on_c, 0, 67, 0
2, 8970, Note_on_c, 0, 68, 64
2, 8976, Note_on_c, 0, 68, 0
2, 8976, Note_on_c, 0, 72, 64
2, 8986, Note_on_c, 0, 72, 0
2, 9000, Note_on_c, 0, 68, 64
2, 9010, Note_on_c, 0, 68, 0
2, 9024, Note_on_c, 0, 63, 64
2, 9113, Note_on_c, 0, 63, 0
2, 9264, Note_on_c, 0, 75, 64
2, 9309, Note_on_c, 0, 75, 0
2, 9312, Note_on_c, 0, 74, 64
2, 9318, Note_on_c, 0, 74, 0
2, 9318, Note_on_c, 0, 75, 64
2, 9324, Note_on_c, 0, 75, 0
2, 9324, Note_on_c, 0, 77, 64
2, 9330, Note_on_c, 0, 77, 0
2, 9330, Note_on_c, 0, 75, 64
2, 9357, Note_on_c, 0, 75, 0
2, 9360, Note_on_c, 0, 73, 64
2, 9383, Note_on_c, 0, 73, 0
2, 9384, Note_on_c, 0, 72, 64
2, 9407, Note_on_c, 0, 72, 0
2, 9408, Note_on_c, 0, 82, 64
2, 9432, Note_on_c, 0, 82, 0
2, 9432, Note_on_c, 0, 80, 64
2, 9455, Note_on_c, 0, 80, 0
2, 9456, Note_on_c, 0, 79, 64
2, 9479, Note_on_c, 0, 79, 0
2, 9480, Note_on_c, 0, 77, 64
2, 9503, Note_on_c, 0, 77, 0
2, 9504, Note_on_c, 0, 77, 64
2, 9528, Note_on_c, 0, 77, 0
2, 9528, Note_on_c, 0, 75, 64
2, 9538, Note_on_c, 0, 75, 0
2, 9552, Note_on_c, 0, 75, 64
2, 9615, Note_on_c, 0, 75, 0
2, 9616, Note_on_c, 0, 77, 64
2, 9631, Note_on_c, 0, 77, 0
2, 9632, Note_on_c, 0, 79, 64
2, 9647, Note_on_c, 0, 79, 0
2, 9648, Note_on_c, 0, 80, 64
2, 9663, Note_on_c, 0, 80, 0
2, 9664, Note_on_c, 0, 82, 64
2, 9679, Note_on_c, 0, 82, 0
2, 9680, Note_on_c, 0, 84, 64
2, 9695, Note_on_c, 0, 84, 0
2, 9696, Note_on_c, 0, 75, 64
2, 9741, Note_on_c, 0, 75, 0
2, 9744, Note_on_c, 0, 73, 64
2, 9751, Note_on_c, 0, 73, 0
2, 9751, Note_on_c, 0, 75, 64
2, 9758, Note_on_c, 0, 75, 0
2, 9758, Note_on_c, 0, 73, 64
2, 9765, Note_on_c, 0, 73, 0
2, 9765, Note_on_c, 0, 75, 64
2, 9772, Note_on_c, 0, 75, 0
2, 9772, Note_on_c, 0, 73, 64
2, 9779, Note_on_c, 0, 73, 0
2, 9779, Note_on_c, 0, 72, 64
2, 9786, Note_on_c, 0, 72, 0
2, 9786, Note_on_c, 0, 73, 64
2, 9792, Note_on_c, 0, 73, 0
2, 9792, Note_on_c, 0, 73, 80
2, 9911, Note_on_c, 0, 73, 0
2, 9912, Note_on_c, 0, 72, 64
2, 9935, Note_on_c, 0, 72, 0
2, 9936, Note_on_c, 0, 75, 64
2, 9970, Note_on_c, 0, 75, 0
2, 9972, Note_on_c, 0, 68, 64
2, 9984, Note_on_c, 0, 68, 0
2, 9984, Note_on_c, 0, 72, 64
2, 10007, Note_on_c, 0, 72, 0
2, 10008, Note_on_c, 0, 70, 64
2, 10031, Note_on_c, 0, 70, 0
2, 10032, Note_on_c, 0, 68, 64
2, 10038, Note_on_c, 0, 68, 0
2, 10038, Note_on_c, 0, 70, 64
2, 10044, Note_on_c, 0, 70, 0
2, 10044, Note_on_c, 0, 68, 64
2, 10055, Note_on_c, 0, 68, 0
2, 10056, Note_on_c, 0, 67, 64
2, 10079, Note_on_c, 0, 67, 0
2, 10080, Note_on_c, 0, 68, 64
2, 10125, Note_on_c, 0, 68, 0
2, 10128, Note_on_c, 0, 63, 64
2, 10173, Note_on_c, 0, 63, 0
2, 10392, Note_on_c, 0, 76, 64
2, 10415, Note_on_c, 0, 76, 0
2, 10416, Note_on_c, 0, 77, 64
2, 10439, Note_on_c, 0, 77, 0
2, 10440, Note_on_c, 0, 80, 64
2, 10463, Note_on_c, 0, 80, 0
2, 10464, Note_on_c, 0, 77, 64
2, 10487, Note_on_c, 0, 77, 0
2, 10488, Note_on_c, 0, 75, 64
2, 10511, Note_on_c, 0, 75, 0
2, 10512, Note_on_c, 0, 84, 64
2, 10535, Note_on_c, 0, 84, 0
2, 10536, Note_on_c, 0, 80, 64
2, 10559, Note_on_c, 0, 80, 0
2, 10560, Note_on_c, 0, 75, 64
2, 10605, Note_on_c, 0, 75, 0
2, 10608, Note_on_c, 0, 73, 64
2, 10615, Note_on_c, 0, 73, 0
2, 10615, Note_on_c, 0, 75, 64
2, 10622, Note_on_c, 0, 75, 0
2, 10622, Note_on_c, 0, 73, 64
2, 10629, Note_on_c, 0, 73, 0
2, 10629, Note_on_c, 0, 75, 64
2, 10636, Note_on_c, 0, 75, 0
2, 10636, Note_on_c, 0, 73, 64
2, 10643, Note_on_c, 0, 73, 0
2, 10643, Note_on_c, 0, 72, 64
2, 10650, Note_on_c, 0, 72, 0
2, 10650, Note_on_c, 0, 73, 64
2, 10656, Note_on_c, 0, 73, 0
2, 10656, Note_on_c, 0, 73, 64
2, 10704, Note_on_c, 0, 73, 0
2, 10704, Note_on_c, 0, 72, 64
2, 10749, Note_on_c, 0, 72, 0
2, 10968, Note_on_c, 0, 76, 64
2, 10991, Note_on_c, 0, 76, 0
2, 10992, Note_on_c, 0, 77, 64
2, 11015, Note_on_c, 0, 77, 0
2, 11016, Note_on_c, 0, 80, 64
2, 11039, Note_on_c, 0, 80, 0
2, 11064, Note_on_c, 0, 74, 64
2, 11087, Note_on_c, 0, 74, 0
2, 11088, Note_on_c, 0, 75, 64
2, 11111, Note_on_c, 0, 75, 0
2, 11112, Note_on_c, 0, 80, 64
2, 11135, Note_on_c, 0, 80, 0
2, 11136, Note_on_c, 0, 75, 64
2, 11159, Note_on_c, 0, 75, 0
2, 11160, Note_on_c, 0, 73, 64
2, 11183, Note_on_c, 0, 73, 0
2, 11184, Note_on_c, 0, 82, 64
2, 11207, Note_on_c, 0, 82, 0
2, 11208, Note_on_c, 0, 73, 64
2, 11231, Note_on_c, 0, 73, 0
2, 11256, Note_on_c, 0, 72, 64
2, 11279, Note_on_c, 0, 72, 0
2, 11280, Note_on_c, 0, 75, 64
2, 11303, Note_on_c, 0, 75, 0
2, 11304, Note_on_c, 0, 72, 64
2, 11327, Note_on_c, 0, 72, 0
2, 11328, Note_on_c, 0, 69, 75
2, 11351, Note_on_c, 0, 69, 0
2, 11352, Note_on_c, 0, 70, 77
2, 11375, Note_on_c, 0, 70, 0
2, 11376, Note_on_c, 0, 73, 79
2, 11399, Note_on_c, 0, 73, 0
2, 11400, Note_on_c, 0, 77, 81
2, 11423, Note_on_c, 0, 77, 0
2, 11424, Note_on_c, 0, 75, 84
2, 11447, Note_on_c, 0, 75, 0
2, 11448, Note_on_c, 0, 73, 81
2, 11471, Note_on_c, 0, 73, 0
2, 11472, Note_on_c, 0, 72, 79
2, 11495, Note_on_c, 0, 72, 0
2, 11496, Note_on_c, 0, 70, 77
2, 11519, Note_on_c, 0, 70, 0
2, 11520, Note_on_c, 0, 68, 75
2, 11568, Note_on_c, 0, 68, 0
2, 11568, Note_on_c, 0, 67, 75
2, 11613, Note_on_c, 0, 67, 0
2, 11832, Note_on_c, 0, 79, 75
2, 11855, Note_on_c, 0, 79, 0
2, 11856, Note_on_c, 0, 82, 75
2, 11879, Note_on_c, 0, 82, 0
2, 11880, Note_on_c, 0, 79, 75
2, 11903, Note_on_c, 0, 79, 0
2, 11928, Note_on_c, 0, 80, 75
2, 11951, Note_on_c, 0, 80, 0
2, 11952, Note_on_c, 0, 77, 75
2, 11975, Note_on_c, 0, 77, 0
2, 11976, Note_on_c, 0, 74, 75
2, 11999, Note_on_c, 0, 74, 0
2, 12024, Note_on_c, 0, 74, 75
2, 12047, Note_on_c, 0, 74, 0
2, 12048, Note_on_c, 0, 75, 75
2, 12071, Note_on_c, 0, 75, 0
2, 12072, Note_on_c, 0, 70, 75
2, 12095, Note_on_c, 0, 70, 0
2, 12096, Note_on_c, 0, 82, 75
2, 12185, Note_on_c, 0, 82, 0
2, 12192, Note_on_c, 0, 82, 75
2, 12198, Note_on_c, 0, 82, 0
2, 12198, Note_on_c, 0, 80, 75
2, 12204, Note_on_c, 0, 80, 0
2, 12204, Note_on_c, 0, 79, 75
2, 12210, Note_on_c, 0, 79, 0
2, 12210, Note_on_c, 0, 80, 75
2, 12281, Note_on_c, 0, 80, 0
2, 12288, Note_on_c, 0, 80, 75
2, 12294, Note_on_c, 0, 80, 0
2, 12294, Note_on_c, 0, 79, 75
2, 12300, Note_on_c, 0, 79, 0
2, 12300, Note_on_c, 0, 77, 75
2, 12306, Note_on_c, 0, 77, 0
2, 12306, Note_on_c, 0, 79, 75
2, 12377, Note_on_c, 0, 79, 0
2, 12408, Note_on_c, 0, 77, 75
2, 12431, Note_on_c, 0, 77, 0
2, 12432, Note_on_c, 0, 79, 75
2, 12455, Note_on_c, 0, 79, 0
2, 12456, Note_on_c, 0, 76, 75
2, 12479, Note_on_c, 0, 76, 0
2, 12480, Note_on_c, 0, 77, 76
2, 12503, Note_on_c, 0, 77, 0
2, 12504, Note_on_c, 0, 83, 77
2, 12527, Note_on_c, 0, 83, 0
2, 12528, Note_on_c, 0, 84, 78
2, 12551, Note_on_c, 0, 84, 0
2, 12552, Note_on_c, 0, 79, 79
2, 12575, Note_on_c, 0, 79, 0
2, 12576, Note_on_c, 0, 82, 80
2, 12599, Note_on_c, 0, 82, 0
2, 12600, Note_on_c, 0, 80, 81
2, 12623, Note_on_c, 0, 80, 0
2, 12624, Note_on_c, 0, 79, 82
2, 12647, Note_on_c, 0, 79, 0
2, 12648, Note_on_c, 0, 77, 83
2, 12671, Note_on_c, 0, 77, 0
2, 12672, Note_on_c, 0, 75, 84
2, 12768, Note_on_c, 0, 75, 0
2, 12768, Note_on_c, 0, 74, 79
2, 12774, Note_on_c, 0, 74, 0
2, 12774, Note_on_c, 0, 75, 79
2, 12780, Note_on_c, 0, 75, 0
2, 12780, Note_on_c, 0, 74, 79
2, 12859, Note_on_c, 0, 74, 0
2, 12984, Note_on_c, 0, 75, 75
2, 13007, Note_on_c, 0, 75, 0
2, 13008, Note_on_c, 0, 77, 75
2, 13031, Note_on_c, 0, 77, 0
2, 13032, Note_on_c, 0, 74, 76
2, 13055, Note_on_c, 0, 74, 0
2, 13056, Note_on_c, 0, 75, 77
2, 13079, Note_on_c, 0, 75, 0
2, 13080, Note_on_c, 0, 77, 78
2, 13103, Note_on_c, 0, 77, 0
2, 13104, Note_on_c, 0, 79, 79
2, 13127, Note_on_c, 0, 79, 0
2, 13128, Note_on_c, 0, 80, 79
2, 13151, Note_on_c, 0, 80, 0
2, 13152, Note_on_c, 0, 82, 80
2, 13175, Note_on_c, 0, 82, 0
2, 13176, Note_on_c, 0, 84, 81
2, 13199, Note_on_c, 0, 84, 0
2, 13200, Note_on_c, 0, 80, 82
2, 13223, Note_on_c, 0, 80, 0
2, 13224, Note_on_c, 0, 77, 83
2, 13247, Note_on_c, 0, 77, 0
2, 13248, Note_on_c, 0, 75, 84
2, 13344, Note_on_c, 0, 75, 0
2, 13344, Note_on_c, 0, 74, 75
2, 13350, Note_on_c, 0, 74, 0
2, 13350, Note_on_c, 0, 75, 75
2, 13356, Note_on_c, 0, 75, 0
2, 13356, Note_on_c, 0, 74, 75
2, 13435, Note_on_c, 0, 74, 0
2, 13560, Note_on_c, 0, 75, 75
2, 13583, Note_on_c, 0, 75, 0
2, 13584, Note_on_c, 0, 77, 75
2, 13607, Note_on_c, 0, 77, 0
2, 13608, Note_on_c, 0, 74, 75
2, 13631, Note_on_c, 0, 74, 0
2, 13632, Note_on_c, 0, 75, 75
2, 13655, Note_on_c, 0, 75, 0
2, 13656, Note_on_c, 0, 77, 75
2, 13679, Note_on_c, 0, 77, 0
2, 13680, Note_on_c, 0, 79, 75
2, 13703, Note_on_c, 0, 79, 0
2, 13704, Note_on_c, 0, 80, 75
2, 13727, Note_on_c, 0, 80, 0
2, 13728, Note_on_c, 0, 82, 75
2, 13913, Note_on_c, 0, 82, 0
2, 13920, Note_on_c, 0, 80, 94
2, 14201, Note_on_c, 0, 80, 0
2, 14208, Note_on_c, 0, 79, 94
2, 14385, Note_on_c, 0, 79, 0
2, 14424, Note_on_c, 0, 71, 75
2, 14448, Note_on_c, 0, 71, 0
2, 14448, Note_on_c, 0, 72, 76
2, 14458, Note_on_c, 0, 72, 0
2, 14472, Note_on_c, 0, 76, 78
2, 14496, Note_on_c, 0, 76, 0
2, 14496, Note_on_c, 0, 77, 80
2, 14506, Note_on_c, 0, 77, 0
2, 14520, Note_on_c, 0, 83, 82
2, 14544, Note_on_c, 0, 83, 0
2, 14544, Note_on_c, 0, 84, 84
2, 14554, Note_on_c, 0, 84, 0
2, 14568, Note_on_c, 0, 79, 82
2, 14592, Note_on_c, 0, 79, 0
2, 14592, Note_on_c, 0, 80, 81
2, 14615, Note_on_c, 0, 80, 0
2, 14616, Note_on_c, 0, 76, 79
2, 14640, Note_on_c, 0, 76, 0
2, 14640, Note_on_c, 0, 77, 78
2, 14663, Note_on_c, 0, 77, 0
2, 14664, Note_on_c, 0, 72, 76
2, 14687, Note_on_c, 0, 72, 0
2, 14712, Note_on_c, 0, 69, 75
2, 14736, Note_on_c, 0, 69, 0
2, 14736, Note_on_c, 0, 70, 76
2, 14746, Note_on_c, 0, 70, 0
2, 14760, Note_on_c, 0, 74, 78
2, 14784, Note_on_c, 0, 74, 0
2, 14784, Note_on_c, 0, 75, 80
2, 14794, Note_on_c, 0, 75, 0
2, 14808, Note_on_c, 0, 81, 82
2, 14832, Note_on_c, 0, 81, 0
2, 14832, Note_on_c, 0, 82, 84
2, 14842, Note_on_c, 0, 82, 0
2, 14856, Note_on_c, 0, 78, 82
2, 14880, Note_on_c, 0, 78, 0
2, 14880, Note_on_c, 0, 79, 81
2, 14903, Note_on_c, 0, 79, 0
2, 14904, Note_on_c, 0, 74, 79
2, 14928, Note_on_c, 0, 74, 0
2, 14928, Note_on_c, 0, 75, 78
2, 14951, Note_on_c, 0, 75, 0
2, 14952, Note_on_c, 0, 70, 76
2, 14976, Note_on_c, 0, 70, 0
2, 14976, Note_on_c, 0, 71, 75
2, 15000, Note_on_c, 0, 71, 0
2, 15000, Note_on_c, 0, 72, 75
2, 15023, Note_on_c, 0, 72, 0
2, 15024, Note_on_c, 0, 68, 75
2, 15048, Note_on_c, 0, 68, 0
2, 15048, Note_on_c, 0, 65, 75
2, 15071, Note_on_c, 0, 65, 0
2, 15072, Note_on_c, 0, 68, 75
2, 15095, Note_on_c, 0, 68, 0
2, 15096, Note_on_c, 0, 67, 75
2, 15119, Note_on_c, 0, 67, 0
2, 15120, Note_on_c, 0, 70, 75
2, 15143, Note_on_c, 0, 70, 0
2, 15144, Note_on_c, 0, 63, 75
2, 15167, Note_on_c, 0, 63, 0
2, 15168, Note_on_c, 0, 67, 75
2, 15191, Note_on_c, 0, 67, 0
2, 15192, Note_on_c, 0, 65, 75
2, 15215, Note_on_c, 0, 65, 0
2, 15216, Note_on_c, 0, 63, 75
2, 15239, Note_on_c, 0, 63, 0
2, 15240, Note_on_c, 0, 62, 75
2, 15263, Note_on_c, 0, 62, 0
2, 15264, Note_on_c, 0, 63, 75
2, 15479, Note_on_c, 0, 63, 0
2, 15480, Note_on_c, 0, 68, 73
2, 15503, Note_on_c, 0, 68, 0
2, 15504, Note_on_c, 0, 67, 72
2, 15527, Note_on_c, 0, 67, 0
2, 15528, Note_on_c, 0, 65, 70
2, 15551, Note_on_c, 0, 65, 0
2, 15552, Note_on_c, 0, 63, 57
2, 15767, Note_on_c, 0, 63, 0
2, 15768, Note_on_c, 0, 68, 57
2, 15791, Note_on_c, 0, 68, 0
2, 15792, Note_on_c, 0, 67, 57
2, 15815, Note_on_c, 0, 67, 0
2, 15816, Note_on_c, 0, 65, 57
2, 15839, Note_on_c, 0, 65, 0
2, 15840, Note_on_c, 0, 65, 0
2, 15936, Note_on_c, 0, 65, 0
2, 15936, Note_on_c, 0, 67, 0
2, 16017, Note_on_c, 0, 67, 0
2, 16176, Note_on_c, 0, 70, 75
2, 16221, Note_on_c, 0, 70, 0
2, 16224, Note_on_c, 0, 72, 75
2, 16247, Note_on_c, 0, 72, 0
2, 16248, Note_on_c, 0, 70, 75
2, 16271, Note_on_c, 0, 70, 0
2, 16272, Note_on_c, 0, 68, 75
2, 16295, Note_on_c, 0, 68, 0
2, 16296, Note_on_c, 0, 67, 75
2, 16319, Note_on_c, 0, 67, 0
2, 16320, Note_on_c, 0, 77, 75
2, 16343, Note_on_c, 0, 77, 0
2, 16344, Note_on_c, 0, 75, 75
2, 16367, Note_on_c, 0, 75, 0
2, 16368, Note_on_c, 0, 74, 75
2, 16391, Note_on_c, 0, 74, 0
2, 16392, Note_on_c, 0, 72, 75
2, 16415, Note_on_c, 0, 72, 0
2, 16416, Note_on_c, 0, 72, 75
2, 16440, Note_on_c, 0, 72, 0
2, 16440, Note_on_c, 0, 70, 75
2, 16450, Note_on_c, 0, 70, 0
2, 16464, Note_on_c, 0, 70, 75
2, 16509, Note_on_c, 0, 70, 0
2, 16512, Note_on_c, 0, 70, 75
2, 16557, Note_on_c, 0, 70, 0
2, 16560, Note_on_c, 0, 67, 75
2, 16594, Note_on_c, 0, 67, 0
2, 16596, Note_on_c, 0, 70, 75
2, 16608, Note_on_c, 0, 70, 0
2, 16608, Note_on_c, 0, 70, 75
2, 16631, Note_on_c, 0, 70, 0
2, 16632, Note_on_c, 0, 68, 75
2, 16655, Note_on_c, 0, 68, 0
2, 16656, Note_on_c, 0, 67, 75
2, 16679, Note_on_c, 0, 67, 0
2, 16680, Note_on_c, 0, 65, 75
2, 16703, Note_on_c, 0, 65, 0
2, 16704, Note_on_c, 0, 65, 75
2, 16800, Note_on_c, 0, 65, 0
2, 16800, Note_on_c, 0, 67, 75
2, 16845, Note_on_c, 0, 67, 0
2, 16848, Note_on_c, 0, 63, 75
2, 16882, Note_on_c, 0, 63, 0
2, 16884, Note_on_c, 0, 67, 75
2, 16896, Note_on_c, 0, 67, 0
2, 16896, Note_on_c, 0, 67, 75
2, 16919, Note_on_c, 0, 67, 0
2, 16920, Note_on_c, 0, 65, 75
2, 16943, Note_on_c, 0, 65, 0
2, 16944, Note_on_c, 0, 63, 75
2, 16950, Note_on_c, 0, 63, 0
2, 16950, Note_on_c, 0, 65, 75
2, 16956, Note_on_c, 0, 65, 0
2, 16956, Note_on_c, 0, 63, 75
2, 16967, Note_on_c, 0, 63, 0
2, 16968, Note_on_c, 0, 62, 75
2, 16991, Note_on_c, 0, 62, 0
2, 16992, Note_on_c, 0, 63, 75
2, 17037, Note_on_c, 0, 63, 0
2, 17040, Note_on_c, 0, 58, 75
2, 17085, Note_on_c, 0, 58, 0
2, 17304, Note_on_c, 0, 75, 75
2, 17327, Note_on_c, 0, 75, 0
2, 17328, Note_on_c, 0, 74, 75
2, 17351, Note_on_c, 0, 74, 0
2, 17352, Note_on_c, 0, 75, 76
2, 17375, Note_on_c, 0, 75, 0
2, 17376, Note_on_c, 0, 77, 77
2, 17399, Note_on_c, 0, 77, 0
2, 17400, Note_on_c, 0, 75, 78
2, 17423, Note_on_c, 0, 75, 0
2, 17424, Note_on_c, 0, 74, 79
2, 17447, Note_on_c, 0, 74, 0
2, 17448, Note_on_c, 0, 75, 79
2, 17471, Note_on_c, 0, 75, 0
2, 17472, Note_on_c, 0, 78, 80
2, 17495, Note_on_c, 0, 78, 0
2, 17496, Note_on_c, 0, 75, 81
2, 17519, Note_on_c, 0, 75, 0
2, 17520, Note_on_c, 0, 73, 82
2, 17526, Note_on_c, 0, 73, 0
2, 17526, Note_on_c, 0, 75, 82
2, 17532, Note_on_c, 0, 75, 0
2, 17532, Note_on_c, 0, 73, 82
2, 17543, Note_on_c, 0, 73, 0
2, 17544, Note_on_c, 0, 72, 83
2, 17567, Note_on_c, 0, 72, 0
2, 17568, Note_on_c, 0, 70, 84
2, 17664, Note_on_c, 0, 70, 0
2, 17664, Note_on_c, 0, 69, 76
2, 17670, Note_on_c, 0, 69, 0
2, 17670, Note_on_c, 0, 70, 76
2, 17676, Note_on_c, 0, 70, 0
2, 17676, Note_on_c, 0, 69, 76
2, 17755, Note_on_c, 0, 69, 0
2, 17880, Note_on_c, 0, 66, 75
2, 17903, Note_on_c, 0, 66, 0
2, 17904, Note_on_c, 0, 65, 75
2, 17927, Note_on_c, 0, 65, 0
2, 17928, Note_on_c, 0, 64, 76
2, 17951, Note_on_c, 0, 64, 0
2, 17952, Note_on_c, 0, 65, 77
2, 17975, Note_on_c, 0, 65, 0
2, 17976, Note_on_c, 0, 69, 78
2, 17999, Note_on_c, 0, 69, 0
2, 18000, Note_on_c, 0, 72, 79
2, 18023, Note_on_c, 0, 72, 0
2, 18024, Note_on_c, 0, 69, 79
2, 18047, Note_on_c, 0, 69, 0
2, 18048, Note_on_c, 0, 75, 80
2, 18071, Note_on_c, 0, 75, 0
2, 18072, Note_on_c, 0, 72, 81
2, 18095, Note_on_c, 0, 72, 0
2, 18096, Note_on_c, 0, 78, 82
2, 18119, Note_on_c, 0, 78, 0
2, 18120, Note_on_c, 0, 75, 83
2, 18143, Note_on_c, 0, 75, 0
2, 18144, Note_on_c, 0, 75, 84
2, 18240, Note_on_c, 0, 75, 0
2, 18240, Note_on_c, 0, 73, 76
2, 18246, Note_on_c, 0, 73, 0
2, 18246, Note_on_c, 0, 75, 76
2, 18252, Note_on_c, 0, 75, 0
2, 18252, Note_on_c, 0, 73, 76
2, 18331, Note_on_c, 0, 73, 0
2, 18360, Note_on_c, 0, 77, 75
2, 18383, Note_on_c, 0, 77, 0
2, 18384, Note_on_c, 0, 78, 75
2, 18390, Note_on_c, 0, 78, 0
2, 18390, Note_on_c, 0, 77, 75
2, 18396, Note_on_c, 0, 77, 0
2, 18396, Note_on_c, 0, 78, 75
2, 18407, Note_on_c, 0, 78, 0
2, 18408, Note_on_c, 0, 82, 75
2, 18431, Note_on_c, 0, 82, 0
2, 18432, Note_on_c, 0, 76, 75
2, 18551, Note_on_c, 0, 76, 0
2, 18552, Note_on_c, 0, 77, 75
2, 18575, Note_on_c, 0, 77, 0
2, 18576, Note_on_c, 0, 79, 75
2, 18599, Note_on_c, 0, 79, 0
2, 18600, Note_on_c, 0, 80, 75
2, 18623, Note_on_c, 0, 80, 0
2, 18624, Note_on_c, 0, 82, 75
2, 18743, Note_on_c, 0, 82, 0
2, 18744, Note_on_c, 0, 80, 75
2, 18767, Note_on_c, 0, 80, 0
2, 18768, Note_on_c, 0, 82, 75
2, 18791, Note_on_c, 0, 82, 0
2, 18792, Note_on_c, 0, 84, 75
2, 18815, Note_on_c, 0, 84, 0
2, 18816, Note_on_c, 0, 73, 75
2, 18935, Note_on_c, 0, 73, 0
2, 18936, Note_on_c, 0, 72, 75
2, 18959, Note_on_c, 0, 72, 0
2, 18960, Note_on_c, 0, 82, 75
2, 18983, Note_on_c, 0, 82, 0
2, 18984, Note_on_c, 0, 79, 75
2, 19007, Note_on_c, 0, 79, 0
2, 19032, Note_on_c, 0, 80, 75
2, 19055, Note_on_c, 0, 80, 0
2, 19056, Note_on_c, 0, 84, 75
2, 19079, Note_on_c, 0, 84, 0
2, 19080, Note_on_c, 0, 77, 75
2, 19103, Note_on_c, 0, 77, 0
2, 19128, Note_on_c, 0, 76, 75
2, 19151, Note_on_c, 0, 76, 0
2, 19152, Note_on_c, 0, 79, 75
2, 19175, Note_on_c, 0, 79, 0
2, 19176, Note_on_c, 0, 76, 75
2, 19199, Note_on_c, 0, 76, 0
2, 19224, Note_on_c, 0, 76, 75
2, 19247, Note_on_c, 0, 76, 0
2, 19248, Note_on_c, 0, 77, 75
2, 19271, Note_on_c, 0, 77, 0
2, 19272, Note_on_c, 0, 72, 75
2, 19295, Note_on_c, 0, 72, 0
2, 19296, Note_on_c, 0, 75, 75
2, 19319, Note_on_c, 0, 75, 0
2, 19320, Note_on_c, 0, 73, 75
2, 19343, Note_on_c, 0, 73, 0
2, 19344, Note_on_c, 0, 72, 75
2, 19367, Note_on_c, 0, 72, 0
2, 19368, Note_on_c, 0, 70, 75
2, 19391, Note_on_c, 0, 70, 0
2, 19392, Note_on_c, 0, 70, 75
2, 19415, Note_on_c, 0, 70, 0
2, 19416, Note_on_c, 0, 68, 75
2, 19439, Note_on_c, 0, 68, 0
2, 19440, Note_on_c, 0, 72, 75
2, 19463, Note_on_c, 0, 72, 0
2, 19464, Note_on_c, 0, 65, 75
2, 19487, Note_on_c, 0, 65, 0
2, 19488, Note_on_c, 0, 68, 75
2, 19511, Note_on_c, 0, 68, 0
2, 19512, Note_on_c, 0, 67, 73
2, 19518, Note_on_c, 0, 67, 0
2, 19518, Note_on_c, 0, 68, 73
2, 19524, Note_on_c, 0, 68, 0
2, 19524, Note_on_c, 0, 67, 73
2, 19535, Note_on_c, 0, 67, 0
2, 19536, Note_on_c, 0, 65, 72
2, 19559, Note_on_c, 0, 65, 0
2, 19560, Note_on_c, 0, 64, 70
2, 19583, Note_on_c, 0, 64, 0
2, 19608, Note_on_c, 0, 65, 61
2, 19631, Note_on_c, 0, 65, 0
2, 19632, Note_on_c, 0, 67, 61
2, 19655, Note_on_c, 0, 67, 0
2, 19656, Note_on_c, 0, 65, 61
2, 19679, Note_on_c, 0, 65, 0
2, 19680, Note_on_c, 0, 68, 61
2, 19703, Note_on_c, 0, 68, 0
2, 19704, Note_on_c, 0, 67, 61
2, 19727, Note_on_c, 0, 67, 0
2, 19728, Note_on_c, 0, 70, 61
2, 19751, Note_on_c, 0, 70, 0
2, 19752, Note_on_c, 0, 69, 61
2, 19775, Note_on_c, 0, 69, 0
2, 19776, Note_on_c, 0, 70, 61
2, 19799, Note_on_c, 0, 70, 0
2, 19800, Note_on_c, 0, 67, 61
2, 19823, Note_on_c, 0, 67, 0
2, 19824, Note_on_c, 0, 65, 61
2, 19830, Note_on_c, 0, 65, 0
2, 19830, Note_on_c, 0, 67, 61
2, 19836, Note_on_c, 0, 67, 0
2, 19836, Note_on_c, 0, 65, 61
2, 19847, Note_on_c, 0, 65, 0
2, 19848, Note_on_c, 0, 64, 61
2, 19871, Note_on_c, 0, 64, 0
2, 19896, Note_on_c, 0, 68, 61
2, 19919, Note_on_c, 0, 68, 0
2, 19920, Note_on_c, 0, 70, 62
2, 19943, Note_on_c, 0, 70, 0
2, 19944, Note_on_c, 0, 68, 63
2, 19967, Note_on_c, 0, 68, 0
2, 19968, Note_on_c, 0, 72, 64
2, 19991, Note_on_c, 0, 72, 0
2, 19992, Note_on_c, 0, 70, 65
2, 20015, Note_on_c, 0, 70, 0
2, 20016, Note_on_c, 0, 73, 66
2, 20039, Note_on_c, 0, 73, 0
2, 20040, Note_on_c, 0, 72, 67
2, 20063, Note_on_c, 0, 72, 0
2, 20064, Note_on_c, 0, 73, 68
2, 20087, Note_on_c, 0, 73, 0
2, 20088, Note_on_c, 0, 70, 68
2, 20111, Note_on_c, 0, 70, 0
2, 20112, Note_on_c, 0, 68, 69
2, 20118, Note_on_c, 0, 68, 0
2, 20118, Note_on_c, 0, 70, 69
2, 20124, Note_on_c, 0, 70, 0
2, 20124, Note_on_c, 0, 68, 69
2, 20135, Note_on_c, 0, 68, 0
2, 20136, Note_on_c, 0, 67, 70
2, 20159, Note_on_c, 0, 67, 0
2, 20160, Note_on_c, 0, 68, 71
2, 20183, Note_on_c, 0, 68, 0
2, 20184, Note_on_c, 0, 72, 72
2, 20207, Note_on_c, 0, 72, 0
2, 20208, Note_on_c, 0, 73, 73
2, 20231, Note_on_c, 0, 73, 0
2, 20232, Note_on_c, 0, 72, 74
2, 20255, Note_on_c, 0, 72, 0
2, 20256, Note_on_c, 0, 75, 75
2, 20279, Note_on_c, 0, 75, 0
2, 20280, Note_on_c, 0, 73, 76
2, 20303, Note_on_c, 0, 73, 0
2, 20304, Note_on_c, 0, 77, 76
2, 20327, Note_on_c, 0, 77, 0
2, 20328, Note_on_c, 0, 76, 77
2, 20351, Note_on_c, 0, 76, 0
2, 20352, Note_on_c, 0, 77, 78
2, 20375, Note_on_c, 0, 77, 0
2, 20376, Note_on_c, 0, 73, 79
2, 20399, Note_on_c, 0, 73, 0
2, 20400, Note_on_c, 0, 72, 80
2, 20423, Note_on_c, 0, 72, 0
2, 20424, Note_on_c, 0, 70, 81
2, 20447, Note_on_c, 0, 70, 0
2, 20448, Control_c, 0, 64, 127
2, 20472, Note_on_c, 0, 72, 83
2, 20482, Note_on_c, 0, 72, 0
2, 20496, Note_on_c, 0, 75, 84
2, 20506, Note_on_c, 0, 75, 0
2, 20520, Note_on_c, 0, 80, 84
2, 20530, Note_on_c, 0, 80, 0
2, 20544, Note_on_c, 0, 84, 84
2, 20554, Note_on_c, 0, 84, 0
2, 20568, Note_on_c, 0, 80, 84
2, 20578, Note_on_c, 0, 80, 0
2, 20592, Note_on_c, 0, 75, 84
2, 20602, Note_on_c, 0, 75, 0
2, 20616, Note_on_c, 0, 80, 84
2, 20626, Note_on_c, 0, 80, 0
2, 20640, Note_on_c, 0, 72, 84
2, 20650, Note_on_c, 0, 72, 0
2, 20664, Note_on_c, 0, 75, 84
2, 20674, Note_on_c, 0, 75, 0
2, 20688, Note_on_c, 0, 68, 84
2, 20698, Note_on_c, 0, 68, 0
2, 20712, Note_on_c, 0, 72, 84
2, 20722, Note_on_c, 0, 72, 0
2, 20736, Control_c, 0, 64, 0
2, 20736, Control_c, 0, 64, 127
2, 20736, Control_c, 0, 64, 127
2, 20760, Note_on_c, 0, 71, 84
2, 20770, Note_on_c, 0, 71, 0
2, 20784, Note_on_c, 0, 75, 84
2, 20794, Note_on_c, 0, 75, 0
2, 20808, Note_on_c, 0, 80, 84
2, 20818, Note_on_c, 0, 80, 0
2, 20832, Note_on_c, 0, 83, 84
2, 20842, Note_on_c, 0, 83, 0
2, 20856, Note_on_c, 0, 80, 84
2, 20866, Note_on_c, 0, 80, 0
2, 20880, Note_on_c, 0, 75, 84
2, 20890, Note_on_c, 0, 75, 0
2, 20904, Note_on_c, 0, 80, 84
2, 20914, Note_on_c, 0, 80, 0
2, 20928, Note_on_c, 0, 71, 84
2, 20938, Note_on_c, 0, 71, 0
2, 20952, Note_on_c, 0, 75, 84
2, 20962, Note_on_c, 0, 75, 0
2, 20976, Note_on_c, 0, 68, 84
2, 20986, Note_on_c, 0, 68, 0
2, 21000, Note_on_c, 0, 71, 84
2, 21010, Note_on_c, 0, 71, 0
2, 21024, Control_c, 0, 64, 0
2, 21036, Note_on_c, 0, 71, 84
2, 21048, Note_on_c, 0, 71, 0
2, 21048, Note_on_c, 0, 73, 84
2, 21060, Note_on_c, 0, 73, 0
2, 21060, Note_on_c, 0, 75, 84
2, 21072, Note_on_c, 0, 75, 0
2, 21072, Note_on_c, 0, 76, 84
2, 21084, Note_on_c, 0, 76, 0
2, 21084, Note_on_c, 0, 78, 84
2, 21096, Note_on_c, 0, 78, 0
2, 21096, Note_on_c, 0, 80, 84
2, 21108, Note_on_c, 0, 80, 0
2, 21108, Note_on_c, 0, 81, 84
2, 21120, Note_on_c, 0, 81, 0
2, 21120, Control_c, 0, 64, 127
2, 21120, Note_on_c, 0, 83, 84
2, 21143, Note_on_c, 0, 83, 0
2, 21144, Note_on_c, 0, 80, 84
2, 21154, Note_on_c, 0, 80, 0
2, 21168, Note_on_c, 0, 76, 84
2, 21178, Note_on_c, 0, 76, 0
2, 21192, Note_on_c, 0, 80, 84
2, 21202, Note_on_c, 0, 80, 0
2, 21216, Note_on_c, 0, 71, 84
2, 21226, Note_on_c, 0, 71, 0
2, 21240, Note_on_c, 0, 76, 84
2, 21250, Note_on_c, 0, 76, 0
2, 21264, Note_on_c, 0, 68, 84
2, 21274, Note_on_c, 0, 68, 0
2, 21288, Note_on_c, 0, 71, 84
2, 21298, Note_on_c, 0, 71, 0
2, 21312, Control_c, 0, 64, 0
2, 21312, Control_c, 0, 64, 127
2, 21312, Control_c, 0, 64, 127
2, 21336, Control_c, 0, 64, 127
2, 21336, Note_on_c, 0, 71, 84
2, 21346, Note_on_c, 0, 71, 0
2, 21360, Note_on_c, 0, 77, 84
2, 21370, Note_on_c, 0, 77, 0
2, 21384, Note_on_c, 0, 80, 84
2, 21394, Note_on_c, 0, 80, 0
2, 21408, Note_on_c, 0, 83, 84
2, 21418, Note_on_c, 0, 83, 0
2, 21432, Note_on_c, 0, 80, 84
2, 21442, Note_on_c, 0, 80, 0
2, 21456, Note_on_c, 0, 77, 84
2, 21466, Note_on_c, 0, 77, 0
2, 21480, Note_on_c, 0, 80, 84
2, 21490, Note_on_c, 0, 80, 0
2, 21504, Control_c, 0, 64, 0
2, 21504, Note_on_c, 0, 74, 84
2, 21514, Note_on_c, 0, 74, 0
2, 21528, Note_on_c, 0, 71, 83
2, 21538, Note_on_c, 0, 71, 0
2, 21552, Note_on_c, 0, 70, 82
2, 21562, Note_on_c, 0, 70, 0
2, 21576, Note_on_c, 0, 68, 81
2, 21586, Note_on_c, 0, 68, 0
2, 21600, Note_on_c, 0, 68, 81
2, 21623, Note_on_c, 0, 68, 0
2, 21624, Note_on_c, 0, 67, 80
2, 21647, Note_on_c, 0, 67, 0
2, 21648, Note_on_c, 0, 70, 79
2, 21671, Note_on_c, 0, 70, 0
2, 21672, Note_on_c, 0, 62, 78
2, 21695, Note_on_c, 0, 62, 0
2, 21696, Note_on_c, 0, 63, 78
2, 21785, Note_on_c, 0, 63, 0
2, 21936, Note_on_c, 0, 75, 75
2, 21981, Note_on_c, 0, 75, 0
2, 21984, Note_on_c, 0, 77, 75
2, 22008, Note_on_c, 0, 77, 0
2, 22008, Note_on_c, 0, 75, 75
2, 22031, Note_on_c, 0, 75, 0
2, 22032, Note_on_c, 0, 73, 75
2, 22038, Note_on_c, 0, 73, 0
2, 22038, Note_on_c, 0, 75, 75
2, 22044, Note_on_c, 0, 75, 0
2, 22044, Note_on_c, 0, 73, 75
2, 22055, Note_on_c, 0, 73, 0
2, 22056, Note_on_c, 0, 72, 75
2, 22079, Note_on_c, 0, 72, 0
2, 22080, Note_on_c, 0, 82, 75
2, 22104, Note_on_c, 0, 82, 0
2, 22104, Note_on_c, 0, 80, 75
2, 22127, Note_on_c, 0, 80, 0
2, 22128, Note_on_c, 0, 79, 75
2, 22151, Note_on_c, 0, 79, 0
2, 22152, Note_on_c, 0, 77, 75
2, 22175, Note_on_c, 0, 77, 0
2, 22176, Note_on_c, 0, 77, 75
2, 22200, Note_on_c, 0, 77, 0
2, 22200, Note_on_c, 0, 75, 75
2, 22210, Note_on_c, 0, 75, 0
2, 22224, Note_on_c, 0, 75, 75
2, 22287, Note_on_c, 0, 75, 0
2, 22288, Note_on_c, 0, 77, 75
2, 22303, Note_on_c, 0, 77, 0
2, 22304, Note_on_c, 0, 79, 75
2, 22319, Note_on_c, 0, 79, 0
2, 22320, Note_on_c, 0, 80, 75
2, 22335, Note_on_c, 0, 80, 0
2, 22336, Note_on_c, 0, 82, 75
2, 22351, Note_on_c, 0, 82, 0
2, 22352, Note_on_c, 0, 84, 75
2, 22367, Note_on_c, 0, 84, 0
2, 22368, Note_on_c, 0, 75, 75
2, 22413, Note_on_c, 0, 75, 0
2, 22416, Note_on_c, 0, 73, 75
2, 22423, Note_on_c, 0, 73, 0
2, 22423, Note_on_c, 0, 75, 75
2, 22430, Note_on_c, 0, 75, 0
2, 22430, Note_on_c, 0, 73, 75
2, 22437, Note_on_c, 0, 73, 0
2, 22437, Note_on_c, 0, 75, 75
2, 22444, Note_on_c, 0, 75, 0
2, 22444, Note_on_c, 0, 73, 75
2, 22451, Note_on_c, 0, 73, 0
2, 22451, Note_on_c, 0, 72, 75
2, 22458, Note_on_c, 0, 72, 0
2, 22458, Note_on_c, 0, 73, 75
2, 22464, Note_on_c, 0, 73, 0
2, 22464, Note_on_c, 0, 73, 91
2, 22583, Note_on_c, 0, 73, 0
2, 22584, Note_on_c, 0, 72, 75
2, 22607, Note_on_c, 0, 72, 0
2, 22608, Note_on_c, 0, 75, 75
2, 22642, Note_on_c, 0, 75, 0
2, 22644, Note_on_c, 0, 68, 75
2, 22656, Note_on_c, 0, 68, 0
2, 22656, Note_on_c, 0, 72, 75
2, 22679, Note_on_c, 0, 72, 0
2, 22680, Note_on_c, 0, 70, 75
2, 22703, Note_on_c, 0, 70, 0
2, 22704, Note_on_c, 0, 68, 75
2, 22710, Note_on_c, 0, 68, 0
2, 22710, Note_on_c, 0, 70, 75
2, 22716, Note_on_c, 0, 70, 0
2, 22716, Note_on_c, 0, 68, 75
2, 22727, Note_on_c, 0, 68, 0
2, 22728, Note_on_c, 0, 67, 75
2, 22751, Note_on_c, 0, 67, 0
2, 22752, Note_on_c, 0, 68, 75
2, 22797, Note_on_c, 0, 68, 0
2, 22800, Note_on_c, 0, 63, 75
2, 22845, Note_on_c, 0, 63, 0
2, 23064, Note_on_c, 0, 76, 75
2, 23087, Note_on_c, 0, 76, 0
2, 23088, Note_on_c, 0, 77, 75
2, 23111, Note_on_c, 0, 77, 0
2, 23112, Note_on_c, 0, 80, 75
2, 23135, Note_on_c, 0, 80, 0
2, 23136, Note_on_c, 0, 77, 75
2, 23159, Note_on_c, 0, 77, 0
2, 23160, Note_on_c, 0, 75, 75
2, 23183, Note_on_c, 0, 75, 0
2, 23184, Note_on_c, 0, 84, 75
2, 23207, Note_on_c, 0, 84, 0
2, 23208, Note_on_c, 0, 80, 75
2, 23231, Note_on_c, 0, 80, 0
2, 23232, Note_on_c, 0, 75, 75
2, 23277, Note_on_c, 0, 75, 0
2, 23280, Note_on_c, 0, 73, 75
2, 23287, Note_on_c, 0, 73, 0
2, 23287, Note_on_c, 0, 75, 75
2, 23294, Note_on_c, 0, 75, 0
2, 23294, Note_on_c, 0, 73, 75
2, 23301, Note_on_c, 0, 73, 0
2, 23301, Note_on_c, 0, 75, 75
2, 23308, Note_on_c, 0, 75, 0
2, 23308, Note_on_c, 0, 73, 75
2, 23315, Note_on_c, 0, 73, 0
2, 23315, Note_on_c, 0, 72, 75
2, 23322, Note_on_c, 0, 72, 0
2, 23322, Note_on_c, 0, 73, 75
2, 23328, Note_on_c, 0, 73, 0
2, 23328, Note_on_c, 0, 73, 75
2, 23376, Note_on_c, 0, 73, 0
2, 23376, Note_on_c, 0, 72, 75
2, 23421, Note_on_c, 0, 72, 0
2, 23640, Note_on_c, 0, 76, 75
2, 23663, Note_on_c, 0, 76, 0
2, 23664, Note_on_c, 0, 77, 75
2, 23687, Note_on_c, 0, 77, 0
2, 23688, Note_on_c, 0, 80, 75
2, 23711, Note_on_c, 0, 80, 0
2, 23736, Note_on_c, 0, 74, 75
2, 23759, Note_on_c, 0, 74, 0
2, 23760, Note_on_c, 0, 75, 75
2, 23783, Note_on_c, 0, 75, 0
2, 23784, Note_on_c, 0, 80, 75
2, 23807, Note_on_c, 0, 80, 0
2, 23808, Note_on_c, 0, 75, 75
2, 23831, Note_on_c, 0, 75, 0
2, 23832, Note_on_c, 0, 73, 75
2, 23855, Note_on_c, 0, 73, 0
2, 23856, Note_on_c, 0, 82, 75
2, 23879, Note_on_c, 0, 82, 0
2, 23880, Note_on_c, 0, 73, 75
2, 23903, Note_on_c, 0, 73, 0
2, 23928, Note_on_c, 0, 72, 75
2, 23951, Note_on_c, 0, 72, 0
2, 23952, Note_on_c, 0, 75, 75
2, 23975, Note_on_c, 0, 75, 0
2, 23976, Note_on_c, 0, 72, 76
2, 23999, Note_on_c, 0, 72, 0
2, 24000, Note_on_c, 0, 69, 77
2, 24023, Note_on_c, 0, 69, 0
2, 24024, Note_on_c, 0, 70, 78
2, 24047, Note_on_c, 0, 70, 0
2, 24048, Note_on_c, 0, 73, 79
2, 24071, Note_on_c, 0, 73, 0
2, 24072, Note_on_c, 0, 77, 79
2, 24095, Note_on_c, 0, 77, 0
2, 24096, Note_on_c, 0, 75, 80
2, 24119, Note_on_c, 0, 75, 0
2, 24120, Note_on_c, 0, 73, 81
2, 24143, Note_on_c, 0, 73, 0
2, 24144, Note_on_c, 0, 72, 82
2, 24167, Note_on_c, 0, 72, 0
2, 24168, Note_on_c, 0, 70, 83
2, 24191, Note_on_c, 0, 70, 0
2, 24192, Note_on_c, 0, 68, 84
2, 24288, Note_on_c, 0, 68, 0
2, 24288, Note_on_c, 0, 67, 76
2, 24294, Note_on_c, 0, 67, 0
2, 24294, Note_on_c, 0, 68, 76
2, 24300, Note_on_c, 0, 68, 0
2, 24300, Note_on_c, 0, 67, 76
2, 24379, Note_on_c, 0, 67, 0
2, 24504, Note_on_c, 0, 68, 75
2, 24527, Note_on_c, 0, 68, 0
2, 24528, Note_on_c, 0, 70, 75
2, 24551, Note_on_c, 0, 70, 0
2, 24552, Note_on_c, 0, 67, 76
2, 24575, Note_on_c, 0, 67, 0
2, 24576, Note_on_c, 0, 68, 77
2, 24599, Note_on_c, 0, 68, 0
2, 24600, Note_on_c, 0, 70, 78
2, 24623, Note_on_c, 0, 70, 0
2, 24624, Note_on_c, 0, 72, 79
2, 24647, Note_on_c, 0, 72, 0
2, 24648, Note_on_c, 0, 73, 79
2, 24671, Note_on_c, 0, 73, 0
2, 24672, Note_on_c, 0, 75, 80
2, 24696, Note_on_c, 0, 75, 0
2, 24696, Note_on_c, 0, 77, 81
2, 24719, Note_on_c, 0, 77, 0
2, 24720, Note_on_c, 0, 73, 82
2, 24743, Note_on_c, 0, 73, 0
2, 24744, Note_on_c, 0, 70, 83
2, 24767, Note_on_c, 0, 70, 0
2, 24768, Note_on_c, 0, 68, 84
2, 24864, Note_on_c, 0, 68, 0
2, 24864, Note_on_c, 0, 67, 76
2, 24870, Note_on_c, 0, 67, 0
2, 24870, Note_on_c, 0, 68, 76
2, 24876, Note_on_c, 0, 68, 0
2, 24876, Note_on_c, 0, 67, 76
2, 24955, Note_on_c, 0, 67, 0
2, 25080, Note_on_c, 0, 68, 75
2, 25103, Note_on_c, 0, 68, 0
2, 25104, Note_on_c, 0, 70, 75
2, 25127, Note_on_c, 0, 70, 0
2, 25128, Note_on_c, 0, 67, 76
2, 25151, Note_on_c, 0, 67, 0
2, 25152, Note_on_c, 0, 68, 77
2, 25175, Note_on_c, 0, 68, 0
2, 25176, Note_on_c, 0, 70, 78
2, 25199, Note_on_c, 0, 70, 0
2, 25200, Note_on_c, 0, 72, 79
2, 25223, Note_on_c, 0, 72, 0
2, 25224, Note_on_c, 0, 73, 79
2, 25247, Note_on_c, 0, 73, 0
2, 25248, Note_on_c, 0, 75, 80
2, 25271, Note_on_c, 0, 75, 0
2, 25272, Note_on_c, 0, 77, 81
2, 25295, Note_on_c, 0, 77, 0
2, 25296, Note_on_c, 0, 78, 82
2, 25319, Note_on_c, 0, 78, 0
2, 25320, Note_on_c, 0, 80, 83
2, 25343, Note_on_c, 0, 80, 0
2, 25344, Note_on_c, 0, 78, 84
2, 25344, Note_on_c, 0, 75, 84
2, 25433, Note_on_c, 0, 78, 0
2, 25433, Note_on_c, 0, 75, 0
2, 25440, Note_on_c, 0, 77, 103
2, 25440, Note_on_c, 0, 73, 103
2, 25632, Note_on_c, 0, 77, 0
2, 25632, Note_on_c, 0, 75, 84
2, 25721, Note_on_c, 0, 75, 0
2, 25721, Note_on_c, 0, 73, 0
2, 25728, Note_on_c, 0, 75, 103
2, 25728, Note_on_c, 0, 72, 103
2, 25920, Note_on_c, 0, 75, 0
2, 25920, Note_on_c, 0, 73, 84
2, 26009, Note_on_c, 0, 73, 0
2, 26009, Note_on_c, 0, 72, 0
2, 26016, Note_on_c, 0, 73, 103
2, 26016, Note_on_c, 0, 70, 103
2, 26112, Note_on_c, 0, 73, 0
2, 26112, Note_on_c, 0, 72, 84
2, 26160, Note_on_c, 0, 70, 0
2, 26160, Note_on_c, 0, 68, 84
2, 26205, Note_on_c, 0, 72, 0
2, 26205, Note_on_c, 0, 68, 0
2, 26208, Note_on_c, 0, 70, 84
2, 26208, Note_on_c, 0, 68, 84
2, 26304, Note_on_c, 0, 68, 0
2, 26304, Note_on_c, 0, 67, 79
2, 26393, Note_on_c, 0, 70, 0
2, 26393, Note_on_c, 0, 67, 0
2, 26688, Note_on_c, 0, 75, 75
2, 26873, Note_on_c, 0, 75, 0
2, 26880, Note_on_c, 0, 73, 94
2, 27161, Note_on_c, 0, 73, 0
2, 27168, Note_on_c, 0, 72, 94
2, 27345, Note_on_c, 0, 72, 0
2, 27384, Note_on_c, 0, 64, 75
2, 27408, Note_on_c, 0, 64, 0
2, 27408, Note_on_c, 0, 65, 76
2, 27418, Note_on_c, 0, 65, 0
2, 27432, Note_on_c, 0, 69, 78
2, 27456, Note_on_c, 0, 69, 0
2, 27456, Note_on_c, 0, 70, 80
2, 27466, Note_on_c, 0, 70, 0
2, 27480, Note_on_c, 0, 76, 82
2, 27504, Note_on_c, 0, 76, 0
2, 27504, Note_on_c, 0, 77, 84
2, 27527, Note_on_c, 0, 77, 0
2, 27528, Note_on_c, 0, 72, 82
2, 27552, Note_on_c, 0, 72, 0
2, 27552, Note_on_c, 0, 73, 81
2, 27575, Note_on_c, 0, 73, 0
2, 27576, Note_on_c, 0, 69, 79
2, 27600, Note_on_c, 0, 69, 0
2, 27600, Note_on_c, 0, 70, 78
2, 27623, Note_on_c, 0, 70, 0
2, 27624, Note_on_c, 0, 65, 76
2, 27647, Note_on_c, 0, 65, 0
2, 27672, Note_on_c, 0, 62, 75
2, 27696, Note_on_c, 0, 62, 0
2, 27696, Note_on_c, 0, 63, 76
2, 27706, Note_on_c, 0, 63, 0
2, 27720, Note_on_c, 0, 67, 78
2, 27744, Note_on_c, 0, 67, 0
2, 27744, Note_on_c, 0, 68, 80
2, 27754, Note_on_c, 0, 68, 0
2, 27768, Note_on_c, 0, 74, 82
2, 27792, Note_on_c, 0, 74, 0
2, 27792, Note_on_c, 0, 75, 84
2, 27802, Note_on_c, 0, 75, 0
2, 27816, Note_on_c, 0, 83, 82
2, 27840, Note_on_c, 0, 83, 0
2, 27840, Note_on_c, 0, 84, 81
2, 27863, Note_on_c, 0, 84, 0
2, 27864, Note_on_c, 0, 79, 79
2, 27888, Note_on_c, 0, 79, 0
2, 27888, Note_on_c, 0, 80, 78
2, 27911, Note_on_c, 0, 80, 0
2, 27912, Note_on_c, 0, 75, 76
2, 27935, Note_on_c, 0, 75, 0
2, 27936, Note_on_c, 0, 76, 75
2, 27959, Note_on_c, 0, 76, 0
2, 27960, Note_on_c, 0, 77, 75
2, 27983, Note_on_c, 0, 77, 0
2, 27984, Note_on_c, 0, 73, 75
2, 28007, Note_on_c, 0, 73, 0
2, 28008, Note_on_c, 0, 70, 75
2, 28031, Note_on_c, 0, 70, 0
2, 28032, Note_on_c, 0, 73, 75
2, 28055, Note_on_c, 0, 73, 0
2, 28056, Note_on_c, 0, 72, 75
2, 28079, Note_on_c, 0, 72, 0
2, 28080, Note_on_c, 0, 75, 75
2, 28103, Note_on_c, 0, 75, 0
2, 28104, Note_on_c, 0, 68, 75
2, 28127, Note_on_c, 0, 68, 0
2, 28128, Note_on_c, 0, 72, 75
2, 28151, Note_on_c, 0, 72, 0
2, 28152, Note_on_c, 0, 70, 71
2, 28175, Note_on_c, 0, 70, 0
2, 28176, Note_on_c, 0, 68, 68
2, 28182, Note_on_c, 0, 68, 0
2, 28182, Note_on_c, 0, 70, 68
2, 28188, Note_on_c, 0, 70, 0
2, 28188, Note_on_c, 0, 68, 68
2, 28199, Note_on_c, 0, 68, 0
2, 28200, Note_on_c, 0, 67, 64
2, 28223, Note_on_c, 0, 67, 0
2, 28224, Note_on_c, 0, 68, 61
2, 28439, Note_on_c, 0, 68, 0
2, 28440, Note_on_c, 0, 73, 60
2, 28463, Note_on_c, 0, 73, 0
2, 28464, Note_on_c, 0, 72, 60
2, 28487, Note_on_c, 0, 72, 0
2, 28488, Note_on_c, 0, 70, 60
2, 28511, Note_on_c, 0, 70, 0
2, 28512, Note_on_c, 0, 68, 59
2, 28727, Note_on_c, 0, 68, 0
2, 28728, Note_on_c, 0, 61, 57
2, 28751, Note_on_c, 0, 61, 0
2, 28752, Note_on_c, 0, 60, 57
2, 28775, Note_on_c, 0, 60, 0
2, 28776, Note_on_c, 0, 58, 57
2, 28799, Note_on_c, 0, 58, 0
2, 28800, Note_on_c, 0, 58, 57
2, 28992, Note_on_c, 0, 58, 0
2, 28992, Note_on_c, 0, 60, 57
2, 29065, Note_on_c, 0, 60, 0
2, 29136, Note_on_c, 0, 70, 75
2, 29181, Note_on_c, 0, 70, 0
2, 29184, Note_on_c, 0, 72, 75
2, 29207, Note_on_c, 0, 72, 0
2, 29208, Note_on_c, 0, 70, 75
2, 29231, Note_on_c, 0, 70, 0
2, 29232, Note_on_c, 0, 68, 75
2, 29255, Note_on_c, 0, 68, 0
2, 29256, Note_on_c, 0, 67, 75
2, 29279, Note_on_c, 0, 67, 0
2, 29280, Note_on_c, 0, 77, 75
2, 29303, Note_on_c, 0, 77, 0
2, 29304, Note_on_c, 0, 75, 75
2, 29327, Note_on_c, 0, 75, 0
2, 29328, Note_on_c, 0, 74, 75
2, 29351, Note_on_c, 0, 74, 0
2, 29352, Note_on_c, 0, 72, 75
2, 29375, Note_on_c, 0, 72, 0
2, 29376, Note_on_c, 0, 72, 75
2, 29400, Note_on_c, 0, 72, 0
2, 29400, Note_on_c, 0, 70, 75
2, 29410, Note_on_c, 0, 70, 0
2, 29424, Note_on_c, 0, 70, 75
2, 29469, Note_on_c, 0, 70, 0
2, 29472, Note_on_c, 0, 70, 75
2, 29517, Note_on_c, 0, 70, 0
2, 29520, Note_on_c, 0, 67, 75
2, 29554, Note_on_c, 0, 67, 0
2, 29556, Note_on_c, 0, 70, 75
2, 29568, Note_on_c, 0, 70, 0
2, 29568, Note_on_c, 0, 70, 75
2, 29591, Note_on_c, 0, 70, 0
2, 29592, Note_on_c, 0, 68, 75
2, 29615, Note_on_c, 0, 68, 0
2, 29616, Note_on_c, 0, 67, 75
2, 29639, Note_on_c, 0, 67, 0
2, 29640, Note_on_c, 0, 65, 75
2, 29663, Note_on_c, 0, 65, 0
2, 29664, Note_on_c, 0, 65, 75
2, 29760, Note_on_c, 0, 65, 0
2, 29760, Note_on_c, 0, 67, 75
2, 29805, Note_on_c, 0, 67, 0
2, 29808, Note_on_c, 0, 63, 75
2, 29842, Note_on_c, 0, 63, 0
2, 29844, Note_on_c, 0, 67, 75
2, 29856, Note_on_c, 0, 67, 0
2, 29856, Note_on_c, 0, 67, 75
2, 29879, Note_on_c, 0, 67, 0
2, 29880, Note_on_c, 0, 65, 75
2, 29903, Note_on_c, 0, 65, 0
2, 29904, Note_on_c, 0, 63, 75
2, 29910, Note_on_c, 0, 63, 0
2, 29910, Note_on_c, 0, 65, 75
2, 29916, Note_on_c, 0, 65, 0
2, 29916, Note_on_c, 0, 63, 75
2, 29927, Note_on_c, 0, 63, 0
2, 29928, Note_on_c, 0, 62, 75
2, 29951, Note_on_c, 0, 62, 0
2, 29952, Note_on_c, 0, 63, 75
2, 29997, Note_on_c, 0, 63, 0
2, 30000, Note_on_c, 0, 58, 75
2, 30045, Note_on_c, 0, 58, 0
2, 30264, Note_on_c, 0, 75, 75
2, 30287, Note_on_c, 0, 75, 0
2, 30288, Note_on_c, 0, 74, 75
2, 30311, Note_on_c, 0, 74, 0
2, 30312, Note_on_c, 0, 75, 76
2, 30335, Note_on_c, 0, 75, 0
2, 30336, Note_on_c, 0, 77, 77
2, 30359, Note_on_c, 0, 77, 0
2, 30360, Note_on_c, 0, 75, 78
2, 30383, Note_on_c, 0, 75, 0
2, 30384, Note_on_c, 0, 74, 79
2, 30407, Note_on_c, 0, 74, 0
2, 30408, Note_on_c, 0, 75, 79
2, 30431, Note_on_c, 0, 75, 0
2, 30432, Note_on_c, 0, 78, 80
2, 30455, Note_on_c, 0, 78, 0
2, 30456, Note_on_c, 0, 75, 81
2, 30479, Note_on_c, 0, 75, 0
2, 30480, Note_on_c, 0, 73, 82
2, 30486, Note_on_c, 0, 73, 0
2, 30486, Note_on_c, 0, 75, 82
2, 30492, Note_on_c, 0, 75, 0
2, 30492, Note_on_c, 0, 73, 82
2, 30503, Note_on_c, 0, 73, 0
2, 30504, Note_on_c, 0, 72, 83
2, 30527, Note_on_c, 0, 72, 0
2, 30528, Note_on_c, 0, 70, 84
2, 30624, Note_on_c, 0, 70, 0
2, 30624, Note_on_c, 0, 69, 76
2, 30630, Note_on_c, 0, 69, 0
2, 30630, Note_on_c, 0, 70, 76
2, 30636, Note_on_c, 0, 70, 0
2, 30636, Note_on_c, 0, 69, 76
2, 30715, Note_on_c, 0, 69, 0
2, 30840, Note_on_c, 0, 66, 75
2, 30863, Note_on_c, 0, 66, 0
2, 30864, Note_on_c, 0, 65, 75
2, 30887, Note_on_c, 0, 65, 0
2, 30888, Note_on_c, 0, 64, 76
2, 30911, Note_on_c, 0, 64, 0
2, 30912, Note_on_c, 0, 65, 77
2, 30935, Note_on_c, 0, 65, 0
2, 30936, Note_on_c, 0, 69, 78
2, 30959, Note_on_c, 0, 69, 0
2, 30960, Note_on_c, 0, 72, 79
2, 30983, Note_on_c, 0, 72, 0
2, 30984, Note_on_c, 0, 69, 79
2, 31007, Note_on_c, 0, 69, 0
2, 31008, Note_on_c, 0, 75, 80
2, 31031, Note_on_c, 0, 75, 0
2, 31032, Note_on_c, 0, 72, 81
2, 31055, Note_on_c, 0, 72, 0
2, 31056, Note_on_c, 0, 78, 82
2, 31079, Note_on_c, 0, 78, 0
2, 31080, Note_on_c, 0, 75, 83
2, 31103, Note_on_c, 0, 75, 0
2, 31104, Note_on_c, 0, 75, 84
2, 31200, Note_on_c, 0, 75, 0
2, 31200, Note_on_c, 0, 73, 76
2, 31206, Note_on_c, 0, 73, 0
2, 31206, Note_on_c, 0, 75, 76
2, 31212, Note_on_c, 0, 75, 0
2, 31212, Note_on_c, 0, 73, 76
2, 31291, Note_on_c, 0, 73, 0
2, 31320, Note_on_c, 0, 77, 75
2, 31343, Note_on_c, 0, 77, 0
2, 31344, Note_on_c, 0, 78, 75
2, 31350, Note_on_c, 0, 78, 0
2, 31350, Note_on_c, 0, 77, 75
2, 31356, Note_on_c, 0, 77, 0
2, 31356, Note_on_c, 0, 78, 75
2, 31367, Note_on_c, 0, 78, 0
2, 31368, Note_on_c, 0, 82, 75
2, 31391, Note_on_c, 0, 82, 0
2, 31392, Note_on_c, 0, 76, 75
2, 31511, Note_on_c, 0, 76, 0
2, 31512, Note_on_c, 0, 77, 75
2, 31535, Note_on_c, 0, 77, 0
2, 31536, Note_on_c, 0, 79, 75
2, 31559, Note_on_c, 0, 79, 0
2, 31560, Note_on_c, 0, 80, 75
2, 31583, Note_on_c, 0, 80, 0
2, 31584, Note_on_c, 0, 82, 75
2, 31703, Note_on_c, 0, 82, 0
2, 31704, Note_on_c, 0, 80, 75
2, 31727, Note_on_c, 0, 80, 0
2, 31728, Note_on_c, 0, 82, 75
2, 31751, Note_on_c, 0, 82, 0
2, 31752, Note_on_c, 0, 84, 75
2, 31775, Note_on_c, 0, 84, 0
2, 31776, Note_on_c, 0, 73, 75
2, 31895, Note_on_c, 0, 73, 0
2, 31896, Note_on_c, 0, 72, 75
2, 31919, Note_on_c, 0, 72, 0
2, 31920, Note_on_c, 0, 82, 75
2, 31943, Note_on_c, 0, 82, 0
2, 31944, Note_on_c, 0, 79, 75
2, 31967, Note_on_c, 0, 79, 0
2, 31992, Note_on_c, 0, 80, 75
2, 32015, Note_on_c, 0, 80, 0
2, 32016, Note_on_c, 0, 84, 75
2, 32039, Note_on_c, 0, 84, 0
2, 32040, Note_on_c, 0, 77, 75
2, 32063, Note_on_c, 0, 77, 0
2, 32088, Note_on_c, 0, 76, 75
2, 32111, Note_on_c, 0, 76, 0
2, 32112, Note_on_c, 0, 79, 75
2, 32135, Note_on_c, 0, 79, 0
2, 32136, Note_on_c, 0, 76, 75
2, 32159, Note_on_c, 0, 76, 0
2, 32184, Note_on_c, 0, 76, 75
2, 32207, Note_on_c, 0, 76, 0
2, 32208, Note_on_c, 0, 77, 75
2, 32231, Note_on_c, 0, 77, 0
2, 32232, Note_on_c, 0, 72, 75
2, 32255, Note_on_c, 0, 72, 0
2, 32256, Note_on_c, 0, 75, 75
2, 32279, Note_on_c, 0, 75, 0
2, 32280, Note_on_c, 0, 73, 75
2, 32303, Note_on_c, 0, 73, 0
2, 32304, Note_on_c, 0, 72, 75
2, 32327, Note_on_c, 0, 72, 0
2, 32328, Note_on_c, 0, 70, 75
2, 32351, Note_on_c, 0, 70, 0
2, 32352, Note_on_c, 0, 70, 75
2, 32375, Note_on_c, 0, 70, 0
2, 32376, Note_on_c, 0, 68, 75
2, 32399, Note_on_c, 0, 68, 0
2, 32400, Note_on_c, 0, 72, 75
2, 32423, Note_on_c, 0, 72, 0
2, 32424, Note_on_c, 0, 65, 75
2, 32447, Note_on_c, 0, 65, 0
2, 32448, Note_on_c, 0, 68, 75
2, 32471, Note_on_c, 0, 68, 0
2, 32472, Note_on_c, 0, 67, 73
2, 32478, Note_on_c, 0, 67, 0
2, 32478, Note_on_c, 0, 68, 73
2, 32484, Note_on_c, 0, 68, 0
2, 32484, Note_on_c, 0, 67, 73
2, 32495, Note_on_c, 0, 67, 0
2, 32496, Note_on_c, 0, 65, 72
2, 32519, Note_on_c, 0, 65, 0
2, 32520, Note_on_c, 0, 64, 70
2, 32543, Note_on_c, 0, 64, 0
2, 32568, Note_on_c, 0, 65, 61
2, 32591, Note_on_c, 0, 65, 0
2, 32592, Note_on_c, 0, 67, 61
2, 32615, Note_on_c, 0, 67, 0
2, 32616, Note_on_c, 0, 65, 61
2, 32639, Note_on_c, 0, 65, 0
2, 32640, Note_on_c, 0, 68, 61
2, 32663, Note_on_c, 0, 68, 0
2, 32664, Note_on_c, 0, 67, 61
2, 32687, Note_on_c, 0, 67, 0
2, 32688, Note_on_c, 0, 70, 61
2, 32711, Note_on_c, 0, 70, 0
2, 32712, Note_on_c, 0, 69, 61
2, 32735, Note_on_c, 0, 69, 0
2, 32736, Note_on_c, 0, 70, 61
2, 32759, Note_on_c, 0, 70, 0
2, 32760, Note_on_c, 0, 67, 61
2, 32783, Note_on_c, 0, 67, 0
2, 32784, Note_on_c, 0, 65, 61
2, 32790, Note_on_c, 0, 65, 0
2, 32790, Note_on_c, 0, 67, 61
2, 32796, Note_on_c, 0, 67, 0
2, 32796, Note_on_c, 0, 65, 61
2, 32807, Note_on_c, 0, 65, 0
2, 32808, Note_on_c, 0, 64, 61
2, 32831, Note_on_c, 0, 64, 0
2, 32856, Note_on_c, 0, 68, 61
2, 32879, Note_on_c, 0, 68, 0
2, 32880, Note_on_c, 0, 70, 62
2, 32903, Note_on_c, 0, 70, 0
2, 32904, Note_on_c, 0, 68, 63
2, 32927, Note_on_c, 0, 68, 0
2, 32928, Note_on_c, 0, 72, 64
2, 32951, Note_on_c, 0, 72, 0
2, 32952, Note_on_c, 0, 70, 65
2, 32975, Note_on_c, 0, 70, 0
2, 32976, Note_on_c, 0, 73, 66
2, 32999, Note_on_c, 0, 73, 0
2, 33000, Note_on_c, 0, 72, 67
2, 33023, Note_on_c, 0, 72, 0
2, 33024, Note_on_c, 0, 73, 68
2, 33047, Note_on_c, 0, 73, 0
2, 33048, Note_on_c, 0, 70, 68
2, 33071, Note_on_c, 0, 70, 0
2, 33072, Note_on_c, 0, 68, 69
2, 33078, Note_on_c, 0, 68, 0
2, 33078, Note_on_c, 0, 70, 69
2, 33084, Note_on_c, 0, 70, 0
2, 33084, Note_on_c, 0, 68, 69
2, 33095, Note_on_c, 0, 68, 0
2, 33096, Note_on_c, 0, 67, 70
2, 33119, Note_on_c, 0, 67, 0
2, 33120, Note_on_c, 0, 68, 71
2, 33143, Note_on_c, 0, 68, 0
2, 33144, Note_on_c, 0, 72, 72
2, 33167, Note_on_c, 0, 72, 0
2, 33168, Note_on_c, 0, 73, 73
2, 33191, Note_on_c, 0, 73, 0
2, 33192, Note_on_c, 0, 72, 74
2, 33215, Note_on_c, 0, 72, 0
2, 33216, Note_on_c, 0, 75, 75
2, 33239, Note_on_c, 0, 75, 0
2, 33240, Note_on_c, 0, 73, 76
2, 33263, Note_on_c, 0, 73, 0
2, 33264, Note_on_c, 0, 77, 76
2, 33287, Note_on_c, 0, 77, 0
2, 33288, Note_on_c, 0, 76, 77
2, 33311, Note_on_c, 0, 76, 0
2, 33312, Note_on_c, 0, 77, 78
2, 33335, Note_on_c, 0, 77, 0
2, 33336, Note_on_c, 0, 73, 79
2, 33359, Note_on_c, 0, 73, 0
2, 33360, Note_on_c, 0, 72, 80
2, 33383, Note_on_c, 0, 72, 0
2, 33384, Note_on_c, 0, 70, 81
2, 33407, Note_on_c, 0, 70, 0
2, 33408, Control_c, 0, 64, 127
2, 33432, Note_on_c, 0, 72, 83
2, 33442, Note_on_c, 0, 72, 0
2, 33456, Note_on_c, 0, 75, 84
2, 33466, Note_on_c, 0, 75, 0
2, 33480, Note_on_c, 0, 80, 84
2, 33490, Note_on_c, 0, 80, 0
2, 33504, Note_on_c, 0, 84, 84
2, 33514, Note_on_c, 0, 84, 0
2, 33528, Note_on_c, 0, 80, 84
2, 33538, Note_on_c, 0, 80, 0
2, 33552, Note_on_c, 0, 75, 84
2, 33562, Note_on_c, 0, 75, 0
2, 33576, Note_on_c, 0, 80, 84
2, 33586, Note_on_c, 0, 80, 0
2, 33600, Note_on_c, 0, 72, 84
2, 33610, Note_on_c, 0, 72, 0
2, 33624, Note_on_c, 0, 75, 84
2, 33634, Note_on_c, 0, 75, 0
2, 33648, Note_on_c, 0, 68, 84
2, 33658, Note_on_c, 0, 68, 0
2, 33672, Note_on_c, 0, 72, 84
2, 33682, Note_on_c, 0, 72, 0
2, 33696, Control_c, 0, 64, 0
2, 33696, Control_c, 0, 64, 127
2, 33696, Control_c, 0, 64, 127
2, 33720, Note_on_c, 0, 71, 84
2, 33730, Note_on_c, 0, 71, 0
2, 33744, Note_on_c, 0, 75, 84
2, 33754, Note_on_c, 0, 75, 0
2, 33768, Note_on_c, 0, 80, 84
2, 33778, Note_on_c, 0, 80, 0
2, 33792, Note_on_c, 0, 83, 84
2, 33802, Note_on_c, 0, 83, 0
2, 33816, Note_on_c, 0, 80, 84
2, 33826, Note_on_c, 0, 80, 0
2, 33840, Note_on_c, 0, 75, 84
2, 33850, Note_on_c, 0, 75, 0
2, 33864, Note_on_c, 0, 80, 84
2, 33874, Note_on_c, 0, 80, 0
2, 33888, Note_on_c, 0, 71, 84
2, 33898, Note_on_c, 0, 71, 0
2, 33912, Note_on_c, 0, 75, 84
2, 33922, Note_on_c, 0, 75, 0
2, 33936, Note_on_c, 0, 68, 84
2, 33946, Note_on_c, 0, 68, 0
2, 33960, Note_on_c, 0, 71, 84
2, 33970, Note_on_c, 0, 71, 0
2, 33984, Control_c, 0, 64, 0
2, 33996, Note_on_c, 0, 71, 84
2, 34008, Note_on_c, 0, 71, 0
2, 34008, Note_on_c, 0, 73, 84
2, 34020, Note_on_c, 0, 73, 0
2, 34020, Note_on_c, 0, 75, 84
2, 34032, Note_on_c, 0, 75, 0
2, 34032, Note_on_c, 0, 76, 84
2, 34044, Note_on_c, 0, 76, 0
2, 34044, Note_on_c, 0, 78, 84
2, 34056, Note_on_c, 0, 78, 0
2, 34056, Note_on_c, 0, 80, 84
2, 34068, Note_on_c, 0, 80, 0
2, 34068, Note_on_c, 0, 81, 84
2, 34080, Note_on_c, 0, 81, 0
2, 34080, Control_c, 0, 64, 127
2, 34080, Note_on_c, 0, 83, 84
2, 34103, Note_on_c, 0, 83, 0
2, 34104, Note_on_c, 0, 80, 84
2, 34114, Note_on_c, 0, 80, 0
2, 34128, Note_on_c, 0, 76, 84
2, 34138, Note_on_c, 0, 76, 0
2, 34152, Note_on_c, 0, 80, 84
2, 34162, Note_on_c, 0, 80, 0
2, 34176, Note_on_c, 0, 71, 84
2, 34186, Note_on_c, 0, 71, 0
2, 34200, Note_on_c, 0, 76, 84
2, 34210, Note_on_c, 0, 76, 0
2, 34224, Note_on_c, 0, 68, 84
2, 34234, Note_on_c, 0, 68, 0
2, 34248, Note_on_c, 0, 71, 84
2, 34258, Note_on_c, 0, 71, 0
2, 34272, Control_c, 0, 64, 0
2, 34272, Control_c, 0, 64, 127
2, 34272, Control_c, 0, 64, 127
2, 34296, Control_c, 0, 64, 127
2, 34296, Note_on_c, 0, 71, 84
2, 34306, Note_on_c, 0, 71, 0
2, 34320, Note_on_c, 0, 77, 84
2, 34330, Note_on_c, 0, 77, 0
2, 34344, Note_on_c, 0, 80, 84
2, 34354, Note_on_c, 0, 80, 0
2, 34368, Note_on_c, 0, 83, 84
2, 34378, Note_on_c, 0, 83, 0
2, 34392, Note_on_c, 0, 80, 84
2, 34402, Note_on_c, 0, 80, 0
2, 34416, Note_on_c, 0, 77, 84
2, 34426, Note_on_c, 0, 77, 0
2, 34440, Note_on_c, 0, 80, 84
2, 34450, Note_on_c, 0, 80, 0
2, 34464, Control_c, 0, 64, 0
2, 34464, Note_on_c, 0, 74, 84
2, 34474, Note_on_c, 0, 74, 0
2, 34488, Note_on_c, 0, 71, 83
2, 34498, Note_on_c, 0, 71, 0
2, 34512, Note_on_c, 0, 70, 82
2, 34522, Note_on_c, 0, 70, 0
2, 34536, Note_on_c, 0, 68, 81
2, 34546, Note_on_c, 0, 68, 0
2, 34560, Note_on_c, 0, 68, 81
2, 34583, Note_on_c, 0, 68, 0
2, 34584, Note_on_c, 0, 67, 80
2, 34607, Note_on_c, 0, 67, 0
2, 34608, Note_on_c, 0, 70, 79
2, 34631, Note_on_c, 0, 70, 0
2, 34632, Note_on_c, 0, 62, 78
2, 34655, Note_on_c, 0, 62, 0
2, 34656, Note_on_c, 0, 63, 78
2, 34745, Note_on_c, 0, 63, 0
2, 34896, Note_on_c, 0, 75, 75
2, 34941, Note_on_c, 0, 75, 0
2, 34944, Note_on_c, 0, 77, 75
2, 34968, Note_on_c, 0, 77, 0
2, 34968, Note_on_c, 0, 75, 75
2, 34991, Note_on_c, 0, 75, 0
2, 34992, Note_on_c, 0, 73, 75
2, 34998, Note_on_c, 0, 73, 0
2, 34998, Note_on_c, 0, 75, 75
2, 35004, Note_on_c, 0, 75, 0
2, 35004, Note_on_c, 0, 73, 75
2, 35015, Note_on_c, 0, 73, 0
2, 35016, Note_on_c, 0, 72, 75
2, 35039, Note_on_c, 0, 72, 0
2, 35040, Note_on_c, 0, 82, 75
2, 35064, Note_on_c, 0, 82, 0
2, 35064, Note_on_c, 0, 80, 75
2, 35087, Note_on_c, 0, 80, 0
2, 35088, Note_on_c, 0, 79, 75
2, 35111, Note_on_c, 0, 79, 0
2, 35112, Note_on_c, 0, 77, 75
2, 35135, Note_on_c, 0, 77, 0
2, 35136, Note_on_c, 0, 77, 75
2, 35160, Note_on_c, 0, 77, 0
2, 35160, Note_on_c, 0, 75, 75
2, 35170, Note_on_c, 0, 75, 0
2, 35184, Note_on_c, 0, 75, 75
2, 35247, Note_on_c, 0, 75, 0
2, 35248, Note_on_c, 0, 77, 75
2, 35263, Note_on_c, 0, 77, 0
2, 35264, Note_on_c, 0, 79, 75
2, 35279, Note_on_c, 0, 79, 0
2, 35280, Note_on_c, 0, 80, 75
2, 35295, Note_on_c, 0, 80, 0
2, 35296, Note_on_c, 0, 82, 75
2, 35311, Note_on_c, 0, 82, 0
2, 35312, Note_on_c, 0, 84, 75
2, 35327, Note_on_c, 0, 84, 0
2, 35328, Note_on_c, 0, 75, 75
2, 35373, Note_on_c, 0, 75, 0
2, 35376, Note_on_c, 0, 73, 75
2, 35383, Note_on_c, 0, 73, 0
2, 35383, Note_on_c, 0, 75, 75
2, 35390, Note_on_c, 0, 75, 0
2, 35390, Note_on_c, 0, 73, 75
2, 35397, Note_on_c, 0, 73, 0
2, 35397, Note_on_c, 0, 75, 75
2, 35404, Note_on_c, 0, 75, 0
2, 35404, Note_on_c, 0, 73, 75
2, 35411, Note_on_c, 0, 73, 0
2, 35411, Note_on_c, 0, 72, 75
2, 35418, Note_on_c, 0, 72, 0
2, 35418, Note_on_c, 0, 73, 75
2, 35424, Note_on_c, 0, 73, 0
2, 35424, Note_on_c, 0, 73, 91
2, 35543, Note_on_c, 0, 73, 0
2, 35544, Note_on_c, 0, 72, 75
2, 35567, Note_on_c, 0, 72, 0
2, 35568, Note_on_c, 0, 75, 75
2, 35602, Note_on_c, 0, 75, 0
2, 35604, Note_on_c, 0, 68, 75
2, 35616, Note_on_c, 0, 68, 0
2, 35616, Note_on_c, 0, 72, 75
2, 35639, Note_on_c, 0, 72, 0
2, 35640, Note_on_c, 0, 70, 75
2, 35663, Note_on_c, 0, 70, 0
2, 35664, Note_on_c, 0, 68, 75
2, 35670, Note_on_c, 0, 68, 0
2, 35670, Note_on_c, 0, 70, 75
2, 35676, Note_on_c, 0, 70, 0
2, 35676, Note_on_c, 0, 68, 75
2, 35687, Note_on_c, 0, 68, 0
2, 35688, Note_on_c, 0, 67, 75
2, 35711, Note_on_c, 0, 67, 0
2, 35712, Note_on_c, 0, 68, 75
2, 35757, Note_on_c, 0, 68, 0
2, 35760, Note_on_c, 0, 63, 75
2, 35805, Note_on_c, 0, 63, 0
2, 36024, Note_on_c, 0, 76, 75
2, 36047, Note_on_c, 0, 76, 0
2, 36048, Note_on_c, 0, 77, 75
2, 36071, Note_on_c, 0, 77, 0
2, 36072, Note_on_c, 0, 80, 75
2, 36095, Note_on_c, 0, 80, 0
2, 36096, Note_on_c, 0, 77, 75
2, 36119, Note_on_c, 0, 77, 0
2, 36120, Note_on_c, 0, 75, 75
2, 36143, Note_on_c, 0, 75, 0
2, 36144, Note_on_c, 0, 84, 75
2, 36167, Note_on_c, 0, 84, 0
2, 36168, Note_on_c, 0, 80, 75
2, 36191, Note_on_c, 0, 80, 0
2, 36192, Note_on_c, 0, 75, 75
2, 36237, Note_on_c, 0, 75, 0
2, 36240, Note_on_c, 0, 73, 75
2, 36247, Note_on_c, 0, 73, 0
2, 36247, Note_on_c, 0, 75, 75
2, 36254, Note_on_c, 0, 75, 0
2, 36254, Note_on_c, 0, 73, 75
2, 36261, Note_on_c, 0, 73, 0
2, 36261, Note_on_c, 0, 75, 75
2, 36268, Note_on_c, 0, 75, 0
2, 36268, Note_on_c, 0, 73, 75
2, 36275, Note_on_c, 0, 73, 0
2, 36275, Note_on_c, 0, 72, 75
2, 36282, Note_on_c, 0, 72, 0
2, 36282, Note_on_c, 0, 73, 75
2, 36288, Note_on_c, 0, 73, 0
2, 36288, Note_on_c, 0, 73, 75
2, 36336, Note_on_c, 0, 73, 0
2, 36336, Note_on_c, 0, 72, 75
2, 36381, Note_on_c, 0, 72, 0
2, 36600, Note_on_c, 0, 76, 75
2, 36623, Note_on_c, 0, 76, 0
2, 36624, Note_on_c, 0, 77, 75
2, 36647, Note_on_c, 0, 77, 0
2, 36648, Note_on_c, 0, 80, 75
2, 36671, Note_on_c, 0, 80, 0
2, 36696, Note_on_c, 0, 74, 75
2, 36719, Note_on_c, 0, 74, 0
2, 36720, Note_on_c, 0, 75, 75
2, 36743, Note_on_c, 0, 75, 0
2, 36744, Note_on_c, 0, 80, 75
2, 36767, Note_on_c, 0, 80, 0
2, 36768, Note_on_c, 0, 75, 75
2, 36791, Note_on_c, 0, 75, 0
2, 36792, Note_on_c, 0, 73, 75
2, 36815, Note_on_c, 0, 73, 0
2, 36816, Note_on_c, 0, 82, 75
2, 36839, Note_on_c, 0, 82, 0
2, 36840, Note_on_c, 0, 73, 75
2, 36863, Note_on_c, 0, 73, 0
2, 36888, Note_on_c, 0, 72, 75
2, 36911, Note_on_c, 0, 72, 0
2, 36912, Note_on_c, 0, 75, 75
2, 36935, Note_on_c, 0, 75, 0
2, 36936, Note_on_c, 0, 72, 76
2, 36959, Note_on_c, 0, 72, 0
2, 36960, Note_on_c, 0, 69, 77
2, 36983, Note_on_c, 0, 69, 0
2, 36984, Note_on_c, 0, 70, 78
2, 37007, Note_on_c, 0, 70, 0
2, 37008, Note_on_c, 0, 73, 79
2, 37031, Note_on_c, 0, 73, 0
2, 37032, Note_on_c, 0, 77, 79
2, 37055, Note_on_c, 0, 77, 0
2, 37056, Note_on_c, 0, 75, 80
2, 37079, Note_on_c, 0, 75, 0
2, 37080, Note_on_c, 0, 73, 81
2, 37103, Note_on_c, 0, 73, 0
2, 37104, Note_on_c, 0, 72, 82
2, 37127, Note_on_c, 0, 72, 0
2, 37128, Note_on_c, 0, 70, 83
2, 37151, Note_on_c, 0, 70, 0
2, 37152, Note_on_c, 0, 68, 84
2, 37248, Note_on_c, 0, 68, 0
2, 37248, Note_on_c, 0, 67, 76
2, 37254, Note_on_c, 0, 67, 0
2, 37254, Note_on_c, 0, 68, 76
2, 37260, Note_on_c, 0, 68, 0
2, 37260, Note_on_c, 0, 67, 76
2, 37339, Note_on_c, 0, 67, 0
2, 37464, Note_on_c, 0, 68, 75
2, 37487, Note_on_c, 0, 68, 0
2, 37488, Note_on_c, 0, 70, 75
2, 37511, Note_on_c, 0, 70, 0
2, 37512, Note_on_c, 0, 67, 76
2, 37535, Note_on_c, 0, 67, 0
2, 37536, Note_on_c, 0, 68, 77
2, 37559, Note_on_c, 0, 68, 0
2, 37560, Note_on_c, 0, 70, 78
2, 37583, Note_on_c, 0, 70, 0
2, 37584, Note_on_c, 0, 72, 79
2, 37607, Note_on_c, 0, 72, 0
2, 37608, Note_on_c, 0, 73, 79
2, 37631, Note_on_c, 0, 73, 0
2, 37632, Note_on_c, 0, 75, 80
2, 37656, Note_on_c, 0, 75, 0
2, 37656, Note_on_c, 0, 77, 81
2, 37679, Note_on_c, 0, 77, 0
2, 37680, Note_on_c, 0, 73, 82
2, 37703, Note_on_c, 0, 73, 0
2, 37704, Note_on_c, 0, 70, 83
2, 37727, Note_on_c, 0, 70, 0
2, 37728, Note_on_c, 0, 68, 84
2, 37824, Note_on_c, 0, 68, 0
2, 37824, Note_on_c, 0, 67, 76
2, 37830, Note_on_c, 0, 67, 0
2, 37830, Note_on_c, 0, 68, 76
2, 37836, Note_on_c, 0, 68, 0
2, 37836, Note_on_c, 0, 67, 76
2, 37915, Note_on_c, 0, 67, 0
2, 38040, Note_on_c, 0, 68, 75
2, 38063, Note_on_c, 0, 68, 0
2, 38064, Note_on_c, 0, 70, 75
2, 38087, Note_on_c, 0, 70, 0
2, 38088, Note_on_c, 0, 67, 76
2, 38111, Note_on_c, 0, 67, 0
2, 38112, Note_on_c, 0, 68, 77
2, 38135, Note_on_c, 0, 68, 0
2, 38136, Note_on_c, 0, 70, 78
2, 38159, Note_on_c, 0, 70, 0
2, 38160, Note_on_c, 0, 72, 79
2, 38183, Note_on_c, 0, 72, 0
2, 38184, Note_on_c, 0, 73, 79
2, 38207, Note_on_c, 0, 73, 0
2, 38208, Note_on_c, 0, 75, 80
2, 38231, Note_on_c, 0, 75, 0
2, 38232, Note_on_c, 0, 77, 81
2, 38255, Note_on_c, 0, 77, 0
2, 38256, Note_on_c, 0, 78, 82
2, 38279, Note_on_c, 0, 78, 0
2, 38280, Note_on_c, 0, 80, 83
2, 38303, Note_on_c, 0, 80, 0
2, 38304, Note_on_c, 0, 78, 84
2, 38304, Note_on_c, 0, 75, 84
2, 38393, Note_on_c, 0, 78, 0
2, 38393, Note_on_c, 0, 75, 0
2, 38400, Note_on_c, 0, 77, 103
2, 38400, Note_on_c, 0, 73, 103
2, 38592, Note_on_c, 0, 77, 0
2, 38592, Note_on_c, 0, 75, 84
2, 38681, Note_on_c, 0, 75, 0
2, 38681, Note_on_c, 0, 73, 0
2, 38688, Note_on_c, 0, 75, 103
2, 38688, Note_on_c, 0, 72, 103
2, 38880, Note_on_c, 0, 75, 0
2, 38880, Note_on_c, 0, 73, 84
2, 38969, Note_on_c, 0, 73, 0
2, 38969, Note_on_c, 0, 72, 0
2, 38976, Note_on_c, 0, 73, 103
2, 38976, Note_on_c, 0, 70, 103
2, 39072, Note_on_c, 0, 73, 0
2, 39072, Note_on_c, 0, 72, 84
2, 39120, Note_on_c, 0, 70, 0
2, 39120, Note_on_c, 0, 68, 84
2, 39165, Note_on_c, 0, 72, 0
2, 39165, Note_on_c, 0, 68, 0
2, 39168, Note_on_c, 0, 70, 84
2, 39168, Note_on_c, 0, 68, 84
2, 39264, Note_on_c, 0, 68, 0
2, 39264, Note_on_c, 0, 67, 79
2, 39353, Note_on_c, 0, 70, 0
2, 39353, Note_on_c, 0, 67, 0
2, 39648, Note_on_c, 0, 75, 75
2, 39833, Note_on_c, 0, 75, 0
2, 39840, Note_on_c, 0, 73, 94
2, 40121, Note_on_c, 0, 73, 0
2, 40128, Note_on_c, 0, 72, 94
2, 40305, Note_on_c, 0, 72, 0
2, 40344, Note_on_c, 0, 64, 75
2, 40368, Note_on_c, 0, 64, 0
2, 40368, Note_on_c, 0, 65, 76
2, 40378, Note_on_c, 0, 65, 0
2, 40392, Note_on_c, 0, 69, 78
2, 40416, Note_on_c, 0, 69, 0
2, 40416, Note_on_c, 0, 70, 80
2, 40426, Note_on_c, 0, 70, 0
2, 40440, Note_on_c, 0, 76, 82
2, 40464, Note_on_c, 0, 76, 0
2, 40464, Note_on_c, 0, 77, 84
2, 40487, Note_on_c, 0, 77, 0
2, 40488, Note_on_c, 0, 72, 82
2, 40512, Note_on_c, 0, 72, 0
2, 40512, Note_on_c, 0, 73, 81
2, 40535, Note_on_c, 0, 73, 0
2, 40536, Note_on_c, 0, 69, 79
2, 40560, Note_on_c, 0, 69, 0
2, 40560, Note_on_c, 0, 70, 78
2, 40583, Note_on_c, 0, 70, 0
2, 40584, Note_on_c, 0, 65, 76
2, 40607, Note_on_c, 0, 65, 0
2, 40632, Note_on_c, 0, 62, 75
2, 40656, Note_on_c, 0, 62, 0
2, 40656, Note_on_c, 0, 63, 76
2, 40666, Note_on_c, 0, 63, 0
2, 40680, Note_on_c, 0, 67, 78
2, 40704, Note_on_c, 0, 67, 0
2, 40704, Note_on_c, 0, 68, 80
2, 40714, Note_on_c, 0, 68, 0
2, 40728, Note_on_c, 0, 74, 82
2, 40752, Note_on_c, 0, 74, 0
2, 40752, Note_on_c, 0, 75, 84
2, 40762, Note_on_c, 0, 75, 0
2, 40776, Note_on_c, 0, 83, 82
2, 40800, Note_on_c, 0, 83, 0
2, 40800, Note_on_c, 0, 84, 81
2, 40823, Note_on_c, 0, 84, 0
2, 40824, Note_on_c, 0, 79, 79
2, 40848, Note_on_c, 0, 79, 0
2, 40848, Note_on_c, 0, 80, 78
2, 40871, Note_on_c, 0, 80, 0
2, 40872, Note_on_c, 0, 75, 76
2, 40895, Note_on_c, 0, 75, 0
2, 40896, Note_on_c, 0, 76, 75
2, 40919, Note_on_c, 0, 76, 0
2, 40920, Note_on_c, 0, 77, 75
2, 40943, Note_on_c, 0, 77, 0
2, 40944, Note_on_c, 0, 73, 75
2, 40967, Note_on_c, 0, 73, 0
2, 40968, Note_on_c, 0, 70, 75
2, 40991, Note_on_c, 0, 70, 0
2, 40992, Note_on_c, 0, 73, 75
2, 41015, Note_on_c, 0, 73, 0
2, 41016, Note_on_c, 0, 72, 75
2, 41039, Note_on_c, 0, 72, 0
2, 41040, Note_on_c, 0, 75, 75
2, 41063, Note_on_c, 0, 75, 0
2, 41064, Note_on_c, 0, 68, 75
2, 41087, Note_on_c, 0, 68, 0
2, 41088, Note_on_c, 0, 72, 75
2, 41111, Note_on_c, 0, 72, 0
2, 41112, Note_on_c, 0, 70, 71
2, 41135, Note_on_c, 0, 70, 0
2, 41136, Note_on_c, 0, 68, 68
2, 41142, Note_on_c, 0, 68, 0
2, 41142, Note_on_c, 0, 70, 68
2, 41148, Note_on_c, 0, 70, 0
2, 41148, Note_on_c, 0, 68, 68
2, 41159, Note_on_c, 0, 68, 0
2, 41160, Note_on_c, 0, 67, 64
2, 41183, Note_on_c, 0, 67, 0
2, 41184, Note_on_c, 0, 68, 61
2, 41399, Note_on_c, 0, 68, 0
2, 41400, Note_on_c, 0, 73, 60
2, 41423, Note_on_c, 0, 73, 0
2, 41424, Note_on_c, 0, 72, 60
2, 41447, Note_on_c, 0, 72, 0
2, 41448, Note_on_c, 0, 70, 60
2, 41471, Note_on_c, 0, 70, 0
2, 41472, Note_on_c, 0, 68, 59
2, 41687, Note_on_c, 0, 68, 0
2, 41688, Note_on_c, 0, 61, 57
2, 41711, Note_on_c, 0, 61, 0
2, 41712, Note_on_c, 0, 60, 57
2, 41735, Note_on_c, 0, 60, 0
2, 41736, Note_on_c, 0, 58, 57
2, 41759, Note_on_c, 0, 58, 0
2, 41760, Note_on_c, 0, 58, 57
2, 41952, Note_on_c, 0, 58, 0
2, 41952, Note_on_c, 0, 60, 57
2, 42025, Note_on_c, 0, 60, 0
2, 42048, End_track
3, 0, Start_track
3, 0, Program_c, 0, 0
3, 0, Control_c, 0, 7, 127
3, 0, Control_c, 0, 10, 64
3, 5688, Note_on_c, 0, 73, 64
3, 5711, Note_on_c, 0, 73, 0
3, 5712, Note_on_c, 0, 75, 64
3, 5735, Note_on_c, 0, 75, 0
3, 5736, Note_on_c, 0, 73, 64
3, 5759, Note_on_c, 0, 73, 0
3, 5760, Note_on_c, 0, 72, 64
3, 5849, Note_on_c, 0, 72, 0
3, 5856, Note_on_c, 0, 72, 64
3, 6033, Note_on_c, 0, 72, 0
3, 6048, Note_on_c, 0, 70, 64
3, 6137, Note_on_c, 0, 70, 0
3, 6144, Note_on_c, 0, 70, 64
3, 6321, Note_on_c, 0, 70, 0
3, 7224, Note_on_c, 0, 55, 61
3, 7247, Note_on_c, 0, 55, 0
3, 7248, Note_on_c, 0, 56, 61
3, 7271, Note_on_c, 0, 56, 0
3, 7272, Note_on_c, 0, 55, 61
3, 7295, Note_on_c, 0, 55, 0
3, 7296, Note_on_c, 0, 58, 61
3, 7319, Note_on_c, 0, 58, 0
3, 7320, Note_on_c, 0, 56, 61
3, 7343, Note_on_c, 0, 56, 0
3, 7344, Note_on_c, 0, 60, 61
3, 7367, Note_on_c, 0, 60, 0
3, 7368, Note_on_c, 0, 58, 61
3, 7391, Note_on_c, 0, 58, 0
3, 7392, Note_on_c, 0, 60, 61
3, 7415, Note_on_c, 0, 60, 0
3, 7416, Note_on_c, 0, 65, 60
3, 7439, Note_on_c, 0, 65, 0
3, 7440, Note_on_c, 0, 63, 59
3, 7463, Note_on_c, 0, 63, 0
3, 7464, Note_on_c, 0, 62, 58
3, 7487, Note_on_c, 0, 62, 0
3, 7512, Note_on_c, 0, 55, 57
3, 7535, Note_on_c, 0, 55, 0
3, 7536, Note_on_c, 0, 56, 57
3, 7559, Note_on_c, 0, 56, 0
3, 7560, Note_on_c, 0, 55, 57
3, 7583, Note_on_c, 0, 55, 0
3, 7584, Note_on_c, 0, 58, 57
3, 7607, Note_on_c, 0, 58, 0
3, 7608, Note_on_c, 0, 56, 57
3, 7631, Note_on_c, 0, 56, 0
3, 7632, Note_on_c, 0, 60, 57
3, 7655, Note_on_c, 0, 60, 0
3, 7656, Note_on_c, 0, 58, 57
3, 7679, Note_on_c, 0, 58, 0
3, 7680, Note_on_c, 0, 60, 57
3, 7703, Note_on_c, 0, 60, 0
3, 7704, Note_on_c, 0, 65, 57
3, 7727, Note_on_c, 0, 65, 0
3, 7728, Note_on_c, 0, 63, 57
3, 7751, Note_on_c, 0, 63, 0
3, 7752, Note_on_c, 0, 62, 57
3, 7775, Note_on_c, 0, 62, 0
3, 7776, Note_on_c, 0, 62, 57
3, 7872, Note_on_c, 0, 62, 0
3, 7872, Note_on_c, 0, 63, 57
3, 7953, Note_on_c, 0, 63, 0
3, 13752, Note_on_c, 0, 73, 64
3, 13775, Note_on_c, 0, 73, 0
3, 13776, Note_on_c, 0, 75, 64
3, 13799, Note_on_c, 0, 75, 0
3, 13800, Note_on_c, 0, 73, 64
3, 13823, Note_on_c, 0, 73, 0
3, 13824, Note_on_c, 0, 72, 64
3, 13913, Note_on_c, 0, 72, 0
3, 13920, Note_on_c, 0, 72, 64
3, 14097, Note_on_c, 0, 72, 0
3, 14112, Note_on_c, 0, 70, 64
3, 14201, Note_on_c, 0, 70, 0
3, 14208, Note_on_c, 0, 70, 64
3, 14385, Note_on_c, 0, 70, 0
3, 15288, Note_on_c, 0, 55, 61
3, 15311, Note_on_c, 0, 55, 0
3, 15312, Note_on_c, 0, 56, 61
3, 15335, Note_on_c, 0, 56, 0
3, 15336, Note_on_c, 0, 55, 61
3, 15359, Note_on_c, 0, 55, 0
3, 15360, Note_on_c, 0, 58, 61
3, 15383, Note_on_c, 0, 58, 0
3, 15384, Note_on_c, 0, 56, 61
3, 15407, Note_on_c, 0, 56, 0
3, 15408, Note_on_c, 0, 60, 61
3, 15431, Note_on_c, 0, 60, 0
3, 15432, Note_on_c, 0, 58, 61
3, 15455, Note_on_c, 0, 58, 0
3, 15456, Note_on_c, 0, 60, 61
3, 15479, Note_on_c, 0, 60, 0
3, 15480, Note_on_c, 0, 65, 60
3, 15503, Note_on_c, 0, 65, 0
3, 15504, Note_on_c, 0, 63, 59
3, 15527, Note_on_c, 0, 63, 0
3, 15528, Note_on_c, 0, 62, 58
3, 15551, Note_on_c, 0, 62, 0
3, 15576, Note_on_c, 0, 55, 57
3, 15599, Note_on_c, 0, 55, 0
3, 15600, Note_on_c, 0, 56, 57
3, 15623, Note_on_c, 0, 56, 0
3, 15624, Note_on_c, 0, 55, 57
3, 15647, Note_on_c, 0, 55, 0
3, 15648, Note_on_c, 0, 58, 57
3, 15671, Note_on_c, 0, 58, 0
3, 15672, Note_on_c, 0, 56, 57
3, 15695, Note_on_c, 0, 56, 0
3, 15696, Note_on_c, 0, 60, 57
3, 15719, Note_on_c, 0, 60, 0
3, 15720, Note_on_c, 0, 58, 57
3, 15743, Note_on_c, 0, 58, 0
3, 15744, Note_on_c, 0, 60, 57
3, 15767, Note_on_c, 0, 60, 0
3, 15768, Note_on_c, 0, 65, 57
3, 15791, Note_on_c, 0, 65, 0
3, 15792, Note_on_c, 0, 63, 57
3, 15815, Note_on_c, 0, 63, 0
3, 15816, Note_on_c, 0, 62, 57
3, 15839, Note_on_c, 0, 62, 0
3, 15840, Note_on_c, 0, 62, 57
3, 15936, Note_on_c, 0, 62, 0
3, 15936, Note_on_c, 0, 63, 57
3, 16017, Note_on_c, 0, 63, 0
3, 19896, Note_on_c, 0, 65, 61
3, 19919, Note_on_c, 0, 65, 0
3, 19920, Note_on_c, 0, 67, 62
3, 19943, Note_on_c, 0, 67, 0
3, 19944, Note_on_c, 0, 65, 63
3, 19967, Note_on_c, 0, 65, 0
3, 19968, Note_on_c, 0, 68, 63
3, 19991, Note_on_c, 0, 68, 0
3, 19992, Note_on_c, 0, 67, 64
3, 20015, Note_on_c, 0, 67, 0
3, 20016, Note_on_c, 0, 70, 65
3, 20039, Note_on_c, 0, 70, 0
3, 20040, Note_on_c, 0, 68, 66
3, 20063, Note_on_c, 0, 68, 0
3, 20064, Note_on_c, 0, 70, 66
3, 20087, Note_on_c, 0, 70, 0
3, 20088, Note_on_c, 0, 61, 67
3, 20111, Note_on_c, 0, 61, 0
3, 20112, Note_on_c, 0, 60, 68
3, 20135, Note_on_c, 0, 60, 0
3, 20136, Note_on_c, 0, 58, 68
3, 20159, Note_on_c, 0, 58, 0
3, 20160, Note_on_c, 0, 60, 69
3, 20183, Note_on_c, 0, 60, 0
3, 20184, Note_on_c, 0, 56, 70
3, 20207, Note_on_c, 0, 56, 0
3, 20208, Note_on_c, 0, 58, 71
3, 20231, Note_on_c, 0, 58, 0
3, 20232, Note_on_c, 0, 56, 71
3, 20255, Note_on_c, 0, 56, 0
3, 20256, Note_on_c, 0, 60, 72
3, 20279, Note_on_c, 0, 60, 0
3, 20280, Note_on_c, 0, 58, 73
3, 20303, Note_on_c, 0, 58, 0
3, 20304, Note_on_c, 0, 61, 73
3, 20327, Note_on_c, 0, 61, 0
3, 20328, Note_on_c, 0, 60, 74
3, 20351, Note_on_c, 0, 60, 0
3, 20352, Note_on_c, 0, 61, 75
3, 20375, Note_on_c, 0, 61, 0
3, 20376, Note_on_c, 0, 58, 76
3, 20399, Note_on_c, 0, 58, 0
3, 20400, Note_on_c, 0, 56, 76
3, 20423, Note_on_c, 0, 56, 0
3, 20424, Note_on_c, 0, 55, 77
3, 20447, Note_on_c, 0, 55, 0
3, 26520, Note_on_c, 0, 68, 75
3, 26543, Note_on_c, 0, 68, 0
3, 26544, Note_on_c, 0, 70, 76
3, 26567, Note_on_c, 0, 70, 0
3, 26568, Note_on_c, 0, 67, 77
3, 26591, Note_on_c, 0, 67, 0
3, 26592, Note_on_c, 0, 68, 78
3, 26615, Note_on_c, 0, 68, 0
3, 26616, Note_on_c, 0, 70, 80
3, 26639, Note_on_c, 0, 70, 0
3, 26640, Note_on_c, 0, 72, 81
3, 26663, Note_on_c, 0, 72, 0
3, 26664, Note_on_c, 0, 73, 82
3, 26687, Note_on_c, 0, 73, 0
3, 26712, Note_on_c, 0, 66, 84
3, 26735, Note_on_c, 0, 66, 0
3, 26736, Note_on_c, 0, 68, 82
3, 26759, Note_on_c, 0, 68, 0
3, 26760, Note_on_c, 0, 66, 81
3, 26783, Note_on_c, 0, 66, 0
3, 26784, Note_on_c, 0, 65, 80
3, 26873, Note_on_c, 0, 65, 0
3, 26880, Note_on_c, 0, 65, 75
3, 27057, Note_on_c, 0, 65, 0
3, 27072, Note_on_c, 0, 63, 75
3, 27161, Note_on_c, 0, 63, 0
3, 27168, Note_on_c, 0, 63, 75
3, 27345, Note_on_c, 0, 63, 0
3, 28248, Note_on_c, 0, 60, 61
3, 28271, Note_on_c, 0, 60, 0
3, 28272, Note_on_c, 0, 61, 61
3, 28295, Note_on_c, 0, 61, 0
3, 28296, Note_on_c, 0, 60, 61
3, 28319, Note_on_c, 0, 60, 0
3, 28320, Note_on_c, 0, 63, 61
3, 28343, Note_on_c, 0, 63, 0
3, 28344, Note_on_c, 0, 61, 61
3, 28367, Note_on_c, 0, 61, 0
3, 28368, Note_on_c, 0, 65, 61
3, 28391, Note_on_c, 0, 65, 0
3, 28392, Note_on_c, 0, 63, 61
3, 28415, Note_on_c, 0, 63, 0
3, 28416, Note_on_c, 0, 65, 61
3, 28439, Note_on_c, 0, 65, 0
3, 28440, Note_on_c, 0, 70, 60
3, 28463, Note_on_c, 0, 70, 0
3, 28464, Note_on_c, 0, 68, 59
3, 28487, Note_on_c, 0, 68, 0
3, 28488, Note_on_c, 0, 67, 58
3, 28511, Note_on_c, 0, 67, 0
3, 28536, Note_on_c, 0, 60, 57
3, 28559, Note_on_c, 0, 60, 0
3, 28560, Note_on_c, 0, 61, 57
3, 28583, Note_on_c, 0, 61, 0
3, 28584, Note_on_c, 0, 60, 57
3, 28607, Note_on_c, 0, 60, 0
3, 28608, Note_on_c, 0, 63, 57
3, 28631, Note_on_c, 0, 63, 0
3, 28632, Note_on_c, 0, 61, 57
3, 28655, Note_on_c, 0, 61, 0
3, 28656, Note_on_c, 0, 65, 57
3, 28679, Note_on_c, 0, 65, 0
3, 28680, Note_on_c, 0, 63, 57
3, 28703, Note_on_c, 0, 63, 0
3, 28704, Note_on_c, 0, 65, 57
3, 28727, Note_on_c, 0, 65, 0
3, 28728, Note_on_c, 0, 58, 57
3, 28751, Note_on_c, 0, 58, 0
3, 28752, Note_on_c, 0, 56, 57
3, 28775, Note_on_c, 0, 56, 0
3, 28776, Note_on_c, 0, 55, 57
3, 28799, Note_on_c, 0, 55, 0
3, 28800, Note_on_c, 0, 55, 57
3, 28992, Note_on_c, 0, 55, 0
3, 28992, Note_on_c, 0, 56, 57
3, 29065, Note_on_c, 0, 56, 0
3, 32856, Note_on_c, 0, 65, 61
3, 32879, Note_on_c, 0, 65, 0
3, 32880, Note_on_c, 0, 67, 62
3, 32903, Note_on_c, 0, 67, 0
3, 32904, Note_on_c, 0, 65, 63
3, 32927, Note_on_c, 0, 65, 0
3, 32928, Note_on_c, 0, 68, 63
3, 32951, Note_on_c, 0, 68, 0
3, 32952, Note_on_c, 0, 67, 64
3, 32975, Note_on_c, 0, 67, 0
3, 32976, Note_on_c, 0, 70, 65
3, 32999, Note_on_c, 0, 70, 0
3, 33000, Note_on_c, 0, 68, 66
3, 33023, Note_on_c, 0, 68, 0
3, 33024, Note_on_c, 0, 70, 66
3, 33047, Note_on_c, 0, 70, 0
3, 33048, Note_on_c, 0, 61, 67
3, 33071, Note_on_c, 0, 61, 0
3, 33072, Note_on_c, 0, 60, 68
3, 33095, Note_on_c, 0, 60, 0
3, 33096, Note_on_c, 0, 58, 68
3, 33119, Note_on_c, 0, 58, 0
3, 33120, Note_on_c, 0, 60, 69
3, 33143, Note_on_c, 0, 60, 0
3, 33144, Note_on_c, 0, 56, 70
3, 33167, Note_on_c, 0, 56, 0
3, 33168, Note_on_c, 0, 58, 71
3, 33191, Note_on_c, 0, 58, 0
3, 33192, Note_on_c, 0, 56, 71
3, 33215, Note_on_c, 0, 56, 0
3, 33216, Note_on_c, 0, 60, 72
3, 33239, Note_on_c, 0, 60, 0
3, 33240, Note_on_c, 0, 58, 73
3, 33263, Note_on_c, 0, 58, 0
3, 33264, Note_on_c, 0, 61, 73
3, 33287, Note_on_c, 0, 61, 0
3, 33288, Note_on_c, 0, 60, 74
3, 33311, Note_on_c, 0, 60, 0
3, 33312, Note_on_c, 0, 61, 75
3, 33335, Note_on_c, 0, 61, 0
3, 33336, Note_on_c, 0, 58, 76
3, 33359, Note_on_c, 0, 58, 0
3, 33360, Note_on_c, 0, 56, 76
3, 33383, Note_on_c, 0, 56, 0
3, 33384, Note_on_c, 0, 55, 77
3, 33407, Note_on_c, 0, 55, 0
3, 39480, Note_on_c, 0, 68, 75
3, 39503, Note_on_c, 0, 68, 0
3, 39504, Note_on_c, 0, 70, 76
3, 39527, Note_on_c, 0, 70, 0
3, 39528, Note_on_c, 0, 67, 77
3, 39551, Note_on_c, 0, 67, 0
3, 39552, Note_on_c, 0, 68, 78
3, 39575, Note_on_c, 0, 68, 0
3, 39576, Note_on_c, 0, 70, 80
3, 39599, Note_on_c, 0, 70, 0
3, 39600, Note_on_c, 0, 72, 81
3, 39623, Note_on_c, 0, 72, 0
3, 39624, Note_on_c, 0, 73, 82
3, 39647, Note_on_c, 0, 73, 0
3, 39672, Note_on_c, 0, 66, 84
3, 39695, Note_on_c, 0, 66, 0
3, 39696, Note_on_c, 0, 68, 82
3, 39719, Note_on_c, 0, 68, 0
3, 39720, Note_on_c, 0, 66, 81
3, 39743, Note_on_c, 0, 66, 0
3, 39744, Note_on_c, 0, 65, 80
3, 39833, Note_on_c, 0, 65, 0
3, 39840, Note_on_c, 0, 65, 75
3, 40017, Note_on_c, 0, 65, 0
3, 40032, Note_on_c, 0, 63, 75
3, 40121, Note_on_c, 0, 63, 0
3, 40128, Note_on_c, 0, 63, 75
3, 40305, Note_on_c, 0, 63, 0
3, 41208, Note_on_c, 0, 60, 61
3, 41231, Note_on_c, 0, 60, 0
3, 41232, Note_on_c, 0, 61, 61
3, 41255, Note_on_c, 0, 61, 0
3, 41256, Note_on_c, 0, 60, 61
3, 41279, Note_on_c, 0, 60, 0
3, 41280, Note_on_c, 0, 63, 61
3, 41303, Note_on_c, 0, 63, 0
3, 41304, Note_on_c, 0, 61, 61
3, 41327, Note_on_c, 0, 61, 0
3, 41328, Note_on_c, 0, 65, 61
3, 41351, Note_on_c, 0, 65, 0
3, 41352, Note_on_c, 0, 63, 61
3, 41375, Note_on_c, 0, 63, 0
3, 41376, Note_on_c, 0, 65, 61
3, 41399, Note_on_c, 0, 65, 0
3, 41400, Note_on_c, 0, 70, 60
3, 41423, Note_on_c, 0, 70, 0
3, 41424, Note_on_c, 0, 68, 59
3, 41447, Note_on_c, 0, 68, 0
3, 41448, Note_on_c, 0, 67, 58
3, 41471, Note_on_c, 0, 67, 0
3, 41496, Note_on_c, 0, 60, 57
3, 41519, Note_on_c, 0, 60, 0
3, 41520, Note_on_c, 0, 61, 57
3, 41543, Note_on_c, 0, 61, 0
3, 41544, Note_on_c, 0, 60, 57
3, 41567, Note_on_c, 0, 60, 0
3, 41568, Note_on_c, 0, 63, 57
3, 41591, Note_on_c, 0, 63, 0
3, 41592, Note_on_c, 0, 61, 57
3, 41615, Note_on_c, 0, 61, 0
3, 41616, Note_on_c, 0, 65, 57
3, 41639, Note_on_c, 0, 65, 0
3, 41640, Note_on_c, 0, 63, 57
3, 41663, Note_on_c, 0, 63, 0
3, 41664, Note_on_c, 0, 65, 57
3, 41687, Note_on_c, 0, 65, 0
3, 41688, Note_on_c, 0, 58, 57
3, 41711, Note_on_c, 0, 58, 0
3, 41712, Note_on_c, 0, 56, 57
3, 41735, Note_on_c, 0, 56, 0
3, 41736, Note_on_c, 0, 55, 57
3, 41759, Note_on_c, 0, 55, 0
3, 41760, Note_on_c, 0, 55, 57
3, 41952, Note_on_c, 0, 55, 0
3, 41952, Note_on_c, 0, 56, 57
3, 42025, Note_on_c, 0, 56, 0
3, 42048, End_track
4, 0, Start_track
4, 0, Program_c, 1, 0
4, 0, Control_c, 1, 7, 127
4, 0, Control_c, 1, 10, 64
4, 0, Note_on_c, 1, 44, 64
4, 89, Note_on_c, 1, 44, 0
4, 336, Note_on_c, 1, 56, 64
4, 381, Note_on_c, 1, 56, 0
4, 384, Note_on_c, 1, 60, 64
4, 429, Note_on_c, 1, 60, 0
4, 432, Note_on_c, 1, 56, 64
4, 477, Note_on_c, 1, 56, 0
4, 480, Note_on_c, 1, 58, 64
4, 525, Note_on_c, 1, 58, 0
4, 528, Note_on_c, 1, 51, 64
4, 573, Note_on_c, 1, 51, 0
4, 624, Note_on_c, 1, 56, 64
4, 669, Note_on_c, 1, 56, 0
4, 672, Note_on_c, 1, 56, 64
4, 717, Note_on_c, 1, 56, 0
4, 720, Note_on_c, 1, 65, 64
4, 765, Note_on_c, 1, 65, 0
4, 768, Note_on_c, 1, 61, 64
4, 813, Note_on_c, 1, 61, 0
4, 816, Note_on_c, 1, 63, 64
4, 861, Note_on_c, 1, 63, 0
4, 864, Note_on_c, 1, 56, 64
4, 953, Note_on_c, 1, 56, 0
4, 984, Note_on_c, 1, 56, 64
4, 1007, Note_on_c, 1, 56, 0
4, 1008, Note_on_c, 1, 60, 64
4, 1031, Note_on_c, 1, 60, 0
4, 1032, Note_on_c, 1, 56, 64
4, 1055, Note_on_c, 1, 56, 0
4, 1056, Note_on_c, 1, 51, 64
4, 1079, Note_on_c, 1, 51, 0
4, 1080, Note_on_c, 1, 56, 64
4, 1103, Note_on_c, 1, 56, 0
4, 1104, Note_on_c, 1, 48, 64
4, 1127, Note_on_c, 1, 48, 0
4, 1128, Note_on_c, 1, 51, 64
4, 1151, Note_on_c, 1, 51, 0
4, 1152, Note_on_c, 1, 44, 64
4, 1241, Note_on_c, 1, 44, 0
4, 1488, Note_on_c, 1, 56, 64
4, 1533, Note_on_c, 1, 56, 0
4, 1536, Note_on_c, 1, 60, 64
4, 1581, Note_on_c, 1, 60, 0
4, 1584, Note_on_c, 1, 56, 64
4, 1629, Note_on_c, 1, 56, 0
4, 1632, Note_on_c, 1, 58, 64
4, 1677, Note_on_c, 1, 58, 0
4, 1680, Note_on_c, 1, 51, 64
4, 1725, Note_on_c, 1, 51, 0
4, 1776, Note_on_c, 1, 56, 64
4, 1821, Note_on_c, 1, 56, 0
4, 1824, Note_on_c, 1, 56, 64
4, 1869, Note_on_c, 1, 56, 0
4, 1872, Note_on_c, 1, 60, 64
4, 1917, Note_on_c, 1, 60, 0
4, 1920, Note_on_c, 1, 61, 64
4, 1965, Note_on_c, 1, 61, 0
4, 1968, Note_on_c, 1, 63, 64
4, 2013, Note_on_c, 1, 63, 0
4, 2040, Note_on_c, 1, 56, 64
4, 2063, Note_on_c, 1, 56, 0
4, 2064, Note_on_c, 1, 60, 64
4, 2087, Note_on_c, 1, 60, 0
4, 2088, Note_on_c, 1, 56, 64
4, 2111, Note_on_c, 1, 56, 0
4, 2112, Note_on_c, 1, 51, 64
4, 2135, Note_on_c, 1, 51, 0
4, 2136, Note_on_c, 1, 56, 64
4, 2159, Note_on_c, 1, 56, 0
4, 2160, Note_on_c, 1, 48, 64
4, 2183, Note_on_c, 1, 48, 0
4, 2184, Note_on_c, 1, 51, 64
4, 2207, Note_on_c, 1, 51, 0
4, 2208, Note_on_c, 1, 56, 64
4, 2231, Note_on_c, 1, 56, 0
4, 2232, Note_on_c, 1, 60, 64
4, 2255, Note_on_c, 1, 60, 0
4, 2256, Note_on_c, 1, 63, 64
4, 2279, Note_on_c, 1, 63, 0
4, 2280, Note_on_c, 1, 68, 64
4, 2303, Note_on_c, 1, 68, 0
4, 2304, Note_on_c, 1, 61, 64
4, 2393, Note_on_c, 1, 61, 0
4, 2400, Note_on_c, 1, 60, 64
4, 2445, Note_on_c, 1, 60, 0
4, 2448, Note_on_c, 1, 56, 64
4, 2493, Note_on_c, 1, 56, 0
4, 2496, Note_on_c, 1, 58, 64
4, 2541, Note_on_c, 1, 58, 0
4, 2544, Note_on_c, 1, 51, 64
4, 2589, Note_on_c, 1, 51, 0
4, 2616, Note_on_c, 1, 56, 64
4, 2639, Note_on_c, 1, 56, 0
4, 2640, Note_on_c, 1, 60, 64
4, 2663, Note_on_c, 1, 60, 0
4, 2664, Note_on_c, 1, 56, 64
4, 2687, Note_on_c, 1, 56, 0
4, 2688, Note_on_c, 1, 51, 64
4, 2711, Note_on_c, 1, 51, 0
4, 2712, Note_on_c, 1, 56, 64
4, 2735, Note_on_c, 1, 56, 0
4, 2736, Note_on_c, 1, 48, 64
4, 2759, Note_on_c, 1, 48, 0
4, 2760, Note_on_c, 1, 51, 64
4, 2783, Note_on_c, 1, 51, 0
4, 2784, Note_on_c, 1, 56, 64
4, 2807, Note_on_c, 1, 56, 0
4, 2808, Note_on_c, 1, 60, 64
4, 2831, Note_on_c, 1, 60, 0
4, 2832, Note_on_c, 1, 63, 64
4, 2855, Note_on_c, 1, 63, 0
4, 2856, Note_on_c, 1, 68, 64
4, 2879, Note_on_c, 1, 68, 0
4, 2880, Note_on_c, 1, 61, 64
4, 2969, Note_on_c, 1, 61, 0
4, 2976, Note_on_c, 1, 60, 64
4, 3065, Note_on_c, 1, 60, 0
4, 3072, Note_on_c, 1, 58, 64
4, 3161, Note_on_c, 1, 58, 0
4, 3168, Note_on_c, 1, 68, 64
4, 3168, Note_on_c, 1, 56, 64
4, 3257, Note_on_c, 1, 68, 0
4, 3257, Note_on_c, 1, 56, 0
4, 3264, Note_on_c, 1, 61, 64
4, 3353, Note_on_c, 1, 61, 0
4, 3360, Note_on_c, 1, 49, 64
4, 3405, Note_on_c, 1, 49, 0
4, 3408, Note_on_c, 1, 50, 64
4, 3453, Note_on_c, 1, 50, 0
4, 3480, Note_on_c, 1, 51, 64
4, 3503, Note_on_c, 1, 51, 0
4, 3504, Note_on_c, 1, 55, 64
4, 3527, Note_on_c, 1, 55, 0
4, 3528, Note_on_c, 1, 51, 64
4, 3551, Note_on_c, 1, 51, 0
4, 3552, Note_on_c, 1, 46, 64
4, 3575, Note_on_c, 1, 46, 0
4, 3576, Note_on_c, 1, 51, 64
4, 3599, Note_on_c, 1, 51, 0
4, 3600, Note_on_c, 1, 43, 64
4, 3623, Note_on_c, 1, 43, 0
4, 3624, Note_on_c, 1, 46, 64
4, 3647, Note_on_c, 1, 46, 0
4, 3648, Note_on_c, 1, 51, 64
4, 3671, Note_on_c, 1, 51, 0
4, 3672, Note_on_c, 1, 55, 64
4, 3695, Note_on_c, 1, 55, 0
4, 3696, Note_on_c, 1, 58, 64
4, 3719, Note_on_c, 1, 58, 0
4, 3720, Note_on_c, 1, 55, 64
4, 3743, Note_on_c, 1, 55, 0
4, 3744, Note_on_c, 1, 63, 64
4, 3833, Note_on_c, 1, 63, 0
4, 3840, Note_on_c, 1, 65, 64
4, 3929, Note_on_c, 1, 65, 0
4, 3936, Note_on_c, 1, 67, 64
4, 4025, Note_on_c, 1, 67, 0
4, 4056, Note_on_c, 1, 63, 64
4, 4079, Note_on_c, 1, 63, 0
4, 4080, Note_on_c, 1, 67, 64
4, 4103, Note_on_c, 1, 67, 0
4, 4104, Note_on_c, 1, 63, 64
4, 4127, Note_on_c, 1, 63, 0
4, 4152, Note_on_c, 1, 65, 64
4, 4175, Note_on_c, 1, 65, 0
4, 4176, Note_on_c, 1, 68, 64
4, 4199, Note_on_c, 1, 68, 0
4, 4200, Note_on_c, 1, 74, 64
4, 4223, Note_on_c, 1, 74, 0
4, 4248, Note_on_c, 1, 67, 64
4, 4271, Note_on_c, 1, 67, 0
4, 4272, Note_on_c, 1, 70, 64
4, 4295, Note_on_c, 1, 70, 0
4, 4296, Note_on_c, 1, 75, 64
4, 4319, Note_on_c, 1, 75, 0
4, 4320, Note_on_c, 1, 68, 64
4, 4409, Note_on_c, 1, 68, 0
4, 4416, Note_on_c, 1, 56, 75
4, 4549, Note_on_c, 1, 56, 0
4, 4560, Note_on_c, 1, 57, 81
4, 4605, Note_on_c, 1, 57, 0
4, 4632, Note_on_c, 1, 58, 75
4, 4655, Note_on_c, 1, 58, 0
4, 4656, Note_on_c, 1, 60, 75
4, 4679, Note_on_c, 1, 60, 0
4, 4680, Note_on_c, 1, 57, 76
4, 4703, Note_on_c, 1, 57, 0
4, 4704, Note_on_c, 1, 58, 77
4, 4727, Note_on_c, 1, 58, 0
4, 4728, Note_on_c, 1, 60, 78
4, 4751, Note_on_c, 1, 60, 0
4, 4752, Note_on_c, 1, 62, 79
4, 4775, Note_on_c, 1, 62, 0
4, 4776, Note_on_c, 1, 63, 79
4, 4799, Note_on_c, 1, 63, 0
4, 4800, Note_on_c, 1, 65, 80
4, 4823, Note_on_c, 1, 65, 0
4, 4824, Note_on_c, 1, 67, 81
4, 4847, Note_on_c, 1, 67, 0
4, 4848, Note_on_c, 1, 68, 82
4, 4871, Note_on_c, 1, 68, 0
4, 4872, Note_on_c, 1, 70, 83
4, 4895, Note_on_c, 1, 70, 0
4, 4896, Note_on_c, 1, 68, 84
4, 4992, Note_on_c, 1, 68, 0
4, 4992, Note_on_c, 1, 67, 79
4, 4998, Note_on_c, 1, 67, 0
4, 4998, Note_on_c, 1, 68, 79
4, 5004, Note_on_c, 1, 68, 0
4, 5004, Note_on_c, 1, 67, 79
4, 5083, Note_on_c, 1, 67, 0
4, 5208, Note_on_c, 1, 58, 75
4, 5231, Note_on_c, 1, 58, 0
4, 5232, Note_on_c, 1, 60, 75
4, 5255, Note_on_c, 1, 60, 0
4, 5256, Note_on_c, 1, 57, 76
4, 5279, Note_on_c, 1, 57, 0
4, 5280, Note_on_c, 1, 58, 77
4, 5303, Note_on_c, 1, 58, 0
4, 5304, Note_on_c, 1, 60, 78
4, 5327, Note_on_c, 1, 60, 0
4, 5328, Note_on_c, 1, 62, 79
4, 5351, Note_on_c, 1, 62, 0
4, 5352, Note_on_c, 1, 63, 79
4, 5375, Note_on_c, 1, 63, 0
4, 5376, Note_on_c, 1, 65, 80
4, 5399, Note_on_c, 1, 65, 0
4, 5400, Note_on_c, 1, 67, 81
4, 5423, Note_on_c, 1, 67, 0
4, 5424, Note_on_c, 1, 68, 82
4, 5447, Note_on_c, 1, 68, 0
4, 5448, Note_on_c, 1, 70, 83
4, 5471, Note_on_c, 1, 70, 0
4, 5472, Note_on_c, 1, 68, 84
4, 5568, Note_on_c, 1, 68, 0
4, 5568, Note_on_c, 1, 67, 76
4, 5574, Note_on_c, 1, 67, 0
4, 5574, Note_on_c, 1, 68, 76
4, 5580, Note_on_c, 1, 68, 0
4, 5580, Note_on_c, 1, 67, 76
4, 5709, Note_on_c, 1, 67, 0
4, 5712, Note_on_c, 1, 65, 75
4, 5757, Note_on_c, 1, 65, 0
4, 5784, Note_on_c, 1, 64, 75
4, 5807, Note_on_c, 1, 64, 0
4, 5808, Note_on_c, 1, 67, 76
4, 5831, Note_on_c, 1, 67, 0
4, 5832, Note_on_c, 1, 64, 78
4, 5855, Note_on_c, 1, 64, 0
4, 5856, Note_on_c, 1, 65, 80
4, 5879, Note_on_c, 1, 65, 0
4, 5880, Note_on_c, 1, 67, 82
4, 5903, Note_on_c, 1, 67, 0
4, 5904, Note_on_c, 1, 68, 84
4, 5927, Note_on_c, 1, 68, 0
4, 5928, Note_on_c, 1, 67, 82
4, 5951, Note_on_c, 1, 67, 0
4, 5952, Note_on_c, 1, 65, 81
4, 5975, Note_on_c, 1, 65, 0
4, 5976, Note_on_c, 1, 63, 79
4, 5999, Note_on_c, 1, 63, 0
4, 6000, Note_on_c, 1, 62, 78
4, 6006, Note_on_c, 1, 62, 0
4, 6006, Note_on_c, 1, 63, 78
4, 6012, Note_on_c, 1, 63, 0
4, 6012, Note_on_c, 1, 62, 78
4, 6023, Note_on_c, 1, 62, 0
4, 6024, Note_on_c, 1, 60, 76
4, 6047, Note_on_c, 1, 60, 0
4, 6072, Note_on_c, 1, 62, 75
4, 6095, Note_on_c, 1, 62, 0
4, 6096, Note_on_c, 1, 65, 76
4, 6119, Note_on_c, 1, 65, 0
4, 6120, Note_on_c, 1, 62, 78
4, 6143, Note_on_c, 1, 62, 0
4, 6144, Note_on_c, 1, 63, 80
4, 6167, Note_on_c, 1, 63, 0
4, 6168, Note_on_c, 1, 65, 82
4, 6191, Note_on_c, 1, 65, 0
4, 6192, Note_on_c, 1, 67, 84
4, 6215, Note_on_c, 1, 67, 0
4, 6216, Note_on_c, 1, 65, 82
4, 6239, Note_on_c, 1, 65, 0
4, 6240, Note_on_c, 1, 63, 81
4, 6246, Note_on_c, 1, 63, 0
4, 6246, Note_on_c, 1, 65, 81
4, 6252, Note_on_c, 1, 65, 0
4, 6252, Note_on_c, 1, 63, 81
4, 6263, Note_on_c, 1, 63, 0
4, 6264, Note_on_c, 1, 62, 79
4, 6287, Note_on_c, 1, 62, 0
4, 6288, Note_on_c, 1, 60, 78
4, 6294, Note_on_c, 1, 60, 0
4, 6294, Note_on_c, 1, 61, 78
4, 6300, Note_on_c, 1, 61, 0
4, 6300, Note_on_c, 1, 60, 78
4, 6311, Note_on_c, 1, 60, 0
4, 6312, Note_on_c, 1, 58, 76
4, 6335, Note_on_c, 1, 58, 0
4, 6432, Note_on_c, 1, 60, 75
4, 6521, Note_on_c, 1, 60, 0
4, 6528, Note_on_c, 1, 65, 75
4, 6617, Note_on_c, 1, 65, 0
4, 6720, Note_on_c, 1, 58, 75
4, 6809, Note_on_c, 1, 58, 0
4, 6816, Note_on_c, 1, 63, 75
4, 7089, Note_on_c, 1, 63, 0
4, 7104, Note_on_c, 1, 56, 75
4, 7193, Note_on_c, 1, 56, 0
4, 7224, Note_on_c, 1, 51, 61
4, 7247, Note_on_c, 1, 51, 0
4, 7248, Note_on_c, 1, 53, 61
4, 7271, Note_on_c, 1, 53, 0
4, 7272, Note_on_c, 1, 51, 61
4, 7295, Note_on_c, 1, 51, 0
4, 7296, Note_on_c, 1, 55, 61
4, 7319, Note_on_c, 1, 55, 0
4, 7320, Note_on_c, 1, 53, 61
4, 7343, Note_on_c, 1, 53, 0
4, 7344, Note_on_c, 1, 56, 61
4, 7367, Note_on_c, 1, 56, 0
4, 7368, Note_on_c, 1, 55, 61
4, 7391, Note_on_c, 1, 55, 0
4, 7392, Note_on_c, 1, 56, 61
4, 7437, Note_on_c, 1, 56, 0
4, 7440, Note_on_c, 1, 58, 59
4, 7485, Note_on_c, 1, 58, 0
4, 7512, Note_on_c, 1, 51, 61
4, 7535, Note_on_c, 1, 51, 0
4, 7536, Note_on_c, 1, 53, 61
4, 7559, Note_on_c, 1, 53, 0
4, 7560, Note_on_c, 1, 51, 61
4, 7583, Note_on_c, 1, 51, 0
4, 7584, Note_on_c, 1, 55, 61
4, 7607, Note_on_c, 1, 55, 0
4, 7608, Note_on_c, 1, 53, 61
4, 7631, Note_on_c, 1, 53, 0
4, 7632, Note_on_c, 1, 56, 61
4, 7655, Note_on_c, 1, 56, 0
4, 7656, Note_on_c, 1, 55, 61
4, 7679, Note_on_c, 1, 55, 0
4, 7680, Note_on_c, 1, 56, 61
4, 7725, Note_on_c, 1, 56, 0
4, 7728, Note_on_c, 1, 58, 61
4, 7773, Note_on_c, 1, 58, 0
4, 7776, Note_on_c, 1, 51, 61
4, 7953, Note_on_c, 1, 51, 0
4, 8064, Note_on_c, 1, 44, 64
4, 8153, Note_on_c, 1, 44, 0
4, 8400, Note_on_c, 1, 56, 64
4, 8445, Note_on_c, 1, 56, 0
4, 8448, Note_on_c, 1, 60, 64
4, 8493, Note_on_c, 1, 60, 0
4, 8496, Note_on_c, 1, 56, 64
4, 8541, Note_on_c, 1, 56, 0
4, 8544, Note_on_c, 1, 58, 64
4, 8589, Note_on_c, 1, 58, 0
4, 8592, Note_on_c, 1, 51, 64
4, 8637, Note_on_c, 1, 51, 0
4, 8688, Note_on_c, 1, 56, 64
4, 8733, Note_on_c, 1, 56, 0
4, 8736, Note_on_c, 1, 56, 64
4, 8781, Note_on_c, 1, 56, 0
4, 8784, Note_on_c, 1, 65, 64
4, 8829, Note_on_c, 1, 65, 0
4, 8832, Note_on_c, 1, 61, 64
4, 8877, Note_on_c, 1, 61, 0
4, 8880, Note_on_c, 1, 63, 64
4, 8925, Note_on_c, 1, 63, 0
4, 8928, Note_on_c, 1, 56, 64
4, 9017, Note_on_c, 1, 56, 0
4, 9048, Note_on_c, 1, 56, 64
4, 9071, Note_on_c, 1, 56, 0
4, 9072, Note_on_c, 1, 60, 64
4, 9095, Note_on_c, 1, 60, 0
4, 9096, Note_on_c, 1, 56, 64
4, 9119, Note_on_c, 1, 56, 0
4, 9120, Note_on_c, 1, 51, 64
4, 9143, Note_on_c, 1, 51, 0
4, 9144, Note_on_c, 1, 56, 64
4, 9167, Note_on_c, 1, 56, 0
4, 9168, Note_on_c, 1, 48, 64
4, 9191, Note_on_c, 1, 48, 0
4, 9192, Note_on_c, 1, 51, 64
4, 9215, Note_on_c, 1, 51, 0
4, 9216, Note_on_c, 1, 44, 64
4, 9305, Note_on_c, 1, 44, 0
4, 9552, Note_on_c, 1, 56, 64
4, 9597, Note_on_c, 1, 56, 0
4, 9600, Note_on_c, 1, 60, 64
4, 9645, Note_on_c, 1, 60, 0
4, 9648, Note_on_c, 1, 56, 64
4, 9693, Note_on_c, 1, 56, 0
4, 9696, Note_on_c, 1, 58, 64
4, 9741, Note_on_c, 1, 58, 0
4, 9744, Note_on_c, 1, 51, 64
4, 9789, Note_on_c, 1, 51, 0
4, 9840, Note_on_c, 1, 56, 64
4, 9885, Note_on_c, 1, 56, 0
4, 9888, Note_on_c, 1, 56, 64
4, 9933, Note_on_c, 1, 56, 0
4, 9936, Note_on_c, 1, 60, 64
4, 9981, Note_on_c, 1, 60, 0
4, 9984, Note_on_c, 1, 61, 64
4, 10029, Note_on_c, 1, 61, 0
4, 10032, Note_on_c, 1, 63, 64
4, 10077, Note_on_c, 1, 63, 0
4, 10104, Note_on_c, 1, 56, 64
4, 10127, Note_on_c, 1, 56, 0
4, 10128, Note_on_c, 1, 60, 64
4, 10151, Note_on_c, 1, 60, 0
4, 10152, Note_on_c, 1, 56, 64
4, 10175, Note_on_c, 1, 56, 0
4, 10176, Note_on_c, 1, 51, 64
4, 10199, Note_on_c, 1, 51, 0
4, 10200, Note_on_c, 1, 56, 64
4, 10223, Note_on_c, 1, 56, 0
4, 10224, Note_on_c, 1, 48, 64
4, 10247, Note_on_c, 1, 48, 0
4, 10248, Note_on_c, 1, 51, 64
4, 10271, Note_on_c, 1, 51, 0
4, 10272, Note_on_c, 1, 56, 64
4, 10295, Note_on_c, 1, 56, 0
4, 10296, Note_on_c, 1, 60, 64
4, 10319, Note_on_c, 1, 60, 0
4, 10320, Note_on_c, 1, 63, 64
4, 10343, Note_on_c, 1, 63, 0
4, 10344, Note_on_c, 1, 68, 64
4, 10367, Note_on_c, 1, 68, 0
4, 10368, Note_on_c, 1, 61, 64
4, 10457, Note_on_c, 1, 61, 0
4, 10464, Note_on_c, 1, 60, 64
4, 10509, Note_on_c, 1, 60, 0
4, 10512, Note_on_c, 1, 56, 64
4, 10557, Note_on_c, 1, 56, 0
4, 10560, Note_on_c, 1, 58, 64
4, 10605, Note_on_c, 1, 58, 0
4, 10608, Note_on_c, 1, 51, 64
4, 10653, Note_on_c, 1, 51, 0
4, 10680, Note_on_c, 1, 56, 64
4, 10703, Note_on_c, 1, 56, 0
4, 10704, Note_on_c, 1, 60, 64
4, 10727, Note_on_c, 1, 60, 0
4, 10728, Note_on_c, 1, 56, 64
4, 10751, Note_on_c, 1, 56, 0
4, 10752, Note_on_c, 1, 51, 64
4, 10775, Note_on_c, 1, 51, 0
4, 10776, Note_on_c, 1, 56, 64
4, 10799, Note_on_c, 1, 56, 0
4, 10800, Note_on_c, 1, 48, 64
4, 10823, Note_on_c, 1, 48, 0
4, 10824, Note_on_c, 1, 51, 64
4, 10847, Note_on_c, 1, 51, 0
4, 10848, Note_on_c, 1, 56, 64
4, 10871, Note_on_c, 1, 56, 0
4, 10872, Note_on_c, 1, 60, 64
4, 10895, Note_on_c, 1, 60, 0
4, 10896, Note_on_c, 1, 63, 64
4, 10919, Note_on_c, 1, 63, 0
4, 10920, Note_on_c, 1, 68, 64
4, 10943, Note_on_c, 1, 68, 0
4, 10944, Note_on_c, 1, 61, 64
4, 11033, Note_on_c, 1, 61, 0
4, 11040, Note_on_c, 1, 60, 64
4, 11129, Note_on_c, 1, 60, 0
4, 11136, Note_on_c, 1, 58, 64
4, 11225, Note_on_c, 1, 58, 0
4, 11232, Note_on_c, 1, 68, 64
4, 11232, Note_on_c, 1, 56, 64
4, 11321, Note_on_c, 1, 68, 0
4, 11321, Note_on_c, 1, 56, 0
4, 11328, Note_on_c, 1, 61, 64
4, 11417, Note_on_c, 1, 61, 0
4, 11424, Note_on_c, 1, 49, 64
4, 11469, Note_on_c, 1, 49, 0
4, 11472, Note_on_c, 1, 50, 64
4, 11517, Note_on_c, 1, 50, 0
4, 11544, Note_on_c, 1, 51, 64
4, 11567, Note_on_c, 1, 51, 0
4, 11568, Note_on_c, 1, 55, 64
4, 11591, Note_on_c, 1, 55, 0
4, 11592, Note_on_c, 1, 51, 64
4, 11615, Note_on_c, 1, 51, 0
4, 11616, Note_on_c, 1, 46, 64
4, 11639, Note_on_c, 1, 46, 0
4, 11640, Note_on_c, 1, 51, 64
4, 11663, Note_on_c, 1, 51, 0
4, 11664, Note_on_c, 1, 43, 64
4, 11687, Note_on_c, 1, 43, 0
4, 11688, Note_on_c, 1, 46, 64
4, 11711, Note_on_c, 1, 46, 0
4, 11712, Note_on_c, 1, 51, 64
4, 11735, Note_on_c, 1, 51, 0
4, 11736, Note_on_c, 1, 55, 64
4, 11759, Note_on_c, 1, 55, 0
4, 11760, Note_on_c, 1, 58, 64
4, 11783, Note_on_c, 1, 58, 0
4, 11784, Note_on_c, 1, 55, 64
4, 11807, Note_on_c, 1, 55, 0
4, 11808, Note_on_c, 1, 63, 64
4, 11897, Note_on_c, 1, 63, 0
4, 11904, Note_on_c, 1, 65, 64
4, 11993, Note_on_c, 1, 65, 0
4, 12000, Note_on_c, 1, 67, 64
4, 12089, Note_on_c, 1, 67, 0
4, 12120, Note_on_c, 1, 63, 64
4, 12143, Note_on_c, 1, 63, 0
4, 12144, Note_on_c, 1, 67, 64
4, 12167, Note_on_c, 1, 67, 0
4, 12168, Note_on_c, 1, 63, 64
4, 12191, Note_on_c, 1, 63, 0
4, 12216, Note_on_c, 1, 65, 64
4, 12239, Note_on_c, 1, 65, 0
4, 12240, Note_on_c, 1, 68, 64
4, 12263, Note_on_c, 1, 68, 0
4, 12264, Note_on_c, 1, 74, 64
4, 12287, Note_on_c, 1, 74, 0
4, 12312, Note_on_c, 1, 67, 64
4, 12335, Note_on_c, 1, 67, 0
4, 12336, Note_on_c, 1, 70, 64
4, 12359, Note_on_c, 1, 70, 0
4, 12360, Note_on_c, 1, 75, 64
4, 12383, Note_on_c, 1, 75, 0
4, 12384, Note_on_c, 1, 68, 64
4, 12473, Note_on_c, 1, 68, 0
4, 12480, Note_on_c, 1, 56, 75
4, 12613, Note_on_c, 1, 56, 0
4, 12624, Note_on_c, 1, 57, 81
4, 12669, Note_on_c, 1, 57, 0
4, 12696, Note_on_c, 1, 58, 75
4, 12719, Note_on_c, 1, 58, 0
4, 12720, Note_on_c, 1, 60, 75
4, 12743, Note_on_c, 1, 60, 0
4, 12744, Note_on_c, 1, 57, 76
4, 12767, Note_on_c, 1, 57, 0
4, 12768, Note_on_c, 1, 58, 77
4, 12791, Note_on_c, 1, 58, 0
4, 12792, Note_on_c, 1, 60, 78
4, 12815, Note_on_c, 1, 60, 0
4, 12816, Note_on_c, 1, 62, 79
4, 12839, Note_on_c, 1, 62, 0
4, 12840, Note_on_c, 1, 63, 79
4, 12863, Note_on_c, 1, 63, 0
4, 12864, Note_on_c, 1, 65, 80
4, 12887, Note_on_c, 1, 65, 0
4, 12888, Note_on_c, 1, 67, 81
4, 12911, Note_on_c, 1, 67, 0
4, 12912, Note_on_c, 1, 68, 82
4, 12935, Note_on_c, 1, 68, 0
4, 12936, Note_on_c, 1, 70, 83
4, 12959, Note_on_c, 1, 70, 0
4, 12960, Note_on_c, 1, 68, 84
4, 13056, Note_on_c, 1, 68, 0
4, 13056, Note_on_c, 1, 67, 79
4, 13062, Note_on_c, 1, 67, 0
4, 13062, Note_on_c, 1, 68, 79
4, 13068, Note_on_c, 1, 68, 0
4, 13068, Note_on_c, 1, 67, 79
4, 13147, Note_on_c, 1, 67, 0
4, 13272, Note_on_c, 1, 58, 75
4, 13295, Note_on_c, 1, 58, 0
4, 13296, Note_on_c, 1, 60, 75
4, 13319, Note_on_c, 1, 60, 0
4, 13320, Note_on_c, 1, 57, 76
4, 13343, Note_on_c, 1, 57, 0
4, 13344, Note_on_c, 1, 58, 77
4, 13367, Note_on_c, 1, 58, 0
4, 13368, Note_on_c, 1, 60, 78
4, 13391, Note_on_c, 1, 60, 0
4, 13392, Note_on_c, 1, 62, 79
4, 13415, Note_on_c, 1, 62, 0
4, 13416, Note_on_c, 1, 63, 79
4, 13439, Note_on_c, 1, 63, 0
4, 13440, Note_on_c, 1, 65, 80
4, 13463, Note_on_c, 1, 65, 0
4, 13464, Note_on_c, 1, 67, 81
4, 13487, Note_on_c, 1, 67, 0
4, 13488, Note_on_c, 1, 68, 82
4, 13511, Note_on_c, 1, 68, 0
4, 13512, Note_on_c, 1, 70, 83
4, 13535, Note_on_c, 1, 70, 0
4, 13536, Note_on_c, 1, 68, 84
4, 13632, Note_on_c, 1, 68, 0
4, 13632, Note_on_c, 1, 67, 76
4, 13638, Note_on_c, 1, 67, 0
4, 13638, Note_on_c, 1, 68, 76
4, 13644, Note_on_c, 1, 68, 0
4, 13644, Note_on_c, 1, 67, 76
4, 13773, Note_on_c, 1, 67, 0
4, 13776, Note_on_c, 1, 65, 75
4, 13821, Note_on_c, 1, 65, 0
4, 13848, Note_on_c, 1, 64, 75
4, 13871, Note_on_c, 1, 64, 0
4, 13872, Note_on_c, 1, 67, 76
4, 13895, Note_on_c, 1, 67, 0
4, 13896, Note_on_c, 1, 64, 78
4, 13919, Note_on_c, 1, 64, 0
4, 13920, Note_on_c, 1, 65, 80
4, 13943, Note_on_c, 1, 65, 0
4, 13944, Note_on_c, 1, 67, 82
4, 13967, Note_on_c, 1, 67, 0
4, 13968, Note_on_c, 1, 68, 84
4, 13991, Note_on_c, 1, 68, 0
4, 13992, Note_on_c, 1, 67, 82
4, 14015, Note_on_c, 1, 67, 0
4, 14016, Note_on_c, 1, 65, 81
4, 14039, Note_on_c, 1, 65, 0
4, 14040, Note_on_c, 1, 63, 79
4, 14063, Note_on_c, 1, 63, 0
4, 14064, Note_on_c, 1, 62, 78
4, 14070, Note_on_c, 1, 62, 0
4, 14070, Note_on_c, 1, 63, 78
4, 14076, Note_on_c, 1, 63, 0
4, 14076, Note_on_c, 1, 62, 78
4, 14087, Note_on_c, 1, 62, 0
4, 14088, Note_on_c, 1, 60, 76
4, 14111, Note_on_c, 1, 60, 0
4, 14136, Note_on_c, 1, 62, 75
4, 14159, Note_on_c, 1, 62, 0
4, 14160, Note_on_c, 1, 65, 76
4, 14183, Note_on_c, 1, 65, 0
4, 14184, Note_on_c, 1, 62, 78
4, 14207, Note_on_c, 1, 62, 0
4, 14208, Note_on_c, 1, 63, 80
4, 14231, Note_on_c, 1, 63, 0
4, 14232, Note_on_c, 1, 65, 82
4, 14255, Note_on_c, 1, 65, 0
4, 14256, Note_on_c, 1, 67, 84
4, 14279, Note_on_c, 1, 67, 0
4, 14280, Note_on_c, 1, 65, 82
4, 14303, Note_on_c, 1, 65, 0
4, 14304, Note_on_c, 1, 63, 81
4, 14310, Note_on_c, 1, 63, 0
4, 14310, Note_on_c, 1, 65, 81
4, 14316, Note_on_c, 1, 65, 0
4, 14316, Note_on_c, 1, 63, 81
4, 14327, Note_on_c, 1, 63, 0
4, 14328, Note_on_c, 1, 62, 79
4, 14351, Note_on_c, 1, 62, 0
4, 14352, Note_on_c, 1, 60, 78
4, 14358, Note_on_c, 1, 60, 0
4, 14358, Note_on_c, 1, 61, 78
4, 14364, Note_on_c, 1, 61, 0
4, 14364, Note_on_c, 1, 60, 78
4, 14375, Note_on_c, 1, 60, 0
4, 14376, Note_on_c, 1, 58, 76
4, 14399, Note_on_c, 1, 58, 0
4, 14496, Note_on_c, 1, 60, 75
4, 14585, Note_on_c, 1, 60, 0
4, 14592, Note_on_c, 1, 65, 75
4, 14681, Note_on_c, 1, 65, 0
4, 14784, Note_on_c, 1, 58, 75
4, 14873, Note_on_c, 1, 58, 0
4, 14880, Note_on_c, 1, 63, 75
4, 15153, Note_on_c, 1, 63, 0
4, 15168, Note_on_c, 1, 56, 75
4, 15257, Note_on_c, 1, 56, 0
4, 15288, Note_on_c, 1, 51, 61
4, 15311, Note_on_c, 1, 51, 0
4, 15312, Note_on_c, 1, 53, 61
4, 15335, Note_on_c, 1, 53, 0
4, 15336, Note_on_c, 1, 51, 61
4, 15359, Note_on_c, 1, 51, 0
4, 15360, Note_on_c, 1, 55, 61
4, 15383, Note_on_c, 1, 55, 0
4, 15384, Note_on_c, 1, 53, 61
4, 15407, Note_on_c, 1, 53, 0
4, 15408, Note_on_c, 1, 56, 61
4, 15431, Note_on_c, 1, 56, 0
4, 15432, Note_on_c, 1, 55, 61
4, 15455, Note_on_c, 1, 55, 0
4, 15456, Note_on_c, 1, 56, 61
4, 15501, Note_on_c, 1, 56, 0
4, 15504, Note_on_c, 1, 58, 59
4, 15549, Note_on_c, 1, 58, 0
4, 15576, Note_on_c, 1, 51, 61
4, 15599, Note_on_c, 1, 51, 0
4, 15600, Note_on_c, 1, 53, 61
4, 15623, Note_on_c, 1, 53, 0
4, 15624, Note_on_c, 1, 51, 61
4, 15647, Note_on_c, 1, 51, 0
4, 15648, Note_on_c, 1, 55, 61
4, 15671, Note_on_c, 1, 55, 0
4, 15672, Note_on_c, 1, 53, 61
4, 15695, Note_on_c, 1, 53, 0
4, 15696, Note_on_c, 1, 56, 61
4, 15719, Note_on_c, 1, 56, 0
4, 15720, Note_on_c, 1, 55, 61
4, 15743, Note_on_c, 1, 55, 0
4, 15744, Note_on_c, 1, 56, 61
4, 15789, Note_on_c, 1, 56, 0
4, 15792, Note_on_c, 1, 58, 61
4, 15837, Note_on_c, 1, 58, 0
4, 15840, Note_on_c, 1, 51, 61
4, 16017, Note_on_c, 1, 51, 0
4, 16128, Note_on_c, 1, 51, 75
4, 16217, Note_on_c, 1, 51, 0
4, 16464, Note_on_c, 1, 51, 75
4, 16509, Note_on_c, 1, 51, 0
4, 16512, Note_on_c, 1, 55, 75
4, 16557, Note_on_c, 1, 55, 0
4, 16560, Note_on_c, 1, 51, 75
4, 16605, Note_on_c, 1, 51, 0
4, 16608, Note_on_c, 1, 53, 75
4, 16653, Note_on_c, 1, 53, 0
4, 16656, Note_on_c, 1, 46, 75
4, 16701, Note_on_c, 1, 46, 0
4, 16752, Note_on_c, 1, 51, 75
4, 16797, Note_on_c, 1, 51, 0
4, 16800, Note_on_c, 1, 51, 75
4, 16845, Note_on_c, 1, 51, 0
4, 16848, Note_on_c, 1, 60, 75
4, 16893, Note_on_c, 1, 60, 0
4, 16896, Note_on_c, 1, 56, 75
4, 16941, Note_on_c, 1, 56, 0
4, 16944, Note_on_c, 1, 58, 75
4, 16989, Note_on_c, 1, 58, 0
4, 17016, Note_on_c, 1, 51, 75
4, 17039, Note_on_c, 1, 51, 0
4, 17040, Note_on_c, 1, 55, 75
4, 17063, Note_on_c, 1, 55, 0
4, 17064, Note_on_c, 1, 51, 75
4, 17087, Note_on_c, 1, 51, 0
4, 17088, Note_on_c, 1, 46, 75
4, 17111, Note_on_c, 1, 46, 0
4, 17112, Note_on_c, 1, 51, 75
4, 17135, Note_on_c, 1, 51, 0
4, 17136, Note_on_c, 1, 43, 75
4, 17159, Note_on_c, 1, 43, 0
4, 17160, Note_on_c, 1, 46, 75
4, 17183, Note_on_c, 1, 46, 0
4, 17184, Note_on_c, 1, 51, 75
4, 17207, Note_on_c, 1, 51, 0
4, 17208, Note_on_c, 1, 55, 75
4, 17231, Note_on_c, 1, 55, 0
4, 17232, Note_on_c, 1, 58, 75
4, 17255, Note_on_c, 1, 58, 0
4, 17256, Note_on_c, 1, 55, 75
4, 17279, Note_on_c, 1, 55, 0
4, 17280, Note_on_c, 1, 63, 75
4, 17369, Note_on_c, 1, 63, 0
4, 17592, Note_on_c, 1, 63, 75
4, 17615, Note_on_c, 1, 63, 0
4, 17616, Note_on_c, 1, 62, 75
4, 17639, Note_on_c, 1, 62, 0
4, 17640, Note_on_c, 1, 63, 76
4, 17663, Note_on_c, 1, 63, 0
4, 17664, Note_on_c, 1, 65, 77
4, 17687, Note_on_c, 1, 65, 0
4, 17688, Note_on_c, 1, 63, 78
4, 17711, Note_on_c, 1, 63, 0
4, 17712, Note_on_c, 1, 62, 79
4, 17735, Note_on_c, 1, 62, 0
4, 17736, Note_on_c, 1, 63, 79
4, 17759, Note_on_c, 1, 63, 0
4, 17760, Note_on_c, 1, 66, 80
4, 17783, Note_on_c, 1, 66, 0
4, 17784, Note_on_c, 1, 63, 81
4, 17807, Note_on_c, 1, 63, 0
4, 17808, Note_on_c, 1, 61, 82
4, 17831, Note_on_c, 1, 61, 0
4, 17832, Note_on_c, 1, 60, 83
4, 17855, Note_on_c, 1, 60, 0
4, 17856, Note_on_c, 1, 58, 84
4, 17952, Note_on_c, 1, 58, 0
4, 17952, Note_on_c, 1, 57, 76
4, 17958, Note_on_c, 1, 57, 0
4, 17958, Note_on_c, 1, 58, 76
4, 17964, Note_on_c, 1, 58, 0
4, 17964, Note_on_c, 1, 57, 76
4, 18043, Note_on_c, 1, 57, 0
4, 18168, Note_on_c, 1, 60, 75
4, 18191, Note_on_c, 1, 60, 0
4, 18192, Note_on_c, 1, 58, 75
4, 18215, Note_on_c, 1, 58, 0
4, 18216, Note_on_c, 1, 57, 75
4, 18239, Note_on_c, 1, 57, 0
4, 18240, Note_on_c, 1, 58, 75
4, 18263, Note_on_c, 1, 58, 0
4, 18264, Note_on_c, 1, 61, 75
4, 18287, Note_on_c, 1, 61, 0
4, 18288, Note_on_c, 1, 65, 75
4, 18311, Note_on_c, 1, 65, 0
4, 18312, Note_on_c, 1, 61, 75
4, 18335, Note_on_c, 1, 61, 0
4, 18336, Note_on_c, 1, 70, 75
4, 18455, Note_on_c, 1, 70, 0
4, 18456, Note_on_c, 1, 73, 75
4, 18479, Note_on_c, 1, 73, 0
4, 18480, Note_on_c, 1, 72, 75
4, 18503, Note_on_c, 1, 72, 0
4, 18504, Note_on_c, 1, 70, 75
4, 18527, Note_on_c, 1, 70, 0
4, 18528, Note_on_c, 1, 68, 75
4, 18647, Note_on_c, 1, 68, 0
4, 18648, Note_on_c, 1, 67, 75
4, 18671, Note_on_c, 1, 67, 0
4, 18672, Note_on_c, 1, 65, 75
4, 18695, Note_on_c, 1, 65, 0
4, 18696, Note_on_c, 1, 64, 75
4, 18719, Note_on_c, 1, 64, 0
4, 18720, Note_on_c, 1, 65, 75
4, 18839, Note_on_c, 1, 65, 0
4, 18840, Note_on_c, 1, 67, 75
4, 18863, Note_on_c, 1, 67, 0
4, 18864, Note_on_c, 1, 68, 75
4, 18887, Note_on_c, 1, 68, 0
4, 18888, Note_on_c, 1, 70, 75
4, 18911, Note_on_c, 1, 70, 0
4, 18912, Note_on_c, 1, 64, 75
4, 19001, Note_on_c, 1, 64, 0
4, 19008, Note_on_c, 1, 65, 75
4, 19097, Note_on_c, 1, 65, 0
4, 19104, Note_on_c, 1, 67, 75
4, 19193, Note_on_c, 1, 67, 0
4, 19200, Note_on_c, 1, 68, 75
4, 19267, Note_on_c, 1, 68, 0
4, 19272, Note_on_c, 1, 56, 75
4, 19295, Note_on_c, 1, 56, 0
4, 19296, Note_on_c, 1, 58, 75
4, 19385, Note_on_c, 1, 58, 0
4, 19392, Note_on_c, 1, 60, 75
4, 19481, Note_on_c, 1, 60, 0
4, 19488, Note_on_c, 1, 48, 75
4, 19577, Note_on_c, 1, 48, 0
4, 19608, Note_on_c, 1, 56, 61
4, 19631, Note_on_c, 1, 56, 0
4, 19632, Note_on_c, 1, 58, 61
4, 19655, Note_on_c, 1, 58, 0
4, 19656, Note_on_c, 1, 56, 61
4, 19679, Note_on_c, 1, 56, 0
4, 19680, Note_on_c, 1, 60, 61
4, 19703, Note_on_c, 1, 60, 0
4, 19704, Note_on_c, 1, 58, 61
4, 19727, Note_on_c, 1, 58, 0
4, 19728, Note_on_c, 1, 61, 61
4, 19751, Note_on_c, 1, 61, 0
4, 19752, Note_on_c, 1, 60, 61
4, 19775, Note_on_c, 1, 60, 0
4, 19776, Note_on_c, 1, 61, 61
4, 19799, Note_on_c, 1, 61, 0
4, 19800, Note_on_c, 1, 58, 61
4, 19823, Note_on_c, 1, 58, 0
4, 19824, Note_on_c, 1, 56, 61
4, 19830, Note_on_c, 1, 56, 0
4, 19830, Note_on_c, 1, 58, 61
4, 19836, Note_on_c, 1, 58, 0
4, 19836, Note_on_c, 1, 56, 61
4, 19847, Note_on_c, 1, 56, 0
4, 19848, Note_on_c, 1, 55, 61
4, 19871, Note_on_c, 1, 55, 0
4, 19872, Note_on_c, 1, 53, 61
4, 20049, Note_on_c, 1, 53, 0
4, 20064, Note_on_c, 1, 51, 66
4, 20425, Note_on_c, 1, 51, 0
4, 20448, Control_c, 1, 64, 127
4, 20448, Note_on_c, 1, 60, 76
4, 20448, Note_on_c, 1, 56, 76
4, 20448, Note_on_c, 1, 51, 76
4, 20713, Note_on_c, 1, 60, 0
4, 20713, Note_on_c, 1, 56, 0
4, 20713, Note_on_c, 1, 51, 0
4, 20736, Control_c, 1, 64, 0
4, 20736, Control_c, 1, 64, 127
4, 20736, Note_on_c, 1, 59, 84
4, 20736, Note_on_c, 1, 56, 84
4, 20736, Note_on_c, 1, 51, 84
4, 21001, Note_on_c, 1, 59, 0
4, 21001, Note_on_c, 1, 56, 0
4, 21001, Note_on_c, 1, 51, 0
4, 21024, Control_c, 1, 64, 0
4, 21024, Control_c, 1, 64, 127
4, 21024, Note_on_c, 1, 59, 84
4, 21024, Note_on_c, 1, 56, 84
4, 21024, Note_on_c, 1, 52, 84
4, 21289, Note_on_c, 1, 59, 0
4, 21289, Note_on_c, 1, 56, 0
4, 21289, Note_on_c, 1, 52, 0
4, 21312, Control_c, 1, 64, 0
4, 21312, Control_c, 1, 64, 127
4, 21312, Note_on_c, 1, 59, 103
4, 21312, Note_on_c, 1, 56, 103
4, 21312, Note_on_c, 1, 53, 103
4, 21312, Note_on_c, 1, 50, 103
4, 21577, Note_on_c, 1, 59, 0
4, 21577, Note_on_c, 1, 56, 0
4, 21577, Note_on_c, 1, 53, 0
4, 21577, Note_on_c, 1, 50, 0
4, 21600, Control_c, 1, 64, 0
4, 21600, Note_on_c, 1, 58, 84
4, 21645, Note_on_c, 1, 58, 0
4, 21648, Note_on_c, 1, 56, 84
4, 21693, Note_on_c, 1, 56, 0
4, 21696, Note_on_c, 1, 55, 84
4, 21719, Note_on_c, 1, 55, 0
4, 21888, Note_on_c, 1, 44, 84
4, 21977, Note_on_c, 1, 44, 0
4, 22224, Note_on_c, 1, 56, 84
4, 22269, Note_on_c, 1, 56, 0
4, 22272, Note_on_c, 1, 60, 84
4, 22317, Note_on_c, 1, 60, 0
4, 22320, Note_on_c, 1, 56, 84
4, 22365, Note_on_c, 1, 56, 0
4, 22368, Note_on_c, 1, 58, 84
4, 22413, Note_on_c, 1, 58, 0
4, 22416, Note_on_c, 1, 51, 84
4, 22461, Note_on_c, 1, 51, 0
4, 22512, Note_on_c, 1, 56, 84
4, 22557, Note_on_c, 1, 56, 0
4, 22560, Note_on_c, 1, 56, 84
4, 22605, Note_on_c, 1, 56, 0
4, 22608, Note_on_c, 1, 60, 84
4, 22653, Note_on_c, 1, 60, 0
4, 22656, Note_on_c, 1, 61, 84
4, 22701, Note_on_c, 1, 61, 0
4, 22704, Note_on_c, 1, 63, 84
4, 22749, Note_on_c, 1, 63, 0
4, 22776, Note_on_c, 1, 56, 84
4, 22799, Note_on_c, 1, 56, 0
4, 22800, Note_on_c, 1, 60, 84
4, 22823, Note_on_c, 1, 60, 0
4, 22824, Note_on_c, 1, 56, 84
4, 22847, Note_on_c, 1, 56, 0
4, 22848, Note_on_c, 1, 51, 84
4, 22871, Note_on_c, 1, 51, 0
4, 22872, Note_on_c, 1, 56, 84
4, 22895, Note_on_c, 1, 56, 0
4, 22896, Note_on_c, 1, 48, 84
4, 22919, Note_on_c, 1, 48, 0
4, 22920, Note_on_c, 1, 51, 84
4, 22943, Note_on_c, 1, 51, 0
4, 22944, Note_on_c, 1, 56, 84
4, 22967, Note_on_c, 1, 56, 0
4, 22968, Note_on_c, 1, 60, 84
4, 22991, Note_on_c, 1, 60, 0
4, 22992, Note_on_c, 1, 63, 84
4, 23015, Note_on_c, 1, 63, 0
4, 23016, Note_on_c, 1, 68, 84
4, 23039, Note_on_c, 1, 68, 0
4, 23040, Note_on_c, 1, 61, 84
4, 23129, Note_on_c, 1, 61, 0
4, 23136, Note_on_c, 1, 60, 84
4, 23181, Note_on_c, 1, 60, 0
4, 23184, Note_on_c, 1, 56, 84
4, 23229, Note_on_c, 1, 56, 0
4, 23232, Note_on_c, 1, 58, 84
4, 23277, Note_on_c, 1, 58, 0
4, 23280, Note_on_c, 1, 51, 84
4, 23325, Note_on_c, 1, 51, 0
4, 23352, Note_on_c, 1, 56, 84
4, 23375, Note_on_c, 1, 56, 0
4, 23376, Note_on_c, 1, 60, 84
4, 23399, Note_on_c, 1, 60, 0
4, 23400, Note_on_c, 1, 56, 84
4, 23423, Note_on_c, 1, 56, 0
4, 23424, Note_on_c, 1, 51, 84
4, 23447, Note_on_c, 1, 51, 0
4, 23448, Note_on_c, 1, 56, 84
4, 23471, Note_on_c, 1, 56, 0
4, 23472, Note_on_c, 1, 48, 84
4, 23484, Note_on_c, 1, 48, 0
4, 23484, Note_on_c, 1, 51, 84
4, 23496, Note_on_c, 1, 51, 0
4, 23496, Note_on_c, 1, 53, 84
4, 23508, Note_on_c, 1, 53, 0
4, 23508, Note_on_c, 1, 55, 84
4, 23520, Note_on_c, 1, 55, 0
4, 23520, Note_on_c, 1, 56, 84
4, 23532, Note_on_c, 1, 56, 0
4, 23532, Note_on_c, 1, 58, 84
4, 23544, Note_on_c, 1, 58, 0
4, 23544, Note_on_c, 1, 60, 84
4, 23556, Note_on_c, 1, 60, 0
4, 23556, Note_on_c, 1, 61, 84
4, 23568, Note_on_c, 1, 61, 0
4, 23568, Note_on_c, 1, 63, 84
4, 23580, Note_on_c, 1, 63, 0
4, 23580, Note_on_c, 1, 65, 84
4, 23592, Note_on_c, 1, 65, 0
4, 23592, Note_on_c, 1, 67, 84
4, 23604, Note_on_c, 1, 67, 0
4, 23604, Note_on_c, 1, 68, 84
4, 23616, Note_on_c, 1, 68, 0
4, 23616, Note_on_c, 1, 61, 84
4, 23705, Note_on_c, 1, 61, 0
4, 23712, Note_on_c, 1, 60, 84
4, 23801, Note_on_c, 1, 60, 0
4, 23808, Note_on_c, 1, 58, 84
4, 23897, Note_on_c, 1, 58, 0
4, 23904, Note_on_c, 1, 56, 84
4, 23993, Note_on_c, 1, 56, 0
4, 24000, Note_on_c, 1, 61, 75
4, 24089, Note_on_c, 1, 61, 0
4, 24096, Note_on_c, 1, 49, 76
4, 24141, Note_on_c, 1, 49, 0
4, 24144, Note_on_c, 1, 50, 77
4, 24189, Note_on_c, 1, 50, 0
4, 24216, Note_on_c, 1, 51, 75
4, 24239, Note_on_c, 1, 51, 0
4, 24240, Note_on_c, 1, 53, 75
4, 24263, Note_on_c, 1, 53, 0
4, 24264, Note_on_c, 1, 50, 76
4, 24287, Note_on_c, 1, 50, 0
4, 24288, Note_on_c, 1, 51, 77
4, 24311, Note_on_c, 1, 51, 0
4, 24312, Note_on_c, 1, 53, 78
4, 24335, Note_on_c, 1, 53, 0
4, 24336, Note_on_c, 1, 55, 79
4, 24359, Note_on_c, 1, 55, 0
4, 24360, Note_on_c, 1, 56, 79
4, 24383, Note_on_c, 1, 56, 0
4, 24384, Note_on_c, 1, 58, 80
4, 24407, Note_on_c, 1, 58, 0
4, 24408, Note_on_c, 1, 60, 81
4, 24431, Note_on_c, 1, 60, 0
4, 24432, Note_on_c, 1, 61, 82
4, 24455, Note_on_c, 1, 61, 0
4, 24456, Note_on_c, 1, 63, 83
4, 24479, Note_on_c, 1, 63, 0
4, 24480, Note_on_c, 1, 61, 84
4, 24576, Note_on_c, 1, 61, 0
4, 24576, Note_on_c, 1, 60, 76
4, 24582, Note_on_c, 1, 60, 0
4, 24582, Note_on_c, 1, 61, 76
4, 24588, Note_on_c, 1, 61, 0
4, 24588, Note_on_c, 1, 60, 76
4, 24667, Note_on_c, 1, 60, 0
4, 24792, Note_on_c, 1, 51, 75
4, 24815, Note_on_c, 1, 51, 0
4, 24816, Note_on_c, 1, 53, 75
4, 24839, Note_on_c, 1, 53, 0
4, 24840, Note_on_c, 1, 50, 76
4, 24863, Note_on_c, 1, 50, 0
4, 24864, Note_on_c, 1, 51, 77
4, 24887, Note_on_c, 1, 51, 0
4, 24888, Note_on_c, 1, 53, 78
4, 24911, Note_on_c, 1, 53, 0
4, 24912, Note_on_c, 1, 55, 79
4, 24935, Note_on_c, 1, 55, 0
4, 24936, Note_on_c, 1, 56, 79
4, 24959, Note_on_c, 1, 56, 0
4, 24960, Note_on_c, 1, 58, 80
4, 24983, Note_on_c, 1, 58, 0
4, 24984, Note_on_c, 1, 60, 81
4, 25007, Note_on_c, 1, 60, 0
4, 25008, Note_on_c, 1, 61, 82
4, 25031, Note_on_c, 1, 61, 0
4, 25032, Note_on_c, 1, 63, 83
4, 25055, Note_on_c, 1, 63, 0
4, 25056, Note_on_c, 1, 61, 84
4, 25152, Note_on_c, 1, 61, 0
4, 25152, Note_on_c, 1, 60, 76
4, 25158, Note_on_c, 1, 60, 0
4, 25158, Note_on_c, 1, 61, 76
4, 25164, Note_on_c, 1, 61, 0
4, 25164, Note_on_c, 1, 60, 76
4, 25243, Note_on_c, 1, 60, 0
4, 25368, Note_on_c, 1, 49, 75
4, 25391, Note_on_c, 1, 49, 0
4, 25392, Note_on_c, 1, 51, 75
4, 25415, Note_on_c, 1, 51, 0
4, 25416, Note_on_c, 1, 48, 76
4, 25439, Note_on_c, 1, 48, 0
4, 25440, Note_on_c, 1, 49, 77
4, 25463, Note_on_c, 1, 49, 0
4, 25464, Note_on_c, 1, 51, 78
4, 25487, Note_on_c, 1, 51, 0
4, 25488, Note_on_c, 1, 53, 79
4, 25511, Note_on_c, 1, 53, 0
4, 25512, Note_on_c, 1, 54, 79
4, 25535, Note_on_c, 1, 54, 0
4, 25536, Note_on_c, 1, 56, 80
4, 25559, Note_on_c, 1, 56, 0
4, 25560, Note_on_c, 1, 58, 81
4, 25583, Note_on_c, 1, 58, 0
4, 25584, Note_on_c, 1, 60, 82
4, 25607, Note_on_c, 1, 60, 0
4, 25608, Note_on_c, 1, 61, 83
4, 25631, Note_on_c, 1, 61, 0
4, 25656, Note_on_c, 1, 56, 75
4, 25679, Note_on_c, 1, 56, 0
4, 25680, Note_on_c, 1, 58, 75
4, 25703, Note_on_c, 1, 58, 0
4, 25704, Note_on_c, 1, 55, 76
4, 25727, Note_on_c, 1, 55, 0
4, 25728, Note_on_c, 1, 56, 77
4, 25751, Note_on_c, 1, 56, 0
4, 25752, Note_on_c, 1, 58, 78
4, 25775, Note_on_c, 1, 58, 0
4, 25776, Note_on_c, 1, 60, 79
4, 25799, Note_on_c, 1, 60, 0
4, 25800, Note_on_c, 1, 61, 79
4, 25823, Note_on_c, 1, 61, 0
4, 25824, Note_on_c, 1, 63, 80
4, 25847, Note_on_c, 1, 63, 0
4, 25848, Note_on_c, 1, 65, 81
4, 25871, Note_on_c, 1, 65, 0
4, 25872, Note_on_c, 1, 67, 82
4, 25895, Note_on_c, 1, 67, 0
4, 25896, Note_on_c, 1, 68, 83
4, 25919, Note_on_c, 1, 68, 0
4, 25944, Note_on_c, 1, 65, 84
4, 25967, Note_on_c, 1, 65, 0
4, 25968, Note_on_c, 1, 63, 84
4, 25974, Note_on_c, 1, 63, 0
4, 25974, Note_on_c, 1, 65, 84
4, 25980, Note_on_c, 1, 65, 0
4, 25980, Note_on_c, 1, 63, 84
4, 25991, Note_on_c, 1, 63, 0
4, 25992, Note_on_c, 1, 61, 84
4, 26015, Note_on_c, 1, 61, 0
4, 26040, Note_on_c, 1, 67, 84
4, 26063, Note_on_c, 1, 67, 0
4, 26064, Note_on_c, 1, 65, 84
4, 26070, Note_on_c, 1, 65, 0
4, 26070, Note_on_c, 1, 67, 84
4, 26076, Note_on_c, 1, 67, 0
4, 26076, Note_on_c, 1, 65, 84
4, 26087, Note_on_c, 1, 65, 0
4, 26088, Note_on_c, 1, 63, 84
4, 26111, Note_on_c, 1, 63, 0
4, 26136, Note_on_c, 1, 68, 84
4, 26159, Note_on_c, 1, 68, 0
4, 26160, Note_on_c, 1, 65, 84
4, 26166, Note_on_c, 1, 65, 0
4, 26166, Note_on_c, 1, 67, 84
4, 26172, Note_on_c, 1, 67, 0
4, 26172, Note_on_c, 1, 65, 84
4, 26183, Note_on_c, 1, 65, 0
4, 26184, Note_on_c, 1, 62, 84
4, 26207, Note_on_c, 1, 62, 0
4, 26232, Note_on_c, 1, 51, 75
4, 26255, Note_on_c, 1, 51, 0
4, 26256, Note_on_c, 1, 53, 75
4, 26279, Note_on_c, 1, 53, 0
4, 26280, Note_on_c, 1, 50, 76
4, 26303, Note_on_c, 1, 50, 0
4, 26304, Note_on_c, 1, 51, 77
4, 26310, Note_on_c, 1, 51, 0
4, 26310, Note_on_c, 1, 53, 77
4, 26316, Note_on_c, 1, 53, 0
4, 26316, Note_on_c, 1, 51, 77
4, 26327, Note_on_c, 1, 51, 0
4, 26328, Note_on_c, 1, 53, 78
4, 26351, Note_on_c, 1, 53, 0
4, 26352, Note_on_c, 1, 55, 79
4, 26375, Note_on_c, 1, 55, 0
4, 26376, Note_on_c, 1, 56, 79
4, 26399, Note_on_c, 1, 56, 0
4, 26400, Note_on_c, 1, 58, 80
4, 26423, Note_on_c, 1, 58, 0
4, 26424, Note_on_c, 1, 60, 81
4, 26447, Note_on_c, 1, 60, 0
4, 26448, Note_on_c, 1, 61, 82
4, 26471, Note_on_c, 1, 61, 0
4, 26472, Note_on_c, 1, 63, 83
4, 26495, Note_on_c, 1, 63, 0
4, 26496, Note_on_c, 1, 61, 84
4, 26592, Note_on_c, 1, 61, 0
4, 26592, Note_on_c, 1, 60, 76
4, 26598, Note_on_c, 1, 60, 0
4, 26598, Note_on_c, 1, 61, 76
4, 26604, Note_on_c, 1, 61, 0
4, 26604, Note_on_c, 1, 60, 76
4, 26733, Note_on_c, 1, 60, 0
4, 26736, Note_on_c, 1, 58, 75
4, 26781, Note_on_c, 1, 58, 0
4, 26808, Note_on_c, 1, 57, 75
4, 26831, Note_on_c, 1, 57, 0
4, 26832, Note_on_c, 1, 60, 76
4, 26855, Note_on_c, 1, 60, 0
4, 26856, Note_on_c, 1, 57, 78
4, 26879, Note_on_c, 1, 57, 0
4, 26880, Note_on_c, 1, 58, 80
4, 26903, Note_on_c, 1, 58, 0
4, 26904, Note_on_c, 1, 60, 82
4, 26927, Note_on_c, 1, 60, 0
4, 26928, Note_on_c, 1, 61, 84
4, 26951, Note_on_c, 1, 61, 0
4, 26952, Note_on_c, 1, 60, 82
4, 26975, Note_on_c, 1, 60, 0
4, 26976, Note_on_c, 1, 58, 81
4, 26999, Note_on_c, 1, 58, 0
4, 27000, Note_on_c, 1, 56, 79
4, 27023, Note_on_c, 1, 56, 0
4, 27024, Note_on_c, 1, 55, 78
4, 27030, Note_on_c, 1, 55, 0
4, 27030, Note_on_c, 1, 56, 78
4, 27036, Note_on_c, 1, 56, 0
4, 27036, Note_on_c, 1, 55, 78
4, 27047, Note_on_c, 1, 55, 0
4, 27048, Note_on_c, 1, 53, 76
4, 27071, Note_on_c, 1, 53, 0
4, 27096, Note_on_c, 1, 55, 75
4, 27119, Note_on_c, 1, 55, 0
4, 27120, Note_on_c, 1, 58, 76
4, 27143, Note_on_c, 1, 58, 0
4, 27144, Note_on_c, 1, 55, 78
4, 27167, Note_on_c, 1, 55, 0
4, 27168, Note_on_c, 1, 56, 80
4, 27191, Note_on_c, 1, 56, 0
4, 27192, Note_on_c, 1, 58, 82
4, 27215, Note_on_c, 1, 58, 0
4, 27216, Note_on_c, 1, 60, 84
4, 27239, Note_on_c, 1, 60, 0
4, 27240, Note_on_c, 1, 58, 82
4, 27263, Note_on_c, 1, 58, 0
4, 27264, Note_on_c, 1, 56, 81
4, 27270, Note_on_c, 1, 56, 0
4, 27270, Note_on_c, 1, 58, 81
4, 27276, Note_on_c, 1, 58, 0
4, 27276, Note_on_c, 1, 56, 81
4, 27287, Note_on_c, 1, 56, 0
4, 27288, Note_on_c, 1, 55, 79
4, 27311, Note_on_c, 1, 55, 0
4, 27312, Note_on_c, 1, 53, 78
4, 27318, Note_on_c, 1, 53, 0
4, 27318, Note_on_c, 1, 55, 78
4, 27324, Note_on_c, 1, 55, 0
4, 27324, Note_on_c, 1, 53, 78
4, 27335, Note_on_c, 1, 53, 0
4, 27336, Note_on_c, 1, 51, 76
4, 27359, Note_on_c, 1, 51, 0
4, 27456, Note_on_c, 1, 53, 75
4, 27545, Note_on_c, 1, 53, 0
4, 27552, Note_on_c, 1, 58, 75
4, 27641, Note_on_c, 1, 58, 0
4, 27744, Note_on_c, 1, 51, 75
4, 27833, Note_on_c, 1, 51, 0
4, 27840, Note_on_c, 1, 56, 75
4, 28113, Note_on_c, 1, 56, 0
4, 28128, Note_on_c, 1, 55, 75
4, 28173, Note_on_c, 1, 55, 0
4, 28176, Note_on_c, 1, 61, 68
4, 28221, Note_on_c, 1, 61, 0
4, 28248, Note_on_c, 1, 56, 61
4, 28271, Note_on_c, 1, 56, 0
4, 28272, Note_on_c, 1, 58, 61
4, 28295, Note_on_c, 1, 58, 0
4, 28296, Note_on_c, 1, 56, 61
4, 28319, Note_on_c, 1, 56, 0
4, 28320, Note_on_c, 1, 60, 61
4, 28343, Note_on_c, 1, 60, 0
4, 28344, Note_on_c, 1, 58, 61
4, 28367, Note_on_c, 1, 58, 0
4, 28368, Note_on_c, 1, 61, 61
4, 28391, Note_on_c, 1, 61, 0
4, 28392, Note_on_c, 1, 60, 61
4, 28415, Note_on_c, 1, 60, 0
4, 28416, Note_on_c, 1, 61, 61
4, 28461, Note_on_c, 1, 61, 0
4, 28464, Note_on_c, 1, 63, 59
4, 28509, Note_on_c, 1, 63, 0
4, 28536, Note_on_c, 1, 44, 57
4, 28559, Note_on_c, 1, 44, 0
4, 28560, Note_on_c, 1, 46, 57
4, 28583, Note_on_c, 1, 46, 0
4, 28584, Note_on_c, 1, 44, 57
4, 28607, Note_on_c, 1, 44, 0
4, 28608, Note_on_c, 1, 48, 57
4, 28631, Note_on_c, 1, 48, 0
4, 28632, Note_on_c, 1, 46, 57
4, 28655, Note_on_c, 1, 46, 0
4, 28656, Note_on_c, 1, 49, 57
4, 28679, Note_on_c, 1, 49, 0
4, 28680, Note_on_c, 1, 48, 57
4, 28703, Note_on_c, 1, 48, 0
4, 28704, Note_on_c, 1, 49, 57
4, 28749, Note_on_c, 1, 49, 0
4, 28752, Note_on_c, 1, 51, 57
4, 28797, Note_on_c, 1, 51, 0
4, 28800, Note_on_c, 1, 44, 57
4, 29065, Note_on_c, 1, 44, 0
4, 29088, Note_on_c, 1, 51, 75
4, 29177, Note_on_c, 1, 51, 0
4, 29424, Note_on_c, 1, 51, 75
4, 29469, Note_on_c, 1, 51, 0
4, 29472, Note_on_c, 1, 55, 75
4, 29517, Note_on_c, 1, 55, 0
4, 29520, Note_on_c, 1, 51, 75
4, 29565, Note_on_c, 1, 51, 0
4, 29568, Note_on_c, 1, 53, 75
4, 29613, Note_on_c, 1, 53, 0
4, 29616, Note_on_c, 1, 46, 75
4, 29661, Note_on_c, 1, 46, 0
4, 29712, Note_on_c, 1, 51, 75
4, 29757, Note_on_c, 1, 51, 0
4, 29760, Note_on_c, 1, 51, 75
4, 29805, Note_on_c, 1, 51, 0
4, 29808, Note_on_c, 1, 60, 75
4, 29853, Note_on_c, 1, 60, 0
4, 29856, Note_on_c, 1, 56, 75
4, 29901, Note_on_c, 1, 56, 0
4, 29904, Note_on_c, 1, 58, 75
4, 29949, Note_on_c, 1, 58, 0
4, 29976, Note_on_c, 1, 51, 75
4, 29999, Note_on_c, 1, 51, 0
4, 30000, Note_on_c, 1, 55, 75
4, 30023, Note_on_c, 1, 55, 0
4, 30024, Note_on_c, 1, 51, 75
4, 30047, Note_on_c, 1, 51, 0
4, 30048, Note_on_c, 1, 46, 75
4, 30071, Note_on_c, 1, 46, 0
4, 30072, Note_on_c, 1, 51, 75
4, 30095, Note_on_c, 1, 51, 0
4, 30096, Note_on_c, 1, 43, 75
4, 30119, Note_on_c, 1, 43, 0
4, 30120, Note_on_c, 1, 46, 75
4, 30143, Note_on_c, 1, 46, 0
4, 30144, Note_on_c, 1, 51, 75
4, 30167, Note_on_c, 1, 51, 0
4, 30168, Note_on_c, 1, 55, 75
4, 30191, Note_on_c, 1, 55, 0
4, 30192, Note_on_c, 1, 58, 75
4, 30215, Note_on_c, 1, 58, 0
4, 30216, Note_on_c, 1, 55, 75
4, 30239, Note_on_c, 1, 55, 0
4, 30240, Note_on_c, 1, 63, 75
4, 30329, Note_on_c, 1, 63, 0
4, 30552, Note_on_c, 1, 63, 75
4, 30575, Note_on_c, 1, 63, 0
4, 30576, Note_on_c, 1, 62, 75
4, 30599, Note_on_c, 1, 62, 0
4, 30600, Note_on_c, 1, 63, 76
4, 30623, Note_on_c, 1, 63, 0
4, 30624, Note_on_c, 1, 65, 77
4, 30647, Note_on_c, 1, 65, 0
4, 30648, Note_on_c, 1, 63, 78
4, 30671, Note_on_c, 1, 63, 0
4, 30672, Note_on_c, 1, 62, 79
4, 30695, Note_on_c, 1, 62, 0
4, 30696, Note_on_c, 1, 63, 79
4, 30719, Note_on_c, 1, 63, 0
4, 30720, Note_on_c, 1, 66, 80
4, 30743, Note_on_c, 1, 66, 0
4, 30744, Note_on_c, 1, 63, 81
4, 30767, Note_on_c, 1, 63, 0
4, 30768, Note_on_c, 1, 61, 82
4, 30791, Note_on_c, 1, 61, 0
4, 30792, Note_on_c, 1, 60, 83
4, 30815, Note_on_c, 1, 60, 0
4, 30816, Note_on_c, 1, 58, 84
4, 30912, Note_on_c, 1, 58, 0
4, 30912, Note_on_c, 1, 57, 76
4, 30918, Note_on_c, 1, 57, 0
4, 30918, Note_on_c, 1, 58, 76
4, 30924, Note_on_c, 1, 58, 0
4, 30924, Note_on_c, 1, 57, 76
4, 31003, Note_on_c, 1, 57, 0
4, 31128, Note_on_c, 1, 60, 75
4, 31151, Note_on_c, 1, 60, 0
4, 31152, Note_on_c, 1, 58, 75
4, 31175, Note_on_c, 1, 58, 0
4, 31176, Note_on_c, 1, 57, 75
4, 31199, Note_on_c, 1, 57, 0
4, 31200, Note_on_c, 1, 58, 75
4, 31223, Note_on_c, 1, 58, 0
4, 31224, Note_on_c, 1, 61, 75
4, 31247, Note_on_c, 1, 61, 0
4, 31248, Note_on_c, 1, 65, 75
4, 31271, Note_on_c, 1, 65, 0
4, 31272, Note_on_c, 1, 61, 75
4, 31295, Note_on_c, 1, 61, 0
4, 31296, Note_on_c, 1, 70, 75
4, 31415, Note_on_c, 1, 70, 0
4, 31416, Note_on_c, 1, 73, 75
4, 31439, Note_on_c, 1, 73, 0
4, 31440, Note_on_c, 1, 72, 75
4, 31463, Note_on_c, 1, 72, 0
4, 31464, Note_on_c, 1, 70, 75
4, 31487, Note_on_c, 1, 70, 0
4, 31488, Note_on_c, 1, 68, 75
4, 31607, Note_on_c, 1, 68, 0
4, 31608, Note_on_c, 1, 67, 75
4, 31631, Note_on_c, 1, 67, 0
4, 31632, Note_on_c, 1, 65, 75
4, 31655, Note_on_c, 1, 65, 0
4, 31656, Note_on_c, 1, 64, 75
4, 31679, Note_on_c, 1, 64, 0
4, 31680, Note_on_c, 1, 65, 75
4, 31799, Note_on_c, 1, 65, 0
4, 31800, Note_on_c, 1, 67, 75
4, 31823, Note_on_c, 1, 67, 0
4, 31824, Note_on_c, 1, 68, 75
4, 31847, Note_on_c, 1, 68, 0
4, 31848, Note_on_c, 1, 70, 75
4, 31871, Note_on_c, 1, 70, 0
4, 31872, Note_on_c, 1, 64, 75
4, 31961, Note_on_c, 1, 64, 0
4, 31968, Note_on_c, 1, 65, 75
4, 32057, Note_on_c, 1, 65, 0
4, 32064, Note_on_c, 1, 67, 75
4, 32153, Note_on_c, 1, 67, 0
4, 32160, Note_on_c, 1, 68, 75
4, 32227, Note_on_c, 1, 68, 0
4, 32232, Note_on_c, 1, 56, 75
4, 32255, Note_on_c, 1, 56, 0
4, 32256, Note_on_c, 1, 58, 75
4, 32345, Note_on_c, 1, 58, 0
4, 32352, Note_on_c, 1, 60, 75
4, 32441, Note_on_c, 1, 60, 0
4, 32448, Note_on_c, 1, 48, 75
4, 32537, Note_on_c, 1, 48, 0
4, 32568, Note_on_c, 1, 56, 61
4, 32591, Note_on_c, 1, 56, 0
4, 32592, Note_on_c, 1, 58, 61
4, 32615, Note_on_c, 1, 58, 0
4, 32616, Note_on_c, 1, 56, 61
4, 32639, Note_on_c, 1, 56, 0
4, 32640, Note_on_c, 1, 60, 61
4, 32663, Note_on_c, 1, 60, 0
4, 32664, Note_on_c, 1, 58, 61
4, 32687, Note_on_c, 1, 58, 0
4, 32688, Note_on_c, 1, 61, 61
4, 32711, Note_on_c, 1, 61, 0
4, 32712, Note_on_c, 1, 60, 61
4, 32735, Note_on_c, 1, 60, 0
4, 32736, Note_on_c, 1, 61, 61
4, 32759, Note_on_c, 1, 61, 0
4, 32760, Note_on_c, 1, 58, 61
4, 32783, Note_on_c, 1, 58, 0
4, 32784, Note_on_c, 1, 56, 61
4, 32790, Note_on_c, 1, 56, 0
4, 32790, Note_on_c, 1, 58, 61
4, 32796, Note_on_c, 1, 58, 0
4, 32796, Note_on_c, 1, 56, 61
4, 32807, Note_on_c, 1, 56, 0
4, 32808, Note_on_c, 1, 55, 61
4, 32831, Note_on_c, 1, 55, 0
4, 32832, Note_on_c, 1, 53, 61
4, 33009, Note_on_c, 1, 53, 0
4, 33024, Note_on_c, 1, 51, 66
4, 33385, Note_on_c, 1, 51, 0
4, 33408, Control_c, 1, 64, 127
4, 33408, Note_on_c, 1, 60, 76
4, 33408, Note_on_c, 1, 56, 76
4, 33408, Note_on_c, 1, 51, 76
4, 33673, Note_on_c, 1, 60, 0
4, 33673, Note_on_c, 1, 56, 0
4, 33673, Note_on_c, 1, 51, 0
4, 33696, Control_c, 1, 64, 0
4, 33696, Control_c, 1, 64, 127
4, 33696, Note_on_c, 1, 59, 84
4, 33696, Note_on_c, 1, 56, 84
4, 33696, Note_on_c, 1, 51, 84
4, 33961, Note_on_c, 1, 59, 0
4, 33961, Note_on_c, 1, 56, 0
4, 33961, Note_on_c, 1, 51, 0
4, 33984, Control_c, 1, 64, 0
4, 33984, Control_c, 1, 64, 127
4, 33984, Note_on_c, 1, 59, 84
4, 33984, Note_on_c, 1, 56, 84
4, 33984, Note_on_c, 1, 52, 84
4, 34249, Note_on_c, 1, 59, 0
4, 34249, Note_on_c, 1, 56, 0
4, 34249, Note_on_c, 1, 52, 0
4, 34272, Control_c, 1, 64, 0
4, 34272, Control_c, 1, 64, 127
4, 34272, Note_on_c, 1, 59, 103
4, 34272, Note_on_c, 1, 56, 103
4, 34272, Note_on_c, 1, 53, 103
4, 34272, Note_on_c, 1, 50, 103
4, 34537, Note_on_c, 1, 59, 0
4, 34537, Note_on_c, 1, 56, 0
4, 34537, Note_on_c, 1, 53, 0
4, 34537, Note_on_c, 1, 50, 0
4, 34560, Control_c, 1, 64, 0
4, 34560, Note_on_c, 1, 58, 84
4, 34605, Note_on_c, 1, 58, 0
4, 34608, Note_on_c, 1, 56, 84
4, 34653, Note_on_c, 1, 56, 0
4, 34656, Note_on_c, 1, 55, 84
4, 34679, Note_on_c, 1, 55, 0
4, 34848, Note_on_c, 1, 44, 84
4, 34937, Note_on_c, 1, 44, 0
4, 35184, Note_on_c, 1, 56, 84
4, 35229, Note_on_c, 1, 56, 0
4, 35232, Note_on_c, 1, 60, 84
4, 35277, Note_on_c, 1, 60, 0
4, 35280, Note_on_c, 1, 56, 84
4, 35325, Note_on_c, 1, 56, 0
4, 35328, Note_on_c, 1, 58, 84
4, 35373, Note_on_c, 1, 58, 0
4, 35376, Note_on_c, 1, 51, 84
4, 35421, Note_on_c, 1, 51, 0
4, 35472, Note_on_c, 1, 56, 84
4, 35517, Note_on_c, 1, 56, 0
4, 35520, Note_on_c, 1, 56, 84
4, 35565, Note_on_c, 1, 56, 0
4, 35568, Note_on_c, 1, 60, 84
4, 35613, Note_on_c, 1, 60, 0
4, 35616, Note_on_c, 1, 61, 84
4, 35661, Note_on_c, 1, 61, 0
4, 35664, Note_on_c, 1, 63, 84
4, 35709, Note_on_c, 1, 63, 0
4, 35736, Note_on_c, 1, 56, 84
4, 35759, Note_on_c, 1, 56, 0
4, 35760, Note_on_c, 1, 60, 84
4, 35783, Note_on_c, 1, 60, 0
4, 35784, Note_on_c, 1, 56, 84
4, 35807, Note_on_c, 1, 56, 0
4, 35808, Note_on_c, 1, 51, 84
4, 35831, Note_on_c, 1, 51, 0
4, 35832, Note_on_c, 1, 56, 84
4, 35855, Note_on_c, 1, 56, 0
4, 35856, Note_on_c, 1, 48, 84
4, 35879, Note_on_c, 1, 48, 0
4, 35880, Note_on_c, 1, 51, 84
4, 35903, Note_on_c, 1, 51, 0
4, 35904, Note_on_c, 1, 56, 84
4, 35927, Note_on_c, 1, 56, 0
4, 35928, Note_on_c, 1, 60, 84
4, 35951, Note_on_c, 1, 60, 0
4, 35952, Note_on_c, 1, 63, 84
4, 35975, Note_on_c, 1, 63, 0
4, 35976, Note_on_c, 1, 68, 84
4, 35999, Note_on_c, 1, 68, 0
4, 36000, Note_on_c, 1, 61, 84
4, 36089, Note_on_c, 1, 61, 0
4, 36096, Note_on_c, 1, 60, 84
4, 36141, Note_on_c, 1, 60, 0
4, 36144, Note_on_c, 1, 56, 84
4, 36189, Note_on_c, 1, 56, 0
4, 36192, Note_on_c, 1, 58, 84
4, 36237, Note_on_c, 1, 58, 0
4, 36240, Note_on_c, 1, 51, 84
4, 36285, Note_on_c, 1, 51, 0
4, 36312, Note_on_c, 1, 56, 84
4, 36335, Note_on_c, 1, 56, 0
4, 36336, Note_on_c, 1, 60, 84
4, 36359, Note_on_c, 1, 60, 0
4, 36360, Note_on_c, 1, 56, 84
4, 36383, Note_on_c, 1, 56, 0
4, 36384, Note_on_c, 1, 51, 84
4, 36407, Note_on_c, 1, 51, 0
4, 36408, Note_on_c, 1, 56, 84
4, 36431, Note_on_c, 1, 56, 0
4, 36432, Note_on_c, 1, 48, 84
4, 36444, Note_on_c, 1, 48, 0
4, 36444, Note_on_c, 1, 51, 84
4, 36456, Note_on_c, 1, 51, 0
4, 36456, Note_on_c, 1, 53, 84
4, 36468, Note_on_c, 1, 53, 0
4, 36468, Note_on_c, 1, 55, 84
4, 36480, Note_on_c, 1, 55, 0
4, 36480, Note_on_c, 1, 56, 84
4, 36492, Note_on_c, 1, 56, 0
4, 36492, Note_on_c, 1, 58, 84
4, 36504, Note_on_c, 1, 58, 0
4, 36504, Note_on_c, 1, 60, 84
4, 36516, Note_on_c, 1, 60, 0
4, 36516, Note_on_c, 1, 61, 84
4, 36528, Note_on_c, 1, 61, 0
4, 36528, Note_on_c, 1, 63, 84
4, 36540, Note_on_c, 1, 63, 0
4, 36540, Note_on_c, 1, 65, 84
4, 36552, Note_on_c, 1, 65, 0
4, 36552, Note_on_c, 1, 67, 84
4, 36564, Note_on_c, 1, 67, 0
4, 36564, Note_on_c, 1, 68, 84
4, 36576, Note_on_c, 1, 68, 0
4, 36576, Note_on_c, 1, 61, 84
4, 36665, Note_on_c, 1, 61, 0
4, 36672, Note_on_c, 1, 60, 84
4, 36761, Note_on_c, 1, 60, 0
4, 36768, Note_on_c, 1, 58, 84
4, 36857, Note_on_c, 1, 58, 0
4, 36864, Note_on_c, 1, 56, 84
4, 36953, Note_on_c, 1, 56, 0
4, 36960, Note_on_c, 1, 61, 75
4, 37049, Note_on_c, 1, 61, 0
4, 37056, Note_on_c, 1, 49, 76
4, 37101, Note_on_c, 1, 49, 0
4, 37104, Note_on_c, 1, 50, 77
4, 37149, Note_on_c, 1, 50, 0
4, 37176, Note_on_c, 1, 51, 75
4, 37199, Note_on_c, 1, 51, 0
4, 37200, Note_on_c, 1, 53, 75
4, 37223, Note_on_c, 1, 53, 0
4, 37224, Note_on_c, 1, 50, 76
4, 37247, Note_on_c, 1, 50, 0
4, 37248, Note_on_c, 1, 51, 77
4, 37271, Note_on_c, 1, 51, 0
4, 37272, Note_on_c, 1, 53, 78
4, 37295, Note_on_c, 1, 53, 0
4, 37296, Note_on_c, 1, 55, 79
4, 37319, Note_on_c, 1, 55, 0
4, 37320, Note_on_c, 1, 56, 79
4, 37343, Note_on_c, 1, 56, 0
4, 37344, Note_on_c, 1, 58, 80
4, 37367, Note_on_c, 1, 58, 0
4, 37368, Note_on_c, 1, 60, 81
4, 37391, Note_on_c, 1, 60, 0
4, 37392, Note_on_c, 1, 61, 82
4, 37415, Note_on_c, 1, 61, 0
4, 37416, Note_on_c, 1, 63, 83
4, 37439, Note_on_c, 1, 63, 0
4, 37440, Note_on_c, 1, 61, 84
4, 37536, Note_on_c, 1, 61, 0
4, 37536, Note_on_c, 1, 60, 76
4, 37542, Note_on_c, 1, 60, 0
4, 37542, Note_on_c, 1, 61, 76
4, 37548, Note_on_c, 1, 61, 0
4, 37548, Note_on_c, 1, 60, 76
4, 37627, Note_on_c, 1, 60, 0
4, 37752, Note_on_c, 1, 51, 75
4, 37775, Note_on_c, 1, 51, 0
4, 37776, Note_on_c, 1, 53, 75
4, 37799, Note_on_c, 1, 53, 0
4, 37800, Note_on_c, 1, 50, 76
4, 37823, Note_on_c, 1, 50, 0
4, 37824, Note_on_c, 1, 51, 77
4, 37847, Note_on_c, 1, 51, 0
4, 37848, Note_on_c, 1, 53, 78
4, 37871, Note_on_c, 1, 53, 0
4, 37872, Note_on_c, 1, 55, 79
4, 37895, Note_on_c, 1, 55, 0
4, 37896, Note_on_c, 1, 56, 79
4, 37919, Note_on_c, 1, 56, 0
4, 37920, Note_on_c, 1, 58, 80
4, 37943, Note_on_c, 1, 58, 0
4, 37944, Note_on_c, 1, 60, 81
4, 37967, Note_on_c, 1, 60, 0
4, 37968, Note_on_c, 1, 61, 82
4, 37991, Note_on_c, 1, 61, 0
4, 37992, Note_on_c, 1, 63, 83
4, 38015, Note_on_c, 1, 63, 0
4, 38016, Note_on_c, 1, 61, 84
4, 38112, Note_on_c, 1, 61, 0
4, 38112, Note_on_c, 1, 60, 76
4, 38118, Note_on_c, 1, 60, 0
4, 38118, Note_on_c, 1, 61, 76
4, 38124, Note_on_c, 1, 61, 0
4, 38124, Note_on_c, 1, 60, 76
4, 38203, Note_on_c, 1, 60, 0
4, 38328, Note_on_c, 1, 49, 75
4, 38351, Note_on_c, 1, 49, 0
4, 38352, Note_on_c, 1, 51, 75
4, 38375, Note_on_c, 1, 51, 0
4, 38376, Note_on_c, 1, 48, 76
4, 38399, Note_on_c, 1, 48, 0
4, 38400, Note_on_c, 1, 49, 77
4, 38423, Note_on_c, 1, 49, 0
4, 38424, Note_on_c, 1, 51, 78
4, 38447, Note_on_c, 1, 51, 0
4, 38448, Note_on_c, 1, 53, 79
4, 38471, Note_on_c, 1, 53, 0
4, 38472, Note_on_c, 1, 54, 79
4, 38495, Note_on_c, 1, 54, 0
4, 38496, Note_on_c, 1, 56, 80
4, 38519, Note_on_c, 1, 56, 0
4, 38520, Note_on_c, 1, 58, 81
4, 38543, Note_on_c, 1, 58, 0
4, 38544, Note_on_c, 1, 60, 82
4, 38567, Note_on_c, 1, 60, 0
4, 38568, Note_on_c, 1, 61, 83
4, 38591, Note_on_c, 1, 61, 0
4, 38616, Note_on_c, 1, 56, 75
4, 38639, Note_on_c, 1, 56, 0
4, 38640, Note_on_c, 1, 58, 75
4, 38663, Note_on_c, 1, 58, 0
4, 38664, Note_on_c, 1, 55, 76
4, 38687, Note_on_c, 1, 55, 0
4, 38688, Note_on_c, 1, 56, 77
4, 38711, Note_on_c, 1, 56, 0
4, 38712, Note_on_c, 1, 58, 78
4, 38735, Note_on_c, 1, 58, 0
4, 38736, Note_on_c, 1, 60, 79
4, 38759, Note_on_c, 1, 60, 0
4, 38760, Note_on_c, 1, 61, 79
4, 38783, Note_on_c, 1, 61, 0
4, 38784, Note_on_c, 1, 63, 80
4, 38807, Note_on_c, 1, 63, 0
4, 38808, Note_on_c, 1, 65, 81
4, 38831, Note_on_c, 1, 65, 0
4, 38832, Note_on_c, 1, 67, 82
4, 38855, Note_on_c, 1, 67, 0
4, 38856, Note_on_c, 1, 68, 83
4, 38879, Note_on_c, 1, 68, 0
4, 38904, Note_on_c, 1, 65, 84
4, 38927, Note_on_c, 1, 65, 0
4, 38928, Note_on_c, 1, 63, 84
4, 38934, Note_on_c, 1, 63, 0
4, 38934, Note_on_c, 1, 65, 84
4, 38940, Note_on_c, 1, 65, 0
4, 38940, Note_on_c, 1, 63, 84
4, 38951, Note_on_c, 1, 63, 0
4, 38952, Note_on_c, 1, 61, 84
4, 38975, Note_on_c, 1, 61, 0
4, 39000, Note_on_c, 1, 67, 84
4, 39023, Note_on_c, 1, 67, 0
4, 39024, Note_on_c, 1, 65, 84
4, 39030, Note_on_c, 1, 65, 0
4, 39030, Note_on_c, 1, 67, 84
4, 39036, Note_on_c, 1, 67, 0
4, 39036, Note_on_c, 1, 65, 84
4, 39047, Note_on_c, 1, 65, 0
4, 39048, Note_on_c, 1, 63, 84
4, 39071, Note_on_c, 1, 63, 0
4, 39096, Note_on_c, 1, 68, 84
4, 39119, Note_on_c, 1, 68, 0
4, 39120, Note_on_c, 1, 65, 84
4, 39126, Note_on_c, 1, 65, 0
4, 39126, Note_on_c, 1, 67, 84
4, 39132, Note_on_c, 1, 67, 0
4, 39132, Note_on_c, 1, 65, 84
4, 39143, Note_on_c, 1, 65, 0
4, 39144, Note_on_c, 1, 62, 84
4, 39167, Note_on_c, 1, 62, 0
4, 39192, Note_on_c, 1, 51, 75
4, 39215, Note_on_c, 1, 51, 0
4, 39216, Note_on_c, 1, 53, 75
4, 39239, Note_on_c, 1, 53, 0
4, 39240, Note_on_c, 1, 50, 76
4, 39263, Note_on_c, 1, 50, 0
4, 39264, Note_on_c, 1, 51, 77
4, 39270, Note_on_c, 1, 51, 0
4, 39270, Note_on_c, 1, 53, 77
4, 39276, Note_on_c, 1, 53, 0
4, 39276, Note_on_c, 1, 51, 77
4, 39287, Note_on_c, 1, 51, 0
4, 39288, Note_on_c, 1, 53, 78
4, 39311, Note_on_c, 1, 53, 0
4, 39312, Note_on_c, 1, 55, 79
4, 39335, Note_on_c, 1, 55, 0
4, 39336, Note_on_c, 1, 56, 79
4, 39359, Note_on_c, 1, 56, 0
4, 39360, Note_on_c, 1, 58, 80
4, 39383, Note_on_c, 1, 58, 0
4, 39384, Note_on_c, 1, 60, 81
4, 39407, Note_on_c, 1, 60, 0
4, 39408, Note_on_c, 1, 61, 82
4, 39431, Note_on_c, 1, 61, 0
4, 39432, Note_on_c, 1, 63, 83
4, 39455, Note_on_c, 1, 63, 0
4, 39456, Note_on_c, 1, 61, 84
4, 39552, Note_on_c, 1, 61, 0
4, 39552, Note_on_c, 1, 60, 76
4, 39558, Note_on_c, 1, 60, 0
4, 39558, Note_on_c, 1, 61, 76
4, 39564, Note_on_c, 1, 61, 0
4, 39564, Note_on_c, 1, 60, 76
4, 39693, Note_on_c, 1, 60, 0
4, 39696, Note_on_c, 1, 58, 75
4, 39741, Note_on_c, 1, 58, 0
4, 39768, Note_on_c, 1, 57, 75
4, 39791, Note_on_c, 1, 57, 0
4, 39792, Note_on_c, 1, 60, 76
4, 39815, Note_on_c, 1, 60, 0
4, 39816, Note_on_c, 1, 57, 78
4, 39839, Note_on_c, 1, 57, 0
4, 39840, Note_on_c, 1, 58, 80
4, 39863, Note_on_c, 1, 58, 0
4, 39864, Note_on_c, 1, 60, 82
4, 39887, Note_on_c, 1, 60, 0
4, 39888, Note_on_c, 1, 61, 84
4, 39911, Note_on_c, 1, 61, 0
4, 39912, Note_on_c, 1, 60, 82
4, 39935, Note_on_c, 1, 60, 0
4, 39936, Note_on_c, 1, 58, 81
4, 39959, Note_on_c, 1, 58, 0
4, 39960, Note_on_c, 1, 56, 79
4, 39983, Note_on_c, 1, 56, 0
4, 39984, Note_on_c, 1, 55, 78
4, 39990, Note_on_c, 1, 55, 0
4, 39990, Note_on_c, 1, 56, 78
4, 39996, Note_on_c, 1, 56, 0
4, 39996, Note_on_c, 1, 55, 78
4, 40007, Note_on_c, 1, 55, 0
4, 40008, Note_on_c, 1, 53, 76
4, 40031, Note_on_c, 1, 53, 0
4, 40056, Note_on_c, 1, 55, 75
4, 40079, Note_on_c, 1, 55, 0
4, 40080, Note_on_c, 1, 58, 76
4, 40103, Note_on_c, 1, 58, 0
4, 40104, Note_on_c, 1, 55, 78
4, 40127, Note_on_c, 1, 55, 0
4, 40128, Note_on_c, 1, 56, 80
4, 40151, Note_on_c, 1, 56, 0
4, 40152, Note_on_c, 1, 58, 82
4, 40175, Note_on_c, 1, 58, 0
4, 40176, Note_on_c, 1, 60, 84
4, 40199, Note_on_c, 1, 60, 0
4, 40200, Note_on_c, 1, 58, 82
4, 40223, Note_on_c, 1, 58, 0
4, 40224, Note_on_c, 1, 56, 81
4, 40230, Note_on_c, 1, 56, 0
4, 40230, Note_on_c, 1, 58, 81
4, 40236, Note_on_c, 1, 58, 0
4, 40236, Note_on_c, 1, 56, 81
4, 40247, Note_on_c, 1, 56, 0
4, 40248, Note_on_c, 1, 55, 79
4, 40271, Note_on_c, 1, 55, 0
4, 40272, Note_on_c, 1, 53, 78
4, 40278, Note_on_c, 1, 53, 0
4, 40278, Note_on_c, 1, 55, 78
4, 40284, Note_on_c, 1, 55, 0
4, 40284, Note_on_c, 1, 53, 78
4, 40295, Note_on_c, 1, 53, 0
4, 40296, Note_on_c, 1, 51, 76
4, 40319, Note_on_c, 1, 51, 0
4, 40416, Note_on_c, 1, 53, 75
4, 40505, Note_on_c, 1, 53, 0
4, 40512, Note_on_c, 1, 58, 75
4, 40601, Note_on_c, 1, 58, 0
4, 40704, Note_on_c, 1, 51, 75
4, 40793, Note_on_c, 1, 51, 0
4, 40800, Note_on_c, 1, 56, 75
4, 41073, Note_on_c, 1, 56, 0
4, 41088, Note_on_c, 1, 55, 75
4, 41133, Note_on_c, 1, 55, 0
4, 41136, Note_on_c, 1, 61, 68
4, 41181, Note_on_c, 1, 61, 0
4, 41208, Note_on_c, 1, 56, 61
4, 41231, Note_on_c, 1, 56, 0
4, 41232, Note_on_c, 1, 58, 61
4, 41255, Note_on_c, 1, 58, 0
4, 41256, Note_on_c, 1, 56, 61
4, 41279, Note_on_c, 1, 56, 0
4, 41280, Note_on_c, 1, 60, 61
4, 41303, Note_on_c, 1, 60, 0
4, 41304, Note_on_c, 1, 58, 61
4, 41327, Note_on_c, 1, 58, 0
4, 41328, Note_on_c, 1, 61, 61
4, 41351, Note_on_c, 1, 61, 0
4, 41352, Note_on_c, 1, 60, 61
4, 41375, Note_on_c, 1, 60, 0
4, 41376, Note_on_c, 1, 61, 61
4, 41421, Note_on_c, 1, 61, 0
4, 41424, Note_on_c, 1, 63, 59
4, 41469, Note_on_c, 1, 63, 0
4, 41496, Note_on_c, 1, 44, 57
4, 41519, Note_on_c, 1, 44, 0
4, 41520, Note_on_c, 1, 46, 57
4, 41543, Note_on_c, 1, 46, 0
4, 41544, Note_on_c, 1, 44, 57
4, 41567, Note_on_c, 1, 44, 0
4, 41568, Note_on_c, 1, 48, 57
4, 41591, Note_on_c, 1, 48, 0
4, 41592, Note_on_c, 1, 46, 57
4, 41615, Note_on_c, 1, 46, 0
4, 41616, Note_on_c, 1, 49, 57
4, 41639, Note_on_c, 1, 49, 0
4, 41640, Note_on_c, 1, 48, 57
4, 41663, Note_on_c, 1, 48, 0
4, 41664, Note_on_c, 1, 49, 57
4, 41709, Note_on_c, 1, 49, 0
4, 41712, Note_on_c, 1, 51, 57
4, 41757, Note_on_c, 1, 51, 0
4, 41760, Note_on_c, 1, 44, 57
4, 42025, Note_on_c, 1, 44, 0
4, 42048, Note_on_c, 1, 44, 0
4, 42225, Note_on_c, 1, 44, 0
4, 42240, End_track
5, 0, Start_track
5, 0, Program_c, 1, 0
5, 0, Control_c, 1, 7, 127
5, 0, Control_c, 1, 10, 64
5, 2856, Note_on_c, 1, 68, 64
5, 3117, Note_on_c, 1, 68, 0
5, 3120, Note_on_c, 1, 67, 64
5, 3165, Note_on_c, 1, 67, 0
5, 6336, Note_on_c, 1, 56, 64
5, 6601, Note_on_c, 1, 56, 0
5, 6624, Note_on_c, 1, 55, 64
5, 6889, Note_on_c, 1, 55, 0
5, 6912, Note_on_c, 1, 56, 64
5, 7001, Note_on_c, 1, 56, 0
5, 7008, Note_on_c, 1, 58, 64
5, 7097, Note_on_c, 1, 58, 0
5, 7104, Note_on_c, 1, 46, 64
5, 7193, Note_on_c, 1, 46, 0
5, 10920, Note_on_c, 1, 68, 64
5, 11181, Note_on_c, 1, 68, 0
5, 11184, Note_on_c, 1, 67, 64
5, 11229, Note_on_c, 1, 67, 0
5, 14400, Note_on_c, 1, 56, 64
5, 14665, Note_on_c, 1, 56, 0
5, 14688, Note_on_c, 1, 55, 64
5, 14953, Note_on_c, 1, 55, 0
5, 14976, Note_on_c, 1, 56, 64
5, 15065, Note_on_c, 1, 56, 0
5, 15072, Note_on_c, 1, 58, 64
5, 15161, Note_on_c, 1, 58, 0
5, 15168, Note_on_c, 1, 46, 64
5, 15257, Note_on_c, 1, 46, 0
5, 19584, Note_on_c, 1, 53, 61
5, 19849, Note_on_c, 1, 53, 0
5, 21600, Note_on_c, 1, 51, 59
5, 21689, Note_on_c, 1, 51, 0
5, 21696, Note_on_c, 1, 51, 57
5, 21719, Note_on_c, 1, 51, 0
5, 21720, Note_on_c, 1, 51, 57
5, 21743, Note_on_c, 1, 51, 0
5, 21744, Note_on_c, 1, 53, 57
5, 21767, Note_on_c, 1, 53, 0
5, 21768, Note_on_c, 1, 49, 57
5, 21791, Note_on_c, 1, 49, 0
5, 21792, Note_on_c, 1, 48, 57
5, 21802, Note_on_c, 1, 48, 0
5, 21816, Note_on_c, 1, 48, 57
5, 21839, Note_on_c, 1, 48, 0
5, 21840, Note_on_c, 1, 49, 57
5, 21863, Note_on_c, 1, 49, 0
5, 21864, Note_on_c, 1, 46, 57
5, 21887, Note_on_c, 1, 46, 0
5, 23604, Note_on_c, 1, 68, 57
5, 23853, Note_on_c, 1, 68, 0
5, 23856, Note_on_c, 1, 67, 57
5, 23901, Note_on_c, 1, 67, 0
5, 23904, Note_on_c, 1, 68, 57
5, 23993, Note_on_c, 1, 68, 0
5, 27360, Note_on_c, 1, 49, 57
5, 27625, Note_on_c, 1, 49, 0
5, 27648, Note_on_c, 1, 48, 57
5, 27913, Note_on_c, 1, 48, 0
5, 27936, Note_on_c, 1, 49, 57
5, 28025, Note_on_c, 1, 49, 0
5, 28032, Note_on_c, 1, 51, 57
5, 28209, Note_on_c, 1, 51, 0
5, 32544, Note_on_c, 1, 53, 61
5, 32809, Note_on_c, 1, 53, 0
5, 34560, Note_on_c, 1, 51, 59
5, 34649, Note_on_c, 1, 51, 0
5, 34656, Note_on_c, 1, 51, 57
5, 34679, Note_on_c, 1, 51, 0
5, 34680, Note_on_c, 1, 51, 57
5, 34703, Note_on_c, 1, 51, 0
5, 34704, Note_on_c, 1, 53, 57
5, 34727, Note_on_c, 1, 53, 0
5, 34728, Note_on_c, 1, 49, 57
5, 34751, Note_on_c, 1, 49, 0
5, 34752, Note_on_c, 1, 48, 57
5, 34762, Note_on_c, 1, 48, 0
5, 34776, Note_on_c, 1, 48, 57
5, 34799, Note_on_c, 1, 48, 0
5, 34800, Note_on_c, 1, 49, 57
5, 34823, Note_on_c, 1, 49, 0
5, 34824, Note_on_c, 1, 46, 57
5, 34847, Note_on_c, 1, 46, 0
5, 36564, Note_on_c, 1, 68, 57
5, 36813, Note_on_c, 1, 68, 0
5, 36816, Note_on_c, 1, 67, 57
5, 36861, Note_on_c, 1, 67, 0
5, 36864, Note_on_c, 1, 68, 57
5, 36953, Note_on_c, 1, 68, 0
5, 40320, Note_on_c, 1, 49, 57
5, 40585, Note_on_c, 1, 49, 0
5, 40608, Note_on_c, 1, 48, 57
5, 40873, Note_on_c, 1, 48, 0
5, 40896, Note_on_c, 1, 49, 57
5, 40985, Note_on_c, 1, 49, 0
5, 40992, Note_on_c, 1, 51, 57
5, 41169, Note_on_c, 1, 51, 0
5, 42048, End_track
6, 0, Start_track
6, 0, Title_t, "Sonata III   <composer>  "
6, 0, End_track
0, 0, End_of_file
