0, 0, Header, 1, 6, 96
1, 0, Start_track
1, 0, Copyright_t, "Copyright  2000 <copyright holder>"
1, 0, Text_t, "Sonata III\015\012"
1, 0, Text_t, "Haydn\015\012"
1, 0, Sequencer_specific, 17, 68, 87, 77, 90, 86, 82, 83, 78, 32, 55, 46, 48, 46, 49, 48, 46, 48
1, 0, Time_signature, 4, 2, 24, 8
1, 0, Tempo, 666666
1, 0, Key_signature, -1, "major"
1, 32064, Tempo, 1333333
1, 32256, Tempo, 666666
1, 54720, Tempo, 1333333
1, 54912, Tempo, 666666
1, 69120, End_track
2, 0, Start_track
2, 0, Program_c, 0, 0
2, 0, Control_c, 0, 7, 127
2, 0, Control_c, 0, 10, 64
2, 0, Note_on_c, 0, 57, 85
2, 8, Note_on_c, 0, 60, 85
2, 16, Note_on_c, 0, 65, 85
2, 45, Note_on_c, 0, 65, 0
2, 45, Note_on_c, 0, 60, 0
2, 45, Note_on_c, 0, 57, 0
2, 96, Note_on_c, 0, 60, 85
2, 96, Note_on_c, 0, 57, 85
2, 116, Note_on_c, 0, 60, 0
2, 116, Note_on_c, 0, 57, 0
2, 168, Note_on_c, 0, 60, 85
2, 168, Note_on_c, 0, 57, 85
2, 178, Note_on_c, 0, 60, 0
2, 178, Note_on_c, 0, 57, 0
2, 192, Note_on_c, 0, 60, 85
2, 192, Note_on_c, 0, 57, 85
2, 237, Note_on_c, 0, 60, 0
2, 237, Note_on_c, 0, 57, 0
2, 384, Note_on_c, 0, 72, 77
2, 525, Note_on_c, 0, 72, 0
2, 528, Note_on_c, 0, 76, 77
2, 540, Note_on_c, 0, 76, 0
2, 540, Note_on_c, 0, 74, 77
2, 573, Note_on_c, 0, 74, 0
2, 576, Note_on_c, 0, 72, 77
2, 624, Note_on_c, 0, 72, 0
2, 624, Note_on_c, 0, 77, 77
2, 644, Note_on_c, 0, 77, 0
2, 672, Note_on_c, 0, 69, 77
2, 717, Note_on_c, 0, 69, 0
2, 720, Note_on_c, 0, 72, 77
2, 732, Note_on_c, 0, 72, 0
2, 732, Note_on_c, 0, 70, 77
2, 765, Note_on_c, 0, 70, 0
2, 768, Note_on_c, 0, 69, 77
2, 816, Note_on_c, 0, 69, 0
2, 816, Note_on_c, 0, 72, 77
2, 836, Note_on_c, 0, 72, 0
2, 864, Note_on_c, 0, 65, 77
2, 884, Note_on_c, 0, 65, 0
2, 912, Note_on_c, 0, 65, 77
2, 932, Note_on_c, 0, 65, 0
2, 960, Note_on_c, 0, 65, 77
2, 1100, Note_on_c, 0, 65, 0
2, 1104, Note_on_c, 0, 69, 77
2, 1116, Note_on_c, 0, 69, 0
2, 1116, Note_on_c, 0, 67, 77
2, 1149, Note_on_c, 0, 67, 0
2, 1152, Note_on_c, 0, 65, 77
2, 1172, Note_on_c, 0, 65, 0
2, 1440, Note_on_c, 0, 72, 77
2, 1440, Note_on_c, 0, 69, 77
2, 1485, Note_on_c, 0, 72, 0
2, 1485, Note_on_c, 0, 69, 0
2, 1488, Note_on_c, 0, 76, 77
2, 1500, Note_on_c, 0, 76, 0
2, 1500, Note_on_c, 0, 74, 77
2, 1500, Note_on_c, 0, 70, 77
2, 1533, Note_on_c, 0, 74, 0
2, 1533, Note_on_c, 0, 70, 0
2, 1536, Note_on_c, 0, 72, 77
2, 1584, Note_on_c, 0, 72, 0
2, 1584, Note_on_c, 0, 77, 77
2, 1604, Note_on_c, 0, 77, 0
2, 1632, Note_on_c, 0, 69, 77
2, 1677, Note_on_c, 0, 69, 0
2, 1680, Note_on_c, 0, 72, 77
2, 1692, Note_on_c, 0, 72, 0
2, 1692, Note_on_c, 0, 70, 77
2, 1725, Note_on_c, 0, 70, 0
2, 1728, Note_on_c, 0, 69, 77
2, 1776, Note_on_c, 0, 69, 0
2, 1776, Note_on_c, 0, 72, 77
2, 1796, Note_on_c, 0, 72, 0
2, 1824, Note_on_c, 0, 65, 77
2, 1844, Note_on_c, 0, 65, 0
2, 1872, Note_on_c, 0, 65, 77
2, 1892, Note_on_c, 0, 65, 0
2, 1920, Note_on_c, 0, 65, 77
2, 2060, Note_on_c, 0, 65, 0
2, 2064, Note_on_c, 0, 69, 77
2, 2076, Note_on_c, 0, 69, 0
2, 2076, Note_on_c, 0, 67, 77
2, 2109, Note_on_c, 0, 67, 0
2, 2112, Note_on_c, 0, 65, 77
2, 2157, Note_on_c, 0, 65, 0
2, 2208, Note_on_c, 0, 81, 77
2, 2253, Note_on_c, 0, 81, 0
2, 2256, Note_on_c, 0, 82, 77
2, 2266, Note_on_c, 0, 82, 0
2, 2266, Note_on_c, 0, 81, 77
2, 2276, Note_on_c, 0, 81, 0
2, 2276, Note_on_c, 0, 79, 77
2, 2286, Note_on_c, 0, 79, 0
2, 2286, Note_on_c, 0, 81, 77
2, 2295, Note_on_c, 0, 81, 0
2, 2295, Note_on_c, 0, 82, 77
2, 2304, Note_on_c, 0, 82, 0
2, 2304, Note_on_c, 0, 84, 77
2, 2327, Note_on_c, 0, 84, 0
2, 2328, Note_on_c, 0, 82, 74
2, 2351, Note_on_c, 0, 82, 0
2, 2352, Note_on_c, 0, 81, 71
2, 2375, Note_on_c, 0, 81, 0
2, 2376, Note_on_c, 0, 79, 68
2, 2399, Note_on_c, 0, 79, 0
2, 2400, Note_on_c, 0, 77, 69
2, 2423, Note_on_c, 0, 77, 0
2, 2424, Note_on_c, 0, 76, 71
2, 2447, Note_on_c, 0, 76, 0
2, 2448, Note_on_c, 0, 79, 73
2, 2471, Note_on_c, 0, 79, 0
2, 2472, Note_on_c, 0, 77, 75
2, 2495, Note_on_c, 0, 77, 0
2, 2496, Note_on_c, 0, 81, 77
2, 2519, Note_on_c, 0, 81, 0
2, 2520, Note_on_c, 0, 79, 74
2, 2543, Note_on_c, 0, 79, 0
2, 2544, Note_on_c, 0, 77, 72
2, 2567, Note_on_c, 0, 77, 0
2, 2568, Note_on_c, 0, 76, 70
2, 2591, Note_on_c, 0, 76, 0
2, 2592, Note_on_c, 0, 74, 68
2, 2640, Note_on_c, 0, 74, 0
2, 2640, Note_on_c, 0, 73, 85
2, 2685, Note_on_c, 0, 73, 0
2, 2688, Note_on_c, 0, 76, 60
2, 2736, Note_on_c, 0, 76, 0
2, 2736, Note_on_c, 0, 74, 85
2, 2781, Note_on_c, 0, 74, 0
2, 2784, Note_on_c, 0, 77, 60
2, 2832, Note_on_c, 0, 77, 0
2, 2832, Note_on_c, 0, 76, 85
2, 2877, Note_on_c, 0, 76, 0
2, 2880, Note_on_c, 0, 79, 60
2, 2928, Note_on_c, 0, 79, 0
2, 2928, Note_on_c, 0, 77, 85
2, 2973, Note_on_c, 0, 77, 0
2, 2976, Note_on_c, 0, 81, 77
2, 3021, Note_on_c, 0, 81, 0
2, 3024, Note_on_c, 0, 82, 77
2, 3034, Note_on_c, 0, 82, 0
2, 3034, Note_on_c, 0, 81, 77
2, 3044, Note_on_c, 0, 81, 0
2, 3044, Note_on_c, 0, 79, 77
2, 3054, Note_on_c, 0, 79, 0
2, 3054, Note_on_c, 0, 81, 77
2, 3063, Note_on_c, 0, 81, 0
2, 3063, Note_on_c, 0, 82, 77
2, 3072, Note_on_c, 0, 82, 0
2, 3072, Note_on_c, 0, 84, 77
2, 3095, Note_on_c, 0, 84, 0
2, 3096, Note_on_c, 0, 82, 74
2, 3119, Note_on_c, 0, 82, 0
2, 3120, Note_on_c, 0, 81, 71
2, 3143, Note_on_c, 0, 81, 0
2, 3144, Note_on_c, 0, 79, 68
2, 3167, Note_on_c, 0, 79, 0
2, 3168, Note_on_c, 0, 77, 69
2, 3191, Note_on_c, 0, 77, 0
2, 3192, Note_on_c, 0, 76, 71
2, 3215, Note_on_c, 0, 76, 0
2, 3216, Note_on_c, 0, 79, 73
2, 3239, Note_on_c, 0, 79, 0
2, 3240, Note_on_c, 0, 77, 75
2, 3263, Note_on_c, 0, 77, 0
2, 3264, Note_on_c, 0, 81, 77
2, 3287, Note_on_c, 0, 81, 0
2, 3288, Note_on_c, 0, 77, 74
2, 3311, Note_on_c, 0, 77, 0
2, 3312, Note_on_c, 0, 76, 71
2, 3335, Note_on_c, 0, 76, 0
2, 3336, Note_on_c, 0, 74, 68
2, 3359, Note_on_c, 0, 74, 0
2, 3360, Note_on_c, 0, 72, 60
2, 3408, Note_on_c, 0, 72, 0
2, 3408, Note_on_c, 0, 71, 85
2, 3453, Note_on_c, 0, 71, 0
2, 3456, Note_on_c, 0, 74, 60
2, 3504, Note_on_c, 0, 74, 0
2, 3504, Note_on_c, 0, 72, 85
2, 3549, Note_on_c, 0, 72, 0
2, 3552, Note_on_c, 0, 76, 60
2, 3600, Note_on_c, 0, 76, 0
2, 3600, Note_on_c, 0, 74, 85
2, 3645, Note_on_c, 0, 74, 0
2, 3648, Note_on_c, 0, 77, 60
2, 3696, Note_on_c, 0, 77, 0
2, 3696, Note_on_c, 0, 76, 85
2, 3741, Note_on_c, 0, 76, 0
2, 3744, Note_on_c, 0, 76, 77
2, 3789, Note_on_c, 0, 76, 0
2, 3792, Note_on_c, 0, 77, 77
2, 3802, Note_on_c, 0, 77, 0
2, 3802, Note_on_c, 0, 76, 77
2, 3812, Note_on_c, 0, 76, 0
2, 3812, Note_on_c, 0, 74, 77
2, 3822, Note_on_c, 0, 74, 0
2, 3822, Note_on_c, 0, 76, 77
2, 3831, Note_on_c, 0, 76, 0
2, 3831, Note_on_c, 0, 77, 77
2, 3840, Note_on_c, 0, 77, 0
2, 3840, Note_on_c, 0, 79, 77
2, 3863, Note_on_c, 0, 79, 0
2, 3864, Note_on_c, 0, 76, 74
2, 3887, Note_on_c, 0, 76, 0
2, 3888, Note_on_c, 0, 74, 72
2, 3911, Note_on_c, 0, 74, 0
2, 3912, Note_on_c, 0, 72, 70
2, 3935, Note_on_c, 0, 72, 0
2, 3936, Note_on_c, 0, 71, 68
2, 3960, Note_on_c, 0, 71, 0
2, 3960, Note_on_c, 0, 72, 70
2, 3983, Note_on_c, 0, 72, 0
2, 3984, Note_on_c, 0, 74, 72
2, 4007, Note_on_c, 0, 74, 0
2, 4008, Note_on_c, 0, 72, 74
2, 4031, Note_on_c, 0, 72, 0
2, 4032, Note_on_c, 0, 76, 77
2, 4044, Note_on_c, 0, 76, 0
2, 4044, Note_on_c, 0, 74, 77
2, 4080, Note_on_c, 0, 74, 0
2, 4080, Note_on_c, 0, 72, 77
2, 4125, Note_on_c, 0, 72, 0
2, 4128, Note_on_c, 0, 76, 77
2, 4140, Note_on_c, 0, 76, 0
2, 4140, Note_on_c, 0, 74, 77
2, 4176, Note_on_c, 0, 74, 0
2, 4176, Note_on_c, 0, 72, 77
2, 4221, Note_on_c, 0, 72, 0
2, 4224, Note_on_c, 0, 76, 77
2, 4236, Note_on_c, 0, 76, 0
2, 4236, Note_on_c, 0, 74, 77
2, 4272, Note_on_c, 0, 74, 0
2, 4272, Note_on_c, 0, 72, 77
2, 4317, Note_on_c, 0, 72, 0
2, 4320, Note_on_c, 0, 79, 77
2, 4416, Note_on_c, 0, 79, 0
2, 4416, Note_on_c, 0, 78, 77
2, 4461, Note_on_c, 0, 78, 0
2, 4464, Note_on_c, 0, 72, 77
2, 4512, Note_on_c, 0, 72, 0
2, 4512, Note_on_c, 0, 71, 77
2, 4557, Note_on_c, 0, 71, 0
2, 4560, Note_on_c, 0, 77, 77
2, 4608, Note_on_c, 0, 77, 0
2, 4608, Note_on_c, 0, 76, 77
2, 4653, Note_on_c, 0, 76, 0
2, 4656, Note_on_c, 0, 70, 77
2, 4704, Note_on_c, 0, 70, 0
2, 4704, Note_on_c, 0, 69, 77
2, 4749, Note_on_c, 0, 69, 0
2, 4752, Note_on_c, 0, 80, 77
2, 4800, Note_on_c, 0, 80, 0
2, 4800, Note_on_c, 0, 81, 77
2, 4845, Note_on_c, 0, 81, 0
2, 4848, Note_on_c, 0, 83, 77
2, 4858, Note_on_c, 0, 83, 0
2, 4858, Note_on_c, 0, 81, 77
2, 4868, Note_on_c, 0, 81, 0
2, 4868, Note_on_c, 0, 80, 77
2, 4878, Note_on_c, 0, 80, 0
2, 4878, Note_on_c, 0, 81, 77
2, 4887, Note_on_c, 0, 81, 0
2, 4887, Note_on_c, 0, 83, 77
2, 4896, Note_on_c, 0, 83, 0
2, 4896, Note_on_c, 0, 84, 77
2, 4941, Note_on_c, 0, 84, 0
2, 4944, Note_on_c, 0, 84, 77
2, 4989, Note_on_c, 0, 84, 0
2, 4992, Note_on_c, 0, 84, 77
2, 5012, Note_on_c, 0, 84, 0
2, 5088, Note_on_c, 0, 69, 77
2, 5108, Note_on_c, 0, 69, 0
2, 5184, Note_on_c, 0, 59, 77
2, 5204, Note_on_c, 0, 59, 0
2, 5280, Note_on_c, 0, 43, 77
2, 5369, Note_on_c, 0, 43, 0
2, 5424, Note_on_c, 0, 60, 85
2, 5436, Note_on_c, 0, 60, 0
2, 5436, Note_on_c, 0, 64, 85
2, 5442, Note_on_c, 0, 64, 0
2, 5442, Note_on_c, 0, 67, 85
2, 5448, Note_on_c, 0, 67, 0
2, 5448, Note_on_c, 0, 72, 85
2, 5454, Note_on_c, 0, 72, 0
2, 5454, Note_on_c, 0, 76, 85
2, 5460, Note_on_c, 0, 76, 0
2, 5460, Note_on_c, 0, 79, 85
2, 5466, Note_on_c, 0, 79, 0
2, 5466, Note_on_c, 0, 83, 85
2, 5472, Note_on_c, 0, 83, 0
2, 5472, Note_on_c, 0, 84, 101
2, 5488, Note_on_c, 0, 84, 0
2, 5488, Note_on_c, 0, 79, 85
2, 5503, Note_on_c, 0, 79, 0
2, 5504, Note_on_c, 0, 76, 85
2, 5519, Note_on_c, 0, 76, 0
2, 5520, Note_on_c, 0, 81, 85
2, 5535, Note_on_c, 0, 81, 0
2, 5536, Note_on_c, 0, 77, 85
2, 5551, Note_on_c, 0, 77, 0
2, 5552, Note_on_c, 0, 72, 85
2, 5567, Note_on_c, 0, 72, 0
2, 5568, Note_on_c, 0, 79, 85
2, 5588, Note_on_c, 0, 79, 0
2, 5616, Note_on_c, 0, 60, 85
2, 5628, Note_on_c, 0, 60, 0
2, 5628, Note_on_c, 0, 64, 85
2, 5634, Note_on_c, 0, 64, 0
2, 5634, Note_on_c, 0, 67, 85
2, 5640, Note_on_c, 0, 67, 0
2, 5640, Note_on_c, 0, 72, 85
2, 5646, Note_on_c, 0, 72, 0
2, 5646, Note_on_c, 0, 76, 85
2, 5652, Note_on_c, 0, 76, 0
2, 5652, Note_on_c, 0, 79, 85
2, 5658, Note_on_c, 0, 79, 0
2, 5658, Note_on_c, 0, 83, 85
2, 5664, Note_on_c, 0, 83, 0
2, 5664, Note_on_c, 0, 84, 101
2, 5680, Note_on_c, 0, 84, 0
2, 5680, Note_on_c, 0, 79, 85
2, 5695, Note_on_c, 0, 79, 0
2, 5696, Note_on_c, 0, 76, 85
2, 5711, Note_on_c, 0, 76, 0
2, 5712, Note_on_c, 0, 81, 85
2, 5727, Note_on_c, 0, 81, 0
2, 5728, Note_on_c, 0, 77, 85
2, 5743, Note_on_c, 0, 77, 0
2, 5744, Note_on_c, 0, 72, 85
2, 5759, Note_on_c, 0, 72, 0
2, 5760, Note_on_c, 0, 79, 85
2, 5780, Note_on_c, 0, 79, 0
2, 5808, Note_on_c, 0, 60, 85
2, 5820, Note_on_c, 0, 60, 0
2, 5820, Note_on_c, 0, 64, 85
2, 5826, Note_on_c, 0, 64, 0
2, 5826, Note_on_c, 0, 67, 85
2, 5832, Note_on_c, 0, 67, 0
2, 5832, Note_on_c, 0, 72, 85
2, 5838, Note_on_c, 0, 72, 0
2, 5838, Note_on_c, 0, 76, 85
2, 5844, Note_on_c, 0, 76, 0
2, 5844, Note_on_c, 0, 79, 85
2, 5850, Note_on_c, 0, 79, 0
2, 5850, Note_on_c, 0, 83, 85
2, 5856, Note_on_c, 0, 83, 0
2, 5856, Note_on_c, 0, 84, 101
2, 5872, Note_on_c, 0, 84, 0
2, 5872, Note_on_c, 0, 79, 85
2, 5887, Note_on_c, 0, 79, 0
2, 5888, Note_on_c, 0, 76, 85
2, 5903, Note_on_c, 0, 76, 0
2, 5904, Note_on_c, 0, 81, 85
2, 5919, Note_on_c, 0, 81, 0
2, 5920, Note_on_c, 0, 77, 85
2, 5935, Note_on_c, 0, 77, 0
2, 5936, Note_on_c, 0, 72, 85
2, 5951, Note_on_c, 0, 72, 0
2, 5952, Note_on_c, 0, 79, 85
2, 5972, Note_on_c, 0, 79, 0
2, 6000, Note_on_c, 0, 79, 85
2, 6006, Note_on_c, 0, 79, 0
2, 6006, Note_on_c, 0, 84, 85
2, 6012, Note_on_c, 0, 84, 0
2, 6012, Note_on_c, 0, 88, 85
2, 6046, Note_on_c, 0, 88, 0
2, 6048, Note_on_c, 0, 86, 85
2, 6060, Note_on_c, 0, 86, 0
2, 6060, Note_on_c, 0, 84, 84
2, 6094, Note_on_c, 0, 84, 0
2, 6096, Note_on_c, 0, 83, 83
2, 6108, Note_on_c, 0, 83, 0
2, 6108, Note_on_c, 0, 81, 83
2, 6142, Note_on_c, 0, 81, 0
2, 6144, Note_on_c, 0, 79, 82
2, 6192, Note_on_c, 0, 79, 0
2, 6192, Note_on_c, 0, 78, 81
2, 6237, Note_on_c, 0, 78, 0
2, 6240, Note_on_c, 0, 77, 79
2, 6329, Note_on_c, 0, 77, 0
2, 6336, Note_on_c, 0, 76, 77
2, 6381, Note_on_c, 0, 76, 0
2, 6384, Note_on_c, 0, 80, 80
2, 6396, Note_on_c, 0, 80, 0
2, 6396, Note_on_c, 0, 81, 81
2, 6430, Note_on_c, 0, 81, 0
2, 6432, Note_on_c, 0, 79, 84
2, 6444, Note_on_c, 0, 79, 0
2, 6444, Note_on_c, 0, 77, 85
2, 6478, Note_on_c, 0, 77, 0
2, 6480, Note_on_c, 0, 76, 85
2, 6492, Note_on_c, 0, 76, 0
2, 6492, Note_on_c, 0, 74, 85
2, 6526, Note_on_c, 0, 74, 0
2, 6528, Note_on_c, 0, 72, 85
2, 6661, Note_on_c, 0, 72, 0
2, 6672, Note_on_c, 0, 76, 79
2, 6678, Note_on_c, 0, 76, 0
2, 6678, Note_on_c, 0, 74, 79
2, 6717, Note_on_c, 0, 74, 0
2, 6720, Note_on_c, 0, 72, 77
2, 6740, Note_on_c, 0, 72, 0
2, 6768, Note_on_c, 0, 60, 85
2, 6780, Note_on_c, 0, 60, 0
2, 6780, Note_on_c, 0, 64, 85
2, 6786, Note_on_c, 0, 64, 0
2, 6786, Note_on_c, 0, 67, 85
2, 6792, Note_on_c, 0, 67, 0
2, 6792, Note_on_c, 0, 72, 85
2, 6798, Note_on_c, 0, 72, 0
2, 6798, Note_on_c, 0, 76, 85
2, 6804, Note_on_c, 0, 76, 0
2, 6804, Note_on_c, 0, 79, 85
2, 6810, Note_on_c, 0, 79, 0
2, 6810, Note_on_c, 0, 83, 85
2, 6816, Note_on_c, 0, 83, 0
2, 6816, Note_on_c, 0, 84, 101
2, 6832, Note_on_c, 0, 84, 0
2, 6832, Note_on_c, 0, 79, 85
2, 6847, Note_on_c, 0, 79, 0
2, 6848, Note_on_c, 0, 76, 85
2, 6863, Note_on_c, 0, 76, 0
2, 6864, Note_on_c, 0, 81, 85
2, 6879, Note_on_c, 0, 81, 0
2, 6880, Note_on_c, 0, 77, 85
2, 6895, Note_on_c, 0, 77, 0
2, 6896, Note_on_c, 0, 72, 85
2, 6911, Note_on_c, 0, 72, 0
2, 6912, Note_on_c, 0, 79, 85
2, 6932, Note_on_c, 0, 79, 0
2, 6960, Note_on_c, 0, 60, 85
2, 6972, Note_on_c, 0, 60, 0
2, 6972, Note_on_c, 0, 64, 85
2, 6978, Note_on_c, 0, 64, 0
2, 6978, Note_on_c, 0, 67, 85
2, 6984, Note_on_c, 0, 67, 0
2, 6984, Note_on_c, 0, 72, 85
2, 6990, Note_on_c, 0, 72, 0
2, 6990, Note_on_c, 0, 76, 85
2, 6996, Note_on_c, 0, 76, 0
2, 6996, Note_on_c, 0, 79, 85
2, 7002, Note_on_c, 0, 79, 0
2, 7002, Note_on_c, 0, 83, 85
2, 7008, Note_on_c, 0, 83, 0
2, 7008, Note_on_c, 0, 84, 101
2, 7024, Note_on_c, 0, 84, 0
2, 7024, Note_on_c, 0, 79, 85
2, 7039, Note_on_c, 0, 79, 0
2, 7040, Note_on_c, 0, 76, 85
2, 7055, Note_on_c, 0, 76, 0
2, 7056, Note_on_c, 0, 81, 85
2, 7071, Note_on_c, 0, 81, 0
2, 7072, Note_on_c, 0, 77, 85
2, 7087, Note_on_c, 0, 77, 0
2, 7088, Note_on_c, 0, 72, 85
2, 7103, Note_on_c, 0, 72, 0
2, 7104, Note_on_c, 0, 79, 85
2, 7124, Note_on_c, 0, 79, 0
2, 7152, Note_on_c, 0, 62, 85
2, 7164, Note_on_c, 0, 62, 0
2, 7164, Note_on_c, 0, 66, 85
2, 7170, Note_on_c, 0, 66, 0
2, 7170, Note_on_c, 0, 69, 85
2, 7176, Note_on_c, 0, 69, 0
2, 7176, Note_on_c, 0, 72, 85
2, 7182, Note_on_c, 0, 72, 0
2, 7182, Note_on_c, 0, 74, 85
2, 7188, Note_on_c, 0, 74, 0
2, 7188, Note_on_c, 0, 78, 85
2, 7194, Note_on_c, 0, 78, 0
2, 7194, Note_on_c, 0, 81, 85
2, 7200, Note_on_c, 0, 81, 0
2, 7200, Note_on_c, 0, 84, 101
2, 7220, Note_on_c, 0, 84, 0
2, 7248, Note_on_c, 0, 79, 85
2, 7256, Note_on_c, 0, 79, 0
2, 7256, Note_on_c, 0, 78, 85
2, 7264, Note_on_c, 0, 78, 0
2, 7264, Note_on_c, 0, 79, 85
2, 7272, Note_on_c, 0, 79, 0
2, 7272, Note_on_c, 0, 78, 85
2, 7280, Note_on_c, 0, 78, 0
2, 7280, Note_on_c, 0, 76, 85
2, 7288, Note_on_c, 0, 76, 0
2, 7288, Note_on_c, 0, 78, 85
2, 7296, Note_on_c, 0, 78, 0
2, 7296, Note_on_c, 0, 79, 85
2, 7296, Note_on_c, 0, 74, 85
2, 7296, Note_on_c, 0, 71, 85
2, 7341, Note_on_c, 0, 79, 0
2, 7341, Note_on_c, 0, 74, 0
2, 7341, Note_on_c, 0, 71, 0
2, 7344, Note_on_c, 0, 67, 85
2, 7352, Note_on_c, 0, 67, 0
2, 7352, Note_on_c, 0, 71, 85
2, 7360, Note_on_c, 0, 71, 0
2, 7360, Note_on_c, 0, 74, 85
2, 7368, Note_on_c, 0, 74, 0
2, 7368, Note_on_c, 0, 77, 85
2, 7376, Note_on_c, 0, 77, 0
2, 7376, Note_on_c, 0, 79, 85
2, 7384, Note_on_c, 0, 79, 0
2, 7384, Note_on_c, 0, 83, 85
2, 7392, Note_on_c, 0, 83, 0
2, 7392, Note_on_c, 0, 86, 101
2, 7412, Note_on_c, 0, 86, 0
2, 7440, Note_on_c, 0, 74, 85
2, 7440, Note_on_c, 0, 71, 85
2, 7485, Note_on_c, 0, 74, 0
2, 7485, Note_on_c, 0, 71, 0
2, 7488, Note_on_c, 0, 76, 85
2, 7488, Note_on_c, 0, 72, 85
2, 7533, Note_on_c, 0, 76, 0
2, 7533, Note_on_c, 0, 72, 0
2, 7536, Note_on_c, 0, 65, 85
2, 7544, Note_on_c, 0, 65, 0
2, 7544, Note_on_c, 0, 69, 85
2, 7552, Note_on_c, 0, 69, 0
2, 7552, Note_on_c, 0, 73, 85
2, 7560, Note_on_c, 0, 73, 0
2, 7560, Note_on_c, 0, 74, 85
2, 7568, Note_on_c, 0, 74, 0
2, 7568, Note_on_c, 0, 76, 85
2, 7576, Note_on_c, 0, 76, 0
2, 7576, Note_on_c, 0, 77, 85
2, 7584, Note_on_c, 0, 77, 0
2, 7584, Note_on_c, 0, 81, 101
2, 7604, Note_on_c, 0, 81, 0
2, 7632, Note_on_c, 0, 69, 85
2, 7632, Note_on_c, 0, 66, 85
2, 7677, Note_on_c, 0, 69, 0
2, 7677, Note_on_c, 0, 66, 0
2, 7680, Note_on_c, 0, 71, 85
2, 7700, Note_on_c, 0, 71, 0
2, 7728, Note_on_c, 0, 67, 60
2, 7748, Note_on_c, 0, 67, 0
2, 7776, Note_on_c, 0, 67, 61
2, 7796, Note_on_c, 0, 67, 0
2, 7824, Note_on_c, 0, 67, 62
2, 7844, Note_on_c, 0, 67, 0
2, 7872, Note_on_c, 0, 67, 63
2, 7892, Note_on_c, 0, 67, 0
2, 7920, Note_on_c, 0, 67, 65
2, 7940, Note_on_c, 0, 67, 0
2, 7968, Note_on_c, 0, 67, 66
2, 7988, Note_on_c, 0, 67, 0
2, 8016, Note_on_c, 0, 67, 67
2, 8036, Note_on_c, 0, 67, 0
2, 8112, Note_on_c, 0, 67, 70
2, 8132, Note_on_c, 0, 67, 0
2, 8208, Note_on_c, 0, 67, 72
2, 8228, Note_on_c, 0, 67, 0
2, 8304, Note_on_c, 0, 67, 75
2, 8324, Note_on_c, 0, 67, 0
2, 8400, Note_on_c, 0, 67, 77
2, 8420, Note_on_c, 0, 67, 0
2, 8472, Note_on_c, 0, 67, 79
2, 8482, Note_on_c, 0, 67, 0
2, 8520, Note_on_c, 0, 67, 81
2, 8530, Note_on_c, 0, 67, 0
2, 8568, Note_on_c, 0, 67, 82
2, 8578, Note_on_c, 0, 67, 0
2, 8616, Note_on_c, 0, 67, 83
2, 8626, Note_on_c, 0, 67, 0
2, 8664, Note_on_c, 0, 67, 85
2, 8674, Note_on_c, 0, 67, 0
2, 8712, Note_on_c, 0, 67, 85
2, 8722, Note_on_c, 0, 67, 0
2, 8760, Note_on_c, 0, 67, 85
2, 8770, Note_on_c, 0, 67, 0
2, 8808, Note_on_c, 0, 67, 85
2, 8818, Note_on_c, 0, 67, 0
2, 8848, Note_on_c, 0, 71, 85
2, 8864, Note_on_c, 0, 71, 0
2, 8864, Note_on_c, 0, 72, 85
2, 8879, Note_on_c, 0, 72, 0
2, 8880, Note_on_c, 0, 74, 85
2, 8895, Note_on_c, 0, 74, 0
2, 8896, Note_on_c, 0, 72, 85
2, 8911, Note_on_c, 0, 72, 0
2, 8912, Note_on_c, 0, 71, 85
2, 8927, Note_on_c, 0, 71, 0
2, 8928, Note_on_c, 0, 77, 85
2, 8943, Note_on_c, 0, 77, 0
2, 8944, Note_on_c, 0, 75, 85
2, 8959, Note_on_c, 0, 75, 0
2, 8960, Note_on_c, 0, 74, 85
2, 8975, Note_on_c, 0, 74, 0
2, 8976, Note_on_c, 0, 80, 85
2, 8991, Note_on_c, 0, 80, 0
2, 8992, Note_on_c, 0, 79, 85
2, 9007, Note_on_c, 0, 79, 0
2, 9008, Note_on_c, 0, 77, 85
2, 9023, Note_on_c, 0, 77, 0
2, 9024, Note_on_c, 0, 86, 85
2, 9044, Note_on_c, 0, 86, 0
2, 9072, Note_on_c, 0, 77, 83
2, 9092, Note_on_c, 0, 77, 0
2, 9120, Note_on_c, 0, 80, 81
2, 9140, Note_on_c, 0, 80, 0
2, 9168, Note_on_c, 0, 71, 79
2, 9188, Note_on_c, 0, 71, 0
2, 9216, Note_on_c, 0, 74, 77
2, 9239, Note_on_c, 0, 74, 0
2, 9240, Note_on_c, 0, 72, 79
2, 9263, Note_on_c, 0, 72, 0
2, 9264, Note_on_c, 0, 78, 81
2, 9287, Note_on_c, 0, 78, 0
2, 9288, Note_on_c, 0, 79, 83
2, 9311, Note_on_c, 0, 79, 0
2, 9312, Note_on_c, 0, 77, 85
2, 9335, Note_on_c, 0, 77, 0
2, 9336, Note_on_c, 0, 76, 83
2, 9359, Note_on_c, 0, 76, 0
2, 9360, Note_on_c, 0, 74, 81
2, 9383, Note_on_c, 0, 74, 0
2, 9384, Note_on_c, 0, 72, 79
2, 9407, Note_on_c, 0, 72, 0
2, 9408, Note_on_c, 0, 73, 77
2, 9431, Note_on_c, 0, 73, 0
2, 9432, Note_on_c, 0, 74, 79
2, 9455, Note_on_c, 0, 74, 0
2, 9456, Note_on_c, 0, 77, 82
2, 9479, Note_on_c, 0, 77, 0
2, 9480, Note_on_c, 0, 74, 85
2, 9503, Note_on_c, 0, 74, 0
2, 9504, Note_on_c, 0, 69, 83
2, 9549, Note_on_c, 0, 69, 0
2, 9552, Note_on_c, 0, 71, 80
2, 9597, Note_on_c, 0, 71, 0
2, 9600, Note_on_c, 0, 74, 77
2, 9623, Note_on_c, 0, 74, 0
2, 9624, Note_on_c, 0, 72, 79
2, 9647, Note_on_c, 0, 72, 0
2, 9648, Note_on_c, 0, 78, 82
2, 9671, Note_on_c, 0, 78, 0
2, 9672, Note_on_c, 0, 79, 85
2, 9695, Note_on_c, 0, 79, 0
2, 9696, Note_on_c, 0, 77, 83
2, 9719, Note_on_c, 0, 77, 0
2, 9720, Note_on_c, 0, 76, 81
2, 9743, Note_on_c, 0, 76, 0
2, 9744, Note_on_c, 0, 74, 80
2, 9767, Note_on_c, 0, 74, 0
2, 9768, Note_on_c, 0, 72, 78
2, 9791, Note_on_c, 0, 72, 0
2, 9792, Note_on_c, 0, 73, 77
2, 9815, Note_on_c, 0, 73, 0
2, 9816, Note_on_c, 0, 74, 79
2, 9839, Note_on_c, 0, 74, 0
2, 9840, Note_on_c, 0, 77, 82
2, 9863, Note_on_c, 0, 77, 0
2, 9864, Note_on_c, 0, 74, 85
2, 9887, Note_on_c, 0, 74, 0
2, 9888, Note_on_c, 0, 69, 83
2, 9936, Note_on_c, 0, 69, 0
2, 9936, Note_on_c, 0, 71, 80
2, 9981, Note_on_c, 0, 71, 0
2, 9984, Note_on_c, 0, 74, 77
2, 9996, Note_on_c, 0, 74, 0
2, 9996, Note_on_c, 0, 72, 77
2, 10008, Note_on_c, 0, 72, 0
2, 10008, Note_on_c, 0, 71, 77
2, 10020, Note_on_c, 0, 71, 0
2, 10020, Note_on_c, 0, 72, 77
2, 10103, Note_on_c, 0, 72, 0
2, 10104, Note_on_c, 0, 76, 77
2, 10127, Note_on_c, 0, 76, 0
2, 10128, Note_on_c, 0, 74, 77
2, 10151, Note_on_c, 0, 74, 0
2, 10152, Note_on_c, 0, 71, 77
2, 10175, Note_on_c, 0, 71, 0
2, 10176, Note_on_c, 0, 72, 77
2, 10199, Note_on_c, 0, 72, 0
2, 10200, Note_on_c, 0, 76, 77
2, 10223, Note_on_c, 0, 76, 0
2, 10224, Note_on_c, 0, 74, 77
2, 10247, Note_on_c, 0, 74, 0
2, 10248, Note_on_c, 0, 71, 77
2, 10271, Note_on_c, 0, 71, 0
2, 10272, Note_on_c, 0, 72, 77
2, 10295, Note_on_c, 0, 72, 0
2, 10296, Note_on_c, 0, 76, 77
2, 10319, Note_on_c, 0, 76, 0
2, 10320, Note_on_c, 0, 74, 77
2, 10343, Note_on_c, 0, 74, 0
2, 10344, Note_on_c, 0, 71, 77
2, 10367, Note_on_c, 0, 71, 0
2, 10368, Note_on_c, 0, 74, 77
2, 10380, Note_on_c, 0, 74, 0
2, 10380, Note_on_c, 0, 72, 77
2, 10392, Note_on_c, 0, 72, 0
2, 10392, Note_on_c, 0, 71, 77
2, 10404, Note_on_c, 0, 71, 0
2, 10404, Note_on_c, 0, 72, 77
2, 10479, Note_on_c, 0, 72, 0
2, 10480, Note_on_c, 0, 74, 77
2, 10495, Note_on_c, 0, 74, 0
2, 10496, Note_on_c, 0, 76, 77
2, 10511, Note_on_c, 0, 76, 0
2, 10512, Note_on_c, 0, 74, 77
2, 10527, Note_on_c, 0, 74, 0
2, 10528, Note_on_c, 0, 72, 77
2, 10543, Note_on_c, 0, 72, 0
2, 10544, Note_on_c, 0, 71, 77
2, 10559, Note_on_c, 0, 71, 0
2, 10560, Note_on_c, 0, 72, 77
2, 10575, Note_on_c, 0, 72, 0
2, 10576, Note_on_c, 0, 74, 77
2, 10591, Note_on_c, 0, 74, 0
2, 10592, Note_on_c, 0, 76, 77
2, 10607, Note_on_c, 0, 76, 0
2, 10608, Note_on_c, 0, 74, 77
2, 10623, Note_on_c, 0, 74, 0
2, 10624, Note_on_c, 0, 72, 77
2, 10639, Note_on_c, 0, 72, 0
2, 10640, Note_on_c, 0, 71, 77
2, 10655, Note_on_c, 0, 71, 0
2, 10656, Note_on_c, 0, 72, 77
2, 10671, Note_on_c, 0, 72, 0
2, 10672, Note_on_c, 0, 74, 77
2, 10687, Note_on_c, 0, 74, 0
2, 10688, Note_on_c, 0, 76, 77
2, 10703, Note_on_c, 0, 76, 0
2, 10704, Note_on_c, 0, 74, 77
2, 10719, Note_on_c, 0, 74, 0
2, 10720, Note_on_c, 0, 72, 77
2, 10735, Note_on_c, 0, 72, 0
2, 10736, Note_on_c, 0, 71, 77
2, 10751, Note_on_c, 0, 71, 0
2, 10752, Note_on_c, 0, 72, 77
2, 10797, Note_on_c, 0, 72, 0
2, 10800, Note_on_c, 0, 84, 77
2, 10871, Note_on_c, 0, 84, 0
2, 10872, Note_on_c, 0, 83, 77
2, 10895, Note_on_c, 0, 83, 0
2, 10896, Note_on_c, 0, 82, 77
2, 10919, Note_on_c, 0, 82, 0
2, 10920, Note_on_c, 0, 81, 77
2, 10943, Note_on_c, 0, 81, 0
2, 10944, Note_on_c, 0, 80, 77
2, 10967, Note_on_c, 0, 80, 0
2, 10968, Note_on_c, 0, 81, 77
2, 10991, Note_on_c, 0, 81, 0
2, 10992, Note_on_c, 0, 79, 77
2, 11015, Note_on_c, 0, 79, 0
2, 11016, Note_on_c, 0, 77, 77
2, 11039, Note_on_c, 0, 77, 0
2, 11040, Note_on_c, 0, 76, 77
2, 11063, Note_on_c, 0, 76, 0
2, 11064, Note_on_c, 0, 74, 77
2, 11087, Note_on_c, 0, 74, 0
2, 11088, Note_on_c, 0, 77, 77
2, 11111, Note_on_c, 0, 77, 0
2, 11112, Note_on_c, 0, 74, 77
2, 11135, Note_on_c, 0, 74, 0
2, 11136, Note_on_c, 0, 72, 77
2, 11269, Note_on_c, 0, 72, 0
2, 11280, Note_on_c, 0, 76, 77
2, 11292, Note_on_c, 0, 76, 0
2, 11292, Note_on_c, 0, 74, 77
2, 11325, Note_on_c, 0, 74, 0
2, 11328, Note_on_c, 0, 72, 77
2, 11348, Note_on_c, 0, 72, 0
2, 11376, Note_on_c, 0, 67, 77
2, 11391, Note_on_c, 0, 67, 0
2, 11392, Note_on_c, 0, 72, 77
2, 11407, Note_on_c, 0, 72, 0
2, 11408, Note_on_c, 0, 76, 77
2, 11423, Note_on_c, 0, 76, 0
2, 11424, Note_on_c, 0, 79, 77
2, 11439, Note_on_c, 0, 79, 0
2, 11440, Note_on_c, 0, 76, 77
2, 11455, Note_on_c, 0, 76, 0
2, 11456, Note_on_c, 0, 72, 77
2, 11471, Note_on_c, 0, 72, 0
2, 11472, Note_on_c, 0, 77, 77
2, 11487, Note_on_c, 0, 77, 0
2, 11488, Note_on_c, 0, 74, 77
2, 11503, Note_on_c, 0, 74, 0
2, 11504, Note_on_c, 0, 71, 77
2, 11519, Note_on_c, 0, 71, 0
2, 11520, Note_on_c, 0, 72, 77
2, 11540, Note_on_c, 0, 72, 0
2, 11568, Note_on_c, 0, 55, 77
2, 11583, Note_on_c, 0, 55, 0
2, 11584, Note_on_c, 0, 60, 77
2, 11599, Note_on_c, 0, 60, 0
2, 11600, Note_on_c, 0, 64, 77
2, 11615, Note_on_c, 0, 64, 0
2, 11616, Note_on_c, 0, 67, 77
2, 11631, Note_on_c, 0, 67, 0
2, 11632, Note_on_c, 0, 64, 77
2, 11647, Note_on_c, 0, 64, 0
2, 11648, Note_on_c, 0, 60, 77
2, 11663, Note_on_c, 0, 60, 0
2, 11664, Note_on_c, 0, 65, 77
2, 11679, Note_on_c, 0, 65, 0
2, 11680, Note_on_c, 0, 62, 77
2, 11695, Note_on_c, 0, 62, 0
2, 11696, Note_on_c, 0, 59, 77
2, 11711, Note_on_c, 0, 59, 0
2, 11712, Note_on_c, 0, 60, 77
2, 11757, Note_on_c, 0, 60, 0
2, 11904, Note_on_c, 0, 57, 85
2, 11912, Note_on_c, 0, 60, 85
2, 11920, Note_on_c, 0, 65, 85
2, 11949, Note_on_c, 0, 65, 0
2, 11949, Note_on_c, 0, 60, 0
2, 11949, Note_on_c, 0, 57, 0
2, 12000, Note_on_c, 0, 60, 85
2, 12000, Note_on_c, 0, 57, 85
2, 12020, Note_on_c, 0, 60, 0
2, 12020, Note_on_c, 0, 57, 0
2, 12072, Note_on_c, 0, 60, 85
2, 12072, Note_on_c, 0, 57, 85
2, 12082, Note_on_c, 0, 60, 0
2, 12082, Note_on_c, 0, 57, 0
2, 12096, Note_on_c, 0, 60, 85
2, 12096, Note_on_c, 0, 57, 85
2, 12141, Note_on_c, 0, 60, 0
2, 12141, Note_on_c, 0, 57, 0
2, 12288, Note_on_c, 0, 72, 77
2, 12429, Note_on_c, 0, 72, 0
2, 12432, Note_on_c, 0, 76, 77
2, 12444, Note_on_c, 0, 76, 0
2, 12444, Note_on_c, 0, 74, 77
2, 12477, Note_on_c, 0, 74, 0
2, 12480, Note_on_c, 0, 72, 77
2, 12528, Note_on_c, 0, 72, 0
2, 12528, Note_on_c, 0, 77, 77
2, 12548, Note_on_c, 0, 77, 0
2, 12576, Note_on_c, 0, 69, 77
2, 12621, Note_on_c, 0, 69, 0
2, 12624, Note_on_c, 0, 72, 77
2, 12636, Note_on_c, 0, 72, 0
2, 12636, Note_on_c, 0, 70, 77
2, 12669, Note_on_c, 0, 70, 0
2, 12672, Note_on_c, 0, 69, 77
2, 12720, Note_on_c, 0, 69, 0
2, 12720, Note_on_c, 0, 72, 77
2, 12740, Note_on_c, 0, 72, 0
2, 12768, Note_on_c, 0, 65, 77
2, 12788, Note_on_c, 0, 65, 0
2, 12816, Note_on_c, 0, 65, 77
2, 12836, Note_on_c, 0, 65, 0
2, 12864, Note_on_c, 0, 65, 77
2, 13004, Note_on_c, 0, 65, 0
2, 13008, Note_on_c, 0, 69, 77
2, 13020, Note_on_c, 0, 69, 0
2, 13020, Note_on_c, 0, 67, 77
2, 13053, Note_on_c, 0, 67, 0
2, 13056, Note_on_c, 0, 65, 77
2, 13076, Note_on_c, 0, 65, 0
2, 13344, Note_on_c, 0, 72, 77
2, 13344, Note_on_c, 0, 69, 77
2, 13389, Note_on_c, 0, 72, 0
2, 13389, Note_on_c, 0, 69, 0
2, 13392, Note_on_c, 0, 76, 77
2, 13404, Note_on_c, 0, 76, 0
2, 13404, Note_on_c, 0, 74, 77
2, 13404, Note_on_c, 0, 70, 77
2, 13437, Note_on_c, 0, 74, 0
2, 13437, Note_on_c, 0, 70, 0
2, 13440, Note_on_c, 0, 72, 77
2, 13488, Note_on_c, 0, 72, 0
2, 13488, Note_on_c, 0, 77, 77
2, 13508, Note_on_c, 0, 77, 0
2, 13536, Note_on_c, 0, 69, 77
2, 13581, Note_on_c, 0, 69, 0
2, 13584, Note_on_c, 0, 72, 77
2, 13596, Note_on_c, 0, 72, 0
2, 13596, Note_on_c, 0, 70, 77
2, 13629, Note_on_c, 0, 70, 0
2, 13632, Note_on_c, 0, 69, 77
2, 13680, Note_on_c, 0, 69, 0
2, 13680, Note_on_c, 0, 72, 77
2, 13700, Note_on_c, 0, 72, 0
2, 13728, Note_on_c, 0, 65, 77
2, 13748, Note_on_c, 0, 65, 0
2, 13776, Note_on_c, 0, 65, 77
2, 13796, Note_on_c, 0, 65, 0
2, 13824, Note_on_c, 0, 65, 77
2, 13964, Note_on_c, 0, 65, 0
2, 13968, Note_on_c, 0, 69, 77
2, 13980, Note_on_c, 0, 69, 0
2, 13980, Note_on_c, 0, 67, 77
2, 14013, Note_on_c, 0, 67, 0
2, 14016, Note_on_c, 0, 65, 77
2, 14061, Note_on_c, 0, 65, 0
2, 14112, Note_on_c, 0, 81, 77
2, 14157, Note_on_c, 0, 81, 0
2, 14160, Note_on_c, 0, 82, 77
2, 14170, Note_on_c, 0, 82, 0
2, 14170, Note_on_c, 0, 81, 77
2, 14180, Note_on_c, 0, 81, 0
2, 14180, Note_on_c, 0, 79, 77
2, 14190, Note_on_c, 0, 79, 0
2, 14190, Note_on_c, 0, 81, 77
2, 14199, Note_on_c, 0, 81, 0
2, 14199, Note_on_c, 0, 82, 77
2, 14208, Note_on_c, 0, 82, 0
2, 14208, Note_on_c, 0, 84, 77
2, 14231, Note_on_c, 0, 84, 0
2, 14232, Note_on_c, 0, 82, 74
2, 14255, Note_on_c, 0, 82, 0
2, 14256, Note_on_c, 0, 81, 71
2, 14279, Note_on_c, 0, 81, 0
2, 14280, Note_on_c, 0, 79, 68
2, 14303, Note_on_c, 0, 79, 0
2, 14304, Note_on_c, 0, 77, 69
2, 14327, Note_on_c, 0, 77, 0
2, 14328, Note_on_c, 0, 76, 71
2, 14351, Note_on_c, 0, 76, 0
2, 14352, Note_on_c, 0, 79, 73
2, 14375, Note_on_c, 0, 79, 0
2, 14376, Note_on_c, 0, 77, 75
2, 14399, Note_on_c, 0, 77, 0
2, 14400, Note_on_c, 0, 81, 77
2, 14423, Note_on_c, 0, 81, 0
2, 14424, Note_on_c, 0, 79, 74
2, 14447, Note_on_c, 0, 79, 0
2, 14448, Note_on_c, 0, 77, 72
2, 14471, Note_on_c, 0, 77, 0
2, 14472, Note_on_c, 0, 76, 70
2, 14495, Note_on_c, 0, 76, 0
2, 14496, Note_on_c, 0, 74, 68
2, 14544, Note_on_c, 0, 74, 0
2, 14544, Note_on_c, 0, 73, 85
2, 14589, Note_on_c, 0, 73, 0
2, 14592, Note_on_c, 0, 76, 60
2, 14640, Note_on_c, 0, 76, 0
2, 14640, Note_on_c, 0, 74, 85
2, 14685, Note_on_c, 0, 74, 0
2, 14688, Note_on_c, 0, 77, 60
2, 14736, Note_on_c, 0, 77, 0
2, 14736, Note_on_c, 0, 76, 85
2, 14781, Note_on_c, 0, 76, 0
2, 14784, Note_on_c, 0, 79, 60
2, 14832, Note_on_c, 0, 79, 0
2, 14832, Note_on_c, 0, 77, 85
2, 14877, Note_on_c, 0, 77, 0
2, 14880, Note_on_c, 0, 81, 77
2, 14925, Note_on_c, 0, 81, 0
2, 14928, Note_on_c, 0, 82, 77
2, 14938, Note_on_c, 0, 82, 0
2, 14938, Note_on_c, 0, 81, 77
2, 14948, Note_on_c, 0, 81, 0
2, 14948, Note_on_c, 0, 79, 77
2, 14958, Note_on_c, 0, 79, 0
2, 14958, Note_on_c, 0, 81, 77
2, 14967, Note_on_c, 0, 81, 0
2, 14967, Note_on_c, 0, 82, 77
2, 14976, Note_on_c, 0, 82, 0
2, 14976, Note_on_c, 0, 84, 77
2, 14999, Note_on_c, 0, 84, 0
2, 15000, Note_on_c, 0, 82, 74
2, 15023, Note_on_c, 0, 82, 0
2, 15024, Note_on_c, 0, 81, 71
2, 15047, Note_on_c, 0, 81, 0
2, 15048, Note_on_c, 0, 79, 68
2, 15071, Note_on_c, 0, 79, 0
2, 15072, Note_on_c, 0, 77, 69
2, 15095, Note_on_c, 0, 77, 0
2, 15096, Note_on_c, 0, 76, 71
2, 15119, Note_on_c, 0, 76, 0
2, 15120, Note_on_c, 0, 79, 73
2, 15143, Note_on_c, 0, 79, 0
2, 15144, Note_on_c, 0, 77, 75
2, 15167, Note_on_c, 0, 77, 0
2, 15168, Note_on_c, 0, 81, 77
2, 15191, Note_on_c, 0, 81, 0
2, 15192, Note_on_c, 0, 77, 74
2, 15215, Note_on_c, 0, 77, 0
2, 15216, Note_on_c, 0, 76, 71
2, 15239, Note_on_c, 0, 76, 0
2, 15240, Note_on_c, 0, 74, 68
2, 15263, Note_on_c, 0, 74, 0
2, 15264, Note_on_c, 0, 72, 60
2, 15312, Note_on_c, 0, 72, 0
2, 15312, Note_on_c, 0, 71, 85
2, 15357, Note_on_c, 0, 71, 0
2, 15360, Note_on_c, 0, 74, 60
2, 15408, Note_on_c, 0, 74, 0
2, 15408, Note_on_c, 0, 72, 85
2, 15453, Note_on_c, 0, 72, 0
2, 15456, Note_on_c, 0, 76, 60
2, 15504, Note_on_c, 0, 76, 0
2, 15504, Note_on_c, 0, 74, 85
2, 15549, Note_on_c, 0, 74, 0
2, 15552, Note_on_c, 0, 77, 60
2, 15600, Note_on_c, 0, 77, 0
2, 15600, Note_on_c, 0, 76, 85
2, 15645, Note_on_c, 0, 76, 0
2, 15648, Note_on_c, 0, 76, 77
2, 15693, Note_on_c, 0, 76, 0
2, 15696, Note_on_c, 0, 77, 77
2, 15706, Note_on_c, 0, 77, 0
2, 15706, Note_on_c, 0, 76, 77
2, 15716, Note_on_c, 0, 76, 0
2, 15716, Note_on_c, 0, 74, 77
2, 15726, Note_on_c, 0, 74, 0
2, 15726, Note_on_c, 0, 76, 77
2, 15735, Note_on_c, 0, 76, 0
2, 15735, Note_on_c, 0, 77, 77
2, 15744, Note_on_c, 0, 77, 0
2, 15744, Note_on_c, 0, 79, 77
2, 15767, Note_on_c, 0, 79, 0
2, 15768, Note_on_c, 0, 76, 74
2, 15791, Note_on_c, 0, 76, 0
2, 15792, Note_on_c, 0, 74, 72
2, 15815, Note_on_c, 0, 74, 0
2, 15816, Note_on_c, 0, 72, 70
2, 15839, Note_on_c, 0, 72, 0
2, 15840, Note_on_c, 0, 71, 68
2, 15864, Note_on_c, 0, 71, 0
2, 15864, Note_on_c, 0, 72, 70
2, 15887, Note_on_c, 0, 72, 0
2, 15888, Note_on_c, 0, 74, 72
2, 15911, Note_on_c, 0, 74, 0
2, 15912, Note_on_c, 0, 72, 74
2, 15935, Note_on_c, 0, 72, 0
2, 15936, Note_on_c, 0, 76, 77
2, 15948, Note_on_c, 0, 76, 0
2, 15948, Note_on_c, 0, 74, 77
2, 15984, Note_on_c, 0, 74, 0
2, 15984, Note_on_c, 0, 72, 77
2, 16029, Note_on_c, 0, 72, 0
2, 16032, Note_on_c, 0, 76, 77
2, 16044, Note_on_c, 0, 76, 0
2, 16044, Note_on_c, 0, 74, 77
2, 16080, Note_on_c, 0, 74, 0
2, 16080, Note_on_c, 0, 72, 77
2, 16125, Note_on_c, 0, 72, 0
2, 16128, Note_on_c, 0, 76, 77
2, 16140, Note_on_c, 0, 76, 0
2, 16140, Note_on_c, 0, 74, 77
2, 16176, Note_on_c, 0, 74, 0
2, 16176, Note_on_c, 0, 72, 77
2, 16221, Note_on_c, 0, 72, 0
2, 16224, Note_on_c, 0, 79, 77
2, 16320, Note_on_c, 0, 79, 0
2, 16320, Note_on_c, 0, 78, 77
2, 16365, Note_on_c, 0, 78, 0
2, 16368, Note_on_c, 0, 72, 77
2, 16416, Note_on_c, 0, 72, 0
2, 16416, Note_on_c, 0, 71, 77
2, 16461, Note_on_c, 0, 71, 0
2, 16464, Note_on_c, 0, 77, 77
2, 16512, Note_on_c, 0, 77, 0
2, 16512, Note_on_c, 0, 76, 77
2, 16557, Note_on_c, 0, 76, 0
2, 16560, Note_on_c, 0, 70, 77
2, 16608, Note_on_c, 0, 70, 0
2, 16608, Note_on_c, 0, 69, 77
2, 16653, Note_on_c, 0, 69, 0
2, 16656, Note_on_c, 0, 80, 77
2, 16704, Note_on_c, 0, 80, 0
2, 16704, Note_on_c, 0, 81, 77
2, 16749, Note_on_c, 0, 81, 0
2, 16752, Note_on_c, 0, 83, 77
2, 16762, Note_on_c, 0, 83, 0
2, 16762, Note_on_c, 0, 81, 77
2, 16772, Note_on_c, 0, 81, 0
2, 16772, Note_on_c, 0, 80, 77
2, 16782, Note_on_c, 0, 80, 0
2, 16782, Note_on_c, 0, 81, 77
2, 16791, Note_on_c, 0, 81, 0
2, 16791, Note_on_c, 0, 83, 77
2, 16800, Note_on_c, 0, 83, 0
2, 16800, Note_on_c, 0, 84, 77
2, 16845, Note_on_c, 0, 84, 0
2, 16848, Note_on_c, 0, 84, 77
2, 16893, Note_on_c, 0, 84, 0
2, 16896, Note_on_c, 0, 84, 77
2, 16916, Note_on_c, 0, 84, 0
2, 16992, Note_on_c, 0, 69, 77
2, 17012, Note_on_c, 0, 69, 0
2, 17088, Note_on_c, 0, 59, 77
2, 17108, Note_on_c, 0, 59, 0
2, 17184, Note_on_c, 0, 43, 77
2, 17273, Note_on_c, 0, 43, 0
2, 17328, Note_on_c, 0, 60, 85
2, 17340, Note_on_c, 0, 60, 0
2, 17340, Note_on_c, 0, 64, 85
2, 17346, Note_on_c, 0, 64, 0
2, 17346, Note_on_c, 0, 67, 85
2, 17352, Note_on_c, 0, 67, 0
2, 17352, Note_on_c, 0, 72, 85
2, 17358, Note_on_c, 0, 72, 0
2, 17358, Note_on_c, 0, 76, 85
2, 17364, Note_on_c, 0, 76, 0
2, 17364, Note_on_c, 0, 79, 85
2, 17370, Note_on_c, 0, 79, 0
2, 17370, Note_on_c, 0, 83, 85
2, 17376, Note_on_c, 0, 83, 0
2, 17376, Note_on_c, 0, 84, 101
2, 17392, Note_on_c, 0, 84, 0
2, 17392, Note_on_c, 0, 79, 85
2, 17407, Note_on_c, 0, 79, 0
2, 17408, Note_on_c, 0, 76, 85
2, 17423, Note_on_c, 0, 76, 0
2, 17424, Note_on_c, 0, 81, 85
2, 17439, Note_on_c, 0, 81, 0
2, 17440, Note_on_c, 0, 77, 85
2, 17455, Note_on_c, 0, 77, 0
2, 17456, Note_on_c, 0, 72, 85
2, 17471, Note_on_c, 0, 72, 0
2, 17472, Note_on_c, 0, 79, 85
2, 17492, Note_on_c, 0, 79, 0
2, 17520, Note_on_c, 0, 60, 85
2, 17532, Note_on_c, 0, 60, 0
2, 17532, Note_on_c, 0, 64, 85
2, 17538, Note_on_c, 0, 64, 0
2, 17538, Note_on_c, 0, 67, 85
2, 17544, Note_on_c, 0, 67, 0
2, 17544, Note_on_c, 0, 72, 85
2, 17550, Note_on_c, 0, 72, 0
2, 17550, Note_on_c, 0, 76, 85
2, 17556, Note_on_c, 0, 76, 0
2, 17556, Note_on_c, 0, 79, 85
2, 17562, Note_on_c, 0, 79, 0
2, 17562, Note_on_c, 0, 83, 85
2, 17568, Note_on_c, 0, 83, 0
2, 17568, Note_on_c, 0, 84, 101
2, 17584, Note_on_c, 0, 84, 0
2, 17584, Note_on_c, 0, 79, 85
2, 17599, Note_on_c, 0, 79, 0
2, 17600, Note_on_c, 0, 76, 85
2, 17615, Note_on_c, 0, 76, 0
2, 17616, Note_on_c, 0, 81, 85
2, 17631, Note_on_c, 0, 81, 0
2, 17632, Note_on_c, 0, 77, 85
2, 17647, Note_on_c, 0, 77, 0
2, 17648, Note_on_c, 0, 72, 85
2, 17663, Note_on_c, 0, 72, 0
2, 17664, Note_on_c, 0, 79, 85
2, 17684, Note_on_c, 0, 79, 0
2, 17712, Note_on_c, 0, 60, 85
2, 17724, Note_on_c, 0, 60, 0
2, 17724, Note_on_c, 0, 64, 85
2, 17730, Note_on_c, 0, 64, 0
2, 17730, Note_on_c, 0, 67, 85
2, 17736, Note_on_c, 0, 67, 0
2, 17736, Note_on_c, 0, 72, 85
2, 17742, Note_on_c, 0, 72, 0
2, 17742, Note_on_c, 0, 76, 85
2, 17748, Note_on_c, 0, 76, 0
2, 17748, Note_on_c, 0, 79, 85
2, 17754, Note_on_c, 0, 79, 0
2, 17754, Note_on_c, 0, 83, 85
2, 17760, Note_on_c, 0, 83, 0
2, 17760, Note_on_c, 0, 84, 101
2, 17776, Note_on_c, 0, 84, 0
2, 17776, Note_on_c, 0, 79, 85
2, 17791, Note_on_c, 0, 79, 0
2, 17792, Note_on_c, 0, 76, 85
2, 17807, Note_on_c, 0, 76, 0
2, 17808, Note_on_c, 0, 81, 85
2, 17823, Note_on_c, 0, 81, 0
2, 17824, Note_on_c, 0, 77, 85
2, 17839, Note_on_c, 0, 77, 0
2, 17840, Note_on_c, 0, 72, 85
2, 17855, Note_on_c, 0, 72, 0
2, 17856, Note_on_c, 0, 79, 85
2, 17876, Note_on_c, 0, 79, 0
2, 17904, Note_on_c, 0, 79, 85
2, 17910, Note_on_c, 0, 79, 0
2, 17910, Note_on_c, 0, 84, 85
2, 17916, Note_on_c, 0, 84, 0
2, 17916, Note_on_c, 0, 88, 85
2, 17950, Note_on_c, 0, 88, 0
2, 17952, Note_on_c, 0, 86, 85
2, 17964, Note_on_c, 0, 86, 0
2, 17964, Note_on_c, 0, 84, 84
2, 17998, Note_on_c, 0, 84, 0
2, 18000, Note_on_c, 0, 83, 83
2, 18012, Note_on_c, 0, 83, 0
2, 18012, Note_on_c, 0, 81, 83
2, 18046, Note_on_c, 0, 81, 0
2, 18048, Note_on_c, 0, 79, 82
2, 18096, Note_on_c, 0, 79, 0
2, 18096, Note_on_c, 0, 78, 81
2, 18141, Note_on_c, 0, 78, 0
2, 18144, Note_on_c, 0, 77, 79
2, 18233, Note_on_c, 0, 77, 0
2, 18240, Note_on_c, 0, 76, 77
2, 18285, Note_on_c, 0, 76, 0
2, 18288, Note_on_c, 0, 80, 80
2, 18300, Note_on_c, 0, 80, 0
2, 18300, Note_on_c, 0, 81, 81
2, 18334, Note_on_c, 0, 81, 0
2, 18336, Note_on_c, 0, 79, 84
2, 18348, Note_on_c, 0, 79, 0
2, 18348, Note_on_c, 0, 77, 85
2, 18382, Note_on_c, 0, 77, 0
2, 18384, Note_on_c, 0, 76, 85
2, 18396, Note_on_c, 0, 76, 0
2, 18396, Note_on_c, 0, 74, 85
2, 18430, Note_on_c, 0, 74, 0
2, 18432, Note_on_c, 0, 72, 85
2, 18565, Note_on_c, 0, 72, 0
2, 18576, Note_on_c, 0, 76, 79
2, 18582, Note_on_c, 0, 76, 0
2, 18582, Note_on_c, 0, 74, 79
2, 18621, Note_on_c, 0, 74, 0
2, 18624, Note_on_c, 0, 72, 77
2, 18644, Note_on_c, 0, 72, 0
2, 18672, Note_on_c, 0, 60, 85
2, 18684, Note_on_c, 0, 60, 0
2, 18684, Note_on_c, 0, 64, 85
2, 18690, Note_on_c, 0, 64, 0
2, 18690, Note_on_c, 0, 67, 85
2, 18696, Note_on_c, 0, 67, 0
2, 18696, Note_on_c, 0, 72, 85
2, 18702, Note_on_c, 0, 72, 0
2, 18702, Note_on_c, 0, 76, 85
2, 18708, Note_on_c, 0, 76, 0
2, 18708, Note_on_c, 0, 79, 85
2, 18714, Note_on_c, 0, 79, 0
2, 18714, Note_on_c, 0, 83, 85
2, 18720, Note_on_c, 0, 83, 0
2, 18720, Note_on_c, 0, 84, 101
2, 18736, Note_on_c, 0, 84, 0
2, 18736, Note_on_c, 0, 79, 85
2, 18751, Note_on_c, 0, 79, 0
2, 18752, Note_on_c, 0, 76, 85
2, 18767, Note_on_c, 0, 76, 0
2, 18768, Note_on_c, 0, 81, 85
2, 18783, Note_on_c, 0, 81, 0
2, 18784, Note_on_c, 0, 77, 85
2, 18799, Note_on_c, 0, 77, 0
2, 18800, Note_on_c, 0, 72, 85
2, 18815, Note_on_c, 0, 72, 0
2, 18816, Note_on_c, 0, 79, 85
2, 18836, Note_on_c, 0, 79, 0
2, 18864, Note_on_c, 0, 60, 85
2, 18876, Note_on_c, 0, 60, 0
2, 18876, Note_on_c, 0, 64, 85
2, 18882, Note_on_c, 0, 64, 0
2, 18882, Note_on_c, 0, 67, 85
2, 18888, Note_on_c, 0, 67, 0
2, 18888, Note_on_c, 0, 72, 85
2, 18894, Note_on_c, 0, 72, 0
2, 18894, Note_on_c, 0, 76, 85
2, 18900, Note_on_c, 0, 76, 0
2, 18900, Note_on_c, 0, 79, 85
2, 18906, Note_on_c, 0, 79, 0
2, 18906, Note_on_c, 0, 83, 85
2, 18912, Note_on_c, 0, 83, 0
2, 18912, Note_on_c, 0, 84, 101
2, 18928, Note_on_c, 0, 84, 0
2, 18928, Note_on_c, 0, 79, 85
2, 18943, Note_on_c, 0, 79, 0
2, 18944, Note_on_c, 0, 76, 85
2, 18959, Note_on_c, 0, 76, 0
2, 18960, Note_on_c, 0, 81, 85
2, 18975, Note_on_c, 0, 81, 0
2, 18976, Note_on_c, 0, 77, 85
2, 18991, Note_on_c, 0, 77, 0
2, 18992, Note_on_c, 0, 72, 85
2, 19007, Note_on_c, 0, 72, 0
2, 19008, Note_on_c, 0, 79, 85
2, 19028, Note_on_c, 0, 79, 0
2, 19056, Note_on_c, 0, 62, 85
2, 19068, Note_on_c, 0, 62, 0
2, 19068, Note_on_c, 0, 66, 85
2, 19074, Note_on_c, 0, 66, 0
2, 19074, Note_on_c, 0, 69, 85
2, 19080, Note_on_c, 0, 69, 0
2, 19080, Note_on_c, 0, 72, 85
2, 19086, Note_on_c, 0, 72, 0
2, 19086, Note_on_c, 0, 74, 85
2, 19092, Note_on_c, 0, 74, 0
2, 19092, Note_on_c, 0, 78, 85
2, 19098, Note_on_c, 0, 78, 0
2, 19098, Note_on_c, 0, 81, 85
2, 19104, Note_on_c, 0, 81, 0
2, 19104, Note_on_c, 0, 84, 101
2, 19124, Note_on_c, 0, 84, 0
2, 19152, Note_on_c, 0, 79, 85
2, 19160, Note_on_c, 0, 79, 0
2, 19160, Note_on_c, 0, 78, 85
2, 19168, Note_on_c, 0, 78, 0
2, 19168, Note_on_c, 0, 79, 85
2, 19176, Note_on_c, 0, 79, 0
2, 19176, Note_on_c, 0, 78, 85
2, 19184, Note_on_c, 0, 78, 0
2, 19184, Note_on_c, 0, 76, 85
2, 19192, Note_on_c, 0, 76, 0
2, 19192, Note_on_c, 0, 78, 85
2, 19200, Note_on_c, 0, 78, 0
2, 19200, Note_on_c, 0, 79, 85
2, 19200, Note_on_c, 0, 74, 85
2, 19200, Note_on_c, 0, 71, 85
2, 19245, Note_on_c, 0, 79, 0
2, 19245, Note_on_c, 0, 74, 0
2, 19245, Note_on_c, 0, 71, 0
2, 19248, Note_on_c, 0, 67, 85
2, 19256, Note_on_c, 0, 67, 0
2, 19256, Note_on_c, 0, 71, 85
2, 19264, Note_on_c, 0, 71, 0
2, 19264, Note_on_c, 0, 74, 85
2, 19272, Note_on_c, 0, 74, 0
2, 19272, Note_on_c, 0, 77, 85
2, 19280, Note_on_c, 0, 77, 0
2, 19280, Note_on_c, 0, 79, 85
2, 19288, Note_on_c, 0, 79, 0
2, 19288, Note_on_c, 0, 83, 85
2, 19296, Note_on_c, 0, 83, 0
2, 19296, Note_on_c, 0, 86, 101
2, 19316, Note_on_c, 0, 86, 0
2, 19344, Note_on_c, 0, 74, 85
2, 19344, Note_on_c, 0, 71, 85
2, 19389, Note_on_c, 0, 74, 0
2, 19389, Note_on_c, 0, 71, 0
2, 19392, Note_on_c, 0, 76, 85
2, 19392, Note_on_c, 0, 72, 85
2, 19437, Note_on_c, 0, 76, 0
2, 19437, Note_on_c, 0, 72, 0
2, 19440, Note_on_c, 0, 65, 85
2, 19448, Note_on_c, 0, 65, 0
2, 19448, Note_on_c, 0, 69, 85
2, 19456, Note_on_c, 0, 69, 0
2, 19456, Note_on_c, 0, 73, 85
2, 19464, Note_on_c, 0, 73, 0
2, 19464, Note_on_c, 0, 74, 85
2, 19472, Note_on_c, 0, 74, 0
2, 19472, Note_on_c, 0, 76, 85
2, 19480, Note_on_c, 0, 76, 0
2, 19480, Note_on_c, 0, 77, 85
2, 19488, Note_on_c, 0, 77, 0
2, 19488, Note_on_c, 0, 81, 101
2, 19508, Note_on_c, 0, 81, 0
2, 19536, Note_on_c, 0, 69, 85
2, 19536, Note_on_c, 0, 66, 85
2, 19581, Note_on_c, 0, 69, 0
2, 19581, Note_on_c, 0, 66, 0
2, 19584, Note_on_c, 0, 71, 85
2, 19604, Note_on_c, 0, 71, 0
2, 19632, Note_on_c, 0, 67, 60
2, 19652, Note_on_c, 0, 67, 0
2, 19680, Note_on_c, 0, 67, 61
2, 19700, Note_on_c, 0, 67, 0
2, 19728, Note_on_c, 0, 67, 62
2, 19748, Note_on_c, 0, 67, 0
2, 19776, Note_on_c, 0, 67, 63
2, 19796, Note_on_c, 0, 67, 0
2, 19824, Note_on_c, 0, 67, 65
2, 19844, Note_on_c, 0, 67, 0
2, 19872, Note_on_c, 0, 67, 66
2, 19892, Note_on_c, 0, 67, 0
2, 19920, Note_on_c, 0, 67, 67
2, 19940, Note_on_c, 0, 67, 0
2, 20016, Note_on_c, 0, 67, 70
2, 20036, Note_on_c, 0, 67, 0
2, 20112, Note_on_c, 0, 67, 72
2, 20132, Note_on_c, 0, 67, 0
2, 20208, Note_on_c, 0, 67, 75
2, 20228, Note_on_c, 0, 67, 0
2, 20304, Note_on_c, 0, 67, 77
2, 20324, Note_on_c, 0, 67, 0
2, 20376, Note_on_c, 0, 67, 79
2, 20386, Note_on_c, 0, 67, 0
2, 20424, Note_on_c, 0, 67, 81
2, 20434, Note_on_c, 0, 67, 0
2, 20472, Note_on_c, 0, 67, 82
2, 20482, Note_on_c, 0, 67, 0
2, 20520, Note_on_c, 0, 67, 83
2, 20530, Note_on_c, 0, 67, 0
2, 20568, Note_on_c, 0, 67, 85
2, 20578, Note_on_c, 0, 67, 0
2, 20616, Note_on_c, 0, 67, 85
2, 20626, Note_on_c, 0, 67, 0
2, 20664, Note_on_c, 0, 67, 85
2, 20674, Note_on_c, 0, 67, 0
2, 20712, Note_on_c, 0, 67, 85
2, 20722, Note_on_c, 0, 67, 0
2, 20752, Note_on_c, 0, 71, 85
2, 20768, Note_on_c, 0, 71, 0
2, 20768, Note_on_c, 0, 72, 85
2, 20783, Note_on_c, 0, 72, 0
2, 20784, Note_on_c, 0, 74, 85
2, 20799, Note_on_c, 0, 74, 0
2, 20800, Note_on_c, 0, 72, 85
2, 20815, Note_on_c, 0, 72, 0
2, 20816, Note_on_c, 0, 71, 85
2, 20831, Note_on_c, 0, 71, 0
2, 20832, Note_on_c, 0, 77, 85
2, 20847, Note_on_c, 0, 77, 0
2, 20848, Note_on_c, 0, 75, 85
2, 20863, Note_on_c, 0, 75, 0
2, 20864, Note_on_c, 0, 74, 85
2, 20879, Note_on_c, 0, 74, 0
2, 20880, Note_on_c, 0, 80, 85
2, 20895, Note_on_c, 0, 80, 0
2, 20896, Note_on_c, 0, 79, 85
2, 20911, Note_on_c, 0, 79, 0
2, 20912, Note_on_c, 0, 77, 85
2, 20927, Note_on_c, 0, 77, 0
2, 20928, Note_on_c, 0, 86, 85
2, 20948, Note_on_c, 0, 86, 0
2, 20976, Note_on_c, 0, 77, 83
2, 20996, Note_on_c, 0, 77, 0
2, 21024, Note_on_c, 0, 80, 81
2, 21044, Note_on_c, 0, 80, 0
2, 21072, Note_on_c, 0, 71, 79
2, 21092, Note_on_c, 0, 71, 0
2, 21120, Note_on_c, 0, 74, 77
2, 21143, Note_on_c, 0, 74, 0
2, 21144, Note_on_c, 0, 72, 79
2, 21167, Note_on_c, 0, 72, 0
2, 21168, Note_on_c, 0, 78, 81
2, 21191, Note_on_c, 0, 78, 0
2, 21192, Note_on_c, 0, 79, 83
2, 21215, Note_on_c, 0, 79, 0
2, 21216, Note_on_c, 0, 77, 85
2, 21239, Note_on_c, 0, 77, 0
2, 21240, Note_on_c, 0, 76, 83
2, 21263, Note_on_c, 0, 76, 0
2, 21264, Note_on_c, 0, 74, 81
2, 21287, Note_on_c, 0, 74, 0
2, 21288, Note_on_c, 0, 72, 79
2, 21311, Note_on_c, 0, 72, 0
2, 21312, Note_on_c, 0, 73, 77
2, 21335, Note_on_c, 0, 73, 0
2, 21336, Note_on_c, 0, 74, 79
2, 21359, Note_on_c, 0, 74, 0
2, 21360, Note_on_c, 0, 77, 82
2, 21383, Note_on_c, 0, 77, 0
2, 21384, Note_on_c, 0, 74, 85
2, 21407, Note_on_c, 0, 74, 0
2, 21408, Note_on_c, 0, 69, 83
2, 21453, Note_on_c, 0, 69, 0
2, 21456, Note_on_c, 0, 71, 80
2, 21501, Note_on_c, 0, 71, 0
2, 21504, Note_on_c, 0, 74, 77
2, 21527, Note_on_c, 0, 74, 0
2, 21528, Note_on_c, 0, 72, 79
2, 21551, Note_on_c, 0, 72, 0
2, 21552, Note_on_c, 0, 78, 82
2, 21575, Note_on_c, 0, 78, 0
2, 21576, Note_on_c, 0, 79, 85
2, 21599, Note_on_c, 0, 79, 0
2, 21600, Note_on_c, 0, 77, 83
2, 21623, Note_on_c, 0, 77, 0
2, 21624, Note_on_c, 0, 76, 81
2, 21647, Note_on_c, 0, 76, 0
2, 21648, Note_on_c, 0, 74, 80
2, 21671, Note_on_c, 0, 74, 0
2, 21672, Note_on_c, 0, 72, 78
2, 21695, Note_on_c, 0, 72, 0
2, 21696, Note_on_c, 0, 73, 77
2, 21719, Note_on_c, 0, 73, 0
2, 21720, Note_on_c, 0, 74, 79
2, 21743, Note_on_c, 0, 74, 0
2, 21744, Note_on_c, 0, 77, 82
2, 21767, Note_on_c, 0, 77, 0
2, 21768, Note_on_c, 0, 74, 85
2, 21791, Note_on_c, 0, 74, 0
2, 21792, Note_on_c, 0, 69, 83
2, 21840, Note_on_c, 0, 69, 0
2, 21840, Note_on_c, 0, 71, 80
2, 21885, Note_on_c, 0, 71, 0
2, 21888, Note_on_c, 0, 74, 77
2, 21900, Note_on_c, 0, 74, 0
2, 21900, Note_on_c, 0, 72, 77
2, 21912, Note_on_c, 0, 72, 0
2, 21912, Note_on_c, 0, 71, 77
2, 21924, Note_on_c, 0, 71, 0
2, 21924, Note_on_c, 0, 72, 77
2, 22007, Note_on_c, 0, 72, 0
2, 22008, Note_on_c, 0, 76, 77
2, 22031, Note_on_c, 0, 76, 0
2, 22032, Note_on_c, 0, 74, 77
2, 22055, Note_on_c, 0, 74, 0
2, 22056, Note_on_c, 0, 71, 77
2, 22079, Note_on_c, 0, 71, 0
2, 22080, Note_on_c, 0, 72, 77
2, 22103, Note_on_c, 0, 72, 0
2, 22104, Note_on_c, 0, 76, 77
2, 22127, Note_on_c, 0, 76, 0
2, 22128, Note_on_c, 0, 74, 77
2, 22151, Note_on_c, 0, 74, 0
2, 22152, Note_on_c, 0, 71, 77
2, 22175, Note_on_c, 0, 71, 0
2, 22176, Note_on_c, 0, 72, 77
2, 22199, Note_on_c, 0, 72, 0
2, 22200, Note_on_c, 0, 76, 77
2, 22223, Note_on_c, 0, 76, 0
2, 22224, Note_on_c, 0, 74, 77
2, 22247, Note_on_c, 0, 74, 0
2, 22248, Note_on_c, 0, 71, 77
2, 22271, Note_on_c, 0, 71, 0
2, 22272, Note_on_c, 0, 74, 77
2, 22284, Note_on_c, 0, 74, 0
2, 22284, Note_on_c, 0, 72, 77
2, 22296, Note_on_c, 0, 72, 0
2, 22296, Note_on_c, 0, 71, 77
2, 22308, Note_on_c, 0, 71, 0
2, 22308, Note_on_c, 0, 72, 77
2, 22383, Note_on_c, 0, 72, 0
2, 22384, Note_on_c, 0, 74, 77
2, 22399, Note_on_c, 0, 74, 0
2, 22400, Note_on_c, 0, 76, 77
2, 22415, Note_on_c, 0, 76, 0
2, 22416, Note_on_c, 0, 74, 77
2, 22431, Note_on_c, 0, 74, 0
2, 22432, Note_on_c, 0, 72, 77
2, 22447, Note_on_c, 0, 72, 0
2, 22448, Note_on_c, 0, 71, 77
2, 22463, Note_on_c, 0, 71, 0
2, 22464, Note_on_c, 0, 72, 77
2, 22479, Note_on_c, 0, 72, 0
2, 22480, Note_on_c, 0, 74, 77
2, 22495, Note_on_c, 0, 74, 0
2, 22496, Note_on_c, 0, 76, 77
2, 22511, Note_on_c, 0, 76, 0
2, 22512, Note_on_c, 0, 74, 77
2, 22527, Note_on_c, 0, 74, 0
2, 22528, Note_on_c, 0, 72, 77
2, 22543, Note_on_c, 0, 72, 0
2, 22544, Note_on_c, 0, 71, 77
2, 22559, Note_on_c, 0, 71, 0
2, 22560, Note_on_c, 0, 72, 77
2, 22575, Note_on_c, 0, 72, 0
2, 22576, Note_on_c, 0, 74, 77
2, 22591, Note_on_c, 0, 74, 0
2, 22592, Note_on_c, 0, 76, 77
2, 22607, Note_on_c, 0, 76, 0
2, 22608, Note_on_c, 0, 74, 77
2, 22623, Note_on_c, 0, 74, 0
2, 22624, Note_on_c, 0, 72, 77
2, 22639, Note_on_c, 0, 72, 0
2, 22640, Note_on_c, 0, 71, 77
2, 22655, Note_on_c, 0, 71, 0
2, 22656, Note_on_c, 0, 72, 77
2, 22701, Note_on_c, 0, 72, 0
2, 22704, Note_on_c, 0, 84, 77
2, 22775, Note_on_c, 0, 84, 0
2, 22776, Note_on_c, 0, 83, 77
2, 22799, Note_on_c, 0, 83, 0
2, 22800, Note_on_c, 0, 82, 77
2, 22823, Note_on_c, 0, 82, 0
2, 22824, Note_on_c, 0, 81, 77
2, 22847, Note_on_c, 0, 81, 0
2, 22848, Note_on_c, 0, 80, 77
2, 22871, Note_on_c, 0, 80, 0
2, 22872, Note_on_c, 0, 81, 77
2, 22895, Note_on_c, 0, 81, 0
2, 22896, Note_on_c, 0, 79, 77
2, 22919, Note_on_c, 0, 79, 0
2, 22920, Note_on_c, 0, 77, 77
2, 22943, Note_on_c, 0, 77, 0
2, 22944, Note_on_c, 0, 76, 77
2, 22967, Note_on_c, 0, 76, 0
2, 22968, Note_on_c, 0, 74, 77
2, 22991, Note_on_c, 0, 74, 0
2, 22992, Note_on_c, 0, 77, 77
2, 23015, Note_on_c, 0, 77, 0
2, 23016, Note_on_c, 0, 74, 77
2, 23039, Note_on_c, 0, 74, 0
2, 23040, Note_on_c, 0, 72, 77
2, 23173, Note_on_c, 0, 72, 0
2, 23184, Note_on_c, 0, 76, 77
2, 23196, Note_on_c, 0, 76, 0
2, 23196, Note_on_c, 0, 74, 77
2, 23229, Note_on_c, 0, 74, 0
2, 23232, Note_on_c, 0, 72, 77
2, 23252, Note_on_c, 0, 72, 0
2, 23280, Note_on_c, 0, 67, 77
2, 23295, Note_on_c, 0, 67, 0
2, 23296, Note_on_c, 0, 72, 77
2, 23311, Note_on_c, 0, 72, 0
2, 23312, Note_on_c, 0, 76, 77
2, 23327, Note_on_c, 0, 76, 0
2, 23328, Note_on_c, 0, 79, 77
2, 23343, Note_on_c, 0, 79, 0
2, 23344, Note_on_c, 0, 76, 77
2, 23359, Note_on_c, 0, 76, 0
2, 23360, Note_on_c, 0, 72, 77
2, 23375, Note_on_c, 0, 72, 0
2, 23376, Note_on_c, 0, 77, 77
2, 23391, Note_on_c, 0, 77, 0
2, 23392, Note_on_c, 0, 74, 77
2, 23407, Note_on_c, 0, 74, 0
2, 23408, Note_on_c, 0, 71, 77
2, 23423, Note_on_c, 0, 71, 0
2, 23424, Note_on_c, 0, 72, 77
2, 23444, Note_on_c, 0, 72, 0
2, 23472, Note_on_c, 0, 55, 77
2, 23487, Note_on_c, 0, 55, 0
2, 23488, Note_on_c, 0, 60, 77
2, 23503, Note_on_c, 0, 60, 0
2, 23504, Note_on_c, 0, 64, 77
2, 23519, Note_on_c, 0, 64, 0
2, 23520, Note_on_c, 0, 67, 77
2, 23535, Note_on_c, 0, 67, 0
2, 23536, Note_on_c, 0, 64, 77
2, 23551, Note_on_c, 0, 64, 0
2, 23552, Note_on_c, 0, 60, 77
2, 23567, Note_on_c, 0, 60, 0
2, 23568, Note_on_c, 0, 65, 77
2, 23583, Note_on_c, 0, 65, 0
2, 23584, Note_on_c, 0, 62, 77
2, 23599, Note_on_c, 0, 62, 0
2, 23600, Note_on_c, 0, 59, 77
2, 23615, Note_on_c, 0, 59, 0
2, 23616, Note_on_c, 0, 60, 77
2, 23661, Note_on_c, 0, 60, 0
2, 23808, Note_on_c, 0, 72, 85
2, 23814, Note_on_c, 0, 75, 85
2, 23820, Note_on_c, 0, 79, 85
2, 23826, Note_on_c, 0, 84, 85
2, 23853, Note_on_c, 0, 84, 0
2, 23853, Note_on_c, 0, 79, 0
2, 23853, Note_on_c, 0, 75, 0
2, 23853, Note_on_c, 0, 72, 0
2, 23904, Note_on_c, 0, 67, 85
2, 23904, Note_on_c, 0, 63, 85
2, 23924, Note_on_c, 0, 67, 0
2, 23924, Note_on_c, 0, 63, 0
2, 23976, Note_on_c, 0, 67, 85
2, 23976, Note_on_c, 0, 63, 85
2, 23986, Note_on_c, 0, 67, 0
2, 23986, Note_on_c, 0, 63, 0
2, 24000, Note_on_c, 0, 67, 85
2, 24000, Note_on_c, 0, 63, 85
2, 24045, Note_on_c, 0, 67, 0
2, 24045, Note_on_c, 0, 63, 0
2, 24192, Note_on_c, 0, 72, 85
2, 24198, Note_on_c, 0, 75, 85
2, 24204, Note_on_c, 0, 80, 85
2, 24210, Note_on_c, 0, 84, 85
2, 24237, Note_on_c, 0, 84, 0
2, 24237, Note_on_c, 0, 80, 0
2, 24237, Note_on_c, 0, 75, 0
2, 24237, Note_on_c, 0, 72, 0
2, 24288, Note_on_c, 0, 68, 85
2, 24288, Note_on_c, 0, 63, 85
2, 24308, Note_on_c, 0, 68, 0
2, 24308, Note_on_c, 0, 63, 0
2, 24360, Note_on_c, 0, 68, 85
2, 24360, Note_on_c, 0, 63, 85
2, 24370, Note_on_c, 0, 68, 0
2, 24370, Note_on_c, 0, 63, 0
2, 24384, Note_on_c, 0, 68, 85
2, 24384, Note_on_c, 0, 63, 85
2, 24429, Note_on_c, 0, 68, 0
2, 24429, Note_on_c, 0, 63, 0
2, 24576, Note_on_c, 0, 78, 85
2, 24582, Note_on_c, 0, 81, 85
2, 24588, Note_on_c, 0, 84, 85
2, 24594, Note_on_c, 0, 87, 85
2, 24621, Note_on_c, 0, 87, 0
2, 24621, Note_on_c, 0, 84, 0
2, 24621, Note_on_c, 0, 81, 0
2, 24621, Note_on_c, 0, 78, 0
2, 24672, Note_on_c, 0, 78, 85
2, 24672, Note_on_c, 0, 75, 85
2, 24692, Note_on_c, 0, 78, 0
2, 24692, Note_on_c, 0, 75, 0
2, 24744, Note_on_c, 0, 78, 85
2, 24744, Note_on_c, 0, 75, 85
2, 24754, Note_on_c, 0, 78, 0
2, 24754, Note_on_c, 0, 75, 0
2, 24768, Note_on_c, 0, 78, 85
2, 24768, Note_on_c, 0, 75, 85
2, 24813, Note_on_c, 0, 78, 0
2, 24813, Note_on_c, 0, 75, 0
2, 24960, Note_on_c, 0, 62, 77
2, 25093, Note_on_c, 0, 62, 0
2, 25104, Note_on_c, 0, 65, 77
2, 25116, Note_on_c, 0, 65, 0
2, 25116, Note_on_c, 0, 63, 77
2, 25149, Note_on_c, 0, 63, 0
2, 25152, Note_on_c, 0, 62, 77
2, 25197, Note_on_c, 0, 62, 0
2, 25200, Note_on_c, 0, 67, 77
2, 25220, Note_on_c, 0, 67, 0
2, 25248, Note_on_c, 0, 58, 77
2, 25293, Note_on_c, 0, 58, 0
2, 25296, Note_on_c, 0, 62, 77
2, 25308, Note_on_c, 0, 62, 0
2, 25308, Note_on_c, 0, 60, 77
2, 25341, Note_on_c, 0, 60, 0
2, 25344, Note_on_c, 0, 58, 77
2, 25389, Note_on_c, 0, 58, 0
2, 25392, Note_on_c, 0, 62, 77
2, 25437, Note_on_c, 0, 62, 0
2, 25464, Note_on_c, 0, 58, 77
2, 25487, Note_on_c, 0, 58, 0
2, 25488, Note_on_c, 0, 62, 77
2, 25511, Note_on_c, 0, 62, 0
2, 25512, Note_on_c, 0, 67, 77
2, 25535, Note_on_c, 0, 67, 0
2, 25536, Note_on_c, 0, 70, 77
2, 25559, Note_on_c, 0, 70, 0
2, 25560, Note_on_c, 0, 67, 77
2, 25583, Note_on_c, 0, 67, 0
2, 25584, Note_on_c, 0, 70, 78
2, 25607, Note_on_c, 0, 70, 0
2, 25608, Note_on_c, 0, 74, 79
2, 25631, Note_on_c, 0, 74, 0
2, 25632, Note_on_c, 0, 79, 80
2, 25655, Note_on_c, 0, 79, 0
2, 25656, Note_on_c, 0, 74, 81
2, 25679, Note_on_c, 0, 74, 0
2, 25680, Note_on_c, 0, 70, 82
2, 25703, Note_on_c, 0, 70, 0
2, 25704, Note_on_c, 0, 67, 83
2, 25727, Note_on_c, 0, 67, 0
2, 25728, Note_on_c, 0, 69, 85
2, 25737, Note_on_c, 0, 73, 85
2, 25746, Note_on_c, 0, 76, 85
2, 25755, Note_on_c, 0, 81, 85
2, 25795, Note_on_c, 0, 81, 0
2, 25795, Note_on_c, 0, 76, 0
2, 25795, Note_on_c, 0, 73, 0
2, 25795, Note_on_c, 0, 69, 0
2, 25824, Note_on_c, 0, 64, 85
2, 25824, Note_on_c, 0, 61, 85
2, 25844, Note_on_c, 0, 64, 0
2, 25844, Note_on_c, 0, 61, 0
2, 25896, Note_on_c, 0, 64, 85
2, 25896, Note_on_c, 0, 61, 85
2, 25906, Note_on_c, 0, 64, 0
2, 25906, Note_on_c, 0, 61, 0
2, 25920, Note_on_c, 0, 64, 85
2, 25920, Note_on_c, 0, 61, 85
2, 25965, Note_on_c, 0, 64, 0
2, 25965, Note_on_c, 0, 61, 0
2, 26112, Note_on_c, 0, 74, 68
2, 26245, Note_on_c, 0, 74, 0
2, 26256, Note_on_c, 0, 77, 68
2, 26268, Note_on_c, 0, 77, 0
2, 26268, Note_on_c, 0, 76, 68
2, 26301, Note_on_c, 0, 76, 0
2, 26304, Note_on_c, 0, 74, 68
2, 26349, Note_on_c, 0, 74, 0
2, 26352, Note_on_c, 0, 81, 68
2, 26397, Note_on_c, 0, 81, 0
2, 26400, Note_on_c, 0, 74, 68
2, 26445, Note_on_c, 0, 74, 0
2, 26448, Note_on_c, 0, 77, 68
2, 26460, Note_on_c, 0, 77, 0
2, 26460, Note_on_c, 0, 75, 68
2, 26493, Note_on_c, 0, 75, 0
2, 26496, Note_on_c, 0, 74, 68
2, 26541, Note_on_c, 0, 74, 0
2, 26544, Note_on_c, 0, 81, 68
2, 26589, Note_on_c, 0, 81, 0
2, 26592, Note_on_c, 0, 74, 68
2, 26637, Note_on_c, 0, 74, 0
2, 26640, Note_on_c, 0, 77, 68
2, 26652, Note_on_c, 0, 77, 0
2, 26652, Note_on_c, 0, 76, 68
2, 26685, Note_on_c, 0, 76, 0
2, 26688, Note_on_c, 0, 74, 68
2, 26733, Note_on_c, 0, 74, 0
2, 26736, Note_on_c, 0, 77, 69
2, 26742, Note_on_c, 0, 77, 0
2, 26742, Note_on_c, 0, 75, 69
2, 26781, Note_on_c, 0, 75, 0
2, 26784, Note_on_c, 0, 74, 71
2, 26829, Note_on_c, 0, 74, 0
2, 26832, Note_on_c, 0, 77, 73
2, 26844, Note_on_c, 0, 77, 0
2, 26844, Note_on_c, 0, 76, 73
2, 26877, Note_on_c, 0, 76, 0
2, 26880, Note_on_c, 0, 74, 75
2, 26925, Note_on_c, 0, 74, 0
2, 26928, Note_on_c, 0, 77, 77
2, 26934, Note_on_c, 0, 77, 0
2, 26934, Note_on_c, 0, 75, 77
2, 26973, Note_on_c, 0, 75, 0
2, 26976, Note_on_c, 0, 74, 77
2, 27021, Note_on_c, 0, 74, 0
2, 27024, Note_on_c, 0, 81, 77
2, 27047, Note_on_c, 0, 81, 0
2, 27048, Note_on_c, 0, 79, 77
2, 27071, Note_on_c, 0, 79, 0
2, 27072, Note_on_c, 0, 78, 77
2, 27095, Note_on_c, 0, 78, 0
2, 27096, Note_on_c, 0, 75, 77
2, 27119, Note_on_c, 0, 75, 0
2, 27120, Note_on_c, 0, 74, 77
2, 27143, Note_on_c, 0, 74, 0
2, 27144, Note_on_c, 0, 75, 77
2, 27167, Note_on_c, 0, 75, 0
2, 27168, Note_on_c, 0, 74, 77
2, 27191, Note_on_c, 0, 74, 0
2, 27192, Note_on_c, 0, 72, 77
2, 27215, Note_on_c, 0, 72, 0
2, 27216, Note_on_c, 0, 70, 77
2, 27239, Note_on_c, 0, 70, 0
2, 27240, Note_on_c, 0, 69, 77
2, 27263, Note_on_c, 0, 69, 0
2, 27264, Note_on_c, 0, 67, 77
2, 27397, Note_on_c, 0, 67, 0
2, 27408, Note_on_c, 0, 70, 77
2, 27420, Note_on_c, 0, 70, 0
2, 27420, Note_on_c, 0, 69, 77
2, 27453, Note_on_c, 0, 69, 0
2, 27456, Note_on_c, 0, 67, 77
2, 27501, Note_on_c, 0, 67, 0
2, 27504, Note_on_c, 0, 74, 77
2, 27549, Note_on_c, 0, 74, 0
2, 27552, Note_on_c, 0, 67, 77
2, 27597, Note_on_c, 0, 67, 0
2, 27600, Note_on_c, 0, 70, 77
2, 27612, Note_on_c, 0, 70, 0
2, 27612, Note_on_c, 0, 68, 77
2, 27645, Note_on_c, 0, 68, 0
2, 27648, Note_on_c, 0, 67, 77
2, 27693, Note_on_c, 0, 67, 0
2, 27696, Note_on_c, 0, 74, 77
2, 27741, Note_on_c, 0, 74, 0
2, 27744, Note_on_c, 0, 67, 78
2, 27789, Note_on_c, 0, 67, 0
2, 27792, Note_on_c, 0, 70, 79
2, 27804, Note_on_c, 0, 70, 0
2, 27804, Note_on_c, 0, 69, 79
2, 27837, Note_on_c, 0, 69, 0
2, 27840, Note_on_c, 0, 67, 80
2, 27885, Note_on_c, 0, 67, 0
2, 27888, Note_on_c, 0, 70, 81
2, 27900, Note_on_c, 0, 70, 0
2, 27900, Note_on_c, 0, 68, 81
2, 27933, Note_on_c, 0, 68, 0
2, 27936, Note_on_c, 0, 67, 82
2, 27981, Note_on_c, 0, 67, 0
2, 27984, Note_on_c, 0, 70, 83
2, 27996, Note_on_c, 0, 70, 0
2, 27996, Note_on_c, 0, 69, 83
2, 28029, Note_on_c, 0, 69, 0
2, 28032, Note_on_c, 0, 67, 84
2, 28077, Note_on_c, 0, 67, 0
2, 28080, Note_on_c, 0, 70, 85
2, 28092, Note_on_c, 0, 70, 0
2, 28092, Note_on_c, 0, 68, 85
2, 28125, Note_on_c, 0, 68, 0
2, 28128, Note_on_c, 0, 67, 85
2, 28173, Note_on_c, 0, 67, 0
2, 28176, Note_on_c, 0, 77, 85
2, 28199, Note_on_c, 0, 77, 0
2, 28200, Note_on_c, 0, 75, 84
2, 28223, Note_on_c, 0, 75, 0
2, 28224, Note_on_c, 0, 74, 83
2, 28247, Note_on_c, 0, 74, 0
2, 28248, Note_on_c, 0, 72, 82
2, 28271, Note_on_c, 0, 72, 0
2, 28272, Note_on_c, 0, 71, 81
2, 28295, Note_on_c, 0, 71, 0
2, 28296, Note_on_c, 0, 68, 81
2, 28319, Note_on_c, 0, 68, 0
2, 28320, Note_on_c, 0, 67, 80
2, 28343, Note_on_c, 0, 67, 0
2, 28344, Note_on_c, 0, 65, 79
2, 28367, Note_on_c, 0, 65, 0
2, 28368, Note_on_c, 0, 63, 78
2, 28391, Note_on_c, 0, 63, 0
2, 28392, Note_on_c, 0, 62, 77
2, 28415, Note_on_c, 0, 62, 0
2, 28440, Control_c, 0, 64, 127
2, 28440, Note_on_c, 0, 67, 77
2, 28463, Note_on_c, 0, 67, 0
2, 28464, Note_on_c, 0, 72, 78
2, 28487, Note_on_c, 0, 72, 0
2, 28488, Note_on_c, 0, 75, 79
2, 28511, Note_on_c, 0, 75, 0
2, 28512, Note_on_c, 0, 79, 80
2, 28535, Note_on_c, 0, 79, 0
2, 28536, Note_on_c, 0, 72, 81
2, 28559, Note_on_c, 0, 72, 0
2, 28560, Note_on_c, 0, 75, 82
2, 28583, Note_on_c, 0, 75, 0
2, 28584, Note_on_c, 0, 79, 83
2, 28607, Note_on_c, 0, 79, 0
2, 28608, Note_on_c, 0, 84, 85
2, 28631, Note_on_c, 0, 84, 0
2, 28632, Note_on_c, 0, 79, 84
2, 28655, Note_on_c, 0, 79, 0
2, 28656, Note_on_c, 0, 75, 83
2, 28679, Note_on_c, 0, 75, 0
2, 28680, Note_on_c, 0, 72, 82
2, 28703, Note_on_c, 0, 72, 0
2, 28704, Note_on_c, 0, 79, 81
2, 28727, Note_on_c, 0, 79, 0
2, 28728, Note_on_c, 0, 75, 80
2, 28751, Note_on_c, 0, 75, 0
2, 28752, Note_on_c, 0, 72, 79
2, 28775, Note_on_c, 0, 72, 0
2, 28776, Note_on_c, 0, 67, 78
2, 28799, Note_on_c, 0, 67, 0
2, 28800, Control_c, 0, 64, 0
2, 28824, Control_c, 0, 64, 127
2, 28824, Note_on_c, 0, 67, 77
2, 28847, Note_on_c, 0, 67, 0
2, 28848, Note_on_c, 0, 72, 78
2, 28871, Note_on_c, 0, 72, 0
2, 28872, Note_on_c, 0, 76, 79
2, 28895, Note_on_c, 0, 76, 0
2, 28896, Note_on_c, 0, 79, 80
2, 28919, Note_on_c, 0, 79, 0
2, 28920, Note_on_c, 0, 72, 81
2, 28943, Note_on_c, 0, 72, 0
2, 28944, Note_on_c, 0, 76, 82
2, 28967, Note_on_c, 0, 76, 0
2, 28968, Note_on_c, 0, 79, 83
2, 28991, Note_on_c, 0, 79, 0
2, 28992, Note_on_c, 0, 84, 85
2, 29015, Note_on_c, 0, 84, 0
2, 29016, Note_on_c, 0, 79, 84
2, 29039, Note_on_c, 0, 79, 0
2, 29040, Note_on_c, 0, 76, 83
2, 29063, Note_on_c, 0, 76, 0
2, 29064, Note_on_c, 0, 72, 82
2, 29087, Note_on_c, 0, 72, 0
2, 29088, Note_on_c, 0, 79, 81
2, 29111, Note_on_c, 0, 79, 0
2, 29112, Note_on_c, 0, 76, 80
2, 29135, Note_on_c, 0, 76, 0
2, 29136, Note_on_c, 0, 72, 79
2, 29159, Note_on_c, 0, 72, 0
2, 29160, Note_on_c, 0, 67, 78
2, 29183, Note_on_c, 0, 67, 0
2, 29184, Control_c, 0, 64, 0
2, 29208, Control_c, 0, 64, 127
2, 29208, Note_on_c, 0, 67, 77
2, 29231, Note_on_c, 0, 67, 0
2, 29232, Note_on_c, 0, 73, 78
2, 29255, Note_on_c, 0, 73, 0
2, 29256, Note_on_c, 0, 76, 79
2, 29279, Note_on_c, 0, 76, 0
2, 29280, Note_on_c, 0, 79, 80
2, 29303, Note_on_c, 0, 79, 0
2, 29304, Note_on_c, 0, 76, 81
2, 29327, Note_on_c, 0, 76, 0
2, 29328, Note_on_c, 0, 79, 82
2, 29351, Note_on_c, 0, 79, 0
2, 29352, Note_on_c, 0, 85, 83
2, 29375, Note_on_c, 0, 85, 0
2, 29376, Note_on_c, 0, 88, 85
2, 29399, Note_on_c, 0, 88, 0
2, 29400, Note_on_c, 0, 85, 84
2, 29423, Note_on_c, 0, 85, 0
2, 29424, Note_on_c, 0, 79, 83
2, 29447, Note_on_c, 0, 79, 0
2, 29448, Note_on_c, 0, 76, 82
2, 29471, Note_on_c, 0, 76, 0
2, 29472, Note_on_c, 0, 79, 81
2, 29495, Note_on_c, 0, 79, 0
2, 29496, Note_on_c, 0, 76, 80
2, 29519, Note_on_c, 0, 76, 0
2, 29520, Note_on_c, 0, 73, 79
2, 29543, Note_on_c, 0, 73, 0
2, 29544, Note_on_c, 0, 67, 78
2, 29567, Note_on_c, 0, 67, 0
2, 29568, Control_c, 0, 64, 0
2, 29592, Control_c, 0, 64, 127
2, 29592, Note_on_c, 0, 69, 77
2, 29615, Note_on_c, 0, 69, 0
2, 29616, Note_on_c, 0, 74, 78
2, 29639, Note_on_c, 0, 74, 0
2, 29640, Note_on_c, 0, 77, 79
2, 29663, Note_on_c, 0, 77, 0
2, 29664, Note_on_c, 0, 81, 80
2, 29687, Note_on_c, 0, 81, 0
2, 29688, Note_on_c, 0, 74, 81
2, 29711, Note_on_c, 0, 74, 0
2, 29712, Note_on_c, 0, 77, 82
2, 29735, Note_on_c, 0, 77, 0
2, 29736, Note_on_c, 0, 81, 83
2, 29759, Note_on_c, 0, 81, 0
2, 29760, Note_on_c, 0, 86, 85
2, 29783, Note_on_c, 0, 86, 0
2, 29784, Note_on_c, 0, 81, 84
2, 29807, Note_on_c, 0, 81, 0
2, 29808, Note_on_c, 0, 77, 83
2, 29831, Note_on_c, 0, 77, 0
2, 29832, Note_on_c, 0, 74, 82
2, 29855, Note_on_c, 0, 74, 0
2, 29856, Note_on_c, 0, 81, 81
2, 29879, Note_on_c, 0, 81, 0
2, 29880, Note_on_c, 0, 77, 80
2, 29903, Note_on_c, 0, 77, 0
2, 29904, Note_on_c, 0, 74, 79
2, 29927, Note_on_c, 0, 74, 0
2, 29928, Note_on_c, 0, 69, 78
2, 29951, Note_on_c, 0, 69, 0
2, 29952, Control_c, 0, 64, 0
2, 29976, Control_c, 0, 64, 127
2, 29976, Note_on_c, 0, 69, 77
2, 29999, Note_on_c, 0, 69, 0
2, 30000, Note_on_c, 0, 73, 78
2, 30023, Note_on_c, 0, 73, 0
2, 30024, Note_on_c, 0, 76, 79
2, 30047, Note_on_c, 0, 76, 0
2, 30048, Note_on_c, 0, 81, 80
2, 30071, Note_on_c, 0, 81, 0
2, 30072, Note_on_c, 0, 76, 81
2, 30095, Note_on_c, 0, 76, 0
2, 30096, Note_on_c, 0, 73, 82
2, 30119, Note_on_c, 0, 73, 0
2, 30120, Note_on_c, 0, 69, 83
2, 30143, Note_on_c, 0, 69, 0
2, 30144, Note_on_c, 0, 76, 85
2, 30167, Note_on_c, 0, 76, 0
2, 30168, Note_on_c, 0, 73, 84
2, 30191, Note_on_c, 0, 73, 0
2, 30192, Note_on_c, 0, 69, 83
2, 30215, Note_on_c, 0, 69, 0
2, 30216, Note_on_c, 0, 64, 82
2, 30239, Note_on_c, 0, 64, 0
2, 30240, Note_on_c, 0, 69, 81
2, 30263, Note_on_c, 0, 69, 0
2, 30264, Note_on_c, 0, 64, 80
2, 30287, Note_on_c, 0, 64, 0
2, 30288, Note_on_c, 0, 61, 79
2, 30311, Note_on_c, 0, 61, 0
2, 30312, Note_on_c, 0, 57, 78
2, 30335, Note_on_c, 0, 57, 0
2, 30720, Control_c, 0, 64, 0
2, 30768, Note_on_c, 0, 62, 85
2, 30780, Note_on_c, 0, 62, 0
2, 30780, Note_on_c, 0, 65, 85
2, 30786, Note_on_c, 0, 65, 0
2, 30786, Note_on_c, 0, 69, 85
2, 30792, Note_on_c, 0, 69, 0
2, 30792, Note_on_c, 0, 74, 85
2, 30798, Note_on_c, 0, 74, 0
2, 30798, Note_on_c, 0, 77, 85
2, 30804, Note_on_c, 0, 77, 0
2, 30804, Note_on_c, 0, 81, 85
2, 30810, Note_on_c, 0, 81, 0
2, 30810, Note_on_c, 0, 85, 85
2, 30816, Note_on_c, 0, 85, 0
2, 30816, Note_on_c, 0, 86, 101
2, 30832, Note_on_c, 0, 86, 0
2, 30832, Note_on_c, 0, 81, 85
2, 30847, Note_on_c, 0, 81, 0
2, 30848, Note_on_c, 0, 77, 85
2, 30863, Note_on_c, 0, 77, 0
2, 30864, Note_on_c, 0, 82, 85
2, 30879, Note_on_c, 0, 82, 0
2, 30880, Note_on_c, 0, 79, 85
2, 30895, Note_on_c, 0, 79, 0
2, 30896, Note_on_c, 0, 74, 85
2, 30911, Note_on_c, 0, 74, 0
2, 30912, Note_on_c, 0, 81, 85
2, 30932, Note_on_c, 0, 81, 0
2, 30960, Note_on_c, 0, 62, 85
2, 30972, Note_on_c, 0, 62, 0
2, 30972, Note_on_c, 0, 65, 85
2, 30978, Note_on_c, 0, 65, 0
2, 30978, Note_on_c, 0, 69, 85
2, 30984, Note_on_c, 0, 69, 0
2, 30984, Note_on_c, 0, 74, 85
2, 30990, Note_on_c, 0, 74, 0
2, 30990, Note_on_c, 0, 77, 85
2, 30996, Note_on_c, 0, 77, 0
2, 30996, Note_on_c, 0, 81, 85
2, 31002, Note_on_c, 0, 81, 0
2, 31002, Note_on_c, 0, 85, 85
2, 31008, Note_on_c, 0, 85, 0
2, 31008, Note_on_c, 0, 86, 101
2, 31024, Note_on_c, 0, 86, 0
2, 31024, Note_on_c, 0, 81, 85
2, 31039, Note_on_c, 0, 81, 0
2, 31040, Note_on_c, 0, 77, 85
2, 31055, Note_on_c, 0, 77, 0
2, 31056, Note_on_c, 0, 82, 85
2, 31071, Note_on_c, 0, 82, 0
2, 31072, Note_on_c, 0, 79, 85
2, 31087, Note_on_c, 0, 79, 0
2, 31088, Note_on_c, 0, 74, 85
2, 31103, Note_on_c, 0, 74, 0
2, 31104, Note_on_c, 0, 81, 85
2, 31124, Note_on_c, 0, 81, 0
2, 31152, Note_on_c, 0, 62, 85
2, 31164, Note_on_c, 0, 62, 0
2, 31164, Note_on_c, 0, 65, 85
2, 31170, Note_on_c, 0, 65, 0
2, 31170, Note_on_c, 0, 69, 85
2, 31176, Note_on_c, 0, 69, 0
2, 31176, Note_on_c, 0, 74, 85
2, 31182, Note_on_c, 0, 74, 0
2, 31182, Note_on_c, 0, 77, 85
2, 31188, Note_on_c, 0, 77, 0
2, 31188, Note_on_c, 0, 81, 85
2, 31194, Note_on_c, 0, 81, 0
2, 31194, Note_on_c, 0, 85, 85
2, 31200, Note_on_c, 0, 85, 0
2, 31200, Note_on_c, 0, 86, 101
2, 31216, Note_on_c, 0, 86, 0
2, 31216, Note_on_c, 0, 81, 85
2, 31231, Note_on_c, 0, 81, 0
2, 31232, Note_on_c, 0, 77, 85
2, 31247, Note_on_c, 0, 77, 0
2, 31248, Note_on_c, 0, 84, 85
2, 31263, Note_on_c, 0, 84, 0
2, 31264, Note_on_c, 0, 81, 85
2, 31279, Note_on_c, 0, 81, 0
2, 31280, Note_on_c, 0, 74, 85
2, 31295, Note_on_c, 0, 74, 0
2, 31296, Note_on_c, 0, 82, 85
2, 31316, Note_on_c, 0, 82, 0
2, 31584, Control_c, 0, 64, 127
2, 31584, Note_on_c, 0, 70, 85
2, 31607, Note_on_c, 0, 70, 0
2, 31608, Note_on_c, 0, 74, 85
2, 31631, Note_on_c, 0, 74, 0
2, 31632, Note_on_c, 0, 75, 85
2, 31655, Note_on_c, 0, 75, 0
2, 31656, Note_on_c, 0, 79, 85
2, 31679, Note_on_c, 0, 79, 0
2, 31680, Note_on_c, 0, 82, 85
2, 31703, Note_on_c, 0, 82, 0
2, 31704, Control_c, 0, 64, 0
2, 31704, Note_on_c, 0, 81, 85
2, 31727, Note_on_c, 0, 81, 0
2, 31728, Note_on_c, 0, 79, 85
2, 31751, Note_on_c, 0, 79, 0
2, 31752, Note_on_c, 0, 77, 85
2, 31775, Note_on_c, 0, 77, 0
2, 31776, Control_c, 0, 64, 127
2, 31776, Note_on_c, 0, 75, 85
2, 31799, Note_on_c, 0, 75, 0
2, 31800, Note_on_c, 0, 82, 85
2, 31823, Note_on_c, 0, 82, 0
2, 31824, Note_on_c, 0, 75, 85
2, 31847, Note_on_c, 0, 75, 0
2, 31848, Note_on_c, 0, 82, 85
2, 31871, Note_on_c, 0, 82, 0
2, 31872, Note_on_c, 0, 75, 85
2, 31895, Note_on_c, 0, 75, 0
2, 31896, Note_on_c, 0, 82, 85
2, 31919, Note_on_c, 0, 82, 0
2, 31920, Note_on_c, 0, 74, 85
2, 31943, Note_on_c, 0, 74, 0
2, 31944, Note_on_c, 0, 82, 85
2, 31967, Note_on_c, 0, 82, 0
2, 31968, Note_on_c, 0, 75, 85
2, 31991, Note_on_c, 0, 75, 0
2, 31992, Note_on_c, 0, 82, 85
2, 32015, Note_on_c, 0, 82, 0
2, 32016, Note_on_c, 0, 74, 85
2, 32039, Note_on_c, 0, 74, 0
2, 32040, Note_on_c, 0, 82, 85
2, 32063, Note_on_c, 0, 82, 0
2, 32064, Control_c, 0, 64, 0
2, 32064, Note_on_c, 0, 73, 85
2, 32084, Note_on_c, 0, 73, 0
2, 32112, Note_on_c, 0, 82, 85
2, 32132, Note_on_c, 0, 82, 0
2, 32304, Note_on_c, 0, 86, 85
2, 32324, Note_on_c, 0, 86, 0
2, 32352, Note_on_c, 0, 89, 85
2, 32372, Note_on_c, 0, 89, 0
2, 32496, Note_on_c, 0, 70, 85
2, 32516, Note_on_c, 0, 70, 0
2, 32592, Note_on_c, 0, 61, 85
2, 32612, Note_on_c, 0, 61, 0
2, 32688, Note_on_c, 0, 86, 85
2, 32708, Note_on_c, 0, 86, 0
2, 32736, Note_on_c, 0, 89, 85
2, 32756, Note_on_c, 0, 89, 0
2, 32880, Note_on_c, 0, 70, 85
2, 32900, Note_on_c, 0, 70, 0
2, 32976, Note_on_c, 0, 61, 85
2, 32996, Note_on_c, 0, 61, 0
2, 33072, Note_on_c, 0, 62, 51
2, 33092, Note_on_c, 0, 62, 0
2, 33120, Note_on_c, 0, 62, 51
2, 33140, Note_on_c, 0, 62, 0
2, 33168, Note_on_c, 0, 62, 52
2, 33188, Note_on_c, 0, 62, 0
2, 33216, Note_on_c, 0, 62, 52
2, 33236, Note_on_c, 0, 62, 0
2, 33264, Note_on_c, 0, 62, 53
2, 33284, Note_on_c, 0, 62, 0
2, 33312, Note_on_c, 0, 62, 53
2, 33332, Note_on_c, 0, 62, 0
2, 33360, Note_on_c, 0, 62, 54
2, 33380, Note_on_c, 0, 62, 0
2, 33456, Note_on_c, 0, 62, 55
2, 33476, Note_on_c, 0, 62, 0
2, 33552, Note_on_c, 0, 62, 56
2, 33572, Note_on_c, 0, 62, 0
2, 33648, Note_on_c, 0, 62, 57
2, 33668, Note_on_c, 0, 62, 0
2, 33744, Note_on_c, 0, 62, 58
2, 33764, Note_on_c, 0, 62, 0
2, 33816, Note_on_c, 0, 62, 59
2, 33826, Note_on_c, 0, 62, 0
2, 33864, Note_on_c, 0, 62, 60
2, 33874, Note_on_c, 0, 62, 0
2, 33912, Note_on_c, 0, 62, 60
2, 33922, Note_on_c, 0, 62, 0
2, 33960, Note_on_c, 0, 62, 61
2, 33970, Note_on_c, 0, 62, 0
2, 34008, Note_on_c, 0, 62, 61
2, 34018, Note_on_c, 0, 62, 0
2, 34056, Note_on_c, 0, 62, 62
2, 34066, Note_on_c, 0, 62, 0
2, 34104, Note_on_c, 0, 62, 62
2, 34114, Note_on_c, 0, 62, 0
2, 34152, Note_on_c, 0, 62, 63
2, 34162, Note_on_c, 0, 62, 0
2, 34200, Note_on_c, 0, 62, 63
2, 34210, Note_on_c, 0, 62, 0
2, 34248, Note_on_c, 0, 62, 64
2, 34258, Note_on_c, 0, 62, 0
2, 34296, Note_on_c, 0, 62, 64
2, 34306, Note_on_c, 0, 62, 0
2, 34344, Note_on_c, 0, 62, 65
2, 34354, Note_on_c, 0, 62, 0
2, 34392, Note_on_c, 0, 60, 66
2, 34402, Note_on_c, 0, 60, 0
2, 34440, Note_on_c, 0, 60, 66
2, 34450, Note_on_c, 0, 60, 0
2, 34488, Note_on_c, 0, 60, 67
2, 34498, Note_on_c, 0, 60, 0
2, 34536, Note_on_c, 0, 60, 67
2, 34546, Note_on_c, 0, 60, 0
2, 34560, Note_on_c, 0, 57, 85
2, 34568, Note_on_c, 0, 60, 85
2, 34576, Note_on_c, 0, 65, 85
2, 34605, Note_on_c, 0, 65, 0
2, 34605, Note_on_c, 0, 60, 0
2, 34605, Note_on_c, 0, 57, 0
2, 34656, Note_on_c, 0, 60, 85
2, 34656, Note_on_c, 0, 57, 85
2, 34676, Note_on_c, 0, 60, 0
2, 34676, Note_on_c, 0, 57, 0
2, 34728, Note_on_c, 0, 60, 85
2, 34728, Note_on_c, 0, 57, 85
2, 34738, Note_on_c, 0, 60, 0
2, 34738, Note_on_c, 0, 57, 0
2, 34752, Note_on_c, 0, 60, 85
2, 34752, Note_on_c, 0, 57, 85
2, 34797, Note_on_c, 0, 60, 0
2, 34797, Note_on_c, 0, 57, 0
2, 34944, Note_on_c, 0, 72, 77
2, 35085, Note_on_c, 0, 72, 0
2, 35088, Note_on_c, 0, 76, 77
2, 35100, Note_on_c, 0, 76, 0
2, 35100, Note_on_c, 0, 74, 77
2, 35133, Note_on_c, 0, 74, 0
2, 35136, Note_on_c, 0, 72, 77
2, 35184, Note_on_c, 0, 72, 0
2, 35184, Note_on_c, 0, 77, 77
2, 35204, Note_on_c, 0, 77, 0
2, 35232, Note_on_c, 0, 69, 77
2, 35277, Note_on_c, 0, 69, 0
2, 35280, Note_on_c, 0, 72, 77
2, 35292, Note_on_c, 0, 72, 0
2, 35292, Note_on_c, 0, 70, 77
2, 35325, Note_on_c, 0, 70, 0
2, 35328, Note_on_c, 0, 69, 77
2, 35376, Note_on_c, 0, 69, 0
2, 35376, Note_on_c, 0, 72, 77
2, 35396, Note_on_c, 0, 72, 0
2, 35424, Note_on_c, 0, 65, 77
2, 35444, Note_on_c, 0, 65, 0
2, 35472, Note_on_c, 0, 65, 77
2, 35492, Note_on_c, 0, 65, 0
2, 35520, Note_on_c, 0, 65, 77
2, 35660, Note_on_c, 0, 65, 0
2, 35664, Note_on_c, 0, 69, 77
2, 35676, Note_on_c, 0, 69, 0
2, 35676, Note_on_c, 0, 67, 77
2, 35709, Note_on_c, 0, 67, 0
2, 35712, Note_on_c, 0, 65, 77
2, 35732, Note_on_c, 0, 65, 0
2, 36000, Note_on_c, 0, 72, 68
2, 36000, Note_on_c, 0, 69, 68
2, 36045, Note_on_c, 0, 72, 0
2, 36045, Note_on_c, 0, 69, 0
2, 36048, Note_on_c, 0, 76, 68
2, 36060, Note_on_c, 0, 76, 0
2, 36060, Note_on_c, 0, 74, 68
2, 36060, Note_on_c, 0, 70, 68
2, 36093, Note_on_c, 0, 74, 0
2, 36093, Note_on_c, 0, 70, 0
2, 36096, Note_on_c, 0, 72, 68
2, 36141, Note_on_c, 0, 72, 0
2, 36144, Note_on_c, 0, 77, 68
2, 36164, Note_on_c, 0, 77, 0
2, 36192, Note_on_c, 0, 72, 68
2, 36237, Note_on_c, 0, 72, 0
2, 36240, Note_on_c, 0, 77, 70
2, 36252, Note_on_c, 0, 77, 0
2, 36252, Note_on_c, 0, 75, 70
2, 36285, Note_on_c, 0, 75, 0
2, 36288, Note_on_c, 0, 74, 72
2, 36377, Note_on_c, 0, 74, 0
2, 36384, Note_on_c, 0, 74, 77
2, 36429, Note_on_c, 0, 74, 0
2, 36432, Note_on_c, 0, 77, 77
2, 36444, Note_on_c, 0, 77, 0
2, 36444, Note_on_c, 0, 76, 77
2, 36477, Note_on_c, 0, 76, 0
2, 36480, Note_on_c, 0, 74, 77
2, 36525, Note_on_c, 0, 74, 0
2, 36528, Note_on_c, 0, 79, 77
2, 36548, Note_on_c, 0, 79, 0
2, 36576, Note_on_c, 0, 74, 77
2, 36621, Note_on_c, 0, 74, 0
2, 36624, Note_on_c, 0, 79, 79
2, 36636, Note_on_c, 0, 79, 0
2, 36636, Note_on_c, 0, 77, 79
2, 36669, Note_on_c, 0, 77, 0
2, 36672, Note_on_c, 0, 76, 81
2, 36761, Note_on_c, 0, 76, 0
2, 36768, Note_on_c, 0, 81, 85
2, 36816, Note_on_c, 0, 81, 0
2, 36816, Note_on_c, 0, 80, 85
2, 36861, Note_on_c, 0, 80, 0
2, 36864, Note_on_c, 0, 81, 85
2, 36997, Note_on_c, 0, 81, 0
2, 37008, Note_on_c, 0, 79, 77
2, 37097, Note_on_c, 0, 79, 0
2, 37104, Note_on_c, 0, 78, 77
2, 37149, Note_on_c, 0, 78, 0
2, 37152, Note_on_c, 0, 84, 77
2, 37293, Note_on_c, 0, 84, 0
2, 37296, Note_on_c, 0, 82, 77
2, 37385, Note_on_c, 0, 82, 0
2, 37392, Note_on_c, 0, 81, 77
2, 37481, Note_on_c, 0, 81, 0
2, 37488, Note_on_c, 0, 79, 77
2, 37533, Note_on_c, 0, 79, 0
2, 37536, Note_on_c, 0, 82, 77
2, 37677, Note_on_c, 0, 82, 0
2, 37680, Note_on_c, 0, 81, 77
2, 37769, Note_on_c, 0, 81, 0
2, 37776, Note_on_c, 0, 79, 77
2, 37865, Note_on_c, 0, 79, 0
2, 37872, Note_on_c, 0, 77, 77
2, 37917, Note_on_c, 0, 77, 0
2, 37920, Note_on_c, 0, 84, 77
2, 37943, Note_on_c, 0, 84, 0
2, 37944, Note_on_c, 0, 81, 77
2, 37967, Note_on_c, 0, 81, 0
2, 37968, Note_on_c, 0, 79, 77
2, 37991, Note_on_c, 0, 79, 0
2, 37992, Note_on_c, 0, 77, 77
2, 38015, Note_on_c, 0, 77, 0
2, 38016, Note_on_c, 0, 81, 77
2, 38028, Note_on_c, 0, 81, 0
2, 38028, Note_on_c, 0, 79, 77
2, 38064, Note_on_c, 0, 79, 0
2, 38064, Note_on_c, 0, 77, 77
2, 38109, Note_on_c, 0, 77, 0
2, 38112, Note_on_c, 0, 84, 77
2, 38135, Note_on_c, 0, 84, 0
2, 38136, Note_on_c, 0, 81, 77
2, 38159, Note_on_c, 0, 81, 0
2, 38160, Note_on_c, 0, 79, 77
2, 38183, Note_on_c, 0, 79, 0
2, 38184, Note_on_c, 0, 77, 77
2, 38207, Note_on_c, 0, 77, 0
2, 38208, Note_on_c, 0, 81, 77
2, 38220, Note_on_c, 0, 81, 0
2, 38220, Note_on_c, 0, 79, 77
2, 38256, Note_on_c, 0, 79, 0
2, 38256, Note_on_c, 0, 77, 77
2, 38301, Note_on_c, 0, 77, 0
2, 38304, Note_on_c, 0, 84, 77
2, 38400, Note_on_c, 0, 84, 0
2, 38400, Note_on_c, 0, 83, 77
2, 38445, Note_on_c, 0, 83, 0
2, 38448, Note_on_c, 0, 77, 77
2, 38496, Note_on_c, 0, 77, 0
2, 38496, Note_on_c, 0, 76, 77
2, 38541, Note_on_c, 0, 76, 0
2, 38544, Note_on_c, 0, 82, 77
2, 38592, Note_on_c, 0, 82, 0
2, 38592, Note_on_c, 0, 81, 77
2, 38637, Note_on_c, 0, 81, 0
2, 38640, Note_on_c, 0, 75, 77
2, 38688, Note_on_c, 0, 75, 0
2, 38688, Note_on_c, 0, 74, 77
2, 38733, Note_on_c, 0, 74, 0
2, 38736, Note_on_c, 0, 85, 77
2, 38784, Note_on_c, 0, 85, 0
2, 38784, Note_on_c, 0, 86, 77
2, 38829, Note_on_c, 0, 86, 0
2, 38832, Note_on_c, 0, 88, 77
2, 38842, Note_on_c, 0, 88, 0
2, 38842, Note_on_c, 0, 86, 77
2, 38852, Note_on_c, 0, 86, 0
2, 38852, Note_on_c, 0, 84, 77
2, 38862, Note_on_c, 0, 84, 0
2, 38862, Note_on_c, 0, 86, 77
2, 38871, Note_on_c, 0, 86, 0
2, 38871, Note_on_c, 0, 88, 77
2, 38880, Note_on_c, 0, 88, 0
2, 38880, Note_on_c, 0, 89, 77
2, 38925, Note_on_c, 0, 89, 0
2, 38928, Note_on_c, 0, 89, 77
2, 38973, Note_on_c, 0, 89, 0
2, 38976, Note_on_c, 0, 89, 77
2, 38996, Note_on_c, 0, 89, 0
2, 39072, Note_on_c, 0, 74, 77
2, 39092, Note_on_c, 0, 74, 0
2, 39168, Note_on_c, 0, 64, 77
2, 39188, Note_on_c, 0, 64, 0
2, 39264, Note_on_c, 0, 48, 77
2, 39353, Note_on_c, 0, 48, 0
2, 39624, Note_on_c, 0, 65, 85
2, 39630, Note_on_c, 0, 65, 0
2, 39630, Note_on_c, 0, 69, 85
2, 39636, Note_on_c, 0, 69, 0
2, 39636, Note_on_c, 0, 72, 85
2, 39642, Note_on_c, 0, 72, 0
2, 39642, Note_on_c, 0, 76, 85
2, 39648, Note_on_c, 0, 76, 0
2, 39648, Note_on_c, 0, 77, 101
2, 39664, Note_on_c, 0, 77, 0
2, 39664, Note_on_c, 0, 72, 85
2, 39679, Note_on_c, 0, 72, 0
2, 39680, Note_on_c, 0, 69, 85
2, 39695, Note_on_c, 0, 69, 0
2, 39696, Note_on_c, 0, 74, 85
2, 39711, Note_on_c, 0, 74, 0
2, 39712, Note_on_c, 0, 70, 85
2, 39727, Note_on_c, 0, 70, 0
2, 39728, Note_on_c, 0, 65, 85
2, 39743, Note_on_c, 0, 65, 0
2, 39744, Note_on_c, 0, 72, 85
2, 39764, Note_on_c, 0, 72, 0
2, 39816, Note_on_c, 0, 65, 85
2, 39822, Note_on_c, 0, 65, 0
2, 39822, Note_on_c, 0, 69, 85
2, 39828, Note_on_c, 0, 69, 0
2, 39828, Note_on_c, 0, 72, 85
2, 39834, Note_on_c, 0, 72, 0
2, 39834, Note_on_c, 0, 76, 85
2, 39840, Note_on_c, 0, 76, 0
2, 39840, Note_on_c, 0, 77, 101
2, 39856, Note_on_c, 0, 77, 0
2, 39856, Note_on_c, 0, 72, 85
2, 39871, Note_on_c, 0, 72, 0
2, 39872, Note_on_c, 0, 69, 85
2, 39887, Note_on_c, 0, 69, 0
2, 39888, Note_on_c, 0, 74, 85
2, 39903, Note_on_c, 0, 74, 0
2, 39904, Note_on_c, 0, 70, 85
2, 39919, Note_on_c, 0, 70, 0
2, 39920, Note_on_c, 0, 65, 85
2, 39935, Note_on_c, 0, 65, 0
2, 39936, Note_on_c, 0, 72, 85
2, 39956, Note_on_c, 0, 72, 0
2, 40008, Note_on_c, 0, 65, 85
2, 40014, Note_on_c, 0, 65, 0
2, 40014, Note_on_c, 0, 69, 85
2, 40020, Note_on_c, 0, 69, 0
2, 40020, Note_on_c, 0, 72, 85
2, 40026, Note_on_c, 0, 72, 0
2, 40026, Note_on_c, 0, 76, 85
2, 40032, Note_on_c, 0, 76, 0
2, 40032, Note_on_c, 0, 77, 101
2, 40048, Note_on_c, 0, 77, 0
2, 40048, Note_on_c, 0, 72, 85
2, 40063, Note_on_c, 0, 72, 0
2, 40064, Note_on_c, 0, 69, 85
2, 40079, Note_on_c, 0, 69, 0
2, 40080, Note_on_c, 0, 74, 85
2, 40095, Note_on_c, 0, 74, 0
2, 40096, Note_on_c, 0, 70, 85
2, 40111, Note_on_c, 0, 70, 0
2, 40112, Note_on_c, 0, 65, 85
2, 40127, Note_on_c, 0, 65, 0
2, 40128, Note_on_c, 0, 72, 85
2, 40148, Note_on_c, 0, 72, 0
2, 40176, Note_on_c, 0, 72, 85
2, 40182, Note_on_c, 0, 72, 0
2, 40182, Note_on_c, 0, 77, 85
2, 40188, Note_on_c, 0, 77, 0
2, 40188, Note_on_c, 0, 81, 85
2, 40222, Note_on_c, 0, 81, 0
2, 40224, Note_on_c, 0, 79, 85
2, 40236, Note_on_c, 0, 79, 0
2, 40236, Note_on_c, 0, 77, 85
2, 40270, Note_on_c, 0, 77, 0
2, 40272, Note_on_c, 0, 76, 85
2, 40284, Note_on_c, 0, 76, 0
2, 40284, Note_on_c, 0, 74, 85
2, 40318, Note_on_c, 0, 74, 0
2, 40320, Note_on_c, 0, 72, 85
2, 40368, Note_on_c, 0, 72, 0
2, 40368, Note_on_c, 0, 71, 83
2, 40413, Note_on_c, 0, 71, 0
2, 40416, Note_on_c, 0, 70, 81
2, 40505, Note_on_c, 0, 70, 0
2, 40512, Note_on_c, 0, 69, 77
2, 40557, Note_on_c, 0, 69, 0
2, 40560, Note_on_c, 0, 73, 77
2, 40572, Note_on_c, 0, 73, 0
2, 40572, Note_on_c, 0, 74, 77
2, 40606, Note_on_c, 0, 74, 0
2, 40608, Note_on_c, 0, 72, 77
2, 40620, Note_on_c, 0, 72, 0
2, 40620, Note_on_c, 0, 70, 77
2, 40654, Note_on_c, 0, 70, 0
2, 40656, Note_on_c, 0, 69, 77
2, 40668, Note_on_c, 0, 69, 0
2, 40668, Note_on_c, 0, 67, 77
2, 40702, Note_on_c, 0, 67, 0
2, 40704, Note_on_c, 0, 65, 77
2, 40837, Note_on_c, 0, 65, 0
2, 40848, Note_on_c, 0, 69, 70
2, 40860, Note_on_c, 0, 69, 0
2, 40860, Note_on_c, 0, 67, 70
2, 40893, Note_on_c, 0, 67, 0
2, 40896, Note_on_c, 0, 65, 68
2, 40916, Note_on_c, 0, 65, 0
2, 40968, Note_on_c, 0, 65, 85
2, 40974, Note_on_c, 0, 65, 0
2, 40974, Note_on_c, 0, 69, 85
2, 40980, Note_on_c, 0, 69, 0
2, 40980, Note_on_c, 0, 72, 85
2, 40986, Note_on_c, 0, 72, 0
2, 40986, Note_on_c, 0, 76, 85
2, 40992, Note_on_c, 0, 76, 0
2, 40992, Note_on_c, 0, 77, 101
2, 41008, Note_on_c, 0, 77, 0
2, 41008, Note_on_c, 0, 72, 85
2, 41023, Note_on_c, 0, 72, 0
2, 41024, Note_on_c, 0, 69, 85
2, 41039, Note_on_c, 0, 69, 0
2, 41040, Note_on_c, 0, 74, 85
2, 41055, Note_on_c, 0, 74, 0
2, 41056, Note_on_c, 0, 70, 85
2, 41071, Note_on_c, 0, 70, 0
2, 41072, Note_on_c, 0, 65, 85
2, 41087, Note_on_c, 0, 65, 0
2, 41088, Note_on_c, 0, 72, 85
2, 41108, Note_on_c, 0, 72, 0
2, 41160, Note_on_c, 0, 65, 85
2, 41166, Note_on_c, 0, 65, 0
2, 41166, Note_on_c, 0, 69, 85
2, 41172, Note_on_c, 0, 69, 0
2, 41172, Note_on_c, 0, 72, 85
2, 41178, Note_on_c, 0, 72, 0
2, 41178, Note_on_c, 0, 76, 85
2, 41184, Note_on_c, 0, 76, 0
2, 41184, Note_on_c, 0, 77, 101
2, 41200, Note_on_c, 0, 77, 0
2, 41200, Note_on_c, 0, 72, 85
2, 41215, Note_on_c, 0, 72, 0
2, 41216, Note_on_c, 0, 69, 85
2, 41231, Note_on_c, 0, 69, 0
2, 41232, Note_on_c, 0, 74, 85
2, 41247, Note_on_c, 0, 74, 0
2, 41248, Note_on_c, 0, 70, 85
2, 41263, Note_on_c, 0, 70, 0
2, 41264, Note_on_c, 0, 65, 85
2, 41279, Note_on_c, 0, 65, 0
2, 41280, Note_on_c, 0, 72, 85
2, 41300, Note_on_c, 0, 72, 0
2, 41352, Note_on_c, 0, 65, 85
2, 41358, Note_on_c, 0, 65, 0
2, 41358, Note_on_c, 0, 67, 85
2, 41364, Note_on_c, 0, 67, 0
2, 41364, Note_on_c, 0, 71, 85
2, 41370, Note_on_c, 0, 71, 0
2, 41370, Note_on_c, 0, 74, 85
2, 41376, Note_on_c, 0, 74, 0
2, 41376, Note_on_c, 0, 77, 101
2, 41396, Note_on_c, 0, 77, 0
2, 41424, Note_on_c, 0, 72, 85
2, 41432, Note_on_c, 0, 72, 0
2, 41432, Note_on_c, 0, 71, 85
2, 41440, Note_on_c, 0, 71, 0
2, 41440, Note_on_c, 0, 72, 85
2, 41448, Note_on_c, 0, 72, 0
2, 41448, Note_on_c, 0, 71, 85
2, 41456, Note_on_c, 0, 71, 0
2, 41456, Note_on_c, 0, 69, 85
2, 41464, Note_on_c, 0, 69, 0
2, 41464, Note_on_c, 0, 71, 85
2, 41472, Note_on_c, 0, 71, 0
2, 41472, Note_on_c, 0, 72, 85
2, 41492, Note_on_c, 0, 72, 0
2, 41544, Note_on_c, 0, 70, 85
2, 41552, Note_on_c, 0, 70, 0
2, 41552, Note_on_c, 0, 72, 85
2, 41560, Note_on_c, 0, 72, 0
2, 41560, Note_on_c, 0, 76, 85
2, 41568, Note_on_c, 0, 76, 0
2, 41568, Note_on_c, 0, 79, 101
2, 41588, Note_on_c, 0, 79, 0
2, 41616, Note_on_c, 0, 72, 85
2, 41624, Note_on_c, 0, 72, 0
2, 41624, Note_on_c, 0, 70, 85
2, 41632, Note_on_c, 0, 70, 0
2, 41632, Note_on_c, 0, 72, 85
2, 41640, Note_on_c, 0, 72, 0
2, 41640, Note_on_c, 0, 70, 85
2, 41648, Note_on_c, 0, 70, 0
2, 41648, Note_on_c, 0, 69, 85
2, 41656, Note_on_c, 0, 69, 0
2, 41656, Note_on_c, 0, 70, 85
2, 41664, Note_on_c, 0, 70, 0
2, 41664, Note_on_c, 0, 69, 85
2, 41709, Note_on_c, 0, 69, 0
2, 41736, Note_on_c, 0, 67, 85
2, 41744, Note_on_c, 0, 67, 0
2, 41744, Note_on_c, 0, 69, 85
2, 41752, Note_on_c, 0, 69, 0
2, 41752, Note_on_c, 0, 70, 85
2, 41760, Note_on_c, 0, 70, 0
2, 41760, Note_on_c, 0, 74, 101
2, 41780, Note_on_c, 0, 74, 0
2, 41808, Note_on_c, 0, 67, 85
2, 41816, Note_on_c, 0, 67, 0
2, 41816, Note_on_c, 0, 65, 85
2, 41824, Note_on_c, 0, 65, 0
2, 41824, Note_on_c, 0, 67, 85
2, 41832, Note_on_c, 0, 67, 0
2, 41832, Note_on_c, 0, 65, 85
2, 41840, Note_on_c, 0, 65, 0
2, 41840, Note_on_c, 0, 64, 85
2, 41848, Note_on_c, 0, 64, 0
2, 41848, Note_on_c, 0, 65, 85
2, 41856, Note_on_c, 0, 65, 0
2, 41856, Note_on_c, 0, 64, 85
2, 41876, Note_on_c, 0, 64, 0
2, 41904, Note_on_c, 0, 60, 60
2, 41924, Note_on_c, 0, 60, 0
2, 41952, Note_on_c, 0, 60, 61
2, 41972, Note_on_c, 0, 60, 0
2, 42000, Note_on_c, 0, 60, 62
2, 42020, Note_on_c, 0, 60, 0
2, 42048, Note_on_c, 0, 60, 63
2, 42068, Note_on_c, 0, 60, 0
2, 42096, Note_on_c, 0, 60, 65
2, 42116, Note_on_c, 0, 60, 0
2, 42144, Note_on_c, 0, 60, 66
2, 42164, Note_on_c, 0, 60, 0
2, 42192, Note_on_c, 0, 60, 67
2, 42212, Note_on_c, 0, 60, 0
2, 42288, Note_on_c, 0, 60, 70
2, 42308, Note_on_c, 0, 60, 0
2, 42384, Note_on_c, 0, 60, 73
2, 42404, Note_on_c, 0, 60, 0
2, 42480, Note_on_c, 0, 60, 75
2, 42500, Note_on_c, 0, 60, 0
2, 42576, Note_on_c, 0, 60, 78
2, 42596, Note_on_c, 0, 60, 0
2, 42648, Note_on_c, 0, 60, 80
2, 42658, Note_on_c, 0, 60, 0
2, 42696, Note_on_c, 0, 60, 81
2, 42706, Note_on_c, 0, 60, 0
2, 42744, Note_on_c, 0, 60, 83
2, 42754, Note_on_c, 0, 60, 0
2, 42792, Note_on_c, 0, 60, 84
2, 42802, Note_on_c, 0, 60, 0
2, 42840, Note_on_c, 0, 60, 85
2, 42850, Note_on_c, 0, 60, 0
2, 42888, Note_on_c, 0, 60, 85
2, 42898, Note_on_c, 0, 60, 0
2, 42936, Note_on_c, 0, 60, 85
2, 42946, Note_on_c, 0, 60, 0
2, 42984, Note_on_c, 0, 60, 85
2, 42994, Note_on_c, 0, 60, 0
2, 43024, Note_on_c, 0, 64, 85
2, 43039, Note_on_c, 0, 64, 0
2, 43040, Note_on_c, 0, 65, 85
2, 43055, Note_on_c, 0, 65, 0
2, 43056, Note_on_c, 0, 67, 85
2, 43071, Note_on_c, 0, 67, 0
2, 43072, Note_on_c, 0, 65, 85
2, 43087, Note_on_c, 0, 65, 0
2, 43088, Note_on_c, 0, 64, 85
2, 43103, Note_on_c, 0, 64, 0
2, 43104, Note_on_c, 0, 70, 85
2, 43119, Note_on_c, 0, 70, 0
2, 43120, Note_on_c, 0, 68, 85
2, 43135, Note_on_c, 0, 68, 0
2, 43136, Note_on_c, 0, 67, 85
2, 43151, Note_on_c, 0, 67, 0
2, 43152, Note_on_c, 0, 73, 85
2, 43167, Note_on_c, 0, 73, 0
2, 43168, Note_on_c, 0, 72, 85
2, 43183, Note_on_c, 0, 72, 0
2, 43184, Note_on_c, 0, 70, 85
2, 43199, Note_on_c, 0, 70, 0
2, 43200, Note_on_c, 0, 79, 85
2, 43220, Note_on_c, 0, 79, 0
2, 43248, Note_on_c, 0, 70, 83
2, 43268, Note_on_c, 0, 70, 0
2, 43296, Note_on_c, 0, 73, 81
2, 43316, Note_on_c, 0, 73, 0
2, 43344, Note_on_c, 0, 64, 79
2, 43364, Note_on_c, 0, 64, 0
2, 43392, Note_on_c, 0, 67, 77
2, 43415, Note_on_c, 0, 67, 0
2, 43416, Note_on_c, 0, 65, 81
2, 43439, Note_on_c, 0, 65, 0
2, 43440, Note_on_c, 0, 71, 85
2, 43463, Note_on_c, 0, 71, 0
2, 43464, Note_on_c, 0, 72, 89
2, 43487, Note_on_c, 0, 72, 0
2, 43488, Note_on_c, 0, 70, 93
2, 43511, Note_on_c, 0, 70, 0
2, 43512, Note_on_c, 0, 69, 91
2, 43535, Note_on_c, 0, 69, 0
2, 43536, Note_on_c, 0, 67, 89
2, 43559, Note_on_c, 0, 67, 0
2, 43560, Note_on_c, 0, 65, 87
2, 43583, Note_on_c, 0, 65, 0
2, 43584, Note_on_c, 0, 66, 85
2, 43607, Note_on_c, 0, 66, 0
2, 43608, Note_on_c, 0, 67, 98
2, 43631, Note_on_c, 0, 67, 0
2, 43632, Note_on_c, 0, 70, 112
2, 43655, Note_on_c, 0, 70, 0
2, 43656, Note_on_c, 0, 67, 126
2, 43679, Note_on_c, 0, 67, 0
2, 43680, Note_on_c, 0, 62, 119
2, 43725, Note_on_c, 0, 62, 0
2, 43728, Note_on_c, 0, 64, 106
2, 43773, Note_on_c, 0, 64, 0
2, 43776, Note_on_c, 0, 65, 93
2, 43821, Note_on_c, 0, 65, 0
2, 43824, Note_on_c, 0, 83, 109
2, 43847, Note_on_c, 0, 83, 0
2, 43848, Note_on_c, 0, 84, 117
2, 43871, Note_on_c, 0, 84, 0
2, 43872, Note_on_c, 0, 82, 126
2, 43895, Note_on_c, 0, 82, 0
2, 43896, Note_on_c, 0, 81, 117
2, 43919, Note_on_c, 0, 81, 0
2, 43920, Note_on_c, 0, 79, 109
2, 43943, Note_on_c, 0, 79, 0
2, 43944, Note_on_c, 0, 77, 101
2, 43967, Note_on_c, 0, 77, 0
2, 43968, Note_on_c, 0, 78, 93
2, 43991, Note_on_c, 0, 78, 0
2, 43992, Note_on_c, 0, 79, 109
2, 44015, Note_on_c, 0, 79, 0
2, 44016, Note_on_c, 0, 82, 126
2, 44039, Note_on_c, 0, 82, 0
2, 44040, Note_on_c, 0, 79, 120
2, 44063, Note_on_c, 0, 79, 0
2, 44064, Note_on_c, 0, 74, 115
2, 44109, Note_on_c, 0, 74, 0
2, 44112, Note_on_c, 0, 76, 104
2, 44157, Note_on_c, 0, 76, 0
2, 44160, Note_on_c, 0, 79, 93
2, 44172, Note_on_c, 0, 79, 0
2, 44172, Note_on_c, 0, 77, 93
2, 44184, Note_on_c, 0, 77, 0
2, 44184, Note_on_c, 0, 76, 93
2, 44196, Note_on_c, 0, 76, 0
2, 44196, Note_on_c, 0, 77, 93
2, 44279, Note_on_c, 0, 77, 0
2, 44280, Note_on_c, 0, 81, 93
2, 44303, Note_on_c, 0, 81, 0
2, 44304, Note_on_c, 0, 79, 93
2, 44327, Note_on_c, 0, 79, 0
2, 44328, Note_on_c, 0, 76, 93
2, 44351, Note_on_c, 0, 76, 0
2, 44352, Note_on_c, 0, 77, 93
2, 44375, Note_on_c, 0, 77, 0
2, 44376, Note_on_c, 0, 81, 93
2, 44399, Note_on_c, 0, 81, 0
2, 44400, Note_on_c, 0, 79, 93
2, 44423, Note_on_c, 0, 79, 0
2, 44424, Note_on_c, 0, 76, 93
2, 44447, Note_on_c, 0, 76, 0
2, 44448, Note_on_c, 0, 77, 93
2, 44471, Note_on_c, 0, 77, 0
2, 44472, Note_on_c, 0, 81, 93
2, 44495, Note_on_c, 0, 81, 0
2, 44496, Note_on_c, 0, 79, 93
2, 44519, Note_on_c, 0, 79, 0
2, 44520, Note_on_c, 0, 76, 93
2, 44543, Note_on_c, 0, 76, 0
2, 44544, Note_on_c, 0, 79, 93
2, 44556, Note_on_c, 0, 79, 0
2, 44556, Note_on_c, 0, 77, 93
2, 44568, Note_on_c, 0, 77, 0
2, 44568, Note_on_c, 0, 76, 93
2, 44580, Note_on_c, 0, 76, 0
2, 44580, Note_on_c, 0, 77, 93
2, 44655, Note_on_c, 0, 77, 0
2, 44656, Note_on_c, 0, 79, 93
2, 44671, Note_on_c, 0, 79, 0
2, 44672, Note_on_c, 0, 81, 93
2, 44687, Note_on_c, 0, 81, 0
2, 44688, Note_on_c, 0, 79, 93
2, 44703, Note_on_c, 0, 79, 0
2, 44704, Note_on_c, 0, 77, 93
2, 44719, Note_on_c, 0, 77, 0
2, 44720, Note_on_c, 0, 76, 93
2, 44735, Note_on_c, 0, 76, 0
2, 44736, Note_on_c, 0, 77, 93
2, 44751, Note_on_c, 0, 77, 0
2, 44752, Note_on_c, 0, 79, 93
2, 44767, Note_on_c, 0, 79, 0
2, 44768, Note_on_c, 0, 81, 93
2, 44783, Note_on_c, 0, 81, 0
2, 44784, Note_on_c, 0, 79, 93
2, 44799, Note_on_c, 0, 79, 0
2, 44800, Note_on_c, 0, 77, 93
2, 44815, Note_on_c, 0, 77, 0
2, 44816, Note_on_c, 0, 76, 93
2, 44831, Note_on_c, 0, 76, 0
2, 44832, Note_on_c, 0, 77, 93
2, 44847, Note_on_c, 0, 77, 0
2, 44848, Note_on_c, 0, 79, 93
2, 44863, Note_on_c, 0, 79, 0
2, 44864, Note_on_c, 0, 81, 93
2, 44879, Note_on_c, 0, 81, 0
2, 44880, Note_on_c, 0, 79, 93
2, 44895, Note_on_c, 0, 79, 0
2, 44896, Note_on_c, 0, 77, 93
2, 44911, Note_on_c, 0, 77, 0
2, 44912, Note_on_c, 0, 76, 93
2, 44927, Note_on_c, 0, 76, 0
2, 44928, Note_on_c, 0, 77, 93
2, 44973, Note_on_c, 0, 77, 0
2, 44976, Note_on_c, 0, 89, 109
2, 45047, Note_on_c, 0, 89, 0
2, 45048, Note_on_c, 0, 88, 93
2, 45071, Note_on_c, 0, 88, 0
2, 45072, Note_on_c, 0, 87, 93
2, 45095, Note_on_c, 0, 87, 0
2, 45096, Note_on_c, 0, 86, 93
2, 45119, Note_on_c, 0, 86, 0
2, 45120, Note_on_c, 0, 85, 93
2, 45143, Note_on_c, 0, 85, 0
2, 45144, Note_on_c, 0, 86, 93
2, 45167, Note_on_c, 0, 86, 0
2, 45168, Note_on_c, 0, 84, 93
2, 45191, Note_on_c, 0, 84, 0
2, 45192, Note_on_c, 0, 82, 93
2, 45215, Note_on_c, 0, 82, 0
2, 45216, Note_on_c, 0, 81, 93
2, 45239, Note_on_c, 0, 81, 0
2, 45240, Note_on_c, 0, 79, 93
2, 45263, Note_on_c, 0, 79, 0
2, 45264, Note_on_c, 0, 82, 93
2, 45287, Note_on_c, 0, 82, 0
2, 45288, Note_on_c, 0, 79, 93
2, 45311, Note_on_c, 0, 79, 0
2, 45312, Note_on_c, 0, 77, 93
2, 45445, Note_on_c, 0, 77, 0
2, 45456, Note_on_c, 0, 81, 93
2, 45468, Note_on_c, 0, 81, 0
2, 45468, Note_on_c, 0, 79, 93
2, 45501, Note_on_c, 0, 79, 0
2, 45504, Note_on_c, 0, 77, 93
2, 45524, Note_on_c, 0, 77, 0
2, 45552, Note_on_c, 0, 72, 93
2, 45567, Note_on_c, 0, 72, 0
2, 45568, Note_on_c, 0, 77, 93
2, 45583, Note_on_c, 0, 77, 0
2, 45584, Note_on_c, 0, 81, 93
2, 45599, Note_on_c, 0, 81, 0
2, 45600, Note_on_c, 0, 84, 93
2, 45615, Note_on_c, 0, 84, 0
2, 45616, Note_on_c, 0, 81, 93
2, 45631, Note_on_c, 0, 81, 0
2, 45632, Note_on_c, 0, 77, 93
2, 45647, Note_on_c, 0, 77, 0
2, 45648, Note_on_c, 0, 82, 93
2, 45663, Note_on_c, 0, 82, 0
2, 45664, Note_on_c, 0, 79, 93
2, 45679, Note_on_c, 0, 79, 0
2, 45680, Note_on_c, 0, 76, 93
2, 45695, Note_on_c, 0, 76, 0
2, 45696, Note_on_c, 0, 77, 93
2, 45716, Note_on_c, 0, 77, 0
2, 45744, Note_on_c, 0, 60, 93
2, 45759, Note_on_c, 0, 60, 0
2, 45760, Note_on_c, 0, 65, 93
2, 45775, Note_on_c, 0, 65, 0
2, 45776, Note_on_c, 0, 69, 93
2, 45791, Note_on_c, 0, 69, 0
2, 45792, Note_on_c, 0, 72, 93
2, 45807, Note_on_c, 0, 72, 0
2, 45808, Note_on_c, 0, 69, 93
2, 45823, Note_on_c, 0, 69, 0
2, 45824, Note_on_c, 0, 65, 93
2, 45839, Note_on_c, 0, 65, 0
2, 45840, Note_on_c, 0, 70, 93
2, 45855, Note_on_c, 0, 70, 0
2, 45856, Note_on_c, 0, 67, 93
2, 45871, Note_on_c, 0, 67, 0
2, 45872, Note_on_c, 0, 64, 93
2, 45887, Note_on_c, 0, 64, 0
2, 45888, Note_on_c, 0, 65, 93
2, 45908, Note_on_c, 0, 65, 0
2, 45936, Note_on_c, 0, 48, 93
2, 45951, Note_on_c, 0, 48, 0
2, 45952, Note_on_c, 0, 53, 93
2, 45967, Note_on_c, 0, 53, 0
2, 45968, Note_on_c, 0, 57, 93
2, 45983, Note_on_c, 0, 57, 0
2, 45984, Note_on_c, 0, 60, 93
2, 45999, Note_on_c, 0, 60, 0
2, 46000, Note_on_c, 0, 57, 93
2, 46015, Note_on_c, 0, 57, 0
2, 46016, Note_on_c, 0, 53, 93
2, 46031, Note_on_c, 0, 53, 0
2, 46032, Note_on_c, 0, 58, 93
2, 46047, Note_on_c, 0, 58, 0
2, 46048, Note_on_c, 0, 55, 93
2, 46063, Note_on_c, 0, 55, 0
2, 46064, Note_on_c, 0, 52, 93
2, 46079, Note_on_c, 0, 52, 0
2, 46080, Note_on_c, 0, 53, 93
2, 46169, Note_on_c, 0, 53, 0
2, 46176, Note_on_c, 0, 53, 93
2, 46176, Note_on_c, 0, 48, 93
2, 46176, Note_on_c, 0, 45, 93
2, 46265, Note_on_c, 0, 53, 0
2, 46265, Note_on_c, 0, 48, 0
2, 46265, Note_on_c, 0, 45, 0
2, 46272, Note_on_c, 0, 53, 93
2, 46272, Note_on_c, 0, 48, 93
2, 46272, Note_on_c, 0, 45, 93
2, 46361, Note_on_c, 0, 53, 0
2, 46361, Note_on_c, 0, 48, 0
2, 46361, Note_on_c, 0, 45, 0
2, 46464, Note_on_c, 0, 72, 85
2, 46470, Note_on_c, 0, 75, 85
2, 46476, Note_on_c, 0, 79, 85
2, 46482, Note_on_c, 0, 84, 85
2, 46509, Note_on_c, 0, 84, 0
2, 46509, Note_on_c, 0, 79, 0
2, 46509, Note_on_c, 0, 75, 0
2, 46509, Note_on_c, 0, 72, 0
2, 46560, Note_on_c, 0, 67, 85
2, 46560, Note_on_c, 0, 63, 85
2, 46580, Note_on_c, 0, 67, 0
2, 46580, Note_on_c, 0, 63, 0
2, 46632, Note_on_c, 0, 67, 85
2, 46632, Note_on_c, 0, 63, 85
2, 46642, Note_on_c, 0, 67, 0
2, 46642, Note_on_c, 0, 63, 0
2, 46656, Note_on_c, 0, 67, 85
2, 46656, Note_on_c, 0, 63, 85
2, 46701, Note_on_c, 0, 67, 0
2, 46701, Note_on_c, 0, 63, 0
2, 46848, Note_on_c, 0, 72, 85
2, 46854, Note_on_c, 0, 75, 85
2, 46860, Note_on_c, 0, 80, 85
2, 46866, Note_on_c, 0, 84, 85
2, 46893, Note_on_c, 0, 84, 0
2, 46893, Note_on_c, 0, 80, 0
2, 46893, Note_on_c, 0, 75, 0
2, 46893, Note_on_c, 0, 72, 0
2, 46944, Note_on_c, 0, 68, 85
2, 46944, Note_on_c, 0, 63, 85
2, 46964, Note_on_c, 0, 68, 0
2, 46964, Note_on_c, 0, 63, 0
2, 47016, Note_on_c, 0, 68, 85
2, 47016, Note_on_c, 0, 63, 85
2, 47026, Note_on_c, 0, 68, 0
2, 47026, Note_on_c, 0, 63, 0
2, 47040, Note_on_c, 0, 68, 85
2, 47040, Note_on_c, 0, 63, 85
2, 47085, Note_on_c, 0, 68, 0
2, 47085, Note_on_c, 0, 63, 0
2, 47232, Note_on_c, 0, 78, 85
2, 47238, Note_on_c, 0, 81, 85
2, 47244, Note_on_c, 0, 84, 85
2, 47250, Note_on_c, 0, 87, 85
2, 47277, Note_on_c, 0, 87, 0
2, 47277, Note_on_c, 0, 84, 0
2, 47277, Note_on_c, 0, 81, 0
2, 47277, Note_on_c, 0, 78, 0
2, 47328, Note_on_c, 0, 78, 85
2, 47328, Note_on_c, 0, 75, 85
2, 47348, Note_on_c, 0, 78, 0
2, 47348, Note_on_c, 0, 75, 0
2, 47400, Note_on_c, 0, 78, 85
2, 47400, Note_on_c, 0, 75, 85
2, 47410, Note_on_c, 0, 78, 0
2, 47410, Note_on_c, 0, 75, 0
2, 47424, Note_on_c, 0, 78, 85
2, 47424, Note_on_c, 0, 75, 85
2, 47469, Note_on_c, 0, 78, 0
2, 47469, Note_on_c, 0, 75, 0
2, 47616, Note_on_c, 0, 62, 77
2, 47749, Note_on_c, 0, 62, 0
2, 47760, Note_on_c, 0, 65, 77
2, 47772, Note_on_c, 0, 65, 0
2, 47772, Note_on_c, 0, 63, 77
2, 47805, Note_on_c, 0, 63, 0
2, 47808, Note_on_c, 0, 62, 77
2, 47853, Note_on_c, 0, 62, 0
2, 47856, Note_on_c, 0, 67, 77
2, 47876, Note_on_c, 0, 67, 0
2, 47904, Note_on_c, 0, 58, 77
2, 47949, Note_on_c, 0, 58, 0
2, 47952, Note_on_c, 0, 62, 77
2, 47964, Note_on_c, 0, 62, 0
2, 47964, Note_on_c, 0, 60, 77
2, 47997, Note_on_c, 0, 60, 0
2, 48000, Note_on_c, 0, 58, 77
2, 48045, Note_on_c, 0, 58, 0
2, 48048, Note_on_c, 0, 62, 77
2, 48093, Note_on_c, 0, 62, 0
2, 48120, Note_on_c, 0, 58, 77
2, 48143, Note_on_c, 0, 58, 0
2, 48144, Note_on_c, 0, 62, 77
2, 48167, Note_on_c, 0, 62, 0
2, 48168, Note_on_c, 0, 67, 77
2, 48191, Note_on_c, 0, 67, 0
2, 48192, Note_on_c, 0, 70, 77
2, 48215, Note_on_c, 0, 70, 0
2, 48216, Note_on_c, 0, 67, 77
2, 48239, Note_on_c, 0, 67, 0
2, 48240, Note_on_c, 0, 70, 78
2, 48263, Note_on_c, 0, 70, 0
2, 48264, Note_on_c, 0, 74, 79
2, 48287, Note_on_c, 0, 74, 0
2, 48288, Note_on_c, 0, 79, 80
2, 48311, Note_on_c, 0, 79, 0
2, 48312, Note_on_c, 0, 74, 81
2, 48335, Note_on_c, 0, 74, 0
2, 48336, Note_on_c, 0, 70, 82
2, 48359, Note_on_c, 0, 70, 0
2, 48360, Note_on_c, 0, 67, 83
2, 48383, Note_on_c, 0, 67, 0
2, 48384, Note_on_c, 0, 69, 85
2, 48393, Note_on_c, 0, 73, 85
2, 48402, Note_on_c, 0, 76, 85
2, 48411, Note_on_c, 0, 81, 85
2, 48451, Note_on_c, 0, 81, 0
2, 48451, Note_on_c, 0, 76, 0
2, 48451, Note_on_c, 0, 73, 0
2, 48451, Note_on_c, 0, 69, 0
2, 48480, Note_on_c, 0, 64, 85
2, 48480, Note_on_c, 0, 61, 85
2, 48500, Note_on_c, 0, 64, 0
2, 48500, Note_on_c, 0, 61, 0
2, 48552, Note_on_c, 0, 64, 85
2, 48552, Note_on_c, 0, 61, 85
2, 48562, Note_on_c, 0, 64, 0
2, 48562, Note_on_c, 0, 61, 0
2, 48576, Note_on_c, 0, 64, 85
2, 48576, Note_on_c, 0, 61, 85
2, 48621, Note_on_c, 0, 64, 0
2, 48621, Note_on_c, 0, 61, 0
2, 48768, Note_on_c, 0, 74, 68
2, 48901, Note_on_c, 0, 74, 0
2, 48912, Note_on_c, 0, 77, 68
2, 48924, Note_on_c, 0, 77, 0
2, 48924, Note_on_c, 0, 76, 68
2, 48957, Note_on_c, 0, 76, 0
2, 48960, Note_on_c, 0, 74, 68
2, 49005, Note_on_c, 0, 74, 0
2, 49008, Note_on_c, 0, 81, 68
2, 49053, Note_on_c, 0, 81, 0
2, 49056, Note_on_c, 0, 74, 68
2, 49101, Note_on_c, 0, 74, 0
2, 49104, Note_on_c, 0, 77, 68
2, 49116, Note_on_c, 0, 77, 0
2, 49116, Note_on_c, 0, 75, 68
2, 49149, Note_on_c, 0, 75, 0
2, 49152, Note_on_c, 0, 74, 68
2, 49197, Note_on_c, 0, 74, 0
2, 49200, Note_on_c, 0, 81, 68
2, 49245, Note_on_c, 0, 81, 0
2, 49248, Note_on_c, 0, 74, 68
2, 49293, Note_on_c, 0, 74, 0
2, 49296, Note_on_c, 0, 77, 68
2, 49308, Note_on_c, 0, 77, 0
2, 49308, Note_on_c, 0, 76, 68
2, 49341, Note_on_c, 0, 76, 0
2, 49344, Note_on_c, 0, 74, 68
2, 49389, Note_on_c, 0, 74, 0
2, 49392, Note_on_c, 0, 77, 69
2, 49398, Note_on_c, 0, 77, 0
2, 49398, Note_on_c, 0, 75, 69
2, 49437, Note_on_c, 0, 75, 0
2, 49440, Note_on_c, 0, 74, 71
2, 49485, Note_on_c, 0, 74, 0
2, 49488, Note_on_c, 0, 77, 73
2, 49500, Note_on_c, 0, 77, 0
2, 49500, Note_on_c, 0, 76, 73
2, 49533, Note_on_c, 0, 76, 0
2, 49536, Note_on_c, 0, 74, 75
2, 49581, Note_on_c, 0, 74, 0
2, 49584, Note_on_c, 0, 77, 77
2, 49590, Note_on_c, 0, 77, 0
2, 49590, Note_on_c, 0, 75, 77
2, 49629, Note_on_c, 0, 75, 0
2, 49632, Note_on_c, 0, 74, 77
2, 49677, Note_on_c, 0, 74, 0
2, 49680, Note_on_c, 0, 81, 77
2, 49703, Note_on_c, 0, 81, 0
2, 49704, Note_on_c, 0, 79, 77
2, 49727, Note_on_c, 0, 79, 0
2, 49728, Note_on_c, 0, 78, 77
2, 49751, Note_on_c, 0, 78, 0
2, 49752, Note_on_c, 0, 75, 77
2, 49775, Note_on_c, 0, 75, 0
2, 49776, Note_on_c, 0, 74, 77
2, 49799, Note_on_c, 0, 74, 0
2, 49800, Note_on_c, 0, 75, 77
2, 49823, Note_on_c, 0, 75, 0
2, 49824, Note_on_c, 0, 74, 77
2, 49847, Note_on_c, 0, 74, 0
2, 49848, Note_on_c, 0, 72, 77
2, 49871, Note_on_c, 0, 72, 0
2, 49872, Note_on_c, 0, 70, 77
2, 49895, Note_on_c, 0, 70, 0
2, 49896, Note_on_c, 0, 69, 77
2, 49919, Note_on_c, 0, 69, 0
2, 49920, Note_on_c, 0, 67, 77
2, 50053, Note_on_c, 0, 67, 0
2, 50064, Note_on_c, 0, 70, 77
2, 50076, Note_on_c, 0, 70, 0
2, 50076, Note_on_c, 0, 69, 77
2, 50109, Note_on_c, 0, 69, 0
2, 50112, Note_on_c, 0, 67, 77
2, 50157, Note_on_c, 0, 67, 0
2, 50160, Note_on_c, 0, 74, 77
2, 50205, Note_on_c, 0, 74, 0
2, 50208, Note_on_c, 0, 67, 77
2, 50253, Note_on_c, 0, 67, 0
2, 50256, Note_on_c, 0, 70, 77
2, 50268, Note_on_c, 0, 70, 0
2, 50268, Note_on_c, 0, 68, 77
2, 50301, Note_on_c, 0, 68, 0
2, 50304, Note_on_c, 0, 67, 77
2, 50349, Note_on_c, 0, 67, 0
2, 50352, Note_on_c, 0, 74, 77
2, 50397, Note_on_c, 0, 74, 0
2, 50400, Note_on_c, 0, 67, 78
2, 50445, Note_on_c, 0, 67, 0
2, 50448, Note_on_c, 0, 70, 79
2, 50460, Note_on_c, 0, 70, 0
2, 50460, Note_on_c, 0, 69, 79
2, 50493, Note_on_c, 0, 69, 0
2, 50496, Note_on_c, 0, 67, 80
2, 50541, Note_on_c, 0, 67, 0
2, 50544, Note_on_c, 0, 70, 81
2, 50556, Note_on_c, 0, 70, 0
2, 50556, Note_on_c, 0, 68, 81
2, 50589, Note_on_c, 0, 68, 0
2, 50592, Note_on_c, 0, 67, 82
2, 50637, Note_on_c, 0, 67, 0
2, 50640, Note_on_c, 0, 70, 83
2, 50652, Note_on_c, 0, 70, 0
2, 50652, Note_on_c, 0, 69, 83
2, 50685, Note_on_c, 0, 69, 0
2, 50688, Note_on_c, 0, 67, 84
2, 50733, Note_on_c, 0, 67, 0
2, 50736, Note_on_c, 0, 70, 85
2, 50748, Note_on_c, 0, 70, 0
2, 50748, Note_on_c, 0, 68, 85
2, 50781, Note_on_c, 0, 68, 0
2, 50784, Note_on_c, 0, 67, 85
2, 50829, Note_on_c, 0, 67, 0
2, 50832, Note_on_c, 0, 77, 85
2, 50855, Note_on_c, 0, 77, 0
2, 50856, Note_on_c, 0, 75, 84
2, 50879, Note_on_c, 0, 75, 0
2, 50880, Note_on_c, 0, 74, 83
2, 50903, Note_on_c, 0, 74, 0
2, 50904, Note_on_c, 0, 72, 82
2, 50927, Note_on_c, 0, 72, 0
2, 50928, Note_on_c, 0, 71, 81
2, 50951, Note_on_c, 0, 71, 0
2, 50952, Note_on_c, 0, 68, 81
2, 50975, Note_on_c, 0, 68, 0
2, 50976, Note_on_c, 0, 67, 80
2, 50999, Note_on_c, 0, 67, 0
2, 51000, Note_on_c, 0, 65, 79
2, 51023, Note_on_c, 0, 65, 0
2, 51024, Note_on_c, 0, 63, 78
2, 51047, Note_on_c, 0, 63, 0
2, 51048, Note_on_c, 0, 62, 77
2, 51071, Note_on_c, 0, 62, 0
2, 51096, Control_c, 0, 64, 127
2, 51096, Note_on_c, 0, 67, 77
2, 51119, Note_on_c, 0, 67, 0
2, 51120, Note_on_c, 0, 72, 78
2, 51143, Note_on_c, 0, 72, 0
2, 51144, Note_on_c, 0, 75, 79
2, 51167, Note_on_c, 0, 75, 0
2, 51168, Note_on_c, 0, 79, 80
2, 51191, Note_on_c, 0, 79, 0
2, 51192, Note_on_c, 0, 72, 81
2, 51215, Note_on_c, 0, 72, 0
2, 51216, Note_on_c, 0, 75, 82
2, 51239, Note_on_c, 0, 75, 0
2, 51240, Note_on_c, 0, 79, 83
2, 51263, Note_on_c, 0, 79, 0
2, 51264, Note_on_c, 0, 84, 85
2, 51287, Note_on_c, 0, 84, 0
2, 51288, Note_on_c, 0, 79, 84
2, 51311, Note_on_c, 0, 79, 0
2, 51312, Note_on_c, 0, 75, 83
2, 51335, Note_on_c, 0, 75, 0
2, 51336, Note_on_c, 0, 72, 82
2, 51359, Note_on_c, 0, 72, 0
2, 51360, Note_on_c, 0, 79, 81
2, 51383, Note_on_c, 0, 79, 0
2, 51384, Note_on_c, 0, 75, 80
2, 51407, Note_on_c, 0, 75, 0
2, 51408, Note_on_c, 0, 72, 79
2, 51431, Note_on_c, 0, 72, 0
2, 51432, Note_on_c, 0, 67, 78
2, 51455, Note_on_c, 0, 67, 0
2, 51456, Control_c, 0, 64, 0
2, 51480, Control_c, 0, 64, 127
2, 51480, Note_on_c, 0, 67, 77
2, 51503, Note_on_c, 0, 67, 0
2, 51504, Note_on_c, 0, 72, 78
2, 51527, Note_on_c, 0, 72, 0
2, 51528, Note_on_c, 0, 76, 79
2, 51551, Note_on_c, 0, 76, 0
2, 51552, Note_on_c, 0, 79, 80
2, 51575, Note_on_c, 0, 79, 0
2, 51576, Note_on_c, 0, 72, 81
2, 51599, Note_on_c, 0, 72, 0
2, 51600, Note_on_c, 0, 76, 82
2, 51623, Note_on_c, 0, 76, 0
2, 51624, Note_on_c, 0, 79, 83
2, 51647, Note_on_c, 0, 79, 0
2, 51648, Note_on_c, 0, 84, 85
2, 51671, Note_on_c, 0, 84, 0
2, 51672, Note_on_c, 0, 79, 84
2, 51695, Note_on_c, 0, 79, 0
2, 51696, Note_on_c, 0, 76, 83
2, 51719, Note_on_c, 0, 76, 0
2, 51720, Note_on_c, 0, 72, 82
2, 51743, Note_on_c, 0, 72, 0
2, 51744, Note_on_c, 0, 79, 81
2, 51767, Note_on_c, 0, 79, 0
2, 51768, Note_on_c, 0, 76, 80
2, 51791, Note_on_c, 0, 76, 0
2, 51792, Note_on_c, 0, 72, 79
2, 51815, Note_on_c, 0, 72, 0
2, 51816, Note_on_c, 0, 67, 78
2, 51839, Note_on_c, 0, 67, 0
2, 51840, Control_c, 0, 64, 0
2, 51864, Control_c, 0, 64, 127
2, 51864, Note_on_c, 0, 67, 77
2, 51887, Note_on_c, 0, 67, 0
2, 51888, Note_on_c, 0, 73, 78
2, 51911, Note_on_c, 0, 73, 0
2, 51912, Note_on_c, 0, 76, 79
2, 51935, Note_on_c, 0, 76, 0
2, 51936, Note_on_c, 0, 79, 80
2, 51959, Note_on_c, 0, 79, 0
2, 51960, Note_on_c, 0, 76, 81
2, 51983, Note_on_c, 0, 76, 0
2, 51984, Note_on_c, 0, 79, 82
2, 52007, Note_on_c, 0, 79, 0
2, 52008, Note_on_c, 0, 85, 83
2, 52031, Note_on_c, 0, 85, 0
2, 52032, Note_on_c, 0, 88, 85
2, 52055, Note_on_c, 0, 88, 0
2, 52056, Note_on_c, 0, 85, 84
2, 52079, Note_on_c, 0, 85, 0
2, 52080, Note_on_c, 0, 79, 83
2, 52103, Note_on_c, 0, 79, 0
2, 52104, Note_on_c, 0, 76, 82
2, 52127, Note_on_c, 0, 76, 0
2, 52128, Note_on_c, 0, 79, 81
2, 52151, Note_on_c, 0, 79, 0
2, 52152, Note_on_c, 0, 76, 80
2, 52175, Note_on_c, 0, 76, 0
2, 52176, Note_on_c, 0, 73, 79
2, 52199, Note_on_c, 0, 73, 0
2, 52200, Note_on_c, 0, 67, 78
2, 52223, Note_on_c, 0, 67, 0
2, 52224, Control_c, 0, 64, 0
2, 52248, Control_c, 0, 64, 127
2, 52248, Note_on_c, 0, 69, 77
2, 52271, Note_on_c, 0, 69, 0
2, 52272, Note_on_c, 0, 74, 78
2, 52295, Note_on_c, 0, 74, 0
2, 52296, Note_on_c, 0, 77, 79
2, 52319, Note_on_c, 0, 77, 0
2, 52320, Note_on_c, 0, 81, 80
2, 52343, Note_on_c, 0, 81, 0
2, 52344, Note_on_c, 0, 74, 81
2, 52367, Note_on_c, 0, 74, 0
2, 52368, Note_on_c, 0, 77, 82
2, 52391, Note_on_c, 0, 77, 0
2, 52392, Note_on_c, 0, 81, 83
2, 52415, Note_on_c, 0, 81, 0
2, 52416, Note_on_c, 0, 86, 85
2, 52439, Note_on_c, 0, 86, 0
2, 52440, Note_on_c, 0, 81, 84
2, 52463, Note_on_c, 0, 81, 0
2, 52464, Note_on_c, 0, 77, 83
2, 52487, Note_on_c, 0, 77, 0
2, 52488, Note_on_c, 0, 74, 82
2, 52511, Note_on_c, 0, 74, 0
2, 52512, Note_on_c, 0, 81, 81
2, 52535, Note_on_c, 0, 81, 0
2, 52536, Note_on_c, 0, 77, 80
2, 52559, Note_on_c, 0, 77, 0
2, 52560, Note_on_c, 0, 74, 79
2, 52583, Note_on_c, 0, 74, 0
2, 52584, Note_on_c, 0, 69, 78
2, 52607, Note_on_c, 0, 69, 0
2, 52608, Control_c, 0, 64, 0
2, 52632, Control_c, 0, 64, 127
2, 52632, Note_on_c, 0, 69, 77
2, 52655, Note_on_c, 0, 69, 0
2, 52656, Note_on_c, 0, 73, 78
2, 52679, Note_on_c, 0, 73, 0
2, 52680, Note_on_c, 0, 76, 79
2, 52703, Note_on_c, 0, 76, 0
2, 52704, Note_on_c, 0, 81, 80
2, 52727, Note_on_c, 0, 81, 0
2, 52728, Note_on_c, 0, 76, 81
2, 52751, Note_on_c, 0, 76, 0
2, 52752, Note_on_c, 0, 73, 82
2, 52775, Note_on_c, 0, 73, 0
2, 52776, Note_on_c, 0, 69, 83
2, 52799, Note_on_c, 0, 69, 0
2, 52800, Note_on_c, 0, 76, 85
2, 52823, Note_on_c, 0, 76, 0
2, 52824, Note_on_c, 0, 73, 84
2, 52847, Note_on_c, 0, 73, 0
2, 52848, Note_on_c, 0, 69, 83
2, 52871, Note_on_c, 0, 69, 0
2, 52872, Note_on_c, 0, 64, 82
2, 52895, Note_on_c, 0, 64, 0
2, 52896, Note_on_c, 0, 69, 81
2, 52919, Note_on_c, 0, 69, 0
2, 52920, Note_on_c, 0, 64, 80
2, 52943, Note_on_c, 0, 64, 0
2, 52944, Note_on_c, 0, 61, 79
2, 52967, Note_on_c, 0, 61, 0
2, 52968, Note_on_c, 0, 57, 78
2, 52991, Note_on_c, 0, 57, 0
2, 53376, Control_c, 0, 64, 0
2, 53424, Note_on_c, 0, 62, 85
2, 53436, Note_on_c, 0, 62, 0
2, 53436, Note_on_c, 0, 65, 85
2, 53442, Note_on_c, 0, 65, 0
2, 53442, Note_on_c, 0, 69, 85
2, 53448, Note_on_c, 0, 69, 0
2, 53448, Note_on_c, 0, 74, 85
2, 53454, Note_on_c, 0, 74, 0
2, 53454, Note_on_c, 0, 77, 85
2, 53460, Note_on_c, 0, 77, 0
2, 53460, Note_on_c, 0, 81, 85
2, 53466, Note_on_c, 0, 81, 0
2, 53466, Note_on_c, 0, 85, 85
2, 53472, Note_on_c, 0, 85, 0
2, 53472, Note_on_c, 0, 86, 101
2, 53488, Note_on_c, 0, 86, 0
2, 53488, Note_on_c, 0, 81, 85
2, 53503, Note_on_c, 0, 81, 0
2, 53504, Note_on_c, 0, 77, 85
2, 53519, Note_on_c, 0, 77, 0
2, 53520, Note_on_c, 0, 82, 85
2, 53535, Note_on_c, 0, 82, 0
2, 53536, Note_on_c, 0, 79, 85
2, 53551, Note_on_c, 0, 79, 0
2, 53552, Note_on_c, 0, 74, 85
2, 53567, Note_on_c, 0, 74, 0
2, 53568, Note_on_c, 0, 81, 85
2, 53588, Note_on_c, 0, 81, 0
2, 53616, Note_on_c, 0, 62, 85
2, 53628, Note_on_c, 0, 62, 0
2, 53628, Note_on_c, 0, 65, 85
2, 53634, Note_on_c, 0, 65, 0
2, 53634, Note_on_c, 0, 69, 85
2, 53640, Note_on_c, 0, 69, 0
2, 53640, Note_on_c, 0, 74, 85
2, 53646, Note_on_c, 0, 74, 0
2, 53646, Note_on_c, 0, 77, 85
2, 53652, Note_on_c, 0, 77, 0
2, 53652, Note_on_c, 0, 81, 85
2, 53658, Note_on_c, 0, 81, 0
2, 53658, Note_on_c, 0, 85, 85
2, 53664, Note_on_c, 0, 85, 0
2, 53664, Note_on_c, 0, 86, 101
2, 53680, Note_on_c, 0, 86, 0
2, 53680, Note_on_c, 0, 81, 85
2, 53695, Note_on_c, 0, 81, 0
2, 53696, Note_on_c, 0, 77, 85
2, 53711, Note_on_c, 0, 77, 0
2, 53712, Note_on_c, 0, 82, 85
2, 53727, Note_on_c, 0, 82, 0
2, 53728, Note_on_c, 0, 79, 85
2, 53743, Note_on_c, 0, 79, 0
2, 53744, Note_on_c, 0, 74, 85
2, 53759, Note_on_c, 0, 74, 0
2, 53760, Note_on_c, 0, 81, 85
2, 53780, Note_on_c, 0, 81, 0
2, 53808, Note_on_c, 0, 62, 85
2, 53820, Note_on_c, 0, 62, 0
2, 53820, Note_on_c, 0, 65, 85
2, 53826, Note_on_c, 0, 65, 0
2, 53826, Note_on_c, 0, 69, 85
2, 53832, Note_on_c, 0, 69, 0
2, 53832, Note_on_c, 0, 74, 85
2, 53838, Note_on_c, 0, 74, 0
2, 53838, Note_on_c, 0, 77, 85
2, 53844, Note_on_c, 0, 77, 0
2, 53844, Note_on_c, 0, 81, 85
2, 53850, Note_on_c, 0, 81, 0
2, 53850, Note_on_c, 0, 85, 85
2, 53856, Note_on_c, 0, 85, 0
2, 53856, Note_on_c, 0, 86, 101
2, 53872, Note_on_c, 0, 86, 0
2, 53872, Note_on_c, 0, 81, 85
2, 53887, Note_on_c, 0, 81, 0
2, 53888, Note_on_c, 0, 77, 85
2, 53903, Note_on_c, 0, 77, 0
2, 53904, Note_on_c, 0, 84, 85
2, 53919, Note_on_c, 0, 84, 0
2, 53920, Note_on_c, 0, 81, 85
2, 53935, Note_on_c, 0, 81, 0
2, 53936, Note_on_c, 0, 74, 85
2, 53951, Note_on_c, 0, 74, 0
2, 53952, Note_on_c, 0, 82, 85
2, 53972, Note_on_c, 0, 82, 0
2, 54240, Control_c, 0, 64, 127
2, 54240, Note_on_c, 0, 70, 85
2, 54263, Note_on_c, 0, 70, 0
2, 54264, Note_on_c, 0, 74, 85
2, 54287, Note_on_c, 0, 74, 0
2, 54288, Note_on_c, 0, 75, 85
2, 54311, Note_on_c, 0, 75, 0
2, 54312, Note_on_c, 0, 79, 85
2, 54335, Note_on_c, 0, 79, 0
2, 54336, Note_on_c, 0, 82, 85
2, 54359, Note_on_c, 0, 82, 0
2, 54360, Control_c, 0, 64, 0
2, 54360, Note_on_c, 0, 81, 85
2, 54383, Note_on_c, 0, 81, 0
2, 54384, Note_on_c, 0, 79, 85
2, 54407, Note_on_c, 0, 79, 0
2, 54408, Note_on_c, 0, 77, 85
2, 54431, Note_on_c, 0, 77, 0
2, 54432, Control_c, 0, 64, 127
2, 54432, Note_on_c, 0, 75, 85
2, 54455, Note_on_c, 0, 75, 0
2, 54456, Note_on_c, 0, 82, 85
2, 54479, Note_on_c, 0, 82, 0
2, 54480, Note_on_c, 0, 75, 85
2, 54503, Note_on_c, 0, 75, 0
2, 54504, Note_on_c, 0, 82, 85
2, 54527, Note_on_c, 0, 82, 0
2, 54528, Note_on_c, 0, 75, 85
2, 54551, Note_on_c, 0, 75, 0
2, 54552, Note_on_c, 0, 82, 85
2, 54575, Note_on_c, 0, 82, 0
2, 54576, Note_on_c, 0, 74, 85
2, 54599, Note_on_c, 0, 74, 0
2, 54600, Note_on_c, 0, 82, 85
2, 54623, Note_on_c, 0, 82, 0
2, 54624, Note_on_c, 0, 75, 85
2, 54647, Note_on_c, 0, 75, 0
2, 54648, Note_on_c, 0, 82, 85
2, 54671, Note_on_c, 0, 82, 0
2, 54672, Note_on_c, 0, 74, 85
2, 54695, Note_on_c, 0, 74, 0
2, 54696, Note_on_c, 0, 82, 85
2, 54719, Note_on_c, 0, 82, 0
2, 54720, Control_c, 0, 64, 0
2, 54720, Note_on_c, 0, 73, 85
2, 54740, Note_on_c, 0, 73, 0
2, 54768, Note_on_c, 0, 82, 85
2, 54788, Note_on_c, 0, 82, 0
2, 54960, Note_on_c, 0, 86, 85
2, 54980, Note_on_c, 0, 86, 0
2, 55008, Note_on_c, 0, 89, 85
2, 55028, Note_on_c, 0, 89, 0
2, 55152, Note_on_c, 0, 70, 85
2, 55172, Note_on_c, 0, 70, 0
2, 55248, Note_on_c, 0, 61, 85
2, 55268, Note_on_c, 0, 61, 0
2, 55344, Note_on_c, 0, 86, 85
2, 55364, Note_on_c, 0, 86, 0
2, 55392, Note_on_c, 0, 89, 85
2, 55412, Note_on_c, 0, 89, 0
2, 55536, Note_on_c, 0, 70, 85
2, 55556, Note_on_c, 0, 70, 0
2, 55632, Note_on_c, 0, 61, 85
2, 55652, Note_on_c, 0, 61, 0
2, 55728, Note_on_c, 0, 62, 51
2, 55748, Note_on_c, 0, 62, 0
2, 55776, Note_on_c, 0, 62, 51
2, 55796, Note_on_c, 0, 62, 0
2, 55824, Note_on_c, 0, 62, 52
2, 55844, Note_on_c, 0, 62, 0
2, 55872, Note_on_c, 0, 62, 52
2, 55892, Note_on_c, 0, 62, 0
2, 55920, Note_on_c, 0, 62, 53
2, 55940, Note_on_c, 0, 62, 0
2, 55968, Note_on_c, 0, 62, 53
2, 55988, Note_on_c, 0, 62, 0
2, 56016, Note_on_c, 0, 62, 54
2, 56036, Note_on_c, 0, 62, 0
2, 56112, Note_on_c, 0, 62, 55
2, 56132, Note_on_c, 0, 62, 0
2, 56208, Note_on_c, 0, 62, 56
2, 56228, Note_on_c, 0, 62, 0
2, 56304, Note_on_c, 0, 62, 57
2, 56324, Note_on_c, 0, 62, 0
2, 56400, Note_on_c, 0, 62, 58
2, 56420, Note_on_c, 0, 62, 0
2, 56472, Note_on_c, 0, 62, 59
2, 56482, Note_on_c, 0, 62, 0
2, 56520, Note_on_c, 0, 62, 60
2, 56530, Note_on_c, 0, 62, 0
2, 56568, Note_on_c, 0, 62, 60
2, 56578, Note_on_c, 0, 62, 0
2, 56616, Note_on_c, 0, 62, 61
2, 56626, Note_on_c, 0, 62, 0
2, 56664, Note_on_c, 0, 62, 61
2, 56674, Note_on_c, 0, 62, 0
2, 56712, Note_on_c, 0, 62, 62
2, 56722, Note_on_c, 0, 62, 0
2, 56760, Note_on_c, 0, 62, 62
2, 56770, Note_on_c, 0, 62, 0
2, 56808, Note_on_c, 0, 62, 63
2, 56818, Note_on_c, 0, 62, 0
2, 56856, Note_on_c, 0, 62, 63
2, 56866, Note_on_c, 0, 62, 0
2, 56904, Note_on_c, 0, 62, 64
2, 56914, Note_on_c, 0, 62, 0
2, 56952, Note_on_c, 0, 62, 64
2, 56962, Note_on_c, 0, 62, 0
2, 57000, Note_on_c, 0, 62, 65
2, 57010, Note_on_c, 0, 62, 0
2, 57048, Note_on_c, 0, 60, 66
2, 57058, Note_on_c, 0, 60, 0
2, 57096, Note_on_c, 0, 60, 66
2, 57106, Note_on_c, 0, 60, 0
2, 57144, Note_on_c, 0, 60, 67
2, 57154, Note_on_c, 0, 60, 0
2, 57192, Note_on_c, 0, 60, 67
2, 57202, Note_on_c, 0, 60, 0
2, 57216, Note_on_c, 0, 57, 85
2, 57224, Note_on_c, 0, 60, 85
2, 57232, Note_on_c, 0, 65, 85
2, 57261, Note_on_c, 0, 65, 0
2, 57261, Note_on_c, 0, 60, 0
2, 57261, Note_on_c, 0, 57, 0
2, 57312, Note_on_c, 0, 60, 85
2, 57312, Note_on_c, 0, 57, 85
2, 57332, Note_on_c, 0, 60, 0
2, 57332, Note_on_c, 0, 57, 0
2, 57384, Note_on_c, 0, 60, 85
2, 57384, Note_on_c, 0, 57, 85
2, 57394, Note_on_c, 0, 60, 0
2, 57394, Note_on_c, 0, 57, 0
2, 57408, Note_on_c, 0, 60, 85
2, 57408, Note_on_c, 0, 57, 85
2, 57453, Note_on_c, 0, 60, 0
2, 57453, Note_on_c, 0, 57, 0
2, 57600, Note_on_c, 0, 72, 77
2, 57741, Note_on_c, 0, 72, 0
2, 57744, Note_on_c, 0, 76, 77
2, 57756, Note_on_c, 0, 76, 0
2, 57756, Note_on_c, 0, 74, 77
2, 57789, Note_on_c, 0, 74, 0
2, 57792, Note_on_c, 0, 72, 77
2, 57840, Note_on_c, 0, 72, 0
2, 57840, Note_on_c, 0, 77, 77
2, 57860, Note_on_c, 0, 77, 0
2, 57888, Note_on_c, 0, 69, 77
2, 57933, Note_on_c, 0, 69, 0
2, 57936, Note_on_c, 0, 72, 77
2, 57948, Note_on_c, 0, 72, 0
2, 57948, Note_on_c, 0, 70, 77
2, 57981, Note_on_c, 0, 70, 0
2, 57984, Note_on_c, 0, 69, 77
2, 58032, Note_on_c, 0, 69, 0
2, 58032, Note_on_c, 0, 72, 77
2, 58052, Note_on_c, 0, 72, 0
2, 58080, Note_on_c, 0, 65, 77
2, 58100, Note_on_c, 0, 65, 0
2, 58128, Note_on_c, 0, 65, 77
2, 58148, Note_on_c, 0, 65, 0
2, 58176, Note_on_c, 0, 65, 77
2, 58316, Note_on_c, 0, 65, 0
2, 58320, Note_on_c, 0, 69, 77
2, 58332, Note_on_c, 0, 69, 0
2, 58332, Note_on_c, 0, 67, 77
2, 58365, Note_on_c, 0, 67, 0
2, 58368, Note_on_c, 0, 65, 77
2, 58388, Note_on_c, 0, 65, 0
2, 58656, Note_on_c, 0, 72, 68
2, 58656, Note_on_c, 0, 69, 68
2, 58701, Note_on_c, 0, 72, 0
2, 58701, Note_on_c, 0, 69, 0
2, 58704, Note_on_c, 0, 76, 68
2, 58716, Note_on_c, 0, 76, 0
2, 58716, Note_on_c, 0, 74, 68
2, 58716, Note_on_c, 0, 70, 68
2, 58749, Note_on_c, 0, 74, 0
2, 58749, Note_on_c, 0, 70, 0
2, 58752, Note_on_c, 0, 72, 68
2, 58797, Note_on_c, 0, 72, 0
2, 58800, Note_on_c, 0, 77, 68
2, 58820, Note_on_c, 0, 77, 0
2, 58848, Note_on_c, 0, 72, 68
2, 58893, Note_on_c, 0, 72, 0
2, 58896, Note_on_c, 0, 77, 70
2, 58908, Note_on_c, 0, 77, 0
2, 58908, Note_on_c, 0, 75, 70
2, 58941, Note_on_c, 0, 75, 0
2, 58944, Note_on_c, 0, 74, 72
2, 59033, Note_on_c, 0, 74, 0
2, 59040, Note_on_c, 0, 74, 77
2, 59085, Note_on_c, 0, 74, 0
2, 59088, Note_on_c, 0, 77, 77
2, 59100, Note_on_c, 0, 77, 0
2, 59100, Note_on_c, 0, 76, 77
2, 59133, Note_on_c, 0, 76, 0
2, 59136, Note_on_c, 0, 74, 77
2, 59181, Note_on_c, 0, 74, 0
2, 59184, Note_on_c, 0, 79, 77
2, 59204, Note_on_c, 0, 79, 0
2, 59232, Note_on_c, 0, 74, 77
2, 59277, Note_on_c, 0, 74, 0
2, 59280, Note_on_c, 0, 79, 79
2, 59292, Note_on_c, 0, 79, 0
2, 59292, Note_on_c, 0, 77, 79
2, 59325, Note_on_c, 0, 77, 0
2, 59328, Note_on_c, 0, 76, 81
2, 59417, Note_on_c, 0, 76, 0
2, 59424, Note_on_c, 0, 81, 85
2, 59472, Note_on_c, 0, 81, 0
2, 59472, Note_on_c, 0, 80, 85
2, 59517, Note_on_c, 0, 80, 0
2, 59520, Note_on_c, 0, 81, 85
2, 59653, Note_on_c, 0, 81, 0
2, 59664, Note_on_c, 0, 79, 77
2, 59753, Note_on_c, 0, 79, 0
2, 59760, Note_on_c, 0, 78, 77
2, 59805, Note_on_c, 0, 78, 0
2, 59808, Note_on_c, 0, 84, 77
2, 59949, Note_on_c, 0, 84, 0
2, 59952, Note_on_c, 0, 82, 77
2, 60041, Note_on_c, 0, 82, 0
2, 60048, Note_on_c, 0, 81, 77
2, 60137, Note_on_c, 0, 81, 0
2, 60144, Note_on_c, 0, 79, 77
2, 60189, Note_on_c, 0, 79, 0
2, 60192, Note_on_c, 0, 82, 77
2, 60333, Note_on_c, 0, 82, 0
2, 60336, Note_on_c, 0, 81, 77
2, 60425, Note_on_c, 0, 81, 0
2, 60432, Note_on_c, 0, 79, 77
2, 60521, Note_on_c, 0, 79, 0
2, 60528, Note_on_c, 0, 77, 77
2, 60573, Note_on_c, 0, 77, 0
2, 60576, Note_on_c, 0, 84, 77
2, 60599, Note_on_c, 0, 84, 0
2, 60600, Note_on_c, 0, 81, 77
2, 60623, Note_on_c, 0, 81, 0
2, 60624, Note_on_c, 0, 79, 77
2, 60647, Note_on_c, 0, 79, 0
2, 60648, Note_on_c, 0, 77, 77
2, 60671, Note_on_c, 0, 77, 0
2, 60672, Note_on_c, 0, 81, 77
2, 60684, Note_on_c, 0, 81, 0
2, 60684, Note_on_c, 0, 79, 77
2, 60720, Note_on_c, 0, 79, 0
2, 60720, Note_on_c, 0, 77, 77
2, 60765, Note_on_c, 0, 77, 0
2, 60768, Note_on_c, 0, 84, 77
2, 60791, Note_on_c, 0, 84, 0
2, 60792, Note_on_c, 0, 81, 77
2, 60815, Note_on_c, 0, 81, 0
2, 60816, Note_on_c, 0, 79, 77
2, 60839, Note_on_c, 0, 79, 0
2, 60840, Note_on_c, 0, 77, 77
2, 60863, Note_on_c, 0, 77, 0
2, 60864, Note_on_c, 0, 81, 77
2, 60876, Note_on_c, 0, 81, 0
2, 60876, Note_on_c, 0, 79, 77
2, 60912, Note_on_c, 0, 79, 0
2, 60912, Note_on_c, 0, 77, 77
2, 60957, Note_on_c, 0, 77, 0
2, 60960, Note_on_c, 0, 84, 77
2, 61056, Note_on_c, 0, 84, 0
2, 61056, Note_on_c, 0, 83, 77
2, 61101, Note_on_c, 0, 83, 0
2, 61104, Note_on_c, 0, 77, 77
2, 61152, Note_on_c, 0, 77, 0
2, 61152, Note_on_c, 0, 76, 77
2, 61197, Note_on_c, 0, 76, 0
2, 61200, Note_on_c, 0, 82, 77
2, 61248, Note_on_c, 0, 82, 0
2, 61248, Note_on_c, 0, 81, 77
2, 61293, Note_on_c, 0, 81, 0
2, 61296, Note_on_c, 0, 75, 77
2, 61344, Note_on_c, 0, 75, 0
2, 61344, Note_on_c, 0, 74, 77
2, 61389, Note_on_c, 0, 74, 0
2, 61392, Note_on_c, 0, 85, 77
2, 61440, Note_on_c, 0, 85, 0
2, 61440, Note_on_c, 0, 86, 77
2, 61485, Note_on_c, 0, 86, 0
2, 61488, Note_on_c, 0, 88, 77
2, 61498, Note_on_c, 0, 88, 0
2, 61498, Note_on_c, 0, 86, 77
2, 61508, Note_on_c, 0, 86, 0
2, 61508, Note_on_c, 0, 84, 77
2, 61518, Note_on_c, 0, 84, 0
2, 61518, Note_on_c, 0, 86, 77
2, 61527, Note_on_c, 0, 86, 0
2, 61527, Note_on_c, 0, 88, 77
2, 61536, Note_on_c, 0, 88, 0
2, 61536, Note_on_c, 0, 89, 77
2, 61581, Note_on_c, 0, 89, 0
2, 61584, Note_on_c, 0, 89, 77
2, 61629, Note_on_c, 0, 89, 0
2, 61632, Note_on_c, 0, 89, 77
2, 61652, Note_on_c, 0, 89, 0
2, 61728, Note_on_c, 0, 74, 77
2, 61748, Note_on_c, 0, 74, 0
2, 61824, Note_on_c, 0, 64, 77
2, 61844, Note_on_c, 0, 64, 0
2, 61920, Note_on_c, 0, 48, 77
2, 62009, Note_on_c, 0, 48, 0
2, 62280, Note_on_c, 0, 65, 85
2, 62286, Note_on_c, 0, 65, 0
2, 62286, Note_on_c, 0, 69, 85
2, 62292, Note_on_c, 0, 69, 0
2, 62292, Note_on_c, 0, 72, 85
2, 62298, Note_on_c, 0, 72, 0
2, 62298, Note_on_c, 0, 76, 85
2, 62304, Note_on_c, 0, 76, 0
2, 62304, Note_on_c, 0, 77, 101
2, 62320, Note_on_c, 0, 77, 0
2, 62320, Note_on_c, 0, 72, 85
2, 62335, Note_on_c, 0, 72, 0
2, 62336, Note_on_c, 0, 69, 85
2, 62351, Note_on_c, 0, 69, 0
2, 62352, Note_on_c, 0, 74, 85
2, 62367, Note_on_c, 0, 74, 0
2, 62368, Note_on_c, 0, 70, 85
2, 62383, Note_on_c, 0, 70, 0
2, 62384, Note_on_c, 0, 65, 85
2, 62399, Note_on_c, 0, 65, 0
2, 62400, Note_on_c, 0, 72, 85
2, 62420, Note_on_c, 0, 72, 0
2, 62472, Note_on_c, 0, 65, 85
2, 62478, Note_on_c, 0, 65, 0
2, 62478, Note_on_c, 0, 69, 85
2, 62484, Note_on_c, 0, 69, 0
2, 62484, Note_on_c, 0, 72, 85
2, 62490, Note_on_c, 0, 72, 0
2, 62490, Note_on_c, 0, 76, 85
2, 62496, Note_on_c, 0, 76, 0
2, 62496, Note_on_c, 0, 77, 101
2, 62512, Note_on_c, 0, 77, 0
2, 62512, Note_on_c, 0, 72, 85
2, 62527, Note_on_c, 0, 72, 0
2, 62528, Note_on_c, 0, 69, 85
2, 62543, Note_on_c, 0, 69, 0
2, 62544, Note_on_c, 0, 74, 85
2, 62559, Note_on_c, 0, 74, 0
2, 62560, Note_on_c, 0, 70, 85
2, 62575, Note_on_c, 0, 70, 0
2, 62576, Note_on_c, 0, 65, 85
2, 62591, Note_on_c, 0, 65, 0
2, 62592, Note_on_c, 0, 72, 85
2, 62612, Note_on_c, 0, 72, 0
2, 62664, Note_on_c, 0, 65, 85
2, 62670, Note_on_c, 0, 65, 0
2, 62670, Note_on_c, 0, 69, 85
2, 62676, Note_on_c, 0, 69, 0
2, 62676, Note_on_c, 0, 72, 85
2, 62682, Note_on_c, 0, 72, 0
2, 62682, Note_on_c, 0, 76, 85
2, 62688, Note_on_c, 0, 76, 0
2, 62688, Note_on_c, 0, 77, 101
2, 62704, Note_on_c, 0, 77, 0
2, 62704, Note_on_c, 0, 72, 85
2, 62719, Note_on_c, 0, 72, 0
2, 62720, Note_on_c, 0, 69, 85
2, 62735, Note_on_c, 0, 69, 0
2, 62736, Note_on_c, 0, 74, 85
2, 62751, Note_on_c, 0, 74, 0
2, 62752, Note_on_c, 0, 70, 85
2, 62767, Note_on_c, 0, 70, 0
2, 62768, Note_on_c, 0, 65, 85
2, 62783, Note_on_c, 0, 65, 0
2, 62784, Note_on_c, 0, 72, 85
2, 62804, Note_on_c, 0, 72, 0
2, 62832, Note_on_c, 0, 72, 85
2, 62838, Note_on_c, 0, 72, 0
2, 62838, Note_on_c, 0, 77, 85
2, 62844, Note_on_c, 0, 77, 0
2, 62844, Note_on_c, 0, 81, 85
2, 62878, Note_on_c, 0, 81, 0
2, 62880, Note_on_c, 0, 79, 85
2, 62892, Note_on_c, 0, 79, 0
2, 62892, Note_on_c, 0, 77, 85
2, 62926, Note_on_c, 0, 77, 0
2, 62928, Note_on_c, 0, 76, 85
2, 62940, Note_on_c, 0, 76, 0
2, 62940, Note_on_c, 0, 74, 85
2, 62974, Note_on_c, 0, 74, 0
2, 62976, Note_on_c, 0, 72, 85
2, 63024, Note_on_c, 0, 72, 0
2, 63024, Note_on_c, 0, 71, 83
2, 63069, Note_on_c, 0, 71, 0
2, 63072, Note_on_c, 0, 70, 81
2, 63161, Note_on_c, 0, 70, 0
2, 63168, Note_on_c, 0, 69, 77
2, 63213, Note_on_c, 0, 69, 0
2, 63216, Note_on_c, 0, 73, 77
2, 63228, Note_on_c, 0, 73, 0
2, 63228, Note_on_c, 0, 74, 77
2, 63262, Note_on_c, 0, 74, 0
2, 63264, Note_on_c, 0, 72, 77
2, 63276, Note_on_c, 0, 72, 0
2, 63276, Note_on_c, 0, 70, 77
2, 63310, Note_on_c, 0, 70, 0
2, 63312, Note_on_c, 0, 69, 77
2, 63324, Note_on_c, 0, 69, 0
2, 63324, Note_on_c, 0, 67, 77
2, 63358, Note_on_c, 0, 67, 0
2, 63360, Note_on_c, 0, 65, 77
2, 63493, Note_on_c, 0, 65, 0
2, 63504, Note_on_c, 0, 69, 70
2, 63516, Note_on_c, 0, 69, 0
2, 63516, Note_on_c, 0, 67, 70
2, 63549, Note_on_c, 0, 67, 0
2, 63552, Note_on_c, 0, 65, 68
2, 63572, Note_on_c, 0, 65, 0
2, 63624, Note_on_c, 0, 65, 85
2, 63630, Note_on_c, 0, 65, 0
2, 63630, Note_on_c, 0, 69, 85
2, 63636, Note_on_c, 0, 69, 0
2, 63636, Note_on_c, 0, 72, 85
2, 63642, Note_on_c, 0, 72, 0
2, 63642, Note_on_c, 0, 76, 85
2, 63648, Note_on_c, 0, 76, 0
2, 63648, Note_on_c, 0, 77, 101
2, 63664, Note_on_c, 0, 77, 0
2, 63664, Note_on_c, 0, 72, 85
2, 63679, Note_on_c, 0, 72, 0
2, 63680, Note_on_c, 0, 69, 85
2, 63695, Note_on_c, 0, 69, 0
2, 63696, Note_on_c, 0, 74, 85
2, 63711, Note_on_c, 0, 74, 0
2, 63712, Note_on_c, 0, 70, 85
2, 63727, Note_on_c, 0, 70, 0
2, 63728, Note_on_c, 0, 65, 85
2, 63743, Note_on_c, 0, 65, 0
2, 63744, Note_on_c, 0, 72, 85
2, 63764, Note_on_c, 0, 72, 0
2, 63816, Note_on_c, 0, 65, 85
2, 63822, Note_on_c, 0, 65, 0
2, 63822, Note_on_c, 0, 69, 85
2, 63828, Note_on_c, 0, 69, 0
2, 63828, Note_on_c, 0, 72, 85
2, 63834, Note_on_c, 0, 72, 0
2, 63834, Note_on_c, 0, 76, 85
2, 63840, Note_on_c, 0, 76, 0
2, 63840, Note_on_c, 0, 77, 101
2, 63856, Note_on_c, 0, 77, 0
2, 63856, Note_on_c, 0, 72, 85
2, 63871, Note_on_c, 0, 72, 0
2, 63872, Note_on_c, 0, 69, 85
2, 63887, Note_on_c, 0, 69, 0
2, 63888, Note_on_c, 0, 74, 85
2, 63903, Note_on_c, 0, 74, 0
2, 63904, Note_on_c, 0, 70, 85
2, 63919, Note_on_c, 0, 70, 0
2, 63920, Note_on_c, 0, 65, 85
2, 63935, Note_on_c, 0, 65, 0
2, 63936, Note_on_c, 0, 72, 85
2, 63956, Note_on_c, 0, 72, 0
2, 64008, Note_on_c, 0, 65, 85
2, 64014, Note_on_c, 0, 65, 0
2, 64014, Note_on_c, 0, 67, 85
2, 64020, Note_on_c, 0, 67, 0
2, 64020, Note_on_c, 0, 71, 85
2, 64026, Note_on_c, 0, 71, 0
2, 64026, Note_on_c, 0, 74, 85
2, 64032, Note_on_c, 0, 74, 0
2, 64032, Note_on_c, 0, 77, 101
2, 64052, Note_on_c, 0, 77, 0
2, 64080, Note_on_c, 0, 72, 85
2, 64088, Note_on_c, 0, 72, 0
2, 64088, Note_on_c, 0, 71, 85
2, 64096, Note_on_c, 0, 71, 0
2, 64096, Note_on_c, 0, 72, 85
2, 64104, Note_on_c, 0, 72, 0
2, 64104, Note_on_c, 0, 71, 85
2, 64112, Note_on_c, 0, 71, 0
2, 64112, Note_on_c, 0, 69, 85
2, 64120, Note_on_c, 0, 69, 0
2, 64120, Note_on_c, 0, 71, 85
2, 64128, Note_on_c, 0, 71, 0
2, 64128, Note_on_c, 0, 72, 85
2, 64148, Note_on_c, 0, 72, 0
2, 64200, Note_on_c, 0, 70, 85
2, 64208, Note_on_c, 0, 70, 0
2, 64208, Note_on_c, 0, 72, 85
2, 64216, Note_on_c, 0, 72, 0
2, 64216, Note_on_c, 0, 76, 85
2, 64224, Note_on_c, 0, 76, 0
2, 64224, Note_on_c, 0, 79, 101
2, 64244, Note_on_c, 0, 79, 0
2, 64272, Note_on_c, 0, 72, 85
2, 64280, Note_on_c, 0, 72, 0
2, 64280, Note_on_c, 0, 70, 85
2, 64288, Note_on_c, 0, 70, 0
2, 64288, Note_on_c, 0, 72, 85
2, 64296, Note_on_c, 0, 72, 0
2, 64296, Note_on_c, 0, 70, 85
2, 64304, Note_on_c, 0, 70, 0
2, 64304, Note_on_c, 0, 69, 85
2, 64312, Note_on_c, 0, 69, 0
2, 64312, Note_on_c, 0, 70, 85
2, 64320, Note_on_c, 0, 70, 0
2, 64320, Note_on_c, 0, 69, 85
2, 64365, Note_on_c, 0, 69, 0
2, 64392, Note_on_c, 0, 67, 85
2, 64400, Note_on_c, 0, 67, 0
2, 64400, Note_on_c, 0, 69, 85
2, 64408, Note_on_c, 0, 69, 0
2, 64408, Note_on_c, 0, 70, 85
2, 64416, Note_on_c, 0, 70, 0
2, 64416, Note_on_c, 0, 74, 101
2, 64436, Note_on_c, 0, 74, 0
2, 64464, Note_on_c, 0, 67, 85
2, 64472, Note_on_c, 0, 67, 0
2, 64472, Note_on_c, 0, 65, 85
2, 64480, Note_on_c, 0, 65, 0
2, 64480, Note_on_c, 0, 67, 85
2, 64488, Note_on_c, 0, 67, 0
2, 64488, Note_on_c, 0, 65, 85
2, 64496, Note_on_c, 0, 65, 0
2, 64496, Note_on_c, 0, 64, 85
2, 64504, Note_on_c, 0, 64, 0
2, 64504, Note_on_c, 0, 65, 85
2, 64512, Note_on_c, 0, 65, 0
2, 64512, Note_on_c, 0, 64, 85
2, 64532, Note_on_c, 0, 64, 0
2, 64560, Note_on_c, 0, 60, 60
2, 64580, Note_on_c, 0, 60, 0
2, 64608, Note_on_c, 0, 60, 61
2, 64628, Note_on_c, 0, 60, 0
2, 64656, Note_on_c, 0, 60, 62
2, 64676, Note_on_c, 0, 60, 0
2, 64704, Note_on_c, 0, 60, 63
2, 64724, Note_on_c, 0, 60, 0
2, 64752, Note_on_c, 0, 60, 65
2, 64772, Note_on_c, 0, 60, 0
2, 64800, Note_on_c, 0, 60, 66
2, 64820, Note_on_c, 0, 60, 0
2, 64848, Note_on_c, 0, 60, 67
2, 64868, Note_on_c, 0, 60, 0
2, 64944, Note_on_c, 0, 60, 70
2, 64964, Note_on_c, 0, 60, 0
2, 65040, Note_on_c, 0, 60, 73
2, 65060, Note_on_c, 0, 60, 0
2, 65136, Note_on_c, 0, 60, 75
2, 65156, Note_on_c, 0, 60, 0
2, 65232, Note_on_c, 0, 60, 78
2, 65252, Note_on_c, 0, 60, 0
2, 65304, Note_on_c, 0, 60, 80
2, 65314, Note_on_c, 0, 60, 0
2, 65352, Note_on_c, 0, 60, 81
2, 65362, Note_on_c, 0, 60, 0
2, 65400, Note_on_c, 0, 60, 83
2, 65410, Note_on_c, 0, 60, 0
2, 65448, Note_on_c, 0, 60, 84
2, 65458, Note_on_c, 0, 60, 0
2, 65496, Note_on_c, 0, 60, 85
2, 65506, Note_on_c, 0, 60, 0
2, 65544, Note_on_c, 0, 60, 85
2, 65554, Note_on_c, 0, 60, 0
2, 65592, Note_on_c, 0, 60, 85
2, 65602, Note_on_c, 0, 60, 0
2, 65640, Note_on_c, 0, 60, 85
2, 65650, Note_on_c, 0, 60, 0
2, 65680, Note_on_c, 0, 64, 85
2, 65695, Note_on_c, 0, 64, 0
2, 65696, Note_on_c, 0, 65, 85
2, 65711, Note_on_c, 0, 65, 0
2, 65712, Note_on_c, 0, 67, 85
2, 65727, Note_on_c, 0, 67, 0
2, 65728, Note_on_c, 0, 65, 85
2, 65743, Note_on_c, 0, 65, 0
2, 65744, Note_on_c, 0, 64, 85
2, 65759, Note_on_c, 0, 64, 0
2, 65760, Note_on_c, 0, 70, 85
2, 65775, Note_on_c, 0, 70, 0
2, 65776, Note_on_c, 0, 68, 85
2, 65791, Note_on_c, 0, 68, 0
2, 65792, Note_on_c, 0, 67, 85
2, 65807, Note_on_c, 0, 67, 0
2, 65808, Note_on_c, 0, 73, 85
2, 65823, Note_on_c, 0, 73, 0
2, 65824, Note_on_c, 0, 72, 85
2, 65839, Note_on_c, 0, 72, 0
2, 65840, Note_on_c, 0, 70, 85
2, 65855, Note_on_c, 0, 70, 0
2, 65856, Note_on_c, 0, 79, 85
2, 65876, Note_on_c, 0, 79, 0
2, 65904, Note_on_c, 0, 70, 83
2, 65924, Note_on_c, 0, 70, 0
2, 65952, Note_on_c, 0, 73, 81
2, 65972, Note_on_c, 0, 73, 0
2, 66000, Note_on_c, 0, 64, 79
2, 66020, Note_on_c, 0, 64, 0
2, 66048, Note_on_c, 0, 67, 77
2, 66071, Note_on_c, 0, 67, 0
2, 66072, Note_on_c, 0, 65, 81
2, 66095, Note_on_c, 0, 65, 0
2, 66096, Note_on_c, 0, 71, 85
2, 66119, Note_on_c, 0, 71, 0
2, 66120, Note_on_c, 0, 72, 89
2, 66143, Note_on_c, 0, 72, 0
2, 66144, Note_on_c, 0, 70, 93
2, 66167, Note_on_c, 0, 70, 0
2, 66168, Note_on_c, 0, 69, 91
2, 66191, Note_on_c, 0, 69, 0
2, 66192, Note_on_c, 0, 67, 89
2, 66215, Note_on_c, 0, 67, 0
2, 66216, Note_on_c, 0, 65, 87
2, 66239, Note_on_c, 0, 65, 0
2, 66240, Note_on_c, 0, 66, 85
2, 66263, Note_on_c, 0, 66, 0
2, 66264, Note_on_c, 0, 67, 98
2, 66287, Note_on_c, 0, 67, 0
2, 66288, Note_on_c, 0, 70, 112
2, 66311, Note_on_c, 0, 70, 0
2, 66312, Note_on_c, 0, 67, 126
2, 66335, Note_on_c, 0, 67, 0
2, 66336, Note_on_c, 0, 62, 119
2, 66381, Note_on_c, 0, 62, 0
2, 66384, Note_on_c, 0, 64, 106
2, 66429, Note_on_c, 0, 64, 0
2, 66432, Note_on_c, 0, 65, 93
2, 66477, Note_on_c, 0, 65, 0
2, 66480, Note_on_c, 0, 83, 109
2, 66503, Note_on_c, 0, 83, 0
2, 66504, Note_on_c, 0, 84, 117
2, 66527, Note_on_c, 0, 84, 0
2, 66528, Note_on_c, 0, 82, 126
2, 66551, Note_on_c, 0, 82, 0
2, 66552, Note_on_c, 0, 81, 117
2, 66575, Note_on_c, 0, 81, 0
2, 66576, Note_on_c, 0, 79, 109
2, 66599, Note_on_c, 0, 79, 0
2, 66600, Note_on_c, 0, 77, 101
2, 66623, Note_on_c, 0, 77, 0
2, 66624, Note_on_c, 0, 78, 93
2, 66647, Note_on_c, 0, 78, 0
2, 66648, Note_on_c, 0, 79, 109
2, 66671, Note_on_c, 0, 79, 0
2, 66672, Note_on_c, 0, 82, 126
2, 66695, Note_on_c, 0, 82, 0
2, 66696, Note_on_c, 0, 79, 120
2, 66719, Note_on_c, 0, 79, 0
2, 66720, Note_on_c, 0, 74, 115
2, 66765, Note_on_c, 0, 74, 0
2, 66768, Note_on_c, 0, 76, 104
2, 66813, Note_on_c, 0, 76, 0
2, 66816, Note_on_c, 0, 79, 93
2, 66828, Note_on_c, 0, 79, 0
2, 66828, Note_on_c, 0, 77, 93
2, 66840, Note_on_c, 0, 77, 0
2, 66840, Note_on_c, 0, 76, 93
2, 66852, Note_on_c, 0, 76, 0
2, 66852, Note_on_c, 0, 77, 93
2, 66935, Note_on_c, 0, 77, 0
2, 66936, Note_on_c, 0, 81, 93
2, 66959, Note_on_c, 0, 81, 0
2, 66960, Note_on_c, 0, 79, 93
2, 66983, Note_on_c, 0, 79, 0
2, 66984, Note_on_c, 0, 76, 93
2, 67007, Note_on_c, 0, 76, 0
2, 67008, Note_on_c, 0, 77, 93
2, 67031, Note_on_c, 0, 77, 0
2, 67032, Note_on_c, 0, 81, 93
2, 67055, Note_on_c, 0, 81, 0
2, 67056, Note_on_c, 0, 79, 93
2, 67079, Note_on_c, 0, 79, 0
2, 67080, Note_on_c, 0, 76, 93
2, 67103, Note_on_c, 0, 76, 0
2, 67104, Note_on_c, 0, 77, 93
2, 67127, Note_on_c, 0, 77, 0
2, 67128, Note_on_c, 0, 81, 93
2, 67151, Note_on_c, 0, 81, 0
2, 67152, Note_on_c, 0, 79, 93
2, 67175, Note_on_c, 0, 79, 0
2, 67176, Note_on_c, 0, 76, 93
2, 67199, Note_on_c, 0, 76, 0
2, 67200, Note_on_c, 0, 79, 93
2, 67212, Note_on_c, 0, 79, 0
2, 67212, Note_on_c, 0, 77, 93
2, 67224, Note_on_c, 0, 77, 0
2, 67224, Note_on_c, 0, 76, 93
2, 67236, Note_on_c, 0, 76, 0
2, 67236, Note_on_c, 0, 77, 93
2, 67311, Note_on_c, 0, 77, 0
2, 67312, Note_on_c, 0, 79, 93
2, 67327, Note_on_c, 0, 79, 0
2, 67328, Note_on_c, 0, 81, 93
2, 67343, Note_on_c, 0, 81, 0
2, 67344, Note_on_c, 0, 79, 93
2, 67359, Note_on_c, 0, 79, 0
2, 67360, Note_on_c, 0, 77, 93
2, 67375, Note_on_c, 0, 77, 0
2, 67376, Note_on_c, 0, 76, 93
2, 67391, Note_on_c, 0, 76, 0
2, 67392, Note_on_c, 0, 77, 93
2, 67407, Note_on_c, 0, 77, 0
2, 67408, Note_on_c, 0, 79, 93
2, 67423, Note_on_c, 0, 79, 0
2, 67424, Note_on_c, 0, 81, 93
2, 67439, Note_on_c, 0, 81, 0
2, 67440, Note_on_c, 0, 79, 93
2, 67455, Note_on_c, 0, 79, 0
2, 67456, Note_on_c, 0, 77, 93
2, 67471, Note_on_c, 0, 77, 0
2, 67472, Note_on_c, 0, 76, 93
2, 67487, Note_on_c, 0, 76, 0
2, 67488, Note_on_c, 0, 77, 93
2, 67503, Note_on_c, 0, 77, 0
2, 67504, Note_on_c, 0, 79, 93
2, 67519, Note_on_c, 0, 79, 0
2, 67520, Note_on_c, 0, 81, 93
2, 67535, Note_on_c, 0, 81, 0
2, 67536, Note_on_c, 0, 79, 93
2, 67551, Note_on_c, 0, 79, 0
2, 67552, Note_on_c, 0, 77, 93
2, 67567, Note_on_c, 0, 77, 0
2, 67568, Note_on_c, 0, 76, 93
2, 67583, Note_on_c, 0, 76, 0
2, 67584, Note_on_c, 0, 77, 93
2, 67629, Note_on_c, 0, 77, 0
2, 67632, Note_on_c, 0, 89, 109
2, 67703, Note_on_c, 0, 89, 0
2, 67704, Note_on_c, 0, 88, 93
2, 67727, Note_on_c, 0, 88, 0
2, 67728, Note_on_c, 0, 87, 93
2, 67751, Note_on_c, 0, 87, 0
2, 67752, Note_on_c, 0, 86, 93
2, 67775, Note_on_c, 0, 86, 0
2, 67776, Note_on_c, 0, 85, 93
2, 67799, Note_on_c, 0, 85, 0
2, 67800, Note_on_c, 0, 86, 93
2, 67823, Note_on_c, 0, 86, 0
2, 67824, Note_on_c, 0, 84, 93
2, 67847, Note_on_c, 0, 84, 0
2, 67848, Note_on_c, 0, 82, 93
2, 67871, Note_on_c, 0, 82, 0
2, 67872, Note_on_c, 0, 81, 93
2, 67895, Note_on_c, 0, 81, 0
2, 67896, Note_on_c, 0, 79, 93
2, 67919, Note_on_c, 0, 79, 0
2, 67920, Note_on_c, 0, 82, 93
2, 67943, Note_on_c, 0, 82, 0
2, 67944, Note_on_c, 0, 79, 93
2, 67967, Note_on_c, 0, 79, 0
2, 67968, Note_on_c, 0, 77, 93
2, 68101, Note_on_c, 0, 77, 0
2, 68112, Note_on_c, 0, 81, 93
2, 68124, Note_on_c, 0, 81, 0
2, 68124, Note_on_c, 0, 79, 93
2, 68157, Note_on_c, 0, 79, 0
2, 68160, Note_on_c, 0, 77, 93
2, 68180, Note_on_c, 0, 77, 0
2, 68208, Note_on_c, 0, 72, 93
2, 68223, Note_on_c, 0, 72, 0
2, 68224, Note_on_c, 0, 77, 93
2, 68239, Note_on_c, 0, 77, 0
2, 68240, Note_on_c, 0, 81, 93
2, 68255, Note_on_c, 0, 81, 0
2, 68256, Note_on_c, 0, 84, 93
2, 68271, Note_on_c, 0, 84, 0
2, 68272, Note_on_c, 0, 81, 93
2, 68287, Note_on_c, 0, 81, 0
2, 68288, Note_on_c, 0, 77, 93
2, 68303, Note_on_c, 0, 77, 0
2, 68304, Note_on_c, 0, 82, 93
2, 68319, Note_on_c, 0, 82, 0
2, 68320, Note_on_c, 0, 79, 93
2, 68335, Note_on_c, 0, 79, 0
2, 68336, Note_on_c, 0, 76, 93
2, 68351, Note_on_c, 0, 76, 0
2, 68352, Note_on_c, 0, 77, 93
2, 68372, Note_on_c, 0, 77, 0
2, 68400, Note_on_c, 0, 60, 93
2, 68415, Note_on_c, 0, 60, 0
2, 68416, Note_on_c, 0, 65, 93
2, 68431, Note_on_c, 0, 65, 0
2, 68432, Note_on_c, 0, 69, 93
2, 68447, Note_on_c, 0, 69, 0
2, 68448, Note_on_c, 0, 72, 93
2, 68463, Note_on_c, 0, 72, 0
2, 68464, Note_on_c, 0, 69, 93
2, 68479, Note_on_c, 0, 69, 0
2, 68480, Note_on_c, 0, 65, 93
2, 68495, Note_on_c, 0, 65, 0
2, 68496, Note_on_c, 0, 70, 93
2, 68511, Note_on_c, 0, 70, 0
2, 68512, Note_on_c, 0, 67, 93
2, 68527, Note_on_c, 0, 67, 0
2, 68528, Note_on_c, 0, 64, 93
2, 68543, Note_on_c, 0, 64, 0
2, 68544, Note_on_c, 0, 65, 93
2, 68564, Note_on_c, 0, 65, 0
2, 68592, Note_on_c, 0, 48, 93
2, 68607, Note_on_c, 0, 48, 0
2, 68608, Note_on_c, 0, 53, 93
2, 68623, Note_on_c, 0, 53, 0
2, 68624, Note_on_c, 0, 57, 93
2, 68639, Note_on_c, 0, 57, 0
2, 68640, Note_on_c, 0, 60, 93
2, 68655, Note_on_c, 0, 60, 0
2, 68656, Note_on_c, 0, 57, 93
2, 68671, Note_on_c, 0, 57, 0
2, 68672, Note_on_c, 0, 53, 93
2, 68687, Note_on_c, 0, 53, 0
2, 68688, Note_on_c, 0, 58, 93
2, 68703, Note_on_c, 0, 58, 0
2, 68704, Note_on_c, 0, 55, 93
2, 68719, Note_on_c, 0, 55, 0
2, 68720, Note_on_c, 0, 52, 93
2, 68735, Note_on_c, 0, 52, 0
2, 68736, Note_on_c, 0, 53, 93
2, 68825, Note_on_c, 0, 53, 0
2, 68832, Note_on_c, 0, 53, 93
2, 68832, Note_on_c, 0, 48, 93
2, 68832, Note_on_c, 0, 45, 93
2, 68921, Note_on_c, 0, 53, 0
2, 68921, Note_on_c, 0, 48, 0
2, 68921, Note_on_c, 0, 45, 0
2, 68928, Note_on_c, 0, 53, 93
2, 68928, Note_on_c, 0, 48, 93
2, 68928, Note_on_c, 0, 45, 93
2, 69017, Note_on_c, 0, 53, 0
2, 69017, Note_on_c, 0, 48, 0
2, 69017, Note_on_c, 0, 45, 0
2, 69120, End_track
3, 0, Start_track
3, 0, Program_c, 0, 0
3, 0, Control_c, 0, 7, 127
3, 0, Control_c, 0, 10, 64
3, 384, Note_on_c, 0, 69, 77
3, 528, Note_on_c, 0, 69, 0
3, 528, Note_on_c, 0, 70, 77
3, 573, Note_on_c, 0, 70, 0
3, 576, Note_on_c, 0, 69, 77
3, 665, Note_on_c, 0, 69, 0
3, 672, Note_on_c, 0, 65, 77
3, 720, Note_on_c, 0, 65, 0
3, 720, Note_on_c, 0, 67, 77
3, 765, Note_on_c, 0, 67, 0
3, 768, Note_on_c, 0, 65, 77
3, 816, Note_on_c, 0, 65, 0
3, 816, Note_on_c, 0, 69, 77
3, 836, Note_on_c, 0, 69, 0
3, 1536, Note_on_c, 0, 69, 77
3, 1625, Note_on_c, 0, 69, 0
3, 1632, Note_on_c, 0, 65, 77
3, 1680, Note_on_c, 0, 65, 0
3, 1680, Note_on_c, 0, 67, 77
3, 1725, Note_on_c, 0, 67, 0
3, 1728, Note_on_c, 0, 65, 77
3, 1776, Note_on_c, 0, 65, 0
3, 1776, Note_on_c, 0, 69, 77
3, 1796, Note_on_c, 0, 69, 0
3, 5520, Note_on_c, 0, 65, 85
3, 5568, Note_on_c, 0, 65, 0
3, 5568, Note_on_c, 0, 64, 85
3, 5588, Note_on_c, 0, 64, 0
3, 5712, Note_on_c, 0, 65, 85
3, 5760, Note_on_c, 0, 65, 0
3, 5760, Note_on_c, 0, 64, 85
3, 5780, Note_on_c, 0, 64, 0
3, 5904, Note_on_c, 0, 65, 85
3, 5952, Note_on_c, 0, 65, 0
3, 5952, Note_on_c, 0, 64, 85
3, 5972, Note_on_c, 0, 64, 0
3, 7056, Note_on_c, 0, 65, 85
3, 7104, Note_on_c, 0, 65, 0
3, 7104, Note_on_c, 0, 64, 85
3, 7124, Note_on_c, 0, 64, 0
3, 7248, Note_on_c, 0, 74, 85
3, 7248, Note_on_c, 0, 72, 85
3, 7293, Note_on_c, 0, 74, 0
3, 7293, Note_on_c, 0, 72, 0
3, 7440, Note_on_c, 0, 79, 85
3, 7448, Note_on_c, 0, 79, 0
3, 7448, Note_on_c, 0, 77, 85
3, 7456, Note_on_c, 0, 77, 0
3, 7456, Note_on_c, 0, 79, 85
3, 7464, Note_on_c, 0, 79, 0
3, 7464, Note_on_c, 0, 77, 85
3, 7472, Note_on_c, 0, 77, 0
3, 7472, Note_on_c, 0, 76, 85
3, 7480, Note_on_c, 0, 76, 0
3, 7480, Note_on_c, 0, 77, 85
3, 7488, Note_on_c, 0, 77, 0
3, 7632, Note_on_c, 0, 74, 85
3, 7640, Note_on_c, 0, 74, 0
3, 7640, Note_on_c, 0, 72, 85
3, 7648, Note_on_c, 0, 72, 0
3, 7648, Note_on_c, 0, 74, 85
3, 7656, Note_on_c, 0, 74, 0
3, 7656, Note_on_c, 0, 72, 85
3, 7664, Note_on_c, 0, 72, 0
3, 7664, Note_on_c, 0, 71, 85
3, 7672, Note_on_c, 0, 71, 0
3, 7672, Note_on_c, 0, 72, 85
3, 7680, Note_on_c, 0, 72, 0
3, 7680, Note_on_c, 0, 67, 85
3, 7700, Note_on_c, 0, 67, 0
3, 12288, Note_on_c, 0, 69, 77
3, 12432, Note_on_c, 0, 69, 0
3, 12432, Note_on_c, 0, 70, 77
3, 12477, Note_on_c, 0, 70, 0
3, 12480, Note_on_c, 0, 69, 77
3, 12569, Note_on_c, 0, 69, 0
3, 12576, Note_on_c, 0, 65, 77
3, 12624, Note_on_c, 0, 65, 0
3, 12624, Note_on_c, 0, 67, 77
3, 12669, Note_on_c, 0, 67, 0
3, 12672, Note_on_c, 0, 65, 77
3, 12720, Note_on_c, 0, 65, 0
3, 12720, Note_on_c, 0, 69, 77
3, 12740, Note_on_c, 0, 69, 0
3, 13440, Note_on_c, 0, 69, 77
3, 13529, Note_on_c, 0, 69, 0
3, 13536, Note_on_c, 0, 65, 77
3, 13584, Note_on_c, 0, 65, 0
3, 13584, Note_on_c, 0, 67, 77
3, 13629, Note_on_c, 0, 67, 0
3, 13632, Note_on_c, 0, 65, 77
3, 13680, Note_on_c, 0, 65, 0
3, 13680, Note_on_c, 0, 69, 77
3, 13700, Note_on_c, 0, 69, 0
3, 17424, Note_on_c, 0, 65, 85
3, 17472, Note_on_c, 0, 65, 0
3, 17472, Note_on_c, 0, 64, 85
3, 17492, Note_on_c, 0, 64, 0
3, 17616, Note_on_c, 0, 65, 85
3, 17664, Note_on_c, 0, 65, 0
3, 17664, Note_on_c, 0, 64, 85
3, 17684, Note_on_c, 0, 64, 0
3, 17808, Note_on_c, 0, 65, 85
3, 17856, Note_on_c, 0, 65, 0
3, 17856, Note_on_c, 0, 64, 85
3, 17876, Note_on_c, 0, 64, 0
3, 18960, Note_on_c, 0, 65, 85
3, 19008, Note_on_c, 0, 65, 0
3, 19008, Note_on_c, 0, 64, 85
3, 19028, Note_on_c, 0, 64, 0
3, 19152, Note_on_c, 0, 74, 85
3, 19152, Note_on_c, 0, 72, 85
3, 19197, Note_on_c, 0, 74, 0
3, 19197, Note_on_c, 0, 72, 0
3, 19344, Note_on_c, 0, 79, 85
3, 19352, Note_on_c, 0, 79, 0
3, 19352, Note_on_c, 0, 77, 85
3, 19360, Note_on_c, 0, 77, 0
3, 19360, Note_on_c, 0, 79, 85
3, 19368, Note_on_c, 0, 79, 0
3, 19368, Note_on_c, 0, 77, 85
3, 19376, Note_on_c, 0, 77, 0
3, 19376, Note_on_c, 0, 76, 85
3, 19384, Note_on_c, 0, 76, 0
3, 19384, Note_on_c, 0, 77, 85
3, 19392, Note_on_c, 0, 77, 0
3, 19536, Note_on_c, 0, 74, 85
3, 19544, Note_on_c, 0, 74, 0
3, 19544, Note_on_c, 0, 72, 85
3, 19552, Note_on_c, 0, 72, 0
3, 19552, Note_on_c, 0, 74, 85
3, 19560, Note_on_c, 0, 74, 0
3, 19560, Note_on_c, 0, 72, 85
3, 19568, Note_on_c, 0, 72, 0
3, 19568, Note_on_c, 0, 71, 85
3, 19576, Note_on_c, 0, 71, 0
3, 19576, Note_on_c, 0, 72, 85
3, 19584, Note_on_c, 0, 72, 0
3, 19584, Note_on_c, 0, 67, 85
3, 19604, Note_on_c, 0, 67, 0
3, 24960, Note_on_c, 0, 58, 85
3, 25093, Note_on_c, 0, 58, 0
3, 25104, Note_on_c, 0, 60, 85
3, 25149, Note_on_c, 0, 60, 0
3, 25152, Note_on_c, 0, 58, 85
3, 25241, Note_on_c, 0, 58, 0
3, 25248, Note_on_c, 0, 55, 85
3, 25293, Note_on_c, 0, 55, 0
3, 25296, Note_on_c, 0, 57, 85
3, 25341, Note_on_c, 0, 57, 0
3, 25344, Note_on_c, 0, 55, 85
3, 25389, Note_on_c, 0, 55, 0
3, 25392, Note_on_c, 0, 58, 85
3, 25437, Note_on_c, 0, 58, 0
3, 30864, Note_on_c, 0, 67, 85
3, 30912, Note_on_c, 0, 67, 0
3, 30912, Note_on_c, 0, 65, 85
3, 30932, Note_on_c, 0, 65, 0
3, 31056, Note_on_c, 0, 67, 85
3, 31104, Note_on_c, 0, 67, 0
3, 31104, Note_on_c, 0, 65, 85
3, 31124, Note_on_c, 0, 65, 0
3, 31248, Note_on_c, 0, 66, 85
3, 31296, Note_on_c, 0, 66, 0
3, 31296, Note_on_c, 0, 67, 85
3, 31316, Note_on_c, 0, 67, 0
3, 34944, Note_on_c, 0, 69, 85
3, 35088, Note_on_c, 0, 69, 0
3, 35088, Note_on_c, 0, 70, 85
3, 35133, Note_on_c, 0, 70, 0
3, 35136, Note_on_c, 0, 69, 85
3, 35225, Note_on_c, 0, 69, 0
3, 35232, Note_on_c, 0, 65, 85
3, 35280, Note_on_c, 0, 65, 0
3, 35280, Note_on_c, 0, 67, 85
3, 35325, Note_on_c, 0, 67, 0
3, 35328, Note_on_c, 0, 65, 85
3, 35376, Note_on_c, 0, 65, 0
3, 35376, Note_on_c, 0, 69, 85
3, 35396, Note_on_c, 0, 69, 0
3, 36096, Note_on_c, 0, 69, 68
3, 36185, Note_on_c, 0, 69, 0
3, 36192, Note_on_c, 0, 69, 68
3, 36237, Note_on_c, 0, 69, 0
3, 36240, Note_on_c, 0, 72, 71
3, 36333, Note_on_c, 0, 72, 0
3, 36336, Note_on_c, 0, 71, 77
3, 36381, Note_on_c, 0, 71, 0
3, 36384, Note_on_c, 0, 71, 77
3, 36429, Note_on_c, 0, 71, 0
3, 36432, Note_on_c, 0, 72, 77
3, 36477, Note_on_c, 0, 72, 0
3, 36480, Note_on_c, 0, 71, 77
3, 36569, Note_on_c, 0, 71, 0
3, 36576, Note_on_c, 0, 71, 77
3, 36621, Note_on_c, 0, 71, 0
3, 36624, Note_on_c, 0, 74, 79
3, 36720, Note_on_c, 0, 74, 0
3, 36720, Note_on_c, 0, 73, 85
3, 36765, Note_on_c, 0, 73, 0
3, 36768, Note_on_c, 0, 73, 85
3, 36813, Note_on_c, 0, 73, 0
3, 36816, Note_on_c, 0, 74, 85
3, 36861, Note_on_c, 0, 74, 0
3, 36864, Note_on_c, 0, 73, 85
3, 36953, Note_on_c, 0, 73, 0
3, 47616, Note_on_c, 0, 58, 85
3, 47749, Note_on_c, 0, 58, 0
3, 47760, Note_on_c, 0, 60, 85
3, 47805, Note_on_c, 0, 60, 0
3, 47808, Note_on_c, 0, 58, 85
3, 47897, Note_on_c, 0, 58, 0
3, 47904, Note_on_c, 0, 55, 85
3, 47949, Note_on_c, 0, 55, 0
3, 47952, Note_on_c, 0, 57, 85
3, 47997, Note_on_c, 0, 57, 0
3, 48000, Note_on_c, 0, 55, 85
3, 48045, Note_on_c, 0, 55, 0
3, 48048, Note_on_c, 0, 58, 85
3, 48093, Note_on_c, 0, 58, 0
3, 53520, Note_on_c, 0, 67, 85
3, 53568, Note_on_c, 0, 67, 0
3, 53568, Note_on_c, 0, 65, 85
3, 53588, Note_on_c, 0, 65, 0
3, 53712, Note_on_c, 0, 67, 85
3, 53760, Note_on_c, 0, 67, 0
3, 53760, Note_on_c, 0, 65, 85
3, 53780, Note_on_c, 0, 65, 0
3, 53904, Note_on_c, 0, 66, 85
3, 53952, Note_on_c, 0, 66, 0
3, 53952, Note_on_c, 0, 67, 85
3, 53972, Note_on_c, 0, 67, 0
3, 57600, Note_on_c, 0, 69, 85
3, 57744, Note_on_c, 0, 69, 0
3, 57744, Note_on_c, 0, 70, 85
3, 57789, Note_on_c, 0, 70, 0
3, 57792, Note_on_c, 0, 69, 85
3, 57881, Note_on_c, 0, 69, 0
3, 57888, Note_on_c, 0, 65, 85
3, 57936, Note_on_c, 0, 65, 0
3, 57936, Note_on_c, 0, 67, 85
3, 57981, Note_on_c, 0, 67, 0
3, 57984, Note_on_c, 0, 65, 85
3, 58032, Note_on_c, 0, 65, 0
3, 58032, Note_on_c, 0, 69, 85
3, 58052, Note_on_c, 0, 69, 0
3, 58752, Note_on_c, 0, 69, 68
3, 58841, Note_on_c, 0, 69, 0
3, 58848, Note_on_c, 0, 69, 68
3, 58893, Note_on_c, 0, 69, 0
3, 58896, Note_on_c, 0, 72, 71
3, 58989, Note_on_c, 0, 72, 0
3, 58992, Note_on_c, 0, 71, 77
3, 59037, Note_on_c, 0, 71, 0
3, 59040, Note_on_c, 0, 71, 77
3, 59085, Note_on_c, 0, 71, 0
3, 59088, Note_on_c, 0, 72, 77
3, 59133, Note_on_c, 0, 72, 0
3, 59136, Note_on_c, 0, 71, 77
3, 59225, Note_on_c, 0, 71, 0
3, 59232, Note_on_c, 0, 71, 77
3, 59277, Note_on_c, 0, 71, 0
3, 59280, Note_on_c, 0, 74, 79
3, 59376, Note_on_c, 0, 74, 0
3, 59376, Note_on_c, 0, 73, 85
3, 59421, Note_on_c, 0, 73, 0
3, 59424, Note_on_c, 0, 73, 85
3, 59469, Note_on_c, 0, 73, 0
3, 59472, Note_on_c, 0, 74, 85
3, 59517, Note_on_c, 0, 74, 0
3, 59520, Note_on_c, 0, 73, 85
3, 59609, Note_on_c, 0, 73, 0
3, 69120, End_track
4, 0, Start_track
4, 0, Program_c, 1, 0
4, 0, Control_c, 1, 7, 127
4, 0, Control_c, 1, 10, 64
4, 0, Note_on_c, 1, 41, 85
4, 6, Note_on_c, 1, 45, 85
4, 12, Note_on_c, 1, 48, 85
4, 18, Note_on_c, 1, 53, 85
4, 45, Note_on_c, 1, 53, 0
4, 45, Note_on_c, 1, 48, 0
4, 45, Note_on_c, 1, 45, 0
4, 45, Note_on_c, 1, 41, 0
4, 48, Note_on_c, 1, 53, 85
4, 68, Note_on_c, 1, 53, 0
4, 96, Note_on_c, 1, 53, 85
4, 116, Note_on_c, 1, 53, 0
4, 144, Note_on_c, 1, 53, 85
4, 164, Note_on_c, 1, 53, 0
4, 192, Note_on_c, 1, 53, 85
4, 212, Note_on_c, 1, 53, 0
4, 240, Note_on_c, 1, 53, 83
4, 260, Note_on_c, 1, 53, 0
4, 288, Note_on_c, 1, 53, 81
4, 308, Note_on_c, 1, 53, 0
4, 336, Note_on_c, 1, 53, 79
4, 356, Note_on_c, 1, 53, 0
4, 384, Note_on_c, 1, 53, 77
4, 404, Note_on_c, 1, 53, 0
4, 432, Note_on_c, 1, 53, 77
4, 452, Note_on_c, 1, 53, 0
4, 480, Note_on_c, 1, 53, 77
4, 500, Note_on_c, 1, 53, 0
4, 528, Note_on_c, 1, 53, 77
4, 548, Note_on_c, 1, 53, 0
4, 576, Note_on_c, 1, 53, 77
4, 596, Note_on_c, 1, 53, 0
4, 624, Note_on_c, 1, 53, 77
4, 644, Note_on_c, 1, 53, 0
4, 672, Note_on_c, 1, 53, 77
4, 692, Note_on_c, 1, 53, 0
4, 720, Note_on_c, 1, 53, 77
4, 740, Note_on_c, 1, 53, 0
4, 768, Note_on_c, 1, 53, 77
4, 788, Note_on_c, 1, 53, 0
4, 864, Note_on_c, 1, 60, 77
4, 864, Note_on_c, 1, 57, 77
4, 884, Note_on_c, 1, 60, 0
4, 884, Note_on_c, 1, 57, 0
4, 912, Note_on_c, 1, 60, 77
4, 912, Note_on_c, 1, 57, 77
4, 932, Note_on_c, 1, 60, 0
4, 932, Note_on_c, 1, 57, 0
4, 960, Note_on_c, 1, 60, 77
4, 960, Note_on_c, 1, 57, 77
4, 1100, Note_on_c, 1, 60, 0
4, 1100, Note_on_c, 1, 57, 0
4, 1104, Note_on_c, 1, 58, 77
4, 1104, Note_on_c, 1, 48, 77
4, 1149, Note_on_c, 1, 58, 0
4, 1149, Note_on_c, 1, 48, 0
4, 1152, Note_on_c, 1, 57, 77
4, 1152, Note_on_c, 1, 53, 77
4, 1197, Note_on_c, 1, 57, 0
4, 1197, Note_on_c, 1, 53, 0
4, 1248, Note_on_c, 1, 45, 77
4, 1248, Note_on_c, 1, 41, 77
4, 1268, Note_on_c, 1, 45, 0
4, 1268, Note_on_c, 1, 41, 0
4, 1320, Note_on_c, 1, 45, 77
4, 1320, Note_on_c, 1, 41, 77
4, 1330, Note_on_c, 1, 45, 0
4, 1330, Note_on_c, 1, 41, 0
4, 1344, Note_on_c, 1, 45, 77
4, 1344, Note_on_c, 1, 41, 77
4, 1389, Note_on_c, 1, 45, 0
4, 1389, Note_on_c, 1, 41, 0
4, 1824, Note_on_c, 1, 60, 77
4, 1824, Note_on_c, 1, 57, 77
4, 1844, Note_on_c, 1, 60, 0
4, 1844, Note_on_c, 1, 57, 0
4, 1872, Note_on_c, 1, 60, 77
4, 1872, Note_on_c, 1, 57, 77
4, 1892, Note_on_c, 1, 60, 0
4, 1892, Note_on_c, 1, 57, 0
4, 1920, Note_on_c, 1, 60, 77
4, 1920, Note_on_c, 1, 57, 77
4, 2060, Note_on_c, 1, 60, 0
4, 2060, Note_on_c, 1, 57, 0
4, 2064, Note_on_c, 1, 58, 77
4, 2064, Note_on_c, 1, 48, 77
4, 2109, Note_on_c, 1, 58, 0
4, 2109, Note_on_c, 1, 48, 0
4, 2112, Note_on_c, 1, 57, 77
4, 2112, Note_on_c, 1, 53, 77
4, 2157, Note_on_c, 1, 57, 0
4, 2157, Note_on_c, 1, 53, 0
4, 2640, Note_on_c, 1, 70, 77
4, 2640, Note_on_c, 1, 67, 77
4, 2660, Note_on_c, 1, 70, 0
4, 2660, Note_on_c, 1, 67, 0
4, 2736, Note_on_c, 1, 69, 77
4, 2736, Note_on_c, 1, 65, 77
4, 2756, Note_on_c, 1, 69, 0
4, 2756, Note_on_c, 1, 65, 0
4, 2832, Note_on_c, 1, 69, 77
4, 2832, Note_on_c, 1, 61, 77
4, 2852, Note_on_c, 1, 69, 0
4, 2852, Note_on_c, 1, 61, 0
4, 2928, Note_on_c, 1, 69, 77
4, 2928, Note_on_c, 1, 62, 77
4, 2948, Note_on_c, 1, 69, 0
4, 2948, Note_on_c, 1, 62, 0
4, 3408, Note_on_c, 1, 67, 77
4, 3408, Note_on_c, 1, 65, 77
4, 3428, Note_on_c, 1, 67, 0
4, 3428, Note_on_c, 1, 65, 0
4, 3504, Note_on_c, 1, 67, 77
4, 3504, Note_on_c, 1, 64, 77
4, 3524, Note_on_c, 1, 67, 0
4, 3524, Note_on_c, 1, 64, 0
4, 3600, Note_on_c, 1, 67, 77
4, 3600, Note_on_c, 1, 59, 77
4, 3620, Note_on_c, 1, 67, 0
4, 3620, Note_on_c, 1, 59, 0
4, 3696, Note_on_c, 1, 67, 77
4, 3696, Note_on_c, 1, 60, 77
4, 3716, Note_on_c, 1, 67, 0
4, 3716, Note_on_c, 1, 60, 0
4, 4032, Note_on_c, 1, 69, 68
4, 4032, Note_on_c, 1, 65, 68
4, 4080, Note_on_c, 1, 69, 0
4, 4080, Note_on_c, 1, 65, 0
4, 4080, Note_on_c, 1, 67, 68
4, 4080, Note_on_c, 1, 64, 68
4, 4125, Note_on_c, 1, 67, 0
4, 4125, Note_on_c, 1, 64, 0
4, 4128, Note_on_c, 1, 69, 68
4, 4128, Note_on_c, 1, 65, 68
4, 4176, Note_on_c, 1, 69, 0
4, 4176, Note_on_c, 1, 65, 0
4, 4176, Note_on_c, 1, 67, 68
4, 4176, Note_on_c, 1, 64, 68
4, 4221, Note_on_c, 1, 67, 0
4, 4221, Note_on_c, 1, 64, 0
4, 4224, Note_on_c, 1, 69, 68
4, 4224, Note_on_c, 1, 65, 68
4, 4272, Note_on_c, 1, 69, 0
4, 4272, Note_on_c, 1, 65, 0
4, 4272, Note_on_c, 1, 67, 68
4, 4272, Note_on_c, 1, 64, 68
4, 4317, Note_on_c, 1, 67, 0
4, 4317, Note_on_c, 1, 64, 0
4, 4368, Note_on_c, 1, 51, 77
4, 4416, Note_on_c, 1, 51, 0
4, 4416, Note_on_c, 1, 50, 77
4, 4461, Note_on_c, 1, 50, 0
4, 4464, Note_on_c, 1, 66, 77
4, 4512, Note_on_c, 1, 66, 0
4, 4512, Note_on_c, 1, 67, 77
4, 4557, Note_on_c, 1, 67, 0
4, 4560, Note_on_c, 1, 59, 77
4, 4608, Note_on_c, 1, 59, 0
4, 4608, Note_on_c, 1, 60, 77
4, 4653, Note_on_c, 1, 60, 0
4, 4656, Note_on_c, 1, 64, 77
4, 4704, Note_on_c, 1, 64, 0
4, 4704, Note_on_c, 1, 65, 77
4, 4793, Note_on_c, 1, 65, 0
4, 4800, Note_on_c, 1, 53, 77
4, 4889, Note_on_c, 1, 53, 0
4, 5040, Note_on_c, 1, 54, 77
4, 5060, Note_on_c, 1, 54, 0
4, 5136, Note_on_c, 1, 60, 77
4, 5156, Note_on_c, 1, 60, 0
4, 5232, Note_on_c, 1, 55, 77
4, 5252, Note_on_c, 1, 55, 0
4, 6576, Note_on_c, 1, 69, 77
4, 6576, Note_on_c, 1, 66, 77
4, 6621, Note_on_c, 1, 69, 0
4, 6621, Note_on_c, 1, 66, 0
4, 6624, Note_on_c, 1, 67, 77
4, 6669, Note_on_c, 1, 67, 0
4, 6672, Note_on_c, 1, 55, 77
4, 6717, Note_on_c, 1, 55, 0
4, 6720, Note_on_c, 1, 60, 77
4, 6740, Note_on_c, 1, 60, 0
4, 6864, Note_on_c, 1, 65, 77
4, 6912, Note_on_c, 1, 65, 0
4, 6912, Note_on_c, 1, 64, 77
4, 6932, Note_on_c, 1, 64, 0
4, 8064, Note_on_c, 1, 68, 60
4, 8064, Note_on_c, 1, 65, 60
4, 8084, Note_on_c, 1, 68, 0
4, 8084, Note_on_c, 1, 65, 0
4, 8160, Note_on_c, 1, 68, 64
4, 8160, Note_on_c, 1, 65, 64
4, 8180, Note_on_c, 1, 68, 0
4, 8180, Note_on_c, 1, 65, 0
4, 8256, Note_on_c, 1, 68, 68
4, 8256, Note_on_c, 1, 65, 68
4, 8276, Note_on_c, 1, 68, 0
4, 8276, Note_on_c, 1, 65, 0
4, 8352, Note_on_c, 1, 68, 72
4, 8352, Note_on_c, 1, 65, 72
4, 8372, Note_on_c, 1, 68, 0
4, 8372, Note_on_c, 1, 65, 0
4, 8448, Note_on_c, 1, 68, 76
4, 8448, Note_on_c, 1, 65, 76
4, 8458, Note_on_c, 1, 68, 0
4, 8458, Note_on_c, 1, 65, 0
4, 8496, Note_on_c, 1, 68, 78
4, 8496, Note_on_c, 1, 65, 78
4, 8506, Note_on_c, 1, 68, 0
4, 8506, Note_on_c, 1, 65, 0
4, 8544, Note_on_c, 1, 68, 80
4, 8544, Note_on_c, 1, 65, 80
4, 8554, Note_on_c, 1, 68, 0
4, 8554, Note_on_c, 1, 65, 0
4, 8592, Note_on_c, 1, 68, 82
4, 8592, Note_on_c, 1, 65, 82
4, 8602, Note_on_c, 1, 68, 0
4, 8602, Note_on_c, 1, 65, 0
4, 8640, Note_on_c, 1, 68, 84
4, 8640, Note_on_c, 1, 65, 84
4, 8650, Note_on_c, 1, 68, 0
4, 8650, Note_on_c, 1, 65, 0
4, 8688, Note_on_c, 1, 68, 85
4, 8688, Note_on_c, 1, 65, 85
4, 8698, Note_on_c, 1, 68, 0
4, 8698, Note_on_c, 1, 65, 0
4, 8736, Note_on_c, 1, 68, 85
4, 8736, Note_on_c, 1, 65, 85
4, 8746, Note_on_c, 1, 68, 0
4, 8746, Note_on_c, 1, 65, 0
4, 8784, Note_on_c, 1, 68, 85
4, 8784, Note_on_c, 1, 65, 85
4, 8794, Note_on_c, 1, 68, 0
4, 8794, Note_on_c, 1, 65, 0
4, 8832, Note_on_c, 1, 68, 85
4, 8832, Note_on_c, 1, 65, 85
4, 8832, Note_on_c, 1, 62, 85
4, 9186, Note_on_c, 1, 68, 0
4, 9186, Note_on_c, 1, 65, 0
4, 9186, Note_on_c, 1, 62, 0
4, 9216, Note_on_c, 1, 67, 77
4, 9216, Note_on_c, 1, 64, 77
4, 9305, Note_on_c, 1, 67, 0
4, 9305, Note_on_c, 1, 64, 0
4, 9360, Note_on_c, 1, 64, 77
4, 9405, Note_on_c, 1, 64, 0
4, 9408, Note_on_c, 1, 65, 77
4, 9497, Note_on_c, 1, 65, 0
4, 9552, Note_on_c, 1, 65, 77
4, 9552, Note_on_c, 1, 55, 77
4, 9597, Note_on_c, 1, 65, 0
4, 9597, Note_on_c, 1, 55, 0
4, 9600, Note_on_c, 1, 64, 77
4, 9600, Note_on_c, 1, 60, 77
4, 9689, Note_on_c, 1, 64, 0
4, 9689, Note_on_c, 1, 60, 0
4, 9744, Note_on_c, 1, 64, 77
4, 9789, Note_on_c, 1, 64, 0
4, 9792, Note_on_c, 1, 65, 77
4, 9881, Note_on_c, 1, 65, 0
4, 9936, Note_on_c, 1, 65, 77
4, 9936, Note_on_c, 1, 55, 77
4, 9981, Note_on_c, 1, 65, 0
4, 9981, Note_on_c, 1, 55, 0
4, 10032, Note_on_c, 1, 64, 77
4, 10077, Note_on_c, 1, 64, 0
4, 10080, Note_on_c, 1, 64, 77
4, 10125, Note_on_c, 1, 64, 0
4, 10128, Note_on_c, 1, 65, 77
4, 10173, Note_on_c, 1, 65, 0
4, 10176, Note_on_c, 1, 64, 77
4, 10221, Note_on_c, 1, 64, 0
4, 10224, Note_on_c, 1, 65, 77
4, 10269, Note_on_c, 1, 65, 0
4, 10272, Note_on_c, 1, 64, 77
4, 10317, Note_on_c, 1, 64, 0
4, 10320, Note_on_c, 1, 65, 77
4, 10365, Note_on_c, 1, 65, 0
4, 10416, Note_on_c, 1, 64, 77
4, 10461, Note_on_c, 1, 64, 0
4, 10464, Note_on_c, 1, 64, 77
4, 10509, Note_on_c, 1, 64, 0
4, 10512, Note_on_c, 1, 65, 77
4, 10557, Note_on_c, 1, 65, 0
4, 10560, Note_on_c, 1, 64, 77
4, 10605, Note_on_c, 1, 64, 0
4, 10608, Note_on_c, 1, 65, 77
4, 10653, Note_on_c, 1, 65, 0
4, 10656, Note_on_c, 1, 64, 77
4, 10701, Note_on_c, 1, 64, 0
4, 10704, Note_on_c, 1, 65, 77
4, 10749, Note_on_c, 1, 65, 0
4, 10752, Note_on_c, 1, 64, 77
4, 10841, Note_on_c, 1, 64, 0
4, 10848, Note_on_c, 1, 60, 77
4, 10989, Note_on_c, 1, 60, 0
4, 11184, Note_on_c, 1, 63, 77
4, 11229, Note_on_c, 1, 63, 0
4, 11232, Note_on_c, 1, 64, 78
4, 11277, Note_on_c, 1, 64, 0
4, 11280, Note_on_c, 1, 65, 80
4, 11325, Note_on_c, 1, 65, 0
4, 11328, Note_on_c, 1, 64, 81
4, 11417, Note_on_c, 1, 64, 0
4, 11472, Note_on_c, 1, 65, 77
4, 11517, Note_on_c, 1, 65, 0
4, 11520, Note_on_c, 1, 64, 77
4, 11565, Note_on_c, 1, 64, 0
4, 11664, Note_on_c, 1, 53, 77
4, 11709, Note_on_c, 1, 53, 0
4, 11712, Note_on_c, 1, 52, 77
4, 11757, Note_on_c, 1, 52, 0
4, 11904, Note_on_c, 1, 41, 85
4, 11910, Note_on_c, 1, 45, 85
4, 11916, Note_on_c, 1, 48, 85
4, 11922, Note_on_c, 1, 53, 85
4, 11949, Note_on_c, 1, 53, 0
4, 11949, Note_on_c, 1, 48, 0
4, 11949, Note_on_c, 1, 45, 0
4, 11949, Note_on_c, 1, 41, 0
4, 11952, Note_on_c, 1, 53, 85
4, 11972, Note_on_c, 1, 53, 0
4, 12000, Note_on_c, 1, 53, 85
4, 12020, Note_on_c, 1, 53, 0
4, 12048, Note_on_c, 1, 53, 85
4, 12068, Note_on_c, 1, 53, 0
4, 12096, Note_on_c, 1, 53, 85
4, 12116, Note_on_c, 1, 53, 0
4, 12144, Note_on_c, 1, 53, 83
4, 12164, Note_on_c, 1, 53, 0
4, 12192, Note_on_c, 1, 53, 81
4, 12212, Note_on_c, 1, 53, 0
4, 12240, Note_on_c, 1, 53, 79
4, 12260, Note_on_c, 1, 53, 0
4, 12288, Note_on_c, 1, 53, 77
4, 12308, Note_on_c, 1, 53, 0
4, 12336, Note_on_c, 1, 53, 77
4, 12356, Note_on_c, 1, 53, 0
4, 12384, Note_on_c, 1, 53, 77
4, 12404, Note_on_c, 1, 53, 0
4, 12432, Note_on_c, 1, 53, 77
4, 12452, Note_on_c, 1, 53, 0
4, 12480, Note_on_c, 1, 53, 77
4, 12500, Note_on_c, 1, 53, 0
4, 12528, Note_on_c, 1, 53, 77
4, 12548, Note_on_c, 1, 53, 0
4, 12576, Note_on_c, 1, 53, 77
4, 12596, Note_on_c, 1, 53, 0
4, 12624, Note_on_c, 1, 53, 77
4, 12644, Note_on_c, 1, 53, 0
4, 12672, Note_on_c, 1, 53, 77
4, 12692, Note_on_c, 1, 53, 0
4, 12768, Note_on_c, 1, 60, 77
4, 12768, Note_on_c, 1, 57, 77
4, 12788, Note_on_c, 1, 60, 0
4, 12788, Note_on_c, 1, 57, 0
4, 12816, Note_on_c, 1, 60, 77
4, 12816, Note_on_c, 1, 57, 77
4, 12836, Note_on_c, 1, 60, 0
4, 12836, Note_on_c, 1, 57, 0
4, 12864, Note_on_c, 1, 60, 77
4, 12864, Note_on_c, 1, 57, 77
4, 13004, Note_on_c, 1, 60, 0
4, 13004, Note_on_c, 1, 57, 0
4, 13008, Note_on_c, 1, 58, 77
4, 13008, Note_on_c, 1, 48, 77
4, 13053, Note_on_c, 1, 58, 0
4, 13053, Note_on_c, 1, 48, 0
4, 13056, Note_on_c, 1, 57, 77
4, 13056, Note_on_c, 1, 53, 77
4, 13101, Note_on_c, 1, 57, 0
4, 13101, Note_on_c, 1, 53, 0
4, 13152, Note_on_c, 1, 45, 77
4, 13152, Note_on_c, 1, 41, 77
4, 13172, Note_on_c, 1, 45, 0
4, 13172, Note_on_c, 1, 41, 0
4, 13224, Note_on_c, 1, 45, 77
4, 13224, Note_on_c, 1, 41, 77
4, 13234, Note_on_c, 1, 45, 0
4, 13234, Note_on_c, 1, 41, 0
4, 13248, Note_on_c, 1, 45, 77
4, 13248, Note_on_c, 1, 41, 77
4, 13293, Note_on_c, 1, 45, 0
4, 13293, Note_on_c, 1, 41, 0
4, 13728, Note_on_c, 1, 60, 77
4, 13728, Note_on_c, 1, 57, 77
4, 13748, Note_on_c, 1, 60, 0
4, 13748, Note_on_c, 1, 57, 0
4, 13776, Note_on_c, 1, 60, 77
4, 13776, Note_on_c, 1, 57, 77
4, 13796, Note_on_c, 1, 60, 0
4, 13796, Note_on_c, 1, 57, 0
4, 13824, Note_on_c, 1, 60, 77
4, 13824, Note_on_c, 1, 57, 77
4, 13964, Note_on_c, 1, 60, 0
4, 13964, Note_on_c, 1, 57, 0
4, 13968, Note_on_c, 1, 58, 77
4, 13968, Note_on_c, 1, 48, 77
4, 14013, Note_on_c, 1, 58, 0
4, 14013, Note_on_c, 1, 48, 0
4, 14016, Note_on_c, 1, 57, 77
4, 14016, Note_on_c, 1, 53, 77
4, 14061, Note_on_c, 1, 57, 0
4, 14061, Note_on_c, 1, 53, 0
4, 14544, Note_on_c, 1, 70, 77
4, 14544, Note_on_c, 1, 67, 77
4, 14564, Note_on_c, 1, 70, 0
4, 14564, Note_on_c, 1, 67, 0
4, 14640, Note_on_c, 1, 69, 77
4, 14640, Note_on_c, 1, 65, 77
4, 14660, Note_on_c, 1, 69, 0
4, 14660, Note_on_c, 1, 65, 0
4, 14736, Note_on_c, 1, 69, 77
4, 14736, Note_on_c, 1, 61, 77
4, 14756, Note_on_c, 1, 69, 0
4, 14756, Note_on_c, 1, 61, 0
4, 14832, Note_on_c, 1, 69, 77
4, 14832, Note_on_c, 1, 62, 77
4, 14852, Note_on_c, 1, 69, 0
4, 14852, Note_on_c, 1, 62, 0
4, 15312, Note_on_c, 1, 67, 77
4, 15312, Note_on_c, 1, 65, 77
4, 15332, Note_on_c, 1, 67, 0
4, 15332, Note_on_c, 1, 65, 0
4, 15408, Note_on_c, 1, 67, 77
4, 15408, Note_on_c, 1, 64, 77
4, 15428, Note_on_c, 1, 67, 0
4, 15428, Note_on_c, 1, 64, 0
4, 15504, Note_on_c, 1, 67, 77
4, 15504, Note_on_c, 1, 59, 77
4, 15524, Note_on_c, 1, 67, 0
4, 15524, Note_on_c, 1, 59, 0
4, 15600, Note_on_c, 1, 67, 77
4, 15600, Note_on_c, 1, 60, 77
4, 15620, Note_on_c, 1, 67, 0
4, 15620, Note_on_c, 1, 60, 0
4, 15936, Note_on_c, 1, 69, 68
4, 15936, Note_on_c, 1, 65, 68
4, 15984, Note_on_c, 1, 69, 0
4, 15984, Note_on_c, 1, 65, 0
4, 15984, Note_on_c, 1, 67, 68
4, 15984, Note_on_c, 1, 64, 68
4, 16029, Note_on_c, 1, 67, 0
4, 16029, Note_on_c, 1, 64, 0
4, 16032, Note_on_c, 1, 69, 68
4, 16032, Note_on_c, 1, 65, 68
4, 16080, Note_on_c, 1, 69, 0
4, 16080, Note_on_c, 1, 65, 0
4, 16080, Note_on_c, 1, 67, 68
4, 16080, Note_on_c, 1, 64, 68
4, 16125, Note_on_c, 1, 67, 0
4, 16125, Note_on_c, 1, 64, 0
4, 16128, Note_on_c, 1, 69, 68
4, 16128, Note_on_c, 1, 65, 68
4, 16176, Note_on_c, 1, 69, 0
4, 16176, Note_on_c, 1, 65, 0
4, 16176, Note_on_c, 1, 67, 68
4, 16176, Note_on_c, 1, 64, 68
4, 16221, Note_on_c, 1, 67, 0
4, 16221, Note_on_c, 1, 64, 0
4, 16272, Note_on_c, 1, 51, 77
4, 16320, Note_on_c, 1, 51, 0
4, 16320, Note_on_c, 1, 50, 77
4, 16365, Note_on_c, 1, 50, 0
4, 16368, Note_on_c, 1, 66, 77
4, 16416, Note_on_c, 1, 66, 0
4, 16416, Note_on_c, 1, 67, 77
4, 16461, Note_on_c, 1, 67, 0
4, 16464, Note_on_c, 1, 59, 77
4, 16512, Note_on_c, 1, 59, 0
4, 16512, Note_on_c, 1, 60, 77
4, 16557, Note_on_c, 1, 60, 0
4, 16560, Note_on_c, 1, 64, 77
4, 16608, Note_on_c, 1, 64, 0
4, 16608, Note_on_c, 1, 65, 77
4, 16697, Note_on_c, 1, 65, 0
4, 16704, Note_on_c, 1, 53, 77
4, 16793, Note_on_c, 1, 53, 0
4, 16944, Note_on_c, 1, 54, 77
4, 16964, Note_on_c, 1, 54, 0
4, 17040, Note_on_c, 1, 60, 77
4, 17060, Note_on_c, 1, 60, 0
4, 17136, Note_on_c, 1, 55, 77
4, 17156, Note_on_c, 1, 55, 0
4, 18480, Note_on_c, 1, 69, 77
4, 18480, Note_on_c, 1, 66, 77
4, 18525, Note_on_c, 1, 69, 0
4, 18525, Note_on_c, 1, 66, 0
4, 18528, Note_on_c, 1, 67, 77
4, 18573, Note_on_c, 1, 67, 0
4, 18576, Note_on_c, 1, 55, 77
4, 18621, Note_on_c, 1, 55, 0
4, 18624, Note_on_c, 1, 60, 77
4, 18644, Note_on_c, 1, 60, 0
4, 18768, Note_on_c, 1, 65, 77
4, 18816, Note_on_c, 1, 65, 0
4, 18816, Note_on_c, 1, 64, 77
4, 18836, Note_on_c, 1, 64, 0
4, 19968, Note_on_c, 1, 68, 60
4, 19968, Note_on_c, 1, 65, 60
4, 19988, Note_on_c, 1, 68, 0
4, 19988, Note_on_c, 1, 65, 0
4, 20064, Note_on_c, 1, 68, 64
4, 20064, Note_on_c, 1, 65, 64
4, 20084, Note_on_c, 1, 68, 0
4, 20084, Note_on_c, 1, 65, 0
4, 20160, Note_on_c, 1, 68, 68
4, 20160, Note_on_c, 1, 65, 68
4, 20180, Note_on_c, 1, 68, 0
4, 20180, Note_on_c, 1, 65, 0
4, 20256, Note_on_c, 1, 68, 72
4, 20256, Note_on_c, 1, 65, 72
4, 20276, Note_on_c, 1, 68, 0
4, 20276, Note_on_c, 1, 65, 0
4, 20352, Note_on_c, 1, 68, 76
4, 20352, Note_on_c, 1, 65, 76
4, 20362, Note_on_c, 1, 68, 0
4, 20362, Note_on_c, 1, 65, 0
4, 20400, Note_on_c, 1, 68, 78
4, 20400, Note_on_c, 1, 65, 78
4, 20410, Note_on_c, 1, 68, 0
4, 20410, Note_on_c, 1, 65, 0
4, 20448, Note_on_c, 1, 68, 80
4, 20448, Note_on_c, 1, 65, 80
4, 20458, Note_on_c, 1, 68, 0
4, 20458, Note_on_c, 1, 65, 0
4, 20496, Note_on_c, 1, 68, 82
4, 20496, Note_on_c, 1, 65, 82
4, 20506, Note_on_c, 1, 68, 0
4, 20506, Note_on_c, 1, 65, 0
4, 20544, Note_on_c, 1, 68, 84
4, 20544, Note_on_c, 1, 65, 84
4, 20554, Note_on_c, 1, 68, 0
4, 20554, Note_on_c, 1, 65, 0
4, 20592, Note_on_c, 1, 68, 85
4, 20592, Note_on_c, 1, 65, 85
4, 20602, Note_on_c, 1, 68, 0
4, 20602, Note_on_c, 1, 65, 0
4, 20640, Note_on_c, 1, 68, 85
4, 20640, Note_on_c, 1, 65, 85
4, 20650, Note_on_c, 1, 68, 0
4, 20650, Note_on_c, 1, 65, 0
4, 20688, Note_on_c, 1, 68, 85
4, 20688, Note_on_c, 1, 65, 85
4, 20698, Note_on_c, 1, 68, 0
4, 20698, Note_on_c, 1, 65, 0
4, 20736, Note_on_c, 1, 68, 85
4, 20736, Note_on_c, 1, 65, 85
4, 20736, Note_on_c, 1, 62, 85
4, 21090, Note_on_c, 1, 68, 0
4, 21090, Note_on_c, 1, 65, 0
4, 21090, Note_on_c, 1, 62, 0
4, 21120, Note_on_c, 1, 67, 77
4, 21120, Note_on_c, 1, 64, 77
4, 21209, Note_on_c, 1, 67, 0
4, 21209, Note_on_c, 1, 64, 0
4, 21264, Note_on_c, 1, 64, 77
4, 21309, Note_on_c, 1, 64, 0
4, 21312, Note_on_c, 1, 65, 77
4, 21401, Note_on_c, 1, 65, 0
4, 21456, Note_on_c, 1, 65, 77
4, 21456, Note_on_c, 1, 55, 77
4, 21501, Note_on_c, 1, 65, 0
4, 21501, Note_on_c, 1, 55, 0
4, 21504, Note_on_c, 1, 64, 77
4, 21504, Note_on_c, 1, 60, 77
4, 21593, Note_on_c, 1, 64, 0
4, 21593, Note_on_c, 1, 60, 0
4, 21648, Note_on_c, 1, 64, 77
4, 21693, Note_on_c, 1, 64, 0
4, 21696, Note_on_c, 1, 65, 77
4, 21785, Note_on_c, 1, 65, 0
4, 21840, Note_on_c, 1, 65, 77
4, 21840, Note_on_c, 1, 55, 77
4, 21885, Note_on_c, 1, 65, 0
4, 21885, Note_on_c, 1, 55, 0
4, 21936, Note_on_c, 1, 64, 77
4, 21981, Note_on_c, 1, 64, 0
4, 21984, Note_on_c, 1, 64, 77
4, 22029, Note_on_c, 1, 64, 0
4, 22032, Note_on_c, 1, 65, 77
4, 22077, Note_on_c, 1, 65, 0
4, 22080, Note_on_c, 1, 64, 77
4, 22125, Note_on_c, 1, 64, 0
4, 22128, Note_on_c, 1, 65, 77
4, 22173, Note_on_c, 1, 65, 0
4, 22176, Note_on_c, 1, 64, 77
4, 22221, Note_on_c, 1, 64, 0
4, 22224, Note_on_c, 1, 65, 77
4, 22269, Note_on_c, 1, 65, 0
4, 22320, Note_on_c, 1, 64, 77
4, 22365, Note_on_c, 1, 64, 0
4, 22368, Note_on_c, 1, 64, 77
4, 22413, Note_on_c, 1, 64, 0
4, 22416, Note_on_c, 1, 65, 77
4, 22461, Note_on_c, 1, 65, 0
4, 22464, Note_on_c, 1, 64, 77
4, 22509, Note_on_c, 1, 64, 0
4, 22512, Note_on_c, 1, 65, 77
4, 22557, Note_on_c, 1, 65, 0
4, 22560, Note_on_c, 1, 64, 77
4, 22605, Note_on_c, 1, 64, 0
4, 22608, Note_on_c, 1, 65, 77
4, 22653, Note_on_c, 1, 65, 0
4, 22656, Note_on_c, 1, 64, 77
4, 22745, Note_on_c, 1, 64, 0
4, 22752, Note_on_c, 1, 60, 77
4, 22893, Note_on_c, 1, 60, 0
4, 23088, Note_on_c, 1, 63, 77
4, 23133, Note_on_c, 1, 63, 0
4, 23136, Note_on_c, 1, 64, 78
4, 23181, Note_on_c, 1, 64, 0
4, 23184, Note_on_c, 1, 65, 80
4, 23229, Note_on_c, 1, 65, 0
4, 23232, Note_on_c, 1, 64, 81
4, 23321, Note_on_c, 1, 64, 0
4, 23376, Note_on_c, 1, 65, 77
4, 23421, Note_on_c, 1, 65, 0
4, 23424, Note_on_c, 1, 64, 77
4, 23469, Note_on_c, 1, 64, 0
4, 23568, Note_on_c, 1, 53, 77
4, 23613, Note_on_c, 1, 53, 0
4, 23616, Note_on_c, 1, 52, 77
4, 23661, Note_on_c, 1, 52, 0
4, 23808, Note_on_c, 1, 48, 85
4, 23814, Note_on_c, 1, 51, 85
4, 23820, Note_on_c, 1, 55, 85
4, 23826, Note_on_c, 1, 60, 85
4, 23853, Note_on_c, 1, 60, 0
4, 23853, Note_on_c, 1, 55, 0
4, 23853, Note_on_c, 1, 51, 0
4, 23853, Note_on_c, 1, 48, 0
4, 23856, Note_on_c, 1, 60, 85
4, 23876, Note_on_c, 1, 60, 0
4, 23904, Note_on_c, 1, 60, 85
4, 23924, Note_on_c, 1, 60, 0
4, 23952, Note_on_c, 1, 60, 85
4, 23972, Note_on_c, 1, 60, 0
4, 24000, Note_on_c, 1, 60, 85
4, 24020, Note_on_c, 1, 60, 0
4, 24048, Note_on_c, 1, 60, 85
4, 24068, Note_on_c, 1, 60, 0
4, 24096, Note_on_c, 1, 60, 85
4, 24116, Note_on_c, 1, 60, 0
4, 24144, Note_on_c, 1, 60, 85
4, 24164, Note_on_c, 1, 60, 0
4, 24192, Note_on_c, 1, 48, 85
4, 24198, Note_on_c, 1, 51, 85
4, 24204, Note_on_c, 1, 56, 85
4, 24210, Note_on_c, 1, 60, 85
4, 24237, Note_on_c, 1, 60, 0
4, 24237, Note_on_c, 1, 56, 0
4, 24237, Note_on_c, 1, 51, 0
4, 24237, Note_on_c, 1, 48, 0
4, 24240, Note_on_c, 1, 60, 85
4, 24260, Note_on_c, 1, 60, 0
4, 24288, Note_on_c, 1, 60, 85
4, 24308, Note_on_c, 1, 60, 0
4, 24336, Note_on_c, 1, 60, 85
4, 24356, Note_on_c, 1, 60, 0
4, 24384, Note_on_c, 1, 60, 85
4, 24404, Note_on_c, 1, 60, 0
4, 24432, Note_on_c, 1, 60, 85
4, 24452, Note_on_c, 1, 60, 0
4, 24480, Note_on_c, 1, 60, 85
4, 24500, Note_on_c, 1, 60, 0
4, 24528, Note_on_c, 1, 60, 85
4, 24548, Note_on_c, 1, 60, 0
4, 24576, Note_on_c, 1, 60, 85
4, 24582, Note_on_c, 1, 63, 85
4, 24588, Note_on_c, 1, 66, 85
4, 24594, Note_on_c, 1, 69, 85
4, 24621, Note_on_c, 1, 69, 0
4, 24621, Note_on_c, 1, 66, 0
4, 24621, Note_on_c, 1, 63, 0
4, 24621, Note_on_c, 1, 60, 0
4, 24624, Note_on_c, 1, 72, 85
4, 24624, Note_on_c, 1, 69, 85
4, 24644, Note_on_c, 1, 72, 0
4, 24644, Note_on_c, 1, 69, 0
4, 24672, Note_on_c, 1, 72, 85
4, 24672, Note_on_c, 1, 69, 85
4, 24692, Note_on_c, 1, 72, 0
4, 24692, Note_on_c, 1, 69, 0
4, 24720, Note_on_c, 1, 72, 85
4, 24720, Note_on_c, 1, 69, 85
4, 24740, Note_on_c, 1, 72, 0
4, 24740, Note_on_c, 1, 69, 0
4, 24768, Note_on_c, 1, 72, 85
4, 24768, Note_on_c, 1, 69, 85
4, 24813, Note_on_c, 1, 72, 0
4, 24813, Note_on_c, 1, 69, 0
4, 24960, Note_on_c, 1, 43, 77
4, 25005, Note_on_c, 1, 43, 0
4, 25008, Note_on_c, 1, 55, 77
4, 25053, Note_on_c, 1, 55, 0
4, 25056, Note_on_c, 1, 55, 77
4, 25101, Note_on_c, 1, 55, 0
4, 25104, Note_on_c, 1, 55, 77
4, 25149, Note_on_c, 1, 55, 0
4, 25152, Note_on_c, 1, 55, 77
4, 25241, Note_on_c, 1, 55, 0
4, 25368, Note_on_c, 1, 43, 77
4, 25391, Note_on_c, 1, 43, 0
4, 25392, Note_on_c, 1, 46, 77
4, 25415, Note_on_c, 1, 46, 0
4, 25416, Note_on_c, 1, 50, 77
4, 25439, Note_on_c, 1, 50, 0
4, 25440, Note_on_c, 1, 55, 77
4, 25485, Note_on_c, 1, 55, 0
4, 25728, Note_on_c, 1, 43, 85
4, 25734, Note_on_c, 1, 49, 85
4, 25740, Note_on_c, 1, 52, 85
4, 25746, Note_on_c, 1, 55, 85
4, 25773, Note_on_c, 1, 55, 0
4, 25773, Note_on_c, 1, 52, 0
4, 25773, Note_on_c, 1, 49, 0
4, 25773, Note_on_c, 1, 43, 0
4, 25776, Note_on_c, 1, 57, 85
4, 25776, Note_on_c, 1, 55, 85
4, 25796, Note_on_c, 1, 57, 0
4, 25796, Note_on_c, 1, 55, 0
4, 25824, Note_on_c, 1, 57, 85
4, 25824, Note_on_c, 1, 55, 85
4, 25844, Note_on_c, 1, 57, 0
4, 25844, Note_on_c, 1, 55, 0
4, 25872, Note_on_c, 1, 57, 85
4, 25872, Note_on_c, 1, 55, 85
4, 25892, Note_on_c, 1, 57, 0
4, 25892, Note_on_c, 1, 55, 0
4, 25920, Note_on_c, 1, 57, 85
4, 25920, Note_on_c, 1, 55, 85
4, 25965, Note_on_c, 1, 57, 0
4, 25965, Note_on_c, 1, 55, 0
4, 26160, Note_on_c, 1, 69, 60
4, 26160, Note_on_c, 1, 65, 60
4, 26180, Note_on_c, 1, 69, 0
4, 26180, Note_on_c, 1, 65, 0
4, 26208, Note_on_c, 1, 69, 60
4, 26208, Note_on_c, 1, 65, 60
4, 26256, Note_on_c, 1, 69, 0
4, 26256, Note_on_c, 1, 65, 0
4, 26256, Note_on_c, 1, 70, 60
4, 26256, Note_on_c, 1, 67, 60
4, 26301, Note_on_c, 1, 70, 0
4, 26301, Note_on_c, 1, 67, 0
4, 26304, Note_on_c, 1, 69, 60
4, 26304, Note_on_c, 1, 65, 60
4, 26448, Note_on_c, 1, 69, 0
4, 26448, Note_on_c, 1, 65, 0
4, 26448, Note_on_c, 1, 70, 60
4, 26448, Note_on_c, 1, 67, 60
4, 26493, Note_on_c, 1, 70, 0
4, 26493, Note_on_c, 1, 67, 0
4, 26496, Note_on_c, 1, 69, 60
4, 26496, Note_on_c, 1, 65, 60
4, 26640, Note_on_c, 1, 69, 0
4, 26640, Note_on_c, 1, 65, 0
4, 26640, Note_on_c, 1, 70, 60
4, 26640, Note_on_c, 1, 67, 60
4, 26685, Note_on_c, 1, 70, 0
4, 26685, Note_on_c, 1, 67, 0
4, 26688, Note_on_c, 1, 69, 60
4, 26688, Note_on_c, 1, 65, 60
4, 26736, Note_on_c, 1, 69, 0
4, 26736, Note_on_c, 1, 65, 0
4, 26736, Note_on_c, 1, 70, 62
4, 26736, Note_on_c, 1, 67, 62
4, 26781, Note_on_c, 1, 70, 0
4, 26781, Note_on_c, 1, 67, 0
4, 26784, Note_on_c, 1, 69, 64
4, 26784, Note_on_c, 1, 65, 64
4, 26832, Note_on_c, 1, 69, 0
4, 26832, Note_on_c, 1, 65, 0
4, 26832, Note_on_c, 1, 70, 66
4, 26832, Note_on_c, 1, 67, 66
4, 26877, Note_on_c, 1, 70, 0
4, 26877, Note_on_c, 1, 67, 0
4, 26880, Note_on_c, 1, 66, 68
4, 26880, Note_on_c, 1, 69, 68
4, 26880, Note_on_c, 1, 72, 68
4, 27057, Note_on_c, 1, 72, 0
4, 27057, Note_on_c, 1, 69, 0
4, 27057, Note_on_c, 1, 66, 0
4, 27312, Note_on_c, 1, 62, 68
4, 27312, Note_on_c, 1, 58, 68
4, 27332, Note_on_c, 1, 62, 0
4, 27332, Note_on_c, 1, 58, 0
4, 27360, Note_on_c, 1, 62, 68
4, 27360, Note_on_c, 1, 58, 68
4, 27408, Note_on_c, 1, 62, 0
4, 27408, Note_on_c, 1, 58, 0
4, 27408, Note_on_c, 1, 63, 68
4, 27408, Note_on_c, 1, 60, 68
4, 27453, Note_on_c, 1, 63, 0
4, 27453, Note_on_c, 1, 60, 0
4, 27456, Note_on_c, 1, 62, 68
4, 27456, Note_on_c, 1, 58, 68
4, 27600, Note_on_c, 1, 62, 0
4, 27600, Note_on_c, 1, 58, 0
4, 27600, Note_on_c, 1, 63, 68
4, 27600, Note_on_c, 1, 60, 68
4, 27645, Note_on_c, 1, 63, 0
4, 27645, Note_on_c, 1, 60, 0
4, 27648, Note_on_c, 1, 62, 68
4, 27648, Note_on_c, 1, 58, 68
4, 27792, Note_on_c, 1, 62, 0
4, 27792, Note_on_c, 1, 58, 0
4, 27792, Note_on_c, 1, 63, 68
4, 27792, Note_on_c, 1, 60, 68
4, 27837, Note_on_c, 1, 63, 0
4, 27837, Note_on_c, 1, 60, 0
4, 27840, Note_on_c, 1, 62, 69
4, 27840, Note_on_c, 1, 58, 69
4, 27888, Note_on_c, 1, 62, 0
4, 27888, Note_on_c, 1, 58, 0
4, 27888, Note_on_c, 1, 63, 71
4, 27888, Note_on_c, 1, 60, 71
4, 27933, Note_on_c, 1, 63, 0
4, 27933, Note_on_c, 1, 60, 0
4, 27936, Note_on_c, 1, 62, 73
4, 27936, Note_on_c, 1, 58, 73
4, 27984, Note_on_c, 1, 62, 0
4, 27984, Note_on_c, 1, 58, 0
4, 27984, Note_on_c, 1, 63, 75
4, 27984, Note_on_c, 1, 60, 75
4, 28029, Note_on_c, 1, 63, 0
4, 28029, Note_on_c, 1, 60, 0
4, 28032, Note_on_c, 1, 65, 77
4, 28032, Note_on_c, 1, 62, 77
4, 28032, Note_on_c, 1, 59, 77
4, 28209, Note_on_c, 1, 65, 0
4, 28209, Note_on_c, 1, 62, 0
4, 28209, Note_on_c, 1, 59, 0
4, 28416, Note_on_c, 1, 63, 77
4, 28416, Note_on_c, 1, 60, 77
4, 28770, Note_on_c, 1, 63, 0
4, 28770, Note_on_c, 1, 60, 0
4, 28800, Note_on_c, 1, 64, 77
4, 28800, Note_on_c, 1, 60, 77
4, 28800, Note_on_c, 1, 58, 77
4, 29154, Note_on_c, 1, 64, 0
4, 29154, Note_on_c, 1, 60, 0
4, 29154, Note_on_c, 1, 58, 0
4, 29184, Note_on_c, 1, 64, 77
4, 29184, Note_on_c, 1, 61, 77
4, 29184, Note_on_c, 1, 57, 77
4, 29538, Note_on_c, 1, 64, 0
4, 29538, Note_on_c, 1, 61, 0
4, 29538, Note_on_c, 1, 57, 0
4, 29568, Note_on_c, 1, 65, 77
4, 29568, Note_on_c, 1, 62, 77
4, 29568, Note_on_c, 1, 57, 77
4, 29922, Note_on_c, 1, 65, 0
4, 29922, Note_on_c, 1, 62, 0
4, 29922, Note_on_c, 1, 57, 0
4, 29952, Note_on_c, 1, 64, 77
4, 29952, Note_on_c, 1, 61, 77
4, 29952, Note_on_c, 1, 57, 77
4, 30306, Note_on_c, 1, 64, 0
4, 30306, Note_on_c, 1, 61, 0
4, 30306, Note_on_c, 1, 57, 0
4, 30336, Note_on_c, 1, 33, 77
4, 30513, Note_on_c, 1, 33, 0
4, 31488, Control_c, 1, 64, 127
4, 31488, Note_on_c, 1, 55, 77
4, 31511, Note_on_c, 1, 55, 0
4, 31512, Note_on_c, 1, 58, 77
4, 31535, Note_on_c, 1, 58, 0
4, 31536, Note_on_c, 1, 63, 77
4, 31559, Note_on_c, 1, 63, 0
4, 31560, Note_on_c, 1, 67, 77
4, 31583, Note_on_c, 1, 67, 0
4, 31680, Control_c, 1, 64, 0
4, 31824, Control_c, 1, 64, 127
4, 31824, Note_on_c, 1, 67, 77
4, 31869, Note_on_c, 1, 67, 0
4, 31872, Note_on_c, 1, 67, 77
4, 31917, Note_on_c, 1, 67, 0
4, 31920, Note_on_c, 1, 67, 77
4, 31965, Note_on_c, 1, 67, 0
4, 31968, Note_on_c, 1, 67, 77
4, 32013, Note_on_c, 1, 67, 0
4, 32016, Note_on_c, 1, 67, 77
4, 32061, Note_on_c, 1, 67, 0
4, 32064, Note_on_c, 1, 67, 77
4, 32153, Note_on_c, 1, 67, 0
4, 32160, Control_c, 1, 64, 0
4, 32256, Note_on_c, 1, 41, 77
4, 32345, Note_on_c, 1, 41, 0
4, 32400, Note_on_c, 1, 41, 77
4, 32420, Note_on_c, 1, 41, 0
4, 32448, Note_on_c, 1, 43, 77
4, 32468, Note_on_c, 1, 43, 0
4, 32544, Note_on_c, 1, 45, 77
4, 32564, Note_on_c, 1, 45, 0
4, 32640, Note_on_c, 1, 46, 77
4, 32729, Note_on_c, 1, 46, 0
4, 32784, Note_on_c, 1, 41, 77
4, 32804, Note_on_c, 1, 41, 0
4, 32832, Note_on_c, 1, 43, 77
4, 32852, Note_on_c, 1, 43, 0
4, 32928, Note_on_c, 1, 45, 77
4, 32948, Note_on_c, 1, 45, 0
4, 33024, Note_on_c, 1, 38, 77
4, 33113, Note_on_c, 1, 38, 0
4, 33408, Note_on_c, 1, 63, 57
4, 33408, Note_on_c, 1, 60, 57
4, 33428, Note_on_c, 1, 63, 0
4, 33428, Note_on_c, 1, 60, 0
4, 33504, Note_on_c, 1, 63, 60
4, 33504, Note_on_c, 1, 60, 60
4, 33524, Note_on_c, 1, 63, 0
4, 33524, Note_on_c, 1, 60, 0
4, 33600, Note_on_c, 1, 63, 62
4, 33600, Note_on_c, 1, 60, 62
4, 33620, Note_on_c, 1, 63, 0
4, 33620, Note_on_c, 1, 60, 0
4, 33696, Note_on_c, 1, 63, 64
4, 33696, Note_on_c, 1, 60, 64
4, 33716, Note_on_c, 1, 63, 0
4, 33716, Note_on_c, 1, 60, 0
4, 33792, Note_on_c, 1, 63, 66
4, 33792, Note_on_c, 1, 60, 66
4, 33802, Note_on_c, 1, 63, 0
4, 33802, Note_on_c, 1, 60, 0
4, 33840, Note_on_c, 1, 63, 68
4, 33840, Note_on_c, 1, 60, 68
4, 33850, Note_on_c, 1, 63, 0
4, 33850, Note_on_c, 1, 60, 0
4, 33888, Note_on_c, 1, 63, 69
4, 33888, Note_on_c, 1, 60, 69
4, 33898, Note_on_c, 1, 63, 0
4, 33898, Note_on_c, 1, 60, 0
4, 33936, Note_on_c, 1, 63, 70
4, 33936, Note_on_c, 1, 60, 70
4, 33946, Note_on_c, 1, 63, 0
4, 33946, Note_on_c, 1, 60, 0
4, 33984, Note_on_c, 1, 66, 71
4, 33984, Note_on_c, 1, 57, 71
4, 33994, Note_on_c, 1, 66, 0
4, 33994, Note_on_c, 1, 57, 0
4, 34032, Note_on_c, 1, 66, 72
4, 34032, Note_on_c, 1, 57, 72
4, 34042, Note_on_c, 1, 66, 0
4, 34042, Note_on_c, 1, 57, 0
4, 34080, Note_on_c, 1, 66, 73
4, 34080, Note_on_c, 1, 57, 73
4, 34090, Note_on_c, 1, 66, 0
4, 34090, Note_on_c, 1, 57, 0
4, 34128, Note_on_c, 1, 66, 74
4, 34128, Note_on_c, 1, 57, 74
4, 34138, Note_on_c, 1, 66, 0
4, 34138, Note_on_c, 1, 57, 0
4, 34176, Note_on_c, 1, 67, 75
4, 34176, Note_on_c, 1, 58, 75
4, 34186, Note_on_c, 1, 67, 0
4, 34186, Note_on_c, 1, 58, 0
4, 34224, Note_on_c, 1, 67, 77
4, 34224, Note_on_c, 1, 58, 77
4, 34234, Note_on_c, 1, 67, 0
4, 34234, Note_on_c, 1, 58, 0
4, 34272, Note_on_c, 1, 67, 78
4, 34272, Note_on_c, 1, 58, 78
4, 34282, Note_on_c, 1, 67, 0
4, 34282, Note_on_c, 1, 58, 0
4, 34320, Note_on_c, 1, 67, 79
4, 34320, Note_on_c, 1, 58, 79
4, 34330, Note_on_c, 1, 67, 0
4, 34330, Note_on_c, 1, 58, 0
4, 34368, Note_on_c, 1, 64, 80
4, 34368, Note_on_c, 1, 58, 80
4, 34378, Note_on_c, 1, 64, 0
4, 34378, Note_on_c, 1, 58, 0
4, 34416, Note_on_c, 1, 64, 81
4, 34416, Note_on_c, 1, 58, 81
4, 34426, Note_on_c, 1, 64, 0
4, 34426, Note_on_c, 1, 58, 0
4, 34464, Note_on_c, 1, 64, 82
4, 34464, Note_on_c, 1, 58, 82
4, 34474, Note_on_c, 1, 64, 0
4, 34474, Note_on_c, 1, 58, 0
4, 34512, Note_on_c, 1, 64, 83
4, 34512, Note_on_c, 1, 58, 83
4, 34522, Note_on_c, 1, 64, 0
4, 34522, Note_on_c, 1, 58, 0
4, 34560, Note_on_c, 1, 41, 85
4, 34566, Note_on_c, 1, 45, 85
4, 34572, Note_on_c, 1, 48, 85
4, 34578, Note_on_c, 1, 53, 85
4, 34605, Note_on_c, 1, 53, 0
4, 34605, Note_on_c, 1, 48, 0
4, 34605, Note_on_c, 1, 45, 0
4, 34605, Note_on_c, 1, 41, 0
4, 34608, Note_on_c, 1, 53, 85
4, 34628, Note_on_c, 1, 53, 0
4, 34656, Note_on_c, 1, 53, 85
4, 34676, Note_on_c, 1, 53, 0
4, 34704, Note_on_c, 1, 53, 85
4, 34724, Note_on_c, 1, 53, 0
4, 34752, Note_on_c, 1, 53, 85
4, 34772, Note_on_c, 1, 53, 0
4, 34800, Note_on_c, 1, 53, 83
4, 34820, Note_on_c, 1, 53, 0
4, 34848, Note_on_c, 1, 53, 81
4, 34868, Note_on_c, 1, 53, 0
4, 34896, Note_on_c, 1, 53, 79
4, 34916, Note_on_c, 1, 53, 0
4, 34944, Note_on_c, 1, 53, 77
4, 34964, Note_on_c, 1, 53, 0
4, 34992, Note_on_c, 1, 53, 77
4, 35012, Note_on_c, 1, 53, 0
4, 35040, Note_on_c, 1, 53, 77
4, 35060, Note_on_c, 1, 53, 0
4, 35088, Note_on_c, 1, 53, 77
4, 35108, Note_on_c, 1, 53, 0
4, 35136, Note_on_c, 1, 53, 77
4, 35156, Note_on_c, 1, 53, 0
4, 35184, Note_on_c, 1, 53, 77
4, 35204, Note_on_c, 1, 53, 0
4, 35232, Note_on_c, 1, 53, 77
4, 35252, Note_on_c, 1, 53, 0
4, 35280, Note_on_c, 1, 53, 77
4, 35300, Note_on_c, 1, 53, 0
4, 35328, Note_on_c, 1, 53, 77
4, 35373, Note_on_c, 1, 53, 0
4, 35424, Note_on_c, 1, 60, 77
4, 35424, Note_on_c, 1, 57, 77
4, 35444, Note_on_c, 1, 60, 0
4, 35444, Note_on_c, 1, 57, 0
4, 35472, Note_on_c, 1, 60, 77
4, 35472, Note_on_c, 1, 57, 77
4, 35492, Note_on_c, 1, 60, 0
4, 35492, Note_on_c, 1, 57, 0
4, 35520, Note_on_c, 1, 60, 77
4, 35520, Note_on_c, 1, 57, 77
4, 35660, Note_on_c, 1, 60, 0
4, 35660, Note_on_c, 1, 57, 0
4, 35664, Note_on_c, 1, 58, 77
4, 35664, Note_on_c, 1, 48, 77
4, 35709, Note_on_c, 1, 58, 0
4, 35709, Note_on_c, 1, 48, 0
4, 35712, Note_on_c, 1, 57, 77
4, 35712, Note_on_c, 1, 53, 77
4, 35757, Note_on_c, 1, 57, 0
4, 35757, Note_on_c, 1, 53, 0
4, 35808, Note_on_c, 1, 45, 77
4, 35808, Note_on_c, 1, 41, 77
4, 35828, Note_on_c, 1, 45, 0
4, 35828, Note_on_c, 1, 41, 0
4, 35880, Note_on_c, 1, 45, 77
4, 35880, Note_on_c, 1, 41, 77
4, 35890, Note_on_c, 1, 45, 0
4, 35890, Note_on_c, 1, 41, 0
4, 35904, Note_on_c, 1, 45, 77
4, 35904, Note_on_c, 1, 41, 77
4, 35949, Note_on_c, 1, 45, 0
4, 35949, Note_on_c, 1, 41, 0
4, 36864, Note_on_c, 1, 57, 85
4, 36909, Note_on_c, 1, 57, 0
4, 36912, Note_on_c, 1, 69, 85
4, 36957, Note_on_c, 1, 69, 0
4, 36960, Note_on_c, 1, 74, 77
4, 37049, Note_on_c, 1, 74, 0
4, 37056, Note_on_c, 1, 74, 77
4, 37189, Note_on_c, 1, 74, 0
4, 37200, Note_on_c, 1, 75, 77
4, 37293, Note_on_c, 1, 75, 0
4, 37296, Note_on_c, 1, 74, 77
4, 37341, Note_on_c, 1, 74, 0
4, 37344, Note_on_c, 1, 75, 77
4, 37433, Note_on_c, 1, 75, 0
4, 37440, Note_on_c, 1, 74, 77
4, 37529, Note_on_c, 1, 74, 0
4, 37584, Note_on_c, 1, 73, 77
4, 37677, Note_on_c, 1, 73, 0
4, 37680, Note_on_c, 1, 72, 77
4, 37725, Note_on_c, 1, 72, 0
4, 37728, Note_on_c, 1, 73, 77
4, 37817, Note_on_c, 1, 73, 0
4, 37824, Note_on_c, 1, 72, 77
4, 37913, Note_on_c, 1, 72, 0
4, 37968, Note_on_c, 1, 72, 68
4, 38013, Note_on_c, 1, 72, 0
4, 38016, Note_on_c, 1, 74, 68
4, 38064, Note_on_c, 1, 74, 0
4, 38064, Note_on_c, 1, 72, 68
4, 38109, Note_on_c, 1, 72, 0
4, 38160, Note_on_c, 1, 72, 68
4, 38205, Note_on_c, 1, 72, 0
4, 38208, Note_on_c, 1, 74, 68
4, 38256, Note_on_c, 1, 74, 0
4, 38256, Note_on_c, 1, 72, 68
4, 38301, Note_on_c, 1, 72, 0
4, 38352, Note_on_c, 1, 56, 77
4, 38400, Note_on_c, 1, 56, 0
4, 38400, Note_on_c, 1, 55, 77
4, 38445, Note_on_c, 1, 55, 0
4, 38448, Note_on_c, 1, 71, 77
4, 38496, Note_on_c, 1, 71, 0
4, 38496, Note_on_c, 1, 72, 77
4, 38541, Note_on_c, 1, 72, 0
4, 38544, Note_on_c, 1, 64, 77
4, 38592, Note_on_c, 1, 64, 0
4, 38592, Note_on_c, 1, 65, 77
4, 38637, Note_on_c, 1, 65, 0
4, 38640, Note_on_c, 1, 69, 77
4, 38688, Note_on_c, 1, 69, 0
4, 38688, Note_on_c, 1, 70, 77
4, 38777, Note_on_c, 1, 70, 0
4, 38784, Note_on_c, 1, 58, 77
4, 38873, Note_on_c, 1, 58, 0
4, 39024, Note_on_c, 1, 59, 77
4, 39044, Note_on_c, 1, 59, 0
4, 39120, Note_on_c, 1, 65, 77
4, 39140, Note_on_c, 1, 65, 0
4, 39216, Note_on_c, 1, 60, 77
4, 39236, Note_on_c, 1, 60, 0
4, 39600, Note_on_c, 1, 53, 85
4, 39612, Note_on_c, 1, 53, 0
4, 39612, Note_on_c, 1, 57, 85
4, 39618, Note_on_c, 1, 57, 0
4, 39618, Note_on_c, 1, 60, 85
4, 39624, Note_on_c, 1, 60, 0
4, 39696, Note_on_c, 1, 58, 85
4, 39744, Note_on_c, 1, 58, 0
4, 39744, Note_on_c, 1, 57, 85
4, 39764, Note_on_c, 1, 57, 0
4, 39792, Note_on_c, 1, 53, 85
4, 39804, Note_on_c, 1, 53, 0
4, 39804, Note_on_c, 1, 57, 85
4, 39810, Note_on_c, 1, 57, 0
4, 39810, Note_on_c, 1, 60, 85
4, 39816, Note_on_c, 1, 60, 0
4, 39888, Note_on_c, 1, 58, 85
4, 39936, Note_on_c, 1, 58, 0
4, 39936, Note_on_c, 1, 57, 85
4, 39956, Note_on_c, 1, 57, 0
4, 39984, Note_on_c, 1, 53, 85
4, 39996, Note_on_c, 1, 53, 0
4, 39996, Note_on_c, 1, 57, 85
4, 40002, Note_on_c, 1, 57, 0
4, 40002, Note_on_c, 1, 60, 85
4, 40008, Note_on_c, 1, 60, 0
4, 40080, Note_on_c, 1, 58, 85
4, 40128, Note_on_c, 1, 58, 0
4, 40128, Note_on_c, 1, 57, 85
4, 40148, Note_on_c, 1, 57, 0
4, 40464, Note_on_c, 1, 64, 85
4, 40512, Note_on_c, 1, 64, 0
4, 40512, Note_on_c, 1, 65, 85
4, 40557, Note_on_c, 1, 65, 0
4, 40560, Note_on_c, 1, 58, 85
4, 40605, Note_on_c, 1, 58, 0
4, 40752, Note_on_c, 1, 62, 77
4, 40752, Note_on_c, 1, 59, 77
4, 40800, Note_on_c, 1, 62, 0
4, 40800, Note_on_c, 1, 59, 0
4, 40800, Note_on_c, 1, 60, 77
4, 40845, Note_on_c, 1, 60, 0
4, 40848, Note_on_c, 1, 48, 77
4, 40893, Note_on_c, 1, 48, 0
4, 40896, Note_on_c, 1, 53, 77
4, 40916, Note_on_c, 1, 53, 0
4, 40944, Note_on_c, 1, 53, 85
4, 40956, Note_on_c, 1, 53, 0
4, 40956, Note_on_c, 1, 57, 85
4, 40962, Note_on_c, 1, 57, 0
4, 40962, Note_on_c, 1, 60, 85
4, 40968, Note_on_c, 1, 60, 0
4, 41040, Note_on_c, 1, 58, 85
4, 41088, Note_on_c, 1, 58, 0
4, 41088, Note_on_c, 1, 57, 85
4, 41108, Note_on_c, 1, 57, 0
4, 41136, Note_on_c, 1, 53, 85
4, 41148, Note_on_c, 1, 53, 0
4, 41148, Note_on_c, 1, 57, 85
4, 41154, Note_on_c, 1, 57, 0
4, 41154, Note_on_c, 1, 60, 85
4, 41160, Note_on_c, 1, 60, 0
4, 41232, Note_on_c, 1, 58, 85
4, 41280, Note_on_c, 1, 58, 0
4, 41280, Note_on_c, 1, 57, 85
4, 41300, Note_on_c, 1, 57, 0
4, 41328, Note_on_c, 1, 55, 85
4, 41340, Note_on_c, 1, 55, 0
4, 41340, Note_on_c, 1, 59, 85
4, 41346, Note_on_c, 1, 59, 0
4, 41346, Note_on_c, 1, 62, 85
4, 41352, Note_on_c, 1, 62, 0
4, 41424, Note_on_c, 1, 67, 85
4, 41424, Note_on_c, 1, 65, 85
4, 41469, Note_on_c, 1, 67, 0
4, 41469, Note_on_c, 1, 65, 0
4, 41472, Note_on_c, 1, 67, 85
4, 41472, Note_on_c, 1, 64, 85
4, 41492, Note_on_c, 1, 67, 0
4, 41492, Note_on_c, 1, 64, 0
4, 41520, Note_on_c, 1, 60, 85
4, 41528, Note_on_c, 1, 60, 0
4, 41528, Note_on_c, 1, 64, 85
4, 41536, Note_on_c, 1, 64, 0
4, 41536, Note_on_c, 1, 67, 85
4, 41544, Note_on_c, 1, 67, 0
4, 41616, Note_on_c, 1, 67, 85
4, 41616, Note_on_c, 1, 64, 85
4, 41661, Note_on_c, 1, 67, 0
4, 41661, Note_on_c, 1, 64, 0
4, 41664, Note_on_c, 1, 65, 85
4, 41709, Note_on_c, 1, 65, 0
4, 41712, Note_on_c, 1, 58, 85
4, 41720, Note_on_c, 1, 58, 0
4, 41720, Note_on_c, 1, 62, 85
4, 41728, Note_on_c, 1, 62, 0
4, 41728, Note_on_c, 1, 66, 85
4, 41736, Note_on_c, 1, 66, 0
4, 41808, Note_on_c, 1, 62, 85
4, 41808, Note_on_c, 1, 59, 85
4, 41853, Note_on_c, 1, 62, 0
4, 41853, Note_on_c, 1, 59, 0
4, 41856, Note_on_c, 1, 60, 85
4, 41901, Note_on_c, 1, 60, 0
4, 42240, Note_on_c, 1, 61, 69
4, 42240, Note_on_c, 1, 58, 69
4, 42260, Note_on_c, 1, 61, 0
4, 42260, Note_on_c, 1, 58, 0
4, 42336, Note_on_c, 1, 61, 71
4, 42336, Note_on_c, 1, 58, 71
4, 42356, Note_on_c, 1, 61, 0
4, 42356, Note_on_c, 1, 58, 0
4, 42432, Note_on_c, 1, 61, 74
4, 42432, Note_on_c, 1, 58, 74
4, 42452, Note_on_c, 1, 61, 0
4, 42452, Note_on_c, 1, 58, 0
4, 42528, Note_on_c, 1, 61, 77
4, 42528, Note_on_c, 1, 58, 77
4, 42548, Note_on_c, 1, 61, 0
4, 42548, Note_on_c, 1, 58, 0
4, 42624, Note_on_c, 1, 61, 79
4, 42624, Note_on_c, 1, 58, 79
4, 42634, Note_on_c, 1, 61, 0
4, 42634, Note_on_c, 1, 58, 0
4, 42672, Note_on_c, 1, 61, 81
4, 42672, Note_on_c, 1, 58, 81
4, 42682, Note_on_c, 1, 61, 0
4, 42682, Note_on_c, 1, 58, 0
4, 42720, Note_on_c, 1, 61, 82
4, 42720, Note_on_c, 1, 58, 82
4, 42730, Note_on_c, 1, 61, 0
4, 42730, Note_on_c, 1, 58, 0
4, 42768, Note_on_c, 1, 61, 83
4, 42768, Note_on_c, 1, 58, 83
4, 42778, Note_on_c, 1, 61, 0
4, 42778, Note_on_c, 1, 58, 0
4, 42816, Note_on_c, 1, 61, 85
4, 42816, Note_on_c, 1, 58, 85
4, 42826, Note_on_c, 1, 61, 0
4, 42826, Note_on_c, 1, 58, 0
4, 42864, Note_on_c, 1, 61, 85
4, 42864, Note_on_c, 1, 58, 85
4, 42874, Note_on_c, 1, 61, 0
4, 42874, Note_on_c, 1, 58, 0
4, 42912, Note_on_c, 1, 61, 85
4, 42912, Note_on_c, 1, 58, 85
4, 42922, Note_on_c, 1, 61, 0
4, 42922, Note_on_c, 1, 58, 0
4, 42960, Note_on_c, 1, 61, 85
4, 42960, Note_on_c, 1, 58, 85
4, 42970, Note_on_c, 1, 61, 0
4, 42970, Note_on_c, 1, 58, 0
4, 43008, Note_on_c, 1, 61, 85
4, 43008, Note_on_c, 1, 58, 85
4, 43008, Note_on_c, 1, 55, 85
4, 43362, Note_on_c, 1, 61, 0
4, 43362, Note_on_c, 1, 58, 0
4, 43362, Note_on_c, 1, 55, 0
4, 43392, Note_on_c, 1, 60, 77
4, 43392, Note_on_c, 1, 57, 77
4, 43481, Note_on_c, 1, 60, 0
4, 43481, Note_on_c, 1, 57, 0
4, 43536, Note_on_c, 1, 57, 77
4, 43584, Note_on_c, 1, 57, 0
4, 43584, Note_on_c, 1, 58, 77
4, 43673, Note_on_c, 1, 58, 0
4, 43728, Note_on_c, 1, 58, 77
4, 43728, Note_on_c, 1, 48, 77
4, 43773, Note_on_c, 1, 58, 0
4, 43773, Note_on_c, 1, 48, 0
4, 43776, Note_on_c, 1, 57, 77
4, 43776, Note_on_c, 1, 53, 77
4, 43865, Note_on_c, 1, 57, 0
4, 43865, Note_on_c, 1, 53, 0
4, 43920, Note_on_c, 1, 69, 77
4, 43968, Note_on_c, 1, 69, 0
4, 43968, Note_on_c, 1, 70, 77
4, 44057, Note_on_c, 1, 70, 0
4, 44112, Note_on_c, 1, 70, 77
4, 44112, Note_on_c, 1, 60, 77
4, 44157, Note_on_c, 1, 70, 0
4, 44157, Note_on_c, 1, 60, 0
4, 44208, Note_on_c, 1, 69, 77
4, 44253, Note_on_c, 1, 69, 0
4, 44256, Note_on_c, 1, 69, 77
4, 44304, Note_on_c, 1, 69, 0
4, 44304, Note_on_c, 1, 70, 77
4, 44349, Note_on_c, 1, 70, 0
4, 44352, Note_on_c, 1, 69, 77
4, 44400, Note_on_c, 1, 69, 0
4, 44400, Note_on_c, 1, 70, 77
4, 44445, Note_on_c, 1, 70, 0
4, 44448, Note_on_c, 1, 69, 77
4, 44496, Note_on_c, 1, 69, 0
4, 44496, Note_on_c, 1, 70, 77
4, 44541, Note_on_c, 1, 70, 0
4, 44592, Note_on_c, 1, 69, 77
4, 44637, Note_on_c, 1, 69, 0
4, 44640, Note_on_c, 1, 69, 77
4, 44688, Note_on_c, 1, 69, 0
4, 44688, Note_on_c, 1, 70, 77
4, 44733, Note_on_c, 1, 70, 0
4, 44736, Note_on_c, 1, 69, 77
4, 44784, Note_on_c, 1, 69, 0
4, 44784, Note_on_c, 1, 70, 77
4, 44829, Note_on_c, 1, 70, 0
4, 44832, Note_on_c, 1, 69, 77
4, 44880, Note_on_c, 1, 69, 0
4, 44880, Note_on_c, 1, 70, 77
4, 44925, Note_on_c, 1, 70, 0
4, 44928, Note_on_c, 1, 69, 77
4, 45017, Note_on_c, 1, 69, 0
4, 45024, Note_on_c, 1, 65, 77
4, 45113, Note_on_c, 1, 65, 0
4, 45120, Note_on_c, 1, 65, 77
4, 45165, Note_on_c, 1, 65, 0
4, 45360, Note_on_c, 1, 68, 77
4, 45405, Note_on_c, 1, 68, 0
4, 45408, Note_on_c, 1, 69, 79
4, 45453, Note_on_c, 1, 69, 0
4, 45456, Note_on_c, 1, 70, 82
4, 45501, Note_on_c, 1, 70, 0
4, 45504, Note_on_c, 1, 69, 85
4, 45593, Note_on_c, 1, 69, 0
4, 45648, Note_on_c, 1, 67, 77
4, 45693, Note_on_c, 1, 67, 0
4, 45696, Note_on_c, 1, 69, 77
4, 45741, Note_on_c, 1, 69, 0
4, 45840, Note_on_c, 1, 55, 77
4, 45885, Note_on_c, 1, 55, 0
4, 45888, Note_on_c, 1, 57, 77
4, 45933, Note_on_c, 1, 57, 0
4, 46032, Note_on_c, 1, 43, 77
4, 46077, Note_on_c, 1, 43, 0
4, 46080, Note_on_c, 1, 45, 77
4, 46169, Note_on_c, 1, 45, 0
4, 46176, Note_on_c, 1, 41, 77
4, 46265, Note_on_c, 1, 41, 0
4, 46272, Note_on_c, 1, 41, 77
4, 46361, Note_on_c, 1, 41, 0
4, 46464, Note_on_c, 1, 48, 85
4, 46470, Note_on_c, 1, 51, 85
4, 46476, Note_on_c, 1, 55, 85
4, 46482, Note_on_c, 1, 60, 85
4, 46509, Note_on_c, 1, 60, 0
4, 46509, Note_on_c, 1, 55, 0
4, 46509, Note_on_c, 1, 51, 0
4, 46509, Note_on_c, 1, 48, 0
4, 46512, Note_on_c, 1, 60, 85
4, 46532, Note_on_c, 1, 60, 0
4, 46560, Note_on_c, 1, 60, 85
4, 46580, Note_on_c, 1, 60, 0
4, 46608, Note_on_c, 1, 60, 85
4, 46628, Note_on_c, 1, 60, 0
4, 46656, Note_on_c, 1, 60, 85
4, 46676, Note_on_c, 1, 60, 0
4, 46704, Note_on_c, 1, 60, 85
4, 46724, Note_on_c, 1, 60, 0
4, 46752, Note_on_c, 1, 60, 85
4, 46772, Note_on_c, 1, 60, 0
4, 46800, Note_on_c, 1, 60, 85
4, 46820, Note_on_c, 1, 60, 0
4, 46848, Note_on_c, 1, 48, 85
4, 46854, Note_on_c, 1, 51, 85
4, 46860, Note_on_c, 1, 56, 85
4, 46866, Note_on_c, 1, 60, 85
4, 46893, Note_on_c, 1, 60, 0
4, 46893, Note_on_c, 1, 56, 0
4, 46893, Note_on_c, 1, 51, 0
4, 46893, Note_on_c, 1, 48, 0
4, 46896, Note_on_c, 1, 60, 85
4, 46916, Note_on_c, 1, 60, 0
4, 46944, Note_on_c, 1, 60, 85
4, 46964, Note_on_c, 1, 60, 0
4, 46992, Note_on_c, 1, 60, 85
4, 47012, Note_on_c, 1, 60, 0
4, 47040, Note_on_c, 1, 60, 85
4, 47060, Note_on_c, 1, 60, 0
4, 47088, Note_on_c, 1, 60, 85
4, 47108, Note_on_c, 1, 60, 0
4, 47136, Note_on_c, 1, 60, 85
4, 47156, Note_on_c, 1, 60, 0
4, 47184, Note_on_c, 1, 60, 85
4, 47204, Note_on_c, 1, 60, 0
4, 47232, Note_on_c, 1, 60, 85
4, 47238, Note_on_c, 1, 63, 85
4, 47244, Note_on_c, 1, 66, 85
4, 47250, Note_on_c, 1, 69, 85
4, 47277, Note_on_c, 1, 69, 0
4, 47277, Note_on_c, 1, 66, 0
4, 47277, Note_on_c, 1, 63, 0
4, 47277, Note_on_c, 1, 60, 0
4, 47280, Note_on_c, 1, 72, 85
4, 47280, Note_on_c, 1, 69, 85
4, 47300, Note_on_c, 1, 72, 0
4, 47300, Note_on_c, 1, 69, 0
4, 47328, Note_on_c, 1, 72, 85
4, 47328, Note_on_c, 1, 69, 85
4, 47348, Note_on_c, 1, 72, 0
4, 47348, Note_on_c, 1, 69, 0
4, 47376, Note_on_c, 1, 72, 85
4, 47376, Note_on_c, 1, 69, 85
4, 47396, Note_on_c, 1, 72, 0
4, 47396, Note_on_c, 1, 69, 0
4, 47424, Note_on_c, 1, 72, 85
4, 47424, Note_on_c, 1, 69, 85
4, 47469, Note_on_c, 1, 72, 0
4, 47469, Note_on_c, 1, 69, 0
4, 47616, Note_on_c, 1, 43, 77
4, 47661, Note_on_c, 1, 43, 0
4, 47664, Note_on_c, 1, 55, 77
4, 47709, Note_on_c, 1, 55, 0
4, 47712, Note_on_c, 1, 55, 77
4, 47757, Note_on_c, 1, 55, 0
4, 47760, Note_on_c, 1, 55, 77
4, 47805, Note_on_c, 1, 55, 0
4, 47808, Note_on_c, 1, 55, 77
4, 47897, Note_on_c, 1, 55, 0
4, 48024, Note_on_c, 1, 43, 77
4, 48047, Note_on_c, 1, 43, 0
4, 48048, Note_on_c, 1, 46, 77
4, 48071, Note_on_c, 1, 46, 0
4, 48072, Note_on_c, 1, 50, 77
4, 48095, Note_on_c, 1, 50, 0
4, 48096, Note_on_c, 1, 55, 77
4, 48141, Note_on_c, 1, 55, 0
4, 48384, Note_on_c, 1, 43, 85
4, 48390, Note_on_c, 1, 49, 85
4, 48396, Note_on_c, 1, 52, 85
4, 48402, Note_on_c, 1, 55, 85
4, 48429, Note_on_c, 1, 55, 0
4, 48429, Note_on_c, 1, 52, 0
4, 48429, Note_on_c, 1, 49, 0
4, 48429, Note_on_c, 1, 43, 0
4, 48432, Note_on_c, 1, 57, 85
4, 48432, Note_on_c, 1, 55, 85
4, 48452, Note_on_c, 1, 57, 0
4, 48452, Note_on_c, 1, 55, 0
4, 48480, Note_on_c, 1, 57, 85
4, 48480, Note_on_c, 1, 55, 85
4, 48500, Note_on_c, 1, 57, 0
4, 48500, Note_on_c, 1, 55, 0
4, 48528, Note_on_c, 1, 57, 85
4, 48528, Note_on_c, 1, 55, 85
4, 48548, Note_on_c, 1, 57, 0
4, 48548, Note_on_c, 1, 55, 0
4, 48576, Note_on_c, 1, 57, 85
4, 48576, Note_on_c, 1, 55, 85
4, 48621, Note_on_c, 1, 57, 0
4, 48621, Note_on_c, 1, 55, 0
4, 48816, Note_on_c, 1, 69, 60
4, 48816, Note_on_c, 1, 65, 60
4, 48836, Note_on_c, 1, 69, 0
4, 48836, Note_on_c, 1, 65, 0
4, 48864, Note_on_c, 1, 69, 60
4, 48864, Note_on_c, 1, 65, 60
4, 48912, Note_on_c, 1, 69, 0
4, 48912, Note_on_c, 1, 65, 0
4, 48912, Note_on_c, 1, 70, 60
4, 48912, Note_on_c, 1, 67, 60
4, 48957, Note_on_c, 1, 70, 0
4, 48957, Note_on_c, 1, 67, 0
4, 48960, Note_on_c, 1, 69, 60
4, 48960, Note_on_c, 1, 65, 60
4, 49104, Note_on_c, 1, 69, 0
4, 49104, Note_on_c, 1, 65, 0
4, 49104, Note_on_c, 1, 70, 60
4, 49104, Note_on_c, 1, 67, 60
4, 49149, Note_on_c, 1, 70, 0
4, 49149, Note_on_c, 1, 67, 0
4, 49152, Note_on_c, 1, 69, 60
4, 49152, Note_on_c, 1, 65, 60
4, 49296, Note_on_c, 1, 69, 0
4, 49296, Note_on_c, 1, 65, 0
4, 49296, Note_on_c, 1, 70, 60
4, 49296, Note_on_c, 1, 67, 60
4, 49341, Note_on_c, 1, 70, 0
4, 49341, Note_on_c, 1, 67, 0
4, 49344, Note_on_c, 1, 69, 60
4, 49344, Note_on_c, 1, 65, 60
4, 49392, Note_on_c, 1, 69, 0
4, 49392, Note_on_c, 1, 65, 0
4, 49392, Note_on_c, 1, 70, 62
4, 49392, Note_on_c, 1, 67, 62
4, 49437, Note_on_c, 1, 70, 0
4, 49437, Note_on_c, 1, 67, 0
4, 49440, Note_on_c, 1, 69, 64
4, 49440, Note_on_c, 1, 65, 64
4, 49488, Note_on_c, 1, 69, 0
4, 49488, Note_on_c, 1, 65, 0
4, 49488, Note_on_c, 1, 70, 66
4, 49488, Note_on_c, 1, 67, 66
4, 49533, Note_on_c, 1, 70, 0
4, 49533, Note_on_c, 1, 67, 0
4, 49536, Note_on_c, 1, 66, 68
4, 49536, Note_on_c, 1, 69, 68
4, 49536, Note_on_c, 1, 72, 68
4, 49713, Note_on_c, 1, 72, 0
4, 49713, Note_on_c, 1, 69, 0
4, 49713, Note_on_c, 1, 66, 0
4, 49968, Note_on_c, 1, 62, 68
4, 49968, Note_on_c, 1, 58, 68
4, 49988, Note_on_c, 1, 62, 0
4, 49988, Note_on_c, 1, 58, 0
4, 50016, Note_on_c, 1, 62, 68
4, 50016, Note_on_c, 1, 58, 68
4, 50064, Note_on_c, 1, 62, 0
4, 50064, Note_on_c, 1, 58, 0
4, 50064, Note_on_c, 1, 63, 68
4, 50064, Note_on_c, 1, 60, 68
4, 50109, Note_on_c, 1, 63, 0
4, 50109, Note_on_c, 1, 60, 0
4, 50112, Note_on_c, 1, 62, 68
4, 50112, Note_on_c, 1, 58, 68
4, 50256, Note_on_c, 1, 62, 0
4, 50256, Note_on_c, 1, 58, 0
4, 50256, Note_on_c, 1, 63, 68
4, 50256, Note_on_c, 1, 60, 68
4, 50301, Note_on_c, 1, 63, 0
4, 50301, Note_on_c, 1, 60, 0
4, 50304, Note_on_c, 1, 62, 68
4, 50304, Note_on_c, 1, 58, 68
4, 50448, Note_on_c, 1, 62, 0
4, 50448, Note_on_c, 1, 58, 0
4, 50448, Note_on_c, 1, 63, 68
4, 50448, Note_on_c, 1, 60, 68
4, 50493, Note_on_c, 1, 63, 0
4, 50493, Note_on_c, 1, 60, 0
4, 50496, Note_on_c, 1, 62, 69
4, 50496, Note_on_c, 1, 58, 69
4, 50544, Note_on_c, 1, 62, 0
4, 50544, Note_on_c, 1, 58, 0
4, 50544, Note_on_c, 1, 63, 71
4, 50544, Note_on_c, 1, 60, 71
4, 50589, Note_on_c, 1, 63, 0
4, 50589, Note_on_c, 1, 60, 0
4, 50592, Note_on_c, 1, 62, 73
4, 50592, Note_on_c, 1, 58, 73
4, 50640, Note_on_c, 1, 62, 0
4, 50640, Note_on_c, 1, 58, 0
4, 50640, Note_on_c, 1, 63, 75
4, 50640, Note_on_c, 1, 60, 75
4, 50685, Note_on_c, 1, 63, 0
4, 50685, Note_on_c, 1, 60, 0
4, 50688, Note_on_c, 1, 65, 77
4, 50688, Note_on_c, 1, 62, 77
4, 50688, Note_on_c, 1, 59, 77
4, 50865, Note_on_c, 1, 65, 0
4, 50865, Note_on_c, 1, 62, 0
4, 50865, Note_on_c, 1, 59, 0
4, 51072, Note_on_c, 1, 63, 77
4, 51072, Note_on_c, 1, 60, 77
4, 51426, Note_on_c, 1, 63, 0
4, 51426, Note_on_c, 1, 60, 0
4, 51456, Note_on_c, 1, 64, 77
4, 51456, Note_on_c, 1, 60, 77
4, 51456, Note_on_c, 1, 58, 77
4, 51810, Note_on_c, 1, 64, 0
4, 51810, Note_on_c, 1, 60, 0
4, 51810, Note_on_c, 1, 58, 0
4, 51840, Note_on_c, 1, 64, 77
4, 51840, Note_on_c, 1, 61, 77
4, 51840, Note_on_c, 1, 57, 77
4, 52194, Note_on_c, 1, 64, 0
4, 52194, Note_on_c, 1, 61, 0
4, 52194, Note_on_c, 1, 57, 0
4, 52224, Note_on_c, 1, 65, 77
4, 52224, Note_on_c, 1, 62, 77
4, 52224, Note_on_c, 1, 57, 77
4, 52578, Note_on_c, 1, 65, 0
4, 52578, Note_on_c, 1, 62, 0
4, 52578, Note_on_c, 1, 57, 0
4, 52608, Note_on_c, 1, 64, 77
4, 52608, Note_on_c, 1, 61, 77
4, 52608, Note_on_c, 1, 57, 77
4, 52962, Note_on_c, 1, 64, 0
4, 52962, Note_on_c, 1, 61, 0
4, 52962, Note_on_c, 1, 57, 0
4, 52992, Note_on_c, 1, 33, 77
4, 53169, Note_on_c, 1, 33, 0
4, 54144, Control_c, 1, 64, 127
4, 54144, Note_on_c, 1, 55, 77
4, 54167, Note_on_c, 1, 55, 0
4, 54168, Note_on_c, 1, 58, 77
4, 54191, Note_on_c, 1, 58, 0
4, 54192, Note_on_c, 1, 63, 77
4, 54215, Note_on_c, 1, 63, 0
4, 54216, Note_on_c, 1, 67, 77
4, 54239, Note_on_c, 1, 67, 0
4, 54336, Control_c, 1, 64, 0
4, 54480, Control_c, 1, 64, 127
4, 54480, Note_on_c, 1, 67, 77
4, 54525, Note_on_c, 1, 67, 0
4, 54528, Note_on_c, 1, 67, 77
4, 54573, Note_on_c, 1, 67, 0
4, 54576, Note_on_c, 1, 67, 77
4, 54621, Note_on_c, 1, 67, 0
4, 54624, Note_on_c, 1, 67, 77
4, 54669, Note_on_c, 1, 67, 0
4, 54672, Note_on_c, 1, 67, 77
4, 54717, Note_on_c, 1, 67, 0
4, 54720, Note_on_c, 1, 67, 77
4, 54809, Note_on_c, 1, 67, 0
4, 54816, Control_c, 1, 64, 0
4, 54912, Note_on_c, 1, 41, 77
4, 55001, Note_on_c, 1, 41, 0
4, 55056, Note_on_c, 1, 41, 77
4, 55076, Note_on_c, 1, 41, 0
4, 55104, Note_on_c, 1, 43, 77
4, 55124, Note_on_c, 1, 43, 0
4, 55200, Note_on_c, 1, 45, 77
4, 55220, Note_on_c, 1, 45, 0
4, 55296, Note_on_c, 1, 46, 77
4, 55385, Note_on_c, 1, 46, 0
4, 55440, Note_on_c, 1, 41, 77
4, 55460, Note_on_c, 1, 41, 0
4, 55488, Note_on_c, 1, 43, 77
4, 55508, Note_on_c, 1, 43, 0
4, 55584, Note_on_c, 1, 45, 77
4, 55604, Note_on_c, 1, 45, 0
4, 55680, Note_on_c, 1, 38, 77
4, 55769, Note_on_c, 1, 38, 0
4, 56064, Note_on_c, 1, 63, 57
4, 56064, Note_on_c, 1, 60, 57
4, 56084, Note_on_c, 1, 63, 0
4, 56084, Note_on_c, 1, 60, 0
4, 56160, Note_on_c, 1, 63, 60
4, 56160, Note_on_c, 1, 60, 60
4, 56180, Note_on_c, 1, 63, 0
4, 56180, Note_on_c, 1, 60, 0
4, 56256, Note_on_c, 1, 63, 62
4, 56256, Note_on_c, 1, 60, 62
4, 56276, Note_on_c, 1, 63, 0
4, 56276, Note_on_c, 1, 60, 0
4, 56352, Note_on_c, 1, 63, 64
4, 56352, Note_on_c, 1, 60, 64
4, 56372, Note_on_c, 1, 63, 0
4, 56372, Note_on_c, 1, 60, 0
4, 56448, Note_on_c, 1, 63, 66
4, 56448, Note_on_c, 1, 60, 66
4, 56458, Note_on_c, 1, 63, 0
4, 56458, Note_on_c, 1, 60, 0
4, 56496, Note_on_c, 1, 63, 68
4, 56496, Note_on_c, 1, 60, 68
4, 56506, Note_on_c, 1, 63, 0
4, 56506, Note_on_c, 1, 60, 0
4, 56544, Note_on_c, 1, 63, 69
4, 56544, Note_on_c, 1, 60, 69
4, 56554, Note_on_c, 1, 63, 0
4, 56554, Note_on_c, 1, 60, 0
4, 56592, Note_on_c, 1, 63, 70
4, 56592, Note_on_c, 1, 60, 70
4, 56602, Note_on_c, 1, 63, 0
4, 56602, Note_on_c, 1, 60, 0
4, 56640, Note_on_c, 1, 66, 71
4, 56640, Note_on_c, 1, 57, 71
4, 56650, Note_on_c, 1, 66, 0
4, 56650, Note_on_c, 1, 57, 0
4, 56688, Note_on_c, 1, 66, 72
4, 56688, Note_on_c, 1, 57, 72
4, 56698, Note_on_c, 1, 66, 0
4, 56698, Note_on_c, 1, 57, 0
4, 56736, Note_on_c, 1, 66, 73
4, 56736, Note_on_c, 1, 57, 73
4, 56746, Note_on_c, 1, 66, 0
4, 56746, Note_on_c, 1, 57, 0
4, 56784, Note_on_c, 1, 66, 74
4, 56784, Note_on_c, 1, 57, 74
4, 56794, Note_on_c, 1, 66, 0
4, 56794, Note_on_c, 1, 57, 0
4, 56832, Note_on_c, 1, 67, 75
4, 56832, Note_on_c, 1, 58, 75
4, 56842, Note_on_c, 1, 67, 0
4, 56842, Note_on_c, 1, 58, 0
4, 56880, Note_on_c, 1, 67, 77
4, 56880, Note_on_c, 1, 58, 77
4, 56890, Note_on_c, 1, 67, 0
4, 56890, Note_on_c, 1, 58, 0
4, 56928, Note_on_c, 1, 67, 78
4, 56928, Note_on_c, 1, 58, 78
4, 56938, Note_on_c, 1, 67, 0
4, 56938, Note_on_c, 1, 58, 0
4, 56976, Note_on_c, 1, 67, 79
4, 56976, Note_on_c, 1, 58, 79
4, 56986, Note_on_c, 1, 67, 0
4, 56986, Note_on_c, 1, 58, 0
4, 57024, Note_on_c, 1, 64, 80
4, 57024, Note_on_c, 1, 58, 80
4, 57034, Note_on_c, 1, 64, 0
4, 57034, Note_on_c, 1, 58, 0
4, 57072, Note_on_c, 1, 64, 81
4, 57072, Note_on_c, 1, 58, 81
4, 57082, Note_on_c, 1, 64, 0
4, 57082, Note_on_c, 1, 58, 0
4, 57120, Note_on_c, 1, 64, 82
4, 57120, Note_on_c, 1, 58, 82
4, 57130, Note_on_c, 1, 64, 0
4, 57130, Note_on_c, 1, 58, 0
4, 57168, Note_on_c, 1, 64, 83
4, 57168, Note_on_c, 1, 58, 83
4, 57178, Note_on_c, 1, 64, 0
4, 57178, Note_on_c, 1, 58, 0
4, 57216, Note_on_c, 1, 41, 85
4, 57222, Note_on_c, 1, 45, 85
4, 57228, Note_on_c, 1, 48, 85
4, 57234, Note_on_c, 1, 53, 85
4, 57261, Note_on_c, 1, 53, 0
4, 57261, Note_on_c, 1, 48, 0
4, 57261, Note_on_c, 1, 45, 0
4, 57261, Note_on_c, 1, 41, 0
4, 57264, Note_on_c, 1, 53, 85
4, 57284, Note_on_c, 1, 53, 0
4, 57312, Note_on_c, 1, 53, 85
4, 57332, Note_on_c, 1, 53, 0
4, 57360, Note_on_c, 1, 53, 85
4, 57380, Note_on_c, 1, 53, 0
4, 57408, Note_on_c, 1, 53, 85
4, 57428, Note_on_c, 1, 53, 0
4, 57456, Note_on_c, 1, 53, 83
4, 57476, Note_on_c, 1, 53, 0
4, 57504, Note_on_c, 1, 53, 81
4, 57524, Note_on_c, 1, 53, 0
4, 57552, Note_on_c, 1, 53, 79
4, 57572, Note_on_c, 1, 53, 0
4, 57600, Note_on_c, 1, 53, 77
4, 57620, Note_on_c, 1, 53, 0
4, 57648, Note_on_c, 1, 53, 77
4, 57668, Note_on_c, 1, 53, 0
4, 57696, Note_on_c, 1, 53, 77
4, 57716, Note_on_c, 1, 53, 0
4, 57744, Note_on_c, 1, 53, 77
4, 57764, Note_on_c, 1, 53, 0
4, 57792, Note_on_c, 1, 53, 77
4, 57812, Note_on_c, 1, 53, 0
4, 57840, Note_on_c, 1, 53, 77
4, 57860, Note_on_c, 1, 53, 0
4, 57888, Note_on_c, 1, 53, 77
4, 57908, Note_on_c, 1, 53, 0
4, 57936, Note_on_c, 1, 53, 77
4, 57956, Note_on_c, 1, 53, 0
4, 57984, Note_on_c, 1, 53, 77
4, 58029, Note_on_c, 1, 53, 0
4, 58080, Note_on_c, 1, 60, 77
4, 58080, Note_on_c, 1, 57, 77
4, 58100, Note_on_c, 1, 60, 0
4, 58100, Note_on_c, 1, 57, 0
4, 58128, Note_on_c, 1, 60, 77
4, 58128, Note_on_c, 1, 57, 77
4, 58148, Note_on_c, 1, 60, 0
4, 58148, Note_on_c, 1, 57, 0
4, 58176, Note_on_c, 1, 60, 77
4, 58176, Note_on_c, 1, 57, 77
4, 58316, Note_on_c, 1, 60, 0
4, 58316, Note_on_c, 1, 57, 0
4, 58320, Note_on_c, 1, 58, 77
4, 58320, Note_on_c, 1, 48, 77
4, 58365, Note_on_c, 1, 58, 0
4, 58365, Note_on_c, 1, 48, 0
4, 58368, Note_on_c, 1, 57, 77
4, 58368, Note_on_c, 1, 53, 77
4, 58413, Note_on_c, 1, 57, 0
4, 58413, Note_on_c, 1, 53, 0
4, 58464, Note_on_c, 1, 45, 77
4, 58464, Note_on_c, 1, 41, 77
4, 58484, Note_on_c, 1, 45, 0
4, 58484, Note_on_c, 1, 41, 0
4, 58536, Note_on_c, 1, 45, 77
4, 58536, Note_on_c, 1, 41, 77
4, 58546, Note_on_c, 1, 45, 0
4, 58546, Note_on_c, 1, 41, 0
4, 58560, Note_on_c, 1, 45, 77
4, 58560, Note_on_c, 1, 41, 77
4, 58605, Note_on_c, 1, 45, 0
4, 58605, Note_on_c, 1, 41, 0
4, 59520, Note_on_c, 1, 57, 85
4, 59565, Note_on_c, 1, 57, 0
4, 59568, Note_on_c, 1, 69, 85
4, 59613, Note_on_c, 1, 69, 0
4, 59616, Note_on_c, 1, 74, 77
4, 59705, Note_on_c, 1, 74, 0
4, 59712, Note_on_c, 1, 74, 77
4, 59845, Note_on_c, 1, 74, 0
4, 59856, Note_on_c, 1, 75, 77
4, 59949, Note_on_c, 1, 75, 0
4, 59952, Note_on_c, 1, 74, 77
4, 59997, Note_on_c, 1, 74, 0
4, 60000, Note_on_c, 1, 75, 77
4, 60089, Note_on_c, 1, 75, 0
4, 60096, Note_on_c, 1, 74, 77
4, 60185, Note_on_c, 1, 74, 0
4, 60240, Note_on_c, 1, 73, 77
4, 60333, Note_on_c, 1, 73, 0
4, 60336, Note_on_c, 1, 72, 77
4, 60381, Note_on_c, 1, 72, 0
4, 60384, Note_on_c, 1, 73, 77
4, 60473, Note_on_c, 1, 73, 0
4, 60480, Note_on_c, 1, 72, 77
4, 60569, Note_on_c, 1, 72, 0
4, 60624, Note_on_c, 1, 72, 68
4, 60669, Note_on_c, 1, 72, 0
4, 60672, Note_on_c, 1, 74, 68
4, 60720, Note_on_c, 1, 74, 0
4, 60720, Note_on_c, 1, 72, 68
4, 60765, Note_on_c, 1, 72, 0
4, 60816, Note_on_c, 1, 72, 68
4, 60861, Note_on_c, 1, 72, 0
4, 60864, Note_on_c, 1, 74, 68
4, 60912, Note_on_c, 1, 74, 0
4, 60912, Note_on_c, 1, 72, 68
4, 60957, Note_on_c, 1, 72, 0
4, 61008, Note_on_c, 1, 56, 77
4, 61056, Note_on_c, 1, 56, 0
4, 61056, Note_on_c, 1, 55, 77
4, 61101, Note_on_c, 1, 55, 0
4, 61104, Note_on_c, 1, 71, 77
4, 61152, Note_on_c, 1, 71, 0
4, 61152, Note_on_c, 1, 72, 77
4, 61197, Note_on_c, 1, 72, 0
4, 61200, Note_on_c, 1, 64, 77
4, 61248, Note_on_c, 1, 64, 0
4, 61248, Note_on_c, 1, 65, 77
4, 61293, Note_on_c, 1, 65, 0
4, 61296, Note_on_c, 1, 69, 77
4, 61344, Note_on_c, 1, 69, 0
4, 61344, Note_on_c, 1, 70, 77
4, 61433, Note_on_c, 1, 70, 0
4, 61440, Note_on_c, 1, 58, 77
4, 61529, Note_on_c, 1, 58, 0
4, 61680, Note_on_c, 1, 59, 77
4, 61700, Note_on_c, 1, 59, 0
4, 61776, Note_on_c, 1, 65, 77
4, 61796, Note_on_c, 1, 65, 0
4, 61872, Note_on_c, 1, 60, 77
4, 61892, Note_on_c, 1, 60, 0
4, 62256, Note_on_c, 1, 53, 85
4, 62268, Note_on_c, 1, 53, 0
4, 62268, Note_on_c, 1, 57, 85
4, 62274, Note_on_c, 1, 57, 0
4, 62274, Note_on_c, 1, 60, 85
4, 62280, Note_on_c, 1, 60, 0
4, 62352, Note_on_c, 1, 58, 85
4, 62400, Note_on_c, 1, 58, 0
4, 62400, Note_on_c, 1, 57, 85
4, 62420, Note_on_c, 1, 57, 0
4, 62448, Note_on_c, 1, 53, 85
4, 62460, Note_on_c, 1, 53, 0
4, 62460, Note_on_c, 1, 57, 85
4, 62466, Note_on_c, 1, 57, 0
4, 62466, Note_on_c, 1, 60, 85
4, 62472, Note_on_c, 1, 60, 0
4, 62544, Note_on_c, 1, 58, 85
4, 62592, Note_on_c, 1, 58, 0
4, 62592, Note_on_c, 1, 57, 85
4, 62612, Note_on_c, 1, 57, 0
4, 62640, Note_on_c, 1, 53, 85
4, 62652, Note_on_c, 1, 53, 0
4, 62652, Note_on_c, 1, 57, 85
4, 62658, Note_on_c, 1, 57, 0
4, 62658, Note_on_c, 1, 60, 85
4, 62664, Note_on_c, 1, 60, 0
4, 62736, Note_on_c, 1, 58, 85
4, 62784, Note_on_c, 1, 58, 0
4, 62784, Note_on_c, 1, 57, 85
4, 62804, Note_on_c, 1, 57, 0
4, 63120, Note_on_c, 1, 64, 85
4, 63168, Note_on_c, 1, 64, 0
4, 63168, Note_on_c, 1, 65, 85
4, 63213, Note_on_c, 1, 65, 0
4, 63216, Note_on_c, 1, 58, 85
4, 63261, Note_on_c, 1, 58, 0
4, 63408, Note_on_c, 1, 62, 77
4, 63408, Note_on_c, 1, 59, 77
4, 63456, Note_on_c, 1, 62, 0
4, 63456, Note_on_c, 1, 59, 0
4, 63456, Note_on_c, 1, 60, 77
4, 63501, Note_on_c, 1, 60, 0
4, 63504, Note_on_c, 1, 48, 77
4, 63549, Note_on_c, 1, 48, 0
4, 63552, Note_on_c, 1, 53, 77
4, 63572, Note_on_c, 1, 53, 0
4, 63600, Note_on_c, 1, 53, 85
4, 63612, Note_on_c, 1, 53, 0
4, 63612, Note_on_c, 1, 57, 85
4, 63618, Note_on_c, 1, 57, 0
4, 63618, Note_on_c, 1, 60, 85
4, 63624, Note_on_c, 1, 60, 0
4, 63696, Note_on_c, 1, 58, 85
4, 63744, Note_on_c, 1, 58, 0
4, 63744, Note_on_c, 1, 57, 85
4, 63764, Note_on_c, 1, 57, 0
4, 63792, Note_on_c, 1, 53, 85
4, 63804, Note_on_c, 1, 53, 0
4, 63804, Note_on_c, 1, 57, 85
4, 63810, Note_on_c, 1, 57, 0
4, 63810, Note_on_c, 1, 60, 85
4, 63816, Note_on_c, 1, 60, 0
4, 63888, Note_on_c, 1, 58, 85
4, 63936, Note_on_c, 1, 58, 0
4, 63936, Note_on_c, 1, 57, 85
4, 63956, Note_on_c, 1, 57, 0
4, 63984, Note_on_c, 1, 55, 85
4, 63996, Note_on_c, 1, 55, 0
4, 63996, Note_on_c, 1, 59, 85
4, 64002, Note_on_c, 1, 59, 0
4, 64002, Note_on_c, 1, 62, 85
4, 64008, Note_on_c, 1, 62, 0
4, 64080, Note_on_c, 1, 67, 85
4, 64080, Note_on_c, 1, 65, 85
4, 64125, Note_on_c, 1, 67, 0
4, 64125, Note_on_c, 1, 65, 0
4, 64128, Note_on_c, 1, 67, 85
4, 64128, Note_on_c, 1, 64, 85
4, 64148, Note_on_c, 1, 67, 0
4, 64148, Note_on_c, 1, 64, 0
4, 64176, Note_on_c, 1, 60, 85
4, 64184, Note_on_c, 1, 60, 0
4, 64184, Note_on_c, 1, 64, 85
4, 64192, Note_on_c, 1, 64, 0
4, 64192, Note_on_c, 1, 67, 85
4, 64200, Note_on_c, 1, 67, 0
4, 64272, Note_on_c, 1, 67, 85
4, 64272, Note_on_c, 1, 64, 85
4, 64317, Note_on_c, 1, 67, 0
4, 64317, Note_on_c, 1, 64, 0
4, 64320, Note_on_c, 1, 65, 85
4, 64365, Note_on_c, 1, 65, 0
4, 64368, Note_on_c, 1, 58, 85
4, 64376, Note_on_c, 1, 58, 0
4, 64376, Note_on_c, 1, 62, 85
4, 64384, Note_on_c, 1, 62, 0
4, 64384, Note_on_c, 1, 66, 85
4, 64392, Note_on_c, 1, 66, 0
4, 64464, Note_on_c, 1, 62, 85
4, 64464, Note_on_c, 1, 59, 85
4, 64509, Note_on_c, 1, 62, 0
4, 64509, Note_on_c, 1, 59, 0
4, 64512, Note_on_c, 1, 60, 85
4, 64557, Note_on_c, 1, 60, 0
4, 64896, Note_on_c, 1, 61, 69
4, 64896, Note_on_c, 1, 58, 69
4, 64916, Note_on_c, 1, 61, 0
4, 64916, Note_on_c, 1, 58, 0
4, 64992, Note_on_c, 1, 61, 71
4, 64992, Note_on_c, 1, 58, 71
4, 65012, Note_on_c, 1, 61, 0
4, 65012, Note_on_c, 1, 58, 0
4, 65088, Note_on_c, 1, 61, 74
4, 65088, Note_on_c, 1, 58, 74
4, 65108, Note_on_c, 1, 61, 0
4, 65108, Note_on_c, 1, 58, 0
4, 65184, Note_on_c, 1, 61, 77
4, 65184, Note_on_c, 1, 58, 77
4, 65204, Note_on_c, 1, 61, 0
4, 65204, Note_on_c, 1, 58, 0
4, 65280, Note_on_c, 1, 61, 79
4, 65280, Note_on_c, 1, 58, 79
4, 65290, Note_on_c, 1, 61, 0
4, 65290, Note_on_c, 1, 58, 0
4, 65328, Note_on_c, 1, 61, 81
4, 65328, Note_on_c, 1, 58, 81
4, 65338, Note_on_c, 1, 61, 0
4, 65338, Note_on_c, 1, 58, 0
4, 65376, Note_on_c, 1, 61, 82
4, 65376, Note_on_c, 1, 58, 82
4, 65386, Note_on_c, 1, 61, 0
4, 65386, Note_on_c, 1, 58, 0
4, 65424, Note_on_c, 1, 61, 83
4, 65424, Note_on_c, 1, 58, 83
4, 65434, Note_on_c, 1, 61, 0
4, 65434, Note_on_c, 1, 58, 0
4, 65472, Note_on_c, 1, 61, 85
4, 65472, Note_on_c, 1, 58, 85
4, 65482, Note_on_c, 1, 61, 0
4, 65482, Note_on_c, 1, 58, 0
4, 65520, Note_on_c, 1, 61, 85
4, 65520, Note_on_c, 1, 58, 85
4, 65530, Note_on_c, 1, 61, 0
4, 65530, Note_on_c, 1, 58, 0
4, 65568, Note_on_c, 1, 61, 85
4, 65568, Note_on_c, 1, 58, 85
4, 65578, Note_on_c, 1, 61, 0
4, 65578, Note_on_c, 1, 58, 0
4, 65616, Note_on_c, 1, 61, 85
4, 65616, Note_on_c, 1, 58, 85
4, 65626, Note_on_c, 1, 61, 0
4, 65626, Note_on_c, 1, 58, 0
4, 65664, Note_on_c, 1, 61, 85
4, 65664, Note_on_c, 1, 58, 85
4, 65664, Note_on_c, 1, 55, 85
4, 66018, Note_on_c, 1, 61, 0
4, 66018, Note_on_c, 1, 58, 0
4, 66018, Note_on_c, 1, 55, 0
4, 66048, Note_on_c, 1, 60, 77
4, 66048, Note_on_c, 1, 57, 77
4, 66137, Note_on_c, 1, 60, 0
4, 66137, Note_on_c, 1, 57, 0
4, 66192, Note_on_c, 1, 57, 77
4, 66240, Note_on_c, 1, 57, 0
4, 66240, Note_on_c, 1, 58, 77
4, 66329, Note_on_c, 1, 58, 0
4, 66384, Note_on_c, 1, 58, 77
4, 66384, Note_on_c, 1, 48, 77
4, 66429, Note_on_c, 1, 58, 0
4, 66429, Note_on_c, 1, 48, 0
4, 66432, Note_on_c, 1, 57, 77
4, 66432, Note_on_c, 1, 53, 77
4, 66521, Note_on_c, 1, 57, 0
4, 66521, Note_on_c, 1, 53, 0
4, 66576, Note_on_c, 1, 69, 77
4, 66624, Note_on_c, 1, 69, 0
4, 66624, Note_on_c, 1, 70, 77
4, 66713, Note_on_c, 1, 70, 0
4, 66768, Note_on_c, 1, 70, 77
4, 66768, Note_on_c, 1, 60, 77
4, 66813, Note_on_c, 1, 70, 0
4, 66813, Note_on_c, 1, 60, 0
4, 66864, Note_on_c, 1, 69, 77
4, 66909, Note_on_c, 1, 69, 0
4, 66912, Note_on_c, 1, 69, 77
4, 66960, Note_on_c, 1, 69, 0
4, 66960, Note_on_c, 1, 70, 77
4, 67005, Note_on_c, 1, 70, 0
4, 67008, Note_on_c, 1, 69, 77
4, 67056, Note_on_c, 1, 69, 0
4, 67056, Note_on_c, 1, 70, 77
4, 67101, Note_on_c, 1, 70, 0
4, 67104, Note_on_c, 1, 69, 77
4, 67152, Note_on_c, 1, 69, 0
4, 67152, Note_on_c, 1, 70, 77
4, 67197, Note_on_c, 1, 70, 0
4, 67248, Note_on_c, 1, 69, 77
4, 67293, Note_on_c, 1, 69, 0
4, 67296, Note_on_c, 1, 69, 77
4, 67344, Note_on_c, 1, 69, 0
4, 67344, Note_on_c, 1, 70, 77
4, 67389, Note_on_c, 1, 70, 0
4, 67392, Note_on_c, 1, 69, 77
4, 67440, Note_on_c, 1, 69, 0
4, 67440, Note_on_c, 1, 70, 77
4, 67485, Note_on_c, 1, 70, 0
4, 67488, Note_on_c, 1, 69, 77
4, 67536, Note_on_c, 1, 69, 0
4, 67536, Note_on_c, 1, 70, 77
4, 67581, Note_on_c, 1, 70, 0
4, 67584, Note_on_c, 1, 69, 77
4, 67673, Note_on_c, 1, 69, 0
4, 67680, Note_on_c, 1, 65, 77
4, 67769, Note_on_c, 1, 65, 0
4, 67776, Note_on_c, 1, 65, 77
4, 67821, Note_on_c, 1, 65, 0
4, 68016, Note_on_c, 1, 68, 77
4, 68061, Note_on_c, 1, 68, 0
4, 68064, Note_on_c, 1, 69, 79
4, 68109, Note_on_c, 1, 69, 0
4, 68112, Note_on_c, 1, 70, 82
4, 68157, Note_on_c, 1, 70, 0
4, 68160, Note_on_c, 1, 69, 85
4, 68249, Note_on_c, 1, 69, 0
4, 68304, Note_on_c, 1, 67, 77
4, 68349, Note_on_c, 1, 67, 0
4, 68352, Note_on_c, 1, 69, 77
4, 68397, Note_on_c, 1, 69, 0
4, 68496, Note_on_c, 1, 55, 77
4, 68541, Note_on_c, 1, 55, 0
4, 68544, Note_on_c, 1, 57, 77
4, 68589, Note_on_c, 1, 57, 0
4, 68688, Note_on_c, 1, 43, 77
4, 68733, Note_on_c, 1, 43, 0
4, 68736, Note_on_c, 1, 45, 77
4, 68825, Note_on_c, 1, 45, 0
4, 68832, Note_on_c, 1, 41, 77
4, 68921, Note_on_c, 1, 41, 0
4, 68928, Note_on_c, 1, 41, 77
4, 69017, Note_on_c, 1, 41, 0
4, 69120, Note_on_c, 1, 29, 0
4, 69209, Note_on_c, 1, 29, 0
4, 69216, End_track
5, 0, Start_track
5, 0, Program_c, 1, 0
5, 0, Control_c, 1, 7, 127
5, 0, Control_c, 1, 10, 64
5, 6288, Note_on_c, 1, 71, 64
5, 6336, Note_on_c, 1, 71, 0
5, 6336, Note_on_c, 1, 72, 64
5, 6381, Note_on_c, 1, 72, 0
5, 6384, Note_on_c, 1, 65, 64
5, 6429, Note_on_c, 1, 65, 0
5, 10032, Note_on_c, 1, 60, 64
5, 10077, Note_on_c, 1, 60, 0
5, 10080, Note_on_c, 1, 60, 64
5, 10345, Note_on_c, 1, 60, 0
5, 10416, Note_on_c, 1, 60, 64
5, 10461, Note_on_c, 1, 60, 0
5, 10464, Note_on_c, 1, 60, 64
5, 10729, Note_on_c, 1, 60, 0
5, 10752, Note_on_c, 1, 60, 64
5, 10841, Note_on_c, 1, 60, 0
5, 10848, Note_on_c, 1, 52, 64
5, 10944, Note_on_c, 1, 52, 0
5, 10944, Note_on_c, 1, 53, 64
5, 10989, Note_on_c, 1, 53, 0
5, 11184, Note_on_c, 1, 54, 64
5, 11229, Note_on_c, 1, 54, 0
5, 11232, Note_on_c, 1, 55, 64
5, 11321, Note_on_c, 1, 55, 0
5, 11328, Note_on_c, 1, 60, 64
5, 11417, Note_on_c, 1, 60, 0
5, 11472, Note_on_c, 1, 55, 64
5, 11517, Note_on_c, 1, 55, 0
5, 11520, Note_on_c, 1, 60, 64
5, 11565, Note_on_c, 1, 60, 0
5, 11664, Note_on_c, 1, 43, 64
5, 11709, Note_on_c, 1, 43, 0
5, 11712, Note_on_c, 1, 48, 64
5, 11757, Note_on_c, 1, 48, 0
5, 18192, Note_on_c, 1, 71, 64
5, 18240, Note_on_c, 1, 71, 0
5, 18240, Note_on_c, 1, 72, 64
5, 18285, Note_on_c, 1, 72, 0
5, 18288, Note_on_c, 1, 65, 64
5, 18333, Note_on_c, 1, 65, 0
5, 21936, Note_on_c, 1, 60, 64
5, 21981, Note_on_c, 1, 60, 0
5, 21984, Note_on_c, 1, 60, 64
5, 22249, Note_on_c, 1, 60, 0
5, 22320, Note_on_c, 1, 60, 64
5, 22365, Note_on_c, 1, 60, 0
5, 22368, Note_on_c, 1, 60, 64
5, 22633, Note_on_c, 1, 60, 0
5, 22656, Note_on_c, 1, 60, 64
5, 22745, Note_on_c, 1, 60, 0
5, 22752, Note_on_c, 1, 52, 64
5, 22848, Note_on_c, 1, 52, 0
5, 22848, Note_on_c, 1, 53, 64
5, 22893, Note_on_c, 1, 53, 0
5, 23088, Note_on_c, 1, 54, 64
5, 23133, Note_on_c, 1, 54, 0
5, 23136, Note_on_c, 1, 55, 64
5, 23225, Note_on_c, 1, 55, 0
5, 23232, Note_on_c, 1, 60, 64
5, 23321, Note_on_c, 1, 60, 0
5, 23376, Note_on_c, 1, 55, 64
5, 23421, Note_on_c, 1, 55, 0
5, 23424, Note_on_c, 1, 60, 64
5, 23469, Note_on_c, 1, 60, 0
5, 23568, Note_on_c, 1, 43, 64
5, 23613, Note_on_c, 1, 43, 0
5, 23616, Note_on_c, 1, 48, 64
5, 23661, Note_on_c, 1, 48, 0
5, 36192, Note_on_c, 1, 65, 68
5, 36237, Note_on_c, 1, 65, 0
5, 36240, Note_on_c, 1, 66, 70
5, 36285, Note_on_c, 1, 66, 0
5, 36288, Note_on_c, 1, 67, 72
5, 36333, Note_on_c, 1, 67, 0
5, 36336, Note_on_c, 1, 55, 74
5, 36381, Note_on_c, 1, 55, 0
5, 36576, Note_on_c, 1, 67, 77
5, 36621, Note_on_c, 1, 67, 0
5, 36624, Note_on_c, 1, 68, 79
5, 36669, Note_on_c, 1, 68, 0
5, 36672, Note_on_c, 1, 69, 81
5, 36717, Note_on_c, 1, 69, 0
5, 36720, Note_on_c, 1, 57, 83
5, 36765, Note_on_c, 1, 57, 0
5, 36768, Note_on_c, 1, 57, 85
5, 36813, Note_on_c, 1, 57, 0
5, 36816, Note_on_c, 1, 60, 85
5, 36828, Note_on_c, 1, 60, 0
5, 36828, Note_on_c, 1, 58, 85
5, 36861, Note_on_c, 1, 58, 0
5, 36960, Note_on_c, 1, 70, 77
5, 37049, Note_on_c, 1, 70, 0
5, 37056, Note_on_c, 1, 69, 77
5, 37145, Note_on_c, 1, 69, 0
5, 37152, Note_on_c, 1, 66, 77
5, 37241, Note_on_c, 1, 66, 0
5, 37248, Note_on_c, 1, 67, 77
5, 37337, Note_on_c, 1, 67, 0
5, 37344, Note_on_c, 1, 72, 77
5, 37433, Note_on_c, 1, 72, 0
5, 37440, Note_on_c, 1, 70, 77
5, 37529, Note_on_c, 1, 70, 0
5, 37536, Note_on_c, 1, 64, 77
5, 37625, Note_on_c, 1, 64, 0
5, 37632, Note_on_c, 1, 65, 77
5, 37721, Note_on_c, 1, 65, 0
5, 37728, Note_on_c, 1, 70, 77
5, 37817, Note_on_c, 1, 70, 0
5, 37824, Note_on_c, 1, 69, 77
5, 37913, Note_on_c, 1, 69, 0
5, 37968, Note_on_c, 1, 69, 68
5, 38013, Note_on_c, 1, 69, 0
5, 38016, Note_on_c, 1, 70, 68
5, 38064, Note_on_c, 1, 70, 0
5, 38064, Note_on_c, 1, 69, 68
5, 38109, Note_on_c, 1, 69, 0
5, 38160, Note_on_c, 1, 69, 68
5, 38205, Note_on_c, 1, 69, 0
5, 38208, Note_on_c, 1, 70, 68
5, 38256, Note_on_c, 1, 70, 0
5, 38256, Note_on_c, 1, 69, 68
5, 38301, Note_on_c, 1, 69, 0
5, 44208, Note_on_c, 1, 65, 68
5, 44253, Note_on_c, 1, 65, 0
5, 44256, Note_on_c, 1, 65, 68
5, 44521, Note_on_c, 1, 65, 0
5, 44592, Note_on_c, 1, 65, 68
5, 44637, Note_on_c, 1, 65, 0
5, 44640, Note_on_c, 1, 65, 68
5, 44905, Note_on_c, 1, 65, 0
5, 44928, Note_on_c, 1, 65, 68
5, 45017, Note_on_c, 1, 65, 0
5, 45024, Note_on_c, 1, 57, 68
5, 45120, Note_on_c, 1, 57, 0
5, 45120, Note_on_c, 1, 58, 68
5, 45165, Note_on_c, 1, 58, 0
5, 45360, Note_on_c, 1, 59, 68
5, 45405, Note_on_c, 1, 59, 0
5, 45408, Note_on_c, 1, 60, 68
5, 45497, Note_on_c, 1, 60, 0
5, 45504, Note_on_c, 1, 65, 68
5, 45593, Note_on_c, 1, 65, 0
5, 45648, Note_on_c, 1, 60, 68
5, 45693, Note_on_c, 1, 60, 0
5, 45696, Note_on_c, 1, 65, 68
5, 45741, Note_on_c, 1, 65, 0
5, 45840, Note_on_c, 1, 48, 68
5, 45885, Note_on_c, 1, 48, 0
5, 45888, Note_on_c, 1, 53, 68
5, 45933, Note_on_c, 1, 53, 0
5, 46032, Note_on_c, 1, 36, 68
5, 46077, Note_on_c, 1, 36, 0
5, 46080, Note_on_c, 1, 41, 68
5, 46169, Note_on_c, 1, 41, 0
5, 46176, Note_on_c, 1, 29, 68
5, 46265, Note_on_c, 1, 29, 0
5, 46272, Note_on_c, 1, 29, 68
5, 46361, Note_on_c, 1, 29, 0
5, 58848, Note_on_c, 1, 65, 68
5, 58893, Note_on_c, 1, 65, 0
5, 58896, Note_on_c, 1, 66, 70
5, 58941, Note_on_c, 1, 66, 0
5, 58944, Note_on_c, 1, 67, 72
5, 58989, Note_on_c, 1, 67, 0
5, 58992, Note_on_c, 1, 55, 74
5, 59037, Note_on_c, 1, 55, 0
5, 59232, Note_on_c, 1, 67, 77
5, 59277, Note_on_c, 1, 67, 0
5, 59280, Note_on_c, 1, 68, 79
5, 59325, Note_on_c, 1, 68, 0
5, 59328, Note_on_c, 1, 69, 81
5, 59373, Note_on_c, 1, 69, 0
5, 59376, Note_on_c, 1, 57, 83
5, 59421, Note_on_c, 1, 57, 0
5, 59424, Note_on_c, 1, 57, 85
5, 59469, Note_on_c, 1, 57, 0
5, 59472, Note_on_c, 1, 60, 85
5, 59484, Note_on_c, 1, 60, 0
5, 59484, Note_on_c, 1, 58, 85
5, 59517, Note_on_c, 1, 58, 0
5, 59616, Note_on_c, 1, 70, 77
5, 59705, Note_on_c, 1, 70, 0
5, 59712, Note_on_c, 1, 69, 77
5, 59801, Note_on_c, 1, 69, 0
5, 59808, Note_on_c, 1, 66, 77
5, 59897, Note_on_c, 1, 66, 0
5, 59904, Note_on_c, 1, 67, 77
5, 59993, Note_on_c, 1, 67, 0
5, 60000, Note_on_c, 1, 72, 77
5, 60089, Note_on_c, 1, 72, 0
5, 60096, Note_on_c, 1, 70, 77
5, 60185, Note_on_c, 1, 70, 0
5, 60192, Note_on_c, 1, 64, 77
5, 60281, Note_on_c, 1, 64, 0
5, 60288, Note_on_c, 1, 65, 77
5, 60377, Note_on_c, 1, 65, 0
5, 60384, Note_on_c, 1, 70, 77
5, 60473, Note_on_c, 1, 70, 0
5, 60480, Note_on_c, 1, 69, 77
5, 60569, Note_on_c, 1, 69, 0
5, 60624, Note_on_c, 1, 69, 68
5, 60669, Note_on_c, 1, 69, 0
5, 60672, Note_on_c, 1, 70, 68
5, 60720, Note_on_c, 1, 70, 0
5, 60720, Note_on_c, 1, 69, 68
5, 60765, Note_on_c, 1, 69, 0
5, 60816, Note_on_c, 1, 69, 68
5, 60861, Note_on_c, 1, 69, 0
5, 60864, Note_on_c, 1, 70, 68
5, 60912, Note_on_c, 1, 70, 0
5, 60912, Note_on_c, 1, 69, 68
5, 60957, Note_on_c, 1, 69, 0
5, 66864, Note_on_c, 1, 65, 68
5, 66909, Note_on_c, 1, 65, 0
5, 66912, Note_on_c, 1, 65, 68
5, 67177, Note_on_c, 1, 65, 0
5, 67248, Note_on_c, 1, 65, 68
5, 67293, Note_on_c, 1, 65, 0
5, 67296, Note_on_c, 1, 65, 68
5, 67561, Note_on_c, 1, 65, 0
5, 67584, Note_on_c, 1, 65, 68
5, 67673, Note_on_c, 1, 65, 0
5, 67680, Note_on_c, 1, 57, 68
5, 67776, Note_on_c, 1, 57, 0
5, 67776, Note_on_c, 1, 58, 68
5, 67821, Note_on_c, 1, 58, 0
5, 68016, Note_on_c, 1, 59, 68
5, 68061, Note_on_c, 1, 59, 0
5, 68064, Note_on_c, 1, 60, 68
5, 68153, Note_on_c, 1, 60, 0
5, 68160, Note_on_c, 1, 65, 68
5, 68249, Note_on_c, 1, 65, 0
5, 68304, Note_on_c, 1, 60, 68
5, 68349, Note_on_c, 1, 60, 0
5, 68352, Note_on_c, 1, 65, 68
5, 68397, Note_on_c, 1, 65, 0
5, 68496, Note_on_c, 1, 48, 68
5, 68541, Note_on_c, 1, 48, 0
5, 68544, Note_on_c, 1, 53, 68
5, 68589, Note_on_c, 1, 53, 0
5, 68688, Note_on_c, 1, 36, 68
5, 68733, Note_on_c, 1, 36, 0
5, 68736, Note_on_c, 1, 41, 68
5, 68825, Note_on_c, 1, 41, 0
5, 68832, Note_on_c, 1, 29, 68
5, 68921, Note_on_c, 1, 29, 0
5, 68928, Note_on_c, 1, 29, 68
5, 69017, Note_on_c, 1, 29, 0
5, 69120, End_track
6, 0, Start_track
6, 0, Title_t, "Sonata III   Haydn  "
6, 0, End_track
0, 0, End_of_file
