0, 0, Header, 1, 5, 96
1, 0, Start_track
1, 0, Copyright_t, "Copyright  1994-2002 Mozart Music Software"
1, 0, Sequencer_specific, 16, 68, 87, 77, 90, 86, 82, 83, 78, 32, 55, 46, 48, 46, 55, 46, 48
1, 0, Time_signature, 2, 2, 24, 8
1, 0, Tempo, 600000
1, 0, Key_signature, 1, "major"
1, 96, Tempo, 666666
1, 17280, End_track
2, 0, Start_track
2, 0, Program_c, 0, 0
2, 0, Control_c, 0, 7, 127
2, 0, Control_c, 0, 10, 64
2, 144, Note_on_c, 0, 74, 75
2, 178, Note_on_c, 0, 74, 0
2, 180, Note_on_c, 0, 79, 75
2, 192, Note_on_c, 0, 79, 0
2, 192, Note_on_c, 0, 74, 75
2, 237, Note_on_c, 0, 74, 0
2, 240, Note_on_c, 0, 71, 75
2, 274, Note_on_c, 0, 71, 0
2, 276, Note_on_c, 0, 74, 75
2, 288, Note_on_c, 0, 74, 0
2, 288, Note_on_c, 0, 71, 75
2, 333, Note_on_c, 0, 71, 0
2, 336, Note_on_c, 0, 67, 75
2, 370, Note_on_c, 0, 67, 0
2, 372, Note_on_c, 0, 71, 75
2, 384, Note_on_c, 0, 71, 0
2, 384, Note_on_c, 0, 67, 75
2, 473, Note_on_c, 0, 67, 0
2, 528, Note_on_c, 0, 74, 75
2, 573, Note_on_c, 0, 74, 0
2, 576, Note_on_c, 0, 72, 75
2, 591, Note_on_c, 0, 72, 0
2, 592, Note_on_c, 0, 74, 75
2, 607, Note_on_c, 0, 74, 0
2, 608, Note_on_c, 0, 76, 75
2, 623, Note_on_c, 0, 76, 0
2, 624, Note_on_c, 0, 74, 75
2, 669, Note_on_c, 0, 74, 0
2, 720, Note_on_c, 0, 71, 75
2, 765, Note_on_c, 0, 71, 0
2, 768, Note_on_c, 0, 69, 75
2, 783, Note_on_c, 0, 69, 0
2, 784, Note_on_c, 0, 71, 75
2, 799, Note_on_c, 0, 71, 0
2, 800, Note_on_c, 0, 72, 75
2, 815, Note_on_c, 0, 72, 0
2, 816, Note_on_c, 0, 71, 75
2, 861, Note_on_c, 0, 71, 0
2, 912, Note_on_c, 0, 74, 75
2, 957, Note_on_c, 0, 74, 0
2, 960, Note_on_c, 0, 76, 75
2, 966, Note_on_c, 0, 76, 0
2, 966, Note_on_c, 0, 78, 75
2, 972, Note_on_c, 0, 78, 0
2, 972, Note_on_c, 0, 76, 75
2, 983, Note_on_c, 0, 76, 0
2, 984, Note_on_c, 0, 74, 75
2, 1007, Note_on_c, 0, 74, 0
2, 1008, Note_on_c, 0, 76, 75
2, 1031, Note_on_c, 0, 76, 0
2, 1032, Note_on_c, 0, 78, 75
2, 1055, Note_on_c, 0, 78, 0
2, 1056, Note_on_c, 0, 79, 75
2, 1079, Note_on_c, 0, 79, 0
2, 1080, Note_on_c, 0, 78, 75
2, 1103, Note_on_c, 0, 78, 0
2, 1104, Note_on_c, 0, 76, 75
2, 1127, Note_on_c, 0, 76, 0
2, 1128, Note_on_c, 0, 74, 75
2, 1151, Note_on_c, 0, 74, 0
2, 1152, Note_on_c, 0, 72, 75
2, 1163, Note_on_c, 0, 72, 0
2, 1163, Note_on_c, 0, 74, 75
2, 1174, Note_on_c, 0, 74, 0
2, 1174, Note_on_c, 0, 72, 75
2, 1185, Note_on_c, 0, 72, 0
2, 1185, Note_on_c, 0, 74, 75
2, 1196, Note_on_c, 0, 74, 0
2, 1196, Note_on_c, 0, 72, 75
2, 1207, Note_on_c, 0, 72, 0
2, 1207, Note_on_c, 0, 74, 75
2, 1218, Note_on_c, 0, 74, 0
2, 1218, Note_on_c, 0, 72, 75
2, 1228, Note_on_c, 0, 72, 0
2, 1228, Note_on_c, 0, 71, 75
2, 1238, Note_on_c, 0, 71, 0
2, 1238, Note_on_c, 0, 72, 75
2, 1248, Note_on_c, 0, 72, 0
2, 1248, Note_on_c, 0, 71, 75
2, 1293, Note_on_c, 0, 71, 0
2, 1296, Note_on_c, 0, 71, 75
2, 1341, Note_on_c, 0, 71, 0
2, 1344, Note_on_c, 0, 69, 75
2, 1367, Note_on_c, 0, 69, 0
2, 1368, Note_on_c, 0, 72, 75
2, 1391, Note_on_c, 0, 72, 0
2, 1392, Note_on_c, 0, 71, 75
2, 1415, Note_on_c, 0, 71, 0
2, 1416, Note_on_c, 0, 69, 75
2, 1439, Note_on_c, 0, 69, 0
2, 1440, Note_on_c, 0, 76, 75
2, 1485, Note_on_c, 0, 76, 0
2, 1488, Note_on_c, 0, 67, 75
2, 1533, Note_on_c, 0, 67, 0
2, 1536, Note_on_c, 0, 66, 75
2, 1625, Note_on_c, 0, 66, 0
2, 1656, Note_on_c, 0, 81, 75
2, 1679, Note_on_c, 0, 81, 0
2, 1704, Note_on_c, 0, 81, 75
2, 1727, Note_on_c, 0, 81, 0
2, 1752, Note_on_c, 0, 81, 75
2, 1775, Note_on_c, 0, 81, 0
2, 1800, Note_on_c, 0, 81, 75
2, 1823, Note_on_c, 0, 81, 0
2, 1848, Note_on_c, 0, 81, 75
2, 1871, Note_on_c, 0, 81, 0
2, 1896, Note_on_c, 0, 81, 75
2, 1919, Note_on_c, 0, 81, 0
2, 1920, Note_on_c, 0, 79, 75
2, 1935, Note_on_c, 0, 79, 0
2, 1936, Note_on_c, 0, 81, 75
2, 1951, Note_on_c, 0, 81, 0
2, 1952, Note_on_c, 0, 79, 75
2, 1967, Note_on_c, 0, 79, 0
2, 1968, Note_on_c, 0, 78, 75
2, 2013, Note_on_c, 0, 78, 0
2, 2016, Note_on_c, 0, 76, 75
2, 2031, Note_on_c, 0, 76, 0
2, 2032, Note_on_c, 0, 78, 75
2, 2047, Note_on_c, 0, 78, 0
2, 2048, Note_on_c, 0, 76, 75
2, 2063, Note_on_c, 0, 76, 0
2, 2064, Note_on_c, 0, 74, 75
2, 2109, Note_on_c, 0, 74, 0
2, 2112, Note_on_c, 0, 73, 75
2, 2127, Note_on_c, 0, 73, 0
2, 2128, Note_on_c, 0, 71, 75
2, 2143, Note_on_c, 0, 71, 0
2, 2144, Note_on_c, 0, 69, 75
2, 2159, Note_on_c, 0, 69, 0
2, 2160, Note_on_c, 0, 74, 75
2, 2205, Note_on_c, 0, 74, 0
2, 2232, Note_on_c, 0, 79, 75
2, 2255, Note_on_c, 0, 79, 0
2, 2280, Note_on_c, 0, 79, 75
2, 2303, Note_on_c, 0, 79, 0
2, 2328, Note_on_c, 0, 79, 75
2, 2351, Note_on_c, 0, 79, 0
2, 2376, Note_on_c, 0, 79, 75
2, 2399, Note_on_c, 0, 79, 0
2, 2424, Note_on_c, 0, 79, 75
2, 2447, Note_on_c, 0, 79, 0
2, 2472, Note_on_c, 0, 79, 75
2, 2495, Note_on_c, 0, 79, 0
2, 2496, Note_on_c, 0, 78, 75
2, 2511, Note_on_c, 0, 78, 0
2, 2512, Note_on_c, 0, 76, 75
2, 2527, Note_on_c, 0, 76, 0
2, 2528, Note_on_c, 0, 74, 75
2, 2543, Note_on_c, 0, 74, 0
2, 2544, Note_on_c, 0, 73, 75
2, 2559, Note_on_c, 0, 73, 0
2, 2560, Note_on_c, 0, 71, 75
2, 2575, Note_on_c, 0, 71, 0
2, 2576, Note_on_c, 0, 69, 75
2, 2591, Note_on_c, 0, 69, 0
2, 2592, Note_on_c, 0, 76, 75
2, 2603, Note_on_c, 0, 76, 0
2, 2603, Note_on_c, 0, 78, 75
2, 2614, Note_on_c, 0, 78, 0
2, 2614, Note_on_c, 0, 76, 75
2, 2625, Note_on_c, 0, 76, 0
2, 2625, Note_on_c, 0, 78, 75
2, 2636, Note_on_c, 0, 78, 0
2, 2636, Note_on_c, 0, 76, 75
2, 2647, Note_on_c, 0, 76, 0
2, 2647, Note_on_c, 0, 78, 75
2, 2658, Note_on_c, 0, 78, 0
2, 2658, Note_on_c, 0, 76, 75
2, 2668, Note_on_c, 0, 76, 0
2, 2668, Note_on_c, 0, 74, 75
2, 2678, Note_on_c, 0, 74, 0
2, 2678, Note_on_c, 0, 76, 75
2, 2688, Note_on_c, 0, 76, 0
2, 2688, Note_on_c, 0, 74, 75
2, 2733, Note_on_c, 0, 74, 0
2, 2736, Note_on_c, 0, 86, 75
2, 2781, Note_on_c, 0, 86, 0
2, 2784, Note_on_c, 0, 85, 75
2, 2829, Note_on_c, 0, 85, 0
2, 2832, Note_on_c, 0, 83, 75
2, 2877, Note_on_c, 0, 83, 0
2, 2880, Note_on_c, 0, 81, 75
2, 2925, Note_on_c, 0, 81, 0
2, 2928, Note_on_c, 0, 83, 75
2, 2943, Note_on_c, 0, 83, 0
2, 2944, Note_on_c, 0, 81, 75
2, 2959, Note_on_c, 0, 81, 0
2, 2960, Note_on_c, 0, 79, 75
2, 2975, Note_on_c, 0, 79, 0
2, 2976, Note_on_c, 0, 78, 75
2, 3021, Note_on_c, 0, 78, 0
2, 3024, Note_on_c, 0, 76, 75
2, 3034, Note_on_c, 0, 76, 0
2, 3034, Note_on_c, 0, 78, 75
2, 3044, Note_on_c, 0, 78, 0
2, 3044, Note_on_c, 0, 76, 75
2, 3054, Note_on_c, 0, 76, 0
2, 3054, Note_on_c, 0, 74, 75
2, 3063, Note_on_c, 0, 74, 0
2, 3063, Note_on_c, 0, 76, 75
2, 3072, Note_on_c, 0, 76, 0
2, 3072, Note_on_c, 0, 74, 75
2, 3161, Note_on_c, 0, 74, 0
2, 3216, Note_on_c, 0, 74, 75
2, 3250, Note_on_c, 0, 74, 0
2, 3252, Note_on_c, 0, 79, 75
2, 3264, Note_on_c, 0, 79, 0
2, 3264, Note_on_c, 0, 74, 75
2, 3309, Note_on_c, 0, 74, 0
2, 3312, Note_on_c, 0, 71, 75
2, 3346, Note_on_c, 0, 71, 0
2, 3348, Note_on_c, 0, 74, 75
2, 3360, Note_on_c, 0, 74, 0
2, 3360, Note_on_c, 0, 71, 75
2, 3405, Note_on_c, 0, 71, 0
2, 3408, Note_on_c, 0, 67, 75
2, 3442, Note_on_c, 0, 67, 0
2, 3444, Note_on_c, 0, 71, 75
2, 3456, Note_on_c, 0, 71, 0
2, 3456, Note_on_c, 0, 67, 75
2, 3545, Note_on_c, 0, 67, 0
2, 3600, Note_on_c, 0, 74, 75
2, 3645, Note_on_c, 0, 74, 0
2, 3648, Note_on_c, 0, 72, 75
2, 3663, Note_on_c, 0, 72, 0
2, 3664, Note_on_c, 0, 74, 75
2, 3679, Note_on_c, 0, 74, 0
2, 3680, Note_on_c, 0, 76, 75
2, 3695, Note_on_c, 0, 76, 0
2, 3696, Note_on_c, 0, 74, 75
2, 3741, Note_on_c, 0, 74, 0
2, 3792, Note_on_c, 0, 71, 75
2, 3837, Note_on_c, 0, 71, 0
2, 3840, Note_on_c, 0, 69, 75
2, 3855, Note_on_c, 0, 69, 0
2, 3856, Note_on_c, 0, 71, 75
2, 3871, Note_on_c, 0, 71, 0
2, 3872, Note_on_c, 0, 72, 75
2, 3887, Note_on_c, 0, 72, 0
2, 3888, Note_on_c, 0, 71, 75
2, 3933, Note_on_c, 0, 71, 0
2, 3984, Note_on_c, 0, 74, 75
2, 4029, Note_on_c, 0, 74, 0
2, 4032, Note_on_c, 0, 76, 75
2, 4038, Note_on_c, 0, 76, 0
2, 4038, Note_on_c, 0, 78, 75
2, 4044, Note_on_c, 0, 78, 0
2, 4044, Note_on_c, 0, 76, 75
2, 4055, Note_on_c, 0, 76, 0
2, 4056, Note_on_c, 0, 74, 75
2, 4079, Note_on_c, 0, 74, 0
2, 4080, Note_on_c, 0, 76, 75
2, 4103, Note_on_c, 0, 76, 0
2, 4104, Note_on_c, 0, 78, 75
2, 4127, Note_on_c, 0, 78, 0
2, 4128, Note_on_c, 0, 79, 75
2, 4151, Note_on_c, 0, 79, 0
2, 4152, Note_on_c, 0, 78, 75
2, 4175, Note_on_c, 0, 78, 0
2, 4176, Note_on_c, 0, 76, 75
2, 4199, Note_on_c, 0, 76, 0
2, 4200, Note_on_c, 0, 74, 75
2, 4223, Note_on_c, 0, 74, 0
2, 4224, Note_on_c, 0, 72, 75
2, 4235, Note_on_c, 0, 72, 0
2, 4235, Note_on_c, 0, 74, 75
2, 4246, Note_on_c, 0, 74, 0
2, 4246, Note_on_c, 0, 72, 75
2, 4257, Note_on_c, 0, 72, 0
2, 4257, Note_on_c, 0, 74, 75
2, 4268, Note_on_c, 0, 74, 0
2, 4268, Note_on_c, 0, 72, 75
2, 4279, Note_on_c, 0, 72, 0
2, 4279, Note_on_c, 0, 74, 75
2, 4290, Note_on_c, 0, 74, 0
2, 4290, Note_on_c, 0, 72, 75
2, 4300, Note_on_c, 0, 72, 0
2, 4300, Note_on_c, 0, 71, 75
2, 4310, Note_on_c, 0, 71, 0
2, 4310, Note_on_c, 0, 72, 75
2, 4320, Note_on_c, 0, 72, 0
2, 4320, Note_on_c, 0, 71, 75
2, 4365, Note_on_c, 0, 71, 0
2, 4368, Note_on_c, 0, 71, 75
2, 4413, Note_on_c, 0, 71, 0
2, 4416, Note_on_c, 0, 69, 75
2, 4439, Note_on_c, 0, 69, 0
2, 4440, Note_on_c, 0, 72, 75
2, 4463, Note_on_c, 0, 72, 0
2, 4464, Note_on_c, 0, 71, 75
2, 4487, Note_on_c, 0, 71, 0
2, 4488, Note_on_c, 0, 69, 75
2, 4511, Note_on_c, 0, 69, 0
2, 4512, Note_on_c, 0, 76, 75
2, 4557, Note_on_c, 0, 76, 0
2, 4560, Note_on_c, 0, 67, 75
2, 4605, Note_on_c, 0, 67, 0
2, 4608, Note_on_c, 0, 66, 75
2, 4697, Note_on_c, 0, 66, 0
2, 4728, Note_on_c, 0, 81, 75
2, 4751, Note_on_c, 0, 81, 0
2, 4776, Note_on_c, 0, 81, 75
2, 4799, Note_on_c, 0, 81, 0
2, 4824, Note_on_c, 0, 81, 75
2, 4847, Note_on_c, 0, 81, 0
2, 4872, Note_on_c, 0, 81, 75
2, 4895, Note_on_c, 0, 81, 0
2, 4920, Note_on_c, 0, 81, 75
2, 4943, Note_on_c, 0, 81, 0
2, 4968, Note_on_c, 0, 81, 75
2, 4991, Note_on_c, 0, 81, 0
2, 4992, Note_on_c, 0, 79, 75
2, 5007, Note_on_c, 0, 79, 0
2, 5008, Note_on_c, 0, 81, 75
2, 5023, Note_on_c, 0, 81, 0
2, 5024, Note_on_c, 0, 79, 75
2, 5039, Note_on_c, 0, 79, 0
2, 5040, Note_on_c, 0, 78, 75
2, 5085, Note_on_c, 0, 78, 0
2, 5088, Note_on_c, 0, 76, 75
2, 5103, Note_on_c, 0, 76, 0
2, 5104, Note_on_c, 0, 78, 75
2, 5119, Note_on_c, 0, 78, 0
2, 5120, Note_on_c, 0, 76, 75
2, 5135, Note_on_c, 0, 76, 0
2, 5136, Note_on_c, 0, 74, 75
2, 5181, Note_on_c, 0, 74, 0
2, 5184, Note_on_c, 0, 73, 75
2, 5199, Note_on_c, 0, 73, 0
2, 5200, Note_on_c, 0, 71, 75
2, 5215, Note_on_c, 0, 71, 0
2, 5216, Note_on_c, 0, 69, 75
2, 5231, Note_on_c, 0, 69, 0
2, 5232, Note_on_c, 0, 74, 75
2, 5277, Note_on_c, 0, 74, 0
2, 5304, Note_on_c, 0, 79, 75
2, 5327, Note_on_c, 0, 79, 0
2, 5352, Note_on_c, 0, 79, 75
2, 5375, Note_on_c, 0, 79, 0
2, 5400, Note_on_c, 0, 79, 75
2, 5423, Note_on_c, 0, 79, 0
2, 5448, Note_on_c, 0, 79, 75
2, 5471, Note_on_c, 0, 79, 0
2, 5496, Note_on_c, 0, 79, 75
2, 5519, Note_on_c, 0, 79, 0
2, 5544, Note_on_c, 0, 79, 75
2, 5567, Note_on_c, 0, 79, 0
2, 5568, Note_on_c, 0, 78, 75
2, 5583, Note_on_c, 0, 78, 0
2, 5584, Note_on_c, 0, 76, 75
2, 5599, Note_on_c, 0, 76, 0
2, 5600, Note_on_c, 0, 74, 75
2, 5615, Note_on_c, 0, 74, 0
2, 5616, Note_on_c, 0, 73, 75
2, 5631, Note_on_c, 0, 73, 0
2, 5632, Note_on_c, 0, 71, 75
2, 5647, Note_on_c, 0, 71, 0
2, 5648, Note_on_c, 0, 69, 75
2, 5663, Note_on_c, 0, 69, 0
2, 5664, Note_on_c, 0, 76, 75
2, 5675, Note_on_c, 0, 76, 0
2, 5675, Note_on_c, 0, 78, 75
2, 5686, Note_on_c, 0, 78, 0
2, 5686, Note_on_c, 0, 76, 75
2, 5697, Note_on_c, 0, 76, 0
2, 5697, Note_on_c, 0, 78, 75
2, 5708, Note_on_c, 0, 78, 0
2, 5708, Note_on_c, 0, 76, 75
2, 5719, Note_on_c, 0, 76, 0
2, 5719, Note_on_c, 0, 78, 75
2, 5730, Note_on_c, 0, 78, 0
2, 5730, Note_on_c, 0, 76, 75
2, 5740, Note_on_c, 0, 76, 0
2, 5740, Note_on_c, 0, 74, 75
2, 5750, Note_on_c, 0, 74, 0
2, 5750, Note_on_c, 0, 76, 75
2, 5760, Note_on_c, 0, 76, 0
2, 5760, Note_on_c, 0, 74, 75
2, 5805, Note_on_c, 0, 74, 0
2, 5808, Note_on_c, 0, 86, 75
2, 5853, Note_on_c, 0, 86, 0
2, 5856, Note_on_c, 0, 85, 75
2, 5901, Note_on_c, 0, 85, 0
2, 5904, Note_on_c, 0, 83, 75
2, 5949, Note_on_c, 0, 83, 0
2, 5952, Note_on_c, 0, 81, 75
2, 5997, Note_on_c, 0, 81, 0
2, 6000, Note_on_c, 0, 83, 75
2, 6015, Note_on_c, 0, 83, 0
2, 6016, Note_on_c, 0, 81, 75
2, 6031, Note_on_c, 0, 81, 0
2, 6032, Note_on_c, 0, 79, 75
2, 6047, Note_on_c, 0, 79, 0
2, 6048, Note_on_c, 0, 78, 75
2, 6093, Note_on_c, 0, 78, 0
2, 6096, Note_on_c, 0, 76, 75
2, 6106, Note_on_c, 0, 76, 0
2, 6106, Note_on_c, 0, 78, 75
2, 6116, Note_on_c, 0, 78, 0
2, 6116, Note_on_c, 0, 76, 75
2, 6126, Note_on_c, 0, 76, 0
2, 6126, Note_on_c, 0, 74, 75
2, 6135, Note_on_c, 0, 74, 0
2, 6135, Note_on_c, 0, 76, 75
2, 6144, Note_on_c, 0, 76, 0
2, 6144, Note_on_c, 0, 74, 75
2, 6233, Note_on_c, 0, 74, 0
2, 6288, Note_on_c, 0, 74, 75
2, 6322, Note_on_c, 0, 74, 0
2, 6324, Note_on_c, 0, 78, 75
2, 6336, Note_on_c, 0, 78, 0
2, 6360, Note_on_c, 0, 74, 75
2, 6383, Note_on_c, 0, 74, 0
2, 6408, Note_on_c, 0, 84, 75
2, 6431, Note_on_c, 0, 84, 0
2, 6456, Note_on_c, 0, 78, 75
2, 6479, Note_on_c, 0, 78, 0
2, 6504, Note_on_c, 0, 81, 75
2, 6527, Note_on_c, 0, 81, 0
2, 6552, Note_on_c, 0, 79, 75
2, 6575, Note_on_c, 0, 79, 0
2, 6576, Note_on_c, 0, 83, 75
2, 6599, Note_on_c, 0, 83, 0
2, 6600, Note_on_c, 0, 74, 75
2, 6623, Note_on_c, 0, 74, 0
2, 6624, Note_on_c, 0, 72, 75
2, 6639, Note_on_c, 0, 72, 0
2, 6640, Note_on_c, 0, 74, 75
2, 6655, Note_on_c, 0, 74, 0
2, 6656, Note_on_c, 0, 76, 75
2, 6671, Note_on_c, 0, 76, 0
2, 6672, Note_on_c, 0, 69, 75
2, 6687, Note_on_c, 0, 69, 0
2, 6688, Note_on_c, 0, 71, 75
2, 6703, Note_on_c, 0, 71, 0
2, 6704, Note_on_c, 0, 72, 75
2, 6719, Note_on_c, 0, 72, 0
2, 6720, Note_on_c, 0, 71, 75
2, 6735, Note_on_c, 0, 71, 0
2, 6736, Note_on_c, 0, 72, 75
2, 6751, Note_on_c, 0, 72, 0
2, 6752, Note_on_c, 0, 74, 75
2, 6767, Note_on_c, 0, 74, 0
2, 6768, Note_on_c, 0, 72, 75
2, 6783, Note_on_c, 0, 72, 0
2, 6784, Note_on_c, 0, 74, 75
2, 6799, Note_on_c, 0, 74, 0
2, 6800, Note_on_c, 0, 76, 75
2, 6815, Note_on_c, 0, 76, 0
2, 6816, Note_on_c, 0, 74, 75
2, 6861, Note_on_c, 0, 74, 0
2, 6864, Note_on_c, 0, 74, 75
2, 6898, Note_on_c, 0, 74, 0
2, 6900, Note_on_c, 0, 78, 75
2, 6912, Note_on_c, 0, 78, 0
2, 6912, Note_on_c, 0, 74, 75
2, 6957, Note_on_c, 0, 74, 0
2, 6960, Note_on_c, 0, 66, 75
2, 7005, Note_on_c, 0, 66, 0
2, 7008, Note_on_c, 0, 67, 75
2, 7053, Note_on_c, 0, 67, 0
2, 7056, Note_on_c, 0, 69, 75
2, 7101, Note_on_c, 0, 69, 0
2, 7104, Note_on_c, 0, 71, 75
2, 7149, Note_on_c, 0, 71, 0
2, 7152, Note_on_c, 0, 72, 75
2, 7162, Note_on_c, 0, 72, 0
2, 7162, Note_on_c, 0, 74, 75
2, 7172, Note_on_c, 0, 74, 0
2, 7172, Note_on_c, 0, 72, 75
2, 7182, Note_on_c, 0, 72, 0
2, 7182, Note_on_c, 0, 71, 75
2, 7191, Note_on_c, 0, 71, 0
2, 7191, Note_on_c, 0, 72, 75
2, 7200, Note_on_c, 0, 72, 0
2, 7200, Note_on_c, 0, 74, 75
2, 7245, Note_on_c, 0, 74, 0
2, 7248, Note_on_c, 0, 79, 75
2, 7282, Note_on_c, 0, 79, 0
2, 7284, Note_on_c, 0, 83, 75
2, 7296, Note_on_c, 0, 83, 0
2, 7296, Note_on_c, 0, 79, 75
2, 7341, Note_on_c, 0, 79, 0
2, 7344, Note_on_c, 0, 71, 75
2, 7389, Note_on_c, 0, 71, 0
2, 7392, Note_on_c, 0, 72, 75
2, 7437, Note_on_c, 0, 72, 0
2, 7440, Note_on_c, 0, 74, 75
2, 7485, Note_on_c, 0, 74, 0
2, 7488, Note_on_c, 0, 76, 75
2, 7533, Note_on_c, 0, 76, 0
2, 7536, Note_on_c, 0, 77, 75
2, 7546, Note_on_c, 0, 77, 0
2, 7546, Note_on_c, 0, 79, 75
2, 7556, Note_on_c, 0, 79, 0
2, 7556, Note_on_c, 0, 77, 75
2, 7566, Note_on_c, 0, 77, 0
2, 7566, Note_on_c, 0, 76, 75
2, 7575, Note_on_c, 0, 76, 0
2, 7575, Note_on_c, 0, 77, 75
2, 7584, Note_on_c, 0, 77, 0
2, 7584, Note_on_c, 0, 79, 75
2, 7629, Note_on_c, 0, 79, 0
2, 7632, Note_on_c, 0, 76, 75
2, 7666, Note_on_c, 0, 76, 0
2, 7668, Note_on_c, 0, 79, 75
2, 7680, Note_on_c, 0, 79, 0
2, 7680, Note_on_c, 0, 74, 75
2, 7725, Note_on_c, 0, 74, 0
2, 7728, Note_on_c, 0, 72, 75
2, 7743, Note_on_c, 0, 72, 0
2, 7744, Note_on_c, 0, 74, 75
2, 7759, Note_on_c, 0, 74, 0
2, 7760, Note_on_c, 0, 72, 75
2, 7775, Note_on_c, 0, 72, 0
2, 7776, Note_on_c, 0, 71, 75
2, 7821, Note_on_c, 0, 71, 0
2, 7824, Note_on_c, 0, 74, 75
2, 7839, Note_on_c, 0, 74, 0
2, 7840, Note_on_c, 0, 72, 75
2, 7855, Note_on_c, 0, 72, 0
2, 7856, Note_on_c, 0, 71, 75
2, 7871, Note_on_c, 0, 71, 0
2, 7872, Note_on_c, 0, 69, 75
2, 7917, Note_on_c, 0, 69, 0
2, 7920, Note_on_c, 0, 72, 75
2, 7935, Note_on_c, 0, 72, 0
2, 7936, Note_on_c, 0, 71, 75
2, 7951, Note_on_c, 0, 71, 0
2, 7952, Note_on_c, 0, 69, 75
2, 7967, Note_on_c, 0, 69, 0
2, 7968, Note_on_c, 0, 76, 75
2, 8013, Note_on_c, 0, 76, 0
2, 8016, Note_on_c, 0, 67, 75
2, 8061, Note_on_c, 0, 67, 0
2, 8064, Note_on_c, 0, 67, 75
2, 8074, Note_on_c, 0, 67, 0
2, 8074, Note_on_c, 0, 69, 75
2, 8084, Note_on_c, 0, 69, 0
2, 8084, Note_on_c, 0, 67, 75
2, 8094, Note_on_c, 0, 67, 0
2, 8094, Note_on_c, 0, 66, 75
2, 8103, Note_on_c, 0, 66, 0
2, 8103, Note_on_c, 0, 67, 75
2, 8112, Note_on_c, 0, 67, 0
2, 8112, Note_on_c, 0, 66, 75
2, 8157, Note_on_c, 0, 66, 0
2, 8208, Note_on_c, 0, 74, 75
2, 8242, Note_on_c, 0, 74, 0
2, 8244, Note_on_c, 0, 79, 75
2, 8256, Note_on_c, 0, 79, 0
2, 8256, Note_on_c, 0, 74, 75
2, 8301, Note_on_c, 0, 74, 0
2, 8304, Note_on_c, 0, 71, 75
2, 8338, Note_on_c, 0, 71, 0
2, 8340, Note_on_c, 0, 74, 75
2, 8352, Note_on_c, 0, 74, 0
2, 8352, Note_on_c, 0, 71, 75
2, 8397, Note_on_c, 0, 71, 0
2, 8400, Note_on_c, 0, 67, 75
2, 8434, Note_on_c, 0, 67, 0
2, 8436, Note_on_c, 0, 71, 75
2, 8448, Note_on_c, 0, 71, 0
2, 8448, Note_on_c, 0, 67, 75
2, 8537, Note_on_c, 0, 67, 0
2, 8592, Note_on_c, 0, 74, 75
2, 8637, Note_on_c, 0, 74, 0
2, 8640, Note_on_c, 0, 72, 75
2, 8655, Note_on_c, 0, 72, 0
2, 8656, Note_on_c, 0, 74, 75
2, 8671, Note_on_c, 0, 74, 0
2, 8672, Note_on_c, 0, 76, 75
2, 8687, Note_on_c, 0, 76, 0
2, 8688, Note_on_c, 0, 74, 75
2, 8733, Note_on_c, 0, 74, 0
2, 8784, Note_on_c, 0, 71, 75
2, 8829, Note_on_c, 0, 71, 0
2, 8832, Note_on_c, 0, 69, 75
2, 8847, Note_on_c, 0, 69, 0
2, 8848, Note_on_c, 0, 71, 75
2, 8863, Note_on_c, 0, 71, 0
2, 8864, Note_on_c, 0, 72, 75
2, 8879, Note_on_c, 0, 72, 0
2, 8880, Note_on_c, 0, 71, 75
2, 8925, Note_on_c, 0, 71, 0
2, 8976, Note_on_c, 0, 74, 75
2, 9021, Note_on_c, 0, 74, 0
2, 9024, Note_on_c, 0, 76, 75
2, 9030, Note_on_c, 0, 76, 0
2, 9030, Note_on_c, 0, 78, 75
2, 9036, Note_on_c, 0, 78, 0
2, 9036, Note_on_c, 0, 76, 75
2, 9047, Note_on_c, 0, 76, 0
2, 9048, Note_on_c, 0, 74, 75
2, 9071, Note_on_c, 0, 74, 0
2, 9072, Note_on_c, 0, 76, 75
2, 9095, Note_on_c, 0, 76, 0
2, 9096, Note_on_c, 0, 78, 75
2, 9119, Note_on_c, 0, 78, 0
2, 9120, Note_on_c, 0, 79, 75
2, 9143, Note_on_c, 0, 79, 0
2, 9144, Note_on_c, 0, 78, 75
2, 9167, Note_on_c, 0, 78, 0
2, 9168, Note_on_c, 0, 76, 75
2, 9191, Note_on_c, 0, 76, 0
2, 9192, Note_on_c, 0, 74, 75
2, 9215, Note_on_c, 0, 74, 0
2, 9216, Note_on_c, 0, 72, 75
2, 9227, Note_on_c, 0, 72, 0
2, 9227, Note_on_c, 0, 74, 75
2, 9238, Note_on_c, 0, 74, 0
2, 9238, Note_on_c, 0, 72, 75
2, 9249, Note_on_c, 0, 72, 0
2, 9249, Note_on_c, 0, 74, 75
2, 9260, Note_on_c, 0, 74, 0
2, 9260, Note_on_c, 0, 72, 75
2, 9271, Note_on_c, 0, 72, 0
2, 9271, Note_on_c, 0, 74, 75
2, 9282, Note_on_c, 0, 74, 0
2, 9282, Note_on_c, 0, 72, 75
2, 9292, Note_on_c, 0, 72, 0
2, 9292, Note_on_c, 0, 71, 75
2, 9302, Note_on_c, 0, 71, 0
2, 9302, Note_on_c, 0, 72, 75
2, 9312, Note_on_c, 0, 72, 0
2, 9312, Note_on_c, 0, 71, 75
2, 9357, Note_on_c, 0, 71, 0
2, 9360, Note_on_c, 0, 71, 75
2, 9405, Note_on_c, 0, 71, 0
2, 9408, Note_on_c, 0, 69, 75
2, 9431, Note_on_c, 0, 69, 0
2, 9432, Note_on_c, 0, 72, 75
2, 9455, Note_on_c, 0, 72, 0
2, 9456, Note_on_c, 0, 71, 75
2, 9479, Note_on_c, 0, 71, 0
2, 9480, Note_on_c, 0, 69, 75
2, 9503, Note_on_c, 0, 69, 0
2, 9504, Note_on_c, 0, 76, 75
2, 9549, Note_on_c, 0, 76, 0
2, 9552, Note_on_c, 0, 67, 75
2, 9597, Note_on_c, 0, 67, 0
2, 9600, Note_on_c, 0, 67, 75
2, 9645, Note_on_c, 0, 67, 0
2, 9648, Note_on_c, 0, 66, 75
2, 9693, Note_on_c, 0, 66, 0
2, 9720, Note_on_c, 0, 86, 75
2, 9743, Note_on_c, 0, 86, 0
2, 9768, Note_on_c, 0, 86, 75
2, 9791, Note_on_c, 0, 86, 0
2, 9816, Note_on_c, 0, 86, 75
2, 9839, Note_on_c, 0, 86, 0
2, 9864, Note_on_c, 0, 86, 75
2, 9887, Note_on_c, 0, 86, 0
2, 9912, Note_on_c, 0, 86, 75
2, 9935, Note_on_c, 0, 86, 0
2, 9960, Note_on_c, 0, 86, 75
2, 9983, Note_on_c, 0, 86, 0
2, 9984, Note_on_c, 0, 84, 75
2, 9999, Note_on_c, 0, 84, 0
2, 10000, Note_on_c, 0, 86, 75
2, 10015, Note_on_c, 0, 86, 0
2, 10016, Note_on_c, 0, 84, 75
2, 10031, Note_on_c, 0, 84, 0
2, 10032, Note_on_c, 0, 83, 75
2, 10077, Note_on_c, 0, 83, 0
2, 10080, Note_on_c, 0, 81, 75
2, 10095, Note_on_c, 0, 81, 0
2, 10096, Note_on_c, 0, 83, 75
2, 10111, Note_on_c, 0, 83, 0
2, 10112, Note_on_c, 0, 81, 75
2, 10127, Note_on_c, 0, 81, 0
2, 10128, Note_on_c, 0, 79, 75
2, 10173, Note_on_c, 0, 79, 0
2, 10176, Note_on_c, 0, 78, 75
2, 10191, Note_on_c, 0, 78, 0
2, 10192, Note_on_c, 0, 76, 75
2, 10207, Note_on_c, 0, 76, 0
2, 10208, Note_on_c, 0, 74, 75
2, 10223, Note_on_c, 0, 74, 0
2, 10224, Note_on_c, 0, 79, 75
2, 10269, Note_on_c, 0, 79, 0
2, 10296, Note_on_c, 0, 84, 75
2, 10319, Note_on_c, 0, 84, 0
2, 10344, Note_on_c, 0, 84, 75
2, 10367, Note_on_c, 0, 84, 0
2, 10392, Note_on_c, 0, 84, 75
2, 10415, Note_on_c, 0, 84, 0
2, 10440, Note_on_c, 0, 84, 75
2, 10463, Note_on_c, 0, 84, 0
2, 10488, Note_on_c, 0, 84, 75
2, 10511, Note_on_c, 0, 84, 0
2, 10536, Note_on_c, 0, 84, 75
2, 10559, Note_on_c, 0, 84, 0
2, 10560, Note_on_c, 0, 83, 75
2, 10575, Note_on_c, 0, 83, 0
2, 10576, Note_on_c, 0, 81, 75
2, 10591, Note_on_c, 0, 81, 0
2, 10592, Note_on_c, 0, 79, 75
2, 10607, Note_on_c, 0, 79, 0
2, 10608, Note_on_c, 0, 78, 75
2, 10623, Note_on_c, 0, 78, 0
2, 10624, Note_on_c, 0, 76, 75
2, 10639, Note_on_c, 0, 76, 0
2, 10640, Note_on_c, 0, 74, 75
2, 10655, Note_on_c, 0, 74, 0
2, 10656, Note_on_c, 0, 83, 75
2, 10668, Note_on_c, 0, 83, 0
2, 10668, Note_on_c, 0, 81, 75
2, 10680, Note_on_c, 0, 81, 0
2, 10680, Note_on_c, 0, 83, 75
2, 10692, Note_on_c, 0, 83, 0
2, 10692, Note_on_c, 0, 81, 75
2, 10704, Note_on_c, 0, 81, 0
2, 10704, Note_on_c, 0, 83, 75
2, 10716, Note_on_c, 0, 83, 0
2, 10716, Note_on_c, 0, 81, 75
2, 10728, Note_on_c, 0, 81, 0
2, 10728, Note_on_c, 0, 79, 75
2, 10740, Note_on_c, 0, 79, 0
2, 10740, Note_on_c, 0, 81, 75
2, 10752, Note_on_c, 0, 81, 0
2, 10752, Note_on_c, 0, 79, 75
2, 10797, Note_on_c, 0, 79, 0
2, 10800, Note_on_c, 0, 79, 75
2, 10845, Note_on_c, 0, 79, 0
2, 10848, Note_on_c, 0, 78, 75
2, 10893, Note_on_c, 0, 78, 0
2, 10896, Note_on_c, 0, 76, 75
2, 10941, Note_on_c, 0, 76, 0
2, 10944, Note_on_c, 0, 74, 75
2, 10989, Note_on_c, 0, 74, 0
2, 10992, Note_on_c, 0, 76, 75
2, 11007, Note_on_c, 0, 76, 0
2, 11008, Note_on_c, 0, 74, 75
2, 11023, Note_on_c, 0, 74, 0
2, 11024, Note_on_c, 0, 72, 75
2, 11039, Note_on_c, 0, 72, 0
2, 11040, Note_on_c, 0, 71, 75
2, 11085, Note_on_c, 0, 71, 0
2, 11088, Note_on_c, 0, 69, 75
2, 11098, Note_on_c, 0, 69, 0
2, 11098, Note_on_c, 0, 71, 75
2, 11108, Note_on_c, 0, 71, 0
2, 11108, Note_on_c, 0, 69, 75
2, 11118, Note_on_c, 0, 69, 0
2, 11118, Note_on_c, 0, 67, 75
2, 11127, Note_on_c, 0, 67, 0
2, 11127, Note_on_c, 0, 69, 75
2, 11136, Note_on_c, 0, 69, 0
2, 11136, Note_on_c, 0, 67, 75
2, 11181, Note_on_c, 0, 67, 0
2, 11184, Note_on_c, 0, 79, 75
2, 11229, Note_on_c, 0, 79, 0
2, 11232, Note_on_c, 0, 78, 75
2, 11277, Note_on_c, 0, 78, 0
2, 11280, Note_on_c, 0, 76, 75
2, 11325, Note_on_c, 0, 76, 0
2, 11328, Note_on_c, 0, 74, 75
2, 11373, Note_on_c, 0, 74, 0
2, 11376, Note_on_c, 0, 76, 75
2, 11391, Note_on_c, 0, 76, 0
2, 11392, Note_on_c, 0, 74, 75
2, 11407, Note_on_c, 0, 74, 0
2, 11408, Note_on_c, 0, 72, 75
2, 11423, Note_on_c, 0, 72, 0
2, 11424, Note_on_c, 0, 71, 75
2, 11469, Note_on_c, 0, 71, 0
2, 11472, Note_on_c, 0, 69, 75
2, 11482, Note_on_c, 0, 69, 0
2, 11482, Note_on_c, 0, 71, 75
2, 11492, Note_on_c, 0, 71, 0
2, 11492, Note_on_c, 0, 69, 75
2, 11502, Note_on_c, 0, 69, 0
2, 11502, Note_on_c, 0, 67, 75
2, 11511, Note_on_c, 0, 67, 0
2, 11511, Note_on_c, 0, 69, 75
2, 11520, Note_on_c, 0, 69, 0
2, 11520, Note_on_c, 0, 67, 75
2, 11609, Note_on_c, 0, 67, 0
2, 11664, Note_on_c, 0, 74, 75
2, 11698, Note_on_c, 0, 74, 0
2, 11700, Note_on_c, 0, 78, 75
2, 11712, Note_on_c, 0, 78, 0
2, 11736, Note_on_c, 0, 74, 75
2, 11759, Note_on_c, 0, 74, 0
2, 11784, Note_on_c, 0, 84, 75
2, 11807, Note_on_c, 0, 84, 0
2, 11832, Note_on_c, 0, 78, 75
2, 11855, Note_on_c, 0, 78, 0
2, 11880, Note_on_c, 0, 81, 75
2, 11903, Note_on_c, 0, 81, 0
2, 11928, Note_on_c, 0, 79, 75
2, 11951, Note_on_c, 0, 79, 0
2, 11952, Note_on_c, 0, 83, 75
2, 11975, Note_on_c, 0, 83, 0
2, 11976, Note_on_c, 0, 74, 75
2, 11999, Note_on_c, 0, 74, 0
2, 12000, Note_on_c, 0, 72, 75
2, 12015, Note_on_c, 0, 72, 0
2, 12016, Note_on_c, 0, 74, 75
2, 12031, Note_on_c, 0, 74, 0
2, 12032, Note_on_c, 0, 76, 75
2, 12047, Note_on_c, 0, 76, 0
2, 12048, Note_on_c, 0, 69, 75
2, 12063, Note_on_c, 0, 69, 0
2, 12064, Note_on_c, 0, 71, 75
2, 12079, Note_on_c, 0, 71, 0
2, 12080, Note_on_c, 0, 72, 75
2, 12095, Note_on_c, 0, 72, 0
2, 12096, Note_on_c, 0, 71, 75
2, 12111, Note_on_c, 0, 71, 0
2, 12112, Note_on_c, 0, 72, 75
2, 12127, Note_on_c, 0, 72, 0
2, 12128, Note_on_c, 0, 74, 75
2, 12143, Note_on_c, 0, 74, 0
2, 12144, Note_on_c, 0, 72, 75
2, 12159, Note_on_c, 0, 72, 0
2, 12160, Note_on_c, 0, 74, 75
2, 12175, Note_on_c, 0, 74, 0
2, 12176, Note_on_c, 0, 76, 75
2, 12191, Note_on_c, 0, 76, 0
2, 12192, Note_on_c, 0, 74, 75
2, 12237, Note_on_c, 0, 74, 0
2, 12240, Note_on_c, 0, 74, 75
2, 12274, Note_on_c, 0, 74, 0
2, 12276, Note_on_c, 0, 78, 75
2, 12288, Note_on_c, 0, 78, 0
2, 12288, Note_on_c, 0, 74, 75
2, 12333, Note_on_c, 0, 74, 0
2, 12336, Note_on_c, 0, 66, 75
2, 12381, Note_on_c, 0, 66, 0
2, 12384, Note_on_c, 0, 67, 75
2, 12429, Note_on_c, 0, 67, 0
2, 12432, Note_on_c, 0, 69, 75
2, 12477, Note_on_c, 0, 69, 0
2, 12480, Note_on_c, 0, 71, 75
2, 12525, Note_on_c, 0, 71, 0
2, 12528, Note_on_c, 0, 72, 75
2, 12538, Note_on_c, 0, 72, 0
2, 12538, Note_on_c, 0, 74, 75
2, 12548, Note_on_c, 0, 74, 0
2, 12548, Note_on_c, 0, 72, 75
2, 12558, Note_on_c, 0, 72, 0
2, 12558, Note_on_c, 0, 71, 75
2, 12567, Note_on_c, 0, 71, 0
2, 12567, Note_on_c, 0, 72, 75
2, 12576, Note_on_c, 0, 72, 0
2, 12576, Note_on_c, 0, 74, 75
2, 12621, Note_on_c, 0, 74, 0
2, 12624, Note_on_c, 0, 79, 75
2, 12658, Note_on_c, 0, 79, 0
2, 12660, Note_on_c, 0, 83, 75
2, 12672, Note_on_c, 0, 83, 0
2, 12672, Note_on_c, 0, 79, 75
2, 12717, Note_on_c, 0, 79, 0
2, 12720, Note_on_c, 0, 71, 75
2, 12765, Note_on_c, 0, 71, 0
2, 12768, Note_on_c, 0, 72, 75
2, 12813, Note_on_c, 0, 72, 0
2, 12816, Note_on_c, 0, 74, 75
2, 12861, Note_on_c, 0, 74, 0
2, 12864, Note_on_c, 0, 76, 75
2, 12909, Note_on_c, 0, 76, 0
2, 12912, Note_on_c, 0, 77, 75
2, 12922, Note_on_c, 0, 77, 0
2, 12922, Note_on_c, 0, 79, 75
2, 12932, Note_on_c, 0, 79, 0
2, 12932, Note_on_c, 0, 77, 75
2, 12942, Note_on_c, 0, 77, 0
2, 12942, Note_on_c, 0, 76, 75
2, 12951, Note_on_c, 0, 76, 0
2, 12951, Note_on_c, 0, 77, 75
2, 12960, Note_on_c, 0, 77, 0
2, 12960, Note_on_c, 0, 79, 75
2, 13005, Note_on_c, 0, 79, 0
2, 13008, Note_on_c, 0, 76, 75
2, 13042, Note_on_c, 0, 76, 0
2, 13044, Note_on_c, 0, 79, 75
2, 13056, Note_on_c, 0, 79, 0
2, 13056, Note_on_c, 0, 74, 75
2, 13101, Note_on_c, 0, 74, 0
2, 13104, Note_on_c, 0, 72, 75
2, 13119, Note_on_c, 0, 72, 0
2, 13120, Note_on_c, 0, 74, 75
2, 13135, Note_on_c, 0, 74, 0
2, 13136, Note_on_c, 0, 72, 75
2, 13151, Note_on_c, 0, 72, 0
2, 13152, Note_on_c, 0, 71, 75
2, 13197, Note_on_c, 0, 71, 0
2, 13200, Note_on_c, 0, 74, 75
2, 13215, Note_on_c, 0, 74, 0
2, 13216, Note_on_c, 0, 72, 75
2, 13231, Note_on_c, 0, 72, 0
2, 13232, Note_on_c, 0, 71, 75
2, 13247, Note_on_c, 0, 71, 0
2, 13248, Note_on_c, 0, 69, 75
2, 13293, Note_on_c, 0, 69, 0
2, 13296, Note_on_c, 0, 72, 75
2, 13311, Note_on_c, 0, 72, 0
2, 13312, Note_on_c, 0, 71, 75
2, 13327, Note_on_c, 0, 71, 0
2, 13328, Note_on_c, 0, 69, 75
2, 13343, Note_on_c, 0, 69, 0
2, 13344, Note_on_c, 0, 76, 75
2, 13389, Note_on_c, 0, 76, 0
2, 13392, Note_on_c, 0, 67, 75
2, 13437, Note_on_c, 0, 67, 0
2, 13440, Note_on_c, 0, 67, 75
2, 13450, Note_on_c, 0, 67, 0
2, 13450, Note_on_c, 0, 69, 75
2, 13460, Note_on_c, 0, 69, 0
2, 13460, Note_on_c, 0, 67, 75
2, 13470, Note_on_c, 0, 67, 0
2, 13470, Note_on_c, 0, 66, 75
2, 13479, Note_on_c, 0, 66, 0
2, 13479, Note_on_c, 0, 67, 75
2, 13488, Note_on_c, 0, 67, 0
2, 13488, Note_on_c, 0, 66, 75
2, 13533, Note_on_c, 0, 66, 0
2, 13584, Note_on_c, 0, 74, 75
2, 13618, Note_on_c, 0, 74, 0
2, 13620, Note_on_c, 0, 79, 75
2, 13632, Note_on_c, 0, 79, 0
2, 13632, Note_on_c, 0, 74, 75
2, 13677, Note_on_c, 0, 74, 0
2, 13680, Note_on_c, 0, 71, 75
2, 13714, Note_on_c, 0, 71, 0
2, 13716, Note_on_c, 0, 74, 75
2, 13728, Note_on_c, 0, 74, 0
2, 13728, Note_on_c, 0, 71, 75
2, 13773, Note_on_c, 0, 71, 0
2, 13776, Note_on_c, 0, 67, 75
2, 13810, Note_on_c, 0, 67, 0
2, 13812, Note_on_c, 0, 71, 75
2, 13824, Note_on_c, 0, 71, 0
2, 13824, Note_on_c, 0, 67, 75
2, 13913, Note_on_c, 0, 67, 0
2, 13968, Note_on_c, 0, 74, 75
2, 14013, Note_on_c, 0, 74, 0
2, 14016, Note_on_c, 0, 72, 75
2, 14031, Note_on_c, 0, 72, 0
2, 14032, Note_on_c, 0, 74, 75
2, 14047, Note_on_c, 0, 74, 0
2, 14048, Note_on_c, 0, 76, 75
2, 14063, Note_on_c, 0, 76, 0
2, 14064, Note_on_c, 0, 74, 75
2, 14109, Note_on_c, 0, 74, 0
2, 14160, Note_on_c, 0, 71, 75
2, 14205, Note_on_c, 0, 71, 0
2, 14208, Note_on_c, 0, 69, 75
2, 14223, Note_on_c, 0, 69, 0
2, 14224, Note_on_c, 0, 71, 75
2, 14239, Note_on_c, 0, 71, 0
2, 14240, Note_on_c, 0, 72, 75
2, 14255, Note_on_c, 0, 72, 0
2, 14256, Note_on_c, 0, 71, 75
2, 14301, Note_on_c, 0, 71, 0
2, 14352, Note_on_c, 0, 74, 75
2, 14397, Note_on_c, 0, 74, 0
2, 14400, Note_on_c, 0, 76, 75
2, 14406, Note_on_c, 0, 76, 0
2, 14406, Note_on_c, 0, 78, 75
2, 14412, Note_on_c, 0, 78, 0
2, 14412, Note_on_c, 0, 76, 75
2, 14423, Note_on_c, 0, 76, 0
2, 14424, Note_on_c, 0, 74, 75
2, 14447, Note_on_c, 0, 74, 0
2, 14448, Note_on_c, 0, 76, 75
2, 14471, Note_on_c, 0, 76, 0
2, 14472, Note_on_c, 0, 78, 75
2, 14495, Note_on_c, 0, 78, 0
2, 14496, Note_on_c, 0, 79, 75
2, 14519, Note_on_c, 0, 79, 0
2, 14520, Note_on_c, 0, 78, 75
2, 14543, Note_on_c, 0, 78, 0
2, 14544, Note_on_c, 0, 76, 75
2, 14567, Note_on_c, 0, 76, 0
2, 14568, Note_on_c, 0, 74, 75
2, 14591, Note_on_c, 0, 74, 0
2, 14592, Note_on_c, 0, 72, 75
2, 14603, Note_on_c, 0, 72, 0
2, 14603, Note_on_c, 0, 74, 75
2, 14614, Note_on_c, 0, 74, 0
2, 14614, Note_on_c, 0, 72, 75
2, 14625, Note_on_c, 0, 72, 0
2, 14625, Note_on_c, 0, 74, 75
2, 14636, Note_on_c, 0, 74, 0
2, 14636, Note_on_c, 0, 72, 75
2, 14647, Note_on_c, 0, 72, 0
2, 14647, Note_on_c, 0, 74, 75
2, 14658, Note_on_c, 0, 74, 0
2, 14658, Note_on_c, 0, 72, 75
2, 14668, Note_on_c, 0, 72, 0
2, 14668, Note_on_c, 0, 71, 75
2, 14678, Note_on_c, 0, 71, 0
2, 14678, Note_on_c, 0, 72, 75
2, 14688, Note_on_c, 0, 72, 0
2, 14688, Note_on_c, 0, 71, 75
2, 14733, Note_on_c, 0, 71, 0
2, 14736, Note_on_c, 0, 71, 75
2, 14781, Note_on_c, 0, 71, 0
2, 14784, Note_on_c, 0, 69, 75
2, 14807, Note_on_c, 0, 69, 0
2, 14808, Note_on_c, 0, 72, 75
2, 14831, Note_on_c, 0, 72, 0
2, 14832, Note_on_c, 0, 71, 75
2, 14855, Note_on_c, 0, 71, 0
2, 14856, Note_on_c, 0, 69, 75
2, 14879, Note_on_c, 0, 69, 0
2, 14880, Note_on_c, 0, 76, 75
2, 14925, Note_on_c, 0, 76, 0
2, 14928, Note_on_c, 0, 67, 75
2, 14973, Note_on_c, 0, 67, 0
2, 14976, Note_on_c, 0, 67, 75
2, 15021, Note_on_c, 0, 67, 0
2, 15024, Note_on_c, 0, 66, 75
2, 15069, Note_on_c, 0, 66, 0
2, 15096, Note_on_c, 0, 86, 75
2, 15119, Note_on_c, 0, 86, 0
2, 15144, Note_on_c, 0, 86, 75
2, 15167, Note_on_c, 0, 86, 0
2, 15192, Note_on_c, 0, 86, 75
2, 15215, Note_on_c, 0, 86, 0
2, 15240, Note_on_c, 0, 86, 75
2, 15263, Note_on_c, 0, 86, 0
2, 15288, Note_on_c, 0, 86, 75
2, 15311, Note_on_c, 0, 86, 0
2, 15336, Note_on_c, 0, 86, 75
2, 15359, Note_on_c, 0, 86, 0
2, 15360, Note_on_c, 0, 84, 75
2, 15375, Note_on_c, 0, 84, 0
2, 15376, Note_on_c, 0, 86, 75
2, 15391, Note_on_c, 0, 86, 0
2, 15392, Note_on_c, 0, 84, 75
2, 15407, Note_on_c, 0, 84, 0
2, 15408, Note_on_c, 0, 83, 75
2, 15453, Note_on_c, 0, 83, 0
2, 15456, Note_on_c, 0, 81, 75
2, 15471, Note_on_c, 0, 81, 0
2, 15472, Note_on_c, 0, 83, 75
2, 15487, Note_on_c, 0, 83, 0
2, 15488, Note_on_c, 0, 81, 75
2, 15503, Note_on_c, 0, 81, 0
2, 15504, Note_on_c, 0, 79, 75
2, 15549, Note_on_c, 0, 79, 0
2, 15552, Note_on_c, 0, 78, 75
2, 15567, Note_on_c, 0, 78, 0
2, 15568, Note_on_c, 0, 76, 75
2, 15583, Note_on_c, 0, 76, 0
2, 15584, Note_on_c, 0, 74, 75
2, 15599, Note_on_c, 0, 74, 0
2, 15600, Note_on_c, 0, 79, 75
2, 15645, Note_on_c, 0, 79, 0
2, 15672, Note_on_c, 0, 84, 75
2, 15695, Note_on_c, 0, 84, 0
2, 15720, Note_on_c, 0, 84, 75
2, 15743, Note_on_c, 0, 84, 0
2, 15768, Note_on_c, 0, 84, 75
2, 15791, Note_on_c, 0, 84, 0
2, 15816, Note_on_c, 0, 84, 75
2, 15839, Note_on_c, 0, 84, 0
2, 15864, Note_on_c, 0, 84, 75
2, 15887, Note_on_c, 0, 84, 0
2, 15912, Note_on_c, 0, 84, 75
2, 15935, Note_on_c, 0, 84, 0
2, 15936, Note_on_c, 0, 83, 75
2, 15951, Note_on_c, 0, 83, 0
2, 15952, Note_on_c, 0, 81, 75
2, 15967, Note_on_c, 0, 81, 0
2, 15968, Note_on_c, 0, 79, 75
2, 15983, Note_on_c, 0, 79, 0
2, 15984, Note_on_c, 0, 78, 75
2, 15999, Note_on_c, 0, 78, 0
2, 16000, Note_on_c, 0, 76, 75
2, 16015, Note_on_c, 0, 76, 0
2, 16016, Note_on_c, 0, 74, 75
2, 16031, Note_on_c, 0, 74, 0
2, 16032, Note_on_c, 0, 83, 75
2, 16044, Note_on_c, 0, 83, 0
2, 16044, Note_on_c, 0, 81, 75
2, 16056, Note_on_c, 0, 81, 0
2, 16056, Note_on_c, 0, 83, 75
2, 16068, Note_on_c, 0, 83, 0
2, 16068, Note_on_c, 0, 81, 75
2, 16080, Note_on_c, 0, 81, 0
2, 16080, Note_on_c, 0, 83, 75
2, 16092, Note_on_c, 0, 83, 0
2, 16092, Note_on_c, 0, 81, 75
2, 16104, Note_on_c, 0, 81, 0
2, 16104, Note_on_c, 0, 79, 75
2, 16116, Note_on_c, 0, 79, 0
2, 16116, Note_on_c, 0, 81, 75
2, 16128, Note_on_c, 0, 81, 0
2, 16128, Note_on_c, 0, 79, 75
2, 16173, Note_on_c, 0, 79, 0
2, 16176, Note_on_c, 0, 79, 75
2, 16221, Note_on_c, 0, 79, 0
2, 16224, Note_on_c, 0, 78, 75
2, 16269, Note_on_c, 0, 78, 0
2, 16272, Note_on_c, 0, 76, 75
2, 16317, Note_on_c, 0, 76, 0
2, 16320, Note_on_c, 0, 74, 75
2, 16365, Note_on_c, 0, 74, 0
2, 16368, Note_on_c, 0, 76, 75
2, 16383, Note_on_c, 0, 76, 0
2, 16384, Note_on_c, 0, 74, 75
2, 16399, Note_on_c, 0, 74, 0
2, 16400, Note_on_c, 0, 72, 75
2, 16415, Note_on_c, 0, 72, 0
2, 16416, Note_on_c, 0, 71, 75
2, 16461, Note_on_c, 0, 71, 0
2, 16464, Note_on_c, 0, 69, 75
2, 16474, Note_on_c, 0, 69, 0
2, 16474, Note_on_c, 0, 71, 75
2, 16484, Note_on_c, 0, 71, 0
2, 16484, Note_on_c, 0, 69, 75
2, 16494, Note_on_c, 0, 69, 0
2, 16494, Note_on_c, 0, 67, 75
2, 16503, Note_on_c, 0, 67, 0
2, 16503, Note_on_c, 0, 69, 75
2, 16512, Note_on_c, 0, 69, 0
2, 16512, Note_on_c, 0, 67, 75
2, 16557, Note_on_c, 0, 67, 0
2, 16560, Note_on_c, 0, 79, 75
2, 16605, Note_on_c, 0, 79, 0
2, 16608, Note_on_c, 0, 78, 75
2, 16653, Note_on_c, 0, 78, 0
2, 16656, Note_on_c, 0, 76, 75
2, 16701, Note_on_c, 0, 76, 0
2, 16704, Note_on_c, 0, 74, 75
2, 16749, Note_on_c, 0, 74, 0
2, 16752, Note_on_c, 0, 76, 75
2, 16767, Note_on_c, 0, 76, 0
2, 16768, Note_on_c, 0, 74, 75
2, 16783, Note_on_c, 0, 74, 0
2, 16784, Note_on_c, 0, 72, 75
2, 16799, Note_on_c, 0, 72, 0
2, 16800, Note_on_c, 0, 71, 75
2, 16845, Note_on_c, 0, 71, 0
2, 16848, Note_on_c, 0, 69, 75
2, 16858, Note_on_c, 0, 69, 0
2, 16858, Note_on_c, 0, 71, 75
2, 16868, Note_on_c, 0, 71, 0
2, 16868, Note_on_c, 0, 69, 75
2, 16878, Note_on_c, 0, 69, 0
2, 16878, Note_on_c, 0, 67, 75
2, 16887, Note_on_c, 0, 67, 0
2, 16887, Note_on_c, 0, 69, 75
2, 16896, Note_on_c, 0, 69, 0
2, 16896, Note_on_c, 0, 67, 75
2, 16985, Note_on_c, 0, 67, 0
2, 17280, End_track
3, 0, Start_track
3, 0, Program_c, 1, 0
3, 0, Control_c, 1, 7, 127
3, 0, Control_c, 1, 10, 64
3, 192, Note_on_c, 1, 59, 64
3, 192, Note_on_c, 1, 55, 64
3, 281, Note_on_c, 1, 59, 0
3, 281, Note_on_c, 1, 55, 0
3, 432, Note_on_c, 1, 59, 64
3, 432, Note_on_c, 1, 55, 64
3, 452, Note_on_c, 1, 59, 0
3, 452, Note_on_c, 1, 55, 0
3, 480, Note_on_c, 1, 59, 64
3, 480, Note_on_c, 1, 55, 64
3, 569, Note_on_c, 1, 59, 0
3, 569, Note_on_c, 1, 55, 0
3, 624, Note_on_c, 1, 59, 64
3, 624, Note_on_c, 1, 55, 64
3, 644, Note_on_c, 1, 59, 0
3, 644, Note_on_c, 1, 55, 0
3, 672, Note_on_c, 1, 59, 64
3, 672, Note_on_c, 1, 55, 64
3, 761, Note_on_c, 1, 59, 0
3, 761, Note_on_c, 1, 55, 0
3, 816, Note_on_c, 1, 59, 64
3, 816, Note_on_c, 1, 55, 64
3, 836, Note_on_c, 1, 59, 0
3, 836, Note_on_c, 1, 55, 0
3, 864, Note_on_c, 1, 59, 64
3, 864, Note_on_c, 1, 55, 64
3, 953, Note_on_c, 1, 59, 0
3, 953, Note_on_c, 1, 55, 0
3, 960, Note_on_c, 1, 60, 64
3, 960, Note_on_c, 1, 48, 64
3, 1049, Note_on_c, 1, 60, 0
3, 1049, Note_on_c, 1, 48, 0
3, 1056, Note_on_c, 1, 59, 64
3, 1056, Note_on_c, 1, 47, 64
3, 1145, Note_on_c, 1, 59, 0
3, 1145, Note_on_c, 1, 47, 0
3, 1152, Note_on_c, 1, 57, 64
3, 1197, Note_on_c, 1, 57, 0
3, 1200, Note_on_c, 1, 50, 64
3, 1245, Note_on_c, 1, 50, 0
3, 1248, Note_on_c, 1, 55, 64
3, 1337, Note_on_c, 1, 55, 0
3, 1344, Note_on_c, 1, 48, 64
3, 1477, Note_on_c, 1, 48, 0
3, 1488, Note_on_c, 1, 49, 64
3, 1533, Note_on_c, 1, 49, 0
3, 1536, Note_on_c, 1, 50, 64
3, 1581, Note_on_c, 1, 50, 0
3, 1584, Note_on_c, 1, 38, 64
3, 1629, Note_on_c, 1, 38, 0
3, 1632, Note_on_c, 1, 50, 64
3, 1677, Note_on_c, 1, 50, 0
3, 1680, Note_on_c, 1, 54, 64
3, 1725, Note_on_c, 1, 54, 0
3, 1728, Note_on_c, 1, 57, 64
3, 1773, Note_on_c, 1, 57, 0
3, 1776, Note_on_c, 1, 62, 64
3, 1821, Note_on_c, 1, 62, 0
3, 1824, Note_on_c, 1, 66, 64
3, 1869, Note_on_c, 1, 66, 0
3, 1872, Note_on_c, 1, 62, 64
3, 1917, Note_on_c, 1, 62, 0
3, 1920, Note_on_c, 1, 64, 64
3, 1965, Note_on_c, 1, 64, 0
3, 1968, Note_on_c, 1, 62, 64
3, 2013, Note_on_c, 1, 62, 0
3, 2016, Note_on_c, 1, 67, 64
3, 2061, Note_on_c, 1, 67, 0
3, 2064, Note_on_c, 1, 66, 64
3, 2109, Note_on_c, 1, 66, 0
3, 2112, Note_on_c, 1, 64, 64
3, 2157, Note_on_c, 1, 64, 0
3, 2160, Note_on_c, 1, 66, 64
3, 2205, Note_on_c, 1, 66, 0
3, 2208, Note_on_c, 1, 45, 64
3, 2253, Note_on_c, 1, 45, 0
3, 2256, Note_on_c, 1, 49, 64
3, 2301, Note_on_c, 1, 49, 0
3, 2304, Note_on_c, 1, 52, 64
3, 2349, Note_on_c, 1, 52, 0
3, 2352, Note_on_c, 1, 57, 64
3, 2397, Note_on_c, 1, 57, 0
3, 2400, Note_on_c, 1, 61, 64
3, 2445, Note_on_c, 1, 61, 0
3, 2448, Note_on_c, 1, 64, 64
3, 2493, Note_on_c, 1, 64, 0
3, 2496, Note_on_c, 1, 62, 64
3, 2585, Note_on_c, 1, 62, 0
3, 2592, Note_on_c, 1, 62, 64
3, 2637, Note_on_c, 1, 62, 0
3, 2640, Note_on_c, 1, 61, 64
3, 2685, Note_on_c, 1, 61, 0
3, 2688, Note_on_c, 1, 62, 64
3, 2733, Note_on_c, 1, 62, 0
3, 2736, Note_on_c, 1, 59, 64
3, 2759, Note_on_c, 1, 59, 0
3, 2760, Note_on_c, 1, 62, 64
3, 2783, Note_on_c, 1, 62, 0
3, 2784, Note_on_c, 1, 57, 64
3, 2807, Note_on_c, 1, 57, 0
3, 2808, Note_on_c, 1, 62, 64
3, 2831, Note_on_c, 1, 62, 0
3, 2832, Note_on_c, 1, 55, 64
3, 2855, Note_on_c, 1, 55, 0
3, 2856, Note_on_c, 1, 62, 64
3, 2879, Note_on_c, 1, 62, 0
3, 2880, Note_on_c, 1, 54, 64
3, 2925, Note_on_c, 1, 54, 0
3, 2928, Note_on_c, 1, 55, 64
3, 2973, Note_on_c, 1, 55, 0
3, 2976, Note_on_c, 1, 57, 64
3, 3021, Note_on_c, 1, 57, 0
3, 3024, Note_on_c, 1, 45, 64
3, 3069, Note_on_c, 1, 45, 0
3, 3072, Note_on_c, 1, 50, 64
3, 3117, Note_on_c, 1, 50, 0
3, 3120, Note_on_c, 1, 45, 64
3, 3165, Note_on_c, 1, 45, 0
3, 3168, Note_on_c, 1, 38, 64
3, 3213, Note_on_c, 1, 38, 0
3, 3264, Note_on_c, 1, 59, 64
3, 3264, Note_on_c, 1, 55, 64
3, 3353, Note_on_c, 1, 59, 0
3, 3353, Note_on_c, 1, 55, 0
3, 3504, Note_on_c, 1, 59, 64
3, 3504, Note_on_c, 1, 55, 64
3, 3524, Note_on_c, 1, 59, 0
3, 3524, Note_on_c, 1, 55, 0
3, 3552, Note_on_c, 1, 59, 64
3, 3552, Note_on_c, 1, 55, 64
3, 3641, Note_on_c, 1, 59, 0
3, 3641, Note_on_c, 1, 55, 0
3, 3696, Note_on_c, 1, 59, 64
3, 3696, Note_on_c, 1, 55, 64
3, 3716, Note_on_c, 1, 59, 0
3, 3716, Note_on_c, 1, 55, 0
3, 3744, Note_on_c, 1, 59, 64
3, 3744, Note_on_c, 1, 55, 64
3, 3833, Note_on_c, 1, 59, 0
3, 3833, Note_on_c, 1, 55, 0
3, 3888, Note_on_c, 1, 59, 64
3, 3888, Note_on_c, 1, 55, 64
3, 3908, Note_on_c, 1, 59, 0
3, 3908, Note_on_c, 1, 55, 0
3, 3936, Note_on_c, 1, 59, 64
3, 3936, Note_on_c, 1, 55, 64
3, 4025, Note_on_c, 1, 59, 0
3, 4025, Note_on_c, 1, 55, 0
3, 4032, Note_on_c, 1, 60, 64
3, 4032, Note_on_c, 1, 48, 64
3, 4121, Note_on_c, 1, 60, 0
3, 4121, Note_on_c, 1, 48, 0
3, 4128, Note_on_c, 1, 59, 64
3, 4128, Note_on_c, 1, 47, 64
3, 4217, Note_on_c, 1, 59, 0
3, 4217, Note_on_c, 1, 47, 0
3, 4224, Note_on_c, 1, 57, 64
3, 4269, Note_on_c, 1, 57, 0
3, 4272, Note_on_c, 1, 50, 64
3, 4317, Note_on_c, 1, 50, 0
3, 4320, Note_on_c, 1, 55, 64
3, 4409, Note_on_c, 1, 55, 0
3, 4416, Note_on_c, 1, 48, 64
3, 4549, Note_on_c, 1, 48, 0
3, 4560, Note_on_c, 1, 49, 64
3, 4605, Note_on_c, 1, 49, 0
3, 4608, Note_on_c, 1, 50, 64
3, 4653, Note_on_c, 1, 50, 0
3, 4656, Note_on_c, 1, 38, 64
3, 4701, Note_on_c, 1, 38, 0
3, 4704, Note_on_c, 1, 50, 64
3, 4749, Note_on_c, 1, 50, 0
3, 4752, Note_on_c, 1, 54, 64
3, 4797, Note_on_c, 1, 54, 0
3, 4800, Note_on_c, 1, 57, 64
3, 4845, Note_on_c, 1, 57, 0
3, 4848, Note_on_c, 1, 62, 64
3, 4893, Note_on_c, 1, 62, 0
3, 4896, Note_on_c, 1, 66, 64
3, 4941, Note_on_c, 1, 66, 0
3, 4944, Note_on_c, 1, 62, 64
3, 4989, Note_on_c, 1, 62, 0
3, 4992, Note_on_c, 1, 64, 64
3, 5037, Note_on_c, 1, 64, 0
3, 5040, Note_on_c, 1, 62, 64
3, 5085, Note_on_c, 1, 62, 0
3, 5088, Note_on_c, 1, 67, 64
3, 5133, Note_on_c, 1, 67, 0
3, 5136, Note_on_c, 1, 66, 64
3, 5181, Note_on_c, 1, 66, 0
3, 5184, Note_on_c, 1, 64, 64
3, 5229, Note_on_c, 1, 64, 0
3, 5232, Note_on_c, 1, 66, 64
3, 5277, Note_on_c, 1, 66, 0
3, 5280, Note_on_c, 1, 45, 64
3, 5325, Note_on_c, 1, 45, 0
3, 5328, Note_on_c, 1, 49, 64
3, 5373, Note_on_c, 1, 49, 0
3, 5376, Note_on_c, 1, 52, 64
3, 5421, Note_on_c, 1, 52, 0
3, 5424, Note_on_c, 1, 57, 64
3, 5469, Note_on_c, 1, 57, 0
3, 5472, Note_on_c, 1, 61, 64
3, 5517, Note_on_c, 1, 61, 0
3, 5520, Note_on_c, 1, 64, 64
3, 5565, Note_on_c, 1, 64, 0
3, 5568, Note_on_c, 1, 62, 64
3, 5657, Note_on_c, 1, 62, 0
3, 5664, Note_on_c, 1, 62, 64
3, 5709, Note_on_c, 1, 62, 0
3, 5712, Note_on_c, 1, 61, 64
3, 5757, Note_on_c, 1, 61, 0
3, 5760, Note_on_c, 1, 62, 64
3, 5805, Note_on_c, 1, 62, 0
3, 5808, Note_on_c, 1, 59, 64
3, 5831, Note_on_c, 1, 59, 0
3, 5832, Note_on_c, 1, 62, 64
3, 5855, Note_on_c, 1, 62, 0
3, 5856, Note_on_c, 1, 57, 64
3, 5879, Note_on_c, 1, 57, 0
3, 5880, Note_on_c, 1, 62, 64
3, 5903, Note_on_c, 1, 62, 0
3, 5904, Note_on_c, 1, 55, 64
3, 5927, Note_on_c, 1, 55, 0
3, 5928, Note_on_c, 1, 62, 64
3, 5951, Note_on_c, 1, 62, 0
3, 5952, Note_on_c, 1, 54, 64
3, 5997, Note_on_c, 1, 54, 0
3, 6000, Note_on_c, 1, 55, 64
3, 6045, Note_on_c, 1, 55, 0
3, 6048, Note_on_c, 1, 57, 64
3, 6093, Note_on_c, 1, 57, 0
3, 6096, Note_on_c, 1, 45, 64
3, 6141, Note_on_c, 1, 45, 0
3, 6144, Note_on_c, 1, 50, 64
3, 6189, Note_on_c, 1, 50, 0
3, 6192, Note_on_c, 1, 45, 64
3, 6237, Note_on_c, 1, 45, 0
3, 6240, Note_on_c, 1, 38, 64
3, 6285, Note_on_c, 1, 38, 0
3, 6384, Note_on_c, 1, 66, 64
3, 6429, Note_on_c, 1, 66, 0
3, 6432, Note_on_c, 1, 69, 64
3, 6477, Note_on_c, 1, 69, 0
3, 6480, Note_on_c, 1, 72, 64
3, 6525, Note_on_c, 1, 72, 0
3, 6528, Note_on_c, 1, 71, 64
3, 6573, Note_on_c, 1, 71, 0
3, 6576, Note_on_c, 1, 67, 64
3, 6621, Note_on_c, 1, 67, 0
3, 6624, Note_on_c, 1, 69, 64
3, 6669, Note_on_c, 1, 69, 0
3, 6672, Note_on_c, 1, 66, 64
3, 6717, Note_on_c, 1, 66, 0
3, 6720, Note_on_c, 1, 67, 64
3, 6765, Note_on_c, 1, 67, 0
3, 6768, Note_on_c, 1, 69, 64
3, 6813, Note_on_c, 1, 69, 0
3, 6816, Note_on_c, 1, 71, 64
3, 6861, Note_on_c, 1, 71, 0
3, 6960, Note_on_c, 1, 50, 64
3, 6983, Note_on_c, 1, 50, 0
3, 6984, Note_on_c, 1, 62, 64
3, 7007, Note_on_c, 1, 62, 0
3, 7008, Note_on_c, 1, 52, 64
3, 7031, Note_on_c, 1, 52, 0
3, 7032, Note_on_c, 1, 62, 64
3, 7055, Note_on_c, 1, 62, 0
3, 7056, Note_on_c, 1, 54, 64
3, 7079, Note_on_c, 1, 54, 0
3, 7080, Note_on_c, 1, 62, 64
3, 7103, Note_on_c, 1, 62, 0
3, 7104, Note_on_c, 1, 55, 64
3, 7127, Note_on_c, 1, 55, 0
3, 7128, Note_on_c, 1, 62, 64
3, 7151, Note_on_c, 1, 62, 0
3, 7152, Note_on_c, 1, 57, 64
3, 7175, Note_on_c, 1, 57, 0
3, 7176, Note_on_c, 1, 62, 64
3, 7199, Note_on_c, 1, 62, 0
3, 7200, Note_on_c, 1, 59, 64
3, 7245, Note_on_c, 1, 59, 0
3, 7344, Note_on_c, 1, 43, 64
3, 7367, Note_on_c, 1, 43, 0
3, 7368, Note_on_c, 1, 55, 64
3, 7391, Note_on_c, 1, 55, 0
3, 7392, Note_on_c, 1, 45, 64
3, 7415, Note_on_c, 1, 45, 0
3, 7416, Note_on_c, 1, 55, 64
3, 7439, Note_on_c, 1, 55, 0
3, 7440, Note_on_c, 1, 47, 64
3, 7463, Note_on_c, 1, 47, 0
3, 7464, Note_on_c, 1, 55, 64
3, 7487, Note_on_c, 1, 55, 0
3, 7488, Note_on_c, 1, 48, 64
3, 7511, Note_on_c, 1, 48, 0
3, 7512, Note_on_c, 1, 55, 64
3, 7535, Note_on_c, 1, 55, 0
3, 7536, Note_on_c, 1, 50, 64
3, 7559, Note_on_c, 1, 50, 0
3, 7560, Note_on_c, 1, 55, 64
3, 7583, Note_on_c, 1, 55, 0
3, 7584, Note_on_c, 1, 52, 64
3, 7629, Note_on_c, 1, 52, 0
3, 7632, Note_on_c, 1, 60, 64
3, 7677, Note_on_c, 1, 60, 0
3, 7680, Note_on_c, 1, 59, 64
3, 7725, Note_on_c, 1, 59, 0
3, 7728, Note_on_c, 1, 57, 64
3, 7773, Note_on_c, 1, 57, 0
3, 7776, Note_on_c, 1, 55, 64
3, 7821, Note_on_c, 1, 55, 0
3, 7824, Note_on_c, 1, 59, 64
3, 7869, Note_on_c, 1, 59, 0
3, 7872, Note_on_c, 1, 60, 64
3, 8005, Note_on_c, 1, 60, 0
3, 8016, Note_on_c, 1, 61, 64
3, 8061, Note_on_c, 1, 61, 0
3, 8064, Note_on_c, 1, 62, 64
3, 8109, Note_on_c, 1, 62, 0
3, 8112, Note_on_c, 1, 57, 64
3, 8157, Note_on_c, 1, 57, 0
3, 8160, Note_on_c, 1, 50, 64
3, 8205, Note_on_c, 1, 50, 0
3, 8256, Note_on_c, 1, 59, 64
3, 8256, Note_on_c, 1, 55, 64
3, 8345, Note_on_c, 1, 59, 0
3, 8345, Note_on_c, 1, 55, 0
3, 8496, Note_on_c, 1, 55, 75
3, 8496, Note_on_c, 1, 43, 75
3, 8516, Note_on_c, 1, 55, 0
3, 8516, Note_on_c, 1, 43, 0
3, 8544, Note_on_c, 1, 55, 75
3, 8544, Note_on_c, 1, 43, 75
3, 8633, Note_on_c, 1, 55, 0
3, 8633, Note_on_c, 1, 43, 0
3, 8688, Note_on_c, 1, 59, 69
3, 8688, Note_on_c, 1, 55, 69
3, 8708, Note_on_c, 1, 59, 0
3, 8708, Note_on_c, 1, 55, 0
3, 8736, Note_on_c, 1, 59, 69
3, 8736, Note_on_c, 1, 55, 69
3, 8825, Note_on_c, 1, 59, 0
3, 8825, Note_on_c, 1, 55, 0
3, 8880, Note_on_c, 1, 59, 69
3, 8880, Note_on_c, 1, 55, 69
3, 8900, Note_on_c, 1, 59, 0
3, 8900, Note_on_c, 1, 55, 0
3, 8928, Note_on_c, 1, 59, 69
3, 8928, Note_on_c, 1, 55, 69
3, 9017, Note_on_c, 1, 59, 0
3, 9017, Note_on_c, 1, 55, 0
3, 9024, Note_on_c, 1, 60, 69
3, 9024, Note_on_c, 1, 48, 69
3, 9113, Note_on_c, 1, 60, 0
3, 9113, Note_on_c, 1, 48, 0
3, 9120, Note_on_c, 1, 59, 69
3, 9120, Note_on_c, 1, 47, 69
3, 9209, Note_on_c, 1, 59, 0
3, 9209, Note_on_c, 1, 47, 0
3, 9216, Note_on_c, 1, 57, 69
3, 9261, Note_on_c, 1, 57, 0
3, 9264, Note_on_c, 1, 50, 69
3, 9309, Note_on_c, 1, 50, 0
3, 9312, Note_on_c, 1, 55, 69
3, 9401, Note_on_c, 1, 55, 0
3, 9408, Note_on_c, 1, 60, 69
3, 9541, Note_on_c, 1, 60, 0
3, 9552, Note_on_c, 1, 61, 69
3, 9597, Note_on_c, 1, 61, 0
3, 9600, Note_on_c, 1, 62, 69
3, 9645, Note_on_c, 1, 62, 0
3, 9648, Note_on_c, 1, 50, 69
3, 9693, Note_on_c, 1, 50, 0
3, 9696, Note_on_c, 1, 55, 69
3, 9741, Note_on_c, 1, 55, 0
3, 9744, Note_on_c, 1, 59, 69
3, 9789, Note_on_c, 1, 59, 0
3, 9792, Note_on_c, 1, 62, 69
3, 9837, Note_on_c, 1, 62, 0
3, 9840, Note_on_c, 1, 67, 69
3, 9885, Note_on_c, 1, 67, 0
3, 9888, Note_on_c, 1, 71, 69
3, 9933, Note_on_c, 1, 71, 0
3, 9936, Note_on_c, 1, 67, 69
3, 9981, Note_on_c, 1, 67, 0
3, 9984, Note_on_c, 1, 69, 69
3, 10029, Note_on_c, 1, 69, 0
3, 10032, Note_on_c, 1, 67, 69
3, 10077, Note_on_c, 1, 67, 0
3, 10080, Note_on_c, 1, 72, 69
3, 10125, Note_on_c, 1, 72, 0
3, 10128, Note_on_c, 1, 71, 69
3, 10173, Note_on_c, 1, 71, 0
3, 10176, Note_on_c, 1, 69, 69
3, 10221, Note_on_c, 1, 69, 0
3, 10224, Note_on_c, 1, 71, 69
3, 10269, Note_on_c, 1, 71, 0
3, 10272, Note_on_c, 1, 50, 69
3, 10317, Note_on_c, 1, 50, 0
3, 10320, Note_on_c, 1, 54, 69
3, 10365, Note_on_c, 1, 54, 0
3, 10368, Note_on_c, 1, 57, 69
3, 10413, Note_on_c, 1, 57, 0
3, 10416, Note_on_c, 1, 62, 69
3, 10461, Note_on_c, 1, 62, 0
3, 10464, Note_on_c, 1, 66, 69
3, 10509, Note_on_c, 1, 66, 0
3, 10512, Note_on_c, 1, 69, 69
3, 10557, Note_on_c, 1, 69, 0
3, 10560, Note_on_c, 1, 67, 69
3, 10649, Note_on_c, 1, 67, 0
3, 10656, Note_on_c, 1, 67, 69
3, 10656, Note_on_c, 1, 62, 69
3, 10704, Note_on_c, 1, 67, 0
3, 10704, Note_on_c, 1, 66, 69
3, 10749, Note_on_c, 1, 66, 0
3, 10749, Note_on_c, 1, 62, 0
3, 10752, Note_on_c, 1, 67, 69
3, 10797, Note_on_c, 1, 67, 0
3, 10800, Note_on_c, 1, 64, 69
3, 10823, Note_on_c, 1, 64, 0
3, 10824, Note_on_c, 1, 67, 69
3, 10847, Note_on_c, 1, 67, 0
3, 10848, Note_on_c, 1, 62, 69
3, 10871, Note_on_c, 1, 62, 0
3, 10872, Note_on_c, 1, 67, 69
3, 10895, Note_on_c, 1, 67, 0
3, 10896, Note_on_c, 1, 60, 69
3, 10919, Note_on_c, 1, 60, 0
3, 10920, Note_on_c, 1, 67, 69
3, 10943, Note_on_c, 1, 67, 0
3, 10944, Note_on_c, 1, 59, 69
3, 10989, Note_on_c, 1, 59, 0
3, 10992, Note_on_c, 1, 60, 69
3, 11037, Note_on_c, 1, 60, 0
3, 11040, Note_on_c, 1, 62, 69
3, 11085, Note_on_c, 1, 62, 0
3, 11088, Note_on_c, 1, 50, 69
3, 11133, Note_on_c, 1, 50, 0
3, 11136, Note_on_c, 1, 55, 69
3, 11181, Note_on_c, 1, 55, 0
3, 11184, Note_on_c, 1, 64, 69
3, 11207, Note_on_c, 1, 64, 0
3, 11208, Note_on_c, 1, 67, 69
3, 11231, Note_on_c, 1, 67, 0
3, 11232, Note_on_c, 1, 62, 69
3, 11255, Note_on_c, 1, 62, 0
3, 11256, Note_on_c, 1, 67, 69
3, 11279, Note_on_c, 1, 67, 0
3, 11280, Note_on_c, 1, 60, 69
3, 11303, Note_on_c, 1, 60, 0
3, 11304, Note_on_c, 1, 67, 69
3, 11327, Note_on_c, 1, 67, 0
3, 11328, Note_on_c, 1, 59, 69
3, 11373, Note_on_c, 1, 59, 0
3, 11376, Note_on_c, 1, 60, 69
3, 11421, Note_on_c, 1, 60, 0
3, 11424, Note_on_c, 1, 62, 69
3, 11469, Note_on_c, 1, 62, 0
3, 11472, Note_on_c, 1, 50, 69
3, 11517, Note_on_c, 1, 50, 0
3, 11520, Note_on_c, 1, 55, 69
3, 11565, Note_on_c, 1, 55, 0
3, 11568, Note_on_c, 1, 50, 69
3, 11613, Note_on_c, 1, 50, 0
3, 11616, Note_on_c, 1, 43, 69
3, 11661, Note_on_c, 1, 43, 0
3, 11760, Note_on_c, 1, 66, 64
3, 11805, Note_on_c, 1, 66, 0
3, 11808, Note_on_c, 1, 69, 64
3, 11853, Note_on_c, 1, 69, 0
3, 11856, Note_on_c, 1, 72, 64
3, 11901, Note_on_c, 1, 72, 0
3, 11904, Note_on_c, 1, 71, 64
3, 11949, Note_on_c, 1, 71, 0
3, 11952, Note_on_c, 1, 67, 64
3, 11997, Note_on_c, 1, 67, 0
3, 12000, Note_on_c, 1, 69, 64
3, 12045, Note_on_c, 1, 69, 0
3, 12048, Note_on_c, 1, 66, 64
3, 12093, Note_on_c, 1, 66, 0
3, 12096, Note_on_c, 1, 67, 64
3, 12141, Note_on_c, 1, 67, 0
3, 12144, Note_on_c, 1, 69, 64
3, 12189, Note_on_c, 1, 69, 0
3, 12192, Note_on_c, 1, 71, 64
3, 12237, Note_on_c, 1, 71, 0
3, 12336, Note_on_c, 1, 50, 64
3, 12359, Note_on_c, 1, 50, 0
3, 12360, Note_on_c, 1, 62, 64
3, 12383, Note_on_c, 1, 62, 0
3, 12384, Note_on_c, 1, 52, 64
3, 12407, Note_on_c, 1, 52, 0
3, 12408, Note_on_c, 1, 62, 64
3, 12431, Note_on_c, 1, 62, 0
3, 12432, Note_on_c, 1, 54, 64
3, 12455, Note_on_c, 1, 54, 0
3, 12456, Note_on_c, 1, 62, 64
3, 12479, Note_on_c, 1, 62, 0
3, 12480, Note_on_c, 1, 55, 64
3, 12503, Note_on_c, 1, 55, 0
3, 12504, Note_on_c, 1, 62, 64
3, 12527, Note_on_c, 1, 62, 0
3, 12528, Note_on_c, 1, 57, 64
3, 12551, Note_on_c, 1, 57, 0
3, 12552, Note_on_c, 1, 62, 64
3, 12575, Note_on_c, 1, 62, 0
3, 12576, Note_on_c, 1, 59, 64
3, 12621, Note_on_c, 1, 59, 0
3, 12720, Note_on_c, 1, 43, 64
3, 12743, Note_on_c, 1, 43, 0
3, 12744, Note_on_c, 1, 55, 64
3, 12767, Note_on_c, 1, 55, 0
3, 12768, Note_on_c, 1, 45, 64
3, 12791, Note_on_c, 1, 45, 0
3, 12792, Note_on_c, 1, 55, 64
3, 12815, Note_on_c, 1, 55, 0
3, 12816, Note_on_c, 1, 47, 64
3, 12839, Note_on_c, 1, 47, 0
3, 12840, Note_on_c, 1, 55, 64
3, 12863, Note_on_c, 1, 55, 0
3, 12864, Note_on_c, 1, 48, 64
3, 12887, Note_on_c, 1, 48, 0
3, 12888, Note_on_c, 1, 55, 64
3, 12911, Note_on_c, 1, 55, 0
3, 12912, Note_on_c, 1, 50, 64
3, 12935, Note_on_c, 1, 50, 0
3, 12936, Note_on_c, 1, 55, 64
3, 12959, Note_on_c, 1, 55, 0
3, 12960, Note_on_c, 1, 52, 64
3, 13005, Note_on_c, 1, 52, 0
3, 13008, Note_on_c, 1, 60, 64
3, 13053, Note_on_c, 1, 60, 0
3, 13056, Note_on_c, 1, 59, 64
3, 13101, Note_on_c, 1, 59, 0
3, 13104, Note_on_c, 1, 57, 64
3, 13149, Note_on_c, 1, 57, 0
3, 13152, Note_on_c, 1, 55, 64
3, 13197, Note_on_c, 1, 55, 0
3, 13200, Note_on_c, 1, 59, 64
3, 13245, Note_on_c, 1, 59, 0
3, 13248, Note_on_c, 1, 60, 64
3, 13381, Note_on_c, 1, 60, 0
3, 13392, Note_on_c, 1, 61, 64
3, 13437, Note_on_c, 1, 61, 0
3, 13440, Note_on_c, 1, 62, 64
3, 13485, Note_on_c, 1, 62, 0
3, 13488, Note_on_c, 1, 57, 64
3, 13533, Note_on_c, 1, 57, 0
3, 13536, Note_on_c, 1, 50, 64
3, 13581, Note_on_c, 1, 50, 0
3, 13632, Note_on_c, 1, 59, 64
3, 13632, Note_on_c, 1, 55, 64
3, 13721, Note_on_c, 1, 59, 0
3, 13721, Note_on_c, 1, 55, 0
3, 13872, Note_on_c, 1, 55, 75
3, 13872, Note_on_c, 1, 43, 75
3, 13892, Note_on_c, 1, 55, 0
3, 13892, Note_on_c, 1, 43, 0
3, 13920, Note_on_c, 1, 55, 75
3, 13920, Note_on_c, 1, 43, 75
3, 14009, Note_on_c, 1, 55, 0
3, 14009, Note_on_c, 1, 43, 0
3, 14064, Note_on_c, 1, 59, 69
3, 14064, Note_on_c, 1, 55, 69
3, 14084, Note_on_c, 1, 59, 0
3, 14084, Note_on_c, 1, 55, 0
3, 14112, Note_on_c, 1, 59, 69
3, 14112, Note_on_c, 1, 55, 69
3, 14201, Note_on_c, 1, 59, 0
3, 14201, Note_on_c, 1, 55, 0
3, 14256, Note_on_c, 1, 59, 69
3, 14256, Note_on_c, 1, 55, 69
3, 14276, Note_on_c, 1, 59, 0
3, 14276, Note_on_c, 1, 55, 0
3, 14304, Note_on_c, 1, 59, 69
3, 14304, Note_on_c, 1, 55, 69
3, 14393, Note_on_c, 1, 59, 0
3, 14393, Note_on_c, 1, 55, 0
3, 14400, Note_on_c, 1, 60, 69
3, 14400, Note_on_c, 1, 48, 69
3, 14489, Note_on_c, 1, 60, 0
3, 14489, Note_on_c, 1, 48, 0
3, 14496, Note_on_c, 1, 59, 69
3, 14496, Note_on_c, 1, 47, 69
3, 14585, Note_on_c, 1, 59, 0
3, 14585, Note_on_c, 1, 47, 0
3, 14592, Note_on_c, 1, 57, 69
3, 14637, Note_on_c, 1, 57, 0
3, 14640, Note_on_c, 1, 50, 69
3, 14685, Note_on_c, 1, 50, 0
3, 14688, Note_on_c, 1, 55, 69
3, 14777, Note_on_c, 1, 55, 0
3, 14784, Note_on_c, 1, 60, 69
3, 14917, Note_on_c, 1, 60, 0
3, 14928, Note_on_c, 1, 61, 69
3, 14973, Note_on_c, 1, 61, 0
3, 14976, Note_on_c, 1, 62, 69
3, 15021, Note_on_c, 1, 62, 0
3, 15024, Note_on_c, 1, 50, 69
3, 15069, Note_on_c, 1, 50, 0
3, 15072, Note_on_c, 1, 55, 69
3, 15117, Note_on_c, 1, 55, 0
3, 15120, Note_on_c, 1, 59, 69
3, 15165, Note_on_c, 1, 59, 0
3, 15168, Note_on_c, 1, 62, 69
3, 15213, Note_on_c, 1, 62, 0
3, 15216, Note_on_c, 1, 67, 69
3, 15261, Note_on_c, 1, 67, 0
3, 15264, Note_on_c, 1, 71, 69
3, 15309, Note_on_c, 1, 71, 0
3, 15312, Note_on_c, 1, 67, 69
3, 15357, Note_on_c, 1, 67, 0
3, 15360, Note_on_c, 1, 69, 69
3, 15405, Note_on_c, 1, 69, 0
3, 15408, Note_on_c, 1, 67, 69
3, 15453, Note_on_c, 1, 67, 0
3, 15456, Note_on_c, 1, 72, 69
3, 15501, Note_on_c, 1, 72, 0
3, 15504, Note_on_c, 1, 71, 69
3, 15549, Note_on_c, 1, 71, 0
3, 15552, Note_on_c, 1, 69, 69
3, 15597, Note_on_c, 1, 69, 0
3, 15600, Note_on_c, 1, 71, 69
3, 15645, Note_on_c, 1, 71, 0
3, 15648, Note_on_c, 1, 50, 69
3, 15693, Note_on_c, 1, 50, 0
3, 15696, Note_on_c, 1, 54, 69
3, 15741, Note_on_c, 1, 54, 0
3, 15744, Note_on_c, 1, 57, 69
3, 15789, Note_on_c, 1, 57, 0
3, 15792, Note_on_c, 1, 62, 69
3, 15837, Note_on_c, 1, 62, 0
3, 15840, Note_on_c, 1, 66, 69
3, 15885, Note_on_c, 1, 66, 0
3, 15888, Note_on_c, 1, 69, 69
3, 15933, Note_on_c, 1, 69, 0
3, 15936, Note_on_c, 1, 67, 69
3, 16025, Note_on_c, 1, 67, 0
3, 16032, Note_on_c, 1, 67, 69
3, 16032, Note_on_c, 1, 62, 69
3, 16080, Note_on_c, 1, 67, 0
3, 16080, Note_on_c, 1, 66, 69
3, 16125, Note_on_c, 1, 66, 0
3, 16125, Note_on_c, 1, 62, 0
3, 16128, Note_on_c, 1, 67, 69
3, 16173, Note_on_c, 1, 67, 0
3, 16176, Note_on_c, 1, 64, 69
3, 16199, Note_on_c, 1, 64, 0
3, 16200, Note_on_c, 1, 67, 69
3, 16223, Note_on_c, 1, 67, 0
3, 16224, Note_on_c, 1, 62, 69
3, 16247, Note_on_c, 1, 62, 0
3, 16248, Note_on_c, 1, 67, 69
3, 16271, Note_on_c, 1, 67, 0
3, 16272, Note_on_c, 1, 60, 69
3, 16295, Note_on_c, 1, 60, 0
3, 16296, Note_on_c, 1, 67, 69
3, 16319, Note_on_c, 1, 67, 0
3, 16320, Note_on_c, 1, 59, 69
3, 16365, Note_on_c, 1, 59, 0
3, 16368, Note_on_c, 1, 60, 69
3, 16413, Note_on_c, 1, 60, 0
3, 16416, Note_on_c, 1, 62, 69
3, 16461, Note_on_c, 1, 62, 0
3, 16464, Note_on_c, 1, 50, 69
3, 16509, Note_on_c, 1, 50, 0
3, 16512, Note_on_c, 1, 55, 69
3, 16557, Note_on_c, 1, 55, 0
3, 16560, Note_on_c, 1, 64, 69
3, 16583, Note_on_c, 1, 64, 0
3, 16584, Note_on_c, 1, 67, 69
3, 16607, Note_on_c, 1, 67, 0
3, 16608, Note_on_c, 1, 62, 69
3, 16631, Note_on_c, 1, 62, 0
3, 16632, Note_on_c, 1, 67, 69
3, 16655, Note_on_c, 1, 67, 0
3, 16656, Note_on_c, 1, 60, 69
3, 16679, Note_on_c, 1, 60, 0
3, 16680, Note_on_c, 1, 67, 69
3, 16703, Note_on_c, 1, 67, 0
3, 16704, Note_on_c, 1, 59, 69
3, 16749, Note_on_c, 1, 59, 0
3, 16752, Note_on_c, 1, 60, 69
3, 16797, Note_on_c, 1, 60, 0
3, 16800, Note_on_c, 1, 62, 69
3, 16845, Note_on_c, 1, 62, 0
3, 16848, Note_on_c, 1, 50, 69
3, 16893, Note_on_c, 1, 50, 0
3, 16896, Note_on_c, 1, 55, 69
3, 16941, Note_on_c, 1, 55, 0
3, 16944, Note_on_c, 1, 50, 69
3, 16989, Note_on_c, 1, 50, 0
3, 16992, Note_on_c, 1, 43, 69
3, 17037, Note_on_c, 1, 43, 0
3, 17088, Note_on_c, 1, 43, 4
3, 17265, Note_on_c, 1, 43, 0
3, 17280, End_track
4, 0, Start_track
4, 0, Program_c, 0, 0
4, 0, Control_c, 0, 7, 127
4, 0, Control_c, 0, 10, 64
4, 2592, Note_on_c, 0, 57, 64
4, 2681, Note_on_c, 0, 57, 0
4, 5664, Note_on_c, 0, 57, 64
4, 5753, Note_on_c, 0, 57, 0
4, 6336, Note_on_c, 0, 62, 64
4, 6853, Note_on_c, 0, 62, 0
4, 11712, Note_on_c, 0, 62, 64
4, 12229, Note_on_c, 0, 62, 0
4, 17280, End_track
5, 0, Start_track
5, 0, Title_t, "<No Title>"
5, 0, End_track
0, 0, End_of_file
