0, 0, Header, 1, 6, 96
1, 0, Start_track
1, 0, Copyright_t, "Copyright  2000 <copyright holder>"
1, 0, Text_t, "Sonata I\015\012"
1, 0, Text_t, "Haydn\015\012"
1, 0, Sequencer_specific, 16, 68, 87, 77, 90, 86, 82, 83, 78, 32, 55, 46, 48, 46, 56, 46, 48
1, 0, Time_signature, 3, 2, 24, 8
1, 0, Tempo, 461538
1, 0, Key_signature, 4, "major"
1, 9216, Key_signature, 1, "major"
1, 11520, Key_signature, 1, "major"
1, 17280, Key_signature, 4, "major"
1, 26496, Key_signature, 1, "major"
1, 28800, Key_signature, 1, "major"
1, 32832, Key_signature, 4, "major"
1, 42048, End_track
2, 0, Start_track
2, 0, Program_c, 0, 0
2, 0, Control_c, 0, 7, 127
2, 0, Control_c, 0, 10, 64
2, 0, Note_on_c, 0, 68, 75
2, 177, Note_on_c, 0, 68, 0
2, 192, Note_on_c, 0, 71, 75
2, 215, Note_on_c, 0, 71, 0
2, 216, Note_on_c, 0, 69, 75
2, 239, Note_on_c, 0, 69, 0
2, 240, Note_on_c, 0, 68, 75
2, 263, Note_on_c, 0, 68, 0
2, 264, Note_on_c, 0, 66, 75
2, 287, Note_on_c, 0, 66, 0
2, 288, Note_on_c, 0, 64, 75
2, 377, Note_on_c, 0, 64, 0
2, 384, Note_on_c, 0, 59, 75
2, 473, Note_on_c, 0, 59, 0
2, 480, Note_on_c, 0, 76, 75
2, 569, Note_on_c, 0, 76, 0
2, 576, Note_on_c, 0, 75, 75
2, 665, Note_on_c, 0, 75, 0
2, 672, Note_on_c, 0, 73, 75
2, 685, Note_on_c, 0, 73, 0
2, 686, Note_on_c, 0, 75, 75
2, 699, Note_on_c, 0, 75, 0
2, 700, Note_on_c, 0, 73, 75
2, 713, Note_on_c, 0, 73, 0
2, 714, Note_on_c, 0, 75, 75
2, 727, Note_on_c, 0, 75, 0
2, 728, Note_on_c, 0, 73, 75
2, 741, Note_on_c, 0, 73, 0
2, 742, Note_on_c, 0, 71, 75
2, 754, Note_on_c, 0, 71, 0
2, 755, Note_on_c, 0, 73, 75
2, 767, Note_on_c, 0, 73, 0
2, 768, Note_on_c, 0, 71, 75
2, 791, Note_on_c, 0, 71, 0
2, 792, Note_on_c, 0, 75, 76
2, 815, Note_on_c, 0, 75, 0
2, 816, Note_on_c, 0, 76, 78
2, 839, Note_on_c, 0, 76, 0
2, 840, Note_on_c, 0, 80, 80
2, 863, Note_on_c, 0, 80, 0
2, 864, Note_on_c, 0, 71, 79
2, 1027, Note_on_c, 0, 71, 0
2, 1032, Note_on_c, 0, 69, 75
2, 1038, Note_on_c, 0, 69, 0
2, 1038, Note_on_c, 0, 71, 75
2, 1044, Note_on_c, 0, 71, 0
2, 1044, Note_on_c, 0, 69, 75
2, 1055, Note_on_c, 0, 69, 0
2, 1056, Note_on_c, 0, 68, 75
2, 1095, Note_on_c, 0, 68, 0
2, 1152, Note_on_c, 0, 80, 75
2, 1315, Note_on_c, 0, 80, 0
2, 1320, Note_on_c, 0, 82, 79
2, 1343, Note_on_c, 0, 82, 0
2, 1344, Note_on_c, 0, 83, 80
2, 1367, Note_on_c, 0, 83, 0
2, 1368, Note_on_c, 0, 82, 78
2, 1391, Note_on_c, 0, 82, 0
2, 1392, Note_on_c, 0, 80, 77
2, 1415, Note_on_c, 0, 80, 0
2, 1416, Note_on_c, 0, 78, 76
2, 1439, Note_on_c, 0, 78, 0
2, 1440, Note_on_c, 0, 78, 75
2, 1529, Note_on_c, 0, 78, 0
2, 1536, Note_on_c, 0, 76, 75
2, 1549, Note_on_c, 0, 76, 0
2, 1550, Note_on_c, 0, 78, 75
2, 1563, Note_on_c, 0, 78, 0
2, 1564, Note_on_c, 0, 76, 75
2, 1577, Note_on_c, 0, 76, 0
2, 1578, Note_on_c, 0, 78, 75
2, 1591, Note_on_c, 0, 78, 0
2, 1592, Note_on_c, 0, 76, 75
2, 1605, Note_on_c, 0, 76, 0
2, 1606, Note_on_c, 0, 75, 75
2, 1618, Note_on_c, 0, 75, 0
2, 1619, Note_on_c, 0, 76, 75
2, 1631, Note_on_c, 0, 76, 0
2, 1632, Note_on_c, 0, 75, 75
2, 1721, Note_on_c, 0, 75, 0
2, 1728, Note_on_c, 0, 72, 75
2, 1751, Note_on_c, 0, 72, 0
2, 1752, Note_on_c, 0, 73, 77
2, 1775, Note_on_c, 0, 73, 0
2, 1776, Note_on_c, 0, 76, 80
2, 1799, Note_on_c, 0, 76, 0
2, 1800, Note_on_c, 0, 80, 79
2, 1823, Note_on_c, 0, 80, 0
2, 1824, Note_on_c, 0, 71, 79
2, 1863, Note_on_c, 0, 71, 0
2, 1920, Note_on_c, 0, 71, 77
2, 1944, Note_on_c, 0, 71, 0
2, 1944, Note_on_c, 0, 70, 77
2, 1968, Note_on_c, 0, 70, 0
2, 1968, Note_on_c, 0, 68, 77
2, 1992, Note_on_c, 0, 68, 0
2, 1992, Note_on_c, 0, 70, 77
2, 2016, Note_on_c, 0, 70, 0
2, 2016, Note_on_c, 0, 70, 75
2, 2208, Note_on_c, 0, 70, 0
2, 2208, Note_on_c, 0, 71, 70
2, 2247, Note_on_c, 0, 71, 0
2, 2304, Note_on_c, 0, 68, 75
2, 2481, Note_on_c, 0, 68, 0
2, 2496, Note_on_c, 0, 71, 75
2, 2519, Note_on_c, 0, 71, 0
2, 2520, Note_on_c, 0, 69, 75
2, 2543, Note_on_c, 0, 69, 0
2, 2544, Note_on_c, 0, 68, 75
2, 2567, Note_on_c, 0, 68, 0
2, 2568, Note_on_c, 0, 66, 75
2, 2591, Note_on_c, 0, 66, 0
2, 2592, Note_on_c, 0, 64, 75
2, 2681, Note_on_c, 0, 64, 0
2, 2688, Note_on_c, 0, 59, 75
2, 2777, Note_on_c, 0, 59, 0
2, 2784, Note_on_c, 0, 76, 75
2, 2873, Note_on_c, 0, 76, 0
2, 2880, Note_on_c, 0, 75, 75
2, 2969, Note_on_c, 0, 75, 0
2, 2976, Note_on_c, 0, 73, 75
2, 2989, Note_on_c, 0, 73, 0
2, 2990, Note_on_c, 0, 75, 75
2, 3003, Note_on_c, 0, 75, 0
2, 3004, Note_on_c, 0, 73, 75
2, 3017, Note_on_c, 0, 73, 0
2, 3018, Note_on_c, 0, 75, 75
2, 3031, Note_on_c, 0, 75, 0
2, 3032, Note_on_c, 0, 73, 75
2, 3045, Note_on_c, 0, 73, 0
2, 3046, Note_on_c, 0, 71, 75
2, 3058, Note_on_c, 0, 71, 0
2, 3059, Note_on_c, 0, 73, 75
2, 3071, Note_on_c, 0, 73, 0
2, 3072, Note_on_c, 0, 71, 75
2, 3095, Note_on_c, 0, 71, 0
2, 3096, Note_on_c, 0, 75, 76
2, 3119, Note_on_c, 0, 75, 0
2, 3120, Note_on_c, 0, 76, 78
2, 3143, Note_on_c, 0, 76, 0
2, 3144, Note_on_c, 0, 80, 80
2, 3167, Note_on_c, 0, 80, 0
2, 3168, Note_on_c, 0, 71, 79
2, 3331, Note_on_c, 0, 71, 0
2, 3336, Note_on_c, 0, 69, 75
2, 3342, Note_on_c, 0, 69, 0
2, 3342, Note_on_c, 0, 71, 75
2, 3348, Note_on_c, 0, 71, 0
2, 3348, Note_on_c, 0, 69, 75
2, 3359, Note_on_c, 0, 69, 0
2, 3360, Note_on_c, 0, 68, 75
2, 3399, Note_on_c, 0, 68, 0
2, 3456, Note_on_c, 0, 80, 75
2, 3619, Note_on_c, 0, 80, 0
2, 3624, Note_on_c, 0, 82, 79
2, 3647, Note_on_c, 0, 82, 0
2, 3648, Note_on_c, 0, 83, 80
2, 3671, Note_on_c, 0, 83, 0
2, 3672, Note_on_c, 0, 82, 78
2, 3695, Note_on_c, 0, 82, 0
2, 3696, Note_on_c, 0, 80, 77
2, 3719, Note_on_c, 0, 80, 0
2, 3720, Note_on_c, 0, 78, 76
2, 3743, Note_on_c, 0, 78, 0
2, 3744, Note_on_c, 0, 78, 75
2, 3833, Note_on_c, 0, 78, 0
2, 3840, Note_on_c, 0, 76, 75
2, 3853, Note_on_c, 0, 76, 0
2, 3854, Note_on_c, 0, 78, 75
2, 3867, Note_on_c, 0, 78, 0
2, 3868, Note_on_c, 0, 76, 75
2, 3881, Note_on_c, 0, 76, 0
2, 3882, Note_on_c, 0, 78, 75
2, 3895, Note_on_c, 0, 78, 0
2, 3896, Note_on_c, 0, 76, 75
2, 3909, Note_on_c, 0, 76, 0
2, 3910, Note_on_c, 0, 75, 75
2, 3922, Note_on_c, 0, 75, 0
2, 3923, Note_on_c, 0, 76, 75
2, 3935, Note_on_c, 0, 76, 0
2, 3936, Note_on_c, 0, 75, 75
2, 4025, Note_on_c, 0, 75, 0
2, 4032, Note_on_c, 0, 72, 75
2, 4055, Note_on_c, 0, 72, 0
2, 4056, Note_on_c, 0, 73, 77
2, 4079, Note_on_c, 0, 73, 0
2, 4080, Note_on_c, 0, 76, 80
2, 4103, Note_on_c, 0, 76, 0
2, 4104, Note_on_c, 0, 80, 79
2, 4127, Note_on_c, 0, 80, 0
2, 4128, Note_on_c, 0, 71, 79
2, 4167, Note_on_c, 0, 71, 0
2, 4224, Note_on_c, 0, 71, 77
2, 4248, Note_on_c, 0, 71, 0
2, 4248, Note_on_c, 0, 70, 77
2, 4272, Note_on_c, 0, 70, 0
2, 4272, Note_on_c, 0, 68, 77
2, 4296, Note_on_c, 0, 68, 0
2, 4296, Note_on_c, 0, 70, 77
2, 4320, Note_on_c, 0, 70, 0
2, 4320, Note_on_c, 0, 70, 75
2, 4512, Note_on_c, 0, 70, 0
2, 4512, Note_on_c, 0, 71, 70
2, 4551, Note_on_c, 0, 71, 0
2, 4608, Note_on_c, 0, 71, 75
2, 4749, Note_on_c, 0, 71, 0
2, 4752, Note_on_c, 0, 74, 79
2, 4775, Note_on_c, 0, 74, 0
2, 4776, Note_on_c, 0, 73, 80
2, 4799, Note_on_c, 0, 73, 0
2, 4800, Note_on_c, 0, 76, 79
2, 4823, Note_on_c, 0, 76, 0
2, 4824, Note_on_c, 0, 74, 78
2, 4847, Note_on_c, 0, 74, 0
2, 4848, Note_on_c, 0, 73, 77
2, 4871, Note_on_c, 0, 73, 0
2, 4872, Note_on_c, 0, 71, 76
2, 4895, Note_on_c, 0, 71, 0
2, 4896, Note_on_c, 0, 71, 75
2, 4992, Note_on_c, 0, 71, 0
2, 4992, Note_on_c, 0, 69, 75
2, 5059, Note_on_c, 0, 69, 0
2, 5064, Note_on_c, 0, 71, 76
2, 5076, Note_on_c, 0, 71, 0
2, 5076, Note_on_c, 0, 69, 76
2, 5088, Note_on_c, 0, 69, 0
2, 5088, Note_on_c, 0, 68, 76
2, 5155, Note_on_c, 0, 68, 0
2, 5160, Note_on_c, 0, 69, 77
2, 5172, Note_on_c, 0, 69, 0
2, 5172, Note_on_c, 0, 68, 77
2, 5184, Note_on_c, 0, 68, 0
2, 5184, Note_on_c, 0, 66, 77
2, 5273, Note_on_c, 0, 66, 0
2, 5280, Note_on_c, 0, 81, 78
2, 5292, Note_on_c, 0, 81, 0
2, 5292, Note_on_c, 0, 83, 78
2, 5304, Note_on_c, 0, 83, 0
2, 5304, Note_on_c, 0, 85, 94
2, 5376, Note_on_c, 0, 85, 0
2, 5376, Note_on_c, 0, 83, 79
2, 5399, Note_on_c, 0, 83, 0
2, 5400, Note_on_c, 0, 81, 79
2, 5423, Note_on_c, 0, 81, 0
2, 5424, Note_on_c, 0, 80, 79
2, 5447, Note_on_c, 0, 80, 0
2, 5448, Note_on_c, 0, 78, 79
2, 5471, Note_on_c, 0, 78, 0
2, 5472, Note_on_c, 0, 76, 80
2, 5561, Note_on_c, 0, 76, 0
2, 5568, Note_on_c, 0, 75, 78
2, 5657, Note_on_c, 0, 75, 0
2, 5664, Note_on_c, 0, 71, 76
2, 5937, Note_on_c, 0, 71, 0
2, 5952, Note_on_c, 0, 69, 78
2, 6041, Note_on_c, 0, 69, 0
2, 6048, Note_on_c, 0, 69, 80
2, 6056, Note_on_c, 0, 75, 80
2, 6064, Note_on_c, 0, 81, 80
2, 6144, Note_on_c, 0, 75, 0
2, 6144, Note_on_c, 0, 69, 0
2, 6167, Note_on_c, 0, 81, 0
2, 6168, Note_on_c, 0, 78, 80
2, 6191, Note_on_c, 0, 78, 0
2, 6192, Note_on_c, 0, 75, 80
2, 6215, Note_on_c, 0, 75, 0
2, 6216, Note_on_c, 0, 69, 80
2, 6239, Note_on_c, 0, 69, 0
2, 6240, Note_on_c, 0, 68, 80
2, 6279, Note_on_c, 0, 68, 0
2, 6336, Note_on_c, 0, 65, 80
2, 6359, Note_on_c, 0, 65, 0
2, 6360, Note_on_c, 0, 66, 80
2, 6383, Note_on_c, 0, 66, 0
2, 6384, Note_on_c, 0, 69, 82
2, 6407, Note_on_c, 0, 69, 0
2, 6408, Note_on_c, 0, 73, 84
2, 6431, Note_on_c, 0, 73, 0
2, 6432, Note_on_c, 0, 64, 86
2, 6471, Note_on_c, 0, 64, 0
2, 6528, Note_on_c, 0, 64, 84
2, 6552, Note_on_c, 0, 64, 0
2, 6552, Note_on_c, 0, 63, 84
2, 6576, Note_on_c, 0, 63, 0
2, 6576, Note_on_c, 0, 61, 84
2, 6600, Note_on_c, 0, 61, 0
2, 6600, Note_on_c, 0, 63, 84
2, 6624, Note_on_c, 0, 63, 0
2, 6624, Note_on_c, 0, 63, 83
2, 6816, Note_on_c, 0, 63, 0
2, 6816, Note_on_c, 0, 64, 70
2, 6855, Note_on_c, 0, 64, 0
2, 6912, Note_on_c, 0, 71, 75
2, 7053, Note_on_c, 0, 71, 0
2, 7056, Note_on_c, 0, 74, 79
2, 7079, Note_on_c, 0, 74, 0
2, 7080, Note_on_c, 0, 73, 80
2, 7103, Note_on_c, 0, 73, 0
2, 7104, Note_on_c, 0, 76, 79
2, 7127, Note_on_c, 0, 76, 0
2, 7128, Note_on_c, 0, 74, 78
2, 7151, Note_on_c, 0, 74, 0
2, 7152, Note_on_c, 0, 73, 77
2, 7175, Note_on_c, 0, 73, 0
2, 7176, Note_on_c, 0, 71, 76
2, 7199, Note_on_c, 0, 71, 0
2, 7200, Note_on_c, 0, 71, 75
2, 7296, Note_on_c, 0, 71, 0
2, 7296, Note_on_c, 0, 69, 75
2, 7363, Note_on_c, 0, 69, 0
2, 7368, Note_on_c, 0, 71, 76
2, 7380, Note_on_c, 0, 71, 0
2, 7380, Note_on_c, 0, 69, 76
2, 7392, Note_on_c, 0, 69, 0
2, 7392, Note_on_c, 0, 68, 76
2, 7459, Note_on_c, 0, 68, 0
2, 7464, Note_on_c, 0, 69, 77
2, 7476, Note_on_c, 0, 69, 0
2, 7476, Note_on_c, 0, 68, 77
2, 7488, Note_on_c, 0, 68, 0
2, 7488, Note_on_c, 0, 66, 77
2, 7577, Note_on_c, 0, 66, 0
2, 7584, Note_on_c, 0, 81, 78
2, 7596, Note_on_c, 0, 81, 0
2, 7596, Note_on_c, 0, 83, 78
2, 7608, Note_on_c, 0, 83, 0
2, 7608, Note_on_c, 0, 85, 94
2, 7680, Note_on_c, 0, 85, 0
2, 7680, Note_on_c, 0, 83, 79
2, 7703, Note_on_c, 0, 83, 0
2, 7704, Note_on_c, 0, 81, 79
2, 7727, Note_on_c, 0, 81, 0
2, 7728, Note_on_c, 0, 80, 79
2, 7751, Note_on_c, 0, 80, 0
2, 7752, Note_on_c, 0, 78, 79
2, 7775, Note_on_c, 0, 78, 0
2, 7776, Note_on_c, 0, 76, 80
2, 7865, Note_on_c, 0, 76, 0
2, 7872, Note_on_c, 0, 75, 78
2, 7961, Note_on_c, 0, 75, 0
2, 7968, Note_on_c, 0, 71, 76
2, 8241, Note_on_c, 0, 71, 0
2, 8256, Note_on_c, 0, 69, 78
2, 8345, Note_on_c, 0, 69, 0
2, 8352, Note_on_c, 0, 69, 80
2, 8360, Note_on_c, 0, 75, 80
2, 8368, Note_on_c, 0, 81, 80
2, 8448, Note_on_c, 0, 75, 0
2, 8448, Note_on_c, 0, 69, 0
2, 8471, Note_on_c, 0, 81, 0
2, 8472, Note_on_c, 0, 78, 80
2, 8495, Note_on_c, 0, 78, 0
2, 8496, Note_on_c, 0, 75, 80
2, 8519, Note_on_c, 0, 75, 0
2, 8520, Note_on_c, 0, 69, 80
2, 8543, Note_on_c, 0, 69, 0
2, 8544, Note_on_c, 0, 68, 80
2, 8583, Note_on_c, 0, 68, 0
2, 8640, Note_on_c, 0, 65, 80
2, 8663, Note_on_c, 0, 65, 0
2, 8664, Note_on_c, 0, 66, 80
2, 8687, Note_on_c, 0, 66, 0
2, 8688, Note_on_c, 0, 69, 82
2, 8711, Note_on_c, 0, 69, 0
2, 8712, Note_on_c, 0, 73, 84
2, 8735, Note_on_c, 0, 73, 0
2, 8736, Note_on_c, 0, 64, 86
2, 8775, Note_on_c, 0, 64, 0
2, 8832, Note_on_c, 0, 64, 84
2, 8856, Note_on_c, 0, 64, 0
2, 8856, Note_on_c, 0, 63, 84
2, 8880, Note_on_c, 0, 63, 0
2, 8880, Note_on_c, 0, 61, 84
2, 8904, Note_on_c, 0, 61, 0
2, 8904, Note_on_c, 0, 63, 84
2, 8928, Note_on_c, 0, 63, 0
2, 8928, Note_on_c, 0, 63, 83
2, 9120, Note_on_c, 0, 63, 0
2, 9120, Note_on_c, 0, 64, 70
2, 9159, Note_on_c, 0, 64, 0
2, 9264, Note_on_c, 0, 64, 80
2, 9287, Note_on_c, 0, 64, 0
2, 9288, Note_on_c, 0, 66, 80
2, 9311, Note_on_c, 0, 66, 0
2, 9312, Note_on_c, 0, 69, 80
2, 9335, Note_on_c, 0, 69, 0
2, 9336, Note_on_c, 0, 67, 80
2, 9359, Note_on_c, 0, 67, 0
2, 9360, Note_on_c, 0, 66, 80
2, 9383, Note_on_c, 0, 66, 0
2, 9384, Note_on_c, 0, 64, 80
2, 9407, Note_on_c, 0, 64, 0
2, 9408, Note_on_c, 0, 72, 80
2, 9437, Note_on_c, 0, 72, 0
2, 9480, Note_on_c, 0, 79, 80
2, 9503, Note_on_c, 0, 79, 0
2, 9504, Note_on_c, 0, 79, 80
2, 9600, Note_on_c, 0, 79, 0
2, 9600, Note_on_c, 0, 78, 80
2, 9681, Note_on_c, 0, 78, 0
2, 9696, Note_on_c, 0, 71, 80
2, 9735, Note_on_c, 0, 71, 0
2, 9840, Note_on_c, 0, 64, 80
2, 9863, Note_on_c, 0, 64, 0
2, 9864, Note_on_c, 0, 66, 80
2, 9887, Note_on_c, 0, 66, 0
2, 9888, Note_on_c, 0, 69, 80
2, 9911, Note_on_c, 0, 69, 0
2, 9912, Note_on_c, 0, 67, 80
2, 9935, Note_on_c, 0, 67, 0
2, 9936, Note_on_c, 0, 66, 80
2, 9959, Note_on_c, 0, 66, 0
2, 9960, Note_on_c, 0, 64, 80
2, 9983, Note_on_c, 0, 64, 0
2, 9984, Note_on_c, 0, 69, 80
2, 10013, Note_on_c, 0, 69, 0
2, 10056, Note_on_c, 0, 76, 80
2, 10079, Note_on_c, 0, 76, 0
2, 10080, Note_on_c, 0, 76, 80
2, 10176, Note_on_c, 0, 76, 0
2, 10176, Note_on_c, 0, 74, 80
2, 10257, Note_on_c, 0, 74, 0
2, 10272, Note_on_c, 0, 67, 80
2, 10311, Note_on_c, 0, 67, 0
2, 10416, Note_on_c, 0, 66, 80
2, 10439, Note_on_c, 0, 66, 0
2, 10440, Note_on_c, 0, 69, 80
2, 10463, Note_on_c, 0, 69, 0
2, 10464, Note_on_c, 0, 72, 80
2, 10487, Note_on_c, 0, 72, 0
2, 10488, Note_on_c, 0, 71, 80
2, 10511, Note_on_c, 0, 71, 0
2, 10512, Note_on_c, 0, 69, 80
2, 10535, Note_on_c, 0, 69, 0
2, 10536, Note_on_c, 0, 67, 80
2, 10559, Note_on_c, 0, 67, 0
2, 10560, Note_on_c, 0, 66, 80
2, 10583, Note_on_c, 0, 66, 0
2, 10584, Note_on_c, 0, 64, 80
2, 10607, Note_on_c, 0, 64, 0
2, 10608, Note_on_c, 0, 62, 80
2, 10631, Note_on_c, 0, 62, 0
2, 10632, Note_on_c, 0, 60, 80
2, 10655, Note_on_c, 0, 60, 0
2, 10656, Note_on_c, 0, 59, 80
2, 10676, Note_on_c, 0, 59, 0
2, 10704, Note_on_c, 0, 67, 81
2, 10727, Note_on_c, 0, 67, 0
2, 10728, Note_on_c, 0, 71, 81
2, 10751, Note_on_c, 0, 71, 0
2, 10752, Note_on_c, 0, 74, 82
2, 10775, Note_on_c, 0, 74, 0
2, 10776, Note_on_c, 0, 72, 82
2, 10799, Note_on_c, 0, 72, 0
2, 10800, Note_on_c, 0, 71, 83
2, 10823, Note_on_c, 0, 71, 0
2, 10824, Note_on_c, 0, 69, 83
2, 10847, Note_on_c, 0, 69, 0
2, 10848, Note_on_c, 0, 67, 84
2, 10871, Note_on_c, 0, 67, 0
2, 10872, Note_on_c, 0, 66, 84
2, 10895, Note_on_c, 0, 66, 0
2, 10896, Note_on_c, 0, 64, 85
2, 10919, Note_on_c, 0, 64, 0
2, 10920, Note_on_c, 0, 62, 85
2, 10943, Note_on_c, 0, 62, 0
2, 10944, Note_on_c, 0, 60, 86
2, 10989, Note_on_c, 0, 60, 0
2, 10992, Note_on_c, 0, 57, 86
2, 11015, Note_on_c, 0, 57, 0
2, 11016, Note_on_c, 0, 59, 86
2, 11039, Note_on_c, 0, 59, 0
2, 11040, Note_on_c, 0, 60, 86
2, 11050, Note_on_c, 0, 60, 0
2, 11064, Note_on_c, 0, 59, 86
2, 11087, Note_on_c, 0, 59, 0
2, 11088, Note_on_c, 0, 60, 86
2, 11111, Note_on_c, 0, 60, 0
2, 11112, Note_on_c, 0, 62, 86
2, 11135, Note_on_c, 0, 62, 0
2, 11136, Note_on_c, 0, 64, 86
2, 11146, Note_on_c, 0, 64, 0
2, 11160, Note_on_c, 0, 62, 86
2, 11183, Note_on_c, 0, 62, 0
2, 11184, Note_on_c, 0, 64, 86
2, 11207, Note_on_c, 0, 64, 0
2, 11208, Note_on_c, 0, 66, 86
2, 11231, Note_on_c, 0, 66, 0
2, 11232, Note_on_c, 0, 67, 86
2, 11321, Note_on_c, 0, 67, 0
2, 11328, Note_on_c, 0, 55, 86
2, 11417, Note_on_c, 0, 55, 0
2, 11568, Note_on_c, 0, 64, 80
2, 11591, Note_on_c, 0, 64, 0
2, 11592, Note_on_c, 0, 66, 80
2, 11615, Note_on_c, 0, 66, 0
2, 11616, Note_on_c, 0, 69, 80
2, 11639, Note_on_c, 0, 69, 0
2, 11640, Note_on_c, 0, 67, 80
2, 11663, Note_on_c, 0, 67, 0
2, 11664, Note_on_c, 0, 66, 80
2, 11687, Note_on_c, 0, 66, 0
2, 11688, Note_on_c, 0, 64, 80
2, 11711, Note_on_c, 0, 64, 0
2, 11712, Note_on_c, 0, 72, 80
2, 11741, Note_on_c, 0, 72, 0
2, 11784, Note_on_c, 0, 79, 80
2, 11807, Note_on_c, 0, 79, 0
2, 11808, Note_on_c, 0, 79, 80
2, 11904, Note_on_c, 0, 79, 0
2, 11904, Note_on_c, 0, 78, 80
2, 11985, Note_on_c, 0, 78, 0
2, 12000, Note_on_c, 0, 71, 80
2, 12039, Note_on_c, 0, 71, 0
2, 12144, Note_on_c, 0, 64, 80
2, 12167, Note_on_c, 0, 64, 0
2, 12168, Note_on_c, 0, 66, 80
2, 12191, Note_on_c, 0, 66, 0
2, 12192, Note_on_c, 0, 69, 80
2, 12215, Note_on_c, 0, 69, 0
2, 12216, Note_on_c, 0, 67, 80
2, 12239, Note_on_c, 0, 67, 0
2, 12240, Note_on_c, 0, 66, 80
2, 12263, Note_on_c, 0, 66, 0
2, 12264, Note_on_c, 0, 64, 80
2, 12287, Note_on_c, 0, 64, 0
2, 12288, Note_on_c, 0, 69, 80
2, 12317, Note_on_c, 0, 69, 0
2, 12360, Note_on_c, 0, 76, 80
2, 12383, Note_on_c, 0, 76, 0
2, 12384, Note_on_c, 0, 76, 80
2, 12480, Note_on_c, 0, 76, 0
2, 12480, Note_on_c, 0, 74, 80
2, 12561, Note_on_c, 0, 74, 0
2, 12576, Note_on_c, 0, 67, 80
2, 12615, Note_on_c, 0, 67, 0
2, 12720, Note_on_c, 0, 66, 80
2, 12743, Note_on_c, 0, 66, 0
2, 12744, Note_on_c, 0, 69, 80
2, 12767, Note_on_c, 0, 69, 0
2, 12768, Note_on_c, 0, 72, 80
2, 12791, Note_on_c, 0, 72, 0
2, 12792, Note_on_c, 0, 71, 80
2, 12815, Note_on_c, 0, 71, 0
2, 12816, Note_on_c, 0, 69, 80
2, 12839, Note_on_c, 0, 69, 0
2, 12840, Note_on_c, 0, 67, 80
2, 12863, Note_on_c, 0, 67, 0
2, 12864, Note_on_c, 0, 66, 80
2, 12887, Note_on_c, 0, 66, 0
2, 12888, Note_on_c, 0, 64, 80
2, 12911, Note_on_c, 0, 64, 0
2, 12912, Note_on_c, 0, 62, 80
2, 12935, Note_on_c, 0, 62, 0
2, 12936, Note_on_c, 0, 60, 80
2, 12959, Note_on_c, 0, 60, 0
2, 12960, Note_on_c, 0, 59, 80
2, 12980, Note_on_c, 0, 59, 0
2, 13008, Note_on_c, 0, 67, 81
2, 13031, Note_on_c, 0, 67, 0
2, 13032, Note_on_c, 0, 71, 81
2, 13055, Note_on_c, 0, 71, 0
2, 13056, Note_on_c, 0, 74, 82
2, 13079, Note_on_c, 0, 74, 0
2, 13080, Note_on_c, 0, 72, 82
2, 13103, Note_on_c, 0, 72, 0
2, 13104, Note_on_c, 0, 71, 83
2, 13127, Note_on_c, 0, 71, 0
2, 13128, Note_on_c, 0, 69, 83
2, 13151, Note_on_c, 0, 69, 0
2, 13152, Note_on_c, 0, 67, 84
2, 13175, Note_on_c, 0, 67, 0
2, 13176, Note_on_c, 0, 66, 84
2, 13199, Note_on_c, 0, 66, 0
2, 13200, Note_on_c, 0, 64, 85
2, 13223, Note_on_c, 0, 64, 0
2, 13224, Note_on_c, 0, 62, 85
2, 13247, Note_on_c, 0, 62, 0
2, 13248, Note_on_c, 0, 60, 86
2, 13293, Note_on_c, 0, 60, 0
2, 13296, Note_on_c, 0, 57, 86
2, 13319, Note_on_c, 0, 57, 0
2, 13320, Note_on_c, 0, 59, 86
2, 13343, Note_on_c, 0, 59, 0
2, 13344, Note_on_c, 0, 60, 86
2, 13354, Note_on_c, 0, 60, 0
2, 13368, Note_on_c, 0, 59, 86
2, 13391, Note_on_c, 0, 59, 0
2, 13392, Note_on_c, 0, 60, 86
2, 13415, Note_on_c, 0, 60, 0
2, 13416, Note_on_c, 0, 62, 86
2, 13439, Note_on_c, 0, 62, 0
2, 13440, Note_on_c, 0, 64, 86
2, 13450, Note_on_c, 0, 64, 0
2, 13464, Note_on_c, 0, 62, 86
2, 13487, Note_on_c, 0, 62, 0
2, 13488, Note_on_c, 0, 64, 86
2, 13511, Note_on_c, 0, 64, 0
2, 13512, Note_on_c, 0, 66, 86
2, 13535, Note_on_c, 0, 66, 0
2, 13536, Note_on_c, 0, 67, 86
2, 13625, Note_on_c, 0, 67, 0
2, 13632, Note_on_c, 0, 55, 86
2, 13721, Note_on_c, 0, 55, 0
2, 13872, Note_on_c, 0, 59, 80
2, 13895, Note_on_c, 0, 59, 0
2, 13896, Note_on_c, 0, 61, 79
2, 13919, Note_on_c, 0, 61, 0
2, 13920, Note_on_c, 0, 64, 79
2, 13943, Note_on_c, 0, 64, 0
2, 13944, Note_on_c, 0, 63, 79
2, 13967, Note_on_c, 0, 63, 0
2, 13968, Note_on_c, 0, 61, 78
2, 13991, Note_on_c, 0, 61, 0
2, 13992, Note_on_c, 0, 59, 78
2, 14015, Note_on_c, 0, 59, 0
2, 14016, Note_on_c, 0, 71, 78
2, 14016, Note_on_c, 0, 63, 78
2, 14055, Note_on_c, 0, 71, 0
2, 14055, Note_on_c, 0, 63, 0
2, 14160, Note_on_c, 0, 64, 76
2, 14183, Note_on_c, 0, 64, 0
2, 14184, Note_on_c, 0, 66, 76
2, 14207, Note_on_c, 0, 66, 0
2, 14208, Note_on_c, 0, 69, 75
2, 14231, Note_on_c, 0, 69, 0
2, 14232, Note_on_c, 0, 67, 75
2, 14255, Note_on_c, 0, 67, 0
2, 14256, Note_on_c, 0, 66, 75
2, 14279, Note_on_c, 0, 66, 0
2, 14280, Note_on_c, 0, 64, 74
2, 14303, Note_on_c, 0, 64, 0
2, 14304, Note_on_c, 0, 76, 74
2, 14304, Note_on_c, 0, 70, 74
2, 14343, Note_on_c, 0, 76, 0
2, 14343, Note_on_c, 0, 70, 0
2, 14448, Note_on_c, 0, 71, 72
2, 14471, Note_on_c, 0, 71, 0
2, 14472, Note_on_c, 0, 73, 72
2, 14495, Note_on_c, 0, 73, 0
2, 14496, Note_on_c, 0, 76, 72
2, 14519, Note_on_c, 0, 76, 0
2, 14520, Note_on_c, 0, 75, 72
2, 14543, Note_on_c, 0, 75, 0
2, 14544, Note_on_c, 0, 73, 71
2, 14567, Note_on_c, 0, 73, 0
2, 14568, Note_on_c, 0, 71, 71
2, 14591, Note_on_c, 0, 71, 0
2, 14592, Note_on_c, 0, 83, 71
2, 14592, Note_on_c, 0, 75, 71
2, 14631, Note_on_c, 0, 83, 0
2, 14631, Note_on_c, 0, 75, 0
2, 14736, Note_on_c, 0, 76, 69
2, 14759, Note_on_c, 0, 76, 0
2, 14760, Note_on_c, 0, 78, 69
2, 14783, Note_on_c, 0, 78, 0
2, 14784, Note_on_c, 0, 81, 68
2, 14807, Note_on_c, 0, 81, 0
2, 14808, Note_on_c, 0, 79, 68
2, 14831, Note_on_c, 0, 79, 0
2, 14832, Note_on_c, 0, 78, 68
2, 14855, Note_on_c, 0, 78, 0
2, 14856, Note_on_c, 0, 76, 67
2, 14879, Note_on_c, 0, 76, 0
2, 14880, Note_on_c, 0, 88, 67
2, 14880, Note_on_c, 0, 82, 67
2, 14919, Note_on_c, 0, 88, 0
2, 14919, Note_on_c, 0, 82, 0
2, 14976, Note_on_c, 0, 87, 66
2, 14976, Note_on_c, 0, 83, 66
2, 15015, Note_on_c, 0, 87, 0
2, 15015, Note_on_c, 0, 83, 0
2, 15168, Note_on_c, 0, 78, 64
2, 15168, Note_on_c, 0, 75, 64
2, 15207, Note_on_c, 0, 78, 0
2, 15207, Note_on_c, 0, 75, 0
2, 15264, Note_on_c, 0, 75, 64
2, 15264, Note_on_c, 0, 71, 64
2, 15303, Note_on_c, 0, 75, 0
2, 15303, Note_on_c, 0, 71, 0
2, 15600, Note_on_c, 0, 59, 80
2, 15623, Note_on_c, 0, 59, 0
2, 15624, Note_on_c, 0, 61, 79
2, 15647, Note_on_c, 0, 61, 0
2, 15648, Note_on_c, 0, 64, 79
2, 15671, Note_on_c, 0, 64, 0
2, 15672, Note_on_c, 0, 63, 79
2, 15695, Note_on_c, 0, 63, 0
2, 15696, Note_on_c, 0, 61, 78
2, 15719, Note_on_c, 0, 61, 0
2, 15720, Note_on_c, 0, 59, 78
2, 15743, Note_on_c, 0, 59, 0
2, 15744, Note_on_c, 0, 71, 78
2, 15744, Note_on_c, 0, 63, 78
2, 15783, Note_on_c, 0, 71, 0
2, 15783, Note_on_c, 0, 63, 0
2, 15888, Note_on_c, 0, 64, 76
2, 15911, Note_on_c, 0, 64, 0
2, 15912, Note_on_c, 0, 66, 76
2, 15935, Note_on_c, 0, 66, 0
2, 15936, Note_on_c, 0, 69, 75
2, 15959, Note_on_c, 0, 69, 0
2, 15960, Note_on_c, 0, 67, 75
2, 15983, Note_on_c, 0, 67, 0
2, 15984, Note_on_c, 0, 66, 75
2, 16007, Note_on_c, 0, 66, 0
2, 16008, Note_on_c, 0, 64, 74
2, 16031, Note_on_c, 0, 64, 0
2, 16032, Note_on_c, 0, 76, 74
2, 16032, Note_on_c, 0, 70, 74
2, 16071, Note_on_c, 0, 76, 0
2, 16071, Note_on_c, 0, 70, 0
2, 16176, Note_on_c, 0, 71, 72
2, 16199, Note_on_c, 0, 71, 0
2, 16200, Note_on_c, 0, 73, 72
2, 16223, Note_on_c, 0, 73, 0
2, 16224, Note_on_c, 0, 76, 72
2, 16247, Note_on_c, 0, 76, 0
2, 16248, Note_on_c, 0, 75, 72
2, 16271, Note_on_c, 0, 75, 0
2, 16272, Note_on_c, 0, 73, 71
2, 16295, Note_on_c, 0, 73, 0
2, 16296, Note_on_c, 0, 71, 71
2, 16319, Note_on_c, 0, 71, 0
2, 16320, Note_on_c, 0, 83, 71
2, 16320, Note_on_c, 0, 75, 71
2, 16359, Note_on_c, 0, 83, 0
2, 16359, Note_on_c, 0, 75, 0
2, 16464, Note_on_c, 0, 76, 69
2, 16487, Note_on_c, 0, 76, 0
2, 16488, Note_on_c, 0, 78, 69
2, 16511, Note_on_c, 0, 78, 0
2, 16512, Note_on_c, 0, 81, 68
2, 16535, Note_on_c, 0, 81, 0
2, 16536, Note_on_c, 0, 79, 68
2, 16559, Note_on_c, 0, 79, 0
2, 16560, Note_on_c, 0, 78, 68
2, 16583, Note_on_c, 0, 78, 0
2, 16584, Note_on_c, 0, 76, 67
2, 16607, Note_on_c, 0, 76, 0
2, 16608, Note_on_c, 0, 88, 67
2, 16608, Note_on_c, 0, 82, 67
2, 16647, Note_on_c, 0, 88, 0
2, 16647, Note_on_c, 0, 82, 0
2, 16704, Note_on_c, 0, 87, 66
2, 16704, Note_on_c, 0, 83, 66
2, 16743, Note_on_c, 0, 87, 0
2, 16743, Note_on_c, 0, 83, 0
2, 16896, Note_on_c, 0, 78, 64
2, 16896, Note_on_c, 0, 75, 64
2, 16935, Note_on_c, 0, 78, 0
2, 16935, Note_on_c, 0, 75, 0
2, 16992, Note_on_c, 0, 75, 64
2, 16992, Note_on_c, 0, 71, 64
2, 17031, Note_on_c, 0, 75, 0
2, 17031, Note_on_c, 0, 71, 0
2, 17280, Note_on_c, 0, 68, 75
2, 17457, Note_on_c, 0, 68, 0
2, 17472, Note_on_c, 0, 71, 75
2, 17495, Note_on_c, 0, 71, 0
2, 17496, Note_on_c, 0, 69, 75
2, 17519, Note_on_c, 0, 69, 0
2, 17520, Note_on_c, 0, 68, 75
2, 17543, Note_on_c, 0, 68, 0
2, 17544, Note_on_c, 0, 66, 75
2, 17567, Note_on_c, 0, 66, 0
2, 17568, Note_on_c, 0, 64, 75
2, 17657, Note_on_c, 0, 64, 0
2, 17664, Note_on_c, 0, 59, 75
2, 17753, Note_on_c, 0, 59, 0
2, 17760, Note_on_c, 0, 76, 75
2, 17849, Note_on_c, 0, 76, 0
2, 17856, Note_on_c, 0, 75, 75
2, 17945, Note_on_c, 0, 75, 0
2, 17952, Note_on_c, 0, 73, 75
2, 17965, Note_on_c, 0, 73, 0
2, 17966, Note_on_c, 0, 75, 75
2, 17979, Note_on_c, 0, 75, 0
2, 17980, Note_on_c, 0, 73, 75
2, 17993, Note_on_c, 0, 73, 0
2, 17994, Note_on_c, 0, 75, 75
2, 18007, Note_on_c, 0, 75, 0
2, 18008, Note_on_c, 0, 73, 75
2, 18021, Note_on_c, 0, 73, 0
2, 18022, Note_on_c, 0, 71, 75
2, 18034, Note_on_c, 0, 71, 0
2, 18035, Note_on_c, 0, 73, 75
2, 18047, Note_on_c, 0, 73, 0
2, 18048, Note_on_c, 0, 71, 75
2, 18071, Note_on_c, 0, 71, 0
2, 18072, Note_on_c, 0, 75, 76
2, 18095, Note_on_c, 0, 75, 0
2, 18096, Note_on_c, 0, 76, 78
2, 18119, Note_on_c, 0, 76, 0
2, 18120, Note_on_c, 0, 80, 80
2, 18143, Note_on_c, 0, 80, 0
2, 18144, Note_on_c, 0, 71, 79
2, 18307, Note_on_c, 0, 71, 0
2, 18312, Note_on_c, 0, 69, 75
2, 18318, Note_on_c, 0, 69, 0
2, 18318, Note_on_c, 0, 71, 75
2, 18324, Note_on_c, 0, 71, 0
2, 18324, Note_on_c, 0, 69, 75
2, 18335, Note_on_c, 0, 69, 0
2, 18336, Note_on_c, 0, 68, 75
2, 18375, Note_on_c, 0, 68, 0
2, 18432, Note_on_c, 0, 80, 75
2, 18595, Note_on_c, 0, 80, 0
2, 18600, Note_on_c, 0, 82, 79
2, 18623, Note_on_c, 0, 82, 0
2, 18624, Note_on_c, 0, 83, 80
2, 18647, Note_on_c, 0, 83, 0
2, 18648, Note_on_c, 0, 82, 78
2, 18671, Note_on_c, 0, 82, 0
2, 18672, Note_on_c, 0, 80, 77
2, 18695, Note_on_c, 0, 80, 0
2, 18696, Note_on_c, 0, 78, 76
2, 18719, Note_on_c, 0, 78, 0
2, 18720, Note_on_c, 0, 78, 75
2, 18809, Note_on_c, 0, 78, 0
2, 18816, Note_on_c, 0, 76, 75
2, 18829, Note_on_c, 0, 76, 0
2, 18830, Note_on_c, 0, 78, 75
2, 18843, Note_on_c, 0, 78, 0
2, 18844, Note_on_c, 0, 76, 75
2, 18857, Note_on_c, 0, 76, 0
2, 18858, Note_on_c, 0, 78, 75
2, 18871, Note_on_c, 0, 78, 0
2, 18872, Note_on_c, 0, 76, 75
2, 18885, Note_on_c, 0, 76, 0
2, 18886, Note_on_c, 0, 75, 75
2, 18898, Note_on_c, 0, 75, 0
2, 18899, Note_on_c, 0, 76, 75
2, 18911, Note_on_c, 0, 76, 0
2, 18912, Note_on_c, 0, 75, 75
2, 19001, Note_on_c, 0, 75, 0
2, 19008, Note_on_c, 0, 72, 75
2, 19031, Note_on_c, 0, 72, 0
2, 19032, Note_on_c, 0, 73, 77
2, 19055, Note_on_c, 0, 73, 0
2, 19056, Note_on_c, 0, 76, 80
2, 19079, Note_on_c, 0, 76, 0
2, 19080, Note_on_c, 0, 80, 79
2, 19103, Note_on_c, 0, 80, 0
2, 19104, Note_on_c, 0, 71, 79
2, 19143, Note_on_c, 0, 71, 0
2, 19200, Note_on_c, 0, 71, 77
2, 19224, Note_on_c, 0, 71, 0
2, 19224, Note_on_c, 0, 70, 77
2, 19248, Note_on_c, 0, 70, 0
2, 19248, Note_on_c, 0, 68, 77
2, 19272, Note_on_c, 0, 68, 0
2, 19272, Note_on_c, 0, 70, 77
2, 19296, Note_on_c, 0, 70, 0
2, 19296, Note_on_c, 0, 70, 75
2, 19296, Note_on_c, 0, 64, 75
2, 19488, Note_on_c, 0, 70, 0
2, 19488, Note_on_c, 0, 64, 0
2, 19488, Note_on_c, 0, 71, 70
2, 19488, Note_on_c, 0, 63, 70
2, 19527, Note_on_c, 0, 71, 0
2, 19527, Note_on_c, 0, 63, 0
2, 19608, Note_on_c, 0, 59, 70
2, 19631, Note_on_c, 0, 59, 0
2, 19632, Note_on_c, 0, 61, 70
2, 19655, Note_on_c, 0, 61, 0
2, 19656, Note_on_c, 0, 63, 70
2, 19679, Note_on_c, 0, 63, 0
2, 19680, Note_on_c, 0, 64, 70
2, 19703, Note_on_c, 0, 64, 0
2, 19704, Note_on_c, 0, 66, 70
2, 19727, Note_on_c, 0, 66, 0
2, 19728, Note_on_c, 0, 68, 70
2, 19751, Note_on_c, 0, 68, 0
2, 19752, Note_on_c, 0, 69, 70
2, 19775, Note_on_c, 0, 69, 0
2, 19776, Note_on_c, 0, 71, 70
2, 19799, Note_on_c, 0, 71, 0
2, 19800, Note_on_c, 0, 68, 70
2, 19823, Note_on_c, 0, 68, 0
2, 19824, Note_on_c, 0, 69, 70
2, 19847, Note_on_c, 0, 69, 0
2, 19848, Note_on_c, 0, 66, 70
2, 19871, Note_on_c, 0, 66, 0
2, 19872, Note_on_c, 0, 68, 70
2, 19895, Note_on_c, 0, 68, 0
2, 19896, Note_on_c, 0, 64, 70
2, 19919, Note_on_c, 0, 64, 0
2, 19920, Note_on_c, 0, 66, 70
2, 19943, Note_on_c, 0, 66, 0
2, 19944, Note_on_c, 0, 68, 70
2, 19967, Note_on_c, 0, 68, 0
2, 19968, Note_on_c, 0, 69, 70
2, 19991, Note_on_c, 0, 69, 0
2, 19992, Note_on_c, 0, 71, 70
2, 20015, Note_on_c, 0, 71, 0
2, 20016, Note_on_c, 0, 73, 70
2, 20039, Note_on_c, 0, 73, 0
2, 20040, Note_on_c, 0, 75, 70
2, 20063, Note_on_c, 0, 75, 0
2, 20064, Note_on_c, 0, 76, 70
2, 20093, Note_on_c, 0, 76, 0
2, 20136, Note_on_c, 0, 75, 70
2, 20159, Note_on_c, 0, 75, 0
2, 20160, Note_on_c, 0, 75, 70
2, 20205, Note_on_c, 0, 75, 0
2, 20208, Note_on_c, 0, 73, 70
2, 20220, Note_on_c, 0, 73, 0
2, 20220, Note_on_c, 0, 75, 70
2, 20232, Note_on_c, 0, 75, 0
2, 20232, Note_on_c, 0, 73, 70
2, 20253, Note_on_c, 0, 73, 0
2, 20256, Note_on_c, 0, 71, 75
2, 20279, Note_on_c, 0, 71, 0
2, 20280, Note_on_c, 0, 73, 75
2, 20303, Note_on_c, 0, 73, 0
2, 20304, Note_on_c, 0, 75, 76
2, 20327, Note_on_c, 0, 75, 0
2, 20328, Note_on_c, 0, 76, 77
2, 20351, Note_on_c, 0, 76, 0
2, 20352, Note_on_c, 0, 78, 78
2, 20375, Note_on_c, 0, 78, 0
2, 20376, Note_on_c, 0, 80, 79
2, 20399, Note_on_c, 0, 80, 0
2, 20400, Note_on_c, 0, 81, 80
2, 20423, Note_on_c, 0, 81, 0
2, 20424, Note_on_c, 0, 83, 79
2, 20447, Note_on_c, 0, 83, 0
2, 20448, Note_on_c, 0, 71, 79
2, 20611, Note_on_c, 0, 71, 0
2, 20616, Note_on_c, 0, 69, 76
2, 20622, Note_on_c, 0, 69, 0
2, 20622, Note_on_c, 0, 71, 76
2, 20628, Note_on_c, 0, 71, 0
2, 20628, Note_on_c, 0, 69, 76
2, 20639, Note_on_c, 0, 69, 0
2, 20640, Note_on_c, 0, 68, 76
2, 20679, Note_on_c, 0, 68, 0
2, 20736, Note_on_c, 0, 80, 75
2, 20899, Note_on_c, 0, 80, 0
2, 20904, Note_on_c, 0, 82, 75
2, 20927, Note_on_c, 0, 82, 0
2, 20928, Note_on_c, 0, 83, 75
2, 20951, Note_on_c, 0, 83, 0
2, 20952, Note_on_c, 0, 82, 75
2, 20975, Note_on_c, 0, 82, 0
2, 20976, Note_on_c, 0, 80, 75
2, 20999, Note_on_c, 0, 80, 0
2, 21000, Note_on_c, 0, 78, 75
2, 21023, Note_on_c, 0, 78, 0
2, 21024, Note_on_c, 0, 78, 75
2, 21047, Note_on_c, 0, 78, 0
2, 21048, Note_on_c, 0, 76, 75
2, 21071, Note_on_c, 0, 76, 0
2, 21072, Note_on_c, 0, 75, 76
2, 21095, Note_on_c, 0, 75, 0
2, 21096, Note_on_c, 0, 76, 77
2, 21119, Note_on_c, 0, 76, 0
2, 21120, Note_on_c, 0, 88, 94
2, 21264, Note_on_c, 0, 88, 0
2, 21264, Note_on_c, 0, 87, 84
2, 21309, Note_on_c, 0, 87, 0
2, 21360, Note_on_c, 0, 85, 84
2, 21405, Note_on_c, 0, 85, 0
2, 21408, Note_on_c, 0, 80, 82
2, 21453, Note_on_c, 0, 80, 0
2, 21456, Note_on_c, 0, 76, 80
2, 21501, Note_on_c, 0, 76, 0
2, 21504, Note_on_c, 0, 73, 78
2, 21571, Note_on_c, 0, 73, 0
2, 21576, Note_on_c, 0, 70, 75
2, 21599, Note_on_c, 0, 70, 0
2, 21600, Note_on_c, 0, 70, 75
2, 21792, Note_on_c, 0, 70, 0
2, 21792, Note_on_c, 0, 71, 70
2, 21831, Note_on_c, 0, 71, 0
2, 21888, Note_on_c, 0, 71, 75
2, 22029, Note_on_c, 0, 71, 0
2, 22032, Note_on_c, 0, 74, 78
2, 22055, Note_on_c, 0, 74, 0
2, 22056, Note_on_c, 0, 73, 79
2, 22079, Note_on_c, 0, 73, 0
2, 22080, Note_on_c, 0, 76, 80
2, 22103, Note_on_c, 0, 76, 0
2, 22104, Note_on_c, 0, 74, 78
2, 22127, Note_on_c, 0, 74, 0
2, 22128, Note_on_c, 0, 73, 77
2, 22151, Note_on_c, 0, 73, 0
2, 22152, Note_on_c, 0, 71, 76
2, 22175, Note_on_c, 0, 71, 0
2, 22176, Note_on_c, 0, 71, 75
2, 22272, Note_on_c, 0, 71, 0
2, 22272, Note_on_c, 0, 69, 75
2, 22339, Note_on_c, 0, 69, 0
2, 22344, Note_on_c, 0, 71, 76
2, 22356, Note_on_c, 0, 71, 0
2, 22356, Note_on_c, 0, 69, 76
2, 22368, Note_on_c, 0, 69, 0
2, 22368, Note_on_c, 0, 68, 76
2, 22435, Note_on_c, 0, 68, 0
2, 22440, Note_on_c, 0, 69, 77
2, 22452, Note_on_c, 0, 69, 0
2, 22452, Note_on_c, 0, 68, 77
2, 22464, Note_on_c, 0, 68, 0
2, 22464, Note_on_c, 0, 66, 77
2, 22553, Note_on_c, 0, 66, 0
2, 22560, Note_on_c, 0, 81, 78
2, 22572, Note_on_c, 0, 81, 0
2, 22572, Note_on_c, 0, 83, 78
2, 22584, Note_on_c, 0, 83, 0
2, 22584, Note_on_c, 0, 85, 94
2, 22656, Note_on_c, 0, 85, 0
2, 22656, Note_on_c, 0, 83, 79
2, 22679, Note_on_c, 0, 83, 0
2, 22680, Note_on_c, 0, 81, 79
2, 22703, Note_on_c, 0, 81, 0
2, 22704, Note_on_c, 0, 80, 79
2, 22727, Note_on_c, 0, 80, 0
2, 22728, Note_on_c, 0, 78, 79
2, 22751, Note_on_c, 0, 78, 0
2, 22752, Note_on_c, 0, 76, 80
2, 22841, Note_on_c, 0, 76, 0
2, 22848, Note_on_c, 0, 75, 78
2, 22937, Note_on_c, 0, 75, 0
2, 22944, Note_on_c, 0, 71, 76
2, 23217, Note_on_c, 0, 71, 0
2, 23232, Note_on_c, 0, 69, 78
2, 23321, Note_on_c, 0, 69, 0
2, 23328, Note_on_c, 0, 69, 80
2, 23336, Note_on_c, 0, 75, 80
2, 23344, Note_on_c, 0, 81, 80
2, 23424, Note_on_c, 0, 75, 0
2, 23424, Note_on_c, 0, 69, 0
2, 23447, Note_on_c, 0, 81, 0
2, 23448, Note_on_c, 0, 78, 80
2, 23471, Note_on_c, 0, 78, 0
2, 23472, Note_on_c, 0, 75, 80
2, 23495, Note_on_c, 0, 75, 0
2, 23496, Note_on_c, 0, 69, 80
2, 23519, Note_on_c, 0, 69, 0
2, 23520, Note_on_c, 0, 68, 80
2, 23559, Note_on_c, 0, 68, 0
2, 23616, Note_on_c, 0, 65, 80
2, 23639, Note_on_c, 0, 65, 0
2, 23640, Note_on_c, 0, 66, 82
2, 23663, Note_on_c, 0, 66, 0
2, 23664, Note_on_c, 0, 69, 84
2, 23687, Note_on_c, 0, 69, 0
2, 23688, Note_on_c, 0, 73, 86
2, 23711, Note_on_c, 0, 73, 0
2, 23712, Note_on_c, 0, 64, 85
2, 23751, Note_on_c, 0, 64, 0
2, 23808, Note_on_c, 0, 64, 82
2, 23832, Note_on_c, 0, 64, 0
2, 23832, Note_on_c, 0, 63, 82
2, 23856, Note_on_c, 0, 63, 0
2, 23856, Note_on_c, 0, 61, 82
2, 23880, Note_on_c, 0, 61, 0
2, 23880, Note_on_c, 0, 63, 82
2, 23904, Note_on_c, 0, 63, 0
2, 23904, Note_on_c, 0, 63, 80
2, 23904, Note_on_c, 0, 57, 80
2, 24096, Note_on_c, 0, 63, 0
2, 24096, Note_on_c, 0, 57, 0
2, 24096, Note_on_c, 0, 64, 70
2, 24135, Note_on_c, 0, 64, 0
2, 24192, Note_on_c, 0, 59, 75
2, 24311, Note_on_c, 0, 59, 0
2, 24312, Note_on_c, 0, 61, 76
2, 24335, Note_on_c, 0, 61, 0
2, 24336, Note_on_c, 0, 62, 77
2, 24359, Note_on_c, 0, 62, 0
2, 24360, Note_on_c, 0, 61, 78
2, 24383, Note_on_c, 0, 61, 0
2, 24384, Note_on_c, 0, 64, 80
2, 24407, Note_on_c, 0, 64, 0
2, 24408, Note_on_c, 0, 62, 78
2, 24431, Note_on_c, 0, 62, 0
2, 24432, Note_on_c, 0, 61, 77
2, 24455, Note_on_c, 0, 61, 0
2, 24456, Note_on_c, 0, 59, 76
2, 24479, Note_on_c, 0, 59, 0
2, 24480, Note_on_c, 0, 59, 75
2, 24503, Note_on_c, 0, 59, 0
2, 24504, Note_on_c, 0, 57, 75
2, 24527, Note_on_c, 0, 57, 0
2, 24528, Note_on_c, 0, 56, 75
2, 24551, Note_on_c, 0, 56, 0
2, 24552, Note_on_c, 0, 57, 75
2, 24575, Note_on_c, 0, 57, 0
2, 24576, Note_on_c, 0, 69, 75
2, 24709, Note_on_c, 0, 69, 0
2, 24720, Note_on_c, 0, 68, 77
2, 24765, Note_on_c, 0, 68, 0
2, 24768, Note_on_c, 0, 68, 77
2, 24791, Note_on_c, 0, 68, 0
2, 24792, Note_on_c, 0, 66, 77
2, 24815, Note_on_c, 0, 66, 0
2, 24816, Note_on_c, 0, 65, 77
2, 24839, Note_on_c, 0, 65, 0
2, 24840, Note_on_c, 0, 66, 78
2, 24863, Note_on_c, 0, 66, 0
2, 24864, Note_on_c, 0, 73, 78
2, 24953, Note_on_c, 0, 73, 0
2, 24960, Note_on_c, 0, 71, 79
2, 24983, Note_on_c, 0, 71, 0
2, 24984, Note_on_c, 0, 69, 79
2, 25007, Note_on_c, 0, 69, 0
2, 25008, Note_on_c, 0, 68, 79
2, 25031, Note_on_c, 0, 68, 0
2, 25032, Note_on_c, 0, 66, 79
2, 25055, Note_on_c, 0, 66, 0
2, 25056, Note_on_c, 0, 64, 80
2, 25152, Note_on_c, 0, 64, 0
2, 25152, Note_on_c, 0, 63, 80
2, 25233, Note_on_c, 0, 63, 0
2, 25248, Note_on_c, 0, 71, 78
2, 25521, Note_on_c, 0, 71, 0
2, 25536, Note_on_c, 0, 69, 75
2, 25625, Note_on_c, 0, 69, 0
2, 25632, Note_on_c, 0, 75, 80
2, 25655, Note_on_c, 0, 75, 0
2, 25656, Note_on_c, 0, 76, 80
2, 25679, Note_on_c, 0, 76, 0
2, 25680, Note_on_c, 0, 78, 81
2, 25703, Note_on_c, 0, 78, 0
2, 25704, Note_on_c, 0, 80, 81
2, 25727, Note_on_c, 0, 80, 0
2, 25728, Note_on_c, 0, 81, 82
2, 25751, Note_on_c, 0, 81, 0
2, 25752, Note_on_c, 0, 83, 82
2, 25775, Note_on_c, 0, 83, 0
2, 25776, Note_on_c, 0, 85, 83
2, 25799, Note_on_c, 0, 85, 0
2, 25800, Note_on_c, 0, 87, 83
2, 25823, Note_on_c, 0, 87, 0
2, 25824, Note_on_c, 0, 88, 84
2, 25863, Note_on_c, 0, 88, 0
2, 25968, Note_on_c, 0, 78, 84
2, 26013, Note_on_c, 0, 78, 0
2, 26016, Note_on_c, 0, 73, 82
2, 26061, Note_on_c, 0, 73, 0
2, 26064, Note_on_c, 0, 69, 81
2, 26109, Note_on_c, 0, 69, 0
2, 26112, Note_on_c, 0, 66, 79
2, 26179, Note_on_c, 0, 66, 0
2, 26184, Note_on_c, 0, 63, 77
2, 26207, Note_on_c, 0, 63, 0
2, 26208, Note_on_c, 0, 63, 76
2, 26400, Note_on_c, 0, 63, 0
2, 26400, Note_on_c, 0, 64, 64
2, 26489, Note_on_c, 0, 64, 0
2, 26496, Note_on_c, 0, 79, 80
2, 26761, Note_on_c, 0, 79, 0
2, 26784, Note_on_c, 0, 78, 80
2, 27049, Note_on_c, 0, 78, 0
2, 27072, Note_on_c, 0, 76, 80
2, 27337, Note_on_c, 0, 76, 0
2, 27360, Note_on_c, 0, 74, 80
2, 27625, Note_on_c, 0, 74, 0
2, 27648, Note_on_c, 0, 72, 80
2, 27913, Note_on_c, 0, 72, 0
2, 27936, Note_on_c, 0, 71, 80
2, 27936, Note_on_c, 0, 67, 80
2, 27936, Note_on_c, 0, 62, 80
2, 28216, Note_on_c, 0, 71, 0
2, 28216, Note_on_c, 0, 67, 0
2, 28216, Note_on_c, 0, 62, 0
2, 28272, Note_on_c, 0, 57, 80
2, 28295, Note_on_c, 0, 57, 0
2, 28296, Note_on_c, 0, 59, 80
2, 28319, Note_on_c, 0, 59, 0
2, 28320, Note_on_c, 0, 62, 80
2, 28343, Note_on_c, 0, 62, 0
2, 28344, Note_on_c, 0, 60, 80
2, 28367, Note_on_c, 0, 60, 0
2, 28368, Note_on_c, 0, 59, 80
2, 28391, Note_on_c, 0, 59, 0
2, 28392, Note_on_c, 0, 57, 80
2, 28415, Note_on_c, 0, 57, 0
2, 28416, Note_on_c, 0, 62, 80
2, 28483, Note_on_c, 0, 62, 0
2, 28488, Note_on_c, 0, 54, 80
2, 28511, Note_on_c, 0, 54, 0
2, 28512, Note_on_c, 0, 55, 80
2, 28601, Note_on_c, 0, 55, 0
2, 28800, Note_on_c, 0, 79, 80
2, 29065, Note_on_c, 0, 79, 0
2, 29088, Note_on_c, 0, 78, 80
2, 29353, Note_on_c, 0, 78, 0
2, 29376, Note_on_c, 0, 76, 80
2, 29641, Note_on_c, 0, 76, 0
2, 29664, Note_on_c, 0, 74, 80
2, 29929, Note_on_c, 0, 74, 0
2, 29952, Note_on_c, 0, 72, 80
2, 30217, Note_on_c, 0, 72, 0
2, 30240, Note_on_c, 0, 71, 80
2, 30240, Note_on_c, 0, 67, 80
2, 30240, Note_on_c, 0, 62, 80
2, 30520, Note_on_c, 0, 71, 0
2, 30520, Note_on_c, 0, 67, 0
2, 30520, Note_on_c, 0, 62, 0
2, 30576, Note_on_c, 0, 57, 80
2, 30599, Note_on_c, 0, 57, 0
2, 30600, Note_on_c, 0, 59, 80
2, 30623, Note_on_c, 0, 59, 0
2, 30624, Note_on_c, 0, 62, 80
2, 30647, Note_on_c, 0, 62, 0
2, 30648, Note_on_c, 0, 60, 80
2, 30671, Note_on_c, 0, 60, 0
2, 30672, Note_on_c, 0, 59, 80
2, 30695, Note_on_c, 0, 59, 0
2, 30696, Note_on_c, 0, 57, 80
2, 30719, Note_on_c, 0, 57, 0
2, 30720, Note_on_c, 0, 62, 80
2, 30787, Note_on_c, 0, 62, 0
2, 30792, Note_on_c, 0, 54, 80
2, 30815, Note_on_c, 0, 54, 0
2, 30816, Note_on_c, 0, 55, 80
2, 30905, Note_on_c, 0, 55, 0
2, 31104, Note_on_c, 0, 71, 80
2, 31104, Note_on_c, 0, 63, 80
2, 31193, Note_on_c, 0, 71, 0
2, 31193, Note_on_c, 0, 63, 0
2, 31344, Note_on_c, 0, 69, 76
2, 31344, Note_on_c, 0, 63, 76
2, 31392, Note_on_c, 0, 69, 0
2, 31392, Note_on_c, 0, 63, 0
2, 31392, Note_on_c, 0, 67, 76
2, 31392, Note_on_c, 0, 64, 76
2, 31481, Note_on_c, 0, 67, 0
2, 31481, Note_on_c, 0, 64, 0
2, 31632, Note_on_c, 0, 76, 73
2, 31632, Note_on_c, 0, 70, 73
2, 31680, Note_on_c, 0, 76, 0
2, 31680, Note_on_c, 0, 70, 0
2, 31680, Note_on_c, 0, 75, 72
2, 31680, Note_on_c, 0, 71, 72
2, 31769, Note_on_c, 0, 75, 0
2, 31769, Note_on_c, 0, 71, 0
2, 31920, Note_on_c, 0, 81, 69
2, 31920, Note_on_c, 0, 75, 69
2, 31968, Note_on_c, 0, 81, 0
2, 31968, Note_on_c, 0, 75, 0
2, 31968, Note_on_c, 0, 79, 68
2, 31968, Note_on_c, 0, 76, 68
2, 32057, Note_on_c, 0, 79, 0
2, 32057, Note_on_c, 0, 76, 0
2, 32208, Note_on_c, 0, 88, 65
2, 32208, Note_on_c, 0, 82, 65
2, 32256, Note_on_c, 0, 88, 0
2, 32256, Note_on_c, 0, 82, 0
2, 32256, Note_on_c, 0, 87, 65
2, 32256, Note_on_c, 0, 83, 65
2, 32345, Note_on_c, 0, 87, 0
2, 32345, Note_on_c, 0, 83, 0
2, 32832, Note_on_c, 0, 68, 75
2, 33009, Note_on_c, 0, 68, 0
2, 33024, Note_on_c, 0, 71, 75
2, 33047, Note_on_c, 0, 71, 0
2, 33048, Note_on_c, 0, 69, 75
2, 33071, Note_on_c, 0, 69, 0
2, 33072, Note_on_c, 0, 68, 75
2, 33095, Note_on_c, 0, 68, 0
2, 33096, Note_on_c, 0, 66, 75
2, 33119, Note_on_c, 0, 66, 0
2, 33120, Note_on_c, 0, 64, 75
2, 33209, Note_on_c, 0, 64, 0
2, 33216, Note_on_c, 0, 59, 75
2, 33305, Note_on_c, 0, 59, 0
2, 33312, Note_on_c, 0, 76, 75
2, 33401, Note_on_c, 0, 76, 0
2, 33408, Note_on_c, 0, 75, 75
2, 33497, Note_on_c, 0, 75, 0
2, 33504, Note_on_c, 0, 73, 75
2, 33517, Note_on_c, 0, 73, 0
2, 33518, Note_on_c, 0, 75, 75
2, 33531, Note_on_c, 0, 75, 0
2, 33532, Note_on_c, 0, 73, 75
2, 33545, Note_on_c, 0, 73, 0
2, 33546, Note_on_c, 0, 75, 75
2, 33559, Note_on_c, 0, 75, 0
2, 33560, Note_on_c, 0, 73, 75
2, 33573, Note_on_c, 0, 73, 0
2, 33574, Note_on_c, 0, 71, 75
2, 33586, Note_on_c, 0, 71, 0
2, 33587, Note_on_c, 0, 73, 75
2, 33599, Note_on_c, 0, 73, 0
2, 33600, Note_on_c, 0, 71, 75
2, 33623, Note_on_c, 0, 71, 0
2, 33624, Note_on_c, 0, 75, 76
2, 33647, Note_on_c, 0, 75, 0
2, 33648, Note_on_c, 0, 76, 78
2, 33671, Note_on_c, 0, 76, 0
2, 33672, Note_on_c, 0, 80, 80
2, 33695, Note_on_c, 0, 80, 0
2, 33696, Note_on_c, 0, 71, 79
2, 33859, Note_on_c, 0, 71, 0
2, 33864, Note_on_c, 0, 69, 75
2, 33870, Note_on_c, 0, 69, 0
2, 33870, Note_on_c, 0, 71, 75
2, 33876, Note_on_c, 0, 71, 0
2, 33876, Note_on_c, 0, 69, 75
2, 33887, Note_on_c, 0, 69, 0
2, 33888, Note_on_c, 0, 68, 75
2, 33927, Note_on_c, 0, 68, 0
2, 33984, Note_on_c, 0, 80, 75
2, 34147, Note_on_c, 0, 80, 0
2, 34152, Note_on_c, 0, 82, 79
2, 34175, Note_on_c, 0, 82, 0
2, 34176, Note_on_c, 0, 83, 80
2, 34199, Note_on_c, 0, 83, 0
2, 34200, Note_on_c, 0, 82, 78
2, 34223, Note_on_c, 0, 82, 0
2, 34224, Note_on_c, 0, 80, 77
2, 34247, Note_on_c, 0, 80, 0
2, 34248, Note_on_c, 0, 78, 76
2, 34271, Note_on_c, 0, 78, 0
2, 34272, Note_on_c, 0, 78, 75
2, 34361, Note_on_c, 0, 78, 0
2, 34368, Note_on_c, 0, 76, 75
2, 34381, Note_on_c, 0, 76, 0
2, 34382, Note_on_c, 0, 78, 75
2, 34395, Note_on_c, 0, 78, 0
2, 34396, Note_on_c, 0, 76, 75
2, 34409, Note_on_c, 0, 76, 0
2, 34410, Note_on_c, 0, 78, 75
2, 34423, Note_on_c, 0, 78, 0
2, 34424, Note_on_c, 0, 76, 75
2, 34437, Note_on_c, 0, 76, 0
2, 34438, Note_on_c, 0, 75, 75
2, 34450, Note_on_c, 0, 75, 0
2, 34451, Note_on_c, 0, 76, 75
2, 34463, Note_on_c, 0, 76, 0
2, 34464, Note_on_c, 0, 75, 75
2, 34553, Note_on_c, 0, 75, 0
2, 34560, Note_on_c, 0, 72, 75
2, 34583, Note_on_c, 0, 72, 0
2, 34584, Note_on_c, 0, 73, 76
2, 34607, Note_on_c, 0, 73, 0
2, 34608, Note_on_c, 0, 76, 78
2, 34631, Note_on_c, 0, 76, 0
2, 34632, Note_on_c, 0, 80, 80
2, 34655, Note_on_c, 0, 80, 0
2, 34656, Note_on_c, 0, 71, 79
2, 34695, Note_on_c, 0, 71, 0
2, 34752, Note_on_c, 0, 71, 75
2, 34776, Note_on_c, 0, 71, 0
2, 34776, Note_on_c, 0, 70, 75
2, 34800, Note_on_c, 0, 70, 0
2, 34800, Note_on_c, 0, 68, 75
2, 34824, Note_on_c, 0, 68, 0
2, 34824, Note_on_c, 0, 70, 75
2, 34848, Note_on_c, 0, 70, 0
2, 34848, Note_on_c, 0, 70, 75
2, 35040, Note_on_c, 0, 70, 0
2, 35040, Note_on_c, 0, 71, 70
2, 35079, Note_on_c, 0, 71, 0
2, 35184, Note_on_c, 0, 67, 75
2, 35229, Note_on_c, 0, 67, 0
2, 35232, Note_on_c, 0, 68, 77
2, 35277, Note_on_c, 0, 68, 0
2, 35280, Note_on_c, 0, 71, 80
2, 35325, Note_on_c, 0, 71, 0
2, 35328, Note_on_c, 0, 66, 78
2, 35373, Note_on_c, 0, 66, 0
2, 35376, Note_on_c, 0, 63, 76
2, 35469, Note_on_c, 0, 63, 0
2, 35472, Note_on_c, 0, 64, 75
2, 35517, Note_on_c, 0, 64, 0
2, 35520, Note_on_c, 0, 59, 76
2, 35565, Note_on_c, 0, 59, 0
2, 35568, Note_on_c, 0, 68, 76
2, 35613, Note_on_c, 0, 68, 0
2, 35616, Note_on_c, 0, 64, 77
2, 35661, Note_on_c, 0, 64, 0
2, 35664, Note_on_c, 0, 71, 78
2, 35709, Note_on_c, 0, 71, 0
2, 35712, Note_on_c, 0, 68, 78
2, 35757, Note_on_c, 0, 68, 0
2, 35760, Note_on_c, 0, 76, 79
2, 35805, Note_on_c, 0, 76, 0
2, 35808, Note_on_c, 0, 71, 80
2, 35853, Note_on_c, 0, 71, 0
2, 35856, Note_on_c, 0, 80, 79
2, 35901, Note_on_c, 0, 80, 0
2, 35904, Note_on_c, 0, 75, 79
2, 35949, Note_on_c, 0, 75, 0
2, 35952, Note_on_c, 0, 76, 78
2, 35997, Note_on_c, 0, 76, 0
2, 36000, Note_on_c, 0, 71, 78
2, 36045, Note_on_c, 0, 71, 0
2, 36048, Note_on_c, 0, 70, 77
2, 36137, Note_on_c, 0, 70, 0
2, 36144, Note_on_c, 0, 69, 76
2, 36233, Note_on_c, 0, 69, 0
2, 36240, Note_on_c, 0, 68, 75
2, 36285, Note_on_c, 0, 68, 0
2, 36336, Note_on_c, 0, 79, 75
2, 36381, Note_on_c, 0, 79, 0
2, 36384, Note_on_c, 0, 80, 76
2, 36429, Note_on_c, 0, 80, 0
2, 36432, Note_on_c, 0, 82, 77
2, 36477, Note_on_c, 0, 82, 0
2, 36480, Note_on_c, 0, 83, 78
2, 36525, Note_on_c, 0, 83, 0
2, 36528, Note_on_c, 0, 78, 80
2, 36621, Note_on_c, 0, 78, 0
2, 36624, Note_on_c, 0, 77, 78
2, 36713, Note_on_c, 0, 77, 0
2, 36720, Note_on_c, 0, 76, 77
2, 36809, Note_on_c, 0, 76, 0
2, 36816, Note_on_c, 0, 75, 75
2, 36861, Note_on_c, 0, 75, 0
2, 36912, Note_on_c, 0, 72, 75
2, 36957, Note_on_c, 0, 72, 0
2, 36960, Note_on_c, 0, 73, 77
2, 37005, Note_on_c, 0, 73, 0
2, 37008, Note_on_c, 0, 75, 80
2, 37053, Note_on_c, 0, 75, 0
2, 37056, Note_on_c, 0, 76, 78
2, 37123, Note_on_c, 0, 76, 0
2, 37128, Note_on_c, 0, 70, 75
2, 37151, Note_on_c, 0, 70, 0
2, 37152, Note_on_c, 0, 70, 75
2, 37344, Note_on_c, 0, 70, 0
2, 37344, Note_on_c, 0, 71, 70
2, 37383, Note_on_c, 0, 71, 0
2, 37440, Note_on_c, 0, 71, 75
2, 37581, Note_on_c, 0, 71, 0
2, 37584, Note_on_c, 0, 74, 78
2, 37607, Note_on_c, 0, 74, 0
2, 37608, Note_on_c, 0, 73, 79
2, 37631, Note_on_c, 0, 73, 0
2, 37632, Note_on_c, 0, 76, 80
2, 37655, Note_on_c, 0, 76, 0
2, 37656, Note_on_c, 0, 74, 78
2, 37679, Note_on_c, 0, 74, 0
2, 37680, Note_on_c, 0, 73, 77
2, 37703, Note_on_c, 0, 73, 0
2, 37704, Note_on_c, 0, 71, 76
2, 37727, Note_on_c, 0, 71, 0
2, 37728, Note_on_c, 0, 71, 75
2, 37824, Note_on_c, 0, 71, 0
2, 37824, Note_on_c, 0, 69, 75
2, 37891, Note_on_c, 0, 69, 0
2, 37896, Note_on_c, 0, 71, 76
2, 37908, Note_on_c, 0, 71, 0
2, 37908, Note_on_c, 0, 69, 76
2, 37920, Note_on_c, 0, 69, 0
2, 37920, Note_on_c, 0, 68, 76
2, 37987, Note_on_c, 0, 68, 0
2, 37992, Note_on_c, 0, 69, 77
2, 38004, Note_on_c, 0, 69, 0
2, 38004, Note_on_c, 0, 68, 77
2, 38016, Note_on_c, 0, 68, 0
2, 38016, Note_on_c, 0, 66, 77
2, 38105, Note_on_c, 0, 66, 0
2, 38112, Note_on_c, 0, 81, 78
2, 38124, Note_on_c, 0, 81, 0
2, 38124, Note_on_c, 0, 83, 78
2, 38136, Note_on_c, 0, 83, 0
2, 38136, Note_on_c, 0, 85, 94
2, 38208, Note_on_c, 0, 85, 0
2, 38208, Note_on_c, 0, 83, 79
2, 38231, Note_on_c, 0, 83, 0
2, 38232, Note_on_c, 0, 81, 79
2, 38255, Note_on_c, 0, 81, 0
2, 38256, Note_on_c, 0, 80, 79
2, 38279, Note_on_c, 0, 80, 0
2, 38280, Note_on_c, 0, 78, 79
2, 38303, Note_on_c, 0, 78, 0
2, 38304, Note_on_c, 0, 76, 80
2, 38393, Note_on_c, 0, 76, 0
2, 38400, Note_on_c, 0, 75, 78
2, 38489, Note_on_c, 0, 75, 0
2, 38496, Note_on_c, 0, 71, 76
2, 38769, Note_on_c, 0, 71, 0
2, 38784, Note_on_c, 0, 69, 78
2, 38873, Note_on_c, 0, 69, 0
2, 38880, Note_on_c, 0, 69, 80
2, 38888, Note_on_c, 0, 75, 80
2, 38896, Note_on_c, 0, 81, 80
2, 38976, Note_on_c, 0, 75, 0
2, 38976, Note_on_c, 0, 69, 0
2, 38999, Note_on_c, 0, 81, 0
2, 39000, Note_on_c, 0, 78, 80
2, 39023, Note_on_c, 0, 78, 0
2, 39024, Note_on_c, 0, 75, 80
2, 39047, Note_on_c, 0, 75, 0
2, 39048, Note_on_c, 0, 69, 80
2, 39071, Note_on_c, 0, 69, 0
2, 39072, Note_on_c, 0, 68, 80
2, 39111, Note_on_c, 0, 68, 0
2, 39168, Note_on_c, 0, 65, 80
2, 39191, Note_on_c, 0, 65, 0
2, 39192, Note_on_c, 0, 66, 82
2, 39215, Note_on_c, 0, 66, 0
2, 39216, Note_on_c, 0, 69, 84
2, 39239, Note_on_c, 0, 69, 0
2, 39240, Note_on_c, 0, 73, 86
2, 39263, Note_on_c, 0, 73, 0
2, 39264, Note_on_c, 0, 64, 85
2, 39303, Note_on_c, 0, 64, 0
2, 39360, Note_on_c, 0, 64, 84
2, 39384, Note_on_c, 0, 64, 0
2, 39384, Note_on_c, 0, 63, 84
2, 39408, Note_on_c, 0, 63, 0
2, 39408, Note_on_c, 0, 61, 84
2, 39432, Note_on_c, 0, 61, 0
2, 39432, Note_on_c, 0, 63, 84
2, 39456, Note_on_c, 0, 63, 0
2, 39456, Note_on_c, 0, 63, 82
2, 39456, Note_on_c, 0, 57, 82
2, 39648, Note_on_c, 0, 63, 0
2, 39648, Note_on_c, 0, 57, 0
2, 39648, Note_on_c, 0, 64, 70
2, 39687, Note_on_c, 0, 64, 0
2, 39792, Note_on_c, 0, 74, 75
2, 39837, Note_on_c, 0, 74, 0
2, 39840, Note_on_c, 0, 71, 77
2, 39885, Note_on_c, 0, 71, 0
2, 39888, Note_on_c, 0, 68, 80
2, 39933, Note_on_c, 0, 68, 0
2, 39936, Note_on_c, 0, 66, 78
2, 39981, Note_on_c, 0, 66, 0
2, 39984, Note_on_c, 0, 65, 76
2, 40077, Note_on_c, 0, 65, 0
2, 40080, Note_on_c, 0, 66, 75
2, 40125, Note_on_c, 0, 66, 0
2, 40128, Note_on_c, 0, 68, 75
2, 40173, Note_on_c, 0, 68, 0
2, 40176, Note_on_c, 0, 66, 75
2, 40221, Note_on_c, 0, 66, 0
2, 40224, Note_on_c, 0, 69, 75
2, 40269, Note_on_c, 0, 69, 0
2, 40272, Note_on_c, 0, 68, 75
2, 40317, Note_on_c, 0, 68, 0
2, 40320, Note_on_c, 0, 71, 75
2, 40365, Note_on_c, 0, 71, 0
2, 40368, Note_on_c, 0, 69, 75
2, 40413, Note_on_c, 0, 69, 0
2, 40416, Note_on_c, 0, 73, 75
2, 40461, Note_on_c, 0, 73, 0
2, 40464, Note_on_c, 0, 69, 75
2, 40509, Note_on_c, 0, 69, 0
2, 40512, Note_on_c, 0, 81, 75
2, 40560, Note_on_c, 0, 81, 0
2, 40560, Note_on_c, 0, 78, 75
2, 40605, Note_on_c, 0, 78, 0
2, 40608, Note_on_c, 0, 76, 75
2, 40656, Note_on_c, 0, 76, 0
2, 40656, Note_on_c, 0, 75, 75
2, 40701, Note_on_c, 0, 75, 0
2, 40704, Note_on_c, 0, 83, 75
2, 40752, Note_on_c, 0, 83, 0
2, 40752, Note_on_c, 0, 71, 75
2, 40797, Note_on_c, 0, 71, 0
2, 40800, Note_on_c, 0, 83, 75
2, 40848, Note_on_c, 0, 83, 0
2, 40848, Note_on_c, 0, 71, 75
2, 40893, Note_on_c, 0, 71, 0
2, 40896, Note_on_c, 0, 83, 76
2, 40944, Note_on_c, 0, 83, 0
2, 40944, Note_on_c, 0, 73, 76
2, 40989, Note_on_c, 0, 73, 0
2, 40992, Note_on_c, 0, 83, 77
2, 41040, Note_on_c, 0, 83, 0
2, 41040, Note_on_c, 0, 73, 77
2, 41085, Note_on_c, 0, 73, 0
2, 41088, Note_on_c, 0, 82, 78
2, 41136, Note_on_c, 0, 82, 0
2, 41136, Note_on_c, 0, 73, 78
2, 41181, Note_on_c, 0, 73, 0
2, 41184, Note_on_c, 0, 81, 79
2, 41232, Note_on_c, 0, 81, 0
2, 41232, Note_on_c, 0, 72, 80
2, 41277, Note_on_c, 0, 72, 0
2, 41280, Note_on_c, 0, 81, 79
2, 41328, Note_on_c, 0, 81, 0
2, 41328, Note_on_c, 0, 71, 78
2, 41373, Note_on_c, 0, 71, 0
2, 41376, Note_on_c, 0, 80, 77
2, 41424, Note_on_c, 0, 80, 0
2, 41424, Note_on_c, 0, 71, 76
2, 41469, Note_on_c, 0, 71, 0
2, 41472, Note_on_c, 0, 57, 80
2, 41495, Note_on_c, 0, 57, 0
2, 41496, Note_on_c, 0, 61, 80
2, 41508, Note_on_c, 0, 61, 0
2, 41508, Note_on_c, 0, 66, 81
2, 41520, Note_on_c, 0, 66, 0
2, 41520, Note_on_c, 0, 69, 81
2, 41532, Note_on_c, 0, 69, 0
2, 41532, Note_on_c, 0, 73, 81
2, 41544, Note_on_c, 0, 73, 0
2, 41544, Note_on_c, 0, 78, 82
2, 41556, Note_on_c, 0, 78, 0
2, 41556, Note_on_c, 0, 81, 82
2, 41568, Note_on_c, 0, 81, 0
2, 41568, Note_on_c, 0, 85, 99
2, 41664, Note_on_c, 0, 85, 0
2, 41664, Note_on_c, 0, 66, 75
2, 41672, Note_on_c, 0, 69, 75
2, 41680, Note_on_c, 0, 75, 75
2, 41757, Note_on_c, 0, 75, 0
2, 41757, Note_on_c, 0, 69, 0
2, 41757, Note_on_c, 0, 66, 0
2, 41760, Note_on_c, 0, 68, 75
2, 41768, Note_on_c, 0, 71, 75
2, 41776, Note_on_c, 0, 76, 75
2, 41941, Note_on_c, 0, 76, 0
2, 41941, Note_on_c, 0, 71, 0
2, 41941, Note_on_c, 0, 68, 0
2, 42048, End_track
3, 0, Start_track
3, 0, Program_c, 0, 0
3, 0, Control_c, 0, 7, 127
3, 0, Control_c, 0, 10, 64
3, 2016, Note_on_c, 0, 64, 64
3, 2193, Note_on_c, 0, 64, 0
3, 2208, Note_on_c, 0, 63, 70
3, 2297, Note_on_c, 0, 63, 0
3, 4320, Note_on_c, 0, 64, 64
3, 4497, Note_on_c, 0, 64, 0
3, 4512, Note_on_c, 0, 63, 70
3, 4601, Note_on_c, 0, 63, 0
3, 5760, Note_on_c, 0, 73, 75
3, 6025, Note_on_c, 0, 73, 0
3, 6528, Note_on_c, 0, 57, 80
3, 6617, Note_on_c, 0, 57, 0
3, 6624, Note_on_c, 0, 57, 84
3, 6801, Note_on_c, 0, 57, 0
3, 6816, Note_on_c, 0, 56, 70
3, 6905, Note_on_c, 0, 56, 0
3, 8064, Note_on_c, 0, 73, 75
3, 8329, Note_on_c, 0, 73, 0
3, 8832, Note_on_c, 0, 57, 80
3, 8921, Note_on_c, 0, 57, 0
3, 8928, Note_on_c, 0, 57, 84
3, 9105, Note_on_c, 0, 57, 0
3, 9120, Note_on_c, 0, 56, 70
3, 9209, Note_on_c, 0, 56, 0
3, 23040, Note_on_c, 0, 73, 75
3, 23305, Note_on_c, 0, 73, 0
3, 23808, Note_on_c, 0, 57, 126
3, 23897, Note_on_c, 0, 57, 0
3, 23904, Note_on_c, 0, 57, 86
3, 24081, Note_on_c, 0, 57, 0
3, 24096, Note_on_c, 0, 56, 70
3, 24185, Note_on_c, 0, 56, 0
3, 25344, Note_on_c, 0, 72, 75
3, 25367, Note_on_c, 0, 72, 0
3, 25368, Note_on_c, 0, 73, 75
3, 25391, Note_on_c, 0, 73, 0
3, 25392, Note_on_c, 0, 75, 76
3, 25415, Note_on_c, 0, 75, 0
3, 25416, Note_on_c, 0, 73, 77
3, 25439, Note_on_c, 0, 73, 0
3, 25440, Note_on_c, 0, 73, 78
3, 25617, Note_on_c, 0, 73, 0
3, 26496, Note_on_c, 0, 71, 80
3, 26673, Note_on_c, 0, 71, 0
3, 26688, Note_on_c, 0, 72, 80
3, 26961, Note_on_c, 0, 72, 0
3, 26976, Note_on_c, 0, 71, 80
3, 27065, Note_on_c, 0, 71, 0
3, 27072, Note_on_c, 0, 71, 80
3, 27249, Note_on_c, 0, 71, 0
3, 27264, Note_on_c, 0, 69, 80
3, 27537, Note_on_c, 0, 69, 0
3, 27552, Note_on_c, 0, 67, 80
3, 27641, Note_on_c, 0, 67, 0
3, 27648, Note_on_c, 0, 67, 80
3, 27825, Note_on_c, 0, 67, 0
3, 27840, Note_on_c, 0, 66, 80
3, 27929, Note_on_c, 0, 66, 0
3, 28800, Note_on_c, 0, 71, 80
3, 28977, Note_on_c, 0, 71, 0
3, 28992, Note_on_c, 0, 72, 80
3, 29265, Note_on_c, 0, 72, 0
3, 29280, Note_on_c, 0, 71, 80
3, 29369, Note_on_c, 0, 71, 0
3, 29376, Note_on_c, 0, 71, 80
3, 29553, Note_on_c, 0, 71, 0
3, 29568, Note_on_c, 0, 69, 80
3, 29841, Note_on_c, 0, 69, 0
3, 29856, Note_on_c, 0, 67, 80
3, 29945, Note_on_c, 0, 67, 0
3, 29952, Note_on_c, 0, 67, 80
3, 30129, Note_on_c, 0, 67, 0
3, 30144, Note_on_c, 0, 66, 80
3, 30233, Note_on_c, 0, 66, 0
3, 34752, Note_on_c, 0, 64, 80
3, 34841, Note_on_c, 0, 64, 0
3, 34848, Note_on_c, 0, 64, 80
3, 35025, Note_on_c, 0, 64, 0
3, 35040, Note_on_c, 0, 63, 70
3, 35129, Note_on_c, 0, 63, 0
3, 38592, Note_on_c, 0, 73, 75
3, 38857, Note_on_c, 0, 73, 0
3, 39360, Note_on_c, 0, 57, 126
3, 39449, Note_on_c, 0, 57, 0
3, 39456, Note_on_c, 0, 57, 112
3, 39633, Note_on_c, 0, 57, 0
3, 39648, Note_on_c, 0, 56, 86
3, 39737, Note_on_c, 0, 56, 0
3, 42048, End_track
4, 0, Start_track
4, 0, Program_c, 1, 0
4, 0, Control_c, 1, 7, 127
4, 0, Control_c, 1, 10, 64
4, 96, Note_on_c, 1, 59, 75
4, 96, Note_on_c, 1, 52, 75
4, 185, Note_on_c, 1, 59, 0
4, 185, Note_on_c, 1, 52, 0
4, 192, Note_on_c, 1, 57, 75
4, 192, Note_on_c, 1, 47, 75
4, 281, Note_on_c, 1, 57, 0
4, 281, Note_on_c, 1, 47, 0
4, 288, Note_on_c, 1, 56, 75
4, 288, Note_on_c, 1, 52, 75
4, 465, Note_on_c, 1, 56, 0
4, 465, Note_on_c, 1, 52, 0
4, 672, Note_on_c, 1, 64, 75
4, 672, Note_on_c, 1, 57, 75
4, 761, Note_on_c, 1, 64, 0
4, 761, Note_on_c, 1, 57, 0
4, 768, Note_on_c, 1, 64, 75
4, 768, Note_on_c, 1, 56, 75
4, 864, Note_on_c, 1, 56, 0
4, 953, Note_on_c, 1, 64, 0
4, 960, Note_on_c, 1, 63, 75
4, 1049, Note_on_c, 1, 63, 0
4, 1056, Note_on_c, 1, 64, 75
4, 1145, Note_on_c, 1, 64, 0
4, 1248, Note_on_c, 1, 71, 75
4, 1337, Note_on_c, 1, 71, 0
4, 1344, Note_on_c, 1, 71, 75
4, 1529, Note_on_c, 1, 71, 0
4, 1536, Note_on_c, 1, 70, 75
4, 1625, Note_on_c, 1, 70, 0
4, 1632, Note_on_c, 1, 71, 75
4, 1721, Note_on_c, 1, 71, 0
4, 1728, Note_on_c, 1, 68, 75
4, 1728, Note_on_c, 1, 64, 75
4, 1817, Note_on_c, 1, 68, 0
4, 1817, Note_on_c, 1, 64, 0
4, 1824, Note_on_c, 1, 63, 75
4, 1824, Note_on_c, 1, 54, 75
4, 1913, Note_on_c, 1, 63, 0
4, 1913, Note_on_c, 1, 54, 0
4, 1920, Note_on_c, 1, 61, 75
4, 1920, Note_on_c, 1, 54, 75
4, 2009, Note_on_c, 1, 61, 0
4, 2009, Note_on_c, 1, 54, 0
4, 2016, Note_on_c, 1, 59, 75
4, 2105, Note_on_c, 1, 59, 0
4, 2112, Note_on_c, 1, 54, 75
4, 2201, Note_on_c, 1, 54, 0
4, 2208, Note_on_c, 1, 47, 75
4, 2297, Note_on_c, 1, 47, 0
4, 2400, Note_on_c, 1, 59, 75
4, 2400, Note_on_c, 1, 52, 75
4, 2489, Note_on_c, 1, 59, 0
4, 2489, Note_on_c, 1, 52, 0
4, 2496, Note_on_c, 1, 57, 75
4, 2496, Note_on_c, 1, 47, 75
4, 2585, Note_on_c, 1, 57, 0
4, 2585, Note_on_c, 1, 47, 0
4, 2592, Note_on_c, 1, 56, 75
4, 2592, Note_on_c, 1, 52, 75
4, 2769, Note_on_c, 1, 56, 0
4, 2769, Note_on_c, 1, 52, 0
4, 2976, Note_on_c, 1, 64, 75
4, 2976, Note_on_c, 1, 57, 75
4, 3065, Note_on_c, 1, 64, 0
4, 3065, Note_on_c, 1, 57, 0
4, 3072, Note_on_c, 1, 64, 75
4, 3072, Note_on_c, 1, 56, 75
4, 3168, Note_on_c, 1, 56, 0
4, 3257, Note_on_c, 1, 64, 0
4, 3264, Note_on_c, 1, 63, 75
4, 3353, Note_on_c, 1, 63, 0
4, 3360, Note_on_c, 1, 64, 75
4, 3449, Note_on_c, 1, 64, 0
4, 3552, Note_on_c, 1, 71, 75
4, 3641, Note_on_c, 1, 71, 0
4, 3648, Note_on_c, 1, 71, 75
4, 3833, Note_on_c, 1, 71, 0
4, 3840, Note_on_c, 1, 70, 75
4, 3929, Note_on_c, 1, 70, 0
4, 3936, Note_on_c, 1, 71, 75
4, 4025, Note_on_c, 1, 71, 0
4, 4032, Note_on_c, 1, 68, 75
4, 4032, Note_on_c, 1, 64, 75
4, 4121, Note_on_c, 1, 68, 0
4, 4121, Note_on_c, 1, 64, 0
4, 4128, Note_on_c, 1, 63, 75
4, 4128, Note_on_c, 1, 54, 75
4, 4217, Note_on_c, 1, 63, 0
4, 4217, Note_on_c, 1, 54, 0
4, 4224, Note_on_c, 1, 61, 75
4, 4224, Note_on_c, 1, 54, 75
4, 4313, Note_on_c, 1, 61, 0
4, 4313, Note_on_c, 1, 54, 0
4, 4320, Note_on_c, 1, 59, 75
4, 4409, Note_on_c, 1, 59, 0
4, 4416, Note_on_c, 1, 54, 75
4, 4505, Note_on_c, 1, 54, 0
4, 4512, Note_on_c, 1, 47, 75
4, 4601, Note_on_c, 1, 47, 0
4, 4704, Note_on_c, 1, 59, 75
4, 4704, Note_on_c, 1, 56, 75
4, 4793, Note_on_c, 1, 59, 0
4, 4793, Note_on_c, 1, 56, 0
4, 4800, Note_on_c, 1, 62, 75
4, 4800, Note_on_c, 1, 53, 75
4, 4896, Note_on_c, 1, 53, 0
4, 4992, Note_on_c, 1, 62, 0
4, 4992, Note_on_c, 1, 61, 75
4, 5081, Note_on_c, 1, 61, 0
4, 5088, Note_on_c, 1, 59, 76
4, 5088, Note_on_c, 1, 56, 76
4, 5177, Note_on_c, 1, 59, 0
4, 5177, Note_on_c, 1, 56, 0
4, 5184, Note_on_c, 1, 57, 77
4, 5421, Note_on_c, 1, 57, 0
4, 5424, Note_on_c, 1, 58, 79
4, 5469, Note_on_c, 1, 58, 0
4, 5472, Note_on_c, 1, 59, 80
4, 5561, Note_on_c, 1, 59, 0
4, 5568, Note_on_c, 1, 47, 78
4, 5657, Note_on_c, 1, 47, 0
4, 5664, Note_on_c, 1, 63, 76
4, 5753, Note_on_c, 1, 63, 0
4, 5760, Note_on_c, 1, 64, 75
4, 5849, Note_on_c, 1, 64, 0
4, 5856, Note_on_c, 1, 65, 76
4, 5945, Note_on_c, 1, 65, 0
4, 5952, Note_on_c, 1, 66, 78
4, 6041, Note_on_c, 1, 66, 0
4, 6048, Note_on_c, 1, 59, 80
4, 6056, Note_on_c, 1, 63, 80
4, 6064, Note_on_c, 1, 66, 80
4, 6229, Note_on_c, 1, 66, 0
4, 6229, Note_on_c, 1, 63, 0
4, 6229, Note_on_c, 1, 59, 0
4, 6240, Note_on_c, 1, 64, 80
4, 6240, Note_on_c, 1, 61, 80
4, 6329, Note_on_c, 1, 64, 0
4, 6329, Note_on_c, 1, 61, 0
4, 6336, Note_on_c, 1, 61, 80
4, 6336, Note_on_c, 1, 57, 80
4, 6425, Note_on_c, 1, 61, 0
4, 6425, Note_on_c, 1, 57, 0
4, 6432, Note_on_c, 1, 56, 80
4, 6432, Note_on_c, 1, 47, 80
4, 6521, Note_on_c, 1, 56, 0
4, 6521, Note_on_c, 1, 47, 0
4, 6528, Note_on_c, 1, 54, 83
4, 6528, Note_on_c, 1, 47, 83
4, 6617, Note_on_c, 1, 54, 0
4, 6617, Note_on_c, 1, 47, 0
4, 6624, Note_on_c, 1, 52, 86
4, 6713, Note_on_c, 1, 52, 0
4, 6720, Note_on_c, 1, 47, 83
4, 6809, Note_on_c, 1, 47, 0
4, 6816, Note_on_c, 1, 40, 80
4, 6905, Note_on_c, 1, 40, 0
4, 7008, Note_on_c, 1, 59, 75
4, 7008, Note_on_c, 1, 56, 75
4, 7097, Note_on_c, 1, 59, 0
4, 7097, Note_on_c, 1, 56, 0
4, 7104, Note_on_c, 1, 62, 75
4, 7104, Note_on_c, 1, 53, 75
4, 7200, Note_on_c, 1, 53, 0
4, 7296, Note_on_c, 1, 62, 0
4, 7296, Note_on_c, 1, 61, 75
4, 7385, Note_on_c, 1, 61, 0
4, 7392, Note_on_c, 1, 59, 76
4, 7392, Note_on_c, 1, 56, 76
4, 7481, Note_on_c, 1, 59, 0
4, 7481, Note_on_c, 1, 56, 0
4, 7488, Note_on_c, 1, 57, 77
4, 7725, Note_on_c, 1, 57, 0
4, 7728, Note_on_c, 1, 58, 79
4, 7773, Note_on_c, 1, 58, 0
4, 7776, Note_on_c, 1, 59, 80
4, 7865, Note_on_c, 1, 59, 0
4, 7872, Note_on_c, 1, 47, 78
4, 7961, Note_on_c, 1, 47, 0
4, 7968, Note_on_c, 1, 63, 76
4, 8057, Note_on_c, 1, 63, 0
4, 8064, Note_on_c, 1, 64, 75
4, 8153, Note_on_c, 1, 64, 0
4, 8160, Note_on_c, 1, 65, 76
4, 8249, Note_on_c, 1, 65, 0
4, 8256, Note_on_c, 1, 66, 78
4, 8345, Note_on_c, 1, 66, 0
4, 8352, Note_on_c, 1, 59, 80
4, 8360, Note_on_c, 1, 63, 80
4, 8368, Note_on_c, 1, 66, 80
4, 8533, Note_on_c, 1, 66, 0
4, 8533, Note_on_c, 1, 63, 0
4, 8533, Note_on_c, 1, 59, 0
4, 8544, Note_on_c, 1, 64, 80
4, 8544, Note_on_c, 1, 61, 80
4, 8633, Note_on_c, 1, 64, 0
4, 8633, Note_on_c, 1, 61, 0
4, 8640, Note_on_c, 1, 61, 80
4, 8640, Note_on_c, 1, 57, 80
4, 8729, Note_on_c, 1, 61, 0
4, 8729, Note_on_c, 1, 57, 0
4, 8736, Note_on_c, 1, 56, 80
4, 8736, Note_on_c, 1, 47, 80
4, 8825, Note_on_c, 1, 56, 0
4, 8825, Note_on_c, 1, 47, 0
4, 8832, Note_on_c, 1, 54, 83
4, 8832, Note_on_c, 1, 47, 83
4, 8921, Note_on_c, 1, 54, 0
4, 8921, Note_on_c, 1, 47, 0
4, 8928, Note_on_c, 1, 52, 86
4, 9017, Note_on_c, 1, 52, 0
4, 9024, Note_on_c, 1, 47, 83
4, 9113, Note_on_c, 1, 47, 0
4, 9120, Note_on_c, 1, 40, 80
4, 9209, Note_on_c, 1, 40, 0
4, 9216, Note_on_c, 1, 52, 80
4, 9255, Note_on_c, 1, 52, 0
4, 9408, Note_on_c, 1, 64, 80
4, 9447, Note_on_c, 1, 64, 0
4, 9504, Note_on_c, 1, 62, 80
4, 9681, Note_on_c, 1, 62, 0
4, 9696, Note_on_c, 1, 50, 80
4, 9792, Note_on_c, 1, 50, 0
4, 9792, Note_on_c, 1, 48, 80
4, 9831, Note_on_c, 1, 48, 0
4, 9984, Note_on_c, 1, 60, 80
4, 10073, Note_on_c, 1, 60, 0
4, 10080, Note_on_c, 1, 59, 80
4, 10257, Note_on_c, 1, 59, 0
4, 10272, Note_on_c, 1, 47, 80
4, 10368, Note_on_c, 1, 47, 0
4, 10368, Note_on_c, 1, 45, 80
4, 10407, Note_on_c, 1, 45, 0
4, 10560, Note_on_c, 1, 50, 80
4, 10649, Note_on_c, 1, 50, 0
4, 10656, Note_on_c, 1, 43, 80
4, 10745, Note_on_c, 1, 43, 0
4, 10848, Note_on_c, 1, 47, 84
4, 10937, Note_on_c, 1, 47, 0
4, 10944, Note_on_c, 1, 48, 86
4, 10989, Note_on_c, 1, 48, 0
4, 10992, Note_on_c, 1, 45, 86
4, 11015, Note_on_c, 1, 45, 0
4, 11016, Note_on_c, 1, 47, 86
4, 11039, Note_on_c, 1, 47, 0
4, 11040, Note_on_c, 1, 48, 86
4, 11050, Note_on_c, 1, 48, 0
4, 11064, Note_on_c, 1, 47, 86
4, 11087, Note_on_c, 1, 47, 0
4, 11088, Note_on_c, 1, 48, 86
4, 11111, Note_on_c, 1, 48, 0
4, 11112, Note_on_c, 1, 50, 86
4, 11135, Note_on_c, 1, 50, 0
4, 11136, Note_on_c, 1, 52, 86
4, 11146, Note_on_c, 1, 52, 0
4, 11160, Note_on_c, 1, 50, 86
4, 11183, Note_on_c, 1, 50, 0
4, 11184, Note_on_c, 1, 52, 86
4, 11207, Note_on_c, 1, 52, 0
4, 11208, Note_on_c, 1, 54, 86
4, 11231, Note_on_c, 1, 54, 0
4, 11232, Note_on_c, 1, 55, 86
4, 11321, Note_on_c, 1, 55, 0
4, 11328, Note_on_c, 1, 43, 86
4, 11417, Note_on_c, 1, 43, 0
4, 11520, Note_on_c, 1, 52, 80
4, 11559, Note_on_c, 1, 52, 0
4, 11712, Note_on_c, 1, 64, 80
4, 11751, Note_on_c, 1, 64, 0
4, 11808, Note_on_c, 1, 62, 80
4, 11985, Note_on_c, 1, 62, 0
4, 12000, Note_on_c, 1, 50, 80
4, 12096, Note_on_c, 1, 50, 0
4, 12096, Note_on_c, 1, 48, 80
4, 12135, Note_on_c, 1, 48, 0
4, 12288, Note_on_c, 1, 60, 80
4, 12377, Note_on_c, 1, 60, 0
4, 12384, Note_on_c, 1, 59, 80
4, 12561, Note_on_c, 1, 59, 0
4, 12576, Note_on_c, 1, 47, 80
4, 12672, Note_on_c, 1, 47, 0
4, 12672, Note_on_c, 1, 45, 80
4, 12711, Note_on_c, 1, 45, 0
4, 12864, Note_on_c, 1, 50, 80
4, 12953, Note_on_c, 1, 50, 0
4, 12960, Note_on_c, 1, 43, 80
4, 13049, Note_on_c, 1, 43, 0
4, 13152, Note_on_c, 1, 47, 84
4, 13241, Note_on_c, 1, 47, 0
4, 13248, Note_on_c, 1, 48, 86
4, 13293, Note_on_c, 1, 48, 0
4, 13296, Note_on_c, 1, 45, 86
4, 13319, Note_on_c, 1, 45, 0
4, 13320, Note_on_c, 1, 47, 86
4, 13343, Note_on_c, 1, 47, 0
4, 13344, Note_on_c, 1, 48, 86
4, 13354, Note_on_c, 1, 48, 0
4, 13368, Note_on_c, 1, 47, 86
4, 13391, Note_on_c, 1, 47, 0
4, 13392, Note_on_c, 1, 48, 86
4, 13415, Note_on_c, 1, 48, 0
4, 13416, Note_on_c, 1, 50, 86
4, 13439, Note_on_c, 1, 50, 0
4, 13440, Note_on_c, 1, 52, 86
4, 13450, Note_on_c, 1, 52, 0
4, 13464, Note_on_c, 1, 50, 86
4, 13487, Note_on_c, 1, 50, 0
4, 13488, Note_on_c, 1, 52, 86
4, 13511, Note_on_c, 1, 52, 0
4, 13512, Note_on_c, 1, 54, 86
4, 13535, Note_on_c, 1, 54, 0
4, 13536, Note_on_c, 1, 55, 86
4, 13625, Note_on_c, 1, 55, 0
4, 13632, Note_on_c, 1, 43, 86
4, 13721, Note_on_c, 1, 43, 0
4, 13824, Note_on_c, 1, 47, 80
4, 13824, Note_on_c, 1, 35, 80
4, 13913, Note_on_c, 1, 47, 0
4, 13913, Note_on_c, 1, 35, 0
4, 14112, Note_on_c, 1, 47, 77
4, 14112, Note_on_c, 1, 35, 77
4, 14201, Note_on_c, 1, 47, 0
4, 14201, Note_on_c, 1, 35, 0
4, 14400, Note_on_c, 1, 47, 73
4, 14400, Note_on_c, 1, 35, 73
4, 14489, Note_on_c, 1, 47, 0
4, 14489, Note_on_c, 1, 35, 0
4, 14688, Note_on_c, 1, 47, 70
4, 14688, Note_on_c, 1, 35, 70
4, 14777, Note_on_c, 1, 47, 0
4, 14777, Note_on_c, 1, 35, 0
4, 15552, Note_on_c, 1, 47, 80
4, 15552, Note_on_c, 1, 35, 80
4, 15641, Note_on_c, 1, 47, 0
4, 15641, Note_on_c, 1, 35, 0
4, 15840, Note_on_c, 1, 47, 77
4, 15840, Note_on_c, 1, 35, 77
4, 15929, Note_on_c, 1, 47, 0
4, 15929, Note_on_c, 1, 35, 0
4, 16128, Note_on_c, 1, 47, 73
4, 16128, Note_on_c, 1, 35, 73
4, 16217, Note_on_c, 1, 47, 0
4, 16217, Note_on_c, 1, 35, 0
4, 16416, Note_on_c, 1, 47, 70
4, 16416, Note_on_c, 1, 35, 70
4, 16505, Note_on_c, 1, 47, 0
4, 16505, Note_on_c, 1, 35, 0
4, 17376, Note_on_c, 1, 59, 75
4, 17376, Note_on_c, 1, 52, 75
4, 17465, Note_on_c, 1, 59, 0
4, 17465, Note_on_c, 1, 52, 0
4, 17472, Note_on_c, 1, 57, 75
4, 17472, Note_on_c, 1, 47, 75
4, 17561, Note_on_c, 1, 57, 0
4, 17561, Note_on_c, 1, 47, 0
4, 17568, Note_on_c, 1, 56, 75
4, 17568, Note_on_c, 1, 52, 75
4, 17745, Note_on_c, 1, 56, 0
4, 17745, Note_on_c, 1, 52, 0
4, 17952, Note_on_c, 1, 64, 75
4, 17952, Note_on_c, 1, 57, 75
4, 18041, Note_on_c, 1, 64, 0
4, 18041, Note_on_c, 1, 57, 0
4, 18048, Note_on_c, 1, 64, 75
4, 18048, Note_on_c, 1, 56, 75
4, 18144, Note_on_c, 1, 56, 0
4, 18233, Note_on_c, 1, 64, 0
4, 18240, Note_on_c, 1, 63, 75
4, 18329, Note_on_c, 1, 63, 0
4, 18336, Note_on_c, 1, 64, 75
4, 18425, Note_on_c, 1, 64, 0
4, 18528, Note_on_c, 1, 71, 75
4, 18617, Note_on_c, 1, 71, 0
4, 18624, Note_on_c, 1, 71, 75
4, 18809, Note_on_c, 1, 71, 0
4, 18816, Note_on_c, 1, 70, 75
4, 18905, Note_on_c, 1, 70, 0
4, 18912, Note_on_c, 1, 71, 75
4, 19001, Note_on_c, 1, 71, 0
4, 19008, Note_on_c, 1, 68, 75
4, 19008, Note_on_c, 1, 64, 75
4, 19097, Note_on_c, 1, 68, 0
4, 19097, Note_on_c, 1, 64, 0
4, 19104, Note_on_c, 1, 63, 75
4, 19104, Note_on_c, 1, 54, 75
4, 19193, Note_on_c, 1, 63, 0
4, 19193, Note_on_c, 1, 54, 0
4, 19200, Note_on_c, 1, 61, 75
4, 19200, Note_on_c, 1, 54, 75
4, 19289, Note_on_c, 1, 61, 0
4, 19289, Note_on_c, 1, 54, 0
4, 19296, Note_on_c, 1, 59, 75
4, 19385, Note_on_c, 1, 59, 0
4, 19392, Note_on_c, 1, 54, 75
4, 19481, Note_on_c, 1, 54, 0
4, 19488, Note_on_c, 1, 47, 75
4, 19577, Note_on_c, 1, 47, 0
4, 19584, Note_on_c, 1, 56, 75
4, 19584, Note_on_c, 1, 52, 75
4, 19673, Note_on_c, 1, 56, 0
4, 19673, Note_on_c, 1, 52, 0
4, 19776, Note_on_c, 1, 57, 75
4, 19776, Note_on_c, 1, 47, 75
4, 19865, Note_on_c, 1, 57, 0
4, 19865, Note_on_c, 1, 47, 0
4, 19872, Note_on_c, 1, 56, 75
4, 19872, Note_on_c, 1, 52, 75
4, 19961, Note_on_c, 1, 56, 0
4, 19961, Note_on_c, 1, 52, 0
4, 20160, Note_on_c, 1, 57, 75
4, 20249, Note_on_c, 1, 57, 0
4, 20256, Note_on_c, 1, 56, 75
4, 20345, Note_on_c, 1, 56, 0
4, 20544, Note_on_c, 1, 63, 75
4, 20544, Note_on_c, 1, 54, 75
4, 20633, Note_on_c, 1, 63, 0
4, 20633, Note_on_c, 1, 54, 0
4, 20640, Note_on_c, 1, 64, 75
4, 20640, Note_on_c, 1, 52, 75
4, 20729, Note_on_c, 1, 64, 0
4, 20729, Note_on_c, 1, 52, 0
4, 20832, Note_on_c, 1, 71, 75
4, 20832, Note_on_c, 1, 64, 75
4, 20921, Note_on_c, 1, 71, 0
4, 20921, Note_on_c, 1, 64, 0
4, 20928, Note_on_c, 1, 71, 75
4, 20928, Note_on_c, 1, 63, 75
4, 21024, Note_on_c, 1, 63, 0
4, 21113, Note_on_c, 1, 71, 0
4, 21120, Note_on_c, 1, 70, 76
4, 21209, Note_on_c, 1, 70, 0
4, 21216, Note_on_c, 1, 71, 78
4, 21305, Note_on_c, 1, 71, 0
4, 21312, Note_on_c, 1, 68, 80
4, 21312, Note_on_c, 1, 64, 80
4, 21401, Note_on_c, 1, 68, 0
4, 21401, Note_on_c, 1, 64, 0
4, 21504, Note_on_c, 1, 54, 76
4, 21593, Note_on_c, 1, 54, 0
4, 21600, Note_on_c, 1, 59, 75
4, 21865, Note_on_c, 1, 59, 0
4, 21984, Note_on_c, 1, 56, 77
4, 22073, Note_on_c, 1, 56, 0
4, 22080, Note_on_c, 1, 53, 80
4, 22169, Note_on_c, 1, 53, 0
4, 22176, Note_on_c, 1, 54, 75
4, 22353, Note_on_c, 1, 54, 0
4, 22368, Note_on_c, 1, 56, 76
4, 22457, Note_on_c, 1, 56, 0
4, 22464, Note_on_c, 1, 57, 77
4, 22701, Note_on_c, 1, 57, 0
4, 22704, Note_on_c, 1, 58, 79
4, 22749, Note_on_c, 1, 58, 0
4, 22752, Note_on_c, 1, 59, 80
4, 22841, Note_on_c, 1, 59, 0
4, 22848, Note_on_c, 1, 47, 78
4, 22937, Note_on_c, 1, 47, 0
4, 22944, Note_on_c, 1, 63, 76
4, 23033, Note_on_c, 1, 63, 0
4, 23040, Note_on_c, 1, 64, 75
4, 23129, Note_on_c, 1, 64, 0
4, 23136, Note_on_c, 1, 65, 76
4, 23225, Note_on_c, 1, 65, 0
4, 23232, Note_on_c, 1, 66, 78
4, 23321, Note_on_c, 1, 66, 0
4, 23328, Note_on_c, 1, 59, 80
4, 23336, Note_on_c, 1, 63, 80
4, 23344, Note_on_c, 1, 66, 80
4, 23509, Note_on_c, 1, 66, 0
4, 23509, Note_on_c, 1, 63, 0
4, 23509, Note_on_c, 1, 59, 0
4, 23520, Note_on_c, 1, 64, 80
4, 23520, Note_on_c, 1, 61, 80
4, 23609, Note_on_c, 1, 64, 0
4, 23609, Note_on_c, 1, 61, 0
4, 23616, Note_on_c, 1, 61, 80
4, 23616, Note_on_c, 1, 57, 80
4, 23705, Note_on_c, 1, 61, 0
4, 23705, Note_on_c, 1, 57, 0
4, 23712, Note_on_c, 1, 56, 86
4, 23712, Note_on_c, 1, 47, 86
4, 23801, Note_on_c, 1, 56, 0
4, 23801, Note_on_c, 1, 47, 0
4, 23808, Note_on_c, 1, 54, 83
4, 23808, Note_on_c, 1, 47, 83
4, 23897, Note_on_c, 1, 54, 0
4, 23897, Note_on_c, 1, 47, 0
4, 23904, Note_on_c, 1, 52, 80
4, 23993, Note_on_c, 1, 52, 0
4, 24000, Note_on_c, 1, 47, 80
4, 24089, Note_on_c, 1, 47, 0
4, 24096, Note_on_c, 1, 40, 80
4, 24185, Note_on_c, 1, 40, 0
4, 24288, Note_on_c, 1, 56, 75
4, 24377, Note_on_c, 1, 56, 0
4, 24384, Note_on_c, 1, 53, 80
4, 24473, Note_on_c, 1, 53, 0
4, 24480, Note_on_c, 1, 54, 75
4, 24569, Note_on_c, 1, 54, 0
4, 24576, Note_on_c, 1, 51, 75
4, 24665, Note_on_c, 1, 51, 0
4, 24672, Note_on_c, 1, 52, 76
4, 24761, Note_on_c, 1, 52, 0
4, 24768, Note_on_c, 1, 45, 77
4, 24945, Note_on_c, 1, 45, 0
4, 24960, Note_on_c, 1, 46, 79
4, 25049, Note_on_c, 1, 46, 0
4, 25056, Note_on_c, 1, 47, 80
4, 25145, Note_on_c, 1, 47, 0
4, 25152, Note_on_c, 1, 35, 78
4, 25241, Note_on_c, 1, 35, 0
4, 25248, Note_on_c, 1, 59, 76
4, 25609, Note_on_c, 1, 59, 0
4, 25632, Note_on_c, 1, 66, 80
4, 25632, Note_on_c, 1, 63, 80
4, 25632, Note_on_c, 1, 54, 80
4, 25809, Note_on_c, 1, 66, 0
4, 25809, Note_on_c, 1, 63, 0
4, 25809, Note_on_c, 1, 54, 0
4, 25824, Note_on_c, 1, 64, 84
4, 25824, Note_on_c, 1, 59, 84
4, 25824, Note_on_c, 1, 56, 84
4, 25913, Note_on_c, 1, 64, 0
4, 25913, Note_on_c, 1, 59, 0
4, 25913, Note_on_c, 1, 56, 0
4, 25920, Note_on_c, 1, 61, 86
4, 25920, Note_on_c, 1, 57, 86
4, 26009, Note_on_c, 1, 61, 0
4, 26009, Note_on_c, 1, 57, 0
4, 26112, Note_on_c, 1, 47, 80
4, 26201, Note_on_c, 1, 47, 0
4, 26208, Note_on_c, 1, 52, 78
4, 26473, Note_on_c, 1, 52, 0
4, 26544, Note_on_c, 1, 52, 80
4, 26567, Note_on_c, 1, 52, 0
4, 26568, Note_on_c, 1, 54, 80
4, 26591, Note_on_c, 1, 54, 0
4, 26592, Note_on_c, 1, 57, 80
4, 26615, Note_on_c, 1, 57, 0
4, 26616, Note_on_c, 1, 55, 80
4, 26639, Note_on_c, 1, 55, 0
4, 26640, Note_on_c, 1, 54, 80
4, 26663, Note_on_c, 1, 54, 0
4, 26664, Note_on_c, 1, 52, 80
4, 26687, Note_on_c, 1, 52, 0
4, 26688, Note_on_c, 1, 64, 80
4, 26717, Note_on_c, 1, 64, 0
4, 26760, Note_on_c, 1, 64, 80
4, 26783, Note_on_c, 1, 64, 0
4, 26784, Note_on_c, 1, 64, 80
4, 26873, Note_on_c, 1, 64, 0
4, 26880, Note_on_c, 1, 62, 80
4, 26919, Note_on_c, 1, 62, 0
4, 26976, Note_on_c, 1, 50, 80
4, 27015, Note_on_c, 1, 50, 0
4, 27120, Note_on_c, 1, 48, 80
4, 27143, Note_on_c, 1, 48, 0
4, 27144, Note_on_c, 1, 50, 80
4, 27167, Note_on_c, 1, 50, 0
4, 27168, Note_on_c, 1, 54, 80
4, 27191, Note_on_c, 1, 54, 0
4, 27192, Note_on_c, 1, 52, 80
4, 27215, Note_on_c, 1, 52, 0
4, 27216, Note_on_c, 1, 50, 80
4, 27239, Note_on_c, 1, 50, 0
4, 27240, Note_on_c, 1, 48, 80
4, 27263, Note_on_c, 1, 48, 0
4, 27264, Note_on_c, 1, 60, 80
4, 27293, Note_on_c, 1, 60, 0
4, 27336, Note_on_c, 1, 60, 80
4, 27359, Note_on_c, 1, 60, 0
4, 27360, Note_on_c, 1, 60, 80
4, 27449, Note_on_c, 1, 60, 0
4, 27456, Note_on_c, 1, 59, 80
4, 27495, Note_on_c, 1, 59, 0
4, 27552, Note_on_c, 1, 47, 80
4, 27591, Note_on_c, 1, 47, 0
4, 27696, Note_on_c, 1, 45, 80
4, 27719, Note_on_c, 1, 45, 0
4, 27720, Note_on_c, 1, 47, 80
4, 27743, Note_on_c, 1, 47, 0
4, 27744, Note_on_c, 1, 50, 80
4, 27767, Note_on_c, 1, 50, 0
4, 27768, Note_on_c, 1, 48, 80
4, 27791, Note_on_c, 1, 48, 0
4, 27792, Note_on_c, 1, 47, 80
4, 27815, Note_on_c, 1, 47, 0
4, 27816, Note_on_c, 1, 45, 80
4, 27839, Note_on_c, 1, 45, 0
4, 27840, Note_on_c, 1, 57, 80
4, 27885, Note_on_c, 1, 57, 0
4, 27888, Note_on_c, 1, 50, 80
4, 27933, Note_on_c, 1, 50, 0
4, 27984, Note_on_c, 1, 43, 80
4, 28007, Note_on_c, 1, 43, 0
4, 28008, Note_on_c, 1, 45, 80
4, 28031, Note_on_c, 1, 45, 0
4, 28032, Note_on_c, 1, 48, 80
4, 28055, Note_on_c, 1, 48, 0
4, 28056, Note_on_c, 1, 47, 80
4, 28079, Note_on_c, 1, 47, 0
4, 28080, Note_on_c, 1, 45, 80
4, 28103, Note_on_c, 1, 45, 0
4, 28104, Note_on_c, 1, 43, 80
4, 28127, Note_on_c, 1, 43, 0
4, 28128, Note_on_c, 1, 55, 80
4, 28173, Note_on_c, 1, 55, 0
4, 28176, Note_on_c, 1, 47, 80
4, 28221, Note_on_c, 1, 47, 0
4, 28224, Note_on_c, 1, 48, 80
4, 28313, Note_on_c, 1, 48, 0
4, 28416, Note_on_c, 1, 50, 80
4, 28505, Note_on_c, 1, 50, 0
4, 28512, Note_on_c, 1, 43, 80
4, 28601, Note_on_c, 1, 43, 0
4, 28608, Note_on_c, 1, 38, 80
4, 28697, Note_on_c, 1, 38, 0
4, 28704, Note_on_c, 1, 31, 80
4, 28793, Note_on_c, 1, 31, 0
4, 28848, Note_on_c, 1, 52, 80
4, 28871, Note_on_c, 1, 52, 0
4, 28872, Note_on_c, 1, 54, 80
4, 28895, Note_on_c, 1, 54, 0
4, 28896, Note_on_c, 1, 57, 80
4, 28919, Note_on_c, 1, 57, 0
4, 28920, Note_on_c, 1, 55, 80
4, 28943, Note_on_c, 1, 55, 0
4, 28944, Note_on_c, 1, 54, 80
4, 28967, Note_on_c, 1, 54, 0
4, 28968, Note_on_c, 1, 52, 80
4, 28991, Note_on_c, 1, 52, 0
4, 28992, Note_on_c, 1, 64, 80
4, 29021, Note_on_c, 1, 64, 0
4, 29064, Note_on_c, 1, 64, 80
4, 29087, Note_on_c, 1, 64, 0
4, 29088, Note_on_c, 1, 64, 80
4, 29177, Note_on_c, 1, 64, 0
4, 29184, Note_on_c, 1, 62, 80
4, 29223, Note_on_c, 1, 62, 0
4, 29280, Note_on_c, 1, 50, 80
4, 29319, Note_on_c, 1, 50, 0
4, 29424, Note_on_c, 1, 48, 80
4, 29447, Note_on_c, 1, 48, 0
4, 29448, Note_on_c, 1, 50, 80
4, 29471, Note_on_c, 1, 50, 0
4, 29472, Note_on_c, 1, 54, 80
4, 29495, Note_on_c, 1, 54, 0
4, 29496, Note_on_c, 1, 52, 80
4, 29519, Note_on_c, 1, 52, 0
4, 29520, Note_on_c, 1, 50, 80
4, 29543, Note_on_c, 1, 50, 0
4, 29544, Note_on_c, 1, 48, 80
4, 29567, Note_on_c, 1, 48, 0
4, 29568, Note_on_c, 1, 60, 80
4, 29597, Note_on_c, 1, 60, 0
4, 29640, Note_on_c, 1, 60, 80
4, 29663, Note_on_c, 1, 60, 0
4, 29664, Note_on_c, 1, 60, 80
4, 29753, Note_on_c, 1, 60, 0
4, 29760, Note_on_c, 1, 59, 80
4, 29799, Note_on_c, 1, 59, 0
4, 29856, Note_on_c, 1, 47, 80
4, 29895, Note_on_c, 1, 47, 0
4, 30000, Note_on_c, 1, 45, 80
4, 30023, Note_on_c, 1, 45, 0
4, 30024, Note_on_c, 1, 47, 80
4, 30047, Note_on_c, 1, 47, 0
4, 30048, Note_on_c, 1, 50, 80
4, 30071, Note_on_c, 1, 50, 0
4, 30072, Note_on_c, 1, 48, 80
4, 30095, Note_on_c, 1, 48, 0
4, 30096, Note_on_c, 1, 47, 80
4, 30119, Note_on_c, 1, 47, 0
4, 30120, Note_on_c, 1, 45, 80
4, 30143, Note_on_c, 1, 45, 0
4, 30144, Note_on_c, 1, 57, 80
4, 30189, Note_on_c, 1, 57, 0
4, 30192, Note_on_c, 1, 50, 80
4, 30237, Note_on_c, 1, 50, 0
4, 30288, Note_on_c, 1, 43, 80
4, 30311, Note_on_c, 1, 43, 0
4, 30312, Note_on_c, 1, 45, 80
4, 30335, Note_on_c, 1, 45, 0
4, 30336, Note_on_c, 1, 48, 80
4, 30359, Note_on_c, 1, 48, 0
4, 30360, Note_on_c, 1, 47, 80
4, 30383, Note_on_c, 1, 47, 0
4, 30384, Note_on_c, 1, 45, 80
4, 30407, Note_on_c, 1, 45, 0
4, 30408, Note_on_c, 1, 43, 80
4, 30431, Note_on_c, 1, 43, 0
4, 30432, Note_on_c, 1, 55, 80
4, 30477, Note_on_c, 1, 55, 0
4, 30480, Note_on_c, 1, 47, 80
4, 30525, Note_on_c, 1, 47, 0
4, 30528, Note_on_c, 1, 48, 80
4, 30617, Note_on_c, 1, 48, 0
4, 30720, Note_on_c, 1, 50, 80
4, 30809, Note_on_c, 1, 50, 0
4, 30816, Note_on_c, 1, 43, 80
4, 30905, Note_on_c, 1, 43, 0
4, 30912, Note_on_c, 1, 38, 80
4, 31001, Note_on_c, 1, 38, 0
4, 31008, Note_on_c, 1, 31, 80
4, 31097, Note_on_c, 1, 31, 0
4, 31152, Note_on_c, 1, 47, 79
4, 31175, Note_on_c, 1, 47, 0
4, 31176, Note_on_c, 1, 49, 79
4, 31199, Note_on_c, 1, 49, 0
4, 31200, Note_on_c, 1, 52, 78
4, 31223, Note_on_c, 1, 52, 0
4, 31224, Note_on_c, 1, 51, 78
4, 31247, Note_on_c, 1, 51, 0
4, 31248, Note_on_c, 1, 49, 78
4, 31271, Note_on_c, 1, 49, 0
4, 31272, Note_on_c, 1, 47, 77
4, 31295, Note_on_c, 1, 47, 0
4, 31296, Note_on_c, 1, 59, 77
4, 31335, Note_on_c, 1, 59, 0
4, 31440, Note_on_c, 1, 52, 75
4, 31463, Note_on_c, 1, 52, 0
4, 31464, Note_on_c, 1, 54, 75
4, 31487, Note_on_c, 1, 54, 0
4, 31488, Note_on_c, 1, 57, 74
4, 31511, Note_on_c, 1, 57, 0
4, 31512, Note_on_c, 1, 55, 74
4, 31535, Note_on_c, 1, 55, 0
4, 31536, Note_on_c, 1, 54, 74
4, 31559, Note_on_c, 1, 54, 0
4, 31560, Note_on_c, 1, 52, 73
4, 31583, Note_on_c, 1, 52, 0
4, 31584, Note_on_c, 1, 64, 73
4, 31623, Note_on_c, 1, 64, 0
4, 31728, Note_on_c, 1, 59, 71
4, 31751, Note_on_c, 1, 59, 0
4, 31752, Note_on_c, 1, 61, 71
4, 31775, Note_on_c, 1, 61, 0
4, 31776, Note_on_c, 1, 64, 71
4, 31799, Note_on_c, 1, 64, 0
4, 31800, Note_on_c, 1, 63, 70
4, 31823, Note_on_c, 1, 63, 0
4, 31824, Note_on_c, 1, 61, 70
4, 31847, Note_on_c, 1, 61, 0
4, 31848, Note_on_c, 1, 59, 70
4, 31871, Note_on_c, 1, 59, 0
4, 31872, Note_on_c, 1, 71, 69
4, 31911, Note_on_c, 1, 71, 0
4, 32016, Note_on_c, 1, 64, 67
4, 32039, Note_on_c, 1, 64, 0
4, 32040, Note_on_c, 1, 66, 67
4, 32063, Note_on_c, 1, 66, 0
4, 32064, Note_on_c, 1, 69, 67
4, 32087, Note_on_c, 1, 69, 0
4, 32088, Note_on_c, 1, 67, 66
4, 32111, Note_on_c, 1, 67, 0
4, 32112, Note_on_c, 1, 66, 66
4, 32135, Note_on_c, 1, 66, 0
4, 32136, Note_on_c, 1, 64, 66
4, 32159, Note_on_c, 1, 64, 0
4, 32160, Note_on_c, 1, 76, 65
4, 32199, Note_on_c, 1, 76, 0
4, 32304, Note_on_c, 1, 59, 64
4, 32327, Note_on_c, 1, 59, 0
4, 32328, Note_on_c, 1, 61, 64
4, 32351, Note_on_c, 1, 61, 0
4, 32352, Note_on_c, 1, 64, 64
4, 32375, Note_on_c, 1, 64, 0
4, 32376, Note_on_c, 1, 63, 64
4, 32399, Note_on_c, 1, 63, 0
4, 32400, Note_on_c, 1, 61, 64
4, 32423, Note_on_c, 1, 61, 0
4, 32424, Note_on_c, 1, 59, 64
4, 32447, Note_on_c, 1, 59, 0
4, 32448, Note_on_c, 1, 71, 64
4, 32487, Note_on_c, 1, 71, 0
4, 32544, Note_on_c, 1, 47, 64
4, 32583, Note_on_c, 1, 47, 0
4, 32928, Note_on_c, 1, 59, 75
4, 32928, Note_on_c, 1, 52, 75
4, 33017, Note_on_c, 1, 59, 0
4, 33017, Note_on_c, 1, 52, 0
4, 33024, Note_on_c, 1, 57, 75
4, 33024, Note_on_c, 1, 47, 75
4, 33113, Note_on_c, 1, 57, 0
4, 33113, Note_on_c, 1, 47, 0
4, 33120, Note_on_c, 1, 56, 75
4, 33120, Note_on_c, 1, 52, 75
4, 33297, Note_on_c, 1, 56, 0
4, 33297, Note_on_c, 1, 52, 0
4, 33504, Note_on_c, 1, 64, 75
4, 33504, Note_on_c, 1, 57, 75
4, 33593, Note_on_c, 1, 64, 0
4, 33593, Note_on_c, 1, 57, 0
4, 33600, Note_on_c, 1, 64, 75
4, 33600, Note_on_c, 1, 56, 75
4, 33696, Note_on_c, 1, 56, 0
4, 33785, Note_on_c, 1, 64, 0
4, 33792, Note_on_c, 1, 63, 75
4, 33881, Note_on_c, 1, 63, 0
4, 33888, Note_on_c, 1, 64, 75
4, 33977, Note_on_c, 1, 64, 0
4, 34080, Note_on_c, 1, 71, 75
4, 34169, Note_on_c, 1, 71, 0
4, 34176, Note_on_c, 1, 71, 75
4, 34361, Note_on_c, 1, 71, 0
4, 34368, Note_on_c, 1, 70, 75
4, 34457, Note_on_c, 1, 70, 0
4, 34464, Note_on_c, 1, 71, 75
4, 34553, Note_on_c, 1, 71, 0
4, 34560, Note_on_c, 1, 68, 75
4, 34560, Note_on_c, 1, 64, 75
4, 34649, Note_on_c, 1, 68, 0
4, 34649, Note_on_c, 1, 64, 0
4, 34656, Note_on_c, 1, 63, 75
4, 34656, Note_on_c, 1, 54, 75
4, 34745, Note_on_c, 1, 63, 0
4, 34745, Note_on_c, 1, 54, 0
4, 34752, Note_on_c, 1, 61, 75
4, 34752, Note_on_c, 1, 54, 75
4, 34841, Note_on_c, 1, 61, 0
4, 34841, Note_on_c, 1, 54, 0
4, 34848, Note_on_c, 1, 59, 75
4, 34937, Note_on_c, 1, 59, 0
4, 34944, Note_on_c, 1, 54, 75
4, 35033, Note_on_c, 1, 54, 0
4, 35040, Note_on_c, 1, 47, 75
4, 35129, Note_on_c, 1, 47, 0
4, 35136, Note_on_c, 1, 52, 75
4, 35313, Note_on_c, 1, 52, 0
4, 35328, Note_on_c, 1, 47, 75
4, 35417, Note_on_c, 1, 47, 0
4, 35424, Note_on_c, 1, 52, 75
4, 35689, Note_on_c, 1, 52, 0
4, 35712, Note_on_c, 1, 52, 75
4, 35889, Note_on_c, 1, 52, 0
4, 35904, Note_on_c, 1, 56, 75
4, 35993, Note_on_c, 1, 56, 0
4, 36000, Note_on_c, 1, 54, 75
4, 36177, Note_on_c, 1, 54, 0
4, 36192, Note_on_c, 1, 52, 75
4, 36281, Note_on_c, 1, 52, 0
4, 36288, Note_on_c, 1, 64, 75
4, 36465, Note_on_c, 1, 64, 0
4, 36480, Note_on_c, 1, 63, 75
4, 36569, Note_on_c, 1, 63, 0
4, 36576, Note_on_c, 1, 61, 75
4, 36753, Note_on_c, 1, 61, 0
4, 36768, Note_on_c, 1, 59, 75
4, 36857, Note_on_c, 1, 59, 0
4, 36864, Note_on_c, 1, 64, 75
4, 36953, Note_on_c, 1, 64, 0
4, 37056, Note_on_c, 1, 54, 75
4, 37145, Note_on_c, 1, 54, 0
4, 37152, Note_on_c, 1, 59, 75
4, 37417, Note_on_c, 1, 59, 0
4, 37536, Note_on_c, 1, 56, 77
4, 37625, Note_on_c, 1, 56, 0
4, 37632, Note_on_c, 1, 53, 80
4, 37721, Note_on_c, 1, 53, 0
4, 37728, Note_on_c, 1, 54, 75
4, 37905, Note_on_c, 1, 54, 0
4, 38016, Note_on_c, 1, 57, 77
4, 38253, Note_on_c, 1, 57, 0
4, 38256, Note_on_c, 1, 58, 79
4, 38301, Note_on_c, 1, 58, 0
4, 38304, Note_on_c, 1, 59, 80
4, 38393, Note_on_c, 1, 59, 0
4, 38400, Note_on_c, 1, 47, 78
4, 38489, Note_on_c, 1, 47, 0
4, 38496, Note_on_c, 1, 63, 76
4, 38585, Note_on_c, 1, 63, 0
4, 38592, Note_on_c, 1, 64, 75
4, 38681, Note_on_c, 1, 64, 0
4, 38688, Note_on_c, 1, 65, 76
4, 38777, Note_on_c, 1, 65, 0
4, 38784, Note_on_c, 1, 66, 78
4, 38873, Note_on_c, 1, 66, 0
4, 38880, Note_on_c, 1, 59, 80
4, 38888, Note_on_c, 1, 63, 80
4, 38896, Note_on_c, 1, 66, 80
4, 39061, Note_on_c, 1, 66, 0
4, 39061, Note_on_c, 1, 63, 0
4, 39061, Note_on_c, 1, 59, 0
4, 39072, Note_on_c, 1, 64, 80
4, 39072, Note_on_c, 1, 61, 80
4, 39161, Note_on_c, 1, 64, 0
4, 39161, Note_on_c, 1, 61, 0
4, 39168, Note_on_c, 1, 61, 80
4, 39168, Note_on_c, 1, 57, 80
4, 39257, Note_on_c, 1, 61, 0
4, 39257, Note_on_c, 1, 57, 0
4, 39264, Note_on_c, 1, 56, 86
4, 39264, Note_on_c, 1, 47, 86
4, 39353, Note_on_c, 1, 56, 0
4, 39353, Note_on_c, 1, 47, 0
4, 39360, Note_on_c, 1, 54, 84
4, 39360, Note_on_c, 1, 47, 84
4, 39449, Note_on_c, 1, 54, 0
4, 39449, Note_on_c, 1, 47, 0
4, 39456, Note_on_c, 1, 52, 82
4, 39545, Note_on_c, 1, 52, 0
4, 39552, Note_on_c, 1, 47, 80
4, 39641, Note_on_c, 1, 47, 0
4, 39648, Note_on_c, 1, 40, 70
4, 39737, Note_on_c, 1, 40, 0
4, 39744, Note_on_c, 1, 56, 75
4, 39921, Note_on_c, 1, 56, 0
4, 39936, Note_on_c, 1, 59, 75
4, 40025, Note_on_c, 1, 59, 0
4, 40032, Note_on_c, 1, 57, 75
4, 40497, Note_on_c, 1, 57, 0
4, 40512, Note_on_c, 1, 54, 75
4, 40601, Note_on_c, 1, 54, 0
4, 40608, Note_on_c, 1, 59, 75
4, 41449, Note_on_c, 1, 59, 0
4, 41664, Note_on_c, 1, 59, 75
4, 41664, Note_on_c, 1, 47, 75
4, 41753, Note_on_c, 1, 59, 0
4, 41753, Note_on_c, 1, 47, 0
4, 41760, Note_on_c, 1, 52, 75
4, 41760, Note_on_c, 1, 40, 75
4, 41937, Note_on_c, 1, 52, 0
4, 41937, Note_on_c, 1, 40, 0
4, 42048, Note_on_c, 1, 40, 0
4, 42137, Note_on_c, 1, 40, 0
4, 42144, End_track
5, 0, Start_track
5, 0, Program_c, 1, 0
5, 0, Control_c, 1, 7, 127
5, 0, Control_c, 1, 10, 64
5, 864, Note_on_c, 1, 54, 64
5, 1041, Note_on_c, 1, 54, 0
5, 1056, Note_on_c, 1, 52, 64
5, 1145, Note_on_c, 1, 52, 0
5, 1248, Note_on_c, 1, 64, 64
5, 1337, Note_on_c, 1, 64, 0
5, 1344, Note_on_c, 1, 63, 64
5, 1433, Note_on_c, 1, 63, 0
5, 1440, Note_on_c, 1, 61, 64
5, 1617, Note_on_c, 1, 61, 0
5, 1632, Note_on_c, 1, 59, 64
5, 1721, Note_on_c, 1, 59, 0
5, 3168, Note_on_c, 1, 54, 64
5, 3345, Note_on_c, 1, 54, 0
5, 3360, Note_on_c, 1, 52, 64
5, 3449, Note_on_c, 1, 52, 0
5, 3552, Note_on_c, 1, 64, 64
5, 3641, Note_on_c, 1, 64, 0
5, 3648, Note_on_c, 1, 63, 64
5, 3737, Note_on_c, 1, 63, 0
5, 3744, Note_on_c, 1, 61, 64
5, 3921, Note_on_c, 1, 61, 0
5, 3936, Note_on_c, 1, 59, 64
5, 4025, Note_on_c, 1, 59, 0
5, 4896, Note_on_c, 1, 54, 64
5, 5073, Note_on_c, 1, 54, 0
5, 5088, Note_on_c, 1, 56, 64
5, 5177, Note_on_c, 1, 56, 0
5, 5184, Note_on_c, 1, 61, 64
5, 5449, Note_on_c, 1, 61, 0
5, 5664, Note_on_c, 1, 59, 71
5, 6025, Note_on_c, 1, 59, 0
5, 7200, Note_on_c, 1, 54, 64
5, 7377, Note_on_c, 1, 54, 0
5, 7392, Note_on_c, 1, 56, 64
5, 7481, Note_on_c, 1, 56, 0
5, 7488, Note_on_c, 1, 61, 64
5, 7753, Note_on_c, 1, 61, 0
5, 7968, Note_on_c, 1, 59, 71
5, 8329, Note_on_c, 1, 59, 0
5, 18144, Note_on_c, 1, 54, 75
5, 18321, Note_on_c, 1, 54, 0
5, 18336, Note_on_c, 1, 52, 75
5, 18425, Note_on_c, 1, 52, 0
5, 18528, Note_on_c, 1, 64, 75
5, 18617, Note_on_c, 1, 64, 0
5, 18624, Note_on_c, 1, 63, 75
5, 18713, Note_on_c, 1, 63, 0
5, 18720, Note_on_c, 1, 61, 75
5, 18897, Note_on_c, 1, 61, 0
5, 18912, Note_on_c, 1, 59, 75
5, 19001, Note_on_c, 1, 59, 0
5, 20160, Note_on_c, 1, 64, 75
5, 20337, Note_on_c, 1, 64, 0
5, 21024, Note_on_c, 1, 61, 75
5, 21201, Note_on_c, 1, 61, 0
5, 21216, Note_on_c, 1, 59, 78
5, 21305, Note_on_c, 1, 59, 0
5, 21504, Note_on_c, 1, 64, 76
5, 21777, Note_on_c, 1, 64, 0
5, 21792, Note_on_c, 1, 63, 70
5, 21881, Note_on_c, 1, 63, 0
5, 21984, Note_on_c, 1, 59, 77
5, 22073, Note_on_c, 1, 59, 0
5, 22080, Note_on_c, 1, 62, 80
5, 22265, Note_on_c, 1, 62, 0
5, 22272, Note_on_c, 1, 61, 75
5, 22361, Note_on_c, 1, 61, 0
5, 22368, Note_on_c, 1, 59, 75
5, 22457, Note_on_c, 1, 59, 0
5, 22464, Note_on_c, 1, 61, 75
5, 22729, Note_on_c, 1, 61, 0
5, 22944, Note_on_c, 1, 59, 71
5, 23305, Note_on_c, 1, 59, 0
5, 23904, Note_on_c, 1, 52, 75
5, 23993, Note_on_c, 1, 52, 0
5, 25248, Note_on_c, 1, 63, 72
5, 25337, Note_on_c, 1, 63, 0
5, 25344, Note_on_c, 1, 64, 71
5, 25433, Note_on_c, 1, 64, 0
5, 25440, Note_on_c, 1, 65, 70
5, 25529, Note_on_c, 1, 65, 0
5, 25536, Note_on_c, 1, 66, 72
5, 25625, Note_on_c, 1, 66, 0
5, 26112, Note_on_c, 1, 57, 73
5, 26201, Note_on_c, 1, 57, 0
5, 26208, Note_on_c, 1, 57, 72
5, 26400, Note_on_c, 1, 57, 0
5, 26400, Note_on_c, 1, 56, 64
5, 26489, Note_on_c, 1, 56, 0
5, 33696, Note_on_c, 1, 54, 64
5, 33873, Note_on_c, 1, 54, 0
5, 33888, Note_on_c, 1, 52, 64
5, 33977, Note_on_c, 1, 52, 0
5, 34080, Note_on_c, 1, 64, 64
5, 34169, Note_on_c, 1, 64, 0
5, 34176, Note_on_c, 1, 63, 64
5, 34265, Note_on_c, 1, 63, 0
5, 34272, Note_on_c, 1, 61, 64
5, 34449, Note_on_c, 1, 61, 0
5, 34464, Note_on_c, 1, 59, 64
5, 34553, Note_on_c, 1, 59, 0
5, 34848, Note_on_c, 1, 59, 64
5, 34937, Note_on_c, 1, 59, 0
5, 35136, Note_on_c, 1, 59, 64
5, 35313, Note_on_c, 1, 59, 0
5, 35328, Note_on_c, 1, 57, 64
5, 35513, Note_on_c, 1, 57, 0
5, 35520, Note_on_c, 1, 56, 64
5, 35889, Note_on_c, 1, 56, 0
5, 35904, Note_on_c, 1, 64, 64
5, 36089, Note_on_c, 1, 64, 0
5, 36096, Note_on_c, 1, 63, 64
5, 36185, Note_on_c, 1, 63, 0
5, 36192, Note_on_c, 1, 64, 64
5, 36281, Note_on_c, 1, 64, 0
5, 36288, Note_on_c, 1, 71, 64
5, 36665, Note_on_c, 1, 71, 0
5, 36672, Note_on_c, 1, 70, 64
5, 36761, Note_on_c, 1, 70, 0
5, 36768, Note_on_c, 1, 71, 64
5, 36857, Note_on_c, 1, 71, 0
5, 36864, Note_on_c, 1, 68, 64
5, 36953, Note_on_c, 1, 68, 0
5, 37056, Note_on_c, 1, 64, 64
5, 37329, Note_on_c, 1, 64, 0
5, 37344, Note_on_c, 1, 63, 70
5, 37433, Note_on_c, 1, 63, 0
5, 37536, Note_on_c, 1, 59, 70
5, 37625, Note_on_c, 1, 59, 0
5, 37632, Note_on_c, 1, 62, 70
5, 37817, Note_on_c, 1, 62, 0
5, 37824, Note_on_c, 1, 61, 70
5, 37913, Note_on_c, 1, 61, 0
5, 37920, Note_on_c, 1, 59, 70
5, 38009, Note_on_c, 1, 59, 0
5, 38016, Note_on_c, 1, 61, 70
5, 38281, Note_on_c, 1, 61, 0
5, 38496, Note_on_c, 1, 59, 60
5, 38857, Note_on_c, 1, 59, 0
5, 39456, Note_on_c, 1, 52, 64
5, 39545, Note_on_c, 1, 52, 0
5, 39744, Note_on_c, 1, 59, 75
5, 39921, Note_on_c, 1, 59, 0
5, 39936, Note_on_c, 1, 62, 75
5, 40025, Note_on_c, 1, 62, 0
5, 40032, Note_on_c, 1, 61, 75
5, 40585, Note_on_c, 1, 61, 0
5, 40800, Note_on_c, 1, 63, 75
5, 40889, Note_on_c, 1, 63, 0
5, 40896, Note_on_c, 1, 64, 75
5, 40985, Note_on_c, 1, 64, 0
5, 40992, Note_on_c, 1, 65, 76
5, 41081, Note_on_c, 1, 65, 0
5, 41088, Note_on_c, 1, 66, 77
5, 41177, Note_on_c, 1, 66, 0
5, 41184, Note_on_c, 1, 63, 78
5, 41361, Note_on_c, 1, 63, 0
5, 41376, Note_on_c, 1, 64, 80
5, 41465, Note_on_c, 1, 64, 0
5, 42048, End_track
6, 0, Start_track
6, 0, Title_t, "Sonata I   Haydn  "
6, 0, End_track
0, 0, End_of_file
