0, 0, Header, 1, 6, 96
1, 0, Start_track
1, 0, Copyright_t, "Copyright  1994-2002 Mozart Music Software"
1, 0, Text_t, "Sonata III\015\012"
1, 0, Text_t, "<composer>\015\012"
1, 0, Sequencer_specific, 16, 68, 87, 77, 90, 86, 82, 83, 78, 32, 55, 46, 48, 46, 55, 46, 48
1, 0, Time_signature, 4, 2, 24, 8
1, 0, Tempo, 750000
1, 0, Key_signature, -4, "major"
1, 6240, Tempo, 1578947
1, 6336, Tempo, 375000
1, 6528, Tempo, 750000
1, 8736, Tempo, 2000000
1, 8832, Tempo, 750000
1, 20832, Tempo, 1578947
1, 20928, Tempo, 375000
1, 21120, Tempo, 750000
1, 23328, Tempo, 2000000
1, 23424, Tempo, 750000
1, 38928, Tempo, 800000
1, 39120, Tempo, 1000000
1, 39168, Tempo, 750000
1, 40896, Tempo, 1333333
1, 40992, Tempo, 750000
1, 41856, Tempo, 1333333
1, 41952, Tempo, 750000
1, 49104, Tempo, 857142
1, 49152, Tempo, 923076
1, 49344, Tempo, 352941
1, 49536, Tempo, 750000
1, 51744, Tempo, 2000000
1, 51840, Tempo, 750000
1, 67344, Tempo, 800000
1, 67536, Tempo, 1000000
1, 67584, Tempo, 750000
1, 69312, Tempo, 1333333
1, 69408, Tempo, 750000
1, 70272, Tempo, 1333333
1, 70368, Tempo, 750000
1, 77520, Tempo, 857142
1, 77568, Tempo, 923076
1, 77760, Tempo, 352941
1, 77952, Tempo, 750000
1, 80160, Tempo, 2000000
1, 80256, Tempo, 750000
1, 86016, End_track
2, 0, Start_track
2, 0, Program_c, 0, 0
2, 0, Control_c, 0, 7, 127
2, 0, Control_c, 0, 10, 64
2, 0, Note_on_c, 0, 68, 84
2, 6, Note_on_c, 0, 68, 0
2, 6, Note_on_c, 0, 67, 84
2, 12, Note_on_c, 0, 67, 0
2, 12, Note_on_c, 0, 68, 84
2, 179, Note_on_c, 0, 68, 0
2, 192, Note_on_c, 0, 77, 84
2, 198, Note_on_c, 0, 77, 0
2, 198, Note_on_c, 0, 75, 84
2, 355, Note_on_c, 0, 75, 0
2, 360, Note_on_c, 0, 73, 84
2, 383, Note_on_c, 0, 73, 0
2, 384, Note_on_c, 0, 73, 84
2, 480, Note_on_c, 0, 73, 0
2, 480, Note_on_c, 0, 72, 84
2, 486, Note_on_c, 0, 72, 0
2, 486, Note_on_c, 0, 73, 84
2, 492, Note_on_c, 0, 73, 0
2, 492, Note_on_c, 0, 72, 84
2, 549, Note_on_c, 0, 72, 0
2, 552, Note_on_c, 0, 73, 84
2, 575, Note_on_c, 0, 73, 0
2, 576, Note_on_c, 0, 72, 84
2, 672, Note_on_c, 0, 72, 0
2, 672, Note_on_c, 0, 70, 84
2, 678, Note_on_c, 0, 70, 0
2, 678, Note_on_c, 0, 72, 84
2, 684, Note_on_c, 0, 72, 0
2, 684, Note_on_c, 0, 70, 84
2, 741, Note_on_c, 0, 70, 0
2, 744, Note_on_c, 0, 72, 84
2, 767, Note_on_c, 0, 72, 0
2, 768, Note_on_c, 0, 70, 84
2, 864, Note_on_c, 0, 70, 0
2, 864, Note_on_c, 0, 68, 84
2, 870, Note_on_c, 0, 68, 0
2, 870, Note_on_c, 0, 70, 84
2, 876, Note_on_c, 0, 70, 0
2, 876, Note_on_c, 0, 68, 84
2, 898, Note_on_c, 0, 68, 0
2, 900, Note_on_c, 0, 67, 84
2, 912, Note_on_c, 0, 67, 0
2, 912, Note_on_c, 0, 68, 84
2, 946, Note_on_c, 0, 68, 0
2, 948, Note_on_c, 0, 70, 84
2, 960, Note_on_c, 0, 70, 0
2, 960, Note_on_c, 0, 68, 84
2, 1068, Note_on_c, 0, 68, 0
2, 1152, Note_on_c, 0, 80, 84
2, 1167, Note_on_c, 0, 80, 0
2, 1168, Note_on_c, 0, 84, 84
2, 1183, Note_on_c, 0, 84, 0
2, 1184, Note_on_c, 0, 82, 84
2, 1199, Note_on_c, 0, 82, 0
2, 1200, Note_on_c, 0, 80, 84
2, 1215, Note_on_c, 0, 80, 0
2, 1216, Note_on_c, 0, 79, 84
2, 1231, Note_on_c, 0, 79, 0
2, 1232, Note_on_c, 0, 77, 84
2, 1247, Note_on_c, 0, 77, 0
2, 1248, Note_on_c, 0, 75, 84
2, 1263, Note_on_c, 0, 75, 0
2, 1264, Note_on_c, 0, 73, 84
2, 1279, Note_on_c, 0, 73, 0
2, 1280, Note_on_c, 0, 72, 84
2, 1295, Note_on_c, 0, 72, 0
2, 1296, Note_on_c, 0, 70, 84
2, 1311, Note_on_c, 0, 70, 0
2, 1312, Note_on_c, 0, 68, 84
2, 1327, Note_on_c, 0, 68, 0
2, 1328, Note_on_c, 0, 67, 84
2, 1343, Note_on_c, 0, 67, 0
2, 1344, Note_on_c, 0, 65, 84
2, 1507, Note_on_c, 0, 65, 0
2, 1512, Note_on_c, 0, 67, 84
2, 1535, Note_on_c, 0, 67, 0
2, 1536, Note_on_c, 0, 67, 84
2, 1632, Note_on_c, 0, 67, 0
2, 1632, Note_on_c, 0, 68, 84
2, 1647, Note_on_c, 0, 68, 0
2, 1648, Note_on_c, 0, 72, 84
2, 1663, Note_on_c, 0, 72, 0
2, 1664, Note_on_c, 0, 70, 84
2, 1679, Note_on_c, 0, 70, 0
2, 1680, Note_on_c, 0, 68, 84
2, 1695, Note_on_c, 0, 68, 0
2, 1696, Note_on_c, 0, 67, 84
2, 1711, Note_on_c, 0, 67, 0
2, 1712, Note_on_c, 0, 65, 84
2, 1727, Note_on_c, 0, 65, 0
2, 1728, Note_on_c, 0, 63, 84
2, 1795, Note_on_c, 0, 63, 0
2, 1800, Note_on_c, 0, 60, 84
2, 1812, Note_on_c, 0, 60, 0
2, 1812, Note_on_c, 0, 61, 84
2, 1824, Note_on_c, 0, 61, 0
2, 1824, Note_on_c, 0, 63, 84
2, 1832, Note_on_c, 0, 63, 0
2, 1832, Note_on_c, 0, 61, 84
2, 1840, Note_on_c, 0, 61, 0
2, 1840, Note_on_c, 0, 63, 84
2, 1848, Note_on_c, 0, 63, 0
2, 1848, Note_on_c, 0, 61, 84
2, 1856, Note_on_c, 0, 61, 0
2, 1856, Note_on_c, 0, 63, 84
2, 1864, Note_on_c, 0, 63, 0
2, 1864, Note_on_c, 0, 61, 84
2, 1872, Note_on_c, 0, 61, 0
2, 1872, Note_on_c, 0, 63, 84
2, 1880, Note_on_c, 0, 63, 0
2, 1880, Note_on_c, 0, 61, 84
2, 1888, Note_on_c, 0, 61, 0
2, 1888, Note_on_c, 0, 60, 84
2, 1904, Note_on_c, 0, 60, 0
2, 1904, Note_on_c, 0, 61, 84
2, 1920, Note_on_c, 0, 61, 0
2, 1920, Note_on_c, 0, 61, 84
2, 1920, Note_on_c, 0, 58, 84
2, 2016, Note_on_c, 0, 61, 0
2, 2016, Note_on_c, 0, 58, 0
2, 2016, Note_on_c, 0, 60, 84
2, 2016, Note_on_c, 0, 56, 84
2, 2105, Note_on_c, 0, 60, 0
2, 2105, Note_on_c, 0, 56, 0
2, 2112, Note_on_c, 0, 65, 84
2, 2223, Note_on_c, 0, 65, 0
2, 2224, Note_on_c, 0, 67, 84
2, 2239, Note_on_c, 0, 67, 0
2, 2240, Note_on_c, 0, 68, 84
2, 2255, Note_on_c, 0, 68, 0
2, 2256, Note_on_c, 0, 67, 84
2, 2271, Note_on_c, 0, 67, 0
2, 2272, Note_on_c, 0, 68, 84
2, 2287, Note_on_c, 0, 68, 0
2, 2288, Note_on_c, 0, 70, 84
2, 2303, Note_on_c, 0, 70, 0
2, 2304, Note_on_c, 0, 68, 84
2, 2319, Note_on_c, 0, 68, 0
2, 2320, Note_on_c, 0, 70, 84
2, 2335, Note_on_c, 0, 70, 0
2, 2336, Note_on_c, 0, 72, 84
2, 2351, Note_on_c, 0, 72, 0
2, 2352, Note_on_c, 0, 70, 84
2, 2367, Note_on_c, 0, 70, 0
2, 2368, Note_on_c, 0, 72, 84
2, 2383, Note_on_c, 0, 72, 0
2, 2384, Note_on_c, 0, 73, 84
2, 2399, Note_on_c, 0, 73, 0
2, 2400, Note_on_c, 0, 72, 84
2, 2415, Note_on_c, 0, 72, 0
2, 2416, Note_on_c, 0, 73, 84
2, 2431, Note_on_c, 0, 73, 0
2, 2432, Note_on_c, 0, 75, 84
2, 2447, Note_on_c, 0, 75, 0
2, 2448, Note_on_c, 0, 73, 84
2, 2463, Note_on_c, 0, 73, 0
2, 2464, Note_on_c, 0, 75, 84
2, 2479, Note_on_c, 0, 75, 0
2, 2480, Note_on_c, 0, 77, 84
2, 2495, Note_on_c, 0, 77, 0
2, 2496, Note_on_c, 0, 75, 84
2, 2511, Note_on_c, 0, 75, 0
2, 2512, Note_on_c, 0, 73, 84
2, 2527, Note_on_c, 0, 73, 0
2, 2528, Note_on_c, 0, 72, 84
2, 2543, Note_on_c, 0, 72, 0
2, 2544, Note_on_c, 0, 70, 84
2, 2559, Note_on_c, 0, 70, 0
2, 2560, Note_on_c, 0, 68, 84
2, 2575, Note_on_c, 0, 68, 0
2, 2576, Note_on_c, 0, 67, 84
2, 2591, Note_on_c, 0, 67, 0
2, 2592, Note_on_c, 0, 68, 84
2, 2607, Note_on_c, 0, 68, 0
2, 2608, Note_on_c, 0, 72, 84
2, 2623, Note_on_c, 0, 72, 0
2, 2624, Note_on_c, 0, 70, 84
2, 2639, Note_on_c, 0, 70, 0
2, 2640, Note_on_c, 0, 68, 84
2, 2655, Note_on_c, 0, 68, 0
2, 2656, Note_on_c, 0, 67, 84
2, 2671, Note_on_c, 0, 67, 0
2, 2672, Note_on_c, 0, 65, 84
2, 2687, Note_on_c, 0, 65, 0
2, 2688, Note_on_c, 0, 63, 84
2, 2755, Note_on_c, 0, 63, 0
2, 2760, Note_on_c, 0, 60, 84
2, 2772, Note_on_c, 0, 60, 0
2, 2772, Note_on_c, 0, 61, 84
2, 2784, Note_on_c, 0, 61, 0
2, 2784, Note_on_c, 0, 63, 84
2, 2792, Note_on_c, 0, 63, 0
2, 2792, Note_on_c, 0, 61, 84
2, 2800, Note_on_c, 0, 61, 0
2, 2800, Note_on_c, 0, 63, 84
2, 2808, Note_on_c, 0, 63, 0
2, 2808, Note_on_c, 0, 61, 84
2, 2816, Note_on_c, 0, 61, 0
2, 2816, Note_on_c, 0, 63, 84
2, 2824, Note_on_c, 0, 63, 0
2, 2824, Note_on_c, 0, 61, 84
2, 2832, Note_on_c, 0, 61, 0
2, 2832, Note_on_c, 0, 63, 84
2, 2840, Note_on_c, 0, 63, 0
2, 2840, Note_on_c, 0, 61, 84
2, 2848, Note_on_c, 0, 61, 0
2, 2848, Note_on_c, 0, 60, 84
2, 2864, Note_on_c, 0, 60, 0
2, 2864, Note_on_c, 0, 61, 84
2, 2880, Note_on_c, 0, 61, 0
2, 2880, Note_on_c, 0, 61, 84
2, 2880, Note_on_c, 0, 58, 84
2, 2976, Note_on_c, 0, 61, 0
2, 2976, Note_on_c, 0, 58, 0
2, 2976, Note_on_c, 0, 60, 84
2, 2976, Note_on_c, 0, 56, 84
2, 3065, Note_on_c, 0, 60, 0
2, 3065, Note_on_c, 0, 56, 0
2, 3072, Note_on_c, 0, 72, 75
2, 3084, Note_on_c, 0, 72, 0
2, 3084, Note_on_c, 0, 84, 75
2, 3191, Note_on_c, 0, 84, 0
2, 3192, Note_on_c, 0, 82, 75
2, 3204, Note_on_c, 0, 82, 0
2, 3204, Note_on_c, 0, 80, 75
2, 3216, Note_on_c, 0, 80, 0
2, 3216, Note_on_c, 0, 82, 75
2, 3228, Note_on_c, 0, 82, 0
2, 3228, Note_on_c, 0, 80, 75
2, 3240, Note_on_c, 0, 80, 0
2, 3240, Note_on_c, 0, 79, 75
2, 3252, Note_on_c, 0, 79, 0
2, 3252, Note_on_c, 0, 77, 75
2, 3264, Note_on_c, 0, 77, 0
2, 3264, Note_on_c, 0, 77, 75
2, 3360, Note_on_c, 0, 77, 0
2, 3360, Note_on_c, 0, 76, 75
2, 3366, Note_on_c, 0, 76, 0
2, 3366, Note_on_c, 0, 77, 75
2, 3372, Note_on_c, 0, 77, 0
2, 3372, Note_on_c, 0, 76, 75
2, 3427, Note_on_c, 0, 76, 0
2, 3432, Note_on_c, 0, 79, 75
2, 3455, Note_on_c, 0, 79, 0
2, 3456, Note_on_c, 0, 73, 75
2, 3462, Note_on_c, 0, 73, 0
2, 3462, Note_on_c, 0, 75, 75
2, 3468, Note_on_c, 0, 75, 0
2, 3468, Note_on_c, 0, 73, 75
2, 3549, Note_on_c, 0, 73, 0
2, 3552, Note_on_c, 0, 72, 75
2, 3619, Note_on_c, 0, 72, 0
2, 3624, Note_on_c, 0, 70, 75
2, 3647, Note_on_c, 0, 70, 0
2, 3648, Note_on_c, 0, 68, 75
2, 3663, Note_on_c, 0, 68, 0
2, 3664, Note_on_c, 0, 65, 75
2, 3679, Note_on_c, 0, 65, 0
2, 3680, Note_on_c, 0, 67, 75
2, 3695, Note_on_c, 0, 67, 0
2, 3696, Note_on_c, 0, 68, 75
2, 3711, Note_on_c, 0, 68, 0
2, 3712, Note_on_c, 0, 70, 75
2, 3727, Note_on_c, 0, 70, 0
2, 3728, Note_on_c, 0, 72, 75
2, 3743, Note_on_c, 0, 72, 0
2, 3744, Note_on_c, 0, 74, 75
2, 3759, Note_on_c, 0, 74, 0
2, 3760, Note_on_c, 0, 76, 75
2, 3775, Note_on_c, 0, 76, 0
2, 3776, Note_on_c, 0, 77, 75
2, 3791, Note_on_c, 0, 77, 0
2, 3792, Note_on_c, 0, 79, 75
2, 3807, Note_on_c, 0, 79, 0
2, 3808, Note_on_c, 0, 80, 75
2, 3823, Note_on_c, 0, 80, 0
2, 3824, Note_on_c, 0, 82, 75
2, 3839, Note_on_c, 0, 82, 0
2, 3840, Note_on_c, 0, 84, 75
2, 3959, Note_on_c, 0, 84, 0
2, 3960, Note_on_c, 0, 82, 75
2, 3972, Note_on_c, 0, 82, 0
2, 3972, Note_on_c, 0, 80, 75
2, 3984, Note_on_c, 0, 80, 0
2, 3984, Note_on_c, 0, 82, 75
2, 3996, Note_on_c, 0, 82, 0
2, 3996, Note_on_c, 0, 80, 75
2, 4008, Note_on_c, 0, 80, 0
2, 4008, Note_on_c, 0, 79, 75
2, 4020, Note_on_c, 0, 79, 0
2, 4020, Note_on_c, 0, 77, 75
2, 4032, Note_on_c, 0, 77, 0
2, 4032, Note_on_c, 0, 75, 75
2, 4121, Note_on_c, 0, 75, 0
2, 4128, Note_on_c, 0, 74, 75
2, 4137, Note_on_c, 0, 74, 0
2, 4137, Note_on_c, 0, 75, 75
2, 4146, Note_on_c, 0, 75, 0
2, 4146, Note_on_c, 0, 74, 75
2, 4155, Note_on_c, 0, 74, 0
2, 4155, Note_on_c, 0, 75, 75
2, 4164, Note_on_c, 0, 75, 0
2, 4164, Note_on_c, 0, 74, 75
2, 4173, Note_on_c, 0, 74, 0
2, 4173, Note_on_c, 0, 75, 75
2, 4182, Note_on_c, 0, 75, 0
2, 4182, Note_on_c, 0, 74, 75
2, 4191, Note_on_c, 0, 74, 0
2, 4191, Note_on_c, 0, 75, 75
2, 4200, Note_on_c, 0, 75, 0
2, 4200, Note_on_c, 0, 74, 75
2, 4208, Note_on_c, 0, 74, 0
2, 4208, Note_on_c, 0, 75, 75
2, 4216, Note_on_c, 0, 75, 0
2, 4216, Note_on_c, 0, 77, 75
2, 4224, Note_on_c, 0, 77, 0
2, 4224, Note_on_c, 0, 75, 75
2, 4244, Note_on_c, 0, 75, 0
2, 4272, Note_on_c, 0, 68, 91
2, 4272, Note_on_c, 0, 65, 91
2, 4368, Note_on_c, 0, 68, 0
2, 4368, Note_on_c, 0, 65, 0
2, 4368, Note_on_c, 0, 67, 75
2, 4368, Note_on_c, 0, 63, 75
2, 4413, Note_on_c, 0, 67, 0
2, 4413, Note_on_c, 0, 63, 0
2, 4416, Note_on_c, 0, 65, 75
2, 4416, Note_on_c, 0, 62, 75
2, 4463, Note_on_c, 0, 65, 0
2, 4463, Note_on_c, 0, 62, 0
2, 4464, Note_on_c, 0, 58, 75
2, 4479, Note_on_c, 0, 58, 0
2, 4480, Note_on_c, 0, 62, 75
2, 4495, Note_on_c, 0, 62, 0
2, 4496, Note_on_c, 0, 60, 75
2, 4511, Note_on_c, 0, 60, 0
2, 4512, Note_on_c, 0, 58, 75
2, 4527, Note_on_c, 0, 58, 0
2, 4528, Note_on_c, 0, 60, 76
2, 4543, Note_on_c, 0, 60, 0
2, 4544, Note_on_c, 0, 62, 77
2, 4559, Note_on_c, 0, 62, 0
2, 4560, Note_on_c, 0, 63, 78
2, 4575, Note_on_c, 0, 63, 0
2, 4576, Note_on_c, 0, 65, 79
2, 4591, Note_on_c, 0, 65, 0
2, 4592, Note_on_c, 0, 67, 80
2, 4607, Note_on_c, 0, 67, 0
2, 4624, Note_on_c, 0, 74, 84
2, 4639, Note_on_c, 0, 74, 0
2, 4640, Note_on_c, 0, 75, 84
2, 4655, Note_on_c, 0, 75, 0
2, 4656, Note_on_c, 0, 77, 84
2, 4671, Note_on_c, 0, 77, 0
2, 4672, Note_on_c, 0, 75, 84
2, 4687, Note_on_c, 0, 75, 0
2, 4688, Note_on_c, 0, 74, 84
2, 4703, Note_on_c, 0, 74, 0
2, 4720, Note_on_c, 0, 75, 84
2, 4735, Note_on_c, 0, 75, 0
2, 4736, Note_on_c, 0, 77, 84
2, 4751, Note_on_c, 0, 77, 0
2, 4752, Note_on_c, 0, 79, 84
2, 4767, Note_on_c, 0, 79, 0
2, 4768, Note_on_c, 0, 77, 84
2, 4783, Note_on_c, 0, 77, 0
2, 4784, Note_on_c, 0, 75, 84
2, 4799, Note_on_c, 0, 75, 0
2, 4800, Note_on_c, 0, 77, 84
2, 4815, Note_on_c, 0, 77, 0
2, 4816, Note_on_c, 0, 80, 84
2, 4831, Note_on_c, 0, 80, 0
2, 4832, Note_on_c, 0, 79, 84
2, 4847, Note_on_c, 0, 79, 0
2, 4848, Note_on_c, 0, 77, 84
2, 4863, Note_on_c, 0, 77, 0
2, 4864, Note_on_c, 0, 75, 84
2, 4879, Note_on_c, 0, 75, 0
2, 4880, Note_on_c, 0, 74, 84
2, 4895, Note_on_c, 0, 74, 0
2, 4896, Note_on_c, 0, 72, 84
2, 4911, Note_on_c, 0, 72, 0
2, 4912, Note_on_c, 0, 70, 84
2, 4927, Note_on_c, 0, 70, 0
2, 4928, Note_on_c, 0, 68, 84
2, 4943, Note_on_c, 0, 68, 0
2, 4944, Note_on_c, 0, 67, 84
2, 4959, Note_on_c, 0, 67, 0
2, 4960, Note_on_c, 0, 65, 84
2, 4975, Note_on_c, 0, 65, 0
2, 4976, Note_on_c, 0, 63, 84
2, 4991, Note_on_c, 0, 63, 0
2, 5008, Note_on_c, 0, 62, 84
2, 5023, Note_on_c, 0, 62, 0
2, 5024, Note_on_c, 0, 63, 84
2, 5039, Note_on_c, 0, 63, 0
2, 5040, Note_on_c, 0, 65, 84
2, 5055, Note_on_c, 0, 65, 0
2, 5056, Note_on_c, 0, 63, 84
2, 5071, Note_on_c, 0, 63, 0
2, 5072, Note_on_c, 0, 62, 84
2, 5087, Note_on_c, 0, 62, 0
2, 5104, Note_on_c, 0, 63, 84
2, 5119, Note_on_c, 0, 63, 0
2, 5120, Note_on_c, 0, 65, 84
2, 5135, Note_on_c, 0, 65, 0
2, 5136, Note_on_c, 0, 67, 84
2, 5151, Note_on_c, 0, 67, 0
2, 5152, Note_on_c, 0, 65, 84
2, 5167, Note_on_c, 0, 65, 0
2, 5168, Note_on_c, 0, 63, 84
2, 5183, Note_on_c, 0, 63, 0
2, 5184, Note_on_c, 0, 65, 84
2, 5199, Note_on_c, 0, 65, 0
2, 5200, Note_on_c, 0, 68, 84
2, 5215, Note_on_c, 0, 68, 0
2, 5216, Note_on_c, 0, 67, 84
2, 5231, Note_on_c, 0, 67, 0
2, 5232, Note_on_c, 0, 65, 84
2, 5247, Note_on_c, 0, 65, 0
2, 5248, Note_on_c, 0, 63, 84
2, 5263, Note_on_c, 0, 63, 0
2, 5264, Note_on_c, 0, 62, 84
2, 5279, Note_on_c, 0, 62, 0
2, 5280, Note_on_c, 0, 60, 84
2, 5295, Note_on_c, 0, 60, 0
2, 5296, Note_on_c, 0, 58, 84
2, 5311, Note_on_c, 0, 58, 0
2, 5312, Note_on_c, 0, 56, 84
2, 5327, Note_on_c, 0, 56, 0
2, 5328, Note_on_c, 0, 55, 84
2, 5343, Note_on_c, 0, 55, 0
2, 5344, Note_on_c, 0, 53, 84
2, 5359, Note_on_c, 0, 53, 0
2, 5360, Note_on_c, 0, 51, 84
2, 5375, Note_on_c, 0, 51, 0
2, 5376, Note_on_c, 0, 50, 84
2, 5396, Note_on_c, 0, 50, 0
2, 5424, Note_on_c, 0, 51, 84
2, 5424, Note_on_c, 0, 48, 84
2, 5444, Note_on_c, 0, 51, 0
2, 5444, Note_on_c, 0, 48, 0
2, 5472, Note_on_c, 0, 53, 84
2, 5472, Note_on_c, 0, 50, 84
2, 5492, Note_on_c, 0, 53, 0
2, 5492, Note_on_c, 0, 50, 0
2, 5520, Note_on_c, 0, 55, 84
2, 5520, Note_on_c, 0, 51, 84
2, 5540, Note_on_c, 0, 55, 0
2, 5540, Note_on_c, 0, 51, 0
2, 5568, Note_on_c, 0, 56, 84
2, 5568, Note_on_c, 0, 53, 84
2, 5588, Note_on_c, 0, 56, 0
2, 5588, Note_on_c, 0, 53, 0
2, 5616, Note_on_c, 0, 53, 84
2, 5616, Note_on_c, 0, 50, 84
2, 5636, Note_on_c, 0, 53, 0
2, 5636, Note_on_c, 0, 50, 0
2, 5664, Note_on_c, 0, 55, 84
2, 5664, Note_on_c, 0, 51, 84
2, 5684, Note_on_c, 0, 55, 0
2, 5684, Note_on_c, 0, 51, 0
2, 5712, Note_on_c, 0, 58, 84
2, 5712, Note_on_c, 0, 55, 84
2, 5732, Note_on_c, 0, 58, 0
2, 5732, Note_on_c, 0, 55, 0
2, 5760, Note_on_c, 0, 50, 84
2, 5760, Note_on_c, 0, 46, 84
2, 5780, Note_on_c, 0, 50, 0
2, 5780, Note_on_c, 0, 46, 0
2, 5808, Note_on_c, 0, 51, 84
2, 5808, Note_on_c, 0, 48, 84
2, 5828, Note_on_c, 0, 51, 0
2, 5828, Note_on_c, 0, 48, 0
2, 5856, Note_on_c, 0, 53, 84
2, 5856, Note_on_c, 0, 50, 84
2, 5876, Note_on_c, 0, 53, 0
2, 5876, Note_on_c, 0, 50, 0
2, 5904, Note_on_c, 0, 55, 84
2, 5904, Note_on_c, 0, 51, 84
2, 5924, Note_on_c, 0, 55, 0
2, 5924, Note_on_c, 0, 51, 0
2, 5952, Note_on_c, 0, 56, 84
2, 5952, Note_on_c, 0, 53, 84
2, 5972, Note_on_c, 0, 56, 0
2, 5972, Note_on_c, 0, 53, 0
2, 6000, Note_on_c, 0, 53, 87
2, 6000, Note_on_c, 0, 50, 87
2, 6020, Note_on_c, 0, 53, 0
2, 6020, Note_on_c, 0, 50, 0
2, 6048, Note_on_c, 0, 55, 91
2, 6048, Note_on_c, 0, 51, 91
2, 6068, Note_on_c, 0, 55, 0
2, 6068, Note_on_c, 0, 51, 0
2, 6096, Note_on_c, 0, 57, 95
2, 6096, Note_on_c, 0, 51, 95
2, 6096, Note_on_c, 0, 48, 95
2, 6116, Note_on_c, 0, 57, 0
2, 6116, Note_on_c, 0, 51, 0
2, 6116, Note_on_c, 0, 48, 0
2, 6144, Note_on_c, 0, 58, 98
2, 6144, Note_on_c, 0, 53, 98
2, 6144, Note_on_c, 0, 50, 98
2, 6329, Note_on_c, 0, 58, 0
2, 6329, Note_on_c, 0, 53, 0
2, 6329, Note_on_c, 0, 50, 0
2, 6528, Note_on_c, 0, 82, 69
2, 6528, Note_on_c, 0, 79, 69
2, 6617, Note_on_c, 0, 82, 0
2, 6617, Note_on_c, 0, 79, 0
2, 6624, Note_on_c, 0, 82, 69
2, 6624, Note_on_c, 0, 80, 69
2, 6713, Note_on_c, 0, 82, 0
2, 6713, Note_on_c, 0, 80, 0
2, 6720, Note_on_c, 0, 82, 69
2, 6720, Note_on_c, 0, 79, 69
2, 6735, Note_on_c, 0, 82, 0
2, 6735, Note_on_c, 0, 79, 0
2, 6736, Note_on_c, 0, 79, 69
2, 6751, Note_on_c, 0, 79, 0
2, 6752, Note_on_c, 0, 80, 69
2, 6767, Note_on_c, 0, 80, 0
2, 6768, Note_on_c, 0, 82, 69
2, 6783, Note_on_c, 0, 82, 0
2, 6784, Note_on_c, 0, 80, 69
2, 6799, Note_on_c, 0, 80, 0
2, 6800, Note_on_c, 0, 79, 69
2, 6815, Note_on_c, 0, 79, 0
2, 6816, Note_on_c, 0, 87, 69
2, 6831, Note_on_c, 0, 87, 0
2, 6832, Note_on_c, 0, 86, 69
2, 6847, Note_on_c, 0, 86, 0
2, 6848, Note_on_c, 0, 84, 69
2, 6863, Note_on_c, 0, 84, 0
2, 6864, Note_on_c, 0, 82, 69
2, 6879, Note_on_c, 0, 82, 0
2, 6880, Note_on_c, 0, 80, 69
2, 6895, Note_on_c, 0, 80, 0
2, 6896, Note_on_c, 0, 79, 69
2, 6911, Note_on_c, 0, 79, 0
2, 6912, Note_on_c, 0, 82, 61
2, 6912, Note_on_c, 0, 79, 61
2, 7001, Note_on_c, 0, 82, 0
2, 7001, Note_on_c, 0, 79, 0
2, 7008, Note_on_c, 0, 82, 61
2, 7008, Note_on_c, 0, 80, 61
2, 7097, Note_on_c, 0, 82, 0
2, 7097, Note_on_c, 0, 80, 0
2, 7104, Note_on_c, 0, 82, 61
2, 7104, Note_on_c, 0, 79, 61
2, 7119, Note_on_c, 0, 82, 0
2, 7119, Note_on_c, 0, 79, 0
2, 7120, Note_on_c, 0, 79, 61
2, 7135, Note_on_c, 0, 79, 0
2, 7136, Note_on_c, 0, 80, 61
2, 7151, Note_on_c, 0, 80, 0
2, 7152, Note_on_c, 0, 82, 61
2, 7167, Note_on_c, 0, 82, 0
2, 7168, Note_on_c, 0, 80, 61
2, 7183, Note_on_c, 0, 80, 0
2, 7184, Note_on_c, 0, 79, 61
2, 7199, Note_on_c, 0, 79, 0
2, 7200, Note_on_c, 0, 87, 61
2, 7215, Note_on_c, 0, 87, 0
2, 7216, Note_on_c, 0, 86, 61
2, 7231, Note_on_c, 0, 86, 0
2, 7232, Note_on_c, 0, 84, 61
2, 7247, Note_on_c, 0, 84, 0
2, 7248, Note_on_c, 0, 82, 61
2, 7263, Note_on_c, 0, 82, 0
2, 7264, Note_on_c, 0, 80, 61
2, 7279, Note_on_c, 0, 80, 0
2, 7280, Note_on_c, 0, 79, 61
2, 7295, Note_on_c, 0, 79, 0
2, 7296, Note_on_c, 0, 77, 69
2, 7311, Note_on_c, 0, 77, 0
2, 7312, Note_on_c, 0, 77, 69
2, 7327, Note_on_c, 0, 77, 0
2, 7328, Note_on_c, 0, 79, 69
2, 7343, Note_on_c, 0, 79, 0
2, 7344, Note_on_c, 0, 80, 69
2, 7359, Note_on_c, 0, 80, 0
2, 7360, Note_on_c, 0, 79, 69
2, 7375, Note_on_c, 0, 79, 0
2, 7376, Note_on_c, 0, 77, 69
2, 7391, Note_on_c, 0, 77, 0
2, 7392, Note_on_c, 0, 84, 69
2, 7407, Note_on_c, 0, 84, 0
2, 7408, Note_on_c, 0, 82, 69
2, 7423, Note_on_c, 0, 82, 0
2, 7424, Note_on_c, 0, 80, 69
2, 7439, Note_on_c, 0, 80, 0
2, 7440, Note_on_c, 0, 79, 69
2, 7455, Note_on_c, 0, 79, 0
2, 7456, Note_on_c, 0, 77, 69
2, 7471, Note_on_c, 0, 77, 0
2, 7472, Note_on_c, 0, 75, 69
2, 7487, Note_on_c, 0, 75, 0
2, 7488, Note_on_c, 0, 74, 69
2, 7503, Note_on_c, 0, 74, 0
2, 7504, Note_on_c, 0, 77, 69
2, 7519, Note_on_c, 0, 77, 0
2, 7520, Note_on_c, 0, 75, 69
2, 7535, Note_on_c, 0, 75, 0
2, 7536, Note_on_c, 0, 74, 69
2, 7551, Note_on_c, 0, 74, 0
2, 7552, Note_on_c, 0, 72, 69
2, 7567, Note_on_c, 0, 72, 0
2, 7568, Note_on_c, 0, 70, 69
2, 7583, Note_on_c, 0, 70, 0
2, 7584, Note_on_c, 0, 68, 69
2, 7599, Note_on_c, 0, 68, 0
2, 7600, Note_on_c, 0, 67, 69
2, 7615, Note_on_c, 0, 67, 0
2, 7616, Note_on_c, 0, 65, 70
2, 7631, Note_on_c, 0, 65, 0
2, 7632, Note_on_c, 0, 63, 71
2, 7647, Note_on_c, 0, 63, 0
2, 7648, Note_on_c, 0, 62, 72
2, 7663, Note_on_c, 0, 62, 0
2, 7664, Note_on_c, 0, 60, 72
2, 7679, Note_on_c, 0, 60, 0
2, 7680, Note_on_c, 0, 58, 91
2, 7696, Note_on_c, 0, 58, 0
2, 7696, Note_on_c, 0, 62, 75
2, 7711, Note_on_c, 0, 62, 0
2, 7712, Note_on_c, 0, 65, 75
2, 7727, Note_on_c, 0, 65, 0
2, 7728, Note_on_c, 0, 58, 75
2, 7743, Note_on_c, 0, 58, 0
2, 7744, Note_on_c, 0, 62, 75
2, 7759, Note_on_c, 0, 62, 0
2, 7760, Note_on_c, 0, 63, 75
2, 7775, Note_on_c, 0, 63, 0
2, 7776, Note_on_c, 0, 56, 75
2, 7791, Note_on_c, 0, 56, 0
2, 7792, Note_on_c, 0, 58, 75
2, 7807, Note_on_c, 0, 58, 0
2, 7808, Note_on_c, 0, 62, 75
2, 7823, Note_on_c, 0, 62, 0
2, 7824, Note_on_c, 0, 55, 75
2, 7839, Note_on_c, 0, 55, 0
2, 7840, Note_on_c, 0, 58, 75
2, 7855, Note_on_c, 0, 58, 0
2, 7856, Note_on_c, 0, 63, 75
2, 7871, Note_on_c, 0, 63, 0
2, 7872, Note_on_c, 0, 58, 91
2, 7888, Note_on_c, 0, 58, 0
2, 7888, Note_on_c, 0, 62, 75
2, 7903, Note_on_c, 0, 62, 0
2, 7904, Note_on_c, 0, 65, 75
2, 7919, Note_on_c, 0, 65, 0
2, 7920, Note_on_c, 0, 58, 75
2, 7935, Note_on_c, 0, 58, 0
2, 7936, Note_on_c, 0, 62, 75
2, 7951, Note_on_c, 0, 62, 0
2, 7952, Note_on_c, 0, 63, 75
2, 7967, Note_on_c, 0, 63, 0
2, 7968, Note_on_c, 0, 56, 75
2, 7983, Note_on_c, 0, 56, 0
2, 7984, Note_on_c, 0, 58, 75
2, 7999, Note_on_c, 0, 58, 0
2, 8000, Note_on_c, 0, 62, 75
2, 8015, Note_on_c, 0, 62, 0
2, 8016, Note_on_c, 0, 55, 75
2, 8031, Note_on_c, 0, 55, 0
2, 8032, Note_on_c, 0, 58, 75
2, 8047, Note_on_c, 0, 58, 0
2, 8048, Note_on_c, 0, 63, 75
2, 8063, Note_on_c, 0, 63, 0
2, 8080, Note_on_c, 0, 60, 75
2, 8095, Note_on_c, 0, 60, 0
2, 8096, Note_on_c, 0, 65, 75
2, 8111, Note_on_c, 0, 65, 0
2, 8112, Note_on_c, 0, 68, 75
2, 8127, Note_on_c, 0, 68, 0
2, 8128, Note_on_c, 0, 65, 75
2, 8143, Note_on_c, 0, 65, 0
2, 8144, Note_on_c, 0, 68, 75
2, 8159, Note_on_c, 0, 68, 0
2, 8160, Note_on_c, 0, 72, 75
2, 8175, Note_on_c, 0, 72, 0
2, 8176, Note_on_c, 0, 68, 75
2, 8191, Note_on_c, 0, 68, 0
2, 8192, Note_on_c, 0, 72, 75
2, 8207, Note_on_c, 0, 72, 0
2, 8208, Note_on_c, 0, 77, 75
2, 8223, Note_on_c, 0, 77, 0
2, 8224, Note_on_c, 0, 72, 75
2, 8239, Note_on_c, 0, 72, 0
2, 8240, Note_on_c, 0, 77, 75
2, 8255, Note_on_c, 0, 77, 0
2, 8256, Note_on_c, 0, 80, 75
2, 8271, Note_on_c, 0, 80, 0
2, 8272, Note_on_c, 0, 77, 76
2, 8287, Note_on_c, 0, 77, 0
2, 8288, Note_on_c, 0, 80, 77
2, 8303, Note_on_c, 0, 80, 0
2, 8304, Note_on_c, 0, 84, 78
2, 8319, Note_on_c, 0, 84, 0
2, 8320, Note_on_c, 0, 77, 79
2, 8335, Note_on_c, 0, 77, 0
2, 8336, Note_on_c, 0, 80, 80
2, 8351, Note_on_c, 0, 80, 0
2, 8352, Note_on_c, 0, 84, 81
2, 8367, Note_on_c, 0, 84, 0
2, 8368, Note_on_c, 0, 82, 84
2, 8383, Note_on_c, 0, 82, 0
2, 8384, Note_on_c, 0, 80, 84
2, 8399, Note_on_c, 0, 80, 0
2, 8400, Note_on_c, 0, 79, 84
2, 8415, Note_on_c, 0, 79, 0
2, 8416, Note_on_c, 0, 77, 84
2, 8431, Note_on_c, 0, 77, 0
2, 8432, Note_on_c, 0, 75, 84
2, 8447, Note_on_c, 0, 75, 0
2, 8448, Note_on_c, 0, 75, 84
2, 8635, Note_on_c, 0, 75, 0
2, 8640, Note_on_c, 0, 74, 84
2, 8646, Note_on_c, 0, 74, 0
2, 8646, Note_on_c, 0, 75, 84
2, 8652, Note_on_c, 0, 75, 0
2, 8652, Note_on_c, 0, 74, 84
2, 8825, Note_on_c, 0, 74, 0
2, 8832, Note_on_c, 0, 64, 75
2, 9009, Note_on_c, 0, 64, 0
2, 9024, Note_on_c, 0, 65, 75
2, 9201, Note_on_c, 0, 65, 0
2, 9216, Note_on_c, 0, 61, 101
2, 9408, Note_on_c, 0, 61, 0
2, 9408, Note_on_c, 0, 60, 75
2, 9453, Note_on_c, 0, 60, 0
2, 9456, Note_on_c, 0, 71, 75
2, 9462, Note_on_c, 0, 71, 0
2, 9462, Note_on_c, 0, 72, 75
2, 9501, Note_on_c, 0, 72, 0
2, 9504, Note_on_c, 0, 67, 75
2, 9510, Note_on_c, 0, 67, 0
2, 9510, Note_on_c, 0, 68, 75
2, 9549, Note_on_c, 0, 68, 0
2, 9552, Note_on_c, 0, 64, 75
2, 9558, Note_on_c, 0, 64, 0
2, 9558, Note_on_c, 0, 65, 75
2, 9597, Note_on_c, 0, 65, 0
2, 9600, Note_on_c, 0, 60, 75
2, 9645, Note_on_c, 0, 60, 0
2, 9648, Note_on_c, 0, 71, 61
2, 9672, Note_on_c, 0, 71, 0
2, 9672, Note_on_c, 0, 72, 61
2, 9682, Note_on_c, 0, 72, 0
2, 9696, Note_on_c, 0, 67, 61
2, 9720, Note_on_c, 0, 67, 0
2, 9720, Note_on_c, 0, 68, 61
2, 9730, Note_on_c, 0, 68, 0
2, 9744, Note_on_c, 0, 64, 61
2, 9768, Note_on_c, 0, 64, 0
2, 9768, Note_on_c, 0, 65, 61
2, 9778, Note_on_c, 0, 65, 0
2, 9792, Note_on_c, 0, 60, 61
2, 9837, Note_on_c, 0, 60, 0
2, 9840, Note_on_c, 0, 71, 69
2, 9864, Note_on_c, 0, 71, 0
2, 9864, Note_on_c, 0, 72, 69
2, 9887, Note_on_c, 0, 72, 0
2, 9888, Note_on_c, 0, 70, 69
2, 9911, Note_on_c, 0, 70, 0
2, 9912, Note_on_c, 0, 68, 69
2, 9935, Note_on_c, 0, 68, 0
2, 9936, Note_on_c, 0, 67, 69
2, 9959, Note_on_c, 0, 67, 0
2, 9960, Note_on_c, 0, 65, 69
2, 9983, Note_on_c, 0, 65, 0
2, 9984, Note_on_c, 0, 67, 75
2, 9990, Note_on_c, 0, 67, 0
2, 9990, Note_on_c, 0, 68, 75
2, 9996, Note_on_c, 0, 68, 0
2, 9996, Note_on_c, 0, 70, 75
2, 10103, Note_on_c, 0, 70, 0
2, 10104, Note_on_c, 0, 68, 75
2, 10116, Note_on_c, 0, 68, 0
2, 10116, Note_on_c, 0, 67, 75
2, 10128, Note_on_c, 0, 67, 0
2, 10128, Note_on_c, 0, 65, 75
2, 10140, Note_on_c, 0, 65, 0
2, 10140, Note_on_c, 0, 63, 75
2, 10152, Note_on_c, 0, 63, 0
2, 10152, Note_on_c, 0, 62, 75
2, 10164, Note_on_c, 0, 62, 0
2, 10164, Note_on_c, 0, 60, 75
2, 10176, Note_on_c, 0, 60, 0
2, 10176, Note_on_c, 0, 58, 75
2, 10265, Note_on_c, 0, 58, 0
2, 10272, Note_on_c, 0, 56, 75
2, 10281, Note_on_c, 0, 56, 0
2, 10281, Note_on_c, 0, 58, 75
2, 10290, Note_on_c, 0, 58, 0
2, 10290, Note_on_c, 0, 56, 75
2, 10299, Note_on_c, 0, 56, 0
2, 10299, Note_on_c, 0, 58, 75
2, 10308, Note_on_c, 0, 58, 0
2, 10308, Note_on_c, 0, 56, 75
2, 10317, Note_on_c, 0, 56, 0
2, 10317, Note_on_c, 0, 58, 75
2, 10326, Note_on_c, 0, 58, 0
2, 10326, Note_on_c, 0, 56, 75
2, 10335, Note_on_c, 0, 56, 0
2, 10335, Note_on_c, 0, 55, 75
2, 10352, Note_on_c, 0, 55, 0
2, 10352, Note_on_c, 0, 56, 75
2, 10368, Note_on_c, 0, 56, 0
2, 10368, Note_on_c, 0, 55, 75
2, 10388, Note_on_c, 0, 55, 0
2, 10416, Note_on_c, 0, 63, 91
2, 10512, Note_on_c, 0, 63, 0
2, 10512, Note_on_c, 0, 61, 75
2, 10601, Note_on_c, 0, 61, 0
2, 10608, Note_on_c, 0, 60, 75
2, 10697, Note_on_c, 0, 60, 0
2, 10704, Note_on_c, 0, 64, 75
2, 10749, Note_on_c, 0, 64, 0
2, 10752, Note_on_c, 0, 67, 75
2, 10758, Note_on_c, 0, 67, 0
2, 10758, Note_on_c, 0, 65, 75
2, 10764, Note_on_c, 0, 65, 0
2, 10764, Note_on_c, 0, 64, 75
2, 10770, Note_on_c, 0, 64, 0
2, 10770, Note_on_c, 0, 65, 75
2, 10797, Note_on_c, 0, 65, 0
2, 10800, Note_on_c, 0, 67, 75
2, 10845, Note_on_c, 0, 67, 0
2, 10848, Note_on_c, 0, 70, 76
2, 10854, Note_on_c, 0, 70, 0
2, 10854, Note_on_c, 0, 68, 76
2, 10860, Note_on_c, 0, 68, 0
2, 10860, Note_on_c, 0, 67, 76
2, 10866, Note_on_c, 0, 67, 0
2, 10866, Note_on_c, 0, 68, 76
2, 10893, Note_on_c, 0, 68, 0
2, 10896, Note_on_c, 0, 71, 77
2, 10941, Note_on_c, 0, 71, 0
2, 10944, Note_on_c, 0, 74, 78
2, 10950, Note_on_c, 0, 74, 0
2, 10950, Note_on_c, 0, 72, 78
2, 10956, Note_on_c, 0, 72, 0
2, 10956, Note_on_c, 0, 71, 78
2, 10962, Note_on_c, 0, 71, 0
2, 10962, Note_on_c, 0, 72, 78
2, 10989, Note_on_c, 0, 72, 0
2, 10992, Note_on_c, 0, 76, 79
2, 10998, Note_on_c, 0, 76, 0
2, 10998, Note_on_c, 0, 79, 79
2, 11037, Note_on_c, 0, 79, 0
2, 11040, Note_on_c, 0, 77, 80
2, 11046, Note_on_c, 0, 77, 0
2, 11046, Note_on_c, 0, 80, 80
2, 11085, Note_on_c, 0, 80, 0
2, 11088, Note_on_c, 0, 79, 81
2, 11094, Note_on_c, 0, 79, 0
2, 11094, Note_on_c, 0, 82, 81
2, 11133, Note_on_c, 0, 82, 0
2, 11136, Note_on_c, 0, 80, 82
2, 11142, Note_on_c, 0, 80, 0
2, 11142, Note_on_c, 0, 84, 82
2, 11255, Note_on_c, 0, 84, 0
2, 11256, Note_on_c, 0, 82, 84
2, 11268, Note_on_c, 0, 82, 0
2, 11268, Note_on_c, 0, 80, 84
2, 11280, Note_on_c, 0, 80, 0
2, 11280, Note_on_c, 0, 82, 84
2, 11292, Note_on_c, 0, 82, 0
2, 11292, Note_on_c, 0, 80, 84
2, 11304, Note_on_c, 0, 80, 0
2, 11304, Note_on_c, 0, 79, 84
2, 11316, Note_on_c, 0, 79, 0
2, 11316, Note_on_c, 0, 77, 84
2, 11328, Note_on_c, 0, 77, 0
2, 11328, Note_on_c, 0, 79, 84
2, 11340, Note_on_c, 0, 79, 0
2, 11340, Note_on_c, 0, 80, 84
2, 11352, Note_on_c, 0, 80, 0
2, 11352, Note_on_c, 0, 82, 84
2, 11364, Note_on_c, 0, 82, 0
2, 11364, Note_on_c, 0, 80, 84
2, 11376, Note_on_c, 0, 80, 0
2, 11376, Note_on_c, 0, 79, 84
2, 11388, Note_on_c, 0, 79, 0
2, 11388, Note_on_c, 0, 77, 84
2, 11400, Note_on_c, 0, 77, 0
2, 11400, Note_on_c, 0, 75, 84
2, 11412, Note_on_c, 0, 75, 0
2, 11412, Note_on_c, 0, 74, 84
2, 11424, Note_on_c, 0, 74, 0
2, 11424, Note_on_c, 0, 72, 84
2, 11436, Note_on_c, 0, 72, 0
2, 11436, Note_on_c, 0, 70, 84
2, 11448, Note_on_c, 0, 70, 0
2, 11448, Note_on_c, 0, 68, 84
2, 11460, Note_on_c, 0, 68, 0
2, 11460, Note_on_c, 0, 67, 84
2, 11472, Note_on_c, 0, 67, 0
2, 11472, Note_on_c, 0, 65, 84
2, 11484, Note_on_c, 0, 65, 0
2, 11484, Note_on_c, 0, 63, 83
2, 11496, Note_on_c, 0, 63, 0
2, 11496, Note_on_c, 0, 62, 82
2, 11508, Note_on_c, 0, 62, 0
2, 11508, Note_on_c, 0, 60, 81
2, 11520, Note_on_c, 0, 60, 0
2, 11520, Note_on_c, 0, 58, 97
2, 11712, Note_on_c, 0, 58, 0
2, 11712, Note_on_c, 0, 57, 111
2, 11875, Note_on_c, 0, 57, 0
2, 11880, Note_on_c, 0, 58, 69
2, 11903, Note_on_c, 0, 58, 0
2, 11904, Note_on_c, 0, 56, 111
2, 11976, Note_on_c, 0, 56, 0
2, 11976, Note_on_c, 0, 58, 69
2, 11999, Note_on_c, 0, 58, 0
2, 12000, Note_on_c, 0, 56, 85
2, 12036, Note_on_c, 0, 56, 0
2, 12036, Note_on_c, 0, 58, 69
2, 12048, Note_on_c, 0, 58, 0
2, 12048, Note_on_c, 0, 56, 85
2, 12084, Note_on_c, 0, 56, 0
2, 12084, Note_on_c, 0, 58, 69
2, 12096, Note_on_c, 0, 58, 0
2, 12096, Note_on_c, 0, 55, 85
2, 12112, Note_on_c, 0, 55, 0
2, 12112, Note_on_c, 0, 58, 69
2, 12127, Note_on_c, 0, 58, 0
2, 12128, Note_on_c, 0, 63, 69
2, 12143, Note_on_c, 0, 63, 0
2, 12144, Note_on_c, 0, 55, 69
2, 12159, Note_on_c, 0, 55, 0
2, 12160, Note_on_c, 0, 58, 69
2, 12175, Note_on_c, 0, 58, 0
2, 12176, Note_on_c, 0, 63, 69
2, 12191, Note_on_c, 0, 63, 0
2, 12192, Note_on_c, 0, 58, 69
2, 12207, Note_on_c, 0, 58, 0
2, 12208, Note_on_c, 0, 62, 69
2, 12223, Note_on_c, 0, 62, 0
2, 12224, Note_on_c, 0, 65, 69
2, 12239, Note_on_c, 0, 65, 0
2, 12240, Note_on_c, 0, 62, 69
2, 12255, Note_on_c, 0, 62, 0
2, 12256, Note_on_c, 0, 65, 69
2, 12271, Note_on_c, 0, 65, 0
2, 12272, Note_on_c, 0, 68, 69
2, 12287, Note_on_c, 0, 68, 0
2, 12288, Note_on_c, 0, 67, 69
2, 12303, Note_on_c, 0, 67, 0
2, 12304, Note_on_c, 0, 70, 69
2, 12319, Note_on_c, 0, 70, 0
2, 12320, Note_on_c, 0, 75, 70
2, 12335, Note_on_c, 0, 75, 0
2, 12336, Note_on_c, 0, 67, 71
2, 12351, Note_on_c, 0, 67, 0
2, 12352, Note_on_c, 0, 70, 72
2, 12367, Note_on_c, 0, 70, 0
2, 12368, Note_on_c, 0, 75, 73
2, 12383, Note_on_c, 0, 75, 0
2, 12384, Note_on_c, 0, 70, 74
2, 12399, Note_on_c, 0, 70, 0
2, 12400, Note_on_c, 0, 74, 75
2, 12415, Note_on_c, 0, 74, 0
2, 12416, Note_on_c, 0, 77, 76
2, 12431, Note_on_c, 0, 77, 0
2, 12432, Note_on_c, 0, 74, 76
2, 12447, Note_on_c, 0, 74, 0
2, 12448, Note_on_c, 0, 77, 77
2, 12463, Note_on_c, 0, 77, 0
2, 12464, Note_on_c, 0, 80, 78
2, 12479, Note_on_c, 0, 80, 0
2, 12480, Note_on_c, 0, 79, 79
2, 12495, Note_on_c, 0, 79, 0
2, 12496, Note_on_c, 0, 80, 84
2, 12511, Note_on_c, 0, 80, 0
2, 12512, Note_on_c, 0, 82, 84
2, 12527, Note_on_c, 0, 82, 0
2, 12528, Note_on_c, 0, 80, 84
2, 12543, Note_on_c, 0, 80, 0
2, 12544, Note_on_c, 0, 79, 84
2, 12559, Note_on_c, 0, 79, 0
2, 12560, Note_on_c, 0, 77, 84
2, 12575, Note_on_c, 0, 77, 0
2, 12576, Note_on_c, 0, 75, 84
2, 12591, Note_on_c, 0, 75, 0
2, 12592, Note_on_c, 0, 74, 84
2, 12607, Note_on_c, 0, 74, 0
2, 12608, Note_on_c, 0, 72, 84
2, 12623, Note_on_c, 0, 72, 0
2, 12624, Note_on_c, 0, 70, 84
2, 12639, Note_on_c, 0, 70, 0
2, 12640, Note_on_c, 0, 68, 84
2, 12655, Note_on_c, 0, 68, 0
2, 12656, Note_on_c, 0, 67, 84
2, 12671, Note_on_c, 0, 67, 0
2, 12672, Note_on_c, 0, 65, 84
2, 12687, Note_on_c, 0, 65, 0
2, 12688, Note_on_c, 0, 68, 84
2, 12703, Note_on_c, 0, 68, 0
2, 12704, Note_on_c, 0, 67, 84
2, 12719, Note_on_c, 0, 67, 0
2, 12720, Note_on_c, 0, 65, 84
2, 12735, Note_on_c, 0, 65, 0
2, 12736, Note_on_c, 0, 72, 84
2, 12751, Note_on_c, 0, 72, 0
2, 12752, Note_on_c, 0, 70, 84
2, 12767, Note_on_c, 0, 70, 0
2, 12768, Note_on_c, 0, 68, 84
2, 12783, Note_on_c, 0, 68, 0
2, 12784, Note_on_c, 0, 67, 84
2, 12799, Note_on_c, 0, 67, 0
2, 12800, Note_on_c, 0, 65, 84
2, 12815, Note_on_c, 0, 65, 0
2, 12816, Note_on_c, 0, 63, 84
2, 12831, Note_on_c, 0, 63, 0
2, 12832, Note_on_c, 0, 62, 84
2, 12847, Note_on_c, 0, 62, 0
2, 12848, Note_on_c, 0, 60, 84
2, 12863, Note_on_c, 0, 60, 0
2, 12864, Note_on_c, 0, 58, 84
2, 12931, Note_on_c, 0, 58, 0
2, 12936, Note_on_c, 0, 63, 78
2, 12948, Note_on_c, 0, 63, 0
2, 12948, Note_on_c, 0, 65, 77
2, 12960, Note_on_c, 0, 65, 0
2, 12960, Note_on_c, 0, 67, 76
2, 12968, Note_on_c, 0, 67, 0
2, 12968, Note_on_c, 0, 65, 76
2, 12976, Note_on_c, 0, 65, 0
2, 12976, Note_on_c, 0, 67, 75
2, 12984, Note_on_c, 0, 67, 0
2, 12984, Note_on_c, 0, 65, 75
2, 12992, Note_on_c, 0, 65, 0
2, 12992, Note_on_c, 0, 67, 74
2, 13000, Note_on_c, 0, 67, 0
2, 13000, Note_on_c, 0, 65, 74
2, 13008, Note_on_c, 0, 65, 0
2, 13008, Note_on_c, 0, 67, 73
2, 13016, Note_on_c, 0, 67, 0
2, 13016, Note_on_c, 0, 65, 73
2, 13024, Note_on_c, 0, 65, 0
2, 13024, Note_on_c, 0, 63, 72
2, 13040, Note_on_c, 0, 63, 0
2, 13040, Note_on_c, 0, 65, 71
2, 13056, Note_on_c, 0, 65, 0
2, 13056, Note_on_c, 0, 55, 69
2, 13071, Note_on_c, 0, 55, 0
2, 13072, Note_on_c, 0, 58, 69
2, 13087, Note_on_c, 0, 58, 0
2, 13088, Note_on_c, 0, 63, 69
2, 13103, Note_on_c, 0, 63, 0
2, 13104, Note_on_c, 0, 55, 69
2, 13119, Note_on_c, 0, 55, 0
2, 13120, Note_on_c, 0, 58, 69
2, 13135, Note_on_c, 0, 58, 0
2, 13136, Note_on_c, 0, 63, 69
2, 13151, Note_on_c, 0, 63, 0
2, 13152, Note_on_c, 0, 58, 69
2, 13167, Note_on_c, 0, 58, 0
2, 13168, Note_on_c, 0, 62, 69
2, 13183, Note_on_c, 0, 62, 0
2, 13184, Note_on_c, 0, 65, 69
2, 13199, Note_on_c, 0, 65, 0
2, 13200, Note_on_c, 0, 62, 69
2, 13215, Note_on_c, 0, 62, 0
2, 13216, Note_on_c, 0, 65, 69
2, 13231, Note_on_c, 0, 65, 0
2, 13232, Note_on_c, 0, 68, 69
2, 13247, Note_on_c, 0, 68, 0
2, 13248, Note_on_c, 0, 67, 69
2, 13263, Note_on_c, 0, 67, 0
2, 13264, Note_on_c, 0, 70, 69
2, 13279, Note_on_c, 0, 70, 0
2, 13280, Note_on_c, 0, 75, 70
2, 13295, Note_on_c, 0, 75, 0
2, 13296, Note_on_c, 0, 67, 71
2, 13311, Note_on_c, 0, 67, 0
2, 13312, Note_on_c, 0, 70, 72
2, 13327, Note_on_c, 0, 70, 0
2, 13328, Note_on_c, 0, 75, 73
2, 13343, Note_on_c, 0, 75, 0
2, 13344, Note_on_c, 0, 70, 74
2, 13359, Note_on_c, 0, 70, 0
2, 13360, Note_on_c, 0, 74, 75
2, 13375, Note_on_c, 0, 74, 0
2, 13376, Note_on_c, 0, 77, 76
2, 13391, Note_on_c, 0, 77, 0
2, 13392, Note_on_c, 0, 74, 76
2, 13407, Note_on_c, 0, 74, 0
2, 13408, Note_on_c, 0, 77, 77
2, 13423, Note_on_c, 0, 77, 0
2, 13424, Note_on_c, 0, 80, 78
2, 13439, Note_on_c, 0, 80, 0
2, 13440, Note_on_c, 0, 79, 79
2, 13455, Note_on_c, 0, 79, 0
2, 13456, Note_on_c, 0, 80, 84
2, 13471, Note_on_c, 0, 80, 0
2, 13472, Note_on_c, 0, 82, 84
2, 13487, Note_on_c, 0, 82, 0
2, 13488, Note_on_c, 0, 80, 84
2, 13503, Note_on_c, 0, 80, 0
2, 13504, Note_on_c, 0, 79, 84
2, 13519, Note_on_c, 0, 79, 0
2, 13520, Note_on_c, 0, 77, 84
2, 13535, Note_on_c, 0, 77, 0
2, 13536, Note_on_c, 0, 75, 84
2, 13551, Note_on_c, 0, 75, 0
2, 13552, Note_on_c, 0, 74, 84
2, 13567, Note_on_c, 0, 74, 0
2, 13568, Note_on_c, 0, 72, 84
2, 13583, Note_on_c, 0, 72, 0
2, 13584, Note_on_c, 0, 70, 84
2, 13599, Note_on_c, 0, 70, 0
2, 13600, Note_on_c, 0, 68, 84
2, 13615, Note_on_c, 0, 68, 0
2, 13616, Note_on_c, 0, 67, 84
2, 13631, Note_on_c, 0, 67, 0
2, 13632, Note_on_c, 0, 65, 84
2, 13647, Note_on_c, 0, 65, 0
2, 13648, Note_on_c, 0, 68, 84
2, 13663, Note_on_c, 0, 68, 0
2, 13664, Note_on_c, 0, 67, 84
2, 13679, Note_on_c, 0, 67, 0
2, 13680, Note_on_c, 0, 65, 84
2, 13695, Note_on_c, 0, 65, 0
2, 13696, Note_on_c, 0, 72, 84
2, 13711, Note_on_c, 0, 72, 0
2, 13712, Note_on_c, 0, 70, 84
2, 13727, Note_on_c, 0, 70, 0
2, 13728, Note_on_c, 0, 68, 84
2, 13743, Note_on_c, 0, 68, 0
2, 13744, Note_on_c, 0, 67, 84
2, 13759, Note_on_c, 0, 67, 0
2, 13760, Note_on_c, 0, 65, 84
2, 13775, Note_on_c, 0, 65, 0
2, 13776, Note_on_c, 0, 63, 84
2, 13791, Note_on_c, 0, 63, 0
2, 13792, Note_on_c, 0, 62, 84
2, 13807, Note_on_c, 0, 62, 0
2, 13808, Note_on_c, 0, 60, 84
2, 13823, Note_on_c, 0, 60, 0
2, 13824, Note_on_c, 0, 58, 84
2, 13891, Note_on_c, 0, 58, 0
2, 13896, Note_on_c, 0, 63, 84
2, 13908, Note_on_c, 0, 63, 0
2, 13908, Note_on_c, 0, 65, 83
2, 13920, Note_on_c, 0, 65, 0
2, 13920, Note_on_c, 0, 67, 82
2, 13928, Note_on_c, 0, 67, 0
2, 13928, Note_on_c, 0, 65, 82
2, 13936, Note_on_c, 0, 65, 0
2, 13936, Note_on_c, 0, 67, 81
2, 13944, Note_on_c, 0, 67, 0
2, 13944, Note_on_c, 0, 65, 81
2, 13952, Note_on_c, 0, 65, 0
2, 13952, Note_on_c, 0, 67, 81
2, 13960, Note_on_c, 0, 67, 0
2, 13960, Note_on_c, 0, 65, 80
2, 13968, Note_on_c, 0, 65, 0
2, 13968, Note_on_c, 0, 67, 80
2, 13976, Note_on_c, 0, 67, 0
2, 13976, Note_on_c, 0, 65, 80
2, 13984, Note_on_c, 0, 65, 0
2, 13984, Note_on_c, 0, 63, 79
2, 14000, Note_on_c, 0, 63, 0
2, 14000, Note_on_c, 0, 65, 79
2, 14016, Note_on_c, 0, 65, 0
2, 14016, Note_on_c, 0, 63, 94
2, 14112, Note_on_c, 0, 63, 0
2, 14112, Note_on_c, 0, 72, 73
2, 14112, Note_on_c, 0, 68, 73
2, 14157, Note_on_c, 0, 72, 0
2, 14157, Note_on_c, 0, 68, 0
2, 14160, Note_on_c, 0, 62, 69
2, 14160, Note_on_c, 0, 58, 69
2, 14208, Note_on_c, 0, 62, 0
2, 14208, Note_on_c, 0, 63, 69
2, 14253, Note_on_c, 0, 63, 0
2, 14253, Note_on_c, 0, 58, 0
2, 14304, Note_on_c, 0, 72, 61
2, 14304, Note_on_c, 0, 68, 61
2, 14349, Note_on_c, 0, 72, 0
2, 14349, Note_on_c, 0, 68, 0
2, 14352, Note_on_c, 0, 62, 61
2, 14352, Note_on_c, 0, 58, 61
2, 14400, Note_on_c, 0, 62, 0
2, 14400, Note_on_c, 0, 63, 61
2, 14467, Note_on_c, 0, 63, 0
2, 14467, Note_on_c, 0, 58, 0
2, 14592, Note_on_c, 0, 68, 84
2, 14598, Note_on_c, 0, 68, 0
2, 14598, Note_on_c, 0, 67, 84
2, 14604, Note_on_c, 0, 67, 0
2, 14604, Note_on_c, 0, 68, 84
2, 14771, Note_on_c, 0, 68, 0
2, 14784, Note_on_c, 0, 77, 84
2, 14790, Note_on_c, 0, 77, 0
2, 14790, Note_on_c, 0, 75, 84
2, 14947, Note_on_c, 0, 75, 0
2, 14952, Note_on_c, 0, 73, 84
2, 14975, Note_on_c, 0, 73, 0
2, 14976, Note_on_c, 0, 73, 84
2, 15072, Note_on_c, 0, 73, 0
2, 15072, Note_on_c, 0, 72, 84
2, 15078, Note_on_c, 0, 72, 0
2, 15078, Note_on_c, 0, 73, 84
2, 15084, Note_on_c, 0, 73, 0
2, 15084, Note_on_c, 0, 72, 84
2, 15141, Note_on_c, 0, 72, 0
2, 15144, Note_on_c, 0, 73, 84
2, 15167, Note_on_c, 0, 73, 0
2, 15168, Note_on_c, 0, 72, 84
2, 15264, Note_on_c, 0, 72, 0
2, 15264, Note_on_c, 0, 70, 84
2, 15270, Note_on_c, 0, 70, 0
2, 15270, Note_on_c, 0, 72, 84
2, 15276, Note_on_c, 0, 72, 0
2, 15276, Note_on_c, 0, 70, 84
2, 15333, Note_on_c, 0, 70, 0
2, 15336, Note_on_c, 0, 72, 84
2, 15359, Note_on_c, 0, 72, 0
2, 15360, Note_on_c, 0, 70, 84
2, 15456, Note_on_c, 0, 70, 0
2, 15456, Note_on_c, 0, 68, 84
2, 15462, Note_on_c, 0, 68, 0
2, 15462, Note_on_c, 0, 70, 84
2, 15468, Note_on_c, 0, 70, 0
2, 15468, Note_on_c, 0, 68, 84
2, 15490, Note_on_c, 0, 68, 0
2, 15492, Note_on_c, 0, 67, 84
2, 15504, Note_on_c, 0, 67, 0
2, 15504, Note_on_c, 0, 68, 84
2, 15538, Note_on_c, 0, 68, 0
2, 15540, Note_on_c, 0, 70, 84
2, 15552, Note_on_c, 0, 70, 0
2, 15552, Note_on_c, 0, 68, 84
2, 15660, Note_on_c, 0, 68, 0
2, 15744, Note_on_c, 0, 80, 84
2, 15759, Note_on_c, 0, 80, 0
2, 15760, Note_on_c, 0, 84, 84
2, 15775, Note_on_c, 0, 84, 0
2, 15776, Note_on_c, 0, 82, 84
2, 15791, Note_on_c, 0, 82, 0
2, 15792, Note_on_c, 0, 80, 84
2, 15807, Note_on_c, 0, 80, 0
2, 15808, Note_on_c, 0, 79, 84
2, 15823, Note_on_c, 0, 79, 0
2, 15824, Note_on_c, 0, 77, 84
2, 15839, Note_on_c, 0, 77, 0
2, 15840, Note_on_c, 0, 75, 84
2, 15855, Note_on_c, 0, 75, 0
2, 15856, Note_on_c, 0, 73, 84
2, 15871, Note_on_c, 0, 73, 0
2, 15872, Note_on_c, 0, 72, 84
2, 15887, Note_on_c, 0, 72, 0
2, 15888, Note_on_c, 0, 70, 84
2, 15903, Note_on_c, 0, 70, 0
2, 15904, Note_on_c, 0, 68, 84
2, 15919, Note_on_c, 0, 68, 0
2, 15920, Note_on_c, 0, 67, 84
2, 15935, Note_on_c, 0, 67, 0
2, 15936, Note_on_c, 0, 65, 84
2, 16099, Note_on_c, 0, 65, 0
2, 16104, Note_on_c, 0, 67, 84
2, 16127, Note_on_c, 0, 67, 0
2, 16128, Note_on_c, 0, 67, 84
2, 16224, Note_on_c, 0, 67, 0
2, 16224, Note_on_c, 0, 68, 84
2, 16239, Note_on_c, 0, 68, 0
2, 16240, Note_on_c, 0, 72, 84
2, 16255, Note_on_c, 0, 72, 0
2, 16256, Note_on_c, 0, 70, 84
2, 16271, Note_on_c, 0, 70, 0
2, 16272, Note_on_c, 0, 68, 84
2, 16287, Note_on_c, 0, 68, 0
2, 16288, Note_on_c, 0, 67, 84
2, 16303, Note_on_c, 0, 67, 0
2, 16304, Note_on_c, 0, 65, 84
2, 16319, Note_on_c, 0, 65, 0
2, 16320, Note_on_c, 0, 63, 84
2, 16387, Note_on_c, 0, 63, 0
2, 16392, Note_on_c, 0, 60, 84
2, 16404, Note_on_c, 0, 60, 0
2, 16404, Note_on_c, 0, 61, 84
2, 16416, Note_on_c, 0, 61, 0
2, 16416, Note_on_c, 0, 63, 84
2, 16424, Note_on_c, 0, 63, 0
2, 16424, Note_on_c, 0, 61, 84
2, 16432, Note_on_c, 0, 61, 0
2, 16432, Note_on_c, 0, 63, 84
2, 16440, Note_on_c, 0, 63, 0
2, 16440, Note_on_c, 0, 61, 84
2, 16448, Note_on_c, 0, 61, 0
2, 16448, Note_on_c, 0, 63, 84
2, 16456, Note_on_c, 0, 63, 0
2, 16456, Note_on_c, 0, 61, 84
2, 16464, Note_on_c, 0, 61, 0
2, 16464, Note_on_c, 0, 63, 84
2, 16472, Note_on_c, 0, 63, 0
2, 16472, Note_on_c, 0, 61, 84
2, 16480, Note_on_c, 0, 61, 0
2, 16480, Note_on_c, 0, 60, 84
2, 16496, Note_on_c, 0, 60, 0
2, 16496, Note_on_c, 0, 61, 84
2, 16512, Note_on_c, 0, 61, 0
2, 16512, Note_on_c, 0, 61, 84
2, 16512, Note_on_c, 0, 58, 84
2, 16608, Note_on_c, 0, 61, 0
2, 16608, Note_on_c, 0, 58, 0
2, 16608, Note_on_c, 0, 60, 84
2, 16608, Note_on_c, 0, 56, 84
2, 16697, Note_on_c, 0, 60, 0
2, 16697, Note_on_c, 0, 56, 0
2, 16704, Note_on_c, 0, 65, 84
2, 16815, Note_on_c, 0, 65, 0
2, 16816, Note_on_c, 0, 67, 84
2, 16831, Note_on_c, 0, 67, 0
2, 16832, Note_on_c, 0, 68, 84
2, 16847, Note_on_c, 0, 68, 0
2, 16848, Note_on_c, 0, 67, 84
2, 16863, Note_on_c, 0, 67, 0
2, 16864, Note_on_c, 0, 68, 84
2, 16879, Note_on_c, 0, 68, 0
2, 16880, Note_on_c, 0, 70, 84
2, 16895, Note_on_c, 0, 70, 0
2, 16896, Note_on_c, 0, 68, 84
2, 16911, Note_on_c, 0, 68, 0
2, 16912, Note_on_c, 0, 70, 84
2, 16927, Note_on_c, 0, 70, 0
2, 16928, Note_on_c, 0, 72, 84
2, 16943, Note_on_c, 0, 72, 0
2, 16944, Note_on_c, 0, 70, 84
2, 16959, Note_on_c, 0, 70, 0
2, 16960, Note_on_c, 0, 72, 84
2, 16975, Note_on_c, 0, 72, 0
2, 16976, Note_on_c, 0, 73, 84
2, 16991, Note_on_c, 0, 73, 0
2, 16992, Note_on_c, 0, 72, 84
2, 17007, Note_on_c, 0, 72, 0
2, 17008, Note_on_c, 0, 73, 84
2, 17023, Note_on_c, 0, 73, 0
2, 17024, Note_on_c, 0, 75, 84
2, 17039, Note_on_c, 0, 75, 0
2, 17040, Note_on_c, 0, 73, 84
2, 17055, Note_on_c, 0, 73, 0
2, 17056, Note_on_c, 0, 75, 84
2, 17071, Note_on_c, 0, 75, 0
2, 17072, Note_on_c, 0, 77, 84
2, 17087, Note_on_c, 0, 77, 0
2, 17088, Note_on_c, 0, 75, 84
2, 17103, Note_on_c, 0, 75, 0
2, 17104, Note_on_c, 0, 73, 84
2, 17119, Note_on_c, 0, 73, 0
2, 17120, Note_on_c, 0, 72, 84
2, 17135, Note_on_c, 0, 72, 0
2, 17136, Note_on_c, 0, 70, 84
2, 17151, Note_on_c, 0, 70, 0
2, 17152, Note_on_c, 0, 68, 84
2, 17167, Note_on_c, 0, 68, 0
2, 17168, Note_on_c, 0, 67, 84
2, 17183, Note_on_c, 0, 67, 0
2, 17184, Note_on_c, 0, 68, 84
2, 17199, Note_on_c, 0, 68, 0
2, 17200, Note_on_c, 0, 72, 84
2, 17215, Note_on_c, 0, 72, 0
2, 17216, Note_on_c, 0, 70, 84
2, 17231, Note_on_c, 0, 70, 0
2, 17232, Note_on_c, 0, 68, 84
2, 17247, Note_on_c, 0, 68, 0
2, 17248, Note_on_c, 0, 67, 84
2, 17263, Note_on_c, 0, 67, 0
2, 17264, Note_on_c, 0, 65, 84
2, 17279, Note_on_c, 0, 65, 0
2, 17280, Note_on_c, 0, 63, 84
2, 17347, Note_on_c, 0, 63, 0
2, 17352, Note_on_c, 0, 60, 84
2, 17364, Note_on_c, 0, 60, 0
2, 17364, Note_on_c, 0, 61, 84
2, 17376, Note_on_c, 0, 61, 0
2, 17376, Note_on_c, 0, 63, 84
2, 17384, Note_on_c, 0, 63, 0
2, 17384, Note_on_c, 0, 61, 84
2, 17392, Note_on_c, 0, 61, 0
2, 17392, Note_on_c, 0, 63, 84
2, 17400, Note_on_c, 0, 63, 0
2, 17400, Note_on_c, 0, 61, 84
2, 17408, Note_on_c, 0, 61, 0
2, 17408, Note_on_c, 0, 63, 84
2, 17416, Note_on_c, 0, 63, 0
2, 17416, Note_on_c, 0, 61, 84
2, 17424, Note_on_c, 0, 61, 0
2, 17424, Note_on_c, 0, 63, 84
2, 17432, Note_on_c, 0, 63, 0
2, 17432, Note_on_c, 0, 61, 84
2, 17440, Note_on_c, 0, 61, 0
2, 17440, Note_on_c, 0, 60, 84
2, 17456, Note_on_c, 0, 60, 0
2, 17456, Note_on_c, 0, 61, 84
2, 17472, Note_on_c, 0, 61, 0
2, 17472, Note_on_c, 0, 61, 84
2, 17472, Note_on_c, 0, 58, 84
2, 17568, Note_on_c, 0, 61, 0
2, 17568, Note_on_c, 0, 58, 0
2, 17568, Note_on_c, 0, 60, 84
2, 17568, Note_on_c, 0, 56, 84
2, 17657, Note_on_c, 0, 60, 0
2, 17657, Note_on_c, 0, 56, 0
2, 17664, Note_on_c, 0, 72, 75
2, 17676, Note_on_c, 0, 72, 0
2, 17676, Note_on_c, 0, 84, 75
2, 17783, Note_on_c, 0, 84, 0
2, 17784, Note_on_c, 0, 82, 75
2, 17796, Note_on_c, 0, 82, 0
2, 17796, Note_on_c, 0, 80, 75
2, 17808, Note_on_c, 0, 80, 0
2, 17808, Note_on_c, 0, 82, 75
2, 17820, Note_on_c, 0, 82, 0
2, 17820, Note_on_c, 0, 80, 75
2, 17832, Note_on_c, 0, 80, 0
2, 17832, Note_on_c, 0, 79, 75
2, 17844, Note_on_c, 0, 79, 0
2, 17844, Note_on_c, 0, 77, 75
2, 17856, Note_on_c, 0, 77, 0
2, 17856, Note_on_c, 0, 77, 75
2, 17952, Note_on_c, 0, 77, 0
2, 17952, Note_on_c, 0, 76, 75
2, 17958, Note_on_c, 0, 76, 0
2, 17958, Note_on_c, 0, 77, 75
2, 17964, Note_on_c, 0, 77, 0
2, 17964, Note_on_c, 0, 76, 75
2, 18019, Note_on_c, 0, 76, 0
2, 18024, Note_on_c, 0, 79, 75
2, 18047, Note_on_c, 0, 79, 0
2, 18048, Note_on_c, 0, 73, 75
2, 18054, Note_on_c, 0, 73, 0
2, 18054, Note_on_c, 0, 75, 75
2, 18060, Note_on_c, 0, 75, 0
2, 18060, Note_on_c, 0, 73, 75
2, 18141, Note_on_c, 0, 73, 0
2, 18144, Note_on_c, 0, 72, 75
2, 18211, Note_on_c, 0, 72, 0
2, 18216, Note_on_c, 0, 70, 75
2, 18239, Note_on_c, 0, 70, 0
2, 18240, Note_on_c, 0, 68, 75
2, 18255, Note_on_c, 0, 68, 0
2, 18256, Note_on_c, 0, 65, 75
2, 18271, Note_on_c, 0, 65, 0
2, 18272, Note_on_c, 0, 67, 75
2, 18287, Note_on_c, 0, 67, 0
2, 18288, Note_on_c, 0, 68, 75
2, 18303, Note_on_c, 0, 68, 0
2, 18304, Note_on_c, 0, 70, 75
2, 18319, Note_on_c, 0, 70, 0
2, 18320, Note_on_c, 0, 72, 75
2, 18335, Note_on_c, 0, 72, 0
2, 18336, Note_on_c, 0, 74, 75
2, 18351, Note_on_c, 0, 74, 0
2, 18352, Note_on_c, 0, 76, 75
2, 18367, Note_on_c, 0, 76, 0
2, 18368, Note_on_c, 0, 77, 75
2, 18383, Note_on_c, 0, 77, 0
2, 18384, Note_on_c, 0, 79, 75
2, 18399, Note_on_c, 0, 79, 0
2, 18400, Note_on_c, 0, 80, 75
2, 18415, Note_on_c, 0, 80, 0
2, 18416, Note_on_c, 0, 82, 75
2, 18431, Note_on_c, 0, 82, 0
2, 18432, Note_on_c, 0, 84, 75
2, 18551, Note_on_c, 0, 84, 0
2, 18552, Note_on_c, 0, 82, 75
2, 18564, Note_on_c, 0, 82, 0
2, 18564, Note_on_c, 0, 80, 75
2, 18576, Note_on_c, 0, 80, 0
2, 18576, Note_on_c, 0, 82, 75
2, 18588, Note_on_c, 0, 82, 0
2, 18588, Note_on_c, 0, 80, 75
2, 18600, Note_on_c, 0, 80, 0
2, 18600, Note_on_c, 0, 79, 75
2, 18612, Note_on_c, 0, 79, 0
2, 18612, Note_on_c, 0, 77, 75
2, 18624, Note_on_c, 0, 77, 0
2, 18624, Note_on_c, 0, 75, 75
2, 18713, Note_on_c, 0, 75, 0
2, 18720, Note_on_c, 0, 74, 75
2, 18729, Note_on_c, 0, 74, 0
2, 18729, Note_on_c, 0, 75, 75
2, 18738, Note_on_c, 0, 75, 0
2, 18738, Note_on_c, 0, 74, 75
2, 18747, Note_on_c, 0, 74, 0
2, 18747, Note_on_c, 0, 75, 75
2, 18756, Note_on_c, 0, 75, 0
2, 18756, Note_on_c, 0, 74, 75
2, 18765, Note_on_c, 0, 74, 0
2, 18765, Note_on_c, 0, 75, 75
2, 18774, Note_on_c, 0, 75, 0
2, 18774, Note_on_c, 0, 74, 75
2, 18783, Note_on_c, 0, 74, 0
2, 18783, Note_on_c, 0, 75, 75
2, 18792, Note_on_c, 0, 75, 0
2, 18792, Note_on_c, 0, 74, 75
2, 18800, Note_on_c, 0, 74, 0
2, 18800, Note_on_c, 0, 75, 75
2, 18808, Note_on_c, 0, 75, 0
2, 18808, Note_on_c, 0, 77, 75
2, 18816, Note_on_c, 0, 77, 0
2, 18816, Note_on_c, 0, 75, 75
2, 18836, Note_on_c, 0, 75, 0
2, 18864, Note_on_c, 0, 68, 91
2, 18864, Note_on_c, 0, 65, 91
2, 18960, Note_on_c, 0, 68, 0
2, 18960, Note_on_c, 0, 65, 0
2, 18960, Note_on_c, 0, 67, 75
2, 18960, Note_on_c, 0, 63, 75
2, 19005, Note_on_c, 0, 67, 0
2, 19005, Note_on_c, 0, 63, 0
2, 19008, Note_on_c, 0, 65, 75
2, 19008, Note_on_c, 0, 62, 75
2, 19055, Note_on_c, 0, 65, 0
2, 19055, Note_on_c, 0, 62, 0
2, 19056, Note_on_c, 0, 58, 75
2, 19071, Note_on_c, 0, 58, 0
2, 19072, Note_on_c, 0, 62, 75
2, 19087, Note_on_c, 0, 62, 0
2, 19088, Note_on_c, 0, 60, 75
2, 19103, Note_on_c, 0, 60, 0
2, 19104, Note_on_c, 0, 58, 75
2, 19119, Note_on_c, 0, 58, 0
2, 19120, Note_on_c, 0, 60, 76
2, 19135, Note_on_c, 0, 60, 0
2, 19136, Note_on_c, 0, 62, 77
2, 19151, Note_on_c, 0, 62, 0
2, 19152, Note_on_c, 0, 63, 78
2, 19167, Note_on_c, 0, 63, 0
2, 19168, Note_on_c, 0, 65, 79
2, 19183, Note_on_c, 0, 65, 0
2, 19184, Note_on_c, 0, 67, 80
2, 19199, Note_on_c, 0, 67, 0
2, 19216, Note_on_c, 0, 74, 84
2, 19231, Note_on_c, 0, 74, 0
2, 19232, Note_on_c, 0, 75, 84
2, 19247, Note_on_c, 0, 75, 0
2, 19248, Note_on_c, 0, 77, 84
2, 19263, Note_on_c, 0, 77, 0
2, 19264, Note_on_c, 0, 75, 84
2, 19279, Note_on_c, 0, 75, 0
2, 19280, Note_on_c, 0, 74, 84
2, 19295, Note_on_c, 0, 74, 0
2, 19312, Note_on_c, 0, 75, 84
2, 19327, Note_on_c, 0, 75, 0
2, 19328, Note_on_c, 0, 77, 84
2, 19343, Note_on_c, 0, 77, 0
2, 19344, Note_on_c, 0, 79, 84
2, 19359, Note_on_c, 0, 79, 0
2, 19360, Note_on_c, 0, 77, 84
2, 19375, Note_on_c, 0, 77, 0
2, 19376, Note_on_c, 0, 75, 84
2, 19391, Note_on_c, 0, 75, 0
2, 19392, Note_on_c, 0, 77, 84
2, 19407, Note_on_c, 0, 77, 0
2, 19408, Note_on_c, 0, 80, 84
2, 19423, Note_on_c, 0, 80, 0
2, 19424, Note_on_c, 0, 79, 84
2, 19439, Note_on_c, 0, 79, 0
2, 19440, Note_on_c, 0, 77, 84
2, 19455, Note_on_c, 0, 77, 0
2, 19456, Note_on_c, 0, 75, 84
2, 19471, Note_on_c, 0, 75, 0
2, 19472, Note_on_c, 0, 74, 84
2, 19487, Note_on_c, 0, 74, 0
2, 19488, Note_on_c, 0, 72, 84
2, 19503, Note_on_c, 0, 72, 0
2, 19504, Note_on_c, 0, 70, 84
2, 19519, Note_on_c, 0, 70, 0
2, 19520, Note_on_c, 0, 68, 84
2, 19535, Note_on_c, 0, 68, 0
2, 19536, Note_on_c, 0, 67, 84
2, 19551, Note_on_c, 0, 67, 0
2, 19552, Note_on_c, 0, 65, 84
2, 19567, Note_on_c, 0, 65, 0
2, 19568, Note_on_c, 0, 63, 84
2, 19583, Note_on_c, 0, 63, 0
2, 19600, Note_on_c, 0, 62, 84
2, 19615, Note_on_c, 0, 62, 0
2, 19616, Note_on_c, 0, 63, 84
2, 19631, Note_on_c, 0, 63, 0
2, 19632, Note_on_c, 0, 65, 84
2, 19647, Note_on_c, 0, 65, 0
2, 19648, Note_on_c, 0, 63, 84
2, 19663, Note_on_c, 0, 63, 0
2, 19664, Note_on_c, 0, 62, 84
2, 19679, Note_on_c, 0, 62, 0
2, 19696, Note_on_c, 0, 63, 84
2, 19711, Note_on_c, 0, 63, 0
2, 19712, Note_on_c, 0, 65, 84
2, 19727, Note_on_c, 0, 65, 0
2, 19728, Note_on_c, 0, 67, 84
2, 19743, Note_on_c, 0, 67, 0
2, 19744, Note_on_c, 0, 65, 84
2, 19759, Note_on_c, 0, 65, 0
2, 19760, Note_on_c, 0, 63, 84
2, 19775, Note_on_c, 0, 63, 0
2, 19776, Note_on_c, 0, 65, 84
2, 19791, Note_on_c, 0, 65, 0
2, 19792, Note_on_c, 0, 68, 84
2, 19807, Note_on_c, 0, 68, 0
2, 19808, Note_on_c, 0, 67, 84
2, 19823, Note_on_c, 0, 67, 0
2, 19824, Note_on_c, 0, 65, 84
2, 19839, Note_on_c, 0, 65, 0
2, 19840, Note_on_c, 0, 63, 84
2, 19855, Note_on_c, 0, 63, 0
2, 19856, Note_on_c, 0, 62, 84
2, 19871, Note_on_c, 0, 62, 0
2, 19872, Note_on_c, 0, 60, 84
2, 19887, Note_on_c, 0, 60, 0
2, 19888, Note_on_c, 0, 58, 84
2, 19903, Note_on_c, 0, 58, 0
2, 19904, Note_on_c, 0, 56, 84
2, 19919, Note_on_c, 0, 56, 0
2, 19920, Note_on_c, 0, 55, 84
2, 19935, Note_on_c, 0, 55, 0
2, 19936, Note_on_c, 0, 53, 84
2, 19951, Note_on_c, 0, 53, 0
2, 19952, Note_on_c, 0, 51, 84
2, 19967, Note_on_c, 0, 51, 0
2, 19968, Note_on_c, 0, 50, 84
2, 19988, Note_on_c, 0, 50, 0
2, 20016, Note_on_c, 0, 51, 84
2, 20016, Note_on_c, 0, 48, 84
2, 20036, Note_on_c, 0, 51, 0
2, 20036, Note_on_c, 0, 48, 0
2, 20064, Note_on_c, 0, 53, 84
2, 20064, Note_on_c, 0, 50, 84
2, 20084, Note_on_c, 0, 53, 0
2, 20084, Note_on_c, 0, 50, 0
2, 20112, Note_on_c, 0, 55, 84
2, 20112, Note_on_c, 0, 51, 84
2, 20132, Note_on_c, 0, 55, 0
2, 20132, Note_on_c, 0, 51, 0
2, 20160, Note_on_c, 0, 56, 84
2, 20160, Note_on_c, 0, 53, 84
2, 20180, Note_on_c, 0, 56, 0
2, 20180, Note_on_c, 0, 53, 0
2, 20208, Note_on_c, 0, 53, 84
2, 20208, Note_on_c, 0, 50, 84
2, 20228, Note_on_c, 0, 53, 0
2, 20228, Note_on_c, 0, 50, 0
2, 20256, Note_on_c, 0, 55, 84
2, 20256, Note_on_c, 0, 51, 84
2, 20276, Note_on_c, 0, 55, 0
2, 20276, Note_on_c, 0, 51, 0
2, 20304, Note_on_c, 0, 58, 84
2, 20304, Note_on_c, 0, 55, 84
2, 20324, Note_on_c, 0, 58, 0
2, 20324, Note_on_c, 0, 55, 0
2, 20352, Note_on_c, 0, 50, 84
2, 20352, Note_on_c, 0, 46, 84
2, 20372, Note_on_c, 0, 50, 0
2, 20372, Note_on_c, 0, 46, 0
2, 20400, Note_on_c, 0, 51, 84
2, 20400, Note_on_c, 0, 48, 84
2, 20420, Note_on_c, 0, 51, 0
2, 20420, Note_on_c, 0, 48, 0
2, 20448, Note_on_c, 0, 53, 84
2, 20448, Note_on_c, 0, 50, 84
2, 20468, Note_on_c, 0, 53, 0
2, 20468, Note_on_c, 0, 50, 0
2, 20496, Note_on_c, 0, 55, 84
2, 20496, Note_on_c, 0, 51, 84
2, 20516, Note_on_c, 0, 55, 0
2, 20516, Note_on_c, 0, 51, 0
2, 20544, Note_on_c, 0, 56, 84
2, 20544, Note_on_c, 0, 53, 84
2, 20564, Note_on_c, 0, 56, 0
2, 20564, Note_on_c, 0, 53, 0
2, 20592, Note_on_c, 0, 53, 87
2, 20592, Note_on_c, 0, 50, 87
2, 20612, Note_on_c, 0, 53, 0
2, 20612, Note_on_c, 0, 50, 0
2, 20640, Note_on_c, 0, 55, 91
2, 20640, Note_on_c, 0, 51, 91
2, 20660, Note_on_c, 0, 55, 0
2, 20660, Note_on_c, 0, 51, 0
2, 20688, Note_on_c, 0, 57, 95
2, 20688, Note_on_c, 0, 51, 95
2, 20688, Note_on_c, 0, 48, 95
2, 20708, Note_on_c, 0, 57, 0
2, 20708, Note_on_c, 0, 51, 0
2, 20708, Note_on_c, 0, 48, 0
2, 20736, Note_on_c, 0, 58, 98
2, 20736, Note_on_c, 0, 53, 98
2, 20736, Note_on_c, 0, 50, 98
2, 20921, Note_on_c, 0, 58, 0
2, 20921, Note_on_c, 0, 53, 0
2, 20921, Note_on_c, 0, 50, 0
2, 21120, Note_on_c, 0, 82, 69
2, 21120, Note_on_c, 0, 79, 69
2, 21209, Note_on_c, 0, 82, 0
2, 21209, Note_on_c, 0, 79, 0
2, 21216, Note_on_c, 0, 82, 69
2, 21216, Note_on_c, 0, 80, 69
2, 21305, Note_on_c, 0, 82, 0
2, 21305, Note_on_c, 0, 80, 0
2, 21312, Note_on_c, 0, 82, 69
2, 21312, Note_on_c, 0, 79, 69
2, 21327, Note_on_c, 0, 82, 0
2, 21327, Note_on_c, 0, 79, 0
2, 21328, Note_on_c, 0, 79, 69
2, 21343, Note_on_c, 0, 79, 0
2, 21344, Note_on_c, 0, 80, 69
2, 21359, Note_on_c, 0, 80, 0
2, 21360, Note_on_c, 0, 82, 69
2, 21375, Note_on_c, 0, 82, 0
2, 21376, Note_on_c, 0, 80, 69
2, 21391, Note_on_c, 0, 80, 0
2, 21392, Note_on_c, 0, 79, 69
2, 21407, Note_on_c, 0, 79, 0
2, 21408, Note_on_c, 0, 87, 69
2, 21423, Note_on_c, 0, 87, 0
2, 21424, Note_on_c, 0, 86, 69
2, 21439, Note_on_c, 0, 86, 0
2, 21440, Note_on_c, 0, 84, 69
2, 21455, Note_on_c, 0, 84, 0
2, 21456, Note_on_c, 0, 82, 69
2, 21471, Note_on_c, 0, 82, 0
2, 21472, Note_on_c, 0, 80, 69
2, 21487, Note_on_c, 0, 80, 0
2, 21488, Note_on_c, 0, 79, 69
2, 21503, Note_on_c, 0, 79, 0
2, 21504, Note_on_c, 0, 82, 61
2, 21504, Note_on_c, 0, 79, 61
2, 21593, Note_on_c, 0, 82, 0
2, 21593, Note_on_c, 0, 79, 0
2, 21600, Note_on_c, 0, 82, 61
2, 21600, Note_on_c, 0, 80, 61
2, 21689, Note_on_c, 0, 82, 0
2, 21689, Note_on_c, 0, 80, 0
2, 21696, Note_on_c, 0, 82, 61
2, 21696, Note_on_c, 0, 79, 61
2, 21711, Note_on_c, 0, 82, 0
2, 21711, Note_on_c, 0, 79, 0
2, 21712, Note_on_c, 0, 79, 61
2, 21727, Note_on_c, 0, 79, 0
2, 21728, Note_on_c, 0, 80, 61
2, 21743, Note_on_c, 0, 80, 0
2, 21744, Note_on_c, 0, 82, 61
2, 21759, Note_on_c, 0, 82, 0
2, 21760, Note_on_c, 0, 80, 61
2, 21775, Note_on_c, 0, 80, 0
2, 21776, Note_on_c, 0, 79, 61
2, 21791, Note_on_c, 0, 79, 0
2, 21792, Note_on_c, 0, 87, 61
2, 21807, Note_on_c, 0, 87, 0
2, 21808, Note_on_c, 0, 86, 61
2, 21823, Note_on_c, 0, 86, 0
2, 21824, Note_on_c, 0, 84, 61
2, 21839, Note_on_c, 0, 84, 0
2, 21840, Note_on_c, 0, 82, 61
2, 21855, Note_on_c, 0, 82, 0
2, 21856, Note_on_c, 0, 80, 61
2, 21871, Note_on_c, 0, 80, 0
2, 21872, Note_on_c, 0, 79, 61
2, 21887, Note_on_c, 0, 79, 0
2, 21888, Note_on_c, 0, 77, 69
2, 21903, Note_on_c, 0, 77, 0
2, 21904, Note_on_c, 0, 77, 69
2, 21919, Note_on_c, 0, 77, 0
2, 21920, Note_on_c, 0, 79, 69
2, 21935, Note_on_c, 0, 79, 0
2, 21936, Note_on_c, 0, 80, 69
2, 21951, Note_on_c, 0, 80, 0
2, 21952, Note_on_c, 0, 79, 69
2, 21967, Note_on_c, 0, 79, 0
2, 21968, Note_on_c, 0, 77, 69
2, 21983, Note_on_c, 0, 77, 0
2, 21984, Note_on_c, 0, 84, 69
2, 21999, Note_on_c, 0, 84, 0
2, 22000, Note_on_c, 0, 82, 69
2, 22015, Note_on_c, 0, 82, 0
2, 22016, Note_on_c, 0, 80, 69
2, 22031, Note_on_c, 0, 80, 0
2, 22032, Note_on_c, 0, 79, 69
2, 22047, Note_on_c, 0, 79, 0
2, 22048, Note_on_c, 0, 77, 69
2, 22063, Note_on_c, 0, 77, 0
2, 22064, Note_on_c, 0, 75, 69
2, 22079, Note_on_c, 0, 75, 0
2, 22080, Note_on_c, 0, 74, 69
2, 22095, Note_on_c, 0, 74, 0
2, 22096, Note_on_c, 0, 77, 69
2, 22111, Note_on_c, 0, 77, 0
2, 22112, Note_on_c, 0, 75, 69
2, 22127, Note_on_c, 0, 75, 0
2, 22128, Note_on_c, 0, 74, 69
2, 22143, Note_on_c, 0, 74, 0
2, 22144, Note_on_c, 0, 72, 69
2, 22159, Note_on_c, 0, 72, 0
2, 22160, Note_on_c, 0, 70, 69
2, 22175, Note_on_c, 0, 70, 0
2, 22176, Note_on_c, 0, 68, 69
2, 22191, Note_on_c, 0, 68, 0
2, 22192, Note_on_c, 0, 67, 69
2, 22207, Note_on_c, 0, 67, 0
2, 22208, Note_on_c, 0, 65, 70
2, 22223, Note_on_c, 0, 65, 0
2, 22224, Note_on_c, 0, 63, 71
2, 22239, Note_on_c, 0, 63, 0
2, 22240, Note_on_c, 0, 62, 72
2, 22255, Note_on_c, 0, 62, 0
2, 22256, Note_on_c, 0, 60, 72
2, 22271, Note_on_c, 0, 60, 0
2, 22272, Note_on_c, 0, 58, 91
2, 22288, Note_on_c, 0, 58, 0
2, 22288, Note_on_c, 0, 62, 75
2, 22303, Note_on_c, 0, 62, 0
2, 22304, Note_on_c, 0, 65, 75
2, 22319, Note_on_c, 0, 65, 0
2, 22320, Note_on_c, 0, 58, 75
2, 22335, Note_on_c, 0, 58, 0
2, 22336, Note_on_c, 0, 62, 75
2, 22351, Note_on_c, 0, 62, 0
2, 22352, Note_on_c, 0, 63, 75
2, 22367, Note_on_c, 0, 63, 0
2, 22368, Note_on_c, 0, 56, 75
2, 22383, Note_on_c, 0, 56, 0
2, 22384, Note_on_c, 0, 58, 75
2, 22399, Note_on_c, 0, 58, 0
2, 22400, Note_on_c, 0, 62, 75
2, 22415, Note_on_c, 0, 62, 0
2, 22416, Note_on_c, 0, 55, 75
2, 22431, Note_on_c, 0, 55, 0
2, 22432, Note_on_c, 0, 58, 75
2, 22447, Note_on_c, 0, 58, 0
2, 22448, Note_on_c, 0, 63, 75
2, 22463, Note_on_c, 0, 63, 0
2, 22464, Note_on_c, 0, 58, 91
2, 22480, Note_on_c, 0, 58, 0
2, 22480, Note_on_c, 0, 62, 75
2, 22495, Note_on_c, 0, 62, 0
2, 22496, Note_on_c, 0, 65, 75
2, 22511, Note_on_c, 0, 65, 0
2, 22512, Note_on_c, 0, 58, 75
2, 22527, Note_on_c, 0, 58, 0
2, 22528, Note_on_c, 0, 62, 75
2, 22543, Note_on_c, 0, 62, 0
2, 22544, Note_on_c, 0, 63, 75
2, 22559, Note_on_c, 0, 63, 0
2, 22560, Note_on_c, 0, 56, 75
2, 22575, Note_on_c, 0, 56, 0
2, 22576, Note_on_c, 0, 58, 75
2, 22591, Note_on_c, 0, 58, 0
2, 22592, Note_on_c, 0, 62, 75
2, 22607, Note_on_c, 0, 62, 0
2, 22608, Note_on_c, 0, 55, 75
2, 22623, Note_on_c, 0, 55, 0
2, 22624, Note_on_c, 0, 58, 75
2, 22639, Note_on_c, 0, 58, 0
2, 22640, Note_on_c, 0, 63, 75
2, 22655, Note_on_c, 0, 63, 0
2, 22672, Note_on_c, 0, 60, 75
2, 22687, Note_on_c, 0, 60, 0
2, 22688, Note_on_c, 0, 65, 75
2, 22703, Note_on_c, 0, 65, 0
2, 22704, Note_on_c, 0, 68, 75
2, 22719, Note_on_c, 0, 68, 0
2, 22720, Note_on_c, 0, 65, 75
2, 22735, Note_on_c, 0, 65, 0
2, 22736, Note_on_c, 0, 68, 75
2, 22751, Note_on_c, 0, 68, 0
2, 22752, Note_on_c, 0, 72, 75
2, 22767, Note_on_c, 0, 72, 0
2, 22768, Note_on_c, 0, 68, 75
2, 22783, Note_on_c, 0, 68, 0
2, 22784, Note_on_c, 0, 72, 75
2, 22799, Note_on_c, 0, 72, 0
2, 22800, Note_on_c, 0, 77, 75
2, 22815, Note_on_c, 0, 77, 0
2, 22816, Note_on_c, 0, 72, 75
2, 22831, Note_on_c, 0, 72, 0
2, 22832, Note_on_c, 0, 77, 75
2, 22847, Note_on_c, 0, 77, 0
2, 22848, Note_on_c, 0, 80, 75
2, 22863, Note_on_c, 0, 80, 0
2, 22864, Note_on_c, 0, 77, 76
2, 22879, Note_on_c, 0, 77, 0
2, 22880, Note_on_c, 0, 80, 77
2, 22895, Note_on_c, 0, 80, 0
2, 22896, Note_on_c, 0, 84, 78
2, 22911, Note_on_c, 0, 84, 0
2, 22912, Note_on_c, 0, 77, 79
2, 22927, Note_on_c, 0, 77, 0
2, 22928, Note_on_c, 0, 80, 80
2, 22943, Note_on_c, 0, 80, 0
2, 22944, Note_on_c, 0, 84, 81
2, 22959, Note_on_c, 0, 84, 0
2, 22960, Note_on_c, 0, 82, 84
2, 22975, Note_on_c, 0, 82, 0
2, 22976, Note_on_c, 0, 80, 84
2, 22991, Note_on_c, 0, 80, 0
2, 22992, Note_on_c, 0, 79, 84
2, 23007, Note_on_c, 0, 79, 0
2, 23008, Note_on_c, 0, 77, 84
2, 23023, Note_on_c, 0, 77, 0
2, 23024, Note_on_c, 0, 75, 84
2, 23039, Note_on_c, 0, 75, 0
2, 23040, Note_on_c, 0, 75, 84
2, 23227, Note_on_c, 0, 75, 0
2, 23232, Note_on_c, 0, 74, 84
2, 23238, Note_on_c, 0, 74, 0
2, 23238, Note_on_c, 0, 75, 84
2, 23244, Note_on_c, 0, 75, 0
2, 23244, Note_on_c, 0, 74, 84
2, 23417, Note_on_c, 0, 74, 0
2, 23424, Note_on_c, 0, 64, 75
2, 23601, Note_on_c, 0, 64, 0
2, 23616, Note_on_c, 0, 65, 75
2, 23793, Note_on_c, 0, 65, 0
2, 23808, Note_on_c, 0, 61, 101
2, 24000, Note_on_c, 0, 61, 0
2, 24000, Note_on_c, 0, 60, 75
2, 24045, Note_on_c, 0, 60, 0
2, 24048, Note_on_c, 0, 71, 75
2, 24054, Note_on_c, 0, 71, 0
2, 24054, Note_on_c, 0, 72, 75
2, 24093, Note_on_c, 0, 72, 0
2, 24096, Note_on_c, 0, 67, 75
2, 24102, Note_on_c, 0, 67, 0
2, 24102, Note_on_c, 0, 68, 75
2, 24141, Note_on_c, 0, 68, 0
2, 24144, Note_on_c, 0, 64, 75
2, 24150, Note_on_c, 0, 64, 0
2, 24150, Note_on_c, 0, 65, 75
2, 24189, Note_on_c, 0, 65, 0
2, 24192, Note_on_c, 0, 60, 75
2, 24237, Note_on_c, 0, 60, 0
2, 24240, Note_on_c, 0, 71, 61
2, 24264, Note_on_c, 0, 71, 0
2, 24264, Note_on_c, 0, 72, 61
2, 24274, Note_on_c, 0, 72, 0
2, 24288, Note_on_c, 0, 67, 61
2, 24312, Note_on_c, 0, 67, 0
2, 24312, Note_on_c, 0, 68, 61
2, 24322, Note_on_c, 0, 68, 0
2, 24336, Note_on_c, 0, 64, 61
2, 24360, Note_on_c, 0, 64, 0
2, 24360, Note_on_c, 0, 65, 61
2, 24370, Note_on_c, 0, 65, 0
2, 24384, Note_on_c, 0, 60, 61
2, 24429, Note_on_c, 0, 60, 0
2, 24432, Note_on_c, 0, 71, 69
2, 24456, Note_on_c, 0, 71, 0
2, 24456, Note_on_c, 0, 72, 69
2, 24479, Note_on_c, 0, 72, 0
2, 24480, Note_on_c, 0, 70, 69
2, 24503, Note_on_c, 0, 70, 0
2, 24504, Note_on_c, 0, 68, 69
2, 24527, Note_on_c, 0, 68, 0
2, 24528, Note_on_c, 0, 67, 69
2, 24551, Note_on_c, 0, 67, 0
2, 24552, Note_on_c, 0, 65, 69
2, 24575, Note_on_c, 0, 65, 0
2, 24576, Note_on_c, 0, 67, 75
2, 24582, Note_on_c, 0, 67, 0
2, 24582, Note_on_c, 0, 68, 75
2, 24588, Note_on_c, 0, 68, 0
2, 24588, Note_on_c, 0, 70, 75
2, 24695, Note_on_c, 0, 70, 0
2, 24696, Note_on_c, 0, 68, 75
2, 24708, Note_on_c, 0, 68, 0
2, 24708, Note_on_c, 0, 67, 75
2, 24720, Note_on_c, 0, 67, 0
2, 24720, Note_on_c, 0, 65, 75
2, 24732, Note_on_c, 0, 65, 0
2, 24732, Note_on_c, 0, 63, 75
2, 24744, Note_on_c, 0, 63, 0
2, 24744, Note_on_c, 0, 62, 75
2, 24756, Note_on_c, 0, 62, 0
2, 24756, Note_on_c, 0, 60, 75
2, 24768, Note_on_c, 0, 60, 0
2, 24768, Note_on_c, 0, 58, 75
2, 24857, Note_on_c, 0, 58, 0
2, 24864, Note_on_c, 0, 56, 75
2, 24873, Note_on_c, 0, 56, 0
2, 24873, Note_on_c, 0, 58, 75
2, 24882, Note_on_c, 0, 58, 0
2, 24882, Note_on_c, 0, 56, 75
2, 24891, Note_on_c, 0, 56, 0
2, 24891, Note_on_c, 0, 58, 75
2, 24900, Note_on_c, 0, 58, 0
2, 24900, Note_on_c, 0, 56, 75
2, 24909, Note_on_c, 0, 56, 0
2, 24909, Note_on_c, 0, 58, 75
2, 24918, Note_on_c, 0, 58, 0
2, 24918, Note_on_c, 0, 56, 75
2, 24927, Note_on_c, 0, 56, 0
2, 24927, Note_on_c, 0, 55, 75
2, 24944, Note_on_c, 0, 55, 0
2, 24944, Note_on_c, 0, 56, 75
2, 24960, Note_on_c, 0, 56, 0
2, 24960, Note_on_c, 0, 55, 75
2, 24980, Note_on_c, 0, 55, 0
2, 25008, Note_on_c, 0, 63, 91
2, 25104, Note_on_c, 0, 63, 0
2, 25104, Note_on_c, 0, 61, 75
2, 25193, Note_on_c, 0, 61, 0
2, 25200, Note_on_c, 0, 60, 75
2, 25289, Note_on_c, 0, 60, 0
2, 25296, Note_on_c, 0, 64, 75
2, 25341, Note_on_c, 0, 64, 0
2, 25344, Note_on_c, 0, 67, 75
2, 25350, Note_on_c, 0, 67, 0
2, 25350, Note_on_c, 0, 65, 75
2, 25356, Note_on_c, 0, 65, 0
2, 25356, Note_on_c, 0, 64, 75
2, 25362, Note_on_c, 0, 64, 0
2, 25362, Note_on_c, 0, 65, 75
2, 25389, Note_on_c, 0, 65, 0
2, 25392, Note_on_c, 0, 67, 75
2, 25437, Note_on_c, 0, 67, 0
2, 25440, Note_on_c, 0, 70, 76
2, 25446, Note_on_c, 0, 70, 0
2, 25446, Note_on_c, 0, 68, 76
2, 25452, Note_on_c, 0, 68, 0
2, 25452, Note_on_c, 0, 67, 76
2, 25458, Note_on_c, 0, 67, 0
2, 25458, Note_on_c, 0, 68, 76
2, 25485, Note_on_c, 0, 68, 0
2, 25488, Note_on_c, 0, 71, 77
2, 25533, Note_on_c, 0, 71, 0
2, 25536, Note_on_c, 0, 74, 78
2, 25542, Note_on_c, 0, 74, 0
2, 25542, Note_on_c, 0, 72, 78
2, 25548, Note_on_c, 0, 72, 0
2, 25548, Note_on_c, 0, 71, 78
2, 25554, Note_on_c, 0, 71, 0
2, 25554, Note_on_c, 0, 72, 78
2, 25581, Note_on_c, 0, 72, 0
2, 25584, Note_on_c, 0, 76, 79
2, 25590, Note_on_c, 0, 76, 0
2, 25590, Note_on_c, 0, 79, 79
2, 25629, Note_on_c, 0, 79, 0
2, 25632, Note_on_c, 0, 77, 80
2, 25638, Note_on_c, 0, 77, 0
2, 25638, Note_on_c, 0, 80, 80
2, 25677, Note_on_c, 0, 80, 0
2, 25680, Note_on_c, 0, 79, 81
2, 25686, Note_on_c, 0, 79, 0
2, 25686, Note_on_c, 0, 82, 81
2, 25725, Note_on_c, 0, 82, 0
2, 25728, Note_on_c, 0, 80, 82
2, 25734, Note_on_c, 0, 80, 0
2, 25734, Note_on_c, 0, 84, 82
2, 25847, Note_on_c, 0, 84, 0
2, 25848, Note_on_c, 0, 82, 84
2, 25860, Note_on_c, 0, 82, 0
2, 25860, Note_on_c, 0, 80, 84
2, 25872, Note_on_c, 0, 80, 0
2, 25872, Note_on_c, 0, 82, 84
2, 25884, Note_on_c, 0, 82, 0
2, 25884, Note_on_c, 0, 80, 84
2, 25896, Note_on_c, 0, 80, 0
2, 25896, Note_on_c, 0, 79, 84
2, 25908, Note_on_c, 0, 79, 0
2, 25908, Note_on_c, 0, 77, 84
2, 25920, Note_on_c, 0, 77, 0
2, 25920, Note_on_c, 0, 79, 84
2, 25932, Note_on_c, 0, 79, 0
2, 25932, Note_on_c, 0, 80, 84
2, 25944, Note_on_c, 0, 80, 0
2, 25944, Note_on_c, 0, 82, 84
2, 25956, Note_on_c, 0, 82, 0
2, 25956, Note_on_c, 0, 80, 84
2, 25968, Note_on_c, 0, 80, 0
2, 25968, Note_on_c, 0, 79, 84
2, 25980, Note_on_c, 0, 79, 0
2, 25980, Note_on_c, 0, 77, 84
2, 25992, Note_on_c, 0, 77, 0
2, 25992, Note_on_c, 0, 75, 84
2, 26004, Note_on_c, 0, 75, 0
2, 26004, Note_on_c, 0, 74, 84
2, 26016, Note_on_c, 0, 74, 0
2, 26016, Note_on_c, 0, 72, 84
2, 26028, Note_on_c, 0, 72, 0
2, 26028, Note_on_c, 0, 70, 84
2, 26040, Note_on_c, 0, 70, 0
2, 26040, Note_on_c, 0, 68, 84
2, 26052, Note_on_c, 0, 68, 0
2, 26052, Note_on_c, 0, 67, 84
2, 26064, Note_on_c, 0, 67, 0
2, 26064, Note_on_c, 0, 65, 84
2, 26076, Note_on_c, 0, 65, 0
2, 26076, Note_on_c, 0, 63, 83
2, 26088, Note_on_c, 0, 63, 0
2, 26088, Note_on_c, 0, 62, 82
2, 26100, Note_on_c, 0, 62, 0
2, 26100, Note_on_c, 0, 60, 81
2, 26112, Note_on_c, 0, 60, 0
2, 26112, Note_on_c, 0, 58, 97
2, 26304, Note_on_c, 0, 58, 0
2, 26304, Note_on_c, 0, 57, 111
2, 26467, Note_on_c, 0, 57, 0
2, 26472, Note_on_c, 0, 58, 69
2, 26495, Note_on_c, 0, 58, 0
2, 26496, Note_on_c, 0, 56, 111
2, 26568, Note_on_c, 0, 56, 0
2, 26568, Note_on_c, 0, 58, 69
2, 26591, Note_on_c, 0, 58, 0
2, 26592, Note_on_c, 0, 56, 85
2, 26628, Note_on_c, 0, 56, 0
2, 26628, Note_on_c, 0, 58, 69
2, 26640, Note_on_c, 0, 58, 0
2, 26640, Note_on_c, 0, 56, 85
2, 26676, Note_on_c, 0, 56, 0
2, 26676, Note_on_c, 0, 58, 69
2, 26688, Note_on_c, 0, 58, 0
2, 26688, Note_on_c, 0, 55, 85
2, 26704, Note_on_c, 0, 55, 0
2, 26704, Note_on_c, 0, 58, 69
2, 26719, Note_on_c, 0, 58, 0
2, 26720, Note_on_c, 0, 63, 69
2, 26735, Note_on_c, 0, 63, 0
2, 26736, Note_on_c, 0, 55, 69
2, 26751, Note_on_c, 0, 55, 0
2, 26752, Note_on_c, 0, 58, 69
2, 26767, Note_on_c, 0, 58, 0
2, 26768, Note_on_c, 0, 63, 69
2, 26783, Note_on_c, 0, 63, 0
2, 26784, Note_on_c, 0, 58, 69
2, 26799, Note_on_c, 0, 58, 0
2, 26800, Note_on_c, 0, 62, 69
2, 26815, Note_on_c, 0, 62, 0
2, 26816, Note_on_c, 0, 65, 69
2, 26831, Note_on_c, 0, 65, 0
2, 26832, Note_on_c, 0, 62, 69
2, 26847, Note_on_c, 0, 62, 0
2, 26848, Note_on_c, 0, 65, 69
2, 26863, Note_on_c, 0, 65, 0
2, 26864, Note_on_c, 0, 68, 69
2, 26879, Note_on_c, 0, 68, 0
2, 26880, Note_on_c, 0, 67, 69
2, 26895, Note_on_c, 0, 67, 0
2, 26896, Note_on_c, 0, 70, 69
2, 26911, Note_on_c, 0, 70, 0
2, 26912, Note_on_c, 0, 75, 70
2, 26927, Note_on_c, 0, 75, 0
2, 26928, Note_on_c, 0, 67, 71
2, 26943, Note_on_c, 0, 67, 0
2, 26944, Note_on_c, 0, 70, 72
2, 26959, Note_on_c, 0, 70, 0
2, 26960, Note_on_c, 0, 75, 73
2, 26975, Note_on_c, 0, 75, 0
2, 26976, Note_on_c, 0, 70, 74
2, 26991, Note_on_c, 0, 70, 0
2, 26992, Note_on_c, 0, 74, 75
2, 27007, Note_on_c, 0, 74, 0
2, 27008, Note_on_c, 0, 77, 76
2, 27023, Note_on_c, 0, 77, 0
2, 27024, Note_on_c, 0, 74, 76
2, 27039, Note_on_c, 0, 74, 0
2, 27040, Note_on_c, 0, 77, 77
2, 27055, Note_on_c, 0, 77, 0
2, 27056, Note_on_c, 0, 80, 78
2, 27071, Note_on_c, 0, 80, 0
2, 27072, Note_on_c, 0, 79, 79
2, 27087, Note_on_c, 0, 79, 0
2, 27088, Note_on_c, 0, 80, 84
2, 27103, Note_on_c, 0, 80, 0
2, 27104, Note_on_c, 0, 82, 84
2, 27119, Note_on_c, 0, 82, 0
2, 27120, Note_on_c, 0, 80, 84
2, 27135, Note_on_c, 0, 80, 0
2, 27136, Note_on_c, 0, 79, 84
2, 27151, Note_on_c, 0, 79, 0
2, 27152, Note_on_c, 0, 77, 84
2, 27167, Note_on_c, 0, 77, 0
2, 27168, Note_on_c, 0, 75, 84
2, 27183, Note_on_c, 0, 75, 0
2, 27184, Note_on_c, 0, 74, 84
2, 27199, Note_on_c, 0, 74, 0
2, 27200, Note_on_c, 0, 72, 84
2, 27215, Note_on_c, 0, 72, 0
2, 27216, Note_on_c, 0, 70, 84
2, 27231, Note_on_c, 0, 70, 0
2, 27232, Note_on_c, 0, 68, 84
2, 27247, Note_on_c, 0, 68, 0
2, 27248, Note_on_c, 0, 67, 84
2, 27263, Note_on_c, 0, 67, 0
2, 27264, Note_on_c, 0, 65, 84
2, 27279, Note_on_c, 0, 65, 0
2, 27280, Note_on_c, 0, 68, 84
2, 27295, Note_on_c, 0, 68, 0
2, 27296, Note_on_c, 0, 67, 84
2, 27311, Note_on_c, 0, 67, 0
2, 27312, Note_on_c, 0, 65, 84
2, 27327, Note_on_c, 0, 65, 0
2, 27328, Note_on_c, 0, 72, 84
2, 27343, Note_on_c, 0, 72, 0
2, 27344, Note_on_c, 0, 70, 84
2, 27359, Note_on_c, 0, 70, 0
2, 27360, Note_on_c, 0, 68, 84
2, 27375, Note_on_c, 0, 68, 0
2, 27376, Note_on_c, 0, 67, 84
2, 27391, Note_on_c, 0, 67, 0
2, 27392, Note_on_c, 0, 65, 84
2, 27407, Note_on_c, 0, 65, 0
2, 27408, Note_on_c, 0, 63, 84
2, 27423, Note_on_c, 0, 63, 0
2, 27424, Note_on_c, 0, 62, 84
2, 27439, Note_on_c, 0, 62, 0
2, 27440, Note_on_c, 0, 60, 84
2, 27455, Note_on_c, 0, 60, 0
2, 27456, Note_on_c, 0, 58, 84
2, 27523, Note_on_c, 0, 58, 0
2, 27528, Note_on_c, 0, 63, 78
2, 27540, Note_on_c, 0, 63, 0
2, 27540, Note_on_c, 0, 65, 77
2, 27552, Note_on_c, 0, 65, 0
2, 27552, Note_on_c, 0, 67, 76
2, 27560, Note_on_c, 0, 67, 0
2, 27560, Note_on_c, 0, 65, 76
2, 27568, Note_on_c, 0, 65, 0
2, 27568, Note_on_c, 0, 67, 75
2, 27576, Note_on_c, 0, 67, 0
2, 27576, Note_on_c, 0, 65, 75
2, 27584, Note_on_c, 0, 65, 0
2, 27584, Note_on_c, 0, 67, 74
2, 27592, Note_on_c, 0, 67, 0
2, 27592, Note_on_c, 0, 65, 74
2, 27600, Note_on_c, 0, 65, 0
2, 27600, Note_on_c, 0, 67, 73
2, 27608, Note_on_c, 0, 67, 0
2, 27608, Note_on_c, 0, 65, 73
2, 27616, Note_on_c, 0, 65, 0
2, 27616, Note_on_c, 0, 63, 72
2, 27632, Note_on_c, 0, 63, 0
2, 27632, Note_on_c, 0, 65, 71
2, 27648, Note_on_c, 0, 65, 0
2, 27648, Note_on_c, 0, 55, 69
2, 27663, Note_on_c, 0, 55, 0
2, 27664, Note_on_c, 0, 58, 69
2, 27679, Note_on_c, 0, 58, 0
2, 27680, Note_on_c, 0, 63, 69
2, 27695, Note_on_c, 0, 63, 0
2, 27696, Note_on_c, 0, 55, 69
2, 27711, Note_on_c, 0, 55, 0
2, 27712, Note_on_c, 0, 58, 69
2, 27727, Note_on_c, 0, 58, 0
2, 27728, Note_on_c, 0, 63, 69
2, 27743, Note_on_c, 0, 63, 0
2, 27744, Note_on_c, 0, 58, 69
2, 27759, Note_on_c, 0, 58, 0
2, 27760, Note_on_c, 0, 62, 69
2, 27775, Note_on_c, 0, 62, 0
2, 27776, Note_on_c, 0, 65, 69
2, 27791, Note_on_c, 0, 65, 0
2, 27792, Note_on_c, 0, 62, 69
2, 27807, Note_on_c, 0, 62, 0
2, 27808, Note_on_c, 0, 65, 69
2, 27823, Note_on_c, 0, 65, 0
2, 27824, Note_on_c, 0, 68, 69
2, 27839, Note_on_c, 0, 68, 0
2, 27840, Note_on_c, 0, 67, 69
2, 27855, Note_on_c, 0, 67, 0
2, 27856, Note_on_c, 0, 70, 69
2, 27871, Note_on_c, 0, 70, 0
2, 27872, Note_on_c, 0, 75, 70
2, 27887, Note_on_c, 0, 75, 0
2, 27888, Note_on_c, 0, 67, 71
2, 27903, Note_on_c, 0, 67, 0
2, 27904, Note_on_c, 0, 70, 72
2, 27919, Note_on_c, 0, 70, 0
2, 27920, Note_on_c, 0, 75, 73
2, 27935, Note_on_c, 0, 75, 0
2, 27936, Note_on_c, 0, 70, 74
2, 27951, Note_on_c, 0, 70, 0
2, 27952, Note_on_c, 0, 74, 75
2, 27967, Note_on_c, 0, 74, 0
2, 27968, Note_on_c, 0, 77, 76
2, 27983, Note_on_c, 0, 77, 0
2, 27984, Note_on_c, 0, 74, 76
2, 27999, Note_on_c, 0, 74, 0
2, 28000, Note_on_c, 0, 77, 77
2, 28015, Note_on_c, 0, 77, 0
2, 28016, Note_on_c, 0, 80, 78
2, 28031, Note_on_c, 0, 80, 0
2, 28032, Note_on_c, 0, 79, 79
2, 28047, Note_on_c, 0, 79, 0
2, 28048, Note_on_c, 0, 80, 84
2, 28063, Note_on_c, 0, 80, 0
2, 28064, Note_on_c, 0, 82, 84
2, 28079, Note_on_c, 0, 82, 0
2, 28080, Note_on_c, 0, 80, 84
2, 28095, Note_on_c, 0, 80, 0
2, 28096, Note_on_c, 0, 79, 84
2, 28111, Note_on_c, 0, 79, 0
2, 28112, Note_on_c, 0, 77, 84
2, 28127, Note_on_c, 0, 77, 0
2, 28128, Note_on_c, 0, 75, 84
2, 28143, Note_on_c, 0, 75, 0
2, 28144, Note_on_c, 0, 74, 84
2, 28159, Note_on_c, 0, 74, 0
2, 28160, Note_on_c, 0, 72, 84
2, 28175, Note_on_c, 0, 72, 0
2, 28176, Note_on_c, 0, 70, 84
2, 28191, Note_on_c, 0, 70, 0
2, 28192, Note_on_c, 0, 68, 84
2, 28207, Note_on_c, 0, 68, 0
2, 28208, Note_on_c, 0, 67, 84
2, 28223, Note_on_c, 0, 67, 0
2, 28224, Note_on_c, 0, 65, 84
2, 28239, Note_on_c, 0, 65, 0
2, 28240, Note_on_c, 0, 68, 84
2, 28255, Note_on_c, 0, 68, 0
2, 28256, Note_on_c, 0, 67, 84
2, 28271, Note_on_c, 0, 67, 0
2, 28272, Note_on_c, 0, 65, 84
2, 28287, Note_on_c, 0, 65, 0
2, 28288, Note_on_c, 0, 72, 84
2, 28303, Note_on_c, 0, 72, 0
2, 28304, Note_on_c, 0, 70, 84
2, 28319, Note_on_c, 0, 70, 0
2, 28320, Note_on_c, 0, 68, 84
2, 28335, Note_on_c, 0, 68, 0
2, 28336, Note_on_c, 0, 67, 84
2, 28351, Note_on_c, 0, 67, 0
2, 28352, Note_on_c, 0, 65, 84
2, 28367, Note_on_c, 0, 65, 0
2, 28368, Note_on_c, 0, 63, 84
2, 28383, Note_on_c, 0, 63, 0
2, 28384, Note_on_c, 0, 62, 84
2, 28399, Note_on_c, 0, 62, 0
2, 28400, Note_on_c, 0, 60, 84
2, 28415, Note_on_c, 0, 60, 0
2, 28416, Note_on_c, 0, 58, 84
2, 28483, Note_on_c, 0, 58, 0
2, 28488, Note_on_c, 0, 63, 84
2, 28500, Note_on_c, 0, 63, 0
2, 28500, Note_on_c, 0, 65, 83
2, 28512, Note_on_c, 0, 65, 0
2, 28512, Note_on_c, 0, 67, 82
2, 28520, Note_on_c, 0, 67, 0
2, 28520, Note_on_c, 0, 65, 82
2, 28528, Note_on_c, 0, 65, 0
2, 28528, Note_on_c, 0, 67, 81
2, 28536, Note_on_c, 0, 67, 0
2, 28536, Note_on_c, 0, 65, 81
2, 28544, Note_on_c, 0, 65, 0
2, 28544, Note_on_c, 0, 67, 81
2, 28552, Note_on_c, 0, 67, 0
2, 28552, Note_on_c, 0, 65, 80
2, 28560, Note_on_c, 0, 65, 0
2, 28560, Note_on_c, 0, 67, 80
2, 28568, Note_on_c, 0, 67, 0
2, 28568, Note_on_c, 0, 65, 80
2, 28576, Note_on_c, 0, 65, 0
2, 28576, Note_on_c, 0, 63, 79
2, 28592, Note_on_c, 0, 63, 0
2, 28592, Note_on_c, 0, 65, 79
2, 28608, Note_on_c, 0, 65, 0
2, 28608, Note_on_c, 0, 63, 94
2, 28704, Note_on_c, 0, 63, 0
2, 28704, Note_on_c, 0, 72, 73
2, 28704, Note_on_c, 0, 68, 73
2, 28749, Note_on_c, 0, 72, 0
2, 28749, Note_on_c, 0, 68, 0
2, 28752, Note_on_c, 0, 62, 69
2, 28752, Note_on_c, 0, 58, 69
2, 28800, Note_on_c, 0, 62, 0
2, 28800, Note_on_c, 0, 63, 69
2, 28845, Note_on_c, 0, 63, 0
2, 28845, Note_on_c, 0, 58, 0
2, 28896, Note_on_c, 0, 72, 61
2, 28896, Note_on_c, 0, 68, 61
2, 28941, Note_on_c, 0, 72, 0
2, 28941, Note_on_c, 0, 68, 0
2, 28944, Note_on_c, 0, 62, 61
2, 28944, Note_on_c, 0, 58, 61
2, 28992, Note_on_c, 0, 62, 0
2, 28992, Note_on_c, 0, 63, 61
2, 29059, Note_on_c, 0, 63, 0
2, 29059, Note_on_c, 0, 58, 0
2, 29184, Note_on_c, 0, 75, 84
2, 29190, Note_on_c, 0, 75, 0
2, 29190, Note_on_c, 0, 74, 84
2, 29196, Note_on_c, 0, 74, 0
2, 29196, Note_on_c, 0, 75, 84
2, 29369, Note_on_c, 0, 75, 0
2, 29376, Note_on_c, 0, 82, 84
2, 29539, Note_on_c, 0, 82, 0
2, 29544, Note_on_c, 0, 80, 84
2, 29567, Note_on_c, 0, 80, 0
2, 29568, Note_on_c, 0, 80, 84
2, 29664, Note_on_c, 0, 80, 0
2, 29664, Note_on_c, 0, 79, 84
2, 29670, Note_on_c, 0, 79, 0
2, 29670, Note_on_c, 0, 80, 84
2, 29676, Note_on_c, 0, 80, 0
2, 29676, Note_on_c, 0, 79, 84
2, 29733, Note_on_c, 0, 79, 0
2, 29736, Note_on_c, 0, 80, 84
2, 29759, Note_on_c, 0, 80, 0
2, 29760, Note_on_c, 0, 79, 84
2, 29856, Note_on_c, 0, 79, 0
2, 29856, Note_on_c, 0, 77, 84
2, 29862, Note_on_c, 0, 77, 0
2, 29862, Note_on_c, 0, 79, 84
2, 29868, Note_on_c, 0, 79, 0
2, 29868, Note_on_c, 0, 77, 84
2, 29925, Note_on_c, 0, 77, 0
2, 29928, Note_on_c, 0, 79, 84
2, 29951, Note_on_c, 0, 79, 0
2, 29952, Note_on_c, 0, 77, 84
2, 30048, Note_on_c, 0, 77, 0
2, 30048, Note_on_c, 0, 75, 84
2, 30054, Note_on_c, 0, 75, 0
2, 30054, Note_on_c, 0, 77, 84
2, 30060, Note_on_c, 0, 77, 0
2, 30060, Note_on_c, 0, 75, 84
2, 30082, Note_on_c, 0, 75, 0
2, 30084, Note_on_c, 0, 74, 84
2, 30096, Note_on_c, 0, 74, 0
2, 30096, Note_on_c, 0, 75, 84
2, 30130, Note_on_c, 0, 75, 0
2, 30132, Note_on_c, 0, 77, 84
2, 30144, Note_on_c, 0, 77, 0
2, 30144, Note_on_c, 0, 75, 84
2, 30252, Note_on_c, 0, 75, 0
2, 30336, Note_on_c, 0, 82, 100
2, 30352, Note_on_c, 0, 82, 0
2, 30352, Note_on_c, 0, 84, 84
2, 30367, Note_on_c, 0, 84, 0
2, 30368, Note_on_c, 0, 85, 84
2, 30383, Note_on_c, 0, 85, 0
2, 30384, Note_on_c, 0, 84, 84
2, 30399, Note_on_c, 0, 84, 0
2, 30400, Note_on_c, 0, 82, 84
2, 30415, Note_on_c, 0, 82, 0
2, 30416, Note_on_c, 0, 80, 84
2, 30431, Note_on_c, 0, 80, 0
2, 30432, Note_on_c, 0, 79, 100
2, 30448, Note_on_c, 0, 79, 0
2, 30448, Note_on_c, 0, 80, 84
2, 30463, Note_on_c, 0, 80, 0
2, 30464, Note_on_c, 0, 82, 84
2, 30479, Note_on_c, 0, 82, 0
2, 30480, Note_on_c, 0, 80, 84
2, 30495, Note_on_c, 0, 80, 0
2, 30496, Note_on_c, 0, 79, 84
2, 30511, Note_on_c, 0, 79, 0
2, 30512, Note_on_c, 0, 77, 84
2, 30527, Note_on_c, 0, 77, 0
2, 30528, Note_on_c, 0, 76, 100
2, 30544, Note_on_c, 0, 76, 0
2, 30544, Note_on_c, 0, 77, 84
2, 30559, Note_on_c, 0, 77, 0
2, 30560, Note_on_c, 0, 79, 84
2, 30575, Note_on_c, 0, 79, 0
2, 30576, Note_on_c, 0, 77, 84
2, 30591, Note_on_c, 0, 77, 0
2, 30592, Note_on_c, 0, 76, 84
2, 30607, Note_on_c, 0, 76, 0
2, 30608, Note_on_c, 0, 73, 84
2, 30623, Note_on_c, 0, 73, 0
2, 30624, Note_on_c, 0, 72, 100
2, 30640, Note_on_c, 0, 72, 0
2, 30640, Note_on_c, 0, 79, 84
2, 30655, Note_on_c, 0, 79, 0
2, 30656, Note_on_c, 0, 80, 84
2, 30671, Note_on_c, 0, 80, 0
2, 30672, Note_on_c, 0, 82, 84
2, 30687, Note_on_c, 0, 82, 0
2, 30688, Note_on_c, 0, 80, 84
2, 30703, Note_on_c, 0, 80, 0
2, 30704, Note_on_c, 0, 79, 84
2, 30719, Note_on_c, 0, 79, 0
2, 30720, Note_on_c, 0, 77, 84
2, 30897, Note_on_c, 0, 77, 0
2, 30912, Note_on_c, 0, 83, 84
2, 30918, Note_on_c, 0, 83, 0
2, 30918, Note_on_c, 0, 84, 84
2, 31031, Note_on_c, 0, 84, 0
2, 31032, Note_on_c, 0, 83, 84
2, 31044, Note_on_c, 0, 83, 0
2, 31044, Note_on_c, 0, 84, 84
2, 31056, Note_on_c, 0, 84, 0
2, 31056, Note_on_c, 0, 87, 84
2, 31068, Note_on_c, 0, 87, 0
2, 31068, Note_on_c, 0, 85, 84
2, 31080, Note_on_c, 0, 85, 0
2, 31080, Note_on_c, 0, 84, 84
2, 31092, Note_on_c, 0, 84, 0
2, 31092, Note_on_c, 0, 82, 84
2, 31104, Note_on_c, 0, 82, 0
2, 31104, Note_on_c, 0, 82, 84
2, 31200, Note_on_c, 0, 82, 0
2, 31200, Note_on_c, 0, 80, 84
2, 31206, Note_on_c, 0, 80, 0
2, 31206, Note_on_c, 0, 82, 84
2, 31212, Note_on_c, 0, 82, 0
2, 31212, Note_on_c, 0, 80, 84
2, 31269, Note_on_c, 0, 80, 0
2, 31272, Note_on_c, 0, 82, 84
2, 31295, Note_on_c, 0, 82, 0
2, 31296, Note_on_c, 0, 80, 84
2, 31392, Note_on_c, 0, 80, 0
2, 31392, Note_on_c, 0, 79, 84
2, 31398, Note_on_c, 0, 79, 0
2, 31398, Note_on_c, 0, 80, 84
2, 31404, Note_on_c, 0, 80, 0
2, 31404, Note_on_c, 0, 79, 84
2, 31461, Note_on_c, 0, 79, 0
2, 31464, Note_on_c, 0, 80, 84
2, 31487, Note_on_c, 0, 80, 0
2, 31488, Note_on_c, 0, 79, 84
2, 31584, Note_on_c, 0, 79, 0
2, 31584, Note_on_c, 0, 77, 80
2, 31590, Note_on_c, 0, 77, 0
2, 31590, Note_on_c, 0, 79, 80
2, 31596, Note_on_c, 0, 79, 0
2, 31596, Note_on_c, 0, 77, 80
2, 31618, Note_on_c, 0, 77, 0
2, 31620, Note_on_c, 0, 76, 78
2, 31632, Note_on_c, 0, 76, 0
2, 31632, Note_on_c, 0, 77, 78
2, 31666, Note_on_c, 0, 77, 0
2, 31668, Note_on_c, 0, 79, 76
2, 31680, Note_on_c, 0, 79, 0
2, 31680, Note_on_c, 0, 77, 76
2, 31687, Note_on_c, 0, 77, 0
2, 31696, Note_on_c, 0, 77, 75
2, 31711, Note_on_c, 0, 77, 0
2, 31712, Note_on_c, 0, 79, 75
2, 31727, Note_on_c, 0, 79, 0
2, 31728, Note_on_c, 0, 80, 75
2, 31743, Note_on_c, 0, 80, 0
2, 31744, Note_on_c, 0, 79, 75
2, 31759, Note_on_c, 0, 79, 0
2, 31760, Note_on_c, 0, 77, 75
2, 31775, Note_on_c, 0, 77, 0
2, 31776, Note_on_c, 0, 84, 75
2, 31791, Note_on_c, 0, 84, 0
2, 31792, Note_on_c, 0, 82, 75
2, 31807, Note_on_c, 0, 82, 0
2, 31808, Note_on_c, 0, 80, 75
2, 31823, Note_on_c, 0, 80, 0
2, 31824, Note_on_c, 0, 79, 75
2, 31839, Note_on_c, 0, 79, 0
2, 31840, Note_on_c, 0, 77, 75
2, 31855, Note_on_c, 0, 77, 0
2, 31856, Note_on_c, 0, 75, 75
2, 31871, Note_on_c, 0, 75, 0
2, 31872, Note_on_c, 0, 73, 75
2, 31892, Note_on_c, 0, 73, 0
2, 31920, Note_on_c, 0, 77, 75
2, 31940, Note_on_c, 0, 77, 0
2, 31968, Note_on_c, 0, 85, 75
2, 31983, Note_on_c, 0, 85, 0
2, 31984, Note_on_c, 0, 84, 75
2, 31999, Note_on_c, 0, 84, 0
2, 32000, Note_on_c, 0, 82, 75
2, 32015, Note_on_c, 0, 82, 0
2, 32016, Note_on_c, 0, 80, 75
2, 32031, Note_on_c, 0, 80, 0
2, 32032, Note_on_c, 0, 79, 75
2, 32047, Note_on_c, 0, 79, 0
2, 32048, Note_on_c, 0, 77, 75
2, 32063, Note_on_c, 0, 77, 0
2, 32064, Note_on_c, 0, 75, 75
2, 32071, Note_on_c, 0, 75, 0
2, 32080, Note_on_c, 0, 75, 75
2, 32095, Note_on_c, 0, 75, 0
2, 32096, Note_on_c, 0, 77, 75
2, 32111, Note_on_c, 0, 77, 0
2, 32112, Note_on_c, 0, 79, 75
2, 32127, Note_on_c, 0, 79, 0
2, 32128, Note_on_c, 0, 77, 75
2, 32143, Note_on_c, 0, 77, 0
2, 32144, Note_on_c, 0, 75, 75
2, 32159, Note_on_c, 0, 75, 0
2, 32160, Note_on_c, 0, 82, 75
2, 32175, Note_on_c, 0, 82, 0
2, 32176, Note_on_c, 0, 80, 75
2, 32191, Note_on_c, 0, 80, 0
2, 32192, Note_on_c, 0, 79, 75
2, 32207, Note_on_c, 0, 79, 0
2, 32208, Note_on_c, 0, 77, 75
2, 32223, Note_on_c, 0, 77, 0
2, 32224, Note_on_c, 0, 75, 75
2, 32239, Note_on_c, 0, 75, 0
2, 32240, Note_on_c, 0, 73, 75
2, 32255, Note_on_c, 0, 73, 0
2, 32256, Note_on_c, 0, 72, 75
2, 32276, Note_on_c, 0, 72, 0
2, 32304, Note_on_c, 0, 75, 75
2, 32324, Note_on_c, 0, 75, 0
2, 32352, Note_on_c, 0, 84, 75
2, 32367, Note_on_c, 0, 84, 0
2, 32368, Note_on_c, 0, 82, 75
2, 32383, Note_on_c, 0, 82, 0
2, 32384, Note_on_c, 0, 80, 75
2, 32399, Note_on_c, 0, 80, 0
2, 32400, Note_on_c, 0, 79, 75
2, 32415, Note_on_c, 0, 79, 0
2, 32416, Note_on_c, 0, 77, 75
2, 32431, Note_on_c, 0, 77, 0
2, 32432, Note_on_c, 0, 75, 75
2, 32447, Note_on_c, 0, 75, 0
2, 32448, Note_on_c, 0, 73, 75
2, 32455, Note_on_c, 0, 73, 0
2, 32464, Note_on_c, 0, 73, 75
2, 32479, Note_on_c, 0, 73, 0
2, 32480, Note_on_c, 0, 75, 75
2, 32495, Note_on_c, 0, 75, 0
2, 32496, Note_on_c, 0, 77, 75
2, 32511, Note_on_c, 0, 77, 0
2, 32512, Note_on_c, 0, 75, 75
2, 32527, Note_on_c, 0, 75, 0
2, 32528, Note_on_c, 0, 73, 75
2, 32543, Note_on_c, 0, 73, 0
2, 32544, Note_on_c, 0, 80, 75
2, 32559, Note_on_c, 0, 80, 0
2, 32560, Note_on_c, 0, 79, 75
2, 32575, Note_on_c, 0, 79, 0
2, 32576, Note_on_c, 0, 77, 75
2, 32591, Note_on_c, 0, 77, 0
2, 32592, Note_on_c, 0, 75, 75
2, 32607, Note_on_c, 0, 75, 0
2, 32608, Note_on_c, 0, 73, 75
2, 32623, Note_on_c, 0, 73, 0
2, 32624, Note_on_c, 0, 72, 75
2, 32639, Note_on_c, 0, 72, 0
2, 32640, Note_on_c, 0, 70, 75
2, 32660, Note_on_c, 0, 70, 0
2, 32688, Note_on_c, 0, 73, 75
2, 32708, Note_on_c, 0, 73, 0
2, 32736, Note_on_c, 0, 82, 75
2, 32751, Note_on_c, 0, 82, 0
2, 32752, Note_on_c, 0, 80, 75
2, 32767, Note_on_c, 0, 80, 0
2, 32768, Note_on_c, 0, 79, 75
2, 32783, Note_on_c, 0, 79, 0
2, 32784, Note_on_c, 0, 77, 75
2, 32799, Note_on_c, 0, 77, 0
2, 32800, Note_on_c, 0, 75, 75
2, 32815, Note_on_c, 0, 75, 0
2, 32816, Note_on_c, 0, 73, 75
2, 32831, Note_on_c, 0, 73, 0
2, 32832, Note_on_c, 0, 72, 75
2, 32839, Note_on_c, 0, 72, 0
2, 32848, Note_on_c, 0, 72, 75
2, 32863, Note_on_c, 0, 72, 0
2, 32864, Note_on_c, 0, 74, 75
2, 32879, Note_on_c, 0, 74, 0
2, 32880, Note_on_c, 0, 76, 75
2, 32895, Note_on_c, 0, 76, 0
2, 32896, Note_on_c, 0, 74, 75
2, 32911, Note_on_c, 0, 74, 0
2, 32912, Note_on_c, 0, 72, 75
2, 32927, Note_on_c, 0, 72, 0
2, 32928, Note_on_c, 0, 79, 75
2, 32943, Note_on_c, 0, 79, 0
2, 32944, Note_on_c, 0, 77, 75
2, 32959, Note_on_c, 0, 77, 0
2, 32960, Note_on_c, 0, 76, 75
2, 32975, Note_on_c, 0, 76, 0
2, 32976, Note_on_c, 0, 73, 75
2, 32991, Note_on_c, 0, 73, 0
2, 32992, Note_on_c, 0, 72, 75
2, 33007, Note_on_c, 0, 72, 0
2, 33008, Note_on_c, 0, 70, 75
2, 33023, Note_on_c, 0, 70, 0
2, 33024, Note_on_c, 0, 68, 84
2, 33044, Note_on_c, 0, 68, 0
2, 33072, Note_on_c, 0, 72, 84
2, 33092, Note_on_c, 0, 72, 0
2, 33120, Note_on_c, 0, 68, 84
2, 33140, Note_on_c, 0, 68, 0
2, 33168, Note_on_c, 0, 72, 84
2, 33188, Note_on_c, 0, 72, 0
2, 33216, Note_on_c, 0, 69, 75
2, 33236, Note_on_c, 0, 69, 0
2, 33264, Note_on_c, 0, 72, 75
2, 33284, Note_on_c, 0, 72, 0
2, 33312, Note_on_c, 0, 69, 75
2, 33332, Note_on_c, 0, 69, 0
2, 33360, Note_on_c, 0, 72, 75
2, 33380, Note_on_c, 0, 72, 0
2, 33424, Note_on_c, 0, 70, 84
2, 33439, Note_on_c, 0, 70, 0
2, 33440, Note_on_c, 0, 82, 84
2, 33455, Note_on_c, 0, 82, 0
2, 33472, Note_on_c, 0, 70, 84
2, 33487, Note_on_c, 0, 70, 0
2, 33488, Note_on_c, 0, 82, 84
2, 33503, Note_on_c, 0, 82, 0
2, 33520, Note_on_c, 0, 70, 84
2, 33535, Note_on_c, 0, 70, 0
2, 33536, Note_on_c, 0, 82, 84
2, 33551, Note_on_c, 0, 82, 0
2, 33568, Note_on_c, 0, 70, 84
2, 33583, Note_on_c, 0, 70, 0
2, 33584, Note_on_c, 0, 82, 84
2, 33599, Note_on_c, 0, 82, 0
2, 33616, Note_on_c, 0, 70, 84
2, 33631, Note_on_c, 0, 70, 0
2, 33632, Note_on_c, 0, 82, 84
2, 33647, Note_on_c, 0, 82, 0
2, 33664, Note_on_c, 0, 70, 84
2, 33679, Note_on_c, 0, 70, 0
2, 33680, Note_on_c, 0, 82, 84
2, 33695, Note_on_c, 0, 82, 0
2, 33712, Note_on_c, 0, 70, 84
2, 33727, Note_on_c, 0, 70, 0
2, 33728, Note_on_c, 0, 82, 84
2, 33743, Note_on_c, 0, 82, 0
2, 33760, Note_on_c, 0, 70, 84
2, 33775, Note_on_c, 0, 70, 0
2, 33776, Note_on_c, 0, 82, 84
2, 33791, Note_on_c, 0, 82, 0
2, 33808, Note_on_c, 0, 70, 84
2, 33823, Note_on_c, 0, 70, 0
2, 33824, Note_on_c, 0, 82, 84
2, 33839, Note_on_c, 0, 82, 0
2, 33856, Note_on_c, 0, 70, 84
2, 33871, Note_on_c, 0, 70, 0
2, 33872, Note_on_c, 0, 82, 84
2, 33887, Note_on_c, 0, 82, 0
2, 33904, Note_on_c, 0, 70, 84
2, 33919, Note_on_c, 0, 70, 0
2, 33920, Note_on_c, 0, 82, 84
2, 33935, Note_on_c, 0, 82, 0
2, 33952, Note_on_c, 0, 70, 84
2, 33967, Note_on_c, 0, 70, 0
2, 33968, Note_on_c, 0, 82, 84
2, 33983, Note_on_c, 0, 82, 0
2, 34000, Note_on_c, 0, 70, 84
2, 34015, Note_on_c, 0, 70, 0
2, 34016, Note_on_c, 0, 82, 84
2, 34031, Note_on_c, 0, 82, 0
2, 34048, Note_on_c, 0, 70, 85
2, 34063, Note_on_c, 0, 70, 0
2, 34064, Note_on_c, 0, 82, 86
2, 34079, Note_on_c, 0, 82, 0
2, 34096, Note_on_c, 0, 70, 87
2, 34111, Note_on_c, 0, 70, 0
2, 34112, Note_on_c, 0, 82, 88
2, 34127, Note_on_c, 0, 82, 0
2, 34144, Note_on_c, 0, 70, 89
2, 34159, Note_on_c, 0, 70, 0
2, 34160, Note_on_c, 0, 82, 90
2, 34175, Note_on_c, 0, 82, 0
2, 34192, Note_on_c, 0, 70, 91
2, 34207, Note_on_c, 0, 70, 0
2, 34208, Note_on_c, 0, 82, 91
2, 34223, Note_on_c, 0, 82, 0
2, 34240, Note_on_c, 0, 70, 93
2, 34255, Note_on_c, 0, 70, 0
2, 34256, Note_on_c, 0, 82, 93
2, 34271, Note_on_c, 0, 82, 0
2, 34288, Note_on_c, 0, 73, 95
2, 34303, Note_on_c, 0, 73, 0
2, 34304, Note_on_c, 0, 82, 95
2, 34319, Note_on_c, 0, 82, 0
2, 34336, Note_on_c, 0, 76, 96
2, 34351, Note_on_c, 0, 76, 0
2, 34352, Note_on_c, 0, 82, 97
2, 34367, Note_on_c, 0, 82, 0
2, 34384, Note_on_c, 0, 79, 98
2, 34399, Note_on_c, 0, 79, 0
2, 34400, Note_on_c, 0, 82, 99
2, 34415, Note_on_c, 0, 82, 0
2, 34432, Note_on_c, 0, 79, 106
2, 34447, Note_on_c, 0, 79, 0
2, 34448, Note_on_c, 0, 82, 106
2, 34463, Note_on_c, 0, 82, 0
2, 34480, Note_on_c, 0, 79, 103
2, 34495, Note_on_c, 0, 79, 0
2, 34496, Note_on_c, 0, 82, 100
2, 34511, Note_on_c, 0, 82, 0
2, 34528, Note_on_c, 0, 79, 95
2, 34543, Note_on_c, 0, 79, 0
2, 34544, Note_on_c, 0, 82, 92
2, 34559, Note_on_c, 0, 82, 0
2, 34576, Note_on_c, 0, 75, 85
2, 34591, Note_on_c, 0, 75, 0
2, 34592, Note_on_c, 0, 81, 86
2, 34607, Note_on_c, 0, 81, 0
2, 34624, Note_on_c, 0, 75, 88
2, 34639, Note_on_c, 0, 75, 0
2, 34640, Note_on_c, 0, 81, 89
2, 34655, Note_on_c, 0, 81, 0
2, 34672, Note_on_c, 0, 75, 91
2, 34687, Note_on_c, 0, 75, 0
2, 34688, Note_on_c, 0, 81, 92
2, 34703, Note_on_c, 0, 81, 0
2, 34720, Note_on_c, 0, 75, 94
2, 34735, Note_on_c, 0, 75, 0
2, 34736, Note_on_c, 0, 81, 95
2, 34751, Note_on_c, 0, 81, 0
2, 34768, Note_on_c, 0, 75, 97
2, 34783, Note_on_c, 0, 75, 0
2, 34784, Note_on_c, 0, 81, 98
2, 34799, Note_on_c, 0, 81, 0
2, 34816, Note_on_c, 0, 75, 106
2, 34831, Note_on_c, 0, 75, 0
2, 34832, Note_on_c, 0, 81, 106
2, 34847, Note_on_c, 0, 81, 0
2, 34864, Note_on_c, 0, 75, 103
2, 34879, Note_on_c, 0, 75, 0
2, 34880, Note_on_c, 0, 81, 100
2, 34895, Note_on_c, 0, 81, 0
2, 34912, Note_on_c, 0, 75, 95
2, 34927, Note_on_c, 0, 75, 0
2, 34928, Note_on_c, 0, 81, 92
2, 34943, Note_on_c, 0, 81, 0
2, 34960, Note_on_c, 0, 74, 84
2, 34975, Note_on_c, 0, 74, 0
2, 34976, Note_on_c, 0, 80, 85
2, 34991, Note_on_c, 0, 80, 0
2, 35008, Note_on_c, 0, 74, 87
2, 35023, Note_on_c, 0, 74, 0
2, 35024, Note_on_c, 0, 80, 88
2, 35039, Note_on_c, 0, 80, 0
2, 35056, Note_on_c, 0, 74, 90
2, 35071, Note_on_c, 0, 74, 0
2, 35072, Note_on_c, 0, 80, 91
2, 35087, Note_on_c, 0, 80, 0
2, 35104, Note_on_c, 0, 74, 93
2, 35119, Note_on_c, 0, 74, 0
2, 35120, Note_on_c, 0, 80, 95
2, 35135, Note_on_c, 0, 80, 0
2, 35152, Note_on_c, 0, 74, 97
2, 35167, Note_on_c, 0, 74, 0
2, 35168, Note_on_c, 0, 80, 98
2, 35183, Note_on_c, 0, 80, 0
2, 35200, Note_on_c, 0, 74, 106
2, 35215, Note_on_c, 0, 74, 0
2, 35216, Note_on_c, 0, 80, 106
2, 35231, Note_on_c, 0, 80, 0
2, 35248, Note_on_c, 0, 74, 103
2, 35263, Note_on_c, 0, 74, 0
2, 35264, Note_on_c, 0, 80, 100
2, 35279, Note_on_c, 0, 80, 0
2, 35296, Note_on_c, 0, 74, 95
2, 35311, Note_on_c, 0, 74, 0
2, 35312, Note_on_c, 0, 80, 92
2, 35327, Note_on_c, 0, 80, 0
2, 35344, Note_on_c, 0, 75, 84
2, 35359, Note_on_c, 0, 75, 0
2, 35360, Note_on_c, 0, 78, 84
2, 35375, Note_on_c, 0, 78, 0
2, 35392, Note_on_c, 0, 75, 84
2, 35407, Note_on_c, 0, 75, 0
2, 35408, Note_on_c, 0, 78, 84
2, 35423, Note_on_c, 0, 78, 0
2, 35440, Note_on_c, 0, 75, 84
2, 35455, Note_on_c, 0, 75, 0
2, 35456, Note_on_c, 0, 78, 84
2, 35471, Note_on_c, 0, 78, 0
2, 35488, Note_on_c, 0, 75, 84
2, 35503, Note_on_c, 0, 75, 0
2, 35504, Note_on_c, 0, 78, 84
2, 35519, Note_on_c, 0, 78, 0
2, 35520, Note_on_c, 0, 82, 84
2, 35520, Note_on_c, 0, 78, 84
2, 35540, Note_on_c, 0, 82, 0
2, 35540, Note_on_c, 0, 78, 0
2, 35568, Note_on_c, 0, 83, 84
2, 35568, Note_on_c, 0, 80, 84
2, 35588, Note_on_c, 0, 83, 0
2, 35588, Note_on_c, 0, 80, 0
2, 35616, Note_on_c, 0, 82, 84
2, 35616, Note_on_c, 0, 78, 84
2, 35636, Note_on_c, 0, 82, 0
2, 35636, Note_on_c, 0, 78, 0
2, 35664, Note_on_c, 0, 80, 84
2, 35664, Note_on_c, 0, 77, 84
2, 35684, Note_on_c, 0, 80, 0
2, 35684, Note_on_c, 0, 77, 0
2, 35728, Note_on_c, 0, 75, 84
2, 35743, Note_on_c, 0, 75, 0
2, 35744, Note_on_c, 0, 78, 84
2, 35759, Note_on_c, 0, 78, 0
2, 35776, Note_on_c, 0, 75, 84
2, 35791, Note_on_c, 0, 75, 0
2, 35792, Note_on_c, 0, 78, 84
2, 35807, Note_on_c, 0, 78, 0
2, 35824, Note_on_c, 0, 75, 84
2, 35839, Note_on_c, 0, 75, 0
2, 35840, Note_on_c, 0, 78, 84
2, 35855, Note_on_c, 0, 78, 0
2, 35872, Note_on_c, 0, 75, 84
2, 35887, Note_on_c, 0, 75, 0
2, 35888, Note_on_c, 0, 78, 84
2, 35903, Note_on_c, 0, 78, 0
2, 35904, Note_on_c, 0, 82, 84
2, 35904, Note_on_c, 0, 78, 84
2, 35924, Note_on_c, 0, 82, 0
2, 35924, Note_on_c, 0, 78, 0
2, 35952, Note_on_c, 0, 83, 84
2, 35952, Note_on_c, 0, 80, 84
2, 35972, Note_on_c, 0, 83, 0
2, 35972, Note_on_c, 0, 80, 0
2, 36000, Note_on_c, 0, 82, 84
2, 36000, Note_on_c, 0, 78, 84
2, 36020, Note_on_c, 0, 82, 0
2, 36020, Note_on_c, 0, 78, 0
2, 36048, Note_on_c, 0, 80, 84
2, 36048, Note_on_c, 0, 77, 84
2, 36068, Note_on_c, 0, 80, 0
2, 36068, Note_on_c, 0, 77, 0
2, 36112, Note_on_c, 0, 75, 84
2, 36127, Note_on_c, 0, 75, 0
2, 36128, Note_on_c, 0, 78, 84
2, 36143, Note_on_c, 0, 78, 0
2, 36160, Note_on_c, 0, 75, 84
2, 36175, Note_on_c, 0, 75, 0
2, 36176, Note_on_c, 0, 78, 84
2, 36191, Note_on_c, 0, 78, 0
2, 36208, Note_on_c, 0, 75, 84
2, 36223, Note_on_c, 0, 75, 0
2, 36224, Note_on_c, 0, 78, 84
2, 36239, Note_on_c, 0, 78, 0
2, 36256, Note_on_c, 0, 75, 84
2, 36271, Note_on_c, 0, 75, 0
2, 36272, Note_on_c, 0, 78, 84
2, 36287, Note_on_c, 0, 78, 0
2, 36304, Note_on_c, 0, 73, 84
2, 36319, Note_on_c, 0, 73, 0
2, 36320, Note_on_c, 0, 79, 84
2, 36335, Note_on_c, 0, 79, 0
2, 36352, Note_on_c, 0, 73, 84
2, 36367, Note_on_c, 0, 73, 0
2, 36368, Note_on_c, 0, 79, 84
2, 36383, Note_on_c, 0, 79, 0
2, 36400, Note_on_c, 0, 73, 84
2, 36415, Note_on_c, 0, 73, 0
2, 36416, Note_on_c, 0, 79, 84
2, 36431, Note_on_c, 0, 79, 0
2, 36448, Note_on_c, 0, 73, 84
2, 36463, Note_on_c, 0, 73, 0
2, 36464, Note_on_c, 0, 79, 84
2, 36479, Note_on_c, 0, 79, 0
2, 36496, Note_on_c, 0, 71, 84
2, 36511, Note_on_c, 0, 71, 0
2, 36512, Note_on_c, 0, 80, 84
2, 36527, Note_on_c, 0, 80, 0
2, 36544, Note_on_c, 0, 71, 84
2, 36559, Note_on_c, 0, 71, 0
2, 36560, Note_on_c, 0, 80, 84
2, 36575, Note_on_c, 0, 80, 0
2, 36592, Note_on_c, 0, 71, 84
2, 36607, Note_on_c, 0, 71, 0
2, 36608, Note_on_c, 0, 80, 84
2, 36623, Note_on_c, 0, 80, 0
2, 36640, Note_on_c, 0, 71, 84
2, 36655, Note_on_c, 0, 71, 0
2, 36656, Note_on_c, 0, 80, 84
2, 36671, Note_on_c, 0, 80, 0
2, 36688, Note_on_c, 0, 72, 84
2, 36703, Note_on_c, 0, 72, 0
2, 36704, Note_on_c, 0, 78, 84
2, 36719, Note_on_c, 0, 78, 0
2, 36736, Note_on_c, 0, 72, 84
2, 36751, Note_on_c, 0, 72, 0
2, 36752, Note_on_c, 0, 78, 84
2, 36767, Note_on_c, 0, 78, 0
2, 36784, Note_on_c, 0, 72, 84
2, 36799, Note_on_c, 0, 72, 0
2, 36800, Note_on_c, 0, 78, 84
2, 36815, Note_on_c, 0, 78, 0
2, 36832, Note_on_c, 0, 72, 84
2, 36847, Note_on_c, 0, 72, 0
2, 36848, Note_on_c, 0, 78, 84
2, 36863, Note_on_c, 0, 78, 0
2, 36880, Note_on_c, 0, 73, 84
2, 36895, Note_on_c, 0, 73, 0
2, 36896, Note_on_c, 0, 77, 84
2, 36911, Note_on_c, 0, 77, 0
2, 36928, Note_on_c, 0, 73, 84
2, 36943, Note_on_c, 0, 73, 0
2, 36944, Note_on_c, 0, 77, 84
2, 36959, Note_on_c, 0, 77, 0
2, 36976, Note_on_c, 0, 73, 84
2, 36991, Note_on_c, 0, 73, 0
2, 36992, Note_on_c, 0, 77, 84
2, 37007, Note_on_c, 0, 77, 0
2, 37024, Note_on_c, 0, 73, 84
2, 37039, Note_on_c, 0, 73, 0
2, 37040, Note_on_c, 0, 77, 84
2, 37055, Note_on_c, 0, 77, 0
2, 37072, Note_on_c, 0, 70, 84
2, 37087, Note_on_c, 0, 70, 0
2, 37088, Note_on_c, 0, 76, 84
2, 37103, Note_on_c, 0, 76, 0
2, 37120, Note_on_c, 0, 73, 84
2, 37135, Note_on_c, 0, 73, 0
2, 37136, Note_on_c, 0, 76, 84
2, 37151, Note_on_c, 0, 76, 0
2, 37168, Note_on_c, 0, 70, 84
2, 37183, Note_on_c, 0, 70, 0
2, 37184, Note_on_c, 0, 76, 84
2, 37199, Note_on_c, 0, 76, 0
2, 37216, Note_on_c, 0, 73, 84
2, 37231, Note_on_c, 0, 73, 0
2, 37232, Note_on_c, 0, 76, 84
2, 37247, Note_on_c, 0, 76, 0
2, 37264, Note_on_c, 0, 69, 84
2, 37279, Note_on_c, 0, 69, 0
2, 37280, Note_on_c, 0, 77, 84
2, 37295, Note_on_c, 0, 77, 0
2, 37312, Note_on_c, 0, 72, 84
2, 37327, Note_on_c, 0, 72, 0
2, 37328, Note_on_c, 0, 77, 84
2, 37343, Note_on_c, 0, 77, 0
2, 37360, Note_on_c, 0, 69, 84
2, 37375, Note_on_c, 0, 69, 0
2, 37376, Note_on_c, 0, 77, 84
2, 37391, Note_on_c, 0, 77, 0
2, 37408, Note_on_c, 0, 72, 84
2, 37423, Note_on_c, 0, 72, 0
2, 37424, Note_on_c, 0, 77, 84
2, 37439, Note_on_c, 0, 77, 0
2, 37456, Note_on_c, 0, 69, 84
2, 37471, Note_on_c, 0, 69, 0
2, 37472, Note_on_c, 0, 78, 84
2, 37487, Note_on_c, 0, 78, 0
2, 37504, Note_on_c, 0, 72, 84
2, 37519, Note_on_c, 0, 72, 0
2, 37520, Note_on_c, 0, 78, 84
2, 37535, Note_on_c, 0, 78, 0
2, 37552, Note_on_c, 0, 69, 84
2, 37567, Note_on_c, 0, 69, 0
2, 37568, Note_on_c, 0, 78, 84
2, 37583, Note_on_c, 0, 78, 0
2, 37600, Note_on_c, 0, 72, 84
2, 37615, Note_on_c, 0, 72, 0
2, 37616, Note_on_c, 0, 78, 84
2, 37631, Note_on_c, 0, 78, 0
2, 37648, Note_on_c, 0, 70, 84
2, 37663, Note_on_c, 0, 70, 0
2, 37664, Note_on_c, 0, 77, 84
2, 37679, Note_on_c, 0, 77, 0
2, 37696, Note_on_c, 0, 74, 84
2, 37711, Note_on_c, 0, 74, 0
2, 37712, Note_on_c, 0, 77, 84
2, 37727, Note_on_c, 0, 77, 0
2, 37744, Note_on_c, 0, 70, 84
2, 37759, Note_on_c, 0, 70, 0
2, 37760, Note_on_c, 0, 77, 84
2, 37775, Note_on_c, 0, 77, 0
2, 37792, Note_on_c, 0, 74, 84
2, 37807, Note_on_c, 0, 74, 0
2, 37808, Note_on_c, 0, 77, 84
2, 37823, Note_on_c, 0, 77, 0
2, 37840, Note_on_c, 0, 71, 84
2, 37855, Note_on_c, 0, 71, 0
2, 37856, Note_on_c, 0, 77, 84
2, 37871, Note_on_c, 0, 77, 0
2, 37888, Note_on_c, 0, 71, 84
2, 37903, Note_on_c, 0, 71, 0
2, 37904, Note_on_c, 0, 77, 84
2, 37919, Note_on_c, 0, 77, 0
2, 37936, Note_on_c, 0, 71, 84
2, 37951, Note_on_c, 0, 71, 0
2, 37952, Note_on_c, 0, 77, 84
2, 37967, Note_on_c, 0, 77, 0
2, 37984, Note_on_c, 0, 71, 84
2, 37999, Note_on_c, 0, 71, 0
2, 38000, Note_on_c, 0, 77, 84
2, 38015, Note_on_c, 0, 77, 0
2, 38016, Note_on_c, 0, 76, 84
2, 38016, Note_on_c, 0, 72, 84
2, 38036, Note_on_c, 0, 76, 0
2, 38036, Note_on_c, 0, 72, 0
2, 38064, Note_on_c, 0, 77, 84
2, 38064, Note_on_c, 0, 74, 84
2, 38084, Note_on_c, 0, 77, 0
2, 38084, Note_on_c, 0, 74, 0
2, 38112, Note_on_c, 0, 79, 84
2, 38112, Note_on_c, 0, 76, 84
2, 38132, Note_on_c, 0, 79, 0
2, 38132, Note_on_c, 0, 76, 0
2, 38160, Note_on_c, 0, 70, 84
2, 38160, Note_on_c, 0, 67, 84
2, 38180, Note_on_c, 0, 70, 0
2, 38180, Note_on_c, 0, 67, 0
2, 38208, Note_on_c, 0, 68, 84
2, 38208, Note_on_c, 0, 65, 84
2, 38228, Note_on_c, 0, 68, 0
2, 38228, Note_on_c, 0, 65, 0
2, 38256, Note_on_c, 0, 70, 84
2, 38256, Note_on_c, 0, 67, 84
2, 38276, Note_on_c, 0, 70, 0
2, 38276, Note_on_c, 0, 67, 0
2, 38304, Note_on_c, 0, 72, 84
2, 38304, Note_on_c, 0, 68, 84
2, 38324, Note_on_c, 0, 72, 0
2, 38324, Note_on_c, 0, 68, 0
2, 38352, Note_on_c, 0, 65, 84
2, 38352, Note_on_c, 0, 56, 84
2, 38372, Note_on_c, 0, 65, 0
2, 38372, Note_on_c, 0, 56, 0
2, 38400, Note_on_c, 0, 64, 84
2, 38400, Note_on_c, 0, 55, 84
2, 38420, Note_on_c, 0, 64, 0
2, 38420, Note_on_c, 0, 55, 0
2, 38448, Note_on_c, 0, 65, 84
2, 38448, Note_on_c, 0, 56, 84
2, 38468, Note_on_c, 0, 65, 0
2, 38468, Note_on_c, 0, 56, 0
2, 38496, Note_on_c, 0, 67, 84
2, 38496, Note_on_c, 0, 58, 84
2, 38516, Note_on_c, 0, 67, 0
2, 38516, Note_on_c, 0, 58, 0
2, 38544, Note_on_c, 0, 58, 84
2, 38544, Note_on_c, 0, 55, 84
2, 38564, Note_on_c, 0, 58, 0
2, 38564, Note_on_c, 0, 55, 0
2, 38592, Note_on_c, 0, 56, 84
2, 38592, Note_on_c, 0, 53, 84
2, 38612, Note_on_c, 0, 56, 0
2, 38612, Note_on_c, 0, 53, 0
2, 38640, Note_on_c, 0, 60, 84
2, 38640, Note_on_c, 0, 56, 84
2, 38660, Note_on_c, 0, 60, 0
2, 38660, Note_on_c, 0, 56, 0
2, 38688, Note_on_c, 0, 58, 84
2, 38688, Note_on_c, 0, 55, 84
2, 38708, Note_on_c, 0, 58, 0
2, 38708, Note_on_c, 0, 55, 0
2, 38736, Note_on_c, 0, 56, 84
2, 38736, Note_on_c, 0, 53, 84
2, 38756, Note_on_c, 0, 56, 0
2, 38756, Note_on_c, 0, 53, 0
2, 38784, Note_on_c, 0, 55, 84
2, 38784, Note_on_c, 0, 52, 84
2, 38804, Note_on_c, 0, 55, 0
2, 38804, Note_on_c, 0, 52, 0
2, 38832, Note_on_c, 0, 56, 84
2, 38832, Note_on_c, 0, 53, 84
2, 38852, Note_on_c, 0, 56, 0
2, 38852, Note_on_c, 0, 53, 0
2, 38880, Note_on_c, 0, 55, 84
2, 38880, Note_on_c, 0, 52, 84
2, 38900, Note_on_c, 0, 55, 0
2, 38900, Note_on_c, 0, 52, 0
2, 38928, Note_on_c, 0, 59, 84
2, 38928, Note_on_c, 0, 50, 84
2, 38948, Note_on_c, 0, 59, 0
2, 38948, Note_on_c, 0, 50, 0
2, 38976, Note_on_c, 0, 60, 84
2, 38976, Note_on_c, 0, 52, 84
2, 39117, Note_on_c, 0, 60, 0
2, 39117, Note_on_c, 0, 52, 0
2, 39168, Note_on_c, 0, 72, 75
2, 39180, Note_on_c, 0, 72, 0
2, 39180, Note_on_c, 0, 84, 75
2, 39287, Note_on_c, 0, 84, 0
2, 39288, Note_on_c, 0, 82, 75
2, 39300, Note_on_c, 0, 82, 0
2, 39300, Note_on_c, 0, 80, 75
2, 39312, Note_on_c, 0, 80, 0
2, 39312, Note_on_c, 0, 82, 75
2, 39324, Note_on_c, 0, 82, 0
2, 39324, Note_on_c, 0, 80, 75
2, 39336, Note_on_c, 0, 80, 0
2, 39336, Note_on_c, 0, 79, 75
2, 39348, Note_on_c, 0, 79, 0
2, 39348, Note_on_c, 0, 77, 75
2, 39360, Note_on_c, 0, 77, 0
2, 39360, Note_on_c, 0, 77, 75
2, 39449, Note_on_c, 0, 77, 0
2, 39456, Note_on_c, 0, 76, 75
2, 39462, Note_on_c, 0, 76, 0
2, 39462, Note_on_c, 0, 77, 75
2, 39468, Note_on_c, 0, 77, 0
2, 39468, Note_on_c, 0, 76, 75
2, 39525, Note_on_c, 0, 76, 0
2, 39528, Note_on_c, 0, 76, 75
2, 39536, Note_on_c, 0, 76, 0
2, 39536, Note_on_c, 0, 79, 75
2, 39544, Note_on_c, 0, 79, 0
2, 39544, Note_on_c, 0, 82, 75
2, 39552, Note_on_c, 0, 82, 0
2, 39552, Note_on_c, 0, 85, 75
2, 39648, Note_on_c, 0, 85, 0
2, 39648, Note_on_c, 0, 84, 75
2, 39715, Note_on_c, 0, 84, 0
2, 39720, Note_on_c, 0, 82, 75
2, 39743, Note_on_c, 0, 82, 0
2, 39744, Note_on_c, 0, 82, 75
2, 39840, Note_on_c, 0, 82, 0
2, 39840, Note_on_c, 0, 81, 75
2, 39846, Note_on_c, 0, 81, 0
2, 39846, Note_on_c, 0, 82, 75
2, 39852, Note_on_c, 0, 82, 0
2, 39852, Note_on_c, 0, 81, 75
2, 39909, Note_on_c, 0, 81, 0
2, 39912, Note_on_c, 0, 81, 75
2, 39924, Note_on_c, 0, 81, 0
2, 39924, Note_on_c, 0, 84, 75
2, 39936, Note_on_c, 0, 84, 0
2, 39936, Note_on_c, 0, 87, 75
2, 40055, Note_on_c, 0, 87, 0
2, 40056, Note_on_c, 0, 85, 75
2, 40068, Note_on_c, 0, 85, 0
2, 40068, Note_on_c, 0, 84, 75
2, 40080, Note_on_c, 0, 84, 0
2, 40080, Note_on_c, 0, 85, 75
2, 40092, Note_on_c, 0, 85, 0
2, 40092, Note_on_c, 0, 84, 75
2, 40104, Note_on_c, 0, 84, 0
2, 40104, Note_on_c, 0, 82, 75
2, 40116, Note_on_c, 0, 82, 0
2, 40116, Note_on_c, 0, 81, 75
2, 40128, Note_on_c, 0, 81, 0
2, 40128, Note_on_c, 0, 81, 75
2, 40224, Note_on_c, 0, 81, 0
2, 40224, Note_on_c, 0, 82, 75
2, 40230, Note_on_c, 0, 82, 0
2, 40230, Note_on_c, 0, 81, 75
2, 40236, Note_on_c, 0, 81, 0
2, 40236, Note_on_c, 0, 82, 75
2, 40293, Note_on_c, 0, 82, 0
2, 40296, Note_on_c, 0, 77, 78
2, 40319, Note_on_c, 0, 77, 0
2, 40320, Note_on_c, 0, 89, 79
2, 40439, Note_on_c, 0, 89, 0
2, 40440, Note_on_c, 0, 87, 84
2, 40452, Note_on_c, 0, 87, 0
2, 40452, Note_on_c, 0, 85, 84
2, 40464, Note_on_c, 0, 85, 0
2, 40464, Note_on_c, 0, 87, 84
2, 40476, Note_on_c, 0, 87, 0
2, 40476, Note_on_c, 0, 85, 82
2, 40488, Note_on_c, 0, 85, 0
2, 40488, Note_on_c, 0, 84, 80
2, 40500, Note_on_c, 0, 84, 0
2, 40500, Note_on_c, 0, 83, 78
2, 40512, Note_on_c, 0, 83, 0
2, 40512, Note_on_c, 0, 84, 76
2, 40557, Note_on_c, 0, 84, 0
2, 40560, Note_on_c, 0, 72, 69
2, 40575, Note_on_c, 0, 72, 0
2, 40576, Note_on_c, 0, 76, 69
2, 40591, Note_on_c, 0, 76, 0
2, 40592, Note_on_c, 0, 74, 69
2, 40607, Note_on_c, 0, 74, 0
2, 40608, Note_on_c, 0, 74, 69
2, 40623, Note_on_c, 0, 74, 0
2, 40624, Note_on_c, 0, 77, 69
2, 40639, Note_on_c, 0, 77, 0
2, 40640, Note_on_c, 0, 76, 69
2, 40655, Note_on_c, 0, 76, 0
2, 40656, Note_on_c, 0, 76, 69
2, 40671, Note_on_c, 0, 76, 0
2, 40672, Note_on_c, 0, 79, 69
2, 40687, Note_on_c, 0, 79, 0
2, 40688, Note_on_c, 0, 77, 70
2, 40703, Note_on_c, 0, 77, 0
2, 40704, Note_on_c, 0, 77, 71
2, 40719, Note_on_c, 0, 77, 0
2, 40720, Note_on_c, 0, 80, 72
2, 40735, Note_on_c, 0, 80, 0
2, 40736, Note_on_c, 0, 79, 72
2, 40751, Note_on_c, 0, 79, 0
2, 40752, Note_on_c, 0, 79, 73
2, 40767, Note_on_c, 0, 79, 0
2, 40768, Note_on_c, 0, 82, 74
2, 40783, Note_on_c, 0, 82, 0
2, 40784, Note_on_c, 0, 80, 75
2, 40799, Note_on_c, 0, 80, 0
2, 40800, Note_on_c, 0, 80, 75
2, 40815, Note_on_c, 0, 80, 0
2, 40816, Note_on_c, 0, 84, 76
2, 40831, Note_on_c, 0, 84, 0
2, 40832, Note_on_c, 0, 82, 77
2, 40847, Note_on_c, 0, 82, 0
2, 40848, Note_on_c, 0, 81, 78
2, 40863, Note_on_c, 0, 81, 0
2, 40864, Note_on_c, 0, 84, 78
2, 40879, Note_on_c, 0, 84, 0
2, 40880, Note_on_c, 0, 82, 79
2, 40895, Note_on_c, 0, 82, 0
2, 40896, Note_on_c, 0, 82, 110
2, 40985, Note_on_c, 0, 82, 0
2, 41064, Note_on_c, 0, 79, 84
2, 41087, Note_on_c, 0, 79, 0
2, 41088, Note_on_c, 0, 80, 84
2, 41103, Note_on_c, 0, 80, 0
2, 41104, Note_on_c, 0, 84, 84
2, 41119, Note_on_c, 0, 84, 0
2, 41120, Note_on_c, 0, 82, 84
2, 41135, Note_on_c, 0, 82, 0
2, 41136, Note_on_c, 0, 80, 84
2, 41151, Note_on_c, 0, 80, 0
2, 41152, Note_on_c, 0, 79, 84
2, 41167, Note_on_c, 0, 79, 0
2, 41168, Note_on_c, 0, 77, 84
2, 41183, Note_on_c, 0, 77, 0
2, 41184, Note_on_c, 0, 75, 84
2, 41199, Note_on_c, 0, 75, 0
2, 41200, Note_on_c, 0, 73, 84
2, 41215, Note_on_c, 0, 73, 0
2, 41216, Note_on_c, 0, 72, 84
2, 41231, Note_on_c, 0, 72, 0
2, 41232, Note_on_c, 0, 70, 84
2, 41247, Note_on_c, 0, 70, 0
2, 41248, Note_on_c, 0, 68, 84
2, 41263, Note_on_c, 0, 68, 0
2, 41264, Note_on_c, 0, 67, 84
2, 41279, Note_on_c, 0, 67, 0
2, 41280, Note_on_c, 0, 65, 84
2, 41421, Note_on_c, 0, 65, 0
2, 41424, Note_on_c, 0, 68, 84
2, 41430, Note_on_c, 0, 68, 0
2, 41430, Note_on_c, 0, 67, 84
2, 41469, Note_on_c, 0, 67, 0
2, 41472, Note_on_c, 0, 65, 84
2, 41517, Note_on_c, 0, 65, 0
2, 41520, Note_on_c, 0, 72, 61
2, 41535, Note_on_c, 0, 72, 0
2, 41536, Note_on_c, 0, 76, 61
2, 41551, Note_on_c, 0, 76, 0
2, 41552, Note_on_c, 0, 74, 61
2, 41567, Note_on_c, 0, 74, 0
2, 41568, Note_on_c, 0, 74, 61
2, 41583, Note_on_c, 0, 74, 0
2, 41584, Note_on_c, 0, 77, 61
2, 41599, Note_on_c, 0, 77, 0
2, 41600, Note_on_c, 0, 76, 61
2, 41615, Note_on_c, 0, 76, 0
2, 41616, Note_on_c, 0, 76, 61
2, 41631, Note_on_c, 0, 76, 0
2, 41632, Note_on_c, 0, 79, 62
2, 41647, Note_on_c, 0, 79, 0
2, 41648, Note_on_c, 0, 77, 63
2, 41663, Note_on_c, 0, 77, 0
2, 41664, Note_on_c, 0, 77, 64
2, 41679, Note_on_c, 0, 77, 0
2, 41680, Note_on_c, 0, 80, 65
2, 41695, Note_on_c, 0, 80, 0
2, 41696, Note_on_c, 0, 79, 66
2, 41711, Note_on_c, 0, 79, 0
2, 41712, Note_on_c, 0, 79, 67
2, 41727, Note_on_c, 0, 79, 0
2, 41728, Note_on_c, 0, 82, 69
2, 41743, Note_on_c, 0, 82, 0
2, 41744, Note_on_c, 0, 80, 70
2, 41759, Note_on_c, 0, 80, 0
2, 41760, Note_on_c, 0, 80, 71
2, 41775, Note_on_c, 0, 80, 0
2, 41776, Note_on_c, 0, 84, 72
2, 41791, Note_on_c, 0, 84, 0
2, 41792, Note_on_c, 0, 82, 73
2, 41807, Note_on_c, 0, 82, 0
2, 41808, Note_on_c, 0, 81, 74
2, 41823, Note_on_c, 0, 81, 0
2, 41824, Note_on_c, 0, 84, 75
2, 41839, Note_on_c, 0, 84, 0
2, 41840, Note_on_c, 0, 82, 77
2, 41855, Note_on_c, 0, 82, 0
2, 41856, Note_on_c, 0, 82, 110
2, 41945, Note_on_c, 0, 82, 0
2, 42024, Note_on_c, 0, 79, 84
2, 42047, Note_on_c, 0, 79, 0
2, 42048, Note_on_c, 0, 80, 84
2, 42063, Note_on_c, 0, 80, 0
2, 42064, Note_on_c, 0, 84, 84
2, 42079, Note_on_c, 0, 84, 0
2, 42080, Note_on_c, 0, 82, 84
2, 42095, Note_on_c, 0, 82, 0
2, 42096, Note_on_c, 0, 80, 84
2, 42111, Note_on_c, 0, 80, 0
2, 42112, Note_on_c, 0, 79, 84
2, 42127, Note_on_c, 0, 79, 0
2, 42128, Note_on_c, 0, 77, 84
2, 42143, Note_on_c, 0, 77, 0
2, 42144, Note_on_c, 0, 75, 84
2, 42159, Note_on_c, 0, 75, 0
2, 42160, Note_on_c, 0, 73, 84
2, 42175, Note_on_c, 0, 73, 0
2, 42176, Note_on_c, 0, 72, 84
2, 42191, Note_on_c, 0, 72, 0
2, 42192, Note_on_c, 0, 70, 84
2, 42207, Note_on_c, 0, 70, 0
2, 42208, Note_on_c, 0, 68, 84
2, 42223, Note_on_c, 0, 68, 0
2, 42224, Note_on_c, 0, 67, 84
2, 42239, Note_on_c, 0, 67, 0
2, 42240, Note_on_c, 0, 65, 84
2, 42381, Note_on_c, 0, 65, 0
2, 42384, Note_on_c, 0, 68, 78
2, 42390, Note_on_c, 0, 68, 0
2, 42390, Note_on_c, 0, 67, 78
2, 42429, Note_on_c, 0, 67, 0
2, 42432, Note_on_c, 0, 65, 76
2, 42595, Note_on_c, 0, 65, 0
2, 42600, Note_on_c, 0, 72, 69
2, 42612, Note_on_c, 0, 72, 0
2, 42612, Note_on_c, 0, 68, 69
2, 42624, Note_on_c, 0, 68, 0
2, 42624, Note_on_c, 0, 65, 69
2, 42787, Note_on_c, 0, 65, 0
2, 42792, Note_on_c, 0, 72, 69
2, 42804, Note_on_c, 0, 72, 0
2, 42804, Note_on_c, 0, 68, 69
2, 42816, Note_on_c, 0, 68, 0
2, 42816, Note_on_c, 0, 65, 69
2, 42883, Note_on_c, 0, 65, 0
2, 42888, Note_on_c, 0, 72, 69
2, 42900, Note_on_c, 0, 72, 0
2, 42900, Note_on_c, 0, 68, 69
2, 42912, Note_on_c, 0, 68, 0
2, 42912, Note_on_c, 0, 65, 69
2, 42979, Note_on_c, 0, 65, 0
2, 42984, Note_on_c, 0, 72, 69
2, 42996, Note_on_c, 0, 72, 0
2, 42996, Note_on_c, 0, 68, 69
2, 43008, Note_on_c, 0, 68, 0
2, 43008, Note_on_c, 0, 65, 61
2, 43185, Note_on_c, 0, 65, 0
2, 43200, Note_on_c, 0, 65, 74
2, 43206, Note_on_c, 0, 65, 0
2, 43206, Note_on_c, 0, 66, 74
2, 43212, Note_on_c, 0, 66, 0
2, 43212, Note_on_c, 0, 68, 74
2, 43218, Note_on_c, 0, 68, 0
2, 43218, Note_on_c, 0, 66, 74
2, 43333, Note_on_c, 0, 66, 0
2, 43344, Note_on_c, 0, 72, 84
2, 43356, Note_on_c, 0, 72, 0
2, 43356, Note_on_c, 0, 70, 84
2, 43368, Note_on_c, 0, 70, 0
2, 43368, Note_on_c, 0, 68, 84
2, 43380, Note_on_c, 0, 68, 0
2, 43380, Note_on_c, 0, 66, 84
2, 43392, Note_on_c, 0, 66, 0
2, 43392, Note_on_c, 0, 66, 84
2, 43488, Note_on_c, 0, 66, 0
2, 43488, Note_on_c, 0, 65, 84
2, 43494, Note_on_c, 0, 65, 0
2, 43494, Note_on_c, 0, 67, 84
2, 43500, Note_on_c, 0, 67, 0
2, 43500, Note_on_c, 0, 65, 84
2, 43557, Note_on_c, 0, 65, 0
2, 43560, Note_on_c, 0, 66, 84
2, 43583, Note_on_c, 0, 66, 0
2, 43584, Note_on_c, 0, 65, 84
2, 43651, Note_on_c, 0, 65, 0
2, 43656, Note_on_c, 0, 63, 84
2, 43679, Note_on_c, 0, 63, 0
2, 43680, Note_on_c, 0, 65, 84
2, 43688, Note_on_c, 0, 65, 0
2, 43688, Note_on_c, 0, 63, 84
2, 43696, Note_on_c, 0, 63, 0
2, 43696, Note_on_c, 0, 65, 84
2, 43704, Note_on_c, 0, 65, 0
2, 43704, Note_on_c, 0, 63, 84
2, 43712, Note_on_c, 0, 63, 0
2, 43712, Note_on_c, 0, 61, 84
2, 43720, Note_on_c, 0, 61, 0
2, 43720, Note_on_c, 0, 63, 84
2, 43728, Note_on_c, 0, 63, 0
2, 43728, Note_on_c, 0, 72, 84
2, 43762, Note_on_c, 0, 72, 0
2, 43764, Note_on_c, 0, 63, 84
2, 43776, Note_on_c, 0, 63, 0
2, 43776, Note_on_c, 0, 63, 84
2, 43872, Note_on_c, 0, 63, 0
2, 43872, Note_on_c, 0, 61, 84
2, 43878, Note_on_c, 0, 61, 0
2, 43878, Note_on_c, 0, 63, 84
2, 43884, Note_on_c, 0, 63, 0
2, 43884, Note_on_c, 0, 61, 84
2, 43941, Note_on_c, 0, 61, 0
2, 43944, Note_on_c, 0, 65, 84
2, 43967, Note_on_c, 0, 65, 0
2, 43968, Note_on_c, 0, 65, 84
2, 44064, Note_on_c, 0, 65, 0
2, 44064, Note_on_c, 0, 63, 84
2, 44098, Note_on_c, 0, 63, 0
2, 44100, Note_on_c, 0, 61, 84
2, 44112, Note_on_c, 0, 61, 0
2, 44112, Note_on_c, 0, 70, 84
2, 44146, Note_on_c, 0, 70, 0
2, 44148, Note_on_c, 0, 61, 84
2, 44160, Note_on_c, 0, 61, 0
2, 44160, Note_on_c, 0, 60, 84
2, 44166, Note_on_c, 0, 60, 0
2, 44166, Note_on_c, 0, 68, 84
2, 44337, Note_on_c, 0, 68, 0
2, 44352, Note_on_c, 0, 77, 84
2, 44358, Note_on_c, 0, 77, 0
2, 44358, Note_on_c, 0, 75, 84
2, 44515, Note_on_c, 0, 75, 0
2, 44520, Note_on_c, 0, 73, 84
2, 44543, Note_on_c, 0, 73, 0
2, 44544, Note_on_c, 0, 73, 84
2, 44640, Note_on_c, 0, 73, 0
2, 44640, Note_on_c, 0, 72, 84
2, 44646, Note_on_c, 0, 72, 0
2, 44646, Note_on_c, 0, 73, 84
2, 44652, Note_on_c, 0, 73, 0
2, 44652, Note_on_c, 0, 72, 84
2, 44709, Note_on_c, 0, 72, 0
2, 44712, Note_on_c, 0, 73, 84
2, 44735, Note_on_c, 0, 73, 0
2, 44736, Note_on_c, 0, 72, 84
2, 44832, Note_on_c, 0, 72, 0
2, 44832, Note_on_c, 0, 70, 84
2, 44838, Note_on_c, 0, 70, 0
2, 44838, Note_on_c, 0, 72, 84
2, 44844, Note_on_c, 0, 72, 0
2, 44844, Note_on_c, 0, 70, 84
2, 44901, Note_on_c, 0, 70, 0
2, 44904, Note_on_c, 0, 72, 84
2, 44927, Note_on_c, 0, 72, 0
2, 44928, Note_on_c, 0, 70, 84
2, 45024, Note_on_c, 0, 70, 0
2, 45024, Note_on_c, 0, 68, 84
2, 45030, Note_on_c, 0, 68, 0
2, 45030, Note_on_c, 0, 70, 84
2, 45036, Note_on_c, 0, 70, 0
2, 45036, Note_on_c, 0, 68, 84
2, 45058, Note_on_c, 0, 68, 0
2, 45060, Note_on_c, 0, 67, 84
2, 45072, Note_on_c, 0, 67, 0
2, 45072, Note_on_c, 0, 68, 84
2, 45106, Note_on_c, 0, 68, 0
2, 45108, Note_on_c, 0, 70, 84
2, 45120, Note_on_c, 0, 70, 0
2, 45120, Note_on_c, 0, 68, 84
2, 45228, Note_on_c, 0, 68, 0
2, 45312, Note_on_c, 0, 80, 84
2, 45327, Note_on_c, 0, 80, 0
2, 45328, Note_on_c, 0, 84, 84
2, 45343, Note_on_c, 0, 84, 0
2, 45344, Note_on_c, 0, 82, 84
2, 45359, Note_on_c, 0, 82, 0
2, 45360, Note_on_c, 0, 80, 84
2, 45375, Note_on_c, 0, 80, 0
2, 45376, Note_on_c, 0, 79, 84
2, 45391, Note_on_c, 0, 79, 0
2, 45392, Note_on_c, 0, 77, 84
2, 45407, Note_on_c, 0, 77, 0
2, 45408, Note_on_c, 0, 75, 84
2, 45423, Note_on_c, 0, 75, 0
2, 45424, Note_on_c, 0, 73, 84
2, 45439, Note_on_c, 0, 73, 0
2, 45440, Note_on_c, 0, 72, 84
2, 45455, Note_on_c, 0, 72, 0
2, 45456, Note_on_c, 0, 70, 84
2, 45471, Note_on_c, 0, 70, 0
2, 45472, Note_on_c, 0, 68, 84
2, 45487, Note_on_c, 0, 68, 0
2, 45488, Note_on_c, 0, 67, 84
2, 45503, Note_on_c, 0, 67, 0
2, 45504, Note_on_c, 0, 65, 84
2, 45667, Note_on_c, 0, 65, 0
2, 45672, Note_on_c, 0, 67, 84
2, 45695, Note_on_c, 0, 67, 0
2, 45696, Note_on_c, 0, 67, 84
2, 45792, Note_on_c, 0, 67, 0
2, 45792, Note_on_c, 0, 68, 84
2, 45807, Note_on_c, 0, 68, 0
2, 45808, Note_on_c, 0, 72, 84
2, 45823, Note_on_c, 0, 72, 0
2, 45824, Note_on_c, 0, 70, 84
2, 45839, Note_on_c, 0, 70, 0
2, 45840, Note_on_c, 0, 68, 84
2, 45855, Note_on_c, 0, 68, 0
2, 45856, Note_on_c, 0, 67, 84
2, 45871, Note_on_c, 0, 67, 0
2, 45872, Note_on_c, 0, 65, 84
2, 45887, Note_on_c, 0, 65, 0
2, 45888, Note_on_c, 0, 63, 84
2, 45955, Note_on_c, 0, 63, 0
2, 45960, Note_on_c, 0, 60, 84
2, 45972, Note_on_c, 0, 60, 0
2, 45972, Note_on_c, 0, 61, 84
2, 45984, Note_on_c, 0, 61, 0
2, 45984, Note_on_c, 0, 63, 84
2, 45992, Note_on_c, 0, 63, 0
2, 45992, Note_on_c, 0, 61, 84
2, 46000, Note_on_c, 0, 61, 0
2, 46000, Note_on_c, 0, 63, 84
2, 46008, Note_on_c, 0, 63, 0
2, 46008, Note_on_c, 0, 61, 84
2, 46016, Note_on_c, 0, 61, 0
2, 46016, Note_on_c, 0, 63, 84
2, 46024, Note_on_c, 0, 63, 0
2, 46024, Note_on_c, 0, 61, 84
2, 46032, Note_on_c, 0, 61, 0
2, 46032, Note_on_c, 0, 63, 84
2, 46040, Note_on_c, 0, 63, 0
2, 46040, Note_on_c, 0, 61, 84
2, 46048, Note_on_c, 0, 61, 0
2, 46048, Note_on_c, 0, 60, 84
2, 46064, Note_on_c, 0, 60, 0
2, 46064, Note_on_c, 0, 61, 84
2, 46080, Note_on_c, 0, 61, 0
2, 46080, Note_on_c, 0, 61, 84
2, 46080, Note_on_c, 0, 58, 84
2, 46176, Note_on_c, 0, 61, 0
2, 46176, Note_on_c, 0, 58, 0
2, 46176, Note_on_c, 0, 60, 84
2, 46176, Note_on_c, 0, 56, 84
2, 46265, Note_on_c, 0, 60, 0
2, 46265, Note_on_c, 0, 56, 0
2, 46272, Note_on_c, 0, 68, 69
2, 46278, Note_on_c, 0, 68, 0
2, 46278, Note_on_c, 0, 67, 69
2, 46284, Note_on_c, 0, 67, 0
2, 46284, Note_on_c, 0, 68, 69
2, 46451, Note_on_c, 0, 68, 0
2, 46464, Note_on_c, 0, 75, 69
2, 46627, Note_on_c, 0, 75, 0
2, 46632, Note_on_c, 0, 73, 69
2, 46655, Note_on_c, 0, 73, 0
2, 46656, Note_on_c, 0, 73, 69
2, 46752, Note_on_c, 0, 73, 0
2, 46752, Note_on_c, 0, 71, 69
2, 46797, Note_on_c, 0, 71, 0
2, 46800, Note_on_c, 0, 63, 69
2, 46845, Note_on_c, 0, 63, 0
2, 46848, Note_on_c, 0, 64, 69
2, 46989, Note_on_c, 0, 64, 0
2, 46992, Note_on_c, 0, 68, 69
2, 47026, Note_on_c, 0, 68, 0
2, 47028, Note_on_c, 0, 64, 69
2, 47040, Note_on_c, 0, 64, 0
2, 47040, Note_on_c, 0, 64, 69
2, 47136, Note_on_c, 0, 64, 0
2, 47136, Note_on_c, 0, 63, 69
2, 47142, Note_on_c, 0, 63, 0
2, 47142, Note_on_c, 0, 65, 69
2, 47148, Note_on_c, 0, 65, 0
2, 47148, Note_on_c, 0, 63, 69
2, 47205, Note_on_c, 0, 63, 0
2, 47208, Note_on_c, 0, 63, 69
2, 47231, Note_on_c, 0, 63, 0
2, 47232, Note_on_c, 0, 68, 69
2, 47321, Note_on_c, 0, 68, 0
2, 47328, Note_on_c, 0, 66, 69
2, 47351, Note_on_c, 0, 66, 0
2, 47352, Note_on_c, 0, 64, 69
2, 47375, Note_on_c, 0, 64, 0
2, 47376, Note_on_c, 0, 63, 69
2, 47399, Note_on_c, 0, 63, 0
2, 47400, Note_on_c, 0, 62, 69
2, 47423, Note_on_c, 0, 62, 0
2, 47424, Note_on_c, 0, 62, 69
2, 47520, Note_on_c, 0, 62, 0
2, 47520, Note_on_c, 0, 63, 69
2, 47609, Note_on_c, 0, 63, 0
2, 47632, Note_on_c, 0, 79, 75
2, 47647, Note_on_c, 0, 79, 0
2, 47648, Note_on_c, 0, 80, 75
2, 47663, Note_on_c, 0, 80, 0
2, 47664, Note_on_c, 0, 82, 75
2, 47679, Note_on_c, 0, 82, 0
2, 47680, Note_on_c, 0, 80, 75
2, 47695, Note_on_c, 0, 80, 0
2, 47696, Note_on_c, 0, 79, 75
2, 47711, Note_on_c, 0, 79, 0
2, 47728, Note_on_c, 0, 80, 75
2, 47743, Note_on_c, 0, 80, 0
2, 47744, Note_on_c, 0, 82, 75
2, 47759, Note_on_c, 0, 82, 0
2, 47760, Note_on_c, 0, 84, 75
2, 47775, Note_on_c, 0, 84, 0
2, 47776, Note_on_c, 0, 82, 75
2, 47791, Note_on_c, 0, 82, 0
2, 47792, Note_on_c, 0, 80, 75
2, 47807, Note_on_c, 0, 80, 0
2, 47808, Note_on_c, 0, 82, 75
2, 47823, Note_on_c, 0, 82, 0
2, 47824, Note_on_c, 0, 85, 75
2, 47839, Note_on_c, 0, 85, 0
2, 47840, Note_on_c, 0, 84, 75
2, 47855, Note_on_c, 0, 84, 0
2, 47856, Note_on_c, 0, 82, 75
2, 47871, Note_on_c, 0, 82, 0
2, 47872, Note_on_c, 0, 80, 75
2, 47887, Note_on_c, 0, 80, 0
2, 47888, Note_on_c, 0, 79, 75
2, 47903, Note_on_c, 0, 79, 0
2, 47904, Note_on_c, 0, 77, 75
2, 47919, Note_on_c, 0, 77, 0
2, 47920, Note_on_c, 0, 75, 75
2, 47935, Note_on_c, 0, 75, 0
2, 47936, Note_on_c, 0, 73, 75
2, 47951, Note_on_c, 0, 73, 0
2, 47952, Note_on_c, 0, 72, 75
2, 47967, Note_on_c, 0, 72, 0
2, 47968, Note_on_c, 0, 70, 75
2, 47983, Note_on_c, 0, 70, 0
2, 47984, Note_on_c, 0, 68, 75
2, 47999, Note_on_c, 0, 68, 0
2, 48016, Note_on_c, 0, 67, 75
2, 48031, Note_on_c, 0, 67, 0
2, 48032, Note_on_c, 0, 68, 75
2, 48047, Note_on_c, 0, 68, 0
2, 48048, Note_on_c, 0, 70, 75
2, 48063, Note_on_c, 0, 70, 0
2, 48064, Note_on_c, 0, 68, 75
2, 48079, Note_on_c, 0, 68, 0
2, 48080, Note_on_c, 0, 67, 75
2, 48095, Note_on_c, 0, 67, 0
2, 48112, Note_on_c, 0, 68, 75
2, 48127, Note_on_c, 0, 68, 0
2, 48128, Note_on_c, 0, 70, 75
2, 48143, Note_on_c, 0, 70, 0
2, 48144, Note_on_c, 0, 72, 75
2, 48159, Note_on_c, 0, 72, 0
2, 48160, Note_on_c, 0, 70, 75
2, 48175, Note_on_c, 0, 70, 0
2, 48176, Note_on_c, 0, 68, 75
2, 48191, Note_on_c, 0, 68, 0
2, 48192, Note_on_c, 0, 70, 75
2, 48207, Note_on_c, 0, 70, 0
2, 48208, Note_on_c, 0, 73, 75
2, 48223, Note_on_c, 0, 73, 0
2, 48224, Note_on_c, 0, 72, 75
2, 48239, Note_on_c, 0, 72, 0
2, 48240, Note_on_c, 0, 70, 75
2, 48255, Note_on_c, 0, 70, 0
2, 48256, Note_on_c, 0, 68, 75
2, 48271, Note_on_c, 0, 68, 0
2, 48272, Note_on_c, 0, 67, 75
2, 48287, Note_on_c, 0, 67, 0
2, 48288, Note_on_c, 0, 65, 75
2, 48303, Note_on_c, 0, 65, 0
2, 48304, Note_on_c, 0, 63, 75
2, 48319, Note_on_c, 0, 63, 0
2, 48320, Note_on_c, 0, 61, 75
2, 48335, Note_on_c, 0, 61, 0
2, 48336, Note_on_c, 0, 60, 75
2, 48351, Note_on_c, 0, 60, 0
2, 48352, Note_on_c, 0, 58, 75
2, 48367, Note_on_c, 0, 58, 0
2, 48368, Note_on_c, 0, 56, 75
2, 48383, Note_on_c, 0, 56, 0
2, 48400, Note_on_c, 0, 55, 84
2, 48415, Note_on_c, 0, 55, 0
2, 48416, Note_on_c, 0, 58, 84
2, 48431, Note_on_c, 0, 58, 0
2, 48448, Note_on_c, 0, 53, 84
2, 48463, Note_on_c, 0, 53, 0
2, 48464, Note_on_c, 0, 56, 84
2, 48479, Note_on_c, 0, 56, 0
2, 48496, Note_on_c, 0, 55, 84
2, 48511, Note_on_c, 0, 55, 0
2, 48512, Note_on_c, 0, 58, 84
2, 48527, Note_on_c, 0, 58, 0
2, 48544, Note_on_c, 0, 56, 84
2, 48559, Note_on_c, 0, 56, 0
2, 48560, Note_on_c, 0, 60, 84
2, 48575, Note_on_c, 0, 60, 0
2, 48592, Note_on_c, 0, 58, 84
2, 48607, Note_on_c, 0, 58, 0
2, 48608, Note_on_c, 0, 61, 84
2, 48623, Note_on_c, 0, 61, 0
2, 48640, Note_on_c, 0, 55, 84
2, 48655, Note_on_c, 0, 55, 0
2, 48656, Note_on_c, 0, 58, 84
2, 48671, Note_on_c, 0, 58, 0
2, 48688, Note_on_c, 0, 56, 84
2, 48703, Note_on_c, 0, 56, 0
2, 48704, Note_on_c, 0, 60, 84
2, 48719, Note_on_c, 0, 60, 0
2, 48736, Note_on_c, 0, 60, 84
2, 48751, Note_on_c, 0, 60, 0
2, 48752, Note_on_c, 0, 63, 84
2, 48767, Note_on_c, 0, 63, 0
2, 48784, Note_on_c, 0, 51, 84
2, 48799, Note_on_c, 0, 51, 0
2, 48800, Note_on_c, 0, 55, 84
2, 48815, Note_on_c, 0, 55, 0
2, 48832, Note_on_c, 0, 53, 84
2, 48847, Note_on_c, 0, 53, 0
2, 48848, Note_on_c, 0, 56, 84
2, 48863, Note_on_c, 0, 56, 0
2, 48880, Note_on_c, 0, 55, 84
2, 48895, Note_on_c, 0, 55, 0
2, 48896, Note_on_c, 0, 58, 84
2, 48911, Note_on_c, 0, 58, 0
2, 48928, Note_on_c, 0, 56, 84
2, 48943, Note_on_c, 0, 56, 0
2, 48944, Note_on_c, 0, 60, 84
2, 48959, Note_on_c, 0, 60, 0
2, 48976, Note_on_c, 0, 58, 84
2, 48991, Note_on_c, 0, 58, 0
2, 48992, Note_on_c, 0, 61, 84
2, 49007, Note_on_c, 0, 61, 0
2, 49024, Note_on_c, 0, 55, 84
2, 49039, Note_on_c, 0, 55, 0
2, 49040, Note_on_c, 0, 58, 84
2, 49055, Note_on_c, 0, 58, 0
2, 49072, Note_on_c, 0, 56, 84
2, 49087, Note_on_c, 0, 56, 0
2, 49088, Note_on_c, 0, 60, 84
2, 49103, Note_on_c, 0, 60, 0
2, 49120, Note_on_c, 0, 60, 84
2, 49135, Note_on_c, 0, 60, 0
2, 49136, Note_on_c, 0, 62, 84
2, 49151, Note_on_c, 0, 62, 0
2, 49152, Note_on_c, 0, 63, 84
2, 49152, Note_on_c, 0, 55, 84
2, 49337, Note_on_c, 0, 63, 0
2, 49337, Note_on_c, 0, 55, 0
2, 49536, Note_on_c, 0, 75, 69
2, 49536, Note_on_c, 0, 72, 69
2, 49625, Note_on_c, 0, 75, 0
2, 49625, Note_on_c, 0, 72, 0
2, 49632, Note_on_c, 0, 75, 69
2, 49632, Note_on_c, 0, 73, 69
2, 49721, Note_on_c, 0, 75, 0
2, 49721, Note_on_c, 0, 73, 0
2, 49728, Note_on_c, 0, 75, 69
2, 49728, Note_on_c, 0, 72, 69
2, 49743, Note_on_c, 0, 75, 0
2, 49743, Note_on_c, 0, 72, 0
2, 49744, Note_on_c, 0, 72, 69
2, 49759, Note_on_c, 0, 72, 0
2, 49760, Note_on_c, 0, 73, 69
2, 49775, Note_on_c, 0, 73, 0
2, 49776, Note_on_c, 0, 75, 69
2, 49791, Note_on_c, 0, 75, 0
2, 49792, Note_on_c, 0, 73, 69
2, 49807, Note_on_c, 0, 73, 0
2, 49808, Note_on_c, 0, 72, 69
2, 49823, Note_on_c, 0, 72, 0
2, 49824, Note_on_c, 0, 80, 69
2, 49839, Note_on_c, 0, 80, 0
2, 49840, Note_on_c, 0, 79, 69
2, 49855, Note_on_c, 0, 79, 0
2, 49856, Note_on_c, 0, 77, 69
2, 49871, Note_on_c, 0, 77, 0
2, 49872, Note_on_c, 0, 75, 69
2, 49887, Note_on_c, 0, 75, 0
2, 49888, Note_on_c, 0, 73, 69
2, 49903, Note_on_c, 0, 73, 0
2, 49904, Note_on_c, 0, 72, 69
2, 49919, Note_on_c, 0, 72, 0
2, 49920, Note_on_c, 0, 75, 69
2, 49920, Note_on_c, 0, 72, 69
2, 50009, Note_on_c, 0, 75, 0
2, 50009, Note_on_c, 0, 72, 0
2, 50016, Note_on_c, 0, 75, 69
2, 50016, Note_on_c, 0, 73, 69
2, 50105, Note_on_c, 0, 75, 0
2, 50105, Note_on_c, 0, 73, 0
2, 50112, Note_on_c, 0, 75, 69
2, 50112, Note_on_c, 0, 72, 69
2, 50127, Note_on_c, 0, 75, 0
2, 50127, Note_on_c, 0, 72, 0
2, 50128, Note_on_c, 0, 72, 69
2, 50143, Note_on_c, 0, 72, 0
2, 50144, Note_on_c, 0, 73, 69
2, 50159, Note_on_c, 0, 73, 0
2, 50160, Note_on_c, 0, 75, 69
2, 50175, Note_on_c, 0, 75, 0
2, 50176, Note_on_c, 0, 73, 69
2, 50191, Note_on_c, 0, 73, 0
2, 50192, Note_on_c, 0, 72, 69
2, 50207, Note_on_c, 0, 72, 0
2, 50208, Note_on_c, 0, 80, 69
2, 50223, Note_on_c, 0, 80, 0
2, 50224, Note_on_c, 0, 79, 69
2, 50239, Note_on_c, 0, 79, 0
2, 50240, Note_on_c, 0, 77, 70
2, 50255, Note_on_c, 0, 77, 0
2, 50256, Note_on_c, 0, 75, 71
2, 50271, Note_on_c, 0, 75, 0
2, 50272, Note_on_c, 0, 73, 72
2, 50287, Note_on_c, 0, 73, 0
2, 50288, Note_on_c, 0, 72, 72
2, 50303, Note_on_c, 0, 72, 0
2, 50304, Note_on_c, 0, 70, 75
2, 50319, Note_on_c, 0, 70, 0
2, 50320, Note_on_c, 0, 82, 75
2, 50335, Note_on_c, 0, 82, 0
2, 50336, Note_on_c, 0, 84, 75
2, 50351, Note_on_c, 0, 84, 0
2, 50352, Note_on_c, 0, 85, 75
2, 50367, Note_on_c, 0, 85, 0
2, 50368, Note_on_c, 0, 84, 75
2, 50383, Note_on_c, 0, 84, 0
2, 50384, Note_on_c, 0, 82, 75
2, 50399, Note_on_c, 0, 82, 0
2, 50400, Note_on_c, 0, 89, 75
2, 50415, Note_on_c, 0, 89, 0
2, 50416, Note_on_c, 0, 87, 75
2, 50431, Note_on_c, 0, 87, 0
2, 50432, Note_on_c, 0, 85, 75
2, 50447, Note_on_c, 0, 85, 0
2, 50448, Note_on_c, 0, 84, 75
2, 50463, Note_on_c, 0, 84, 0
2, 50464, Note_on_c, 0, 82, 75
2, 50479, Note_on_c, 0, 82, 0
2, 50480, Note_on_c, 0, 80, 75
2, 50495, Note_on_c, 0, 80, 0
2, 50496, Note_on_c, 0, 79, 75
2, 50511, Note_on_c, 0, 79, 0
2, 50512, Note_on_c, 0, 82, 75
2, 50527, Note_on_c, 0, 82, 0
2, 50528, Note_on_c, 0, 80, 75
2, 50543, Note_on_c, 0, 80, 0
2, 50544, Note_on_c, 0, 79, 75
2, 50559, Note_on_c, 0, 79, 0
2, 50560, Note_on_c, 0, 77, 75
2, 50575, Note_on_c, 0, 77, 0
2, 50576, Note_on_c, 0, 75, 75
2, 50591, Note_on_c, 0, 75, 0
2, 50592, Note_on_c, 0, 73, 75
2, 50607, Note_on_c, 0, 73, 0
2, 50608, Note_on_c, 0, 72, 75
2, 50623, Note_on_c, 0, 72, 0
2, 50624, Note_on_c, 0, 70, 75
2, 50639, Note_on_c, 0, 70, 0
2, 50640, Note_on_c, 0, 68, 75
2, 50655, Note_on_c, 0, 68, 0
2, 50656, Note_on_c, 0, 67, 75
2, 50671, Note_on_c, 0, 67, 0
2, 50672, Note_on_c, 0, 65, 75
2, 50687, Note_on_c, 0, 65, 0
2, 50688, Note_on_c, 0, 63, 75
2, 50703, Note_on_c, 0, 63, 0
2, 50704, Note_on_c, 0, 67, 75
2, 50719, Note_on_c, 0, 67, 0
2, 50720, Note_on_c, 0, 70, 75
2, 50735, Note_on_c, 0, 70, 0
2, 50736, Note_on_c, 0, 63, 75
2, 50751, Note_on_c, 0, 63, 0
2, 50752, Note_on_c, 0, 67, 75
2, 50767, Note_on_c, 0, 67, 0
2, 50768, Note_on_c, 0, 68, 75
2, 50783, Note_on_c, 0, 68, 0
2, 50784, Note_on_c, 0, 61, 75
2, 50799, Note_on_c, 0, 61, 0
2, 50800, Note_on_c, 0, 63, 75
2, 50815, Note_on_c, 0, 63, 0
2, 50816, Note_on_c, 0, 67, 75
2, 50831, Note_on_c, 0, 67, 0
2, 50832, Note_on_c, 0, 60, 75
2, 50847, Note_on_c, 0, 60, 0
2, 50848, Note_on_c, 0, 63, 75
2, 50863, Note_on_c, 0, 63, 0
2, 50864, Note_on_c, 0, 68, 75
2, 50879, Note_on_c, 0, 68, 0
2, 50880, Note_on_c, 0, 63, 75
2, 50895, Note_on_c, 0, 63, 0
2, 50896, Note_on_c, 0, 67, 75
2, 50911, Note_on_c, 0, 67, 0
2, 50912, Note_on_c, 0, 70, 75
2, 50927, Note_on_c, 0, 70, 0
2, 50928, Note_on_c, 0, 63, 75
2, 50943, Note_on_c, 0, 63, 0
2, 50944, Note_on_c, 0, 67, 75
2, 50959, Note_on_c, 0, 67, 0
2, 50960, Note_on_c, 0, 68, 75
2, 50975, Note_on_c, 0, 68, 0
2, 50976, Note_on_c, 0, 61, 75
2, 50991, Note_on_c, 0, 61, 0
2, 50992, Note_on_c, 0, 63, 75
2, 51007, Note_on_c, 0, 63, 0
2, 51008, Note_on_c, 0, 67, 75
2, 51023, Note_on_c, 0, 67, 0
2, 51024, Note_on_c, 0, 60, 75
2, 51039, Note_on_c, 0, 60, 0
2, 51040, Note_on_c, 0, 63, 75
2, 51055, Note_on_c, 0, 63, 0
2, 51056, Note_on_c, 0, 68, 75
2, 51071, Note_on_c, 0, 68, 0
2, 51088, Note_on_c, 0, 58, 75
2, 51103, Note_on_c, 0, 58, 0
2, 51104, Note_on_c, 0, 61, 75
2, 51119, Note_on_c, 0, 61, 0
2, 51120, Note_on_c, 0, 65, 75
2, 51135, Note_on_c, 0, 65, 0
2, 51136, Note_on_c, 0, 58, 75
2, 51151, Note_on_c, 0, 58, 0
2, 51152, Note_on_c, 0, 61, 75
2, 51167, Note_on_c, 0, 61, 0
2, 51168, Note_on_c, 0, 65, 75
2, 51183, Note_on_c, 0, 65, 0
2, 51184, Note_on_c, 0, 65, 75
2, 51199, Note_on_c, 0, 65, 0
2, 51200, Note_on_c, 0, 70, 75
2, 51215, Note_on_c, 0, 70, 0
2, 51216, Note_on_c, 0, 73, 75
2, 51231, Note_on_c, 0, 73, 0
2, 51232, Note_on_c, 0, 65, 75
2, 51247, Note_on_c, 0, 65, 0
2, 51248, Note_on_c, 0, 70, 75
2, 51263, Note_on_c, 0, 70, 0
2, 51264, Note_on_c, 0, 73, 75
2, 51279, Note_on_c, 0, 73, 0
2, 51280, Note_on_c, 0, 70, 75
2, 51295, Note_on_c, 0, 70, 0
2, 51296, Note_on_c, 0, 73, 75
2, 51311, Note_on_c, 0, 73, 0
2, 51312, Note_on_c, 0, 77, 75
2, 51327, Note_on_c, 0, 77, 0
2, 51328, Note_on_c, 0, 70, 75
2, 51343, Note_on_c, 0, 70, 0
2, 51344, Note_on_c, 0, 73, 75
2, 51359, Note_on_c, 0, 73, 0
2, 51360, Note_on_c, 0, 77, 75
2, 51375, Note_on_c, 0, 77, 0
2, 51376, Note_on_c, 0, 75, 76
2, 51391, Note_on_c, 0, 75, 0
2, 51392, Note_on_c, 0, 73, 77
2, 51407, Note_on_c, 0, 73, 0
2, 51408, Note_on_c, 0, 72, 78
2, 51423, Note_on_c, 0, 72, 0
2, 51424, Note_on_c, 0, 70, 79
2, 51439, Note_on_c, 0, 70, 0
2, 51440, Note_on_c, 0, 68, 80
2, 51455, Note_on_c, 0, 68, 0
2, 51456, Note_on_c, 0, 68, 84
2, 51643, Note_on_c, 0, 68, 0
2, 51648, Note_on_c, 0, 67, 84
2, 51654, Note_on_c, 0, 67, 0
2, 51654, Note_on_c, 0, 68, 84
2, 51660, Note_on_c, 0, 68, 0
2, 51660, Note_on_c, 0, 67, 84
2, 51833, Note_on_c, 0, 67, 0
2, 51840, Note_on_c, 0, 57, 75
2, 52017, Note_on_c, 0, 57, 0
2, 52032, Note_on_c, 0, 58, 75
2, 52209, Note_on_c, 0, 58, 0
2, 52224, Note_on_c, 0, 54, 101
2, 52401, Note_on_c, 0, 54, 0
2, 52416, Note_on_c, 0, 53, 75
2, 52461, Note_on_c, 0, 53, 0
2, 52464, Note_on_c, 0, 64, 75
2, 52470, Note_on_c, 0, 64, 0
2, 52470, Note_on_c, 0, 65, 75
2, 52509, Note_on_c, 0, 65, 0
2, 52512, Note_on_c, 0, 60, 75
2, 52518, Note_on_c, 0, 60, 0
2, 52518, Note_on_c, 0, 61, 75
2, 52557, Note_on_c, 0, 61, 0
2, 52560, Note_on_c, 0, 57, 75
2, 52566, Note_on_c, 0, 57, 0
2, 52566, Note_on_c, 0, 58, 75
2, 52605, Note_on_c, 0, 58, 0
2, 52608, Note_on_c, 0, 53, 75
2, 52653, Note_on_c, 0, 53, 0
2, 52656, Note_on_c, 0, 76, 61
2, 52680, Note_on_c, 0, 76, 0
2, 52680, Note_on_c, 0, 77, 61
2, 52690, Note_on_c, 0, 77, 0
2, 52704, Note_on_c, 0, 72, 61
2, 52728, Note_on_c, 0, 72, 0
2, 52728, Note_on_c, 0, 73, 61
2, 52738, Note_on_c, 0, 73, 0
2, 52752, Note_on_c, 0, 69, 61
2, 52776, Note_on_c, 0, 69, 0
2, 52776, Note_on_c, 0, 70, 61
2, 52786, Note_on_c, 0, 70, 0
2, 52800, Note_on_c, 0, 65, 61
2, 52845, Note_on_c, 0, 65, 0
2, 52848, Note_on_c, 0, 76, 69
2, 52872, Note_on_c, 0, 76, 0
2, 52872, Note_on_c, 0, 77, 69
2, 52882, Note_on_c, 0, 77, 0
2, 52896, Note_on_c, 0, 75, 69
2, 52919, Note_on_c, 0, 75, 0
2, 52920, Note_on_c, 0, 73, 69
2, 52943, Note_on_c, 0, 73, 0
2, 52944, Note_on_c, 0, 72, 69
2, 52967, Note_on_c, 0, 72, 0
2, 52968, Note_on_c, 0, 70, 69
2, 52991, Note_on_c, 0, 70, 0
2, 52992, Note_on_c, 0, 72, 75
2, 52998, Note_on_c, 0, 72, 0
2, 52998, Note_on_c, 0, 73, 75
2, 53004, Note_on_c, 0, 73, 0
2, 53004, Note_on_c, 0, 75, 75
2, 53111, Note_on_c, 0, 75, 0
2, 53112, Note_on_c, 0, 73, 75
2, 53124, Note_on_c, 0, 73, 0
2, 53124, Note_on_c, 0, 72, 75
2, 53136, Note_on_c, 0, 72, 0
2, 53136, Note_on_c, 0, 70, 75
2, 53148, Note_on_c, 0, 70, 0
2, 53148, Note_on_c, 0, 68, 75
2, 53160, Note_on_c, 0, 68, 0
2, 53160, Note_on_c, 0, 67, 75
2, 53172, Note_on_c, 0, 67, 0
2, 53172, Note_on_c, 0, 65, 75
2, 53184, Note_on_c, 0, 65, 0
2, 53184, Note_on_c, 0, 63, 75
2, 53273, Note_on_c, 0, 63, 0
2, 53280, Note_on_c, 0, 61, 75
2, 53289, Note_on_c, 0, 61, 0
2, 53289, Note_on_c, 0, 63, 75
2, 53298, Note_on_c, 0, 63, 0
2, 53298, Note_on_c, 0, 61, 75
2, 53307, Note_on_c, 0, 61, 0
2, 53307, Note_on_c, 0, 63, 75
2, 53316, Note_on_c, 0, 63, 0
2, 53316, Note_on_c, 0, 61, 75
2, 53325, Note_on_c, 0, 61, 0
2, 53325, Note_on_c, 0, 63, 75
2, 53334, Note_on_c, 0, 63, 0
2, 53334, Note_on_c, 0, 61, 75
2, 53343, Note_on_c, 0, 61, 0
2, 53343, Note_on_c, 0, 60, 75
2, 53360, Note_on_c, 0, 60, 0
2, 53360, Note_on_c, 0, 61, 75
2, 53376, Note_on_c, 0, 61, 0
2, 53376, Note_on_c, 0, 60, 75
2, 53396, Note_on_c, 0, 60, 0
2, 53424, Note_on_c, 0, 68, 91
2, 53520, Note_on_c, 0, 68, 0
2, 53520, Note_on_c, 0, 66, 75
2, 53609, Note_on_c, 0, 66, 0
2, 53616, Note_on_c, 0, 65, 75
2, 53705, Note_on_c, 0, 65, 0
2, 53712, Note_on_c, 0, 69, 75
2, 53757, Note_on_c, 0, 69, 0
2, 53760, Note_on_c, 0, 72, 75
2, 53766, Note_on_c, 0, 72, 0
2, 53766, Note_on_c, 0, 70, 75
2, 53772, Note_on_c, 0, 70, 0
2, 53772, Note_on_c, 0, 69, 75
2, 53778, Note_on_c, 0, 69, 0
2, 53778, Note_on_c, 0, 70, 75
2, 53805, Note_on_c, 0, 70, 0
2, 53808, Note_on_c, 0, 72, 75
2, 53853, Note_on_c, 0, 72, 0
2, 53856, Note_on_c, 0, 75, 75
2, 53862, Note_on_c, 0, 75, 0
2, 53862, Note_on_c, 0, 73, 75
2, 53868, Note_on_c, 0, 73, 0
2, 53868, Note_on_c, 0, 72, 75
2, 53874, Note_on_c, 0, 72, 0
2, 53874, Note_on_c, 0, 73, 75
2, 53901, Note_on_c, 0, 73, 0
2, 53904, Note_on_c, 0, 76, 75
2, 53949, Note_on_c, 0, 76, 0
2, 53952, Note_on_c, 0, 79, 75
2, 53958, Note_on_c, 0, 79, 0
2, 53958, Note_on_c, 0, 77, 75
2, 53964, Note_on_c, 0, 77, 0
2, 53964, Note_on_c, 0, 76, 75
2, 53970, Note_on_c, 0, 76, 0
2, 53970, Note_on_c, 0, 77, 75
2, 53997, Note_on_c, 0, 77, 0
2, 54000, Note_on_c, 0, 81, 75
2, 54006, Note_on_c, 0, 81, 0
2, 54006, Note_on_c, 0, 84, 75
2, 54045, Note_on_c, 0, 84, 0
2, 54048, Note_on_c, 0, 82, 76
2, 54054, Note_on_c, 0, 82, 0
2, 54054, Note_on_c, 0, 85, 76
2, 54093, Note_on_c, 0, 85, 0
2, 54096, Note_on_c, 0, 84, 78
2, 54102, Note_on_c, 0, 84, 0
2, 54102, Note_on_c, 0, 87, 78
2, 54141, Note_on_c, 0, 87, 0
2, 54144, Note_on_c, 0, 85, 80
2, 54150, Note_on_c, 0, 85, 0
2, 54150, Note_on_c, 0, 89, 80
2, 54263, Note_on_c, 0, 89, 0
2, 54264, Note_on_c, 0, 87, 84
2, 54276, Note_on_c, 0, 87, 0
2, 54276, Note_on_c, 0, 85, 84
2, 54288, Note_on_c, 0, 85, 0
2, 54288, Note_on_c, 0, 87, 84
2, 54300, Note_on_c, 0, 87, 0
2, 54300, Note_on_c, 0, 85, 84
2, 54312, Note_on_c, 0, 85, 0
2, 54312, Note_on_c, 0, 84, 84
2, 54324, Note_on_c, 0, 84, 0
2, 54324, Note_on_c, 0, 82, 84
2, 54336, Note_on_c, 0, 82, 0
2, 54336, Note_on_c, 0, 84, 84
2, 54348, Note_on_c, 0, 84, 0
2, 54348, Note_on_c, 0, 85, 84
2, 54360, Note_on_c, 0, 85, 0
2, 54360, Note_on_c, 0, 87, 84
2, 54372, Note_on_c, 0, 87, 0
2, 54372, Note_on_c, 0, 85, 84
2, 54384, Note_on_c, 0, 85, 0
2, 54384, Note_on_c, 0, 84, 84
2, 54396, Note_on_c, 0, 84, 0
2, 54396, Note_on_c, 0, 82, 82
2, 54408, Note_on_c, 0, 82, 0
2, 54408, Note_on_c, 0, 80, 80
2, 54420, Note_on_c, 0, 80, 0
2, 54420, Note_on_c, 0, 79, 78
2, 54432, Note_on_c, 0, 79, 0
2, 54432, Note_on_c, 0, 77, 76
2, 54444, Note_on_c, 0, 77, 0
2, 54444, Note_on_c, 0, 75, 74
2, 54456, Note_on_c, 0, 75, 0
2, 54456, Note_on_c, 0, 73, 72
2, 54468, Note_on_c, 0, 73, 0
2, 54468, Note_on_c, 0, 72, 70
2, 54480, Note_on_c, 0, 72, 0
2, 54480, Note_on_c, 0, 70, 68
2, 54492, Note_on_c, 0, 70, 0
2, 54492, Note_on_c, 0, 68, 66
2, 54504, Note_on_c, 0, 68, 0
2, 54504, Note_on_c, 0, 67, 64
2, 54516, Note_on_c, 0, 67, 0
2, 54516, Note_on_c, 0, 65, 62
2, 54528, Note_on_c, 0, 65, 0
2, 54528, Note_on_c, 0, 63, 85
2, 54720, Note_on_c, 0, 63, 0
2, 54720, Note_on_c, 0, 62, 69
2, 54883, Note_on_c, 0, 62, 0
2, 54888, Note_on_c, 0, 63, 69
2, 54911, Note_on_c, 0, 63, 0
2, 54912, Note_on_c, 0, 61, 85
2, 54984, Note_on_c, 0, 61, 0
2, 54984, Note_on_c, 0, 63, 69
2, 55007, Note_on_c, 0, 63, 0
2, 55008, Note_on_c, 0, 61, 69
2, 55042, Note_on_c, 0, 61, 0
2, 55044, Note_on_c, 0, 63, 69
2, 55056, Note_on_c, 0, 63, 0
2, 55056, Note_on_c, 0, 61, 69
2, 55090, Note_on_c, 0, 61, 0
2, 55092, Note_on_c, 0, 63, 69
2, 55104, Note_on_c, 0, 63, 0
2, 55104, Note_on_c, 0, 60, 69
2, 55119, Note_on_c, 0, 60, 0
2, 55120, Note_on_c, 0, 63, 69
2, 55135, Note_on_c, 0, 63, 0
2, 55136, Note_on_c, 0, 68, 69
2, 55151, Note_on_c, 0, 68, 0
2, 55152, Note_on_c, 0, 60, 69
2, 55167, Note_on_c, 0, 60, 0
2, 55168, Note_on_c, 0, 63, 69
2, 55183, Note_on_c, 0, 63, 0
2, 55184, Note_on_c, 0, 68, 69
2, 55199, Note_on_c, 0, 68, 0
2, 55200, Note_on_c, 0, 63, 69
2, 55215, Note_on_c, 0, 63, 0
2, 55216, Note_on_c, 0, 67, 69
2, 55231, Note_on_c, 0, 67, 0
2, 55232, Note_on_c, 0, 70, 69
2, 55247, Note_on_c, 0, 70, 0
2, 55248, Note_on_c, 0, 67, 69
2, 55263, Note_on_c, 0, 67, 0
2, 55264, Note_on_c, 0, 70, 69
2, 55279, Note_on_c, 0, 70, 0
2, 55280, Note_on_c, 0, 73, 69
2, 55295, Note_on_c, 0, 73, 0
2, 55296, Note_on_c, 0, 72, 69
2, 55311, Note_on_c, 0, 72, 0
2, 55312, Note_on_c, 0, 75, 69
2, 55327, Note_on_c, 0, 75, 0
2, 55328, Note_on_c, 0, 80, 70
2, 55343, Note_on_c, 0, 80, 0
2, 55344, Note_on_c, 0, 72, 71
2, 55359, Note_on_c, 0, 72, 0
2, 55360, Note_on_c, 0, 75, 72
2, 55375, Note_on_c, 0, 75, 0
2, 55376, Note_on_c, 0, 80, 73
2, 55391, Note_on_c, 0, 80, 0
2, 55392, Note_on_c, 0, 75, 74
2, 55407, Note_on_c, 0, 75, 0
2, 55408, Note_on_c, 0, 79, 75
2, 55423, Note_on_c, 0, 79, 0
2, 55424, Note_on_c, 0, 82, 76
2, 55439, Note_on_c, 0, 82, 0
2, 55440, Note_on_c, 0, 79, 76
2, 55455, Note_on_c, 0, 79, 0
2, 55456, Note_on_c, 0, 82, 77
2, 55471, Note_on_c, 0, 82, 0
2, 55472, Note_on_c, 0, 85, 78
2, 55487, Note_on_c, 0, 85, 0
2, 55488, Note_on_c, 0, 84, 79
2, 55503, Note_on_c, 0, 84, 0
2, 55504, Note_on_c, 0, 85, 84
2, 55519, Note_on_c, 0, 85, 0
2, 55520, Note_on_c, 0, 87, 84
2, 55535, Note_on_c, 0, 87, 0
2, 55536, Note_on_c, 0, 85, 84
2, 55551, Note_on_c, 0, 85, 0
2, 55552, Note_on_c, 0, 84, 84
2, 55567, Note_on_c, 0, 84, 0
2, 55568, Note_on_c, 0, 82, 84
2, 55583, Note_on_c, 0, 82, 0
2, 55584, Note_on_c, 0, 80, 84
2, 55599, Note_on_c, 0, 80, 0
2, 55600, Note_on_c, 0, 79, 84
2, 55615, Note_on_c, 0, 79, 0
2, 55616, Note_on_c, 0, 77, 84
2, 55631, Note_on_c, 0, 77, 0
2, 55632, Note_on_c, 0, 75, 84
2, 55647, Note_on_c, 0, 75, 0
2, 55648, Note_on_c, 0, 73, 84
2, 55663, Note_on_c, 0, 73, 0
2, 55664, Note_on_c, 0, 72, 84
2, 55679, Note_on_c, 0, 72, 0
2, 55680, Note_on_c, 0, 70, 84
2, 55695, Note_on_c, 0, 70, 0
2, 55696, Note_on_c, 0, 73, 83
2, 55711, Note_on_c, 0, 73, 0
2, 55712, Note_on_c, 0, 72, 82
2, 55727, Note_on_c, 0, 72, 0
2, 55728, Note_on_c, 0, 70, 81
2, 55743, Note_on_c, 0, 70, 0
2, 55744, Note_on_c, 0, 77, 81
2, 55759, Note_on_c, 0, 77, 0
2, 55760, Note_on_c, 0, 75, 80
2, 55775, Note_on_c, 0, 75, 0
2, 55776, Note_on_c, 0, 73, 79
2, 55791, Note_on_c, 0, 73, 0
2, 55792, Note_on_c, 0, 72, 79
2, 55807, Note_on_c, 0, 72, 0
2, 55808, Note_on_c, 0, 70, 78
2, 55823, Note_on_c, 0, 70, 0
2, 55824, Note_on_c, 0, 68, 77
2, 55839, Note_on_c, 0, 68, 0
2, 55840, Note_on_c, 0, 67, 77
2, 55855, Note_on_c, 0, 67, 0
2, 55856, Note_on_c, 0, 65, 76
2, 55871, Note_on_c, 0, 65, 0
2, 55872, Note_on_c, 0, 63, 75
2, 55939, Note_on_c, 0, 63, 0
2, 55944, Note_on_c, 0, 68, 69
2, 55956, Note_on_c, 0, 68, 0
2, 55956, Note_on_c, 0, 70, 69
2, 55968, Note_on_c, 0, 70, 0
2, 55968, Note_on_c, 0, 72, 69
2, 55976, Note_on_c, 0, 72, 0
2, 55976, Note_on_c, 0, 70, 69
2, 55984, Note_on_c, 0, 70, 0
2, 55984, Note_on_c, 0, 72, 69
2, 55992, Note_on_c, 0, 72, 0
2, 55992, Note_on_c, 0, 70, 69
2, 56000, Note_on_c, 0, 70, 0
2, 56000, Note_on_c, 0, 72, 69
2, 56008, Note_on_c, 0, 72, 0
2, 56008, Note_on_c, 0, 70, 69
2, 56016, Note_on_c, 0, 70, 0
2, 56016, Note_on_c, 0, 72, 69
2, 56024, Note_on_c, 0, 72, 0
2, 56024, Note_on_c, 0, 70, 69
2, 56032, Note_on_c, 0, 70, 0
2, 56032, Note_on_c, 0, 68, 69
2, 56048, Note_on_c, 0, 68, 0
2, 56048, Note_on_c, 0, 70, 69
2, 56064, Note_on_c, 0, 70, 0
2, 56064, Note_on_c, 0, 60, 69
2, 56079, Note_on_c, 0, 60, 0
2, 56080, Note_on_c, 0, 63, 69
2, 56095, Note_on_c, 0, 63, 0
2, 56096, Note_on_c, 0, 68, 69
2, 56111, Note_on_c, 0, 68, 0
2, 56112, Note_on_c, 0, 60, 69
2, 56127, Note_on_c, 0, 60, 0
2, 56128, Note_on_c, 0, 63, 69
2, 56143, Note_on_c, 0, 63, 0
2, 56144, Note_on_c, 0, 68, 69
2, 56159, Note_on_c, 0, 68, 0
2, 56160, Note_on_c, 0, 63, 69
2, 56175, Note_on_c, 0, 63, 0
2, 56176, Note_on_c, 0, 67, 69
2, 56191, Note_on_c, 0, 67, 0
2, 56192, Note_on_c, 0, 70, 69
2, 56207, Note_on_c, 0, 70, 0
2, 56208, Note_on_c, 0, 67, 69
2, 56223, Note_on_c, 0, 67, 0
2, 56224, Note_on_c, 0, 70, 69
2, 56239, Note_on_c, 0, 70, 0
2, 56240, Note_on_c, 0, 73, 69
2, 56255, Note_on_c, 0, 73, 0
2, 56256, Note_on_c, 0, 72, 69
2, 56271, Note_on_c, 0, 72, 0
2, 56272, Note_on_c, 0, 75, 69
2, 56287, Note_on_c, 0, 75, 0
2, 56288, Note_on_c, 0, 80, 70
2, 56303, Note_on_c, 0, 80, 0
2, 56304, Note_on_c, 0, 72, 71
2, 56319, Note_on_c, 0, 72, 0
2, 56320, Note_on_c, 0, 75, 72
2, 56335, Note_on_c, 0, 75, 0
2, 56336, Note_on_c, 0, 80, 73
2, 56351, Note_on_c, 0, 80, 0
2, 56352, Note_on_c, 0, 75, 74
2, 56367, Note_on_c, 0, 75, 0
2, 56368, Note_on_c, 0, 79, 75
2, 56383, Note_on_c, 0, 79, 0
2, 56384, Note_on_c, 0, 82, 76
2, 56399, Note_on_c, 0, 82, 0
2, 56400, Note_on_c, 0, 79, 77
2, 56415, Note_on_c, 0, 79, 0
2, 56416, Note_on_c, 0, 82, 78
2, 56431, Note_on_c, 0, 82, 0
2, 56432, Note_on_c, 0, 85, 79
2, 56447, Note_on_c, 0, 85, 0
2, 56448, Note_on_c, 0, 84, 84
2, 56463, Note_on_c, 0, 84, 0
2, 56464, Note_on_c, 0, 85, 84
2, 56479, Note_on_c, 0, 85, 0
2, 56480, Note_on_c, 0, 87, 84
2, 56495, Note_on_c, 0, 87, 0
2, 56496, Note_on_c, 0, 85, 84
2, 56511, Note_on_c, 0, 85, 0
2, 56512, Note_on_c, 0, 84, 84
2, 56527, Note_on_c, 0, 84, 0
2, 56528, Note_on_c, 0, 82, 84
2, 56543, Note_on_c, 0, 82, 0
2, 56544, Note_on_c, 0, 80, 84
2, 56559, Note_on_c, 0, 80, 0
2, 56560, Note_on_c, 0, 79, 84
2, 56575, Note_on_c, 0, 79, 0
2, 56576, Note_on_c, 0, 77, 84
2, 56591, Note_on_c, 0, 77, 0
2, 56592, Note_on_c, 0, 75, 84
2, 56607, Note_on_c, 0, 75, 0
2, 56608, Note_on_c, 0, 73, 84
2, 56623, Note_on_c, 0, 73, 0
2, 56624, Note_on_c, 0, 72, 84
2, 56639, Note_on_c, 0, 72, 0
2, 56640, Note_on_c, 0, 70, 84
2, 56655, Note_on_c, 0, 70, 0
2, 56656, Note_on_c, 0, 73, 84
2, 56671, Note_on_c, 0, 73, 0
2, 56672, Note_on_c, 0, 72, 84
2, 56687, Note_on_c, 0, 72, 0
2, 56688, Note_on_c, 0, 70, 84
2, 56703, Note_on_c, 0, 70, 0
2, 56704, Note_on_c, 0, 77, 84
2, 56719, Note_on_c, 0, 77, 0
2, 56720, Note_on_c, 0, 75, 84
2, 56735, Note_on_c, 0, 75, 0
2, 56736, Note_on_c, 0, 73, 84
2, 56751, Note_on_c, 0, 73, 0
2, 56752, Note_on_c, 0, 72, 84
2, 56767, Note_on_c, 0, 72, 0
2, 56768, Note_on_c, 0, 70, 84
2, 56783, Note_on_c, 0, 70, 0
2, 56784, Note_on_c, 0, 68, 84
2, 56799, Note_on_c, 0, 68, 0
2, 56800, Note_on_c, 0, 67, 84
2, 56815, Note_on_c, 0, 67, 0
2, 56816, Note_on_c, 0, 65, 84
2, 56831, Note_on_c, 0, 65, 0
2, 56832, Note_on_c, 0, 63, 84
2, 56899, Note_on_c, 0, 63, 0
2, 56904, Note_on_c, 0, 68, 80
2, 56916, Note_on_c, 0, 68, 0
2, 56916, Note_on_c, 0, 70, 80
2, 56928, Note_on_c, 0, 70, 0
2, 56928, Note_on_c, 0, 72, 79
2, 56936, Note_on_c, 0, 72, 0
2, 56936, Note_on_c, 0, 70, 79
2, 56944, Note_on_c, 0, 70, 0
2, 56944, Note_on_c, 0, 72, 79
2, 56952, Note_on_c, 0, 72, 0
2, 56952, Note_on_c, 0, 70, 78
2, 56960, Note_on_c, 0, 70, 0
2, 56960, Note_on_c, 0, 72, 78
2, 56968, Note_on_c, 0, 72, 0
2, 56968, Note_on_c, 0, 70, 78
2, 56976, Note_on_c, 0, 70, 0
2, 56976, Note_on_c, 0, 72, 78
2, 56984, Note_on_c, 0, 72, 0
2, 56984, Note_on_c, 0, 70, 77
2, 56992, Note_on_c, 0, 70, 0
2, 56992, Note_on_c, 0, 68, 77
2, 57008, Note_on_c, 0, 68, 0
2, 57008, Note_on_c, 0, 70, 77
2, 57024, Note_on_c, 0, 70, 0
2, 57024, Note_on_c, 0, 68, 92
2, 57120, Note_on_c, 0, 68, 0
2, 57120, Note_on_c, 0, 77, 72
2, 57120, Note_on_c, 0, 73, 72
2, 57165, Note_on_c, 0, 77, 0
2, 57165, Note_on_c, 0, 73, 0
2, 57168, Note_on_c, 0, 67, 69
2, 57168, Note_on_c, 0, 63, 69
2, 57216, Note_on_c, 0, 67, 0
2, 57216, Note_on_c, 0, 68, 69
2, 57261, Note_on_c, 0, 68, 0
2, 57261, Note_on_c, 0, 63, 0
2, 57312, Note_on_c, 0, 77, 61
2, 57312, Note_on_c, 0, 73, 61
2, 57357, Note_on_c, 0, 77, 0
2, 57357, Note_on_c, 0, 73, 0
2, 57360, Note_on_c, 0, 67, 61
2, 57360, Note_on_c, 0, 61, 61
2, 57408, Note_on_c, 0, 67, 0
2, 57408, Note_on_c, 0, 61, 0
2, 57408, Note_on_c, 0, 68, 61
2, 57408, Note_on_c, 0, 60, 61
2, 57541, Note_on_c, 0, 68, 0
2, 57541, Note_on_c, 0, 60, 0
2, 57600, Note_on_c, 0, 75, 84
2, 57606, Note_on_c, 0, 75, 0
2, 57606, Note_on_c, 0, 74, 84
2, 57612, Note_on_c, 0, 74, 0
2, 57612, Note_on_c, 0, 75, 84
2, 57785, Note_on_c, 0, 75, 0
2, 57792, Note_on_c, 0, 82, 84
2, 57955, Note_on_c, 0, 82, 0
2, 57960, Note_on_c, 0, 80, 84
2, 57983, Note_on_c, 0, 80, 0
2, 57984, Note_on_c, 0, 80, 84
2, 58080, Note_on_c, 0, 80, 0
2, 58080, Note_on_c, 0, 79, 84
2, 58086, Note_on_c, 0, 79, 0
2, 58086, Note_on_c, 0, 80, 84
2, 58092, Note_on_c, 0, 80, 0
2, 58092, Note_on_c, 0, 79, 84
2, 58149, Note_on_c, 0, 79, 0
2, 58152, Note_on_c, 0, 80, 84
2, 58175, Note_on_c, 0, 80, 0
2, 58176, Note_on_c, 0, 79, 84
2, 58272, Note_on_c, 0, 79, 0
2, 58272, Note_on_c, 0, 77, 84
2, 58278, Note_on_c, 0, 77, 0
2, 58278, Note_on_c, 0, 79, 84
2, 58284, Note_on_c, 0, 79, 0
2, 58284, Note_on_c, 0, 77, 84
2, 58341, Note_on_c, 0, 77, 0
2, 58344, Note_on_c, 0, 79, 84
2, 58367, Note_on_c, 0, 79, 0
2, 58368, Note_on_c, 0, 77, 84
2, 58464, Note_on_c, 0, 77, 0
2, 58464, Note_on_c, 0, 75, 84
2, 58470, Note_on_c, 0, 75, 0
2, 58470, Note_on_c, 0, 77, 84
2, 58476, Note_on_c, 0, 77, 0
2, 58476, Note_on_c, 0, 75, 84
2, 58498, Note_on_c, 0, 75, 0
2, 58500, Note_on_c, 0, 74, 84
2, 58512, Note_on_c, 0, 74, 0
2, 58512, Note_on_c, 0, 75, 84
2, 58546, Note_on_c, 0, 75, 0
2, 58548, Note_on_c, 0, 77, 84
2, 58560, Note_on_c, 0, 77, 0
2, 58560, Note_on_c, 0, 75, 84
2, 58668, Note_on_c, 0, 75, 0
2, 58752, Note_on_c, 0, 82, 100
2, 58768, Note_on_c, 0, 82, 0
2, 58768, Note_on_c, 0, 84, 84
2, 58783, Note_on_c, 0, 84, 0
2, 58784, Note_on_c, 0, 85, 84
2, 58799, Note_on_c, 0, 85, 0
2, 58800, Note_on_c, 0, 84, 84
2, 58815, Note_on_c, 0, 84, 0
2, 58816, Note_on_c, 0, 82, 84
2, 58831, Note_on_c, 0, 82, 0
2, 58832, Note_on_c, 0, 80, 84
2, 58847, Note_on_c, 0, 80, 0
2, 58848, Note_on_c, 0, 79, 100
2, 58864, Note_on_c, 0, 79, 0
2, 58864, Note_on_c, 0, 80, 84
2, 58879, Note_on_c, 0, 80, 0
2, 58880, Note_on_c, 0, 82, 84
2, 58895, Note_on_c, 0, 82, 0
2, 58896, Note_on_c, 0, 80, 84
2, 58911, Note_on_c, 0, 80, 0
2, 58912, Note_on_c, 0, 79, 84
2, 58927, Note_on_c, 0, 79, 0
2, 58928, Note_on_c, 0, 77, 84
2, 58943, Note_on_c, 0, 77, 0
2, 58944, Note_on_c, 0, 76, 100
2, 58960, Note_on_c, 0, 76, 0
2, 58960, Note_on_c, 0, 77, 84
2, 58975, Note_on_c, 0, 77, 0
2, 58976, Note_on_c, 0, 79, 84
2, 58991, Note_on_c, 0, 79, 0
2, 58992, Note_on_c, 0, 77, 84
2, 59007, Note_on_c, 0, 77, 0
2, 59008, Note_on_c, 0, 76, 84
2, 59023, Note_on_c, 0, 76, 0
2, 59024, Note_on_c, 0, 73, 84
2, 59039, Note_on_c, 0, 73, 0
2, 59040, Note_on_c, 0, 72, 100
2, 59056, Note_on_c, 0, 72, 0
2, 59056, Note_on_c, 0, 79, 84
2, 59071, Note_on_c, 0, 79, 0
2, 59072, Note_on_c, 0, 80, 84
2, 59087, Note_on_c, 0, 80, 0
2, 59088, Note_on_c, 0, 82, 84
2, 59103, Note_on_c, 0, 82, 0
2, 59104, Note_on_c, 0, 80, 84
2, 59119, Note_on_c, 0, 80, 0
2, 59120, Note_on_c, 0, 79, 84
2, 59135, Note_on_c, 0, 79, 0
2, 59136, Note_on_c, 0, 77, 84
2, 59313, Note_on_c, 0, 77, 0
2, 59328, Note_on_c, 0, 83, 84
2, 59334, Note_on_c, 0, 83, 0
2, 59334, Note_on_c, 0, 84, 84
2, 59447, Note_on_c, 0, 84, 0
2, 59448, Note_on_c, 0, 83, 84
2, 59460, Note_on_c, 0, 83, 0
2, 59460, Note_on_c, 0, 84, 84
2, 59472, Note_on_c, 0, 84, 0
2, 59472, Note_on_c, 0, 87, 84
2, 59484, Note_on_c, 0, 87, 0
2, 59484, Note_on_c, 0, 85, 84
2, 59496, Note_on_c, 0, 85, 0
2, 59496, Note_on_c, 0, 84, 84
2, 59508, Note_on_c, 0, 84, 0
2, 59508, Note_on_c, 0, 82, 84
2, 59520, Note_on_c, 0, 82, 0
2, 59520, Note_on_c, 0, 82, 84
2, 59616, Note_on_c, 0, 82, 0
2, 59616, Note_on_c, 0, 80, 84
2, 59622, Note_on_c, 0, 80, 0
2, 59622, Note_on_c, 0, 82, 84
2, 59628, Note_on_c, 0, 82, 0
2, 59628, Note_on_c, 0, 80, 84
2, 59685, Note_on_c, 0, 80, 0
2, 59688, Note_on_c, 0, 82, 84
2, 59711, Note_on_c, 0, 82, 0
2, 59712, Note_on_c, 0, 80, 84
2, 59808, Note_on_c, 0, 80, 0
2, 59808, Note_on_c, 0, 79, 84
2, 59814, Note_on_c, 0, 79, 0
2, 59814, Note_on_c, 0, 80, 84
2, 59820, Note_on_c, 0, 80, 0
2, 59820, Note_on_c, 0, 79, 84
2, 59877, Note_on_c, 0, 79, 0
2, 59880, Note_on_c, 0, 80, 84
2, 59903, Note_on_c, 0, 80, 0
2, 59904, Note_on_c, 0, 79, 84
2, 60000, Note_on_c, 0, 79, 0
2, 60000, Note_on_c, 0, 77, 80
2, 60006, Note_on_c, 0, 77, 0
2, 60006, Note_on_c, 0, 79, 80
2, 60012, Note_on_c, 0, 79, 0
2, 60012, Note_on_c, 0, 77, 80
2, 60034, Note_on_c, 0, 77, 0
2, 60036, Note_on_c, 0, 76, 78
2, 60048, Note_on_c, 0, 76, 0
2, 60048, Note_on_c, 0, 77, 78
2, 60082, Note_on_c, 0, 77, 0
2, 60084, Note_on_c, 0, 79, 76
2, 60096, Note_on_c, 0, 79, 0
2, 60096, Note_on_c, 0, 77, 76
2, 60103, Note_on_c, 0, 77, 0
2, 60112, Note_on_c, 0, 77, 75
2, 60127, Note_on_c, 0, 77, 0
2, 60128, Note_on_c, 0, 79, 75
2, 60143, Note_on_c, 0, 79, 0
2, 60144, Note_on_c, 0, 80, 75
2, 60159, Note_on_c, 0, 80, 0
2, 60160, Note_on_c, 0, 79, 75
2, 60175, Note_on_c, 0, 79, 0
2, 60176, Note_on_c, 0, 77, 75
2, 60191, Note_on_c, 0, 77, 0
2, 60192, Note_on_c, 0, 84, 75
2, 60207, Note_on_c, 0, 84, 0
2, 60208, Note_on_c, 0, 82, 75
2, 60223, Note_on_c, 0, 82, 0
2, 60224, Note_on_c, 0, 80, 75
2, 60239, Note_on_c, 0, 80, 0
2, 60240, Note_on_c, 0, 79, 75
2, 60255, Note_on_c, 0, 79, 0
2, 60256, Note_on_c, 0, 77, 75
2, 60271, Note_on_c, 0, 77, 0
2, 60272, Note_on_c, 0, 75, 75
2, 60287, Note_on_c, 0, 75, 0
2, 60288, Note_on_c, 0, 73, 75
2, 60308, Note_on_c, 0, 73, 0
2, 60336, Note_on_c, 0, 77, 75
2, 60356, Note_on_c, 0, 77, 0
2, 60384, Note_on_c, 0, 85, 75
2, 60399, Note_on_c, 0, 85, 0
2, 60400, Note_on_c, 0, 84, 75
2, 60415, Note_on_c, 0, 84, 0
2, 60416, Note_on_c, 0, 82, 75
2, 60431, Note_on_c, 0, 82, 0
2, 60432, Note_on_c, 0, 80, 75
2, 60447, Note_on_c, 0, 80, 0
2, 60448, Note_on_c, 0, 79, 75
2, 60463, Note_on_c, 0, 79, 0
2, 60464, Note_on_c, 0, 77, 75
2, 60479, Note_on_c, 0, 77, 0
2, 60480, Note_on_c, 0, 75, 75
2, 60487, Note_on_c, 0, 75, 0
2, 60496, Note_on_c, 0, 75, 75
2, 60511, Note_on_c, 0, 75, 0
2, 60512, Note_on_c, 0, 77, 75
2, 60527, Note_on_c, 0, 77, 0
2, 60528, Note_on_c, 0, 79, 75
2, 60543, Note_on_c, 0, 79, 0
2, 60544, Note_on_c, 0, 77, 75
2, 60559, Note_on_c, 0, 77, 0
2, 60560, Note_on_c, 0, 75, 75
2, 60575, Note_on_c, 0, 75, 0
2, 60576, Note_on_c, 0, 82, 75
2, 60591, Note_on_c, 0, 82, 0
2, 60592, Note_on_c, 0, 80, 75
2, 60607, Note_on_c, 0, 80, 0
2, 60608, Note_on_c, 0, 79, 75
2, 60623, Note_on_c, 0, 79, 0
2, 60624, Note_on_c, 0, 77, 75
2, 60639, Note_on_c, 0, 77, 0
2, 60640, Note_on_c, 0, 75, 75
2, 60655, Note_on_c, 0, 75, 0
2, 60656, Note_on_c, 0, 73, 75
2, 60671, Note_on_c, 0, 73, 0
2, 60672, Note_on_c, 0, 72, 75
2, 60692, Note_on_c, 0, 72, 0
2, 60720, Note_on_c, 0, 75, 75
2, 60740, Note_on_c, 0, 75, 0
2, 60768, Note_on_c, 0, 84, 75
2, 60783, Note_on_c, 0, 84, 0
2, 60784, Note_on_c, 0, 82, 75
2, 60799, Note_on_c, 0, 82, 0
2, 60800, Note_on_c, 0, 80, 75
2, 60815, Note_on_c, 0, 80, 0
2, 60816, Note_on_c, 0, 79, 75
2, 60831, Note_on_c, 0, 79, 0
2, 60832, Note_on_c, 0, 77, 75
2, 60847, Note_on_c, 0, 77, 0
2, 60848, Note_on_c, 0, 75, 75
2, 60863, Note_on_c, 0, 75, 0
2, 60864, Note_on_c, 0, 73, 75
2, 60871, Note_on_c, 0, 73, 0
2, 60880, Note_on_c, 0, 73, 75
2, 60895, Note_on_c, 0, 73, 0
2, 60896, Note_on_c, 0, 75, 75
2, 60911, Note_on_c, 0, 75, 0
2, 60912, Note_on_c, 0, 77, 75
2, 60927, Note_on_c, 0, 77, 0
2, 60928, Note_on_c, 0, 75, 75
2, 60943, Note_on_c, 0, 75, 0
2, 60944, Note_on_c, 0, 73, 75
2, 60959, Note_on_c, 0, 73, 0
2, 60960, Note_on_c, 0, 80, 75
2, 60975, Note_on_c, 0, 80, 0
2, 60976, Note_on_c, 0, 79, 75
2, 60991, Note_on_c, 0, 79, 0
2, 60992, Note_on_c, 0, 77, 75
2, 61007, Note_on_c, 0, 77, 0
2, 61008, Note_on_c, 0, 75, 75
2, 61023, Note_on_c, 0, 75, 0
2, 61024, Note_on_c, 0, 73, 75
2, 61039, Note_on_c, 0, 73, 0
2, 61040, Note_on_c, 0, 72, 75
2, 61055, Note_on_c, 0, 72, 0
2, 61056, Note_on_c, 0, 70, 75
2, 61076, Note_on_c, 0, 70, 0
2, 61104, Note_on_c, 0, 73, 75
2, 61124, Note_on_c, 0, 73, 0
2, 61152, Note_on_c, 0, 82, 75
2, 61167, Note_on_c, 0, 82, 0
2, 61168, Note_on_c, 0, 80, 75
2, 61183, Note_on_c, 0, 80, 0
2, 61184, Note_on_c, 0, 79, 75
2, 61199, Note_on_c, 0, 79, 0
2, 61200, Note_on_c, 0, 77, 75
2, 61215, Note_on_c, 0, 77, 0
2, 61216, Note_on_c, 0, 75, 75
2, 61231, Note_on_c, 0, 75, 0
2, 61232, Note_on_c, 0, 73, 75
2, 61247, Note_on_c, 0, 73, 0
2, 61248, Note_on_c, 0, 72, 75
2, 61255, Note_on_c, 0, 72, 0
2, 61264, Note_on_c, 0, 72, 75
2, 61279, Note_on_c, 0, 72, 0
2, 61280, Note_on_c, 0, 74, 75
2, 61295, Note_on_c, 0, 74, 0
2, 61296, Note_on_c, 0, 76, 75
2, 61311, Note_on_c, 0, 76, 0
2, 61312, Note_on_c, 0, 74, 75
2, 61327, Note_on_c, 0, 74, 0
2, 61328, Note_on_c, 0, 72, 75
2, 61343, Note_on_c, 0, 72, 0
2, 61344, Note_on_c, 0, 79, 75
2, 61359, Note_on_c, 0, 79, 0
2, 61360, Note_on_c, 0, 77, 75
2, 61375, Note_on_c, 0, 77, 0
2, 61376, Note_on_c, 0, 76, 75
2, 61391, Note_on_c, 0, 76, 0
2, 61392, Note_on_c, 0, 73, 75
2, 61407, Note_on_c, 0, 73, 0
2, 61408, Note_on_c, 0, 72, 75
2, 61423, Note_on_c, 0, 72, 0
2, 61424, Note_on_c, 0, 70, 75
2, 61439, Note_on_c, 0, 70, 0
2, 61440, Note_on_c, 0, 68, 84
2, 61460, Note_on_c, 0, 68, 0
2, 61488, Note_on_c, 0, 72, 84
2, 61508, Note_on_c, 0, 72, 0
2, 61536, Note_on_c, 0, 68, 84
2, 61556, Note_on_c, 0, 68, 0
2, 61584, Note_on_c, 0, 72, 84
2, 61604, Note_on_c, 0, 72, 0
2, 61632, Note_on_c, 0, 69, 75
2, 61652, Note_on_c, 0, 69, 0
2, 61680, Note_on_c, 0, 72, 75
2, 61700, Note_on_c, 0, 72, 0
2, 61728, Note_on_c, 0, 69, 75
2, 61748, Note_on_c, 0, 69, 0
2, 61776, Note_on_c, 0, 72, 75
2, 61796, Note_on_c, 0, 72, 0
2, 61840, Note_on_c, 0, 70, 84
2, 61855, Note_on_c, 0, 70, 0
2, 61856, Note_on_c, 0, 82, 84
2, 61871, Note_on_c, 0, 82, 0
2, 61888, Note_on_c, 0, 70, 84
2, 61903, Note_on_c, 0, 70, 0
2, 61904, Note_on_c, 0, 82, 84
2, 61919, Note_on_c, 0, 82, 0
2, 61936, Note_on_c, 0, 70, 84
2, 61951, Note_on_c, 0, 70, 0
2, 61952, Note_on_c, 0, 82, 84
2, 61967, Note_on_c, 0, 82, 0
2, 61984, Note_on_c, 0, 70, 84
2, 61999, Note_on_c, 0, 70, 0
2, 62000, Note_on_c, 0, 82, 84
2, 62015, Note_on_c, 0, 82, 0
2, 62032, Note_on_c, 0, 70, 84
2, 62047, Note_on_c, 0, 70, 0
2, 62048, Note_on_c, 0, 82, 84
2, 62063, Note_on_c, 0, 82, 0
2, 62080, Note_on_c, 0, 70, 84
2, 62095, Note_on_c, 0, 70, 0
2, 62096, Note_on_c, 0, 82, 84
2, 62111, Note_on_c, 0, 82, 0
2, 62128, Note_on_c, 0, 70, 84
2, 62143, Note_on_c, 0, 70, 0
2, 62144, Note_on_c, 0, 82, 84
2, 62159, Note_on_c, 0, 82, 0
2, 62176, Note_on_c, 0, 70, 84
2, 62191, Note_on_c, 0, 70, 0
2, 62192, Note_on_c, 0, 82, 84
2, 62207, Note_on_c, 0, 82, 0
2, 62224, Note_on_c, 0, 70, 84
2, 62239, Note_on_c, 0, 70, 0
2, 62240, Note_on_c, 0, 82, 84
2, 62255, Note_on_c, 0, 82, 0
2, 62272, Note_on_c, 0, 70, 84
2, 62287, Note_on_c, 0, 70, 0
2, 62288, Note_on_c, 0, 82, 84
2, 62303, Note_on_c, 0, 82, 0
2, 62320, Note_on_c, 0, 70, 84
2, 62335, Note_on_c, 0, 70, 0
2, 62336, Note_on_c, 0, 82, 84
2, 62351, Note_on_c, 0, 82, 0
2, 62368, Note_on_c, 0, 70, 84
2, 62383, Note_on_c, 0, 70, 0
2, 62384, Note_on_c, 0, 82, 84
2, 62399, Note_on_c, 0, 82, 0
2, 62416, Note_on_c, 0, 70, 84
2, 62431, Note_on_c, 0, 70, 0
2, 62432, Note_on_c, 0, 82, 84
2, 62447, Note_on_c, 0, 82, 0
2, 62464, Note_on_c, 0, 70, 85
2, 62479, Note_on_c, 0, 70, 0
2, 62480, Note_on_c, 0, 82, 86
2, 62495, Note_on_c, 0, 82, 0
2, 62512, Note_on_c, 0, 70, 87
2, 62527, Note_on_c, 0, 70, 0
2, 62528, Note_on_c, 0, 82, 88
2, 62543, Note_on_c, 0, 82, 0
2, 62560, Note_on_c, 0, 70, 89
2, 62575, Note_on_c, 0, 70, 0
2, 62576, Note_on_c, 0, 82, 90
2, 62591, Note_on_c, 0, 82, 0
2, 62608, Note_on_c, 0, 70, 91
2, 62623, Note_on_c, 0, 70, 0
2, 62624, Note_on_c, 0, 82, 91
2, 62639, Note_on_c, 0, 82, 0
2, 62656, Note_on_c, 0, 70, 93
2, 62671, Note_on_c, 0, 70, 0
2, 62672, Note_on_c, 0, 82, 93
2, 62687, Note_on_c, 0, 82, 0
2, 62704, Note_on_c, 0, 73, 95
2, 62719, Note_on_c, 0, 73, 0
2, 62720, Note_on_c, 0, 82, 95
2, 62735, Note_on_c, 0, 82, 0
2, 62752, Note_on_c, 0, 76, 96
2, 62767, Note_on_c, 0, 76, 0
2, 62768, Note_on_c, 0, 82, 97
2, 62783, Note_on_c, 0, 82, 0
2, 62800, Note_on_c, 0, 79, 98
2, 62815, Note_on_c, 0, 79, 0
2, 62816, Note_on_c, 0, 82, 99
2, 62831, Note_on_c, 0, 82, 0
2, 62848, Note_on_c, 0, 79, 106
2, 62863, Note_on_c, 0, 79, 0
2, 62864, Note_on_c, 0, 82, 106
2, 62879, Note_on_c, 0, 82, 0
2, 62896, Note_on_c, 0, 79, 103
2, 62911, Note_on_c, 0, 79, 0
2, 62912, Note_on_c, 0, 82, 100
2, 62927, Note_on_c, 0, 82, 0
2, 62944, Note_on_c, 0, 79, 95
2, 62959, Note_on_c, 0, 79, 0
2, 62960, Note_on_c, 0, 82, 92
2, 62975, Note_on_c, 0, 82, 0
2, 62992, Note_on_c, 0, 75, 85
2, 63007, Note_on_c, 0, 75, 0
2, 63008, Note_on_c, 0, 81, 86
2, 63023, Note_on_c, 0, 81, 0
2, 63040, Note_on_c, 0, 75, 88
2, 63055, Note_on_c, 0, 75, 0
2, 63056, Note_on_c, 0, 81, 89
2, 63071, Note_on_c, 0, 81, 0
2, 63088, Note_on_c, 0, 75, 91
2, 63103, Note_on_c, 0, 75, 0
2, 63104, Note_on_c, 0, 81, 92
2, 63119, Note_on_c, 0, 81, 0
2, 63136, Note_on_c, 0, 75, 94
2, 63151, Note_on_c, 0, 75, 0
2, 63152, Note_on_c, 0, 81, 95
2, 63167, Note_on_c, 0, 81, 0
2, 63184, Note_on_c, 0, 75, 97
2, 63199, Note_on_c, 0, 75, 0
2, 63200, Note_on_c, 0, 81, 98
2, 63215, Note_on_c, 0, 81, 0
2, 63232, Note_on_c, 0, 75, 106
2, 63247, Note_on_c, 0, 75, 0
2, 63248, Note_on_c, 0, 81, 106
2, 63263, Note_on_c, 0, 81, 0
2, 63280, Note_on_c, 0, 75, 103
2, 63295, Note_on_c, 0, 75, 0
2, 63296, Note_on_c, 0, 81, 100
2, 63311, Note_on_c, 0, 81, 0
2, 63328, Note_on_c, 0, 75, 95
2, 63343, Note_on_c, 0, 75, 0
2, 63344, Note_on_c, 0, 81, 92
2, 63359, Note_on_c, 0, 81, 0
2, 63376, Note_on_c, 0, 74, 84
2, 63391, Note_on_c, 0, 74, 0
2, 63392, Note_on_c, 0, 80, 85
2, 63407, Note_on_c, 0, 80, 0
2, 63424, Note_on_c, 0, 74, 87
2, 63439, Note_on_c, 0, 74, 0
2, 63440, Note_on_c, 0, 80, 88
2, 63455, Note_on_c, 0, 80, 0
2, 63472, Note_on_c, 0, 74, 90
2, 63487, Note_on_c, 0, 74, 0
2, 63488, Note_on_c, 0, 80, 91
2, 63503, Note_on_c, 0, 80, 0
2, 63520, Note_on_c, 0, 74, 93
2, 63535, Note_on_c, 0, 74, 0
2, 63536, Note_on_c, 0, 80, 95
2, 63551, Note_on_c, 0, 80, 0
2, 63568, Note_on_c, 0, 74, 97
2, 63583, Note_on_c, 0, 74, 0
2, 63584, Note_on_c, 0, 80, 98
2, 63599, Note_on_c, 0, 80, 0
2, 63616, Note_on_c, 0, 74, 106
2, 63631, Note_on_c, 0, 74, 0
2, 63632, Note_on_c, 0, 80, 106
2, 63647, Note_on_c, 0, 80, 0
2, 63664, Note_on_c, 0, 74, 103
2, 63679, Note_on_c, 0, 74, 0
2, 63680, Note_on_c, 0, 80, 100
2, 63695, Note_on_c, 0, 80, 0
2, 63712, Note_on_c, 0, 74, 95
2, 63727, Note_on_c, 0, 74, 0
2, 63728, Note_on_c, 0, 80, 92
2, 63743, Note_on_c, 0, 80, 0
2, 63760, Note_on_c, 0, 75, 84
2, 63775, Note_on_c, 0, 75, 0
2, 63776, Note_on_c, 0, 78, 84
2, 63791, Note_on_c, 0, 78, 0
2, 63808, Note_on_c, 0, 75, 84
2, 63823, Note_on_c, 0, 75, 0
2, 63824, Note_on_c, 0, 78, 84
2, 63839, Note_on_c, 0, 78, 0
2, 63856, Note_on_c, 0, 75, 84
2, 63871, Note_on_c, 0, 75, 0
2, 63872, Note_on_c, 0, 78, 84
2, 63887, Note_on_c, 0, 78, 0
2, 63904, Note_on_c, 0, 75, 84
2, 63919, Note_on_c, 0, 75, 0
2, 63920, Note_on_c, 0, 78, 84
2, 63935, Note_on_c, 0, 78, 0
2, 63936, Note_on_c, 0, 82, 84
2, 63936, Note_on_c, 0, 78, 84
2, 63956, Note_on_c, 0, 82, 0
2, 63956, Note_on_c, 0, 78, 0
2, 63984, Note_on_c, 0, 83, 84
2, 63984, Note_on_c, 0, 80, 84
2, 64004, Note_on_c, 0, 83, 0
2, 64004, Note_on_c, 0, 80, 0
2, 64032, Note_on_c, 0, 82, 84
2, 64032, Note_on_c, 0, 78, 84
2, 64052, Note_on_c, 0, 82, 0
2, 64052, Note_on_c, 0, 78, 0
2, 64080, Note_on_c, 0, 80, 84
2, 64080, Note_on_c, 0, 77, 84
2, 64100, Note_on_c, 0, 80, 0
2, 64100, Note_on_c, 0, 77, 0
2, 64144, Note_on_c, 0, 75, 84
2, 64159, Note_on_c, 0, 75, 0
2, 64160, Note_on_c, 0, 78, 84
2, 64175, Note_on_c, 0, 78, 0
2, 64192, Note_on_c, 0, 75, 84
2, 64207, Note_on_c, 0, 75, 0
2, 64208, Note_on_c, 0, 78, 84
2, 64223, Note_on_c, 0, 78, 0
2, 64240, Note_on_c, 0, 75, 84
2, 64255, Note_on_c, 0, 75, 0
2, 64256, Note_on_c, 0, 78, 84
2, 64271, Note_on_c, 0, 78, 0
2, 64288, Note_on_c, 0, 75, 84
2, 64303, Note_on_c, 0, 75, 0
2, 64304, Note_on_c, 0, 78, 84
2, 64319, Note_on_c, 0, 78, 0
2, 64320, Note_on_c, 0, 82, 84
2, 64320, Note_on_c, 0, 78, 84
2, 64340, Note_on_c, 0, 82, 0
2, 64340, Note_on_c, 0, 78, 0
2, 64368, Note_on_c, 0, 83, 84
2, 64368, Note_on_c, 0, 80, 84
2, 64388, Note_on_c, 0, 83, 0
2, 64388, Note_on_c, 0, 80, 0
2, 64416, Note_on_c, 0, 82, 84
2, 64416, Note_on_c, 0, 78, 84
2, 64436, Note_on_c, 0, 82, 0
2, 64436, Note_on_c, 0, 78, 0
2, 64464, Note_on_c, 0, 80, 84
2, 64464, Note_on_c, 0, 77, 84
2, 64484, Note_on_c, 0, 80, 0
2, 64484, Note_on_c, 0, 77, 0
2, 64528, Note_on_c, 0, 75, 84
2, 64543, Note_on_c, 0, 75, 0
2, 64544, Note_on_c, 0, 78, 84
2, 64559, Note_on_c, 0, 78, 0
2, 64576, Note_on_c, 0, 75, 84
2, 64591, Note_on_c, 0, 75, 0
2, 64592, Note_on_c, 0, 78, 84
2, 64607, Note_on_c, 0, 78, 0
2, 64624, Note_on_c, 0, 75, 84
2, 64639, Note_on_c, 0, 75, 0
2, 64640, Note_on_c, 0, 78, 84
2, 64655, Note_on_c, 0, 78, 0
2, 64672, Note_on_c, 0, 75, 84
2, 64687, Note_on_c, 0, 75, 0
2, 64688, Note_on_c, 0, 78, 84
2, 64703, Note_on_c, 0, 78, 0
2, 64720, Note_on_c, 0, 73, 84
2, 64735, Note_on_c, 0, 73, 0
2, 64736, Note_on_c, 0, 79, 84
2, 64751, Note_on_c, 0, 79, 0
2, 64768, Note_on_c, 0, 73, 84
2, 64783, Note_on_c, 0, 73, 0
2, 64784, Note_on_c, 0, 79, 84
2, 64799, Note_on_c, 0, 79, 0
2, 64816, Note_on_c, 0, 73, 84
2, 64831, Note_on_c, 0, 73, 0
2, 64832, Note_on_c, 0, 79, 84
2, 64847, Note_on_c, 0, 79, 0
2, 64864, Note_on_c, 0, 73, 84
2, 64879, Note_on_c, 0, 73, 0
2, 64880, Note_on_c, 0, 79, 84
2, 64895, Note_on_c, 0, 79, 0
2, 64912, Note_on_c, 0, 71, 84
2, 64927, Note_on_c, 0, 71, 0
2, 64928, Note_on_c, 0, 80, 84
2, 64943, Note_on_c, 0, 80, 0
2, 64960, Note_on_c, 0, 71, 84
2, 64975, Note_on_c, 0, 71, 0
2, 64976, Note_on_c, 0, 80, 84
2, 64991, Note_on_c, 0, 80, 0
2, 65008, Note_on_c, 0, 71, 84
2, 65023, Note_on_c, 0, 71, 0
2, 65024, Note_on_c, 0, 80, 84
2, 65039, Note_on_c, 0, 80, 0
2, 65056, Note_on_c, 0, 71, 84
2, 65071, Note_on_c, 0, 71, 0
2, 65072, Note_on_c, 0, 80, 84
2, 65087, Note_on_c, 0, 80, 0
2, 65104, Note_on_c, 0, 72, 84
2, 65119, Note_on_c, 0, 72, 0
2, 65120, Note_on_c, 0, 78, 84
2, 65135, Note_on_c, 0, 78, 0
2, 65152, Note_on_c, 0, 72, 84
2, 65167, Note_on_c, 0, 72, 0
2, 65168, Note_on_c, 0, 78, 84
2, 65183, Note_on_c, 0, 78, 0
2, 65200, Note_on_c, 0, 72, 84
2, 65215, Note_on_c, 0, 72, 0
2, 65216, Note_on_c, 0, 78, 84
2, 65231, Note_on_c, 0, 78, 0
2, 65248, Note_on_c, 0, 72, 84
2, 65263, Note_on_c, 0, 72, 0
2, 65264, Note_on_c, 0, 78, 84
2, 65279, Note_on_c, 0, 78, 0
2, 65296, Note_on_c, 0, 73, 84
2, 65311, Note_on_c, 0, 73, 0
2, 65312, Note_on_c, 0, 77, 84
2, 65327, Note_on_c, 0, 77, 0
2, 65344, Note_on_c, 0, 73, 84
2, 65359, Note_on_c, 0, 73, 0
2, 65360, Note_on_c, 0, 77, 84
2, 65375, Note_on_c, 0, 77, 0
2, 65392, Note_on_c, 0, 73, 84
2, 65407, Note_on_c, 0, 73, 0
2, 65408, Note_on_c, 0, 77, 84
2, 65423, Note_on_c, 0, 77, 0
2, 65440, Note_on_c, 0, 73, 84
2, 65455, Note_on_c, 0, 73, 0
2, 65456, Note_on_c, 0, 77, 84
2, 65471, Note_on_c, 0, 77, 0
2, 65488, Note_on_c, 0, 70, 84
2, 65503, Note_on_c, 0, 70, 0
2, 65504, Note_on_c, 0, 76, 84
2, 65519, Note_on_c, 0, 76, 0
2, 65536, Note_on_c, 0, 73, 84
2, 65551, Note_on_c, 0, 73, 0
2, 65552, Note_on_c, 0, 76, 84
2, 65567, Note_on_c, 0, 76, 0
2, 65584, Note_on_c, 0, 70, 84
2, 65599, Note_on_c, 0, 70, 0
2, 65600, Note_on_c, 0, 76, 84
2, 65615, Note_on_c, 0, 76, 0
2, 65632, Note_on_c, 0, 73, 84
2, 65647, Note_on_c, 0, 73, 0
2, 65648, Note_on_c, 0, 76, 84
2, 65663, Note_on_c, 0, 76, 0
2, 65680, Note_on_c, 0, 69, 84
2, 65695, Note_on_c, 0, 69, 0
2, 65696, Note_on_c, 0, 77, 84
2, 65711, Note_on_c, 0, 77, 0
2, 65728, Note_on_c, 0, 72, 84
2, 65743, Note_on_c, 0, 72, 0
2, 65744, Note_on_c, 0, 77, 84
2, 65759, Note_on_c, 0, 77, 0
2, 65776, Note_on_c, 0, 69, 84
2, 65791, Note_on_c, 0, 69, 0
2, 65792, Note_on_c, 0, 77, 84
2, 65807, Note_on_c, 0, 77, 0
2, 65824, Note_on_c, 0, 72, 84
2, 65839, Note_on_c, 0, 72, 0
2, 65840, Note_on_c, 0, 77, 84
2, 65855, Note_on_c, 0, 77, 0
2, 65872, Note_on_c, 0, 69, 84
2, 65887, Note_on_c, 0, 69, 0
2, 65888, Note_on_c, 0, 78, 84
2, 65903, Note_on_c, 0, 78, 0
2, 65920, Note_on_c, 0, 72, 84
2, 65935, Note_on_c, 0, 72, 0
2, 65936, Note_on_c, 0, 78, 84
2, 65951, Note_on_c, 0, 78, 0
2, 65968, Note_on_c, 0, 69, 84
2, 65983, Note_on_c, 0, 69, 0
2, 65984, Note_on_c, 0, 78, 84
2, 65999, Note_on_c, 0, 78, 0
2, 66016, Note_on_c, 0, 72, 84
2, 66031, Note_on_c, 0, 72, 0
2, 66032, Note_on_c, 0, 78, 84
2, 66047, Note_on_c, 0, 78, 0
2, 66064, Note_on_c, 0, 70, 84
2, 66079, Note_on_c, 0, 70, 0
2, 66080, Note_on_c, 0, 77, 84
2, 66095, Note_on_c, 0, 77, 0
2, 66112, Note_on_c, 0, 74, 84
2, 66127, Note_on_c, 0, 74, 0
2, 66128, Note_on_c, 0, 77, 84
2, 66143, Note_on_c, 0, 77, 0
2, 66160, Note_on_c, 0, 70, 84
2, 66175, Note_on_c, 0, 70, 0
2, 66176, Note_on_c, 0, 77, 84
2, 66191, Note_on_c, 0, 77, 0
2, 66208, Note_on_c, 0, 74, 84
2, 66223, Note_on_c, 0, 74, 0
2, 66224, Note_on_c, 0, 77, 84
2, 66239, Note_on_c, 0, 77, 0
2, 66256, Note_on_c, 0, 71, 84
2, 66271, Note_on_c, 0, 71, 0
2, 66272, Note_on_c, 0, 77, 84
2, 66287, Note_on_c, 0, 77, 0
2, 66304, Note_on_c, 0, 71, 84
2, 66319, Note_on_c, 0, 71, 0
2, 66320, Note_on_c, 0, 77, 84
2, 66335, Note_on_c, 0, 77, 0
2, 66352, Note_on_c, 0, 71, 84
2, 66367, Note_on_c, 0, 71, 0
2, 66368, Note_on_c, 0, 77, 84
2, 66383, Note_on_c, 0, 77, 0
2, 66400, Note_on_c, 0, 71, 84
2, 66415, Note_on_c, 0, 71, 0
2, 66416, Note_on_c, 0, 77, 84
2, 66431, Note_on_c, 0, 77, 0
2, 66432, Note_on_c, 0, 76, 84
2, 66432, Note_on_c, 0, 72, 84
2, 66452, Note_on_c, 0, 76, 0
2, 66452, Note_on_c, 0, 72, 0
2, 66480, Note_on_c, 0, 77, 84
2, 66480, Note_on_c, 0, 74, 84
2, 66500, Note_on_c, 0, 77, 0
2, 66500, Note_on_c, 0, 74, 0
2, 66528, Note_on_c, 0, 79, 84
2, 66528, Note_on_c, 0, 76, 84
2, 66548, Note_on_c, 0, 79, 0
2, 66548, Note_on_c, 0, 76, 0
2, 66576, Note_on_c, 0, 70, 84
2, 66576, Note_on_c, 0, 67, 84
2, 66596, Note_on_c, 0, 70, 0
2, 66596, Note_on_c, 0, 67, 0
2, 66624, Note_on_c, 0, 68, 84
2, 66624, Note_on_c, 0, 65, 84
2, 66644, Note_on_c, 0, 68, 0
2, 66644, Note_on_c, 0, 65, 0
2, 66672, Note_on_c, 0, 70, 84
2, 66672, Note_on_c, 0, 67, 84
2, 66692, Note_on_c, 0, 70, 0
2, 66692, Note_on_c, 0, 67, 0
2, 66720, Note_on_c, 0, 72, 84
2, 66720, Note_on_c, 0, 68, 84
2, 66740, Note_on_c, 0, 72, 0
2, 66740, Note_on_c, 0, 68, 0
2, 66768, Note_on_c, 0, 65, 84
2, 66768, Note_on_c, 0, 56, 84
2, 66788, Note_on_c, 0, 65, 0
2, 66788, Note_on_c, 0, 56, 0
2, 66816, Note_on_c, 0, 64, 84
2, 66816, Note_on_c, 0, 55, 84
2, 66836, Note_on_c, 0, 64, 0
2, 66836, Note_on_c, 0, 55, 0
2, 66864, Note_on_c, 0, 65, 84
2, 66864, Note_on_c, 0, 56, 84
2, 66884, Note_on_c, 0, 65, 0
2, 66884, Note_on_c, 0, 56, 0
2, 66912, Note_on_c, 0, 67, 84
2, 66912, Note_on_c, 0, 58, 84
2, 66932, Note_on_c, 0, 67, 0
2, 66932, Note_on_c, 0, 58, 0
2, 66960, Note_on_c, 0, 58, 84
2, 66960, Note_on_c, 0, 55, 84
2, 66980, Note_on_c, 0, 58, 0
2, 66980, Note_on_c, 0, 55, 0
2, 67008, Note_on_c, 0, 56, 84
2, 67008, Note_on_c, 0, 53, 84
2, 67028, Note_on_c, 0, 56, 0
2, 67028, Note_on_c, 0, 53, 0
2, 67056, Note_on_c, 0, 60, 84
2, 67056, Note_on_c, 0, 56, 84
2, 67076, Note_on_c, 0, 60, 0
2, 67076, Note_on_c, 0, 56, 0
2, 67104, Note_on_c, 0, 58, 84
2, 67104, Note_on_c, 0, 55, 84
2, 67124, Note_on_c, 0, 58, 0
2, 67124, Note_on_c, 0, 55, 0
2, 67152, Note_on_c, 0, 56, 84
2, 67152, Note_on_c, 0, 53, 84
2, 67172, Note_on_c, 0, 56, 0
2, 67172, Note_on_c, 0, 53, 0
2, 67200, Note_on_c, 0, 55, 84
2, 67200, Note_on_c, 0, 52, 84
2, 67220, Note_on_c, 0, 55, 0
2, 67220, Note_on_c, 0, 52, 0
2, 67248, Note_on_c, 0, 56, 84
2, 67248, Note_on_c, 0, 53, 84
2, 67268, Note_on_c, 0, 56, 0
2, 67268, Note_on_c, 0, 53, 0
2, 67296, Note_on_c, 0, 55, 84
2, 67296, Note_on_c, 0, 52, 84
2, 67316, Note_on_c, 0, 55, 0
2, 67316, Note_on_c, 0, 52, 0
2, 67344, Note_on_c, 0, 59, 84
2, 67344, Note_on_c, 0, 50, 84
2, 67364, Note_on_c, 0, 59, 0
2, 67364, Note_on_c, 0, 50, 0
2, 67392, Note_on_c, 0, 60, 84
2, 67392, Note_on_c, 0, 52, 84
2, 67533, Note_on_c, 0, 60, 0
2, 67533, Note_on_c, 0, 52, 0
2, 67584, Note_on_c, 0, 72, 75
2, 67596, Note_on_c, 0, 72, 0
2, 67596, Note_on_c, 0, 84, 75
2, 67703, Note_on_c, 0, 84, 0
2, 67704, Note_on_c, 0, 82, 75
2, 67716, Note_on_c, 0, 82, 0
2, 67716, Note_on_c, 0, 80, 75
2, 67728, Note_on_c, 0, 80, 0
2, 67728, Note_on_c, 0, 82, 75
2, 67740, Note_on_c, 0, 82, 0
2, 67740, Note_on_c, 0, 80, 75
2, 67752, Note_on_c, 0, 80, 0
2, 67752, Note_on_c, 0, 79, 75
2, 67764, Note_on_c, 0, 79, 0
2, 67764, Note_on_c, 0, 77, 75
2, 67776, Note_on_c, 0, 77, 0
2, 67776, Note_on_c, 0, 77, 75
2, 67865, Note_on_c, 0, 77, 0
2, 67872, Note_on_c, 0, 76, 75
2, 67878, Note_on_c, 0, 76, 0
2, 67878, Note_on_c, 0, 77, 75
2, 67884, Note_on_c, 0, 77, 0
2, 67884, Note_on_c, 0, 76, 75
2, 67941, Note_on_c, 0, 76, 0
2, 67944, Note_on_c, 0, 76, 75
2, 67952, Note_on_c, 0, 76, 0
2, 67952, Note_on_c, 0, 79, 75
2, 67960, Note_on_c, 0, 79, 0
2, 67960, Note_on_c, 0, 82, 75
2, 67968, Note_on_c, 0, 82, 0
2, 67968, Note_on_c, 0, 85, 75
2, 68064, Note_on_c, 0, 85, 0
2, 68064, Note_on_c, 0, 84, 75
2, 68131, Note_on_c, 0, 84, 0
2, 68136, Note_on_c, 0, 82, 75
2, 68159, Note_on_c, 0, 82, 0
2, 68160, Note_on_c, 0, 82, 75
2, 68256, Note_on_c, 0, 82, 0
2, 68256, Note_on_c, 0, 81, 75
2, 68262, Note_on_c, 0, 81, 0
2, 68262, Note_on_c, 0, 82, 75
2, 68268, Note_on_c, 0, 82, 0
2, 68268, Note_on_c, 0, 81, 75
2, 68325, Note_on_c, 0, 81, 0
2, 68328, Note_on_c, 0, 81, 75
2, 68340, Note_on_c, 0, 81, 0
2, 68340, Note_on_c, 0, 84, 75
2, 68352, Note_on_c, 0, 84, 0
2, 68352, Note_on_c, 0, 87, 75
2, 68471, Note_on_c, 0, 87, 0
2, 68472, Note_on_c, 0, 85, 75
2, 68484, Note_on_c, 0, 85, 0
2, 68484, Note_on_c, 0, 84, 75
2, 68496, Note_on_c, 0, 84, 0
2, 68496, Note_on_c, 0, 85, 75
2, 68508, Note_on_c, 0, 85, 0
2, 68508, Note_on_c, 0, 84, 75
2, 68520, Note_on_c, 0, 84, 0
2, 68520, Note_on_c, 0, 82, 75
2, 68532, Note_on_c, 0, 82, 0
2, 68532, Note_on_c, 0, 81, 75
2, 68544, Note_on_c, 0, 81, 0
2, 68544, Note_on_c, 0, 81, 75
2, 68640, Note_on_c, 0, 81, 0
2, 68640, Note_on_c, 0, 82, 75
2, 68646, Note_on_c, 0, 82, 0
2, 68646, Note_on_c, 0, 81, 75
2, 68652, Note_on_c, 0, 81, 0
2, 68652, Note_on_c, 0, 82, 75
2, 68709, Note_on_c, 0, 82, 0
2, 68712, Note_on_c, 0, 77, 78
2, 68735, Note_on_c, 0, 77, 0
2, 68736, Note_on_c, 0, 89, 79
2, 68855, Note_on_c, 0, 89, 0
2, 68856, Note_on_c, 0, 87, 84
2, 68868, Note_on_c, 0, 87, 0
2, 68868, Note_on_c, 0, 85, 84
2, 68880, Note_on_c, 0, 85, 0
2, 68880, Note_on_c, 0, 87, 84
2, 68892, Note_on_c, 0, 87, 0
2, 68892, Note_on_c, 0, 85, 82
2, 68904, Note_on_c, 0, 85, 0
2, 68904, Note_on_c, 0, 84, 80
2, 68916, Note_on_c, 0, 84, 0
2, 68916, Note_on_c, 0, 83, 78
2, 68928, Note_on_c, 0, 83, 0
2, 68928, Note_on_c, 0, 84, 76
2, 68973, Note_on_c, 0, 84, 0
2, 68976, Note_on_c, 0, 72, 69
2, 68991, Note_on_c, 0, 72, 0
2, 68992, Note_on_c, 0, 76, 69
2, 69007, Note_on_c, 0, 76, 0
2, 69008, Note_on_c, 0, 74, 69
2, 69023, Note_on_c, 0, 74, 0
2, 69024, Note_on_c, 0, 74, 69
2, 69039, Note_on_c, 0, 74, 0
2, 69040, Note_on_c, 0, 77, 69
2, 69055, Note_on_c, 0, 77, 0
2, 69056, Note_on_c, 0, 76, 69
2, 69071, Note_on_c, 0, 76, 0
2, 69072, Note_on_c, 0, 76, 69
2, 69087, Note_on_c, 0, 76, 0
2, 69088, Note_on_c, 0, 79, 69
2, 69103, Note_on_c, 0, 79, 0
2, 69104, Note_on_c, 0, 77, 70
2, 69119, Note_on_c, 0, 77, 0
2, 69120, Note_on_c, 0, 77, 71
2, 69135, Note_on_c, 0, 77, 0
2, 69136, Note_on_c, 0, 80, 72
2, 69151, Note_on_c, 0, 80, 0
2, 69152, Note_on_c, 0, 79, 72
2, 69167, Note_on_c, 0, 79, 0
2, 69168, Note_on_c, 0, 79, 73
2, 69183, Note_on_c, 0, 79, 0
2, 69184, Note_on_c, 0, 82, 74
2, 69199, Note_on_c, 0, 82, 0
2, 69200, Note_on_c, 0, 80, 75
2, 69215, Note_on_c, 0, 80, 0
2, 69216, Note_on_c, 0, 80, 75
2, 69231, Note_on_c, 0, 80, 0
2, 69232, Note_on_c, 0, 84, 76
2, 69247, Note_on_c, 0, 84, 0
2, 69248, Note_on_c, 0, 82, 77
2, 69263, Note_on_c, 0, 82, 0
2, 69264, Note_on_c, 0, 81, 78
2, 69279, Note_on_c, 0, 81, 0
2, 69280, Note_on_c, 0, 84, 78
2, 69295, Note_on_c, 0, 84, 0
2, 69296, Note_on_c, 0, 82, 79
2, 69311, Note_on_c, 0, 82, 0
2, 69312, Note_on_c, 0, 82, 110
2, 69401, Note_on_c, 0, 82, 0
2, 69480, Note_on_c, 0, 79, 84
2, 69503, Note_on_c, 0, 79, 0
2, 69504, Note_on_c, 0, 80, 84
2, 69519, Note_on_c, 0, 80, 0
2, 69520, Note_on_c, 0, 84, 84
2, 69535, Note_on_c, 0, 84, 0
2, 69536, Note_on_c, 0, 82, 84
2, 69551, Note_on_c, 0, 82, 0
2, 69552, Note_on_c, 0, 80, 84
2, 69567, Note_on_c, 0, 80, 0
2, 69568, Note_on_c, 0, 79, 84
2, 69583, Note_on_c, 0, 79, 0
2, 69584, Note_on_c, 0, 77, 84
2, 69599, Note_on_c, 0, 77, 0
2, 69600, Note_on_c, 0, 75, 84
2, 69615, Note_on_c, 0, 75, 0
2, 69616, Note_on_c, 0, 73, 84
2, 69631, Note_on_c, 0, 73, 0
2, 69632, Note_on_c, 0, 72, 84
2, 69647, Note_on_c, 0, 72, 0
2, 69648, Note_on_c, 0, 70, 84
2, 69663, Note_on_c, 0, 70, 0
2, 69664, Note_on_c, 0, 68, 84
2, 69679, Note_on_c, 0, 68, 0
2, 69680, Note_on_c, 0, 67, 84
2, 69695, Note_on_c, 0, 67, 0
2, 69696, Note_on_c, 0, 65, 84
2, 69837, Note_on_c, 0, 65, 0
2, 69840, Note_on_c, 0, 68, 84
2, 69846, Note_on_c, 0, 68, 0
2, 69846, Note_on_c, 0, 67, 84
2, 69885, Note_on_c, 0, 67, 0
2, 69888, Note_on_c, 0, 65, 84
2, 69933, Note_on_c, 0, 65, 0
2, 69936, Note_on_c, 0, 72, 61
2, 69951, Note_on_c, 0, 72, 0
2, 69952, Note_on_c, 0, 76, 61
2, 69967, Note_on_c, 0, 76, 0
2, 69968, Note_on_c, 0, 74, 61
2, 69983, Note_on_c, 0, 74, 0
2, 69984, Note_on_c, 0, 74, 61
2, 69999, Note_on_c, 0, 74, 0
2, 70000, Note_on_c, 0, 77, 61
2, 70015, Note_on_c, 0, 77, 0
2, 70016, Note_on_c, 0, 76, 61
2, 70031, Note_on_c, 0, 76, 0
2, 70032, Note_on_c, 0, 76, 61
2, 70047, Note_on_c, 0, 76, 0
2, 70048, Note_on_c, 0, 79, 62
2, 70063, Note_on_c, 0, 79, 0
2, 70064, Note_on_c, 0, 77, 63
2, 70079, Note_on_c, 0, 77, 0
2, 70080, Note_on_c, 0, 77, 64
2, 70095, Note_on_c, 0, 77, 0
2, 70096, Note_on_c, 0, 80, 65
2, 70111, Note_on_c, 0, 80, 0
2, 70112, Note_on_c, 0, 79, 66
2, 70127, Note_on_c, 0, 79, 0
2, 70128, Note_on_c, 0, 79, 67
2, 70143, Note_on_c, 0, 79, 0
2, 70144, Note_on_c, 0, 82, 69
2, 70159, Note_on_c, 0, 82, 0
2, 70160, Note_on_c, 0, 80, 70
2, 70175, Note_on_c, 0, 80, 0
2, 70176, Note_on_c, 0, 80, 71
2, 70191, Note_on_c, 0, 80, 0
2, 70192, Note_on_c, 0, 84, 72
2, 70207, Note_on_c, 0, 84, 0
2, 70208, Note_on_c, 0, 82, 73
2, 70223, Note_on_c, 0, 82, 0
2, 70224, Note_on_c, 0, 81, 74
2, 70239, Note_on_c, 0, 81, 0
2, 70240, Note_on_c, 0, 84, 75
2, 70255, Note_on_c, 0, 84, 0
2, 70256, Note_on_c, 0, 82, 77
2, 70271, Note_on_c, 0, 82, 0
2, 70272, Note_on_c, 0, 82, 110
2, 70361, Note_on_c, 0, 82, 0
2, 70440, Note_on_c, 0, 79, 84
2, 70463, Note_on_c, 0, 79, 0
2, 70464, Note_on_c, 0, 80, 84
2, 70479, Note_on_c, 0, 80, 0
2, 70480, Note_on_c, 0, 84, 84
2, 70495, Note_on_c, 0, 84, 0
2, 70496, Note_on_c, 0, 82, 84
2, 70511, Note_on_c, 0, 82, 0
2, 70512, Note_on_c, 0, 80, 84
2, 70527, Note_on_c, 0, 80, 0
2, 70528, Note_on_c, 0, 79, 84
2, 70543, Note_on_c, 0, 79, 0
2, 70544, Note_on_c, 0, 77, 84
2, 70559, Note_on_c, 0, 77, 0
2, 70560, Note_on_c, 0, 75, 84
2, 70575, Note_on_c, 0, 75, 0
2, 70576, Note_on_c, 0, 73, 84
2, 70591, Note_on_c, 0, 73, 0
2, 70592, Note_on_c, 0, 72, 84
2, 70607, Note_on_c, 0, 72, 0
2, 70608, Note_on_c, 0, 70, 84
2, 70623, Note_on_c, 0, 70, 0
2, 70624, Note_on_c, 0, 68, 84
2, 70639, Note_on_c, 0, 68, 0
2, 70640, Note_on_c, 0, 67, 84
2, 70655, Note_on_c, 0, 67, 0
2, 70656, Note_on_c, 0, 65, 84
2, 70797, Note_on_c, 0, 65, 0
2, 70800, Note_on_c, 0, 68, 78
2, 70806, Note_on_c, 0, 68, 0
2, 70806, Note_on_c, 0, 67, 78
2, 70845, Note_on_c, 0, 67, 0
2, 70848, Note_on_c, 0, 65, 76
2, 71011, Note_on_c, 0, 65, 0
2, 71016, Note_on_c, 0, 72, 69
2, 71028, Note_on_c, 0, 72, 0
2, 71028, Note_on_c, 0, 68, 69
2, 71040, Note_on_c, 0, 68, 0
2, 71040, Note_on_c, 0, 65, 69
2, 71203, Note_on_c, 0, 65, 0
2, 71208, Note_on_c, 0, 72, 69
2, 71220, Note_on_c, 0, 72, 0
2, 71220, Note_on_c, 0, 68, 69
2, 71232, Note_on_c, 0, 68, 0
2, 71232, Note_on_c, 0, 65, 69
2, 71299, Note_on_c, 0, 65, 0
2, 71304, Note_on_c, 0, 72, 69
2, 71316, Note_on_c, 0, 72, 0
2, 71316, Note_on_c, 0, 68, 69
2, 71328, Note_on_c, 0, 68, 0
2, 71328, Note_on_c, 0, 65, 69
2, 71395, Note_on_c, 0, 65, 0
2, 71400, Note_on_c, 0, 72, 69
2, 71412, Note_on_c, 0, 72, 0
2, 71412, Note_on_c, 0, 68, 69
2, 71424, Note_on_c, 0, 68, 0
2, 71424, Note_on_c, 0, 65, 61
2, 71601, Note_on_c, 0, 65, 0
2, 71616, Note_on_c, 0, 65, 74
2, 71622, Note_on_c, 0, 65, 0
2, 71622, Note_on_c, 0, 66, 74
2, 71628, Note_on_c, 0, 66, 0
2, 71628, Note_on_c, 0, 68, 74
2, 71634, Note_on_c, 0, 68, 0
2, 71634, Note_on_c, 0, 66, 74
2, 71749, Note_on_c, 0, 66, 0
2, 71760, Note_on_c, 0, 72, 84
2, 71772, Note_on_c, 0, 72, 0
2, 71772, Note_on_c, 0, 70, 84
2, 71784, Note_on_c, 0, 70, 0
2, 71784, Note_on_c, 0, 68, 84
2, 71796, Note_on_c, 0, 68, 0
2, 71796, Note_on_c, 0, 66, 84
2, 71808, Note_on_c, 0, 66, 0
2, 71808, Note_on_c, 0, 66, 84
2, 71904, Note_on_c, 0, 66, 0
2, 71904, Note_on_c, 0, 65, 84
2, 71910, Note_on_c, 0, 65, 0
2, 71910, Note_on_c, 0, 67, 84
2, 71916, Note_on_c, 0, 67, 0
2, 71916, Note_on_c, 0, 65, 84
2, 71973, Note_on_c, 0, 65, 0
2, 71976, Note_on_c, 0, 66, 84
2, 71999, Note_on_c, 0, 66, 0
2, 72000, Note_on_c, 0, 65, 84
2, 72067, Note_on_c, 0, 65, 0
2, 72072, Note_on_c, 0, 63, 84
2, 72095, Note_on_c, 0, 63, 0
2, 72096, Note_on_c, 0, 65, 84
2, 72104, Note_on_c, 0, 65, 0
2, 72104, Note_on_c, 0, 63, 84
2, 72112, Note_on_c, 0, 63, 0
2, 72112, Note_on_c, 0, 65, 84
2, 72120, Note_on_c, 0, 65, 0
2, 72120, Note_on_c, 0, 63, 84
2, 72128, Note_on_c, 0, 63, 0
2, 72128, Note_on_c, 0, 61, 84
2, 72136, Note_on_c, 0, 61, 0
2, 72136, Note_on_c, 0, 63, 84
2, 72144, Note_on_c, 0, 63, 0
2, 72144, Note_on_c, 0, 72, 84
2, 72178, Note_on_c, 0, 72, 0
2, 72180, Note_on_c, 0, 63, 84
2, 72192, Note_on_c, 0, 63, 0
2, 72192, Note_on_c, 0, 63, 84
2, 72288, Note_on_c, 0, 63, 0
2, 72288, Note_on_c, 0, 61, 84
2, 72294, Note_on_c, 0, 61, 0
2, 72294, Note_on_c, 0, 63, 84
2, 72300, Note_on_c, 0, 63, 0
2, 72300, Note_on_c, 0, 61, 84
2, 72357, Note_on_c, 0, 61, 0
2, 72360, Note_on_c, 0, 65, 84
2, 72383, Note_on_c, 0, 65, 0
2, 72384, Note_on_c, 0, 65, 84
2, 72480, Note_on_c, 0, 65, 0
2, 72480, Note_on_c, 0, 63, 84
2, 72514, Note_on_c, 0, 63, 0
2, 72516, Note_on_c, 0, 61, 84
2, 72528, Note_on_c, 0, 61, 0
2, 72528, Note_on_c, 0, 70, 84
2, 72562, Note_on_c, 0, 70, 0
2, 72564, Note_on_c, 0, 61, 84
2, 72576, Note_on_c, 0, 61, 0
2, 72576, Note_on_c, 0, 60, 84
2, 72582, Note_on_c, 0, 60, 0
2, 72582, Note_on_c, 0, 68, 84
2, 72753, Note_on_c, 0, 68, 0
2, 72768, Note_on_c, 0, 77, 84
2, 72774, Note_on_c, 0, 77, 0
2, 72774, Note_on_c, 0, 75, 84
2, 72931, Note_on_c, 0, 75, 0
2, 72936, Note_on_c, 0, 73, 84
2, 72959, Note_on_c, 0, 73, 0
2, 72960, Note_on_c, 0, 73, 84
2, 73056, Note_on_c, 0, 73, 0
2, 73056, Note_on_c, 0, 72, 84
2, 73062, Note_on_c, 0, 72, 0
2, 73062, Note_on_c, 0, 73, 84
2, 73068, Note_on_c, 0, 73, 0
2, 73068, Note_on_c, 0, 72, 84
2, 73125, Note_on_c, 0, 72, 0
2, 73128, Note_on_c, 0, 73, 84
2, 73151, Note_on_c, 0, 73, 0
2, 73152, Note_on_c, 0, 72, 84
2, 73248, Note_on_c, 0, 72, 0
2, 73248, Note_on_c, 0, 70, 84
2, 73254, Note_on_c, 0, 70, 0
2, 73254, Note_on_c, 0, 72, 84
2, 73260, Note_on_c, 0, 72, 0
2, 73260, Note_on_c, 0, 70, 84
2, 73317, Note_on_c, 0, 70, 0
2, 73320, Note_on_c, 0, 72, 84
2, 73343, Note_on_c, 0, 72, 0
2, 73344, Note_on_c, 0, 70, 84
2, 73440, Note_on_c, 0, 70, 0
2, 73440, Note_on_c, 0, 68, 84
2, 73446, Note_on_c, 0, 68, 0
2, 73446, Note_on_c, 0, 70, 84
2, 73452, Note_on_c, 0, 70, 0
2, 73452, Note_on_c, 0, 68, 84
2, 73474, Note_on_c, 0, 68, 0
2, 73476, Note_on_c, 0, 67, 84
2, 73488, Note_on_c, 0, 67, 0
2, 73488, Note_on_c, 0, 68, 84
2, 73522, Note_on_c, 0, 68, 0
2, 73524, Note_on_c, 0, 70, 84
2, 73536, Note_on_c, 0, 70, 0
2, 73536, Note_on_c, 0, 68, 84
2, 73644, Note_on_c, 0, 68, 0
2, 73728, Note_on_c, 0, 80, 84
2, 73743, Note_on_c, 0, 80, 0
2, 73744, Note_on_c, 0, 84, 84
2, 73759, Note_on_c, 0, 84, 0
2, 73760, Note_on_c, 0, 82, 84
2, 73775, Note_on_c, 0, 82, 0
2, 73776, Note_on_c, 0, 80, 84
2, 73791, Note_on_c, 0, 80, 0
2, 73792, Note_on_c, 0, 79, 84
2, 73807, Note_on_c, 0, 79, 0
2, 73808, Note_on_c, 0, 77, 84
2, 73823, Note_on_c, 0, 77, 0
2, 73824, Note_on_c, 0, 75, 84
2, 73839, Note_on_c, 0, 75, 0
2, 73840, Note_on_c, 0, 73, 84
2, 73855, Note_on_c, 0, 73, 0
2, 73856, Note_on_c, 0, 72, 84
2, 73871, Note_on_c, 0, 72, 0
2, 73872, Note_on_c, 0, 70, 84
2, 73887, Note_on_c, 0, 70, 0
2, 73888, Note_on_c, 0, 68, 84
2, 73903, Note_on_c, 0, 68, 0
2, 73904, Note_on_c, 0, 67, 84
2, 73919, Note_on_c, 0, 67, 0
2, 73920, Note_on_c, 0, 65, 84
2, 74083, Note_on_c, 0, 65, 0
2, 74088, Note_on_c, 0, 67, 84
2, 74111, Note_on_c, 0, 67, 0
2, 74112, Note_on_c, 0, 67, 84
2, 74208, Note_on_c, 0, 67, 0
2, 74208, Note_on_c, 0, 68, 84
2, 74223, Note_on_c, 0, 68, 0
2, 74224, Note_on_c, 0, 72, 84
2, 74239, Note_on_c, 0, 72, 0
2, 74240, Note_on_c, 0, 70, 84
2, 74255, Note_on_c, 0, 70, 0
2, 74256, Note_on_c, 0, 68, 84
2, 74271, Note_on_c, 0, 68, 0
2, 74272, Note_on_c, 0, 67, 84
2, 74287, Note_on_c, 0, 67, 0
2, 74288, Note_on_c, 0, 65, 84
2, 74303, Note_on_c, 0, 65, 0
2, 74304, Note_on_c, 0, 63, 84
2, 74371, Note_on_c, 0, 63, 0
2, 74376, Note_on_c, 0, 60, 84
2, 74388, Note_on_c, 0, 60, 0
2, 74388, Note_on_c, 0, 61, 84
2, 74400, Note_on_c, 0, 61, 0
2, 74400, Note_on_c, 0, 63, 84
2, 74408, Note_on_c, 0, 63, 0
2, 74408, Note_on_c, 0, 61, 84
2, 74416, Note_on_c, 0, 61, 0
2, 74416, Note_on_c, 0, 63, 84
2, 74424, Note_on_c, 0, 63, 0
2, 74424, Note_on_c, 0, 61, 84
2, 74432, Note_on_c, 0, 61, 0
2, 74432, Note_on_c, 0, 63, 84
2, 74440, Note_on_c, 0, 63, 0
2, 74440, Note_on_c, 0, 61, 84
2, 74448, Note_on_c, 0, 61, 0
2, 74448, Note_on_c, 0, 63, 84
2, 74456, Note_on_c, 0, 63, 0
2, 74456, Note_on_c, 0, 61, 84
2, 74464, Note_on_c, 0, 61, 0
2, 74464, Note_on_c, 0, 60, 84
2, 74480, Note_on_c, 0, 60, 0
2, 74480, Note_on_c, 0, 61, 84
2, 74496, Note_on_c, 0, 61, 0
2, 74496, Note_on_c, 0, 61, 84
2, 74496, Note_on_c, 0, 58, 84
2, 74592, Note_on_c, 0, 61, 0
2, 74592, Note_on_c, 0, 58, 0
2, 74592, Note_on_c, 0, 60, 84
2, 74592, Note_on_c, 0, 56, 84
2, 74681, Note_on_c, 0, 60, 0
2, 74681, Note_on_c, 0, 56, 0
2, 74688, Note_on_c, 0, 68, 69
2, 74694, Note_on_c, 0, 68, 0
2, 74694, Note_on_c, 0, 67, 69
2, 74700, Note_on_c, 0, 67, 0
2, 74700, Note_on_c, 0, 68, 69
2, 74867, Note_on_c, 0, 68, 0
2, 74880, Note_on_c, 0, 75, 69
2, 75043, Note_on_c, 0, 75, 0
2, 75048, Note_on_c, 0, 73, 69
2, 75071, Note_on_c, 0, 73, 0
2, 75072, Note_on_c, 0, 73, 69
2, 75168, Note_on_c, 0, 73, 0
2, 75168, Note_on_c, 0, 71, 69
2, 75213, Note_on_c, 0, 71, 0
2, 75216, Note_on_c, 0, 63, 69
2, 75261, Note_on_c, 0, 63, 0
2, 75264, Note_on_c, 0, 64, 69
2, 75405, Note_on_c, 0, 64, 0
2, 75408, Note_on_c, 0, 68, 69
2, 75442, Note_on_c, 0, 68, 0
2, 75444, Note_on_c, 0, 64, 69
2, 75456, Note_on_c, 0, 64, 0
2, 75456, Note_on_c, 0, 64, 69
2, 75552, Note_on_c, 0, 64, 0
2, 75552, Note_on_c, 0, 63, 69
2, 75558, Note_on_c, 0, 63, 0
2, 75558, Note_on_c, 0, 65, 69
2, 75564, Note_on_c, 0, 65, 0
2, 75564, Note_on_c, 0, 63, 69
2, 75621, Note_on_c, 0, 63, 0
2, 75624, Note_on_c, 0, 63, 69
2, 75647, Note_on_c, 0, 63, 0
2, 75648, Note_on_c, 0, 68, 69
2, 75737, Note_on_c, 0, 68, 0
2, 75744, Note_on_c, 0, 66, 69
2, 75767, Note_on_c, 0, 66, 0
2, 75768, Note_on_c, 0, 64, 69
2, 75791, Note_on_c, 0, 64, 0
2, 75792, Note_on_c, 0, 63, 69
2, 75815, Note_on_c, 0, 63, 0
2, 75816, Note_on_c, 0, 62, 69
2, 75839, Note_on_c, 0, 62, 0
2, 75840, Note_on_c, 0, 62, 69
2, 75936, Note_on_c, 0, 62, 0
2, 75936, Note_on_c, 0, 63, 69
2, 76025, Note_on_c, 0, 63, 0
2, 76048, Note_on_c, 0, 79, 75
2, 76063, Note_on_c, 0, 79, 0
2, 76064, Note_on_c, 0, 80, 75
2, 76079, Note_on_c, 0, 80, 0
2, 76080, Note_on_c, 0, 82, 75
2, 76095, Note_on_c, 0, 82, 0
2, 76096, Note_on_c, 0, 80, 75
2, 76111, Note_on_c, 0, 80, 0
2, 76112, Note_on_c, 0, 79, 75
2, 76127, Note_on_c, 0, 79, 0
2, 76144, Note_on_c, 0, 80, 75
2, 76159, Note_on_c, 0, 80, 0
2, 76160, Note_on_c, 0, 82, 75
2, 76175, Note_on_c, 0, 82, 0
2, 76176, Note_on_c, 0, 84, 75
2, 76191, Note_on_c, 0, 84, 0
2, 76192, Note_on_c, 0, 82, 75
2, 76207, Note_on_c, 0, 82, 0
2, 76208, Note_on_c, 0, 80, 75
2, 76223, Note_on_c, 0, 80, 0
2, 76224, Note_on_c, 0, 82, 75
2, 76239, Note_on_c, 0, 82, 0
2, 76240, Note_on_c, 0, 85, 75
2, 76255, Note_on_c, 0, 85, 0
2, 76256, Note_on_c, 0, 84, 75
2, 76271, Note_on_c, 0, 84, 0
2, 76272, Note_on_c, 0, 82, 75
2, 76287, Note_on_c, 0, 82, 0
2, 76288, Note_on_c, 0, 80, 75
2, 76303, Note_on_c, 0, 80, 0
2, 76304, Note_on_c, 0, 79, 75
2, 76319, Note_on_c, 0, 79, 0
2, 76320, Note_on_c, 0, 77, 75
2, 76335, Note_on_c, 0, 77, 0
2, 76336, Note_on_c, 0, 75, 75
2, 76351, Note_on_c, 0, 75, 0
2, 76352, Note_on_c, 0, 73, 75
2, 76367, Note_on_c, 0, 73, 0
2, 76368, Note_on_c, 0, 72, 75
2, 76383, Note_on_c, 0, 72, 0
2, 76384, Note_on_c, 0, 70, 75
2, 76399, Note_on_c, 0, 70, 0
2, 76400, Note_on_c, 0, 68, 75
2, 76415, Note_on_c, 0, 68, 0
2, 76432, Note_on_c, 0, 67, 75
2, 76447, Note_on_c, 0, 67, 0
2, 76448, Note_on_c, 0, 68, 75
2, 76463, Note_on_c, 0, 68, 0
2, 76464, Note_on_c, 0, 70, 75
2, 76479, Note_on_c, 0, 70, 0
2, 76480, Note_on_c, 0, 68, 75
2, 76495, Note_on_c, 0, 68, 0
2, 76496, Note_on_c, 0, 67, 75
2, 76511, Note_on_c, 0, 67, 0
2, 76528, Note_on_c, 0, 68, 75
2, 76543, Note_on_c, 0, 68, 0
2, 76544, Note_on_c, 0, 70, 75
2, 76559, Note_on_c, 0, 70, 0
2, 76560, Note_on_c, 0, 72, 75
2, 76575, Note_on_c, 0, 72, 0
2, 76576, Note_on_c, 0, 70, 75
2, 76591, Note_on_c, 0, 70, 0
2, 76592, Note_on_c, 0, 68, 75
2, 76607, Note_on_c, 0, 68, 0
2, 76608, Note_on_c, 0, 70, 75
2, 76623, Note_on_c, 0, 70, 0
2, 76624, Note_on_c, 0, 73, 75
2, 76639, Note_on_c, 0, 73, 0
2, 76640, Note_on_c, 0, 72, 75
2, 76655, Note_on_c, 0, 72, 0
2, 76656, Note_on_c, 0, 70, 75
2, 76671, Note_on_c, 0, 70, 0
2, 76672, Note_on_c, 0, 68, 75
2, 76687, Note_on_c, 0, 68, 0
2, 76688, Note_on_c, 0, 67, 75
2, 76703, Note_on_c, 0, 67, 0
2, 76704, Note_on_c, 0, 65, 75
2, 76719, Note_on_c, 0, 65, 0
2, 76720, Note_on_c, 0, 63, 75
2, 76735, Note_on_c, 0, 63, 0
2, 76736, Note_on_c, 0, 61, 75
2, 76751, Note_on_c, 0, 61, 0
2, 76752, Note_on_c, 0, 60, 75
2, 76767, Note_on_c, 0, 60, 0
2, 76768, Note_on_c, 0, 58, 75
2, 76783, Note_on_c, 0, 58, 0
2, 76784, Note_on_c, 0, 56, 75
2, 76799, Note_on_c, 0, 56, 0
2, 76816, Note_on_c, 0, 55, 84
2, 76831, Note_on_c, 0, 55, 0
2, 76832, Note_on_c, 0, 58, 84
2, 76847, Note_on_c, 0, 58, 0
2, 76864, Note_on_c, 0, 53, 84
2, 76879, Note_on_c, 0, 53, 0
2, 76880, Note_on_c, 0, 56, 84
2, 76895, Note_on_c, 0, 56, 0
2, 76912, Note_on_c, 0, 55, 84
2, 76927, Note_on_c, 0, 55, 0
2, 76928, Note_on_c, 0, 58, 84
2, 76943, Note_on_c, 0, 58, 0
2, 76960, Note_on_c, 0, 56, 84
2, 76975, Note_on_c, 0, 56, 0
2, 76976, Note_on_c, 0, 60, 84
2, 76991, Note_on_c, 0, 60, 0
2, 77008, Note_on_c, 0, 58, 84
2, 77023, Note_on_c, 0, 58, 0
2, 77024, Note_on_c, 0, 61, 84
2, 77039, Note_on_c, 0, 61, 0
2, 77056, Note_on_c, 0, 55, 84
2, 77071, Note_on_c, 0, 55, 0
2, 77072, Note_on_c, 0, 58, 84
2, 77087, Note_on_c, 0, 58, 0
2, 77104, Note_on_c, 0, 56, 84
2, 77119, Note_on_c, 0, 56, 0
2, 77120, Note_on_c, 0, 60, 84
2, 77135, Note_on_c, 0, 60, 0
2, 77152, Note_on_c, 0, 60, 84
2, 77167, Note_on_c, 0, 60, 0
2, 77168, Note_on_c, 0, 63, 84
2, 77183, Note_on_c, 0, 63, 0
2, 77200, Note_on_c, 0, 51, 84
2, 77215, Note_on_c, 0, 51, 0
2, 77216, Note_on_c, 0, 55, 84
2, 77231, Note_on_c, 0, 55, 0
2, 77248, Note_on_c, 0, 53, 84
2, 77263, Note_on_c, 0, 53, 0
2, 77264, Note_on_c, 0, 56, 84
2, 77279, Note_on_c, 0, 56, 0
2, 77296, Note_on_c, 0, 55, 84
2, 77311, Note_on_c, 0, 55, 0
2, 77312, Note_on_c, 0, 58, 84
2, 77327, Note_on_c, 0, 58, 0
2, 77344, Note_on_c, 0, 56, 84
2, 77359, Note_on_c, 0, 56, 0
2, 77360, Note_on_c, 0, 60, 84
2, 77375, Note_on_c, 0, 60, 0
2, 77392, Note_on_c, 0, 58, 84
2, 77407, Note_on_c, 0, 58, 0
2, 77408, Note_on_c, 0, 61, 84
2, 77423, Note_on_c, 0, 61, 0
2, 77440, Note_on_c, 0, 55, 84
2, 77455, Note_on_c, 0, 55, 0
2, 77456, Note_on_c, 0, 58, 84
2, 77471, Note_on_c, 0, 58, 0
2, 77488, Note_on_c, 0, 56, 84
2, 77503, Note_on_c, 0, 56, 0
2, 77504, Note_on_c, 0, 60, 84
2, 77519, Note_on_c, 0, 60, 0
2, 77536, Note_on_c, 0, 60, 84
2, 77551, Note_on_c, 0, 60, 0
2, 77552, Note_on_c, 0, 62, 84
2, 77567, Note_on_c, 0, 62, 0
2, 77568, Note_on_c, 0, 63, 84
2, 77568, Note_on_c, 0, 55, 84
2, 77753, Note_on_c, 0, 63, 0
2, 77753, Note_on_c, 0, 55, 0
2, 77952, Note_on_c, 0, 75, 69
2, 77952, Note_on_c, 0, 72, 69
2, 78041, Note_on_c, 0, 75, 0
2, 78041, Note_on_c, 0, 72, 0
2, 78048, Note_on_c, 0, 75, 69
2, 78048, Note_on_c, 0, 73, 69
2, 78137, Note_on_c, 0, 75, 0
2, 78137, Note_on_c, 0, 73, 0
2, 78144, Note_on_c, 0, 75, 69
2, 78144, Note_on_c, 0, 72, 69
2, 78159, Note_on_c, 0, 75, 0
2, 78159, Note_on_c, 0, 72, 0
2, 78160, Note_on_c, 0, 72, 69
2, 78175, Note_on_c, 0, 72, 0
2, 78176, Note_on_c, 0, 73, 69
2, 78191, Note_on_c, 0, 73, 0
2, 78192, Note_on_c, 0, 75, 69
2, 78207, Note_on_c, 0, 75, 0
2, 78208, Note_on_c, 0, 73, 69
2, 78223, Note_on_c, 0, 73, 0
2, 78224, Note_on_c, 0, 72, 69
2, 78239, Note_on_c, 0, 72, 0
2, 78240, Note_on_c, 0, 80, 69
2, 78255, Note_on_c, 0, 80, 0
2, 78256, Note_on_c, 0, 79, 69
2, 78271, Note_on_c, 0, 79, 0
2, 78272, Note_on_c, 0, 77, 69
2, 78287, Note_on_c, 0, 77, 0
2, 78288, Note_on_c, 0, 75, 69
2, 78303, Note_on_c, 0, 75, 0
2, 78304, Note_on_c, 0, 73, 69
2, 78319, Note_on_c, 0, 73, 0
2, 78320, Note_on_c, 0, 72, 69
2, 78335, Note_on_c, 0, 72, 0
2, 78336, Note_on_c, 0, 75, 69
2, 78336, Note_on_c, 0, 72, 69
2, 78425, Note_on_c, 0, 75, 0
2, 78425, Note_on_c, 0, 72, 0
2, 78432, Note_on_c, 0, 75, 69
2, 78432, Note_on_c, 0, 73, 69
2, 78521, Note_on_c, 0, 75, 0
2, 78521, Note_on_c, 0, 73, 0
2, 78528, Note_on_c, 0, 75, 69
2, 78528, Note_on_c, 0, 72, 69
2, 78543, Note_on_c, 0, 75, 0
2, 78543, Note_on_c, 0, 72, 0
2, 78544, Note_on_c, 0, 72, 69
2, 78559, Note_on_c, 0, 72, 0
2, 78560, Note_on_c, 0, 73, 69
2, 78575, Note_on_c, 0, 73, 0
2, 78576, Note_on_c, 0, 75, 69
2, 78591, Note_on_c, 0, 75, 0
2, 78592, Note_on_c, 0, 73, 69
2, 78607, Note_on_c, 0, 73, 0
2, 78608, Note_on_c, 0, 72, 69
2, 78623, Note_on_c, 0, 72, 0
2, 78624, Note_on_c, 0, 80, 69
2, 78639, Note_on_c, 0, 80, 0
2, 78640, Note_on_c, 0, 79, 69
2, 78655, Note_on_c, 0, 79, 0
2, 78656, Note_on_c, 0, 77, 70
2, 78671, Note_on_c, 0, 77, 0
2, 78672, Note_on_c, 0, 75, 71
2, 78687, Note_on_c, 0, 75, 0
2, 78688, Note_on_c, 0, 73, 72
2, 78703, Note_on_c, 0, 73, 0
2, 78704, Note_on_c, 0, 72, 72
2, 78719, Note_on_c, 0, 72, 0
2, 78720, Note_on_c, 0, 70, 75
2, 78735, Note_on_c, 0, 70, 0
2, 78736, Note_on_c, 0, 82, 75
2, 78751, Note_on_c, 0, 82, 0
2, 78752, Note_on_c, 0, 84, 75
2, 78767, Note_on_c, 0, 84, 0
2, 78768, Note_on_c, 0, 85, 75
2, 78783, Note_on_c, 0, 85, 0
2, 78784, Note_on_c, 0, 84, 75
2, 78799, Note_on_c, 0, 84, 0
2, 78800, Note_on_c, 0, 82, 75
2, 78815, Note_on_c, 0, 82, 0
2, 78816, Note_on_c, 0, 89, 75
2, 78831, Note_on_c, 0, 89, 0
2, 78832, Note_on_c, 0, 87, 75
2, 78847, Note_on_c, 0, 87, 0
2, 78848, Note_on_c, 0, 85, 75
2, 78863, Note_on_c, 0, 85, 0
2, 78864, Note_on_c, 0, 84, 75
2, 78879, Note_on_c, 0, 84, 0
2, 78880, Note_on_c, 0, 82, 75
2, 78895, Note_on_c, 0, 82, 0
2, 78896, Note_on_c, 0, 80, 75
2, 78911, Note_on_c, 0, 80, 0
2, 78912, Note_on_c, 0, 79, 75
2, 78927, Note_on_c, 0, 79, 0
2, 78928, Note_on_c, 0, 82, 75
2, 78943, Note_on_c, 0, 82, 0
2, 78944, Note_on_c, 0, 80, 75
2, 78959, Note_on_c, 0, 80, 0
2, 78960, Note_on_c, 0, 79, 75
2, 78975, Note_on_c, 0, 79, 0
2, 78976, Note_on_c, 0, 77, 75
2, 78991, Note_on_c, 0, 77, 0
2, 78992, Note_on_c, 0, 75, 75
2, 79007, Note_on_c, 0, 75, 0
2, 79008, Note_on_c, 0, 73, 75
2, 79023, Note_on_c, 0, 73, 0
2, 79024, Note_on_c, 0, 72, 75
2, 79039, Note_on_c, 0, 72, 0
2, 79040, Note_on_c, 0, 70, 75
2, 79055, Note_on_c, 0, 70, 0
2, 79056, Note_on_c, 0, 68, 75
2, 79071, Note_on_c, 0, 68, 0
2, 79072, Note_on_c, 0, 67, 75
2, 79087, Note_on_c, 0, 67, 0
2, 79088, Note_on_c, 0, 65, 75
2, 79103, Note_on_c, 0, 65, 0
2, 79104, Note_on_c, 0, 63, 75
2, 79119, Note_on_c, 0, 63, 0
2, 79120, Note_on_c, 0, 67, 75
2, 79135, Note_on_c, 0, 67, 0
2, 79136, Note_on_c, 0, 70, 75
2, 79151, Note_on_c, 0, 70, 0
2, 79152, Note_on_c, 0, 63, 75
2, 79167, Note_on_c, 0, 63, 0
2, 79168, Note_on_c, 0, 67, 75
2, 79183, Note_on_c, 0, 67, 0
2, 79184, Note_on_c, 0, 68, 75
2, 79199, Note_on_c, 0, 68, 0
2, 79200, Note_on_c, 0, 61, 75
2, 79215, Note_on_c, 0, 61, 0
2, 79216, Note_on_c, 0, 63, 75
2, 79231, Note_on_c, 0, 63, 0
2, 79232, Note_on_c, 0, 67, 75
2, 79247, Note_on_c, 0, 67, 0
2, 79248, Note_on_c, 0, 60, 75
2, 79263, Note_on_c, 0, 60, 0
2, 79264, Note_on_c, 0, 63, 75
2, 79279, Note_on_c, 0, 63, 0
2, 79280, Note_on_c, 0, 68, 75
2, 79295, Note_on_c, 0, 68, 0
2, 79296, Note_on_c, 0, 63, 75
2, 79311, Note_on_c, 0, 63, 0
2, 79312, Note_on_c, 0, 67, 75
2, 79327, Note_on_c, 0, 67, 0
2, 79328, Note_on_c, 0, 70, 75
2, 79343, Note_on_c, 0, 70, 0
2, 79344, Note_on_c, 0, 63, 75
2, 79359, Note_on_c, 0, 63, 0
2, 79360, Note_on_c, 0, 67, 75
2, 79375, Note_on_c, 0, 67, 0
2, 79376, Note_on_c, 0, 68, 75
2, 79391, Note_on_c, 0, 68, 0
2, 79392, Note_on_c, 0, 61, 75
2, 79407, Note_on_c, 0, 61, 0
2, 79408, Note_on_c, 0, 63, 75
2, 79423, Note_on_c, 0, 63, 0
2, 79424, Note_on_c, 0, 67, 75
2, 79439, Note_on_c, 0, 67, 0
2, 79440, Note_on_c, 0, 60, 75
2, 79455, Note_on_c, 0, 60, 0
2, 79456, Note_on_c, 0, 63, 75
2, 79471, Note_on_c, 0, 63, 0
2, 79472, Note_on_c, 0, 68, 75
2, 79487, Note_on_c, 0, 68, 0
2, 79504, Note_on_c, 0, 58, 75
2, 79519, Note_on_c, 0, 58, 0
2, 79520, Note_on_c, 0, 61, 75
2, 79535, Note_on_c, 0, 61, 0
2, 79536, Note_on_c, 0, 65, 75
2, 79551, Note_on_c, 0, 65, 0
2, 79552, Note_on_c, 0, 58, 75
2, 79567, Note_on_c, 0, 58, 0
2, 79568, Note_on_c, 0, 61, 75
2, 79583, Note_on_c, 0, 61, 0
2, 79584, Note_on_c, 0, 65, 75
2, 79599, Note_on_c, 0, 65, 0
2, 79600, Note_on_c, 0, 65, 75
2, 79615, Note_on_c, 0, 65, 0
2, 79616, Note_on_c, 0, 70, 75
2, 79631, Note_on_c, 0, 70, 0
2, 79632, Note_on_c, 0, 73, 75
2, 79647, Note_on_c, 0, 73, 0
2, 79648, Note_on_c, 0, 65, 75
2, 79663, Note_on_c, 0, 65, 0
2, 79664, Note_on_c, 0, 70, 75
2, 79679, Note_on_c, 0, 70, 0
2, 79680, Note_on_c, 0, 73, 75
2, 79695, Note_on_c, 0, 73, 0
2, 79696, Note_on_c, 0, 70, 75
2, 79711, Note_on_c, 0, 70, 0
2, 79712, Note_on_c, 0, 73, 75
2, 79727, Note_on_c, 0, 73, 0
2, 79728, Note_on_c, 0, 77, 75
2, 79743, Note_on_c, 0, 77, 0
2, 79744, Note_on_c, 0, 70, 75
2, 79759, Note_on_c, 0, 70, 0
2, 79760, Note_on_c, 0, 73, 75
2, 79775, Note_on_c, 0, 73, 0
2, 79776, Note_on_c, 0, 77, 75
2, 79791, Note_on_c, 0, 77, 0
2, 79792, Note_on_c, 0, 75, 76
2, 79807, Note_on_c, 0, 75, 0
2, 79808, Note_on_c, 0, 73, 77
2, 79823, Note_on_c, 0, 73, 0
2, 79824, Note_on_c, 0, 72, 78
2, 79839, Note_on_c, 0, 72, 0
2, 79840, Note_on_c, 0, 70, 79
2, 79855, Note_on_c, 0, 70, 0
2, 79856, Note_on_c, 0, 68, 80
2, 79871, Note_on_c, 0, 68, 0
2, 79872, Note_on_c, 0, 68, 84
2, 80059, Note_on_c, 0, 68, 0
2, 80064, Note_on_c, 0, 67, 84
2, 80070, Note_on_c, 0, 67, 0
2, 80070, Note_on_c, 0, 68, 84
2, 80076, Note_on_c, 0, 68, 0
2, 80076, Note_on_c, 0, 67, 84
2, 80249, Note_on_c, 0, 67, 0
2, 80256, Note_on_c, 0, 57, 75
2, 80433, Note_on_c, 0, 57, 0
2, 80448, Note_on_c, 0, 58, 75
2, 80625, Note_on_c, 0, 58, 0
2, 80640, Note_on_c, 0, 54, 101
2, 80817, Note_on_c, 0, 54, 0
2, 80832, Note_on_c, 0, 53, 75
2, 80877, Note_on_c, 0, 53, 0
2, 80880, Note_on_c, 0, 64, 75
2, 80886, Note_on_c, 0, 64, 0
2, 80886, Note_on_c, 0, 65, 75
2, 80925, Note_on_c, 0, 65, 0
2, 80928, Note_on_c, 0, 60, 75
2, 80934, Note_on_c, 0, 60, 0
2, 80934, Note_on_c, 0, 61, 75
2, 80973, Note_on_c, 0, 61, 0
2, 80976, Note_on_c, 0, 57, 75
2, 80982, Note_on_c, 0, 57, 0
2, 80982, Note_on_c, 0, 58, 75
2, 81021, Note_on_c, 0, 58, 0
2, 81024, Note_on_c, 0, 53, 75
2, 81069, Note_on_c, 0, 53, 0
2, 81072, Note_on_c, 0, 76, 61
2, 81096, Note_on_c, 0, 76, 0
2, 81096, Note_on_c, 0, 77, 61
2, 81106, Note_on_c, 0, 77, 0
2, 81120, Note_on_c, 0, 72, 61
2, 81144, Note_on_c, 0, 72, 0
2, 81144, Note_on_c, 0, 73, 61
2, 81154, Note_on_c, 0, 73, 0
2, 81168, Note_on_c, 0, 69, 61
2, 81192, Note_on_c, 0, 69, 0
2, 81192, Note_on_c, 0, 70, 61
2, 81202, Note_on_c, 0, 70, 0
2, 81216, Note_on_c, 0, 65, 61
2, 81261, Note_on_c, 0, 65, 0
2, 81264, Note_on_c, 0, 76, 69
2, 81288, Note_on_c, 0, 76, 0
2, 81288, Note_on_c, 0, 77, 69
2, 81298, Note_on_c, 0, 77, 0
2, 81312, Note_on_c, 0, 75, 69
2, 81335, Note_on_c, 0, 75, 0
2, 81336, Note_on_c, 0, 73, 69
2, 81359, Note_on_c, 0, 73, 0
2, 81360, Note_on_c, 0, 72, 69
2, 81383, Note_on_c, 0, 72, 0
2, 81384, Note_on_c, 0, 70, 69
2, 81407, Note_on_c, 0, 70, 0
2, 81408, Note_on_c, 0, 72, 75
2, 81414, Note_on_c, 0, 72, 0
2, 81414, Note_on_c, 0, 73, 75
2, 81420, Note_on_c, 0, 73, 0
2, 81420, Note_on_c, 0, 75, 75
2, 81527, Note_on_c, 0, 75, 0
2, 81528, Note_on_c, 0, 73, 75
2, 81540, Note_on_c, 0, 73, 0
2, 81540, Note_on_c, 0, 72, 75
2, 81552, Note_on_c, 0, 72, 0
2, 81552, Note_on_c, 0, 70, 75
2, 81564, Note_on_c, 0, 70, 0
2, 81564, Note_on_c, 0, 68, 75
2, 81576, Note_on_c, 0, 68, 0
2, 81576, Note_on_c, 0, 67, 75
2, 81588, Note_on_c, 0, 67, 0
2, 81588, Note_on_c, 0, 65, 75
2, 81600, Note_on_c, 0, 65, 0
2, 81600, Note_on_c, 0, 63, 75
2, 81689, Note_on_c, 0, 63, 0
2, 81696, Note_on_c, 0, 61, 75
2, 81705, Note_on_c, 0, 61, 0
2, 81705, Note_on_c, 0, 63, 75
2, 81714, Note_on_c, 0, 63, 0
2, 81714, Note_on_c, 0, 61, 75
2, 81723, Note_on_c, 0, 61, 0
2, 81723, Note_on_c, 0, 63, 75
2, 81732, Note_on_c, 0, 63, 0
2, 81732, Note_on_c, 0, 61, 75
2, 81741, Note_on_c, 0, 61, 0
2, 81741, Note_on_c, 0, 63, 75
2, 81750, Note_on_c, 0, 63, 0
2, 81750, Note_on_c, 0, 61, 75
2, 81759, Note_on_c, 0, 61, 0
2, 81759, Note_on_c, 0, 60, 75
2, 81776, Note_on_c, 0, 60, 0
2, 81776, Note_on_c, 0, 61, 75
2, 81792, Note_on_c, 0, 61, 0
2, 81792, Note_on_c, 0, 60, 75
2, 81812, Note_on_c, 0, 60, 0
2, 81840, Note_on_c, 0, 68, 91
2, 81936, Note_on_c, 0, 68, 0
2, 81936, Note_on_c, 0, 66, 75
2, 82025, Note_on_c, 0, 66, 0
2, 82032, Note_on_c, 0, 65, 75
2, 82121, Note_on_c, 0, 65, 0
2, 82128, Note_on_c, 0, 69, 75
2, 82173, Note_on_c, 0, 69, 0
2, 82176, Note_on_c, 0, 72, 75
2, 82182, Note_on_c, 0, 72, 0
2, 82182, Note_on_c, 0, 70, 75
2, 82188, Note_on_c, 0, 70, 0
2, 82188, Note_on_c, 0, 69, 75
2, 82194, Note_on_c, 0, 69, 0
2, 82194, Note_on_c, 0, 70, 75
2, 82221, Note_on_c, 0, 70, 0
2, 82224, Note_on_c, 0, 72, 75
2, 82269, Note_on_c, 0, 72, 0
2, 82272, Note_on_c, 0, 75, 75
2, 82278, Note_on_c, 0, 75, 0
2, 82278, Note_on_c, 0, 73, 75
2, 82284, Note_on_c, 0, 73, 0
2, 82284, Note_on_c, 0, 72, 75
2, 82290, Note_on_c, 0, 72, 0
2, 82290, Note_on_c, 0, 73, 75
2, 82317, Note_on_c, 0, 73, 0
2, 82320, Note_on_c, 0, 76, 75
2, 82365, Note_on_c, 0, 76, 0
2, 82368, Note_on_c, 0, 79, 75
2, 82374, Note_on_c, 0, 79, 0
2, 82374, Note_on_c, 0, 77, 75
2, 82380, Note_on_c, 0, 77, 0
2, 82380, Note_on_c, 0, 76, 75
2, 82386, Note_on_c, 0, 76, 0
2, 82386, Note_on_c, 0, 77, 75
2, 82413, Note_on_c, 0, 77, 0
2, 82416, Note_on_c, 0, 81, 75
2, 82422, Note_on_c, 0, 81, 0
2, 82422, Note_on_c, 0, 84, 75
2, 82461, Note_on_c, 0, 84, 0
2, 82464, Note_on_c, 0, 82, 76
2, 82470, Note_on_c, 0, 82, 0
2, 82470, Note_on_c, 0, 85, 76
2, 82509, Note_on_c, 0, 85, 0
2, 82512, Note_on_c, 0, 84, 78
2, 82518, Note_on_c, 0, 84, 0
2, 82518, Note_on_c, 0, 87, 78
2, 82557, Note_on_c, 0, 87, 0
2, 82560, Note_on_c, 0, 85, 80
2, 82566, Note_on_c, 0, 85, 0
2, 82566, Note_on_c, 0, 89, 80
2, 82679, Note_on_c, 0, 89, 0
2, 82680, Note_on_c, 0, 87, 84
2, 82692, Note_on_c, 0, 87, 0
2, 82692, Note_on_c, 0, 85, 84
2, 82704, Note_on_c, 0, 85, 0
2, 82704, Note_on_c, 0, 87, 84
2, 82716, Note_on_c, 0, 87, 0
2, 82716, Note_on_c, 0, 85, 84
2, 82728, Note_on_c, 0, 85, 0
2, 82728, Note_on_c, 0, 84, 84
2, 82740, Note_on_c, 0, 84, 0
2, 82740, Note_on_c, 0, 82, 84
2, 82752, Note_on_c, 0, 82, 0
2, 82752, Note_on_c, 0, 84, 84
2, 82764, Note_on_c, 0, 84, 0
2, 82764, Note_on_c, 0, 85, 84
2, 82776, Note_on_c, 0, 85, 0
2, 82776, Note_on_c, 0, 87, 84
2, 82788, Note_on_c, 0, 87, 0
2, 82788, Note_on_c, 0, 85, 84
2, 82800, Note_on_c, 0, 85, 0
2, 82800, Note_on_c, 0, 84, 84
2, 82812, Note_on_c, 0, 84, 0
2, 82812, Note_on_c, 0, 82, 82
2, 82824, Note_on_c, 0, 82, 0
2, 82824, Note_on_c, 0, 80, 80
2, 82836, Note_on_c, 0, 80, 0
2, 82836, Note_on_c, 0, 79, 78
2, 82848, Note_on_c, 0, 79, 0
2, 82848, Note_on_c, 0, 77, 76
2, 82860, Note_on_c, 0, 77, 0
2, 82860, Note_on_c, 0, 75, 74
2, 82872, Note_on_c, 0, 75, 0
2, 82872, Note_on_c, 0, 73, 72
2, 82884, Note_on_c, 0, 73, 0
2, 82884, Note_on_c, 0, 72, 70
2, 82896, Note_on_c, 0, 72, 0
2, 82896, Note_on_c, 0, 70, 68
2, 82908, Note_on_c, 0, 70, 0
2, 82908, Note_on_c, 0, 68, 66
2, 82920, Note_on_c, 0, 68, 0
2, 82920, Note_on_c, 0, 67, 64
2, 82932, Note_on_c, 0, 67, 0
2, 82932, Note_on_c, 0, 65, 62
2, 82944, Note_on_c, 0, 65, 0
2, 82944, Note_on_c, 0, 63, 85
2, 83136, Note_on_c, 0, 63, 0
2, 83136, Note_on_c, 0, 62, 69
2, 83299, Note_on_c, 0, 62, 0
2, 83304, Note_on_c, 0, 63, 69
2, 83327, Note_on_c, 0, 63, 0
2, 83328, Note_on_c, 0, 61, 85
2, 83400, Note_on_c, 0, 61, 0
2, 83400, Note_on_c, 0, 63, 69
2, 83423, Note_on_c, 0, 63, 0
2, 83424, Note_on_c, 0, 61, 69
2, 83458, Note_on_c, 0, 61, 0
2, 83460, Note_on_c, 0, 63, 69
2, 83472, Note_on_c, 0, 63, 0
2, 83472, Note_on_c, 0, 61, 69
2, 83506, Note_on_c, 0, 61, 0
2, 83508, Note_on_c, 0, 63, 69
2, 83520, Note_on_c, 0, 63, 0
2, 83520, Note_on_c, 0, 60, 69
2, 83535, Note_on_c, 0, 60, 0
2, 83536, Note_on_c, 0, 63, 69
2, 83551, Note_on_c, 0, 63, 0
2, 83552, Note_on_c, 0, 68, 69
2, 83567, Note_on_c, 0, 68, 0
2, 83568, Note_on_c, 0, 60, 69
2, 83583, Note_on_c, 0, 60, 0
2, 83584, Note_on_c, 0, 63, 69
2, 83599, Note_on_c, 0, 63, 0
2, 83600, Note_on_c, 0, 68, 69
2, 83615, Note_on_c, 0, 68, 0
2, 83616, Note_on_c, 0, 63, 69
2, 83631, Note_on_c, 0, 63, 0
2, 83632, Note_on_c, 0, 67, 69
2, 83647, Note_on_c, 0, 67, 0
2, 83648, Note_on_c, 0, 70, 69
2, 83663, Note_on_c, 0, 70, 0
2, 83664, Note_on_c, 0, 67, 69
2, 83679, Note_on_c, 0, 67, 0
2, 83680, Note_on_c, 0, 70, 69
2, 83695, Note_on_c, 0, 70, 0
2, 83696, Note_on_c, 0, 73, 69
2, 83711, Note_on_c, 0, 73, 0
2, 83712, Note_on_c, 0, 72, 69
2, 83727, Note_on_c, 0, 72, 0
2, 83728, Note_on_c, 0, 75, 69
2, 83743, Note_on_c, 0, 75, 0
2, 83744, Note_on_c, 0, 80, 70
2, 83759, Note_on_c, 0, 80, 0
2, 83760, Note_on_c, 0, 72, 71
2, 83775, Note_on_c, 0, 72, 0
2, 83776, Note_on_c, 0, 75, 72
2, 83791, Note_on_c, 0, 75, 0
2, 83792, Note_on_c, 0, 80, 73
2, 83807, Note_on_c, 0, 80, 0
2, 83808, Note_on_c, 0, 75, 74
2, 83823, Note_on_c, 0, 75, 0
2, 83824, Note_on_c, 0, 79, 75
2, 83839, Note_on_c, 0, 79, 0
2, 83840, Note_on_c, 0, 82, 76
2, 83855, Note_on_c, 0, 82, 0
2, 83856, Note_on_c, 0, 79, 76
2, 83871, Note_on_c, 0, 79, 0
2, 83872, Note_on_c, 0, 82, 77
2, 83887, Note_on_c, 0, 82, 0
2, 83888, Note_on_c, 0, 85, 78
2, 83903, Note_on_c, 0, 85, 0
2, 83904, Note_on_c, 0, 84, 79
2, 83919, Note_on_c, 0, 84, 0
2, 83920, Note_on_c, 0, 85, 84
2, 83935, Note_on_c, 0, 85, 0
2, 83936, Note_on_c, 0, 87, 84
2, 83951, Note_on_c, 0, 87, 0
2, 83952, Note_on_c, 0, 85, 84
2, 83967, Note_on_c, 0, 85, 0
2, 83968, Note_on_c, 0, 84, 84
2, 83983, Note_on_c, 0, 84, 0
2, 83984, Note_on_c, 0, 82, 84
2, 83999, Note_on_c, 0, 82, 0
2, 84000, Note_on_c, 0, 80, 84
2, 84015, Note_on_c, 0, 80, 0
2, 84016, Note_on_c, 0, 79, 84
2, 84031, Note_on_c, 0, 79, 0
2, 84032, Note_on_c, 0, 77, 84
2, 84047, Note_on_c, 0, 77, 0
2, 84048, Note_on_c, 0, 75, 84
2, 84063, Note_on_c, 0, 75, 0
2, 84064, Note_on_c, 0, 73, 84
2, 84079, Note_on_c, 0, 73, 0
2, 84080, Note_on_c, 0, 72, 84
2, 84095, Note_on_c, 0, 72, 0
2, 84096, Note_on_c, 0, 70, 84
2, 84111, Note_on_c, 0, 70, 0
2, 84112, Note_on_c, 0, 73, 83
2, 84127, Note_on_c, 0, 73, 0
2, 84128, Note_on_c, 0, 72, 82
2, 84143, Note_on_c, 0, 72, 0
2, 84144, Note_on_c, 0, 70, 81
2, 84159, Note_on_c, 0, 70, 0
2, 84160, Note_on_c, 0, 77, 81
2, 84175, Note_on_c, 0, 77, 0
2, 84176, Note_on_c, 0, 75, 80
2, 84191, Note_on_c, 0, 75, 0
2, 84192, Note_on_c, 0, 73, 79
2, 84207, Note_on_c, 0, 73, 0
2, 84208, Note_on_c, 0, 72, 79
2, 84223, Note_on_c, 0, 72, 0
2, 84224, Note_on_c, 0, 70, 78
2, 84239, Note_on_c, 0, 70, 0
2, 84240, Note_on_c, 0, 68, 77
2, 84255, Note_on_c, 0, 68, 0
2, 84256, Note_on_c, 0, 67, 77
2, 84271, Note_on_c, 0, 67, 0
2, 84272, Note_on_c, 0, 65, 76
2, 84287, Note_on_c, 0, 65, 0
2, 84288, Note_on_c, 0, 63, 75
2, 84355, Note_on_c, 0, 63, 0
2, 84360, Note_on_c, 0, 68, 69
2, 84372, Note_on_c, 0, 68, 0
2, 84372, Note_on_c, 0, 70, 69
2, 84384, Note_on_c, 0, 70, 0
2, 84384, Note_on_c, 0, 72, 69
2, 84392, Note_on_c, 0, 72, 0
2, 84392, Note_on_c, 0, 70, 69
2, 84400, Note_on_c, 0, 70, 0
2, 84400, Note_on_c, 0, 72, 69
2, 84408, Note_on_c, 0, 72, 0
2, 84408, Note_on_c, 0, 70, 69
2, 84416, Note_on_c, 0, 70, 0
2, 84416, Note_on_c, 0, 72, 69
2, 84424, Note_on_c, 0, 72, 0
2, 84424, Note_on_c, 0, 70, 69
2, 84432, Note_on_c, 0, 70, 0
2, 84432, Note_on_c, 0, 72, 69
2, 84440, Note_on_c, 0, 72, 0
2, 84440, Note_on_c, 0, 70, 69
2, 84448, Note_on_c, 0, 70, 0
2, 84448, Note_on_c, 0, 68, 69
2, 84464, Note_on_c, 0, 68, 0
2, 84464, Note_on_c, 0, 70, 69
2, 84480, Note_on_c, 0, 70, 0
2, 84480, Note_on_c, 0, 60, 69
2, 84495, Note_on_c, 0, 60, 0
2, 84496, Note_on_c, 0, 63, 69
2, 84511, Note_on_c, 0, 63, 0
2, 84512, Note_on_c, 0, 68, 69
2, 84527, Note_on_c, 0, 68, 0
2, 84528, Note_on_c, 0, 60, 69
2, 84543, Note_on_c, 0, 60, 0
2, 84544, Note_on_c, 0, 63, 69
2, 84559, Note_on_c, 0, 63, 0
2, 84560, Note_on_c, 0, 68, 69
2, 84575, Note_on_c, 0, 68, 0
2, 84576, Note_on_c, 0, 63, 69
2, 84591, Note_on_c, 0, 63, 0
2, 84592, Note_on_c, 0, 67, 69
2, 84607, Note_on_c, 0, 67, 0
2, 84608, Note_on_c, 0, 70, 69
2, 84623, Note_on_c, 0, 70, 0
2, 84624, Note_on_c, 0, 67, 69
2, 84639, Note_on_c, 0, 67, 0
2, 84640, Note_on_c, 0, 70, 69
2, 84655, Note_on_c, 0, 70, 0
2, 84656, Note_on_c, 0, 73, 69
2, 84671, Note_on_c, 0, 73, 0
2, 84672, Note_on_c, 0, 72, 69
2, 84687, Note_on_c, 0, 72, 0
2, 84688, Note_on_c, 0, 75, 69
2, 84703, Note_on_c, 0, 75, 0
2, 84704, Note_on_c, 0, 80, 70
2, 84719, Note_on_c, 0, 80, 0
2, 84720, Note_on_c, 0, 72, 71
2, 84735, Note_on_c, 0, 72, 0
2, 84736, Note_on_c, 0, 75, 72
2, 84751, Note_on_c, 0, 75, 0
2, 84752, Note_on_c, 0, 80, 73
2, 84767, Note_on_c, 0, 80, 0
2, 84768, Note_on_c, 0, 75, 74
2, 84783, Note_on_c, 0, 75, 0
2, 84784, Note_on_c, 0, 79, 75
2, 84799, Note_on_c, 0, 79, 0
2, 84800, Note_on_c, 0, 82, 76
2, 84815, Note_on_c, 0, 82, 0
2, 84816, Note_on_c, 0, 79, 77
2, 84831, Note_on_c, 0, 79, 0
2, 84832, Note_on_c, 0, 82, 78
2, 84847, Note_on_c, 0, 82, 0
2, 84848, Note_on_c, 0, 85, 79
2, 84863, Note_on_c, 0, 85, 0
2, 84864, Note_on_c, 0, 84, 84
2, 84879, Note_on_c, 0, 84, 0
2, 84880, Note_on_c, 0, 85, 84
2, 84895, Note_on_c, 0, 85, 0
2, 84896, Note_on_c, 0, 87, 84
2, 84911, Note_on_c, 0, 87, 0
2, 84912, Note_on_c, 0, 85, 84
2, 84927, Note_on_c, 0, 85, 0
2, 84928, Note_on_c, 0, 84, 84
2, 84943, Note_on_c, 0, 84, 0
2, 84944, Note_on_c, 0, 82, 84
2, 84959, Note_on_c, 0, 82, 0
2, 84960, Note_on_c, 0, 80, 84
2, 84975, Note_on_c, 0, 80, 0
2, 84976, Note_on_c, 0, 79, 84
2, 84991, Note_on_c, 0, 79, 0
2, 84992, Note_on_c, 0, 77, 84
2, 85007, Note_on_c, 0, 77, 0
2, 85008, Note_on_c, 0, 75, 84
2, 85023, Note_on_c, 0, 75, 0
2, 85024, Note_on_c, 0, 73, 84
2, 85039, Note_on_c, 0, 73, 0
2, 85040, Note_on_c, 0, 72, 84
2, 85055, Note_on_c, 0, 72, 0
2, 85056, Note_on_c, 0, 70, 84
2, 85071, Note_on_c, 0, 70, 0
2, 85072, Note_on_c, 0, 73, 84
2, 85087, Note_on_c, 0, 73, 0
2, 85088, Note_on_c, 0, 72, 84
2, 85103, Note_on_c, 0, 72, 0
2, 85104, Note_on_c, 0, 70, 84
2, 85119, Note_on_c, 0, 70, 0
2, 85120, Note_on_c, 0, 77, 84
2, 85135, Note_on_c, 0, 77, 0
2, 85136, Note_on_c, 0, 75, 84
2, 85151, Note_on_c, 0, 75, 0
2, 85152, Note_on_c, 0, 73, 84
2, 85167, Note_on_c, 0, 73, 0
2, 85168, Note_on_c, 0, 72, 84
2, 85183, Note_on_c, 0, 72, 0
2, 85184, Note_on_c, 0, 70, 84
2, 85199, Note_on_c, 0, 70, 0
2, 85200, Note_on_c, 0, 68, 84
2, 85215, Note_on_c, 0, 68, 0
2, 85216, Note_on_c, 0, 67, 84
2, 85231, Note_on_c, 0, 67, 0
2, 85232, Note_on_c, 0, 65, 84
2, 85247, Note_on_c, 0, 65, 0
2, 85248, Note_on_c, 0, 63, 84
2, 85315, Note_on_c, 0, 63, 0
2, 85320, Note_on_c, 0, 68, 80
2, 85332, Note_on_c, 0, 68, 0
2, 85332, Note_on_c, 0, 70, 80
2, 85344, Note_on_c, 0, 70, 0
2, 85344, Note_on_c, 0, 72, 79
2, 85352, Note_on_c, 0, 72, 0
2, 85352, Note_on_c, 0, 70, 79
2, 85360, Note_on_c, 0, 70, 0
2, 85360, Note_on_c, 0, 72, 79
2, 85368, Note_on_c, 0, 72, 0
2, 85368, Note_on_c, 0, 70, 78
2, 85376, Note_on_c, 0, 70, 0
2, 85376, Note_on_c, 0, 72, 78
2, 85384, Note_on_c, 0, 72, 0
2, 85384, Note_on_c, 0, 70, 78
2, 85392, Note_on_c, 0, 70, 0
2, 85392, Note_on_c, 0, 72, 78
2, 85400, Note_on_c, 0, 72, 0
2, 85400, Note_on_c, 0, 70, 77
2, 85408, Note_on_c, 0, 70, 0
2, 85408, Note_on_c, 0, 68, 77
2, 85424, Note_on_c, 0, 68, 0
2, 85424, Note_on_c, 0, 70, 77
2, 85440, Note_on_c, 0, 70, 0
2, 85440, Note_on_c, 0, 68, 92
2, 85536, Note_on_c, 0, 68, 0
2, 85536, Note_on_c, 0, 77, 72
2, 85536, Note_on_c, 0, 73, 72
2, 85581, Note_on_c, 0, 77, 0
2, 85581, Note_on_c, 0, 73, 0
2, 85584, Note_on_c, 0, 67, 69
2, 85584, Note_on_c, 0, 63, 69
2, 85632, Note_on_c, 0, 67, 0
2, 85632, Note_on_c, 0, 68, 69
2, 85677, Note_on_c, 0, 68, 0
2, 85677, Note_on_c, 0, 63, 0
2, 85728, Note_on_c, 0, 77, 61
2, 85728, Note_on_c, 0, 73, 61
2, 85773, Note_on_c, 0, 77, 0
2, 85773, Note_on_c, 0, 73, 0
2, 85776, Note_on_c, 0, 67, 61
2, 85776, Note_on_c, 0, 61, 61
2, 85824, Note_on_c, 0, 67, 0
2, 85824, Note_on_c, 0, 61, 0
2, 85824, Note_on_c, 0, 68, 61
2, 85824, Note_on_c, 0, 60, 61
2, 85957, Note_on_c, 0, 68, 0
2, 85957, Note_on_c, 0, 60, 0
2, 86016, End_track
3, 0, Start_track
3, 0, Program_c, 0, 0
3, 0, Control_c, 0, 7, 127
3, 0, Control_c, 0, 10, 64
3, 86016, End_track
4, 0, Start_track
4, 0, Program_c, 1, 0
4, 0, Control_c, 1, 7, 127
4, 0, Control_c, 1, 10, 64
4, 48, Note_on_c, 1, 60, 69
4, 48, Note_on_c, 1, 56, 69
4, 95, Note_on_c, 1, 60, 0
4, 95, Note_on_c, 1, 56, 0
4, 96, Note_on_c, 1, 60, 69
4, 96, Note_on_c, 1, 56, 69
4, 143, Note_on_c, 1, 60, 0
4, 143, Note_on_c, 1, 56, 0
4, 144, Note_on_c, 1, 60, 69
4, 144, Note_on_c, 1, 56, 69
4, 191, Note_on_c, 1, 60, 0
4, 191, Note_on_c, 1, 56, 0
4, 240, Note_on_c, 1, 58, 69
4, 240, Note_on_c, 1, 55, 69
4, 287, Note_on_c, 1, 58, 0
4, 287, Note_on_c, 1, 55, 0
4, 288, Note_on_c, 1, 58, 69
4, 288, Note_on_c, 1, 55, 69
4, 335, Note_on_c, 1, 58, 0
4, 335, Note_on_c, 1, 55, 0
4, 336, Note_on_c, 1, 58, 69
4, 336, Note_on_c, 1, 55, 69
4, 383, Note_on_c, 1, 58, 0
4, 383, Note_on_c, 1, 55, 0
4, 432, Note_on_c, 1, 63, 69
4, 432, Note_on_c, 1, 56, 69
4, 479, Note_on_c, 1, 63, 0
4, 479, Note_on_c, 1, 56, 0
4, 480, Note_on_c, 1, 63, 69
4, 480, Note_on_c, 1, 56, 69
4, 527, Note_on_c, 1, 63, 0
4, 527, Note_on_c, 1, 56, 0
4, 528, Note_on_c, 1, 63, 69
4, 528, Note_on_c, 1, 56, 69
4, 575, Note_on_c, 1, 63, 0
4, 575, Note_on_c, 1, 56, 0
4, 624, Note_on_c, 1, 65, 69
4, 624, Note_on_c, 1, 61, 69
4, 671, Note_on_c, 1, 65, 0
4, 671, Note_on_c, 1, 61, 0
4, 672, Note_on_c, 1, 65, 69
4, 672, Note_on_c, 1, 61, 69
4, 719, Note_on_c, 1, 65, 0
4, 719, Note_on_c, 1, 61, 0
4, 720, Note_on_c, 1, 65, 69
4, 720, Note_on_c, 1, 61, 69
4, 767, Note_on_c, 1, 65, 0
4, 767, Note_on_c, 1, 61, 0
4, 816, Note_on_c, 1, 63, 69
4, 816, Note_on_c, 1, 60, 69
4, 863, Note_on_c, 1, 63, 0
4, 863, Note_on_c, 1, 60, 0
4, 864, Note_on_c, 1, 63, 69
4, 864, Note_on_c, 1, 60, 69
4, 911, Note_on_c, 1, 63, 0
4, 911, Note_on_c, 1, 60, 0
4, 912, Note_on_c, 1, 63, 69
4, 912, Note_on_c, 1, 60, 69
4, 959, Note_on_c, 1, 63, 0
4, 959, Note_on_c, 1, 60, 0
4, 960, Note_on_c, 1, 63, 69
4, 960, Note_on_c, 1, 60, 69
4, 1068, Note_on_c, 1, 63, 0
4, 1068, Note_on_c, 1, 60, 0
4, 1392, Note_on_c, 1, 56, 69
4, 1392, Note_on_c, 1, 49, 69
4, 1439, Note_on_c, 1, 56, 0
4, 1439, Note_on_c, 1, 49, 0
4, 1440, Note_on_c, 1, 56, 69
4, 1440, Note_on_c, 1, 49, 69
4, 1487, Note_on_c, 1, 56, 0
4, 1487, Note_on_c, 1, 49, 0
4, 1488, Note_on_c, 1, 56, 69
4, 1488, Note_on_c, 1, 49, 69
4, 1535, Note_on_c, 1, 56, 0
4, 1535, Note_on_c, 1, 49, 0
4, 1584, Note_on_c, 1, 51, 69
4, 1584, Note_on_c, 1, 48, 69
4, 1631, Note_on_c, 1, 51, 0
4, 1631, Note_on_c, 1, 48, 0
4, 1632, Note_on_c, 1, 51, 69
4, 1632, Note_on_c, 1, 48, 69
4, 1679, Note_on_c, 1, 51, 0
4, 1679, Note_on_c, 1, 48, 0
4, 1680, Note_on_c, 1, 53, 69
4, 1680, Note_on_c, 1, 49, 69
4, 1727, Note_on_c, 1, 53, 0
4, 1727, Note_on_c, 1, 49, 0
4, 1776, Note_on_c, 1, 60, 69
4, 1776, Note_on_c, 1, 51, 69
4, 1823, Note_on_c, 1, 60, 0
4, 1823, Note_on_c, 1, 51, 0
4, 1824, Note_on_c, 1, 58, 69
4, 1824, Note_on_c, 1, 51, 69
4, 1871, Note_on_c, 1, 58, 0
4, 1871, Note_on_c, 1, 51, 0
4, 1872, Note_on_c, 1, 58, 69
4, 1872, Note_on_c, 1, 51, 69
4, 1919, Note_on_c, 1, 58, 0
4, 1919, Note_on_c, 1, 51, 0
4, 1968, Note_on_c, 1, 56, 69
4, 1968, Note_on_c, 1, 44, 69
4, 2015, Note_on_c, 1, 56, 0
4, 2015, Note_on_c, 1, 44, 0
4, 2016, Note_on_c, 1, 51, 69
4, 2016, Note_on_c, 1, 44, 69
4, 2063, Note_on_c, 1, 51, 0
4, 2063, Note_on_c, 1, 44, 0
4, 2064, Note_on_c, 1, 51, 69
4, 2064, Note_on_c, 1, 44, 69
4, 2111, Note_on_c, 1, 51, 0
4, 2111, Note_on_c, 1, 44, 0
4, 2160, Note_on_c, 1, 56, 69
4, 2160, Note_on_c, 1, 49, 69
4, 2207, Note_on_c, 1, 56, 0
4, 2207, Note_on_c, 1, 49, 0
4, 2208, Note_on_c, 1, 56, 69
4, 2208, Note_on_c, 1, 49, 69
4, 2255, Note_on_c, 1, 56, 0
4, 2255, Note_on_c, 1, 49, 0
4, 2256, Note_on_c, 1, 51, 69
4, 2256, Note_on_c, 1, 49, 69
4, 2303, Note_on_c, 1, 51, 0
4, 2303, Note_on_c, 1, 49, 0
4, 2304, Note_on_c, 1, 51, 69
4, 2304, Note_on_c, 1, 48, 69
4, 2398, Note_on_c, 1, 51, 0
4, 2398, Note_on_c, 1, 48, 0
4, 2688, Note_on_c, 1, 60, 69
4, 2688, Note_on_c, 1, 51, 69
4, 2735, Note_on_c, 1, 60, 0
4, 2735, Note_on_c, 1, 51, 0
4, 2736, Note_on_c, 1, 60, 69
4, 2736, Note_on_c, 1, 51, 69
4, 2783, Note_on_c, 1, 60, 0
4, 2783, Note_on_c, 1, 51, 0
4, 2784, Note_on_c, 1, 58, 69
4, 2784, Note_on_c, 1, 51, 69
4, 2831, Note_on_c, 1, 58, 0
4, 2831, Note_on_c, 1, 51, 0
4, 2832, Note_on_c, 1, 58, 69
4, 2832, Note_on_c, 1, 51, 69
4, 2879, Note_on_c, 1, 58, 0
4, 2879, Note_on_c, 1, 51, 0
4, 2928, Note_on_c, 1, 56, 69
4, 2928, Note_on_c, 1, 44, 69
4, 2973, Note_on_c, 1, 56, 0
4, 2973, Note_on_c, 1, 44, 0
4, 2976, Note_on_c, 1, 51, 69
4, 2976, Note_on_c, 1, 44, 69
4, 3021, Note_on_c, 1, 51, 0
4, 3021, Note_on_c, 1, 44, 0
4, 3024, Note_on_c, 1, 51, 69
4, 3024, Note_on_c, 1, 44, 69
4, 3069, Note_on_c, 1, 51, 0
4, 3069, Note_on_c, 1, 44, 0
4, 3120, Note_on_c, 1, 72, 61
4, 3120, Note_on_c, 1, 68, 61
4, 3167, Note_on_c, 1, 72, 0
4, 3167, Note_on_c, 1, 68, 0
4, 3168, Note_on_c, 1, 72, 61
4, 3168, Note_on_c, 1, 68, 61
4, 3215, Note_on_c, 1, 72, 0
4, 3215, Note_on_c, 1, 68, 0
4, 3216, Note_on_c, 1, 72, 61
4, 3216, Note_on_c, 1, 68, 61
4, 3263, Note_on_c, 1, 72, 0
4, 3263, Note_on_c, 1, 68, 0
4, 3312, Note_on_c, 1, 70, 61
4, 3312, Note_on_c, 1, 67, 61
4, 3359, Note_on_c, 1, 70, 0
4, 3359, Note_on_c, 1, 67, 0
4, 3360, Note_on_c, 1, 70, 61
4, 3360, Note_on_c, 1, 67, 61
4, 3407, Note_on_c, 1, 70, 0
4, 3407, Note_on_c, 1, 67, 0
4, 3408, Note_on_c, 1, 70, 61
4, 3408, Note_on_c, 1, 67, 61
4, 3455, Note_on_c, 1, 70, 0
4, 3455, Note_on_c, 1, 67, 0
4, 3504, Note_on_c, 1, 67, 61
4, 3504, Note_on_c, 1, 64, 61
4, 3551, Note_on_c, 1, 67, 0
4, 3551, Note_on_c, 1, 64, 0
4, 3552, Note_on_c, 1, 67, 61
4, 3552, Note_on_c, 1, 64, 61
4, 3599, Note_on_c, 1, 67, 0
4, 3599, Note_on_c, 1, 64, 0
4, 3600, Note_on_c, 1, 67, 61
4, 3600, Note_on_c, 1, 64, 61
4, 3647, Note_on_c, 1, 67, 0
4, 3647, Note_on_c, 1, 64, 0
4, 3648, Note_on_c, 1, 65, 61
4, 3695, Note_on_c, 1, 65, 0
4, 3888, Note_on_c, 1, 72, 61
4, 3888, Note_on_c, 1, 68, 61
4, 3935, Note_on_c, 1, 72, 0
4, 3935, Note_on_c, 1, 68, 0
4, 3936, Note_on_c, 1, 72, 61
4, 3936, Note_on_c, 1, 68, 61
4, 3983, Note_on_c, 1, 72, 0
4, 3983, Note_on_c, 1, 68, 0
4, 3984, Note_on_c, 1, 72, 61
4, 3984, Note_on_c, 1, 68, 61
4, 4031, Note_on_c, 1, 72, 0
4, 4031, Note_on_c, 1, 68, 0
4, 4080, Note_on_c, 1, 70, 61
4, 4080, Note_on_c, 1, 68, 61
4, 4127, Note_on_c, 1, 70, 0
4, 4127, Note_on_c, 1, 68, 0
4, 4128, Note_on_c, 1, 70, 61
4, 4128, Note_on_c, 1, 68, 61
4, 4175, Note_on_c, 1, 70, 0
4, 4175, Note_on_c, 1, 68, 0
4, 4176, Note_on_c, 1, 70, 61
4, 4176, Note_on_c, 1, 68, 61
4, 4223, Note_on_c, 1, 70, 0
4, 4223, Note_on_c, 1, 68, 0
4, 4224, Note_on_c, 1, 70, 61
4, 4224, Note_on_c, 1, 67, 61
4, 4271, Note_on_c, 1, 70, 0
4, 4271, Note_on_c, 1, 67, 0
4, 4272, Note_on_c, 1, 62, 61
4, 4317, Note_on_c, 1, 62, 0
4, 4320, Note_on_c, 1, 63, 61
4, 4365, Note_on_c, 1, 63, 0
4, 4368, Note_on_c, 1, 57, 61
4, 4413, Note_on_c, 1, 57, 0
4, 4416, Note_on_c, 1, 58, 61
4, 4505, Note_on_c, 1, 58, 0
4, 4608, Note_on_c, 1, 68, 84
4, 4608, Note_on_c, 1, 65, 84
4, 4608, Note_on_c, 1, 58, 84
4, 4697, Note_on_c, 1, 68, 0
4, 4697, Note_on_c, 1, 65, 0
4, 4697, Note_on_c, 1, 58, 0
4, 4704, Note_on_c, 1, 67, 84
4, 4704, Note_on_c, 1, 63, 84
4, 4704, Note_on_c, 1, 58, 84
4, 4793, Note_on_c, 1, 67, 0
4, 4793, Note_on_c, 1, 63, 0
4, 4793, Note_on_c, 1, 58, 0
4, 4800, Note_on_c, 1, 65, 84
4, 4800, Note_on_c, 1, 62, 84
4, 4800, Note_on_c, 1, 58, 84
4, 4889, Note_on_c, 1, 65, 0
4, 4889, Note_on_c, 1, 62, 0
4, 4889, Note_on_c, 1, 58, 0
4, 4992, Note_on_c, 1, 56, 84
4, 4992, Note_on_c, 1, 53, 84
4, 4992, Note_on_c, 1, 46, 84
4, 5081, Note_on_c, 1, 56, 0
4, 5081, Note_on_c, 1, 53, 0
4, 5081, Note_on_c, 1, 46, 0
4, 5088, Note_on_c, 1, 55, 84
4, 5088, Note_on_c, 1, 51, 84
4, 5088, Note_on_c, 1, 46, 84
4, 5177, Note_on_c, 1, 55, 0
4, 5177, Note_on_c, 1, 51, 0
4, 5177, Note_on_c, 1, 46, 0
4, 5184, Note_on_c, 1, 53, 84
4, 5184, Note_on_c, 1, 50, 84
4, 5184, Note_on_c, 1, 46, 84
4, 5273, Note_on_c, 1, 53, 0
4, 5273, Note_on_c, 1, 50, 0
4, 5273, Note_on_c, 1, 46, 0
4, 5392, Note_on_c, 1, 46, 84
4, 5407, Note_on_c, 1, 46, 0
4, 5408, Note_on_c, 1, 34, 84
4, 5423, Note_on_c, 1, 34, 0
4, 5440, Note_on_c, 1, 46, 84
4, 5455, Note_on_c, 1, 46, 0
4, 5456, Note_on_c, 1, 34, 84
4, 5471, Note_on_c, 1, 34, 0
4, 5488, Note_on_c, 1, 46, 84
4, 5503, Note_on_c, 1, 46, 0
4, 5504, Note_on_c, 1, 34, 84
4, 5519, Note_on_c, 1, 34, 0
4, 5536, Note_on_c, 1, 46, 84
4, 5551, Note_on_c, 1, 46, 0
4, 5552, Note_on_c, 1, 34, 84
4, 5567, Note_on_c, 1, 34, 0
4, 5584, Note_on_c, 1, 46, 84
4, 5599, Note_on_c, 1, 46, 0
4, 5600, Note_on_c, 1, 34, 84
4, 5615, Note_on_c, 1, 34, 0
4, 5632, Note_on_c, 1, 46, 84
4, 5647, Note_on_c, 1, 46, 0
4, 5648, Note_on_c, 1, 34, 84
4, 5663, Note_on_c, 1, 34, 0
4, 5680, Note_on_c, 1, 46, 84
4, 5695, Note_on_c, 1, 46, 0
4, 5696, Note_on_c, 1, 34, 84
4, 5711, Note_on_c, 1, 34, 0
4, 5728, Note_on_c, 1, 46, 84
4, 5743, Note_on_c, 1, 46, 0
4, 5744, Note_on_c, 1, 34, 84
4, 5759, Note_on_c, 1, 34, 0
4, 5776, Note_on_c, 1, 46, 84
4, 5791, Note_on_c, 1, 46, 0
4, 5792, Note_on_c, 1, 34, 84
4, 5807, Note_on_c, 1, 34, 0
4, 5824, Note_on_c, 1, 46, 84
4, 5839, Note_on_c, 1, 46, 0
4, 5840, Note_on_c, 1, 34, 84
4, 5855, Note_on_c, 1, 34, 0
4, 5872, Note_on_c, 1, 46, 84
4, 5887, Note_on_c, 1, 46, 0
4, 5888, Note_on_c, 1, 34, 84
4, 5903, Note_on_c, 1, 34, 0
4, 5920, Note_on_c, 1, 46, 85
4, 5935, Note_on_c, 1, 46, 0
4, 5936, Note_on_c, 1, 34, 86
4, 5951, Note_on_c, 1, 34, 0
4, 5968, Note_on_c, 1, 46, 88
4, 5983, Note_on_c, 1, 46, 0
4, 5984, Note_on_c, 1, 34, 89
4, 5999, Note_on_c, 1, 34, 0
4, 6016, Note_on_c, 1, 46, 91
4, 6031, Note_on_c, 1, 46, 0
4, 6032, Note_on_c, 1, 34, 92
4, 6047, Note_on_c, 1, 34, 0
4, 6064, Note_on_c, 1, 46, 95
4, 6079, Note_on_c, 1, 46, 0
4, 6080, Note_on_c, 1, 34, 96
4, 6095, Note_on_c, 1, 34, 0
4, 6112, Note_on_c, 1, 46, 98
4, 6127, Note_on_c, 1, 46, 0
4, 6128, Note_on_c, 1, 34, 99
4, 6143, Note_on_c, 1, 34, 0
4, 6160, Note_on_c, 1, 46, 106
4, 6175, Note_on_c, 1, 46, 0
4, 6176, Note_on_c, 1, 34, 106
4, 6329, Note_on_c, 1, 34, 0
4, 6544, Note_on_c, 1, 63, 69
4, 6559, Note_on_c, 1, 63, 0
4, 6560, Note_on_c, 1, 65, 69
4, 6575, Note_on_c, 1, 65, 0
4, 6576, Note_on_c, 1, 67, 69
4, 6591, Note_on_c, 1, 67, 0
4, 6592, Note_on_c, 1, 65, 69
4, 6607, Note_on_c, 1, 65, 0
4, 6608, Note_on_c, 1, 63, 69
4, 6623, Note_on_c, 1, 63, 0
4, 6624, Note_on_c, 1, 62, 69
4, 6639, Note_on_c, 1, 62, 0
4, 6640, Note_on_c, 1, 65, 69
4, 6655, Note_on_c, 1, 65, 0
4, 6656, Note_on_c, 1, 70, 69
4, 6671, Note_on_c, 1, 70, 0
4, 6672, Note_on_c, 1, 74, 69
4, 6687, Note_on_c, 1, 74, 0
4, 6688, Note_on_c, 1, 72, 69
4, 6703, Note_on_c, 1, 72, 0
4, 6704, Note_on_c, 1, 70, 69
4, 6719, Note_on_c, 1, 70, 0
4, 6720, Note_on_c, 1, 75, 69
4, 6809, Note_on_c, 1, 75, 0
4, 6928, Note_on_c, 1, 63, 61
4, 6943, Note_on_c, 1, 63, 0
4, 6944, Note_on_c, 1, 65, 61
4, 6959, Note_on_c, 1, 65, 0
4, 6960, Note_on_c, 1, 67, 61
4, 6975, Note_on_c, 1, 67, 0
4, 6976, Note_on_c, 1, 65, 61
4, 6991, Note_on_c, 1, 65, 0
4, 6992, Note_on_c, 1, 63, 61
4, 7007, Note_on_c, 1, 63, 0
4, 7008, Note_on_c, 1, 62, 61
4, 7023, Note_on_c, 1, 62, 0
4, 7024, Note_on_c, 1, 65, 61
4, 7039, Note_on_c, 1, 65, 0
4, 7040, Note_on_c, 1, 70, 61
4, 7055, Note_on_c, 1, 70, 0
4, 7056, Note_on_c, 1, 74, 61
4, 7071, Note_on_c, 1, 74, 0
4, 7072, Note_on_c, 1, 72, 61
4, 7087, Note_on_c, 1, 72, 0
4, 7088, Note_on_c, 1, 70, 61
4, 7103, Note_on_c, 1, 70, 0
4, 7104, Note_on_c, 1, 75, 61
4, 7193, Note_on_c, 1, 75, 0
4, 7296, Note_on_c, 1, 65, 69
4, 7296, Note_on_c, 1, 60, 69
4, 7296, Note_on_c, 1, 56, 69
4, 7385, Note_on_c, 1, 65, 0
4, 7385, Note_on_c, 1, 60, 0
4, 7385, Note_on_c, 1, 56, 0
4, 7488, Note_on_c, 1, 68, 69
4, 7488, Note_on_c, 1, 65, 69
4, 7488, Note_on_c, 1, 58, 69
4, 7577, Note_on_c, 1, 68, 0
4, 7577, Note_on_c, 1, 65, 0
4, 7577, Note_on_c, 1, 58, 0
4, 7680, Note_on_c, 1, 56, 75
4, 7725, Note_on_c, 1, 56, 0
4, 7728, Note_on_c, 1, 55, 75
4, 7773, Note_on_c, 1, 55, 0
4, 7776, Note_on_c, 1, 53, 75
4, 7821, Note_on_c, 1, 53, 0
4, 7824, Note_on_c, 1, 51, 75
4, 7869, Note_on_c, 1, 51, 0
4, 7872, Note_on_c, 1, 56, 75
4, 7917, Note_on_c, 1, 56, 0
4, 7920, Note_on_c, 1, 55, 75
4, 7965, Note_on_c, 1, 55, 0
4, 7968, Note_on_c, 1, 53, 75
4, 8013, Note_on_c, 1, 53, 0
4, 8016, Note_on_c, 1, 51, 75
4, 8061, Note_on_c, 1, 51, 0
4, 8064, Note_on_c, 1, 44, 75
4, 8068, Note_on_c, 1, 48, 75
4, 8072, Note_on_c, 1, 53, 75
4, 8425, Note_on_c, 1, 53, 0
4, 8425, Note_on_c, 1, 48, 0
4, 8425, Note_on_c, 1, 44, 0
4, 8448, Note_on_c, 1, 68, 84
4, 8448, Note_on_c, 1, 65, 84
4, 8448, Note_on_c, 1, 58, 84
4, 8825, Note_on_c, 1, 68, 0
4, 8825, Note_on_c, 1, 65, 0
4, 8825, Note_on_c, 1, 58, 0
4, 8880, Note_on_c, 1, 58, 61
4, 8880, Note_on_c, 1, 55, 61
4, 8927, Note_on_c, 1, 58, 0
4, 8927, Note_on_c, 1, 55, 0
4, 8928, Note_on_c, 1, 58, 61
4, 8928, Note_on_c, 1, 55, 61
4, 8975, Note_on_c, 1, 58, 0
4, 8975, Note_on_c, 1, 55, 0
4, 8976, Note_on_c, 1, 58, 61
4, 8976, Note_on_c, 1, 55, 61
4, 9023, Note_on_c, 1, 58, 0
4, 9023, Note_on_c, 1, 55, 0
4, 9072, Note_on_c, 1, 60, 61
4, 9072, Note_on_c, 1, 56, 61
4, 9119, Note_on_c, 1, 60, 0
4, 9119, Note_on_c, 1, 56, 0
4, 9120, Note_on_c, 1, 60, 61
4, 9120, Note_on_c, 1, 56, 61
4, 9167, Note_on_c, 1, 60, 0
4, 9167, Note_on_c, 1, 56, 0
4, 9168, Note_on_c, 1, 60, 61
4, 9168, Note_on_c, 1, 56, 61
4, 9215, Note_on_c, 1, 60, 0
4, 9215, Note_on_c, 1, 56, 0
4, 9264, Note_on_c, 1, 51, 75
4, 9264, Note_on_c, 1, 43, 75
4, 9311, Note_on_c, 1, 51, 0
4, 9311, Note_on_c, 1, 43, 0
4, 9312, Note_on_c, 1, 51, 75
4, 9312, Note_on_c, 1, 43, 75
4, 9359, Note_on_c, 1, 51, 0
4, 9359, Note_on_c, 1, 43, 0
4, 9360, Note_on_c, 1, 51, 75
4, 9360, Note_on_c, 1, 43, 75
4, 9407, Note_on_c, 1, 51, 0
4, 9407, Note_on_c, 1, 43, 0
4, 9408, Note_on_c, 1, 51, 75
4, 9408, Note_on_c, 1, 44, 75
4, 9502, Note_on_c, 1, 51, 0
4, 9502, Note_on_c, 1, 44, 0
4, 10032, Note_on_c, 1, 55, 75
4, 10032, Note_on_c, 1, 46, 75
4, 10079, Note_on_c, 1, 55, 0
4, 10079, Note_on_c, 1, 46, 0
4, 10080, Note_on_c, 1, 55, 75
4, 10080, Note_on_c, 1, 46, 75
4, 10127, Note_on_c, 1, 55, 0
4, 10127, Note_on_c, 1, 46, 0
4, 10128, Note_on_c, 1, 55, 75
4, 10128, Note_on_c, 1, 46, 75
4, 10175, Note_on_c, 1, 55, 0
4, 10175, Note_on_c, 1, 46, 0
4, 10224, Note_on_c, 1, 55, 75
4, 10224, Note_on_c, 1, 46, 75
4, 10271, Note_on_c, 1, 55, 0
4, 10271, Note_on_c, 1, 46, 0
4, 10272, Note_on_c, 1, 53, 75
4, 10272, Note_on_c, 1, 46, 75
4, 10319, Note_on_c, 1, 53, 0
4, 10319, Note_on_c, 1, 46, 0
4, 10320, Note_on_c, 1, 53, 75
4, 10320, Note_on_c, 1, 46, 75
4, 10367, Note_on_c, 1, 53, 0
4, 10367, Note_on_c, 1, 46, 0
4, 10368, Note_on_c, 1, 51, 75
4, 10457, Note_on_c, 1, 51, 0
4, 10464, Note_on_c, 1, 55, 75
4, 10553, Note_on_c, 1, 55, 0
4, 10560, Note_on_c, 1, 56, 75
4, 10649, Note_on_c, 1, 56, 0
4, 10656, Note_on_c, 1, 44, 75
4, 10745, Note_on_c, 1, 44, 0
4, 11184, Note_on_c, 1, 53, 75
4, 11184, Note_on_c, 1, 44, 75
4, 11231, Note_on_c, 1, 53, 0
4, 11231, Note_on_c, 1, 44, 0
4, 11232, Note_on_c, 1, 53, 75
4, 11232, Note_on_c, 1, 44, 75
4, 11279, Note_on_c, 1, 53, 0
4, 11279, Note_on_c, 1, 44, 0
4, 11280, Note_on_c, 1, 53, 75
4, 11280, Note_on_c, 1, 44, 75
4, 11327, Note_on_c, 1, 53, 0
4, 11327, Note_on_c, 1, 44, 0
4, 11328, Note_on_c, 1, 51, 75
4, 11328, Note_on_c, 1, 46, 75
4, 11422, Note_on_c, 1, 51, 0
4, 11422, Note_on_c, 1, 46, 0
4, 11568, Note_on_c, 1, 54, 61
4, 11568, Note_on_c, 1, 46, 61
4, 11615, Note_on_c, 1, 54, 0
4, 11615, Note_on_c, 1, 46, 0
4, 11616, Note_on_c, 1, 54, 61
4, 11616, Note_on_c, 1, 46, 61
4, 11663, Note_on_c, 1, 54, 0
4, 11663, Note_on_c, 1, 46, 0
4, 11664, Note_on_c, 1, 54, 61
4, 11664, Note_on_c, 1, 46, 61
4, 11711, Note_on_c, 1, 54, 0
4, 11711, Note_on_c, 1, 46, 0
4, 11760, Note_on_c, 1, 54, 61
4, 11760, Note_on_c, 1, 47, 61
4, 11807, Note_on_c, 1, 54, 0
4, 11807, Note_on_c, 1, 47, 0
4, 11808, Note_on_c, 1, 54, 61
4, 11808, Note_on_c, 1, 47, 61
4, 11855, Note_on_c, 1, 54, 0
4, 11855, Note_on_c, 1, 47, 0
4, 11856, Note_on_c, 1, 54, 61
4, 11856, Note_on_c, 1, 47, 61
4, 11903, Note_on_c, 1, 54, 0
4, 11903, Note_on_c, 1, 47, 0
4, 11952, Note_on_c, 1, 53, 61
4, 11952, Note_on_c, 1, 50, 61
4, 11999, Note_on_c, 1, 53, 0
4, 11999, Note_on_c, 1, 50, 0
4, 12000, Note_on_c, 1, 53, 61
4, 12000, Note_on_c, 1, 50, 61
4, 12047, Note_on_c, 1, 53, 0
4, 12047, Note_on_c, 1, 50, 0
4, 12048, Note_on_c, 1, 53, 61
4, 12048, Note_on_c, 1, 50, 61
4, 12095, Note_on_c, 1, 53, 0
4, 12095, Note_on_c, 1, 50, 0
4, 12096, Note_on_c, 1, 51, 77
4, 12192, Note_on_c, 1, 51, 0
4, 12240, Note_on_c, 1, 53, 77
4, 12240, Note_on_c, 1, 46, 77
4, 12288, Note_on_c, 1, 53, 0
4, 12288, Note_on_c, 1, 46, 0
4, 12288, Note_on_c, 1, 51, 77
4, 12384, Note_on_c, 1, 51, 0
4, 12432, Note_on_c, 1, 53, 88
4, 12432, Note_on_c, 1, 46, 88
4, 12480, Note_on_c, 1, 53, 0
4, 12480, Note_on_c, 1, 46, 0
4, 12480, Note_on_c, 1, 51, 92
4, 12576, Note_on_c, 1, 51, 0
4, 12672, Note_on_c, 1, 48, 100
4, 12672, Note_on_c, 1, 44, 100
4, 12768, Note_on_c, 1, 48, 0
4, 12768, Note_on_c, 1, 44, 0
4, 12864, Note_on_c, 1, 55, 84
4, 12864, Note_on_c, 1, 46, 84
4, 12911, Note_on_c, 1, 55, 0
4, 12911, Note_on_c, 1, 46, 0
4, 12912, Note_on_c, 1, 55, 78
4, 12912, Note_on_c, 1, 46, 78
4, 12959, Note_on_c, 1, 55, 0
4, 12959, Note_on_c, 1, 46, 0
4, 12960, Note_on_c, 1, 50, 72
4, 12960, Note_on_c, 1, 46, 72
4, 13007, Note_on_c, 1, 50, 0
4, 13007, Note_on_c, 1, 46, 0
4, 13008, Note_on_c, 1, 50, 66
4, 13008, Note_on_c, 1, 46, 66
4, 13055, Note_on_c, 1, 50, 0
4, 13055, Note_on_c, 1, 46, 0
4, 13056, Note_on_c, 1, 51, 77
4, 13152, Note_on_c, 1, 51, 0
4, 13200, Note_on_c, 1, 53, 77
4, 13200, Note_on_c, 1, 46, 77
4, 13248, Note_on_c, 1, 53, 0
4, 13248, Note_on_c, 1, 46, 0
4, 13248, Note_on_c, 1, 51, 77
4, 13344, Note_on_c, 1, 51, 0
4, 13392, Note_on_c, 1, 53, 88
4, 13392, Note_on_c, 1, 46, 88
4, 13440, Note_on_c, 1, 53, 0
4, 13440, Note_on_c, 1, 46, 0
4, 13440, Note_on_c, 1, 51, 92
4, 13536, Note_on_c, 1, 51, 0
4, 13632, Note_on_c, 1, 48, 84
4, 13632, Note_on_c, 1, 44, 84
4, 13721, Note_on_c, 1, 48, 0
4, 13721, Note_on_c, 1, 44, 0
4, 13824, Note_on_c, 1, 55, 84
4, 13824, Note_on_c, 1, 46, 84
4, 13871, Note_on_c, 1, 55, 0
4, 13871, Note_on_c, 1, 46, 0
4, 13872, Note_on_c, 1, 55, 84
4, 13872, Note_on_c, 1, 46, 84
4, 13919, Note_on_c, 1, 55, 0
4, 13919, Note_on_c, 1, 46, 0
4, 13920, Note_on_c, 1, 50, 81
4, 13920, Note_on_c, 1, 46, 81
4, 13967, Note_on_c, 1, 50, 0
4, 13967, Note_on_c, 1, 46, 0
4, 13968, Note_on_c, 1, 50, 79
4, 13968, Note_on_c, 1, 46, 79
4, 14015, Note_on_c, 1, 50, 0
4, 14015, Note_on_c, 1, 46, 0
4, 14016, Note_on_c, 1, 51, 92
4, 14112, Note_on_c, 1, 51, 0
4, 14112, Note_on_c, 1, 53, 71
4, 14112, Note_on_c, 1, 44, 71
4, 14157, Note_on_c, 1, 53, 0
4, 14157, Note_on_c, 1, 44, 0
4, 14160, Note_on_c, 1, 56, 69
4, 14160, Note_on_c, 1, 46, 69
4, 14205, Note_on_c, 1, 56, 0
4, 14205, Note_on_c, 1, 46, 0
4, 14208, Note_on_c, 1, 55, 69
4, 14208, Note_on_c, 1, 51, 69
4, 14253, Note_on_c, 1, 55, 0
4, 14253, Note_on_c, 1, 51, 0
4, 14304, Note_on_c, 1, 53, 61
4, 14304, Note_on_c, 1, 44, 61
4, 14349, Note_on_c, 1, 53, 0
4, 14349, Note_on_c, 1, 44, 0
4, 14352, Note_on_c, 1, 56, 61
4, 14352, Note_on_c, 1, 46, 61
4, 14397, Note_on_c, 1, 56, 0
4, 14397, Note_on_c, 1, 46, 0
4, 14400, Note_on_c, 1, 55, 61
4, 14400, Note_on_c, 1, 51, 61
4, 14467, Note_on_c, 1, 55, 0
4, 14467, Note_on_c, 1, 51, 0
4, 14640, Note_on_c, 1, 60, 69
4, 14640, Note_on_c, 1, 56, 69
4, 14687, Note_on_c, 1, 60, 0
4, 14687, Note_on_c, 1, 56, 0
4, 14688, Note_on_c, 1, 60, 69
4, 14688, Note_on_c, 1, 56, 69
4, 14735, Note_on_c, 1, 60, 0
4, 14735, Note_on_c, 1, 56, 0
4, 14736, Note_on_c, 1, 60, 69
4, 14736, Note_on_c, 1, 56, 69
4, 14783, Note_on_c, 1, 60, 0
4, 14783, Note_on_c, 1, 56, 0
4, 14832, Note_on_c, 1, 58, 69
4, 14832, Note_on_c, 1, 55, 69
4, 14879, Note_on_c, 1, 58, 0
4, 14879, Note_on_c, 1, 55, 0
4, 14880, Note_on_c, 1, 58, 69
4, 14880, Note_on_c, 1, 55, 69
4, 14927, Note_on_c, 1, 58, 0
4, 14927, Note_on_c, 1, 55, 0
4, 14928, Note_on_c, 1, 58, 69
4, 14928, Note_on_c, 1, 55, 69
4, 14975, Note_on_c, 1, 58, 0
4, 14975, Note_on_c, 1, 55, 0
4, 15024, Note_on_c, 1, 63, 69
4, 15024, Note_on_c, 1, 56, 69
4, 15071, Note_on_c, 1, 63, 0
4, 15071, Note_on_c, 1, 56, 0
4, 15072, Note_on_c, 1, 63, 69
4, 15072, Note_on_c, 1, 56, 69
4, 15119, Note_on_c, 1, 63, 0
4, 15119, Note_on_c, 1, 56, 0
4, 15120, Note_on_c, 1, 63, 69
4, 15120, Note_on_c, 1, 56, 69
4, 15167, Note_on_c, 1, 63, 0
4, 15167, Note_on_c, 1, 56, 0
4, 15216, Note_on_c, 1, 65, 69
4, 15216, Note_on_c, 1, 61, 69
4, 15263, Note_on_c, 1, 65, 0
4, 15263, Note_on_c, 1, 61, 0
4, 15264, Note_on_c, 1, 65, 69
4, 15264, Note_on_c, 1, 61, 69
4, 15311, Note_on_c, 1, 65, 0
4, 15311, Note_on_c, 1, 61, 0
4, 15312, Note_on_c, 1, 65, 69
4, 15312, Note_on_c, 1, 61, 69
4, 15359, Note_on_c, 1, 65, 0
4, 15359, Note_on_c, 1, 61, 0
4, 15408, Note_on_c, 1, 63, 69
4, 15408, Note_on_c, 1, 60, 69
4, 15455, Note_on_c, 1, 63, 0
4, 15455, Note_on_c, 1, 60, 0
4, 15456, Note_on_c, 1, 63, 69
4, 15456, Note_on_c, 1, 60, 69
4, 15503, Note_on_c, 1, 63, 0
4, 15503, Note_on_c, 1, 60, 0
4, 15504, Note_on_c, 1, 63, 69
4, 15504, Note_on_c, 1, 60, 69
4, 15551, Note_on_c, 1, 63, 0
4, 15551, Note_on_c, 1, 60, 0
4, 15552, Note_on_c, 1, 63, 69
4, 15552, Note_on_c, 1, 60, 69
4, 15660, Note_on_c, 1, 63, 0
4, 15660, Note_on_c, 1, 60, 0
4, 15984, Note_on_c, 1, 56, 69
4, 15984, Note_on_c, 1, 49, 69
4, 16031, Note_on_c, 1, 56, 0
4, 16031, Note_on_c, 1, 49, 0
4, 16032, Note_on_c, 1, 56, 69
4, 16032, Note_on_c, 1, 49, 69
4, 16079, Note_on_c, 1, 56, 0
4, 16079, Note_on_c, 1, 49, 0
4, 16080, Note_on_c, 1, 56, 69
4, 16080, Note_on_c, 1, 49, 69
4, 16127, Note_on_c, 1, 56, 0
4, 16127, Note_on_c, 1, 49, 0
4, 16176, Note_on_c, 1, 51, 69
4, 16176, Note_on_c, 1, 48, 69
4, 16223, Note_on_c, 1, 51, 0
4, 16223, Note_on_c, 1, 48, 0
4, 16224, Note_on_c, 1, 51, 69
4, 16224, Note_on_c, 1, 48, 69
4, 16271, Note_on_c, 1, 51, 0
4, 16271, Note_on_c, 1, 48, 0
4, 16272, Note_on_c, 1, 53, 69
4, 16272, Note_on_c, 1, 49, 69
4, 16319, Note_on_c, 1, 53, 0
4, 16319, Note_on_c, 1, 49, 0
4, 16368, Note_on_c, 1, 60, 69
4, 16368, Note_on_c, 1, 51, 69
4, 16415, Note_on_c, 1, 60, 0
4, 16415, Note_on_c, 1, 51, 0
4, 16416, Note_on_c, 1, 58, 69
4, 16416, Note_on_c, 1, 51, 69
4, 16463, Note_on_c, 1, 58, 0
4, 16463, Note_on_c, 1, 51, 0
4, 16464, Note_on_c, 1, 58, 69
4, 16464, Note_on_c, 1, 51, 69
4, 16511, Note_on_c, 1, 58, 0
4, 16511, Note_on_c, 1, 51, 0
4, 16560, Note_on_c, 1, 56, 69
4, 16560, Note_on_c, 1, 44, 69
4, 16607, Note_on_c, 1, 56, 0
4, 16607, Note_on_c, 1, 44, 0
4, 16608, Note_on_c, 1, 51, 69
4, 16608, Note_on_c, 1, 44, 69
4, 16655, Note_on_c, 1, 51, 0
4, 16655, Note_on_c, 1, 44, 0
4, 16656, Note_on_c, 1, 51, 69
4, 16656, Note_on_c, 1, 44, 69
4, 16703, Note_on_c, 1, 51, 0
4, 16703, Note_on_c, 1, 44, 0
4, 16752, Note_on_c, 1, 56, 69
4, 16752, Note_on_c, 1, 49, 69
4, 16799, Note_on_c, 1, 56, 0
4, 16799, Note_on_c, 1, 49, 0
4, 16800, Note_on_c, 1, 56, 69
4, 16800, Note_on_c, 1, 49, 69
4, 16847, Note_on_c, 1, 56, 0
4, 16847, Note_on_c, 1, 49, 0
4, 16848, Note_on_c, 1, 51, 69
4, 16848, Note_on_c, 1, 49, 69
4, 16895, Note_on_c, 1, 51, 0
4, 16895, Note_on_c, 1, 49, 0
4, 16896, Note_on_c, 1, 51, 69
4, 16896, Note_on_c, 1, 48, 69
4, 16990, Note_on_c, 1, 51, 0
4, 16990, Note_on_c, 1, 48, 0
4, 17280, Note_on_c, 1, 60, 69
4, 17280, Note_on_c, 1, 51, 69
4, 17327, Note_on_c, 1, 60, 0
4, 17327, Note_on_c, 1, 51, 0
4, 17328, Note_on_c, 1, 60, 69
4, 17328, Note_on_c, 1, 51, 69
4, 17375, Note_on_c, 1, 60, 0
4, 17375, Note_on_c, 1, 51, 0
4, 17376, Note_on_c, 1, 58, 69
4, 17376, Note_on_c, 1, 51, 69
4, 17423, Note_on_c, 1, 58, 0
4, 17423, Note_on_c, 1, 51, 0
4, 17424, Note_on_c, 1, 58, 69
4, 17424, Note_on_c, 1, 51, 69
4, 17471, Note_on_c, 1, 58, 0
4, 17471, Note_on_c, 1, 51, 0
4, 17520, Note_on_c, 1, 56, 69
4, 17520, Note_on_c, 1, 44, 69
4, 17565, Note_on_c, 1, 56, 0
4, 17565, Note_on_c, 1, 44, 0
4, 17568, Note_on_c, 1, 51, 69
4, 17568, Note_on_c, 1, 44, 69
4, 17613, Note_on_c, 1, 51, 0
4, 17613, Note_on_c, 1, 44, 0
4, 17616, Note_on_c, 1, 51, 69
4, 17616, Note_on_c, 1, 44, 69
4, 17661, Note_on_c, 1, 51, 0
4, 17661, Note_on_c, 1, 44, 0
4, 17712, Note_on_c, 1, 72, 61
4, 17712, Note_on_c, 1, 68, 61
4, 17759, Note_on_c, 1, 72, 0
4, 17759, Note_on_c, 1, 68, 0
4, 17760, Note_on_c, 1, 72, 61
4, 17760, Note_on_c, 1, 68, 61
4, 17807, Note_on_c, 1, 72, 0
4, 17807, Note_on_c, 1, 68, 0
4, 17808, Note_on_c, 1, 72, 61
4, 17808, Note_on_c, 1, 68, 61
4, 17855, Note_on_c, 1, 72, 0
4, 17855, Note_on_c, 1, 68, 0
4, 17904, Note_on_c, 1, 70, 61
4, 17904, Note_on_c, 1, 67, 61
4, 17951, Note_on_c, 1, 70, 0
4, 17951, Note_on_c, 1, 67, 0
4, 17952, Note_on_c, 1, 70, 61
4, 17952, Note_on_c, 1, 67, 61
4, 17999, Note_on_c, 1, 70, 0
4, 17999, Note_on_c, 1, 67, 0
4, 18000, Note_on_c, 1, 70, 61
4, 18000, Note_on_c, 1, 67, 61
4, 18047, Note_on_c, 1, 70, 0
4, 18047, Note_on_c, 1, 67, 0
4, 18096, Note_on_c, 1, 67, 61
4, 18096, Note_on_c, 1, 64, 61
4, 18143, Note_on_c, 1, 67, 0
4, 18143, Note_on_c, 1, 64, 0
4, 18144, Note_on_c, 1, 67, 61
4, 18144, Note_on_c, 1, 64, 61
4, 18191, Note_on_c, 1, 67, 0
4, 18191, Note_on_c, 1, 64, 0
4, 18192, Note_on_c, 1, 67, 61
4, 18192, Note_on_c, 1, 64, 61
4, 18239, Note_on_c, 1, 67, 0
4, 18239, Note_on_c, 1, 64, 0
4, 18240, Note_on_c, 1, 65, 61
4, 18287, Note_on_c, 1, 65, 0
4, 18480, Note_on_c, 1, 72, 61
4, 18480, Note_on_c, 1, 68, 61
4, 18527, Note_on_c, 1, 72, 0
4, 18527, Note_on_c, 1, 68, 0
4, 18528, Note_on_c, 1, 72, 61
4, 18528, Note_on_c, 1, 68, 61
4, 18575, Note_on_c, 1, 72, 0
4, 18575, Note_on_c, 1, 68, 0
4, 18576, Note_on_c, 1, 72, 61
4, 18576, Note_on_c, 1, 68, 61
4, 18623, Note_on_c, 1, 72, 0
4, 18623, Note_on_c, 1, 68, 0
4, 18672, Note_on_c, 1, 70, 61
4, 18672, Note_on_c, 1, 68, 61
4, 18719, Note_on_c, 1, 70, 0
4, 18719, Note_on_c, 1, 68, 0
4, 18720, Note_on_c, 1, 70, 61
4, 18720, Note_on_c, 1, 68, 61
4, 18767, Note_on_c, 1, 70, 0
4, 18767, Note_on_c, 1, 68, 0
4, 18768, Note_on_c, 1, 70, 61
4, 18768, Note_on_c, 1, 68, 61
4, 18815, Note_on_c, 1, 70, 0
4, 18815, Note_on_c, 1, 68, 0
4, 18816, Note_on_c, 1, 70, 61
4, 18816, Note_on_c, 1, 67, 61
4, 18863, Note_on_c, 1, 70, 0
4, 18863, Note_on_c, 1, 67, 0
4, 18864, Note_on_c, 1, 62, 61
4, 18909, Note_on_c, 1, 62, 0
4, 18912, Note_on_c, 1, 63, 61
4, 18957, Note_on_c, 1, 63, 0
4, 18960, Note_on_c, 1, 57, 61
4, 19005, Note_on_c, 1, 57, 0
4, 19008, Note_on_c, 1, 58, 61
4, 19097, Note_on_c, 1, 58, 0
4, 19200, Note_on_c, 1, 68, 84
4, 19200, Note_on_c, 1, 65, 84
4, 19200, Note_on_c, 1, 58, 84
4, 19289, Note_on_c, 1, 68, 0
4, 19289, Note_on_c, 1, 65, 0
4, 19289, Note_on_c, 1, 58, 0
4, 19296, Note_on_c, 1, 67, 84
4, 19296, Note_on_c, 1, 63, 84
4, 19296, Note_on_c, 1, 58, 84
4, 19385, Note_on_c, 1, 67, 0
4, 19385, Note_on_c, 1, 63, 0
4, 19385, Note_on_c, 1, 58, 0
4, 19392, Note_on_c, 1, 65, 84
4, 19392, Note_on_c, 1, 62, 84
4, 19392, Note_on_c, 1, 58, 84
4, 19481, Note_on_c, 1, 65, 0
4, 19481, Note_on_c, 1, 62, 0
4, 19481, Note_on_c, 1, 58, 0
4, 19584, Note_on_c, 1, 56, 84
4, 19584, Note_on_c, 1, 53, 84
4, 19584, Note_on_c, 1, 46, 84
4, 19673, Note_on_c, 1, 56, 0
4, 19673, Note_on_c, 1, 53, 0
4, 19673, Note_on_c, 1, 46, 0
4, 19680, Note_on_c, 1, 55, 84
4, 19680, Note_on_c, 1, 51, 84
4, 19680, Note_on_c, 1, 46, 84
4, 19769, Note_on_c, 1, 55, 0
4, 19769, Note_on_c, 1, 51, 0
4, 19769, Note_on_c, 1, 46, 0
4, 19776, Note_on_c, 1, 53, 84
4, 19776, Note_on_c, 1, 50, 84
4, 19776, Note_on_c, 1, 46, 84
4, 19865, Note_on_c, 1, 53, 0
4, 19865, Note_on_c, 1, 50, 0
4, 19865, Note_on_c, 1, 46, 0
4, 19984, Note_on_c, 1, 46, 84
4, 19999, Note_on_c, 1, 46, 0
4, 20000, Note_on_c, 1, 34, 84
4, 20015, Note_on_c, 1, 34, 0
4, 20032, Note_on_c, 1, 46, 84
4, 20047, Note_on_c, 1, 46, 0
4, 20048, Note_on_c, 1, 34, 84
4, 20063, Note_on_c, 1, 34, 0
4, 20080, Note_on_c, 1, 46, 84
4, 20095, Note_on_c, 1, 46, 0
4, 20096, Note_on_c, 1, 34, 84
4, 20111, Note_on_c, 1, 34, 0
4, 20128, Note_on_c, 1, 46, 84
4, 20143, Note_on_c, 1, 46, 0
4, 20144, Note_on_c, 1, 34, 84
4, 20159, Note_on_c, 1, 34, 0
4, 20176, Note_on_c, 1, 46, 84
4, 20191, Note_on_c, 1, 46, 0
4, 20192, Note_on_c, 1, 34, 84
4, 20207, Note_on_c, 1, 34, 0
4, 20224, Note_on_c, 1, 46, 84
4, 20239, Note_on_c, 1, 46, 0
4, 20240, Note_on_c, 1, 34, 84
4, 20255, Note_on_c, 1, 34, 0
4, 20272, Note_on_c, 1, 46, 84
4, 20287, Note_on_c, 1, 46, 0
4, 20288, Note_on_c, 1, 34, 84
4, 20303, Note_on_c, 1, 34, 0
4, 20320, Note_on_c, 1, 46, 84
4, 20335, Note_on_c, 1, 46, 0
4, 20336, Note_on_c, 1, 34, 84
4, 20351, Note_on_c, 1, 34, 0
4, 20368, Note_on_c, 1, 46, 84
4, 20383, Note_on_c, 1, 46, 0
4, 20384, Note_on_c, 1, 34, 84
4, 20399, Note_on_c, 1, 34, 0
4, 20416, Note_on_c, 1, 46, 84
4, 20431, Note_on_c, 1, 46, 0
4, 20432, Note_on_c, 1, 34, 84
4, 20447, Note_on_c, 1, 34, 0
4, 20464, Note_on_c, 1, 46, 84
4, 20479, Note_on_c, 1, 46, 0
4, 20480, Note_on_c, 1, 34, 84
4, 20495, Note_on_c, 1, 34, 0
4, 20512, Note_on_c, 1, 46, 85
4, 20527, Note_on_c, 1, 46, 0
4, 20528, Note_on_c, 1, 34, 86
4, 20543, Note_on_c, 1, 34, 0
4, 20560, Note_on_c, 1, 46, 88
4, 20575, Note_on_c, 1, 46, 0
4, 20576, Note_on_c, 1, 34, 89
4, 20591, Note_on_c, 1, 34, 0
4, 20608, Note_on_c, 1, 46, 91
4, 20623, Note_on_c, 1, 46, 0
4, 20624, Note_on_c, 1, 34, 92
4, 20639, Note_on_c, 1, 34, 0
4, 20656, Note_on_c, 1, 46, 95
4, 20671, Note_on_c, 1, 46, 0
4, 20672, Note_on_c, 1, 34, 96
4, 20687, Note_on_c, 1, 34, 0
4, 20704, Note_on_c, 1, 46, 98
4, 20719, Note_on_c, 1, 46, 0
4, 20720, Note_on_c, 1, 34, 99
4, 20735, Note_on_c, 1, 34, 0
4, 20752, Note_on_c, 1, 46, 106
4, 20767, Note_on_c, 1, 46, 0
4, 20768, Note_on_c, 1, 34, 106
4, 20921, Note_on_c, 1, 34, 0
4, 21136, Note_on_c, 1, 63, 69
4, 21151, Note_on_c, 1, 63, 0
4, 21152, Note_on_c, 1, 65, 69
4, 21167, Note_on_c, 1, 65, 0
4, 21168, Note_on_c, 1, 67, 69
4, 21183, Note_on_c, 1, 67, 0
4, 21184, Note_on_c, 1, 65, 69
4, 21199, Note_on_c, 1, 65, 0
4, 21200, Note_on_c, 1, 63, 69
4, 21215, Note_on_c, 1, 63, 0
4, 21216, Note_on_c, 1, 62, 69
4, 21231, Note_on_c, 1, 62, 0
4, 21232, Note_on_c, 1, 65, 69
4, 21247, Note_on_c, 1, 65, 0
4, 21248, Note_on_c, 1, 70, 69
4, 21263, Note_on_c, 1, 70, 0
4, 21264, Note_on_c, 1, 74, 69
4, 21279, Note_on_c, 1, 74, 0
4, 21280, Note_on_c, 1, 72, 69
4, 21295, Note_on_c, 1, 72, 0
4, 21296, Note_on_c, 1, 70, 69
4, 21311, Note_on_c, 1, 70, 0
4, 21312, Note_on_c, 1, 75, 69
4, 21401, Note_on_c, 1, 75, 0
4, 21520, Note_on_c, 1, 63, 61
4, 21535, Note_on_c, 1, 63, 0
4, 21536, Note_on_c, 1, 65, 61
4, 21551, Note_on_c, 1, 65, 0
4, 21552, Note_on_c, 1, 67, 61
4, 21567, Note_on_c, 1, 67, 0
4, 21568, Note_on_c, 1, 65, 61
4, 21583, Note_on_c, 1, 65, 0
4, 21584, Note_on_c, 1, 63, 61
4, 21599, Note_on_c, 1, 63, 0
4, 21600, Note_on_c, 1, 62, 61
4, 21615, Note_on_c, 1, 62, 0
4, 21616, Note_on_c, 1, 65, 61
4, 21631, Note_on_c, 1, 65, 0
4, 21632, Note_on_c, 1, 70, 61
4, 21647, Note_on_c, 1, 70, 0
4, 21648, Note_on_c, 1, 74, 61
4, 21663, Note_on_c, 1, 74, 0
4, 21664, Note_on_c, 1, 72, 61
4, 21679, Note_on_c, 1, 72, 0
4, 21680, Note_on_c, 1, 70, 61
4, 21695, Note_on_c, 1, 70, 0
4, 21696, Note_on_c, 1, 75, 61
4, 21785, Note_on_c, 1, 75, 0
4, 21888, Note_on_c, 1, 65, 69
4, 21888, Note_on_c, 1, 60, 69
4, 21888, Note_on_c, 1, 56, 69
4, 21977, Note_on_c, 1, 65, 0
4, 21977, Note_on_c, 1, 60, 0
4, 21977, Note_on_c, 1, 56, 0
4, 22080, Note_on_c, 1, 68, 69
4, 22080, Note_on_c, 1, 65, 69
4, 22080, Note_on_c, 1, 58, 69
4, 22169, Note_on_c, 1, 68, 0
4, 22169, Note_on_c, 1, 65, 0
4, 22169, Note_on_c, 1, 58, 0
4, 22272, Note_on_c, 1, 56, 75
4, 22317, Note_on_c, 1, 56, 0
4, 22320, Note_on_c, 1, 55, 75
4, 22365, Note_on_c, 1, 55, 0
4, 22368, Note_on_c, 1, 53, 75
4, 22413, Note_on_c, 1, 53, 0
4, 22416, Note_on_c, 1, 51, 75
4, 22461, Note_on_c, 1, 51, 0
4, 22464, Note_on_c, 1, 56, 75
4, 22509, Note_on_c, 1, 56, 0
4, 22512, Note_on_c, 1, 55, 75
4, 22557, Note_on_c, 1, 55, 0
4, 22560, Note_on_c, 1, 53, 75
4, 22605, Note_on_c, 1, 53, 0
4, 22608, Note_on_c, 1, 51, 75
4, 22653, Note_on_c, 1, 51, 0
4, 22656, Note_on_c, 1, 44, 75
4, 22660, Note_on_c, 1, 48, 75
4, 22664, Note_on_c, 1, 53, 75
4, 23017, Note_on_c, 1, 53, 0
4, 23017, Note_on_c, 1, 48, 0
4, 23017, Note_on_c, 1, 44, 0
4, 23040, Note_on_c, 1, 68, 84
4, 23040, Note_on_c, 1, 65, 84
4, 23040, Note_on_c, 1, 58, 84
4, 23417, Note_on_c, 1, 68, 0
4, 23417, Note_on_c, 1, 65, 0
4, 23417, Note_on_c, 1, 58, 0
4, 23472, Note_on_c, 1, 58, 61
4, 23472, Note_on_c, 1, 55, 61
4, 23519, Note_on_c, 1, 58, 0
4, 23519, Note_on_c, 1, 55, 0
4, 23520, Note_on_c, 1, 58, 61
4, 23520, Note_on_c, 1, 55, 61
4, 23567, Note_on_c, 1, 58, 0
4, 23567, Note_on_c, 1, 55, 0
4, 23568, Note_on_c, 1, 58, 61
4, 23568, Note_on_c, 1, 55, 61
4, 23615, Note_on_c, 1, 58, 0
4, 23615, Note_on_c, 1, 55, 0
4, 23664, Note_on_c, 1, 60, 61
4, 23664, Note_on_c, 1, 56, 61
4, 23711, Note_on_c, 1, 60, 0
4, 23711, Note_on_c, 1, 56, 0
4, 23712, Note_on_c, 1, 60, 61
4, 23712, Note_on_c, 1, 56, 61
4, 23759, Note_on_c, 1, 60, 0
4, 23759, Note_on_c, 1, 56, 0
4, 23760, Note_on_c, 1, 60, 61
4, 23760, Note_on_c, 1, 56, 61
4, 23807, Note_on_c, 1, 60, 0
4, 23807, Note_on_c, 1, 56, 0
4, 23856, Note_on_c, 1, 51, 75
4, 23856, Note_on_c, 1, 43, 75
4, 23903, Note_on_c, 1, 51, 0
4, 23903, Note_on_c, 1, 43, 0
4, 23904, Note_on_c, 1, 51, 75
4, 23904, Note_on_c, 1, 43, 75
4, 23951, Note_on_c, 1, 51, 0
4, 23951, Note_on_c, 1, 43, 0
4, 23952, Note_on_c, 1, 51, 75
4, 23952, Note_on_c, 1, 43, 75
4, 23999, Note_on_c, 1, 51, 0
4, 23999, Note_on_c, 1, 43, 0
4, 24000, Note_on_c, 1, 51, 75
4, 24000, Note_on_c, 1, 44, 75
4, 24094, Note_on_c, 1, 51, 0
4, 24094, Note_on_c, 1, 44, 0
4, 24624, Note_on_c, 1, 55, 75
4, 24624, Note_on_c, 1, 46, 75
4, 24671, Note_on_c, 1, 55, 0
4, 24671, Note_on_c, 1, 46, 0
4, 24672, Note_on_c, 1, 55, 75
4, 24672, Note_on_c, 1, 46, 75
4, 24719, Note_on_c, 1, 55, 0
4, 24719, Note_on_c, 1, 46, 0
4, 24720, Note_on_c, 1, 55, 75
4, 24720, Note_on_c, 1, 46, 75
4, 24767, Note_on_c, 1, 55, 0
4, 24767, Note_on_c, 1, 46, 0
4, 24816, Note_on_c, 1, 55, 75
4, 24816, Note_on_c, 1, 46, 75
4, 24863, Note_on_c, 1, 55, 0
4, 24863, Note_on_c, 1, 46, 0
4, 24864, Note_on_c, 1, 53, 75
4, 24864, Note_on_c, 1, 46, 75
4, 24911, Note_on_c, 1, 53, 0
4, 24911, Note_on_c, 1, 46, 0
4, 24912, Note_on_c, 1, 53, 75
4, 24912, Note_on_c, 1, 46, 75
4, 24959, Note_on_c, 1, 53, 0
4, 24959, Note_on_c, 1, 46, 0
4, 24960, Note_on_c, 1, 51, 75
4, 25049, Note_on_c, 1, 51, 0
4, 25056, Note_on_c, 1, 55, 75
4, 25145, Note_on_c, 1, 55, 0
4, 25152, Note_on_c, 1, 56, 75
4, 25241, Note_on_c, 1, 56, 0
4, 25248, Note_on_c, 1, 44, 75
4, 25337, Note_on_c, 1, 44, 0
4, 25776, Note_on_c, 1, 53, 75
4, 25776, Note_on_c, 1, 44, 75
4, 25823, Note_on_c, 1, 53, 0
4, 25823, Note_on_c, 1, 44, 0
4, 25824, Note_on_c, 1, 53, 75
4, 25824, Note_on_c, 1, 44, 75
4, 25871, Note_on_c, 1, 53, 0
4, 25871, Note_on_c, 1, 44, 0
4, 25872, Note_on_c, 1, 53, 75
4, 25872, Note_on_c, 1, 44, 75
4, 25919, Note_on_c, 1, 53, 0
4, 25919, Note_on_c, 1, 44, 0
4, 25920, Note_on_c, 1, 51, 75
4, 25920, Note_on_c, 1, 46, 75
4, 26014, Note_on_c, 1, 51, 0
4, 26014, Note_on_c, 1, 46, 0
4, 26160, Note_on_c, 1, 54, 61
4, 26160, Note_on_c, 1, 46, 61
4, 26207, Note_on_c, 1, 54, 0
4, 26207, Note_on_c, 1, 46, 0
4, 26208, Note_on_c, 1, 54, 61
4, 26208, Note_on_c, 1, 46, 61
4, 26255, Note_on_c, 1, 54, 0
4, 26255, Note_on_c, 1, 46, 0
4, 26256, Note_on_c, 1, 54, 61
4, 26256, Note_on_c, 1, 46, 61
4, 26303, Note_on_c, 1, 54, 0
4, 26303, Note_on_c, 1, 46, 0
4, 26352, Note_on_c, 1, 54, 61
4, 26352, Note_on_c, 1, 47, 61
4, 26399, Note_on_c, 1, 54, 0
4, 26399, Note_on_c, 1, 47, 0
4, 26400, Note_on_c, 1, 54, 61
4, 26400, Note_on_c, 1, 47, 61
4, 26447, Note_on_c, 1, 54, 0
4, 26447, Note_on_c, 1, 47, 0
4, 26448, Note_on_c, 1, 54, 61
4, 26448, Note_on_c, 1, 47, 61
4, 26495, Note_on_c, 1, 54, 0
4, 26495, Note_on_c, 1, 47, 0
4, 26544, Note_on_c, 1, 53, 61
4, 26544, Note_on_c, 1, 50, 61
4, 26591, Note_on_c, 1, 53, 0
4, 26591, Note_on_c, 1, 50, 0
4, 26592, Note_on_c, 1, 53, 61
4, 26592, Note_on_c, 1, 50, 61
4, 26639, Note_on_c, 1, 53, 0
4, 26639, Note_on_c, 1, 50, 0
4, 26640, Note_on_c, 1, 53, 61
4, 26640, Note_on_c, 1, 50, 61
4, 26687, Note_on_c, 1, 53, 0
4, 26687, Note_on_c, 1, 50, 0
4, 26688, Note_on_c, 1, 51, 77
4, 26784, Note_on_c, 1, 51, 0
4, 26832, Note_on_c, 1, 53, 77
4, 26832, Note_on_c, 1, 46, 77
4, 26880, Note_on_c, 1, 53, 0
4, 26880, Note_on_c, 1, 46, 0
4, 26880, Note_on_c, 1, 51, 77
4, 26976, Note_on_c, 1, 51, 0
4, 27024, Note_on_c, 1, 53, 88
4, 27024, Note_on_c, 1, 46, 88
4, 27072, Note_on_c, 1, 53, 0
4, 27072, Note_on_c, 1, 46, 0
4, 27072, Note_on_c, 1, 51, 92
4, 27168, Note_on_c, 1, 51, 0
4, 27264, Note_on_c, 1, 48, 100
4, 27264, Note_on_c, 1, 44, 100
4, 27360, Note_on_c, 1, 48, 0
4, 27360, Note_on_c, 1, 44, 0
4, 27456, Note_on_c, 1, 55, 84
4, 27456, Note_on_c, 1, 46, 84
4, 27503, Note_on_c, 1, 55, 0
4, 27503, Note_on_c, 1, 46, 0
4, 27504, Note_on_c, 1, 55, 78
4, 27504, Note_on_c, 1, 46, 78
4, 27551, Note_on_c, 1, 55, 0
4, 27551, Note_on_c, 1, 46, 0
4, 27552, Note_on_c, 1, 50, 72
4, 27552, Note_on_c, 1, 46, 72
4, 27599, Note_on_c, 1, 50, 0
4, 27599, Note_on_c, 1, 46, 0
4, 27600, Note_on_c, 1, 50, 66
4, 27600, Note_on_c, 1, 46, 66
4, 27647, Note_on_c, 1, 50, 0
4, 27647, Note_on_c, 1, 46, 0
4, 27648, Note_on_c, 1, 51, 77
4, 27744, Note_on_c, 1, 51, 0
4, 27792, Note_on_c, 1, 53, 77
4, 27792, Note_on_c, 1, 46, 77
4, 27840, Note_on_c, 1, 53, 0
4, 27840, Note_on_c, 1, 46, 0
4, 27840, Note_on_c, 1, 51, 77
4, 27936, Note_on_c, 1, 51, 0
4, 27984, Note_on_c, 1, 53, 88
4, 27984, Note_on_c, 1, 46, 88
4, 28032, Note_on_c, 1, 53, 0
4, 28032, Note_on_c, 1, 46, 0
4, 28032, Note_on_c, 1, 51, 92
4, 28128, Note_on_c, 1, 51, 0
4, 28224, Note_on_c, 1, 48, 84
4, 28224, Note_on_c, 1, 44, 84
4, 28313, Note_on_c, 1, 48, 0
4, 28313, Note_on_c, 1, 44, 0
4, 28416, Note_on_c, 1, 55, 84
4, 28416, Note_on_c, 1, 46, 84
4, 28463, Note_on_c, 1, 55, 0
4, 28463, Note_on_c, 1, 46, 0
4, 28464, Note_on_c, 1, 55, 84
4, 28464, Note_on_c, 1, 46, 84
4, 28511, Note_on_c, 1, 55, 0
4, 28511, Note_on_c, 1, 46, 0
4, 28512, Note_on_c, 1, 50, 81
4, 28512, Note_on_c, 1, 46, 81
4, 28559, Note_on_c, 1, 50, 0
4, 28559, Note_on_c, 1, 46, 0
4, 28560, Note_on_c, 1, 50, 79
4, 28560, Note_on_c, 1, 46, 79
4, 28607, Note_on_c, 1, 50, 0
4, 28607, Note_on_c, 1, 46, 0
4, 28608, Note_on_c, 1, 51, 92
4, 28704, Note_on_c, 1, 51, 0
4, 28704, Note_on_c, 1, 53, 71
4, 28704, Note_on_c, 1, 44, 71
4, 28749, Note_on_c, 1, 53, 0
4, 28749, Note_on_c, 1, 44, 0
4, 28752, Note_on_c, 1, 56, 69
4, 28752, Note_on_c, 1, 46, 69
4, 28797, Note_on_c, 1, 56, 0
4, 28797, Note_on_c, 1, 46, 0
4, 28800, Note_on_c, 1, 55, 69
4, 28800, Note_on_c, 1, 51, 69
4, 28845, Note_on_c, 1, 55, 0
4, 28845, Note_on_c, 1, 51, 0
4, 28896, Note_on_c, 1, 53, 61
4, 28896, Note_on_c, 1, 44, 61
4, 28941, Note_on_c, 1, 53, 0
4, 28941, Note_on_c, 1, 44, 0
4, 28944, Note_on_c, 1, 56, 61
4, 28944, Note_on_c, 1, 46, 61
4, 28989, Note_on_c, 1, 56, 0
4, 28989, Note_on_c, 1, 46, 0
4, 28992, Note_on_c, 1, 55, 61
4, 28992, Note_on_c, 1, 51, 61
4, 29059, Note_on_c, 1, 55, 0
4, 29059, Note_on_c, 1, 51, 0
4, 29232, Note_on_c, 1, 67, 69
4, 29232, Note_on_c, 1, 63, 69
4, 29279, Note_on_c, 1, 67, 0
4, 29279, Note_on_c, 1, 63, 0
4, 29280, Note_on_c, 1, 67, 69
4, 29280, Note_on_c, 1, 63, 69
4, 29327, Note_on_c, 1, 67, 0
4, 29327, Note_on_c, 1, 63, 0
4, 29328, Note_on_c, 1, 67, 69
4, 29328, Note_on_c, 1, 63, 69
4, 29375, Note_on_c, 1, 67, 0
4, 29375, Note_on_c, 1, 63, 0
4, 29424, Note_on_c, 1, 65, 69
4, 29424, Note_on_c, 1, 62, 69
4, 29471, Note_on_c, 1, 65, 0
4, 29471, Note_on_c, 1, 62, 0
4, 29472, Note_on_c, 1, 65, 69
4, 29472, Note_on_c, 1, 62, 69
4, 29519, Note_on_c, 1, 65, 0
4, 29519, Note_on_c, 1, 62, 0
4, 29520, Note_on_c, 1, 65, 69
4, 29520, Note_on_c, 1, 62, 69
4, 29567, Note_on_c, 1, 65, 0
4, 29567, Note_on_c, 1, 62, 0
4, 29616, Note_on_c, 1, 70, 69
4, 29616, Note_on_c, 1, 63, 69
4, 29663, Note_on_c, 1, 70, 0
4, 29663, Note_on_c, 1, 63, 0
4, 29664, Note_on_c, 1, 70, 69
4, 29664, Note_on_c, 1, 63, 69
4, 29711, Note_on_c, 1, 70, 0
4, 29711, Note_on_c, 1, 63, 0
4, 29712, Note_on_c, 1, 70, 69
4, 29712, Note_on_c, 1, 63, 69
4, 29759, Note_on_c, 1, 70, 0
4, 29759, Note_on_c, 1, 63, 0
4, 29808, Note_on_c, 1, 72, 69
4, 29808, Note_on_c, 1, 68, 69
4, 29855, Note_on_c, 1, 72, 0
4, 29855, Note_on_c, 1, 68, 0
4, 29856, Note_on_c, 1, 72, 69
4, 29856, Note_on_c, 1, 68, 69
4, 29903, Note_on_c, 1, 72, 0
4, 29903, Note_on_c, 1, 68, 0
4, 29904, Note_on_c, 1, 72, 69
4, 29904, Note_on_c, 1, 68, 69
4, 29951, Note_on_c, 1, 72, 0
4, 29951, Note_on_c, 1, 68, 0
4, 30000, Note_on_c, 1, 70, 69
4, 30000, Note_on_c, 1, 67, 69
4, 30047, Note_on_c, 1, 70, 0
4, 30047, Note_on_c, 1, 67, 0
4, 30048, Note_on_c, 1, 70, 69
4, 30048, Note_on_c, 1, 67, 69
4, 30095, Note_on_c, 1, 70, 0
4, 30095, Note_on_c, 1, 67, 0
4, 30096, Note_on_c, 1, 70, 69
4, 30096, Note_on_c, 1, 67, 69
4, 30143, Note_on_c, 1, 70, 0
4, 30143, Note_on_c, 1, 67, 0
4, 30144, Note_on_c, 1, 70, 69
4, 30144, Note_on_c, 1, 67, 69
4, 30252, Note_on_c, 1, 70, 0
4, 30252, Note_on_c, 1, 67, 0
4, 30768, Note_on_c, 1, 68, 69
4, 30768, Note_on_c, 1, 65, 69
4, 30815, Note_on_c, 1, 68, 0
4, 30815, Note_on_c, 1, 65, 0
4, 30816, Note_on_c, 1, 68, 69
4, 30816, Note_on_c, 1, 65, 69
4, 30863, Note_on_c, 1, 68, 0
4, 30863, Note_on_c, 1, 65, 0
4, 30864, Note_on_c, 1, 68, 69
4, 30864, Note_on_c, 1, 65, 69
4, 30911, Note_on_c, 1, 68, 0
4, 30911, Note_on_c, 1, 65, 0
4, 30960, Note_on_c, 1, 67, 69
4, 30960, Note_on_c, 1, 64, 69
4, 31007, Note_on_c, 1, 67, 0
4, 31007, Note_on_c, 1, 64, 0
4, 31008, Note_on_c, 1, 67, 69
4, 31008, Note_on_c, 1, 64, 69
4, 31055, Note_on_c, 1, 67, 0
4, 31055, Note_on_c, 1, 64, 0
4, 31056, Note_on_c, 1, 67, 69
4, 31056, Note_on_c, 1, 64, 69
4, 31103, Note_on_c, 1, 67, 0
4, 31103, Note_on_c, 1, 64, 0
4, 31152, Note_on_c, 1, 72, 69
4, 31152, Note_on_c, 1, 65, 69
4, 31199, Note_on_c, 1, 72, 0
4, 31199, Note_on_c, 1, 65, 0
4, 31200, Note_on_c, 1, 72, 69
4, 31200, Note_on_c, 1, 65, 69
4, 31247, Note_on_c, 1, 72, 0
4, 31247, Note_on_c, 1, 65, 0
4, 31248, Note_on_c, 1, 72, 69
4, 31248, Note_on_c, 1, 65, 69
4, 31295, Note_on_c, 1, 72, 0
4, 31295, Note_on_c, 1, 65, 0
4, 31344, Note_on_c, 1, 73, 69
4, 31344, Note_on_c, 1, 70, 69
4, 31391, Note_on_c, 1, 73, 0
4, 31391, Note_on_c, 1, 70, 0
4, 31392, Note_on_c, 1, 73, 69
4, 31392, Note_on_c, 1, 70, 69
4, 31439, Note_on_c, 1, 73, 0
4, 31439, Note_on_c, 1, 70, 0
4, 31440, Note_on_c, 1, 73, 69
4, 31440, Note_on_c, 1, 70, 69
4, 31487, Note_on_c, 1, 73, 0
4, 31487, Note_on_c, 1, 70, 0
4, 31536, Note_on_c, 1, 72, 69
4, 31536, Note_on_c, 1, 68, 69
4, 31583, Note_on_c, 1, 72, 0
4, 31583, Note_on_c, 1, 68, 0
4, 31584, Note_on_c, 1, 72, 69
4, 31584, Note_on_c, 1, 68, 69
4, 31631, Note_on_c, 1, 72, 0
4, 31631, Note_on_c, 1, 68, 0
4, 31632, Note_on_c, 1, 72, 69
4, 31632, Note_on_c, 1, 68, 69
4, 31679, Note_on_c, 1, 72, 0
4, 31679, Note_on_c, 1, 68, 0
4, 31680, Note_on_c, 1, 72, 69
4, 31680, Note_on_c, 1, 68, 69
4, 31769, Note_on_c, 1, 72, 0
4, 31769, Note_on_c, 1, 68, 0
4, 31888, Note_on_c, 1, 70, 75
4, 31903, Note_on_c, 1, 70, 0
4, 31904, Note_on_c, 1, 72, 75
4, 31919, Note_on_c, 1, 72, 0
4, 31920, Note_on_c, 1, 73, 75
4, 31935, Note_on_c, 1, 73, 0
4, 31936, Note_on_c, 1, 72, 75
4, 31951, Note_on_c, 1, 72, 0
4, 31952, Note_on_c, 1, 70, 75
4, 31967, Note_on_c, 1, 70, 0
4, 31968, Note_on_c, 1, 77, 75
4, 31983, Note_on_c, 1, 77, 0
4, 31984, Note_on_c, 1, 75, 75
4, 31999, Note_on_c, 1, 75, 0
4, 32000, Note_on_c, 1, 73, 75
4, 32015, Note_on_c, 1, 73, 0
4, 32016, Note_on_c, 1, 72, 75
4, 32031, Note_on_c, 1, 72, 0
4, 32032, Note_on_c, 1, 70, 75
4, 32047, Note_on_c, 1, 70, 0
4, 32048, Note_on_c, 1, 68, 75
4, 32063, Note_on_c, 1, 68, 0
4, 32064, Note_on_c, 1, 67, 75
4, 32084, Note_on_c, 1, 67, 0
4, 32112, Note_on_c, 1, 70, 75
4, 32132, Note_on_c, 1, 70, 0
4, 32160, Note_on_c, 1, 63, 75
4, 32180, Note_on_c, 1, 63, 0
4, 32208, Note_on_c, 1, 67, 75
4, 32228, Note_on_c, 1, 67, 0
4, 32272, Note_on_c, 1, 68, 75
4, 32287, Note_on_c, 1, 68, 0
4, 32288, Note_on_c, 1, 70, 75
4, 32303, Note_on_c, 1, 70, 0
4, 32304, Note_on_c, 1, 72, 75
4, 32319, Note_on_c, 1, 72, 0
4, 32320, Note_on_c, 1, 70, 75
4, 32335, Note_on_c, 1, 70, 0
4, 32336, Note_on_c, 1, 68, 75
4, 32351, Note_on_c, 1, 68, 0
4, 32352, Note_on_c, 1, 75, 75
4, 32367, Note_on_c, 1, 75, 0
4, 32368, Note_on_c, 1, 73, 75
4, 32383, Note_on_c, 1, 73, 0
4, 32384, Note_on_c, 1, 72, 75
4, 32399, Note_on_c, 1, 72, 0
4, 32400, Note_on_c, 1, 70, 75
4, 32415, Note_on_c, 1, 70, 0
4, 32416, Note_on_c, 1, 68, 75
4, 32431, Note_on_c, 1, 68, 0
4, 32432, Note_on_c, 1, 67, 75
4, 32447, Note_on_c, 1, 67, 0
4, 32448, Note_on_c, 1, 65, 75
4, 32468, Note_on_c, 1, 65, 0
4, 32496, Note_on_c, 1, 68, 75
4, 32516, Note_on_c, 1, 68, 0
4, 32544, Note_on_c, 1, 61, 75
4, 32564, Note_on_c, 1, 61, 0
4, 32592, Note_on_c, 1, 65, 75
4, 32612, Note_on_c, 1, 65, 0
4, 32656, Note_on_c, 1, 67, 75
4, 32671, Note_on_c, 1, 67, 0
4, 32672, Note_on_c, 1, 68, 75
4, 32687, Note_on_c, 1, 68, 0
4, 32688, Note_on_c, 1, 70, 75
4, 32703, Note_on_c, 1, 70, 0
4, 32704, Note_on_c, 1, 68, 75
4, 32719, Note_on_c, 1, 68, 0
4, 32720, Note_on_c, 1, 67, 75
4, 32735, Note_on_c, 1, 67, 0
4, 32736, Note_on_c, 1, 73, 75
4, 32751, Note_on_c, 1, 73, 0
4, 32752, Note_on_c, 1, 72, 75
4, 32767, Note_on_c, 1, 72, 0
4, 32768, Note_on_c, 1, 70, 75
4, 32783, Note_on_c, 1, 70, 0
4, 32784, Note_on_c, 1, 68, 75
4, 32799, Note_on_c, 1, 68, 0
4, 32800, Note_on_c, 1, 67, 75
4, 32815, Note_on_c, 1, 67, 0
4, 32816, Note_on_c, 1, 65, 75
4, 32831, Note_on_c, 1, 65, 0
4, 32832, Note_on_c, 1, 64, 75
4, 32852, Note_on_c, 1, 64, 0
4, 32880, Note_on_c, 1, 67, 75
4, 32900, Note_on_c, 1, 67, 0
4, 32928, Note_on_c, 1, 60, 75
4, 32948, Note_on_c, 1, 60, 0
4, 32976, Note_on_c, 1, 64, 75
4, 32996, Note_on_c, 1, 64, 0
4, 33040, Note_on_c, 1, 65, 84
4, 33055, Note_on_c, 1, 65, 0
4, 33056, Note_on_c, 1, 53, 84
4, 33071, Note_on_c, 1, 53, 0
4, 33088, Note_on_c, 1, 65, 84
4, 33103, Note_on_c, 1, 65, 0
4, 33104, Note_on_c, 1, 53, 84
4, 33119, Note_on_c, 1, 53, 0
4, 33136, Note_on_c, 1, 65, 84
4, 33151, Note_on_c, 1, 65, 0
4, 33152, Note_on_c, 1, 53, 84
4, 33167, Note_on_c, 1, 53, 0
4, 33184, Note_on_c, 1, 65, 84
4, 33199, Note_on_c, 1, 65, 0
4, 33200, Note_on_c, 1, 53, 84
4, 33215, Note_on_c, 1, 53, 0
4, 33232, Note_on_c, 1, 66, 75
4, 33247, Note_on_c, 1, 66, 0
4, 33248, Note_on_c, 1, 63, 75
4, 33263, Note_on_c, 1, 63, 0
4, 33280, Note_on_c, 1, 66, 75
4, 33295, Note_on_c, 1, 66, 0
4, 33296, Note_on_c, 1, 63, 75
4, 33311, Note_on_c, 1, 63, 0
4, 33328, Note_on_c, 1, 66, 75
4, 33343, Note_on_c, 1, 66, 0
4, 33344, Note_on_c, 1, 63, 75
4, 33359, Note_on_c, 1, 63, 0
4, 33376, Note_on_c, 1, 66, 75
4, 33391, Note_on_c, 1, 66, 0
4, 33392, Note_on_c, 1, 63, 75
4, 33407, Note_on_c, 1, 63, 0
4, 33408, Note_on_c, 1, 65, 84
4, 33408, Note_on_c, 1, 61, 84
4, 33428, Note_on_c, 1, 65, 0
4, 33428, Note_on_c, 1, 61, 0
4, 33456, Note_on_c, 1, 66, 84
4, 33456, Note_on_c, 1, 63, 84
4, 33476, Note_on_c, 1, 66, 0
4, 33476, Note_on_c, 1, 63, 0
4, 33504, Note_on_c, 1, 65, 84
4, 33504, Note_on_c, 1, 61, 84
4, 33524, Note_on_c, 1, 65, 0
4, 33524, Note_on_c, 1, 61, 0
4, 33552, Note_on_c, 1, 63, 84
4, 33552, Note_on_c, 1, 60, 84
4, 33572, Note_on_c, 1, 63, 0
4, 33572, Note_on_c, 1, 60, 0
4, 33600, Note_on_c, 1, 61, 84
4, 33600, Note_on_c, 1, 58, 84
4, 33620, Note_on_c, 1, 61, 0
4, 33620, Note_on_c, 1, 58, 0
4, 33648, Note_on_c, 1, 66, 84
4, 33648, Note_on_c, 1, 63, 84
4, 33668, Note_on_c, 1, 66, 0
4, 33668, Note_on_c, 1, 63, 0
4, 33696, Note_on_c, 1, 65, 84
4, 33696, Note_on_c, 1, 61, 84
4, 33716, Note_on_c, 1, 65, 0
4, 33716, Note_on_c, 1, 61, 0
4, 33744, Note_on_c, 1, 63, 84
4, 33744, Note_on_c, 1, 60, 84
4, 33764, Note_on_c, 1, 63, 0
4, 33764, Note_on_c, 1, 60, 0
4, 33792, Note_on_c, 1, 61, 84
4, 33792, Note_on_c, 1, 58, 84
4, 33812, Note_on_c, 1, 61, 0
4, 33812, Note_on_c, 1, 58, 0
4, 33840, Note_on_c, 1, 60, 84
4, 33840, Note_on_c, 1, 56, 84
4, 33860, Note_on_c, 1, 60, 0
4, 33860, Note_on_c, 1, 56, 0
4, 33888, Note_on_c, 1, 58, 84
4, 33888, Note_on_c, 1, 55, 84
4, 33908, Note_on_c, 1, 58, 0
4, 33908, Note_on_c, 1, 55, 0
4, 33936, Note_on_c, 1, 56, 84
4, 33936, Note_on_c, 1, 53, 84
4, 33956, Note_on_c, 1, 56, 0
4, 33956, Note_on_c, 1, 53, 0
4, 33984, Control_c, 1, 64, 127
4, 33984, Note_on_c, 1, 52, 126
4, 33984, Note_on_c, 1, 40, 126
4, 34031, Note_on_c, 1, 52, 0
4, 34031, Note_on_c, 1, 40, 0
4, 34032, Note_on_c, 1, 55, 84
4, 34052, Note_on_c, 1, 55, 0
4, 34080, Note_on_c, 1, 58, 86
4, 34100, Note_on_c, 1, 58, 0
4, 34128, Note_on_c, 1, 61, 88
4, 34148, Note_on_c, 1, 61, 0
4, 34176, Note_on_c, 1, 64, 107
4, 34196, Note_on_c, 1, 64, 0
4, 34224, Note_on_c, 1, 67, 93
4, 34244, Note_on_c, 1, 67, 0
4, 34272, Note_on_c, 1, 70, 96
4, 34292, Note_on_c, 1, 70, 0
4, 34320, Note_on_c, 1, 73, 98
4, 34340, Note_on_c, 1, 73, 0
4, 34368, Note_on_c, 1, 76, 101
4, 34388, Note_on_c, 1, 76, 0
4, 34416, Note_on_c, 1, 79, 103
4, 34436, Note_on_c, 1, 79, 0
4, 34464, Note_on_c, 1, 76, 106
4, 34484, Note_on_c, 1, 76, 0
4, 34512, Control_c, 1, 64, 0
4, 34512, Note_on_c, 1, 64, 95
4, 34532, Note_on_c, 1, 64, 0
4, 34560, Control_c, 1, 64, 127
4, 34560, Note_on_c, 1, 65, 126
4, 34560, Note_on_c, 1, 53, 126
4, 34607, Note_on_c, 1, 65, 0
4, 34607, Note_on_c, 1, 53, 0
4, 34608, Note_on_c, 1, 69, 84
4, 34628, Note_on_c, 1, 69, 0
4, 34656, Note_on_c, 1, 72, 88
4, 34676, Note_on_c, 1, 72, 0
4, 34704, Note_on_c, 1, 75, 92
4, 34724, Note_on_c, 1, 75, 0
4, 34752, Note_on_c, 1, 78, 97
4, 34772, Note_on_c, 1, 78, 0
4, 34800, Note_on_c, 1, 75, 101
4, 34820, Note_on_c, 1, 75, 0
4, 34848, Note_on_c, 1, 72, 106
4, 34868, Note_on_c, 1, 72, 0
4, 34896, Control_c, 1, 64, 0
4, 34896, Note_on_c, 1, 65, 95
4, 34916, Note_on_c, 1, 65, 0
4, 34944, Control_c, 1, 64, 127
4, 34944, Note_on_c, 1, 58, 126
4, 34944, Note_on_c, 1, 46, 126
4, 34991, Note_on_c, 1, 58, 0
4, 34991, Note_on_c, 1, 46, 0
4, 34992, Note_on_c, 1, 62, 84
4, 35012, Note_on_c, 1, 62, 0
4, 35040, Note_on_c, 1, 65, 88
4, 35060, Note_on_c, 1, 65, 0
4, 35088, Note_on_c, 1, 68, 92
4, 35108, Note_on_c, 1, 68, 0
4, 35136, Note_on_c, 1, 71, 97
4, 35156, Note_on_c, 1, 71, 0
4, 35184, Note_on_c, 1, 68, 101
4, 35204, Note_on_c, 1, 68, 0
4, 35232, Note_on_c, 1, 65, 106
4, 35252, Note_on_c, 1, 65, 0
4, 35280, Control_c, 1, 64, 0
4, 35280, Note_on_c, 1, 58, 95
4, 35300, Note_on_c, 1, 58, 0
4, 35328, Control_c, 1, 64, 127
4, 35328, Note_on_c, 1, 63, 126
4, 35328, Note_on_c, 1, 51, 126
4, 35375, Note_on_c, 1, 63, 0
4, 35375, Note_on_c, 1, 51, 0
4, 35376, Note_on_c, 1, 66, 84
4, 35396, Note_on_c, 1, 66, 0
4, 35424, Note_on_c, 1, 70, 84
4, 35444, Note_on_c, 1, 70, 0
4, 35472, Control_c, 1, 64, 0
4, 35472, Note_on_c, 1, 75, 84
4, 35492, Note_on_c, 1, 75, 0
4, 35536, Note_on_c, 1, 75, 84
4, 35551, Note_on_c, 1, 75, 0
4, 35552, Note_on_c, 1, 63, 84
4, 35567, Note_on_c, 1, 63, 0
4, 35584, Note_on_c, 1, 75, 84
4, 35599, Note_on_c, 1, 75, 0
4, 35600, Note_on_c, 1, 63, 84
4, 35615, Note_on_c, 1, 63, 0
4, 35632, Note_on_c, 1, 75, 84
4, 35647, Note_on_c, 1, 75, 0
4, 35648, Note_on_c, 1, 63, 84
4, 35663, Note_on_c, 1, 63, 0
4, 35680, Note_on_c, 1, 75, 84
4, 35695, Note_on_c, 1, 75, 0
4, 35696, Note_on_c, 1, 63, 84
4, 35711, Note_on_c, 1, 63, 0
4, 35712, Control_c, 1, 64, 127
4, 35712, Note_on_c, 1, 63, 91
4, 35732, Note_on_c, 1, 63, 0
4, 35760, Note_on_c, 1, 66, 75
4, 35780, Note_on_c, 1, 66, 0
4, 35808, Note_on_c, 1, 70, 75
4, 35828, Note_on_c, 1, 70, 0
4, 35856, Control_c, 1, 64, 0
4, 35856, Note_on_c, 1, 75, 75
4, 35876, Note_on_c, 1, 75, 0
4, 35920, Note_on_c, 1, 75, 75
4, 35935, Note_on_c, 1, 75, 0
4, 35936, Note_on_c, 1, 63, 75
4, 35951, Note_on_c, 1, 63, 0
4, 35968, Note_on_c, 1, 75, 75
4, 35983, Note_on_c, 1, 75, 0
4, 35984, Note_on_c, 1, 63, 75
4, 35999, Note_on_c, 1, 63, 0
4, 36016, Note_on_c, 1, 75, 75
4, 36031, Note_on_c, 1, 75, 0
4, 36032, Note_on_c, 1, 63, 75
4, 36047, Note_on_c, 1, 63, 0
4, 36064, Note_on_c, 1, 75, 75
4, 36079, Note_on_c, 1, 75, 0
4, 36080, Note_on_c, 1, 63, 75
4, 36095, Note_on_c, 1, 63, 0
4, 36096, Note_on_c, 1, 63, 75
4, 36116, Note_on_c, 1, 63, 0
4, 36144, Note_on_c, 1, 70, 75
4, 36164, Note_on_c, 1, 70, 0
4, 36192, Note_on_c, 1, 63, 75
4, 36212, Note_on_c, 1, 63, 0
4, 36240, Note_on_c, 1, 70, 75
4, 36260, Note_on_c, 1, 70, 0
4, 36288, Note_on_c, 1, 63, 75
4, 36308, Note_on_c, 1, 63, 0
4, 36336, Note_on_c, 1, 70, 75
4, 36356, Note_on_c, 1, 70, 0
4, 36384, Note_on_c, 1, 63, 75
4, 36404, Note_on_c, 1, 63, 0
4, 36432, Note_on_c, 1, 70, 75
4, 36452, Note_on_c, 1, 70, 0
4, 36480, Note_on_c, 1, 63, 75
4, 36500, Note_on_c, 1, 63, 0
4, 36528, Note_on_c, 1, 68, 75
4, 36548, Note_on_c, 1, 68, 0
4, 36576, Note_on_c, 1, 63, 75
4, 36596, Note_on_c, 1, 63, 0
4, 36624, Note_on_c, 1, 68, 75
4, 36644, Note_on_c, 1, 68, 0
4, 36672, Note_on_c, 1, 63, 75
4, 36692, Note_on_c, 1, 63, 0
4, 36720, Note_on_c, 1, 69, 75
4, 36740, Note_on_c, 1, 69, 0
4, 36768, Note_on_c, 1, 63, 75
4, 36788, Note_on_c, 1, 63, 0
4, 36816, Note_on_c, 1, 69, 75
4, 36836, Note_on_c, 1, 69, 0
4, 36864, Note_on_c, 1, 61, 75
4, 36884, Note_on_c, 1, 61, 0
4, 36912, Note_on_c, 1, 70, 75
4, 36932, Note_on_c, 1, 70, 0
4, 36960, Note_on_c, 1, 61, 75
4, 36980, Note_on_c, 1, 61, 0
4, 37008, Note_on_c, 1, 70, 75
4, 37028, Note_on_c, 1, 70, 0
4, 37056, Note_on_c, 1, 66, 75
4, 37076, Note_on_c, 1, 66, 0
4, 37104, Note_on_c, 1, 70, 75
4, 37124, Note_on_c, 1, 70, 0
4, 37152, Note_on_c, 1, 66, 75
4, 37172, Note_on_c, 1, 66, 0
4, 37200, Note_on_c, 1, 70, 75
4, 37220, Note_on_c, 1, 70, 0
4, 37248, Note_on_c, 1, 65, 75
4, 37268, Note_on_c, 1, 65, 0
4, 37296, Note_on_c, 1, 69, 75
4, 37316, Note_on_c, 1, 69, 0
4, 37344, Note_on_c, 1, 65, 75
4, 37364, Note_on_c, 1, 65, 0
4, 37392, Note_on_c, 1, 69, 75
4, 37412, Note_on_c, 1, 69, 0
4, 37440, Note_on_c, 1, 63, 75
4, 37460, Note_on_c, 1, 63, 0
4, 37488, Note_on_c, 1, 69, 75
4, 37508, Note_on_c, 1, 69, 0
4, 37536, Note_on_c, 1, 63, 75
4, 37556, Note_on_c, 1, 63, 0
4, 37584, Note_on_c, 1, 69, 75
4, 37604, Note_on_c, 1, 69, 0
4, 37632, Note_on_c, 1, 62, 75
4, 37652, Note_on_c, 1, 62, 0
4, 37680, Note_on_c, 1, 70, 75
4, 37700, Note_on_c, 1, 70, 0
4, 37728, Note_on_c, 1, 62, 75
4, 37748, Note_on_c, 1, 62, 0
4, 37776, Note_on_c, 1, 70, 75
4, 37796, Note_on_c, 1, 70, 0
4, 37824, Note_on_c, 1, 61, 75
4, 37844, Note_on_c, 1, 61, 0
4, 37872, Note_on_c, 1, 68, 75
4, 37892, Note_on_c, 1, 68, 0
4, 37920, Note_on_c, 1, 61, 75
4, 37940, Note_on_c, 1, 61, 0
4, 37968, Note_on_c, 1, 68, 75
4, 37988, Note_on_c, 1, 68, 0
4, 38032, Note_on_c, 1, 60, 75
4, 38047, Note_on_c, 1, 60, 0
4, 38048, Note_on_c, 1, 48, 75
4, 38063, Note_on_c, 1, 48, 0
4, 38080, Note_on_c, 1, 60, 75
4, 38095, Note_on_c, 1, 60, 0
4, 38096, Note_on_c, 1, 48, 75
4, 38111, Note_on_c, 1, 48, 0
4, 38128, Note_on_c, 1, 60, 75
4, 38143, Note_on_c, 1, 60, 0
4, 38144, Note_on_c, 1, 48, 75
4, 38159, Note_on_c, 1, 48, 0
4, 38176, Note_on_c, 1, 60, 75
4, 38191, Note_on_c, 1, 60, 0
4, 38192, Note_on_c, 1, 48, 75
4, 38207, Note_on_c, 1, 48, 0
4, 38224, Note_on_c, 1, 60, 75
4, 38239, Note_on_c, 1, 60, 0
4, 38240, Note_on_c, 1, 48, 75
4, 38255, Note_on_c, 1, 48, 0
4, 38272, Note_on_c, 1, 60, 75
4, 38287, Note_on_c, 1, 60, 0
4, 38288, Note_on_c, 1, 48, 75
4, 38303, Note_on_c, 1, 48, 0
4, 38320, Note_on_c, 1, 60, 75
4, 38335, Note_on_c, 1, 60, 0
4, 38336, Note_on_c, 1, 48, 75
4, 38351, Note_on_c, 1, 48, 0
4, 38368, Note_on_c, 1, 60, 75
4, 38383, Note_on_c, 1, 60, 0
4, 38384, Note_on_c, 1, 48, 75
4, 38399, Note_on_c, 1, 48, 0
4, 38416, Note_on_c, 1, 48, 75
4, 38431, Note_on_c, 1, 48, 0
4, 38432, Note_on_c, 1, 36, 75
4, 38447, Note_on_c, 1, 36, 0
4, 38464, Note_on_c, 1, 48, 75
4, 38479, Note_on_c, 1, 48, 0
4, 38480, Note_on_c, 1, 36, 75
4, 38495, Note_on_c, 1, 36, 0
4, 38512, Note_on_c, 1, 48, 75
4, 38527, Note_on_c, 1, 48, 0
4, 38528, Note_on_c, 1, 36, 75
4, 38543, Note_on_c, 1, 36, 0
4, 38560, Note_on_c, 1, 48, 75
4, 38575, Note_on_c, 1, 48, 0
4, 38576, Note_on_c, 1, 36, 75
4, 38591, Note_on_c, 1, 36, 0
4, 38608, Note_on_c, 1, 48, 75
4, 38623, Note_on_c, 1, 48, 0
4, 38624, Note_on_c, 1, 36, 75
4, 38639, Note_on_c, 1, 36, 0
4, 38656, Note_on_c, 1, 48, 75
4, 38671, Note_on_c, 1, 48, 0
4, 38672, Note_on_c, 1, 36, 75
4, 38687, Note_on_c, 1, 36, 0
4, 38704, Note_on_c, 1, 48, 75
4, 38719, Note_on_c, 1, 48, 0
4, 38720, Note_on_c, 1, 36, 75
4, 38735, Note_on_c, 1, 36, 0
4, 38752, Note_on_c, 1, 48, 75
4, 38767, Note_on_c, 1, 48, 0
4, 38768, Note_on_c, 1, 36, 75
4, 38783, Note_on_c, 1, 36, 0
4, 38800, Note_on_c, 1, 48, 75
4, 38815, Note_on_c, 1, 48, 0
4, 38816, Note_on_c, 1, 36, 75
4, 38831, Note_on_c, 1, 36, 0
4, 38848, Note_on_c, 1, 48, 75
4, 38863, Note_on_c, 1, 48, 0
4, 38864, Note_on_c, 1, 36, 75
4, 38879, Note_on_c, 1, 36, 0
4, 38896, Note_on_c, 1, 48, 75
4, 38911, Note_on_c, 1, 48, 0
4, 38912, Note_on_c, 1, 36, 75
4, 38927, Note_on_c, 1, 36, 0
4, 38944, Note_on_c, 1, 48, 75
4, 38959, Note_on_c, 1, 48, 0
4, 38960, Note_on_c, 1, 36, 75
4, 38975, Note_on_c, 1, 36, 0
4, 38992, Note_on_c, 1, 48, 75
4, 39007, Note_on_c, 1, 48, 0
4, 39008, Note_on_c, 1, 36, 75
4, 39117, Note_on_c, 1, 36, 0
4, 39216, Note_on_c, 1, 68, 61
4, 39216, Note_on_c, 1, 65, 61
4, 39263, Note_on_c, 1, 68, 0
4, 39263, Note_on_c, 1, 65, 0
4, 39264, Note_on_c, 1, 68, 61
4, 39264, Note_on_c, 1, 65, 61
4, 39311, Note_on_c, 1, 68, 0
4, 39311, Note_on_c, 1, 65, 0
4, 39312, Note_on_c, 1, 68, 61
4, 39312, Note_on_c, 1, 65, 61
4, 39359, Note_on_c, 1, 68, 0
4, 39359, Note_on_c, 1, 65, 0
4, 39408, Note_on_c, 1, 70, 61
4, 39408, Note_on_c, 1, 67, 61
4, 39455, Note_on_c, 1, 70, 0
4, 39455, Note_on_c, 1, 67, 0
4, 39456, Note_on_c, 1, 70, 61
4, 39456, Note_on_c, 1, 67, 61
4, 39503, Note_on_c, 1, 70, 0
4, 39503, Note_on_c, 1, 67, 0
4, 39504, Note_on_c, 1, 70, 61
4, 39504, Note_on_c, 1, 67, 61
4, 39551, Note_on_c, 1, 70, 0
4, 39551, Note_on_c, 1, 67, 0
4, 39600, Note_on_c, 1, 67, 61
4, 39600, Note_on_c, 1, 64, 61
4, 39647, Note_on_c, 1, 67, 0
4, 39647, Note_on_c, 1, 64, 0
4, 39648, Note_on_c, 1, 67, 61
4, 39648, Note_on_c, 1, 64, 61
4, 39695, Note_on_c, 1, 67, 0
4, 39695, Note_on_c, 1, 64, 0
4, 39696, Note_on_c, 1, 67, 61
4, 39696, Note_on_c, 1, 64, 61
4, 39743, Note_on_c, 1, 67, 0
4, 39743, Note_on_c, 1, 64, 0
4, 39792, Note_on_c, 1, 66, 61
4, 39792, Note_on_c, 1, 63, 61
4, 39839, Note_on_c, 1, 66, 0
4, 39839, Note_on_c, 1, 63, 0
4, 39840, Note_on_c, 1, 66, 61
4, 39840, Note_on_c, 1, 63, 61
4, 39887, Note_on_c, 1, 66, 0
4, 39887, Note_on_c, 1, 63, 0
4, 39888, Note_on_c, 1, 66, 61
4, 39888, Note_on_c, 1, 63, 61
4, 39935, Note_on_c, 1, 66, 0
4, 39935, Note_on_c, 1, 63, 0
4, 39984, Note_on_c, 1, 66, 61
4, 39984, Note_on_c, 1, 63, 61
4, 40031, Note_on_c, 1, 66, 0
4, 40031, Note_on_c, 1, 63, 0
4, 40032, Note_on_c, 1, 66, 61
4, 40032, Note_on_c, 1, 63, 61
4, 40079, Note_on_c, 1, 66, 0
4, 40079, Note_on_c, 1, 63, 0
4, 40080, Note_on_c, 1, 66, 61
4, 40080, Note_on_c, 1, 63, 61
4, 40127, Note_on_c, 1, 66, 0
4, 40127, Note_on_c, 1, 63, 0
4, 40176, Note_on_c, 1, 65, 61
4, 40176, Note_on_c, 1, 61, 61
4, 40223, Note_on_c, 1, 65, 0
4, 40223, Note_on_c, 1, 61, 0
4, 40224, Note_on_c, 1, 65, 63
4, 40224, Note_on_c, 1, 61, 63
4, 40271, Note_on_c, 1, 65, 0
4, 40271, Note_on_c, 1, 61, 0
4, 40272, Note_on_c, 1, 65, 66
4, 40272, Note_on_c, 1, 61, 66
4, 40319, Note_on_c, 1, 65, 0
4, 40319, Note_on_c, 1, 61, 0
4, 40368, Note_on_c, 1, 65, 69
4, 40368, Note_on_c, 1, 61, 69
4, 40415, Note_on_c, 1, 65, 0
4, 40415, Note_on_c, 1, 61, 0
4, 40416, Note_on_c, 1, 65, 66
4, 40416, Note_on_c, 1, 61, 66
4, 40463, Note_on_c, 1, 65, 0
4, 40463, Note_on_c, 1, 61, 0
4, 40464, Note_on_c, 1, 65, 63
4, 40464, Note_on_c, 1, 61, 63
4, 40511, Note_on_c, 1, 65, 0
4, 40511, Note_on_c, 1, 61, 0
4, 40512, Note_on_c, 1, 64, 61
4, 40512, Note_on_c, 1, 60, 61
4, 40606, Note_on_c, 1, 64, 0
4, 40606, Note_on_c, 1, 60, 0
4, 40896, Note_on_c, 1, 73, 84
4, 40896, Note_on_c, 1, 70, 84
4, 40896, Note_on_c, 1, 67, 84
4, 40896, Note_on_c, 1, 64, 84
4, 40985, Note_on_c, 1, 73, 0
4, 40985, Note_on_c, 1, 70, 0
4, 40985, Note_on_c, 1, 67, 0
4, 40985, Note_on_c, 1, 64, 0
4, 41088, Note_on_c, 1, 72, 69
4, 41088, Note_on_c, 1, 68, 69
4, 41088, Note_on_c, 1, 65, 69
4, 41177, Note_on_c, 1, 72, 0
4, 41177, Note_on_c, 1, 68, 0
4, 41177, Note_on_c, 1, 65, 0
4, 41328, Note_on_c, 1, 59, 84
4, 41328, Note_on_c, 1, 47, 84
4, 41373, Note_on_c, 1, 59, 0
4, 41373, Note_on_c, 1, 47, 0
4, 41376, Note_on_c, 1, 60, 84
4, 41376, Note_on_c, 1, 48, 84
4, 41421, Note_on_c, 1, 60, 0
4, 41421, Note_on_c, 1, 48, 0
4, 41424, Note_on_c, 1, 48, 84
4, 41424, Note_on_c, 1, 36, 84
4, 41469, Note_on_c, 1, 48, 0
4, 41469, Note_on_c, 1, 36, 0
4, 41472, Note_on_c, 1, 41, 84
4, 41472, Note_on_c, 1, 29, 84
4, 41561, Note_on_c, 1, 41, 0
4, 41561, Note_on_c, 1, 29, 0
4, 41856, Note_on_c, 1, 73, 84
4, 41856, Note_on_c, 1, 70, 84
4, 41856, Note_on_c, 1, 67, 84
4, 41856, Note_on_c, 1, 64, 84
4, 41945, Note_on_c, 1, 73, 0
4, 41945, Note_on_c, 1, 70, 0
4, 41945, Note_on_c, 1, 67, 0
4, 41945, Note_on_c, 1, 64, 0
4, 42048, Note_on_c, 1, 72, 69
4, 42048, Note_on_c, 1, 68, 69
4, 42048, Note_on_c, 1, 65, 69
4, 42137, Note_on_c, 1, 72, 0
4, 42137, Note_on_c, 1, 68, 0
4, 42137, Note_on_c, 1, 65, 0
4, 42288, Note_on_c, 1, 59, 84
4, 42288, Note_on_c, 1, 47, 84
4, 42333, Note_on_c, 1, 59, 0
4, 42333, Note_on_c, 1, 47, 0
4, 42336, Note_on_c, 1, 60, 84
4, 42336, Note_on_c, 1, 48, 84
4, 42381, Note_on_c, 1, 60, 0
4, 42381, Note_on_c, 1, 48, 0
4, 42384, Note_on_c, 1, 48, 84
4, 42384, Note_on_c, 1, 36, 84
4, 42429, Note_on_c, 1, 48, 0
4, 42429, Note_on_c, 1, 36, 0
4, 42432, Note_on_c, 1, 41, 84
4, 42432, Note_on_c, 1, 29, 84
4, 42477, Note_on_c, 1, 41, 0
4, 42477, Note_on_c, 1, 29, 0
4, 42480, Note_on_c, 1, 56, 61
4, 42480, Note_on_c, 1, 53, 61
4, 42527, Note_on_c, 1, 56, 0
4, 42527, Note_on_c, 1, 53, 0
4, 42528, Note_on_c, 1, 56, 61
4, 42528, Note_on_c, 1, 53, 61
4, 42575, Note_on_c, 1, 56, 0
4, 42575, Note_on_c, 1, 53, 0
4, 42576, Note_on_c, 1, 56, 61
4, 42576, Note_on_c, 1, 53, 61
4, 42623, Note_on_c, 1, 56, 0
4, 42623, Note_on_c, 1, 53, 0
4, 42672, Note_on_c, 1, 56, 61
4, 42672, Note_on_c, 1, 53, 61
4, 42719, Note_on_c, 1, 56, 0
4, 42719, Note_on_c, 1, 53, 0
4, 42720, Note_on_c, 1, 56, 61
4, 42720, Note_on_c, 1, 53, 61
4, 42767, Note_on_c, 1, 56, 0
4, 42767, Note_on_c, 1, 53, 0
4, 42768, Note_on_c, 1, 56, 61
4, 42768, Note_on_c, 1, 53, 61
4, 42815, Note_on_c, 1, 56, 0
4, 42815, Note_on_c, 1, 53, 0
4, 42864, Note_on_c, 1, 56, 61
4, 42864, Note_on_c, 1, 53, 61
4, 42911, Note_on_c, 1, 56, 0
4, 42911, Note_on_c, 1, 53, 0
4, 42960, Note_on_c, 1, 56, 61
4, 42960, Note_on_c, 1, 53, 61
4, 43007, Note_on_c, 1, 56, 0
4, 43007, Note_on_c, 1, 53, 0
4, 43056, Note_on_c, 1, 56, 53
4, 43056, Note_on_c, 1, 53, 53
4, 43103, Note_on_c, 1, 56, 0
4, 43103, Note_on_c, 1, 53, 0
4, 43104, Note_on_c, 1, 56, 60
4, 43104, Note_on_c, 1, 53, 60
4, 43151, Note_on_c, 1, 56, 0
4, 43151, Note_on_c, 1, 53, 0
4, 43152, Note_on_c, 1, 56, 67
4, 43152, Note_on_c, 1, 53, 67
4, 43199, Note_on_c, 1, 56, 0
4, 43199, Note_on_c, 1, 53, 0
4, 43248, Note_on_c, 1, 56, 75
4, 43248, Note_on_c, 1, 51, 75
4, 43248, Note_on_c, 1, 48, 75
4, 43295, Note_on_c, 1, 56, 0
4, 43295, Note_on_c, 1, 51, 0
4, 43295, Note_on_c, 1, 48, 0
4, 43296, Note_on_c, 1, 56, 75
4, 43296, Note_on_c, 1, 51, 75
4, 43296, Note_on_c, 1, 48, 75
4, 43343, Note_on_c, 1, 56, 0
4, 43343, Note_on_c, 1, 51, 0
4, 43343, Note_on_c, 1, 48, 0
4, 43344, Note_on_c, 1, 56, 75
4, 43344, Note_on_c, 1, 51, 75
4, 43344, Note_on_c, 1, 48, 75
4, 43391, Note_on_c, 1, 56, 0
4, 43391, Note_on_c, 1, 51, 0
4, 43391, Note_on_c, 1, 48, 0
4, 43440, Note_on_c, 1, 56, 75
4, 43440, Note_on_c, 1, 49, 75
4, 43487, Note_on_c, 1, 56, 0
4, 43487, Note_on_c, 1, 49, 0
4, 43488, Note_on_c, 1, 56, 75
4, 43488, Note_on_c, 1, 49, 75
4, 43535, Note_on_c, 1, 56, 0
4, 43535, Note_on_c, 1, 49, 0
4, 43536, Note_on_c, 1, 56, 75
4, 43536, Note_on_c, 1, 49, 75
4, 43583, Note_on_c, 1, 56, 0
4, 43583, Note_on_c, 1, 49, 0
4, 43632, Note_on_c, 1, 53, 75
4, 43632, Note_on_c, 1, 45, 75
4, 43679, Note_on_c, 1, 53, 0
4, 43679, Note_on_c, 1, 45, 0
4, 43680, Note_on_c, 1, 53, 75
4, 43680, Note_on_c, 1, 45, 75
4, 43727, Note_on_c, 1, 53, 0
4, 43727, Note_on_c, 1, 45, 0
4, 43728, Note_on_c, 1, 53, 75
4, 43728, Note_on_c, 1, 45, 75
4, 43775, Note_on_c, 1, 53, 0
4, 43775, Note_on_c, 1, 45, 0
4, 43824, Note_on_c, 1, 53, 75
4, 43824, Note_on_c, 1, 46, 75
4, 43871, Note_on_c, 1, 53, 0
4, 43871, Note_on_c, 1, 46, 0
4, 43872, Note_on_c, 1, 53, 75
4, 43872, Note_on_c, 1, 46, 75
4, 43919, Note_on_c, 1, 53, 0
4, 43919, Note_on_c, 1, 46, 0
4, 43920, Note_on_c, 1, 53, 75
4, 43920, Note_on_c, 1, 46, 75
4, 43967, Note_on_c, 1, 53, 0
4, 43967, Note_on_c, 1, 46, 0
4, 44016, Note_on_c, 1, 51, 75
4, 44016, Note_on_c, 1, 43, 75
4, 44063, Note_on_c, 1, 51, 0
4, 44063, Note_on_c, 1, 43, 0
4, 44064, Note_on_c, 1, 51, 75
4, 44064, Note_on_c, 1, 43, 75
4, 44111, Note_on_c, 1, 51, 0
4, 44111, Note_on_c, 1, 43, 0
4, 44112, Note_on_c, 1, 51, 75
4, 44112, Note_on_c, 1, 43, 75
4, 44159, Note_on_c, 1, 51, 0
4, 44159, Note_on_c, 1, 43, 0
4, 44208, Note_on_c, 1, 60, 69
4, 44208, Note_on_c, 1, 56, 69
4, 44255, Note_on_c, 1, 60, 0
4, 44255, Note_on_c, 1, 56, 0
4, 44256, Note_on_c, 1, 60, 69
4, 44256, Note_on_c, 1, 56, 69
4, 44303, Note_on_c, 1, 60, 0
4, 44303, Note_on_c, 1, 56, 0
4, 44304, Note_on_c, 1, 60, 69
4, 44304, Note_on_c, 1, 56, 69
4, 44351, Note_on_c, 1, 60, 0
4, 44351, Note_on_c, 1, 56, 0
4, 44400, Note_on_c, 1, 58, 69
4, 44400, Note_on_c, 1, 55, 69
4, 44447, Note_on_c, 1, 58, 0
4, 44447, Note_on_c, 1, 55, 0
4, 44448, Note_on_c, 1, 58, 69
4, 44448, Note_on_c, 1, 55, 69
4, 44495, Note_on_c, 1, 58, 0
4, 44495, Note_on_c, 1, 55, 0
4, 44496, Note_on_c, 1, 58, 69
4, 44496, Note_on_c, 1, 55, 69
4, 44543, Note_on_c, 1, 58, 0
4, 44543, Note_on_c, 1, 55, 0
4, 44592, Note_on_c, 1, 63, 69
4, 44592, Note_on_c, 1, 56, 69
4, 44639, Note_on_c, 1, 63, 0
4, 44639, Note_on_c, 1, 56, 0
4, 44640, Note_on_c, 1, 63, 69
4, 44640, Note_on_c, 1, 56, 69
4, 44687, Note_on_c, 1, 63, 0
4, 44687, Note_on_c, 1, 56, 0
4, 44688, Note_on_c, 1, 63, 69
4, 44688, Note_on_c, 1, 56, 69
4, 44735, Note_on_c, 1, 63, 0
4, 44735, Note_on_c, 1, 56, 0
4, 44784, Note_on_c, 1, 65, 69
4, 44784, Note_on_c, 1, 61, 69
4, 44831, Note_on_c, 1, 65, 0
4, 44831, Note_on_c, 1, 61, 0
4, 44832, Note_on_c, 1, 65, 69
4, 44832, Note_on_c, 1, 61, 69
4, 44879, Note_on_c, 1, 65, 0
4, 44879, Note_on_c, 1, 61, 0
4, 44880, Note_on_c, 1, 65, 69
4, 44880, Note_on_c, 1, 61, 69
4, 44927, Note_on_c, 1, 65, 0
4, 44927, Note_on_c, 1, 61, 0
4, 44976, Note_on_c, 1, 63, 69
4, 44976, Note_on_c, 1, 60, 69
4, 45023, Note_on_c, 1, 63, 0
4, 45023, Note_on_c, 1, 60, 0
4, 45024, Note_on_c, 1, 63, 69
4, 45024, Note_on_c, 1, 60, 69
4, 45071, Note_on_c, 1, 63, 0
4, 45071, Note_on_c, 1, 60, 0
4, 45072, Note_on_c, 1, 63, 69
4, 45072, Note_on_c, 1, 60, 69
4, 45119, Note_on_c, 1, 63, 0
4, 45119, Note_on_c, 1, 60, 0
4, 45120, Note_on_c, 1, 63, 69
4, 45120, Note_on_c, 1, 60, 69
4, 45228, Note_on_c, 1, 63, 0
4, 45228, Note_on_c, 1, 60, 0
4, 45552, Note_on_c, 1, 56, 69
4, 45552, Note_on_c, 1, 49, 69
4, 45599, Note_on_c, 1, 56, 0
4, 45599, Note_on_c, 1, 49, 0
4, 45600, Note_on_c, 1, 56, 69
4, 45600, Note_on_c, 1, 49, 69
4, 45647, Note_on_c, 1, 56, 0
4, 45647, Note_on_c, 1, 49, 0
4, 45648, Note_on_c, 1, 56, 69
4, 45648, Note_on_c, 1, 49, 69
4, 45695, Note_on_c, 1, 56, 0
4, 45695, Note_on_c, 1, 49, 0
4, 45744, Note_on_c, 1, 51, 69
4, 45744, Note_on_c, 1, 48, 69
4, 45791, Note_on_c, 1, 51, 0
4, 45791, Note_on_c, 1, 48, 0
4, 45792, Note_on_c, 1, 51, 69
4, 45792, Note_on_c, 1, 48, 69
4, 45839, Note_on_c, 1, 51, 0
4, 45839, Note_on_c, 1, 48, 0
4, 45840, Note_on_c, 1, 53, 69
4, 45840, Note_on_c, 1, 49, 69
4, 45887, Note_on_c, 1, 53, 0
4, 45887, Note_on_c, 1, 49, 0
4, 45936, Note_on_c, 1, 60, 69
4, 45936, Note_on_c, 1, 51, 69
4, 45983, Note_on_c, 1, 60, 0
4, 45983, Note_on_c, 1, 51, 0
4, 45984, Note_on_c, 1, 58, 69
4, 45984, Note_on_c, 1, 51, 69
4, 46031, Note_on_c, 1, 58, 0
4, 46031, Note_on_c, 1, 51, 0
4, 46032, Note_on_c, 1, 58, 69
4, 46032, Note_on_c, 1, 51, 69
4, 46079, Note_on_c, 1, 58, 0
4, 46079, Note_on_c, 1, 51, 0
4, 46128, Note_on_c, 1, 56, 69
4, 46128, Note_on_c, 1, 44, 69
4, 46175, Note_on_c, 1, 56, 0
4, 46175, Note_on_c, 1, 44, 0
4, 46176, Note_on_c, 1, 51, 69
4, 46176, Note_on_c, 1, 44, 69
4, 46223, Note_on_c, 1, 51, 0
4, 46223, Note_on_c, 1, 44, 0
4, 46224, Note_on_c, 1, 51, 69
4, 46224, Note_on_c, 1, 44, 69
4, 46271, Note_on_c, 1, 51, 0
4, 46271, Note_on_c, 1, 44, 0
4, 46320, Note_on_c, 1, 59, 61
4, 46320, Note_on_c, 1, 56, 61
4, 46367, Note_on_c, 1, 59, 0
4, 46367, Note_on_c, 1, 56, 0
4, 46368, Note_on_c, 1, 59, 61
4, 46368, Note_on_c, 1, 56, 61
4, 46415, Note_on_c, 1, 59, 0
4, 46415, Note_on_c, 1, 56, 0
4, 46416, Note_on_c, 1, 59, 61
4, 46416, Note_on_c, 1, 56, 61
4, 46463, Note_on_c, 1, 59, 0
4, 46463, Note_on_c, 1, 56, 0
4, 46512, Note_on_c, 1, 58, 61
4, 46512, Note_on_c, 1, 55, 61
4, 46559, Note_on_c, 1, 58, 0
4, 46559, Note_on_c, 1, 55, 0
4, 46560, Note_on_c, 1, 58, 61
4, 46560, Note_on_c, 1, 55, 61
4, 46607, Note_on_c, 1, 58, 0
4, 46607, Note_on_c, 1, 55, 0
4, 46608, Note_on_c, 1, 58, 61
4, 46608, Note_on_c, 1, 55, 61
4, 46655, Note_on_c, 1, 58, 0
4, 46655, Note_on_c, 1, 55, 0
4, 46704, Note_on_c, 1, 63, 61
4, 46704, Note_on_c, 1, 56, 61
4, 46751, Note_on_c, 1, 63, 0
4, 46751, Note_on_c, 1, 56, 0
4, 46752, Note_on_c, 1, 63, 61
4, 46752, Note_on_c, 1, 56, 61
4, 46799, Note_on_c, 1, 63, 0
4, 46799, Note_on_c, 1, 56, 0
4, 46800, Note_on_c, 1, 59, 61
4, 46800, Note_on_c, 1, 56, 61
4, 46847, Note_on_c, 1, 59, 0
4, 46847, Note_on_c, 1, 56, 0
4, 46896, Note_on_c, 1, 59, 61
4, 46896, Note_on_c, 1, 56, 61
4, 46943, Note_on_c, 1, 59, 0
4, 46943, Note_on_c, 1, 56, 0
4, 46944, Note_on_c, 1, 59, 61
4, 46944, Note_on_c, 1, 56, 61
4, 46991, Note_on_c, 1, 59, 0
4, 46991, Note_on_c, 1, 56, 0
4, 46992, Note_on_c, 1, 59, 61
4, 46992, Note_on_c, 1, 56, 61
4, 47039, Note_on_c, 1, 59, 0
4, 47039, Note_on_c, 1, 56, 0
4, 47088, Note_on_c, 1, 58, 61
4, 47088, Note_on_c, 1, 54, 61
4, 47135, Note_on_c, 1, 58, 0
4, 47135, Note_on_c, 1, 54, 0
4, 47136, Note_on_c, 1, 58, 61
4, 47136, Note_on_c, 1, 54, 61
4, 47183, Note_on_c, 1, 58, 0
4, 47183, Note_on_c, 1, 54, 0
4, 47184, Note_on_c, 1, 58, 61
4, 47184, Note_on_c, 1, 54, 61
4, 47231, Note_on_c, 1, 58, 0
4, 47231, Note_on_c, 1, 54, 0
4, 47280, Note_on_c, 1, 56, 61
4, 47280, Note_on_c, 1, 52, 61
4, 47327, Note_on_c, 1, 56, 0
4, 47327, Note_on_c, 1, 52, 0
4, 47328, Note_on_c, 1, 56, 61
4, 47328, Note_on_c, 1, 52, 61
4, 47375, Note_on_c, 1, 56, 0
4, 47375, Note_on_c, 1, 52, 0
4, 47376, Note_on_c, 1, 56, 61
4, 47376, Note_on_c, 1, 52, 61
4, 47423, Note_on_c, 1, 56, 0
4, 47423, Note_on_c, 1, 52, 0
4, 47472, Note_on_c, 1, 55, 61
4, 47472, Note_on_c, 1, 51, 61
4, 47519, Note_on_c, 1, 55, 0
4, 47519, Note_on_c, 1, 51, 0
4, 47520, Note_on_c, 1, 55, 61
4, 47520, Note_on_c, 1, 51, 61
4, 47567, Note_on_c, 1, 55, 0
4, 47567, Note_on_c, 1, 51, 0
4, 47568, Note_on_c, 1, 55, 61
4, 47568, Note_on_c, 1, 51, 61
4, 47615, Note_on_c, 1, 55, 0
4, 47615, Note_on_c, 1, 51, 0
4, 47616, Note_on_c, 1, 61, 75
4, 47616, Note_on_c, 1, 58, 75
4, 47616, Note_on_c, 1, 51, 75
4, 47705, Note_on_c, 1, 61, 0
4, 47705, Note_on_c, 1, 58, 0
4, 47705, Note_on_c, 1, 51, 0
4, 47712, Note_on_c, 1, 60, 75
4, 47712, Note_on_c, 1, 56, 75
4, 47712, Note_on_c, 1, 51, 75
4, 47801, Note_on_c, 1, 60, 0
4, 47801, Note_on_c, 1, 56, 0
4, 47801, Note_on_c, 1, 51, 0
4, 47808, Note_on_c, 1, 58, 75
4, 47808, Note_on_c, 1, 55, 75
4, 47808, Note_on_c, 1, 51, 75
4, 47897, Note_on_c, 1, 58, 0
4, 47897, Note_on_c, 1, 55, 0
4, 47897, Note_on_c, 1, 51, 0
4, 48000, Note_on_c, 1, 61, 75
4, 48000, Note_on_c, 1, 58, 75
4, 48000, Note_on_c, 1, 51, 75
4, 48089, Note_on_c, 1, 61, 0
4, 48089, Note_on_c, 1, 58, 0
4, 48089, Note_on_c, 1, 51, 0
4, 48096, Note_on_c, 1, 60, 75
4, 48096, Note_on_c, 1, 56, 75
4, 48096, Note_on_c, 1, 51, 75
4, 48185, Note_on_c, 1, 60, 0
4, 48185, Note_on_c, 1, 56, 0
4, 48185, Note_on_c, 1, 51, 0
4, 48192, Note_on_c, 1, 58, 75
4, 48192, Note_on_c, 1, 55, 75
4, 48192, Note_on_c, 1, 51, 75
4, 48281, Note_on_c, 1, 58, 0
4, 48281, Note_on_c, 1, 55, 0
4, 48281, Note_on_c, 1, 51, 0
4, 48384, Note_on_c, 1, 51, 84
4, 48404, Note_on_c, 1, 51, 0
4, 48432, Note_on_c, 1, 51, 84
4, 48452, Note_on_c, 1, 51, 0
4, 48480, Note_on_c, 1, 51, 84
4, 48500, Note_on_c, 1, 51, 0
4, 48528, Note_on_c, 1, 51, 84
4, 48548, Note_on_c, 1, 51, 0
4, 48576, Note_on_c, 1, 51, 84
4, 48596, Note_on_c, 1, 51, 0
4, 48624, Note_on_c, 1, 51, 84
4, 48644, Note_on_c, 1, 51, 0
4, 48672, Note_on_c, 1, 51, 84
4, 48692, Note_on_c, 1, 51, 0
4, 48720, Note_on_c, 1, 51, 84
4, 48740, Note_on_c, 1, 51, 0
4, 48768, Note_on_c, 1, 51, 84
4, 48788, Note_on_c, 1, 51, 0
4, 48816, Note_on_c, 1, 51, 84
4, 48836, Note_on_c, 1, 51, 0
4, 48864, Note_on_c, 1, 51, 84
4, 48884, Note_on_c, 1, 51, 0
4, 48912, Note_on_c, 1, 51, 84
4, 48932, Note_on_c, 1, 51, 0
4, 48960, Note_on_c, 1, 51, 84
4, 48980, Note_on_c, 1, 51, 0
4, 49008, Note_on_c, 1, 51, 84
4, 49028, Note_on_c, 1, 51, 0
4, 49056, Note_on_c, 1, 51, 84
4, 49076, Note_on_c, 1, 51, 0
4, 49104, Note_on_c, 1, 51, 84
4, 49124, Note_on_c, 1, 51, 0
4, 49152, Note_on_c, 1, 51, 84
4, 49337, Note_on_c, 1, 51, 0
4, 49552, Note_on_c, 1, 56, 69
4, 49567, Note_on_c, 1, 56, 0
4, 49568, Note_on_c, 1, 58, 69
4, 49583, Note_on_c, 1, 58, 0
4, 49584, Note_on_c, 1, 60, 69
4, 49599, Note_on_c, 1, 60, 0
4, 49600, Note_on_c, 1, 58, 69
4, 49615, Note_on_c, 1, 58, 0
4, 49616, Note_on_c, 1, 56, 69
4, 49631, Note_on_c, 1, 56, 0
4, 49632, Note_on_c, 1, 55, 69
4, 49647, Note_on_c, 1, 55, 0
4, 49648, Note_on_c, 1, 58, 69
4, 49663, Note_on_c, 1, 58, 0
4, 49664, Note_on_c, 1, 63, 69
4, 49679, Note_on_c, 1, 63, 0
4, 49680, Note_on_c, 1, 67, 69
4, 49695, Note_on_c, 1, 67, 0
4, 49696, Note_on_c, 1, 65, 69
4, 49711, Note_on_c, 1, 65, 0
4, 49712, Note_on_c, 1, 63, 69
4, 49727, Note_on_c, 1, 63, 0
4, 49728, Note_on_c, 1, 68, 69
4, 49817, Note_on_c, 1, 68, 0
4, 49936, Note_on_c, 1, 56, 69
4, 49951, Note_on_c, 1, 56, 0
4, 49952, Note_on_c, 1, 58, 69
4, 49967, Note_on_c, 1, 58, 0
4, 49968, Note_on_c, 1, 60, 69
4, 49983, Note_on_c, 1, 60, 0
4, 49984, Note_on_c, 1, 58, 69
4, 49999, Note_on_c, 1, 58, 0
4, 50000, Note_on_c, 1, 56, 69
4, 50015, Note_on_c, 1, 56, 0
4, 50016, Note_on_c, 1, 55, 69
4, 50031, Note_on_c, 1, 55, 0
4, 50032, Note_on_c, 1, 58, 69
4, 50047, Note_on_c, 1, 58, 0
4, 50048, Note_on_c, 1, 63, 69
4, 50063, Note_on_c, 1, 63, 0
4, 50064, Note_on_c, 1, 67, 69
4, 50079, Note_on_c, 1, 67, 0
4, 50080, Note_on_c, 1, 65, 69
4, 50095, Note_on_c, 1, 65, 0
4, 50096, Note_on_c, 1, 63, 69
4, 50111, Note_on_c, 1, 63, 0
4, 50112, Note_on_c, 1, 68, 69
4, 50201, Note_on_c, 1, 68, 0
4, 50304, Note_on_c, 1, 58, 75
4, 50304, Note_on_c, 1, 53, 75
4, 50304, Note_on_c, 1, 49, 75
4, 50393, Note_on_c, 1, 58, 0
4, 50393, Note_on_c, 1, 53, 0
4, 50393, Note_on_c, 1, 49, 0
4, 50496, Note_on_c, 1, 61, 75
4, 50496, Note_on_c, 1, 58, 75
4, 50496, Note_on_c, 1, 51, 75
4, 50585, Note_on_c, 1, 61, 0
4, 50585, Note_on_c, 1, 58, 0
4, 50585, Note_on_c, 1, 51, 0
4, 50688, Note_on_c, 1, 61, 75
4, 50733, Note_on_c, 1, 61, 0
4, 50736, Note_on_c, 1, 60, 75
4, 50781, Note_on_c, 1, 60, 0
4, 50784, Note_on_c, 1, 58, 75
4, 50829, Note_on_c, 1, 58, 0
4, 50832, Note_on_c, 1, 56, 75
4, 50877, Note_on_c, 1, 56, 0
4, 50880, Note_on_c, 1, 61, 75
4, 50925, Note_on_c, 1, 61, 0
4, 50928, Note_on_c, 1, 60, 75
4, 50973, Note_on_c, 1, 60, 0
4, 50976, Note_on_c, 1, 58, 75
4, 51021, Note_on_c, 1, 58, 0
4, 51024, Note_on_c, 1, 56, 75
4, 51069, Note_on_c, 1, 56, 0
4, 51072, Note_on_c, 1, 53, 75
4, 51072, Note_on_c, 1, 49, 75
4, 51426, Note_on_c, 1, 53, 0
4, 51426, Note_on_c, 1, 49, 0
4, 51456, Note_on_c, 1, 61, 84
4, 51456, Note_on_c, 1, 58, 84
4, 51456, Note_on_c, 1, 51, 84
4, 51833, Note_on_c, 1, 61, 0
4, 51833, Note_on_c, 1, 58, 0
4, 51833, Note_on_c, 1, 51, 0
4, 51888, Note_on_c, 1, 51, 61
4, 51888, Note_on_c, 1, 48, 61
4, 51935, Note_on_c, 1, 51, 0
4, 51935, Note_on_c, 1, 48, 0
4, 51936, Note_on_c, 1, 51, 61
4, 51936, Note_on_c, 1, 48, 61
4, 51983, Note_on_c, 1, 51, 0
4, 51983, Note_on_c, 1, 48, 0
4, 51984, Note_on_c, 1, 51, 61
4, 51984, Note_on_c, 1, 48, 61
4, 52031, Note_on_c, 1, 51, 0
4, 52031, Note_on_c, 1, 48, 0
4, 52080, Note_on_c, 1, 53, 61
4, 52080, Note_on_c, 1, 49, 61
4, 52127, Note_on_c, 1, 53, 0
4, 52127, Note_on_c, 1, 49, 0
4, 52128, Note_on_c, 1, 53, 61
4, 52128, Note_on_c, 1, 49, 61
4, 52175, Note_on_c, 1, 53, 0
4, 52175, Note_on_c, 1, 49, 0
4, 52176, Note_on_c, 1, 53, 61
4, 52176, Note_on_c, 1, 49, 61
4, 52223, Note_on_c, 1, 53, 0
4, 52223, Note_on_c, 1, 49, 0
4, 52272, Note_on_c, 1, 48, 75
4, 52272, Note_on_c, 1, 44, 75
4, 52319, Note_on_c, 1, 48, 0
4, 52319, Note_on_c, 1, 44, 0
4, 52320, Note_on_c, 1, 48, 75
4, 52320, Note_on_c, 1, 44, 75
4, 52367, Note_on_c, 1, 48, 0
4, 52367, Note_on_c, 1, 44, 0
4, 52368, Note_on_c, 1, 48, 75
4, 52368, Note_on_c, 1, 44, 75
4, 52415, Note_on_c, 1, 48, 0
4, 52415, Note_on_c, 1, 44, 0
4, 52416, Note_on_c, 1, 49, 75
4, 52416, Note_on_c, 1, 46, 75
4, 52510, Note_on_c, 1, 49, 0
4, 52510, Note_on_c, 1, 46, 0
4, 53040, Note_on_c, 1, 60, 75
4, 53040, Note_on_c, 1, 51, 75
4, 53087, Note_on_c, 1, 60, 0
4, 53087, Note_on_c, 1, 51, 0
4, 53088, Note_on_c, 1, 60, 75
4, 53088, Note_on_c, 1, 51, 75
4, 53135, Note_on_c, 1, 60, 0
4, 53135, Note_on_c, 1, 51, 0
4, 53136, Note_on_c, 1, 60, 75
4, 53136, Note_on_c, 1, 51, 75
4, 53183, Note_on_c, 1, 60, 0
4, 53183, Note_on_c, 1, 51, 0
4, 53232, Note_on_c, 1, 60, 75
4, 53232, Note_on_c, 1, 51, 75
4, 53279, Note_on_c, 1, 60, 0
4, 53279, Note_on_c, 1, 51, 0
4, 53280, Note_on_c, 1, 58, 75
4, 53280, Note_on_c, 1, 51, 75
4, 53327, Note_on_c, 1, 58, 0
4, 53327, Note_on_c, 1, 51, 0
4, 53328, Note_on_c, 1, 58, 75
4, 53328, Note_on_c, 1, 51, 75
4, 53375, Note_on_c, 1, 58, 0
4, 53375, Note_on_c, 1, 51, 0
4, 53376, Note_on_c, 1, 56, 75
4, 53465, Note_on_c, 1, 56, 0
4, 53472, Note_on_c, 1, 60, 75
4, 53561, Note_on_c, 1, 60, 0
4, 53568, Note_on_c, 1, 61, 75
4, 53657, Note_on_c, 1, 61, 0
4, 53664, Note_on_c, 1, 49, 75
4, 53753, Note_on_c, 1, 49, 0
4, 54192, Note_on_c, 1, 58, 75
4, 54192, Note_on_c, 1, 49, 75
4, 54239, Note_on_c, 1, 58, 0
4, 54239, Note_on_c, 1, 49, 0
4, 54240, Note_on_c, 1, 58, 75
4, 54240, Note_on_c, 1, 49, 75
4, 54287, Note_on_c, 1, 58, 0
4, 54287, Note_on_c, 1, 49, 0
4, 54288, Note_on_c, 1, 58, 75
4, 54288, Note_on_c, 1, 49, 75
4, 54335, Note_on_c, 1, 58, 0
4, 54335, Note_on_c, 1, 49, 0
4, 54384, Note_on_c, 1, 60, 69
4, 54384, Note_on_c, 1, 51, 69
4, 54431, Note_on_c, 1, 60, 0
4, 54431, Note_on_c, 1, 51, 0
4, 54432, Note_on_c, 1, 60, 66
4, 54432, Note_on_c, 1, 51, 66
4, 54479, Note_on_c, 1, 60, 0
4, 54479, Note_on_c, 1, 51, 0
4, 54480, Note_on_c, 1, 60, 63
4, 54480, Note_on_c, 1, 51, 63
4, 54527, Note_on_c, 1, 60, 0
4, 54527, Note_on_c, 1, 51, 0
4, 54576, Note_on_c, 1, 59, 61
4, 54576, Note_on_c, 1, 51, 61
4, 54623, Note_on_c, 1, 59, 0
4, 54623, Note_on_c, 1, 51, 0
4, 54624, Note_on_c, 1, 59, 61
4, 54624, Note_on_c, 1, 51, 61
4, 54671, Note_on_c, 1, 59, 0
4, 54671, Note_on_c, 1, 51, 0
4, 54672, Note_on_c, 1, 59, 61
4, 54672, Note_on_c, 1, 51, 61
4, 54719, Note_on_c, 1, 59, 0
4, 54719, Note_on_c, 1, 51, 0
4, 54768, Note_on_c, 1, 59, 61
4, 54768, Note_on_c, 1, 52, 61
4, 54815, Note_on_c, 1, 59, 0
4, 54815, Note_on_c, 1, 52, 0
4, 54816, Note_on_c, 1, 59, 61
4, 54816, Note_on_c, 1, 52, 61
4, 54863, Note_on_c, 1, 59, 0
4, 54863, Note_on_c, 1, 52, 0
4, 54864, Note_on_c, 1, 59, 61
4, 54864, Note_on_c, 1, 52, 61
4, 54911, Note_on_c, 1, 59, 0
4, 54911, Note_on_c, 1, 52, 0
4, 54960, Note_on_c, 1, 58, 61
4, 54960, Note_on_c, 1, 55, 61
4, 55007, Note_on_c, 1, 58, 0
4, 55007, Note_on_c, 1, 55, 0
4, 55008, Note_on_c, 1, 58, 61
4, 55008, Note_on_c, 1, 55, 61
4, 55055, Note_on_c, 1, 58, 0
4, 55055, Note_on_c, 1, 55, 0
4, 55056, Note_on_c, 1, 58, 61
4, 55056, Note_on_c, 1, 55, 61
4, 55103, Note_on_c, 1, 58, 0
4, 55103, Note_on_c, 1, 55, 0
4, 55104, Note_on_c, 1, 56, 77
4, 55200, Note_on_c, 1, 56, 0
4, 55248, Note_on_c, 1, 58, 77
4, 55248, Note_on_c, 1, 51, 77
4, 55296, Note_on_c, 1, 58, 0
4, 55296, Note_on_c, 1, 51, 0
4, 55296, Note_on_c, 1, 56, 77
4, 55392, Note_on_c, 1, 56, 0
4, 55440, Note_on_c, 1, 58, 88
4, 55440, Note_on_c, 1, 51, 88
4, 55488, Note_on_c, 1, 58, 0
4, 55488, Note_on_c, 1, 51, 0
4, 55488, Note_on_c, 1, 56, 92
4, 55584, Note_on_c, 1, 56, 0
4, 55680, Note_on_c, 1, 53, 84
4, 55680, Note_on_c, 1, 49, 84
4, 55769, Note_on_c, 1, 53, 0
4, 55769, Note_on_c, 1, 49, 0
4, 55872, Note_on_c, 1, 60, 61
4, 55872, Note_on_c, 1, 51, 61
4, 55919, Note_on_c, 1, 60, 0
4, 55919, Note_on_c, 1, 51, 0
4, 55920, Note_on_c, 1, 60, 61
4, 55920, Note_on_c, 1, 51, 61
4, 55967, Note_on_c, 1, 60, 0
4, 55967, Note_on_c, 1, 51, 0
4, 55968, Note_on_c, 1, 55, 61
4, 55968, Note_on_c, 1, 51, 61
4, 56015, Note_on_c, 1, 55, 0
4, 56015, Note_on_c, 1, 51, 0
4, 56016, Note_on_c, 1, 55, 61
4, 56016, Note_on_c, 1, 51, 61
4, 56063, Note_on_c, 1, 55, 0
4, 56063, Note_on_c, 1, 51, 0
4, 56064, Note_on_c, 1, 56, 77
4, 56160, Note_on_c, 1, 56, 0
4, 56208, Note_on_c, 1, 58, 77
4, 56208, Note_on_c, 1, 51, 77
4, 56256, Note_on_c, 1, 58, 0
4, 56256, Note_on_c, 1, 51, 0
4, 56256, Note_on_c, 1, 56, 85
4, 56352, Note_on_c, 1, 56, 0
4, 56400, Note_on_c, 1, 58, 91
4, 56400, Note_on_c, 1, 51, 91
4, 56448, Note_on_c, 1, 58, 0
4, 56448, Note_on_c, 1, 51, 0
4, 56448, Note_on_c, 1, 56, 100
4, 56544, Note_on_c, 1, 56, 0
4, 56640, Note_on_c, 1, 53, 84
4, 56640, Note_on_c, 1, 49, 84
4, 56729, Note_on_c, 1, 53, 0
4, 56729, Note_on_c, 1, 49, 0
4, 56832, Note_on_c, 1, 60, 75
4, 56832, Note_on_c, 1, 51, 75
4, 56879, Note_on_c, 1, 60, 0
4, 56879, Note_on_c, 1, 51, 0
4, 56880, Note_on_c, 1, 60, 74
4, 56880, Note_on_c, 1, 51, 74
4, 56927, Note_on_c, 1, 60, 0
4, 56927, Note_on_c, 1, 51, 0
4, 56928, Note_on_c, 1, 55, 73
4, 56928, Note_on_c, 1, 51, 73
4, 56975, Note_on_c, 1, 55, 0
4, 56975, Note_on_c, 1, 51, 0
4, 56976, Note_on_c, 1, 55, 72
4, 56976, Note_on_c, 1, 51, 72
4, 57023, Note_on_c, 1, 55, 0
4, 57023, Note_on_c, 1, 51, 0
4, 57024, Note_on_c, 1, 56, 87
4, 57120, Note_on_c, 1, 56, 0
4, 57120, Note_on_c, 1, 58, 69
4, 57120, Note_on_c, 1, 49, 69
4, 57165, Note_on_c, 1, 58, 0
4, 57165, Note_on_c, 1, 49, 0
4, 57168, Note_on_c, 1, 61, 69
4, 57168, Note_on_c, 1, 51, 69
4, 57216, Note_on_c, 1, 61, 0
4, 57216, Note_on_c, 1, 51, 0
4, 57216, Note_on_c, 1, 60, 69
4, 57216, Note_on_c, 1, 56, 69
4, 57261, Note_on_c, 1, 60, 0
4, 57261, Note_on_c, 1, 56, 0
4, 57312, Note_on_c, 1, 58, 61
4, 57312, Note_on_c, 1, 49, 61
4, 57357, Note_on_c, 1, 58, 0
4, 57357, Note_on_c, 1, 49, 0
4, 57360, Note_on_c, 1, 58, 61
4, 57360, Note_on_c, 1, 51, 61
4, 57408, Note_on_c, 1, 58, 0
4, 57408, Note_on_c, 1, 51, 0
4, 57408, Note_on_c, 1, 56, 61
4, 57408, Note_on_c, 1, 44, 61
4, 57541, Note_on_c, 1, 56, 0
4, 57541, Note_on_c, 1, 44, 0
4, 57648, Note_on_c, 1, 67, 69
4, 57648, Note_on_c, 1, 63, 69
4, 57695, Note_on_c, 1, 67, 0
4, 57695, Note_on_c, 1, 63, 0
4, 57696, Note_on_c, 1, 67, 69
4, 57696, Note_on_c, 1, 63, 69
4, 57743, Note_on_c, 1, 67, 0
4, 57743, Note_on_c, 1, 63, 0
4, 57744, Note_on_c, 1, 67, 69
4, 57744, Note_on_c, 1, 63, 69
4, 57791, Note_on_c, 1, 67, 0
4, 57791, Note_on_c, 1, 63, 0
4, 57840, Note_on_c, 1, 65, 69
4, 57840, Note_on_c, 1, 62, 69
4, 57887, Note_on_c, 1, 65, 0
4, 57887, Note_on_c, 1, 62, 0
4, 57888, Note_on_c, 1, 65, 69
4, 57888, Note_on_c, 1, 62, 69
4, 57935, Note_on_c, 1, 65, 0
4, 57935, Note_on_c, 1, 62, 0
4, 57936, Note_on_c, 1, 65, 69
4, 57936, Note_on_c, 1, 62, 69
4, 57983, Note_on_c, 1, 65, 0
4, 57983, Note_on_c, 1, 62, 0
4, 58032, Note_on_c, 1, 70, 69
4, 58032, Note_on_c, 1, 63, 69
4, 58079, Note_on_c, 1, 70, 0
4, 58079, Note_on_c, 1, 63, 0
4, 58080, Note_on_c, 1, 70, 69
4, 58080, Note_on_c, 1, 63, 69
4, 58127, Note_on_c, 1, 70, 0
4, 58127, Note_on_c, 1, 63, 0
4, 58128, Note_on_c, 1, 70, 69
4, 58128, Note_on_c, 1, 63, 69
4, 58175, Note_on_c, 1, 70, 0
4, 58175, Note_on_c, 1, 63, 0
4, 58224, Note_on_c, 1, 72, 69
4, 58224, Note_on_c, 1, 68, 69
4, 58271, Note_on_c, 1, 72, 0
4, 58271, Note_on_c, 1, 68, 0
4, 58272, Note_on_c, 1, 72, 69
4, 58272, Note_on_c, 1, 68, 69
4, 58319, Note_on_c, 1, 72, 0
4, 58319, Note_on_c, 1, 68, 0
4, 58320, Note_on_c, 1, 72, 69
4, 58320, Note_on_c, 1, 68, 69
4, 58367, Note_on_c, 1, 72, 0
4, 58367, Note_on_c, 1, 68, 0
4, 58416, Note_on_c, 1, 70, 69
4, 58416, Note_on_c, 1, 67, 69
4, 58463, Note_on_c, 1, 70, 0
4, 58463, Note_on_c, 1, 67, 0
4, 58464, Note_on_c, 1, 70, 69
4, 58464, Note_on_c, 1, 67, 69
4, 58511, Note_on_c, 1, 70, 0
4, 58511, Note_on_c, 1, 67, 0
4, 58512, Note_on_c, 1, 70, 69
4, 58512, Note_on_c, 1, 67, 69
4, 58559, Note_on_c, 1, 70, 0
4, 58559, Note_on_c, 1, 67, 0
4, 58560, Note_on_c, 1, 70, 69
4, 58560, Note_on_c, 1, 67, 69
4, 58668, Note_on_c, 1, 70, 0
4, 58668, Note_on_c, 1, 67, 0
4, 59184, Note_on_c, 1, 68, 69
4, 59184, Note_on_c, 1, 65, 69
4, 59231, Note_on_c, 1, 68, 0
4, 59231, Note_on_c, 1, 65, 0
4, 59232, Note_on_c, 1, 68, 69
4, 59232, Note_on_c, 1, 65, 69
4, 59279, Note_on_c, 1, 68, 0
4, 59279, Note_on_c, 1, 65, 0
4, 59280, Note_on_c, 1, 68, 69
4, 59280, Note_on_c, 1, 65, 69
4, 59327, Note_on_c, 1, 68, 0
4, 59327, Note_on_c, 1, 65, 0
4, 59376, Note_on_c, 1, 67, 69
4, 59376, Note_on_c, 1, 64, 69
4, 59423, Note_on_c, 1, 67, 0
4, 59423, Note_on_c, 1, 64, 0
4, 59424, Note_on_c, 1, 67, 69
4, 59424, Note_on_c, 1, 64, 69
4, 59471, Note_on_c, 1, 67, 0
4, 59471, Note_on_c, 1, 64, 0
4, 59472, Note_on_c, 1, 67, 69
4, 59472, Note_on_c, 1, 64, 69
4, 59519, Note_on_c, 1, 67, 0
4, 59519, Note_on_c, 1, 64, 0
4, 59568, Note_on_c, 1, 72, 69
4, 59568, Note_on_c, 1, 65, 69
4, 59615, Note_on_c, 1, 72, 0
4, 59615, Note_on_c, 1, 65, 0
4, 59616, Note_on_c, 1, 72, 69
4, 59616, Note_on_c, 1, 65, 69
4, 59663, Note_on_c, 1, 72, 0
4, 59663, Note_on_c, 1, 65, 0
4, 59664, Note_on_c, 1, 72, 69
4, 59664, Note_on_c, 1, 65, 69
4, 59711, Note_on_c, 1, 72, 0
4, 59711, Note_on_c, 1, 65, 0
4, 59760, Note_on_c, 1, 73, 69
4, 59760, Note_on_c, 1, 70, 69
4, 59807, Note_on_c, 1, 73, 0
4, 59807, Note_on_c, 1, 70, 0
4, 59808, Note_on_c, 1, 73, 69
4, 59808, Note_on_c, 1, 70, 69
4, 59855, Note_on_c, 1, 73, 0
4, 59855, Note_on_c, 1, 70, 0
4, 59856, Note_on_c, 1, 73, 69
4, 59856, Note_on_c, 1, 70, 69
4, 59903, Note_on_c, 1, 73, 0
4, 59903, Note_on_c, 1, 70, 0
4, 59952, Note_on_c, 1, 72, 69
4, 59952, Note_on_c, 1, 68, 69
4, 59999, Note_on_c, 1, 72, 0
4, 59999, Note_on_c, 1, 68, 0
4, 60000, Note_on_c, 1, 72, 69
4, 60000, Note_on_c, 1, 68, 69
4, 60047, Note_on_c, 1, 72, 0
4, 60047, Note_on_c, 1, 68, 0
4, 60048, Note_on_c, 1, 72, 69
4, 60048, Note_on_c, 1, 68, 69
4, 60095, Note_on_c, 1, 72, 0
4, 60095, Note_on_c, 1, 68, 0
4, 60096, Note_on_c, 1, 72, 69
4, 60096, Note_on_c, 1, 68, 69
4, 60185, Note_on_c, 1, 72, 0
4, 60185, Note_on_c, 1, 68, 0
4, 60304, Note_on_c, 1, 70, 75
4, 60319, Note_on_c, 1, 70, 0
4, 60320, Note_on_c, 1, 72, 75
4, 60335, Note_on_c, 1, 72, 0
4, 60336, Note_on_c, 1, 73, 75
4, 60351, Note_on_c, 1, 73, 0
4, 60352, Note_on_c, 1, 72, 75
4, 60367, Note_on_c, 1, 72, 0
4, 60368, Note_on_c, 1, 70, 75
4, 60383, Note_on_c, 1, 70, 0
4, 60384, Note_on_c, 1, 77, 75
4, 60399, Note_on_c, 1, 77, 0
4, 60400, Note_on_c, 1, 75, 75
4, 60415, Note_on_c, 1, 75, 0
4, 60416, Note_on_c, 1, 73, 75
4, 60431, Note_on_c, 1, 73, 0
4, 60432, Note_on_c, 1, 72, 75
4, 60447, Note_on_c, 1, 72, 0
4, 60448, Note_on_c, 1, 70, 75
4, 60463, Note_on_c, 1, 70, 0
4, 60464, Note_on_c, 1, 68, 75
4, 60479, Note_on_c, 1, 68, 0
4, 60480, Note_on_c, 1, 67, 75
4, 60500, Note_on_c, 1, 67, 0
4, 60528, Note_on_c, 1, 70, 75
4, 60548, Note_on_c, 1, 70, 0
4, 60576, Note_on_c, 1, 63, 75
4, 60596, Note_on_c, 1, 63, 0
4, 60624, Note_on_c, 1, 67, 75
4, 60644, Note_on_c, 1, 67, 0
4, 60688, Note_on_c, 1, 68, 75
4, 60703, Note_on_c, 1, 68, 0
4, 60704, Note_on_c, 1, 70, 75
4, 60719, Note_on_c, 1, 70, 0
4, 60720, Note_on_c, 1, 72, 75
4, 60735, Note_on_c, 1, 72, 0
4, 60736, Note_on_c, 1, 70, 75
4, 60751, Note_on_c, 1, 70, 0
4, 60752, Note_on_c, 1, 68, 75
4, 60767, Note_on_c, 1, 68, 0
4, 60768, Note_on_c, 1, 75, 75
4, 60783, Note_on_c, 1, 75, 0
4, 60784, Note_on_c, 1, 73, 75
4, 60799, Note_on_c, 1, 73, 0
4, 60800, Note_on_c, 1, 72, 75
4, 60815, Note_on_c, 1, 72, 0
4, 60816, Note_on_c, 1, 70, 75
4, 60831, Note_on_c, 1, 70, 0
4, 60832, Note_on_c, 1, 68, 75
4, 60847, Note_on_c, 1, 68, 0
4, 60848, Note_on_c, 1, 67, 75
4, 60863, Note_on_c, 1, 67, 0
4, 60864, Note_on_c, 1, 65, 75
4, 60884, Note_on_c, 1, 65, 0
4, 60912, Note_on_c, 1, 68, 75
4, 60932, Note_on_c, 1, 68, 0
4, 60960, Note_on_c, 1, 61, 75
4, 60980, Note_on_c, 1, 61, 0
4, 61008, Note_on_c, 1, 65, 75
4, 61028, Note_on_c, 1, 65, 0
4, 61072, Note_on_c, 1, 67, 75
4, 61087, Note_on_c, 1, 67, 0
4, 61088, Note_on_c, 1, 68, 75
4, 61103, Note_on_c, 1, 68, 0
4, 61104, Note_on_c, 1, 70, 75
4, 61119, Note_on_c, 1, 70, 0
4, 61120, Note_on_c, 1, 68, 75
4, 61135, Note_on_c, 1, 68, 0
4, 61136, Note_on_c, 1, 67, 75
4, 61151, Note_on_c, 1, 67, 0
4, 61152, Note_on_c, 1, 73, 75
4, 61167, Note_on_c, 1, 73, 0
4, 61168, Note_on_c, 1, 72, 75
4, 61183, Note_on_c, 1, 72, 0
4, 61184, Note_on_c, 1, 70, 75
4, 61199, Note_on_c, 1, 70, 0
4, 61200, Note_on_c, 1, 68, 75
4, 61215, Note_on_c, 1, 68, 0
4, 61216, Note_on_c, 1, 67, 75
4, 61231, Note_on_c, 1, 67, 0
4, 61232, Note_on_c, 1, 65, 75
4, 61247, Note_on_c, 1, 65, 0
4, 61248, Note_on_c, 1, 64, 75
4, 61268, Note_on_c, 1, 64, 0
4, 61296, Note_on_c, 1, 67, 75
4, 61316, Note_on_c, 1, 67, 0
4, 61344, Note_on_c, 1, 60, 75
4, 61364, Note_on_c, 1, 60, 0
4, 61392, Note_on_c, 1, 64, 75
4, 61412, Note_on_c, 1, 64, 0
4, 61456, Note_on_c, 1, 65, 84
4, 61471, Note_on_c, 1, 65, 0
4, 61472, Note_on_c, 1, 53, 84
4, 61487, Note_on_c, 1, 53, 0
4, 61504, Note_on_c, 1, 65, 84
4, 61519, Note_on_c, 1, 65, 0
4, 61520, Note_on_c, 1, 53, 84
4, 61535, Note_on_c, 1, 53, 0
4, 61552, Note_on_c, 1, 65, 84
4, 61567, Note_on_c, 1, 65, 0
4, 61568, Note_on_c, 1, 53, 84
4, 61583, Note_on_c, 1, 53, 0
4, 61600, Note_on_c, 1, 65, 84
4, 61615, Note_on_c, 1, 65, 0
4, 61616, Note_on_c, 1, 53, 84
4, 61631, Note_on_c, 1, 53, 0
4, 61648, Note_on_c, 1, 66, 75
4, 61663, Note_on_c, 1, 66, 0
4, 61664, Note_on_c, 1, 63, 75
4, 61679, Note_on_c, 1, 63, 0
4, 61696, Note_on_c, 1, 66, 75
4, 61711, Note_on_c, 1, 66, 0
4, 61712, Note_on_c, 1, 63, 75
4, 61727, Note_on_c, 1, 63, 0
4, 61744, Note_on_c, 1, 66, 75
4, 61759, Note_on_c, 1, 66, 0
4, 61760, Note_on_c, 1, 63, 75
4, 61775, Note_on_c, 1, 63, 0
4, 61792, Note_on_c, 1, 66, 75
4, 61807, Note_on_c, 1, 66, 0
4, 61808, Note_on_c, 1, 63, 75
4, 61823, Note_on_c, 1, 63, 0
4, 61824, Note_on_c, 1, 65, 84
4, 61824, Note_on_c, 1, 61, 84
4, 61844, Note_on_c, 1, 65, 0
4, 61844, Note_on_c, 1, 61, 0
4, 61872, Note_on_c, 1, 66, 84
4, 61872, Note_on_c, 1, 63, 84
4, 61892, Note_on_c, 1, 66, 0
4, 61892, Note_on_c, 1, 63, 0
4, 61920, Note_on_c, 1, 65, 84
4, 61920, Note_on_c, 1, 61, 84
4, 61940, Note_on_c, 1, 65, 0
4, 61940, Note_on_c, 1, 61, 0
4, 61968, Note_on_c, 1, 63, 84
4, 61968, Note_on_c, 1, 60, 84
4, 61988, Note_on_c, 1, 63, 0
4, 61988, Note_on_c, 1, 60, 0
4, 62016, Note_on_c, 1, 61, 84
4, 62016, Note_on_c, 1, 58, 84
4, 62036, Note_on_c, 1, 61, 0
4, 62036, Note_on_c, 1, 58, 0
4, 62064, Note_on_c, 1, 66, 84
4, 62064, Note_on_c, 1, 63, 84
4, 62084, Note_on_c, 1, 66, 0
4, 62084, Note_on_c, 1, 63, 0
4, 62112, Note_on_c, 1, 65, 84
4, 62112, Note_on_c, 1, 61, 84
4, 62132, Note_on_c, 1, 65, 0
4, 62132, Note_on_c, 1, 61, 0
4, 62160, Note_on_c, 1, 63, 84
4, 62160, Note_on_c, 1, 60, 84
4, 62180, Note_on_c, 1, 63, 0
4, 62180, Note_on_c, 1, 60, 0
4, 62208, Note_on_c, 1, 61, 84
4, 62208, Note_on_c, 1, 58, 84
4, 62228, Note_on_c, 1, 61, 0
4, 62228, Note_on_c, 1, 58, 0
4, 62256, Note_on_c, 1, 60, 84
4, 62256, Note_on_c, 1, 56, 84
4, 62276, Note_on_c, 1, 60, 0
4, 62276, Note_on_c, 1, 56, 0
4, 62304, Note_on_c, 1, 58, 84
4, 62304, Note_on_c, 1, 55, 84
4, 62324, Note_on_c, 1, 58, 0
4, 62324, Note_on_c, 1, 55, 0
4, 62352, Note_on_c, 1, 56, 84
4, 62352, Note_on_c, 1, 53, 84
4, 62372, Note_on_c, 1, 56, 0
4, 62372, Note_on_c, 1, 53, 0
4, 62400, Control_c, 1, 64, 127
4, 62400, Note_on_c, 1, 52, 126
4, 62400, Note_on_c, 1, 40, 126
4, 62447, Note_on_c, 1, 52, 0
4, 62447, Note_on_c, 1, 40, 0
4, 62448, Note_on_c, 1, 55, 84
4, 62468, Note_on_c, 1, 55, 0
4, 62496, Note_on_c, 1, 58, 86
4, 62516, Note_on_c, 1, 58, 0
4, 62544, Note_on_c, 1, 61, 88
4, 62564, Note_on_c, 1, 61, 0
4, 62592, Note_on_c, 1, 64, 107
4, 62612, Note_on_c, 1, 64, 0
4, 62640, Note_on_c, 1, 67, 93
4, 62660, Note_on_c, 1, 67, 0
4, 62688, Note_on_c, 1, 70, 96
4, 62708, Note_on_c, 1, 70, 0
4, 62736, Note_on_c, 1, 73, 98
4, 62756, Note_on_c, 1, 73, 0
4, 62784, Note_on_c, 1, 76, 101
4, 62804, Note_on_c, 1, 76, 0
4, 62832, Note_on_c, 1, 79, 103
4, 62852, Note_on_c, 1, 79, 0
4, 62880, Note_on_c, 1, 76, 106
4, 62900, Note_on_c, 1, 76, 0
4, 62928, Control_c, 1, 64, 0
4, 62928, Note_on_c, 1, 64, 95
4, 62948, Note_on_c, 1, 64, 0
4, 62976, Control_c, 1, 64, 127
4, 62976, Note_on_c, 1, 65, 126
4, 62976, Note_on_c, 1, 53, 126
4, 63023, Note_on_c, 1, 65, 0
4, 63023, Note_on_c, 1, 53, 0
4, 63024, Note_on_c, 1, 69, 84
4, 63044, Note_on_c, 1, 69, 0
4, 63072, Note_on_c, 1, 72, 88
4, 63092, Note_on_c, 1, 72, 0
4, 63120, Note_on_c, 1, 75, 92
4, 63140, Note_on_c, 1, 75, 0
4, 63168, Note_on_c, 1, 78, 97
4, 63188, Note_on_c, 1, 78, 0
4, 63216, Note_on_c, 1, 75, 101
4, 63236, Note_on_c, 1, 75, 0
4, 63264, Note_on_c, 1, 72, 106
4, 63284, Note_on_c, 1, 72, 0
4, 63312, Control_c, 1, 64, 0
4, 63312, Note_on_c, 1, 65, 95
4, 63332, Note_on_c, 1, 65, 0
4, 63360, Control_c, 1, 64, 127
4, 63360, Note_on_c, 1, 58, 126
4, 63360, Note_on_c, 1, 46, 126
4, 63407, Note_on_c, 1, 58, 0
4, 63407, Note_on_c, 1, 46, 0
4, 63408, Note_on_c, 1, 62, 84
4, 63428, Note_on_c, 1, 62, 0
4, 63456, Note_on_c, 1, 65, 88
4, 63476, Note_on_c, 1, 65, 0
4, 63504, Note_on_c, 1, 68, 92
4, 63524, Note_on_c, 1, 68, 0
4, 63552, Note_on_c, 1, 71, 97
4, 63572, Note_on_c, 1, 71, 0
4, 63600, Note_on_c, 1, 68, 101
4, 63620, Note_on_c, 1, 68, 0
4, 63648, Note_on_c, 1, 65, 106
4, 63668, Note_on_c, 1, 65, 0
4, 63696, Control_c, 1, 64, 0
4, 63696, Note_on_c, 1, 58, 95
4, 63716, Note_on_c, 1, 58, 0
4, 63744, Control_c, 1, 64, 127
4, 63744, Note_on_c, 1, 63, 126
4, 63744, Note_on_c, 1, 51, 126
4, 63791, Note_on_c, 1, 63, 0
4, 63791, Note_on_c, 1, 51, 0
4, 63792, Note_on_c, 1, 66, 84
4, 63812, Note_on_c, 1, 66, 0
4, 63840, Note_on_c, 1, 70, 84
4, 63860, Note_on_c, 1, 70, 0
4, 63888, Control_c, 1, 64, 0
4, 63888, Note_on_c, 1, 75, 84
4, 63908, Note_on_c, 1, 75, 0
4, 63952, Note_on_c, 1, 75, 84
4, 63967, Note_on_c, 1, 75, 0
4, 63968, Note_on_c, 1, 63, 84
4, 63983, Note_on_c, 1, 63, 0
4, 64000, Note_on_c, 1, 75, 84
4, 64015, Note_on_c, 1, 75, 0
4, 64016, Note_on_c, 1, 63, 84
4, 64031, Note_on_c, 1, 63, 0
4, 64048, Note_on_c, 1, 75, 84
4, 64063, Note_on_c, 1, 75, 0
4, 64064, Note_on_c, 1, 63, 84
4, 64079, Note_on_c, 1, 63, 0
4, 64096, Note_on_c, 1, 75, 84
4, 64111, Note_on_c, 1, 75, 0
4, 64112, Note_on_c, 1, 63, 84
4, 64127, Note_on_c, 1, 63, 0
4, 64128, Control_c, 1, 64, 127
4, 64128, Note_on_c, 1, 63, 91
4, 64148, Note_on_c, 1, 63, 0
4, 64176, Note_on_c, 1, 66, 75
4, 64196, Note_on_c, 1, 66, 0
4, 64224, Note_on_c, 1, 70, 75
4, 64244, Note_on_c, 1, 70, 0
4, 64272, Control_c, 1, 64, 0
4, 64272, Note_on_c, 1, 75, 75
4, 64292, Note_on_c, 1, 75, 0
4, 64336, Note_on_c, 1, 75, 75
4, 64351, Note_on_c, 1, 75, 0
4, 64352, Note_on_c, 1, 63, 75
4, 64367, Note_on_c, 1, 63, 0
4, 64384, Note_on_c, 1, 75, 75
4, 64399, Note_on_c, 1, 75, 0
4, 64400, Note_on_c, 1, 63, 75
4, 64415, Note_on_c, 1, 63, 0
4, 64432, Note_on_c, 1, 75, 75
4, 64447, Note_on_c, 1, 75, 0
4, 64448, Note_on_c, 1, 63, 75
4, 64463, Note_on_c, 1, 63, 0
4, 64480, Note_on_c, 1, 75, 75
4, 64495, Note_on_c, 1, 75, 0
4, 64496, Note_on_c, 1, 63, 75
4, 64511, Note_on_c, 1, 63, 0
4, 64512, Note_on_c, 1, 63, 75
4, 64532, Note_on_c, 1, 63, 0
4, 64560, Note_on_c, 1, 70, 75
4, 64580, Note_on_c, 1, 70, 0
4, 64608, Note_on_c, 1, 63, 75
4, 64628, Note_on_c, 1, 63, 0
4, 64656, Note_on_c, 1, 70, 75
4, 64676, Note_on_c, 1, 70, 0
4, 64704, Note_on_c, 1, 63, 75
4, 64724, Note_on_c, 1, 63, 0
4, 64752, Note_on_c, 1, 70, 75
4, 64772, Note_on_c, 1, 70, 0
4, 64800, Note_on_c, 1, 63, 75
4, 64820, Note_on_c, 1, 63, 0
4, 64848, Note_on_c, 1, 70, 75
4, 64868, Note_on_c, 1, 70, 0
4, 64896, Note_on_c, 1, 63, 75
4, 64916, Note_on_c, 1, 63, 0
4, 64944, Note_on_c, 1, 68, 75
4, 64964, Note_on_c, 1, 68, 0
4, 64992, Note_on_c, 1, 63, 75
4, 65012, Note_on_c, 1, 63, 0
4, 65040, Note_on_c, 1, 68, 75
4, 65060, Note_on_c, 1, 68, 0
4, 65088, Note_on_c, 1, 63, 75
4, 65108, Note_on_c, 1, 63, 0
4, 65136, Note_on_c, 1, 69, 75
4, 65156, Note_on_c, 1, 69, 0
4, 65184, Note_on_c, 1, 63, 75
4, 65204, Note_on_c, 1, 63, 0
4, 65232, Note_on_c, 1, 69, 75
4, 65252, Note_on_c, 1, 69, 0
4, 65280, Note_on_c, 1, 61, 75
4, 65300, Note_on_c, 1, 61, 0
4, 65328, Note_on_c, 1, 70, 75
4, 65348, Note_on_c, 1, 70, 0
4, 65376, Note_on_c, 1, 61, 75
4, 65396, Note_on_c, 1, 61, 0
4, 65424, Note_on_c, 1, 70, 75
4, 65444, Note_on_c, 1, 70, 0
4, 65472, Note_on_c, 1, 66, 75
4, 65492, Note_on_c, 1, 66, 0
4, 65520, Note_on_c, 1, 70, 75
4, 65540, Note_on_c, 1, 70, 0
4, 65568, Note_on_c, 1, 66, 75
4, 65588, Note_on_c, 1, 66, 0
4, 65616, Note_on_c, 1, 70, 75
4, 65636, Note_on_c, 1, 70, 0
4, 65664, Note_on_c, 1, 65, 75
4, 65684, Note_on_c, 1, 65, 0
4, 65712, Note_on_c, 1, 69, 75
4, 65732, Note_on_c, 1, 69, 0
4, 65760, Note_on_c, 1, 65, 75
4, 65780, Note_on_c, 1, 65, 0
4, 65808, Note_on_c, 1, 69, 75
4, 65828, Note_on_c, 1, 69, 0
4, 65856, Note_on_c, 1, 63, 75
4, 65876, Note_on_c, 1, 63, 0
4, 65904, Note_on_c, 1, 69, 75
4, 65924, Note_on_c, 1, 69, 0
4, 65952, Note_on_c, 1, 63, 75
4, 65972, Note_on_c, 1, 63, 0
4, 66000, Note_on_c, 1, 69, 75
4, 66020, Note_on_c, 1, 69, 0
4, 66048, Note_on_c, 1, 62, 75
4, 66068, Note_on_c, 1, 62, 0
4, 66096, Note_on_c, 1, 70, 75
4, 66116, Note_on_c, 1, 70, 0
4, 66144, Note_on_c, 1, 62, 75
4, 66164, Note_on_c, 1, 62, 0
4, 66192, Note_on_c, 1, 70, 75
4, 66212, Note_on_c, 1, 70, 0
4, 66240, Note_on_c, 1, 61, 75
4, 66260, Note_on_c, 1, 61, 0
4, 66288, Note_on_c, 1, 68, 75
4, 66308, Note_on_c, 1, 68, 0
4, 66336, Note_on_c, 1, 61, 75
4, 66356, Note_on_c, 1, 61, 0
4, 66384, Note_on_c, 1, 68, 75
4, 66404, Note_on_c, 1, 68, 0
4, 66448, Note_on_c, 1, 60, 75
4, 66463, Note_on_c, 1, 60, 0
4, 66464, Note_on_c, 1, 48, 75
4, 66479, Note_on_c, 1, 48, 0
4, 66496, Note_on_c, 1, 60, 75
4, 66511, Note_on_c, 1, 60, 0
4, 66512, Note_on_c, 1, 48, 75
4, 66527, Note_on_c, 1, 48, 0
4, 66544, Note_on_c, 1, 60, 75
4, 66559, Note_on_c, 1, 60, 0
4, 66560, Note_on_c, 1, 48, 75
4, 66575, Note_on_c, 1, 48, 0
4, 66592, Note_on_c, 1, 60, 75
4, 66607, Note_on_c, 1, 60, 0
4, 66608, Note_on_c, 1, 48, 75
4, 66623, Note_on_c, 1, 48, 0
4, 66640, Note_on_c, 1, 60, 75
4, 66655, Note_on_c, 1, 60, 0
4, 66656, Note_on_c, 1, 48, 75
4, 66671, Note_on_c, 1, 48, 0
4, 66688, Note_on_c, 1, 60, 75
4, 66703, Note_on_c, 1, 60, 0
4, 66704, Note_on_c, 1, 48, 75
4, 66719, Note_on_c, 1, 48, 0
4, 66736, Note_on_c, 1, 60, 75
4, 66751, Note_on_c, 1, 60, 0
4, 66752, Note_on_c, 1, 48, 75
4, 66767, Note_on_c, 1, 48, 0
4, 66784, Note_on_c, 1, 60, 75
4, 66799, Note_on_c, 1, 60, 0
4, 66800, Note_on_c, 1, 48, 75
4, 66815, Note_on_c, 1, 48, 0
4, 66832, Note_on_c, 1, 48, 75
4, 66847, Note_on_c, 1, 48, 0
4, 66848, Note_on_c, 1, 36, 75
4, 66863, Note_on_c, 1, 36, 0
4, 66880, Note_on_c, 1, 48, 75
4, 66895, Note_on_c, 1, 48, 0
4, 66896, Note_on_c, 1, 36, 75
4, 66911, Note_on_c, 1, 36, 0
4, 66928, Note_on_c, 1, 48, 75
4, 66943, Note_on_c, 1, 48, 0
4, 66944, Note_on_c, 1, 36, 75
4, 66959, Note_on_c, 1, 36, 0
4, 66976, Note_on_c, 1, 48, 75
4, 66991, Note_on_c, 1, 48, 0
4, 66992, Note_on_c, 1, 36, 75
4, 67007, Note_on_c, 1, 36, 0
4, 67024, Note_on_c, 1, 48, 75
4, 67039, Note_on_c, 1, 48, 0
4, 67040, Note_on_c, 1, 36, 75
4, 67055, Note_on_c, 1, 36, 0
4, 67072, Note_on_c, 1, 48, 75
4, 67087, Note_on_c, 1, 48, 0
4, 67088, Note_on_c, 1, 36, 75
4, 67103, Note_on_c, 1, 36, 0
4, 67120, Note_on_c, 1, 48, 75
4, 67135, Note_on_c, 1, 48, 0
4, 67136, Note_on_c, 1, 36, 75
4, 67151, Note_on_c, 1, 36, 0
4, 67168, Note_on_c, 1, 48, 75
4, 67183, Note_on_c, 1, 48, 0
4, 67184, Note_on_c, 1, 36, 75
4, 67199, Note_on_c, 1, 36, 0
4, 67216, Note_on_c, 1, 48, 75
4, 67231, Note_on_c, 1, 48, 0
4, 67232, Note_on_c, 1, 36, 75
4, 67247, Note_on_c, 1, 36, 0
4, 67264, Note_on_c, 1, 48, 75
4, 67279, Note_on_c, 1, 48, 0
4, 67280, Note_on_c, 1, 36, 75
4, 67295, Note_on_c, 1, 36, 0
4, 67312, Note_on_c, 1, 48, 75
4, 67327, Note_on_c, 1, 48, 0
4, 67328, Note_on_c, 1, 36, 75
4, 67343, Note_on_c, 1, 36, 0
4, 67360, Note_on_c, 1, 48, 75
4, 67375, Note_on_c, 1, 48, 0
4, 67376, Note_on_c, 1, 36, 75
4, 67391, Note_on_c, 1, 36, 0
4, 67408, Note_on_c, 1, 48, 75
4, 67423, Note_on_c, 1, 48, 0
4, 67424, Note_on_c, 1, 36, 75
4, 67533, Note_on_c, 1, 36, 0
4, 67632, Note_on_c, 1, 68, 61
4, 67632, Note_on_c, 1, 65, 61
4, 67679, Note_on_c, 1, 68, 0
4, 67679, Note_on_c, 1, 65, 0
4, 67680, Note_on_c, 1, 68, 61
4, 67680, Note_on_c, 1, 65, 61
4, 67727, Note_on_c, 1, 68, 0
4, 67727, Note_on_c, 1, 65, 0
4, 67728, Note_on_c, 1, 68, 61
4, 67728, Note_on_c, 1, 65, 61
4, 67775, Note_on_c, 1, 68, 0
4, 67775, Note_on_c, 1, 65, 0
4, 67824, Note_on_c, 1, 70, 61
4, 67824, Note_on_c, 1, 67, 61
4, 67871, Note_on_c, 1, 70, 0
4, 67871, Note_on_c, 1, 67, 0
4, 67872, Note_on_c, 1, 70, 61
4, 67872, Note_on_c, 1, 67, 61
4, 67919, Note_on_c, 1, 70, 0
4, 67919, Note_on_c, 1, 67, 0
4, 67920, Note_on_c, 1, 70, 61
4, 67920, Note_on_c, 1, 67, 61
4, 67967, Note_on_c, 1, 70, 0
4, 67967, Note_on_c, 1, 67, 0
4, 68016, Note_on_c, 1, 67, 61
4, 68016, Note_on_c, 1, 64, 61
4, 68063, Note_on_c, 1, 67, 0
4, 68063, Note_on_c, 1, 64, 0
4, 68064, Note_on_c, 1, 67, 61
4, 68064, Note_on_c, 1, 64, 61
4, 68111, Note_on_c, 1, 67, 0
4, 68111, Note_on_c, 1, 64, 0
4, 68112, Note_on_c, 1, 67, 61
4, 68112, Note_on_c, 1, 64, 61
4, 68159, Note_on_c, 1, 67, 0
4, 68159, Note_on_c, 1, 64, 0
4, 68208, Note_on_c, 1, 66, 61
4, 68208, Note_on_c, 1, 63, 61
4, 68255, Note_on_c, 1, 66, 0
4, 68255, Note_on_c, 1, 63, 0
4, 68256, Note_on_c, 1, 66, 61
4, 68256, Note_on_c, 1, 63, 61
4, 68303, Note_on_c, 1, 66, 0
4, 68303, Note_on_c, 1, 63, 0
4, 68304, Note_on_c, 1, 66, 61
4, 68304, Note_on_c, 1, 63, 61
4, 68351, Note_on_c, 1, 66, 0
4, 68351, Note_on_c, 1, 63, 0
4, 68400, Note_on_c, 1, 66, 61
4, 68400, Note_on_c, 1, 63, 61
4, 68447, Note_on_c, 1, 66, 0
4, 68447, Note_on_c, 1, 63, 0
4, 68448, Note_on_c, 1, 66, 61
4, 68448, Note_on_c, 1, 63, 61
4, 68495, Note_on_c, 1, 66, 0
4, 68495, Note_on_c, 1, 63, 0
4, 68496, Note_on_c, 1, 66, 61
4, 68496, Note_on_c, 1, 63, 61
4, 68543, Note_on_c, 1, 66, 0
4, 68543, Note_on_c, 1, 63, 0
4, 68592, Note_on_c, 1, 65, 61
4, 68592, Note_on_c, 1, 61, 61
4, 68639, Note_on_c, 1, 65, 0
4, 68639, Note_on_c, 1, 61, 0
4, 68640, Note_on_c, 1, 65, 63
4, 68640, Note_on_c, 1, 61, 63
4, 68687, Note_on_c, 1, 65, 0
4, 68687, Note_on_c, 1, 61, 0
4, 68688, Note_on_c, 1, 65, 66
4, 68688, Note_on_c, 1, 61, 66
4, 68735, Note_on_c, 1, 65, 0
4, 68735, Note_on_c, 1, 61, 0
4, 68784, Note_on_c, 1, 65, 69
4, 68784, Note_on_c, 1, 61, 69
4, 68831, Note_on_c, 1, 65, 0
4, 68831, Note_on_c, 1, 61, 0
4, 68832, Note_on_c, 1, 65, 66
4, 68832, Note_on_c, 1, 61, 66
4, 68879, Note_on_c, 1, 65, 0
4, 68879, Note_on_c, 1, 61, 0
4, 68880, Note_on_c, 1, 65, 63
4, 68880, Note_on_c, 1, 61, 63
4, 68927, Note_on_c, 1, 65, 0
4, 68927, Note_on_c, 1, 61, 0
4, 68928, Note_on_c, 1, 64, 61
4, 68928, Note_on_c, 1, 60, 61
4, 69022, Note_on_c, 1, 64, 0
4, 69022, Note_on_c, 1, 60, 0
4, 69312, Note_on_c, 1, 73, 84
4, 69312, Note_on_c, 1, 70, 84
4, 69312, Note_on_c, 1, 67, 84
4, 69312, Note_on_c, 1, 64, 84
4, 69401, Note_on_c, 1, 73, 0
4, 69401, Note_on_c, 1, 70, 0
4, 69401, Note_on_c, 1, 67, 0
4, 69401, Note_on_c, 1, 64, 0
4, 69504, Note_on_c, 1, 72, 69
4, 69504, Note_on_c, 1, 68, 69
4, 69504, Note_on_c, 1, 65, 69
4, 69593, Note_on_c, 1, 72, 0
4, 69593, Note_on_c, 1, 68, 0
4, 69593, Note_on_c, 1, 65, 0
4, 69744, Note_on_c, 1, 59, 84
4, 69744, Note_on_c, 1, 47, 84
4, 69789, Note_on_c, 1, 59, 0
4, 69789, Note_on_c, 1, 47, 0
4, 69792, Note_on_c, 1, 60, 84
4, 69792, Note_on_c, 1, 48, 84
4, 69837, Note_on_c, 1, 60, 0
4, 69837, Note_on_c, 1, 48, 0
4, 69840, Note_on_c, 1, 48, 84
4, 69840, Note_on_c, 1, 36, 84
4, 69885, Note_on_c, 1, 48, 0
4, 69885, Note_on_c, 1, 36, 0
4, 69888, Note_on_c, 1, 41, 84
4, 69888, Note_on_c, 1, 29, 84
4, 69977, Note_on_c, 1, 41, 0
4, 69977, Note_on_c, 1, 29, 0
4, 70272, Note_on_c, 1, 73, 84
4, 70272, Note_on_c, 1, 70, 84
4, 70272, Note_on_c, 1, 67, 84
4, 70272, Note_on_c, 1, 64, 84
4, 70361, Note_on_c, 1, 73, 0
4, 70361, Note_on_c, 1, 70, 0
4, 70361, Note_on_c, 1, 67, 0
4, 70361, Note_on_c, 1, 64, 0
4, 70464, Note_on_c, 1, 72, 69
4, 70464, Note_on_c, 1, 68, 69
4, 70464, Note_on_c, 1, 65, 69
4, 70553, Note_on_c, 1, 72, 0
4, 70553, Note_on_c, 1, 68, 0
4, 70553, Note_on_c, 1, 65, 0
4, 70704, Note_on_c, 1, 59, 84
4, 70704, Note_on_c, 1, 47, 84
4, 70749, Note_on_c, 1, 59, 0
4, 70749, Note_on_c, 1, 47, 0
4, 70752, Note_on_c, 1, 60, 84
4, 70752, Note_on_c, 1, 48, 84
4, 70797, Note_on_c, 1, 60, 0
4, 70797, Note_on_c, 1, 48, 0
4, 70800, Note_on_c, 1, 48, 84
4, 70800, Note_on_c, 1, 36, 84
4, 70845, Note_on_c, 1, 48, 0
4, 70845, Note_on_c, 1, 36, 0
4, 70848, Note_on_c, 1, 41, 84
4, 70848, Note_on_c, 1, 29, 84
4, 70893, Note_on_c, 1, 41, 0
4, 70893, Note_on_c, 1, 29, 0
4, 70896, Note_on_c, 1, 56, 61
4, 70896, Note_on_c, 1, 53, 61
4, 70943, Note_on_c, 1, 56, 0
4, 70943, Note_on_c, 1, 53, 0
4, 70944, Note_on_c, 1, 56, 61
4, 70944, Note_on_c, 1, 53, 61
4, 70991, Note_on_c, 1, 56, 0
4, 70991, Note_on_c, 1, 53, 0
4, 70992, Note_on_c, 1, 56, 61
4, 70992, Note_on_c, 1, 53, 61
4, 71039, Note_on_c, 1, 56, 0
4, 71039, Note_on_c, 1, 53, 0
4, 71088, Note_on_c, 1, 56, 61
4, 71088, Note_on_c, 1, 53, 61
4, 71135, Note_on_c, 1, 56, 0
4, 71135, Note_on_c, 1, 53, 0
4, 71136, Note_on_c, 1, 56, 61
4, 71136, Note_on_c, 1, 53, 61
4, 71183, Note_on_c, 1, 56, 0
4, 71183, Note_on_c, 1, 53, 0
4, 71184, Note_on_c, 1, 56, 61
4, 71184, Note_on_c, 1, 53, 61
4, 71231, Note_on_c, 1, 56, 0
4, 71231, Note_on_c, 1, 53, 0
4, 71280, Note_on_c, 1, 56, 61
4, 71280, Note_on_c, 1, 53, 61
4, 71327, Note_on_c, 1, 56, 0
4, 71327, Note_on_c, 1, 53, 0
4, 71376, Note_on_c, 1, 56, 61
4, 71376, Note_on_c, 1, 53, 61
4, 71423, Note_on_c, 1, 56, 0
4, 71423, Note_on_c, 1, 53, 0
4, 71472, Note_on_c, 1, 56, 53
4, 71472, Note_on_c, 1, 53, 53
4, 71519, Note_on_c, 1, 56, 0
4, 71519, Note_on_c, 1, 53, 0
4, 71520, Note_on_c, 1, 56, 60
4, 71520, Note_on_c, 1, 53, 60
4, 71567, Note_on_c, 1, 56, 0
4, 71567, Note_on_c, 1, 53, 0
4, 71568, Note_on_c, 1, 56, 67
4, 71568, Note_on_c, 1, 53, 67
4, 71615, Note_on_c, 1, 56, 0
4, 71615, Note_on_c, 1, 53, 0
4, 71664, Note_on_c, 1, 56, 75
4, 71664, Note_on_c, 1, 51, 75
4, 71664, Note_on_c, 1, 48, 75
4, 71711, Note_on_c, 1, 56, 0
4, 71711, Note_on_c, 1, 51, 0
4, 71711, Note_on_c, 1, 48, 0
4, 71712, Note_on_c, 1, 56, 75
4, 71712, Note_on_c, 1, 51, 75
4, 71712, Note_on_c, 1, 48, 75
4, 71759, Note_on_c, 1, 56, 0
4, 71759, Note_on_c, 1, 51, 0
4, 71759, Note_on_c, 1, 48, 0
4, 71760, Note_on_c, 1, 56, 75
4, 71760, Note_on_c, 1, 51, 75
4, 71760, Note_on_c, 1, 48, 75
4, 71807, Note_on_c, 1, 56, 0
4, 71807, Note_on_c, 1, 51, 0
4, 71807, Note_on_c, 1, 48, 0
4, 71856, Note_on_c, 1, 56, 75
4, 71856, Note_on_c, 1, 49, 75
4, 71903, Note_on_c, 1, 56, 0
4, 71903, Note_on_c, 1, 49, 0
4, 71904, Note_on_c, 1, 56, 75
4, 71904, Note_on_c, 1, 49, 75
4, 71951, Note_on_c, 1, 56, 0
4, 71951, Note_on_c, 1, 49, 0
4, 71952, Note_on_c, 1, 56, 75
4, 71952, Note_on_c, 1, 49, 75
4, 71999, Note_on_c, 1, 56, 0
4, 71999, Note_on_c, 1, 49, 0
4, 72048, Note_on_c, 1, 53, 75
4, 72048, Note_on_c, 1, 45, 75
4, 72095, Note_on_c, 1, 53, 0
4, 72095, Note_on_c, 1, 45, 0
4, 72096, Note_on_c, 1, 53, 75
4, 72096, Note_on_c, 1, 45, 75
4, 72143, Note_on_c, 1, 53, 0
4, 72143, Note_on_c, 1, 45, 0
4, 72144, Note_on_c, 1, 53, 75
4, 72144, Note_on_c, 1, 45, 75
4, 72191, Note_on_c, 1, 53, 0
4, 72191, Note_on_c, 1, 45, 0
4, 72240, Note_on_c, 1, 53, 75
4, 72240, Note_on_c, 1, 46, 75
4, 72287, Note_on_c, 1, 53, 0
4, 72287, Note_on_c, 1, 46, 0
4, 72288, Note_on_c, 1, 53, 75
4, 72288, Note_on_c, 1, 46, 75
4, 72335, Note_on_c, 1, 53, 0
4, 72335, Note_on_c, 1, 46, 0
4, 72336, Note_on_c, 1, 53, 75
4, 72336, Note_on_c, 1, 46, 75
4, 72383, Note_on_c, 1, 53, 0
4, 72383, Note_on_c, 1, 46, 0
4, 72432, Note_on_c, 1, 51, 75
4, 72432, Note_on_c, 1, 43, 75
4, 72479, Note_on_c, 1, 51, 0
4, 72479, Note_on_c, 1, 43, 0
4, 72480, Note_on_c, 1, 51, 75
4, 72480, Note_on_c, 1, 43, 75
4, 72527, Note_on_c, 1, 51, 0
4, 72527, Note_on_c, 1, 43, 0
4, 72528, Note_on_c, 1, 51, 75
4, 72528, Note_on_c, 1, 43, 75
4, 72575, Note_on_c, 1, 51, 0
4, 72575, Note_on_c, 1, 43, 0
4, 72624, Note_on_c, 1, 60, 69
4, 72624, Note_on_c, 1, 56, 69
4, 72671, Note_on_c, 1, 60, 0
4, 72671, Note_on_c, 1, 56, 0
4, 72672, Note_on_c, 1, 60, 69
4, 72672, Note_on_c, 1, 56, 69
4, 72719, Note_on_c, 1, 60, 0
4, 72719, Note_on_c, 1, 56, 0
4, 72720, Note_on_c, 1, 60, 69
4, 72720, Note_on_c, 1, 56, 69
4, 72767, Note_on_c, 1, 60, 0
4, 72767, Note_on_c, 1, 56, 0
4, 72816, Note_on_c, 1, 58, 69
4, 72816, Note_on_c, 1, 55, 69
4, 72863, Note_on_c, 1, 58, 0
4, 72863, Note_on_c, 1, 55, 0
4, 72864, Note_on_c, 1, 58, 69
4, 72864, Note_on_c, 1, 55, 69
4, 72911, Note_on_c, 1, 58, 0
4, 72911, Note_on_c, 1, 55, 0
4, 72912, Note_on_c, 1, 58, 69
4, 72912, Note_on_c, 1, 55, 69
4, 72959, Note_on_c, 1, 58, 0
4, 72959, Note_on_c, 1, 55, 0
4, 73008, Note_on_c, 1, 63, 69
4, 73008, Note_on_c, 1, 56, 69
4, 73055, Note_on_c, 1, 63, 0
4, 73055, Note_on_c, 1, 56, 0
4, 73056, Note_on_c, 1, 63, 69
4, 73056, Note_on_c, 1, 56, 69
4, 73103, Note_on_c, 1, 63, 0
4, 73103, Note_on_c, 1, 56, 0
4, 73104, Note_on_c, 1, 63, 69
4, 73104, Note_on_c, 1, 56, 69
4, 73151, Note_on_c, 1, 63, 0
4, 73151, Note_on_c, 1, 56, 0
4, 73200, Note_on_c, 1, 65, 69
4, 73200, Note_on_c, 1, 61, 69
4, 73247, Note_on_c, 1, 65, 0
4, 73247, Note_on_c, 1, 61, 0
4, 73248, Note_on_c, 1, 65, 69
4, 73248, Note_on_c, 1, 61, 69
4, 73295, Note_on_c, 1, 65, 0
4, 73295, Note_on_c, 1, 61, 0
4, 73296, Note_on_c, 1, 65, 69
4, 73296, Note_on_c, 1, 61, 69
4, 73343, Note_on_c, 1, 65, 0
4, 73343, Note_on_c, 1, 61, 0
4, 73392, Note_on_c, 1, 63, 69
4, 73392, Note_on_c, 1, 60, 69
4, 73439, Note_on_c, 1, 63, 0
4, 73439, Note_on_c, 1, 60, 0
4, 73440, Note_on_c, 1, 63, 69
4, 73440, Note_on_c, 1, 60, 69
4, 73487, Note_on_c, 1, 63, 0
4, 73487, Note_on_c, 1, 60, 0
4, 73488, Note_on_c, 1, 63, 69
4, 73488, Note_on_c, 1, 60, 69
4, 73535, Note_on_c, 1, 63, 0
4, 73535, Note_on_c, 1, 60, 0
4, 73536, Note_on_c, 1, 63, 69
4, 73536, Note_on_c, 1, 60, 69
4, 73644, Note_on_c, 1, 63, 0
4, 73644, Note_on_c, 1, 60, 0
4, 73968, Note_on_c, 1, 56, 69
4, 73968, Note_on_c, 1, 49, 69
4, 74015, Note_on_c, 1, 56, 0
4, 74015, Note_on_c, 1, 49, 0
4, 74016, Note_on_c, 1, 56, 69
4, 74016, Note_on_c, 1, 49, 69
4, 74063, Note_on_c, 1, 56, 0
4, 74063, Note_on_c, 1, 49, 0
4, 74064, Note_on_c, 1, 56, 69
4, 74064, Note_on_c, 1, 49, 69
4, 74111, Note_on_c, 1, 56, 0
4, 74111, Note_on_c, 1, 49, 0
4, 74160, Note_on_c, 1, 51, 69
4, 74160, Note_on_c, 1, 48, 69
4, 74207, Note_on_c, 1, 51, 0
4, 74207, Note_on_c, 1, 48, 0
4, 74208, Note_on_c, 1, 51, 69
4, 74208, Note_on_c, 1, 48, 69
4, 74255, Note_on_c, 1, 51, 0
4, 74255, Note_on_c, 1, 48, 0
4, 74256, Note_on_c, 1, 53, 69
4, 74256, Note_on_c, 1, 49, 69
4, 74303, Note_on_c, 1, 53, 0
4, 74303, Note_on_c, 1, 49, 0
4, 74352, Note_on_c, 1, 60, 69
4, 74352, Note_on_c, 1, 51, 69
4, 74399, Note_on_c, 1, 60, 0
4, 74399, Note_on_c, 1, 51, 0
4, 74400, Note_on_c, 1, 58, 69
4, 74400, Note_on_c, 1, 51, 69
4, 74447, Note_on_c, 1, 58, 0
4, 74447, Note_on_c, 1, 51, 0
4, 74448, Note_on_c, 1, 58, 69
4, 74448, Note_on_c, 1, 51, 69
4, 74495, Note_on_c, 1, 58, 0
4, 74495, Note_on_c, 1, 51, 0
4, 74544, Note_on_c, 1, 56, 69
4, 74544, Note_on_c, 1, 44, 69
4, 74591, Note_on_c, 1, 56, 0
4, 74591, Note_on_c, 1, 44, 0
4, 74592, Note_on_c, 1, 51, 69
4, 74592, Note_on_c, 1, 44, 69
4, 74639, Note_on_c, 1, 51, 0
4, 74639, Note_on_c, 1, 44, 0
4, 74640, Note_on_c, 1, 51, 69
4, 74640, Note_on_c, 1, 44, 69
4, 74687, Note_on_c, 1, 51, 0
4, 74687, Note_on_c, 1, 44, 0
4, 74736, Note_on_c, 1, 59, 61
4, 74736, Note_on_c, 1, 56, 61
4, 74783, Note_on_c, 1, 59, 0
4, 74783, Note_on_c, 1, 56, 0
4, 74784, Note_on_c, 1, 59, 61
4, 74784, Note_on_c, 1, 56, 61
4, 74831, Note_on_c, 1, 59, 0
4, 74831, Note_on_c, 1, 56, 0
4, 74832, Note_on_c, 1, 59, 61
4, 74832, Note_on_c, 1, 56, 61
4, 74879, Note_on_c, 1, 59, 0
4, 74879, Note_on_c, 1, 56, 0
4, 74928, Note_on_c, 1, 58, 61
4, 74928, Note_on_c, 1, 55, 61
4, 74975, Note_on_c, 1, 58, 0
4, 74975, Note_on_c, 1, 55, 0
4, 74976, Note_on_c, 1, 58, 61
4, 74976, Note_on_c, 1, 55, 61
4, 75023, Note_on_c, 1, 58, 0
4, 75023, Note_on_c, 1, 55, 0
4, 75024, Note_on_c, 1, 58, 61
4, 75024, Note_on_c, 1, 55, 61
4, 75071, Note_on_c, 1, 58, 0
4, 75071, Note_on_c, 1, 55, 0
4, 75120, Note_on_c, 1, 63, 61
4, 75120, Note_on_c, 1, 56, 61
4, 75167, Note_on_c, 1, 63, 0
4, 75167, Note_on_c, 1, 56, 0
4, 75168, Note_on_c, 1, 63, 61
4, 75168, Note_on_c, 1, 56, 61
4, 75215, Note_on_c, 1, 63, 0
4, 75215, Note_on_c, 1, 56, 0
4, 75216, Note_on_c, 1, 59, 61
4, 75216, Note_on_c, 1, 56, 61
4, 75263, Note_on_c, 1, 59, 0
4, 75263, Note_on_c, 1, 56, 0
4, 75312, Note_on_c, 1, 59, 61
4, 75312, Note_on_c, 1, 56, 61
4, 75359, Note_on_c, 1, 59, 0
4, 75359, Note_on_c, 1, 56, 0
4, 75360, Note_on_c, 1, 59, 61
4, 75360, Note_on_c, 1, 56, 61
4, 75407, Note_on_c, 1, 59, 0
4, 75407, Note_on_c, 1, 56, 0
4, 75408, Note_on_c, 1, 59, 61
4, 75408, Note_on_c, 1, 56, 61
4, 75455, Note_on_c, 1, 59, 0
4, 75455, Note_on_c, 1, 56, 0
4, 75504, Note_on_c, 1, 58, 61
4, 75504, Note_on_c, 1, 54, 61
4, 75551, Note_on_c, 1, 58, 0
4, 75551, Note_on_c, 1, 54, 0
4, 75552, Note_on_c, 1, 58, 61
4, 75552, Note_on_c, 1, 54, 61
4, 75599, Note_on_c, 1, 58, 0
4, 75599, Note_on_c, 1, 54, 0
4, 75600, Note_on_c, 1, 58, 61
4, 75600, Note_on_c, 1, 54, 61
4, 75647, Note_on_c, 1, 58, 0
4, 75647, Note_on_c, 1, 54, 0
4, 75696, Note_on_c, 1, 56, 61
4, 75696, Note_on_c, 1, 52, 61
4, 75743, Note_on_c, 1, 56, 0
4, 75743, Note_on_c, 1, 52, 0
4, 75744, Note_on_c, 1, 56, 61
4, 75744, Note_on_c, 1, 52, 61
4, 75791, Note_on_c, 1, 56, 0
4, 75791, Note_on_c, 1, 52, 0
4, 75792, Note_on_c, 1, 56, 61
4, 75792, Note_on_c, 1, 52, 61
4, 75839, Note_on_c, 1, 56, 0
4, 75839, Note_on_c, 1, 52, 0
4, 75888, Note_on_c, 1, 55, 61
4, 75888, Note_on_c, 1, 51, 61
4, 75935, Note_on_c, 1, 55, 0
4, 75935, Note_on_c, 1, 51, 0
4, 75936, Note_on_c, 1, 55, 61
4, 75936, Note_on_c, 1, 51, 61
4, 75983, Note_on_c, 1, 55, 0
4, 75983, Note_on_c, 1, 51, 0
4, 75984, Note_on_c, 1, 55, 61
4, 75984, Note_on_c, 1, 51, 61
4, 76031, Note_on_c, 1, 55, 0
4, 76031, Note_on_c, 1, 51, 0
4, 76032, Note_on_c, 1, 61, 75
4, 76032, Note_on_c, 1, 58, 75
4, 76032, Note_on_c, 1, 51, 75
4, 76121, Note_on_c, 1, 61, 0
4, 76121, Note_on_c, 1, 58, 0
4, 76121, Note_on_c, 1, 51, 0
4, 76128, Note_on_c, 1, 60, 75
4, 76128, Note_on_c, 1, 56, 75
4, 76128, Note_on_c, 1, 51, 75
4, 76217, Note_on_c, 1, 60, 0
4, 76217, Note_on_c, 1, 56, 0
4, 76217, Note_on_c, 1, 51, 0
4, 76224, Note_on_c, 1, 58, 75
4, 76224, Note_on_c, 1, 55, 75
4, 76224, Note_on_c, 1, 51, 75
4, 76313, Note_on_c, 1, 58, 0
4, 76313, Note_on_c, 1, 55, 0
4, 76313, Note_on_c, 1, 51, 0
4, 76416, Note_on_c, 1, 61, 75
4, 76416, Note_on_c, 1, 58, 75
4, 76416, Note_on_c, 1, 51, 75
4, 76505, Note_on_c, 1, 61, 0
4, 76505, Note_on_c, 1, 58, 0
4, 76505, Note_on_c, 1, 51, 0
4, 76512, Note_on_c, 1, 60, 75
4, 76512, Note_on_c, 1, 56, 75
4, 76512, Note_on_c, 1, 51, 75
4, 76601, Note_on_c, 1, 60, 0
4, 76601, Note_on_c, 1, 56, 0
4, 76601, Note_on_c, 1, 51, 0
4, 76608, Note_on_c, 1, 58, 75
4, 76608, Note_on_c, 1, 55, 75
4, 76608, Note_on_c, 1, 51, 75
4, 76697, Note_on_c, 1, 58, 0
4, 76697, Note_on_c, 1, 55, 0
4, 76697, Note_on_c, 1, 51, 0
4, 76800, Note_on_c, 1, 51, 84
4, 76820, Note_on_c, 1, 51, 0
4, 76848, Note_on_c, 1, 51, 84
4, 76868, Note_on_c, 1, 51, 0
4, 76896, Note_on_c, 1, 51, 84
4, 76916, Note_on_c, 1, 51, 0
4, 76944, Note_on_c, 1, 51, 84
4, 76964, Note_on_c, 1, 51, 0
4, 76992, Note_on_c, 1, 51, 84
4, 77012, Note_on_c, 1, 51, 0
4, 77040, Note_on_c, 1, 51, 84
4, 77060, Note_on_c, 1, 51, 0
4, 77088, Note_on_c, 1, 51, 84
4, 77108, Note_on_c, 1, 51, 0
4, 77136, Note_on_c, 1, 51, 84
4, 77156, Note_on_c, 1, 51, 0
4, 77184, Note_on_c, 1, 51, 84
4, 77204, Note_on_c, 1, 51, 0
4, 77232, Note_on_c, 1, 51, 84
4, 77252, Note_on_c, 1, 51, 0
4, 77280, Note_on_c, 1, 51, 84
4, 77300, Note_on_c, 1, 51, 0
4, 77328, Note_on_c, 1, 51, 84
4, 77348, Note_on_c, 1, 51, 0
4, 77376, Note_on_c, 1, 51, 84
4, 77396, Note_on_c, 1, 51, 0
4, 77424, Note_on_c, 1, 51, 84
4, 77444, Note_on_c, 1, 51, 0
4, 77472, Note_on_c, 1, 51, 84
4, 77492, Note_on_c, 1, 51, 0
4, 77520, Note_on_c, 1, 51, 84
4, 77540, Note_on_c, 1, 51, 0
4, 77568, Note_on_c, 1, 51, 84
4, 77753, Note_on_c, 1, 51, 0
4, 77968, Note_on_c, 1, 56, 69
4, 77983, Note_on_c, 1, 56, 0
4, 77984, Note_on_c, 1, 58, 69
4, 77999, Note_on_c, 1, 58, 0
4, 78000, Note_on_c, 1, 60, 69
4, 78015, Note_on_c, 1, 60, 0
4, 78016, Note_on_c, 1, 58, 69
4, 78031, Note_on_c, 1, 58, 0
4, 78032, Note_on_c, 1, 56, 69
4, 78047, Note_on_c, 1, 56, 0
4, 78048, Note_on_c, 1, 55, 69
4, 78063, Note_on_c, 1, 55, 0
4, 78064, Note_on_c, 1, 58, 69
4, 78079, Note_on_c, 1, 58, 0
4, 78080, Note_on_c, 1, 63, 69
4, 78095, Note_on_c, 1, 63, 0
4, 78096, Note_on_c, 1, 67, 69
4, 78111, Note_on_c, 1, 67, 0
4, 78112, Note_on_c, 1, 65, 69
4, 78127, Note_on_c, 1, 65, 0
4, 78128, Note_on_c, 1, 63, 69
4, 78143, Note_on_c, 1, 63, 0
4, 78144, Note_on_c, 1, 68, 69
4, 78233, Note_on_c, 1, 68, 0
4, 78352, Note_on_c, 1, 56, 69
4, 78367, Note_on_c, 1, 56, 0
4, 78368, Note_on_c, 1, 58, 69
4, 78383, Note_on_c, 1, 58, 0
4, 78384, Note_on_c, 1, 60, 69
4, 78399, Note_on_c, 1, 60, 0
4, 78400, Note_on_c, 1, 58, 69
4, 78415, Note_on_c, 1, 58, 0
4, 78416, Note_on_c, 1, 56, 69
4, 78431, Note_on_c, 1, 56, 0
4, 78432, Note_on_c, 1, 55, 69
4, 78447, Note_on_c, 1, 55, 0
4, 78448, Note_on_c, 1, 58, 69
4, 78463, Note_on_c, 1, 58, 0
4, 78464, Note_on_c, 1, 63, 69
4, 78479, Note_on_c, 1, 63, 0
4, 78480, Note_on_c, 1, 67, 69
4, 78495, Note_on_c, 1, 67, 0
4, 78496, Note_on_c, 1, 65, 69
4, 78511, Note_on_c, 1, 65, 0
4, 78512, Note_on_c, 1, 63, 69
4, 78527, Note_on_c, 1, 63, 0
4, 78528, Note_on_c, 1, 68, 69
4, 78617, Note_on_c, 1, 68, 0
4, 78720, Note_on_c, 1, 58, 75
4, 78720, Note_on_c, 1, 53, 75
4, 78720, Note_on_c, 1, 49, 75
4, 78809, Note_on_c, 1, 58, 0
4, 78809, Note_on_c, 1, 53, 0
4, 78809, Note_on_c, 1, 49, 0
4, 78912, Note_on_c, 1, 61, 75
4, 78912, Note_on_c, 1, 58, 75
4, 78912, Note_on_c, 1, 51, 75
4, 79001, Note_on_c, 1, 61, 0
4, 79001, Note_on_c, 1, 58, 0
4, 79001, Note_on_c, 1, 51, 0
4, 79104, Note_on_c, 1, 61, 75
4, 79149, Note_on_c, 1, 61, 0
4, 79152, Note_on_c, 1, 60, 75
4, 79197, Note_on_c, 1, 60, 0
4, 79200, Note_on_c, 1, 58, 75
4, 79245, Note_on_c, 1, 58, 0
4, 79248, Note_on_c, 1, 56, 75
4, 79293, Note_on_c, 1, 56, 0
4, 79296, Note_on_c, 1, 61, 75
4, 79341, Note_on_c, 1, 61, 0
4, 79344, Note_on_c, 1, 60, 75
4, 79389, Note_on_c, 1, 60, 0
4, 79392, Note_on_c, 1, 58, 75
4, 79437, Note_on_c, 1, 58, 0
4, 79440, Note_on_c, 1, 56, 75
4, 79485, Note_on_c, 1, 56, 0
4, 79488, Note_on_c, 1, 53, 75
4, 79488, Note_on_c, 1, 49, 75
4, 79842, Note_on_c, 1, 53, 0
4, 79842, Note_on_c, 1, 49, 0
4, 79872, Note_on_c, 1, 61, 84
4, 79872, Note_on_c, 1, 58, 84
4, 79872, Note_on_c, 1, 51, 84
4, 80249, Note_on_c, 1, 61, 0
4, 80249, Note_on_c, 1, 58, 0
4, 80249, Note_on_c, 1, 51, 0
4, 80304, Note_on_c, 1, 51, 61
4, 80304, Note_on_c, 1, 48, 61
4, 80351, Note_on_c, 1, 51, 0
4, 80351, Note_on_c, 1, 48, 0
4, 80352, Note_on_c, 1, 51, 61
4, 80352, Note_on_c, 1, 48, 61
4, 80399, Note_on_c, 1, 51, 0
4, 80399, Note_on_c, 1, 48, 0
4, 80400, Note_on_c, 1, 51, 61
4, 80400, Note_on_c, 1, 48, 61
4, 80447, Note_on_c, 1, 51, 0
4, 80447, Note_on_c, 1, 48, 0
4, 80496, Note_on_c, 1, 53, 61
4, 80496, Note_on_c, 1, 49, 61
4, 80543, Note_on_c, 1, 53, 0
4, 80543, Note_on_c, 1, 49, 0
4, 80544, Note_on_c, 1, 53, 61
4, 80544, Note_on_c, 1, 49, 61
4, 80591, Note_on_c, 1, 53, 0
4, 80591, Note_on_c, 1, 49, 0
4, 80592, Note_on_c, 1, 53, 61
4, 80592, Note_on_c, 1, 49, 61
4, 80639, Note_on_c, 1, 53, 0
4, 80639, Note_on_c, 1, 49, 0
4, 80688, Note_on_c, 1, 48, 75
4, 80688, Note_on_c, 1, 44, 75
4, 80735, Note_on_c, 1, 48, 0
4, 80735, Note_on_c, 1, 44, 0
4, 80736, Note_on_c, 1, 48, 75
4, 80736, Note_on_c, 1, 44, 75
4, 80783, Note_on_c, 1, 48, 0
4, 80783, Note_on_c, 1, 44, 0
4, 80784, Note_on_c, 1, 48, 75
4, 80784, Note_on_c, 1, 44, 75
4, 80831, Note_on_c, 1, 48, 0
4, 80831, Note_on_c, 1, 44, 0
4, 80832, Note_on_c, 1, 49, 75
4, 80832, Note_on_c, 1, 46, 75
4, 80926, Note_on_c, 1, 49, 0
4, 80926, Note_on_c, 1, 46, 0
4, 81456, Note_on_c, 1, 60, 75
4, 81456, Note_on_c, 1, 51, 75
4, 81503, Note_on_c, 1, 60, 0
4, 81503, Note_on_c, 1, 51, 0
4, 81504, Note_on_c, 1, 60, 75
4, 81504, Note_on_c, 1, 51, 75
4, 81551, Note_on_c, 1, 60, 0
4, 81551, Note_on_c, 1, 51, 0
4, 81552, Note_on_c, 1, 60, 75
4, 81552, Note_on_c, 1, 51, 75
4, 81599, Note_on_c, 1, 60, 0
4, 81599, Note_on_c, 1, 51, 0
4, 81648, Note_on_c, 1, 60, 75
4, 81648, Note_on_c, 1, 51, 75
4, 81695, Note_on_c, 1, 60, 0
4, 81695, Note_on_c, 1, 51, 0
4, 81696, Note_on_c, 1, 58, 75
4, 81696, Note_on_c, 1, 51, 75
4, 81743, Note_on_c, 1, 58, 0
4, 81743, Note_on_c, 1, 51, 0
4, 81744, Note_on_c, 1, 58, 75
4, 81744, Note_on_c, 1, 51, 75
4, 81791, Note_on_c, 1, 58, 0
4, 81791, Note_on_c, 1, 51, 0
4, 81792, Note_on_c, 1, 56, 75
4, 81881, Note_on_c, 1, 56, 0
4, 81888, Note_on_c, 1, 60, 75
4, 81977, Note_on_c, 1, 60, 0
4, 81984, Note_on_c, 1, 61, 75
4, 82073, Note_on_c, 1, 61, 0
4, 82080, Note_on_c, 1, 49, 75
4, 82169, Note_on_c, 1, 49, 0
4, 82608, Note_on_c, 1, 58, 75
4, 82608, Note_on_c, 1, 49, 75
4, 82655, Note_on_c, 1, 58, 0
4, 82655, Note_on_c, 1, 49, 0
4, 82656, Note_on_c, 1, 58, 75
4, 82656, Note_on_c, 1, 49, 75
4, 82703, Note_on_c, 1, 58, 0
4, 82703, Note_on_c, 1, 49, 0
4, 82704, Note_on_c, 1, 58, 75
4, 82704, Note_on_c, 1, 49, 75
4, 82751, Note_on_c, 1, 58, 0
4, 82751, Note_on_c, 1, 49, 0
4, 82800, Note_on_c, 1, 60, 69
4, 82800, Note_on_c, 1, 51, 69
4, 82847, Note_on_c, 1, 60, 0
4, 82847, Note_on_c, 1, 51, 0
4, 82848, Note_on_c, 1, 60, 66
4, 82848, Note_on_c, 1, 51, 66
4, 82895, Note_on_c, 1, 60, 0
4, 82895, Note_on_c, 1, 51, 0
4, 82896, Note_on_c, 1, 60, 63
4, 82896, Note_on_c, 1, 51, 63
4, 82943, Note_on_c, 1, 60, 0
4, 82943, Note_on_c, 1, 51, 0
4, 82992, Note_on_c, 1, 59, 61
4, 82992, Note_on_c, 1, 51, 61
4, 83039, Note_on_c, 1, 59, 0
4, 83039, Note_on_c, 1, 51, 0
4, 83040, Note_on_c, 1, 59, 61
4, 83040, Note_on_c, 1, 51, 61
4, 83087, Note_on_c, 1, 59, 0
4, 83087, Note_on_c, 1, 51, 0
4, 83088, Note_on_c, 1, 59, 61
4, 83088, Note_on_c, 1, 51, 61
4, 83135, Note_on_c, 1, 59, 0
4, 83135, Note_on_c, 1, 51, 0
4, 83184, Note_on_c, 1, 59, 61
4, 83184, Note_on_c, 1, 52, 61
4, 83231, Note_on_c, 1, 59, 0
4, 83231, Note_on_c, 1, 52, 0
4, 83232, Note_on_c, 1, 59, 61
4, 83232, Note_on_c, 1, 52, 61
4, 83279, Note_on_c, 1, 59, 0
4, 83279, Note_on_c, 1, 52, 0
4, 83280, Note_on_c, 1, 59, 61
4, 83280, Note_on_c, 1, 52, 61
4, 83327, Note_on_c, 1, 59, 0
4, 83327, Note_on_c, 1, 52, 0
4, 83376, Note_on_c, 1, 58, 61
4, 83376, Note_on_c, 1, 55, 61
4, 83423, Note_on_c, 1, 58, 0
4, 83423, Note_on_c, 1, 55, 0
4, 83424, Note_on_c, 1, 58, 61
4, 83424, Note_on_c, 1, 55, 61
4, 83471, Note_on_c, 1, 58, 0
4, 83471, Note_on_c, 1, 55, 0
4, 83472, Note_on_c, 1, 58, 61
4, 83472, Note_on_c, 1, 55, 61
4, 83519, Note_on_c, 1, 58, 0
4, 83519, Note_on_c, 1, 55, 0
4, 83520, Note_on_c, 1, 56, 77
4, 83616, Note_on_c, 1, 56, 0
4, 83664, Note_on_c, 1, 58, 77
4, 83664, Note_on_c, 1, 51, 77
4, 83712, Note_on_c, 1, 58, 0
4, 83712, Note_on_c, 1, 51, 0
4, 83712, Note_on_c, 1, 56, 77
4, 83808, Note_on_c, 1, 56, 0
4, 83856, Note_on_c, 1, 58, 88
4, 83856, Note_on_c, 1, 51, 88
4, 83904, Note_on_c, 1, 58, 0
4, 83904, Note_on_c, 1, 51, 0
4, 83904, Note_on_c, 1, 56, 92
4, 84000, Note_on_c, 1, 56, 0
4, 84096, Note_on_c, 1, 53, 84
4, 84096, Note_on_c, 1, 49, 84
4, 84185, Note_on_c, 1, 53, 0
4, 84185, Note_on_c, 1, 49, 0
4, 84288, Note_on_c, 1, 60, 61
4, 84288, Note_on_c, 1, 51, 61
4, 84335, Note_on_c, 1, 60, 0
4, 84335, Note_on_c, 1, 51, 0
4, 84336, Note_on_c, 1, 60, 61
4, 84336, Note_on_c, 1, 51, 61
4, 84383, Note_on_c, 1, 60, 0
4, 84383, Note_on_c, 1, 51, 0
4, 84384, Note_on_c, 1, 55, 61
4, 84384, Note_on_c, 1, 51, 61
4, 84431, Note_on_c, 1, 55, 0
4, 84431, Note_on_c, 1, 51, 0
4, 84432, Note_on_c, 1, 55, 61
4, 84432, Note_on_c, 1, 51, 61
4, 84479, Note_on_c, 1, 55, 0
4, 84479, Note_on_c, 1, 51, 0
4, 84480, Note_on_c, 1, 56, 77
4, 84576, Note_on_c, 1, 56, 0
4, 84624, Note_on_c, 1, 58, 77
4, 84624, Note_on_c, 1, 51, 77
4, 84672, Note_on_c, 1, 58, 0
4, 84672, Note_on_c, 1, 51, 0
4, 84672, Note_on_c, 1, 56, 85
4, 84768, Note_on_c, 1, 56, 0
4, 84816, Note_on_c, 1, 58, 91
4, 84816, Note_on_c, 1, 51, 91
4, 84864, Note_on_c, 1, 58, 0
4, 84864, Note_on_c, 1, 51, 0
4, 84864, Note_on_c, 1, 56, 100
4, 84960, Note_on_c, 1, 56, 0
4, 85056, Note_on_c, 1, 53, 84
4, 85056, Note_on_c, 1, 49, 84
4, 85145, Note_on_c, 1, 53, 0
4, 85145, Note_on_c, 1, 49, 0
4, 85248, Note_on_c, 1, 60, 75
4, 85248, Note_on_c, 1, 51, 75
4, 85295, Note_on_c, 1, 60, 0
4, 85295, Note_on_c, 1, 51, 0
4, 85296, Note_on_c, 1, 60, 74
4, 85296, Note_on_c, 1, 51, 74
4, 85343, Note_on_c, 1, 60, 0
4, 85343, Note_on_c, 1, 51, 0
4, 85344, Note_on_c, 1, 55, 73
4, 85344, Note_on_c, 1, 51, 73
4, 85391, Note_on_c, 1, 55, 0
4, 85391, Note_on_c, 1, 51, 0
4, 85392, Note_on_c, 1, 55, 72
4, 85392, Note_on_c, 1, 51, 72
4, 85439, Note_on_c, 1, 55, 0
4, 85439, Note_on_c, 1, 51, 0
4, 85440, Note_on_c, 1, 56, 87
4, 85536, Note_on_c, 1, 56, 0
4, 85536, Note_on_c, 1, 58, 69
4, 85536, Note_on_c, 1, 49, 69
4, 85581, Note_on_c, 1, 58, 0
4, 85581, Note_on_c, 1, 49, 0
4, 85584, Note_on_c, 1, 61, 69
4, 85584, Note_on_c, 1, 51, 69
4, 85632, Note_on_c, 1, 61, 0
4, 85632, Note_on_c, 1, 51, 0
4, 85632, Note_on_c, 1, 60, 69
4, 85632, Note_on_c, 1, 56, 69
4, 85677, Note_on_c, 1, 60, 0
4, 85677, Note_on_c, 1, 56, 0
4, 85728, Note_on_c, 1, 58, 61
4, 85728, Note_on_c, 1, 49, 61
4, 85773, Note_on_c, 1, 58, 0
4, 85773, Note_on_c, 1, 49, 0
4, 85776, Note_on_c, 1, 58, 61
4, 85776, Note_on_c, 1, 51, 61
4, 85824, Note_on_c, 1, 58, 0
4, 85824, Note_on_c, 1, 51, 0
4, 85824, Note_on_c, 1, 56, 61
4, 85824, Note_on_c, 1, 44, 61
4, 85957, Note_on_c, 1, 56, 0
4, 85957, Note_on_c, 1, 44, 0
4, 86016, Note_on_c, 1, 44, 0
4, 86105, Note_on_c, 1, 44, 0
4, 86112, End_track
5, 0, Start_track
5, 0, Program_c, 1, 0
5, 0, Control_c, 1, 7, 127
5, 0, Control_c, 1, 10, 64
5, 7680, Note_on_c, 1, 46, 64
5, 7857, Note_on_c, 1, 46, 0
5, 7872, Note_on_c, 1, 46, 64
5, 8049, Note_on_c, 1, 46, 0
5, 22272, Note_on_c, 1, 46, 64
5, 22449, Note_on_c, 1, 46, 0
5, 22464, Note_on_c, 1, 46, 64
5, 22641, Note_on_c, 1, 46, 0
5, 50688, Note_on_c, 1, 51, 64
5, 50865, Note_on_c, 1, 51, 0
5, 50880, Note_on_c, 1, 51, 64
5, 51057, Note_on_c, 1, 51, 0
5, 79104, Note_on_c, 1, 51, 64
5, 79281, Note_on_c, 1, 51, 0
5, 79296, Note_on_c, 1, 51, 64
5, 79473, Note_on_c, 1, 51, 0
5, 86016, End_track
6, 0, Start_track
6, 0, Title_t, "Sonata III   <composer>  "
6, 0, End_track
0, 0, End_of_file
