0, 0, Header, 1, 6, 96
1, 0, Start_track
1, 0, Copyright_t, "Copyright  2000 <copyright holder>"
1, 0, Text_t, "Sonata I\015\012"
1, 0, Text_t, "Haydn\015\012"
1, 0, Sequencer_specific, 17, 68, 87, 77, 90, 86, 82, 83, 78, 32, 55, 46, 48, 46, 49, 48, 46, 48
1, 0, Time_signature, 3, 2, 24, 8
1, 0, Tempo, 461538
1, 0, Key_signature, 1, "major"
1, 24768, Key_signature, -2, "major"
1, 27072, Key_signature, -2, "major"
1, 38592, Key_signature, 1, "major"
1, 42624, Key_signature, 1, "major"
1, 63360, End_track
2, 0, Start_track
2, 0, Program_c, 0, 0
2, 0, Control_c, 0, 7, 127
2, 0, Control_c, 0, 10, 64
2, 0, Note_on_c, 0, 76, 78
2, 18, Note_on_c, 0, 76, 0
2, 18, Note_on_c, 0, 74, 78
2, 36, Note_on_c, 0, 74, 0
2, 36, Note_on_c, 0, 72, 78
2, 54, Note_on_c, 0, 72, 0
2, 54, Note_on_c, 0, 74, 78
2, 89, Note_on_c, 0, 74, 0
2, 96, Note_on_c, 0, 79, 78
2, 126, Note_on_c, 0, 79, 0
2, 128, Note_on_c, 0, 74, 78
2, 158, Note_on_c, 0, 74, 0
2, 160, Note_on_c, 0, 71, 78
2, 190, Note_on_c, 0, 71, 0
2, 192, Note_on_c, 0, 74, 78
2, 222, Note_on_c, 0, 74, 0
2, 224, Note_on_c, 0, 71, 78
2, 254, Note_on_c, 0, 71, 0
2, 256, Note_on_c, 0, 67, 78
2, 286, Note_on_c, 0, 67, 0
2, 288, Note_on_c, 0, 67, 78
2, 318, Note_on_c, 0, 67, 0
2, 320, Note_on_c, 0, 66, 78
2, 350, Note_on_c, 0, 66, 0
2, 352, Note_on_c, 0, 62, 78
2, 382, Note_on_c, 0, 62, 0
2, 384, Note_on_c, 0, 72, 78
2, 384, Note_on_c, 0, 69, 78
2, 480, Note_on_c, 0, 72, 0
2, 480, Note_on_c, 0, 69, 0
2, 480, Note_on_c, 0, 71, 78
2, 480, Note_on_c, 0, 67, 78
2, 569, Note_on_c, 0, 71, 0
2, 569, Note_on_c, 0, 67, 0
2, 576, Note_on_c, 0, 64, 78
2, 606, Note_on_c, 0, 64, 0
2, 608, Note_on_c, 0, 68, 79
2, 638, Note_on_c, 0, 68, 0
2, 640, Note_on_c, 0, 69, 80
2, 670, Note_on_c, 0, 69, 0
2, 672, Note_on_c, 0, 71, 81
2, 702, Note_on_c, 0, 71, 0
2, 704, Note_on_c, 0, 72, 82
2, 734, Note_on_c, 0, 72, 0
2, 736, Note_on_c, 0, 74, 83
2, 766, Note_on_c, 0, 74, 0
2, 768, Note_on_c, 0, 76, 85
2, 798, Note_on_c, 0, 76, 0
2, 800, Note_on_c, 0, 72, 82
2, 830, Note_on_c, 0, 72, 0
2, 832, Note_on_c, 0, 69, 80
2, 862, Note_on_c, 0, 69, 0
2, 864, Note_on_c, 0, 67, 78
2, 1056, Note_on_c, 0, 67, 0
2, 1056, Note_on_c, 0, 66, 78
2, 1145, Note_on_c, 0, 66, 0
2, 1152, Note_on_c, 0, 76, 78
2, 1170, Note_on_c, 0, 76, 0
2, 1170, Note_on_c, 0, 74, 78
2, 1188, Note_on_c, 0, 74, 0
2, 1188, Note_on_c, 0, 72, 78
2, 1206, Note_on_c, 0, 72, 0
2, 1206, Note_on_c, 0, 74, 78
2, 1241, Note_on_c, 0, 74, 0
2, 1248, Note_on_c, 0, 79, 78
2, 1278, Note_on_c, 0, 79, 0
2, 1280, Note_on_c, 0, 74, 78
2, 1310, Note_on_c, 0, 74, 0
2, 1312, Note_on_c, 0, 71, 78
2, 1342, Note_on_c, 0, 71, 0
2, 1344, Note_on_c, 0, 74, 78
2, 1374, Note_on_c, 0, 74, 0
2, 1376, Note_on_c, 0, 71, 78
2, 1406, Note_on_c, 0, 71, 0
2, 1408, Note_on_c, 0, 67, 78
2, 1438, Note_on_c, 0, 67, 0
2, 1440, Note_on_c, 0, 67, 78
2, 1470, Note_on_c, 0, 67, 0
2, 1472, Note_on_c, 0, 66, 78
2, 1502, Note_on_c, 0, 66, 0
2, 1504, Note_on_c, 0, 62, 78
2, 1534, Note_on_c, 0, 62, 0
2, 1536, Note_on_c, 0, 72, 78
2, 1536, Note_on_c, 0, 69, 78
2, 1632, Note_on_c, 0, 72, 0
2, 1632, Note_on_c, 0, 69, 0
2, 1632, Note_on_c, 0, 71, 78
2, 1632, Note_on_c, 0, 67, 78
2, 1721, Note_on_c, 0, 71, 0
2, 1721, Note_on_c, 0, 67, 0
2, 1728, Note_on_c, 0, 67, 78
2, 1758, Note_on_c, 0, 67, 0
2, 1760, Note_on_c, 0, 66, 78
2, 1790, Note_on_c, 0, 66, 0
2, 1792, Note_on_c, 0, 62, 78
2, 1822, Note_on_c, 0, 62, 0
2, 1824, Note_on_c, 0, 79, 78
2, 1824, Note_on_c, 0, 73, 78
2, 1920, Note_on_c, 0, 79, 0
2, 1920, Note_on_c, 0, 73, 0
2, 1920, Note_on_c, 0, 78, 78
2, 1920, Note_on_c, 0, 74, 78
2, 2009, Note_on_c, 0, 78, 0
2, 2009, Note_on_c, 0, 74, 0
2, 2016, Note_on_c, 0, 71, 78
2, 2046, Note_on_c, 0, 71, 0
2, 2048, Note_on_c, 0, 76, 78
2, 2078, Note_on_c, 0, 76, 0
2, 2080, Note_on_c, 0, 75, 78
2, 2110, Note_on_c, 0, 75, 0
2, 2112, Note_on_c, 0, 78, 78
2, 2142, Note_on_c, 0, 78, 0
2, 2144, Note_on_c, 0, 76, 78
2, 2174, Note_on_c, 0, 76, 0
2, 2176, Note_on_c, 0, 79, 78
2, 2206, Note_on_c, 0, 79, 0
2, 2208, Note_on_c, 0, 83, 78
2, 2238, Note_on_c, 0, 83, 0
2, 2240, Note_on_c, 0, 79, 78
2, 2270, Note_on_c, 0, 79, 0
2, 2272, Note_on_c, 0, 76, 78
2, 2302, Note_on_c, 0, 76, 0
2, 2304, Note_on_c, 0, 74, 78
2, 2334, Note_on_c, 0, 74, 0
2, 2336, Note_on_c, 0, 73, 78
2, 2366, Note_on_c, 0, 73, 0
2, 2368, Note_on_c, 0, 76, 78
2, 2398, Note_on_c, 0, 76, 0
2, 2400, Note_on_c, 0, 81, 94
2, 2526, Note_on_c, 0, 81, 0
2, 2528, Note_on_c, 0, 78, 78
2, 2558, Note_on_c, 0, 78, 0
2, 2560, Note_on_c, 0, 74, 78
2, 2590, Note_on_c, 0, 74, 0
2, 2592, Note_on_c, 0, 73, 78
2, 2622, Note_on_c, 0, 73, 0
2, 2624, Note_on_c, 0, 69, 78
2, 2654, Note_on_c, 0, 69, 0
2, 2656, Note_on_c, 0, 76, 78
2, 2686, Note_on_c, 0, 76, 0
2, 2688, Note_on_c, 0, 81, 94
2, 2814, Note_on_c, 0, 81, 0
2, 2816, Note_on_c, 0, 78, 78
2, 2846, Note_on_c, 0, 78, 0
2, 2848, Note_on_c, 0, 74, 78
2, 2878, Note_on_c, 0, 74, 0
2, 2880, Note_on_c, 0, 74, 78
2, 2910, Note_on_c, 0, 74, 0
2, 2912, Note_on_c, 0, 73, 78
2, 2942, Note_on_c, 0, 73, 0
2, 2944, Note_on_c, 0, 76, 78
2, 2974, Note_on_c, 0, 76, 0
2, 2976, Note_on_c, 0, 81, 94
2, 3102, Note_on_c, 0, 81, 0
2, 3104, Note_on_c, 0, 78, 78
2, 3134, Note_on_c, 0, 78, 0
2, 3136, Note_on_c, 0, 74, 78
2, 3166, Note_on_c, 0, 74, 0
2, 3168, Note_on_c, 0, 73, 78
2, 3198, Note_on_c, 0, 73, 0
2, 3200, Note_on_c, 0, 69, 78
2, 3230, Note_on_c, 0, 69, 0
2, 3232, Note_on_c, 0, 76, 78
2, 3262, Note_on_c, 0, 76, 0
2, 3264, Note_on_c, 0, 81, 94
2, 3390, Note_on_c, 0, 81, 0
2, 3392, Note_on_c, 0, 78, 78
2, 3422, Note_on_c, 0, 78, 0
2, 3424, Note_on_c, 0, 74, 78
2, 3454, Note_on_c, 0, 74, 0
2, 3456, Note_on_c, 0, 73, 78
2, 3486, Note_on_c, 0, 73, 0
2, 3488, Note_on_c, 0, 71, 78
2, 3518, Note_on_c, 0, 71, 0
2, 3520, Note_on_c, 0, 82, 78
2, 3550, Note_on_c, 0, 82, 0
2, 3552, Note_on_c, 0, 83, 78
2, 3582, Note_on_c, 0, 83, 0
2, 3584, Note_on_c, 0, 79, 78
2, 3614, Note_on_c, 0, 79, 0
2, 3616, Note_on_c, 0, 76, 78
2, 3646, Note_on_c, 0, 76, 0
2, 3648, Note_on_c, 0, 79, 78
2, 3678, Note_on_c, 0, 79, 0
2, 3680, Note_on_c, 0, 76, 78
2, 3710, Note_on_c, 0, 76, 0
2, 3712, Note_on_c, 0, 73, 78
2, 3742, Note_on_c, 0, 73, 0
2, 3744, Note_on_c, 0, 73, 78
2, 3936, Note_on_c, 0, 73, 0
2, 3936, Note_on_c, 0, 74, 78
2, 4025, Note_on_c, 0, 74, 0
2, 4032, Note_on_c, 0, 76, 78
2, 4050, Note_on_c, 0, 76, 0
2, 4050, Note_on_c, 0, 74, 78
2, 4068, Note_on_c, 0, 74, 0
2, 4068, Note_on_c, 0, 72, 78
2, 4086, Note_on_c, 0, 72, 0
2, 4086, Note_on_c, 0, 74, 78
2, 4121, Note_on_c, 0, 74, 0
2, 4128, Note_on_c, 0, 79, 78
2, 4158, Note_on_c, 0, 79, 0
2, 4160, Note_on_c, 0, 74, 78
2, 4190, Note_on_c, 0, 74, 0
2, 4192, Note_on_c, 0, 71, 78
2, 4222, Note_on_c, 0, 71, 0
2, 4224, Note_on_c, 0, 74, 78
2, 4254, Note_on_c, 0, 74, 0
2, 4256, Note_on_c, 0, 71, 78
2, 4286, Note_on_c, 0, 71, 0
2, 4288, Note_on_c, 0, 67, 78
2, 4318, Note_on_c, 0, 67, 0
2, 4320, Note_on_c, 0, 67, 78
2, 4350, Note_on_c, 0, 67, 0
2, 4352, Note_on_c, 0, 66, 78
2, 4382, Note_on_c, 0, 66, 0
2, 4384, Note_on_c, 0, 62, 78
2, 4414, Note_on_c, 0, 62, 0
2, 4416, Note_on_c, 0, 72, 78
2, 4416, Note_on_c, 0, 69, 78
2, 4512, Note_on_c, 0, 72, 0
2, 4512, Note_on_c, 0, 69, 0
2, 4512, Note_on_c, 0, 71, 78
2, 4512, Note_on_c, 0, 67, 78
2, 4601, Note_on_c, 0, 71, 0
2, 4601, Note_on_c, 0, 67, 0
2, 4608, Note_on_c, 0, 64, 78
2, 4638, Note_on_c, 0, 64, 0
2, 4640, Note_on_c, 0, 68, 79
2, 4670, Note_on_c, 0, 68, 0
2, 4672, Note_on_c, 0, 69, 80
2, 4702, Note_on_c, 0, 69, 0
2, 4704, Note_on_c, 0, 71, 81
2, 4734, Note_on_c, 0, 71, 0
2, 4736, Note_on_c, 0, 72, 82
2, 4766, Note_on_c, 0, 72, 0
2, 4768, Note_on_c, 0, 74, 83
2, 4798, Note_on_c, 0, 74, 0
2, 4800, Note_on_c, 0, 76, 85
2, 4830, Note_on_c, 0, 76, 0
2, 4832, Note_on_c, 0, 72, 82
2, 4862, Note_on_c, 0, 72, 0
2, 4864, Note_on_c, 0, 69, 80
2, 4894, Note_on_c, 0, 69, 0
2, 4896, Note_on_c, 0, 67, 78
2, 5088, Note_on_c, 0, 67, 0
2, 5088, Note_on_c, 0, 66, 78
2, 5177, Note_on_c, 0, 66, 0
2, 5184, Note_on_c, 0, 76, 78
2, 5202, Note_on_c, 0, 76, 0
2, 5202, Note_on_c, 0, 74, 78
2, 5220, Note_on_c, 0, 74, 0
2, 5220, Note_on_c, 0, 72, 78
2, 5238, Note_on_c, 0, 72, 0
2, 5238, Note_on_c, 0, 74, 78
2, 5273, Note_on_c, 0, 74, 0
2, 5280, Note_on_c, 0, 79, 78
2, 5310, Note_on_c, 0, 79, 0
2, 5312, Note_on_c, 0, 74, 78
2, 5342, Note_on_c, 0, 74, 0
2, 5344, Note_on_c, 0, 71, 78
2, 5374, Note_on_c, 0, 71, 0
2, 5376, Note_on_c, 0, 74, 78
2, 5406, Note_on_c, 0, 74, 0
2, 5408, Note_on_c, 0, 71, 78
2, 5438, Note_on_c, 0, 71, 0
2, 5440, Note_on_c, 0, 67, 78
2, 5470, Note_on_c, 0, 67, 0
2, 5472, Note_on_c, 0, 67, 78
2, 5502, Note_on_c, 0, 67, 0
2, 5504, Note_on_c, 0, 66, 78
2, 5534, Note_on_c, 0, 66, 0
2, 5536, Note_on_c, 0, 62, 78
2, 5566, Note_on_c, 0, 62, 0
2, 5568, Note_on_c, 0, 72, 78
2, 5568, Note_on_c, 0, 69, 78
2, 5664, Note_on_c, 0, 72, 0
2, 5664, Note_on_c, 0, 69, 0
2, 5664, Note_on_c, 0, 71, 78
2, 5664, Note_on_c, 0, 67, 78
2, 5753, Note_on_c, 0, 71, 0
2, 5753, Note_on_c, 0, 67, 0
2, 5760, Note_on_c, 0, 67, 78
2, 5790, Note_on_c, 0, 67, 0
2, 5792, Note_on_c, 0, 66, 78
2, 5822, Note_on_c, 0, 66, 0
2, 5824, Note_on_c, 0, 62, 78
2, 5854, Note_on_c, 0, 62, 0
2, 5856, Note_on_c, 0, 79, 78
2, 5856, Note_on_c, 0, 73, 78
2, 5952, Note_on_c, 0, 79, 0
2, 5952, Note_on_c, 0, 73, 0
2, 5952, Note_on_c, 0, 78, 78
2, 5952, Note_on_c, 0, 74, 78
2, 6041, Note_on_c, 0, 78, 0
2, 6041, Note_on_c, 0, 74, 0
2, 6048, Note_on_c, 0, 71, 78
2, 6078, Note_on_c, 0, 71, 0
2, 6080, Note_on_c, 0, 76, 78
2, 6110, Note_on_c, 0, 76, 0
2, 6112, Note_on_c, 0, 75, 78
2, 6142, Note_on_c, 0, 75, 0
2, 6144, Note_on_c, 0, 78, 78
2, 6174, Note_on_c, 0, 78, 0
2, 6176, Note_on_c, 0, 76, 78
2, 6206, Note_on_c, 0, 76, 0
2, 6208, Note_on_c, 0, 79, 78
2, 6238, Note_on_c, 0, 79, 0
2, 6240, Note_on_c, 0, 83, 78
2, 6270, Note_on_c, 0, 83, 0
2, 6272, Note_on_c, 0, 79, 78
2, 6302, Note_on_c, 0, 79, 0
2, 6304, Note_on_c, 0, 76, 78
2, 6334, Note_on_c, 0, 76, 0
2, 6336, Note_on_c, 0, 74, 78
2, 6366, Note_on_c, 0, 74, 0
2, 6368, Note_on_c, 0, 73, 78
2, 6398, Note_on_c, 0, 73, 0
2, 6400, Note_on_c, 0, 76, 78
2, 6430, Note_on_c, 0, 76, 0
2, 6432, Note_on_c, 0, 81, 94
2, 6558, Note_on_c, 0, 81, 0
2, 6560, Note_on_c, 0, 78, 78
2, 6590, Note_on_c, 0, 78, 0
2, 6592, Note_on_c, 0, 74, 78
2, 6622, Note_on_c, 0, 74, 0
2, 6624, Note_on_c, 0, 73, 78
2, 6654, Note_on_c, 0, 73, 0
2, 6656, Note_on_c, 0, 69, 78
2, 6686, Note_on_c, 0, 69, 0
2, 6688, Note_on_c, 0, 76, 78
2, 6718, Note_on_c, 0, 76, 0
2, 6720, Note_on_c, 0, 81, 94
2, 6846, Note_on_c, 0, 81, 0
2, 6848, Note_on_c, 0, 78, 78
2, 6878, Note_on_c, 0, 78, 0
2, 6880, Note_on_c, 0, 74, 78
2, 6910, Note_on_c, 0, 74, 0
2, 6912, Note_on_c, 0, 74, 78
2, 6942, Note_on_c, 0, 74, 0
2, 6944, Note_on_c, 0, 73, 78
2, 6974, Note_on_c, 0, 73, 0
2, 6976, Note_on_c, 0, 76, 78
2, 7006, Note_on_c, 0, 76, 0
2, 7008, Note_on_c, 0, 81, 94
2, 7134, Note_on_c, 0, 81, 0
2, 7136, Note_on_c, 0, 78, 78
2, 7166, Note_on_c, 0, 78, 0
2, 7168, Note_on_c, 0, 74, 78
2, 7198, Note_on_c, 0, 74, 0
2, 7200, Note_on_c, 0, 73, 78
2, 7230, Note_on_c, 0, 73, 0
2, 7232, Note_on_c, 0, 69, 78
2, 7262, Note_on_c, 0, 69, 0
2, 7264, Note_on_c, 0, 76, 78
2, 7294, Note_on_c, 0, 76, 0
2, 7296, Note_on_c, 0, 81, 94
2, 7422, Note_on_c, 0, 81, 0
2, 7424, Note_on_c, 0, 78, 78
2, 7454, Note_on_c, 0, 78, 0
2, 7456, Note_on_c, 0, 74, 78
2, 7486, Note_on_c, 0, 74, 0
2, 7488, Note_on_c, 0, 73, 78
2, 7518, Note_on_c, 0, 73, 0
2, 7520, Note_on_c, 0, 71, 78
2, 7550, Note_on_c, 0, 71, 0
2, 7552, Note_on_c, 0, 82, 78
2, 7582, Note_on_c, 0, 82, 0
2, 7584, Note_on_c, 0, 83, 78
2, 7614, Note_on_c, 0, 83, 0
2, 7616, Note_on_c, 0, 79, 78
2, 7646, Note_on_c, 0, 79, 0
2, 7648, Note_on_c, 0, 76, 78
2, 7678, Note_on_c, 0, 76, 0
2, 7680, Note_on_c, 0, 79, 78
2, 7710, Note_on_c, 0, 79, 0
2, 7712, Note_on_c, 0, 76, 78
2, 7742, Note_on_c, 0, 76, 0
2, 7744, Note_on_c, 0, 73, 78
2, 7774, Note_on_c, 0, 73, 0
2, 7776, Note_on_c, 0, 73, 78
2, 7968, Note_on_c, 0, 73, 0
2, 7968, Note_on_c, 0, 74, 78
2, 8057, Note_on_c, 0, 74, 0
2, 8064, Note_on_c, 0, 76, 78
2, 8082, Note_on_c, 0, 76, 0
2, 8082, Note_on_c, 0, 74, 78
2, 8100, Note_on_c, 0, 74, 0
2, 8100, Note_on_c, 0, 72, 78
2, 8118, Note_on_c, 0, 72, 0
2, 8118, Note_on_c, 0, 74, 78
2, 8153, Note_on_c, 0, 74, 0
2, 8160, Note_on_c, 0, 86, 78
2, 8190, Note_on_c, 0, 86, 0
2, 8192, Note_on_c, 0, 81, 78
2, 8222, Note_on_c, 0, 81, 0
2, 8224, Note_on_c, 0, 78, 78
2, 8254, Note_on_c, 0, 78, 0
2, 8256, Note_on_c, 0, 81, 78
2, 8286, Note_on_c, 0, 81, 0
2, 8288, Note_on_c, 0, 78, 78
2, 8318, Note_on_c, 0, 78, 0
2, 8320, Note_on_c, 0, 74, 78
2, 8350, Note_on_c, 0, 74, 0
2, 8352, Note_on_c, 0, 74, 78
2, 8544, Note_on_c, 0, 74, 0
2, 8544, Note_on_c, 0, 73, 78
2, 8556, Note_on_c, 0, 73, 0
2, 8556, Note_on_c, 0, 74, 78
2, 8568, Note_on_c, 0, 74, 0
2, 8568, Note_on_c, 0, 73, 78
2, 8633, Note_on_c, 0, 73, 0
2, 8736, Note_on_c, 0, 74, 78
2, 8766, Note_on_c, 0, 74, 0
2, 8768, Note_on_c, 0, 78, 78
2, 8798, Note_on_c, 0, 78, 0
2, 8800, Note_on_c, 0, 81, 78
2, 8830, Note_on_c, 0, 81, 0
2, 8832, Note_on_c, 0, 84, 78
2, 8862, Note_on_c, 0, 84, 0
2, 8864, Note_on_c, 0, 81, 78
2, 8894, Note_on_c, 0, 81, 0
2, 8896, Note_on_c, 0, 78, 78
2, 8926, Note_on_c, 0, 78, 0
2, 8928, Note_on_c, 0, 72, 78
2, 9024, Note_on_c, 0, 72, 0
2, 9024, Note_on_c, 0, 71, 78
2, 9036, Note_on_c, 0, 71, 0
2, 9036, Note_on_c, 0, 72, 78
2, 9048, Note_on_c, 0, 72, 0
2, 9048, Note_on_c, 0, 71, 78
2, 9113, Note_on_c, 0, 71, 0
2, 9120, Note_on_c, 0, 79, 78
2, 9209, Note_on_c, 0, 79, 0
2, 9216, Note_on_c, 0, 75, 78
2, 9264, Note_on_c, 0, 75, 0
2, 9264, Note_on_c, 0, 76, 78
2, 9309, Note_on_c, 0, 76, 0
2, 9312, Note_on_c, 0, 76, 78
2, 9401, Note_on_c, 0, 76, 0
2, 9408, Note_on_c, 0, 79, 78
2, 9497, Note_on_c, 0, 79, 0
2, 9504, Note_on_c, 0, 73, 78
2, 9552, Note_on_c, 0, 73, 0
2, 9552, Note_on_c, 0, 74, 78
2, 9597, Note_on_c, 0, 74, 0
2, 9600, Note_on_c, 0, 74, 78
2, 9689, Note_on_c, 0, 74, 0
2, 9696, Note_on_c, 0, 86, 78
2, 9726, Note_on_c, 0, 86, 0
2, 9728, Note_on_c, 0, 83, 78
2, 9758, Note_on_c, 0, 83, 0
2, 9760, Note_on_c, 0, 79, 78
2, 9790, Note_on_c, 0, 79, 0
2, 9792, Note_on_c, 0, 78, 78
2, 9881, Note_on_c, 0, 78, 0
2, 9888, Note_on_c, 0, 76, 78
2, 9900, Note_on_c, 0, 76, 0
2, 9900, Note_on_c, 0, 78, 78
2, 9912, Note_on_c, 0, 78, 0
2, 9912, Note_on_c, 0, 76, 78
2, 9977, Note_on_c, 0, 76, 0
2, 9984, Note_on_c, 0, 79, 78
2, 10014, Note_on_c, 0, 79, 0
2, 10016, Note_on_c, 0, 78, 78
2, 10046, Note_on_c, 0, 78, 0
2, 10048, Note_on_c, 0, 76, 78
2, 10078, Note_on_c, 0, 76, 0
2, 10080, Note_on_c, 0, 76, 78
2, 10169, Note_on_c, 0, 76, 0
2, 10176, Note_on_c, 0, 74, 78
2, 10188, Note_on_c, 0, 74, 0
2, 10188, Note_on_c, 0, 76, 78
2, 10200, Note_on_c, 0, 76, 0
2, 10200, Note_on_c, 0, 74, 78
2, 10265, Note_on_c, 0, 74, 0
2, 10272, Note_on_c, 0, 78, 78
2, 10302, Note_on_c, 0, 78, 0
2, 10304, Note_on_c, 0, 79, 78
2, 10334, Note_on_c, 0, 79, 0
2, 10336, Note_on_c, 0, 83, 78
2, 10366, Note_on_c, 0, 83, 0
2, 10368, Note_on_c, 0, 75, 78
2, 10398, Note_on_c, 0, 75, 0
2, 10400, Note_on_c, 0, 76, 78
2, 10430, Note_on_c, 0, 76, 0
2, 10432, Note_on_c, 0, 79, 79
2, 10462, Note_on_c, 0, 79, 0
2, 10464, Note_on_c, 0, 71, 80
2, 10494, Note_on_c, 0, 71, 0
2, 10496, Note_on_c, 0, 72, 80
2, 10526, Note_on_c, 0, 72, 0
2, 10528, Note_on_c, 0, 76, 81
2, 10558, Note_on_c, 0, 76, 0
2, 10560, Note_on_c, 0, 68, 82
2, 10590, Note_on_c, 0, 68, 0
2, 10592, Note_on_c, 0, 69, 83
2, 10622, Note_on_c, 0, 69, 0
2, 10624, Note_on_c, 0, 72, 83
2, 10654, Note_on_c, 0, 72, 0
2, 10656, Note_on_c, 0, 67, 85
2, 10848, Note_on_c, 0, 67, 0
2, 10848, Note_on_c, 0, 66, 80
2, 10860, Note_on_c, 0, 66, 0
2, 10860, Note_on_c, 0, 67, 80
2, 10872, Note_on_c, 0, 67, 0
2, 10872, Note_on_c, 0, 66, 80
2, 10937, Note_on_c, 0, 66, 0
2, 10944, Note_on_c, 0, 76, 78
2, 10962, Note_on_c, 0, 76, 0
2, 10962, Note_on_c, 0, 74, 78
2, 10980, Note_on_c, 0, 74, 0
2, 10980, Note_on_c, 0, 72, 78
2, 10998, Note_on_c, 0, 72, 0
2, 10998, Note_on_c, 0, 74, 78
2, 11033, Note_on_c, 0, 74, 0
2, 11040, Note_on_c, 0, 79, 78
2, 11070, Note_on_c, 0, 79, 0
2, 11072, Note_on_c, 0, 74, 78
2, 11102, Note_on_c, 0, 74, 0
2, 11104, Note_on_c, 0, 71, 78
2, 11134, Note_on_c, 0, 71, 0
2, 11136, Note_on_c, 0, 74, 78
2, 11166, Note_on_c, 0, 74, 0
2, 11168, Note_on_c, 0, 71, 78
2, 11198, Note_on_c, 0, 71, 0
2, 11200, Note_on_c, 0, 67, 78
2, 11230, Note_on_c, 0, 67, 0
2, 11232, Note_on_c, 0, 67, 78
2, 11262, Note_on_c, 0, 67, 0
2, 11264, Note_on_c, 0, 66, 78
2, 11294, Note_on_c, 0, 66, 0
2, 11296, Note_on_c, 0, 62, 78
2, 11326, Note_on_c, 0, 62, 0
2, 11328, Note_on_c, 0, 72, 78
2, 11328, Note_on_c, 0, 69, 78
2, 11424, Note_on_c, 0, 72, 0
2, 11424, Note_on_c, 0, 69, 0
2, 11424, Note_on_c, 0, 71, 78
2, 11424, Note_on_c, 0, 67, 78
2, 11513, Note_on_c, 0, 71, 0
2, 11513, Note_on_c, 0, 67, 0
2, 11520, Note_on_c, 0, 64, 78
2, 11550, Note_on_c, 0, 64, 0
2, 11552, Note_on_c, 0, 68, 78
2, 11582, Note_on_c, 0, 68, 0
2, 11584, Note_on_c, 0, 69, 78
2, 11614, Note_on_c, 0, 69, 0
2, 11616, Note_on_c, 0, 71, 78
2, 11646, Note_on_c, 0, 71, 0
2, 11648, Note_on_c, 0, 72, 78
2, 11678, Note_on_c, 0, 72, 0
2, 11680, Note_on_c, 0, 74, 78
2, 11710, Note_on_c, 0, 74, 0
2, 11712, Note_on_c, 0, 76, 78
2, 11742, Note_on_c, 0, 76, 0
2, 11744, Note_on_c, 0, 72, 78
2, 11774, Note_on_c, 0, 72, 0
2, 11776, Note_on_c, 0, 69, 78
2, 11806, Note_on_c, 0, 69, 0
2, 11808, Note_on_c, 0, 67, 78
2, 12000, Note_on_c, 0, 67, 0
2, 12000, Note_on_c, 0, 66, 78
2, 12089, Note_on_c, 0, 66, 0
2, 12384, Note_on_c, 0, 67, 78
2, 12414, Note_on_c, 0, 67, 0
2, 12416, Note_on_c, 0, 66, 78
2, 12446, Note_on_c, 0, 66, 0
2, 12448, Note_on_c, 0, 62, 78
2, 12478, Note_on_c, 0, 62, 0
2, 12480, Note_on_c, 0, 72, 78
2, 12480, Note_on_c, 0, 66, 78
2, 12480, Note_on_c, 0, 57, 78
2, 12576, Note_on_c, 0, 72, 0
2, 12576, Note_on_c, 0, 66, 0
2, 12576, Note_on_c, 0, 57, 0
2, 12576, Note_on_c, 0, 71, 78
2, 12576, Note_on_c, 0, 67, 78
2, 12576, Note_on_c, 0, 55, 78
2, 12665, Note_on_c, 0, 71, 0
2, 12665, Note_on_c, 0, 67, 0
2, 12665, Note_on_c, 0, 55, 0
2, 12672, Note_on_c, 0, 79, 78
2, 12702, Note_on_c, 0, 79, 0
2, 12704, Note_on_c, 0, 78, 78
2, 12734, Note_on_c, 0, 78, 0
2, 12736, Note_on_c, 0, 74, 78
2, 12766, Note_on_c, 0, 74, 0
2, 12768, Note_on_c, 0, 84, 78
2, 12768, Note_on_c, 0, 78, 78
2, 12768, Note_on_c, 0, 69, 78
2, 12864, Note_on_c, 0, 84, 0
2, 12864, Note_on_c, 0, 78, 0
2, 12864, Note_on_c, 0, 69, 0
2, 12864, Note_on_c, 0, 83, 78
2, 12864, Note_on_c, 0, 79, 78
2, 12864, Note_on_c, 0, 67, 78
2, 12953, Note_on_c, 0, 83, 0
2, 12953, Note_on_c, 0, 79, 0
2, 12953, Note_on_c, 0, 67, 0
2, 12960, Note_on_c, 0, 67, 78
2, 12990, Note_on_c, 0, 67, 0
2, 12992, Note_on_c, 0, 66, 78
2, 13022, Note_on_c, 0, 66, 0
2, 13024, Note_on_c, 0, 62, 78
2, 13054, Note_on_c, 0, 62, 0
2, 13056, Note_on_c, 0, 76, 78
2, 13056, Note_on_c, 0, 72, 78
2, 13164, Note_on_c, 0, 76, 0
2, 13164, Note_on_c, 0, 72, 0
2, 13164, Note_on_c, 0, 74, 78
2, 13164, Note_on_c, 0, 71, 78
2, 13425, Note_on_c, 0, 74, 0
2, 13425, Note_on_c, 0, 71, 0
2, 13536, Note_on_c, 0, 68, 78
2, 13566, Note_on_c, 0, 68, 0
2, 13568, Note_on_c, 0, 69, 79
2, 13598, Note_on_c, 0, 69, 0
2, 13600, Note_on_c, 0, 72, 80
2, 13630, Note_on_c, 0, 72, 0
2, 13632, Note_on_c, 0, 76, 81
2, 13662, Note_on_c, 0, 76, 0
2, 13664, Note_on_c, 0, 72, 82
2, 13694, Note_on_c, 0, 72, 0
2, 13696, Note_on_c, 0, 69, 83
2, 13726, Note_on_c, 0, 69, 0
2, 13728, Note_on_c, 0, 72, 84
2, 13758, Note_on_c, 0, 72, 0
2, 13760, Note_on_c, 0, 69, 84
2, 13790, Note_on_c, 0, 69, 0
2, 13792, Note_on_c, 0, 66, 84
2, 13822, Note_on_c, 0, 66, 0
2, 13824, Note_on_c, 0, 66, 83
2, 13824, Note_on_c, 0, 60, 83
2, 14016, Note_on_c, 0, 66, 0
2, 14016, Note_on_c, 0, 60, 0
2, 14016, Note_on_c, 0, 67, 80
2, 14016, Note_on_c, 0, 59, 80
2, 14105, Note_on_c, 0, 67, 0
2, 14105, Note_on_c, 0, 59, 0
2, 14112, Note_on_c, 0, 79, 78
2, 14142, Note_on_c, 0, 79, 0
2, 14144, Note_on_c, 0, 78, 78
2, 14174, Note_on_c, 0, 78, 0
2, 14176, Note_on_c, 0, 81, 78
2, 14206, Note_on_c, 0, 81, 0
2, 14208, Note_on_c, 0, 86, 94
2, 14334, Note_on_c, 0, 86, 0
2, 14336, Note_on_c, 0, 83, 78
2, 14366, Note_on_c, 0, 83, 0
2, 14368, Note_on_c, 0, 79, 78
2, 14398, Note_on_c, 0, 79, 0
2, 14400, Note_on_c, 0, 78, 78
2, 14430, Note_on_c, 0, 78, 0
2, 14432, Note_on_c, 0, 74, 78
2, 14462, Note_on_c, 0, 74, 0
2, 14464, Note_on_c, 0, 81, 78
2, 14494, Note_on_c, 0, 81, 0
2, 14496, Note_on_c, 0, 86, 94
2, 14622, Note_on_c, 0, 86, 0
2, 14624, Note_on_c, 0, 83, 78
2, 14654, Note_on_c, 0, 83, 0
2, 14656, Note_on_c, 0, 79, 78
2, 14686, Note_on_c, 0, 79, 0
2, 14688, Note_on_c, 0, 79, 78
2, 14718, Note_on_c, 0, 79, 0
2, 14720, Note_on_c, 0, 78, 78
2, 14750, Note_on_c, 0, 78, 0
2, 14752, Note_on_c, 0, 81, 78
2, 14782, Note_on_c, 0, 81, 0
2, 14784, Note_on_c, 0, 86, 94
2, 14910, Note_on_c, 0, 86, 0
2, 14912, Note_on_c, 0, 83, 78
2, 14942, Note_on_c, 0, 83, 0
2, 14944, Note_on_c, 0, 79, 78
2, 14974, Note_on_c, 0, 79, 0
2, 14976, Note_on_c, 0, 78, 78
2, 15006, Note_on_c, 0, 78, 0
2, 15008, Note_on_c, 0, 74, 78
2, 15038, Note_on_c, 0, 74, 0
2, 15040, Note_on_c, 0, 81, 78
2, 15070, Note_on_c, 0, 81, 0
2, 15072, Note_on_c, 0, 86, 94
2, 15198, Note_on_c, 0, 86, 0
2, 15200, Note_on_c, 0, 83, 78
2, 15230, Note_on_c, 0, 83, 0
2, 15232, Note_on_c, 0, 79, 78
2, 15262, Note_on_c, 0, 79, 0
2, 15264, Note_on_c, 0, 76, 78
2, 15294, Note_on_c, 0, 76, 0
2, 15296, Note_on_c, 0, 78, 78
2, 15326, Note_on_c, 0, 78, 0
2, 15328, Note_on_c, 0, 79, 78
2, 15358, Note_on_c, 0, 79, 0
2, 15360, Note_on_c, 0, 74, 78
2, 15390, Note_on_c, 0, 74, 0
2, 15392, Note_on_c, 0, 78, 78
2, 15422, Note_on_c, 0, 78, 0
2, 15424, Note_on_c, 0, 79, 78
2, 15454, Note_on_c, 0, 79, 0
2, 15456, Note_on_c, 0, 72, 78
2, 15486, Note_on_c, 0, 72, 0
2, 15488, Note_on_c, 0, 80, 78
2, 15518, Note_on_c, 0, 80, 0
2, 15520, Note_on_c, 0, 81, 78
2, 15550, Note_on_c, 0, 81, 0
2, 15552, Note_on_c, 0, 71, 78
2, 15582, Note_on_c, 0, 71, 0
2, 15584, Note_on_c, 0, 83, 78
2, 15614, Note_on_c, 0, 83, 0
2, 15616, Note_on_c, 0, 81, 78
2, 15646, Note_on_c, 0, 81, 0
2, 15648, Note_on_c, 0, 79, 78
2, 15678, Note_on_c, 0, 79, 0
2, 15680, Note_on_c, 0, 78, 78
2, 15710, Note_on_c, 0, 78, 0
2, 15712, Note_on_c, 0, 76, 78
2, 15742, Note_on_c, 0, 76, 0
2, 15744, Note_on_c, 0, 74, 78
2, 15774, Note_on_c, 0, 74, 0
2, 15776, Note_on_c, 0, 72, 78
2, 15806, Note_on_c, 0, 72, 0
2, 15808, Note_on_c, 0, 71, 78
2, 15838, Note_on_c, 0, 71, 0
2, 15840, Note_on_c, 0, 69, 78
2, 15870, Note_on_c, 0, 69, 0
2, 15872, Note_on_c, 0, 72, 78
2, 15902, Note_on_c, 0, 72, 0
2, 15904, Note_on_c, 0, 76, 78
2, 15934, Note_on_c, 0, 76, 0
2, 15936, Note_on_c, 0, 67, 78
2, 16025, Note_on_c, 0, 67, 0
2, 16032, Note_on_c, 0, 66, 78
2, 16044, Note_on_c, 0, 66, 0
2, 16044, Note_on_c, 0, 67, 78
2, 16056, Note_on_c, 0, 67, 0
2, 16056, Note_on_c, 0, 66, 78
2, 16121, Note_on_c, 0, 66, 0
2, 16128, Note_on_c, 0, 66, 78
2, 16128, Note_on_c, 0, 60, 78
2, 16320, Note_on_c, 0, 66, 0
2, 16320, Note_on_c, 0, 60, 0
2, 16320, Note_on_c, 0, 67, 78
2, 16320, Note_on_c, 0, 59, 78
2, 16409, Note_on_c, 0, 67, 0
2, 16409, Note_on_c, 0, 59, 0
2, 16416, Note_on_c, 0, 76, 78
2, 16434, Note_on_c, 0, 76, 0
2, 16434, Note_on_c, 0, 74, 78
2, 16452, Note_on_c, 0, 74, 0
2, 16452, Note_on_c, 0, 72, 78
2, 16470, Note_on_c, 0, 72, 0
2, 16470, Note_on_c, 0, 74, 78
2, 16505, Note_on_c, 0, 74, 0
2, 16512, Note_on_c, 0, 86, 78
2, 16542, Note_on_c, 0, 86, 0
2, 16544, Note_on_c, 0, 81, 78
2, 16574, Note_on_c, 0, 81, 0
2, 16576, Note_on_c, 0, 78, 78
2, 16606, Note_on_c, 0, 78, 0
2, 16608, Note_on_c, 0, 81, 78
2, 16638, Note_on_c, 0, 81, 0
2, 16640, Note_on_c, 0, 78, 78
2, 16670, Note_on_c, 0, 78, 0
2, 16672, Note_on_c, 0, 74, 78
2, 16702, Note_on_c, 0, 74, 0
2, 16704, Note_on_c, 0, 74, 78
2, 16896, Note_on_c, 0, 74, 0
2, 16896, Note_on_c, 0, 73, 78
2, 16908, Note_on_c, 0, 73, 0
2, 16908, Note_on_c, 0, 74, 78
2, 16920, Note_on_c, 0, 74, 0
2, 16920, Note_on_c, 0, 73, 78
2, 16985, Note_on_c, 0, 73, 0
2, 17088, Note_on_c, 0, 74, 78
2, 17118, Note_on_c, 0, 74, 0
2, 17120, Note_on_c, 0, 78, 78
2, 17150, Note_on_c, 0, 78, 0
2, 17152, Note_on_c, 0, 81, 78
2, 17182, Note_on_c, 0, 81, 0
2, 17184, Note_on_c, 0, 84, 78
2, 17214, Note_on_c, 0, 84, 0
2, 17216, Note_on_c, 0, 81, 78
2, 17246, Note_on_c, 0, 81, 0
2, 17248, Note_on_c, 0, 78, 78
2, 17278, Note_on_c, 0, 78, 0
2, 17280, Note_on_c, 0, 72, 78
2, 17376, Note_on_c, 0, 72, 0
2, 17376, Note_on_c, 0, 71, 78
2, 17388, Note_on_c, 0, 71, 0
2, 17388, Note_on_c, 0, 72, 78
2, 17400, Note_on_c, 0, 72, 0
2, 17400, Note_on_c, 0, 71, 78
2, 17465, Note_on_c, 0, 71, 0
2, 17472, Note_on_c, 0, 79, 78
2, 17561, Note_on_c, 0, 79, 0
2, 17568, Note_on_c, 0, 75, 78
2, 17616, Note_on_c, 0, 75, 0
2, 17616, Note_on_c, 0, 76, 78
2, 17661, Note_on_c, 0, 76, 0
2, 17664, Note_on_c, 0, 76, 78
2, 17753, Note_on_c, 0, 76, 0
2, 17760, Note_on_c, 0, 79, 78
2, 17849, Note_on_c, 0, 79, 0
2, 17856, Note_on_c, 0, 73, 78
2, 17904, Note_on_c, 0, 73, 0
2, 17904, Note_on_c, 0, 74, 78
2, 17949, Note_on_c, 0, 74, 0
2, 17952, Note_on_c, 0, 74, 78
2, 18041, Note_on_c, 0, 74, 0
2, 18048, Note_on_c, 0, 86, 78
2, 18078, Note_on_c, 0, 86, 0
2, 18080, Note_on_c, 0, 83, 78
2, 18110, Note_on_c, 0, 83, 0
2, 18112, Note_on_c, 0, 79, 78
2, 18142, Note_on_c, 0, 79, 0
2, 18144, Note_on_c, 0, 78, 78
2, 18233, Note_on_c, 0, 78, 0
2, 18240, Note_on_c, 0, 76, 78
2, 18252, Note_on_c, 0, 76, 0
2, 18252, Note_on_c, 0, 78, 78
2, 18264, Note_on_c, 0, 78, 0
2, 18264, Note_on_c, 0, 76, 78
2, 18329, Note_on_c, 0, 76, 0
2, 18336, Note_on_c, 0, 79, 78
2, 18366, Note_on_c, 0, 79, 0
2, 18368, Note_on_c, 0, 78, 78
2, 18398, Note_on_c, 0, 78, 0
2, 18400, Note_on_c, 0, 76, 78
2, 18430, Note_on_c, 0, 76, 0
2, 18432, Note_on_c, 0, 76, 78
2, 18521, Note_on_c, 0, 76, 0
2, 18528, Note_on_c, 0, 74, 78
2, 18540, Note_on_c, 0, 74, 0
2, 18540, Note_on_c, 0, 76, 78
2, 18552, Note_on_c, 0, 76, 0
2, 18552, Note_on_c, 0, 74, 78
2, 18617, Note_on_c, 0, 74, 0
2, 18624, Note_on_c, 0, 78, 78
2, 18654, Note_on_c, 0, 78, 0
2, 18656, Note_on_c, 0, 79, 78
2, 18686, Note_on_c, 0, 79, 0
2, 18688, Note_on_c, 0, 83, 78
2, 18718, Note_on_c, 0, 83, 0
2, 18720, Note_on_c, 0, 75, 78
2, 18750, Note_on_c, 0, 75, 0
2, 18752, Note_on_c, 0, 76, 78
2, 18782, Note_on_c, 0, 76, 0
2, 18784, Note_on_c, 0, 79, 79
2, 18814, Note_on_c, 0, 79, 0
2, 18816, Note_on_c, 0, 71, 80
2, 18846, Note_on_c, 0, 71, 0
2, 18848, Note_on_c, 0, 72, 80
2, 18878, Note_on_c, 0, 72, 0
2, 18880, Note_on_c, 0, 76, 81
2, 18910, Note_on_c, 0, 76, 0
2, 18912, Note_on_c, 0, 68, 82
2, 18942, Note_on_c, 0, 68, 0
2, 18944, Note_on_c, 0, 69, 83
2, 18974, Note_on_c, 0, 69, 0
2, 18976, Note_on_c, 0, 72, 83
2, 19006, Note_on_c, 0, 72, 0
2, 19008, Note_on_c, 0, 67, 85
2, 19200, Note_on_c, 0, 67, 0
2, 19200, Note_on_c, 0, 66, 80
2, 19212, Note_on_c, 0, 66, 0
2, 19212, Note_on_c, 0, 67, 80
2, 19224, Note_on_c, 0, 67, 0
2, 19224, Note_on_c, 0, 66, 80
2, 19289, Note_on_c, 0, 66, 0
2, 19296, Note_on_c, 0, 76, 78
2, 19314, Note_on_c, 0, 76, 0
2, 19314, Note_on_c, 0, 74, 78
2, 19332, Note_on_c, 0, 74, 0
2, 19332, Note_on_c, 0, 72, 78
2, 19350, Note_on_c, 0, 72, 0
2, 19350, Note_on_c, 0, 74, 78
2, 19385, Note_on_c, 0, 74, 0
2, 19392, Note_on_c, 0, 79, 78
2, 19422, Note_on_c, 0, 79, 0
2, 19424, Note_on_c, 0, 74, 78
2, 19454, Note_on_c, 0, 74, 0
2, 19456, Note_on_c, 0, 71, 78
2, 19486, Note_on_c, 0, 71, 0
2, 19488, Note_on_c, 0, 74, 78
2, 19518, Note_on_c, 0, 74, 0
2, 19520, Note_on_c, 0, 71, 78
2, 19550, Note_on_c, 0, 71, 0
2, 19552, Note_on_c, 0, 67, 78
2, 19582, Note_on_c, 0, 67, 0
2, 19584, Note_on_c, 0, 67, 78
2, 19614, Note_on_c, 0, 67, 0
2, 19616, Note_on_c, 0, 66, 78
2, 19646, Note_on_c, 0, 66, 0
2, 19648, Note_on_c, 0, 62, 78
2, 19678, Note_on_c, 0, 62, 0
2, 19680, Note_on_c, 0, 72, 78
2, 19680, Note_on_c, 0, 69, 78
2, 19776, Note_on_c, 0, 72, 0
2, 19776, Note_on_c, 0, 69, 0
2, 19776, Note_on_c, 0, 71, 78
2, 19776, Note_on_c, 0, 67, 78
2, 19865, Note_on_c, 0, 71, 0
2, 19865, Note_on_c, 0, 67, 0
2, 19872, Note_on_c, 0, 64, 78
2, 19902, Note_on_c, 0, 64, 0
2, 19904, Note_on_c, 0, 68, 78
2, 19934, Note_on_c, 0, 68, 0
2, 19936, Note_on_c, 0, 69, 78
2, 19966, Note_on_c, 0, 69, 0
2, 19968, Note_on_c, 0, 71, 78
2, 19998, Note_on_c, 0, 71, 0
2, 20000, Note_on_c, 0, 72, 78
2, 20030, Note_on_c, 0, 72, 0
2, 20032, Note_on_c, 0, 74, 78
2, 20062, Note_on_c, 0, 74, 0
2, 20064, Note_on_c, 0, 76, 78
2, 20094, Note_on_c, 0, 76, 0
2, 20096, Note_on_c, 0, 72, 78
2, 20126, Note_on_c, 0, 72, 0
2, 20128, Note_on_c, 0, 69, 78
2, 20158, Note_on_c, 0, 69, 0
2, 20160, Note_on_c, 0, 67, 78
2, 20352, Note_on_c, 0, 67, 0
2, 20352, Note_on_c, 0, 66, 78
2, 20441, Note_on_c, 0, 66, 0
2, 20736, Note_on_c, 0, 67, 78
2, 20766, Note_on_c, 0, 67, 0
2, 20768, Note_on_c, 0, 66, 78
2, 20798, Note_on_c, 0, 66, 0
2, 20800, Note_on_c, 0, 62, 78
2, 20830, Note_on_c, 0, 62, 0
2, 20832, Note_on_c, 0, 72, 78
2, 20832, Note_on_c, 0, 66, 78
2, 20832, Note_on_c, 0, 57, 78
2, 20928, Note_on_c, 0, 72, 0
2, 20928, Note_on_c, 0, 66, 0
2, 20928, Note_on_c, 0, 57, 0
2, 20928, Note_on_c, 0, 71, 78
2, 20928, Note_on_c, 0, 67, 78
2, 20928, Note_on_c, 0, 55, 78
2, 21017, Note_on_c, 0, 71, 0
2, 21017, Note_on_c, 0, 67, 0
2, 21017, Note_on_c, 0, 55, 0
2, 21024, Note_on_c, 0, 79, 78
2, 21054, Note_on_c, 0, 79, 0
2, 21056, Note_on_c, 0, 78, 78
2, 21086, Note_on_c, 0, 78, 0
2, 21088, Note_on_c, 0, 74, 78
2, 21118, Note_on_c, 0, 74, 0
2, 21120, Note_on_c, 0, 84, 78
2, 21120, Note_on_c, 0, 78, 78
2, 21120, Note_on_c, 0, 69, 78
2, 21216, Note_on_c, 0, 84, 0
2, 21216, Note_on_c, 0, 78, 0
2, 21216, Note_on_c, 0, 69, 0
2, 21216, Note_on_c, 0, 83, 78
2, 21216, Note_on_c, 0, 79, 78
2, 21216, Note_on_c, 0, 67, 78
2, 21305, Note_on_c, 0, 83, 0
2, 21305, Note_on_c, 0, 79, 0
2, 21305, Note_on_c, 0, 67, 0
2, 21312, Note_on_c, 0, 67, 78
2, 21342, Note_on_c, 0, 67, 0
2, 21344, Note_on_c, 0, 66, 78
2, 21374, Note_on_c, 0, 66, 0
2, 21376, Note_on_c, 0, 62, 78
2, 21406, Note_on_c, 0, 62, 0
2, 21408, Note_on_c, 0, 76, 78
2, 21408, Note_on_c, 0, 72, 78
2, 21516, Note_on_c, 0, 76, 0
2, 21516, Note_on_c, 0, 72, 0
2, 21516, Note_on_c, 0, 74, 78
2, 21516, Note_on_c, 0, 71, 78
2, 21777, Note_on_c, 0, 74, 0
2, 21777, Note_on_c, 0, 71, 0
2, 21888, Note_on_c, 0, 68, 78
2, 21918, Note_on_c, 0, 68, 0
2, 21920, Note_on_c, 0, 69, 79
2, 21950, Note_on_c, 0, 69, 0
2, 21952, Note_on_c, 0, 72, 80
2, 21982, Note_on_c, 0, 72, 0
2, 21984, Note_on_c, 0, 76, 81
2, 22014, Note_on_c, 0, 76, 0
2, 22016, Note_on_c, 0, 72, 82
2, 22046, Note_on_c, 0, 72, 0
2, 22048, Note_on_c, 0, 69, 83
2, 22078, Note_on_c, 0, 69, 0
2, 22080, Note_on_c, 0, 72, 84
2, 22110, Note_on_c, 0, 72, 0
2, 22112, Note_on_c, 0, 69, 84
2, 22142, Note_on_c, 0, 69, 0
2, 22144, Note_on_c, 0, 66, 84
2, 22174, Note_on_c, 0, 66, 0
2, 22176, Note_on_c, 0, 66, 83
2, 22176, Note_on_c, 0, 60, 83
2, 22368, Note_on_c, 0, 66, 0
2, 22368, Note_on_c, 0, 60, 0
2, 22368, Note_on_c, 0, 67, 80
2, 22368, Note_on_c, 0, 59, 80
2, 22457, Note_on_c, 0, 67, 0
2, 22457, Note_on_c, 0, 59, 0
2, 22464, Note_on_c, 0, 79, 78
2, 22494, Note_on_c, 0, 79, 0
2, 22496, Note_on_c, 0, 78, 78
2, 22526, Note_on_c, 0, 78, 0
2, 22528, Note_on_c, 0, 81, 78
2, 22558, Note_on_c, 0, 81, 0
2, 22560, Note_on_c, 0, 86, 94
2, 22686, Note_on_c, 0, 86, 0
2, 22688, Note_on_c, 0, 83, 78
2, 22718, Note_on_c, 0, 83, 0
2, 22720, Note_on_c, 0, 79, 78
2, 22750, Note_on_c, 0, 79, 0
2, 22752, Note_on_c, 0, 78, 78
2, 22782, Note_on_c, 0, 78, 0
2, 22784, Note_on_c, 0, 74, 78
2, 22814, Note_on_c, 0, 74, 0
2, 22816, Note_on_c, 0, 81, 78
2, 22846, Note_on_c, 0, 81, 0
2, 22848, Note_on_c, 0, 86, 94
2, 22974, Note_on_c, 0, 86, 0
2, 22976, Note_on_c, 0, 83, 78
2, 23006, Note_on_c, 0, 83, 0
2, 23008, Note_on_c, 0, 79, 78
2, 23038, Note_on_c, 0, 79, 0
2, 23040, Note_on_c, 0, 79, 78
2, 23070, Note_on_c, 0, 79, 0
2, 23072, Note_on_c, 0, 78, 78
2, 23102, Note_on_c, 0, 78, 0
2, 23104, Note_on_c, 0, 81, 78
2, 23134, Note_on_c, 0, 81, 0
2, 23136, Note_on_c, 0, 86, 94
2, 23262, Note_on_c, 0, 86, 0
2, 23264, Note_on_c, 0, 83, 78
2, 23294, Note_on_c, 0, 83, 0
2, 23296, Note_on_c, 0, 79, 78
2, 23326, Note_on_c, 0, 79, 0
2, 23328, Note_on_c, 0, 78, 78
2, 23358, Note_on_c, 0, 78, 0
2, 23360, Note_on_c, 0, 74, 78
2, 23390, Note_on_c, 0, 74, 0
2, 23392, Note_on_c, 0, 81, 78
2, 23422, Note_on_c, 0, 81, 0
2, 23424, Note_on_c, 0, 86, 94
2, 23550, Note_on_c, 0, 86, 0
2, 23552, Note_on_c, 0, 83, 78
2, 23582, Note_on_c, 0, 83, 0
2, 23584, Note_on_c, 0, 79, 78
2, 23614, Note_on_c, 0, 79, 0
2, 23616, Note_on_c, 0, 76, 78
2, 23646, Note_on_c, 0, 76, 0
2, 23648, Note_on_c, 0, 78, 78
2, 23678, Note_on_c, 0, 78, 0
2, 23680, Note_on_c, 0, 79, 78
2, 23710, Note_on_c, 0, 79, 0
2, 23712, Note_on_c, 0, 74, 78
2, 23742, Note_on_c, 0, 74, 0
2, 23744, Note_on_c, 0, 78, 78
2, 23774, Note_on_c, 0, 78, 0
2, 23776, Note_on_c, 0, 79, 78
2, 23806, Note_on_c, 0, 79, 0
2, 23808, Note_on_c, 0, 72, 78
2, 23838, Note_on_c, 0, 72, 0
2, 23840, Note_on_c, 0, 80, 78
2, 23870, Note_on_c, 0, 80, 0
2, 23872, Note_on_c, 0, 81, 78
2, 23902, Note_on_c, 0, 81, 0
2, 23904, Note_on_c, 0, 71, 78
2, 23934, Note_on_c, 0, 71, 0
2, 23936, Note_on_c, 0, 83, 78
2, 23966, Note_on_c, 0, 83, 0
2, 23968, Note_on_c, 0, 81, 78
2, 23998, Note_on_c, 0, 81, 0
2, 24000, Note_on_c, 0, 79, 78
2, 24030, Note_on_c, 0, 79, 0
2, 24032, Note_on_c, 0, 78, 78
2, 24062, Note_on_c, 0, 78, 0
2, 24064, Note_on_c, 0, 76, 78
2, 24094, Note_on_c, 0, 76, 0
2, 24096, Note_on_c, 0, 74, 78
2, 24126, Note_on_c, 0, 74, 0
2, 24128, Note_on_c, 0, 72, 78
2, 24158, Note_on_c, 0, 72, 0
2, 24160, Note_on_c, 0, 71, 78
2, 24190, Note_on_c, 0, 71, 0
2, 24192, Note_on_c, 0, 69, 78
2, 24222, Note_on_c, 0, 69, 0
2, 24224, Note_on_c, 0, 72, 78
2, 24254, Note_on_c, 0, 72, 0
2, 24256, Note_on_c, 0, 76, 78
2, 24286, Note_on_c, 0, 76, 0
2, 24288, Note_on_c, 0, 67, 78
2, 24377, Note_on_c, 0, 67, 0
2, 24384, Note_on_c, 0, 66, 78
2, 24396, Note_on_c, 0, 66, 0
2, 24396, Note_on_c, 0, 67, 78
2, 24408, Note_on_c, 0, 67, 0
2, 24408, Note_on_c, 0, 66, 78
2, 24473, Note_on_c, 0, 66, 0
2, 24480, Note_on_c, 0, 66, 78
2, 24480, Note_on_c, 0, 60, 78
2, 24672, Note_on_c, 0, 66, 0
2, 24672, Note_on_c, 0, 60, 0
2, 24672, Note_on_c, 0, 67, 78
2, 24672, Note_on_c, 0, 59, 78
2, 24761, Note_on_c, 0, 67, 0
2, 24761, Note_on_c, 0, 59, 0
2, 24768, Note_on_c, 0, 74, 64
2, 24945, Note_on_c, 0, 74, 0
2, 24960, Note_on_c, 0, 77, 64
2, 24978, Note_on_c, 0, 77, 0
2, 24978, Note_on_c, 0, 75, 64
2, 25049, Note_on_c, 0, 75, 0
2, 25056, Note_on_c, 0, 74, 64
2, 25101, Note_on_c, 0, 74, 0
2, 25104, Note_on_c, 0, 82, 64
2, 25149, Note_on_c, 0, 82, 0
2, 25152, Note_on_c, 0, 81, 64
2, 25197, Note_on_c, 0, 81, 0
2, 25200, Note_on_c, 0, 79, 64
2, 25245, Note_on_c, 0, 79, 0
2, 25248, Note_on_c, 0, 78, 64
2, 25293, Note_on_c, 0, 78, 0
2, 25296, Note_on_c, 0, 79, 64
2, 25341, Note_on_c, 0, 79, 0
2, 25344, Note_on_c, 0, 74, 64
2, 25521, Note_on_c, 0, 74, 0
2, 25536, Note_on_c, 0, 77, 64
2, 25554, Note_on_c, 0, 77, 0
2, 25554, Note_on_c, 0, 75, 64
2, 25625, Note_on_c, 0, 75, 0
2, 25632, Note_on_c, 0, 74, 64
2, 25677, Note_on_c, 0, 74, 0
2, 25680, Note_on_c, 0, 84, 64
2, 25725, Note_on_c, 0, 84, 0
2, 25728, Note_on_c, 0, 81, 64
2, 25773, Note_on_c, 0, 81, 0
2, 25776, Note_on_c, 0, 78, 64
2, 25821, Note_on_c, 0, 78, 0
2, 25824, Note_on_c, 0, 74, 64
2, 25869, Note_on_c, 0, 74, 0
2, 25872, Note_on_c, 0, 72, 64
2, 25917, Note_on_c, 0, 72, 0
2, 25920, Note_on_c, 0, 72, 64
2, 25933, Note_on_c, 0, 72, 0
2, 25934, Note_on_c, 0, 70, 64
2, 25947, Note_on_c, 0, 70, 0
2, 25948, Note_on_c, 0, 72, 64
2, 25961, Note_on_c, 0, 72, 0
2, 25962, Note_on_c, 0, 70, 64
2, 25975, Note_on_c, 0, 70, 0
2, 25976, Note_on_c, 0, 72, 64
2, 25989, Note_on_c, 0, 72, 0
2, 25990, Note_on_c, 0, 70, 64
2, 26003, Note_on_c, 0, 70, 0
2, 26004, Note_on_c, 0, 72, 65
2, 26017, Note_on_c, 0, 72, 0
2, 26018, Note_on_c, 0, 70, 65
2, 26031, Note_on_c, 0, 70, 0
2, 26032, Note_on_c, 0, 72, 65
2, 26045, Note_on_c, 0, 72, 0
2, 26046, Note_on_c, 0, 70, 65
2, 26059, Note_on_c, 0, 70, 0
2, 26060, Note_on_c, 0, 72, 65
2, 26072, Note_on_c, 0, 72, 0
2, 26073, Note_on_c, 0, 70, 66
2, 26085, Note_on_c, 0, 70, 0
2, 26086, Note_on_c, 0, 69, 66
2, 26098, Note_on_c, 0, 69, 0
2, 26099, Note_on_c, 0, 70, 66
2, 26111, Note_on_c, 0, 70, 0
2, 26112, Note_on_c, 0, 69, 66
2, 26132, Note_on_c, 0, 69, 0
2, 26208, Note_on_c, 0, 74, 68
2, 26221, Note_on_c, 0, 74, 0
2, 26222, Note_on_c, 0, 72, 68
2, 26235, Note_on_c, 0, 72, 0
2, 26236, Note_on_c, 0, 74, 68
2, 26249, Note_on_c, 0, 74, 0
2, 26250, Note_on_c, 0, 72, 68
2, 26263, Note_on_c, 0, 72, 0
2, 26264, Note_on_c, 0, 74, 69
2, 26277, Note_on_c, 0, 74, 0
2, 26278, Note_on_c, 0, 72, 69
2, 26291, Note_on_c, 0, 72, 0
2, 26292, Note_on_c, 0, 74, 69
2, 26305, Note_on_c, 0, 74, 0
2, 26306, Note_on_c, 0, 72, 69
2, 26319, Note_on_c, 0, 72, 0
2, 26320, Note_on_c, 0, 74, 69
2, 26333, Note_on_c, 0, 74, 0
2, 26334, Note_on_c, 0, 72, 70
2, 26347, Note_on_c, 0, 72, 0
2, 26348, Note_on_c, 0, 74, 70
2, 26360, Note_on_c, 0, 74, 0
2, 26361, Note_on_c, 0, 72, 70
2, 26373, Note_on_c, 0, 72, 0
2, 26374, Note_on_c, 0, 70, 70
2, 26386, Note_on_c, 0, 70, 0
2, 26387, Note_on_c, 0, 72, 70
2, 26399, Note_on_c, 0, 72, 0
2, 26400, Note_on_c, 0, 70, 71
2, 26420, Note_on_c, 0, 70, 0
2, 26496, Note_on_c, 0, 67, 72
2, 26541, Note_on_c, 0, 67, 0
2, 26544, Note_on_c, 0, 79, 73
2, 26589, Note_on_c, 0, 79, 0
2, 26592, Note_on_c, 0, 77, 74
2, 26637, Note_on_c, 0, 77, 0
2, 26640, Note_on_c, 0, 75, 74
2, 26685, Note_on_c, 0, 75, 0
2, 26688, Note_on_c, 0, 74, 75
2, 26733, Note_on_c, 0, 74, 0
2, 26736, Note_on_c, 0, 73, 76
2, 26781, Note_on_c, 0, 73, 0
2, 26784, Note_on_c, 0, 73, 78
2, 26976, Note_on_c, 0, 73, 0
2, 26976, Note_on_c, 0, 74, 78
2, 27065, Note_on_c, 0, 74, 0
2, 27072, Note_on_c, 0, 74, 64
2, 27249, Note_on_c, 0, 74, 0
2, 27264, Note_on_c, 0, 77, 64
2, 27282, Note_on_c, 0, 77, 0
2, 27282, Note_on_c, 0, 75, 64
2, 27353, Note_on_c, 0, 75, 0
2, 27360, Note_on_c, 0, 74, 64
2, 27405, Note_on_c, 0, 74, 0
2, 27408, Note_on_c, 0, 82, 64
2, 27453, Note_on_c, 0, 82, 0
2, 27456, Note_on_c, 0, 81, 64
2, 27501, Note_on_c, 0, 81, 0
2, 27504, Note_on_c, 0, 79, 64
2, 27549, Note_on_c, 0, 79, 0
2, 27552, Note_on_c, 0, 78, 64
2, 27597, Note_on_c, 0, 78, 0
2, 27600, Note_on_c, 0, 79, 64
2, 27645, Note_on_c, 0, 79, 0
2, 27648, Note_on_c, 0, 74, 64
2, 27825, Note_on_c, 0, 74, 0
2, 27840, Note_on_c, 0, 77, 64
2, 27858, Note_on_c, 0, 77, 0
2, 27858, Note_on_c, 0, 75, 64
2, 27929, Note_on_c, 0, 75, 0
2, 27936, Note_on_c, 0, 74, 64
2, 27981, Note_on_c, 0, 74, 0
2, 27984, Note_on_c, 0, 84, 64
2, 28029, Note_on_c, 0, 84, 0
2, 28032, Note_on_c, 0, 81, 64
2, 28077, Note_on_c, 0, 81, 0
2, 28080, Note_on_c, 0, 78, 64
2, 28125, Note_on_c, 0, 78, 0
2, 28128, Note_on_c, 0, 74, 64
2, 28173, Note_on_c, 0, 74, 0
2, 28176, Note_on_c, 0, 72, 64
2, 28221, Note_on_c, 0, 72, 0
2, 28224, Note_on_c, 0, 72, 64
2, 28237, Note_on_c, 0, 72, 0
2, 28238, Note_on_c, 0, 70, 64
2, 28251, Note_on_c, 0, 70, 0
2, 28252, Note_on_c, 0, 72, 64
2, 28265, Note_on_c, 0, 72, 0
2, 28266, Note_on_c, 0, 70, 64
2, 28279, Note_on_c, 0, 70, 0
2, 28280, Note_on_c, 0, 72, 64
2, 28293, Note_on_c, 0, 72, 0
2, 28294, Note_on_c, 0, 70, 64
2, 28307, Note_on_c, 0, 70, 0
2, 28308, Note_on_c, 0, 72, 65
2, 28321, Note_on_c, 0, 72, 0
2, 28322, Note_on_c, 0, 70, 65
2, 28335, Note_on_c, 0, 70, 0
2, 28336, Note_on_c, 0, 72, 65
2, 28349, Note_on_c, 0, 72, 0
2, 28350, Note_on_c, 0, 70, 65
2, 28363, Note_on_c, 0, 70, 0
2, 28364, Note_on_c, 0, 72, 65
2, 28376, Note_on_c, 0, 72, 0
2, 28377, Note_on_c, 0, 70, 66
2, 28389, Note_on_c, 0, 70, 0
2, 28390, Note_on_c, 0, 69, 66
2, 28402, Note_on_c, 0, 69, 0
2, 28403, Note_on_c, 0, 70, 66
2, 28415, Note_on_c, 0, 70, 0
2, 28416, Note_on_c, 0, 69, 66
2, 28436, Note_on_c, 0, 69, 0
2, 28512, Note_on_c, 0, 74, 68
2, 28525, Note_on_c, 0, 74, 0
2, 28526, Note_on_c, 0, 72, 68
2, 28539, Note_on_c, 0, 72, 0
2, 28540, Note_on_c, 0, 74, 68
2, 28553, Note_on_c, 0, 74, 0
2, 28554, Note_on_c, 0, 72, 68
2, 28567, Note_on_c, 0, 72, 0
2, 28568, Note_on_c, 0, 74, 69
2, 28581, Note_on_c, 0, 74, 0
2, 28582, Note_on_c, 0, 72, 69
2, 28595, Note_on_c, 0, 72, 0
2, 28596, Note_on_c, 0, 74, 69
2, 28609, Note_on_c, 0, 74, 0
2, 28610, Note_on_c, 0, 72, 69
2, 28623, Note_on_c, 0, 72, 0
2, 28624, Note_on_c, 0, 74, 69
2, 28637, Note_on_c, 0, 74, 0
2, 28638, Note_on_c, 0, 72, 70
2, 28651, Note_on_c, 0, 72, 0
2, 28652, Note_on_c, 0, 74, 70
2, 28664, Note_on_c, 0, 74, 0
2, 28665, Note_on_c, 0, 72, 70
2, 28677, Note_on_c, 0, 72, 0
2, 28678, Note_on_c, 0, 70, 70
2, 28690, Note_on_c, 0, 70, 0
2, 28691, Note_on_c, 0, 72, 70
2, 28703, Note_on_c, 0, 72, 0
2, 28704, Note_on_c, 0, 70, 71
2, 28724, Note_on_c, 0, 70, 0
2, 28800, Note_on_c, 0, 67, 72
2, 28845, Note_on_c, 0, 67, 0
2, 28848, Note_on_c, 0, 79, 73
2, 28893, Note_on_c, 0, 79, 0
2, 28896, Note_on_c, 0, 77, 74
2, 28941, Note_on_c, 0, 77, 0
2, 28944, Note_on_c, 0, 75, 74
2, 28989, Note_on_c, 0, 75, 0
2, 28992, Note_on_c, 0, 74, 75
2, 29037, Note_on_c, 0, 74, 0
2, 29040, Note_on_c, 0, 73, 76
2, 29085, Note_on_c, 0, 73, 0
2, 29088, Note_on_c, 0, 73, 78
2, 29280, Note_on_c, 0, 73, 0
2, 29280, Note_on_c, 0, 74, 78
2, 29369, Note_on_c, 0, 74, 0
2, 29376, Note_on_c, 0, 65, 78
2, 29553, Note_on_c, 0, 65, 0
2, 29568, Note_on_c, 0, 69, 78
2, 29586, Note_on_c, 0, 69, 0
2, 29586, Note_on_c, 0, 67, 78
2, 29657, Note_on_c, 0, 67, 0
2, 29664, Note_on_c, 0, 65, 78
2, 29753, Note_on_c, 0, 65, 0
2, 29856, Note_on_c, 0, 77, 78
2, 29874, Note_on_c, 0, 77, 0
2, 29874, Note_on_c, 0, 75, 78
2, 29945, Note_on_c, 0, 75, 0
2, 29952, Note_on_c, 0, 74, 78
2, 30041, Note_on_c, 0, 74, 0
2, 30144, Note_on_c, 0, 81, 78
2, 30162, Note_on_c, 0, 81, 0
2, 30162, Note_on_c, 0, 79, 78
2, 30233, Note_on_c, 0, 79, 0
2, 30240, Note_on_c, 0, 77, 78
2, 30329, Note_on_c, 0, 77, 0
2, 30432, Note_on_c, 0, 82, 78
2, 30480, Note_on_c, 0, 82, 0
2, 30480, Note_on_c, 0, 81, 78
2, 30525, Note_on_c, 0, 81, 0
2, 30528, Note_on_c, 0, 81, 78
2, 30576, Note_on_c, 0, 81, 0
2, 30576, Note_on_c, 0, 79, 78
2, 30621, Note_on_c, 0, 79, 0
2, 30624, Note_on_c, 0, 79, 78
2, 30672, Note_on_c, 0, 79, 0
2, 30672, Note_on_c, 0, 77, 78
2, 30717, Note_on_c, 0, 77, 0
2, 30720, Note_on_c, 0, 77, 78
2, 30768, Note_on_c, 0, 77, 0
2, 30768, Note_on_c, 0, 75, 78
2, 30813, Note_on_c, 0, 75, 0
2, 30816, Note_on_c, 0, 77, 78
2, 30829, Note_on_c, 0, 77, 0
2, 30830, Note_on_c, 0, 75, 78
2, 30843, Note_on_c, 0, 75, 0
2, 30844, Note_on_c, 0, 77, 78
2, 30857, Note_on_c, 0, 77, 0
2, 30858, Note_on_c, 0, 75, 78
2, 30871, Note_on_c, 0, 75, 0
2, 30872, Note_on_c, 0, 77, 78
2, 30885, Note_on_c, 0, 77, 0
2, 30886, Note_on_c, 0, 75, 78
2, 30899, Note_on_c, 0, 75, 0
2, 30900, Note_on_c, 0, 77, 78
2, 30913, Note_on_c, 0, 77, 0
2, 30914, Note_on_c, 0, 75, 78
2, 30927, Note_on_c, 0, 75, 0
2, 30928, Note_on_c, 0, 77, 78
2, 30941, Note_on_c, 0, 77, 0
2, 30942, Note_on_c, 0, 75, 78
2, 30955, Note_on_c, 0, 75, 0
2, 30956, Note_on_c, 0, 77, 78
2, 30968, Note_on_c, 0, 77, 0
2, 30969, Note_on_c, 0, 75, 78
2, 30981, Note_on_c, 0, 75, 0
2, 30982, Note_on_c, 0, 74, 78
2, 30994, Note_on_c, 0, 74, 0
2, 30995, Note_on_c, 0, 75, 78
2, 31007, Note_on_c, 0, 75, 0
2, 31008, Note_on_c, 0, 77, 78
2, 31020, Note_on_c, 0, 77, 0
2, 31020, Note_on_c, 0, 75, 78
2, 31053, Note_on_c, 0, 75, 0
2, 31056, Note_on_c, 0, 74, 78
2, 31101, Note_on_c, 0, 74, 0
2, 31104, Note_on_c, 0, 74, 78
2, 31116, Note_on_c, 0, 74, 0
2, 31116, Note_on_c, 0, 75, 78
2, 31128, Note_on_c, 0, 75, 0
2, 31128, Note_on_c, 0, 74, 78
2, 31149, Note_on_c, 0, 74, 0
2, 31152, Note_on_c, 0, 72, 78
2, 31197, Note_on_c, 0, 72, 0
2, 31200, Note_on_c, 0, 72, 78
2, 31212, Note_on_c, 0, 72, 0
2, 31212, Note_on_c, 0, 74, 78
2, 31224, Note_on_c, 0, 74, 0
2, 31224, Note_on_c, 0, 72, 78
2, 31245, Note_on_c, 0, 72, 0
2, 31248, Note_on_c, 0, 70, 78
2, 31293, Note_on_c, 0, 70, 0
2, 31296, Note_on_c, 0, 70, 78
2, 31308, Note_on_c, 0, 70, 0
2, 31308, Note_on_c, 0, 72, 78
2, 31320, Note_on_c, 0, 72, 0
2, 31320, Note_on_c, 0, 70, 78
2, 31341, Note_on_c, 0, 70, 0
2, 31344, Note_on_c, 0, 69, 78
2, 31389, Note_on_c, 0, 69, 0
2, 31392, Note_on_c, 0, 69, 78
2, 31488, Note_on_c, 0, 69, 0
2, 31488, Note_on_c, 0, 70, 78
2, 31577, Note_on_c, 0, 70, 0
2, 31680, Note_on_c, 0, 74, 64
2, 31857, Note_on_c, 0, 74, 0
2, 31872, Note_on_c, 0, 77, 64
2, 31890, Note_on_c, 0, 77, 0
2, 31890, Note_on_c, 0, 75, 64
2, 31961, Note_on_c, 0, 75, 0
2, 31968, Note_on_c, 0, 74, 64
2, 32013, Note_on_c, 0, 74, 0
2, 32016, Note_on_c, 0, 82, 64
2, 32061, Note_on_c, 0, 82, 0
2, 32064, Note_on_c, 0, 81, 64
2, 32109, Note_on_c, 0, 81, 0
2, 32112, Note_on_c, 0, 79, 64
2, 32157, Note_on_c, 0, 79, 0
2, 32160, Note_on_c, 0, 78, 64
2, 32205, Note_on_c, 0, 78, 0
2, 32208, Note_on_c, 0, 79, 64
2, 32253, Note_on_c, 0, 79, 0
2, 32256, Note_on_c, 0, 74, 64
2, 32433, Note_on_c, 0, 74, 0
2, 32448, Note_on_c, 0, 77, 64
2, 32466, Note_on_c, 0, 77, 0
2, 32466, Note_on_c, 0, 75, 64
2, 32537, Note_on_c, 0, 75, 0
2, 32544, Note_on_c, 0, 74, 64
2, 32589, Note_on_c, 0, 74, 0
2, 32592, Note_on_c, 0, 84, 64
2, 32637, Note_on_c, 0, 84, 0
2, 32640, Note_on_c, 0, 81, 64
2, 32685, Note_on_c, 0, 81, 0
2, 32688, Note_on_c, 0, 78, 64
2, 32733, Note_on_c, 0, 78, 0
2, 32736, Note_on_c, 0, 74, 64
2, 32781, Note_on_c, 0, 74, 0
2, 32784, Note_on_c, 0, 72, 64
2, 32829, Note_on_c, 0, 72, 0
2, 32832, Note_on_c, 0, 72, 64
2, 32845, Note_on_c, 0, 72, 0
2, 32846, Note_on_c, 0, 70, 64
2, 32859, Note_on_c, 0, 70, 0
2, 32860, Note_on_c, 0, 72, 64
2, 32873, Note_on_c, 0, 72, 0
2, 32874, Note_on_c, 0, 70, 64
2, 32887, Note_on_c, 0, 70, 0
2, 32888, Note_on_c, 0, 72, 64
2, 32901, Note_on_c, 0, 72, 0
2, 32902, Note_on_c, 0, 70, 64
2, 32915, Note_on_c, 0, 70, 0
2, 32916, Note_on_c, 0, 72, 64
2, 32929, Note_on_c, 0, 72, 0
2, 32930, Note_on_c, 0, 70, 65
2, 32943, Note_on_c, 0, 70, 0
2, 32944, Note_on_c, 0, 72, 65
2, 32957, Note_on_c, 0, 72, 0
2, 32958, Note_on_c, 0, 70, 65
2, 32971, Note_on_c, 0, 70, 0
2, 32972, Note_on_c, 0, 72, 65
2, 32984, Note_on_c, 0, 72, 0
2, 32985, Note_on_c, 0, 70, 65
2, 32997, Note_on_c, 0, 70, 0
2, 32998, Note_on_c, 0, 69, 65
2, 33010, Note_on_c, 0, 69, 0
2, 33011, Note_on_c, 0, 70, 66
2, 33023, Note_on_c, 0, 70, 0
2, 33024, Note_on_c, 0, 69, 66
2, 33044, Note_on_c, 0, 69, 0
2, 33120, Note_on_c, 0, 74, 67
2, 33133, Note_on_c, 0, 74, 0
2, 33134, Note_on_c, 0, 72, 67
2, 33147, Note_on_c, 0, 72, 0
2, 33148, Note_on_c, 0, 74, 67
2, 33161, Note_on_c, 0, 74, 0
2, 33162, Note_on_c, 0, 72, 67
2, 33175, Note_on_c, 0, 72, 0
2, 33176, Note_on_c, 0, 74, 68
2, 33189, Note_on_c, 0, 74, 0
2, 33190, Note_on_c, 0, 72, 68
2, 33203, Note_on_c, 0, 72, 0
2, 33204, Note_on_c, 0, 74, 68
2, 33217, Note_on_c, 0, 74, 0
2, 33218, Note_on_c, 0, 72, 68
2, 33231, Note_on_c, 0, 72, 0
2, 33232, Note_on_c, 0, 74, 68
2, 33245, Note_on_c, 0, 74, 0
2, 33246, Note_on_c, 0, 72, 68
2, 33259, Note_on_c, 0, 72, 0
2, 33260, Note_on_c, 0, 74, 69
2, 33272, Note_on_c, 0, 74, 0
2, 33273, Note_on_c, 0, 72, 69
2, 33285, Note_on_c, 0, 72, 0
2, 33286, Note_on_c, 0, 70, 69
2, 33298, Note_on_c, 0, 70, 0
2, 33299, Note_on_c, 0, 72, 69
2, 33311, Note_on_c, 0, 72, 0
2, 33312, Note_on_c, 0, 70, 69
2, 33332, Note_on_c, 0, 70, 0
2, 33408, Note_on_c, 0, 70, 71
2, 33420, Note_on_c, 0, 70, 0
2, 33420, Note_on_c, 0, 72, 71
2, 33432, Note_on_c, 0, 72, 0
2, 33432, Note_on_c, 0, 70, 71
2, 33453, Note_on_c, 0, 70, 0
2, 33456, Note_on_c, 0, 69, 70
2, 33501, Note_on_c, 0, 69, 0
2, 33504, Note_on_c, 0, 69, 69
2, 33516, Note_on_c, 0, 69, 0
2, 33516, Note_on_c, 0, 70, 69
2, 33528, Note_on_c, 0, 70, 0
2, 33528, Note_on_c, 0, 69, 69
2, 33549, Note_on_c, 0, 69, 0
2, 33552, Note_on_c, 0, 67, 68
2, 33597, Note_on_c, 0, 67, 0
2, 33600, Note_on_c, 0, 67, 68
2, 33612, Note_on_c, 0, 67, 0
2, 33612, Note_on_c, 0, 69, 68
2, 33624, Note_on_c, 0, 69, 0
2, 33624, Note_on_c, 0, 67, 68
2, 33645, Note_on_c, 0, 67, 0
2, 33648, Note_on_c, 0, 66, 67
2, 33693, Note_on_c, 0, 66, 0
2, 33696, Note_on_c, 0, 66, 66
2, 33792, Note_on_c, 0, 66, 0
2, 33792, Note_on_c, 0, 67, 65
2, 33881, Note_on_c, 0, 67, 0
2, 33984, Note_on_c, 0, 65, 78
2, 34161, Note_on_c, 0, 65, 0
2, 34176, Note_on_c, 0, 69, 78
2, 34194, Note_on_c, 0, 69, 0
2, 34194, Note_on_c, 0, 67, 78
2, 34265, Note_on_c, 0, 67, 0
2, 34272, Note_on_c, 0, 65, 78
2, 34361, Note_on_c, 0, 65, 0
2, 34464, Note_on_c, 0, 77, 78
2, 34482, Note_on_c, 0, 77, 0
2, 34482, Note_on_c, 0, 75, 78
2, 34553, Note_on_c, 0, 75, 0
2, 34560, Note_on_c, 0, 74, 78
2, 34649, Note_on_c, 0, 74, 0
2, 34752, Note_on_c, 0, 81, 78
2, 34770, Note_on_c, 0, 81, 0
2, 34770, Note_on_c, 0, 79, 78
2, 34841, Note_on_c, 0, 79, 0
2, 34848, Note_on_c, 0, 77, 78
2, 34937, Note_on_c, 0, 77, 0
2, 35040, Note_on_c, 0, 82, 78
2, 35088, Note_on_c, 0, 82, 0
2, 35088, Note_on_c, 0, 81, 78
2, 35133, Note_on_c, 0, 81, 0
2, 35136, Note_on_c, 0, 81, 78
2, 35184, Note_on_c, 0, 81, 0
2, 35184, Note_on_c, 0, 79, 78
2, 35229, Note_on_c, 0, 79, 0
2, 35232, Note_on_c, 0, 79, 78
2, 35280, Note_on_c, 0, 79, 0
2, 35280, Note_on_c, 0, 77, 78
2, 35325, Note_on_c, 0, 77, 0
2, 35328, Note_on_c, 0, 77, 78
2, 35376, Note_on_c, 0, 77, 0
2, 35376, Note_on_c, 0, 75, 78
2, 35421, Note_on_c, 0, 75, 0
2, 35424, Note_on_c, 0, 77, 78
2, 35437, Note_on_c, 0, 77, 0
2, 35438, Note_on_c, 0, 75, 78
2, 35451, Note_on_c, 0, 75, 0
2, 35452, Note_on_c, 0, 77, 78
2, 35465, Note_on_c, 0, 77, 0
2, 35466, Note_on_c, 0, 75, 78
2, 35479, Note_on_c, 0, 75, 0
2, 35480, Note_on_c, 0, 77, 78
2, 35493, Note_on_c, 0, 77, 0
2, 35494, Note_on_c, 0, 75, 78
2, 35507, Note_on_c, 0, 75, 0
2, 35508, Note_on_c, 0, 77, 78
2, 35521, Note_on_c, 0, 77, 0
2, 35522, Note_on_c, 0, 75, 78
2, 35535, Note_on_c, 0, 75, 0
2, 35536, Note_on_c, 0, 77, 78
2, 35549, Note_on_c, 0, 77, 0
2, 35550, Note_on_c, 0, 75, 78
2, 35563, Note_on_c, 0, 75, 0
2, 35564, Note_on_c, 0, 77, 78
2, 35576, Note_on_c, 0, 77, 0
2, 35577, Note_on_c, 0, 75, 78
2, 35589, Note_on_c, 0, 75, 0
2, 35590, Note_on_c, 0, 74, 78
2, 35602, Note_on_c, 0, 74, 0
2, 35603, Note_on_c, 0, 75, 78
2, 35615, Note_on_c, 0, 75, 0
2, 35616, Note_on_c, 0, 77, 78
2, 35628, Note_on_c, 0, 77, 0
2, 35628, Note_on_c, 0, 75, 78
2, 35661, Note_on_c, 0, 75, 0
2, 35664, Note_on_c, 0, 74, 78
2, 35709, Note_on_c, 0, 74, 0
2, 35712, Note_on_c, 0, 74, 78
2, 35724, Note_on_c, 0, 74, 0
2, 35724, Note_on_c, 0, 75, 78
2, 35736, Note_on_c, 0, 75, 0
2, 35736, Note_on_c, 0, 74, 78
2, 35757, Note_on_c, 0, 74, 0
2, 35760, Note_on_c, 0, 72, 78
2, 35805, Note_on_c, 0, 72, 0
2, 35808, Note_on_c, 0, 72, 78
2, 35820, Note_on_c, 0, 72, 0
2, 35820, Note_on_c, 0, 74, 78
2, 35832, Note_on_c, 0, 74, 0
2, 35832, Note_on_c, 0, 72, 78
2, 35853, Note_on_c, 0, 72, 0
2, 35856, Note_on_c, 0, 70, 78
2, 35901, Note_on_c, 0, 70, 0
2, 35904, Note_on_c, 0, 70, 78
2, 35916, Note_on_c, 0, 70, 0
2, 35916, Note_on_c, 0, 72, 78
2, 35928, Note_on_c, 0, 72, 0
2, 35928, Note_on_c, 0, 70, 78
2, 35949, Note_on_c, 0, 70, 0
2, 35952, Note_on_c, 0, 69, 78
2, 35997, Note_on_c, 0, 69, 0
2, 36000, Note_on_c, 0, 69, 78
2, 36096, Note_on_c, 0, 69, 0
2, 36096, Note_on_c, 0, 70, 78
2, 36185, Note_on_c, 0, 70, 0
2, 36288, Note_on_c, 0, 74, 64
2, 36465, Note_on_c, 0, 74, 0
2, 36480, Note_on_c, 0, 77, 64
2, 36498, Note_on_c, 0, 77, 0
2, 36498, Note_on_c, 0, 75, 64
2, 36569, Note_on_c, 0, 75, 0
2, 36576, Note_on_c, 0, 74, 64
2, 36621, Note_on_c, 0, 74, 0
2, 36624, Note_on_c, 0, 82, 64
2, 36669, Note_on_c, 0, 82, 0
2, 36672, Note_on_c, 0, 81, 64
2, 36717, Note_on_c, 0, 81, 0
2, 36720, Note_on_c, 0, 79, 64
2, 36765, Note_on_c, 0, 79, 0
2, 36768, Note_on_c, 0, 78, 64
2, 36813, Note_on_c, 0, 78, 0
2, 36816, Note_on_c, 0, 79, 64
2, 36861, Note_on_c, 0, 79, 0
2, 36864, Note_on_c, 0, 74, 64
2, 37041, Note_on_c, 0, 74, 0
2, 37056, Note_on_c, 0, 77, 64
2, 37074, Note_on_c, 0, 77, 0
2, 37074, Note_on_c, 0, 75, 64
2, 37145, Note_on_c, 0, 75, 0
2, 37152, Note_on_c, 0, 74, 64
2, 37197, Note_on_c, 0, 74, 0
2, 37200, Note_on_c, 0, 84, 64
2, 37245, Note_on_c, 0, 84, 0
2, 37248, Note_on_c, 0, 81, 64
2, 37293, Note_on_c, 0, 81, 0
2, 37296, Note_on_c, 0, 78, 64
2, 37341, Note_on_c, 0, 78, 0
2, 37344, Note_on_c, 0, 74, 64
2, 37389, Note_on_c, 0, 74, 0
2, 37392, Note_on_c, 0, 72, 64
2, 37437, Note_on_c, 0, 72, 0
2, 37440, Note_on_c, 0, 72, 64
2, 37453, Note_on_c, 0, 72, 0
2, 37454, Note_on_c, 0, 70, 64
2, 37467, Note_on_c, 0, 70, 0
2, 37468, Note_on_c, 0, 72, 64
2, 37481, Note_on_c, 0, 72, 0
2, 37482, Note_on_c, 0, 70, 64
2, 37495, Note_on_c, 0, 70, 0
2, 37496, Note_on_c, 0, 72, 64
2, 37509, Note_on_c, 0, 72, 0
2, 37510, Note_on_c, 0, 70, 64
2, 37523, Note_on_c, 0, 70, 0
2, 37524, Note_on_c, 0, 72, 64
2, 37537, Note_on_c, 0, 72, 0
2, 37538, Note_on_c, 0, 70, 65
2, 37551, Note_on_c, 0, 70, 0
2, 37552, Note_on_c, 0, 72, 65
2, 37565, Note_on_c, 0, 72, 0
2, 37566, Note_on_c, 0, 70, 65
2, 37579, Note_on_c, 0, 70, 0
2, 37580, Note_on_c, 0, 72, 65
2, 37592, Note_on_c, 0, 72, 0
2, 37593, Note_on_c, 0, 70, 65
2, 37605, Note_on_c, 0, 70, 0
2, 37606, Note_on_c, 0, 69, 65
2, 37618, Note_on_c, 0, 69, 0
2, 37619, Note_on_c, 0, 70, 66
2, 37631, Note_on_c, 0, 70, 0
2, 37632, Note_on_c, 0, 69, 66
2, 37652, Note_on_c, 0, 69, 0
2, 37728, Note_on_c, 0, 74, 67
2, 37741, Note_on_c, 0, 74, 0
2, 37742, Note_on_c, 0, 72, 67
2, 37755, Note_on_c, 0, 72, 0
2, 37756, Note_on_c, 0, 74, 67
2, 37769, Note_on_c, 0, 74, 0
2, 37770, Note_on_c, 0, 72, 67
2, 37783, Note_on_c, 0, 72, 0
2, 37784, Note_on_c, 0, 74, 68
2, 37797, Note_on_c, 0, 74, 0
2, 37798, Note_on_c, 0, 72, 68
2, 37811, Note_on_c, 0, 72, 0
2, 37812, Note_on_c, 0, 74, 68
2, 37825, Note_on_c, 0, 74, 0
2, 37826, Note_on_c, 0, 72, 68
2, 37839, Note_on_c, 0, 72, 0
2, 37840, Note_on_c, 0, 74, 68
2, 37853, Note_on_c, 0, 74, 0
2, 37854, Note_on_c, 0, 72, 68
2, 37867, Note_on_c, 0, 72, 0
2, 37868, Note_on_c, 0, 74, 69
2, 37880, Note_on_c, 0, 74, 0
2, 37881, Note_on_c, 0, 72, 69
2, 37893, Note_on_c, 0, 72, 0
2, 37894, Note_on_c, 0, 70, 69
2, 37906, Note_on_c, 0, 70, 0
2, 37907, Note_on_c, 0, 72, 69
2, 37919, Note_on_c, 0, 72, 0
2, 37920, Note_on_c, 0, 70, 69
2, 37940, Note_on_c, 0, 70, 0
2, 38016, Note_on_c, 0, 70, 71
2, 38028, Note_on_c, 0, 70, 0
2, 38028, Note_on_c, 0, 72, 71
2, 38040, Note_on_c, 0, 72, 0
2, 38040, Note_on_c, 0, 70, 71
2, 38061, Note_on_c, 0, 70, 0
2, 38064, Note_on_c, 0, 69, 70
2, 38109, Note_on_c, 0, 69, 0
2, 38112, Note_on_c, 0, 69, 69
2, 38124, Note_on_c, 0, 69, 0
2, 38124, Note_on_c, 0, 70, 69
2, 38136, Note_on_c, 0, 70, 0
2, 38136, Note_on_c, 0, 69, 69
2, 38157, Note_on_c, 0, 69, 0
2, 38160, Note_on_c, 0, 67, 68
2, 38205, Note_on_c, 0, 67, 0
2, 38208, Note_on_c, 0, 67, 68
2, 38220, Note_on_c, 0, 67, 0
2, 38220, Note_on_c, 0, 69, 68
2, 38232, Note_on_c, 0, 69, 0
2, 38232, Note_on_c, 0, 67, 68
2, 38253, Note_on_c, 0, 67, 0
2, 38256, Note_on_c, 0, 66, 67
2, 38301, Note_on_c, 0, 66, 0
2, 38304, Note_on_c, 0, 66, 66
2, 38400, Note_on_c, 0, 66, 0
2, 38400, Note_on_c, 0, 67, 65
2, 38489, Note_on_c, 0, 67, 0
2, 38592, Note_on_c, 0, 76, 78
2, 38610, Note_on_c, 0, 76, 0
2, 38610, Note_on_c, 0, 74, 78
2, 38628, Note_on_c, 0, 74, 0
2, 38628, Note_on_c, 0, 72, 78
2, 38646, Note_on_c, 0, 72, 0
2, 38646, Note_on_c, 0, 74, 78
2, 38681, Note_on_c, 0, 74, 0
2, 38688, Note_on_c, 0, 79, 78
2, 38718, Note_on_c, 0, 79, 0
2, 38720, Note_on_c, 0, 74, 78
2, 38750, Note_on_c, 0, 74, 0
2, 38752, Note_on_c, 0, 71, 78
2, 38782, Note_on_c, 0, 71, 0
2, 38784, Note_on_c, 0, 74, 78
2, 38814, Note_on_c, 0, 74, 0
2, 38816, Note_on_c, 0, 71, 78
2, 38846, Note_on_c, 0, 71, 0
2, 38848, Note_on_c, 0, 67, 78
2, 38878, Note_on_c, 0, 67, 0
2, 38880, Note_on_c, 0, 67, 78
2, 38910, Note_on_c, 0, 67, 0
2, 38912, Note_on_c, 0, 66, 78
2, 38942, Note_on_c, 0, 66, 0
2, 38944, Note_on_c, 0, 62, 78
2, 38974, Note_on_c, 0, 62, 0
2, 38976, Note_on_c, 0, 72, 78
2, 38976, Note_on_c, 0, 69, 78
2, 39072, Note_on_c, 0, 72, 0
2, 39072, Note_on_c, 0, 69, 0
2, 39072, Note_on_c, 0, 71, 78
2, 39072, Note_on_c, 0, 67, 78
2, 39161, Note_on_c, 0, 71, 0
2, 39161, Note_on_c, 0, 67, 0
2, 39168, Note_on_c, 0, 64, 78
2, 39198, Note_on_c, 0, 64, 0
2, 39200, Note_on_c, 0, 68, 78
2, 39230, Note_on_c, 0, 68, 0
2, 39232, Note_on_c, 0, 69, 78
2, 39262, Note_on_c, 0, 69, 0
2, 39264, Note_on_c, 0, 71, 78
2, 39294, Note_on_c, 0, 71, 0
2, 39296, Note_on_c, 0, 72, 78
2, 39326, Note_on_c, 0, 72, 0
2, 39328, Note_on_c, 0, 74, 78
2, 39358, Note_on_c, 0, 74, 0
2, 39360, Note_on_c, 0, 76, 78
2, 39390, Note_on_c, 0, 76, 0
2, 39392, Note_on_c, 0, 72, 78
2, 39422, Note_on_c, 0, 72, 0
2, 39424, Note_on_c, 0, 69, 78
2, 39454, Note_on_c, 0, 69, 0
2, 39456, Note_on_c, 0, 67, 78
2, 39648, Note_on_c, 0, 67, 0
2, 39648, Note_on_c, 0, 66, 78
2, 39737, Note_on_c, 0, 66, 0
2, 39744, Note_on_c, 0, 76, 78
2, 39762, Note_on_c, 0, 76, 0
2, 39762, Note_on_c, 0, 74, 78
2, 39780, Note_on_c, 0, 74, 0
2, 39780, Note_on_c, 0, 72, 78
2, 39798, Note_on_c, 0, 72, 0
2, 39798, Note_on_c, 0, 74, 78
2, 39833, Note_on_c, 0, 74, 0
2, 39840, Note_on_c, 0, 79, 78
2, 39870, Note_on_c, 0, 79, 0
2, 39872, Note_on_c, 0, 74, 78
2, 39902, Note_on_c, 0, 74, 0
2, 39904, Note_on_c, 0, 71, 78
2, 39934, Note_on_c, 0, 71, 0
2, 39936, Note_on_c, 0, 74, 78
2, 39966, Note_on_c, 0, 74, 0
2, 39968, Note_on_c, 0, 71, 78
2, 39998, Note_on_c, 0, 71, 0
2, 40000, Note_on_c, 0, 67, 78
2, 40030, Note_on_c, 0, 67, 0
2, 40032, Note_on_c, 0, 67, 78
2, 40062, Note_on_c, 0, 67, 0
2, 40064, Note_on_c, 0, 66, 78
2, 40094, Note_on_c, 0, 66, 0
2, 40096, Note_on_c, 0, 62, 78
2, 40126, Note_on_c, 0, 62, 0
2, 40128, Note_on_c, 0, 72, 78
2, 40128, Note_on_c, 0, 69, 78
2, 40224, Note_on_c, 0, 72, 0
2, 40224, Note_on_c, 0, 69, 0
2, 40224, Note_on_c, 0, 71, 78
2, 40224, Note_on_c, 0, 67, 78
2, 40313, Note_on_c, 0, 71, 0
2, 40313, Note_on_c, 0, 67, 0
2, 40320, Note_on_c, 0, 67, 78
2, 40350, Note_on_c, 0, 67, 0
2, 40352, Note_on_c, 0, 66, 78
2, 40382, Note_on_c, 0, 66, 0
2, 40384, Note_on_c, 0, 62, 78
2, 40414, Note_on_c, 0, 62, 0
2, 40416, Note_on_c, 0, 79, 78
2, 40416, Note_on_c, 0, 73, 78
2, 40512, Note_on_c, 0, 79, 0
2, 40512, Note_on_c, 0, 73, 0
2, 40512, Note_on_c, 0, 78, 78
2, 40512, Note_on_c, 0, 74, 78
2, 40601, Note_on_c, 0, 78, 0
2, 40601, Note_on_c, 0, 74, 0
2, 40608, Note_on_c, 0, 71, 78
2, 40638, Note_on_c, 0, 71, 0
2, 40640, Note_on_c, 0, 76, 78
2, 40670, Note_on_c, 0, 76, 0
2, 40672, Note_on_c, 0, 75, 78
2, 40702, Note_on_c, 0, 75, 0
2, 40704, Note_on_c, 0, 78, 78
2, 40734, Note_on_c, 0, 78, 0
2, 40736, Note_on_c, 0, 76, 78
2, 40766, Note_on_c, 0, 76, 0
2, 40768, Note_on_c, 0, 79, 78
2, 40798, Note_on_c, 0, 79, 0
2, 40800, Note_on_c, 0, 83, 78
2, 40830, Note_on_c, 0, 83, 0
2, 40832, Note_on_c, 0, 79, 78
2, 40862, Note_on_c, 0, 79, 0
2, 40864, Note_on_c, 0, 76, 78
2, 40894, Note_on_c, 0, 76, 0
2, 40896, Note_on_c, 0, 74, 78
2, 40926, Note_on_c, 0, 74, 0
2, 40928, Note_on_c, 0, 73, 78
2, 40958, Note_on_c, 0, 73, 0
2, 40960, Note_on_c, 0, 76, 78
2, 40990, Note_on_c, 0, 76, 0
2, 40992, Note_on_c, 0, 81, 94
2, 41118, Note_on_c, 0, 81, 0
2, 41120, Note_on_c, 0, 78, 78
2, 41150, Note_on_c, 0, 78, 0
2, 41152, Note_on_c, 0, 74, 78
2, 41182, Note_on_c, 0, 74, 0
2, 41184, Note_on_c, 0, 73, 78
2, 41214, Note_on_c, 0, 73, 0
2, 41216, Note_on_c, 0, 69, 78
2, 41246, Note_on_c, 0, 69, 0
2, 41248, Note_on_c, 0, 76, 78
2, 41278, Note_on_c, 0, 76, 0
2, 41280, Note_on_c, 0, 81, 94
2, 41406, Note_on_c, 0, 81, 0
2, 41408, Note_on_c, 0, 78, 78
2, 41438, Note_on_c, 0, 78, 0
2, 41440, Note_on_c, 0, 74, 78
2, 41470, Note_on_c, 0, 74, 0
2, 41472, Note_on_c, 0, 74, 78
2, 41502, Note_on_c, 0, 74, 0
2, 41504, Note_on_c, 0, 73, 78
2, 41534, Note_on_c, 0, 73, 0
2, 41536, Note_on_c, 0, 76, 78
2, 41566, Note_on_c, 0, 76, 0
2, 41568, Note_on_c, 0, 81, 94
2, 41694, Note_on_c, 0, 81, 0
2, 41696, Note_on_c, 0, 78, 78
2, 41726, Note_on_c, 0, 78, 0
2, 41728, Note_on_c, 0, 74, 78
2, 41758, Note_on_c, 0, 74, 0
2, 41760, Note_on_c, 0, 73, 78
2, 41790, Note_on_c, 0, 73, 0
2, 41792, Note_on_c, 0, 69, 78
2, 41822, Note_on_c, 0, 69, 0
2, 41824, Note_on_c, 0, 76, 78
2, 41854, Note_on_c, 0, 76, 0
2, 41856, Note_on_c, 0, 81, 94
2, 41982, Note_on_c, 0, 81, 0
2, 41984, Note_on_c, 0, 78, 78
2, 42014, Note_on_c, 0, 78, 0
2, 42016, Note_on_c, 0, 74, 78
2, 42046, Note_on_c, 0, 74, 0
2, 42048, Note_on_c, 0, 73, 78
2, 42078, Note_on_c, 0, 73, 0
2, 42080, Note_on_c, 0, 71, 79
2, 42110, Note_on_c, 0, 71, 0
2, 42112, Note_on_c, 0, 82, 80
2, 42142, Note_on_c, 0, 82, 0
2, 42144, Note_on_c, 0, 83, 81
2, 42174, Note_on_c, 0, 83, 0
2, 42176, Note_on_c, 0, 79, 82
2, 42206, Note_on_c, 0, 79, 0
2, 42208, Note_on_c, 0, 76, 83
2, 42238, Note_on_c, 0, 76, 0
2, 42240, Note_on_c, 0, 79, 85
2, 42270, Note_on_c, 0, 79, 0
2, 42272, Note_on_c, 0, 76, 84
2, 42302, Note_on_c, 0, 76, 0
2, 42304, Note_on_c, 0, 73, 83
2, 42334, Note_on_c, 0, 73, 0
2, 42336, Note_on_c, 0, 73, 83
2, 42528, Note_on_c, 0, 73, 0
2, 42528, Note_on_c, 0, 74, 79
2, 42617, Note_on_c, 0, 74, 0
2, 42624, Note_on_c, 0, 76, 78
2, 42642, Note_on_c, 0, 76, 0
2, 42642, Note_on_c, 0, 74, 78
2, 42660, Note_on_c, 0, 74, 0
2, 42660, Note_on_c, 0, 72, 78
2, 42678, Note_on_c, 0, 72, 0
2, 42678, Note_on_c, 0, 74, 78
2, 42713, Note_on_c, 0, 74, 0
2, 42720, Note_on_c, 0, 79, 78
2, 42750, Note_on_c, 0, 79, 0
2, 42752, Note_on_c, 0, 74, 78
2, 42782, Note_on_c, 0, 74, 0
2, 42784, Note_on_c, 0, 71, 78
2, 42814, Note_on_c, 0, 71, 0
2, 42816, Note_on_c, 0, 74, 78
2, 42846, Note_on_c, 0, 74, 0
2, 42848, Note_on_c, 0, 71, 78
2, 42878, Note_on_c, 0, 71, 0
2, 42880, Note_on_c, 0, 67, 78
2, 42910, Note_on_c, 0, 67, 0
2, 42912, Note_on_c, 0, 67, 78
2, 42942, Note_on_c, 0, 67, 0
2, 42944, Note_on_c, 0, 66, 78
2, 42974, Note_on_c, 0, 66, 0
2, 42976, Note_on_c, 0, 62, 78
2, 43006, Note_on_c, 0, 62, 0
2, 43008, Note_on_c, 0, 72, 78
2, 43008, Note_on_c, 0, 69, 78
2, 43104, Note_on_c, 0, 72, 0
2, 43104, Note_on_c, 0, 69, 0
2, 43104, Note_on_c, 0, 71, 78
2, 43104, Note_on_c, 0, 67, 78
2, 43193, Note_on_c, 0, 71, 0
2, 43193, Note_on_c, 0, 67, 0
2, 43200, Note_on_c, 0, 64, 78
2, 43230, Note_on_c, 0, 64, 0
2, 43232, Note_on_c, 0, 68, 78
2, 43262, Note_on_c, 0, 68, 0
2, 43264, Note_on_c, 0, 69, 78
2, 43294, Note_on_c, 0, 69, 0
2, 43296, Note_on_c, 0, 71, 78
2, 43326, Note_on_c, 0, 71, 0
2, 43328, Note_on_c, 0, 72, 78
2, 43358, Note_on_c, 0, 72, 0
2, 43360, Note_on_c, 0, 74, 78
2, 43390, Note_on_c, 0, 74, 0
2, 43392, Note_on_c, 0, 76, 78
2, 43422, Note_on_c, 0, 76, 0
2, 43424, Note_on_c, 0, 72, 78
2, 43454, Note_on_c, 0, 72, 0
2, 43456, Note_on_c, 0, 69, 78
2, 43486, Note_on_c, 0, 69, 0
2, 43488, Note_on_c, 0, 67, 78
2, 43680, Note_on_c, 0, 67, 0
2, 43680, Note_on_c, 0, 66, 78
2, 43769, Note_on_c, 0, 66, 0
2, 43776, Note_on_c, 0, 76, 78
2, 43794, Note_on_c, 0, 76, 0
2, 43794, Note_on_c, 0, 74, 78
2, 43812, Note_on_c, 0, 74, 0
2, 43812, Note_on_c, 0, 72, 78
2, 43830, Note_on_c, 0, 72, 0
2, 43830, Note_on_c, 0, 74, 78
2, 43865, Note_on_c, 0, 74, 0
2, 43872, Note_on_c, 0, 79, 78
2, 43902, Note_on_c, 0, 79, 0
2, 43904, Note_on_c, 0, 74, 78
2, 43934, Note_on_c, 0, 74, 0
2, 43936, Note_on_c, 0, 71, 78
2, 43966, Note_on_c, 0, 71, 0
2, 43968, Note_on_c, 0, 74, 78
2, 43998, Note_on_c, 0, 74, 0
2, 44000, Note_on_c, 0, 71, 78
2, 44030, Note_on_c, 0, 71, 0
2, 44032, Note_on_c, 0, 67, 78
2, 44062, Note_on_c, 0, 67, 0
2, 44064, Note_on_c, 0, 67, 78
2, 44094, Note_on_c, 0, 67, 0
2, 44096, Note_on_c, 0, 66, 78
2, 44126, Note_on_c, 0, 66, 0
2, 44128, Note_on_c, 0, 62, 78
2, 44158, Note_on_c, 0, 62, 0
2, 44160, Note_on_c, 0, 72, 78
2, 44160, Note_on_c, 0, 69, 78
2, 44256, Note_on_c, 0, 72, 0
2, 44256, Note_on_c, 0, 69, 0
2, 44256, Note_on_c, 0, 71, 78
2, 44256, Note_on_c, 0, 67, 78
2, 44345, Note_on_c, 0, 71, 0
2, 44345, Note_on_c, 0, 67, 0
2, 44352, Note_on_c, 0, 67, 78
2, 44382, Note_on_c, 0, 67, 0
2, 44384, Note_on_c, 0, 66, 78
2, 44414, Note_on_c, 0, 66, 0
2, 44416, Note_on_c, 0, 62, 78
2, 44446, Note_on_c, 0, 62, 0
2, 44448, Note_on_c, 0, 79, 78
2, 44448, Note_on_c, 0, 73, 78
2, 44544, Note_on_c, 0, 79, 0
2, 44544, Note_on_c, 0, 73, 0
2, 44544, Note_on_c, 0, 78, 78
2, 44544, Note_on_c, 0, 74, 78
2, 44633, Note_on_c, 0, 78, 0
2, 44633, Note_on_c, 0, 74, 0
2, 44640, Note_on_c, 0, 71, 78
2, 44670, Note_on_c, 0, 71, 0
2, 44672, Note_on_c, 0, 76, 78
2, 44702, Note_on_c, 0, 76, 0
2, 44704, Note_on_c, 0, 75, 78
2, 44734, Note_on_c, 0, 75, 0
2, 44736, Note_on_c, 0, 78, 78
2, 44766, Note_on_c, 0, 78, 0
2, 44768, Note_on_c, 0, 76, 78
2, 44798, Note_on_c, 0, 76, 0
2, 44800, Note_on_c, 0, 79, 78
2, 44830, Note_on_c, 0, 79, 0
2, 44832, Note_on_c, 0, 83, 78
2, 44862, Note_on_c, 0, 83, 0
2, 44864, Note_on_c, 0, 79, 78
2, 44894, Note_on_c, 0, 79, 0
2, 44896, Note_on_c, 0, 76, 78
2, 44926, Note_on_c, 0, 76, 0
2, 44928, Note_on_c, 0, 74, 78
2, 44958, Note_on_c, 0, 74, 0
2, 44960, Note_on_c, 0, 73, 78
2, 44990, Note_on_c, 0, 73, 0
2, 44992, Note_on_c, 0, 76, 78
2, 45022, Note_on_c, 0, 76, 0
2, 45024, Note_on_c, 0, 81, 94
2, 45150, Note_on_c, 0, 81, 0
2, 45152, Note_on_c, 0, 78, 78
2, 45182, Note_on_c, 0, 78, 0
2, 45184, Note_on_c, 0, 74, 78
2, 45214, Note_on_c, 0, 74, 0
2, 45216, Note_on_c, 0, 73, 78
2, 45246, Note_on_c, 0, 73, 0
2, 45248, Note_on_c, 0, 69, 78
2, 45278, Note_on_c, 0, 69, 0
2, 45280, Note_on_c, 0, 76, 78
2, 45310, Note_on_c, 0, 76, 0
2, 45312, Note_on_c, 0, 81, 94
2, 45438, Note_on_c, 0, 81, 0
2, 45440, Note_on_c, 0, 78, 78
2, 45470, Note_on_c, 0, 78, 0
2, 45472, Note_on_c, 0, 74, 78
2, 45502, Note_on_c, 0, 74, 0
2, 45504, Note_on_c, 0, 74, 78
2, 45534, Note_on_c, 0, 74, 0
2, 45536, Note_on_c, 0, 73, 78
2, 45566, Note_on_c, 0, 73, 0
2, 45568, Note_on_c, 0, 76, 78
2, 45598, Note_on_c, 0, 76, 0
2, 45600, Note_on_c, 0, 81, 94
2, 45726, Note_on_c, 0, 81, 0
2, 45728, Note_on_c, 0, 78, 78
2, 45758, Note_on_c, 0, 78, 0
2, 45760, Note_on_c, 0, 74, 78
2, 45790, Note_on_c, 0, 74, 0
2, 45792, Note_on_c, 0, 73, 78
2, 45822, Note_on_c, 0, 73, 0
2, 45824, Note_on_c, 0, 69, 78
2, 45854, Note_on_c, 0, 69, 0
2, 45856, Note_on_c, 0, 76, 78
2, 45886, Note_on_c, 0, 76, 0
2, 45888, Note_on_c, 0, 81, 94
2, 46014, Note_on_c, 0, 81, 0
2, 46016, Note_on_c, 0, 78, 78
2, 46046, Note_on_c, 0, 78, 0
2, 46048, Note_on_c, 0, 74, 78
2, 46078, Note_on_c, 0, 74, 0
2, 46080, Note_on_c, 0, 73, 78
2, 46110, Note_on_c, 0, 73, 0
2, 46112, Note_on_c, 0, 71, 79
2, 46142, Note_on_c, 0, 71, 0
2, 46144, Note_on_c, 0, 82, 80
2, 46174, Note_on_c, 0, 82, 0
2, 46176, Note_on_c, 0, 83, 81
2, 46206, Note_on_c, 0, 83, 0
2, 46208, Note_on_c, 0, 79, 82
2, 46238, Note_on_c, 0, 79, 0
2, 46240, Note_on_c, 0, 76, 83
2, 46270, Note_on_c, 0, 76, 0
2, 46272, Note_on_c, 0, 79, 85
2, 46302, Note_on_c, 0, 79, 0
2, 46304, Note_on_c, 0, 76, 84
2, 46334, Note_on_c, 0, 76, 0
2, 46336, Note_on_c, 0, 73, 83
2, 46366, Note_on_c, 0, 73, 0
2, 46368, Note_on_c, 0, 73, 83
2, 46560, Note_on_c, 0, 73, 0
2, 46560, Note_on_c, 0, 74, 79
2, 46649, Note_on_c, 0, 74, 0
2, 46656, Note_on_c, 0, 76, 78
2, 46674, Note_on_c, 0, 76, 0
2, 46674, Note_on_c, 0, 74, 78
2, 46692, Note_on_c, 0, 74, 0
2, 46692, Note_on_c, 0, 72, 78
2, 46710, Note_on_c, 0, 72, 0
2, 46710, Note_on_c, 0, 74, 78
2, 46745, Note_on_c, 0, 74, 0
2, 46752, Note_on_c, 0, 86, 78
2, 46782, Note_on_c, 0, 86, 0
2, 46784, Note_on_c, 0, 81, 78
2, 46814, Note_on_c, 0, 81, 0
2, 46816, Note_on_c, 0, 78, 78
2, 46846, Note_on_c, 0, 78, 0
2, 46848, Note_on_c, 0, 81, 78
2, 46878, Note_on_c, 0, 81, 0
2, 46880, Note_on_c, 0, 78, 78
2, 46910, Note_on_c, 0, 78, 0
2, 46912, Note_on_c, 0, 74, 78
2, 46942, Note_on_c, 0, 74, 0
2, 46944, Note_on_c, 0, 74, 78
2, 47136, Note_on_c, 0, 74, 0
2, 47136, Note_on_c, 0, 73, 78
2, 47148, Note_on_c, 0, 73, 0
2, 47148, Note_on_c, 0, 74, 78
2, 47160, Note_on_c, 0, 74, 0
2, 47160, Note_on_c, 0, 73, 78
2, 47225, Note_on_c, 0, 73, 0
2, 47328, Note_on_c, 0, 74, 78
2, 47358, Note_on_c, 0, 74, 0
2, 47360, Note_on_c, 0, 78, 78
2, 47390, Note_on_c, 0, 78, 0
2, 47392, Note_on_c, 0, 81, 78
2, 47422, Note_on_c, 0, 81, 0
2, 47424, Note_on_c, 0, 84, 78
2, 47454, Note_on_c, 0, 84, 0
2, 47456, Note_on_c, 0, 81, 78
2, 47486, Note_on_c, 0, 81, 0
2, 47488, Note_on_c, 0, 78, 78
2, 47518, Note_on_c, 0, 78, 0
2, 47520, Note_on_c, 0, 72, 78
2, 47616, Note_on_c, 0, 72, 0
2, 47616, Note_on_c, 0, 71, 78
2, 47628, Note_on_c, 0, 71, 0
2, 47628, Note_on_c, 0, 72, 78
2, 47640, Note_on_c, 0, 72, 0
2, 47640, Note_on_c, 0, 71, 78
2, 47705, Note_on_c, 0, 71, 0
2, 47712, Note_on_c, 0, 79, 78
2, 47801, Note_on_c, 0, 79, 0
2, 47808, Note_on_c, 0, 75, 78
2, 47856, Note_on_c, 0, 75, 0
2, 47856, Note_on_c, 0, 76, 78
2, 47901, Note_on_c, 0, 76, 0
2, 47904, Note_on_c, 0, 76, 78
2, 47993, Note_on_c, 0, 76, 0
2, 48000, Note_on_c, 0, 79, 78
2, 48089, Note_on_c, 0, 79, 0
2, 48096, Note_on_c, 0, 73, 78
2, 48144, Note_on_c, 0, 73, 0
2, 48144, Note_on_c, 0, 74, 78
2, 48189, Note_on_c, 0, 74, 0
2, 48192, Note_on_c, 0, 74, 78
2, 48281, Note_on_c, 0, 74, 0
2, 48288, Note_on_c, 0, 86, 78
2, 48318, Note_on_c, 0, 86, 0
2, 48320, Note_on_c, 0, 83, 78
2, 48350, Note_on_c, 0, 83, 0
2, 48352, Note_on_c, 0, 79, 78
2, 48382, Note_on_c, 0, 79, 0
2, 48384, Note_on_c, 0, 78, 78
2, 48473, Note_on_c, 0, 78, 0
2, 48480, Note_on_c, 0, 76, 78
2, 48492, Note_on_c, 0, 76, 0
2, 48492, Note_on_c, 0, 78, 78
2, 48504, Note_on_c, 0, 78, 0
2, 48504, Note_on_c, 0, 76, 78
2, 48569, Note_on_c, 0, 76, 0
2, 48576, Note_on_c, 0, 79, 78
2, 48606, Note_on_c, 0, 79, 0
2, 48608, Note_on_c, 0, 78, 78
2, 48638, Note_on_c, 0, 78, 0
2, 48640, Note_on_c, 0, 76, 78
2, 48670, Note_on_c, 0, 76, 0
2, 48672, Note_on_c, 0, 76, 78
2, 48761, Note_on_c, 0, 76, 0
2, 48768, Note_on_c, 0, 74, 78
2, 48780, Note_on_c, 0, 74, 0
2, 48780, Note_on_c, 0, 76, 78
2, 48792, Note_on_c, 0, 76, 0
2, 48792, Note_on_c, 0, 74, 78
2, 48857, Note_on_c, 0, 74, 0
2, 48864, Note_on_c, 0, 78, 78
2, 48894, Note_on_c, 0, 78, 0
2, 48896, Note_on_c, 0, 79, 78
2, 48926, Note_on_c, 0, 79, 0
2, 48928, Note_on_c, 0, 83, 78
2, 48958, Note_on_c, 0, 83, 0
2, 48960, Note_on_c, 0, 75, 78
2, 48990, Note_on_c, 0, 75, 0
2, 48992, Note_on_c, 0, 76, 78
2, 49022, Note_on_c, 0, 76, 0
2, 49024, Note_on_c, 0, 79, 78
2, 49054, Note_on_c, 0, 79, 0
2, 49056, Note_on_c, 0, 71, 78
2, 49086, Note_on_c, 0, 71, 0
2, 49088, Note_on_c, 0, 72, 78
2, 49118, Note_on_c, 0, 72, 0
2, 49120, Note_on_c, 0, 76, 78
2, 49150, Note_on_c, 0, 76, 0
2, 49152, Note_on_c, 0, 68, 78
2, 49182, Note_on_c, 0, 68, 0
2, 49184, Note_on_c, 0, 69, 78
2, 49214, Note_on_c, 0, 69, 0
2, 49216, Note_on_c, 0, 72, 78
2, 49246, Note_on_c, 0, 72, 0
2, 49248, Note_on_c, 0, 67, 78
2, 49440, Note_on_c, 0, 67, 0
2, 49440, Note_on_c, 0, 66, 78
2, 49452, Note_on_c, 0, 66, 0
2, 49452, Note_on_c, 0, 67, 78
2, 49464, Note_on_c, 0, 67, 0
2, 49464, Note_on_c, 0, 66, 78
2, 49529, Note_on_c, 0, 66, 0
2, 49536, Note_on_c, 0, 76, 78
2, 49554, Note_on_c, 0, 76, 0
2, 49554, Note_on_c, 0, 74, 78
2, 49572, Note_on_c, 0, 74, 0
2, 49572, Note_on_c, 0, 72, 78
2, 49590, Note_on_c, 0, 72, 0
2, 49590, Note_on_c, 0, 74, 78
2, 49625, Note_on_c, 0, 74, 0
2, 49632, Note_on_c, 0, 79, 78
2, 49662, Note_on_c, 0, 79, 0
2, 49664, Note_on_c, 0, 74, 78
2, 49694, Note_on_c, 0, 74, 0
2, 49696, Note_on_c, 0, 71, 78
2, 49726, Note_on_c, 0, 71, 0
2, 49728, Note_on_c, 0, 74, 78
2, 49758, Note_on_c, 0, 74, 0
2, 49760, Note_on_c, 0, 71, 78
2, 49790, Note_on_c, 0, 71, 0
2, 49792, Note_on_c, 0, 67, 78
2, 49822, Note_on_c, 0, 67, 0
2, 49824, Note_on_c, 0, 67, 78
2, 49854, Note_on_c, 0, 67, 0
2, 49856, Note_on_c, 0, 66, 78
2, 49886, Note_on_c, 0, 66, 0
2, 49888, Note_on_c, 0, 62, 78
2, 49918, Note_on_c, 0, 62, 0
2, 49920, Note_on_c, 0, 72, 78
2, 49920, Note_on_c, 0, 69, 78
2, 50016, Note_on_c, 0, 72, 0
2, 50016, Note_on_c, 0, 69, 0
2, 50016, Note_on_c, 0, 71, 78
2, 50016, Note_on_c, 0, 67, 78
2, 50105, Note_on_c, 0, 71, 0
2, 50105, Note_on_c, 0, 67, 0
2, 50112, Note_on_c, 0, 64, 78
2, 50142, Note_on_c, 0, 64, 0
2, 50144, Note_on_c, 0, 68, 79
2, 50174, Note_on_c, 0, 68, 0
2, 50176, Note_on_c, 0, 69, 80
2, 50206, Note_on_c, 0, 69, 0
2, 50208, Note_on_c, 0, 71, 81
2, 50238, Note_on_c, 0, 71, 0
2, 50240, Note_on_c, 0, 72, 82
2, 50270, Note_on_c, 0, 72, 0
2, 50272, Note_on_c, 0, 74, 83
2, 50302, Note_on_c, 0, 74, 0
2, 50304, Note_on_c, 0, 76, 84
2, 50334, Note_on_c, 0, 76, 0
2, 50336, Note_on_c, 0, 72, 84
2, 50366, Note_on_c, 0, 72, 0
2, 50368, Note_on_c, 0, 69, 84
2, 50398, Note_on_c, 0, 69, 0
2, 50400, Note_on_c, 0, 67, 83
2, 50592, Note_on_c, 0, 67, 0
2, 50592, Note_on_c, 0, 66, 80
2, 50681, Note_on_c, 0, 66, 0
2, 50976, Note_on_c, 0, 67, 78
2, 51006, Note_on_c, 0, 67, 0
2, 51008, Note_on_c, 0, 66, 78
2, 51038, Note_on_c, 0, 66, 0
2, 51040, Note_on_c, 0, 62, 78
2, 51070, Note_on_c, 0, 62, 0
2, 51072, Note_on_c, 0, 72, 78
2, 51072, Note_on_c, 0, 66, 78
2, 51072, Note_on_c, 0, 57, 78
2, 51168, Note_on_c, 0, 72, 0
2, 51168, Note_on_c, 0, 66, 0
2, 51168, Note_on_c, 0, 57, 0
2, 51168, Note_on_c, 0, 71, 78
2, 51168, Note_on_c, 0, 67, 78
2, 51168, Note_on_c, 0, 55, 78
2, 51257, Note_on_c, 0, 71, 0
2, 51257, Note_on_c, 0, 67, 0
2, 51257, Note_on_c, 0, 55, 0
2, 51264, Note_on_c, 0, 79, 78
2, 51294, Note_on_c, 0, 79, 0
2, 51296, Note_on_c, 0, 78, 78
2, 51326, Note_on_c, 0, 78, 0
2, 51328, Note_on_c, 0, 74, 78
2, 51358, Note_on_c, 0, 74, 0
2, 51360, Note_on_c, 0, 84, 78
2, 51360, Note_on_c, 0, 78, 78
2, 51360, Note_on_c, 0, 69, 78
2, 51456, Note_on_c, 0, 84, 0
2, 51456, Note_on_c, 0, 78, 0
2, 51456, Note_on_c, 0, 69, 0
2, 51456, Note_on_c, 0, 83, 78
2, 51456, Note_on_c, 0, 79, 78
2, 51456, Note_on_c, 0, 67, 78
2, 51545, Note_on_c, 0, 83, 0
2, 51545, Note_on_c, 0, 79, 0
2, 51545, Note_on_c, 0, 67, 0
2, 51552, Note_on_c, 0, 67, 78
2, 51582, Note_on_c, 0, 67, 0
2, 51584, Note_on_c, 0, 66, 78
2, 51614, Note_on_c, 0, 66, 0
2, 51616, Note_on_c, 0, 62, 78
2, 51646, Note_on_c, 0, 62, 0
2, 51648, Note_on_c, 0, 76, 78
2, 51648, Note_on_c, 0, 72, 78
2, 51756, Note_on_c, 0, 76, 0
2, 51756, Note_on_c, 0, 72, 0
2, 51756, Note_on_c, 0, 74, 78
2, 51756, Note_on_c, 0, 71, 78
2, 52017, Note_on_c, 0, 74, 0
2, 52017, Note_on_c, 0, 71, 0
2, 52128, Note_on_c, 0, 68, 78
2, 52158, Note_on_c, 0, 68, 0
2, 52160, Note_on_c, 0, 69, 79
2, 52190, Note_on_c, 0, 69, 0
2, 52192, Note_on_c, 0, 72, 80
2, 52222, Note_on_c, 0, 72, 0
2, 52224, Note_on_c, 0, 76, 81
2, 52254, Note_on_c, 0, 76, 0
2, 52256, Note_on_c, 0, 72, 82
2, 52286, Note_on_c, 0, 72, 0
2, 52288, Note_on_c, 0, 69, 83
2, 52318, Note_on_c, 0, 69, 0
2, 52320, Note_on_c, 0, 72, 84
2, 52350, Note_on_c, 0, 72, 0
2, 52352, Note_on_c, 0, 69, 84
2, 52382, Note_on_c, 0, 69, 0
2, 52384, Note_on_c, 0, 66, 84
2, 52414, Note_on_c, 0, 66, 0
2, 52416, Note_on_c, 0, 66, 83
2, 52416, Note_on_c, 0, 60, 83
2, 52608, Note_on_c, 0, 66, 0
2, 52608, Note_on_c, 0, 60, 0
2, 52608, Note_on_c, 0, 67, 80
2, 52608, Note_on_c, 0, 59, 80
2, 52697, Note_on_c, 0, 67, 0
2, 52697, Note_on_c, 0, 59, 0
2, 52704, Note_on_c, 0, 79, 78
2, 52734, Note_on_c, 0, 79, 0
2, 52736, Note_on_c, 0, 78, 78
2, 52766, Note_on_c, 0, 78, 0
2, 52768, Note_on_c, 0, 81, 78
2, 52798, Note_on_c, 0, 81, 0
2, 52800, Note_on_c, 0, 86, 94
2, 52926, Note_on_c, 0, 86, 0
2, 52928, Note_on_c, 0, 83, 78
2, 52958, Note_on_c, 0, 83, 0
2, 52960, Note_on_c, 0, 79, 78
2, 52990, Note_on_c, 0, 79, 0
2, 52992, Note_on_c, 0, 78, 78
2, 53022, Note_on_c, 0, 78, 0
2, 53024, Note_on_c, 0, 74, 78
2, 53054, Note_on_c, 0, 74, 0
2, 53056, Note_on_c, 0, 81, 78
2, 53086, Note_on_c, 0, 81, 0
2, 53088, Note_on_c, 0, 86, 94
2, 53214, Note_on_c, 0, 86, 0
2, 53216, Note_on_c, 0, 83, 78
2, 53246, Note_on_c, 0, 83, 0
2, 53248, Note_on_c, 0, 79, 78
2, 53278, Note_on_c, 0, 79, 0
2, 53280, Note_on_c, 0, 79, 78
2, 53310, Note_on_c, 0, 79, 0
2, 53312, Note_on_c, 0, 78, 78
2, 53342, Note_on_c, 0, 78, 0
2, 53344, Note_on_c, 0, 81, 78
2, 53374, Note_on_c, 0, 81, 0
2, 53376, Note_on_c, 0, 86, 94
2, 53502, Note_on_c, 0, 86, 0
2, 53504, Note_on_c, 0, 83, 78
2, 53534, Note_on_c, 0, 83, 0
2, 53536, Note_on_c, 0, 79, 78
2, 53566, Note_on_c, 0, 79, 0
2, 53568, Note_on_c, 0, 78, 78
2, 53598, Note_on_c, 0, 78, 0
2, 53600, Note_on_c, 0, 74, 78
2, 53630, Note_on_c, 0, 74, 0
2, 53632, Note_on_c, 0, 81, 78
2, 53662, Note_on_c, 0, 81, 0
2, 53664, Note_on_c, 0, 86, 94
2, 53790, Note_on_c, 0, 86, 0
2, 53792, Note_on_c, 0, 83, 78
2, 53822, Note_on_c, 0, 83, 0
2, 53824, Note_on_c, 0, 79, 78
2, 53854, Note_on_c, 0, 79, 0
2, 53856, Note_on_c, 0, 76, 78
2, 53886, Note_on_c, 0, 76, 0
2, 53888, Note_on_c, 0, 78, 78
2, 53918, Note_on_c, 0, 78, 0
2, 53920, Note_on_c, 0, 79, 78
2, 53950, Note_on_c, 0, 79, 0
2, 53952, Note_on_c, 0, 74, 78
2, 53982, Note_on_c, 0, 74, 0
2, 53984, Note_on_c, 0, 78, 78
2, 54014, Note_on_c, 0, 78, 0
2, 54016, Note_on_c, 0, 79, 78
2, 54046, Note_on_c, 0, 79, 0
2, 54048, Note_on_c, 0, 72, 78
2, 54078, Note_on_c, 0, 72, 0
2, 54080, Note_on_c, 0, 80, 78
2, 54110, Note_on_c, 0, 80, 0
2, 54112, Note_on_c, 0, 81, 78
2, 54142, Note_on_c, 0, 81, 0
2, 54144, Note_on_c, 0, 71, 78
2, 54174, Note_on_c, 0, 71, 0
2, 54176, Note_on_c, 0, 83, 78
2, 54206, Note_on_c, 0, 83, 0
2, 54208, Note_on_c, 0, 81, 78
2, 54238, Note_on_c, 0, 81, 0
2, 54240, Note_on_c, 0, 79, 78
2, 54270, Note_on_c, 0, 79, 0
2, 54272, Note_on_c, 0, 78, 78
2, 54302, Note_on_c, 0, 78, 0
2, 54304, Note_on_c, 0, 76, 78
2, 54334, Note_on_c, 0, 76, 0
2, 54336, Note_on_c, 0, 74, 78
2, 54366, Note_on_c, 0, 74, 0
2, 54368, Note_on_c, 0, 72, 78
2, 54398, Note_on_c, 0, 72, 0
2, 54400, Note_on_c, 0, 71, 78
2, 54430, Note_on_c, 0, 71, 0
2, 54432, Note_on_c, 0, 69, 78
2, 54462, Note_on_c, 0, 69, 0
2, 54464, Note_on_c, 0, 72, 78
2, 54494, Note_on_c, 0, 72, 0
2, 54496, Note_on_c, 0, 76, 78
2, 54526, Note_on_c, 0, 76, 0
2, 54528, Note_on_c, 0, 67, 78
2, 54617, Note_on_c, 0, 67, 0
2, 54624, Note_on_c, 0, 66, 78
2, 54636, Note_on_c, 0, 66, 0
2, 54636, Note_on_c, 0, 67, 78
2, 54648, Note_on_c, 0, 67, 0
2, 54648, Note_on_c, 0, 66, 78
2, 54713, Note_on_c, 0, 66, 0
2, 54720, Note_on_c, 0, 66, 78
2, 54720, Note_on_c, 0, 60, 78
2, 54912, Note_on_c, 0, 66, 0
2, 54912, Note_on_c, 0, 60, 0
2, 54912, Note_on_c, 0, 67, 78
2, 54912, Note_on_c, 0, 59, 78
2, 55001, Note_on_c, 0, 67, 0
2, 55001, Note_on_c, 0, 59, 0
2, 55008, Note_on_c, 0, 76, 78
2, 55026, Note_on_c, 0, 76, 0
2, 55026, Note_on_c, 0, 74, 78
2, 55044, Note_on_c, 0, 74, 0
2, 55044, Note_on_c, 0, 72, 78
2, 55062, Note_on_c, 0, 72, 0
2, 55062, Note_on_c, 0, 74, 78
2, 55097, Note_on_c, 0, 74, 0
2, 55104, Note_on_c, 0, 86, 78
2, 55134, Note_on_c, 0, 86, 0
2, 55136, Note_on_c, 0, 81, 78
2, 55166, Note_on_c, 0, 81, 0
2, 55168, Note_on_c, 0, 78, 78
2, 55198, Note_on_c, 0, 78, 0
2, 55200, Note_on_c, 0, 81, 78
2, 55230, Note_on_c, 0, 81, 0
2, 55232, Note_on_c, 0, 78, 78
2, 55262, Note_on_c, 0, 78, 0
2, 55264, Note_on_c, 0, 74, 78
2, 55294, Note_on_c, 0, 74, 0
2, 55296, Note_on_c, 0, 74, 78
2, 55488, Note_on_c, 0, 74, 0
2, 55488, Note_on_c, 0, 73, 78
2, 55500, Note_on_c, 0, 73, 0
2, 55500, Note_on_c, 0, 74, 78
2, 55512, Note_on_c, 0, 74, 0
2, 55512, Note_on_c, 0, 73, 78
2, 55577, Note_on_c, 0, 73, 0
2, 55680, Note_on_c, 0, 74, 78
2, 55710, Note_on_c, 0, 74, 0
2, 55712, Note_on_c, 0, 78, 78
2, 55742, Note_on_c, 0, 78, 0
2, 55744, Note_on_c, 0, 81, 78
2, 55774, Note_on_c, 0, 81, 0
2, 55776, Note_on_c, 0, 84, 78
2, 55806, Note_on_c, 0, 84, 0
2, 55808, Note_on_c, 0, 81, 78
2, 55838, Note_on_c, 0, 81, 0
2, 55840, Note_on_c, 0, 78, 78
2, 55870, Note_on_c, 0, 78, 0
2, 55872, Note_on_c, 0, 72, 78
2, 55968, Note_on_c, 0, 72, 0
2, 55968, Note_on_c, 0, 71, 78
2, 55980, Note_on_c, 0, 71, 0
2, 55980, Note_on_c, 0, 72, 78
2, 55992, Note_on_c, 0, 72, 0
2, 55992, Note_on_c, 0, 71, 78
2, 56057, Note_on_c, 0, 71, 0
2, 56064, Note_on_c, 0, 79, 78
2, 56153, Note_on_c, 0, 79, 0
2, 56160, Note_on_c, 0, 75, 78
2, 56208, Note_on_c, 0, 75, 0
2, 56208, Note_on_c, 0, 76, 78
2, 56253, Note_on_c, 0, 76, 0
2, 56256, Note_on_c, 0, 76, 78
2, 56345, Note_on_c, 0, 76, 0
2, 56352, Note_on_c, 0, 79, 78
2, 56441, Note_on_c, 0, 79, 0
2, 56448, Note_on_c, 0, 73, 78
2, 56496, Note_on_c, 0, 73, 0
2, 56496, Note_on_c, 0, 74, 78
2, 56541, Note_on_c, 0, 74, 0
2, 56544, Note_on_c, 0, 74, 78
2, 56633, Note_on_c, 0, 74, 0
2, 56640, Note_on_c, 0, 86, 78
2, 56670, Note_on_c, 0, 86, 0
2, 56672, Note_on_c, 0, 83, 78
2, 56702, Note_on_c, 0, 83, 0
2, 56704, Note_on_c, 0, 79, 78
2, 56734, Note_on_c, 0, 79, 0
2, 56736, Note_on_c, 0, 78, 78
2, 56825, Note_on_c, 0, 78, 0
2, 56832, Note_on_c, 0, 76, 78
2, 56844, Note_on_c, 0, 76, 0
2, 56844, Note_on_c, 0, 78, 78
2, 56856, Note_on_c, 0, 78, 0
2, 56856, Note_on_c, 0, 76, 78
2, 56921, Note_on_c, 0, 76, 0
2, 56928, Note_on_c, 0, 79, 78
2, 56958, Note_on_c, 0, 79, 0
2, 56960, Note_on_c, 0, 78, 78
2, 56990, Note_on_c, 0, 78, 0
2, 56992, Note_on_c, 0, 76, 78
2, 57022, Note_on_c, 0, 76, 0
2, 57024, Note_on_c, 0, 76, 78
2, 57113, Note_on_c, 0, 76, 0
2, 57120, Note_on_c, 0, 74, 78
2, 57132, Note_on_c, 0, 74, 0
2, 57132, Note_on_c, 0, 76, 78
2, 57144, Note_on_c, 0, 76, 0
2, 57144, Note_on_c, 0, 74, 78
2, 57209, Note_on_c, 0, 74, 0
2, 57216, Note_on_c, 0, 78, 78
2, 57246, Note_on_c, 0, 78, 0
2, 57248, Note_on_c, 0, 79, 78
2, 57278, Note_on_c, 0, 79, 0
2, 57280, Note_on_c, 0, 83, 78
2, 57310, Note_on_c, 0, 83, 0
2, 57312, Note_on_c, 0, 75, 78
2, 57342, Note_on_c, 0, 75, 0
2, 57344, Note_on_c, 0, 76, 78
2, 57374, Note_on_c, 0, 76, 0
2, 57376, Note_on_c, 0, 79, 78
2, 57406, Note_on_c, 0, 79, 0
2, 57408, Note_on_c, 0, 71, 78
2, 57438, Note_on_c, 0, 71, 0
2, 57440, Note_on_c, 0, 72, 78
2, 57470, Note_on_c, 0, 72, 0
2, 57472, Note_on_c, 0, 76, 78
2, 57502, Note_on_c, 0, 76, 0
2, 57504, Note_on_c, 0, 68, 78
2, 57534, Note_on_c, 0, 68, 0
2, 57536, Note_on_c, 0, 69, 78
2, 57566, Note_on_c, 0, 69, 0
2, 57568, Note_on_c, 0, 72, 78
2, 57598, Note_on_c, 0, 72, 0
2, 57600, Note_on_c, 0, 67, 78
2, 57792, Note_on_c, 0, 67, 0
2, 57792, Note_on_c, 0, 66, 78
2, 57804, Note_on_c, 0, 66, 0
2, 57804, Note_on_c, 0, 67, 78
2, 57816, Note_on_c, 0, 67, 0
2, 57816, Note_on_c, 0, 66, 78
2, 57881, Note_on_c, 0, 66, 0
2, 57888, Note_on_c, 0, 76, 78
2, 57906, Note_on_c, 0, 76, 0
2, 57906, Note_on_c, 0, 74, 78
2, 57924, Note_on_c, 0, 74, 0
2, 57924, Note_on_c, 0, 72, 78
2, 57942, Note_on_c, 0, 72, 0
2, 57942, Note_on_c, 0, 74, 78
2, 57977, Note_on_c, 0, 74, 0
2, 57984, Note_on_c, 0, 79, 78
2, 58014, Note_on_c, 0, 79, 0
2, 58016, Note_on_c, 0, 74, 78
2, 58046, Note_on_c, 0, 74, 0
2, 58048, Note_on_c, 0, 71, 78
2, 58078, Note_on_c, 0, 71, 0
2, 58080, Note_on_c, 0, 74, 78
2, 58110, Note_on_c, 0, 74, 0
2, 58112, Note_on_c, 0, 71, 78
2, 58142, Note_on_c, 0, 71, 0
2, 58144, Note_on_c, 0, 67, 78
2, 58174, Note_on_c, 0, 67, 0
2, 58176, Note_on_c, 0, 67, 78
2, 58206, Note_on_c, 0, 67, 0
2, 58208, Note_on_c, 0, 66, 78
2, 58238, Note_on_c, 0, 66, 0
2, 58240, Note_on_c, 0, 62, 78
2, 58270, Note_on_c, 0, 62, 0
2, 58272, Note_on_c, 0, 72, 78
2, 58272, Note_on_c, 0, 69, 78
2, 58368, Note_on_c, 0, 72, 0
2, 58368, Note_on_c, 0, 69, 0
2, 58368, Note_on_c, 0, 71, 78
2, 58368, Note_on_c, 0, 67, 78
2, 58457, Note_on_c, 0, 71, 0
2, 58457, Note_on_c, 0, 67, 0
2, 58464, Note_on_c, 0, 64, 78
2, 58494, Note_on_c, 0, 64, 0
2, 58496, Note_on_c, 0, 68, 79
2, 58526, Note_on_c, 0, 68, 0
2, 58528, Note_on_c, 0, 69, 80
2, 58558, Note_on_c, 0, 69, 0
2, 58560, Note_on_c, 0, 71, 81
2, 58590, Note_on_c, 0, 71, 0
2, 58592, Note_on_c, 0, 72, 82
2, 58622, Note_on_c, 0, 72, 0
2, 58624, Note_on_c, 0, 74, 83
2, 58654, Note_on_c, 0, 74, 0
2, 58656, Note_on_c, 0, 76, 84
2, 58686, Note_on_c, 0, 76, 0
2, 58688, Note_on_c, 0, 72, 84
2, 58718, Note_on_c, 0, 72, 0
2, 58720, Note_on_c, 0, 69, 84
2, 58750, Note_on_c, 0, 69, 0
2, 58752, Note_on_c, 0, 67, 83
2, 58944, Note_on_c, 0, 67, 0
2, 58944, Note_on_c, 0, 66, 80
2, 59033, Note_on_c, 0, 66, 0
2, 59328, Note_on_c, 0, 67, 78
2, 59358, Note_on_c, 0, 67, 0
2, 59360, Note_on_c, 0, 66, 78
2, 59390, Note_on_c, 0, 66, 0
2, 59392, Note_on_c, 0, 62, 78
2, 59422, Note_on_c, 0, 62, 0
2, 59424, Note_on_c, 0, 72, 78
2, 59424, Note_on_c, 0, 66, 78
2, 59424, Note_on_c, 0, 57, 78
2, 59520, Note_on_c, 0, 72, 0
2, 59520, Note_on_c, 0, 66, 0
2, 59520, Note_on_c, 0, 57, 0
2, 59520, Note_on_c, 0, 71, 78
2, 59520, Note_on_c, 0, 67, 78
2, 59520, Note_on_c, 0, 55, 78
2, 59609, Note_on_c, 0, 71, 0
2, 59609, Note_on_c, 0, 67, 0
2, 59609, Note_on_c, 0, 55, 0
2, 59616, Note_on_c, 0, 79, 78
2, 59646, Note_on_c, 0, 79, 0
2, 59648, Note_on_c, 0, 78, 78
2, 59678, Note_on_c, 0, 78, 0
2, 59680, Note_on_c, 0, 74, 78
2, 59710, Note_on_c, 0, 74, 0
2, 59712, Note_on_c, 0, 84, 78
2, 59712, Note_on_c, 0, 78, 78
2, 59712, Note_on_c, 0, 69, 78
2, 59808, Note_on_c, 0, 84, 0
2, 59808, Note_on_c, 0, 78, 0
2, 59808, Note_on_c, 0, 69, 0
2, 59808, Note_on_c, 0, 83, 78
2, 59808, Note_on_c, 0, 79, 78
2, 59808, Note_on_c, 0, 67, 78
2, 59897, Note_on_c, 0, 83, 0
2, 59897, Note_on_c, 0, 79, 0
2, 59897, Note_on_c, 0, 67, 0
2, 59904, Note_on_c, 0, 67, 78
2, 59934, Note_on_c, 0, 67, 0
2, 59936, Note_on_c, 0, 66, 78
2, 59966, Note_on_c, 0, 66, 0
2, 59968, Note_on_c, 0, 62, 78
2, 59998, Note_on_c, 0, 62, 0
2, 60000, Note_on_c, 0, 76, 78
2, 60000, Note_on_c, 0, 72, 78
2, 60108, Note_on_c, 0, 76, 0
2, 60108, Note_on_c, 0, 72, 0
2, 60108, Note_on_c, 0, 74, 78
2, 60108, Note_on_c, 0, 71, 78
2, 60369, Note_on_c, 0, 74, 0
2, 60369, Note_on_c, 0, 71, 0
2, 60480, Note_on_c, 0, 68, 78
2, 60510, Note_on_c, 0, 68, 0
2, 60512, Note_on_c, 0, 69, 79
2, 60542, Note_on_c, 0, 69, 0
2, 60544, Note_on_c, 0, 72, 80
2, 60574, Note_on_c, 0, 72, 0
2, 60576, Note_on_c, 0, 76, 81
2, 60606, Note_on_c, 0, 76, 0
2, 60608, Note_on_c, 0, 72, 82
2, 60638, Note_on_c, 0, 72, 0
2, 60640, Note_on_c, 0, 69, 83
2, 60670, Note_on_c, 0, 69, 0
2, 60672, Note_on_c, 0, 72, 84
2, 60702, Note_on_c, 0, 72, 0
2, 60704, Note_on_c, 0, 69, 84
2, 60734, Note_on_c, 0, 69, 0
2, 60736, Note_on_c, 0, 66, 84
2, 60766, Note_on_c, 0, 66, 0
2, 60768, Note_on_c, 0, 66, 83
2, 60768, Note_on_c, 0, 60, 83
2, 60960, Note_on_c, 0, 66, 0
2, 60960, Note_on_c, 0, 60, 0
2, 60960, Note_on_c, 0, 67, 80
2, 60960, Note_on_c, 0, 59, 80
2, 61049, Note_on_c, 0, 67, 0
2, 61049, Note_on_c, 0, 59, 0
2, 61056, Note_on_c, 0, 79, 78
2, 61086, Note_on_c, 0, 79, 0
2, 61088, Note_on_c, 0, 78, 78
2, 61118, Note_on_c, 0, 78, 0
2, 61120, Note_on_c, 0, 81, 78
2, 61150, Note_on_c, 0, 81, 0
2, 61152, Note_on_c, 0, 86, 94
2, 61278, Note_on_c, 0, 86, 0
2, 61280, Note_on_c, 0, 83, 78
2, 61310, Note_on_c, 0, 83, 0
2, 61312, Note_on_c, 0, 79, 78
2, 61342, Note_on_c, 0, 79, 0
2, 61344, Note_on_c, 0, 78, 78
2, 61374, Note_on_c, 0, 78, 0
2, 61376, Note_on_c, 0, 74, 78
2, 61406, Note_on_c, 0, 74, 0
2, 61408, Note_on_c, 0, 81, 78
2, 61438, Note_on_c, 0, 81, 0
2, 61440, Note_on_c, 0, 86, 94
2, 61566, Note_on_c, 0, 86, 0
2, 61568, Note_on_c, 0, 83, 78
2, 61598, Note_on_c, 0, 83, 0
2, 61600, Note_on_c, 0, 79, 78
2, 61630, Note_on_c, 0, 79, 0
2, 61632, Note_on_c, 0, 79, 78
2, 61662, Note_on_c, 0, 79, 0
2, 61664, Note_on_c, 0, 78, 78
2, 61694, Note_on_c, 0, 78, 0
2, 61696, Note_on_c, 0, 81, 78
2, 61726, Note_on_c, 0, 81, 0
2, 61728, Note_on_c, 0, 86, 94
2, 61854, Note_on_c, 0, 86, 0
2, 61856, Note_on_c, 0, 83, 78
2, 61886, Note_on_c, 0, 83, 0
2, 61888, Note_on_c, 0, 79, 78
2, 61918, Note_on_c, 0, 79, 0
2, 61920, Note_on_c, 0, 78, 78
2, 61950, Note_on_c, 0, 78, 0
2, 61952, Note_on_c, 0, 74, 78
2, 61982, Note_on_c, 0, 74, 0
2, 61984, Note_on_c, 0, 81, 78
2, 62014, Note_on_c, 0, 81, 0
2, 62016, Note_on_c, 0, 86, 94
2, 62142, Note_on_c, 0, 86, 0
2, 62144, Note_on_c, 0, 83, 78
2, 62174, Note_on_c, 0, 83, 0
2, 62176, Note_on_c, 0, 79, 78
2, 62206, Note_on_c, 0, 79, 0
2, 62208, Note_on_c, 0, 76, 78
2, 62238, Note_on_c, 0, 76, 0
2, 62240, Note_on_c, 0, 78, 78
2, 62270, Note_on_c, 0, 78, 0
2, 62272, Note_on_c, 0, 79, 78
2, 62302, Note_on_c, 0, 79, 0
2, 62304, Note_on_c, 0, 74, 78
2, 62334, Note_on_c, 0, 74, 0
2, 62336, Note_on_c, 0, 78, 78
2, 62366, Note_on_c, 0, 78, 0
2, 62368, Note_on_c, 0, 79, 78
2, 62398, Note_on_c, 0, 79, 0
2, 62400, Note_on_c, 0, 72, 78
2, 62430, Note_on_c, 0, 72, 0
2, 62432, Note_on_c, 0, 80, 78
2, 62462, Note_on_c, 0, 80, 0
2, 62464, Note_on_c, 0, 81, 78
2, 62494, Note_on_c, 0, 81, 0
2, 62496, Note_on_c, 0, 71, 78
2, 62526, Note_on_c, 0, 71, 0
2, 62528, Note_on_c, 0, 83, 78
2, 62558, Note_on_c, 0, 83, 0
2, 62560, Note_on_c, 0, 81, 78
2, 62590, Note_on_c, 0, 81, 0
2, 62592, Note_on_c, 0, 79, 78
2, 62622, Note_on_c, 0, 79, 0
2, 62624, Note_on_c, 0, 78, 78
2, 62654, Note_on_c, 0, 78, 0
2, 62656, Note_on_c, 0, 76, 78
2, 62686, Note_on_c, 0, 76, 0
2, 62688, Note_on_c, 0, 74, 78
2, 62718, Note_on_c, 0, 74, 0
2, 62720, Note_on_c, 0, 72, 78
2, 62750, Note_on_c, 0, 72, 0
2, 62752, Note_on_c, 0, 71, 78
2, 62782, Note_on_c, 0, 71, 0
2, 62784, Note_on_c, 0, 69, 78
2, 62814, Note_on_c, 0, 69, 0
2, 62816, Note_on_c, 0, 72, 78
2, 62846, Note_on_c, 0, 72, 0
2, 62848, Note_on_c, 0, 76, 78
2, 62878, Note_on_c, 0, 76, 0
2, 62880, Note_on_c, 0, 67, 78
2, 62969, Note_on_c, 0, 67, 0
2, 62976, Note_on_c, 0, 66, 78
2, 62988, Note_on_c, 0, 66, 0
2, 62988, Note_on_c, 0, 67, 78
2, 63000, Note_on_c, 0, 67, 0
2, 63000, Note_on_c, 0, 66, 78
2, 63065, Note_on_c, 0, 66, 0
2, 63072, Note_on_c, 0, 66, 78
2, 63072, Note_on_c, 0, 60, 78
2, 63264, Note_on_c, 0, 66, 0
2, 63264, Note_on_c, 0, 60, 0
2, 63264, Note_on_c, 0, 67, 78
2, 63264, Note_on_c, 0, 59, 78
2, 63353, Note_on_c, 0, 67, 0
2, 63353, Note_on_c, 0, 59, 0
2, 63360, End_track
3, 0, Start_track
3, 0, Program_c, 0, 0
3, 0, Control_c, 0, 7, 127
3, 0, Control_c, 0, 10, 64
3, 16032, Note_on_c, 0, 60, 64
3, 16121, Note_on_c, 0, 60, 0
3, 24384, Note_on_c, 0, 60, 64
3, 24473, Note_on_c, 0, 60, 0
3, 29376, Note_on_c, 0, 62, 64
3, 29553, Note_on_c, 0, 62, 0
3, 29568, Note_on_c, 0, 63, 64
3, 29657, Note_on_c, 0, 63, 0
3, 29664, Note_on_c, 0, 62, 64
3, 29753, Note_on_c, 0, 62, 0
3, 29856, Note_on_c, 0, 69, 64
3, 29945, Note_on_c, 0, 69, 0
3, 29952, Note_on_c, 0, 70, 64
3, 30041, Note_on_c, 0, 70, 0
3, 30144, Note_on_c, 0, 75, 64
3, 30233, Note_on_c, 0, 75, 0
3, 30240, Note_on_c, 0, 74, 64
3, 30329, Note_on_c, 0, 74, 0
3, 33984, Note_on_c, 0, 62, 64
3, 34161, Note_on_c, 0, 62, 0
3, 34176, Note_on_c, 0, 63, 64
3, 34265, Note_on_c, 0, 63, 0
3, 34272, Note_on_c, 0, 62, 64
3, 34361, Note_on_c, 0, 62, 0
3, 34464, Note_on_c, 0, 69, 64
3, 34553, Note_on_c, 0, 69, 0
3, 34560, Note_on_c, 0, 70, 64
3, 34649, Note_on_c, 0, 70, 0
3, 34752, Note_on_c, 0, 75, 64
3, 34841, Note_on_c, 0, 75, 0
3, 34848, Note_on_c, 0, 74, 64
3, 34937, Note_on_c, 0, 74, 0
3, 54624, Note_on_c, 0, 60, 64
3, 54713, Note_on_c, 0, 60, 0
3, 62976, Note_on_c, 0, 60, 64
3, 63065, Note_on_c, 0, 60, 0
3, 63360, End_track
4, 0, Start_track
4, 0, Program_c, 1, 1
4, 0, Control_c, 1, 7, 127
4, 0, Control_c, 1, 10, 64
4, 0, Note_on_c, 1, 59, 78
4, 0, Note_on_c, 1, 55, 78
4, 89, Note_on_c, 1, 59, 0
4, 89, Note_on_c, 1, 55, 0
4, 192, Note_on_c, 1, 62, 78
4, 192, Note_on_c, 1, 59, 78
4, 281, Note_on_c, 1, 62, 0
4, 281, Note_on_c, 1, 59, 0
4, 288, Note_on_c, 1, 60, 78
4, 288, Note_on_c, 1, 57, 78
4, 377, Note_on_c, 1, 60, 0
4, 377, Note_on_c, 1, 57, 0
4, 384, Note_on_c, 1, 54, 78
4, 480, Note_on_c, 1, 54, 0
4, 480, Note_on_c, 1, 55, 78
4, 569, Note_on_c, 1, 55, 0
4, 576, Note_on_c, 1, 48, 78
4, 841, Note_on_c, 1, 48, 0
4, 864, Note_on_c, 1, 50, 78
4, 953, Note_on_c, 1, 50, 0
4, 960, Note_on_c, 1, 62, 78
4, 990, Note_on_c, 1, 62, 0
4, 992, Note_on_c, 1, 64, 78
4, 1022, Note_on_c, 1, 64, 0
4, 1024, Note_on_c, 1, 62, 78
4, 1054, Note_on_c, 1, 62, 0
4, 1056, Note_on_c, 1, 60, 78
4, 1086, Note_on_c, 1, 60, 0
4, 1088, Note_on_c, 1, 59, 78
4, 1118, Note_on_c, 1, 59, 0
4, 1120, Note_on_c, 1, 57, 78
4, 1150, Note_on_c, 1, 57, 0
4, 1152, Note_on_c, 1, 59, 78
4, 1152, Note_on_c, 1, 55, 78
4, 1241, Note_on_c, 1, 59, 0
4, 1241, Note_on_c, 1, 55, 0
4, 1344, Note_on_c, 1, 62, 78
4, 1344, Note_on_c, 1, 59, 78
4, 1433, Note_on_c, 1, 62, 0
4, 1433, Note_on_c, 1, 59, 0
4, 1440, Note_on_c, 1, 60, 78
4, 1440, Note_on_c, 1, 57, 78
4, 1529, Note_on_c, 1, 60, 0
4, 1529, Note_on_c, 1, 57, 0
4, 1536, Note_on_c, 1, 54, 78
4, 1632, Note_on_c, 1, 54, 0
4, 1632, Note_on_c, 1, 55, 78
4, 1721, Note_on_c, 1, 55, 0
4, 1824, Note_on_c, 1, 64, 78
4, 1913, Note_on_c, 1, 64, 0
4, 1920, Note_on_c, 1, 62, 78
4, 2009, Note_on_c, 1, 62, 0
4, 2016, Note_on_c, 1, 67, 78
4, 2193, Note_on_c, 1, 67, 0
4, 2400, Note_on_c, 1, 67, 78
4, 2400, Note_on_c, 1, 61, 78
4, 2496, Note_on_c, 1, 67, 0
4, 2496, Note_on_c, 1, 61, 0
4, 2496, Note_on_c, 1, 66, 78
4, 2496, Note_on_c, 1, 62, 78
4, 2585, Note_on_c, 1, 66, 0
4, 2585, Note_on_c, 1, 62, 0
4, 2688, Note_on_c, 1, 67, 78
4, 2688, Note_on_c, 1, 61, 78
4, 2784, Note_on_c, 1, 67, 0
4, 2784, Note_on_c, 1, 61, 0
4, 2784, Note_on_c, 1, 66, 78
4, 2784, Note_on_c, 1, 62, 78
4, 2873, Note_on_c, 1, 66, 0
4, 2873, Note_on_c, 1, 62, 0
4, 2976, Note_on_c, 1, 61, 78
4, 2976, Note_on_c, 1, 55, 78
4, 3072, Note_on_c, 1, 61, 0
4, 3072, Note_on_c, 1, 55, 0
4, 3072, Note_on_c, 1, 62, 78
4, 3072, Note_on_c, 1, 54, 78
4, 3161, Note_on_c, 1, 62, 0
4, 3161, Note_on_c, 1, 54, 0
4, 3264, Note_on_c, 1, 61, 78
4, 3264, Note_on_c, 1, 55, 78
4, 3360, Note_on_c, 1, 61, 0
4, 3360, Note_on_c, 1, 55, 0
4, 3360, Note_on_c, 1, 62, 78
4, 3360, Note_on_c, 1, 54, 78
4, 3449, Note_on_c, 1, 62, 0
4, 3449, Note_on_c, 1, 54, 0
4, 3456, Note_on_c, 1, 55, 78
4, 3545, Note_on_c, 1, 55, 0
4, 3648, Note_on_c, 1, 67, 78
4, 3648, Note_on_c, 1, 57, 78
4, 3737, Note_on_c, 1, 67, 0
4, 3737, Note_on_c, 1, 57, 0
4, 3744, Note_on_c, 1, 67, 78
4, 3921, Note_on_c, 1, 67, 0
4, 3936, Note_on_c, 1, 66, 78
4, 4025, Note_on_c, 1, 66, 0
4, 4032, Note_on_c, 1, 59, 78
4, 4032, Note_on_c, 1, 55, 78
4, 4121, Note_on_c, 1, 59, 0
4, 4121, Note_on_c, 1, 55, 0
4, 4224, Note_on_c, 1, 62, 78
4, 4224, Note_on_c, 1, 59, 78
4, 4313, Note_on_c, 1, 62, 0
4, 4313, Note_on_c, 1, 59, 0
4, 4320, Note_on_c, 1, 60, 78
4, 4320, Note_on_c, 1, 57, 78
4, 4409, Note_on_c, 1, 60, 0
4, 4409, Note_on_c, 1, 57, 0
4, 4416, Note_on_c, 1, 54, 78
4, 4512, Note_on_c, 1, 54, 0
4, 4512, Note_on_c, 1, 55, 78
4, 4601, Note_on_c, 1, 55, 0
4, 4608, Note_on_c, 1, 48, 78
4, 4873, Note_on_c, 1, 48, 0
4, 4896, Note_on_c, 1, 50, 78
4, 4985, Note_on_c, 1, 50, 0
4, 4992, Note_on_c, 1, 62, 78
4, 5022, Note_on_c, 1, 62, 0
4, 5024, Note_on_c, 1, 64, 78
4, 5054, Note_on_c, 1, 64, 0
4, 5056, Note_on_c, 1, 62, 78
4, 5086, Note_on_c, 1, 62, 0
4, 5088, Note_on_c, 1, 60, 78
4, 5118, Note_on_c, 1, 60, 0
4, 5120, Note_on_c, 1, 59, 78
4, 5150, Note_on_c, 1, 59, 0
4, 5152, Note_on_c, 1, 57, 78
4, 5182, Note_on_c, 1, 57, 0
4, 5184, Note_on_c, 1, 59, 78
4, 5184, Note_on_c, 1, 55, 78
4, 5273, Note_on_c, 1, 59, 0
4, 5273, Note_on_c, 1, 55, 0
4, 5376, Note_on_c, 1, 62, 78
4, 5376, Note_on_c, 1, 59, 78
4, 5465, Note_on_c, 1, 62, 0
4, 5465, Note_on_c, 1, 59, 0
4, 5472, Note_on_c, 1, 60, 78
4, 5472, Note_on_c, 1, 57, 78
4, 5561, Note_on_c, 1, 60, 0
4, 5561, Note_on_c, 1, 57, 0
4, 5568, Note_on_c, 1, 54, 78
4, 5664, Note_on_c, 1, 54, 0
4, 5664, Note_on_c, 1, 55, 78
4, 5753, Note_on_c, 1, 55, 0
4, 5856, Note_on_c, 1, 64, 78
4, 5945, Note_on_c, 1, 64, 0
4, 5952, Note_on_c, 1, 62, 78
4, 6041, Note_on_c, 1, 62, 0
4, 6048, Note_on_c, 1, 67, 78
4, 6225, Note_on_c, 1, 67, 0
4, 6432, Note_on_c, 1, 67, 78
4, 6432, Note_on_c, 1, 61, 78
4, 6528, Note_on_c, 1, 67, 0
4, 6528, Note_on_c, 1, 61, 0
4, 6528, Note_on_c, 1, 66, 78
4, 6528, Note_on_c, 1, 62, 78
4, 6617, Note_on_c, 1, 66, 0
4, 6617, Note_on_c, 1, 62, 0
4, 6720, Note_on_c, 1, 67, 78
4, 6720, Note_on_c, 1, 61, 78
4, 6816, Note_on_c, 1, 67, 0
4, 6816, Note_on_c, 1, 61, 0
4, 6816, Note_on_c, 1, 66, 78
4, 6816, Note_on_c, 1, 62, 78
4, 6905, Note_on_c, 1, 66, 0
4, 6905, Note_on_c, 1, 62, 0
4, 7008, Note_on_c, 1, 61, 78
4, 7008, Note_on_c, 1, 55, 78
4, 7104, Note_on_c, 1, 61, 0
4, 7104, Note_on_c, 1, 55, 0
4, 7104, Note_on_c, 1, 62, 78
4, 7104, Note_on_c, 1, 54, 78
4, 7193, Note_on_c, 1, 62, 0
4, 7193, Note_on_c, 1, 54, 0
4, 7296, Note_on_c, 1, 61, 78
4, 7296, Note_on_c, 1, 55, 78
4, 7392, Note_on_c, 1, 61, 0
4, 7392, Note_on_c, 1, 55, 0
4, 7392, Note_on_c, 1, 62, 78
4, 7392, Note_on_c, 1, 54, 78
4, 7481, Note_on_c, 1, 62, 0
4, 7481, Note_on_c, 1, 54, 0
4, 7488, Note_on_c, 1, 55, 78
4, 7577, Note_on_c, 1, 55, 0
4, 7680, Note_on_c, 1, 67, 78
4, 7680, Note_on_c, 1, 57, 78
4, 7769, Note_on_c, 1, 67, 0
4, 7769, Note_on_c, 1, 57, 0
4, 7776, Note_on_c, 1, 67, 78
4, 7953, Note_on_c, 1, 67, 0
4, 7968, Note_on_c, 1, 66, 78
4, 8057, Note_on_c, 1, 66, 0
4, 8064, Note_on_c, 1, 62, 71
4, 8094, Note_on_c, 1, 62, 0
4, 8096, Note_on_c, 1, 66, 71
4, 8126, Note_on_c, 1, 66, 0
4, 8128, Note_on_c, 1, 69, 71
4, 8158, Note_on_c, 1, 69, 0
4, 8160, Note_on_c, 1, 62, 71
4, 8190, Note_on_c, 1, 62, 0
4, 8192, Note_on_c, 1, 66, 71
4, 8222, Note_on_c, 1, 66, 0
4, 8224, Note_on_c, 1, 69, 71
4, 8254, Note_on_c, 1, 69, 0
4, 8256, Note_on_c, 1, 62, 71
4, 8286, Note_on_c, 1, 62, 0
4, 8288, Note_on_c, 1, 66, 71
4, 8318, Note_on_c, 1, 66, 0
4, 8320, Note_on_c, 1, 69, 71
4, 8350, Note_on_c, 1, 69, 0
4, 8352, Note_on_c, 1, 64, 71
4, 8382, Note_on_c, 1, 64, 0
4, 8384, Note_on_c, 1, 67, 71
4, 8414, Note_on_c, 1, 67, 0
4, 8416, Note_on_c, 1, 69, 71
4, 8446, Note_on_c, 1, 69, 0
4, 8448, Note_on_c, 1, 64, 71
4, 8478, Note_on_c, 1, 64, 0
4, 8480, Note_on_c, 1, 67, 71
4, 8510, Note_on_c, 1, 67, 0
4, 8512, Note_on_c, 1, 69, 71
4, 8542, Note_on_c, 1, 69, 0
4, 8544, Note_on_c, 1, 64, 71
4, 8574, Note_on_c, 1, 64, 0
4, 8576, Note_on_c, 1, 67, 71
4, 8606, Note_on_c, 1, 67, 0
4, 8608, Note_on_c, 1, 69, 71
4, 8638, Note_on_c, 1, 69, 0
4, 8640, Note_on_c, 1, 66, 78
4, 8670, Note_on_c, 1, 66, 0
4, 8672, Note_on_c, 1, 69, 78
4, 8702, Note_on_c, 1, 69, 0
4, 8704, Note_on_c, 1, 72, 78
4, 8734, Note_on_c, 1, 72, 0
4, 8928, Note_on_c, 1, 55, 71
4, 8958, Note_on_c, 1, 55, 0
4, 8960, Note_on_c, 1, 62, 71
4, 8990, Note_on_c, 1, 62, 0
4, 8992, Note_on_c, 1, 67, 71
4, 9022, Note_on_c, 1, 67, 0
4, 9024, Note_on_c, 1, 55, 71
4, 9054, Note_on_c, 1, 55, 0
4, 9056, Note_on_c, 1, 62, 71
4, 9086, Note_on_c, 1, 62, 0
4, 9088, Note_on_c, 1, 67, 71
4, 9118, Note_on_c, 1, 67, 0
4, 9120, Note_on_c, 1, 59, 71
4, 9150, Note_on_c, 1, 59, 0
4, 9152, Note_on_c, 1, 62, 71
4, 9182, Note_on_c, 1, 62, 0
4, 9184, Note_on_c, 1, 67, 71
4, 9214, Note_on_c, 1, 67, 0
4, 9216, Note_on_c, 1, 60, 71
4, 9246, Note_on_c, 1, 60, 0
4, 9248, Note_on_c, 1, 64, 71
4, 9278, Note_on_c, 1, 64, 0
4, 9280, Note_on_c, 1, 67, 71
4, 9310, Note_on_c, 1, 67, 0
4, 9312, Note_on_c, 1, 60, 71
4, 9342, Note_on_c, 1, 60, 0
4, 9344, Note_on_c, 1, 64, 71
4, 9374, Note_on_c, 1, 64, 0
4, 9376, Note_on_c, 1, 67, 71
4, 9406, Note_on_c, 1, 67, 0
4, 9408, Note_on_c, 1, 60, 71
4, 9438, Note_on_c, 1, 60, 0
4, 9440, Note_on_c, 1, 64, 71
4, 9470, Note_on_c, 1, 64, 0
4, 9472, Note_on_c, 1, 67, 71
4, 9502, Note_on_c, 1, 67, 0
4, 9504, Note_on_c, 1, 59, 71
4, 9534, Note_on_c, 1, 59, 0
4, 9536, Note_on_c, 1, 62, 71
4, 9566, Note_on_c, 1, 62, 0
4, 9568, Note_on_c, 1, 67, 71
4, 9598, Note_on_c, 1, 67, 0
4, 9600, Note_on_c, 1, 59, 71
4, 9630, Note_on_c, 1, 59, 0
4, 9632, Note_on_c, 1, 62, 71
4, 9662, Note_on_c, 1, 62, 0
4, 9664, Note_on_c, 1, 67, 71
4, 9694, Note_on_c, 1, 67, 0
4, 9696, Note_on_c, 1, 59, 71
4, 9726, Note_on_c, 1, 59, 0
4, 9728, Note_on_c, 1, 62, 71
4, 9758, Note_on_c, 1, 62, 0
4, 9760, Note_on_c, 1, 67, 71
4, 9790, Note_on_c, 1, 67, 0
4, 9792, Note_on_c, 1, 60, 71
4, 9822, Note_on_c, 1, 60, 0
4, 9824, Note_on_c, 1, 64, 71
4, 9854, Note_on_c, 1, 64, 0
4, 9856, Note_on_c, 1, 67, 71
4, 9886, Note_on_c, 1, 67, 0
4, 9888, Note_on_c, 1, 60, 71
4, 9918, Note_on_c, 1, 60, 0
4, 9920, Note_on_c, 1, 64, 71
4, 9950, Note_on_c, 1, 64, 0
4, 9952, Note_on_c, 1, 67, 71
4, 9982, Note_on_c, 1, 67, 0
4, 9984, Note_on_c, 1, 60, 71
4, 10014, Note_on_c, 1, 60, 0
4, 10016, Note_on_c, 1, 64, 71
4, 10046, Note_on_c, 1, 64, 0
4, 10048, Note_on_c, 1, 67, 71
4, 10078, Note_on_c, 1, 67, 0
4, 10080, Note_on_c, 1, 59, 71
4, 10110, Note_on_c, 1, 59, 0
4, 10112, Note_on_c, 1, 62, 71
4, 10142, Note_on_c, 1, 62, 0
4, 10144, Note_on_c, 1, 67, 71
4, 10174, Note_on_c, 1, 67, 0
4, 10176, Note_on_c, 1, 59, 71
4, 10206, Note_on_c, 1, 59, 0
4, 10208, Note_on_c, 1, 62, 71
4, 10238, Note_on_c, 1, 62, 0
4, 10240, Note_on_c, 1, 67, 71
4, 10270, Note_on_c, 1, 67, 0
4, 10272, Note_on_c, 1, 59, 71
4, 10302, Note_on_c, 1, 59, 0
4, 10304, Note_on_c, 1, 62, 71
4, 10334, Note_on_c, 1, 62, 0
4, 10336, Note_on_c, 1, 67, 71
4, 10366, Note_on_c, 1, 67, 0
4, 10368, Note_on_c, 1, 60, 71
4, 10457, Note_on_c, 1, 60, 0
4, 10656, Note_on_c, 1, 50, 71
4, 10745, Note_on_c, 1, 50, 0
4, 10752, Note_on_c, 1, 62, 64
4, 10782, Note_on_c, 1, 62, 0
4, 10784, Note_on_c, 1, 64, 66
4, 10814, Note_on_c, 1, 64, 0
4, 10816, Note_on_c, 1, 62, 68
4, 10846, Note_on_c, 1, 62, 0
4, 10848, Note_on_c, 1, 60, 70
4, 10878, Note_on_c, 1, 60, 0
4, 10880, Note_on_c, 1, 59, 72
4, 10910, Note_on_c, 1, 59, 0
4, 10912, Note_on_c, 1, 57, 74
4, 10942, Note_on_c, 1, 57, 0
4, 10944, Note_on_c, 1, 59, 78
4, 10944, Note_on_c, 1, 55, 78
4, 11033, Note_on_c, 1, 59, 0
4, 11033, Note_on_c, 1, 55, 0
4, 11136, Note_on_c, 1, 62, 78
4, 11136, Note_on_c, 1, 59, 78
4, 11225, Note_on_c, 1, 62, 0
4, 11225, Note_on_c, 1, 59, 0
4, 11232, Note_on_c, 1, 60, 78
4, 11232, Note_on_c, 1, 57, 78
4, 11321, Note_on_c, 1, 60, 0
4, 11321, Note_on_c, 1, 57, 0
4, 11328, Note_on_c, 1, 54, 78
4, 11424, Note_on_c, 1, 54, 0
4, 11424, Note_on_c, 1, 55, 78
4, 11513, Note_on_c, 1, 55, 0
4, 11520, Note_on_c, 1, 48, 78
4, 11785, Note_on_c, 1, 48, 0
4, 11808, Note_on_c, 1, 50, 78
4, 11897, Note_on_c, 1, 50, 0
4, 11904, Note_on_c, 1, 45, 78
4, 11993, Note_on_c, 1, 45, 0
4, 12000, Note_on_c, 1, 38, 78
4, 12089, Note_on_c, 1, 38, 0
4, 12096, Note_on_c, 1, 55, 78
4, 12126, Note_on_c, 1, 55, 0
4, 12128, Note_on_c, 1, 54, 78
4, 12158, Note_on_c, 1, 54, 0
4, 12160, Note_on_c, 1, 50, 78
4, 12190, Note_on_c, 1, 50, 0
4, 12192, Note_on_c, 1, 60, 78
4, 12192, Note_on_c, 1, 54, 78
4, 12192, Note_on_c, 1, 45, 78
4, 12288, Note_on_c, 1, 60, 0
4, 12288, Note_on_c, 1, 54, 0
4, 12288, Note_on_c, 1, 45, 0
4, 12288, Note_on_c, 1, 59, 78
4, 12288, Note_on_c, 1, 55, 78
4, 12288, Note_on_c, 1, 43, 78
4, 12377, Note_on_c, 1, 59, 0
4, 12377, Note_on_c, 1, 55, 0
4, 12377, Note_on_c, 1, 43, 0
4, 13056, Note_on_c, 1, 54, 78
4, 13164, Note_on_c, 1, 54, 0
4, 13164, Note_on_c, 1, 55, 78
4, 13425, Note_on_c, 1, 55, 0
4, 13536, Note_on_c, 1, 48, 78
4, 13625, Note_on_c, 1, 48, 0
4, 13728, Note_on_c, 1, 50, 78
4, 13817, Note_on_c, 1, 50, 0
4, 13824, Note_on_c, 1, 52, 78
4, 14089, Note_on_c, 1, 52, 0
4, 14208, Note_on_c, 1, 72, 78
4, 14208, Note_on_c, 1, 66, 78
4, 14304, Note_on_c, 1, 72, 0
4, 14304, Note_on_c, 1, 66, 0
4, 14304, Note_on_c, 1, 71, 78
4, 14304, Note_on_c, 1, 67, 78
4, 14393, Note_on_c, 1, 71, 0
4, 14393, Note_on_c, 1, 67, 0
4, 14496, Note_on_c, 1, 72, 78
4, 14496, Note_on_c, 1, 66, 78
4, 14592, Note_on_c, 1, 72, 0
4, 14592, Note_on_c, 1, 66, 0
4, 14592, Note_on_c, 1, 71, 78
4, 14592, Note_on_c, 1, 67, 78
4, 14681, Note_on_c, 1, 71, 0
4, 14681, Note_on_c, 1, 67, 0
4, 14784, Note_on_c, 1, 66, 78
4, 14784, Note_on_c, 1, 60, 78
4, 14880, Note_on_c, 1, 66, 0
4, 14880, Note_on_c, 1, 60, 0
4, 14880, Note_on_c, 1, 67, 78
4, 14880, Note_on_c, 1, 59, 78
4, 14969, Note_on_c, 1, 67, 0
4, 14969, Note_on_c, 1, 59, 0
4, 15072, Note_on_c, 1, 66, 78
4, 15072, Note_on_c, 1, 60, 78
4, 15168, Note_on_c, 1, 66, 0
4, 15168, Note_on_c, 1, 60, 0
4, 15168, Note_on_c, 1, 67, 78
4, 15168, Note_on_c, 1, 59, 78
4, 15264, Note_on_c, 1, 59, 0
4, 15441, Note_on_c, 1, 67, 0
4, 15456, Note_on_c, 1, 66, 78
4, 15545, Note_on_c, 1, 66, 0
4, 15552, Note_on_c, 1, 67, 78
4, 15641, Note_on_c, 1, 67, 0
4, 15840, Note_on_c, 1, 60, 78
4, 15840, Note_on_c, 1, 48, 78
4, 15929, Note_on_c, 1, 60, 0
4, 15929, Note_on_c, 1, 48, 0
4, 15936, Note_on_c, 1, 59, 78
4, 15936, Note_on_c, 1, 50, 78
4, 16025, Note_on_c, 1, 59, 0
4, 16025, Note_on_c, 1, 50, 0
4, 16032, Note_on_c, 1, 57, 78
4, 16032, Note_on_c, 1, 50, 78
4, 16121, Note_on_c, 1, 57, 0
4, 16121, Note_on_c, 1, 50, 0
4, 16128, Note_on_c, 1, 55, 78
4, 16217, Note_on_c, 1, 55, 0
4, 16224, Note_on_c, 1, 50, 78
4, 16313, Note_on_c, 1, 50, 0
4, 16320, Note_on_c, 1, 43, 78
4, 16409, Note_on_c, 1, 43, 0
4, 16416, Note_on_c, 1, 62, 71
4, 16446, Note_on_c, 1, 62, 0
4, 16448, Note_on_c, 1, 66, 71
4, 16478, Note_on_c, 1, 66, 0
4, 16480, Note_on_c, 1, 69, 71
4, 16510, Note_on_c, 1, 69, 0
4, 16512, Note_on_c, 1, 62, 71
4, 16542, Note_on_c, 1, 62, 0
4, 16544, Note_on_c, 1, 66, 71
4, 16574, Note_on_c, 1, 66, 0
4, 16576, Note_on_c, 1, 69, 71
4, 16606, Note_on_c, 1, 69, 0
4, 16608, Note_on_c, 1, 62, 71
4, 16638, Note_on_c, 1, 62, 0
4, 16640, Note_on_c, 1, 66, 71
4, 16670, Note_on_c, 1, 66, 0
4, 16672, Note_on_c, 1, 69, 71
4, 16702, Note_on_c, 1, 69, 0
4, 16704, Note_on_c, 1, 64, 71
4, 16734, Note_on_c, 1, 64, 0
4, 16736, Note_on_c, 1, 67, 71
4, 16766, Note_on_c, 1, 67, 0
4, 16768, Note_on_c, 1, 69, 71
4, 16798, Note_on_c, 1, 69, 0
4, 16800, Note_on_c, 1, 64, 71
4, 16830, Note_on_c, 1, 64, 0
4, 16832, Note_on_c, 1, 67, 71
4, 16862, Note_on_c, 1, 67, 0
4, 16864, Note_on_c, 1, 69, 71
4, 16894, Note_on_c, 1, 69, 0
4, 16896, Note_on_c, 1, 64, 71
4, 16926, Note_on_c, 1, 64, 0
4, 16928, Note_on_c, 1, 67, 71
4, 16958, Note_on_c, 1, 67, 0
4, 16960, Note_on_c, 1, 69, 71
4, 16990, Note_on_c, 1, 69, 0
4, 16992, Note_on_c, 1, 66, 78
4, 17022, Note_on_c, 1, 66, 0
4, 17024, Note_on_c, 1, 69, 78
4, 17054, Note_on_c, 1, 69, 0
4, 17056, Note_on_c, 1, 72, 78
4, 17086, Note_on_c, 1, 72, 0
4, 17280, Note_on_c, 1, 55, 71
4, 17310, Note_on_c, 1, 55, 0
4, 17312, Note_on_c, 1, 62, 71
4, 17342, Note_on_c, 1, 62, 0
4, 17344, Note_on_c, 1, 67, 71
4, 17374, Note_on_c, 1, 67, 0
4, 17376, Note_on_c, 1, 55, 71
4, 17406, Note_on_c, 1, 55, 0
4, 17408, Note_on_c, 1, 62, 71
4, 17438, Note_on_c, 1, 62, 0
4, 17440, Note_on_c, 1, 67, 71
4, 17470, Note_on_c, 1, 67, 0
4, 17472, Note_on_c, 1, 59, 71
4, 17502, Note_on_c, 1, 59, 0
4, 17504, Note_on_c, 1, 62, 71
4, 17534, Note_on_c, 1, 62, 0
4, 17536, Note_on_c, 1, 67, 71
4, 17566, Note_on_c, 1, 67, 0
4, 17568, Note_on_c, 1, 60, 71
4, 17598, Note_on_c, 1, 60, 0
4, 17600, Note_on_c, 1, 64, 71
4, 17630, Note_on_c, 1, 64, 0
4, 17632, Note_on_c, 1, 67, 71
4, 17662, Note_on_c, 1, 67, 0
4, 17664, Note_on_c, 1, 60, 71
4, 17694, Note_on_c, 1, 60, 0
4, 17696, Note_on_c, 1, 64, 71
4, 17726, Note_on_c, 1, 64, 0
4, 17728, Note_on_c, 1, 67, 71
4, 17758, Note_on_c, 1, 67, 0
4, 17760, Note_on_c, 1, 60, 71
4, 17790, Note_on_c, 1, 60, 0
4, 17792, Note_on_c, 1, 64, 71
4, 17822, Note_on_c, 1, 64, 0
4, 17824, Note_on_c, 1, 67, 71
4, 17854, Note_on_c, 1, 67, 0
4, 17856, Note_on_c, 1, 59, 71
4, 17886, Note_on_c, 1, 59, 0
4, 17888, Note_on_c, 1, 62, 71
4, 17918, Note_on_c, 1, 62, 0
4, 17920, Note_on_c, 1, 67, 71
4, 17950, Note_on_c, 1, 67, 0
4, 17952, Note_on_c, 1, 59, 71
4, 17982, Note_on_c, 1, 59, 0
4, 17984, Note_on_c, 1, 62, 71
4, 18014, Note_on_c, 1, 62, 0
4, 18016, Note_on_c, 1, 67, 71
4, 18046, Note_on_c, 1, 67, 0
4, 18048, Note_on_c, 1, 59, 71
4, 18078, Note_on_c, 1, 59, 0
4, 18080, Note_on_c, 1, 62, 71
4, 18110, Note_on_c, 1, 62, 0
4, 18112, Note_on_c, 1, 67, 71
4, 18142, Note_on_c, 1, 67, 0
4, 18144, Note_on_c, 1, 60, 71
4, 18174, Note_on_c, 1, 60, 0
4, 18176, Note_on_c, 1, 64, 71
4, 18206, Note_on_c, 1, 64, 0
4, 18208, Note_on_c, 1, 67, 71
4, 18238, Note_on_c, 1, 67, 0
4, 18240, Note_on_c, 1, 60, 71
4, 18270, Note_on_c, 1, 60, 0
4, 18272, Note_on_c, 1, 64, 71
4, 18302, Note_on_c, 1, 64, 0
4, 18304, Note_on_c, 1, 67, 71
4, 18334, Note_on_c, 1, 67, 0
4, 18336, Note_on_c, 1, 60, 71
4, 18366, Note_on_c, 1, 60, 0
4, 18368, Note_on_c, 1, 64, 71
4, 18398, Note_on_c, 1, 64, 0
4, 18400, Note_on_c, 1, 67, 71
4, 18430, Note_on_c, 1, 67, 0
4, 18432, Note_on_c, 1, 59, 71
4, 18462, Note_on_c, 1, 59, 0
4, 18464, Note_on_c, 1, 62, 71
4, 18494, Note_on_c, 1, 62, 0
4, 18496, Note_on_c, 1, 67, 71
4, 18526, Note_on_c, 1, 67, 0
4, 18528, Note_on_c, 1, 59, 71
4, 18558, Note_on_c, 1, 59, 0
4, 18560, Note_on_c, 1, 62, 71
4, 18590, Note_on_c, 1, 62, 0
4, 18592, Note_on_c, 1, 67, 71
4, 18622, Note_on_c, 1, 67, 0
4, 18624, Note_on_c, 1, 59, 71
4, 18654, Note_on_c, 1, 59, 0
4, 18656, Note_on_c, 1, 62, 71
4, 18686, Note_on_c, 1, 62, 0
4, 18688, Note_on_c, 1, 67, 71
4, 18718, Note_on_c, 1, 67, 0
4, 18720, Note_on_c, 1, 60, 71
4, 18809, Note_on_c, 1, 60, 0
4, 19008, Note_on_c, 1, 50, 71
4, 19097, Note_on_c, 1, 50, 0
4, 19104, Note_on_c, 1, 62, 64
4, 19134, Note_on_c, 1, 62, 0
4, 19136, Note_on_c, 1, 64, 66
4, 19166, Note_on_c, 1, 64, 0
4, 19168, Note_on_c, 1, 62, 68
4, 19198, Note_on_c, 1, 62, 0
4, 19200, Note_on_c, 1, 60, 70
4, 19230, Note_on_c, 1, 60, 0
4, 19232, Note_on_c, 1, 59, 72
4, 19262, Note_on_c, 1, 59, 0
4, 19264, Note_on_c, 1, 57, 74
4, 19294, Note_on_c, 1, 57, 0
4, 19296, Note_on_c, 1, 59, 78
4, 19296, Note_on_c, 1, 55, 78
4, 19385, Note_on_c, 1, 59, 0
4, 19385, Note_on_c, 1, 55, 0
4, 19488, Note_on_c, 1, 62, 78
4, 19488, Note_on_c, 1, 59, 78
4, 19577, Note_on_c, 1, 62, 0
4, 19577, Note_on_c, 1, 59, 0
4, 19584, Note_on_c, 1, 60, 78
4, 19584, Note_on_c, 1, 57, 78
4, 19673, Note_on_c, 1, 60, 0
4, 19673, Note_on_c, 1, 57, 0
4, 19680, Note_on_c, 1, 54, 78
4, 19776, Note_on_c, 1, 54, 0
4, 19776, Note_on_c, 1, 55, 78
4, 19865, Note_on_c, 1, 55, 0
4, 19872, Note_on_c, 1, 48, 78
4, 20137, Note_on_c, 1, 48, 0
4, 20160, Note_on_c, 1, 50, 78
4, 20249, Note_on_c, 1, 50, 0
4, 20256, Note_on_c, 1, 45, 78
4, 20345, Note_on_c, 1, 45, 0
4, 20352, Note_on_c, 1, 38, 78
4, 20441, Note_on_c, 1, 38, 0
4, 20448, Note_on_c, 1, 55, 78
4, 20478, Note_on_c, 1, 55, 0
4, 20480, Note_on_c, 1, 54, 78
4, 20510, Note_on_c, 1, 54, 0
4, 20512, Note_on_c, 1, 50, 78
4, 20542, Note_on_c, 1, 50, 0
4, 20544, Note_on_c, 1, 60, 78
4, 20544, Note_on_c, 1, 54, 78
4, 20544, Note_on_c, 1, 45, 78
4, 20640, Note_on_c, 1, 60, 0
4, 20640, Note_on_c, 1, 54, 0
4, 20640, Note_on_c, 1, 45, 0
4, 20640, Note_on_c, 1, 59, 78
4, 20640, Note_on_c, 1, 55, 78
4, 20640, Note_on_c, 1, 43, 78
4, 20729, Note_on_c, 1, 59, 0
4, 20729, Note_on_c, 1, 55, 0
4, 20729, Note_on_c, 1, 43, 0
4, 21408, Note_on_c, 1, 54, 78
4, 21516, Note_on_c, 1, 54, 0
4, 21516, Note_on_c, 1, 55, 78
4, 21777, Note_on_c, 1, 55, 0
4, 21888, Note_on_c, 1, 48, 78
4, 21977, Note_on_c, 1, 48, 0
4, 22080, Note_on_c, 1, 50, 78
4, 22169, Note_on_c, 1, 50, 0
4, 22176, Note_on_c, 1, 52, 78
4, 22441, Note_on_c, 1, 52, 0
4, 22560, Note_on_c, 1, 72, 78
4, 22560, Note_on_c, 1, 66, 78
4, 22656, Note_on_c, 1, 72, 0
4, 22656, Note_on_c, 1, 66, 0
4, 22656, Note_on_c, 1, 71, 78
4, 22656, Note_on_c, 1, 67, 78
4, 22745, Note_on_c, 1, 71, 0
4, 22745, Note_on_c, 1, 67, 0
4, 22848, Note_on_c, 1, 72, 78
4, 22848, Note_on_c, 1, 66, 78
4, 22944, Note_on_c, 1, 72, 0
4, 22944, Note_on_c, 1, 66, 0
4, 22944, Note_on_c, 1, 71, 78
4, 22944, Note_on_c, 1, 67, 78
4, 23033, Note_on_c, 1, 71, 0
4, 23033, Note_on_c, 1, 67, 0
4, 23136, Note_on_c, 1, 66, 78
4, 23136, Note_on_c, 1, 60, 78
4, 23232, Note_on_c, 1, 66, 0
4, 23232, Note_on_c, 1, 60, 0
4, 23232, Note_on_c, 1, 67, 78
4, 23232, Note_on_c, 1, 59, 78
4, 23321, Note_on_c, 1, 67, 0
4, 23321, Note_on_c, 1, 59, 0
4, 23424, Note_on_c, 1, 66, 78
4, 23424, Note_on_c, 1, 60, 78
4, 23520, Note_on_c, 1, 66, 0
4, 23520, Note_on_c, 1, 60, 0
4, 23520, Note_on_c, 1, 67, 78
4, 23520, Note_on_c, 1, 59, 78
4, 23616, Note_on_c, 1, 59, 0
4, 23793, Note_on_c, 1, 67, 0
4, 23808, Note_on_c, 1, 66, 78
4, 23897, Note_on_c, 1, 66, 0
4, 23904, Note_on_c, 1, 67, 78
4, 23993, Note_on_c, 1, 67, 0
4, 24192, Note_on_c, 1, 60, 78
4, 24192, Note_on_c, 1, 48, 78
4, 24281, Note_on_c, 1, 60, 0
4, 24281, Note_on_c, 1, 48, 0
4, 24288, Note_on_c, 1, 59, 78
4, 24288, Note_on_c, 1, 50, 78
4, 24377, Note_on_c, 1, 59, 0
4, 24377, Note_on_c, 1, 50, 0
4, 24384, Note_on_c, 1, 57, 78
4, 24384, Note_on_c, 1, 50, 78
4, 24473, Note_on_c, 1, 57, 0
4, 24473, Note_on_c, 1, 50, 0
4, 24480, Note_on_c, 1, 55, 78
4, 24569, Note_on_c, 1, 55, 0
4, 24576, Note_on_c, 1, 50, 78
4, 24665, Note_on_c, 1, 50, 0
4, 24672, Note_on_c, 1, 43, 78
4, 24761, Note_on_c, 1, 43, 0
4, 24768, Note_on_c, 1, 58, 64
4, 24768, Note_on_c, 1, 55, 64
4, 24857, Note_on_c, 1, 58, 0
4, 24857, Note_on_c, 1, 55, 0
4, 24864, Note_on_c, 1, 70, 64
4, 24864, Note_on_c, 1, 67, 64
4, 24953, Note_on_c, 1, 70, 0
4, 24953, Note_on_c, 1, 67, 0
4, 24960, Note_on_c, 1, 69, 64
4, 24960, Note_on_c, 1, 66, 64
4, 25049, Note_on_c, 1, 69, 0
4, 25049, Note_on_c, 1, 66, 0
4, 25056, Note_on_c, 1, 70, 64
4, 25056, Note_on_c, 1, 67, 64
4, 25145, Note_on_c, 1, 70, 0
4, 25145, Note_on_c, 1, 67, 0
4, 25344, Note_on_c, 1, 57, 64
4, 25344, Note_on_c, 1, 54, 64
4, 25433, Note_on_c, 1, 57, 0
4, 25433, Note_on_c, 1, 54, 0
4, 25440, Note_on_c, 1, 69, 64
4, 25440, Note_on_c, 1, 66, 64
4, 25529, Note_on_c, 1, 69, 0
4, 25529, Note_on_c, 1, 66, 0
4, 25536, Note_on_c, 1, 70, 64
4, 25536, Note_on_c, 1, 67, 64
4, 25625, Note_on_c, 1, 70, 0
4, 25625, Note_on_c, 1, 67, 0
4, 25632, Note_on_c, 1, 69, 64
4, 25632, Note_on_c, 1, 66, 64
4, 25721, Note_on_c, 1, 69, 0
4, 25721, Note_on_c, 1, 66, 0
4, 26016, Note_on_c, 1, 62, 65
4, 26016, Note_on_c, 1, 55, 65
4, 26105, Note_on_c, 1, 62, 0
4, 26105, Note_on_c, 1, 55, 0
4, 26112, Note_on_c, 1, 62, 67
4, 26112, Note_on_c, 1, 54, 67
4, 26201, Note_on_c, 1, 62, 0
4, 26201, Note_on_c, 1, 54, 0
4, 26304, Note_on_c, 1, 62, 70
4, 26304, Note_on_c, 1, 54, 70
4, 26393, Note_on_c, 1, 62, 0
4, 26393, Note_on_c, 1, 54, 0
4, 26400, Note_on_c, 1, 62, 71
4, 26400, Note_on_c, 1, 55, 71
4, 26489, Note_on_c, 1, 62, 0
4, 26489, Note_on_c, 1, 55, 0
4, 26496, Note_on_c, 1, 51, 73
4, 26585, Note_on_c, 1, 51, 0
4, 26688, Note_on_c, 1, 67, 76
4, 26688, Note_on_c, 1, 63, 76
4, 26777, Note_on_c, 1, 67, 0
4, 26777, Note_on_c, 1, 63, 0
4, 26784, Note_on_c, 1, 67, 78
4, 26976, Note_on_c, 1, 67, 0
4, 26976, Note_on_c, 1, 66, 78
4, 27065, Note_on_c, 1, 66, 0
4, 27072, Note_on_c, 1, 58, 64
4, 27072, Note_on_c, 1, 55, 64
4, 27161, Note_on_c, 1, 58, 0
4, 27161, Note_on_c, 1, 55, 0
4, 27168, Note_on_c, 1, 70, 64
4, 27168, Note_on_c, 1, 67, 64
4, 27257, Note_on_c, 1, 70, 0
4, 27257, Note_on_c, 1, 67, 0
4, 27264, Note_on_c, 1, 69, 64
4, 27264, Note_on_c, 1, 66, 64
4, 27353, Note_on_c, 1, 69, 0
4, 27353, Note_on_c, 1, 66, 0
4, 27360, Note_on_c, 1, 70, 64
4, 27360, Note_on_c, 1, 67, 64
4, 27449, Note_on_c, 1, 70, 0
4, 27449, Note_on_c, 1, 67, 0
4, 27648, Note_on_c, 1, 57, 64
4, 27648, Note_on_c, 1, 54, 64
4, 27737, Note_on_c, 1, 57, 0
4, 27737, Note_on_c, 1, 54, 0
4, 27744, Note_on_c, 1, 69, 64
4, 27744, Note_on_c, 1, 66, 64
4, 27833, Note_on_c, 1, 69, 0
4, 27833, Note_on_c, 1, 66, 0
4, 27840, Note_on_c, 1, 70, 64
4, 27840, Note_on_c, 1, 67, 64
4, 27929, Note_on_c, 1, 70, 0
4, 27929, Note_on_c, 1, 67, 0
4, 27936, Note_on_c, 1, 69, 64
4, 27936, Note_on_c, 1, 66, 64
4, 28025, Note_on_c, 1, 69, 0
4, 28025, Note_on_c, 1, 66, 0
4, 28320, Note_on_c, 1, 62, 65
4, 28320, Note_on_c, 1, 55, 65
4, 28409, Note_on_c, 1, 62, 0
4, 28409, Note_on_c, 1, 55, 0
4, 28416, Note_on_c, 1, 62, 67
4, 28416, Note_on_c, 1, 54, 67
4, 28505, Note_on_c, 1, 62, 0
4, 28505, Note_on_c, 1, 54, 0
4, 28608, Note_on_c, 1, 62, 70
4, 28608, Note_on_c, 1, 54, 70
4, 28697, Note_on_c, 1, 62, 0
4, 28697, Note_on_c, 1, 54, 0
4, 28704, Note_on_c, 1, 62, 71
4, 28704, Note_on_c, 1, 55, 71
4, 28793, Note_on_c, 1, 62, 0
4, 28793, Note_on_c, 1, 55, 0
4, 28800, Note_on_c, 1, 51, 73
4, 28889, Note_on_c, 1, 51, 0
4, 28992, Note_on_c, 1, 67, 76
4, 28992, Note_on_c, 1, 63, 76
4, 29081, Note_on_c, 1, 67, 0
4, 29081, Note_on_c, 1, 63, 0
4, 29088, Note_on_c, 1, 67, 78
4, 29280, Note_on_c, 1, 67, 0
4, 29280, Note_on_c, 1, 66, 78
4, 29369, Note_on_c, 1, 66, 0
4, 29376, Note_on_c, 1, 46, 78
4, 29421, Note_on_c, 1, 46, 0
4, 29424, Note_on_c, 1, 58, 78
4, 29469, Note_on_c, 1, 58, 0
4, 29472, Note_on_c, 1, 46, 78
4, 29517, Note_on_c, 1, 46, 0
4, 29520, Note_on_c, 1, 58, 78
4, 29565, Note_on_c, 1, 58, 0
4, 29568, Note_on_c, 1, 46, 78
4, 29613, Note_on_c, 1, 46, 0
4, 29616, Note_on_c, 1, 58, 78
4, 29661, Note_on_c, 1, 58, 0
4, 29664, Note_on_c, 1, 46, 78
4, 29709, Note_on_c, 1, 46, 0
4, 29712, Note_on_c, 1, 58, 78
4, 29757, Note_on_c, 1, 58, 0
4, 29760, Note_on_c, 1, 46, 78
4, 29805, Note_on_c, 1, 46, 0
4, 29808, Note_on_c, 1, 58, 78
4, 29853, Note_on_c, 1, 58, 0
4, 29856, Note_on_c, 1, 46, 78
4, 29901, Note_on_c, 1, 46, 0
4, 29904, Note_on_c, 1, 58, 78
4, 29949, Note_on_c, 1, 58, 0
4, 29952, Note_on_c, 1, 46, 78
4, 29997, Note_on_c, 1, 46, 0
4, 30000, Note_on_c, 1, 58, 78
4, 30045, Note_on_c, 1, 58, 0
4, 30048, Note_on_c, 1, 46, 78
4, 30093, Note_on_c, 1, 46, 0
4, 30096, Note_on_c, 1, 58, 78
4, 30141, Note_on_c, 1, 58, 0
4, 30144, Note_on_c, 1, 46, 78
4, 30189, Note_on_c, 1, 46, 0
4, 30192, Note_on_c, 1, 58, 78
4, 30237, Note_on_c, 1, 58, 0
4, 30240, Note_on_c, 1, 46, 78
4, 30285, Note_on_c, 1, 46, 0
4, 30288, Note_on_c, 1, 58, 78
4, 30333, Note_on_c, 1, 58, 0
4, 30336, Note_on_c, 1, 46, 78
4, 30381, Note_on_c, 1, 46, 0
4, 30384, Note_on_c, 1, 58, 78
4, 30432, Note_on_c, 1, 50, 78
4, 30521, Note_on_c, 1, 58, 0
4, 30521, Note_on_c, 1, 50, 0
4, 30528, Note_on_c, 1, 58, 78
4, 30793, Note_on_c, 1, 58, 0
4, 30912, Note_on_c, 1, 65, 78
4, 31089, Note_on_c, 1, 65, 0
4, 31104, Note_on_c, 1, 63, 78
4, 31193, Note_on_c, 1, 63, 0
4, 31200, Note_on_c, 1, 62, 78
4, 31289, Note_on_c, 1, 62, 0
4, 31296, Note_on_c, 1, 60, 78
4, 31385, Note_on_c, 1, 60, 0
4, 31392, Note_on_c, 1, 58, 78
4, 31481, Note_on_c, 1, 58, 0
4, 31488, Note_on_c, 1, 62, 78
4, 31533, Note_on_c, 1, 62, 0
4, 31536, Note_on_c, 1, 60, 74
4, 31581, Note_on_c, 1, 60, 0
4, 31584, Note_on_c, 1, 58, 71
4, 31629, Note_on_c, 1, 58, 0
4, 31632, Note_on_c, 1, 57, 67
4, 31677, Note_on_c, 1, 57, 0
4, 31680, Note_on_c, 1, 58, 64
4, 31680, Note_on_c, 1, 55, 64
4, 31769, Note_on_c, 1, 58, 0
4, 31769, Note_on_c, 1, 55, 0
4, 32256, Note_on_c, 1, 57, 64
4, 32256, Note_on_c, 1, 54, 64
4, 32345, Note_on_c, 1, 57, 0
4, 32345, Note_on_c, 1, 54, 0
4, 32352, Note_on_c, 1, 69, 64
4, 32352, Note_on_c, 1, 66, 64
4, 32441, Note_on_c, 1, 69, 0
4, 32441, Note_on_c, 1, 66, 0
4, 32448, Note_on_c, 1, 70, 64
4, 32448, Note_on_c, 1, 67, 64
4, 32537, Note_on_c, 1, 70, 0
4, 32537, Note_on_c, 1, 67, 0
4, 32544, Note_on_c, 1, 69, 64
4, 32544, Note_on_c, 1, 66, 64
4, 32633, Note_on_c, 1, 69, 0
4, 32633, Note_on_c, 1, 66, 0
4, 32928, Note_on_c, 1, 62, 64
4, 32928, Note_on_c, 1, 55, 64
4, 33017, Note_on_c, 1, 62, 0
4, 33017, Note_on_c, 1, 55, 0
4, 33024, Note_on_c, 1, 62, 64
4, 33024, Note_on_c, 1, 54, 64
4, 33113, Note_on_c, 1, 62, 0
4, 33113, Note_on_c, 1, 54, 0
4, 33216, Note_on_c, 1, 62, 64
4, 33216, Note_on_c, 1, 54, 64
4, 33305, Note_on_c, 1, 62, 0
4, 33305, Note_on_c, 1, 54, 0
4, 33312, Note_on_c, 1, 62, 64
4, 33312, Note_on_c, 1, 55, 64
4, 33401, Note_on_c, 1, 62, 0
4, 33401, Note_on_c, 1, 55, 0
4, 33408, Note_on_c, 1, 60, 64
4, 33408, Note_on_c, 1, 48, 64
4, 33497, Note_on_c, 1, 60, 0
4, 33497, Note_on_c, 1, 48, 0
4, 33504, Note_on_c, 1, 58, 64
4, 33504, Note_on_c, 1, 50, 64
4, 33593, Note_on_c, 1, 58, 0
4, 33593, Note_on_c, 1, 50, 0
4, 33600, Note_on_c, 1, 57, 64
4, 33600, Note_on_c, 1, 50, 64
4, 33689, Note_on_c, 1, 57, 0
4, 33689, Note_on_c, 1, 50, 0
4, 33696, Note_on_c, 1, 55, 64
4, 33785, Note_on_c, 1, 55, 0
4, 33792, Note_on_c, 1, 50, 64
4, 33881, Note_on_c, 1, 50, 0
4, 33888, Note_on_c, 1, 43, 64
4, 33977, Note_on_c, 1, 43, 0
4, 33984, Note_on_c, 1, 46, 78
4, 34029, Note_on_c, 1, 46, 0
4, 34032, Note_on_c, 1, 58, 78
4, 34077, Note_on_c, 1, 58, 0
4, 34080, Note_on_c, 1, 46, 78
4, 34125, Note_on_c, 1, 46, 0
4, 34128, Note_on_c, 1, 58, 78
4, 34173, Note_on_c, 1, 58, 0
4, 34176, Note_on_c, 1, 46, 78
4, 34221, Note_on_c, 1, 46, 0
4, 34224, Note_on_c, 1, 58, 78
4, 34269, Note_on_c, 1, 58, 0
4, 34272, Note_on_c, 1, 46, 78
4, 34317, Note_on_c, 1, 46, 0
4, 34320, Note_on_c, 1, 58, 78
4, 34365, Note_on_c, 1, 58, 0
4, 34368, Note_on_c, 1, 46, 78
4, 34413, Note_on_c, 1, 46, 0
4, 34416, Note_on_c, 1, 58, 78
4, 34461, Note_on_c, 1, 58, 0
4, 34464, Note_on_c, 1, 46, 78
4, 34509, Note_on_c, 1, 46, 0
4, 34512, Note_on_c, 1, 58, 78
4, 34557, Note_on_c, 1, 58, 0
4, 34560, Note_on_c, 1, 46, 78
4, 34605, Note_on_c, 1, 46, 0
4, 34608, Note_on_c, 1, 58, 78
4, 34653, Note_on_c, 1, 58, 0
4, 34656, Note_on_c, 1, 46, 78
4, 34701, Note_on_c, 1, 46, 0
4, 34704, Note_on_c, 1, 58, 78
4, 34749, Note_on_c, 1, 58, 0
4, 34752, Note_on_c, 1, 46, 78
4, 34797, Note_on_c, 1, 46, 0
4, 34800, Note_on_c, 1, 58, 78
4, 34845, Note_on_c, 1, 58, 0
4, 34848, Note_on_c, 1, 46, 78
4, 34893, Note_on_c, 1, 46, 0
4, 34896, Note_on_c, 1, 58, 78
4, 34941, Note_on_c, 1, 58, 0
4, 34944, Note_on_c, 1, 46, 78
4, 34989, Note_on_c, 1, 46, 0
4, 34992, Note_on_c, 1, 58, 78
4, 35040, Note_on_c, 1, 50, 78
4, 35129, Note_on_c, 1, 58, 0
4, 35129, Note_on_c, 1, 50, 0
4, 35136, Note_on_c, 1, 58, 78
4, 35401, Note_on_c, 1, 58, 0
4, 35520, Note_on_c, 1, 65, 78
4, 35697, Note_on_c, 1, 65, 0
4, 35712, Note_on_c, 1, 63, 78
4, 35801, Note_on_c, 1, 63, 0
4, 35808, Note_on_c, 1, 62, 78
4, 35897, Note_on_c, 1, 62, 0
4, 35904, Note_on_c, 1, 60, 78
4, 35993, Note_on_c, 1, 60, 0
4, 36000, Note_on_c, 1, 58, 78
4, 36089, Note_on_c, 1, 58, 0
4, 36096, Note_on_c, 1, 62, 78
4, 36141, Note_on_c, 1, 62, 0
4, 36144, Note_on_c, 1, 60, 74
4, 36189, Note_on_c, 1, 60, 0
4, 36192, Note_on_c, 1, 58, 71
4, 36237, Note_on_c, 1, 58, 0
4, 36240, Note_on_c, 1, 57, 67
4, 36285, Note_on_c, 1, 57, 0
4, 36288, Note_on_c, 1, 58, 64
4, 36288, Note_on_c, 1, 55, 64
4, 36377, Note_on_c, 1, 58, 0
4, 36377, Note_on_c, 1, 55, 0
4, 36864, Note_on_c, 1, 57, 64
4, 36864, Note_on_c, 1, 54, 64
4, 36953, Note_on_c, 1, 57, 0
4, 36953, Note_on_c, 1, 54, 0
4, 36960, Note_on_c, 1, 69, 64
4, 36960, Note_on_c, 1, 66, 64
4, 37049, Note_on_c, 1, 69, 0
4, 37049, Note_on_c, 1, 66, 0
4, 37056, Note_on_c, 1, 70, 64
4, 37056, Note_on_c, 1, 67, 64
4, 37145, Note_on_c, 1, 70, 0
4, 37145, Note_on_c, 1, 67, 0
4, 37152, Note_on_c, 1, 69, 64
4, 37152, Note_on_c, 1, 66, 64
4, 37241, Note_on_c, 1, 69, 0
4, 37241, Note_on_c, 1, 66, 0
4, 37536, Note_on_c, 1, 62, 64
4, 37536, Note_on_c, 1, 55, 64
4, 37625, Note_on_c, 1, 62, 0
4, 37625, Note_on_c, 1, 55, 0
4, 37632, Note_on_c, 1, 62, 64
4, 37632, Note_on_c, 1, 54, 64
4, 37721, Note_on_c, 1, 62, 0
4, 37721, Note_on_c, 1, 54, 0
4, 37824, Note_on_c, 1, 62, 64
4, 37824, Note_on_c, 1, 54, 64
4, 37913, Note_on_c, 1, 62, 0
4, 37913, Note_on_c, 1, 54, 0
4, 37920, Note_on_c, 1, 62, 64
4, 37920, Note_on_c, 1, 55, 64
4, 38009, Note_on_c, 1, 62, 0
4, 38009, Note_on_c, 1, 55, 0
4, 38016, Note_on_c, 1, 60, 64
4, 38016, Note_on_c, 1, 48, 64
4, 38105, Note_on_c, 1, 60, 0
4, 38105, Note_on_c, 1, 48, 0
4, 38112, Note_on_c, 1, 58, 64
4, 38112, Note_on_c, 1, 50, 64
4, 38201, Note_on_c, 1, 58, 0
4, 38201, Note_on_c, 1, 50, 0
4, 38208, Note_on_c, 1, 57, 64
4, 38208, Note_on_c, 1, 50, 64
4, 38297, Note_on_c, 1, 57, 0
4, 38297, Note_on_c, 1, 50, 0
4, 38304, Note_on_c, 1, 55, 64
4, 38393, Note_on_c, 1, 55, 0
4, 38400, Note_on_c, 1, 50, 64
4, 38489, Note_on_c, 1, 50, 0
4, 38496, Note_on_c, 1, 43, 64
4, 38585, Note_on_c, 1, 43, 0
4, 38592, Note_on_c, 1, 59, 64
4, 38592, Note_on_c, 1, 55, 64
4, 38681, Note_on_c, 1, 59, 0
4, 38681, Note_on_c, 1, 55, 0
4, 38784, Note_on_c, 1, 62, 64
4, 38784, Note_on_c, 1, 59, 64
4, 38873, Note_on_c, 1, 62, 0
4, 38873, Note_on_c, 1, 59, 0
4, 38880, Note_on_c, 1, 60, 64
4, 38880, Note_on_c, 1, 57, 64
4, 38969, Note_on_c, 1, 60, 0
4, 38969, Note_on_c, 1, 57, 0
4, 38976, Note_on_c, 1, 54, 64
4, 39072, Note_on_c, 1, 54, 0
4, 39072, Note_on_c, 1, 55, 64
4, 39161, Note_on_c, 1, 55, 0
4, 39168, Note_on_c, 1, 48, 64
4, 39433, Note_on_c, 1, 48, 0
4, 39456, Note_on_c, 1, 50, 64
4, 39545, Note_on_c, 1, 50, 0
4, 39552, Note_on_c, 1, 62, 64
4, 39582, Note_on_c, 1, 62, 0
4, 39584, Note_on_c, 1, 64, 64
4, 39614, Note_on_c, 1, 64, 0
4, 39616, Note_on_c, 1, 62, 64
4, 39646, Note_on_c, 1, 62, 0
4, 39648, Note_on_c, 1, 60, 64
4, 39678, Note_on_c, 1, 60, 0
4, 39680, Note_on_c, 1, 59, 64
4, 39710, Note_on_c, 1, 59, 0
4, 39712, Note_on_c, 1, 57, 64
4, 39742, Note_on_c, 1, 57, 0
4, 39744, Note_on_c, 1, 59, 64
4, 39744, Note_on_c, 1, 55, 64
4, 39833, Note_on_c, 1, 59, 0
4, 39833, Note_on_c, 1, 55, 0
4, 39936, Note_on_c, 1, 62, 64
4, 39936, Note_on_c, 1, 59, 64
4, 40025, Note_on_c, 1, 62, 0
4, 40025, Note_on_c, 1, 59, 0
4, 40032, Note_on_c, 1, 60, 64
4, 40032, Note_on_c, 1, 57, 64
4, 40121, Note_on_c, 1, 60, 0
4, 40121, Note_on_c, 1, 57, 0
4, 40128, Note_on_c, 1, 54, 64
4, 40224, Note_on_c, 1, 54, 0
4, 40224, Note_on_c, 1, 55, 64
4, 40313, Note_on_c, 1, 55, 0
4, 40416, Note_on_c, 1, 64, 64
4, 40512, Note_on_c, 1, 64, 0
4, 40512, Note_on_c, 1, 62, 64
4, 40601, Note_on_c, 1, 62, 0
4, 40608, Note_on_c, 1, 67, 64
4, 40785, Note_on_c, 1, 67, 0
4, 40992, Note_on_c, 1, 67, 64
4, 40992, Note_on_c, 1, 61, 64
4, 41088, Note_on_c, 1, 67, 0
4, 41088, Note_on_c, 1, 61, 0
4, 41088, Note_on_c, 1, 66, 64
4, 41088, Note_on_c, 1, 62, 64
4, 41177, Note_on_c, 1, 66, 0
4, 41177, Note_on_c, 1, 62, 0
4, 41280, Note_on_c, 1, 67, 64
4, 41280, Note_on_c, 1, 61, 64
4, 41376, Note_on_c, 1, 67, 0
4, 41376, Note_on_c, 1, 61, 0
4, 41376, Note_on_c, 1, 66, 64
4, 41376, Note_on_c, 1, 62, 64
4, 41465, Note_on_c, 1, 66, 0
4, 41465, Note_on_c, 1, 62, 0
4, 41568, Note_on_c, 1, 61, 64
4, 41568, Note_on_c, 1, 55, 64
4, 41664, Note_on_c, 1, 61, 0
4, 41664, Note_on_c, 1, 55, 0
4, 41664, Note_on_c, 1, 62, 64
4, 41664, Note_on_c, 1, 54, 64
4, 41753, Note_on_c, 1, 62, 0
4, 41753, Note_on_c, 1, 54, 0
4, 41856, Note_on_c, 1, 61, 64
4, 41856, Note_on_c, 1, 55, 64
4, 41952, Note_on_c, 1, 61, 0
4, 41952, Note_on_c, 1, 55, 0
4, 41952, Note_on_c, 1, 62, 64
4, 41952, Note_on_c, 1, 54, 64
4, 42041, Note_on_c, 1, 62, 0
4, 42041, Note_on_c, 1, 54, 0
4, 42048, Note_on_c, 1, 55, 64
4, 42137, Note_on_c, 1, 55, 0
4, 42240, Note_on_c, 1, 67, 64
4, 42240, Note_on_c, 1, 57, 64
4, 42329, Note_on_c, 1, 67, 0
4, 42329, Note_on_c, 1, 57, 0
4, 42336, Note_on_c, 1, 67, 64
4, 42528, Note_on_c, 1, 67, 0
4, 42528, Note_on_c, 1, 66, 64
4, 42617, Note_on_c, 1, 66, 0
4, 42624, Note_on_c, 1, 59, 64
4, 42624, Note_on_c, 1, 55, 64
4, 42713, Note_on_c, 1, 59, 0
4, 42713, Note_on_c, 1, 55, 0
4, 42816, Note_on_c, 1, 62, 64
4, 42816, Note_on_c, 1, 59, 64
4, 42905, Note_on_c, 1, 62, 0
4, 42905, Note_on_c, 1, 59, 0
4, 42912, Note_on_c, 1, 60, 64
4, 42912, Note_on_c, 1, 57, 64
4, 43001, Note_on_c, 1, 60, 0
4, 43001, Note_on_c, 1, 57, 0
4, 43008, Note_on_c, 1, 54, 64
4, 43104, Note_on_c, 1, 54, 0
4, 43104, Note_on_c, 1, 55, 64
4, 43193, Note_on_c, 1, 55, 0
4, 43200, Note_on_c, 1, 48, 64
4, 43465, Note_on_c, 1, 48, 0
4, 43488, Note_on_c, 1, 50, 64
4, 43577, Note_on_c, 1, 50, 0
4, 43584, Note_on_c, 1, 62, 64
4, 43614, Note_on_c, 1, 62, 0
4, 43616, Note_on_c, 1, 64, 64
4, 43646, Note_on_c, 1, 64, 0
4, 43648, Note_on_c, 1, 62, 64
4, 43678, Note_on_c, 1, 62, 0
4, 43680, Note_on_c, 1, 60, 64
4, 43710, Note_on_c, 1, 60, 0
4, 43712, Note_on_c, 1, 59, 64
4, 43742, Note_on_c, 1, 59, 0
4, 43744, Note_on_c, 1, 57, 64
4, 43774, Note_on_c, 1, 57, 0
4, 43776, Note_on_c, 1, 59, 64
4, 43776, Note_on_c, 1, 55, 64
4, 43865, Note_on_c, 1, 59, 0
4, 43865, Note_on_c, 1, 55, 0
4, 43968, Note_on_c, 1, 62, 64
4, 43968, Note_on_c, 1, 59, 64
4, 44057, Note_on_c, 1, 62, 0
4, 44057, Note_on_c, 1, 59, 0
4, 44064, Note_on_c, 1, 60, 64
4, 44064, Note_on_c, 1, 57, 64
4, 44153, Note_on_c, 1, 60, 0
4, 44153, Note_on_c, 1, 57, 0
4, 44160, Note_on_c, 1, 54, 64
4, 44256, Note_on_c, 1, 54, 0
4, 44256, Note_on_c, 1, 55, 64
4, 44345, Note_on_c, 1, 55, 0
4, 44448, Note_on_c, 1, 64, 64
4, 44544, Note_on_c, 1, 64, 0
4, 44544, Note_on_c, 1, 62, 64
4, 44633, Note_on_c, 1, 62, 0
4, 44640, Note_on_c, 1, 67, 64
4, 44817, Note_on_c, 1, 67, 0
4, 45024, Note_on_c, 1, 67, 64
4, 45024, Note_on_c, 1, 61, 64
4, 45120, Note_on_c, 1, 67, 0
4, 45120, Note_on_c, 1, 61, 0
4, 45120, Note_on_c, 1, 66, 64
4, 45120, Note_on_c, 1, 62, 64
4, 45209, Note_on_c, 1, 66, 0
4, 45209, Note_on_c, 1, 62, 0
4, 45312, Note_on_c, 1, 67, 64
4, 45312, Note_on_c, 1, 61, 64
4, 45408, Note_on_c, 1, 67, 0
4, 45408, Note_on_c, 1, 61, 0
4, 45408, Note_on_c, 1, 66, 64
4, 45408, Note_on_c, 1, 62, 64
4, 45497, Note_on_c, 1, 66, 0
4, 45497, Note_on_c, 1, 62, 0
4, 45600, Note_on_c, 1, 61, 64
4, 45600, Note_on_c, 1, 55, 64
4, 45696, Note_on_c, 1, 61, 0
4, 45696, Note_on_c, 1, 55, 0
4, 45696, Note_on_c, 1, 62, 64
4, 45696, Note_on_c, 1, 54, 64
4, 45785, Note_on_c, 1, 62, 0
4, 45785, Note_on_c, 1, 54, 0
4, 45888, Note_on_c, 1, 61, 64
4, 45888, Note_on_c, 1, 55, 64
4, 45984, Note_on_c, 1, 61, 0
4, 45984, Note_on_c, 1, 55, 0
4, 45984, Note_on_c, 1, 62, 64
4, 45984, Note_on_c, 1, 54, 64
4, 46073, Note_on_c, 1, 62, 0
4, 46073, Note_on_c, 1, 54, 0
4, 46080, Note_on_c, 1, 55, 64
4, 46169, Note_on_c, 1, 55, 0
4, 46272, Note_on_c, 1, 67, 64
4, 46272, Note_on_c, 1, 57, 64
4, 46361, Note_on_c, 1, 67, 0
4, 46361, Note_on_c, 1, 57, 0
4, 46368, Note_on_c, 1, 67, 64
4, 46560, Note_on_c, 1, 67, 0
4, 46560, Note_on_c, 1, 66, 64
4, 46649, Note_on_c, 1, 66, 0
4, 46656, Note_on_c, 1, 62, 64
4, 46686, Note_on_c, 1, 62, 0
4, 46688, Note_on_c, 1, 66, 64
4, 46718, Note_on_c, 1, 66, 0
4, 46720, Note_on_c, 1, 69, 64
4, 46750, Note_on_c, 1, 69, 0
4, 46752, Note_on_c, 1, 62, 64
4, 46782, Note_on_c, 1, 62, 0
4, 46784, Note_on_c, 1, 66, 64
4, 46814, Note_on_c, 1, 66, 0
4, 46816, Note_on_c, 1, 69, 64
4, 46846, Note_on_c, 1, 69, 0
4, 46848, Note_on_c, 1, 62, 64
4, 46878, Note_on_c, 1, 62, 0
4, 46880, Note_on_c, 1, 66, 64
4, 46910, Note_on_c, 1, 66, 0
4, 46912, Note_on_c, 1, 69, 64
4, 46942, Note_on_c, 1, 69, 0
4, 46944, Note_on_c, 1, 64, 64
4, 46974, Note_on_c, 1, 64, 0
4, 46976, Note_on_c, 1, 67, 64
4, 47006, Note_on_c, 1, 67, 0
4, 47008, Note_on_c, 1, 69, 64
4, 47038, Note_on_c, 1, 69, 0
4, 47040, Note_on_c, 1, 64, 64
4, 47070, Note_on_c, 1, 64, 0
4, 47072, Note_on_c, 1, 67, 64
4, 47102, Note_on_c, 1, 67, 0
4, 47104, Note_on_c, 1, 69, 64
4, 47134, Note_on_c, 1, 69, 0
4, 47136, Note_on_c, 1, 64, 64
4, 47166, Note_on_c, 1, 64, 0
4, 47168, Note_on_c, 1, 67, 64
4, 47198, Note_on_c, 1, 67, 0
4, 47200, Note_on_c, 1, 69, 64
4, 47230, Note_on_c, 1, 69, 0
4, 47232, Note_on_c, 1, 66, 78
4, 47262, Note_on_c, 1, 66, 0
4, 47264, Note_on_c, 1, 69, 78
4, 47294, Note_on_c, 1, 69, 0
4, 47296, Note_on_c, 1, 72, 78
4, 47326, Note_on_c, 1, 72, 0
4, 47520, Note_on_c, 1, 55, 64
4, 47550, Note_on_c, 1, 55, 0
4, 47552, Note_on_c, 1, 62, 64
4, 47582, Note_on_c, 1, 62, 0
4, 47584, Note_on_c, 1, 67, 64
4, 47614, Note_on_c, 1, 67, 0
4, 47616, Note_on_c, 1, 55, 64
4, 47646, Note_on_c, 1, 55, 0
4, 47648, Note_on_c, 1, 62, 64
4, 47678, Note_on_c, 1, 62, 0
4, 47680, Note_on_c, 1, 67, 64
4, 47710, Note_on_c, 1, 67, 0
4, 47712, Note_on_c, 1, 59, 64
4, 47742, Note_on_c, 1, 59, 0
4, 47744, Note_on_c, 1, 62, 64
4, 47774, Note_on_c, 1, 62, 0
4, 47776, Note_on_c, 1, 67, 64
4, 47806, Note_on_c, 1, 67, 0
4, 47808, Note_on_c, 1, 60, 64
4, 47838, Note_on_c, 1, 60, 0
4, 47840, Note_on_c, 1, 64, 64
4, 47870, Note_on_c, 1, 64, 0
4, 47872, Note_on_c, 1, 67, 64
4, 47902, Note_on_c, 1, 67, 0
4, 47904, Note_on_c, 1, 60, 64
4, 47934, Note_on_c, 1, 60, 0
4, 47936, Note_on_c, 1, 64, 64
4, 47966, Note_on_c, 1, 64, 0
4, 47968, Note_on_c, 1, 67, 64
4, 47998, Note_on_c, 1, 67, 0
4, 48000, Note_on_c, 1, 60, 64
4, 48030, Note_on_c, 1, 60, 0
4, 48032, Note_on_c, 1, 64, 64
4, 48062, Note_on_c, 1, 64, 0
4, 48064, Note_on_c, 1, 67, 64
4, 48094, Note_on_c, 1, 67, 0
4, 48096, Note_on_c, 1, 59, 64
4, 48126, Note_on_c, 1, 59, 0
4, 48128, Note_on_c, 1, 62, 64
4, 48158, Note_on_c, 1, 62, 0
4, 48160, Note_on_c, 1, 67, 64
4, 48190, Note_on_c, 1, 67, 0
4, 48192, Note_on_c, 1, 59, 64
4, 48222, Note_on_c, 1, 59, 0
4, 48224, Note_on_c, 1, 62, 64
4, 48254, Note_on_c, 1, 62, 0
4, 48256, Note_on_c, 1, 67, 64
4, 48286, Note_on_c, 1, 67, 0
4, 48288, Note_on_c, 1, 59, 64
4, 48318, Note_on_c, 1, 59, 0
4, 48320, Note_on_c, 1, 62, 64
4, 48350, Note_on_c, 1, 62, 0
4, 48352, Note_on_c, 1, 67, 64
4, 48382, Note_on_c, 1, 67, 0
4, 48384, Note_on_c, 1, 60, 64
4, 48414, Note_on_c, 1, 60, 0
4, 48416, Note_on_c, 1, 64, 64
4, 48446, Note_on_c, 1, 64, 0
4, 48448, Note_on_c, 1, 67, 64
4, 48478, Note_on_c, 1, 67, 0
4, 48480, Note_on_c, 1, 60, 64
4, 48510, Note_on_c, 1, 60, 0
4, 48512, Note_on_c, 1, 64, 64
4, 48542, Note_on_c, 1, 64, 0
4, 48544, Note_on_c, 1, 67, 64
4, 48574, Note_on_c, 1, 67, 0
4, 48576, Note_on_c, 1, 60, 64
4, 48606, Note_on_c, 1, 60, 0
4, 48608, Note_on_c, 1, 64, 64
4, 48638, Note_on_c, 1, 64, 0
4, 48640, Note_on_c, 1, 67, 64
4, 48670, Note_on_c, 1, 67, 0
4, 48672, Note_on_c, 1, 59, 64
4, 48702, Note_on_c, 1, 59, 0
4, 48704, Note_on_c, 1, 62, 64
4, 48734, Note_on_c, 1, 62, 0
4, 48736, Note_on_c, 1, 67, 64
4, 48766, Note_on_c, 1, 67, 0
4, 48768, Note_on_c, 1, 59, 64
4, 48798, Note_on_c, 1, 59, 0
4, 48800, Note_on_c, 1, 62, 64
4, 48830, Note_on_c, 1, 62, 0
4, 48832, Note_on_c, 1, 67, 64
4, 48862, Note_on_c, 1, 67, 0
4, 48864, Note_on_c, 1, 59, 64
4, 48894, Note_on_c, 1, 59, 0
4, 48896, Note_on_c, 1, 62, 64
4, 48926, Note_on_c, 1, 62, 0
4, 48928, Note_on_c, 1, 67, 64
4, 48958, Note_on_c, 1, 67, 0
4, 48960, Note_on_c, 1, 60, 64
4, 49049, Note_on_c, 1, 60, 0
4, 49248, Note_on_c, 1, 50, 64
4, 49337, Note_on_c, 1, 50, 0
4, 49344, Note_on_c, 1, 62, 64
4, 49374, Note_on_c, 1, 62, 0
4, 49376, Note_on_c, 1, 64, 66
4, 49406, Note_on_c, 1, 64, 0
4, 49408, Note_on_c, 1, 62, 69
4, 49438, Note_on_c, 1, 62, 0
4, 49440, Note_on_c, 1, 60, 72
4, 49470, Note_on_c, 1, 60, 0
4, 49472, Note_on_c, 1, 59, 74
4, 49502, Note_on_c, 1, 59, 0
4, 49504, Note_on_c, 1, 57, 78
4, 49534, Note_on_c, 1, 57, 0
4, 49536, Note_on_c, 1, 59, 78
4, 49536, Note_on_c, 1, 55, 78
4, 49625, Note_on_c, 1, 59, 0
4, 49625, Note_on_c, 1, 55, 0
4, 49728, Note_on_c, 1, 62, 78
4, 49728, Note_on_c, 1, 59, 78
4, 49817, Note_on_c, 1, 62, 0
4, 49817, Note_on_c, 1, 59, 0
4, 49824, Note_on_c, 1, 60, 78
4, 49824, Note_on_c, 1, 57, 78
4, 49913, Note_on_c, 1, 60, 0
4, 49913, Note_on_c, 1, 57, 0
4, 49920, Note_on_c, 1, 54, 78
4, 50016, Note_on_c, 1, 54, 0
4, 50016, Note_on_c, 1, 55, 78
4, 50105, Note_on_c, 1, 55, 0
4, 50112, Note_on_c, 1, 48, 78
4, 50377, Note_on_c, 1, 48, 0
4, 50400, Note_on_c, 1, 50, 78
4, 50489, Note_on_c, 1, 50, 0
4, 50496, Note_on_c, 1, 45, 78
4, 50585, Note_on_c, 1, 45, 0
4, 50592, Note_on_c, 1, 38, 78
4, 50681, Note_on_c, 1, 38, 0
4, 50688, Note_on_c, 1, 55, 78
4, 50718, Note_on_c, 1, 55, 0
4, 50720, Note_on_c, 1, 54, 78
4, 50750, Note_on_c, 1, 54, 0
4, 50752, Note_on_c, 1, 50, 78
4, 50782, Note_on_c, 1, 50, 0
4, 50784, Note_on_c, 1, 60, 78
4, 50784, Note_on_c, 1, 54, 78
4, 50784, Note_on_c, 1, 45, 78
4, 50880, Note_on_c, 1, 60, 0
4, 50880, Note_on_c, 1, 54, 0
4, 50880, Note_on_c, 1, 45, 0
4, 50880, Note_on_c, 1, 59, 78
4, 50880, Note_on_c, 1, 55, 78
4, 50880, Note_on_c, 1, 43, 78
4, 50969, Note_on_c, 1, 59, 0
4, 50969, Note_on_c, 1, 55, 0
4, 50969, Note_on_c, 1, 43, 0
4, 51648, Note_on_c, 1, 54, 78
4, 51756, Note_on_c, 1, 54, 0
4, 51756, Note_on_c, 1, 55, 78
4, 52017, Note_on_c, 1, 55, 0
4, 52128, Note_on_c, 1, 48, 78
4, 52217, Note_on_c, 1, 48, 0
4, 52320, Note_on_c, 1, 50, 78
4, 52409, Note_on_c, 1, 50, 0
4, 52416, Note_on_c, 1, 52, 78
4, 52681, Note_on_c, 1, 52, 0
4, 52800, Note_on_c, 1, 72, 78
4, 52800, Note_on_c, 1, 66, 78
4, 52896, Note_on_c, 1, 72, 0
4, 52896, Note_on_c, 1, 66, 0
4, 52896, Note_on_c, 1, 71, 78
4, 52896, Note_on_c, 1, 67, 78
4, 52985, Note_on_c, 1, 71, 0
4, 52985, Note_on_c, 1, 67, 0
4, 53088, Note_on_c, 1, 72, 78
4, 53088, Note_on_c, 1, 66, 78
4, 53184, Note_on_c, 1, 72, 0
4, 53184, Note_on_c, 1, 66, 0
4, 53184, Note_on_c, 1, 71, 78
4, 53184, Note_on_c, 1, 67, 78
4, 53273, Note_on_c, 1, 71, 0
4, 53273, Note_on_c, 1, 67, 0
4, 53376, Note_on_c, 1, 66, 78
4, 53376, Note_on_c, 1, 60, 78
4, 53472, Note_on_c, 1, 66, 0
4, 53472, Note_on_c, 1, 60, 0
4, 53472, Note_on_c, 1, 67, 78
4, 53472, Note_on_c, 1, 59, 78
4, 53561, Note_on_c, 1, 67, 0
4, 53561, Note_on_c, 1, 59, 0
4, 53664, Note_on_c, 1, 66, 78
4, 53664, Note_on_c, 1, 60, 78
4, 53760, Note_on_c, 1, 66, 0
4, 53760, Note_on_c, 1, 60, 0
4, 53760, Note_on_c, 1, 67, 78
4, 53760, Note_on_c, 1, 59, 78
4, 53856, Note_on_c, 1, 59, 0
4, 54033, Note_on_c, 1, 67, 0
4, 54048, Note_on_c, 1, 66, 78
4, 54137, Note_on_c, 1, 66, 0
4, 54144, Note_on_c, 1, 67, 78
4, 54233, Note_on_c, 1, 67, 0
4, 54432, Note_on_c, 1, 60, 78
4, 54432, Note_on_c, 1, 48, 78
4, 54521, Note_on_c, 1, 60, 0
4, 54521, Note_on_c, 1, 48, 0
4, 54528, Note_on_c, 1, 59, 78
4, 54528, Note_on_c, 1, 50, 78
4, 54617, Note_on_c, 1, 59, 0
4, 54617, Note_on_c, 1, 50, 0
4, 54624, Note_on_c, 1, 57, 78
4, 54624, Note_on_c, 1, 50, 78
4, 54713, Note_on_c, 1, 57, 0
4, 54713, Note_on_c, 1, 50, 0
4, 54720, Note_on_c, 1, 55, 78
4, 54809, Note_on_c, 1, 55, 0
4, 54816, Note_on_c, 1, 50, 78
4, 54905, Note_on_c, 1, 50, 0
4, 54912, Note_on_c, 1, 43, 78
4, 55001, Note_on_c, 1, 43, 0
4, 55008, Note_on_c, 1, 62, 64
4, 55038, Note_on_c, 1, 62, 0
4, 55040, Note_on_c, 1, 66, 64
4, 55070, Note_on_c, 1, 66, 0
4, 55072, Note_on_c, 1, 69, 64
4, 55102, Note_on_c, 1, 69, 0
4, 55104, Note_on_c, 1, 62, 64
4, 55134, Note_on_c, 1, 62, 0
4, 55136, Note_on_c, 1, 66, 64
4, 55166, Note_on_c, 1, 66, 0
4, 55168, Note_on_c, 1, 69, 64
4, 55198, Note_on_c, 1, 69, 0
4, 55200, Note_on_c, 1, 62, 64
4, 55230, Note_on_c, 1, 62, 0
4, 55232, Note_on_c, 1, 66, 64
4, 55262, Note_on_c, 1, 66, 0
4, 55264, Note_on_c, 1, 69, 64
4, 55294, Note_on_c, 1, 69, 0
4, 55296, Note_on_c, 1, 64, 64
4, 55326, Note_on_c, 1, 64, 0
4, 55328, Note_on_c, 1, 67, 64
4, 55358, Note_on_c, 1, 67, 0
4, 55360, Note_on_c, 1, 69, 64
4, 55390, Note_on_c, 1, 69, 0
4, 55392, Note_on_c, 1, 64, 64
4, 55422, Note_on_c, 1, 64, 0
4, 55424, Note_on_c, 1, 67, 64
4, 55454, Note_on_c, 1, 67, 0
4, 55456, Note_on_c, 1, 69, 64
4, 55486, Note_on_c, 1, 69, 0
4, 55488, Note_on_c, 1, 64, 64
4, 55518, Note_on_c, 1, 64, 0
4, 55520, Note_on_c, 1, 67, 64
4, 55550, Note_on_c, 1, 67, 0
4, 55552, Note_on_c, 1, 69, 64
4, 55582, Note_on_c, 1, 69, 0
4, 55584, Note_on_c, 1, 66, 78
4, 55614, Note_on_c, 1, 66, 0
4, 55616, Note_on_c, 1, 69, 78
4, 55646, Note_on_c, 1, 69, 0
4, 55648, Note_on_c, 1, 72, 78
4, 55678, Note_on_c, 1, 72, 0
4, 55872, Note_on_c, 1, 55, 64
4, 55902, Note_on_c, 1, 55, 0
4, 55904, Note_on_c, 1, 62, 64
4, 55934, Note_on_c, 1, 62, 0
4, 55936, Note_on_c, 1, 67, 64
4, 55966, Note_on_c, 1, 67, 0
4, 55968, Note_on_c, 1, 55, 64
4, 55998, Note_on_c, 1, 55, 0
4, 56000, Note_on_c, 1, 62, 64
4, 56030, Note_on_c, 1, 62, 0
4, 56032, Note_on_c, 1, 67, 64
4, 56062, Note_on_c, 1, 67, 0
4, 56064, Note_on_c, 1, 59, 64
4, 56094, Note_on_c, 1, 59, 0
4, 56096, Note_on_c, 1, 62, 64
4, 56126, Note_on_c, 1, 62, 0
4, 56128, Note_on_c, 1, 67, 64
4, 56158, Note_on_c, 1, 67, 0
4, 56160, Note_on_c, 1, 60, 64
4, 56190, Note_on_c, 1, 60, 0
4, 56192, Note_on_c, 1, 64, 64
4, 56222, Note_on_c, 1, 64, 0
4, 56224, Note_on_c, 1, 67, 64
4, 56254, Note_on_c, 1, 67, 0
4, 56256, Note_on_c, 1, 60, 64
4, 56286, Note_on_c, 1, 60, 0
4, 56288, Note_on_c, 1, 64, 64
4, 56318, Note_on_c, 1, 64, 0
4, 56320, Note_on_c, 1, 67, 64
4, 56350, Note_on_c, 1, 67, 0
4, 56352, Note_on_c, 1, 60, 64
4, 56382, Note_on_c, 1, 60, 0
4, 56384, Note_on_c, 1, 64, 64
4, 56414, Note_on_c, 1, 64, 0
4, 56416, Note_on_c, 1, 67, 64
4, 56446, Note_on_c, 1, 67, 0
4, 56448, Note_on_c, 1, 59, 64
4, 56478, Note_on_c, 1, 59, 0
4, 56480, Note_on_c, 1, 62, 64
4, 56510, Note_on_c, 1, 62, 0
4, 56512, Note_on_c, 1, 67, 64
4, 56542, Note_on_c, 1, 67, 0
4, 56544, Note_on_c, 1, 59, 64
4, 56574, Note_on_c, 1, 59, 0
4, 56576, Note_on_c, 1, 62, 64
4, 56606, Note_on_c, 1, 62, 0
4, 56608, Note_on_c, 1, 67, 64
4, 56638, Note_on_c, 1, 67, 0
4, 56640, Note_on_c, 1, 59, 64
4, 56670, Note_on_c, 1, 59, 0
4, 56672, Note_on_c, 1, 62, 64
4, 56702, Note_on_c, 1, 62, 0
4, 56704, Note_on_c, 1, 67, 64
4, 56734, Note_on_c, 1, 67, 0
4, 56736, Note_on_c, 1, 60, 64
4, 56766, Note_on_c, 1, 60, 0
4, 56768, Note_on_c, 1, 64, 64
4, 56798, Note_on_c, 1, 64, 0
4, 56800, Note_on_c, 1, 67, 64
4, 56830, Note_on_c, 1, 67, 0
4, 56832, Note_on_c, 1, 60, 64
4, 56862, Note_on_c, 1, 60, 0
4, 56864, Note_on_c, 1, 64, 64
4, 56894, Note_on_c, 1, 64, 0
4, 56896, Note_on_c, 1, 67, 64
4, 56926, Note_on_c, 1, 67, 0
4, 56928, Note_on_c, 1, 60, 64
4, 56958, Note_on_c, 1, 60, 0
4, 56960, Note_on_c, 1, 64, 64
4, 56990, Note_on_c, 1, 64, 0
4, 56992, Note_on_c, 1, 67, 64
4, 57022, Note_on_c, 1, 67, 0
4, 57024, Note_on_c, 1, 59, 64
4, 57054, Note_on_c, 1, 59, 0
4, 57056, Note_on_c, 1, 62, 64
4, 57086, Note_on_c, 1, 62, 0
4, 57088, Note_on_c, 1, 67, 64
4, 57118, Note_on_c, 1, 67, 0
4, 57120, Note_on_c, 1, 59, 64
4, 57150, Note_on_c, 1, 59, 0
4, 57152, Note_on_c, 1, 62, 64
4, 57182, Note_on_c, 1, 62, 0
4, 57184, Note_on_c, 1, 67, 64
4, 57214, Note_on_c, 1, 67, 0
4, 57216, Note_on_c, 1, 59, 64
4, 57246, Note_on_c, 1, 59, 0
4, 57248, Note_on_c, 1, 62, 64
4, 57278, Note_on_c, 1, 62, 0
4, 57280, Note_on_c, 1, 67, 64
4, 57310, Note_on_c, 1, 67, 0
4, 57312, Note_on_c, 1, 60, 64
4, 57401, Note_on_c, 1, 60, 0
4, 57600, Note_on_c, 1, 50, 64
4, 57689, Note_on_c, 1, 50, 0
4, 57696, Note_on_c, 1, 62, 64
4, 57726, Note_on_c, 1, 62, 0
4, 57728, Note_on_c, 1, 64, 66
4, 57758, Note_on_c, 1, 64, 0
4, 57760, Note_on_c, 1, 62, 69
4, 57790, Note_on_c, 1, 62, 0
4, 57792, Note_on_c, 1, 60, 72
4, 57822, Note_on_c, 1, 60, 0
4, 57824, Note_on_c, 1, 59, 74
4, 57854, Note_on_c, 1, 59, 0
4, 57856, Note_on_c, 1, 57, 78
4, 57886, Note_on_c, 1, 57, 0
4, 57888, Note_on_c, 1, 59, 78
4, 57888, Note_on_c, 1, 55, 78
4, 57977, Note_on_c, 1, 59, 0
4, 57977, Note_on_c, 1, 55, 0
4, 58080, Note_on_c, 1, 62, 78
4, 58080, Note_on_c, 1, 59, 78
4, 58169, Note_on_c, 1, 62, 0
4, 58169, Note_on_c, 1, 59, 0
4, 58176, Note_on_c, 1, 60, 78
4, 58176, Note_on_c, 1, 57, 78
4, 58265, Note_on_c, 1, 60, 0
4, 58265, Note_on_c, 1, 57, 0
4, 58272, Note_on_c, 1, 54, 78
4, 58368, Note_on_c, 1, 54, 0
4, 58368, Note_on_c, 1, 55, 78
4, 58457, Note_on_c, 1, 55, 0
4, 58464, Note_on_c, 1, 48, 78
4, 58729, Note_on_c, 1, 48, 0
4, 58752, Note_on_c, 1, 50, 78
4, 58841, Note_on_c, 1, 50, 0
4, 58848, Note_on_c, 1, 45, 78
4, 58937, Note_on_c, 1, 45, 0
4, 58944, Note_on_c, 1, 38, 78
4, 59033, Note_on_c, 1, 38, 0
4, 59040, Note_on_c, 1, 55, 78
4, 59070, Note_on_c, 1, 55, 0
4, 59072, Note_on_c, 1, 54, 78
4, 59102, Note_on_c, 1, 54, 0
4, 59104, Note_on_c, 1, 50, 78
4, 59134, Note_on_c, 1, 50, 0
4, 59136, Note_on_c, 1, 60, 78
4, 59136, Note_on_c, 1, 54, 78
4, 59136, Note_on_c, 1, 45, 78
4, 59232, Note_on_c, 1, 60, 0
4, 59232, Note_on_c, 1, 54, 0
4, 59232, Note_on_c, 1, 45, 0
4, 59232, Note_on_c, 1, 59, 78
4, 59232, Note_on_c, 1, 55, 78
4, 59232, Note_on_c, 1, 43, 78
4, 59321, Note_on_c, 1, 59, 0
4, 59321, Note_on_c, 1, 55, 0
4, 59321, Note_on_c, 1, 43, 0
4, 60000, Note_on_c, 1, 54, 78
4, 60108, Note_on_c, 1, 54, 0
4, 60108, Note_on_c, 1, 55, 78
4, 60369, Note_on_c, 1, 55, 0
4, 60480, Note_on_c, 1, 48, 78
4, 60569, Note_on_c, 1, 48, 0
4, 60672, Note_on_c, 1, 50, 78
4, 60761, Note_on_c, 1, 50, 0
4, 60768, Note_on_c, 1, 52, 78
4, 61033, Note_on_c, 1, 52, 0
4, 61152, Note_on_c, 1, 72, 78
4, 61152, Note_on_c, 1, 66, 78
4, 61248, Note_on_c, 1, 72, 0
4, 61248, Note_on_c, 1, 66, 0
4, 61248, Note_on_c, 1, 71, 78
4, 61248, Note_on_c, 1, 67, 78
4, 61337, Note_on_c, 1, 71, 0
4, 61337, Note_on_c, 1, 67, 0
4, 61440, Note_on_c, 1, 72, 78
4, 61440, Note_on_c, 1, 66, 78
4, 61536, Note_on_c, 1, 72, 0
4, 61536, Note_on_c, 1, 66, 0
4, 61536, Note_on_c, 1, 71, 78
4, 61536, Note_on_c, 1, 67, 78
4, 61625, Note_on_c, 1, 71, 0
4, 61625, Note_on_c, 1, 67, 0
4, 61728, Note_on_c, 1, 66, 78
4, 61728, Note_on_c, 1, 60, 78
4, 61824, Note_on_c, 1, 66, 0
4, 61824, Note_on_c, 1, 60, 0
4, 61824, Note_on_c, 1, 67, 78
4, 61824, Note_on_c, 1, 59, 78
4, 61913, Note_on_c, 1, 67, 0
4, 61913, Note_on_c, 1, 59, 0
4, 62016, Note_on_c, 1, 66, 78
4, 62016, Note_on_c, 1, 60, 78
4, 62112, Note_on_c, 1, 66, 0
4, 62112, Note_on_c, 1, 60, 0
4, 62112, Note_on_c, 1, 67, 78
4, 62112, Note_on_c, 1, 59, 78
4, 62208, Note_on_c, 1, 59, 0
4, 62385, Note_on_c, 1, 67, 0
4, 62400, Note_on_c, 1, 66, 78
4, 62489, Note_on_c, 1, 66, 0
4, 62496, Note_on_c, 1, 67, 78
4, 62585, Note_on_c, 1, 67, 0
4, 62784, Note_on_c, 1, 60, 78
4, 62784, Note_on_c, 1, 48, 78
4, 62873, Note_on_c, 1, 60, 0
4, 62873, Note_on_c, 1, 48, 0
4, 62880, Note_on_c, 1, 59, 78
4, 62880, Note_on_c, 1, 50, 78
4, 62969, Note_on_c, 1, 59, 0
4, 62969, Note_on_c, 1, 50, 0
4, 62976, Note_on_c, 1, 57, 78
4, 62976, Note_on_c, 1, 50, 78
4, 63065, Note_on_c, 1, 57, 0
4, 63065, Note_on_c, 1, 50, 0
4, 63072, Note_on_c, 1, 55, 78
4, 63161, Note_on_c, 1, 55, 0
4, 63168, Note_on_c, 1, 50, 78
4, 63257, Note_on_c, 1, 50, 0
4, 63264, Note_on_c, 1, 43, 78
4, 63353, Note_on_c, 1, 43, 0
4, 63360, Note_on_c, 1, 43, 0
4, 63449, Note_on_c, 1, 43, 0
4, 63456, End_track
5, 0, Start_track
5, 0, Program_c, 1, 1
5, 0, Control_c, 1, 7, 127
5, 0, Control_c, 1, 10, 64
5, 3744, Note_on_c, 1, 62, 64
5, 4009, Note_on_c, 1, 62, 0
5, 7776, Note_on_c, 1, 62, 64
5, 8041, Note_on_c, 1, 62, 0
5, 15264, Note_on_c, 1, 60, 64
5, 15353, Note_on_c, 1, 60, 0
5, 15360, Note_on_c, 1, 59, 64
5, 15449, Note_on_c, 1, 59, 0
5, 15456, Note_on_c, 1, 57, 64
5, 15545, Note_on_c, 1, 57, 0
5, 15552, Note_on_c, 1, 55, 64
5, 15641, Note_on_c, 1, 55, 0
5, 23616, Note_on_c, 1, 60, 64
5, 23705, Note_on_c, 1, 60, 0
5, 23712, Note_on_c, 1, 59, 64
5, 23801, Note_on_c, 1, 59, 0
5, 23808, Note_on_c, 1, 57, 64
5, 23897, Note_on_c, 1, 57, 0
5, 23904, Note_on_c, 1, 55, 64
5, 23993, Note_on_c, 1, 55, 0
5, 26784, Note_on_c, 1, 62, 64
5, 27049, Note_on_c, 1, 62, 0
5, 29088, Note_on_c, 1, 62, 64
5, 29353, Note_on_c, 1, 62, 0
5, 30528, Note_on_c, 1, 51, 64
5, 30617, Note_on_c, 1, 51, 0
5, 30624, Note_on_c, 1, 53, 64
5, 30713, Note_on_c, 1, 53, 0
5, 30720, Note_on_c, 1, 55, 64
5, 30809, Note_on_c, 1, 55, 0
5, 30816, Note_on_c, 1, 57, 64
5, 30993, Note_on_c, 1, 57, 0
5, 31008, Note_on_c, 1, 58, 64
5, 31097, Note_on_c, 1, 58, 0
5, 31104, Note_on_c, 1, 51, 64
5, 31193, Note_on_c, 1, 51, 0
5, 31200, Note_on_c, 1, 53, 64
5, 31289, Note_on_c, 1, 53, 0
5, 31296, Note_on_c, 1, 53, 64
5, 31385, Note_on_c, 1, 53, 0
5, 31680, Note_on_c, 1, 58, 64
5, 31680, Note_on_c, 1, 55, 64
5, 31769, Note_on_c, 1, 58, 0
5, 31769, Note_on_c, 1, 55, 0
5, 31776, Note_on_c, 1, 70, 64
5, 31776, Note_on_c, 1, 67, 64
5, 31865, Note_on_c, 1, 70, 0
5, 31865, Note_on_c, 1, 67, 0
5, 31872, Note_on_c, 1, 69, 64
5, 31872, Note_on_c, 1, 66, 64
5, 31961, Note_on_c, 1, 69, 0
5, 31961, Note_on_c, 1, 66, 0
5, 31968, Note_on_c, 1, 70, 64
5, 31968, Note_on_c, 1, 67, 64
5, 32057, Note_on_c, 1, 70, 0
5, 32057, Note_on_c, 1, 67, 0
5, 35136, Note_on_c, 1, 51, 64
5, 35225, Note_on_c, 1, 51, 0
5, 35232, Note_on_c, 1, 53, 64
5, 35321, Note_on_c, 1, 53, 0
5, 35328, Note_on_c, 1, 55, 64
5, 35417, Note_on_c, 1, 55, 0
5, 35424, Note_on_c, 1, 57, 64
5, 35601, Note_on_c, 1, 57, 0
5, 35616, Note_on_c, 1, 58, 64
5, 35705, Note_on_c, 1, 58, 0
5, 35712, Note_on_c, 1, 51, 64
5, 35801, Note_on_c, 1, 51, 0
5, 35808, Note_on_c, 1, 53, 64
5, 35897, Note_on_c, 1, 53, 0
5, 35904, Note_on_c, 1, 53, 64
5, 35993, Note_on_c, 1, 53, 0
5, 36288, Note_on_c, 1, 58, 64
5, 36288, Note_on_c, 1, 55, 64
5, 36377, Note_on_c, 1, 58, 0
5, 36377, Note_on_c, 1, 55, 0
5, 36384, Note_on_c, 1, 70, 64
5, 36384, Note_on_c, 1, 67, 64
5, 36473, Note_on_c, 1, 70, 0
5, 36473, Note_on_c, 1, 67, 0
5, 36480, Note_on_c, 1, 69, 64
5, 36480, Note_on_c, 1, 66, 64
5, 36569, Note_on_c, 1, 69, 0
5, 36569, Note_on_c, 1, 66, 0
5, 36576, Note_on_c, 1, 70, 64
5, 36576, Note_on_c, 1, 67, 64
5, 36665, Note_on_c, 1, 70, 0
5, 36665, Note_on_c, 1, 67, 0
5, 42336, Note_on_c, 1, 62, 64
5, 42601, Note_on_c, 1, 62, 0
5, 46368, Note_on_c, 1, 62, 64
5, 46633, Note_on_c, 1, 62, 0
5, 53856, Note_on_c, 1, 60, 64
5, 53945, Note_on_c, 1, 60, 0
5, 53952, Note_on_c, 1, 59, 64
5, 54041, Note_on_c, 1, 59, 0
5, 54048, Note_on_c, 1, 57, 64
5, 54137, Note_on_c, 1, 57, 0
5, 54144, Note_on_c, 1, 55, 64
5, 54233, Note_on_c, 1, 55, 0
5, 62208, Note_on_c, 1, 60, 64
5, 62297, Note_on_c, 1, 60, 0
5, 62304, Note_on_c, 1, 59, 64
5, 62393, Note_on_c, 1, 59, 0
5, 62400, Note_on_c, 1, 57, 64
5, 62489, Note_on_c, 1, 57, 0
5, 62496, Note_on_c, 1, 55, 64
5, 62585, Note_on_c, 1, 55, 0
5, 63360, End_track
6, 0, Start_track
6, 0, Title_t, "Sonata I   Haydn  "
6, 0, End_track
0, 0, End_of_file
