0, 0, Header, 1, 3, 120
1, 0, Start_track
1, 0, Title_t, "untitled"
1, 0, Copyright_t, "Copyright(C)2002 Shin"
1, 0, Text_t, "Shin\012"
1, 0, System_exclusive, 5, 126, 127, 9, 1, 247
1, 0, Time_signature, 4, 2, 24, 8
1, 0, Key_signature, 0, "major"
1, 0, Tempo, 1500000
1, 0, End_track
2, 0, Start_track
2, 120, Control_c, 0, 0, 81
2, 121, Control_c, 0, 32, 3
2, 122, Program_c, 0, 0
2, 123, Control_c, 0, 7, 127
2, 360, Control_c, 0, 91, 125
2, 492, Note_on_c, 0, 57, 44
2, 495, Note_on_c, 0, 60, 44
2, 498, Note_on_c, 0, 65, 44
2, 570, Note_on_c, 0, 60, 49
2, 582, Note_on_c, 0, 65, 0
2, 582, Note_on_c, 0, 57, 0
2, 582, Note_on_c, 0, 60, 0
2, 600, Note_on_c, 0, 60, 0
2, 600, Note_on_c, 0, 70, 47
2, 630, Note_on_c, 0, 70, 0
2, 630, Note_on_c, 0, 69, 46
2, 660, Note_on_c, 0, 69, 0
2, 660, Note_on_c, 0, 67, 44
2, 690, Note_on_c, 0, 67, 0
2, 690, Note_on_c, 0, 65, 43
2, 720, Note_on_c, 0, 65, 0
2, 720, Note_on_c, 0, 64, 41
2, 750, Note_on_c, 0, 64, 0
2, 780, Note_on_c, 0, 65, 42
2, 810, Note_on_c, 0, 65, 0
2, 840, Note_on_c, 0, 67, 44
2, 870, Note_on_c, 0, 67, 0
2, 900, Note_on_c, 0, 69, 45
2, 930, Note_on_c, 0, 69, 0
2, 972, Note_on_c, 0, 64, 48
2, 972, Note_on_c, 0, 67, 48
2, 972, Note_on_c, 0, 70, 48
2, 1050, Note_on_c, 0, 67, 49
2, 1062, Note_on_c, 0, 70, 0
2, 1062, Note_on_c, 0, 64, 0
2, 1062, Note_on_c, 0, 67, 0
2, 1080, Note_on_c, 0, 67, 0
2, 1080, Note_on_c, 0, 76, 47
2, 1110, Note_on_c, 0, 76, 0
2, 1110, Note_on_c, 0, 74, 45
2, 1140, Note_on_c, 0, 74, 0
2, 1140, Note_on_c, 0, 72, 43
2, 1170, Note_on_c, 0, 72, 0
2, 1170, Note_on_c, 0, 70, 42
2, 1200, Note_on_c, 0, 70, 0
2, 1200, Note_on_c, 0, 69, 40
2, 1230, Note_on_c, 0, 69, 0
2, 1260, Note_on_c, 0, 70, 42
2, 1290, Note_on_c, 0, 70, 0
2, 1320, Note_on_c, 0, 72, 45
2, 1350, Note_on_c, 0, 72, 0
2, 1380, Note_on_c, 0, 73, 49
2, 1410, Note_on_c, 0, 73, 0
2, 1440, Note_on_c, 0, 74, 39
2, 1530, Note_on_c, 0, 74, 0
2, 1530, Note_on_c, 0, 76, 42
2, 1560, Note_on_c, 0, 76, 0
2, 1560, Note_on_c, 0, 79, 50
2, 1590, Note_on_c, 0, 79, 0
2, 1590, Note_on_c, 0, 77, 48
2, 1620, Note_on_c, 0, 77, 0
2, 1620, Note_on_c, 0, 76, 46
2, 1650, Note_on_c, 0, 76, 0
2, 1650, Note_on_c, 0, 74, 44
2, 1680, Note_on_c, 0, 74, 0
2, 1680, Note_on_c, 0, 72, 41
2, 1710, Note_on_c, 0, 72, 0
2, 1740, Note_on_c, 0, 72, 40
2, 1770, Note_on_c, 0, 72, 0
2, 1800, Note_on_c, 0, 70, 40
2, 1810, Note_on_c, 0, 70, 0
2, 1810, Note_on_c, 0, 72, 40
2, 1820, Note_on_c, 0, 70, 40
2, 1825, Note_on_c, 0, 72, 0
2, 1830, Note_on_c, 0, 70, 0
2, 1830, Note_on_c, 0, 72, 40
2, 1845, Note_on_c, 0, 72, 0
2, 1845, Note_on_c, 0, 70, 40
2, 1860, Note_on_c, 0, 70, 0
2, 1860, Note_on_c, 0, 69, 40
2, 1920, Note_on_c, 0, 69, 0
2, 1920, Note_on_c, 0, 67, 48
2, 1980, Note_on_c, 0, 67, 0
2, 1980, Note_on_c, 0, 67, 37
2, 1990, Note_on_c, 0, 67, 0
2, 1990, Note_on_c, 0, 69, 38
2, 2000, Note_on_c, 0, 69, 0
2, 2000, Note_on_c, 0, 67, 39
2, 2010, Note_on_c, 0, 67, 0
2, 2010, Note_on_c, 0, 66, 41
2, 2025, Note_on_c, 0, 66, 0
2, 2025, Note_on_c, 0, 67, 43
2, 2040, Note_on_c, 0, 67, 0
2, 2040, Note_on_c, 0, 70, 45
2, 2100, Note_on_c, 0, 70, 0
2, 2100, Note_on_c, 0, 74, 46
2, 2160, Note_on_c, 0, 74, 0
2, 2160, Note_on_c, 0, 65, 40
2, 2340, Note_on_c, 0, 65, 0
2, 2340, Note_on_c, 0, 64, 44
2, 2350, Note_on_c, 0, 64, 0
2, 2350, Note_on_c, 0, 65, 44
2, 2360, Note_on_c, 0, 65, 0
2, 2360, Note_on_c, 0, 64, 44
2, 2400, Note_on_c, 0, 64, 0
2, 2400, Note_on_c, 0, 57, 44
2, 2403, Note_on_c, 0, 60, 44
2, 2406, Note_on_c, 0, 65, 44
2, 2490, Note_on_c, 0, 65, 0
2, 2490, Note_on_c, 0, 60, 0
2, 2490, Note_on_c, 0, 57, 0
2, 2490, Note_on_c, 0, 60, 49
2, 2520, Note_on_c, 0, 60, 0
2, 2520, Note_on_c, 0, 70, 47
2, 2550, Note_on_c, 0, 70, 0
2, 2550, Note_on_c, 0, 69, 46
2, 2580, Note_on_c, 0, 69, 0
2, 2580, Note_on_c, 0, 67, 44
2, 2610, Note_on_c, 0, 67, 0
2, 2610, Note_on_c, 0, 65, 43
2, 2640, Note_on_c, 0, 65, 0
2, 2640, Note_on_c, 0, 64, 39
2, 2685, Note_on_c, 0, 64, 0
2, 2685, Note_on_c, 0, 60, 32
2, 2700, Note_on_c, 0, 60, 0
2, 2700, Note_on_c, 0, 65, 42
2, 2745, Note_on_c, 0, 65, 0
2, 2745, Note_on_c, 0, 60, 32
2, 2760, Note_on_c, 0, 60, 0
2, 2760, Note_on_c, 0, 67, 45
2, 2805, Note_on_c, 0, 67, 0
2, 2805, Note_on_c, 0, 60, 32
2, 2820, Note_on_c, 0, 60, 0
2, 2820, Note_on_c, 0, 69, 48
2, 2865, Note_on_c, 0, 69, 0
2, 2865, Note_on_c, 0, 60, 32
2, 2880, Note_on_c, 0, 60, 0
2, 2880, Note_on_c, 0, 70, 50
2, 2970, Note_on_c, 0, 70, 0
2, 2970, Note_on_c, 0, 67, 40
2, 3000, Note_on_c, 0, 67, 0
2, 3000, Note_on_c, 0, 76, 52
2, 3030, Note_on_c, 0, 76, 0
2, 3030, Note_on_c, 0, 74, 49
2, 3060, Note_on_c, 0, 74, 0
2, 3060, Note_on_c, 0, 72, 45
2, 3090, Note_on_c, 0, 72, 0
2, 3090, Note_on_c, 0, 70, 42
2, 3120, Note_on_c, 0, 70, 0
2, 3120, Note_on_c, 0, 69, 40
2, 3180, Note_on_c, 0, 69, 0
2, 3180, Note_on_c, 0, 70, 40
2, 3240, Note_on_c, 0, 70, 0
2, 3240, Note_on_c, 0, 72, 43
2, 3300, Note_on_c, 0, 72, 0
2, 3300, Note_on_c, 0, 73, 45
2, 3360, Note_on_c, 0, 73, 0
2, 3390, Note_on_c, 0, 73, 47
2, 3420, Note_on_c, 0, 73, 0
2, 3420, Note_on_c, 0, 74, 41
2, 3450, Note_on_c, 0, 74, 0
2, 3450, Note_on_c, 0, 76, 42
2, 3480, Note_on_c, 0, 76, 0
2, 3480, Note_on_c, 0, 77, 43
2, 3510, Note_on_c, 0, 77, 0
2, 3510, Note_on_c, 0, 78, 44
2, 3540, Note_on_c, 0, 78, 0
2, 3540, Note_on_c, 0, 79, 45
2, 3570, Note_on_c, 0, 79, 0
2, 3570, Note_on_c, 0, 81, 46
2, 3600, Note_on_c, 0, 81, 0
2, 3600, Note_on_c, 0, 82, 47
2, 3630, Note_on_c, 0, 82, 0
2, 3630, Note_on_c, 0, 83, 48
2, 3660, Note_on_c, 0, 83, 0
2, 3660, Note_on_c, 0, 84, 49
2, 3690, Note_on_c, 0, 84, 0
2, 3690, Note_on_c, 0, 85, 50
2, 3720, Note_on_c, 0, 85, 0
2, 3720, Note_on_c, 0, 86, 51
2, 3750, Note_on_c, 0, 86, 0
2, 3750, Note_on_c, 0, 81, 49
2, 3780, Note_on_c, 0, 81, 0
2, 3780, Note_on_c, 0, 82, 45
2, 3810, Note_on_c, 0, 82, 0
2, 3810, Note_on_c, 0, 79, 41
2, 3840, Note_on_c, 0, 79, 0
2, 3840, Note_on_c, 0, 77, 48
2, 4020, Note_on_c, 0, 77, 0
2, 4020, Note_on_c, 0, 79, 40
2, 4050, Note_on_c, 0, 79, 0
2, 4050, Note_on_c, 0, 77, 40
2, 4080, Note_on_c, 0, 77, 0
2, 4080, Note_on_c, 0, 76, 40
2, 4200, Note_on_c, 0, 76, 0
2, 4320, Note_on_c, 0, 79, 47
2, 4440, Note_on_c, 0, 79, 0
2, 4440, Note_on_c, 0, 77, 43
2, 4470, Note_on_c, 0, 77, 0
2, 4470, Note_on_c, 0, 76, 42
2, 4500, Note_on_c, 0, 76, 0
2, 4500, Note_on_c, 0, 74, 42
2, 4530, Note_on_c, 0, 74, 0
2, 4530, Note_on_c, 0, 72, 41
2, 4560, Note_on_c, 0, 72, 0
2, 4560, Note_on_c, 0, 72, 40
2, 4680, Note_on_c, 0, 72, 0
2, 4680, Note_on_c, 0, 71, 39
2, 4690, Note_on_c, 0, 71, 0
2, 4690, Note_on_c, 0, 72, 39
2, 4700, Note_on_c, 0, 72, 0
2, 4700, Note_on_c, 0, 71, 39
2, 4770, Note_on_c, 0, 71, 0
2, 4770, Note_on_c, 0, 71, 39
2, 4785, Note_on_c, 0, 71, 0
2, 4800, Note_on_c, 0, 72, 38
2, 4830, Note_on_c, 0, 72, 0
2, 4830, Note_on_c, 0, 74, 39
2, 4860, Note_on_c, 0, 74, 0
2, 4860, Note_on_c, 0, 76, 41
2, 4890, Note_on_c, 0, 76, 0
2, 4890, Note_on_c, 0, 77, 43
2, 4920, Note_on_c, 0, 77, 0
2, 4920, Note_on_c, 0, 79, 44
2, 4950, Note_on_c, 0, 79, 0
2, 4950, Note_on_c, 0, 81, 46
2, 4980, Note_on_c, 0, 81, 0
2, 4980, Note_on_c, 0, 83, 48
2, 5010, Note_on_c, 0, 83, 0
2, 5010, Note_on_c, 0, 84, 49
2, 5040, Note_on_c, 0, 84, 0
2, 5040, Note_on_c, 0, 84, 50
2, 5070, Note_on_c, 0, 84, 0
2, 5070, Note_on_c, 0, 83, 49
2, 5100, Note_on_c, 0, 83, 0
2, 5100, Note_on_c, 0, 81, 47
2, 5130, Note_on_c, 0, 81, 0
2, 5130, Note_on_c, 0, 79, 46
2, 5160, Note_on_c, 0, 79, 0
2, 5160, Note_on_c, 0, 79, 44
2, 5190, Note_on_c, 0, 79, 0
2, 5190, Note_on_c, 0, 77, 43
2, 5220, Note_on_c, 0, 77, 0
2, 5220, Note_on_c, 0, 76, 41
2, 5250, Note_on_c, 0, 76, 0
2, 5250, Note_on_c, 0, 74, 40
2, 5280, Note_on_c, 0, 74, 0
2, 5280, Note_on_c, 0, 79, 46
2, 5370, Note_on_c, 0, 79, 0
2, 5370, Note_on_c, 0, 81, 46
2, 5385, Note_on_c, 0, 81, 0
2, 5385, Note_on_c, 0, 79, 46
2, 5400, Note_on_c, 0, 79, 0
2, 5400, Note_on_c, 0, 77, 45
2, 5415, Note_on_c, 0, 77, 0
2, 5430, Note_on_c, 0, 76, 44
2, 5445, Note_on_c, 0, 76, 0
2, 5460, Note_on_c, 0, 74, 42
2, 5475, Note_on_c, 0, 74, 0
2, 5490, Note_on_c, 0, 72, 41
2, 5505, Note_on_c, 0, 72, 0
2, 5520, Note_on_c, 0, 72, 39
2, 5640, Note_on_c, 0, 72, 0
2, 5640, Note_on_c, 0, 71, 39
2, 5650, Note_on_c, 0, 71, 0
2, 5650, Note_on_c, 0, 72, 39
2, 5660, Note_on_c, 0, 72, 0
2, 5660, Note_on_c, 0, 71, 39
2, 5730, Note_on_c, 0, 71, 0
2, 5730, Note_on_c, 0, 77, 47
2, 5745, Note_on_c, 0, 77, 0
2, 5760, Note_on_c, 0, 76, 41
2, 5775, Note_on_c, 0, 76, 0
2, 5790, Note_on_c, 0, 77, 40
2, 5805, Note_on_c, 0, 77, 0
2, 5820, Note_on_c, 0, 79, 40
2, 5835, Note_on_c, 0, 79, 0
2, 5850, Note_on_c, 0, 81, 40
2, 5865, Note_on_c, 0, 81, 0
2, 5880, Note_on_c, 0, 83, 40
2, 5895, Note_on_c, 0, 83, 0
2, 5910, Note_on_c, 0, 84, 40
2, 5925, Note_on_c, 0, 84, 0
2, 5940, Note_on_c, 0, 83, 40
2, 5955, Note_on_c, 0, 83, 0
2, 5970, Note_on_c, 0, 84, 40
2, 5985, Note_on_c, 0, 84, 0
2, 6000, Note_on_c, 0, 84, 49
2, 6030, Note_on_c, 0, 84, 0
2, 6030, Note_on_c, 0, 83, 46
2, 6060, Note_on_c, 0, 83, 0
2, 6060, Note_on_c, 0, 81, 43
2, 6090, Note_on_c, 0, 81, 0
2, 6090, Note_on_c, 0, 79, 40
2, 6120, Note_on_c, 0, 79, 0
2, 6120, Note_on_c, 0, 79, 47
2, 6150, Note_on_c, 0, 79, 0
2, 6150, Note_on_c, 0, 77, 45
2, 6180, Note_on_c, 0, 77, 0
2, 6180, Note_on_c, 0, 76, 43
2, 6210, Note_on_c, 0, 76, 0
2, 6210, Note_on_c, 0, 74, 40
2, 6240, Note_on_c, 0, 74, 0
2, 6240, Note_on_c, 0, 76, 40
2, 6270, Note_on_c, 0, 76, 0
2, 6270, Note_on_c, 0, 77, 42
2, 6300, Note_on_c, 0, 77, 0
2, 6300, Note_on_c, 0, 76, 44
2, 6330, Note_on_c, 0, 76, 0
2, 6330, Note_on_c, 0, 77, 46
2, 6360, Note_on_c, 0, 77, 0
2, 6360, Note_on_c, 0, 79, 48
2, 6390, Note_on_c, 0, 79, 0
2, 6390, Note_on_c, 0, 81, 50
2, 6420, Note_on_c, 0, 81, 0
2, 6420, Note_on_c, 0, 79, 52
2, 6450, Note_on_c, 0, 79, 0
2, 6450, Note_on_c, 0, 81, 53
2, 6480, Note_on_c, 0, 81, 0
2, 6480, Note_on_c, 0, 70, 55
2, 6480, Note_on_c, 0, 82, 55
2, 6720, Note_on_c, 0, 82, 0
2, 6720, Note_on_c, 0, 70, 0
2, 6750, Note_on_c, 0, 81, 38
2, 6780, Note_on_c, 0, 81, 0
2, 6780, Note_on_c, 0, 80, 38
2, 6810, Note_on_c, 0, 80, 0
2, 6810, Note_on_c, 0, 81, 38
2, 6840, Note_on_c, 0, 81, 0
2, 6870, Note_on_c, 0, 79, 46
2, 6900, Note_on_c, 0, 79, 0
2, 6900, Note_on_c, 0, 78, 46
2, 6930, Note_on_c, 0, 78, 0
2, 6930, Note_on_c, 0, 79, 46
2, 6960, Note_on_c, 0, 79, 0
2, 6990, Note_on_c, 0, 78, 45
2, 7005, Note_on_c, 0, 78, 0
2, 7020, Note_on_c, 0, 78, 42
2, 7030, Note_on_c, 0, 78, 0
2, 7030, Note_on_c, 0, 79, 42
2, 7040, Note_on_c, 0, 79, 0
2, 7040, Note_on_c, 0, 78, 42
2, 7080, Note_on_c, 0, 78, 0
2, 7110, Note_on_c, 0, 77, 40
2, 7125, Note_on_c, 0, 77, 0
2, 7140, Note_on_c, 0, 77, 42
2, 7150, Note_on_c, 0, 77, 0
2, 7150, Note_on_c, 0, 79, 42
2, 7160, Note_on_c, 0, 79, 0
2, 7160, Note_on_c, 0, 77, 42
2, 7200, Note_on_c, 0, 77, 0
2, 7230, Note_on_c, 0, 76, 37
2, 7260, Note_on_c, 0, 76, 0
2, 7260, Note_on_c, 0, 77, 41
2, 7290, Note_on_c, 0, 77, 0
2, 7290, Note_on_c, 0, 79, 46
2, 7320, Note_on_c, 0, 79, 0
2, 7320, Note_on_c, 0, 79, 51
2, 7350, Note_on_c, 0, 79, 0
2, 7350, Note_on_c, 0, 69, 37
2, 7380, Note_on_c, 0, 69, 0
2, 7380, Note_on_c, 0, 77, 44
2, 7410, Note_on_c, 0, 77, 0
2, 7410, Note_on_c, 0, 74, 40
2, 7440, Note_on_c, 0, 74, 0
2, 7440, Note_on_c, 0, 72, 37
2, 7560, Note_on_c, 0, 72, 0
2, 7560, Note_on_c, 0, 71, 36
2, 7570, Note_on_c, 0, 71, 0
2, 7570, Note_on_c, 0, 72, 36
2, 7580, Note_on_c, 0, 72, 0
2, 7580, Note_on_c, 0, 71, 36
2, 7590, Note_on_c, 0, 71, 0
2, 7590, Note_on_c, 0, 72, 36
2, 7600, Note_on_c, 0, 72, 0
2, 7600, Note_on_c, 0, 71, 36
2, 7610, Note_on_c, 0, 71, 0
2, 7610, Note_on_c, 0, 72, 36
2, 7620, Note_on_c, 0, 72, 0
2, 7620, Note_on_c, 0, 71, 36
2, 7630, Note_on_c, 0, 71, 0
2, 7630, Note_on_c, 0, 72, 36
2, 7640, Note_on_c, 0, 72, 0
2, 7640, Note_on_c, 0, 71, 36
2, 7650, Note_on_c, 0, 71, 0
2, 7650, Note_on_c, 0, 69, 36
2, 7665, Note_on_c, 0, 69, 0
2, 7665, Note_on_c, 0, 71, 36
2, 7680, Note_on_c, 0, 71, 0
2, 7710, Note_on_c, 0, 84, 37
2, 7740, Note_on_c, 0, 84, 0
2, 7740, Note_on_c, 0, 88, 39
2, 7770, Note_on_c, 0, 88, 0
2, 7770, Note_on_c, 0, 84, 44
2, 7800, Note_on_c, 0, 84, 0
2, 7800, Note_on_c, 0, 83, 49
2, 7830, Note_on_c, 0, 83, 0
2, 7830, Note_on_c, 0, 81, 48
2, 7860, Note_on_c, 0, 81, 0
2, 7860, Note_on_c, 0, 79, 45
2, 7890, Note_on_c, 0, 79, 0
2, 7890, Note_on_c, 0, 77, 43
2, 7920, Note_on_c, 0, 77, 0
2, 7920, Note_on_c, 0, 76, 40
2, 8040, Note_on_c, 0, 76, 0
2, 8040, Note_on_c, 0, 74, 39
2, 8050, Note_on_c, 0, 74, 0
2, 8050, Note_on_c, 0, 76, 39
2, 8060, Note_on_c, 0, 76, 0
2, 8060, Note_on_c, 0, 74, 39
2, 8070, Note_on_c, 0, 74, 0
2, 8070, Note_on_c, 0, 76, 39
2, 8080, Note_on_c, 0, 76, 0
2, 8080, Note_on_c, 0, 74, 39
2, 8090, Note_on_c, 0, 74, 0
2, 8090, Note_on_c, 0, 76, 39
2, 8100, Note_on_c, 0, 76, 0
2, 8100, Note_on_c, 0, 74, 39
2, 8110, Note_on_c, 0, 74, 0
2, 8110, Note_on_c, 0, 76, 39
2, 8120, Note_on_c, 0, 76, 0
2, 8120, Note_on_c, 0, 74, 39
2, 8130, Note_on_c, 0, 74, 0
2, 8130, Note_on_c, 0, 72, 39
2, 8145, Note_on_c, 0, 72, 0
2, 8145, Note_on_c, 0, 74, 39
2, 8160, Note_on_c, 0, 74, 0
2, 8160, Note_on_c, 0, 72, 40
2, 8220, Note_on_c, 0, 72, 0
2, 8220, Note_on_c, 0, 76, 44
2, 8220, Note_on_c, 0, 72, 44
2, 8280, Note_on_c, 0, 72, 0
2, 8280, Note_on_c, 0, 76, 0
2, 8280, Note_on_c, 0, 72, 44
2, 8280, Note_on_c, 0, 76, 44
2, 8340, Note_on_c, 0, 76, 0
2, 8340, Note_on_c, 0, 72, 0
2, 8340, Note_on_c, 0, 72, 44
2, 8340, Note_on_c, 0, 76, 44
2, 8400, Note_on_c, 0, 76, 0
2, 8400, Note_on_c, 0, 72, 0
2, 8400, Note_on_c, 0, 72, 42
2, 8400, Note_on_c, 0, 76, 42
2, 8410, Note_on_c, 0, 76, 0
2, 8410, Note_on_c, 0, 72, 0
2, 8410, Note_on_c, 0, 74, 41
2, 8410, Note_on_c, 0, 77, 41
2, 8420, Note_on_c, 0, 77, 0
2, 8420, Note_on_c, 0, 74, 0
2, 8420, Note_on_c, 0, 72, 39
2, 8420, Note_on_c, 0, 76, 39
2, 8430, Note_on_c, 0, 76, 0
2, 8430, Note_on_c, 0, 72, 0
2, 8430, Note_on_c, 0, 71, 38
2, 8430, Note_on_c, 0, 74, 38
2, 8445, Note_on_c, 0, 74, 0
2, 8445, Note_on_c, 0, 71, 0
2, 8445, Note_on_c, 0, 72, 43
2, 8445, Note_on_c, 0, 76, 43
2, 8460, Note_on_c, 0, 76, 0
2, 8460, Note_on_c, 0, 72, 0
2, 8460, Note_on_c, 0, 79, 45
2, 8460, Note_on_c, 0, 76, 45
2, 8520, Note_on_c, 0, 76, 0
2, 8520, Note_on_c, 0, 79, 0
2, 8520, Note_on_c, 0, 76, 45
2, 8520, Note_on_c, 0, 72, 45
2, 8580, Note_on_c, 0, 72, 0
2, 8580, Note_on_c, 0, 76, 0
2, 8580, Note_on_c, 0, 69, 45
2, 8580, Note_on_c, 0, 72, 45
2, 8640, Note_on_c, 0, 72, 0
2, 8640, Note_on_c, 0, 69, 0
2, 8640, Note_on_c, 0, 65, 51
2, 8640, Note_on_c, 0, 69, 51
2, 8790, Note_on_c, 0, 69, 0
2, 8790, Note_on_c, 0, 65, 0
2, 8790, Note_on_c, 0, 65, 35
2, 8790, Note_on_c, 0, 69, 35
2, 8820, Note_on_c, 0, 69, 0
2, 8820, Note_on_c, 0, 65, 0
2, 8820, Note_on_c, 0, 67, 38
2, 8820, Note_on_c, 0, 71, 38
2, 8850, Note_on_c, 0, 71, 0
2, 8850, Note_on_c, 0, 67, 0
2, 8850, Note_on_c, 0, 69, 42
2, 8850, Note_on_c, 0, 72, 42
2, 8880, Note_on_c, 0, 72, 0
2, 8880, Note_on_c, 0, 69, 0
2, 8880, Note_on_c, 0, 69, 46
2, 8880, Note_on_c, 0, 72, 46
2, 8910, Note_on_c, 0, 72, 0
2, 8910, Note_on_c, 0, 69, 0
2, 8910, Note_on_c, 0, 67, 44
2, 8910, Note_on_c, 0, 71, 44
2, 8940, Note_on_c, 0, 71, 0
2, 8940, Note_on_c, 0, 67, 0
2, 8940, Note_on_c, 0, 65, 42
2, 8940, Note_on_c, 0, 69, 42
2, 8970, Note_on_c, 0, 69, 0
2, 8970, Note_on_c, 0, 65, 0
2, 8970, Note_on_c, 0, 64, 39
2, 8970, Note_on_c, 0, 67, 39
2, 9000, Note_on_c, 0, 67, 0
2, 9000, Note_on_c, 0, 64, 0
2, 9000, Note_on_c, 0, 64, 43
2, 9000, Note_on_c, 0, 67, 43
2, 9030, Note_on_c, 0, 67, 0
2, 9030, Note_on_c, 0, 64, 0
2, 9030, Note_on_c, 0, 62, 42
2, 9030, Note_on_c, 0, 65, 42
2, 9060, Note_on_c, 0, 65, 0
2, 9060, Note_on_c, 0, 62, 0
2, 9060, Note_on_c, 0, 60, 40
2, 9060, Note_on_c, 0, 64, 40
2, 9090, Note_on_c, 0, 64, 0
2, 9090, Note_on_c, 0, 60, 0
2, 9090, Note_on_c, 0, 59, 38
2, 9090, Note_on_c, 0, 62, 38
2, 9120, Note_on_c, 0, 62, 0
2, 9120, Note_on_c, 0, 59, 0
2, 9180, Note_on_c, 0, 72, 40
2, 9200, Note_on_c, 0, 76, 40
2, 9220, Note_on_c, 0, 76, 0
2, 9220, Note_on_c, 0, 84, 41
2, 9240, Note_on_c, 0, 84, 0
2, 9240, Note_on_c, 0, 72, 0
2, 9240, Note_on_c, 0, 72, 41
2, 9260, Note_on_c, 0, 76, 42
2, 9280, Note_on_c, 0, 76, 0
2, 9280, Note_on_c, 0, 84, 42
2, 9300, Note_on_c, 0, 84, 0
2, 9300, Note_on_c, 0, 72, 0
2, 9300, Note_on_c, 0, 72, 43
2, 9320, Note_on_c, 0, 76, 43
2, 9340, Note_on_c, 0, 76, 0
2, 9340, Note_on_c, 0, 84, 44
2, 9360, Note_on_c, 0, 84, 0
2, 9360, Note_on_c, 0, 72, 0
2, 9360, Note_on_c, 0, 72, 45
2, 9380, Note_on_c, 0, 76, 46
2, 9400, Note_on_c, 0, 76, 0
2, 9400, Note_on_c, 0, 84, 48
2, 9420, Note_on_c, 0, 84, 0
2, 9420, Note_on_c, 0, 72, 0
2, 9420, Note_on_c, 0, 76, 49
2, 9440, Note_on_c, 0, 79, 51
2, 9460, Note_on_c, 0, 79, 0
2, 9460, Note_on_c, 0, 88, 51
2, 9480, Note_on_c, 0, 88, 0
2, 9480, Note_on_c, 0, 76, 0
2, 9480, Note_on_c, 0, 72, 51
2, 9500, Note_on_c, 0, 76, 48
2, 9520, Note_on_c, 0, 76, 0
2, 9520, Note_on_c, 0, 84, 46
2, 9540, Note_on_c, 0, 84, 0
2, 9540, Note_on_c, 0, 72, 0
2, 9540, Note_on_c, 0, 69, 43
2, 9560, Note_on_c, 0, 72, 41
2, 9580, Note_on_c, 0, 72, 0
2, 9580, Note_on_c, 0, 81, 39
2, 9600, Note_on_c, 0, 81, 0
2, 9600, Note_on_c, 0, 69, 0
2, 9600, Note_on_c, 0, 65, 54
2, 9750, Note_on_c, 0, 65, 0
2, 9750, Note_on_c, 0, 69, 51
2, 9750, Note_on_c, 0, 72, 51
2, 9780, Note_on_c, 0, 72, 0
2, 9780, Note_on_c, 0, 69, 0
2, 9780, Note_on_c, 0, 67, 46
2, 9780, Note_on_c, 0, 71, 46
2, 9810, Note_on_c, 0, 71, 0
2, 9810, Note_on_c, 0, 67, 0
2, 9810, Note_on_c, 0, 65, 41
2, 9810, Note_on_c, 0, 69, 41
2, 9840, Note_on_c, 0, 69, 0
2, 9840, Note_on_c, 0, 65, 0
2, 9840, Note_on_c, 0, 65, 48
2, 9840, Note_on_c, 0, 69, 48
2, 9870, Note_on_c, 0, 69, 0
2, 9870, Note_on_c, 0, 65, 0
2, 9870, Note_on_c, 0, 64, 47
2, 9870, Note_on_c, 0, 67, 47
2, 9900, Note_on_c, 0, 67, 0
2, 9900, Note_on_c, 0, 64, 0
2, 9900, Note_on_c, 0, 62, 46
2, 9900, Note_on_c, 0, 65, 46
2, 9930, Note_on_c, 0, 65, 0
2, 9930, Note_on_c, 0, 62, 0
2, 9930, Note_on_c, 0, 60, 45
2, 9930, Note_on_c, 0, 64, 45
2, 9960, Note_on_c, 0, 64, 0
2, 9960, Note_on_c, 0, 60, 0
2, 9960, Note_on_c, 0, 64, 44
2, 9990, Note_on_c, 0, 64, 0
2, 9990, Note_on_c, 0, 62, 43
2, 10020, Note_on_c, 0, 62, 0
2, 10020, Note_on_c, 0, 60, 42
2, 10050, Note_on_c, 0, 60, 0
2, 10050, Note_on_c, 0, 53, 41
2, 10050, Note_on_c, 0, 59, 41
2, 10080, Note_on_c, 0, 59, 0
2, 10080, Note_on_c, 0, 53, 0
2, 10080, Note_on_c, 0, 53, 40
2, 10080, Note_on_c, 0, 59, 40
2, 10320, Note_on_c, 0, 59, 0
2, 10320, Note_on_c, 0, 53, 0
2, 10329, Note_on_c, 0, 52, 40
2, 10332, Note_on_c, 0, 55, 40
2, 10335, Note_on_c, 0, 60, 40
2, 10500, Note_on_c, 0, 60, 0
2, 10500, Note_on_c, 0, 55, 0
2, 10500, Note_on_c, 0, 52, 0
2, 10572, Note_on_c, 0, 57, 44
2, 10575, Note_on_c, 0, 60, 44
2, 10578, Note_on_c, 0, 65, 44
2, 10650, Note_on_c, 0, 60, 49
2, 10662, Note_on_c, 0, 65, 0
2, 10662, Note_on_c, 0, 57, 0
2, 10662, Note_on_c, 0, 60, 0
2, 10680, Note_on_c, 0, 60, 0
2, 10680, Note_on_c, 0, 70, 47
2, 10710, Note_on_c, 0, 70, 0
2, 10710, Note_on_c, 0, 69, 46
2, 10740, Note_on_c, 0, 69, 0
2, 10740, Note_on_c, 0, 67, 44
2, 10770, Note_on_c, 0, 67, 0
2, 10770, Note_on_c, 0, 65, 43
2, 10800, Note_on_c, 0, 65, 0
2, 10800, Note_on_c, 0, 64, 41
2, 10830, Note_on_c, 0, 64, 0
2, 10860, Note_on_c, 0, 65, 42
2, 10890, Note_on_c, 0, 65, 0
2, 10920, Note_on_c, 0, 67, 44
2, 10950, Note_on_c, 0, 67, 0
2, 10980, Note_on_c, 0, 69, 45
2, 11010, Note_on_c, 0, 69, 0
2, 11052, Note_on_c, 0, 64, 48
2, 11052, Note_on_c, 0, 67, 48
2, 11052, Note_on_c, 0, 70, 48
2, 11130, Note_on_c, 0, 67, 49
2, 11142, Note_on_c, 0, 70, 0
2, 11142, Note_on_c, 0, 64, 0
2, 11142, Note_on_c, 0, 67, 0
2, 11160, Note_on_c, 0, 67, 0
2, 11160, Note_on_c, 0, 76, 47
2, 11190, Note_on_c, 0, 76, 0
2, 11190, Note_on_c, 0, 74, 45
2, 11220, Note_on_c, 0, 74, 0
2, 11220, Note_on_c, 0, 72, 43
2, 11250, Note_on_c, 0, 72, 0
2, 11250, Note_on_c, 0, 70, 42
2, 11280, Note_on_c, 0, 70, 0
2, 11280, Note_on_c, 0, 69, 40
2, 11310, Note_on_c, 0, 69, 0
2, 11340, Note_on_c, 0, 70, 42
2, 11370, Note_on_c, 0, 70, 0
2, 11400, Note_on_c, 0, 72, 45
2, 11430, Note_on_c, 0, 72, 0
2, 11460, Note_on_c, 0, 73, 49
2, 11490, Note_on_c, 0, 73, 0
2, 11520, Note_on_c, 0, 74, 39
2, 11610, Note_on_c, 0, 74, 0
2, 11610, Note_on_c, 0, 76, 42
2, 11640, Note_on_c, 0, 76, 0
2, 11640, Note_on_c, 0, 79, 50
2, 11670, Note_on_c, 0, 79, 0
2, 11670, Note_on_c, 0, 77, 48
2, 11700, Note_on_c, 0, 77, 0
2, 11700, Note_on_c, 0, 76, 46
2, 11730, Note_on_c, 0, 76, 0
2, 11730, Note_on_c, 0, 74, 44
2, 11760, Note_on_c, 0, 74, 0
2, 11760, Note_on_c, 0, 72, 41
2, 11790, Note_on_c, 0, 72, 0
2, 11820, Note_on_c, 0, 72, 40
2, 11850, Note_on_c, 0, 72, 0
2, 11880, Note_on_c, 0, 70, 40
2, 11890, Note_on_c, 0, 70, 0
2, 11890, Note_on_c, 0, 72, 40
2, 11900, Note_on_c, 0, 70, 40
2, 11905, Note_on_c, 0, 72, 0
2, 11910, Note_on_c, 0, 70, 0
2, 11910, Note_on_c, 0, 72, 40
2, 11925, Note_on_c, 0, 72, 0
2, 11925, Note_on_c, 0, 70, 40
2, 11940, Note_on_c, 0, 70, 0
2, 11940, Note_on_c, 0, 69, 40
2, 12000, Note_on_c, 0, 69, 0
2, 12000, Note_on_c, 0, 67, 48
2, 12060, Note_on_c, 0, 67, 0
2, 12060, Note_on_c, 0, 67, 37
2, 12070, Note_on_c, 0, 67, 0
2, 12070, Note_on_c, 0, 69, 38
2, 12080, Note_on_c, 0, 69, 0
2, 12080, Note_on_c, 0, 67, 39
2, 12090, Note_on_c, 0, 67, 0
2, 12090, Note_on_c, 0, 66, 41
2, 12105, Note_on_c, 0, 66, 0
2, 12105, Note_on_c, 0, 67, 43
2, 12120, Note_on_c, 0, 67, 0
2, 12120, Note_on_c, 0, 70, 45
2, 12180, Note_on_c, 0, 70, 0
2, 12180, Note_on_c, 0, 74, 46
2, 12240, Note_on_c, 0, 74, 0
2, 12240, Note_on_c, 0, 65, 40
2, 12420, Note_on_c, 0, 65, 0
2, 12420, Note_on_c, 0, 64, 44
2, 12430, Note_on_c, 0, 64, 0
2, 12430, Note_on_c, 0, 65, 44
2, 12440, Note_on_c, 0, 65, 0
2, 12440, Note_on_c, 0, 64, 44
2, 12480, Note_on_c, 0, 64, 0
2, 12480, Note_on_c, 0, 57, 44
2, 12483, Note_on_c, 0, 60, 44
2, 12486, Note_on_c, 0, 65, 44
2, 12570, Note_on_c, 0, 65, 0
2, 12570, Note_on_c, 0, 60, 0
2, 12570, Note_on_c, 0, 57, 0
2, 12570, Note_on_c, 0, 60, 49
2, 12600, Note_on_c, 0, 60, 0
2, 12600, Note_on_c, 0, 70, 47
2, 12630, Note_on_c, 0, 70, 0
2, 12630, Note_on_c, 0, 69, 46
2, 12660, Note_on_c, 0, 69, 0
2, 12660, Note_on_c, 0, 67, 44
2, 12690, Note_on_c, 0, 67, 0
2, 12690, Note_on_c, 0, 65, 43
2, 12720, Note_on_c, 0, 65, 0
2, 12720, Note_on_c, 0, 64, 39
2, 12765, Note_on_c, 0, 64, 0
2, 12765, Note_on_c, 0, 60, 32
2, 12780, Note_on_c, 0, 60, 0
2, 12780, Note_on_c, 0, 65, 42
2, 12825, Note_on_c, 0, 65, 0
2, 12825, Note_on_c, 0, 60, 32
2, 12840, Note_on_c, 0, 60, 0
2, 12840, Note_on_c, 0, 67, 45
2, 12885, Note_on_c, 0, 67, 0
2, 12885, Note_on_c, 0, 60, 32
2, 12900, Note_on_c, 0, 60, 0
2, 12900, Note_on_c, 0, 69, 48
2, 12945, Note_on_c, 0, 69, 0
2, 12945, Note_on_c, 0, 60, 32
2, 12960, Note_on_c, 0, 60, 0
2, 12960, Note_on_c, 0, 70, 50
2, 13050, Note_on_c, 0, 70, 0
2, 13050, Note_on_c, 0, 67, 40
2, 13080, Note_on_c, 0, 67, 0
2, 13080, Note_on_c, 0, 76, 52
2, 13110, Note_on_c, 0, 76, 0
2, 13110, Note_on_c, 0, 74, 49
2, 13140, Note_on_c, 0, 74, 0
2, 13140, Note_on_c, 0, 72, 45
2, 13170, Note_on_c, 0, 72, 0
2, 13170, Note_on_c, 0, 70, 42
2, 13200, Note_on_c, 0, 70, 0
2, 13200, Note_on_c, 0, 69, 40
2, 13260, Note_on_c, 0, 69, 0
2, 13260, Note_on_c, 0, 70, 40
2, 13320, Note_on_c, 0, 70, 0
2, 13320, Note_on_c, 0, 72, 43
2, 13380, Note_on_c, 0, 72, 0
2, 13380, Note_on_c, 0, 73, 45
2, 13440, Note_on_c, 0, 73, 0
2, 13470, Note_on_c, 0, 73, 47
2, 13500, Note_on_c, 0, 73, 0
2, 13500, Note_on_c, 0, 74, 41
2, 13530, Note_on_c, 0, 74, 0
2, 13530, Note_on_c, 0, 76, 42
2, 13560, Note_on_c, 0, 76, 0
2, 13560, Note_on_c, 0, 77, 43
2, 13590, Note_on_c, 0, 77, 0
2, 13590, Note_on_c, 0, 78, 44
2, 13620, Note_on_c, 0, 78, 0
2, 13620, Note_on_c, 0, 79, 45
2, 13650, Note_on_c, 0, 79, 0
2, 13650, Note_on_c, 0, 81, 46
2, 13680, Note_on_c, 0, 81, 0
2, 13680, Note_on_c, 0, 82, 47
2, 13710, Note_on_c, 0, 82, 0
2, 13710, Note_on_c, 0, 83, 48
2, 13740, Note_on_c, 0, 83, 0
2, 13740, Note_on_c, 0, 84, 49
2, 13770, Note_on_c, 0, 84, 0
2, 13770, Note_on_c, 0, 85, 50
2, 13800, Note_on_c, 0, 85, 0
2, 13800, Note_on_c, 0, 86, 51
2, 13830, Note_on_c, 0, 86, 0
2, 13830, Note_on_c, 0, 81, 49
2, 13860, Note_on_c, 0, 81, 0
2, 13860, Note_on_c, 0, 82, 45
2, 13890, Note_on_c, 0, 82, 0
2, 13890, Note_on_c, 0, 79, 41
2, 13920, Note_on_c, 0, 79, 0
2, 13920, Note_on_c, 0, 77, 48
2, 14100, Note_on_c, 0, 77, 0
2, 14100, Note_on_c, 0, 79, 40
2, 14130, Note_on_c, 0, 79, 0
2, 14130, Note_on_c, 0, 77, 40
2, 14160, Note_on_c, 0, 77, 0
2, 14160, Note_on_c, 0, 76, 40
2, 14280, Note_on_c, 0, 76, 0
2, 14400, Note_on_c, 0, 79, 47
2, 14520, Note_on_c, 0, 79, 0
2, 14520, Note_on_c, 0, 77, 43
2, 14550, Note_on_c, 0, 77, 0
2, 14550, Note_on_c, 0, 76, 42
2, 14580, Note_on_c, 0, 76, 0
2, 14580, Note_on_c, 0, 74, 42
2, 14610, Note_on_c, 0, 74, 0
2, 14610, Note_on_c, 0, 72, 41
2, 14640, Note_on_c, 0, 72, 0
2, 14640, Note_on_c, 0, 72, 40
2, 14760, Note_on_c, 0, 72, 0
2, 14760, Note_on_c, 0, 71, 39
2, 14770, Note_on_c, 0, 71, 0
2, 14770, Note_on_c, 0, 72, 39
2, 14780, Note_on_c, 0, 72, 0
2, 14780, Note_on_c, 0, 71, 39
2, 14850, Note_on_c, 0, 71, 0
2, 14850, Note_on_c, 0, 71, 39
2, 14865, Note_on_c, 0, 71, 0
2, 14880, Note_on_c, 0, 72, 38
2, 14910, Note_on_c, 0, 72, 0
2, 14910, Note_on_c, 0, 74, 39
2, 14940, Note_on_c, 0, 74, 0
2, 14940, Note_on_c, 0, 76, 41
2, 14970, Note_on_c, 0, 76, 0
2, 14970, Note_on_c, 0, 77, 43
2, 15000, Note_on_c, 0, 77, 0
2, 15000, Note_on_c, 0, 79, 44
2, 15030, Note_on_c, 0, 79, 0
2, 15030, Note_on_c, 0, 81, 46
2, 15060, Note_on_c, 0, 81, 0
2, 15060, Note_on_c, 0, 83, 48
2, 15090, Note_on_c, 0, 83, 0
2, 15090, Note_on_c, 0, 84, 49
2, 15120, Note_on_c, 0, 84, 0
2, 15120, Note_on_c, 0, 84, 50
2, 15150, Note_on_c, 0, 84, 0
2, 15150, Note_on_c, 0, 83, 49
2, 15180, Note_on_c, 0, 83, 0
2, 15180, Note_on_c, 0, 81, 47
2, 15210, Note_on_c, 0, 81, 0
2, 15210, Note_on_c, 0, 79, 46
2, 15240, Note_on_c, 0, 79, 0
2, 15240, Note_on_c, 0, 79, 44
2, 15270, Note_on_c, 0, 79, 0
2, 15270, Note_on_c, 0, 77, 43
2, 15300, Note_on_c, 0, 77, 0
2, 15300, Note_on_c, 0, 76, 41
2, 15330, Note_on_c, 0, 76, 0
2, 15330, Note_on_c, 0, 74, 40
2, 15360, Note_on_c, 0, 74, 0
2, 15360, Note_on_c, 0, 79, 46
2, 15450, Note_on_c, 0, 79, 0
2, 15450, Note_on_c, 0, 81, 46
2, 15465, Note_on_c, 0, 81, 0
2, 15465, Note_on_c, 0, 79, 46
2, 15480, Note_on_c, 0, 79, 0
2, 15480, Note_on_c, 0, 77, 45
2, 15495, Note_on_c, 0, 77, 0
2, 15510, Note_on_c, 0, 76, 44
2, 15525, Note_on_c, 0, 76, 0
2, 15540, Note_on_c, 0, 74, 42
2, 15555, Note_on_c, 0, 74, 0
2, 15570, Note_on_c, 0, 72, 41
2, 15585, Note_on_c, 0, 72, 0
2, 15600, Note_on_c, 0, 72, 39
2, 15720, Note_on_c, 0, 72, 0
2, 15720, Note_on_c, 0, 71, 39
2, 15730, Note_on_c, 0, 71, 0
2, 15730, Note_on_c, 0, 72, 39
2, 15740, Note_on_c, 0, 72, 0
2, 15740, Note_on_c, 0, 71, 39
2, 15810, Note_on_c, 0, 71, 0
2, 15810, Note_on_c, 0, 77, 47
2, 15825, Note_on_c, 0, 77, 0
2, 15840, Note_on_c, 0, 76, 41
2, 15855, Note_on_c, 0, 76, 0
2, 15870, Note_on_c, 0, 77, 40
2, 15885, Note_on_c, 0, 77, 0
2, 15900, Note_on_c, 0, 79, 40
2, 15915, Note_on_c, 0, 79, 0
2, 15930, Note_on_c, 0, 81, 40
2, 15945, Note_on_c, 0, 81, 0
2, 15960, Note_on_c, 0, 83, 40
2, 15975, Note_on_c, 0, 83, 0
2, 15990, Note_on_c, 0, 84, 40
2, 16005, Note_on_c, 0, 84, 0
2, 16020, Note_on_c, 0, 83, 40
2, 16035, Note_on_c, 0, 83, 0
2, 16050, Note_on_c, 0, 84, 40
2, 16065, Note_on_c, 0, 84, 0
2, 16080, Note_on_c, 0, 84, 49
2, 16110, Note_on_c, 0, 84, 0
2, 16110, Note_on_c, 0, 83, 46
2, 16140, Note_on_c, 0, 83, 0
2, 16140, Note_on_c, 0, 81, 43
2, 16170, Note_on_c, 0, 81, 0
2, 16170, Note_on_c, 0, 79, 40
2, 16200, Note_on_c, 0, 79, 0
2, 16200, Note_on_c, 0, 79, 47
2, 16230, Note_on_c, 0, 79, 0
2, 16230, Note_on_c, 0, 77, 45
2, 16260, Note_on_c, 0, 77, 0
2, 16260, Note_on_c, 0, 76, 43
2, 16290, Note_on_c, 0, 76, 0
2, 16290, Note_on_c, 0, 74, 40
2, 16320, Note_on_c, 0, 74, 0
2, 16320, Note_on_c, 0, 76, 40
2, 16350, Note_on_c, 0, 76, 0
2, 16350, Note_on_c, 0, 77, 42
2, 16380, Note_on_c, 0, 77, 0
2, 16380, Note_on_c, 0, 76, 44
2, 16410, Note_on_c, 0, 76, 0
2, 16410, Note_on_c, 0, 77, 46
2, 16440, Note_on_c, 0, 77, 0
2, 16440, Note_on_c, 0, 79, 48
2, 16470, Note_on_c, 0, 79, 0
2, 16470, Note_on_c, 0, 81, 50
2, 16500, Note_on_c, 0, 81, 0
2, 16500, Note_on_c, 0, 79, 52
2, 16530, Note_on_c, 0, 79, 0
2, 16530, Note_on_c, 0, 81, 53
2, 16560, Note_on_c, 0, 81, 0
2, 16560, Note_on_c, 0, 70, 55
2, 16560, Note_on_c, 0, 82, 55
2, 16800, Note_on_c, 0, 82, 0
2, 16800, Note_on_c, 0, 70, 0
2, 16830, Note_on_c, 0, 81, 38
2, 16860, Note_on_c, 0, 81, 0
2, 16860, Note_on_c, 0, 80, 38
2, 16890, Note_on_c, 0, 80, 0
2, 16890, Note_on_c, 0, 81, 38
2, 16920, Note_on_c, 0, 81, 0
2, 16950, Note_on_c, 0, 79, 46
2, 16980, Note_on_c, 0, 79, 0
2, 16980, Note_on_c, 0, 78, 46
2, 17010, Note_on_c, 0, 78, 0
2, 17010, Note_on_c, 0, 79, 46
2, 17040, Note_on_c, 0, 79, 0
2, 17070, Note_on_c, 0, 78, 45
2, 17085, Note_on_c, 0, 78, 0
2, 17100, Note_on_c, 0, 78, 42
2, 17110, Note_on_c, 0, 78, 0
2, 17110, Note_on_c, 0, 79, 42
2, 17120, Note_on_c, 0, 79, 0
2, 17120, Note_on_c, 0, 78, 42
2, 17160, Note_on_c, 0, 78, 0
2, 17190, Note_on_c, 0, 77, 40
2, 17205, Note_on_c, 0, 77, 0
2, 17220, Note_on_c, 0, 77, 42
2, 17230, Note_on_c, 0, 77, 0
2, 17230, Note_on_c, 0, 79, 42
2, 17240, Note_on_c, 0, 79, 0
2, 17240, Note_on_c, 0, 77, 42
2, 17280, Note_on_c, 0, 77, 0
2, 17310, Note_on_c, 0, 76, 37
2, 17340, Note_on_c, 0, 76, 0
2, 17340, Note_on_c, 0, 77, 41
2, 17370, Note_on_c, 0, 77, 0
2, 17370, Note_on_c, 0, 79, 46
2, 17400, Note_on_c, 0, 79, 0
2, 17400, Note_on_c, 0, 79, 51
2, 17430, Note_on_c, 0, 79, 0
2, 17430, Note_on_c, 0, 69, 37
2, 17460, Note_on_c, 0, 69, 0
2, 17460, Note_on_c, 0, 77, 44
2, 17490, Note_on_c, 0, 77, 0
2, 17490, Note_on_c, 0, 74, 40
2, 17520, Note_on_c, 0, 74, 0
2, 17520, Note_on_c, 0, 72, 37
2, 17640, Note_on_c, 0, 72, 0
2, 17640, Note_on_c, 0, 71, 36
2, 17650, Note_on_c, 0, 71, 0
2, 17650, Note_on_c, 0, 72, 36
2, 17660, Note_on_c, 0, 72, 0
2, 17660, Note_on_c, 0, 71, 36
2, 17670, Note_on_c, 0, 71, 0
2, 17670, Note_on_c, 0, 72, 36
2, 17680, Note_on_c, 0, 72, 0
2, 17680, Note_on_c, 0, 71, 36
2, 17690, Note_on_c, 0, 71, 0
2, 17690, Note_on_c, 0, 72, 36
2, 17700, Note_on_c, 0, 72, 0
2, 17700, Note_on_c, 0, 71, 36
2, 17710, Note_on_c, 0, 71, 0
2, 17710, Note_on_c, 0, 72, 36
2, 17720, Note_on_c, 0, 72, 0
2, 17720, Note_on_c, 0, 71, 36
2, 17730, Note_on_c, 0, 71, 0
2, 17730, Note_on_c, 0, 69, 36
2, 17745, Note_on_c, 0, 69, 0
2, 17745, Note_on_c, 0, 71, 36
2, 17760, Note_on_c, 0, 71, 0
2, 17790, Note_on_c, 0, 84, 37
2, 17820, Note_on_c, 0, 84, 0
2, 17820, Note_on_c, 0, 88, 39
2, 17850, Note_on_c, 0, 88, 0
2, 17850, Note_on_c, 0, 84, 44
2, 17880, Note_on_c, 0, 84, 0
2, 17880, Note_on_c, 0, 83, 49
2, 17910, Note_on_c, 0, 83, 0
2, 17910, Note_on_c, 0, 81, 48
2, 17940, Note_on_c, 0, 81, 0
2, 17940, Note_on_c, 0, 79, 45
2, 17970, Note_on_c, 0, 79, 0
2, 17970, Note_on_c, 0, 77, 43
2, 18000, Note_on_c, 0, 77, 0
2, 18000, Note_on_c, 0, 76, 40
2, 18120, Note_on_c, 0, 76, 0
2, 18120, Note_on_c, 0, 74, 39
2, 18130, Note_on_c, 0, 74, 0
2, 18130, Note_on_c, 0, 76, 39
2, 18140, Note_on_c, 0, 76, 0
2, 18140, Note_on_c, 0, 74, 39
2, 18150, Note_on_c, 0, 74, 0
2, 18150, Note_on_c, 0, 76, 39
2, 18160, Note_on_c, 0, 76, 0
2, 18160, Note_on_c, 0, 74, 39
2, 18170, Note_on_c, 0, 74, 0
2, 18170, Note_on_c, 0, 76, 39
2, 18180, Note_on_c, 0, 76, 0
2, 18180, Note_on_c, 0, 74, 39
2, 18190, Note_on_c, 0, 74, 0
2, 18190, Note_on_c, 0, 76, 39
2, 18200, Note_on_c, 0, 76, 0
2, 18200, Note_on_c, 0, 74, 39
2, 18210, Note_on_c, 0, 74, 0
2, 18210, Note_on_c, 0, 72, 39
2, 18225, Note_on_c, 0, 72, 0
2, 18225, Note_on_c, 0, 74, 39
2, 18240, Note_on_c, 0, 74, 0
2, 18240, Note_on_c, 0, 72, 40
2, 18300, Note_on_c, 0, 72, 0
2, 18300, Note_on_c, 0, 76, 44
2, 18300, Note_on_c, 0, 72, 44
2, 18360, Note_on_c, 0, 72, 0
2, 18360, Note_on_c, 0, 76, 0
2, 18360, Note_on_c, 0, 72, 44
2, 18360, Note_on_c, 0, 76, 44
2, 18420, Note_on_c, 0, 76, 0
2, 18420, Note_on_c, 0, 72, 0
2, 18420, Note_on_c, 0, 72, 44
2, 18420, Note_on_c, 0, 76, 44
2, 18480, Note_on_c, 0, 76, 0
2, 18480, Note_on_c, 0, 72, 0
2, 18480, Note_on_c, 0, 72, 42
2, 18480, Note_on_c, 0, 76, 42
2, 18490, Note_on_c, 0, 76, 0
2, 18490, Note_on_c, 0, 72, 0
2, 18490, Note_on_c, 0, 74, 41
2, 18490, Note_on_c, 0, 77, 41
2, 18500, Note_on_c, 0, 77, 0
2, 18500, Note_on_c, 0, 74, 0
2, 18500, Note_on_c, 0, 72, 39
2, 18500, Note_on_c, 0, 76, 39
2, 18510, Note_on_c, 0, 76, 0
2, 18510, Note_on_c, 0, 72, 0
2, 18510, Note_on_c, 0, 71, 38
2, 18510, Note_on_c, 0, 74, 38
2, 18525, Note_on_c, 0, 74, 0
2, 18525, Note_on_c, 0, 71, 0
2, 18525, Note_on_c, 0, 72, 43
2, 18525, Note_on_c, 0, 76, 43
2, 18540, Note_on_c, 0, 76, 0
2, 18540, Note_on_c, 0, 72, 0
2, 18540, Note_on_c, 0, 79, 45
2, 18540, Note_on_c, 0, 76, 45
2, 18600, Note_on_c, 0, 76, 0
2, 18600, Note_on_c, 0, 79, 0
2, 18600, Note_on_c, 0, 76, 45
2, 18600, Note_on_c, 0, 72, 45
2, 18660, Note_on_c, 0, 72, 0
2, 18660, Note_on_c, 0, 76, 0
2, 18660, Note_on_c, 0, 69, 45
2, 18660, Note_on_c, 0, 72, 45
2, 18720, Note_on_c, 0, 72, 0
2, 18720, Note_on_c, 0, 69, 0
2, 18720, Note_on_c, 0, 65, 51
2, 18720, Note_on_c, 0, 69, 51
2, 18870, Note_on_c, 0, 69, 0
2, 18870, Note_on_c, 0, 65, 0
2, 18870, Note_on_c, 0, 65, 35
2, 18870, Note_on_c, 0, 69, 35
2, 18900, Note_on_c, 0, 69, 0
2, 18900, Note_on_c, 0, 65, 0
2, 18900, Note_on_c, 0, 67, 38
2, 18900, Note_on_c, 0, 71, 38
2, 18930, Note_on_c, 0, 71, 0
2, 18930, Note_on_c, 0, 67, 0
2, 18930, Note_on_c, 0, 69, 42
2, 18930, Note_on_c, 0, 72, 42
2, 18960, Note_on_c, 0, 72, 0
2, 18960, Note_on_c, 0, 69, 0
2, 18960, Note_on_c, 0, 69, 46
2, 18960, Note_on_c, 0, 72, 46
2, 18990, Note_on_c, 0, 72, 0
2, 18990, Note_on_c, 0, 69, 0
2, 18990, Note_on_c, 0, 67, 44
2, 18990, Note_on_c, 0, 71, 44
2, 19020, Note_on_c, 0, 71, 0
2, 19020, Note_on_c, 0, 67, 0
2, 19020, Note_on_c, 0, 65, 42
2, 19020, Note_on_c, 0, 69, 42
2, 19050, Note_on_c, 0, 69, 0
2, 19050, Note_on_c, 0, 65, 0
2, 19050, Note_on_c, 0, 64, 39
2, 19050, Note_on_c, 0, 67, 39
2, 19080, Note_on_c, 0, 67, 0
2, 19080, Note_on_c, 0, 64, 0
2, 19080, Note_on_c, 0, 64, 43
2, 19080, Note_on_c, 0, 67, 43
2, 19110, Note_on_c, 0, 67, 0
2, 19110, Note_on_c, 0, 64, 0
2, 19110, Note_on_c, 0, 62, 42
2, 19110, Note_on_c, 0, 65, 42
2, 19140, Note_on_c, 0, 65, 0
2, 19140, Note_on_c, 0, 62, 0
2, 19140, Note_on_c, 0, 60, 40
2, 19140, Note_on_c, 0, 64, 40
2, 19170, Note_on_c, 0, 64, 0
2, 19170, Note_on_c, 0, 60, 0
2, 19170, Note_on_c, 0, 59, 38
2, 19170, Note_on_c, 0, 62, 38
2, 19200, Note_on_c, 0, 62, 0
2, 19200, Note_on_c, 0, 59, 0
2, 19260, Note_on_c, 0, 72, 40
2, 19280, Note_on_c, 0, 76, 40
2, 19300, Note_on_c, 0, 76, 0
2, 19300, Note_on_c, 0, 84, 41
2, 19320, Note_on_c, 0, 84, 0
2, 19320, Note_on_c, 0, 72, 0
2, 19320, Note_on_c, 0, 72, 41
2, 19340, Note_on_c, 0, 76, 42
2, 19360, Note_on_c, 0, 76, 0
2, 19360, Note_on_c, 0, 84, 42
2, 19380, Note_on_c, 0, 84, 0
2, 19380, Note_on_c, 0, 72, 0
2, 19380, Note_on_c, 0, 72, 43
2, 19400, Note_on_c, 0, 76, 43
2, 19420, Note_on_c, 0, 76, 0
2, 19420, Note_on_c, 0, 84, 44
2, 19440, Note_on_c, 0, 84, 0
2, 19440, Note_on_c, 0, 72, 0
2, 19440, Note_on_c, 0, 72, 45
2, 19460, Note_on_c, 0, 76, 46
2, 19480, Note_on_c, 0, 76, 0
2, 19480, Note_on_c, 0, 84, 48
2, 19500, Note_on_c, 0, 84, 0
2, 19500, Note_on_c, 0, 72, 0
2, 19500, Note_on_c, 0, 76, 49
2, 19520, Note_on_c, 0, 79, 51
2, 19540, Note_on_c, 0, 79, 0
2, 19540, Note_on_c, 0, 88, 51
2, 19560, Note_on_c, 0, 88, 0
2, 19560, Note_on_c, 0, 76, 0
2, 19560, Note_on_c, 0, 72, 51
2, 19580, Note_on_c, 0, 76, 48
2, 19600, Note_on_c, 0, 76, 0
2, 19600, Note_on_c, 0, 84, 46
2, 19620, Note_on_c, 0, 84, 0
2, 19620, Note_on_c, 0, 72, 0
2, 19620, Note_on_c, 0, 69, 43
2, 19640, Note_on_c, 0, 72, 41
2, 19660, Note_on_c, 0, 72, 0
2, 19660, Note_on_c, 0, 81, 39
2, 19680, Note_on_c, 0, 81, 0
2, 19680, Note_on_c, 0, 69, 0
2, 19680, Note_on_c, 0, 65, 54
2, 19830, Note_on_c, 0, 65, 0
2, 19830, Note_on_c, 0, 69, 51
2, 19830, Note_on_c, 0, 72, 51
2, 19860, Note_on_c, 0, 72, 0
2, 19860, Note_on_c, 0, 69, 0
2, 19860, Note_on_c, 0, 67, 46
2, 19860, Note_on_c, 0, 71, 46
2, 19890, Note_on_c, 0, 71, 0
2, 19890, Note_on_c, 0, 67, 0
2, 19890, Note_on_c, 0, 65, 41
2, 19890, Note_on_c, 0, 69, 41
2, 19920, Note_on_c, 0, 69, 0
2, 19920, Note_on_c, 0, 65, 0
2, 19920, Note_on_c, 0, 65, 48
2, 19920, Note_on_c, 0, 69, 48
2, 19950, Note_on_c, 0, 69, 0
2, 19950, Note_on_c, 0, 65, 0
2, 19950, Note_on_c, 0, 64, 47
2, 19950, Note_on_c, 0, 67, 47
2, 19980, Note_on_c, 0, 67, 0
2, 19980, Note_on_c, 0, 64, 0
2, 19980, Note_on_c, 0, 62, 46
2, 19980, Note_on_c, 0, 65, 46
2, 20010, Note_on_c, 0, 65, 0
2, 20010, Note_on_c, 0, 62, 0
2, 20010, Note_on_c, 0, 60, 45
2, 20010, Note_on_c, 0, 64, 45
2, 20040, Note_on_c, 0, 64, 0
2, 20040, Note_on_c, 0, 60, 0
2, 20040, Note_on_c, 0, 64, 44
2, 20070, Note_on_c, 0, 64, 0
2, 20070, Note_on_c, 0, 62, 43
2, 20100, Note_on_c, 0, 62, 0
2, 20100, Note_on_c, 0, 60, 42
2, 20130, Note_on_c, 0, 60, 0
2, 20130, Note_on_c, 0, 53, 41
2, 20130, Note_on_c, 0, 59, 41
2, 20160, Note_on_c, 0, 59, 0
2, 20160, Note_on_c, 0, 53, 0
2, 20160, Note_on_c, 0, 53, 40
2, 20160, Note_on_c, 0, 59, 40
2, 20400, Note_on_c, 0, 59, 0
2, 20400, Note_on_c, 0, 53, 0
2, 20409, Note_on_c, 0, 52, 40
2, 20412, Note_on_c, 0, 55, 40
2, 20415, Note_on_c, 0, 60, 40
2, 20580, Note_on_c, 0, 60, 0
2, 20580, Note_on_c, 0, 55, 0
2, 20580, Note_on_c, 0, 52, 0
2, 20652, Note_on_c, 0, 64, 40
2, 20655, Note_on_c, 0, 67, 40
2, 20658, Note_on_c, 0, 72, 40
2, 20730, Note_on_c, 0, 67, 40
2, 20742, Note_on_c, 0, 64, 0
2, 20745, Note_on_c, 0, 67, 0
2, 20748, Note_on_c, 0, 72, 0
2, 20760, Note_on_c, 0, 67, 0
2, 20760, Note_on_c, 0, 77, 49
2, 20790, Note_on_c, 0, 77, 0
2, 20790, Note_on_c, 0, 76, 45
2, 20820, Note_on_c, 0, 76, 0
2, 20820, Note_on_c, 0, 74, 41
2, 20850, Note_on_c, 0, 74, 0
2, 20850, Note_on_c, 0, 72, 38
2, 20880, Note_on_c, 0, 72, 0
2, 20880, Note_on_c, 0, 79, 45
2, 21000, Note_on_c, 0, 79, 0
2, 21120, Note_on_c, 0, 77, 39
2, 21210, Note_on_c, 0, 77, 0
2, 21210, Note_on_c, 0, 72, 39
2, 21240, Note_on_c, 0, 72, 0
2, 21240, Note_on_c, 0, 82, 48
2, 21270, Note_on_c, 0, 82, 0
2, 21270, Note_on_c, 0, 81, 45
2, 21300, Note_on_c, 0, 81, 0
2, 21300, Note_on_c, 0, 79, 42
2, 21330, Note_on_c, 0, 79, 0
2, 21330, Note_on_c, 0, 77, 39
2, 21360, Note_on_c, 0, 77, 0
2, 21360, Note_on_c, 0, 84, 38
2, 21480, Note_on_c, 0, 84, 0
2, 21600, Note_on_c, 0, 83, 38
2, 21610, Note_on_c, 0, 83, 0
2, 21610, Note_on_c, 0, 84, 38
2, 21620, Note_on_c, 0, 84, 0
2, 21620, Note_on_c, 0, 86, 38
2, 21630, Note_on_c, 0, 86, 0
2, 21630, Note_on_c, 0, 84, 38
2, 21810, Note_on_c, 0, 84, 0
2, 21810, Note_on_c, 0, 82, 48
2, 21820, Note_on_c, 0, 82, 0
2, 21820, Note_on_c, 0, 81, 46
2, 21830, Note_on_c, 0, 81, 0
2, 21830, Note_on_c, 0, 79, 45
2, 21840, Note_on_c, 0, 79, 0
2, 21840, Note_on_c, 0, 78, 44
2, 21870, Note_on_c, 0, 78, 0
2, 21870, Note_on_c, 0, 75, 39
2, 21900, Note_on_c, 0, 75, 0
2, 21900, Note_on_c, 0, 74, 39
2, 21930, Note_on_c, 0, 74, 0
2, 21930, Note_on_c, 0, 72, 42
2, 21960, Note_on_c, 0, 72, 0
2, 21960, Note_on_c, 0, 70, 46
2, 21990, Note_on_c, 0, 70, 0
2, 21990, Note_on_c, 0, 69, 46
2, 22020, Note_on_c, 0, 69, 0
2, 22020, Note_on_c, 0, 67, 46
2, 22050, Note_on_c, 0, 67, 0
2, 22050, Note_on_c, 0, 66, 46
2, 22080, Note_on_c, 0, 66, 0
2, 22080, Note_on_c, 0, 67, 46
2, 22110, Note_on_c, 0, 67, 0
2, 22140, Note_on_c, 0, 70, 44
2, 22170, Note_on_c, 0, 70, 0
2, 22200, Note_on_c, 0, 74, 42
2, 22230, Note_on_c, 0, 74, 0
2, 22260, Note_on_c, 0, 79, 40
2, 22290, Note_on_c, 0, 79, 0
2, 22320, Note_on_c, 0, 82, 39
2, 22440, Note_on_c, 0, 82, 0
2, 22560, Note_on_c, 0, 86, 41
2, 22620, Note_on_c, 0, 86, 0
2, 22620, Note_on_c, 0, 86, 48
2, 22740, Note_on_c, 0, 86, 0
2, 22740, Note_on_c, 0, 84, 40
2, 22755, Note_on_c, 0, 84, 0
2, 22755, Note_on_c, 0, 82, 39
2, 22770, Note_on_c, 0, 82, 0
2, 22770, Note_on_c, 0, 81, 38
2, 22785, Note_on_c, 0, 81, 0
2, 22785, Note_on_c, 0, 79, 37
2, 22800, Note_on_c, 0, 79, 0
2, 22800, Note_on_c, 0, 84, 46
2, 22860, Note_on_c, 0, 84, 0
2, 22860, Note_on_c, 0, 84, 40
2, 22980, Note_on_c, 0, 84, 0
2, 22980, Note_on_c, 0, 82, 45
2, 22995, Note_on_c, 0, 82, 0
2, 22995, Note_on_c, 0, 81, 44
2, 23010, Note_on_c, 0, 81, 0
2, 23010, Note_on_c, 0, 79, 42
2, 23025, Note_on_c, 0, 79, 0
2, 23025, Note_on_c, 0, 77, 40
2, 23040, Note_on_c, 0, 77, 0
2, 23040, Note_on_c, 0, 84, 48
2, 23070, Note_on_c, 0, 84, 0
2, 23070, Note_on_c, 0, 82, 46
2, 23100, Note_on_c, 0, 82, 0
2, 23100, Note_on_c, 0, 82, 43
2, 23130, Note_on_c, 0, 82, 0
2, 23130, Note_on_c, 0, 81, 41
2, 23160, Note_on_c, 0, 81, 0
2, 23160, Note_on_c, 0, 81, 38
2, 23220, Note_on_c, 0, 81, 0
2, 23280, Note_on_c, 0, 84, 40
2, 23310, Note_on_c, 0, 84, 0
2, 23310, Note_on_c, 0, 82, 39
2, 23340, Note_on_c, 0, 82, 0
2, 23340, Note_on_c, 0, 82, 38
2, 23370, Note_on_c, 0, 82, 0
2, 23370, Note_on_c, 0, 81, 37
2, 23400, Note_on_c, 0, 81, 0
2, 23400, Note_on_c, 0, 81, 36
2, 23460, Note_on_c, 0, 81, 0
2, 23520, Note_on_c, 0, 84, 47
2, 23525, Note_on_c, 0, 84, 0
2, 23525, Note_on_c, 0, 86, 47
2, 23530, Note_on_c, 0, 84, 46
2, 23533, Note_on_c, 0, 86, 0
2, 23550, Note_on_c, 0, 84, 0
2, 23550, Note_on_c, 0, 82, 44
2, 23580, Note_on_c, 0, 82, 0
2, 23580, Note_on_c, 0, 82, 40
2, 23585, Note_on_c, 0, 82, 0
2, 23585, Note_on_c, 0, 84, 40
2, 23590, Note_on_c, 0, 84, 0
2, 23590, Note_on_c, 0, 82, 39
2, 23610, Note_on_c, 0, 82, 0
2, 23610, Note_on_c, 0, 81, 37
2, 23640, Note_on_c, 0, 81, 0
2, 23640, Note_on_c, 0, 81, 37
2, 23700, Note_on_c, 0, 81, 0
2, 23760, Note_on_c, 0, 82, 44
2, 23765, Note_on_c, 0, 81, 44
2, 23775, Note_on_c, 0, 82, 0
2, 23790, Note_on_c, 0, 79, 42
2, 23795, Note_on_c, 0, 81, 0
2, 23820, Note_on_c, 0, 79, 0
2, 23820, Note_on_c, 0, 81, 40
2, 23825, Note_on_c, 0, 79, 40
2, 23835, Note_on_c, 0, 81, 0
2, 23850, Note_on_c, 0, 77, 38
2, 23855, Note_on_c, 0, 79, 0
2, 23880, Note_on_c, 0, 77, 0
2, 23880, Note_on_c, 0, 77, 40
2, 23940, Note_on_c, 0, 77, 0
2, 24000, Note_on_c, 0, 77, 40
2, 24030, Note_on_c, 0, 77, 0
2, 24030, Note_on_c, 0, 76, 39
2, 24060, Note_on_c, 0, 76, 0
2, 24060, Note_on_c, 0, 74, 39
2, 24090, Note_on_c, 0, 74, 0
2, 24090, Note_on_c, 0, 72, 39
2, 24120, Note_on_c, 0, 72, 0
2, 24120, Note_on_c, 0, 72, 38
2, 24180, Note_on_c, 0, 72, 0
2, 24180, Note_on_c, 0, 72, 38
2, 24240, Note_on_c, 0, 72, 0
2, 24240, Note_on_c, 0, 71, 44
2, 24250, Note_on_c, 0, 71, 0
2, 24250, Note_on_c, 0, 72, 44
2, 24260, Note_on_c, 0, 72, 0
2, 24260, Note_on_c, 0, 74, 44
2, 24270, Note_on_c, 0, 74, 0
2, 24270, Note_on_c, 0, 72, 44
2, 24360, Note_on_c, 0, 72, 0
2, 24480, Note_on_c, 0, 72, 47
2, 24600, Note_on_c, 0, 72, 0
2, 24600, Note_on_c, 0, 70, 43
2, 24630, Note_on_c, 0, 70, 0
2, 24630, Note_on_c, 0, 69, 42
2, 24660, Note_on_c, 0, 69, 0
2, 24660, Note_on_c, 0, 67, 42
2, 24690, Note_on_c, 0, 67, 0
2, 24690, Note_on_c, 0, 65, 41
2, 24720, Note_on_c, 0, 65, 0
2, 24720, Note_on_c, 0, 65, 40
2, 24840, Note_on_c, 0, 65, 0
2, 24840, Note_on_c, 0, 64, 39
2, 24850, Note_on_c, 0, 64, 0
2, 24850, Note_on_c, 0, 65, 39
2, 24860, Note_on_c, 0, 65, 0
2, 24860, Note_on_c, 0, 64, 39
2, 24930, Note_on_c, 0, 64, 0
2, 24930, Note_on_c, 0, 64, 39
2, 24945, Note_on_c, 0, 64, 0
2, 24960, Note_on_c, 0, 65, 38
2, 24990, Note_on_c, 0, 65, 0
2, 24990, Note_on_c, 0, 67, 39
2, 25020, Note_on_c, 0, 67, 0
2, 25020, Note_on_c, 0, 69, 41
2, 25050, Note_on_c, 0, 69, 0
2, 25050, Note_on_c, 0, 70, 43
2, 25080, Note_on_c, 0, 70, 0
2, 25080, Note_on_c, 0, 72, 44
2, 25110, Note_on_c, 0, 72, 0
2, 25110, Note_on_c, 0, 74, 46
2, 25140, Note_on_c, 0, 74, 0
2, 25140, Note_on_c, 0, 76, 48
2, 25170, Note_on_c, 0, 76, 0
2, 25170, Note_on_c, 0, 77, 49
2, 25200, Note_on_c, 0, 77, 0
2, 25200, Note_on_c, 0, 77, 50
2, 25230, Note_on_c, 0, 77, 0
2, 25230, Note_on_c, 0, 76, 49
2, 25260, Note_on_c, 0, 76, 0
2, 25260, Note_on_c, 0, 74, 47
2, 25290, Note_on_c, 0, 74, 0
2, 25290, Note_on_c, 0, 72, 46
2, 25320, Note_on_c, 0, 72, 0
2, 25320, Note_on_c, 0, 72, 44
2, 25350, Note_on_c, 0, 72, 0
2, 25350, Note_on_c, 0, 70, 43
2, 25380, Note_on_c, 0, 70, 0
2, 25380, Note_on_c, 0, 69, 41
2, 25410, Note_on_c, 0, 69, 0
2, 25410, Note_on_c, 0, 67, 40
2, 25440, Note_on_c, 0, 67, 0
2, 25440, Note_on_c, 0, 84, 46
2, 25530, Note_on_c, 0, 84, 0
2, 25530, Note_on_c, 0, 86, 46
2, 25545, Note_on_c, 0, 86, 0
2, 25545, Note_on_c, 0, 84, 46
2, 25560, Note_on_c, 0, 84, 0
2, 25560, Note_on_c, 0, 82, 45
2, 25575, Note_on_c, 0, 82, 0
2, 25590, Note_on_c, 0, 81, 44
2, 25605, Note_on_c, 0, 81, 0
2, 25620, Note_on_c, 0, 79, 42
2, 25635, Note_on_c, 0, 79, 0
2, 25650, Note_on_c, 0, 77, 41
2, 25665, Note_on_c, 0, 77, 0
2, 25680, Note_on_c, 0, 77, 39
2, 25800, Note_on_c, 0, 77, 0
2, 25800, Note_on_c, 0, 76, 39
2, 25810, Note_on_c, 0, 76, 0
2, 25810, Note_on_c, 0, 77, 39
2, 25820, Note_on_c, 0, 77, 0
2, 25820, Note_on_c, 0, 76, 39
2, 25890, Note_on_c, 0, 76, 0
2, 25890, Note_on_c, 0, 82, 47
2, 25905, Note_on_c, 0, 82, 0
2, 25920, Note_on_c, 0, 81, 41
2, 25935, Note_on_c, 0, 81, 0
2, 25950, Note_on_c, 0, 82, 40
2, 25965, Note_on_c, 0, 82, 0
2, 25980, Note_on_c, 0, 84, 40
2, 25995, Note_on_c, 0, 84, 0
2, 26010, Note_on_c, 0, 86, 40
2, 26025, Note_on_c, 0, 86, 0
2, 26040, Note_on_c, 0, 88, 40
2, 26055, Note_on_c, 0, 88, 0
2, 26070, Note_on_c, 0, 89, 40
2, 26085, Note_on_c, 0, 89, 0
2, 26100, Note_on_c, 0, 88, 40
2, 26115, Note_on_c, 0, 88, 0
2, 26130, Note_on_c, 0, 89, 40
2, 26145, Note_on_c, 0, 89, 0
2, 26160, Note_on_c, 0, 89, 49
2, 26190, Note_on_c, 0, 89, 0
2, 26190, Note_on_c, 0, 88, 46
2, 26220, Note_on_c, 0, 88, 0
2, 26220, Note_on_c, 0, 86, 43
2, 26250, Note_on_c, 0, 86, 0
2, 26250, Note_on_c, 0, 84, 40
2, 26280, Note_on_c, 0, 84, 0
2, 26280, Note_on_c, 0, 84, 47
2, 26310, Note_on_c, 0, 84, 0
2, 26310, Note_on_c, 0, 82, 45
2, 26340, Note_on_c, 0, 82, 0
2, 26340, Note_on_c, 0, 81, 43
2, 26370, Note_on_c, 0, 81, 0
2, 26370, Note_on_c, 0, 79, 40
2, 26400, Note_on_c, 0, 79, 0
2, 26400, Note_on_c, 0, 81, 40
2, 26430, Note_on_c, 0, 81, 0
2, 26430, Note_on_c, 0, 82, 42
2, 26460, Note_on_c, 0, 82, 0
2, 26460, Note_on_c, 0, 81, 44
2, 26490, Note_on_c, 0, 81, 0
2, 26490, Note_on_c, 0, 82, 46
2, 26520, Note_on_c, 0, 82, 0
2, 26520, Note_on_c, 0, 84, 48
2, 26550, Note_on_c, 0, 84, 0
2, 26550, Note_on_c, 0, 86, 50
2, 26580, Note_on_c, 0, 86, 0
2, 26580, Note_on_c, 0, 84, 52
2, 26610, Note_on_c, 0, 84, 0
2, 26610, Note_on_c, 0, 86, 53
2, 26640, Note_on_c, 0, 86, 0
2, 26640, Note_on_c, 0, 75, 55
2, 26640, Note_on_c, 0, 87, 55
2, 26880, Note_on_c, 0, 87, 0
2, 26880, Note_on_c, 0, 75, 0
2, 26910, Note_on_c, 0, 86, 38
2, 26940, Note_on_c, 0, 86, 0
2, 26940, Note_on_c, 0, 85, 38
2, 26970, Note_on_c, 0, 85, 0
2, 26970, Note_on_c, 0, 86, 38
2, 27000, Note_on_c, 0, 86, 0
2, 27030, Note_on_c, 0, 84, 46
2, 27060, Note_on_c, 0, 84, 0
2, 27060, Note_on_c, 0, 83, 46
2, 27090, Note_on_c, 0, 83, 0
2, 27090, Note_on_c, 0, 84, 46
2, 27120, Note_on_c, 0, 84, 0
2, 27150, Note_on_c, 0, 83, 45
2, 27165, Note_on_c, 0, 83, 0
2, 27180, Note_on_c, 0, 83, 42
2, 27190, Note_on_c, 0, 83, 0
2, 27190, Note_on_c, 0, 84, 42
2, 27200, Note_on_c, 0, 84, 0
2, 27200, Note_on_c, 0, 83, 42
2, 27240, Note_on_c, 0, 83, 0
2, 27270, Note_on_c, 0, 82, 40
2, 27285, Note_on_c, 0, 82, 0
2, 27300, Note_on_c, 0, 82, 42
2, 27310, Note_on_c, 0, 82, 0
2, 27310, Note_on_c, 0, 84, 42
2, 27320, Note_on_c, 0, 84, 0
2, 27320, Note_on_c, 0, 82, 42
2, 27360, Note_on_c, 0, 82, 0
2, 27390, Note_on_c, 0, 81, 37
2, 27420, Note_on_c, 0, 81, 0
2, 27420, Note_on_c, 0, 82, 41
2, 27450, Note_on_c, 0, 82, 0
2, 27450, Note_on_c, 0, 84, 46
2, 27480, Note_on_c, 0, 84, 0
2, 27480, Note_on_c, 0, 84, 51
2, 27510, Note_on_c, 0, 84, 0
2, 27510, Note_on_c, 0, 74, 37
2, 27540, Note_on_c, 0, 74, 0
2, 27540, Note_on_c, 0, 82, 44
2, 27570, Note_on_c, 0, 82, 0
2, 27570, Note_on_c, 0, 79, 40
2, 27600, Note_on_c, 0, 79, 0
2, 27600, Note_on_c, 0, 77, 37
2, 27720, Note_on_c, 0, 77, 0
2, 27720, Note_on_c, 0, 76, 36
2, 27730, Note_on_c, 0, 76, 0
2, 27730, Note_on_c, 0, 77, 36
2, 27740, Note_on_c, 0, 77, 0
2, 27740, Note_on_c, 0, 76, 36
2, 27750, Note_on_c, 0, 76, 0
2, 27750, Note_on_c, 0, 77, 36
2, 27760, Note_on_c, 0, 77, 0
2, 27760, Note_on_c, 0, 76, 36
2, 27770, Note_on_c, 0, 76, 0
2, 27770, Note_on_c, 0, 77, 36
2, 27780, Note_on_c, 0, 77, 0
2, 27780, Note_on_c, 0, 76, 36
2, 27790, Note_on_c, 0, 76, 0
2, 27790, Note_on_c, 0, 77, 36
2, 27800, Note_on_c, 0, 77, 0
2, 27800, Note_on_c, 0, 76, 36
2, 27810, Note_on_c, 0, 76, 0
2, 27810, Note_on_c, 0, 74, 36
2, 27825, Note_on_c, 0, 74, 0
2, 27825, Note_on_c, 0, 76, 36
2, 27840, Note_on_c, 0, 76, 0
2, 27870, Note_on_c, 0, 84, 37
2, 27900, Note_on_c, 0, 84, 0
2, 27900, Note_on_c, 0, 81, 39
2, 27930, Note_on_c, 0, 81, 0
2, 27930, Note_on_c, 0, 77, 44
2, 27960, Note_on_c, 0, 77, 0
2, 27960, Note_on_c, 0, 75, 49
2, 27990, Note_on_c, 0, 75, 0
2, 27990, Note_on_c, 0, 74, 48
2, 28020, Note_on_c, 0, 74, 0
2, 28020, Note_on_c, 0, 85, 45
2, 28050, Note_on_c, 0, 85, 0
2, 28050, Note_on_c, 0, 86, 43
2, 28080, Note_on_c, 0, 86, 0
2, 28080, Note_on_c, 0, 77, 40
2, 28200, Note_on_c, 0, 77, 0
2, 28200, Note_on_c, 0, 79, 39
2, 28210, Note_on_c, 0, 79, 0
2, 28210, Note_on_c, 0, 81, 39
2, 28220, Note_on_c, 0, 81, 0
2, 28220, Note_on_c, 0, 79, 39
2, 28230, Note_on_c, 0, 79, 0
2, 28230, Note_on_c, 0, 81, 39
2, 28240, Note_on_c, 0, 81, 0
2, 28240, Note_on_c, 0, 79, 39
2, 28250, Note_on_c, 0, 79, 0
2, 28250, Note_on_c, 0, 81, 39
2, 28260, Note_on_c, 0, 81, 0
2, 28260, Note_on_c, 0, 79, 39
2, 28270, Note_on_c, 0, 79, 0
2, 28270, Note_on_c, 0, 81, 39
2, 28280, Note_on_c, 0, 81, 0
2, 28280, Note_on_c, 0, 79, 39
2, 28290, Note_on_c, 0, 79, 0
2, 28290, Note_on_c, 0, 77, 39
2, 28305, Note_on_c, 0, 77, 0
2, 28305, Note_on_c, 0, 79, 39
2, 28320, Note_on_c, 0, 79, 0
2, 28320, Note_on_c, 0, 77, 40
2, 28380, Note_on_c, 0, 77, 0
2, 28380, Note_on_c, 0, 69, 44
2, 28380, Note_on_c, 0, 65, 44
2, 28440, Note_on_c, 0, 65, 0
2, 28440, Note_on_c, 0, 69, 0
2, 28440, Note_on_c, 0, 65, 44
2, 28440, Note_on_c, 0, 69, 44
2, 28500, Note_on_c, 0, 69, 0
2, 28500, Note_on_c, 0, 65, 0
2, 28500, Note_on_c, 0, 65, 44
2, 28500, Note_on_c, 0, 69, 44
2, 28560, Note_on_c, 0, 69, 0
2, 28560, Note_on_c, 0, 65, 0
2, 28560, Note_on_c, 0, 65, 42
2, 28560, Note_on_c, 0, 69, 42
2, 28570, Note_on_c, 0, 69, 0
2, 28570, Note_on_c, 0, 65, 0
2, 28570, Note_on_c, 0, 67, 41
2, 28570, Note_on_c, 0, 70, 41
2, 28580, Note_on_c, 0, 70, 0
2, 28580, Note_on_c, 0, 67, 0
2, 28580, Note_on_c, 0, 65, 39
2, 28580, Note_on_c, 0, 69, 39
2, 28590, Note_on_c, 0, 69, 0
2, 28590, Note_on_c, 0, 65, 0
2, 28590, Note_on_c, 0, 64, 38
2, 28590, Note_on_c, 0, 67, 38
2, 28605, Note_on_c, 0, 67, 0
2, 28605, Note_on_c, 0, 64, 0
2, 28605, Note_on_c, 0, 65, 43
2, 28605, Note_on_c, 0, 69, 43
2, 28620, Note_on_c, 0, 69, 0
2, 28620, Note_on_c, 0, 65, 0
2, 28620, Note_on_c, 0, 72, 45
2, 28620, Note_on_c, 0, 69, 45
2, 28680, Note_on_c, 0, 69, 0
2, 28680, Note_on_c, 0, 72, 0
2, 28680, Note_on_c, 0, 69, 45
2, 28680, Note_on_c, 0, 65, 45
2, 28740, Note_on_c, 0, 65, 0
2, 28740, Note_on_c, 0, 69, 0
2, 28740, Note_on_c, 0, 62, 45
2, 28740, Note_on_c, 0, 65, 45
2, 28800, Note_on_c, 0, 65, 0
2, 28800, Note_on_c, 0, 62, 0
2, 28800, Note_on_c, 0, 58, 51
2, 28800, Note_on_c, 0, 62, 51
2, 28950, Note_on_c, 0, 62, 0
2, 28950, Note_on_c, 0, 58, 0
2, 28950, Note_on_c, 0, 58, 35
2, 28950, Note_on_c, 0, 62, 35
2, 28980, Note_on_c, 0, 62, 0
2, 28980, Note_on_c, 0, 58, 0
2, 28980, Note_on_c, 0, 60, 38
2, 28980, Note_on_c, 0, 64, 38
2, 29010, Note_on_c, 0, 64, 0
2, 29010, Note_on_c, 0, 60, 0
2, 29010, Note_on_c, 0, 62, 42
2, 29010, Note_on_c, 0, 65, 42
2, 29040, Note_on_c, 0, 65, 0
2, 29040, Note_on_c, 0, 62, 0
2, 29040, Note_on_c, 0, 62, 46
2, 29040, Note_on_c, 0, 65, 46
2, 29070, Note_on_c, 0, 65, 0
2, 29070, Note_on_c, 0, 62, 0
2, 29070, Note_on_c, 0, 60, 44
2, 29070, Note_on_c, 0, 64, 44
2, 29100, Note_on_c, 0, 64, 0
2, 29100, Note_on_c, 0, 60, 0
2, 29100, Note_on_c, 0, 58, 42
2, 29100, Note_on_c, 0, 62, 42
2, 29130, Note_on_c, 0, 62, 0
2, 29130, Note_on_c, 0, 58, 0
2, 29130, Note_on_c, 0, 57, 39
2, 29130, Note_on_c, 0, 60, 39
2, 29160, Note_on_c, 0, 60, 0
2, 29160, Note_on_c, 0, 57, 0
2, 29160, Note_on_c, 0, 57, 43
2, 29160, Note_on_c, 0, 60, 43
2, 29190, Note_on_c, 0, 60, 0
2, 29190, Note_on_c, 0, 57, 0
2, 29190, Note_on_c, 0, 55, 42
2, 29190, Note_on_c, 0, 58, 42
2, 29220, Note_on_c, 0, 58, 0
2, 29220, Note_on_c, 0, 55, 0
2, 29220, Note_on_c, 0, 53, 40
2, 29220, Note_on_c, 0, 57, 40
2, 29250, Note_on_c, 0, 57, 0
2, 29250, Note_on_c, 0, 53, 0
2, 29250, Note_on_c, 0, 52, 38
2, 29250, Note_on_c, 0, 55, 38
2, 29280, Note_on_c, 0, 55, 0
2, 29280, Note_on_c, 0, 52, 0
2, 29340, Note_on_c, 0, 65, 40
2, 29360, Note_on_c, 0, 69, 40
2, 29380, Note_on_c, 0, 69, 0
2, 29380, Note_on_c, 0, 77, 41
2, 29400, Note_on_c, 0, 77, 0
2, 29400, Note_on_c, 0, 65, 0
2, 29400, Note_on_c, 0, 65, 41
2, 29420, Note_on_c, 0, 69, 42
2, 29440, Note_on_c, 0, 69, 0
2, 29440, Note_on_c, 0, 77, 42
2, 29460, Note_on_c, 0, 77, 0
2, 29460, Note_on_c, 0, 65, 0
2, 29460, Note_on_c, 0, 65, 43
2, 29480, Note_on_c, 0, 69, 43
2, 29500, Note_on_c, 0, 69, 0
2, 29500, Note_on_c, 0, 77, 44
2, 29520, Note_on_c, 0, 77, 0
2, 29520, Note_on_c, 0, 65, 0
2, 29520, Note_on_c, 0, 65, 45
2, 29540, Note_on_c, 0, 69, 46
2, 29560, Note_on_c, 0, 69, 0
2, 29560, Note_on_c, 0, 77, 48
2, 29580, Note_on_c, 0, 77, 0
2, 29580, Note_on_c, 0, 65, 0
2, 29580, Note_on_c, 0, 69, 49
2, 29600, Note_on_c, 0, 72, 51
2, 29620, Note_on_c, 0, 72, 0
2, 29620, Note_on_c, 0, 81, 51
2, 29640, Note_on_c, 0, 81, 0
2, 29640, Note_on_c, 0, 69, 0
2, 29640, Note_on_c, 0, 65, 51
2, 29660, Note_on_c, 0, 69, 48
2, 29680, Note_on_c, 0, 69, 0
2, 29680, Note_on_c, 0, 77, 46
2, 29700, Note_on_c, 0, 77, 0
2, 29700, Note_on_c, 0, 65, 0
2, 29700, Note_on_c, 0, 62, 43
2, 29720, Note_on_c, 0, 65, 41
2, 29740, Note_on_c, 0, 65, 0
2, 29740, Note_on_c, 0, 74, 39
2, 29760, Note_on_c, 0, 74, 0
2, 29760, Note_on_c, 0, 62, 0
2, 29760, Note_on_c, 0, 58, 54
2, 29910, Note_on_c, 0, 58, 0
2, 29910, Note_on_c, 0, 74, 51
2, 29910, Note_on_c, 0, 77, 51
2, 29940, Note_on_c, 0, 77, 0
2, 29940, Note_on_c, 0, 74, 0
2, 29940, Note_on_c, 0, 72, 46
2, 29940, Note_on_c, 0, 76, 46
2, 29970, Note_on_c, 0, 76, 0
2, 29970, Note_on_c, 0, 72, 0
2, 29970, Note_on_c, 0, 70, 41
2, 29970, Note_on_c, 0, 74, 41
2, 30000, Note_on_c, 0, 74, 0
2, 30000, Note_on_c, 0, 70, 0
2, 30000, Note_on_c, 0, 70, 48
2, 30000, Note_on_c, 0, 74, 48
2, 30030, Note_on_c, 0, 74, 0
2, 30030, Note_on_c, 0, 70, 0
2, 30030, Note_on_c, 0, 69, 47
2, 30030, Note_on_c, 0, 72, 47
2, 30060, Note_on_c, 0, 72, 0
2, 30060, Note_on_c, 0, 69, 0
2, 30060, Note_on_c, 0, 67, 46
2, 30060, Note_on_c, 0, 70, 46
2, 30090, Note_on_c, 0, 70, 0
2, 30090, Note_on_c, 0, 67, 0
2, 30090, Note_on_c, 0, 65, 45
2, 30090, Note_on_c, 0, 69, 45
2, 30120, Note_on_c, 0, 69, 0
2, 30120, Note_on_c, 0, 65, 0
2, 30120, Note_on_c, 0, 69, 44
2, 30150, Note_on_c, 0, 69, 0
2, 30150, Note_on_c, 0, 67, 43
2, 30180, Note_on_c, 0, 67, 0
2, 30180, Note_on_c, 0, 65, 42
2, 30210, Note_on_c, 0, 65, 0
2, 30210, Note_on_c, 0, 58, 41
2, 30210, Note_on_c, 0, 64, 41
2, 30240, Note_on_c, 0, 64, 0
2, 30240, Note_on_c, 0, 58, 0
2, 30240, Note_on_c, 0, 58, 40
2, 30240, Note_on_c, 0, 64, 40
2, 30480, Note_on_c, 0, 64, 0
2, 30480, Note_on_c, 0, 58, 0
2, 30489, Note_on_c, 0, 57, 40
2, 30492, Note_on_c, 0, 60, 40
2, 30495, Note_on_c, 0, 65, 40
2, 30660, Note_on_c, 0, 65, 0
2, 30660, Note_on_c, 0, 60, 0
2, 30660, Note_on_c, 0, 57, 0
2, 30660, End_track
3, 0, Start_track
3, 120, Control_c, 0, 0, 81
3, 121, Control_c, 0, 32, 3
3, 122, Program_c, 0, 0
3, 123, Control_c, 0, 7, 127
3, 360, Control_c, 0, 91, 125
3, 480, Note_on_c, 0, 41, 45
3, 483, Note_on_c, 0, 45, 45
3, 486, Note_on_c, 0, 48, 45
3, 489, Note_on_c, 0, 53, 45
3, 600, Note_on_c, 0, 53, 0
3, 600, Note_on_c, 0, 41, 0
3, 600, Note_on_c, 0, 45, 0
3, 600, Note_on_c, 0, 48, 0
3, 720, Note_on_c, 0, 58, 38
3, 720, Note_on_c, 0, 55, 38
3, 720, Note_on_c, 0, 48, 38
3, 810, Note_on_c, 0, 48, 0
3, 810, Note_on_c, 0, 55, 0
3, 810, Note_on_c, 0, 58, 0
3, 960, Note_on_c, 0, 52, 40
3, 963, Note_on_c, 0, 55, 40
3, 966, Note_on_c, 0, 58, 40
3, 969, Note_on_c, 0, 60, 40
3, 1080, Note_on_c, 0, 60, 0
3, 1080, Note_on_c, 0, 52, 0
3, 1080, Note_on_c, 0, 55, 0
3, 1080, Note_on_c, 0, 58, 0
3, 1200, Note_on_c, 0, 60, 38
3, 1200, Note_on_c, 0, 53, 38
3, 1290, Note_on_c, 0, 53, 0
3, 1290, Note_on_c, 0, 60, 0
3, 1440, Note_on_c, 0, 58, 36
3, 1440, Note_on_c, 0, 65, 36
3, 1680, Note_on_c, 0, 58, 0
3, 1680, Note_on_c, 0, 57, 36
3, 1800, Note_on_c, 0, 57, 0
3, 1800, Note_on_c, 0, 65, 0
3, 1920, Note_on_c, 0, 46, 48
3, 1920, Note_on_c, 0, 58, 48
3, 2160, Note_on_c, 0, 58, 0
3, 2160, Note_on_c, 0, 46, 0
3, 2160, Note_on_c, 0, 48, 47
3, 2160, Note_on_c, 0, 57, 47
3, 2280, Note_on_c, 0, 57, 0
3, 2280, Note_on_c, 0, 55, 42
3, 2400, Note_on_c, 0, 55, 0
3, 2400, Note_on_c, 0, 48, 0
3, 2400, Note_on_c, 0, 41, 45
3, 2403, Note_on_c, 0, 45, 45
3, 2406, Note_on_c, 0, 48, 45
3, 2409, Note_on_c, 0, 53, 45
3, 2520, Note_on_c, 0, 53, 0
3, 2520, Note_on_c, 0, 41, 0
3, 2520, Note_on_c, 0, 45, 0
3, 2520, Note_on_c, 0, 48, 0
3, 2640, Note_on_c, 0, 48, 46
3, 2640, Note_on_c, 0, 58, 46
3, 2700, Note_on_c, 0, 58, 0
3, 2700, Note_on_c, 0, 57, 44
3, 2760, Note_on_c, 0, 57, 0
3, 2760, Note_on_c, 0, 55, 42
3, 2820, Note_on_c, 0, 55, 0
3, 2820, Note_on_c, 0, 53, 40
3, 2880, Note_on_c, 0, 53, 0
3, 2880, Note_on_c, 0, 55, 38
3, 2880, Note_on_c, 0, 52, 38
3, 3120, Note_on_c, 0, 52, 0
3, 3120, Note_on_c, 0, 55, 0
3, 3120, Note_on_c, 0, 48, 0
3, 3120, Note_on_c, 0, 53, 36
3, 3120, Note_on_c, 0, 41, 36
3, 3210, Note_on_c, 0, 41, 0
3, 3210, Note_on_c, 0, 53, 0
3, 3360, Note_on_c, 0, 58, 46
3, 3360, Note_on_c, 0, 46, 46
3, 3480, Note_on_c, 0, 46, 0
3, 3480, Note_on_c, 0, 58, 0
3, 3720, Note_on_c, 0, 70, 47
3, 3720, Note_on_c, 0, 58, 47
3, 3840, Note_on_c, 0, 58, 0
3, 3840, Note_on_c, 0, 70, 0
3, 3840, Note_on_c, 0, 69, 48
3, 3840, Note_on_c, 0, 60, 48
3, 4080, Note_on_c, 0, 69, 0
3, 4080, Note_on_c, 0, 67, 37
3, 4200, Note_on_c, 0, 67, 0
3, 4200, Note_on_c, 0, 60, 0
3, 4320, Note_on_c, 0, 60, 36
3, 4350, Note_on_c, 0, 67, 36
3, 4380, Note_on_c, 0, 67, 0
3, 4380, Note_on_c, 0, 64, 36
3, 4410, Note_on_c, 0, 64, 0
3, 4410, Note_on_c, 0, 67, 36
3, 4440, Note_on_c, 0, 67, 0
3, 4440, Note_on_c, 0, 60, 0
3, 4440, Note_on_c, 0, 60, 36
3, 4470, Note_on_c, 0, 67, 36
3, 4500, Note_on_c, 0, 67, 0
3, 4500, Note_on_c, 0, 64, 36
3, 4530, Note_on_c, 0, 64, 0
3, 4530, Note_on_c, 0, 67, 36
3, 4560, Note_on_c, 0, 67, 0
3, 4560, Note_on_c, 0, 60, 0
3, 4560, Note_on_c, 0, 62, 36
3, 4590, Note_on_c, 0, 67, 36
3, 4620, Note_on_c, 0, 67, 0
3, 4620, Note_on_c, 0, 65, 36
3, 4650, Note_on_c, 0, 65, 0
3, 4650, Note_on_c, 0, 67, 36
3, 4680, Note_on_c, 0, 67, 0
3, 4680, Note_on_c, 0, 62, 0
3, 4680, Note_on_c, 0, 62, 36
3, 4710, Note_on_c, 0, 67, 36
3, 4740, Note_on_c, 0, 67, 0
3, 4740, Note_on_c, 0, 65, 36
3, 4770, Note_on_c, 0, 65, 0
3, 4770, Note_on_c, 0, 67, 36
3, 4800, Note_on_c, 0, 67, 0
3, 4800, Note_on_c, 0, 62, 0
3, 4800, Note_on_c, 0, 60, 36
3, 4830, Note_on_c, 0, 67, 36
3, 4860, Note_on_c, 0, 67, 0
3, 4860, Note_on_c, 0, 64, 36
3, 4890, Note_on_c, 0, 64, 0
3, 4890, Note_on_c, 0, 67, 36
3, 4920, Note_on_c, 0, 67, 0
3, 4920, Note_on_c, 0, 60, 0
3, 4920, Note_on_c, 0, 60, 36
3, 4950, Note_on_c, 0, 67, 36
3, 4980, Note_on_c, 0, 67, 0
3, 4980, Note_on_c, 0, 64, 36
3, 5010, Note_on_c, 0, 64, 0
3, 5010, Note_on_c, 0, 67, 36
3, 5040, Note_on_c, 0, 67, 0
3, 5040, Note_on_c, 0, 60, 0
3, 5040, Note_on_c, 0, 62, 36
3, 5070, Note_on_c, 0, 67, 36
3, 5100, Note_on_c, 0, 67, 0
3, 5100, Note_on_c, 0, 65, 36
3, 5130, Note_on_c, 0, 65, 0
3, 5130, Note_on_c, 0, 67, 36
3, 5160, Note_on_c, 0, 67, 0
3, 5160, Note_on_c, 0, 62, 0
3, 5160, Note_on_c, 0, 62, 36
3, 5190, Note_on_c, 0, 67, 36
3, 5220, Note_on_c, 0, 67, 0
3, 5220, Note_on_c, 0, 65, 36
3, 5250, Note_on_c, 0, 65, 0
3, 5250, Note_on_c, 0, 67, 36
3, 5280, Note_on_c, 0, 67, 0
3, 5280, Note_on_c, 0, 62, 0
3, 5280, Note_on_c, 0, 60, 36
3, 5310, Note_on_c, 0, 67, 36
3, 5340, Note_on_c, 0, 67, 0
3, 5340, Note_on_c, 0, 64, 36
3, 5370, Note_on_c, 0, 64, 0
3, 5370, Note_on_c, 0, 67, 36
3, 5400, Note_on_c, 0, 67, 0
3, 5400, Note_on_c, 0, 60, 0
3, 5400, Note_on_c, 0, 60, 36
3, 5430, Note_on_c, 0, 67, 36
3, 5460, Note_on_c, 0, 67, 0
3, 5460, Note_on_c, 0, 64, 36
3, 5490, Note_on_c, 0, 64, 0
3, 5490, Note_on_c, 0, 67, 36
3, 5520, Note_on_c, 0, 67, 0
3, 5520, Note_on_c, 0, 60, 0
3, 5520, Note_on_c, 0, 62, 36
3, 5550, Note_on_c, 0, 67, 36
3, 5580, Note_on_c, 0, 67, 0
3, 5580, Note_on_c, 0, 65, 36
3, 5610, Note_on_c, 0, 65, 0
3, 5610, Note_on_c, 0, 67, 36
3, 5640, Note_on_c, 0, 67, 0
3, 5640, Note_on_c, 0, 62, 0
3, 5640, Note_on_c, 0, 62, 36
3, 5670, Note_on_c, 0, 67, 36
3, 5700, Note_on_c, 0, 67, 0
3, 5700, Note_on_c, 0, 65, 36
3, 5730, Note_on_c, 0, 65, 0
3, 5730, Note_on_c, 0, 67, 36
3, 5760, Note_on_c, 0, 67, 0
3, 5760, Note_on_c, 0, 62, 0
3, 5760, Note_on_c, 0, 60, 36
3, 5790, Note_on_c, 0, 67, 36
3, 5820, Note_on_c, 0, 67, 0
3, 5820, Note_on_c, 0, 64, 36
3, 5850, Note_on_c, 0, 64, 0
3, 5850, Note_on_c, 0, 67, 36
3, 5880, Note_on_c, 0, 67, 0
3, 5880, Note_on_c, 0, 60, 0
3, 5880, Note_on_c, 0, 60, 36
3, 5910, Note_on_c, 0, 67, 36
3, 5940, Note_on_c, 0, 67, 0
3, 5940, Note_on_c, 0, 64, 36
3, 5970, Note_on_c, 0, 64, 0
3, 5970, Note_on_c, 0, 67, 36
3, 6000, Note_on_c, 0, 67, 0
3, 6000, Note_on_c, 0, 60, 0
3, 6000, Note_on_c, 0, 62, 36
3, 6030, Note_on_c, 0, 67, 36
3, 6060, Note_on_c, 0, 67, 0
3, 6060, Note_on_c, 0, 65, 36
3, 6090, Note_on_c, 0, 65, 0
3, 6090, Note_on_c, 0, 67, 36
3, 6120, Note_on_c, 0, 67, 0
3, 6120, Note_on_c, 0, 62, 0
3, 6120, Note_on_c, 0, 62, 36
3, 6150, Note_on_c, 0, 67, 36
3, 6180, Note_on_c, 0, 67, 0
3, 6180, Note_on_c, 0, 65, 36
3, 6210, Note_on_c, 0, 65, 0
3, 6210, Note_on_c, 0, 67, 36
3, 6240, Note_on_c, 0, 67, 0
3, 6240, Note_on_c, 0, 62, 0
3, 6240, Note_on_c, 0, 60, 36
3, 6270, Note_on_c, 0, 67, 36
3, 6300, Note_on_c, 0, 67, 0
3, 6300, Note_on_c, 0, 64, 38
3, 6330, Note_on_c, 0, 64, 0
3, 6330, Note_on_c, 0, 67, 40
3, 6360, Note_on_c, 0, 67, 0
3, 6360, Note_on_c, 0, 60, 0
3, 6360, Note_on_c, 0, 60, 42
3, 6390, Note_on_c, 0, 67, 43
3, 6420, Note_on_c, 0, 67, 0
3, 6420, Note_on_c, 0, 64, 45
3, 6450, Note_on_c, 0, 64, 0
3, 6450, Note_on_c, 0, 67, 47
3, 6480, Note_on_c, 0, 67, 0
3, 6480, Note_on_c, 0, 60, 0
3, 6480, Note_on_c, 0, 52, 49
3, 6510, Note_on_c, 0, 60, 49
3, 6540, Note_on_c, 0, 60, 0
3, 6540, Note_on_c, 0, 55, 48
3, 6570, Note_on_c, 0, 55, 0
3, 6570, Note_on_c, 0, 60, 48
3, 6600, Note_on_c, 0, 60, 0
3, 6600, Note_on_c, 0, 52, 0
3, 6600, Note_on_c, 0, 52, 47
3, 6630, Note_on_c, 0, 60, 46
3, 6660, Note_on_c, 0, 60, 0
3, 6660, Note_on_c, 0, 55, 46
3, 6690, Note_on_c, 0, 55, 0
3, 6690, Note_on_c, 0, 60, 45
3, 6720, Note_on_c, 0, 60, 0
3, 6720, Note_on_c, 0, 52, 0
3, 6720, Note_on_c, 0, 53, 45
3, 6750, Note_on_c, 0, 60, 43
3, 6780, Note_on_c, 0, 60, 0
3, 6780, Note_on_c, 0, 57, 40
3, 6810, Note_on_c, 0, 57, 0
3, 6810, Note_on_c, 0, 60, 38
3, 6840, Note_on_c, 0, 60, 0
3, 6840, Note_on_c, 0, 53, 0
3, 6840, Note_on_c, 0, 52, 46
3, 6870, Note_on_c, 0, 61, 36
3, 6900, Note_on_c, 0, 61, 0
3, 6900, Note_on_c, 0, 55, 36
3, 6930, Note_on_c, 0, 55, 0
3, 6930, Note_on_c, 0, 61, 36
3, 6960, Note_on_c, 0, 61, 0
3, 6960, Note_on_c, 0, 52, 0
3, 6960, Note_on_c, 0, 50, 44
3, 6990, Note_on_c, 0, 60, 36
3, 7020, Note_on_c, 0, 60, 0
3, 7020, Note_on_c, 0, 57, 36
3, 7050, Note_on_c, 0, 57, 0
3, 7050, Note_on_c, 0, 60, 36
3, 7080, Note_on_c, 0, 60, 0
3, 7080, Note_on_c, 0, 50, 0
3, 7080, Note_on_c, 0, 55, 40
3, 7110, Note_on_c, 0, 62, 36
3, 7140, Note_on_c, 0, 62, 0
3, 7140, Note_on_c, 0, 59, 36
3, 7170, Note_on_c, 0, 59, 0
3, 7170, Note_on_c, 0, 62, 36
3, 7200, Note_on_c, 0, 62, 0
3, 7200, Note_on_c, 0, 55, 0
3, 7200, Note_on_c, 0, 48, 41
3, 7230, Note_on_c, 0, 60, 36
3, 7260, Note_on_c, 0, 60, 0
3, 7260, Note_on_c, 0, 52, 36
3, 7290, Note_on_c, 0, 52, 0
3, 7290, Note_on_c, 0, 60, 36
3, 7320, Note_on_c, 0, 60, 0
3, 7320, Note_on_c, 0, 48, 0
3, 7320, Note_on_c, 0, 53, 41
3, 7350, Note_on_c, 0, 62, 36
3, 7380, Note_on_c, 0, 62, 0
3, 7380, Note_on_c, 0, 57, 36
3, 7410, Note_on_c, 0, 57, 0
3, 7410, Note_on_c, 0, 62, 36
3, 7440, Note_on_c, 0, 62, 0
3, 7440, Note_on_c, 0, 53, 0
3, 7440, Note_on_c, 0, 55, 40
3, 7470, Note_on_c, 0, 64, 36
3, 7500, Note_on_c, 0, 64, 0
3, 7500, Note_on_c, 0, 60, 36
3, 7530, Note_on_c, 0, 60, 0
3, 7530, Note_on_c, 0, 64, 36
3, 7560, Note_on_c, 0, 64, 0
3, 7560, Note_on_c, 0, 55, 0
3, 7560, Note_on_c, 0, 55, 42
3, 7590, Note_on_c, 0, 65, 36
3, 7620, Note_on_c, 0, 65, 0
3, 7620, Note_on_c, 0, 62, 36
3, 7650, Note_on_c, 0, 62, 0
3, 7650, Note_on_c, 0, 65, 36
3, 7680, Note_on_c, 0, 65, 0
3, 7680, Note_on_c, 0, 55, 0
3, 7680, Note_on_c, 0, 52, 41
3, 7710, Note_on_c, 0, 60, 36
3, 7740, Note_on_c, 0, 60, 0
3, 7740, Note_on_c, 0, 55, 36
3, 7770, Note_on_c, 0, 55, 0
3, 7770, Note_on_c, 0, 60, 36
3, 7800, Note_on_c, 0, 60, 0
3, 7800, Note_on_c, 0, 52, 0
3, 7800, Note_on_c, 0, 53, 41
3, 7830, Note_on_c, 0, 60, 36
3, 7860, Note_on_c, 0, 60, 0
3, 7860, Note_on_c, 0, 57, 36
3, 7890, Note_on_c, 0, 57, 0
3, 7890, Note_on_c, 0, 60, 36
3, 7920, Note_on_c, 0, 60, 0
3, 7920, Note_on_c, 0, 53, 0
3, 7920, Note_on_c, 0, 55, 39
3, 7950, Note_on_c, 0, 64, 36
3, 7980, Note_on_c, 0, 64, 0
3, 7980, Note_on_c, 0, 60, 36
3, 8010, Note_on_c, 0, 60, 0
3, 8010, Note_on_c, 0, 64, 36
3, 8040, Note_on_c, 0, 64, 0
3, 8040, Note_on_c, 0, 55, 0
3, 8040, Note_on_c, 0, 55, 40
3, 8070, Note_on_c, 0, 65, 36
3, 8100, Note_on_c, 0, 65, 0
3, 8100, Note_on_c, 0, 62, 36
3, 8130, Note_on_c, 0, 62, 0
3, 8130, Note_on_c, 0, 65, 36
3, 8160, Note_on_c, 0, 65, 0
3, 8160, Note_on_c, 0, 55, 0
3, 8160, Note_on_c, 0, 64, 36
3, 8160, Note_on_c, 0, 60, 36
3, 8280, Note_on_c, 0, 60, 0
3, 8280, Note_on_c, 0, 64, 0
3, 8760, Note_on_c, 0, 41, 45
3, 8760, Note_on_c, 0, 53, 45
3, 8880, Note_on_c, 0, 53, 0
3, 8880, Note_on_c, 0, 41, 0
3, 8880, Note_on_c, 0, 55, 45
3, 8880, Note_on_c, 0, 43, 45
3, 9000, Note_on_c, 0, 43, 0
3, 9000, Note_on_c, 0, 55, 0
3, 9000, Note_on_c, 0, 55, 45
3, 9000, Note_on_c, 0, 43, 45
3, 9120, Note_on_c, 0, 43, 0
3, 9120, Note_on_c, 0, 55, 0
3, 9120, Note_on_c, 0, 36, 39
3, 9120, Note_on_c, 0, 48, 39
3, 9360, Note_on_c, 0, 48, 0
3, 9360, Note_on_c, 0, 36, 0
3, 9720, Note_on_c, 0, 53, 40
3, 9720, Note_on_c, 0, 41, 40
3, 9840, Note_on_c, 0, 41, 0
3, 9840, Note_on_c, 0, 53, 0
3, 9840, Note_on_c, 0, 55, 40
3, 9840, Note_on_c, 0, 43, 40
3, 9960, Note_on_c, 0, 43, 0
3, 9960, Note_on_c, 0, 55, 0
3, 9960, Note_on_c, 0, 53, 40
3, 9960, Note_on_c, 0, 43, 40
3, 10080, Note_on_c, 0, 43, 0
3, 10080, Note_on_c, 0, 53, 0
3, 10080, Note_on_c, 0, 48, 40
3, 10320, Note_on_c, 0, 48, 0
3, 10320, Note_on_c, 0, 36, 36
3, 10323, Note_on_c, 0, 40, 36
3, 10326, Note_on_c, 0, 43, 36
3, 10500, Note_on_c, 0, 43, 0
3, 10500, Note_on_c, 0, 40, 0
3, 10500, Note_on_c, 0, 36, 0
3, 10560, Note_on_c, 0, 41, 45
3, 10563, Note_on_c, 0, 45, 45
3, 10566, Note_on_c, 0, 48, 45
3, 10569, Note_on_c, 0, 53, 45
3, 10680, Note_on_c, 0, 53, 0
3, 10680, Note_on_c, 0, 41, 0
3, 10680, Note_on_c, 0, 45, 0
3, 10680, Note_on_c, 0, 48, 0
3, 10800, Note_on_c, 0, 58, 38
3, 10800, Note_on_c, 0, 55, 38
3, 10800, Note_on_c, 0, 48, 38
3, 10890, Note_on_c, 0, 48, 0
3, 10890, Note_on_c, 0, 55, 0
3, 10890, Note_on_c, 0, 58, 0
3, 11040, Note_on_c, 0, 52, 40
3, 11043, Note_on_c, 0, 55, 40
3, 11046, Note_on_c, 0, 58, 40
3, 11049, Note_on_c, 0, 60, 40
3, 11160, Note_on_c, 0, 60, 0
3, 11160, Note_on_c, 0, 52, 0
3, 11160, Note_on_c, 0, 55, 0
3, 11160, Note_on_c, 0, 58, 0
3, 11280, Note_on_c, 0, 60, 38
3, 11280, Note_on_c, 0, 53, 38
3, 11370, Note_on_c, 0, 53, 0
3, 11370, Note_on_c, 0, 60, 0
3, 11520, Note_on_c, 0, 58, 36
3, 11520, Note_on_c, 0, 65, 36
3, 11760, Note_on_c, 0, 58, 0
3, 11760, Note_on_c, 0, 57, 36
3, 11880, Note_on_c, 0, 57, 0
3, 11880, Note_on_c, 0, 65, 0
3, 12000, Note_on_c, 0, 46, 48
3, 12000, Note_on_c, 0, 58, 48
3, 12240, Note_on_c, 0, 58, 0
3, 12240, Note_on_c, 0, 46, 0
3, 12240, Note_on_c, 0, 48, 47
3, 12240, Note_on_c, 0, 57, 47
3, 12360, Note_on_c, 0, 57, 0
3, 12360, Note_on_c, 0, 55, 42
3, 12480, Note_on_c, 0, 55, 0
3, 12480, Note_on_c, 0, 48, 0
3, 12480, Note_on_c, 0, 41, 45
3, 12483, Note_on_c, 0, 45, 45
3, 12486, Note_on_c, 0, 48, 45
3, 12489, Note_on_c, 0, 53, 45
3, 12600, Note_on_c, 0, 53, 0
3, 12600, Note_on_c, 0, 41, 0
3, 12600, Note_on_c, 0, 45, 0
3, 12600, Note_on_c, 0, 48, 0
3, 12720, Note_on_c, 0, 48, 46
3, 12720, Note_on_c, 0, 58, 46
3, 12780, Note_on_c, 0, 58, 0
3, 12780, Note_on_c, 0, 57, 44
3, 12840, Note_on_c, 0, 57, 0
3, 12840, Note_on_c, 0, 55, 42
3, 12900, Note_on_c, 0, 55, 0
3, 12900, Note_on_c, 0, 53, 40
3, 12960, Note_on_c, 0, 53, 0
3, 12960, Note_on_c, 0, 55, 38
3, 12960, Note_on_c, 0, 52, 38
3, 13200, Note_on_c, 0, 52, 0
3, 13200, Note_on_c, 0, 55, 0
3, 13200, Note_on_c, 0, 48, 0
3, 13200, Note_on_c, 0, 53, 36
3, 13200, Note_on_c, 0, 41, 36
3, 13290, Note_on_c, 0, 41, 0
3, 13290, Note_on_c, 0, 53, 0
3, 13440, Note_on_c, 0, 58, 46
3, 13440, Note_on_c, 0, 46, 46
3, 13560, Note_on_c, 0, 46, 0
3, 13560, Note_on_c, 0, 58, 0
3, 13800, Note_on_c, 0, 70, 47
3, 13800, Note_on_c, 0, 58, 47
3, 13920, Note_on_c, 0, 58, 0
3, 13920, Note_on_c, 0, 70, 0
3, 13920, Note_on_c, 0, 69, 48
3, 13920, Note_on_c, 0, 60, 48
3, 14160, Note_on_c, 0, 69, 0
3, 14160, Note_on_c, 0, 67, 37
3, 14280, Note_on_c, 0, 67, 0
3, 14280, Note_on_c, 0, 60, 0
3, 14400, Note_on_c, 0, 60, 36
3, 14430, Note_on_c, 0, 67, 36
3, 14460, Note_on_c, 0, 67, 0
3, 14460, Note_on_c, 0, 64, 36
3, 14490, Note_on_c, 0, 64, 0
3, 14490, Note_on_c, 0, 67, 36
3, 14520, Note_on_c, 0, 67, 0
3, 14520, Note_on_c, 0, 60, 0
3, 14520, Note_on_c, 0, 60, 36
3, 14550, Note_on_c, 0, 67, 36
3, 14580, Note_on_c, 0, 67, 0
3, 14580, Note_on_c, 0, 64, 36
3, 14610, Note_on_c, 0, 64, 0
3, 14610, Note_on_c, 0, 67, 36
3, 14640, Note_on_c, 0, 67, 0
3, 14640, Note_on_c, 0, 60, 0
3, 14640, Note_on_c, 0, 62, 36
3, 14670, Note_on_c, 0, 67, 36
3, 14700, Note_on_c, 0, 67, 0
3, 14700, Note_on_c, 0, 65, 36
3, 14730, Note_on_c, 0, 65, 0
3, 14730, Note_on_c, 0, 67, 36
3, 14760, Note_on_c, 0, 67, 0
3, 14760, Note_on_c, 0, 62, 0
3, 14760, Note_on_c, 0, 62, 36
3, 14790, Note_on_c, 0, 67, 36
3, 14820, Note_on_c, 0, 67, 0
3, 14820, Note_on_c, 0, 65, 36
3, 14850, Note_on_c, 0, 65, 0
3, 14850, Note_on_c, 0, 67, 36
3, 14880, Note_on_c, 0, 67, 0
3, 14880, Note_on_c, 0, 62, 0
3, 14880, Note_on_c, 0, 60, 36
3, 14910, Note_on_c, 0, 67, 36
3, 14940, Note_on_c, 0, 67, 0
3, 14940, Note_on_c, 0, 64, 36
3, 14970, Note_on_c, 0, 64, 0
3, 14970, Note_on_c, 0, 67, 36
3, 15000, Note_on_c, 0, 67, 0
3, 15000, Note_on_c, 0, 60, 0
3, 15000, Note_on_c, 0, 60, 36
3, 15030, Note_on_c, 0, 67, 36
3, 15060, Note_on_c, 0, 67, 0
3, 15060, Note_on_c, 0, 64, 36
3, 15090, Note_on_c, 0, 64, 0
3, 15090, Note_on_c, 0, 67, 36
3, 15120, Note_on_c, 0, 67, 0
3, 15120, Note_on_c, 0, 60, 0
3, 15120, Note_on_c, 0, 62, 36
3, 15150, Note_on_c, 0, 67, 36
3, 15180, Note_on_c, 0, 67, 0
3, 15180, Note_on_c, 0, 65, 36
3, 15210, Note_on_c, 0, 65, 0
3, 15210, Note_on_c, 0, 67, 36
3, 15240, Note_on_c, 0, 67, 0
3, 15240, Note_on_c, 0, 62, 0
3, 15240, Note_on_c, 0, 62, 36
3, 15270, Note_on_c, 0, 67, 36
3, 15300, Note_on_c, 0, 67, 0
3, 15300, Note_on_c, 0, 65, 36
3, 15330, Note_on_c, 0, 65, 0
3, 15330, Note_on_c, 0, 67, 36
3, 15360, Note_on_c, 0, 67, 0
3, 15360, Note_on_c, 0, 62, 0
3, 15360, Note_on_c, 0, 60, 36
3, 15390, Note_on_c, 0, 67, 36
3, 15420, Note_on_c, 0, 67, 0
3, 15420, Note_on_c, 0, 64, 36
3, 15450, Note_on_c, 0, 64, 0
3, 15450, Note_on_c, 0, 67, 36
3, 15480, Note_on_c, 0, 67, 0
3, 15480, Note_on_c, 0, 60, 0
3, 15480, Note_on_c, 0, 60, 36
3, 15510, Note_on_c, 0, 67, 36
3, 15540, Note_on_c, 0, 67, 0
3, 15540, Note_on_c, 0, 64, 36
3, 15570, Note_on_c, 0, 64, 0
3, 15570, Note_on_c, 0, 67, 36
3, 15600, Note_on_c, 0, 67, 0
3, 15600, Note_on_c, 0, 60, 0
3, 15600, Note_on_c, 0, 62, 36
3, 15630, Note_on_c, 0, 67, 36
3, 15660, Note_on_c, 0, 67, 0
3, 15660, Note_on_c, 0, 65, 36
3, 15690, Note_on_c, 0, 65, 0
3, 15690, Note_on_c, 0, 67, 36
3, 15720, Note_on_c, 0, 67, 0
3, 15720, Note_on_c, 0, 62, 0
3, 15720, Note_on_c, 0, 62, 36
3, 15750, Note_on_c, 0, 67, 36
3, 15780, Note_on_c, 0, 67, 0
3, 15780, Note_on_c, 0, 65, 36
3, 15810, Note_on_c, 0, 65, 0
3, 15810, Note_on_c, 0, 67, 36
3, 15840, Note_on_c, 0, 67, 0
3, 15840, Note_on_c, 0, 62, 0
3, 15840, Note_on_c, 0, 60, 36
3, 15870, Note_on_c, 0, 67, 36
3, 15900, Note_on_c, 0, 67, 0
3, 15900, Note_on_c, 0, 64, 36
3, 15930, Note_on_c, 0, 64, 0
3, 15930, Note_on_c, 0, 67, 36
3, 15960, Note_on_c, 0, 67, 0
3, 15960, Note_on_c, 0, 60, 0
3, 15960, Note_on_c, 0, 60, 36
3, 15990, Note_on_c, 0, 67, 36
3, 16020, Note_on_c, 0, 67, 0
3, 16020, Note_on_c, 0, 64, 36
3, 16050, Note_on_c, 0, 64, 0
3, 16050, Note_on_c, 0, 67, 36
3, 16080, Note_on_c, 0, 67, 0
3, 16080, Note_on_c, 0, 60, 0
3, 16080, Note_on_c, 0, 62, 36
3, 16110, Note_on_c, 0, 67, 36
3, 16140, Note_on_c, 0, 67, 0
3, 16140, Note_on_c, 0, 65, 36
3, 16170, Note_on_c, 0, 65, 0
3, 16170, Note_on_c, 0, 67, 36
3, 16200, Note_on_c, 0, 67, 0
3, 16200, Note_on_c, 0, 62, 0
3, 16200, Note_on_c, 0, 62, 36
3, 16230, Note_on_c, 0, 67, 36
3, 16260, Note_on_c, 0, 67, 0
3, 16260, Note_on_c, 0, 65, 36
3, 16290, Note_on_c, 0, 65, 0
3, 16290, Note_on_c, 0, 67, 36
3, 16320, Note_on_c, 0, 67, 0
3, 16320, Note_on_c, 0, 62, 0
3, 16320, Note_on_c, 0, 60, 36
3, 16350, Note_on_c, 0, 67, 36
3, 16380, Note_on_c, 0, 67, 0
3, 16380, Note_on_c, 0, 64, 38
3, 16410, Note_on_c, 0, 64, 0
3, 16410, Note_on_c, 0, 67, 40
3, 16440, Note_on_c, 0, 67, 0
3, 16440, Note_on_c, 0, 60, 0
3, 16440, Note_on_c, 0, 60, 42
3, 16470, Note_on_c, 0, 67, 43
3, 16500, Note_on_c, 0, 67, 0
3, 16500, Note_on_c, 0, 64, 45
3, 16530, Note_on_c, 0, 64, 0
3, 16530, Note_on_c, 0, 67, 47
3, 16560, Note_on_c, 0, 67, 0
3, 16560, Note_on_c, 0, 60, 0
3, 16560, Note_on_c, 0, 52, 49
3, 16590, Note_on_c, 0, 60, 49
3, 16620, Note_on_c, 0, 60, 0
3, 16620, Note_on_c, 0, 55, 48
3, 16650, Note_on_c, 0, 55, 0
3, 16650, Note_on_c, 0, 60, 48
3, 16680, Note_on_c, 0, 60, 0
3, 16680, Note_on_c, 0, 52, 0
3, 16680, Note_on_c, 0, 52, 47
3, 16710, Note_on_c, 0, 60, 46
3, 16740, Note_on_c, 0, 60, 0
3, 16740, Note_on_c, 0, 55, 46
3, 16770, Note_on_c, 0, 55, 0
3, 16770, Note_on_c, 0, 60, 45
3, 16800, Note_on_c, 0, 60, 0
3, 16800, Note_on_c, 0, 52, 0
3, 16800, Note_on_c, 0, 53, 45
3, 16830, Note_on_c, 0, 60, 43
3, 16860, Note_on_c, 0, 60, 0
3, 16860, Note_on_c, 0, 57, 40
3, 16890, Note_on_c, 0, 57, 0
3, 16890, Note_on_c, 0, 60, 38
3, 16920, Note_on_c, 0, 60, 0
3, 16920, Note_on_c, 0, 53, 0
3, 16920, Note_on_c, 0, 52, 46
3, 16950, Note_on_c, 0, 61, 36
3, 16980, Note_on_c, 0, 61, 0
3, 16980, Note_on_c, 0, 55, 36
3, 17010, Note_on_c, 0, 55, 0
3, 17010, Note_on_c, 0, 61, 36
3, 17040, Note_on_c, 0, 61, 0
3, 17040, Note_on_c, 0, 52, 0
3, 17040, Note_on_c, 0, 50, 44
3, 17070, Note_on_c, 0, 60, 36
3, 17100, Note_on_c, 0, 60, 0
3, 17100, Note_on_c, 0, 57, 36
3, 17130, Note_on_c, 0, 57, 0
3, 17130, Note_on_c, 0, 60, 36
3, 17160, Note_on_c, 0, 60, 0
3, 17160, Note_on_c, 0, 50, 0
3, 17160, Note_on_c, 0, 55, 40
3, 17190, Note_on_c, 0, 62, 36
3, 17220, Note_on_c, 0, 62, 0
3, 17220, Note_on_c, 0, 59, 36
3, 17250, Note_on_c, 0, 59, 0
3, 17250, Note_on_c, 0, 62, 36
3, 17280, Note_on_c, 0, 62, 0
3, 17280, Note_on_c, 0, 55, 0
3, 17280, Note_on_c, 0, 48, 41
3, 17310, Note_on_c, 0, 60, 36
3, 17340, Note_on_c, 0, 60, 0
3, 17340, Note_on_c, 0, 52, 36
3, 17370, Note_on_c, 0, 52, 0
3, 17370, Note_on_c, 0, 60, 36
3, 17400, Note_on_c, 0, 60, 0
3, 17400, Note_on_c, 0, 48, 0
3, 17400, Note_on_c, 0, 53, 41
3, 17430, Note_on_c, 0, 62, 36
3, 17460, Note_on_c, 0, 62, 0
3, 17460, Note_on_c, 0, 57, 36
3, 17490, Note_on_c, 0, 57, 0
3, 17490, Note_on_c, 0, 62, 36
3, 17520, Note_on_c, 0, 62, 0
3, 17520, Note_on_c, 0, 53, 0
3, 17520, Note_on_c, 0, 55, 40
3, 17550, Note_on_c, 0, 64, 36
3, 17580, Note_on_c, 0, 64, 0
3, 17580, Note_on_c, 0, 60, 36
3, 17610, Note_on_c, 0, 60, 0
3, 17610, Note_on_c, 0, 64, 36
3, 17640, Note_on_c, 0, 64, 0
3, 17640, Note_on_c, 0, 55, 0
3, 17640, Note_on_c, 0, 55, 42
3, 17670, Note_on_c, 0, 65, 36
3, 17700, Note_on_c, 0, 65, 0
3, 17700, Note_on_c, 0, 62, 36
3, 17730, Note_on_c, 0, 62, 0
3, 17730, Note_on_c, 0, 65, 36
3, 17760, Note_on_c, 0, 65, 0
3, 17760, Note_on_c, 0, 55, 0
3, 17760, Note_on_c, 0, 52, 41
3, 17790, Note_on_c, 0, 60, 36
3, 17820, Note_on_c, 0, 60, 0
3, 17820, Note_on_c, 0, 55, 36
3, 17850, Note_on_c, 0, 55, 0
3, 17850, Note_on_c, 0, 60, 36
3, 17880, Note_on_c, 0, 60, 0
3, 17880, Note_on_c, 0, 52, 0
3, 17880, Note_on_c, 0, 53, 41
3, 17910, Note_on_c, 0, 60, 36
3, 17940, Note_on_c, 0, 60, 0
3, 17940, Note_on_c, 0, 57, 36
3, 17970, Note_on_c, 0, 57, 0
3, 17970, Note_on_c, 0, 60, 36
3, 18000, Note_on_c, 0, 60, 0
3, 18000, Note_on_c, 0, 53, 0
3, 18000, Note_on_c, 0, 55, 39
3, 18030, Note_on_c, 0, 64, 36
3, 18060, Note_on_c, 0, 64, 0
3, 18060, Note_on_c, 0, 60, 36
3, 18090, Note_on_c, 0, 60, 0
3, 18090, Note_on_c, 0, 64, 36
3, 18120, Note_on_c, 0, 64, 0
3, 18120, Note_on_c, 0, 55, 0
3, 18120, Note_on_c, 0, 55, 40
3, 18150, Note_on_c, 0, 65, 36
3, 18180, Note_on_c, 0, 65, 0
3, 18180, Note_on_c, 0, 62, 36
3, 18210, Note_on_c, 0, 62, 0
3, 18210, Note_on_c, 0, 65, 36
3, 18240, Note_on_c, 0, 65, 0
3, 18240, Note_on_c, 0, 55, 0
3, 18240, Note_on_c, 0, 64, 36
3, 18240, Note_on_c, 0, 60, 36
3, 18360, Note_on_c, 0, 60, 0
3, 18360, Note_on_c, 0, 64, 0
3, 18840, Note_on_c, 0, 41, 45
3, 18840, Note_on_c, 0, 53, 45
3, 18960, Note_on_c, 0, 53, 0
3, 18960, Note_on_c, 0, 41, 0
3, 18960, Note_on_c, 0, 55, 45
3, 18960, Note_on_c, 0, 43, 45
3, 19080, Note_on_c, 0, 43, 0
3, 19080, Note_on_c, 0, 55, 0
3, 19080, Note_on_c, 0, 55, 45
3, 19080, Note_on_c, 0, 43, 45
3, 19200, Note_on_c, 0, 43, 0
3, 19200, Note_on_c, 0, 55, 0
3, 19200, Note_on_c, 0, 36, 39
3, 19200, Note_on_c, 0, 48, 39
3, 19440, Note_on_c, 0, 48, 0
3, 19440, Note_on_c, 0, 36, 0
3, 19800, Note_on_c, 0, 53, 40
3, 19800, Note_on_c, 0, 41, 40
3, 19920, Note_on_c, 0, 41, 0
3, 19920, Note_on_c, 0, 53, 0
3, 19920, Note_on_c, 0, 55, 40
3, 19920, Note_on_c, 0, 43, 40
3, 20040, Note_on_c, 0, 43, 0
3, 20040, Note_on_c, 0, 55, 0
3, 20040, Note_on_c, 0, 53, 40
3, 20040, Note_on_c, 0, 43, 40
3, 20160, Note_on_c, 0, 43, 0
3, 20160, Note_on_c, 0, 53, 0
3, 20160, Note_on_c, 0, 48, 40
3, 20400, Note_on_c, 0, 48, 0
3, 20400, Note_on_c, 0, 36, 36
3, 20403, Note_on_c, 0, 40, 36
3, 20406, Note_on_c, 0, 43, 36
3, 20580, Note_on_c, 0, 43, 0
3, 20580, Note_on_c, 0, 40, 0
3, 20580, Note_on_c, 0, 36, 0
3, 20640, Note_on_c, 0, 48, 37
3, 20643, Note_on_c, 0, 52, 37
3, 20646, Note_on_c, 0, 55, 37
3, 20649, Note_on_c, 0, 60, 37
3, 20760, Note_on_c, 0, 48, 0
3, 20763, Note_on_c, 0, 52, 0
3, 20766, Note_on_c, 0, 55, 0
3, 20769, Note_on_c, 0, 60, 0
3, 20880, Note_on_c, 0, 60, 36
3, 20910, Note_on_c, 0, 70, 36
3, 20940, Note_on_c, 0, 70, 0
3, 20940, Note_on_c, 0, 67, 36
3, 20970, Note_on_c, 0, 67, 0
3, 20970, Note_on_c, 0, 70, 36
3, 21000, Note_on_c, 0, 70, 0
3, 21000, Note_on_c, 0, 60, 0
3, 21000, Note_on_c, 0, 60, 36
3, 21030, Note_on_c, 0, 70, 36
3, 21060, Note_on_c, 0, 70, 0
3, 21060, Note_on_c, 0, 67, 36
3, 21090, Note_on_c, 0, 67, 0
3, 21090, Note_on_c, 0, 70, 36
3, 21120, Note_on_c, 0, 70, 0
3, 21120, Note_on_c, 0, 60, 0
3, 21120, Note_on_c, 0, 60, 36
3, 21150, Note_on_c, 0, 69, 36
3, 21180, Note_on_c, 0, 69, 0
3, 21180, Note_on_c, 0, 65, 36
3, 21210, Note_on_c, 0, 65, 0
3, 21210, Note_on_c, 0, 69, 36
3, 21240, Note_on_c, 0, 69, 0
3, 21240, Note_on_c, 0, 60, 0
3, 21240, Note_on_c, 0, 60, 36
3, 21270, Note_on_c, 0, 69, 36
3, 21300, Note_on_c, 0, 69, 0
3, 21300, Note_on_c, 0, 65, 36
3, 21330, Note_on_c, 0, 65, 0
3, 21330, Note_on_c, 0, 69, 36
3, 21360, Note_on_c, 0, 69, 0
3, 21360, Note_on_c, 0, 60, 0
3, 21360, Note_on_c, 0, 60, 36
3, 21390, Note_on_c, 0, 67, 36
3, 21420, Note_on_c, 0, 67, 0
3, 21420, Note_on_c, 0, 64, 36
3, 21450, Note_on_c, 0, 64, 0
3, 21450, Note_on_c, 0, 67, 36
3, 21480, Note_on_c, 0, 67, 0
3, 21480, Note_on_c, 0, 60, 0
3, 21480, Note_on_c, 0, 60, 36
3, 21510, Note_on_c, 0, 67, 36
3, 21540, Note_on_c, 0, 67, 0
3, 21540, Note_on_c, 0, 64, 36
3, 21570, Note_on_c, 0, 64, 0
3, 21570, Note_on_c, 0, 67, 36
3, 21600, Note_on_c, 0, 67, 0
3, 21600, Note_on_c, 0, 60, 0
3, 21600, Note_on_c, 0, 57, 40
3, 21630, Note_on_c, 0, 63, 36
3, 21660, Note_on_c, 0, 63, 0
3, 21660, Note_on_c, 0, 60, 34
3, 21690, Note_on_c, 0, 60, 0
3, 21690, Note_on_c, 0, 63, 34
3, 21720, Note_on_c, 0, 63, 0
3, 21720, Note_on_c, 0, 57, 0
3, 21720, Note_on_c, 0, 57, 34
3, 21750, Note_on_c, 0, 63, 34
3, 21780, Note_on_c, 0, 63, 0
3, 21780, Note_on_c, 0, 60, 34
3, 21810, Note_on_c, 0, 60, 0
3, 21810, Note_on_c, 0, 63, 34
3, 21840, Note_on_c, 0, 63, 0
3, 21840, Note_on_c, 0, 57, 0
3, 21840, Note_on_c, 0, 57, 34
3, 21870, Note_on_c, 0, 63, 34
3, 21900, Note_on_c, 0, 63, 0
3, 21900, Note_on_c, 0, 60, 34
3, 21930, Note_on_c, 0, 60, 0
3, 21930, Note_on_c, 0, 63, 34
3, 21960, Note_on_c, 0, 63, 0
3, 21960, Note_on_c, 0, 57, 0
3, 21960, Note_on_c, 0, 57, 34
3, 21990, Note_on_c, 0, 63, 34
3, 22020, Note_on_c, 0, 63, 0
3, 22020, Note_on_c, 0, 60, 34
3, 22050, Note_on_c, 0, 60, 0
3, 22050, Note_on_c, 0, 63, 34
3, 22080, Note_on_c, 0, 63, 0
3, 22080, Note_on_c, 0, 57, 0
3, 22080, Note_on_c, 0, 58, 40
3, 22110, Note_on_c, 0, 67, 38
3, 22140, Note_on_c, 0, 67, 0
3, 22140, Note_on_c, 0, 62, 36
3, 22170, Note_on_c, 0, 62, 0
3, 22170, Note_on_c, 0, 67, 36
3, 22200, Note_on_c, 0, 67, 0
3, 22200, Note_on_c, 0, 58, 0
3, 22200, Note_on_c, 0, 58, 36
3, 22230, Note_on_c, 0, 67, 36
3, 22260, Note_on_c, 0, 67, 0
3, 22260, Note_on_c, 0, 62, 36
3, 22290, Note_on_c, 0, 62, 0
3, 22290, Note_on_c, 0, 67, 36
3, 22320, Note_on_c, 0, 67, 0
3, 22320, Note_on_c, 0, 58, 0
3, 22320, Note_on_c, 0, 58, 36
3, 22350, Note_on_c, 0, 67, 36
3, 22380, Note_on_c, 0, 67, 0
3, 22380, Note_on_c, 0, 62, 36
3, 22410, Note_on_c, 0, 62, 0
3, 22410, Note_on_c, 0, 67, 36
3, 22440, Note_on_c, 0, 67, 0
3, 22440, Note_on_c, 0, 58, 0
3, 22440, Note_on_c, 0, 58, 36
3, 22470, Note_on_c, 0, 67, 36
3, 22500, Note_on_c, 0, 67, 0
3, 22500, Note_on_c, 0, 62, 36
3, 22530, Note_on_c, 0, 62, 0
3, 22530, Note_on_c, 0, 67, 36
3, 22560, Note_on_c, 0, 67, 0
3, 22560, Note_on_c, 0, 58, 0
3, 22560, Note_on_c, 0, 58, 39
3, 22590, Note_on_c, 0, 67, 39
3, 22620, Note_on_c, 0, 67, 0
3, 22620, Note_on_c, 0, 64, 40
3, 22650, Note_on_c, 0, 64, 0
3, 22650, Note_on_c, 0, 67, 40
3, 22680, Note_on_c, 0, 67, 0
3, 22680, Note_on_c, 0, 58, 0
3, 22680, Note_on_c, 0, 58, 41
3, 22710, Note_on_c, 0, 67, 39
3, 22740, Note_on_c, 0, 67, 0
3, 22740, Note_on_c, 0, 64, 36
3, 22770, Note_on_c, 0, 64, 0
3, 22770, Note_on_c, 0, 67, 33
3, 22800, Note_on_c, 0, 67, 0
3, 22800, Note_on_c, 0, 58, 0
3, 22800, Note_on_c, 0, 57, 38
3, 22830, Note_on_c, 0, 65, 38
3, 22860, Note_on_c, 0, 65, 0
3, 22860, Note_on_c, 0, 60, 38
3, 22890, Note_on_c, 0, 60, 0
3, 22890, Note_on_c, 0, 65, 38
3, 22920, Note_on_c, 0, 65, 0
3, 22920, Note_on_c, 0, 57, 0
3, 22920, Note_on_c, 0, 57, 38
3, 22950, Note_on_c, 0, 65, 37
3, 22980, Note_on_c, 0, 65, 0
3, 22980, Note_on_c, 0, 60, 35
3, 23010, Note_on_c, 0, 60, 0
3, 23010, Note_on_c, 0, 65, 34
3, 23040, Note_on_c, 0, 65, 0
3, 23040, Note_on_c, 0, 57, 0
3, 23040, Note_on_c, 0, 52, 41
3, 23070, Note_on_c, 0, 60, 41
3, 23100, Note_on_c, 0, 60, 0
3, 23100, Note_on_c, 0, 55, 41
3, 23130, Note_on_c, 0, 55, 0
3, 23130, Note_on_c, 0, 60, 41
3, 23160, Note_on_c, 0, 60, 0
3, 23160, Note_on_c, 0, 52, 0
3, 23160, Note_on_c, 0, 53, 41
3, 23190, Note_on_c, 0, 60, 37
3, 23220, Note_on_c, 0, 60, 0
3, 23220, Note_on_c, 0, 57, 37
3, 23250, Note_on_c, 0, 57, 0
3, 23250, Note_on_c, 0, 60, 37
3, 23280, Note_on_c, 0, 60, 0
3, 23280, Note_on_c, 0, 53, 0
3, 23280, Note_on_c, 0, 52, 38
3, 23310, Note_on_c, 0, 60, 38
3, 23340, Note_on_c, 0, 60, 0
3, 23340, Note_on_c, 0, 55, 38
3, 23370, Note_on_c, 0, 55, 0
3, 23370, Note_on_c, 0, 60, 38
3, 23400, Note_on_c, 0, 60, 0
3, 23400, Note_on_c, 0, 52, 0
3, 23400, Note_on_c, 0, 53, 36
3, 23430, Note_on_c, 0, 60, 36
3, 23460, Note_on_c, 0, 60, 0
3, 23460, Note_on_c, 0, 57, 36
3, 23490, Note_on_c, 0, 57, 0
3, 23490, Note_on_c, 0, 60, 36
3, 23520, Note_on_c, 0, 60, 0
3, 23520, Note_on_c, 0, 53, 0
3, 23520, Note_on_c, 0, 52, 41
3, 23550, Note_on_c, 0, 60, 41
3, 23580, Note_on_c, 0, 60, 0
3, 23580, Note_on_c, 0, 55, 41
3, 23610, Note_on_c, 0, 55, 0
3, 23610, Note_on_c, 0, 60, 41
3, 23640, Note_on_c, 0, 60, 0
3, 23640, Note_on_c, 0, 52, 0
3, 23640, Note_on_c, 0, 53, 40
3, 23670, Note_on_c, 0, 60, 35
3, 23700, Note_on_c, 0, 60, 0
3, 23700, Note_on_c, 0, 57, 35
3, 23730, Note_on_c, 0, 57, 0
3, 23730, Note_on_c, 0, 60, 35
3, 23760, Note_on_c, 0, 60, 0
3, 23760, Note_on_c, 0, 53, 0
3, 23760, Note_on_c, 0, 58, 37
3, 23790, Note_on_c, 0, 67, 37
3, 23820, Note_on_c, 0, 67, 0
3, 23820, Note_on_c, 0, 62, 38
3, 23850, Note_on_c, 0, 62, 0
3, 23850, Note_on_c, 0, 67, 38
3, 23880, Note_on_c, 0, 67, 0
3, 23880, Note_on_c, 0, 58, 0
3, 23880, Note_on_c, 0, 59, 39
3, 23910, Note_on_c, 0, 67, 40
3, 23940, Note_on_c, 0, 67, 0
3, 23940, Note_on_c, 0, 62, 40
3, 23970, Note_on_c, 0, 62, 0
3, 23970, Note_on_c, 0, 67, 41
3, 24000, Note_on_c, 0, 67, 0
3, 24000, Note_on_c, 0, 59, 0
3, 24000, Note_on_c, 0, 60, 42
3, 24030, Note_on_c, 0, 67, 41
3, 24060, Note_on_c, 0, 67, 0
3, 24060, Note_on_c, 0, 64, 40
3, 24090, Note_on_c, 0, 64, 0
3, 24090, Note_on_c, 0, 67, 39
3, 24120, Note_on_c, 0, 67, 0
3, 24120, Note_on_c, 0, 60, 0
3, 24120, Note_on_c, 0, 60, 38
3, 24150, Note_on_c, 0, 67, 37
3, 24180, Note_on_c, 0, 67, 0
3, 24180, Note_on_c, 0, 64, 37
3, 24210, Note_on_c, 0, 64, 0
3, 24210, Note_on_c, 0, 67, 37
3, 24240, Note_on_c, 0, 67, 0
3, 24240, Note_on_c, 0, 60, 0
3, 24240, Note_on_c, 0, 60, 46
3, 24270, Note_on_c, 0, 60, 0
3, 24270, Note_on_c, 0, 62, 45
3, 24300, Note_on_c, 0, 62, 0
3, 24300, Note_on_c, 0, 58, 44
3, 24330, Note_on_c, 0, 58, 0
3, 24330, Note_on_c, 0, 60, 43
3, 24360, Note_on_c, 0, 60, 0
3, 24360, Note_on_c, 0, 57, 42
3, 24390, Note_on_c, 0, 57, 0
3, 24390, Note_on_c, 0, 58, 41
3, 24420, Note_on_c, 0, 58, 0
3, 24420, Note_on_c, 0, 55, 40
3, 24450, Note_on_c, 0, 55, 0
3, 24450, Note_on_c, 0, 57, 39
3, 24480, Note_on_c, 0, 57, 0
3, 24480, Note_on_c, 0, 53, 36
3, 24510, Note_on_c, 0, 60, 36
3, 24540, Note_on_c, 0, 60, 0
3, 24540, Note_on_c, 0, 57, 36
3, 24570, Note_on_c, 0, 57, 0
3, 24570, Note_on_c, 0, 60, 36
3, 24600, Note_on_c, 0, 60, 0
3, 24600, Note_on_c, 0, 53, 0
3, 24600, Note_on_c, 0, 53, 36
3, 24630, Note_on_c, 0, 60, 36
3, 24660, Note_on_c, 0, 60, 0
3, 24660, Note_on_c, 0, 57, 36
3, 24690, Note_on_c, 0, 57, 0
3, 24690, Note_on_c, 0, 60, 36
3, 24720, Note_on_c, 0, 60, 0
3, 24720, Note_on_c, 0, 53, 0
3, 24720, Note_on_c, 0, 55, 36
3, 24750, Note_on_c, 0, 60, 36
3, 24780, Note_on_c, 0, 60, 0
3, 24780, Note_on_c, 0, 58, 36
3, 24810, Note_on_c, 0, 58, 0
3, 24810, Note_on_c, 0, 60, 36
3, 24840, Note_on_c, 0, 60, 0
3, 24840, Note_on_c, 0, 55, 0
3, 24840, Note_on_c, 0, 55, 36
3, 24870, Note_on_c, 0, 60, 36
3, 24900, Note_on_c, 0, 60, 0
3, 24900, Note_on_c, 0, 58, 36
3, 24930, Note_on_c, 0, 58, 0
3, 24930, Note_on_c, 0, 60, 36
3, 24960, Note_on_c, 0, 60, 0
3, 24960, Note_on_c, 0, 55, 0
3, 24960, Note_on_c, 0, 53, 36
3, 24990, Note_on_c, 0, 60, 36
3, 25020, Note_on_c, 0, 60, 0
3, 25020, Note_on_c, 0, 57, 36
3, 25050, Note_on_c, 0, 57, 0
3, 25050, Note_on_c, 0, 60, 36
3, 25080, Note_on_c, 0, 60, 0
3, 25080, Note_on_c, 0, 53, 0
3, 25080, Note_on_c, 0, 53, 36
3, 25110, Note_on_c, 0, 60, 36
3, 25140, Note_on_c, 0, 60, 0
3, 25140, Note_on_c, 0, 57, 36
3, 25170, Note_on_c, 0, 57, 0
3, 25170, Note_on_c, 0, 60, 36
3, 25200, Note_on_c, 0, 60, 0
3, 25200, Note_on_c, 0, 53, 0
3, 25200, Note_on_c, 0, 55, 36
3, 25230, Note_on_c, 0, 60, 36
3, 25260, Note_on_c, 0, 60, 0
3, 25260, Note_on_c, 0, 58, 36
3, 25290, Note_on_c, 0, 58, 0
3, 25290, Note_on_c, 0, 60, 36
3, 25320, Note_on_c, 0, 60, 0
3, 25320, Note_on_c, 0, 55, 0
3, 25320, Note_on_c, 0, 55, 36
3, 25350, Note_on_c, 0, 60, 36
3, 25380, Note_on_c, 0, 60, 0
3, 25380, Note_on_c, 0, 58, 36
3, 25410, Note_on_c, 0, 58, 0
3, 25410, Note_on_c, 0, 60, 36
3, 25440, Note_on_c, 0, 60, 0
3, 25440, Note_on_c, 0, 55, 0
3, 25440, Note_on_c, 0, 53, 36
3, 25470, Note_on_c, 0, 60, 36
3, 25500, Note_on_c, 0, 60, 0
3, 25500, Note_on_c, 0, 57, 36
3, 25530, Note_on_c, 0, 57, 0
3, 25530, Note_on_c, 0, 60, 36
3, 25560, Note_on_c, 0, 60, 0
3, 25560, Note_on_c, 0, 53, 0
3, 25560, Note_on_c, 0, 53, 36
3, 25590, Note_on_c, 0, 60, 36
3, 25620, Note_on_c, 0, 60, 0
3, 25620, Note_on_c, 0, 57, 36
3, 25650, Note_on_c, 0, 57, 0
3, 25650, Note_on_c, 0, 60, 36
3, 25680, Note_on_c, 0, 60, 0
3, 25680, Note_on_c, 0, 53, 0
3, 25680, Note_on_c, 0, 55, 36
3, 25710, Note_on_c, 0, 60, 36
3, 25740, Note_on_c, 0, 60, 0
3, 25740, Note_on_c, 0, 58, 36
3, 25770, Note_on_c, 0, 58, 0
3, 25770, Note_on_c, 0, 60, 36
3, 25800, Note_on_c, 0, 60, 0
3, 25800, Note_on_c, 0, 55, 0
3, 25800, Note_on_c, 0, 55, 36
3, 25830, Note_on_c, 0, 60, 36
3, 25860, Note_on_c, 0, 60, 0
3, 25860, Note_on_c, 0, 58, 36
3, 25890, Note_on_c, 0, 58, 0
3, 25890, Note_on_c, 0, 60, 36
3, 25920, Note_on_c, 0, 60, 0
3, 25920, Note_on_c, 0, 55, 0
3, 25920, Note_on_c, 0, 53, 36
3, 25950, Note_on_c, 0, 60, 36
3, 25980, Note_on_c, 0, 60, 0
3, 25980, Note_on_c, 0, 57, 36
3, 26010, Note_on_c, 0, 57, 0
3, 26010, Note_on_c, 0, 60, 36
3, 26040, Note_on_c, 0, 60, 0
3, 26040, Note_on_c, 0, 53, 0
3, 26040, Note_on_c, 0, 53, 36
3, 26070, Note_on_c, 0, 60, 36
3, 26100, Note_on_c, 0, 60, 0
3, 26100, Note_on_c, 0, 57, 36
3, 26130, Note_on_c, 0, 57, 0
3, 26130, Note_on_c, 0, 60, 36
3, 26160, Note_on_c, 0, 60, 0
3, 26160, Note_on_c, 0, 53, 0
3, 26160, Note_on_c, 0, 55, 36
3, 26190, Note_on_c, 0, 60, 36
3, 26220, Note_on_c, 0, 60, 0
3, 26220, Note_on_c, 0, 58, 36
3, 26250, Note_on_c, 0, 58, 0
3, 26250, Note_on_c, 0, 60, 36
3, 26280, Note_on_c, 0, 60, 0
3, 26280, Note_on_c, 0, 55, 0
3, 26280, Note_on_c, 0, 55, 36
3, 26310, Note_on_c, 0, 60, 36
3, 26340, Note_on_c, 0, 60, 0
3, 26340, Note_on_c, 0, 58, 36
3, 26370, Note_on_c, 0, 58, 0
3, 26370, Note_on_c, 0, 60, 36
3, 26400, Note_on_c, 0, 60, 0
3, 26400, Note_on_c, 0, 55, 0
3, 26400, Note_on_c, 0, 53, 36
3, 26430, Note_on_c, 0, 60, 36
3, 26460, Note_on_c, 0, 60, 0
3, 26460, Note_on_c, 0, 57, 38
3, 26490, Note_on_c, 0, 57, 0
3, 26490, Note_on_c, 0, 60, 40
3, 26520, Note_on_c, 0, 60, 0
3, 26520, Note_on_c, 0, 53, 0
3, 26520, Note_on_c, 0, 53, 42
3, 26550, Note_on_c, 0, 60, 43
3, 26580, Note_on_c, 0, 60, 0
3, 26580, Note_on_c, 0, 57, 45
3, 26610, Note_on_c, 0, 57, 0
3, 26610, Note_on_c, 0, 60, 47
3, 26640, Note_on_c, 0, 60, 0
3, 26640, Note_on_c, 0, 53, 0
3, 26640, Note_on_c, 0, 57, 49
3, 26670, Note_on_c, 0, 65, 49
3, 26700, Note_on_c, 0, 65, 0
3, 26700, Note_on_c, 0, 60, 48
3, 26730, Note_on_c, 0, 60, 0
3, 26730, Note_on_c, 0, 65, 48
3, 26760, Note_on_c, 0, 65, 0
3, 26760, Note_on_c, 0, 57, 0
3, 26760, Note_on_c, 0, 57, 47
3, 26790, Note_on_c, 0, 65, 46
3, 26820, Note_on_c, 0, 65, 0
3, 26820, Note_on_c, 0, 60, 46
3, 26850, Note_on_c, 0, 60, 0
3, 26850, Note_on_c, 0, 65, 45
3, 26880, Note_on_c, 0, 65, 0
3, 26880, Note_on_c, 0, 57, 0
3, 26880, Note_on_c, 0, 58, 45
3, 26910, Note_on_c, 0, 65, 43
3, 26940, Note_on_c, 0, 65, 0
3, 26940, Note_on_c, 0, 62, 40
3, 26970, Note_on_c, 0, 62, 0
3, 26970, Note_on_c, 0, 65, 38
3, 27000, Note_on_c, 0, 65, 0
3, 27000, Note_on_c, 0, 58, 0
3, 27000, Note_on_c, 0, 57, 46
3, 27030, Note_on_c, 0, 66, 36
3, 27060, Note_on_c, 0, 66, 0
3, 27060, Note_on_c, 0, 60, 36
3, 27090, Note_on_c, 0, 60, 0
3, 27090, Note_on_c, 0, 66, 36
3, 27120, Note_on_c, 0, 66, 0
3, 27120, Note_on_c, 0, 57, 0
3, 27120, Note_on_c, 0, 55, 44
3, 27150, Note_on_c, 0, 65, 36
3, 27180, Note_on_c, 0, 65, 0
3, 27180, Note_on_c, 0, 62, 36
3, 27210, Note_on_c, 0, 62, 0
3, 27210, Note_on_c, 0, 65, 36
3, 27240, Note_on_c, 0, 65, 0
3, 27240, Note_on_c, 0, 55, 0
3, 27240, Note_on_c, 0, 60, 40
3, 27270, Note_on_c, 0, 67, 36
3, 27300, Note_on_c, 0, 67, 0
3, 27300, Note_on_c, 0, 64, 36
3, 27330, Note_on_c, 0, 64, 0
3, 27330, Note_on_c, 0, 67, 36
3, 27360, Note_on_c, 0, 67, 0
3, 27360, Note_on_c, 0, 60, 0
3, 27360, Note_on_c, 0, 53, 41
3, 27390, Note_on_c, 0, 65, 36
3, 27420, Note_on_c, 0, 65, 0
3, 27420, Note_on_c, 0, 57, 36
3, 27450, Note_on_c, 0, 57, 0
3, 27450, Note_on_c, 0, 65, 36
3, 27480, Note_on_c, 0, 65, 0
3, 27480, Note_on_c, 0, 53, 0
3, 27480, Note_on_c, 0, 58, 41
3, 27510, Note_on_c, 0, 67, 36
3, 27540, Note_on_c, 0, 67, 0
3, 27540, Note_on_c, 0, 62, 36
3, 27570, Note_on_c, 0, 62, 0
3, 27570, Note_on_c, 0, 67, 36
3, 27600, Note_on_c, 0, 67, 0
3, 27600, Note_on_c, 0, 58, 0
3, 27600, Note_on_c, 0, 60, 40
3, 27630, Note_on_c, 0, 69, 36
3, 27660, Note_on_c, 0, 69, 0
3, 27660, Note_on_c, 0, 65, 36
3, 27690, Note_on_c, 0, 65, 0
3, 27690, Note_on_c, 0, 69, 36
3, 27720, Note_on_c, 0, 69, 0
3, 27720, Note_on_c, 0, 60, 0
3, 27720, Note_on_c, 0, 60, 42
3, 27750, Note_on_c, 0, 67, 36
3, 27780, Note_on_c, 0, 67, 0
3, 27780, Note_on_c, 0, 64, 36
3, 27810, Note_on_c, 0, 64, 0
3, 27810, Note_on_c, 0, 67, 36
3, 27840, Note_on_c, 0, 67, 0
3, 27840, Note_on_c, 0, 60, 0
3, 27840, Note_on_c, 0, 57, 41
3, 27870, Note_on_c, 0, 65, 36
3, 27900, Note_on_c, 0, 65, 0
3, 27900, Note_on_c, 0, 60, 36
3, 27930, Note_on_c, 0, 60, 0
3, 27930, Note_on_c, 0, 65, 36
3, 27960, Note_on_c, 0, 65, 0
3, 27960, Note_on_c, 0, 57, 0
3, 27960, Note_on_c, 0, 58, 41
3, 27990, Note_on_c, 0, 65, 36
3, 28020, Note_on_c, 0, 65, 0
3, 28020, Note_on_c, 0, 62, 36
3, 28050, Note_on_c, 0, 62, 0
3, 28050, Note_on_c, 0, 65, 36
3, 28080, Note_on_c, 0, 65, 0
3, 28080, Note_on_c, 0, 58, 0
3, 28080, Note_on_c, 0, 60, 39
3, 28110, Note_on_c, 0, 69, 36
3, 28140, Note_on_c, 0, 69, 0
3, 28140, Note_on_c, 0, 65, 36
3, 28170, Note_on_c, 0, 65, 0
3, 28170, Note_on_c, 0, 69, 36
3, 28200, Note_on_c, 0, 69, 0
3, 28200, Note_on_c, 0, 60, 0
3, 28200, Note_on_c, 0, 60, 40
3, 28230, Note_on_c, 0, 64, 36
3, 28260, Note_on_c, 0, 64, 0
3, 28260, Note_on_c, 0, 60, 0
3, 28260, Note_on_c, 0, 60, 36
3, 28290, Note_on_c, 0, 64, 36
3, 28320, Note_on_c, 0, 64, 0
3, 28320, Note_on_c, 0, 60, 0
3, 28320, Note_on_c, 0, 53, 36
3, 28320, Note_on_c, 0, 65, 36
3, 28440, Note_on_c, 0, 65, 0
3, 28440, Note_on_c, 0, 53, 0
3, 28920, Note_on_c, 0, 34, 45
3, 28920, Note_on_c, 0, 46, 45
3, 29040, Note_on_c, 0, 46, 0
3, 29040, Note_on_c, 0, 34, 0
3, 29040, Note_on_c, 0, 48, 45
3, 29040, Note_on_c, 0, 36, 45
3, 29160, Note_on_c, 0, 36, 0
3, 29160, Note_on_c, 0, 48, 0
3, 29160, Note_on_c, 0, 48, 45
3, 29160, Note_on_c, 0, 36, 45
3, 29280, Note_on_c, 0, 36, 0
3, 29280, Note_on_c, 0, 48, 0
3, 29280, Note_on_c, 0, 29, 39
3, 29280, Note_on_c, 0, 41, 39
3, 29520, Note_on_c, 0, 41, 0
3, 29520, Note_on_c, 0, 29, 0
3, 29880, Note_on_c, 0, 46, 40
3, 29880, Note_on_c, 0, 34, 40
3, 30000, Note_on_c, 0, 34, 0
3, 30000, Note_on_c, 0, 46, 0
3, 30000, Note_on_c, 0, 48, 40
3, 30000, Note_on_c, 0, 36, 40
3, 30120, Note_on_c, 0, 36, 0
3, 30120, Note_on_c, 0, 48, 0
3, 30120, Note_on_c, 0, 58, 40
3, 30120, Note_on_c, 0, 48, 40
3, 30240, Note_on_c, 0, 48, 0
3, 30240, Note_on_c, 0, 58, 0
3, 30240, Note_on_c, 0, 53, 40
3, 30480, Note_on_c, 0, 53, 0
3, 30480, Note_on_c, 0, 41, 36
3, 30483, Note_on_c, 0, 45, 36
3, 30486, Note_on_c, 0, 48, 36
3, 30660, Note_on_c, 0, 48, 0
3, 30660, Note_on_c, 0, 45, 0
3, 30660, Note_on_c, 0, 41, 0
3, 30660, End_track
0, 0, End_of_file
