0, 0, Header, 1, 6, 96
1, 0, Start_track
1, 0, Copyright_t, "Copyright  2000 <copyright holder>"
1, 0, Text_t, "Sonata in D\015\012"
1, 0, Text_t, "Haydn\015\012"
1, 0, Sequencer_specific, 16, 68, 87, 77, 90, 86, 82, 83, 78, 32, 55, 46, 48, 46, 56, 46, 48
1, 0, Time_signature, 2, 2, 24, 8
1, 0, Tempo, 857142
1, 0, Key_signature, 2, "major"
1, 24576, End_track
2, 0, Start_track
2, 0, Program_c, 0, 0
2, 0, Control_c, 0, 7, 127
2, 0, Control_c, 0, 10, 64
2, 0, Note_on_c, 0, 74, 64
2, 89, Note_on_c, 0, 74, 0
2, 96, Note_on_c, 0, 81, 64
2, 119, Note_on_c, 0, 81, 0
2, 120, Note_on_c, 0, 78, 64
2, 143, Note_on_c, 0, 78, 0
2, 144, Note_on_c, 0, 76, 64
2, 167, Note_on_c, 0, 76, 0
2, 168, Note_on_c, 0, 74, 64
2, 191, Note_on_c, 0, 74, 0
2, 192, Note_on_c, 0, 76, 64
2, 198, Note_on_c, 0, 76, 0
2, 198, Note_on_c, 0, 74, 64
2, 204, Note_on_c, 0, 74, 0
2, 204, Note_on_c, 0, 73, 64
2, 210, Note_on_c, 0, 73, 0
2, 210, Note_on_c, 0, 74, 64
2, 281, Note_on_c, 0, 74, 0
2, 288, Note_on_c, 0, 73, 64
2, 333, Note_on_c, 0, 73, 0
2, 336, Note_on_c, 0, 71, 64
2, 381, Note_on_c, 0, 71, 0
2, 384, Note_on_c, 0, 69, 64
2, 429, Note_on_c, 0, 69, 0
2, 432, Note_on_c, 0, 74, 64
2, 447, Note_on_c, 0, 74, 0
2, 448, Note_on_c, 0, 73, 64
2, 463, Note_on_c, 0, 73, 0
2, 464, Note_on_c, 0, 71, 64
2, 479, Note_on_c, 0, 71, 0
2, 480, Note_on_c, 0, 69, 64
2, 525, Note_on_c, 0, 69, 0
2, 528, Note_on_c, 0, 67, 64
2, 534, Note_on_c, 0, 67, 0
2, 534, Note_on_c, 0, 69, 64
2, 540, Note_on_c, 0, 69, 0
2, 540, Note_on_c, 0, 67, 64
2, 573, Note_on_c, 0, 67, 0
2, 576, Note_on_c, 0, 67, 64
2, 621, Note_on_c, 0, 67, 0
2, 624, Note_on_c, 0, 66, 64
2, 669, Note_on_c, 0, 66, 0
2, 768, Note_on_c, 0, 71, 64
2, 857, Note_on_c, 0, 71, 0
2, 864, Note_on_c, 0, 69, 64
2, 887, Note_on_c, 0, 69, 0
2, 888, Note_on_c, 0, 67, 64
2, 911, Note_on_c, 0, 67, 0
2, 912, Note_on_c, 0, 66, 64
2, 935, Note_on_c, 0, 66, 0
2, 936, Note_on_c, 0, 64, 64
2, 959, Note_on_c, 0, 64, 0
2, 960, Note_on_c, 0, 69, 64
2, 1049, Note_on_c, 0, 69, 0
2, 1056, Note_on_c, 0, 67, 64
2, 1079, Note_on_c, 0, 67, 0
2, 1080, Note_on_c, 0, 66, 64
2, 1103, Note_on_c, 0, 66, 0
2, 1104, Note_on_c, 0, 64, 64
2, 1127, Note_on_c, 0, 64, 0
2, 1128, Note_on_c, 0, 62, 64
2, 1151, Note_on_c, 0, 62, 0
2, 1152, Note_on_c, 0, 61, 64
2, 1175, Note_on_c, 0, 61, 0
2, 1176, Note_on_c, 0, 62, 64
2, 1199, Note_on_c, 0, 62, 0
2, 1200, Note_on_c, 0, 64, 64
2, 1223, Note_on_c, 0, 64, 0
2, 1224, Note_on_c, 0, 66, 64
2, 1247, Note_on_c, 0, 66, 0
2, 1248, Note_on_c, 0, 67, 64
2, 1293, Note_on_c, 0, 67, 0
2, 1296, Note_on_c, 0, 66, 64
2, 1296, Note_on_c, 0, 62, 64
2, 1341, Note_on_c, 0, 66, 0
2, 1341, Note_on_c, 0, 62, 0
2, 1344, Note_on_c, 0, 66, 64
2, 1344, Note_on_c, 0, 62, 64
2, 1392, Note_on_c, 0, 66, 0
2, 1392, Note_on_c, 0, 62, 0
2, 1392, Note_on_c, 0, 64, 64
2, 1392, Note_on_c, 0, 61, 64
2, 1437, Note_on_c, 0, 64, 0
2, 1437, Note_on_c, 0, 61, 0
2, 1536, Note_on_c, 0, 74, 64
2, 1625, Note_on_c, 0, 74, 0
2, 1632, Note_on_c, 0, 81, 64
2, 1655, Note_on_c, 0, 81, 0
2, 1656, Note_on_c, 0, 78, 64
2, 1679, Note_on_c, 0, 78, 0
2, 1680, Note_on_c, 0, 76, 64
2, 1703, Note_on_c, 0, 76, 0
2, 1704, Note_on_c, 0, 74, 64
2, 1727, Note_on_c, 0, 74, 0
2, 1728, Note_on_c, 0, 76, 64
2, 1734, Note_on_c, 0, 76, 0
2, 1734, Note_on_c, 0, 74, 64
2, 1740, Note_on_c, 0, 74, 0
2, 1740, Note_on_c, 0, 73, 64
2, 1746, Note_on_c, 0, 73, 0
2, 1746, Note_on_c, 0, 74, 64
2, 1817, Note_on_c, 0, 74, 0
2, 1824, Note_on_c, 0, 73, 64
2, 1869, Note_on_c, 0, 73, 0
2, 1872, Note_on_c, 0, 71, 64
2, 1917, Note_on_c, 0, 71, 0
2, 1920, Note_on_c, 0, 69, 64
2, 1965, Note_on_c, 0, 69, 0
2, 1968, Note_on_c, 0, 74, 64
2, 1983, Note_on_c, 0, 74, 0
2, 1984, Note_on_c, 0, 73, 64
2, 1999, Note_on_c, 0, 73, 0
2, 2000, Note_on_c, 0, 71, 64
2, 2015, Note_on_c, 0, 71, 0
2, 2016, Note_on_c, 0, 69, 64
2, 2061, Note_on_c, 0, 69, 0
2, 2064, Note_on_c, 0, 67, 64
2, 2070, Note_on_c, 0, 67, 0
2, 2070, Note_on_c, 0, 69, 64
2, 2076, Note_on_c, 0, 69, 0
2, 2076, Note_on_c, 0, 67, 64
2, 2109, Note_on_c, 0, 67, 0
2, 2112, Note_on_c, 0, 67, 64
2, 2157, Note_on_c, 0, 67, 0
2, 2160, Note_on_c, 0, 66, 64
2, 2205, Note_on_c, 0, 66, 0
2, 2304, Note_on_c, 0, 71, 64
2, 2393, Note_on_c, 0, 71, 0
2, 2400, Note_on_c, 0, 69, 64
2, 2423, Note_on_c, 0, 69, 0
2, 2424, Note_on_c, 0, 67, 64
2, 2447, Note_on_c, 0, 67, 0
2, 2448, Note_on_c, 0, 66, 64
2, 2471, Note_on_c, 0, 66, 0
2, 2472, Note_on_c, 0, 64, 64
2, 2495, Note_on_c, 0, 64, 0
2, 2496, Note_on_c, 0, 69, 64
2, 2585, Note_on_c, 0, 69, 0
2, 2592, Note_on_c, 0, 67, 64
2, 2615, Note_on_c, 0, 67, 0
2, 2616, Note_on_c, 0, 66, 64
2, 2639, Note_on_c, 0, 66, 0
2, 2640, Note_on_c, 0, 64, 64
2, 2663, Note_on_c, 0, 64, 0
2, 2664, Note_on_c, 0, 62, 64
2, 2687, Note_on_c, 0, 62, 0
2, 2688, Note_on_c, 0, 61, 64
2, 2711, Note_on_c, 0, 61, 0
2, 2712, Note_on_c, 0, 62, 64
2, 2735, Note_on_c, 0, 62, 0
2, 2736, Note_on_c, 0, 64, 64
2, 2759, Note_on_c, 0, 64, 0
2, 2760, Note_on_c, 0, 66, 64
2, 2783, Note_on_c, 0, 66, 0
2, 2784, Note_on_c, 0, 67, 64
2, 2829, Note_on_c, 0, 67, 0
2, 2832, Note_on_c, 0, 66, 64
2, 2832, Note_on_c, 0, 62, 64
2, 2877, Note_on_c, 0, 66, 0
2, 2877, Note_on_c, 0, 62, 0
2, 2880, Note_on_c, 0, 66, 64
2, 2880, Note_on_c, 0, 62, 64
2, 2928, Note_on_c, 0, 66, 0
2, 2928, Note_on_c, 0, 62, 0
2, 2928, Note_on_c, 0, 64, 64
2, 2928, Note_on_c, 0, 61, 64
2, 2973, Note_on_c, 0, 64, 0
2, 2973, Note_on_c, 0, 61, 0
2, 3072, Note_on_c, 0, 69, 75
2, 3161, Note_on_c, 0, 69, 0
2, 3168, Note_on_c, 0, 61, 76
2, 3213, Note_on_c, 0, 61, 0
2, 3216, Note_on_c, 0, 62, 77
2, 3222, Note_on_c, 0, 62, 0
2, 3222, Note_on_c, 0, 64, 77
2, 3228, Note_on_c, 0, 64, 0
2, 3228, Note_on_c, 0, 62, 77
2, 3261, Note_on_c, 0, 62, 0
2, 3264, Note_on_c, 0, 64, 78
2, 3309, Note_on_c, 0, 64, 0
2, 3312, Note_on_c, 0, 66, 79
2, 3318, Note_on_c, 0, 66, 0
2, 3318, Note_on_c, 0, 67, 79
2, 3324, Note_on_c, 0, 67, 0
2, 3324, Note_on_c, 0, 66, 79
2, 3357, Note_on_c, 0, 66, 0
2, 3360, Note_on_c, 0, 67, 80
2, 3449, Note_on_c, 0, 67, 0
2, 3456, Note_on_c, 0, 66, 82
2, 3479, Note_on_c, 0, 66, 0
2, 3480, Note_on_c, 0, 62, 82
2, 3503, Note_on_c, 0, 62, 0
2, 3504, Note_on_c, 0, 69, 83
2, 3504, Note_on_c, 0, 66, 83
2, 3549, Note_on_c, 0, 69, 0
2, 3549, Note_on_c, 0, 66, 0
2, 3552, Note_on_c, 0, 67, 84
2, 3552, Note_on_c, 0, 64, 84
2, 3597, Note_on_c, 0, 67, 0
2, 3597, Note_on_c, 0, 64, 0
2, 3600, Note_on_c, 0, 66, 81
2, 3600, Note_on_c, 0, 62, 81
2, 3645, Note_on_c, 0, 66, 0
2, 3645, Note_on_c, 0, 62, 0
2, 3648, Note_on_c, 0, 64, 79
2, 3648, Note_on_c, 0, 61, 79
2, 3737, Note_on_c, 0, 64, 0
2, 3737, Note_on_c, 0, 61, 0
2, 3840, Note_on_c, 0, 74, 75
2, 3929, Note_on_c, 0, 74, 0
2, 3936, Note_on_c, 0, 78, 75
2, 3959, Note_on_c, 0, 78, 0
2, 3960, Note_on_c, 0, 74, 75
2, 3983, Note_on_c, 0, 74, 0
2, 3984, Note_on_c, 0, 73, 75
2, 4007, Note_on_c, 0, 73, 0
2, 4008, Note_on_c, 0, 74, 75
2, 4031, Note_on_c, 0, 74, 0
2, 4032, Note_on_c, 0, 71, 75
2, 4121, Note_on_c, 0, 71, 0
2, 4128, Note_on_c, 0, 83, 75
2, 4151, Note_on_c, 0, 83, 0
2, 4152, Note_on_c, 0, 79, 75
2, 4175, Note_on_c, 0, 79, 0
2, 4176, Note_on_c, 0, 78, 75
2, 4199, Note_on_c, 0, 78, 0
2, 4200, Note_on_c, 0, 79, 75
2, 4223, Note_on_c, 0, 79, 0
2, 4224, Note_on_c, 0, 81, 75
2, 4247, Note_on_c, 0, 81, 0
2, 4248, Note_on_c, 0, 78, 75
2, 4271, Note_on_c, 0, 78, 0
2, 4272, Note_on_c, 0, 76, 75
2, 4295, Note_on_c, 0, 76, 0
2, 4296, Note_on_c, 0, 74, 75
2, 4319, Note_on_c, 0, 74, 0
2, 4320, Note_on_c, 0, 78, 75
2, 4327, Note_on_c, 0, 78, 0
2, 4327, Note_on_c, 0, 76, 75
2, 4334, Note_on_c, 0, 76, 0
2, 4334, Note_on_c, 0, 78, 75
2, 4341, Note_on_c, 0, 78, 0
2, 4341, Note_on_c, 0, 76, 75
2, 4348, Note_on_c, 0, 76, 0
2, 4348, Note_on_c, 0, 78, 75
2, 4355, Note_on_c, 0, 78, 0
2, 4355, Note_on_c, 0, 76, 75
2, 4362, Note_on_c, 0, 76, 0
2, 4362, Note_on_c, 0, 78, 75
2, 4369, Note_on_c, 0, 78, 0
2, 4369, Note_on_c, 0, 76, 75
2, 4376, Note_on_c, 0, 76, 0
2, 4376, Note_on_c, 0, 78, 75
2, 4383, Note_on_c, 0, 78, 0
2, 4383, Note_on_c, 0, 76, 75
2, 4390, Note_on_c, 0, 76, 0
2, 4390, Note_on_c, 0, 74, 75
2, 4404, Note_on_c, 0, 74, 0
2, 4404, Note_on_c, 0, 76, 75
2, 4416, Note_on_c, 0, 76, 0
2, 4416, Note_on_c, 0, 74, 75
2, 4505, Note_on_c, 0, 74, 0
2, 4608, Note_on_c, 0, 69, 75
2, 4697, Note_on_c, 0, 69, 0
2, 4704, Note_on_c, 0, 61, 76
2, 4749, Note_on_c, 0, 61, 0
2, 4752, Note_on_c, 0, 62, 77
2, 4758, Note_on_c, 0, 62, 0
2, 4758, Note_on_c, 0, 64, 77
2, 4764, Note_on_c, 0, 64, 0
2, 4764, Note_on_c, 0, 62, 77
2, 4797, Note_on_c, 0, 62, 0
2, 4800, Note_on_c, 0, 64, 78
2, 4845, Note_on_c, 0, 64, 0
2, 4848, Note_on_c, 0, 66, 79
2, 4854, Note_on_c, 0, 66, 0
2, 4854, Note_on_c, 0, 67, 79
2, 4860, Note_on_c, 0, 67, 0
2, 4860, Note_on_c, 0, 66, 79
2, 4893, Note_on_c, 0, 66, 0
2, 4896, Note_on_c, 0, 67, 80
2, 4985, Note_on_c, 0, 67, 0
2, 4992, Note_on_c, 0, 66, 82
2, 5015, Note_on_c, 0, 66, 0
2, 5016, Note_on_c, 0, 62, 82
2, 5039, Note_on_c, 0, 62, 0
2, 5040, Note_on_c, 0, 69, 83
2, 5040, Note_on_c, 0, 66, 83
2, 5085, Note_on_c, 0, 69, 0
2, 5085, Note_on_c, 0, 66, 0
2, 5088, Note_on_c, 0, 67, 84
2, 5088, Note_on_c, 0, 64, 84
2, 5133, Note_on_c, 0, 67, 0
2, 5133, Note_on_c, 0, 64, 0
2, 5136, Note_on_c, 0, 66, 81
2, 5136, Note_on_c, 0, 62, 81
2, 5181, Note_on_c, 0, 66, 0
2, 5181, Note_on_c, 0, 62, 0
2, 5184, Note_on_c, 0, 64, 79
2, 5184, Note_on_c, 0, 61, 79
2, 5273, Note_on_c, 0, 64, 0
2, 5273, Note_on_c, 0, 61, 0
2, 5376, Note_on_c, 0, 74, 75
2, 5465, Note_on_c, 0, 74, 0
2, 5472, Note_on_c, 0, 78, 75
2, 5495, Note_on_c, 0, 78, 0
2, 5496, Note_on_c, 0, 74, 75
2, 5519, Note_on_c, 0, 74, 0
2, 5520, Note_on_c, 0, 73, 75
2, 5543, Note_on_c, 0, 73, 0
2, 5544, Note_on_c, 0, 74, 75
2, 5567, Note_on_c, 0, 74, 0
2, 5568, Note_on_c, 0, 71, 75
2, 5657, Note_on_c, 0, 71, 0
2, 5664, Note_on_c, 0, 83, 75
2, 5687, Note_on_c, 0, 83, 0
2, 5688, Note_on_c, 0, 79, 75
2, 5711, Note_on_c, 0, 79, 0
2, 5712, Note_on_c, 0, 78, 75
2, 5735, Note_on_c, 0, 78, 0
2, 5736, Note_on_c, 0, 79, 75
2, 5759, Note_on_c, 0, 79, 0
2, 5760, Note_on_c, 0, 81, 75
2, 5783, Note_on_c, 0, 81, 0
2, 5784, Note_on_c, 0, 78, 75
2, 5807, Note_on_c, 0, 78, 0
2, 5808, Note_on_c, 0, 76, 75
2, 5831, Note_on_c, 0, 76, 0
2, 5832, Note_on_c, 0, 74, 75
2, 5855, Note_on_c, 0, 74, 0
2, 5856, Note_on_c, 0, 78, 75
2, 5863, Note_on_c, 0, 78, 0
2, 5863, Note_on_c, 0, 76, 75
2, 5870, Note_on_c, 0, 76, 0
2, 5870, Note_on_c, 0, 78, 75
2, 5877, Note_on_c, 0, 78, 0
2, 5877, Note_on_c, 0, 76, 75
2, 5884, Note_on_c, 0, 76, 0
2, 5884, Note_on_c, 0, 78, 75
2, 5891, Note_on_c, 0, 78, 0
2, 5891, Note_on_c, 0, 76, 75
2, 5898, Note_on_c, 0, 76, 0
2, 5898, Note_on_c, 0, 78, 75
2, 5905, Note_on_c, 0, 78, 0
2, 5905, Note_on_c, 0, 76, 75
2, 5912, Note_on_c, 0, 76, 0
2, 5912, Note_on_c, 0, 78, 75
2, 5919, Note_on_c, 0, 78, 0
2, 5919, Note_on_c, 0, 76, 75
2, 5926, Note_on_c, 0, 76, 0
2, 5926, Note_on_c, 0, 74, 75
2, 5940, Note_on_c, 0, 74, 0
2, 5940, Note_on_c, 0, 76, 75
2, 5952, Note_on_c, 0, 76, 0
2, 5952, Note_on_c, 0, 74, 75
2, 6041, Note_on_c, 0, 74, 0
2, 6144, Note_on_c, 0, 62, 75
2, 6167, Note_on_c, 0, 62, 0
2, 6168, Note_on_c, 0, 66, 77
2, 6191, Note_on_c, 0, 66, 0
2, 6192, Note_on_c, 0, 69, 79
2, 6215, Note_on_c, 0, 69, 0
2, 6216, Note_on_c, 0, 74, 81
2, 6239, Note_on_c, 0, 74, 0
2, 6240, Note_on_c, 0, 78, 84
2, 6263, Note_on_c, 0, 78, 0
2, 6264, Note_on_c, 0, 81, 81
2, 6287, Note_on_c, 0, 81, 0
2, 6288, Note_on_c, 0, 83, 79
2, 6311, Note_on_c, 0, 83, 0
2, 6312, Note_on_c, 0, 74, 77
2, 6335, Note_on_c, 0, 74, 0
2, 6336, Note_on_c, 0, 76, 75
2, 6342, Note_on_c, 0, 76, 0
2, 6342, Note_on_c, 0, 74, 75
2, 6348, Note_on_c, 0, 74, 0
2, 6348, Note_on_c, 0, 73, 75
2, 6354, Note_on_c, 0, 73, 0
2, 6354, Note_on_c, 0, 74, 75
2, 6425, Note_on_c, 0, 74, 0
2, 6432, Note_on_c, 0, 73, 75
2, 6455, Note_on_c, 0, 73, 0
2, 6456, Note_on_c, 0, 76, 79
2, 6479, Note_on_c, 0, 76, 0
2, 6480, Note_on_c, 0, 81, 84
2, 6503, Note_on_c, 0, 81, 0
2, 6504, Note_on_c, 0, 73, 79
2, 6527, Note_on_c, 0, 73, 0
2, 6528, Note_on_c, 0, 74, 75
2, 6551, Note_on_c, 0, 74, 0
2, 6552, Note_on_c, 0, 69, 76
2, 6575, Note_on_c, 0, 69, 0
2, 6576, Note_on_c, 0, 78, 77
2, 6599, Note_on_c, 0, 78, 0
2, 6600, Note_on_c, 0, 69, 78
2, 6623, Note_on_c, 0, 69, 0
2, 6624, Note_on_c, 0, 69, 79
2, 6647, Note_on_c, 0, 69, 0
2, 6648, Note_on_c, 0, 67, 80
2, 6671, Note_on_c, 0, 67, 0
2, 6672, Note_on_c, 0, 76, 81
2, 6695, Note_on_c, 0, 76, 0
2, 6696, Note_on_c, 0, 67, 82
2, 6719, Note_on_c, 0, 67, 0
2, 6720, Note_on_c, 0, 69, 83
2, 6727, Note_on_c, 0, 69, 0
2, 6727, Note_on_c, 0, 67, 83
2, 6734, Note_on_c, 0, 67, 0
2, 6734, Note_on_c, 0, 69, 83
2, 6741, Note_on_c, 0, 69, 0
2, 6741, Note_on_c, 0, 67, 84
2, 6748, Note_on_c, 0, 67, 0
2, 6748, Note_on_c, 0, 69, 83
2, 6755, Note_on_c, 0, 69, 0
2, 6755, Note_on_c, 0, 67, 82
2, 6762, Note_on_c, 0, 67, 0
2, 6762, Note_on_c, 0, 69, 81
2, 6769, Note_on_c, 0, 69, 0
2, 6769, Note_on_c, 0, 67, 81
2, 6776, Note_on_c, 0, 67, 0
2, 6776, Note_on_c, 0, 69, 80
2, 6783, Note_on_c, 0, 69, 0
2, 6783, Note_on_c, 0, 67, 79
2, 6790, Note_on_c, 0, 67, 0
2, 6790, Note_on_c, 0, 66, 79
2, 6804, Note_on_c, 0, 66, 0
2, 6804, Note_on_c, 0, 67, 77
2, 6816, Note_on_c, 0, 67, 0
2, 6816, Note_on_c, 0, 66, 75
2, 6839, Note_on_c, 0, 66, 0
2, 6840, Note_on_c, 0, 67, 75
2, 6863, Note_on_c, 0, 67, 0
2, 6864, Note_on_c, 0, 69, 75
2, 6887, Note_on_c, 0, 69, 0
2, 6888, Note_on_c, 0, 70, 75
2, 6911, Note_on_c, 0, 70, 0
2, 6912, Note_on_c, 0, 71, 75
2, 7001, Note_on_c, 0, 71, 0
2, 7008, Note_on_c, 0, 83, 75
2, 7031, Note_on_c, 0, 83, 0
2, 7032, Note_on_c, 0, 79, 75
2, 7055, Note_on_c, 0, 79, 0
2, 7056, Note_on_c, 0, 75, 75
2, 7079, Note_on_c, 0, 75, 0
2, 7080, Note_on_c, 0, 76, 75
2, 7103, Note_on_c, 0, 76, 0
2, 7104, Note_on_c, 0, 69, 75
2, 7193, Note_on_c, 0, 69, 0
2, 7200, Note_on_c, 0, 81, 75
2, 7223, Note_on_c, 0, 81, 0
2, 7224, Note_on_c, 0, 78, 75
2, 7247, Note_on_c, 0, 78, 0
2, 7248, Note_on_c, 0, 73, 75
2, 7271, Note_on_c, 0, 73, 0
2, 7272, Note_on_c, 0, 74, 75
2, 7295, Note_on_c, 0, 74, 0
2, 7296, Note_on_c, 0, 79, 75
2, 7319, Note_on_c, 0, 79, 0
2, 7320, Note_on_c, 0, 76, 75
2, 7343, Note_on_c, 0, 76, 0
2, 7344, Note_on_c, 0, 73, 75
2, 7367, Note_on_c, 0, 73, 0
2, 7368, Note_on_c, 0, 67, 75
2, 7391, Note_on_c, 0, 67, 0
2, 7392, Note_on_c, 0, 76, 75
2, 7415, Note_on_c, 0, 76, 0
2, 7416, Note_on_c, 0, 67, 75
2, 7439, Note_on_c, 0, 67, 0
2, 7440, Note_on_c, 0, 66, 75
2, 7463, Note_on_c, 0, 66, 0
2, 7464, Note_on_c, 0, 74, 75
2, 7487, Note_on_c, 0, 74, 0
2, 7488, Note_on_c, 0, 66, 75
2, 7536, Note_on_c, 0, 66, 0
2, 7536, Note_on_c, 0, 64, 75
2, 7581, Note_on_c, 0, 64, 0
2, 7680, Note_on_c, 0, 62, 75
2, 7703, Note_on_c, 0, 62, 0
2, 7704, Note_on_c, 0, 66, 77
2, 7727, Note_on_c, 0, 66, 0
2, 7728, Note_on_c, 0, 69, 79
2, 7751, Note_on_c, 0, 69, 0
2, 7752, Note_on_c, 0, 74, 81
2, 7775, Note_on_c, 0, 74, 0
2, 7776, Note_on_c, 0, 78, 84
2, 7799, Note_on_c, 0, 78, 0
2, 7800, Note_on_c, 0, 81, 81
2, 7823, Note_on_c, 0, 81, 0
2, 7824, Note_on_c, 0, 83, 79
2, 7847, Note_on_c, 0, 83, 0
2, 7848, Note_on_c, 0, 74, 77
2, 7871, Note_on_c, 0, 74, 0
2, 7872, Note_on_c, 0, 76, 75
2, 7878, Note_on_c, 0, 76, 0
2, 7878, Note_on_c, 0, 74, 75
2, 7884, Note_on_c, 0, 74, 0
2, 7884, Note_on_c, 0, 73, 75
2, 7890, Note_on_c, 0, 73, 0
2, 7890, Note_on_c, 0, 74, 75
2, 7961, Note_on_c, 0, 74, 0
2, 7968, Note_on_c, 0, 73, 75
2, 7991, Note_on_c, 0, 73, 0
2, 7992, Note_on_c, 0, 76, 79
2, 8015, Note_on_c, 0, 76, 0
2, 8016, Note_on_c, 0, 81, 84
2, 8039, Note_on_c, 0, 81, 0
2, 8040, Note_on_c, 0, 73, 79
2, 8063, Note_on_c, 0, 73, 0
2, 8064, Note_on_c, 0, 74, 75
2, 8087, Note_on_c, 0, 74, 0
2, 8088, Note_on_c, 0, 69, 76
2, 8111, Note_on_c, 0, 69, 0
2, 8112, Note_on_c, 0, 78, 77
2, 8135, Note_on_c, 0, 78, 0
2, 8136, Note_on_c, 0, 69, 78
2, 8159, Note_on_c, 0, 69, 0
2, 8160, Note_on_c, 0, 69, 79
2, 8183, Note_on_c, 0, 69, 0
2, 8184, Note_on_c, 0, 67, 80
2, 8207, Note_on_c, 0, 67, 0
2, 8208, Note_on_c, 0, 76, 81
2, 8231, Note_on_c, 0, 76, 0
2, 8232, Note_on_c, 0, 67, 82
2, 8255, Note_on_c, 0, 67, 0
2, 8256, Note_on_c, 0, 69, 83
2, 8263, Note_on_c, 0, 69, 0
2, 8263, Note_on_c, 0, 67, 83
2, 8270, Note_on_c, 0, 67, 0
2, 8270, Note_on_c, 0, 69, 83
2, 8277, Note_on_c, 0, 69, 0
2, 8277, Note_on_c, 0, 67, 84
2, 8284, Note_on_c, 0, 67, 0
2, 8284, Note_on_c, 0, 69, 83
2, 8291, Note_on_c, 0, 69, 0
2, 8291, Note_on_c, 0, 67, 82
2, 8298, Note_on_c, 0, 67, 0
2, 8298, Note_on_c, 0, 69, 81
2, 8305, Note_on_c, 0, 69, 0
2, 8305, Note_on_c, 0, 67, 81
2, 8312, Note_on_c, 0, 67, 0
2, 8312, Note_on_c, 0, 69, 80
2, 8319, Note_on_c, 0, 69, 0
2, 8319, Note_on_c, 0, 67, 79
2, 8326, Note_on_c, 0, 67, 0
2, 8326, Note_on_c, 0, 66, 79
2, 8340, Note_on_c, 0, 66, 0
2, 8340, Note_on_c, 0, 67, 77
2, 8352, Note_on_c, 0, 67, 0
2, 8352, Note_on_c, 0, 66, 75
2, 8375, Note_on_c, 0, 66, 0
2, 8376, Note_on_c, 0, 67, 75
2, 8399, Note_on_c, 0, 67, 0
2, 8400, Note_on_c, 0, 69, 75
2, 8423, Note_on_c, 0, 69, 0
2, 8424, Note_on_c, 0, 70, 75
2, 8447, Note_on_c, 0, 70, 0
2, 8448, Note_on_c, 0, 71, 75
2, 8537, Note_on_c, 0, 71, 0
2, 8544, Note_on_c, 0, 83, 75
2, 8567, Note_on_c, 0, 83, 0
2, 8568, Note_on_c, 0, 79, 75
2, 8591, Note_on_c, 0, 79, 0
2, 8592, Note_on_c, 0, 75, 75
2, 8615, Note_on_c, 0, 75, 0
2, 8616, Note_on_c, 0, 76, 75
2, 8639, Note_on_c, 0, 76, 0
2, 8640, Note_on_c, 0, 69, 75
2, 8729, Note_on_c, 0, 69, 0
2, 8736, Note_on_c, 0, 81, 75
2, 8759, Note_on_c, 0, 81, 0
2, 8760, Note_on_c, 0, 78, 75
2, 8783, Note_on_c, 0, 78, 0
2, 8784, Note_on_c, 0, 73, 75
2, 8807, Note_on_c, 0, 73, 0
2, 8808, Note_on_c, 0, 74, 75
2, 8831, Note_on_c, 0, 74, 0
2, 8832, Note_on_c, 0, 79, 75
2, 8855, Note_on_c, 0, 79, 0
2, 8856, Note_on_c, 0, 76, 75
2, 8879, Note_on_c, 0, 76, 0
2, 8880, Note_on_c, 0, 73, 75
2, 8903, Note_on_c, 0, 73, 0
2, 8904, Note_on_c, 0, 67, 75
2, 8927, Note_on_c, 0, 67, 0
2, 8928, Note_on_c, 0, 76, 75
2, 8951, Note_on_c, 0, 76, 0
2, 8952, Note_on_c, 0, 67, 75
2, 8975, Note_on_c, 0, 67, 0
2, 8976, Note_on_c, 0, 66, 75
2, 8999, Note_on_c, 0, 66, 0
2, 9000, Note_on_c, 0, 74, 75
2, 9023, Note_on_c, 0, 74, 0
2, 9024, Note_on_c, 0, 66, 75
2, 9072, Note_on_c, 0, 66, 0
2, 9072, Note_on_c, 0, 64, 75
2, 9117, Note_on_c, 0, 64, 0
2, 9216, Note_on_c, 0, 61, 75
2, 9239, Note_on_c, 0, 61, 0
2, 9240, Note_on_c, 0, 64, 75
2, 9263, Note_on_c, 0, 64, 0
2, 9264, Note_on_c, 0, 69, 75
2, 9287, Note_on_c, 0, 69, 0
2, 9288, Note_on_c, 0, 64, 76
2, 9311, Note_on_c, 0, 64, 0
2, 9312, Note_on_c, 0, 61, 76
2, 9335, Note_on_c, 0, 61, 0
2, 9336, Note_on_c, 0, 69, 77
2, 9359, Note_on_c, 0, 69, 0
2, 9360, Note_on_c, 0, 62, 77
2, 9383, Note_on_c, 0, 62, 0
2, 9384, Note_on_c, 0, 69, 78
2, 9407, Note_on_c, 0, 69, 0
2, 9408, Note_on_c, 0, 64, 78
2, 9431, Note_on_c, 0, 64, 0
2, 9432, Note_on_c, 0, 69, 78
2, 9455, Note_on_c, 0, 69, 0
2, 9456, Note_on_c, 0, 66, 79
2, 9479, Note_on_c, 0, 66, 0
2, 9480, Note_on_c, 0, 69, 79
2, 9503, Note_on_c, 0, 69, 0
2, 9504, Note_on_c, 0, 67, 80
2, 9527, Note_on_c, 0, 67, 0
2, 9528, Note_on_c, 0, 69, 80
2, 9551, Note_on_c, 0, 69, 0
2, 9552, Note_on_c, 0, 64, 81
2, 9575, Note_on_c, 0, 64, 0
2, 9576, Note_on_c, 0, 69, 81
2, 9599, Note_on_c, 0, 69, 0
2, 9600, Note_on_c, 0, 66, 81
2, 9623, Note_on_c, 0, 66, 0
2, 9624, Note_on_c, 0, 69, 82
2, 9647, Note_on_c, 0, 69, 0
2, 9648, Note_on_c, 0, 74, 82
2, 9671, Note_on_c, 0, 74, 0
2, 9672, Note_on_c, 0, 69, 83
2, 9695, Note_on_c, 0, 69, 0
2, 9696, Note_on_c, 0, 67, 83
2, 9719, Note_on_c, 0, 67, 0
2, 9720, Note_on_c, 0, 64, 84
2, 9743, Note_on_c, 0, 64, 0
2, 9744, Note_on_c, 0, 66, 82
2, 9767, Note_on_c, 0, 66, 0
2, 9768, Note_on_c, 0, 62, 81
2, 9791, Note_on_c, 0, 62, 0
2, 9792, Note_on_c, 0, 61, 80
2, 9815, Note_on_c, 0, 61, 0
2, 9816, Note_on_c, 0, 69, 78
2, 9839, Note_on_c, 0, 69, 0
2, 9840, Note_on_c, 0, 57, 77
2, 9885, Note_on_c, 0, 57, 0
2, 9984, Note_on_c, 0, 62, 75
2, 10007, Note_on_c, 0, 62, 0
2, 10008, Note_on_c, 0, 66, 77
2, 10031, Note_on_c, 0, 66, 0
2, 10032, Note_on_c, 0, 69, 79
2, 10055, Note_on_c, 0, 69, 0
2, 10056, Note_on_c, 0, 74, 81
2, 10079, Note_on_c, 0, 74, 0
2, 10080, Note_on_c, 0, 78, 84
2, 10103, Note_on_c, 0, 78, 0
2, 10104, Note_on_c, 0, 81, 81
2, 10127, Note_on_c, 0, 81, 0
2, 10128, Note_on_c, 0, 86, 79
2, 10151, Note_on_c, 0, 86, 0
2, 10152, Note_on_c, 0, 81, 77
2, 10175, Note_on_c, 0, 81, 0
2, 10176, Note_on_c, 0, 83, 75
2, 10199, Note_on_c, 0, 83, 0
2, 10200, Note_on_c, 0, 74, 78
2, 10223, Note_on_c, 0, 74, 0
2, 10224, Note_on_c, 0, 79, 81
2, 10247, Note_on_c, 0, 79, 0
2, 10248, Note_on_c, 0, 83, 84
2, 10271, Note_on_c, 0, 83, 0
2, 10272, Note_on_c, 0, 86, 82
2, 10295, Note_on_c, 0, 86, 0
2, 10296, Note_on_c, 0, 83, 80
2, 10319, Note_on_c, 0, 83, 0
2, 10320, Note_on_c, 0, 81, 78
2, 10343, Note_on_c, 0, 81, 0
2, 10344, Note_on_c, 0, 79, 76
2, 10367, Note_on_c, 0, 79, 0
2, 10368, Note_on_c, 0, 81, 75
2, 10391, Note_on_c, 0, 81, 0
2, 10392, Note_on_c, 0, 86, 75
2, 10415, Note_on_c, 0, 86, 0
2, 10416, Note_on_c, 0, 74, 75
2, 10439, Note_on_c, 0, 74, 0
2, 10440, Note_on_c, 0, 76, 75
2, 10463, Note_on_c, 0, 76, 0
2, 10464, Note_on_c, 0, 78, 75
2, 10471, Note_on_c, 0, 78, 0
2, 10471, Note_on_c, 0, 76, 75
2, 10478, Note_on_c, 0, 76, 0
2, 10478, Note_on_c, 0, 78, 75
2, 10485, Note_on_c, 0, 78, 0
2, 10485, Note_on_c, 0, 76, 75
2, 10492, Note_on_c, 0, 76, 0
2, 10492, Note_on_c, 0, 78, 75
2, 10499, Note_on_c, 0, 78, 0
2, 10499, Note_on_c, 0, 76, 75
2, 10506, Note_on_c, 0, 76, 0
2, 10506, Note_on_c, 0, 78, 75
2, 10513, Note_on_c, 0, 78, 0
2, 10513, Note_on_c, 0, 76, 75
2, 10520, Note_on_c, 0, 76, 0
2, 10520, Note_on_c, 0, 78, 75
2, 10527, Note_on_c, 0, 78, 0
2, 10527, Note_on_c, 0, 76, 75
2, 10534, Note_on_c, 0, 76, 0
2, 10534, Note_on_c, 0, 74, 75
2, 10548, Note_on_c, 0, 74, 0
2, 10548, Note_on_c, 0, 76, 75
2, 10560, Note_on_c, 0, 76, 0
2, 10560, Note_on_c, 0, 74, 75
2, 10649, Note_on_c, 0, 74, 0
2, 10752, Note_on_c, 0, 61, 75
2, 10775, Note_on_c, 0, 61, 0
2, 10776, Note_on_c, 0, 64, 75
2, 10799, Note_on_c, 0, 64, 0
2, 10800, Note_on_c, 0, 69, 75
2, 10823, Note_on_c, 0, 69, 0
2, 10824, Note_on_c, 0, 64, 76
2, 10847, Note_on_c, 0, 64, 0
2, 10848, Note_on_c, 0, 61, 76
2, 10871, Note_on_c, 0, 61, 0
2, 10872, Note_on_c, 0, 69, 77
2, 10895, Note_on_c, 0, 69, 0
2, 10896, Note_on_c, 0, 62, 77
2, 10919, Note_on_c, 0, 62, 0
2, 10920, Note_on_c, 0, 69, 78
2, 10943, Note_on_c, 0, 69, 0
2, 10944, Note_on_c, 0, 64, 78
2, 10967, Note_on_c, 0, 64, 0
2, 10968, Note_on_c, 0, 69, 78
2, 10991, Note_on_c, 0, 69, 0
2, 10992, Note_on_c, 0, 66, 79
2, 11015, Note_on_c, 0, 66, 0
2, 11016, Note_on_c, 0, 69, 79
2, 11039, Note_on_c, 0, 69, 0
2, 11040, Note_on_c, 0, 67, 80
2, 11063, Note_on_c, 0, 67, 0
2, 11064, Note_on_c, 0, 69, 80
2, 11087, Note_on_c, 0, 69, 0
2, 11088, Note_on_c, 0, 64, 81
2, 11111, Note_on_c, 0, 64, 0
2, 11112, Note_on_c, 0, 69, 81
2, 11135, Note_on_c, 0, 69, 0
2, 11136, Note_on_c, 0, 66, 81
2, 11159, Note_on_c, 0, 66, 0
2, 11160, Note_on_c, 0, 69, 82
2, 11183, Note_on_c, 0, 69, 0
2, 11184, Note_on_c, 0, 74, 82
2, 11207, Note_on_c, 0, 74, 0
2, 11208, Note_on_c, 0, 69, 83
2, 11231, Note_on_c, 0, 69, 0
2, 11232, Note_on_c, 0, 67, 83
2, 11255, Note_on_c, 0, 67, 0
2, 11256, Note_on_c, 0, 64, 84
2, 11279, Note_on_c, 0, 64, 0
2, 11280, Note_on_c, 0, 66, 82
2, 11303, Note_on_c, 0, 66, 0
2, 11304, Note_on_c, 0, 62, 81
2, 11327, Note_on_c, 0, 62, 0
2, 11328, Note_on_c, 0, 61, 80
2, 11351, Note_on_c, 0, 61, 0
2, 11352, Note_on_c, 0, 69, 78
2, 11375, Note_on_c, 0, 69, 0
2, 11376, Note_on_c, 0, 57, 77
2, 11421, Note_on_c, 0, 57, 0
2, 11520, Note_on_c, 0, 62, 75
2, 11543, Note_on_c, 0, 62, 0
2, 11544, Note_on_c, 0, 66, 77
2, 11567, Note_on_c, 0, 66, 0
2, 11568, Note_on_c, 0, 69, 79
2, 11591, Note_on_c, 0, 69, 0
2, 11592, Note_on_c, 0, 74, 81
2, 11615, Note_on_c, 0, 74, 0
2, 11616, Note_on_c, 0, 78, 84
2, 11639, Note_on_c, 0, 78, 0
2, 11640, Note_on_c, 0, 81, 81
2, 11663, Note_on_c, 0, 81, 0
2, 11664, Note_on_c, 0, 86, 79
2, 11687, Note_on_c, 0, 86, 0
2, 11688, Note_on_c, 0, 81, 77
2, 11711, Note_on_c, 0, 81, 0
2, 11712, Note_on_c, 0, 83, 75
2, 11735, Note_on_c, 0, 83, 0
2, 11736, Note_on_c, 0, 74, 78
2, 11759, Note_on_c, 0, 74, 0
2, 11760, Note_on_c, 0, 79, 81
2, 11783, Note_on_c, 0, 79, 0
2, 11784, Note_on_c, 0, 83, 84
2, 11807, Note_on_c, 0, 83, 0
2, 11808, Note_on_c, 0, 86, 82
2, 11831, Note_on_c, 0, 86, 0
2, 11832, Note_on_c, 0, 83, 80
2, 11855, Note_on_c, 0, 83, 0
2, 11856, Note_on_c, 0, 81, 78
2, 11879, Note_on_c, 0, 81, 0
2, 11880, Note_on_c, 0, 79, 76
2, 11903, Note_on_c, 0, 79, 0
2, 11904, Note_on_c, 0, 81, 75
2, 11927, Note_on_c, 0, 81, 0
2, 11928, Note_on_c, 0, 86, 75
2, 11951, Note_on_c, 0, 86, 0
2, 11952, Note_on_c, 0, 74, 75
2, 11975, Note_on_c, 0, 74, 0
2, 11976, Note_on_c, 0, 76, 75
2, 11999, Note_on_c, 0, 76, 0
2, 12000, Note_on_c, 0, 78, 75
2, 12007, Note_on_c, 0, 78, 0
2, 12007, Note_on_c, 0, 76, 75
2, 12014, Note_on_c, 0, 76, 0
2, 12014, Note_on_c, 0, 78, 75
2, 12021, Note_on_c, 0, 78, 0
2, 12021, Note_on_c, 0, 76, 75
2, 12028, Note_on_c, 0, 76, 0
2, 12028, Note_on_c, 0, 78, 75
2, 12035, Note_on_c, 0, 78, 0
2, 12035, Note_on_c, 0, 76, 75
2, 12042, Note_on_c, 0, 76, 0
2, 12042, Note_on_c, 0, 78, 75
2, 12049, Note_on_c, 0, 78, 0
2, 12049, Note_on_c, 0, 76, 75
2, 12056, Note_on_c, 0, 76, 0
2, 12056, Note_on_c, 0, 78, 75
2, 12063, Note_on_c, 0, 78, 0
2, 12063, Note_on_c, 0, 76, 75
2, 12070, Note_on_c, 0, 76, 0
2, 12070, Note_on_c, 0, 74, 75
2, 12084, Note_on_c, 0, 74, 0
2, 12084, Note_on_c, 0, 76, 75
2, 12096, Note_on_c, 0, 76, 0
2, 12096, Note_on_c, 0, 74, 75
2, 12185, Note_on_c, 0, 74, 0
2, 12288, Note_on_c, 0, 81, 75
2, 12288, Note_on_c, 0, 78, 75
2, 12377, Note_on_c, 0, 81, 0
2, 12377, Note_on_c, 0, 78, 0
2, 12384, Note_on_c, 0, 86, 75
2, 12384, Note_on_c, 0, 74, 75
2, 12429, Note_on_c, 0, 86, 0
2, 12429, Note_on_c, 0, 74, 0
2, 12432, Note_on_c, 0, 83, 75
2, 12432, Note_on_c, 0, 79, 75
2, 12477, Note_on_c, 0, 83, 0
2, 12477, Note_on_c, 0, 79, 0
2, 12480, Note_on_c, 0, 81, 75
2, 12480, Note_on_c, 0, 78, 75
2, 12547, Note_on_c, 0, 81, 0
2, 12547, Note_on_c, 0, 78, 0
2, 12552, Note_on_c, 0, 79, 75
2, 12552, Note_on_c, 0, 76, 75
2, 12575, Note_on_c, 0, 79, 0
2, 12575, Note_on_c, 0, 76, 0
2, 12576, Note_on_c, 0, 78, 75
2, 12576, Note_on_c, 0, 74, 75
2, 12621, Note_on_c, 0, 78, 0
2, 12621, Note_on_c, 0, 74, 0
2, 12624, Note_on_c, 0, 81, 75
2, 12639, Note_on_c, 0, 81, 0
2, 12640, Note_on_c, 0, 76, 75
2, 12655, Note_on_c, 0, 76, 0
2, 12656, Note_on_c, 0, 73, 75
2, 12671, Note_on_c, 0, 73, 0
2, 12672, Note_on_c, 0, 74, 75
2, 12717, Note_on_c, 0, 74, 0
2, 12720, Note_on_c, 0, 78, 75
2, 12735, Note_on_c, 0, 78, 0
2, 12736, Note_on_c, 0, 74, 75
2, 12751, Note_on_c, 0, 74, 0
2, 12752, Note_on_c, 0, 69, 75
2, 12767, Note_on_c, 0, 69, 0
2, 12768, Note_on_c, 0, 69, 75
2, 12813, Note_on_c, 0, 69, 0
2, 12816, Note_on_c, 0, 67, 75
2, 12823, Note_on_c, 0, 67, 0
2, 12823, Note_on_c, 0, 69, 75
2, 12830, Note_on_c, 0, 69, 0
2, 12830, Note_on_c, 0, 67, 75
2, 12837, Note_on_c, 0, 67, 0
2, 12837, Note_on_c, 0, 69, 75
2, 12844, Note_on_c, 0, 69, 0
2, 12844, Note_on_c, 0, 67, 75
2, 12851, Note_on_c, 0, 67, 0
2, 12851, Note_on_c, 0, 66, 75
2, 12858, Note_on_c, 0, 66, 0
2, 12858, Note_on_c, 0, 67, 75
2, 12864, Note_on_c, 0, 67, 0
2, 12864, Note_on_c, 0, 67, 75
2, 12912, Note_on_c, 0, 67, 0
2, 12912, Note_on_c, 0, 66, 75
2, 12957, Note_on_c, 0, 66, 0
2, 13056, Note_on_c, 0, 83, 91
2, 13056, Note_on_c, 0, 71, 91
2, 13128, Note_on_c, 0, 83, 0
2, 13128, Note_on_c, 0, 71, 0
2, 13128, Note_on_c, 0, 83, 75
2, 13128, Note_on_c, 0, 79, 75
2, 13151, Note_on_c, 0, 83, 0
2, 13151, Note_on_c, 0, 79, 0
2, 13152, Note_on_c, 0, 81, 75
2, 13152, Note_on_c, 0, 78, 75
2, 13175, Note_on_c, 0, 81, 0
2, 13175, Note_on_c, 0, 78, 0
2, 13176, Note_on_c, 0, 79, 75
2, 13176, Note_on_c, 0, 76, 75
2, 13199, Note_on_c, 0, 79, 0
2, 13199, Note_on_c, 0, 76, 0
2, 13200, Note_on_c, 0, 78, 75
2, 13200, Note_on_c, 0, 75, 75
2, 13223, Note_on_c, 0, 78, 0
2, 13223, Note_on_c, 0, 75, 0
2, 13224, Note_on_c, 0, 79, 75
2, 13224, Note_on_c, 0, 76, 75
2, 13247, Note_on_c, 0, 79, 0
2, 13247, Note_on_c, 0, 76, 0
2, 13248, Note_on_c, 0, 81, 91
2, 13248, Note_on_c, 0, 78, 91
2, 13320, Note_on_c, 0, 81, 0
2, 13320, Note_on_c, 0, 78, 0
2, 13320, Note_on_c, 0, 81, 75
2, 13320, Note_on_c, 0, 78, 75
2, 13343, Note_on_c, 0, 81, 0
2, 13343, Note_on_c, 0, 78, 0
2, 13344, Note_on_c, 0, 79, 75
2, 13344, Note_on_c, 0, 76, 75
2, 13367, Note_on_c, 0, 79, 0
2, 13367, Note_on_c, 0, 76, 0
2, 13368, Note_on_c, 0, 78, 75
2, 13368, Note_on_c, 0, 74, 75
2, 13391, Note_on_c, 0, 78, 0
2, 13391, Note_on_c, 0, 74, 0
2, 13392, Note_on_c, 0, 76, 75
2, 13392, Note_on_c, 0, 73, 75
2, 13415, Note_on_c, 0, 76, 0
2, 13415, Note_on_c, 0, 73, 0
2, 13416, Note_on_c, 0, 78, 75
2, 13416, Note_on_c, 0, 74, 75
2, 13439, Note_on_c, 0, 78, 0
2, 13439, Note_on_c, 0, 74, 0
2, 13440, Note_on_c, 0, 79, 91
2, 13440, Note_on_c, 0, 67, 91
2, 13512, Note_on_c, 0, 79, 0
2, 13512, Note_on_c, 0, 67, 0
2, 13512, Note_on_c, 0, 79, 75
2, 13512, Note_on_c, 0, 71, 75
2, 13535, Note_on_c, 0, 79, 0
2, 13535, Note_on_c, 0, 71, 0
2, 13560, Note_on_c, 0, 79, 75
2, 13560, Note_on_c, 0, 69, 75
2, 13583, Note_on_c, 0, 79, 0
2, 13583, Note_on_c, 0, 69, 0
2, 13608, Note_on_c, 0, 78, 75
2, 13608, Note_on_c, 0, 74, 75
2, 13631, Note_on_c, 0, 78, 0
2, 13631, Note_on_c, 0, 74, 0
2, 13632, Note_on_c, 0, 78, 75
2, 13632, Note_on_c, 0, 74, 75
2, 13680, Note_on_c, 0, 78, 0
2, 13680, Note_on_c, 0, 74, 0
2, 13680, Note_on_c, 0, 76, 75
2, 13680, Note_on_c, 0, 73, 75
2, 13725, Note_on_c, 0, 76, 0
2, 13725, Note_on_c, 0, 73, 0
2, 13824, Note_on_c, 0, 81, 75
2, 13824, Note_on_c, 0, 78, 75
2, 13913, Note_on_c, 0, 81, 0
2, 13913, Note_on_c, 0, 78, 0
2, 13920, Note_on_c, 0, 86, 75
2, 13920, Note_on_c, 0, 74, 75
2, 13965, Note_on_c, 0, 86, 0
2, 13965, Note_on_c, 0, 74, 0
2, 13968, Note_on_c, 0, 83, 75
2, 13968, Note_on_c, 0, 79, 75
2, 14013, Note_on_c, 0, 83, 0
2, 14013, Note_on_c, 0, 79, 0
2, 14016, Note_on_c, 0, 81, 75
2, 14016, Note_on_c, 0, 78, 75
2, 14083, Note_on_c, 0, 81, 0
2, 14083, Note_on_c, 0, 78, 0
2, 14088, Note_on_c, 0, 79, 75
2, 14088, Note_on_c, 0, 76, 75
2, 14111, Note_on_c, 0, 79, 0
2, 14111, Note_on_c, 0, 76, 0
2, 14112, Note_on_c, 0, 78, 75
2, 14112, Note_on_c, 0, 74, 75
2, 14157, Note_on_c, 0, 78, 0
2, 14157, Note_on_c, 0, 74, 0
2, 14160, Note_on_c, 0, 81, 75
2, 14175, Note_on_c, 0, 81, 0
2, 14176, Note_on_c, 0, 76, 75
2, 14191, Note_on_c, 0, 76, 0
2, 14192, Note_on_c, 0, 73, 75
2, 14207, Note_on_c, 0, 73, 0
2, 14208, Note_on_c, 0, 74, 75
2, 14253, Note_on_c, 0, 74, 0
2, 14256, Note_on_c, 0, 78, 75
2, 14271, Note_on_c, 0, 78, 0
2, 14272, Note_on_c, 0, 74, 75
2, 14287, Note_on_c, 0, 74, 0
2, 14288, Note_on_c, 0, 69, 75
2, 14303, Note_on_c, 0, 69, 0
2, 14304, Note_on_c, 0, 69, 75
2, 14349, Note_on_c, 0, 69, 0
2, 14352, Note_on_c, 0, 67, 75
2, 14359, Note_on_c, 0, 67, 0
2, 14359, Note_on_c, 0, 69, 75
2, 14366, Note_on_c, 0, 69, 0
2, 14366, Note_on_c, 0, 67, 75
2, 14373, Note_on_c, 0, 67, 0
2, 14373, Note_on_c, 0, 69, 75
2, 14380, Note_on_c, 0, 69, 0
2, 14380, Note_on_c, 0, 67, 75
2, 14387, Note_on_c, 0, 67, 0
2, 14387, Note_on_c, 0, 66, 75
2, 14394, Note_on_c, 0, 66, 0
2, 14394, Note_on_c, 0, 67, 75
2, 14400, Note_on_c, 0, 67, 0
2, 14400, Note_on_c, 0, 67, 75
2, 14448, Note_on_c, 0, 67, 0
2, 14448, Note_on_c, 0, 66, 75
2, 14493, Note_on_c, 0, 66, 0
2, 14592, Note_on_c, 0, 83, 91
2, 14592, Note_on_c, 0, 71, 91
2, 14664, Note_on_c, 0, 83, 0
2, 14664, Note_on_c, 0, 71, 0
2, 14664, Note_on_c, 0, 83, 75
2, 14664, Note_on_c, 0, 79, 75
2, 14687, Note_on_c, 0, 83, 0
2, 14687, Note_on_c, 0, 79, 0
2, 14688, Note_on_c, 0, 81, 75
2, 14688, Note_on_c, 0, 78, 75
2, 14711, Note_on_c, 0, 81, 0
2, 14711, Note_on_c, 0, 78, 0
2, 14712, Note_on_c, 0, 79, 75
2, 14712, Note_on_c, 0, 76, 75
2, 14735, Note_on_c, 0, 79, 0
2, 14735, Note_on_c, 0, 76, 0
2, 14736, Note_on_c, 0, 78, 75
2, 14736, Note_on_c, 0, 75, 75
2, 14759, Note_on_c, 0, 78, 0
2, 14759, Note_on_c, 0, 75, 0
2, 14760, Note_on_c, 0, 79, 75
2, 14760, Note_on_c, 0, 76, 75
2, 14783, Note_on_c, 0, 79, 0
2, 14783, Note_on_c, 0, 76, 0
2, 14784, Note_on_c, 0, 81, 91
2, 14784, Note_on_c, 0, 78, 91
2, 14856, Note_on_c, 0, 81, 0
2, 14856, Note_on_c, 0, 78, 0
2, 14856, Note_on_c, 0, 81, 75
2, 14856, Note_on_c, 0, 78, 75
2, 14879, Note_on_c, 0, 81, 0
2, 14879, Note_on_c, 0, 78, 0
2, 14880, Note_on_c, 0, 79, 75
2, 14880, Note_on_c, 0, 76, 75
2, 14903, Note_on_c, 0, 79, 0
2, 14903, Note_on_c, 0, 76, 0
2, 14904, Note_on_c, 0, 78, 75
2, 14904, Note_on_c, 0, 74, 75
2, 14927, Note_on_c, 0, 78, 0
2, 14927, Note_on_c, 0, 74, 0
2, 14928, Note_on_c, 0, 76, 75
2, 14928, Note_on_c, 0, 73, 75
2, 14951, Note_on_c, 0, 76, 0
2, 14951, Note_on_c, 0, 73, 0
2, 14952, Note_on_c, 0, 78, 75
2, 14952, Note_on_c, 0, 74, 75
2, 14975, Note_on_c, 0, 78, 0
2, 14975, Note_on_c, 0, 74, 0
2, 14976, Note_on_c, 0, 79, 91
2, 14976, Note_on_c, 0, 67, 91
2, 15048, Note_on_c, 0, 79, 0
2, 15048, Note_on_c, 0, 67, 0
2, 15048, Note_on_c, 0, 79, 75
2, 15048, Note_on_c, 0, 71, 75
2, 15071, Note_on_c, 0, 79, 0
2, 15071, Note_on_c, 0, 71, 0
2, 15096, Note_on_c, 0, 79, 75
2, 15096, Note_on_c, 0, 69, 75
2, 15119, Note_on_c, 0, 79, 0
2, 15119, Note_on_c, 0, 69, 0
2, 15144, Note_on_c, 0, 78, 75
2, 15144, Note_on_c, 0, 74, 75
2, 15167, Note_on_c, 0, 78, 0
2, 15167, Note_on_c, 0, 74, 0
2, 15168, Note_on_c, 0, 78, 75
2, 15168, Note_on_c, 0, 74, 75
2, 15216, Note_on_c, 0, 78, 0
2, 15216, Note_on_c, 0, 74, 0
2, 15216, Note_on_c, 0, 76, 75
2, 15216, Note_on_c, 0, 73, 75
2, 15261, Note_on_c, 0, 76, 0
2, 15261, Note_on_c, 0, 73, 0
2, 15360, Note_on_c, 0, 73, 75
2, 15383, Note_on_c, 0, 73, 0
2, 15384, Note_on_c, 0, 69, 75
2, 15407, Note_on_c, 0, 69, 0
2, 15408, Note_on_c, 0, 69, 75
2, 15431, Note_on_c, 0, 69, 0
2, 15432, Note_on_c, 0, 69, 76
2, 15455, Note_on_c, 0, 69, 0
2, 15480, Note_on_c, 0, 73, 77
2, 15503, Note_on_c, 0, 73, 0
2, 15528, Note_on_c, 0, 74, 78
2, 15551, Note_on_c, 0, 74, 0
2, 15576, Note_on_c, 0, 76, 79
2, 15599, Note_on_c, 0, 76, 0
2, 15624, Note_on_c, 0, 78, 79
2, 15647, Note_on_c, 0, 78, 0
2, 15672, Note_on_c, 0, 79, 80
2, 15695, Note_on_c, 0, 79, 0
2, 15720, Note_on_c, 0, 76, 81
2, 15743, Note_on_c, 0, 76, 0
2, 15744, Note_on_c, 0, 78, 82
2, 15767, Note_on_c, 0, 78, 0
2, 15768, Note_on_c, 0, 74, 82
2, 15791, Note_on_c, 0, 74, 0
2, 15792, Note_on_c, 0, 81, 83
2, 15792, Note_on_c, 0, 78, 83
2, 15837, Note_on_c, 0, 81, 0
2, 15837, Note_on_c, 0, 78, 0
2, 15840, Note_on_c, 0, 79, 84
2, 15840, Note_on_c, 0, 76, 84
2, 15885, Note_on_c, 0, 79, 0
2, 15885, Note_on_c, 0, 76, 0
2, 15888, Note_on_c, 0, 78, 81
2, 15888, Note_on_c, 0, 74, 81
2, 15933, Note_on_c, 0, 78, 0
2, 15933, Note_on_c, 0, 74, 0
2, 15936, Note_on_c, 0, 76, 79
2, 15936, Note_on_c, 0, 73, 79
2, 16025, Note_on_c, 0, 76, 0
2, 16025, Note_on_c, 0, 73, 0
2, 16128, Note_on_c, 0, 86, 91
2, 16128, Note_on_c, 0, 74, 91
2, 16247, Note_on_c, 0, 86, 0
2, 16247, Note_on_c, 0, 74, 0
2, 16248, Note_on_c, 0, 81, 75
2, 16248, Note_on_c, 0, 78, 75
2, 16271, Note_on_c, 0, 81, 0
2, 16271, Note_on_c, 0, 78, 0
2, 16272, Note_on_c, 0, 79, 75
2, 16272, Note_on_c, 0, 76, 75
2, 16295, Note_on_c, 0, 79, 0
2, 16295, Note_on_c, 0, 76, 0
2, 16296, Note_on_c, 0, 78, 75
2, 16296, Note_on_c, 0, 74, 75
2, 16319, Note_on_c, 0, 78, 0
2, 16319, Note_on_c, 0, 74, 0
2, 16320, Note_on_c, 0, 86, 91
2, 16320, Note_on_c, 0, 74, 91
2, 16439, Note_on_c, 0, 86, 0
2, 16439, Note_on_c, 0, 74, 0
2, 16440, Note_on_c, 0, 83, 75
2, 16440, Note_on_c, 0, 79, 75
2, 16463, Note_on_c, 0, 83, 0
2, 16463, Note_on_c, 0, 79, 0
2, 16464, Note_on_c, 0, 81, 75
2, 16464, Note_on_c, 0, 78, 75
2, 16487, Note_on_c, 0, 81, 0
2, 16487, Note_on_c, 0, 78, 0
2, 16488, Note_on_c, 0, 79, 75
2, 16488, Note_on_c, 0, 76, 75
2, 16511, Note_on_c, 0, 79, 0
2, 16511, Note_on_c, 0, 76, 0
2, 16512, Note_on_c, 0, 78, 75
2, 16512, Note_on_c, 0, 74, 75
2, 16557, Note_on_c, 0, 78, 0
2, 16557, Note_on_c, 0, 74, 0
2, 16560, Note_on_c, 0, 79, 75
2, 16572, Note_on_c, 0, 79, 0
2, 16572, Note_on_c, 0, 78, 75
2, 16584, Note_on_c, 0, 78, 0
2, 16584, Note_on_c, 0, 76, 75
2, 16596, Note_on_c, 0, 76, 0
2, 16596, Note_on_c, 0, 74, 75
2, 16608, Note_on_c, 0, 74, 0
2, 16608, Note_on_c, 0, 78, 75
2, 16615, Note_on_c, 0, 78, 0
2, 16615, Note_on_c, 0, 76, 75
2, 16622, Note_on_c, 0, 76, 0
2, 16622, Note_on_c, 0, 78, 75
2, 16629, Note_on_c, 0, 78, 0
2, 16629, Note_on_c, 0, 76, 75
2, 16636, Note_on_c, 0, 76, 0
2, 16636, Note_on_c, 0, 78, 75
2, 16643, Note_on_c, 0, 78, 0
2, 16643, Note_on_c, 0, 76, 75
2, 16650, Note_on_c, 0, 76, 0
2, 16650, Note_on_c, 0, 78, 75
2, 16657, Note_on_c, 0, 78, 0
2, 16657, Note_on_c, 0, 76, 75
2, 16664, Note_on_c, 0, 76, 0
2, 16664, Note_on_c, 0, 78, 75
2, 16671, Note_on_c, 0, 78, 0
2, 16671, Note_on_c, 0, 76, 75
2, 16678, Note_on_c, 0, 76, 0
2, 16678, Note_on_c, 0, 74, 75
2, 16692, Note_on_c, 0, 74, 0
2, 16692, Note_on_c, 0, 76, 75
2, 16704, Note_on_c, 0, 76, 0
2, 16704, Note_on_c, 0, 74, 75
2, 16793, Note_on_c, 0, 74, 0
2, 16896, Note_on_c, 0, 73, 75
2, 16919, Note_on_c, 0, 73, 0
2, 16920, Note_on_c, 0, 69, 75
2, 16943, Note_on_c, 0, 69, 0
2, 16944, Note_on_c, 0, 69, 75
2, 16967, Note_on_c, 0, 69, 0
2, 16968, Note_on_c, 0, 69, 76
2, 16991, Note_on_c, 0, 69, 0
2, 17016, Note_on_c, 0, 73, 77
2, 17039, Note_on_c, 0, 73, 0
2, 17064, Note_on_c, 0, 74, 78
2, 17087, Note_on_c, 0, 74, 0
2, 17112, Note_on_c, 0, 76, 79
2, 17135, Note_on_c, 0, 76, 0
2, 17160, Note_on_c, 0, 78, 79
2, 17183, Note_on_c, 0, 78, 0
2, 17208, Note_on_c, 0, 79, 80
2, 17231, Note_on_c, 0, 79, 0
2, 17256, Note_on_c, 0, 76, 81
2, 17279, Note_on_c, 0, 76, 0
2, 17280, Note_on_c, 0, 78, 82
2, 17303, Note_on_c, 0, 78, 0
2, 17304, Note_on_c, 0, 74, 82
2, 17327, Note_on_c, 0, 74, 0
2, 17328, Note_on_c, 0, 81, 83
2, 17328, Note_on_c, 0, 78, 83
2, 17373, Note_on_c, 0, 81, 0
2, 17373, Note_on_c, 0, 78, 0
2, 17376, Note_on_c, 0, 79, 84
2, 17376, Note_on_c, 0, 76, 84
2, 17421, Note_on_c, 0, 79, 0
2, 17421, Note_on_c, 0, 76, 0
2, 17424, Note_on_c, 0, 78, 81
2, 17424, Note_on_c, 0, 74, 81
2, 17469, Note_on_c, 0, 78, 0
2, 17469, Note_on_c, 0, 74, 0
2, 17472, Note_on_c, 0, 76, 79
2, 17472, Note_on_c, 0, 73, 79
2, 17561, Note_on_c, 0, 76, 0
2, 17561, Note_on_c, 0, 73, 0
2, 17664, Note_on_c, 0, 86, 91
2, 17664, Note_on_c, 0, 74, 91
2, 17783, Note_on_c, 0, 86, 0
2, 17783, Note_on_c, 0, 74, 0
2, 17784, Note_on_c, 0, 81, 75
2, 17784, Note_on_c, 0, 78, 75
2, 17807, Note_on_c, 0, 81, 0
2, 17807, Note_on_c, 0, 78, 0
2, 17808, Note_on_c, 0, 79, 75
2, 17808, Note_on_c, 0, 76, 75
2, 17831, Note_on_c, 0, 79, 0
2, 17831, Note_on_c, 0, 76, 0
2, 17832, Note_on_c, 0, 78, 75
2, 17832, Note_on_c, 0, 74, 75
2, 17855, Note_on_c, 0, 78, 0
2, 17855, Note_on_c, 0, 74, 0
2, 17856, Note_on_c, 0, 86, 91
2, 17856, Note_on_c, 0, 74, 91
2, 17975, Note_on_c, 0, 86, 0
2, 17975, Note_on_c, 0, 74, 0
2, 17976, Note_on_c, 0, 83, 75
2, 17976, Note_on_c, 0, 79, 75
2, 17999, Note_on_c, 0, 83, 0
2, 17999, Note_on_c, 0, 79, 0
2, 18000, Note_on_c, 0, 81, 75
2, 18000, Note_on_c, 0, 78, 75
2, 18023, Note_on_c, 0, 81, 0
2, 18023, Note_on_c, 0, 78, 0
2, 18024, Note_on_c, 0, 79, 75
2, 18024, Note_on_c, 0, 76, 75
2, 18047, Note_on_c, 0, 79, 0
2, 18047, Note_on_c, 0, 76, 0
2, 18048, Note_on_c, 0, 78, 75
2, 18048, Note_on_c, 0, 74, 75
2, 18093, Note_on_c, 0, 78, 0
2, 18093, Note_on_c, 0, 74, 0
2, 18096, Note_on_c, 0, 79, 75
2, 18108, Note_on_c, 0, 79, 0
2, 18108, Note_on_c, 0, 78, 75
2, 18120, Note_on_c, 0, 78, 0
2, 18120, Note_on_c, 0, 76, 75
2, 18132, Note_on_c, 0, 76, 0
2, 18132, Note_on_c, 0, 74, 75
2, 18144, Note_on_c, 0, 74, 0
2, 18144, Note_on_c, 0, 78, 75
2, 18151, Note_on_c, 0, 78, 0
2, 18151, Note_on_c, 0, 76, 75
2, 18158, Note_on_c, 0, 76, 0
2, 18158, Note_on_c, 0, 78, 75
2, 18165, Note_on_c, 0, 78, 0
2, 18165, Note_on_c, 0, 76, 75
2, 18172, Note_on_c, 0, 76, 0
2, 18172, Note_on_c, 0, 78, 75
2, 18179, Note_on_c, 0, 78, 0
2, 18179, Note_on_c, 0, 76, 75
2, 18186, Note_on_c, 0, 76, 0
2, 18186, Note_on_c, 0, 78, 75
2, 18193, Note_on_c, 0, 78, 0
2, 18193, Note_on_c, 0, 76, 75
2, 18200, Note_on_c, 0, 76, 0
2, 18200, Note_on_c, 0, 78, 75
2, 18207, Note_on_c, 0, 78, 0
2, 18207, Note_on_c, 0, 76, 75
2, 18214, Note_on_c, 0, 76, 0
2, 18214, Note_on_c, 0, 74, 75
2, 18228, Note_on_c, 0, 74, 0
2, 18228, Note_on_c, 0, 76, 75
2, 18240, Note_on_c, 0, 76, 0
2, 18240, Note_on_c, 0, 74, 75
2, 18329, Note_on_c, 0, 74, 0
2, 18432, Note_on_c, 0, 74, 75
2, 18447, Note_on_c, 0, 74, 0
2, 18448, Note_on_c, 0, 81, 75
2, 18463, Note_on_c, 0, 81, 0
2, 18464, Note_on_c, 0, 79, 75
2, 18479, Note_on_c, 0, 79, 0
2, 18480, Note_on_c, 0, 78, 75
2, 18495, Note_on_c, 0, 78, 0
2, 18496, Note_on_c, 0, 76, 75
2, 18511, Note_on_c, 0, 76, 0
2, 18512, Note_on_c, 0, 74, 75
2, 18527, Note_on_c, 0, 74, 0
2, 18528, Note_on_c, 0, 73, 75
2, 18543, Note_on_c, 0, 73, 0
2, 18544, Note_on_c, 0, 71, 75
2, 18559, Note_on_c, 0, 71, 0
2, 18560, Note_on_c, 0, 69, 75
2, 18575, Note_on_c, 0, 69, 0
2, 18576, Note_on_c, 0, 67, 75
2, 18591, Note_on_c, 0, 67, 0
2, 18592, Note_on_c, 0, 66, 75
2, 18607, Note_on_c, 0, 66, 0
2, 18608, Note_on_c, 0, 64, 75
2, 18623, Note_on_c, 0, 64, 0
2, 18624, Note_on_c, 0, 62, 75
2, 18713, Note_on_c, 0, 62, 0
2, 18720, Note_on_c, 0, 61, 75
2, 18735, Note_on_c, 0, 61, 0
2, 18736, Note_on_c, 0, 62, 75
2, 18751, Note_on_c, 0, 62, 0
2, 18752, Note_on_c, 0, 64, 75
2, 18767, Note_on_c, 0, 64, 0
2, 18768, Note_on_c, 0, 57, 75
2, 18783, Note_on_c, 0, 57, 0
2, 18784, Note_on_c, 0, 59, 75
2, 18799, Note_on_c, 0, 59, 0
2, 18800, Note_on_c, 0, 61, 75
2, 18815, Note_on_c, 0, 61, 0
2, 18816, Note_on_c, 0, 62, 75
2, 18831, Note_on_c, 0, 62, 0
2, 18832, Note_on_c, 0, 66, 75
2, 18847, Note_on_c, 0, 66, 0
2, 18848, Note_on_c, 0, 69, 75
2, 18863, Note_on_c, 0, 69, 0
2, 18864, Note_on_c, 0, 74, 75
2, 18879, Note_on_c, 0, 74, 0
2, 18880, Note_on_c, 0, 69, 75
2, 18895, Note_on_c, 0, 69, 0
2, 18896, Note_on_c, 0, 66, 75
2, 18911, Note_on_c, 0, 66, 0
2, 18912, Note_on_c, 0, 69, 75
2, 18957, Note_on_c, 0, 69, 0
2, 18960, Note_on_c, 0, 67, 75
2, 18966, Note_on_c, 0, 67, 0
2, 18966, Note_on_c, 0, 69, 75
2, 18972, Note_on_c, 0, 69, 0
2, 18972, Note_on_c, 0, 67, 75
2, 19005, Note_on_c, 0, 67, 0
2, 19008, Note_on_c, 0, 67, 75
2, 19056, Note_on_c, 0, 67, 0
2, 19056, Note_on_c, 0, 66, 75
2, 19101, Note_on_c, 0, 66, 0
2, 19200, Note_on_c, 0, 71, 75
2, 19215, Note_on_c, 0, 71, 0
2, 19216, Note_on_c, 0, 83, 75
2, 19231, Note_on_c, 0, 83, 0
2, 19232, Note_on_c, 0, 81, 75
2, 19247, Note_on_c, 0, 81, 0
2, 19248, Note_on_c, 0, 79, 75
2, 19263, Note_on_c, 0, 79, 0
2, 19264, Note_on_c, 0, 78, 75
2, 19279, Note_on_c, 0, 78, 0
2, 19280, Note_on_c, 0, 76, 75
2, 19295, Note_on_c, 0, 76, 0
2, 19296, Note_on_c, 0, 75, 75
2, 19311, Note_on_c, 0, 75, 0
2, 19312, Note_on_c, 0, 78, 75
2, 19327, Note_on_c, 0, 78, 0
2, 19328, Note_on_c, 0, 76, 75
2, 19343, Note_on_c, 0, 76, 0
2, 19344, Note_on_c, 0, 75, 75
2, 19359, Note_on_c, 0, 75, 0
2, 19360, Note_on_c, 0, 78, 75
2, 19375, Note_on_c, 0, 78, 0
2, 19376, Note_on_c, 0, 76, 75
2, 19391, Note_on_c, 0, 76, 0
2, 19392, Note_on_c, 0, 69, 75
2, 19407, Note_on_c, 0, 69, 0
2, 19408, Note_on_c, 0, 81, 75
2, 19423, Note_on_c, 0, 81, 0
2, 19424, Note_on_c, 0, 79, 75
2, 19439, Note_on_c, 0, 79, 0
2, 19440, Note_on_c, 0, 78, 75
2, 19455, Note_on_c, 0, 78, 0
2, 19456, Note_on_c, 0, 76, 75
2, 19471, Note_on_c, 0, 76, 0
2, 19472, Note_on_c, 0, 74, 75
2, 19487, Note_on_c, 0, 74, 0
2, 19488, Note_on_c, 0, 73, 75
2, 19503, Note_on_c, 0, 73, 0
2, 19504, Note_on_c, 0, 76, 75
2, 19519, Note_on_c, 0, 76, 0
2, 19520, Note_on_c, 0, 74, 75
2, 19535, Note_on_c, 0, 74, 0
2, 19536, Note_on_c, 0, 73, 75
2, 19551, Note_on_c, 0, 73, 0
2, 19552, Note_on_c, 0, 76, 75
2, 19567, Note_on_c, 0, 76, 0
2, 19568, Note_on_c, 0, 74, 75
2, 19583, Note_on_c, 0, 74, 0
2, 19584, Note_on_c, 0, 73, 75
2, 19599, Note_on_c, 0, 73, 0
2, 19600, Note_on_c, 0, 79, 75
2, 19615, Note_on_c, 0, 79, 0
2, 19616, Note_on_c, 0, 76, 75
2, 19631, Note_on_c, 0, 76, 0
2, 19632, Note_on_c, 0, 73, 75
2, 19647, Note_on_c, 0, 73, 0
2, 19648, Note_on_c, 0, 76, 75
2, 19663, Note_on_c, 0, 76, 0
2, 19664, Note_on_c, 0, 73, 75
2, 19679, Note_on_c, 0, 73, 0
2, 19680, Note_on_c, 0, 67, 75
2, 19695, Note_on_c, 0, 67, 0
2, 19696, Note_on_c, 0, 76, 75
2, 19711, Note_on_c, 0, 76, 0
2, 19712, Note_on_c, 0, 67, 75
2, 19727, Note_on_c, 0, 67, 0
2, 19728, Note_on_c, 0, 66, 75
2, 19743, Note_on_c, 0, 66, 0
2, 19744, Note_on_c, 0, 69, 75
2, 19759, Note_on_c, 0, 69, 0
2, 19760, Note_on_c, 0, 74, 75
2, 19775, Note_on_c, 0, 74, 0
2, 19776, Note_on_c, 0, 66, 75
2, 19824, Note_on_c, 0, 66, 0
2, 19824, Note_on_c, 0, 64, 75
2, 19869, Note_on_c, 0, 64, 0
2, 19968, Note_on_c, 0, 74, 75
2, 19983, Note_on_c, 0, 74, 0
2, 19984, Note_on_c, 0, 81, 75
2, 19999, Note_on_c, 0, 81, 0
2, 20000, Note_on_c, 0, 79, 75
2, 20015, Note_on_c, 0, 79, 0
2, 20016, Note_on_c, 0, 78, 75
2, 20031, Note_on_c, 0, 78, 0
2, 20032, Note_on_c, 0, 76, 75
2, 20047, Note_on_c, 0, 76, 0
2, 20048, Note_on_c, 0, 74, 75
2, 20063, Note_on_c, 0, 74, 0
2, 20064, Note_on_c, 0, 73, 75
2, 20079, Note_on_c, 0, 73, 0
2, 20080, Note_on_c, 0, 71, 75
2, 20095, Note_on_c, 0, 71, 0
2, 20096, Note_on_c, 0, 69, 75
2, 20111, Note_on_c, 0, 69, 0
2, 20112, Note_on_c, 0, 67, 75
2, 20127, Note_on_c, 0, 67, 0
2, 20128, Note_on_c, 0, 66, 75
2, 20143, Note_on_c, 0, 66, 0
2, 20144, Note_on_c, 0, 64, 75
2, 20159, Note_on_c, 0, 64, 0
2, 20160, Note_on_c, 0, 62, 75
2, 20249, Note_on_c, 0, 62, 0
2, 20256, Note_on_c, 0, 61, 75
2, 20271, Note_on_c, 0, 61, 0
2, 20272, Note_on_c, 0, 62, 75
2, 20287, Note_on_c, 0, 62, 0
2, 20288, Note_on_c, 0, 64, 75
2, 20303, Note_on_c, 0, 64, 0
2, 20304, Note_on_c, 0, 57, 75
2, 20319, Note_on_c, 0, 57, 0
2, 20320, Note_on_c, 0, 59, 75
2, 20335, Note_on_c, 0, 59, 0
2, 20336, Note_on_c, 0, 61, 75
2, 20351, Note_on_c, 0, 61, 0
2, 20352, Note_on_c, 0, 62, 75
2, 20367, Note_on_c, 0, 62, 0
2, 20368, Note_on_c, 0, 66, 75
2, 20383, Note_on_c, 0, 66, 0
2, 20384, Note_on_c, 0, 69, 75
2, 20399, Note_on_c, 0, 69, 0
2, 20400, Note_on_c, 0, 74, 75
2, 20415, Note_on_c, 0, 74, 0
2, 20416, Note_on_c, 0, 69, 75
2, 20431, Note_on_c, 0, 69, 0
2, 20432, Note_on_c, 0, 66, 75
2, 20447, Note_on_c, 0, 66, 0
2, 20448, Note_on_c, 0, 69, 75
2, 20493, Note_on_c, 0, 69, 0
2, 20496, Note_on_c, 0, 67, 75
2, 20502, Note_on_c, 0, 67, 0
2, 20502, Note_on_c, 0, 69, 75
2, 20508, Note_on_c, 0, 69, 0
2, 20508, Note_on_c, 0, 67, 75
2, 20541, Note_on_c, 0, 67, 0
2, 20544, Note_on_c, 0, 67, 75
2, 20592, Note_on_c, 0, 67, 0
2, 20592, Note_on_c, 0, 66, 75
2, 20637, Note_on_c, 0, 66, 0
2, 20736, Note_on_c, 0, 71, 75
2, 20751, Note_on_c, 0, 71, 0
2, 20752, Note_on_c, 0, 83, 75
2, 20767, Note_on_c, 0, 83, 0
2, 20768, Note_on_c, 0, 81, 75
2, 20783, Note_on_c, 0, 81, 0
2, 20784, Note_on_c, 0, 79, 75
2, 20799, Note_on_c, 0, 79, 0
2, 20800, Note_on_c, 0, 78, 75
2, 20815, Note_on_c, 0, 78, 0
2, 20816, Note_on_c, 0, 76, 75
2, 20831, Note_on_c, 0, 76, 0
2, 20832, Note_on_c, 0, 75, 75
2, 20847, Note_on_c, 0, 75, 0
2, 20848, Note_on_c, 0, 78, 75
2, 20863, Note_on_c, 0, 78, 0
2, 20864, Note_on_c, 0, 76, 75
2, 20879, Note_on_c, 0, 76, 0
2, 20880, Note_on_c, 0, 75, 75
2, 20895, Note_on_c, 0, 75, 0
2, 20896, Note_on_c, 0, 78, 75
2, 20911, Note_on_c, 0, 78, 0
2, 20912, Note_on_c, 0, 76, 75
2, 20927, Note_on_c, 0, 76, 0
2, 20928, Note_on_c, 0, 69, 75
2, 20943, Note_on_c, 0, 69, 0
2, 20944, Note_on_c, 0, 81, 75
2, 20959, Note_on_c, 0, 81, 0
2, 20960, Note_on_c, 0, 79, 75
2, 20975, Note_on_c, 0, 79, 0
2, 20976, Note_on_c, 0, 78, 75
2, 20991, Note_on_c, 0, 78, 0
2, 20992, Note_on_c, 0, 76, 75
2, 21007, Note_on_c, 0, 76, 0
2, 21008, Note_on_c, 0, 74, 75
2, 21023, Note_on_c, 0, 74, 0
2, 21024, Note_on_c, 0, 73, 75
2, 21039, Note_on_c, 0, 73, 0
2, 21040, Note_on_c, 0, 76, 75
2, 21055, Note_on_c, 0, 76, 0
2, 21056, Note_on_c, 0, 74, 75
2, 21071, Note_on_c, 0, 74, 0
2, 21072, Note_on_c, 0, 73, 75
2, 21087, Note_on_c, 0, 73, 0
2, 21088, Note_on_c, 0, 76, 75
2, 21103, Note_on_c, 0, 76, 0
2, 21104, Note_on_c, 0, 74, 75
2, 21119, Note_on_c, 0, 74, 0
2, 21120, Note_on_c, 0, 73, 75
2, 21135, Note_on_c, 0, 73, 0
2, 21136, Note_on_c, 0, 79, 75
2, 21151, Note_on_c, 0, 79, 0
2, 21152, Note_on_c, 0, 76, 75
2, 21167, Note_on_c, 0, 76, 0
2, 21168, Note_on_c, 0, 73, 75
2, 21183, Note_on_c, 0, 73, 0
2, 21184, Note_on_c, 0, 76, 75
2, 21199, Note_on_c, 0, 76, 0
2, 21200, Note_on_c, 0, 73, 75
2, 21215, Note_on_c, 0, 73, 0
2, 21216, Note_on_c, 0, 67, 75
2, 21231, Note_on_c, 0, 67, 0
2, 21232, Note_on_c, 0, 76, 75
2, 21247, Note_on_c, 0, 76, 0
2, 21248, Note_on_c, 0, 67, 75
2, 21263, Note_on_c, 0, 67, 0
2, 21264, Note_on_c, 0, 66, 75
2, 21279, Note_on_c, 0, 66, 0
2, 21280, Note_on_c, 0, 69, 75
2, 21295, Note_on_c, 0, 69, 0
2, 21296, Note_on_c, 0, 74, 75
2, 21311, Note_on_c, 0, 74, 0
2, 21312, Note_on_c, 0, 66, 75
2, 21360, Note_on_c, 0, 66, 0
2, 21360, Note_on_c, 0, 64, 75
2, 21405, Note_on_c, 0, 64, 0
2, 21504, Note_on_c, 0, 57, 75
2, 21519, Note_on_c, 0, 57, 0
2, 21520, Note_on_c, 0, 59, 75
2, 21535, Note_on_c, 0, 59, 0
2, 21536, Note_on_c, 0, 61, 75
2, 21551, Note_on_c, 0, 61, 0
2, 21552, Note_on_c, 0, 59, 75
2, 21567, Note_on_c, 0, 59, 0
2, 21568, Note_on_c, 0, 61, 75
2, 21583, Note_on_c, 0, 61, 0
2, 21584, Note_on_c, 0, 62, 76
2, 21599, Note_on_c, 0, 62, 0
2, 21600, Note_on_c, 0, 61, 76
2, 21615, Note_on_c, 0, 61, 0
2, 21616, Note_on_c, 0, 62, 76
2, 21631, Note_on_c, 0, 62, 0
2, 21632, Note_on_c, 0, 64, 76
2, 21647, Note_on_c, 0, 64, 0
2, 21648, Note_on_c, 0, 62, 76
2, 21663, Note_on_c, 0, 62, 0
2, 21664, Note_on_c, 0, 64, 77
2, 21679, Note_on_c, 0, 64, 0
2, 21680, Note_on_c, 0, 66, 77
2, 21695, Note_on_c, 0, 66, 0
2, 21696, Note_on_c, 0, 64, 77
2, 21711, Note_on_c, 0, 64, 0
2, 21712, Note_on_c, 0, 66, 77
2, 21727, Note_on_c, 0, 66, 0
2, 21728, Note_on_c, 0, 67, 78
2, 21743, Note_on_c, 0, 67, 0
2, 21744, Note_on_c, 0, 66, 78
2, 21759, Note_on_c, 0, 66, 0
2, 21760, Note_on_c, 0, 67, 78
2, 21775, Note_on_c, 0, 67, 0
2, 21776, Note_on_c, 0, 69, 78
2, 21791, Note_on_c, 0, 69, 0
2, 21792, Note_on_c, 0, 67, 78
2, 21807, Note_on_c, 0, 67, 0
2, 21808, Note_on_c, 0, 69, 79
2, 21823, Note_on_c, 0, 69, 0
2, 21824, Note_on_c, 0, 71, 79
2, 21839, Note_on_c, 0, 71, 0
2, 21840, Note_on_c, 0, 64, 79
2, 21855, Note_on_c, 0, 64, 0
2, 21856, Note_on_c, 0, 66, 79
2, 21871, Note_on_c, 0, 66, 0
2, 21872, Note_on_c, 0, 67, 80
2, 21887, Note_on_c, 0, 67, 0
2, 21888, Note_on_c, 0, 66, 80
2, 21903, Note_on_c, 0, 66, 0
2, 21904, Note_on_c, 0, 64, 80
2, 21919, Note_on_c, 0, 64, 0
2, 21920, Note_on_c, 0, 62, 80
2, 21935, Note_on_c, 0, 62, 0
2, 21936, Note_on_c, 0, 69, 80
2, 21951, Note_on_c, 0, 69, 0
2, 21952, Note_on_c, 0, 67, 81
2, 21967, Note_on_c, 0, 67, 0
2, 21968, Note_on_c, 0, 66, 81
2, 21983, Note_on_c, 0, 66, 0
2, 21984, Note_on_c, 0, 74, 81
2, 21999, Note_on_c, 0, 74, 0
2, 22000, Note_on_c, 0, 73, 84
2, 22015, Note_on_c, 0, 73, 0
2, 22016, Note_on_c, 0, 71, 84
2, 22031, Note_on_c, 0, 71, 0
2, 22032, Note_on_c, 0, 69, 84
2, 22047, Note_on_c, 0, 69, 0
2, 22048, Note_on_c, 0, 67, 83
2, 22063, Note_on_c, 0, 67, 0
2, 22064, Note_on_c, 0, 66, 83
2, 22079, Note_on_c, 0, 66, 0
2, 22080, Note_on_c, 0, 66, 82
2, 22086, Note_on_c, 0, 66, 0
2, 22086, Note_on_c, 0, 67, 82
2, 22092, Note_on_c, 0, 67, 0
2, 22092, Note_on_c, 0, 66, 82
2, 22128, Note_on_c, 0, 66, 0
2, 22128, Note_on_c, 0, 64, 80
2, 22173, Note_on_c, 0, 64, 0
2, 22272, Note_on_c, 0, 74, 75
2, 22287, Note_on_c, 0, 74, 0
2, 22288, Note_on_c, 0, 78, 75
2, 22303, Note_on_c, 0, 78, 0
2, 22304, Note_on_c, 0, 81, 75
2, 22319, Note_on_c, 0, 81, 0
2, 22320, Note_on_c, 0, 86, 75
2, 22335, Note_on_c, 0, 86, 0
2, 22336, Note_on_c, 0, 85, 75
2, 22351, Note_on_c, 0, 85, 0
2, 22352, Note_on_c, 0, 83, 75
2, 22367, Note_on_c, 0, 83, 0
2, 22368, Note_on_c, 0, 81, 75
2, 22383, Note_on_c, 0, 81, 0
2, 22384, Note_on_c, 0, 79, 75
2, 22399, Note_on_c, 0, 79, 0
2, 22400, Note_on_c, 0, 78, 75
2, 22415, Note_on_c, 0, 78, 0
2, 22416, Note_on_c, 0, 81, 75
2, 22431, Note_on_c, 0, 81, 0
2, 22432, Note_on_c, 0, 79, 75
2, 22447, Note_on_c, 0, 79, 0
2, 22448, Note_on_c, 0, 78, 75
2, 22463, Note_on_c, 0, 78, 0
2, 22464, Note_on_c, 0, 74, 75
2, 22479, Note_on_c, 0, 74, 0
2, 22480, Note_on_c, 0, 79, 75
2, 22495, Note_on_c, 0, 79, 0
2, 22496, Note_on_c, 0, 83, 75
2, 22511, Note_on_c, 0, 83, 0
2, 22512, Note_on_c, 0, 86, 75
2, 22527, Note_on_c, 0, 86, 0
2, 22528, Note_on_c, 0, 85, 75
2, 22543, Note_on_c, 0, 85, 0
2, 22544, Note_on_c, 0, 83, 75
2, 22559, Note_on_c, 0, 83, 0
2, 22560, Note_on_c, 0, 86, 75
2, 22575, Note_on_c, 0, 86, 0
2, 22576, Note_on_c, 0, 85, 75
2, 22591, Note_on_c, 0, 85, 0
2, 22592, Note_on_c, 0, 83, 75
2, 22607, Note_on_c, 0, 83, 0
2, 22608, Note_on_c, 0, 86, 75
2, 22623, Note_on_c, 0, 86, 0
2, 22624, Note_on_c, 0, 85, 75
2, 22639, Note_on_c, 0, 85, 0
2, 22640, Note_on_c, 0, 83, 75
2, 22655, Note_on_c, 0, 83, 0
2, 22656, Note_on_c, 0, 81, 75
2, 22671, Note_on_c, 0, 81, 0
2, 22672, Note_on_c, 0, 78, 75
2, 22687, Note_on_c, 0, 78, 0
2, 22688, Note_on_c, 0, 74, 75
2, 22703, Note_on_c, 0, 74, 0
2, 22704, Note_on_c, 0, 86, 75
2, 22719, Note_on_c, 0, 86, 0
2, 22720, Note_on_c, 0, 78, 75
2, 22735, Note_on_c, 0, 78, 0
2, 22736, Note_on_c, 0, 74, 75
2, 22751, Note_on_c, 0, 74, 0
2, 22752, Note_on_c, 0, 78, 75
2, 22759, Note_on_c, 0, 78, 0
2, 22759, Note_on_c, 0, 76, 75
2, 22766, Note_on_c, 0, 76, 0
2, 22766, Note_on_c, 0, 78, 75
2, 22773, Note_on_c, 0, 78, 0
2, 22773, Note_on_c, 0, 76, 75
2, 22780, Note_on_c, 0, 76, 0
2, 22780, Note_on_c, 0, 78, 75
2, 22787, Note_on_c, 0, 78, 0
2, 22787, Note_on_c, 0, 76, 75
2, 22794, Note_on_c, 0, 76, 0
2, 22794, Note_on_c, 0, 78, 75
2, 22801, Note_on_c, 0, 78, 0
2, 22801, Note_on_c, 0, 76, 75
2, 22808, Note_on_c, 0, 76, 0
2, 22808, Note_on_c, 0, 78, 75
2, 22815, Note_on_c, 0, 78, 0
2, 22815, Note_on_c, 0, 76, 75
2, 22822, Note_on_c, 0, 76, 0
2, 22822, Note_on_c, 0, 74, 75
2, 22836, Note_on_c, 0, 74, 0
2, 22836, Note_on_c, 0, 76, 75
2, 22848, Note_on_c, 0, 76, 0
2, 22848, Note_on_c, 0, 74, 75
2, 22937, Note_on_c, 0, 74, 0
2, 23040, Note_on_c, 0, 57, 75
2, 23055, Note_on_c, 0, 57, 0
2, 23056, Note_on_c, 0, 59, 75
2, 23071, Note_on_c, 0, 59, 0
2, 23072, Note_on_c, 0, 61, 75
2, 23087, Note_on_c, 0, 61, 0
2, 23088, Note_on_c, 0, 59, 75
2, 23103, Note_on_c, 0, 59, 0
2, 23104, Note_on_c, 0, 61, 75
2, 23119, Note_on_c, 0, 61, 0
2, 23120, Note_on_c, 0, 62, 76
2, 23135, Note_on_c, 0, 62, 0
2, 23136, Note_on_c, 0, 61, 76
2, 23151, Note_on_c, 0, 61, 0
2, 23152, Note_on_c, 0, 62, 76
2, 23167, Note_on_c, 0, 62, 0
2, 23168, Note_on_c, 0, 64, 76
2, 23183, Note_on_c, 0, 64, 0
2, 23184, Note_on_c, 0, 62, 76
2, 23199, Note_on_c, 0, 62, 0
2, 23200, Note_on_c, 0, 64, 77
2, 23215, Note_on_c, 0, 64, 0
2, 23216, Note_on_c, 0, 66, 77
2, 23231, Note_on_c, 0, 66, 0
2, 23232, Note_on_c, 0, 64, 77
2, 23247, Note_on_c, 0, 64, 0
2, 23248, Note_on_c, 0, 66, 77
2, 23263, Note_on_c, 0, 66, 0
2, 23264, Note_on_c, 0, 67, 78
2, 23279, Note_on_c, 0, 67, 0
2, 23280, Note_on_c, 0, 66, 78
2, 23295, Note_on_c, 0, 66, 0
2, 23296, Note_on_c, 0, 67, 78
2, 23311, Note_on_c, 0, 67, 0
2, 23312, Note_on_c, 0, 69, 78
2, 23327, Note_on_c, 0, 69, 0
2, 23328, Note_on_c, 0, 67, 78
2, 23343, Note_on_c, 0, 67, 0
2, 23344, Note_on_c, 0, 69, 79
2, 23359, Note_on_c, 0, 69, 0
2, 23360, Note_on_c, 0, 71, 79
2, 23375, Note_on_c, 0, 71, 0
2, 23376, Note_on_c, 0, 64, 79
2, 23391, Note_on_c, 0, 64, 0
2, 23392, Note_on_c, 0, 66, 79
2, 23407, Note_on_c, 0, 66, 0
2, 23408, Note_on_c, 0, 67, 80
2, 23423, Note_on_c, 0, 67, 0
2, 23424, Note_on_c, 0, 66, 80
2, 23439, Note_on_c, 0, 66, 0
2, 23440, Note_on_c, 0, 64, 80
2, 23455, Note_on_c, 0, 64, 0
2, 23456, Note_on_c, 0, 62, 80
2, 23471, Note_on_c, 0, 62, 0
2, 23472, Note_on_c, 0, 69, 80
2, 23487, Note_on_c, 0, 69, 0
2, 23488, Note_on_c, 0, 67, 81
2, 23503, Note_on_c, 0, 67, 0
2, 23504, Note_on_c, 0, 66, 81
2, 23519, Note_on_c, 0, 66, 0
2, 23520, Note_on_c, 0, 74, 81
2, 23535, Note_on_c, 0, 74, 0
2, 23536, Note_on_c, 0, 73, 84
2, 23551, Note_on_c, 0, 73, 0
2, 23552, Note_on_c, 0, 71, 84
2, 23567, Note_on_c, 0, 71, 0
2, 23568, Note_on_c, 0, 69, 84
2, 23583, Note_on_c, 0, 69, 0
2, 23584, Note_on_c, 0, 67, 83
2, 23599, Note_on_c, 0, 67, 0
2, 23600, Note_on_c, 0, 66, 83
2, 23615, Note_on_c, 0, 66, 0
2, 23616, Note_on_c, 0, 66, 82
2, 23622, Note_on_c, 0, 66, 0
2, 23622, Note_on_c, 0, 67, 82
2, 23628, Note_on_c, 0, 67, 0
2, 23628, Note_on_c, 0, 66, 82
2, 23664, Note_on_c, 0, 66, 0
2, 23664, Note_on_c, 0, 64, 80
2, 23709, Note_on_c, 0, 64, 0
2, 23808, Note_on_c, 0, 74, 75
2, 23823, Note_on_c, 0, 74, 0
2, 23824, Note_on_c, 0, 78, 75
2, 23839, Note_on_c, 0, 78, 0
2, 23840, Note_on_c, 0, 81, 75
2, 23855, Note_on_c, 0, 81, 0
2, 23856, Note_on_c, 0, 86, 75
2, 23871, Note_on_c, 0, 86, 0
2, 23872, Note_on_c, 0, 85, 75
2, 23887, Note_on_c, 0, 85, 0
2, 23888, Note_on_c, 0, 83, 75
2, 23903, Note_on_c, 0, 83, 0
2, 23904, Note_on_c, 0, 81, 75
2, 23919, Note_on_c, 0, 81, 0
2, 23920, Note_on_c, 0, 79, 75
2, 23935, Note_on_c, 0, 79, 0
2, 23936, Note_on_c, 0, 78, 75
2, 23951, Note_on_c, 0, 78, 0
2, 23952, Note_on_c, 0, 81, 75
2, 23967, Note_on_c, 0, 81, 0
2, 23968, Note_on_c, 0, 79, 75
2, 23983, Note_on_c, 0, 79, 0
2, 23984, Note_on_c, 0, 78, 75
2, 23999, Note_on_c, 0, 78, 0
2, 24000, Note_on_c, 0, 74, 75
2, 24015, Note_on_c, 0, 74, 0
2, 24016, Note_on_c, 0, 79, 75
2, 24031, Note_on_c, 0, 79, 0
2, 24032, Note_on_c, 0, 83, 75
2, 24047, Note_on_c, 0, 83, 0
2, 24048, Note_on_c, 0, 86, 75
2, 24063, Note_on_c, 0, 86, 0
2, 24064, Note_on_c, 0, 85, 75
2, 24079, Note_on_c, 0, 85, 0
2, 24080, Note_on_c, 0, 83, 75
2, 24095, Note_on_c, 0, 83, 0
2, 24096, Note_on_c, 0, 86, 75
2, 24111, Note_on_c, 0, 86, 0
2, 24112, Note_on_c, 0, 85, 75
2, 24127, Note_on_c, 0, 85, 0
2, 24128, Note_on_c, 0, 83, 75
2, 24143, Note_on_c, 0, 83, 0
2, 24144, Note_on_c, 0, 86, 75
2, 24159, Note_on_c, 0, 86, 0
2, 24160, Note_on_c, 0, 85, 75
2, 24175, Note_on_c, 0, 85, 0
2, 24176, Note_on_c, 0, 83, 75
2, 24191, Note_on_c, 0, 83, 0
2, 24192, Note_on_c, 0, 81, 75
2, 24207, Note_on_c, 0, 81, 0
2, 24208, Note_on_c, 0, 78, 75
2, 24223, Note_on_c, 0, 78, 0
2, 24224, Note_on_c, 0, 74, 75
2, 24239, Note_on_c, 0, 74, 0
2, 24240, Note_on_c, 0, 86, 75
2, 24255, Note_on_c, 0, 86, 0
2, 24256, Note_on_c, 0, 78, 75
2, 24271, Note_on_c, 0, 78, 0
2, 24272, Note_on_c, 0, 74, 75
2, 24287, Note_on_c, 0, 74, 0
2, 24288, Note_on_c, 0, 78, 75
2, 24295, Note_on_c, 0, 78, 0
2, 24295, Note_on_c, 0, 76, 75
2, 24302, Note_on_c, 0, 76, 0
2, 24302, Note_on_c, 0, 78, 75
2, 24309, Note_on_c, 0, 78, 0
2, 24309, Note_on_c, 0, 76, 75
2, 24316, Note_on_c, 0, 76, 0
2, 24316, Note_on_c, 0, 78, 75
2, 24323, Note_on_c, 0, 78, 0
2, 24323, Note_on_c, 0, 76, 75
2, 24330, Note_on_c, 0, 76, 0
2, 24330, Note_on_c, 0, 78, 75
2, 24337, Note_on_c, 0, 78, 0
2, 24337, Note_on_c, 0, 76, 75
2, 24344, Note_on_c, 0, 76, 0
2, 24344, Note_on_c, 0, 78, 75
2, 24351, Note_on_c, 0, 78, 0
2, 24351, Note_on_c, 0, 76, 75
2, 24358, Note_on_c, 0, 76, 0
2, 24358, Note_on_c, 0, 74, 75
2, 24372, Note_on_c, 0, 74, 0
2, 24372, Note_on_c, 0, 76, 75
2, 24384, Note_on_c, 0, 76, 0
2, 24384, Note_on_c, 0, 74, 75
2, 24473, Note_on_c, 0, 74, 0
2, 24576, End_track
3, 0, Start_track
3, 0, Program_c, 0, 0
3, 0, Control_c, 0, 7, 127
3, 0, Control_c, 0, 10, 64
3, 15360, Note_on_c, 0, 81, 64
3, 15405, Note_on_c, 0, 81, 0
3, 16896, Note_on_c, 0, 81, 64
3, 16941, Note_on_c, 0, 81, 0
3, 24576, End_track
4, 0, Start_track
4, 0, Program_c, 1, 0
4, 0, Control_c, 1, 7, 127
4, 0, Control_c, 1, 10, 64
4, 48, Note_on_c, 1, 50, 64
4, 93, Note_on_c, 1, 50, 0
4, 96, Note_on_c, 1, 54, 64
4, 141, Note_on_c, 1, 54, 0
4, 144, Note_on_c, 1, 55, 64
4, 189, Note_on_c, 1, 55, 0
4, 192, Note_on_c, 1, 57, 64
4, 237, Note_on_c, 1, 57, 0
4, 240, Note_on_c, 1, 45, 64
4, 285, Note_on_c, 1, 45, 0
4, 288, Note_on_c, 1, 57, 64
4, 333, Note_on_c, 1, 57, 0
4, 336, Note_on_c, 1, 55, 64
4, 381, Note_on_c, 1, 55, 0
4, 384, Note_on_c, 1, 54, 64
4, 429, Note_on_c, 1, 54, 0
4, 432, Note_on_c, 1, 50, 64
4, 477, Note_on_c, 1, 50, 0
4, 480, Note_on_c, 1, 52, 64
4, 525, Note_on_c, 1, 52, 0
4, 528, Note_on_c, 1, 45, 64
4, 573, Note_on_c, 1, 45, 0
4, 576, Note_on_c, 1, 50, 64
4, 621, Note_on_c, 1, 50, 0
4, 624, Note_on_c, 1, 45, 64
4, 669, Note_on_c, 1, 45, 0
4, 672, Note_on_c, 1, 38, 64
4, 761, Note_on_c, 1, 38, 0
4, 816, Note_on_c, 1, 55, 64
4, 816, Note_on_c, 1, 43, 64
4, 861, Note_on_c, 1, 55, 0
4, 861, Note_on_c, 1, 43, 0
4, 864, Note_on_c, 1, 55, 64
4, 864, Note_on_c, 1, 43, 64
4, 909, Note_on_c, 1, 55, 0
4, 909, Note_on_c, 1, 43, 0
4, 912, Note_on_c, 1, 55, 64
4, 912, Note_on_c, 1, 43, 64
4, 957, Note_on_c, 1, 55, 0
4, 957, Note_on_c, 1, 43, 0
4, 1008, Note_on_c, 1, 54, 64
4, 1008, Note_on_c, 1, 42, 64
4, 1053, Note_on_c, 1, 54, 0
4, 1053, Note_on_c, 1, 42, 0
4, 1056, Note_on_c, 1, 54, 64
4, 1056, Note_on_c, 1, 42, 64
4, 1101, Note_on_c, 1, 54, 0
4, 1101, Note_on_c, 1, 42, 0
4, 1104, Note_on_c, 1, 54, 64
4, 1104, Note_on_c, 1, 42, 64
4, 1149, Note_on_c, 1, 54, 0
4, 1149, Note_on_c, 1, 42, 0
4, 1200, Note_on_c, 1, 52, 64
4, 1245, Note_on_c, 1, 52, 0
4, 1248, Note_on_c, 1, 49, 64
4, 1293, Note_on_c, 1, 49, 0
4, 1296, Note_on_c, 1, 50, 64
4, 1341, Note_on_c, 1, 50, 0
4, 1344, Note_on_c, 1, 57, 64
4, 1389, Note_on_c, 1, 57, 0
4, 1392, Note_on_c, 1, 52, 64
4, 1437, Note_on_c, 1, 52, 0
4, 1440, Note_on_c, 1, 45, 64
4, 1529, Note_on_c, 1, 45, 0
4, 1584, Note_on_c, 1, 50, 64
4, 1629, Note_on_c, 1, 50, 0
4, 1632, Note_on_c, 1, 54, 64
4, 1677, Note_on_c, 1, 54, 0
4, 1680, Note_on_c, 1, 55, 64
4, 1725, Note_on_c, 1, 55, 0
4, 1728, Note_on_c, 1, 57, 64
4, 1773, Note_on_c, 1, 57, 0
4, 1776, Note_on_c, 1, 45, 64
4, 1821, Note_on_c, 1, 45, 0
4, 1824, Note_on_c, 1, 57, 64
4, 1869, Note_on_c, 1, 57, 0
4, 1872, Note_on_c, 1, 55, 64
4, 1917, Note_on_c, 1, 55, 0
4, 1920, Note_on_c, 1, 54, 64
4, 1965, Note_on_c, 1, 54, 0
4, 1968, Note_on_c, 1, 50, 64
4, 2013, Note_on_c, 1, 50, 0
4, 2016, Note_on_c, 1, 52, 64
4, 2061, Note_on_c, 1, 52, 0
4, 2064, Note_on_c, 1, 45, 64
4, 2109, Note_on_c, 1, 45, 0
4, 2112, Note_on_c, 1, 50, 64
4, 2157, Note_on_c, 1, 50, 0
4, 2160, Note_on_c, 1, 45, 64
4, 2205, Note_on_c, 1, 45, 0
4, 2208, Note_on_c, 1, 38, 64
4, 2297, Note_on_c, 1, 38, 0
4, 2352, Note_on_c, 1, 55, 64
4, 2352, Note_on_c, 1, 43, 64
4, 2397, Note_on_c, 1, 55, 0
4, 2397, Note_on_c, 1, 43, 0
4, 2400, Note_on_c, 1, 55, 64
4, 2400, Note_on_c, 1, 43, 64
4, 2445, Note_on_c, 1, 55, 0
4, 2445, Note_on_c, 1, 43, 0
4, 2448, Note_on_c, 1, 55, 64
4, 2448, Note_on_c, 1, 43, 64
4, 2493, Note_on_c, 1, 55, 0
4, 2493, Note_on_c, 1, 43, 0
4, 2544, Note_on_c, 1, 54, 64
4, 2544, Note_on_c, 1, 42, 64
4, 2589, Note_on_c, 1, 54, 0
4, 2589, Note_on_c, 1, 42, 0
4, 2592, Note_on_c, 1, 54, 64
4, 2592, Note_on_c, 1, 42, 64
4, 2637, Note_on_c, 1, 54, 0
4, 2637, Note_on_c, 1, 42, 0
4, 2640, Note_on_c, 1, 54, 64
4, 2640, Note_on_c, 1, 42, 64
4, 2685, Note_on_c, 1, 54, 0
4, 2685, Note_on_c, 1, 42, 0
4, 2736, Note_on_c, 1, 52, 64
4, 2781, Note_on_c, 1, 52, 0
4, 2784, Note_on_c, 1, 49, 64
4, 2829, Note_on_c, 1, 49, 0
4, 2832, Note_on_c, 1, 50, 64
4, 2877, Note_on_c, 1, 50, 0
4, 2880, Note_on_c, 1, 57, 64
4, 2925, Note_on_c, 1, 57, 0
4, 2928, Note_on_c, 1, 52, 64
4, 2973, Note_on_c, 1, 52, 0
4, 2976, Note_on_c, 1, 45, 64
4, 3065, Note_on_c, 1, 45, 0
4, 3072, Note_on_c, 1, 45, 75
4, 3072, Note_on_c, 1, 33, 75
4, 3161, Note_on_c, 1, 45, 0
4, 3161, Note_on_c, 1, 33, 0
4, 3168, Note_on_c, 1, 45, 76
4, 3213, Note_on_c, 1, 45, 0
4, 3216, Note_on_c, 1, 47, 77
4, 3261, Note_on_c, 1, 47, 0
4, 3264, Note_on_c, 1, 49, 78
4, 3309, Note_on_c, 1, 49, 0
4, 3312, Note_on_c, 1, 50, 79
4, 3357, Note_on_c, 1, 50, 0
4, 3360, Note_on_c, 1, 52, 80
4, 3405, Note_on_c, 1, 52, 0
4, 3408, Note_on_c, 1, 45, 81
4, 3453, Note_on_c, 1, 45, 0
4, 3456, Note_on_c, 1, 50, 82
4, 3545, Note_on_c, 1, 50, 0
4, 3600, Note_on_c, 1, 50, 81
4, 3645, Note_on_c, 1, 50, 0
4, 3648, Note_on_c, 1, 57, 78
4, 3693, Note_on_c, 1, 57, 0
4, 3696, Note_on_c, 1, 45, 75
4, 3741, Note_on_c, 1, 45, 0
4, 3744, Note_on_c, 1, 57, 75
4, 3767, Note_on_c, 1, 57, 0
4, 3768, Note_on_c, 1, 55, 75
4, 3791, Note_on_c, 1, 55, 0
4, 3792, Note_on_c, 1, 54, 75
4, 3815, Note_on_c, 1, 54, 0
4, 3816, Note_on_c, 1, 52, 75
4, 3839, Note_on_c, 1, 52, 0
4, 3840, Note_on_c, 1, 50, 75
4, 3885, Note_on_c, 1, 50, 0
4, 3888, Note_on_c, 1, 62, 75
4, 3888, Note_on_c, 1, 54, 75
4, 3933, Note_on_c, 1, 62, 0
4, 3933, Note_on_c, 1, 54, 0
4, 3936, Note_on_c, 1, 62, 75
4, 3936, Note_on_c, 1, 54, 75
4, 3981, Note_on_c, 1, 62, 0
4, 3981, Note_on_c, 1, 54, 0
4, 3984, Note_on_c, 1, 62, 75
4, 3984, Note_on_c, 1, 54, 75
4, 4029, Note_on_c, 1, 62, 0
4, 4029, Note_on_c, 1, 54, 0
4, 4080, Note_on_c, 1, 62, 75
4, 4080, Note_on_c, 1, 55, 75
4, 4125, Note_on_c, 1, 62, 0
4, 4125, Note_on_c, 1, 55, 0
4, 4128, Note_on_c, 1, 62, 75
4, 4128, Note_on_c, 1, 55, 75
4, 4173, Note_on_c, 1, 62, 0
4, 4173, Note_on_c, 1, 55, 0
4, 4176, Note_on_c, 1, 62, 75
4, 4176, Note_on_c, 1, 55, 75
4, 4221, Note_on_c, 1, 62, 0
4, 4221, Note_on_c, 1, 55, 0
4, 4272, Note_on_c, 1, 54, 75
4, 4317, Note_on_c, 1, 54, 0
4, 4320, Note_on_c, 1, 55, 75
4, 4365, Note_on_c, 1, 55, 0
4, 4368, Note_on_c, 1, 57, 75
4, 4413, Note_on_c, 1, 57, 0
4, 4416, Note_on_c, 1, 50, 75
4, 4461, Note_on_c, 1, 50, 0
4, 4464, Note_on_c, 1, 45, 75
4, 4509, Note_on_c, 1, 45, 0
4, 4512, Note_on_c, 1, 38, 75
4, 4601, Note_on_c, 1, 38, 0
4, 4608, Note_on_c, 1, 45, 75
4, 4608, Note_on_c, 1, 33, 75
4, 4697, Note_on_c, 1, 45, 0
4, 4697, Note_on_c, 1, 33, 0
4, 4704, Note_on_c, 1, 45, 76
4, 4749, Note_on_c, 1, 45, 0
4, 4752, Note_on_c, 1, 47, 77
4, 4797, Note_on_c, 1, 47, 0
4, 4800, Note_on_c, 1, 49, 78
4, 4845, Note_on_c, 1, 49, 0
4, 4848, Note_on_c, 1, 50, 79
4, 4893, Note_on_c, 1, 50, 0
4, 4896, Note_on_c, 1, 52, 80
4, 4941, Note_on_c, 1, 52, 0
4, 4944, Note_on_c, 1, 45, 81
4, 4989, Note_on_c, 1, 45, 0
4, 4992, Note_on_c, 1, 50, 82
4, 5081, Note_on_c, 1, 50, 0
4, 5136, Note_on_c, 1, 50, 81
4, 5181, Note_on_c, 1, 50, 0
4, 5184, Note_on_c, 1, 57, 78
4, 5229, Note_on_c, 1, 57, 0
4, 5232, Note_on_c, 1, 45, 75
4, 5277, Note_on_c, 1, 45, 0
4, 5280, Note_on_c, 1, 57, 75
4, 5303, Note_on_c, 1, 57, 0
4, 5304, Note_on_c, 1, 55, 75
4, 5327, Note_on_c, 1, 55, 0
4, 5328, Note_on_c, 1, 54, 75
4, 5351, Note_on_c, 1, 54, 0
4, 5352, Note_on_c, 1, 52, 75
4, 5375, Note_on_c, 1, 52, 0
4, 5376, Note_on_c, 1, 50, 75
4, 5421, Note_on_c, 1, 50, 0
4, 5424, Note_on_c, 1, 62, 75
4, 5424, Note_on_c, 1, 54, 75
4, 5469, Note_on_c, 1, 62, 0
4, 5469, Note_on_c, 1, 54, 0
4, 5472, Note_on_c, 1, 62, 75
4, 5472, Note_on_c, 1, 54, 75
4, 5517, Note_on_c, 1, 62, 0
4, 5517, Note_on_c, 1, 54, 0
4, 5520, Note_on_c, 1, 62, 75
4, 5520, Note_on_c, 1, 54, 75
4, 5565, Note_on_c, 1, 62, 0
4, 5565, Note_on_c, 1, 54, 0
4, 5616, Note_on_c, 1, 62, 75
4, 5616, Note_on_c, 1, 55, 75
4, 5661, Note_on_c, 1, 62, 0
4, 5661, Note_on_c, 1, 55, 0
4, 5664, Note_on_c, 1, 62, 75
4, 5664, Note_on_c, 1, 55, 75
4, 5709, Note_on_c, 1, 62, 0
4, 5709, Note_on_c, 1, 55, 0
4, 5712, Note_on_c, 1, 62, 75
4, 5712, Note_on_c, 1, 55, 75
4, 5757, Note_on_c, 1, 62, 0
4, 5757, Note_on_c, 1, 55, 0
4, 5808, Note_on_c, 1, 54, 75
4, 5853, Note_on_c, 1, 54, 0
4, 5856, Note_on_c, 1, 55, 75
4, 5901, Note_on_c, 1, 55, 0
4, 5904, Note_on_c, 1, 57, 75
4, 5949, Note_on_c, 1, 57, 0
4, 5952, Note_on_c, 1, 50, 75
4, 5997, Note_on_c, 1, 50, 0
4, 6000, Note_on_c, 1, 45, 75
4, 6045, Note_on_c, 1, 45, 0
4, 6048, Note_on_c, 1, 38, 75
4, 6137, Note_on_c, 1, 38, 0
4, 6192, Note_on_c, 1, 50, 75
4, 6237, Note_on_c, 1, 50, 0
4, 6240, Note_on_c, 1, 54, 75
4, 6285, Note_on_c, 1, 54, 0
4, 6288, Note_on_c, 1, 55, 75
4, 6333, Note_on_c, 1, 55, 0
4, 6336, Note_on_c, 1, 57, 75
4, 6381, Note_on_c, 1, 57, 0
4, 6384, Note_on_c, 1, 45, 75
4, 6429, Note_on_c, 1, 45, 0
4, 6432, Note_on_c, 1, 57, 75
4, 6477, Note_on_c, 1, 57, 0
4, 6480, Note_on_c, 1, 55, 75
4, 6525, Note_on_c, 1, 55, 0
4, 6528, Note_on_c, 1, 54, 75
4, 6573, Note_on_c, 1, 54, 0
4, 6576, Note_on_c, 1, 50, 75
4, 6621, Note_on_c, 1, 50, 0
4, 6624, Note_on_c, 1, 52, 75
4, 6669, Note_on_c, 1, 52, 0
4, 6672, Note_on_c, 1, 45, 75
4, 6717, Note_on_c, 1, 45, 0
4, 6720, Note_on_c, 1, 50, 75
4, 6765, Note_on_c, 1, 50, 0
4, 6768, Note_on_c, 1, 45, 75
4, 6813, Note_on_c, 1, 45, 0
4, 6816, Note_on_c, 1, 38, 75
4, 6905, Note_on_c, 1, 38, 0
4, 6960, Note_on_c, 1, 55, 75
4, 6960, Note_on_c, 1, 43, 75
4, 7005, Note_on_c, 1, 55, 0
4, 7005, Note_on_c, 1, 43, 0
4, 7008, Note_on_c, 1, 55, 75
4, 7008, Note_on_c, 1, 43, 75
4, 7053, Note_on_c, 1, 55, 0
4, 7053, Note_on_c, 1, 43, 0
4, 7056, Note_on_c, 1, 55, 75
4, 7056, Note_on_c, 1, 43, 75
4, 7101, Note_on_c, 1, 55, 0
4, 7101, Note_on_c, 1, 43, 0
4, 7152, Note_on_c, 1, 54, 75
4, 7152, Note_on_c, 1, 42, 75
4, 7197, Note_on_c, 1, 54, 0
4, 7197, Note_on_c, 1, 42, 0
4, 7200, Note_on_c, 1, 54, 75
4, 7200, Note_on_c, 1, 42, 75
4, 7245, Note_on_c, 1, 54, 0
4, 7245, Note_on_c, 1, 42, 0
4, 7248, Note_on_c, 1, 54, 75
4, 7248, Note_on_c, 1, 42, 75
4, 7293, Note_on_c, 1, 54, 0
4, 7293, Note_on_c, 1, 42, 0
4, 7344, Note_on_c, 1, 52, 75
4, 7389, Note_on_c, 1, 52, 0
4, 7392, Note_on_c, 1, 49, 75
4, 7437, Note_on_c, 1, 49, 0
4, 7440, Note_on_c, 1, 50, 75
4, 7485, Note_on_c, 1, 50, 0
4, 7488, Note_on_c, 1, 57, 75
4, 7533, Note_on_c, 1, 57, 0
4, 7536, Note_on_c, 1, 52, 75
4, 7581, Note_on_c, 1, 52, 0
4, 7584, Note_on_c, 1, 45, 75
4, 7673, Note_on_c, 1, 45, 0
4, 7728, Note_on_c, 1, 50, 75
4, 7773, Note_on_c, 1, 50, 0
4, 7776, Note_on_c, 1, 54, 75
4, 7821, Note_on_c, 1, 54, 0
4, 7824, Note_on_c, 1, 55, 75
4, 7869, Note_on_c, 1, 55, 0
4, 7872, Note_on_c, 1, 57, 75
4, 7917, Note_on_c, 1, 57, 0
4, 7920, Note_on_c, 1, 45, 75
4, 7965, Note_on_c, 1, 45, 0
4, 7968, Note_on_c, 1, 57, 75
4, 8013, Note_on_c, 1, 57, 0
4, 8016, Note_on_c, 1, 55, 75
4, 8061, Note_on_c, 1, 55, 0
4, 8064, Note_on_c, 1, 54, 75
4, 8109, Note_on_c, 1, 54, 0
4, 8112, Note_on_c, 1, 50, 75
4, 8157, Note_on_c, 1, 50, 0
4, 8160, Note_on_c, 1, 52, 75
4, 8205, Note_on_c, 1, 52, 0
4, 8208, Note_on_c, 1, 45, 75
4, 8253, Note_on_c, 1, 45, 0
4, 8256, Note_on_c, 1, 50, 75
4, 8301, Note_on_c, 1, 50, 0
4, 8304, Note_on_c, 1, 45, 75
4, 8349, Note_on_c, 1, 45, 0
4, 8352, Note_on_c, 1, 38, 75
4, 8441, Note_on_c, 1, 38, 0
4, 8496, Note_on_c, 1, 55, 75
4, 8496, Note_on_c, 1, 43, 75
4, 8541, Note_on_c, 1, 55, 0
4, 8541, Note_on_c, 1, 43, 0
4, 8544, Note_on_c, 1, 55, 75
4, 8544, Note_on_c, 1, 43, 75
4, 8589, Note_on_c, 1, 55, 0
4, 8589, Note_on_c, 1, 43, 0
4, 8592, Note_on_c, 1, 55, 75
4, 8592, Note_on_c, 1, 43, 75
4, 8637, Note_on_c, 1, 55, 0
4, 8637, Note_on_c, 1, 43, 0
4, 8688, Note_on_c, 1, 54, 75
4, 8688, Note_on_c, 1, 42, 75
4, 8733, Note_on_c, 1, 54, 0
4, 8733, Note_on_c, 1, 42, 0
4, 8736, Note_on_c, 1, 54, 75
4, 8736, Note_on_c, 1, 42, 75
4, 8781, Note_on_c, 1, 54, 0
4, 8781, Note_on_c, 1, 42, 0
4, 8784, Note_on_c, 1, 54, 75
4, 8784, Note_on_c, 1, 42, 75
4, 8829, Note_on_c, 1, 54, 0
4, 8829, Note_on_c, 1, 42, 0
4, 8880, Note_on_c, 1, 52, 75
4, 8925, Note_on_c, 1, 52, 0
4, 8928, Note_on_c, 1, 49, 75
4, 8973, Note_on_c, 1, 49, 0
4, 8976, Note_on_c, 1, 50, 75
4, 9021, Note_on_c, 1, 50, 0
4, 9024, Note_on_c, 1, 57, 75
4, 9069, Note_on_c, 1, 57, 0
4, 9072, Note_on_c, 1, 52, 75
4, 9117, Note_on_c, 1, 52, 0
4, 9120, Note_on_c, 1, 45, 75
4, 9209, Note_on_c, 1, 45, 0
4, 9216, Note_on_c, 1, 45, 75
4, 9216, Note_on_c, 1, 33, 75
4, 9305, Note_on_c, 1, 45, 0
4, 9305, Note_on_c, 1, 33, 0
4, 9312, Note_on_c, 1, 45, 76
4, 9357, Note_on_c, 1, 45, 0
4, 9360, Note_on_c, 1, 47, 77
4, 9405, Note_on_c, 1, 47, 0
4, 9408, Note_on_c, 1, 49, 78
4, 9453, Note_on_c, 1, 49, 0
4, 9456, Note_on_c, 1, 50, 79
4, 9501, Note_on_c, 1, 50, 0
4, 9504, Note_on_c, 1, 52, 80
4, 9549, Note_on_c, 1, 52, 0
4, 9552, Note_on_c, 1, 45, 81
4, 9597, Note_on_c, 1, 45, 0
4, 9600, Note_on_c, 1, 50, 82
4, 9689, Note_on_c, 1, 50, 0
4, 9744, Note_on_c, 1, 50, 84
4, 9789, Note_on_c, 1, 50, 0
4, 9792, Note_on_c, 1, 57, 81
4, 9837, Note_on_c, 1, 57, 0
4, 9840, Note_on_c, 1, 45, 78
4, 9885, Note_on_c, 1, 45, 0
4, 9888, Note_on_c, 1, 57, 75
4, 9911, Note_on_c, 1, 57, 0
4, 9912, Note_on_c, 1, 55, 75
4, 9935, Note_on_c, 1, 55, 0
4, 9936, Note_on_c, 1, 54, 75
4, 9959, Note_on_c, 1, 54, 0
4, 9960, Note_on_c, 1, 52, 75
4, 9983, Note_on_c, 1, 52, 0
4, 9984, Note_on_c, 1, 50, 75
4, 10029, Note_on_c, 1, 50, 0
4, 10032, Note_on_c, 1, 62, 75
4, 10032, Note_on_c, 1, 54, 75
4, 10077, Note_on_c, 1, 62, 0
4, 10077, Note_on_c, 1, 54, 0
4, 10080, Note_on_c, 1, 62, 75
4, 10080, Note_on_c, 1, 54, 75
4, 10125, Note_on_c, 1, 62, 0
4, 10125, Note_on_c, 1, 54, 0
4, 10128, Note_on_c, 1, 62, 75
4, 10128, Note_on_c, 1, 54, 75
4, 10173, Note_on_c, 1, 62, 0
4, 10173, Note_on_c, 1, 54, 0
4, 10224, Note_on_c, 1, 62, 75
4, 10224, Note_on_c, 1, 55, 75
4, 10269, Note_on_c, 1, 62, 0
4, 10269, Note_on_c, 1, 55, 0
4, 10272, Note_on_c, 1, 62, 75
4, 10272, Note_on_c, 1, 55, 75
4, 10317, Note_on_c, 1, 62, 0
4, 10317, Note_on_c, 1, 55, 0
4, 10320, Note_on_c, 1, 62, 75
4, 10320, Note_on_c, 1, 55, 75
4, 10365, Note_on_c, 1, 62, 0
4, 10365, Note_on_c, 1, 55, 0
4, 10416, Note_on_c, 1, 54, 75
4, 10461, Note_on_c, 1, 54, 0
4, 10464, Note_on_c, 1, 55, 75
4, 10509, Note_on_c, 1, 55, 0
4, 10512, Note_on_c, 1, 57, 75
4, 10557, Note_on_c, 1, 57, 0
4, 10560, Note_on_c, 1, 50, 75
4, 10605, Note_on_c, 1, 50, 0
4, 10608, Note_on_c, 1, 45, 75
4, 10653, Note_on_c, 1, 45, 0
4, 10656, Note_on_c, 1, 38, 75
4, 10745, Note_on_c, 1, 38, 0
4, 10752, Note_on_c, 1, 45, 75
4, 10752, Note_on_c, 1, 33, 75
4, 10841, Note_on_c, 1, 45, 0
4, 10841, Note_on_c, 1, 33, 0
4, 10848, Note_on_c, 1, 45, 76
4, 10893, Note_on_c, 1, 45, 0
4, 10896, Note_on_c, 1, 47, 77
4, 10941, Note_on_c, 1, 47, 0
4, 10944, Note_on_c, 1, 49, 78
4, 10989, Note_on_c, 1, 49, 0
4, 10992, Note_on_c, 1, 50, 79
4, 11037, Note_on_c, 1, 50, 0
4, 11040, Note_on_c, 1, 52, 80
4, 11085, Note_on_c, 1, 52, 0
4, 11088, Note_on_c, 1, 45, 81
4, 11133, Note_on_c, 1, 45, 0
4, 11136, Note_on_c, 1, 50, 82
4, 11225, Note_on_c, 1, 50, 0
4, 11280, Note_on_c, 1, 50, 84
4, 11325, Note_on_c, 1, 50, 0
4, 11328, Note_on_c, 1, 57, 81
4, 11373, Note_on_c, 1, 57, 0
4, 11376, Note_on_c, 1, 45, 78
4, 11421, Note_on_c, 1, 45, 0
4, 11424, Note_on_c, 1, 57, 75
4, 11447, Note_on_c, 1, 57, 0
4, 11448, Note_on_c, 1, 55, 75
4, 11471, Note_on_c, 1, 55, 0
4, 11472, Note_on_c, 1, 54, 75
4, 11495, Note_on_c, 1, 54, 0
4, 11496, Note_on_c, 1, 52, 75
4, 11519, Note_on_c, 1, 52, 0
4, 11520, Note_on_c, 1, 50, 75
4, 11565, Note_on_c, 1, 50, 0
4, 11568, Note_on_c, 1, 62, 75
4, 11568, Note_on_c, 1, 54, 75
4, 11613, Note_on_c, 1, 62, 0
4, 11613, Note_on_c, 1, 54, 0
4, 11616, Note_on_c, 1, 62, 75
4, 11616, Note_on_c, 1, 54, 75
4, 11661, Note_on_c, 1, 62, 0
4, 11661, Note_on_c, 1, 54, 0
4, 11664, Note_on_c, 1, 62, 75
4, 11664, Note_on_c, 1, 54, 75
4, 11709, Note_on_c, 1, 62, 0
4, 11709, Note_on_c, 1, 54, 0
4, 11760, Note_on_c, 1, 62, 75
4, 11760, Note_on_c, 1, 55, 75
4, 11805, Note_on_c, 1, 62, 0
4, 11805, Note_on_c, 1, 55, 0
4, 11808, Note_on_c, 1, 62, 75
4, 11808, Note_on_c, 1, 55, 75
4, 11853, Note_on_c, 1, 62, 0
4, 11853, Note_on_c, 1, 55, 0
4, 11856, Note_on_c, 1, 62, 75
4, 11856, Note_on_c, 1, 55, 75
4, 11901, Note_on_c, 1, 62, 0
4, 11901, Note_on_c, 1, 55, 0
4, 11952, Note_on_c, 1, 54, 75
4, 11997, Note_on_c, 1, 54, 0
4, 12000, Note_on_c, 1, 55, 75
4, 12045, Note_on_c, 1, 55, 0
4, 12048, Note_on_c, 1, 57, 75
4, 12093, Note_on_c, 1, 57, 0
4, 12096, Note_on_c, 1, 50, 75
4, 12141, Note_on_c, 1, 50, 0
4, 12144, Note_on_c, 1, 45, 75
4, 12189, Note_on_c, 1, 45, 0
4, 12192, Note_on_c, 1, 38, 75
4, 12281, Note_on_c, 1, 38, 0
4, 12336, Note_on_c, 1, 50, 75
4, 12381, Note_on_c, 1, 50, 0
4, 12384, Note_on_c, 1, 54, 75
4, 12429, Note_on_c, 1, 54, 0
4, 12432, Note_on_c, 1, 55, 75
4, 12477, Note_on_c, 1, 55, 0
4, 12480, Note_on_c, 1, 57, 75
4, 12525, Note_on_c, 1, 57, 0
4, 12528, Note_on_c, 1, 45, 75
4, 12573, Note_on_c, 1, 45, 0
4, 12576, Note_on_c, 1, 57, 75
4, 12621, Note_on_c, 1, 57, 0
4, 12624, Note_on_c, 1, 55, 75
4, 12669, Note_on_c, 1, 55, 0
4, 12672, Note_on_c, 1, 54, 75
4, 12717, Note_on_c, 1, 54, 0
4, 12720, Note_on_c, 1, 50, 75
4, 12765, Note_on_c, 1, 50, 0
4, 12768, Note_on_c, 1, 52, 75
4, 12813, Note_on_c, 1, 52, 0
4, 12816, Note_on_c, 1, 45, 75
4, 12861, Note_on_c, 1, 45, 0
4, 12864, Note_on_c, 1, 50, 75
4, 12909, Note_on_c, 1, 50, 0
4, 12912, Note_on_c, 1, 45, 75
4, 12957, Note_on_c, 1, 45, 0
4, 12960, Note_on_c, 1, 38, 75
4, 13049, Note_on_c, 1, 38, 0
4, 13104, Note_on_c, 1, 55, 75
4, 13104, Note_on_c, 1, 43, 75
4, 13149, Note_on_c, 1, 55, 0
4, 13149, Note_on_c, 1, 43, 0
4, 13152, Note_on_c, 1, 55, 75
4, 13152, Note_on_c, 1, 43, 75
4, 13197, Note_on_c, 1, 55, 0
4, 13197, Note_on_c, 1, 43, 0
4, 13200, Note_on_c, 1, 55, 75
4, 13200, Note_on_c, 1, 43, 75
4, 13245, Note_on_c, 1, 55, 0
4, 13245, Note_on_c, 1, 43, 0
4, 13296, Note_on_c, 1, 54, 75
4, 13296, Note_on_c, 1, 42, 75
4, 13341, Note_on_c, 1, 54, 0
4, 13341, Note_on_c, 1, 42, 0
4, 13344, Note_on_c, 1, 54, 75
4, 13344, Note_on_c, 1, 42, 75
4, 13389, Note_on_c, 1, 54, 0
4, 13389, Note_on_c, 1, 42, 0
4, 13392, Note_on_c, 1, 54, 75
4, 13392, Note_on_c, 1, 42, 75
4, 13437, Note_on_c, 1, 54, 0
4, 13437, Note_on_c, 1, 42, 0
4, 13488, Note_on_c, 1, 52, 75
4, 13533, Note_on_c, 1, 52, 0
4, 13536, Note_on_c, 1, 49, 75
4, 13581, Note_on_c, 1, 49, 0
4, 13584, Note_on_c, 1, 50, 75
4, 13629, Note_on_c, 1, 50, 0
4, 13632, Note_on_c, 1, 57, 75
4, 13677, Note_on_c, 1, 57, 0
4, 13680, Note_on_c, 1, 52, 75
4, 13725, Note_on_c, 1, 52, 0
4, 13728, Note_on_c, 1, 45, 75
4, 13817, Note_on_c, 1, 45, 0
4, 13872, Note_on_c, 1, 50, 75
4, 13917, Note_on_c, 1, 50, 0
4, 13920, Note_on_c, 1, 54, 75
4, 13965, Note_on_c, 1, 54, 0
4, 13968, Note_on_c, 1, 55, 75
4, 14013, Note_on_c, 1, 55, 0
4, 14016, Note_on_c, 1, 57, 75
4, 14061, Note_on_c, 1, 57, 0
4, 14064, Note_on_c, 1, 45, 75
4, 14109, Note_on_c, 1, 45, 0
4, 14112, Note_on_c, 1, 57, 75
4, 14157, Note_on_c, 1, 57, 0
4, 14160, Note_on_c, 1, 55, 75
4, 14205, Note_on_c, 1, 55, 0
4, 14208, Note_on_c, 1, 54, 75
4, 14253, Note_on_c, 1, 54, 0
4, 14256, Note_on_c, 1, 50, 75
4, 14301, Note_on_c, 1, 50, 0
4, 14304, Note_on_c, 1, 52, 75
4, 14349, Note_on_c, 1, 52, 0
4, 14352, Note_on_c, 1, 45, 75
4, 14397, Note_on_c, 1, 45, 0
4, 14400, Note_on_c, 1, 50, 75
4, 14445, Note_on_c, 1, 50, 0
4, 14448, Note_on_c, 1, 45, 75
4, 14493, Note_on_c, 1, 45, 0
4, 14496, Note_on_c, 1, 38, 75
4, 14585, Note_on_c, 1, 38, 0
4, 14640, Note_on_c, 1, 55, 75
4, 14640, Note_on_c, 1, 43, 75
4, 14685, Note_on_c, 1, 55, 0
4, 14685, Note_on_c, 1, 43, 0
4, 14688, Note_on_c, 1, 55, 75
4, 14688, Note_on_c, 1, 43, 75
4, 14733, Note_on_c, 1, 55, 0
4, 14733, Note_on_c, 1, 43, 0
4, 14736, Note_on_c, 1, 55, 75
4, 14736, Note_on_c, 1, 43, 75
4, 14781, Note_on_c, 1, 55, 0
4, 14781, Note_on_c, 1, 43, 0
4, 14832, Note_on_c, 1, 54, 75
4, 14832, Note_on_c, 1, 42, 75
4, 14877, Note_on_c, 1, 54, 0
4, 14877, Note_on_c, 1, 42, 0
4, 14880, Note_on_c, 1, 54, 75
4, 14880, Note_on_c, 1, 42, 75
4, 14925, Note_on_c, 1, 54, 0
4, 14925, Note_on_c, 1, 42, 0
4, 14928, Note_on_c, 1, 54, 75
4, 14928, Note_on_c, 1, 42, 75
4, 14973, Note_on_c, 1, 54, 0
4, 14973, Note_on_c, 1, 42, 0
4, 15024, Note_on_c, 1, 52, 75
4, 15069, Note_on_c, 1, 52, 0
4, 15072, Note_on_c, 1, 49, 75
4, 15117, Note_on_c, 1, 49, 0
4, 15120, Note_on_c, 1, 50, 75
4, 15165, Note_on_c, 1, 50, 0
4, 15168, Note_on_c, 1, 57, 75
4, 15213, Note_on_c, 1, 57, 0
4, 15216, Note_on_c, 1, 52, 75
4, 15261, Note_on_c, 1, 52, 0
4, 15264, Note_on_c, 1, 45, 75
4, 15353, Note_on_c, 1, 45, 0
4, 15360, Note_on_c, 1, 45, 75
4, 15360, Note_on_c, 1, 33, 75
4, 15449, Note_on_c, 1, 45, 0
4, 15449, Note_on_c, 1, 33, 0
4, 15456, Note_on_c, 1, 45, 76
4, 15501, Note_on_c, 1, 45, 0
4, 15504, Note_on_c, 1, 47, 77
4, 15549, Note_on_c, 1, 47, 0
4, 15552, Note_on_c, 1, 49, 78
4, 15597, Note_on_c, 1, 49, 0
4, 15600, Note_on_c, 1, 50, 79
4, 15645, Note_on_c, 1, 50, 0
4, 15648, Note_on_c, 1, 52, 80
4, 15693, Note_on_c, 1, 52, 0
4, 15696, Note_on_c, 1, 45, 81
4, 15741, Note_on_c, 1, 45, 0
4, 15744, Note_on_c, 1, 50, 82
4, 15833, Note_on_c, 1, 50, 0
4, 15888, Note_on_c, 1, 50, 81
4, 15933, Note_on_c, 1, 50, 0
4, 15936, Note_on_c, 1, 57, 78
4, 15981, Note_on_c, 1, 57, 0
4, 15984, Note_on_c, 1, 45, 75
4, 16029, Note_on_c, 1, 45, 0
4, 16032, Note_on_c, 1, 57, 75
4, 16055, Note_on_c, 1, 57, 0
4, 16056, Note_on_c, 1, 55, 75
4, 16079, Note_on_c, 1, 55, 0
4, 16080, Note_on_c, 1, 54, 75
4, 16103, Note_on_c, 1, 54, 0
4, 16104, Note_on_c, 1, 52, 75
4, 16127, Note_on_c, 1, 52, 0
4, 16128, Note_on_c, 1, 50, 75
4, 16173, Note_on_c, 1, 50, 0
4, 16176, Note_on_c, 1, 62, 75
4, 16176, Note_on_c, 1, 54, 75
4, 16221, Note_on_c, 1, 62, 0
4, 16221, Note_on_c, 1, 54, 0
4, 16224, Note_on_c, 1, 62, 75
4, 16224, Note_on_c, 1, 54, 75
4, 16269, Note_on_c, 1, 62, 0
4, 16269, Note_on_c, 1, 54, 0
4, 16272, Note_on_c, 1, 62, 75
4, 16272, Note_on_c, 1, 54, 75
4, 16317, Note_on_c, 1, 62, 0
4, 16317, Note_on_c, 1, 54, 0
4, 16368, Note_on_c, 1, 62, 75
4, 16368, Note_on_c, 1, 55, 75
4, 16413, Note_on_c, 1, 62, 0
4, 16413, Note_on_c, 1, 55, 0
4, 16416, Note_on_c, 1, 62, 75
4, 16416, Note_on_c, 1, 55, 75
4, 16461, Note_on_c, 1, 62, 0
4, 16461, Note_on_c, 1, 55, 0
4, 16464, Note_on_c, 1, 62, 75
4, 16464, Note_on_c, 1, 55, 75
4, 16509, Note_on_c, 1, 62, 0
4, 16509, Note_on_c, 1, 55, 0
4, 16560, Note_on_c, 1, 54, 75
4, 16605, Note_on_c, 1, 54, 0
4, 16608, Note_on_c, 1, 55, 75
4, 16653, Note_on_c, 1, 55, 0
4, 16656, Note_on_c, 1, 57, 75
4, 16701, Note_on_c, 1, 57, 0
4, 16704, Note_on_c, 1, 50, 75
4, 16749, Note_on_c, 1, 50, 0
4, 16752, Note_on_c, 1, 45, 75
4, 16797, Note_on_c, 1, 45, 0
4, 16800, Note_on_c, 1, 38, 75
4, 16889, Note_on_c, 1, 38, 0
4, 16896, Note_on_c, 1, 45, 75
4, 16896, Note_on_c, 1, 33, 75
4, 16985, Note_on_c, 1, 45, 0
4, 16985, Note_on_c, 1, 33, 0
4, 16992, Note_on_c, 1, 45, 76
4, 17037, Note_on_c, 1, 45, 0
4, 17040, Note_on_c, 1, 47, 77
4, 17085, Note_on_c, 1, 47, 0
4, 17088, Note_on_c, 1, 49, 78
4, 17133, Note_on_c, 1, 49, 0
4, 17136, Note_on_c, 1, 50, 79
4, 17181, Note_on_c, 1, 50, 0
4, 17184, Note_on_c, 1, 52, 80
4, 17229, Note_on_c, 1, 52, 0
4, 17232, Note_on_c, 1, 45, 81
4, 17277, Note_on_c, 1, 45, 0
4, 17280, Note_on_c, 1, 50, 82
4, 17369, Note_on_c, 1, 50, 0
4, 17424, Note_on_c, 1, 50, 81
4, 17469, Note_on_c, 1, 50, 0
4, 17472, Note_on_c, 1, 57, 78
4, 17517, Note_on_c, 1, 57, 0
4, 17520, Note_on_c, 1, 45, 75
4, 17565, Note_on_c, 1, 45, 0
4, 17568, Note_on_c, 1, 57, 75
4, 17591, Note_on_c, 1, 57, 0
4, 17592, Note_on_c, 1, 55, 75
4, 17615, Note_on_c, 1, 55, 0
4, 17616, Note_on_c, 1, 54, 75
4, 17639, Note_on_c, 1, 54, 0
4, 17640, Note_on_c, 1, 52, 75
4, 17663, Note_on_c, 1, 52, 0
4, 17664, Note_on_c, 1, 50, 75
4, 17709, Note_on_c, 1, 50, 0
4, 17712, Note_on_c, 1, 62, 75
4, 17712, Note_on_c, 1, 54, 75
4, 17757, Note_on_c, 1, 62, 0
4, 17757, Note_on_c, 1, 54, 0
4, 17760, Note_on_c, 1, 62, 75
4, 17760, Note_on_c, 1, 54, 75
4, 17805, Note_on_c, 1, 62, 0
4, 17805, Note_on_c, 1, 54, 0
4, 17808, Note_on_c, 1, 62, 75
4, 17808, Note_on_c, 1, 54, 75
4, 17853, Note_on_c, 1, 62, 0
4, 17853, Note_on_c, 1, 54, 0
4, 17904, Note_on_c, 1, 62, 75
4, 17904, Note_on_c, 1, 55, 75
4, 17949, Note_on_c, 1, 62, 0
4, 17949, Note_on_c, 1, 55, 0
4, 17952, Note_on_c, 1, 62, 75
4, 17952, Note_on_c, 1, 55, 75
4, 17997, Note_on_c, 1, 62, 0
4, 17997, Note_on_c, 1, 55, 0
4, 18000, Note_on_c, 1, 62, 75
4, 18000, Note_on_c, 1, 55, 75
4, 18045, Note_on_c, 1, 62, 0
4, 18045, Note_on_c, 1, 55, 0
4, 18096, Note_on_c, 1, 54, 75
4, 18141, Note_on_c, 1, 54, 0
4, 18144, Note_on_c, 1, 55, 75
4, 18189, Note_on_c, 1, 55, 0
4, 18192, Note_on_c, 1, 57, 75
4, 18237, Note_on_c, 1, 57, 0
4, 18240, Note_on_c, 1, 50, 75
4, 18285, Note_on_c, 1, 50, 0
4, 18288, Note_on_c, 1, 45, 75
4, 18333, Note_on_c, 1, 45, 0
4, 18336, Note_on_c, 1, 38, 75
4, 18425, Note_on_c, 1, 38, 0
4, 18480, Note_on_c, 1, 50, 75
4, 18525, Note_on_c, 1, 50, 0
4, 18528, Note_on_c, 1, 54, 75
4, 18573, Note_on_c, 1, 54, 0
4, 18576, Note_on_c, 1, 55, 75
4, 18621, Note_on_c, 1, 55, 0
4, 18624, Note_on_c, 1, 57, 75
4, 18669, Note_on_c, 1, 57, 0
4, 18672, Note_on_c, 1, 45, 75
4, 18717, Note_on_c, 1, 45, 0
4, 18720, Note_on_c, 1, 57, 75
4, 18765, Note_on_c, 1, 57, 0
4, 18768, Note_on_c, 1, 55, 75
4, 18813, Note_on_c, 1, 55, 0
4, 18816, Note_on_c, 1, 54, 75
4, 18861, Note_on_c, 1, 54, 0
4, 18864, Note_on_c, 1, 50, 75
4, 18909, Note_on_c, 1, 50, 0
4, 18912, Note_on_c, 1, 52, 75
4, 18957, Note_on_c, 1, 52, 0
4, 18960, Note_on_c, 1, 45, 75
4, 19005, Note_on_c, 1, 45, 0
4, 19008, Note_on_c, 1, 50, 75
4, 19053, Note_on_c, 1, 50, 0
4, 19056, Note_on_c, 1, 45, 75
4, 19101, Note_on_c, 1, 45, 0
4, 19104, Note_on_c, 1, 38, 75
4, 19193, Note_on_c, 1, 38, 0
4, 19248, Note_on_c, 1, 55, 75
4, 19248, Note_on_c, 1, 43, 75
4, 19293, Note_on_c, 1, 55, 0
4, 19293, Note_on_c, 1, 43, 0
4, 19296, Note_on_c, 1, 55, 75
4, 19296, Note_on_c, 1, 43, 75
4, 19341, Note_on_c, 1, 55, 0
4, 19341, Note_on_c, 1, 43, 0
4, 19344, Note_on_c, 1, 55, 75
4, 19344, Note_on_c, 1, 43, 75
4, 19389, Note_on_c, 1, 55, 0
4, 19389, Note_on_c, 1, 43, 0
4, 19440, Note_on_c, 1, 54, 75
4, 19440, Note_on_c, 1, 42, 75
4, 19485, Note_on_c, 1, 54, 0
4, 19485, Note_on_c, 1, 42, 0
4, 19488, Note_on_c, 1, 54, 75
4, 19488, Note_on_c, 1, 42, 75
4, 19533, Note_on_c, 1, 54, 0
4, 19533, Note_on_c, 1, 42, 0
4, 19536, Note_on_c, 1, 54, 75
4, 19536, Note_on_c, 1, 42, 75
4, 19581, Note_on_c, 1, 54, 0
4, 19581, Note_on_c, 1, 42, 0
4, 19632, Note_on_c, 1, 52, 75
4, 19677, Note_on_c, 1, 52, 0
4, 19680, Note_on_c, 1, 49, 75
4, 19725, Note_on_c, 1, 49, 0
4, 19728, Note_on_c, 1, 50, 75
4, 19773, Note_on_c, 1, 50, 0
4, 19776, Note_on_c, 1, 57, 75
4, 19821, Note_on_c, 1, 57, 0
4, 19824, Note_on_c, 1, 52, 75
4, 19869, Note_on_c, 1, 52, 0
4, 19872, Note_on_c, 1, 45, 75
4, 19961, Note_on_c, 1, 45, 0
4, 20016, Note_on_c, 1, 50, 75
4, 20061, Note_on_c, 1, 50, 0
4, 20064, Note_on_c, 1, 54, 75
4, 20109, Note_on_c, 1, 54, 0
4, 20112, Note_on_c, 1, 55, 75
4, 20157, Note_on_c, 1, 55, 0
4, 20160, Note_on_c, 1, 57, 75
4, 20205, Note_on_c, 1, 57, 0
4, 20208, Note_on_c, 1, 45, 75
4, 20253, Note_on_c, 1, 45, 0
4, 20256, Note_on_c, 1, 57, 75
4, 20301, Note_on_c, 1, 57, 0
4, 20304, Note_on_c, 1, 55, 75
4, 20349, Note_on_c, 1, 55, 0
4, 20352, Note_on_c, 1, 54, 75
4, 20397, Note_on_c, 1, 54, 0
4, 20400, Note_on_c, 1, 50, 75
4, 20445, Note_on_c, 1, 50, 0
4, 20448, Note_on_c, 1, 52, 75
4, 20493, Note_on_c, 1, 52, 0
4, 20496, Note_on_c, 1, 45, 75
4, 20541, Note_on_c, 1, 45, 0
4, 20544, Note_on_c, 1, 50, 75
4, 20589, Note_on_c, 1, 50, 0
4, 20592, Note_on_c, 1, 45, 75
4, 20637, Note_on_c, 1, 45, 0
4, 20640, Note_on_c, 1, 38, 75
4, 20729, Note_on_c, 1, 38, 0
4, 20784, Note_on_c, 1, 55, 75
4, 20784, Note_on_c, 1, 43, 75
4, 20829, Note_on_c, 1, 55, 0
4, 20829, Note_on_c, 1, 43, 0
4, 20832, Note_on_c, 1, 55, 75
4, 20832, Note_on_c, 1, 43, 75
4, 20877, Note_on_c, 1, 55, 0
4, 20877, Note_on_c, 1, 43, 0
4, 20880, Note_on_c, 1, 55, 75
4, 20880, Note_on_c, 1, 43, 75
4, 20925, Note_on_c, 1, 55, 0
4, 20925, Note_on_c, 1, 43, 0
4, 20976, Note_on_c, 1, 54, 75
4, 20976, Note_on_c, 1, 42, 75
4, 21021, Note_on_c, 1, 54, 0
4, 21021, Note_on_c, 1, 42, 0
4, 21024, Note_on_c, 1, 54, 75
4, 21024, Note_on_c, 1, 42, 75
4, 21069, Note_on_c, 1, 54, 0
4, 21069, Note_on_c, 1, 42, 0
4, 21072, Note_on_c, 1, 54, 75
4, 21072, Note_on_c, 1, 42, 75
4, 21117, Note_on_c, 1, 54, 0
4, 21117, Note_on_c, 1, 42, 0
4, 21168, Note_on_c, 1, 52, 75
4, 21213, Note_on_c, 1, 52, 0
4, 21216, Note_on_c, 1, 49, 75
4, 21261, Note_on_c, 1, 49, 0
4, 21264, Note_on_c, 1, 50, 75
4, 21309, Note_on_c, 1, 50, 0
4, 21312, Note_on_c, 1, 57, 75
4, 21357, Note_on_c, 1, 57, 0
4, 21360, Note_on_c, 1, 52, 75
4, 21405, Note_on_c, 1, 52, 0
4, 21408, Note_on_c, 1, 45, 75
4, 21497, Note_on_c, 1, 45, 0
4, 21504, Note_on_c, 1, 45, 75
4, 21504, Note_on_c, 1, 33, 75
4, 21593, Note_on_c, 1, 45, 0
4, 21593, Note_on_c, 1, 33, 0
4, 21600, Note_on_c, 1, 45, 77
4, 21645, Note_on_c, 1, 45, 0
4, 21648, Note_on_c, 1, 47, 78
4, 21693, Note_on_c, 1, 47, 0
4, 21696, Note_on_c, 1, 49, 79
4, 21741, Note_on_c, 1, 49, 0
4, 21744, Note_on_c, 1, 50, 80
4, 21789, Note_on_c, 1, 50, 0
4, 21792, Note_on_c, 1, 52, 81
4, 21837, Note_on_c, 1, 52, 0
4, 21840, Note_on_c, 1, 45, 82
4, 21885, Note_on_c, 1, 45, 0
4, 21888, Note_on_c, 1, 50, 84
4, 21977, Note_on_c, 1, 50, 0
4, 22032, Note_on_c, 1, 50, 84
4, 22077, Note_on_c, 1, 50, 0
4, 22080, Note_on_c, 1, 57, 81
4, 22125, Note_on_c, 1, 57, 0
4, 22128, Note_on_c, 1, 45, 78
4, 22173, Note_on_c, 1, 45, 0
4, 22176, Note_on_c, 1, 57, 76
4, 22199, Note_on_c, 1, 57, 0
4, 22200, Note_on_c, 1, 55, 75
4, 22223, Note_on_c, 1, 55, 0
4, 22224, Note_on_c, 1, 54, 75
4, 22247, Note_on_c, 1, 54, 0
4, 22248, Note_on_c, 1, 52, 75
4, 22271, Note_on_c, 1, 52, 0
4, 22272, Note_on_c, 1, 50, 75
4, 22317, Note_on_c, 1, 50, 0
4, 22320, Note_on_c, 1, 62, 75
4, 22320, Note_on_c, 1, 54, 75
4, 22365, Note_on_c, 1, 62, 0
4, 22365, Note_on_c, 1, 54, 0
4, 22368, Note_on_c, 1, 62, 75
4, 22368, Note_on_c, 1, 54, 75
4, 22413, Note_on_c, 1, 62, 0
4, 22413, Note_on_c, 1, 54, 0
4, 22416, Note_on_c, 1, 62, 75
4, 22416, Note_on_c, 1, 54, 75
4, 22461, Note_on_c, 1, 62, 0
4, 22461, Note_on_c, 1, 54, 0
4, 22512, Note_on_c, 1, 62, 75
4, 22512, Note_on_c, 1, 55, 75
4, 22557, Note_on_c, 1, 62, 0
4, 22557, Note_on_c, 1, 55, 0
4, 22560, Note_on_c, 1, 62, 75
4, 22560, Note_on_c, 1, 55, 75
4, 22605, Note_on_c, 1, 62, 0
4, 22605, Note_on_c, 1, 55, 0
4, 22608, Note_on_c, 1, 62, 75
4, 22608, Note_on_c, 1, 55, 75
4, 22653, Note_on_c, 1, 62, 0
4, 22653, Note_on_c, 1, 55, 0
4, 22704, Note_on_c, 1, 54, 75
4, 22749, Note_on_c, 1, 54, 0
4, 22752, Note_on_c, 1, 55, 75
4, 22797, Note_on_c, 1, 55, 0
4, 22800, Note_on_c, 1, 57, 75
4, 22845, Note_on_c, 1, 57, 0
4, 22848, Note_on_c, 1, 50, 75
4, 22893, Note_on_c, 1, 50, 0
4, 22896, Note_on_c, 1, 45, 75
4, 22941, Note_on_c, 1, 45, 0
4, 22944, Note_on_c, 1, 38, 75
4, 23033, Note_on_c, 1, 38, 0
4, 23040, Note_on_c, 1, 45, 75
4, 23040, Note_on_c, 1, 33, 75
4, 23129, Note_on_c, 1, 45, 0
4, 23129, Note_on_c, 1, 33, 0
4, 23136, Note_on_c, 1, 45, 77
4, 23181, Note_on_c, 1, 45, 0
4, 23184, Note_on_c, 1, 47, 78
4, 23229, Note_on_c, 1, 47, 0
4, 23232, Note_on_c, 1, 49, 79
4, 23277, Note_on_c, 1, 49, 0
4, 23280, Note_on_c, 1, 50, 80
4, 23325, Note_on_c, 1, 50, 0
4, 23328, Note_on_c, 1, 52, 81
4, 23373, Note_on_c, 1, 52, 0
4, 23376, Note_on_c, 1, 45, 82
4, 23421, Note_on_c, 1, 45, 0
4, 23424, Note_on_c, 1, 50, 84
4, 23513, Note_on_c, 1, 50, 0
4, 23568, Note_on_c, 1, 50, 84
4, 23613, Note_on_c, 1, 50, 0
4, 23616, Note_on_c, 1, 57, 81
4, 23661, Note_on_c, 1, 57, 0
4, 23664, Note_on_c, 1, 45, 78
4, 23709, Note_on_c, 1, 45, 0
4, 23712, Note_on_c, 1, 57, 76
4, 23735, Note_on_c, 1, 57, 0
4, 23736, Note_on_c, 1, 55, 75
4, 23759, Note_on_c, 1, 55, 0
4, 23760, Note_on_c, 1, 54, 75
4, 23783, Note_on_c, 1, 54, 0
4, 23784, Note_on_c, 1, 52, 75
4, 23807, Note_on_c, 1, 52, 0
4, 23808, Note_on_c, 1, 50, 75
4, 23853, Note_on_c, 1, 50, 0
4, 23856, Note_on_c, 1, 62, 75
4, 23856, Note_on_c, 1, 54, 75
4, 23901, Note_on_c, 1, 62, 0
4, 23901, Note_on_c, 1, 54, 0
4, 23904, Note_on_c, 1, 62, 75
4, 23904, Note_on_c, 1, 54, 75
4, 23949, Note_on_c, 1, 62, 0
4, 23949, Note_on_c, 1, 54, 0
4, 23952, Note_on_c, 1, 62, 75
4, 23952, Note_on_c, 1, 54, 75
4, 23997, Note_on_c, 1, 62, 0
4, 23997, Note_on_c, 1, 54, 0
4, 24048, Note_on_c, 1, 62, 75
4, 24048, Note_on_c, 1, 55, 75
4, 24093, Note_on_c, 1, 62, 0
4, 24093, Note_on_c, 1, 55, 0
4, 24096, Note_on_c, 1, 62, 75
4, 24096, Note_on_c, 1, 55, 75
4, 24141, Note_on_c, 1, 62, 0
4, 24141, Note_on_c, 1, 55, 0
4, 24144, Note_on_c, 1, 62, 75
4, 24144, Note_on_c, 1, 55, 75
4, 24189, Note_on_c, 1, 62, 0
4, 24189, Note_on_c, 1, 55, 0
4, 24240, Note_on_c, 1, 54, 75
4, 24285, Note_on_c, 1, 54, 0
4, 24288, Note_on_c, 1, 55, 75
4, 24333, Note_on_c, 1, 55, 0
4, 24336, Note_on_c, 1, 57, 75
4, 24381, Note_on_c, 1, 57, 0
4, 24384, Note_on_c, 1, 50, 75
4, 24429, Note_on_c, 1, 50, 0
4, 24432, Note_on_c, 1, 45, 75
4, 24477, Note_on_c, 1, 45, 0
4, 24480, Note_on_c, 1, 38, 75
4, 24569, Note_on_c, 1, 38, 0
4, 24576, Note_on_c, 1, 38, 4
4, 24665, Note_on_c, 1, 38, 0
4, 24672, End_track
5, 0, Start_track
5, 0, Program_c, 1, 0
5, 0, Control_c, 1, 7, 127
5, 0, Control_c, 1, 10, 64
5, 24576, End_track
6, 0, Start_track
6, 0, Title_t, "Sonata in D   Haydn  "
6, 0, End_track
0, 0, End_of_file
