0, 0, Header, 1, 6, 96
1, 0, Start_track
1, 0, Copyright_t, "Copyright  2000 <copyright holder>"
1, 0, Text_t, "Sonata I\015\012"
1, 0, Text_t, "Haydn\015\012"
1, 0, Sequencer_specific, 16, 68, 87, 77, 90, 86, 82, 83, 78, 32, 55, 46, 49, 46, 51, 46, 48
1, 0, Time_signature, 4, 2, 24, 8
1, 0, Tempo, 545454
1, 0, Key_signature, 0, "major"
1, 2112, Tempo, 1500000
1, 2304, Tempo, 545454
1, 22464, Tempo, 1500000
1, 22656, Tempo, 545454
1, 58032, Tempo, 555555
1, 58248, Tempo, 576923
1, 58464, Tempo, 600000
1, 58656, Tempo, 625000
1, 58752, Tempo, 923076
1, 58944, Tempo, 545454
1, 61248, Tempo, 1500000
1, 61440, Tempo, 545454
1, 95280, Tempo, 555555
1, 95496, Tempo, 576923
1, 95712, Tempo, 600000
1, 95904, Tempo, 625000
1, 96000, Tempo, 923076
1, 96192, Tempo, 545454
1, 98496, Tempo, 1500000
1, 98688, Tempo, 545454
1, 115200, End_track
2, 0, Start_track
2, 0, Program_c, 0, 0
2, 0, Control_c, 0, 7, 127
2, 0, Control_c, 0, 10, 64
2, 0, Note_on_c, 0, 72, 64
2, 20, Note_on_c, 0, 72, 0
2, 96, Note_on_c, 0, 67, 64
2, 116, Note_on_c, 0, 67, 0
2, 192, Note_on_c, 0, 64, 64
2, 212, Note_on_c, 0, 64, 0
2, 336, Note_on_c, 0, 69, 64
2, 356, Note_on_c, 0, 69, 0
2, 384, Note_on_c, 0, 62, 64
2, 404, Note_on_c, 0, 62, 0
2, 528, Note_on_c, 0, 67, 64
2, 548, Note_on_c, 0, 67, 0
2, 576, Note_on_c, 0, 60, 64
2, 596, Note_on_c, 0, 60, 0
2, 720, Note_on_c, 0, 76, 64
2, 768, Note_on_c, 0, 76, 0
2, 768, Note_on_c, 0, 65, 64
2, 788, Note_on_c, 0, 65, 0
2, 912, Note_on_c, 0, 74, 64
2, 960, Note_on_c, 0, 74, 0
2, 960, Note_on_c, 0, 64, 64
2, 980, Note_on_c, 0, 64, 0
2, 1104, Note_on_c, 0, 72, 64
2, 1149, Note_on_c, 0, 72, 0
2, 1152, Note_on_c, 0, 62, 64
2, 1200, Note_on_c, 0, 62, 0
2, 1200, Note_on_c, 0, 69, 64
2, 1245, Note_on_c, 0, 69, 0
2, 1248, Note_on_c, 0, 57, 64
2, 1296, Note_on_c, 0, 57, 0
2, 1296, Note_on_c, 0, 59, 64
2, 1341, Note_on_c, 0, 59, 0
2, 1344, Note_on_c, 0, 62, 64
2, 1392, Note_on_c, 0, 62, 0
2, 1392, Note_on_c, 0, 60, 64
2, 1437, Note_on_c, 0, 60, 0
2, 1488, Note_on_c, 0, 62, 64
2, 1488, Note_on_c, 0, 59, 64
2, 1508, Note_on_c, 0, 62, 0
2, 1508, Note_on_c, 0, 59, 0
2, 1536, Note_on_c, 0, 65, 64
2, 1536, Note_on_c, 0, 62, 64
2, 1584, Note_on_c, 0, 65, 0
2, 1584, Note_on_c, 0, 62, 0
2, 1584, Note_on_c, 0, 64, 64
2, 1584, Note_on_c, 0, 60, 64
2, 1629, Note_on_c, 0, 64, 0
2, 1629, Note_on_c, 0, 60, 0
2, 1680, Note_on_c, 0, 65, 64
2, 1680, Note_on_c, 0, 62, 64
2, 1700, Note_on_c, 0, 65, 0
2, 1700, Note_on_c, 0, 62, 0
2, 1728, Note_on_c, 0, 69, 64
2, 1728, Note_on_c, 0, 65, 64
2, 1776, Note_on_c, 0, 69, 0
2, 1776, Note_on_c, 0, 65, 0
2, 1776, Note_on_c, 0, 67, 64
2, 1776, Note_on_c, 0, 64, 64
2, 1821, Note_on_c, 0, 67, 0
2, 1821, Note_on_c, 0, 64, 0
2, 1872, Note_on_c, 0, 71, 68
2, 1872, Note_on_c, 0, 62, 68
2, 1892, Note_on_c, 0, 71, 0
2, 1892, Note_on_c, 0, 62, 0
2, 1920, Note_on_c, 0, 74, 70
2, 1920, Note_on_c, 0, 65, 70
2, 1968, Note_on_c, 0, 74, 0
2, 1968, Note_on_c, 0, 65, 0
2, 1968, Note_on_c, 0, 72, 73
2, 1968, Note_on_c, 0, 64, 73
2, 2013, Note_on_c, 0, 72, 0
2, 2013, Note_on_c, 0, 64, 0
2, 2064, Note_on_c, 0, 74, 77
2, 2064, Note_on_c, 0, 71, 77
2, 2084, Note_on_c, 0, 74, 0
2, 2084, Note_on_c, 0, 71, 0
2, 2112, Note_on_c, 0, 77, 98
2, 2112, Note_on_c, 0, 74, 98
2, 2208, Note_on_c, 0, 77, 0
2, 2208, Note_on_c, 0, 74, 0
2, 2208, Note_on_c, 0, 76, 64
2, 2208, Note_on_c, 0, 72, 64
2, 2223, Note_on_c, 0, 76, 0
2, 2223, Note_on_c, 0, 72, 0
2, 2304, Note_on_c, 0, 72, 80
2, 2310, Note_on_c, 0, 76, 80
2, 2316, Note_on_c, 0, 79, 80
2, 2322, Note_on_c, 0, 84, 80
2, 2349, Note_on_c, 0, 84, 0
2, 2349, Note_on_c, 0, 79, 0
2, 2349, Note_on_c, 0, 76, 0
2, 2349, Note_on_c, 0, 72, 0
2, 2400, Note_on_c, 0, 71, 80
2, 2408, Note_on_c, 0, 74, 80
2, 2416, Note_on_c, 0, 79, 80
2, 2445, Note_on_c, 0, 79, 0
2, 2445, Note_on_c, 0, 74, 0
2, 2445, Note_on_c, 0, 71, 0
2, 2496, Note_on_c, 0, 67, 80
2, 2504, Note_on_c, 0, 72, 80
2, 2512, Note_on_c, 0, 76, 80
2, 2541, Note_on_c, 0, 76, 0
2, 2541, Note_on_c, 0, 72, 0
2, 2541, Note_on_c, 0, 67, 0
2, 2640, Note_on_c, 0, 83, 75
2, 2652, Note_on_c, 0, 83, 0
2, 2652, Note_on_c, 0, 81, 75
2, 2664, Note_on_c, 0, 81, 0
2, 2664, Note_on_c, 0, 80, 75
2, 2676, Note_on_c, 0, 80, 0
2, 2676, Note_on_c, 0, 81, 75
2, 2688, Note_on_c, 0, 81, 0
2, 2688, Note_on_c, 0, 74, 75
2, 2708, Note_on_c, 0, 74, 0
2, 2832, Note_on_c, 0, 81, 75
2, 2844, Note_on_c, 0, 81, 0
2, 2844, Note_on_c, 0, 79, 75
2, 2856, Note_on_c, 0, 79, 0
2, 2856, Note_on_c, 0, 78, 75
2, 2868, Note_on_c, 0, 78, 0
2, 2868, Note_on_c, 0, 79, 75
2, 2880, Note_on_c, 0, 79, 0
2, 2880, Note_on_c, 0, 72, 75
2, 2900, Note_on_c, 0, 72, 0
2, 3024, Note_on_c, 0, 88, 75
2, 3072, Note_on_c, 0, 88, 0
2, 3072, Note_on_c, 0, 77, 75
2, 3092, Note_on_c, 0, 77, 0
2, 3216, Note_on_c, 0, 86, 75
2, 3264, Note_on_c, 0, 86, 0
2, 3264, Note_on_c, 0, 76, 75
2, 3284, Note_on_c, 0, 76, 0
2, 3408, Note_on_c, 0, 84, 75
2, 3456, Note_on_c, 0, 84, 0
2, 3456, Note_on_c, 0, 74, 75
2, 3476, Note_on_c, 0, 74, 0
2, 3504, Note_on_c, 0, 77, 75
2, 3549, Note_on_c, 0, 77, 0
2, 3552, Note_on_c, 0, 76, 75
2, 3597, Note_on_c, 0, 76, 0
2, 3648, Note_on_c, 0, 72, 75
2, 3668, Note_on_c, 0, 72, 0
2, 3696, Note_on_c, 0, 72, 75
2, 3716, Note_on_c, 0, 72, 0
2, 3792, Note_on_c, 0, 81, 80
2, 3804, Note_on_c, 0, 81, 0
2, 3804, Note_on_c, 0, 79, 80
2, 3816, Note_on_c, 0, 79, 0
2, 3816, Note_on_c, 0, 78, 80
2, 3828, Note_on_c, 0, 78, 0
2, 3828, Note_on_c, 0, 79, 80
2, 3840, Note_on_c, 0, 79, 0
2, 3840, Note_on_c, 0, 71, 80
2, 3860, Note_on_c, 0, 71, 0
2, 3888, Note_on_c, 0, 71, 80
2, 3908, Note_on_c, 0, 71, 0
2, 3984, Note_on_c, 0, 81, 80
2, 3996, Note_on_c, 0, 81, 0
2, 3996, Note_on_c, 0, 79, 80
2, 4008, Note_on_c, 0, 79, 0
2, 4008, Note_on_c, 0, 78, 80
2, 4020, Note_on_c, 0, 78, 0
2, 4020, Note_on_c, 0, 79, 80
2, 4032, Note_on_c, 0, 79, 0
2, 4032, Note_on_c, 0, 84, 80
2, 4080, Note_on_c, 0, 84, 0
2, 4080, Note_on_c, 0, 88, 80
2, 4125, Note_on_c, 0, 88, 0
2, 4152, Note_on_c, 0, 79, 70
2, 4175, Note_on_c, 0, 79, 0
2, 4176, Note_on_c, 0, 81, 70
2, 4188, Note_on_c, 0, 81, 0
2, 4188, Note_on_c, 0, 79, 70
2, 4200, Note_on_c, 0, 79, 0
2, 4200, Note_on_c, 0, 78, 70
2, 4212, Note_on_c, 0, 78, 0
2, 4212, Note_on_c, 0, 79, 70
2, 4224, Note_on_c, 0, 79, 0
2, 4224, Note_on_c, 0, 71, 70
2, 4244, Note_on_c, 0, 71, 0
2, 4272, Note_on_c, 0, 71, 70
2, 4292, Note_on_c, 0, 71, 0
2, 4344, Note_on_c, 0, 79, 70
2, 4367, Note_on_c, 0, 79, 0
2, 4368, Note_on_c, 0, 81, 70
2, 4380, Note_on_c, 0, 81, 0
2, 4380, Note_on_c, 0, 79, 70
2, 4392, Note_on_c, 0, 79, 0
2, 4392, Note_on_c, 0, 78, 70
2, 4404, Note_on_c, 0, 78, 0
2, 4404, Note_on_c, 0, 79, 70
2, 4416, Note_on_c, 0, 79, 0
2, 4416, Note_on_c, 0, 84, 70
2, 4464, Note_on_c, 0, 84, 0
2, 4464, Note_on_c, 0, 88, 70
2, 4509, Note_on_c, 0, 88, 0
2, 4536, Note_on_c, 0, 79, 80
2, 4559, Note_on_c, 0, 79, 0
2, 4560, Note_on_c, 0, 81, 80
2, 4572, Note_on_c, 0, 81, 0
2, 4572, Note_on_c, 0, 79, 80
2, 4584, Note_on_c, 0, 79, 0
2, 4584, Note_on_c, 0, 78, 80
2, 4596, Note_on_c, 0, 78, 0
2, 4596, Note_on_c, 0, 79, 80
2, 4608, Note_on_c, 0, 79, 0
2, 4608, Note_on_c, 0, 71, 80
2, 4628, Note_on_c, 0, 71, 0
2, 4656, Note_on_c, 0, 71, 80
2, 4676, Note_on_c, 0, 71, 0
2, 4752, Note_on_c, 0, 81, 80
2, 4764, Note_on_c, 0, 81, 0
2, 4764, Note_on_c, 0, 79, 80
2, 4776, Note_on_c, 0, 79, 0
2, 4776, Note_on_c, 0, 78, 80
2, 4788, Note_on_c, 0, 78, 0
2, 4788, Note_on_c, 0, 79, 80
2, 4800, Note_on_c, 0, 79, 0
2, 4800, Note_on_c, 0, 72, 80
2, 4820, Note_on_c, 0, 72, 0
2, 4848, Note_on_c, 0, 81, 80
2, 4860, Note_on_c, 0, 81, 0
2, 4860, Note_on_c, 0, 79, 80
2, 4872, Note_on_c, 0, 79, 0
2, 4872, Note_on_c, 0, 78, 80
2, 4884, Note_on_c, 0, 78, 0
2, 4884, Note_on_c, 0, 79, 80
2, 4896, Note_on_c, 0, 79, 0
2, 4896, Note_on_c, 0, 74, 80
2, 4916, Note_on_c, 0, 74, 0
2, 4944, Note_on_c, 0, 81, 80
2, 4956, Note_on_c, 0, 81, 0
2, 4956, Note_on_c, 0, 79, 80
2, 4968, Note_on_c, 0, 79, 0
2, 4968, Note_on_c, 0, 78, 80
2, 4980, Note_on_c, 0, 78, 0
2, 4980, Note_on_c, 0, 79, 80
2, 4992, Note_on_c, 0, 79, 0
2, 4992, Note_on_c, 0, 76, 80
2, 5012, Note_on_c, 0, 76, 0
2, 5040, Note_on_c, 0, 81, 80
2, 5052, Note_on_c, 0, 81, 0
2, 5052, Note_on_c, 0, 79, 80
2, 5064, Note_on_c, 0, 79, 0
2, 5064, Note_on_c, 0, 78, 80
2, 5076, Note_on_c, 0, 78, 0
2, 5076, Note_on_c, 0, 79, 80
2, 5088, Note_on_c, 0, 79, 0
2, 5088, Note_on_c, 0, 71, 80
2, 5108, Note_on_c, 0, 71, 0
2, 5136, Note_on_c, 0, 81, 80
2, 5148, Note_on_c, 0, 81, 0
2, 5148, Note_on_c, 0, 79, 80
2, 5160, Note_on_c, 0, 79, 0
2, 5160, Note_on_c, 0, 78, 80
2, 5172, Note_on_c, 0, 78, 0
2, 5172, Note_on_c, 0, 79, 80
2, 5184, Note_on_c, 0, 79, 0
2, 5184, Note_on_c, 0, 72, 75
2, 5204, Note_on_c, 0, 72, 0
2, 5232, Note_on_c, 0, 81, 76
2, 5244, Note_on_c, 0, 81, 0
2, 5244, Note_on_c, 0, 79, 76
2, 5256, Note_on_c, 0, 79, 0
2, 5256, Note_on_c, 0, 78, 76
2, 5268, Note_on_c, 0, 78, 0
2, 5268, Note_on_c, 0, 79, 76
2, 5280, Note_on_c, 0, 79, 0
2, 5280, Note_on_c, 0, 74, 77
2, 5300, Note_on_c, 0, 74, 0
2, 5328, Note_on_c, 0, 81, 78
2, 5340, Note_on_c, 0, 81, 0
2, 5340, Note_on_c, 0, 79, 78
2, 5352, Note_on_c, 0, 79, 0
2, 5352, Note_on_c, 0, 78, 78
2, 5364, Note_on_c, 0, 78, 0
2, 5364, Note_on_c, 0, 79, 78
2, 5376, Note_on_c, 0, 79, 0
2, 5376, Note_on_c, 0, 76, 79
2, 5396, Note_on_c, 0, 76, 0
2, 5496, Note_on_c, 0, 76, 80
2, 5519, Note_on_c, 0, 76, 0
2, 5520, Note_on_c, 0, 79, 80
2, 5543, Note_on_c, 0, 79, 0
2, 5544, Note_on_c, 0, 84, 80
2, 5567, Note_on_c, 0, 84, 0
2, 5568, Note_on_c, 0, 88, 114
2, 5640, Note_on_c, 0, 88, 0
2, 5640, Note_on_c, 0, 86, 80
2, 5640, Note_on_c, 0, 83, 80
2, 5663, Note_on_c, 0, 86, 0
2, 5663, Note_on_c, 0, 83, 0
2, 5664, Note_on_c, 0, 84, 79
2, 5664, Note_on_c, 0, 81, 79
2, 5687, Note_on_c, 0, 84, 0
2, 5687, Note_on_c, 0, 81, 0
2, 5688, Note_on_c, 0, 83, 78
2, 5688, Note_on_c, 0, 79, 78
2, 5711, Note_on_c, 0, 83, 0
2, 5711, Note_on_c, 0, 79, 0
2, 5712, Note_on_c, 0, 81, 77
2, 5712, Note_on_c, 0, 77, 77
2, 5735, Note_on_c, 0, 81, 0
2, 5735, Note_on_c, 0, 77, 0
2, 5736, Note_on_c, 0, 79, 76
2, 5736, Note_on_c, 0, 76, 76
2, 5759, Note_on_c, 0, 79, 0
2, 5759, Note_on_c, 0, 76, 0
2, 5760, Note_on_c, 0, 77, 75
2, 5760, Note_on_c, 0, 74, 75
2, 5893, Note_on_c, 0, 77, 0
2, 5893, Note_on_c, 0, 74, 0
2, 5904, Note_on_c, 0, 76, 70
2, 5904, Note_on_c, 0, 72, 70
2, 5949, Note_on_c, 0, 76, 0
2, 5949, Note_on_c, 0, 72, 0
2, 5952, Note_on_c, 0, 74, 70
2, 5952, Note_on_c, 0, 71, 70
2, 5972, Note_on_c, 0, 74, 0
2, 5972, Note_on_c, 0, 71, 0
2, 6024, Note_on_c, 0, 79, 70
2, 6024, Note_on_c, 0, 76, 70
2, 6047, Note_on_c, 0, 79, 0
2, 6047, Note_on_c, 0, 76, 0
2, 6048, Note_on_c, 0, 78, 70
2, 6048, Note_on_c, 0, 75, 70
2, 6071, Note_on_c, 0, 78, 0
2, 6071, Note_on_c, 0, 75, 0
2, 6072, Note_on_c, 0, 79, 71
2, 6072, Note_on_c, 0, 76, 71
2, 6095, Note_on_c, 0, 79, 0
2, 6095, Note_on_c, 0, 76, 0
2, 6096, Note_on_c, 0, 81, 72
2, 6096, Note_on_c, 0, 77, 72
2, 6119, Note_on_c, 0, 81, 0
2, 6119, Note_on_c, 0, 77, 0
2, 6120, Note_on_c, 0, 79, 72
2, 6120, Note_on_c, 0, 76, 72
2, 6143, Note_on_c, 0, 79, 0
2, 6143, Note_on_c, 0, 76, 0
2, 6144, Note_on_c, 0, 77, 73
2, 6144, Note_on_c, 0, 74, 73
2, 6164, Note_on_c, 0, 77, 0
2, 6164, Note_on_c, 0, 74, 0
2, 6216, Note_on_c, 0, 79, 75
2, 6216, Note_on_c, 0, 76, 75
2, 6240, Note_on_c, 0, 79, 0
2, 6240, Note_on_c, 0, 72, 75
2, 6260, Note_on_c, 0, 76, 0
2, 6260, Note_on_c, 0, 72, 0
2, 6312, Note_on_c, 0, 77, 75
2, 6312, Note_on_c, 0, 74, 75
2, 6336, Note_on_c, 0, 77, 0
2, 6336, Note_on_c, 0, 71, 75
2, 6356, Note_on_c, 0, 74, 0
2, 6356, Note_on_c, 0, 71, 0
2, 6408, Note_on_c, 0, 79, 75
2, 6408, Note_on_c, 0, 76, 75
2, 6418, Note_on_c, 0, 79, 0
2, 6418, Note_on_c, 0, 76, 0
2, 6432, Note_on_c, 0, 78, 75
2, 6432, Note_on_c, 0, 75, 75
2, 6455, Note_on_c, 0, 78, 0
2, 6455, Note_on_c, 0, 75, 0
2, 6456, Note_on_c, 0, 79, 75
2, 6456, Note_on_c, 0, 76, 75
2, 6479, Note_on_c, 0, 79, 0
2, 6479, Note_on_c, 0, 76, 0
2, 6480, Note_on_c, 0, 81, 75
2, 6480, Note_on_c, 0, 77, 75
2, 6503, Note_on_c, 0, 81, 0
2, 6503, Note_on_c, 0, 77, 0
2, 6504, Note_on_c, 0, 79, 75
2, 6504, Note_on_c, 0, 76, 75
2, 6527, Note_on_c, 0, 79, 0
2, 6527, Note_on_c, 0, 76, 0
2, 6528, Note_on_c, 0, 77, 75
2, 6528, Note_on_c, 0, 74, 75
2, 6548, Note_on_c, 0, 77, 0
2, 6548, Note_on_c, 0, 74, 0
2, 6600, Note_on_c, 0, 83, 75
2, 6600, Note_on_c, 0, 77, 75
2, 6624, Note_on_c, 0, 83, 0
2, 6624, Note_on_c, 0, 77, 0
2, 6624, Note_on_c, 0, 84, 75
2, 6624, Note_on_c, 0, 76, 75
2, 6644, Note_on_c, 0, 84, 0
2, 6644, Note_on_c, 0, 76, 0
2, 6696, Note_on_c, 0, 76, 75
2, 6696, Note_on_c, 0, 72, 75
2, 6720, Note_on_c, 0, 76, 0
2, 6720, Note_on_c, 0, 72, 0
2, 6720, Note_on_c, 0, 74, 75
2, 6720, Note_on_c, 0, 71, 75
2, 6740, Note_on_c, 0, 74, 0
2, 6740, Note_on_c, 0, 71, 0
2, 6792, Note_on_c, 0, 76, 75
2, 6792, Note_on_c, 0, 72, 75
2, 6802, Note_on_c, 0, 76, 0
2, 6802, Note_on_c, 0, 72, 0
2, 6816, Note_on_c, 0, 74, 75
2, 6816, Note_on_c, 0, 71, 75
2, 6839, Note_on_c, 0, 74, 0
2, 6839, Note_on_c, 0, 71, 0
2, 6840, Note_on_c, 0, 76, 75
2, 6840, Note_on_c, 0, 72, 75
2, 6863, Note_on_c, 0, 76, 0
2, 6863, Note_on_c, 0, 72, 0
2, 6864, Note_on_c, 0, 74, 75
2, 6864, Note_on_c, 0, 71, 75
2, 6887, Note_on_c, 0, 74, 0
2, 6887, Note_on_c, 0, 71, 0
2, 6888, Note_on_c, 0, 76, 75
2, 6888, Note_on_c, 0, 72, 75
2, 6911, Note_on_c, 0, 76, 0
2, 6911, Note_on_c, 0, 72, 0
2, 6912, Note_on_c, 0, 74, 75
2, 6912, Note_on_c, 0, 71, 75
2, 6932, Note_on_c, 0, 74, 0
2, 6932, Note_on_c, 0, 71, 0
2, 6984, Note_on_c, 0, 54, 64
2, 7007, Note_on_c, 0, 54, 0
2, 7008, Note_on_c, 0, 55, 64
2, 7031, Note_on_c, 0, 55, 0
2, 7032, Note_on_c, 0, 54, 64
2, 7055, Note_on_c, 0, 54, 0
2, 7056, Note_on_c, 0, 55, 64
2, 7079, Note_on_c, 0, 55, 0
2, 7080, Note_on_c, 0, 54, 64
2, 7103, Note_on_c, 0, 54, 0
2, 7104, Note_on_c, 0, 55, 64
2, 7149, Note_on_c, 0, 55, 0
2, 7320, Note_on_c, 0, 74, 80
2, 7330, Note_on_c, 0, 74, 0
2, 7344, Note_on_c, 0, 76, 80
2, 7354, Note_on_c, 0, 76, 0
2, 7368, Note_on_c, 0, 78, 80
2, 7378, Note_on_c, 0, 78, 0
2, 7392, Note_on_c, 0, 79, 80
2, 7402, Note_on_c, 0, 79, 0
2, 7416, Note_on_c, 0, 81, 80
2, 7426, Note_on_c, 0, 81, 0
2, 7440, Note_on_c, 0, 83, 80
2, 7450, Note_on_c, 0, 83, 0
2, 7464, Note_on_c, 0, 84, 80
2, 7474, Note_on_c, 0, 84, 0
2, 7488, Note_on_c, 0, 86, 80
2, 7498, Note_on_c, 0, 86, 0
2, 7512, Note_on_c, 0, 84, 80
2, 7522, Note_on_c, 0, 84, 0
2, 7536, Note_on_c, 0, 83, 80
2, 7546, Note_on_c, 0, 83, 0
2, 7560, Note_on_c, 0, 81, 80
2, 7570, Note_on_c, 0, 81, 0
2, 7584, Note_on_c, 0, 79, 80
2, 7607, Note_on_c, 0, 79, 0
2, 7608, Note_on_c, 0, 81, 80
2, 7631, Note_on_c, 0, 81, 0
2, 7632, Note_on_c, 0, 83, 80
2, 7655, Note_on_c, 0, 83, 0
2, 7656, Note_on_c, 0, 79, 80
2, 7679, Note_on_c, 0, 79, 0
2, 7680, Note_on_c, 0, 84, 80
2, 7690, Note_on_c, 0, 84, 0
2, 7704, Note_on_c, 0, 83, 80
2, 7714, Note_on_c, 0, 83, 0
2, 7728, Note_on_c, 0, 81, 80
2, 7738, Note_on_c, 0, 81, 0
2, 7752, Note_on_c, 0, 79, 80
2, 7762, Note_on_c, 0, 79, 0
2, 7776, Note_on_c, 0, 78, 80
2, 7786, Note_on_c, 0, 78, 0
2, 7800, Note_on_c, 0, 79, 80
2, 7810, Note_on_c, 0, 79, 0
2, 7824, Note_on_c, 0, 81, 80
2, 7834, Note_on_c, 0, 81, 0
2, 7848, Note_on_c, 0, 78, 80
2, 7858, Note_on_c, 0, 78, 0
2, 7872, Note_on_c, 0, 83, 80
2, 7882, Note_on_c, 0, 83, 0
2, 7896, Note_on_c, 0, 81, 80
2, 7919, Note_on_c, 0, 81, 0
2, 7920, Note_on_c, 0, 79, 80
2, 7943, Note_on_c, 0, 79, 0
2, 7944, Note_on_c, 0, 78, 80
2, 7967, Note_on_c, 0, 78, 0
2, 7968, Note_on_c, 0, 76, 80
2, 7978, Note_on_c, 0, 76, 0
2, 7992, Note_on_c, 0, 74, 80
2, 8002, Note_on_c, 0, 74, 0
2, 8016, Note_on_c, 0, 72, 80
2, 8026, Note_on_c, 0, 72, 0
2, 8040, Note_on_c, 0, 71, 80
2, 8050, Note_on_c, 0, 71, 0
2, 8064, Note_on_c, 0, 69, 80
2, 8074, Note_on_c, 0, 69, 0
2, 8088, Note_on_c, 0, 79, 80
2, 8111, Note_on_c, 0, 79, 0
2, 8112, Note_on_c, 0, 78, 80
2, 8135, Note_on_c, 0, 78, 0
2, 8136, Note_on_c, 0, 76, 80
2, 8159, Note_on_c, 0, 76, 0
2, 8160, Note_on_c, 0, 74, 80
2, 8183, Note_on_c, 0, 74, 0
2, 8184, Note_on_c, 0, 72, 80
2, 8207, Note_on_c, 0, 72, 0
2, 8208, Note_on_c, 0, 71, 80
2, 8231, Note_on_c, 0, 71, 0
2, 8232, Note_on_c, 0, 69, 80
2, 8255, Note_on_c, 0, 69, 0
2, 8256, Note_on_c, 0, 67, 80
2, 8266, Note_on_c, 0, 67, 0
2, 8280, Note_on_c, 0, 78, 80
2, 8303, Note_on_c, 0, 78, 0
2, 8304, Note_on_c, 0, 76, 80
2, 8327, Note_on_c, 0, 76, 0
2, 8328, Note_on_c, 0, 74, 80
2, 8351, Note_on_c, 0, 74, 0
2, 8352, Note_on_c, 0, 72, 80
2, 8375, Note_on_c, 0, 72, 0
2, 8376, Note_on_c, 0, 71, 80
2, 8399, Note_on_c, 0, 71, 0
2, 8400, Note_on_c, 0, 69, 80
2, 8423, Note_on_c, 0, 69, 0
2, 8424, Note_on_c, 0, 67, 80
2, 8447, Note_on_c, 0, 67, 0
2, 8448, Note_on_c, 0, 66, 80
2, 8471, Note_on_c, 0, 66, 0
2, 8472, Note_on_c, 0, 71, 80
2, 8495, Note_on_c, 0, 71, 0
2, 8496, Note_on_c, 0, 69, 80
2, 8519, Note_on_c, 0, 69, 0
2, 8520, Note_on_c, 0, 66, 81
2, 8543, Note_on_c, 0, 66, 0
2, 8544, Note_on_c, 0, 62, 81
2, 8567, Note_on_c, 0, 62, 0
2, 8568, Note_on_c, 0, 72, 81
2, 8591, Note_on_c, 0, 72, 0
2, 8592, Note_on_c, 0, 71, 82
2, 8615, Note_on_c, 0, 71, 0
2, 8616, Note_on_c, 0, 67, 82
2, 8639, Note_on_c, 0, 67, 0
2, 8640, Note_on_c, 0, 62, 82
2, 8663, Note_on_c, 0, 62, 0
2, 8664, Note_on_c, 0, 74, 83
2, 8687, Note_on_c, 0, 74, 0
2, 8688, Note_on_c, 0, 72, 83
2, 8711, Note_on_c, 0, 72, 0
2, 8712, Note_on_c, 0, 69, 83
2, 8735, Note_on_c, 0, 69, 0
2, 8736, Note_on_c, 0, 62, 84
2, 8759, Note_on_c, 0, 62, 0
2, 8760, Note_on_c, 0, 76, 84
2, 8783, Note_on_c, 0, 76, 0
2, 8784, Note_on_c, 0, 74, 84
2, 8807, Note_on_c, 0, 74, 0
2, 8808, Note_on_c, 0, 71, 85
2, 8831, Note_on_c, 0, 71, 0
2, 8832, Note_on_c, 0, 67, 85
2, 8855, Note_on_c, 0, 67, 0
2, 8856, Note_on_c, 0, 81, 86
2, 8879, Note_on_c, 0, 81, 0
2, 8880, Note_on_c, 0, 79, 86
2, 8903, Note_on_c, 0, 79, 0
2, 8904, Note_on_c, 0, 78, 86
2, 8927, Note_on_c, 0, 78, 0
2, 8928, Note_on_c, 0, 76, 86
2, 8951, Note_on_c, 0, 76, 0
2, 8952, Note_on_c, 0, 74, 85
2, 8975, Note_on_c, 0, 74, 0
2, 8976, Note_on_c, 0, 73, 85
2, 8999, Note_on_c, 0, 73, 0
2, 9000, Note_on_c, 0, 71, 84
2, 9023, Note_on_c, 0, 71, 0
2, 9024, Note_on_c, 0, 69, 84
2, 9047, Note_on_c, 0, 69, 0
2, 9048, Note_on_c, 0, 67, 83
2, 9071, Note_on_c, 0, 67, 0
2, 9072, Note_on_c, 0, 66, 83
2, 9095, Note_on_c, 0, 66, 0
2, 9096, Note_on_c, 0, 64, 82
2, 9119, Note_on_c, 0, 64, 0
2, 9120, Note_on_c, 0, 62, 82
2, 9143, Note_on_c, 0, 62, 0
2, 9144, Note_on_c, 0, 61, 81
2, 9167, Note_on_c, 0, 61, 0
2, 9168, Note_on_c, 0, 59, 81
2, 9191, Note_on_c, 0, 59, 0
2, 9192, Note_on_c, 0, 57, 80
2, 9215, Note_on_c, 0, 57, 0
2, 9216, Note_on_c, 0, 55, 80
2, 9393, Note_on_c, 0, 55, 0
2, 9408, Note_on_c, 0, 54, 80
2, 9431, Note_on_c, 0, 54, 0
2, 9432, Note_on_c, 0, 55, 80
2, 9455, Note_on_c, 0, 55, 0
2, 9456, Note_on_c, 0, 57, 80
2, 9479, Note_on_c, 0, 57, 0
2, 9480, Note_on_c, 0, 55, 80
2, 9503, Note_on_c, 0, 55, 0
2, 9504, Note_on_c, 0, 59, 80
2, 9527, Note_on_c, 0, 59, 0
2, 9528, Note_on_c, 0, 57, 80
2, 9551, Note_on_c, 0, 57, 0
2, 9552, Note_on_c, 0, 60, 80
2, 9575, Note_on_c, 0, 60, 0
2, 9576, Note_on_c, 0, 59, 80
2, 9599, Note_on_c, 0, 59, 0
2, 9600, Note_on_c, 0, 62, 80
2, 9623, Note_on_c, 0, 62, 0
2, 9624, Note_on_c, 0, 60, 80
2, 9647, Note_on_c, 0, 60, 0
2, 9648, Note_on_c, 0, 57, 80
2, 9671, Note_on_c, 0, 57, 0
2, 9672, Note_on_c, 0, 54, 80
2, 9696, Note_on_c, 0, 54, 0
2, 9696, Note_on_c, 0, 50, 80
2, 9719, Note_on_c, 0, 50, 0
2, 9720, Note_on_c, 0, 66, 80
2, 9744, Note_on_c, 0, 66, 0
2, 9744, Note_on_c, 0, 62, 80
2, 9767, Note_on_c, 0, 62, 0
2, 9768, Note_on_c, 0, 60, 80
2, 9792, Note_on_c, 0, 60, 0
2, 9792, Note_on_c, 0, 57, 80
2, 9815, Note_on_c, 0, 57, 0
2, 9816, Note_on_c, 0, 72, 80
2, 9840, Note_on_c, 0, 72, 0
2, 9840, Note_on_c, 0, 69, 80
2, 9863, Note_on_c, 0, 69, 0
2, 9864, Note_on_c, 0, 66, 80
2, 9888, Note_on_c, 0, 66, 0
2, 9888, Note_on_c, 0, 62, 80
2, 9911, Note_on_c, 0, 62, 0
2, 9912, Note_on_c, 0, 78, 80
2, 9936, Note_on_c, 0, 78, 0
2, 9936, Note_on_c, 0, 74, 80
2, 9959, Note_on_c, 0, 74, 0
2, 9960, Note_on_c, 0, 72, 80
2, 9984, Note_on_c, 0, 72, 0
2, 9984, Note_on_c, 0, 69, 80
2, 10007, Note_on_c, 0, 69, 0
2, 10008, Note_on_c, 0, 84, 80
2, 10032, Note_on_c, 0, 84, 0
2, 10032, Note_on_c, 0, 81, 80
2, 10055, Note_on_c, 0, 81, 0
2, 10056, Note_on_c, 0, 78, 80
2, 10080, Note_on_c, 0, 78, 0
2, 10080, Note_on_c, 0, 74, 80
2, 10103, Note_on_c, 0, 74, 0
2, 10104, Note_on_c, 0, 88, 80
2, 10127, Note_on_c, 0, 88, 0
2, 10128, Note_on_c, 0, 86, 80
2, 10151, Note_on_c, 0, 86, 0
2, 10152, Note_on_c, 0, 84, 80
2, 10175, Note_on_c, 0, 84, 0
2, 10176, Note_on_c, 0, 83, 80
2, 10199, Note_on_c, 0, 83, 0
2, 10200, Note_on_c, 0, 81, 80
2, 10223, Note_on_c, 0, 81, 0
2, 10224, Note_on_c, 0, 79, 80
2, 10247, Note_on_c, 0, 79, 0
2, 10248, Note_on_c, 0, 78, 80
2, 10271, Note_on_c, 0, 78, 0
2, 10272, Note_on_c, 0, 76, 80
2, 10295, Note_on_c, 0, 76, 0
2, 10296, Note_on_c, 0, 74, 80
2, 10319, Note_on_c, 0, 74, 0
2, 10320, Note_on_c, 0, 73, 80
2, 10343, Note_on_c, 0, 73, 0
2, 10344, Note_on_c, 0, 72, 80
2, 10367, Note_on_c, 0, 72, 0
2, 10368, Note_on_c, 0, 81, 80
2, 10413, Note_on_c, 0, 81, 0
2, 10488, Note_on_c, 0, 74, 80
2, 10511, Note_on_c, 0, 74, 0
2, 10512, Note_on_c, 0, 78, 79
2, 10535, Note_on_c, 0, 78, 0
2, 10536, Note_on_c, 0, 81, 78
2, 10559, Note_on_c, 0, 81, 0
2, 10560, Note_on_c, 0, 84, 77
2, 10583, Note_on_c, 0, 84, 0
2, 10584, Note_on_c, 0, 74, 76
2, 10607, Note_on_c, 0, 74, 0
2, 10608, Note_on_c, 0, 78, 75
2, 10631, Note_on_c, 0, 78, 0
2, 10632, Note_on_c, 0, 81, 74
2, 10655, Note_on_c, 0, 81, 0
2, 10656, Note_on_c, 0, 84, 74
2, 10679, Note_on_c, 0, 84, 0
2, 10680, Note_on_c, 0, 74, 73
2, 10703, Note_on_c, 0, 74, 0
2, 10704, Note_on_c, 0, 78, 72
2, 10727, Note_on_c, 0, 78, 0
2, 10728, Note_on_c, 0, 81, 71
2, 10751, Note_on_c, 0, 81, 0
2, 10752, Note_on_c, 0, 84, 70
2, 10752, Note_on_c, 0, 81, 70
2, 10944, Note_on_c, 0, 84, 0
2, 10944, Note_on_c, 0, 81, 0
2, 10944, Note_on_c, 0, 82, 64
2, 10944, Note_on_c, 0, 78, 64
2, 11131, Note_on_c, 0, 82, 0
2, 11131, Note_on_c, 0, 78, 0
2, 11136, Note_on_c, 0, 83, 80
2, 11136, Note_on_c, 0, 79, 80
2, 11156, Note_on_c, 0, 83, 0
2, 11156, Note_on_c, 0, 79, 0
2, 11232, Note_on_c, 0, 79, 80
2, 11232, Note_on_c, 0, 74, 80
2, 11252, Note_on_c, 0, 79, 0
2, 11252, Note_on_c, 0, 74, 0
2, 11328, Note_on_c, 0, 74, 80
2, 11328, Note_on_c, 0, 71, 80
2, 11348, Note_on_c, 0, 74, 0
2, 11348, Note_on_c, 0, 71, 0
2, 11472, Note_on_c, 0, 76, 80
2, 11520, Note_on_c, 0, 76, 0
2, 11520, Note_on_c, 0, 69, 80
2, 11540, Note_on_c, 0, 69, 0
2, 11664, Note_on_c, 0, 74, 80
2, 11712, Note_on_c, 0, 74, 0
2, 11712, Note_on_c, 0, 67, 80
2, 11732, Note_on_c, 0, 67, 0
2, 11856, Note_on_c, 0, 88, 80
2, 11856, Note_on_c, 0, 84, 80
2, 11904, Note_on_c, 0, 88, 0
2, 11904, Note_on_c, 0, 84, 0
2, 11904, Note_on_c, 0, 81, 80
2, 11904, Note_on_c, 0, 78, 80
2, 11924, Note_on_c, 0, 81, 0
2, 11924, Note_on_c, 0, 78, 0
2, 12048, Note_on_c, 0, 86, 80
2, 12048, Note_on_c, 0, 83, 80
2, 12096, Note_on_c, 0, 86, 0
2, 12096, Note_on_c, 0, 83, 0
2, 12096, Note_on_c, 0, 79, 80
2, 12096, Note_on_c, 0, 76, 80
2, 12116, Note_on_c, 0, 79, 0
2, 12116, Note_on_c, 0, 76, 0
2, 12240, Note_on_c, 0, 84, 80
2, 12285, Note_on_c, 0, 84, 0
2, 12288, Note_on_c, 0, 74, 80
2, 12311, Note_on_c, 0, 74, 0
2, 12312, Note_on_c, 0, 84, 80
2, 12335, Note_on_c, 0, 84, 0
2, 12336, Note_on_c, 0, 83, 80
2, 12359, Note_on_c, 0, 83, 0
2, 12360, Note_on_c, 0, 82, 80
2, 12383, Note_on_c, 0, 82, 0
2, 12384, Note_on_c, 0, 83, 80
2, 12407, Note_on_c, 0, 83, 0
2, 12408, Note_on_c, 0, 78, 80
2, 12431, Note_on_c, 0, 78, 0
2, 12432, Note_on_c, 0, 79, 80
2, 12455, Note_on_c, 0, 79, 0
2, 12456, Note_on_c, 0, 74, 80
2, 12479, Note_on_c, 0, 74, 0
2, 12480, Note_on_c, 0, 75, 80
2, 12503, Note_on_c, 0, 75, 0
2, 12504, Note_on_c, 0, 76, 80
2, 12527, Note_on_c, 0, 76, 0
2, 12528, Note_on_c, 0, 80, 80
2, 12551, Note_on_c, 0, 80, 0
2, 12552, Note_on_c, 0, 81, 80
2, 12575, Note_on_c, 0, 81, 0
2, 12576, Note_on_c, 0, 79, 80
2, 12596, Note_on_c, 0, 79, 0
2, 12624, Note_on_c, 0, 78, 96
2, 12644, Note_on_c, 0, 78, 0
2, 12696, Note_on_c, 0, 83, 75
2, 12696, Note_on_c, 0, 79, 75
2, 12720, Note_on_c, 0, 83, 0
2, 12720, Note_on_c, 0, 79, 0
2, 12720, Note_on_c, 0, 81, 75
2, 12720, Note_on_c, 0, 78, 75
2, 12730, Note_on_c, 0, 81, 0
2, 12730, Note_on_c, 0, 78, 0
2, 12744, Note_on_c, 0, 84, 76
2, 12744, Note_on_c, 0, 81, 76
2, 12768, Note_on_c, 0, 84, 0
2, 12768, Note_on_c, 0, 81, 0
2, 12768, Note_on_c, 0, 83, 77
2, 12768, Note_on_c, 0, 79, 77
2, 12778, Note_on_c, 0, 83, 0
2, 12778, Note_on_c, 0, 79, 0
2, 12792, Note_on_c, 0, 86, 77
2, 12792, Note_on_c, 0, 83, 77
2, 12816, Note_on_c, 0, 86, 0
2, 12816, Note_on_c, 0, 83, 0
2, 12816, Note_on_c, 0, 84, 78
2, 12816, Note_on_c, 0, 81, 78
2, 12826, Note_on_c, 0, 84, 0
2, 12826, Note_on_c, 0, 81, 0
2, 12840, Note_on_c, 0, 88, 79
2, 12840, Note_on_c, 0, 84, 79
2, 12864, Note_on_c, 0, 88, 0
2, 12864, Note_on_c, 0, 84, 0
2, 12864, Note_on_c, 0, 86, 96
2, 12864, Note_on_c, 0, 83, 96
2, 12884, Note_on_c, 0, 86, 0
2, 12884, Note_on_c, 0, 83, 0
2, 12936, Note_on_c, 0, 84, 74
2, 12936, Note_on_c, 0, 81, 74
2, 12960, Note_on_c, 0, 84, 0
2, 12960, Note_on_c, 0, 81, 0
2, 12960, Note_on_c, 0, 83, 72
2, 12960, Note_on_c, 0, 79, 72
2, 12980, Note_on_c, 0, 83, 0
2, 12980, Note_on_c, 0, 79, 0
2, 13032, Note_on_c, 0, 81, 66
2, 13032, Note_on_c, 0, 72, 66
2, 13056, Note_on_c, 0, 81, 0
2, 13056, Note_on_c, 0, 72, 0
2, 13056, Note_on_c, 0, 79, 64
2, 13056, Note_on_c, 0, 71, 64
2, 13066, Note_on_c, 0, 79, 0
2, 13066, Note_on_c, 0, 71, 0
2, 13080, Note_on_c, 0, 83, 66
2, 13080, Note_on_c, 0, 79, 66
2, 13104, Note_on_c, 0, 83, 0
2, 13104, Note_on_c, 0, 79, 0
2, 13104, Note_on_c, 0, 81, 68
2, 13104, Note_on_c, 0, 78, 68
2, 13114, Note_on_c, 0, 81, 0
2, 13114, Note_on_c, 0, 78, 0
2, 13128, Note_on_c, 0, 84, 70
2, 13128, Note_on_c, 0, 81, 70
2, 13152, Note_on_c, 0, 84, 0
2, 13152, Note_on_c, 0, 81, 0
2, 13152, Note_on_c, 0, 83, 72
2, 13152, Note_on_c, 0, 79, 72
2, 13162, Note_on_c, 0, 83, 0
2, 13162, Note_on_c, 0, 79, 0
2, 13176, Note_on_c, 0, 86, 74
2, 13176, Note_on_c, 0, 83, 74
2, 13200, Note_on_c, 0, 86, 0
2, 13200, Note_on_c, 0, 83, 0
2, 13200, Note_on_c, 0, 84, 76
2, 13200, Note_on_c, 0, 81, 76
2, 13210, Note_on_c, 0, 84, 0
2, 13210, Note_on_c, 0, 81, 0
2, 13224, Note_on_c, 0, 88, 78
2, 13224, Note_on_c, 0, 84, 78
2, 13248, Note_on_c, 0, 88, 0
2, 13248, Note_on_c, 0, 84, 0
2, 13248, Note_on_c, 0, 86, 96
2, 13248, Note_on_c, 0, 83, 96
2, 13268, Note_on_c, 0, 86, 0
2, 13268, Note_on_c, 0, 83, 0
2, 13320, Note_on_c, 0, 84, 74
2, 13320, Note_on_c, 0, 81, 74
2, 13344, Note_on_c, 0, 84, 0
2, 13344, Note_on_c, 0, 81, 0
2, 13344, Note_on_c, 0, 83, 72
2, 13344, Note_on_c, 0, 79, 72
2, 13364, Note_on_c, 0, 83, 0
2, 13364, Note_on_c, 0, 79, 0
2, 13416, Note_on_c, 0, 81, 66
2, 13416, Note_on_c, 0, 72, 66
2, 13440, Note_on_c, 0, 81, 0
2, 13440, Note_on_c, 0, 72, 0
2, 13440, Note_on_c, 0, 79, 64
2, 13440, Note_on_c, 0, 71, 64
2, 13450, Note_on_c, 0, 79, 0
2, 13450, Note_on_c, 0, 71, 0
2, 13464, Note_on_c, 0, 83, 66
2, 13464, Note_on_c, 0, 79, 66
2, 13488, Note_on_c, 0, 83, 0
2, 13488, Note_on_c, 0, 79, 0
2, 13488, Note_on_c, 0, 81, 68
2, 13488, Note_on_c, 0, 78, 68
2, 13498, Note_on_c, 0, 81, 0
2, 13498, Note_on_c, 0, 78, 0
2, 13512, Note_on_c, 0, 84, 70
2, 13512, Note_on_c, 0, 81, 70
2, 13536, Note_on_c, 0, 84, 0
2, 13536, Note_on_c, 0, 81, 0
2, 13536, Note_on_c, 0, 83, 72
2, 13536, Note_on_c, 0, 79, 72
2, 13546, Note_on_c, 0, 83, 0
2, 13546, Note_on_c, 0, 79, 0
2, 13560, Note_on_c, 0, 86, 74
2, 13560, Note_on_c, 0, 83, 74
2, 13584, Note_on_c, 0, 86, 0
2, 13584, Note_on_c, 0, 83, 0
2, 13584, Note_on_c, 0, 84, 76
2, 13584, Note_on_c, 0, 81, 76
2, 13594, Note_on_c, 0, 84, 0
2, 13594, Note_on_c, 0, 81, 0
2, 13608, Note_on_c, 0, 88, 78
2, 13608, Note_on_c, 0, 84, 78
2, 13632, Note_on_c, 0, 88, 0
2, 13632, Note_on_c, 0, 84, 0
2, 13632, Note_on_c, 0, 86, 96
2, 13632, Note_on_c, 0, 83, 96
2, 13652, Note_on_c, 0, 86, 0
2, 13652, Note_on_c, 0, 83, 0
2, 13704, Note_on_c, 0, 84, 74
2, 13704, Note_on_c, 0, 81, 74
2, 13728, Note_on_c, 0, 84, 0
2, 13728, Note_on_c, 0, 81, 0
2, 13728, Note_on_c, 0, 83, 72
2, 13728, Note_on_c, 0, 79, 72
2, 13748, Note_on_c, 0, 83, 0
2, 13748, Note_on_c, 0, 79, 0
2, 13800, Note_on_c, 0, 81, 66
2, 13800, Note_on_c, 0, 72, 66
2, 13824, Note_on_c, 0, 81, 0
2, 13824, Note_on_c, 0, 72, 0
2, 13824, Control_c, 0, 64, 127
2, 13824, Control_c, 0, 64, 127
2, 13824, Note_on_c, 0, 79, 70
2, 14016, Note_on_c, 0, 79, 0
2, 14016, Note_on_c, 0, 80, 86
2, 14297, Note_on_c, 0, 80, 0
2, 14304, Control_c, 0, 64, 0
2, 14304, Note_on_c, 0, 79, 70
2, 14393, Note_on_c, 0, 79, 0
2, 14400, Control_c, 0, 64, 0
2, 14400, Control_c, 0, 64, 127
2, 14400, Note_on_c, 0, 78, 88
2, 14577, Note_on_c, 0, 78, 0
2, 14592, Control_c, 0, 64, 0
2, 14592, Control_c, 0, 64, 127
2, 14592, Note_on_c, 0, 77, 70
2, 14784, Note_on_c, 0, 77, 0
2, 14784, Control_c, 0, 64, 0
2, 14784, Control_c, 0, 64, 127
2, 14784, Note_on_c, 0, 76, 70
2, 14961, Note_on_c, 0, 76, 0
2, 14976, Control_c, 0, 64, 0
2, 14976, Control_c, 0, 64, 127
2, 14976, Note_on_c, 0, 76, 70
2, 15153, Note_on_c, 0, 76, 0
2, 15168, Note_on_c, 0, 76, 88
2, 15345, Note_on_c, 0, 76, 0
2, 15360, Control_c, 0, 64, 0
2, 15360, Control_c, 0, 64, 127
2, 15360, Note_on_c, 0, 74, 70
2, 15744, Control_c, 0, 64, 0
2, 15789, Note_on_c, 0, 74, 0
2, 15792, Note_on_c, 0, 74, 80
2, 15800, Note_on_c, 0, 79, 80
2, 15808, Note_on_c, 0, 83, 80
2, 15837, Note_on_c, 0, 83, 0
2, 15837, Note_on_c, 0, 79, 0
2, 15837, Note_on_c, 0, 74, 0
2, 15840, Note_on_c, 0, 74, 80
2, 15848, Note_on_c, 0, 81, 80
2, 15856, Note_on_c, 0, 84, 80
2, 15885, Note_on_c, 0, 84, 0
2, 15885, Note_on_c, 0, 81, 0
2, 15885, Note_on_c, 0, 74, 0
2, 15888, Note_on_c, 0, 74, 80
2, 15896, Note_on_c, 0, 79, 80
2, 15904, Note_on_c, 0, 83, 80
2, 15933, Note_on_c, 0, 83, 0
2, 15933, Note_on_c, 0, 79, 0
2, 15933, Note_on_c, 0, 74, 0
2, 15936, Note_on_c, 0, 76, 80
2, 15944, Note_on_c, 0, 84, 80
2, 15952, Note_on_c, 0, 88, 80
2, 15981, Note_on_c, 0, 88, 0
2, 15981, Note_on_c, 0, 84, 0
2, 15981, Note_on_c, 0, 76, 0
2, 16032, Note_on_c, 0, 69, 64
2, 16066, Note_on_c, 0, 69, 0
2, 16068, Note_on_c, 0, 71, 64
2, 16080, Note_on_c, 0, 71, 0
2, 16080, Note_on_c, 0, 72, 64
2, 16114, Note_on_c, 0, 72, 0
2, 16116, Note_on_c, 0, 74, 64
2, 16128, Note_on_c, 0, 74, 0
2, 16128, Note_on_c, 0, 74, 64
2, 16128, Note_on_c, 0, 71, 64
2, 16173, Note_on_c, 0, 74, 0
2, 16173, Note_on_c, 0, 71, 0
2, 16176, Note_on_c, 0, 74, 80
2, 16184, Note_on_c, 0, 79, 80
2, 16192, Note_on_c, 0, 83, 80
2, 16221, Note_on_c, 0, 83, 0
2, 16221, Note_on_c, 0, 79, 0
2, 16221, Note_on_c, 0, 74, 0
2, 16224, Note_on_c, 0, 74, 80
2, 16232, Note_on_c, 0, 81, 80
2, 16240, Note_on_c, 0, 84, 80
2, 16269, Note_on_c, 0, 84, 0
2, 16269, Note_on_c, 0, 81, 0
2, 16269, Note_on_c, 0, 74, 0
2, 16272, Note_on_c, 0, 74, 80
2, 16280, Note_on_c, 0, 79, 80
2, 16288, Note_on_c, 0, 83, 80
2, 16317, Note_on_c, 0, 83, 0
2, 16317, Note_on_c, 0, 79, 0
2, 16317, Note_on_c, 0, 74, 0
2, 16320, Note_on_c, 0, 76, 80
2, 16328, Note_on_c, 0, 84, 80
2, 16336, Note_on_c, 0, 88, 80
2, 16365, Note_on_c, 0, 88, 0
2, 16365, Note_on_c, 0, 84, 0
2, 16365, Note_on_c, 0, 76, 0
2, 16416, Note_on_c, 0, 66, 80
2, 16431, Note_on_c, 0, 66, 0
2, 16432, Note_on_c, 0, 69, 80
2, 16447, Note_on_c, 0, 69, 0
2, 16448, Note_on_c, 0, 72, 80
2, 16463, Note_on_c, 0, 72, 0
2, 16464, Note_on_c, 0, 76, 80
2, 16479, Note_on_c, 0, 76, 0
2, 16480, Note_on_c, 0, 74, 80
2, 16495, Note_on_c, 0, 74, 0
2, 16496, Note_on_c, 0, 72, 80
2, 16511, Note_on_c, 0, 72, 0
2, 16512, Note_on_c, 0, 71, 80
2, 16532, Note_on_c, 0, 71, 0
2, 16560, Note_on_c, 0, 74, 80
2, 16575, Note_on_c, 0, 74, 0
2, 16576, Note_on_c, 0, 79, 80
2, 16591, Note_on_c, 0, 79, 0
2, 16592, Note_on_c, 0, 83, 80
2, 16607, Note_on_c, 0, 83, 0
2, 16608, Note_on_c, 0, 74, 80
2, 16623, Note_on_c, 0, 74, 0
2, 16624, Note_on_c, 0, 81, 80
2, 16639, Note_on_c, 0, 81, 0
2, 16640, Note_on_c, 0, 84, 80
2, 16655, Note_on_c, 0, 84, 0
2, 16656, Note_on_c, 0, 74, 80
2, 16671, Note_on_c, 0, 74, 0
2, 16672, Note_on_c, 0, 79, 80
2, 16687, Note_on_c, 0, 79, 0
2, 16688, Note_on_c, 0, 83, 80
2, 16703, Note_on_c, 0, 83, 0
2, 16704, Note_on_c, 0, 76, 80
2, 16719, Note_on_c, 0, 76, 0
2, 16720, Note_on_c, 0, 88, 80
2, 16735, Note_on_c, 0, 88, 0
2, 16736, Note_on_c, 0, 86, 80
2, 16751, Note_on_c, 0, 86, 0
2, 16752, Note_on_c, 0, 84, 80
2, 16767, Note_on_c, 0, 84, 0
2, 16768, Note_on_c, 0, 83, 80
2, 16783, Note_on_c, 0, 83, 0
2, 16784, Note_on_c, 0, 81, 80
2, 16799, Note_on_c, 0, 81, 0
2, 16800, Note_on_c, 0, 80, 80
2, 16815, Note_on_c, 0, 80, 0
2, 16816, Note_on_c, 0, 81, 80
2, 16831, Note_on_c, 0, 81, 0
2, 16832, Note_on_c, 0, 88, 80
2, 16847, Note_on_c, 0, 88, 0
2, 16848, Note_on_c, 0, 86, 80
2, 16863, Note_on_c, 0, 86, 0
2, 16864, Note_on_c, 0, 84, 80
2, 16879, Note_on_c, 0, 84, 0
2, 16880, Note_on_c, 0, 83, 80
2, 16895, Note_on_c, 0, 83, 0
2, 16896, Note_on_c, 0, 81, 80
2, 16911, Note_on_c, 0, 81, 0
2, 16912, Note_on_c, 0, 80, 79
2, 16927, Note_on_c, 0, 80, 0
2, 16928, Note_on_c, 0, 88, 79
2, 16943, Note_on_c, 0, 88, 0
2, 16944, Note_on_c, 0, 86, 78
2, 16959, Note_on_c, 0, 86, 0
2, 16960, Note_on_c, 0, 84, 78
2, 16975, Note_on_c, 0, 84, 0
2, 16976, Note_on_c, 0, 83, 77
2, 16991, Note_on_c, 0, 83, 0
2, 16992, Note_on_c, 0, 81, 77
2, 17007, Note_on_c, 0, 81, 0
2, 17008, Note_on_c, 0, 80, 76
2, 17023, Note_on_c, 0, 80, 0
2, 17024, Note_on_c, 0, 88, 76
2, 17039, Note_on_c, 0, 88, 0
2, 17040, Note_on_c, 0, 86, 75
2, 17055, Note_on_c, 0, 86, 0
2, 17056, Note_on_c, 0, 84, 75
2, 17071, Note_on_c, 0, 84, 0
2, 17072, Note_on_c, 0, 83, 74
2, 17087, Note_on_c, 0, 83, 0
2, 17088, Note_on_c, 0, 81, 74
2, 17103, Note_on_c, 0, 81, 0
2, 17104, Note_on_c, 0, 80, 73
2, 17119, Note_on_c, 0, 80, 0
2, 17120, Note_on_c, 0, 88, 73
2, 17135, Note_on_c, 0, 88, 0
2, 17136, Note_on_c, 0, 86, 72
2, 17151, Note_on_c, 0, 86, 0
2, 17152, Note_on_c, 0, 84, 72
2, 17167, Note_on_c, 0, 84, 0
2, 17168, Note_on_c, 0, 83, 71
2, 17183, Note_on_c, 0, 83, 0
2, 17184, Note_on_c, 0, 81, 71
2, 17199, Note_on_c, 0, 81, 0
2, 17200, Note_on_c, 0, 88, 70
2, 17215, Note_on_c, 0, 88, 0
2, 17216, Note_on_c, 0, 86, 70
2, 17231, Note_on_c, 0, 86, 0
2, 17232, Note_on_c, 0, 84, 69
2, 17247, Note_on_c, 0, 84, 0
2, 17248, Note_on_c, 0, 83, 69
2, 17263, Note_on_c, 0, 83, 0
2, 17264, Note_on_c, 0, 81, 68
2, 17279, Note_on_c, 0, 81, 0
2, 17280, Note_on_c, 0, 83, 64
2, 17295, Note_on_c, 0, 83, 0
2, 17296, Note_on_c, 0, 86, 64
2, 17311, Note_on_c, 0, 86, 0
2, 17312, Note_on_c, 0, 84, 65
2, 17327, Note_on_c, 0, 84, 0
2, 17328, Note_on_c, 0, 83, 66
2, 17343, Note_on_c, 0, 83, 0
2, 17344, Note_on_c, 0, 81, 67
2, 17359, Note_on_c, 0, 81, 0
2, 17360, Note_on_c, 0, 79, 68
2, 17375, Note_on_c, 0, 79, 0
2, 17376, Note_on_c, 0, 78, 69
2, 17391, Note_on_c, 0, 78, 0
2, 17392, Note_on_c, 0, 76, 70
2, 17407, Note_on_c, 0, 76, 0
2, 17408, Note_on_c, 0, 74, 71
2, 17423, Note_on_c, 0, 74, 0
2, 17424, Note_on_c, 0, 86, 72
2, 17439, Note_on_c, 0, 86, 0
2, 17440, Note_on_c, 0, 83, 73
2, 17455, Note_on_c, 0, 83, 0
2, 17456, Note_on_c, 0, 79, 74
2, 17471, Note_on_c, 0, 79, 0
2, 17472, Note_on_c, 0, 83, 75
2, 17484, Note_on_c, 0, 83, 0
2, 17484, Note_on_c, 0, 81, 80
2, 17496, Note_on_c, 0, 81, 0
2, 17496, Note_on_c, 0, 83, 80
2, 17508, Note_on_c, 0, 83, 0
2, 17508, Note_on_c, 0, 81, 80
2, 17520, Note_on_c, 0, 81, 0
2, 17520, Note_on_c, 0, 83, 80
2, 17532, Note_on_c, 0, 83, 0
2, 17532, Note_on_c, 0, 81, 80
2, 17544, Note_on_c, 0, 81, 0
2, 17544, Note_on_c, 0, 83, 80
2, 17556, Note_on_c, 0, 83, 0
2, 17556, Note_on_c, 0, 81, 80
2, 17568, Note_on_c, 0, 81, 0
2, 17568, Note_on_c, 0, 83, 80
2, 17580, Note_on_c, 0, 83, 0
2, 17580, Note_on_c, 0, 81, 80
2, 17592, Note_on_c, 0, 81, 0
2, 17592, Note_on_c, 0, 83, 80
2, 17604, Note_on_c, 0, 83, 0
2, 17604, Note_on_c, 0, 81, 80
2, 17616, Note_on_c, 0, 81, 0
2, 17616, Note_on_c, 0, 83, 80
2, 17628, Note_on_c, 0, 83, 0
2, 17628, Note_on_c, 0, 81, 80
2, 17640, Note_on_c, 0, 81, 0
2, 17640, Note_on_c, 0, 79, 80
2, 17652, Note_on_c, 0, 79, 0
2, 17652, Note_on_c, 0, 81, 80
2, 17664, Note_on_c, 0, 81, 0
2, 17664, Note_on_c, 0, 79, 96
2, 17684, Note_on_c, 0, 79, 0
2, 17712, Note_on_c, 0, 83, 80
2, 17732, Note_on_c, 0, 83, 0
2, 17808, Note_on_c, 0, 79, 80
2, 17828, Note_on_c, 0, 79, 0
2, 17904, Note_on_c, 0, 76, 80
2, 17916, Note_on_c, 0, 76, 0
2, 17916, Note_on_c, 0, 74, 80
2, 17949, Note_on_c, 0, 74, 0
2, 17952, Note_on_c, 0, 72, 80
2, 17964, Note_on_c, 0, 72, 0
2, 17964, Note_on_c, 0, 71, 80
2, 17997, Note_on_c, 0, 71, 0
2, 18000, Note_on_c, 0, 69, 80
2, 18012, Note_on_c, 0, 69, 0
2, 18012, Note_on_c, 0, 67, 80
2, 18045, Note_on_c, 0, 67, 0
2, 18048, Note_on_c, 0, 66, 80
2, 18167, Note_on_c, 0, 66, 0
2, 18168, Note_on_c, 0, 67, 80
2, 18178, Note_on_c, 0, 67, 0
2, 18192, Note_on_c, 0, 69, 80
2, 18202, Note_on_c, 0, 69, 0
2, 18216, Note_on_c, 0, 71, 80
2, 18226, Note_on_c, 0, 71, 0
2, 18240, Note_on_c, 0, 72, 80
2, 18250, Note_on_c, 0, 72, 0
2, 18264, Note_on_c, 0, 74, 80
2, 18274, Note_on_c, 0, 74, 0
2, 18288, Note_on_c, 0, 76, 80
2, 18298, Note_on_c, 0, 76, 0
2, 18312, Note_on_c, 0, 78, 80
2, 18322, Note_on_c, 0, 78, 0
2, 18336, Note_on_c, 0, 79, 80
2, 18346, Note_on_c, 0, 79, 0
2, 18360, Note_on_c, 0, 81, 80
2, 18370, Note_on_c, 0, 81, 0
2, 18384, Note_on_c, 0, 83, 80
2, 18394, Note_on_c, 0, 83, 0
2, 18408, Note_on_c, 0, 84, 80
2, 18418, Note_on_c, 0, 84, 0
2, 18432, Note_on_c, 0, 86, 80
2, 18452, Note_on_c, 0, 86, 0
2, 18480, Note_on_c, 0, 83, 80
2, 18500, Note_on_c, 0, 83, 0
2, 18576, Note_on_c, 0, 79, 75
2, 18596, Note_on_c, 0, 79, 0
2, 18672, Note_on_c, 0, 76, 75
2, 18684, Note_on_c, 0, 76, 0
2, 18684, Note_on_c, 0, 74, 75
2, 18717, Note_on_c, 0, 74, 0
2, 18720, Note_on_c, 0, 72, 75
2, 18732, Note_on_c, 0, 72, 0
2, 18732, Note_on_c, 0, 71, 75
2, 18765, Note_on_c, 0, 71, 0
2, 18768, Note_on_c, 0, 69, 75
2, 18780, Note_on_c, 0, 69, 0
2, 18780, Note_on_c, 0, 67, 75
2, 18813, Note_on_c, 0, 67, 0
2, 18816, Note_on_c, 0, 66, 75
2, 18935, Note_on_c, 0, 66, 0
2, 18936, Note_on_c, 0, 83, 75
2, 18959, Note_on_c, 0, 83, 0
2, 18960, Note_on_c, 0, 81, 75
2, 18983, Note_on_c, 0, 81, 0
2, 18984, Note_on_c, 0, 79, 75
2, 19007, Note_on_c, 0, 79, 0
2, 19008, Note_on_c, 0, 78, 75
2, 19031, Note_on_c, 0, 78, 0
2, 19032, Note_on_c, 0, 76, 75
2, 19055, Note_on_c, 0, 76, 0
2, 19056, Note_on_c, 0, 74, 75
2, 19079, Note_on_c, 0, 74, 0
2, 19080, Note_on_c, 0, 72, 75
2, 19103, Note_on_c, 0, 72, 0
2, 19104, Note_on_c, 0, 71, 75
2, 19127, Note_on_c, 0, 71, 0
2, 19128, Note_on_c, 0, 69, 75
2, 19151, Note_on_c, 0, 69, 0
2, 19152, Note_on_c, 0, 67, 75
2, 19175, Note_on_c, 0, 67, 0
2, 19176, Note_on_c, 0, 66, 75
2, 19199, Note_on_c, 0, 66, 0
2, 19200, Note_on_c, 0, 67, 75
2, 19220, Note_on_c, 0, 67, 0
2, 19248, Note_on_c, 0, 69, 64
2, 19293, Note_on_c, 0, 69, 0
2, 19296, Note_on_c, 0, 71, 64
2, 19341, Note_on_c, 0, 71, 0
2, 19344, Note_on_c, 0, 72, 64
2, 19389, Note_on_c, 0, 72, 0
2, 19392, Note_on_c, 0, 74, 64
2, 19437, Note_on_c, 0, 74, 0
2, 19440, Note_on_c, 0, 69, 80
2, 19485, Note_on_c, 0, 69, 0
2, 19488, Note_on_c, 0, 67, 80
2, 19533, Note_on_c, 0, 67, 0
2, 19536, Note_on_c, 0, 66, 80
2, 19581, Note_on_c, 0, 66, 0
2, 19584, Note_on_c, 0, 67, 80
2, 19631, Note_on_c, 0, 67, 0
2, 19632, Note_on_c, 0, 69, 64
2, 19677, Note_on_c, 0, 69, 0
2, 19680, Note_on_c, 0, 71, 64
2, 19725, Note_on_c, 0, 71, 0
2, 19728, Note_on_c, 0, 72, 64
2, 19773, Note_on_c, 0, 72, 0
2, 19776, Note_on_c, 0, 74, 64
2, 19821, Note_on_c, 0, 74, 0
2, 19824, Note_on_c, 0, 69, 80
2, 19869, Note_on_c, 0, 69, 0
2, 19872, Note_on_c, 0, 67, 80
2, 19917, Note_on_c, 0, 67, 0
2, 19920, Note_on_c, 0, 66, 80
2, 19965, Note_on_c, 0, 66, 0
2, 19968, Note_on_c, 0, 67, 80
2, 19988, Note_on_c, 0, 67, 0
2, 20064, Note_on_c, 0, 78, 80
2, 20064, Note_on_c, 0, 72, 80
2, 20064, Note_on_c, 0, 69, 80
2, 20109, Note_on_c, 0, 78, 0
2, 20109, Note_on_c, 0, 72, 0
2, 20109, Note_on_c, 0, 69, 0
2, 20160, Note_on_c, 0, 79, 80
2, 20160, Note_on_c, 0, 74, 80
2, 20160, Note_on_c, 0, 71, 80
2, 20205, Note_on_c, 0, 79, 0
2, 20205, Note_on_c, 0, 74, 0
2, 20205, Note_on_c, 0, 71, 0
2, 20352, Note_on_c, 0, 72, 64
2, 20372, Note_on_c, 0, 72, 0
2, 20448, Note_on_c, 0, 67, 64
2, 20468, Note_on_c, 0, 67, 0
2, 20544, Note_on_c, 0, 64, 64
2, 20564, Note_on_c, 0, 64, 0
2, 20688, Note_on_c, 0, 69, 64
2, 20708, Note_on_c, 0, 69, 0
2, 20736, Note_on_c, 0, 62, 64
2, 20756, Note_on_c, 0, 62, 0
2, 20880, Note_on_c, 0, 67, 64
2, 20900, Note_on_c, 0, 67, 0
2, 20928, Note_on_c, 0, 60, 64
2, 20948, Note_on_c, 0, 60, 0
2, 21072, Note_on_c, 0, 76, 64
2, 21120, Note_on_c, 0, 76, 0
2, 21120, Note_on_c, 0, 65, 64
2, 21140, Note_on_c, 0, 65, 0
2, 21264, Note_on_c, 0, 74, 64
2, 21312, Note_on_c, 0, 74, 0
2, 21312, Note_on_c, 0, 64, 64
2, 21332, Note_on_c, 0, 64, 0
2, 21456, Note_on_c, 0, 72, 64
2, 21501, Note_on_c, 0, 72, 0
2, 21504, Note_on_c, 0, 62, 64
2, 21552, Note_on_c, 0, 62, 0
2, 21552, Note_on_c, 0, 69, 64
2, 21597, Note_on_c, 0, 69, 0
2, 21600, Note_on_c, 0, 57, 64
2, 21648, Note_on_c, 0, 57, 0
2, 21648, Note_on_c, 0, 59, 64
2, 21693, Note_on_c, 0, 59, 0
2, 21696, Note_on_c, 0, 62, 64
2, 21744, Note_on_c, 0, 62, 0
2, 21744, Note_on_c, 0, 60, 64
2, 21789, Note_on_c, 0, 60, 0
2, 21840, Note_on_c, 0, 62, 64
2, 21840, Note_on_c, 0, 59, 64
2, 21860, Note_on_c, 0, 62, 0
2, 21860, Note_on_c, 0, 59, 0
2, 21888, Note_on_c, 0, 65, 64
2, 21888, Note_on_c, 0, 62, 64
2, 21936, Note_on_c, 0, 65, 0
2, 21936, Note_on_c, 0, 62, 0
2, 21936, Note_on_c, 0, 64, 64
2, 21936, Note_on_c, 0, 60, 64
2, 21981, Note_on_c, 0, 64, 0
2, 21981, Note_on_c, 0, 60, 0
2, 22032, Note_on_c, 0, 65, 64
2, 22032, Note_on_c, 0, 62, 64
2, 22052, Note_on_c, 0, 65, 0
2, 22052, Note_on_c, 0, 62, 0
2, 22080, Note_on_c, 0, 69, 64
2, 22080, Note_on_c, 0, 65, 64
2, 22128, Note_on_c, 0, 69, 0
2, 22128, Note_on_c, 0, 65, 0
2, 22128, Note_on_c, 0, 67, 64
2, 22128, Note_on_c, 0, 64, 64
2, 22173, Note_on_c, 0, 67, 0
2, 22173, Note_on_c, 0, 64, 0
2, 22224, Note_on_c, 0, 71, 68
2, 22224, Note_on_c, 0, 62, 68
2, 22244, Note_on_c, 0, 71, 0
2, 22244, Note_on_c, 0, 62, 0
2, 22272, Note_on_c, 0, 74, 70
2, 22272, Note_on_c, 0, 65, 70
2, 22320, Note_on_c, 0, 74, 0
2, 22320, Note_on_c, 0, 65, 0
2, 22320, Note_on_c, 0, 72, 73
2, 22320, Note_on_c, 0, 64, 73
2, 22365, Note_on_c, 0, 72, 0
2, 22365, Note_on_c, 0, 64, 0
2, 22416, Note_on_c, 0, 74, 77
2, 22416, Note_on_c, 0, 71, 77
2, 22436, Note_on_c, 0, 74, 0
2, 22436, Note_on_c, 0, 71, 0
2, 22464, Note_on_c, 0, 77, 98
2, 22464, Note_on_c, 0, 74, 98
2, 22560, Note_on_c, 0, 77, 0
2, 22560, Note_on_c, 0, 74, 0
2, 22560, Note_on_c, 0, 76, 64
2, 22560, Note_on_c, 0, 72, 64
2, 22575, Note_on_c, 0, 76, 0
2, 22575, Note_on_c, 0, 72, 0
2, 22656, Note_on_c, 0, 72, 80
2, 22662, Note_on_c, 0, 76, 80
2, 22668, Note_on_c, 0, 79, 80
2, 22674, Note_on_c, 0, 84, 80
2, 22701, Note_on_c, 0, 84, 0
2, 22701, Note_on_c, 0, 79, 0
2, 22701, Note_on_c, 0, 76, 0
2, 22701, Note_on_c, 0, 72, 0
2, 22752, Note_on_c, 0, 71, 80
2, 22760, Note_on_c, 0, 74, 80
2, 22768, Note_on_c, 0, 79, 80
2, 22797, Note_on_c, 0, 79, 0
2, 22797, Note_on_c, 0, 74, 0
2, 22797, Note_on_c, 0, 71, 0
2, 22848, Note_on_c, 0, 67, 80
2, 22856, Note_on_c, 0, 72, 80
2, 22864, Note_on_c, 0, 76, 80
2, 22893, Note_on_c, 0, 76, 0
2, 22893, Note_on_c, 0, 72, 0
2, 22893, Note_on_c, 0, 67, 0
2, 22992, Note_on_c, 0, 83, 75
2, 23004, Note_on_c, 0, 83, 0
2, 23004, Note_on_c, 0, 81, 75
2, 23016, Note_on_c, 0, 81, 0
2, 23016, Note_on_c, 0, 80, 75
2, 23028, Note_on_c, 0, 80, 0
2, 23028, Note_on_c, 0, 81, 75
2, 23040, Note_on_c, 0, 81, 0
2, 23040, Note_on_c, 0, 74, 75
2, 23060, Note_on_c, 0, 74, 0
2, 23184, Note_on_c, 0, 81, 75
2, 23196, Note_on_c, 0, 81, 0
2, 23196, Note_on_c, 0, 79, 75
2, 23208, Note_on_c, 0, 79, 0
2, 23208, Note_on_c, 0, 78, 75
2, 23220, Note_on_c, 0, 78, 0
2, 23220, Note_on_c, 0, 79, 75
2, 23232, Note_on_c, 0, 79, 0
2, 23232, Note_on_c, 0, 72, 75
2, 23252, Note_on_c, 0, 72, 0
2, 23376, Note_on_c, 0, 88, 75
2, 23424, Note_on_c, 0, 88, 0
2, 23424, Note_on_c, 0, 77, 75
2, 23444, Note_on_c, 0, 77, 0
2, 23568, Note_on_c, 0, 86, 75
2, 23616, Note_on_c, 0, 86, 0
2, 23616, Note_on_c, 0, 76, 75
2, 23636, Note_on_c, 0, 76, 0
2, 23760, Note_on_c, 0, 84, 75
2, 23808, Note_on_c, 0, 84, 0
2, 23808, Note_on_c, 0, 74, 75
2, 23828, Note_on_c, 0, 74, 0
2, 23856, Note_on_c, 0, 77, 75
2, 23901, Note_on_c, 0, 77, 0
2, 23904, Note_on_c, 0, 76, 75
2, 23949, Note_on_c, 0, 76, 0
2, 24000, Note_on_c, 0, 72, 75
2, 24020, Note_on_c, 0, 72, 0
2, 24048, Note_on_c, 0, 72, 75
2, 24068, Note_on_c, 0, 72, 0
2, 24144, Note_on_c, 0, 81, 80
2, 24156, Note_on_c, 0, 81, 0
2, 24156, Note_on_c, 0, 79, 80
2, 24168, Note_on_c, 0, 79, 0
2, 24168, Note_on_c, 0, 78, 80
2, 24180, Note_on_c, 0, 78, 0
2, 24180, Note_on_c, 0, 79, 80
2, 24192, Note_on_c, 0, 79, 0
2, 24192, Note_on_c, 0, 71, 80
2, 24212, Note_on_c, 0, 71, 0
2, 24240, Note_on_c, 0, 71, 80
2, 24260, Note_on_c, 0, 71, 0
2, 24336, Note_on_c, 0, 81, 80
2, 24348, Note_on_c, 0, 81, 0
2, 24348, Note_on_c, 0, 79, 80
2, 24360, Note_on_c, 0, 79, 0
2, 24360, Note_on_c, 0, 78, 80
2, 24372, Note_on_c, 0, 78, 0
2, 24372, Note_on_c, 0, 79, 80
2, 24384, Note_on_c, 0, 79, 0
2, 24384, Note_on_c, 0, 84, 80
2, 24432, Note_on_c, 0, 84, 0
2, 24432, Note_on_c, 0, 88, 80
2, 24477, Note_on_c, 0, 88, 0
2, 24504, Note_on_c, 0, 79, 70
2, 24527, Note_on_c, 0, 79, 0
2, 24528, Note_on_c, 0, 81, 70
2, 24540, Note_on_c, 0, 81, 0
2, 24540, Note_on_c, 0, 79, 70
2, 24552, Note_on_c, 0, 79, 0
2, 24552, Note_on_c, 0, 78, 70
2, 24564, Note_on_c, 0, 78, 0
2, 24564, Note_on_c, 0, 79, 70
2, 24576, Note_on_c, 0, 79, 0
2, 24576, Note_on_c, 0, 71, 70
2, 24596, Note_on_c, 0, 71, 0
2, 24624, Note_on_c, 0, 71, 70
2, 24644, Note_on_c, 0, 71, 0
2, 24696, Note_on_c, 0, 79, 70
2, 24719, Note_on_c, 0, 79, 0
2, 24720, Note_on_c, 0, 81, 70
2, 24732, Note_on_c, 0, 81, 0
2, 24732, Note_on_c, 0, 79, 70
2, 24744, Note_on_c, 0, 79, 0
2, 24744, Note_on_c, 0, 78, 70
2, 24756, Note_on_c, 0, 78, 0
2, 24756, Note_on_c, 0, 79, 70
2, 24768, Note_on_c, 0, 79, 0
2, 24768, Note_on_c, 0, 84, 70
2, 24816, Note_on_c, 0, 84, 0
2, 24816, Note_on_c, 0, 88, 70
2, 24861, Note_on_c, 0, 88, 0
2, 24888, Note_on_c, 0, 79, 80
2, 24911, Note_on_c, 0, 79, 0
2, 24912, Note_on_c, 0, 81, 80
2, 24924, Note_on_c, 0, 81, 0
2, 24924, Note_on_c, 0, 79, 80
2, 24936, Note_on_c, 0, 79, 0
2, 24936, Note_on_c, 0, 78, 80
2, 24948, Note_on_c, 0, 78, 0
2, 24948, Note_on_c, 0, 79, 80
2, 24960, Note_on_c, 0, 79, 0
2, 24960, Note_on_c, 0, 71, 80
2, 24980, Note_on_c, 0, 71, 0
2, 25008, Note_on_c, 0, 71, 80
2, 25028, Note_on_c, 0, 71, 0
2, 25104, Note_on_c, 0, 81, 80
2, 25116, Note_on_c, 0, 81, 0
2, 25116, Note_on_c, 0, 79, 80
2, 25128, Note_on_c, 0, 79, 0
2, 25128, Note_on_c, 0, 78, 80
2, 25140, Note_on_c, 0, 78, 0
2, 25140, Note_on_c, 0, 79, 80
2, 25152, Note_on_c, 0, 79, 0
2, 25152, Note_on_c, 0, 72, 80
2, 25172, Note_on_c, 0, 72, 0
2, 25200, Note_on_c, 0, 81, 80
2, 25212, Note_on_c, 0, 81, 0
2, 25212, Note_on_c, 0, 79, 80
2, 25224, Note_on_c, 0, 79, 0
2, 25224, Note_on_c, 0, 78, 80
2, 25236, Note_on_c, 0, 78, 0
2, 25236, Note_on_c, 0, 79, 80
2, 25248, Note_on_c, 0, 79, 0
2, 25248, Note_on_c, 0, 74, 80
2, 25268, Note_on_c, 0, 74, 0
2, 25296, Note_on_c, 0, 81, 80
2, 25308, Note_on_c, 0, 81, 0
2, 25308, Note_on_c, 0, 79, 80
2, 25320, Note_on_c, 0, 79, 0
2, 25320, Note_on_c, 0, 78, 80
2, 25332, Note_on_c, 0, 78, 0
2, 25332, Note_on_c, 0, 79, 80
2, 25344, Note_on_c, 0, 79, 0
2, 25344, Note_on_c, 0, 76, 80
2, 25364, Note_on_c, 0, 76, 0
2, 25392, Note_on_c, 0, 81, 80
2, 25404, Note_on_c, 0, 81, 0
2, 25404, Note_on_c, 0, 79, 80
2, 25416, Note_on_c, 0, 79, 0
2, 25416, Note_on_c, 0, 78, 80
2, 25428, Note_on_c, 0, 78, 0
2, 25428, Note_on_c, 0, 79, 80
2, 25440, Note_on_c, 0, 79, 0
2, 25440, Note_on_c, 0, 71, 80
2, 25460, Note_on_c, 0, 71, 0
2, 25488, Note_on_c, 0, 81, 80
2, 25500, Note_on_c, 0, 81, 0
2, 25500, Note_on_c, 0, 79, 80
2, 25512, Note_on_c, 0, 79, 0
2, 25512, Note_on_c, 0, 78, 80
2, 25524, Note_on_c, 0, 78, 0
2, 25524, Note_on_c, 0, 79, 80
2, 25536, Note_on_c, 0, 79, 0
2, 25536, Note_on_c, 0, 72, 75
2, 25556, Note_on_c, 0, 72, 0
2, 25584, Note_on_c, 0, 81, 76
2, 25596, Note_on_c, 0, 81, 0
2, 25596, Note_on_c, 0, 79, 76
2, 25608, Note_on_c, 0, 79, 0
2, 25608, Note_on_c, 0, 78, 76
2, 25620, Note_on_c, 0, 78, 0
2, 25620, Note_on_c, 0, 79, 76
2, 25632, Note_on_c, 0, 79, 0
2, 25632, Note_on_c, 0, 74, 77
2, 25652, Note_on_c, 0, 74, 0
2, 25680, Note_on_c, 0, 81, 78
2, 25692, Note_on_c, 0, 81, 0
2, 25692, Note_on_c, 0, 79, 78
2, 25704, Note_on_c, 0, 79, 0
2, 25704, Note_on_c, 0, 78, 78
2, 25716, Note_on_c, 0, 78, 0
2, 25716, Note_on_c, 0, 79, 78
2, 25728, Note_on_c, 0, 79, 0
2, 25728, Note_on_c, 0, 76, 79
2, 25748, Note_on_c, 0, 76, 0
2, 25848, Note_on_c, 0, 76, 80
2, 25871, Note_on_c, 0, 76, 0
2, 25872, Note_on_c, 0, 79, 80
2, 25895, Note_on_c, 0, 79, 0
2, 25896, Note_on_c, 0, 84, 80
2, 25919, Note_on_c, 0, 84, 0
2, 25920, Note_on_c, 0, 88, 114
2, 25992, Note_on_c, 0, 88, 0
2, 25992, Note_on_c, 0, 86, 80
2, 25992, Note_on_c, 0, 83, 80
2, 26015, Note_on_c, 0, 86, 0
2, 26015, Note_on_c, 0, 83, 0
2, 26016, Note_on_c, 0, 84, 79
2, 26016, Note_on_c, 0, 81, 79
2, 26039, Note_on_c, 0, 84, 0
2, 26039, Note_on_c, 0, 81, 0
2, 26040, Note_on_c, 0, 83, 78
2, 26040, Note_on_c, 0, 79, 78
2, 26063, Note_on_c, 0, 83, 0
2, 26063, Note_on_c, 0, 79, 0
2, 26064, Note_on_c, 0, 81, 77
2, 26064, Note_on_c, 0, 77, 77
2, 26087, Note_on_c, 0, 81, 0
2, 26087, Note_on_c, 0, 77, 0
2, 26088, Note_on_c, 0, 79, 76
2, 26088, Note_on_c, 0, 76, 76
2, 26111, Note_on_c, 0, 79, 0
2, 26111, Note_on_c, 0, 76, 0
2, 26112, Note_on_c, 0, 77, 75
2, 26112, Note_on_c, 0, 74, 75
2, 26245, Note_on_c, 0, 77, 0
2, 26245, Note_on_c, 0, 74, 0
2, 26256, Note_on_c, 0, 76, 70
2, 26256, Note_on_c, 0, 72, 70
2, 26301, Note_on_c, 0, 76, 0
2, 26301, Note_on_c, 0, 72, 0
2, 26304, Note_on_c, 0, 74, 70
2, 26304, Note_on_c, 0, 71, 70
2, 26324, Note_on_c, 0, 74, 0
2, 26324, Note_on_c, 0, 71, 0
2, 26376, Note_on_c, 0, 79, 70
2, 26376, Note_on_c, 0, 76, 70
2, 26399, Note_on_c, 0, 79, 0
2, 26399, Note_on_c, 0, 76, 0
2, 26400, Note_on_c, 0, 78, 70
2, 26400, Note_on_c, 0, 75, 70
2, 26423, Note_on_c, 0, 78, 0
2, 26423, Note_on_c, 0, 75, 0
2, 26424, Note_on_c, 0, 79, 71
2, 26424, Note_on_c, 0, 76, 71
2, 26447, Note_on_c, 0, 79, 0
2, 26447, Note_on_c, 0, 76, 0
2, 26448, Note_on_c, 0, 81, 72
2, 26448, Note_on_c, 0, 77, 72
2, 26471, Note_on_c, 0, 81, 0
2, 26471, Note_on_c, 0, 77, 0
2, 26472, Note_on_c, 0, 79, 72
2, 26472, Note_on_c, 0, 76, 72
2, 26495, Note_on_c, 0, 79, 0
2, 26495, Note_on_c, 0, 76, 0
2, 26496, Note_on_c, 0, 77, 73
2, 26496, Note_on_c, 0, 74, 73
2, 26516, Note_on_c, 0, 77, 0
2, 26516, Note_on_c, 0, 74, 0
2, 26568, Note_on_c, 0, 79, 75
2, 26568, Note_on_c, 0, 76, 75
2, 26592, Note_on_c, 0, 79, 0
2, 26592, Note_on_c, 0, 72, 75
2, 26612, Note_on_c, 0, 76, 0
2, 26612, Note_on_c, 0, 72, 0
2, 26664, Note_on_c, 0, 77, 75
2, 26664, Note_on_c, 0, 74, 75
2, 26688, Note_on_c, 0, 77, 0
2, 26688, Note_on_c, 0, 71, 75
2, 26708, Note_on_c, 0, 74, 0
2, 26708, Note_on_c, 0, 71, 0
2, 26760, Note_on_c, 0, 79, 75
2, 26760, Note_on_c, 0, 76, 75
2, 26770, Note_on_c, 0, 79, 0
2, 26770, Note_on_c, 0, 76, 0
2, 26784, Note_on_c, 0, 78, 75
2, 26784, Note_on_c, 0, 75, 75
2, 26807, Note_on_c, 0, 78, 0
2, 26807, Note_on_c, 0, 75, 0
2, 26808, Note_on_c, 0, 79, 75
2, 26808, Note_on_c, 0, 76, 75
2, 26831, Note_on_c, 0, 79, 0
2, 26831, Note_on_c, 0, 76, 0
2, 26832, Note_on_c, 0, 81, 75
2, 26832, Note_on_c, 0, 77, 75
2, 26855, Note_on_c, 0, 81, 0
2, 26855, Note_on_c, 0, 77, 0
2, 26856, Note_on_c, 0, 79, 75
2, 26856, Note_on_c, 0, 76, 75
2, 26879, Note_on_c, 0, 79, 0
2, 26879, Note_on_c, 0, 76, 0
2, 26880, Note_on_c, 0, 77, 75
2, 26880, Note_on_c, 0, 74, 75
2, 26900, Note_on_c, 0, 77, 0
2, 26900, Note_on_c, 0, 74, 0
2, 26952, Note_on_c, 0, 83, 75
2, 26952, Note_on_c, 0, 77, 75
2, 26976, Note_on_c, 0, 83, 0
2, 26976, Note_on_c, 0, 77, 0
2, 26976, Note_on_c, 0, 84, 75
2, 26976, Note_on_c, 0, 76, 75
2, 26996, Note_on_c, 0, 84, 0
2, 26996, Note_on_c, 0, 76, 0
2, 27048, Note_on_c, 0, 76, 75
2, 27048, Note_on_c, 0, 72, 75
2, 27072, Note_on_c, 0, 76, 0
2, 27072, Note_on_c, 0, 72, 0
2, 27072, Note_on_c, 0, 74, 75
2, 27072, Note_on_c, 0, 71, 75
2, 27092, Note_on_c, 0, 74, 0
2, 27092, Note_on_c, 0, 71, 0
2, 27144, Note_on_c, 0, 76, 75
2, 27144, Note_on_c, 0, 72, 75
2, 27154, Note_on_c, 0, 76, 0
2, 27154, Note_on_c, 0, 72, 0
2, 27168, Note_on_c, 0, 74, 75
2, 27168, Note_on_c, 0, 71, 75
2, 27191, Note_on_c, 0, 74, 0
2, 27191, Note_on_c, 0, 71, 0
2, 27192, Note_on_c, 0, 76, 75
2, 27192, Note_on_c, 0, 72, 75
2, 27215, Note_on_c, 0, 76, 0
2, 27215, Note_on_c, 0, 72, 0
2, 27216, Note_on_c, 0, 74, 75
2, 27216, Note_on_c, 0, 71, 75
2, 27239, Note_on_c, 0, 74, 0
2, 27239, Note_on_c, 0, 71, 0
2, 27240, Note_on_c, 0, 76, 75
2, 27240, Note_on_c, 0, 72, 75
2, 27263, Note_on_c, 0, 76, 0
2, 27263, Note_on_c, 0, 72, 0
2, 27264, Note_on_c, 0, 74, 75
2, 27264, Note_on_c, 0, 71, 75
2, 27284, Note_on_c, 0, 74, 0
2, 27284, Note_on_c, 0, 71, 0
2, 27336, Note_on_c, 0, 54, 64
2, 27359, Note_on_c, 0, 54, 0
2, 27360, Note_on_c, 0, 55, 64
2, 27383, Note_on_c, 0, 55, 0
2, 27384, Note_on_c, 0, 54, 64
2, 27407, Note_on_c, 0, 54, 0
2, 27408, Note_on_c, 0, 55, 64
2, 27431, Note_on_c, 0, 55, 0
2, 27432, Note_on_c, 0, 54, 64
2, 27455, Note_on_c, 0, 54, 0
2, 27456, Note_on_c, 0, 55, 64
2, 27501, Note_on_c, 0, 55, 0
2, 27672, Note_on_c, 0, 74, 80
2, 27682, Note_on_c, 0, 74, 0
2, 27696, Note_on_c, 0, 76, 80
2, 27706, Note_on_c, 0, 76, 0
2, 27720, Note_on_c, 0, 78, 80
2, 27730, Note_on_c, 0, 78, 0
2, 27744, Note_on_c, 0, 79, 80
2, 27754, Note_on_c, 0, 79, 0
2, 27768, Note_on_c, 0, 81, 80
2, 27778, Note_on_c, 0, 81, 0
2, 27792, Note_on_c, 0, 83, 80
2, 27802, Note_on_c, 0, 83, 0
2, 27816, Note_on_c, 0, 84, 80
2, 27826, Note_on_c, 0, 84, 0
2, 27840, Note_on_c, 0, 86, 80
2, 27850, Note_on_c, 0, 86, 0
2, 27864, Note_on_c, 0, 84, 80
2, 27874, Note_on_c, 0, 84, 0
2, 27888, Note_on_c, 0, 83, 80
2, 27898, Note_on_c, 0, 83, 0
2, 27912, Note_on_c, 0, 81, 80
2, 27922, Note_on_c, 0, 81, 0
2, 27936, Note_on_c, 0, 79, 80
2, 27959, Note_on_c, 0, 79, 0
2, 27960, Note_on_c, 0, 81, 80
2, 27983, Note_on_c, 0, 81, 0
2, 27984, Note_on_c, 0, 83, 80
2, 28007, Note_on_c, 0, 83, 0
2, 28008, Note_on_c, 0, 79, 80
2, 28031, Note_on_c, 0, 79, 0
2, 28032, Note_on_c, 0, 84, 80
2, 28042, Note_on_c, 0, 84, 0
2, 28056, Note_on_c, 0, 83, 80
2, 28066, Note_on_c, 0, 83, 0
2, 28080, Note_on_c, 0, 81, 80
2, 28090, Note_on_c, 0, 81, 0
2, 28104, Note_on_c, 0, 79, 80
2, 28114, Note_on_c, 0, 79, 0
2, 28128, Note_on_c, 0, 78, 80
2, 28138, Note_on_c, 0, 78, 0
2, 28152, Note_on_c, 0, 79, 80
2, 28162, Note_on_c, 0, 79, 0
2, 28176, Note_on_c, 0, 81, 80
2, 28186, Note_on_c, 0, 81, 0
2, 28200, Note_on_c, 0, 78, 80
2, 28210, Note_on_c, 0, 78, 0
2, 28224, Note_on_c, 0, 83, 80
2, 28234, Note_on_c, 0, 83, 0
2, 28248, Note_on_c, 0, 81, 80
2, 28271, Note_on_c, 0, 81, 0
2, 28272, Note_on_c, 0, 79, 80
2, 28295, Note_on_c, 0, 79, 0
2, 28296, Note_on_c, 0, 78, 80
2, 28319, Note_on_c, 0, 78, 0
2, 28320, Note_on_c, 0, 76, 80
2, 28330, Note_on_c, 0, 76, 0
2, 28344, Note_on_c, 0, 74, 80
2, 28354, Note_on_c, 0, 74, 0
2, 28368, Note_on_c, 0, 72, 80
2, 28378, Note_on_c, 0, 72, 0
2, 28392, Note_on_c, 0, 71, 80
2, 28402, Note_on_c, 0, 71, 0
2, 28416, Note_on_c, 0, 69, 80
2, 28426, Note_on_c, 0, 69, 0
2, 28440, Note_on_c, 0, 79, 80
2, 28463, Note_on_c, 0, 79, 0
2, 28464, Note_on_c, 0, 78, 80
2, 28487, Note_on_c, 0, 78, 0
2, 28488, Note_on_c, 0, 76, 80
2, 28511, Note_on_c, 0, 76, 0
2, 28512, Note_on_c, 0, 74, 80
2, 28535, Note_on_c, 0, 74, 0
2, 28536, Note_on_c, 0, 72, 80
2, 28559, Note_on_c, 0, 72, 0
2, 28560, Note_on_c, 0, 71, 80
2, 28583, Note_on_c, 0, 71, 0
2, 28584, Note_on_c, 0, 69, 80
2, 28607, Note_on_c, 0, 69, 0
2, 28608, Note_on_c, 0, 67, 80
2, 28618, Note_on_c, 0, 67, 0
2, 28632, Note_on_c, 0, 78, 80
2, 28655, Note_on_c, 0, 78, 0
2, 28656, Note_on_c, 0, 76, 80
2, 28679, Note_on_c, 0, 76, 0
2, 28680, Note_on_c, 0, 74, 80
2, 28703, Note_on_c, 0, 74, 0
2, 28704, Note_on_c, 0, 72, 80
2, 28727, Note_on_c, 0, 72, 0
2, 28728, Note_on_c, 0, 71, 80
2, 28751, Note_on_c, 0, 71, 0
2, 28752, Note_on_c, 0, 69, 80
2, 28775, Note_on_c, 0, 69, 0
2, 28776, Note_on_c, 0, 67, 80
2, 28799, Note_on_c, 0, 67, 0
2, 28800, Note_on_c, 0, 66, 80
2, 28823, Note_on_c, 0, 66, 0
2, 28824, Note_on_c, 0, 71, 80
2, 28847, Note_on_c, 0, 71, 0
2, 28848, Note_on_c, 0, 69, 80
2, 28871, Note_on_c, 0, 69, 0
2, 28872, Note_on_c, 0, 66, 81
2, 28895, Note_on_c, 0, 66, 0
2, 28896, Note_on_c, 0, 62, 81
2, 28919, Note_on_c, 0, 62, 0
2, 28920, Note_on_c, 0, 72, 81
2, 28943, Note_on_c, 0, 72, 0
2, 28944, Note_on_c, 0, 71, 82
2, 28967, Note_on_c, 0, 71, 0
2, 28968, Note_on_c, 0, 67, 82
2, 28991, Note_on_c, 0, 67, 0
2, 28992, Note_on_c, 0, 62, 82
2, 29015, Note_on_c, 0, 62, 0
2, 29016, Note_on_c, 0, 74, 83
2, 29039, Note_on_c, 0, 74, 0
2, 29040, Note_on_c, 0, 72, 83
2, 29063, Note_on_c, 0, 72, 0
2, 29064, Note_on_c, 0, 69, 83
2, 29087, Note_on_c, 0, 69, 0
2, 29088, Note_on_c, 0, 62, 84
2, 29111, Note_on_c, 0, 62, 0
2, 29112, Note_on_c, 0, 76, 84
2, 29135, Note_on_c, 0, 76, 0
2, 29136, Note_on_c, 0, 74, 84
2, 29159, Note_on_c, 0, 74, 0
2, 29160, Note_on_c, 0, 71, 85
2, 29183, Note_on_c, 0, 71, 0
2, 29184, Note_on_c, 0, 67, 85
2, 29207, Note_on_c, 0, 67, 0
2, 29208, Note_on_c, 0, 81, 86
2, 29231, Note_on_c, 0, 81, 0
2, 29232, Note_on_c, 0, 79, 86
2, 29255, Note_on_c, 0, 79, 0
2, 29256, Note_on_c, 0, 78, 86
2, 29279, Note_on_c, 0, 78, 0
2, 29280, Note_on_c, 0, 76, 86
2, 29303, Note_on_c, 0, 76, 0
2, 29304, Note_on_c, 0, 74, 85
2, 29327, Note_on_c, 0, 74, 0
2, 29328, Note_on_c, 0, 73, 85
2, 29351, Note_on_c, 0, 73, 0
2, 29352, Note_on_c, 0, 71, 84
2, 29375, Note_on_c, 0, 71, 0
2, 29376, Note_on_c, 0, 69, 84
2, 29399, Note_on_c, 0, 69, 0
2, 29400, Note_on_c, 0, 67, 83
2, 29423, Note_on_c, 0, 67, 0
2, 29424, Note_on_c, 0, 66, 83
2, 29447, Note_on_c, 0, 66, 0
2, 29448, Note_on_c, 0, 64, 82
2, 29471, Note_on_c, 0, 64, 0
2, 29472, Note_on_c, 0, 62, 82
2, 29495, Note_on_c, 0, 62, 0
2, 29496, Note_on_c, 0, 61, 81
2, 29519, Note_on_c, 0, 61, 0
2, 29520, Note_on_c, 0, 59, 81
2, 29543, Note_on_c, 0, 59, 0
2, 29544, Note_on_c, 0, 57, 80
2, 29567, Note_on_c, 0, 57, 0
2, 29568, Note_on_c, 0, 55, 80
2, 29745, Note_on_c, 0, 55, 0
2, 29760, Note_on_c, 0, 54, 80
2, 29783, Note_on_c, 0, 54, 0
2, 29784, Note_on_c, 0, 55, 80
2, 29807, Note_on_c, 0, 55, 0
2, 29808, Note_on_c, 0, 57, 80
2, 29831, Note_on_c, 0, 57, 0
2, 29832, Note_on_c, 0, 55, 80
2, 29855, Note_on_c, 0, 55, 0
2, 29856, Note_on_c, 0, 59, 80
2, 29879, Note_on_c, 0, 59, 0
2, 29880, Note_on_c, 0, 57, 80
2, 29903, Note_on_c, 0, 57, 0
2, 29904, Note_on_c, 0, 60, 80
2, 29927, Note_on_c, 0, 60, 0
2, 29928, Note_on_c, 0, 59, 80
2, 29951, Note_on_c, 0, 59, 0
2, 29952, Note_on_c, 0, 62, 80
2, 29975, Note_on_c, 0, 62, 0
2, 29976, Note_on_c, 0, 60, 80
2, 29999, Note_on_c, 0, 60, 0
2, 30000, Note_on_c, 0, 57, 80
2, 30023, Note_on_c, 0, 57, 0
2, 30024, Note_on_c, 0, 54, 80
2, 30048, Note_on_c, 0, 54, 0
2, 30048, Note_on_c, 0, 50, 80
2, 30071, Note_on_c, 0, 50, 0
2, 30072, Note_on_c, 0, 66, 80
2, 30096, Note_on_c, 0, 66, 0
2, 30096, Note_on_c, 0, 62, 80
2, 30119, Note_on_c, 0, 62, 0
2, 30120, Note_on_c, 0, 60, 80
2, 30144, Note_on_c, 0, 60, 0
2, 30144, Note_on_c, 0, 57, 80
2, 30167, Note_on_c, 0, 57, 0
2, 30168, Note_on_c, 0, 72, 80
2, 30192, Note_on_c, 0, 72, 0
2, 30192, Note_on_c, 0, 69, 80
2, 30215, Note_on_c, 0, 69, 0
2, 30216, Note_on_c, 0, 66, 80
2, 30240, Note_on_c, 0, 66, 0
2, 30240, Note_on_c, 0, 62, 80
2, 30263, Note_on_c, 0, 62, 0
2, 30264, Note_on_c, 0, 78, 80
2, 30288, Note_on_c, 0, 78, 0
2, 30288, Note_on_c, 0, 74, 80
2, 30311, Note_on_c, 0, 74, 0
2, 30312, Note_on_c, 0, 72, 80
2, 30336, Note_on_c, 0, 72, 0
2, 30336, Note_on_c, 0, 69, 80
2, 30359, Note_on_c, 0, 69, 0
2, 30360, Note_on_c, 0, 84, 80
2, 30384, Note_on_c, 0, 84, 0
2, 30384, Note_on_c, 0, 81, 80
2, 30407, Note_on_c, 0, 81, 0
2, 30408, Note_on_c, 0, 78, 80
2, 30432, Note_on_c, 0, 78, 0
2, 30432, Note_on_c, 0, 74, 80
2, 30455, Note_on_c, 0, 74, 0
2, 30456, Note_on_c, 0, 88, 80
2, 30479, Note_on_c, 0, 88, 0
2, 30480, Note_on_c, 0, 86, 80
2, 30503, Note_on_c, 0, 86, 0
2, 30504, Note_on_c, 0, 84, 80
2, 30527, Note_on_c, 0, 84, 0
2, 30528, Note_on_c, 0, 83, 80
2, 30551, Note_on_c, 0, 83, 0
2, 30552, Note_on_c, 0, 81, 80
2, 30575, Note_on_c, 0, 81, 0
2, 30576, Note_on_c, 0, 79, 80
2, 30599, Note_on_c, 0, 79, 0
2, 30600, Note_on_c, 0, 78, 80
2, 30623, Note_on_c, 0, 78, 0
2, 30624, Note_on_c, 0, 76, 80
2, 30647, Note_on_c, 0, 76, 0
2, 30648, Note_on_c, 0, 74, 80
2, 30671, Note_on_c, 0, 74, 0
2, 30672, Note_on_c, 0, 73, 80
2, 30695, Note_on_c, 0, 73, 0
2, 30696, Note_on_c, 0, 72, 80
2, 30719, Note_on_c, 0, 72, 0
2, 30720, Note_on_c, 0, 81, 80
2, 30765, Note_on_c, 0, 81, 0
2, 30840, Note_on_c, 0, 74, 80
2, 30863, Note_on_c, 0, 74, 0
2, 30864, Note_on_c, 0, 78, 79
2, 30887, Note_on_c, 0, 78, 0
2, 30888, Note_on_c, 0, 81, 78
2, 30911, Note_on_c, 0, 81, 0
2, 30912, Note_on_c, 0, 84, 77
2, 30935, Note_on_c, 0, 84, 0
2, 30936, Note_on_c, 0, 74, 76
2, 30959, Note_on_c, 0, 74, 0
2, 30960, Note_on_c, 0, 78, 75
2, 30983, Note_on_c, 0, 78, 0
2, 30984, Note_on_c, 0, 81, 74
2, 31007, Note_on_c, 0, 81, 0
2, 31008, Note_on_c, 0, 84, 74
2, 31031, Note_on_c, 0, 84, 0
2, 31032, Note_on_c, 0, 74, 73
2, 31055, Note_on_c, 0, 74, 0
2, 31056, Note_on_c, 0, 78, 72
2, 31079, Note_on_c, 0, 78, 0
2, 31080, Note_on_c, 0, 81, 71
2, 31103, Note_on_c, 0, 81, 0
2, 31104, Note_on_c, 0, 84, 70
2, 31104, Note_on_c, 0, 81, 70
2, 31296, Note_on_c, 0, 84, 0
2, 31296, Note_on_c, 0, 81, 0
2, 31296, Note_on_c, 0, 82, 64
2, 31296, Note_on_c, 0, 78, 64
2, 31483, Note_on_c, 0, 82, 0
2, 31483, Note_on_c, 0, 78, 0
2, 31488, Note_on_c, 0, 83, 80
2, 31488, Note_on_c, 0, 79, 80
2, 31508, Note_on_c, 0, 83, 0
2, 31508, Note_on_c, 0, 79, 0
2, 31584, Note_on_c, 0, 79, 80
2, 31584, Note_on_c, 0, 74, 80
2, 31604, Note_on_c, 0, 79, 0
2, 31604, Note_on_c, 0, 74, 0
2, 31680, Note_on_c, 0, 74, 80
2, 31680, Note_on_c, 0, 71, 80
2, 31700, Note_on_c, 0, 74, 0
2, 31700, Note_on_c, 0, 71, 0
2, 31824, Note_on_c, 0, 76, 80
2, 31872, Note_on_c, 0, 76, 0
2, 31872, Note_on_c, 0, 69, 80
2, 31892, Note_on_c, 0, 69, 0
2, 32016, Note_on_c, 0, 74, 80
2, 32064, Note_on_c, 0, 74, 0
2, 32064, Note_on_c, 0, 67, 80
2, 32084, Note_on_c, 0, 67, 0
2, 32208, Note_on_c, 0, 88, 80
2, 32208, Note_on_c, 0, 84, 80
2, 32256, Note_on_c, 0, 88, 0
2, 32256, Note_on_c, 0, 84, 0
2, 32256, Note_on_c, 0, 81, 80
2, 32256, Note_on_c, 0, 78, 80
2, 32276, Note_on_c, 0, 81, 0
2, 32276, Note_on_c, 0, 78, 0
2, 32400, Note_on_c, 0, 86, 80
2, 32400, Note_on_c, 0, 83, 80
2, 32448, Note_on_c, 0, 86, 0
2, 32448, Note_on_c, 0, 83, 0
2, 32448, Note_on_c, 0, 79, 80
2, 32448, Note_on_c, 0, 76, 80
2, 32468, Note_on_c, 0, 79, 0
2, 32468, Note_on_c, 0, 76, 0
2, 32592, Note_on_c, 0, 84, 80
2, 32637, Note_on_c, 0, 84, 0
2, 32640, Note_on_c, 0, 74, 80
2, 32663, Note_on_c, 0, 74, 0
2, 32664, Note_on_c, 0, 84, 80
2, 32687, Note_on_c, 0, 84, 0
2, 32688, Note_on_c, 0, 83, 80
2, 32711, Note_on_c, 0, 83, 0
2, 32712, Note_on_c, 0, 82, 80
2, 32735, Note_on_c, 0, 82, 0
2, 32736, Note_on_c, 0, 83, 80
2, 32759, Note_on_c, 0, 83, 0
2, 32760, Note_on_c, 0, 78, 80
2, 32783, Note_on_c, 0, 78, 0
2, 32784, Note_on_c, 0, 79, 80
2, 32807, Note_on_c, 0, 79, 0
2, 32808, Note_on_c, 0, 74, 80
2, 32831, Note_on_c, 0, 74, 0
2, 32832, Note_on_c, 0, 75, 80
2, 32855, Note_on_c, 0, 75, 0
2, 32856, Note_on_c, 0, 76, 80
2, 32879, Note_on_c, 0, 76, 0
2, 32880, Note_on_c, 0, 80, 80
2, 32903, Note_on_c, 0, 80, 0
2, 32904, Note_on_c, 0, 81, 80
2, 32927, Note_on_c, 0, 81, 0
2, 32928, Note_on_c, 0, 79, 80
2, 32948, Note_on_c, 0, 79, 0
2, 32976, Note_on_c, 0, 78, 96
2, 32996, Note_on_c, 0, 78, 0
2, 33048, Note_on_c, 0, 83, 75
2, 33048, Note_on_c, 0, 79, 75
2, 33072, Note_on_c, 0, 83, 0
2, 33072, Note_on_c, 0, 79, 0
2, 33072, Note_on_c, 0, 81, 75
2, 33072, Note_on_c, 0, 78, 75
2, 33082, Note_on_c, 0, 81, 0
2, 33082, Note_on_c, 0, 78, 0
2, 33096, Note_on_c, 0, 84, 76
2, 33096, Note_on_c, 0, 81, 76
2, 33120, Note_on_c, 0, 84, 0
2, 33120, Note_on_c, 0, 81, 0
2, 33120, Note_on_c, 0, 83, 77
2, 33120, Note_on_c, 0, 79, 77
2, 33130, Note_on_c, 0, 83, 0
2, 33130, Note_on_c, 0, 79, 0
2, 33144, Note_on_c, 0, 86, 77
2, 33144, Note_on_c, 0, 83, 77
2, 33168, Note_on_c, 0, 86, 0
2, 33168, Note_on_c, 0, 83, 0
2, 33168, Note_on_c, 0, 84, 78
2, 33168, Note_on_c, 0, 81, 78
2, 33178, Note_on_c, 0, 84, 0
2, 33178, Note_on_c, 0, 81, 0
2, 33192, Note_on_c, 0, 88, 79
2, 33192, Note_on_c, 0, 84, 79
2, 33216, Note_on_c, 0, 88, 0
2, 33216, Note_on_c, 0, 84, 0
2, 33216, Note_on_c, 0, 86, 96
2, 33216, Note_on_c, 0, 83, 96
2, 33236, Note_on_c, 0, 86, 0
2, 33236, Note_on_c, 0, 83, 0
2, 33288, Note_on_c, 0, 84, 74
2, 33288, Note_on_c, 0, 81, 74
2, 33312, Note_on_c, 0, 84, 0
2, 33312, Note_on_c, 0, 81, 0
2, 33312, Note_on_c, 0, 83, 72
2, 33312, Note_on_c, 0, 79, 72
2, 33332, Note_on_c, 0, 83, 0
2, 33332, Note_on_c, 0, 79, 0
2, 33384, Note_on_c, 0, 81, 66
2, 33384, Note_on_c, 0, 72, 66
2, 33408, Note_on_c, 0, 81, 0
2, 33408, Note_on_c, 0, 72, 0
2, 33408, Note_on_c, 0, 79, 64
2, 33408, Note_on_c, 0, 71, 64
2, 33418, Note_on_c, 0, 79, 0
2, 33418, Note_on_c, 0, 71, 0
2, 33432, Note_on_c, 0, 83, 66
2, 33432, Note_on_c, 0, 79, 66
2, 33456, Note_on_c, 0, 83, 0
2, 33456, Note_on_c, 0, 79, 0
2, 33456, Note_on_c, 0, 81, 68
2, 33456, Note_on_c, 0, 78, 68
2, 33466, Note_on_c, 0, 81, 0
2, 33466, Note_on_c, 0, 78, 0
2, 33480, Note_on_c, 0, 84, 70
2, 33480, Note_on_c, 0, 81, 70
2, 33504, Note_on_c, 0, 84, 0
2, 33504, Note_on_c, 0, 81, 0
2, 33504, Note_on_c, 0, 83, 72
2, 33504, Note_on_c, 0, 79, 72
2, 33514, Note_on_c, 0, 83, 0
2, 33514, Note_on_c, 0, 79, 0
2, 33528, Note_on_c, 0, 86, 74
2, 33528, Note_on_c, 0, 83, 74
2, 33552, Note_on_c, 0, 86, 0
2, 33552, Note_on_c, 0, 83, 0
2, 33552, Note_on_c, 0, 84, 76
2, 33552, Note_on_c, 0, 81, 76
2, 33562, Note_on_c, 0, 84, 0
2, 33562, Note_on_c, 0, 81, 0
2, 33576, Note_on_c, 0, 88, 78
2, 33576, Note_on_c, 0, 84, 78
2, 33600, Note_on_c, 0, 88, 0
2, 33600, Note_on_c, 0, 84, 0
2, 33600, Note_on_c, 0, 86, 96
2, 33600, Note_on_c, 0, 83, 96
2, 33620, Note_on_c, 0, 86, 0
2, 33620, Note_on_c, 0, 83, 0
2, 33672, Note_on_c, 0, 84, 74
2, 33672, Note_on_c, 0, 81, 74
2, 33696, Note_on_c, 0, 84, 0
2, 33696, Note_on_c, 0, 81, 0
2, 33696, Note_on_c, 0, 83, 72
2, 33696, Note_on_c, 0, 79, 72
2, 33716, Note_on_c, 0, 83, 0
2, 33716, Note_on_c, 0, 79, 0
2, 33768, Note_on_c, 0, 81, 66
2, 33768, Note_on_c, 0, 72, 66
2, 33792, Note_on_c, 0, 81, 0
2, 33792, Note_on_c, 0, 72, 0
2, 33792, Note_on_c, 0, 79, 64
2, 33792, Note_on_c, 0, 71, 64
2, 33802, Note_on_c, 0, 79, 0
2, 33802, Note_on_c, 0, 71, 0
2, 33816, Note_on_c, 0, 83, 66
2, 33816, Note_on_c, 0, 79, 66
2, 33840, Note_on_c, 0, 83, 0
2, 33840, Note_on_c, 0, 79, 0
2, 33840, Note_on_c, 0, 81, 68
2, 33840, Note_on_c, 0, 78, 68
2, 33850, Note_on_c, 0, 81, 0
2, 33850, Note_on_c, 0, 78, 0
2, 33864, Note_on_c, 0, 84, 70
2, 33864, Note_on_c, 0, 81, 70
2, 33888, Note_on_c, 0, 84, 0
2, 33888, Note_on_c, 0, 81, 0
2, 33888, Note_on_c, 0, 83, 72
2, 33888, Note_on_c, 0, 79, 72
2, 33898, Note_on_c, 0, 83, 0
2, 33898, Note_on_c, 0, 79, 0
2, 33912, Note_on_c, 0, 86, 74
2, 33912, Note_on_c, 0, 83, 74
2, 33936, Note_on_c, 0, 86, 0
2, 33936, Note_on_c, 0, 83, 0
2, 33936, Note_on_c, 0, 84, 76
2, 33936, Note_on_c, 0, 81, 76
2, 33946, Note_on_c, 0, 84, 0
2, 33946, Note_on_c, 0, 81, 0
2, 33960, Note_on_c, 0, 88, 78
2, 33960, Note_on_c, 0, 84, 78
2, 33984, Note_on_c, 0, 88, 0
2, 33984, Note_on_c, 0, 84, 0
2, 33984, Note_on_c, 0, 86, 96
2, 33984, Note_on_c, 0, 83, 96
2, 34004, Note_on_c, 0, 86, 0
2, 34004, Note_on_c, 0, 83, 0
2, 34056, Note_on_c, 0, 84, 74
2, 34056, Note_on_c, 0, 81, 74
2, 34080, Note_on_c, 0, 84, 0
2, 34080, Note_on_c, 0, 81, 0
2, 34080, Note_on_c, 0, 83, 72
2, 34080, Note_on_c, 0, 79, 72
2, 34100, Note_on_c, 0, 83, 0
2, 34100, Note_on_c, 0, 79, 0
2, 34152, Note_on_c, 0, 81, 66
2, 34152, Note_on_c, 0, 72, 66
2, 34176, Note_on_c, 0, 81, 0
2, 34176, Note_on_c, 0, 72, 0
2, 34176, Control_c, 0, 64, 127
2, 34176, Control_c, 0, 64, 127
2, 34176, Note_on_c, 0, 79, 70
2, 34368, Note_on_c, 0, 79, 0
2, 34368, Note_on_c, 0, 80, 86
2, 34649, Note_on_c, 0, 80, 0
2, 34656, Control_c, 0, 64, 0
2, 34656, Note_on_c, 0, 79, 70
2, 34745, Note_on_c, 0, 79, 0
2, 34752, Control_c, 0, 64, 0
2, 34752, Control_c, 0, 64, 127
2, 34752, Note_on_c, 0, 78, 88
2, 34929, Note_on_c, 0, 78, 0
2, 34944, Control_c, 0, 64, 0
2, 34944, Control_c, 0, 64, 127
2, 34944, Note_on_c, 0, 77, 70
2, 35136, Note_on_c, 0, 77, 0
2, 35136, Control_c, 0, 64, 0
2, 35136, Control_c, 0, 64, 127
2, 35136, Note_on_c, 0, 76, 70
2, 35313, Note_on_c, 0, 76, 0
2, 35328, Control_c, 0, 64, 0
2, 35328, Control_c, 0, 64, 127
2, 35328, Note_on_c, 0, 76, 70
2, 35505, Note_on_c, 0, 76, 0
2, 35520, Note_on_c, 0, 76, 88
2, 35697, Note_on_c, 0, 76, 0
2, 35712, Control_c, 0, 64, 0
2, 35712, Control_c, 0, 64, 127
2, 35712, Note_on_c, 0, 74, 70
2, 36096, Control_c, 0, 64, 0
2, 36141, Note_on_c, 0, 74, 0
2, 36144, Note_on_c, 0, 74, 80
2, 36152, Note_on_c, 0, 79, 80
2, 36160, Note_on_c, 0, 83, 80
2, 36189, Note_on_c, 0, 83, 0
2, 36189, Note_on_c, 0, 79, 0
2, 36189, Note_on_c, 0, 74, 0
2, 36192, Note_on_c, 0, 74, 80
2, 36200, Note_on_c, 0, 81, 80
2, 36208, Note_on_c, 0, 84, 80
2, 36237, Note_on_c, 0, 84, 0
2, 36237, Note_on_c, 0, 81, 0
2, 36237, Note_on_c, 0, 74, 0
2, 36240, Note_on_c, 0, 74, 80
2, 36248, Note_on_c, 0, 79, 80
2, 36256, Note_on_c, 0, 83, 80
2, 36285, Note_on_c, 0, 83, 0
2, 36285, Note_on_c, 0, 79, 0
2, 36285, Note_on_c, 0, 74, 0
2, 36288, Note_on_c, 0, 76, 80
2, 36296, Note_on_c, 0, 84, 80
2, 36304, Note_on_c, 0, 88, 80
2, 36333, Note_on_c, 0, 88, 0
2, 36333, Note_on_c, 0, 84, 0
2, 36333, Note_on_c, 0, 76, 0
2, 36384, Note_on_c, 0, 69, 64
2, 36418, Note_on_c, 0, 69, 0
2, 36420, Note_on_c, 0, 71, 64
2, 36432, Note_on_c, 0, 71, 0
2, 36432, Note_on_c, 0, 72, 64
2, 36466, Note_on_c, 0, 72, 0
2, 36468, Note_on_c, 0, 74, 64
2, 36480, Note_on_c, 0, 74, 0
2, 36480, Note_on_c, 0, 74, 64
2, 36480, Note_on_c, 0, 71, 64
2, 36525, Note_on_c, 0, 74, 0
2, 36525, Note_on_c, 0, 71, 0
2, 36528, Note_on_c, 0, 74, 80
2, 36536, Note_on_c, 0, 79, 80
2, 36544, Note_on_c, 0, 83, 80
2, 36573, Note_on_c, 0, 83, 0
2, 36573, Note_on_c, 0, 79, 0
2, 36573, Note_on_c, 0, 74, 0
2, 36576, Note_on_c, 0, 74, 80
2, 36584, Note_on_c, 0, 81, 80
2, 36592, Note_on_c, 0, 84, 80
2, 36621, Note_on_c, 0, 84, 0
2, 36621, Note_on_c, 0, 81, 0
2, 36621, Note_on_c, 0, 74, 0
2, 36624, Note_on_c, 0, 74, 80
2, 36632, Note_on_c, 0, 79, 80
2, 36640, Note_on_c, 0, 83, 80
2, 36669, Note_on_c, 0, 83, 0
2, 36669, Note_on_c, 0, 79, 0
2, 36669, Note_on_c, 0, 74, 0
2, 36672, Note_on_c, 0, 76, 80
2, 36680, Note_on_c, 0, 84, 80
2, 36688, Note_on_c, 0, 88, 80
2, 36717, Note_on_c, 0, 88, 0
2, 36717, Note_on_c, 0, 84, 0
2, 36717, Note_on_c, 0, 76, 0
2, 36768, Note_on_c, 0, 66, 80
2, 36783, Note_on_c, 0, 66, 0
2, 36784, Note_on_c, 0, 69, 80
2, 36799, Note_on_c, 0, 69, 0
2, 36800, Note_on_c, 0, 72, 80
2, 36815, Note_on_c, 0, 72, 0
2, 36816, Note_on_c, 0, 76, 80
2, 36831, Note_on_c, 0, 76, 0
2, 36832, Note_on_c, 0, 74, 80
2, 36847, Note_on_c, 0, 74, 0
2, 36848, Note_on_c, 0, 72, 80
2, 36863, Note_on_c, 0, 72, 0
2, 36864, Note_on_c, 0, 71, 80
2, 36884, Note_on_c, 0, 71, 0
2, 36912, Note_on_c, 0, 74, 80
2, 36927, Note_on_c, 0, 74, 0
2, 36928, Note_on_c, 0, 79, 80
2, 36943, Note_on_c, 0, 79, 0
2, 36944, Note_on_c, 0, 83, 80
2, 36959, Note_on_c, 0, 83, 0
2, 36960, Note_on_c, 0, 74, 80
2, 36975, Note_on_c, 0, 74, 0
2, 36976, Note_on_c, 0, 81, 80
2, 36991, Note_on_c, 0, 81, 0
2, 36992, Note_on_c, 0, 84, 80
2, 37007, Note_on_c, 0, 84, 0
2, 37008, Note_on_c, 0, 74, 80
2, 37023, Note_on_c, 0, 74, 0
2, 37024, Note_on_c, 0, 79, 80
2, 37039, Note_on_c, 0, 79, 0
2, 37040, Note_on_c, 0, 83, 80
2, 37055, Note_on_c, 0, 83, 0
2, 37056, Note_on_c, 0, 76, 80
2, 37071, Note_on_c, 0, 76, 0
2, 37072, Note_on_c, 0, 88, 80
2, 37087, Note_on_c, 0, 88, 0
2, 37088, Note_on_c, 0, 86, 80
2, 37103, Note_on_c, 0, 86, 0
2, 37104, Note_on_c, 0, 84, 80
2, 37119, Note_on_c, 0, 84, 0
2, 37120, Note_on_c, 0, 83, 80
2, 37135, Note_on_c, 0, 83, 0
2, 37136, Note_on_c, 0, 81, 80
2, 37151, Note_on_c, 0, 81, 0
2, 37152, Note_on_c, 0, 80, 80
2, 37167, Note_on_c, 0, 80, 0
2, 37168, Note_on_c, 0, 81, 80
2, 37183, Note_on_c, 0, 81, 0
2, 37184, Note_on_c, 0, 88, 80
2, 37199, Note_on_c, 0, 88, 0
2, 37200, Note_on_c, 0, 86, 80
2, 37215, Note_on_c, 0, 86, 0
2, 37216, Note_on_c, 0, 84, 80
2, 37231, Note_on_c, 0, 84, 0
2, 37232, Note_on_c, 0, 83, 80
2, 37247, Note_on_c, 0, 83, 0
2, 37248, Note_on_c, 0, 81, 80
2, 37263, Note_on_c, 0, 81, 0
2, 37264, Note_on_c, 0, 80, 79
2, 37279, Note_on_c, 0, 80, 0
2, 37280, Note_on_c, 0, 88, 79
2, 37295, Note_on_c, 0, 88, 0
2, 37296, Note_on_c, 0, 86, 78
2, 37311, Note_on_c, 0, 86, 0
2, 37312, Note_on_c, 0, 84, 78
2, 37327, Note_on_c, 0, 84, 0
2, 37328, Note_on_c, 0, 83, 77
2, 37343, Note_on_c, 0, 83, 0
2, 37344, Note_on_c, 0, 81, 77
2, 37359, Note_on_c, 0, 81, 0
2, 37360, Note_on_c, 0, 80, 76
2, 37375, Note_on_c, 0, 80, 0
2, 37376, Note_on_c, 0, 88, 76
2, 37391, Note_on_c, 0, 88, 0
2, 37392, Note_on_c, 0, 86, 75
2, 37407, Note_on_c, 0, 86, 0
2, 37408, Note_on_c, 0, 84, 75
2, 37423, Note_on_c, 0, 84, 0
2, 37424, Note_on_c, 0, 83, 74
2, 37439, Note_on_c, 0, 83, 0
2, 37440, Note_on_c, 0, 81, 74
2, 37455, Note_on_c, 0, 81, 0
2, 37456, Note_on_c, 0, 80, 73
2, 37471, Note_on_c, 0, 80, 0
2, 37472, Note_on_c, 0, 88, 73
2, 37487, Note_on_c, 0, 88, 0
2, 37488, Note_on_c, 0, 86, 72
2, 37503, Note_on_c, 0, 86, 0
2, 37504, Note_on_c, 0, 84, 72
2, 37519, Note_on_c, 0, 84, 0
2, 37520, Note_on_c, 0, 83, 71
2, 37535, Note_on_c, 0, 83, 0
2, 37536, Note_on_c, 0, 81, 71
2, 37551, Note_on_c, 0, 81, 0
2, 37552, Note_on_c, 0, 88, 70
2, 37567, Note_on_c, 0, 88, 0
2, 37568, Note_on_c, 0, 86, 70
2, 37583, Note_on_c, 0, 86, 0
2, 37584, Note_on_c, 0, 84, 69
2, 37599, Note_on_c, 0, 84, 0
2, 37600, Note_on_c, 0, 83, 69
2, 37615, Note_on_c, 0, 83, 0
2, 37616, Note_on_c, 0, 81, 68
2, 37631, Note_on_c, 0, 81, 0
2, 37632, Note_on_c, 0, 83, 64
2, 37647, Note_on_c, 0, 83, 0
2, 37648, Note_on_c, 0, 86, 64
2, 37663, Note_on_c, 0, 86, 0
2, 37664, Note_on_c, 0, 84, 65
2, 37679, Note_on_c, 0, 84, 0
2, 37680, Note_on_c, 0, 83, 66
2, 37695, Note_on_c, 0, 83, 0
2, 37696, Note_on_c, 0, 81, 67
2, 37711, Note_on_c, 0, 81, 0
2, 37712, Note_on_c, 0, 79, 68
2, 37727, Note_on_c, 0, 79, 0
2, 37728, Note_on_c, 0, 78, 69
2, 37743, Note_on_c, 0, 78, 0
2, 37744, Note_on_c, 0, 76, 70
2, 37759, Note_on_c, 0, 76, 0
2, 37760, Note_on_c, 0, 74, 71
2, 37775, Note_on_c, 0, 74, 0
2, 37776, Note_on_c, 0, 86, 72
2, 37791, Note_on_c, 0, 86, 0
2, 37792, Note_on_c, 0, 83, 73
2, 37807, Note_on_c, 0, 83, 0
2, 37808, Note_on_c, 0, 79, 74
2, 37823, Note_on_c, 0, 79, 0
2, 37824, Note_on_c, 0, 83, 75
2, 37836, Note_on_c, 0, 83, 0
2, 37836, Note_on_c, 0, 81, 80
2, 37848, Note_on_c, 0, 81, 0
2, 37848, Note_on_c, 0, 83, 80
2, 37860, Note_on_c, 0, 83, 0
2, 37860, Note_on_c, 0, 81, 80
2, 37872, Note_on_c, 0, 81, 0
2, 37872, Note_on_c, 0, 83, 80
2, 37884, Note_on_c, 0, 83, 0
2, 37884, Note_on_c, 0, 81, 80
2, 37896, Note_on_c, 0, 81, 0
2, 37896, Note_on_c, 0, 83, 80
2, 37908, Note_on_c, 0, 83, 0
2, 37908, Note_on_c, 0, 81, 80
2, 37920, Note_on_c, 0, 81, 0
2, 37920, Note_on_c, 0, 83, 80
2, 37932, Note_on_c, 0, 83, 0
2, 37932, Note_on_c, 0, 81, 80
2, 37944, Note_on_c, 0, 81, 0
2, 37944, Note_on_c, 0, 83, 80
2, 37956, Note_on_c, 0, 83, 0
2, 37956, Note_on_c, 0, 81, 80
2, 37968, Note_on_c, 0, 81, 0
2, 37968, Note_on_c, 0, 83, 80
2, 37980, Note_on_c, 0, 83, 0
2, 37980, Note_on_c, 0, 81, 80
2, 37992, Note_on_c, 0, 81, 0
2, 37992, Note_on_c, 0, 79, 80
2, 38004, Note_on_c, 0, 79, 0
2, 38004, Note_on_c, 0, 81, 80
2, 38016, Note_on_c, 0, 81, 0
2, 38016, Note_on_c, 0, 79, 96
2, 38036, Note_on_c, 0, 79, 0
2, 38064, Note_on_c, 0, 83, 80
2, 38084, Note_on_c, 0, 83, 0
2, 38160, Note_on_c, 0, 79, 80
2, 38180, Note_on_c, 0, 79, 0
2, 38256, Note_on_c, 0, 76, 80
2, 38268, Note_on_c, 0, 76, 0
2, 38268, Note_on_c, 0, 74, 80
2, 38301, Note_on_c, 0, 74, 0
2, 38304, Note_on_c, 0, 72, 80
2, 38316, Note_on_c, 0, 72, 0
2, 38316, Note_on_c, 0, 71, 80
2, 38349, Note_on_c, 0, 71, 0
2, 38352, Note_on_c, 0, 69, 80
2, 38364, Note_on_c, 0, 69, 0
2, 38364, Note_on_c, 0, 67, 80
2, 38397, Note_on_c, 0, 67, 0
2, 38400, Note_on_c, 0, 66, 80
2, 38519, Note_on_c, 0, 66, 0
2, 38520, Note_on_c, 0, 67, 80
2, 38530, Note_on_c, 0, 67, 0
2, 38544, Note_on_c, 0, 69, 80
2, 38554, Note_on_c, 0, 69, 0
2, 38568, Note_on_c, 0, 71, 80
2, 38578, Note_on_c, 0, 71, 0
2, 38592, Note_on_c, 0, 72, 80
2, 38602, Note_on_c, 0, 72, 0
2, 38616, Note_on_c, 0, 74, 80
2, 38626, Note_on_c, 0, 74, 0
2, 38640, Note_on_c, 0, 76, 80
2, 38650, Note_on_c, 0, 76, 0
2, 38664, Note_on_c, 0, 78, 80
2, 38674, Note_on_c, 0, 78, 0
2, 38688, Note_on_c, 0, 79, 80
2, 38698, Note_on_c, 0, 79, 0
2, 38712, Note_on_c, 0, 81, 80
2, 38722, Note_on_c, 0, 81, 0
2, 38736, Note_on_c, 0, 83, 80
2, 38746, Note_on_c, 0, 83, 0
2, 38760, Note_on_c, 0, 84, 80
2, 38770, Note_on_c, 0, 84, 0
2, 38784, Note_on_c, 0, 86, 80
2, 38804, Note_on_c, 0, 86, 0
2, 38832, Note_on_c, 0, 83, 80
2, 38852, Note_on_c, 0, 83, 0
2, 38928, Note_on_c, 0, 79, 75
2, 38948, Note_on_c, 0, 79, 0
2, 39024, Note_on_c, 0, 76, 75
2, 39036, Note_on_c, 0, 76, 0
2, 39036, Note_on_c, 0, 74, 75
2, 39069, Note_on_c, 0, 74, 0
2, 39072, Note_on_c, 0, 72, 75
2, 39084, Note_on_c, 0, 72, 0
2, 39084, Note_on_c, 0, 71, 75
2, 39117, Note_on_c, 0, 71, 0
2, 39120, Note_on_c, 0, 69, 75
2, 39132, Note_on_c, 0, 69, 0
2, 39132, Note_on_c, 0, 67, 75
2, 39165, Note_on_c, 0, 67, 0
2, 39168, Note_on_c, 0, 66, 75
2, 39287, Note_on_c, 0, 66, 0
2, 39288, Note_on_c, 0, 83, 75
2, 39311, Note_on_c, 0, 83, 0
2, 39312, Note_on_c, 0, 81, 75
2, 39335, Note_on_c, 0, 81, 0
2, 39336, Note_on_c, 0, 79, 75
2, 39359, Note_on_c, 0, 79, 0
2, 39360, Note_on_c, 0, 78, 75
2, 39383, Note_on_c, 0, 78, 0
2, 39384, Note_on_c, 0, 76, 75
2, 39407, Note_on_c, 0, 76, 0
2, 39408, Note_on_c, 0, 74, 75
2, 39431, Note_on_c, 0, 74, 0
2, 39432, Note_on_c, 0, 72, 75
2, 39455, Note_on_c, 0, 72, 0
2, 39456, Note_on_c, 0, 71, 75
2, 39479, Note_on_c, 0, 71, 0
2, 39480, Note_on_c, 0, 69, 75
2, 39503, Note_on_c, 0, 69, 0
2, 39504, Note_on_c, 0, 67, 75
2, 39527, Note_on_c, 0, 67, 0
2, 39528, Note_on_c, 0, 66, 75
2, 39551, Note_on_c, 0, 66, 0
2, 39552, Note_on_c, 0, 67, 75
2, 39572, Note_on_c, 0, 67, 0
2, 39600, Note_on_c, 0, 69, 64
2, 39645, Note_on_c, 0, 69, 0
2, 39648, Note_on_c, 0, 71, 64
2, 39693, Note_on_c, 0, 71, 0
2, 39696, Note_on_c, 0, 72, 64
2, 39741, Note_on_c, 0, 72, 0
2, 39744, Note_on_c, 0, 74, 64
2, 39789, Note_on_c, 0, 74, 0
2, 39792, Note_on_c, 0, 69, 80
2, 39837, Note_on_c, 0, 69, 0
2, 39840, Note_on_c, 0, 67, 80
2, 39885, Note_on_c, 0, 67, 0
2, 39888, Note_on_c, 0, 66, 80
2, 39933, Note_on_c, 0, 66, 0
2, 39936, Note_on_c, 0, 67, 80
2, 39983, Note_on_c, 0, 67, 0
2, 39984, Note_on_c, 0, 69, 64
2, 40029, Note_on_c, 0, 69, 0
2, 40032, Note_on_c, 0, 71, 64
2, 40077, Note_on_c, 0, 71, 0
2, 40080, Note_on_c, 0, 72, 64
2, 40125, Note_on_c, 0, 72, 0
2, 40128, Note_on_c, 0, 74, 64
2, 40173, Note_on_c, 0, 74, 0
2, 40176, Note_on_c, 0, 69, 80
2, 40221, Note_on_c, 0, 69, 0
2, 40224, Note_on_c, 0, 67, 80
2, 40269, Note_on_c, 0, 67, 0
2, 40272, Note_on_c, 0, 66, 80
2, 40317, Note_on_c, 0, 66, 0
2, 40320, Note_on_c, 0, 67, 80
2, 40340, Note_on_c, 0, 67, 0
2, 40416, Note_on_c, 0, 78, 80
2, 40416, Note_on_c, 0, 72, 80
2, 40416, Note_on_c, 0, 69, 80
2, 40461, Note_on_c, 0, 78, 0
2, 40461, Note_on_c, 0, 72, 0
2, 40461, Note_on_c, 0, 69, 0
2, 40512, Note_on_c, 0, 79, 80
2, 40512, Note_on_c, 0, 74, 80
2, 40512, Note_on_c, 0, 71, 80
2, 40557, Note_on_c, 0, 79, 0
2, 40557, Note_on_c, 0, 74, 0
2, 40557, Note_on_c, 0, 71, 0
2, 40728, Note_on_c, 0, 74, 64
2, 40738, Note_on_c, 0, 74, 0
2, 40752, Note_on_c, 0, 76, 64
2, 40762, Note_on_c, 0, 76, 0
2, 40776, Note_on_c, 0, 78, 64
2, 40786, Note_on_c, 0, 78, 0
2, 40800, Note_on_c, 0, 79, 64
2, 40810, Note_on_c, 0, 79, 0
2, 40824, Note_on_c, 0, 81, 64
2, 40834, Note_on_c, 0, 81, 0
2, 40848, Note_on_c, 0, 82, 64
2, 40858, Note_on_c, 0, 82, 0
2, 40872, Note_on_c, 0, 84, 64
2, 40882, Note_on_c, 0, 84, 0
2, 40896, Note_on_c, 0, 86, 64
2, 40906, Note_on_c, 0, 86, 0
2, 40920, Note_on_c, 0, 84, 64
2, 40930, Note_on_c, 0, 84, 0
2, 40944, Note_on_c, 0, 82, 64
2, 40954, Note_on_c, 0, 82, 0
2, 40968, Note_on_c, 0, 81, 64
2, 40978, Note_on_c, 0, 81, 0
2, 40992, Note_on_c, 0, 79, 64
2, 41015, Note_on_c, 0, 79, 0
2, 41016, Note_on_c, 0, 81, 64
2, 41039, Note_on_c, 0, 81, 0
2, 41040, Note_on_c, 0, 82, 64
2, 41063, Note_on_c, 0, 82, 0
2, 41064, Note_on_c, 0, 79, 64
2, 41087, Note_on_c, 0, 79, 0
2, 41088, Note_on_c, 0, 84, 64
2, 41098, Note_on_c, 0, 84, 0
2, 41112, Note_on_c, 0, 82, 64
2, 41122, Note_on_c, 0, 82, 0
2, 41136, Note_on_c, 0, 81, 64
2, 41146, Note_on_c, 0, 81, 0
2, 41160, Note_on_c, 0, 79, 64
2, 41170, Note_on_c, 0, 79, 0
2, 41184, Note_on_c, 0, 78, 64
2, 41207, Note_on_c, 0, 78, 0
2, 41208, Note_on_c, 0, 79, 64
2, 41231, Note_on_c, 0, 79, 0
2, 41232, Note_on_c, 0, 81, 64
2, 41255, Note_on_c, 0, 81, 0
2, 41256, Note_on_c, 0, 78, 64
2, 41279, Note_on_c, 0, 78, 0
2, 41280, Note_on_c, 0, 82, 64
2, 41303, Note_on_c, 0, 82, 0
2, 41304, Note_on_c, 0, 84, 64
2, 41327, Note_on_c, 0, 84, 0
2, 41328, Note_on_c, 0, 82, 64
2, 41351, Note_on_c, 0, 82, 0
2, 41352, Note_on_c, 0, 81, 64
2, 41375, Note_on_c, 0, 81, 0
2, 41376, Note_on_c, 0, 79, 64
2, 41386, Note_on_c, 0, 79, 0
2, 41400, Note_on_c, 0, 77, 64
2, 41410, Note_on_c, 0, 77, 0
2, 41424, Note_on_c, 0, 76, 64
2, 41434, Note_on_c, 0, 76, 0
2, 41448, Note_on_c, 0, 74, 64
2, 41458, Note_on_c, 0, 74, 0
2, 41472, Note_on_c, 0, 81, 64
2, 41472, Note_on_c, 0, 73, 64
2, 41492, Note_on_c, 0, 81, 0
2, 41492, Note_on_c, 0, 73, 0
2, 41568, Note_on_c, 0, 76, 67
2, 41568, Note_on_c, 0, 73, 67
2, 41588, Note_on_c, 0, 76, 0
2, 41588, Note_on_c, 0, 73, 0
2, 41664, Note_on_c, 0, 73, 71
2, 41664, Note_on_c, 0, 64, 71
2, 41753, Note_on_c, 0, 73, 0
2, 41753, Note_on_c, 0, 64, 0
2, 41808, Note_on_c, 0, 69, 64
2, 41853, Note_on_c, 0, 69, 0
2, 41856, Note_on_c, 0, 81, 64
2, 41879, Note_on_c, 0, 81, 0
2, 41880, Note_on_c, 0, 80, 68
2, 41903, Note_on_c, 0, 80, 0
2, 41904, Note_on_c, 0, 81, 72
2, 41927, Note_on_c, 0, 81, 0
2, 41928, Note_on_c, 0, 82, 76
2, 41951, Note_on_c, 0, 82, 0
2, 41952, Note_on_c, 0, 81, 80
2, 41975, Note_on_c, 0, 81, 0
2, 41976, Note_on_c, 0, 79, 76
2, 41999, Note_on_c, 0, 79, 0
2, 42000, Note_on_c, 0, 77, 72
2, 42023, Note_on_c, 0, 77, 0
2, 42024, Note_on_c, 0, 76, 68
2, 42047, Note_on_c, 0, 76, 0
2, 42048, Note_on_c, 0, 77, 64
2, 42071, Note_on_c, 0, 77, 0
2, 42072, Note_on_c, 0, 76, 68
2, 42095, Note_on_c, 0, 76, 0
2, 42096, Note_on_c, 0, 77, 72
2, 42119, Note_on_c, 0, 77, 0
2, 42120, Note_on_c, 0, 79, 76
2, 42143, Note_on_c, 0, 79, 0
2, 42144, Note_on_c, 0, 77, 80
2, 42167, Note_on_c, 0, 77, 0
2, 42168, Note_on_c, 0, 76, 76
2, 42191, Note_on_c, 0, 76, 0
2, 42192, Note_on_c, 0, 74, 72
2, 42215, Note_on_c, 0, 74, 0
2, 42216, Note_on_c, 0, 73, 68
2, 42239, Note_on_c, 0, 73, 0
2, 42240, Note_on_c, 0, 74, 64
2, 42329, Note_on_c, 0, 74, 0
2, 42624, Note_on_c, 0, 74, 64
2, 42647, Note_on_c, 0, 74, 0
2, 42648, Note_on_c, 0, 73, 68
2, 42671, Note_on_c, 0, 73, 0
2, 42672, Note_on_c, 0, 74, 72
2, 42695, Note_on_c, 0, 74, 0
2, 42696, Note_on_c, 0, 70, 76
2, 42719, Note_on_c, 0, 70, 0
2, 42720, Note_on_c, 0, 72, 80
2, 42743, Note_on_c, 0, 72, 0
2, 42744, Note_on_c, 0, 71, 76
2, 42767, Note_on_c, 0, 71, 0
2, 42768, Note_on_c, 0, 72, 72
2, 42791, Note_on_c, 0, 72, 0
2, 42792, Note_on_c, 0, 69, 68
2, 42815, Note_on_c, 0, 69, 0
2, 42816, Note_on_c, 0, 70, 64
2, 42839, Note_on_c, 0, 70, 0
2, 42840, Note_on_c, 0, 62, 64
2, 42863, Note_on_c, 0, 62, 0
2, 42864, Note_on_c, 0, 64, 65
2, 42887, Note_on_c, 0, 64, 0
2, 42888, Note_on_c, 0, 66, 66
2, 42911, Note_on_c, 0, 66, 0
2, 42912, Note_on_c, 0, 67, 67
2, 42935, Note_on_c, 0, 67, 0
2, 42936, Note_on_c, 0, 69, 68
2, 42959, Note_on_c, 0, 69, 0
2, 42960, Note_on_c, 0, 70, 69
2, 42983, Note_on_c, 0, 70, 0
2, 42984, Note_on_c, 0, 72, 70
2, 43007, Note_on_c, 0, 72, 0
2, 43008, Note_on_c, 0, 74, 71
2, 43031, Note_on_c, 0, 74, 0
2, 43032, Note_on_c, 0, 72, 72
2, 43055, Note_on_c, 0, 72, 0
2, 43056, Note_on_c, 0, 79, 73
2, 43079, Note_on_c, 0, 79, 0
2, 43080, Note_on_c, 0, 77, 74
2, 43103, Note_on_c, 0, 77, 0
2, 43104, Note_on_c, 0, 76, 75
2, 43127, Note_on_c, 0, 76, 0
2, 43128, Note_on_c, 0, 74, 76
2, 43151, Note_on_c, 0, 74, 0
2, 43152, Note_on_c, 0, 72, 77
2, 43175, Note_on_c, 0, 72, 0
2, 43176, Note_on_c, 0, 70, 78
2, 43199, Note_on_c, 0, 70, 0
2, 43200, Note_on_c, 0, 69, 80
2, 43223, Note_on_c, 0, 69, 0
2, 43224, Note_on_c, 0, 65, 80
2, 43247, Note_on_c, 0, 65, 0
2, 43248, Note_on_c, 0, 67, 80
2, 43260, Note_on_c, 0, 67, 0
2, 43260, Note_on_c, 0, 65, 80
2, 43272, Note_on_c, 0, 65, 0
2, 43272, Note_on_c, 0, 64, 80
2, 43284, Note_on_c, 0, 64, 0
2, 43284, Note_on_c, 0, 65, 80
2, 43296, Note_on_c, 0, 65, 0
2, 43320, Note_on_c, 0, 69, 80
2, 43343, Note_on_c, 0, 69, 0
2, 43344, Note_on_c, 0, 70, 80
2, 43356, Note_on_c, 0, 70, 0
2, 43356, Note_on_c, 0, 69, 80
2, 43368, Note_on_c, 0, 69, 0
2, 43368, Note_on_c, 0, 67, 80
2, 43380, Note_on_c, 0, 67, 0
2, 43380, Note_on_c, 0, 69, 80
2, 43392, Note_on_c, 0, 69, 0
2, 43416, Note_on_c, 0, 72, 80
2, 43439, Note_on_c, 0, 72, 0
2, 43440, Note_on_c, 0, 74, 80
2, 43452, Note_on_c, 0, 74, 0
2, 43452, Note_on_c, 0, 72, 80
2, 43464, Note_on_c, 0, 72, 0
2, 43464, Note_on_c, 0, 70, 80
2, 43476, Note_on_c, 0, 70, 0
2, 43476, Note_on_c, 0, 72, 80
2, 43488, Note_on_c, 0, 72, 0
2, 43488, Note_on_c, 0, 77, 80
2, 43629, Note_on_c, 0, 77, 0
2, 43632, Note_on_c, 0, 76, 80
2, 43644, Note_on_c, 0, 76, 0
2, 43644, Note_on_c, 0, 77, 80
2, 43656, Note_on_c, 0, 77, 0
2, 43656, Note_on_c, 0, 79, 80
2, 43668, Note_on_c, 0, 79, 0
2, 43668, Note_on_c, 0, 81, 80
2, 43680, Note_on_c, 0, 81, 0
2, 43680, Note_on_c, 0, 82, 80
2, 43821, Note_on_c, 0, 82, 0
2, 43824, Note_on_c, 0, 81, 80
2, 43836, Note_on_c, 0, 81, 0
2, 43836, Note_on_c, 0, 79, 80
2, 43848, Note_on_c, 0, 79, 0
2, 43848, Note_on_c, 0, 81, 80
2, 43860, Note_on_c, 0, 81, 0
2, 43860, Note_on_c, 0, 82, 80
2, 43872, Note_on_c, 0, 82, 0
2, 43872, Note_on_c, 0, 84, 80
2, 43991, Note_on_c, 0, 84, 0
2, 43992, Note_on_c, 0, 85, 64
2, 44015, Note_on_c, 0, 85, 0
2, 44016, Note_on_c, 0, 86, 64
2, 44039, Note_on_c, 0, 86, 0
2, 44040, Note_on_c, 0, 78, 64
2, 44063, Note_on_c, 0, 78, 0
2, 44064, Note_on_c, 0, 79, 64
2, 44087, Note_on_c, 0, 79, 0
2, 44088, Note_on_c, 0, 81, 64
2, 44111, Note_on_c, 0, 81, 0
2, 44112, Note_on_c, 0, 82, 64
2, 44183, Note_on_c, 0, 82, 0
2, 44184, Note_on_c, 0, 83, 64
2, 44207, Note_on_c, 0, 83, 0
2, 44208, Note_on_c, 0, 84, 64
2, 44231, Note_on_c, 0, 84, 0
2, 44232, Note_on_c, 0, 76, 64
2, 44255, Note_on_c, 0, 76, 0
2, 44256, Note_on_c, 0, 77, 64
2, 44279, Note_on_c, 0, 77, 0
2, 44280, Note_on_c, 0, 79, 65
2, 44303, Note_on_c, 0, 79, 0
2, 44304, Note_on_c, 0, 81, 66
2, 44375, Note_on_c, 0, 81, 0
2, 44376, Note_on_c, 0, 84, 69
2, 44399, Note_on_c, 0, 84, 0
2, 44400, Note_on_c, 0, 82, 70
2, 44423, Note_on_c, 0, 82, 0
2, 44424, Note_on_c, 0, 79, 72
2, 44447, Note_on_c, 0, 79, 0
2, 44448, Note_on_c, 0, 76, 73
2, 44471, Note_on_c, 0, 76, 0
2, 44472, Note_on_c, 0, 72, 74
2, 44495, Note_on_c, 0, 72, 0
2, 44496, Note_on_c, 0, 70, 75
2, 44519, Note_on_c, 0, 70, 0
2, 44520, Note_on_c, 0, 67, 76
2, 44543, Note_on_c, 0, 67, 0
2, 44544, Note_on_c, 0, 69, 77
2, 44564, Note_on_c, 0, 69, 0
2, 44592, Note_on_c, 0, 69, 80
2, 44612, Note_on_c, 0, 69, 0
2, 44664, Note_on_c, 0, 72, 80
2, 44674, Note_on_c, 0, 72, 0
2, 44688, Note_on_c, 0, 74, 80
2, 44700, Note_on_c, 0, 74, 0
2, 44700, Note_on_c, 0, 72, 80
2, 44712, Note_on_c, 0, 72, 0
2, 44712, Note_on_c, 0, 71, 80
2, 44724, Note_on_c, 0, 71, 0
2, 44724, Note_on_c, 0, 72, 80
2, 44736, Note_on_c, 0, 72, 0
2, 44736, Note_on_c, 0, 64, 80
2, 44756, Note_on_c, 0, 64, 0
2, 44784, Note_on_c, 0, 64, 80
2, 44804, Note_on_c, 0, 64, 0
2, 44856, Note_on_c, 0, 72, 80
2, 44866, Note_on_c, 0, 72, 0
2, 44880, Note_on_c, 0, 74, 80
2, 44892, Note_on_c, 0, 74, 0
2, 44892, Note_on_c, 0, 72, 80
2, 44904, Note_on_c, 0, 72, 0
2, 44904, Note_on_c, 0, 71, 80
2, 44916, Note_on_c, 0, 71, 0
2, 44916, Note_on_c, 0, 72, 80
2, 44928, Note_on_c, 0, 72, 0
2, 44928, Note_on_c, 0, 77, 80
2, 44976, Note_on_c, 0, 77, 0
2, 44976, Note_on_c, 0, 81, 80
2, 45021, Note_on_c, 0, 81, 0
2, 45048, Note_on_c, 0, 84, 80
2, 45058, Note_on_c, 0, 84, 0
2, 45072, Note_on_c, 0, 86, 80
2, 45084, Note_on_c, 0, 86, 0
2, 45084, Note_on_c, 0, 84, 80
2, 45096, Note_on_c, 0, 84, 0
2, 45096, Note_on_c, 0, 83, 80
2, 45108, Note_on_c, 0, 83, 0
2, 45108, Note_on_c, 0, 84, 80
2, 45120, Note_on_c, 0, 84, 0
2, 45120, Note_on_c, 0, 76, 80
2, 45140, Note_on_c, 0, 76, 0
2, 45168, Note_on_c, 0, 76, 80
2, 45188, Note_on_c, 0, 76, 0
2, 45240, Note_on_c, 0, 84, 81
2, 45250, Note_on_c, 0, 84, 0
2, 45264, Note_on_c, 0, 86, 81
2, 45276, Note_on_c, 0, 86, 0
2, 45276, Note_on_c, 0, 84, 81
2, 45288, Note_on_c, 0, 84, 0
2, 45288, Note_on_c, 0, 83, 81
2, 45300, Note_on_c, 0, 83, 0
2, 45300, Note_on_c, 0, 84, 81
2, 45312, Note_on_c, 0, 84, 0
2, 45312, Control_c, 0, 64, 127
2, 45312, Note_on_c, 0, 80, 82
2, 45489, Note_on_c, 0, 80, 0
2, 45504, Note_on_c, 0, 89, 100
2, 45691, Note_on_c, 0, 89, 0
2, 45696, Control_c, 0, 64, 0
2, 45696, Control_c, 0, 64, 127
2, 45696, Note_on_c, 0, 79, 86
2, 45741, Note_on_c, 0, 79, 0
2, 45744, Note_on_c, 0, 89, 85
2, 45791, Note_on_c, 0, 89, 0
2, 45792, Control_c, 0, 64, 0
2, 45792, Control_c, 0, 64, 127
2, 45792, Note_on_c, 0, 87, 84
2, 45837, Note_on_c, 0, 87, 0
2, 45840, Note_on_c, 0, 80, 83
2, 45885, Note_on_c, 0, 80, 0
2, 45888, Control_c, 0, 64, 0
2, 45888, Control_c, 0, 64, 127
2, 45888, Note_on_c, 0, 79, 83
2, 45933, Note_on_c, 0, 79, 0
2, 45936, Note_on_c, 0, 85, 82
2, 45981, Note_on_c, 0, 85, 0
2, 45984, Control_c, 0, 64, 0
2, 45984, Control_c, 0, 64, 127
2, 45984, Note_on_c, 0, 84, 81
2, 46029, Note_on_c, 0, 84, 0
2, 46032, Note_on_c, 0, 80, 80
2, 46077, Note_on_c, 0, 80, 0
2, 46080, Control_c, 0, 64, 0
2, 46080, Control_c, 0, 64, 127
2, 46080, Note_on_c, 0, 79, 80
2, 46125, Note_on_c, 0, 79, 0
2, 46128, Note_on_c, 0, 89, 80
2, 46175, Note_on_c, 0, 89, 0
2, 46176, Control_c, 0, 64, 0
2, 46176, Control_c, 0, 64, 127
2, 46176, Note_on_c, 0, 87, 79
2, 46221, Note_on_c, 0, 87, 0
2, 46224, Note_on_c, 0, 80, 78
2, 46269, Note_on_c, 0, 80, 0
2, 46272, Control_c, 0, 64, 0
2, 46272, Control_c, 0, 64, 127
2, 46272, Note_on_c, 0, 79, 77
2, 46317, Note_on_c, 0, 79, 0
2, 46320, Note_on_c, 0, 85, 77
2, 46365, Note_on_c, 0, 85, 0
2, 46368, Control_c, 0, 64, 0
2, 46368, Control_c, 0, 64, 127
2, 46368, Note_on_c, 0, 84, 76
2, 46413, Note_on_c, 0, 84, 0
2, 46416, Note_on_c, 0, 80, 75
2, 46461, Note_on_c, 0, 80, 0
2, 46464, Control_c, 0, 64, 0
2, 46464, Control_c, 0, 64, 127
2, 46464, Note_on_c, 0, 74, 86
2, 46509, Note_on_c, 0, 74, 0
2, 46512, Note_on_c, 0, 83, 83
2, 46557, Note_on_c, 0, 83, 0
2, 46560, Note_on_c, 0, 80, 81
2, 46605, Note_on_c, 0, 80, 0
2, 46608, Note_on_c, 0, 74, 78
2, 46653, Note_on_c, 0, 74, 0
2, 46656, Control_c, 0, 64, 0
2, 46656, Control_c, 0, 64, 127
2, 46656, Note_on_c, 0, 75, 76
2, 46701, Note_on_c, 0, 75, 0
2, 46704, Note_on_c, 0, 82, 73
2, 46749, Note_on_c, 0, 82, 0
2, 46752, Note_on_c, 0, 79, 71
2, 46797, Note_on_c, 0, 79, 0
2, 46800, Note_on_c, 0, 75, 68
2, 46845, Note_on_c, 0, 75, 0
2, 46848, Control_c, 0, 64, 0
2, 46848, Control_c, 0, 64, 127
2, 46848, Note_on_c, 0, 74, 66
2, 46893, Note_on_c, 0, 74, 0
2, 46896, Note_on_c, 0, 71, 64
2, 46941, Note_on_c, 0, 71, 0
2, 46944, Note_on_c, 0, 68, 64
2, 46989, Note_on_c, 0, 68, 0
2, 46992, Note_on_c, 0, 62, 64
2, 47037, Note_on_c, 0, 62, 0
2, 47040, Control_c, 0, 64, 0
2, 47040, Control_c, 0, 64, 127
2, 47040, Note_on_c, 0, 63, 64
2, 47085, Note_on_c, 0, 63, 0
2, 47088, Note_on_c, 0, 70, 64
2, 47133, Note_on_c, 0, 70, 0
2, 47136, Note_on_c, 0, 67, 64
2, 47181, Note_on_c, 0, 67, 0
2, 47184, Note_on_c, 0, 63, 64
2, 47229, Note_on_c, 0, 63, 0
2, 47232, Control_c, 0, 64, 0
2, 47232, Note_on_c, 0, 62, 64
2, 47277, Note_on_c, 0, 62, 0
2, 47280, Control_c, 0, 64, 127
2, 47280, Note_on_c, 0, 59, 64
2, 47325, Note_on_c, 0, 59, 0
2, 47328, Note_on_c, 0, 58, 64
2, 47373, Note_on_c, 0, 58, 0
2, 47376, Note_on_c, 0, 62, 64
2, 47421, Note_on_c, 0, 62, 0
2, 47424, Note_on_c, 0, 65, 64
2, 47469, Note_on_c, 0, 65, 0
2, 47472, Note_on_c, 0, 68, 64
2, 47517, Note_on_c, 0, 68, 0
2, 47520, Note_on_c, 0, 71, 64
2, 47565, Note_on_c, 0, 71, 0
2, 47568, Control_c, 0, 64, 0
2, 47568, Note_on_c, 0, 62, 64
2, 47613, Note_on_c, 0, 62, 0
2, 47616, Note_on_c, 0, 63, 64
2, 47683, Note_on_c, 0, 63, 0
2, 47688, Note_on_c, 0, 62, 64
2, 47711, Note_on_c, 0, 62, 0
2, 47712, Note_on_c, 0, 63, 64
2, 47735, Note_on_c, 0, 63, 0
2, 47736, Note_on_c, 0, 62, 64
2, 47759, Note_on_c, 0, 62, 0
2, 47760, Note_on_c, 0, 63, 64
2, 47783, Note_on_c, 0, 63, 0
2, 47784, Note_on_c, 0, 62, 64
2, 47807, Note_on_c, 0, 62, 0
2, 47808, Control_c, 0, 64, 0
2, 47808, Note_on_c, 0, 63, 64
2, 47897, Note_on_c, 0, 63, 0
2, 48000, Control_c, 0, 64, 127
2, 48000, Note_on_c, 0, 56, 64
2, 48089, Note_on_c, 0, 56, 0
2, 48096, Note_on_c, 0, 51, 64
2, 48185, Note_on_c, 0, 51, 0
2, 48192, Note_on_c, 0, 48, 64
2, 48281, Note_on_c, 0, 48, 0
2, 48336, Note_on_c, 0, 53, 64
2, 48384, Note_on_c, 0, 53, 0
2, 48384, Note_on_c, 0, 46, 64
2, 48473, Note_on_c, 0, 46, 0
2, 48528, Note_on_c, 0, 51, 64
2, 48576, Note_on_c, 0, 51, 0
2, 48576, Note_on_c, 0, 44, 64
2, 48665, Note_on_c, 0, 44, 0
2, 48672, Control_c, 0, 64, 0
2, 48720, Note_on_c, 0, 72, 64
2, 48768, Note_on_c, 0, 72, 0
2, 48768, Note_on_c, 0, 61, 64
2, 48857, Note_on_c, 0, 61, 0
2, 48912, Note_on_c, 0, 70, 64
2, 48960, Note_on_c, 0, 70, 0
2, 48960, Note_on_c, 0, 60, 64
2, 49049, Note_on_c, 0, 60, 0
2, 49104, Note_on_c, 0, 68, 64
2, 49152, Note_on_c, 0, 68, 0
2, 49152, Note_on_c, 0, 59, 64
2, 49200, Note_on_c, 0, 59, 0
2, 49200, Note_on_c, 0, 68, 64
2, 49245, Note_on_c, 0, 68, 0
2, 49248, Note_on_c, 0, 60, 64
2, 49296, Note_on_c, 0, 60, 0
2, 49296, Note_on_c, 0, 68, 64
2, 49341, Note_on_c, 0, 68, 0
2, 49344, Note_on_c, 0, 62, 65
2, 49392, Note_on_c, 0, 62, 0
2, 49392, Note_on_c, 0, 68, 66
2, 49437, Note_on_c, 0, 68, 0
2, 49440, Note_on_c, 0, 60, 66
2, 49488, Note_on_c, 0, 60, 0
2, 49488, Note_on_c, 0, 68, 67
2, 49533, Note_on_c, 0, 68, 0
2, 49536, Note_on_c, 0, 59, 68
2, 49559, Note_on_c, 0, 59, 0
2, 49560, Note_on_c, 0, 68, 68
2, 49583, Note_on_c, 0, 68, 0
2, 49584, Note_on_c, 0, 59, 69
2, 49607, Note_on_c, 0, 59, 0
2, 49608, Note_on_c, 0, 68, 69
2, 49631, Note_on_c, 0, 68, 0
2, 49632, Note_on_c, 0, 60, 69
2, 49655, Note_on_c, 0, 60, 0
2, 49656, Note_on_c, 0, 68, 70
2, 49679, Note_on_c, 0, 68, 0
2, 49680, Note_on_c, 0, 60, 70
2, 49703, Note_on_c, 0, 60, 0
2, 49704, Note_on_c, 0, 68, 70
2, 49727, Note_on_c, 0, 68, 0
2, 49728, Note_on_c, 0, 62, 71
2, 49751, Note_on_c, 0, 62, 0
2, 49752, Note_on_c, 0, 68, 71
2, 49775, Note_on_c, 0, 68, 0
2, 49776, Note_on_c, 0, 62, 71
2, 49799, Note_on_c, 0, 62, 0
2, 49800, Note_on_c, 0, 68, 72
2, 49823, Note_on_c, 0, 68, 0
2, 49824, Note_on_c, 0, 59, 72
2, 49847, Note_on_c, 0, 59, 0
2, 49848, Note_on_c, 0, 68, 73
2, 49871, Note_on_c, 0, 68, 0
2, 49872, Note_on_c, 0, 59, 73
2, 49895, Note_on_c, 0, 59, 0
2, 49896, Note_on_c, 0, 68, 73
2, 49919, Note_on_c, 0, 68, 0
2, 49920, Note_on_c, 0, 60, 74
2, 49943, Note_on_c, 0, 60, 0
2, 49944, Note_on_c, 0, 72, 74
2, 49967, Note_on_c, 0, 72, 0
2, 49968, Note_on_c, 0, 60, 74
2, 49991, Note_on_c, 0, 60, 0
2, 49992, Note_on_c, 0, 72, 75
2, 50015, Note_on_c, 0, 72, 0
2, 50016, Note_on_c, 0, 59, 75
2, 50039, Note_on_c, 0, 59, 0
2, 50040, Note_on_c, 0, 71, 75
2, 50063, Note_on_c, 0, 71, 0
2, 50064, Note_on_c, 0, 59, 76
2, 50087, Note_on_c, 0, 59, 0
2, 50088, Note_on_c, 0, 71, 76
2, 50111, Note_on_c, 0, 71, 0
2, 50112, Note_on_c, 0, 60, 76
2, 50135, Note_on_c, 0, 60, 0
2, 50136, Note_on_c, 0, 72, 77
2, 50159, Note_on_c, 0, 72, 0
2, 50160, Note_on_c, 0, 60, 77
2, 50183, Note_on_c, 0, 60, 0
2, 50184, Note_on_c, 0, 72, 78
2, 50207, Note_on_c, 0, 72, 0
2, 50208, Note_on_c, 0, 61, 78
2, 50231, Note_on_c, 0, 61, 0
2, 50232, Note_on_c, 0, 73, 78
2, 50255, Note_on_c, 0, 73, 0
2, 50256, Note_on_c, 0, 61, 79
2, 50279, Note_on_c, 0, 61, 0
2, 50280, Note_on_c, 0, 73, 79
2, 50303, Note_on_c, 0, 73, 0
2, 50304, Note_on_c, 0, 62, 79
2, 50327, Note_on_c, 0, 62, 0
2, 50328, Note_on_c, 0, 74, 80
2, 50351, Note_on_c, 0, 74, 0
2, 50352, Note_on_c, 0, 62, 80
2, 50375, Note_on_c, 0, 62, 0
2, 50376, Note_on_c, 0, 74, 80
2, 50399, Note_on_c, 0, 74, 0
2, 50400, Note_on_c, 0, 61, 81
2, 50423, Note_on_c, 0, 61, 0
2, 50424, Note_on_c, 0, 73, 81
2, 50447, Note_on_c, 0, 73, 0
2, 50448, Note_on_c, 0, 61, 82
2, 50471, Note_on_c, 0, 61, 0
2, 50472, Note_on_c, 0, 73, 82
2, 50495, Note_on_c, 0, 73, 0
2, 50496, Note_on_c, 0, 62, 82
2, 50519, Note_on_c, 0, 62, 0
2, 50520, Note_on_c, 0, 74, 83
2, 50543, Note_on_c, 0, 74, 0
2, 50544, Note_on_c, 0, 62, 83
2, 50567, Note_on_c, 0, 62, 0
2, 50568, Note_on_c, 0, 74, 83
2, 50591, Note_on_c, 0, 74, 0
2, 50592, Note_on_c, 0, 63, 84
2, 50615, Note_on_c, 0, 63, 0
2, 50616, Note_on_c, 0, 75, 84
2, 50639, Note_on_c, 0, 75, 0
2, 50640, Note_on_c, 0, 63, 84
2, 50663, Note_on_c, 0, 63, 0
2, 50664, Note_on_c, 0, 75, 85
2, 50687, Note_on_c, 0, 75, 0
2, 50688, Note_on_c, 0, 64, 85
2, 50711, Note_on_c, 0, 64, 0
2, 50712, Note_on_c, 0, 76, 86
2, 50735, Note_on_c, 0, 76, 0
2, 50736, Note_on_c, 0, 64, 86
2, 50759, Note_on_c, 0, 64, 0
2, 50760, Note_on_c, 0, 76, 86
2, 50783, Note_on_c, 0, 76, 0
2, 50784, Note_on_c, 0, 64, 86
2, 50807, Note_on_c, 0, 64, 0
2, 50808, Note_on_c, 0, 76, 86
2, 50831, Note_on_c, 0, 76, 0
2, 50832, Note_on_c, 0, 64, 86
2, 50855, Note_on_c, 0, 64, 0
2, 50856, Note_on_c, 0, 76, 86
2, 50879, Note_on_c, 0, 76, 0
2, 50880, Note_on_c, 0, 64, 86
2, 50903, Note_on_c, 0, 64, 0
2, 50904, Note_on_c, 0, 76, 86
2, 50927, Note_on_c, 0, 76, 0
2, 50928, Note_on_c, 0, 64, 86
2, 50951, Note_on_c, 0, 64, 0
2, 50952, Note_on_c, 0, 76, 86
2, 50975, Note_on_c, 0, 76, 0
2, 50976, Note_on_c, 0, 64, 86
2, 50999, Note_on_c, 0, 64, 0
2, 51000, Note_on_c, 0, 76, 86
2, 51023, Note_on_c, 0, 76, 0
2, 51024, Note_on_c, 0, 64, 86
2, 51047, Note_on_c, 0, 64, 0
2, 51048, Note_on_c, 0, 76, 86
2, 51071, Note_on_c, 0, 76, 0
2, 51072, Note_on_c, 0, 64, 86
2, 51095, Note_on_c, 0, 64, 0
2, 51096, Note_on_c, 0, 76, 86
2, 51119, Note_on_c, 0, 76, 0
2, 51120, Note_on_c, 0, 64, 86
2, 51143, Note_on_c, 0, 64, 0
2, 51144, Note_on_c, 0, 76, 86
2, 51167, Note_on_c, 0, 76, 0
2, 51168, Note_on_c, 0, 64, 86
2, 51191, Note_on_c, 0, 64, 0
2, 51192, Note_on_c, 0, 76, 86
2, 51215, Note_on_c, 0, 76, 0
2, 51216, Note_on_c, 0, 64, 86
2, 51239, Note_on_c, 0, 64, 0
2, 51240, Note_on_c, 0, 76, 86
2, 51263, Note_on_c, 0, 76, 0
2, 51264, Note_on_c, 0, 64, 86
2, 51287, Note_on_c, 0, 64, 0
2, 51288, Note_on_c, 0, 76, 86
2, 51311, Note_on_c, 0, 76, 0
2, 51312, Note_on_c, 0, 64, 86
2, 51335, Note_on_c, 0, 64, 0
2, 51336, Note_on_c, 0, 76, 86
2, 51359, Note_on_c, 0, 76, 0
2, 51360, Note_on_c, 0, 64, 86
2, 51383, Note_on_c, 0, 64, 0
2, 51384, Note_on_c, 0, 76, 86
2, 51407, Note_on_c, 0, 76, 0
2, 51408, Note_on_c, 0, 64, 86
2, 51431, Note_on_c, 0, 64, 0
2, 51432, Note_on_c, 0, 76, 86
2, 51455, Note_on_c, 0, 76, 0
2, 51456, Note_on_c, 0, 64, 86
2, 51479, Note_on_c, 0, 64, 0
2, 51480, Note_on_c, 0, 76, 86
2, 51503, Note_on_c, 0, 76, 0
2, 51504, Note_on_c, 0, 64, 86
2, 51527, Note_on_c, 0, 64, 0
2, 51528, Note_on_c, 0, 76, 86
2, 51551, Note_on_c, 0, 76, 0
2, 51552, Note_on_c, 0, 64, 86
2, 51575, Note_on_c, 0, 64, 0
2, 51576, Note_on_c, 0, 76, 86
2, 51599, Note_on_c, 0, 76, 0
2, 51600, Note_on_c, 0, 64, 86
2, 51623, Note_on_c, 0, 64, 0
2, 51624, Note_on_c, 0, 76, 86
2, 51647, Note_on_c, 0, 76, 0
2, 51648, Note_on_c, 0, 67, 86
2, 51671, Note_on_c, 0, 67, 0
2, 51672, Note_on_c, 0, 76, 86
2, 51695, Note_on_c, 0, 76, 0
2, 51696, Note_on_c, 0, 67, 86
2, 51719, Note_on_c, 0, 67, 0
2, 51720, Note_on_c, 0, 76, 86
2, 51743, Note_on_c, 0, 76, 0
2, 51744, Note_on_c, 0, 67, 86
2, 51767, Note_on_c, 0, 67, 0
2, 51768, Note_on_c, 0, 76, 86
2, 51791, Note_on_c, 0, 76, 0
2, 51792, Note_on_c, 0, 67, 86
2, 51815, Note_on_c, 0, 67, 0
2, 51816, Note_on_c, 0, 76, 86
2, 51839, Note_on_c, 0, 76, 0
2, 51840, Note_on_c, 0, 75, 86
2, 51840, Note_on_c, 0, 66, 86
2, 52017, Note_on_c, 0, 75, 0
2, 52017, Note_on_c, 0, 66, 0
2, 52032, Note_on_c, 0, 78, 64
2, 52032, Note_on_c, 0, 69, 64
2, 52209, Note_on_c, 0, 78, 0
2, 52209, Note_on_c, 0, 69, 0
2, 52224, Note_on_c, 0, 78, 64
2, 52401, Note_on_c, 0, 78, 0
2, 52416, Note_on_c, 0, 77, 64
2, 52505, Note_on_c, 0, 77, 0
2, 52512, Note_on_c, 0, 76, 64
2, 52601, Note_on_c, 0, 76, 0
2, 52608, Note_on_c, 0, 76, 64
2, 52962, Note_on_c, 0, 76, 0
2, 52992, Note_on_c, 0, 74, 104
2, 53257, Note_on_c, 0, 74, 0
2, 53280, Note_on_c, 0, 72, 86
2, 53369, Note_on_c, 0, 72, 0
2, 53376, Note_on_c, 0, 72, 104
2, 53553, Note_on_c, 0, 72, 0
2, 53568, Note_on_c, 0, 71, 86
2, 53745, Note_on_c, 0, 71, 0
2, 53760, Note_on_c, 0, 71, 104
2, 53937, Note_on_c, 0, 71, 0
2, 53952, Note_on_c, 0, 69, 86
2, 53952, Note_on_c, 0, 63, 86
2, 54129, Note_on_c, 0, 69, 0
2, 54129, Note_on_c, 0, 63, 0
2, 54144, Note_on_c, 0, 68, 86
2, 54144, Note_on_c, 0, 64, 86
2, 54189, Note_on_c, 0, 68, 0
2, 54189, Note_on_c, 0, 64, 0
2, 54216, Note_on_c, 0, 76, 75
2, 54216, Note_on_c, 0, 72, 75
2, 54239, Note_on_c, 0, 76, 0
2, 54239, Note_on_c, 0, 72, 0
2, 54240, Note_on_c, 0, 74, 75
2, 54240, Note_on_c, 0, 71, 75
2, 54263, Note_on_c, 0, 74, 0
2, 54263, Note_on_c, 0, 71, 0
2, 54264, Note_on_c, 0, 76, 75
2, 54264, Note_on_c, 0, 72, 75
2, 54287, Note_on_c, 0, 76, 0
2, 54287, Note_on_c, 0, 72, 0
2, 54288, Note_on_c, 0, 77, 75
2, 54288, Note_on_c, 0, 74, 75
2, 54311, Note_on_c, 0, 77, 0
2, 54311, Note_on_c, 0, 74, 0
2, 54312, Note_on_c, 0, 76, 75
2, 54312, Note_on_c, 0, 72, 75
2, 54335, Note_on_c, 0, 76, 0
2, 54335, Note_on_c, 0, 72, 0
2, 54336, Note_on_c, 0, 74, 75
2, 54336, Note_on_c, 0, 71, 75
2, 54356, Note_on_c, 0, 74, 0
2, 54356, Note_on_c, 0, 71, 0
2, 54408, Note_on_c, 0, 76, 75
2, 54408, Note_on_c, 0, 72, 75
2, 54432, Note_on_c, 0, 76, 0
2, 54432, Note_on_c, 0, 69, 75
2, 54452, Note_on_c, 0, 72, 0
2, 54452, Note_on_c, 0, 69, 0
2, 54504, Note_on_c, 0, 74, 75
2, 54504, Note_on_c, 0, 71, 75
2, 54528, Note_on_c, 0, 74, 0
2, 54528, Note_on_c, 0, 71, 0
2, 54528, Note_on_c, 0, 68, 75
2, 54528, Note_on_c, 0, 64, 75
2, 54575, Note_on_c, 0, 68, 0
2, 54575, Note_on_c, 0, 64, 0
2, 54600, Note_on_c, 0, 76, 75
2, 54600, Note_on_c, 0, 72, 75
2, 54623, Note_on_c, 0, 76, 0
2, 54623, Note_on_c, 0, 72, 0
2, 54624, Note_on_c, 0, 74, 75
2, 54624, Note_on_c, 0, 71, 75
2, 54647, Note_on_c, 0, 74, 0
2, 54647, Note_on_c, 0, 71, 0
2, 54648, Note_on_c, 0, 76, 75
2, 54648, Note_on_c, 0, 72, 75
2, 54671, Note_on_c, 0, 76, 0
2, 54671, Note_on_c, 0, 72, 0
2, 54672, Note_on_c, 0, 77, 75
2, 54672, Note_on_c, 0, 74, 75
2, 54695, Note_on_c, 0, 77, 0
2, 54695, Note_on_c, 0, 74, 0
2, 54696, Note_on_c, 0, 76, 75
2, 54696, Note_on_c, 0, 72, 75
2, 54719, Note_on_c, 0, 76, 0
2, 54719, Note_on_c, 0, 72, 0
2, 54720, Note_on_c, 0, 74, 76
2, 54720, Note_on_c, 0, 71, 76
2, 54740, Note_on_c, 0, 74, 0
2, 54740, Note_on_c, 0, 71, 0
2, 54792, Note_on_c, 0, 80, 76
2, 54792, Note_on_c, 0, 74, 76
2, 54816, Note_on_c, 0, 80, 0
2, 54816, Note_on_c, 0, 74, 0
2, 54816, Note_on_c, 0, 81, 76
2, 54816, Note_on_c, 0, 72, 76
2, 54836, Note_on_c, 0, 81, 0
2, 54836, Note_on_c, 0, 72, 0
2, 54888, Note_on_c, 0, 72, 77
2, 54888, Note_on_c, 0, 69, 77
2, 54912, Note_on_c, 0, 72, 0
2, 54912, Note_on_c, 0, 69, 0
2, 54912, Note_on_c, 0, 71, 77
2, 54912, Note_on_c, 0, 68, 77
2, 54957, Note_on_c, 0, 71, 0
2, 54957, Note_on_c, 0, 68, 0
2, 54984, Note_on_c, 0, 72, 78
2, 54984, Note_on_c, 0, 69, 78
2, 55007, Note_on_c, 0, 72, 0
2, 55007, Note_on_c, 0, 69, 0
2, 55008, Note_on_c, 0, 71, 78
2, 55008, Note_on_c, 0, 68, 78
2, 55031, Note_on_c, 0, 71, 0
2, 55031, Note_on_c, 0, 68, 0
2, 55032, Note_on_c, 0, 72, 78
2, 55032, Note_on_c, 0, 69, 78
2, 55055, Note_on_c, 0, 72, 0
2, 55055, Note_on_c, 0, 69, 0
2, 55056, Note_on_c, 0, 71, 78
2, 55056, Note_on_c, 0, 68, 78
2, 55079, Note_on_c, 0, 71, 0
2, 55079, Note_on_c, 0, 68, 0
2, 55080, Note_on_c, 0, 72, 79
2, 55080, Note_on_c, 0, 69, 79
2, 55103, Note_on_c, 0, 72, 0
2, 55103, Note_on_c, 0, 69, 0
2, 55104, Note_on_c, 0, 71, 79
2, 55104, Note_on_c, 0, 68, 79
2, 55124, Note_on_c, 0, 71, 0
2, 55124, Note_on_c, 0, 68, 0
2, 55176, Note_on_c, 0, 51, 79
2, 55199, Note_on_c, 0, 51, 0
2, 55200, Note_on_c, 0, 52, 80
2, 55223, Note_on_c, 0, 52, 0
2, 55224, Note_on_c, 0, 51, 80
2, 55247, Note_on_c, 0, 51, 0
2, 55248, Note_on_c, 0, 52, 80
2, 55271, Note_on_c, 0, 52, 0
2, 55272, Note_on_c, 0, 51, 80
2, 55295, Note_on_c, 0, 51, 0
2, 55296, Note_on_c, 0, 52, 80
2, 55316, Note_on_c, 0, 52, 0
2, 55368, Note_on_c, 0, 75, 64
2, 55391, Note_on_c, 0, 75, 0
2, 55392, Note_on_c, 0, 76, 64
2, 55415, Note_on_c, 0, 76, 0
2, 55416, Note_on_c, 0, 75, 64
2, 55439, Note_on_c, 0, 75, 0
2, 55440, Note_on_c, 0, 76, 64
2, 55463, Note_on_c, 0, 76, 0
2, 55464, Note_on_c, 0, 75, 64
2, 55487, Note_on_c, 0, 75, 0
2, 55488, Note_on_c, 0, 76, 64
2, 55533, Note_on_c, 0, 76, 0
2, 55752, Note_on_c, 0, 75, 64
2, 55775, Note_on_c, 0, 75, 0
2, 55776, Note_on_c, 0, 76, 64
2, 55799, Note_on_c, 0, 76, 0
2, 55800, Note_on_c, 0, 75, 64
2, 55823, Note_on_c, 0, 75, 0
2, 55824, Note_on_c, 0, 76, 64
2, 55847, Note_on_c, 0, 76, 0
2, 55848, Note_on_c, 0, 75, 64
2, 55871, Note_on_c, 0, 75, 0
2, 55872, Note_on_c, 0, 76, 64
2, 55917, Note_on_c, 0, 76, 0
2, 55944, Note_on_c, 0, 75, 58
2, 55967, Note_on_c, 0, 75, 0
2, 55968, Note_on_c, 0, 76, 58
2, 55991, Note_on_c, 0, 76, 0
2, 55992, Note_on_c, 0, 75, 58
2, 56015, Note_on_c, 0, 75, 0
2, 56016, Note_on_c, 0, 76, 58
2, 56039, Note_on_c, 0, 76, 0
2, 56040, Note_on_c, 0, 75, 58
2, 56063, Note_on_c, 0, 75, 0
2, 56064, Note_on_c, 0, 76, 58
2, 56109, Note_on_c, 0, 76, 0
2, 56136, Note_on_c, 0, 75, 64
2, 56159, Note_on_c, 0, 75, 0
2, 56160, Note_on_c, 0, 76, 65
2, 56183, Note_on_c, 0, 76, 0
2, 56184, Note_on_c, 0, 75, 66
2, 56207, Note_on_c, 0, 75, 0
2, 56208, Note_on_c, 0, 76, 67
2, 56231, Note_on_c, 0, 76, 0
2, 56232, Note_on_c, 0, 77, 68
2, 56255, Note_on_c, 0, 77, 0
2, 56256, Note_on_c, 0, 79, 70
2, 56301, Note_on_c, 0, 79, 0
2, 56328, Note_on_c, 0, 78, 73
2, 56351, Note_on_c, 0, 78, 0
2, 56352, Note_on_c, 0, 79, 75
2, 56375, Note_on_c, 0, 79, 0
2, 56376, Note_on_c, 0, 78, 76
2, 56399, Note_on_c, 0, 78, 0
2, 56400, Note_on_c, 0, 79, 77
2, 56423, Note_on_c, 0, 79, 0
2, 56424, Note_on_c, 0, 81, 78
2, 56447, Note_on_c, 0, 81, 0
2, 56448, Note_on_c, 0, 82, 98
2, 56581, Note_on_c, 0, 82, 0
2, 56592, Note_on_c, 0, 81, 80
2, 56604, Note_on_c, 0, 81, 0
2, 56604, Note_on_c, 0, 79, 80
2, 56616, Note_on_c, 0, 79, 0
2, 56616, Note_on_c, 0, 77, 80
2, 56628, Note_on_c, 0, 77, 0
2, 56628, Note_on_c, 0, 76, 80
2, 56640, Note_on_c, 0, 76, 0
2, 56640, Note_on_c, 0, 74, 80
2, 56655, Note_on_c, 0, 74, 0
2, 56656, Note_on_c, 0, 81, 80
2, 56671, Note_on_c, 0, 81, 0
2, 56672, Note_on_c, 0, 79, 80
2, 56687, Note_on_c, 0, 79, 0
2, 56688, Note_on_c, 0, 77, 80
2, 56703, Note_on_c, 0, 77, 0
2, 56704, Note_on_c, 0, 76, 80
2, 56719, Note_on_c, 0, 76, 0
2, 56720, Note_on_c, 0, 74, 80
2, 56735, Note_on_c, 0, 74, 0
2, 56736, Note_on_c, 0, 73, 80
2, 56751, Note_on_c, 0, 73, 0
2, 56752, Note_on_c, 0, 79, 80
2, 56767, Note_on_c, 0, 79, 0
2, 56768, Note_on_c, 0, 77, 80
2, 56783, Note_on_c, 0, 77, 0
2, 56784, Note_on_c, 0, 76, 80
2, 56799, Note_on_c, 0, 76, 0
2, 56800, Note_on_c, 0, 74, 80
2, 56815, Note_on_c, 0, 74, 0
2, 56816, Note_on_c, 0, 73, 80
2, 56831, Note_on_c, 0, 73, 0
2, 56832, Note_on_c, 0, 74, 80
2, 56847, Note_on_c, 0, 74, 0
2, 56848, Note_on_c, 0, 81, 80
2, 56863, Note_on_c, 0, 81, 0
2, 56864, Note_on_c, 0, 79, 80
2, 56879, Note_on_c, 0, 79, 0
2, 56880, Note_on_c, 0, 77, 80
2, 56895, Note_on_c, 0, 77, 0
2, 56896, Note_on_c, 0, 76, 80
2, 56911, Note_on_c, 0, 76, 0
2, 56912, Note_on_c, 0, 74, 80
2, 56927, Note_on_c, 0, 74, 0
2, 56928, Note_on_c, 0, 73, 80
2, 56943, Note_on_c, 0, 73, 0
2, 56944, Note_on_c, 0, 79, 80
2, 56959, Note_on_c, 0, 79, 0
2, 56960, Note_on_c, 0, 77, 80
2, 56975, Note_on_c, 0, 77, 0
2, 56976, Note_on_c, 0, 76, 80
2, 56991, Note_on_c, 0, 76, 0
2, 56992, Note_on_c, 0, 74, 80
2, 57007, Note_on_c, 0, 74, 0
2, 57008, Note_on_c, 0, 73, 80
2, 57023, Note_on_c, 0, 73, 0
2, 57024, Note_on_c, 0, 74, 80
2, 57069, Note_on_c, 0, 74, 0
2, 57144, Note_on_c, 0, 77, 64
2, 57167, Note_on_c, 0, 77, 0
2, 57168, Note_on_c, 0, 81, 64
2, 57191, Note_on_c, 0, 81, 0
2, 57192, Note_on_c, 0, 86, 64
2, 57215, Note_on_c, 0, 86, 0
2, 57216, Note_on_c, 0, 89, 64
2, 57236, Note_on_c, 0, 89, 0
2, 57288, Note_on_c, 0, 49, 80
2, 57311, Note_on_c, 0, 49, 0
2, 57312, Note_on_c, 0, 50, 80
2, 57335, Note_on_c, 0, 50, 0
2, 57336, Note_on_c, 0, 49, 80
2, 57359, Note_on_c, 0, 49, 0
2, 57360, Note_on_c, 0, 50, 80
2, 57383, Note_on_c, 0, 50, 0
2, 57384, Note_on_c, 0, 49, 80
2, 57407, Note_on_c, 0, 49, 0
2, 57408, Note_on_c, 0, 50, 80
2, 57428, Note_on_c, 0, 50, 0
2, 57480, Note_on_c, 0, 73, 64
2, 57503, Note_on_c, 0, 73, 0
2, 57504, Note_on_c, 0, 74, 64
2, 57527, Note_on_c, 0, 74, 0
2, 57528, Note_on_c, 0, 73, 64
2, 57551, Note_on_c, 0, 73, 0
2, 57552, Note_on_c, 0, 74, 64
2, 57575, Note_on_c, 0, 74, 0
2, 57576, Note_on_c, 0, 76, 64
2, 57599, Note_on_c, 0, 76, 0
2, 57600, Note_on_c, 0, 77, 64
2, 57645, Note_on_c, 0, 77, 0
2, 57672, Note_on_c, 0, 76, 64
2, 57695, Note_on_c, 0, 76, 0
2, 57696, Note_on_c, 0, 77, 64
2, 57719, Note_on_c, 0, 77, 0
2, 57720, Note_on_c, 0, 76, 64
2, 57743, Note_on_c, 0, 76, 0
2, 57744, Note_on_c, 0, 77, 64
2, 57767, Note_on_c, 0, 77, 0
2, 57768, Note_on_c, 0, 79, 64
2, 57791, Note_on_c, 0, 79, 0
2, 57792, Note_on_c, 0, 80, 64
2, 57837, Note_on_c, 0, 80, 0
2, 57864, Note_on_c, 0, 56, 80
2, 57887, Note_on_c, 0, 56, 0
2, 57888, Note_on_c, 0, 55, 80
2, 57911, Note_on_c, 0, 55, 0
2, 57912, Note_on_c, 0, 56, 80
2, 57935, Note_on_c, 0, 56, 0
2, 57936, Note_on_c, 0, 55, 80
2, 57959, Note_on_c, 0, 55, 0
2, 57960, Note_on_c, 0, 56, 80
2, 57983, Note_on_c, 0, 56, 0
2, 57984, Note_on_c, 0, 55, 80
2, 58004, Note_on_c, 0, 55, 0
2, 58056, Note_on_c, 0, 64, 70
2, 58079, Note_on_c, 0, 64, 0
2, 58080, Note_on_c, 0, 65, 70
2, 58103, Note_on_c, 0, 65, 0
2, 58104, Note_on_c, 0, 64, 70
2, 58127, Note_on_c, 0, 64, 0
2, 58128, Note_on_c, 0, 65, 70
2, 58151, Note_on_c, 0, 65, 0
2, 58152, Note_on_c, 0, 64, 70
2, 58175, Note_on_c, 0, 64, 0
2, 58176, Note_on_c, 0, 65, 70
2, 58221, Note_on_c, 0, 65, 0
2, 58272, Note_on_c, 0, 77, 75
2, 58272, Note_on_c, 0, 74, 75
2, 58320, Note_on_c, 0, 77, 0
2, 58320, Note_on_c, 0, 74, 0
2, 58320, Note_on_c, 0, 76, 75
2, 58320, Note_on_c, 0, 72, 75
2, 58365, Note_on_c, 0, 76, 0
2, 58365, Note_on_c, 0, 72, 0
2, 58368, Note_on_c, 0, 74, 75
2, 58368, Note_on_c, 0, 71, 75
2, 58413, Note_on_c, 0, 74, 0
2, 58413, Note_on_c, 0, 71, 0
2, 58464, Note_on_c, 0, 86, 80
2, 58464, Note_on_c, 0, 77, 80
2, 58512, Note_on_c, 0, 86, 0
2, 58512, Note_on_c, 0, 77, 0
2, 58512, Note_on_c, 0, 84, 80
2, 58512, Note_on_c, 0, 76, 80
2, 58532, Note_on_c, 0, 84, 0
2, 58532, Note_on_c, 0, 76, 0
2, 58560, Note_on_c, 0, 83, 80
2, 58560, Note_on_c, 0, 74, 80
2, 58580, Note_on_c, 0, 83, 0
2, 58580, Note_on_c, 0, 74, 0
2, 58656, Note_on_c, 0, 89, 86
2, 58656, Note_on_c, 0, 86, 86
2, 58656, Note_on_c, 0, 83, 86
2, 58656, Note_on_c, 0, 79, 86
2, 58701, Note_on_c, 0, 89, 0
2, 58701, Note_on_c, 0, 86, 0
2, 58701, Note_on_c, 0, 83, 0
2, 58701, Note_on_c, 0, 79, 0
2, 58704, Note_on_c, 0, 89, 86
2, 58704, Note_on_c, 0, 86, 86
2, 58704, Note_on_c, 0, 83, 86
2, 58704, Note_on_c, 0, 79, 86
2, 58749, Note_on_c, 0, 89, 0
2, 58749, Note_on_c, 0, 86, 0
2, 58749, Note_on_c, 0, 83, 0
2, 58749, Note_on_c, 0, 79, 0
2, 58752, Note_on_c, 0, 89, 86
2, 58752, Note_on_c, 0, 86, 86
2, 58752, Note_on_c, 0, 83, 86
2, 58752, Note_on_c, 0, 79, 86
2, 58929, Note_on_c, 0, 89, 0
2, 58929, Note_on_c, 0, 86, 0
2, 58929, Note_on_c, 0, 83, 0
2, 58929, Note_on_c, 0, 79, 0
2, 59136, Note_on_c, 0, 72, 64
2, 59156, Note_on_c, 0, 72, 0
2, 59232, Note_on_c, 0, 67, 64
2, 59252, Note_on_c, 0, 67, 0
2, 59328, Note_on_c, 0, 64, 64
2, 59348, Note_on_c, 0, 64, 0
2, 59472, Note_on_c, 0, 69, 64
2, 59520, Note_on_c, 0, 69, 0
2, 59520, Note_on_c, 0, 62, 64
2, 59540, Note_on_c, 0, 62, 0
2, 59664, Note_on_c, 0, 67, 64
2, 59712, Note_on_c, 0, 67, 0
2, 59712, Note_on_c, 0, 60, 64
2, 59732, Note_on_c, 0, 60, 0
2, 59856, Note_on_c, 0, 76, 64
2, 59904, Note_on_c, 0, 76, 0
2, 59904, Note_on_c, 0, 65, 64
2, 59924, Note_on_c, 0, 65, 0
2, 60024, Note_on_c, 0, 74, 64
2, 60047, Note_on_c, 0, 74, 0
2, 60048, Note_on_c, 0, 65, 64
2, 60071, Note_on_c, 0, 65, 0
2, 60072, Note_on_c, 0, 74, 64
2, 60095, Note_on_c, 0, 74, 0
2, 60096, Note_on_c, 0, 64, 64
2, 60141, Note_on_c, 0, 64, 0
2, 60216, Note_on_c, 0, 72, 64
2, 60239, Note_on_c, 0, 72, 0
2, 60240, Note_on_c, 0, 64, 64
2, 60263, Note_on_c, 0, 64, 0
2, 60264, Note_on_c, 0, 72, 64
2, 60287, Note_on_c, 0, 72, 0
2, 60288, Note_on_c, 0, 62, 64
2, 60336, Note_on_c, 0, 62, 0
2, 60336, Note_on_c, 0, 69, 64
2, 60381, Note_on_c, 0, 69, 0
2, 60384, Note_on_c, 0, 57, 64
2, 60432, Note_on_c, 0, 57, 0
2, 60432, Note_on_c, 0, 59, 64
2, 60477, Note_on_c, 0, 59, 0
2, 60480, Note_on_c, 0, 62, 64
2, 60528, Note_on_c, 0, 62, 0
2, 60528, Note_on_c, 0, 60, 64
2, 60573, Note_on_c, 0, 60, 0
2, 60624, Note_on_c, 0, 62, 64
2, 60624, Note_on_c, 0, 59, 64
2, 60644, Note_on_c, 0, 62, 0
2, 60644, Note_on_c, 0, 59, 0
2, 60672, Note_on_c, 0, 65, 64
2, 60672, Note_on_c, 0, 62, 64
2, 60720, Note_on_c, 0, 65, 0
2, 60720, Note_on_c, 0, 62, 0
2, 60720, Note_on_c, 0, 64, 64
2, 60720, Note_on_c, 0, 60, 64
2, 60765, Note_on_c, 0, 64, 0
2, 60765, Note_on_c, 0, 60, 0
2, 60816, Note_on_c, 0, 65, 64
2, 60816, Note_on_c, 0, 62, 64
2, 60836, Note_on_c, 0, 65, 0
2, 60836, Note_on_c, 0, 62, 0
2, 60864, Note_on_c, 0, 69, 64
2, 60864, Note_on_c, 0, 65, 64
2, 60912, Note_on_c, 0, 69, 0
2, 60912, Note_on_c, 0, 65, 0
2, 60912, Note_on_c, 0, 67, 64
2, 60912, Note_on_c, 0, 64, 64
2, 60957, Note_on_c, 0, 67, 0
2, 60957, Note_on_c, 0, 64, 0
2, 60984, Note_on_c, 0, 71, 67
2, 61007, Note_on_c, 0, 71, 0
2, 61008, Note_on_c, 0, 62, 68
2, 61031, Note_on_c, 0, 62, 0
2, 61032, Note_on_c, 0, 71, 69
2, 61055, Note_on_c, 0, 71, 0
2, 61056, Note_on_c, 0, 74, 70
2, 61056, Note_on_c, 0, 65, 70
2, 61104, Note_on_c, 0, 74, 0
2, 61104, Note_on_c, 0, 65, 0
2, 61104, Note_on_c, 0, 72, 73
2, 61104, Note_on_c, 0, 64, 73
2, 61149, Note_on_c, 0, 72, 0
2, 61149, Note_on_c, 0, 64, 0
2, 61200, Note_on_c, 0, 74, 77
2, 61200, Note_on_c, 0, 71, 77
2, 61220, Note_on_c, 0, 74, 0
2, 61220, Note_on_c, 0, 71, 0
2, 61248, Note_on_c, 0, 77, 98
2, 61248, Note_on_c, 0, 74, 98
2, 61344, Note_on_c, 0, 77, 0
2, 61344, Note_on_c, 0, 74, 0
2, 61344, Note_on_c, 0, 76, 64
2, 61344, Note_on_c, 0, 72, 64
2, 61359, Note_on_c, 0, 76, 0
2, 61359, Note_on_c, 0, 72, 0
2, 61440, Note_on_c, 0, 72, 80
2, 61446, Note_on_c, 0, 76, 80
2, 61452, Note_on_c, 0, 79, 80
2, 61458, Note_on_c, 0, 84, 80
2, 61485, Note_on_c, 0, 84, 0
2, 61485, Note_on_c, 0, 79, 0
2, 61485, Note_on_c, 0, 76, 0
2, 61485, Note_on_c, 0, 72, 0
2, 61536, Note_on_c, 0, 71, 80
2, 61544, Note_on_c, 0, 74, 80
2, 61552, Note_on_c, 0, 79, 80
2, 61581, Note_on_c, 0, 79, 0
2, 61581, Note_on_c, 0, 74, 0
2, 61581, Note_on_c, 0, 71, 0
2, 61632, Note_on_c, 0, 67, 80
2, 61640, Note_on_c, 0, 72, 80
2, 61648, Note_on_c, 0, 76, 80
2, 61677, Note_on_c, 0, 76, 0
2, 61677, Note_on_c, 0, 72, 0
2, 61677, Note_on_c, 0, 67, 0
2, 61776, Note_on_c, 0, 83, 75
2, 61788, Note_on_c, 0, 83, 0
2, 61788, Note_on_c, 0, 81, 75
2, 61800, Note_on_c, 0, 81, 0
2, 61800, Note_on_c, 0, 80, 75
2, 61812, Note_on_c, 0, 80, 0
2, 61812, Note_on_c, 0, 81, 75
2, 61824, Note_on_c, 0, 81, 0
2, 61824, Note_on_c, 0, 74, 75
2, 61844, Note_on_c, 0, 74, 0
2, 61968, Note_on_c, 0, 81, 75
2, 61980, Note_on_c, 0, 81, 0
2, 61980, Note_on_c, 0, 79, 75
2, 61992, Note_on_c, 0, 79, 0
2, 61992, Note_on_c, 0, 78, 75
2, 62004, Note_on_c, 0, 78, 0
2, 62004, Note_on_c, 0, 79, 75
2, 62016, Note_on_c, 0, 79, 0
2, 62016, Note_on_c, 0, 72, 75
2, 62036, Note_on_c, 0, 72, 0
2, 62160, Note_on_c, 0, 88, 75
2, 62208, Note_on_c, 0, 88, 0
2, 62208, Note_on_c, 0, 77, 75
2, 62228, Note_on_c, 0, 77, 0
2, 62352, Note_on_c, 0, 86, 75
2, 62400, Note_on_c, 0, 86, 0
2, 62400, Note_on_c, 0, 76, 75
2, 62420, Note_on_c, 0, 76, 0
2, 62544, Note_on_c, 0, 84, 75
2, 62592, Note_on_c, 0, 84, 0
2, 62592, Note_on_c, 0, 74, 75
2, 62612, Note_on_c, 0, 74, 0
2, 62640, Note_on_c, 0, 81, 75
2, 62640, Note_on_c, 0, 77, 75
2, 62685, Note_on_c, 0, 81, 0
2, 62685, Note_on_c, 0, 77, 0
2, 62688, Note_on_c, 0, 79, 75
2, 62688, Note_on_c, 0, 76, 75
2, 62736, Note_on_c, 0, 79, 0
2, 62736, Note_on_c, 0, 76, 0
2, 62736, Note_on_c, 0, 71, 75
2, 62781, Note_on_c, 0, 71, 0
2, 62784, Note_on_c, 0, 72, 75
2, 62804, Note_on_c, 0, 72, 0
2, 62832, Note_on_c, 0, 72, 75
2, 62852, Note_on_c, 0, 72, 0
2, 62928, Note_on_c, 0, 81, 80
2, 62940, Note_on_c, 0, 81, 0
2, 62940, Note_on_c, 0, 79, 80
2, 62952, Note_on_c, 0, 79, 0
2, 62952, Note_on_c, 0, 78, 80
2, 62964, Note_on_c, 0, 78, 0
2, 62964, Note_on_c, 0, 79, 80
2, 62976, Note_on_c, 0, 79, 0
2, 62976, Note_on_c, 0, 71, 80
2, 62996, Note_on_c, 0, 71, 0
2, 63024, Note_on_c, 0, 71, 80
2, 63044, Note_on_c, 0, 71, 0
2, 63120, Note_on_c, 0, 81, 80
2, 63132, Note_on_c, 0, 81, 0
2, 63132, Note_on_c, 0, 79, 80
2, 63144, Note_on_c, 0, 79, 0
2, 63144, Note_on_c, 0, 78, 80
2, 63156, Note_on_c, 0, 78, 0
2, 63156, Note_on_c, 0, 79, 80
2, 63168, Note_on_c, 0, 79, 0
2, 63168, Note_on_c, 0, 84, 80
2, 63216, Note_on_c, 0, 84, 0
2, 63216, Note_on_c, 0, 88, 80
2, 63261, Note_on_c, 0, 88, 0
2, 63288, Note_on_c, 0, 79, 70
2, 63311, Note_on_c, 0, 79, 0
2, 63312, Note_on_c, 0, 81, 70
2, 63324, Note_on_c, 0, 81, 0
2, 63324, Note_on_c, 0, 79, 70
2, 63336, Note_on_c, 0, 79, 0
2, 63336, Note_on_c, 0, 78, 70
2, 63348, Note_on_c, 0, 78, 0
2, 63348, Note_on_c, 0, 79, 70
2, 63360, Note_on_c, 0, 79, 0
2, 63360, Note_on_c, 0, 71, 70
2, 63380, Note_on_c, 0, 71, 0
2, 63408, Note_on_c, 0, 71, 70
2, 63428, Note_on_c, 0, 71, 0
2, 63480, Note_on_c, 0, 79, 70
2, 63503, Note_on_c, 0, 79, 0
2, 63504, Note_on_c, 0, 81, 70
2, 63516, Note_on_c, 0, 81, 0
2, 63516, Note_on_c, 0, 79, 70
2, 63528, Note_on_c, 0, 79, 0
2, 63528, Note_on_c, 0, 78, 70
2, 63540, Note_on_c, 0, 78, 0
2, 63540, Note_on_c, 0, 79, 70
2, 63552, Note_on_c, 0, 79, 0
2, 63552, Note_on_c, 0, 84, 70
2, 63600, Note_on_c, 0, 84, 0
2, 63600, Note_on_c, 0, 88, 70
2, 63645, Note_on_c, 0, 88, 0
2, 63672, Note_on_c, 0, 79, 80
2, 63695, Note_on_c, 0, 79, 0
2, 63696, Note_on_c, 0, 81, 80
2, 63708, Note_on_c, 0, 81, 0
2, 63708, Note_on_c, 0, 79, 80
2, 63720, Note_on_c, 0, 79, 0
2, 63720, Note_on_c, 0, 78, 80
2, 63732, Note_on_c, 0, 78, 0
2, 63732, Note_on_c, 0, 79, 80
2, 63744, Note_on_c, 0, 79, 0
2, 63744, Note_on_c, 0, 71, 80
2, 63764, Note_on_c, 0, 71, 0
2, 63792, Note_on_c, 0, 71, 80
2, 63812, Note_on_c, 0, 71, 0
2, 63888, Note_on_c, 0, 81, 80
2, 63900, Note_on_c, 0, 81, 0
2, 63900, Note_on_c, 0, 79, 80
2, 63912, Note_on_c, 0, 79, 0
2, 63912, Note_on_c, 0, 78, 80
2, 63924, Note_on_c, 0, 78, 0
2, 63924, Note_on_c, 0, 79, 80
2, 63936, Note_on_c, 0, 79, 0
2, 63936, Note_on_c, 0, 72, 80
2, 63956, Note_on_c, 0, 72, 0
2, 63984, Note_on_c, 0, 81, 80
2, 63996, Note_on_c, 0, 81, 0
2, 63996, Note_on_c, 0, 79, 80
2, 64008, Note_on_c, 0, 79, 0
2, 64008, Note_on_c, 0, 78, 80
2, 64020, Note_on_c, 0, 78, 0
2, 64020, Note_on_c, 0, 79, 80
2, 64032, Note_on_c, 0, 79, 0
2, 64032, Note_on_c, 0, 74, 80
2, 64052, Note_on_c, 0, 74, 0
2, 64080, Note_on_c, 0, 81, 80
2, 64092, Note_on_c, 0, 81, 0
2, 64092, Note_on_c, 0, 79, 80
2, 64104, Note_on_c, 0, 79, 0
2, 64104, Note_on_c, 0, 78, 80
2, 64116, Note_on_c, 0, 78, 0
2, 64116, Note_on_c, 0, 79, 80
2, 64128, Note_on_c, 0, 79, 0
2, 64128, Note_on_c, 0, 76, 80
2, 64148, Note_on_c, 0, 76, 0
2, 64176, Note_on_c, 0, 81, 80
2, 64188, Note_on_c, 0, 81, 0
2, 64188, Note_on_c, 0, 79, 80
2, 64200, Note_on_c, 0, 79, 0
2, 64200, Note_on_c, 0, 78, 80
2, 64212, Note_on_c, 0, 78, 0
2, 64212, Note_on_c, 0, 79, 80
2, 64224, Note_on_c, 0, 79, 0
2, 64224, Note_on_c, 0, 71, 80
2, 64244, Note_on_c, 0, 71, 0
2, 64272, Note_on_c, 0, 80, 80
2, 64284, Note_on_c, 0, 80, 0
2, 64284, Note_on_c, 0, 79, 80
2, 64296, Note_on_c, 0, 79, 0
2, 64296, Note_on_c, 0, 78, 80
2, 64308, Note_on_c, 0, 78, 0
2, 64308, Note_on_c, 0, 79, 80
2, 64320, Note_on_c, 0, 79, 0
2, 64320, Note_on_c, 0, 72, 75
2, 64340, Note_on_c, 0, 72, 0
2, 64368, Note_on_c, 0, 80, 75
2, 64380, Note_on_c, 0, 80, 0
2, 64380, Note_on_c, 0, 79, 75
2, 64392, Note_on_c, 0, 79, 0
2, 64392, Note_on_c, 0, 78, 75
2, 64404, Note_on_c, 0, 78, 0
2, 64404, Note_on_c, 0, 79, 76
2, 64416, Note_on_c, 0, 79, 0
2, 64416, Note_on_c, 0, 74, 76
2, 64436, Note_on_c, 0, 74, 0
2, 64464, Note_on_c, 0, 80, 76
2, 64476, Note_on_c, 0, 80, 0
2, 64476, Note_on_c, 0, 79, 76
2, 64488, Note_on_c, 0, 79, 0
2, 64488, Note_on_c, 0, 78, 77
2, 64500, Note_on_c, 0, 78, 0
2, 64500, Note_on_c, 0, 79, 77
2, 64512, Note_on_c, 0, 79, 0
2, 64512, Note_on_c, 0, 75, 77
2, 64532, Note_on_c, 0, 75, 0
2, 64560, Note_on_c, 0, 86, 77
2, 64572, Note_on_c, 0, 86, 0
2, 64572, Note_on_c, 0, 84, 78
2, 64584, Note_on_c, 0, 84, 0
2, 64584, Note_on_c, 0, 83, 78
2, 64596, Note_on_c, 0, 83, 0
2, 64596, Note_on_c, 0, 84, 78
2, 64608, Note_on_c, 0, 84, 0
2, 64608, Note_on_c, 0, 79, 78
2, 64628, Note_on_c, 0, 79, 0
2, 64656, Note_on_c, 0, 89, 79
2, 64668, Note_on_c, 0, 89, 0
2, 64668, Note_on_c, 0, 87, 79
2, 64680, Note_on_c, 0, 87, 0
2, 64680, Note_on_c, 0, 86, 79
2, 64692, Note_on_c, 0, 86, 0
2, 64692, Note_on_c, 0, 87, 79
2, 64704, Note_on_c, 0, 87, 0
2, 64728, Note_on_c, 0, 83, 80
2, 64751, Note_on_c, 0, 83, 0
2, 64752, Note_on_c, 0, 86, 80
2, 64775, Note_on_c, 0, 86, 0
2, 64776, Note_on_c, 0, 84, 80
2, 64799, Note_on_c, 0, 84, 0
2, 64800, Note_on_c, 0, 82, 80
2, 64823, Note_on_c, 0, 82, 0
2, 64824, Note_on_c, 0, 80, 80
2, 64847, Note_on_c, 0, 80, 0
2, 64848, Note_on_c, 0, 79, 80
2, 64871, Note_on_c, 0, 79, 0
2, 64872, Note_on_c, 0, 78, 80
2, 64895, Note_on_c, 0, 78, 0
2, 64896, Note_on_c, 0, 79, 80
2, 64919, Note_on_c, 0, 79, 0
2, 64920, Note_on_c, 0, 78, 80
2, 64943, Note_on_c, 0, 78, 0
2, 64944, Note_on_c, 0, 79, 80
2, 64967, Note_on_c, 0, 79, 0
2, 64968, Note_on_c, 0, 74, 80
2, 64991, Note_on_c, 0, 74, 0
2, 64992, Note_on_c, 0, 75, 80
2, 65015, Note_on_c, 0, 75, 0
2, 65016, Note_on_c, 0, 74, 80
2, 65039, Note_on_c, 0, 74, 0
2, 65040, Note_on_c, 0, 75, 80
2, 65063, Note_on_c, 0, 75, 0
2, 65064, Note_on_c, 0, 71, 80
2, 65087, Note_on_c, 0, 71, 0
2, 65088, Note_on_c, 0, 72, 80
2, 65111, Note_on_c, 0, 72, 0
2, 65112, Note_on_c, 0, 71, 80
2, 65135, Note_on_c, 0, 71, 0
2, 65136, Note_on_c, 0, 72, 80
2, 65159, Note_on_c, 0, 72, 0
2, 65160, Note_on_c, 0, 67, 80
2, 65183, Note_on_c, 0, 67, 0
2, 65184, Note_on_c, 0, 68, 80
2, 65207, Note_on_c, 0, 68, 0
2, 65208, Note_on_c, 0, 67, 80
2, 65231, Note_on_c, 0, 67, 0
2, 65232, Note_on_c, 0, 68, 80
2, 65255, Note_on_c, 0, 68, 0
2, 65256, Note_on_c, 0, 66, 80
2, 65279, Note_on_c, 0, 66, 0
2, 65280, Note_on_c, 0, 67, 80
2, 65303, Note_on_c, 0, 67, 0
2, 65304, Note_on_c, 0, 66, 80
2, 65327, Note_on_c, 0, 66, 0
2, 65328, Note_on_c, 0, 67, 80
2, 65351, Note_on_c, 0, 67, 0
2, 65352, Note_on_c, 0, 62, 80
2, 65375, Note_on_c, 0, 62, 0
2, 65376, Note_on_c, 0, 63, 80
2, 65399, Note_on_c, 0, 63, 0
2, 65400, Note_on_c, 0, 62, 80
2, 65423, Note_on_c, 0, 62, 0
2, 65424, Note_on_c, 0, 63, 80
2, 65447, Note_on_c, 0, 63, 0
2, 65448, Note_on_c, 0, 59, 80
2, 65471, Note_on_c, 0, 59, 0
2, 65472, Note_on_c, 0, 60, 80
2, 65495, Note_on_c, 0, 60, 0
2, 65496, Note_on_c, 0, 59, 80
2, 65519, Note_on_c, 0, 59, 0
2, 65520, Note_on_c, 0, 60, 80
2, 65543, Note_on_c, 0, 60, 0
2, 65544, Note_on_c, 0, 55, 80
2, 65567, Note_on_c, 0, 55, 0
2, 65568, Note_on_c, 0, 56, 80
2, 65591, Note_on_c, 0, 56, 0
2, 65592, Note_on_c, 0, 55, 80
2, 65615, Note_on_c, 0, 55, 0
2, 65616, Note_on_c, 0, 56, 80
2, 65639, Note_on_c, 0, 56, 0
2, 65640, Note_on_c, 0, 54, 80
2, 65663, Note_on_c, 0, 54, 0
2, 66048, Control_c, 0, 64, 127
2, 66096, Note_on_c, 0, 76, 58
2, 66185, Note_on_c, 0, 76, 0
2, 66192, Note_on_c, 0, 79, 58
2, 66281, Note_on_c, 0, 79, 0
2, 66288, Note_on_c, 0, 84, 58
2, 66377, Note_on_c, 0, 84, 0
2, 66384, Note_on_c, 0, 85, 58
2, 66477, Note_on_c, 0, 85, 0
2, 66480, Note_on_c, 0, 86, 58
2, 66569, Note_on_c, 0, 86, 0
2, 66576, Note_on_c, 0, 83, 58
2, 66665, Note_on_c, 0, 83, 0
2, 66672, Note_on_c, 0, 84, 58
2, 66761, Note_on_c, 0, 84, 0
2, 67584, Control_c, 0, 64, 0
2, 67632, Note_on_c, 0, 74, 60
2, 67728, Note_on_c, 0, 74, 0
2, 67728, Note_on_c, 0, 72, 66
2, 67773, Note_on_c, 0, 72, 0
2, 67776, Note_on_c, 0, 71, 68
2, 67799, Note_on_c, 0, 71, 0
2, 67800, Note_on_c, 0, 79, 70
2, 67823, Note_on_c, 0, 79, 0
2, 67824, Note_on_c, 0, 77, 70
2, 67847, Note_on_c, 0, 77, 0
2, 67848, Note_on_c, 0, 74, 70
2, 67871, Note_on_c, 0, 74, 0
2, 67872, Note_on_c, 0, 71, 70
2, 67917, Note_on_c, 0, 71, 0
2, 67992, Note_on_c, 0, 79, 70
2, 68015, Note_on_c, 0, 79, 0
2, 68016, Note_on_c, 0, 76, 70
2, 68039, Note_on_c, 0, 76, 0
2, 68040, Note_on_c, 0, 72, 70
2, 68063, Note_on_c, 0, 72, 0
2, 68064, Note_on_c, 0, 67, 70
2, 68109, Note_on_c, 0, 67, 0
2, 68184, Note_on_c, 0, 79, 70
2, 68207, Note_on_c, 0, 79, 0
2, 68208, Note_on_c, 0, 77, 70
2, 68231, Note_on_c, 0, 77, 0
2, 68232, Note_on_c, 0, 74, 70
2, 68255, Note_on_c, 0, 74, 0
2, 68256, Note_on_c, 0, 71, 70
2, 68301, Note_on_c, 0, 71, 0
2, 68376, Note_on_c, 0, 76, 70
2, 68400, Note_on_c, 0, 76, 0
2, 68400, Note_on_c, 0, 72, 70
2, 68423, Note_on_c, 0, 72, 0
2, 68472, Note_on_c, 0, 79, 64
2, 68496, Note_on_c, 0, 79, 0
2, 68496, Note_on_c, 0, 76, 65
2, 68519, Note_on_c, 0, 76, 0
2, 68568, Note_on_c, 0, 84, 68
2, 68592, Note_on_c, 0, 84, 0
2, 68592, Note_on_c, 0, 79, 69
2, 68615, Note_on_c, 0, 79, 0
2, 68664, Note_on_c, 0, 88, 72
2, 68688, Note_on_c, 0, 88, 0
2, 68688, Note_on_c, 0, 84, 73
2, 68711, Note_on_c, 0, 84, 0
2, 68760, Note_on_c, 0, 83, 75
2, 68784, Note_on_c, 0, 83, 0
2, 68784, Note_on_c, 0, 84, 75
2, 68807, Note_on_c, 0, 84, 0
2, 68856, Note_on_c, 0, 80, 75
2, 68880, Note_on_c, 0, 80, 0
2, 68880, Note_on_c, 0, 81, 75
2, 68903, Note_on_c, 0, 81, 0
2, 68952, Note_on_c, 0, 76, 75
2, 68976, Note_on_c, 0, 76, 0
2, 68976, Note_on_c, 0, 77, 75
2, 68999, Note_on_c, 0, 77, 0
2, 69048, Note_on_c, 0, 73, 75
2, 69072, Note_on_c, 0, 73, 0
2, 69072, Note_on_c, 0, 74, 75
2, 69095, Note_on_c, 0, 74, 0
2, 69144, Note_on_c, 0, 67, 75
2, 69167, Note_on_c, 0, 67, 0
2, 69168, Note_on_c, 0, 68, 75
2, 69191, Note_on_c, 0, 68, 0
2, 69192, Note_on_c, 0, 69, 75
2, 69215, Note_on_c, 0, 69, 0
2, 69216, Note_on_c, 0, 70, 75
2, 69239, Note_on_c, 0, 70, 0
2, 69240, Note_on_c, 0, 71, 75
2, 69263, Note_on_c, 0, 71, 0
2, 69264, Note_on_c, 0, 72, 75
2, 69287, Note_on_c, 0, 72, 0
2, 69288, Note_on_c, 0, 73, 75
2, 69311, Note_on_c, 0, 73, 0
2, 69312, Note_on_c, 0, 74, 75
2, 69335, Note_on_c, 0, 74, 0
2, 69336, Note_on_c, 0, 75, 75
2, 69359, Note_on_c, 0, 75, 0
2, 69360, Note_on_c, 0, 76, 75
2, 69383, Note_on_c, 0, 76, 0
2, 69384, Note_on_c, 0, 77, 75
2, 69407, Note_on_c, 0, 77, 0
2, 69408, Note_on_c, 0, 78, 75
2, 69431, Note_on_c, 0, 78, 0
2, 69432, Note_on_c, 0, 79, 75
2, 69455, Note_on_c, 0, 79, 0
2, 69456, Note_on_c, 0, 76, 75
2, 69479, Note_on_c, 0, 76, 0
2, 69480, Note_on_c, 0, 72, 75
2, 69503, Note_on_c, 0, 72, 0
2, 69504, Note_on_c, 0, 76, 96
2, 69517, Note_on_c, 0, 76, 0
2, 69517, Note_on_c, 0, 74, 80
2, 69529, Note_on_c, 0, 74, 0
2, 69530, Note_on_c, 0, 76, 80
2, 69542, Note_on_c, 0, 76, 0
2, 69543, Note_on_c, 0, 74, 80
2, 69555, Note_on_c, 0, 74, 0
2, 69556, Note_on_c, 0, 76, 80
2, 69568, Note_on_c, 0, 76, 0
2, 69569, Note_on_c, 0, 74, 80
2, 69581, Note_on_c, 0, 74, 0
2, 69582, Note_on_c, 0, 76, 80
2, 69594, Note_on_c, 0, 76, 0
2, 69595, Note_on_c, 0, 74, 80
2, 69607, Note_on_c, 0, 74, 0
2, 69608, Note_on_c, 0, 76, 80
2, 69620, Note_on_c, 0, 76, 0
2, 69621, Note_on_c, 0, 74, 80
2, 69633, Note_on_c, 0, 74, 0
2, 69634, Note_on_c, 0, 76, 80
2, 69646, Note_on_c, 0, 76, 0
2, 69647, Note_on_c, 0, 74, 80
2, 69659, Note_on_c, 0, 74, 0
2, 69660, Note_on_c, 0, 76, 80
2, 69672, Note_on_c, 0, 76, 0
2, 69673, Note_on_c, 0, 74, 80
2, 69685, Note_on_c, 0, 74, 0
2, 69686, Note_on_c, 0, 76, 80
2, 69698, Note_on_c, 0, 76, 0
2, 69699, Note_on_c, 0, 74, 80
2, 69711, Note_on_c, 0, 74, 0
2, 69712, Note_on_c, 0, 76, 80
2, 69724, Note_on_c, 0, 76, 0
2, 69725, Note_on_c, 0, 74, 80
2, 69737, Note_on_c, 0, 74, 0
2, 69738, Note_on_c, 0, 76, 80
2, 69750, Note_on_c, 0, 76, 0
2, 69751, Note_on_c, 0, 74, 80
2, 69763, Note_on_c, 0, 74, 0
2, 69764, Note_on_c, 0, 76, 80
2, 69776, Note_on_c, 0, 76, 0
2, 69777, Note_on_c, 0, 74, 80
2, 69789, Note_on_c, 0, 74, 0
2, 69790, Note_on_c, 0, 76, 80
2, 69802, Note_on_c, 0, 76, 0
2, 69803, Note_on_c, 0, 74, 80
2, 69815, Note_on_c, 0, 74, 0
2, 69816, Note_on_c, 0, 76, 80
2, 69828, Note_on_c, 0, 76, 0
2, 69828, Note_on_c, 0, 74, 80
2, 69840, Note_on_c, 0, 74, 0
2, 69840, Note_on_c, 0, 76, 80
2, 69852, Note_on_c, 0, 76, 0
2, 69852, Note_on_c, 0, 74, 80
2, 69864, Note_on_c, 0, 74, 0
2, 69864, Note_on_c, 0, 72, 80
2, 69876, Note_on_c, 0, 72, 0
2, 69876, Note_on_c, 0, 74, 80
2, 69888, Note_on_c, 0, 74, 0
2, 69912, Note_on_c, 0, 76, 75
2, 69912, Note_on_c, 0, 72, 75
2, 69936, Note_on_c, 0, 76, 0
2, 69936, Note_on_c, 0, 72, 0
2, 69936, Note_on_c, 0, 74, 75
2, 69936, Note_on_c, 0, 71, 75
2, 69946, Note_on_c, 0, 74, 0
2, 69946, Note_on_c, 0, 71, 0
2, 69960, Note_on_c, 0, 77, 76
2, 69960, Note_on_c, 0, 74, 76
2, 69984, Note_on_c, 0, 77, 0
2, 69984, Note_on_c, 0, 74, 0
2, 69984, Note_on_c, 0, 76, 77
2, 69984, Note_on_c, 0, 72, 77
2, 69994, Note_on_c, 0, 76, 0
2, 69994, Note_on_c, 0, 72, 0
2, 70008, Note_on_c, 0, 79, 77
2, 70008, Note_on_c, 0, 76, 77
2, 70032, Note_on_c, 0, 79, 0
2, 70032, Note_on_c, 0, 76, 0
2, 70032, Note_on_c, 0, 77, 78
2, 70032, Note_on_c, 0, 74, 78
2, 70042, Note_on_c, 0, 77, 0
2, 70042, Note_on_c, 0, 74, 0
2, 70056, Note_on_c, 0, 81, 79
2, 70056, Note_on_c, 0, 77, 79
2, 70080, Note_on_c, 0, 81, 0
2, 70080, Note_on_c, 0, 77, 0
2, 70080, Note_on_c, 0, 79, 96
2, 70080, Note_on_c, 0, 76, 96
2, 70100, Note_on_c, 0, 79, 0
2, 70100, Note_on_c, 0, 76, 0
2, 70152, Note_on_c, 0, 77, 74
2, 70152, Note_on_c, 0, 74, 74
2, 70176, Note_on_c, 0, 77, 0
2, 70176, Note_on_c, 0, 74, 0
2, 70176, Note_on_c, 0, 76, 72
2, 70176, Note_on_c, 0, 72, 72
2, 70196, Note_on_c, 0, 76, 0
2, 70196, Note_on_c, 0, 72, 0
2, 70248, Note_on_c, 0, 74, 66
2, 70248, Note_on_c, 0, 65, 66
2, 70272, Note_on_c, 0, 74, 0
2, 70272, Note_on_c, 0, 65, 0
2, 70272, Note_on_c, 0, 72, 64
2, 70272, Note_on_c, 0, 64, 64
2, 70282, Note_on_c, 0, 72, 0
2, 70282, Note_on_c, 0, 64, 0
2, 70296, Note_on_c, 0, 76, 66
2, 70296, Note_on_c, 0, 72, 66
2, 70320, Note_on_c, 0, 76, 0
2, 70320, Note_on_c, 0, 72, 0
2, 70320, Note_on_c, 0, 74, 68
2, 70320, Note_on_c, 0, 71, 68
2, 70330, Note_on_c, 0, 74, 0
2, 70330, Note_on_c, 0, 71, 0
2, 70344, Note_on_c, 0, 77, 70
2, 70344, Note_on_c, 0, 74, 70
2, 70368, Note_on_c, 0, 77, 0
2, 70368, Note_on_c, 0, 74, 0
2, 70368, Note_on_c, 0, 76, 72
2, 70368, Note_on_c, 0, 72, 72
2, 70378, Note_on_c, 0, 76, 0
2, 70378, Note_on_c, 0, 72, 0
2, 70392, Note_on_c, 0, 79, 74
2, 70392, Note_on_c, 0, 76, 74
2, 70416, Note_on_c, 0, 79, 0
2, 70416, Note_on_c, 0, 76, 0
2, 70416, Note_on_c, 0, 77, 76
2, 70416, Note_on_c, 0, 74, 76
2, 70426, Note_on_c, 0, 77, 0
2, 70426, Note_on_c, 0, 74, 0
2, 70440, Note_on_c, 0, 81, 78
2, 70440, Note_on_c, 0, 77, 78
2, 70464, Note_on_c, 0, 81, 0
2, 70464, Note_on_c, 0, 77, 0
2, 70464, Note_on_c, 0, 79, 96
2, 70464, Note_on_c, 0, 76, 96
2, 70484, Note_on_c, 0, 79, 0
2, 70484, Note_on_c, 0, 76, 0
2, 70536, Note_on_c, 0, 77, 74
2, 70536, Note_on_c, 0, 74, 74
2, 70560, Note_on_c, 0, 77, 0
2, 70560, Note_on_c, 0, 74, 0
2, 70560, Note_on_c, 0, 76, 72
2, 70560, Note_on_c, 0, 72, 72
2, 70580, Note_on_c, 0, 76, 0
2, 70580, Note_on_c, 0, 72, 0
2, 70632, Note_on_c, 0, 74, 66
2, 70632, Note_on_c, 0, 65, 66
2, 70656, Note_on_c, 0, 74, 0
2, 70656, Note_on_c, 0, 65, 0
2, 70656, Note_on_c, 0, 72, 64
2, 70656, Note_on_c, 0, 64, 64
2, 70666, Note_on_c, 0, 72, 0
2, 70666, Note_on_c, 0, 64, 0
2, 70680, Note_on_c, 0, 76, 66
2, 70680, Note_on_c, 0, 72, 66
2, 70704, Note_on_c, 0, 76, 0
2, 70704, Note_on_c, 0, 74, 68
2, 70714, Note_on_c, 0, 74, 0
2, 70714, Note_on_c, 0, 72, 0
2, 70728, Note_on_c, 0, 77, 70
2, 70728, Note_on_c, 0, 74, 70
2, 70752, Note_on_c, 0, 77, 0
2, 70752, Note_on_c, 0, 74, 0
2, 70752, Note_on_c, 0, 76, 72
2, 70752, Note_on_c, 0, 72, 72
2, 70762, Note_on_c, 0, 76, 0
2, 70762, Note_on_c, 0, 72, 0
2, 70776, Note_on_c, 0, 79, 74
2, 70776, Note_on_c, 0, 76, 74
2, 70800, Note_on_c, 0, 79, 0
2, 70800, Note_on_c, 0, 76, 0
2, 70800, Note_on_c, 0, 77, 76
2, 70800, Note_on_c, 0, 74, 76
2, 70810, Note_on_c, 0, 77, 0
2, 70810, Note_on_c, 0, 74, 0
2, 70824, Note_on_c, 0, 81, 78
2, 70824, Note_on_c, 0, 77, 78
2, 70848, Note_on_c, 0, 81, 0
2, 70848, Note_on_c, 0, 77, 0
2, 70848, Note_on_c, 0, 79, 96
2, 70848, Note_on_c, 0, 76, 96
2, 70868, Note_on_c, 0, 79, 0
2, 70868, Note_on_c, 0, 76, 0
2, 70920, Note_on_c, 0, 77, 74
2, 70920, Note_on_c, 0, 74, 74
2, 70944, Note_on_c, 0, 77, 0
2, 70944, Note_on_c, 0, 74, 0
2, 70944, Note_on_c, 0, 76, 72
2, 70944, Note_on_c, 0, 72, 72
2, 70964, Note_on_c, 0, 76, 0
2, 70964, Note_on_c, 0, 72, 0
2, 71016, Note_on_c, 0, 74, 66
2, 71016, Note_on_c, 0, 65, 66
2, 71040, Note_on_c, 0, 74, 0
2, 71040, Note_on_c, 0, 65, 0
2, 71040, Control_c, 0, 64, 127
2, 71040, Note_on_c, 0, 72, 70
2, 71040, Note_on_c, 0, 64, 70
2, 71232, Note_on_c, 0, 72, 0
2, 71232, Control_c, 0, 64, 0
2, 71232, Control_c, 0, 64, 127
2, 71232, Note_on_c, 0, 73, 70
2, 71424, Note_on_c, 0, 64, 0
2, 71513, Note_on_c, 0, 73, 0
2, 71520, Control_c, 0, 64, 0
2, 71520, Control_c, 0, 64, 127
2, 71520, Note_on_c, 0, 72, 70
2, 71609, Note_on_c, 0, 72, 0
2, 71616, Control_c, 0, 64, 0
2, 71616, Control_c, 0, 64, 127
2, 71616, Note_on_c, 0, 71, 88
2, 71793, Note_on_c, 0, 71, 0
2, 71808, Control_c, 0, 64, 0
2, 71808, Control_c, 0, 64, 127
2, 71808, Note_on_c, 0, 70, 70
2, 72000, Note_on_c, 0, 70, 0
2, 72000, Control_c, 0, 64, 0
2, 72000, Control_c, 0, 64, 127
2, 72000, Note_on_c, 0, 69, 70
2, 72177, Note_on_c, 0, 69, 0
2, 72192, Control_c, 0, 64, 0
2, 72192, Control_c, 0, 64, 127
2, 72192, Note_on_c, 0, 69, 70
2, 72369, Note_on_c, 0, 69, 0
2, 72384, Note_on_c, 0, 69, 88
2, 72561, Note_on_c, 0, 69, 0
2, 72576, Control_c, 0, 64, 0
2, 72576, Control_c, 0, 64, 127
2, 72576, Note_on_c, 0, 67, 70
2, 72960, Control_c, 0, 64, 0
2, 73005, Note_on_c, 0, 67, 0
2, 73008, Note_on_c, 0, 76, 80
2, 73008, Note_on_c, 0, 72, 80
2, 73008, Note_on_c, 0, 67, 80
2, 73028, Note_on_c, 0, 76, 0
2, 73028, Note_on_c, 0, 72, 0
2, 73028, Note_on_c, 0, 67, 0
2, 73056, Note_on_c, 0, 77, 80
2, 73056, Note_on_c, 0, 74, 80
2, 73056, Note_on_c, 0, 67, 80
2, 73076, Note_on_c, 0, 77, 0
2, 73076, Note_on_c, 0, 74, 0
2, 73076, Note_on_c, 0, 67, 0
2, 73104, Note_on_c, 0, 76, 80
2, 73104, Note_on_c, 0, 72, 80
2, 73104, Note_on_c, 0, 67, 80
2, 73124, Note_on_c, 0, 76, 0
2, 73124, Note_on_c, 0, 72, 0
2, 73124, Note_on_c, 0, 67, 0
2, 73152, Note_on_c, 0, 81, 80
2, 73152, Note_on_c, 0, 77, 80
2, 73152, Note_on_c, 0, 69, 80
2, 73172, Note_on_c, 0, 81, 0
2, 73172, Note_on_c, 0, 77, 0
2, 73172, Note_on_c, 0, 69, 0
2, 73248, Note_on_c, 0, 62, 64
2, 73282, Note_on_c, 0, 62, 0
2, 73284, Note_on_c, 0, 64, 64
2, 73296, Note_on_c, 0, 64, 0
2, 73296, Note_on_c, 0, 65, 64
2, 73330, Note_on_c, 0, 65, 0
2, 73332, Note_on_c, 0, 67, 64
2, 73344, Note_on_c, 0, 67, 0
2, 73344, Note_on_c, 0, 67, 64
2, 73344, Note_on_c, 0, 64, 64
2, 73389, Note_on_c, 0, 67, 0
2, 73389, Note_on_c, 0, 64, 0
2, 73392, Note_on_c, 0, 76, 80
2, 73392, Note_on_c, 0, 72, 80
2, 73392, Note_on_c, 0, 67, 80
2, 73412, Note_on_c, 0, 76, 0
2, 73412, Note_on_c, 0, 72, 0
2, 73412, Note_on_c, 0, 67, 0
2, 73440, Note_on_c, 0, 77, 80
2, 73440, Note_on_c, 0, 74, 80
2, 73440, Note_on_c, 0, 67, 80
2, 73460, Note_on_c, 0, 77, 0
2, 73460, Note_on_c, 0, 74, 0
2, 73460, Note_on_c, 0, 67, 0
2, 73488, Note_on_c, 0, 76, 80
2, 73488, Note_on_c, 0, 72, 80
2, 73488, Note_on_c, 0, 67, 80
2, 73508, Note_on_c, 0, 76, 0
2, 73508, Note_on_c, 0, 72, 0
2, 73508, Note_on_c, 0, 67, 0
2, 73536, Note_on_c, 0, 81, 80
2, 73536, Note_on_c, 0, 77, 80
2, 73536, Note_on_c, 0, 69, 80
2, 73556, Note_on_c, 0, 81, 0
2, 73556, Note_on_c, 0, 77, 0
2, 73556, Note_on_c, 0, 69, 0
2, 73632, Note_on_c, 0, 59, 64
2, 73647, Note_on_c, 0, 59, 0
2, 73648, Note_on_c, 0, 62, 64
2, 73663, Note_on_c, 0, 62, 0
2, 73664, Note_on_c, 0, 65, 64
2, 73679, Note_on_c, 0, 65, 0
2, 73680, Note_on_c, 0, 69, 64
2, 73695, Note_on_c, 0, 69, 0
2, 73696, Note_on_c, 0, 67, 64
2, 73711, Note_on_c, 0, 67, 0
2, 73712, Note_on_c, 0, 65, 64
2, 73727, Note_on_c, 0, 65, 0
2, 73728, Note_on_c, 0, 64, 64
2, 73748, Note_on_c, 0, 64, 0
2, 73776, Note_on_c, 0, 67, 80
2, 73791, Note_on_c, 0, 67, 0
2, 73792, Note_on_c, 0, 72, 80
2, 73807, Note_on_c, 0, 72, 0
2, 73808, Note_on_c, 0, 76, 80
2, 73823, Note_on_c, 0, 76, 0
2, 73824, Note_on_c, 0, 67, 80
2, 73839, Note_on_c, 0, 67, 0
2, 73840, Note_on_c, 0, 74, 80
2, 73855, Note_on_c, 0, 74, 0
2, 73856, Note_on_c, 0, 77, 80
2, 73871, Note_on_c, 0, 77, 0
2, 73872, Note_on_c, 0, 67, 80
2, 73887, Note_on_c, 0, 67, 0
2, 73888, Note_on_c, 0, 72, 80
2, 73903, Note_on_c, 0, 72, 0
2, 73904, Note_on_c, 0, 76, 80
2, 73919, Note_on_c, 0, 76, 0
2, 73920, Note_on_c, 0, 69, 80
2, 73935, Note_on_c, 0, 69, 0
2, 73936, Note_on_c, 0, 81, 80
2, 73951, Note_on_c, 0, 81, 0
2, 73952, Note_on_c, 0, 79, 80
2, 73967, Note_on_c, 0, 79, 0
2, 73968, Note_on_c, 0, 77, 80
2, 73983, Note_on_c, 0, 77, 0
2, 73984, Note_on_c, 0, 76, 80
2, 73999, Note_on_c, 0, 76, 0
2, 74000, Note_on_c, 0, 74, 80
2, 74015, Note_on_c, 0, 74, 0
2, 74016, Note_on_c, 0, 73, 80
2, 74031, Note_on_c, 0, 73, 0
2, 74032, Note_on_c, 0, 74, 80
2, 74047, Note_on_c, 0, 74, 0
2, 74048, Note_on_c, 0, 81, 80
2, 74063, Note_on_c, 0, 81, 0
2, 74064, Note_on_c, 0, 79, 80
2, 74079, Note_on_c, 0, 79, 0
2, 74080, Note_on_c, 0, 77, 80
2, 74095, Note_on_c, 0, 77, 0
2, 74096, Note_on_c, 0, 76, 80
2, 74111, Note_on_c, 0, 76, 0
2, 74112, Note_on_c, 0, 74, 80
2, 74127, Note_on_c, 0, 74, 0
2, 74128, Note_on_c, 0, 73, 79
2, 74143, Note_on_c, 0, 73, 0
2, 74144, Note_on_c, 0, 81, 79
2, 74159, Note_on_c, 0, 81, 0
2, 74160, Note_on_c, 0, 79, 79
2, 74175, Note_on_c, 0, 79, 0
2, 74176, Note_on_c, 0, 77, 79
2, 74191, Note_on_c, 0, 77, 0
2, 74192, Note_on_c, 0, 76, 79
2, 74207, Note_on_c, 0, 76, 0
2, 74208, Note_on_c, 0, 74, 79
2, 74223, Note_on_c, 0, 74, 0
2, 74224, Note_on_c, 0, 73, 78
2, 74239, Note_on_c, 0, 73, 0
2, 74240, Note_on_c, 0, 81, 78
2, 74255, Note_on_c, 0, 81, 0
2, 74256, Note_on_c, 0, 79, 78
2, 74271, Note_on_c, 0, 79, 0
2, 74272, Note_on_c, 0, 77, 78
2, 74287, Note_on_c, 0, 77, 0
2, 74288, Note_on_c, 0, 76, 78
2, 74303, Note_on_c, 0, 76, 0
2, 74304, Note_on_c, 0, 74, 78
2, 74319, Note_on_c, 0, 74, 0
2, 74320, Note_on_c, 0, 73, 77
2, 74335, Note_on_c, 0, 73, 0
2, 74336, Note_on_c, 0, 81, 77
2, 74351, Note_on_c, 0, 81, 0
2, 74352, Note_on_c, 0, 79, 77
2, 74367, Note_on_c, 0, 79, 0
2, 74368, Note_on_c, 0, 77, 77
2, 74383, Note_on_c, 0, 77, 0
2, 74384, Note_on_c, 0, 76, 77
2, 74399, Note_on_c, 0, 76, 0
2, 74400, Note_on_c, 0, 74, 77
2, 74415, Note_on_c, 0, 74, 0
2, 74416, Note_on_c, 0, 81, 77
2, 74431, Note_on_c, 0, 81, 0
2, 74432, Note_on_c, 0, 79, 76
2, 74447, Note_on_c, 0, 79, 0
2, 74448, Note_on_c, 0, 77, 76
2, 74463, Note_on_c, 0, 77, 0
2, 74464, Note_on_c, 0, 76, 76
2, 74479, Note_on_c, 0, 76, 0
2, 74480, Note_on_c, 0, 74, 76
2, 74495, Note_on_c, 0, 74, 0
2, 74496, Note_on_c, 0, 76, 75
2, 74511, Note_on_c, 0, 76, 0
2, 74512, Note_on_c, 0, 79, 75
2, 74527, Note_on_c, 0, 79, 0
2, 74528, Note_on_c, 0, 77, 75
2, 74543, Note_on_c, 0, 77, 0
2, 74544, Note_on_c, 0, 76, 75
2, 74559, Note_on_c, 0, 76, 0
2, 74560, Note_on_c, 0, 74, 76
2, 74575, Note_on_c, 0, 74, 0
2, 74576, Note_on_c, 0, 72, 76
2, 74591, Note_on_c, 0, 72, 0
2, 74592, Note_on_c, 0, 71, 76
2, 74607, Note_on_c, 0, 71, 0
2, 74608, Note_on_c, 0, 69, 77
2, 74623, Note_on_c, 0, 69, 0
2, 74624, Note_on_c, 0, 67, 77
2, 74639, Note_on_c, 0, 67, 0
2, 74640, Note_on_c, 0, 79, 77
2, 74655, Note_on_c, 0, 79, 0
2, 74656, Note_on_c, 0, 76, 77
2, 74671, Note_on_c, 0, 76, 0
2, 74672, Note_on_c, 0, 72, 78
2, 74687, Note_on_c, 0, 72, 0
2, 74688, Note_on_c, 0, 76, 78
2, 74700, Note_on_c, 0, 76, 0
2, 74700, Note_on_c, 0, 74, 80
2, 74712, Note_on_c, 0, 74, 0
2, 74712, Note_on_c, 0, 76, 80
2, 74724, Note_on_c, 0, 76, 0
2, 74724, Note_on_c, 0, 74, 80
2, 74736, Note_on_c, 0, 74, 0
2, 74736, Note_on_c, 0, 76, 80
2, 74748, Note_on_c, 0, 76, 0
2, 74748, Note_on_c, 0, 74, 80
2, 74760, Note_on_c, 0, 74, 0
2, 74760, Note_on_c, 0, 76, 80
2, 74772, Note_on_c, 0, 76, 0
2, 74772, Note_on_c, 0, 74, 80
2, 74784, Note_on_c, 0, 74, 0
2, 74784, Note_on_c, 0, 76, 80
2, 74796, Note_on_c, 0, 76, 0
2, 74796, Note_on_c, 0, 74, 80
2, 74808, Note_on_c, 0, 74, 0
2, 74808, Note_on_c, 0, 76, 80
2, 74820, Note_on_c, 0, 76, 0
2, 74820, Note_on_c, 0, 74, 80
2, 74832, Note_on_c, 0, 74, 0
2, 74832, Note_on_c, 0, 76, 80
2, 74844, Note_on_c, 0, 76, 0
2, 74844, Note_on_c, 0, 74, 80
2, 74856, Note_on_c, 0, 74, 0
2, 74856, Note_on_c, 0, 72, 80
2, 74868, Note_on_c, 0, 72, 0
2, 74868, Note_on_c, 0, 74, 80
2, 74880, Note_on_c, 0, 74, 0
2, 74880, Note_on_c, 0, 72, 80
2, 74900, Note_on_c, 0, 72, 0
2, 74928, Note_on_c, 0, 79, 80
2, 74948, Note_on_c, 0, 79, 0
2, 75024, Note_on_c, 0, 84, 80
2, 75044, Note_on_c, 0, 84, 0
2, 75120, Note_on_c, 0, 79, 80
2, 75143, Note_on_c, 0, 79, 0
2, 75144, Note_on_c, 0, 88, 80
2, 75167, Note_on_c, 0, 88, 0
2, 75168, Note_on_c, 0, 86, 80
2, 75191, Note_on_c, 0, 86, 0
2, 75192, Note_on_c, 0, 84, 80
2, 75215, Note_on_c, 0, 84, 0
2, 75216, Note_on_c, 0, 83, 80
2, 75239, Note_on_c, 0, 83, 0
2, 75240, Note_on_c, 0, 81, 80
2, 75263, Note_on_c, 0, 81, 0
2, 75264, Note_on_c, 0, 79, 96
2, 75383, Note_on_c, 0, 79, 0
2, 75384, Note_on_c, 0, 80, 80
2, 75407, Note_on_c, 0, 80, 0
2, 75408, Note_on_c, 0, 81, 80
2, 75431, Note_on_c, 0, 81, 0
2, 75432, Note_on_c, 0, 82, 80
2, 75455, Note_on_c, 0, 82, 0
2, 75456, Note_on_c, 0, 83, 80
2, 75479, Note_on_c, 0, 83, 0
2, 75480, Note_on_c, 0, 84, 82
2, 75503, Note_on_c, 0, 84, 0
2, 75504, Note_on_c, 0, 85, 84
2, 75527, Note_on_c, 0, 85, 0
2, 75528, Note_on_c, 0, 86, 86
2, 75551, Note_on_c, 0, 86, 0
2, 75552, Note_on_c, 0, 88, 84
2, 75575, Note_on_c, 0, 88, 0
2, 75576, Note_on_c, 0, 86, 83
2, 75599, Note_on_c, 0, 86, 0
2, 75600, Note_on_c, 0, 83, 81
2, 75623, Note_on_c, 0, 83, 0
2, 75624, Note_on_c, 0, 77, 80
2, 75647, Note_on_c, 0, 77, 0
2, 75648, Note_on_c, 0, 76, 75
2, 75668, Note_on_c, 0, 76, 0
2, 75696, Note_on_c, 0, 79, 75
2, 75716, Note_on_c, 0, 79, 0
2, 75792, Note_on_c, 0, 84, 75
2, 75804, Note_on_c, 0, 84, 0
2, 75804, Note_on_c, 0, 86, 75
2, 75816, Note_on_c, 0, 86, 0
2, 75816, Note_on_c, 0, 84, 75
2, 75828, Note_on_c, 0, 84, 0
2, 75828, Note_on_c, 0, 86, 75
2, 75837, Note_on_c, 0, 86, 0
2, 75888, Note_on_c, 0, 79, 75
2, 75911, Note_on_c, 0, 79, 0
2, 75912, Note_on_c, 0, 88, 75
2, 75935, Note_on_c, 0, 88, 0
2, 75936, Note_on_c, 0, 86, 75
2, 75959, Note_on_c, 0, 86, 0
2, 75960, Note_on_c, 0, 84, 75
2, 75983, Note_on_c, 0, 84, 0
2, 75984, Note_on_c, 0, 83, 75
2, 76007, Note_on_c, 0, 83, 0
2, 76008, Note_on_c, 0, 81, 75
2, 76031, Note_on_c, 0, 81, 0
2, 76032, Note_on_c, 0, 79, 91
2, 76151, Note_on_c, 0, 79, 0
2, 76152, Note_on_c, 0, 80, 75
2, 76175, Note_on_c, 0, 80, 0
2, 76176, Note_on_c, 0, 81, 75
2, 76199, Note_on_c, 0, 81, 0
2, 76200, Note_on_c, 0, 82, 75
2, 76223, Note_on_c, 0, 82, 0
2, 76224, Note_on_c, 0, 83, 75
2, 76247, Note_on_c, 0, 83, 0
2, 76248, Note_on_c, 0, 84, 76
2, 76271, Note_on_c, 0, 84, 0
2, 76272, Note_on_c, 0, 85, 77
2, 76295, Note_on_c, 0, 85, 0
2, 76296, Note_on_c, 0, 86, 78
2, 76319, Note_on_c, 0, 86, 0
2, 76320, Note_on_c, 0, 88, 80
2, 76343, Note_on_c, 0, 88, 0
2, 76344, Note_on_c, 0, 86, 78
2, 76367, Note_on_c, 0, 86, 0
2, 76368, Note_on_c, 0, 83, 77
2, 76391, Note_on_c, 0, 83, 0
2, 76392, Note_on_c, 0, 77, 76
2, 76415, Note_on_c, 0, 77, 0
2, 76416, Note_on_c, 0, 76, 75
2, 76439, Note_on_c, 0, 76, 0
2, 76440, Note_on_c, 0, 77, 75
2, 76463, Note_on_c, 0, 77, 0
2, 76464, Note_on_c, 0, 78, 75
2, 76487, Note_on_c, 0, 78, 0
2, 76488, Note_on_c, 0, 79, 75
2, 76511, Note_on_c, 0, 79, 0
2, 76512, Note_on_c, 0, 81, 76
2, 76535, Note_on_c, 0, 81, 0
2, 76536, Note_on_c, 0, 79, 76
2, 76559, Note_on_c, 0, 79, 0
2, 76560, Note_on_c, 0, 76, 76
2, 76583, Note_on_c, 0, 76, 0
2, 76584, Note_on_c, 0, 72, 76
2, 76607, Note_on_c, 0, 72, 0
2, 76608, Note_on_c, 0, 71, 77
2, 76631, Note_on_c, 0, 71, 0
2, 76632, Note_on_c, 0, 72, 77
2, 76655, Note_on_c, 0, 72, 0
2, 76656, Note_on_c, 0, 73, 77
2, 76679, Note_on_c, 0, 73, 0
2, 76680, Note_on_c, 0, 74, 78
2, 76703, Note_on_c, 0, 74, 0
2, 76704, Note_on_c, 0, 76, 78
2, 76727, Note_on_c, 0, 76, 0
2, 76728, Note_on_c, 0, 74, 78
2, 76751, Note_on_c, 0, 74, 0
2, 76752, Note_on_c, 0, 71, 78
2, 76775, Note_on_c, 0, 71, 0
2, 76776, Note_on_c, 0, 67, 79
2, 76799, Note_on_c, 0, 67, 0
2, 76800, Note_on_c, 0, 72, 79
2, 76820, Note_on_c, 0, 72, 0
2, 76848, Note_on_c, 0, 74, 64
2, 76893, Note_on_c, 0, 74, 0
2, 76896, Note_on_c, 0, 76, 64
2, 76941, Note_on_c, 0, 76, 0
2, 76944, Note_on_c, 0, 77, 64
2, 76989, Note_on_c, 0, 77, 0
2, 76992, Note_on_c, 0, 79, 64
2, 77037, Note_on_c, 0, 79, 0
2, 77040, Note_on_c, 0, 74, 80
2, 77085, Note_on_c, 0, 74, 0
2, 77088, Note_on_c, 0, 72, 80
2, 77133, Note_on_c, 0, 72, 0
2, 77136, Note_on_c, 0, 71, 80
2, 77181, Note_on_c, 0, 71, 0
2, 77184, Note_on_c, 0, 72, 80
2, 77204, Note_on_c, 0, 72, 0
2, 77232, Note_on_c, 0, 74, 64
2, 77277, Note_on_c, 0, 74, 0
2, 77280, Note_on_c, 0, 76, 64
2, 77325, Note_on_c, 0, 76, 0
2, 77328, Note_on_c, 0, 77, 64
2, 77373, Note_on_c, 0, 77, 0
2, 77376, Note_on_c, 0, 79, 64
2, 77421, Note_on_c, 0, 79, 0
2, 77424, Note_on_c, 0, 74, 80
2, 77469, Note_on_c, 0, 74, 0
2, 77472, Note_on_c, 0, 72, 80
2, 77517, Note_on_c, 0, 72, 0
2, 77520, Note_on_c, 0, 71, 80
2, 77565, Note_on_c, 0, 71, 0
2, 77568, Note_on_c, 0, 72, 80
2, 77568, Note_on_c, 0, 64, 80
2, 77588, Note_on_c, 0, 72, 0
2, 77588, Note_on_c, 0, 64, 0
2, 77664, Note_on_c, 0, 74, 86
2, 77672, Note_on_c, 0, 77, 86
2, 77680, Note_on_c, 0, 83, 86
2, 77709, Note_on_c, 0, 83, 0
2, 77709, Note_on_c, 0, 77, 0
2, 77709, Note_on_c, 0, 74, 0
2, 77760, Note_on_c, 0, 72, 86
2, 77766, Note_on_c, 0, 76, 86
2, 77772, Note_on_c, 0, 79, 86
2, 77778, Note_on_c, 0, 84, 86
2, 77853, Note_on_c, 0, 84, 0
2, 77853, Note_on_c, 0, 79, 0
2, 77853, Note_on_c, 0, 76, 0
2, 77853, Note_on_c, 0, 72, 0
2, 77976, Note_on_c, 0, 74, 64
2, 77986, Note_on_c, 0, 74, 0
2, 78000, Note_on_c, 0, 76, 64
2, 78010, Note_on_c, 0, 76, 0
2, 78024, Note_on_c, 0, 78, 64
2, 78034, Note_on_c, 0, 78, 0
2, 78048, Note_on_c, 0, 79, 64
2, 78058, Note_on_c, 0, 79, 0
2, 78072, Note_on_c, 0, 81, 64
2, 78082, Note_on_c, 0, 81, 0
2, 78096, Note_on_c, 0, 82, 64
2, 78106, Note_on_c, 0, 82, 0
2, 78120, Note_on_c, 0, 84, 64
2, 78130, Note_on_c, 0, 84, 0
2, 78144, Note_on_c, 0, 86, 64
2, 78154, Note_on_c, 0, 86, 0
2, 78168, Note_on_c, 0, 84, 64
2, 78178, Note_on_c, 0, 84, 0
2, 78192, Note_on_c, 0, 82, 64
2, 78202, Note_on_c, 0, 82, 0
2, 78216, Note_on_c, 0, 81, 64
2, 78226, Note_on_c, 0, 81, 0
2, 78240, Note_on_c, 0, 79, 64
2, 78263, Note_on_c, 0, 79, 0
2, 78264, Note_on_c, 0, 81, 64
2, 78287, Note_on_c, 0, 81, 0
2, 78288, Note_on_c, 0, 82, 64
2, 78311, Note_on_c, 0, 82, 0
2, 78312, Note_on_c, 0, 79, 64
2, 78335, Note_on_c, 0, 79, 0
2, 78336, Note_on_c, 0, 84, 64
2, 78346, Note_on_c, 0, 84, 0
2, 78360, Note_on_c, 0, 82, 64
2, 78370, Note_on_c, 0, 82, 0
2, 78384, Note_on_c, 0, 81, 64
2, 78394, Note_on_c, 0, 81, 0
2, 78408, Note_on_c, 0, 79, 64
2, 78418, Note_on_c, 0, 79, 0
2, 78432, Note_on_c, 0, 78, 64
2, 78455, Note_on_c, 0, 78, 0
2, 78456, Note_on_c, 0, 79, 64
2, 78479, Note_on_c, 0, 79, 0
2, 78480, Note_on_c, 0, 81, 64
2, 78503, Note_on_c, 0, 81, 0
2, 78504, Note_on_c, 0, 78, 64
2, 78527, Note_on_c, 0, 78, 0
2, 78528, Note_on_c, 0, 82, 64
2, 78551, Note_on_c, 0, 82, 0
2, 78552, Note_on_c, 0, 84, 64
2, 78575, Note_on_c, 0, 84, 0
2, 78576, Note_on_c, 0, 82, 64
2, 78599, Note_on_c, 0, 82, 0
2, 78600, Note_on_c, 0, 81, 64
2, 78623, Note_on_c, 0, 81, 0
2, 78624, Note_on_c, 0, 79, 64
2, 78634, Note_on_c, 0, 79, 0
2, 78648, Note_on_c, 0, 77, 64
2, 78658, Note_on_c, 0, 77, 0
2, 78672, Note_on_c, 0, 76, 64
2, 78682, Note_on_c, 0, 76, 0
2, 78696, Note_on_c, 0, 74, 64
2, 78706, Note_on_c, 0, 74, 0
2, 78720, Note_on_c, 0, 81, 64
2, 78720, Note_on_c, 0, 73, 64
2, 78740, Note_on_c, 0, 81, 0
2, 78740, Note_on_c, 0, 73, 0
2, 78816, Note_on_c, 0, 76, 67
2, 78816, Note_on_c, 0, 73, 67
2, 78836, Note_on_c, 0, 76, 0
2, 78836, Note_on_c, 0, 73, 0
2, 78912, Note_on_c, 0, 73, 71
2, 78912, Note_on_c, 0, 64, 71
2, 79001, Note_on_c, 0, 73, 0
2, 79001, Note_on_c, 0, 64, 0
2, 79056, Note_on_c, 0, 69, 64
2, 79101, Note_on_c, 0, 69, 0
2, 79104, Note_on_c, 0, 81, 64
2, 79127, Note_on_c, 0, 81, 0
2, 79128, Note_on_c, 0, 80, 68
2, 79151, Note_on_c, 0, 80, 0
2, 79152, Note_on_c, 0, 81, 72
2, 79175, Note_on_c, 0, 81, 0
2, 79176, Note_on_c, 0, 82, 76
2, 79199, Note_on_c, 0, 82, 0
2, 79200, Note_on_c, 0, 81, 80
2, 79223, Note_on_c, 0, 81, 0
2, 79224, Note_on_c, 0, 79, 76
2, 79247, Note_on_c, 0, 79, 0
2, 79248, Note_on_c, 0, 77, 72
2, 79271, Note_on_c, 0, 77, 0
2, 79272, Note_on_c, 0, 76, 68
2, 79295, Note_on_c, 0, 76, 0
2, 79296, Note_on_c, 0, 77, 64
2, 79319, Note_on_c, 0, 77, 0
2, 79320, Note_on_c, 0, 76, 68
2, 79343, Note_on_c, 0, 76, 0
2, 79344, Note_on_c, 0, 77, 72
2, 79367, Note_on_c, 0, 77, 0
2, 79368, Note_on_c, 0, 79, 76
2, 79391, Note_on_c, 0, 79, 0
2, 79392, Note_on_c, 0, 77, 80
2, 79415, Note_on_c, 0, 77, 0
2, 79416, Note_on_c, 0, 76, 76
2, 79439, Note_on_c, 0, 76, 0
2, 79440, Note_on_c, 0, 74, 72
2, 79463, Note_on_c, 0, 74, 0
2, 79464, Note_on_c, 0, 73, 68
2, 79487, Note_on_c, 0, 73, 0
2, 79488, Note_on_c, 0, 74, 64
2, 79577, Note_on_c, 0, 74, 0
2, 79872, Note_on_c, 0, 74, 64
2, 79895, Note_on_c, 0, 74, 0
2, 79896, Note_on_c, 0, 73, 68
2, 79919, Note_on_c, 0, 73, 0
2, 79920, Note_on_c, 0, 74, 72
2, 79943, Note_on_c, 0, 74, 0
2, 79944, Note_on_c, 0, 70, 76
2, 79967, Note_on_c, 0, 70, 0
2, 79968, Note_on_c, 0, 72, 80
2, 79991, Note_on_c, 0, 72, 0
2, 79992, Note_on_c, 0, 71, 76
2, 80015, Note_on_c, 0, 71, 0
2, 80016, Note_on_c, 0, 72, 72
2, 80039, Note_on_c, 0, 72, 0
2, 80040, Note_on_c, 0, 69, 68
2, 80063, Note_on_c, 0, 69, 0
2, 80064, Note_on_c, 0, 70, 64
2, 80087, Note_on_c, 0, 70, 0
2, 80088, Note_on_c, 0, 62, 64
2, 80111, Note_on_c, 0, 62, 0
2, 80112, Note_on_c, 0, 64, 65
2, 80135, Note_on_c, 0, 64, 0
2, 80136, Note_on_c, 0, 66, 66
2, 80159, Note_on_c, 0, 66, 0
2, 80160, Note_on_c, 0, 67, 67
2, 80183, Note_on_c, 0, 67, 0
2, 80184, Note_on_c, 0, 69, 68
2, 80207, Note_on_c, 0, 69, 0
2, 80208, Note_on_c, 0, 70, 69
2, 80231, Note_on_c, 0, 70, 0
2, 80232, Note_on_c, 0, 72, 70
2, 80255, Note_on_c, 0, 72, 0
2, 80256, Note_on_c, 0, 74, 71
2, 80279, Note_on_c, 0, 74, 0
2, 80280, Note_on_c, 0, 72, 72
2, 80303, Note_on_c, 0, 72, 0
2, 80304, Note_on_c, 0, 79, 73
2, 80327, Note_on_c, 0, 79, 0
2, 80328, Note_on_c, 0, 77, 74
2, 80351, Note_on_c, 0, 77, 0
2, 80352, Note_on_c, 0, 76, 75
2, 80375, Note_on_c, 0, 76, 0
2, 80376, Note_on_c, 0, 74, 76
2, 80399, Note_on_c, 0, 74, 0
2, 80400, Note_on_c, 0, 72, 77
2, 80423, Note_on_c, 0, 72, 0
2, 80424, Note_on_c, 0, 70, 78
2, 80447, Note_on_c, 0, 70, 0
2, 80448, Note_on_c, 0, 69, 80
2, 80471, Note_on_c, 0, 69, 0
2, 80472, Note_on_c, 0, 65, 80
2, 80495, Note_on_c, 0, 65, 0
2, 80496, Note_on_c, 0, 67, 80
2, 80508, Note_on_c, 0, 67, 0
2, 80508, Note_on_c, 0, 65, 80
2, 80520, Note_on_c, 0, 65, 0
2, 80520, Note_on_c, 0, 64, 80
2, 80532, Note_on_c, 0, 64, 0
2, 80532, Note_on_c, 0, 65, 80
2, 80544, Note_on_c, 0, 65, 0
2, 80568, Note_on_c, 0, 69, 80
2, 80591, Note_on_c, 0, 69, 0
2, 80592, Note_on_c, 0, 70, 80
2, 80604, Note_on_c, 0, 70, 0
2, 80604, Note_on_c, 0, 69, 80
2, 80616, Note_on_c, 0, 69, 0
2, 80616, Note_on_c, 0, 67, 80
2, 80628, Note_on_c, 0, 67, 0
2, 80628, Note_on_c, 0, 69, 80
2, 80640, Note_on_c, 0, 69, 0
2, 80664, Note_on_c, 0, 72, 80
2, 80687, Note_on_c, 0, 72, 0
2, 80688, Note_on_c, 0, 74, 80
2, 80700, Note_on_c, 0, 74, 0
2, 80700, Note_on_c, 0, 72, 80
2, 80712, Note_on_c, 0, 72, 0
2, 80712, Note_on_c, 0, 70, 80
2, 80724, Note_on_c, 0, 70, 0
2, 80724, Note_on_c, 0, 72, 80
2, 80736, Note_on_c, 0, 72, 0
2, 80736, Note_on_c, 0, 77, 80
2, 80877, Note_on_c, 0, 77, 0
2, 80880, Note_on_c, 0, 76, 80
2, 80892, Note_on_c, 0, 76, 0
2, 80892, Note_on_c, 0, 77, 80
2, 80904, Note_on_c, 0, 77, 0
2, 80904, Note_on_c, 0, 79, 80
2, 80916, Note_on_c, 0, 79, 0
2, 80916, Note_on_c, 0, 81, 80
2, 80928, Note_on_c, 0, 81, 0
2, 80928, Note_on_c, 0, 82, 80
2, 81069, Note_on_c, 0, 82, 0
2, 81072, Note_on_c, 0, 81, 80
2, 81084, Note_on_c, 0, 81, 0
2, 81084, Note_on_c, 0, 79, 80
2, 81096, Note_on_c, 0, 79, 0
2, 81096, Note_on_c, 0, 81, 80
2, 81108, Note_on_c, 0, 81, 0
2, 81108, Note_on_c, 0, 82, 80
2, 81120, Note_on_c, 0, 82, 0
2, 81120, Note_on_c, 0, 84, 80
2, 81239, Note_on_c, 0, 84, 0
2, 81240, Note_on_c, 0, 85, 64
2, 81263, Note_on_c, 0, 85, 0
2, 81264, Note_on_c, 0, 86, 64
2, 81287, Note_on_c, 0, 86, 0
2, 81288, Note_on_c, 0, 78, 64
2, 81311, Note_on_c, 0, 78, 0
2, 81312, Note_on_c, 0, 79, 64
2, 81335, Note_on_c, 0, 79, 0
2, 81336, Note_on_c, 0, 81, 64
2, 81359, Note_on_c, 0, 81, 0
2, 81360, Note_on_c, 0, 82, 64
2, 81431, Note_on_c, 0, 82, 0
2, 81432, Note_on_c, 0, 83, 64
2, 81455, Note_on_c, 0, 83, 0
2, 81456, Note_on_c, 0, 84, 64
2, 81479, Note_on_c, 0, 84, 0
2, 81480, Note_on_c, 0, 76, 64
2, 81503, Note_on_c, 0, 76, 0
2, 81504, Note_on_c, 0, 77, 64
2, 81527, Note_on_c, 0, 77, 0
2, 81528, Note_on_c, 0, 79, 65
2, 81551, Note_on_c, 0, 79, 0
2, 81552, Note_on_c, 0, 81, 66
2, 81623, Note_on_c, 0, 81, 0
2, 81624, Note_on_c, 0, 84, 69
2, 81647, Note_on_c, 0, 84, 0
2, 81648, Note_on_c, 0, 82, 70
2, 81671, Note_on_c, 0, 82, 0
2, 81672, Note_on_c, 0, 79, 72
2, 81695, Note_on_c, 0, 79, 0
2, 81696, Note_on_c, 0, 76, 73
2, 81719, Note_on_c, 0, 76, 0
2, 81720, Note_on_c, 0, 72, 74
2, 81743, Note_on_c, 0, 72, 0
2, 81744, Note_on_c, 0, 70, 75
2, 81767, Note_on_c, 0, 70, 0
2, 81768, Note_on_c, 0, 67, 76
2, 81791, Note_on_c, 0, 67, 0
2, 81792, Note_on_c, 0, 69, 77
2, 81812, Note_on_c, 0, 69, 0
2, 81840, Note_on_c, 0, 69, 80
2, 81860, Note_on_c, 0, 69, 0
2, 81912, Note_on_c, 0, 72, 80
2, 81922, Note_on_c, 0, 72, 0
2, 81936, Note_on_c, 0, 74, 80
2, 81948, Note_on_c, 0, 74, 0
2, 81948, Note_on_c, 0, 72, 80
2, 81960, Note_on_c, 0, 72, 0
2, 81960, Note_on_c, 0, 71, 80
2, 81972, Note_on_c, 0, 71, 0
2, 81972, Note_on_c, 0, 72, 80
2, 81984, Note_on_c, 0, 72, 0
2, 81984, Note_on_c, 0, 64, 80
2, 82004, Note_on_c, 0, 64, 0
2, 82032, Note_on_c, 0, 64, 80
2, 82052, Note_on_c, 0, 64, 0
2, 82104, Note_on_c, 0, 72, 80
2, 82114, Note_on_c, 0, 72, 0
2, 82128, Note_on_c, 0, 74, 80
2, 82140, Note_on_c, 0, 74, 0
2, 82140, Note_on_c, 0, 72, 80
2, 82152, Note_on_c, 0, 72, 0
2, 82152, Note_on_c, 0, 71, 80
2, 82164, Note_on_c, 0, 71, 0
2, 82164, Note_on_c, 0, 72, 80
2, 82176, Note_on_c, 0, 72, 0
2, 82176, Note_on_c, 0, 77, 80
2, 82224, Note_on_c, 0, 77, 0
2, 82224, Note_on_c, 0, 81, 80
2, 82269, Note_on_c, 0, 81, 0
2, 82296, Note_on_c, 0, 84, 80
2, 82306, Note_on_c, 0, 84, 0
2, 82320, Note_on_c, 0, 86, 80
2, 82332, Note_on_c, 0, 86, 0
2, 82332, Note_on_c, 0, 84, 80
2, 82344, Note_on_c, 0, 84, 0
2, 82344, Note_on_c, 0, 83, 80
2, 82356, Note_on_c, 0, 83, 0
2, 82356, Note_on_c, 0, 84, 80
2, 82368, Note_on_c, 0, 84, 0
2, 82368, Note_on_c, 0, 76, 80
2, 82388, Note_on_c, 0, 76, 0
2, 82416, Note_on_c, 0, 76, 80
2, 82436, Note_on_c, 0, 76, 0
2, 82488, Note_on_c, 0, 84, 81
2, 82498, Note_on_c, 0, 84, 0
2, 82512, Note_on_c, 0, 86, 81
2, 82524, Note_on_c, 0, 86, 0
2, 82524, Note_on_c, 0, 84, 81
2, 82536, Note_on_c, 0, 84, 0
2, 82536, Note_on_c, 0, 83, 81
2, 82548, Note_on_c, 0, 83, 0
2, 82548, Note_on_c, 0, 84, 81
2, 82560, Note_on_c, 0, 84, 0
2, 82560, Control_c, 0, 64, 127
2, 82560, Note_on_c, 0, 80, 82
2, 82737, Note_on_c, 0, 80, 0
2, 82752, Note_on_c, 0, 89, 100
2, 82939, Note_on_c, 0, 89, 0
2, 82944, Control_c, 0, 64, 0
2, 82944, Control_c, 0, 64, 127
2, 82944, Note_on_c, 0, 79, 86
2, 82989, Note_on_c, 0, 79, 0
2, 82992, Note_on_c, 0, 89, 85
2, 83039, Note_on_c, 0, 89, 0
2, 83040, Control_c, 0, 64, 0
2, 83040, Control_c, 0, 64, 127
2, 83040, Note_on_c, 0, 87, 84
2, 83085, Note_on_c, 0, 87, 0
2, 83088, Note_on_c, 0, 80, 83
2, 83133, Note_on_c, 0, 80, 0
2, 83136, Control_c, 0, 64, 0
2, 83136, Control_c, 0, 64, 127
2, 83136, Note_on_c, 0, 79, 83
2, 83181, Note_on_c, 0, 79, 0
2, 83184, Note_on_c, 0, 85, 82
2, 83229, Note_on_c, 0, 85, 0
2, 83232, Control_c, 0, 64, 0
2, 83232, Control_c, 0, 64, 127
2, 83232, Note_on_c, 0, 84, 81
2, 83277, Note_on_c, 0, 84, 0
2, 83280, Note_on_c, 0, 80, 80
2, 83325, Note_on_c, 0, 80, 0
2, 83328, Control_c, 0, 64, 0
2, 83328, Control_c, 0, 64, 127
2, 83328, Note_on_c, 0, 79, 80
2, 83373, Note_on_c, 0, 79, 0
2, 83376, Note_on_c, 0, 89, 80
2, 83423, Note_on_c, 0, 89, 0
2, 83424, Control_c, 0, 64, 0
2, 83424, Control_c, 0, 64, 127
2, 83424, Note_on_c, 0, 87, 79
2, 83469, Note_on_c, 0, 87, 0
2, 83472, Note_on_c, 0, 80, 78
2, 83517, Note_on_c, 0, 80, 0
2, 83520, Control_c, 0, 64, 0
2, 83520, Control_c, 0, 64, 127
2, 83520, Note_on_c, 0, 79, 77
2, 83565, Note_on_c, 0, 79, 0
2, 83568, Note_on_c, 0, 85, 77
2, 83613, Note_on_c, 0, 85, 0
2, 83616, Control_c, 0, 64, 0
2, 83616, Control_c, 0, 64, 127
2, 83616, Note_on_c, 0, 84, 76
2, 83661, Note_on_c, 0, 84, 0
2, 83664, Note_on_c, 0, 80, 75
2, 83709, Note_on_c, 0, 80, 0
2, 83712, Control_c, 0, 64, 0
2, 83712, Control_c, 0, 64, 127
2, 83712, Note_on_c, 0, 74, 86
2, 83757, Note_on_c, 0, 74, 0
2, 83760, Note_on_c, 0, 83, 83
2, 83805, Note_on_c, 0, 83, 0
2, 83808, Note_on_c, 0, 80, 81
2, 83853, Note_on_c, 0, 80, 0
2, 83856, Note_on_c, 0, 74, 78
2, 83901, Note_on_c, 0, 74, 0
2, 83904, Control_c, 0, 64, 0
2, 83904, Control_c, 0, 64, 127
2, 83904, Note_on_c, 0, 75, 76
2, 83949, Note_on_c, 0, 75, 0
2, 83952, Note_on_c, 0, 82, 73
2, 83997, Note_on_c, 0, 82, 0
2, 84000, Note_on_c, 0, 79, 71
2, 84045, Note_on_c, 0, 79, 0
2, 84048, Note_on_c, 0, 75, 68
2, 84093, Note_on_c, 0, 75, 0
2, 84096, Control_c, 0, 64, 0
2, 84096, Control_c, 0, 64, 127
2, 84096, Note_on_c, 0, 74, 66
2, 84141, Note_on_c, 0, 74, 0
2, 84144, Note_on_c, 0, 71, 64
2, 84189, Note_on_c, 0, 71, 0
2, 84192, Note_on_c, 0, 68, 64
2, 84237, Note_on_c, 0, 68, 0
2, 84240, Note_on_c, 0, 62, 64
2, 84285, Note_on_c, 0, 62, 0
2, 84288, Control_c, 0, 64, 0
2, 84288, Control_c, 0, 64, 127
2, 84288, Note_on_c, 0, 63, 64
2, 84333, Note_on_c, 0, 63, 0
2, 84336, Note_on_c, 0, 70, 64
2, 84381, Note_on_c, 0, 70, 0
2, 84384, Note_on_c, 0, 67, 64
2, 84429, Note_on_c, 0, 67, 0
2, 84432, Note_on_c, 0, 63, 64
2, 84477, Note_on_c, 0, 63, 0
2, 84480, Control_c, 0, 64, 0
2, 84480, Note_on_c, 0, 62, 64
2, 84525, Note_on_c, 0, 62, 0
2, 84528, Control_c, 0, 64, 127
2, 84528, Note_on_c, 0, 59, 64
2, 84573, Note_on_c, 0, 59, 0
2, 84576, Note_on_c, 0, 58, 64
2, 84621, Note_on_c, 0, 58, 0
2, 84624, Note_on_c, 0, 62, 64
2, 84669, Note_on_c, 0, 62, 0
2, 84672, Note_on_c, 0, 65, 64
2, 84717, Note_on_c, 0, 65, 0
2, 84720, Note_on_c, 0, 68, 64
2, 84765, Note_on_c, 0, 68, 0
2, 84768, Note_on_c, 0, 71, 64
2, 84813, Note_on_c, 0, 71, 0
2, 84816, Control_c, 0, 64, 0
2, 84816, Note_on_c, 0, 62, 64
2, 84861, Note_on_c, 0, 62, 0
2, 84864, Note_on_c, 0, 63, 64
2, 84931, Note_on_c, 0, 63, 0
2, 84936, Note_on_c, 0, 62, 64
2, 84959, Note_on_c, 0, 62, 0
2, 84960, Note_on_c, 0, 63, 64
2, 84983, Note_on_c, 0, 63, 0
2, 84984, Note_on_c, 0, 62, 64
2, 85007, Note_on_c, 0, 62, 0
2, 85008, Note_on_c, 0, 63, 64
2, 85031, Note_on_c, 0, 63, 0
2, 85032, Note_on_c, 0, 62, 64
2, 85055, Note_on_c, 0, 62, 0
2, 85056, Control_c, 0, 64, 0
2, 85056, Note_on_c, 0, 63, 64
2, 85145, Note_on_c, 0, 63, 0
2, 85248, Control_c, 0, 64, 127
2, 85248, Note_on_c, 0, 56, 64
2, 85337, Note_on_c, 0, 56, 0
2, 85344, Note_on_c, 0, 51, 64
2, 85433, Note_on_c, 0, 51, 0
2, 85440, Note_on_c, 0, 48, 64
2, 85529, Note_on_c, 0, 48, 0
2, 85584, Note_on_c, 0, 53, 64
2, 85632, Note_on_c, 0, 53, 0
2, 85632, Note_on_c, 0, 46, 64
2, 85721, Note_on_c, 0, 46, 0
2, 85776, Note_on_c, 0, 51, 64
2, 85824, Note_on_c, 0, 51, 0
2, 85824, Note_on_c, 0, 44, 64
2, 85913, Note_on_c, 0, 44, 0
2, 85920, Control_c, 0, 64, 0
2, 85968, Note_on_c, 0, 72, 64
2, 86016, Note_on_c, 0, 72, 0
2, 86016, Note_on_c, 0, 61, 64
2, 86105, Note_on_c, 0, 61, 0
2, 86160, Note_on_c, 0, 70, 64
2, 86208, Note_on_c, 0, 70, 0
2, 86208, Note_on_c, 0, 60, 64
2, 86297, Note_on_c, 0, 60, 0
2, 86352, Note_on_c, 0, 68, 64
2, 86400, Note_on_c, 0, 68, 0
2, 86400, Note_on_c, 0, 59, 64
2, 86448, Note_on_c, 0, 59, 0
2, 86448, Note_on_c, 0, 68, 64
2, 86493, Note_on_c, 0, 68, 0
2, 86496, Note_on_c, 0, 60, 64
2, 86544, Note_on_c, 0, 60, 0
2, 86544, Note_on_c, 0, 68, 64
2, 86589, Note_on_c, 0, 68, 0
2, 86592, Note_on_c, 0, 62, 65
2, 86640, Note_on_c, 0, 62, 0
2, 86640, Note_on_c, 0, 68, 66
2, 86685, Note_on_c, 0, 68, 0
2, 86688, Note_on_c, 0, 60, 66
2, 86736, Note_on_c, 0, 60, 0
2, 86736, Note_on_c, 0, 68, 67
2, 86781, Note_on_c, 0, 68, 0
2, 86784, Note_on_c, 0, 59, 68
2, 86807, Note_on_c, 0, 59, 0
2, 86808, Note_on_c, 0, 68, 68
2, 86831, Note_on_c, 0, 68, 0
2, 86832, Note_on_c, 0, 59, 69
2, 86855, Note_on_c, 0, 59, 0
2, 86856, Note_on_c, 0, 68, 69
2, 86879, Note_on_c, 0, 68, 0
2, 86880, Note_on_c, 0, 60, 69
2, 86903, Note_on_c, 0, 60, 0
2, 86904, Note_on_c, 0, 68, 70
2, 86927, Note_on_c, 0, 68, 0
2, 86928, Note_on_c, 0, 60, 70
2, 86951, Note_on_c, 0, 60, 0
2, 86952, Note_on_c, 0, 68, 70
2, 86975, Note_on_c, 0, 68, 0
2, 86976, Note_on_c, 0, 62, 71
2, 86999, Note_on_c, 0, 62, 0
2, 87000, Note_on_c, 0, 68, 71
2, 87023, Note_on_c, 0, 68, 0
2, 87024, Note_on_c, 0, 62, 71
2, 87047, Note_on_c, 0, 62, 0
2, 87048, Note_on_c, 0, 68, 72
2, 87071, Note_on_c, 0, 68, 0
2, 87072, Note_on_c, 0, 59, 72
2, 87095, Note_on_c, 0, 59, 0
2, 87096, Note_on_c, 0, 68, 73
2, 87119, Note_on_c, 0, 68, 0
2, 87120, Note_on_c, 0, 59, 73
2, 87143, Note_on_c, 0, 59, 0
2, 87144, Note_on_c, 0, 68, 73
2, 87167, Note_on_c, 0, 68, 0
2, 87168, Note_on_c, 0, 60, 74
2, 87191, Note_on_c, 0, 60, 0
2, 87192, Note_on_c, 0, 72, 74
2, 87215, Note_on_c, 0, 72, 0
2, 87216, Note_on_c, 0, 60, 74
2, 87239, Note_on_c, 0, 60, 0
2, 87240, Note_on_c, 0, 72, 75
2, 87263, Note_on_c, 0, 72, 0
2, 87264, Note_on_c, 0, 59, 75
2, 87287, Note_on_c, 0, 59, 0
2, 87288, Note_on_c, 0, 71, 75
2, 87311, Note_on_c, 0, 71, 0
2, 87312, Note_on_c, 0, 59, 76
2, 87335, Note_on_c, 0, 59, 0
2, 87336, Note_on_c, 0, 71, 76
2, 87359, Note_on_c, 0, 71, 0
2, 87360, Note_on_c, 0, 60, 76
2, 87383, Note_on_c, 0, 60, 0
2, 87384, Note_on_c, 0, 72, 77
2, 87407, Note_on_c, 0, 72, 0
2, 87408, Note_on_c, 0, 60, 77
2, 87431, Note_on_c, 0, 60, 0
2, 87432, Note_on_c, 0, 72, 78
2, 87455, Note_on_c, 0, 72, 0
2, 87456, Note_on_c, 0, 61, 78
2, 87479, Note_on_c, 0, 61, 0
2, 87480, Note_on_c, 0, 73, 78
2, 87503, Note_on_c, 0, 73, 0
2, 87504, Note_on_c, 0, 61, 79
2, 87527, Note_on_c, 0, 61, 0
2, 87528, Note_on_c, 0, 73, 79
2, 87551, Note_on_c, 0, 73, 0
2, 87552, Note_on_c, 0, 62, 79
2, 87575, Note_on_c, 0, 62, 0
2, 87576, Note_on_c, 0, 74, 80
2, 87599, Note_on_c, 0, 74, 0
2, 87600, Note_on_c, 0, 62, 80
2, 87623, Note_on_c, 0, 62, 0
2, 87624, Note_on_c, 0, 74, 80
2, 87647, Note_on_c, 0, 74, 0
2, 87648, Note_on_c, 0, 61, 81
2, 87671, Note_on_c, 0, 61, 0
2, 87672, Note_on_c, 0, 73, 81
2, 87695, Note_on_c, 0, 73, 0
2, 87696, Note_on_c, 0, 61, 82
2, 87719, Note_on_c, 0, 61, 0
2, 87720, Note_on_c, 0, 73, 82
2, 87743, Note_on_c, 0, 73, 0
2, 87744, Note_on_c, 0, 62, 82
2, 87767, Note_on_c, 0, 62, 0
2, 87768, Note_on_c, 0, 74, 83
2, 87791, Note_on_c, 0, 74, 0
2, 87792, Note_on_c, 0, 62, 83
2, 87815, Note_on_c, 0, 62, 0
2, 87816, Note_on_c, 0, 74, 83
2, 87839, Note_on_c, 0, 74, 0
2, 87840, Note_on_c, 0, 63, 84
2, 87863, Note_on_c, 0, 63, 0
2, 87864, Note_on_c, 0, 75, 84
2, 87887, Note_on_c, 0, 75, 0
2, 87888, Note_on_c, 0, 63, 84
2, 87911, Note_on_c, 0, 63, 0
2, 87912, Note_on_c, 0, 75, 85
2, 87935, Note_on_c, 0, 75, 0
2, 87936, Note_on_c, 0, 64, 85
2, 87959, Note_on_c, 0, 64, 0
2, 87960, Note_on_c, 0, 76, 86
2, 87983, Note_on_c, 0, 76, 0
2, 87984, Note_on_c, 0, 64, 86
2, 88007, Note_on_c, 0, 64, 0
2, 88008, Note_on_c, 0, 76, 86
2, 88031, Note_on_c, 0, 76, 0
2, 88032, Note_on_c, 0, 64, 86
2, 88055, Note_on_c, 0, 64, 0
2, 88056, Note_on_c, 0, 76, 86
2, 88079, Note_on_c, 0, 76, 0
2, 88080, Note_on_c, 0, 64, 86
2, 88103, Note_on_c, 0, 64, 0
2, 88104, Note_on_c, 0, 76, 86
2, 88127, Note_on_c, 0, 76, 0
2, 88128, Note_on_c, 0, 64, 86
2, 88151, Note_on_c, 0, 64, 0
2, 88152, Note_on_c, 0, 76, 86
2, 88175, Note_on_c, 0, 76, 0
2, 88176, Note_on_c, 0, 64, 86
2, 88199, Note_on_c, 0, 64, 0
2, 88200, Note_on_c, 0, 76, 86
2, 88223, Note_on_c, 0, 76, 0
2, 88224, Note_on_c, 0, 64, 86
2, 88247, Note_on_c, 0, 64, 0
2, 88248, Note_on_c, 0, 76, 86
2, 88271, Note_on_c, 0, 76, 0
2, 88272, Note_on_c, 0, 64, 86
2, 88295, Note_on_c, 0, 64, 0
2, 88296, Note_on_c, 0, 76, 86
2, 88319, Note_on_c, 0, 76, 0
2, 88320, Note_on_c, 0, 64, 86
2, 88343, Note_on_c, 0, 64, 0
2, 88344, Note_on_c, 0, 76, 86
2, 88367, Note_on_c, 0, 76, 0
2, 88368, Note_on_c, 0, 64, 86
2, 88391, Note_on_c, 0, 64, 0
2, 88392, Note_on_c, 0, 76, 86
2, 88415, Note_on_c, 0, 76, 0
2, 88416, Note_on_c, 0, 64, 86
2, 88439, Note_on_c, 0, 64, 0
2, 88440, Note_on_c, 0, 76, 86
2, 88463, Note_on_c, 0, 76, 0
2, 88464, Note_on_c, 0, 64, 86
2, 88487, Note_on_c, 0, 64, 0
2, 88488, Note_on_c, 0, 76, 86
2, 88511, Note_on_c, 0, 76, 0
2, 88512, Note_on_c, 0, 64, 86
2, 88535, Note_on_c, 0, 64, 0
2, 88536, Note_on_c, 0, 76, 86
2, 88559, Note_on_c, 0, 76, 0
2, 88560, Note_on_c, 0, 64, 86
2, 88583, Note_on_c, 0, 64, 0
2, 88584, Note_on_c, 0, 76, 86
2, 88607, Note_on_c, 0, 76, 0
2, 88608, Note_on_c, 0, 64, 86
2, 88631, Note_on_c, 0, 64, 0
2, 88632, Note_on_c, 0, 76, 86
2, 88655, Note_on_c, 0, 76, 0
2, 88656, Note_on_c, 0, 64, 86
2, 88679, Note_on_c, 0, 64, 0
2, 88680, Note_on_c, 0, 76, 86
2, 88703, Note_on_c, 0, 76, 0
2, 88704, Note_on_c, 0, 64, 86
2, 88727, Note_on_c, 0, 64, 0
2, 88728, Note_on_c, 0, 76, 86
2, 88751, Note_on_c, 0, 76, 0
2, 88752, Note_on_c, 0, 64, 86
2, 88775, Note_on_c, 0, 64, 0
2, 88776, Note_on_c, 0, 76, 86
2, 88799, Note_on_c, 0, 76, 0
2, 88800, Note_on_c, 0, 64, 86
2, 88823, Note_on_c, 0, 64, 0
2, 88824, Note_on_c, 0, 76, 86
2, 88847, Note_on_c, 0, 76, 0
2, 88848, Note_on_c, 0, 64, 86
2, 88871, Note_on_c, 0, 64, 0
2, 88872, Note_on_c, 0, 76, 86
2, 88895, Note_on_c, 0, 76, 0
2, 88896, Note_on_c, 0, 67, 86
2, 88919, Note_on_c, 0, 67, 0
2, 88920, Note_on_c, 0, 76, 86
2, 88943, Note_on_c, 0, 76, 0
2, 88944, Note_on_c, 0, 67, 86
2, 88967, Note_on_c, 0, 67, 0
2, 88968, Note_on_c, 0, 76, 86
2, 88991, Note_on_c, 0, 76, 0
2, 88992, Note_on_c, 0, 67, 86
2, 89015, Note_on_c, 0, 67, 0
2, 89016, Note_on_c, 0, 76, 86
2, 89039, Note_on_c, 0, 76, 0
2, 89040, Note_on_c, 0, 67, 86
2, 89063, Note_on_c, 0, 67, 0
2, 89064, Note_on_c, 0, 76, 86
2, 89087, Note_on_c, 0, 76, 0
2, 89088, Note_on_c, 0, 75, 86
2, 89088, Note_on_c, 0, 66, 86
2, 89265, Note_on_c, 0, 75, 0
2, 89265, Note_on_c, 0, 66, 0
2, 89280, Note_on_c, 0, 78, 64
2, 89280, Note_on_c, 0, 69, 64
2, 89457, Note_on_c, 0, 78, 0
2, 89457, Note_on_c, 0, 69, 0
2, 89472, Note_on_c, 0, 78, 64
2, 89649, Note_on_c, 0, 78, 0
2, 89664, Note_on_c, 0, 77, 64
2, 89753, Note_on_c, 0, 77, 0
2, 89760, Note_on_c, 0, 76, 64
2, 89849, Note_on_c, 0, 76, 0
2, 89856, Note_on_c, 0, 76, 64
2, 90210, Note_on_c, 0, 76, 0
2, 90240, Note_on_c, 0, 74, 104
2, 90505, Note_on_c, 0, 74, 0
2, 90528, Note_on_c, 0, 72, 86
2, 90617, Note_on_c, 0, 72, 0
2, 90624, Note_on_c, 0, 72, 104
2, 90801, Note_on_c, 0, 72, 0
2, 90816, Note_on_c, 0, 71, 86
2, 90993, Note_on_c, 0, 71, 0
2, 91008, Note_on_c, 0, 71, 104
2, 91185, Note_on_c, 0, 71, 0
2, 91200, Note_on_c, 0, 69, 86
2, 91200, Note_on_c, 0, 63, 86
2, 91377, Note_on_c, 0, 69, 0
2, 91377, Note_on_c, 0, 63, 0
2, 91392, Note_on_c, 0, 68, 86
2, 91392, Note_on_c, 0, 64, 86
2, 91437, Note_on_c, 0, 68, 0
2, 91437, Note_on_c, 0, 64, 0
2, 91464, Note_on_c, 0, 76, 75
2, 91464, Note_on_c, 0, 72, 75
2, 91487, Note_on_c, 0, 76, 0
2, 91487, Note_on_c, 0, 72, 0
2, 91488, Note_on_c, 0, 74, 75
2, 91488, Note_on_c, 0, 71, 75
2, 91511, Note_on_c, 0, 74, 0
2, 91511, Note_on_c, 0, 71, 0
2, 91512, Note_on_c, 0, 76, 75
2, 91512, Note_on_c, 0, 72, 75
2, 91535, Note_on_c, 0, 76, 0
2, 91535, Note_on_c, 0, 72, 0
2, 91536, Note_on_c, 0, 77, 75
2, 91536, Note_on_c, 0, 74, 75
2, 91559, Note_on_c, 0, 77, 0
2, 91559, Note_on_c, 0, 74, 0
2, 91560, Note_on_c, 0, 76, 75
2, 91560, Note_on_c, 0, 72, 75
2, 91583, Note_on_c, 0, 76, 0
2, 91583, Note_on_c, 0, 72, 0
2, 91584, Note_on_c, 0, 74, 75
2, 91584, Note_on_c, 0, 71, 75
2, 91604, Note_on_c, 0, 74, 0
2, 91604, Note_on_c, 0, 71, 0
2, 91656, Note_on_c, 0, 76, 75
2, 91656, Note_on_c, 0, 72, 75
2, 91680, Note_on_c, 0, 76, 0
2, 91680, Note_on_c, 0, 69, 75
2, 91700, Note_on_c, 0, 72, 0
2, 91700, Note_on_c, 0, 69, 0
2, 91752, Note_on_c, 0, 74, 75
2, 91752, Note_on_c, 0, 71, 75
2, 91776, Note_on_c, 0, 74, 0
2, 91776, Note_on_c, 0, 71, 0
2, 91776, Note_on_c, 0, 68, 75
2, 91776, Note_on_c, 0, 64, 75
2, 91823, Note_on_c, 0, 68, 0
2, 91823, Note_on_c, 0, 64, 0
2, 91848, Note_on_c, 0, 76, 75
2, 91848, Note_on_c, 0, 72, 75
2, 91871, Note_on_c, 0, 76, 0
2, 91871, Note_on_c, 0, 72, 0
2, 91872, Note_on_c, 0, 74, 75
2, 91872, Note_on_c, 0, 71, 75
2, 91895, Note_on_c, 0, 74, 0
2, 91895, Note_on_c, 0, 71, 0
2, 91896, Note_on_c, 0, 76, 75
2, 91896, Note_on_c, 0, 72, 75
2, 91919, Note_on_c, 0, 76, 0
2, 91919, Note_on_c, 0, 72, 0
2, 91920, Note_on_c, 0, 77, 75
2, 91920, Note_on_c, 0, 74, 75
2, 91943, Note_on_c, 0, 77, 0
2, 91943, Note_on_c, 0, 74, 0
2, 91944, Note_on_c, 0, 76, 75
2, 91944, Note_on_c, 0, 72, 75
2, 91967, Note_on_c, 0, 76, 0
2, 91967, Note_on_c, 0, 72, 0
2, 91968, Note_on_c, 0, 74, 76
2, 91968, Note_on_c, 0, 71, 76
2, 91988, Note_on_c, 0, 74, 0
2, 91988, Note_on_c, 0, 71, 0
2, 92040, Note_on_c, 0, 80, 76
2, 92040, Note_on_c, 0, 74, 76
2, 92064, Note_on_c, 0, 80, 0
2, 92064, Note_on_c, 0, 74, 0
2, 92064, Note_on_c, 0, 81, 76
2, 92064, Note_on_c, 0, 72, 76
2, 92084, Note_on_c, 0, 81, 0
2, 92084, Note_on_c, 0, 72, 0
2, 92136, Note_on_c, 0, 72, 77
2, 92136, Note_on_c, 0, 69, 77
2, 92160, Note_on_c, 0, 72, 0
2, 92160, Note_on_c, 0, 69, 0
2, 92160, Note_on_c, 0, 71, 77
2, 92160, Note_on_c, 0, 68, 77
2, 92205, Note_on_c, 0, 71, 0
2, 92205, Note_on_c, 0, 68, 0
2, 92232, Note_on_c, 0, 72, 78
2, 92232, Note_on_c, 0, 69, 78
2, 92255, Note_on_c, 0, 72, 0
2, 92255, Note_on_c, 0, 69, 0
2, 92256, Note_on_c, 0, 71, 78
2, 92256, Note_on_c, 0, 68, 78
2, 92279, Note_on_c, 0, 71, 0
2, 92279, Note_on_c, 0, 68, 0
2, 92280, Note_on_c, 0, 72, 78
2, 92280, Note_on_c, 0, 69, 78
2, 92303, Note_on_c, 0, 72, 0
2, 92303, Note_on_c, 0, 69, 0
2, 92304, Note_on_c, 0, 71, 78
2, 92304, Note_on_c, 0, 68, 78
2, 92327, Note_on_c, 0, 71, 0
2, 92327, Note_on_c, 0, 68, 0
2, 92328, Note_on_c, 0, 72, 79
2, 92328, Note_on_c, 0, 69, 79
2, 92351, Note_on_c, 0, 72, 0
2, 92351, Note_on_c, 0, 69, 0
2, 92352, Note_on_c, 0, 71, 79
2, 92352, Note_on_c, 0, 68, 79
2, 92372, Note_on_c, 0, 71, 0
2, 92372, Note_on_c, 0, 68, 0
2, 92424, Note_on_c, 0, 51, 79
2, 92447, Note_on_c, 0, 51, 0
2, 92448, Note_on_c, 0, 52, 80
2, 92471, Note_on_c, 0, 52, 0
2, 92472, Note_on_c, 0, 51, 80
2, 92495, Note_on_c, 0, 51, 0
2, 92496, Note_on_c, 0, 52, 80
2, 92519, Note_on_c, 0, 52, 0
2, 92520, Note_on_c, 0, 51, 80
2, 92543, Note_on_c, 0, 51, 0
2, 92544, Note_on_c, 0, 52, 80
2, 92564, Note_on_c, 0, 52, 0
2, 92616, Note_on_c, 0, 75, 64
2, 92639, Note_on_c, 0, 75, 0
2, 92640, Note_on_c, 0, 76, 64
2, 92663, Note_on_c, 0, 76, 0
2, 92664, Note_on_c, 0, 75, 64
2, 92687, Note_on_c, 0, 75, 0
2, 92688, Note_on_c, 0, 76, 64
2, 92711, Note_on_c, 0, 76, 0
2, 92712, Note_on_c, 0, 75, 64
2, 92735, Note_on_c, 0, 75, 0
2, 92736, Note_on_c, 0, 76, 64
2, 92781, Note_on_c, 0, 76, 0
2, 93000, Note_on_c, 0, 75, 64
2, 93023, Note_on_c, 0, 75, 0
2, 93024, Note_on_c, 0, 76, 64
2, 93047, Note_on_c, 0, 76, 0
2, 93048, Note_on_c, 0, 75, 64
2, 93071, Note_on_c, 0, 75, 0
2, 93072, Note_on_c, 0, 76, 64
2, 93095, Note_on_c, 0, 76, 0
2, 93096, Note_on_c, 0, 75, 64
2, 93119, Note_on_c, 0, 75, 0
2, 93120, Note_on_c, 0, 76, 64
2, 93165, Note_on_c, 0, 76, 0
2, 93192, Note_on_c, 0, 75, 58
2, 93215, Note_on_c, 0, 75, 0
2, 93216, Note_on_c, 0, 76, 58
2, 93239, Note_on_c, 0, 76, 0
2, 93240, Note_on_c, 0, 75, 58
2, 93263, Note_on_c, 0, 75, 0
2, 93264, Note_on_c, 0, 76, 58
2, 93287, Note_on_c, 0, 76, 0
2, 93288, Note_on_c, 0, 75, 58
2, 93311, Note_on_c, 0, 75, 0
2, 93312, Note_on_c, 0, 76, 58
2, 93357, Note_on_c, 0, 76, 0
2, 93384, Note_on_c, 0, 75, 64
2, 93407, Note_on_c, 0, 75, 0
2, 93408, Note_on_c, 0, 76, 65
2, 93431, Note_on_c, 0, 76, 0
2, 93432, Note_on_c, 0, 75, 66
2, 93455, Note_on_c, 0, 75, 0
2, 93456, Note_on_c, 0, 76, 67
2, 93479, Note_on_c, 0, 76, 0
2, 93480, Note_on_c, 0, 77, 68
2, 93503, Note_on_c, 0, 77, 0
2, 93504, Note_on_c, 0, 79, 70
2, 93549, Note_on_c, 0, 79, 0
2, 93576, Note_on_c, 0, 78, 73
2, 93599, Note_on_c, 0, 78, 0
2, 93600, Note_on_c, 0, 79, 75
2, 93623, Note_on_c, 0, 79, 0
2, 93624, Note_on_c, 0, 78, 76
2, 93647, Note_on_c, 0, 78, 0
2, 93648, Note_on_c, 0, 79, 77
2, 93671, Note_on_c, 0, 79, 0
2, 93672, Note_on_c, 0, 81, 78
2, 93695, Note_on_c, 0, 81, 0
2, 93696, Note_on_c, 0, 82, 98
2, 93829, Note_on_c, 0, 82, 0
2, 93840, Note_on_c, 0, 81, 80
2, 93852, Note_on_c, 0, 81, 0
2, 93852, Note_on_c, 0, 79, 80
2, 93864, Note_on_c, 0, 79, 0
2, 93864, Note_on_c, 0, 77, 80
2, 93876, Note_on_c, 0, 77, 0
2, 93876, Note_on_c, 0, 76, 80
2, 93888, Note_on_c, 0, 76, 0
2, 93888, Note_on_c, 0, 74, 80
2, 93903, Note_on_c, 0, 74, 0
2, 93904, Note_on_c, 0, 81, 80
2, 93919, Note_on_c, 0, 81, 0
2, 93920, Note_on_c, 0, 79, 80
2, 93935, Note_on_c, 0, 79, 0
2, 93936, Note_on_c, 0, 77, 80
2, 93951, Note_on_c, 0, 77, 0
2, 93952, Note_on_c, 0, 76, 80
2, 93967, Note_on_c, 0, 76, 0
2, 93968, Note_on_c, 0, 74, 80
2, 93983, Note_on_c, 0, 74, 0
2, 93984, Note_on_c, 0, 73, 80
2, 93999, Note_on_c, 0, 73, 0
2, 94000, Note_on_c, 0, 79, 80
2, 94015, Note_on_c, 0, 79, 0
2, 94016, Note_on_c, 0, 77, 80
2, 94031, Note_on_c, 0, 77, 0
2, 94032, Note_on_c, 0, 76, 80
2, 94047, Note_on_c, 0, 76, 0
2, 94048, Note_on_c, 0, 74, 80
2, 94063, Note_on_c, 0, 74, 0
2, 94064, Note_on_c, 0, 73, 80
2, 94079, Note_on_c, 0, 73, 0
2, 94080, Note_on_c, 0, 74, 80
2, 94095, Note_on_c, 0, 74, 0
2, 94096, Note_on_c, 0, 81, 80
2, 94111, Note_on_c, 0, 81, 0
2, 94112, Note_on_c, 0, 79, 80
2, 94127, Note_on_c, 0, 79, 0
2, 94128, Note_on_c, 0, 77, 80
2, 94143, Note_on_c, 0, 77, 0
2, 94144, Note_on_c, 0, 76, 80
2, 94159, Note_on_c, 0, 76, 0
2, 94160, Note_on_c, 0, 74, 80
2, 94175, Note_on_c, 0, 74, 0
2, 94176, Note_on_c, 0, 73, 80
2, 94191, Note_on_c, 0, 73, 0
2, 94192, Note_on_c, 0, 79, 80
2, 94207, Note_on_c, 0, 79, 0
2, 94208, Note_on_c, 0, 77, 80
2, 94223, Note_on_c, 0, 77, 0
2, 94224, Note_on_c, 0, 76, 80
2, 94239, Note_on_c, 0, 76, 0
2, 94240, Note_on_c, 0, 74, 80
2, 94255, Note_on_c, 0, 74, 0
2, 94256, Note_on_c, 0, 73, 80
2, 94271, Note_on_c, 0, 73, 0
2, 94272, Note_on_c, 0, 74, 80
2, 94317, Note_on_c, 0, 74, 0
2, 94392, Note_on_c, 0, 77, 64
2, 94415, Note_on_c, 0, 77, 0
2, 94416, Note_on_c, 0, 81, 64
2, 94439, Note_on_c, 0, 81, 0
2, 94440, Note_on_c, 0, 86, 64
2, 94463, Note_on_c, 0, 86, 0
2, 94464, Note_on_c, 0, 89, 64
2, 94484, Note_on_c, 0, 89, 0
2, 94536, Note_on_c, 0, 49, 80
2, 94559, Note_on_c, 0, 49, 0
2, 94560, Note_on_c, 0, 50, 80
2, 94583, Note_on_c, 0, 50, 0
2, 94584, Note_on_c, 0, 49, 80
2, 94607, Note_on_c, 0, 49, 0
2, 94608, Note_on_c, 0, 50, 80
2, 94631, Note_on_c, 0, 50, 0
2, 94632, Note_on_c, 0, 49, 80
2, 94655, Note_on_c, 0, 49, 0
2, 94656, Note_on_c, 0, 50, 80
2, 94676, Note_on_c, 0, 50, 0
2, 94728, Note_on_c, 0, 73, 64
2, 94751, Note_on_c, 0, 73, 0
2, 94752, Note_on_c, 0, 74, 64
2, 94775, Note_on_c, 0, 74, 0
2, 94776, Note_on_c, 0, 73, 64
2, 94799, Note_on_c, 0, 73, 0
2, 94800, Note_on_c, 0, 74, 64
2, 94823, Note_on_c, 0, 74, 0
2, 94824, Note_on_c, 0, 76, 64
2, 94847, Note_on_c, 0, 76, 0
2, 94848, Note_on_c, 0, 77, 64
2, 94893, Note_on_c, 0, 77, 0
2, 94920, Note_on_c, 0, 76, 64
2, 94943, Note_on_c, 0, 76, 0
2, 94944, Note_on_c, 0, 77, 64
2, 94967, Note_on_c, 0, 77, 0
2, 94968, Note_on_c, 0, 76, 64
2, 94991, Note_on_c, 0, 76, 0
2, 94992, Note_on_c, 0, 77, 64
2, 95015, Note_on_c, 0, 77, 0
2, 95016, Note_on_c, 0, 79, 64
2, 95039, Note_on_c, 0, 79, 0
2, 95040, Note_on_c, 0, 80, 64
2, 95085, Note_on_c, 0, 80, 0
2, 95112, Note_on_c, 0, 56, 80
2, 95135, Note_on_c, 0, 56, 0
2, 95136, Note_on_c, 0, 55, 80
2, 95159, Note_on_c, 0, 55, 0
2, 95160, Note_on_c, 0, 56, 80
2, 95183, Note_on_c, 0, 56, 0
2, 95184, Note_on_c, 0, 55, 80
2, 95207, Note_on_c, 0, 55, 0
2, 95208, Note_on_c, 0, 56, 80
2, 95231, Note_on_c, 0, 56, 0
2, 95232, Note_on_c, 0, 55, 80
2, 95252, Note_on_c, 0, 55, 0
2, 95304, Note_on_c, 0, 64, 70
2, 95327, Note_on_c, 0, 64, 0
2, 95328, Note_on_c, 0, 65, 70
2, 95351, Note_on_c, 0, 65, 0
2, 95352, Note_on_c, 0, 64, 70
2, 95375, Note_on_c, 0, 64, 0
2, 95376, Note_on_c, 0, 65, 70
2, 95399, Note_on_c, 0, 65, 0
2, 95400, Note_on_c, 0, 64, 70
2, 95423, Note_on_c, 0, 64, 0
2, 95424, Note_on_c, 0, 65, 70
2, 95469, Note_on_c, 0, 65, 0
2, 95520, Note_on_c, 0, 77, 75
2, 95520, Note_on_c, 0, 74, 75
2, 95568, Note_on_c, 0, 77, 0
2, 95568, Note_on_c, 0, 74, 0
2, 95568, Note_on_c, 0, 76, 75
2, 95568, Note_on_c, 0, 72, 75
2, 95613, Note_on_c, 0, 76, 0
2, 95613, Note_on_c, 0, 72, 0
2, 95616, Note_on_c, 0, 74, 75
2, 95616, Note_on_c, 0, 71, 75
2, 95661, Note_on_c, 0, 74, 0
2, 95661, Note_on_c, 0, 71, 0
2, 95712, Note_on_c, 0, 86, 80
2, 95712, Note_on_c, 0, 77, 80
2, 95760, Note_on_c, 0, 86, 0
2, 95760, Note_on_c, 0, 77, 0
2, 95760, Note_on_c, 0, 84, 80
2, 95760, Note_on_c, 0, 76, 80
2, 95780, Note_on_c, 0, 84, 0
2, 95780, Note_on_c, 0, 76, 0
2, 95808, Note_on_c, 0, 83, 80
2, 95808, Note_on_c, 0, 74, 80
2, 95828, Note_on_c, 0, 83, 0
2, 95828, Note_on_c, 0, 74, 0
2, 95904, Note_on_c, 0, 89, 86
2, 95904, Note_on_c, 0, 86, 86
2, 95904, Note_on_c, 0, 83, 86
2, 95904, Note_on_c, 0, 79, 86
2, 95949, Note_on_c, 0, 89, 0
2, 95949, Note_on_c, 0, 86, 0
2, 95949, Note_on_c, 0, 83, 0
2, 95949, Note_on_c, 0, 79, 0
2, 95952, Note_on_c, 0, 89, 86
2, 95952, Note_on_c, 0, 86, 86
2, 95952, Note_on_c, 0, 83, 86
2, 95952, Note_on_c, 0, 79, 86
2, 95997, Note_on_c, 0, 89, 0
2, 95997, Note_on_c, 0, 86, 0
2, 95997, Note_on_c, 0, 83, 0
2, 95997, Note_on_c, 0, 79, 0
2, 96000, Note_on_c, 0, 89, 86
2, 96000, Note_on_c, 0, 86, 86
2, 96000, Note_on_c, 0, 83, 86
2, 96000, Note_on_c, 0, 79, 86
2, 96177, Note_on_c, 0, 89, 0
2, 96177, Note_on_c, 0, 86, 0
2, 96177, Note_on_c, 0, 83, 0
2, 96177, Note_on_c, 0, 79, 0
2, 96384, Note_on_c, 0, 72, 64
2, 96404, Note_on_c, 0, 72, 0
2, 96480, Note_on_c, 0, 67, 64
2, 96500, Note_on_c, 0, 67, 0
2, 96576, Note_on_c, 0, 64, 64
2, 96596, Note_on_c, 0, 64, 0
2, 96720, Note_on_c, 0, 69, 64
2, 96768, Note_on_c, 0, 69, 0
2, 96768, Note_on_c, 0, 62, 64
2, 96788, Note_on_c, 0, 62, 0
2, 96912, Note_on_c, 0, 67, 64
2, 96960, Note_on_c, 0, 67, 0
2, 96960, Note_on_c, 0, 60, 64
2, 96980, Note_on_c, 0, 60, 0
2, 97104, Note_on_c, 0, 76, 64
2, 97152, Note_on_c, 0, 76, 0
2, 97152, Note_on_c, 0, 65, 64
2, 97172, Note_on_c, 0, 65, 0
2, 97272, Note_on_c, 0, 74, 64
2, 97295, Note_on_c, 0, 74, 0
2, 97296, Note_on_c, 0, 65, 64
2, 97319, Note_on_c, 0, 65, 0
2, 97320, Note_on_c, 0, 74, 64
2, 97343, Note_on_c, 0, 74, 0
2, 97344, Note_on_c, 0, 64, 64
2, 97389, Note_on_c, 0, 64, 0
2, 97464, Note_on_c, 0, 72, 64
2, 97487, Note_on_c, 0, 72, 0
2, 97488, Note_on_c, 0, 64, 64
2, 97511, Note_on_c, 0, 64, 0
2, 97512, Note_on_c, 0, 72, 64
2, 97535, Note_on_c, 0, 72, 0
2, 97536, Note_on_c, 0, 62, 64
2, 97584, Note_on_c, 0, 62, 0
2, 97584, Note_on_c, 0, 69, 64
2, 97629, Note_on_c, 0, 69, 0
2, 97632, Note_on_c, 0, 57, 64
2, 97680, Note_on_c, 0, 57, 0
2, 97680, Note_on_c, 0, 59, 64
2, 97725, Note_on_c, 0, 59, 0
2, 97728, Note_on_c, 0, 62, 64
2, 97776, Note_on_c, 0, 62, 0
2, 97776, Note_on_c, 0, 60, 64
2, 97821, Note_on_c, 0, 60, 0
2, 97872, Note_on_c, 0, 62, 64
2, 97872, Note_on_c, 0, 59, 64
2, 97892, Note_on_c, 0, 62, 0
2, 97892, Note_on_c, 0, 59, 0
2, 97920, Note_on_c, 0, 65, 64
2, 97920, Note_on_c, 0, 62, 64
2, 97968, Note_on_c, 0, 65, 0
2, 97968, Note_on_c, 0, 62, 0
2, 97968, Note_on_c, 0, 64, 64
2, 97968, Note_on_c, 0, 60, 64
2, 98013, Note_on_c, 0, 64, 0
2, 98013, Note_on_c, 0, 60, 0
2, 98064, Note_on_c, 0, 65, 64
2, 98064, Note_on_c, 0, 62, 64
2, 98084, Note_on_c, 0, 65, 0
2, 98084, Note_on_c, 0, 62, 0
2, 98112, Note_on_c, 0, 69, 64
2, 98112, Note_on_c, 0, 65, 64
2, 98160, Note_on_c, 0, 69, 0
2, 98160, Note_on_c, 0, 65, 0
2, 98160, Note_on_c, 0, 67, 64
2, 98160, Note_on_c, 0, 64, 64
2, 98205, Note_on_c, 0, 67, 0
2, 98205, Note_on_c, 0, 64, 0
2, 98232, Note_on_c, 0, 71, 67
2, 98255, Note_on_c, 0, 71, 0
2, 98256, Note_on_c, 0, 62, 68
2, 98279, Note_on_c, 0, 62, 0
2, 98280, Note_on_c, 0, 71, 69
2, 98303, Note_on_c, 0, 71, 0
2, 98304, Note_on_c, 0, 74, 70
2, 98304, Note_on_c, 0, 65, 70
2, 98352, Note_on_c, 0, 74, 0
2, 98352, Note_on_c, 0, 65, 0
2, 98352, Note_on_c, 0, 72, 73
2, 98352, Note_on_c, 0, 64, 73
2, 98397, Note_on_c, 0, 72, 0
2, 98397, Note_on_c, 0, 64, 0
2, 98448, Note_on_c, 0, 74, 77
2, 98448, Note_on_c, 0, 71, 77
2, 98468, Note_on_c, 0, 74, 0
2, 98468, Note_on_c, 0, 71, 0
2, 98496, Note_on_c, 0, 77, 98
2, 98496, Note_on_c, 0, 74, 98
2, 98592, Note_on_c, 0, 77, 0
2, 98592, Note_on_c, 0, 74, 0
2, 98592, Note_on_c, 0, 76, 64
2, 98592, Note_on_c, 0, 72, 64
2, 98607, Note_on_c, 0, 76, 0
2, 98607, Note_on_c, 0, 72, 0
2, 98688, Note_on_c, 0, 72, 80
2, 98694, Note_on_c, 0, 76, 80
2, 98700, Note_on_c, 0, 79, 80
2, 98706, Note_on_c, 0, 84, 80
2, 98733, Note_on_c, 0, 84, 0
2, 98733, Note_on_c, 0, 79, 0
2, 98733, Note_on_c, 0, 76, 0
2, 98733, Note_on_c, 0, 72, 0
2, 98784, Note_on_c, 0, 71, 80
2, 98792, Note_on_c, 0, 74, 80
2, 98800, Note_on_c, 0, 79, 80
2, 98829, Note_on_c, 0, 79, 0
2, 98829, Note_on_c, 0, 74, 0
2, 98829, Note_on_c, 0, 71, 0
2, 98880, Note_on_c, 0, 67, 80
2, 98888, Note_on_c, 0, 72, 80
2, 98896, Note_on_c, 0, 76, 80
2, 98925, Note_on_c, 0, 76, 0
2, 98925, Note_on_c, 0, 72, 0
2, 98925, Note_on_c, 0, 67, 0
2, 99024, Note_on_c, 0, 83, 75
2, 99036, Note_on_c, 0, 83, 0
2, 99036, Note_on_c, 0, 81, 75
2, 99048, Note_on_c, 0, 81, 0
2, 99048, Note_on_c, 0, 80, 75
2, 99060, Note_on_c, 0, 80, 0
2, 99060, Note_on_c, 0, 81, 75
2, 99072, Note_on_c, 0, 81, 0
2, 99072, Note_on_c, 0, 74, 75
2, 99092, Note_on_c, 0, 74, 0
2, 99216, Note_on_c, 0, 81, 75
2, 99228, Note_on_c, 0, 81, 0
2, 99228, Note_on_c, 0, 79, 75
2, 99240, Note_on_c, 0, 79, 0
2, 99240, Note_on_c, 0, 78, 75
2, 99252, Note_on_c, 0, 78, 0
2, 99252, Note_on_c, 0, 79, 75
2, 99264, Note_on_c, 0, 79, 0
2, 99264, Note_on_c, 0, 72, 75
2, 99284, Note_on_c, 0, 72, 0
2, 99408, Note_on_c, 0, 88, 75
2, 99456, Note_on_c, 0, 88, 0
2, 99456, Note_on_c, 0, 77, 75
2, 99476, Note_on_c, 0, 77, 0
2, 99600, Note_on_c, 0, 86, 75
2, 99648, Note_on_c, 0, 86, 0
2, 99648, Note_on_c, 0, 76, 75
2, 99668, Note_on_c, 0, 76, 0
2, 99792, Note_on_c, 0, 84, 75
2, 99840, Note_on_c, 0, 84, 0
2, 99840, Note_on_c, 0, 74, 75
2, 99860, Note_on_c, 0, 74, 0
2, 99888, Note_on_c, 0, 81, 75
2, 99888, Note_on_c, 0, 77, 75
2, 99933, Note_on_c, 0, 81, 0
2, 99933, Note_on_c, 0, 77, 0
2, 99936, Note_on_c, 0, 79, 75
2, 99936, Note_on_c, 0, 76, 75
2, 99984, Note_on_c, 0, 79, 0
2, 99984, Note_on_c, 0, 76, 0
2, 99984, Note_on_c, 0, 71, 75
2, 100029, Note_on_c, 0, 71, 0
2, 100032, Note_on_c, 0, 72, 75
2, 100052, Note_on_c, 0, 72, 0
2, 100080, Note_on_c, 0, 72, 75
2, 100100, Note_on_c, 0, 72, 0
2, 100176, Note_on_c, 0, 81, 80
2, 100188, Note_on_c, 0, 81, 0
2, 100188, Note_on_c, 0, 79, 80
2, 100200, Note_on_c, 0, 79, 0
2, 100200, Note_on_c, 0, 78, 80
2, 100212, Note_on_c, 0, 78, 0
2, 100212, Note_on_c, 0, 79, 80
2, 100224, Note_on_c, 0, 79, 0
2, 100224, Note_on_c, 0, 71, 80
2, 100244, Note_on_c, 0, 71, 0
2, 100272, Note_on_c, 0, 71, 80
2, 100292, Note_on_c, 0, 71, 0
2, 100368, Note_on_c, 0, 81, 80
2, 100380, Note_on_c, 0, 81, 0
2, 100380, Note_on_c, 0, 79, 80
2, 100392, Note_on_c, 0, 79, 0
2, 100392, Note_on_c, 0, 78, 80
2, 100404, Note_on_c, 0, 78, 0
2, 100404, Note_on_c, 0, 79, 80
2, 100416, Note_on_c, 0, 79, 0
2, 100416, Note_on_c, 0, 84, 80
2, 100464, Note_on_c, 0, 84, 0
2, 100464, Note_on_c, 0, 88, 80
2, 100509, Note_on_c, 0, 88, 0
2, 100536, Note_on_c, 0, 79, 70
2, 100559, Note_on_c, 0, 79, 0
2, 100560, Note_on_c, 0, 81, 70
2, 100572, Note_on_c, 0, 81, 0
2, 100572, Note_on_c, 0, 79, 70
2, 100584, Note_on_c, 0, 79, 0
2, 100584, Note_on_c, 0, 78, 70
2, 100596, Note_on_c, 0, 78, 0
2, 100596, Note_on_c, 0, 79, 70
2, 100608, Note_on_c, 0, 79, 0
2, 100608, Note_on_c, 0, 71, 70
2, 100628, Note_on_c, 0, 71, 0
2, 100656, Note_on_c, 0, 71, 70
2, 100676, Note_on_c, 0, 71, 0
2, 100728, Note_on_c, 0, 79, 70
2, 100751, Note_on_c, 0, 79, 0
2, 100752, Note_on_c, 0, 81, 70
2, 100764, Note_on_c, 0, 81, 0
2, 100764, Note_on_c, 0, 79, 70
2, 100776, Note_on_c, 0, 79, 0
2, 100776, Note_on_c, 0, 78, 70
2, 100788, Note_on_c, 0, 78, 0
2, 100788, Note_on_c, 0, 79, 70
2, 100800, Note_on_c, 0, 79, 0
2, 100800, Note_on_c, 0, 84, 70
2, 100848, Note_on_c, 0, 84, 0
2, 100848, Note_on_c, 0, 88, 70
2, 100893, Note_on_c, 0, 88, 0
2, 100920, Note_on_c, 0, 79, 80
2, 100943, Note_on_c, 0, 79, 0
2, 100944, Note_on_c, 0, 81, 80
2, 100956, Note_on_c, 0, 81, 0
2, 100956, Note_on_c, 0, 79, 80
2, 100968, Note_on_c, 0, 79, 0
2, 100968, Note_on_c, 0, 78, 80
2, 100980, Note_on_c, 0, 78, 0
2, 100980, Note_on_c, 0, 79, 80
2, 100992, Note_on_c, 0, 79, 0
2, 100992, Note_on_c, 0, 71, 80
2, 101012, Note_on_c, 0, 71, 0
2, 101040, Note_on_c, 0, 71, 80
2, 101060, Note_on_c, 0, 71, 0
2, 101136, Note_on_c, 0, 81, 80
2, 101148, Note_on_c, 0, 81, 0
2, 101148, Note_on_c, 0, 79, 80
2, 101160, Note_on_c, 0, 79, 0
2, 101160, Note_on_c, 0, 78, 80
2, 101172, Note_on_c, 0, 78, 0
2, 101172, Note_on_c, 0, 79, 80
2, 101184, Note_on_c, 0, 79, 0
2, 101184, Note_on_c, 0, 72, 80
2, 101204, Note_on_c, 0, 72, 0
2, 101232, Note_on_c, 0, 81, 80
2, 101244, Note_on_c, 0, 81, 0
2, 101244, Note_on_c, 0, 79, 80
2, 101256, Note_on_c, 0, 79, 0
2, 101256, Note_on_c, 0, 78, 80
2, 101268, Note_on_c, 0, 78, 0
2, 101268, Note_on_c, 0, 79, 80
2, 101280, Note_on_c, 0, 79, 0
2, 101280, Note_on_c, 0, 74, 80
2, 101300, Note_on_c, 0, 74, 0
2, 101328, Note_on_c, 0, 81, 80
2, 101340, Note_on_c, 0, 81, 0
2, 101340, Note_on_c, 0, 79, 80
2, 101352, Note_on_c, 0, 79, 0
2, 101352, Note_on_c, 0, 78, 80
2, 101364, Note_on_c, 0, 78, 0
2, 101364, Note_on_c, 0, 79, 80
2, 101376, Note_on_c, 0, 79, 0
2, 101376, Note_on_c, 0, 76, 80
2, 101396, Note_on_c, 0, 76, 0
2, 101424, Note_on_c, 0, 81, 80
2, 101436, Note_on_c, 0, 81, 0
2, 101436, Note_on_c, 0, 79, 80
2, 101448, Note_on_c, 0, 79, 0
2, 101448, Note_on_c, 0, 78, 80
2, 101460, Note_on_c, 0, 78, 0
2, 101460, Note_on_c, 0, 79, 80
2, 101472, Note_on_c, 0, 79, 0
2, 101472, Note_on_c, 0, 71, 80
2, 101492, Note_on_c, 0, 71, 0
2, 101520, Note_on_c, 0, 80, 80
2, 101532, Note_on_c, 0, 80, 0
2, 101532, Note_on_c, 0, 79, 80
2, 101544, Note_on_c, 0, 79, 0
2, 101544, Note_on_c, 0, 78, 80
2, 101556, Note_on_c, 0, 78, 0
2, 101556, Note_on_c, 0, 79, 80
2, 101568, Note_on_c, 0, 79, 0
2, 101568, Note_on_c, 0, 72, 75
2, 101588, Note_on_c, 0, 72, 0
2, 101616, Note_on_c, 0, 80, 75
2, 101628, Note_on_c, 0, 80, 0
2, 101628, Note_on_c, 0, 79, 75
2, 101640, Note_on_c, 0, 79, 0
2, 101640, Note_on_c, 0, 78, 75
2, 101652, Note_on_c, 0, 78, 0
2, 101652, Note_on_c, 0, 79, 76
2, 101664, Note_on_c, 0, 79, 0
2, 101664, Note_on_c, 0, 74, 76
2, 101684, Note_on_c, 0, 74, 0
2, 101712, Note_on_c, 0, 80, 76
2, 101724, Note_on_c, 0, 80, 0
2, 101724, Note_on_c, 0, 79, 76
2, 101736, Note_on_c, 0, 79, 0
2, 101736, Note_on_c, 0, 78, 77
2, 101748, Note_on_c, 0, 78, 0
2, 101748, Note_on_c, 0, 79, 77
2, 101760, Note_on_c, 0, 79, 0
2, 101760, Note_on_c, 0, 75, 77
2, 101780, Note_on_c, 0, 75, 0
2, 101808, Note_on_c, 0, 86, 77
2, 101820, Note_on_c, 0, 86, 0
2, 101820, Note_on_c, 0, 84, 78
2, 101832, Note_on_c, 0, 84, 0
2, 101832, Note_on_c, 0, 83, 78
2, 101844, Note_on_c, 0, 83, 0
2, 101844, Note_on_c, 0, 84, 78
2, 101856, Note_on_c, 0, 84, 0
2, 101856, Note_on_c, 0, 79, 78
2, 101876, Note_on_c, 0, 79, 0
2, 101904, Note_on_c, 0, 89, 79
2, 101916, Note_on_c, 0, 89, 0
2, 101916, Note_on_c, 0, 87, 79
2, 101928, Note_on_c, 0, 87, 0
2, 101928, Note_on_c, 0, 86, 79
2, 101940, Note_on_c, 0, 86, 0
2, 101940, Note_on_c, 0, 87, 79
2, 101952, Note_on_c, 0, 87, 0
2, 101976, Note_on_c, 0, 83, 80
2, 101999, Note_on_c, 0, 83, 0
2, 102000, Note_on_c, 0, 86, 80
2, 102023, Note_on_c, 0, 86, 0
2, 102024, Note_on_c, 0, 84, 80
2, 102047, Note_on_c, 0, 84, 0
2, 102048, Note_on_c, 0, 82, 80
2, 102071, Note_on_c, 0, 82, 0
2, 102072, Note_on_c, 0, 80, 80
2, 102095, Note_on_c, 0, 80, 0
2, 102096, Note_on_c, 0, 79, 80
2, 102119, Note_on_c, 0, 79, 0
2, 102120, Note_on_c, 0, 78, 80
2, 102143, Note_on_c, 0, 78, 0
2, 102144, Note_on_c, 0, 79, 80
2, 102167, Note_on_c, 0, 79, 0
2, 102168, Note_on_c, 0, 78, 80
2, 102191, Note_on_c, 0, 78, 0
2, 102192, Note_on_c, 0, 79, 80
2, 102215, Note_on_c, 0, 79, 0
2, 102216, Note_on_c, 0, 74, 80
2, 102239, Note_on_c, 0, 74, 0
2, 102240, Note_on_c, 0, 75, 80
2, 102263, Note_on_c, 0, 75, 0
2, 102264, Note_on_c, 0, 74, 80
2, 102287, Note_on_c, 0, 74, 0
2, 102288, Note_on_c, 0, 75, 80
2, 102311, Note_on_c, 0, 75, 0
2, 102312, Note_on_c, 0, 71, 80
2, 102335, Note_on_c, 0, 71, 0
2, 102336, Note_on_c, 0, 72, 80
2, 102359, Note_on_c, 0, 72, 0
2, 102360, Note_on_c, 0, 71, 80
2, 102383, Note_on_c, 0, 71, 0
2, 102384, Note_on_c, 0, 72, 80
2, 102407, Note_on_c, 0, 72, 0
2, 102408, Note_on_c, 0, 67, 80
2, 102431, Note_on_c, 0, 67, 0
2, 102432, Note_on_c, 0, 68, 80
2, 102455, Note_on_c, 0, 68, 0
2, 102456, Note_on_c, 0, 67, 80
2, 102479, Note_on_c, 0, 67, 0
2, 102480, Note_on_c, 0, 68, 80
2, 102503, Note_on_c, 0, 68, 0
2, 102504, Note_on_c, 0, 66, 80
2, 102527, Note_on_c, 0, 66, 0
2, 102528, Note_on_c, 0, 67, 80
2, 102551, Note_on_c, 0, 67, 0
2, 102552, Note_on_c, 0, 66, 80
2, 102575, Note_on_c, 0, 66, 0
2, 102576, Note_on_c, 0, 67, 80
2, 102599, Note_on_c, 0, 67, 0
2, 102600, Note_on_c, 0, 62, 80
2, 102623, Note_on_c, 0, 62, 0
2, 102624, Note_on_c, 0, 63, 80
2, 102647, Note_on_c, 0, 63, 0
2, 102648, Note_on_c, 0, 62, 80
2, 102671, Note_on_c, 0, 62, 0
2, 102672, Note_on_c, 0, 63, 80
2, 102695, Note_on_c, 0, 63, 0
2, 102696, Note_on_c, 0, 59, 80
2, 102719, Note_on_c, 0, 59, 0
2, 102720, Note_on_c, 0, 60, 80
2, 102743, Note_on_c, 0, 60, 0
2, 102744, Note_on_c, 0, 59, 80
2, 102767, Note_on_c, 0, 59, 0
2, 102768, Note_on_c, 0, 60, 80
2, 102791, Note_on_c, 0, 60, 0
2, 102792, Note_on_c, 0, 55, 80
2, 102815, Note_on_c, 0, 55, 0
2, 102816, Note_on_c, 0, 56, 80
2, 102839, Note_on_c, 0, 56, 0
2, 102840, Note_on_c, 0, 55, 80
2, 102863, Note_on_c, 0, 55, 0
2, 102864, Note_on_c, 0, 56, 80
2, 102887, Note_on_c, 0, 56, 0
2, 102888, Note_on_c, 0, 54, 80
2, 102911, Note_on_c, 0, 54, 0
2, 103296, Control_c, 0, 64, 127
2, 103344, Note_on_c, 0, 76, 58
2, 103433, Note_on_c, 0, 76, 0
2, 103440, Note_on_c, 0, 79, 58
2, 103529, Note_on_c, 0, 79, 0
2, 103536, Note_on_c, 0, 84, 58
2, 103625, Note_on_c, 0, 84, 0
2, 103632, Note_on_c, 0, 85, 58
2, 103725, Note_on_c, 0, 85, 0
2, 103728, Note_on_c, 0, 86, 58
2, 103817, Note_on_c, 0, 86, 0
2, 103824, Note_on_c, 0, 83, 58
2, 103913, Note_on_c, 0, 83, 0
2, 103920, Note_on_c, 0, 84, 58
2, 104009, Note_on_c, 0, 84, 0
2, 104832, Control_c, 0, 64, 0
2, 104880, Note_on_c, 0, 74, 60
2, 104976, Note_on_c, 0, 74, 0
2, 104976, Note_on_c, 0, 72, 66
2, 105021, Note_on_c, 0, 72, 0
2, 105024, Note_on_c, 0, 71, 68
2, 105047, Note_on_c, 0, 71, 0
2, 105048, Note_on_c, 0, 79, 70
2, 105071, Note_on_c, 0, 79, 0
2, 105072, Note_on_c, 0, 77, 70
2, 105095, Note_on_c, 0, 77, 0
2, 105096, Note_on_c, 0, 74, 70
2, 105119, Note_on_c, 0, 74, 0
2, 105120, Note_on_c, 0, 71, 70
2, 105165, Note_on_c, 0, 71, 0
2, 105240, Note_on_c, 0, 79, 70
2, 105263, Note_on_c, 0, 79, 0
2, 105264, Note_on_c, 0, 76, 70
2, 105287, Note_on_c, 0, 76, 0
2, 105288, Note_on_c, 0, 72, 70
2, 105311, Note_on_c, 0, 72, 0
2, 105312, Note_on_c, 0, 67, 70
2, 105357, Note_on_c, 0, 67, 0
2, 105432, Note_on_c, 0, 79, 70
2, 105455, Note_on_c, 0, 79, 0
2, 105456, Note_on_c, 0, 77, 70
2, 105479, Note_on_c, 0, 77, 0
2, 105480, Note_on_c, 0, 74, 70
2, 105503, Note_on_c, 0, 74, 0
2, 105504, Note_on_c, 0, 71, 70
2, 105549, Note_on_c, 0, 71, 0
2, 105624, Note_on_c, 0, 76, 70
2, 105648, Note_on_c, 0, 76, 0
2, 105648, Note_on_c, 0, 72, 70
2, 105671, Note_on_c, 0, 72, 0
2, 105720, Note_on_c, 0, 79, 64
2, 105744, Note_on_c, 0, 79, 0
2, 105744, Note_on_c, 0, 76, 65
2, 105767, Note_on_c, 0, 76, 0
2, 105816, Note_on_c, 0, 84, 68
2, 105840, Note_on_c, 0, 84, 0
2, 105840, Note_on_c, 0, 79, 69
2, 105863, Note_on_c, 0, 79, 0
2, 105912, Note_on_c, 0, 88, 72
2, 105936, Note_on_c, 0, 88, 0
2, 105936, Note_on_c, 0, 84, 73
2, 105959, Note_on_c, 0, 84, 0
2, 106008, Note_on_c, 0, 83, 75
2, 106032, Note_on_c, 0, 83, 0
2, 106032, Note_on_c, 0, 84, 75
2, 106055, Note_on_c, 0, 84, 0
2, 106104, Note_on_c, 0, 80, 75
2, 106128, Note_on_c, 0, 80, 0
2, 106128, Note_on_c, 0, 81, 75
2, 106151, Note_on_c, 0, 81, 0
2, 106200, Note_on_c, 0, 76, 75
2, 106224, Note_on_c, 0, 76, 0
2, 106224, Note_on_c, 0, 77, 75
2, 106247, Note_on_c, 0, 77, 0
2, 106296, Note_on_c, 0, 73, 75
2, 106320, Note_on_c, 0, 73, 0
2, 106320, Note_on_c, 0, 74, 75
2, 106343, Note_on_c, 0, 74, 0
2, 106392, Note_on_c, 0, 67, 75
2, 106415, Note_on_c, 0, 67, 0
2, 106416, Note_on_c, 0, 68, 75
2, 106439, Note_on_c, 0, 68, 0
2, 106440, Note_on_c, 0, 69, 75
2, 106463, Note_on_c, 0, 69, 0
2, 106464, Note_on_c, 0, 70, 75
2, 106487, Note_on_c, 0, 70, 0
2, 106488, Note_on_c, 0, 71, 75
2, 106511, Note_on_c, 0, 71, 0
2, 106512, Note_on_c, 0, 72, 75
2, 106535, Note_on_c, 0, 72, 0
2, 106536, Note_on_c, 0, 73, 75
2, 106559, Note_on_c, 0, 73, 0
2, 106560, Note_on_c, 0, 74, 75
2, 106583, Note_on_c, 0, 74, 0
2, 106584, Note_on_c, 0, 75, 75
2, 106607, Note_on_c, 0, 75, 0
2, 106608, Note_on_c, 0, 76, 75
2, 106631, Note_on_c, 0, 76, 0
2, 106632, Note_on_c, 0, 77, 75
2, 106655, Note_on_c, 0, 77, 0
2, 106656, Note_on_c, 0, 78, 75
2, 106679, Note_on_c, 0, 78, 0
2, 106680, Note_on_c, 0, 79, 75
2, 106703, Note_on_c, 0, 79, 0
2, 106704, Note_on_c, 0, 76, 75
2, 106727, Note_on_c, 0, 76, 0
2, 106728, Note_on_c, 0, 72, 75
2, 106751, Note_on_c, 0, 72, 0
2, 106752, Note_on_c, 0, 76, 96
2, 106765, Note_on_c, 0, 76, 0
2, 106765, Note_on_c, 0, 74, 80
2, 106777, Note_on_c, 0, 74, 0
2, 106778, Note_on_c, 0, 76, 80
2, 106790, Note_on_c, 0, 76, 0
2, 106791, Note_on_c, 0, 74, 80
2, 106803, Note_on_c, 0, 74, 0
2, 106804, Note_on_c, 0, 76, 80
2, 106816, Note_on_c, 0, 76, 0
2, 106817, Note_on_c, 0, 74, 80
2, 106829, Note_on_c, 0, 74, 0
2, 106830, Note_on_c, 0, 76, 80
2, 106842, Note_on_c, 0, 76, 0
2, 106843, Note_on_c, 0, 74, 80
2, 106855, Note_on_c, 0, 74, 0
2, 106856, Note_on_c, 0, 76, 80
2, 106868, Note_on_c, 0, 76, 0
2, 106869, Note_on_c, 0, 74, 80
2, 106881, Note_on_c, 0, 74, 0
2, 106882, Note_on_c, 0, 76, 80
2, 106894, Note_on_c, 0, 76, 0
2, 106895, Note_on_c, 0, 74, 80
2, 106907, Note_on_c, 0, 74, 0
2, 106908, Note_on_c, 0, 76, 80
2, 106920, Note_on_c, 0, 76, 0
2, 106921, Note_on_c, 0, 74, 80
2, 106933, Note_on_c, 0, 74, 0
2, 106934, Note_on_c, 0, 76, 80
2, 106946, Note_on_c, 0, 76, 0
2, 106947, Note_on_c, 0, 74, 80
2, 106959, Note_on_c, 0, 74, 0
2, 106960, Note_on_c, 0, 76, 80
2, 106972, Note_on_c, 0, 76, 0
2, 106973, Note_on_c, 0, 74, 80
2, 106985, Note_on_c, 0, 74, 0
2, 106986, Note_on_c, 0, 76, 80
2, 106998, Note_on_c, 0, 76, 0
2, 106999, Note_on_c, 0, 74, 80
2, 107011, Note_on_c, 0, 74, 0
2, 107012, Note_on_c, 0, 76, 80
2, 107024, Note_on_c, 0, 76, 0
2, 107025, Note_on_c, 0, 74, 80
2, 107037, Note_on_c, 0, 74, 0
2, 107038, Note_on_c, 0, 76, 80
2, 107050, Note_on_c, 0, 76, 0
2, 107051, Note_on_c, 0, 74, 80
2, 107063, Note_on_c, 0, 74, 0
2, 107064, Note_on_c, 0, 76, 80
2, 107076, Note_on_c, 0, 76, 0
2, 107076, Note_on_c, 0, 74, 80
2, 107088, Note_on_c, 0, 74, 0
2, 107088, Note_on_c, 0, 76, 80
2, 107100, Note_on_c, 0, 76, 0
2, 107100, Note_on_c, 0, 74, 80
2, 107112, Note_on_c, 0, 74, 0
2, 107112, Note_on_c, 0, 72, 80
2, 107124, Note_on_c, 0, 72, 0
2, 107124, Note_on_c, 0, 74, 80
2, 107136, Note_on_c, 0, 74, 0
2, 107160, Note_on_c, 0, 76, 75
2, 107160, Note_on_c, 0, 72, 75
2, 107184, Note_on_c, 0, 76, 0
2, 107184, Note_on_c, 0, 72, 0
2, 107184, Note_on_c, 0, 74, 75
2, 107184, Note_on_c, 0, 71, 75
2, 107194, Note_on_c, 0, 74, 0
2, 107194, Note_on_c, 0, 71, 0
2, 107208, Note_on_c, 0, 77, 76
2, 107208, Note_on_c, 0, 74, 76
2, 107232, Note_on_c, 0, 77, 0
2, 107232, Note_on_c, 0, 74, 0
2, 107232, Note_on_c, 0, 76, 77
2, 107232, Note_on_c, 0, 72, 77
2, 107242, Note_on_c, 0, 76, 0
2, 107242, Note_on_c, 0, 72, 0
2, 107256, Note_on_c, 0, 79, 77
2, 107256, Note_on_c, 0, 76, 77
2, 107280, Note_on_c, 0, 79, 0
2, 107280, Note_on_c, 0, 76, 0
2, 107280, Note_on_c, 0, 77, 78
2, 107280, Note_on_c, 0, 74, 78
2, 107290, Note_on_c, 0, 77, 0
2, 107290, Note_on_c, 0, 74, 0
2, 107304, Note_on_c, 0, 81, 79
2, 107304, Note_on_c, 0, 77, 79
2, 107328, Note_on_c, 0, 81, 0
2, 107328, Note_on_c, 0, 77, 0
2, 107328, Note_on_c, 0, 79, 96
2, 107328, Note_on_c, 0, 76, 96
2, 107348, Note_on_c, 0, 79, 0
2, 107348, Note_on_c, 0, 76, 0
2, 107400, Note_on_c, 0, 77, 74
2, 107400, Note_on_c, 0, 74, 74
2, 107424, Note_on_c, 0, 77, 0
2, 107424, Note_on_c, 0, 74, 0
2, 107424, Note_on_c, 0, 76, 72
2, 107424, Note_on_c, 0, 72, 72
2, 107444, Note_on_c, 0, 76, 0
2, 107444, Note_on_c, 0, 72, 0
2, 107496, Note_on_c, 0, 74, 66
2, 107496, Note_on_c, 0, 65, 66
2, 107520, Note_on_c, 0, 74, 0
2, 107520, Note_on_c, 0, 65, 0
2, 107520, Note_on_c, 0, 72, 64
2, 107520, Note_on_c, 0, 64, 64
2, 107530, Note_on_c, 0, 72, 0
2, 107530, Note_on_c, 0, 64, 0
2, 107544, Note_on_c, 0, 76, 66
2, 107544, Note_on_c, 0, 72, 66
2, 107568, Note_on_c, 0, 76, 0
2, 107568, Note_on_c, 0, 72, 0
2, 107568, Note_on_c, 0, 74, 68
2, 107568, Note_on_c, 0, 71, 68
2, 107578, Note_on_c, 0, 74, 0
2, 107578, Note_on_c, 0, 71, 0
2, 107592, Note_on_c, 0, 77, 70
2, 107592, Note_on_c, 0, 74, 70
2, 107616, Note_on_c, 0, 77, 0
2, 107616, Note_on_c, 0, 74, 0
2, 107616, Note_on_c, 0, 76, 72
2, 107616, Note_on_c, 0, 72, 72
2, 107626, Note_on_c, 0, 76, 0
2, 107626, Note_on_c, 0, 72, 0
2, 107640, Note_on_c, 0, 79, 74
2, 107640, Note_on_c, 0, 76, 74
2, 107664, Note_on_c, 0, 79, 0
2, 107664, Note_on_c, 0, 76, 0
2, 107664, Note_on_c, 0, 77, 76
2, 107664, Note_on_c, 0, 74, 76
2, 107674, Note_on_c, 0, 77, 0
2, 107674, Note_on_c, 0, 74, 0
2, 107688, Note_on_c, 0, 81, 78
2, 107688, Note_on_c, 0, 77, 78
2, 107712, Note_on_c, 0, 81, 0
2, 107712, Note_on_c, 0, 77, 0
2, 107712, Note_on_c, 0, 79, 96
2, 107712, Note_on_c, 0, 76, 96
2, 107732, Note_on_c, 0, 79, 0
2, 107732, Note_on_c, 0, 76, 0
2, 107784, Note_on_c, 0, 77, 74
2, 107784, Note_on_c, 0, 74, 74
2, 107808, Note_on_c, 0, 77, 0
2, 107808, Note_on_c, 0, 74, 0
2, 107808, Note_on_c, 0, 76, 72
2, 107808, Note_on_c, 0, 72, 72
2, 107828, Note_on_c, 0, 76, 0
2, 107828, Note_on_c, 0, 72, 0
2, 107880, Note_on_c, 0, 74, 66
2, 107880, Note_on_c, 0, 65, 66
2, 107904, Note_on_c, 0, 74, 0
2, 107904, Note_on_c, 0, 65, 0
2, 107904, Note_on_c, 0, 72, 64
2, 107904, Note_on_c, 0, 64, 64
2, 107914, Note_on_c, 0, 72, 0
2, 107914, Note_on_c, 0, 64, 0
2, 107928, Note_on_c, 0, 76, 66
2, 107928, Note_on_c, 0, 72, 66
2, 107952, Note_on_c, 0, 76, 0
2, 107952, Note_on_c, 0, 74, 68
2, 107962, Note_on_c, 0, 74, 0
2, 107962, Note_on_c, 0, 72, 0
2, 107976, Note_on_c, 0, 77, 70
2, 107976, Note_on_c, 0, 74, 70
2, 108000, Note_on_c, 0, 77, 0
2, 108000, Note_on_c, 0, 74, 0
2, 108000, Note_on_c, 0, 76, 72
2, 108000, Note_on_c, 0, 72, 72
2, 108010, Note_on_c, 0, 76, 0
2, 108010, Note_on_c, 0, 72, 0
2, 108024, Note_on_c, 0, 79, 74
2, 108024, Note_on_c, 0, 76, 74
2, 108048, Note_on_c, 0, 79, 0
2, 108048, Note_on_c, 0, 76, 0
2, 108048, Note_on_c, 0, 77, 76
2, 108048, Note_on_c, 0, 74, 76
2, 108058, Note_on_c, 0, 77, 0
2, 108058, Note_on_c, 0, 74, 0
2, 108072, Note_on_c, 0, 81, 78
2, 108072, Note_on_c, 0, 77, 78
2, 108096, Note_on_c, 0, 81, 0
2, 108096, Note_on_c, 0, 77, 0
2, 108096, Note_on_c, 0, 79, 96
2, 108096, Note_on_c, 0, 76, 96
2, 108116, Note_on_c, 0, 79, 0
2, 108116, Note_on_c, 0, 76, 0
2, 108168, Note_on_c, 0, 77, 74
2, 108168, Note_on_c, 0, 74, 74
2, 108192, Note_on_c, 0, 77, 0
2, 108192, Note_on_c, 0, 74, 0
2, 108192, Note_on_c, 0, 76, 72
2, 108192, Note_on_c, 0, 72, 72
2, 108212, Note_on_c, 0, 76, 0
2, 108212, Note_on_c, 0, 72, 0
2, 108264, Note_on_c, 0, 74, 66
2, 108264, Note_on_c, 0, 65, 66
2, 108288, Note_on_c, 0, 74, 0
2, 108288, Note_on_c, 0, 65, 0
2, 108288, Control_c, 0, 64, 127
2, 108288, Note_on_c, 0, 72, 70
2, 108288, Note_on_c, 0, 64, 70
2, 108480, Note_on_c, 0, 72, 0
2, 108480, Control_c, 0, 64, 0
2, 108480, Control_c, 0, 64, 127
2, 108480, Note_on_c, 0, 73, 70
2, 108672, Note_on_c, 0, 64, 0
2, 108761, Note_on_c, 0, 73, 0
2, 108768, Control_c, 0, 64, 0
2, 108768, Control_c, 0, 64, 127
2, 108768, Note_on_c, 0, 72, 70
2, 108857, Note_on_c, 0, 72, 0
2, 108864, Control_c, 0, 64, 0
2, 108864, Control_c, 0, 64, 127
2, 108864, Note_on_c, 0, 71, 88
2, 109041, Note_on_c, 0, 71, 0
2, 109056, Control_c, 0, 64, 0
2, 109056, Control_c, 0, 64, 127
2, 109056, Note_on_c, 0, 70, 70
2, 109248, Note_on_c, 0, 70, 0
2, 109248, Control_c, 0, 64, 0
2, 109248, Control_c, 0, 64, 127
2, 109248, Note_on_c, 0, 69, 70
2, 109425, Note_on_c, 0, 69, 0
2, 109440, Control_c, 0, 64, 0
2, 109440, Control_c, 0, 64, 127
2, 109440, Note_on_c, 0, 69, 70
2, 109617, Note_on_c, 0, 69, 0
2, 109632, Note_on_c, 0, 69, 88
2, 109809, Note_on_c, 0, 69, 0
2, 109824, Control_c, 0, 64, 0
2, 109824, Control_c, 0, 64, 127
2, 109824, Note_on_c, 0, 67, 70
2, 110208, Control_c, 0, 64, 0
2, 110253, Note_on_c, 0, 67, 0
2, 110256, Note_on_c, 0, 76, 80
2, 110256, Note_on_c, 0, 72, 80
2, 110256, Note_on_c, 0, 67, 80
2, 110276, Note_on_c, 0, 76, 0
2, 110276, Note_on_c, 0, 72, 0
2, 110276, Note_on_c, 0, 67, 0
2, 110304, Note_on_c, 0, 77, 80
2, 110304, Note_on_c, 0, 74, 80
2, 110304, Note_on_c, 0, 67, 80
2, 110324, Note_on_c, 0, 77, 0
2, 110324, Note_on_c, 0, 74, 0
2, 110324, Note_on_c, 0, 67, 0
2, 110352, Note_on_c, 0, 76, 80
2, 110352, Note_on_c, 0, 72, 80
2, 110352, Note_on_c, 0, 67, 80
2, 110372, Note_on_c, 0, 76, 0
2, 110372, Note_on_c, 0, 72, 0
2, 110372, Note_on_c, 0, 67, 0
2, 110400, Note_on_c, 0, 81, 80
2, 110400, Note_on_c, 0, 77, 80
2, 110400, Note_on_c, 0, 69, 80
2, 110420, Note_on_c, 0, 81, 0
2, 110420, Note_on_c, 0, 77, 0
2, 110420, Note_on_c, 0, 69, 0
2, 110496, Note_on_c, 0, 62, 64
2, 110530, Note_on_c, 0, 62, 0
2, 110532, Note_on_c, 0, 64, 64
2, 110544, Note_on_c, 0, 64, 0
2, 110544, Note_on_c, 0, 65, 64
2, 110578, Note_on_c, 0, 65, 0
2, 110580, Note_on_c, 0, 67, 64
2, 110592, Note_on_c, 0, 67, 0
2, 110592, Note_on_c, 0, 67, 64
2, 110592, Note_on_c, 0, 64, 64
2, 110637, Note_on_c, 0, 67, 0
2, 110637, Note_on_c, 0, 64, 0
2, 110640, Note_on_c, 0, 76, 80
2, 110640, Note_on_c, 0, 72, 80
2, 110640, Note_on_c, 0, 67, 80
2, 110660, Note_on_c, 0, 76, 0
2, 110660, Note_on_c, 0, 72, 0
2, 110660, Note_on_c, 0, 67, 0
2, 110688, Note_on_c, 0, 77, 80
2, 110688, Note_on_c, 0, 74, 80
2, 110688, Note_on_c, 0, 67, 80
2, 110708, Note_on_c, 0, 77, 0
2, 110708, Note_on_c, 0, 74, 0
2, 110708, Note_on_c, 0, 67, 0
2, 110736, Note_on_c, 0, 76, 80
2, 110736, Note_on_c, 0, 72, 80
2, 110736, Note_on_c, 0, 67, 80
2, 110756, Note_on_c, 0, 76, 0
2, 110756, Note_on_c, 0, 72, 0
2, 110756, Note_on_c, 0, 67, 0
2, 110784, Note_on_c, 0, 81, 80
2, 110784, Note_on_c, 0, 77, 80
2, 110784, Note_on_c, 0, 69, 80
2, 110804, Note_on_c, 0, 81, 0
2, 110804, Note_on_c, 0, 77, 0
2, 110804, Note_on_c, 0, 69, 0
2, 110880, Note_on_c, 0, 59, 64
2, 110895, Note_on_c, 0, 59, 0
2, 110896, Note_on_c, 0, 62, 64
2, 110911, Note_on_c, 0, 62, 0
2, 110912, Note_on_c, 0, 65, 64
2, 110927, Note_on_c, 0, 65, 0
2, 110928, Note_on_c, 0, 69, 64
2, 110943, Note_on_c, 0, 69, 0
2, 110944, Note_on_c, 0, 67, 64
2, 110959, Note_on_c, 0, 67, 0
2, 110960, Note_on_c, 0, 65, 64
2, 110975, Note_on_c, 0, 65, 0
2, 110976, Note_on_c, 0, 64, 64
2, 110996, Note_on_c, 0, 64, 0
2, 111024, Note_on_c, 0, 67, 80
2, 111039, Note_on_c, 0, 67, 0
2, 111040, Note_on_c, 0, 72, 80
2, 111055, Note_on_c, 0, 72, 0
2, 111056, Note_on_c, 0, 76, 80
2, 111071, Note_on_c, 0, 76, 0
2, 111072, Note_on_c, 0, 67, 80
2, 111087, Note_on_c, 0, 67, 0
2, 111088, Note_on_c, 0, 74, 80
2, 111103, Note_on_c, 0, 74, 0
2, 111104, Note_on_c, 0, 77, 80
2, 111119, Note_on_c, 0, 77, 0
2, 111120, Note_on_c, 0, 67, 80
2, 111135, Note_on_c, 0, 67, 0
2, 111136, Note_on_c, 0, 72, 80
2, 111151, Note_on_c, 0, 72, 0
2, 111152, Note_on_c, 0, 76, 80
2, 111167, Note_on_c, 0, 76, 0
2, 111168, Note_on_c, 0, 69, 80
2, 111183, Note_on_c, 0, 69, 0
2, 111184, Note_on_c, 0, 81, 80
2, 111199, Note_on_c, 0, 81, 0
2, 111200, Note_on_c, 0, 79, 80
2, 111215, Note_on_c, 0, 79, 0
2, 111216, Note_on_c, 0, 77, 80
2, 111231, Note_on_c, 0, 77, 0
2, 111232, Note_on_c, 0, 76, 80
2, 111247, Note_on_c, 0, 76, 0
2, 111248, Note_on_c, 0, 74, 80
2, 111263, Note_on_c, 0, 74, 0
2, 111264, Note_on_c, 0, 73, 80
2, 111279, Note_on_c, 0, 73, 0
2, 111280, Note_on_c, 0, 74, 80
2, 111295, Note_on_c, 0, 74, 0
2, 111296, Note_on_c, 0, 81, 80
2, 111311, Note_on_c, 0, 81, 0
2, 111312, Note_on_c, 0, 79, 80
2, 111327, Note_on_c, 0, 79, 0
2, 111328, Note_on_c, 0, 77, 80
2, 111343, Note_on_c, 0, 77, 0
2, 111344, Note_on_c, 0, 76, 80
2, 111359, Note_on_c, 0, 76, 0
2, 111360, Note_on_c, 0, 74, 80
2, 111375, Note_on_c, 0, 74, 0
2, 111376, Note_on_c, 0, 73, 79
2, 111391, Note_on_c, 0, 73, 0
2, 111392, Note_on_c, 0, 81, 79
2, 111407, Note_on_c, 0, 81, 0
2, 111408, Note_on_c, 0, 79, 79
2, 111423, Note_on_c, 0, 79, 0
2, 111424, Note_on_c, 0, 77, 79
2, 111439, Note_on_c, 0, 77, 0
2, 111440, Note_on_c, 0, 76, 79
2, 111455, Note_on_c, 0, 76, 0
2, 111456, Note_on_c, 0, 74, 79
2, 111471, Note_on_c, 0, 74, 0
2, 111472, Note_on_c, 0, 73, 78
2, 111487, Note_on_c, 0, 73, 0
2, 111488, Note_on_c, 0, 81, 78
2, 111503, Note_on_c, 0, 81, 0
2, 111504, Note_on_c, 0, 79, 78
2, 111519, Note_on_c, 0, 79, 0
2, 111520, Note_on_c, 0, 77, 78
2, 111535, Note_on_c, 0, 77, 0
2, 111536, Note_on_c, 0, 76, 78
2, 111551, Note_on_c, 0, 76, 0
2, 111552, Note_on_c, 0, 74, 78
2, 111567, Note_on_c, 0, 74, 0
2, 111568, Note_on_c, 0, 73, 77
2, 111583, Note_on_c, 0, 73, 0
2, 111584, Note_on_c, 0, 81, 77
2, 111599, Note_on_c, 0, 81, 0
2, 111600, Note_on_c, 0, 79, 77
2, 111615, Note_on_c, 0, 79, 0
2, 111616, Note_on_c, 0, 77, 77
2, 111631, Note_on_c, 0, 77, 0
2, 111632, Note_on_c, 0, 76, 77
2, 111647, Note_on_c, 0, 76, 0
2, 111648, Note_on_c, 0, 74, 77
2, 111663, Note_on_c, 0, 74, 0
2, 111664, Note_on_c, 0, 81, 77
2, 111679, Note_on_c, 0, 81, 0
2, 111680, Note_on_c, 0, 79, 76
2, 111695, Note_on_c, 0, 79, 0
2, 111696, Note_on_c, 0, 77, 76
2, 111711, Note_on_c, 0, 77, 0
2, 111712, Note_on_c, 0, 76, 76
2, 111727, Note_on_c, 0, 76, 0
2, 111728, Note_on_c, 0, 74, 76
2, 111743, Note_on_c, 0, 74, 0
2, 111744, Note_on_c, 0, 76, 75
2, 111759, Note_on_c, 0, 76, 0
2, 111760, Note_on_c, 0, 79, 75
2, 111775, Note_on_c, 0, 79, 0
2, 111776, Note_on_c, 0, 77, 75
2, 111791, Note_on_c, 0, 77, 0
2, 111792, Note_on_c, 0, 76, 75
2, 111807, Note_on_c, 0, 76, 0
2, 111808, Note_on_c, 0, 74, 76
2, 111823, Note_on_c, 0, 74, 0
2, 111824, Note_on_c, 0, 72, 76
2, 111839, Note_on_c, 0, 72, 0
2, 111840, Note_on_c, 0, 71, 76
2, 111855, Note_on_c, 0, 71, 0
2, 111856, Note_on_c, 0, 69, 77
2, 111871, Note_on_c, 0, 69, 0
2, 111872, Note_on_c, 0, 67, 77
2, 111887, Note_on_c, 0, 67, 0
2, 111888, Note_on_c, 0, 79, 77
2, 111903, Note_on_c, 0, 79, 0
2, 111904, Note_on_c, 0, 76, 77
2, 111919, Note_on_c, 0, 76, 0
2, 111920, Note_on_c, 0, 72, 78
2, 111935, Note_on_c, 0, 72, 0
2, 111936, Note_on_c, 0, 76, 78
2, 111948, Note_on_c, 0, 76, 0
2, 111948, Note_on_c, 0, 74, 80
2, 111960, Note_on_c, 0, 74, 0
2, 111960, Note_on_c, 0, 76, 80
2, 111972, Note_on_c, 0, 76, 0
2, 111972, Note_on_c, 0, 74, 80
2, 111984, Note_on_c, 0, 74, 0
2, 111984, Note_on_c, 0, 76, 80
2, 111996, Note_on_c, 0, 76, 0
2, 111996, Note_on_c, 0, 74, 80
2, 112008, Note_on_c, 0, 74, 0
2, 112008, Note_on_c, 0, 76, 80
2, 112020, Note_on_c, 0, 76, 0
2, 112020, Note_on_c, 0, 74, 80
2, 112032, Note_on_c, 0, 74, 0
2, 112032, Note_on_c, 0, 76, 80
2, 112044, Note_on_c, 0, 76, 0
2, 112044, Note_on_c, 0, 74, 80
2, 112056, Note_on_c, 0, 74, 0
2, 112056, Note_on_c, 0, 76, 80
2, 112068, Note_on_c, 0, 76, 0
2, 112068, Note_on_c, 0, 74, 80
2, 112080, Note_on_c, 0, 74, 0
2, 112080, Note_on_c, 0, 76, 80
2, 112092, Note_on_c, 0, 76, 0
2, 112092, Note_on_c, 0, 74, 80
2, 112104, Note_on_c, 0, 74, 0
2, 112104, Note_on_c, 0, 72, 80
2, 112116, Note_on_c, 0, 72, 0
2, 112116, Note_on_c, 0, 74, 80
2, 112128, Note_on_c, 0, 74, 0
2, 112128, Note_on_c, 0, 72, 80
2, 112148, Note_on_c, 0, 72, 0
2, 112176, Note_on_c, 0, 79, 80
2, 112196, Note_on_c, 0, 79, 0
2, 112272, Note_on_c, 0, 84, 80
2, 112292, Note_on_c, 0, 84, 0
2, 112368, Note_on_c, 0, 79, 80
2, 112391, Note_on_c, 0, 79, 0
2, 112392, Note_on_c, 0, 88, 80
2, 112415, Note_on_c, 0, 88, 0
2, 112416, Note_on_c, 0, 86, 80
2, 112439, Note_on_c, 0, 86, 0
2, 112440, Note_on_c, 0, 84, 80
2, 112463, Note_on_c, 0, 84, 0
2, 112464, Note_on_c, 0, 83, 80
2, 112487, Note_on_c, 0, 83, 0
2, 112488, Note_on_c, 0, 81, 80
2, 112511, Note_on_c, 0, 81, 0
2, 112512, Note_on_c, 0, 79, 96
2, 112631, Note_on_c, 0, 79, 0
2, 112632, Note_on_c, 0, 80, 80
2, 112655, Note_on_c, 0, 80, 0
2, 112656, Note_on_c, 0, 81, 80
2, 112679, Note_on_c, 0, 81, 0
2, 112680, Note_on_c, 0, 82, 80
2, 112703, Note_on_c, 0, 82, 0
2, 112704, Note_on_c, 0, 83, 80
2, 112727, Note_on_c, 0, 83, 0
2, 112728, Note_on_c, 0, 84, 82
2, 112751, Note_on_c, 0, 84, 0
2, 112752, Note_on_c, 0, 85, 84
2, 112775, Note_on_c, 0, 85, 0
2, 112776, Note_on_c, 0, 86, 86
2, 112799, Note_on_c, 0, 86, 0
2, 112800, Note_on_c, 0, 88, 84
2, 112823, Note_on_c, 0, 88, 0
2, 112824, Note_on_c, 0, 86, 83
2, 112847, Note_on_c, 0, 86, 0
2, 112848, Note_on_c, 0, 83, 81
2, 112871, Note_on_c, 0, 83, 0
2, 112872, Note_on_c, 0, 77, 80
2, 112895, Note_on_c, 0, 77, 0
2, 112896, Note_on_c, 0, 76, 75
2, 112916, Note_on_c, 0, 76, 0
2, 112944, Note_on_c, 0, 79, 75
2, 112964, Note_on_c, 0, 79, 0
2, 113040, Note_on_c, 0, 84, 75
2, 113052, Note_on_c, 0, 84, 0
2, 113052, Note_on_c, 0, 86, 75
2, 113064, Note_on_c, 0, 86, 0
2, 113064, Note_on_c, 0, 84, 75
2, 113076, Note_on_c, 0, 84, 0
2, 113076, Note_on_c, 0, 86, 75
2, 113085, Note_on_c, 0, 86, 0
2, 113136, Note_on_c, 0, 79, 75
2, 113159, Note_on_c, 0, 79, 0
2, 113160, Note_on_c, 0, 88, 75
2, 113183, Note_on_c, 0, 88, 0
2, 113184, Note_on_c, 0, 86, 75
2, 113207, Note_on_c, 0, 86, 0
2, 113208, Note_on_c, 0, 84, 75
2, 113231, Note_on_c, 0, 84, 0
2, 113232, Note_on_c, 0, 83, 75
2, 113255, Note_on_c, 0, 83, 0
2, 113256, Note_on_c, 0, 81, 75
2, 113279, Note_on_c, 0, 81, 0
2, 113280, Note_on_c, 0, 79, 91
2, 113399, Note_on_c, 0, 79, 0
2, 113400, Note_on_c, 0, 80, 75
2, 113423, Note_on_c, 0, 80, 0
2, 113424, Note_on_c, 0, 81, 75
2, 113447, Note_on_c, 0, 81, 0
2, 113448, Note_on_c, 0, 82, 75
2, 113471, Note_on_c, 0, 82, 0
2, 113472, Note_on_c, 0, 83, 75
2, 113495, Note_on_c, 0, 83, 0
2, 113496, Note_on_c, 0, 84, 76
2, 113519, Note_on_c, 0, 84, 0
2, 113520, Note_on_c, 0, 85, 77
2, 113543, Note_on_c, 0, 85, 0
2, 113544, Note_on_c, 0, 86, 78
2, 113567, Note_on_c, 0, 86, 0
2, 113568, Note_on_c, 0, 88, 80
2, 113591, Note_on_c, 0, 88, 0
2, 113592, Note_on_c, 0, 86, 78
2, 113615, Note_on_c, 0, 86, 0
2, 113616, Note_on_c, 0, 83, 77
2, 113639, Note_on_c, 0, 83, 0
2, 113640, Note_on_c, 0, 77, 76
2, 113663, Note_on_c, 0, 77, 0
2, 113664, Note_on_c, 0, 76, 75
2, 113687, Note_on_c, 0, 76, 0
2, 113688, Note_on_c, 0, 77, 75
2, 113711, Note_on_c, 0, 77, 0
2, 113712, Note_on_c, 0, 78, 75
2, 113735, Note_on_c, 0, 78, 0
2, 113736, Note_on_c, 0, 79, 75
2, 113759, Note_on_c, 0, 79, 0
2, 113760, Note_on_c, 0, 81, 76
2, 113783, Note_on_c, 0, 81, 0
2, 113784, Note_on_c, 0, 79, 76
2, 113807, Note_on_c, 0, 79, 0
2, 113808, Note_on_c, 0, 76, 76
2, 113831, Note_on_c, 0, 76, 0
2, 113832, Note_on_c, 0, 72, 76
2, 113855, Note_on_c, 0, 72, 0
2, 113856, Note_on_c, 0, 71, 77
2, 113879, Note_on_c, 0, 71, 0
2, 113880, Note_on_c, 0, 72, 77
2, 113903, Note_on_c, 0, 72, 0
2, 113904, Note_on_c, 0, 73, 77
2, 113927, Note_on_c, 0, 73, 0
2, 113928, Note_on_c, 0, 74, 78
2, 113951, Note_on_c, 0, 74, 0
2, 113952, Note_on_c, 0, 76, 78
2, 113975, Note_on_c, 0, 76, 0
2, 113976, Note_on_c, 0, 74, 78
2, 113999, Note_on_c, 0, 74, 0
2, 114000, Note_on_c, 0, 71, 78
2, 114023, Note_on_c, 0, 71, 0
2, 114024, Note_on_c, 0, 67, 79
2, 114047, Note_on_c, 0, 67, 0
2, 114048, Note_on_c, 0, 72, 79
2, 114068, Note_on_c, 0, 72, 0
2, 114096, Note_on_c, 0, 74, 64
2, 114141, Note_on_c, 0, 74, 0
2, 114144, Note_on_c, 0, 76, 64
2, 114189, Note_on_c, 0, 76, 0
2, 114192, Note_on_c, 0, 77, 64
2, 114237, Note_on_c, 0, 77, 0
2, 114240, Note_on_c, 0, 79, 64
2, 114285, Note_on_c, 0, 79, 0
2, 114288, Note_on_c, 0, 74, 80
2, 114333, Note_on_c, 0, 74, 0
2, 114336, Note_on_c, 0, 72, 80
2, 114381, Note_on_c, 0, 72, 0
2, 114384, Note_on_c, 0, 71, 80
2, 114429, Note_on_c, 0, 71, 0
2, 114432, Note_on_c, 0, 72, 80
2, 114452, Note_on_c, 0, 72, 0
2, 114480, Note_on_c, 0, 74, 64
2, 114525, Note_on_c, 0, 74, 0
2, 114528, Note_on_c, 0, 76, 64
2, 114573, Note_on_c, 0, 76, 0
2, 114576, Note_on_c, 0, 77, 64
2, 114621, Note_on_c, 0, 77, 0
2, 114624, Note_on_c, 0, 79, 64
2, 114669, Note_on_c, 0, 79, 0
2, 114672, Note_on_c, 0, 74, 80
2, 114717, Note_on_c, 0, 74, 0
2, 114720, Note_on_c, 0, 72, 80
2, 114765, Note_on_c, 0, 72, 0
2, 114768, Note_on_c, 0, 71, 80
2, 114813, Note_on_c, 0, 71, 0
2, 114816, Note_on_c, 0, 72, 80
2, 114816, Note_on_c, 0, 64, 80
2, 114836, Note_on_c, 0, 72, 0
2, 114836, Note_on_c, 0, 64, 0
2, 114912, Note_on_c, 0, 74, 86
2, 114920, Note_on_c, 0, 77, 86
2, 114928, Note_on_c, 0, 83, 86
2, 114957, Note_on_c, 0, 83, 0
2, 114957, Note_on_c, 0, 77, 0
2, 114957, Note_on_c, 0, 74, 0
2, 115008, Note_on_c, 0, 72, 86
2, 115014, Note_on_c, 0, 76, 86
2, 115020, Note_on_c, 0, 79, 86
2, 115026, Note_on_c, 0, 84, 86
2, 115101, Note_on_c, 0, 84, 0
2, 115101, Note_on_c, 0, 79, 0
2, 115101, Note_on_c, 0, 76, 0
2, 115101, Note_on_c, 0, 72, 0
2, 115200, End_track
3, 0, Start_track
3, 0, Program_c, 0, 0
3, 0, Control_c, 0, 7, 127
3, 0, Control_c, 0, 10, 64
3, 3504, Note_on_c, 0, 81, 64
3, 3549, Note_on_c, 0, 81, 0
3, 3552, Note_on_c, 0, 79, 64
3, 3600, Note_on_c, 0, 79, 0
3, 3600, Note_on_c, 0, 71, 64
3, 3645, Note_on_c, 0, 71, 0
3, 13824, Control_c, 0, 64, 127
3, 13824, Note_on_c, 0, 71, 70
3, 14193, Note_on_c, 0, 71, 0
3, 14208, Control_c, 0, 64, 0
3, 14208, Control_c, 0, 64, 127
3, 14208, Note_on_c, 0, 72, 70
3, 14385, Note_on_c, 0, 72, 0
3, 14400, Control_c, 0, 64, 0
3, 14400, Control_c, 0, 64, 0
3, 14400, Control_c, 0, 64, 127
3, 14400, Note_on_c, 0, 72, 88
3, 14577, Note_on_c, 0, 72, 0
3, 14592, Control_c, 0, 64, 0
3, 14592, Control_c, 0, 64, 127
3, 14592, Note_on_c, 0, 67, 70
3, 14681, Note_on_c, 0, 67, 0
3, 14688, Note_on_c, 0, 74, 70
3, 14865, Note_on_c, 0, 74, 0
3, 14880, Note_on_c, 0, 71, 70
3, 14969, Note_on_c, 0, 71, 0
3, 14976, Control_c, 0, 64, 0
3, 14976, Control_c, 0, 64, 127
3, 14976, Note_on_c, 0, 72, 70
3, 15153, Note_on_c, 0, 72, 0
3, 15168, Note_on_c, 0, 70, 88
3, 15449, Note_on_c, 0, 70, 0
3, 15456, Control_c, 0, 64, 0
3, 15456, Note_on_c, 0, 69, 70
3, 15545, Note_on_c, 0, 69, 0
3, 15552, Note_on_c, 0, 71, 70
3, 15641, Note_on_c, 0, 71, 0
3, 15648, Note_on_c, 0, 72, 70
3, 15737, Note_on_c, 0, 72, 0
3, 15744, Note_on_c, 0, 71, 70
3, 15789, Note_on_c, 0, 71, 0
3, 19248, Note_on_c, 0, 66, 64
3, 19271, Note_on_c, 0, 66, 0
3, 19272, Note_on_c, 0, 62, 64
3, 19295, Note_on_c, 0, 62, 0
3, 19296, Note_on_c, 0, 67, 64
3, 19319, Note_on_c, 0, 67, 0
3, 19320, Note_on_c, 0, 62, 64
3, 19343, Note_on_c, 0, 62, 0
3, 19344, Note_on_c, 0, 69, 64
3, 19367, Note_on_c, 0, 69, 0
3, 19368, Note_on_c, 0, 62, 64
3, 19391, Note_on_c, 0, 62, 0
3, 19392, Note_on_c, 0, 71, 64
3, 19437, Note_on_c, 0, 71, 0
3, 19440, Note_on_c, 0, 64, 80
3, 19463, Note_on_c, 0, 64, 0
3, 19464, Note_on_c, 0, 60, 80
3, 19487, Note_on_c, 0, 60, 0
3, 19488, Note_on_c, 0, 62, 80
3, 19511, Note_on_c, 0, 62, 0
3, 19512, Note_on_c, 0, 59, 80
3, 19535, Note_on_c, 0, 59, 0
3, 19536, Note_on_c, 0, 60, 80
3, 19559, Note_on_c, 0, 60, 0
3, 19560, Note_on_c, 0, 57, 80
3, 19583, Note_on_c, 0, 57, 0
3, 19584, Note_on_c, 0, 59, 80
3, 19604, Note_on_c, 0, 59, 0
3, 19632, Note_on_c, 0, 66, 64
3, 19655, Note_on_c, 0, 66, 0
3, 19656, Note_on_c, 0, 62, 64
3, 19679, Note_on_c, 0, 62, 0
3, 19680, Note_on_c, 0, 67, 64
3, 19703, Note_on_c, 0, 67, 0
3, 19704, Note_on_c, 0, 62, 64
3, 19727, Note_on_c, 0, 62, 0
3, 19728, Note_on_c, 0, 69, 64
3, 19751, Note_on_c, 0, 69, 0
3, 19752, Note_on_c, 0, 62, 64
3, 19775, Note_on_c, 0, 62, 0
3, 19776, Note_on_c, 0, 71, 64
3, 19821, Note_on_c, 0, 71, 0
3, 19824, Note_on_c, 0, 64, 80
3, 19847, Note_on_c, 0, 64, 0
3, 19848, Note_on_c, 0, 60, 80
3, 19871, Note_on_c, 0, 60, 0
3, 19872, Note_on_c, 0, 62, 80
3, 19895, Note_on_c, 0, 62, 0
3, 19896, Note_on_c, 0, 59, 80
3, 19919, Note_on_c, 0, 59, 0
3, 19920, Note_on_c, 0, 60, 80
3, 19943, Note_on_c, 0, 60, 0
3, 19944, Note_on_c, 0, 57, 80
3, 19967, Note_on_c, 0, 57, 0
3, 23856, Note_on_c, 0, 81, 64
3, 23901, Note_on_c, 0, 81, 0
3, 23904, Note_on_c, 0, 79, 64
3, 23952, Note_on_c, 0, 79, 0
3, 23952, Note_on_c, 0, 71, 64
3, 23997, Note_on_c, 0, 71, 0
3, 34176, Control_c, 0, 64, 127
3, 34176, Note_on_c, 0, 71, 70
3, 34545, Note_on_c, 0, 71, 0
3, 34560, Control_c, 0, 64, 0
3, 34560, Control_c, 0, 64, 127
3, 34560, Note_on_c, 0, 72, 70
3, 34737, Note_on_c, 0, 72, 0
3, 34752, Control_c, 0, 64, 0
3, 34752, Control_c, 0, 64, 0
3, 34752, Control_c, 0, 64, 127
3, 34752, Note_on_c, 0, 72, 88
3, 34929, Note_on_c, 0, 72, 0
3, 34944, Control_c, 0, 64, 0
3, 34944, Control_c, 0, 64, 127
3, 34944, Note_on_c, 0, 67, 70
3, 35033, Note_on_c, 0, 67, 0
3, 35040, Note_on_c, 0, 74, 70
3, 35217, Note_on_c, 0, 74, 0
3, 35232, Note_on_c, 0, 71, 70
3, 35321, Note_on_c, 0, 71, 0
3, 35328, Control_c, 0, 64, 0
3, 35328, Control_c, 0, 64, 127
3, 35328, Note_on_c, 0, 72, 70
3, 35505, Note_on_c, 0, 72, 0
3, 35520, Note_on_c, 0, 70, 88
3, 35801, Note_on_c, 0, 70, 0
3, 35808, Control_c, 0, 64, 0
3, 35808, Note_on_c, 0, 69, 70
3, 35897, Note_on_c, 0, 69, 0
3, 35904, Note_on_c, 0, 71, 70
3, 35993, Note_on_c, 0, 71, 0
3, 36000, Note_on_c, 0, 72, 70
3, 36089, Note_on_c, 0, 72, 0
3, 36096, Note_on_c, 0, 71, 70
3, 36141, Note_on_c, 0, 71, 0
3, 39600, Note_on_c, 0, 66, 64
3, 39623, Note_on_c, 0, 66, 0
3, 39624, Note_on_c, 0, 62, 64
3, 39647, Note_on_c, 0, 62, 0
3, 39648, Note_on_c, 0, 67, 64
3, 39671, Note_on_c, 0, 67, 0
3, 39672, Note_on_c, 0, 62, 64
3, 39695, Note_on_c, 0, 62, 0
3, 39696, Note_on_c, 0, 69, 64
3, 39719, Note_on_c, 0, 69, 0
3, 39720, Note_on_c, 0, 62, 64
3, 39743, Note_on_c, 0, 62, 0
3, 39744, Note_on_c, 0, 71, 64
3, 39789, Note_on_c, 0, 71, 0
3, 39792, Note_on_c, 0, 64, 80
3, 39815, Note_on_c, 0, 64, 0
3, 39816, Note_on_c, 0, 60, 80
3, 39839, Note_on_c, 0, 60, 0
3, 39840, Note_on_c, 0, 62, 80
3, 39863, Note_on_c, 0, 62, 0
3, 39864, Note_on_c, 0, 59, 80
3, 39887, Note_on_c, 0, 59, 0
3, 39888, Note_on_c, 0, 60, 80
3, 39911, Note_on_c, 0, 60, 0
3, 39912, Note_on_c, 0, 57, 80
3, 39935, Note_on_c, 0, 57, 0
3, 39936, Note_on_c, 0, 59, 80
3, 39956, Note_on_c, 0, 59, 0
3, 39984, Note_on_c, 0, 66, 64
3, 40007, Note_on_c, 0, 66, 0
3, 40008, Note_on_c, 0, 62, 64
3, 40031, Note_on_c, 0, 62, 0
3, 40032, Note_on_c, 0, 67, 64
3, 40055, Note_on_c, 0, 67, 0
3, 40056, Note_on_c, 0, 62, 64
3, 40079, Note_on_c, 0, 62, 0
3, 40080, Note_on_c, 0, 69, 64
3, 40103, Note_on_c, 0, 69, 0
3, 40104, Note_on_c, 0, 62, 64
3, 40127, Note_on_c, 0, 62, 0
3, 40128, Note_on_c, 0, 71, 64
3, 40173, Note_on_c, 0, 71, 0
3, 40176, Note_on_c, 0, 64, 80
3, 40199, Note_on_c, 0, 64, 0
3, 40200, Note_on_c, 0, 60, 80
3, 40223, Note_on_c, 0, 60, 0
3, 40224, Note_on_c, 0, 62, 80
3, 40247, Note_on_c, 0, 62, 0
3, 40248, Note_on_c, 0, 59, 80
3, 40271, Note_on_c, 0, 59, 0
3, 40272, Note_on_c, 0, 60, 80
3, 40295, Note_on_c, 0, 60, 0
3, 40296, Note_on_c, 0, 57, 80
3, 40319, Note_on_c, 0, 57, 0
3, 42240, Note_on_c, 0, 69, 64
3, 42263, Note_on_c, 0, 69, 0
3, 42264, Note_on_c, 0, 68, 69
3, 42287, Note_on_c, 0, 68, 0
3, 42288, Note_on_c, 0, 69, 74
3, 42311, Note_on_c, 0, 69, 0
3, 42312, Note_on_c, 0, 70, 80
3, 42335, Note_on_c, 0, 70, 0
3, 42336, Note_on_c, 0, 69, 76
3, 42359, Note_on_c, 0, 69, 0
3, 42360, Note_on_c, 0, 67, 73
3, 42383, Note_on_c, 0, 67, 0
3, 42384, Note_on_c, 0, 65, 70
3, 42407, Note_on_c, 0, 65, 0
3, 42408, Note_on_c, 0, 64, 67
3, 42431, Note_on_c, 0, 64, 0
3, 42432, Note_on_c, 0, 65, 64
3, 42528, Note_on_c, 0, 65, 0
3, 42528, Note_on_c, 0, 66, 64
3, 42617, Note_on_c, 0, 66, 0
3, 42624, Note_on_c, 0, 67, 64
3, 42713, Note_on_c, 0, 67, 0
3, 42720, Note_on_c, 0, 62, 64
3, 42809, Note_on_c, 0, 62, 0
3, 52224, Note_on_c, 0, 68, 64
3, 52578, Note_on_c, 0, 68, 0
3, 52608, Note_on_c, 0, 67, 64
3, 52962, Note_on_c, 0, 67, 0
3, 52992, Note_on_c, 0, 71, 86
3, 52992, Note_on_c, 0, 67, 86
3, 52992, Note_on_c, 0, 62, 86
3, 53169, Note_on_c, 0, 71, 0
3, 53169, Note_on_c, 0, 67, 0
3, 53169, Note_on_c, 0, 62, 0
3, 53184, Note_on_c, 0, 66, 86
3, 53184, Note_on_c, 0, 62, 86
3, 53361, Note_on_c, 0, 66, 0
3, 53361, Note_on_c, 0, 62, 0
3, 53376, Note_on_c, 0, 65, 104
3, 53376, Note_on_c, 0, 62, 104
3, 53641, Note_on_c, 0, 65, 0
3, 53641, Note_on_c, 0, 62, 0
3, 53664, Note_on_c, 0, 64, 86
3, 53664, Note_on_c, 0, 62, 86
3, 53753, Note_on_c, 0, 64, 0
3, 53753, Note_on_c, 0, 62, 0
3, 53760, Note_on_c, 0, 64, 104
3, 53760, Note_on_c, 0, 60, 104
3, 53937, Note_on_c, 0, 64, 0
3, 53937, Note_on_c, 0, 60, 0
3, 53952, Note_on_c, 0, 60, 86
3, 54041, Note_on_c, 0, 60, 0
3, 54048, Note_on_c, 0, 59, 86
3, 54096, Note_on_c, 0, 59, 0
3, 54096, Note_on_c, 0, 57, 86
3, 54141, Note_on_c, 0, 57, 0
3, 54144, Note_on_c, 0, 59, 86
3, 54189, Note_on_c, 0, 59, 0
3, 66048, Control_c, 0, 64, 127
3, 66384, Note_on_c, 0, 79, 58
3, 66477, Note_on_c, 0, 79, 0
3, 66480, Note_on_c, 0, 77, 58
3, 66569, Note_on_c, 0, 77, 0
3, 66576, Note_on_c, 0, 77, 58
3, 66665, Note_on_c, 0, 77, 0
3, 66672, Note_on_c, 0, 76, 58
3, 66761, Note_on_c, 0, 76, 0
3, 66768, Note_on_c, 0, 80, 58
3, 66861, Note_on_c, 0, 80, 0
3, 66864, Note_on_c, 0, 81, 58
3, 66953, Note_on_c, 0, 81, 0
3, 66960, Note_on_c, 0, 89, 58
3, 67049, Note_on_c, 0, 89, 0
3, 67056, Note_on_c, 0, 79, 58
3, 67145, Note_on_c, 0, 79, 0
3, 67152, Note_on_c, 0, 88, 58
3, 67245, Note_on_c, 0, 88, 0
3, 67248, Note_on_c, 0, 77, 58
3, 67337, Note_on_c, 0, 77, 0
3, 67344, Note_on_c, 0, 86, 58
3, 67433, Note_on_c, 0, 86, 0
3, 67440, Note_on_c, 0, 76, 58
3, 67529, Note_on_c, 0, 76, 0
3, 67536, Note_on_c, 0, 84, 58
3, 67584, Control_c, 0, 64, 0
3, 67629, Note_on_c, 0, 84, 0
3, 71424, Control_c, 0, 64, 127
3, 71424, Note_on_c, 0, 65, 58
3, 71601, Note_on_c, 0, 65, 0
3, 71616, Note_on_c, 0, 65, 76
3, 71793, Note_on_c, 0, 65, 0
3, 71808, Control_c, 0, 64, 0
3, 71808, Control_c, 0, 64, 127
3, 71808, Note_on_c, 0, 60, 58
3, 71897, Note_on_c, 0, 60, 0
3, 71904, Note_on_c, 0, 67, 58
3, 72081, Note_on_c, 0, 67, 0
3, 72096, Note_on_c, 0, 64, 58
3, 72185, Note_on_c, 0, 64, 0
3, 72192, Control_c, 0, 64, 0
3, 72192, Control_c, 0, 64, 127
3, 72192, Note_on_c, 0, 65, 58
3, 72369, Note_on_c, 0, 65, 0
3, 72384, Control_c, 0, 64, 0
3, 72384, Control_c, 0, 64, 127
3, 72384, Note_on_c, 0, 63, 76
3, 72665, Note_on_c, 0, 63, 0
3, 72672, Control_c, 0, 64, 0
3, 72672, Note_on_c, 0, 62, 58
3, 72761, Note_on_c, 0, 62, 0
3, 72768, Note_on_c, 0, 64, 58
3, 72857, Note_on_c, 0, 64, 0
3, 72864, Note_on_c, 0, 65, 58
3, 72960, Note_on_c, 0, 65, 0
3, 72960, Note_on_c, 0, 64, 58
3, 73005, Note_on_c, 0, 64, 0
3, 76848, Note_on_c, 0, 71, 64
3, 76871, Note_on_c, 0, 71, 0
3, 76872, Note_on_c, 0, 67, 64
3, 76895, Note_on_c, 0, 67, 0
3, 76896, Note_on_c, 0, 72, 64
3, 76919, Note_on_c, 0, 72, 0
3, 76920, Note_on_c, 0, 67, 64
3, 76943, Note_on_c, 0, 67, 0
3, 76944, Note_on_c, 0, 74, 64
3, 76967, Note_on_c, 0, 74, 0
3, 76968, Note_on_c, 0, 67, 64
3, 76991, Note_on_c, 0, 67, 0
3, 76992, Note_on_c, 0, 76, 64
3, 77037, Note_on_c, 0, 76, 0
3, 77040, Note_on_c, 0, 69, 80
3, 77063, Note_on_c, 0, 69, 0
3, 77064, Note_on_c, 0, 65, 80
3, 77087, Note_on_c, 0, 65, 0
3, 77088, Note_on_c, 0, 67, 80
3, 77111, Note_on_c, 0, 67, 0
3, 77112, Note_on_c, 0, 64, 80
3, 77135, Note_on_c, 0, 64, 0
3, 77136, Note_on_c, 0, 65, 80
3, 77159, Note_on_c, 0, 65, 0
3, 77160, Note_on_c, 0, 62, 80
3, 77183, Note_on_c, 0, 62, 0
3, 77184, Note_on_c, 0, 64, 80
3, 77229, Note_on_c, 0, 64, 0
3, 77232, Note_on_c, 0, 71, 64
3, 77255, Note_on_c, 0, 71, 0
3, 77256, Note_on_c, 0, 67, 64
3, 77279, Note_on_c, 0, 67, 0
3, 77280, Note_on_c, 0, 72, 64
3, 77303, Note_on_c, 0, 72, 0
3, 77304, Note_on_c, 0, 67, 64
3, 77327, Note_on_c, 0, 67, 0
3, 77328, Note_on_c, 0, 74, 64
3, 77351, Note_on_c, 0, 74, 0
3, 77352, Note_on_c, 0, 67, 64
3, 77375, Note_on_c, 0, 67, 0
3, 77376, Note_on_c, 0, 76, 64
3, 77421, Note_on_c, 0, 76, 0
3, 77424, Note_on_c, 0, 69, 80
3, 77447, Note_on_c, 0, 69, 0
3, 77448, Note_on_c, 0, 65, 80
3, 77471, Note_on_c, 0, 65, 0
3, 77472, Note_on_c, 0, 67, 80
3, 77495, Note_on_c, 0, 67, 0
3, 77496, Note_on_c, 0, 64, 80
3, 77519, Note_on_c, 0, 64, 0
3, 77520, Note_on_c, 0, 65, 80
3, 77543, Note_on_c, 0, 65, 0
3, 77544, Note_on_c, 0, 62, 80
3, 77567, Note_on_c, 0, 62, 0
3, 79488, Note_on_c, 0, 69, 64
3, 79511, Note_on_c, 0, 69, 0
3, 79512, Note_on_c, 0, 68, 69
3, 79535, Note_on_c, 0, 68, 0
3, 79536, Note_on_c, 0, 69, 74
3, 79559, Note_on_c, 0, 69, 0
3, 79560, Note_on_c, 0, 70, 80
3, 79583, Note_on_c, 0, 70, 0
3, 79584, Note_on_c, 0, 69, 76
3, 79607, Note_on_c, 0, 69, 0
3, 79608, Note_on_c, 0, 67, 73
3, 79631, Note_on_c, 0, 67, 0
3, 79632, Note_on_c, 0, 65, 70
3, 79655, Note_on_c, 0, 65, 0
3, 79656, Note_on_c, 0, 64, 67
3, 79679, Note_on_c, 0, 64, 0
3, 79680, Note_on_c, 0, 65, 64
3, 79776, Note_on_c, 0, 65, 0
3, 79776, Note_on_c, 0, 66, 64
3, 79865, Note_on_c, 0, 66, 0
3, 79872, Note_on_c, 0, 67, 64
3, 79961, Note_on_c, 0, 67, 0
3, 79968, Note_on_c, 0, 62, 64
3, 80057, Note_on_c, 0, 62, 0
3, 89472, Note_on_c, 0, 68, 64
3, 89826, Note_on_c, 0, 68, 0
3, 89856, Note_on_c, 0, 67, 64
3, 90210, Note_on_c, 0, 67, 0
3, 90240, Note_on_c, 0, 71, 86
3, 90240, Note_on_c, 0, 67, 86
3, 90240, Note_on_c, 0, 62, 86
3, 90417, Note_on_c, 0, 71, 0
3, 90417, Note_on_c, 0, 67, 0
3, 90417, Note_on_c, 0, 62, 0
3, 90432, Note_on_c, 0, 66, 86
3, 90432, Note_on_c, 0, 62, 86
3, 90609, Note_on_c, 0, 66, 0
3, 90609, Note_on_c, 0, 62, 0
3, 90624, Note_on_c, 0, 65, 104
3, 90624, Note_on_c, 0, 62, 104
3, 90889, Note_on_c, 0, 65, 0
3, 90889, Note_on_c, 0, 62, 0
3, 90912, Note_on_c, 0, 64, 86
3, 90912, Note_on_c, 0, 62, 86
3, 91001, Note_on_c, 0, 64, 0
3, 91001, Note_on_c, 0, 62, 0
3, 91008, Note_on_c, 0, 64, 104
3, 91008, Note_on_c, 0, 60, 104
3, 91185, Note_on_c, 0, 64, 0
3, 91185, Note_on_c, 0, 60, 0
3, 91200, Note_on_c, 0, 60, 86
3, 91289, Note_on_c, 0, 60, 0
3, 91296, Note_on_c, 0, 59, 86
3, 91344, Note_on_c, 0, 59, 0
3, 91344, Note_on_c, 0, 57, 86
3, 91389, Note_on_c, 0, 57, 0
3, 91392, Note_on_c, 0, 59, 86
3, 91437, Note_on_c, 0, 59, 0
3, 103296, Control_c, 0, 64, 127
3, 103632, Note_on_c, 0, 79, 58
3, 103725, Note_on_c, 0, 79, 0
3, 103728, Note_on_c, 0, 77, 58
3, 103817, Note_on_c, 0, 77, 0
3, 103824, Note_on_c, 0, 77, 58
3, 103913, Note_on_c, 0, 77, 0
3, 103920, Note_on_c, 0, 76, 58
3, 104009, Note_on_c, 0, 76, 0
3, 104016, Note_on_c, 0, 80, 58
3, 104109, Note_on_c, 0, 80, 0
3, 104112, Note_on_c, 0, 81, 58
3, 104201, Note_on_c, 0, 81, 0
3, 104208, Note_on_c, 0, 89, 58
3, 104297, Note_on_c, 0, 89, 0
3, 104304, Note_on_c, 0, 79, 58
3, 104393, Note_on_c, 0, 79, 0
3, 104400, Note_on_c, 0, 88, 58
3, 104493, Note_on_c, 0, 88, 0
3, 104496, Note_on_c, 0, 77, 58
3, 104585, Note_on_c, 0, 77, 0
3, 104592, Note_on_c, 0, 86, 58
3, 104681, Note_on_c, 0, 86, 0
3, 104688, Note_on_c, 0, 76, 58
3, 104777, Note_on_c, 0, 76, 0
3, 104784, Note_on_c, 0, 84, 58
3, 104832, Control_c, 0, 64, 0
3, 104877, Note_on_c, 0, 84, 0
3, 108672, Control_c, 0, 64, 127
3, 108672, Note_on_c, 0, 65, 58
3, 108849, Note_on_c, 0, 65, 0
3, 108864, Note_on_c, 0, 65, 76
3, 109041, Note_on_c, 0, 65, 0
3, 109056, Control_c, 0, 64, 0
3, 109056, Control_c, 0, 64, 127
3, 109056, Note_on_c, 0, 60, 58
3, 109145, Note_on_c, 0, 60, 0
3, 109152, Note_on_c, 0, 67, 58
3, 109329, Note_on_c, 0, 67, 0
3, 109344, Note_on_c, 0, 64, 58
3, 109433, Note_on_c, 0, 64, 0
3, 109440, Control_c, 0, 64, 0
3, 109440, Control_c, 0, 64, 127
3, 109440, Note_on_c, 0, 65, 58
3, 109617, Note_on_c, 0, 65, 0
3, 109632, Control_c, 0, 64, 0
3, 109632, Control_c, 0, 64, 127
3, 109632, Note_on_c, 0, 63, 76
3, 109913, Note_on_c, 0, 63, 0
3, 109920, Control_c, 0, 64, 0
3, 109920, Note_on_c, 0, 62, 58
3, 110009, Note_on_c, 0, 62, 0
3, 110016, Note_on_c, 0, 64, 58
3, 110105, Note_on_c, 0, 64, 0
3, 110112, Note_on_c, 0, 65, 58
3, 110208, Note_on_c, 0, 65, 0
3, 110208, Note_on_c, 0, 64, 58
3, 110253, Note_on_c, 0, 64, 0
3, 114096, Note_on_c, 0, 71, 64
3, 114119, Note_on_c, 0, 71, 0
3, 114120, Note_on_c, 0, 67, 64
3, 114143, Note_on_c, 0, 67, 0
3, 114144, Note_on_c, 0, 72, 64
3, 114167, Note_on_c, 0, 72, 0
3, 114168, Note_on_c, 0, 67, 64
3, 114191, Note_on_c, 0, 67, 0
3, 114192, Note_on_c, 0, 74, 64
3, 114215, Note_on_c, 0, 74, 0
3, 114216, Note_on_c, 0, 67, 64
3, 114239, Note_on_c, 0, 67, 0
3, 114240, Note_on_c, 0, 76, 64
3, 114285, Note_on_c, 0, 76, 0
3, 114288, Note_on_c, 0, 69, 80
3, 114311, Note_on_c, 0, 69, 0
3, 114312, Note_on_c, 0, 65, 80
3, 114335, Note_on_c, 0, 65, 0
3, 114336, Note_on_c, 0, 67, 80
3, 114359, Note_on_c, 0, 67, 0
3, 114360, Note_on_c, 0, 64, 80
3, 114383, Note_on_c, 0, 64, 0
3, 114384, Note_on_c, 0, 65, 80
3, 114407, Note_on_c, 0, 65, 0
3, 114408, Note_on_c, 0, 62, 80
3, 114431, Note_on_c, 0, 62, 0
3, 114432, Note_on_c, 0, 64, 80
3, 114477, Note_on_c, 0, 64, 0
3, 114480, Note_on_c, 0, 71, 64
3, 114503, Note_on_c, 0, 71, 0
3, 114504, Note_on_c, 0, 67, 64
3, 114527, Note_on_c, 0, 67, 0
3, 114528, Note_on_c, 0, 72, 64
3, 114551, Note_on_c, 0, 72, 0
3, 114552, Note_on_c, 0, 67, 64
3, 114575, Note_on_c, 0, 67, 0
3, 114576, Note_on_c, 0, 74, 64
3, 114599, Note_on_c, 0, 74, 0
3, 114600, Note_on_c, 0, 67, 64
3, 114623, Note_on_c, 0, 67, 0
3, 114624, Note_on_c, 0, 76, 64
3, 114669, Note_on_c, 0, 76, 0
3, 114672, Note_on_c, 0, 69, 80
3, 114695, Note_on_c, 0, 69, 0
3, 114696, Note_on_c, 0, 65, 80
3, 114719, Note_on_c, 0, 65, 0
3, 114720, Note_on_c, 0, 67, 80
3, 114743, Note_on_c, 0, 67, 0
3, 114744, Note_on_c, 0, 64, 80
3, 114767, Note_on_c, 0, 64, 0
3, 114768, Note_on_c, 0, 65, 80
3, 114791, Note_on_c, 0, 65, 0
3, 114792, Note_on_c, 0, 62, 80
3, 114815, Note_on_c, 0, 62, 0
3, 115200, End_track
4, 0, Start_track
4, 0, Program_c, 1, 0
4, 0, Control_c, 1, 7, 127
4, 0, Control_c, 1, 10, 64
4, 240, Note_on_c, 1, 48, 64
4, 260, Note_on_c, 1, 48, 0
4, 288, Note_on_c, 1, 36, 64
4, 308, Note_on_c, 1, 36, 0
4, 432, Note_on_c, 1, 48, 64
4, 452, Note_on_c, 1, 48, 0
4, 480, Note_on_c, 1, 36, 64
4, 500, Note_on_c, 1, 36, 0
4, 624, Note_on_c, 1, 48, 64
4, 644, Note_on_c, 1, 48, 0
4, 672, Note_on_c, 1, 36, 64
4, 692, Note_on_c, 1, 36, 0
4, 816, Note_on_c, 1, 48, 64
4, 864, Note_on_c, 1, 48, 0
4, 864, Note_on_c, 1, 36, 64
4, 884, Note_on_c, 1, 36, 0
4, 1008, Note_on_c, 1, 48, 64
4, 1056, Note_on_c, 1, 48, 0
4, 1056, Note_on_c, 1, 36, 64
4, 1076, Note_on_c, 1, 36, 0
4, 1200, Note_on_c, 1, 48, 64
4, 1248, Note_on_c, 1, 48, 0
4, 1248, Note_on_c, 1, 36, 64
4, 1268, Note_on_c, 1, 36, 0
4, 1392, Note_on_c, 1, 48, 64
4, 1440, Note_on_c, 1, 48, 0
4, 1440, Note_on_c, 1, 36, 64
4, 1460, Note_on_c, 1, 36, 0
4, 1584, Note_on_c, 1, 48, 64
4, 1632, Note_on_c, 1, 48, 0
4, 1632, Note_on_c, 1, 36, 64
4, 1652, Note_on_c, 1, 36, 0
4, 1776, Note_on_c, 1, 48, 64
4, 1824, Note_on_c, 1, 48, 0
4, 1824, Note_on_c, 1, 36, 66
4, 1844, Note_on_c, 1, 36, 0
4, 1968, Note_on_c, 1, 48, 74
4, 2016, Note_on_c, 1, 48, 0
4, 2016, Note_on_c, 1, 36, 77
4, 2036, Note_on_c, 1, 36, 0
4, 2304, Note_on_c, 1, 36, 80
4, 2310, Note_on_c, 1, 40, 80
4, 2316, Note_on_c, 1, 43, 80
4, 2322, Note_on_c, 1, 48, 80
4, 2349, Note_on_c, 1, 48, 0
4, 2349, Note_on_c, 1, 43, 0
4, 2349, Note_on_c, 1, 40, 0
4, 2349, Note_on_c, 1, 36, 0
4, 2400, Note_on_c, 1, 43, 80
4, 2406, Note_on_c, 1, 47, 80
4, 2412, Note_on_c, 1, 50, 80
4, 2418, Note_on_c, 1, 55, 80
4, 2445, Note_on_c, 1, 55, 0
4, 2445, Note_on_c, 1, 50, 0
4, 2445, Note_on_c, 1, 47, 0
4, 2445, Note_on_c, 1, 43, 0
4, 2496, Note_on_c, 1, 48, 80
4, 2502, Note_on_c, 1, 52, 80
4, 2508, Note_on_c, 1, 55, 80
4, 2514, Note_on_c, 1, 60, 80
4, 2541, Note_on_c, 1, 60, 0
4, 2541, Note_on_c, 1, 55, 0
4, 2541, Note_on_c, 1, 52, 0
4, 2541, Note_on_c, 1, 48, 0
4, 2736, Note_on_c, 1, 71, 64
4, 2736, Note_on_c, 1, 65, 64
4, 2756, Note_on_c, 1, 71, 0
4, 2756, Note_on_c, 1, 65, 0
4, 2784, Note_on_c, 1, 71, 64
4, 2784, Note_on_c, 1, 65, 64
4, 2804, Note_on_c, 1, 71, 0
4, 2804, Note_on_c, 1, 65, 0
4, 2928, Note_on_c, 1, 67, 64
4, 2928, Note_on_c, 1, 64, 64
4, 2948, Note_on_c, 1, 67, 0
4, 2948, Note_on_c, 1, 64, 0
4, 2976, Note_on_c, 1, 67, 64
4, 2976, Note_on_c, 1, 64, 64
4, 2996, Note_on_c, 1, 67, 0
4, 2996, Note_on_c, 1, 64, 0
4, 3096, Note_on_c, 1, 62, 70
4, 3119, Note_on_c, 1, 62, 0
4, 3120, Note_on_c, 1, 61, 69
4, 3143, Note_on_c, 1, 61, 0
4, 3144, Note_on_c, 1, 62, 68
4, 3167, Note_on_c, 1, 62, 0
4, 3168, Note_on_c, 1, 60, 67
4, 3191, Note_on_c, 1, 60, 0
4, 3192, Note_on_c, 1, 59, 66
4, 3215, Note_on_c, 1, 59, 0
4, 3216, Note_on_c, 1, 57, 65
4, 3239, Note_on_c, 1, 57, 0
4, 3240, Note_on_c, 1, 55, 64
4, 3263, Note_on_c, 1, 55, 0
4, 3288, Note_on_c, 1, 60, 64
4, 3311, Note_on_c, 1, 60, 0
4, 3312, Note_on_c, 1, 62, 63
4, 3335, Note_on_c, 1, 62, 0
4, 3336, Note_on_c, 1, 64, 62
4, 3359, Note_on_c, 1, 64, 0
4, 3360, Note_on_c, 1, 65, 61
4, 3383, Note_on_c, 1, 65, 0
4, 3384, Note_on_c, 1, 67, 60
4, 3407, Note_on_c, 1, 67, 0
4, 3408, Note_on_c, 1, 68, 59
4, 3431, Note_on_c, 1, 68, 0
4, 3432, Note_on_c, 1, 69, 58
4, 3455, Note_on_c, 1, 69, 0
4, 3456, Note_on_c, 1, 65, 58
4, 3545, Note_on_c, 1, 65, 0
4, 3600, Note_on_c, 1, 67, 58
4, 3645, Note_on_c, 1, 67, 0
4, 3648, Note_on_c, 1, 64, 70
4, 3671, Note_on_c, 1, 64, 0
4, 3672, Note_on_c, 1, 67, 70
4, 3695, Note_on_c, 1, 67, 0
4, 3696, Note_on_c, 1, 64, 70
4, 3719, Note_on_c, 1, 64, 0
4, 3720, Note_on_c, 1, 67, 70
4, 3743, Note_on_c, 1, 67, 0
4, 3744, Note_on_c, 1, 64, 70
4, 3767, Note_on_c, 1, 64, 0
4, 3768, Note_on_c, 1, 67, 70
4, 3791, Note_on_c, 1, 67, 0
4, 3792, Note_on_c, 1, 64, 70
4, 3815, Note_on_c, 1, 64, 0
4, 3816, Note_on_c, 1, 67, 70
4, 3839, Note_on_c, 1, 67, 0
4, 3840, Note_on_c, 1, 65, 70
4, 3840, Note_on_c, 1, 62, 70
4, 3863, Note_on_c, 1, 65, 0
4, 3863, Note_on_c, 1, 62, 0
4, 3864, Note_on_c, 1, 67, 70
4, 3887, Note_on_c, 1, 67, 0
4, 3888, Note_on_c, 1, 65, 70
4, 3888, Note_on_c, 1, 62, 70
4, 3911, Note_on_c, 1, 65, 0
4, 3911, Note_on_c, 1, 62, 0
4, 3912, Note_on_c, 1, 67, 70
4, 3935, Note_on_c, 1, 67, 0
4, 3936, Note_on_c, 1, 65, 70
4, 3936, Note_on_c, 1, 62, 70
4, 3959, Note_on_c, 1, 65, 0
4, 3959, Note_on_c, 1, 62, 0
4, 3960, Note_on_c, 1, 67, 70
4, 3983, Note_on_c, 1, 67, 0
4, 3984, Note_on_c, 1, 65, 70
4, 3984, Note_on_c, 1, 62, 70
4, 4007, Note_on_c, 1, 65, 0
4, 4007, Note_on_c, 1, 62, 0
4, 4008, Note_on_c, 1, 67, 70
4, 4031, Note_on_c, 1, 67, 0
4, 4032, Note_on_c, 1, 64, 70
4, 4055, Note_on_c, 1, 64, 0
4, 4056, Note_on_c, 1, 67, 68
4, 4079, Note_on_c, 1, 67, 0
4, 4080, Note_on_c, 1, 64, 67
4, 4103, Note_on_c, 1, 64, 0
4, 4104, Note_on_c, 1, 67, 66
4, 4127, Note_on_c, 1, 67, 0
4, 4128, Note_on_c, 1, 64, 65
4, 4151, Note_on_c, 1, 64, 0
4, 4152, Note_on_c, 1, 67, 64
4, 4175, Note_on_c, 1, 67, 0
4, 4176, Note_on_c, 1, 64, 64
4, 4199, Note_on_c, 1, 64, 0
4, 4200, Note_on_c, 1, 67, 64
4, 4223, Note_on_c, 1, 67, 0
4, 4224, Note_on_c, 1, 65, 64
4, 4224, Note_on_c, 1, 62, 64
4, 4247, Note_on_c, 1, 65, 0
4, 4247, Note_on_c, 1, 62, 0
4, 4248, Note_on_c, 1, 67, 64
4, 4271, Note_on_c, 1, 67, 0
4, 4272, Note_on_c, 1, 65, 64
4, 4272, Note_on_c, 1, 62, 64
4, 4295, Note_on_c, 1, 65, 0
4, 4295, Note_on_c, 1, 62, 0
4, 4296, Note_on_c, 1, 67, 64
4, 4319, Note_on_c, 1, 67, 0
4, 4320, Note_on_c, 1, 65, 64
4, 4320, Note_on_c, 1, 62, 64
4, 4343, Note_on_c, 1, 65, 0
4, 4343, Note_on_c, 1, 62, 0
4, 4344, Note_on_c, 1, 67, 64
4, 4367, Note_on_c, 1, 67, 0
4, 4368, Note_on_c, 1, 65, 64
4, 4368, Note_on_c, 1, 62, 64
4, 4391, Note_on_c, 1, 65, 0
4, 4391, Note_on_c, 1, 62, 0
4, 4392, Note_on_c, 1, 67, 64
4, 4415, Note_on_c, 1, 67, 0
4, 4416, Note_on_c, 1, 64, 64
4, 4439, Note_on_c, 1, 64, 0
4, 4440, Note_on_c, 1, 67, 65
4, 4463, Note_on_c, 1, 67, 0
4, 4464, Note_on_c, 1, 64, 66
4, 4487, Note_on_c, 1, 64, 0
4, 4488, Note_on_c, 1, 67, 67
4, 4511, Note_on_c, 1, 67, 0
4, 4512, Note_on_c, 1, 64, 68
4, 4535, Note_on_c, 1, 64, 0
4, 4536, Note_on_c, 1, 67, 70
4, 4559, Note_on_c, 1, 67, 0
4, 4560, Note_on_c, 1, 64, 70
4, 4583, Note_on_c, 1, 64, 0
4, 4584, Note_on_c, 1, 67, 70
4, 4607, Note_on_c, 1, 67, 0
4, 4608, Note_on_c, 1, 65, 70
4, 4608, Note_on_c, 1, 62, 70
4, 4631, Note_on_c, 1, 65, 0
4, 4631, Note_on_c, 1, 62, 0
4, 4632, Note_on_c, 1, 67, 70
4, 4655, Note_on_c, 1, 67, 0
4, 4656, Note_on_c, 1, 65, 70
4, 4656, Note_on_c, 1, 62, 70
4, 4679, Note_on_c, 1, 65, 0
4, 4679, Note_on_c, 1, 62, 0
4, 4680, Note_on_c, 1, 67, 70
4, 4703, Note_on_c, 1, 67, 0
4, 4704, Note_on_c, 1, 65, 70
4, 4704, Note_on_c, 1, 62, 70
4, 4727, Note_on_c, 1, 65, 0
4, 4727, Note_on_c, 1, 62, 0
4, 4728, Note_on_c, 1, 67, 70
4, 4751, Note_on_c, 1, 67, 0
4, 4752, Note_on_c, 1, 65, 70
4, 4752, Note_on_c, 1, 62, 70
4, 4775, Note_on_c, 1, 65, 0
4, 4775, Note_on_c, 1, 62, 0
4, 4776, Note_on_c, 1, 67, 70
4, 4799, Note_on_c, 1, 67, 0
4, 4800, Note_on_c, 1, 64, 70
4, 4823, Note_on_c, 1, 64, 0
4, 4824, Note_on_c, 1, 67, 70
4, 4847, Note_on_c, 1, 67, 0
4, 4848, Note_on_c, 1, 64, 70
4, 4871, Note_on_c, 1, 64, 0
4, 4872, Note_on_c, 1, 67, 70
4, 4895, Note_on_c, 1, 67, 0
4, 4896, Note_on_c, 1, 62, 70
4, 4919, Note_on_c, 1, 62, 0
4, 4920, Note_on_c, 1, 67, 70
4, 4943, Note_on_c, 1, 67, 0
4, 4944, Note_on_c, 1, 62, 70
4, 4967, Note_on_c, 1, 62, 0
4, 4968, Note_on_c, 1, 67, 70
4, 4991, Note_on_c, 1, 67, 0
4, 4992, Note_on_c, 1, 64, 70
4, 5015, Note_on_c, 1, 64, 0
4, 5016, Note_on_c, 1, 67, 70
4, 5039, Note_on_c, 1, 67, 0
4, 5040, Note_on_c, 1, 64, 70
4, 5063, Note_on_c, 1, 64, 0
4, 5064, Note_on_c, 1, 67, 70
4, 5087, Note_on_c, 1, 67, 0
4, 5088, Note_on_c, 1, 65, 70
4, 5111, Note_on_c, 1, 65, 0
4, 5112, Note_on_c, 1, 67, 70
4, 5135, Note_on_c, 1, 67, 0
4, 5136, Note_on_c, 1, 65, 70
4, 5159, Note_on_c, 1, 65, 0
4, 5160, Note_on_c, 1, 67, 70
4, 5183, Note_on_c, 1, 67, 0
4, 5184, Note_on_c, 1, 64, 70
4, 5207, Note_on_c, 1, 64, 0
4, 5208, Note_on_c, 1, 67, 70
4, 5231, Note_on_c, 1, 67, 0
4, 5232, Note_on_c, 1, 64, 71
4, 5255, Note_on_c, 1, 64, 0
4, 5256, Note_on_c, 1, 67, 71
4, 5279, Note_on_c, 1, 67, 0
4, 5280, Note_on_c, 1, 62, 72
4, 5303, Note_on_c, 1, 62, 0
4, 5304, Note_on_c, 1, 67, 73
4, 5327, Note_on_c, 1, 67, 0
4, 5328, Note_on_c, 1, 62, 73
4, 5351, Note_on_c, 1, 62, 0
4, 5352, Note_on_c, 1, 67, 74
4, 5375, Note_on_c, 1, 67, 0
4, 5400, Note_on_c, 1, 60, 80
4, 5423, Note_on_c, 1, 60, 0
4, 5424, Note_on_c, 1, 64, 80
4, 5447, Note_on_c, 1, 64, 0
4, 5448, Note_on_c, 1, 67, 80
4, 5471, Note_on_c, 1, 67, 0
4, 5472, Note_on_c, 1, 72, 80
4, 5492, Note_on_c, 1, 72, 0
4, 5784, Note_on_c, 1, 61, 80
4, 5807, Note_on_c, 1, 61, 0
4, 5808, Note_on_c, 1, 62, 80
4, 5831, Note_on_c, 1, 62, 0
4, 5832, Note_on_c, 1, 64, 80
4, 5855, Note_on_c, 1, 64, 0
4, 5856, Note_on_c, 1, 65, 80
4, 5879, Note_on_c, 1, 65, 0
4, 5880, Note_on_c, 1, 64, 80
4, 5903, Note_on_c, 1, 64, 0
4, 5904, Note_on_c, 1, 65, 80
4, 5927, Note_on_c, 1, 65, 0
4, 5928, Note_on_c, 1, 66, 80
4, 5951, Note_on_c, 1, 66, 0
4, 5952, Note_on_c, 1, 67, 80
4, 5975, Note_on_c, 1, 67, 0
4, 5976, Note_on_c, 1, 55, 80
4, 5999, Note_on_c, 1, 55, 0
4, 6000, Note_on_c, 1, 67, 80
4, 6023, Note_on_c, 1, 67, 0
4, 6168, Note_on_c, 1, 67, 80
4, 6192, Note_on_c, 1, 67, 0
4, 6192, Note_on_c, 1, 55, 80
4, 6237, Note_on_c, 1, 55, 0
4, 6264, Note_on_c, 1, 67, 80
4, 6288, Note_on_c, 1, 67, 0
4, 6288, Note_on_c, 1, 55, 80
4, 6333, Note_on_c, 1, 55, 0
4, 6360, Note_on_c, 1, 67, 80
4, 6384, Note_on_c, 1, 67, 0
4, 6384, Note_on_c, 1, 55, 80
4, 6429, Note_on_c, 1, 55, 0
4, 6552, Note_on_c, 1, 67, 80
4, 6576, Note_on_c, 1, 67, 0
4, 6576, Note_on_c, 1, 55, 80
4, 6621, Note_on_c, 1, 55, 0
4, 6648, Note_on_c, 1, 67, 80
4, 6672, Note_on_c, 1, 67, 0
4, 6672, Note_on_c, 1, 55, 80
4, 6717, Note_on_c, 1, 55, 0
4, 6744, Note_on_c, 1, 67, 80
4, 6768, Note_on_c, 1, 67, 0
4, 6768, Note_on_c, 1, 55, 80
4, 6813, Note_on_c, 1, 55, 0
4, 6984, Note_on_c, 1, 42, 64
4, 7007, Note_on_c, 1, 42, 0
4, 7008, Note_on_c, 1, 43, 64
4, 7031, Note_on_c, 1, 43, 0
4, 7032, Note_on_c, 1, 42, 64
4, 7055, Note_on_c, 1, 42, 0
4, 7056, Note_on_c, 1, 43, 64
4, 7079, Note_on_c, 1, 43, 0
4, 7080, Note_on_c, 1, 42, 64
4, 7103, Note_on_c, 1, 42, 0
4, 7104, Note_on_c, 1, 43, 64
4, 7149, Note_on_c, 1, 43, 0
4, 7296, Note_on_c, 1, 55, 80
4, 7296, Note_on_c, 1, 43, 80
4, 7341, Note_on_c, 1, 55, 0
4, 7341, Note_on_c, 1, 43, 0
4, 7392, Note_on_c, 1, 50, 80
4, 7392, Note_on_c, 1, 38, 80
4, 7437, Note_on_c, 1, 50, 0
4, 7437, Note_on_c, 1, 38, 0
4, 7488, Note_on_c, 1, 47, 80
4, 7488, Note_on_c, 1, 35, 80
4, 7533, Note_on_c, 1, 47, 0
4, 7533, Note_on_c, 1, 35, 0
4, 7632, Note_on_c, 1, 52, 80
4, 7632, Note_on_c, 1, 40, 80
4, 7677, Note_on_c, 1, 52, 0
4, 7677, Note_on_c, 1, 40, 0
4, 7680, Note_on_c, 1, 45, 80
4, 7680, Note_on_c, 1, 33, 80
4, 7725, Note_on_c, 1, 45, 0
4, 7725, Note_on_c, 1, 33, 0
4, 7824, Note_on_c, 1, 50, 80
4, 7824, Note_on_c, 1, 38, 80
4, 7869, Note_on_c, 1, 50, 0
4, 7869, Note_on_c, 1, 38, 0
4, 7872, Note_on_c, 1, 43, 80
4, 7872, Note_on_c, 1, 31, 80
4, 7961, Note_on_c, 1, 43, 0
4, 7961, Note_on_c, 1, 31, 0
4, 8016, Note_on_c, 1, 64, 80
4, 8064, Note_on_c, 1, 64, 0
4, 8064, Note_on_c, 1, 54, 80
4, 8109, Note_on_c, 1, 54, 0
4, 8208, Note_on_c, 1, 62, 80
4, 8256, Note_on_c, 1, 62, 0
4, 8256, Note_on_c, 1, 52, 80
4, 8301, Note_on_c, 1, 52, 0
4, 8400, Note_on_c, 1, 60, 80
4, 8537, Note_on_c, 1, 60, 0
4, 8544, Note_on_c, 1, 59, 80
4, 8633, Note_on_c, 1, 59, 0
4, 8640, Note_on_c, 1, 54, 80
4, 8729, Note_on_c, 1, 54, 0
4, 8736, Note_on_c, 1, 55, 80
4, 8825, Note_on_c, 1, 55, 0
4, 8832, Note_on_c, 1, 61, 80
4, 8832, Note_on_c, 1, 55, 80
4, 8832, Note_on_c, 1, 52, 80
4, 8832, Note_on_c, 1, 50, 80
4, 9009, Note_on_c, 1, 61, 0
4, 9009, Note_on_c, 1, 55, 0
4, 9009, Note_on_c, 1, 52, 0
4, 9009, Note_on_c, 1, 50, 0
4, 9240, Note_on_c, 1, 38, 80
4, 9263, Note_on_c, 1, 38, 0
4, 9264, Note_on_c, 1, 45, 80
4, 9287, Note_on_c, 1, 45, 0
4, 9288, Note_on_c, 1, 49, 80
4, 9311, Note_on_c, 1, 49, 0
4, 9312, Note_on_c, 1, 50, 80
4, 9335, Note_on_c, 1, 50, 0
4, 9336, Note_on_c, 1, 49, 80
4, 9359, Note_on_c, 1, 49, 0
4, 9360, Note_on_c, 1, 50, 80
4, 9383, Note_on_c, 1, 50, 0
4, 9384, Note_on_c, 1, 49, 80
4, 9407, Note_on_c, 1, 49, 0
4, 9408, Note_on_c, 1, 50, 80
4, 9497, Note_on_c, 1, 50, 0
4, 10392, Note_on_c, 1, 62, 80
4, 10415, Note_on_c, 1, 62, 0
4, 10416, Note_on_c, 1, 66, 80
4, 10439, Note_on_c, 1, 66, 0
4, 10440, Note_on_c, 1, 69, 80
4, 10463, Note_on_c, 1, 69, 0
4, 10464, Note_on_c, 1, 72, 80
4, 10509, Note_on_c, 1, 72, 0
4, 11160, Note_on_c, 1, 43, 80
4, 11183, Note_on_c, 1, 43, 0
4, 11184, Note_on_c, 1, 45, 80
4, 11207, Note_on_c, 1, 45, 0
4, 11208, Note_on_c, 1, 47, 80
4, 11231, Note_on_c, 1, 47, 0
4, 11232, Note_on_c, 1, 48, 80
4, 11255, Note_on_c, 1, 48, 0
4, 11256, Note_on_c, 1, 50, 80
4, 11279, Note_on_c, 1, 50, 0
4, 11280, Note_on_c, 1, 52, 80
4, 11303, Note_on_c, 1, 52, 0
4, 11304, Note_on_c, 1, 54, 80
4, 11327, Note_on_c, 1, 54, 0
4, 11328, Note_on_c, 1, 55, 80
4, 11351, Note_on_c, 1, 55, 0
4, 11352, Note_on_c, 1, 54, 80
4, 11375, Note_on_c, 1, 54, 0
4, 11376, Note_on_c, 1, 55, 80
4, 11399, Note_on_c, 1, 55, 0
4, 11400, Note_on_c, 1, 57, 80
4, 11423, Note_on_c, 1, 57, 0
4, 11424, Note_on_c, 1, 59, 80
4, 11469, Note_on_c, 1, 59, 0
4, 11544, Note_on_c, 1, 67, 80
4, 11567, Note_on_c, 1, 67, 0
4, 11568, Note_on_c, 1, 66, 80
4, 11591, Note_on_c, 1, 66, 0
4, 11592, Note_on_c, 1, 64, 80
4, 11615, Note_on_c, 1, 64, 0
4, 11616, Note_on_c, 1, 66, 80
4, 11661, Note_on_c, 1, 66, 0
4, 11736, Note_on_c, 1, 66, 80
4, 11759, Note_on_c, 1, 66, 0
4, 11760, Note_on_c, 1, 64, 80
4, 11783, Note_on_c, 1, 64, 0
4, 11784, Note_on_c, 1, 63, 80
4, 11807, Note_on_c, 1, 63, 0
4, 11808, Note_on_c, 1, 64, 80
4, 11853, Note_on_c, 1, 64, 0
4, 11952, Note_on_c, 1, 69, 80
4, 11952, Note_on_c, 1, 66, 80
4, 11972, Note_on_c, 1, 69, 0
4, 11972, Note_on_c, 1, 66, 0
4, 12000, Note_on_c, 1, 74, 80
4, 12000, Note_on_c, 1, 71, 80
4, 12020, Note_on_c, 1, 74, 0
4, 12020, Note_on_c, 1, 71, 0
4, 12120, Note_on_c, 1, 67, 80
4, 12120, Note_on_c, 1, 64, 80
4, 12143, Note_on_c, 1, 67, 0
4, 12143, Note_on_c, 1, 64, 0
4, 12144, Note_on_c, 1, 69, 80
4, 12144, Note_on_c, 1, 66, 80
4, 12167, Note_on_c, 1, 69, 0
4, 12167, Note_on_c, 1, 66, 0
4, 12168, Note_on_c, 1, 71, 80
4, 12168, Note_on_c, 1, 67, 80
4, 12191, Note_on_c, 1, 71, 0
4, 12191, Note_on_c, 1, 67, 0
4, 12192, Note_on_c, 1, 72, 80
4, 12192, Note_on_c, 1, 69, 80
4, 12212, Note_on_c, 1, 72, 0
4, 12212, Note_on_c, 1, 69, 0
4, 12336, Note_on_c, 1, 66, 80
4, 12381, Note_on_c, 1, 66, 0
4, 12384, Note_on_c, 1, 67, 80
4, 12517, Note_on_c, 1, 67, 0
4, 12528, Note_on_c, 1, 72, 80
4, 12573, Note_on_c, 1, 72, 0
4, 12576, Note_on_c, 1, 71, 80
4, 12621, Note_on_c, 1, 71, 0
4, 12624, Note_on_c, 1, 69, 80
4, 12669, Note_on_c, 1, 69, 0
4, 12672, Control_c, 1, 64, 127
4, 12672, Note_on_c, 1, 55, 64
4, 12695, Note_on_c, 1, 55, 0
4, 12696, Note_on_c, 1, 67, 64
4, 12719, Note_on_c, 1, 67, 0
4, 12720, Note_on_c, 1, 55, 64
4, 12743, Note_on_c, 1, 55, 0
4, 12744, Note_on_c, 1, 67, 64
4, 12767, Note_on_c, 1, 67, 0
4, 12768, Note_on_c, 1, 55, 64
4, 12791, Note_on_c, 1, 55, 0
4, 12792, Note_on_c, 1, 67, 64
4, 12815, Note_on_c, 1, 67, 0
4, 12816, Note_on_c, 1, 55, 64
4, 12839, Note_on_c, 1, 55, 0
4, 12840, Note_on_c, 1, 67, 64
4, 12863, Note_on_c, 1, 67, 0
4, 12864, Note_on_c, 1, 55, 64
4, 12887, Note_on_c, 1, 55, 0
4, 12888, Note_on_c, 1, 67, 64
4, 12911, Note_on_c, 1, 67, 0
4, 12912, Note_on_c, 1, 55, 64
4, 12935, Note_on_c, 1, 55, 0
4, 12936, Note_on_c, 1, 67, 64
4, 12959, Note_on_c, 1, 67, 0
4, 12960, Note_on_c, 1, 55, 64
4, 12983, Note_on_c, 1, 55, 0
4, 12984, Note_on_c, 1, 67, 64
4, 13007, Note_on_c, 1, 67, 0
4, 13008, Note_on_c, 1, 55, 64
4, 13031, Note_on_c, 1, 55, 0
4, 13032, Note_on_c, 1, 67, 64
4, 13055, Note_on_c, 1, 67, 0
4, 13056, Note_on_c, 1, 55, 64
4, 13079, Note_on_c, 1, 55, 0
4, 13080, Note_on_c, 1, 67, 64
4, 13103, Note_on_c, 1, 67, 0
4, 13104, Note_on_c, 1, 55, 64
4, 13127, Note_on_c, 1, 55, 0
4, 13128, Note_on_c, 1, 67, 64
4, 13151, Note_on_c, 1, 67, 0
4, 13152, Note_on_c, 1, 55, 64
4, 13175, Note_on_c, 1, 55, 0
4, 13176, Note_on_c, 1, 67, 64
4, 13199, Note_on_c, 1, 67, 0
4, 13200, Note_on_c, 1, 55, 64
4, 13223, Note_on_c, 1, 55, 0
4, 13224, Note_on_c, 1, 67, 64
4, 13247, Note_on_c, 1, 67, 0
4, 13248, Note_on_c, 1, 55, 64
4, 13271, Note_on_c, 1, 55, 0
4, 13272, Note_on_c, 1, 67, 64
4, 13295, Note_on_c, 1, 67, 0
4, 13296, Note_on_c, 1, 55, 64
4, 13319, Note_on_c, 1, 55, 0
4, 13320, Note_on_c, 1, 67, 64
4, 13343, Note_on_c, 1, 67, 0
4, 13344, Note_on_c, 1, 55, 64
4, 13367, Note_on_c, 1, 55, 0
4, 13368, Note_on_c, 1, 67, 64
4, 13391, Note_on_c, 1, 67, 0
4, 13392, Note_on_c, 1, 55, 64
4, 13415, Note_on_c, 1, 55, 0
4, 13416, Note_on_c, 1, 67, 64
4, 13439, Note_on_c, 1, 67, 0
4, 13440, Note_on_c, 1, 55, 64
4, 13463, Note_on_c, 1, 55, 0
4, 13464, Note_on_c, 1, 67, 64
4, 13487, Note_on_c, 1, 67, 0
4, 13488, Note_on_c, 1, 55, 64
4, 13511, Note_on_c, 1, 55, 0
4, 13512, Note_on_c, 1, 67, 64
4, 13535, Note_on_c, 1, 67, 0
4, 13536, Note_on_c, 1, 55, 64
4, 13559, Note_on_c, 1, 55, 0
4, 13560, Note_on_c, 1, 67, 64
4, 13583, Note_on_c, 1, 67, 0
4, 13584, Note_on_c, 1, 55, 64
4, 13607, Note_on_c, 1, 55, 0
4, 13608, Note_on_c, 1, 67, 64
4, 13631, Note_on_c, 1, 67, 0
4, 13632, Note_on_c, 1, 55, 64
4, 13655, Note_on_c, 1, 55, 0
4, 13656, Note_on_c, 1, 67, 64
4, 13679, Note_on_c, 1, 67, 0
4, 13680, Note_on_c, 1, 55, 64
4, 13703, Note_on_c, 1, 55, 0
4, 13704, Note_on_c, 1, 67, 64
4, 13727, Note_on_c, 1, 67, 0
4, 13728, Note_on_c, 1, 55, 64
4, 13751, Note_on_c, 1, 55, 0
4, 13752, Note_on_c, 1, 67, 64
4, 13775, Note_on_c, 1, 67, 0
4, 13776, Note_on_c, 1, 55, 64
4, 13799, Note_on_c, 1, 55, 0
4, 13800, Note_on_c, 1, 67, 64
4, 13823, Note_on_c, 1, 67, 0
4, 13824, Note_on_c, 1, 55, 64
4, 13847, Note_on_c, 1, 55, 0
4, 13848, Note_on_c, 1, 67, 64
4, 13871, Note_on_c, 1, 67, 0
4, 13872, Note_on_c, 1, 55, 64
4, 13895, Note_on_c, 1, 55, 0
4, 13896, Note_on_c, 1, 67, 64
4, 13919, Note_on_c, 1, 67, 0
4, 13920, Note_on_c, 1, 55, 64
4, 13943, Note_on_c, 1, 55, 0
4, 13944, Note_on_c, 1, 67, 64
4, 13967, Note_on_c, 1, 67, 0
4, 13968, Note_on_c, 1, 55, 64
4, 13991, Note_on_c, 1, 55, 0
4, 13992, Note_on_c, 1, 67, 64
4, 14015, Note_on_c, 1, 67, 0
4, 14016, Note_on_c, 1, 55, 64
4, 14039, Note_on_c, 1, 55, 0
4, 14040, Note_on_c, 1, 65, 64
4, 14063, Note_on_c, 1, 65, 0
4, 14064, Note_on_c, 1, 55, 64
4, 14087, Note_on_c, 1, 55, 0
4, 14088, Note_on_c, 1, 65, 64
4, 14111, Note_on_c, 1, 65, 0
4, 14112, Note_on_c, 1, 55, 64
4, 14135, Note_on_c, 1, 55, 0
4, 14136, Note_on_c, 1, 65, 64
4, 14159, Note_on_c, 1, 65, 0
4, 14160, Note_on_c, 1, 55, 64
4, 14183, Note_on_c, 1, 55, 0
4, 14184, Control_c, 1, 64, 0
4, 14184, Note_on_c, 1, 65, 64
4, 14207, Note_on_c, 1, 65, 0
4, 14208, Control_c, 1, 64, 127
4, 14208, Note_on_c, 1, 55, 64
4, 14231, Note_on_c, 1, 55, 0
4, 14232, Note_on_c, 1, 63, 64
4, 14255, Note_on_c, 1, 63, 0
4, 14256, Note_on_c, 1, 55, 64
4, 14279, Note_on_c, 1, 55, 0
4, 14280, Note_on_c, 1, 63, 64
4, 14303, Note_on_c, 1, 63, 0
4, 14304, Note_on_c, 1, 55, 64
4, 14327, Note_on_c, 1, 55, 0
4, 14328, Note_on_c, 1, 63, 64
4, 14351, Note_on_c, 1, 63, 0
4, 14352, Note_on_c, 1, 55, 64
4, 14375, Note_on_c, 1, 55, 0
4, 14376, Control_c, 1, 64, 0
4, 14376, Note_on_c, 1, 63, 64
4, 14399, Note_on_c, 1, 63, 0
4, 14400, Control_c, 1, 64, 127
4, 14400, Note_on_c, 1, 57, 82
4, 14423, Note_on_c, 1, 57, 0
4, 14424, Note_on_c, 1, 63, 64
4, 14447, Note_on_c, 1, 63, 0
4, 14448, Note_on_c, 1, 57, 64
4, 14471, Note_on_c, 1, 57, 0
4, 14472, Note_on_c, 1, 63, 64
4, 14495, Note_on_c, 1, 63, 0
4, 14496, Note_on_c, 1, 57, 64
4, 14519, Note_on_c, 1, 57, 0
4, 14520, Note_on_c, 1, 63, 64
4, 14543, Note_on_c, 1, 63, 0
4, 14544, Note_on_c, 1, 57, 64
4, 14567, Note_on_c, 1, 57, 0
4, 14568, Control_c, 1, 64, 0
4, 14568, Note_on_c, 1, 63, 64
4, 14591, Note_on_c, 1, 63, 0
4, 14592, Control_c, 1, 64, 127
4, 14592, Note_on_c, 1, 59, 64
4, 14615, Note_on_c, 1, 59, 0
4, 14616, Note_on_c, 1, 62, 64
4, 14639, Note_on_c, 1, 62, 0
4, 14640, Note_on_c, 1, 59, 64
4, 14663, Note_on_c, 1, 59, 0
4, 14664, Note_on_c, 1, 62, 64
4, 14687, Note_on_c, 1, 62, 0
4, 14688, Note_on_c, 1, 59, 64
4, 14711, Note_on_c, 1, 59, 0
4, 14712, Note_on_c, 1, 67, 64
4, 14735, Note_on_c, 1, 67, 0
4, 14736, Note_on_c, 1, 59, 64
4, 14759, Note_on_c, 1, 59, 0
4, 14760, Control_c, 1, 64, 0
4, 14760, Note_on_c, 1, 67, 64
4, 14783, Note_on_c, 1, 67, 0
4, 14784, Control_c, 1, 64, 127
4, 14784, Note_on_c, 1, 60, 64
4, 14807, Note_on_c, 1, 60, 0
4, 14808, Note_on_c, 1, 67, 64
4, 14831, Note_on_c, 1, 67, 0
4, 14832, Note_on_c, 1, 60, 64
4, 14855, Note_on_c, 1, 60, 0
4, 14856, Note_on_c, 1, 67, 64
4, 14879, Note_on_c, 1, 67, 0
4, 14880, Note_on_c, 1, 60, 64
4, 14903, Note_on_c, 1, 60, 0
4, 14904, Note_on_c, 1, 68, 64
4, 14927, Note_on_c, 1, 68, 0
4, 14928, Note_on_c, 1, 60, 64
4, 14951, Note_on_c, 1, 60, 0
4, 14952, Control_c, 1, 64, 0
4, 14952, Note_on_c, 1, 68, 64
4, 14975, Note_on_c, 1, 68, 0
4, 14976, Control_c, 1, 64, 127
4, 14976, Note_on_c, 1, 60, 64
4, 14999, Note_on_c, 1, 60, 0
4, 15000, Note_on_c, 1, 69, 64
4, 15023, Note_on_c, 1, 69, 0
4, 15024, Note_on_c, 1, 60, 64
4, 15047, Note_on_c, 1, 60, 0
4, 15048, Note_on_c, 1, 69, 64
4, 15071, Note_on_c, 1, 69, 0
4, 15072, Note_on_c, 1, 60, 64
4, 15095, Note_on_c, 1, 60, 0
4, 15096, Note_on_c, 1, 69, 64
4, 15119, Note_on_c, 1, 69, 0
4, 15120, Note_on_c, 1, 60, 64
4, 15143, Note_on_c, 1, 60, 0
4, 15144, Control_c, 1, 64, 0
4, 15144, Note_on_c, 1, 69, 64
4, 15167, Note_on_c, 1, 69, 0
4, 15168, Note_on_c, 1, 61, 82
4, 15191, Note_on_c, 1, 61, 0
4, 15192, Note_on_c, 1, 67, 64
4, 15215, Note_on_c, 1, 67, 0
4, 15216, Note_on_c, 1, 61, 64
4, 15239, Note_on_c, 1, 61, 0
4, 15240, Note_on_c, 1, 67, 64
4, 15263, Note_on_c, 1, 67, 0
4, 15264, Note_on_c, 1, 61, 64
4, 15287, Note_on_c, 1, 61, 0
4, 15288, Note_on_c, 1, 67, 64
4, 15311, Note_on_c, 1, 67, 0
4, 15312, Note_on_c, 1, 61, 64
4, 15335, Note_on_c, 1, 61, 0
4, 15336, Control_c, 1, 64, 0
4, 15336, Note_on_c, 1, 67, 64
4, 15359, Note_on_c, 1, 67, 0
4, 15360, Control_c, 1, 64, 127
4, 15360, Note_on_c, 1, 62, 64
4, 15383, Note_on_c, 1, 62, 0
4, 15384, Note_on_c, 1, 67, 64
4, 15407, Note_on_c, 1, 67, 0
4, 15408, Note_on_c, 1, 62, 64
4, 15431, Note_on_c, 1, 62, 0
4, 15432, Note_on_c, 1, 67, 64
4, 15455, Note_on_c, 1, 67, 0
4, 15456, Note_on_c, 1, 62, 64
4, 15479, Note_on_c, 1, 62, 0
4, 15480, Note_on_c, 1, 67, 64
4, 15503, Note_on_c, 1, 67, 0
4, 15504, Note_on_c, 1, 62, 64
4, 15527, Note_on_c, 1, 62, 0
4, 15528, Control_c, 1, 64, 0
4, 15528, Note_on_c, 1, 67, 64
4, 15551, Note_on_c, 1, 67, 0
4, 15552, Control_c, 1, 64, 127
4, 15552, Note_on_c, 1, 62, 64
4, 15575, Note_on_c, 1, 62, 0
4, 15576, Note_on_c, 1, 66, 64
4, 15599, Note_on_c, 1, 66, 0
4, 15600, Note_on_c, 1, 62, 64
4, 15623, Note_on_c, 1, 62, 0
4, 15624, Note_on_c, 1, 66, 64
4, 15647, Note_on_c, 1, 66, 0
4, 15648, Note_on_c, 1, 62, 64
4, 15671, Note_on_c, 1, 62, 0
4, 15672, Note_on_c, 1, 66, 64
4, 15695, Note_on_c, 1, 66, 0
4, 15696, Note_on_c, 1, 62, 64
4, 15719, Note_on_c, 1, 62, 0
4, 15720, Control_c, 1, 64, 0
4, 15720, Note_on_c, 1, 66, 64
4, 15743, Note_on_c, 1, 66, 0
4, 15744, Note_on_c, 1, 67, 64
4, 15789, Note_on_c, 1, 67, 0
4, 15792, Note_on_c, 1, 55, 80
4, 15800, Note_on_c, 1, 59, 80
4, 15808, Note_on_c, 1, 62, 80
4, 15837, Note_on_c, 1, 62, 0
4, 15837, Note_on_c, 1, 59, 0
4, 15837, Note_on_c, 1, 55, 0
4, 15840, Note_on_c, 1, 54, 80
4, 15848, Note_on_c, 1, 57, 80
4, 15856, Note_on_c, 1, 62, 80
4, 15885, Note_on_c, 1, 62, 0
4, 15885, Note_on_c, 1, 57, 0
4, 15885, Note_on_c, 1, 54, 0
4, 15888, Note_on_c, 1, 55, 80
4, 15896, Note_on_c, 1, 59, 80
4, 15904, Note_on_c, 1, 62, 80
4, 15933, Note_on_c, 1, 62, 0
4, 15933, Note_on_c, 1, 59, 0
4, 15933, Note_on_c, 1, 55, 0
4, 15936, Note_on_c, 1, 60, 80
4, 15936, Note_on_c, 1, 48, 80
4, 15981, Note_on_c, 1, 60, 0
4, 15981, Note_on_c, 1, 48, 0
4, 16032, Note_on_c, 1, 66, 64
4, 16080, Note_on_c, 1, 66, 0
4, 16080, Note_on_c, 1, 62, 64
4, 16125, Note_on_c, 1, 62, 0
4, 16128, Note_on_c, 1, 67, 64
4, 16173, Note_on_c, 1, 67, 0
4, 16176, Note_on_c, 1, 55, 80
4, 16184, Note_on_c, 1, 59, 80
4, 16192, Note_on_c, 1, 62, 80
4, 16221, Note_on_c, 1, 62, 0
4, 16221, Note_on_c, 1, 59, 0
4, 16221, Note_on_c, 1, 55, 0
4, 16224, Note_on_c, 1, 54, 80
4, 16232, Note_on_c, 1, 57, 80
4, 16240, Note_on_c, 1, 62, 80
4, 16269, Note_on_c, 1, 62, 0
4, 16269, Note_on_c, 1, 57, 0
4, 16269, Note_on_c, 1, 54, 0
4, 16272, Note_on_c, 1, 55, 80
4, 16280, Note_on_c, 1, 59, 80
4, 16288, Note_on_c, 1, 62, 80
4, 16317, Note_on_c, 1, 62, 0
4, 16317, Note_on_c, 1, 59, 0
4, 16317, Note_on_c, 1, 55, 0
4, 16320, Note_on_c, 1, 60, 80
4, 16320, Note_on_c, 1, 48, 80
4, 16365, Note_on_c, 1, 60, 0
4, 16365, Note_on_c, 1, 48, 0
4, 16464, Note_on_c, 1, 57, 80
4, 16464, Note_on_c, 1, 50, 80
4, 16509, Note_on_c, 1, 57, 0
4, 16509, Note_on_c, 1, 50, 0
4, 16512, Note_on_c, 1, 55, 80
4, 16532, Note_on_c, 1, 55, 0
4, 16560, Note_on_c, 1, 55, 80
4, 16575, Note_on_c, 1, 55, 0
4, 16576, Note_on_c, 1, 59, 80
4, 16591, Note_on_c, 1, 59, 0
4, 16592, Note_on_c, 1, 62, 80
4, 16607, Note_on_c, 1, 62, 0
4, 16608, Note_on_c, 1, 54, 80
4, 16623, Note_on_c, 1, 54, 0
4, 16624, Note_on_c, 1, 57, 80
4, 16639, Note_on_c, 1, 57, 0
4, 16640, Note_on_c, 1, 62, 80
4, 16655, Note_on_c, 1, 62, 0
4, 16656, Note_on_c, 1, 55, 80
4, 16671, Note_on_c, 1, 55, 0
4, 16672, Note_on_c, 1, 59, 80
4, 16687, Note_on_c, 1, 59, 0
4, 16688, Note_on_c, 1, 62, 80
4, 16703, Note_on_c, 1, 62, 0
4, 16704, Note_on_c, 1, 48, 80
4, 16724, Note_on_c, 1, 48, 0
4, 16800, Note_on_c, 1, 64, 80
4, 16800, Note_on_c, 1, 60, 80
4, 16820, Note_on_c, 1, 64, 0
4, 16820, Note_on_c, 1, 60, 0
4, 16896, Note_on_c, 1, 64, 80
4, 16896, Note_on_c, 1, 60, 80
4, 16916, Note_on_c, 1, 64, 0
4, 16916, Note_on_c, 1, 60, 0
4, 16992, Note_on_c, 1, 64, 76
4, 16992, Note_on_c, 1, 60, 76
4, 17012, Note_on_c, 1, 64, 0
4, 17012, Note_on_c, 1, 60, 0
4, 17088, Note_on_c, 1, 64, 72
4, 17088, Note_on_c, 1, 60, 72
4, 17108, Note_on_c, 1, 64, 0
4, 17108, Note_on_c, 1, 60, 0
4, 17184, Note_on_c, 1, 64, 68
4, 17184, Note_on_c, 1, 60, 68
4, 17204, Note_on_c, 1, 64, 0
4, 17204, Note_on_c, 1, 60, 0
4, 17280, Note_on_c, 1, 59, 64
4, 17280, Note_on_c, 1, 55, 64
4, 17280, Note_on_c, 1, 50, 64
4, 17374, Note_on_c, 1, 59, 0
4, 17374, Note_on_c, 1, 55, 0
4, 17374, Note_on_c, 1, 50, 0
4, 17472, Note_on_c, 1, 50, 79
4, 17487, Note_on_c, 1, 50, 0
4, 17488, Note_on_c, 1, 54, 80
4, 17503, Note_on_c, 1, 54, 0
4, 17504, Note_on_c, 1, 57, 80
4, 17519, Note_on_c, 1, 57, 0
4, 17520, Note_on_c, 1, 62, 80
4, 17535, Note_on_c, 1, 62, 0
4, 17536, Note_on_c, 1, 66, 80
4, 17551, Note_on_c, 1, 66, 0
4, 17552, Note_on_c, 1, 69, 80
4, 17567, Note_on_c, 1, 69, 0
4, 17568, Note_on_c, 1, 72, 80
4, 17588, Note_on_c, 1, 72, 0
4, 17664, Note_on_c, 1, 59, 64
4, 17687, Note_on_c, 1, 59, 0
4, 17688, Note_on_c, 1, 62, 64
4, 17711, Note_on_c, 1, 62, 0
4, 17712, Note_on_c, 1, 59, 64
4, 17735, Note_on_c, 1, 59, 0
4, 17736, Note_on_c, 1, 62, 64
4, 17759, Note_on_c, 1, 62, 0
4, 17760, Note_on_c, 1, 59, 64
4, 17783, Note_on_c, 1, 59, 0
4, 17784, Note_on_c, 1, 62, 64
4, 17807, Note_on_c, 1, 62, 0
4, 17808, Note_on_c, 1, 59, 64
4, 17831, Note_on_c, 1, 59, 0
4, 17832, Note_on_c, 1, 62, 64
4, 17855, Note_on_c, 1, 62, 0
4, 17856, Note_on_c, 1, 59, 64
4, 17879, Note_on_c, 1, 59, 0
4, 17880, Note_on_c, 1, 62, 64
4, 17903, Note_on_c, 1, 62, 0
4, 17904, Note_on_c, 1, 59, 64
4, 17927, Note_on_c, 1, 59, 0
4, 17928, Note_on_c, 1, 62, 64
4, 17951, Note_on_c, 1, 62, 0
4, 17952, Note_on_c, 1, 59, 64
4, 17975, Note_on_c, 1, 59, 0
4, 17976, Note_on_c, 1, 62, 64
4, 17999, Note_on_c, 1, 62, 0
4, 18000, Note_on_c, 1, 59, 64
4, 18023, Note_on_c, 1, 59, 0
4, 18024, Note_on_c, 1, 62, 64
4, 18047, Note_on_c, 1, 62, 0
4, 18048, Note_on_c, 1, 60, 64
4, 18071, Note_on_c, 1, 60, 0
4, 18072, Note_on_c, 1, 62, 64
4, 18095, Note_on_c, 1, 62, 0
4, 18096, Note_on_c, 1, 60, 64
4, 18119, Note_on_c, 1, 60, 0
4, 18120, Note_on_c, 1, 62, 64
4, 18143, Note_on_c, 1, 62, 0
4, 18144, Note_on_c, 1, 60, 64
4, 18167, Note_on_c, 1, 60, 0
4, 18168, Note_on_c, 1, 62, 64
4, 18191, Note_on_c, 1, 62, 0
4, 18192, Note_on_c, 1, 60, 64
4, 18215, Note_on_c, 1, 60, 0
4, 18216, Note_on_c, 1, 62, 64
4, 18239, Note_on_c, 1, 62, 0
4, 18240, Note_on_c, 1, 60, 64
4, 18263, Note_on_c, 1, 60, 0
4, 18264, Note_on_c, 1, 62, 64
4, 18287, Note_on_c, 1, 62, 0
4, 18288, Note_on_c, 1, 60, 64
4, 18311, Note_on_c, 1, 60, 0
4, 18312, Note_on_c, 1, 62, 64
4, 18335, Note_on_c, 1, 62, 0
4, 18336, Note_on_c, 1, 60, 64
4, 18359, Note_on_c, 1, 60, 0
4, 18360, Note_on_c, 1, 62, 64
4, 18383, Note_on_c, 1, 62, 0
4, 18384, Note_on_c, 1, 60, 64
4, 18407, Note_on_c, 1, 60, 0
4, 18408, Note_on_c, 1, 62, 64
4, 18431, Note_on_c, 1, 62, 0
4, 18432, Note_on_c, 1, 59, 64
4, 18455, Note_on_c, 1, 59, 0
4, 18456, Note_on_c, 1, 62, 64
4, 18479, Note_on_c, 1, 62, 0
4, 18480, Note_on_c, 1, 59, 64
4, 18503, Note_on_c, 1, 59, 0
4, 18504, Note_on_c, 1, 62, 64
4, 18527, Note_on_c, 1, 62, 0
4, 18528, Note_on_c, 1, 59, 64
4, 18551, Note_on_c, 1, 59, 0
4, 18552, Note_on_c, 1, 62, 64
4, 18575, Note_on_c, 1, 62, 0
4, 18576, Note_on_c, 1, 59, 64
4, 18599, Note_on_c, 1, 59, 0
4, 18600, Note_on_c, 1, 62, 64
4, 18623, Note_on_c, 1, 62, 0
4, 18624, Note_on_c, 1, 59, 64
4, 18647, Note_on_c, 1, 59, 0
4, 18648, Note_on_c, 1, 62, 64
4, 18671, Note_on_c, 1, 62, 0
4, 18672, Note_on_c, 1, 59, 64
4, 18695, Note_on_c, 1, 59, 0
4, 18696, Note_on_c, 1, 62, 64
4, 18719, Note_on_c, 1, 62, 0
4, 18720, Note_on_c, 1, 59, 64
4, 18743, Note_on_c, 1, 59, 0
4, 18744, Note_on_c, 1, 62, 64
4, 18767, Note_on_c, 1, 62, 0
4, 18768, Note_on_c, 1, 59, 64
4, 18791, Note_on_c, 1, 59, 0
4, 18792, Note_on_c, 1, 62, 64
4, 18815, Note_on_c, 1, 62, 0
4, 18816, Note_on_c, 1, 60, 64
4, 18839, Note_on_c, 1, 60, 0
4, 18840, Note_on_c, 1, 62, 64
4, 18863, Note_on_c, 1, 62, 0
4, 18864, Note_on_c, 1, 60, 64
4, 18887, Note_on_c, 1, 60, 0
4, 18888, Note_on_c, 1, 62, 64
4, 18911, Note_on_c, 1, 62, 0
4, 18912, Note_on_c, 1, 60, 64
4, 18935, Note_on_c, 1, 60, 0
4, 18936, Note_on_c, 1, 62, 64
4, 18959, Note_on_c, 1, 62, 0
4, 18960, Note_on_c, 1, 60, 64
4, 18983, Note_on_c, 1, 60, 0
4, 18984, Note_on_c, 1, 62, 64
4, 19007, Note_on_c, 1, 62, 0
4, 19008, Note_on_c, 1, 60, 64
4, 19031, Note_on_c, 1, 60, 0
4, 19032, Note_on_c, 1, 62, 64
4, 19055, Note_on_c, 1, 62, 0
4, 19056, Note_on_c, 1, 60, 64
4, 19079, Note_on_c, 1, 60, 0
4, 19080, Note_on_c, 1, 62, 64
4, 19103, Note_on_c, 1, 62, 0
4, 19104, Note_on_c, 1, 60, 64
4, 19127, Note_on_c, 1, 60, 0
4, 19128, Note_on_c, 1, 62, 64
4, 19151, Note_on_c, 1, 62, 0
4, 19152, Note_on_c, 1, 60, 64
4, 19175, Note_on_c, 1, 60, 0
4, 19176, Note_on_c, 1, 62, 64
4, 19199, Note_on_c, 1, 62, 0
4, 19200, Note_on_c, 1, 59, 64
4, 19200, Note_on_c, 1, 55, 64
4, 19245, Note_on_c, 1, 59, 0
4, 19245, Note_on_c, 1, 55, 0
4, 19440, Note_on_c, 1, 48, 82
4, 19464, Note_on_c, 1, 48, 0
4, 19464, Note_on_c, 1, 45, 64
4, 19487, Note_on_c, 1, 45, 0
4, 19488, Note_on_c, 1, 50, 64
4, 19508, Note_on_c, 1, 50, 0
4, 19536, Note_on_c, 1, 50, 64
4, 19536, Note_on_c, 1, 38, 64
4, 19556, Note_on_c, 1, 50, 0
4, 19556, Note_on_c, 1, 38, 0
4, 19584, Note_on_c, 1, 43, 64
4, 19584, Note_on_c, 1, 31, 64
4, 19629, Note_on_c, 1, 43, 0
4, 19629, Note_on_c, 1, 31, 0
4, 19824, Note_on_c, 1, 48, 82
4, 19848, Note_on_c, 1, 48, 0
4, 19848, Note_on_c, 1, 45, 64
4, 19871, Note_on_c, 1, 45, 0
4, 19872, Note_on_c, 1, 50, 64
4, 19892, Note_on_c, 1, 50, 0
4, 19920, Note_on_c, 1, 50, 64
4, 19920, Note_on_c, 1, 38, 64
4, 19940, Note_on_c, 1, 50, 0
4, 19940, Note_on_c, 1, 38, 0
4, 19968, Note_on_c, 1, 43, 64
4, 19968, Note_on_c, 1, 31, 64
4, 20013, Note_on_c, 1, 43, 0
4, 20013, Note_on_c, 1, 31, 0
4, 20064, Note_on_c, 1, 50, 64
4, 20064, Note_on_c, 1, 38, 64
4, 20109, Note_on_c, 1, 50, 0
4, 20109, Note_on_c, 1, 38, 0
4, 20160, Note_on_c, 1, 43, 64
4, 20160, Note_on_c, 1, 31, 64
4, 20205, Note_on_c, 1, 43, 0
4, 20205, Note_on_c, 1, 31, 0
4, 20592, Note_on_c, 1, 48, 64
4, 20612, Note_on_c, 1, 48, 0
4, 20640, Note_on_c, 1, 36, 64
4, 20660, Note_on_c, 1, 36, 0
4, 20784, Note_on_c, 1, 48, 64
4, 20804, Note_on_c, 1, 48, 0
4, 20832, Note_on_c, 1, 36, 64
4, 20852, Note_on_c, 1, 36, 0
4, 20976, Note_on_c, 1, 48, 64
4, 20996, Note_on_c, 1, 48, 0
4, 21024, Note_on_c, 1, 36, 64
4, 21044, Note_on_c, 1, 36, 0
4, 21168, Note_on_c, 1, 48, 64
4, 21216, Note_on_c, 1, 48, 0
4, 21216, Note_on_c, 1, 36, 64
4, 21236, Note_on_c, 1, 36, 0
4, 21360, Note_on_c, 1, 48, 64
4, 21408, Note_on_c, 1, 48, 0
4, 21408, Note_on_c, 1, 36, 64
4, 21428, Note_on_c, 1, 36, 0
4, 21552, Note_on_c, 1, 48, 64
4, 21600, Note_on_c, 1, 48, 0
4, 21600, Note_on_c, 1, 36, 64
4, 21620, Note_on_c, 1, 36, 0
4, 21744, Note_on_c, 1, 48, 64
4, 21792, Note_on_c, 1, 48, 0
4, 21792, Note_on_c, 1, 36, 64
4, 21812, Note_on_c, 1, 36, 0
4, 21936, Note_on_c, 1, 48, 64
4, 21984, Note_on_c, 1, 48, 0
4, 21984, Note_on_c, 1, 36, 64
4, 22004, Note_on_c, 1, 36, 0
4, 22128, Note_on_c, 1, 48, 64
4, 22176, Note_on_c, 1, 48, 0
4, 22176, Note_on_c, 1, 36, 66
4, 22196, Note_on_c, 1, 36, 0
4, 22320, Note_on_c, 1, 48, 74
4, 22368, Note_on_c, 1, 48, 0
4, 22368, Note_on_c, 1, 36, 77
4, 22388, Note_on_c, 1, 36, 0
4, 22656, Note_on_c, 1, 36, 80
4, 22662, Note_on_c, 1, 40, 80
4, 22668, Note_on_c, 1, 43, 80
4, 22674, Note_on_c, 1, 48, 80
4, 22701, Note_on_c, 1, 48, 0
4, 22701, Note_on_c, 1, 43, 0
4, 22701, Note_on_c, 1, 40, 0
4, 22701, Note_on_c, 1, 36, 0
4, 22752, Note_on_c, 1, 43, 80
4, 22758, Note_on_c, 1, 47, 80
4, 22764, Note_on_c, 1, 50, 80
4, 22770, Note_on_c, 1, 55, 80
4, 22797, Note_on_c, 1, 55, 0
4, 22797, Note_on_c, 1, 50, 0
4, 22797, Note_on_c, 1, 47, 0
4, 22797, Note_on_c, 1, 43, 0
4, 22848, Note_on_c, 1, 48, 80
4, 22854, Note_on_c, 1, 52, 80
4, 22860, Note_on_c, 1, 55, 80
4, 22866, Note_on_c, 1, 60, 80
4, 22893, Note_on_c, 1, 60, 0
4, 22893, Note_on_c, 1, 55, 0
4, 22893, Note_on_c, 1, 52, 0
4, 22893, Note_on_c, 1, 48, 0
4, 23088, Note_on_c, 1, 71, 64
4, 23088, Note_on_c, 1, 65, 64
4, 23108, Note_on_c, 1, 71, 0
4, 23108, Note_on_c, 1, 65, 0
4, 23136, Note_on_c, 1, 71, 64
4, 23136, Note_on_c, 1, 65, 64
4, 23156, Note_on_c, 1, 71, 0
4, 23156, Note_on_c, 1, 65, 0
4, 23280, Note_on_c, 1, 67, 64
4, 23280, Note_on_c, 1, 64, 64
4, 23300, Note_on_c, 1, 67, 0
4, 23300, Note_on_c, 1, 64, 0
4, 23328, Note_on_c, 1, 67, 64
4, 23328, Note_on_c, 1, 64, 64
4, 23348, Note_on_c, 1, 67, 0
4, 23348, Note_on_c, 1, 64, 0
4, 23448, Note_on_c, 1, 62, 70
4, 23471, Note_on_c, 1, 62, 0
4, 23472, Note_on_c, 1, 61, 69
4, 23495, Note_on_c, 1, 61, 0
4, 23496, Note_on_c, 1, 62, 68
4, 23519, Note_on_c, 1, 62, 0
4, 23520, Note_on_c, 1, 60, 67
4, 23543, Note_on_c, 1, 60, 0
4, 23544, Note_on_c, 1, 59, 66
4, 23567, Note_on_c, 1, 59, 0
4, 23568, Note_on_c, 1, 57, 65
4, 23591, Note_on_c, 1, 57, 0
4, 23592, Note_on_c, 1, 55, 64
4, 23615, Note_on_c, 1, 55, 0
4, 23640, Note_on_c, 1, 60, 64
4, 23663, Note_on_c, 1, 60, 0
4, 23664, Note_on_c, 1, 62, 63
4, 23687, Note_on_c, 1, 62, 0
4, 23688, Note_on_c, 1, 64, 62
4, 23711, Note_on_c, 1, 64, 0
4, 23712, Note_on_c, 1, 65, 61
4, 23735, Note_on_c, 1, 65, 0
4, 23736, Note_on_c, 1, 67, 60
4, 23759, Note_on_c, 1, 67, 0
4, 23760, Note_on_c, 1, 68, 59
4, 23783, Note_on_c, 1, 68, 0
4, 23784, Note_on_c, 1, 69, 58
4, 23807, Note_on_c, 1, 69, 0
4, 23808, Note_on_c, 1, 65, 58
4, 23897, Note_on_c, 1, 65, 0
4, 23952, Note_on_c, 1, 67, 58
4, 23997, Note_on_c, 1, 67, 0
4, 24000, Note_on_c, 1, 64, 70
4, 24023, Note_on_c, 1, 64, 0
4, 24024, Note_on_c, 1, 67, 70
4, 24047, Note_on_c, 1, 67, 0
4, 24048, Note_on_c, 1, 64, 70
4, 24071, Note_on_c, 1, 64, 0
4, 24072, Note_on_c, 1, 67, 70
4, 24095, Note_on_c, 1, 67, 0
4, 24096, Note_on_c, 1, 64, 70
4, 24119, Note_on_c, 1, 64, 0
4, 24120, Note_on_c, 1, 67, 70
4, 24143, Note_on_c, 1, 67, 0
4, 24144, Note_on_c, 1, 64, 70
4, 24167, Note_on_c, 1, 64, 0
4, 24168, Note_on_c, 1, 67, 70
4, 24191, Note_on_c, 1, 67, 0
4, 24192, Note_on_c, 1, 65, 70
4, 24192, Note_on_c, 1, 62, 70
4, 24215, Note_on_c, 1, 65, 0
4, 24215, Note_on_c, 1, 62, 0
4, 24216, Note_on_c, 1, 67, 70
4, 24239, Note_on_c, 1, 67, 0
4, 24240, Note_on_c, 1, 65, 70
4, 24240, Note_on_c, 1, 62, 70
4, 24263, Note_on_c, 1, 65, 0
4, 24263, Note_on_c, 1, 62, 0
4, 24264, Note_on_c, 1, 67, 70
4, 24287, Note_on_c, 1, 67, 0
4, 24288, Note_on_c, 1, 65, 70
4, 24288, Note_on_c, 1, 62, 70
4, 24311, Note_on_c, 1, 65, 0
4, 24311, Note_on_c, 1, 62, 0
4, 24312, Note_on_c, 1, 67, 70
4, 24335, Note_on_c, 1, 67, 0
4, 24336, Note_on_c, 1, 65, 70
4, 24336, Note_on_c, 1, 62, 70
4, 24359, Note_on_c, 1, 65, 0
4, 24359, Note_on_c, 1, 62, 0
4, 24360, Note_on_c, 1, 67, 70
4, 24383, Note_on_c, 1, 67, 0
4, 24384, Note_on_c, 1, 64, 70
4, 24407, Note_on_c, 1, 64, 0
4, 24408, Note_on_c, 1, 67, 68
4, 24431, Note_on_c, 1, 67, 0
4, 24432, Note_on_c, 1, 64, 67
4, 24455, Note_on_c, 1, 64, 0
4, 24456, Note_on_c, 1, 67, 66
4, 24479, Note_on_c, 1, 67, 0
4, 24480, Note_on_c, 1, 64, 65
4, 24503, Note_on_c, 1, 64, 0
4, 24504, Note_on_c, 1, 67, 64
4, 24527, Note_on_c, 1, 67, 0
4, 24528, Note_on_c, 1, 64, 64
4, 24551, Note_on_c, 1, 64, 0
4, 24552, Note_on_c, 1, 67, 64
4, 24575, Note_on_c, 1, 67, 0
4, 24576, Note_on_c, 1, 65, 64
4, 24576, Note_on_c, 1, 62, 64
4, 24599, Note_on_c, 1, 65, 0
4, 24599, Note_on_c, 1, 62, 0
4, 24600, Note_on_c, 1, 67, 64
4, 24623, Note_on_c, 1, 67, 0
4, 24624, Note_on_c, 1, 65, 64
4, 24624, Note_on_c, 1, 62, 64
4, 24647, Note_on_c, 1, 65, 0
4, 24647, Note_on_c, 1, 62, 0
4, 24648, Note_on_c, 1, 67, 64
4, 24671, Note_on_c, 1, 67, 0
4, 24672, Note_on_c, 1, 65, 64
4, 24672, Note_on_c, 1, 62, 64
4, 24695, Note_on_c, 1, 65, 0
4, 24695, Note_on_c, 1, 62, 0
4, 24696, Note_on_c, 1, 67, 64
4, 24719, Note_on_c, 1, 67, 0
4, 24720, Note_on_c, 1, 65, 64
4, 24720, Note_on_c, 1, 62, 64
4, 24743, Note_on_c, 1, 65, 0
4, 24743, Note_on_c, 1, 62, 0
4, 24744, Note_on_c, 1, 67, 64
4, 24767, Note_on_c, 1, 67, 0
4, 24768, Note_on_c, 1, 64, 64
4, 24791, Note_on_c, 1, 64, 0
4, 24792, Note_on_c, 1, 67, 65
4, 24815, Note_on_c, 1, 67, 0
4, 24816, Note_on_c, 1, 64, 66
4, 24839, Note_on_c, 1, 64, 0
4, 24840, Note_on_c, 1, 67, 67
4, 24863, Note_on_c, 1, 67, 0
4, 24864, Note_on_c, 1, 64, 68
4, 24887, Note_on_c, 1, 64, 0
4, 24888, Note_on_c, 1, 67, 70
4, 24911, Note_on_c, 1, 67, 0
4, 24912, Note_on_c, 1, 64, 70
4, 24935, Note_on_c, 1, 64, 0
4, 24936, Note_on_c, 1, 67, 70
4, 24959, Note_on_c, 1, 67, 0
4, 24960, Note_on_c, 1, 65, 70
4, 24960, Note_on_c, 1, 62, 70
4, 24983, Note_on_c, 1, 65, 0
4, 24983, Note_on_c, 1, 62, 0
4, 24984, Note_on_c, 1, 67, 70
4, 25007, Note_on_c, 1, 67, 0
4, 25008, Note_on_c, 1, 65, 70
4, 25008, Note_on_c, 1, 62, 70
4, 25031, Note_on_c, 1, 65, 0
4, 25031, Note_on_c, 1, 62, 0
4, 25032, Note_on_c, 1, 67, 70
4, 25055, Note_on_c, 1, 67, 0
4, 25056, Note_on_c, 1, 65, 70
4, 25056, Note_on_c, 1, 62, 70
4, 25079, Note_on_c, 1, 65, 0
4, 25079, Note_on_c, 1, 62, 0
4, 25080, Note_on_c, 1, 67, 70
4, 25103, Note_on_c, 1, 67, 0
4, 25104, Note_on_c, 1, 65, 70
4, 25104, Note_on_c, 1, 62, 70
4, 25127, Note_on_c, 1, 65, 0
4, 25127, Note_on_c, 1, 62, 0
4, 25128, Note_on_c, 1, 67, 70
4, 25151, Note_on_c, 1, 67, 0
4, 25152, Note_on_c, 1, 64, 70
4, 25175, Note_on_c, 1, 64, 0
4, 25176, Note_on_c, 1, 67, 70
4, 25199, Note_on_c, 1, 67, 0
4, 25200, Note_on_c, 1, 64, 70
4, 25223, Note_on_c, 1, 64, 0
4, 25224, Note_on_c, 1, 67, 70
4, 25247, Note_on_c, 1, 67, 0
4, 25248, Note_on_c, 1, 62, 70
4, 25271, Note_on_c, 1, 62, 0
4, 25272, Note_on_c, 1, 67, 70
4, 25295, Note_on_c, 1, 67, 0
4, 25296, Note_on_c, 1, 62, 70
4, 25319, Note_on_c, 1, 62, 0
4, 25320, Note_on_c, 1, 67, 70
4, 25343, Note_on_c, 1, 67, 0
4, 25344, Note_on_c, 1, 64, 70
4, 25367, Note_on_c, 1, 64, 0
4, 25368, Note_on_c, 1, 67, 70
4, 25391, Note_on_c, 1, 67, 0
4, 25392, Note_on_c, 1, 64, 70
4, 25415, Note_on_c, 1, 64, 0
4, 25416, Note_on_c, 1, 67, 70
4, 25439, Note_on_c, 1, 67, 0
4, 25440, Note_on_c, 1, 65, 70
4, 25463, Note_on_c, 1, 65, 0
4, 25464, Note_on_c, 1, 67, 70
4, 25487, Note_on_c, 1, 67, 0
4, 25488, Note_on_c, 1, 65, 70
4, 25511, Note_on_c, 1, 65, 0
4, 25512, Note_on_c, 1, 67, 70
4, 25535, Note_on_c, 1, 67, 0
4, 25536, Note_on_c, 1, 64, 70
4, 25559, Note_on_c, 1, 64, 0
4, 25560, Note_on_c, 1, 67, 70
4, 25583, Note_on_c, 1, 67, 0
4, 25584, Note_on_c, 1, 64, 71
4, 25607, Note_on_c, 1, 64, 0
4, 25608, Note_on_c, 1, 67, 71
4, 25631, Note_on_c, 1, 67, 0
4, 25632, Note_on_c, 1, 62, 72
4, 25655, Note_on_c, 1, 62, 0
4, 25656, Note_on_c, 1, 67, 73
4, 25679, Note_on_c, 1, 67, 0
4, 25680, Note_on_c, 1, 62, 73
4, 25703, Note_on_c, 1, 62, 0
4, 25704, Note_on_c, 1, 67, 74
4, 25727, Note_on_c, 1, 67, 0
4, 25752, Note_on_c, 1, 60, 80
4, 25775, Note_on_c, 1, 60, 0
4, 25776, Note_on_c, 1, 64, 80
4, 25799, Note_on_c, 1, 64, 0
4, 25800, Note_on_c, 1, 67, 80
4, 25823, Note_on_c, 1, 67, 0
4, 25824, Note_on_c, 1, 72, 80
4, 25844, Note_on_c, 1, 72, 0
4, 26136, Note_on_c, 1, 61, 80
4, 26159, Note_on_c, 1, 61, 0
4, 26160, Note_on_c, 1, 62, 80
4, 26183, Note_on_c, 1, 62, 0
4, 26184, Note_on_c, 1, 64, 80
4, 26207, Note_on_c, 1, 64, 0
4, 26208, Note_on_c, 1, 65, 80
4, 26231, Note_on_c, 1, 65, 0
4, 26232, Note_on_c, 1, 64, 80
4, 26255, Note_on_c, 1, 64, 0
4, 26256, Note_on_c, 1, 65, 80
4, 26279, Note_on_c, 1, 65, 0
4, 26280, Note_on_c, 1, 66, 80
4, 26303, Note_on_c, 1, 66, 0
4, 26304, Note_on_c, 1, 67, 80
4, 26327, Note_on_c, 1, 67, 0
4, 26328, Note_on_c, 1, 55, 80
4, 26351, Note_on_c, 1, 55, 0
4, 26352, Note_on_c, 1, 67, 80
4, 26375, Note_on_c, 1, 67, 0
4, 26520, Note_on_c, 1, 67, 80
4, 26544, Note_on_c, 1, 67, 0
4, 26544, Note_on_c, 1, 55, 80
4, 26589, Note_on_c, 1, 55, 0
4, 26616, Note_on_c, 1, 67, 80
4, 26640, Note_on_c, 1, 67, 0
4, 26640, Note_on_c, 1, 55, 80
4, 26685, Note_on_c, 1, 55, 0
4, 26712, Note_on_c, 1, 67, 80
4, 26736, Note_on_c, 1, 67, 0
4, 26736, Note_on_c, 1, 55, 80
4, 26781, Note_on_c, 1, 55, 0
4, 26904, Note_on_c, 1, 67, 80
4, 26928, Note_on_c, 1, 67, 0
4, 26928, Note_on_c, 1, 55, 80
4, 26973, Note_on_c, 1, 55, 0
4, 27000, Note_on_c, 1, 67, 80
4, 27024, Note_on_c, 1, 67, 0
4, 27024, Note_on_c, 1, 55, 80
4, 27069, Note_on_c, 1, 55, 0
4, 27096, Note_on_c, 1, 67, 80
4, 27120, Note_on_c, 1, 67, 0
4, 27120, Note_on_c, 1, 55, 80
4, 27165, Note_on_c, 1, 55, 0
4, 27336, Note_on_c, 1, 42, 64
4, 27359, Note_on_c, 1, 42, 0
4, 27360, Note_on_c, 1, 43, 64
4, 27383, Note_on_c, 1, 43, 0
4, 27384, Note_on_c, 1, 42, 64
4, 27407, Note_on_c, 1, 42, 0
4, 27408, Note_on_c, 1, 43, 64
4, 27431, Note_on_c, 1, 43, 0
4, 27432, Note_on_c, 1, 42, 64
4, 27455, Note_on_c, 1, 42, 0
4, 27456, Note_on_c, 1, 43, 64
4, 27501, Note_on_c, 1, 43, 0
4, 27648, Note_on_c, 1, 55, 80
4, 27648, Note_on_c, 1, 43, 80
4, 27693, Note_on_c, 1, 55, 0
4, 27693, Note_on_c, 1, 43, 0
4, 27744, Note_on_c, 1, 50, 80
4, 27744, Note_on_c, 1, 38, 80
4, 27789, Note_on_c, 1, 50, 0
4, 27789, Note_on_c, 1, 38, 0
4, 27840, Note_on_c, 1, 47, 80
4, 27840, Note_on_c, 1, 35, 80
4, 27885, Note_on_c, 1, 47, 0
4, 27885, Note_on_c, 1, 35, 0
4, 27984, Note_on_c, 1, 52, 80
4, 27984, Note_on_c, 1, 40, 80
4, 28029, Note_on_c, 1, 52, 0
4, 28029, Note_on_c, 1, 40, 0
4, 28032, Note_on_c, 1, 45, 80
4, 28032, Note_on_c, 1, 33, 80
4, 28077, Note_on_c, 1, 45, 0
4, 28077, Note_on_c, 1, 33, 0
4, 28176, Note_on_c, 1, 50, 80
4, 28176, Note_on_c, 1, 38, 80
4, 28221, Note_on_c, 1, 50, 0
4, 28221, Note_on_c, 1, 38, 0
4, 28224, Note_on_c, 1, 43, 80
4, 28224, Note_on_c, 1, 31, 80
4, 28313, Note_on_c, 1, 43, 0
4, 28313, Note_on_c, 1, 31, 0
4, 28368, Note_on_c, 1, 64, 80
4, 28416, Note_on_c, 1, 64, 0
4, 28416, Note_on_c, 1, 54, 80
4, 28461, Note_on_c, 1, 54, 0
4, 28560, Note_on_c, 1, 62, 80
4, 28608, Note_on_c, 1, 62, 0
4, 28608, Note_on_c, 1, 52, 80
4, 28653, Note_on_c, 1, 52, 0
4, 28752, Note_on_c, 1, 60, 80
4, 28889, Note_on_c, 1, 60, 0
4, 28896, Note_on_c, 1, 59, 80
4, 28985, Note_on_c, 1, 59, 0
4, 28992, Note_on_c, 1, 54, 80
4, 29081, Note_on_c, 1, 54, 0
4, 29088, Note_on_c, 1, 55, 80
4, 29177, Note_on_c, 1, 55, 0
4, 29184, Note_on_c, 1, 61, 80
4, 29184, Note_on_c, 1, 55, 80
4, 29184, Note_on_c, 1, 52, 80
4, 29184, Note_on_c, 1, 50, 80
4, 29361, Note_on_c, 1, 61, 0
4, 29361, Note_on_c, 1, 55, 0
4, 29361, Note_on_c, 1, 52, 0
4, 29361, Note_on_c, 1, 50, 0
4, 29592, Note_on_c, 1, 38, 80
4, 29615, Note_on_c, 1, 38, 0
4, 29616, Note_on_c, 1, 45, 80
4, 29639, Note_on_c, 1, 45, 0
4, 29640, Note_on_c, 1, 49, 80
4, 29663, Note_on_c, 1, 49, 0
4, 29664, Note_on_c, 1, 50, 80
4, 29687, Note_on_c, 1, 50, 0
4, 29688, Note_on_c, 1, 49, 80
4, 29711, Note_on_c, 1, 49, 0
4, 29712, Note_on_c, 1, 50, 80
4, 29735, Note_on_c, 1, 50, 0
4, 29736, Note_on_c, 1, 49, 80
4, 29759, Note_on_c, 1, 49, 0
4, 29760, Note_on_c, 1, 50, 80
4, 29849, Note_on_c, 1, 50, 0
4, 30744, Note_on_c, 1, 62, 80
4, 30767, Note_on_c, 1, 62, 0
4, 30768, Note_on_c, 1, 66, 80
4, 30791, Note_on_c, 1, 66, 0
4, 30792, Note_on_c, 1, 69, 80
4, 30815, Note_on_c, 1, 69, 0
4, 30816, Note_on_c, 1, 72, 80
4, 30861, Note_on_c, 1, 72, 0
4, 31512, Note_on_c, 1, 43, 80
4, 31535, Note_on_c, 1, 43, 0
4, 31536, Note_on_c, 1, 45, 80
4, 31559, Note_on_c, 1, 45, 0
4, 31560, Note_on_c, 1, 47, 80
4, 31583, Note_on_c, 1, 47, 0
4, 31584, Note_on_c, 1, 48, 80
4, 31607, Note_on_c, 1, 48, 0
4, 31608, Note_on_c, 1, 50, 80
4, 31631, Note_on_c, 1, 50, 0
4, 31632, Note_on_c, 1, 52, 80
4, 31655, Note_on_c, 1, 52, 0
4, 31656, Note_on_c, 1, 54, 80
4, 31679, Note_on_c, 1, 54, 0
4, 31680, Note_on_c, 1, 55, 80
4, 31703, Note_on_c, 1, 55, 0
4, 31704, Note_on_c, 1, 54, 80
4, 31727, Note_on_c, 1, 54, 0
4, 31728, Note_on_c, 1, 55, 80
4, 31751, Note_on_c, 1, 55, 0
4, 31752, Note_on_c, 1, 57, 80
4, 31775, Note_on_c, 1, 57, 0
4, 31776, Note_on_c, 1, 59, 80
4, 31821, Note_on_c, 1, 59, 0
4, 31896, Note_on_c, 1, 67, 80
4, 31919, Note_on_c, 1, 67, 0
4, 31920, Note_on_c, 1, 66, 80
4, 31943, Note_on_c, 1, 66, 0
4, 31944, Note_on_c, 1, 64, 80
4, 31967, Note_on_c, 1, 64, 0
4, 31968, Note_on_c, 1, 66, 80
4, 32013, Note_on_c, 1, 66, 0
4, 32088, Note_on_c, 1, 66, 80
4, 32111, Note_on_c, 1, 66, 0
4, 32112, Note_on_c, 1, 64, 80
4, 32135, Note_on_c, 1, 64, 0
4, 32136, Note_on_c, 1, 63, 80
4, 32159, Note_on_c, 1, 63, 0
4, 32160, Note_on_c, 1, 64, 80
4, 32205, Note_on_c, 1, 64, 0
4, 32304, Note_on_c, 1, 69, 80
4, 32304, Note_on_c, 1, 66, 80
4, 32324, Note_on_c, 1, 69, 0
4, 32324, Note_on_c, 1, 66, 0
4, 32352, Note_on_c, 1, 74, 80
4, 32352, Note_on_c, 1, 71, 80
4, 32372, Note_on_c, 1, 74, 0
4, 32372, Note_on_c, 1, 71, 0
4, 32472, Note_on_c, 1, 67, 80
4, 32472, Note_on_c, 1, 64, 80
4, 32495, Note_on_c, 1, 67, 0
4, 32495, Note_on_c, 1, 64, 0
4, 32496, Note_on_c, 1, 69, 80
4, 32496, Note_on_c, 1, 66, 80
4, 32519, Note_on_c, 1, 69, 0
4, 32519, Note_on_c, 1, 66, 0
4, 32520, Note_on_c, 1, 71, 80
4, 32520, Note_on_c, 1, 67, 80
4, 32543, Note_on_c, 1, 71, 0
4, 32543, Note_on_c, 1, 67, 0
4, 32544, Note_on_c, 1, 72, 80
4, 32544, Note_on_c, 1, 69, 80
4, 32564, Note_on_c, 1, 72, 0
4, 32564, Note_on_c, 1, 69, 0
4, 32688, Note_on_c, 1, 66, 80
4, 32733, Note_on_c, 1, 66, 0
4, 32736, Note_on_c, 1, 67, 80
4, 32869, Note_on_c, 1, 67, 0
4, 32880, Note_on_c, 1, 72, 80
4, 32925, Note_on_c, 1, 72, 0
4, 32928, Note_on_c, 1, 71, 80
4, 32973, Note_on_c, 1, 71, 0
4, 32976, Note_on_c, 1, 69, 80
4, 33021, Note_on_c, 1, 69, 0
4, 33024, Control_c, 1, 64, 127
4, 33024, Note_on_c, 1, 55, 64
4, 33047, Note_on_c, 1, 55, 0
4, 33048, Note_on_c, 1, 67, 64
4, 33071, Note_on_c, 1, 67, 0
4, 33072, Note_on_c, 1, 55, 64
4, 33095, Note_on_c, 1, 55, 0
4, 33096, Note_on_c, 1, 67, 64
4, 33119, Note_on_c, 1, 67, 0
4, 33120, Note_on_c, 1, 55, 64
4, 33143, Note_on_c, 1, 55, 0
4, 33144, Note_on_c, 1, 67, 64
4, 33167, Note_on_c, 1, 67, 0
4, 33168, Note_on_c, 1, 55, 64
4, 33191, Note_on_c, 1, 55, 0
4, 33192, Note_on_c, 1, 67, 64
4, 33215, Note_on_c, 1, 67, 0
4, 33216, Note_on_c, 1, 55, 64
4, 33239, Note_on_c, 1, 55, 0
4, 33240, Note_on_c, 1, 67, 64
4, 33263, Note_on_c, 1, 67, 0
4, 33264, Note_on_c, 1, 55, 64
4, 33287, Note_on_c, 1, 55, 0
4, 33288, Note_on_c, 1, 67, 64
4, 33311, Note_on_c, 1, 67, 0
4, 33312, Note_on_c, 1, 55, 64
4, 33335, Note_on_c, 1, 55, 0
4, 33336, Note_on_c, 1, 67, 64
4, 33359, Note_on_c, 1, 67, 0
4, 33360, Note_on_c, 1, 55, 64
4, 33383, Note_on_c, 1, 55, 0
4, 33384, Note_on_c, 1, 67, 64
4, 33407, Note_on_c, 1, 67, 0
4, 33408, Note_on_c, 1, 55, 64
4, 33431, Note_on_c, 1, 55, 0
4, 33432, Note_on_c, 1, 67, 64
4, 33455, Note_on_c, 1, 67, 0
4, 33456, Note_on_c, 1, 55, 64
4, 33479, Note_on_c, 1, 55, 0
4, 33480, Note_on_c, 1, 67, 64
4, 33503, Note_on_c, 1, 67, 0
4, 33504, Note_on_c, 1, 55, 64
4, 33527, Note_on_c, 1, 55, 0
4, 33528, Note_on_c, 1, 67, 64
4, 33551, Note_on_c, 1, 67, 0
4, 33552, Note_on_c, 1, 55, 64
4, 33575, Note_on_c, 1, 55, 0
4, 33576, Note_on_c, 1, 67, 64
4, 33599, Note_on_c, 1, 67, 0
4, 33600, Note_on_c, 1, 55, 64
4, 33623, Note_on_c, 1, 55, 0
4, 33624, Note_on_c, 1, 67, 64
4, 33647, Note_on_c, 1, 67, 0
4, 33648, Note_on_c, 1, 55, 64
4, 33671, Note_on_c, 1, 55, 0
4, 33672, Note_on_c, 1, 67, 64
4, 33695, Note_on_c, 1, 67, 0
4, 33696, Note_on_c, 1, 55, 64
4, 33719, Note_on_c, 1, 55, 0
4, 33720, Note_on_c, 1, 67, 64
4, 33743, Note_on_c, 1, 67, 0
4, 33744, Note_on_c, 1, 55, 64
4, 33767, Note_on_c, 1, 55, 0
4, 33768, Note_on_c, 1, 67, 64
4, 33791, Note_on_c, 1, 67, 0
4, 33792, Note_on_c, 1, 55, 64
4, 33815, Note_on_c, 1, 55, 0
4, 33816, Note_on_c, 1, 67, 64
4, 33839, Note_on_c, 1, 67, 0
4, 33840, Note_on_c, 1, 55, 64
4, 33863, Note_on_c, 1, 55, 0
4, 33864, Note_on_c, 1, 67, 64
4, 33887, Note_on_c, 1, 67, 0
4, 33888, Note_on_c, 1, 55, 64
4, 33911, Note_on_c, 1, 55, 0
4, 33912, Note_on_c, 1, 67, 64
4, 33935, Note_on_c, 1, 67, 0
4, 33936, Note_on_c, 1, 55, 64
4, 33959, Note_on_c, 1, 55, 0
4, 33960, Note_on_c, 1, 67, 64
4, 33983, Note_on_c, 1, 67, 0
4, 33984, Note_on_c, 1, 55, 64
4, 34007, Note_on_c, 1, 55, 0
4, 34008, Note_on_c, 1, 67, 64
4, 34031, Note_on_c, 1, 67, 0
4, 34032, Note_on_c, 1, 55, 64
4, 34055, Note_on_c, 1, 55, 0
4, 34056, Note_on_c, 1, 67, 64
4, 34079, Note_on_c, 1, 67, 0
4, 34080, Note_on_c, 1, 55, 64
4, 34103, Note_on_c, 1, 55, 0
4, 34104, Note_on_c, 1, 67, 64
4, 34127, Note_on_c, 1, 67, 0
4, 34128, Note_on_c, 1, 55, 64
4, 34151, Note_on_c, 1, 55, 0
4, 34152, Note_on_c, 1, 67, 64
4, 34175, Note_on_c, 1, 67, 0
4, 34176, Note_on_c, 1, 55, 64
4, 34199, Note_on_c, 1, 55, 0
4, 34200, Note_on_c, 1, 67, 64
4, 34223, Note_on_c, 1, 67, 0
4, 34224, Note_on_c, 1, 55, 64
4, 34247, Note_on_c, 1, 55, 0
4, 34248, Note_on_c, 1, 67, 64
4, 34271, Note_on_c, 1, 67, 0
4, 34272, Note_on_c, 1, 55, 64
4, 34295, Note_on_c, 1, 55, 0
4, 34296, Note_on_c, 1, 67, 64
4, 34319, Note_on_c, 1, 67, 0
4, 34320, Note_on_c, 1, 55, 64
4, 34343, Note_on_c, 1, 55, 0
4, 34344, Note_on_c, 1, 67, 64
4, 34367, Note_on_c, 1, 67, 0
4, 34368, Note_on_c, 1, 55, 64
4, 34391, Note_on_c, 1, 55, 0
4, 34392, Note_on_c, 1, 65, 64
4, 34415, Note_on_c, 1, 65, 0
4, 34416, Note_on_c, 1, 55, 64
4, 34439, Note_on_c, 1, 55, 0
4, 34440, Note_on_c, 1, 65, 64
4, 34463, Note_on_c, 1, 65, 0
4, 34464, Note_on_c, 1, 55, 64
4, 34487, Note_on_c, 1, 55, 0
4, 34488, Note_on_c, 1, 65, 64
4, 34511, Note_on_c, 1, 65, 0
4, 34512, Note_on_c, 1, 55, 64
4, 34535, Note_on_c, 1, 55, 0
4, 34536, Control_c, 1, 64, 0
4, 34536, Note_on_c, 1, 65, 64
4, 34559, Note_on_c, 1, 65, 0
4, 34560, Control_c, 1, 64, 127
4, 34560, Note_on_c, 1, 55, 64
4, 34583, Note_on_c, 1, 55, 0
4, 34584, Note_on_c, 1, 63, 64
4, 34607, Note_on_c, 1, 63, 0
4, 34608, Note_on_c, 1, 55, 64
4, 34631, Note_on_c, 1, 55, 0
4, 34632, Note_on_c, 1, 63, 64
4, 34655, Note_on_c, 1, 63, 0
4, 34656, Note_on_c, 1, 55, 64
4, 34679, Note_on_c, 1, 55, 0
4, 34680, Note_on_c, 1, 63, 64
4, 34703, Note_on_c, 1, 63, 0
4, 34704, Note_on_c, 1, 55, 64
4, 34727, Note_on_c, 1, 55, 0
4, 34728, Control_c, 1, 64, 0
4, 34728, Note_on_c, 1, 63, 64
4, 34751, Note_on_c, 1, 63, 0
4, 34752, Control_c, 1, 64, 127
4, 34752, Note_on_c, 1, 57, 82
4, 34775, Note_on_c, 1, 57, 0
4, 34776, Note_on_c, 1, 63, 64
4, 34799, Note_on_c, 1, 63, 0
4, 34800, Note_on_c, 1, 57, 64
4, 34823, Note_on_c, 1, 57, 0
4, 34824, Note_on_c, 1, 63, 64
4, 34847, Note_on_c, 1, 63, 0
4, 34848, Note_on_c, 1, 57, 64
4, 34871, Note_on_c, 1, 57, 0
4, 34872, Note_on_c, 1, 63, 64
4, 34895, Note_on_c, 1, 63, 0
4, 34896, Note_on_c, 1, 57, 64
4, 34919, Note_on_c, 1, 57, 0
4, 34920, Control_c, 1, 64, 0
4, 34920, Note_on_c, 1, 63, 64
4, 34943, Note_on_c, 1, 63, 0
4, 34944, Control_c, 1, 64, 127
4, 34944, Note_on_c, 1, 59, 64
4, 34967, Note_on_c, 1, 59, 0
4, 34968, Note_on_c, 1, 62, 64
4, 34991, Note_on_c, 1, 62, 0
4, 34992, Note_on_c, 1, 59, 64
4, 35015, Note_on_c, 1, 59, 0
4, 35016, Note_on_c, 1, 62, 64
4, 35039, Note_on_c, 1, 62, 0
4, 35040, Note_on_c, 1, 59, 64
4, 35063, Note_on_c, 1, 59, 0
4, 35064, Note_on_c, 1, 67, 64
4, 35087, Note_on_c, 1, 67, 0
4, 35088, Note_on_c, 1, 59, 64
4, 35111, Note_on_c, 1, 59, 0
4, 35112, Control_c, 1, 64, 0
4, 35112, Note_on_c, 1, 67, 64
4, 35135, Note_on_c, 1, 67, 0
4, 35136, Control_c, 1, 64, 127
4, 35136, Note_on_c, 1, 60, 64
4, 35159, Note_on_c, 1, 60, 0
4, 35160, Note_on_c, 1, 67, 64
4, 35183, Note_on_c, 1, 67, 0
4, 35184, Note_on_c, 1, 60, 64
4, 35207, Note_on_c, 1, 60, 0
4, 35208, Note_on_c, 1, 67, 64
4, 35231, Note_on_c, 1, 67, 0
4, 35232, Note_on_c, 1, 60, 64
4, 35255, Note_on_c, 1, 60, 0
4, 35256, Note_on_c, 1, 68, 64
4, 35279, Note_on_c, 1, 68, 0
4, 35280, Note_on_c, 1, 60, 64
4, 35303, Note_on_c, 1, 60, 0
4, 35304, Control_c, 1, 64, 0
4, 35304, Note_on_c, 1, 68, 64
4, 35327, Note_on_c, 1, 68, 0
4, 35328, Control_c, 1, 64, 127
4, 35328, Note_on_c, 1, 60, 64
4, 35351, Note_on_c, 1, 60, 0
4, 35352, Note_on_c, 1, 69, 64
4, 35375, Note_on_c, 1, 69, 0
4, 35376, Note_on_c, 1, 60, 64
4, 35399, Note_on_c, 1, 60, 0
4, 35400, Note_on_c, 1, 69, 64
4, 35423, Note_on_c, 1, 69, 0
4, 35424, Note_on_c, 1, 60, 64
4, 35447, Note_on_c, 1, 60, 0
4, 35448, Note_on_c, 1, 69, 64
4, 35471, Note_on_c, 1, 69, 0
4, 35472, Note_on_c, 1, 60, 64
4, 35495, Note_on_c, 1, 60, 0
4, 35496, Control_c, 1, 64, 0
4, 35496, Note_on_c, 1, 69, 64
4, 35519, Note_on_c, 1, 69, 0
4, 35520, Note_on_c, 1, 61, 82
4, 35543, Note_on_c, 1, 61, 0
4, 35544, Note_on_c, 1, 67, 64
4, 35567, Note_on_c, 1, 67, 0
4, 35568, Note_on_c, 1, 61, 64
4, 35591, Note_on_c, 1, 61, 0
4, 35592, Note_on_c, 1, 67, 64
4, 35615, Note_on_c, 1, 67, 0
4, 35616, Note_on_c, 1, 61, 64
4, 35639, Note_on_c, 1, 61, 0
4, 35640, Note_on_c, 1, 67, 64
4, 35663, Note_on_c, 1, 67, 0
4, 35664, Note_on_c, 1, 61, 64
4, 35687, Note_on_c, 1, 61, 0
4, 35688, Control_c, 1, 64, 0
4, 35688, Note_on_c, 1, 67, 64
4, 35711, Note_on_c, 1, 67, 0
4, 35712, Control_c, 1, 64, 127
4, 35712, Note_on_c, 1, 62, 64
4, 35735, Note_on_c, 1, 62, 0
4, 35736, Note_on_c, 1, 67, 64
4, 35759, Note_on_c, 1, 67, 0
4, 35760, Note_on_c, 1, 62, 64
4, 35783, Note_on_c, 1, 62, 0
4, 35784, Note_on_c, 1, 67, 64
4, 35807, Note_on_c, 1, 67, 0
4, 35808, Note_on_c, 1, 62, 64
4, 35831, Note_on_c, 1, 62, 0
4, 35832, Note_on_c, 1, 67, 64
4, 35855, Note_on_c, 1, 67, 0
4, 35856, Note_on_c, 1, 62, 64
4, 35879, Note_on_c, 1, 62, 0
4, 35880, Control_c, 1, 64, 0
4, 35880, Note_on_c, 1, 67, 64
4, 35903, Note_on_c, 1, 67, 0
4, 35904, Control_c, 1, 64, 127
4, 35904, Note_on_c, 1, 62, 64
4, 35927, Note_on_c, 1, 62, 0
4, 35928, Note_on_c, 1, 66, 64
4, 35951, Note_on_c, 1, 66, 0
4, 35952, Note_on_c, 1, 62, 64
4, 35975, Note_on_c, 1, 62, 0
4, 35976, Note_on_c, 1, 66, 64
4, 35999, Note_on_c, 1, 66, 0
4, 36000, Note_on_c, 1, 62, 64
4, 36023, Note_on_c, 1, 62, 0
4, 36024, Note_on_c, 1, 66, 64
4, 36047, Note_on_c, 1, 66, 0
4, 36048, Note_on_c, 1, 62, 64
4, 36071, Note_on_c, 1, 62, 0
4, 36072, Control_c, 1, 64, 0
4, 36072, Note_on_c, 1, 66, 64
4, 36095, Note_on_c, 1, 66, 0
4, 36096, Note_on_c, 1, 67, 64
4, 36141, Note_on_c, 1, 67, 0
4, 36144, Note_on_c, 1, 55, 80
4, 36152, Note_on_c, 1, 59, 80
4, 36160, Note_on_c, 1, 62, 80
4, 36189, Note_on_c, 1, 62, 0
4, 36189, Note_on_c, 1, 59, 0
4, 36189, Note_on_c, 1, 55, 0
4, 36192, Note_on_c, 1, 54, 80
4, 36200, Note_on_c, 1, 57, 80
4, 36208, Note_on_c, 1, 62, 80
4, 36237, Note_on_c, 1, 62, 0
4, 36237, Note_on_c, 1, 57, 0
4, 36237, Note_on_c, 1, 54, 0
4, 36240, Note_on_c, 1, 55, 80
4, 36248, Note_on_c, 1, 59, 80
4, 36256, Note_on_c, 1, 62, 80
4, 36285, Note_on_c, 1, 62, 0
4, 36285, Note_on_c, 1, 59, 0
4, 36285, Note_on_c, 1, 55, 0
4, 36288, Note_on_c, 1, 60, 80
4, 36288, Note_on_c, 1, 48, 80
4, 36333, Note_on_c, 1, 60, 0
4, 36333, Note_on_c, 1, 48, 0
4, 36384, Note_on_c, 1, 66, 64
4, 36432, Note_on_c, 1, 66, 0
4, 36432, Note_on_c, 1, 62, 64
4, 36477, Note_on_c, 1, 62, 0
4, 36480, Note_on_c, 1, 67, 64
4, 36525, Note_on_c, 1, 67, 0
4, 36528, Note_on_c, 1, 55, 80
4, 36536, Note_on_c, 1, 59, 80
4, 36544, Note_on_c, 1, 62, 80
4, 36573, Note_on_c, 1, 62, 0
4, 36573, Note_on_c, 1, 59, 0
4, 36573, Note_on_c, 1, 55, 0
4, 36576, Note_on_c, 1, 54, 80
4, 36584, Note_on_c, 1, 57, 80
4, 36592, Note_on_c, 1, 62, 80
4, 36621, Note_on_c, 1, 62, 0
4, 36621, Note_on_c, 1, 57, 0
4, 36621, Note_on_c, 1, 54, 0
4, 36624, Note_on_c, 1, 55, 80
4, 36632, Note_on_c, 1, 59, 80
4, 36640, Note_on_c, 1, 62, 80
4, 36669, Note_on_c, 1, 62, 0
4, 36669, Note_on_c, 1, 59, 0
4, 36669, Note_on_c, 1, 55, 0
4, 36672, Note_on_c, 1, 60, 80
4, 36672, Note_on_c, 1, 48, 80
4, 36717, Note_on_c, 1, 60, 0
4, 36717, Note_on_c, 1, 48, 0
4, 36816, Note_on_c, 1, 57, 80
4, 36816, Note_on_c, 1, 50, 80
4, 36861, Note_on_c, 1, 57, 0
4, 36861, Note_on_c, 1, 50, 0
4, 36864, Note_on_c, 1, 55, 80
4, 36884, Note_on_c, 1, 55, 0
4, 36912, Note_on_c, 1, 55, 80
4, 36927, Note_on_c, 1, 55, 0
4, 36928, Note_on_c, 1, 59, 80
4, 36943, Note_on_c, 1, 59, 0
4, 36944, Note_on_c, 1, 62, 80
4, 36959, Note_on_c, 1, 62, 0
4, 36960, Note_on_c, 1, 54, 80
4, 36975, Note_on_c, 1, 54, 0
4, 36976, Note_on_c, 1, 57, 80
4, 36991, Note_on_c, 1, 57, 0
4, 36992, Note_on_c, 1, 62, 80
4, 37007, Note_on_c, 1, 62, 0
4, 37008, Note_on_c, 1, 55, 80
4, 37023, Note_on_c, 1, 55, 0
4, 37024, Note_on_c, 1, 59, 80
4, 37039, Note_on_c, 1, 59, 0
4, 37040, Note_on_c, 1, 62, 80
4, 37055, Note_on_c, 1, 62, 0
4, 37056, Note_on_c, 1, 48, 80
4, 37076, Note_on_c, 1, 48, 0
4, 37152, Note_on_c, 1, 64, 80
4, 37152, Note_on_c, 1, 60, 80
4, 37172, Note_on_c, 1, 64, 0
4, 37172, Note_on_c, 1, 60, 0
4, 37248, Note_on_c, 1, 64, 80
4, 37248, Note_on_c, 1, 60, 80
4, 37268, Note_on_c, 1, 64, 0
4, 37268, Note_on_c, 1, 60, 0
4, 37344, Note_on_c, 1, 64, 76
4, 37344, Note_on_c, 1, 60, 76
4, 37364, Note_on_c, 1, 64, 0
4, 37364, Note_on_c, 1, 60, 0
4, 37440, Note_on_c, 1, 64, 72
4, 37440, Note_on_c, 1, 60, 72
4, 37460, Note_on_c, 1, 64, 0
4, 37460, Note_on_c, 1, 60, 0
4, 37536, Note_on_c, 1, 64, 68
4, 37536, Note_on_c, 1, 60, 68
4, 37556, Note_on_c, 1, 64, 0
4, 37556, Note_on_c, 1, 60, 0
4, 37632, Note_on_c, 1, 59, 64
4, 37632, Note_on_c, 1, 55, 64
4, 37632, Note_on_c, 1, 50, 64
4, 37726, Note_on_c, 1, 59, 0
4, 37726, Note_on_c, 1, 55, 0
4, 37726, Note_on_c, 1, 50, 0
4, 37824, Note_on_c, 1, 50, 79
4, 37839, Note_on_c, 1, 50, 0
4, 37840, Note_on_c, 1, 54, 80
4, 37855, Note_on_c, 1, 54, 0
4, 37856, Note_on_c, 1, 57, 80
4, 37871, Note_on_c, 1, 57, 0
4, 37872, Note_on_c, 1, 62, 80
4, 37887, Note_on_c, 1, 62, 0
4, 37888, Note_on_c, 1, 66, 80
4, 37903, Note_on_c, 1, 66, 0
4, 37904, Note_on_c, 1, 69, 80
4, 37919, Note_on_c, 1, 69, 0
4, 37920, Note_on_c, 1, 72, 80
4, 37940, Note_on_c, 1, 72, 0
4, 38016, Note_on_c, 1, 59, 64
4, 38039, Note_on_c, 1, 59, 0
4, 38040, Note_on_c, 1, 62, 64
4, 38063, Note_on_c, 1, 62, 0
4, 38064, Note_on_c, 1, 59, 64
4, 38087, Note_on_c, 1, 59, 0
4, 38088, Note_on_c, 1, 62, 64
4, 38111, Note_on_c, 1, 62, 0
4, 38112, Note_on_c, 1, 59, 64
4, 38135, Note_on_c, 1, 59, 0
4, 38136, Note_on_c, 1, 62, 64
4, 38159, Note_on_c, 1, 62, 0
4, 38160, Note_on_c, 1, 59, 64
4, 38183, Note_on_c, 1, 59, 0
4, 38184, Note_on_c, 1, 62, 64
4, 38207, Note_on_c, 1, 62, 0
4, 38208, Note_on_c, 1, 59, 64
4, 38231, Note_on_c, 1, 59, 0
4, 38232, Note_on_c, 1, 62, 64
4, 38255, Note_on_c, 1, 62, 0
4, 38256, Note_on_c, 1, 59, 64
4, 38279, Note_on_c, 1, 59, 0
4, 38280, Note_on_c, 1, 62, 64
4, 38303, Note_on_c, 1, 62, 0
4, 38304, Note_on_c, 1, 59, 64
4, 38327, Note_on_c, 1, 59, 0
4, 38328, Note_on_c, 1, 62, 64
4, 38351, Note_on_c, 1, 62, 0
4, 38352, Note_on_c, 1, 59, 64
4, 38375, Note_on_c, 1, 59, 0
4, 38376, Note_on_c, 1, 62, 64
4, 38399, Note_on_c, 1, 62, 0
4, 38400, Note_on_c, 1, 60, 64
4, 38423, Note_on_c, 1, 60, 0
4, 38424, Note_on_c, 1, 62, 64
4, 38447, Note_on_c, 1, 62, 0
4, 38448, Note_on_c, 1, 60, 64
4, 38471, Note_on_c, 1, 60, 0
4, 38472, Note_on_c, 1, 62, 64
4, 38495, Note_on_c, 1, 62, 0
4, 38496, Note_on_c, 1, 60, 64
4, 38519, Note_on_c, 1, 60, 0
4, 38520, Note_on_c, 1, 62, 64
4, 38543, Note_on_c, 1, 62, 0
4, 38544, Note_on_c, 1, 60, 64
4, 38567, Note_on_c, 1, 60, 0
4, 38568, Note_on_c, 1, 62, 64
4, 38591, Note_on_c, 1, 62, 0
4, 38592, Note_on_c, 1, 60, 64
4, 38615, Note_on_c, 1, 60, 0
4, 38616, Note_on_c, 1, 62, 64
4, 38639, Note_on_c, 1, 62, 0
4, 38640, Note_on_c, 1, 60, 64
4, 38663, Note_on_c, 1, 60, 0
4, 38664, Note_on_c, 1, 62, 64
4, 38687, Note_on_c, 1, 62, 0
4, 38688, Note_on_c, 1, 60, 64
4, 38711, Note_on_c, 1, 60, 0
4, 38712, Note_on_c, 1, 62, 64
4, 38735, Note_on_c, 1, 62, 0
4, 38736, Note_on_c, 1, 60, 64
4, 38759, Note_on_c, 1, 60, 0
4, 38760, Note_on_c, 1, 62, 64
4, 38783, Note_on_c, 1, 62, 0
4, 38784, Note_on_c, 1, 59, 64
4, 38807, Note_on_c, 1, 59, 0
4, 38808, Note_on_c, 1, 62, 64
4, 38831, Note_on_c, 1, 62, 0
4, 38832, Note_on_c, 1, 59, 64
4, 38855, Note_on_c, 1, 59, 0
4, 38856, Note_on_c, 1, 62, 64
4, 38879, Note_on_c, 1, 62, 0
4, 38880, Note_on_c, 1, 59, 64
4, 38903, Note_on_c, 1, 59, 0
4, 38904, Note_on_c, 1, 62, 64
4, 38927, Note_on_c, 1, 62, 0
4, 38928, Note_on_c, 1, 59, 64
4, 38951, Note_on_c, 1, 59, 0
4, 38952, Note_on_c, 1, 62, 64
4, 38975, Note_on_c, 1, 62, 0
4, 38976, Note_on_c, 1, 59, 64
4, 38999, Note_on_c, 1, 59, 0
4, 39000, Note_on_c, 1, 62, 64
4, 39023, Note_on_c, 1, 62, 0
4, 39024, Note_on_c, 1, 59, 64
4, 39047, Note_on_c, 1, 59, 0
4, 39048, Note_on_c, 1, 62, 64
4, 39071, Note_on_c, 1, 62, 0
4, 39072, Note_on_c, 1, 59, 64
4, 39095, Note_on_c, 1, 59, 0
4, 39096, Note_on_c, 1, 62, 64
4, 39119, Note_on_c, 1, 62, 0
4, 39120, Note_on_c, 1, 59, 64
4, 39143, Note_on_c, 1, 59, 0
4, 39144, Note_on_c, 1, 62, 64
4, 39167, Note_on_c, 1, 62, 0
4, 39168, Note_on_c, 1, 60, 64
4, 39191, Note_on_c, 1, 60, 0
4, 39192, Note_on_c, 1, 62, 64
4, 39215, Note_on_c, 1, 62, 0
4, 39216, Note_on_c, 1, 60, 64
4, 39239, Note_on_c, 1, 60, 0
4, 39240, Note_on_c, 1, 62, 64
4, 39263, Note_on_c, 1, 62, 0
4, 39264, Note_on_c, 1, 60, 64
4, 39287, Note_on_c, 1, 60, 0
4, 39288, Note_on_c, 1, 62, 64
4, 39311, Note_on_c, 1, 62, 0
4, 39312, Note_on_c, 1, 60, 64
4, 39335, Note_on_c, 1, 60, 0
4, 39336, Note_on_c, 1, 62, 64
4, 39359, Note_on_c, 1, 62, 0
4, 39360, Note_on_c, 1, 60, 64
4, 39383, Note_on_c, 1, 60, 0
4, 39384, Note_on_c, 1, 62, 64
4, 39407, Note_on_c, 1, 62, 0
4, 39408, Note_on_c, 1, 60, 64
4, 39431, Note_on_c, 1, 60, 0
4, 39432, Note_on_c, 1, 62, 64
4, 39455, Note_on_c, 1, 62, 0
4, 39456, Note_on_c, 1, 60, 64
4, 39479, Note_on_c, 1, 60, 0
4, 39480, Note_on_c, 1, 62, 64
4, 39503, Note_on_c, 1, 62, 0
4, 39504, Note_on_c, 1, 60, 64
4, 39527, Note_on_c, 1, 60, 0
4, 39528, Note_on_c, 1, 62, 64
4, 39551, Note_on_c, 1, 62, 0
4, 39552, Note_on_c, 1, 59, 64
4, 39552, Note_on_c, 1, 55, 64
4, 39597, Note_on_c, 1, 59, 0
4, 39597, Note_on_c, 1, 55, 0
4, 39792, Note_on_c, 1, 48, 82
4, 39816, Note_on_c, 1, 48, 0
4, 39816, Note_on_c, 1, 45, 64
4, 39839, Note_on_c, 1, 45, 0
4, 39840, Note_on_c, 1, 50, 64
4, 39860, Note_on_c, 1, 50, 0
4, 39888, Note_on_c, 1, 50, 64
4, 39888, Note_on_c, 1, 38, 64
4, 39908, Note_on_c, 1, 50, 0
4, 39908, Note_on_c, 1, 38, 0
4, 39936, Note_on_c, 1, 43, 64
4, 39936, Note_on_c, 1, 31, 64
4, 39981, Note_on_c, 1, 43, 0
4, 39981, Note_on_c, 1, 31, 0
4, 40176, Note_on_c, 1, 48, 82
4, 40200, Note_on_c, 1, 48, 0
4, 40200, Note_on_c, 1, 45, 64
4, 40223, Note_on_c, 1, 45, 0
4, 40224, Note_on_c, 1, 50, 64
4, 40244, Note_on_c, 1, 50, 0
4, 40272, Note_on_c, 1, 50, 64
4, 40272, Note_on_c, 1, 38, 64
4, 40292, Note_on_c, 1, 50, 0
4, 40292, Note_on_c, 1, 38, 0
4, 40320, Note_on_c, 1, 43, 64
4, 40320, Note_on_c, 1, 31, 64
4, 40365, Note_on_c, 1, 43, 0
4, 40365, Note_on_c, 1, 31, 0
4, 40416, Note_on_c, 1, 50, 64
4, 40416, Note_on_c, 1, 38, 64
4, 40461, Note_on_c, 1, 50, 0
4, 40461, Note_on_c, 1, 38, 0
4, 40512, Note_on_c, 1, 43, 64
4, 40512, Note_on_c, 1, 31, 64
4, 40557, Note_on_c, 1, 43, 0
4, 40557, Note_on_c, 1, 31, 0
4, 40704, Note_on_c, 1, 67, 64
4, 40724, Note_on_c, 1, 67, 0
4, 40800, Note_on_c, 1, 62, 64
4, 40820, Note_on_c, 1, 62, 0
4, 40896, Note_on_c, 1, 58, 64
4, 40985, Note_on_c, 1, 58, 0
4, 41040, Note_on_c, 1, 63, 64
4, 41088, Note_on_c, 1, 63, 0
4, 41088, Note_on_c, 1, 57, 64
4, 41177, Note_on_c, 1, 57, 0
4, 41232, Note_on_c, 1, 62, 64
4, 41280, Note_on_c, 1, 62, 0
4, 41280, Note_on_c, 1, 55, 64
4, 41369, Note_on_c, 1, 55, 0
4, 41376, Note_on_c, 1, 58, 64
4, 41465, Note_on_c, 1, 58, 0
4, 41496, Note_on_c, 1, 45, 65
4, 41519, Note_on_c, 1, 45, 0
4, 41520, Note_on_c, 1, 47, 66
4, 41543, Note_on_c, 1, 47, 0
4, 41544, Note_on_c, 1, 49, 68
4, 41567, Note_on_c, 1, 49, 0
4, 41568, Note_on_c, 1, 50, 69
4, 41591, Note_on_c, 1, 50, 0
4, 41592, Note_on_c, 1, 52, 70
4, 41615, Note_on_c, 1, 52, 0
4, 41616, Note_on_c, 1, 54, 72
4, 41639, Note_on_c, 1, 54, 0
4, 41640, Note_on_c, 1, 56, 73
4, 41663, Note_on_c, 1, 56, 0
4, 41664, Note_on_c, 1, 57, 75
4, 41687, Note_on_c, 1, 57, 0
4, 41688, Note_on_c, 1, 56, 73
4, 41711, Note_on_c, 1, 56, 0
4, 41712, Note_on_c, 1, 57, 72
4, 41735, Note_on_c, 1, 57, 0
4, 41736, Note_on_c, 1, 58, 70
4, 41759, Note_on_c, 1, 58, 0
4, 41760, Note_on_c, 1, 57, 69
4, 41783, Note_on_c, 1, 57, 0
4, 41784, Note_on_c, 1, 55, 68
4, 41807, Note_on_c, 1, 55, 0
4, 41808, Note_on_c, 1, 53, 66
4, 41831, Note_on_c, 1, 53, 0
4, 41832, Note_on_c, 1, 52, 65
4, 41855, Note_on_c, 1, 52, 0
4, 41856, Note_on_c, 1, 53, 64
4, 41945, Note_on_c, 1, 53, 0
4, 42000, Note_on_c, 1, 57, 64
4, 42045, Note_on_c, 1, 57, 0
4, 42048, Note_on_c, 1, 69, 64
4, 42071, Note_on_c, 1, 69, 0
4, 42072, Note_on_c, 1, 68, 68
4, 42095, Note_on_c, 1, 68, 0
4, 42096, Note_on_c, 1, 69, 72
4, 42119, Note_on_c, 1, 69, 0
4, 42120, Note_on_c, 1, 70, 76
4, 42143, Note_on_c, 1, 70, 0
4, 42144, Note_on_c, 1, 69, 80
4, 42167, Note_on_c, 1, 69, 0
4, 42168, Note_on_c, 1, 67, 76
4, 42191, Note_on_c, 1, 67, 0
4, 42192, Note_on_c, 1, 65, 72
4, 42215, Note_on_c, 1, 65, 0
4, 42216, Note_on_c, 1, 64, 68
4, 42239, Note_on_c, 1, 64, 0
4, 42240, Note_on_c, 1, 65, 64
4, 42329, Note_on_c, 1, 65, 0
4, 42384, Note_on_c, 1, 61, 64
4, 42429, Note_on_c, 1, 61, 0
4, 42432, Note_on_c, 1, 62, 64
4, 42455, Note_on_c, 1, 62, 0
4, 42456, Note_on_c, 1, 61, 68
4, 42479, Note_on_c, 1, 61, 0
4, 42480, Note_on_c, 1, 62, 72
4, 42503, Note_on_c, 1, 62, 0
4, 42504, Note_on_c, 1, 57, 76
4, 42527, Note_on_c, 1, 57, 0
4, 42528, Note_on_c, 1, 60, 80
4, 42551, Note_on_c, 1, 60, 0
4, 42552, Note_on_c, 1, 59, 76
4, 42575, Note_on_c, 1, 59, 0
4, 42576, Note_on_c, 1, 60, 72
4, 42599, Note_on_c, 1, 60, 0
4, 42600, Note_on_c, 1, 57, 68
4, 42623, Note_on_c, 1, 57, 0
4, 42624, Note_on_c, 1, 58, 64
4, 42672, Note_on_c, 1, 58, 0
4, 42672, Note_on_c, 1, 55, 62
4, 42717, Note_on_c, 1, 55, 0
4, 42720, Note_on_c, 1, 57, 61
4, 42768, Note_on_c, 1, 57, 0
4, 42768, Note_on_c, 1, 54, 59
4, 42813, Note_on_c, 1, 54, 0
4, 42816, Note_on_c, 1, 58, 58
4, 42816, Note_on_c, 1, 55, 58
4, 42905, Note_on_c, 1, 58, 0
4, 42905, Note_on_c, 1, 55, 0
4, 42912, Note_on_c, 1, 57, 58
4, 42912, Note_on_c, 1, 53, 58
4, 43001, Note_on_c, 1, 57, 0
4, 43001, Note_on_c, 1, 53, 0
4, 43008, Note_on_c, 1, 55, 58
4, 43008, Note_on_c, 1, 52, 58
4, 43185, Note_on_c, 1, 55, 0
4, 43185, Note_on_c, 1, 52, 0
4, 43200, Note_on_c, 1, 53, 80
4, 43200, Note_on_c, 1, 41, 80
4, 43289, Note_on_c, 1, 53, 0
4, 43289, Note_on_c, 1, 41, 0
4, 43296, Note_on_c, 1, 48, 80
4, 43296, Note_on_c, 1, 36, 80
4, 43385, Note_on_c, 1, 48, 0
4, 43385, Note_on_c, 1, 36, 0
4, 43392, Note_on_c, 1, 45, 80
4, 43392, Note_on_c, 1, 33, 80
4, 43481, Note_on_c, 1, 45, 0
4, 43481, Note_on_c, 1, 33, 0
4, 43536, Note_on_c, 1, 50, 80
4, 43536, Note_on_c, 1, 38, 80
4, 43581, Note_on_c, 1, 50, 0
4, 43581, Note_on_c, 1, 38, 0
4, 43584, Note_on_c, 1, 43, 80
4, 43584, Note_on_c, 1, 31, 80
4, 43673, Note_on_c, 1, 43, 0
4, 43673, Note_on_c, 1, 31, 0
4, 43728, Note_on_c, 1, 48, 80
4, 43728, Note_on_c, 1, 36, 80
4, 43773, Note_on_c, 1, 48, 0
4, 43773, Note_on_c, 1, 36, 0
4, 43776, Note_on_c, 1, 41, 80
4, 43776, Note_on_c, 1, 29, 80
4, 43821, Note_on_c, 1, 41, 0
4, 43821, Note_on_c, 1, 29, 0
4, 43920, Note_on_c, 1, 69, 64
4, 43968, Note_on_c, 1, 69, 0
4, 43968, Note_on_c, 1, 58, 64
4, 44057, Note_on_c, 1, 58, 0
4, 44112, Note_on_c, 1, 67, 64
4, 44160, Note_on_c, 1, 67, 0
4, 44160, Note_on_c, 1, 57, 64
4, 44249, Note_on_c, 1, 57, 0
4, 44304, Note_on_c, 1, 65, 64
4, 44352, Note_on_c, 1, 65, 0
4, 44352, Note_on_c, 1, 55, 64
4, 44441, Note_on_c, 1, 55, 0
4, 44448, Note_on_c, 1, 60, 70
4, 44537, Note_on_c, 1, 60, 0
4, 44544, Note_on_c, 1, 57, 64
4, 44567, Note_on_c, 1, 57, 0
4, 44568, Note_on_c, 1, 60, 64
4, 44591, Note_on_c, 1, 60, 0
4, 44592, Note_on_c, 1, 57, 64
4, 44615, Note_on_c, 1, 57, 0
4, 44616, Note_on_c, 1, 60, 64
4, 44639, Note_on_c, 1, 60, 0
4, 44640, Note_on_c, 1, 57, 64
4, 44663, Note_on_c, 1, 57, 0
4, 44664, Note_on_c, 1, 60, 64
4, 44687, Note_on_c, 1, 60, 0
4, 44688, Note_on_c, 1, 57, 64
4, 44711, Note_on_c, 1, 57, 0
4, 44712, Note_on_c, 1, 60, 64
4, 44735, Note_on_c, 1, 60, 0
4, 44736, Note_on_c, 1, 58, 64
4, 44759, Note_on_c, 1, 58, 0
4, 44760, Note_on_c, 1, 60, 64
4, 44783, Note_on_c, 1, 60, 0
4, 44784, Note_on_c, 1, 58, 64
4, 44807, Note_on_c, 1, 58, 0
4, 44808, Note_on_c, 1, 60, 64
4, 44831, Note_on_c, 1, 60, 0
4, 44832, Note_on_c, 1, 58, 64
4, 44855, Note_on_c, 1, 58, 0
4, 44856, Note_on_c, 1, 60, 64
4, 44879, Note_on_c, 1, 60, 0
4, 44880, Note_on_c, 1, 58, 64
4, 44903, Note_on_c, 1, 58, 0
4, 44904, Note_on_c, 1, 60, 64
4, 44927, Note_on_c, 1, 60, 0
4, 44928, Note_on_c, 1, 57, 64
4, 44951, Note_on_c, 1, 57, 0
4, 44952, Note_on_c, 1, 60, 64
4, 44975, Note_on_c, 1, 60, 0
4, 44976, Note_on_c, 1, 57, 64
4, 44999, Note_on_c, 1, 57, 0
4, 45000, Note_on_c, 1, 60, 64
4, 45023, Note_on_c, 1, 60, 0
4, 45024, Note_on_c, 1, 57, 64
4, 45047, Note_on_c, 1, 57, 0
4, 45048, Note_on_c, 1, 60, 64
4, 45071, Note_on_c, 1, 60, 0
4, 45072, Note_on_c, 1, 57, 64
4, 45095, Note_on_c, 1, 57, 0
4, 45096, Note_on_c, 1, 60, 64
4, 45119, Note_on_c, 1, 60, 0
4, 45120, Note_on_c, 1, 58, 64
4, 45143, Note_on_c, 1, 58, 0
4, 45144, Note_on_c, 1, 60, 65
4, 45167, Note_on_c, 1, 60, 0
4, 45168, Note_on_c, 1, 58, 66
4, 45191, Note_on_c, 1, 58, 0
4, 45192, Note_on_c, 1, 60, 67
4, 45215, Note_on_c, 1, 60, 0
4, 45216, Note_on_c, 1, 58, 68
4, 45239, Note_on_c, 1, 58, 0
4, 45240, Note_on_c, 1, 60, 70
4, 45263, Note_on_c, 1, 60, 0
4, 45264, Note_on_c, 1, 58, 71
4, 45287, Note_on_c, 1, 58, 0
4, 45288, Note_on_c, 1, 60, 72
4, 45311, Note_on_c, 1, 60, 0
4, 45312, Control_c, 1, 64, 127
4, 45312, Note_on_c, 1, 53, 73
4, 45335, Note_on_c, 1, 53, 0
4, 45336, Note_on_c, 1, 60, 75
4, 45359, Note_on_c, 1, 60, 0
4, 45360, Note_on_c, 1, 53, 75
4, 45383, Note_on_c, 1, 53, 0
4, 45384, Note_on_c, 1, 60, 75
4, 45407, Note_on_c, 1, 60, 0
4, 45408, Note_on_c, 1, 53, 75
4, 45431, Note_on_c, 1, 53, 0
4, 45432, Note_on_c, 1, 60, 75
4, 45455, Note_on_c, 1, 60, 0
4, 45456, Note_on_c, 1, 53, 75
4, 45479, Note_on_c, 1, 53, 0
4, 45480, Control_c, 1, 64, 0
4, 45480, Note_on_c, 1, 60, 75
4, 45503, Note_on_c, 1, 60, 0
4, 45504, Control_c, 1, 64, 127
4, 45504, Note_on_c, 1, 53, 75
4, 45527, Note_on_c, 1, 53, 0
4, 45528, Note_on_c, 1, 61, 75
4, 45551, Note_on_c, 1, 61, 0
4, 45552, Note_on_c, 1, 53, 75
4, 45575, Note_on_c, 1, 53, 0
4, 45576, Note_on_c, 1, 61, 75
4, 45599, Note_on_c, 1, 61, 0
4, 45600, Note_on_c, 1, 53, 75
4, 45623, Note_on_c, 1, 53, 0
4, 45624, Note_on_c, 1, 61, 75
4, 45647, Note_on_c, 1, 61, 0
4, 45648, Note_on_c, 1, 53, 75
4, 45671, Note_on_c, 1, 53, 0
4, 45672, Control_c, 1, 64, 0
4, 45672, Note_on_c, 1, 61, 75
4, 45695, Note_on_c, 1, 61, 0
4, 45696, Control_c, 1, 64, 127
4, 45696, Note_on_c, 1, 51, 75
4, 45719, Note_on_c, 1, 51, 0
4, 45720, Note_on_c, 1, 61, 74
4, 45743, Note_on_c, 1, 61, 0
4, 45744, Note_on_c, 1, 51, 74
4, 45767, Note_on_c, 1, 51, 0
4, 45768, Control_c, 1, 64, 0
4, 45768, Note_on_c, 1, 61, 74
4, 45791, Note_on_c, 1, 61, 0
4, 45792, Control_c, 1, 64, 127
4, 45792, Note_on_c, 1, 51, 73
4, 45815, Note_on_c, 1, 51, 0
4, 45816, Note_on_c, 1, 60, 73
4, 45839, Note_on_c, 1, 60, 0
4, 45840, Note_on_c, 1, 51, 73
4, 45863, Note_on_c, 1, 51, 0
4, 45864, Control_c, 1, 64, 0
4, 45864, Note_on_c, 1, 60, 72
4, 45887, Note_on_c, 1, 60, 0
4, 45888, Control_c, 1, 64, 127
4, 45888, Note_on_c, 1, 51, 72
4, 45911, Note_on_c, 1, 51, 0
4, 45912, Note_on_c, 1, 58, 72
4, 45935, Note_on_c, 1, 58, 0
4, 45936, Note_on_c, 1, 51, 71
4, 45959, Note_on_c, 1, 51, 0
4, 45960, Control_c, 1, 64, 0
4, 45960, Note_on_c, 1, 58, 71
4, 45983, Note_on_c, 1, 58, 0
4, 45984, Control_c, 1, 64, 127
4, 45984, Note_on_c, 1, 51, 71
4, 46007, Note_on_c, 1, 51, 0
4, 46008, Note_on_c, 1, 56, 70
4, 46031, Note_on_c, 1, 56, 0
4, 46032, Note_on_c, 1, 51, 70
4, 46055, Note_on_c, 1, 51, 0
4, 46056, Control_c, 1, 64, 0
4, 46056, Note_on_c, 1, 56, 70
4, 46079, Note_on_c, 1, 56, 0
4, 46080, Control_c, 1, 64, 127
4, 46080, Note_on_c, 1, 51, 70
4, 46103, Note_on_c, 1, 51, 0
4, 46104, Note_on_c, 1, 61, 70
4, 46127, Note_on_c, 1, 61, 0
4, 46128, Note_on_c, 1, 51, 70
4, 46151, Note_on_c, 1, 51, 0
4, 46152, Control_c, 1, 64, 0
4, 46152, Note_on_c, 1, 61, 69
4, 46175, Note_on_c, 1, 61, 0
4, 46176, Control_c, 1, 64, 127
4, 46176, Note_on_c, 1, 51, 69
4, 46199, Note_on_c, 1, 51, 0
4, 46200, Note_on_c, 1, 60, 68
4, 46223, Note_on_c, 1, 60, 0
4, 46224, Note_on_c, 1, 51, 68
4, 46247, Note_on_c, 1, 51, 0
4, 46248, Control_c, 1, 64, 0
4, 46248, Note_on_c, 1, 60, 67
4, 46271, Note_on_c, 1, 60, 0
4, 46272, Control_c, 1, 64, 127
4, 46272, Note_on_c, 1, 51, 67
4, 46295, Note_on_c, 1, 51, 0
4, 46296, Note_on_c, 1, 58, 67
4, 46319, Note_on_c, 1, 58, 0
4, 46320, Note_on_c, 1, 51, 66
4, 46343, Note_on_c, 1, 51, 0
4, 46344, Control_c, 1, 64, 0
4, 46344, Note_on_c, 1, 58, 66
4, 46367, Note_on_c, 1, 58, 0
4, 46368, Control_c, 1, 64, 127
4, 46368, Note_on_c, 1, 51, 65
4, 46391, Note_on_c, 1, 51, 0
4, 46392, Note_on_c, 1, 56, 65
4, 46415, Note_on_c, 1, 56, 0
4, 46416, Note_on_c, 1, 51, 64
4, 46439, Note_on_c, 1, 51, 0
4, 46440, Control_c, 1, 64, 0
4, 46440, Note_on_c, 1, 56, 64
4, 46463, Note_on_c, 1, 56, 0
4, 46464, Control_c, 1, 64, 127
4, 46464, Note_on_c, 1, 51, 75
4, 46487, Note_on_c, 1, 51, 0
4, 46488, Note_on_c, 1, 56, 74
4, 46511, Note_on_c, 1, 56, 0
4, 46512, Note_on_c, 1, 51, 73
4, 46535, Note_on_c, 1, 51, 0
4, 46536, Note_on_c, 1, 56, 72
4, 46559, Note_on_c, 1, 56, 0
4, 46560, Note_on_c, 1, 51, 71
4, 46583, Note_on_c, 1, 51, 0
4, 46584, Note_on_c, 1, 56, 70
4, 46607, Note_on_c, 1, 56, 0
4, 46608, Note_on_c, 1, 51, 69
4, 46631, Note_on_c, 1, 51, 0
4, 46632, Control_c, 1, 64, 0
4, 46632, Note_on_c, 1, 56, 68
4, 46655, Note_on_c, 1, 56, 0
4, 46656, Control_c, 1, 64, 127
4, 46656, Note_on_c, 1, 51, 67
4, 46679, Note_on_c, 1, 51, 0
4, 46680, Note_on_c, 1, 55, 66
4, 46703, Note_on_c, 1, 55, 0
4, 46704, Note_on_c, 1, 51, 65
4, 46727, Note_on_c, 1, 51, 0
4, 46728, Note_on_c, 1, 55, 64
4, 46751, Note_on_c, 1, 55, 0
4, 46752, Note_on_c, 1, 51, 63
4, 46775, Note_on_c, 1, 51, 0
4, 46776, Note_on_c, 1, 55, 62
4, 46799, Note_on_c, 1, 55, 0
4, 46800, Note_on_c, 1, 51, 61
4, 46823, Note_on_c, 1, 51, 0
4, 46824, Control_c, 1, 64, 0
4, 46824, Note_on_c, 1, 55, 60
4, 46847, Note_on_c, 1, 55, 0
4, 46848, Control_c, 1, 64, 127
4, 46848, Note_on_c, 1, 51, 59
4, 46871, Note_on_c, 1, 51, 0
4, 46872, Note_on_c, 1, 56, 58
4, 46895, Note_on_c, 1, 56, 0
4, 46896, Note_on_c, 1, 51, 58
4, 46919, Note_on_c, 1, 51, 0
4, 46920, Note_on_c, 1, 56, 58
4, 46943, Note_on_c, 1, 56, 0
4, 46944, Note_on_c, 1, 51, 58
4, 46967, Note_on_c, 1, 51, 0
4, 46968, Note_on_c, 1, 56, 58
4, 46991, Note_on_c, 1, 56, 0
4, 46992, Note_on_c, 1, 51, 58
4, 47015, Note_on_c, 1, 51, 0
4, 47016, Control_c, 1, 64, 0
4, 47016, Note_on_c, 1, 56, 58
4, 47039, Note_on_c, 1, 56, 0
4, 47040, Control_c, 1, 64, 127
4, 47040, Note_on_c, 1, 51, 58
4, 47063, Note_on_c, 1, 51, 0
4, 47064, Note_on_c, 1, 55, 58
4, 47087, Note_on_c, 1, 55, 0
4, 47088, Note_on_c, 1, 51, 58
4, 47111, Note_on_c, 1, 51, 0
4, 47112, Note_on_c, 1, 55, 58
4, 47135, Note_on_c, 1, 55, 0
4, 47136, Note_on_c, 1, 51, 58
4, 47159, Note_on_c, 1, 51, 0
4, 47160, Note_on_c, 1, 55, 58
4, 47183, Note_on_c, 1, 55, 0
4, 47184, Note_on_c, 1, 51, 58
4, 47207, Note_on_c, 1, 51, 0
4, 47208, Control_c, 1, 64, 0
4, 47208, Note_on_c, 1, 55, 58
4, 47231, Note_on_c, 1, 55, 0
4, 47232, Note_on_c, 1, 56, 58
4, 47232, Note_on_c, 1, 51, 58
4, 47616, Note_on_c, 1, 56, 0
4, 47616, Note_on_c, 1, 55, 58
4, 47705, Note_on_c, 1, 55, 0
4, 47705, Note_on_c, 1, 51, 0
4, 47712, Control_c, 1, 64, 127
4, 47712, Note_on_c, 1, 55, 58
4, 47712, Note_on_c, 1, 51, 58
4, 47757, Note_on_c, 1, 55, 0
4, 47757, Note_on_c, 1, 51, 0
4, 47760, Note_on_c, 1, 55, 58
4, 47760, Note_on_c, 1, 51, 58
4, 47805, Note_on_c, 1, 55, 0
4, 47805, Note_on_c, 1, 51, 0
4, 47808, Note_on_c, 1, 55, 58
4, 47808, Note_on_c, 1, 51, 58
4, 47897, Note_on_c, 1, 55, 0
4, 47897, Note_on_c, 1, 51, 0
4, 48000, Control_c, 1, 64, 127
4, 48000, Note_on_c, 1, 44, 58
4, 48089, Note_on_c, 1, 44, 0
4, 48096, Note_on_c, 1, 39, 58
4, 48185, Note_on_c, 1, 39, 0
4, 48192, Note_on_c, 1, 36, 58
4, 48281, Note_on_c, 1, 36, 0
4, 48336, Note_on_c, 1, 41, 58
4, 48384, Note_on_c, 1, 41, 0
4, 48384, Note_on_c, 1, 34, 58
4, 48473, Note_on_c, 1, 34, 0
4, 48528, Note_on_c, 1, 39, 58
4, 48576, Note_on_c, 1, 39, 0
4, 48576, Note_on_c, 1, 32, 58
4, 48665, Note_on_c, 1, 32, 0
4, 48672, Control_c, 1, 64, 0
4, 48816, Note_on_c, 1, 56, 58
4, 48816, Note_on_c, 1, 53, 58
4, 48864, Note_on_c, 1, 56, 0
4, 48864, Note_on_c, 1, 53, 0
4, 48864, Note_on_c, 1, 58, 58
4, 48864, Note_on_c, 1, 55, 58
4, 48909, Note_on_c, 1, 58, 0
4, 48909, Note_on_c, 1, 55, 0
4, 49008, Note_on_c, 1, 55, 58
4, 49008, Note_on_c, 1, 52, 58
4, 49056, Note_on_c, 1, 55, 0
4, 49056, Note_on_c, 1, 52, 0
4, 49056, Note_on_c, 1, 56, 58
4, 49056, Note_on_c, 1, 53, 58
4, 49101, Note_on_c, 1, 56, 0
4, 49101, Note_on_c, 1, 53, 0
4, 49200, Note_on_c, 1, 53, 76
4, 49200, Note_on_c, 1, 50, 76
4, 49245, Note_on_c, 1, 53, 0
4, 49245, Note_on_c, 1, 50, 0
4, 49296, Note_on_c, 1, 51, 76
4, 49296, Note_on_c, 1, 48, 76
4, 49341, Note_on_c, 1, 51, 0
4, 49341, Note_on_c, 1, 48, 0
4, 49392, Note_on_c, 1, 50, 78
4, 49392, Note_on_c, 1, 47, 78
4, 49437, Note_on_c, 1, 50, 0
4, 49437, Note_on_c, 1, 47, 0
4, 49488, Note_on_c, 1, 51, 80
4, 49488, Note_on_c, 1, 48, 80
4, 49533, Note_on_c, 1, 51, 0
4, 49533, Note_on_c, 1, 48, 0
4, 49584, Note_on_c, 1, 53, 82
4, 49584, Note_on_c, 1, 50, 82
4, 49629, Note_on_c, 1, 53, 0
4, 49629, Note_on_c, 1, 50, 0
4, 49680, Note_on_c, 1, 51, 83
4, 49680, Note_on_c, 1, 48, 83
4, 49725, Note_on_c, 1, 51, 0
4, 49725, Note_on_c, 1, 48, 0
4, 49776, Note_on_c, 1, 50, 85
4, 49776, Note_on_c, 1, 47, 85
4, 49821, Note_on_c, 1, 50, 0
4, 49821, Note_on_c, 1, 47, 0
4, 49872, Note_on_c, 1, 53, 87
4, 49872, Note_on_c, 1, 50, 87
4, 49917, Note_on_c, 1, 53, 0
4, 49917, Note_on_c, 1, 50, 0
4, 49968, Note_on_c, 1, 55, 89
4, 49968, Note_on_c, 1, 51, 89
4, 50013, Note_on_c, 1, 55, 0
4, 50013, Note_on_c, 1, 51, 0
4, 50064, Note_on_c, 1, 53, 90
4, 50064, Note_on_c, 1, 50, 90
4, 50109, Note_on_c, 1, 53, 0
4, 50109, Note_on_c, 1, 50, 0
4, 50160, Note_on_c, 1, 55, 92
4, 50160, Note_on_c, 1, 51, 92
4, 50205, Note_on_c, 1, 55, 0
4, 50205, Note_on_c, 1, 51, 0
4, 50256, Note_on_c, 1, 55, 94
4, 50256, Note_on_c, 1, 52, 94
4, 50301, Note_on_c, 1, 55, 0
4, 50301, Note_on_c, 1, 52, 0
4, 50352, Note_on_c, 1, 57, 96
4, 50352, Note_on_c, 1, 53, 96
4, 50397, Note_on_c, 1, 57, 0
4, 50397, Note_on_c, 1, 53, 0
4, 50448, Note_on_c, 1, 55, 97
4, 50448, Note_on_c, 1, 52, 97
4, 50493, Note_on_c, 1, 55, 0
4, 50493, Note_on_c, 1, 52, 0
4, 50544, Note_on_c, 1, 57, 99
4, 50544, Note_on_c, 1, 53, 99
4, 50589, Note_on_c, 1, 57, 0
4, 50589, Note_on_c, 1, 53, 0
4, 50640, Note_on_c, 1, 57, 101
4, 50640, Note_on_c, 1, 53, 101
4, 50685, Note_on_c, 1, 57, 0
4, 50685, Note_on_c, 1, 53, 0
4, 50688, Note_on_c, 1, 59, 84
4, 50688, Note_on_c, 1, 56, 84
4, 50688, Note_on_c, 1, 52, 84
4, 50782, Note_on_c, 1, 59, 0
4, 50782, Note_on_c, 1, 56, 0
4, 50782, Note_on_c, 1, 52, 0
4, 50832, Note_on_c, 1, 62, 102
4, 50880, Note_on_c, 1, 62, 0
4, 50880, Note_on_c, 1, 68, 102
4, 50976, Note_on_c, 1, 68, 0
4, 51024, Note_on_c, 1, 60, 102
4, 51072, Note_on_c, 1, 60, 0
4, 51072, Note_on_c, 1, 69, 102
4, 51168, Note_on_c, 1, 69, 0
4, 51216, Note_on_c, 1, 47, 102
4, 51216, Note_on_c, 1, 44, 102
4, 51264, Note_on_c, 1, 47, 0
4, 51264, Note_on_c, 1, 44, 0
4, 51264, Note_on_c, 1, 62, 102
4, 51264, Note_on_c, 1, 59, 102
4, 51360, Note_on_c, 1, 62, 0
4, 51360, Note_on_c, 1, 59, 0
4, 51408, Note_on_c, 1, 48, 102
4, 51408, Note_on_c, 1, 45, 102
4, 51456, Note_on_c, 1, 48, 0
4, 51456, Note_on_c, 1, 45, 0
4, 51456, Note_on_c, 1, 60, 102
4, 51456, Note_on_c, 1, 57, 102
4, 51552, Note_on_c, 1, 60, 0
4, 51552, Note_on_c, 1, 57, 0
4, 51600, Note_on_c, 1, 48, 102
4, 51600, Note_on_c, 1, 36, 102
4, 51648, Note_on_c, 1, 48, 0
4, 51648, Note_on_c, 1, 36, 0
4, 51648, Note_on_c, 1, 58, 102
4, 51648, Note_on_c, 1, 46, 102
4, 51840, Note_on_c, 1, 58, 0
4, 51840, Note_on_c, 1, 46, 0
4, 51840, Note_on_c, 1, 47, 86
4, 51863, Note_on_c, 1, 47, 0
4, 51864, Note_on_c, 1, 59, 83
4, 51887, Note_on_c, 1, 59, 0
4, 51888, Note_on_c, 1, 47, 81
4, 51911, Note_on_c, 1, 47, 0
4, 51912, Note_on_c, 1, 59, 78
4, 51935, Note_on_c, 1, 59, 0
4, 51936, Note_on_c, 1, 47, 76
4, 51959, Note_on_c, 1, 47, 0
4, 51960, Note_on_c, 1, 59, 73
4, 51983, Note_on_c, 1, 59, 0
4, 51984, Note_on_c, 1, 47, 71
4, 52007, Note_on_c, 1, 47, 0
4, 52008, Note_on_c, 1, 59, 68
4, 52031, Note_on_c, 1, 59, 0
4, 52032, Note_on_c, 1, 47, 66
4, 52055, Note_on_c, 1, 47, 0
4, 52056, Note_on_c, 1, 59, 64
4, 52079, Note_on_c, 1, 59, 0
4, 52080, Note_on_c, 1, 47, 64
4, 52103, Note_on_c, 1, 47, 0
4, 52104, Note_on_c, 1, 59, 64
4, 52127, Note_on_c, 1, 59, 0
4, 52128, Note_on_c, 1, 47, 64
4, 52151, Note_on_c, 1, 47, 0
4, 52152, Note_on_c, 1, 59, 64
4, 52175, Note_on_c, 1, 59, 0
4, 52176, Note_on_c, 1, 47, 64
4, 52199, Note_on_c, 1, 47, 0
4, 52200, Note_on_c, 1, 59, 64
4, 52223, Note_on_c, 1, 59, 0
4, 52224, Note_on_c, 1, 47, 64
4, 52247, Note_on_c, 1, 47, 0
4, 52248, Note_on_c, 1, 59, 64
4, 52271, Note_on_c, 1, 59, 0
4, 52272, Note_on_c, 1, 47, 64
4, 52295, Note_on_c, 1, 47, 0
4, 52296, Note_on_c, 1, 59, 64
4, 52319, Note_on_c, 1, 59, 0
4, 52320, Note_on_c, 1, 47, 64
4, 52343, Note_on_c, 1, 47, 0
4, 52344, Note_on_c, 1, 59, 64
4, 52367, Note_on_c, 1, 59, 0
4, 52368, Note_on_c, 1, 47, 64
4, 52391, Note_on_c, 1, 47, 0
4, 52392, Note_on_c, 1, 59, 64
4, 52415, Note_on_c, 1, 59, 0
4, 52416, Note_on_c, 1, 47, 64
4, 52439, Note_on_c, 1, 47, 0
4, 52440, Note_on_c, 1, 59, 64
4, 52463, Note_on_c, 1, 59, 0
4, 52464, Note_on_c, 1, 47, 64
4, 52487, Note_on_c, 1, 47, 0
4, 52488, Note_on_c, 1, 59, 64
4, 52511, Note_on_c, 1, 59, 0
4, 52512, Note_on_c, 1, 47, 64
4, 52535, Note_on_c, 1, 47, 0
4, 52536, Note_on_c, 1, 59, 64
4, 52559, Note_on_c, 1, 59, 0
4, 52560, Note_on_c, 1, 47, 64
4, 52583, Note_on_c, 1, 47, 0
4, 52584, Note_on_c, 1, 59, 64
4, 52607, Note_on_c, 1, 59, 0
4, 52608, Note_on_c, 1, 48, 64
4, 52631, Note_on_c, 1, 48, 0
4, 52632, Note_on_c, 1, 57, 64
4, 52655, Note_on_c, 1, 57, 0
4, 52656, Note_on_c, 1, 48, 64
4, 52679, Note_on_c, 1, 48, 0
4, 52680, Note_on_c, 1, 57, 64
4, 52703, Note_on_c, 1, 57, 0
4, 52704, Note_on_c, 1, 48, 64
4, 52727, Note_on_c, 1, 48, 0
4, 52728, Note_on_c, 1, 57, 65
4, 52751, Note_on_c, 1, 57, 0
4, 52752, Note_on_c, 1, 48, 67
4, 52775, Note_on_c, 1, 48, 0
4, 52776, Note_on_c, 1, 57, 69
4, 52799, Note_on_c, 1, 57, 0
4, 52800, Note_on_c, 1, 49, 71
4, 52823, Note_on_c, 1, 49, 0
4, 52824, Note_on_c, 1, 58, 73
4, 52847, Note_on_c, 1, 58, 0
4, 52848, Note_on_c, 1, 49, 75
4, 52871, Note_on_c, 1, 49, 0
4, 52872, Note_on_c, 1, 58, 76
4, 52895, Note_on_c, 1, 58, 0
4, 52896, Note_on_c, 1, 49, 78
4, 52919, Note_on_c, 1, 49, 0
4, 52920, Note_on_c, 1, 58, 80
4, 52943, Note_on_c, 1, 58, 0
4, 52944, Note_on_c, 1, 49, 82
4, 52967, Note_on_c, 1, 49, 0
4, 52968, Note_on_c, 1, 58, 84
4, 52991, Note_on_c, 1, 58, 0
4, 52992, Note_on_c, 1, 50, 104
4, 53015, Note_on_c, 1, 50, 0
4, 53016, Note_on_c, 1, 59, 86
4, 53039, Note_on_c, 1, 59, 0
4, 53040, Note_on_c, 1, 50, 86
4, 53063, Note_on_c, 1, 50, 0
4, 53064, Note_on_c, 1, 59, 86
4, 53087, Note_on_c, 1, 59, 0
4, 53088, Note_on_c, 1, 50, 86
4, 53111, Note_on_c, 1, 50, 0
4, 53112, Note_on_c, 1, 59, 86
4, 53135, Note_on_c, 1, 59, 0
4, 53136, Note_on_c, 1, 50, 86
4, 53159, Note_on_c, 1, 50, 0
4, 53160, Note_on_c, 1, 59, 86
4, 53183, Note_on_c, 1, 59, 0
4, 53184, Note_on_c, 1, 50, 86
4, 53207, Note_on_c, 1, 50, 0
4, 53208, Note_on_c, 1, 57, 86
4, 53231, Note_on_c, 1, 57, 0
4, 53232, Note_on_c, 1, 50, 86
4, 53255, Note_on_c, 1, 50, 0
4, 53256, Note_on_c, 1, 57, 86
4, 53279, Note_on_c, 1, 57, 0
4, 53280, Note_on_c, 1, 50, 86
4, 53303, Note_on_c, 1, 50, 0
4, 53304, Note_on_c, 1, 57, 86
4, 53327, Note_on_c, 1, 57, 0
4, 53328, Note_on_c, 1, 50, 86
4, 53351, Note_on_c, 1, 50, 0
4, 53352, Note_on_c, 1, 57, 86
4, 53375, Note_on_c, 1, 57, 0
4, 53376, Note_on_c, 1, 43, 104
4, 53399, Note_on_c, 1, 43, 0
4, 53400, Note_on_c, 1, 55, 86
4, 53423, Note_on_c, 1, 55, 0
4, 53424, Note_on_c, 1, 43, 86
4, 53447, Note_on_c, 1, 43, 0
4, 53448, Note_on_c, 1, 55, 86
4, 53471, Note_on_c, 1, 55, 0
4, 53472, Note_on_c, 1, 43, 86
4, 53495, Note_on_c, 1, 43, 0
4, 53496, Note_on_c, 1, 55, 86
4, 53519, Note_on_c, 1, 55, 0
4, 53520, Note_on_c, 1, 43, 86
4, 53543, Note_on_c, 1, 43, 0
4, 53544, Note_on_c, 1, 55, 86
4, 53567, Note_on_c, 1, 55, 0
4, 53568, Note_on_c, 1, 44, 86
4, 53591, Note_on_c, 1, 44, 0
4, 53592, Note_on_c, 1, 56, 86
4, 53615, Note_on_c, 1, 56, 0
4, 53616, Note_on_c, 1, 44, 86
4, 53639, Note_on_c, 1, 44, 0
4, 53640, Note_on_c, 1, 56, 86
4, 53663, Note_on_c, 1, 56, 0
4, 53664, Note_on_c, 1, 44, 86
4, 53687, Note_on_c, 1, 44, 0
4, 53688, Note_on_c, 1, 56, 86
4, 53711, Note_on_c, 1, 56, 0
4, 53712, Note_on_c, 1, 44, 86
4, 53735, Note_on_c, 1, 44, 0
4, 53736, Note_on_c, 1, 56, 86
4, 53759, Note_on_c, 1, 56, 0
4, 53760, Note_on_c, 1, 45, 104
4, 53783, Note_on_c, 1, 45, 0
4, 53784, Note_on_c, 1, 57, 86
4, 53807, Note_on_c, 1, 57, 0
4, 53808, Note_on_c, 1, 45, 86
4, 53831, Note_on_c, 1, 45, 0
4, 53832, Note_on_c, 1, 57, 86
4, 53855, Note_on_c, 1, 57, 0
4, 53856, Note_on_c, 1, 45, 86
4, 53879, Note_on_c, 1, 45, 0
4, 53880, Note_on_c, 1, 57, 86
4, 53903, Note_on_c, 1, 57, 0
4, 53904, Note_on_c, 1, 45, 86
4, 53927, Note_on_c, 1, 45, 0
4, 53928, Note_on_c, 1, 57, 86
4, 53951, Note_on_c, 1, 57, 0
4, 53952, Note_on_c, 1, 41, 86
4, 53975, Note_on_c, 1, 41, 0
4, 53976, Note_on_c, 1, 53, 86
4, 53999, Note_on_c, 1, 53, 0
4, 54000, Note_on_c, 1, 41, 86
4, 54023, Note_on_c, 1, 41, 0
4, 54024, Note_on_c, 1, 53, 86
4, 54047, Note_on_c, 1, 53, 0
4, 54048, Note_on_c, 1, 41, 86
4, 54071, Note_on_c, 1, 41, 0
4, 54072, Note_on_c, 1, 53, 86
4, 54095, Note_on_c, 1, 53, 0
4, 54096, Note_on_c, 1, 41, 86
4, 54119, Note_on_c, 1, 41, 0
4, 54120, Note_on_c, 1, 53, 86
4, 54143, Note_on_c, 1, 53, 0
4, 54144, Note_on_c, 1, 40, 86
4, 54167, Note_on_c, 1, 40, 0
4, 54168, Note_on_c, 1, 52, 86
4, 54191, Note_on_c, 1, 52, 0
4, 54192, Note_on_c, 1, 40, 86
4, 54215, Note_on_c, 1, 40, 0
4, 54360, Note_on_c, 1, 52, 75
4, 54384, Note_on_c, 1, 52, 0
4, 54384, Note_on_c, 1, 40, 75
4, 54429, Note_on_c, 1, 40, 0
4, 54456, Note_on_c, 1, 52, 75
4, 54480, Note_on_c, 1, 52, 0
4, 54480, Note_on_c, 1, 40, 75
4, 54525, Note_on_c, 1, 40, 0
4, 54552, Note_on_c, 1, 52, 75
4, 54576, Note_on_c, 1, 52, 0
4, 54576, Note_on_c, 1, 40, 75
4, 54621, Note_on_c, 1, 40, 0
4, 54744, Note_on_c, 1, 52, 76
4, 54768, Note_on_c, 1, 52, 0
4, 54768, Note_on_c, 1, 40, 76
4, 54813, Note_on_c, 1, 40, 0
4, 54840, Note_on_c, 1, 52, 76
4, 54864, Note_on_c, 1, 52, 0
4, 54864, Note_on_c, 1, 40, 77
4, 54909, Note_on_c, 1, 40, 0
4, 54936, Note_on_c, 1, 52, 77
4, 54960, Note_on_c, 1, 52, 0
4, 54960, Note_on_c, 1, 40, 77
4, 55005, Note_on_c, 1, 40, 0
4, 55176, Note_on_c, 1, 39, 79
4, 55199, Note_on_c, 1, 39, 0
4, 55200, Note_on_c, 1, 40, 80
4, 55223, Note_on_c, 1, 40, 0
4, 55224, Note_on_c, 1, 39, 80
4, 55247, Note_on_c, 1, 39, 0
4, 55248, Note_on_c, 1, 40, 80
4, 55271, Note_on_c, 1, 40, 0
4, 55272, Note_on_c, 1, 39, 80
4, 55295, Note_on_c, 1, 39, 0
4, 55296, Note_on_c, 1, 40, 80
4, 55316, Note_on_c, 1, 40, 0
4, 55560, Note_on_c, 1, 63, 64
4, 55583, Note_on_c, 1, 63, 0
4, 55584, Note_on_c, 1, 64, 64
4, 55607, Note_on_c, 1, 64, 0
4, 55608, Note_on_c, 1, 63, 64
4, 55631, Note_on_c, 1, 63, 0
4, 55632, Note_on_c, 1, 64, 64
4, 55655, Note_on_c, 1, 64, 0
4, 55656, Note_on_c, 1, 63, 64
4, 55679, Note_on_c, 1, 63, 0
4, 55680, Note_on_c, 1, 64, 64
4, 55725, Note_on_c, 1, 64, 0
4, 56160, Note_on_c, 1, 70, 64
4, 56160, Note_on_c, 1, 67, 64
4, 56208, Note_on_c, 1, 70, 0
4, 56208, Note_on_c, 1, 67, 0
4, 56208, Note_on_c, 1, 69, 66
4, 56208, Note_on_c, 1, 65, 66
4, 56253, Note_on_c, 1, 69, 0
4, 56253, Note_on_c, 1, 65, 0
4, 56256, Note_on_c, 1, 67, 69
4, 56256, Note_on_c, 1, 64, 69
4, 56276, Note_on_c, 1, 67, 0
4, 56276, Note_on_c, 1, 64, 0
4, 56352, Note_on_c, 1, 67, 74
4, 56352, Note_on_c, 1, 64, 74
4, 56400, Note_on_c, 1, 67, 0
4, 56400, Note_on_c, 1, 64, 0
4, 56400, Note_on_c, 1, 65, 77
4, 56400, Note_on_c, 1, 62, 77
4, 56445, Note_on_c, 1, 65, 0
4, 56445, Note_on_c, 1, 62, 0
4, 56448, Note_on_c, 1, 64, 98
4, 56448, Note_on_c, 1, 61, 98
4, 56625, Note_on_c, 1, 64, 0
4, 56625, Note_on_c, 1, 61, 0
4, 56640, Note_on_c, 1, 65, 80
4, 56640, Note_on_c, 1, 62, 80
4, 56729, Note_on_c, 1, 65, 0
4, 56729, Note_on_c, 1, 62, 0
4, 56736, Note_on_c, 1, 67, 80
4, 56736, Note_on_c, 1, 64, 80
4, 56736, Note_on_c, 1, 62, 80
4, 56825, Note_on_c, 1, 67, 0
4, 56825, Note_on_c, 1, 64, 0
4, 56825, Note_on_c, 1, 62, 0
4, 56832, Note_on_c, 1, 65, 80
4, 56832, Note_on_c, 1, 62, 80
4, 56921, Note_on_c, 1, 65, 0
4, 56921, Note_on_c, 1, 62, 0
4, 56928, Note_on_c, 1, 67, 80
4, 56928, Note_on_c, 1, 64, 80
4, 56928, Note_on_c, 1, 62, 80
4, 57017, Note_on_c, 1, 67, 0
4, 57017, Note_on_c, 1, 64, 0
4, 57017, Note_on_c, 1, 62, 0
4, 57048, Note_on_c, 1, 62, 64
4, 57071, Note_on_c, 1, 62, 0
4, 57072, Note_on_c, 1, 65, 64
4, 57095, Note_on_c, 1, 65, 0
4, 57096, Note_on_c, 1, 69, 64
4, 57119, Note_on_c, 1, 69, 0
4, 57120, Note_on_c, 1, 74, 64
4, 57140, Note_on_c, 1, 74, 0
4, 57288, Note_on_c, 1, 37, 80
4, 57311, Note_on_c, 1, 37, 0
4, 57312, Note_on_c, 1, 38, 80
4, 57335, Note_on_c, 1, 38, 0
4, 57336, Note_on_c, 1, 37, 80
4, 57359, Note_on_c, 1, 37, 0
4, 57360, Note_on_c, 1, 38, 80
4, 57383, Note_on_c, 1, 38, 0
4, 57384, Note_on_c, 1, 37, 80
4, 57407, Note_on_c, 1, 37, 0
4, 57408, Note_on_c, 1, 38, 80
4, 57428, Note_on_c, 1, 38, 0
4, 57504, Note_on_c, 1, 69, 64
4, 57504, Note_on_c, 1, 65, 64
4, 57552, Note_on_c, 1, 69, 0
4, 57552, Note_on_c, 1, 65, 0
4, 57552, Note_on_c, 1, 67, 64
4, 57552, Note_on_c, 1, 64, 64
4, 57597, Note_on_c, 1, 67, 0
4, 57597, Note_on_c, 1, 64, 0
4, 57600, Note_on_c, 1, 65, 64
4, 57600, Note_on_c, 1, 62, 64
4, 57645, Note_on_c, 1, 65, 0
4, 57645, Note_on_c, 1, 62, 0
4, 57696, Note_on_c, 1, 65, 64
4, 57696, Note_on_c, 1, 62, 64
4, 57744, Note_on_c, 1, 65, 0
4, 57744, Note_on_c, 1, 62, 0
4, 57744, Note_on_c, 1, 64, 64
4, 57744, Note_on_c, 1, 60, 64
4, 57789, Note_on_c, 1, 64, 0
4, 57789, Note_on_c, 1, 60, 0
4, 57792, Note_on_c, 1, 62, 64
4, 57792, Note_on_c, 1, 59, 64
4, 57837, Note_on_c, 1, 62, 0
4, 57837, Note_on_c, 1, 59, 0
4, 57864, Note_on_c, 1, 44, 64
4, 57887, Note_on_c, 1, 44, 0
4, 57888, Note_on_c, 1, 43, 64
4, 57911, Note_on_c, 1, 43, 0
4, 57912, Note_on_c, 1, 44, 64
4, 57935, Note_on_c, 1, 44, 0
4, 57936, Note_on_c, 1, 43, 64
4, 57959, Note_on_c, 1, 43, 0
4, 57960, Note_on_c, 1, 44, 64
4, 57983, Note_on_c, 1, 44, 0
4, 57984, Note_on_c, 1, 43, 64
4, 58004, Note_on_c, 1, 43, 0
4, 58080, Note_on_c, 1, 62, 70
4, 58080, Note_on_c, 1, 59, 70
4, 58128, Note_on_c, 1, 62, 0
4, 58128, Note_on_c, 1, 59, 0
4, 58128, Note_on_c, 1, 60, 70
4, 58128, Note_on_c, 1, 57, 70
4, 58173, Note_on_c, 1, 60, 0
4, 58173, Note_on_c, 1, 57, 0
4, 58176, Note_on_c, 1, 59, 70
4, 58176, Note_on_c, 1, 55, 70
4, 58221, Note_on_c, 1, 59, 0
4, 58221, Note_on_c, 1, 55, 0
4, 58248, Note_on_c, 1, 66, 75
4, 58271, Note_on_c, 1, 66, 0
4, 58272, Note_on_c, 1, 67, 75
4, 58295, Note_on_c, 1, 67, 0
4, 58296, Note_on_c, 1, 66, 75
4, 58319, Note_on_c, 1, 66, 0
4, 58320, Note_on_c, 1, 67, 75
4, 58343, Note_on_c, 1, 67, 0
4, 58344, Note_on_c, 1, 66, 75
4, 58367, Note_on_c, 1, 66, 0
4, 58368, Note_on_c, 1, 67, 75
4, 58413, Note_on_c, 1, 67, 0
4, 58440, Note_on_c, 1, 66, 80
4, 58463, Note_on_c, 1, 66, 0
4, 58464, Note_on_c, 1, 67, 80
4, 58487, Note_on_c, 1, 67, 0
4, 58488, Note_on_c, 1, 66, 80
4, 58511, Note_on_c, 1, 66, 0
4, 58512, Note_on_c, 1, 67, 80
4, 58535, Note_on_c, 1, 67, 0
4, 58536, Note_on_c, 1, 66, 80
4, 58559, Note_on_c, 1, 66, 0
4, 58560, Note_on_c, 1, 67, 80
4, 58605, Note_on_c, 1, 67, 0
4, 58656, Note_on_c, 1, 65, 86
4, 58656, Note_on_c, 1, 62, 86
4, 58656, Note_on_c, 1, 59, 86
4, 58656, Note_on_c, 1, 55, 86
4, 58701, Note_on_c, 1, 65, 0
4, 58701, Note_on_c, 1, 62, 0
4, 58701, Note_on_c, 1, 59, 0
4, 58701, Note_on_c, 1, 55, 0
4, 58704, Note_on_c, 1, 65, 86
4, 58704, Note_on_c, 1, 62, 86
4, 58704, Note_on_c, 1, 59, 86
4, 58704, Note_on_c, 1, 55, 86
4, 58749, Note_on_c, 1, 65, 0
4, 58749, Note_on_c, 1, 62, 0
4, 58749, Note_on_c, 1, 59, 0
4, 58749, Note_on_c, 1, 55, 0
4, 58752, Note_on_c, 1, 65, 86
4, 58752, Note_on_c, 1, 62, 86
4, 58752, Note_on_c, 1, 59, 86
4, 58752, Note_on_c, 1, 55, 86
4, 58929, Note_on_c, 1, 65, 0
4, 58929, Note_on_c, 1, 62, 0
4, 58929, Note_on_c, 1, 59, 0
4, 58929, Note_on_c, 1, 55, 0
4, 59376, Note_on_c, 1, 48, 64
4, 59424, Note_on_c, 1, 48, 0
4, 59424, Note_on_c, 1, 36, 64
4, 59444, Note_on_c, 1, 36, 0
4, 59568, Note_on_c, 1, 48, 64
4, 59616, Note_on_c, 1, 48, 0
4, 59616, Note_on_c, 1, 36, 64
4, 59636, Note_on_c, 1, 36, 0
4, 59760, Note_on_c, 1, 48, 64
4, 59808, Note_on_c, 1, 48, 0
4, 59808, Note_on_c, 1, 36, 64
4, 59828, Note_on_c, 1, 36, 0
4, 59928, Note_on_c, 1, 48, 64
4, 59951, Note_on_c, 1, 48, 0
4, 59952, Note_on_c, 1, 36, 64
4, 59975, Note_on_c, 1, 36, 0
4, 59976, Note_on_c, 1, 48, 64
4, 59999, Note_on_c, 1, 48, 0
4, 60000, Note_on_c, 1, 36, 64
4, 60045, Note_on_c, 1, 36, 0
4, 60120, Note_on_c, 1, 48, 64
4, 60143, Note_on_c, 1, 48, 0
4, 60144, Note_on_c, 1, 36, 64
4, 60167, Note_on_c, 1, 36, 0
4, 60168, Note_on_c, 1, 48, 64
4, 60191, Note_on_c, 1, 48, 0
4, 60192, Note_on_c, 1, 36, 64
4, 60237, Note_on_c, 1, 36, 0
4, 60504, Note_on_c, 1, 48, 64
4, 60527, Note_on_c, 1, 48, 0
4, 60528, Note_on_c, 1, 36, 64
4, 60551, Note_on_c, 1, 36, 0
4, 60552, Note_on_c, 1, 48, 64
4, 60575, Note_on_c, 1, 48, 0
4, 60576, Note_on_c, 1, 36, 64
4, 60621, Note_on_c, 1, 36, 0
4, 60696, Note_on_c, 1, 48, 64
4, 60719, Note_on_c, 1, 48, 0
4, 60720, Note_on_c, 1, 36, 64
4, 60743, Note_on_c, 1, 36, 0
4, 60744, Note_on_c, 1, 48, 64
4, 60767, Note_on_c, 1, 48, 0
4, 60768, Note_on_c, 1, 36, 64
4, 60813, Note_on_c, 1, 36, 0
4, 60888, Note_on_c, 1, 48, 64
4, 60911, Note_on_c, 1, 48, 0
4, 60912, Note_on_c, 1, 36, 65
4, 60935, Note_on_c, 1, 36, 0
4, 60936, Note_on_c, 1, 48, 66
4, 60959, Note_on_c, 1, 48, 0
4, 60960, Note_on_c, 1, 36, 67
4, 61005, Note_on_c, 1, 36, 0
4, 61080, Note_on_c, 1, 48, 73
4, 61103, Note_on_c, 1, 48, 0
4, 61104, Note_on_c, 1, 36, 75
4, 61127, Note_on_c, 1, 36, 0
4, 61128, Note_on_c, 1, 48, 76
4, 61151, Note_on_c, 1, 48, 0
4, 61152, Note_on_c, 1, 36, 77
4, 61197, Note_on_c, 1, 36, 0
4, 61440, Note_on_c, 1, 36, 80
4, 61446, Note_on_c, 1, 40, 80
4, 61452, Note_on_c, 1, 43, 80
4, 61458, Note_on_c, 1, 48, 80
4, 61485, Note_on_c, 1, 48, 0
4, 61485, Note_on_c, 1, 43, 0
4, 61485, Note_on_c, 1, 40, 0
4, 61485, Note_on_c, 1, 36, 0
4, 61536, Note_on_c, 1, 43, 80
4, 61542, Note_on_c, 1, 47, 80
4, 61548, Note_on_c, 1, 50, 80
4, 61554, Note_on_c, 1, 55, 80
4, 61581, Note_on_c, 1, 55, 0
4, 61581, Note_on_c, 1, 50, 0
4, 61581, Note_on_c, 1, 47, 0
4, 61581, Note_on_c, 1, 43, 0
4, 61632, Note_on_c, 1, 48, 80
4, 61638, Note_on_c, 1, 52, 80
4, 61644, Note_on_c, 1, 55, 80
4, 61650, Note_on_c, 1, 60, 80
4, 61677, Note_on_c, 1, 60, 0
4, 61677, Note_on_c, 1, 55, 0
4, 61677, Note_on_c, 1, 52, 0
4, 61677, Note_on_c, 1, 48, 0
4, 61872, Note_on_c, 1, 67, 75
4, 61884, Note_on_c, 1, 67, 0
4, 61884, Note_on_c, 1, 65, 75
4, 61896, Note_on_c, 1, 65, 0
4, 61896, Note_on_c, 1, 64, 75
4, 61908, Note_on_c, 1, 64, 0
4, 61908, Note_on_c, 1, 65, 75
4, 61920, Note_on_c, 1, 65, 0
4, 61920, Note_on_c, 1, 71, 75
4, 61940, Note_on_c, 1, 71, 0
4, 62064, Note_on_c, 1, 65, 75
4, 62076, Note_on_c, 1, 65, 0
4, 62076, Note_on_c, 1, 64, 75
4, 62088, Note_on_c, 1, 64, 0
4, 62088, Note_on_c, 1, 62, 75
4, 62100, Note_on_c, 1, 62, 0
4, 62100, Note_on_c, 1, 64, 75
4, 62112, Note_on_c, 1, 64, 0
4, 62112, Note_on_c, 1, 72, 75
4, 62132, Note_on_c, 1, 72, 0
4, 62232, Note_on_c, 1, 62, 75
4, 62255, Note_on_c, 1, 62, 0
4, 62256, Note_on_c, 1, 61, 75
4, 62279, Note_on_c, 1, 61, 0
4, 62280, Note_on_c, 1, 62, 75
4, 62303, Note_on_c, 1, 62, 0
4, 62304, Note_on_c, 1, 60, 75
4, 62327, Note_on_c, 1, 60, 0
4, 62328, Note_on_c, 1, 59, 75
4, 62351, Note_on_c, 1, 59, 0
4, 62352, Note_on_c, 1, 57, 75
4, 62375, Note_on_c, 1, 57, 0
4, 62376, Note_on_c, 1, 55, 75
4, 62399, Note_on_c, 1, 55, 0
4, 62424, Note_on_c, 1, 60, 75
4, 62447, Note_on_c, 1, 60, 0
4, 62448, Note_on_c, 1, 62, 75
4, 62471, Note_on_c, 1, 62, 0
4, 62472, Note_on_c, 1, 64, 75
4, 62495, Note_on_c, 1, 64, 0
4, 62496, Note_on_c, 1, 65, 75
4, 62519, Note_on_c, 1, 65, 0
4, 62520, Note_on_c, 1, 67, 75
4, 62543, Note_on_c, 1, 67, 0
4, 62544, Note_on_c, 1, 68, 75
4, 62567, Note_on_c, 1, 68, 0
4, 62568, Note_on_c, 1, 69, 75
4, 62591, Note_on_c, 1, 69, 0
4, 62592, Note_on_c, 1, 65, 75
4, 62681, Note_on_c, 1, 65, 0
4, 62736, Note_on_c, 1, 67, 75
4, 62781, Note_on_c, 1, 67, 0
4, 62784, Note_on_c, 1, 64, 64
4, 62807, Note_on_c, 1, 64, 0
4, 62808, Note_on_c, 1, 67, 64
4, 62831, Note_on_c, 1, 67, 0
4, 62832, Note_on_c, 1, 64, 64
4, 62855, Note_on_c, 1, 64, 0
4, 62856, Note_on_c, 1, 67, 64
4, 62879, Note_on_c, 1, 67, 0
4, 62880, Note_on_c, 1, 64, 64
4, 62903, Note_on_c, 1, 64, 0
4, 62904, Note_on_c, 1, 67, 64
4, 62927, Note_on_c, 1, 67, 0
4, 62928, Note_on_c, 1, 64, 64
4, 62951, Note_on_c, 1, 64, 0
4, 62952, Note_on_c, 1, 67, 64
4, 62975, Note_on_c, 1, 67, 0
4, 62976, Note_on_c, 1, 65, 64
4, 62999, Note_on_c, 1, 65, 0
4, 63000, Note_on_c, 1, 67, 64
4, 63023, Note_on_c, 1, 67, 0
4, 63024, Note_on_c, 1, 65, 64
4, 63047, Note_on_c, 1, 65, 0
4, 63048, Note_on_c, 1, 67, 64
4, 63071, Note_on_c, 1, 67, 0
4, 63072, Note_on_c, 1, 65, 64
4, 63095, Note_on_c, 1, 65, 0
4, 63096, Note_on_c, 1, 67, 64
4, 63119, Note_on_c, 1, 67, 0
4, 63120, Note_on_c, 1, 65, 64
4, 63143, Note_on_c, 1, 65, 0
4, 63144, Note_on_c, 1, 67, 64
4, 63167, Note_on_c, 1, 67, 0
4, 63168, Note_on_c, 1, 64, 64
4, 63191, Note_on_c, 1, 64, 0
4, 63192, Note_on_c, 1, 67, 64
4, 63215, Note_on_c, 1, 67, 0
4, 63216, Note_on_c, 1, 64, 64
4, 63239, Note_on_c, 1, 64, 0
4, 63240, Note_on_c, 1, 67, 64
4, 63263, Note_on_c, 1, 67, 0
4, 63264, Note_on_c, 1, 64, 64
4, 63287, Note_on_c, 1, 64, 0
4, 63288, Note_on_c, 1, 67, 64
4, 63311, Note_on_c, 1, 67, 0
4, 63312, Note_on_c, 1, 64, 64
4, 63335, Note_on_c, 1, 64, 0
4, 63336, Note_on_c, 1, 67, 64
4, 63359, Note_on_c, 1, 67, 0
4, 63360, Note_on_c, 1, 65, 64
4, 63383, Note_on_c, 1, 65, 0
4, 63384, Note_on_c, 1, 67, 64
4, 63407, Note_on_c, 1, 67, 0
4, 63408, Note_on_c, 1, 65, 64
4, 63431, Note_on_c, 1, 65, 0
4, 63432, Note_on_c, 1, 67, 64
4, 63455, Note_on_c, 1, 67, 0
4, 63456, Note_on_c, 1, 65, 64
4, 63479, Note_on_c, 1, 65, 0
4, 63480, Note_on_c, 1, 67, 64
4, 63503, Note_on_c, 1, 67, 0
4, 63504, Note_on_c, 1, 65, 64
4, 63527, Note_on_c, 1, 65, 0
4, 63528, Note_on_c, 1, 67, 64
4, 63551, Note_on_c, 1, 67, 0
4, 63552, Note_on_c, 1, 64, 64
4, 63575, Note_on_c, 1, 64, 0
4, 63576, Note_on_c, 1, 67, 64
4, 63599, Note_on_c, 1, 67, 0
4, 63600, Note_on_c, 1, 64, 64
4, 63623, Note_on_c, 1, 64, 0
4, 63624, Note_on_c, 1, 67, 64
4, 63647, Note_on_c, 1, 67, 0
4, 63648, Note_on_c, 1, 64, 64
4, 63671, Note_on_c, 1, 64, 0
4, 63672, Note_on_c, 1, 67, 64
4, 63695, Note_on_c, 1, 67, 0
4, 63696, Note_on_c, 1, 64, 64
4, 63719, Note_on_c, 1, 64, 0
4, 63720, Note_on_c, 1, 67, 64
4, 63743, Note_on_c, 1, 67, 0
4, 63744, Note_on_c, 1, 65, 64
4, 63767, Note_on_c, 1, 65, 0
4, 63768, Note_on_c, 1, 67, 64
4, 63791, Note_on_c, 1, 67, 0
4, 63792, Note_on_c, 1, 65, 64
4, 63815, Note_on_c, 1, 65, 0
4, 63816, Note_on_c, 1, 67, 64
4, 63839, Note_on_c, 1, 67, 0
4, 63840, Note_on_c, 1, 65, 64
4, 63863, Note_on_c, 1, 65, 0
4, 63864, Note_on_c, 1, 67, 64
4, 63887, Note_on_c, 1, 67, 0
4, 63888, Note_on_c, 1, 65, 64
4, 63911, Note_on_c, 1, 65, 0
4, 63912, Note_on_c, 1, 67, 64
4, 63935, Note_on_c, 1, 67, 0
4, 63936, Note_on_c, 1, 64, 64
4, 63959, Note_on_c, 1, 64, 0
4, 63960, Note_on_c, 1, 67, 64
4, 63983, Note_on_c, 1, 67, 0
4, 63984, Note_on_c, 1, 64, 64
4, 64007, Note_on_c, 1, 64, 0
4, 64008, Note_on_c, 1, 67, 64
4, 64031, Note_on_c, 1, 67, 0
4, 64032, Note_on_c, 1, 62, 64
4, 64055, Note_on_c, 1, 62, 0
4, 64056, Note_on_c, 1, 67, 64
4, 64079, Note_on_c, 1, 67, 0
4, 64080, Note_on_c, 1, 62, 64
4, 64103, Note_on_c, 1, 62, 0
4, 64104, Note_on_c, 1, 67, 64
4, 64127, Note_on_c, 1, 67, 0
4, 64128, Note_on_c, 1, 64, 64
4, 64151, Note_on_c, 1, 64, 0
4, 64152, Note_on_c, 1, 67, 64
4, 64175, Note_on_c, 1, 67, 0
4, 64176, Note_on_c, 1, 64, 64
4, 64199, Note_on_c, 1, 64, 0
4, 64200, Note_on_c, 1, 67, 64
4, 64223, Note_on_c, 1, 67, 0
4, 64224, Note_on_c, 1, 65, 64
4, 64247, Note_on_c, 1, 65, 0
4, 64248, Note_on_c, 1, 67, 64
4, 64271, Note_on_c, 1, 67, 0
4, 64272, Note_on_c, 1, 65, 64
4, 64295, Note_on_c, 1, 65, 0
4, 64296, Note_on_c, 1, 67, 64
4, 64319, Note_on_c, 1, 67, 0
4, 64320, Note_on_c, 1, 63, 64
4, 64343, Note_on_c, 1, 63, 0
4, 64344, Note_on_c, 1, 67, 64
4, 64367, Note_on_c, 1, 67, 0
4, 64368, Note_on_c, 1, 63, 65
4, 64391, Note_on_c, 1, 63, 0
4, 64392, Note_on_c, 1, 67, 66
4, 64415, Note_on_c, 1, 67, 0
4, 64416, Note_on_c, 1, 62, 66
4, 64439, Note_on_c, 1, 62, 0
4, 64440, Note_on_c, 1, 67, 67
4, 64463, Note_on_c, 1, 67, 0
4, 64464, Note_on_c, 1, 62, 68
4, 64487, Note_on_c, 1, 62, 0
4, 64488, Note_on_c, 1, 67, 68
4, 64511, Note_on_c, 1, 67, 0
4, 64512, Note_on_c, 1, 63, 69
4, 64512, Note_on_c, 1, 60, 69
4, 64601, Note_on_c, 1, 63, 0
4, 64601, Note_on_c, 1, 60, 0
4, 64704, Note_on_c, 1, 60, 74
4, 64704, Note_on_c, 1, 56, 74
4, 64896, Note_on_c, 1, 60, 0
4, 64896, Note_on_c, 1, 56, 0
4, 64896, Note_on_c, 1, 59, 80
4, 64896, Note_on_c, 1, 55, 80
4, 64985, Note_on_c, 1, 59, 0
4, 64985, Note_on_c, 1, 55, 0
4, 65280, Note_on_c, 1, 55, 80
4, 65303, Note_on_c, 1, 55, 0
4, 65304, Note_on_c, 1, 54, 80
4, 65327, Note_on_c, 1, 54, 0
4, 65328, Note_on_c, 1, 55, 80
4, 65351, Note_on_c, 1, 55, 0
4, 65352, Note_on_c, 1, 50, 80
4, 65375, Note_on_c, 1, 50, 0
4, 65376, Note_on_c, 1, 51, 80
4, 65399, Note_on_c, 1, 51, 0
4, 65400, Note_on_c, 1, 50, 80
4, 65423, Note_on_c, 1, 50, 0
4, 65424, Note_on_c, 1, 51, 80
4, 65447, Note_on_c, 1, 51, 0
4, 65448, Note_on_c, 1, 47, 80
4, 65471, Note_on_c, 1, 47, 0
4, 65472, Note_on_c, 1, 48, 80
4, 65495, Note_on_c, 1, 48, 0
4, 65496, Note_on_c, 1, 47, 80
4, 65519, Note_on_c, 1, 47, 0
4, 65520, Note_on_c, 1, 48, 80
4, 65543, Note_on_c, 1, 48, 0
4, 65544, Note_on_c, 1, 43, 80
4, 65567, Note_on_c, 1, 43, 0
4, 65568, Note_on_c, 1, 44, 80
4, 65591, Note_on_c, 1, 44, 0
4, 65592, Note_on_c, 1, 43, 80
4, 65615, Note_on_c, 1, 43, 0
4, 65616, Note_on_c, 1, 44, 80
4, 65639, Note_on_c, 1, 44, 0
4, 65640, Note_on_c, 1, 42, 80
4, 65663, Note_on_c, 1, 42, 0
4, 65664, Control_c, 1, 64, 127
4, 65664, Note_on_c, 1, 55, 80
4, 65753, Note_on_c, 1, 55, 0
4, 65760, Note_on_c, 1, 55, 80
4, 65760, Note_on_c, 1, 50, 80
4, 65760, Note_on_c, 1, 47, 80
4, 65849, Note_on_c, 1, 55, 0
4, 65849, Note_on_c, 1, 50, 0
4, 65849, Note_on_c, 1, 47, 0
4, 65856, Control_c, 1, 64, 0
4, 65856, Note_on_c, 1, 55, 80
4, 65856, Note_on_c, 1, 50, 80
4, 65856, Note_on_c, 1, 47, 80
4, 65945, Note_on_c, 1, 55, 0
4, 65945, Note_on_c, 1, 50, 0
4, 65945, Note_on_c, 1, 47, 0
4, 66048, Control_c, 1, 64, 127
4, 66048, Note_on_c, 1, 72, 58
4, 66137, Note_on_c, 1, 72, 0
4, 66144, Note_on_c, 1, 67, 58
4, 66233, Note_on_c, 1, 67, 0
4, 66240, Note_on_c, 1, 64, 58
4, 66329, Note_on_c, 1, 64, 0
4, 66336, Note_on_c, 1, 69, 58
4, 66425, Note_on_c, 1, 69, 0
4, 66432, Note_on_c, 1, 62, 58
4, 66521, Note_on_c, 1, 62, 0
4, 66528, Note_on_c, 1, 67, 58
4, 66617, Note_on_c, 1, 67, 0
4, 66624, Note_on_c, 1, 60, 58
4, 66713, Note_on_c, 1, 60, 0
4, 66720, Note_on_c, 1, 76, 58
4, 66905, Note_on_c, 1, 76, 0
4, 66912, Note_on_c, 1, 74, 58
4, 67089, Note_on_c, 1, 74, 0
4, 67104, Note_on_c, 1, 72, 58
4, 67289, Note_on_c, 1, 72, 0
4, 67296, Note_on_c, 1, 71, 58
4, 67385, Note_on_c, 1, 71, 0
4, 67392, Note_on_c, 1, 72, 58
4, 67481, Note_on_c, 1, 72, 0
4, 67488, Note_on_c, 1, 67, 58
4, 67488, Note_on_c, 1, 64, 58
4, 67584, Note_on_c, 1, 67, 0
4, 67584, Note_on_c, 1, 64, 0
4, 67584, Control_c, 1, 64, 0
4, 67584, Note_on_c, 1, 69, 58
4, 67584, Note_on_c, 1, 65, 58
4, 67678, Note_on_c, 1, 69, 0
4, 67678, Note_on_c, 1, 65, 0
4, 67680, Note_on_c, 1, 69, 62
4, 67680, Note_on_c, 1, 66, 62
4, 67769, Note_on_c, 1, 69, 0
4, 67769, Note_on_c, 1, 66, 0
4, 67776, Note_on_c, 1, 67, 66
4, 67865, Note_on_c, 1, 67, 0
4, 67896, Note_on_c, 1, 67, 70
4, 67919, Note_on_c, 1, 67, 0
4, 67920, Note_on_c, 1, 65, 70
4, 67943, Note_on_c, 1, 65, 0
4, 67944, Note_on_c, 1, 62, 70
4, 67967, Note_on_c, 1, 62, 0
4, 67968, Note_on_c, 1, 64, 70
4, 68013, Note_on_c, 1, 64, 0
4, 68088, Note_on_c, 1, 64, 70
4, 68111, Note_on_c, 1, 64, 0
4, 68112, Note_on_c, 1, 62, 70
4, 68135, Note_on_c, 1, 62, 0
4, 68136, Note_on_c, 1, 60, 70
4, 68159, Note_on_c, 1, 60, 0
4, 68160, Note_on_c, 1, 59, 70
4, 68205, Note_on_c, 1, 59, 0
4, 68280, Note_on_c, 1, 67, 70
4, 68303, Note_on_c, 1, 67, 0
4, 68304, Note_on_c, 1, 65, 70
4, 68327, Note_on_c, 1, 65, 0
4, 68328, Note_on_c, 1, 62, 70
4, 68351, Note_on_c, 1, 62, 0
4, 68352, Note_on_c, 1, 60, 70
4, 68397, Note_on_c, 1, 60, 0
4, 68424, Note_on_c, 1, 67, 70
4, 68448, Note_on_c, 1, 67, 0
4, 68448, Note_on_c, 1, 64, 70
4, 68471, Note_on_c, 1, 64, 0
4, 68520, Note_on_c, 1, 72, 66
4, 68544, Note_on_c, 1, 72, 0
4, 68544, Note_on_c, 1, 67, 67
4, 68567, Note_on_c, 1, 67, 0
4, 68616, Note_on_c, 1, 76, 70
4, 68640, Note_on_c, 1, 76, 0
4, 68640, Note_on_c, 1, 72, 71
4, 68663, Note_on_c, 1, 72, 0
4, 68712, Note_on_c, 1, 80, 74
4, 68736, Note_on_c, 1, 80, 0
4, 68736, Note_on_c, 1, 81, 75
4, 68759, Note_on_c, 1, 81, 0
4, 68808, Note_on_c, 1, 76, 75
4, 68832, Note_on_c, 1, 76, 0
4, 68832, Note_on_c, 1, 77, 75
4, 68855, Note_on_c, 1, 77, 0
4, 68904, Note_on_c, 1, 73, 75
4, 68928, Note_on_c, 1, 73, 0
4, 68928, Note_on_c, 1, 74, 75
4, 68951, Note_on_c, 1, 74, 0
4, 69000, Note_on_c, 1, 64, 75
4, 69024, Note_on_c, 1, 64, 0
4, 69024, Note_on_c, 1, 65, 75
4, 69047, Note_on_c, 1, 65, 0
4, 69096, Note_on_c, 1, 54, 75
4, 69120, Note_on_c, 1, 54, 0
4, 69120, Note_on_c, 1, 55, 75
4, 69209, Note_on_c, 1, 55, 0
4, 69504, Note_on_c, 1, 65, 80
4, 69504, Note_on_c, 1, 62, 80
4, 69504, Note_on_c, 1, 59, 80
4, 69504, Note_on_c, 1, 55, 80
4, 69681, Note_on_c, 1, 65, 0
4, 69681, Note_on_c, 1, 62, 0
4, 69681, Note_on_c, 1, 59, 0
4, 69681, Note_on_c, 1, 55, 0
4, 69696, Note_on_c, 1, 81, 70
4, 69732, Note_on_c, 1, 81, 0
4, 69732, Note_on_c, 1, 83, 64
4, 69744, Note_on_c, 1, 83, 0
4, 69744, Note_on_c, 1, 84, 64
4, 69756, Note_on_c, 1, 84, 0
4, 69756, Note_on_c, 1, 83, 64
4, 69768, Note_on_c, 1, 83, 0
4, 69768, Note_on_c, 1, 84, 64
4, 69780, Note_on_c, 1, 84, 0
4, 69780, Note_on_c, 1, 83, 64
4, 69792, Note_on_c, 1, 83, 0
4, 69792, Note_on_c, 1, 84, 64
4, 69804, Note_on_c, 1, 84, 0
4, 69804, Note_on_c, 1, 83, 64
4, 69816, Note_on_c, 1, 83, 0
4, 69816, Note_on_c, 1, 84, 64
4, 69828, Note_on_c, 1, 84, 0
4, 69828, Note_on_c, 1, 83, 64
4, 69840, Note_on_c, 1, 83, 0
4, 69840, Note_on_c, 1, 84, 64
4, 69852, Note_on_c, 1, 84, 0
4, 69852, Note_on_c, 1, 83, 64
4, 69864, Note_on_c, 1, 83, 0
4, 69864, Note_on_c, 1, 81, 64
4, 69876, Note_on_c, 1, 81, 0
4, 69876, Note_on_c, 1, 83, 64
4, 69888, Note_on_c, 1, 83, 0
4, 69888, Control_c, 1, 64, 127
4, 69888, Note_on_c, 1, 48, 80
4, 69912, Note_on_c, 1, 48, 0
4, 69912, Note_on_c, 1, 60, 64
4, 69935, Note_on_c, 1, 60, 0
4, 69936, Note_on_c, 1, 48, 64
4, 69959, Note_on_c, 1, 48, 0
4, 69960, Note_on_c, 1, 60, 64
4, 69983, Note_on_c, 1, 60, 0
4, 69984, Note_on_c, 1, 48, 64
4, 70007, Note_on_c, 1, 48, 0
4, 70008, Note_on_c, 1, 60, 64
4, 70031, Note_on_c, 1, 60, 0
4, 70032, Note_on_c, 1, 48, 64
4, 70055, Note_on_c, 1, 48, 0
4, 70056, Note_on_c, 1, 60, 64
4, 70079, Note_on_c, 1, 60, 0
4, 70080, Note_on_c, 1, 48, 64
4, 70103, Note_on_c, 1, 48, 0
4, 70104, Note_on_c, 1, 60, 64
4, 70127, Note_on_c, 1, 60, 0
4, 70128, Note_on_c, 1, 48, 64
4, 70151, Note_on_c, 1, 48, 0
4, 70152, Note_on_c, 1, 60, 64
4, 70175, Note_on_c, 1, 60, 0
4, 70176, Note_on_c, 1, 48, 64
4, 70199, Note_on_c, 1, 48, 0
4, 70200, Note_on_c, 1, 60, 64
4, 70223, Note_on_c, 1, 60, 0
4, 70224, Note_on_c, 1, 48, 64
4, 70247, Note_on_c, 1, 48, 0
4, 70248, Note_on_c, 1, 60, 64
4, 70271, Note_on_c, 1, 60, 0
4, 70272, Note_on_c, 1, 48, 64
4, 70295, Note_on_c, 1, 48, 0
4, 70296, Note_on_c, 1, 60, 64
4, 70319, Note_on_c, 1, 60, 0
4, 70320, Note_on_c, 1, 48, 64
4, 70343, Note_on_c, 1, 48, 0
4, 70344, Note_on_c, 1, 60, 64
4, 70367, Note_on_c, 1, 60, 0
4, 70368, Note_on_c, 1, 48, 64
4, 70391, Note_on_c, 1, 48, 0
4, 70392, Note_on_c, 1, 60, 64
4, 70415, Note_on_c, 1, 60, 0
4, 70416, Note_on_c, 1, 48, 64
4, 70439, Note_on_c, 1, 48, 0
4, 70440, Note_on_c, 1, 60, 64
4, 70463, Note_on_c, 1, 60, 0
4, 70464, Note_on_c, 1, 48, 64
4, 70487, Note_on_c, 1, 48, 0
4, 70488, Note_on_c, 1, 60, 64
4, 70511, Note_on_c, 1, 60, 0
4, 70512, Note_on_c, 1, 48, 64
4, 70535, Note_on_c, 1, 48, 0
4, 70536, Note_on_c, 1, 60, 64
4, 70559, Note_on_c, 1, 60, 0
4, 70560, Note_on_c, 1, 48, 64
4, 70583, Note_on_c, 1, 48, 0
4, 70584, Note_on_c, 1, 60, 64
4, 70607, Note_on_c, 1, 60, 0
4, 70608, Note_on_c, 1, 48, 64
4, 70631, Note_on_c, 1, 48, 0
4, 70632, Note_on_c, 1, 60, 64
4, 70655, Note_on_c, 1, 60, 0
4, 70656, Note_on_c, 1, 48, 64
4, 70679, Note_on_c, 1, 48, 0
4, 70680, Note_on_c, 1, 60, 64
4, 70703, Note_on_c, 1, 60, 0
4, 70704, Note_on_c, 1, 48, 64
4, 70727, Note_on_c, 1, 48, 0
4, 70728, Note_on_c, 1, 60, 64
4, 70751, Note_on_c, 1, 60, 0
4, 70752, Note_on_c, 1, 48, 64
4, 70775, Note_on_c, 1, 48, 0
4, 70776, Note_on_c, 1, 60, 64
4, 70799, Note_on_c, 1, 60, 0
4, 70800, Note_on_c, 1, 48, 64
4, 70823, Note_on_c, 1, 48, 0
4, 70824, Note_on_c, 1, 60, 64
4, 70847, Note_on_c, 1, 60, 0
4, 70848, Note_on_c, 1, 48, 64
4, 70871, Note_on_c, 1, 48, 0
4, 70872, Note_on_c, 1, 60, 64
4, 70895, Note_on_c, 1, 60, 0
4, 70896, Note_on_c, 1, 48, 64
4, 70919, Note_on_c, 1, 48, 0
4, 70920, Note_on_c, 1, 60, 64
4, 70943, Note_on_c, 1, 60, 0
4, 70944, Note_on_c, 1, 48, 64
4, 70967, Note_on_c, 1, 48, 0
4, 70968, Note_on_c, 1, 60, 64
4, 70991, Note_on_c, 1, 60, 0
4, 70992, Note_on_c, 1, 48, 64
4, 71015, Note_on_c, 1, 48, 0
4, 71016, Note_on_c, 1, 60, 64
4, 71039, Note_on_c, 1, 60, 0
4, 71040, Note_on_c, 1, 48, 64
4, 71063, Note_on_c, 1, 48, 0
4, 71064, Note_on_c, 1, 60, 64
4, 71087, Note_on_c, 1, 60, 0
4, 71088, Note_on_c, 1, 48, 64
4, 71111, Note_on_c, 1, 48, 0
4, 71112, Note_on_c, 1, 60, 64
4, 71135, Note_on_c, 1, 60, 0
4, 71136, Note_on_c, 1, 48, 64
4, 71159, Note_on_c, 1, 48, 0
4, 71160, Note_on_c, 1, 60, 64
4, 71183, Note_on_c, 1, 60, 0
4, 71184, Note_on_c, 1, 48, 64
4, 71207, Note_on_c, 1, 48, 0
4, 71208, Control_c, 1, 64, 0
4, 71208, Note_on_c, 1, 60, 64
4, 71231, Note_on_c, 1, 60, 0
4, 71232, Control_c, 1, 64, 127
4, 71232, Note_on_c, 1, 48, 64
4, 71255, Note_on_c, 1, 48, 0
4, 71256, Note_on_c, 1, 58, 64
4, 71279, Note_on_c, 1, 58, 0
4, 71280, Note_on_c, 1, 48, 64
4, 71303, Note_on_c, 1, 48, 0
4, 71304, Note_on_c, 1, 58, 64
4, 71327, Note_on_c, 1, 58, 0
4, 71328, Note_on_c, 1, 48, 64
4, 71351, Note_on_c, 1, 48, 0
4, 71352, Note_on_c, 1, 58, 64
4, 71375, Note_on_c, 1, 58, 0
4, 71376, Note_on_c, 1, 48, 64
4, 71399, Note_on_c, 1, 48, 0
4, 71400, Control_c, 1, 64, 0
4, 71400, Note_on_c, 1, 58, 64
4, 71423, Note_on_c, 1, 58, 0
4, 71424, Control_c, 1, 64, 127
4, 71424, Note_on_c, 1, 48, 64
4, 71447, Note_on_c, 1, 48, 0
4, 71448, Note_on_c, 1, 56, 64
4, 71471, Note_on_c, 1, 56, 0
4, 71472, Note_on_c, 1, 48, 64
4, 71495, Note_on_c, 1, 48, 0
4, 71496, Note_on_c, 1, 56, 64
4, 71519, Note_on_c, 1, 56, 0
4, 71520, Note_on_c, 1, 48, 64
4, 71543, Note_on_c, 1, 48, 0
4, 71544, Note_on_c, 1, 56, 64
4, 71567, Note_on_c, 1, 56, 0
4, 71568, Note_on_c, 1, 48, 64
4, 71591, Note_on_c, 1, 48, 0
4, 71592, Control_c, 1, 64, 0
4, 71592, Note_on_c, 1, 56, 64
4, 71615, Note_on_c, 1, 56, 0
4, 71616, Control_c, 1, 64, 127
4, 71616, Note_on_c, 1, 50, 82
4, 71639, Note_on_c, 1, 50, 0
4, 71640, Note_on_c, 1, 56, 64
4, 71663, Note_on_c, 1, 56, 0
4, 71664, Note_on_c, 1, 50, 64
4, 71687, Note_on_c, 1, 50, 0
4, 71688, Note_on_c, 1, 56, 64
4, 71711, Note_on_c, 1, 56, 0
4, 71712, Note_on_c, 1, 50, 64
4, 71735, Note_on_c, 1, 50, 0
4, 71736, Note_on_c, 1, 56, 64
4, 71759, Note_on_c, 1, 56, 0
4, 71760, Note_on_c, 1, 50, 64
4, 71783, Note_on_c, 1, 50, 0
4, 71784, Control_c, 1, 64, 0
4, 71784, Note_on_c, 1, 56, 64
4, 71807, Note_on_c, 1, 56, 0
4, 71808, Control_c, 1, 64, 127
4, 71808, Note_on_c, 1, 52, 64
4, 71831, Note_on_c, 1, 52, 0
4, 71832, Note_on_c, 1, 55, 64
4, 71855, Note_on_c, 1, 55, 0
4, 71856, Note_on_c, 1, 52, 64
4, 71879, Note_on_c, 1, 52, 0
4, 71880, Note_on_c, 1, 55, 64
4, 71903, Note_on_c, 1, 55, 0
4, 71904, Note_on_c, 1, 52, 64
4, 71927, Note_on_c, 1, 52, 0
4, 71928, Note_on_c, 1, 60, 64
4, 71951, Note_on_c, 1, 60, 0
4, 71952, Note_on_c, 1, 52, 64
4, 71975, Note_on_c, 1, 52, 0
4, 71976, Control_c, 1, 64, 0
4, 71976, Note_on_c, 1, 60, 64
4, 71999, Note_on_c, 1, 60, 0
4, 72000, Control_c, 1, 64, 127
4, 72000, Note_on_c, 1, 53, 64
4, 72023, Note_on_c, 1, 53, 0
4, 72024, Note_on_c, 1, 60, 64
4, 72047, Note_on_c, 1, 60, 0
4, 72048, Note_on_c, 1, 53, 64
4, 72071, Note_on_c, 1, 53, 0
4, 72072, Control_c, 1, 64, 0
4, 72072, Note_on_c, 1, 60, 64
4, 72095, Note_on_c, 1, 60, 0
4, 72096, Control_c, 1, 64, 127
4, 72096, Note_on_c, 1, 53, 64
4, 72119, Note_on_c, 1, 53, 0
4, 72120, Note_on_c, 1, 61, 64
4, 72143, Note_on_c, 1, 61, 0
4, 72144, Note_on_c, 1, 53, 64
4, 72167, Note_on_c, 1, 53, 0
4, 72168, Control_c, 1, 64, 0
4, 72168, Note_on_c, 1, 61, 64
4, 72191, Note_on_c, 1, 61, 0
4, 72192, Control_c, 1, 64, 127
4, 72192, Note_on_c, 1, 53, 64
4, 72215, Note_on_c, 1, 53, 0
4, 72216, Note_on_c, 1, 62, 64
4, 72239, Note_on_c, 1, 62, 0
4, 72240, Note_on_c, 1, 53, 64
4, 72263, Note_on_c, 1, 53, 0
4, 72264, Note_on_c, 1, 62, 64
4, 72287, Note_on_c, 1, 62, 0
4, 72288, Note_on_c, 1, 53, 64
4, 72311, Note_on_c, 1, 53, 0
4, 72312, Note_on_c, 1, 62, 64
4, 72335, Note_on_c, 1, 62, 0
4, 72336, Note_on_c, 1, 53, 64
4, 72359, Note_on_c, 1, 53, 0
4, 72360, Control_c, 1, 64, 0
4, 72360, Note_on_c, 1, 62, 64
4, 72383, Note_on_c, 1, 62, 0
4, 72384, Control_c, 1, 64, 127
4, 72384, Note_on_c, 1, 54, 82
4, 72407, Note_on_c, 1, 54, 0
4, 72408, Note_on_c, 1, 60, 64
4, 72431, Note_on_c, 1, 60, 0
4, 72432, Note_on_c, 1, 54, 64
4, 72455, Note_on_c, 1, 54, 0
4, 72456, Note_on_c, 1, 60, 64
4, 72479, Note_on_c, 1, 60, 0
4, 72480, Note_on_c, 1, 54, 64
4, 72503, Note_on_c, 1, 54, 0
4, 72504, Note_on_c, 1, 60, 64
4, 72527, Note_on_c, 1, 60, 0
4, 72528, Note_on_c, 1, 54, 64
4, 72551, Note_on_c, 1, 54, 0
4, 72552, Control_c, 1, 64, 0
4, 72552, Note_on_c, 1, 60, 64
4, 72575, Note_on_c, 1, 60, 0
4, 72576, Control_c, 1, 64, 127
4, 72576, Note_on_c, 1, 55, 64
4, 72599, Note_on_c, 1, 55, 0
4, 72600, Note_on_c, 1, 60, 64
4, 72623, Note_on_c, 1, 60, 0
4, 72624, Note_on_c, 1, 55, 64
4, 72647, Note_on_c, 1, 55, 0
4, 72648, Note_on_c, 1, 60, 64
4, 72671, Note_on_c, 1, 60, 0
4, 72672, Note_on_c, 1, 55, 64
4, 72695, Note_on_c, 1, 55, 0
4, 72696, Note_on_c, 1, 60, 64
4, 72719, Note_on_c, 1, 60, 0
4, 72720, Note_on_c, 1, 55, 64
4, 72743, Note_on_c, 1, 55, 0
4, 72744, Control_c, 1, 64, 0
4, 72744, Note_on_c, 1, 60, 64
4, 72767, Note_on_c, 1, 60, 0
4, 72768, Control_c, 1, 64, 127
4, 72768, Note_on_c, 1, 55, 64
4, 72791, Note_on_c, 1, 55, 0
4, 72792, Note_on_c, 1, 59, 64
4, 72815, Note_on_c, 1, 59, 0
4, 72816, Note_on_c, 1, 55, 64
4, 72839, Note_on_c, 1, 55, 0
4, 72840, Note_on_c, 1, 59, 64
4, 72863, Note_on_c, 1, 59, 0
4, 72864, Note_on_c, 1, 55, 64
4, 72887, Note_on_c, 1, 55, 0
4, 72888, Note_on_c, 1, 59, 64
4, 72911, Note_on_c, 1, 59, 0
4, 72912, Note_on_c, 1, 55, 64
4, 72935, Note_on_c, 1, 55, 0
4, 72936, Control_c, 1, 64, 0
4, 72936, Note_on_c, 1, 59, 64
4, 72959, Note_on_c, 1, 59, 0
4, 72960, Note_on_c, 1, 60, 64
4, 73005, Note_on_c, 1, 60, 0
4, 73008, Note_on_c, 1, 55, 80
4, 73008, Note_on_c, 1, 52, 80
4, 73008, Note_on_c, 1, 48, 80
4, 73028, Note_on_c, 1, 55, 0
4, 73028, Note_on_c, 1, 52, 0
4, 73028, Note_on_c, 1, 48, 0
4, 73056, Note_on_c, 1, 55, 80
4, 73056, Note_on_c, 1, 50, 80
4, 73056, Note_on_c, 1, 47, 80
4, 73076, Note_on_c, 1, 55, 0
4, 73076, Note_on_c, 1, 50, 0
4, 73076, Note_on_c, 1, 47, 0
4, 73104, Note_on_c, 1, 55, 80
4, 73104, Note_on_c, 1, 52, 80
4, 73104, Note_on_c, 1, 48, 80
4, 73124, Note_on_c, 1, 55, 0
4, 73124, Note_on_c, 1, 52, 0
4, 73124, Note_on_c, 1, 48, 0
4, 73152, Note_on_c, 1, 53, 80
4, 73152, Note_on_c, 1, 41, 80
4, 73197, Note_on_c, 1, 53, 0
4, 73197, Note_on_c, 1, 41, 0
4, 73296, Note_on_c, 1, 55, 64
4, 73296, Note_on_c, 1, 47, 64
4, 73341, Note_on_c, 1, 55, 0
4, 73341, Note_on_c, 1, 47, 0
4, 73344, Note_on_c, 1, 60, 64
4, 73389, Note_on_c, 1, 60, 0
4, 73392, Note_on_c, 1, 55, 80
4, 73392, Note_on_c, 1, 52, 80
4, 73392, Note_on_c, 1, 48, 80
4, 73412, Note_on_c, 1, 55, 0
4, 73412, Note_on_c, 1, 52, 0
4, 73412, Note_on_c, 1, 48, 0
4, 73440, Note_on_c, 1, 55, 80
4, 73440, Note_on_c, 1, 50, 80
4, 73440, Note_on_c, 1, 47, 80
4, 73460, Note_on_c, 1, 55, 0
4, 73460, Note_on_c, 1, 50, 0
4, 73460, Note_on_c, 1, 47, 0
4, 73488, Note_on_c, 1, 55, 80
4, 73488, Note_on_c, 1, 52, 80
4, 73488, Note_on_c, 1, 48, 80
4, 73508, Note_on_c, 1, 55, 0
4, 73508, Note_on_c, 1, 52, 0
4, 73508, Note_on_c, 1, 48, 0
4, 73536, Note_on_c, 1, 53, 80
4, 73536, Note_on_c, 1, 41, 80
4, 73581, Note_on_c, 1, 53, 0
4, 73581, Note_on_c, 1, 41, 0
4, 73680, Note_on_c, 1, 55, 64
4, 73680, Note_on_c, 1, 47, 64
4, 73725, Note_on_c, 1, 55, 0
4, 73725, Note_on_c, 1, 47, 0
4, 73728, Note_on_c, 1, 48, 64
4, 73748, Note_on_c, 1, 48, 0
4, 73776, Note_on_c, 1, 48, 80
4, 73791, Note_on_c, 1, 48, 0
4, 73792, Note_on_c, 1, 52, 80
4, 73807, Note_on_c, 1, 52, 0
4, 73808, Note_on_c, 1, 55, 80
4, 73823, Note_on_c, 1, 55, 0
4, 73824, Note_on_c, 1, 47, 80
4, 73839, Note_on_c, 1, 47, 0
4, 73840, Note_on_c, 1, 50, 80
4, 73855, Note_on_c, 1, 50, 0
4, 73856, Note_on_c, 1, 55, 80
4, 73871, Note_on_c, 1, 55, 0
4, 73872, Note_on_c, 1, 48, 80
4, 73887, Note_on_c, 1, 48, 0
4, 73888, Note_on_c, 1, 52, 80
4, 73903, Note_on_c, 1, 52, 0
4, 73904, Note_on_c, 1, 55, 80
4, 73919, Note_on_c, 1, 55, 0
4, 73920, Note_on_c, 1, 41, 80
4, 73965, Note_on_c, 1, 41, 0
4, 74016, Note_on_c, 1, 57, 80
4, 74016, Note_on_c, 1, 53, 80
4, 74036, Note_on_c, 1, 57, 0
4, 74036, Note_on_c, 1, 53, 0
4, 74112, Note_on_c, 1, 57, 80
4, 74112, Note_on_c, 1, 53, 80
4, 74132, Note_on_c, 1, 57, 0
4, 74132, Note_on_c, 1, 53, 0
4, 74208, Note_on_c, 1, 57, 78
4, 74208, Note_on_c, 1, 53, 78
4, 74228, Note_on_c, 1, 57, 0
4, 74228, Note_on_c, 1, 53, 0
4, 74304, Note_on_c, 1, 57, 77
4, 74304, Note_on_c, 1, 53, 77
4, 74324, Note_on_c, 1, 57, 0
4, 74324, Note_on_c, 1, 53, 0
4, 74400, Note_on_c, 1, 57, 76
4, 74400, Note_on_c, 1, 53, 76
4, 74420, Note_on_c, 1, 57, 0
4, 74420, Note_on_c, 1, 53, 0
4, 74496, Note_on_c, 1, 64, 75
4, 74496, Note_on_c, 1, 60, 75
4, 74496, Note_on_c, 1, 55, 75
4, 74590, Note_on_c, 1, 64, 0
4, 74590, Note_on_c, 1, 60, 0
4, 74590, Note_on_c, 1, 55, 0
4, 74688, Note_on_c, 1, 55, 80
4, 74699, Note_on_c, 1, 59, 80
4, 74710, Note_on_c, 1, 62, 80
4, 74721, Note_on_c, 1, 65, 80
4, 74878, Note_on_c, 1, 65, 0
4, 74878, Note_on_c, 1, 62, 0
4, 74878, Note_on_c, 1, 59, 0
4, 74878, Note_on_c, 1, 55, 0
4, 74880, Note_on_c, 1, 64, 64
4, 74903, Note_on_c, 1, 64, 0
4, 74904, Note_on_c, 1, 67, 64
4, 74927, Note_on_c, 1, 67, 0
4, 74928, Note_on_c, 1, 64, 64
4, 74951, Note_on_c, 1, 64, 0
4, 74952, Note_on_c, 1, 67, 64
4, 74975, Note_on_c, 1, 67, 0
4, 74976, Note_on_c, 1, 64, 64
4, 74999, Note_on_c, 1, 64, 0
4, 75000, Note_on_c, 1, 67, 64
4, 75023, Note_on_c, 1, 67, 0
4, 75024, Note_on_c, 1, 64, 64
4, 75047, Note_on_c, 1, 64, 0
4, 75048, Note_on_c, 1, 67, 64
4, 75071, Note_on_c, 1, 67, 0
4, 75072, Note_on_c, 1, 64, 64
4, 75095, Note_on_c, 1, 64, 0
4, 75096, Note_on_c, 1, 67, 64
4, 75119, Note_on_c, 1, 67, 0
4, 75120, Note_on_c, 1, 64, 64
4, 75143, Note_on_c, 1, 64, 0
4, 75144, Note_on_c, 1, 67, 64
4, 75167, Note_on_c, 1, 67, 0
4, 75168, Note_on_c, 1, 64, 64
4, 75191, Note_on_c, 1, 64, 0
4, 75192, Note_on_c, 1, 67, 64
4, 75215, Note_on_c, 1, 67, 0
4, 75216, Note_on_c, 1, 64, 64
4, 75239, Note_on_c, 1, 64, 0
4, 75240, Note_on_c, 1, 67, 64
4, 75263, Note_on_c, 1, 67, 0
4, 75264, Control_c, 1, 64, 127
4, 75264, Note_on_c, 1, 65, 64
4, 75287, Note_on_c, 1, 65, 0
4, 75288, Note_on_c, 1, 67, 64
4, 75311, Note_on_c, 1, 67, 0
4, 75312, Note_on_c, 1, 65, 64
4, 75335, Note_on_c, 1, 65, 0
4, 75336, Note_on_c, 1, 67, 64
4, 75359, Note_on_c, 1, 67, 0
4, 75360, Note_on_c, 1, 65, 64
4, 75383, Note_on_c, 1, 65, 0
4, 75384, Note_on_c, 1, 67, 64
4, 75407, Note_on_c, 1, 67, 0
4, 75408, Note_on_c, 1, 65, 64
4, 75431, Note_on_c, 1, 65, 0
4, 75432, Note_on_c, 1, 67, 64
4, 75455, Note_on_c, 1, 67, 0
4, 75456, Note_on_c, 1, 65, 64
4, 75479, Note_on_c, 1, 65, 0
4, 75480, Note_on_c, 1, 67, 64
4, 75503, Note_on_c, 1, 67, 0
4, 75504, Note_on_c, 1, 65, 64
4, 75527, Note_on_c, 1, 65, 0
4, 75528, Note_on_c, 1, 67, 64
4, 75551, Note_on_c, 1, 67, 0
4, 75552, Note_on_c, 1, 65, 64
4, 75575, Note_on_c, 1, 65, 0
4, 75576, Note_on_c, 1, 67, 64
4, 75599, Note_on_c, 1, 67, 0
4, 75600, Note_on_c, 1, 65, 64
4, 75623, Note_on_c, 1, 65, 0
4, 75624, Control_c, 1, 64, 0
4, 75624, Note_on_c, 1, 67, 64
4, 75647, Note_on_c, 1, 67, 0
4, 75648, Note_on_c, 1, 64, 64
4, 75671, Note_on_c, 1, 64, 0
4, 75672, Note_on_c, 1, 67, 64
4, 75695, Note_on_c, 1, 67, 0
4, 75696, Note_on_c, 1, 64, 64
4, 75719, Note_on_c, 1, 64, 0
4, 75720, Note_on_c, 1, 67, 64
4, 75743, Note_on_c, 1, 67, 0
4, 75744, Note_on_c, 1, 64, 64
4, 75767, Note_on_c, 1, 64, 0
4, 75768, Note_on_c, 1, 67, 64
4, 75791, Note_on_c, 1, 67, 0
4, 75792, Note_on_c, 1, 64, 64
4, 75815, Note_on_c, 1, 64, 0
4, 75816, Note_on_c, 1, 67, 64
4, 75839, Note_on_c, 1, 67, 0
4, 75840, Note_on_c, 1, 64, 64
4, 75863, Note_on_c, 1, 64, 0
4, 75864, Note_on_c, 1, 67, 64
4, 75887, Note_on_c, 1, 67, 0
4, 75888, Note_on_c, 1, 64, 64
4, 75911, Note_on_c, 1, 64, 0
4, 75912, Note_on_c, 1, 67, 64
4, 75935, Note_on_c, 1, 67, 0
4, 75936, Note_on_c, 1, 64, 64
4, 75959, Note_on_c, 1, 64, 0
4, 75960, Note_on_c, 1, 67, 64
4, 75983, Note_on_c, 1, 67, 0
4, 75984, Note_on_c, 1, 64, 64
4, 76007, Note_on_c, 1, 64, 0
4, 76008, Note_on_c, 1, 67, 64
4, 76031, Note_on_c, 1, 67, 0
4, 76032, Control_c, 1, 64, 127
4, 76032, Note_on_c, 1, 65, 64
4, 76055, Note_on_c, 1, 65, 0
4, 76056, Note_on_c, 1, 67, 64
4, 76079, Note_on_c, 1, 67, 0
4, 76080, Note_on_c, 1, 65, 64
4, 76103, Note_on_c, 1, 65, 0
4, 76104, Note_on_c, 1, 67, 64
4, 76127, Note_on_c, 1, 67, 0
4, 76128, Note_on_c, 1, 65, 64
4, 76151, Note_on_c, 1, 65, 0
4, 76152, Note_on_c, 1, 67, 64
4, 76175, Note_on_c, 1, 67, 0
4, 76176, Note_on_c, 1, 65, 64
4, 76199, Note_on_c, 1, 65, 0
4, 76200, Note_on_c, 1, 67, 64
4, 76223, Note_on_c, 1, 67, 0
4, 76224, Note_on_c, 1, 65, 64
4, 76247, Note_on_c, 1, 65, 0
4, 76248, Note_on_c, 1, 67, 64
4, 76271, Note_on_c, 1, 67, 0
4, 76272, Note_on_c, 1, 65, 64
4, 76295, Note_on_c, 1, 65, 0
4, 76296, Note_on_c, 1, 67, 64
4, 76319, Note_on_c, 1, 67, 0
4, 76320, Note_on_c, 1, 65, 64
4, 76343, Note_on_c, 1, 65, 0
4, 76344, Note_on_c, 1, 67, 64
4, 76367, Note_on_c, 1, 67, 0
4, 76368, Note_on_c, 1, 65, 64
4, 76391, Note_on_c, 1, 65, 0
4, 76392, Control_c, 1, 64, 0
4, 76392, Note_on_c, 1, 67, 64
4, 76415, Note_on_c, 1, 67, 0
4, 76416, Note_on_c, 1, 64, 64
4, 76416, Note_on_c, 1, 60, 64
4, 76505, Note_on_c, 1, 64, 0
4, 76505, Note_on_c, 1, 60, 0
4, 76608, Note_on_c, 1, 65, 72
4, 76608, Note_on_c, 1, 62, 72
4, 76608, Note_on_c, 1, 55, 72
4, 76697, Note_on_c, 1, 65, 0
4, 76697, Note_on_c, 1, 62, 0
4, 76697, Note_on_c, 1, 55, 0
4, 76800, Note_on_c, 1, 64, 80
4, 76800, Note_on_c, 1, 60, 80
4, 76845, Note_on_c, 1, 64, 0
4, 76845, Note_on_c, 1, 60, 0
4, 77040, Note_on_c, 1, 53, 80
4, 77064, Note_on_c, 1, 53, 0
4, 77064, Note_on_c, 1, 50, 80
4, 77087, Note_on_c, 1, 50, 0
4, 77088, Note_on_c, 1, 55, 80
4, 77108, Note_on_c, 1, 55, 0
4, 77136, Note_on_c, 1, 55, 80
4, 77136, Note_on_c, 1, 43, 80
4, 77156, Note_on_c, 1, 55, 0
4, 77156, Note_on_c, 1, 43, 0
4, 77184, Note_on_c, 1, 48, 80
4, 77184, Note_on_c, 1, 36, 80
4, 77229, Note_on_c, 1, 48, 0
4, 77229, Note_on_c, 1, 36, 0
4, 77424, Note_on_c, 1, 53, 80
4, 77448, Note_on_c, 1, 53, 0
4, 77448, Note_on_c, 1, 50, 80
4, 77471, Note_on_c, 1, 50, 0
4, 77472, Note_on_c, 1, 55, 80
4, 77492, Note_on_c, 1, 55, 0
4, 77520, Note_on_c, 1, 55, 80
4, 77520, Note_on_c, 1, 43, 80
4, 77540, Note_on_c, 1, 55, 0
4, 77540, Note_on_c, 1, 43, 0
4, 77568, Note_on_c, 1, 48, 80
4, 77568, Note_on_c, 1, 36, 80
4, 77613, Note_on_c, 1, 48, 0
4, 77613, Note_on_c, 1, 36, 0
4, 77664, Note_on_c, 1, 43, 86
4, 77670, Note_on_c, 1, 47, 86
4, 77676, Note_on_c, 1, 50, 86
4, 77682, Note_on_c, 1, 55, 86
4, 77709, Note_on_c, 1, 55, 0
4, 77709, Note_on_c, 1, 50, 0
4, 77709, Note_on_c, 1, 47, 0
4, 77709, Note_on_c, 1, 43, 0
4, 77760, Note_on_c, 1, 36, 86
4, 77766, Note_on_c, 1, 40, 86
4, 77772, Note_on_c, 1, 43, 86
4, 77778, Note_on_c, 1, 48, 86
4, 77853, Note_on_c, 1, 48, 0
4, 77853, Note_on_c, 1, 43, 0
4, 77853, Note_on_c, 1, 40, 0
4, 77853, Note_on_c, 1, 36, 0
4, 77952, Note_on_c, 1, 67, 64
4, 77972, Note_on_c, 1, 67, 0
4, 78048, Note_on_c, 1, 62, 64
4, 78068, Note_on_c, 1, 62, 0
4, 78144, Note_on_c, 1, 58, 64
4, 78233, Note_on_c, 1, 58, 0
4, 78288, Note_on_c, 1, 63, 64
4, 78336, Note_on_c, 1, 63, 0
4, 78336, Note_on_c, 1, 57, 64
4, 78425, Note_on_c, 1, 57, 0
4, 78480, Note_on_c, 1, 62, 64
4, 78528, Note_on_c, 1, 62, 0
4, 78528, Note_on_c, 1, 55, 64
4, 78617, Note_on_c, 1, 55, 0
4, 78624, Note_on_c, 1, 58, 64
4, 78713, Note_on_c, 1, 58, 0
4, 78744, Note_on_c, 1, 45, 65
4, 78767, Note_on_c, 1, 45, 0
4, 78768, Note_on_c, 1, 47, 66
4, 78791, Note_on_c, 1, 47, 0
4, 78792, Note_on_c, 1, 49, 68
4, 78815, Note_on_c, 1, 49, 0
4, 78816, Note_on_c, 1, 50, 69
4, 78839, Note_on_c, 1, 50, 0
4, 78840, Note_on_c, 1, 52, 70
4, 78863, Note_on_c, 1, 52, 0
4, 78864, Note_on_c, 1, 54, 72
4, 78887, Note_on_c, 1, 54, 0
4, 78888, Note_on_c, 1, 56, 73
4, 78911, Note_on_c, 1, 56, 0
4, 78912, Note_on_c, 1, 57, 75
4, 78935, Note_on_c, 1, 57, 0
4, 78936, Note_on_c, 1, 56, 73
4, 78959, Note_on_c, 1, 56, 0
4, 78960, Note_on_c, 1, 57, 72
4, 78983, Note_on_c, 1, 57, 0
4, 78984, Note_on_c, 1, 58, 70
4, 79007, Note_on_c, 1, 58, 0
4, 79008, Note_on_c, 1, 57, 69
4, 79031, Note_on_c, 1, 57, 0
4, 79032, Note_on_c, 1, 55, 68
4, 79055, Note_on_c, 1, 55, 0
4, 79056, Note_on_c, 1, 53, 66
4, 79079, Note_on_c, 1, 53, 0
4, 79080, Note_on_c, 1, 52, 65
4, 79103, Note_on_c, 1, 52, 0
4, 79104, Note_on_c, 1, 53, 64
4, 79193, Note_on_c, 1, 53, 0
4, 79248, Note_on_c, 1, 57, 64
4, 79293, Note_on_c, 1, 57, 0
4, 79296, Note_on_c, 1, 69, 64
4, 79319, Note_on_c, 1, 69, 0
4, 79320, Note_on_c, 1, 68, 68
4, 79343, Note_on_c, 1, 68, 0
4, 79344, Note_on_c, 1, 69, 72
4, 79367, Note_on_c, 1, 69, 0
4, 79368, Note_on_c, 1, 70, 76
4, 79391, Note_on_c, 1, 70, 0
4, 79392, Note_on_c, 1, 69, 80
4, 79415, Note_on_c, 1, 69, 0
4, 79416, Note_on_c, 1, 67, 76
4, 79439, Note_on_c, 1, 67, 0
4, 79440, Note_on_c, 1, 65, 72
4, 79463, Note_on_c, 1, 65, 0
4, 79464, Note_on_c, 1, 64, 68
4, 79487, Note_on_c, 1, 64, 0
4, 79488, Note_on_c, 1, 65, 64
4, 79577, Note_on_c, 1, 65, 0
4, 79632, Note_on_c, 1, 61, 64
4, 79677, Note_on_c, 1, 61, 0
4, 79680, Note_on_c, 1, 62, 64
4, 79703, Note_on_c, 1, 62, 0
4, 79704, Note_on_c, 1, 61, 68
4, 79727, Note_on_c, 1, 61, 0
4, 79728, Note_on_c, 1, 62, 72
4, 79751, Note_on_c, 1, 62, 0
4, 79752, Note_on_c, 1, 57, 76
4, 79775, Note_on_c, 1, 57, 0
4, 79776, Note_on_c, 1, 60, 80
4, 79799, Note_on_c, 1, 60, 0
4, 79800, Note_on_c, 1, 59, 76
4, 79823, Note_on_c, 1, 59, 0
4, 79824, Note_on_c, 1, 60, 72
4, 79847, Note_on_c, 1, 60, 0
4, 79848, Note_on_c, 1, 57, 68
4, 79871, Note_on_c, 1, 57, 0
4, 79872, Note_on_c, 1, 58, 64
4, 79920, Note_on_c, 1, 58, 0
4, 79920, Note_on_c, 1, 55, 62
4, 79965, Note_on_c, 1, 55, 0
4, 79968, Note_on_c, 1, 57, 61
4, 80016, Note_on_c, 1, 57, 0
4, 80016, Note_on_c, 1, 54, 59
4, 80061, Note_on_c, 1, 54, 0
4, 80064, Note_on_c, 1, 58, 58
4, 80064, Note_on_c, 1, 55, 58
4, 80153, Note_on_c, 1, 58, 0
4, 80153, Note_on_c, 1, 55, 0
4, 80160, Note_on_c, 1, 57, 58
4, 80160, Note_on_c, 1, 53, 58
4, 80249, Note_on_c, 1, 57, 0
4, 80249, Note_on_c, 1, 53, 0
4, 80256, Note_on_c, 1, 55, 58
4, 80256, Note_on_c, 1, 52, 58
4, 80433, Note_on_c, 1, 55, 0
4, 80433, Note_on_c, 1, 52, 0
4, 80448, Note_on_c, 1, 53, 80
4, 80448, Note_on_c, 1, 41, 80
4, 80537, Note_on_c, 1, 53, 0
4, 80537, Note_on_c, 1, 41, 0
4, 80544, Note_on_c, 1, 48, 80
4, 80544, Note_on_c, 1, 36, 80
4, 80633, Note_on_c, 1, 48, 0
4, 80633, Note_on_c, 1, 36, 0
4, 80640, Note_on_c, 1, 45, 80
4, 80640, Note_on_c, 1, 33, 80
4, 80729, Note_on_c, 1, 45, 0
4, 80729, Note_on_c, 1, 33, 0
4, 80784, Note_on_c, 1, 50, 80
4, 80784, Note_on_c, 1, 38, 80
4, 80829, Note_on_c, 1, 50, 0
4, 80829, Note_on_c, 1, 38, 0
4, 80832, Note_on_c, 1, 43, 80
4, 80832, Note_on_c, 1, 31, 80
4, 80921, Note_on_c, 1, 43, 0
4, 80921, Note_on_c, 1, 31, 0
4, 80976, Note_on_c, 1, 48, 80
4, 80976, Note_on_c, 1, 36, 80
4, 81021, Note_on_c, 1, 48, 0
4, 81021, Note_on_c, 1, 36, 0
4, 81024, Note_on_c, 1, 41, 80
4, 81024, Note_on_c, 1, 29, 80
4, 81069, Note_on_c, 1, 41, 0
4, 81069, Note_on_c, 1, 29, 0
4, 81168, Note_on_c, 1, 69, 64
4, 81216, Note_on_c, 1, 69, 0
4, 81216, Note_on_c, 1, 58, 64
4, 81305, Note_on_c, 1, 58, 0
4, 81360, Note_on_c, 1, 67, 64
4, 81408, Note_on_c, 1, 67, 0
4, 81408, Note_on_c, 1, 57, 64
4, 81497, Note_on_c, 1, 57, 0
4, 81552, Note_on_c, 1, 65, 64
4, 81600, Note_on_c, 1, 65, 0
4, 81600, Note_on_c, 1, 55, 64
4, 81689, Note_on_c, 1, 55, 0
4, 81696, Note_on_c, 1, 60, 70
4, 81785, Note_on_c, 1, 60, 0
4, 81792, Note_on_c, 1, 57, 64
4, 81815, Note_on_c, 1, 57, 0
4, 81816, Note_on_c, 1, 60, 64
4, 81839, Note_on_c, 1, 60, 0
4, 81840, Note_on_c, 1, 57, 64
4, 81863, Note_on_c, 1, 57, 0
4, 81864, Note_on_c, 1, 60, 64
4, 81887, Note_on_c, 1, 60, 0
4, 81888, Note_on_c, 1, 57, 64
4, 81911, Note_on_c, 1, 57, 0
4, 81912, Note_on_c, 1, 60, 64
4, 81935, Note_on_c, 1, 60, 0
4, 81936, Note_on_c, 1, 57, 64
4, 81959, Note_on_c, 1, 57, 0
4, 81960, Note_on_c, 1, 60, 64
4, 81983, Note_on_c, 1, 60, 0
4, 81984, Note_on_c, 1, 58, 64
4, 82007, Note_on_c, 1, 58, 0
4, 82008, Note_on_c, 1, 60, 64
4, 82031, Note_on_c, 1, 60, 0
4, 82032, Note_on_c, 1, 58, 64
4, 82055, Note_on_c, 1, 58, 0
4, 82056, Note_on_c, 1, 60, 64
4, 82079, Note_on_c, 1, 60, 0
4, 82080, Note_on_c, 1, 58, 64
4, 82103, Note_on_c, 1, 58, 0
4, 82104, Note_on_c, 1, 60, 64
4, 82127, Note_on_c, 1, 60, 0
4, 82128, Note_on_c, 1, 58, 64
4, 82151, Note_on_c, 1, 58, 0
4, 82152, Note_on_c, 1, 60, 64
4, 82175, Note_on_c, 1, 60, 0
4, 82176, Note_on_c, 1, 57, 64
4, 82199, Note_on_c, 1, 57, 0
4, 82200, Note_on_c, 1, 60, 64
4, 82223, Note_on_c, 1, 60, 0
4, 82224, Note_on_c, 1, 57, 64
4, 82247, Note_on_c, 1, 57, 0
4, 82248, Note_on_c, 1, 60, 64
4, 82271, Note_on_c, 1, 60, 0
4, 82272, Note_on_c, 1, 57, 64
4, 82295, Note_on_c, 1, 57, 0
4, 82296, Note_on_c, 1, 60, 64
4, 82319, Note_on_c, 1, 60, 0
4, 82320, Note_on_c, 1, 57, 64
4, 82343, Note_on_c, 1, 57, 0
4, 82344, Note_on_c, 1, 60, 64
4, 82367, Note_on_c, 1, 60, 0
4, 82368, Note_on_c, 1, 58, 64
4, 82391, Note_on_c, 1, 58, 0
4, 82392, Note_on_c, 1, 60, 65
4, 82415, Note_on_c, 1, 60, 0
4, 82416, Note_on_c, 1, 58, 66
4, 82439, Note_on_c, 1, 58, 0
4, 82440, Note_on_c, 1, 60, 67
4, 82463, Note_on_c, 1, 60, 0
4, 82464, Note_on_c, 1, 58, 68
4, 82487, Note_on_c, 1, 58, 0
4, 82488, Note_on_c, 1, 60, 70
4, 82511, Note_on_c, 1, 60, 0
4, 82512, Note_on_c, 1, 58, 71
4, 82535, Note_on_c, 1, 58, 0
4, 82536, Note_on_c, 1, 60, 72
4, 82559, Note_on_c, 1, 60, 0
4, 82560, Control_c, 1, 64, 127
4, 82560, Note_on_c, 1, 53, 73
4, 82583, Note_on_c, 1, 53, 0
4, 82584, Note_on_c, 1, 60, 75
4, 82607, Note_on_c, 1, 60, 0
4, 82608, Note_on_c, 1, 53, 75
4, 82631, Note_on_c, 1, 53, 0
4, 82632, Note_on_c, 1, 60, 75
4, 82655, Note_on_c, 1, 60, 0
4, 82656, Note_on_c, 1, 53, 75
4, 82679, Note_on_c, 1, 53, 0
4, 82680, Note_on_c, 1, 60, 75
4, 82703, Note_on_c, 1, 60, 0
4, 82704, Note_on_c, 1, 53, 75
4, 82727, Note_on_c, 1, 53, 0
4, 82728, Control_c, 1, 64, 0
4, 82728, Note_on_c, 1, 60, 75
4, 82751, Note_on_c, 1, 60, 0
4, 82752, Control_c, 1, 64, 127
4, 82752, Note_on_c, 1, 53, 75
4, 82775, Note_on_c, 1, 53, 0
4, 82776, Note_on_c, 1, 61, 75
4, 82799, Note_on_c, 1, 61, 0
4, 82800, Note_on_c, 1, 53, 75
4, 82823, Note_on_c, 1, 53, 0
4, 82824, Note_on_c, 1, 61, 75
4, 82847, Note_on_c, 1, 61, 0
4, 82848, Note_on_c, 1, 53, 75
4, 82871, Note_on_c, 1, 53, 0
4, 82872, Note_on_c, 1, 61, 75
4, 82895, Note_on_c, 1, 61, 0
4, 82896, Note_on_c, 1, 53, 75
4, 82919, Note_on_c, 1, 53, 0
4, 82920, Control_c, 1, 64, 0
4, 82920, Note_on_c, 1, 61, 75
4, 82943, Note_on_c, 1, 61, 0
4, 82944, Control_c, 1, 64, 127
4, 82944, Note_on_c, 1, 51, 75
4, 82967, Note_on_c, 1, 51, 0
4, 82968, Note_on_c, 1, 61, 74
4, 82991, Note_on_c, 1, 61, 0
4, 82992, Note_on_c, 1, 51, 74
4, 83015, Note_on_c, 1, 51, 0
4, 83016, Control_c, 1, 64, 0
4, 83016, Note_on_c, 1, 61, 74
4, 83039, Note_on_c, 1, 61, 0
4, 83040, Control_c, 1, 64, 127
4, 83040, Note_on_c, 1, 51, 73
4, 83063, Note_on_c, 1, 51, 0
4, 83064, Note_on_c, 1, 60, 73
4, 83087, Note_on_c, 1, 60, 0
4, 83088, Note_on_c, 1, 51, 73
4, 83111, Note_on_c, 1, 51, 0
4, 83112, Control_c, 1, 64, 0
4, 83112, Note_on_c, 1, 60, 72
4, 83135, Note_on_c, 1, 60, 0
4, 83136, Control_c, 1, 64, 127
4, 83136, Note_on_c, 1, 51, 72
4, 83159, Note_on_c, 1, 51, 0
4, 83160, Note_on_c, 1, 58, 72
4, 83183, Note_on_c, 1, 58, 0
4, 83184, Note_on_c, 1, 51, 71
4, 83207, Note_on_c, 1, 51, 0
4, 83208, Control_c, 1, 64, 0
4, 83208, Note_on_c, 1, 58, 71
4, 83231, Note_on_c, 1, 58, 0
4, 83232, Control_c, 1, 64, 127
4, 83232, Note_on_c, 1, 51, 71
4, 83255, Note_on_c, 1, 51, 0
4, 83256, Note_on_c, 1, 56, 70
4, 83279, Note_on_c, 1, 56, 0
4, 83280, Note_on_c, 1, 51, 70
4, 83303, Note_on_c, 1, 51, 0
4, 83304, Control_c, 1, 64, 0
4, 83304, Note_on_c, 1, 56, 70
4, 83327, Note_on_c, 1, 56, 0
4, 83328, Control_c, 1, 64, 127
4, 83328, Note_on_c, 1, 51, 70
4, 83351, Note_on_c, 1, 51, 0
4, 83352, Note_on_c, 1, 61, 70
4, 83375, Note_on_c, 1, 61, 0
4, 83376, Note_on_c, 1, 51, 70
4, 83399, Note_on_c, 1, 51, 0
4, 83400, Control_c, 1, 64, 0
4, 83400, Note_on_c, 1, 61, 69
4, 83423, Note_on_c, 1, 61, 0
4, 83424, Control_c, 1, 64, 127
4, 83424, Note_on_c, 1, 51, 69
4, 83447, Note_on_c, 1, 51, 0
4, 83448, Note_on_c, 1, 60, 68
4, 83471, Note_on_c, 1, 60, 0
4, 83472, Note_on_c, 1, 51, 68
4, 83495, Note_on_c, 1, 51, 0
4, 83496, Control_c, 1, 64, 0
4, 83496, Note_on_c, 1, 60, 67
4, 83519, Note_on_c, 1, 60, 0
4, 83520, Control_c, 1, 64, 127
4, 83520, Note_on_c, 1, 51, 67
4, 83543, Note_on_c, 1, 51, 0
4, 83544, Note_on_c, 1, 58, 67
4, 83567, Note_on_c, 1, 58, 0
4, 83568, Note_on_c, 1, 51, 66
4, 83591, Note_on_c, 1, 51, 0
4, 83592, Control_c, 1, 64, 0
4, 83592, Note_on_c, 1, 58, 66
4, 83615, Note_on_c, 1, 58, 0
4, 83616, Control_c, 1, 64, 127
4, 83616, Note_on_c, 1, 51, 65
4, 83639, Note_on_c, 1, 51, 0
4, 83640, Note_on_c, 1, 56, 65
4, 83663, Note_on_c, 1, 56, 0
4, 83664, Note_on_c, 1, 51, 64
4, 83687, Note_on_c, 1, 51, 0
4, 83688, Control_c, 1, 64, 0
4, 83688, Note_on_c, 1, 56, 64
4, 83711, Note_on_c, 1, 56, 0
4, 83712, Control_c, 1, 64, 127
4, 83712, Note_on_c, 1, 51, 75
4, 83735, Note_on_c, 1, 51, 0
4, 83736, Note_on_c, 1, 56, 74
4, 83759, Note_on_c, 1, 56, 0
4, 83760, Note_on_c, 1, 51, 73
4, 83783, Note_on_c, 1, 51, 0
4, 83784, Note_on_c, 1, 56, 72
4, 83807, Note_on_c, 1, 56, 0
4, 83808, Note_on_c, 1, 51, 71
4, 83831, Note_on_c, 1, 51, 0
4, 83832, Note_on_c, 1, 56, 70
4, 83855, Note_on_c, 1, 56, 0
4, 83856, Note_on_c, 1, 51, 69
4, 83879, Note_on_c, 1, 51, 0
4, 83880, Control_c, 1, 64, 0
4, 83880, Note_on_c, 1, 56, 68
4, 83903, Note_on_c, 1, 56, 0
4, 83904, Control_c, 1, 64, 127
4, 83904, Note_on_c, 1, 51, 67
4, 83927, Note_on_c, 1, 51, 0
4, 83928, Note_on_c, 1, 55, 66
4, 83951, Note_on_c, 1, 55, 0
4, 83952, Note_on_c, 1, 51, 65
4, 83975, Note_on_c, 1, 51, 0
4, 83976, Note_on_c, 1, 55, 64
4, 83999, Note_on_c, 1, 55, 0
4, 84000, Note_on_c, 1, 51, 63
4, 84023, Note_on_c, 1, 51, 0
4, 84024, Note_on_c, 1, 55, 62
4, 84047, Note_on_c, 1, 55, 0
4, 84048, Note_on_c, 1, 51, 61
4, 84071, Note_on_c, 1, 51, 0
4, 84072, Control_c, 1, 64, 0
4, 84072, Note_on_c, 1, 55, 60
4, 84095, Note_on_c, 1, 55, 0
4, 84096, Control_c, 1, 64, 127
4, 84096, Note_on_c, 1, 51, 59
4, 84119, Note_on_c, 1, 51, 0
4, 84120, Note_on_c, 1, 56, 58
4, 84143, Note_on_c, 1, 56, 0
4, 84144, Note_on_c, 1, 51, 58
4, 84167, Note_on_c, 1, 51, 0
4, 84168, Note_on_c, 1, 56, 58
4, 84191, Note_on_c, 1, 56, 0
4, 84192, Note_on_c, 1, 51, 58
4, 84215, Note_on_c, 1, 51, 0
4, 84216, Note_on_c, 1, 56, 58
4, 84239, Note_on_c, 1, 56, 0
4, 84240, Note_on_c, 1, 51, 58
4, 84263, Note_on_c, 1, 51, 0
4, 84264, Control_c, 1, 64, 0
4, 84264, Note_on_c, 1, 56, 58
4, 84287, Note_on_c, 1, 56, 0
4, 84288, Control_c, 1, 64, 127
4, 84288, Note_on_c, 1, 51, 58
4, 84311, Note_on_c, 1, 51, 0
4, 84312, Note_on_c, 1, 55, 58
4, 84335, Note_on_c, 1, 55, 0
4, 84336, Note_on_c, 1, 51, 58
4, 84359, Note_on_c, 1, 51, 0
4, 84360, Note_on_c, 1, 55, 58
4, 84383, Note_on_c, 1, 55, 0
4, 84384, Note_on_c, 1, 51, 58
4, 84407, Note_on_c, 1, 51, 0
4, 84408, Note_on_c, 1, 55, 58
4, 84431, Note_on_c, 1, 55, 0
4, 84432, Note_on_c, 1, 51, 58
4, 84455, Note_on_c, 1, 51, 0
4, 84456, Control_c, 1, 64, 0
4, 84456, Note_on_c, 1, 55, 58
4, 84479, Note_on_c, 1, 55, 0
4, 84480, Note_on_c, 1, 56, 58
4, 84480, Note_on_c, 1, 51, 58
4, 84864, Note_on_c, 1, 56, 0
4, 84864, Note_on_c, 1, 55, 58
4, 84953, Note_on_c, 1, 55, 0
4, 84953, Note_on_c, 1, 51, 0
4, 84960, Control_c, 1, 64, 127
4, 84960, Note_on_c, 1, 55, 58
4, 84960, Note_on_c, 1, 51, 58
4, 85005, Note_on_c, 1, 55, 0
4, 85005, Note_on_c, 1, 51, 0
4, 85008, Note_on_c, 1, 55, 58
4, 85008, Note_on_c, 1, 51, 58
4, 85053, Note_on_c, 1, 55, 0
4, 85053, Note_on_c, 1, 51, 0
4, 85056, Note_on_c, 1, 55, 58
4, 85056, Note_on_c, 1, 51, 58
4, 85145, Note_on_c, 1, 55, 0
4, 85145, Note_on_c, 1, 51, 0
4, 85248, Control_c, 1, 64, 127
4, 85248, Note_on_c, 1, 44, 58
4, 85337, Note_on_c, 1, 44, 0
4, 85344, Note_on_c, 1, 39, 58
4, 85433, Note_on_c, 1, 39, 0
4, 85440, Note_on_c, 1, 36, 58
4, 85529, Note_on_c, 1, 36, 0
4, 85584, Note_on_c, 1, 41, 58
4, 85632, Note_on_c, 1, 41, 0
4, 85632, Note_on_c, 1, 34, 58
4, 85721, Note_on_c, 1, 34, 0
4, 85776, Note_on_c, 1, 39, 58
4, 85824, Note_on_c, 1, 39, 0
4, 85824, Note_on_c, 1, 32, 58
4, 85913, Note_on_c, 1, 32, 0
4, 85920, Control_c, 1, 64, 0
4, 86064, Note_on_c, 1, 56, 58
4, 86064, Note_on_c, 1, 53, 58
4, 86112, Note_on_c, 1, 56, 0
4, 86112, Note_on_c, 1, 53, 0
4, 86112, Note_on_c, 1, 58, 58
4, 86112, Note_on_c, 1, 55, 58
4, 86157, Note_on_c, 1, 58, 0
4, 86157, Note_on_c, 1, 55, 0
4, 86256, Note_on_c, 1, 55, 58
4, 86256, Note_on_c, 1, 52, 58
4, 86304, Note_on_c, 1, 55, 0
4, 86304, Note_on_c, 1, 52, 0
4, 86304, Note_on_c, 1, 56, 58
4, 86304, Note_on_c, 1, 53, 58
4, 86349, Note_on_c, 1, 56, 0
4, 86349, Note_on_c, 1, 53, 0
4, 86448, Note_on_c, 1, 53, 76
4, 86448, Note_on_c, 1, 50, 76
4, 86493, Note_on_c, 1, 53, 0
4, 86493, Note_on_c, 1, 50, 0
4, 86544, Note_on_c, 1, 51, 76
4, 86544, Note_on_c, 1, 48, 76
4, 86589, Note_on_c, 1, 51, 0
4, 86589, Note_on_c, 1, 48, 0
4, 86640, Note_on_c, 1, 50, 78
4, 86640, Note_on_c, 1, 47, 78
4, 86685, Note_on_c, 1, 50, 0
4, 86685, Note_on_c, 1, 47, 0
4, 86736, Note_on_c, 1, 51, 80
4, 86736, Note_on_c, 1, 48, 80
4, 86781, Note_on_c, 1, 51, 0
4, 86781, Note_on_c, 1, 48, 0
4, 86832, Note_on_c, 1, 53, 82
4, 86832, Note_on_c, 1, 50, 82
4, 86877, Note_on_c, 1, 53, 0
4, 86877, Note_on_c, 1, 50, 0
4, 86928, Note_on_c, 1, 51, 83
4, 86928, Note_on_c, 1, 48, 83
4, 86973, Note_on_c, 1, 51, 0
4, 86973, Note_on_c, 1, 48, 0
4, 87024, Note_on_c, 1, 50, 85
4, 87024, Note_on_c, 1, 47, 85
4, 87069, Note_on_c, 1, 50, 0
4, 87069, Note_on_c, 1, 47, 0
4, 87120, Note_on_c, 1, 53, 87
4, 87120, Note_on_c, 1, 50, 87
4, 87165, Note_on_c, 1, 53, 0
4, 87165, Note_on_c, 1, 50, 0
4, 87216, Note_on_c, 1, 55, 89
4, 87216, Note_on_c, 1, 51, 89
4, 87261, Note_on_c, 1, 55, 0
4, 87261, Note_on_c, 1, 51, 0
4, 87312, Note_on_c, 1, 53, 90
4, 87312, Note_on_c, 1, 50, 90
4, 87357, Note_on_c, 1, 53, 0
4, 87357, Note_on_c, 1, 50, 0
4, 87408, Note_on_c, 1, 55, 92
4, 87408, Note_on_c, 1, 51, 92
4, 87453, Note_on_c, 1, 55, 0
4, 87453, Note_on_c, 1, 51, 0
4, 87504, Note_on_c, 1, 55, 94
4, 87504, Note_on_c, 1, 52, 94
4, 87549, Note_on_c, 1, 55, 0
4, 87549, Note_on_c, 1, 52, 0
4, 87600, Note_on_c, 1, 57, 96
4, 87600, Note_on_c, 1, 53, 96
4, 87645, Note_on_c, 1, 57, 0
4, 87645, Note_on_c, 1, 53, 0
4, 87696, Note_on_c, 1, 55, 97
4, 87696, Note_on_c, 1, 52, 97
4, 87741, Note_on_c, 1, 55, 0
4, 87741, Note_on_c, 1, 52, 0
4, 87792, Note_on_c, 1, 57, 99
4, 87792, Note_on_c, 1, 53, 99
4, 87837, Note_on_c, 1, 57, 0
4, 87837, Note_on_c, 1, 53, 0
4, 87888, Note_on_c, 1, 57, 101
4, 87888, Note_on_c, 1, 53, 101
4, 87933, Note_on_c, 1, 57, 0
4, 87933, Note_on_c, 1, 53, 0
4, 87936, Note_on_c, 1, 59, 84
4, 87936, Note_on_c, 1, 56, 84
4, 87936, Note_on_c, 1, 52, 84
4, 88030, Note_on_c, 1, 59, 0
4, 88030, Note_on_c, 1, 56, 0
4, 88030, Note_on_c, 1, 52, 0
4, 88080, Note_on_c, 1, 62, 102
4, 88128, Note_on_c, 1, 62, 0
4, 88128, Note_on_c, 1, 68, 102
4, 88224, Note_on_c, 1, 68, 0
4, 88272, Note_on_c, 1, 60, 102
4, 88320, Note_on_c, 1, 60, 0
4, 88320, Note_on_c, 1, 69, 102
4, 88416, Note_on_c, 1, 69, 0
4, 88464, Note_on_c, 1, 47, 102
4, 88464, Note_on_c, 1, 44, 102
4, 88512, Note_on_c, 1, 47, 0
4, 88512, Note_on_c, 1, 44, 0
4, 88512, Note_on_c, 1, 62, 102
4, 88512, Note_on_c, 1, 59, 102
4, 88608, Note_on_c, 1, 62, 0
4, 88608, Note_on_c, 1, 59, 0
4, 88656, Note_on_c, 1, 48, 102
4, 88656, Note_on_c, 1, 45, 102
4, 88704, Note_on_c, 1, 48, 0
4, 88704, Note_on_c, 1, 45, 0
4, 88704, Note_on_c, 1, 60, 102
4, 88704, Note_on_c, 1, 57, 102
4, 88800, Note_on_c, 1, 60, 0
4, 88800, Note_on_c, 1, 57, 0
4, 88848, Note_on_c, 1, 48, 102
4, 88848, Note_on_c, 1, 36, 102
4, 88896, Note_on_c, 1, 48, 0
4, 88896, Note_on_c, 1, 36, 0
4, 88896, Note_on_c, 1, 58, 102
4, 88896, Note_on_c, 1, 46, 102
4, 89088, Note_on_c, 1, 58, 0
4, 89088, Note_on_c, 1, 46, 0
4, 89088, Note_on_c, 1, 47, 86
4, 89111, Note_on_c, 1, 47, 0
4, 89112, Note_on_c, 1, 59, 83
4, 89135, Note_on_c, 1, 59, 0
4, 89136, Note_on_c, 1, 47, 81
4, 89159, Note_on_c, 1, 47, 0
4, 89160, Note_on_c, 1, 59, 78
4, 89183, Note_on_c, 1, 59, 0
4, 89184, Note_on_c, 1, 47, 76
4, 89207, Note_on_c, 1, 47, 0
4, 89208, Note_on_c, 1, 59, 73
4, 89231, Note_on_c, 1, 59, 0
4, 89232, Note_on_c, 1, 47, 71
4, 89255, Note_on_c, 1, 47, 0
4, 89256, Note_on_c, 1, 59, 68
4, 89279, Note_on_c, 1, 59, 0
4, 89280, Note_on_c, 1, 47, 66
4, 89303, Note_on_c, 1, 47, 0
4, 89304, Note_on_c, 1, 59, 64
4, 89327, Note_on_c, 1, 59, 0
4, 89328, Note_on_c, 1, 47, 64
4, 89351, Note_on_c, 1, 47, 0
4, 89352, Note_on_c, 1, 59, 64
4, 89375, Note_on_c, 1, 59, 0
4, 89376, Note_on_c, 1, 47, 64
4, 89399, Note_on_c, 1, 47, 0
4, 89400, Note_on_c, 1, 59, 64
4, 89423, Note_on_c, 1, 59, 0
4, 89424, Note_on_c, 1, 47, 64
4, 89447, Note_on_c, 1, 47, 0
4, 89448, Note_on_c, 1, 59, 64
4, 89471, Note_on_c, 1, 59, 0
4, 89472, Note_on_c, 1, 47, 64
4, 89495, Note_on_c, 1, 47, 0
4, 89496, Note_on_c, 1, 59, 64
4, 89519, Note_on_c, 1, 59, 0
4, 89520, Note_on_c, 1, 47, 64
4, 89543, Note_on_c, 1, 47, 0
4, 89544, Note_on_c, 1, 59, 64
4, 89567, Note_on_c, 1, 59, 0
4, 89568, Note_on_c, 1, 47, 64
4, 89591, Note_on_c, 1, 47, 0
4, 89592, Note_on_c, 1, 59, 64
4, 89615, Note_on_c, 1, 59, 0
4, 89616, Note_on_c, 1, 47, 64
4, 89639, Note_on_c, 1, 47, 0
4, 89640, Note_on_c, 1, 59, 64
4, 89663, Note_on_c, 1, 59, 0
4, 89664, Note_on_c, 1, 47, 64
4, 89687, Note_on_c, 1, 47, 0
4, 89688, Note_on_c, 1, 59, 64
4, 89711, Note_on_c, 1, 59, 0
4, 89712, Note_on_c, 1, 47, 64
4, 89735, Note_on_c, 1, 47, 0
4, 89736, Note_on_c, 1, 59, 64
4, 89759, Note_on_c, 1, 59, 0
4, 89760, Note_on_c, 1, 47, 64
4, 89783, Note_on_c, 1, 47, 0
4, 89784, Note_on_c, 1, 59, 64
4, 89807, Note_on_c, 1, 59, 0
4, 89808, Note_on_c, 1, 47, 64
4, 89831, Note_on_c, 1, 47, 0
4, 89832, Note_on_c, 1, 59, 64
4, 89855, Note_on_c, 1, 59, 0
4, 89856, Note_on_c, 1, 48, 64
4, 89879, Note_on_c, 1, 48, 0
4, 89880, Note_on_c, 1, 57, 64
4, 89903, Note_on_c, 1, 57, 0
4, 89904, Note_on_c, 1, 48, 64
4, 89927, Note_on_c, 1, 48, 0
4, 89928, Note_on_c, 1, 57, 64
4, 89951, Note_on_c, 1, 57, 0
4, 89952, Note_on_c, 1, 48, 64
4, 89975, Note_on_c, 1, 48, 0
4, 89976, Note_on_c, 1, 57, 65
4, 89999, Note_on_c, 1, 57, 0
4, 90000, Note_on_c, 1, 48, 67
4, 90023, Note_on_c, 1, 48, 0
4, 90024, Note_on_c, 1, 57, 69
4, 90047, Note_on_c, 1, 57, 0
4, 90048, Note_on_c, 1, 49, 71
4, 90071, Note_on_c, 1, 49, 0
4, 90072, Note_on_c, 1, 58, 73
4, 90095, Note_on_c, 1, 58, 0
4, 90096, Note_on_c, 1, 49, 75
4, 90119, Note_on_c, 1, 49, 0
4, 90120, Note_on_c, 1, 58, 76
4, 90143, Note_on_c, 1, 58, 0
4, 90144, Note_on_c, 1, 49, 78
4, 90167, Note_on_c, 1, 49, 0
4, 90168, Note_on_c, 1, 58, 80
4, 90191, Note_on_c, 1, 58, 0
4, 90192, Note_on_c, 1, 49, 82
4, 90215, Note_on_c, 1, 49, 0
4, 90216, Note_on_c, 1, 58, 84
4, 90239, Note_on_c, 1, 58, 0
4, 90240, Note_on_c, 1, 50, 104
4, 90263, Note_on_c, 1, 50, 0
4, 90264, Note_on_c, 1, 59, 86
4, 90287, Note_on_c, 1, 59, 0
4, 90288, Note_on_c, 1, 50, 86
4, 90311, Note_on_c, 1, 50, 0
4, 90312, Note_on_c, 1, 59, 86
4, 90335, Note_on_c, 1, 59, 0
4, 90336, Note_on_c, 1, 50, 86
4, 90359, Note_on_c, 1, 50, 0
4, 90360, Note_on_c, 1, 59, 86
4, 90383, Note_on_c, 1, 59, 0
4, 90384, Note_on_c, 1, 50, 86
4, 90407, Note_on_c, 1, 50, 0
4, 90408, Note_on_c, 1, 59, 86
4, 90431, Note_on_c, 1, 59, 0
4, 90432, Note_on_c, 1, 50, 86
4, 90455, Note_on_c, 1, 50, 0
4, 90456, Note_on_c, 1, 57, 86
4, 90479, Note_on_c, 1, 57, 0
4, 90480, Note_on_c, 1, 50, 86
4, 90503, Note_on_c, 1, 50, 0
4, 90504, Note_on_c, 1, 57, 86
4, 90527, Note_on_c, 1, 57, 0
4, 90528, Note_on_c, 1, 50, 86
4, 90551, Note_on_c, 1, 50, 0
4, 90552, Note_on_c, 1, 57, 86
4, 90575, Note_on_c, 1, 57, 0
4, 90576, Note_on_c, 1, 50, 86
4, 90599, Note_on_c, 1, 50, 0
4, 90600, Note_on_c, 1, 57, 86
4, 90623, Note_on_c, 1, 57, 0
4, 90624, Note_on_c, 1, 43, 104
4, 90647, Note_on_c, 1, 43, 0
4, 90648, Note_on_c, 1, 55, 86
4, 90671, Note_on_c, 1, 55, 0
4, 90672, Note_on_c, 1, 43, 86
4, 90695, Note_on_c, 1, 43, 0
4, 90696, Note_on_c, 1, 55, 86
4, 90719, Note_on_c, 1, 55, 0
4, 90720, Note_on_c, 1, 43, 86
4, 90743, Note_on_c, 1, 43, 0
4, 90744, Note_on_c, 1, 55, 86
4, 90767, Note_on_c, 1, 55, 0
4, 90768, Note_on_c, 1, 43, 86
4, 90791, Note_on_c, 1, 43, 0
4, 90792, Note_on_c, 1, 55, 86
4, 90815, Note_on_c, 1, 55, 0
4, 90816, Note_on_c, 1, 44, 86
4, 90839, Note_on_c, 1, 44, 0
4, 90840, Note_on_c, 1, 56, 86
4, 90863, Note_on_c, 1, 56, 0
4, 90864, Note_on_c, 1, 44, 86
4, 90887, Note_on_c, 1, 44, 0
4, 90888, Note_on_c, 1, 56, 86
4, 90911, Note_on_c, 1, 56, 0
4, 90912, Note_on_c, 1, 44, 86
4, 90935, Note_on_c, 1, 44, 0
4, 90936, Note_on_c, 1, 56, 86
4, 90959, Note_on_c, 1, 56, 0
4, 90960, Note_on_c, 1, 44, 86
4, 90983, Note_on_c, 1, 44, 0
4, 90984, Note_on_c, 1, 56, 86
4, 91007, Note_on_c, 1, 56, 0
4, 91008, Note_on_c, 1, 45, 104
4, 91031, Note_on_c, 1, 45, 0
4, 91032, Note_on_c, 1, 57, 86
4, 91055, Note_on_c, 1, 57, 0
4, 91056, Note_on_c, 1, 45, 86
4, 91079, Note_on_c, 1, 45, 0
4, 91080, Note_on_c, 1, 57, 86
4, 91103, Note_on_c, 1, 57, 0
4, 91104, Note_on_c, 1, 45, 86
4, 91127, Note_on_c, 1, 45, 0
4, 91128, Note_on_c, 1, 57, 86
4, 91151, Note_on_c, 1, 57, 0
4, 91152, Note_on_c, 1, 45, 86
4, 91175, Note_on_c, 1, 45, 0
4, 91176, Note_on_c, 1, 57, 86
4, 91199, Note_on_c, 1, 57, 0
4, 91200, Note_on_c, 1, 41, 86
4, 91223, Note_on_c, 1, 41, 0
4, 91224, Note_on_c, 1, 53, 86
4, 91247, Note_on_c, 1, 53, 0
4, 91248, Note_on_c, 1, 41, 86
4, 91271, Note_on_c, 1, 41, 0
4, 91272, Note_on_c, 1, 53, 86
4, 91295, Note_on_c, 1, 53, 0
4, 91296, Note_on_c, 1, 41, 86
4, 91319, Note_on_c, 1, 41, 0
4, 91320, Note_on_c, 1, 53, 86
4, 91343, Note_on_c, 1, 53, 0
4, 91344, Note_on_c, 1, 41, 86
4, 91367, Note_on_c, 1, 41, 0
4, 91368, Note_on_c, 1, 53, 86
4, 91391, Note_on_c, 1, 53, 0
4, 91392, Note_on_c, 1, 40, 86
4, 91415, Note_on_c, 1, 40, 0
4, 91416, Note_on_c, 1, 52, 86
4, 91439, Note_on_c, 1, 52, 0
4, 91440, Note_on_c, 1, 40, 86
4, 91463, Note_on_c, 1, 40, 0
4, 91608, Note_on_c, 1, 52, 75
4, 91632, Note_on_c, 1, 52, 0
4, 91632, Note_on_c, 1, 40, 75
4, 91677, Note_on_c, 1, 40, 0
4, 91704, Note_on_c, 1, 52, 75
4, 91728, Note_on_c, 1, 52, 0
4, 91728, Note_on_c, 1, 40, 75
4, 91773, Note_on_c, 1, 40, 0
4, 91800, Note_on_c, 1, 52, 75
4, 91824, Note_on_c, 1, 52, 0
4, 91824, Note_on_c, 1, 40, 75
4, 91869, Note_on_c, 1, 40, 0
4, 91992, Note_on_c, 1, 52, 76
4, 92016, Note_on_c, 1, 52, 0
4, 92016, Note_on_c, 1, 40, 76
4, 92061, Note_on_c, 1, 40, 0
4, 92088, Note_on_c, 1, 52, 76
4, 92112, Note_on_c, 1, 52, 0
4, 92112, Note_on_c, 1, 40, 77
4, 92157, Note_on_c, 1, 40, 0
4, 92184, Note_on_c, 1, 52, 77
4, 92208, Note_on_c, 1, 52, 0
4, 92208, Note_on_c, 1, 40, 77
4, 92253, Note_on_c, 1, 40, 0
4, 92424, Note_on_c, 1, 39, 79
4, 92447, Note_on_c, 1, 39, 0
4, 92448, Note_on_c, 1, 40, 80
4, 92471, Note_on_c, 1, 40, 0
4, 92472, Note_on_c, 1, 39, 80
4, 92495, Note_on_c, 1, 39, 0
4, 92496, Note_on_c, 1, 40, 80
4, 92519, Note_on_c, 1, 40, 0
4, 92520, Note_on_c, 1, 39, 80
4, 92543, Note_on_c, 1, 39, 0
4, 92544, Note_on_c, 1, 40, 80
4, 92564, Note_on_c, 1, 40, 0
4, 92808, Note_on_c, 1, 63, 64
4, 92831, Note_on_c, 1, 63, 0
4, 92832, Note_on_c, 1, 64, 64
4, 92855, Note_on_c, 1, 64, 0
4, 92856, Note_on_c, 1, 63, 64
4, 92879, Note_on_c, 1, 63, 0
4, 92880, Note_on_c, 1, 64, 64
4, 92903, Note_on_c, 1, 64, 0
4, 92904, Note_on_c, 1, 63, 64
4, 92927, Note_on_c, 1, 63, 0
4, 92928, Note_on_c, 1, 64, 64
4, 92973, Note_on_c, 1, 64, 0
4, 93408, Note_on_c, 1, 70, 64
4, 93408, Note_on_c, 1, 67, 64
4, 93456, Note_on_c, 1, 70, 0
4, 93456, Note_on_c, 1, 67, 0
4, 93456, Note_on_c, 1, 69, 66
4, 93456, Note_on_c, 1, 65, 66
4, 93501, Note_on_c, 1, 69, 0
4, 93501, Note_on_c, 1, 65, 0
4, 93504, Note_on_c, 1, 67, 69
4, 93504, Note_on_c, 1, 64, 69
4, 93524, Note_on_c, 1, 67, 0
4, 93524, Note_on_c, 1, 64, 0
4, 93600, Note_on_c, 1, 67, 74
4, 93600, Note_on_c, 1, 64, 74
4, 93648, Note_on_c, 1, 67, 0
4, 93648, Note_on_c, 1, 64, 0
4, 93648, Note_on_c, 1, 65, 77
4, 93648, Note_on_c, 1, 62, 77
4, 93693, Note_on_c, 1, 65, 0
4, 93693, Note_on_c, 1, 62, 0
4, 93696, Note_on_c, 1, 64, 98
4, 93696, Note_on_c, 1, 61, 98
4, 93873, Note_on_c, 1, 64, 0
4, 93873, Note_on_c, 1, 61, 0
4, 93888, Note_on_c, 1, 65, 80
4, 93888, Note_on_c, 1, 62, 80
4, 93977, Note_on_c, 1, 65, 0
4, 93977, Note_on_c, 1, 62, 0
4, 93984, Note_on_c, 1, 67, 80
4, 93984, Note_on_c, 1, 64, 80
4, 93984, Note_on_c, 1, 62, 80
4, 94073, Note_on_c, 1, 67, 0
4, 94073, Note_on_c, 1, 64, 0
4, 94073, Note_on_c, 1, 62, 0
4, 94080, Note_on_c, 1, 65, 80
4, 94080, Note_on_c, 1, 62, 80
4, 94169, Note_on_c, 1, 65, 0
4, 94169, Note_on_c, 1, 62, 0
4, 94176, Note_on_c, 1, 67, 80
4, 94176, Note_on_c, 1, 64, 80
4, 94176, Note_on_c, 1, 62, 80
4, 94265, Note_on_c, 1, 67, 0
4, 94265, Note_on_c, 1, 64, 0
4, 94265, Note_on_c, 1, 62, 0
4, 94296, Note_on_c, 1, 62, 64
4, 94319, Note_on_c, 1, 62, 0
4, 94320, Note_on_c, 1, 65, 64
4, 94343, Note_on_c, 1, 65, 0
4, 94344, Note_on_c, 1, 69, 64
4, 94367, Note_on_c, 1, 69, 0
4, 94368, Note_on_c, 1, 74, 64
4, 94388, Note_on_c, 1, 74, 0
4, 94536, Note_on_c, 1, 37, 80
4, 94559, Note_on_c, 1, 37, 0
4, 94560, Note_on_c, 1, 38, 80
4, 94583, Note_on_c, 1, 38, 0
4, 94584, Note_on_c, 1, 37, 80
4, 94607, Note_on_c, 1, 37, 0
4, 94608, Note_on_c, 1, 38, 80
4, 94631, Note_on_c, 1, 38, 0
4, 94632, Note_on_c, 1, 37, 80
4, 94655, Note_on_c, 1, 37, 0
4, 94656, Note_on_c, 1, 38, 80
4, 94676, Note_on_c, 1, 38, 0
4, 94752, Note_on_c, 1, 69, 64
4, 94752, Note_on_c, 1, 65, 64
4, 94800, Note_on_c, 1, 69, 0
4, 94800, Note_on_c, 1, 65, 0
4, 94800, Note_on_c, 1, 67, 64
4, 94800, Note_on_c, 1, 64, 64
4, 94845, Note_on_c, 1, 67, 0
4, 94845, Note_on_c, 1, 64, 0
4, 94848, Note_on_c, 1, 65, 64
4, 94848, Note_on_c, 1, 62, 64
4, 94893, Note_on_c, 1, 65, 0
4, 94893, Note_on_c, 1, 62, 0
4, 94944, Note_on_c, 1, 65, 64
4, 94944, Note_on_c, 1, 62, 64
4, 94992, Note_on_c, 1, 65, 0
4, 94992, Note_on_c, 1, 62, 0
4, 94992, Note_on_c, 1, 64, 64
4, 94992, Note_on_c, 1, 60, 64
4, 95037, Note_on_c, 1, 64, 0
4, 95037, Note_on_c, 1, 60, 0
4, 95040, Note_on_c, 1, 62, 64
4, 95040, Note_on_c, 1, 59, 64
4, 95085, Note_on_c, 1, 62, 0
4, 95085, Note_on_c, 1, 59, 0
4, 95112, Note_on_c, 1, 44, 64
4, 95135, Note_on_c, 1, 44, 0
4, 95136, Note_on_c, 1, 43, 64
4, 95159, Note_on_c, 1, 43, 0
4, 95160, Note_on_c, 1, 44, 64
4, 95183, Note_on_c, 1, 44, 0
4, 95184, Note_on_c, 1, 43, 64
4, 95207, Note_on_c, 1, 43, 0
4, 95208, Note_on_c, 1, 44, 64
4, 95231, Note_on_c, 1, 44, 0
4, 95232, Note_on_c, 1, 43, 64
4, 95252, Note_on_c, 1, 43, 0
4, 95328, Note_on_c, 1, 62, 70
4, 95328, Note_on_c, 1, 59, 70
4, 95376, Note_on_c, 1, 62, 0
4, 95376, Note_on_c, 1, 59, 0
4, 95376, Note_on_c, 1, 60, 70
4, 95376, Note_on_c, 1, 57, 70
4, 95421, Note_on_c, 1, 60, 0
4, 95421, Note_on_c, 1, 57, 0
4, 95424, Note_on_c, 1, 59, 70
4, 95424, Note_on_c, 1, 55, 70
4, 95469, Note_on_c, 1, 59, 0
4, 95469, Note_on_c, 1, 55, 0
4, 95496, Note_on_c, 1, 66, 75
4, 95519, Note_on_c, 1, 66, 0
4, 95520, Note_on_c, 1, 67, 75
4, 95543, Note_on_c, 1, 67, 0
4, 95544, Note_on_c, 1, 66, 75
4, 95567, Note_on_c, 1, 66, 0
4, 95568, Note_on_c, 1, 67, 75
4, 95591, Note_on_c, 1, 67, 0
4, 95592, Note_on_c, 1, 66, 75
4, 95615, Note_on_c, 1, 66, 0
4, 95616, Note_on_c, 1, 67, 75
4, 95661, Note_on_c, 1, 67, 0
4, 95688, Note_on_c, 1, 66, 80
4, 95711, Note_on_c, 1, 66, 0
4, 95712, Note_on_c, 1, 67, 80
4, 95735, Note_on_c, 1, 67, 0
4, 95736, Note_on_c, 1, 66, 80
4, 95759, Note_on_c, 1, 66, 0
4, 95760, Note_on_c, 1, 67, 80
4, 95783, Note_on_c, 1, 67, 0
4, 95784, Note_on_c, 1, 66, 80
4, 95807, Note_on_c, 1, 66, 0
4, 95808, Note_on_c, 1, 67, 80
4, 95853, Note_on_c, 1, 67, 0
4, 95904, Note_on_c, 1, 65, 86
4, 95904, Note_on_c, 1, 62, 86
4, 95904, Note_on_c, 1, 59, 86
4, 95904, Note_on_c, 1, 55, 86
4, 95949, Note_on_c, 1, 65, 0
4, 95949, Note_on_c, 1, 62, 0
4, 95949, Note_on_c, 1, 59, 0
4, 95949, Note_on_c, 1, 55, 0
4, 95952, Note_on_c, 1, 65, 86
4, 95952, Note_on_c, 1, 62, 86
4, 95952, Note_on_c, 1, 59, 86
4, 95952, Note_on_c, 1, 55, 86
4, 95997, Note_on_c, 1, 65, 0
4, 95997, Note_on_c, 1, 62, 0
4, 95997, Note_on_c, 1, 59, 0
4, 95997, Note_on_c, 1, 55, 0
4, 96000, Note_on_c, 1, 65, 86
4, 96000, Note_on_c, 1, 62, 86
4, 96000, Note_on_c, 1, 59, 86
4, 96000, Note_on_c, 1, 55, 86
4, 96177, Note_on_c, 1, 65, 0
4, 96177, Note_on_c, 1, 62, 0
4, 96177, Note_on_c, 1, 59, 0
4, 96177, Note_on_c, 1, 55, 0
4, 96624, Note_on_c, 1, 48, 64
4, 96672, Note_on_c, 1, 48, 0
4, 96672, Note_on_c, 1, 36, 64
4, 96692, Note_on_c, 1, 36, 0
4, 96816, Note_on_c, 1, 48, 64
4, 96864, Note_on_c, 1, 48, 0
4, 96864, Note_on_c, 1, 36, 64
4, 96884, Note_on_c, 1, 36, 0
4, 97008, Note_on_c, 1, 48, 64
4, 97056, Note_on_c, 1, 48, 0
4, 97056, Note_on_c, 1, 36, 64
4, 97076, Note_on_c, 1, 36, 0
4, 97176, Note_on_c, 1, 48, 64
4, 97199, Note_on_c, 1, 48, 0
4, 97200, Note_on_c, 1, 36, 64
4, 97223, Note_on_c, 1, 36, 0
4, 97224, Note_on_c, 1, 48, 64
4, 97247, Note_on_c, 1, 48, 0
4, 97248, Note_on_c, 1, 36, 64
4, 97293, Note_on_c, 1, 36, 0
4, 97368, Note_on_c, 1, 48, 64
4, 97391, Note_on_c, 1, 48, 0
4, 97392, Note_on_c, 1, 36, 64
4, 97415, Note_on_c, 1, 36, 0
4, 97416, Note_on_c, 1, 48, 64
4, 97439, Note_on_c, 1, 48, 0
4, 97440, Note_on_c, 1, 36, 64
4, 97485, Note_on_c, 1, 36, 0
4, 97752, Note_on_c, 1, 48, 64
4, 97775, Note_on_c, 1, 48, 0
4, 97776, Note_on_c, 1, 36, 64
4, 97799, Note_on_c, 1, 36, 0
4, 97800, Note_on_c, 1, 48, 64
4, 97823, Note_on_c, 1, 48, 0
4, 97824, Note_on_c, 1, 36, 64
4, 97869, Note_on_c, 1, 36, 0
4, 97944, Note_on_c, 1, 48, 64
4, 97967, Note_on_c, 1, 48, 0
4, 97968, Note_on_c, 1, 36, 64
4, 97991, Note_on_c, 1, 36, 0
4, 97992, Note_on_c, 1, 48, 64
4, 98015, Note_on_c, 1, 48, 0
4, 98016, Note_on_c, 1, 36, 64
4, 98061, Note_on_c, 1, 36, 0
4, 98136, Note_on_c, 1, 48, 64
4, 98159, Note_on_c, 1, 48, 0
4, 98160, Note_on_c, 1, 36, 65
4, 98183, Note_on_c, 1, 36, 0
4, 98184, Note_on_c, 1, 48, 66
4, 98207, Note_on_c, 1, 48, 0
4, 98208, Note_on_c, 1, 36, 67
4, 98253, Note_on_c, 1, 36, 0
4, 98328, Note_on_c, 1, 48, 73
4, 98351, Note_on_c, 1, 48, 0
4, 98352, Note_on_c, 1, 36, 75
4, 98375, Note_on_c, 1, 36, 0
4, 98376, Note_on_c, 1, 48, 76
4, 98399, Note_on_c, 1, 48, 0
4, 98400, Note_on_c, 1, 36, 77
4, 98445, Note_on_c, 1, 36, 0
4, 98688, Note_on_c, 1, 36, 80
4, 98694, Note_on_c, 1, 40, 80
4, 98700, Note_on_c, 1, 43, 80
4, 98706, Note_on_c, 1, 48, 80
4, 98733, Note_on_c, 1, 48, 0
4, 98733, Note_on_c, 1, 43, 0
4, 98733, Note_on_c, 1, 40, 0
4, 98733, Note_on_c, 1, 36, 0
4, 98784, Note_on_c, 1, 43, 80
4, 98790, Note_on_c, 1, 47, 80
4, 98796, Note_on_c, 1, 50, 80
4, 98802, Note_on_c, 1, 55, 80
4, 98829, Note_on_c, 1, 55, 0
4, 98829, Note_on_c, 1, 50, 0
4, 98829, Note_on_c, 1, 47, 0
4, 98829, Note_on_c, 1, 43, 0
4, 98880, Note_on_c, 1, 48, 80
4, 98886, Note_on_c, 1, 52, 80
4, 98892, Note_on_c, 1, 55, 80
4, 98898, Note_on_c, 1, 60, 80
4, 98925, Note_on_c, 1, 60, 0
4, 98925, Note_on_c, 1, 55, 0
4, 98925, Note_on_c, 1, 52, 0
4, 98925, Note_on_c, 1, 48, 0
4, 99120, Note_on_c, 1, 67, 75
4, 99132, Note_on_c, 1, 67, 0
4, 99132, Note_on_c, 1, 65, 75
4, 99144, Note_on_c, 1, 65, 0
4, 99144, Note_on_c, 1, 64, 75
4, 99156, Note_on_c, 1, 64, 0
4, 99156, Note_on_c, 1, 65, 75
4, 99168, Note_on_c, 1, 65, 0
4, 99168, Note_on_c, 1, 71, 75
4, 99188, Note_on_c, 1, 71, 0
4, 99312, Note_on_c, 1, 65, 75
4, 99324, Note_on_c, 1, 65, 0
4, 99324, Note_on_c, 1, 64, 75
4, 99336, Note_on_c, 1, 64, 0
4, 99336, Note_on_c, 1, 62, 75
4, 99348, Note_on_c, 1, 62, 0
4, 99348, Note_on_c, 1, 64, 75
4, 99360, Note_on_c, 1, 64, 0
4, 99360, Note_on_c, 1, 72, 75
4, 99380, Note_on_c, 1, 72, 0
4, 99480, Note_on_c, 1, 62, 75
4, 99503, Note_on_c, 1, 62, 0
4, 99504, Note_on_c, 1, 61, 75
4, 99527, Note_on_c, 1, 61, 0
4, 99528, Note_on_c, 1, 62, 75
4, 99551, Note_on_c, 1, 62, 0
4, 99552, Note_on_c, 1, 60, 75
4, 99575, Note_on_c, 1, 60, 0
4, 99576, Note_on_c, 1, 59, 75
4, 99599, Note_on_c, 1, 59, 0
4, 99600, Note_on_c, 1, 57, 75
4, 99623, Note_on_c, 1, 57, 0
4, 99624, Note_on_c, 1, 55, 75
4, 99647, Note_on_c, 1, 55, 0
4, 99672, Note_on_c, 1, 60, 75
4, 99695, Note_on_c, 1, 60, 0
4, 99696, Note_on_c, 1, 62, 75
4, 99719, Note_on_c, 1, 62, 0
4, 99720, Note_on_c, 1, 64, 75
4, 99743, Note_on_c, 1, 64, 0
4, 99744, Note_on_c, 1, 65, 75
4, 99767, Note_on_c, 1, 65, 0
4, 99768, Note_on_c, 1, 67, 75
4, 99791, Note_on_c, 1, 67, 0
4, 99792, Note_on_c, 1, 68, 75
4, 99815, Note_on_c, 1, 68, 0
4, 99816, Note_on_c, 1, 69, 75
4, 99839, Note_on_c, 1, 69, 0
4, 99840, Note_on_c, 1, 65, 75
4, 99929, Note_on_c, 1, 65, 0
4, 99984, Note_on_c, 1, 67, 75
4, 100029, Note_on_c, 1, 67, 0
4, 100032, Note_on_c, 1, 64, 64
4, 100055, Note_on_c, 1, 64, 0
4, 100056, Note_on_c, 1, 67, 64
4, 100079, Note_on_c, 1, 67, 0
4, 100080, Note_on_c, 1, 64, 64
4, 100103, Note_on_c, 1, 64, 0
4, 100104, Note_on_c, 1, 67, 64
4, 100127, Note_on_c, 1, 67, 0
4, 100128, Note_on_c, 1, 64, 64
4, 100151, Note_on_c, 1, 64, 0
4, 100152, Note_on_c, 1, 67, 64
4, 100175, Note_on_c, 1, 67, 0
4, 100176, Note_on_c, 1, 64, 64
4, 100199, Note_on_c, 1, 64, 0
4, 100200, Note_on_c, 1, 67, 64
4, 100223, Note_on_c, 1, 67, 0
4, 100224, Note_on_c, 1, 65, 64
4, 100247, Note_on_c, 1, 65, 0
4, 100248, Note_on_c, 1, 67, 64
4, 100271, Note_on_c, 1, 67, 0
4, 100272, Note_on_c, 1, 65, 64
4, 100295, Note_on_c, 1, 65, 0
4, 100296, Note_on_c, 1, 67, 64
4, 100319, Note_on_c, 1, 67, 0
4, 100320, Note_on_c, 1, 65, 64
4, 100343, Note_on_c, 1, 65, 0
4, 100344, Note_on_c, 1, 67, 64
4, 100367, Note_on_c, 1, 67, 0
4, 100368, Note_on_c, 1, 65, 64
4, 100391, Note_on_c, 1, 65, 0
4, 100392, Note_on_c, 1, 67, 64
4, 100415, Note_on_c, 1, 67, 0
4, 100416, Note_on_c, 1, 64, 64
4, 100439, Note_on_c, 1, 64, 0
4, 100440, Note_on_c, 1, 67, 64
4, 100463, Note_on_c, 1, 67, 0
4, 100464, Note_on_c, 1, 64, 64
4, 100487, Note_on_c, 1, 64, 0
4, 100488, Note_on_c, 1, 67, 64
4, 100511, Note_on_c, 1, 67, 0
4, 100512, Note_on_c, 1, 64, 64
4, 100535, Note_on_c, 1, 64, 0
4, 100536, Note_on_c, 1, 67, 64
4, 100559, Note_on_c, 1, 67, 0
4, 100560, Note_on_c, 1, 64, 64
4, 100583, Note_on_c, 1, 64, 0
4, 100584, Note_on_c, 1, 67, 64
4, 100607, Note_on_c, 1, 67, 0
4, 100608, Note_on_c, 1, 65, 64
4, 100631, Note_on_c, 1, 65, 0
4, 100632, Note_on_c, 1, 67, 64
4, 100655, Note_on_c, 1, 67, 0
4, 100656, Note_on_c, 1, 65, 64
4, 100679, Note_on_c, 1, 65, 0
4, 100680, Note_on_c, 1, 67, 64
4, 100703, Note_on_c, 1, 67, 0
4, 100704, Note_on_c, 1, 65, 64
4, 100727, Note_on_c, 1, 65, 0
4, 100728, Note_on_c, 1, 67, 64
4, 100751, Note_on_c, 1, 67, 0
4, 100752, Note_on_c, 1, 65, 64
4, 100775, Note_on_c, 1, 65, 0
4, 100776, Note_on_c, 1, 67, 64
4, 100799, Note_on_c, 1, 67, 0
4, 100800, Note_on_c, 1, 64, 64
4, 100823, Note_on_c, 1, 64, 0
4, 100824, Note_on_c, 1, 67, 64
4, 100847, Note_on_c, 1, 67, 0
4, 100848, Note_on_c, 1, 64, 64
4, 100871, Note_on_c, 1, 64, 0
4, 100872, Note_on_c, 1, 67, 64
4, 100895, Note_on_c, 1, 67, 0
4, 100896, Note_on_c, 1, 64, 64
4, 100919, Note_on_c, 1, 64, 0
4, 100920, Note_on_c, 1, 67, 64
4, 100943, Note_on_c, 1, 67, 0
4, 100944, Note_on_c, 1, 64, 64
4, 100967, Note_on_c, 1, 64, 0
4, 100968, Note_on_c, 1, 67, 64
4, 100991, Note_on_c, 1, 67, 0
4, 100992, Note_on_c, 1, 65, 64
4, 101015, Note_on_c, 1, 65, 0
4, 101016, Note_on_c, 1, 67, 64
4, 101039, Note_on_c, 1, 67, 0
4, 101040, Note_on_c, 1, 65, 64
4, 101063, Note_on_c, 1, 65, 0
4, 101064, Note_on_c, 1, 67, 64
4, 101087, Note_on_c, 1, 67, 0
4, 101088, Note_on_c, 1, 65, 64
4, 101111, Note_on_c, 1, 65, 0
4, 101112, Note_on_c, 1, 67, 64
4, 101135, Note_on_c, 1, 67, 0
4, 101136, Note_on_c, 1, 65, 64
4, 101159, Note_on_c, 1, 65, 0
4, 101160, Note_on_c, 1, 67, 64
4, 101183, Note_on_c, 1, 67, 0
4, 101184, Note_on_c, 1, 64, 64
4, 101207, Note_on_c, 1, 64, 0
4, 101208, Note_on_c, 1, 67, 64
4, 101231, Note_on_c, 1, 67, 0
4, 101232, Note_on_c, 1, 64, 64
4, 101255, Note_on_c, 1, 64, 0
4, 101256, Note_on_c, 1, 67, 64
4, 101279, Note_on_c, 1, 67, 0
4, 101280, Note_on_c, 1, 62, 64
4, 101303, Note_on_c, 1, 62, 0
4, 101304, Note_on_c, 1, 67, 64
4, 101327, Note_on_c, 1, 67, 0
4, 101328, Note_on_c, 1, 62, 64
4, 101351, Note_on_c, 1, 62, 0
4, 101352, Note_on_c, 1, 67, 64
4, 101375, Note_on_c, 1, 67, 0
4, 101376, Note_on_c, 1, 64, 64
4, 101399, Note_on_c, 1, 64, 0
4, 101400, Note_on_c, 1, 67, 64
4, 101423, Note_on_c, 1, 67, 0
4, 101424, Note_on_c, 1, 64, 64
4, 101447, Note_on_c, 1, 64, 0
4, 101448, Note_on_c, 1, 67, 64
4, 101471, Note_on_c, 1, 67, 0
4, 101472, Note_on_c, 1, 65, 64
4, 101495, Note_on_c, 1, 65, 0
4, 101496, Note_on_c, 1, 67, 64
4, 101519, Note_on_c, 1, 67, 0
4, 101520, Note_on_c, 1, 65, 64
4, 101543, Note_on_c, 1, 65, 0
4, 101544, Note_on_c, 1, 67, 64
4, 101567, Note_on_c, 1, 67, 0
4, 101568, Note_on_c, 1, 63, 64
4, 101591, Note_on_c, 1, 63, 0
4, 101592, Note_on_c, 1, 67, 64
4, 101615, Note_on_c, 1, 67, 0
4, 101616, Note_on_c, 1, 63, 65
4, 101639, Note_on_c, 1, 63, 0
4, 101640, Note_on_c, 1, 67, 66
4, 101663, Note_on_c, 1, 67, 0
4, 101664, Note_on_c, 1, 62, 66
4, 101687, Note_on_c, 1, 62, 0
4, 101688, Note_on_c, 1, 67, 67
4, 101711, Note_on_c, 1, 67, 0
4, 101712, Note_on_c, 1, 62, 68
4, 101735, Note_on_c, 1, 62, 0
4, 101736, Note_on_c, 1, 67, 68
4, 101759, Note_on_c, 1, 67, 0
4, 101760, Note_on_c, 1, 63, 69
4, 101760, Note_on_c, 1, 60, 69
4, 101849, Note_on_c, 1, 63, 0
4, 101849, Note_on_c, 1, 60, 0
4, 101952, Note_on_c, 1, 60, 74
4, 101952, Note_on_c, 1, 56, 74
4, 102144, Note_on_c, 1, 60, 0
4, 102144, Note_on_c, 1, 56, 0
4, 102144, Note_on_c, 1, 59, 80
4, 102144, Note_on_c, 1, 55, 80
4, 102233, Note_on_c, 1, 59, 0
4, 102233, Note_on_c, 1, 55, 0
4, 102528, Note_on_c, 1, 55, 80
4, 102551, Note_on_c, 1, 55, 0
4, 102552, Note_on_c, 1, 54, 80
4, 102575, Note_on_c, 1, 54, 0
4, 102576, Note_on_c, 1, 55, 80
4, 102599, Note_on_c, 1, 55, 0
4, 102600, Note_on_c, 1, 50, 80
4, 102623, Note_on_c, 1, 50, 0
4, 102624, Note_on_c, 1, 51, 80
4, 102647, Note_on_c, 1, 51, 0
4, 102648, Note_on_c, 1, 50, 80
4, 102671, Note_on_c, 1, 50, 0
4, 102672, Note_on_c, 1, 51, 80
4, 102695, Note_on_c, 1, 51, 0
4, 102696, Note_on_c, 1, 47, 80
4, 102719, Note_on_c, 1, 47, 0
4, 102720, Note_on_c, 1, 48, 80
4, 102743, Note_on_c, 1, 48, 0
4, 102744, Note_on_c, 1, 47, 80
4, 102767, Note_on_c, 1, 47, 0
4, 102768, Note_on_c, 1, 48, 80
4, 102791, Note_on_c, 1, 48, 0
4, 102792, Note_on_c, 1, 43, 80
4, 102815, Note_on_c, 1, 43, 0
4, 102816, Note_on_c, 1, 44, 80
4, 102839, Note_on_c, 1, 44, 0
4, 102840, Note_on_c, 1, 43, 80
4, 102863, Note_on_c, 1, 43, 0
4, 102864, Note_on_c, 1, 44, 80
4, 102887, Note_on_c, 1, 44, 0
4, 102888, Note_on_c, 1, 42, 80
4, 102911, Note_on_c, 1, 42, 0
4, 102912, Control_c, 1, 64, 127
4, 102912, Note_on_c, 1, 55, 80
4, 103001, Note_on_c, 1, 55, 0
4, 103008, Note_on_c, 1, 55, 80
4, 103008, Note_on_c, 1, 50, 80
4, 103008, Note_on_c, 1, 47, 80
4, 103097, Note_on_c, 1, 55, 0
4, 103097, Note_on_c, 1, 50, 0
4, 103097, Note_on_c, 1, 47, 0
4, 103104, Control_c, 1, 64, 0
4, 103104, Note_on_c, 1, 55, 80
4, 103104, Note_on_c, 1, 50, 80
4, 103104, Note_on_c, 1, 47, 80
4, 103193, Note_on_c, 1, 55, 0
4, 103193, Note_on_c, 1, 50, 0
4, 103193, Note_on_c, 1, 47, 0
4, 103296, Control_c, 1, 64, 127
4, 103296, Note_on_c, 1, 72, 58
4, 103385, Note_on_c, 1, 72, 0
4, 103392, Note_on_c, 1, 67, 58
4, 103481, Note_on_c, 1, 67, 0
4, 103488, Note_on_c, 1, 64, 58
4, 103577, Note_on_c, 1, 64, 0
4, 103584, Note_on_c, 1, 69, 58
4, 103673, Note_on_c, 1, 69, 0
4, 103680, Note_on_c, 1, 62, 58
4, 103769, Note_on_c, 1, 62, 0
4, 103776, Note_on_c, 1, 67, 58
4, 103865, Note_on_c, 1, 67, 0
4, 103872, Note_on_c, 1, 60, 58
4, 103961, Note_on_c, 1, 60, 0
4, 103968, Note_on_c, 1, 76, 58
4, 104153, Note_on_c, 1, 76, 0
4, 104160, Note_on_c, 1, 74, 58
4, 104337, Note_on_c, 1, 74, 0
4, 104352, Note_on_c, 1, 72, 58
4, 104537, Note_on_c, 1, 72, 0
4, 104544, Note_on_c, 1, 71, 58
4, 104633, Note_on_c, 1, 71, 0
4, 104640, Note_on_c, 1, 72, 58
4, 104729, Note_on_c, 1, 72, 0
4, 104736, Note_on_c, 1, 67, 58
4, 104736, Note_on_c, 1, 64, 58
4, 104832, Note_on_c, 1, 67, 0
4, 104832, Note_on_c, 1, 64, 0
4, 104832, Control_c, 1, 64, 0
4, 104832, Note_on_c, 1, 69, 58
4, 104832, Note_on_c, 1, 65, 58
4, 104926, Note_on_c, 1, 69, 0
4, 104926, Note_on_c, 1, 65, 0
4, 104928, Note_on_c, 1, 69, 62
4, 104928, Note_on_c, 1, 66, 62
4, 105017, Note_on_c, 1, 69, 0
4, 105017, Note_on_c, 1, 66, 0
4, 105024, Note_on_c, 1, 67, 66
4, 105113, Note_on_c, 1, 67, 0
4, 105144, Note_on_c, 1, 67, 70
4, 105167, Note_on_c, 1, 67, 0
4, 105168, Note_on_c, 1, 65, 70
4, 105191, Note_on_c, 1, 65, 0
4, 105192, Note_on_c, 1, 62, 70
4, 105215, Note_on_c, 1, 62, 0
4, 105216, Note_on_c, 1, 64, 70
4, 105261, Note_on_c, 1, 64, 0
4, 105336, Note_on_c, 1, 64, 70
4, 105359, Note_on_c, 1, 64, 0
4, 105360, Note_on_c, 1, 62, 70
4, 105383, Note_on_c, 1, 62, 0
4, 105384, Note_on_c, 1, 60, 70
4, 105407, Note_on_c, 1, 60, 0
4, 105408, Note_on_c, 1, 59, 70
4, 105453, Note_on_c, 1, 59, 0
4, 105528, Note_on_c, 1, 67, 70
4, 105551, Note_on_c, 1, 67, 0
4, 105552, Note_on_c, 1, 65, 70
4, 105575, Note_on_c, 1, 65, 0
4, 105576, Note_on_c, 1, 62, 70
4, 105599, Note_on_c, 1, 62, 0
4, 105600, Note_on_c, 1, 60, 70
4, 105645, Note_on_c, 1, 60, 0
4, 105672, Note_on_c, 1, 67, 70
4, 105696, Note_on_c, 1, 67, 0
4, 105696, Note_on_c, 1, 64, 70
4, 105719, Note_on_c, 1, 64, 0
4, 105768, Note_on_c, 1, 72, 66
4, 105792, Note_on_c, 1, 72, 0
4, 105792, Note_on_c, 1, 67, 67
4, 105815, Note_on_c, 1, 67, 0
4, 105864, Note_on_c, 1, 76, 70
4, 105888, Note_on_c, 1, 76, 0
4, 105888, Note_on_c, 1, 72, 71
4, 105911, Note_on_c, 1, 72, 0
4, 105960, Note_on_c, 1, 80, 74
4, 105984, Note_on_c, 1, 80, 0
4, 105984, Note_on_c, 1, 81, 75
4, 106007, Note_on_c, 1, 81, 0
4, 106056, Note_on_c, 1, 76, 75
4, 106080, Note_on_c, 1, 76, 0
4, 106080, Note_on_c, 1, 77, 75
4, 106103, Note_on_c, 1, 77, 0
4, 106152, Note_on_c, 1, 73, 75
4, 106176, Note_on_c, 1, 73, 0
4, 106176, Note_on_c, 1, 74, 75
4, 106199, Note_on_c, 1, 74, 0
4, 106248, Note_on_c, 1, 64, 75
4, 106272, Note_on_c, 1, 64, 0
4, 106272, Note_on_c, 1, 65, 75
4, 106295, Note_on_c, 1, 65, 0
4, 106344, Note_on_c, 1, 54, 75
4, 106368, Note_on_c, 1, 54, 0
4, 106368, Note_on_c, 1, 55, 75
4, 106457, Note_on_c, 1, 55, 0
4, 106752, Note_on_c, 1, 65, 80
4, 106752, Note_on_c, 1, 62, 80
4, 106752, Note_on_c, 1, 59, 80
4, 106752, Note_on_c, 1, 55, 80
4, 106929, Note_on_c, 1, 65, 0
4, 106929, Note_on_c, 1, 62, 0
4, 106929, Note_on_c, 1, 59, 0
4, 106929, Note_on_c, 1, 55, 0
4, 106944, Note_on_c, 1, 81, 70
4, 106980, Note_on_c, 1, 81, 0
4, 106980, Note_on_c, 1, 83, 64
4, 106992, Note_on_c, 1, 83, 0
4, 106992, Note_on_c, 1, 84, 64
4, 107004, Note_on_c, 1, 84, 0
4, 107004, Note_on_c, 1, 83, 64
4, 107016, Note_on_c, 1, 83, 0
4, 107016, Note_on_c, 1, 84, 64
4, 107028, Note_on_c, 1, 84, 0
4, 107028, Note_on_c, 1, 83, 64
4, 107040, Note_on_c, 1, 83, 0
4, 107040, Note_on_c, 1, 84, 64
4, 107052, Note_on_c, 1, 84, 0
4, 107052, Note_on_c, 1, 83, 64
4, 107064, Note_on_c, 1, 83, 0
4, 107064, Note_on_c, 1, 84, 64
4, 107076, Note_on_c, 1, 84, 0
4, 107076, Note_on_c, 1, 83, 64
4, 107088, Note_on_c, 1, 83, 0
4, 107088, Note_on_c, 1, 84, 64
4, 107100, Note_on_c, 1, 84, 0
4, 107100, Note_on_c, 1, 83, 64
4, 107112, Note_on_c, 1, 83, 0
4, 107112, Note_on_c, 1, 81, 64
4, 107124, Note_on_c, 1, 81, 0
4, 107124, Note_on_c, 1, 83, 64
4, 107136, Note_on_c, 1, 83, 0
4, 107136, Control_c, 1, 64, 127
4, 107136, Note_on_c, 1, 48, 80
4, 107160, Note_on_c, 1, 48, 0
4, 107160, Note_on_c, 1, 60, 64
4, 107183, Note_on_c, 1, 60, 0
4, 107184, Note_on_c, 1, 48, 64
4, 107207, Note_on_c, 1, 48, 0
4, 107208, Note_on_c, 1, 60, 64
4, 107231, Note_on_c, 1, 60, 0
4, 107232, Note_on_c, 1, 48, 64
4, 107255, Note_on_c, 1, 48, 0
4, 107256, Note_on_c, 1, 60, 64
4, 107279, Note_on_c, 1, 60, 0
4, 107280, Note_on_c, 1, 48, 64
4, 107303, Note_on_c, 1, 48, 0
4, 107304, Note_on_c, 1, 60, 64
4, 107327, Note_on_c, 1, 60, 0
4, 107328, Note_on_c, 1, 48, 64
4, 107351, Note_on_c, 1, 48, 0
4, 107352, Note_on_c, 1, 60, 64
4, 107375, Note_on_c, 1, 60, 0
4, 107376, Note_on_c, 1, 48, 64
4, 107399, Note_on_c, 1, 48, 0
4, 107400, Note_on_c, 1, 60, 64
4, 107423, Note_on_c, 1, 60, 0
4, 107424, Note_on_c, 1, 48, 64
4, 107447, Note_on_c, 1, 48, 0
4, 107448, Note_on_c, 1, 60, 64
4, 107471, Note_on_c, 1, 60, 0
4, 107472, Note_on_c, 1, 48, 64
4, 107495, Note_on_c, 1, 48, 0
4, 107496, Note_on_c, 1, 60, 64
4, 107519, Note_on_c, 1, 60, 0
4, 107520, Note_on_c, 1, 48, 64
4, 107543, Note_on_c, 1, 48, 0
4, 107544, Note_on_c, 1, 60, 64
4, 107567, Note_on_c, 1, 60, 0
4, 107568, Note_on_c, 1, 48, 64
4, 107591, Note_on_c, 1, 48, 0
4, 107592, Note_on_c, 1, 60, 64
4, 107615, Note_on_c, 1, 60, 0
4, 107616, Note_on_c, 1, 48, 64
4, 107639, Note_on_c, 1, 48, 0
4, 107640, Note_on_c, 1, 60, 64
4, 107663, Note_on_c, 1, 60, 0
4, 107664, Note_on_c, 1, 48, 64
4, 107687, Note_on_c, 1, 48, 0
4, 107688, Note_on_c, 1, 60, 64
4, 107711, Note_on_c, 1, 60, 0
4, 107712, Note_on_c, 1, 48, 64
4, 107735, Note_on_c, 1, 48, 0
4, 107736, Note_on_c, 1, 60, 64
4, 107759, Note_on_c, 1, 60, 0
4, 107760, Note_on_c, 1, 48, 64
4, 107783, Note_on_c, 1, 48, 0
4, 107784, Note_on_c, 1, 60, 64
4, 107807, Note_on_c, 1, 60, 0
4, 107808, Note_on_c, 1, 48, 64
4, 107831, Note_on_c, 1, 48, 0
4, 107832, Note_on_c, 1, 60, 64
4, 107855, Note_on_c, 1, 60, 0
4, 107856, Note_on_c, 1, 48, 64
4, 107879, Note_on_c, 1, 48, 0
4, 107880, Note_on_c, 1, 60, 64
4, 107903, Note_on_c, 1, 60, 0
4, 107904, Note_on_c, 1, 48, 64
4, 107927, Note_on_c, 1, 48, 0
4, 107928, Note_on_c, 1, 60, 64
4, 107951, Note_on_c, 1, 60, 0
4, 107952, Note_on_c, 1, 48, 64
4, 107975, Note_on_c, 1, 48, 0
4, 107976, Note_on_c, 1, 60, 64
4, 107999, Note_on_c, 1, 60, 0
4, 108000, Note_on_c, 1, 48, 64
4, 108023, Note_on_c, 1, 48, 0
4, 108024, Note_on_c, 1, 60, 64
4, 108047, Note_on_c, 1, 60, 0
4, 108048, Note_on_c, 1, 48, 64
4, 108071, Note_on_c, 1, 48, 0
4, 108072, Note_on_c, 1, 60, 64
4, 108095, Note_on_c, 1, 60, 0
4, 108096, Note_on_c, 1, 48, 64
4, 108119, Note_on_c, 1, 48, 0
4, 108120, Note_on_c, 1, 60, 64
4, 108143, Note_on_c, 1, 60, 0
4, 108144, Note_on_c, 1, 48, 64
4, 108167, Note_on_c, 1, 48, 0
4, 108168, Note_on_c, 1, 60, 64
4, 108191, Note_on_c, 1, 60, 0
4, 108192, Note_on_c, 1, 48, 64
4, 108215, Note_on_c, 1, 48, 0
4, 108216, Note_on_c, 1, 60, 64
4, 108239, Note_on_c, 1, 60, 0
4, 108240, Note_on_c, 1, 48, 64
4, 108263, Note_on_c, 1, 48, 0
4, 108264, Note_on_c, 1, 60, 64
4, 108287, Note_on_c, 1, 60, 0
4, 108288, Note_on_c, 1, 48, 64
4, 108311, Note_on_c, 1, 48, 0
4, 108312, Note_on_c, 1, 60, 64
4, 108335, Note_on_c, 1, 60, 0
4, 108336, Note_on_c, 1, 48, 64
4, 108359, Note_on_c, 1, 48, 0
4, 108360, Note_on_c, 1, 60, 64
4, 108383, Note_on_c, 1, 60, 0
4, 108384, Note_on_c, 1, 48, 64
4, 108407, Note_on_c, 1, 48, 0
4, 108408, Note_on_c, 1, 60, 64
4, 108431, Note_on_c, 1, 60, 0
4, 108432, Note_on_c, 1, 48, 64
4, 108455, Note_on_c, 1, 48, 0
4, 108456, Control_c, 1, 64, 0
4, 108456, Note_on_c, 1, 60, 64
4, 108479, Note_on_c, 1, 60, 0
4, 108480, Control_c, 1, 64, 127
4, 108480, Note_on_c, 1, 48, 64
4, 108503, Note_on_c, 1, 48, 0
4, 108504, Note_on_c, 1, 58, 64
4, 108527, Note_on_c, 1, 58, 0
4, 108528, Note_on_c, 1, 48, 64
4, 108551, Note_on_c, 1, 48, 0
4, 108552, Note_on_c, 1, 58, 64
4, 108575, Note_on_c, 1, 58, 0
4, 108576, Note_on_c, 1, 48, 64
4, 108599, Note_on_c, 1, 48, 0
4, 108600, Note_on_c, 1, 58, 64
4, 108623, Note_on_c, 1, 58, 0
4, 108624, Note_on_c, 1, 48, 64
4, 108647, Note_on_c, 1, 48, 0
4, 108648, Control_c, 1, 64, 0
4, 108648, Note_on_c, 1, 58, 64
4, 108671, Note_on_c, 1, 58, 0
4, 108672, Control_c, 1, 64, 127
4, 108672, Note_on_c, 1, 48, 64
4, 108695, Note_on_c, 1, 48, 0
4, 108696, Note_on_c, 1, 56, 64
4, 108719, Note_on_c, 1, 56, 0
4, 108720, Note_on_c, 1, 48, 64
4, 108743, Note_on_c, 1, 48, 0
4, 108744, Note_on_c, 1, 56, 64
4, 108767, Note_on_c, 1, 56, 0
4, 108768, Note_on_c, 1, 48, 64
4, 108791, Note_on_c, 1, 48, 0
4, 108792, Note_on_c, 1, 56, 64
4, 108815, Note_on_c, 1, 56, 0
4, 108816, Note_on_c, 1, 48, 64
4, 108839, Note_on_c, 1, 48, 0
4, 108840, Control_c, 1, 64, 0
4, 108840, Note_on_c, 1, 56, 64
4, 108863, Note_on_c, 1, 56, 0
4, 108864, Control_c, 1, 64, 127
4, 108864, Note_on_c, 1, 50, 82
4, 108887, Note_on_c, 1, 50, 0
4, 108888, Note_on_c, 1, 56, 64
4, 108911, Note_on_c, 1, 56, 0
4, 108912, Note_on_c, 1, 50, 64
4, 108935, Note_on_c, 1, 50, 0
4, 108936, Note_on_c, 1, 56, 64
4, 108959, Note_on_c, 1, 56, 0
4, 108960, Note_on_c, 1, 50, 64
4, 108983, Note_on_c, 1, 50, 0
4, 108984, Note_on_c, 1, 56, 64
4, 109007, Note_on_c, 1, 56, 0
4, 109008, Note_on_c, 1, 50, 64
4, 109031, Note_on_c, 1, 50, 0
4, 109032, Control_c, 1, 64, 0
4, 109032, Note_on_c, 1, 56, 64
4, 109055, Note_on_c, 1, 56, 0
4, 109056, Control_c, 1, 64, 127
4, 109056, Note_on_c, 1, 52, 64
4, 109079, Note_on_c, 1, 52, 0
4, 109080, Note_on_c, 1, 55, 64
4, 109103, Note_on_c, 1, 55, 0
4, 109104, Note_on_c, 1, 52, 64
4, 109127, Note_on_c, 1, 52, 0
4, 109128, Note_on_c, 1, 55, 64
4, 109151, Note_on_c, 1, 55, 0
4, 109152, Note_on_c, 1, 52, 64
4, 109175, Note_on_c, 1, 52, 0
4, 109176, Note_on_c, 1, 60, 64
4, 109199, Note_on_c, 1, 60, 0
4, 109200, Note_on_c, 1, 52, 64
4, 109223, Note_on_c, 1, 52, 0
4, 109224, Control_c, 1, 64, 0
4, 109224, Note_on_c, 1, 60, 64
4, 109247, Note_on_c, 1, 60, 0
4, 109248, Control_c, 1, 64, 127
4, 109248, Note_on_c, 1, 53, 64
4, 109271, Note_on_c, 1, 53, 0
4, 109272, Note_on_c, 1, 60, 64
4, 109295, Note_on_c, 1, 60, 0
4, 109296, Note_on_c, 1, 53, 64
4, 109319, Note_on_c, 1, 53, 0
4, 109320, Control_c, 1, 64, 0
4, 109320, Note_on_c, 1, 60, 64
4, 109343, Note_on_c, 1, 60, 0
4, 109344, Control_c, 1, 64, 127
4, 109344, Note_on_c, 1, 53, 64
4, 109367, Note_on_c, 1, 53, 0
4, 109368, Note_on_c, 1, 61, 64
4, 109391, Note_on_c, 1, 61, 0
4, 109392, Note_on_c, 1, 53, 64
4, 109415, Note_on_c, 1, 53, 0
4, 109416, Control_c, 1, 64, 0
4, 109416, Note_on_c, 1, 61, 64
4, 109439, Note_on_c, 1, 61, 0
4, 109440, Control_c, 1, 64, 127
4, 109440, Note_on_c, 1, 53, 64
4, 109463, Note_on_c, 1, 53, 0
4, 109464, Note_on_c, 1, 62, 64
4, 109487, Note_on_c, 1, 62, 0
4, 109488, Note_on_c, 1, 53, 64
4, 109511, Note_on_c, 1, 53, 0
4, 109512, Note_on_c, 1, 62, 64
4, 109535, Note_on_c, 1, 62, 0
4, 109536, Note_on_c, 1, 53, 64
4, 109559, Note_on_c, 1, 53, 0
4, 109560, Note_on_c, 1, 62, 64
4, 109583, Note_on_c, 1, 62, 0
4, 109584, Note_on_c, 1, 53, 64
4, 109607, Note_on_c, 1, 53, 0
4, 109608, Control_c, 1, 64, 0
4, 109608, Note_on_c, 1, 62, 64
4, 109631, Note_on_c, 1, 62, 0
4, 109632, Control_c, 1, 64, 127
4, 109632, Note_on_c, 1, 54, 82
4, 109655, Note_on_c, 1, 54, 0
4, 109656, Note_on_c, 1, 60, 64
4, 109679, Note_on_c, 1, 60, 0
4, 109680, Note_on_c, 1, 54, 64
4, 109703, Note_on_c, 1, 54, 0
4, 109704, Note_on_c, 1, 60, 64
4, 109727, Note_on_c, 1, 60, 0
4, 109728, Note_on_c, 1, 54, 64
4, 109751, Note_on_c, 1, 54, 0
4, 109752, Note_on_c, 1, 60, 64
4, 109775, Note_on_c, 1, 60, 0
4, 109776, Note_on_c, 1, 54, 64
4, 109799, Note_on_c, 1, 54, 0
4, 109800, Control_c, 1, 64, 0
4, 109800, Note_on_c, 1, 60, 64
4, 109823, Note_on_c, 1, 60, 0
4, 109824, Control_c, 1, 64, 127
4, 109824, Note_on_c, 1, 55, 64
4, 109847, Note_on_c, 1, 55, 0
4, 109848, Note_on_c, 1, 60, 64
4, 109871, Note_on_c, 1, 60, 0
4, 109872, Note_on_c, 1, 55, 64
4, 109895, Note_on_c, 1, 55, 0
4, 109896, Note_on_c, 1, 60, 64
4, 109919, Note_on_c, 1, 60, 0
4, 109920, Note_on_c, 1, 55, 64
4, 109943, Note_on_c, 1, 55, 0
4, 109944, Note_on_c, 1, 60, 64
4, 109967, Note_on_c, 1, 60, 0
4, 109968, Note_on_c, 1, 55, 64
4, 109991, Note_on_c, 1, 55, 0
4, 109992, Control_c, 1, 64, 0
4, 109992, Note_on_c, 1, 60, 64
4, 110015, Note_on_c, 1, 60, 0
4, 110016, Control_c, 1, 64, 127
4, 110016, Note_on_c, 1, 55, 64
4, 110039, Note_on_c, 1, 55, 0
4, 110040, Note_on_c, 1, 59, 64
4, 110063, Note_on_c, 1, 59, 0
4, 110064, Note_on_c, 1, 55, 64
4, 110087, Note_on_c, 1, 55, 0
4, 110088, Note_on_c, 1, 59, 64
4, 110111, Note_on_c, 1, 59, 0
4, 110112, Note_on_c, 1, 55, 64
4, 110135, Note_on_c, 1, 55, 0
4, 110136, Note_on_c, 1, 59, 64
4, 110159, Note_on_c, 1, 59, 0
4, 110160, Note_on_c, 1, 55, 64
4, 110183, Note_on_c, 1, 55, 0
4, 110184, Control_c, 1, 64, 0
4, 110184, Note_on_c, 1, 59, 64
4, 110207, Note_on_c, 1, 59, 0
4, 110208, Note_on_c, 1, 60, 64
4, 110253, Note_on_c, 1, 60, 0
4, 110256, Note_on_c, 1, 55, 80
4, 110256, Note_on_c, 1, 52, 80
4, 110256, Note_on_c, 1, 48, 80
4, 110276, Note_on_c, 1, 55, 0
4, 110276, Note_on_c, 1, 52, 0
4, 110276, Note_on_c, 1, 48, 0
4, 110304, Note_on_c, 1, 55, 80
4, 110304, Note_on_c, 1, 50, 80
4, 110304, Note_on_c, 1, 47, 80
4, 110324, Note_on_c, 1, 55, 0
4, 110324, Note_on_c, 1, 50, 0
4, 110324, Note_on_c, 1, 47, 0
4, 110352, Note_on_c, 1, 55, 80
4, 110352, Note_on_c, 1, 52, 80
4, 110352, Note_on_c, 1, 48, 80
4, 110372, Note_on_c, 1, 55, 0
4, 110372, Note_on_c, 1, 52, 0
4, 110372, Note_on_c, 1, 48, 0
4, 110400, Note_on_c, 1, 53, 80
4, 110400, Note_on_c, 1, 41, 80
4, 110445, Note_on_c, 1, 53, 0
4, 110445, Note_on_c, 1, 41, 0
4, 110544, Note_on_c, 1, 55, 64
4, 110544, Note_on_c, 1, 47, 64
4, 110589, Note_on_c, 1, 55, 0
4, 110589, Note_on_c, 1, 47, 0
4, 110592, Note_on_c, 1, 60, 64
4, 110637, Note_on_c, 1, 60, 0
4, 110640, Note_on_c, 1, 55, 80
4, 110640, Note_on_c, 1, 52, 80
4, 110640, Note_on_c, 1, 48, 80
4, 110660, Note_on_c, 1, 55, 0
4, 110660, Note_on_c, 1, 52, 0
4, 110660, Note_on_c, 1, 48, 0
4, 110688, Note_on_c, 1, 55, 80
4, 110688, Note_on_c, 1, 50, 80
4, 110688, Note_on_c, 1, 47, 80
4, 110708, Note_on_c, 1, 55, 0
4, 110708, Note_on_c, 1, 50, 0
4, 110708, Note_on_c, 1, 47, 0
4, 110736, Note_on_c, 1, 55, 80
4, 110736, Note_on_c, 1, 52, 80
4, 110736, Note_on_c, 1, 48, 80
4, 110756, Note_on_c, 1, 55, 0
4, 110756, Note_on_c, 1, 52, 0
4, 110756, Note_on_c, 1, 48, 0
4, 110784, Note_on_c, 1, 53, 80
4, 110784, Note_on_c, 1, 41, 80
4, 110829, Note_on_c, 1, 53, 0
4, 110829, Note_on_c, 1, 41, 0
4, 110928, Note_on_c, 1, 55, 64
4, 110928, Note_on_c, 1, 47, 64
4, 110973, Note_on_c, 1, 55, 0
4, 110973, Note_on_c, 1, 47, 0
4, 110976, Note_on_c, 1, 48, 64
4, 110996, Note_on_c, 1, 48, 0
4, 111024, Note_on_c, 1, 48, 80
4, 111039, Note_on_c, 1, 48, 0
4, 111040, Note_on_c, 1, 52, 80
4, 111055, Note_on_c, 1, 52, 0
4, 111056, Note_on_c, 1, 55, 80
4, 111071, Note_on_c, 1, 55, 0
4, 111072, Note_on_c, 1, 47, 80
4, 111087, Note_on_c, 1, 47, 0
4, 111088, Note_on_c, 1, 50, 80
4, 111103, Note_on_c, 1, 50, 0
4, 111104, Note_on_c, 1, 55, 80
4, 111119, Note_on_c, 1, 55, 0
4, 111120, Note_on_c, 1, 48, 80
4, 111135, Note_on_c, 1, 48, 0
4, 111136, Note_on_c, 1, 52, 80
4, 111151, Note_on_c, 1, 52, 0
4, 111152, Note_on_c, 1, 55, 80
4, 111167, Note_on_c, 1, 55, 0
4, 111168, Note_on_c, 1, 41, 80
4, 111213, Note_on_c, 1, 41, 0
4, 111264, Note_on_c, 1, 57, 80
4, 111264, Note_on_c, 1, 53, 80
4, 111284, Note_on_c, 1, 57, 0
4, 111284, Note_on_c, 1, 53, 0
4, 111360, Note_on_c, 1, 57, 80
4, 111360, Note_on_c, 1, 53, 80
4, 111380, Note_on_c, 1, 57, 0
4, 111380, Note_on_c, 1, 53, 0
4, 111456, Note_on_c, 1, 57, 78
4, 111456, Note_on_c, 1, 53, 78
4, 111476, Note_on_c, 1, 57, 0
4, 111476, Note_on_c, 1, 53, 0
4, 111552, Note_on_c, 1, 57, 77
4, 111552, Note_on_c, 1, 53, 77
4, 111572, Note_on_c, 1, 57, 0
4, 111572, Note_on_c, 1, 53, 0
4, 111648, Note_on_c, 1, 57, 76
4, 111648, Note_on_c, 1, 53, 76
4, 111668, Note_on_c, 1, 57, 0
4, 111668, Note_on_c, 1, 53, 0
4, 111744, Note_on_c, 1, 64, 75
4, 111744, Note_on_c, 1, 60, 75
4, 111744, Note_on_c, 1, 55, 75
4, 111838, Note_on_c, 1, 64, 0
4, 111838, Note_on_c, 1, 60, 0
4, 111838, Note_on_c, 1, 55, 0
4, 111936, Note_on_c, 1, 55, 80
4, 111947, Note_on_c, 1, 59, 80
4, 111958, Note_on_c, 1, 62, 80
4, 111969, Note_on_c, 1, 65, 80
4, 112126, Note_on_c, 1, 65, 0
4, 112126, Note_on_c, 1, 62, 0
4, 112126, Note_on_c, 1, 59, 0
4, 112126, Note_on_c, 1, 55, 0
4, 112128, Note_on_c, 1, 64, 64
4, 112151, Note_on_c, 1, 64, 0
4, 112152, Note_on_c, 1, 67, 64
4, 112175, Note_on_c, 1, 67, 0
4, 112176, Note_on_c, 1, 64, 64
4, 112199, Note_on_c, 1, 64, 0
4, 112200, Note_on_c, 1, 67, 64
4, 112223, Note_on_c, 1, 67, 0
4, 112224, Note_on_c, 1, 64, 64
4, 112247, Note_on_c, 1, 64, 0
4, 112248, Note_on_c, 1, 67, 64
4, 112271, Note_on_c, 1, 67, 0
4, 112272, Note_on_c, 1, 64, 64
4, 112295, Note_on_c, 1, 64, 0
4, 112296, Note_on_c, 1, 67, 64
4, 112319, Note_on_c, 1, 67, 0
4, 112320, Note_on_c, 1, 64, 64
4, 112343, Note_on_c, 1, 64, 0
4, 112344, Note_on_c, 1, 67, 64
4, 112367, Note_on_c, 1, 67, 0
4, 112368, Note_on_c, 1, 64, 64
4, 112391, Note_on_c, 1, 64, 0
4, 112392, Note_on_c, 1, 67, 64
4, 112415, Note_on_c, 1, 67, 0
4, 112416, Note_on_c, 1, 64, 64
4, 112439, Note_on_c, 1, 64, 0
4, 112440, Note_on_c, 1, 67, 64
4, 112463, Note_on_c, 1, 67, 0
4, 112464, Note_on_c, 1, 64, 64
4, 112487, Note_on_c, 1, 64, 0
4, 112488, Note_on_c, 1, 67, 64
4, 112511, Note_on_c, 1, 67, 0
4, 112512, Control_c, 1, 64, 127
4, 112512, Note_on_c, 1, 65, 64
4, 112535, Note_on_c, 1, 65, 0
4, 112536, Note_on_c, 1, 67, 64
4, 112559, Note_on_c, 1, 67, 0
4, 112560, Note_on_c, 1, 65, 64
4, 112583, Note_on_c, 1, 65, 0
4, 112584, Note_on_c, 1, 67, 64
4, 112607, Note_on_c, 1, 67, 0
4, 112608, Note_on_c, 1, 65, 64
4, 112631, Note_on_c, 1, 65, 0
4, 112632, Note_on_c, 1, 67, 64
4, 112655, Note_on_c, 1, 67, 0
4, 112656, Note_on_c, 1, 65, 64
4, 112679, Note_on_c, 1, 65, 0
4, 112680, Note_on_c, 1, 67, 64
4, 112703, Note_on_c, 1, 67, 0
4, 112704, Note_on_c, 1, 65, 64
4, 112727, Note_on_c, 1, 65, 0
4, 112728, Note_on_c, 1, 67, 64
4, 112751, Note_on_c, 1, 67, 0
4, 112752, Note_on_c, 1, 65, 64
4, 112775, Note_on_c, 1, 65, 0
4, 112776, Note_on_c, 1, 67, 64
4, 112799, Note_on_c, 1, 67, 0
4, 112800, Note_on_c, 1, 65, 64
4, 112823, Note_on_c, 1, 65, 0
4, 112824, Note_on_c, 1, 67, 64
4, 112847, Note_on_c, 1, 67, 0
4, 112848, Note_on_c, 1, 65, 64
4, 112871, Note_on_c, 1, 65, 0
4, 112872, Control_c, 1, 64, 0
4, 112872, Note_on_c, 1, 67, 64
4, 112895, Note_on_c, 1, 67, 0
4, 112896, Note_on_c, 1, 64, 64
4, 112919, Note_on_c, 1, 64, 0
4, 112920, Note_on_c, 1, 67, 64
4, 112943, Note_on_c, 1, 67, 0
4, 112944, Note_on_c, 1, 64, 64
4, 112967, Note_on_c, 1, 64, 0
4, 112968, Note_on_c, 1, 67, 64
4, 112991, Note_on_c, 1, 67, 0
4, 112992, Note_on_c, 1, 64, 64
4, 113015, Note_on_c, 1, 64, 0
4, 113016, Note_on_c, 1, 67, 64
4, 113039, Note_on_c, 1, 67, 0
4, 113040, Note_on_c, 1, 64, 64
4, 113063, Note_on_c, 1, 64, 0
4, 113064, Note_on_c, 1, 67, 64
4, 113087, Note_on_c, 1, 67, 0
4, 113088, Note_on_c, 1, 64, 64
4, 113111, Note_on_c, 1, 64, 0
4, 113112, Note_on_c, 1, 67, 64
4, 113135, Note_on_c, 1, 67, 0
4, 113136, Note_on_c, 1, 64, 64
4, 113159, Note_on_c, 1, 64, 0
4, 113160, Note_on_c, 1, 67, 64
4, 113183, Note_on_c, 1, 67, 0
4, 113184, Note_on_c, 1, 64, 64
4, 113207, Note_on_c, 1, 64, 0
4, 113208, Note_on_c, 1, 67, 64
4, 113231, Note_on_c, 1, 67, 0
4, 113232, Note_on_c, 1, 64, 64
4, 113255, Note_on_c, 1, 64, 0
4, 113256, Note_on_c, 1, 67, 64
4, 113279, Note_on_c, 1, 67, 0
4, 113280, Control_c, 1, 64, 127
4, 113280, Note_on_c, 1, 65, 64
4, 113303, Note_on_c, 1, 65, 0
4, 113304, Note_on_c, 1, 67, 64
4, 113327, Note_on_c, 1, 67, 0
4, 113328, Note_on_c, 1, 65, 64
4, 113351, Note_on_c, 1, 65, 0
4, 113352, Note_on_c, 1, 67, 64
4, 113375, Note_on_c, 1, 67, 0
4, 113376, Note_on_c, 1, 65, 64
4, 113399, Note_on_c, 1, 65, 0
4, 113400, Note_on_c, 1, 67, 64
4, 113423, Note_on_c, 1, 67, 0
4, 113424, Note_on_c, 1, 65, 64
4, 113447, Note_on_c, 1, 65, 0
4, 113448, Note_on_c, 1, 67, 64
4, 113471, Note_on_c, 1, 67, 0
4, 113472, Note_on_c, 1, 65, 64
4, 113495, Note_on_c, 1, 65, 0
4, 113496, Note_on_c, 1, 67, 64
4, 113519, Note_on_c, 1, 67, 0
4, 113520, Note_on_c, 1, 65, 64
4, 113543, Note_on_c, 1, 65, 0
4, 113544, Note_on_c, 1, 67, 64
4, 113567, Note_on_c, 1, 67, 0
4, 113568, Note_on_c, 1, 65, 64
4, 113591, Note_on_c, 1, 65, 0
4, 113592, Note_on_c, 1, 67, 64
4, 113615, Note_on_c, 1, 67, 0
4, 113616, Note_on_c, 1, 65, 64
4, 113639, Note_on_c, 1, 65, 0
4, 113640, Control_c, 1, 64, 0
4, 113640, Note_on_c, 1, 67, 64
4, 113663, Note_on_c, 1, 67, 0
4, 113664, Note_on_c, 1, 64, 64
4, 113664, Note_on_c, 1, 60, 64
4, 113753, Note_on_c, 1, 64, 0
4, 113753, Note_on_c, 1, 60, 0
4, 113856, Note_on_c, 1, 65, 72
4, 113856, Note_on_c, 1, 62, 72
4, 113856, Note_on_c, 1, 55, 72
4, 113945, Note_on_c, 1, 65, 0
4, 113945, Note_on_c, 1, 62, 0
4, 113945, Note_on_c, 1, 55, 0
4, 114048, Note_on_c, 1, 64, 80
4, 114048, Note_on_c, 1, 60, 80
4, 114093, Note_on_c, 1, 64, 0
4, 114093, Note_on_c, 1, 60, 0
4, 114288, Note_on_c, 1, 53, 80
4, 114312, Note_on_c, 1, 53, 0
4, 114312, Note_on_c, 1, 50, 80
4, 114335, Note_on_c, 1, 50, 0
4, 114336, Note_on_c, 1, 55, 80
4, 114356, Note_on_c, 1, 55, 0
4, 114384, Note_on_c, 1, 55, 80
4, 114384, Note_on_c, 1, 43, 80
4, 114404, Note_on_c, 1, 55, 0
4, 114404, Note_on_c, 1, 43, 0
4, 114432, Note_on_c, 1, 48, 80
4, 114432, Note_on_c, 1, 36, 80
4, 114477, Note_on_c, 1, 48, 0
4, 114477, Note_on_c, 1, 36, 0
4, 114672, Note_on_c, 1, 53, 80
4, 114696, Note_on_c, 1, 53, 0
4, 114696, Note_on_c, 1, 50, 80
4, 114719, Note_on_c, 1, 50, 0
4, 114720, Note_on_c, 1, 55, 80
4, 114740, Note_on_c, 1, 55, 0
4, 114768, Note_on_c, 1, 55, 80
4, 114768, Note_on_c, 1, 43, 80
4, 114788, Note_on_c, 1, 55, 0
4, 114788, Note_on_c, 1, 43, 0
4, 114816, Note_on_c, 1, 48, 80
4, 114816, Note_on_c, 1, 36, 80
4, 114861, Note_on_c, 1, 48, 0
4, 114861, Note_on_c, 1, 36, 0
4, 114912, Note_on_c, 1, 43, 86
4, 114918, Note_on_c, 1, 47, 86
4, 114924, Note_on_c, 1, 50, 86
4, 114930, Note_on_c, 1, 55, 86
4, 114957, Note_on_c, 1, 55, 0
4, 114957, Note_on_c, 1, 50, 0
4, 114957, Note_on_c, 1, 47, 0
4, 114957, Note_on_c, 1, 43, 0
4, 115008, Note_on_c, 1, 36, 86
4, 115014, Note_on_c, 1, 40, 86
4, 115020, Note_on_c, 1, 43, 86
4, 115026, Note_on_c, 1, 48, 86
4, 115101, Note_on_c, 1, 48, 0
4, 115101, Note_on_c, 1, 43, 0
4, 115101, Note_on_c, 1, 40, 0
4, 115101, Note_on_c, 1, 36, 0
4, 115200, Note_on_c, 1, 36, 0
4, 115245, Note_on_c, 1, 36, 0
4, 115248, End_track
5, 0, Start_track
5, 0, Program_c, 1, 0
5, 0, Control_c, 1, 7, 127
5, 0, Control_c, 1, 10, 64
5, 3648, Note_on_c, 1, 60, 75
5, 3693, Note_on_c, 1, 60, 0
5, 3696, Note_on_c, 1, 60, 72
5, 3741, Note_on_c, 1, 60, 0
5, 3744, Note_on_c, 1, 60, 70
5, 3789, Note_on_c, 1, 60, 0
5, 3792, Note_on_c, 1, 60, 70
5, 3837, Note_on_c, 1, 60, 0
5, 3840, Note_on_c, 1, 60, 70
5, 3885, Note_on_c, 1, 60, 0
5, 3888, Note_on_c, 1, 60, 70
5, 3933, Note_on_c, 1, 60, 0
5, 3936, Note_on_c, 1, 60, 70
5, 3981, Note_on_c, 1, 60, 0
5, 3984, Note_on_c, 1, 60, 70
5, 4029, Note_on_c, 1, 60, 0
5, 4032, Note_on_c, 1, 60, 70
5, 4077, Note_on_c, 1, 60, 0
5, 4080, Note_on_c, 1, 60, 70
5, 4125, Note_on_c, 1, 60, 0
5, 4128, Note_on_c, 1, 60, 70
5, 4173, Note_on_c, 1, 60, 0
5, 4176, Note_on_c, 1, 60, 70
5, 4221, Note_on_c, 1, 60, 0
5, 4224, Note_on_c, 1, 60, 70
5, 4269, Note_on_c, 1, 60, 0
5, 4272, Note_on_c, 1, 60, 70
5, 4317, Note_on_c, 1, 60, 0
5, 4320, Note_on_c, 1, 60, 70
5, 4365, Note_on_c, 1, 60, 0
5, 4368, Note_on_c, 1, 60, 70
5, 4413, Note_on_c, 1, 60, 0
5, 4416, Note_on_c, 1, 60, 70
5, 4461, Note_on_c, 1, 60, 0
5, 4464, Note_on_c, 1, 60, 70
5, 4509, Note_on_c, 1, 60, 0
5, 4512, Note_on_c, 1, 60, 70
5, 4557, Note_on_c, 1, 60, 0
5, 4560, Note_on_c, 1, 60, 70
5, 4605, Note_on_c, 1, 60, 0
5, 4608, Note_on_c, 1, 60, 70
5, 4653, Note_on_c, 1, 60, 0
5, 4656, Note_on_c, 1, 60, 70
5, 4701, Note_on_c, 1, 60, 0
5, 4704, Note_on_c, 1, 60, 70
5, 4749, Note_on_c, 1, 60, 0
5, 4752, Note_on_c, 1, 60, 70
5, 4797, Note_on_c, 1, 60, 0
5, 4800, Note_on_c, 1, 60, 70
5, 4845, Note_on_c, 1, 60, 0
5, 4848, Note_on_c, 1, 60, 70
5, 4893, Note_on_c, 1, 60, 0
5, 4896, Note_on_c, 1, 59, 70
5, 4941, Note_on_c, 1, 59, 0
5, 4944, Note_on_c, 1, 59, 70
5, 4989, Note_on_c, 1, 59, 0
5, 4992, Note_on_c, 1, 60, 70
5, 5037, Note_on_c, 1, 60, 0
5, 5040, Note_on_c, 1, 60, 70
5, 5085, Note_on_c, 1, 60, 0
5, 5088, Note_on_c, 1, 62, 70
5, 5133, Note_on_c, 1, 62, 0
5, 5136, Note_on_c, 1, 62, 70
5, 5181, Note_on_c, 1, 62, 0
5, 5184, Note_on_c, 1, 64, 70
5, 5229, Note_on_c, 1, 64, 0
5, 5232, Note_on_c, 1, 64, 70
5, 5277, Note_on_c, 1, 64, 0
5, 5280, Note_on_c, 1, 59, 70
5, 5325, Note_on_c, 1, 59, 0
5, 5328, Note_on_c, 1, 59, 70
5, 5373, Note_on_c, 1, 59, 0
5, 8448, Note_on_c, 1, 50, 80
5, 8802, Note_on_c, 1, 50, 0
5, 12432, Note_on_c, 1, 59, 75
5, 12477, Note_on_c, 1, 59, 0
5, 12480, Note_on_c, 1, 60, 75
5, 12569, Note_on_c, 1, 60, 0
5, 12576, Note_on_c, 1, 62, 75
5, 12665, Note_on_c, 1, 62, 0
5, 17664, Note_on_c, 1, 55, 70
5, 17709, Note_on_c, 1, 55, 0
5, 17712, Note_on_c, 1, 55, 70
5, 17757, Note_on_c, 1, 55, 0
5, 17760, Note_on_c, 1, 55, 70
5, 17805, Note_on_c, 1, 55, 0
5, 17808, Note_on_c, 1, 55, 70
5, 17853, Note_on_c, 1, 55, 0
5, 17856, Note_on_c, 1, 55, 70
5, 17901, Note_on_c, 1, 55, 0
5, 17904, Note_on_c, 1, 55, 70
5, 17949, Note_on_c, 1, 55, 0
5, 17952, Note_on_c, 1, 55, 70
5, 17997, Note_on_c, 1, 55, 0
5, 18000, Note_on_c, 1, 55, 70
5, 18045, Note_on_c, 1, 55, 0
5, 18048, Note_on_c, 1, 55, 70
5, 18093, Note_on_c, 1, 55, 0
5, 18096, Note_on_c, 1, 55, 70
5, 18141, Note_on_c, 1, 55, 0
5, 18144, Note_on_c, 1, 55, 70
5, 18189, Note_on_c, 1, 55, 0
5, 18192, Note_on_c, 1, 55, 70
5, 18237, Note_on_c, 1, 55, 0
5, 18240, Note_on_c, 1, 55, 70
5, 18285, Note_on_c, 1, 55, 0
5, 18288, Note_on_c, 1, 55, 70
5, 18333, Note_on_c, 1, 55, 0
5, 18336, Note_on_c, 1, 55, 70
5, 18381, Note_on_c, 1, 55, 0
5, 18384, Note_on_c, 1, 55, 70
5, 18429, Note_on_c, 1, 55, 0
5, 18432, Note_on_c, 1, 55, 70
5, 18477, Note_on_c, 1, 55, 0
5, 18480, Note_on_c, 1, 55, 70
5, 18525, Note_on_c, 1, 55, 0
5, 18528, Note_on_c, 1, 55, 70
5, 18573, Note_on_c, 1, 55, 0
5, 18576, Note_on_c, 1, 55, 70
5, 18621, Note_on_c, 1, 55, 0
5, 18624, Note_on_c, 1, 55, 70
5, 18669, Note_on_c, 1, 55, 0
5, 18672, Note_on_c, 1, 55, 70
5, 18717, Note_on_c, 1, 55, 0
5, 18720, Note_on_c, 1, 55, 70
5, 18765, Note_on_c, 1, 55, 0
5, 18768, Note_on_c, 1, 55, 70
5, 18813, Note_on_c, 1, 55, 0
5, 18816, Note_on_c, 1, 55, 70
5, 18861, Note_on_c, 1, 55, 0
5, 18864, Note_on_c, 1, 55, 70
5, 18909, Note_on_c, 1, 55, 0
5, 18912, Note_on_c, 1, 55, 70
5, 18957, Note_on_c, 1, 55, 0
5, 18960, Note_on_c, 1, 55, 70
5, 19005, Note_on_c, 1, 55, 0
5, 19008, Note_on_c, 1, 55, 70
5, 19053, Note_on_c, 1, 55, 0
5, 19056, Note_on_c, 1, 55, 70
5, 19101, Note_on_c, 1, 55, 0
5, 19104, Note_on_c, 1, 55, 70
5, 19149, Note_on_c, 1, 55, 0
5, 19152, Note_on_c, 1, 55, 70
5, 19197, Note_on_c, 1, 55, 0
5, 24000, Note_on_c, 1, 60, 75
5, 24045, Note_on_c, 1, 60, 0
5, 24048, Note_on_c, 1, 60, 72
5, 24093, Note_on_c, 1, 60, 0
5, 24096, Note_on_c, 1, 60, 70
5, 24141, Note_on_c, 1, 60, 0
5, 24144, Note_on_c, 1, 60, 70
5, 24189, Note_on_c, 1, 60, 0
5, 24192, Note_on_c, 1, 60, 70
5, 24237, Note_on_c, 1, 60, 0
5, 24240, Note_on_c, 1, 60, 70
5, 24285, Note_on_c, 1, 60, 0
5, 24288, Note_on_c, 1, 60, 70
5, 24333, Note_on_c, 1, 60, 0
5, 24336, Note_on_c, 1, 60, 70
5, 24381, Note_on_c, 1, 60, 0
5, 24384, Note_on_c, 1, 60, 70
5, 24429, Note_on_c, 1, 60, 0
5, 24432, Note_on_c, 1, 60, 70
5, 24477, Note_on_c, 1, 60, 0
5, 24480, Note_on_c, 1, 60, 70
5, 24525, Note_on_c, 1, 60, 0
5, 24528, Note_on_c, 1, 60, 70
5, 24573, Note_on_c, 1, 60, 0
5, 24576, Note_on_c, 1, 60, 70
5, 24621, Note_on_c, 1, 60, 0
5, 24624, Note_on_c, 1, 60, 70
5, 24669, Note_on_c, 1, 60, 0
5, 24672, Note_on_c, 1, 60, 70
5, 24717, Note_on_c, 1, 60, 0
5, 24720, Note_on_c, 1, 60, 70
5, 24765, Note_on_c, 1, 60, 0
5, 24768, Note_on_c, 1, 60, 70
5, 24813, Note_on_c, 1, 60, 0
5, 24816, Note_on_c, 1, 60, 70
5, 24861, Note_on_c, 1, 60, 0
5, 24864, Note_on_c, 1, 60, 70
5, 24909, Note_on_c, 1, 60, 0
5, 24912, Note_on_c, 1, 60, 70
5, 24957, Note_on_c, 1, 60, 0
5, 24960, Note_on_c, 1, 60, 70
5, 25005, Note_on_c, 1, 60, 0
5, 25008, Note_on_c, 1, 60, 70
5, 25053, Note_on_c, 1, 60, 0
5, 25056, Note_on_c, 1, 60, 70
5, 25101, Note_on_c, 1, 60, 0
5, 25104, Note_on_c, 1, 60, 70
5, 25149, Note_on_c, 1, 60, 0
5, 25152, Note_on_c, 1, 60, 70
5, 25197, Note_on_c, 1, 60, 0
5, 25200, Note_on_c, 1, 60, 70
5, 25245, Note_on_c, 1, 60, 0
5, 25248, Note_on_c, 1, 59, 70
5, 25293, Note_on_c, 1, 59, 0
5, 25296, Note_on_c, 1, 59, 70
5, 25341, Note_on_c, 1, 59, 0
5, 25344, Note_on_c, 1, 60, 70
5, 25389, Note_on_c, 1, 60, 0
5, 25392, Note_on_c, 1, 60, 70
5, 25437, Note_on_c, 1, 60, 0
5, 25440, Note_on_c, 1, 62, 70
5, 25485, Note_on_c, 1, 62, 0
5, 25488, Note_on_c, 1, 62, 70
5, 25533, Note_on_c, 1, 62, 0
5, 25536, Note_on_c, 1, 64, 70
5, 25581, Note_on_c, 1, 64, 0
5, 25584, Note_on_c, 1, 64, 70
5, 25629, Note_on_c, 1, 64, 0
5, 25632, Note_on_c, 1, 59, 70
5, 25677, Note_on_c, 1, 59, 0
5, 25680, Note_on_c, 1, 59, 70
5, 25725, Note_on_c, 1, 59, 0
5, 28800, Note_on_c, 1, 50, 80
5, 29154, Note_on_c, 1, 50, 0
5, 32784, Note_on_c, 1, 59, 75
5, 32829, Note_on_c, 1, 59, 0
5, 32832, Note_on_c, 1, 60, 75
5, 32921, Note_on_c, 1, 60, 0
5, 32928, Note_on_c, 1, 62, 75
5, 33017, Note_on_c, 1, 62, 0
5, 38016, Note_on_c, 1, 55, 70
5, 38061, Note_on_c, 1, 55, 0
5, 38064, Note_on_c, 1, 55, 70
5, 38109, Note_on_c, 1, 55, 0
5, 38112, Note_on_c, 1, 55, 70
5, 38157, Note_on_c, 1, 55, 0
5, 38160, Note_on_c, 1, 55, 70
5, 38205, Note_on_c, 1, 55, 0
5, 38208, Note_on_c, 1, 55, 70
5, 38253, Note_on_c, 1, 55, 0
5, 38256, Note_on_c, 1, 55, 70
5, 38301, Note_on_c, 1, 55, 0
5, 38304, Note_on_c, 1, 55, 70
5, 38349, Note_on_c, 1, 55, 0
5, 38352, Note_on_c, 1, 55, 70
5, 38397, Note_on_c, 1, 55, 0
5, 38400, Note_on_c, 1, 55, 70
5, 38445, Note_on_c, 1, 55, 0
5, 38448, Note_on_c, 1, 55, 70
5, 38493, Note_on_c, 1, 55, 0
5, 38496, Note_on_c, 1, 55, 70
5, 38541, Note_on_c, 1, 55, 0
5, 38544, Note_on_c, 1, 55, 70
5, 38589, Note_on_c, 1, 55, 0
5, 38592, Note_on_c, 1, 55, 70
5, 38637, Note_on_c, 1, 55, 0
5, 38640, Note_on_c, 1, 55, 70
5, 38685, Note_on_c, 1, 55, 0
5, 38688, Note_on_c, 1, 55, 70
5, 38733, Note_on_c, 1, 55, 0
5, 38736, Note_on_c, 1, 55, 70
5, 38781, Note_on_c, 1, 55, 0
5, 38784, Note_on_c, 1, 55, 70
5, 38829, Note_on_c, 1, 55, 0
5, 38832, Note_on_c, 1, 55, 70
5, 38877, Note_on_c, 1, 55, 0
5, 38880, Note_on_c, 1, 55, 70
5, 38925, Note_on_c, 1, 55, 0
5, 38928, Note_on_c, 1, 55, 70
5, 38973, Note_on_c, 1, 55, 0
5, 38976, Note_on_c, 1, 55, 70
5, 39021, Note_on_c, 1, 55, 0
5, 39024, Note_on_c, 1, 55, 70
5, 39069, Note_on_c, 1, 55, 0
5, 39072, Note_on_c, 1, 55, 70
5, 39117, Note_on_c, 1, 55, 0
5, 39120, Note_on_c, 1, 55, 70
5, 39165, Note_on_c, 1, 55, 0
5, 39168, Note_on_c, 1, 55, 70
5, 39213, Note_on_c, 1, 55, 0
5, 39216, Note_on_c, 1, 55, 70
5, 39261, Note_on_c, 1, 55, 0
5, 39264, Note_on_c, 1, 55, 70
5, 39309, Note_on_c, 1, 55, 0
5, 39312, Note_on_c, 1, 55, 70
5, 39357, Note_on_c, 1, 55, 0
5, 39360, Note_on_c, 1, 55, 70
5, 39405, Note_on_c, 1, 55, 0
5, 39408, Note_on_c, 1, 55, 70
5, 39453, Note_on_c, 1, 55, 0
5, 39456, Note_on_c, 1, 55, 70
5, 39501, Note_on_c, 1, 55, 0
5, 39504, Note_on_c, 1, 55, 70
5, 39549, Note_on_c, 1, 55, 0
5, 44544, Note_on_c, 1, 53, 70
5, 44589, Note_on_c, 1, 53, 0
5, 44592, Note_on_c, 1, 53, 70
5, 44637, Note_on_c, 1, 53, 0
5, 44640, Note_on_c, 1, 53, 70
5, 44685, Note_on_c, 1, 53, 0
5, 44688, Note_on_c, 1, 53, 70
5, 44733, Note_on_c, 1, 53, 0
5, 44736, Note_on_c, 1, 53, 70
5, 44781, Note_on_c, 1, 53, 0
5, 44784, Note_on_c, 1, 53, 70
5, 44829, Note_on_c, 1, 53, 0
5, 44832, Note_on_c, 1, 53, 70
5, 44877, Note_on_c, 1, 53, 0
5, 44880, Note_on_c, 1, 53, 70
5, 44925, Note_on_c, 1, 53, 0
5, 44928, Note_on_c, 1, 53, 70
5, 44973, Note_on_c, 1, 53, 0
5, 44976, Note_on_c, 1, 53, 70
5, 45021, Note_on_c, 1, 53, 0
5, 45024, Note_on_c, 1, 53, 70
5, 45069, Note_on_c, 1, 53, 0
5, 45072, Note_on_c, 1, 53, 70
5, 45117, Note_on_c, 1, 53, 0
5, 45120, Note_on_c, 1, 53, 70
5, 45165, Note_on_c, 1, 53, 0
5, 45168, Note_on_c, 1, 53, 70
5, 45213, Note_on_c, 1, 53, 0
5, 45216, Note_on_c, 1, 53, 70
5, 45261, Note_on_c, 1, 53, 0
5, 45264, Note_on_c, 1, 53, 70
5, 45309, Note_on_c, 1, 53, 0
5, 62784, Note_on_c, 1, 60, 70
5, 62829, Note_on_c, 1, 60, 0
5, 62832, Note_on_c, 1, 60, 70
5, 62877, Note_on_c, 1, 60, 0
5, 62880, Note_on_c, 1, 60, 70
5, 62925, Note_on_c, 1, 60, 0
5, 62928, Note_on_c, 1, 60, 70
5, 62973, Note_on_c, 1, 60, 0
5, 62976, Note_on_c, 1, 60, 70
5, 63021, Note_on_c, 1, 60, 0
5, 63024, Note_on_c, 1, 60, 70
5, 63069, Note_on_c, 1, 60, 0
5, 63072, Note_on_c, 1, 60, 70
5, 63117, Note_on_c, 1, 60, 0
5, 63120, Note_on_c, 1, 60, 70
5, 63165, Note_on_c, 1, 60, 0
5, 63168, Note_on_c, 1, 60, 70
5, 63213, Note_on_c, 1, 60, 0
5, 63216, Note_on_c, 1, 60, 70
5, 63261, Note_on_c, 1, 60, 0
5, 63264, Note_on_c, 1, 60, 70
5, 63309, Note_on_c, 1, 60, 0
5, 63312, Note_on_c, 1, 60, 70
5, 63357, Note_on_c, 1, 60, 0
5, 63360, Note_on_c, 1, 60, 70
5, 63405, Note_on_c, 1, 60, 0
5, 63408, Note_on_c, 1, 60, 70
5, 63453, Note_on_c, 1, 60, 0
5, 63456, Note_on_c, 1, 60, 70
5, 63501, Note_on_c, 1, 60, 0
5, 63504, Note_on_c, 1, 60, 70
5, 63549, Note_on_c, 1, 60, 0
5, 63552, Note_on_c, 1, 60, 70
5, 63597, Note_on_c, 1, 60, 0
5, 63600, Note_on_c, 1, 60, 70
5, 63645, Note_on_c, 1, 60, 0
5, 63648, Note_on_c, 1, 60, 70
5, 63693, Note_on_c, 1, 60, 0
5, 63696, Note_on_c, 1, 60, 70
5, 63741, Note_on_c, 1, 60, 0
5, 63744, Note_on_c, 1, 60, 70
5, 63789, Note_on_c, 1, 60, 0
5, 63792, Note_on_c, 1, 60, 70
5, 63837, Note_on_c, 1, 60, 0
5, 63840, Note_on_c, 1, 60, 70
5, 63885, Note_on_c, 1, 60, 0
5, 63888, Note_on_c, 1, 60, 70
5, 63933, Note_on_c, 1, 60, 0
5, 63936, Note_on_c, 1, 60, 70
5, 63981, Note_on_c, 1, 60, 0
5, 63984, Note_on_c, 1, 60, 70
5, 64029, Note_on_c, 1, 60, 0
5, 64032, Note_on_c, 1, 59, 70
5, 64077, Note_on_c, 1, 59, 0
5, 64080, Note_on_c, 1, 59, 70
5, 64125, Note_on_c, 1, 59, 0
5, 64128, Note_on_c, 1, 60, 70
5, 64173, Note_on_c, 1, 60, 0
5, 64176, Note_on_c, 1, 60, 70
5, 64221, Note_on_c, 1, 60, 0
5, 64224, Note_on_c, 1, 62, 70
5, 64269, Note_on_c, 1, 62, 0
5, 64272, Note_on_c, 1, 62, 70
5, 64317, Note_on_c, 1, 62, 0
5, 64320, Note_on_c, 1, 63, 70
5, 64365, Note_on_c, 1, 63, 0
5, 64368, Note_on_c, 1, 63, 70
5, 64413, Note_on_c, 1, 63, 0
5, 64416, Note_on_c, 1, 59, 70
5, 64461, Note_on_c, 1, 59, 0
5, 64464, Note_on_c, 1, 59, 71
5, 64509, Note_on_c, 1, 59, 0
5, 65664, Note_on_c, 1, 43, 75
5, 65687, Note_on_c, 1, 43, 0
5, 65688, Note_on_c, 1, 31, 75
5, 65711, Note_on_c, 1, 31, 0
5, 65712, Note_on_c, 1, 35, 75
5, 65735, Note_on_c, 1, 35, 0
5, 65736, Note_on_c, 1, 38, 75
5, 65759, Note_on_c, 1, 38, 0
5, 65760, Note_on_c, 1, 43, 75
5, 65783, Note_on_c, 1, 43, 0
5, 65784, Note_on_c, 1, 31, 75
5, 65807, Note_on_c, 1, 31, 0
5, 65808, Note_on_c, 1, 35, 75
5, 65831, Note_on_c, 1, 35, 0
5, 65832, Note_on_c, 1, 38, 75
5, 65855, Note_on_c, 1, 38, 0
5, 65856, Note_on_c, 1, 43, 75
5, 65945, Note_on_c, 1, 43, 0
5, 66048, Control_c, 1, 64, 127
5, 66816, Note_on_c, 1, 65, 58
5, 66993, Note_on_c, 1, 65, 0
5, 67008, Note_on_c, 1, 64, 58
5, 67185, Note_on_c, 1, 64, 0
5, 67200, Note_on_c, 1, 62, 58
5, 67377, Note_on_c, 1, 62, 0
5, 67392, Note_on_c, 1, 60, 58
5, 67481, Note_on_c, 1, 60, 0
5, 67488, Note_on_c, 1, 64, 58
5, 67577, Note_on_c, 1, 64, 0
5, 67584, Control_c, 1, 64, 0
5, 74880, Note_on_c, 1, 60, 70
5, 74925, Note_on_c, 1, 60, 0
5, 74928, Note_on_c, 1, 60, 70
5, 74973, Note_on_c, 1, 60, 0
5, 74976, Note_on_c, 1, 60, 70
5, 75021, Note_on_c, 1, 60, 0
5, 75024, Note_on_c, 1, 60, 70
5, 75069, Note_on_c, 1, 60, 0
5, 75072, Note_on_c, 1, 60, 70
5, 75117, Note_on_c, 1, 60, 0
5, 75120, Note_on_c, 1, 60, 70
5, 75165, Note_on_c, 1, 60, 0
5, 75168, Note_on_c, 1, 60, 70
5, 75213, Note_on_c, 1, 60, 0
5, 75216, Note_on_c, 1, 60, 70
5, 75261, Note_on_c, 1, 60, 0
5, 75264, Control_c, 1, 64, 127
5, 75264, Note_on_c, 1, 62, 70
5, 75264, Note_on_c, 1, 59, 70
5, 75309, Note_on_c, 1, 62, 0
5, 75309, Note_on_c, 1, 59, 0
5, 75312, Note_on_c, 1, 62, 70
5, 75312, Note_on_c, 1, 59, 70
5, 75357, Note_on_c, 1, 62, 0
5, 75357, Note_on_c, 1, 59, 0
5, 75360, Note_on_c, 1, 62, 70
5, 75360, Note_on_c, 1, 59, 70
5, 75405, Note_on_c, 1, 62, 0
5, 75405, Note_on_c, 1, 59, 0
5, 75408, Note_on_c, 1, 62, 70
5, 75408, Note_on_c, 1, 59, 70
5, 75453, Note_on_c, 1, 62, 0
5, 75453, Note_on_c, 1, 59, 0
5, 75456, Note_on_c, 1, 62, 70
5, 75456, Note_on_c, 1, 59, 70
5, 75501, Note_on_c, 1, 62, 0
5, 75501, Note_on_c, 1, 59, 0
5, 75504, Note_on_c, 1, 62, 70
5, 75504, Note_on_c, 1, 59, 70
5, 75549, Note_on_c, 1, 62, 0
5, 75549, Note_on_c, 1, 59, 0
5, 75552, Note_on_c, 1, 62, 70
5, 75552, Note_on_c, 1, 59, 70
5, 75597, Note_on_c, 1, 62, 0
5, 75597, Note_on_c, 1, 59, 0
5, 75600, Note_on_c, 1, 62, 70
5, 75600, Note_on_c, 1, 59, 70
5, 75645, Note_on_c, 1, 62, 0
5, 75645, Note_on_c, 1, 59, 0
5, 75648, Control_c, 1, 64, 0
5, 75648, Note_on_c, 1, 60, 70
5, 75693, Note_on_c, 1, 60, 0
5, 75696, Note_on_c, 1, 60, 70
5, 75741, Note_on_c, 1, 60, 0
5, 75744, Note_on_c, 1, 60, 70
5, 75789, Note_on_c, 1, 60, 0
5, 75792, Note_on_c, 1, 60, 70
5, 75837, Note_on_c, 1, 60, 0
5, 75840, Note_on_c, 1, 60, 70
5, 75885, Note_on_c, 1, 60, 0
5, 75888, Note_on_c, 1, 60, 70
5, 75933, Note_on_c, 1, 60, 0
5, 75936, Note_on_c, 1, 60, 70
5, 75981, Note_on_c, 1, 60, 0
5, 75984, Note_on_c, 1, 60, 70
5, 76029, Note_on_c, 1, 60, 0
5, 76032, Control_c, 1, 64, 127
5, 76032, Note_on_c, 1, 62, 70
5, 76032, Note_on_c, 1, 59, 70
5, 76077, Note_on_c, 1, 62, 0
5, 76077, Note_on_c, 1, 59, 0
5, 76080, Note_on_c, 1, 62, 70
5, 76080, Note_on_c, 1, 59, 70
5, 76125, Note_on_c, 1, 62, 0
5, 76125, Note_on_c, 1, 59, 0
5, 76128, Note_on_c, 1, 62, 70
5, 76128, Note_on_c, 1, 59, 70
5, 76173, Note_on_c, 1, 62, 0
5, 76173, Note_on_c, 1, 59, 0
5, 76176, Note_on_c, 1, 62, 70
5, 76176, Note_on_c, 1, 59, 70
5, 76221, Note_on_c, 1, 62, 0
5, 76221, Note_on_c, 1, 59, 0
5, 76224, Note_on_c, 1, 62, 70
5, 76224, Note_on_c, 1, 59, 70
5, 76269, Note_on_c, 1, 62, 0
5, 76269, Note_on_c, 1, 59, 0
5, 76272, Note_on_c, 1, 62, 70
5, 76272, Note_on_c, 1, 59, 70
5, 76317, Note_on_c, 1, 62, 0
5, 76317, Note_on_c, 1, 59, 0
5, 76320, Note_on_c, 1, 62, 70
5, 76320, Note_on_c, 1, 59, 70
5, 76365, Note_on_c, 1, 62, 0
5, 76365, Note_on_c, 1, 59, 0
5, 76368, Note_on_c, 1, 62, 70
5, 76368, Note_on_c, 1, 59, 70
5, 76413, Note_on_c, 1, 62, 0
5, 76413, Note_on_c, 1, 59, 0
5, 76416, Control_c, 1, 64, 0
5, 81792, Note_on_c, 1, 53, 70
5, 81837, Note_on_c, 1, 53, 0
5, 81840, Note_on_c, 1, 53, 70
5, 81885, Note_on_c, 1, 53, 0
5, 81888, Note_on_c, 1, 53, 70
5, 81933, Note_on_c, 1, 53, 0
5, 81936, Note_on_c, 1, 53, 70
5, 81981, Note_on_c, 1, 53, 0
5, 81984, Note_on_c, 1, 53, 70
5, 82029, Note_on_c, 1, 53, 0
5, 82032, Note_on_c, 1, 53, 70
5, 82077, Note_on_c, 1, 53, 0
5, 82080, Note_on_c, 1, 53, 70
5, 82125, Note_on_c, 1, 53, 0
5, 82128, Note_on_c, 1, 53, 70
5, 82173, Note_on_c, 1, 53, 0
5, 82176, Note_on_c, 1, 53, 70
5, 82221, Note_on_c, 1, 53, 0
5, 82224, Note_on_c, 1, 53, 70
5, 82269, Note_on_c, 1, 53, 0
5, 82272, Note_on_c, 1, 53, 70
5, 82317, Note_on_c, 1, 53, 0
5, 82320, Note_on_c, 1, 53, 70
5, 82365, Note_on_c, 1, 53, 0
5, 82368, Note_on_c, 1, 53, 70
5, 82413, Note_on_c, 1, 53, 0
5, 82416, Note_on_c, 1, 53, 70
5, 82461, Note_on_c, 1, 53, 0
5, 82464, Note_on_c, 1, 53, 70
5, 82509, Note_on_c, 1, 53, 0
5, 82512, Note_on_c, 1, 53, 70
5, 82557, Note_on_c, 1, 53, 0
5, 100032, Note_on_c, 1, 60, 70
5, 100077, Note_on_c, 1, 60, 0
5, 100080, Note_on_c, 1, 60, 70
5, 100125, Note_on_c, 1, 60, 0
5, 100128, Note_on_c, 1, 60, 70
5, 100173, Note_on_c, 1, 60, 0
5, 100176, Note_on_c, 1, 60, 70
5, 100221, Note_on_c, 1, 60, 0
5, 100224, Note_on_c, 1, 60, 70
5, 100269, Note_on_c, 1, 60, 0
5, 100272, Note_on_c, 1, 60, 70
5, 100317, Note_on_c, 1, 60, 0
5, 100320, Note_on_c, 1, 60, 70
5, 100365, Note_on_c, 1, 60, 0
5, 100368, Note_on_c, 1, 60, 70
5, 100413, Note_on_c, 1, 60, 0
5, 100416, Note_on_c, 1, 60, 70
5, 100461, Note_on_c, 1, 60, 0
5, 100464, Note_on_c, 1, 60, 70
5, 100509, Note_on_c, 1, 60, 0
5, 100512, Note_on_c, 1, 60, 70
5, 100557, Note_on_c, 1, 60, 0
5, 100560, Note_on_c, 1, 60, 70
5, 100605, Note_on_c, 1, 60, 0
5, 100608, Note_on_c, 1, 60, 70
5, 100653, Note_on_c, 1, 60, 0
5, 100656, Note_on_c, 1, 60, 70
5, 100701, Note_on_c, 1, 60, 0
5, 100704, Note_on_c, 1, 60, 70
5, 100749, Note_on_c, 1, 60, 0
5, 100752, Note_on_c, 1, 60, 70
5, 100797, Note_on_c, 1, 60, 0
5, 100800, Note_on_c, 1, 60, 70
5, 100845, Note_on_c, 1, 60, 0
5, 100848, Note_on_c, 1, 60, 70
5, 100893, Note_on_c, 1, 60, 0
5, 100896, Note_on_c, 1, 60, 70
5, 100941, Note_on_c, 1, 60, 0
5, 100944, Note_on_c, 1, 60, 70
5, 100989, Note_on_c, 1, 60, 0
5, 100992, Note_on_c, 1, 60, 70
5, 101037, Note_on_c, 1, 60, 0
5, 101040, Note_on_c, 1, 60, 70
5, 101085, Note_on_c, 1, 60, 0
5, 101088, Note_on_c, 1, 60, 70
5, 101133, Note_on_c, 1, 60, 0
5, 101136, Note_on_c, 1, 60, 70
5, 101181, Note_on_c, 1, 60, 0
5, 101184, Note_on_c, 1, 60, 70
5, 101229, Note_on_c, 1, 60, 0
5, 101232, Note_on_c, 1, 60, 70
5, 101277, Note_on_c, 1, 60, 0
5, 101280, Note_on_c, 1, 59, 70
5, 101325, Note_on_c, 1, 59, 0
5, 101328, Note_on_c, 1, 59, 70
5, 101373, Note_on_c, 1, 59, 0
5, 101376, Note_on_c, 1, 60, 70
5, 101421, Note_on_c, 1, 60, 0
5, 101424, Note_on_c, 1, 60, 70
5, 101469, Note_on_c, 1, 60, 0
5, 101472, Note_on_c, 1, 62, 70
5, 101517, Note_on_c, 1, 62, 0
5, 101520, Note_on_c, 1, 62, 70
5, 101565, Note_on_c, 1, 62, 0
5, 101568, Note_on_c, 1, 63, 70
5, 101613, Note_on_c, 1, 63, 0
5, 101616, Note_on_c, 1, 63, 70
5, 101661, Note_on_c, 1, 63, 0
5, 101664, Note_on_c, 1, 59, 70
5, 101709, Note_on_c, 1, 59, 0
5, 101712, Note_on_c, 1, 59, 71
5, 101757, Note_on_c, 1, 59, 0
5, 102912, Note_on_c, 1, 43, 75
5, 102935, Note_on_c, 1, 43, 0
5, 102936, Note_on_c, 1, 31, 75
5, 102959, Note_on_c, 1, 31, 0
5, 102960, Note_on_c, 1, 35, 75
5, 102983, Note_on_c, 1, 35, 0
5, 102984, Note_on_c, 1, 38, 75
5, 103007, Note_on_c, 1, 38, 0
5, 103008, Note_on_c, 1, 43, 75
5, 103031, Note_on_c, 1, 43, 0
5, 103032, Note_on_c, 1, 31, 75
5, 103055, Note_on_c, 1, 31, 0
5, 103056, Note_on_c, 1, 35, 75
5, 103079, Note_on_c, 1, 35, 0
5, 103080, Note_on_c, 1, 38, 75
5, 103103, Note_on_c, 1, 38, 0
5, 103104, Note_on_c, 1, 43, 75
5, 103193, Note_on_c, 1, 43, 0
5, 103296, Control_c, 1, 64, 127
5, 104064, Note_on_c, 1, 65, 58
5, 104241, Note_on_c, 1, 65, 0
5, 104256, Note_on_c, 1, 64, 58
5, 104433, Note_on_c, 1, 64, 0
5, 104448, Note_on_c, 1, 62, 58
5, 104625, Note_on_c, 1, 62, 0
5, 104640, Note_on_c, 1, 60, 58
5, 104729, Note_on_c, 1, 60, 0
5, 104736, Note_on_c, 1, 64, 58
5, 104825, Note_on_c, 1, 64, 0
5, 104832, Control_c, 1, 64, 0
5, 112128, Note_on_c, 1, 60, 70
5, 112173, Note_on_c, 1, 60, 0
5, 112176, Note_on_c, 1, 60, 70
5, 112221, Note_on_c, 1, 60, 0
5, 112224, Note_on_c, 1, 60, 70
5, 112269, Note_on_c, 1, 60, 0
5, 112272, Note_on_c, 1, 60, 70
5, 112317, Note_on_c, 1, 60, 0
5, 112320, Note_on_c, 1, 60, 70
5, 112365, Note_on_c, 1, 60, 0
5, 112368, Note_on_c, 1, 60, 70
5, 112413, Note_on_c, 1, 60, 0
5, 112416, Note_on_c, 1, 60, 70
5, 112461, Note_on_c, 1, 60, 0
5, 112464, Note_on_c, 1, 60, 70
5, 112509, Note_on_c, 1, 60, 0
5, 112512, Control_c, 1, 64, 127
5, 112512, Note_on_c, 1, 62, 70
5, 112512, Note_on_c, 1, 59, 70
5, 112557, Note_on_c, 1, 62, 0
5, 112557, Note_on_c, 1, 59, 0
5, 112560, Note_on_c, 1, 62, 70
5, 112560, Note_on_c, 1, 59, 70
5, 112605, Note_on_c, 1, 62, 0
5, 112605, Note_on_c, 1, 59, 0
5, 112608, Note_on_c, 1, 62, 70
5, 112608, Note_on_c, 1, 59, 70
5, 112653, Note_on_c, 1, 62, 0
5, 112653, Note_on_c, 1, 59, 0
5, 112656, Note_on_c, 1, 62, 70
5, 112656, Note_on_c, 1, 59, 70
5, 112701, Note_on_c, 1, 62, 0
5, 112701, Note_on_c, 1, 59, 0
5, 112704, Note_on_c, 1, 62, 70
5, 112704, Note_on_c, 1, 59, 70
5, 112749, Note_on_c, 1, 62, 0
5, 112749, Note_on_c, 1, 59, 0
5, 112752, Note_on_c, 1, 62, 70
5, 112752, Note_on_c, 1, 59, 70
5, 112797, Note_on_c, 1, 62, 0
5, 112797, Note_on_c, 1, 59, 0
5, 112800, Note_on_c, 1, 62, 70
5, 112800, Note_on_c, 1, 59, 70
5, 112845, Note_on_c, 1, 62, 0
5, 112845, Note_on_c, 1, 59, 0
5, 112848, Note_on_c, 1, 62, 70
5, 112848, Note_on_c, 1, 59, 70
5, 112893, Note_on_c, 1, 62, 0
5, 112893, Note_on_c, 1, 59, 0
5, 112896, Control_c, 1, 64, 0
5, 112896, Note_on_c, 1, 60, 70
5, 112941, Note_on_c, 1, 60, 0
5, 112944, Note_on_c, 1, 60, 70
5, 112989, Note_on_c, 1, 60, 0
5, 112992, Note_on_c, 1, 60, 70
5, 113037, Note_on_c, 1, 60, 0
5, 113040, Note_on_c, 1, 60, 70
5, 113085, Note_on_c, 1, 60, 0
5, 113088, Note_on_c, 1, 60, 70
5, 113133, Note_on_c, 1, 60, 0
5, 113136, Note_on_c, 1, 60, 70
5, 113181, Note_on_c, 1, 60, 0
5, 113184, Note_on_c, 1, 60, 70
5, 113229, Note_on_c, 1, 60, 0
5, 113232, Note_on_c, 1, 60, 70
5, 113277, Note_on_c, 1, 60, 0
5, 113280, Control_c, 1, 64, 127
5, 113280, Note_on_c, 1, 62, 70
5, 113280, Note_on_c, 1, 59, 70
5, 113325, Note_on_c, 1, 62, 0
5, 113325, Note_on_c, 1, 59, 0
5, 113328, Note_on_c, 1, 62, 70
5, 113328, Note_on_c, 1, 59, 70
5, 113373, Note_on_c, 1, 62, 0
5, 113373, Note_on_c, 1, 59, 0
5, 113376, Note_on_c, 1, 62, 70
5, 113376, Note_on_c, 1, 59, 70
5, 113421, Note_on_c, 1, 62, 0
5, 113421, Note_on_c, 1, 59, 0
5, 113424, Note_on_c, 1, 62, 70
5, 113424, Note_on_c, 1, 59, 70
5, 113469, Note_on_c, 1, 62, 0
5, 113469, Note_on_c, 1, 59, 0
5, 113472, Note_on_c, 1, 62, 70
5, 113472, Note_on_c, 1, 59, 70
5, 113517, Note_on_c, 1, 62, 0
5, 113517, Note_on_c, 1, 59, 0
5, 113520, Note_on_c, 1, 62, 70
5, 113520, Note_on_c, 1, 59, 70
5, 113565, Note_on_c, 1, 62, 0
5, 113565, Note_on_c, 1, 59, 0
5, 113568, Note_on_c, 1, 62, 70
5, 113568, Note_on_c, 1, 59, 70
5, 113613, Note_on_c, 1, 62, 0
5, 113613, Note_on_c, 1, 59, 0
5, 113616, Note_on_c, 1, 62, 70
5, 113616, Note_on_c, 1, 59, 70
5, 113661, Note_on_c, 1, 62, 0
5, 113661, Note_on_c, 1, 59, 0
5, 113664, Control_c, 1, 64, 0
5, 115200, End_track
6, 0, Start_track
6, 0, Title_t, "Sonata I   Haydn  "
6, 0, End_track
0, 0, End_of_file
