0, 0, Header, 1, 6, 96
1, 0, Start_track
1, 0, Copyright_t, "Copyright  1994-2002 Mozart Music Software"
1, 0, Text_t, "Piano Solo\015\012"
1, 0, Text_t, "<composer>\015\012"
1, 0, Sequencer_specific, 16, 68, 87, 77, 90, 86, 82, 83, 78, 32, 55, 46, 48, 46, 55, 46, 48
1, 0, Time_signature, 2, 2, 24, 8
1, 0, Tempo, 413793
1, 0, Key_signature, -4, "major"
1, 55104, End_track
2, 0, Start_track
2, 0, Program_c, 0, 0
2, 0, Control_c, 0, 7, 127
2, 0, Control_c, 0, 10, 64
2, 144, Note_on_c, 0, 75, 75
2, 189, Note_on_c, 0, 75, 0
2, 192, Note_on_c, 0, 75, 75
2, 215, Note_on_c, 0, 75, 0
2, 216, Note_on_c, 0, 73, 75
2, 239, Note_on_c, 0, 73, 0
2, 240, Note_on_c, 0, 77, 75
2, 263, Note_on_c, 0, 77, 0
2, 264, Note_on_c, 0, 75, 75
2, 287, Note_on_c, 0, 75, 0
2, 288, Note_on_c, 0, 73, 75
2, 311, Note_on_c, 0, 73, 0
2, 312, Note_on_c, 0, 72, 75
2, 335, Note_on_c, 0, 72, 0
2, 336, Note_on_c, 0, 70, 75
2, 359, Note_on_c, 0, 70, 0
2, 360, Note_on_c, 0, 68, 75
2, 383, Note_on_c, 0, 68, 0
2, 384, Note_on_c, 0, 68, 75
2, 432, Note_on_c, 0, 68, 0
2, 432, Note_on_c, 0, 67, 75
2, 477, Note_on_c, 0, 67, 0
2, 480, Note_on_c, 0, 68, 75
2, 525, Note_on_c, 0, 68, 0
2, 528, Note_on_c, 0, 65, 66
2, 573, Note_on_c, 0, 65, 0
2, 576, Note_on_c, 0, 65, 66
2, 599, Note_on_c, 0, 65, 0
2, 600, Note_on_c, 0, 63, 66
2, 623, Note_on_c, 0, 63, 0
2, 624, Note_on_c, 0, 68, 66
2, 647, Note_on_c, 0, 68, 0
2, 648, Note_on_c, 0, 63, 66
2, 671, Note_on_c, 0, 63, 0
2, 672, Note_on_c, 0, 63, 66
2, 695, Note_on_c, 0, 63, 0
2, 696, Note_on_c, 0, 61, 66
2, 719, Note_on_c, 0, 61, 0
2, 720, Note_on_c, 0, 70, 66
2, 743, Note_on_c, 0, 70, 0
2, 744, Note_on_c, 0, 61, 66
2, 767, Note_on_c, 0, 61, 0
2, 768, Note_on_c, 0, 61, 66
2, 864, Note_on_c, 0, 61, 0
2, 864, Note_on_c, 0, 60, 66
2, 909, Note_on_c, 0, 60, 0
2, 912, Note_on_c, 0, 75, 75
2, 957, Note_on_c, 0, 75, 0
2, 960, Note_on_c, 0, 72, 75
2, 983, Note_on_c, 0, 72, 0
2, 984, Note_on_c, 0, 73, 75
2, 1007, Note_on_c, 0, 73, 0
2, 1008, Note_on_c, 0, 77, 75
2, 1031, Note_on_c, 0, 77, 0
2, 1032, Note_on_c, 0, 75, 75
2, 1055, Note_on_c, 0, 75, 0
2, 1056, Note_on_c, 0, 73, 75
2, 1079, Note_on_c, 0, 73, 0
2, 1080, Note_on_c, 0, 72, 75
2, 1103, Note_on_c, 0, 72, 0
2, 1104, Note_on_c, 0, 70, 75
2, 1127, Note_on_c, 0, 70, 0
2, 1128, Note_on_c, 0, 68, 75
2, 1151, Note_on_c, 0, 68, 0
2, 1152, Note_on_c, 0, 68, 75
2, 1200, Note_on_c, 0, 68, 0
2, 1200, Note_on_c, 0, 67, 75
2, 1245, Note_on_c, 0, 67, 0
2, 1248, Note_on_c, 0, 68, 75
2, 1293, Note_on_c, 0, 68, 0
2, 1296, Note_on_c, 0, 77, 66
2, 1341, Note_on_c, 0, 77, 0
2, 1344, Note_on_c, 0, 75, 66
2, 1367, Note_on_c, 0, 75, 0
2, 1368, Note_on_c, 0, 84, 66
2, 1391, Note_on_c, 0, 84, 0
2, 1392, Note_on_c, 0, 82, 66
2, 1415, Note_on_c, 0, 82, 0
2, 1416, Note_on_c, 0, 80, 66
2, 1439, Note_on_c, 0, 80, 0
2, 1440, Note_on_c, 0, 79, 66
2, 1463, Note_on_c, 0, 79, 0
2, 1464, Note_on_c, 0, 77, 66
2, 1487, Note_on_c, 0, 77, 0
2, 1488, Note_on_c, 0, 75, 66
2, 1511, Note_on_c, 0, 75, 0
2, 1512, Note_on_c, 0, 77, 66
2, 1535, Note_on_c, 0, 77, 0
2, 1536, Note_on_c, 0, 75, 66
2, 1584, Note_on_c, 0, 75, 0
2, 1584, Note_on_c, 0, 73, 66
2, 1629, Note_on_c, 0, 73, 0
2, 1632, Note_on_c, 0, 72, 66
2, 1677, Note_on_c, 0, 72, 0
2, 1728, Note_on_c, 0, 68, 80
2, 1905, Note_on_c, 0, 68, 0
2, 1920, Note_on_c, 0, 63, 80
2, 1938, Note_on_c, 0, 63, 0
2, 1938, Note_on_c, 0, 73, 80
2, 2097, Note_on_c, 0, 73, 0
2, 2136, Note_on_c, 0, 68, 80
2, 2159, Note_on_c, 0, 68, 0
2, 2160, Note_on_c, 0, 70, 80
2, 2183, Note_on_c, 0, 70, 0
2, 2184, Note_on_c, 0, 72, 80
2, 2207, Note_on_c, 0, 72, 0
2, 2208, Note_on_c, 0, 70, 80
2, 2231, Note_on_c, 0, 70, 0
2, 2232, Note_on_c, 0, 68, 80
2, 2255, Note_on_c, 0, 68, 0
2, 2256, Note_on_c, 0, 67, 80
2, 2279, Note_on_c, 0, 67, 0
2, 2280, Note_on_c, 0, 68, 80
2, 2303, Note_on_c, 0, 68, 0
2, 2328, Note_on_c, 0, 67, 80
2, 2351, Note_on_c, 0, 67, 0
2, 2352, Note_on_c, 0, 68, 80
2, 2375, Note_on_c, 0, 68, 0
2, 2376, Note_on_c, 0, 70, 80
2, 2399, Note_on_c, 0, 70, 0
2, 2400, Note_on_c, 0, 68, 80
2, 2423, Note_on_c, 0, 68, 0
2, 2424, Note_on_c, 0, 67, 80
2, 2447, Note_on_c, 0, 67, 0
2, 2448, Note_on_c, 0, 65, 80
2, 2471, Note_on_c, 0, 65, 0
2, 2472, Note_on_c, 0, 63, 80
2, 2495, Note_on_c, 0, 63, 0
2, 2520, Note_on_c, 0, 68, 80
2, 2543, Note_on_c, 0, 68, 0
2, 2544, Note_on_c, 0, 70, 80
2, 2567, Note_on_c, 0, 70, 0
2, 2568, Note_on_c, 0, 72, 80
2, 2591, Note_on_c, 0, 72, 0
2, 2592, Note_on_c, 0, 70, 80
2, 2615, Note_on_c, 0, 70, 0
2, 2616, Note_on_c, 0, 68, 80
2, 2639, Note_on_c, 0, 68, 0
2, 2640, Note_on_c, 0, 67, 80
2, 2663, Note_on_c, 0, 67, 0
2, 2664, Note_on_c, 0, 68, 80
2, 2687, Note_on_c, 0, 68, 0
2, 2712, Note_on_c, 0, 79, 80
2, 2735, Note_on_c, 0, 79, 0
2, 2736, Note_on_c, 0, 77, 80
2, 2759, Note_on_c, 0, 77, 0
2, 2760, Note_on_c, 0, 75, 80
2, 2783, Note_on_c, 0, 75, 0
2, 2784, Note_on_c, 0, 74, 80
2, 2807, Note_on_c, 0, 74, 0
2, 2808, Note_on_c, 0, 72, 80
2, 2831, Note_on_c, 0, 72, 0
2, 2832, Note_on_c, 0, 70, 80
2, 2855, Note_on_c, 0, 70, 0
2, 2856, Note_on_c, 0, 68, 80
2, 2879, Note_on_c, 0, 68, 0
2, 2904, Note_on_c, 0, 67, 80
2, 2927, Note_on_c, 0, 67, 0
2, 2928, Note_on_c, 0, 68, 80
2, 2951, Note_on_c, 0, 68, 0
2, 2952, Note_on_c, 0, 70, 80
2, 2975, Note_on_c, 0, 70, 0
2, 2976, Note_on_c, 0, 68, 80
2, 2999, Note_on_c, 0, 68, 0
2, 3000, Note_on_c, 0, 67, 80
2, 3023, Note_on_c, 0, 67, 0
2, 3024, Note_on_c, 0, 65, 80
2, 3047, Note_on_c, 0, 65, 0
2, 3048, Note_on_c, 0, 63, 80
2, 3071, Note_on_c, 0, 63, 0
2, 3072, Note_on_c, 0, 72, 80
2, 3095, Note_on_c, 0, 72, 0
2, 3096, Note_on_c, 0, 70, 80
2, 3119, Note_on_c, 0, 70, 0
2, 3120, Note_on_c, 0, 68, 80
2, 3143, Note_on_c, 0, 68, 0
2, 3144, Note_on_c, 0, 67, 80
2, 3167, Note_on_c, 0, 67, 0
2, 3168, Note_on_c, 0, 65, 80
2, 3191, Note_on_c, 0, 65, 0
2, 3192, Note_on_c, 0, 63, 80
2, 3215, Note_on_c, 0, 63, 0
2, 3216, Note_on_c, 0, 62, 80
2, 3239, Note_on_c, 0, 62, 0
2, 3240, Note_on_c, 0, 60, 80
2, 3263, Note_on_c, 0, 60, 0
2, 3264, Note_on_c, 0, 58, 80
2, 3353, Note_on_c, 0, 58, 0
2, 3360, Note_on_c, 0, 70, 75
2, 3383, Note_on_c, 0, 70, 0
2, 3384, Note_on_c, 0, 72, 75
2, 3407, Note_on_c, 0, 72, 0
2, 3408, Note_on_c, 0, 70, 75
2, 3431, Note_on_c, 0, 70, 0
2, 3432, Note_on_c, 0, 67, 75
2, 3455, Note_on_c, 0, 67, 0
2, 3456, Note_on_c, 0, 68, 75
2, 3479, Note_on_c, 0, 68, 0
2, 3480, Note_on_c, 0, 70, 75
2, 3503, Note_on_c, 0, 70, 0
2, 3504, Note_on_c, 0, 68, 75
2, 3527, Note_on_c, 0, 68, 0
2, 3528, Note_on_c, 0, 65, 75
2, 3551, Note_on_c, 0, 65, 0
2, 3552, Note_on_c, 0, 67, 75
2, 3575, Note_on_c, 0, 67, 0
2, 3576, Note_on_c, 0, 68, 75
2, 3599, Note_on_c, 0, 68, 0
2, 3600, Note_on_c, 0, 67, 75
2, 3623, Note_on_c, 0, 67, 0
2, 3624, Note_on_c, 0, 63, 75
2, 3647, Note_on_c, 0, 63, 0
2, 3648, Note_on_c, 0, 65, 75
2, 3737, Note_on_c, 0, 65, 0
2, 3744, Note_on_c, 0, 82, 66
2, 3767, Note_on_c, 0, 82, 0
2, 3768, Note_on_c, 0, 84, 66
2, 3791, Note_on_c, 0, 84, 0
2, 3792, Note_on_c, 0, 82, 66
2, 3815, Note_on_c, 0, 82, 0
2, 3816, Note_on_c, 0, 84, 66
2, 3839, Note_on_c, 0, 84, 0
2, 3840, Note_on_c, 0, 80, 66
2, 3863, Note_on_c, 0, 80, 0
2, 3864, Note_on_c, 0, 82, 66
2, 3887, Note_on_c, 0, 82, 0
2, 3888, Note_on_c, 0, 80, 66
2, 3911, Note_on_c, 0, 80, 0
2, 3912, Note_on_c, 0, 82, 66
2, 3935, Note_on_c, 0, 82, 0
2, 3936, Note_on_c, 0, 79, 66
2, 3959, Note_on_c, 0, 79, 0
2, 3960, Note_on_c, 0, 80, 66
2, 3983, Note_on_c, 0, 80, 0
2, 3984, Note_on_c, 0, 79, 66
2, 4007, Note_on_c, 0, 79, 0
2, 4008, Note_on_c, 0, 80, 66
2, 4031, Note_on_c, 0, 80, 0
2, 4032, Note_on_c, 0, 77, 66
2, 4121, Note_on_c, 0, 77, 0
2, 4176, Note_on_c, 0, 70, 80
2, 4221, Note_on_c, 0, 70, 0
2, 4224, Note_on_c, 0, 75, 80
2, 4247, Note_on_c, 0, 75, 0
2, 4248, Note_on_c, 0, 74, 80
2, 4271, Note_on_c, 0, 74, 0
2, 4272, Note_on_c, 0, 75, 80
2, 4295, Note_on_c, 0, 75, 0
2, 4296, Note_on_c, 0, 77, 80
2, 4319, Note_on_c, 0, 77, 0
2, 4320, Note_on_c, 0, 79, 80
2, 4343, Note_on_c, 0, 79, 0
2, 4344, Note_on_c, 0, 75, 78
2, 4367, Note_on_c, 0, 75, 0
2, 4368, Note_on_c, 0, 80, 76
2, 4391, Note_on_c, 0, 80, 0
2, 4392, Note_on_c, 0, 77, 74
2, 4415, Note_on_c, 0, 77, 0
2, 4416, Note_on_c, 0, 79, 73
2, 4439, Note_on_c, 0, 79, 0
2, 4440, Note_on_c, 0, 75, 71
2, 4463, Note_on_c, 0, 75, 0
2, 4464, Note_on_c, 0, 80, 69
2, 4487, Note_on_c, 0, 80, 0
2, 4488, Note_on_c, 0, 77, 67
2, 4511, Note_on_c, 0, 77, 0
2, 4512, Note_on_c, 0, 79, 66
2, 4557, Note_on_c, 0, 79, 0
2, 4560, Note_on_c, 0, 70, 66
2, 4605, Note_on_c, 0, 70, 0
2, 4608, Note_on_c, 0, 75, 66
2, 4631, Note_on_c, 0, 75, 0
2, 4632, Note_on_c, 0, 74, 66
2, 4655, Note_on_c, 0, 74, 0
2, 4656, Note_on_c, 0, 75, 66
2, 4679, Note_on_c, 0, 75, 0
2, 4680, Note_on_c, 0, 77, 66
2, 4703, Note_on_c, 0, 77, 0
2, 4704, Note_on_c, 0, 79, 66
2, 4727, Note_on_c, 0, 79, 0
2, 4728, Note_on_c, 0, 75, 67
2, 4751, Note_on_c, 0, 75, 0
2, 4752, Note_on_c, 0, 80, 68
2, 4775, Note_on_c, 0, 80, 0
2, 4776, Note_on_c, 0, 77, 69
2, 4799, Note_on_c, 0, 77, 0
2, 4800, Note_on_c, 0, 79, 71
2, 4823, Note_on_c, 0, 79, 0
2, 4824, Note_on_c, 0, 75, 72
2, 4847, Note_on_c, 0, 75, 0
2, 4848, Note_on_c, 0, 80, 73
2, 4871, Note_on_c, 0, 80, 0
2, 4872, Note_on_c, 0, 77, 74
2, 4895, Note_on_c, 0, 77, 0
2, 4896, Note_on_c, 0, 79, 76
2, 4941, Note_on_c, 0, 79, 0
2, 4944, Note_on_c, 0, 79, 78
2, 4967, Note_on_c, 0, 79, 0
2, 4968, Note_on_c, 0, 80, 80
2, 4991, Note_on_c, 0, 80, 0
2, 4992, Note_on_c, 0, 82, 80
2, 5015, Note_on_c, 0, 82, 0
2, 5016, Note_on_c, 0, 80, 80
2, 5039, Note_on_c, 0, 80, 0
2, 5040, Note_on_c, 0, 79, 80
2, 5063, Note_on_c, 0, 79, 0
2, 5064, Note_on_c, 0, 77, 80
2, 5087, Note_on_c, 0, 77, 0
2, 5088, Note_on_c, 0, 75, 80
2, 5111, Note_on_c, 0, 75, 0
2, 5112, Note_on_c, 0, 73, 80
2, 5135, Note_on_c, 0, 73, 0
2, 5136, Note_on_c, 0, 72, 80
2, 5159, Note_on_c, 0, 72, 0
2, 5160, Note_on_c, 0, 71, 80
2, 5183, Note_on_c, 0, 71, 0
2, 5184, Note_on_c, 0, 72, 80
2, 5207, Note_on_c, 0, 72, 0
2, 5208, Note_on_c, 0, 74, 80
2, 5231, Note_on_c, 0, 74, 0
2, 5232, Note_on_c, 0, 75, 80
2, 5255, Note_on_c, 0, 75, 0
2, 5256, Note_on_c, 0, 77, 80
2, 5279, Note_on_c, 0, 77, 0
2, 5280, Note_on_c, 0, 79, 80
2, 5303, Note_on_c, 0, 79, 0
2, 5304, Note_on_c, 0, 80, 80
2, 5327, Note_on_c, 0, 80, 0
2, 5328, Note_on_c, 0, 82, 80
2, 5351, Note_on_c, 0, 82, 0
2, 5352, Note_on_c, 0, 84, 80
2, 5375, Note_on_c, 0, 84, 0
2, 5376, Note_on_c, 0, 82, 80
2, 5421, Note_on_c, 0, 82, 0
2, 5424, Note_on_c, 0, 75, 80
2, 5469, Note_on_c, 0, 75, 0
2, 5472, Note_on_c, 0, 79, 80
2, 5495, Note_on_c, 0, 79, 0
2, 5496, Note_on_c, 0, 77, 80
2, 5519, Note_on_c, 0, 77, 0
2, 5520, Note_on_c, 0, 75, 80
2, 5543, Note_on_c, 0, 75, 0
2, 5544, Note_on_c, 0, 74, 80
2, 5567, Note_on_c, 0, 74, 0
2, 5568, Note_on_c, 0, 75, 80
2, 5613, Note_on_c, 0, 75, 0
2, 5664, Note_on_c, 0, 70, 80
2, 5687, Note_on_c, 0, 70, 0
2, 5688, Note_on_c, 0, 79, 80
2, 5711, Note_on_c, 0, 79, 0
2, 5712, Note_on_c, 0, 70, 80
2, 5735, Note_on_c, 0, 70, 0
2, 5736, Note_on_c, 0, 79, 80
2, 5759, Note_on_c, 0, 79, 0
2, 5760, Note_on_c, 0, 69, 80
2, 5783, Note_on_c, 0, 69, 0
2, 5784, Note_on_c, 0, 79, 80
2, 5807, Note_on_c, 0, 79, 0
2, 5808, Note_on_c, 0, 69, 80
2, 5831, Note_on_c, 0, 69, 0
2, 5832, Note_on_c, 0, 79, 80
2, 5855, Note_on_c, 0, 79, 0
2, 5856, Note_on_c, 0, 68, 80
2, 5879, Note_on_c, 0, 68, 0
2, 5880, Note_on_c, 0, 77, 80
2, 5903, Note_on_c, 0, 77, 0
2, 5904, Note_on_c, 0, 68, 80
2, 5927, Note_on_c, 0, 68, 0
2, 5928, Note_on_c, 0, 77, 80
2, 5951, Note_on_c, 0, 77, 0
2, 5952, Note_on_c, 0, 67, 80
2, 5975, Note_on_c, 0, 67, 0
2, 5976, Note_on_c, 0, 77, 80
2, 5999, Note_on_c, 0, 77, 0
2, 6000, Note_on_c, 0, 67, 80
2, 6023, Note_on_c, 0, 67, 0
2, 6024, Note_on_c, 0, 77, 80
2, 6047, Note_on_c, 0, 77, 0
2, 6048, Note_on_c, 0, 67, 80
2, 6071, Note_on_c, 0, 67, 0
2, 6072, Note_on_c, 0, 75, 80
2, 6095, Note_on_c, 0, 75, 0
2, 6096, Note_on_c, 0, 67, 80
2, 6119, Note_on_c, 0, 67, 0
2, 6120, Note_on_c, 0, 75, 80
2, 6143, Note_on_c, 0, 75, 0
2, 6144, Note_on_c, 0, 65, 80
2, 6167, Note_on_c, 0, 65, 0
2, 6168, Note_on_c, 0, 75, 80
2, 6191, Note_on_c, 0, 75, 0
2, 6192, Note_on_c, 0, 65, 80
2, 6215, Note_on_c, 0, 65, 0
2, 6216, Note_on_c, 0, 75, 80
2, 6239, Note_on_c, 0, 75, 0
2, 6240, Note_on_c, 0, 65, 80
2, 6263, Note_on_c, 0, 65, 0
2, 6264, Note_on_c, 0, 74, 80
2, 6287, Note_on_c, 0, 74, 0
2, 6288, Note_on_c, 0, 65, 80
2, 6311, Note_on_c, 0, 65, 0
2, 6312, Note_on_c, 0, 74, 80
2, 6335, Note_on_c, 0, 74, 0
2, 6336, Note_on_c, 0, 75, 80
2, 6336, Note_on_c, 0, 67, 80
2, 6425, Note_on_c, 0, 75, 0
2, 6425, Note_on_c, 0, 67, 0
2, 6432, Note_on_c, 0, 82, 80
2, 6455, Note_on_c, 0, 82, 0
2, 6456, Note_on_c, 0, 79, 80
2, 6479, Note_on_c, 0, 79, 0
2, 6480, Note_on_c, 0, 82, 80
2, 6503, Note_on_c, 0, 82, 0
2, 6504, Note_on_c, 0, 79, 80
2, 6527, Note_on_c, 0, 79, 0
2, 6528, Note_on_c, 0, 81, 80
2, 6551, Note_on_c, 0, 81, 0
2, 6552, Note_on_c, 0, 79, 80
2, 6575, Note_on_c, 0, 79, 0
2, 6576, Note_on_c, 0, 81, 80
2, 6599, Note_on_c, 0, 81, 0
2, 6600, Note_on_c, 0, 79, 80
2, 6623, Note_on_c, 0, 79, 0
2, 6624, Note_on_c, 0, 80, 80
2, 6647, Note_on_c, 0, 80, 0
2, 6648, Note_on_c, 0, 77, 80
2, 6671, Note_on_c, 0, 77, 0
2, 6672, Note_on_c, 0, 80, 80
2, 6695, Note_on_c, 0, 80, 0
2, 6696, Note_on_c, 0, 77, 80
2, 6719, Note_on_c, 0, 77, 0
2, 6720, Note_on_c, 0, 79, 80
2, 6743, Note_on_c, 0, 79, 0
2, 6744, Note_on_c, 0, 77, 80
2, 6767, Note_on_c, 0, 77, 0
2, 6768, Note_on_c, 0, 79, 80
2, 6791, Note_on_c, 0, 79, 0
2, 6792, Note_on_c, 0, 77, 80
2, 6815, Note_on_c, 0, 77, 0
2, 6816, Note_on_c, 0, 79, 80
2, 6839, Note_on_c, 0, 79, 0
2, 6840, Note_on_c, 0, 75, 80
2, 6863, Note_on_c, 0, 75, 0
2, 6864, Note_on_c, 0, 79, 80
2, 6887, Note_on_c, 0, 79, 0
2, 6888, Note_on_c, 0, 75, 80
2, 6911, Note_on_c, 0, 75, 0
2, 6912, Note_on_c, 0, 77, 80
2, 6935, Note_on_c, 0, 77, 0
2, 6936, Note_on_c, 0, 75, 80
2, 6959, Note_on_c, 0, 75, 0
2, 6960, Note_on_c, 0, 77, 80
2, 6983, Note_on_c, 0, 77, 0
2, 6984, Note_on_c, 0, 75, 80
2, 7007, Note_on_c, 0, 75, 0
2, 7008, Note_on_c, 0, 77, 80
2, 7031, Note_on_c, 0, 77, 0
2, 7032, Note_on_c, 0, 74, 80
2, 7055, Note_on_c, 0, 74, 0
2, 7056, Note_on_c, 0, 77, 80
2, 7079, Note_on_c, 0, 77, 0
2, 7080, Note_on_c, 0, 74, 80
2, 7103, Note_on_c, 0, 74, 0
2, 7104, Note_on_c, 0, 75, 80
2, 7193, Note_on_c, 0, 75, 0
2, 7248, Note_on_c, 0, 75, 75
2, 7293, Note_on_c, 0, 75, 0
2, 7296, Note_on_c, 0, 75, 75
2, 7319, Note_on_c, 0, 75, 0
2, 7320, Note_on_c, 0, 73, 75
2, 7343, Note_on_c, 0, 73, 0
2, 7344, Note_on_c, 0, 77, 75
2, 7367, Note_on_c, 0, 77, 0
2, 7368, Note_on_c, 0, 75, 75
2, 7391, Note_on_c, 0, 75, 0
2, 7392, Note_on_c, 0, 73, 75
2, 7415, Note_on_c, 0, 73, 0
2, 7416, Note_on_c, 0, 72, 75
2, 7439, Note_on_c, 0, 72, 0
2, 7440, Note_on_c, 0, 70, 75
2, 7463, Note_on_c, 0, 70, 0
2, 7464, Note_on_c, 0, 68, 75
2, 7487, Note_on_c, 0, 68, 0
2, 7488, Note_on_c, 0, 68, 75
2, 7536, Note_on_c, 0, 68, 0
2, 7536, Note_on_c, 0, 67, 75
2, 7581, Note_on_c, 0, 67, 0
2, 7584, Note_on_c, 0, 68, 75
2, 7629, Note_on_c, 0, 68, 0
2, 7632, Note_on_c, 0, 65, 66
2, 7677, Note_on_c, 0, 65, 0
2, 7680, Note_on_c, 0, 65, 66
2, 7703, Note_on_c, 0, 65, 0
2, 7704, Note_on_c, 0, 63, 66
2, 7727, Note_on_c, 0, 63, 0
2, 7728, Note_on_c, 0, 68, 66
2, 7751, Note_on_c, 0, 68, 0
2, 7752, Note_on_c, 0, 63, 66
2, 7775, Note_on_c, 0, 63, 0
2, 7776, Note_on_c, 0, 63, 66
2, 7799, Note_on_c, 0, 63, 0
2, 7800, Note_on_c, 0, 61, 66
2, 7823, Note_on_c, 0, 61, 0
2, 7824, Note_on_c, 0, 70, 66
2, 7847, Note_on_c, 0, 70, 0
2, 7848, Note_on_c, 0, 61, 66
2, 7871, Note_on_c, 0, 61, 0
2, 7872, Note_on_c, 0, 61, 66
2, 7968, Note_on_c, 0, 61, 0
2, 7968, Note_on_c, 0, 60, 66
2, 8013, Note_on_c, 0, 60, 0
2, 8016, Note_on_c, 0, 75, 75
2, 8061, Note_on_c, 0, 75, 0
2, 8064, Note_on_c, 0, 72, 75
2, 8087, Note_on_c, 0, 72, 0
2, 8088, Note_on_c, 0, 73, 75
2, 8111, Note_on_c, 0, 73, 0
2, 8112, Note_on_c, 0, 77, 75
2, 8135, Note_on_c, 0, 77, 0
2, 8136, Note_on_c, 0, 75, 75
2, 8159, Note_on_c, 0, 75, 0
2, 8160, Note_on_c, 0, 73, 75
2, 8183, Note_on_c, 0, 73, 0
2, 8184, Note_on_c, 0, 72, 75
2, 8207, Note_on_c, 0, 72, 0
2, 8208, Note_on_c, 0, 70, 75
2, 8231, Note_on_c, 0, 70, 0
2, 8232, Note_on_c, 0, 68, 75
2, 8255, Note_on_c, 0, 68, 0
2, 8256, Note_on_c, 0, 68, 75
2, 8304, Note_on_c, 0, 68, 0
2, 8304, Note_on_c, 0, 67, 75
2, 8349, Note_on_c, 0, 67, 0
2, 8352, Note_on_c, 0, 68, 75
2, 8397, Note_on_c, 0, 68, 0
2, 8400, Note_on_c, 0, 77, 66
2, 8445, Note_on_c, 0, 77, 0
2, 8448, Note_on_c, 0, 75, 66
2, 8471, Note_on_c, 0, 75, 0
2, 8472, Note_on_c, 0, 84, 66
2, 8495, Note_on_c, 0, 84, 0
2, 8496, Note_on_c, 0, 82, 66
2, 8519, Note_on_c, 0, 82, 0
2, 8520, Note_on_c, 0, 80, 66
2, 8543, Note_on_c, 0, 80, 0
2, 8544, Note_on_c, 0, 79, 66
2, 8567, Note_on_c, 0, 79, 0
2, 8568, Note_on_c, 0, 77, 66
2, 8591, Note_on_c, 0, 77, 0
2, 8592, Note_on_c, 0, 75, 66
2, 8615, Note_on_c, 0, 75, 0
2, 8616, Note_on_c, 0, 77, 66
2, 8639, Note_on_c, 0, 77, 0
2, 8640, Note_on_c, 0, 75, 66
2, 8688, Note_on_c, 0, 75, 0
2, 8688, Note_on_c, 0, 73, 66
2, 8733, Note_on_c, 0, 73, 0
2, 8736, Note_on_c, 0, 72, 66
2, 8781, Note_on_c, 0, 72, 0
2, 8832, Note_on_c, 0, 68, 80
2, 9009, Note_on_c, 0, 68, 0
2, 9024, Note_on_c, 0, 63, 80
2, 9042, Note_on_c, 0, 63, 0
2, 9042, Note_on_c, 0, 73, 80
2, 9201, Note_on_c, 0, 73, 0
2, 9240, Note_on_c, 0, 68, 80
2, 9263, Note_on_c, 0, 68, 0
2, 9264, Note_on_c, 0, 70, 80
2, 9287, Note_on_c, 0, 70, 0
2, 9288, Note_on_c, 0, 72, 80
2, 9311, Note_on_c, 0, 72, 0
2, 9312, Note_on_c, 0, 70, 80
2, 9335, Note_on_c, 0, 70, 0
2, 9336, Note_on_c, 0, 68, 80
2, 9359, Note_on_c, 0, 68, 0
2, 9360, Note_on_c, 0, 67, 80
2, 9383, Note_on_c, 0, 67, 0
2, 9384, Note_on_c, 0, 68, 80
2, 9407, Note_on_c, 0, 68, 0
2, 9432, Note_on_c, 0, 67, 80
2, 9455, Note_on_c, 0, 67, 0
2, 9456, Note_on_c, 0, 68, 80
2, 9479, Note_on_c, 0, 68, 0
2, 9480, Note_on_c, 0, 70, 80
2, 9503, Note_on_c, 0, 70, 0
2, 9504, Note_on_c, 0, 68, 80
2, 9527, Note_on_c, 0, 68, 0
2, 9528, Note_on_c, 0, 67, 80
2, 9551, Note_on_c, 0, 67, 0
2, 9552, Note_on_c, 0, 65, 80
2, 9575, Note_on_c, 0, 65, 0
2, 9576, Note_on_c, 0, 63, 80
2, 9599, Note_on_c, 0, 63, 0
2, 9624, Note_on_c, 0, 68, 80
2, 9647, Note_on_c, 0, 68, 0
2, 9648, Note_on_c, 0, 70, 80
2, 9671, Note_on_c, 0, 70, 0
2, 9672, Note_on_c, 0, 72, 80
2, 9695, Note_on_c, 0, 72, 0
2, 9696, Note_on_c, 0, 70, 80
2, 9719, Note_on_c, 0, 70, 0
2, 9720, Note_on_c, 0, 68, 80
2, 9743, Note_on_c, 0, 68, 0
2, 9744, Note_on_c, 0, 67, 80
2, 9767, Note_on_c, 0, 67, 0
2, 9768, Note_on_c, 0, 68, 80
2, 9791, Note_on_c, 0, 68, 0
2, 9816, Note_on_c, 0, 79, 80
2, 9839, Note_on_c, 0, 79, 0
2, 9840, Note_on_c, 0, 77, 80
2, 9863, Note_on_c, 0, 77, 0
2, 9864, Note_on_c, 0, 75, 80
2, 9887, Note_on_c, 0, 75, 0
2, 9888, Note_on_c, 0, 74, 80
2, 9911, Note_on_c, 0, 74, 0
2, 9912, Note_on_c, 0, 72, 80
2, 9935, Note_on_c, 0, 72, 0
2, 9936, Note_on_c, 0, 70, 80
2, 9959, Note_on_c, 0, 70, 0
2, 9960, Note_on_c, 0, 68, 80
2, 9983, Note_on_c, 0, 68, 0
2, 10008, Note_on_c, 0, 67, 80
2, 10031, Note_on_c, 0, 67, 0
2, 10032, Note_on_c, 0, 68, 80
2, 10055, Note_on_c, 0, 68, 0
2, 10056, Note_on_c, 0, 70, 80
2, 10079, Note_on_c, 0, 70, 0
2, 10080, Note_on_c, 0, 68, 80
2, 10103, Note_on_c, 0, 68, 0
2, 10104, Note_on_c, 0, 67, 80
2, 10127, Note_on_c, 0, 67, 0
2, 10128, Note_on_c, 0, 65, 80
2, 10151, Note_on_c, 0, 65, 0
2, 10152, Note_on_c, 0, 63, 80
2, 10175, Note_on_c, 0, 63, 0
2, 10176, Note_on_c, 0, 72, 80
2, 10199, Note_on_c, 0, 72, 0
2, 10200, Note_on_c, 0, 70, 80
2, 10223, Note_on_c, 0, 70, 0
2, 10224, Note_on_c, 0, 68, 80
2, 10247, Note_on_c, 0, 68, 0
2, 10248, Note_on_c, 0, 67, 80
2, 10271, Note_on_c, 0, 67, 0
2, 10272, Note_on_c, 0, 65, 80
2, 10295, Note_on_c, 0, 65, 0
2, 10296, Note_on_c, 0, 63, 80
2, 10319, Note_on_c, 0, 63, 0
2, 10320, Note_on_c, 0, 62, 80
2, 10343, Note_on_c, 0, 62, 0
2, 10344, Note_on_c, 0, 60, 80
2, 10367, Note_on_c, 0, 60, 0
2, 10368, Note_on_c, 0, 58, 80
2, 10457, Note_on_c, 0, 58, 0
2, 10464, Note_on_c, 0, 70, 75
2, 10487, Note_on_c, 0, 70, 0
2, 10488, Note_on_c, 0, 72, 75
2, 10511, Note_on_c, 0, 72, 0
2, 10512, Note_on_c, 0, 70, 75
2, 10535, Note_on_c, 0, 70, 0
2, 10536, Note_on_c, 0, 67, 75
2, 10559, Note_on_c, 0, 67, 0
2, 10560, Note_on_c, 0, 68, 75
2, 10583, Note_on_c, 0, 68, 0
2, 10584, Note_on_c, 0, 70, 75
2, 10607, Note_on_c, 0, 70, 0
2, 10608, Note_on_c, 0, 68, 75
2, 10631, Note_on_c, 0, 68, 0
2, 10632, Note_on_c, 0, 65, 75
2, 10655, Note_on_c, 0, 65, 0
2, 10656, Note_on_c, 0, 67, 75
2, 10679, Note_on_c, 0, 67, 0
2, 10680, Note_on_c, 0, 68, 75
2, 10703, Note_on_c, 0, 68, 0
2, 10704, Note_on_c, 0, 67, 75
2, 10727, Note_on_c, 0, 67, 0
2, 10728, Note_on_c, 0, 63, 75
2, 10751, Note_on_c, 0, 63, 0
2, 10752, Note_on_c, 0, 65, 75
2, 10841, Note_on_c, 0, 65, 0
2, 10848, Note_on_c, 0, 82, 66
2, 10871, Note_on_c, 0, 82, 0
2, 10872, Note_on_c, 0, 84, 66
2, 10895, Note_on_c, 0, 84, 0
2, 10896, Note_on_c, 0, 82, 66
2, 10919, Note_on_c, 0, 82, 0
2, 10920, Note_on_c, 0, 84, 66
2, 10943, Note_on_c, 0, 84, 0
2, 10944, Note_on_c, 0, 80, 66
2, 10967, Note_on_c, 0, 80, 0
2, 10968, Note_on_c, 0, 82, 66
2, 10991, Note_on_c, 0, 82, 0
2, 10992, Note_on_c, 0, 80, 66
2, 11015, Note_on_c, 0, 80, 0
2, 11016, Note_on_c, 0, 82, 66
2, 11039, Note_on_c, 0, 82, 0
2, 11040, Note_on_c, 0, 79, 66
2, 11063, Note_on_c, 0, 79, 0
2, 11064, Note_on_c, 0, 80, 66
2, 11087, Note_on_c, 0, 80, 0
2, 11088, Note_on_c, 0, 79, 66
2, 11111, Note_on_c, 0, 79, 0
2, 11112, Note_on_c, 0, 80, 66
2, 11135, Note_on_c, 0, 80, 0
2, 11136, Note_on_c, 0, 77, 66
2, 11225, Note_on_c, 0, 77, 0
2, 11280, Note_on_c, 0, 70, 80
2, 11325, Note_on_c, 0, 70, 0
2, 11328, Note_on_c, 0, 75, 80
2, 11351, Note_on_c, 0, 75, 0
2, 11352, Note_on_c, 0, 74, 80
2, 11375, Note_on_c, 0, 74, 0
2, 11376, Note_on_c, 0, 75, 80
2, 11399, Note_on_c, 0, 75, 0
2, 11400, Note_on_c, 0, 77, 80
2, 11423, Note_on_c, 0, 77, 0
2, 11424, Note_on_c, 0, 79, 80
2, 11447, Note_on_c, 0, 79, 0
2, 11448, Note_on_c, 0, 75, 78
2, 11471, Note_on_c, 0, 75, 0
2, 11472, Note_on_c, 0, 80, 76
2, 11495, Note_on_c, 0, 80, 0
2, 11496, Note_on_c, 0, 77, 74
2, 11519, Note_on_c, 0, 77, 0
2, 11520, Note_on_c, 0, 79, 73
2, 11543, Note_on_c, 0, 79, 0
2, 11544, Note_on_c, 0, 75, 71
2, 11567, Note_on_c, 0, 75, 0
2, 11568, Note_on_c, 0, 80, 69
2, 11591, Note_on_c, 0, 80, 0
2, 11592, Note_on_c, 0, 77, 67
2, 11615, Note_on_c, 0, 77, 0
2, 11616, Note_on_c, 0, 79, 66
2, 11661, Note_on_c, 0, 79, 0
2, 11664, Note_on_c, 0, 70, 66
2, 11709, Note_on_c, 0, 70, 0
2, 11712, Note_on_c, 0, 75, 66
2, 11735, Note_on_c, 0, 75, 0
2, 11736, Note_on_c, 0, 74, 66
2, 11759, Note_on_c, 0, 74, 0
2, 11760, Note_on_c, 0, 75, 66
2, 11783, Note_on_c, 0, 75, 0
2, 11784, Note_on_c, 0, 77, 66
2, 11807, Note_on_c, 0, 77, 0
2, 11808, Note_on_c, 0, 79, 66
2, 11831, Note_on_c, 0, 79, 0
2, 11832, Note_on_c, 0, 75, 67
2, 11855, Note_on_c, 0, 75, 0
2, 11856, Note_on_c, 0, 80, 68
2, 11879, Note_on_c, 0, 80, 0
2, 11880, Note_on_c, 0, 77, 69
2, 11903, Note_on_c, 0, 77, 0
2, 11904, Note_on_c, 0, 79, 71
2, 11927, Note_on_c, 0, 79, 0
2, 11928, Note_on_c, 0, 75, 72
2, 11951, Note_on_c, 0, 75, 0
2, 11952, Note_on_c, 0, 80, 73
2, 11975, Note_on_c, 0, 80, 0
2, 11976, Note_on_c, 0, 77, 74
2, 11999, Note_on_c, 0, 77, 0
2, 12000, Note_on_c, 0, 79, 76
2, 12045, Note_on_c, 0, 79, 0
2, 12048, Note_on_c, 0, 79, 78
2, 12071, Note_on_c, 0, 79, 0
2, 12072, Note_on_c, 0, 80, 80
2, 12095, Note_on_c, 0, 80, 0
2, 12096, Note_on_c, 0, 82, 80
2, 12119, Note_on_c, 0, 82, 0
2, 12120, Note_on_c, 0, 80, 80
2, 12143, Note_on_c, 0, 80, 0
2, 12144, Note_on_c, 0, 79, 80
2, 12167, Note_on_c, 0, 79, 0
2, 12168, Note_on_c, 0, 77, 80
2, 12191, Note_on_c, 0, 77, 0
2, 12192, Note_on_c, 0, 75, 80
2, 12215, Note_on_c, 0, 75, 0
2, 12216, Note_on_c, 0, 73, 80
2, 12239, Note_on_c, 0, 73, 0
2, 12240, Note_on_c, 0, 72, 80
2, 12263, Note_on_c, 0, 72, 0
2, 12264, Note_on_c, 0, 71, 80
2, 12287, Note_on_c, 0, 71, 0
2, 12288, Note_on_c, 0, 72, 80
2, 12311, Note_on_c, 0, 72, 0
2, 12312, Note_on_c, 0, 74, 80
2, 12335, Note_on_c, 0, 74, 0
2, 12336, Note_on_c, 0, 75, 80
2, 12359, Note_on_c, 0, 75, 0
2, 12360, Note_on_c, 0, 77, 80
2, 12383, Note_on_c, 0, 77, 0
2, 12384, Note_on_c, 0, 79, 80
2, 12407, Note_on_c, 0, 79, 0
2, 12408, Note_on_c, 0, 80, 80
2, 12431, Note_on_c, 0, 80, 0
2, 12432, Note_on_c, 0, 82, 80
2, 12455, Note_on_c, 0, 82, 0
2, 12456, Note_on_c, 0, 84, 80
2, 12479, Note_on_c, 0, 84, 0
2, 12480, Note_on_c, 0, 82, 80
2, 12525, Note_on_c, 0, 82, 0
2, 12528, Note_on_c, 0, 75, 80
2, 12573, Note_on_c, 0, 75, 0
2, 12576, Note_on_c, 0, 79, 80
2, 12599, Note_on_c, 0, 79, 0
2, 12600, Note_on_c, 0, 77, 80
2, 12623, Note_on_c, 0, 77, 0
2, 12624, Note_on_c, 0, 75, 80
2, 12647, Note_on_c, 0, 75, 0
2, 12648, Note_on_c, 0, 74, 80
2, 12671, Note_on_c, 0, 74, 0
2, 12672, Note_on_c, 0, 75, 80
2, 12717, Note_on_c, 0, 75, 0
2, 12768, Note_on_c, 0, 70, 80
2, 12791, Note_on_c, 0, 70, 0
2, 12792, Note_on_c, 0, 79, 80
2, 12815, Note_on_c, 0, 79, 0
2, 12816, Note_on_c, 0, 70, 80
2, 12839, Note_on_c, 0, 70, 0
2, 12840, Note_on_c, 0, 79, 80
2, 12863, Note_on_c, 0, 79, 0
2, 12864, Note_on_c, 0, 69, 80
2, 12887, Note_on_c, 0, 69, 0
2, 12888, Note_on_c, 0, 79, 80
2, 12911, Note_on_c, 0, 79, 0
2, 12912, Note_on_c, 0, 69, 80
2, 12935, Note_on_c, 0, 69, 0
2, 12936, Note_on_c, 0, 79, 80
2, 12959, Note_on_c, 0, 79, 0
2, 12960, Note_on_c, 0, 68, 80
2, 12983, Note_on_c, 0, 68, 0
2, 12984, Note_on_c, 0, 77, 80
2, 13007, Note_on_c, 0, 77, 0
2, 13008, Note_on_c, 0, 68, 80
2, 13031, Note_on_c, 0, 68, 0
2, 13032, Note_on_c, 0, 77, 80
2, 13055, Note_on_c, 0, 77, 0
2, 13056, Note_on_c, 0, 67, 80
2, 13079, Note_on_c, 0, 67, 0
2, 13080, Note_on_c, 0, 77, 80
2, 13103, Note_on_c, 0, 77, 0
2, 13104, Note_on_c, 0, 67, 80
2, 13127, Note_on_c, 0, 67, 0
2, 13128, Note_on_c, 0, 77, 80
2, 13151, Note_on_c, 0, 77, 0
2, 13152, Note_on_c, 0, 67, 80
2, 13175, Note_on_c, 0, 67, 0
2, 13176, Note_on_c, 0, 75, 80
2, 13199, Note_on_c, 0, 75, 0
2, 13200, Note_on_c, 0, 67, 80
2, 13223, Note_on_c, 0, 67, 0
2, 13224, Note_on_c, 0, 75, 80
2, 13247, Note_on_c, 0, 75, 0
2, 13248, Note_on_c, 0, 65, 80
2, 13271, Note_on_c, 0, 65, 0
2, 13272, Note_on_c, 0, 75, 80
2, 13295, Note_on_c, 0, 75, 0
2, 13296, Note_on_c, 0, 65, 80
2, 13319, Note_on_c, 0, 65, 0
2, 13320, Note_on_c, 0, 75, 80
2, 13343, Note_on_c, 0, 75, 0
2, 13344, Note_on_c, 0, 65, 80
2, 13367, Note_on_c, 0, 65, 0
2, 13368, Note_on_c, 0, 74, 80
2, 13391, Note_on_c, 0, 74, 0
2, 13392, Note_on_c, 0, 65, 80
2, 13415, Note_on_c, 0, 65, 0
2, 13416, Note_on_c, 0, 74, 80
2, 13439, Note_on_c, 0, 74, 0
2, 13440, Note_on_c, 0, 75, 80
2, 13440, Note_on_c, 0, 67, 80
2, 13529, Note_on_c, 0, 75, 0
2, 13529, Note_on_c, 0, 67, 0
2, 13536, Note_on_c, 0, 82, 80
2, 13559, Note_on_c, 0, 82, 0
2, 13560, Note_on_c, 0, 79, 80
2, 13583, Note_on_c, 0, 79, 0
2, 13584, Note_on_c, 0, 82, 80
2, 13607, Note_on_c, 0, 82, 0
2, 13608, Note_on_c, 0, 79, 80
2, 13631, Note_on_c, 0, 79, 0
2, 13632, Note_on_c, 0, 81, 80
2, 13655, Note_on_c, 0, 81, 0
2, 13656, Note_on_c, 0, 79, 80
2, 13679, Note_on_c, 0, 79, 0
2, 13680, Note_on_c, 0, 81, 80
2, 13703, Note_on_c, 0, 81, 0
2, 13704, Note_on_c, 0, 79, 80
2, 13727, Note_on_c, 0, 79, 0
2, 13728, Note_on_c, 0, 80, 80
2, 13751, Note_on_c, 0, 80, 0
2, 13752, Note_on_c, 0, 77, 80
2, 13775, Note_on_c, 0, 77, 0
2, 13776, Note_on_c, 0, 80, 80
2, 13799, Note_on_c, 0, 80, 0
2, 13800, Note_on_c, 0, 77, 80
2, 13823, Note_on_c, 0, 77, 0
2, 13824, Note_on_c, 0, 79, 80
2, 13847, Note_on_c, 0, 79, 0
2, 13848, Note_on_c, 0, 77, 80
2, 13871, Note_on_c, 0, 77, 0
2, 13872, Note_on_c, 0, 79, 80
2, 13895, Note_on_c, 0, 79, 0
2, 13896, Note_on_c, 0, 77, 80
2, 13919, Note_on_c, 0, 77, 0
2, 13920, Note_on_c, 0, 79, 80
2, 13943, Note_on_c, 0, 79, 0
2, 13944, Note_on_c, 0, 75, 80
2, 13967, Note_on_c, 0, 75, 0
2, 13968, Note_on_c, 0, 79, 80
2, 13991, Note_on_c, 0, 79, 0
2, 13992, Note_on_c, 0, 75, 80
2, 14015, Note_on_c, 0, 75, 0
2, 14016, Note_on_c, 0, 77, 80
2, 14039, Note_on_c, 0, 77, 0
2, 14040, Note_on_c, 0, 75, 80
2, 14063, Note_on_c, 0, 75, 0
2, 14064, Note_on_c, 0, 77, 80
2, 14087, Note_on_c, 0, 77, 0
2, 14088, Note_on_c, 0, 75, 80
2, 14111, Note_on_c, 0, 75, 0
2, 14112, Note_on_c, 0, 77, 80
2, 14135, Note_on_c, 0, 77, 0
2, 14136, Note_on_c, 0, 74, 80
2, 14159, Note_on_c, 0, 74, 0
2, 14160, Note_on_c, 0, 77, 80
2, 14183, Note_on_c, 0, 77, 0
2, 14184, Note_on_c, 0, 74, 80
2, 14207, Note_on_c, 0, 74, 0
2, 14208, Note_on_c, 0, 75, 80
2, 14297, Note_on_c, 0, 75, 0
2, 14352, Note_on_c, 0, 70, 75
2, 14397, Note_on_c, 0, 70, 0
2, 14400, Note_on_c, 0, 70, 75
2, 14423, Note_on_c, 0, 70, 0
2, 14424, Note_on_c, 0, 68, 75
2, 14447, Note_on_c, 0, 68, 0
2, 14448, Note_on_c, 0, 72, 75
2, 14471, Note_on_c, 0, 72, 0
2, 14472, Note_on_c, 0, 70, 75
2, 14495, Note_on_c, 0, 70, 0
2, 14496, Note_on_c, 0, 68, 75
2, 14519, Note_on_c, 0, 68, 0
2, 14520, Note_on_c, 0, 67, 75
2, 14543, Note_on_c, 0, 67, 0
2, 14544, Note_on_c, 0, 65, 75
2, 14567, Note_on_c, 0, 65, 0
2, 14568, Note_on_c, 0, 63, 75
2, 14591, Note_on_c, 0, 63, 0
2, 14592, Note_on_c, 0, 63, 75
2, 14640, Note_on_c, 0, 63, 0
2, 14640, Note_on_c, 0, 62, 75
2, 14685, Note_on_c, 0, 62, 0
2, 14688, Note_on_c, 0, 63, 75
2, 14733, Note_on_c, 0, 63, 0
2, 14736, Note_on_c, 0, 72, 66
2, 14781, Note_on_c, 0, 72, 0
2, 14784, Note_on_c, 0, 70, 66
2, 14807, Note_on_c, 0, 70, 0
2, 14808, Note_on_c, 0, 79, 66
2, 14831, Note_on_c, 0, 79, 0
2, 14832, Note_on_c, 0, 77, 66
2, 14855, Note_on_c, 0, 77, 0
2, 14856, Note_on_c, 0, 75, 66
2, 14879, Note_on_c, 0, 75, 0
2, 14880, Note_on_c, 0, 74, 66
2, 14903, Note_on_c, 0, 74, 0
2, 14904, Note_on_c, 0, 72, 66
2, 14927, Note_on_c, 0, 72, 0
2, 14928, Note_on_c, 0, 70, 66
2, 14951, Note_on_c, 0, 70, 0
2, 14952, Note_on_c, 0, 72, 66
2, 14975, Note_on_c, 0, 72, 0
2, 14976, Note_on_c, 0, 70, 66
2, 15021, Note_on_c, 0, 70, 0
2, 15024, Note_on_c, 0, 68, 66
2, 15036, Note_on_c, 0, 68, 0
2, 15036, Note_on_c, 0, 70, 66
2, 15048, Note_on_c, 0, 70, 0
2, 15048, Note_on_c, 0, 68, 66
2, 15060, Note_on_c, 0, 68, 0
2, 15060, Note_on_c, 0, 70, 66
2, 15069, Note_on_c, 0, 70, 0
2, 15072, Note_on_c, 0, 67, 66
2, 15117, Note_on_c, 0, 67, 0
2, 15120, Note_on_c, 0, 82, 75
2, 15165, Note_on_c, 0, 82, 0
2, 15168, Note_on_c, 0, 79, 75
2, 15191, Note_on_c, 0, 79, 0
2, 15192, Note_on_c, 0, 80, 75
2, 15215, Note_on_c, 0, 80, 0
2, 15216, Note_on_c, 0, 84, 75
2, 15239, Note_on_c, 0, 84, 0
2, 15240, Note_on_c, 0, 82, 75
2, 15263, Note_on_c, 0, 82, 0
2, 15264, Note_on_c, 0, 80, 75
2, 15287, Note_on_c, 0, 80, 0
2, 15288, Note_on_c, 0, 79, 75
2, 15311, Note_on_c, 0, 79, 0
2, 15312, Note_on_c, 0, 77, 75
2, 15335, Note_on_c, 0, 77, 0
2, 15336, Note_on_c, 0, 75, 75
2, 15359, Note_on_c, 0, 75, 0
2, 15360, Note_on_c, 0, 75, 75
2, 15405, Note_on_c, 0, 75, 0
2, 15408, Note_on_c, 0, 74, 75
2, 15453, Note_on_c, 0, 74, 0
2, 15456, Note_on_c, 0, 75, 75
2, 15501, Note_on_c, 0, 75, 0
2, 15504, Note_on_c, 0, 72, 66
2, 15549, Note_on_c, 0, 72, 0
2, 15552, Note_on_c, 0, 72, 66
2, 15575, Note_on_c, 0, 72, 0
2, 15576, Note_on_c, 0, 70, 66
2, 15599, Note_on_c, 0, 70, 0
2, 15600, Note_on_c, 0, 75, 66
2, 15623, Note_on_c, 0, 75, 0
2, 15624, Note_on_c, 0, 70, 66
2, 15647, Note_on_c, 0, 70, 0
2, 15648, Note_on_c, 0, 70, 66
2, 15671, Note_on_c, 0, 70, 0
2, 15672, Note_on_c, 0, 68, 66
2, 15695, Note_on_c, 0, 68, 0
2, 15696, Note_on_c, 0, 77, 66
2, 15719, Note_on_c, 0, 77, 0
2, 15720, Note_on_c, 0, 68, 66
2, 15743, Note_on_c, 0, 68, 0
2, 15744, Note_on_c, 0, 68, 66
2, 15840, Note_on_c, 0, 68, 0
2, 15840, Note_on_c, 0, 67, 66
2, 15885, Note_on_c, 0, 67, 0
2, 15888, Note_on_c, 0, 67, 80
2, 15911, Note_on_c, 0, 67, 0
2, 15912, Note_on_c, 0, 68, 80
2, 15935, Note_on_c, 0, 68, 0
2, 15936, Note_on_c, 0, 70, 80
2, 15959, Note_on_c, 0, 70, 0
2, 15960, Note_on_c, 0, 72, 80
2, 15983, Note_on_c, 0, 72, 0
2, 15984, Note_on_c, 0, 70, 80
2, 16007, Note_on_c, 0, 70, 0
2, 16008, Note_on_c, 0, 68, 80
2, 16031, Note_on_c, 0, 68, 0
2, 16032, Note_on_c, 0, 67, 80
2, 16055, Note_on_c, 0, 67, 0
2, 16056, Note_on_c, 0, 65, 80
2, 16079, Note_on_c, 0, 65, 0
2, 16080, Note_on_c, 0, 63, 80
2, 16103, Note_on_c, 0, 63, 0
2, 16104, Note_on_c, 0, 61, 80
2, 16127, Note_on_c, 0, 61, 0
2, 16152, Note_on_c, 0, 60, 80
2, 16175, Note_on_c, 0, 60, 0
2, 16176, Note_on_c, 0, 61, 80
2, 16199, Note_on_c, 0, 61, 0
2, 16200, Note_on_c, 0, 63, 80
2, 16223, Note_on_c, 0, 63, 0
2, 16224, Note_on_c, 0, 61, 80
2, 16247, Note_on_c, 0, 61, 0
2, 16248, Note_on_c, 0, 60, 80
2, 16271, Note_on_c, 0, 60, 0
2, 16272, Note_on_c, 0, 58, 80
2, 16295, Note_on_c, 0, 58, 0
2, 16296, Note_on_c, 0, 56, 80
2, 16319, Note_on_c, 0, 56, 0
2, 16344, Note_on_c, 0, 77, 80
2, 16367, Note_on_c, 0, 77, 0
2, 16368, Note_on_c, 0, 75, 80
2, 16391, Note_on_c, 0, 75, 0
2, 16392, Note_on_c, 0, 73, 80
2, 16415, Note_on_c, 0, 73, 0
2, 16416, Note_on_c, 0, 72, 80
2, 16439, Note_on_c, 0, 72, 0
2, 16440, Note_on_c, 0, 70, 80
2, 16463, Note_on_c, 0, 70, 0
2, 16464, Note_on_c, 0, 68, 80
2, 16487, Note_on_c, 0, 68, 0
2, 16488, Note_on_c, 0, 66, 80
2, 16511, Note_on_c, 0, 66, 0
2, 16536, Note_on_c, 0, 65, 80
2, 16559, Note_on_c, 0, 65, 0
2, 16560, Note_on_c, 0, 66, 80
2, 16583, Note_on_c, 0, 66, 0
2, 16584, Note_on_c, 0, 68, 80
2, 16607, Note_on_c, 0, 68, 0
2, 16608, Note_on_c, 0, 66, 80
2, 16631, Note_on_c, 0, 66, 0
2, 16632, Note_on_c, 0, 65, 80
2, 16655, Note_on_c, 0, 65, 0
2, 16656, Note_on_c, 0, 63, 80
2, 16679, Note_on_c, 0, 63, 0
2, 16680, Note_on_c, 0, 61, 80
2, 16703, Note_on_c, 0, 61, 0
2, 16728, Note_on_c, 0, 79, 80
2, 16751, Note_on_c, 0, 79, 0
2, 16752, Note_on_c, 0, 77, 80
2, 16775, Note_on_c, 0, 77, 0
2, 16776, Note_on_c, 0, 75, 80
2, 16799, Note_on_c, 0, 75, 0
2, 16800, Note_on_c, 0, 74, 80
2, 16823, Note_on_c, 0, 74, 0
2, 16824, Note_on_c, 0, 72, 80
2, 16847, Note_on_c, 0, 72, 0
2, 16848, Note_on_c, 0, 70, 80
2, 16871, Note_on_c, 0, 70, 0
2, 16872, Note_on_c, 0, 68, 80
2, 16895, Note_on_c, 0, 68, 0
2, 16920, Note_on_c, 0, 67, 80
2, 16943, Note_on_c, 0, 67, 0
2, 16944, Note_on_c, 0, 68, 80
2, 16967, Note_on_c, 0, 68, 0
2, 16968, Note_on_c, 0, 70, 80
2, 16991, Note_on_c, 0, 70, 0
2, 16992, Note_on_c, 0, 68, 80
2, 17015, Note_on_c, 0, 68, 0
2, 17016, Note_on_c, 0, 67, 80
2, 17039, Note_on_c, 0, 67, 0
2, 17040, Note_on_c, 0, 65, 80
2, 17063, Note_on_c, 0, 65, 0
2, 17064, Note_on_c, 0, 63, 80
2, 17087, Note_on_c, 0, 63, 0
2, 17112, Note_on_c, 0, 80, 80
2, 17135, Note_on_c, 0, 80, 0
2, 17136, Note_on_c, 0, 79, 80
2, 17159, Note_on_c, 0, 79, 0
2, 17160, Note_on_c, 0, 77, 80
2, 17183, Note_on_c, 0, 77, 0
2, 17184, Note_on_c, 0, 76, 80
2, 17207, Note_on_c, 0, 76, 0
2, 17208, Note_on_c, 0, 73, 80
2, 17231, Note_on_c, 0, 73, 0
2, 17232, Note_on_c, 0, 72, 80
2, 17255, Note_on_c, 0, 72, 0
2, 17256, Note_on_c, 0, 70, 80
2, 17279, Note_on_c, 0, 70, 0
2, 17304, Note_on_c, 0, 68, 80
2, 17327, Note_on_c, 0, 68, 0
2, 17328, Note_on_c, 0, 70, 80
2, 17351, Note_on_c, 0, 70, 0
2, 17352, Note_on_c, 0, 72, 80
2, 17375, Note_on_c, 0, 72, 0
2, 17376, Note_on_c, 0, 70, 80
2, 17399, Note_on_c, 0, 70, 0
2, 17400, Note_on_c, 0, 68, 80
2, 17423, Note_on_c, 0, 68, 0
2, 17424, Note_on_c, 0, 67, 80
2, 17447, Note_on_c, 0, 67, 0
2, 17448, Note_on_c, 0, 65, 80
2, 17471, Note_on_c, 0, 65, 0
2, 17496, Note_on_c, 0, 73, 80
2, 17519, Note_on_c, 0, 73, 0
2, 17520, Note_on_c, 0, 75, 80
2, 17543, Note_on_c, 0, 75, 0
2, 17544, Note_on_c, 0, 77, 80
2, 17567, Note_on_c, 0, 77, 0
2, 17568, Note_on_c, 0, 75, 80
2, 17591, Note_on_c, 0, 75, 0
2, 17592, Note_on_c, 0, 73, 80
2, 17615, Note_on_c, 0, 73, 0
2, 17616, Note_on_c, 0, 72, 80
2, 17639, Note_on_c, 0, 72, 0
2, 17640, Note_on_c, 0, 73, 80
2, 17663, Note_on_c, 0, 73, 0
2, 17688, Note_on_c, 0, 79, 80
2, 17711, Note_on_c, 0, 79, 0
2, 17712, Note_on_c, 0, 80, 80
2, 17735, Note_on_c, 0, 80, 0
2, 17736, Note_on_c, 0, 82, 80
2, 17759, Note_on_c, 0, 82, 0
2, 17760, Note_on_c, 0, 80, 80
2, 17783, Note_on_c, 0, 80, 0
2, 17784, Note_on_c, 0, 79, 80
2, 17807, Note_on_c, 0, 79, 0
2, 17808, Note_on_c, 0, 77, 80
2, 17831, Note_on_c, 0, 77, 0
2, 17832, Note_on_c, 0, 76, 80
2, 17855, Note_on_c, 0, 76, 0
2, 17880, Note_on_c, 0, 82, 80
2, 17903, Note_on_c, 0, 82, 0
2, 17904, Note_on_c, 0, 84, 80
2, 17927, Note_on_c, 0, 84, 0
2, 17928, Note_on_c, 0, 85, 80
2, 17951, Note_on_c, 0, 85, 0
2, 17952, Note_on_c, 0, 84, 80
2, 17975, Note_on_c, 0, 84, 0
2, 17976, Note_on_c, 0, 82, 80
2, 17999, Note_on_c, 0, 82, 0
2, 18000, Note_on_c, 0, 80, 80
2, 18023, Note_on_c, 0, 80, 0
2, 18024, Note_on_c, 0, 79, 80
2, 18047, Note_on_c, 0, 79, 0
2, 18048, Note_on_c, 0, 80, 80
2, 18137, Note_on_c, 0, 80, 0
2, 18240, Note_on_c, 0, 85, 80
2, 18240, Note_on_c, 0, 77, 80
2, 18329, Note_on_c, 0, 85, 0
2, 18329, Note_on_c, 0, 77, 0
2, 18432, Note_on_c, 0, 85, 80
2, 18432, Note_on_c, 0, 75, 80
2, 18521, Note_on_c, 0, 85, 0
2, 18521, Note_on_c, 0, 75, 0
2, 18624, Note_on_c, 0, 84, 80
2, 18624, Note_on_c, 0, 75, 80
2, 18713, Note_on_c, 0, 84, 0
2, 18713, Note_on_c, 0, 75, 0
2, 18816, Note_on_c, 0, 84, 80
2, 18816, Note_on_c, 0, 73, 80
2, 18905, Note_on_c, 0, 84, 0
2, 18905, Note_on_c, 0, 73, 0
2, 19008, Note_on_c, 0, 82, 80
2, 19008, Note_on_c, 0, 73, 80
2, 19097, Note_on_c, 0, 82, 0
2, 19097, Note_on_c, 0, 73, 0
2, 19200, Note_on_c, 0, 82, 80
2, 19200, Note_on_c, 0, 72, 80
2, 19289, Note_on_c, 0, 82, 0
2, 19289, Note_on_c, 0, 72, 0
2, 19416, Note_on_c, 0, 77, 75
2, 19439, Note_on_c, 0, 77, 0
2, 19440, Note_on_c, 0, 79, 75
2, 19463, Note_on_c, 0, 79, 0
2, 19464, Note_on_c, 0, 80, 75
2, 19487, Note_on_c, 0, 80, 0
2, 19488, Note_on_c, 0, 79, 75
2, 19511, Note_on_c, 0, 79, 0
2, 19512, Note_on_c, 0, 77, 75
2, 19535, Note_on_c, 0, 77, 0
2, 19536, Note_on_c, 0, 76, 75
2, 19559, Note_on_c, 0, 76, 0
2, 19560, Note_on_c, 0, 77, 75
2, 19583, Note_on_c, 0, 77, 0
2, 19608, Note_on_c, 0, 77, 75
2, 19631, Note_on_c, 0, 77, 0
2, 19632, Note_on_c, 0, 79, 75
2, 19655, Note_on_c, 0, 79, 0
2, 19656, Note_on_c, 0, 80, 75
2, 19679, Note_on_c, 0, 80, 0
2, 19680, Note_on_c, 0, 79, 75
2, 19703, Note_on_c, 0, 79, 0
2, 19704, Note_on_c, 0, 77, 75
2, 19727, Note_on_c, 0, 77, 0
2, 19728, Note_on_c, 0, 76, 75
2, 19751, Note_on_c, 0, 76, 0
2, 19752, Note_on_c, 0, 77, 75
2, 19775, Note_on_c, 0, 77, 0
2, 19800, Note_on_c, 0, 77, 76
2, 19823, Note_on_c, 0, 77, 0
2, 19824, Note_on_c, 0, 79, 76
2, 19847, Note_on_c, 0, 79, 0
2, 19848, Note_on_c, 0, 80, 76
2, 19871, Note_on_c, 0, 80, 0
2, 19872, Note_on_c, 0, 79, 76
2, 19895, Note_on_c, 0, 79, 0
2, 19896, Note_on_c, 0, 77, 76
2, 19919, Note_on_c, 0, 77, 0
2, 19920, Note_on_c, 0, 76, 77
2, 19943, Note_on_c, 0, 76, 0
2, 19944, Note_on_c, 0, 77, 77
2, 19967, Note_on_c, 0, 77, 0
2, 19992, Note_on_c, 0, 77, 77
2, 20015, Note_on_c, 0, 77, 0
2, 20016, Note_on_c, 0, 79, 77
2, 20039, Note_on_c, 0, 79, 0
2, 20040, Note_on_c, 0, 80, 78
2, 20063, Note_on_c, 0, 80, 0
2, 20064, Note_on_c, 0, 79, 78
2, 20087, Note_on_c, 0, 79, 0
2, 20088, Note_on_c, 0, 77, 78
2, 20111, Note_on_c, 0, 77, 0
2, 20112, Note_on_c, 0, 76, 78
2, 20135, Note_on_c, 0, 76, 0
2, 20136, Note_on_c, 0, 77, 78
2, 20159, Note_on_c, 0, 77, 0
2, 20160, Note_on_c, 0, 76, 79
2, 20249, Note_on_c, 0, 76, 0
2, 20256, Note_on_c, 0, 84, 80
2, 20279, Note_on_c, 0, 84, 0
2, 20280, Note_on_c, 0, 72, 80
2, 20303, Note_on_c, 0, 72, 0
2, 20304, Note_on_c, 0, 84, 80
2, 20327, Note_on_c, 0, 84, 0
2, 20328, Note_on_c, 0, 72, 80
2, 20351, Note_on_c, 0, 72, 0
2, 20352, Note_on_c, 0, 84, 80
2, 20375, Note_on_c, 0, 84, 0
2, 20376, Note_on_c, 0, 73, 80
2, 20399, Note_on_c, 0, 73, 0
2, 20400, Note_on_c, 0, 84, 80
2, 20423, Note_on_c, 0, 84, 0
2, 20424, Note_on_c, 0, 73, 80
2, 20447, Note_on_c, 0, 73, 0
2, 20448, Note_on_c, 0, 82, 80
2, 20471, Note_on_c, 0, 82, 0
2, 20472, Note_on_c, 0, 73, 80
2, 20495, Note_on_c, 0, 73, 0
2, 20496, Note_on_c, 0, 82, 80
2, 20519, Note_on_c, 0, 82, 0
2, 20520, Note_on_c, 0, 73, 80
2, 20543, Note_on_c, 0, 73, 0
2, 20544, Note_on_c, 0, 82, 80
2, 20567, Note_on_c, 0, 82, 0
2, 20568, Note_on_c, 0, 72, 80
2, 20591, Note_on_c, 0, 72, 0
2, 20592, Note_on_c, 0, 82, 80
2, 20615, Note_on_c, 0, 82, 0
2, 20616, Note_on_c, 0, 72, 80
2, 20639, Note_on_c, 0, 72, 0
2, 20640, Note_on_c, 0, 80, 80
2, 20663, Note_on_c, 0, 80, 0
2, 20664, Note_on_c, 0, 77, 80
2, 20687, Note_on_c, 0, 77, 0
2, 20688, Note_on_c, 0, 80, 80
2, 20711, Note_on_c, 0, 80, 0
2, 20712, Note_on_c, 0, 77, 80
2, 20735, Note_on_c, 0, 77, 0
2, 20736, Note_on_c, 0, 79, 80
2, 20759, Note_on_c, 0, 79, 0
2, 20760, Note_on_c, 0, 77, 80
2, 20783, Note_on_c, 0, 77, 0
2, 20784, Note_on_c, 0, 79, 80
2, 20807, Note_on_c, 0, 79, 0
2, 20808, Note_on_c, 0, 77, 80
2, 20831, Note_on_c, 0, 77, 0
2, 20832, Note_on_c, 0, 79, 80
2, 20855, Note_on_c, 0, 79, 0
2, 20856, Note_on_c, 0, 76, 80
2, 20879, Note_on_c, 0, 76, 0
2, 20880, Note_on_c, 0, 79, 80
2, 20903, Note_on_c, 0, 79, 0
2, 20904, Note_on_c, 0, 76, 80
2, 20927, Note_on_c, 0, 76, 0
2, 20928, Note_on_c, 0, 77, 80
2, 21017, Note_on_c, 0, 77, 0
2, 21024, Note_on_c, 0, 72, 80
2, 21047, Note_on_c, 0, 72, 0
2, 21048, Note_on_c, 0, 84, 80
2, 21071, Note_on_c, 0, 84, 0
2, 21072, Note_on_c, 0, 72, 80
2, 21095, Note_on_c, 0, 72, 0
2, 21096, Note_on_c, 0, 84, 80
2, 21119, Note_on_c, 0, 84, 0
2, 21120, Note_on_c, 0, 73, 80
2, 21143, Note_on_c, 0, 73, 0
2, 21144, Note_on_c, 0, 84, 80
2, 21167, Note_on_c, 0, 84, 0
2, 21168, Note_on_c, 0, 73, 80
2, 21191, Note_on_c, 0, 73, 0
2, 21192, Note_on_c, 0, 84, 80
2, 21215, Note_on_c, 0, 84, 0
2, 21216, Note_on_c, 0, 73, 80
2, 21239, Note_on_c, 0, 73, 0
2, 21240, Note_on_c, 0, 82, 80
2, 21263, Note_on_c, 0, 82, 0
2, 21264, Note_on_c, 0, 73, 80
2, 21287, Note_on_c, 0, 73, 0
2, 21288, Note_on_c, 0, 82, 80
2, 21311, Note_on_c, 0, 82, 0
2, 21312, Note_on_c, 0, 72, 80
2, 21335, Note_on_c, 0, 72, 0
2, 21336, Note_on_c, 0, 82, 80
2, 21359, Note_on_c, 0, 82, 0
2, 21360, Note_on_c, 0, 72, 80
2, 21383, Note_on_c, 0, 72, 0
2, 21384, Note_on_c, 0, 82, 80
2, 21407, Note_on_c, 0, 82, 0
2, 21408, Note_on_c, 0, 72, 80
2, 21431, Note_on_c, 0, 72, 0
2, 21432, Note_on_c, 0, 80, 80
2, 21455, Note_on_c, 0, 80, 0
2, 21456, Note_on_c, 0, 72, 80
2, 21479, Note_on_c, 0, 72, 0
2, 21480, Note_on_c, 0, 80, 80
2, 21503, Note_on_c, 0, 80, 0
2, 21504, Note_on_c, 0, 70, 80
2, 21527, Note_on_c, 0, 70, 0
2, 21528, Note_on_c, 0, 80, 80
2, 21551, Note_on_c, 0, 80, 0
2, 21552, Note_on_c, 0, 70, 80
2, 21575, Note_on_c, 0, 70, 0
2, 21576, Note_on_c, 0, 80, 80
2, 21599, Note_on_c, 0, 80, 0
2, 21600, Note_on_c, 0, 70, 80
2, 21623, Note_on_c, 0, 70, 0
2, 21624, Note_on_c, 0, 79, 80
2, 21647, Note_on_c, 0, 79, 0
2, 21648, Note_on_c, 0, 70, 80
2, 21671, Note_on_c, 0, 70, 0
2, 21672, Note_on_c, 0, 79, 80
2, 21695, Note_on_c, 0, 79, 0
2, 21696, Note_on_c, 0, 68, 80
2, 21719, Note_on_c, 0, 68, 0
2, 21720, Note_on_c, 0, 79, 80
2, 21743, Note_on_c, 0, 79, 0
2, 21744, Note_on_c, 0, 68, 80
2, 21767, Note_on_c, 0, 68, 0
2, 21768, Note_on_c, 0, 79, 80
2, 21791, Note_on_c, 0, 79, 0
2, 21792, Note_on_c, 0, 68, 80
2, 21815, Note_on_c, 0, 68, 0
2, 21816, Note_on_c, 0, 77, 80
2, 21839, Note_on_c, 0, 77, 0
2, 21840, Note_on_c, 0, 68, 80
2, 21863, Note_on_c, 0, 68, 0
2, 21864, Note_on_c, 0, 77, 80
2, 21887, Note_on_c, 0, 77, 0
2, 21888, Note_on_c, 0, 67, 80
2, 21911, Note_on_c, 0, 67, 0
2, 21912, Note_on_c, 0, 77, 80
2, 21935, Note_on_c, 0, 77, 0
2, 21936, Note_on_c, 0, 67, 80
2, 21959, Note_on_c, 0, 67, 0
2, 21960, Note_on_c, 0, 77, 80
2, 21983, Note_on_c, 0, 77, 0
2, 21984, Note_on_c, 0, 67, 80
2, 22007, Note_on_c, 0, 67, 0
2, 22008, Note_on_c, 0, 75, 80
2, 22031, Note_on_c, 0, 75, 0
2, 22032, Note_on_c, 0, 67, 80
2, 22055, Note_on_c, 0, 67, 0
2, 22056, Note_on_c, 0, 75, 80
2, 22079, Note_on_c, 0, 75, 0
2, 22080, Note_on_c, 0, 66, 80
2, 22103, Note_on_c, 0, 66, 0
2, 22104, Note_on_c, 0, 75, 80
2, 22127, Note_on_c, 0, 75, 0
2, 22128, Note_on_c, 0, 66, 80
2, 22151, Note_on_c, 0, 66, 0
2, 22152, Note_on_c, 0, 75, 80
2, 22175, Note_on_c, 0, 75, 0
2, 22176, Note_on_c, 0, 65, 80
2, 22199, Note_on_c, 0, 65, 0
2, 22200, Note_on_c, 0, 74, 80
2, 22223, Note_on_c, 0, 74, 0
2, 22224, Note_on_c, 0, 65, 80
2, 22247, Note_on_c, 0, 65, 0
2, 22248, Note_on_c, 0, 74, 80
2, 22271, Note_on_c, 0, 74, 0
2, 22272, Note_on_c, 0, 64, 80
2, 22295, Note_on_c, 0, 64, 0
2, 22296, Note_on_c, 0, 73, 80
2, 22319, Note_on_c, 0, 73, 0
2, 22320, Note_on_c, 0, 64, 80
2, 22343, Note_on_c, 0, 64, 0
2, 22344, Note_on_c, 0, 73, 80
2, 22367, Note_on_c, 0, 73, 0
2, 22368, Note_on_c, 0, 65, 80
2, 22391, Note_on_c, 0, 65, 0
2, 22392, Note_on_c, 0, 72, 80
2, 22415, Note_on_c, 0, 72, 0
2, 22416, Note_on_c, 0, 65, 80
2, 22439, Note_on_c, 0, 65, 0
2, 22440, Note_on_c, 0, 72, 80
2, 22463, Note_on_c, 0, 72, 0
2, 22464, Note_on_c, 0, 62, 80
2, 22487, Note_on_c, 0, 62, 0
2, 22488, Note_on_c, 0, 71, 80
2, 22511, Note_on_c, 0, 71, 0
2, 22512, Note_on_c, 0, 62, 80
2, 22535, Note_on_c, 0, 62, 0
2, 22536, Note_on_c, 0, 71, 80
2, 22559, Note_on_c, 0, 71, 0
2, 22560, Note_on_c, 0, 63, 80
2, 22583, Note_on_c, 0, 63, 0
2, 22584, Note_on_c, 0, 70, 80
2, 22607, Note_on_c, 0, 70, 0
2, 22608, Note_on_c, 0, 63, 80
2, 22631, Note_on_c, 0, 63, 0
2, 22632, Note_on_c, 0, 70, 80
2, 22655, Note_on_c, 0, 70, 0
2, 22656, Note_on_c, 0, 63, 80
2, 22679, Note_on_c, 0, 63, 0
2, 22680, Note_on_c, 0, 69, 80
2, 22703, Note_on_c, 0, 69, 0
2, 22704, Note_on_c, 0, 63, 80
2, 22727, Note_on_c, 0, 63, 0
2, 22728, Note_on_c, 0, 69, 80
2, 22751, Note_on_c, 0, 69, 0
2, 22752, Note_on_c, 0, 61, 80
2, 22775, Note_on_c, 0, 61, 0
2, 22776, Note_on_c, 0, 70, 80
2, 22799, Note_on_c, 0, 70, 0
2, 22800, Note_on_c, 0, 61, 80
2, 22823, Note_on_c, 0, 61, 0
2, 22824, Note_on_c, 0, 70, 80
2, 22847, Note_on_c, 0, 70, 0
2, 22848, Note_on_c, 0, 61, 80
2, 22871, Note_on_c, 0, 61, 0
2, 22872, Note_on_c, 0, 67, 80
2, 22895, Note_on_c, 0, 67, 0
2, 22896, Note_on_c, 0, 61, 80
2, 22919, Note_on_c, 0, 61, 0
2, 22920, Note_on_c, 0, 67, 80
2, 22943, Note_on_c, 0, 67, 0
2, 22944, Note_on_c, 0, 60, 80
2, 22967, Note_on_c, 0, 60, 0
2, 22968, Note_on_c, 0, 68, 80
2, 22991, Note_on_c, 0, 68, 0
2, 22992, Note_on_c, 0, 60, 80
2, 23015, Note_on_c, 0, 60, 0
2, 23016, Note_on_c, 0, 68, 80
2, 23039, Note_on_c, 0, 68, 0
2, 23040, Note_on_c, 0, 61, 80
2, 23063, Note_on_c, 0, 61, 0
2, 23064, Note_on_c, 0, 70, 80
2, 23087, Note_on_c, 0, 70, 0
2, 23088, Note_on_c, 0, 61, 80
2, 23111, Note_on_c, 0, 61, 0
2, 23112, Note_on_c, 0, 70, 80
2, 23135, Note_on_c, 0, 70, 0
2, 23136, Note_on_c, 0, 60, 80
2, 23159, Note_on_c, 0, 60, 0
2, 23160, Note_on_c, 0, 68, 80
2, 23183, Note_on_c, 0, 68, 0
2, 23184, Note_on_c, 0, 60, 80
2, 23207, Note_on_c, 0, 60, 0
2, 23208, Note_on_c, 0, 68, 80
2, 23231, Note_on_c, 0, 68, 0
2, 23232, Note_on_c, 0, 61, 80
2, 23255, Note_on_c, 0, 61, 0
2, 23256, Note_on_c, 0, 67, 80
2, 23279, Note_on_c, 0, 67, 0
2, 23280, Note_on_c, 0, 61, 80
2, 23303, Note_on_c, 0, 61, 0
2, 23304, Note_on_c, 0, 67, 80
2, 23327, Note_on_c, 0, 67, 0
2, 23328, Note_on_c, 0, 60, 80
2, 23351, Note_on_c, 0, 60, 0
2, 23352, Note_on_c, 0, 68, 80
2, 23375, Note_on_c, 0, 68, 0
2, 23376, Note_on_c, 0, 60, 80
2, 23399, Note_on_c, 0, 60, 0
2, 23400, Note_on_c, 0, 68, 80
2, 23423, Note_on_c, 0, 68, 0
2, 23424, Note_on_c, 0, 62, 87
2, 23447, Note_on_c, 0, 62, 0
2, 23448, Note_on_c, 0, 68, 87
2, 23471, Note_on_c, 0, 68, 0
2, 23472, Note_on_c, 0, 62, 87
2, 23495, Note_on_c, 0, 62, 0
2, 23496, Note_on_c, 0, 68, 87
2, 23519, Note_on_c, 0, 68, 0
2, 23520, Note_on_c, 0, 62, 87
2, 23543, Note_on_c, 0, 62, 0
2, 23544, Note_on_c, 0, 68, 87
2, 23567, Note_on_c, 0, 68, 0
2, 23568, Note_on_c, 0, 62, 87
2, 23591, Note_on_c, 0, 62, 0
2, 23592, Note_on_c, 0, 68, 87
2, 23615, Note_on_c, 0, 68, 0
2, 23616, Note_on_c, 0, 67, 87
2, 23616, Note_on_c, 0, 63, 87
2, 23705, Note_on_c, 0, 67, 0
2, 23705, Note_on_c, 0, 63, 0
2, 23760, Note_on_c, 0, 75, 75
2, 23805, Note_on_c, 0, 75, 0
2, 23808, Note_on_c, 0, 75, 75
2, 23831, Note_on_c, 0, 75, 0
2, 23832, Note_on_c, 0, 73, 75
2, 23855, Note_on_c, 0, 73, 0
2, 23856, Note_on_c, 0, 77, 75
2, 23879, Note_on_c, 0, 77, 0
2, 23880, Note_on_c, 0, 75, 75
2, 23903, Note_on_c, 0, 75, 0
2, 23904, Note_on_c, 0, 73, 75
2, 23927, Note_on_c, 0, 73, 0
2, 23928, Note_on_c, 0, 72, 75
2, 23951, Note_on_c, 0, 72, 0
2, 23952, Note_on_c, 0, 70, 75
2, 23975, Note_on_c, 0, 70, 0
2, 23976, Note_on_c, 0, 68, 75
2, 23999, Note_on_c, 0, 68, 0
2, 24000, Note_on_c, 0, 68, 75
2, 24048, Note_on_c, 0, 68, 0
2, 24048, Note_on_c, 0, 67, 75
2, 24093, Note_on_c, 0, 67, 0
2, 24096, Note_on_c, 0, 68, 75
2, 24141, Note_on_c, 0, 68, 0
2, 24144, Note_on_c, 0, 65, 66
2, 24189, Note_on_c, 0, 65, 0
2, 24192, Note_on_c, 0, 65, 66
2, 24215, Note_on_c, 0, 65, 0
2, 24216, Note_on_c, 0, 63, 66
2, 24239, Note_on_c, 0, 63, 0
2, 24240, Note_on_c, 0, 68, 66
2, 24263, Note_on_c, 0, 68, 0
2, 24264, Note_on_c, 0, 63, 66
2, 24287, Note_on_c, 0, 63, 0
2, 24288, Note_on_c, 0, 63, 66
2, 24311, Note_on_c, 0, 63, 0
2, 24312, Note_on_c, 0, 61, 66
2, 24335, Note_on_c, 0, 61, 0
2, 24336, Note_on_c, 0, 70, 66
2, 24359, Note_on_c, 0, 70, 0
2, 24360, Note_on_c, 0, 61, 66
2, 24383, Note_on_c, 0, 61, 0
2, 24384, Note_on_c, 0, 61, 66
2, 24480, Note_on_c, 0, 61, 0
2, 24480, Note_on_c, 0, 60, 66
2, 24525, Note_on_c, 0, 60, 0
2, 24528, Note_on_c, 0, 75, 75
2, 24573, Note_on_c, 0, 75, 0
2, 24576, Note_on_c, 0, 72, 75
2, 24599, Note_on_c, 0, 72, 0
2, 24600, Note_on_c, 0, 73, 75
2, 24623, Note_on_c, 0, 73, 0
2, 24624, Note_on_c, 0, 77, 75
2, 24647, Note_on_c, 0, 77, 0
2, 24648, Note_on_c, 0, 75, 75
2, 24671, Note_on_c, 0, 75, 0
2, 24672, Note_on_c, 0, 73, 75
2, 24695, Note_on_c, 0, 73, 0
2, 24696, Note_on_c, 0, 72, 75
2, 24719, Note_on_c, 0, 72, 0
2, 24720, Note_on_c, 0, 70, 75
2, 24743, Note_on_c, 0, 70, 0
2, 24744, Note_on_c, 0, 68, 75
2, 24767, Note_on_c, 0, 68, 0
2, 24768, Note_on_c, 0, 68, 75
2, 24816, Note_on_c, 0, 68, 0
2, 24816, Note_on_c, 0, 67, 75
2, 24861, Note_on_c, 0, 67, 0
2, 24864, Note_on_c, 0, 68, 75
2, 24909, Note_on_c, 0, 68, 0
2, 24912, Note_on_c, 0, 77, 66
2, 24957, Note_on_c, 0, 77, 0
2, 24960, Note_on_c, 0, 75, 66
2, 24983, Note_on_c, 0, 75, 0
2, 24984, Note_on_c, 0, 84, 66
2, 25007, Note_on_c, 0, 84, 0
2, 25008, Note_on_c, 0, 82, 66
2, 25031, Note_on_c, 0, 82, 0
2, 25032, Note_on_c, 0, 80, 66
2, 25055, Note_on_c, 0, 80, 0
2, 25056, Note_on_c, 0, 79, 66
2, 25079, Note_on_c, 0, 79, 0
2, 25080, Note_on_c, 0, 77, 66
2, 25103, Note_on_c, 0, 77, 0
2, 25104, Note_on_c, 0, 75, 66
2, 25127, Note_on_c, 0, 75, 0
2, 25128, Note_on_c, 0, 77, 66
2, 25151, Note_on_c, 0, 77, 0
2, 25152, Note_on_c, 0, 75, 66
2, 25200, Note_on_c, 0, 75, 0
2, 25200, Note_on_c, 0, 73, 66
2, 25245, Note_on_c, 0, 73, 0
2, 25248, Note_on_c, 0, 72, 66
2, 25293, Note_on_c, 0, 72, 0
2, 25344, Note_on_c, 0, 68, 80
2, 25521, Note_on_c, 0, 68, 0
2, 25536, Note_on_c, 0, 63, 80
2, 25554, Note_on_c, 0, 63, 0
2, 25554, Note_on_c, 0, 73, 80
2, 25713, Note_on_c, 0, 73, 0
2, 25752, Note_on_c, 0, 68, 80
2, 25775, Note_on_c, 0, 68, 0
2, 25776, Note_on_c, 0, 70, 80
2, 25799, Note_on_c, 0, 70, 0
2, 25800, Note_on_c, 0, 72, 80
2, 25823, Note_on_c, 0, 72, 0
2, 25824, Note_on_c, 0, 70, 80
2, 25847, Note_on_c, 0, 70, 0
2, 25848, Note_on_c, 0, 68, 80
2, 25871, Note_on_c, 0, 68, 0
2, 25872, Note_on_c, 0, 67, 80
2, 25895, Note_on_c, 0, 67, 0
2, 25896, Note_on_c, 0, 68, 80
2, 25919, Note_on_c, 0, 68, 0
2, 25944, Note_on_c, 0, 67, 80
2, 25967, Note_on_c, 0, 67, 0
2, 25968, Note_on_c, 0, 68, 80
2, 25991, Note_on_c, 0, 68, 0
2, 25992, Note_on_c, 0, 70, 80
2, 26015, Note_on_c, 0, 70, 0
2, 26016, Note_on_c, 0, 68, 80
2, 26039, Note_on_c, 0, 68, 0
2, 26040, Note_on_c, 0, 67, 80
2, 26063, Note_on_c, 0, 67, 0
2, 26064, Note_on_c, 0, 65, 80
2, 26087, Note_on_c, 0, 65, 0
2, 26088, Note_on_c, 0, 63, 80
2, 26111, Note_on_c, 0, 63, 0
2, 26136, Note_on_c, 0, 68, 80
2, 26159, Note_on_c, 0, 68, 0
2, 26160, Note_on_c, 0, 70, 80
2, 26183, Note_on_c, 0, 70, 0
2, 26184, Note_on_c, 0, 72, 80
2, 26207, Note_on_c, 0, 72, 0
2, 26208, Note_on_c, 0, 70, 80
2, 26231, Note_on_c, 0, 70, 0
2, 26232, Note_on_c, 0, 68, 80
2, 26255, Note_on_c, 0, 68, 0
2, 26256, Note_on_c, 0, 67, 80
2, 26279, Note_on_c, 0, 67, 0
2, 26280, Note_on_c, 0, 68, 80
2, 26303, Note_on_c, 0, 68, 0
2, 26328, Note_on_c, 0, 77, 80
2, 26351, Note_on_c, 0, 77, 0
2, 26352, Note_on_c, 0, 75, 80
2, 26375, Note_on_c, 0, 75, 0
2, 26376, Note_on_c, 0, 73, 80
2, 26399, Note_on_c, 0, 73, 0
2, 26400, Note_on_c, 0, 72, 80
2, 26423, Note_on_c, 0, 72, 0
2, 26424, Note_on_c, 0, 70, 80
2, 26447, Note_on_c, 0, 70, 0
2, 26448, Note_on_c, 0, 68, 80
2, 26471, Note_on_c, 0, 68, 0
2, 26472, Note_on_c, 0, 66, 80
2, 26495, Note_on_c, 0, 66, 0
2, 26520, Note_on_c, 0, 65, 80
2, 26543, Note_on_c, 0, 65, 0
2, 26544, Note_on_c, 0, 66, 80
2, 26567, Note_on_c, 0, 66, 0
2, 26568, Note_on_c, 0, 68, 80
2, 26591, Note_on_c, 0, 68, 0
2, 26592, Note_on_c, 0, 66, 80
2, 26615, Note_on_c, 0, 66, 0
2, 26616, Note_on_c, 0, 65, 80
2, 26639, Note_on_c, 0, 65, 0
2, 26640, Note_on_c, 0, 63, 80
2, 26663, Note_on_c, 0, 63, 0
2, 26664, Note_on_c, 0, 61, 80
2, 26687, Note_on_c, 0, 61, 0
2, 26712, Note_on_c, 0, 79, 80
2, 26735, Note_on_c, 0, 79, 0
2, 26736, Note_on_c, 0, 77, 80
2, 26759, Note_on_c, 0, 77, 0
2, 26760, Note_on_c, 0, 75, 80
2, 26783, Note_on_c, 0, 75, 0
2, 26784, Note_on_c, 0, 74, 80
2, 26807, Note_on_c, 0, 74, 0
2, 26808, Note_on_c, 0, 72, 80
2, 26831, Note_on_c, 0, 72, 0
2, 26832, Note_on_c, 0, 70, 80
2, 26855, Note_on_c, 0, 70, 0
2, 26856, Note_on_c, 0, 68, 80
2, 26879, Note_on_c, 0, 68, 0
2, 26904, Note_on_c, 0, 67, 80
2, 26927, Note_on_c, 0, 67, 0
2, 26928, Note_on_c, 0, 68, 80
2, 26951, Note_on_c, 0, 68, 0
2, 26952, Note_on_c, 0, 70, 80
2, 26975, Note_on_c, 0, 70, 0
2, 26976, Note_on_c, 0, 68, 80
2, 26999, Note_on_c, 0, 68, 0
2, 27000, Note_on_c, 0, 67, 80
2, 27023, Note_on_c, 0, 67, 0
2, 27024, Note_on_c, 0, 65, 80
2, 27047, Note_on_c, 0, 65, 0
2, 27048, Note_on_c, 0, 63, 80
2, 27071, Note_on_c, 0, 63, 0
2, 27096, Note_on_c, 0, 72, 80
2, 27119, Note_on_c, 0, 72, 0
2, 27120, Note_on_c, 0, 70, 80
2, 27143, Note_on_c, 0, 70, 0
2, 27144, Note_on_c, 0, 68, 80
2, 27167, Note_on_c, 0, 68, 0
2, 27168, Note_on_c, 0, 67, 80
2, 27191, Note_on_c, 0, 67, 0
2, 27192, Note_on_c, 0, 65, 80
2, 27215, Note_on_c, 0, 65, 0
2, 27216, Note_on_c, 0, 63, 80
2, 27239, Note_on_c, 0, 63, 0
2, 27240, Note_on_c, 0, 61, 80
2, 27263, Note_on_c, 0, 61, 0
2, 27288, Note_on_c, 0, 60, 80
2, 27311, Note_on_c, 0, 60, 0
2, 27312, Note_on_c, 0, 61, 80
2, 27335, Note_on_c, 0, 61, 0
2, 27336, Note_on_c, 0, 63, 80
2, 27359, Note_on_c, 0, 63, 0
2, 27360, Note_on_c, 0, 61, 80
2, 27383, Note_on_c, 0, 61, 0
2, 27384, Note_on_c, 0, 60, 80
2, 27407, Note_on_c, 0, 60, 0
2, 27408, Note_on_c, 0, 58, 80
2, 27431, Note_on_c, 0, 58, 0
2, 27432, Note_on_c, 0, 56, 80
2, 27455, Note_on_c, 0, 56, 0
2, 27456, Note_on_c, 0, 65, 80
2, 27479, Note_on_c, 0, 65, 0
2, 27480, Note_on_c, 0, 63, 80
2, 27503, Note_on_c, 0, 63, 0
2, 27504, Note_on_c, 0, 61, 80
2, 27527, Note_on_c, 0, 61, 0
2, 27528, Note_on_c, 0, 60, 80
2, 27551, Note_on_c, 0, 60, 0
2, 27552, Note_on_c, 0, 58, 80
2, 27575, Note_on_c, 0, 58, 0
2, 27576, Note_on_c, 0, 56, 80
2, 27599, Note_on_c, 0, 56, 0
2, 27600, Note_on_c, 0, 55, 80
2, 27623, Note_on_c, 0, 55, 0
2, 27624, Note_on_c, 0, 53, 80
2, 27647, Note_on_c, 0, 53, 0
2, 27648, Note_on_c, 0, 51, 80
2, 27737, Note_on_c, 0, 51, 0
2, 27744, Note_on_c, 0, 63, 80
2, 27767, Note_on_c, 0, 63, 0
2, 27768, Note_on_c, 0, 65, 80
2, 27791, Note_on_c, 0, 65, 0
2, 27792, Note_on_c, 0, 63, 80
2, 27815, Note_on_c, 0, 63, 0
2, 27816, Note_on_c, 0, 60, 80
2, 27839, Note_on_c, 0, 60, 0
2, 27840, Note_on_c, 0, 61, 80
2, 27863, Note_on_c, 0, 61, 0
2, 27864, Note_on_c, 0, 63, 80
2, 27887, Note_on_c, 0, 63, 0
2, 27888, Note_on_c, 0, 61, 80
2, 27911, Note_on_c, 0, 61, 0
2, 27912, Note_on_c, 0, 58, 80
2, 27935, Note_on_c, 0, 58, 0
2, 27936, Note_on_c, 0, 60, 80
2, 27959, Note_on_c, 0, 60, 0
2, 27960, Note_on_c, 0, 61, 80
2, 27983, Note_on_c, 0, 61, 0
2, 27984, Note_on_c, 0, 60, 80
2, 28007, Note_on_c, 0, 60, 0
2, 28008, Note_on_c, 0, 56, 80
2, 28031, Note_on_c, 0, 56, 0
2, 28032, Note_on_c, 0, 58, 80
2, 28077, Note_on_c, 0, 58, 0
2, 28128, Note_on_c, 0, 75, 66
2, 28151, Note_on_c, 0, 75, 0
2, 28152, Note_on_c, 0, 77, 66
2, 28175, Note_on_c, 0, 77, 0
2, 28176, Note_on_c, 0, 75, 66
2, 28199, Note_on_c, 0, 75, 0
2, 28200, Note_on_c, 0, 77, 66
2, 28223, Note_on_c, 0, 77, 0
2, 28224, Note_on_c, 0, 73, 66
2, 28247, Note_on_c, 0, 73, 0
2, 28248, Note_on_c, 0, 75, 66
2, 28271, Note_on_c, 0, 75, 0
2, 28272, Note_on_c, 0, 73, 66
2, 28295, Note_on_c, 0, 73, 0
2, 28296, Note_on_c, 0, 75, 66
2, 28319, Note_on_c, 0, 75, 0
2, 28320, Note_on_c, 0, 72, 66
2, 28343, Note_on_c, 0, 72, 0
2, 28344, Note_on_c, 0, 73, 66
2, 28367, Note_on_c, 0, 73, 0
2, 28368, Note_on_c, 0, 72, 66
2, 28391, Note_on_c, 0, 72, 0
2, 28392, Note_on_c, 0, 73, 66
2, 28415, Note_on_c, 0, 73, 0
2, 28416, Note_on_c, 0, 70, 66
2, 28505, Note_on_c, 0, 70, 0
2, 28560, Note_on_c, 0, 63, 80
2, 28605, Note_on_c, 0, 63, 0
2, 28608, Note_on_c, 0, 68, 80
2, 28631, Note_on_c, 0, 68, 0
2, 28632, Note_on_c, 0, 67, 80
2, 28655, Note_on_c, 0, 67, 0
2, 28656, Note_on_c, 0, 68, 80
2, 28679, Note_on_c, 0, 68, 0
2, 28680, Note_on_c, 0, 70, 80
2, 28703, Note_on_c, 0, 70, 0
2, 28704, Note_on_c, 0, 72, 80
2, 28727, Note_on_c, 0, 72, 0
2, 28728, Note_on_c, 0, 68, 78
2, 28751, Note_on_c, 0, 68, 0
2, 28752, Note_on_c, 0, 73, 77
2, 28775, Note_on_c, 0, 73, 0
2, 28776, Note_on_c, 0, 70, 76
2, 28799, Note_on_c, 0, 70, 0
2, 28800, Note_on_c, 0, 72, 75
2, 28823, Note_on_c, 0, 72, 0
2, 28824, Note_on_c, 0, 68, 74
2, 28847, Note_on_c, 0, 68, 0
2, 28848, Note_on_c, 0, 73, 73
2, 28871, Note_on_c, 0, 73, 0
2, 28872, Note_on_c, 0, 70, 71
2, 28895, Note_on_c, 0, 70, 0
2, 28896, Note_on_c, 0, 72, 70
2, 28941, Note_on_c, 0, 72, 0
2, 28944, Note_on_c, 0, 63, 68
2, 28989, Note_on_c, 0, 63, 0
2, 28992, Note_on_c, 0, 68, 66
2, 29015, Note_on_c, 0, 68, 0
2, 29016, Note_on_c, 0, 67, 66
2, 29039, Note_on_c, 0, 67, 0
2, 29040, Note_on_c, 0, 68, 66
2, 29063, Note_on_c, 0, 68, 0
2, 29064, Note_on_c, 0, 70, 66
2, 29087, Note_on_c, 0, 70, 0
2, 29088, Note_on_c, 0, 72, 66
2, 29111, Note_on_c, 0, 72, 0
2, 29112, Note_on_c, 0, 68, 67
2, 29135, Note_on_c, 0, 68, 0
2, 29136, Note_on_c, 0, 73, 68
2, 29159, Note_on_c, 0, 73, 0
2, 29160, Note_on_c, 0, 70, 70
2, 29183, Note_on_c, 0, 70, 0
2, 29184, Note_on_c, 0, 72, 71
2, 29207, Note_on_c, 0, 72, 0
2, 29208, Note_on_c, 0, 68, 73
2, 29231, Note_on_c, 0, 68, 0
2, 29232, Note_on_c, 0, 73, 74
2, 29255, Note_on_c, 0, 73, 0
2, 29256, Note_on_c, 0, 70, 75
2, 29279, Note_on_c, 0, 70, 0
2, 29280, Note_on_c, 0, 72, 77
2, 29325, Note_on_c, 0, 72, 0
2, 29328, Note_on_c, 0, 72, 80
2, 29351, Note_on_c, 0, 72, 0
2, 29352, Note_on_c, 0, 73, 80
2, 29375, Note_on_c, 0, 73, 0
2, 29376, Note_on_c, 0, 75, 80
2, 29399, Note_on_c, 0, 75, 0
2, 29400, Note_on_c, 0, 73, 80
2, 29423, Note_on_c, 0, 73, 0
2, 29424, Note_on_c, 0, 72, 80
2, 29447, Note_on_c, 0, 72, 0
2, 29448, Note_on_c, 0, 70, 80
2, 29471, Note_on_c, 0, 70, 0
2, 29472, Note_on_c, 0, 68, 80
2, 29495, Note_on_c, 0, 68, 0
2, 29496, Note_on_c, 0, 67, 80
2, 29519, Note_on_c, 0, 67, 0
2, 29520, Note_on_c, 0, 65, 80
2, 29543, Note_on_c, 0, 65, 0
2, 29544, Note_on_c, 0, 63, 80
2, 29567, Note_on_c, 0, 63, 0
2, 29568, Note_on_c, 0, 65, 80
2, 29591, Note_on_c, 0, 65, 0
2, 29592, Note_on_c, 0, 67, 80
2, 29615, Note_on_c, 0, 67, 0
2, 29616, Note_on_c, 0, 68, 80
2, 29639, Note_on_c, 0, 68, 0
2, 29640, Note_on_c, 0, 70, 80
2, 29663, Note_on_c, 0, 70, 0
2, 29664, Note_on_c, 0, 72, 80
2, 29687, Note_on_c, 0, 72, 0
2, 29688, Note_on_c, 0, 73, 80
2, 29711, Note_on_c, 0, 73, 0
2, 29712, Note_on_c, 0, 75, 80
2, 29735, Note_on_c, 0, 75, 0
2, 29736, Note_on_c, 0, 77, 80
2, 29759, Note_on_c, 0, 77, 0
2, 29760, Note_on_c, 0, 75, 80
2, 29805, Note_on_c, 0, 75, 0
2, 29808, Note_on_c, 0, 68, 80
2, 29853, Note_on_c, 0, 68, 0
2, 29856, Note_on_c, 0, 72, 80
2, 29879, Note_on_c, 0, 72, 0
2, 29880, Note_on_c, 0, 70, 80
2, 29903, Note_on_c, 0, 70, 0
2, 29904, Note_on_c, 0, 68, 80
2, 29927, Note_on_c, 0, 68, 0
2, 29928, Note_on_c, 0, 67, 80
2, 29951, Note_on_c, 0, 67, 0
2, 29952, Note_on_c, 0, 68, 80
2, 30041, Note_on_c, 0, 68, 0
2, 30096, Note_on_c, 0, 72, 70
2, 30119, Note_on_c, 0, 72, 0
2, 30120, Note_on_c, 0, 73, 70
2, 30143, Note_on_c, 0, 73, 0
2, 30144, Note_on_c, 0, 75, 70
2, 30167, Note_on_c, 0, 75, 0
2, 30168, Note_on_c, 0, 73, 70
2, 30191, Note_on_c, 0, 73, 0
2, 30192, Note_on_c, 0, 72, 70
2, 30215, Note_on_c, 0, 72, 0
2, 30216, Note_on_c, 0, 70, 70
2, 30239, Note_on_c, 0, 70, 0
2, 30240, Note_on_c, 0, 68, 70
2, 30263, Note_on_c, 0, 68, 0
2, 30264, Note_on_c, 0, 67, 70
2, 30287, Note_on_c, 0, 67, 0
2, 30288, Note_on_c, 0, 65, 70
2, 30311, Note_on_c, 0, 65, 0
2, 30312, Note_on_c, 0, 63, 70
2, 30335, Note_on_c, 0, 63, 0
2, 30336, Note_on_c, 0, 65, 70
2, 30359, Note_on_c, 0, 65, 0
2, 30360, Note_on_c, 0, 67, 70
2, 30383, Note_on_c, 0, 67, 0
2, 30384, Note_on_c, 0, 68, 70
2, 30407, Note_on_c, 0, 68, 0
2, 30408, Note_on_c, 0, 70, 70
2, 30431, Note_on_c, 0, 70, 0
2, 30432, Note_on_c, 0, 72, 70
2, 30455, Note_on_c, 0, 72, 0
2, 30456, Note_on_c, 0, 73, 70
2, 30479, Note_on_c, 0, 73, 0
2, 30480, Note_on_c, 0, 75, 70
2, 30503, Note_on_c, 0, 75, 0
2, 30504, Note_on_c, 0, 77, 70
2, 30527, Note_on_c, 0, 77, 0
2, 30528, Note_on_c, 0, 79, 70
2, 30551, Note_on_c, 0, 79, 0
2, 30552, Note_on_c, 0, 77, 70
2, 30575, Note_on_c, 0, 77, 0
2, 30576, Note_on_c, 0, 75, 70
2, 30599, Note_on_c, 0, 75, 0
2, 30600, Note_on_c, 0, 73, 70
2, 30623, Note_on_c, 0, 73, 0
2, 30624, Note_on_c, 0, 72, 70
2, 30647, Note_on_c, 0, 72, 0
2, 30648, Note_on_c, 0, 70, 70
2, 30671, Note_on_c, 0, 70, 0
2, 30672, Note_on_c, 0, 68, 70
2, 30695, Note_on_c, 0, 68, 0
2, 30696, Note_on_c, 0, 67, 70
2, 30719, Note_on_c, 0, 67, 0
2, 30720, Note_on_c, 0, 68, 70
2, 30743, Note_on_c, 0, 68, 0
2, 30744, Note_on_c, 0, 70, 70
2, 30767, Note_on_c, 0, 70, 0
2, 30768, Note_on_c, 0, 72, 70
2, 30791, Note_on_c, 0, 72, 0
2, 30792, Note_on_c, 0, 73, 71
2, 30815, Note_on_c, 0, 73, 0
2, 30816, Note_on_c, 0, 75, 71
2, 30839, Note_on_c, 0, 75, 0
2, 30840, Note_on_c, 0, 77, 72
2, 30863, Note_on_c, 0, 77, 0
2, 30864, Note_on_c, 0, 79, 72
2, 30887, Note_on_c, 0, 79, 0
2, 30888, Note_on_c, 0, 80, 72
2, 30911, Note_on_c, 0, 80, 0
2, 30912, Note_on_c, 0, 82, 73
2, 30935, Note_on_c, 0, 82, 0
2, 30936, Note_on_c, 0, 80, 73
2, 30959, Note_on_c, 0, 80, 0
2, 30960, Note_on_c, 0, 79, 74
2, 30983, Note_on_c, 0, 79, 0
2, 30984, Note_on_c, 0, 77, 74
2, 31007, Note_on_c, 0, 77, 0
2, 31008, Note_on_c, 0, 75, 75
2, 31031, Note_on_c, 0, 75, 0
2, 31032, Note_on_c, 0, 73, 75
2, 31055, Note_on_c, 0, 73, 0
2, 31056, Note_on_c, 0, 72, 75
2, 31079, Note_on_c, 0, 72, 0
2, 31080, Note_on_c, 0, 70, 76
2, 31103, Note_on_c, 0, 70, 0
2, 31104, Note_on_c, 0, 72, 76
2, 31127, Note_on_c, 0, 72, 0
2, 31128, Note_on_c, 0, 73, 77
2, 31151, Note_on_c, 0, 73, 0
2, 31152, Note_on_c, 0, 75, 77
2, 31175, Note_on_c, 0, 75, 0
2, 31176, Note_on_c, 0, 77, 77
2, 31199, Note_on_c, 0, 77, 0
2, 31200, Note_on_c, 0, 79, 78
2, 31223, Note_on_c, 0, 79, 0
2, 31224, Note_on_c, 0, 80, 78
2, 31247, Note_on_c, 0, 80, 0
2, 31248, Note_on_c, 0, 82, 79
2, 31271, Note_on_c, 0, 82, 0
2, 31272, Note_on_c, 0, 84, 79
2, 31295, Note_on_c, 0, 84, 0
2, 31296, Note_on_c, 0, 82, 80
2, 31319, Note_on_c, 0, 82, 0
2, 31320, Note_on_c, 0, 80, 80
2, 31343, Note_on_c, 0, 80, 0
2, 31344, Note_on_c, 0, 79, 80
2, 31367, Note_on_c, 0, 79, 0
2, 31368, Note_on_c, 0, 77, 80
2, 31391, Note_on_c, 0, 77, 0
2, 31392, Note_on_c, 0, 75, 80
2, 31415, Note_on_c, 0, 75, 0
2, 31416, Note_on_c, 0, 73, 80
2, 31439, Note_on_c, 0, 73, 0
2, 31440, Note_on_c, 0, 72, 80
2, 31463, Note_on_c, 0, 72, 0
2, 31464, Note_on_c, 0, 70, 80
2, 31487, Note_on_c, 0, 70, 0
2, 31488, Note_on_c, 0, 72, 80
2, 31511, Note_on_c, 0, 72, 0
2, 31512, Note_on_c, 0, 73, 80
2, 31535, Note_on_c, 0, 73, 0
2, 31536, Note_on_c, 0, 75, 80
2, 31559, Note_on_c, 0, 75, 0
2, 31560, Note_on_c, 0, 73, 80
2, 31583, Note_on_c, 0, 73, 0
2, 31584, Note_on_c, 0, 72, 80
2, 31607, Note_on_c, 0, 72, 0
2, 31608, Note_on_c, 0, 70, 80
2, 31631, Note_on_c, 0, 70, 0
2, 31632, Note_on_c, 0, 68, 80
2, 31655, Note_on_c, 0, 68, 0
2, 31656, Note_on_c, 0, 67, 80
2, 31679, Note_on_c, 0, 67, 0
2, 31680, Note_on_c, 0, 65, 80
2, 31703, Note_on_c, 0, 65, 0
2, 31704, Note_on_c, 0, 67, 80
2, 31727, Note_on_c, 0, 67, 0
2, 31728, Note_on_c, 0, 68, 80
2, 31751, Note_on_c, 0, 68, 0
2, 31752, Note_on_c, 0, 70, 80
2, 31775, Note_on_c, 0, 70, 0
2, 31776, Note_on_c, 0, 72, 80
2, 31799, Note_on_c, 0, 72, 0
2, 31800, Note_on_c, 0, 73, 80
2, 31823, Note_on_c, 0, 73, 0
2, 31824, Note_on_c, 0, 75, 80
2, 31847, Note_on_c, 0, 75, 0
2, 31848, Note_on_c, 0, 77, 80
2, 31871, Note_on_c, 0, 77, 0
2, 31872, Note_on_c, 0, 75, 80
2, 31917, Note_on_c, 0, 75, 0
2, 31920, Note_on_c, 0, 68, 80
2, 31965, Note_on_c, 0, 68, 0
2, 31968, Note_on_c, 0, 72, 80
2, 31991, Note_on_c, 0, 72, 0
2, 31992, Note_on_c, 0, 70, 80
2, 32015, Note_on_c, 0, 70, 0
2, 32016, Note_on_c, 0, 68, 80
2, 32039, Note_on_c, 0, 68, 0
2, 32040, Note_on_c, 0, 67, 80
2, 32063, Note_on_c, 0, 67, 0
2, 32064, Note_on_c, 0, 68, 80
2, 32153, Note_on_c, 0, 68, 0
2, 32160, Note_on_c, 0, 63, 80
2, 32183, Note_on_c, 0, 63, 0
2, 32184, Note_on_c, 0, 72, 80
2, 32207, Note_on_c, 0, 72, 0
2, 32208, Note_on_c, 0, 63, 80
2, 32231, Note_on_c, 0, 63, 0
2, 32232, Note_on_c, 0, 72, 80
2, 32255, Note_on_c, 0, 72, 0
2, 32256, Note_on_c, 0, 62, 80
2, 32279, Note_on_c, 0, 62, 0
2, 32280, Note_on_c, 0, 72, 80
2, 32303, Note_on_c, 0, 72, 0
2, 32304, Note_on_c, 0, 62, 80
2, 32327, Note_on_c, 0, 62, 0
2, 32328, Note_on_c, 0, 72, 80
2, 32351, Note_on_c, 0, 72, 0
2, 32352, Note_on_c, 0, 61, 80
2, 32375, Note_on_c, 0, 61, 0
2, 32376, Note_on_c, 0, 70, 80
2, 32399, Note_on_c, 0, 70, 0
2, 32400, Note_on_c, 0, 61, 80
2, 32423, Note_on_c, 0, 61, 0
2, 32424, Note_on_c, 0, 70, 80
2, 32447, Note_on_c, 0, 70, 0
2, 32448, Note_on_c, 0, 60, 80
2, 32471, Note_on_c, 0, 60, 0
2, 32472, Note_on_c, 0, 70, 80
2, 32495, Note_on_c, 0, 70, 0
2, 32496, Note_on_c, 0, 60, 80
2, 32519, Note_on_c, 0, 60, 0
2, 32520, Note_on_c, 0, 70, 80
2, 32543, Note_on_c, 0, 70, 0
2, 32544, Note_on_c, 0, 60, 80
2, 32567, Note_on_c, 0, 60, 0
2, 32568, Note_on_c, 0, 68, 80
2, 32591, Note_on_c, 0, 68, 0
2, 32592, Note_on_c, 0, 60, 80
2, 32615, Note_on_c, 0, 60, 0
2, 32616, Note_on_c, 0, 68, 80
2, 32639, Note_on_c, 0, 68, 0
2, 32640, Note_on_c, 0, 58, 80
2, 32663, Note_on_c, 0, 58, 0
2, 32664, Note_on_c, 0, 68, 80
2, 32687, Note_on_c, 0, 68, 0
2, 32688, Note_on_c, 0, 58, 80
2, 32711, Note_on_c, 0, 58, 0
2, 32712, Note_on_c, 0, 68, 80
2, 32735, Note_on_c, 0, 68, 0
2, 32736, Note_on_c, 0, 58, 80
2, 32759, Note_on_c, 0, 58, 0
2, 32760, Note_on_c, 0, 67, 80
2, 32783, Note_on_c, 0, 67, 0
2, 32784, Note_on_c, 0, 58, 80
2, 32807, Note_on_c, 0, 58, 0
2, 32808, Note_on_c, 0, 67, 80
2, 32831, Note_on_c, 0, 67, 0
2, 32832, Note_on_c, 0, 68, 80
2, 32832, Note_on_c, 0, 60, 80
2, 32921, Note_on_c, 0, 68, 0
2, 32921, Note_on_c, 0, 60, 0
2, 32928, Note_on_c, 0, 75, 80
2, 32951, Note_on_c, 0, 75, 0
2, 32952, Note_on_c, 0, 72, 80
2, 32975, Note_on_c, 0, 72, 0
2, 32976, Note_on_c, 0, 75, 80
2, 32999, Note_on_c, 0, 75, 0
2, 33000, Note_on_c, 0, 72, 80
2, 33023, Note_on_c, 0, 72, 0
2, 33024, Note_on_c, 0, 74, 80
2, 33047, Note_on_c, 0, 74, 0
2, 33048, Note_on_c, 0, 72, 80
2, 33071, Note_on_c, 0, 72, 0
2, 33072, Note_on_c, 0, 74, 80
2, 33095, Note_on_c, 0, 74, 0
2, 33096, Note_on_c, 0, 72, 80
2, 33119, Note_on_c, 0, 72, 0
2, 33120, Note_on_c, 0, 73, 80
2, 33143, Note_on_c, 0, 73, 0
2, 33144, Note_on_c, 0, 70, 80
2, 33167, Note_on_c, 0, 70, 0
2, 33168, Note_on_c, 0, 73, 80
2, 33191, Note_on_c, 0, 73, 0
2, 33192, Note_on_c, 0, 70, 80
2, 33215, Note_on_c, 0, 70, 0
2, 33216, Note_on_c, 0, 72, 80
2, 33239, Note_on_c, 0, 72, 0
2, 33240, Note_on_c, 0, 70, 80
2, 33263, Note_on_c, 0, 70, 0
2, 33264, Note_on_c, 0, 72, 80
2, 33287, Note_on_c, 0, 72, 0
2, 33288, Note_on_c, 0, 70, 80
2, 33311, Note_on_c, 0, 70, 0
2, 33312, Note_on_c, 0, 72, 80
2, 33335, Note_on_c, 0, 72, 0
2, 33336, Note_on_c, 0, 68, 80
2, 33359, Note_on_c, 0, 68, 0
2, 33360, Note_on_c, 0, 72, 80
2, 33383, Note_on_c, 0, 72, 0
2, 33384, Note_on_c, 0, 68, 80
2, 33407, Note_on_c, 0, 68, 0
2, 33408, Note_on_c, 0, 70, 80
2, 33431, Note_on_c, 0, 70, 0
2, 33432, Note_on_c, 0, 68, 80
2, 33455, Note_on_c, 0, 68, 0
2, 33456, Note_on_c, 0, 70, 80
2, 33479, Note_on_c, 0, 70, 0
2, 33480, Note_on_c, 0, 68, 80
2, 33503, Note_on_c, 0, 68, 0
2, 33504, Note_on_c, 0, 70, 80
2, 33527, Note_on_c, 0, 70, 0
2, 33528, Note_on_c, 0, 67, 80
2, 33551, Note_on_c, 0, 67, 0
2, 33552, Note_on_c, 0, 70, 80
2, 33575, Note_on_c, 0, 70, 0
2, 33576, Note_on_c, 0, 67, 80
2, 33599, Note_on_c, 0, 67, 0
2, 33600, Note_on_c, 0, 68, 87
2, 33645, Note_on_c, 0, 68, 0
2, 33696, Note_on_c, 0, 66, 87
2, 33719, Note_on_c, 0, 66, 0
2, 33720, Note_on_c, 0, 75, 87
2, 33743, Note_on_c, 0, 75, 0
2, 33744, Note_on_c, 0, 66, 87
2, 33767, Note_on_c, 0, 66, 0
2, 33768, Note_on_c, 0, 75, 87
2, 33791, Note_on_c, 0, 75, 0
2, 33792, Note_on_c, 0, 73, 87
2, 33792, Note_on_c, 0, 65, 87
2, 33837, Note_on_c, 0, 73, 0
2, 33837, Note_on_c, 0, 65, 0
2, 33888, Note_on_c, 0, 61, 87
2, 33911, Note_on_c, 0, 61, 0
2, 33912, Note_on_c, 0, 67, 87
2, 33935, Note_on_c, 0, 67, 0
2, 33936, Note_on_c, 0, 61, 87
2, 33959, Note_on_c, 0, 61, 0
2, 33960, Note_on_c, 0, 67, 87
2, 33983, Note_on_c, 0, 67, 0
2, 33984, Note_on_c, 0, 68, 87
2, 33984, Note_on_c, 0, 60, 87
2, 34029, Note_on_c, 0, 68, 0
2, 34029, Note_on_c, 0, 60, 0
2, 34080, Note_on_c, 0, 66, 87
2, 34103, Note_on_c, 0, 66, 0
2, 34104, Note_on_c, 0, 75, 87
2, 34127, Note_on_c, 0, 75, 0
2, 34128, Note_on_c, 0, 66, 87
2, 34151, Note_on_c, 0, 66, 0
2, 34152, Note_on_c, 0, 75, 87
2, 34175, Note_on_c, 0, 75, 0
2, 34176, Note_on_c, 0, 73, 87
2, 34176, Note_on_c, 0, 65, 87
2, 34221, Note_on_c, 0, 73, 0
2, 34221, Note_on_c, 0, 65, 0
2, 34272, Note_on_c, 0, 61, 87
2, 34295, Note_on_c, 0, 61, 0
2, 34296, Note_on_c, 0, 67, 87
2, 34319, Note_on_c, 0, 67, 0
2, 34320, Note_on_c, 0, 61, 87
2, 34343, Note_on_c, 0, 61, 0
2, 34344, Note_on_c, 0, 67, 87
2, 34367, Note_on_c, 0, 67, 0
2, 34368, Note_on_c, 0, 68, 87
2, 34368, Note_on_c, 0, 60, 87
2, 34413, Note_on_c, 0, 68, 0
2, 34413, Note_on_c, 0, 60, 0
2, 34464, Note_on_c, 0, 72, 87
2, 34464, Note_on_c, 0, 63, 87
2, 34509, Note_on_c, 0, 72, 0
2, 34509, Note_on_c, 0, 63, 0
2, 34560, Note_on_c, 0, 68, 87
2, 34560, Note_on_c, 0, 60, 87
2, 34649, Note_on_c, 0, 68, 0
2, 34649, Note_on_c, 0, 60, 0
2, 34704, Note_on_c, 0, 70, 75
2, 34749, Note_on_c, 0, 70, 0
2, 34752, Note_on_c, 0, 70, 75
2, 34775, Note_on_c, 0, 70, 0
2, 34776, Note_on_c, 0, 68, 75
2, 34799, Note_on_c, 0, 68, 0
2, 34800, Note_on_c, 0, 72, 75
2, 34823, Note_on_c, 0, 72, 0
2, 34824, Note_on_c, 0, 70, 75
2, 34847, Note_on_c, 0, 70, 0
2, 34848, Note_on_c, 0, 68, 75
2, 34871, Note_on_c, 0, 68, 0
2, 34872, Note_on_c, 0, 67, 75
2, 34895, Note_on_c, 0, 67, 0
2, 34896, Note_on_c, 0, 65, 75
2, 34919, Note_on_c, 0, 65, 0
2, 34920, Note_on_c, 0, 63, 75
2, 34943, Note_on_c, 0, 63, 0
2, 34944, Note_on_c, 0, 63, 75
2, 34992, Note_on_c, 0, 63, 0
2, 34992, Note_on_c, 0, 62, 75
2, 35037, Note_on_c, 0, 62, 0
2, 35040, Note_on_c, 0, 63, 75
2, 35085, Note_on_c, 0, 63, 0
2, 35088, Note_on_c, 0, 72, 66
2, 35133, Note_on_c, 0, 72, 0
2, 35136, Note_on_c, 0, 70, 66
2, 35159, Note_on_c, 0, 70, 0
2, 35160, Note_on_c, 0, 79, 66
2, 35183, Note_on_c, 0, 79, 0
2, 35184, Note_on_c, 0, 77, 66
2, 35207, Note_on_c, 0, 77, 0
2, 35208, Note_on_c, 0, 75, 66
2, 35231, Note_on_c, 0, 75, 0
2, 35232, Note_on_c, 0, 74, 66
2, 35255, Note_on_c, 0, 74, 0
2, 35256, Note_on_c, 0, 72, 66
2, 35279, Note_on_c, 0, 72, 0
2, 35280, Note_on_c, 0, 70, 66
2, 35303, Note_on_c, 0, 70, 0
2, 35304, Note_on_c, 0, 72, 66
2, 35327, Note_on_c, 0, 72, 0
2, 35328, Note_on_c, 0, 70, 66
2, 35373, Note_on_c, 0, 70, 0
2, 35376, Note_on_c, 0, 68, 66
2, 35388, Note_on_c, 0, 68, 0
2, 35388, Note_on_c, 0, 70, 66
2, 35400, Note_on_c, 0, 70, 0
2, 35400, Note_on_c, 0, 68, 66
2, 35412, Note_on_c, 0, 68, 0
2, 35412, Note_on_c, 0, 70, 66
2, 35421, Note_on_c, 0, 70, 0
2, 35424, Note_on_c, 0, 67, 66
2, 35469, Note_on_c, 0, 67, 0
2, 35472, Note_on_c, 0, 82, 75
2, 35517, Note_on_c, 0, 82, 0
2, 35520, Note_on_c, 0, 79, 75
2, 35543, Note_on_c, 0, 79, 0
2, 35544, Note_on_c, 0, 80, 75
2, 35567, Note_on_c, 0, 80, 0
2, 35568, Note_on_c, 0, 84, 75
2, 35591, Note_on_c, 0, 84, 0
2, 35592, Note_on_c, 0, 82, 75
2, 35615, Note_on_c, 0, 82, 0
2, 35616, Note_on_c, 0, 80, 75
2, 35639, Note_on_c, 0, 80, 0
2, 35640, Note_on_c, 0, 79, 75
2, 35663, Note_on_c, 0, 79, 0
2, 35664, Note_on_c, 0, 77, 75
2, 35687, Note_on_c, 0, 77, 0
2, 35688, Note_on_c, 0, 75, 75
2, 35711, Note_on_c, 0, 75, 0
2, 35712, Note_on_c, 0, 75, 75
2, 35757, Note_on_c, 0, 75, 0
2, 35760, Note_on_c, 0, 74, 75
2, 35805, Note_on_c, 0, 74, 0
2, 35808, Note_on_c, 0, 75, 75
2, 35853, Note_on_c, 0, 75, 0
2, 35856, Note_on_c, 0, 72, 66
2, 35901, Note_on_c, 0, 72, 0
2, 35904, Note_on_c, 0, 72, 66
2, 35927, Note_on_c, 0, 72, 0
2, 35928, Note_on_c, 0, 70, 66
2, 35951, Note_on_c, 0, 70, 0
2, 35952, Note_on_c, 0, 75, 66
2, 35975, Note_on_c, 0, 75, 0
2, 35976, Note_on_c, 0, 70, 66
2, 35999, Note_on_c, 0, 70, 0
2, 36000, Note_on_c, 0, 70, 66
2, 36023, Note_on_c, 0, 70, 0
2, 36024, Note_on_c, 0, 68, 66
2, 36047, Note_on_c, 0, 68, 0
2, 36048, Note_on_c, 0, 77, 66
2, 36071, Note_on_c, 0, 77, 0
2, 36072, Note_on_c, 0, 68, 66
2, 36095, Note_on_c, 0, 68, 0
2, 36096, Note_on_c, 0, 68, 66
2, 36192, Note_on_c, 0, 68, 0
2, 36192, Note_on_c, 0, 67, 66
2, 36237, Note_on_c, 0, 67, 0
2, 36240, Note_on_c, 0, 67, 80
2, 36263, Note_on_c, 0, 67, 0
2, 36264, Note_on_c, 0, 68, 80
2, 36287, Note_on_c, 0, 68, 0
2, 36288, Note_on_c, 0, 70, 80
2, 36311, Note_on_c, 0, 70, 0
2, 36312, Note_on_c, 0, 72, 80
2, 36335, Note_on_c, 0, 72, 0
2, 36336, Note_on_c, 0, 70, 80
2, 36359, Note_on_c, 0, 70, 0
2, 36360, Note_on_c, 0, 68, 80
2, 36383, Note_on_c, 0, 68, 0
2, 36384, Note_on_c, 0, 67, 80
2, 36407, Note_on_c, 0, 67, 0
2, 36408, Note_on_c, 0, 65, 80
2, 36431, Note_on_c, 0, 65, 0
2, 36432, Note_on_c, 0, 63, 80
2, 36455, Note_on_c, 0, 63, 0
2, 36456, Note_on_c, 0, 61, 80
2, 36479, Note_on_c, 0, 61, 0
2, 36504, Note_on_c, 0, 60, 80
2, 36527, Note_on_c, 0, 60, 0
2, 36528, Note_on_c, 0, 61, 80
2, 36551, Note_on_c, 0, 61, 0
2, 36552, Note_on_c, 0, 63, 80
2, 36575, Note_on_c, 0, 63, 0
2, 36576, Note_on_c, 0, 61, 80
2, 36599, Note_on_c, 0, 61, 0
2, 36600, Note_on_c, 0, 60, 80
2, 36623, Note_on_c, 0, 60, 0
2, 36624, Note_on_c, 0, 58, 80
2, 36647, Note_on_c, 0, 58, 0
2, 36648, Note_on_c, 0, 56, 80
2, 36671, Note_on_c, 0, 56, 0
2, 36696, Note_on_c, 0, 77, 80
2, 36719, Note_on_c, 0, 77, 0
2, 36720, Note_on_c, 0, 75, 80
2, 36743, Note_on_c, 0, 75, 0
2, 36744, Note_on_c, 0, 73, 80
2, 36767, Note_on_c, 0, 73, 0
2, 36768, Note_on_c, 0, 72, 80
2, 36791, Note_on_c, 0, 72, 0
2, 36792, Note_on_c, 0, 70, 80
2, 36815, Note_on_c, 0, 70, 0
2, 36816, Note_on_c, 0, 68, 80
2, 36839, Note_on_c, 0, 68, 0
2, 36840, Note_on_c, 0, 66, 80
2, 36863, Note_on_c, 0, 66, 0
2, 36888, Note_on_c, 0, 65, 80
2, 36911, Note_on_c, 0, 65, 0
2, 36912, Note_on_c, 0, 66, 80
2, 36935, Note_on_c, 0, 66, 0
2, 36936, Note_on_c, 0, 68, 80
2, 36959, Note_on_c, 0, 68, 0
2, 36960, Note_on_c, 0, 66, 80
2, 36983, Note_on_c, 0, 66, 0
2, 36984, Note_on_c, 0, 65, 80
2, 37007, Note_on_c, 0, 65, 0
2, 37008, Note_on_c, 0, 63, 80
2, 37031, Note_on_c, 0, 63, 0
2, 37032, Note_on_c, 0, 61, 80
2, 37055, Note_on_c, 0, 61, 0
2, 37080, Note_on_c, 0, 79, 80
2, 37103, Note_on_c, 0, 79, 0
2, 37104, Note_on_c, 0, 77, 80
2, 37127, Note_on_c, 0, 77, 0
2, 37128, Note_on_c, 0, 75, 80
2, 37151, Note_on_c, 0, 75, 0
2, 37152, Note_on_c, 0, 74, 80
2, 37175, Note_on_c, 0, 74, 0
2, 37176, Note_on_c, 0, 72, 80
2, 37199, Note_on_c, 0, 72, 0
2, 37200, Note_on_c, 0, 70, 80
2, 37223, Note_on_c, 0, 70, 0
2, 37224, Note_on_c, 0, 68, 80
2, 37247, Note_on_c, 0, 68, 0
2, 37272, Note_on_c, 0, 67, 80
2, 37295, Note_on_c, 0, 67, 0
2, 37296, Note_on_c, 0, 68, 80
2, 37319, Note_on_c, 0, 68, 0
2, 37320, Note_on_c, 0, 70, 80
2, 37343, Note_on_c, 0, 70, 0
2, 37344, Note_on_c, 0, 68, 80
2, 37367, Note_on_c, 0, 68, 0
2, 37368, Note_on_c, 0, 67, 80
2, 37391, Note_on_c, 0, 67, 0
2, 37392, Note_on_c, 0, 65, 80
2, 37415, Note_on_c, 0, 65, 0
2, 37416, Note_on_c, 0, 63, 80
2, 37439, Note_on_c, 0, 63, 0
2, 37464, Note_on_c, 0, 80, 80
2, 37487, Note_on_c, 0, 80, 0
2, 37488, Note_on_c, 0, 79, 80
2, 37511, Note_on_c, 0, 79, 0
2, 37512, Note_on_c, 0, 77, 80
2, 37535, Note_on_c, 0, 77, 0
2, 37536, Note_on_c, 0, 76, 80
2, 37559, Note_on_c, 0, 76, 0
2, 37560, Note_on_c, 0, 73, 80
2, 37583, Note_on_c, 0, 73, 0
2, 37584, Note_on_c, 0, 72, 80
2, 37607, Note_on_c, 0, 72, 0
2, 37608, Note_on_c, 0, 70, 80
2, 37631, Note_on_c, 0, 70, 0
2, 37656, Note_on_c, 0, 68, 80
2, 37679, Note_on_c, 0, 68, 0
2, 37680, Note_on_c, 0, 70, 80
2, 37703, Note_on_c, 0, 70, 0
2, 37704, Note_on_c, 0, 72, 80
2, 37727, Note_on_c, 0, 72, 0
2, 37728, Note_on_c, 0, 70, 80
2, 37751, Note_on_c, 0, 70, 0
2, 37752, Note_on_c, 0, 68, 80
2, 37775, Note_on_c, 0, 68, 0
2, 37776, Note_on_c, 0, 67, 80
2, 37799, Note_on_c, 0, 67, 0
2, 37800, Note_on_c, 0, 65, 80
2, 37823, Note_on_c, 0, 65, 0
2, 37848, Note_on_c, 0, 73, 80
2, 37871, Note_on_c, 0, 73, 0
2, 37872, Note_on_c, 0, 75, 80
2, 37895, Note_on_c, 0, 75, 0
2, 37896, Note_on_c, 0, 77, 80
2, 37919, Note_on_c, 0, 77, 0
2, 37920, Note_on_c, 0, 75, 80
2, 37943, Note_on_c, 0, 75, 0
2, 37944, Note_on_c, 0, 73, 80
2, 37967, Note_on_c, 0, 73, 0
2, 37968, Note_on_c, 0, 72, 80
2, 37991, Note_on_c, 0, 72, 0
2, 37992, Note_on_c, 0, 73, 80
2, 38015, Note_on_c, 0, 73, 0
2, 38040, Note_on_c, 0, 79, 80
2, 38063, Note_on_c, 0, 79, 0
2, 38064, Note_on_c, 0, 80, 80
2, 38087, Note_on_c, 0, 80, 0
2, 38088, Note_on_c, 0, 82, 80
2, 38111, Note_on_c, 0, 82, 0
2, 38112, Note_on_c, 0, 80, 80
2, 38135, Note_on_c, 0, 80, 0
2, 38136, Note_on_c, 0, 79, 80
2, 38159, Note_on_c, 0, 79, 0
2, 38160, Note_on_c, 0, 77, 80
2, 38183, Note_on_c, 0, 77, 0
2, 38184, Note_on_c, 0, 76, 80
2, 38207, Note_on_c, 0, 76, 0
2, 38232, Note_on_c, 0, 82, 80
2, 38255, Note_on_c, 0, 82, 0
2, 38256, Note_on_c, 0, 84, 80
2, 38279, Note_on_c, 0, 84, 0
2, 38280, Note_on_c, 0, 85, 80
2, 38303, Note_on_c, 0, 85, 0
2, 38304, Note_on_c, 0, 84, 80
2, 38327, Note_on_c, 0, 84, 0
2, 38328, Note_on_c, 0, 82, 80
2, 38351, Note_on_c, 0, 82, 0
2, 38352, Note_on_c, 0, 80, 80
2, 38375, Note_on_c, 0, 80, 0
2, 38376, Note_on_c, 0, 79, 80
2, 38399, Note_on_c, 0, 79, 0
2, 38400, Note_on_c, 0, 80, 80
2, 38489, Note_on_c, 0, 80, 0
2, 38592, Note_on_c, 0, 85, 80
2, 38592, Note_on_c, 0, 77, 80
2, 38681, Note_on_c, 0, 85, 0
2, 38681, Note_on_c, 0, 77, 0
2, 38784, Note_on_c, 0, 85, 80
2, 38784, Note_on_c, 0, 75, 80
2, 38873, Note_on_c, 0, 85, 0
2, 38873, Note_on_c, 0, 75, 0
2, 38976, Note_on_c, 0, 84, 80
2, 38976, Note_on_c, 0, 75, 80
2, 39065, Note_on_c, 0, 84, 0
2, 39065, Note_on_c, 0, 75, 0
2, 39168, Note_on_c, 0, 84, 80
2, 39168, Note_on_c, 0, 73, 80
2, 39257, Note_on_c, 0, 84, 0
2, 39257, Note_on_c, 0, 73, 0
2, 39360, Note_on_c, 0, 82, 80
2, 39360, Note_on_c, 0, 73, 80
2, 39449, Note_on_c, 0, 82, 0
2, 39449, Note_on_c, 0, 73, 0
2, 39552, Note_on_c, 0, 82, 80
2, 39552, Note_on_c, 0, 72, 80
2, 39641, Note_on_c, 0, 82, 0
2, 39641, Note_on_c, 0, 72, 0
2, 39768, Note_on_c, 0, 77, 75
2, 39791, Note_on_c, 0, 77, 0
2, 39792, Note_on_c, 0, 79, 75
2, 39815, Note_on_c, 0, 79, 0
2, 39816, Note_on_c, 0, 80, 75
2, 39839, Note_on_c, 0, 80, 0
2, 39840, Note_on_c, 0, 79, 75
2, 39863, Note_on_c, 0, 79, 0
2, 39864, Note_on_c, 0, 77, 75
2, 39887, Note_on_c, 0, 77, 0
2, 39888, Note_on_c, 0, 76, 75
2, 39911, Note_on_c, 0, 76, 0
2, 39912, Note_on_c, 0, 77, 75
2, 39935, Note_on_c, 0, 77, 0
2, 39960, Note_on_c, 0, 77, 75
2, 39983, Note_on_c, 0, 77, 0
2, 39984, Note_on_c, 0, 79, 75
2, 40007, Note_on_c, 0, 79, 0
2, 40008, Note_on_c, 0, 80, 75
2, 40031, Note_on_c, 0, 80, 0
2, 40032, Note_on_c, 0, 79, 75
2, 40055, Note_on_c, 0, 79, 0
2, 40056, Note_on_c, 0, 77, 75
2, 40079, Note_on_c, 0, 77, 0
2, 40080, Note_on_c, 0, 76, 75
2, 40103, Note_on_c, 0, 76, 0
2, 40104, Note_on_c, 0, 77, 75
2, 40127, Note_on_c, 0, 77, 0
2, 40152, Note_on_c, 0, 77, 76
2, 40175, Note_on_c, 0, 77, 0
2, 40176, Note_on_c, 0, 79, 76
2, 40199, Note_on_c, 0, 79, 0
2, 40200, Note_on_c, 0, 80, 76
2, 40223, Note_on_c, 0, 80, 0
2, 40224, Note_on_c, 0, 79, 76
2, 40247, Note_on_c, 0, 79, 0
2, 40248, Note_on_c, 0, 77, 76
2, 40271, Note_on_c, 0, 77, 0
2, 40272, Note_on_c, 0, 76, 77
2, 40295, Note_on_c, 0, 76, 0
2, 40296, Note_on_c, 0, 77, 77
2, 40319, Note_on_c, 0, 77, 0
2, 40344, Note_on_c, 0, 77, 77
2, 40367, Note_on_c, 0, 77, 0
2, 40368, Note_on_c, 0, 79, 77
2, 40391, Note_on_c, 0, 79, 0
2, 40392, Note_on_c, 0, 80, 78
2, 40415, Note_on_c, 0, 80, 0
2, 40416, Note_on_c, 0, 79, 78
2, 40439, Note_on_c, 0, 79, 0
2, 40440, Note_on_c, 0, 77, 78
2, 40463, Note_on_c, 0, 77, 0
2, 40464, Note_on_c, 0, 76, 78
2, 40487, Note_on_c, 0, 76, 0
2, 40488, Note_on_c, 0, 77, 78
2, 40511, Note_on_c, 0, 77, 0
2, 40512, Note_on_c, 0, 76, 79
2, 40601, Note_on_c, 0, 76, 0
2, 40608, Note_on_c, 0, 84, 80
2, 40631, Note_on_c, 0, 84, 0
2, 40632, Note_on_c, 0, 72, 80
2, 40655, Note_on_c, 0, 72, 0
2, 40656, Note_on_c, 0, 84, 80
2, 40679, Note_on_c, 0, 84, 0
2, 40680, Note_on_c, 0, 72, 80
2, 40703, Note_on_c, 0, 72, 0
2, 40704, Note_on_c, 0, 84, 80
2, 40727, Note_on_c, 0, 84, 0
2, 40728, Note_on_c, 0, 73, 80
2, 40751, Note_on_c, 0, 73, 0
2, 40752, Note_on_c, 0, 84, 80
2, 40775, Note_on_c, 0, 84, 0
2, 40776, Note_on_c, 0, 73, 80
2, 40799, Note_on_c, 0, 73, 0
2, 40800, Note_on_c, 0, 82, 80
2, 40823, Note_on_c, 0, 82, 0
2, 40824, Note_on_c, 0, 73, 80
2, 40847, Note_on_c, 0, 73, 0
2, 40848, Note_on_c, 0, 82, 80
2, 40871, Note_on_c, 0, 82, 0
2, 40872, Note_on_c, 0, 73, 80
2, 40895, Note_on_c, 0, 73, 0
2, 40896, Note_on_c, 0, 82, 80
2, 40919, Note_on_c, 0, 82, 0
2, 40920, Note_on_c, 0, 72, 80
2, 40943, Note_on_c, 0, 72, 0
2, 40944, Note_on_c, 0, 82, 80
2, 40967, Note_on_c, 0, 82, 0
2, 40968, Note_on_c, 0, 72, 80
2, 40991, Note_on_c, 0, 72, 0
2, 40992, Note_on_c, 0, 80, 80
2, 41015, Note_on_c, 0, 80, 0
2, 41016, Note_on_c, 0, 77, 80
2, 41039, Note_on_c, 0, 77, 0
2, 41040, Note_on_c, 0, 80, 80
2, 41063, Note_on_c, 0, 80, 0
2, 41064, Note_on_c, 0, 77, 80
2, 41087, Note_on_c, 0, 77, 0
2, 41088, Note_on_c, 0, 79, 80
2, 41111, Note_on_c, 0, 79, 0
2, 41112, Note_on_c, 0, 77, 80
2, 41135, Note_on_c, 0, 77, 0
2, 41136, Note_on_c, 0, 79, 80
2, 41159, Note_on_c, 0, 79, 0
2, 41160, Note_on_c, 0, 77, 80
2, 41183, Note_on_c, 0, 77, 0
2, 41184, Note_on_c, 0, 79, 80
2, 41207, Note_on_c, 0, 79, 0
2, 41208, Note_on_c, 0, 76, 80
2, 41231, Note_on_c, 0, 76, 0
2, 41232, Note_on_c, 0, 79, 80
2, 41255, Note_on_c, 0, 79, 0
2, 41256, Note_on_c, 0, 76, 80
2, 41279, Note_on_c, 0, 76, 0
2, 41280, Note_on_c, 0, 77, 80
2, 41369, Note_on_c, 0, 77, 0
2, 41376, Note_on_c, 0, 72, 80
2, 41399, Note_on_c, 0, 72, 0
2, 41400, Note_on_c, 0, 84, 80
2, 41423, Note_on_c, 0, 84, 0
2, 41424, Note_on_c, 0, 72, 80
2, 41447, Note_on_c, 0, 72, 0
2, 41448, Note_on_c, 0, 84, 80
2, 41471, Note_on_c, 0, 84, 0
2, 41472, Note_on_c, 0, 73, 80
2, 41495, Note_on_c, 0, 73, 0
2, 41496, Note_on_c, 0, 84, 80
2, 41519, Note_on_c, 0, 84, 0
2, 41520, Note_on_c, 0, 73, 80
2, 41543, Note_on_c, 0, 73, 0
2, 41544, Note_on_c, 0, 84, 80
2, 41567, Note_on_c, 0, 84, 0
2, 41568, Note_on_c, 0, 73, 80
2, 41591, Note_on_c, 0, 73, 0
2, 41592, Note_on_c, 0, 82, 80
2, 41615, Note_on_c, 0, 82, 0
2, 41616, Note_on_c, 0, 73, 80
2, 41639, Note_on_c, 0, 73, 0
2, 41640, Note_on_c, 0, 82, 80
2, 41663, Note_on_c, 0, 82, 0
2, 41664, Note_on_c, 0, 72, 80
2, 41687, Note_on_c, 0, 72, 0
2, 41688, Note_on_c, 0, 82, 80
2, 41711, Note_on_c, 0, 82, 0
2, 41712, Note_on_c, 0, 72, 80
2, 41735, Note_on_c, 0, 72, 0
2, 41736, Note_on_c, 0, 82, 80
2, 41759, Note_on_c, 0, 82, 0
2, 41760, Note_on_c, 0, 72, 80
2, 41783, Note_on_c, 0, 72, 0
2, 41784, Note_on_c, 0, 80, 80
2, 41807, Note_on_c, 0, 80, 0
2, 41808, Note_on_c, 0, 72, 80
2, 41831, Note_on_c, 0, 72, 0
2, 41832, Note_on_c, 0, 80, 80
2, 41855, Note_on_c, 0, 80, 0
2, 41856, Note_on_c, 0, 70, 80
2, 41879, Note_on_c, 0, 70, 0
2, 41880, Note_on_c, 0, 80, 80
2, 41903, Note_on_c, 0, 80, 0
2, 41904, Note_on_c, 0, 70, 80
2, 41927, Note_on_c, 0, 70, 0
2, 41928, Note_on_c, 0, 80, 80
2, 41951, Note_on_c, 0, 80, 0
2, 41952, Note_on_c, 0, 70, 80
2, 41975, Note_on_c, 0, 70, 0
2, 41976, Note_on_c, 0, 79, 80
2, 41999, Note_on_c, 0, 79, 0
2, 42000, Note_on_c, 0, 70, 80
2, 42023, Note_on_c, 0, 70, 0
2, 42024, Note_on_c, 0, 79, 80
2, 42047, Note_on_c, 0, 79, 0
2, 42048, Note_on_c, 0, 68, 80
2, 42071, Note_on_c, 0, 68, 0
2, 42072, Note_on_c, 0, 79, 80
2, 42095, Note_on_c, 0, 79, 0
2, 42096, Note_on_c, 0, 68, 80
2, 42119, Note_on_c, 0, 68, 0
2, 42120, Note_on_c, 0, 79, 80
2, 42143, Note_on_c, 0, 79, 0
2, 42144, Note_on_c, 0, 68, 80
2, 42167, Note_on_c, 0, 68, 0
2, 42168, Note_on_c, 0, 77, 80
2, 42191, Note_on_c, 0, 77, 0
2, 42192, Note_on_c, 0, 68, 80
2, 42215, Note_on_c, 0, 68, 0
2, 42216, Note_on_c, 0, 77, 80
2, 42239, Note_on_c, 0, 77, 0
2, 42240, Note_on_c, 0, 67, 80
2, 42263, Note_on_c, 0, 67, 0
2, 42264, Note_on_c, 0, 77, 80
2, 42287, Note_on_c, 0, 77, 0
2, 42288, Note_on_c, 0, 67, 80
2, 42311, Note_on_c, 0, 67, 0
2, 42312, Note_on_c, 0, 77, 80
2, 42335, Note_on_c, 0, 77, 0
2, 42336, Note_on_c, 0, 67, 80
2, 42359, Note_on_c, 0, 67, 0
2, 42360, Note_on_c, 0, 75, 80
2, 42383, Note_on_c, 0, 75, 0
2, 42384, Note_on_c, 0, 67, 80
2, 42407, Note_on_c, 0, 67, 0
2, 42408, Note_on_c, 0, 75, 80
2, 42431, Note_on_c, 0, 75, 0
2, 42432, Note_on_c, 0, 66, 80
2, 42455, Note_on_c, 0, 66, 0
2, 42456, Note_on_c, 0, 75, 80
2, 42479, Note_on_c, 0, 75, 0
2, 42480, Note_on_c, 0, 66, 80
2, 42503, Note_on_c, 0, 66, 0
2, 42504, Note_on_c, 0, 75, 80
2, 42527, Note_on_c, 0, 75, 0
2, 42528, Note_on_c, 0, 65, 80
2, 42551, Note_on_c, 0, 65, 0
2, 42552, Note_on_c, 0, 74, 80
2, 42575, Note_on_c, 0, 74, 0
2, 42576, Note_on_c, 0, 65, 80
2, 42599, Note_on_c, 0, 65, 0
2, 42600, Note_on_c, 0, 74, 80
2, 42623, Note_on_c, 0, 74, 0
2, 42624, Note_on_c, 0, 64, 80
2, 42647, Note_on_c, 0, 64, 0
2, 42648, Note_on_c, 0, 73, 80
2, 42671, Note_on_c, 0, 73, 0
2, 42672, Note_on_c, 0, 64, 80
2, 42695, Note_on_c, 0, 64, 0
2, 42696, Note_on_c, 0, 73, 80
2, 42719, Note_on_c, 0, 73, 0
2, 42720, Note_on_c, 0, 65, 80
2, 42743, Note_on_c, 0, 65, 0
2, 42744, Note_on_c, 0, 72, 80
2, 42767, Note_on_c, 0, 72, 0
2, 42768, Note_on_c, 0, 65, 80
2, 42791, Note_on_c, 0, 65, 0
2, 42792, Note_on_c, 0, 72, 80
2, 42815, Note_on_c, 0, 72, 0
2, 42816, Note_on_c, 0, 62, 80
2, 42839, Note_on_c, 0, 62, 0
2, 42840, Note_on_c, 0, 71, 80
2, 42863, Note_on_c, 0, 71, 0
2, 42864, Note_on_c, 0, 62, 80
2, 42887, Note_on_c, 0, 62, 0
2, 42888, Note_on_c, 0, 71, 80
2, 42911, Note_on_c, 0, 71, 0
2, 42912, Note_on_c, 0, 63, 80
2, 42935, Note_on_c, 0, 63, 0
2, 42936, Note_on_c, 0, 70, 80
2, 42959, Note_on_c, 0, 70, 0
2, 42960, Note_on_c, 0, 63, 80
2, 42983, Note_on_c, 0, 63, 0
2, 42984, Note_on_c, 0, 70, 80
2, 43007, Note_on_c, 0, 70, 0
2, 43008, Note_on_c, 0, 63, 80
2, 43031, Note_on_c, 0, 63, 0
2, 43032, Note_on_c, 0, 69, 80
2, 43055, Note_on_c, 0, 69, 0
2, 43056, Note_on_c, 0, 63, 80
2, 43079, Note_on_c, 0, 63, 0
2, 43080, Note_on_c, 0, 69, 80
2, 43103, Note_on_c, 0, 69, 0
2, 43104, Note_on_c, 0, 61, 80
2, 43127, Note_on_c, 0, 61, 0
2, 43128, Note_on_c, 0, 70, 80
2, 43151, Note_on_c, 0, 70, 0
2, 43152, Note_on_c, 0, 61, 80
2, 43175, Note_on_c, 0, 61, 0
2, 43176, Note_on_c, 0, 70, 80
2, 43199, Note_on_c, 0, 70, 0
2, 43200, Note_on_c, 0, 61, 80
2, 43223, Note_on_c, 0, 61, 0
2, 43224, Note_on_c, 0, 67, 80
2, 43247, Note_on_c, 0, 67, 0
2, 43248, Note_on_c, 0, 61, 80
2, 43271, Note_on_c, 0, 61, 0
2, 43272, Note_on_c, 0, 67, 80
2, 43295, Note_on_c, 0, 67, 0
2, 43296, Note_on_c, 0, 60, 80
2, 43319, Note_on_c, 0, 60, 0
2, 43320, Note_on_c, 0, 68, 80
2, 43343, Note_on_c, 0, 68, 0
2, 43344, Note_on_c, 0, 60, 80
2, 43367, Note_on_c, 0, 60, 0
2, 43368, Note_on_c, 0, 68, 80
2, 43391, Note_on_c, 0, 68, 0
2, 43392, Note_on_c, 0, 61, 80
2, 43415, Note_on_c, 0, 61, 0
2, 43416, Note_on_c, 0, 70, 80
2, 43439, Note_on_c, 0, 70, 0
2, 43440, Note_on_c, 0, 61, 80
2, 43463, Note_on_c, 0, 61, 0
2, 43464, Note_on_c, 0, 70, 80
2, 43487, Note_on_c, 0, 70, 0
2, 43488, Note_on_c, 0, 60, 80
2, 43511, Note_on_c, 0, 60, 0
2, 43512, Note_on_c, 0, 68, 80
2, 43535, Note_on_c, 0, 68, 0
2, 43536, Note_on_c, 0, 60, 80
2, 43559, Note_on_c, 0, 60, 0
2, 43560, Note_on_c, 0, 68, 80
2, 43583, Note_on_c, 0, 68, 0
2, 43584, Note_on_c, 0, 61, 80
2, 43607, Note_on_c, 0, 61, 0
2, 43608, Note_on_c, 0, 67, 80
2, 43631, Note_on_c, 0, 67, 0
2, 43632, Note_on_c, 0, 61, 80
2, 43655, Note_on_c, 0, 61, 0
2, 43656, Note_on_c, 0, 67, 80
2, 43679, Note_on_c, 0, 67, 0
2, 43680, Note_on_c, 0, 60, 80
2, 43703, Note_on_c, 0, 60, 0
2, 43704, Note_on_c, 0, 68, 80
2, 43727, Note_on_c, 0, 68, 0
2, 43728, Note_on_c, 0, 60, 80
2, 43751, Note_on_c, 0, 60, 0
2, 43752, Note_on_c, 0, 68, 80
2, 43775, Note_on_c, 0, 68, 0
2, 43776, Note_on_c, 0, 62, 87
2, 43799, Note_on_c, 0, 62, 0
2, 43800, Note_on_c, 0, 68, 87
2, 43823, Note_on_c, 0, 68, 0
2, 43824, Note_on_c, 0, 62, 87
2, 43847, Note_on_c, 0, 62, 0
2, 43848, Note_on_c, 0, 68, 87
2, 43871, Note_on_c, 0, 68, 0
2, 43872, Note_on_c, 0, 62, 87
2, 43895, Note_on_c, 0, 62, 0
2, 43896, Note_on_c, 0, 68, 87
2, 43919, Note_on_c, 0, 68, 0
2, 43920, Note_on_c, 0, 62, 87
2, 43943, Note_on_c, 0, 62, 0
2, 43944, Note_on_c, 0, 68, 87
2, 43967, Note_on_c, 0, 68, 0
2, 43968, Note_on_c, 0, 67, 87
2, 43968, Note_on_c, 0, 63, 87
2, 44057, Note_on_c, 0, 67, 0
2, 44057, Note_on_c, 0, 63, 0
2, 44112, Note_on_c, 0, 75, 75
2, 44157, Note_on_c, 0, 75, 0
2, 44160, Note_on_c, 0, 75, 75
2, 44183, Note_on_c, 0, 75, 0
2, 44184, Note_on_c, 0, 73, 75
2, 44207, Note_on_c, 0, 73, 0
2, 44208, Note_on_c, 0, 77, 75
2, 44231, Note_on_c, 0, 77, 0
2, 44232, Note_on_c, 0, 75, 75
2, 44255, Note_on_c, 0, 75, 0
2, 44256, Note_on_c, 0, 73, 75
2, 44279, Note_on_c, 0, 73, 0
2, 44280, Note_on_c, 0, 72, 75
2, 44303, Note_on_c, 0, 72, 0
2, 44304, Note_on_c, 0, 70, 75
2, 44327, Note_on_c, 0, 70, 0
2, 44328, Note_on_c, 0, 68, 75
2, 44351, Note_on_c, 0, 68, 0
2, 44352, Note_on_c, 0, 68, 75
2, 44400, Note_on_c, 0, 68, 0
2, 44400, Note_on_c, 0, 67, 75
2, 44445, Note_on_c, 0, 67, 0
2, 44448, Note_on_c, 0, 68, 75
2, 44493, Note_on_c, 0, 68, 0
2, 44496, Note_on_c, 0, 65, 66
2, 44541, Note_on_c, 0, 65, 0
2, 44544, Note_on_c, 0, 65, 66
2, 44567, Note_on_c, 0, 65, 0
2, 44568, Note_on_c, 0, 63, 66
2, 44591, Note_on_c, 0, 63, 0
2, 44592, Note_on_c, 0, 68, 66
2, 44615, Note_on_c, 0, 68, 0
2, 44616, Note_on_c, 0, 63, 66
2, 44639, Note_on_c, 0, 63, 0
2, 44640, Note_on_c, 0, 63, 66
2, 44663, Note_on_c, 0, 63, 0
2, 44664, Note_on_c, 0, 61, 66
2, 44687, Note_on_c, 0, 61, 0
2, 44688, Note_on_c, 0, 70, 66
2, 44711, Note_on_c, 0, 70, 0
2, 44712, Note_on_c, 0, 61, 66
2, 44735, Note_on_c, 0, 61, 0
2, 44736, Note_on_c, 0, 61, 66
2, 44832, Note_on_c, 0, 61, 0
2, 44832, Note_on_c, 0, 60, 66
2, 44877, Note_on_c, 0, 60, 0
2, 44880, Note_on_c, 0, 75, 75
2, 44925, Note_on_c, 0, 75, 0
2, 44928, Note_on_c, 0, 72, 75
2, 44951, Note_on_c, 0, 72, 0
2, 44952, Note_on_c, 0, 73, 75
2, 44975, Note_on_c, 0, 73, 0
2, 44976, Note_on_c, 0, 77, 75
2, 44999, Note_on_c, 0, 77, 0
2, 45000, Note_on_c, 0, 75, 75
2, 45023, Note_on_c, 0, 75, 0
2, 45024, Note_on_c, 0, 73, 75
2, 45047, Note_on_c, 0, 73, 0
2, 45048, Note_on_c, 0, 72, 75
2, 45071, Note_on_c, 0, 72, 0
2, 45072, Note_on_c, 0, 70, 75
2, 45095, Note_on_c, 0, 70, 0
2, 45096, Note_on_c, 0, 68, 75
2, 45119, Note_on_c, 0, 68, 0
2, 45120, Note_on_c, 0, 68, 75
2, 45168, Note_on_c, 0, 68, 0
2, 45168, Note_on_c, 0, 67, 75
2, 45213, Note_on_c, 0, 67, 0
2, 45216, Note_on_c, 0, 68, 75
2, 45261, Note_on_c, 0, 68, 0
2, 45264, Note_on_c, 0, 77, 66
2, 45309, Note_on_c, 0, 77, 0
2, 45312, Note_on_c, 0, 75, 66
2, 45335, Note_on_c, 0, 75, 0
2, 45336, Note_on_c, 0, 84, 66
2, 45359, Note_on_c, 0, 84, 0
2, 45360, Note_on_c, 0, 82, 66
2, 45383, Note_on_c, 0, 82, 0
2, 45384, Note_on_c, 0, 80, 66
2, 45407, Note_on_c, 0, 80, 0
2, 45408, Note_on_c, 0, 79, 66
2, 45431, Note_on_c, 0, 79, 0
2, 45432, Note_on_c, 0, 77, 66
2, 45455, Note_on_c, 0, 77, 0
2, 45456, Note_on_c, 0, 75, 66
2, 45479, Note_on_c, 0, 75, 0
2, 45480, Note_on_c, 0, 77, 66
2, 45503, Note_on_c, 0, 77, 0
2, 45504, Note_on_c, 0, 75, 66
2, 45552, Note_on_c, 0, 75, 0
2, 45552, Note_on_c, 0, 73, 66
2, 45597, Note_on_c, 0, 73, 0
2, 45600, Note_on_c, 0, 72, 66
2, 45645, Note_on_c, 0, 72, 0
2, 45696, Note_on_c, 0, 68, 80
2, 45873, Note_on_c, 0, 68, 0
2, 45888, Note_on_c, 0, 63, 80
2, 45906, Note_on_c, 0, 63, 0
2, 45906, Note_on_c, 0, 73, 80
2, 46065, Note_on_c, 0, 73, 0
2, 46104, Note_on_c, 0, 68, 80
2, 46127, Note_on_c, 0, 68, 0
2, 46128, Note_on_c, 0, 70, 80
2, 46151, Note_on_c, 0, 70, 0
2, 46152, Note_on_c, 0, 72, 80
2, 46175, Note_on_c, 0, 72, 0
2, 46176, Note_on_c, 0, 70, 80
2, 46199, Note_on_c, 0, 70, 0
2, 46200, Note_on_c, 0, 68, 80
2, 46223, Note_on_c, 0, 68, 0
2, 46224, Note_on_c, 0, 67, 80
2, 46247, Note_on_c, 0, 67, 0
2, 46248, Note_on_c, 0, 68, 80
2, 46271, Note_on_c, 0, 68, 0
2, 46296, Note_on_c, 0, 67, 80
2, 46319, Note_on_c, 0, 67, 0
2, 46320, Note_on_c, 0, 68, 80
2, 46343, Note_on_c, 0, 68, 0
2, 46344, Note_on_c, 0, 70, 80
2, 46367, Note_on_c, 0, 70, 0
2, 46368, Note_on_c, 0, 68, 80
2, 46391, Note_on_c, 0, 68, 0
2, 46392, Note_on_c, 0, 67, 80
2, 46415, Note_on_c, 0, 67, 0
2, 46416, Note_on_c, 0, 65, 80
2, 46439, Note_on_c, 0, 65, 0
2, 46440, Note_on_c, 0, 63, 80
2, 46463, Note_on_c, 0, 63, 0
2, 46488, Note_on_c, 0, 68, 80
2, 46511, Note_on_c, 0, 68, 0
2, 46512, Note_on_c, 0, 70, 80
2, 46535, Note_on_c, 0, 70, 0
2, 46536, Note_on_c, 0, 72, 80
2, 46559, Note_on_c, 0, 72, 0
2, 46560, Note_on_c, 0, 70, 80
2, 46583, Note_on_c, 0, 70, 0
2, 46584, Note_on_c, 0, 68, 80
2, 46607, Note_on_c, 0, 68, 0
2, 46608, Note_on_c, 0, 67, 80
2, 46631, Note_on_c, 0, 67, 0
2, 46632, Note_on_c, 0, 68, 80
2, 46655, Note_on_c, 0, 68, 0
2, 46680, Note_on_c, 0, 77, 80
2, 46703, Note_on_c, 0, 77, 0
2, 46704, Note_on_c, 0, 75, 80
2, 46727, Note_on_c, 0, 75, 0
2, 46728, Note_on_c, 0, 73, 80
2, 46751, Note_on_c, 0, 73, 0
2, 46752, Note_on_c, 0, 72, 80
2, 46775, Note_on_c, 0, 72, 0
2, 46776, Note_on_c, 0, 70, 80
2, 46799, Note_on_c, 0, 70, 0
2, 46800, Note_on_c, 0, 68, 80
2, 46823, Note_on_c, 0, 68, 0
2, 46824, Note_on_c, 0, 66, 80
2, 46847, Note_on_c, 0, 66, 0
2, 46872, Note_on_c, 0, 65, 80
2, 46895, Note_on_c, 0, 65, 0
2, 46896, Note_on_c, 0, 66, 80
2, 46919, Note_on_c, 0, 66, 0
2, 46920, Note_on_c, 0, 68, 80
2, 46943, Note_on_c, 0, 68, 0
2, 46944, Note_on_c, 0, 66, 80
2, 46967, Note_on_c, 0, 66, 0
2, 46968, Note_on_c, 0, 65, 80
2, 46991, Note_on_c, 0, 65, 0
2, 46992, Note_on_c, 0, 63, 80
2, 47015, Note_on_c, 0, 63, 0
2, 47016, Note_on_c, 0, 61, 80
2, 47039, Note_on_c, 0, 61, 0
2, 47064, Note_on_c, 0, 79, 80
2, 47087, Note_on_c, 0, 79, 0
2, 47088, Note_on_c, 0, 77, 80
2, 47111, Note_on_c, 0, 77, 0
2, 47112, Note_on_c, 0, 75, 80
2, 47135, Note_on_c, 0, 75, 0
2, 47136, Note_on_c, 0, 74, 80
2, 47159, Note_on_c, 0, 74, 0
2, 47160, Note_on_c, 0, 72, 80
2, 47183, Note_on_c, 0, 72, 0
2, 47184, Note_on_c, 0, 70, 80
2, 47207, Note_on_c, 0, 70, 0
2, 47208, Note_on_c, 0, 68, 80
2, 47231, Note_on_c, 0, 68, 0
2, 47256, Note_on_c, 0, 67, 80
2, 47279, Note_on_c, 0, 67, 0
2, 47280, Note_on_c, 0, 68, 80
2, 47303, Note_on_c, 0, 68, 0
2, 47304, Note_on_c, 0, 70, 80
2, 47327, Note_on_c, 0, 70, 0
2, 47328, Note_on_c, 0, 68, 80
2, 47351, Note_on_c, 0, 68, 0
2, 47352, Note_on_c, 0, 67, 80
2, 47375, Note_on_c, 0, 67, 0
2, 47376, Note_on_c, 0, 65, 80
2, 47399, Note_on_c, 0, 65, 0
2, 47400, Note_on_c, 0, 63, 80
2, 47423, Note_on_c, 0, 63, 0
2, 47448, Note_on_c, 0, 72, 80
2, 47471, Note_on_c, 0, 72, 0
2, 47472, Note_on_c, 0, 70, 80
2, 47495, Note_on_c, 0, 70, 0
2, 47496, Note_on_c, 0, 68, 80
2, 47519, Note_on_c, 0, 68, 0
2, 47520, Note_on_c, 0, 67, 80
2, 47543, Note_on_c, 0, 67, 0
2, 47544, Note_on_c, 0, 65, 80
2, 47567, Note_on_c, 0, 65, 0
2, 47568, Note_on_c, 0, 63, 80
2, 47591, Note_on_c, 0, 63, 0
2, 47592, Note_on_c, 0, 61, 80
2, 47615, Note_on_c, 0, 61, 0
2, 47640, Note_on_c, 0, 60, 80
2, 47663, Note_on_c, 0, 60, 0
2, 47664, Note_on_c, 0, 61, 80
2, 47687, Note_on_c, 0, 61, 0
2, 47688, Note_on_c, 0, 63, 80
2, 47711, Note_on_c, 0, 63, 0
2, 47712, Note_on_c, 0, 61, 80
2, 47735, Note_on_c, 0, 61, 0
2, 47736, Note_on_c, 0, 60, 80
2, 47759, Note_on_c, 0, 60, 0
2, 47760, Note_on_c, 0, 58, 80
2, 47783, Note_on_c, 0, 58, 0
2, 47784, Note_on_c, 0, 56, 80
2, 47807, Note_on_c, 0, 56, 0
2, 47808, Note_on_c, 0, 65, 80
2, 47831, Note_on_c, 0, 65, 0
2, 47832, Note_on_c, 0, 63, 80
2, 47855, Note_on_c, 0, 63, 0
2, 47856, Note_on_c, 0, 61, 80
2, 47879, Note_on_c, 0, 61, 0
2, 47880, Note_on_c, 0, 60, 80
2, 47903, Note_on_c, 0, 60, 0
2, 47904, Note_on_c, 0, 58, 80
2, 47927, Note_on_c, 0, 58, 0
2, 47928, Note_on_c, 0, 56, 80
2, 47951, Note_on_c, 0, 56, 0
2, 47952, Note_on_c, 0, 55, 80
2, 47975, Note_on_c, 0, 55, 0
2, 47976, Note_on_c, 0, 53, 80
2, 47999, Note_on_c, 0, 53, 0
2, 48000, Note_on_c, 0, 51, 80
2, 48089, Note_on_c, 0, 51, 0
2, 48096, Note_on_c, 0, 63, 80
2, 48119, Note_on_c, 0, 63, 0
2, 48120, Note_on_c, 0, 65, 80
2, 48143, Note_on_c, 0, 65, 0
2, 48144, Note_on_c, 0, 63, 80
2, 48167, Note_on_c, 0, 63, 0
2, 48168, Note_on_c, 0, 60, 80
2, 48191, Note_on_c, 0, 60, 0
2, 48192, Note_on_c, 0, 61, 80
2, 48215, Note_on_c, 0, 61, 0
2, 48216, Note_on_c, 0, 63, 80
2, 48239, Note_on_c, 0, 63, 0
2, 48240, Note_on_c, 0, 61, 80
2, 48263, Note_on_c, 0, 61, 0
2, 48264, Note_on_c, 0, 58, 80
2, 48287, Note_on_c, 0, 58, 0
2, 48288, Note_on_c, 0, 60, 80
2, 48311, Note_on_c, 0, 60, 0
2, 48312, Note_on_c, 0, 61, 80
2, 48335, Note_on_c, 0, 61, 0
2, 48336, Note_on_c, 0, 60, 80
2, 48359, Note_on_c, 0, 60, 0
2, 48360, Note_on_c, 0, 56, 80
2, 48383, Note_on_c, 0, 56, 0
2, 48384, Note_on_c, 0, 58, 80
2, 48429, Note_on_c, 0, 58, 0
2, 48480, Note_on_c, 0, 75, 66
2, 48503, Note_on_c, 0, 75, 0
2, 48504, Note_on_c, 0, 77, 66
2, 48527, Note_on_c, 0, 77, 0
2, 48528, Note_on_c, 0, 75, 66
2, 48551, Note_on_c, 0, 75, 0
2, 48552, Note_on_c, 0, 77, 66
2, 48575, Note_on_c, 0, 77, 0
2, 48576, Note_on_c, 0, 73, 66
2, 48599, Note_on_c, 0, 73, 0
2, 48600, Note_on_c, 0, 75, 66
2, 48623, Note_on_c, 0, 75, 0
2, 48624, Note_on_c, 0, 73, 66
2, 48647, Note_on_c, 0, 73, 0
2, 48648, Note_on_c, 0, 75, 66
2, 48671, Note_on_c, 0, 75, 0
2, 48672, Note_on_c, 0, 72, 66
2, 48695, Note_on_c, 0, 72, 0
2, 48696, Note_on_c, 0, 73, 66
2, 48719, Note_on_c, 0, 73, 0
2, 48720, Note_on_c, 0, 72, 66
2, 48743, Note_on_c, 0, 72, 0
2, 48744, Note_on_c, 0, 73, 66
2, 48767, Note_on_c, 0, 73, 0
2, 48768, Note_on_c, 0, 70, 66
2, 48857, Note_on_c, 0, 70, 0
2, 48912, Note_on_c, 0, 63, 80
2, 48957, Note_on_c, 0, 63, 0
2, 48960, Note_on_c, 0, 68, 80
2, 48983, Note_on_c, 0, 68, 0
2, 48984, Note_on_c, 0, 67, 80
2, 49007, Note_on_c, 0, 67, 0
2, 49008, Note_on_c, 0, 68, 80
2, 49031, Note_on_c, 0, 68, 0
2, 49032, Note_on_c, 0, 70, 80
2, 49055, Note_on_c, 0, 70, 0
2, 49056, Note_on_c, 0, 72, 80
2, 49079, Note_on_c, 0, 72, 0
2, 49080, Note_on_c, 0, 68, 78
2, 49103, Note_on_c, 0, 68, 0
2, 49104, Note_on_c, 0, 73, 77
2, 49127, Note_on_c, 0, 73, 0
2, 49128, Note_on_c, 0, 70, 76
2, 49151, Note_on_c, 0, 70, 0
2, 49152, Note_on_c, 0, 72, 75
2, 49175, Note_on_c, 0, 72, 0
2, 49176, Note_on_c, 0, 68, 74
2, 49199, Note_on_c, 0, 68, 0
2, 49200, Note_on_c, 0, 73, 73
2, 49223, Note_on_c, 0, 73, 0
2, 49224, Note_on_c, 0, 70, 71
2, 49247, Note_on_c, 0, 70, 0
2, 49248, Note_on_c, 0, 72, 70
2, 49293, Note_on_c, 0, 72, 0
2, 49296, Note_on_c, 0, 63, 68
2, 49341, Note_on_c, 0, 63, 0
2, 49344, Note_on_c, 0, 68, 66
2, 49367, Note_on_c, 0, 68, 0
2, 49368, Note_on_c, 0, 67, 66
2, 49391, Note_on_c, 0, 67, 0
2, 49392, Note_on_c, 0, 68, 66
2, 49415, Note_on_c, 0, 68, 0
2, 49416, Note_on_c, 0, 70, 66
2, 49439, Note_on_c, 0, 70, 0
2, 49440, Note_on_c, 0, 72, 66
2, 49463, Note_on_c, 0, 72, 0
2, 49464, Note_on_c, 0, 68, 67
2, 49487, Note_on_c, 0, 68, 0
2, 49488, Note_on_c, 0, 73, 68
2, 49511, Note_on_c, 0, 73, 0
2, 49512, Note_on_c, 0, 70, 70
2, 49535, Note_on_c, 0, 70, 0
2, 49536, Note_on_c, 0, 72, 71
2, 49559, Note_on_c, 0, 72, 0
2, 49560, Note_on_c, 0, 68, 73
2, 49583, Note_on_c, 0, 68, 0
2, 49584, Note_on_c, 0, 73, 74
2, 49607, Note_on_c, 0, 73, 0
2, 49608, Note_on_c, 0, 70, 75
2, 49631, Note_on_c, 0, 70, 0
2, 49632, Note_on_c, 0, 72, 77
2, 49677, Note_on_c, 0, 72, 0
2, 49680, Note_on_c, 0, 72, 80
2, 49703, Note_on_c, 0, 72, 0
2, 49704, Note_on_c, 0, 73, 80
2, 49727, Note_on_c, 0, 73, 0
2, 49728, Note_on_c, 0, 75, 80
2, 49751, Note_on_c, 0, 75, 0
2, 49752, Note_on_c, 0, 73, 80
2, 49775, Note_on_c, 0, 73, 0
2, 49776, Note_on_c, 0, 72, 80
2, 49799, Note_on_c, 0, 72, 0
2, 49800, Note_on_c, 0, 70, 80
2, 49823, Note_on_c, 0, 70, 0
2, 49824, Note_on_c, 0, 68, 80
2, 49847, Note_on_c, 0, 68, 0
2, 49848, Note_on_c, 0, 67, 80
2, 49871, Note_on_c, 0, 67, 0
2, 49872, Note_on_c, 0, 65, 80
2, 49895, Note_on_c, 0, 65, 0
2, 49896, Note_on_c, 0, 63, 80
2, 49919, Note_on_c, 0, 63, 0
2, 49920, Note_on_c, 0, 65, 80
2, 49943, Note_on_c, 0, 65, 0
2, 49944, Note_on_c, 0, 67, 80
2, 49967, Note_on_c, 0, 67, 0
2, 49968, Note_on_c, 0, 68, 80
2, 49991, Note_on_c, 0, 68, 0
2, 49992, Note_on_c, 0, 70, 80
2, 50015, Note_on_c, 0, 70, 0
2, 50016, Note_on_c, 0, 72, 80
2, 50039, Note_on_c, 0, 72, 0
2, 50040, Note_on_c, 0, 73, 80
2, 50063, Note_on_c, 0, 73, 0
2, 50064, Note_on_c, 0, 75, 80
2, 50087, Note_on_c, 0, 75, 0
2, 50088, Note_on_c, 0, 77, 80
2, 50111, Note_on_c, 0, 77, 0
2, 50112, Note_on_c, 0, 75, 80
2, 50157, Note_on_c, 0, 75, 0
2, 50160, Note_on_c, 0, 68, 80
2, 50205, Note_on_c, 0, 68, 0
2, 50208, Note_on_c, 0, 72, 80
2, 50231, Note_on_c, 0, 72, 0
2, 50232, Note_on_c, 0, 70, 80
2, 50255, Note_on_c, 0, 70, 0
2, 50256, Note_on_c, 0, 68, 80
2, 50279, Note_on_c, 0, 68, 0
2, 50280, Note_on_c, 0, 67, 80
2, 50303, Note_on_c, 0, 67, 0
2, 50304, Note_on_c, 0, 68, 80
2, 50393, Note_on_c, 0, 68, 0
2, 50448, Note_on_c, 0, 72, 70
2, 50471, Note_on_c, 0, 72, 0
2, 50472, Note_on_c, 0, 73, 70
2, 50495, Note_on_c, 0, 73, 0
2, 50496, Note_on_c, 0, 75, 70
2, 50519, Note_on_c, 0, 75, 0
2, 50520, Note_on_c, 0, 73, 70
2, 50543, Note_on_c, 0, 73, 0
2, 50544, Note_on_c, 0, 72, 70
2, 50567, Note_on_c, 0, 72, 0
2, 50568, Note_on_c, 0, 70, 70
2, 50591, Note_on_c, 0, 70, 0
2, 50592, Note_on_c, 0, 68, 70
2, 50615, Note_on_c, 0, 68, 0
2, 50616, Note_on_c, 0, 67, 70
2, 50639, Note_on_c, 0, 67, 0
2, 50640, Note_on_c, 0, 65, 70
2, 50663, Note_on_c, 0, 65, 0
2, 50664, Note_on_c, 0, 63, 70
2, 50687, Note_on_c, 0, 63, 0
2, 50688, Note_on_c, 0, 65, 70
2, 50711, Note_on_c, 0, 65, 0
2, 50712, Note_on_c, 0, 67, 70
2, 50735, Note_on_c, 0, 67, 0
2, 50736, Note_on_c, 0, 68, 70
2, 50759, Note_on_c, 0, 68, 0
2, 50760, Note_on_c, 0, 70, 70
2, 50783, Note_on_c, 0, 70, 0
2, 50784, Note_on_c, 0, 72, 70
2, 50807, Note_on_c, 0, 72, 0
2, 50808, Note_on_c, 0, 73, 70
2, 50831, Note_on_c, 0, 73, 0
2, 50832, Note_on_c, 0, 75, 70
2, 50855, Note_on_c, 0, 75, 0
2, 50856, Note_on_c, 0, 77, 70
2, 50879, Note_on_c, 0, 77, 0
2, 50880, Note_on_c, 0, 79, 70
2, 50903, Note_on_c, 0, 79, 0
2, 50904, Note_on_c, 0, 77, 70
2, 50927, Note_on_c, 0, 77, 0
2, 50928, Note_on_c, 0, 75, 70
2, 50951, Note_on_c, 0, 75, 0
2, 50952, Note_on_c, 0, 73, 70
2, 50975, Note_on_c, 0, 73, 0
2, 50976, Note_on_c, 0, 72, 70
2, 50999, Note_on_c, 0, 72, 0
2, 51000, Note_on_c, 0, 70, 70
2, 51023, Note_on_c, 0, 70, 0
2, 51024, Note_on_c, 0, 68, 70
2, 51047, Note_on_c, 0, 68, 0
2, 51048, Note_on_c, 0, 67, 70
2, 51071, Note_on_c, 0, 67, 0
2, 51072, Note_on_c, 0, 68, 70
2, 51095, Note_on_c, 0, 68, 0
2, 51096, Note_on_c, 0, 70, 70
2, 51119, Note_on_c, 0, 70, 0
2, 51120, Note_on_c, 0, 72, 70
2, 51143, Note_on_c, 0, 72, 0
2, 51144, Note_on_c, 0, 73, 71
2, 51167, Note_on_c, 0, 73, 0
2, 51168, Note_on_c, 0, 75, 71
2, 51191, Note_on_c, 0, 75, 0
2, 51192, Note_on_c, 0, 77, 72
2, 51215, Note_on_c, 0, 77, 0
2, 51216, Note_on_c, 0, 79, 72
2, 51239, Note_on_c, 0, 79, 0
2, 51240, Note_on_c, 0, 80, 72
2, 51263, Note_on_c, 0, 80, 0
2, 51264, Note_on_c, 0, 82, 73
2, 51287, Note_on_c, 0, 82, 0
2, 51288, Note_on_c, 0, 80, 73
2, 51311, Note_on_c, 0, 80, 0
2, 51312, Note_on_c, 0, 79, 74
2, 51335, Note_on_c, 0, 79, 0
2, 51336, Note_on_c, 0, 77, 74
2, 51359, Note_on_c, 0, 77, 0
2, 51360, Note_on_c, 0, 75, 75
2, 51383, Note_on_c, 0, 75, 0
2, 51384, Note_on_c, 0, 73, 75
2, 51407, Note_on_c, 0, 73, 0
2, 51408, Note_on_c, 0, 72, 75
2, 51431, Note_on_c, 0, 72, 0
2, 51432, Note_on_c, 0, 70, 76
2, 51455, Note_on_c, 0, 70, 0
2, 51456, Note_on_c, 0, 72, 76
2, 51479, Note_on_c, 0, 72, 0
2, 51480, Note_on_c, 0, 73, 77
2, 51503, Note_on_c, 0, 73, 0
2, 51504, Note_on_c, 0, 75, 77
2, 51527, Note_on_c, 0, 75, 0
2, 51528, Note_on_c, 0, 77, 77
2, 51551, Note_on_c, 0, 77, 0
2, 51552, Note_on_c, 0, 79, 78
2, 51575, Note_on_c, 0, 79, 0
2, 51576, Note_on_c, 0, 80, 78
2, 51599, Note_on_c, 0, 80, 0
2, 51600, Note_on_c, 0, 82, 79
2, 51623, Note_on_c, 0, 82, 0
2, 51624, Note_on_c, 0, 84, 79
2, 51647, Note_on_c, 0, 84, 0
2, 51648, Note_on_c, 0, 82, 80
2, 51671, Note_on_c, 0, 82, 0
2, 51672, Note_on_c, 0, 80, 80
2, 51695, Note_on_c, 0, 80, 0
2, 51696, Note_on_c, 0, 79, 80
2, 51719, Note_on_c, 0, 79, 0
2, 51720, Note_on_c, 0, 77, 80
2, 51743, Note_on_c, 0, 77, 0
2, 51744, Note_on_c, 0, 75, 80
2, 51767, Note_on_c, 0, 75, 0
2, 51768, Note_on_c, 0, 73, 80
2, 51791, Note_on_c, 0, 73, 0
2, 51792, Note_on_c, 0, 72, 80
2, 51815, Note_on_c, 0, 72, 0
2, 51816, Note_on_c, 0, 70, 80
2, 51839, Note_on_c, 0, 70, 0
2, 51840, Note_on_c, 0, 72, 80
2, 51863, Note_on_c, 0, 72, 0
2, 51864, Note_on_c, 0, 73, 80
2, 51887, Note_on_c, 0, 73, 0
2, 51888, Note_on_c, 0, 75, 80
2, 51911, Note_on_c, 0, 75, 0
2, 51912, Note_on_c, 0, 73, 80
2, 51935, Note_on_c, 0, 73, 0
2, 51936, Note_on_c, 0, 72, 80
2, 51959, Note_on_c, 0, 72, 0
2, 51960, Note_on_c, 0, 70, 80
2, 51983, Note_on_c, 0, 70, 0
2, 51984, Note_on_c, 0, 68, 80
2, 52007, Note_on_c, 0, 68, 0
2, 52008, Note_on_c, 0, 67, 80
2, 52031, Note_on_c, 0, 67, 0
2, 52032, Note_on_c, 0, 65, 80
2, 52055, Note_on_c, 0, 65, 0
2, 52056, Note_on_c, 0, 67, 80
2, 52079, Note_on_c, 0, 67, 0
2, 52080, Note_on_c, 0, 68, 80
2, 52103, Note_on_c, 0, 68, 0
2, 52104, Note_on_c, 0, 70, 80
2, 52127, Note_on_c, 0, 70, 0
2, 52128, Note_on_c, 0, 72, 80
2, 52151, Note_on_c, 0, 72, 0
2, 52152, Note_on_c, 0, 73, 80
2, 52175, Note_on_c, 0, 73, 0
2, 52176, Note_on_c, 0, 75, 80
2, 52199, Note_on_c, 0, 75, 0
2, 52200, Note_on_c, 0, 77, 80
2, 52223, Note_on_c, 0, 77, 0
2, 52224, Note_on_c, 0, 75, 80
2, 52269, Note_on_c, 0, 75, 0
2, 52272, Note_on_c, 0, 68, 80
2, 52317, Note_on_c, 0, 68, 0
2, 52320, Note_on_c, 0, 72, 80
2, 52343, Note_on_c, 0, 72, 0
2, 52344, Note_on_c, 0, 70, 80
2, 52367, Note_on_c, 0, 70, 0
2, 52368, Note_on_c, 0, 68, 80
2, 52391, Note_on_c, 0, 68, 0
2, 52392, Note_on_c, 0, 67, 80
2, 52415, Note_on_c, 0, 67, 0
2, 52416, Note_on_c, 0, 68, 80
2, 52505, Note_on_c, 0, 68, 0
2, 52512, Note_on_c, 0, 63, 80
2, 52535, Note_on_c, 0, 63, 0
2, 52536, Note_on_c, 0, 72, 80
2, 52559, Note_on_c, 0, 72, 0
2, 52560, Note_on_c, 0, 63, 80
2, 52583, Note_on_c, 0, 63, 0
2, 52584, Note_on_c, 0, 72, 80
2, 52607, Note_on_c, 0, 72, 0
2, 52608, Note_on_c, 0, 62, 80
2, 52631, Note_on_c, 0, 62, 0
2, 52632, Note_on_c, 0, 72, 80
2, 52655, Note_on_c, 0, 72, 0
2, 52656, Note_on_c, 0, 62, 80
2, 52679, Note_on_c, 0, 62, 0
2, 52680, Note_on_c, 0, 72, 80
2, 52703, Note_on_c, 0, 72, 0
2, 52704, Note_on_c, 0, 61, 80
2, 52727, Note_on_c, 0, 61, 0
2, 52728, Note_on_c, 0, 70, 80
2, 52751, Note_on_c, 0, 70, 0
2, 52752, Note_on_c, 0, 61, 80
2, 52775, Note_on_c, 0, 61, 0
2, 52776, Note_on_c, 0, 70, 80
2, 52799, Note_on_c, 0, 70, 0
2, 52800, Note_on_c, 0, 60, 80
2, 52823, Note_on_c, 0, 60, 0
2, 52824, Note_on_c, 0, 70, 80
2, 52847, Note_on_c, 0, 70, 0
2, 52848, Note_on_c, 0, 60, 80
2, 52871, Note_on_c, 0, 60, 0
2, 52872, Note_on_c, 0, 70, 80
2, 52895, Note_on_c, 0, 70, 0
2, 52896, Note_on_c, 0, 60, 80
2, 52919, Note_on_c, 0, 60, 0
2, 52920, Note_on_c, 0, 68, 80
2, 52943, Note_on_c, 0, 68, 0
2, 52944, Note_on_c, 0, 60, 80
2, 52967, Note_on_c, 0, 60, 0
2, 52968, Note_on_c, 0, 68, 80
2, 52991, Note_on_c, 0, 68, 0
2, 52992, Note_on_c, 0, 58, 80
2, 53015, Note_on_c, 0, 58, 0
2, 53016, Note_on_c, 0, 68, 80
2, 53039, Note_on_c, 0, 68, 0
2, 53040, Note_on_c, 0, 58, 80
2, 53063, Note_on_c, 0, 58, 0
2, 53064, Note_on_c, 0, 68, 80
2, 53087, Note_on_c, 0, 68, 0
2, 53088, Note_on_c, 0, 58, 80
2, 53111, Note_on_c, 0, 58, 0
2, 53112, Note_on_c, 0, 67, 80
2, 53135, Note_on_c, 0, 67, 0
2, 53136, Note_on_c, 0, 58, 80
2, 53159, Note_on_c, 0, 58, 0
2, 53160, Note_on_c, 0, 67, 80
2, 53183, Note_on_c, 0, 67, 0
2, 53184, Note_on_c, 0, 68, 80
2, 53184, Note_on_c, 0, 60, 80
2, 53273, Note_on_c, 0, 68, 0
2, 53273, Note_on_c, 0, 60, 0
2, 53280, Note_on_c, 0, 75, 80
2, 53303, Note_on_c, 0, 75, 0
2, 53304, Note_on_c, 0, 72, 80
2, 53327, Note_on_c, 0, 72, 0
2, 53328, Note_on_c, 0, 75, 80
2, 53351, Note_on_c, 0, 75, 0
2, 53352, Note_on_c, 0, 72, 80
2, 53375, Note_on_c, 0, 72, 0
2, 53376, Note_on_c, 0, 74, 80
2, 53399, Note_on_c, 0, 74, 0
2, 53400, Note_on_c, 0, 72, 80
2, 53423, Note_on_c, 0, 72, 0
2, 53424, Note_on_c, 0, 74, 80
2, 53447, Note_on_c, 0, 74, 0
2, 53448, Note_on_c, 0, 72, 80
2, 53471, Note_on_c, 0, 72, 0
2, 53472, Note_on_c, 0, 73, 80
2, 53495, Note_on_c, 0, 73, 0
2, 53496, Note_on_c, 0, 70, 80
2, 53519, Note_on_c, 0, 70, 0
2, 53520, Note_on_c, 0, 73, 80
2, 53543, Note_on_c, 0, 73, 0
2, 53544, Note_on_c, 0, 70, 80
2, 53567, Note_on_c, 0, 70, 0
2, 53568, Note_on_c, 0, 72, 80
2, 53591, Note_on_c, 0, 72, 0
2, 53592, Note_on_c, 0, 70, 80
2, 53615, Note_on_c, 0, 70, 0
2, 53616, Note_on_c, 0, 72, 80
2, 53639, Note_on_c, 0, 72, 0
2, 53640, Note_on_c, 0, 70, 80
2, 53663, Note_on_c, 0, 70, 0
2, 53664, Note_on_c, 0, 72, 80
2, 53687, Note_on_c, 0, 72, 0
2, 53688, Note_on_c, 0, 68, 80
2, 53711, Note_on_c, 0, 68, 0
2, 53712, Note_on_c, 0, 72, 80
2, 53735, Note_on_c, 0, 72, 0
2, 53736, Note_on_c, 0, 68, 80
2, 53759, Note_on_c, 0, 68, 0
2, 53760, Note_on_c, 0, 70, 80
2, 53783, Note_on_c, 0, 70, 0
2, 53784, Note_on_c, 0, 68, 80
2, 53807, Note_on_c, 0, 68, 0
2, 53808, Note_on_c, 0, 70, 80
2, 53831, Note_on_c, 0, 70, 0
2, 53832, Note_on_c, 0, 68, 80
2, 53855, Note_on_c, 0, 68, 0
2, 53856, Note_on_c, 0, 70, 80
2, 53879, Note_on_c, 0, 70, 0
2, 53880, Note_on_c, 0, 67, 80
2, 53903, Note_on_c, 0, 67, 0
2, 53904, Note_on_c, 0, 70, 80
2, 53927, Note_on_c, 0, 70, 0
2, 53928, Note_on_c, 0, 67, 80
2, 53951, Note_on_c, 0, 67, 0
2, 53952, Note_on_c, 0, 68, 87
2, 53997, Note_on_c, 0, 68, 0
2, 54048, Note_on_c, 0, 66, 87
2, 54071, Note_on_c, 0, 66, 0
2, 54072, Note_on_c, 0, 75, 87
2, 54095, Note_on_c, 0, 75, 0
2, 54096, Note_on_c, 0, 66, 87
2, 54119, Note_on_c, 0, 66, 0
2, 54120, Note_on_c, 0, 75, 87
2, 54143, Note_on_c, 0, 75, 0
2, 54144, Note_on_c, 0, 73, 87
2, 54144, Note_on_c, 0, 65, 87
2, 54189, Note_on_c, 0, 73, 0
2, 54189, Note_on_c, 0, 65, 0
2, 54240, Note_on_c, 0, 61, 87
2, 54263, Note_on_c, 0, 61, 0
2, 54264, Note_on_c, 0, 67, 87
2, 54287, Note_on_c, 0, 67, 0
2, 54288, Note_on_c, 0, 61, 87
2, 54311, Note_on_c, 0, 61, 0
2, 54312, Note_on_c, 0, 67, 87
2, 54335, Note_on_c, 0, 67, 0
2, 54336, Note_on_c, 0, 68, 87
2, 54336, Note_on_c, 0, 60, 87
2, 54381, Note_on_c, 0, 68, 0
2, 54381, Note_on_c, 0, 60, 0
2, 54432, Note_on_c, 0, 66, 87
2, 54455, Note_on_c, 0, 66, 0
2, 54456, Note_on_c, 0, 75, 87
2, 54479, Note_on_c, 0, 75, 0
2, 54480, Note_on_c, 0, 66, 87
2, 54503, Note_on_c, 0, 66, 0
2, 54504, Note_on_c, 0, 75, 87
2, 54527, Note_on_c, 0, 75, 0
2, 54528, Note_on_c, 0, 73, 87
2, 54528, Note_on_c, 0, 65, 87
2, 54573, Note_on_c, 0, 73, 0
2, 54573, Note_on_c, 0, 65, 0
2, 54624, Note_on_c, 0, 61, 87
2, 54647, Note_on_c, 0, 61, 0
2, 54648, Note_on_c, 0, 67, 87
2, 54671, Note_on_c, 0, 67, 0
2, 54672, Note_on_c, 0, 61, 87
2, 54695, Note_on_c, 0, 61, 0
2, 54696, Note_on_c, 0, 67, 87
2, 54719, Note_on_c, 0, 67, 0
2, 54720, Note_on_c, 0, 68, 87
2, 54720, Note_on_c, 0, 60, 87
2, 54765, Note_on_c, 0, 68, 0
2, 54765, Note_on_c, 0, 60, 0
2, 54816, Note_on_c, 0, 72, 87
2, 54816, Note_on_c, 0, 63, 87
2, 54861, Note_on_c, 0, 72, 0
2, 54861, Note_on_c, 0, 63, 0
2, 54912, Note_on_c, 0, 68, 87
2, 54912, Note_on_c, 0, 60, 87
2, 55001, Note_on_c, 0, 68, 0
2, 55001, Note_on_c, 0, 60, 0
2, 55104, End_track
3, 0, Start_track
3, 0, Program_c, 0, 0
3, 0, Control_c, 0, 7, 127
3, 0, Control_c, 0, 10, 64
3, 55104, End_track
4, 0, Start_track
4, 0, Program_c, 1, 0
4, 0, Control_c, 1, 7, 127
4, 0, Control_c, 1, 10, 64
4, 384, Note_on_c, 1, 63, 75
4, 517, Note_on_c, 1, 63, 0
4, 528, Note_on_c, 1, 56, 66
4, 573, Note_on_c, 1, 56, 0
4, 576, Note_on_c, 1, 56, 66
4, 621, Note_on_c, 1, 56, 0
4, 624, Note_on_c, 1, 56, 66
4, 713, Note_on_c, 1, 56, 0
4, 720, Note_on_c, 1, 55, 66
4, 765, Note_on_c, 1, 55, 0
4, 768, Note_on_c, 1, 56, 66
4, 813, Note_on_c, 1, 56, 0
4, 816, Note_on_c, 1, 51, 66
4, 861, Note_on_c, 1, 51, 0
4, 864, Note_on_c, 1, 44, 66
4, 909, Note_on_c, 1, 44, 0
4, 1152, Note_on_c, 1, 63, 75
4, 1285, Note_on_c, 1, 63, 0
4, 1296, Note_on_c, 1, 73, 66
4, 1341, Note_on_c, 1, 73, 0
4, 1344, Note_on_c, 1, 72, 66
4, 1433, Note_on_c, 1, 72, 0
4, 1488, Note_on_c, 1, 72, 66
4, 1533, Note_on_c, 1, 72, 0
4, 1536, Note_on_c, 1, 70, 66
4, 1581, Note_on_c, 1, 70, 0
4, 1584, Note_on_c, 1, 63, 66
4, 1629, Note_on_c, 1, 63, 0
4, 1632, Note_on_c, 1, 68, 66
4, 1677, Note_on_c, 1, 68, 0
4, 1752, Note_on_c, 1, 56, 80
4, 1775, Note_on_c, 1, 56, 0
4, 1776, Note_on_c, 1, 58, 80
4, 1799, Note_on_c, 1, 58, 0
4, 1800, Note_on_c, 1, 60, 80
4, 1823, Note_on_c, 1, 60, 0
4, 1824, Note_on_c, 1, 58, 80
4, 1847, Note_on_c, 1, 58, 0
4, 1848, Note_on_c, 1, 56, 80
4, 1871, Note_on_c, 1, 56, 0
4, 1872, Note_on_c, 1, 55, 80
4, 1895, Note_on_c, 1, 55, 0
4, 1896, Note_on_c, 1, 56, 80
4, 1919, Note_on_c, 1, 56, 0
4, 1944, Note_on_c, 1, 55, 80
4, 1967, Note_on_c, 1, 55, 0
4, 1968, Note_on_c, 1, 56, 80
4, 1991, Note_on_c, 1, 56, 0
4, 1992, Note_on_c, 1, 58, 80
4, 2015, Note_on_c, 1, 58, 0
4, 2016, Note_on_c, 1, 56, 80
4, 2039, Note_on_c, 1, 56, 0
4, 2040, Note_on_c, 1, 55, 80
4, 2063, Note_on_c, 1, 55, 0
4, 2064, Note_on_c, 1, 53, 80
4, 2087, Note_on_c, 1, 53, 0
4, 2088, Note_on_c, 1, 51, 80
4, 2111, Note_on_c, 1, 51, 0
4, 2112, Note_on_c, 1, 56, 80
4, 2201, Note_on_c, 1, 56, 0
4, 2304, Note_on_c, 1, 63, 80
4, 2304, Note_on_c, 1, 61, 80
4, 2393, Note_on_c, 1, 63, 0
4, 2393, Note_on_c, 1, 61, 0
4, 2496, Note_on_c, 1, 63, 80
4, 2496, Note_on_c, 1, 60, 80
4, 2585, Note_on_c, 1, 63, 0
4, 2585, Note_on_c, 1, 60, 0
4, 2688, Note_on_c, 1, 65, 80
4, 2688, Note_on_c, 1, 62, 80
4, 2777, Note_on_c, 1, 65, 0
4, 2777, Note_on_c, 1, 62, 0
4, 2880, Note_on_c, 1, 63, 80
4, 2969, Note_on_c, 1, 63, 0
4, 3072, Note_on_c, 1, 56, 80
4, 3072, Note_on_c, 1, 44, 80
4, 3161, Note_on_c, 1, 56, 0
4, 3161, Note_on_c, 1, 44, 0
4, 3168, Note_on_c, 1, 57, 80
4, 3168, Note_on_c, 1, 45, 80
4, 3257, Note_on_c, 1, 57, 0
4, 3257, Note_on_c, 1, 45, 0
4, 3264, Note_on_c, 1, 46, 80
4, 3264, Note_on_c, 1, 34, 80
4, 3353, Note_on_c, 1, 46, 0
4, 3353, Note_on_c, 1, 34, 0
4, 3408, Note_on_c, 1, 63, 75
4, 3453, Note_on_c, 1, 63, 0
4, 3456, Note_on_c, 1, 65, 75
4, 3501, Note_on_c, 1, 65, 0
4, 3504, Note_on_c, 1, 58, 75
4, 3549, Note_on_c, 1, 58, 0
4, 3552, Note_on_c, 1, 63, 75
4, 3597, Note_on_c, 1, 63, 0
4, 3600, Note_on_c, 1, 51, 75
4, 3645, Note_on_c, 1, 51, 0
4, 3648, Note_on_c, 1, 58, 75
4, 3693, Note_on_c, 1, 58, 0
4, 3696, Note_on_c, 1, 46, 75
4, 3741, Note_on_c, 1, 46, 0
4, 3792, Note_on_c, 1, 75, 66
4, 3837, Note_on_c, 1, 75, 0
4, 3840, Note_on_c, 1, 77, 66
4, 3885, Note_on_c, 1, 77, 0
4, 3888, Note_on_c, 1, 70, 66
4, 3933, Note_on_c, 1, 70, 0
4, 3936, Note_on_c, 1, 75, 66
4, 3981, Note_on_c, 1, 75, 0
4, 3984, Note_on_c, 1, 63, 66
4, 4029, Note_on_c, 1, 63, 0
4, 4032, Note_on_c, 1, 70, 66
4, 4077, Note_on_c, 1, 70, 0
4, 4080, Note_on_c, 1, 58, 66
4, 4125, Note_on_c, 1, 58, 0
4, 4224, Note_on_c, 1, 70, 80
4, 4224, Note_on_c, 1, 67, 80
4, 4224, Note_on_c, 1, 63, 80
4, 4313, Note_on_c, 1, 70, 0
4, 4313, Note_on_c, 1, 67, 0
4, 4313, Note_on_c, 1, 63, 0
4, 4368, Note_on_c, 1, 70, 80
4, 4368, Note_on_c, 1, 62, 80
4, 4413, Note_on_c, 1, 70, 0
4, 4413, Note_on_c, 1, 62, 0
4, 4416, Note_on_c, 1, 70, 80
4, 4416, Note_on_c, 1, 63, 80
4, 4461, Note_on_c, 1, 70, 0
4, 4461, Note_on_c, 1, 63, 0
4, 4464, Note_on_c, 1, 70, 75
4, 4464, Note_on_c, 1, 62, 75
4, 4509, Note_on_c, 1, 70, 0
4, 4509, Note_on_c, 1, 62, 0
4, 4512, Note_on_c, 1, 70, 70
4, 4512, Note_on_c, 1, 63, 70
4, 4557, Note_on_c, 1, 70, 0
4, 4557, Note_on_c, 1, 63, 0
4, 4608, Note_on_c, 1, 70, 66
4, 4608, Note_on_c, 1, 67, 66
4, 4608, Note_on_c, 1, 63, 66
4, 4697, Note_on_c, 1, 70, 0
4, 4697, Note_on_c, 1, 67, 0
4, 4697, Note_on_c, 1, 63, 0
4, 4752, Note_on_c, 1, 70, 66
4, 4752, Note_on_c, 1, 62, 66
4, 4797, Note_on_c, 1, 70, 0
4, 4797, Note_on_c, 1, 62, 0
4, 4800, Note_on_c, 1, 70, 66
4, 4800, Note_on_c, 1, 63, 66
4, 4845, Note_on_c, 1, 70, 0
4, 4845, Note_on_c, 1, 63, 0
4, 4848, Note_on_c, 1, 70, 70
4, 4848, Note_on_c, 1, 62, 70
4, 4893, Note_on_c, 1, 70, 0
4, 4893, Note_on_c, 1, 62, 0
4, 4896, Note_on_c, 1, 70, 75
4, 4896, Note_on_c, 1, 63, 75
4, 4941, Note_on_c, 1, 70, 0
4, 4941, Note_on_c, 1, 63, 0
4, 4992, Note_on_c, 1, 63, 80
4, 4992, Note_on_c, 1, 55, 80
4, 5169, Note_on_c, 1, 63, 0
4, 5169, Note_on_c, 1, 55, 0
4, 5184, Note_on_c, 1, 63, 80
4, 5184, Note_on_c, 1, 56, 80
4, 5361, Note_on_c, 1, 63, 0
4, 5361, Note_on_c, 1, 56, 0
4, 5424, Note_on_c, 1, 67, 80
4, 5469, Note_on_c, 1, 67, 0
4, 5472, Note_on_c, 1, 68, 80
4, 5517, Note_on_c, 1, 68, 0
4, 5520, Note_on_c, 1, 65, 80
4, 5565, Note_on_c, 1, 65, 0
4, 5568, Note_on_c, 1, 63, 80
4, 5613, Note_on_c, 1, 63, 0
4, 5616, Note_on_c, 1, 51, 80
4, 5661, Note_on_c, 1, 51, 0
4, 5712, Note_on_c, 1, 63, 80
4, 5757, Note_on_c, 1, 63, 0
4, 5760, Note_on_c, 1, 65, 80
4, 5805, Note_on_c, 1, 65, 0
4, 5808, Note_on_c, 1, 53, 80
4, 5853, Note_on_c, 1, 53, 0
4, 5856, Note_on_c, 1, 62, 80
4, 5901, Note_on_c, 1, 62, 0
4, 5904, Note_on_c, 1, 58, 80
4, 5949, Note_on_c, 1, 58, 0
4, 5952, Note_on_c, 1, 63, 80
4, 5997, Note_on_c, 1, 63, 0
4, 6000, Note_on_c, 1, 51, 80
4, 6045, Note_on_c, 1, 51, 0
4, 6048, Note_on_c, 1, 60, 80
4, 6093, Note_on_c, 1, 60, 0
4, 6096, Note_on_c, 1, 55, 80
4, 6141, Note_on_c, 1, 55, 0
4, 6144, Note_on_c, 1, 56, 80
4, 6189, Note_on_c, 1, 56, 0
4, 6192, Note_on_c, 1, 57, 80
4, 6237, Note_on_c, 1, 57, 0
4, 6240, Note_on_c, 1, 58, 80
4, 6285, Note_on_c, 1, 58, 0
4, 6288, Note_on_c, 1, 46, 80
4, 6333, Note_on_c, 1, 46, 0
4, 6336, Note_on_c, 1, 51, 80
4, 6425, Note_on_c, 1, 51, 0
4, 6480, Note_on_c, 1, 63, 80
4, 6525, Note_on_c, 1, 63, 0
4, 6528, Note_on_c, 1, 65, 80
4, 6573, Note_on_c, 1, 65, 0
4, 6576, Note_on_c, 1, 53, 80
4, 6621, Note_on_c, 1, 53, 0
4, 6624, Note_on_c, 1, 62, 80
4, 6669, Note_on_c, 1, 62, 0
4, 6672, Note_on_c, 1, 58, 80
4, 6717, Note_on_c, 1, 58, 0
4, 6720, Note_on_c, 1, 63, 80
4, 6765, Note_on_c, 1, 63, 0
4, 6768, Note_on_c, 1, 51, 80
4, 6813, Note_on_c, 1, 51, 0
4, 6816, Note_on_c, 1, 60, 80
4, 6861, Note_on_c, 1, 60, 0
4, 6864, Note_on_c, 1, 55, 80
4, 6909, Note_on_c, 1, 55, 0
4, 6912, Note_on_c, 1, 56, 80
4, 6957, Note_on_c, 1, 56, 0
4, 6960, Note_on_c, 1, 57, 80
4, 7005, Note_on_c, 1, 57, 0
4, 7008, Note_on_c, 1, 58, 80
4, 7053, Note_on_c, 1, 58, 0
4, 7056, Note_on_c, 1, 46, 80
4, 7101, Note_on_c, 1, 46, 0
4, 7104, Note_on_c, 1, 51, 80
4, 7193, Note_on_c, 1, 51, 0
4, 7488, Note_on_c, 1, 63, 75
4, 7621, Note_on_c, 1, 63, 0
4, 7632, Note_on_c, 1, 56, 66
4, 7677, Note_on_c, 1, 56, 0
4, 7680, Note_on_c, 1, 56, 66
4, 7725, Note_on_c, 1, 56, 0
4, 7728, Note_on_c, 1, 56, 66
4, 7817, Note_on_c, 1, 56, 0
4, 7824, Note_on_c, 1, 55, 66
4, 7869, Note_on_c, 1, 55, 0
4, 7872, Note_on_c, 1, 56, 66
4, 7917, Note_on_c, 1, 56, 0
4, 7920, Note_on_c, 1, 51, 66
4, 7965, Note_on_c, 1, 51, 0
4, 7968, Note_on_c, 1, 44, 66
4, 8013, Note_on_c, 1, 44, 0
4, 8256, Note_on_c, 1, 63, 75
4, 8389, Note_on_c, 1, 63, 0
4, 8400, Note_on_c, 1, 73, 66
4, 8445, Note_on_c, 1, 73, 0
4, 8448, Note_on_c, 1, 72, 66
4, 8537, Note_on_c, 1, 72, 0
4, 8592, Note_on_c, 1, 72, 66
4, 8637, Note_on_c, 1, 72, 0
4, 8640, Note_on_c, 1, 70, 66
4, 8685, Note_on_c, 1, 70, 0
4, 8688, Note_on_c, 1, 63, 66
4, 8733, Note_on_c, 1, 63, 0
4, 8736, Note_on_c, 1, 68, 66
4, 8781, Note_on_c, 1, 68, 0
4, 8856, Note_on_c, 1, 56, 80
4, 8879, Note_on_c, 1, 56, 0
4, 8880, Note_on_c, 1, 58, 80
4, 8903, Note_on_c, 1, 58, 0
4, 8904, Note_on_c, 1, 60, 80
4, 8927, Note_on_c, 1, 60, 0
4, 8928, Note_on_c, 1, 58, 80
4, 8951, Note_on_c, 1, 58, 0
4, 8952, Note_on_c, 1, 56, 80
4, 8975, Note_on_c, 1, 56, 0
4, 8976, Note_on_c, 1, 55, 80
4, 8999, Note_on_c, 1, 55, 0
4, 9000, Note_on_c, 1, 56, 80
4, 9023, Note_on_c, 1, 56, 0
4, 9048, Note_on_c, 1, 55, 80
4, 9071, Note_on_c, 1, 55, 0
4, 9072, Note_on_c, 1, 56, 80
4, 9095, Note_on_c, 1, 56, 0
4, 9096, Note_on_c, 1, 58, 80
4, 9119, Note_on_c, 1, 58, 0
4, 9120, Note_on_c, 1, 56, 80
4, 9143, Note_on_c, 1, 56, 0
4, 9144, Note_on_c, 1, 55, 80
4, 9167, Note_on_c, 1, 55, 0
4, 9168, Note_on_c, 1, 53, 80
4, 9191, Note_on_c, 1, 53, 0
4, 9192, Note_on_c, 1, 51, 80
4, 9215, Note_on_c, 1, 51, 0
4, 9216, Note_on_c, 1, 56, 80
4, 9305, Note_on_c, 1, 56, 0
4, 9408, Note_on_c, 1, 63, 80
4, 9408, Note_on_c, 1, 61, 80
4, 9497, Note_on_c, 1, 63, 0
4, 9497, Note_on_c, 1, 61, 0
4, 9600, Note_on_c, 1, 63, 80
4, 9600, Note_on_c, 1, 60, 80
4, 9689, Note_on_c, 1, 63, 0
4, 9689, Note_on_c, 1, 60, 0
4, 9792, Note_on_c, 1, 65, 80
4, 9792, Note_on_c, 1, 62, 80
4, 9881, Note_on_c, 1, 65, 0
4, 9881, Note_on_c, 1, 62, 0
4, 9984, Note_on_c, 1, 63, 80
4, 10073, Note_on_c, 1, 63, 0
4, 10176, Note_on_c, 1, 56, 80
4, 10176, Note_on_c, 1, 44, 80
4, 10265, Note_on_c, 1, 56, 0
4, 10265, Note_on_c, 1, 44, 0
4, 10272, Note_on_c, 1, 57, 80
4, 10272, Note_on_c, 1, 45, 80
4, 10361, Note_on_c, 1, 57, 0
4, 10361, Note_on_c, 1, 45, 0
4, 10368, Note_on_c, 1, 46, 80
4, 10368, Note_on_c, 1, 34, 80
4, 10457, Note_on_c, 1, 46, 0
4, 10457, Note_on_c, 1, 34, 0
4, 10512, Note_on_c, 1, 63, 75
4, 10557, Note_on_c, 1, 63, 0
4, 10560, Note_on_c, 1, 65, 75
4, 10605, Note_on_c, 1, 65, 0
4, 10608, Note_on_c, 1, 58, 75
4, 10653, Note_on_c, 1, 58, 0
4, 10656, Note_on_c, 1, 63, 75
4, 10701, Note_on_c, 1, 63, 0
4, 10704, Note_on_c, 1, 51, 75
4, 10749, Note_on_c, 1, 51, 0
4, 10752, Note_on_c, 1, 58, 75
4, 10797, Note_on_c, 1, 58, 0
4, 10800, Note_on_c, 1, 46, 75
4, 10845, Note_on_c, 1, 46, 0
4, 10896, Note_on_c, 1, 75, 66
4, 10941, Note_on_c, 1, 75, 0
4, 10944, Note_on_c, 1, 77, 66
4, 10989, Note_on_c, 1, 77, 0
4, 10992, Note_on_c, 1, 70, 66
4, 11037, Note_on_c, 1, 70, 0
4, 11040, Note_on_c, 1, 75, 66
4, 11085, Note_on_c, 1, 75, 0
4, 11088, Note_on_c, 1, 63, 66
4, 11133, Note_on_c, 1, 63, 0
4, 11136, Note_on_c, 1, 70, 66
4, 11181, Note_on_c, 1, 70, 0
4, 11184, Note_on_c, 1, 58, 66
4, 11229, Note_on_c, 1, 58, 0
4, 11328, Note_on_c, 1, 70, 80
4, 11328, Note_on_c, 1, 67, 80
4, 11328, Note_on_c, 1, 63, 80
4, 11417, Note_on_c, 1, 70, 0
4, 11417, Note_on_c, 1, 67, 0
4, 11417, Note_on_c, 1, 63, 0
4, 11472, Note_on_c, 1, 70, 80
4, 11472, Note_on_c, 1, 62, 80
4, 11517, Note_on_c, 1, 70, 0
4, 11517, Note_on_c, 1, 62, 0
4, 11520, Note_on_c, 1, 70, 80
4, 11520, Note_on_c, 1, 63, 80
4, 11565, Note_on_c, 1, 70, 0
4, 11565, Note_on_c, 1, 63, 0
4, 11568, Note_on_c, 1, 70, 75
4, 11568, Note_on_c, 1, 62, 75
4, 11613, Note_on_c, 1, 70, 0
4, 11613, Note_on_c, 1, 62, 0
4, 11616, Note_on_c, 1, 70, 70
4, 11616, Note_on_c, 1, 63, 70
4, 11661, Note_on_c, 1, 70, 0
4, 11661, Note_on_c, 1, 63, 0
4, 11712, Note_on_c, 1, 70, 66
4, 11712, Note_on_c, 1, 67, 66
4, 11712, Note_on_c, 1, 63, 66
4, 11801, Note_on_c, 1, 70, 0
4, 11801, Note_on_c, 1, 67, 0
4, 11801, Note_on_c, 1, 63, 0
4, 11856, Note_on_c, 1, 70, 66
4, 11856, Note_on_c, 1, 62, 66
4, 11901, Note_on_c, 1, 70, 0
4, 11901, Note_on_c, 1, 62, 0
4, 11904, Note_on_c, 1, 70, 66
4, 11904, Note_on_c, 1, 63, 66
4, 11949, Note_on_c, 1, 70, 0
4, 11949, Note_on_c, 1, 63, 0
4, 11952, Note_on_c, 1, 70, 70
4, 11952, Note_on_c, 1, 62, 70
4, 11997, Note_on_c, 1, 70, 0
4, 11997, Note_on_c, 1, 62, 0
4, 12000, Note_on_c, 1, 70, 75
4, 12000, Note_on_c, 1, 63, 75
4, 12045, Note_on_c, 1, 70, 0
4, 12045, Note_on_c, 1, 63, 0
4, 12096, Note_on_c, 1, 63, 80
4, 12096, Note_on_c, 1, 55, 80
4, 12273, Note_on_c, 1, 63, 0
4, 12273, Note_on_c, 1, 55, 0
4, 12288, Note_on_c, 1, 63, 80
4, 12288, Note_on_c, 1, 56, 80
4, 12465, Note_on_c, 1, 63, 0
4, 12465, Note_on_c, 1, 56, 0
4, 12528, Note_on_c, 1, 67, 80
4, 12573, Note_on_c, 1, 67, 0
4, 12576, Note_on_c, 1, 68, 80
4, 12621, Note_on_c, 1, 68, 0
4, 12624, Note_on_c, 1, 65, 80
4, 12669, Note_on_c, 1, 65, 0
4, 12672, Note_on_c, 1, 63, 80
4, 12717, Note_on_c, 1, 63, 0
4, 12720, Note_on_c, 1, 51, 80
4, 12765, Note_on_c, 1, 51, 0
4, 12816, Note_on_c, 1, 63, 80
4, 12861, Note_on_c, 1, 63, 0
4, 12864, Note_on_c, 1, 65, 80
4, 12909, Note_on_c, 1, 65, 0
4, 12912, Note_on_c, 1, 53, 80
4, 12957, Note_on_c, 1, 53, 0
4, 12960, Note_on_c, 1, 62, 80
4, 13005, Note_on_c, 1, 62, 0
4, 13008, Note_on_c, 1, 58, 80
4, 13053, Note_on_c, 1, 58, 0
4, 13056, Note_on_c, 1, 63, 80
4, 13101, Note_on_c, 1, 63, 0
4, 13104, Note_on_c, 1, 51, 80
4, 13149, Note_on_c, 1, 51, 0
4, 13152, Note_on_c, 1, 60, 80
4, 13197, Note_on_c, 1, 60, 0
4, 13200, Note_on_c, 1, 55, 80
4, 13245, Note_on_c, 1, 55, 0
4, 13248, Note_on_c, 1, 56, 80
4, 13293, Note_on_c, 1, 56, 0
4, 13296, Note_on_c, 1, 57, 80
4, 13341, Note_on_c, 1, 57, 0
4, 13344, Note_on_c, 1, 58, 80
4, 13389, Note_on_c, 1, 58, 0
4, 13392, Note_on_c, 1, 46, 80
4, 13437, Note_on_c, 1, 46, 0
4, 13440, Note_on_c, 1, 51, 80
4, 13529, Note_on_c, 1, 51, 0
4, 13584, Note_on_c, 1, 63, 80
4, 13629, Note_on_c, 1, 63, 0
4, 13632, Note_on_c, 1, 65, 80
4, 13677, Note_on_c, 1, 65, 0
4, 13680, Note_on_c, 1, 53, 80
4, 13725, Note_on_c, 1, 53, 0
4, 13728, Note_on_c, 1, 62, 80
4, 13773, Note_on_c, 1, 62, 0
4, 13776, Note_on_c, 1, 58, 80
4, 13821, Note_on_c, 1, 58, 0
4, 13824, Note_on_c, 1, 63, 80
4, 13869, Note_on_c, 1, 63, 0
4, 13872, Note_on_c, 1, 51, 80
4, 13917, Note_on_c, 1, 51, 0
4, 13920, Note_on_c, 1, 60, 80
4, 13965, Note_on_c, 1, 60, 0
4, 13968, Note_on_c, 1, 55, 80
4, 14013, Note_on_c, 1, 55, 0
4, 14016, Note_on_c, 1, 56, 80
4, 14061, Note_on_c, 1, 56, 0
4, 14064, Note_on_c, 1, 57, 80
4, 14109, Note_on_c, 1, 57, 0
4, 14112, Note_on_c, 1, 58, 80
4, 14157, Note_on_c, 1, 58, 0
4, 14160, Note_on_c, 1, 46, 80
4, 14205, Note_on_c, 1, 46, 0
4, 14208, Note_on_c, 1, 51, 80
4, 14297, Note_on_c, 1, 51, 0
4, 14592, Note_on_c, 1, 58, 75
4, 14592, Note_on_c, 1, 56, 75
4, 14681, Note_on_c, 1, 58, 0
4, 14681, Note_on_c, 1, 56, 0
4, 14688, Note_on_c, 1, 55, 75
4, 14733, Note_on_c, 1, 55, 0
4, 14736, Note_on_c, 1, 68, 66
4, 14781, Note_on_c, 1, 68, 0
4, 14784, Note_on_c, 1, 67, 66
4, 14873, Note_on_c, 1, 67, 0
4, 14928, Note_on_c, 1, 67, 66
4, 14973, Note_on_c, 1, 67, 0
4, 14976, Note_on_c, 1, 65, 66
4, 15021, Note_on_c, 1, 65, 0
4, 15024, Note_on_c, 1, 58, 66
4, 15069, Note_on_c, 1, 58, 0
4, 15072, Note_on_c, 1, 63, 66
4, 15117, Note_on_c, 1, 63, 0
4, 15360, Note_on_c, 1, 70, 75
4, 15493, Note_on_c, 1, 70, 0
4, 15504, Note_on_c, 1, 68, 66
4, 15549, Note_on_c, 1, 68, 0
4, 15552, Note_on_c, 1, 67, 66
4, 15641, Note_on_c, 1, 67, 0
4, 15648, Note_on_c, 1, 65, 66
4, 15693, Note_on_c, 1, 65, 0
4, 15696, Note_on_c, 1, 58, 66
4, 15741, Note_on_c, 1, 58, 0
4, 15744, Note_on_c, 1, 63, 66
4, 15789, Note_on_c, 1, 63, 0
4, 15792, Note_on_c, 1, 58, 66
4, 15837, Note_on_c, 1, 58, 0
4, 15840, Note_on_c, 1, 51, 66
4, 15885, Note_on_c, 1, 51, 0
4, 15936, Note_on_c, 1, 51, 80
4, 15936, Note_on_c, 1, 43, 80
4, 16113, Note_on_c, 1, 51, 0
4, 16113, Note_on_c, 1, 43, 0
4, 16128, Note_on_c, 1, 51, 80
4, 16128, Note_on_c, 1, 44, 80
4, 16305, Note_on_c, 1, 51, 0
4, 16305, Note_on_c, 1, 44, 0
4, 16320, Note_on_c, 1, 56, 80
4, 16320, Note_on_c, 1, 48, 80
4, 16497, Note_on_c, 1, 56, 0
4, 16497, Note_on_c, 1, 48, 0
4, 16512, Note_on_c, 1, 56, 80
4, 16512, Note_on_c, 1, 49, 80
4, 16689, Note_on_c, 1, 56, 0
4, 16689, Note_on_c, 1, 49, 0
4, 16704, Note_on_c, 1, 58, 80
4, 16704, Note_on_c, 1, 50, 80
4, 16881, Note_on_c, 1, 58, 0
4, 16881, Note_on_c, 1, 50, 0
4, 16896, Note_on_c, 1, 58, 80
4, 16896, Note_on_c, 1, 51, 80
4, 17073, Note_on_c, 1, 58, 0
4, 17073, Note_on_c, 1, 51, 0
4, 17088, Note_on_c, 1, 60, 80
4, 17088, Note_on_c, 1, 52, 80
4, 17265, Note_on_c, 1, 60, 0
4, 17265, Note_on_c, 1, 52, 0
4, 17280, Note_on_c, 1, 60, 80
4, 17280, Note_on_c, 1, 53, 80
4, 17369, Note_on_c, 1, 60, 0
4, 17369, Note_on_c, 1, 53, 0
4, 17472, Note_on_c, 1, 58, 80
4, 17561, Note_on_c, 1, 58, 0
4, 17664, Note_on_c, 1, 70, 80
4, 17753, Note_on_c, 1, 70, 0
4, 17856, Note_on_c, 1, 64, 80
4, 17945, Note_on_c, 1, 64, 0
4, 18072, Note_on_c, 1, 65, 80
4, 18095, Note_on_c, 1, 65, 0
4, 18096, Note_on_c, 1, 67, 80
4, 18119, Note_on_c, 1, 67, 0
4, 18120, Note_on_c, 1, 68, 80
4, 18143, Note_on_c, 1, 68, 0
4, 18144, Note_on_c, 1, 67, 80
4, 18167, Note_on_c, 1, 67, 0
4, 18168, Note_on_c, 1, 65, 80
4, 18191, Note_on_c, 1, 65, 0
4, 18192, Note_on_c, 1, 64, 80
4, 18215, Note_on_c, 1, 64, 0
4, 18216, Note_on_c, 1, 65, 80
4, 18239, Note_on_c, 1, 65, 0
4, 18264, Note_on_c, 1, 61, 80
4, 18287, Note_on_c, 1, 61, 0
4, 18288, Note_on_c, 1, 63, 80
4, 18311, Note_on_c, 1, 63, 0
4, 18312, Note_on_c, 1, 65, 80
4, 18335, Note_on_c, 1, 65, 0
4, 18336, Note_on_c, 1, 63, 80
4, 18359, Note_on_c, 1, 63, 0
4, 18360, Note_on_c, 1, 61, 80
4, 18383, Note_on_c, 1, 61, 0
4, 18384, Note_on_c, 1, 60, 80
4, 18407, Note_on_c, 1, 60, 0
4, 18408, Note_on_c, 1, 58, 80
4, 18431, Note_on_c, 1, 58, 0
4, 18456, Note_on_c, 1, 67, 80
4, 18479, Note_on_c, 1, 67, 0
4, 18480, Note_on_c, 1, 68, 80
4, 18503, Note_on_c, 1, 68, 0
4, 18504, Note_on_c, 1, 70, 80
4, 18527, Note_on_c, 1, 70, 0
4, 18528, Note_on_c, 1, 68, 80
4, 18551, Note_on_c, 1, 68, 0
4, 18552, Note_on_c, 1, 67, 80
4, 18575, Note_on_c, 1, 67, 0
4, 18576, Note_on_c, 1, 65, 80
4, 18599, Note_on_c, 1, 65, 0
4, 18600, Note_on_c, 1, 63, 80
4, 18623, Note_on_c, 1, 63, 0
4, 18648, Note_on_c, 1, 68, 80
4, 18671, Note_on_c, 1, 68, 0
4, 18672, Note_on_c, 1, 70, 80
4, 18695, Note_on_c, 1, 70, 0
4, 18696, Note_on_c, 1, 72, 80
4, 18719, Note_on_c, 1, 72, 0
4, 18720, Note_on_c, 1, 70, 80
4, 18743, Note_on_c, 1, 70, 0
4, 18744, Note_on_c, 1, 68, 80
4, 18767, Note_on_c, 1, 68, 0
4, 18768, Note_on_c, 1, 67, 80
4, 18791, Note_on_c, 1, 67, 0
4, 18792, Note_on_c, 1, 68, 80
4, 18815, Note_on_c, 1, 68, 0
4, 18840, Note_on_c, 1, 65, 80
4, 18863, Note_on_c, 1, 65, 0
4, 18864, Note_on_c, 1, 67, 80
4, 18887, Note_on_c, 1, 67, 0
4, 18888, Note_on_c, 1, 68, 80
4, 18911, Note_on_c, 1, 68, 0
4, 18912, Note_on_c, 1, 67, 80
4, 18935, Note_on_c, 1, 67, 0
4, 18936, Note_on_c, 1, 65, 80
4, 18959, Note_on_c, 1, 65, 0
4, 18960, Note_on_c, 1, 63, 80
4, 18983, Note_on_c, 1, 63, 0
4, 18984, Note_on_c, 1, 61, 80
4, 19007, Note_on_c, 1, 61, 0
4, 19032, Note_on_c, 1, 67, 80
4, 19055, Note_on_c, 1, 67, 0
4, 19056, Note_on_c, 1, 68, 80
4, 19079, Note_on_c, 1, 68, 0
4, 19080, Note_on_c, 1, 70, 80
4, 19103, Note_on_c, 1, 70, 0
4, 19104, Note_on_c, 1, 68, 80
4, 19127, Note_on_c, 1, 68, 0
4, 19128, Note_on_c, 1, 67, 80
4, 19151, Note_on_c, 1, 67, 0
4, 19152, Note_on_c, 1, 65, 80
4, 19175, Note_on_c, 1, 65, 0
4, 19176, Note_on_c, 1, 67, 80
4, 19199, Note_on_c, 1, 67, 0
4, 19224, Note_on_c, 1, 64, 80
4, 19247, Note_on_c, 1, 64, 0
4, 19248, Note_on_c, 1, 65, 80
4, 19271, Note_on_c, 1, 65, 0
4, 19272, Note_on_c, 1, 67, 80
4, 19295, Note_on_c, 1, 67, 0
4, 19296, Note_on_c, 1, 65, 80
4, 19319, Note_on_c, 1, 65, 0
4, 19320, Note_on_c, 1, 64, 80
4, 19343, Note_on_c, 1, 64, 0
4, 19344, Note_on_c, 1, 62, 80
4, 19367, Note_on_c, 1, 62, 0
4, 19368, Note_on_c, 1, 60, 80
4, 19391, Note_on_c, 1, 60, 0
4, 19392, Note_on_c, 1, 65, 75
4, 19481, Note_on_c, 1, 65, 0
4, 19584, Note_on_c, 1, 67, 75
4, 19584, Note_on_c, 1, 63, 75
4, 19673, Note_on_c, 1, 67, 0
4, 19673, Note_on_c, 1, 63, 0
4, 19776, Note_on_c, 1, 68, 75
4, 19776, Note_on_c, 1, 61, 75
4, 19865, Note_on_c, 1, 68, 0
4, 19865, Note_on_c, 1, 61, 0
4, 19968, Note_on_c, 1, 71, 77
4, 19968, Note_on_c, 1, 61, 77
4, 20057, Note_on_c, 1, 71, 0
4, 20057, Note_on_c, 1, 61, 0
4, 20160, Note_on_c, 1, 72, 79
4, 20160, Note_on_c, 1, 60, 79
4, 20249, Note_on_c, 1, 72, 0
4, 20249, Note_on_c, 1, 60, 0
4, 20304, Note_on_c, 1, 68, 80
4, 20349, Note_on_c, 1, 68, 0
4, 20352, Note_on_c, 1, 70, 80
4, 20397, Note_on_c, 1, 70, 0
4, 20400, Note_on_c, 1, 58, 80
4, 20445, Note_on_c, 1, 58, 0
4, 20448, Note_on_c, 1, 67, 80
4, 20493, Note_on_c, 1, 67, 0
4, 20496, Note_on_c, 1, 55, 80
4, 20541, Note_on_c, 1, 55, 0
4, 20544, Note_on_c, 1, 64, 80
4, 20589, Note_on_c, 1, 64, 0
4, 20592, Note_on_c, 1, 60, 80
4, 20637, Note_on_c, 1, 60, 0
4, 20640, Note_on_c, 1, 65, 80
4, 20685, Note_on_c, 1, 65, 0
4, 20688, Note_on_c, 1, 68, 80
4, 20733, Note_on_c, 1, 68, 0
4, 20736, Note_on_c, 1, 70, 80
4, 20781, Note_on_c, 1, 70, 0
4, 20784, Note_on_c, 1, 67, 80
4, 20829, Note_on_c, 1, 67, 0
4, 20832, Note_on_c, 1, 72, 80
4, 20877, Note_on_c, 1, 72, 0
4, 20880, Note_on_c, 1, 60, 80
4, 20925, Note_on_c, 1, 60, 0
4, 20928, Note_on_c, 1, 65, 80
4, 20973, Note_on_c, 1, 65, 0
4, 20976, Note_on_c, 1, 53, 80
4, 21021, Note_on_c, 1, 53, 0
4, 21072, Note_on_c, 1, 68, 80
4, 21117, Note_on_c, 1, 68, 0
4, 21120, Note_on_c, 1, 70, 80
4, 21165, Note_on_c, 1, 70, 0
4, 21168, Note_on_c, 1, 58, 80
4, 21213, Note_on_c, 1, 58, 0
4, 21216, Note_on_c, 1, 67, 80
4, 21261, Note_on_c, 1, 67, 0
4, 21264, Note_on_c, 1, 55, 80
4, 21309, Note_on_c, 1, 55, 0
4, 21312, Note_on_c, 1, 40, 80
4, 21357, Note_on_c, 1, 40, 0
4, 21360, Note_on_c, 1, 52, 80
4, 21405, Note_on_c, 1, 52, 0
4, 21408, Note_on_c, 1, 41, 80
4, 21453, Note_on_c, 1, 41, 0
4, 21456, Note_on_c, 1, 53, 80
4, 21501, Note_on_c, 1, 53, 0
4, 21504, Note_on_c, 1, 38, 80
4, 21549, Note_on_c, 1, 38, 0
4, 21552, Note_on_c, 1, 50, 80
4, 21597, Note_on_c, 1, 50, 0
4, 21600, Note_on_c, 1, 39, 80
4, 21645, Note_on_c, 1, 39, 0
4, 21648, Note_on_c, 1, 51, 80
4, 21693, Note_on_c, 1, 51, 0
4, 21696, Note_on_c, 1, 36, 80
4, 21741, Note_on_c, 1, 36, 0
4, 21744, Note_on_c, 1, 48, 80
4, 21789, Note_on_c, 1, 48, 0
4, 21792, Note_on_c, 1, 38, 80
4, 21837, Note_on_c, 1, 38, 0
4, 21840, Note_on_c, 1, 50, 80
4, 21885, Note_on_c, 1, 50, 0
4, 21888, Note_on_c, 1, 35, 80
4, 21933, Note_on_c, 1, 35, 0
4, 21936, Note_on_c, 1, 47, 80
4, 21981, Note_on_c, 1, 47, 0
4, 21984, Note_on_c, 1, 36, 80
4, 22029, Note_on_c, 1, 36, 0
4, 22032, Note_on_c, 1, 48, 80
4, 22077, Note_on_c, 1, 48, 0
4, 22080, Note_on_c, 1, 33, 80
4, 22125, Note_on_c, 1, 33, 0
4, 22128, Note_on_c, 1, 45, 80
4, 22173, Note_on_c, 1, 45, 0
4, 22176, Note_on_c, 1, 34, 80
4, 22221, Note_on_c, 1, 34, 0
4, 22224, Note_on_c, 1, 46, 80
4, 22269, Note_on_c, 1, 46, 0
4, 22272, Note_on_c, 1, 31, 80
4, 22317, Note_on_c, 1, 31, 0
4, 22320, Note_on_c, 1, 43, 80
4, 22365, Note_on_c, 1, 43, 0
4, 22368, Note_on_c, 1, 32, 80
4, 22413, Note_on_c, 1, 32, 0
4, 22416, Note_on_c, 1, 44, 80
4, 22461, Note_on_c, 1, 44, 0
4, 22464, Note_on_c, 1, 29, 80
4, 22509, Note_on_c, 1, 29, 0
4, 22512, Note_on_c, 1, 41, 80
4, 22557, Note_on_c, 1, 41, 0
4, 22560, Note_on_c, 1, 30, 80
4, 22605, Note_on_c, 1, 30, 0
4, 22608, Note_on_c, 1, 42, 80
4, 22653, Note_on_c, 1, 42, 0
4, 22896, Note_on_c, 1, 58, 80
4, 22941, Note_on_c, 1, 58, 0
4, 22992, Note_on_c, 1, 56, 80
4, 23037, Note_on_c, 1, 56, 0
4, 23088, Note_on_c, 1, 55, 80
4, 23133, Note_on_c, 1, 55, 0
4, 23184, Note_on_c, 1, 56, 80
4, 23229, Note_on_c, 1, 56, 0
4, 23280, Note_on_c, 1, 58, 80
4, 23325, Note_on_c, 1, 58, 0
4, 23376, Note_on_c, 1, 56, 80
4, 23421, Note_on_c, 1, 56, 0
4, 23472, Note_on_c, 1, 53, 87
4, 23517, Note_on_c, 1, 53, 0
4, 23520, Note_on_c, 1, 56, 87
4, 23565, Note_on_c, 1, 56, 0
4, 23568, Note_on_c, 1, 53, 87
4, 23613, Note_on_c, 1, 53, 0
4, 23616, Note_on_c, 1, 51, 87
4, 23705, Note_on_c, 1, 51, 0
4, 24000, Note_on_c, 1, 63, 75
4, 24133, Note_on_c, 1, 63, 0
4, 24144, Note_on_c, 1, 56, 66
4, 24189, Note_on_c, 1, 56, 0
4, 24192, Note_on_c, 1, 56, 66
4, 24237, Note_on_c, 1, 56, 0
4, 24240, Note_on_c, 1, 56, 66
4, 24329, Note_on_c, 1, 56, 0
4, 24336, Note_on_c, 1, 55, 66
4, 24381, Note_on_c, 1, 55, 0
4, 24384, Note_on_c, 1, 56, 66
4, 24429, Note_on_c, 1, 56, 0
4, 24432, Note_on_c, 1, 51, 66
4, 24477, Note_on_c, 1, 51, 0
4, 24480, Note_on_c, 1, 44, 66
4, 24525, Note_on_c, 1, 44, 0
4, 24768, Note_on_c, 1, 63, 75
4, 24901, Note_on_c, 1, 63, 0
4, 24912, Note_on_c, 1, 73, 66
4, 24957, Note_on_c, 1, 73, 0
4, 24960, Note_on_c, 1, 72, 66
4, 25049, Note_on_c, 1, 72, 0
4, 25104, Note_on_c, 1, 72, 66
4, 25149, Note_on_c, 1, 72, 0
4, 25152, Note_on_c, 1, 70, 66
4, 25197, Note_on_c, 1, 70, 0
4, 25200, Note_on_c, 1, 63, 66
4, 25245, Note_on_c, 1, 63, 0
4, 25248, Note_on_c, 1, 68, 66
4, 25293, Note_on_c, 1, 68, 0
4, 25368, Note_on_c, 1, 56, 66
4, 25391, Note_on_c, 1, 56, 0
4, 25392, Note_on_c, 1, 58, 66
4, 25415, Note_on_c, 1, 58, 0
4, 25416, Note_on_c, 1, 60, 66
4, 25439, Note_on_c, 1, 60, 0
4, 25440, Note_on_c, 1, 58, 66
4, 25463, Note_on_c, 1, 58, 0
4, 25464, Note_on_c, 1, 56, 66
4, 25487, Note_on_c, 1, 56, 0
4, 25488, Note_on_c, 1, 55, 66
4, 25511, Note_on_c, 1, 55, 0
4, 25512, Note_on_c, 1, 56, 66
4, 25535, Note_on_c, 1, 56, 0
4, 25560, Note_on_c, 1, 55, 66
4, 25583, Note_on_c, 1, 55, 0
4, 25584, Note_on_c, 1, 56, 66
4, 25607, Note_on_c, 1, 56, 0
4, 25608, Note_on_c, 1, 58, 66
4, 25631, Note_on_c, 1, 58, 0
4, 25632, Note_on_c, 1, 56, 66
4, 25655, Note_on_c, 1, 56, 0
4, 25656, Note_on_c, 1, 55, 66
4, 25679, Note_on_c, 1, 55, 0
4, 25680, Note_on_c, 1, 53, 66
4, 25703, Note_on_c, 1, 53, 0
4, 25704, Note_on_c, 1, 51, 66
4, 25727, Note_on_c, 1, 51, 0
4, 25728, Note_on_c, 1, 56, 66
4, 25817, Note_on_c, 1, 56, 0
4, 25920, Note_on_c, 1, 63, 66
4, 25920, Note_on_c, 1, 61, 66
4, 26009, Note_on_c, 1, 63, 0
4, 26009, Note_on_c, 1, 61, 0
4, 26112, Note_on_c, 1, 63, 66
4, 26112, Note_on_c, 1, 60, 66
4, 26201, Note_on_c, 1, 63, 0
4, 26201, Note_on_c, 1, 60, 0
4, 26304, Note_on_c, 1, 56, 66
4, 26304, Note_on_c, 1, 48, 66
4, 26393, Note_on_c, 1, 56, 0
4, 26393, Note_on_c, 1, 48, 0
4, 26496, Note_on_c, 1, 56, 66
4, 26496, Note_on_c, 1, 49, 66
4, 26585, Note_on_c, 1, 56, 0
4, 26585, Note_on_c, 1, 49, 0
4, 26688, Note_on_c, 1, 58, 66
4, 26688, Note_on_c, 1, 50, 66
4, 26777, Note_on_c, 1, 58, 0
4, 26777, Note_on_c, 1, 50, 0
4, 26880, Note_on_c, 1, 58, 66
4, 26880, Note_on_c, 1, 51, 66
4, 26969, Note_on_c, 1, 58, 0
4, 26969, Note_on_c, 1, 51, 0
4, 27072, Note_on_c, 1, 51, 66
4, 27072, Note_on_c, 1, 43, 66
4, 27161, Note_on_c, 1, 51, 0
4, 27161, Note_on_c, 1, 43, 0
4, 27264, Note_on_c, 1, 51, 66
4, 27264, Note_on_c, 1, 44, 66
4, 27353, Note_on_c, 1, 51, 0
4, 27353, Note_on_c, 1, 44, 0
4, 27456, Note_on_c, 1, 49, 66
4, 27545, Note_on_c, 1, 49, 0
4, 27552, Note_on_c, 1, 50, 66
4, 27641, Note_on_c, 1, 50, 0
4, 27648, Note_on_c, 1, 51, 66
4, 27737, Note_on_c, 1, 51, 0
4, 27792, Note_on_c, 1, 56, 66
4, 27837, Note_on_c, 1, 56, 0
4, 27840, Note_on_c, 1, 58, 66
4, 27885, Note_on_c, 1, 58, 0
4, 27888, Note_on_c, 1, 51, 66
4, 27933, Note_on_c, 1, 51, 0
4, 27936, Note_on_c, 1, 56, 66
4, 27981, Note_on_c, 1, 56, 0
4, 27984, Note_on_c, 1, 44, 66
4, 28029, Note_on_c, 1, 44, 0
4, 28032, Note_on_c, 1, 51, 66
4, 28077, Note_on_c, 1, 51, 0
4, 28080, Note_on_c, 1, 39, 66
4, 28125, Note_on_c, 1, 39, 0
4, 28176, Note_on_c, 1, 68, 66
4, 28221, Note_on_c, 1, 68, 0
4, 28224, Note_on_c, 1, 70, 66
4, 28269, Note_on_c, 1, 70, 0
4, 28272, Note_on_c, 1, 63, 66
4, 28317, Note_on_c, 1, 63, 0
4, 28320, Note_on_c, 1, 68, 66
4, 28365, Note_on_c, 1, 68, 0
4, 28368, Note_on_c, 1, 56, 66
4, 28413, Note_on_c, 1, 56, 0
4, 28416, Note_on_c, 1, 63, 66
4, 28461, Note_on_c, 1, 63, 0
4, 28464, Note_on_c, 1, 51, 66
4, 28509, Note_on_c, 1, 51, 0
4, 28608, Note_on_c, 1, 63, 80
4, 28608, Note_on_c, 1, 60, 80
4, 28608, Note_on_c, 1, 56, 80
4, 28697, Note_on_c, 1, 63, 0
4, 28697, Note_on_c, 1, 60, 0
4, 28697, Note_on_c, 1, 56, 0
4, 28752, Note_on_c, 1, 63, 80
4, 28752, Note_on_c, 1, 55, 80
4, 28797, Note_on_c, 1, 63, 0
4, 28797, Note_on_c, 1, 55, 0
4, 28800, Note_on_c, 1, 63, 80
4, 28800, Note_on_c, 1, 56, 80
4, 28845, Note_on_c, 1, 63, 0
4, 28845, Note_on_c, 1, 56, 0
4, 28848, Note_on_c, 1, 63, 75
4, 28848, Note_on_c, 1, 55, 75
4, 28893, Note_on_c, 1, 63, 0
4, 28893, Note_on_c, 1, 55, 0
4, 28896, Note_on_c, 1, 63, 70
4, 28896, Note_on_c, 1, 56, 70
4, 28941, Note_on_c, 1, 63, 0
4, 28941, Note_on_c, 1, 56, 0
4, 28992, Note_on_c, 1, 63, 66
4, 28992, Note_on_c, 1, 60, 66
4, 28992, Note_on_c, 1, 56, 66
4, 29081, Note_on_c, 1, 63, 0
4, 29081, Note_on_c, 1, 60, 0
4, 29081, Note_on_c, 1, 56, 0
4, 29136, Note_on_c, 1, 63, 66
4, 29136, Note_on_c, 1, 55, 66
4, 29181, Note_on_c, 1, 63, 0
4, 29181, Note_on_c, 1, 55, 0
4, 29184, Note_on_c, 1, 63, 66
4, 29184, Note_on_c, 1, 56, 66
4, 29229, Note_on_c, 1, 63, 0
4, 29229, Note_on_c, 1, 56, 0
4, 29232, Note_on_c, 1, 63, 70
4, 29232, Note_on_c, 1, 55, 70
4, 29277, Note_on_c, 1, 63, 0
4, 29277, Note_on_c, 1, 55, 0
4, 29280, Note_on_c, 1, 63, 75
4, 29280, Note_on_c, 1, 56, 75
4, 29325, Note_on_c, 1, 63, 0
4, 29325, Note_on_c, 1, 56, 0
4, 29376, Note_on_c, 1, 56, 80
4, 29376, Note_on_c, 1, 48, 80
4, 29553, Note_on_c, 1, 56, 0
4, 29553, Note_on_c, 1, 48, 0
4, 29568, Note_on_c, 1, 56, 80
4, 29568, Note_on_c, 1, 49, 80
4, 29760, Note_on_c, 1, 49, 0
4, 29805, Note_on_c, 1, 56, 0
4, 29808, Note_on_c, 1, 60, 80
4, 29853, Note_on_c, 1, 60, 0
4, 29856, Note_on_c, 1, 61, 80
4, 29901, Note_on_c, 1, 61, 0
4, 29904, Note_on_c, 1, 58, 80
4, 29949, Note_on_c, 1, 58, 0
4, 29952, Note_on_c, 1, 56, 80
4, 29997, Note_on_c, 1, 56, 0
4, 30000, Note_on_c, 1, 51, 80
4, 30045, Note_on_c, 1, 51, 0
4, 30048, Note_on_c, 1, 44, 80
4, 30093, Note_on_c, 1, 44, 0
4, 30192, Note_on_c, 1, 56, 70
4, 30237, Note_on_c, 1, 56, 0
4, 30240, Note_on_c, 1, 56, 70
4, 30285, Note_on_c, 1, 56, 0
4, 30288, Note_on_c, 1, 56, 70
4, 30333, Note_on_c, 1, 56, 0
4, 30384, Note_on_c, 1, 58, 70
4, 30429, Note_on_c, 1, 58, 0
4, 30432, Note_on_c, 1, 58, 70
4, 30477, Note_on_c, 1, 58, 0
4, 30480, Note_on_c, 1, 58, 70
4, 30525, Note_on_c, 1, 58, 0
4, 30576, Note_on_c, 1, 60, 70
4, 30621, Note_on_c, 1, 60, 0
4, 30624, Note_on_c, 1, 60, 70
4, 30669, Note_on_c, 1, 60, 0
4, 30672, Note_on_c, 1, 60, 70
4, 30717, Note_on_c, 1, 60, 0
4, 30768, Note_on_c, 1, 61, 70
4, 30813, Note_on_c, 1, 61, 0
4, 30816, Note_on_c, 1, 61, 71
4, 30861, Note_on_c, 1, 61, 0
4, 30864, Note_on_c, 1, 61, 72
4, 30909, Note_on_c, 1, 61, 0
4, 30960, Note_on_c, 1, 63, 74
4, 31005, Note_on_c, 1, 63, 0
4, 31008, Note_on_c, 1, 63, 75
4, 31053, Note_on_c, 1, 63, 0
4, 31056, Note_on_c, 1, 63, 75
4, 31101, Note_on_c, 1, 63, 0
4, 31152, Note_on_c, 1, 63, 77
4, 31197, Note_on_c, 1, 63, 0
4, 31200, Note_on_c, 1, 63, 78
4, 31245, Note_on_c, 1, 63, 0
4, 31248, Note_on_c, 1, 63, 79
4, 31293, Note_on_c, 1, 63, 0
4, 31344, Note_on_c, 1, 63, 80
4, 31389, Note_on_c, 1, 63, 0
4, 31392, Note_on_c, 1, 63, 80
4, 31437, Note_on_c, 1, 63, 0
4, 31440, Note_on_c, 1, 63, 80
4, 31485, Note_on_c, 1, 63, 0
4, 31488, Note_on_c, 1, 56, 80
4, 31533, Note_on_c, 1, 56, 0
4, 31536, Note_on_c, 1, 60, 80
4, 31581, Note_on_c, 1, 60, 0
4, 31632, Note_on_c, 1, 56, 80
4, 31632, Note_on_c, 1, 48, 80
4, 31677, Note_on_c, 1, 56, 0
4, 31677, Note_on_c, 1, 48, 0
4, 31680, Note_on_c, 1, 56, 80
4, 31680, Note_on_c, 1, 49, 80
4, 31872, Note_on_c, 1, 49, 0
4, 31917, Note_on_c, 1, 56, 0
4, 31920, Note_on_c, 1, 60, 80
4, 31965, Note_on_c, 1, 60, 0
4, 31968, Note_on_c, 1, 61, 80
4, 32013, Note_on_c, 1, 61, 0
4, 32016, Note_on_c, 1, 58, 80
4, 32061, Note_on_c, 1, 58, 0
4, 32064, Note_on_c, 1, 56, 80
4, 32109, Note_on_c, 1, 56, 0
4, 32112, Note_on_c, 1, 44, 80
4, 32157, Note_on_c, 1, 44, 0
4, 32208, Note_on_c, 1, 56, 80
4, 32253, Note_on_c, 1, 56, 0
4, 32256, Note_on_c, 1, 58, 80
4, 32301, Note_on_c, 1, 58, 0
4, 32304, Note_on_c, 1, 46, 80
4, 32349, Note_on_c, 1, 46, 0
4, 32352, Note_on_c, 1, 55, 80
4, 32397, Note_on_c, 1, 55, 0
4, 32400, Note_on_c, 1, 51, 80
4, 32445, Note_on_c, 1, 51, 0
4, 32448, Note_on_c, 1, 56, 80
4, 32493, Note_on_c, 1, 56, 0
4, 32496, Note_on_c, 1, 44, 80
4, 32541, Note_on_c, 1, 44, 0
4, 32544, Note_on_c, 1, 53, 80
4, 32589, Note_on_c, 1, 53, 0
4, 32592, Note_on_c, 1, 48, 80
4, 32637, Note_on_c, 1, 48, 0
4, 32640, Note_on_c, 1, 49, 80
4, 32685, Note_on_c, 1, 49, 0
4, 32688, Note_on_c, 1, 50, 80
4, 32733, Note_on_c, 1, 50, 0
4, 32736, Note_on_c, 1, 51, 80
4, 32781, Note_on_c, 1, 51, 0
4, 32784, Note_on_c, 1, 51, 80
4, 32829, Note_on_c, 1, 51, 0
4, 32832, Note_on_c, 1, 44, 80
4, 32921, Note_on_c, 1, 44, 0
4, 32976, Note_on_c, 1, 68, 80
4, 33021, Note_on_c, 1, 68, 0
4, 33024, Note_on_c, 1, 70, 80
4, 33069, Note_on_c, 1, 70, 0
4, 33072, Note_on_c, 1, 58, 80
4, 33117, Note_on_c, 1, 58, 0
4, 33120, Note_on_c, 1, 67, 80
4, 33165, Note_on_c, 1, 67, 0
4, 33168, Note_on_c, 1, 63, 80
4, 33213, Note_on_c, 1, 63, 0
4, 33216, Note_on_c, 1, 68, 80
4, 33261, Note_on_c, 1, 68, 0
4, 33264, Note_on_c, 1, 56, 80
4, 33309, Note_on_c, 1, 56, 0
4, 33312, Note_on_c, 1, 65, 80
4, 33357, Note_on_c, 1, 65, 0
4, 33360, Note_on_c, 1, 60, 80
4, 33405, Note_on_c, 1, 60, 0
4, 33408, Note_on_c, 1, 61, 80
4, 33453, Note_on_c, 1, 61, 0
4, 33456, Note_on_c, 1, 62, 80
4, 33501, Note_on_c, 1, 62, 0
4, 33504, Note_on_c, 1, 63, 80
4, 33549, Note_on_c, 1, 63, 0
4, 33552, Note_on_c, 1, 51, 80
4, 33597, Note_on_c, 1, 51, 0
4, 33600, Note_on_c, 1, 44, 87
4, 33623, Note_on_c, 1, 44, 0
4, 33624, Note_on_c, 1, 56, 87
4, 33647, Note_on_c, 1, 56, 0
4, 33648, Note_on_c, 1, 44, 87
4, 33671, Note_on_c, 1, 44, 0
4, 33672, Note_on_c, 1, 56, 87
4, 33695, Note_on_c, 1, 56, 0
4, 33696, Note_on_c, 1, 44, 87
4, 33719, Note_on_c, 1, 44, 0
4, 33720, Note_on_c, 1, 56, 87
4, 33743, Note_on_c, 1, 56, 0
4, 33744, Note_on_c, 1, 44, 87
4, 33767, Note_on_c, 1, 44, 0
4, 33768, Note_on_c, 1, 56, 87
4, 33791, Note_on_c, 1, 56, 0
4, 33792, Note_on_c, 1, 44, 87
4, 33815, Note_on_c, 1, 44, 0
4, 33816, Note_on_c, 1, 56, 87
4, 33839, Note_on_c, 1, 56, 0
4, 33840, Note_on_c, 1, 44, 87
4, 33863, Note_on_c, 1, 44, 0
4, 33864, Note_on_c, 1, 56, 87
4, 33887, Note_on_c, 1, 56, 0
4, 33888, Note_on_c, 1, 44, 87
4, 33911, Note_on_c, 1, 44, 0
4, 33912, Note_on_c, 1, 56, 87
4, 33935, Note_on_c, 1, 56, 0
4, 33936, Note_on_c, 1, 44, 87
4, 33959, Note_on_c, 1, 44, 0
4, 33960, Note_on_c, 1, 56, 87
4, 33983, Note_on_c, 1, 56, 0
4, 33984, Note_on_c, 1, 44, 87
4, 34007, Note_on_c, 1, 44, 0
4, 34008, Note_on_c, 1, 56, 87
4, 34031, Note_on_c, 1, 56, 0
4, 34032, Note_on_c, 1, 44, 87
4, 34055, Note_on_c, 1, 44, 0
4, 34056, Note_on_c, 1, 56, 87
4, 34079, Note_on_c, 1, 56, 0
4, 34080, Note_on_c, 1, 44, 87
4, 34103, Note_on_c, 1, 44, 0
4, 34104, Note_on_c, 1, 56, 87
4, 34127, Note_on_c, 1, 56, 0
4, 34128, Note_on_c, 1, 44, 87
4, 34151, Note_on_c, 1, 44, 0
4, 34152, Note_on_c, 1, 56, 87
4, 34175, Note_on_c, 1, 56, 0
4, 34176, Note_on_c, 1, 44, 87
4, 34199, Note_on_c, 1, 44, 0
4, 34200, Note_on_c, 1, 56, 87
4, 34223, Note_on_c, 1, 56, 0
4, 34224, Note_on_c, 1, 44, 87
4, 34247, Note_on_c, 1, 44, 0
4, 34248, Note_on_c, 1, 56, 87
4, 34271, Note_on_c, 1, 56, 0
4, 34272, Note_on_c, 1, 44, 87
4, 34295, Note_on_c, 1, 44, 0
4, 34296, Note_on_c, 1, 56, 87
4, 34319, Note_on_c, 1, 56, 0
4, 34320, Note_on_c, 1, 44, 87
4, 34343, Note_on_c, 1, 44, 0
4, 34344, Note_on_c, 1, 56, 87
4, 34367, Note_on_c, 1, 56, 0
4, 34368, Note_on_c, 1, 44, 87
4, 34391, Note_on_c, 1, 44, 0
4, 34392, Note_on_c, 1, 56, 87
4, 34415, Note_on_c, 1, 56, 0
4, 34416, Note_on_c, 1, 44, 87
4, 34439, Note_on_c, 1, 44, 0
4, 34440, Note_on_c, 1, 56, 87
4, 34463, Note_on_c, 1, 56, 0
4, 34464, Note_on_c, 1, 44, 87
4, 34487, Note_on_c, 1, 44, 0
4, 34488, Note_on_c, 1, 56, 87
4, 34511, Note_on_c, 1, 56, 0
4, 34512, Note_on_c, 1, 44, 87
4, 34535, Note_on_c, 1, 44, 0
4, 34536, Note_on_c, 1, 56, 87
4, 34559, Note_on_c, 1, 56, 0
4, 34560, Note_on_c, 1, 44, 87
4, 34649, Note_on_c, 1, 44, 0
4, 34944, Note_on_c, 1, 58, 75
4, 34944, Note_on_c, 1, 56, 75
4, 35033, Note_on_c, 1, 58, 0
4, 35033, Note_on_c, 1, 56, 0
4, 35040, Note_on_c, 1, 55, 75
4, 35085, Note_on_c, 1, 55, 0
4, 35088, Note_on_c, 1, 68, 66
4, 35133, Note_on_c, 1, 68, 0
4, 35136, Note_on_c, 1, 67, 66
4, 35225, Note_on_c, 1, 67, 0
4, 35280, Note_on_c, 1, 67, 66
4, 35325, Note_on_c, 1, 67, 0
4, 35328, Note_on_c, 1, 65, 66
4, 35373, Note_on_c, 1, 65, 0
4, 35376, Note_on_c, 1, 58, 66
4, 35421, Note_on_c, 1, 58, 0
4, 35424, Note_on_c, 1, 63, 66
4, 35469, Note_on_c, 1, 63, 0
4, 35712, Note_on_c, 1, 70, 75
4, 35845, Note_on_c, 1, 70, 0
4, 35856, Note_on_c, 1, 68, 66
4, 35901, Note_on_c, 1, 68, 0
4, 35904, Note_on_c, 1, 67, 66
4, 35993, Note_on_c, 1, 67, 0
4, 36000, Note_on_c, 1, 65, 66
4, 36045, Note_on_c, 1, 65, 0
4, 36048, Note_on_c, 1, 58, 66
4, 36093, Note_on_c, 1, 58, 0
4, 36096, Note_on_c, 1, 63, 66
4, 36141, Note_on_c, 1, 63, 0
4, 36144, Note_on_c, 1, 58, 66
4, 36189, Note_on_c, 1, 58, 0
4, 36192, Note_on_c, 1, 51, 66
4, 36237, Note_on_c, 1, 51, 0
4, 36288, Note_on_c, 1, 51, 80
4, 36288, Note_on_c, 1, 43, 80
4, 36465, Note_on_c, 1, 51, 0
4, 36465, Note_on_c, 1, 43, 0
4, 36480, Note_on_c, 1, 51, 80
4, 36480, Note_on_c, 1, 44, 80
4, 36657, Note_on_c, 1, 51, 0
4, 36657, Note_on_c, 1, 44, 0
4, 36672, Note_on_c, 1, 56, 80
4, 36672, Note_on_c, 1, 48, 80
4, 36849, Note_on_c, 1, 56, 0
4, 36849, Note_on_c, 1, 48, 0
4, 36864, Note_on_c, 1, 56, 80
4, 36864, Note_on_c, 1, 49, 80
4, 37041, Note_on_c, 1, 56, 0
4, 37041, Note_on_c, 1, 49, 0
4, 37056, Note_on_c, 1, 58, 80
4, 37056, Note_on_c, 1, 50, 80
4, 37233, Note_on_c, 1, 58, 0
4, 37233, Note_on_c, 1, 50, 0
4, 37248, Note_on_c, 1, 58, 80
4, 37248, Note_on_c, 1, 51, 80
4, 37425, Note_on_c, 1, 58, 0
4, 37425, Note_on_c, 1, 51, 0
4, 37440, Note_on_c, 1, 60, 80
4, 37440, Note_on_c, 1, 52, 80
4, 37617, Note_on_c, 1, 60, 0
4, 37617, Note_on_c, 1, 52, 0
4, 37632, Note_on_c, 1, 60, 80
4, 37632, Note_on_c, 1, 53, 80
4, 37721, Note_on_c, 1, 60, 0
4, 37721, Note_on_c, 1, 53, 0
4, 37824, Note_on_c, 1, 58, 80
4, 37913, Note_on_c, 1, 58, 0
4, 38016, Note_on_c, 1, 70, 80
4, 38105, Note_on_c, 1, 70, 0
4, 38208, Note_on_c, 1, 64, 80
4, 38297, Note_on_c, 1, 64, 0
4, 38424, Note_on_c, 1, 65, 80
4, 38447, Note_on_c, 1, 65, 0
4, 38448, Note_on_c, 1, 67, 80
4, 38471, Note_on_c, 1, 67, 0
4, 38472, Note_on_c, 1, 68, 80
4, 38495, Note_on_c, 1, 68, 0
4, 38496, Note_on_c, 1, 67, 80
4, 38519, Note_on_c, 1, 67, 0
4, 38520, Note_on_c, 1, 65, 80
4, 38543, Note_on_c, 1, 65, 0
4, 38544, Note_on_c, 1, 64, 80
4, 38567, Note_on_c, 1, 64, 0
4, 38568, Note_on_c, 1, 65, 80
4, 38591, Note_on_c, 1, 65, 0
4, 38616, Note_on_c, 1, 61, 80
4, 38639, Note_on_c, 1, 61, 0
4, 38640, Note_on_c, 1, 63, 80
4, 38663, Note_on_c, 1, 63, 0
4, 38664, Note_on_c, 1, 65, 80
4, 38687, Note_on_c, 1, 65, 0
4, 38688, Note_on_c, 1, 63, 80
4, 38711, Note_on_c, 1, 63, 0
4, 38712, Note_on_c, 1, 61, 80
4, 38735, Note_on_c, 1, 61, 0
4, 38736, Note_on_c, 1, 60, 80
4, 38759, Note_on_c, 1, 60, 0
4, 38760, Note_on_c, 1, 58, 80
4, 38783, Note_on_c, 1, 58, 0
4, 38808, Note_on_c, 1, 67, 80
4, 38831, Note_on_c, 1, 67, 0
4, 38832, Note_on_c, 1, 68, 80
4, 38855, Note_on_c, 1, 68, 0
4, 38856, Note_on_c, 1, 70, 80
4, 38879, Note_on_c, 1, 70, 0
4, 38880, Note_on_c, 1, 68, 80
4, 38903, Note_on_c, 1, 68, 0
4, 38904, Note_on_c, 1, 67, 80
4, 38927, Note_on_c, 1, 67, 0
4, 38928, Note_on_c, 1, 65, 80
4, 38951, Note_on_c, 1, 65, 0
4, 38952, Note_on_c, 1, 63, 80
4, 38975, Note_on_c, 1, 63, 0
4, 39000, Note_on_c, 1, 68, 80
4, 39023, Note_on_c, 1, 68, 0
4, 39024, Note_on_c, 1, 70, 80
4, 39047, Note_on_c, 1, 70, 0
4, 39048, Note_on_c, 1, 72, 80
4, 39071, Note_on_c, 1, 72, 0
4, 39072, Note_on_c, 1, 70, 80
4, 39095, Note_on_c, 1, 70, 0
4, 39096, Note_on_c, 1, 68, 80
4, 39119, Note_on_c, 1, 68, 0
4, 39120, Note_on_c, 1, 67, 80
4, 39143, Note_on_c, 1, 67, 0
4, 39144, Note_on_c, 1, 68, 80
4, 39167, Note_on_c, 1, 68, 0
4, 39192, Note_on_c, 1, 65, 80
4, 39215, Note_on_c, 1, 65, 0
4, 39216, Note_on_c, 1, 67, 80
4, 39239, Note_on_c, 1, 67, 0
4, 39240, Note_on_c, 1, 68, 80
4, 39263, Note_on_c, 1, 68, 0
4, 39264, Note_on_c, 1, 67, 80
4, 39287, Note_on_c, 1, 67, 0
4, 39288, Note_on_c, 1, 65, 80
4, 39311, Note_on_c, 1, 65, 0
4, 39312, Note_on_c, 1, 63, 80
4, 39335, Note_on_c, 1, 63, 0
4, 39336, Note_on_c, 1, 61, 80
4, 39359, Note_on_c, 1, 61, 0
4, 39384, Note_on_c, 1, 67, 80
4, 39407, Note_on_c, 1, 67, 0
4, 39408, Note_on_c, 1, 68, 80
4, 39431, Note_on_c, 1, 68, 0
4, 39432, Note_on_c, 1, 70, 80
4, 39455, Note_on_c, 1, 70, 0
4, 39456, Note_on_c, 1, 68, 80
4, 39479, Note_on_c, 1, 68, 0
4, 39480, Note_on_c, 1, 67, 80
4, 39503, Note_on_c, 1, 67, 0
4, 39504, Note_on_c, 1, 65, 80
4, 39527, Note_on_c, 1, 65, 0
4, 39528, Note_on_c, 1, 67, 80
4, 39551, Note_on_c, 1, 67, 0
4, 39576, Note_on_c, 1, 64, 80
4, 39599, Note_on_c, 1, 64, 0
4, 39600, Note_on_c, 1, 65, 80
4, 39623, Note_on_c, 1, 65, 0
4, 39624, Note_on_c, 1, 67, 80
4, 39647, Note_on_c, 1, 67, 0
4, 39648, Note_on_c, 1, 65, 80
4, 39671, Note_on_c, 1, 65, 0
4, 39672, Note_on_c, 1, 64, 80
4, 39695, Note_on_c, 1, 64, 0
4, 39696, Note_on_c, 1, 62, 80
4, 39719, Note_on_c, 1, 62, 0
4, 39720, Note_on_c, 1, 60, 80
4, 39743, Note_on_c, 1, 60, 0
4, 39744, Note_on_c, 1, 65, 75
4, 39833, Note_on_c, 1, 65, 0
4, 39936, Note_on_c, 1, 67, 75
4, 39936, Note_on_c, 1, 63, 75
4, 40025, Note_on_c, 1, 67, 0
4, 40025, Note_on_c, 1, 63, 0
4, 40128, Note_on_c, 1, 68, 75
4, 40128, Note_on_c, 1, 61, 75
4, 40217, Note_on_c, 1, 68, 0
4, 40217, Note_on_c, 1, 61, 0
4, 40320, Note_on_c, 1, 71, 77
4, 40320, Note_on_c, 1, 61, 77
4, 40409, Note_on_c, 1, 71, 0
4, 40409, Note_on_c, 1, 61, 0
4, 40512, Note_on_c, 1, 72, 79
4, 40512, Note_on_c, 1, 60, 79
4, 40601, Note_on_c, 1, 72, 0
4, 40601, Note_on_c, 1, 60, 0
4, 40656, Note_on_c, 1, 68, 80
4, 40701, Note_on_c, 1, 68, 0
4, 40704, Note_on_c, 1, 70, 80
4, 40749, Note_on_c, 1, 70, 0
4, 40752, Note_on_c, 1, 58, 80
4, 40797, Note_on_c, 1, 58, 0
4, 40800, Note_on_c, 1, 67, 80
4, 40845, Note_on_c, 1, 67, 0
4, 40848, Note_on_c, 1, 55, 80
4, 40893, Note_on_c, 1, 55, 0
4, 40896, Note_on_c, 1, 64, 80
4, 40941, Note_on_c, 1, 64, 0
4, 40944, Note_on_c, 1, 60, 80
4, 40989, Note_on_c, 1, 60, 0
4, 40992, Note_on_c, 1, 65, 80
4, 41037, Note_on_c, 1, 65, 0
4, 41040, Note_on_c, 1, 68, 80
4, 41085, Note_on_c, 1, 68, 0
4, 41088, Note_on_c, 1, 70, 80
4, 41133, Note_on_c, 1, 70, 0
4, 41136, Note_on_c, 1, 67, 80
4, 41181, Note_on_c, 1, 67, 0
4, 41184, Note_on_c, 1, 72, 80
4, 41229, Note_on_c, 1, 72, 0
4, 41232, Note_on_c, 1, 60, 80
4, 41277, Note_on_c, 1, 60, 0
4, 41280, Note_on_c, 1, 65, 80
4, 41325, Note_on_c, 1, 65, 0
4, 41328, Note_on_c, 1, 53, 80
4, 41373, Note_on_c, 1, 53, 0
4, 41424, Note_on_c, 1, 68, 80
4, 41469, Note_on_c, 1, 68, 0
4, 41472, Note_on_c, 1, 70, 80
4, 41517, Note_on_c, 1, 70, 0
4, 41520, Note_on_c, 1, 58, 80
4, 41565, Note_on_c, 1, 58, 0
4, 41568, Note_on_c, 1, 67, 80
4, 41613, Note_on_c, 1, 67, 0
4, 41616, Note_on_c, 1, 55, 80
4, 41661, Note_on_c, 1, 55, 0
4, 41664, Note_on_c, 1, 40, 80
4, 41709, Note_on_c, 1, 40, 0
4, 41712, Note_on_c, 1, 52, 80
4, 41757, Note_on_c, 1, 52, 0
4, 41760, Note_on_c, 1, 41, 80
4, 41805, Note_on_c, 1, 41, 0
4, 41808, Note_on_c, 1, 53, 80
4, 41853, Note_on_c, 1, 53, 0
4, 41856, Note_on_c, 1, 38, 80
4, 41901, Note_on_c, 1, 38, 0
4, 41904, Note_on_c, 1, 50, 80
4, 41949, Note_on_c, 1, 50, 0
4, 41952, Note_on_c, 1, 39, 80
4, 41997, Note_on_c, 1, 39, 0
4, 42000, Note_on_c, 1, 51, 80
4, 42045, Note_on_c, 1, 51, 0
4, 42048, Note_on_c, 1, 36, 80
4, 42093, Note_on_c, 1, 36, 0
4, 42096, Note_on_c, 1, 48, 80
4, 42141, Note_on_c, 1, 48, 0
4, 42144, Note_on_c, 1, 38, 80
4, 42189, Note_on_c, 1, 38, 0
4, 42192, Note_on_c, 1, 50, 80
4, 42237, Note_on_c, 1, 50, 0
4, 42240, Note_on_c, 1, 35, 80
4, 42285, Note_on_c, 1, 35, 0
4, 42288, Note_on_c, 1, 47, 80
4, 42333, Note_on_c, 1, 47, 0
4, 42336, Note_on_c, 1, 36, 80
4, 42381, Note_on_c, 1, 36, 0
4, 42384, Note_on_c, 1, 48, 80
4, 42429, Note_on_c, 1, 48, 0
4, 42432, Note_on_c, 1, 33, 80
4, 42477, Note_on_c, 1, 33, 0
4, 42480, Note_on_c, 1, 45, 80
4, 42525, Note_on_c, 1, 45, 0
4, 42528, Note_on_c, 1, 34, 80
4, 42573, Note_on_c, 1, 34, 0
4, 42576, Note_on_c, 1, 46, 80
4, 42621, Note_on_c, 1, 46, 0
4, 42624, Note_on_c, 1, 31, 80
4, 42669, Note_on_c, 1, 31, 0
4, 42672, Note_on_c, 1, 43, 80
4, 42717, Note_on_c, 1, 43, 0
4, 42720, Note_on_c, 1, 32, 80
4, 42765, Note_on_c, 1, 32, 0
4, 42768, Note_on_c, 1, 44, 80
4, 42813, Note_on_c, 1, 44, 0
4, 42816, Note_on_c, 1, 29, 80
4, 42861, Note_on_c, 1, 29, 0
4, 42864, Note_on_c, 1, 41, 80
4, 42909, Note_on_c, 1, 41, 0
4, 42912, Note_on_c, 1, 30, 80
4, 42957, Note_on_c, 1, 30, 0
4, 42960, Note_on_c, 1, 42, 80
4, 43005, Note_on_c, 1, 42, 0
4, 43248, Note_on_c, 1, 58, 80
4, 43293, Note_on_c, 1, 58, 0
4, 43344, Note_on_c, 1, 56, 80
4, 43389, Note_on_c, 1, 56, 0
4, 43440, Note_on_c, 1, 55, 80
4, 43485, Note_on_c, 1, 55, 0
4, 43536, Note_on_c, 1, 56, 80
4, 43581, Note_on_c, 1, 56, 0
4, 43632, Note_on_c, 1, 58, 80
4, 43677, Note_on_c, 1, 58, 0
4, 43728, Note_on_c, 1, 56, 80
4, 43773, Note_on_c, 1, 56, 0
4, 43824, Note_on_c, 1, 53, 87
4, 43869, Note_on_c, 1, 53, 0
4, 43872, Note_on_c, 1, 56, 87
4, 43917, Note_on_c, 1, 56, 0
4, 43920, Note_on_c, 1, 53, 87
4, 43965, Note_on_c, 1, 53, 0
4, 43968, Note_on_c, 1, 51, 87
4, 44057, Note_on_c, 1, 51, 0
4, 44352, Note_on_c, 1, 63, 75
4, 44485, Note_on_c, 1, 63, 0
4, 44496, Note_on_c, 1, 56, 66
4, 44541, Note_on_c, 1, 56, 0
4, 44544, Note_on_c, 1, 56, 66
4, 44589, Note_on_c, 1, 56, 0
4, 44592, Note_on_c, 1, 56, 66
4, 44681, Note_on_c, 1, 56, 0
4, 44688, Note_on_c, 1, 55, 66
4, 44733, Note_on_c, 1, 55, 0
4, 44736, Note_on_c, 1, 56, 66
4, 44781, Note_on_c, 1, 56, 0
4, 44784, Note_on_c, 1, 51, 66
4, 44829, Note_on_c, 1, 51, 0
4, 44832, Note_on_c, 1, 44, 66
4, 44877, Note_on_c, 1, 44, 0
4, 45120, Note_on_c, 1, 63, 75
4, 45253, Note_on_c, 1, 63, 0
4, 45264, Note_on_c, 1, 73, 66
4, 45309, Note_on_c, 1, 73, 0
4, 45312, Note_on_c, 1, 72, 66
4, 45401, Note_on_c, 1, 72, 0
4, 45456, Note_on_c, 1, 72, 66
4, 45501, Note_on_c, 1, 72, 0
4, 45504, Note_on_c, 1, 70, 66
4, 45549, Note_on_c, 1, 70, 0
4, 45552, Note_on_c, 1, 63, 66
4, 45597, Note_on_c, 1, 63, 0
4, 45600, Note_on_c, 1, 68, 66
4, 45645, Note_on_c, 1, 68, 0
4, 45720, Note_on_c, 1, 56, 66
4, 45743, Note_on_c, 1, 56, 0
4, 45744, Note_on_c, 1, 58, 66
4, 45767, Note_on_c, 1, 58, 0
4, 45768, Note_on_c, 1, 60, 66
4, 45791, Note_on_c, 1, 60, 0
4, 45792, Note_on_c, 1, 58, 66
4, 45815, Note_on_c, 1, 58, 0
4, 45816, Note_on_c, 1, 56, 66
4, 45839, Note_on_c, 1, 56, 0
4, 45840, Note_on_c, 1, 55, 66
4, 45863, Note_on_c, 1, 55, 0
4, 45864, Note_on_c, 1, 56, 66
4, 45887, Note_on_c, 1, 56, 0
4, 45912, Note_on_c, 1, 55, 66
4, 45935, Note_on_c, 1, 55, 0
4, 45936, Note_on_c, 1, 56, 66
4, 45959, Note_on_c, 1, 56, 0
4, 45960, Note_on_c, 1, 58, 66
4, 45983, Note_on_c, 1, 58, 0
4, 45984, Note_on_c, 1, 56, 66
4, 46007, Note_on_c, 1, 56, 0
4, 46008, Note_on_c, 1, 55, 66
4, 46031, Note_on_c, 1, 55, 0
4, 46032, Note_on_c, 1, 53, 66
4, 46055, Note_on_c, 1, 53, 0
4, 46056, Note_on_c, 1, 51, 66
4, 46079, Note_on_c, 1, 51, 0
4, 46080, Note_on_c, 1, 56, 66
4, 46169, Note_on_c, 1, 56, 0
4, 46272, Note_on_c, 1, 63, 66
4, 46272, Note_on_c, 1, 61, 66
4, 46361, Note_on_c, 1, 63, 0
4, 46361, Note_on_c, 1, 61, 0
4, 46464, Note_on_c, 1, 63, 66
4, 46464, Note_on_c, 1, 60, 66
4, 46553, Note_on_c, 1, 63, 0
4, 46553, Note_on_c, 1, 60, 0
4, 46656, Note_on_c, 1, 56, 66
4, 46656, Note_on_c, 1, 48, 66
4, 46745, Note_on_c, 1, 56, 0
4, 46745, Note_on_c, 1, 48, 0
4, 46848, Note_on_c, 1, 56, 66
4, 46848, Note_on_c, 1, 49, 66
4, 46937, Note_on_c, 1, 56, 0
4, 46937, Note_on_c, 1, 49, 0
4, 47040, Note_on_c, 1, 58, 66
4, 47040, Note_on_c, 1, 50, 66
4, 47129, Note_on_c, 1, 58, 0
4, 47129, Note_on_c, 1, 50, 0
4, 47232, Note_on_c, 1, 58, 66
4, 47232, Note_on_c, 1, 51, 66
4, 47321, Note_on_c, 1, 58, 0
4, 47321, Note_on_c, 1, 51, 0
4, 47424, Note_on_c, 1, 51, 66
4, 47424, Note_on_c, 1, 43, 66
4, 47513, Note_on_c, 1, 51, 0
4, 47513, Note_on_c, 1, 43, 0
4, 47616, Note_on_c, 1, 51, 66
4, 47616, Note_on_c, 1, 44, 66
4, 47705, Note_on_c, 1, 51, 0
4, 47705, Note_on_c, 1, 44, 0
4, 47808, Note_on_c, 1, 49, 66
4, 47897, Note_on_c, 1, 49, 0
4, 47904, Note_on_c, 1, 50, 66
4, 47993, Note_on_c, 1, 50, 0
4, 48000, Note_on_c, 1, 51, 66
4, 48089, Note_on_c, 1, 51, 0
4, 48144, Note_on_c, 1, 56, 66
4, 48189, Note_on_c, 1, 56, 0
4, 48192, Note_on_c, 1, 58, 66
4, 48237, Note_on_c, 1, 58, 0
4, 48240, Note_on_c, 1, 51, 66
4, 48285, Note_on_c, 1, 51, 0
4, 48288, Note_on_c, 1, 56, 66
4, 48333, Note_on_c, 1, 56, 0
4, 48336, Note_on_c, 1, 44, 66
4, 48381, Note_on_c, 1, 44, 0
4, 48384, Note_on_c, 1, 51, 66
4, 48429, Note_on_c, 1, 51, 0
4, 48432, Note_on_c, 1, 39, 66
4, 48477, Note_on_c, 1, 39, 0
4, 48528, Note_on_c, 1, 68, 66
4, 48573, Note_on_c, 1, 68, 0
4, 48576, Note_on_c, 1, 70, 66
4, 48621, Note_on_c, 1, 70, 0
4, 48624, Note_on_c, 1, 63, 66
4, 48669, Note_on_c, 1, 63, 0
4, 48672, Note_on_c, 1, 68, 66
4, 48717, Note_on_c, 1, 68, 0
4, 48720, Note_on_c, 1, 56, 66
4, 48765, Note_on_c, 1, 56, 0
4, 48768, Note_on_c, 1, 63, 66
4, 48813, Note_on_c, 1, 63, 0
4, 48816, Note_on_c, 1, 51, 66
4, 48861, Note_on_c, 1, 51, 0
4, 48960, Note_on_c, 1, 63, 80
4, 48960, Note_on_c, 1, 60, 80
4, 48960, Note_on_c, 1, 56, 80
4, 49049, Note_on_c, 1, 63, 0
4, 49049, Note_on_c, 1, 60, 0
4, 49049, Note_on_c, 1, 56, 0
4, 49104, Note_on_c, 1, 63, 80
4, 49104, Note_on_c, 1, 55, 80
4, 49149, Note_on_c, 1, 63, 0
4, 49149, Note_on_c, 1, 55, 0
4, 49152, Note_on_c, 1, 63, 80
4, 49152, Note_on_c, 1, 56, 80
4, 49197, Note_on_c, 1, 63, 0
4, 49197, Note_on_c, 1, 56, 0
4, 49200, Note_on_c, 1, 63, 75
4, 49200, Note_on_c, 1, 55, 75
4, 49245, Note_on_c, 1, 63, 0
4, 49245, Note_on_c, 1, 55, 0
4, 49248, Note_on_c, 1, 63, 70
4, 49248, Note_on_c, 1, 56, 70
4, 49293, Note_on_c, 1, 63, 0
4, 49293, Note_on_c, 1, 56, 0
4, 49344, Note_on_c, 1, 63, 66
4, 49344, Note_on_c, 1, 60, 66
4, 49344, Note_on_c, 1, 56, 66
4, 49433, Note_on_c, 1, 63, 0
4, 49433, Note_on_c, 1, 60, 0
4, 49433, Note_on_c, 1, 56, 0
4, 49488, Note_on_c, 1, 63, 66
4, 49488, Note_on_c, 1, 55, 66
4, 49533, Note_on_c, 1, 63, 0
4, 49533, Note_on_c, 1, 55, 0
4, 49536, Note_on_c, 1, 63, 66
4, 49536, Note_on_c, 1, 56, 66
4, 49581, Note_on_c, 1, 63, 0
4, 49581, Note_on_c, 1, 56, 0
4, 49584, Note_on_c, 1, 63, 70
4, 49584, Note_on_c, 1, 55, 70
4, 49629, Note_on_c, 1, 63, 0
4, 49629, Note_on_c, 1, 55, 0
4, 49632, Note_on_c, 1, 63, 75
4, 49632, Note_on_c, 1, 56, 75
4, 49677, Note_on_c, 1, 63, 0
4, 49677, Note_on_c, 1, 56, 0
4, 49728, Note_on_c, 1, 56, 80
4, 49728, Note_on_c, 1, 48, 80
4, 49905, Note_on_c, 1, 56, 0
4, 49905, Note_on_c, 1, 48, 0
4, 49920, Note_on_c, 1, 56, 80
4, 49920, Note_on_c, 1, 49, 80
4, 50112, Note_on_c, 1, 49, 0
4, 50157, Note_on_c, 1, 56, 0
4, 50160, Note_on_c, 1, 60, 80
4, 50205, Note_on_c, 1, 60, 0
4, 50208, Note_on_c, 1, 61, 80
4, 50253, Note_on_c, 1, 61, 0
4, 50256, Note_on_c, 1, 58, 80
4, 50301, Note_on_c, 1, 58, 0
4, 50304, Note_on_c, 1, 56, 80
4, 50349, Note_on_c, 1, 56, 0
4, 50352, Note_on_c, 1, 51, 80
4, 50397, Note_on_c, 1, 51, 0
4, 50400, Note_on_c, 1, 44, 80
4, 50445, Note_on_c, 1, 44, 0
4, 50544, Note_on_c, 1, 56, 70
4, 50589, Note_on_c, 1, 56, 0
4, 50592, Note_on_c, 1, 56, 70
4, 50637, Note_on_c, 1, 56, 0
4, 50640, Note_on_c, 1, 56, 70
4, 50685, Note_on_c, 1, 56, 0
4, 50736, Note_on_c, 1, 58, 70
4, 50781, Note_on_c, 1, 58, 0
4, 50784, Note_on_c, 1, 58, 70
4, 50829, Note_on_c, 1, 58, 0
4, 50832, Note_on_c, 1, 58, 70
4, 50877, Note_on_c, 1, 58, 0
4, 50928, Note_on_c, 1, 60, 70
4, 50973, Note_on_c, 1, 60, 0
4, 50976, Note_on_c, 1, 60, 70
4, 51021, Note_on_c, 1, 60, 0
4, 51024, Note_on_c, 1, 60, 70
4, 51069, Note_on_c, 1, 60, 0
4, 51120, Note_on_c, 1, 61, 70
4, 51165, Note_on_c, 1, 61, 0
4, 51168, Note_on_c, 1, 61, 71
4, 51213, Note_on_c, 1, 61, 0
4, 51216, Note_on_c, 1, 61, 72
4, 51261, Note_on_c, 1, 61, 0
4, 51312, Note_on_c, 1, 63, 74
4, 51357, Note_on_c, 1, 63, 0
4, 51360, Note_on_c, 1, 63, 75
4, 51405, Note_on_c, 1, 63, 0
4, 51408, Note_on_c, 1, 63, 75
4, 51453, Note_on_c, 1, 63, 0
4, 51504, Note_on_c, 1, 63, 77
4, 51549, Note_on_c, 1, 63, 0
4, 51552, Note_on_c, 1, 63, 78
4, 51597, Note_on_c, 1, 63, 0
4, 51600, Note_on_c, 1, 63, 79
4, 51645, Note_on_c, 1, 63, 0
4, 51696, Note_on_c, 1, 63, 80
4, 51741, Note_on_c, 1, 63, 0
4, 51744, Note_on_c, 1, 63, 80
4, 51789, Note_on_c, 1, 63, 0
4, 51792, Note_on_c, 1, 63, 80
4, 51837, Note_on_c, 1, 63, 0
4, 51840, Note_on_c, 1, 56, 80
4, 51885, Note_on_c, 1, 56, 0
4, 51888, Note_on_c, 1, 60, 80
4, 51933, Note_on_c, 1, 60, 0
4, 51984, Note_on_c, 1, 56, 80
4, 51984, Note_on_c, 1, 48, 80
4, 52029, Note_on_c, 1, 56, 0
4, 52029, Note_on_c, 1, 48, 0
4, 52032, Note_on_c, 1, 56, 80
4, 52032, Note_on_c, 1, 49, 80
4, 52224, Note_on_c, 1, 49, 0
4, 52269, Note_on_c, 1, 56, 0
4, 52272, Note_on_c, 1, 60, 80
4, 52317, Note_on_c, 1, 60, 0
4, 52320, Note_on_c, 1, 61, 80
4, 52365, Note_on_c, 1, 61, 0
4, 52368, Note_on_c, 1, 58, 80
4, 52413, Note_on_c, 1, 58, 0
4, 52416, Note_on_c, 1, 56, 80
4, 52461, Note_on_c, 1, 56, 0
4, 52464, Note_on_c, 1, 44, 80
4, 52509, Note_on_c, 1, 44, 0
4, 52560, Note_on_c, 1, 56, 80
4, 52605, Note_on_c, 1, 56, 0
4, 52608, Note_on_c, 1, 58, 80
4, 52653, Note_on_c, 1, 58, 0
4, 52656, Note_on_c, 1, 46, 80
4, 52701, Note_on_c, 1, 46, 0
4, 52704, Note_on_c, 1, 55, 80
4, 52749, Note_on_c, 1, 55, 0
4, 52752, Note_on_c, 1, 51, 80
4, 52797, Note_on_c, 1, 51, 0
4, 52800, Note_on_c, 1, 56, 80
4, 52845, Note_on_c, 1, 56, 0
4, 52848, Note_on_c, 1, 44, 80
4, 52893, Note_on_c, 1, 44, 0
4, 52896, Note_on_c, 1, 53, 80
4, 52941, Note_on_c, 1, 53, 0
4, 52944, Note_on_c, 1, 48, 80
4, 52989, Note_on_c, 1, 48, 0
4, 52992, Note_on_c, 1, 49, 80
4, 53037, Note_on_c, 1, 49, 0
4, 53040, Note_on_c, 1, 50, 80
4, 53085, Note_on_c, 1, 50, 0
4, 53088, Note_on_c, 1, 51, 80
4, 53133, Note_on_c, 1, 51, 0
4, 53136, Note_on_c, 1, 51, 80
4, 53181, Note_on_c, 1, 51, 0
4, 53184, Note_on_c, 1, 44, 80
4, 53273, Note_on_c, 1, 44, 0
4, 53328, Note_on_c, 1, 68, 80
4, 53373, Note_on_c, 1, 68, 0
4, 53376, Note_on_c, 1, 70, 80
4, 53421, Note_on_c, 1, 70, 0
4, 53424, Note_on_c, 1, 58, 80
4, 53469, Note_on_c, 1, 58, 0
4, 53472, Note_on_c, 1, 67, 80
4, 53517, Note_on_c, 1, 67, 0
4, 53520, Note_on_c, 1, 63, 80
4, 53565, Note_on_c, 1, 63, 0
4, 53568, Note_on_c, 1, 68, 80
4, 53613, Note_on_c, 1, 68, 0
4, 53616, Note_on_c, 1, 56, 80
4, 53661, Note_on_c, 1, 56, 0
4, 53664, Note_on_c, 1, 65, 80
4, 53709, Note_on_c, 1, 65, 0
4, 53712, Note_on_c, 1, 60, 80
4, 53757, Note_on_c, 1, 60, 0
4, 53760, Note_on_c, 1, 61, 80
4, 53805, Note_on_c, 1, 61, 0
4, 53808, Note_on_c, 1, 62, 80
4, 53853, Note_on_c, 1, 62, 0
4, 53856, Note_on_c, 1, 63, 80
4, 53901, Note_on_c, 1, 63, 0
4, 53904, Note_on_c, 1, 51, 80
4, 53949, Note_on_c, 1, 51, 0
4, 53952, Note_on_c, 1, 44, 87
4, 53975, Note_on_c, 1, 44, 0
4, 53976, Note_on_c, 1, 56, 87
4, 53999, Note_on_c, 1, 56, 0
4, 54000, Note_on_c, 1, 44, 87
4, 54023, Note_on_c, 1, 44, 0
4, 54024, Note_on_c, 1, 56, 87
4, 54047, Note_on_c, 1, 56, 0
4, 54048, Note_on_c, 1, 44, 87
4, 54071, Note_on_c, 1, 44, 0
4, 54072, Note_on_c, 1, 56, 87
4, 54095, Note_on_c, 1, 56, 0
4, 54096, Note_on_c, 1, 44, 87
4, 54119, Note_on_c, 1, 44, 0
4, 54120, Note_on_c, 1, 56, 87
4, 54143, Note_on_c, 1, 56, 0
4, 54144, Note_on_c, 1, 44, 87
4, 54167, Note_on_c, 1, 44, 0
4, 54168, Note_on_c, 1, 56, 87
4, 54191, Note_on_c, 1, 56, 0
4, 54192, Note_on_c, 1, 44, 87
4, 54215, Note_on_c, 1, 44, 0
4, 54216, Note_on_c, 1, 56, 87
4, 54239, Note_on_c, 1, 56, 0
4, 54240, Note_on_c, 1, 44, 87
4, 54263, Note_on_c, 1, 44, 0
4, 54264, Note_on_c, 1, 56, 87
4, 54287, Note_on_c, 1, 56, 0
4, 54288, Note_on_c, 1, 44, 87
4, 54311, Note_on_c, 1, 44, 0
4, 54312, Note_on_c, 1, 56, 87
4, 54335, Note_on_c, 1, 56, 0
4, 54336, Note_on_c, 1, 44, 87
4, 54359, Note_on_c, 1, 44, 0
4, 54360, Note_on_c, 1, 56, 87
4, 54383, Note_on_c, 1, 56, 0
4, 54384, Note_on_c, 1, 44, 87
4, 54407, Note_on_c, 1, 44, 0
4, 54408, Note_on_c, 1, 56, 87
4, 54431, Note_on_c, 1, 56, 0
4, 54432, Note_on_c, 1, 44, 87
4, 54455, Note_on_c, 1, 44, 0
4, 54456, Note_on_c, 1, 56, 87
4, 54479, Note_on_c, 1, 56, 0
4, 54480, Note_on_c, 1, 44, 87
4, 54503, Note_on_c, 1, 44, 0
4, 54504, Note_on_c, 1, 56, 87
4, 54527, Note_on_c, 1, 56, 0
4, 54528, Note_on_c, 1, 44, 87
4, 54551, Note_on_c, 1, 44, 0
4, 54552, Note_on_c, 1, 56, 87
4, 54575, Note_on_c, 1, 56, 0
4, 54576, Note_on_c, 1, 44, 87
4, 54599, Note_on_c, 1, 44, 0
4, 54600, Note_on_c, 1, 56, 87
4, 54623, Note_on_c, 1, 56, 0
4, 54624, Note_on_c, 1, 44, 87
4, 54647, Note_on_c, 1, 44, 0
4, 54648, Note_on_c, 1, 56, 87
4, 54671, Note_on_c, 1, 56, 0
4, 54672, Note_on_c, 1, 44, 87
4, 54695, Note_on_c, 1, 44, 0
4, 54696, Note_on_c, 1, 56, 87
4, 54719, Note_on_c, 1, 56, 0
4, 54720, Note_on_c, 1, 44, 87
4, 54743, Note_on_c, 1, 44, 0
4, 54744, Note_on_c, 1, 56, 87
4, 54767, Note_on_c, 1, 56, 0
4, 54768, Note_on_c, 1, 44, 87
4, 54791, Note_on_c, 1, 44, 0
4, 54792, Note_on_c, 1, 56, 87
4, 54815, Note_on_c, 1, 56, 0
4, 54816, Note_on_c, 1, 44, 87
4, 54839, Note_on_c, 1, 44, 0
4, 54840, Note_on_c, 1, 56, 87
4, 54863, Note_on_c, 1, 56, 0
4, 54864, Note_on_c, 1, 44, 87
4, 54887, Note_on_c, 1, 44, 0
4, 54888, Note_on_c, 1, 56, 87
4, 54911, Note_on_c, 1, 56, 0
4, 54912, Note_on_c, 1, 44, 87
4, 55001, Note_on_c, 1, 44, 0
4, 55056, Note_on_c, 1, 44, 0
4, 55101, Note_on_c, 1, 44, 0
4, 55104, End_track
5, 0, Start_track
5, 0, Program_c, 1, 0
5, 0, Control_c, 1, 7, 127
5, 0, Control_c, 1, 10, 64
5, 384, Note_on_c, 1, 61, 75
5, 473, Note_on_c, 1, 61, 0
5, 480, Note_on_c, 1, 60, 75
5, 525, Note_on_c, 1, 60, 0
5, 528, Note_on_c, 1, 49, 66
5, 573, Note_on_c, 1, 49, 0
5, 576, Note_on_c, 1, 48, 66
5, 665, Note_on_c, 1, 48, 0
5, 672, Note_on_c, 1, 46, 66
5, 717, Note_on_c, 1, 46, 0
5, 720, Note_on_c, 1, 51, 66
5, 765, Note_on_c, 1, 51, 0
5, 768, Note_on_c, 1, 44, 66
5, 857, Note_on_c, 1, 44, 0
5, 1152, Note_on_c, 1, 61, 75
5, 1241, Note_on_c, 1, 61, 0
5, 1248, Note_on_c, 1, 60, 75
5, 1293, Note_on_c, 1, 60, 0
5, 5376, Note_on_c, 1, 58, 80
5, 5553, Note_on_c, 1, 58, 0
5, 7488, Note_on_c, 1, 61, 75
5, 7577, Note_on_c, 1, 61, 0
5, 7584, Note_on_c, 1, 60, 75
5, 7629, Note_on_c, 1, 60, 0
5, 7632, Note_on_c, 1, 49, 66
5, 7677, Note_on_c, 1, 49, 0
5, 7680, Note_on_c, 1, 48, 66
5, 7769, Note_on_c, 1, 48, 0
5, 7776, Note_on_c, 1, 46, 66
5, 7821, Note_on_c, 1, 46, 0
5, 7824, Note_on_c, 1, 51, 66
5, 7869, Note_on_c, 1, 51, 0
5, 7872, Note_on_c, 1, 44, 66
5, 7961, Note_on_c, 1, 44, 0
5, 8256, Note_on_c, 1, 61, 75
5, 8345, Note_on_c, 1, 61, 0
5, 8352, Note_on_c, 1, 60, 75
5, 8397, Note_on_c, 1, 60, 0
5, 12480, Note_on_c, 1, 58, 80
5, 12657, Note_on_c, 1, 58, 0
5, 15360, Note_on_c, 1, 68, 75
5, 15449, Note_on_c, 1, 68, 0
5, 15456, Note_on_c, 1, 67, 75
5, 15545, Note_on_c, 1, 67, 0
5, 22656, Note_on_c, 1, 29, 75
5, 22701, Note_on_c, 1, 29, 0
5, 22704, Note_on_c, 1, 41, 75
5, 22749, Note_on_c, 1, 41, 0
5, 22752, Note_on_c, 1, 34, 75
5, 22797, Note_on_c, 1, 34, 0
5, 22800, Note_on_c, 1, 46, 75
5, 22845, Note_on_c, 1, 46, 0
5, 22848, Note_on_c, 1, 51, 80
5, 22937, Note_on_c, 1, 51, 0
5, 22944, Note_on_c, 1, 51, 80
5, 23033, Note_on_c, 1, 51, 0
5, 23040, Note_on_c, 1, 51, 80
5, 23129, Note_on_c, 1, 51, 0
5, 23136, Note_on_c, 1, 51, 80
5, 23225, Note_on_c, 1, 51, 0
5, 23232, Note_on_c, 1, 51, 80
5, 23321, Note_on_c, 1, 51, 0
5, 23328, Note_on_c, 1, 51, 80
5, 23417, Note_on_c, 1, 51, 0
5, 23424, Note_on_c, 1, 51, 87
5, 23601, Note_on_c, 1, 51, 0
5, 23616, Note_on_c, 1, 51, 87
5, 23705, Note_on_c, 1, 51, 0
5, 24000, Note_on_c, 1, 61, 75
5, 24089, Note_on_c, 1, 61, 0
5, 24096, Note_on_c, 1, 60, 75
5, 24141, Note_on_c, 1, 60, 0
5, 24144, Note_on_c, 1, 49, 66
5, 24189, Note_on_c, 1, 49, 0
5, 24192, Note_on_c, 1, 48, 66
5, 24281, Note_on_c, 1, 48, 0
5, 24288, Note_on_c, 1, 46, 66
5, 24333, Note_on_c, 1, 46, 0
5, 24336, Note_on_c, 1, 51, 66
5, 24381, Note_on_c, 1, 51, 0
5, 24384, Note_on_c, 1, 44, 66
5, 24473, Note_on_c, 1, 44, 0
5, 24768, Note_on_c, 1, 61, 75
5, 24857, Note_on_c, 1, 61, 0
5, 24864, Note_on_c, 1, 60, 75
5, 24909, Note_on_c, 1, 60, 0
5, 29760, Note_on_c, 1, 51, 80
5, 29937, Note_on_c, 1, 51, 0
5, 30144, Note_on_c, 1, 48, 70
5, 30321, Note_on_c, 1, 48, 0
5, 30336, Note_on_c, 1, 49, 70
5, 30513, Note_on_c, 1, 49, 0
5, 30528, Note_on_c, 1, 51, 70
5, 30705, Note_on_c, 1, 51, 0
5, 30720, Note_on_c, 1, 53, 70
5, 30897, Note_on_c, 1, 53, 0
5, 30912, Note_on_c, 1, 55, 73
5, 31089, Note_on_c, 1, 55, 0
5, 31104, Note_on_c, 1, 56, 76
5, 31281, Note_on_c, 1, 56, 0
5, 31296, Note_on_c, 1, 55, 80
5, 31473, Note_on_c, 1, 55, 0
5, 31872, Note_on_c, 1, 51, 80
5, 32049, Note_on_c, 1, 51, 0
5, 35712, Note_on_c, 1, 68, 75
5, 35801, Note_on_c, 1, 68, 0
5, 35808, Note_on_c, 1, 67, 75
5, 35897, Note_on_c, 1, 67, 0
5, 43008, Note_on_c, 1, 29, 75
5, 43053, Note_on_c, 1, 29, 0
5, 43056, Note_on_c, 1, 41, 75
5, 43101, Note_on_c, 1, 41, 0
5, 43104, Note_on_c, 1, 34, 75
5, 43149, Note_on_c, 1, 34, 0
5, 43152, Note_on_c, 1, 46, 75
5, 43197, Note_on_c, 1, 46, 0
5, 43200, Note_on_c, 1, 51, 80
5, 43289, Note_on_c, 1, 51, 0
5, 43296, Note_on_c, 1, 51, 80
5, 43385, Note_on_c, 1, 51, 0
5, 43392, Note_on_c, 1, 51, 80
5, 43481, Note_on_c, 1, 51, 0
5, 43488, Note_on_c, 1, 51, 80
5, 43577, Note_on_c, 1, 51, 0
5, 43584, Note_on_c, 1, 51, 80
5, 43673, Note_on_c, 1, 51, 0
5, 43680, Note_on_c, 1, 51, 80
5, 43769, Note_on_c, 1, 51, 0
5, 43776, Note_on_c, 1, 51, 87
5, 43953, Note_on_c, 1, 51, 0
5, 43968, Note_on_c, 1, 51, 87
5, 44057, Note_on_c, 1, 51, 0
5, 44352, Note_on_c, 1, 61, 75
5, 44441, Note_on_c, 1, 61, 0
5, 44448, Note_on_c, 1, 60, 75
5, 44493, Note_on_c, 1, 60, 0
5, 44496, Note_on_c, 1, 49, 66
5, 44541, Note_on_c, 1, 49, 0
5, 44544, Note_on_c, 1, 48, 66
5, 44633, Note_on_c, 1, 48, 0
5, 44640, Note_on_c, 1, 46, 66
5, 44685, Note_on_c, 1, 46, 0
5, 44688, Note_on_c, 1, 51, 66
5, 44733, Note_on_c, 1, 51, 0
5, 44736, Note_on_c, 1, 44, 66
5, 44825, Note_on_c, 1, 44, 0
5, 45120, Note_on_c, 1, 61, 75
5, 45209, Note_on_c, 1, 61, 0
5, 45216, Note_on_c, 1, 60, 75
5, 45261, Note_on_c, 1, 60, 0
5, 50112, Note_on_c, 1, 51, 80
5, 50289, Note_on_c, 1, 51, 0
5, 50496, Note_on_c, 1, 48, 70
5, 50673, Note_on_c, 1, 48, 0
5, 50688, Note_on_c, 1, 49, 70
5, 50865, Note_on_c, 1, 49, 0
5, 50880, Note_on_c, 1, 51, 70
5, 51057, Note_on_c, 1, 51, 0
5, 51072, Note_on_c, 1, 53, 70
5, 51249, Note_on_c, 1, 53, 0
5, 51264, Note_on_c, 1, 55, 73
5, 51441, Note_on_c, 1, 55, 0
5, 51456, Note_on_c, 1, 56, 76
5, 51633, Note_on_c, 1, 56, 0
5, 51648, Note_on_c, 1, 55, 80
5, 51825, Note_on_c, 1, 55, 0
5, 52224, Note_on_c, 1, 51, 80
5, 52401, Note_on_c, 1, 51, 0
5, 55104, End_track
6, 0, Start_track
6, 0, Title_t, "Piano Solo   <composer>  "
6, 0, End_track
0, 0, End_of_file
