0, 0, Header, 1, 6, 96
1, 0, Start_track
1, 0, Copyright_t, "Copyright  2000 <copyright holder>"
1, 0, Text_t, "Sonata III\015\012"
1, 0, Text_t, "<composer>\015\012"
1, 0, Sequencer_specific, 16, 68, 87, 77, 90, 86, 82, 83, 78, 32, 55, 46, 48, 46, 56, 46, 48
1, 0, Time_signature, 2, 2, 24, 8
1, 0, Tempo, 400000
1, 0, Key_signature, 2, "major"
1, 23424, End_track
2, 0, Start_track
2, 0, Program_c, 0, 0
2, 0, Control_c, 0, 7, 127
2, 0, Control_c, 0, 10, 64
2, 0, Note_on_c, 0, 64, 84
2, 6, Note_on_c, 0, 64, 0
2, 6, Note_on_c, 0, 62, 84
2, 12, Note_on_c, 0, 62, 0
2, 12, Note_on_c, 0, 61, 84
2, 18, Note_on_c, 0, 61, 0
2, 18, Note_on_c, 0, 62, 84
2, 45, Note_on_c, 0, 62, 0
2, 96, Note_on_c, 0, 67, 90
2, 102, Note_on_c, 0, 67, 0
2, 102, Note_on_c, 0, 66, 90
2, 108, Note_on_c, 0, 66, 0
2, 108, Note_on_c, 0, 64, 90
2, 114, Note_on_c, 0, 64, 0
2, 114, Note_on_c, 0, 66, 90
2, 141, Note_on_c, 0, 66, 0
2, 192, Note_on_c, 0, 71, 96
2, 198, Note_on_c, 0, 71, 0
2, 198, Note_on_c, 0, 69, 96
2, 204, Note_on_c, 0, 69, 0
2, 204, Note_on_c, 0, 67, 96
2, 210, Note_on_c, 0, 67, 0
2, 210, Note_on_c, 0, 69, 96
2, 237, Note_on_c, 0, 69, 0
2, 288, Note_on_c, 0, 76, 102
2, 294, Note_on_c, 0, 76, 0
2, 294, Note_on_c, 0, 74, 102
2, 300, Note_on_c, 0, 74, 0
2, 300, Note_on_c, 0, 73, 102
2, 306, Note_on_c, 0, 73, 0
2, 306, Note_on_c, 0, 74, 102
2, 333, Note_on_c, 0, 74, 0
2, 384, Note_on_c, 0, 69, 75
2, 407, Note_on_c, 0, 69, 0
2, 408, Note_on_c, 0, 71, 76
2, 431, Note_on_c, 0, 71, 0
2, 432, Note_on_c, 0, 73, 78
2, 455, Note_on_c, 0, 73, 0
2, 456, Note_on_c, 0, 74, 80
2, 479, Note_on_c, 0, 74, 0
2, 480, Note_on_c, 0, 76, 82
2, 503, Note_on_c, 0, 76, 0
2, 504, Note_on_c, 0, 78, 84
2, 527, Note_on_c, 0, 78, 0
2, 528, Note_on_c, 0, 79, 83
2, 551, Note_on_c, 0, 79, 0
2, 552, Note_on_c, 0, 81, 82
2, 575, Note_on_c, 0, 81, 0
2, 576, Note_on_c, 0, 79, 97
2, 576, Note_on_c, 0, 76, 97
2, 672, Note_on_c, 0, 79, 0
2, 672, Note_on_c, 0, 76, 0
2, 672, Note_on_c, 0, 78, 77
2, 672, Note_on_c, 0, 74, 77
2, 717, Note_on_c, 0, 78, 0
2, 717, Note_on_c, 0, 74, 0
2, 768, Note_on_c, 0, 64, 75
2, 774, Note_on_c, 0, 64, 0
2, 774, Note_on_c, 0, 62, 75
2, 780, Note_on_c, 0, 62, 0
2, 780, Note_on_c, 0, 61, 75
2, 786, Note_on_c, 0, 61, 0
2, 786, Note_on_c, 0, 62, 75
2, 813, Note_on_c, 0, 62, 0
2, 864, Note_on_c, 0, 67, 77
2, 870, Note_on_c, 0, 67, 0
2, 870, Note_on_c, 0, 66, 77
2, 876, Note_on_c, 0, 66, 0
2, 876, Note_on_c, 0, 64, 77
2, 882, Note_on_c, 0, 64, 0
2, 882, Note_on_c, 0, 66, 77
2, 909, Note_on_c, 0, 66, 0
2, 960, Note_on_c, 0, 71, 80
2, 966, Note_on_c, 0, 71, 0
2, 966, Note_on_c, 0, 69, 80
2, 972, Note_on_c, 0, 69, 0
2, 972, Note_on_c, 0, 67, 80
2, 978, Note_on_c, 0, 67, 0
2, 978, Note_on_c, 0, 69, 80
2, 1005, Note_on_c, 0, 69, 0
2, 1056, Note_on_c, 0, 76, 82
2, 1062, Note_on_c, 0, 76, 0
2, 1062, Note_on_c, 0, 74, 82
2, 1068, Note_on_c, 0, 74, 0
2, 1068, Note_on_c, 0, 73, 82
2, 1074, Note_on_c, 0, 73, 0
2, 1074, Note_on_c, 0, 74, 82
2, 1101, Note_on_c, 0, 74, 0
2, 1152, Note_on_c, 0, 78, 75
2, 1175, Note_on_c, 0, 78, 0
2, 1176, Note_on_c, 0, 81, 75
2, 1199, Note_on_c, 0, 81, 0
2, 1200, Note_on_c, 0, 80, 75
2, 1223, Note_on_c, 0, 80, 0
2, 1224, Note_on_c, 0, 78, 75
2, 1247, Note_on_c, 0, 78, 0
2, 1248, Note_on_c, 0, 76, 75
2, 1293, Note_on_c, 0, 76, 0
2, 1344, Note_on_c, 0, 74, 75
2, 1367, Note_on_c, 0, 74, 0
2, 1368, Note_on_c, 0, 78, 75
2, 1391, Note_on_c, 0, 78, 0
2, 1392, Note_on_c, 0, 76, 75
2, 1415, Note_on_c, 0, 76, 0
2, 1416, Note_on_c, 0, 74, 75
2, 1439, Note_on_c, 0, 74, 0
2, 1440, Note_on_c, 0, 73, 75
2, 1485, Note_on_c, 0, 73, 0
2, 1536, Note_on_c, 0, 78, 75
2, 1559, Note_on_c, 0, 78, 0
2, 1560, Note_on_c, 0, 81, 75
2, 1583, Note_on_c, 0, 81, 0
2, 1584, Note_on_c, 0, 80, 75
2, 1607, Note_on_c, 0, 80, 0
2, 1608, Note_on_c, 0, 78, 75
2, 1631, Note_on_c, 0, 78, 0
2, 1632, Note_on_c, 0, 76, 75
2, 1677, Note_on_c, 0, 76, 0
2, 1728, Note_on_c, 0, 74, 75
2, 1751, Note_on_c, 0, 74, 0
2, 1752, Note_on_c, 0, 80, 75
2, 1775, Note_on_c, 0, 80, 0
2, 1776, Note_on_c, 0, 83, 75
2, 1799, Note_on_c, 0, 83, 0
2, 1800, Note_on_c, 0, 86, 75
2, 1823, Note_on_c, 0, 86, 0
2, 1824, Note_on_c, 0, 85, 75
2, 1869, Note_on_c, 0, 85, 0
2, 1920, Note_on_c, 0, 81, 75
2, 1943, Note_on_c, 0, 81, 0
2, 1944, Note_on_c, 0, 80, 75
2, 1967, Note_on_c, 0, 80, 0
2, 1968, Note_on_c, 0, 78, 75
2, 1991, Note_on_c, 0, 78, 0
2, 1992, Note_on_c, 0, 76, 75
2, 2015, Note_on_c, 0, 76, 0
2, 2016, Note_on_c, 0, 74, 75
2, 2039, Note_on_c, 0, 74, 0
2, 2040, Note_on_c, 0, 73, 75
2, 2063, Note_on_c, 0, 73, 0
2, 2064, Note_on_c, 0, 71, 75
2, 2087, Note_on_c, 0, 71, 0
2, 2088, Note_on_c, 0, 69, 75
2, 2111, Note_on_c, 0, 69, 0
2, 2112, Note_on_c, 0, 78, 75
2, 2157, Note_on_c, 0, 78, 0
2, 2304, Note_on_c, 0, 81, 75
2, 2327, Note_on_c, 0, 81, 0
2, 2328, Note_on_c, 0, 80, 75
2, 2351, Note_on_c, 0, 80, 0
2, 2352, Note_on_c, 0, 78, 75
2, 2375, Note_on_c, 0, 78, 0
2, 2376, Note_on_c, 0, 76, 75
2, 2399, Note_on_c, 0, 76, 0
2, 2400, Note_on_c, 0, 74, 75
2, 2423, Note_on_c, 0, 74, 0
2, 2424, Note_on_c, 0, 73, 75
2, 2447, Note_on_c, 0, 73, 0
2, 2448, Note_on_c, 0, 71, 75
2, 2471, Note_on_c, 0, 71, 0
2, 2472, Note_on_c, 0, 69, 75
2, 2495, Note_on_c, 0, 69, 0
2, 2496, Note_on_c, 0, 76, 75
2, 2541, Note_on_c, 0, 76, 0
2, 2688, Note_on_c, 0, 81, 75
2, 2711, Note_on_c, 0, 81, 0
2, 2712, Note_on_c, 0, 80, 75
2, 2735, Note_on_c, 0, 80, 0
2, 2736, Note_on_c, 0, 78, 75
2, 2759, Note_on_c, 0, 78, 0
2, 2760, Note_on_c, 0, 76, 75
2, 2783, Note_on_c, 0, 76, 0
2, 2784, Note_on_c, 0, 74, 75
2, 2807, Note_on_c, 0, 74, 0
2, 2808, Note_on_c, 0, 73, 75
2, 2831, Note_on_c, 0, 73, 0
2, 2832, Note_on_c, 0, 71, 75
2, 2855, Note_on_c, 0, 71, 0
2, 2856, Note_on_c, 0, 69, 75
2, 2879, Note_on_c, 0, 69, 0
2, 2880, Note_on_c, 0, 78, 75
2, 2969, Note_on_c, 0, 78, 0
2, 2976, Note_on_c, 0, 76, 75
2, 2999, Note_on_c, 0, 76, 0
2, 3000, Note_on_c, 0, 74, 75
2, 3023, Note_on_c, 0, 74, 0
2, 3024, Note_on_c, 0, 73, 75
2, 3047, Note_on_c, 0, 73, 0
2, 3048, Note_on_c, 0, 71, 75
2, 3071, Note_on_c, 0, 71, 0
2, 3072, Note_on_c, 0, 69, 75
2, 3161, Note_on_c, 0, 69, 0
2, 3168, Note_on_c, 0, 73, 75
2, 3183, Note_on_c, 0, 73, 0
2, 3184, Note_on_c, 0, 71, 75
2, 3199, Note_on_c, 0, 71, 0
2, 3200, Note_on_c, 0, 73, 75
2, 3215, Note_on_c, 0, 73, 0
2, 3216, Note_on_c, 0, 71, 75
2, 3231, Note_on_c, 0, 71, 0
2, 3232, Note_on_c, 0, 69, 75
2, 3247, Note_on_c, 0, 69, 0
2, 3248, Note_on_c, 0, 71, 75
2, 3263, Note_on_c, 0, 71, 0
2, 3264, Note_on_c, 0, 69, 75
2, 3353, Note_on_c, 0, 69, 0
2, 3384, Note_on_c, 0, 69, 75
2, 3407, Note_on_c, 0, 69, 0
2, 3408, Note_on_c, 0, 73, 76
2, 3431, Note_on_c, 0, 73, 0
2, 3432, Note_on_c, 0, 69, 77
2, 3455, Note_on_c, 0, 69, 0
2, 3480, Note_on_c, 0, 69, 79
2, 3503, Note_on_c, 0, 69, 0
2, 3504, Note_on_c, 0, 73, 80
2, 3527, Note_on_c, 0, 73, 0
2, 3528, Note_on_c, 0, 69, 81
2, 3551, Note_on_c, 0, 69, 0
2, 3576, Note_on_c, 0, 69, 83
2, 3599, Note_on_c, 0, 69, 0
2, 3600, Note_on_c, 0, 73, 84
2, 3623, Note_on_c, 0, 73, 0
2, 3624, Note_on_c, 0, 69, 85
2, 3647, Note_on_c, 0, 69, 0
2, 3672, Note_on_c, 0, 69, 87
2, 3695, Note_on_c, 0, 69, 0
2, 3696, Note_on_c, 0, 73, 88
2, 3719, Note_on_c, 0, 73, 0
2, 3720, Note_on_c, 0, 69, 89
2, 3743, Note_on_c, 0, 69, 0
2, 3768, Note_on_c, 0, 57, 91
2, 3791, Note_on_c, 0, 57, 0
2, 3792, Note_on_c, 0, 61, 92
2, 3815, Note_on_c, 0, 61, 0
2, 3816, Note_on_c, 0, 57, 93
2, 3839, Note_on_c, 0, 57, 0
2, 3864, Note_on_c, 0, 57, 95
2, 3887, Note_on_c, 0, 57, 0
2, 3888, Note_on_c, 0, 59, 96
2, 3911, Note_on_c, 0, 59, 0
2, 3912, Note_on_c, 0, 57, 97
2, 3935, Note_on_c, 0, 57, 0
2, 3960, Note_on_c, 0, 56, 99
2, 3983, Note_on_c, 0, 56, 0
2, 3984, Note_on_c, 0, 59, 100
2, 4007, Note_on_c, 0, 59, 0
2, 4008, Note_on_c, 0, 56, 101
2, 4031, Note_on_c, 0, 56, 0
2, 4032, Note_on_c, 0, 57, 102
2, 4121, Note_on_c, 0, 57, 0
2, 4224, Note_on_c, 0, 64, 84
2, 4230, Note_on_c, 0, 64, 0
2, 4230, Note_on_c, 0, 62, 84
2, 4236, Note_on_c, 0, 62, 0
2, 4236, Note_on_c, 0, 61, 84
2, 4242, Note_on_c, 0, 61, 0
2, 4242, Note_on_c, 0, 62, 84
2, 4269, Note_on_c, 0, 62, 0
2, 4320, Note_on_c, 0, 67, 90
2, 4326, Note_on_c, 0, 67, 0
2, 4326, Note_on_c, 0, 66, 90
2, 4332, Note_on_c, 0, 66, 0
2, 4332, Note_on_c, 0, 64, 90
2, 4338, Note_on_c, 0, 64, 0
2, 4338, Note_on_c, 0, 66, 90
2, 4365, Note_on_c, 0, 66, 0
2, 4416, Note_on_c, 0, 71, 96
2, 4422, Note_on_c, 0, 71, 0
2, 4422, Note_on_c, 0, 69, 96
2, 4428, Note_on_c, 0, 69, 0
2, 4428, Note_on_c, 0, 67, 96
2, 4434, Note_on_c, 0, 67, 0
2, 4434, Note_on_c, 0, 69, 96
2, 4461, Note_on_c, 0, 69, 0
2, 4512, Note_on_c, 0, 76, 102
2, 4518, Note_on_c, 0, 76, 0
2, 4518, Note_on_c, 0, 74, 102
2, 4524, Note_on_c, 0, 74, 0
2, 4524, Note_on_c, 0, 73, 102
2, 4530, Note_on_c, 0, 73, 0
2, 4530, Note_on_c, 0, 74, 102
2, 4557, Note_on_c, 0, 74, 0
2, 4608, Note_on_c, 0, 69, 75
2, 4631, Note_on_c, 0, 69, 0
2, 4632, Note_on_c, 0, 71, 76
2, 4655, Note_on_c, 0, 71, 0
2, 4656, Note_on_c, 0, 73, 78
2, 4679, Note_on_c, 0, 73, 0
2, 4680, Note_on_c, 0, 74, 80
2, 4703, Note_on_c, 0, 74, 0
2, 4704, Note_on_c, 0, 76, 82
2, 4727, Note_on_c, 0, 76, 0
2, 4728, Note_on_c, 0, 78, 84
2, 4751, Note_on_c, 0, 78, 0
2, 4752, Note_on_c, 0, 79, 83
2, 4775, Note_on_c, 0, 79, 0
2, 4776, Note_on_c, 0, 81, 82
2, 4799, Note_on_c, 0, 81, 0
2, 4800, Note_on_c, 0, 79, 97
2, 4800, Note_on_c, 0, 76, 97
2, 4896, Note_on_c, 0, 79, 0
2, 4896, Note_on_c, 0, 76, 0
2, 4896, Note_on_c, 0, 78, 77
2, 4896, Note_on_c, 0, 74, 77
2, 4941, Note_on_c, 0, 78, 0
2, 4941, Note_on_c, 0, 74, 0
2, 4992, Note_on_c, 0, 64, 75
2, 4998, Note_on_c, 0, 64, 0
2, 4998, Note_on_c, 0, 62, 75
2, 5004, Note_on_c, 0, 62, 0
2, 5004, Note_on_c, 0, 61, 75
2, 5010, Note_on_c, 0, 61, 0
2, 5010, Note_on_c, 0, 62, 75
2, 5037, Note_on_c, 0, 62, 0
2, 5088, Note_on_c, 0, 67, 77
2, 5094, Note_on_c, 0, 67, 0
2, 5094, Note_on_c, 0, 66, 77
2, 5100, Note_on_c, 0, 66, 0
2, 5100, Note_on_c, 0, 64, 77
2, 5106, Note_on_c, 0, 64, 0
2, 5106, Note_on_c, 0, 66, 77
2, 5133, Note_on_c, 0, 66, 0
2, 5184, Note_on_c, 0, 71, 80
2, 5190, Note_on_c, 0, 71, 0
2, 5190, Note_on_c, 0, 69, 80
2, 5196, Note_on_c, 0, 69, 0
2, 5196, Note_on_c, 0, 67, 80
2, 5202, Note_on_c, 0, 67, 0
2, 5202, Note_on_c, 0, 69, 80
2, 5229, Note_on_c, 0, 69, 0
2, 5280, Note_on_c, 0, 76, 82
2, 5286, Note_on_c, 0, 76, 0
2, 5286, Note_on_c, 0, 74, 82
2, 5292, Note_on_c, 0, 74, 0
2, 5292, Note_on_c, 0, 73, 82
2, 5298, Note_on_c, 0, 73, 0
2, 5298, Note_on_c, 0, 74, 82
2, 5325, Note_on_c, 0, 74, 0
2, 5376, Note_on_c, 0, 78, 75
2, 5399, Note_on_c, 0, 78, 0
2, 5400, Note_on_c, 0, 81, 75
2, 5423, Note_on_c, 0, 81, 0
2, 5424, Note_on_c, 0, 80, 75
2, 5447, Note_on_c, 0, 80, 0
2, 5448, Note_on_c, 0, 78, 75
2, 5471, Note_on_c, 0, 78, 0
2, 5472, Note_on_c, 0, 76, 75
2, 5517, Note_on_c, 0, 76, 0
2, 5568, Note_on_c, 0, 74, 75
2, 5591, Note_on_c, 0, 74, 0
2, 5592, Note_on_c, 0, 78, 75
2, 5615, Note_on_c, 0, 78, 0
2, 5616, Note_on_c, 0, 76, 75
2, 5639, Note_on_c, 0, 76, 0
2, 5640, Note_on_c, 0, 74, 75
2, 5663, Note_on_c, 0, 74, 0
2, 5664, Note_on_c, 0, 73, 75
2, 5709, Note_on_c, 0, 73, 0
2, 5760, Note_on_c, 0, 78, 75
2, 5783, Note_on_c, 0, 78, 0
2, 5784, Note_on_c, 0, 81, 75
2, 5807, Note_on_c, 0, 81, 0
2, 5808, Note_on_c, 0, 80, 75
2, 5831, Note_on_c, 0, 80, 0
2, 5832, Note_on_c, 0, 78, 75
2, 5855, Note_on_c, 0, 78, 0
2, 5856, Note_on_c, 0, 76, 75
2, 5901, Note_on_c, 0, 76, 0
2, 5952, Note_on_c, 0, 74, 75
2, 5975, Note_on_c, 0, 74, 0
2, 5976, Note_on_c, 0, 80, 75
2, 5999, Note_on_c, 0, 80, 0
2, 6000, Note_on_c, 0, 83, 75
2, 6023, Note_on_c, 0, 83, 0
2, 6024, Note_on_c, 0, 86, 75
2, 6047, Note_on_c, 0, 86, 0
2, 6048, Note_on_c, 0, 85, 75
2, 6093, Note_on_c, 0, 85, 0
2, 6144, Note_on_c, 0, 81, 75
2, 6167, Note_on_c, 0, 81, 0
2, 6168, Note_on_c, 0, 80, 75
2, 6191, Note_on_c, 0, 80, 0
2, 6192, Note_on_c, 0, 78, 75
2, 6215, Note_on_c, 0, 78, 0
2, 6216, Note_on_c, 0, 76, 75
2, 6239, Note_on_c, 0, 76, 0
2, 6240, Note_on_c, 0, 74, 75
2, 6263, Note_on_c, 0, 74, 0
2, 6264, Note_on_c, 0, 73, 75
2, 6287, Note_on_c, 0, 73, 0
2, 6288, Note_on_c, 0, 71, 75
2, 6311, Note_on_c, 0, 71, 0
2, 6312, Note_on_c, 0, 69, 75
2, 6335, Note_on_c, 0, 69, 0
2, 6336, Note_on_c, 0, 78, 75
2, 6381, Note_on_c, 0, 78, 0
2, 6528, Note_on_c, 0, 81, 75
2, 6551, Note_on_c, 0, 81, 0
2, 6552, Note_on_c, 0, 80, 75
2, 6575, Note_on_c, 0, 80, 0
2, 6576, Note_on_c, 0, 78, 75
2, 6599, Note_on_c, 0, 78, 0
2, 6600, Note_on_c, 0, 76, 75
2, 6623, Note_on_c, 0, 76, 0
2, 6624, Note_on_c, 0, 74, 75
2, 6647, Note_on_c, 0, 74, 0
2, 6648, Note_on_c, 0, 73, 75
2, 6671, Note_on_c, 0, 73, 0
2, 6672, Note_on_c, 0, 71, 75
2, 6695, Note_on_c, 0, 71, 0
2, 6696, Note_on_c, 0, 69, 75
2, 6719, Note_on_c, 0, 69, 0
2, 6720, Note_on_c, 0, 76, 75
2, 6765, Note_on_c, 0, 76, 0
2, 6912, Note_on_c, 0, 81, 75
2, 6935, Note_on_c, 0, 81, 0
2, 6936, Note_on_c, 0, 80, 75
2, 6959, Note_on_c, 0, 80, 0
2, 6960, Note_on_c, 0, 78, 75
2, 6983, Note_on_c, 0, 78, 0
2, 6984, Note_on_c, 0, 76, 75
2, 7007, Note_on_c, 0, 76, 0
2, 7008, Note_on_c, 0, 74, 75
2, 7031, Note_on_c, 0, 74, 0
2, 7032, Note_on_c, 0, 73, 75
2, 7055, Note_on_c, 0, 73, 0
2, 7056, Note_on_c, 0, 71, 75
2, 7079, Note_on_c, 0, 71, 0
2, 7080, Note_on_c, 0, 69, 75
2, 7103, Note_on_c, 0, 69, 0
2, 7104, Note_on_c, 0, 78, 75
2, 7193, Note_on_c, 0, 78, 0
2, 7200, Note_on_c, 0, 76, 75
2, 7223, Note_on_c, 0, 76, 0
2, 7224, Note_on_c, 0, 74, 75
2, 7247, Note_on_c, 0, 74, 0
2, 7248, Note_on_c, 0, 73, 75
2, 7271, Note_on_c, 0, 73, 0
2, 7272, Note_on_c, 0, 71, 75
2, 7295, Note_on_c, 0, 71, 0
2, 7296, Note_on_c, 0, 69, 75
2, 7385, Note_on_c, 0, 69, 0
2, 7392, Note_on_c, 0, 73, 75
2, 7407, Note_on_c, 0, 73, 0
2, 7408, Note_on_c, 0, 71, 75
2, 7423, Note_on_c, 0, 71, 0
2, 7424, Note_on_c, 0, 73, 75
2, 7439, Note_on_c, 0, 73, 0
2, 7440, Note_on_c, 0, 71, 75
2, 7455, Note_on_c, 0, 71, 0
2, 7456, Note_on_c, 0, 69, 75
2, 7471, Note_on_c, 0, 69, 0
2, 7472, Note_on_c, 0, 71, 75
2, 7487, Note_on_c, 0, 71, 0
2, 7488, Note_on_c, 0, 69, 75
2, 7577, Note_on_c, 0, 69, 0
2, 7608, Note_on_c, 0, 69, 75
2, 7631, Note_on_c, 0, 69, 0
2, 7632, Note_on_c, 0, 73, 76
2, 7655, Note_on_c, 0, 73, 0
2, 7656, Note_on_c, 0, 69, 77
2, 7679, Note_on_c, 0, 69, 0
2, 7704, Note_on_c, 0, 69, 79
2, 7727, Note_on_c, 0, 69, 0
2, 7728, Note_on_c, 0, 73, 80
2, 7751, Note_on_c, 0, 73, 0
2, 7752, Note_on_c, 0, 69, 81
2, 7775, Note_on_c, 0, 69, 0
2, 7800, Note_on_c, 0, 69, 83
2, 7823, Note_on_c, 0, 69, 0
2, 7824, Note_on_c, 0, 73, 84
2, 7847, Note_on_c, 0, 73, 0
2, 7848, Note_on_c, 0, 69, 85
2, 7871, Note_on_c, 0, 69, 0
2, 7896, Note_on_c, 0, 69, 87
2, 7919, Note_on_c, 0, 69, 0
2, 7920, Note_on_c, 0, 73, 88
2, 7943, Note_on_c, 0, 73, 0
2, 7944, Note_on_c, 0, 69, 89
2, 7967, Note_on_c, 0, 69, 0
2, 7992, Note_on_c, 0, 57, 91
2, 8015, Note_on_c, 0, 57, 0
2, 8016, Note_on_c, 0, 61, 92
2, 8039, Note_on_c, 0, 61, 0
2, 8040, Note_on_c, 0, 57, 93
2, 8063, Note_on_c, 0, 57, 0
2, 8088, Note_on_c, 0, 57, 95
2, 8111, Note_on_c, 0, 57, 0
2, 8112, Note_on_c, 0, 59, 96
2, 8135, Note_on_c, 0, 59, 0
2, 8136, Note_on_c, 0, 57, 97
2, 8159, Note_on_c, 0, 57, 0
2, 8184, Note_on_c, 0, 56, 99
2, 8207, Note_on_c, 0, 56, 0
2, 8208, Note_on_c, 0, 59, 100
2, 8231, Note_on_c, 0, 59, 0
2, 8232, Note_on_c, 0, 56, 101
2, 8255, Note_on_c, 0, 56, 0
2, 8256, Note_on_c, 0, 57, 102
2, 8345, Note_on_c, 0, 57, 0
2, 8472, Note_on_c, 0, 61, 84
2, 8495, Note_on_c, 0, 61, 0
2, 8496, Note_on_c, 0, 69, 84
2, 8519, Note_on_c, 0, 69, 0
2, 8520, Note_on_c, 0, 61, 84
2, 8543, Note_on_c, 0, 61, 0
2, 8568, Note_on_c, 0, 66, 84
2, 8591, Note_on_c, 0, 66, 0
2, 8592, Note_on_c, 0, 69, 84
2, 8615, Note_on_c, 0, 69, 0
2, 8616, Note_on_c, 0, 66, 84
2, 8639, Note_on_c, 0, 66, 0
2, 8664, Note_on_c, 0, 64, 84
2, 8687, Note_on_c, 0, 64, 0
2, 8688, Note_on_c, 0, 69, 84
2, 8711, Note_on_c, 0, 69, 0
2, 8712, Note_on_c, 0, 64, 84
2, 8735, Note_on_c, 0, 64, 0
2, 8760, Note_on_c, 0, 62, 84
2, 8783, Note_on_c, 0, 62, 0
2, 8784, Note_on_c, 0, 69, 84
2, 8807, Note_on_c, 0, 69, 0
2, 8808, Note_on_c, 0, 62, 84
2, 8831, Note_on_c, 0, 62, 0
2, 8856, Note_on_c, 0, 61, 84
2, 8879, Note_on_c, 0, 61, 0
2, 8880, Note_on_c, 0, 69, 84
2, 8903, Note_on_c, 0, 69, 0
2, 8904, Note_on_c, 0, 61, 84
2, 8927, Note_on_c, 0, 61, 0
2, 8952, Note_on_c, 0, 62, 84
2, 8975, Note_on_c, 0, 62, 0
2, 8976, Note_on_c, 0, 69, 84
2, 8999, Note_on_c, 0, 69, 0
2, 9000, Note_on_c, 0, 62, 84
2, 9023, Note_on_c, 0, 62, 0
2, 9048, Note_on_c, 0, 61, 84
2, 9071, Note_on_c, 0, 61, 0
2, 9072, Note_on_c, 0, 67, 84
2, 9095, Note_on_c, 0, 67, 0
2, 9096, Note_on_c, 0, 61, 84
2, 9119, Note_on_c, 0, 61, 0
2, 9144, Note_on_c, 0, 62, 84
2, 9167, Note_on_c, 0, 62, 0
2, 9168, Note_on_c, 0, 66, 84
2, 9191, Note_on_c, 0, 66, 0
2, 9192, Note_on_c, 0, 62, 84
2, 9215, Note_on_c, 0, 62, 0
2, 9240, Note_on_c, 0, 61, 84
2, 9263, Note_on_c, 0, 61, 0
2, 9264, Note_on_c, 0, 69, 84
2, 9287, Note_on_c, 0, 69, 0
2, 9288, Note_on_c, 0, 61, 84
2, 9311, Note_on_c, 0, 61, 0
2, 9336, Note_on_c, 0, 66, 84
2, 9359, Note_on_c, 0, 66, 0
2, 9360, Note_on_c, 0, 69, 84
2, 9383, Note_on_c, 0, 69, 0
2, 9384, Note_on_c, 0, 66, 84
2, 9407, Note_on_c, 0, 66, 0
2, 9432, Note_on_c, 0, 64, 84
2, 9455, Note_on_c, 0, 64, 0
2, 9456, Note_on_c, 0, 69, 84
2, 9479, Note_on_c, 0, 69, 0
2, 9480, Note_on_c, 0, 64, 84
2, 9503, Note_on_c, 0, 64, 0
2, 9528, Note_on_c, 0, 62, 84
2, 9551, Note_on_c, 0, 62, 0
2, 9552, Note_on_c, 0, 69, 84
2, 9575, Note_on_c, 0, 69, 0
2, 9576, Note_on_c, 0, 62, 84
2, 9599, Note_on_c, 0, 62, 0
2, 9624, Note_on_c, 0, 61, 84
2, 9647, Note_on_c, 0, 61, 0
2, 9648, Note_on_c, 0, 69, 84
2, 9671, Note_on_c, 0, 69, 0
2, 9672, Note_on_c, 0, 61, 84
2, 9695, Note_on_c, 0, 61, 0
2, 9720, Note_on_c, 0, 62, 84
2, 9743, Note_on_c, 0, 62, 0
2, 9744, Note_on_c, 0, 69, 84
2, 9767, Note_on_c, 0, 69, 0
2, 9768, Note_on_c, 0, 62, 84
2, 9791, Note_on_c, 0, 62, 0
2, 9816, Note_on_c, 0, 61, 84
2, 9839, Note_on_c, 0, 61, 0
2, 9840, Note_on_c, 0, 67, 84
2, 9863, Note_on_c, 0, 67, 0
2, 9864, Note_on_c, 0, 61, 84
2, 9887, Note_on_c, 0, 61, 0
2, 9912, Note_on_c, 0, 62, 84
2, 9935, Note_on_c, 0, 62, 0
2, 9936, Note_on_c, 0, 66, 84
2, 9959, Note_on_c, 0, 66, 0
2, 9960, Note_on_c, 0, 62, 84
2, 9983, Note_on_c, 0, 62, 0
2, 10008, Note_on_c, 0, 61, 84
2, 10031, Note_on_c, 0, 61, 0
2, 10032, Note_on_c, 0, 69, 84
2, 10055, Note_on_c, 0, 69, 0
2, 10056, Note_on_c, 0, 61, 84
2, 10079, Note_on_c, 0, 61, 0
2, 10104, Note_on_c, 0, 64, 84
2, 10127, Note_on_c, 0, 64, 0
2, 10128, Note_on_c, 0, 69, 84
2, 10151, Note_on_c, 0, 69, 0
2, 10152, Note_on_c, 0, 64, 84
2, 10175, Note_on_c, 0, 64, 0
2, 10200, Note_on_c, 0, 63, 84
2, 10223, Note_on_c, 0, 63, 0
2, 10224, Note_on_c, 0, 69, 84
2, 10247, Note_on_c, 0, 69, 0
2, 10248, Note_on_c, 0, 63, 84
2, 10271, Note_on_c, 0, 63, 0
2, 10296, Note_on_c, 0, 59, 84
2, 10319, Note_on_c, 0, 59, 0
2, 10320, Note_on_c, 0, 69, 84
2, 10343, Note_on_c, 0, 69, 0
2, 10344, Note_on_c, 0, 59, 84
2, 10367, Note_on_c, 0, 59, 0
2, 10392, Note_on_c, 0, 59, 84
2, 10415, Note_on_c, 0, 59, 0
2, 10416, Note_on_c, 0, 67, 84
2, 10439, Note_on_c, 0, 67, 0
2, 10440, Note_on_c, 0, 59, 84
2, 10463, Note_on_c, 0, 59, 0
2, 10488, Note_on_c, 0, 62, 84
2, 10511, Note_on_c, 0, 62, 0
2, 10512, Note_on_c, 0, 67, 84
2, 10535, Note_on_c, 0, 67, 0
2, 10536, Note_on_c, 0, 62, 84
2, 10559, Note_on_c, 0, 62, 0
2, 10584, Note_on_c, 0, 61, 84
2, 10607, Note_on_c, 0, 61, 0
2, 10608, Note_on_c, 0, 67, 84
2, 10631, Note_on_c, 0, 67, 0
2, 10632, Note_on_c, 0, 61, 84
2, 10655, Note_on_c, 0, 61, 0
2, 10680, Note_on_c, 0, 57, 84
2, 10703, Note_on_c, 0, 57, 0
2, 10704, Note_on_c, 0, 67, 84
2, 10727, Note_on_c, 0, 67, 0
2, 10728, Note_on_c, 0, 57, 84
2, 10751, Note_on_c, 0, 57, 0
2, 10776, Note_on_c, 0, 57, 85
2, 10799, Note_on_c, 0, 57, 0
2, 10800, Note_on_c, 0, 66, 86
2, 10823, Note_on_c, 0, 66, 0
2, 10824, Note_on_c, 0, 57, 88
2, 10847, Note_on_c, 0, 57, 0
2, 10872, Note_on_c, 0, 62, 90
2, 10895, Note_on_c, 0, 62, 0
2, 10896, Note_on_c, 0, 66, 92
2, 10919, Note_on_c, 0, 66, 0
2, 10920, Note_on_c, 0, 62, 93
2, 10943, Note_on_c, 0, 62, 0
2, 10968, Note_on_c, 0, 62, 96
2, 10991, Note_on_c, 0, 62, 0
2, 10992, Note_on_c, 0, 66, 97
2, 11015, Note_on_c, 0, 66, 0
2, 11016, Note_on_c, 0, 62, 99
2, 11039, Note_on_c, 0, 62, 0
2, 11064, Note_on_c, 0, 62, 101
2, 11087, Note_on_c, 0, 62, 0
2, 11088, Note_on_c, 0, 66, 103
2, 11111, Note_on_c, 0, 66, 0
2, 11112, Note_on_c, 0, 62, 104
2, 11135, Note_on_c, 0, 62, 0
2, 11160, Note_on_c, 0, 62, 106
2, 11183, Note_on_c, 0, 62, 0
2, 11184, Note_on_c, 0, 66, 106
2, 11207, Note_on_c, 0, 66, 0
2, 11208, Note_on_c, 0, 62, 106
2, 11231, Note_on_c, 0, 62, 0
2, 11256, Note_on_c, 0, 62, 106
2, 11279, Note_on_c, 0, 62, 0
2, 11280, Note_on_c, 0, 69, 106
2, 11303, Note_on_c, 0, 69, 0
2, 11304, Note_on_c, 0, 62, 106
2, 11327, Note_on_c, 0, 62, 0
2, 11328, Note_on_c, 0, 71, 106
2, 11351, Note_on_c, 0, 71, 0
2, 11352, Note_on_c, 0, 69, 106
2, 11375, Note_on_c, 0, 69, 0
2, 11376, Note_on_c, 0, 67, 106
2, 11399, Note_on_c, 0, 67, 0
2, 11400, Note_on_c, 0, 66, 106
2, 11423, Note_on_c, 0, 66, 0
2, 11424, Note_on_c, 0, 64, 106
2, 11447, Note_on_c, 0, 64, 0
2, 11448, Note_on_c, 0, 62, 106
2, 11471, Note_on_c, 0, 62, 0
2, 11472, Note_on_c, 0, 61, 106
2, 11495, Note_on_c, 0, 61, 0
2, 11496, Note_on_c, 0, 59, 106
2, 11519, Note_on_c, 0, 59, 0
2, 11520, Note_on_c, 0, 57, 106
2, 11609, Note_on_c, 0, 57, 0
2, 11712, Note_on_c, 0, 64, 84
2, 11718, Note_on_c, 0, 64, 0
2, 11718, Note_on_c, 0, 62, 84
2, 11724, Note_on_c, 0, 62, 0
2, 11724, Note_on_c, 0, 61, 84
2, 11730, Note_on_c, 0, 61, 0
2, 11730, Note_on_c, 0, 62, 84
2, 11757, Note_on_c, 0, 62, 0
2, 11808, Note_on_c, 0, 67, 91
2, 11814, Note_on_c, 0, 67, 0
2, 11814, Note_on_c, 0, 66, 91
2, 11820, Note_on_c, 0, 66, 0
2, 11820, Note_on_c, 0, 64, 91
2, 11826, Note_on_c, 0, 64, 0
2, 11826, Note_on_c, 0, 66, 91
2, 11853, Note_on_c, 0, 66, 0
2, 11904, Note_on_c, 0, 71, 98
2, 11910, Note_on_c, 0, 71, 0
2, 11910, Note_on_c, 0, 69, 98
2, 11916, Note_on_c, 0, 69, 0
2, 11916, Note_on_c, 0, 67, 98
2, 11922, Note_on_c, 0, 67, 0
2, 11922, Note_on_c, 0, 69, 98
2, 11949, Note_on_c, 0, 69, 0
2, 12000, Note_on_c, 0, 76, 106
2, 12006, Note_on_c, 0, 76, 0
2, 12006, Note_on_c, 0, 74, 106
2, 12012, Note_on_c, 0, 74, 0
2, 12012, Note_on_c, 0, 73, 106
2, 12018, Note_on_c, 0, 73, 0
2, 12018, Note_on_c, 0, 74, 106
2, 12045, Note_on_c, 0, 74, 0
2, 12096, Note_on_c, 0, 69, 75
2, 12119, Note_on_c, 0, 69, 0
2, 12120, Note_on_c, 0, 71, 76
2, 12143, Note_on_c, 0, 71, 0
2, 12144, Note_on_c, 0, 73, 78
2, 12167, Note_on_c, 0, 73, 0
2, 12168, Note_on_c, 0, 74, 80
2, 12191, Note_on_c, 0, 74, 0
2, 12192, Note_on_c, 0, 76, 82
2, 12215, Note_on_c, 0, 76, 0
2, 12216, Note_on_c, 0, 78, 84
2, 12239, Note_on_c, 0, 78, 0
2, 12240, Note_on_c, 0, 79, 83
2, 12263, Note_on_c, 0, 79, 0
2, 12264, Note_on_c, 0, 81, 82
2, 12287, Note_on_c, 0, 81, 0
2, 12288, Note_on_c, 0, 79, 97
2, 12288, Note_on_c, 0, 76, 97
2, 12384, Note_on_c, 0, 79, 0
2, 12384, Note_on_c, 0, 76, 0
2, 12384, Note_on_c, 0, 78, 77
2, 12384, Note_on_c, 0, 74, 77
2, 12429, Note_on_c, 0, 78, 0
2, 12429, Note_on_c, 0, 74, 0
2, 12480, Note_on_c, 0, 64, 84
2, 12486, Note_on_c, 0, 64, 0
2, 12486, Note_on_c, 0, 62, 84
2, 12492, Note_on_c, 0, 62, 0
2, 12492, Note_on_c, 0, 61, 84
2, 12498, Note_on_c, 0, 61, 0
2, 12498, Note_on_c, 0, 62, 84
2, 12525, Note_on_c, 0, 62, 0
2, 12576, Note_on_c, 0, 67, 90
2, 12582, Note_on_c, 0, 67, 0
2, 12582, Note_on_c, 0, 66, 90
2, 12588, Note_on_c, 0, 66, 0
2, 12588, Note_on_c, 0, 64, 90
2, 12594, Note_on_c, 0, 64, 0
2, 12594, Note_on_c, 0, 66, 90
2, 12621, Note_on_c, 0, 66, 0
2, 12672, Note_on_c, 0, 71, 96
2, 12678, Note_on_c, 0, 71, 0
2, 12678, Note_on_c, 0, 69, 96
2, 12684, Note_on_c, 0, 69, 0
2, 12684, Note_on_c, 0, 67, 96
2, 12690, Note_on_c, 0, 67, 0
2, 12690, Note_on_c, 0, 69, 96
2, 12717, Note_on_c, 0, 69, 0
2, 12768, Note_on_c, 0, 76, 102
2, 12774, Note_on_c, 0, 76, 0
2, 12774, Note_on_c, 0, 74, 102
2, 12780, Note_on_c, 0, 74, 0
2, 12780, Note_on_c, 0, 73, 102
2, 12786, Note_on_c, 0, 73, 0
2, 12786, Note_on_c, 0, 74, 102
2, 12813, Note_on_c, 0, 74, 0
2, 12864, Note_on_c, 0, 83, 75
2, 12887, Note_on_c, 0, 83, 0
2, 12888, Note_on_c, 0, 86, 75
2, 12911, Note_on_c, 0, 86, 0
2, 12912, Note_on_c, 0, 85, 75
2, 12935, Note_on_c, 0, 85, 0
2, 12936, Note_on_c, 0, 83, 75
2, 12959, Note_on_c, 0, 83, 0
2, 12960, Note_on_c, 0, 81, 75
2, 13005, Note_on_c, 0, 81, 0
2, 13056, Note_on_c, 0, 79, 75
2, 13079, Note_on_c, 0, 79, 0
2, 13080, Note_on_c, 0, 83, 75
2, 13103, Note_on_c, 0, 83, 0
2, 13104, Note_on_c, 0, 81, 75
2, 13127, Note_on_c, 0, 81, 0
2, 13128, Note_on_c, 0, 79, 75
2, 13151, Note_on_c, 0, 79, 0
2, 13152, Note_on_c, 0, 78, 75
2, 13197, Note_on_c, 0, 78, 0
2, 13248, Note_on_c, 0, 71, 75
2, 13271, Note_on_c, 0, 71, 0
2, 13272, Note_on_c, 0, 74, 75
2, 13295, Note_on_c, 0, 74, 0
2, 13296, Note_on_c, 0, 73, 75
2, 13319, Note_on_c, 0, 73, 0
2, 13320, Note_on_c, 0, 71, 75
2, 13343, Note_on_c, 0, 71, 0
2, 13344, Note_on_c, 0, 69, 75
2, 13389, Note_on_c, 0, 69, 0
2, 13440, Note_on_c, 0, 67, 75
2, 13463, Note_on_c, 0, 67, 0
2, 13464, Note_on_c, 0, 71, 75
2, 13487, Note_on_c, 0, 71, 0
2, 13488, Note_on_c, 0, 69, 75
2, 13511, Note_on_c, 0, 69, 0
2, 13512, Note_on_c, 0, 79, 75
2, 13535, Note_on_c, 0, 79, 0
2, 13536, Note_on_c, 0, 78, 75
2, 13581, Note_on_c, 0, 78, 0
2, 13632, Note_on_c, 0, 86, 75
2, 13655, Note_on_c, 0, 86, 0
2, 13656, Note_on_c, 0, 85, 75
2, 13679, Note_on_c, 0, 85, 0
2, 13680, Note_on_c, 0, 83, 75
2, 13703, Note_on_c, 0, 83, 0
2, 13704, Note_on_c, 0, 81, 75
2, 13727, Note_on_c, 0, 81, 0
2, 13728, Note_on_c, 0, 79, 75
2, 13751, Note_on_c, 0, 79, 0
2, 13752, Note_on_c, 0, 78, 75
2, 13775, Note_on_c, 0, 78, 0
2, 13776, Note_on_c, 0, 76, 75
2, 13799, Note_on_c, 0, 76, 0
2, 13800, Note_on_c, 0, 74, 75
2, 13823, Note_on_c, 0, 74, 0
2, 13824, Note_on_c, 0, 83, 75
2, 13869, Note_on_c, 0, 83, 0
2, 14016, Note_on_c, 0, 86, 75
2, 14039, Note_on_c, 0, 86, 0
2, 14040, Note_on_c, 0, 85, 75
2, 14063, Note_on_c, 0, 85, 0
2, 14064, Note_on_c, 0, 83, 75
2, 14087, Note_on_c, 0, 83, 0
2, 14088, Note_on_c, 0, 81, 75
2, 14111, Note_on_c, 0, 81, 0
2, 14112, Note_on_c, 0, 79, 75
2, 14135, Note_on_c, 0, 79, 0
2, 14136, Note_on_c, 0, 78, 75
2, 14159, Note_on_c, 0, 78, 0
2, 14160, Note_on_c, 0, 76, 75
2, 14183, Note_on_c, 0, 76, 0
2, 14184, Note_on_c, 0, 74, 75
2, 14207, Note_on_c, 0, 74, 0
2, 14208, Note_on_c, 0, 81, 75
2, 14253, Note_on_c, 0, 81, 0
2, 14400, Note_on_c, 0, 86, 75
2, 14423, Note_on_c, 0, 86, 0
2, 14424, Note_on_c, 0, 85, 75
2, 14447, Note_on_c, 0, 85, 0
2, 14448, Note_on_c, 0, 83, 75
2, 14471, Note_on_c, 0, 83, 0
2, 14472, Note_on_c, 0, 81, 75
2, 14495, Note_on_c, 0, 81, 0
2, 14496, Note_on_c, 0, 79, 75
2, 14519, Note_on_c, 0, 79, 0
2, 14520, Note_on_c, 0, 78, 75
2, 14543, Note_on_c, 0, 78, 0
2, 14544, Note_on_c, 0, 76, 75
2, 14567, Note_on_c, 0, 76, 0
2, 14568, Note_on_c, 0, 74, 75
2, 14591, Note_on_c, 0, 74, 0
2, 14592, Note_on_c, 0, 83, 75
2, 14681, Note_on_c, 0, 83, 0
2, 14688, Note_on_c, 0, 81, 75
2, 14711, Note_on_c, 0, 81, 0
2, 14712, Note_on_c, 0, 79, 75
2, 14735, Note_on_c, 0, 79, 0
2, 14736, Note_on_c, 0, 78, 75
2, 14759, Note_on_c, 0, 78, 0
2, 14760, Note_on_c, 0, 76, 75
2, 14783, Note_on_c, 0, 76, 0
2, 14784, Note_on_c, 0, 74, 75
2, 14873, Note_on_c, 0, 74, 0
2, 14880, Note_on_c, 0, 78, 75
2, 14895, Note_on_c, 0, 78, 0
2, 14896, Note_on_c, 0, 76, 75
2, 14911, Note_on_c, 0, 76, 0
2, 14912, Note_on_c, 0, 78, 75
2, 14927, Note_on_c, 0, 78, 0
2, 14928, Note_on_c, 0, 76, 75
2, 14943, Note_on_c, 0, 76, 0
2, 14944, Note_on_c, 0, 74, 75
2, 14959, Note_on_c, 0, 74, 0
2, 14960, Note_on_c, 0, 76, 75
2, 14975, Note_on_c, 0, 76, 0
2, 14976, Note_on_c, 0, 74, 75
2, 15065, Note_on_c, 0, 74, 0
2, 15096, Note_on_c, 0, 74, 84
2, 15119, Note_on_c, 0, 74, 0
2, 15120, Note_on_c, 0, 78, 85
2, 15143, Note_on_c, 0, 78, 0
2, 15144, Note_on_c, 0, 74, 86
2, 15167, Note_on_c, 0, 74, 0
2, 15192, Note_on_c, 0, 74, 87
2, 15215, Note_on_c, 0, 74, 0
2, 15216, Note_on_c, 0, 78, 88
2, 15239, Note_on_c, 0, 78, 0
2, 15240, Note_on_c, 0, 74, 88
2, 15263, Note_on_c, 0, 74, 0
2, 15288, Note_on_c, 0, 74, 90
2, 15311, Note_on_c, 0, 74, 0
2, 15312, Note_on_c, 0, 78, 90
2, 15335, Note_on_c, 0, 78, 0
2, 15336, Note_on_c, 0, 74, 91
2, 15359, Note_on_c, 0, 74, 0
2, 15384, Note_on_c, 0, 74, 92
2, 15407, Note_on_c, 0, 74, 0
2, 15408, Note_on_c, 0, 78, 93
2, 15431, Note_on_c, 0, 78, 0
2, 15432, Note_on_c, 0, 74, 94
2, 15455, Note_on_c, 0, 74, 0
2, 15480, Note_on_c, 0, 62, 95
2, 15503, Note_on_c, 0, 62, 0
2, 15504, Note_on_c, 0, 66, 96
2, 15527, Note_on_c, 0, 66, 0
2, 15528, Note_on_c, 0, 62, 97
2, 15551, Note_on_c, 0, 62, 0
2, 15576, Note_on_c, 0, 62, 98
2, 15599, Note_on_c, 0, 62, 0
2, 15600, Note_on_c, 0, 64, 99
2, 15623, Note_on_c, 0, 64, 0
2, 15624, Note_on_c, 0, 62, 99
2, 15647, Note_on_c, 0, 62, 0
2, 15672, Note_on_c, 0, 61, 101
2, 15695, Note_on_c, 0, 61, 0
2, 15696, Note_on_c, 0, 64, 101
2, 15719, Note_on_c, 0, 64, 0
2, 15720, Note_on_c, 0, 61, 102
2, 15743, Note_on_c, 0, 61, 0
2, 15744, Note_on_c, 0, 62, 103
2, 15833, Note_on_c, 0, 62, 0
2, 15960, Note_on_c, 0, 61, 84
2, 15983, Note_on_c, 0, 61, 0
2, 15984, Note_on_c, 0, 69, 84
2, 16007, Note_on_c, 0, 69, 0
2, 16008, Note_on_c, 0, 61, 84
2, 16031, Note_on_c, 0, 61, 0
2, 16056, Note_on_c, 0, 66, 84
2, 16079, Note_on_c, 0, 66, 0
2, 16080, Note_on_c, 0, 69, 84
2, 16103, Note_on_c, 0, 69, 0
2, 16104, Note_on_c, 0, 66, 84
2, 16127, Note_on_c, 0, 66, 0
2, 16152, Note_on_c, 0, 64, 84
2, 16175, Note_on_c, 0, 64, 0
2, 16176, Note_on_c, 0, 69, 84
2, 16199, Note_on_c, 0, 69, 0
2, 16200, Note_on_c, 0, 64, 84
2, 16223, Note_on_c, 0, 64, 0
2, 16248, Note_on_c, 0, 62, 84
2, 16271, Note_on_c, 0, 62, 0
2, 16272, Note_on_c, 0, 69, 84
2, 16295, Note_on_c, 0, 69, 0
2, 16296, Note_on_c, 0, 62, 84
2, 16319, Note_on_c, 0, 62, 0
2, 16344, Note_on_c, 0, 61, 84
2, 16367, Note_on_c, 0, 61, 0
2, 16368, Note_on_c, 0, 69, 84
2, 16391, Note_on_c, 0, 69, 0
2, 16392, Note_on_c, 0, 61, 84
2, 16415, Note_on_c, 0, 61, 0
2, 16440, Note_on_c, 0, 62, 84
2, 16463, Note_on_c, 0, 62, 0
2, 16464, Note_on_c, 0, 69, 84
2, 16487, Note_on_c, 0, 69, 0
2, 16488, Note_on_c, 0, 62, 84
2, 16511, Note_on_c, 0, 62, 0
2, 16536, Note_on_c, 0, 61, 84
2, 16559, Note_on_c, 0, 61, 0
2, 16560, Note_on_c, 0, 67, 84
2, 16583, Note_on_c, 0, 67, 0
2, 16584, Note_on_c, 0, 61, 84
2, 16607, Note_on_c, 0, 61, 0
2, 16632, Note_on_c, 0, 62, 84
2, 16655, Note_on_c, 0, 62, 0
2, 16656, Note_on_c, 0, 66, 84
2, 16679, Note_on_c, 0, 66, 0
2, 16680, Note_on_c, 0, 62, 84
2, 16703, Note_on_c, 0, 62, 0
2, 16728, Note_on_c, 0, 61, 84
2, 16751, Note_on_c, 0, 61, 0
2, 16752, Note_on_c, 0, 69, 84
2, 16775, Note_on_c, 0, 69, 0
2, 16776, Note_on_c, 0, 61, 84
2, 16799, Note_on_c, 0, 61, 0
2, 16824, Note_on_c, 0, 66, 84
2, 16847, Note_on_c, 0, 66, 0
2, 16848, Note_on_c, 0, 69, 84
2, 16871, Note_on_c, 0, 69, 0
2, 16872, Note_on_c, 0, 66, 84
2, 16895, Note_on_c, 0, 66, 0
2, 16920, Note_on_c, 0, 64, 84
2, 16943, Note_on_c, 0, 64, 0
2, 16944, Note_on_c, 0, 69, 84
2, 16967, Note_on_c, 0, 69, 0
2, 16968, Note_on_c, 0, 64, 84
2, 16991, Note_on_c, 0, 64, 0
2, 17016, Note_on_c, 0, 62, 84
2, 17039, Note_on_c, 0, 62, 0
2, 17040, Note_on_c, 0, 69, 84
2, 17063, Note_on_c, 0, 69, 0
2, 17064, Note_on_c, 0, 62, 84
2, 17087, Note_on_c, 0, 62, 0
2, 17112, Note_on_c, 0, 61, 84
2, 17135, Note_on_c, 0, 61, 0
2, 17136, Note_on_c, 0, 69, 84
2, 17159, Note_on_c, 0, 69, 0
2, 17160, Note_on_c, 0, 61, 84
2, 17183, Note_on_c, 0, 61, 0
2, 17208, Note_on_c, 0, 62, 84
2, 17231, Note_on_c, 0, 62, 0
2, 17232, Note_on_c, 0, 69, 84
2, 17255, Note_on_c, 0, 69, 0
2, 17256, Note_on_c, 0, 62, 84
2, 17279, Note_on_c, 0, 62, 0
2, 17304, Note_on_c, 0, 61, 84
2, 17327, Note_on_c, 0, 61, 0
2, 17328, Note_on_c, 0, 67, 84
2, 17351, Note_on_c, 0, 67, 0
2, 17352, Note_on_c, 0, 61, 84
2, 17375, Note_on_c, 0, 61, 0
2, 17400, Note_on_c, 0, 62, 84
2, 17423, Note_on_c, 0, 62, 0
2, 17424, Note_on_c, 0, 66, 84
2, 17447, Note_on_c, 0, 66, 0
2, 17448, Note_on_c, 0, 62, 84
2, 17471, Note_on_c, 0, 62, 0
2, 17496, Note_on_c, 0, 61, 84
2, 17519, Note_on_c, 0, 61, 0
2, 17520, Note_on_c, 0, 69, 84
2, 17543, Note_on_c, 0, 69, 0
2, 17544, Note_on_c, 0, 61, 84
2, 17567, Note_on_c, 0, 61, 0
2, 17592, Note_on_c, 0, 64, 84
2, 17615, Note_on_c, 0, 64, 0
2, 17616, Note_on_c, 0, 69, 84
2, 17639, Note_on_c, 0, 69, 0
2, 17640, Note_on_c, 0, 64, 84
2, 17663, Note_on_c, 0, 64, 0
2, 17688, Note_on_c, 0, 63, 84
2, 17711, Note_on_c, 0, 63, 0
2, 17712, Note_on_c, 0, 69, 84
2, 17735, Note_on_c, 0, 69, 0
2, 17736, Note_on_c, 0, 63, 84
2, 17759, Note_on_c, 0, 63, 0
2, 17784, Note_on_c, 0, 59, 84
2, 17807, Note_on_c, 0, 59, 0
2, 17808, Note_on_c, 0, 69, 84
2, 17831, Note_on_c, 0, 69, 0
2, 17832, Note_on_c, 0, 59, 84
2, 17855, Note_on_c, 0, 59, 0
2, 17880, Note_on_c, 0, 59, 84
2, 17903, Note_on_c, 0, 59, 0
2, 17904, Note_on_c, 0, 67, 84
2, 17927, Note_on_c, 0, 67, 0
2, 17928, Note_on_c, 0, 59, 84
2, 17951, Note_on_c, 0, 59, 0
2, 17976, Note_on_c, 0, 62, 84
2, 17999, Note_on_c, 0, 62, 0
2, 18000, Note_on_c, 0, 67, 84
2, 18023, Note_on_c, 0, 67, 0
2, 18024, Note_on_c, 0, 62, 84
2, 18047, Note_on_c, 0, 62, 0
2, 18072, Note_on_c, 0, 61, 84
2, 18095, Note_on_c, 0, 61, 0
2, 18096, Note_on_c, 0, 67, 84
2, 18119, Note_on_c, 0, 67, 0
2, 18120, Note_on_c, 0, 61, 84
2, 18143, Note_on_c, 0, 61, 0
2, 18168, Note_on_c, 0, 57, 84
2, 18191, Note_on_c, 0, 57, 0
2, 18192, Note_on_c, 0, 67, 84
2, 18215, Note_on_c, 0, 67, 0
2, 18216, Note_on_c, 0, 57, 84
2, 18239, Note_on_c, 0, 57, 0
2, 18264, Note_on_c, 0, 57, 85
2, 18287, Note_on_c, 0, 57, 0
2, 18288, Note_on_c, 0, 66, 86
2, 18311, Note_on_c, 0, 66, 0
2, 18312, Note_on_c, 0, 57, 88
2, 18335, Note_on_c, 0, 57, 0
2, 18360, Note_on_c, 0, 62, 90
2, 18383, Note_on_c, 0, 62, 0
2, 18384, Note_on_c, 0, 66, 92
2, 18407, Note_on_c, 0, 66, 0
2, 18408, Note_on_c, 0, 62, 93
2, 18431, Note_on_c, 0, 62, 0
2, 18456, Note_on_c, 0, 62, 96
2, 18479, Note_on_c, 0, 62, 0
2, 18480, Note_on_c, 0, 66, 97
2, 18503, Note_on_c, 0, 66, 0
2, 18504, Note_on_c, 0, 62, 99
2, 18527, Note_on_c, 0, 62, 0
2, 18552, Note_on_c, 0, 62, 101
2, 18575, Note_on_c, 0, 62, 0
2, 18576, Note_on_c, 0, 66, 103
2, 18599, Note_on_c, 0, 66, 0
2, 18600, Note_on_c, 0, 62, 104
2, 18623, Note_on_c, 0, 62, 0
2, 18648, Note_on_c, 0, 62, 106
2, 18671, Note_on_c, 0, 62, 0
2, 18672, Note_on_c, 0, 66, 106
2, 18695, Note_on_c, 0, 66, 0
2, 18696, Note_on_c, 0, 62, 106
2, 18719, Note_on_c, 0, 62, 0
2, 18744, Note_on_c, 0, 62, 106
2, 18767, Note_on_c, 0, 62, 0
2, 18768, Note_on_c, 0, 69, 106
2, 18791, Note_on_c, 0, 69, 0
2, 18792, Note_on_c, 0, 62, 106
2, 18815, Note_on_c, 0, 62, 0
2, 18816, Note_on_c, 0, 71, 106
2, 18839, Note_on_c, 0, 71, 0
2, 18840, Note_on_c, 0, 69, 106
2, 18863, Note_on_c, 0, 69, 0
2, 18864, Note_on_c, 0, 67, 106
2, 18887, Note_on_c, 0, 67, 0
2, 18888, Note_on_c, 0, 66, 106
2, 18911, Note_on_c, 0, 66, 0
2, 18912, Note_on_c, 0, 64, 106
2, 18935, Note_on_c, 0, 64, 0
2, 18936, Note_on_c, 0, 62, 106
2, 18959, Note_on_c, 0, 62, 0
2, 18960, Note_on_c, 0, 61, 106
2, 18983, Note_on_c, 0, 61, 0
2, 18984, Note_on_c, 0, 59, 106
2, 19007, Note_on_c, 0, 59, 0
2, 19008, Note_on_c, 0, 57, 106
2, 19097, Note_on_c, 0, 57, 0
2, 19200, Note_on_c, 0, 64, 84
2, 19206, Note_on_c, 0, 64, 0
2, 19206, Note_on_c, 0, 62, 84
2, 19212, Note_on_c, 0, 62, 0
2, 19212, Note_on_c, 0, 61, 84
2, 19218, Note_on_c, 0, 61, 0
2, 19218, Note_on_c, 0, 62, 84
2, 19245, Note_on_c, 0, 62, 0
2, 19296, Note_on_c, 0, 67, 91
2, 19302, Note_on_c, 0, 67, 0
2, 19302, Note_on_c, 0, 66, 91
2, 19308, Note_on_c, 0, 66, 0
2, 19308, Note_on_c, 0, 64, 91
2, 19314, Note_on_c, 0, 64, 0
2, 19314, Note_on_c, 0, 66, 91
2, 19341, Note_on_c, 0, 66, 0
2, 19392, Note_on_c, 0, 71, 98
2, 19398, Note_on_c, 0, 71, 0
2, 19398, Note_on_c, 0, 69, 98
2, 19404, Note_on_c, 0, 69, 0
2, 19404, Note_on_c, 0, 67, 98
2, 19410, Note_on_c, 0, 67, 0
2, 19410, Note_on_c, 0, 69, 98
2, 19437, Note_on_c, 0, 69, 0
2, 19488, Note_on_c, 0, 76, 106
2, 19494, Note_on_c, 0, 76, 0
2, 19494, Note_on_c, 0, 74, 106
2, 19500, Note_on_c, 0, 74, 0
2, 19500, Note_on_c, 0, 73, 106
2, 19506, Note_on_c, 0, 73, 0
2, 19506, Note_on_c, 0, 74, 106
2, 19533, Note_on_c, 0, 74, 0
2, 19584, Note_on_c, 0, 69, 75
2, 19607, Note_on_c, 0, 69, 0
2, 19608, Note_on_c, 0, 71, 76
2, 19631, Note_on_c, 0, 71, 0
2, 19632, Note_on_c, 0, 73, 78
2, 19655, Note_on_c, 0, 73, 0
2, 19656, Note_on_c, 0, 74, 80
2, 19679, Note_on_c, 0, 74, 0
2, 19680, Note_on_c, 0, 76, 82
2, 19703, Note_on_c, 0, 76, 0
2, 19704, Note_on_c, 0, 78, 84
2, 19727, Note_on_c, 0, 78, 0
2, 19728, Note_on_c, 0, 79, 83
2, 19751, Note_on_c, 0, 79, 0
2, 19752, Note_on_c, 0, 81, 82
2, 19775, Note_on_c, 0, 81, 0
2, 19776, Note_on_c, 0, 79, 97
2, 19776, Note_on_c, 0, 76, 97
2, 19872, Note_on_c, 0, 79, 0
2, 19872, Note_on_c, 0, 76, 0
2, 19872, Note_on_c, 0, 78, 77
2, 19872, Note_on_c, 0, 74, 77
2, 19917, Note_on_c, 0, 78, 0
2, 19917, Note_on_c, 0, 74, 0
2, 19968, Note_on_c, 0, 64, 84
2, 19974, Note_on_c, 0, 64, 0
2, 19974, Note_on_c, 0, 62, 84
2, 19980, Note_on_c, 0, 62, 0
2, 19980, Note_on_c, 0, 61, 84
2, 19986, Note_on_c, 0, 61, 0
2, 19986, Note_on_c, 0, 62, 84
2, 20013, Note_on_c, 0, 62, 0
2, 20064, Note_on_c, 0, 67, 90
2, 20070, Note_on_c, 0, 67, 0
2, 20070, Note_on_c, 0, 66, 90
2, 20076, Note_on_c, 0, 66, 0
2, 20076, Note_on_c, 0, 64, 90
2, 20082, Note_on_c, 0, 64, 0
2, 20082, Note_on_c, 0, 66, 90
2, 20109, Note_on_c, 0, 66, 0
2, 20160, Note_on_c, 0, 71, 96
2, 20166, Note_on_c, 0, 71, 0
2, 20166, Note_on_c, 0, 69, 96
2, 20172, Note_on_c, 0, 69, 0
2, 20172, Note_on_c, 0, 67, 96
2, 20178, Note_on_c, 0, 67, 0
2, 20178, Note_on_c, 0, 69, 96
2, 20205, Note_on_c, 0, 69, 0
2, 20256, Note_on_c, 0, 76, 102
2, 20262, Note_on_c, 0, 76, 0
2, 20262, Note_on_c, 0, 74, 102
2, 20268, Note_on_c, 0, 74, 0
2, 20268, Note_on_c, 0, 73, 102
2, 20274, Note_on_c, 0, 73, 0
2, 20274, Note_on_c, 0, 74, 102
2, 20301, Note_on_c, 0, 74, 0
2, 20352, Note_on_c, 0, 83, 75
2, 20375, Note_on_c, 0, 83, 0
2, 20376, Note_on_c, 0, 86, 75
2, 20399, Note_on_c, 0, 86, 0
2, 20400, Note_on_c, 0, 85, 75
2, 20423, Note_on_c, 0, 85, 0
2, 20424, Note_on_c, 0, 83, 75
2, 20447, Note_on_c, 0, 83, 0
2, 20448, Note_on_c, 0, 81, 75
2, 20493, Note_on_c, 0, 81, 0
2, 20544, Note_on_c, 0, 79, 75
2, 20567, Note_on_c, 0, 79, 0
2, 20568, Note_on_c, 0, 83, 75
2, 20591, Note_on_c, 0, 83, 0
2, 20592, Note_on_c, 0, 81, 75
2, 20615, Note_on_c, 0, 81, 0
2, 20616, Note_on_c, 0, 79, 75
2, 20639, Note_on_c, 0, 79, 0
2, 20640, Note_on_c, 0, 78, 75
2, 20685, Note_on_c, 0, 78, 0
2, 20736, Note_on_c, 0, 71, 75
2, 20759, Note_on_c, 0, 71, 0
2, 20760, Note_on_c, 0, 74, 75
2, 20783, Note_on_c, 0, 74, 0
2, 20784, Note_on_c, 0, 73, 75
2, 20807, Note_on_c, 0, 73, 0
2, 20808, Note_on_c, 0, 71, 75
2, 20831, Note_on_c, 0, 71, 0
2, 20832, Note_on_c, 0, 69, 75
2, 20877, Note_on_c, 0, 69, 0
2, 20928, Note_on_c, 0, 67, 75
2, 20951, Note_on_c, 0, 67, 0
2, 20952, Note_on_c, 0, 71, 75
2, 20975, Note_on_c, 0, 71, 0
2, 20976, Note_on_c, 0, 69, 75
2, 20999, Note_on_c, 0, 69, 0
2, 21000, Note_on_c, 0, 79, 75
2, 21023, Note_on_c, 0, 79, 0
2, 21024, Note_on_c, 0, 78, 75
2, 21069, Note_on_c, 0, 78, 0
2, 21120, Note_on_c, 0, 86, 75
2, 21143, Note_on_c, 0, 86, 0
2, 21144, Note_on_c, 0, 85, 75
2, 21167, Note_on_c, 0, 85, 0
2, 21168, Note_on_c, 0, 83, 75
2, 21191, Note_on_c, 0, 83, 0
2, 21192, Note_on_c, 0, 81, 75
2, 21215, Note_on_c, 0, 81, 0
2, 21216, Note_on_c, 0, 79, 75
2, 21239, Note_on_c, 0, 79, 0
2, 21240, Note_on_c, 0, 78, 75
2, 21263, Note_on_c, 0, 78, 0
2, 21264, Note_on_c, 0, 76, 75
2, 21287, Note_on_c, 0, 76, 0
2, 21288, Note_on_c, 0, 74, 75
2, 21311, Note_on_c, 0, 74, 0
2, 21312, Note_on_c, 0, 83, 75
2, 21357, Note_on_c, 0, 83, 0
2, 21504, Note_on_c, 0, 86, 75
2, 21527, Note_on_c, 0, 86, 0
2, 21528, Note_on_c, 0, 85, 75
2, 21551, Note_on_c, 0, 85, 0
2, 21552, Note_on_c, 0, 83, 75
2, 21575, Note_on_c, 0, 83, 0
2, 21576, Note_on_c, 0, 81, 75
2, 21599, Note_on_c, 0, 81, 0
2, 21600, Note_on_c, 0, 79, 75
2, 21623, Note_on_c, 0, 79, 0
2, 21624, Note_on_c, 0, 78, 75
2, 21647, Note_on_c, 0, 78, 0
2, 21648, Note_on_c, 0, 76, 75
2, 21671, Note_on_c, 0, 76, 0
2, 21672, Note_on_c, 0, 74, 75
2, 21695, Note_on_c, 0, 74, 0
2, 21696, Note_on_c, 0, 81, 75
2, 21741, Note_on_c, 0, 81, 0
2, 21888, Note_on_c, 0, 86, 75
2, 21911, Note_on_c, 0, 86, 0
2, 21912, Note_on_c, 0, 85, 75
2, 21935, Note_on_c, 0, 85, 0
2, 21936, Note_on_c, 0, 83, 75
2, 21959, Note_on_c, 0, 83, 0
2, 21960, Note_on_c, 0, 81, 75
2, 21983, Note_on_c, 0, 81, 0
2, 21984, Note_on_c, 0, 79, 75
2, 22007, Note_on_c, 0, 79, 0
2, 22008, Note_on_c, 0, 78, 75
2, 22031, Note_on_c, 0, 78, 0
2, 22032, Note_on_c, 0, 76, 75
2, 22055, Note_on_c, 0, 76, 0
2, 22056, Note_on_c, 0, 74, 75
2, 22079, Note_on_c, 0, 74, 0
2, 22080, Note_on_c, 0, 83, 75
2, 22169, Note_on_c, 0, 83, 0
2, 22176, Note_on_c, 0, 81, 75
2, 22199, Note_on_c, 0, 81, 0
2, 22200, Note_on_c, 0, 79, 75
2, 22223, Note_on_c, 0, 79, 0
2, 22224, Note_on_c, 0, 78, 75
2, 22247, Note_on_c, 0, 78, 0
2, 22248, Note_on_c, 0, 76, 75
2, 22271, Note_on_c, 0, 76, 0
2, 22272, Note_on_c, 0, 74, 75
2, 22361, Note_on_c, 0, 74, 0
2, 22368, Note_on_c, 0, 78, 75
2, 22383, Note_on_c, 0, 78, 0
2, 22384, Note_on_c, 0, 76, 75
2, 22399, Note_on_c, 0, 76, 0
2, 22400, Note_on_c, 0, 78, 75
2, 22415, Note_on_c, 0, 78, 0
2, 22416, Note_on_c, 0, 76, 75
2, 22431, Note_on_c, 0, 76, 0
2, 22432, Note_on_c, 0, 74, 75
2, 22447, Note_on_c, 0, 74, 0
2, 22448, Note_on_c, 0, 76, 75
2, 22463, Note_on_c, 0, 76, 0
2, 22464, Note_on_c, 0, 74, 75
2, 22553, Note_on_c, 0, 74, 0
2, 22584, Note_on_c, 0, 74, 84
2, 22607, Note_on_c, 0, 74, 0
2, 22608, Note_on_c, 0, 78, 85
2, 22631, Note_on_c, 0, 78, 0
2, 22632, Note_on_c, 0, 74, 86
2, 22655, Note_on_c, 0, 74, 0
2, 22680, Note_on_c, 0, 74, 87
2, 22703, Note_on_c, 0, 74, 0
2, 22704, Note_on_c, 0, 78, 88
2, 22727, Note_on_c, 0, 78, 0
2, 22728, Note_on_c, 0, 74, 88
2, 22751, Note_on_c, 0, 74, 0
2, 22776, Note_on_c, 0, 74, 90
2, 22799, Note_on_c, 0, 74, 0
2, 22800, Note_on_c, 0, 78, 90
2, 22823, Note_on_c, 0, 78, 0
2, 22824, Note_on_c, 0, 74, 91
2, 22847, Note_on_c, 0, 74, 0
2, 22872, Note_on_c, 0, 74, 92
2, 22895, Note_on_c, 0, 74, 0
2, 22896, Note_on_c, 0, 78, 93
2, 22919, Note_on_c, 0, 78, 0
2, 22920, Note_on_c, 0, 74, 94
2, 22943, Note_on_c, 0, 74, 0
2, 22968, Note_on_c, 0, 62, 95
2, 22991, Note_on_c, 0, 62, 0
2, 22992, Note_on_c, 0, 66, 96
2, 23015, Note_on_c, 0, 66, 0
2, 23016, Note_on_c, 0, 62, 97
2, 23039, Note_on_c, 0, 62, 0
2, 23064, Note_on_c, 0, 62, 98
2, 23087, Note_on_c, 0, 62, 0
2, 23088, Note_on_c, 0, 64, 99
2, 23111, Note_on_c, 0, 64, 0
2, 23112, Note_on_c, 0, 62, 99
2, 23135, Note_on_c, 0, 62, 0
2, 23160, Note_on_c, 0, 61, 101
2, 23183, Note_on_c, 0, 61, 0
2, 23184, Note_on_c, 0, 64, 101
2, 23207, Note_on_c, 0, 64, 0
2, 23208, Note_on_c, 0, 61, 102
2, 23231, Note_on_c, 0, 61, 0
2, 23232, Note_on_c, 0, 62, 103
2, 23321, Note_on_c, 0, 62, 0
2, 23424, End_track
3, 0, Start_track
3, 0, Program_c, 0, 0
3, 0, Control_c, 0, 7, 127
3, 0, Control_c, 0, 10, 64
3, 23424, End_track
4, 0, Start_track
4, 0, Program_c, 1, 0
4, 0, Control_c, 1, 7, 127
4, 0, Control_c, 1, 10, 64
4, 0, Note_on_c, 1, 50, 84
4, 89, Note_on_c, 1, 50, 0
4, 96, Note_on_c, 1, 54, 89
4, 185, Note_on_c, 1, 54, 0
4, 192, Note_on_c, 1, 57, 95
4, 281, Note_on_c, 1, 57, 0
4, 288, Note_on_c, 1, 62, 100
4, 377, Note_on_c, 1, 62, 0
4, 576, Note_on_c, 1, 62, 75
4, 621, Note_on_c, 1, 62, 0
4, 624, Note_on_c, 1, 57, 75
4, 669, Note_on_c, 1, 57, 0
4, 672, Note_on_c, 1, 50, 75
4, 761, Note_on_c, 1, 50, 0
4, 768, Note_on_c, 1, 50, 84
4, 857, Note_on_c, 1, 50, 0
4, 864, Note_on_c, 1, 54, 89
4, 953, Note_on_c, 1, 54, 0
4, 960, Note_on_c, 1, 57, 95
4, 1049, Note_on_c, 1, 57, 0
4, 1056, Note_on_c, 1, 62, 100
4, 1145, Note_on_c, 1, 62, 0
4, 1152, Note_on_c, 1, 50, 75
4, 1197, Note_on_c, 1, 50, 0
4, 1200, Note_on_c, 1, 57, 75
4, 1245, Note_on_c, 1, 57, 0
4, 1248, Note_on_c, 1, 49, 75
4, 1293, Note_on_c, 1, 49, 0
4, 1296, Note_on_c, 1, 57, 75
4, 1341, Note_on_c, 1, 57, 0
4, 1344, Note_on_c, 1, 47, 75
4, 1389, Note_on_c, 1, 47, 0
4, 1392, Note_on_c, 1, 56, 75
4, 1437, Note_on_c, 1, 56, 0
4, 1440, Note_on_c, 1, 57, 75
4, 1485, Note_on_c, 1, 57, 0
4, 1488, Note_on_c, 1, 45, 75
4, 1533, Note_on_c, 1, 45, 0
4, 1536, Note_on_c, 1, 50, 75
4, 1581, Note_on_c, 1, 50, 0
4, 1584, Note_on_c, 1, 57, 75
4, 1629, Note_on_c, 1, 57, 0
4, 1632, Note_on_c, 1, 49, 75
4, 1677, Note_on_c, 1, 49, 0
4, 1680, Note_on_c, 1, 57, 75
4, 1725, Note_on_c, 1, 57, 0
4, 1728, Note_on_c, 1, 47, 75
4, 1773, Note_on_c, 1, 47, 0
4, 1776, Note_on_c, 1, 56, 75
4, 1821, Note_on_c, 1, 56, 0
4, 1824, Note_on_c, 1, 57, 75
4, 1869, Note_on_c, 1, 57, 0
4, 1872, Note_on_c, 1, 45, 75
4, 1917, Note_on_c, 1, 45, 0
4, 1920, Note_on_c, 1, 57, 67
4, 1920, Note_on_c, 1, 49, 67
4, 1967, Note_on_c, 1, 57, 0
4, 1967, Note_on_c, 1, 49, 0
4, 1968, Note_on_c, 1, 57, 67
4, 1968, Note_on_c, 1, 49, 67
4, 2015, Note_on_c, 1, 57, 0
4, 2015, Note_on_c, 1, 49, 0
4, 2016, Note_on_c, 1, 57, 67
4, 2016, Note_on_c, 1, 49, 67
4, 2063, Note_on_c, 1, 57, 0
4, 2063, Note_on_c, 1, 49, 0
4, 2064, Note_on_c, 1, 57, 67
4, 2064, Note_on_c, 1, 49, 67
4, 2111, Note_on_c, 1, 57, 0
4, 2111, Note_on_c, 1, 49, 0
4, 2112, Note_on_c, 1, 57, 67
4, 2112, Note_on_c, 1, 50, 67
4, 2159, Note_on_c, 1, 57, 0
4, 2159, Note_on_c, 1, 50, 0
4, 2160, Note_on_c, 1, 57, 67
4, 2160, Note_on_c, 1, 50, 67
4, 2207, Note_on_c, 1, 57, 0
4, 2207, Note_on_c, 1, 50, 0
4, 2208, Note_on_c, 1, 57, 67
4, 2208, Note_on_c, 1, 50, 67
4, 2255, Note_on_c, 1, 57, 0
4, 2255, Note_on_c, 1, 50, 0
4, 2256, Note_on_c, 1, 57, 67
4, 2256, Note_on_c, 1, 50, 67
4, 2303, Note_on_c, 1, 57, 0
4, 2303, Note_on_c, 1, 50, 0
4, 2304, Note_on_c, 1, 57, 67
4, 2304, Note_on_c, 1, 50, 67
4, 2351, Note_on_c, 1, 57, 0
4, 2351, Note_on_c, 1, 50, 0
4, 2352, Note_on_c, 1, 57, 67
4, 2352, Note_on_c, 1, 50, 67
4, 2399, Note_on_c, 1, 57, 0
4, 2399, Note_on_c, 1, 50, 0
4, 2400, Note_on_c, 1, 57, 67
4, 2400, Note_on_c, 1, 50, 67
4, 2447, Note_on_c, 1, 57, 0
4, 2447, Note_on_c, 1, 50, 0
4, 2448, Note_on_c, 1, 57, 67
4, 2448, Note_on_c, 1, 50, 67
4, 2495, Note_on_c, 1, 57, 0
4, 2495, Note_on_c, 1, 50, 0
4, 2496, Note_on_c, 1, 57, 67
4, 2496, Note_on_c, 1, 49, 67
4, 2543, Note_on_c, 1, 57, 0
4, 2543, Note_on_c, 1, 49, 0
4, 2544, Note_on_c, 1, 57, 67
4, 2544, Note_on_c, 1, 49, 67
4, 2591, Note_on_c, 1, 57, 0
4, 2591, Note_on_c, 1, 49, 0
4, 2592, Note_on_c, 1, 57, 67
4, 2592, Note_on_c, 1, 49, 67
4, 2639, Note_on_c, 1, 57, 0
4, 2639, Note_on_c, 1, 49, 0
4, 2640, Note_on_c, 1, 57, 67
4, 2640, Note_on_c, 1, 49, 67
4, 2687, Note_on_c, 1, 57, 0
4, 2687, Note_on_c, 1, 49, 0
4, 2688, Note_on_c, 1, 57, 67
4, 2688, Note_on_c, 1, 49, 67
4, 2735, Note_on_c, 1, 57, 0
4, 2735, Note_on_c, 1, 49, 0
4, 2736, Note_on_c, 1, 57, 67
4, 2736, Note_on_c, 1, 49, 67
4, 2783, Note_on_c, 1, 57, 0
4, 2783, Note_on_c, 1, 49, 0
4, 2784, Note_on_c, 1, 57, 67
4, 2784, Note_on_c, 1, 49, 67
4, 2831, Note_on_c, 1, 57, 0
4, 2831, Note_on_c, 1, 49, 0
4, 2832, Note_on_c, 1, 57, 67
4, 2832, Note_on_c, 1, 49, 67
4, 2879, Note_on_c, 1, 57, 0
4, 2879, Note_on_c, 1, 49, 0
4, 2880, Note_on_c, 1, 57, 67
4, 2880, Note_on_c, 1, 50, 67
4, 2927, Note_on_c, 1, 57, 0
4, 2927, Note_on_c, 1, 50, 0
4, 2928, Note_on_c, 1, 57, 67
4, 2928, Note_on_c, 1, 50, 67
4, 2975, Note_on_c, 1, 57, 0
4, 2975, Note_on_c, 1, 50, 0
4, 2976, Note_on_c, 1, 57, 67
4, 2976, Note_on_c, 1, 50, 67
4, 3023, Note_on_c, 1, 57, 0
4, 3023, Note_on_c, 1, 50, 0
4, 3024, Note_on_c, 1, 57, 67
4, 3024, Note_on_c, 1, 50, 67
4, 3071, Note_on_c, 1, 57, 0
4, 3071, Note_on_c, 1, 50, 0
4, 3072, Note_on_c, 1, 57, 67
4, 3072, Note_on_c, 1, 52, 67
4, 3119, Note_on_c, 1, 57, 0
4, 3119, Note_on_c, 1, 52, 0
4, 3120, Note_on_c, 1, 57, 67
4, 3120, Note_on_c, 1, 52, 67
4, 3167, Note_on_c, 1, 57, 0
4, 3167, Note_on_c, 1, 52, 0
4, 3168, Note_on_c, 1, 56, 67
4, 3168, Note_on_c, 1, 52, 67
4, 3215, Note_on_c, 1, 56, 0
4, 3215, Note_on_c, 1, 52, 0
4, 3216, Note_on_c, 1, 56, 67
4, 3216, Note_on_c, 1, 52, 67
4, 3263, Note_on_c, 1, 56, 0
4, 3263, Note_on_c, 1, 52, 0
4, 3264, Note_on_c, 1, 57, 67
4, 3264, Note_on_c, 1, 45, 67
4, 3353, Note_on_c, 1, 57, 0
4, 3353, Note_on_c, 1, 45, 0
4, 3360, Note_on_c, 1, 61, 67
4, 3405, Note_on_c, 1, 61, 0
4, 3456, Note_on_c, 1, 62, 77
4, 3501, Note_on_c, 1, 62, 0
4, 3552, Note_on_c, 1, 64, 81
4, 3597, Note_on_c, 1, 64, 0
4, 3648, Note_on_c, 1, 66, 85
4, 3693, Note_on_c, 1, 66, 0
4, 3744, Note_on_c, 1, 49, 89
4, 3744, Note_on_c, 1, 37, 89
4, 3789, Note_on_c, 1, 49, 0
4, 3789, Note_on_c, 1, 37, 0
4, 3840, Note_on_c, 1, 50, 93
4, 3840, Note_on_c, 1, 38, 93
4, 3885, Note_on_c, 1, 50, 0
4, 3885, Note_on_c, 1, 38, 0
4, 3936, Note_on_c, 1, 52, 97
4, 3936, Note_on_c, 1, 40, 97
4, 3981, Note_on_c, 1, 52, 0
4, 3981, Note_on_c, 1, 40, 0
4, 4032, Note_on_c, 1, 45, 101
4, 4032, Note_on_c, 1, 33, 101
4, 4121, Note_on_c, 1, 45, 0
4, 4121, Note_on_c, 1, 33, 0
4, 4224, Note_on_c, 1, 50, 84
4, 4313, Note_on_c, 1, 50, 0
4, 4320, Note_on_c, 1, 54, 89
4, 4409, Note_on_c, 1, 54, 0
4, 4416, Note_on_c, 1, 57, 95
4, 4505, Note_on_c, 1, 57, 0
4, 4512, Note_on_c, 1, 62, 100
4, 4601, Note_on_c, 1, 62, 0
4, 4800, Note_on_c, 1, 62, 75
4, 4845, Note_on_c, 1, 62, 0
4, 4848, Note_on_c, 1, 57, 75
4, 4893, Note_on_c, 1, 57, 0
4, 4896, Note_on_c, 1, 50, 75
4, 4985, Note_on_c, 1, 50, 0
4, 4992, Note_on_c, 1, 50, 84
4, 5081, Note_on_c, 1, 50, 0
4, 5088, Note_on_c, 1, 54, 89
4, 5177, Note_on_c, 1, 54, 0
4, 5184, Note_on_c, 1, 57, 95
4, 5273, Note_on_c, 1, 57, 0
4, 5280, Note_on_c, 1, 62, 100
4, 5369, Note_on_c, 1, 62, 0
4, 5376, Note_on_c, 1, 50, 75
4, 5421, Note_on_c, 1, 50, 0
4, 5424, Note_on_c, 1, 57, 75
4, 5469, Note_on_c, 1, 57, 0
4, 5472, Note_on_c, 1, 49, 75
4, 5517, Note_on_c, 1, 49, 0
4, 5520, Note_on_c, 1, 57, 75
4, 5565, Note_on_c, 1, 57, 0
4, 5568, Note_on_c, 1, 47, 75
4, 5613, Note_on_c, 1, 47, 0
4, 5616, Note_on_c, 1, 56, 75
4, 5661, Note_on_c, 1, 56, 0
4, 5664, Note_on_c, 1, 57, 75
4, 5709, Note_on_c, 1, 57, 0
4, 5712, Note_on_c, 1, 45, 75
4, 5757, Note_on_c, 1, 45, 0
4, 5760, Note_on_c, 1, 50, 75
4, 5805, Note_on_c, 1, 50, 0
4, 5808, Note_on_c, 1, 57, 75
4, 5853, Note_on_c, 1, 57, 0
4, 5856, Note_on_c, 1, 49, 75
4, 5901, Note_on_c, 1, 49, 0
4, 5904, Note_on_c, 1, 57, 75
4, 5949, Note_on_c, 1, 57, 0
4, 5952, Note_on_c, 1, 47, 75
4, 5997, Note_on_c, 1, 47, 0
4, 6000, Note_on_c, 1, 56, 75
4, 6045, Note_on_c, 1, 56, 0
4, 6048, Note_on_c, 1, 57, 75
4, 6093, Note_on_c, 1, 57, 0
4, 6096, Note_on_c, 1, 45, 75
4, 6141, Note_on_c, 1, 45, 0
4, 6144, Note_on_c, 1, 57, 67
4, 6144, Note_on_c, 1, 49, 67
4, 6191, Note_on_c, 1, 57, 0
4, 6191, Note_on_c, 1, 49, 0
4, 6192, Note_on_c, 1, 57, 67
4, 6192, Note_on_c, 1, 49, 67
4, 6239, Note_on_c, 1, 57, 0
4, 6239, Note_on_c, 1, 49, 0
4, 6240, Note_on_c, 1, 57, 67
4, 6240, Note_on_c, 1, 49, 67
4, 6287, Note_on_c, 1, 57, 0
4, 6287, Note_on_c, 1, 49, 0
4, 6288, Note_on_c, 1, 57, 67
4, 6288, Note_on_c, 1, 49, 67
4, 6335, Note_on_c, 1, 57, 0
4, 6335, Note_on_c, 1, 49, 0
4, 6336, Note_on_c, 1, 57, 67
4, 6336, Note_on_c, 1, 50, 67
4, 6383, Note_on_c, 1, 57, 0
4, 6383, Note_on_c, 1, 50, 0
4, 6384, Note_on_c, 1, 57, 67
4, 6384, Note_on_c, 1, 50, 67
4, 6431, Note_on_c, 1, 57, 0
4, 6431, Note_on_c, 1, 50, 0
4, 6432, Note_on_c, 1, 57, 67
4, 6432, Note_on_c, 1, 50, 67
4, 6479, Note_on_c, 1, 57, 0
4, 6479, Note_on_c, 1, 50, 0
4, 6480, Note_on_c, 1, 57, 67
4, 6480, Note_on_c, 1, 50, 67
4, 6527, Note_on_c, 1, 57, 0
4, 6527, Note_on_c, 1, 50, 0
4, 6528, Note_on_c, 1, 57, 67
4, 6528, Note_on_c, 1, 50, 67
4, 6575, Note_on_c, 1, 57, 0
4, 6575, Note_on_c, 1, 50, 0
4, 6576, Note_on_c, 1, 57, 67
4, 6576, Note_on_c, 1, 50, 67
4, 6623, Note_on_c, 1, 57, 0
4, 6623, Note_on_c, 1, 50, 0
4, 6624, Note_on_c, 1, 57, 67
4, 6624, Note_on_c, 1, 50, 67
4, 6671, Note_on_c, 1, 57, 0
4, 6671, Note_on_c, 1, 50, 0
4, 6672, Note_on_c, 1, 57, 67
4, 6672, Note_on_c, 1, 50, 67
4, 6719, Note_on_c, 1, 57, 0
4, 6719, Note_on_c, 1, 50, 0
4, 6720, Note_on_c, 1, 57, 67
4, 6720, Note_on_c, 1, 49, 67
4, 6767, Note_on_c, 1, 57, 0
4, 6767, Note_on_c, 1, 49, 0
4, 6768, Note_on_c, 1, 57, 67
4, 6768, Note_on_c, 1, 49, 67
4, 6815, Note_on_c, 1, 57, 0
4, 6815, Note_on_c, 1, 49, 0
4, 6816, Note_on_c, 1, 57, 67
4, 6816, Note_on_c, 1, 49, 67
4, 6863, Note_on_c, 1, 57, 0
4, 6863, Note_on_c, 1, 49, 0
4, 6864, Note_on_c, 1, 57, 67
4, 6864, Note_on_c, 1, 49, 67
4, 6911, Note_on_c, 1, 57, 0
4, 6911, Note_on_c, 1, 49, 0
4, 6912, Note_on_c, 1, 57, 67
4, 6912, Note_on_c, 1, 49, 67
4, 6959, Note_on_c, 1, 57, 0
4, 6959, Note_on_c, 1, 49, 0
4, 6960, Note_on_c, 1, 57, 67
4, 6960, Note_on_c, 1, 49, 67
4, 7007, Note_on_c, 1, 57, 0
4, 7007, Note_on_c, 1, 49, 0
4, 7008, Note_on_c, 1, 57, 67
4, 7008, Note_on_c, 1, 49, 67
4, 7055, Note_on_c, 1, 57, 0
4, 7055, Note_on_c, 1, 49, 0
4, 7056, Note_on_c, 1, 57, 67
4, 7056, Note_on_c, 1, 49, 67
4, 7103, Note_on_c, 1, 57, 0
4, 7103, Note_on_c, 1, 49, 0
4, 7104, Note_on_c, 1, 57, 67
4, 7104, Note_on_c, 1, 50, 67
4, 7151, Note_on_c, 1, 57, 0
4, 7151, Note_on_c, 1, 50, 0
4, 7152, Note_on_c, 1, 57, 67
4, 7152, Note_on_c, 1, 50, 67
4, 7199, Note_on_c, 1, 57, 0
4, 7199, Note_on_c, 1, 50, 0
4, 7200, Note_on_c, 1, 57, 67
4, 7200, Note_on_c, 1, 50, 67
4, 7247, Note_on_c, 1, 57, 0
4, 7247, Note_on_c, 1, 50, 0
4, 7248, Note_on_c, 1, 57, 67
4, 7248, Note_on_c, 1, 50, 67
4, 7295, Note_on_c, 1, 57, 0
4, 7295, Note_on_c, 1, 50, 0
4, 7296, Note_on_c, 1, 57, 67
4, 7296, Note_on_c, 1, 52, 67
4, 7343, Note_on_c, 1, 57, 0
4, 7343, Note_on_c, 1, 52, 0
4, 7344, Note_on_c, 1, 57, 67
4, 7344, Note_on_c, 1, 52, 67
4, 7391, Note_on_c, 1, 57, 0
4, 7391, Note_on_c, 1, 52, 0
4, 7392, Note_on_c, 1, 56, 67
4, 7392, Note_on_c, 1, 52, 67
4, 7439, Note_on_c, 1, 56, 0
4, 7439, Note_on_c, 1, 52, 0
4, 7440, Note_on_c, 1, 56, 67
4, 7440, Note_on_c, 1, 52, 67
4, 7487, Note_on_c, 1, 56, 0
4, 7487, Note_on_c, 1, 52, 0
4, 7488, Note_on_c, 1, 57, 67
4, 7488, Note_on_c, 1, 45, 67
4, 7577, Note_on_c, 1, 57, 0
4, 7577, Note_on_c, 1, 45, 0
4, 7584, Note_on_c, 1, 61, 67
4, 7629, Note_on_c, 1, 61, 0
4, 7680, Note_on_c, 1, 62, 77
4, 7725, Note_on_c, 1, 62, 0
4, 7776, Note_on_c, 1, 64, 81
4, 7821, Note_on_c, 1, 64, 0
4, 7872, Note_on_c, 1, 66, 85
4, 7917, Note_on_c, 1, 66, 0
4, 7968, Note_on_c, 1, 49, 89
4, 7968, Note_on_c, 1, 37, 89
4, 8013, Note_on_c, 1, 49, 0
4, 8013, Note_on_c, 1, 37, 0
4, 8064, Note_on_c, 1, 50, 93
4, 8064, Note_on_c, 1, 38, 93
4, 8109, Note_on_c, 1, 50, 0
4, 8109, Note_on_c, 1, 38, 0
4, 8160, Note_on_c, 1, 52, 97
4, 8160, Note_on_c, 1, 40, 97
4, 8205, Note_on_c, 1, 52, 0
4, 8205, Note_on_c, 1, 40, 0
4, 8256, Note_on_c, 1, 45, 101
4, 8256, Note_on_c, 1, 33, 101
4, 8345, Note_on_c, 1, 45, 0
4, 8345, Note_on_c, 1, 33, 0
4, 8448, Note_on_c, 1, 57, 100
4, 8448, Note_on_c, 1, 45, 100
4, 8544, Note_on_c, 1, 57, 0
4, 8544, Note_on_c, 1, 45, 0
4, 8544, Note_on_c, 1, 81, 84
4, 8589, Note_on_c, 1, 81, 0
4, 8640, Note_on_c, 1, 79, 84
4, 8685, Note_on_c, 1, 79, 0
4, 8736, Note_on_c, 1, 78, 84
4, 8781, Note_on_c, 1, 78, 0
4, 8832, Note_on_c, 1, 76, 84
4, 8877, Note_on_c, 1, 76, 0
4, 8928, Note_on_c, 1, 54, 84
4, 8928, Note_on_c, 1, 42, 84
4, 9017, Note_on_c, 1, 54, 0
4, 9017, Note_on_c, 1, 42, 0
4, 9024, Note_on_c, 1, 52, 84
4, 9024, Note_on_c, 1, 40, 84
4, 9113, Note_on_c, 1, 52, 0
4, 9113, Note_on_c, 1, 40, 0
4, 9120, Note_on_c, 1, 50, 84
4, 9120, Note_on_c, 1, 38, 84
4, 9209, Note_on_c, 1, 50, 0
4, 9209, Note_on_c, 1, 38, 0
4, 9216, Note_on_c, 1, 45, 100
4, 9216, Note_on_c, 1, 33, 100
4, 9312, Note_on_c, 1, 45, 0
4, 9312, Note_on_c, 1, 33, 0
4, 9312, Note_on_c, 1, 81, 84
4, 9357, Note_on_c, 1, 81, 0
4, 9408, Note_on_c, 1, 79, 84
4, 9453, Note_on_c, 1, 79, 0
4, 9504, Note_on_c, 1, 78, 84
4, 9549, Note_on_c, 1, 78, 0
4, 9600, Note_on_c, 1, 76, 84
4, 9645, Note_on_c, 1, 76, 0
4, 9696, Note_on_c, 1, 54, 84
4, 9696, Note_on_c, 1, 42, 84
4, 9785, Note_on_c, 1, 54, 0
4, 9785, Note_on_c, 1, 42, 0
4, 9792, Note_on_c, 1, 52, 84
4, 9792, Note_on_c, 1, 40, 84
4, 9881, Note_on_c, 1, 52, 0
4, 9881, Note_on_c, 1, 40, 0
4, 9888, Note_on_c, 1, 50, 84
4, 9888, Note_on_c, 1, 38, 84
4, 9977, Note_on_c, 1, 50, 0
4, 9977, Note_on_c, 1, 38, 0
4, 9984, Note_on_c, 1, 45, 100
4, 9984, Note_on_c, 1, 33, 100
4, 10080, Note_on_c, 1, 45, 0
4, 10080, Note_on_c, 1, 33, 0
4, 10080, Note_on_c, 1, 48, 100
4, 10080, Note_on_c, 1, 36, 100
4, 10176, Note_on_c, 1, 48, 0
4, 10176, Note_on_c, 1, 36, 0
4, 10176, Note_on_c, 1, 47, 100
4, 10176, Note_on_c, 1, 35, 100
4, 10272, Note_on_c, 1, 47, 0
4, 10272, Note_on_c, 1, 35, 0
4, 10272, Note_on_c, 1, 51, 100
4, 10368, Note_on_c, 1, 51, 0
4, 10368, Note_on_c, 1, 52, 100
4, 10464, Note_on_c, 1, 52, 0
4, 10464, Note_on_c, 1, 46, 100
4, 10464, Note_on_c, 1, 34, 100
4, 10560, Note_on_c, 1, 46, 0
4, 10560, Note_on_c, 1, 34, 0
4, 10560, Note_on_c, 1, 45, 100
4, 10560, Note_on_c, 1, 33, 100
4, 10656, Note_on_c, 1, 45, 0
4, 10656, Note_on_c, 1, 33, 0
4, 10656, Note_on_c, 1, 49, 100
4, 10752, Note_on_c, 1, 49, 0
4, 10752, Note_on_c, 1, 50, 100
4, 10848, Note_on_c, 1, 50, 0
4, 10848, Note_on_c, 1, 54, 89
4, 10848, Note_on_c, 1, 42, 89
4, 10937, Note_on_c, 1, 54, 0
4, 10937, Note_on_c, 1, 42, 0
4, 10944, Note_on_c, 1, 55, 95
4, 10944, Note_on_c, 1, 43, 95
4, 11033, Note_on_c, 1, 55, 0
4, 11033, Note_on_c, 1, 43, 0
4, 11040, Note_on_c, 1, 57, 100
4, 11040, Note_on_c, 1, 45, 100
4, 11129, Note_on_c, 1, 57, 0
4, 11129, Note_on_c, 1, 45, 0
4, 11136, Note_on_c, 1, 59, 106
4, 11136, Note_on_c, 1, 47, 106
4, 11225, Note_on_c, 1, 59, 0
4, 11225, Note_on_c, 1, 47, 0
4, 11232, Note_on_c, 1, 54, 106
4, 11232, Note_on_c, 1, 42, 106
4, 11321, Note_on_c, 1, 54, 0
4, 11321, Note_on_c, 1, 42, 0
4, 11328, Note_on_c, 1, 55, 106
4, 11328, Note_on_c, 1, 43, 106
4, 11417, Note_on_c, 1, 55, 0
4, 11417, Note_on_c, 1, 43, 0
4, 11520, Note_on_c, 1, 45, 106
4, 11520, Note_on_c, 1, 33, 106
4, 11609, Note_on_c, 1, 45, 0
4, 11609, Note_on_c, 1, 33, 0
4, 11712, Note_on_c, 1, 50, 84
4, 11801, Note_on_c, 1, 50, 0
4, 11808, Note_on_c, 1, 54, 89
4, 11897, Note_on_c, 1, 54, 0
4, 11904, Note_on_c, 1, 57, 95
4, 11993, Note_on_c, 1, 57, 0
4, 12000, Note_on_c, 1, 62, 100
4, 12089, Note_on_c, 1, 62, 0
4, 12288, Note_on_c, 1, 62, 75
4, 12333, Note_on_c, 1, 62, 0
4, 12336, Note_on_c, 1, 57, 75
4, 12381, Note_on_c, 1, 57, 0
4, 12384, Note_on_c, 1, 50, 75
4, 12473, Note_on_c, 1, 50, 0
4, 12480, Note_on_c, 1, 50, 84
4, 12569, Note_on_c, 1, 50, 0
4, 12576, Note_on_c, 1, 54, 89
4, 12665, Note_on_c, 1, 54, 0
4, 12672, Note_on_c, 1, 57, 95
4, 12761, Note_on_c, 1, 57, 0
4, 12768, Note_on_c, 1, 62, 100
4, 12857, Note_on_c, 1, 62, 0
4, 12864, Note_on_c, 1, 55, 75
4, 12909, Note_on_c, 1, 55, 0
4, 12912, Note_on_c, 1, 62, 75
4, 12957, Note_on_c, 1, 62, 0
4, 12960, Note_on_c, 1, 54, 75
4, 13005, Note_on_c, 1, 54, 0
4, 13008, Note_on_c, 1, 62, 75
4, 13053, Note_on_c, 1, 62, 0
4, 13056, Note_on_c, 1, 52, 75
4, 13101, Note_on_c, 1, 52, 0
4, 13104, Note_on_c, 1, 61, 75
4, 13149, Note_on_c, 1, 61, 0
4, 13152, Note_on_c, 1, 62, 75
4, 13197, Note_on_c, 1, 62, 0
4, 13200, Note_on_c, 1, 50, 75
4, 13245, Note_on_c, 1, 50, 0
4, 13248, Note_on_c, 1, 55, 75
4, 13293, Note_on_c, 1, 55, 0
4, 13296, Note_on_c, 1, 62, 75
4, 13341, Note_on_c, 1, 62, 0
4, 13344, Note_on_c, 1, 54, 75
4, 13389, Note_on_c, 1, 54, 0
4, 13392, Note_on_c, 1, 62, 75
4, 13437, Note_on_c, 1, 62, 0
4, 13440, Note_on_c, 1, 52, 75
4, 13485, Note_on_c, 1, 52, 0
4, 13488, Note_on_c, 1, 61, 75
4, 13533, Note_on_c, 1, 61, 0
4, 13536, Note_on_c, 1, 62, 75
4, 13581, Note_on_c, 1, 62, 0
4, 13584, Note_on_c, 1, 50, 75
4, 13629, Note_on_c, 1, 50, 0
4, 13632, Note_on_c, 1, 62, 67
4, 13632, Note_on_c, 1, 54, 67
4, 13679, Note_on_c, 1, 62, 0
4, 13679, Note_on_c, 1, 54, 0
4, 13680, Note_on_c, 1, 62, 67
4, 13680, Note_on_c, 1, 54, 67
4, 13727, Note_on_c, 1, 62, 0
4, 13727, Note_on_c, 1, 54, 0
4, 13728, Note_on_c, 1, 62, 67
4, 13728, Note_on_c, 1, 54, 67
4, 13775, Note_on_c, 1, 62, 0
4, 13775, Note_on_c, 1, 54, 0
4, 13776, Note_on_c, 1, 62, 67
4, 13776, Note_on_c, 1, 54, 67
4, 13823, Note_on_c, 1, 62, 0
4, 13823, Note_on_c, 1, 54, 0
4, 13824, Note_on_c, 1, 62, 67
4, 13824, Note_on_c, 1, 55, 67
4, 13871, Note_on_c, 1, 62, 0
4, 13871, Note_on_c, 1, 55, 0
4, 13872, Note_on_c, 1, 62, 67
4, 13872, Note_on_c, 1, 55, 67
4, 13919, Note_on_c, 1, 62, 0
4, 13919, Note_on_c, 1, 55, 0
4, 13920, Note_on_c, 1, 62, 67
4, 13920, Note_on_c, 1, 55, 67
4, 13967, Note_on_c, 1, 62, 0
4, 13967, Note_on_c, 1, 55, 0
4, 13968, Note_on_c, 1, 62, 67
4, 13968, Note_on_c, 1, 55, 67
4, 14015, Note_on_c, 1, 62, 0
4, 14015, Note_on_c, 1, 55, 0
4, 14016, Note_on_c, 1, 62, 67
4, 14016, Note_on_c, 1, 55, 67
4, 14063, Note_on_c, 1, 62, 0
4, 14063, Note_on_c, 1, 55, 0
4, 14064, Note_on_c, 1, 62, 67
4, 14064, Note_on_c, 1, 55, 67
4, 14111, Note_on_c, 1, 62, 0
4, 14111, Note_on_c, 1, 55, 0
4, 14112, Note_on_c, 1, 62, 67
4, 14112, Note_on_c, 1, 55, 67
4, 14159, Note_on_c, 1, 62, 0
4, 14159, Note_on_c, 1, 55, 0
4, 14160, Note_on_c, 1, 62, 67
4, 14160, Note_on_c, 1, 55, 67
4, 14207, Note_on_c, 1, 62, 0
4, 14207, Note_on_c, 1, 55, 0
4, 14208, Note_on_c, 1, 62, 67
4, 14208, Note_on_c, 1, 54, 67
4, 14255, Note_on_c, 1, 62, 0
4, 14255, Note_on_c, 1, 54, 0
4, 14256, Note_on_c, 1, 62, 67
4, 14256, Note_on_c, 1, 54, 67
4, 14303, Note_on_c, 1, 62, 0
4, 14303, Note_on_c, 1, 54, 0
4, 14304, Note_on_c, 1, 62, 67
4, 14304, Note_on_c, 1, 54, 67
4, 14351, Note_on_c, 1, 62, 0
4, 14351, Note_on_c, 1, 54, 0
4, 14352, Note_on_c, 1, 62, 67
4, 14352, Note_on_c, 1, 54, 67
4, 14399, Note_on_c, 1, 62, 0
4, 14399, Note_on_c, 1, 54, 0
4, 14400, Note_on_c, 1, 62, 67
4, 14400, Note_on_c, 1, 54, 67
4, 14447, Note_on_c, 1, 62, 0
4, 14447, Note_on_c, 1, 54, 0
4, 14448, Note_on_c, 1, 62, 67
4, 14448, Note_on_c, 1, 54, 67
4, 14495, Note_on_c, 1, 62, 0
4, 14495, Note_on_c, 1, 54, 0
4, 14496, Note_on_c, 1, 62, 67
4, 14496, Note_on_c, 1, 54, 67
4, 14543, Note_on_c, 1, 62, 0
4, 14543, Note_on_c, 1, 54, 0
4, 14544, Note_on_c, 1, 62, 67
4, 14544, Note_on_c, 1, 54, 67
4, 14591, Note_on_c, 1, 62, 0
4, 14591, Note_on_c, 1, 54, 0
4, 14592, Note_on_c, 1, 62, 67
4, 14592, Note_on_c, 1, 55, 67
4, 14639, Note_on_c, 1, 62, 0
4, 14639, Note_on_c, 1, 55, 0
4, 14640, Note_on_c, 1, 62, 67
4, 14640, Note_on_c, 1, 55, 67
4, 14687, Note_on_c, 1, 62, 0
4, 14687, Note_on_c, 1, 55, 0
4, 14688, Note_on_c, 1, 62, 67
4, 14688, Note_on_c, 1, 55, 67
4, 14735, Note_on_c, 1, 62, 0
4, 14735, Note_on_c, 1, 55, 0
4, 14736, Note_on_c, 1, 62, 67
4, 14736, Note_on_c, 1, 55, 67
4, 14783, Note_on_c, 1, 62, 0
4, 14783, Note_on_c, 1, 55, 0
4, 14784, Note_on_c, 1, 62, 67
4, 14784, Note_on_c, 1, 57, 67
4, 14831, Note_on_c, 1, 62, 0
4, 14831, Note_on_c, 1, 57, 0
4, 14832, Note_on_c, 1, 62, 67
4, 14832, Note_on_c, 1, 57, 67
4, 14879, Note_on_c, 1, 62, 0
4, 14879, Note_on_c, 1, 57, 0
4, 14880, Note_on_c, 1, 61, 67
4, 14880, Note_on_c, 1, 57, 67
4, 14927, Note_on_c, 1, 61, 0
4, 14927, Note_on_c, 1, 57, 0
4, 14928, Note_on_c, 1, 61, 67
4, 14928, Note_on_c, 1, 57, 67
4, 14975, Note_on_c, 1, 61, 0
4, 14975, Note_on_c, 1, 57, 0
4, 14976, Note_on_c, 1, 62, 67
4, 14976, Note_on_c, 1, 50, 67
4, 15065, Note_on_c, 1, 62, 0
4, 15065, Note_on_c, 1, 50, 0
4, 15072, Note_on_c, 1, 66, 84
4, 15117, Note_on_c, 1, 66, 0
4, 15168, Note_on_c, 1, 67, 86
4, 15213, Note_on_c, 1, 67, 0
4, 15264, Note_on_c, 1, 69, 89
4, 15309, Note_on_c, 1, 69, 0
4, 15360, Note_on_c, 1, 71, 92
4, 15405, Note_on_c, 1, 71, 0
4, 15456, Note_on_c, 1, 54, 95
4, 15456, Note_on_c, 1, 42, 95
4, 15545, Note_on_c, 1, 54, 0
4, 15545, Note_on_c, 1, 42, 0
4, 15552, Note_on_c, 1, 55, 97
4, 15552, Note_on_c, 1, 43, 97
4, 15641, Note_on_c, 1, 55, 0
4, 15641, Note_on_c, 1, 43, 0
4, 15648, Note_on_c, 1, 57, 100
4, 15648, Note_on_c, 1, 45, 100
4, 15737, Note_on_c, 1, 57, 0
4, 15737, Note_on_c, 1, 45, 0
4, 15744, Note_on_c, 1, 50, 103
4, 15744, Note_on_c, 1, 38, 103
4, 15833, Note_on_c, 1, 50, 0
4, 15833, Note_on_c, 1, 38, 0
4, 15936, Note_on_c, 1, 57, 100
4, 15936, Note_on_c, 1, 45, 100
4, 16032, Note_on_c, 1, 57, 0
4, 16032, Note_on_c, 1, 45, 0
4, 16032, Note_on_c, 1, 81, 84
4, 16077, Note_on_c, 1, 81, 0
4, 16128, Note_on_c, 1, 79, 84
4, 16173, Note_on_c, 1, 79, 0
4, 16224, Note_on_c, 1, 78, 84
4, 16269, Note_on_c, 1, 78, 0
4, 16320, Note_on_c, 1, 76, 84
4, 16365, Note_on_c, 1, 76, 0
4, 16416, Note_on_c, 1, 54, 84
4, 16416, Note_on_c, 1, 42, 84
4, 16505, Note_on_c, 1, 54, 0
4, 16505, Note_on_c, 1, 42, 0
4, 16512, Note_on_c, 1, 52, 84
4, 16512, Note_on_c, 1, 40, 84
4, 16601, Note_on_c, 1, 52, 0
4, 16601, Note_on_c, 1, 40, 0
4, 16608, Note_on_c, 1, 50, 84
4, 16608, Note_on_c, 1, 38, 84
4, 16697, Note_on_c, 1, 50, 0
4, 16697, Note_on_c, 1, 38, 0
4, 16704, Note_on_c, 1, 45, 100
4, 16704, Note_on_c, 1, 33, 100
4, 16800, Note_on_c, 1, 45, 0
4, 16800, Note_on_c, 1, 33, 0
4, 16800, Note_on_c, 1, 81, 84
4, 16845, Note_on_c, 1, 81, 0
4, 16896, Note_on_c, 1, 79, 84
4, 16941, Note_on_c, 1, 79, 0
4, 16992, Note_on_c, 1, 78, 84
4, 17037, Note_on_c, 1, 78, 0
4, 17088, Note_on_c, 1, 76, 84
4, 17133, Note_on_c, 1, 76, 0
4, 17184, Note_on_c, 1, 54, 84
4, 17184, Note_on_c, 1, 42, 84
4, 17273, Note_on_c, 1, 54, 0
4, 17273, Note_on_c, 1, 42, 0
4, 17280, Note_on_c, 1, 52, 84
4, 17280, Note_on_c, 1, 40, 84
4, 17369, Note_on_c, 1, 52, 0
4, 17369, Note_on_c, 1, 40, 0
4, 17376, Note_on_c, 1, 50, 84
4, 17376, Note_on_c, 1, 38, 84
4, 17465, Note_on_c, 1, 50, 0
4, 17465, Note_on_c, 1, 38, 0
4, 17472, Note_on_c, 1, 45, 100
4, 17472, Note_on_c, 1, 33, 100
4, 17568, Note_on_c, 1, 45, 0
4, 17568, Note_on_c, 1, 33, 0
4, 17568, Note_on_c, 1, 48, 100
4, 17568, Note_on_c, 1, 36, 100
4, 17664, Note_on_c, 1, 48, 0
4, 17664, Note_on_c, 1, 36, 0
4, 17664, Note_on_c, 1, 47, 100
4, 17664, Note_on_c, 1, 35, 100
4, 17760, Note_on_c, 1, 47, 0
4, 17760, Note_on_c, 1, 35, 0
4, 17760, Note_on_c, 1, 51, 100
4, 17856, Note_on_c, 1, 51, 0
4, 17856, Note_on_c, 1, 52, 100
4, 17952, Note_on_c, 1, 52, 0
4, 17952, Note_on_c, 1, 46, 100
4, 17952, Note_on_c, 1, 34, 100
4, 18048, Note_on_c, 1, 46, 0
4, 18048, Note_on_c, 1, 34, 0
4, 18048, Note_on_c, 1, 45, 100
4, 18048, Note_on_c, 1, 33, 100
4, 18144, Note_on_c, 1, 45, 0
4, 18144, Note_on_c, 1, 33, 0
4, 18144, Note_on_c, 1, 49, 100
4, 18240, Note_on_c, 1, 49, 0
4, 18240, Note_on_c, 1, 50, 100
4, 18336, Note_on_c, 1, 50, 0
4, 18336, Note_on_c, 1, 54, 89
4, 18336, Note_on_c, 1, 42, 89
4, 18425, Note_on_c, 1, 54, 0
4, 18425, Note_on_c, 1, 42, 0
4, 18432, Note_on_c, 1, 55, 95
4, 18432, Note_on_c, 1, 43, 95
4, 18521, Note_on_c, 1, 55, 0
4, 18521, Note_on_c, 1, 43, 0
4, 18528, Note_on_c, 1, 57, 100
4, 18528, Note_on_c, 1, 45, 100
4, 18617, Note_on_c, 1, 57, 0
4, 18617, Note_on_c, 1, 45, 0
4, 18624, Note_on_c, 1, 59, 106
4, 18624, Note_on_c, 1, 47, 106
4, 18713, Note_on_c, 1, 59, 0
4, 18713, Note_on_c, 1, 47, 0
4, 18720, Note_on_c, 1, 54, 106
4, 18720, Note_on_c, 1, 42, 106
4, 18809, Note_on_c, 1, 54, 0
4, 18809, Note_on_c, 1, 42, 0
4, 18816, Note_on_c, 1, 55, 106
4, 18816, Note_on_c, 1, 43, 106
4, 18905, Note_on_c, 1, 55, 0
4, 18905, Note_on_c, 1, 43, 0
4, 19008, Note_on_c, 1, 45, 106
4, 19008, Note_on_c, 1, 33, 106
4, 19097, Note_on_c, 1, 45, 0
4, 19097, Note_on_c, 1, 33, 0
4, 19200, Note_on_c, 1, 50, 84
4, 19289, Note_on_c, 1, 50, 0
4, 19296, Note_on_c, 1, 54, 89
4, 19385, Note_on_c, 1, 54, 0
4, 19392, Note_on_c, 1, 57, 95
4, 19481, Note_on_c, 1, 57, 0
4, 19488, Note_on_c, 1, 62, 100
4, 19577, Note_on_c, 1, 62, 0
4, 19776, Note_on_c, 1, 62, 75
4, 19821, Note_on_c, 1, 62, 0
4, 19824, Note_on_c, 1, 57, 75
4, 19869, Note_on_c, 1, 57, 0
4, 19872, Note_on_c, 1, 50, 75
4, 19961, Note_on_c, 1, 50, 0
4, 19968, Note_on_c, 1, 50, 84
4, 20057, Note_on_c, 1, 50, 0
4, 20064, Note_on_c, 1, 54, 89
4, 20153, Note_on_c, 1, 54, 0
4, 20160, Note_on_c, 1, 57, 95
4, 20249, Note_on_c, 1, 57, 0
4, 20256, Note_on_c, 1, 62, 100
4, 20345, Note_on_c, 1, 62, 0
4, 20352, Note_on_c, 1, 55, 75
4, 20397, Note_on_c, 1, 55, 0
4, 20400, Note_on_c, 1, 62, 75
4, 20445, Note_on_c, 1, 62, 0
4, 20448, Note_on_c, 1, 54, 75
4, 20493, Note_on_c, 1, 54, 0
4, 20496, Note_on_c, 1, 62, 75
4, 20541, Note_on_c, 1, 62, 0
4, 20544, Note_on_c, 1, 52, 75
4, 20589, Note_on_c, 1, 52, 0
4, 20592, Note_on_c, 1, 61, 75
4, 20637, Note_on_c, 1, 61, 0
4, 20640, Note_on_c, 1, 62, 75
4, 20685, Note_on_c, 1, 62, 0
4, 20688, Note_on_c, 1, 50, 75
4, 20733, Note_on_c, 1, 50, 0
4, 20736, Note_on_c, 1, 55, 75
4, 20781, Note_on_c, 1, 55, 0
4, 20784, Note_on_c, 1, 62, 75
4, 20829, Note_on_c, 1, 62, 0
4, 20832, Note_on_c, 1, 54, 75
4, 20877, Note_on_c, 1, 54, 0
4, 20880, Note_on_c, 1, 62, 75
4, 20925, Note_on_c, 1, 62, 0
4, 20928, Note_on_c, 1, 52, 75
4, 20973, Note_on_c, 1, 52, 0
4, 20976, Note_on_c, 1, 61, 75
4, 21021, Note_on_c, 1, 61, 0
4, 21024, Note_on_c, 1, 62, 75
4, 21069, Note_on_c, 1, 62, 0
4, 21072, Note_on_c, 1, 50, 75
4, 21117, Note_on_c, 1, 50, 0
4, 21120, Note_on_c, 1, 62, 67
4, 21120, Note_on_c, 1, 54, 67
4, 21167, Note_on_c, 1, 62, 0
4, 21167, Note_on_c, 1, 54, 0
4, 21168, Note_on_c, 1, 62, 67
4, 21168, Note_on_c, 1, 54, 67
4, 21215, Note_on_c, 1, 62, 0
4, 21215, Note_on_c, 1, 54, 0
4, 21216, Note_on_c, 1, 62, 67
4, 21216, Note_on_c, 1, 54, 67
4, 21263, Note_on_c, 1, 62, 0
4, 21263, Note_on_c, 1, 54, 0
4, 21264, Note_on_c, 1, 62, 67
4, 21264, Note_on_c, 1, 54, 67
4, 21311, Note_on_c, 1, 62, 0
4, 21311, Note_on_c, 1, 54, 0
4, 21312, Note_on_c, 1, 62, 67
4, 21312, Note_on_c, 1, 55, 67
4, 21359, Note_on_c, 1, 62, 0
4, 21359, Note_on_c, 1, 55, 0
4, 21360, Note_on_c, 1, 62, 67
4, 21360, Note_on_c, 1, 55, 67
4, 21407, Note_on_c, 1, 62, 0
4, 21407, Note_on_c, 1, 55, 0
4, 21408, Note_on_c, 1, 62, 67
4, 21408, Note_on_c, 1, 55, 67
4, 21455, Note_on_c, 1, 62, 0
4, 21455, Note_on_c, 1, 55, 0
4, 21456, Note_on_c, 1, 62, 67
4, 21456, Note_on_c, 1, 55, 67
4, 21503, Note_on_c, 1, 62, 0
4, 21503, Note_on_c, 1, 55, 0
4, 21504, Note_on_c, 1, 62, 67
4, 21504, Note_on_c, 1, 55, 67
4, 21551, Note_on_c, 1, 62, 0
4, 21551, Note_on_c, 1, 55, 0
4, 21552, Note_on_c, 1, 62, 67
4, 21552, Note_on_c, 1, 55, 67
4, 21599, Note_on_c, 1, 62, 0
4, 21599, Note_on_c, 1, 55, 0
4, 21600, Note_on_c, 1, 62, 67
4, 21600, Note_on_c, 1, 55, 67
4, 21647, Note_on_c, 1, 62, 0
4, 21647, Note_on_c, 1, 55, 0
4, 21648, Note_on_c, 1, 62, 67
4, 21648, Note_on_c, 1, 55, 67
4, 21695, Note_on_c, 1, 62, 0
4, 21695, Note_on_c, 1, 55, 0
4, 21696, Note_on_c, 1, 62, 67
4, 21696, Note_on_c, 1, 54, 67
4, 21743, Note_on_c, 1, 62, 0
4, 21743, Note_on_c, 1, 54, 0
4, 21744, Note_on_c, 1, 62, 67
4, 21744, Note_on_c, 1, 54, 67
4, 21791, Note_on_c, 1, 62, 0
4, 21791, Note_on_c, 1, 54, 0
4, 21792, Note_on_c, 1, 62, 67
4, 21792, Note_on_c, 1, 54, 67
4, 21839, Note_on_c, 1, 62, 0
4, 21839, Note_on_c, 1, 54, 0
4, 21840, Note_on_c, 1, 62, 67
4, 21840, Note_on_c, 1, 54, 67
4, 21887, Note_on_c, 1, 62, 0
4, 21887, Note_on_c, 1, 54, 0
4, 21888, Note_on_c, 1, 62, 67
4, 21888, Note_on_c, 1, 54, 67
4, 21935, Note_on_c, 1, 62, 0
4, 21935, Note_on_c, 1, 54, 0
4, 21936, Note_on_c, 1, 62, 67
4, 21936, Note_on_c, 1, 54, 67
4, 21983, Note_on_c, 1, 62, 0
4, 21983, Note_on_c, 1, 54, 0
4, 21984, Note_on_c, 1, 62, 67
4, 21984, Note_on_c, 1, 54, 67
4, 22031, Note_on_c, 1, 62, 0
4, 22031, Note_on_c, 1, 54, 0
4, 22032, Note_on_c, 1, 62, 67
4, 22032, Note_on_c, 1, 54, 67
4, 22079, Note_on_c, 1, 62, 0
4, 22079, Note_on_c, 1, 54, 0
4, 22080, Note_on_c, 1, 62, 67
4, 22080, Note_on_c, 1, 55, 67
4, 22127, Note_on_c, 1, 62, 0
4, 22127, Note_on_c, 1, 55, 0
4, 22128, Note_on_c, 1, 62, 67
4, 22128, Note_on_c, 1, 55, 67
4, 22175, Note_on_c, 1, 62, 0
4, 22175, Note_on_c, 1, 55, 0
4, 22176, Note_on_c, 1, 62, 67
4, 22176, Note_on_c, 1, 55, 67
4, 22223, Note_on_c, 1, 62, 0
4, 22223, Note_on_c, 1, 55, 0
4, 22224, Note_on_c, 1, 62, 67
4, 22224, Note_on_c, 1, 55, 67
4, 22271, Note_on_c, 1, 62, 0
4, 22271, Note_on_c, 1, 55, 0
4, 22272, Note_on_c, 1, 62, 67
4, 22272, Note_on_c, 1, 57, 67
4, 22319, Note_on_c, 1, 62, 0
4, 22319, Note_on_c, 1, 57, 0
4, 22320, Note_on_c, 1, 62, 67
4, 22320, Note_on_c, 1, 57, 67
4, 22367, Note_on_c, 1, 62, 0
4, 22367, Note_on_c, 1, 57, 0
4, 22368, Note_on_c, 1, 61, 67
4, 22368, Note_on_c, 1, 57, 67
4, 22415, Note_on_c, 1, 61, 0
4, 22415, Note_on_c, 1, 57, 0
4, 22416, Note_on_c, 1, 61, 67
4, 22416, Note_on_c, 1, 57, 67
4, 22463, Note_on_c, 1, 61, 0
4, 22463, Note_on_c, 1, 57, 0
4, 22464, Note_on_c, 1, 62, 67
4, 22464, Note_on_c, 1, 50, 67
4, 22553, Note_on_c, 1, 62, 0
4, 22553, Note_on_c, 1, 50, 0
4, 22560, Note_on_c, 1, 66, 84
4, 22605, Note_on_c, 1, 66, 0
4, 22656, Note_on_c, 1, 67, 86
4, 22701, Note_on_c, 1, 67, 0
4, 22752, Note_on_c, 1, 69, 89
4, 22797, Note_on_c, 1, 69, 0
4, 22848, Note_on_c, 1, 71, 92
4, 22893, Note_on_c, 1, 71, 0
4, 22944, Note_on_c, 1, 54, 95
4, 22944, Note_on_c, 1, 42, 95
4, 23033, Note_on_c, 1, 54, 0
4, 23033, Note_on_c, 1, 42, 0
4, 23040, Note_on_c, 1, 55, 97
4, 23040, Note_on_c, 1, 43, 97
4, 23129, Note_on_c, 1, 55, 0
4, 23129, Note_on_c, 1, 43, 0
4, 23136, Note_on_c, 1, 57, 100
4, 23136, Note_on_c, 1, 45, 100
4, 23225, Note_on_c, 1, 57, 0
4, 23225, Note_on_c, 1, 45, 0
4, 23232, Note_on_c, 1, 50, 103
4, 23232, Note_on_c, 1, 38, 103
4, 23321, Note_on_c, 1, 50, 0
4, 23321, Note_on_c, 1, 38, 0
4, 23424, Note_on_c, 1, 38, 4
4, 23513, Note_on_c, 1, 38, 0
4, 23520, End_track
5, 0, Start_track
5, 0, Program_c, 1, 0
5, 0, Control_c, 1, 7, 127
5, 0, Control_c, 1, 10, 64
5, 23424, End_track
6, 0, Start_track
6, 0, Title_t, "Sonata III   <composer>  "
6, 0, End_track
0, 0, End_of_file
