0, 0, Header, 1, 6, 96
1, 0, Start_track
1, 0, Copyright_t, "Copyright  2000 <copyright holder>"
1, 0, Text_t, "Sonata I\015\012"
1, 0, Text_t, "Haydn\015\012"
1, 0, Sequencer_specific, 16, 68, 87, 77, 90, 86, 82, 83, 78, 32, 55, 46, 49, 46, 50, 46, 48
1, 0, Time_signature, 6, 3, 24, 8
1, 0, Tempo, 1333333
1, 0, Key_signature, 2, "major"
1, 8928, Tempo, 1578947
1, 9024, Tempo, 1333333
1, 11232, Tempo, 1578947
1, 11328, Tempo, 1333333
1, 13620, Tempo, 1500000
1, 13680, Tempo, 2000000
1, 13776, Tempo, 2400000
1, 13824, Tempo, 1333333
1, 17856, Tempo, 2000000
1, 18144, End_track
2, 0, Start_track
2, 0, Program_c, 0, 0
2, 0, Control_c, 0, 7, 127
2, 0, Control_c, 0, 10, 64
2, 0, Note_on_c, 0, 66, 70
2, 0, Note_on_c, 0, 62, 70
2, 89, Note_on_c, 0, 66, 0
2, 89, Note_on_c, 0, 62, 0
2, 96, Note_on_c, 0, 66, 70
2, 96, Note_on_c, 0, 62, 70
2, 251, Note_on_c, 0, 66, 0
2, 251, Note_on_c, 0, 62, 0
2, 264, Note_on_c, 0, 71, 75
2, 287, Note_on_c, 0, 71, 0
2, 288, Note_on_c, 0, 69, 74
2, 288, Note_on_c, 0, 66, 74
2, 336, Note_on_c, 0, 69, 0
2, 336, Note_on_c, 0, 66, 0
2, 336, Note_on_c, 0, 67, 73
2, 336, Note_on_c, 0, 64, 73
2, 381, Note_on_c, 0, 67, 0
2, 381, Note_on_c, 0, 64, 0
2, 384, Note_on_c, 0, 67, 72
2, 384, Note_on_c, 0, 64, 72
2, 517, Note_on_c, 0, 67, 0
2, 517, Note_on_c, 0, 64, 0
2, 576, Note_on_c, 0, 64, 70
2, 576, Note_on_c, 0, 61, 70
2, 665, Note_on_c, 0, 64, 0
2, 665, Note_on_c, 0, 61, 0
2, 672, Note_on_c, 0, 73, 71
2, 672, Note_on_c, 0, 70, 71
2, 827, Note_on_c, 0, 73, 0
2, 827, Note_on_c, 0, 70, 0
2, 840, Note_on_c, 0, 64, 75
2, 840, Note_on_c, 0, 61, 75
2, 863, Note_on_c, 0, 64, 0
2, 863, Note_on_c, 0, 61, 0
2, 864, Note_on_c, 0, 64, 90
2, 864, Note_on_c, 0, 61, 90
2, 912, Note_on_c, 0, 64, 0
2, 912, Note_on_c, 0, 61, 0
2, 912, Note_on_c, 0, 62, 72
2, 912, Note_on_c, 0, 59, 72
2, 946, Note_on_c, 0, 62, 0
2, 946, Note_on_c, 0, 59, 0
2, 948, Note_on_c, 0, 61, 70
2, 948, Note_on_c, 0, 58, 70
2, 960, Note_on_c, 0, 61, 0
2, 960, Note_on_c, 0, 58, 0
2, 960, Note_on_c, 0, 62, 70
2, 960, Note_on_c, 0, 59, 70
2, 1093, Note_on_c, 0, 62, 0
2, 1093, Note_on_c, 0, 59, 0
2, 1200, Note_on_c, 0, 79, 70
2, 1245, Note_on_c, 0, 79, 0
2, 1248, Note_on_c, 0, 76, 70
2, 1293, Note_on_c, 0, 76, 0
2, 1296, Note_on_c, 0, 70, 70
2, 1296, Note_on_c, 0, 66, 70
2, 1296, Note_on_c, 0, 61, 70
2, 1344, Note_on_c, 0, 70, 0
2, 1344, Note_on_c, 0, 61, 0
2, 1344, Note_on_c, 0, 71, 70
2, 1344, Note_on_c, 0, 62, 70
2, 1389, Note_on_c, 0, 71, 0
2, 1389, Note_on_c, 0, 66, 0
2, 1389, Note_on_c, 0, 62, 0
2, 1392, Note_on_c, 0, 78, 70
2, 1437, Note_on_c, 0, 78, 0
2, 1488, Note_on_c, 0, 77, 70
2, 1533, Note_on_c, 0, 77, 0
2, 1536, Note_on_c, 0, 74, 70
2, 1581, Note_on_c, 0, 74, 0
2, 1584, Note_on_c, 0, 68, 70
2, 1632, Note_on_c, 0, 68, 0
2, 1632, Note_on_c, 0, 69, 70
2, 1677, Note_on_c, 0, 69, 0
2, 1680, Note_on_c, 0, 76, 70
2, 1725, Note_on_c, 0, 76, 0
2, 1728, Note_on_c, 0, 72, 70
2, 1728, Note_on_c, 0, 69, 70
2, 1795, Note_on_c, 0, 72, 0
2, 1795, Note_on_c, 0, 69, 0
2, 1800, Note_on_c, 0, 72, 70
2, 1800, Note_on_c, 0, 69, 70
2, 1823, Note_on_c, 0, 72, 0
2, 1823, Note_on_c, 0, 69, 0
2, 1824, Note_on_c, 0, 71, 70
2, 1824, Note_on_c, 0, 68, 70
2, 1869, Note_on_c, 0, 71, 0
2, 1869, Note_on_c, 0, 68, 0
2, 1896, Note_on_c, 0, 71, 70
2, 1896, Note_on_c, 0, 68, 70
2, 1919, Note_on_c, 0, 71, 0
2, 1919, Note_on_c, 0, 68, 0
2, 1920, Note_on_c, 0, 74, 71
2, 1920, Note_on_c, 0, 71, 71
2, 1987, Note_on_c, 0, 74, 0
2, 1987, Note_on_c, 0, 71, 0
2, 1992, Note_on_c, 0, 74, 74
2, 1992, Note_on_c, 0, 71, 74
2, 2015, Note_on_c, 0, 74, 0
2, 2015, Note_on_c, 0, 71, 0
2, 2016, Note_on_c, 0, 76, 75
2, 2016, Note_on_c, 0, 73, 75
2, 2064, Note_on_c, 0, 76, 0
2, 2064, Note_on_c, 0, 73, 0
2, 2064, Note_on_c, 0, 74, 73
2, 2064, Note_on_c, 0, 71, 73
2, 2109, Note_on_c, 0, 74, 0
2, 2109, Note_on_c, 0, 71, 0
2, 2112, Note_on_c, 0, 73, 71
2, 2112, Note_on_c, 0, 70, 71
2, 2157, Note_on_c, 0, 73, 0
2, 2157, Note_on_c, 0, 70, 0
2, 2304, Note_on_c, 0, 62, 70
2, 2349, Note_on_c, 0, 62, 0
2, 2352, Note_on_c, 0, 66, 70
2, 2397, Note_on_c, 0, 66, 0
2, 2400, Note_on_c, 0, 71, 71
2, 2445, Note_on_c, 0, 71, 0
2, 2448, Note_on_c, 0, 74, 72
2, 2493, Note_on_c, 0, 74, 0
2, 2496, Note_on_c, 0, 71, 73
2, 2544, Note_on_c, 0, 71, 0
2, 2544, Note_on_c, 0, 72, 74
2, 2589, Note_on_c, 0, 72, 0
2, 2592, Note_on_c, 0, 62, 70
2, 2637, Note_on_c, 0, 62, 0
2, 2640, Note_on_c, 0, 66, 70
2, 2685, Note_on_c, 0, 66, 0
2, 2688, Note_on_c, 0, 69, 71
2, 2733, Note_on_c, 0, 69, 0
2, 2736, Note_on_c, 0, 72, 72
2, 2781, Note_on_c, 0, 72, 0
2, 2784, Note_on_c, 0, 70, 73
2, 2832, Note_on_c, 0, 70, 0
2, 2832, Note_on_c, 0, 71, 74
2, 2877, Note_on_c, 0, 71, 0
2, 2880, Note_on_c, 0, 64, 70
2, 2903, Note_on_c, 0, 64, 0
2, 2904, Note_on_c, 0, 66, 70
2, 2927, Note_on_c, 0, 66, 0
2, 2928, Note_on_c, 0, 67, 71
2, 2995, Note_on_c, 0, 67, 0
2, 3000, Note_on_c, 0, 66, 74
2, 3000, Note_on_c, 0, 57, 74
2, 3023, Note_on_c, 0, 66, 0
2, 3023, Note_on_c, 0, 57, 0
2, 3024, Note_on_c, 0, 64, 75
2, 3024, Note_on_c, 0, 55, 75
2, 3047, Note_on_c, 0, 64, 0
2, 3047, Note_on_c, 0, 55, 0
2, 3048, Note_on_c, 0, 62, 74
2, 3048, Note_on_c, 0, 54, 74
2, 3071, Note_on_c, 0, 62, 0
2, 3071, Note_on_c, 0, 54, 0
2, 3144, Note_on_c, 0, 61, 72
2, 3144, Note_on_c, 0, 55, 72
2, 3168, Note_on_c, 0, 61, 0
2, 3168, Note_on_c, 0, 55, 0
2, 3168, Note_on_c, 0, 62, 72
2, 3168, Note_on_c, 0, 54, 72
2, 3257, Note_on_c, 0, 62, 0
2, 3257, Note_on_c, 0, 54, 0
2, 3456, Note_on_c, 0, 66, 70
2, 3456, Note_on_c, 0, 62, 70
2, 3545, Note_on_c, 0, 66, 0
2, 3545, Note_on_c, 0, 62, 0
2, 3552, Note_on_c, 0, 66, 70
2, 3552, Note_on_c, 0, 62, 70
2, 3707, Note_on_c, 0, 66, 0
2, 3707, Note_on_c, 0, 62, 0
2, 3720, Note_on_c, 0, 71, 75
2, 3743, Note_on_c, 0, 71, 0
2, 3744, Note_on_c, 0, 69, 74
2, 3744, Note_on_c, 0, 66, 74
2, 3792, Note_on_c, 0, 69, 0
2, 3792, Note_on_c, 0, 66, 0
2, 3792, Note_on_c, 0, 67, 73
2, 3792, Note_on_c, 0, 64, 73
2, 3837, Note_on_c, 0, 67, 0
2, 3837, Note_on_c, 0, 64, 0
2, 3840, Note_on_c, 0, 67, 72
2, 3840, Note_on_c, 0, 64, 72
2, 3973, Note_on_c, 0, 67, 0
2, 3973, Note_on_c, 0, 64, 0
2, 4032, Note_on_c, 0, 64, 70
2, 4032, Note_on_c, 0, 61, 70
2, 4121, Note_on_c, 0, 64, 0
2, 4121, Note_on_c, 0, 61, 0
2, 4128, Note_on_c, 0, 73, 71
2, 4128, Note_on_c, 0, 70, 71
2, 4283, Note_on_c, 0, 73, 0
2, 4283, Note_on_c, 0, 70, 0
2, 4296, Note_on_c, 0, 64, 75
2, 4296, Note_on_c, 0, 61, 75
2, 4319, Note_on_c, 0, 64, 0
2, 4319, Note_on_c, 0, 61, 0
2, 4320, Note_on_c, 0, 64, 90
2, 4320, Note_on_c, 0, 61, 90
2, 4368, Note_on_c, 0, 64, 0
2, 4368, Note_on_c, 0, 61, 0
2, 4368, Note_on_c, 0, 62, 72
2, 4368, Note_on_c, 0, 59, 72
2, 4402, Note_on_c, 0, 62, 0
2, 4402, Note_on_c, 0, 59, 0
2, 4404, Note_on_c, 0, 61, 70
2, 4404, Note_on_c, 0, 58, 70
2, 4416, Note_on_c, 0, 61, 0
2, 4416, Note_on_c, 0, 58, 0
2, 4416, Note_on_c, 0, 62, 70
2, 4416, Note_on_c, 0, 59, 70
2, 4549, Note_on_c, 0, 62, 0
2, 4549, Note_on_c, 0, 59, 0
2, 4656, Note_on_c, 0, 79, 70
2, 4701, Note_on_c, 0, 79, 0
2, 4704, Note_on_c, 0, 76, 70
2, 4749, Note_on_c, 0, 76, 0
2, 4752, Note_on_c, 0, 70, 70
2, 4752, Note_on_c, 0, 66, 70
2, 4752, Note_on_c, 0, 61, 70
2, 4800, Note_on_c, 0, 70, 0
2, 4800, Note_on_c, 0, 61, 0
2, 4800, Note_on_c, 0, 71, 70
2, 4800, Note_on_c, 0, 62, 70
2, 4845, Note_on_c, 0, 71, 0
2, 4845, Note_on_c, 0, 66, 0
2, 4845, Note_on_c, 0, 62, 0
2, 4848, Note_on_c, 0, 78, 70
2, 4893, Note_on_c, 0, 78, 0
2, 4944, Note_on_c, 0, 77, 70
2, 4989, Note_on_c, 0, 77, 0
2, 4992, Note_on_c, 0, 74, 70
2, 5037, Note_on_c, 0, 74, 0
2, 5040, Note_on_c, 0, 68, 70
2, 5088, Note_on_c, 0, 68, 0
2, 5088, Note_on_c, 0, 69, 70
2, 5133, Note_on_c, 0, 69, 0
2, 5136, Note_on_c, 0, 76, 70
2, 5181, Note_on_c, 0, 76, 0
2, 5184, Note_on_c, 0, 72, 70
2, 5184, Note_on_c, 0, 69, 70
2, 5251, Note_on_c, 0, 72, 0
2, 5251, Note_on_c, 0, 69, 0
2, 5256, Note_on_c, 0, 72, 70
2, 5256, Note_on_c, 0, 69, 70
2, 5279, Note_on_c, 0, 72, 0
2, 5279, Note_on_c, 0, 69, 0
2, 5280, Note_on_c, 0, 71, 70
2, 5280, Note_on_c, 0, 68, 70
2, 5325, Note_on_c, 0, 71, 0
2, 5325, Note_on_c, 0, 68, 0
2, 5352, Note_on_c, 0, 71, 70
2, 5352, Note_on_c, 0, 68, 70
2, 5375, Note_on_c, 0, 71, 0
2, 5375, Note_on_c, 0, 68, 0
2, 5376, Note_on_c, 0, 74, 71
2, 5376, Note_on_c, 0, 71, 71
2, 5443, Note_on_c, 0, 74, 0
2, 5443, Note_on_c, 0, 71, 0
2, 5448, Note_on_c, 0, 74, 74
2, 5448, Note_on_c, 0, 71, 74
2, 5471, Note_on_c, 0, 74, 0
2, 5471, Note_on_c, 0, 71, 0
2, 5472, Note_on_c, 0, 76, 75
2, 5472, Note_on_c, 0, 73, 75
2, 5520, Note_on_c, 0, 76, 0
2, 5520, Note_on_c, 0, 73, 0
2, 5520, Note_on_c, 0, 74, 73
2, 5520, Note_on_c, 0, 71, 73
2, 5565, Note_on_c, 0, 74, 0
2, 5565, Note_on_c, 0, 71, 0
2, 5568, Note_on_c, 0, 73, 71
2, 5568, Note_on_c, 0, 70, 71
2, 5613, Note_on_c, 0, 73, 0
2, 5613, Note_on_c, 0, 70, 0
2, 5760, Note_on_c, 0, 62, 70
2, 5805, Note_on_c, 0, 62, 0
2, 5808, Note_on_c, 0, 66, 70
2, 5853, Note_on_c, 0, 66, 0
2, 5856, Note_on_c, 0, 71, 71
2, 5901, Note_on_c, 0, 71, 0
2, 5904, Note_on_c, 0, 74, 72
2, 5949, Note_on_c, 0, 74, 0
2, 5952, Note_on_c, 0, 71, 73
2, 6000, Note_on_c, 0, 71, 0
2, 6000, Note_on_c, 0, 72, 74
2, 6045, Note_on_c, 0, 72, 0
2, 6048, Note_on_c, 0, 62, 70
2, 6093, Note_on_c, 0, 62, 0
2, 6096, Note_on_c, 0, 66, 70
2, 6141, Note_on_c, 0, 66, 0
2, 6144, Note_on_c, 0, 69, 71
2, 6189, Note_on_c, 0, 69, 0
2, 6192, Note_on_c, 0, 72, 72
2, 6237, Note_on_c, 0, 72, 0
2, 6240, Note_on_c, 0, 70, 73
2, 6288, Note_on_c, 0, 70, 0
2, 6288, Note_on_c, 0, 71, 74
2, 6333, Note_on_c, 0, 71, 0
2, 6336, Note_on_c, 0, 64, 70
2, 6359, Note_on_c, 0, 64, 0
2, 6360, Note_on_c, 0, 66, 70
2, 6383, Note_on_c, 0, 66, 0
2, 6384, Note_on_c, 0, 67, 71
2, 6451, Note_on_c, 0, 67, 0
2, 6456, Note_on_c, 0, 66, 74
2, 6456, Note_on_c, 0, 57, 74
2, 6479, Note_on_c, 0, 66, 0
2, 6479, Note_on_c, 0, 57, 0
2, 6480, Note_on_c, 0, 64, 75
2, 6480, Note_on_c, 0, 55, 75
2, 6503, Note_on_c, 0, 64, 0
2, 6503, Note_on_c, 0, 55, 0
2, 6504, Note_on_c, 0, 62, 74
2, 6504, Note_on_c, 0, 54, 74
2, 6527, Note_on_c, 0, 62, 0
2, 6527, Note_on_c, 0, 54, 0
2, 6600, Note_on_c, 0, 61, 72
2, 6600, Note_on_c, 0, 55, 72
2, 6624, Note_on_c, 0, 61, 0
2, 6624, Note_on_c, 0, 55, 0
2, 6624, Note_on_c, 0, 62, 72
2, 6624, Note_on_c, 0, 54, 72
2, 6713, Note_on_c, 0, 62, 0
2, 6713, Note_on_c, 0, 54, 0
2, 6912, Note_on_c, 0, 81, 75
2, 6912, Note_on_c, 0, 78, 75
2, 7008, Note_on_c, 0, 78, 0
2, 7031, Note_on_c, 0, 81, 0
2, 7032, Note_on_c, 0, 74, 75
2, 7055, Note_on_c, 0, 74, 0
2, 7056, Note_on_c, 0, 76, 75
2, 7079, Note_on_c, 0, 76, 0
2, 7080, Note_on_c, 0, 78, 75
2, 7103, Note_on_c, 0, 78, 0
2, 7104, Note_on_c, 0, 79, 75
2, 7127, Note_on_c, 0, 79, 0
2, 7128, Note_on_c, 0, 78, 75
2, 7151, Note_on_c, 0, 78, 0
2, 7152, Note_on_c, 0, 76, 75
2, 7175, Note_on_c, 0, 76, 0
2, 7176, Note_on_c, 0, 74, 75
2, 7199, Note_on_c, 0, 74, 0
2, 7200, Note_on_c, 0, 79, 75
2, 7200, Note_on_c, 0, 76, 75
2, 7267, Note_on_c, 0, 79, 0
2, 7267, Note_on_c, 0, 76, 0
2, 7272, Note_on_c, 0, 76, 75
2, 7295, Note_on_c, 0, 76, 0
2, 7296, Note_on_c, 0, 73, 75
2, 7385, Note_on_c, 0, 73, 0
2, 7488, Note_on_c, 0, 86, 91
2, 7512, Note_on_c, 0, 86, 0
2, 7512, Note_on_c, 0, 74, 75
2, 7535, Note_on_c, 0, 74, 0
2, 7536, Note_on_c, 0, 81, 76
2, 7560, Note_on_c, 0, 81, 0
2, 7560, Note_on_c, 0, 84, 77
2, 7607, Note_on_c, 0, 84, 0
2, 7608, Note_on_c, 0, 82, 79
2, 7632, Note_on_c, 0, 82, 0
2, 7632, Note_on_c, 0, 83, 80
2, 7655, Note_on_c, 0, 83, 0
2, 7656, Note_on_c, 0, 75, 80
2, 7704, Note_on_c, 0, 75, 0
2, 7704, Note_on_c, 0, 76, 80
2, 7727, Note_on_c, 0, 76, 0
2, 7728, Note_on_c, 0, 81, 80
2, 7740, Note_on_c, 0, 81, 0
2, 7740, Note_on_c, 0, 79, 79
2, 7752, Note_on_c, 0, 79, 0
2, 7752, Note_on_c, 0, 78, 79
2, 7764, Note_on_c, 0, 78, 0
2, 7764, Note_on_c, 0, 76, 78
2, 7776, Note_on_c, 0, 76, 0
2, 7776, Note_on_c, 0, 74, 78
2, 7776, Note_on_c, 0, 66, 78
2, 7872, Note_on_c, 0, 74, 0
2, 7872, Note_on_c, 0, 66, 0
2, 7872, Note_on_c, 0, 73, 75
2, 7872, Note_on_c, 0, 64, 75
2, 7896, Note_on_c, 0, 73, 0
2, 7896, Note_on_c, 0, 64, 0
2, 7896, Note_on_c, 0, 81, 75
2, 7920, Note_on_c, 0, 81, 0
2, 7920, Note_on_c, 0, 80, 75
2, 7943, Note_on_c, 0, 80, 0
2, 7944, Note_on_c, 0, 86, 75
2, 7968, Note_on_c, 0, 86, 0
2, 7968, Note_on_c, 0, 85, 75
2, 7991, Note_on_c, 0, 85, 0
2, 7992, Note_on_c, 0, 89, 75
2, 8016, Note_on_c, 0, 89, 0
2, 8016, Note_on_c, 0, 88, 75
2, 8039, Note_on_c, 0, 88, 0
2, 8040, Note_on_c, 0, 86, 75
2, 8063, Note_on_c, 0, 86, 0
2, 8088, Note_on_c, 0, 84, 75
2, 8111, Note_on_c, 0, 84, 0
2, 8136, Note_on_c, 0, 82, 75
2, 8159, Note_on_c, 0, 82, 0
2, 8184, Note_on_c, 0, 81, 75
2, 8207, Note_on_c, 0, 81, 0
2, 8232, Note_on_c, 0, 80, 75
2, 8268, Note_on_c, 0, 80, 0
2, 8268, Note_on_c, 0, 81, 75
2, 8280, Note_on_c, 0, 81, 0
2, 8280, Note_on_c, 0, 83, 75
2, 8292, Note_on_c, 0, 83, 0
2, 8292, Note_on_c, 0, 81, 75
2, 8304, Note_on_c, 0, 81, 0
2, 8304, Note_on_c, 0, 79, 75
2, 8316, Note_on_c, 0, 79, 0
2, 8316, Note_on_c, 0, 78, 75
2, 8328, Note_on_c, 0, 78, 0
2, 8328, Note_on_c, 0, 76, 75
2, 8340, Note_on_c, 0, 76, 0
2, 8340, Note_on_c, 0, 74, 75
2, 8352, Note_on_c, 0, 74, 0
2, 8352, Note_on_c, 0, 73, 75
2, 8375, Note_on_c, 0, 73, 0
2, 8376, Note_on_c, 0, 83, 75
2, 8388, Note_on_c, 0, 83, 0
2, 8388, Note_on_c, 0, 81, 75
2, 8400, Note_on_c, 0, 81, 0
2, 8400, Note_on_c, 0, 81, 75
2, 8447, Note_on_c, 0, 81, 0
2, 8520, Note_on_c, 0, 76, 75
2, 8543, Note_on_c, 0, 76, 0
2, 8544, Note_on_c, 0, 77, 76
2, 8567, Note_on_c, 0, 77, 0
2, 8568, Note_on_c, 0, 78, 77
2, 8591, Note_on_c, 0, 78, 0
2, 8592, Note_on_c, 0, 79, 78
2, 8615, Note_on_c, 0, 79, 0
2, 8616, Note_on_c, 0, 80, 79
2, 8639, Note_on_c, 0, 80, 0
2, 8640, Note_on_c, 0, 81, 80
2, 8652, Note_on_c, 0, 81, 0
2, 8652, Note_on_c, 0, 86, 80
2, 8664, Note_on_c, 0, 86, 0
2, 8664, Note_on_c, 0, 85, 80
2, 8676, Note_on_c, 0, 85, 0
2, 8676, Note_on_c, 0, 83, 80
2, 8688, Note_on_c, 0, 83, 0
2, 8688, Note_on_c, 0, 81, 80
2, 8700, Note_on_c, 0, 81, 0
2, 8700, Note_on_c, 0, 79, 80
2, 8712, Note_on_c, 0, 79, 0
2, 8712, Note_on_c, 0, 78, 80
2, 8724, Note_on_c, 0, 78, 0
2, 8724, Note_on_c, 0, 76, 80
2, 8736, Note_on_c, 0, 76, 0
2, 8736, Note_on_c, 0, 74, 80
2, 8748, Note_on_c, 0, 74, 0
2, 8748, Note_on_c, 0, 73, 80
2, 8760, Note_on_c, 0, 73, 0
2, 8760, Note_on_c, 0, 71, 80
2, 8772, Note_on_c, 0, 71, 0
2, 8772, Note_on_c, 0, 69, 80
2, 8784, Note_on_c, 0, 69, 0
2, 8784, Note_on_c, 0, 67, 80
2, 8796, Note_on_c, 0, 67, 0
2, 8796, Note_on_c, 0, 66, 80
2, 8808, Note_on_c, 0, 66, 0
2, 8808, Note_on_c, 0, 64, 80
2, 8820, Note_on_c, 0, 64, 0
2, 8820, Note_on_c, 0, 62, 80
2, 8832, Note_on_c, 0, 62, 0
2, 8832, Note_on_c, 0, 61, 80
2, 8855, Note_on_c, 0, 61, 0
2, 8856, Note_on_c, 0, 71, 78
2, 8879, Note_on_c, 0, 71, 0
2, 8880, Note_on_c, 0, 69, 77
2, 8914, Note_on_c, 0, 69, 0
2, 8916, Note_on_c, 0, 61, 75
2, 8928, Note_on_c, 0, 61, 0
2, 8928, Note_on_c, 0, 64, 75
2, 8928, Note_on_c, 0, 55, 75
2, 9024, Note_on_c, 0, 64, 0
2, 9024, Note_on_c, 0, 55, 0
2, 9024, Note_on_c, 0, 62, 70
2, 9024, Note_on_c, 0, 54, 70
2, 9157, Note_on_c, 0, 62, 0
2, 9157, Note_on_c, 0, 54, 0
2, 9216, Note_on_c, 0, 81, 75
2, 9216, Note_on_c, 0, 78, 75
2, 9312, Note_on_c, 0, 78, 0
2, 9335, Note_on_c, 0, 81, 0
2, 9336, Note_on_c, 0, 74, 75
2, 9359, Note_on_c, 0, 74, 0
2, 9360, Note_on_c, 0, 76, 75
2, 9383, Note_on_c, 0, 76, 0
2, 9384, Note_on_c, 0, 78, 75
2, 9407, Note_on_c, 0, 78, 0
2, 9408, Note_on_c, 0, 79, 75
2, 9431, Note_on_c, 0, 79, 0
2, 9432, Note_on_c, 0, 78, 75
2, 9455, Note_on_c, 0, 78, 0
2, 9456, Note_on_c, 0, 76, 75
2, 9479, Note_on_c, 0, 76, 0
2, 9480, Note_on_c, 0, 74, 75
2, 9503, Note_on_c, 0, 74, 0
2, 9504, Note_on_c, 0, 79, 75
2, 9504, Note_on_c, 0, 76, 75
2, 9571, Note_on_c, 0, 79, 0
2, 9571, Note_on_c, 0, 76, 0
2, 9576, Note_on_c, 0, 76, 75
2, 9599, Note_on_c, 0, 76, 0
2, 9600, Note_on_c, 0, 73, 75
2, 9689, Note_on_c, 0, 73, 0
2, 9792, Note_on_c, 0, 86, 91
2, 9816, Note_on_c, 0, 86, 0
2, 9816, Note_on_c, 0, 74, 75
2, 9839, Note_on_c, 0, 74, 0
2, 9840, Note_on_c, 0, 81, 76
2, 9864, Note_on_c, 0, 81, 0
2, 9864, Note_on_c, 0, 84, 77
2, 9911, Note_on_c, 0, 84, 0
2, 9912, Note_on_c, 0, 82, 79
2, 9936, Note_on_c, 0, 82, 0
2, 9936, Note_on_c, 0, 83, 80
2, 9959, Note_on_c, 0, 83, 0
2, 9960, Note_on_c, 0, 75, 80
2, 10008, Note_on_c, 0, 75, 0
2, 10008, Note_on_c, 0, 76, 80
2, 10031, Note_on_c, 0, 76, 0
2, 10032, Note_on_c, 0, 81, 80
2, 10044, Note_on_c, 0, 81, 0
2, 10044, Note_on_c, 0, 79, 79
2, 10056, Note_on_c, 0, 79, 0
2, 10056, Note_on_c, 0, 78, 79
2, 10068, Note_on_c, 0, 78, 0
2, 10068, Note_on_c, 0, 76, 78
2, 10080, Note_on_c, 0, 76, 0
2, 10080, Note_on_c, 0, 74, 78
2, 10080, Note_on_c, 0, 66, 78
2, 10176, Note_on_c, 0, 74, 0
2, 10176, Note_on_c, 0, 66, 0
2, 10176, Note_on_c, 0, 73, 75
2, 10176, Note_on_c, 0, 64, 75
2, 10200, Note_on_c, 0, 73, 0
2, 10200, Note_on_c, 0, 64, 0
2, 10200, Note_on_c, 0, 81, 75
2, 10224, Note_on_c, 0, 81, 0
2, 10224, Note_on_c, 0, 80, 75
2, 10247, Note_on_c, 0, 80, 0
2, 10248, Note_on_c, 0, 86, 75
2, 10272, Note_on_c, 0, 86, 0
2, 10272, Note_on_c, 0, 85, 75
2, 10295, Note_on_c, 0, 85, 0
2, 10296, Note_on_c, 0, 89, 75
2, 10320, Note_on_c, 0, 89, 0
2, 10320, Note_on_c, 0, 88, 75
2, 10343, Note_on_c, 0, 88, 0
2, 10344, Note_on_c, 0, 86, 75
2, 10367, Note_on_c, 0, 86, 0
2, 10392, Note_on_c, 0, 84, 75
2, 10415, Note_on_c, 0, 84, 0
2, 10440, Note_on_c, 0, 82, 75
2, 10463, Note_on_c, 0, 82, 0
2, 10488, Note_on_c, 0, 81, 75
2, 10511, Note_on_c, 0, 81, 0
2, 10536, Note_on_c, 0, 80, 75
2, 10572, Note_on_c, 0, 80, 0
2, 10572, Note_on_c, 0, 81, 75
2, 10584, Note_on_c, 0, 81, 0
2, 10584, Note_on_c, 0, 83, 75
2, 10596, Note_on_c, 0, 83, 0
2, 10596, Note_on_c, 0, 81, 75
2, 10608, Note_on_c, 0, 81, 0
2, 10608, Note_on_c, 0, 79, 75
2, 10620, Note_on_c, 0, 79, 0
2, 10620, Note_on_c, 0, 78, 75
2, 10632, Note_on_c, 0, 78, 0
2, 10632, Note_on_c, 0, 76, 75
2, 10644, Note_on_c, 0, 76, 0
2, 10644, Note_on_c, 0, 74, 75
2, 10656, Note_on_c, 0, 74, 0
2, 10656, Note_on_c, 0, 73, 75
2, 10679, Note_on_c, 0, 73, 0
2, 10680, Note_on_c, 0, 83, 75
2, 10692, Note_on_c, 0, 83, 0
2, 10692, Note_on_c, 0, 81, 75
2, 10704, Note_on_c, 0, 81, 0
2, 10704, Note_on_c, 0, 81, 75
2, 10751, Note_on_c, 0, 81, 0
2, 10824, Note_on_c, 0, 76, 75
2, 10847, Note_on_c, 0, 76, 0
2, 10848, Note_on_c, 0, 77, 76
2, 10871, Note_on_c, 0, 77, 0
2, 10872, Note_on_c, 0, 78, 77
2, 10895, Note_on_c, 0, 78, 0
2, 10896, Note_on_c, 0, 79, 78
2, 10919, Note_on_c, 0, 79, 0
2, 10920, Note_on_c, 0, 80, 79
2, 10943, Note_on_c, 0, 80, 0
2, 10944, Note_on_c, 0, 81, 80
2, 10956, Note_on_c, 0, 81, 0
2, 10956, Note_on_c, 0, 86, 80
2, 10968, Note_on_c, 0, 86, 0
2, 10968, Note_on_c, 0, 85, 80
2, 10980, Note_on_c, 0, 85, 0
2, 10980, Note_on_c, 0, 83, 80
2, 10992, Note_on_c, 0, 83, 0
2, 10992, Note_on_c, 0, 81, 80
2, 11004, Note_on_c, 0, 81, 0
2, 11004, Note_on_c, 0, 79, 80
2, 11016, Note_on_c, 0, 79, 0
2, 11016, Note_on_c, 0, 78, 80
2, 11028, Note_on_c, 0, 78, 0
2, 11028, Note_on_c, 0, 76, 80
2, 11040, Note_on_c, 0, 76, 0
2, 11040, Note_on_c, 0, 74, 80
2, 11052, Note_on_c, 0, 74, 0
2, 11052, Note_on_c, 0, 73, 80
2, 11064, Note_on_c, 0, 73, 0
2, 11064, Note_on_c, 0, 71, 80
2, 11076, Note_on_c, 0, 71, 0
2, 11076, Note_on_c, 0, 69, 80
2, 11088, Note_on_c, 0, 69, 0
2, 11088, Note_on_c, 0, 67, 80
2, 11100, Note_on_c, 0, 67, 0
2, 11100, Note_on_c, 0, 66, 80
2, 11112, Note_on_c, 0, 66, 0
2, 11112, Note_on_c, 0, 64, 80
2, 11124, Note_on_c, 0, 64, 0
2, 11124, Note_on_c, 0, 62, 80
2, 11136, Note_on_c, 0, 62, 0
2, 11136, Note_on_c, 0, 61, 80
2, 11159, Note_on_c, 0, 61, 0
2, 11160, Note_on_c, 0, 71, 78
2, 11183, Note_on_c, 0, 71, 0
2, 11184, Note_on_c, 0, 69, 77
2, 11218, Note_on_c, 0, 69, 0
2, 11220, Note_on_c, 0, 61, 75
2, 11232, Note_on_c, 0, 61, 0
2, 11232, Note_on_c, 0, 64, 75
2, 11232, Note_on_c, 0, 55, 75
2, 11328, Note_on_c, 0, 64, 0
2, 11328, Note_on_c, 0, 55, 0
2, 11328, Note_on_c, 0, 62, 70
2, 11328, Note_on_c, 0, 54, 70
2, 11461, Note_on_c, 0, 62, 0
2, 11461, Note_on_c, 0, 54, 0
2, 11592, Note_on_c, 0, 75, 64
2, 11592, Note_on_c, 0, 69, 64
2, 11616, Note_on_c, 0, 75, 0
2, 11616, Note_on_c, 0, 69, 0
2, 11616, Note_on_c, 0, 76, 64
2, 11616, Note_on_c, 0, 67, 64
2, 11650, Note_on_c, 0, 76, 0
2, 11650, Note_on_c, 0, 67, 0
2, 11880, Note_on_c, 0, 77, 70
2, 11880, Note_on_c, 0, 71, 70
2, 11904, Note_on_c, 0, 77, 0
2, 11904, Note_on_c, 0, 71, 0
2, 11904, Note_on_c, 0, 78, 70
2, 11904, Note_on_c, 0, 70, 70
2, 11938, Note_on_c, 0, 78, 0
2, 11938, Note_on_c, 0, 70, 0
2, 12168, Note_on_c, 0, 82, 75
2, 12168, Note_on_c, 0, 76, 75
2, 12192, Note_on_c, 0, 82, 0
2, 12192, Note_on_c, 0, 76, 0
2, 12192, Note_on_c, 0, 83, 75
2, 12192, Note_on_c, 0, 75, 75
2, 12215, Note_on_c, 0, 83, 0
2, 12215, Note_on_c, 0, 75, 0
2, 12216, Note_on_c, 0, 71, 75
2, 12239, Note_on_c, 0, 71, 0
2, 12240, Note_on_c, 0, 71, 75
2, 12263, Note_on_c, 0, 71, 0
2, 12264, Note_on_c, 0, 71, 76
2, 12287, Note_on_c, 0, 71, 0
2, 12288, Note_on_c, 0, 71, 77
2, 12311, Note_on_c, 0, 71, 0
2, 12312, Note_on_c, 0, 71, 77
2, 12335, Note_on_c, 0, 71, 0
2, 12336, Note_on_c, 0, 71, 78
2, 12359, Note_on_c, 0, 71, 0
2, 12360, Note_on_c, 0, 71, 79
2, 12383, Note_on_c, 0, 71, 0
2, 12384, Control_c, 0, 64, 127
2, 12384, Note_on_c, 0, 84, 80
2, 12384, Note_on_c, 0, 76, 80
2, 12384, Note_on_c, 0, 72, 80
2, 12408, Note_on_c, 0, 84, 0
2, 12408, Note_on_c, 0, 76, 0
2, 12408, Note_on_c, 0, 72, 0
2, 12408, Note_on_c, 0, 60, 80
2, 12431, Note_on_c, 0, 60, 0
2, 12432, Note_on_c, 0, 60, 80
2, 12456, Note_on_c, 0, 60, 0
2, 12456, Note_on_c, 0, 64, 80
2, 12479, Note_on_c, 0, 64, 0
2, 12480, Note_on_c, 0, 64, 80
2, 12504, Note_on_c, 0, 64, 0
2, 12504, Note_on_c, 0, 67, 80
2, 12527, Note_on_c, 0, 67, 0
2, 12528, Note_on_c, 0, 67, 80
2, 12552, Note_on_c, 0, 67, 0
2, 12552, Note_on_c, 0, 72, 80
2, 12575, Note_on_c, 0, 72, 0
2, 12576, Note_on_c, 0, 72, 80
2, 12600, Note_on_c, 0, 72, 0
2, 12600, Note_on_c, 0, 67, 80
2, 12623, Note_on_c, 0, 67, 0
2, 12624, Note_on_c, 0, 72, 80
2, 12648, Note_on_c, 0, 72, 0
2, 12648, Note_on_c, 0, 76, 80
2, 12671, Note_on_c, 0, 76, 0
2, 12672, Control_c, 0, 64, 0
2, 12672, Note_on_c, 0, 77, 96
2, 12750, Note_on_c, 0, 77, 0
2, 12750, Note_on_c, 0, 76, 80
2, 12756, Note_on_c, 0, 76, 0
2, 12756, Note_on_c, 0, 74, 80
2, 12762, Note_on_c, 0, 74, 0
2, 12762, Note_on_c, 0, 72, 80
2, 12768, Note_on_c, 0, 72, 0
2, 12768, Note_on_c, 0, 71, 80
2, 12901, Note_on_c, 0, 71, 0
2, 12960, Note_on_c, 0, 80, 70
2, 12960, Note_on_c, 0, 77, 70
2, 12960, Note_on_c, 0, 74, 70
2, 13027, Note_on_c, 0, 80, 0
2, 13027, Note_on_c, 0, 77, 0
2, 13027, Note_on_c, 0, 74, 0
2, 13032, Note_on_c, 0, 81, 70
2, 13032, Note_on_c, 0, 76, 70
2, 13055, Note_on_c, 0, 81, 0
2, 13055, Note_on_c, 0, 76, 0
2, 13056, Note_on_c, 0, 83, 70
2, 13056, Note_on_c, 0, 74, 70
2, 13189, Note_on_c, 0, 83, 0
2, 13189, Note_on_c, 0, 74, 0
2, 13248, Note_on_c, 0, 81, 86
2, 13326, Note_on_c, 0, 81, 0
2, 13326, Note_on_c, 0, 79, 70
2, 13332, Note_on_c, 0, 79, 0
2, 13332, Note_on_c, 0, 78, 70
2, 13338, Note_on_c, 0, 78, 0
2, 13338, Note_on_c, 0, 76, 70
2, 13344, Note_on_c, 0, 76, 0
2, 13344, Note_on_c, 0, 75, 70
2, 13477, Note_on_c, 0, 75, 0
2, 13512, Note_on_c, 0, 84, 70
2, 13535, Note_on_c, 0, 84, 0
2, 13536, Note_on_c, 0, 84, 69
2, 13584, Note_on_c, 0, 84, 0
2, 13584, Note_on_c, 0, 83, 68
2, 13618, Note_on_c, 0, 83, 0
2, 13620, Note_on_c, 0, 86, 67
2, 13632, Note_on_c, 0, 86, 0
2, 13632, Note_on_c, 0, 86, 67
2, 13680, Note_on_c, 0, 86, 0
2, 13680, Note_on_c, 0, 85, 66
2, 13774, Note_on_c, 0, 85, 0
2, 13824, Note_on_c, 0, 78, 70
2, 13824, Note_on_c, 0, 74, 70
2, 13913, Note_on_c, 0, 78, 0
2, 13913, Note_on_c, 0, 74, 0
2, 13920, Note_on_c, 0, 78, 70
2, 13920, Note_on_c, 0, 74, 70
2, 14075, Note_on_c, 0, 78, 0
2, 14075, Note_on_c, 0, 74, 0
2, 14088, Note_on_c, 0, 83, 75
2, 14111, Note_on_c, 0, 83, 0
2, 14112, Note_on_c, 0, 81, 74
2, 14112, Note_on_c, 0, 78, 74
2, 14136, Note_on_c, 0, 81, 0
2, 14136, Note_on_c, 0, 78, 0
2, 14136, Note_on_c, 0, 79, 74
2, 14136, Note_on_c, 0, 76, 74
2, 14203, Note_on_c, 0, 79, 0
2, 14203, Note_on_c, 0, 76, 0
2, 14208, Note_on_c, 0, 79, 72
2, 14208, Note_on_c, 0, 76, 72
2, 14341, Note_on_c, 0, 79, 0
2, 14341, Note_on_c, 0, 76, 0
2, 14400, Note_on_c, 0, 78, 70
2, 14400, Note_on_c, 0, 76, 70
2, 14445, Note_on_c, 0, 78, 0
2, 14445, Note_on_c, 0, 76, 0
2, 14448, Note_on_c, 0, 85, 86
2, 14519, Note_on_c, 0, 85, 0
2, 14520, Note_on_c, 0, 83, 70
2, 14543, Note_on_c, 0, 83, 0
2, 14544, Note_on_c, 0, 82, 70
2, 14567, Note_on_c, 0, 82, 0
2, 14568, Note_on_c, 0, 79, 70
2, 14591, Note_on_c, 0, 79, 0
2, 14592, Note_on_c, 0, 78, 70
2, 14615, Note_on_c, 0, 78, 0
2, 14616, Note_on_c, 0, 76, 70
2, 14639, Note_on_c, 0, 76, 0
2, 14640, Note_on_c, 0, 74, 70
2, 14663, Note_on_c, 0, 74, 0
2, 14664, Note_on_c, 0, 73, 70
2, 14687, Note_on_c, 0, 73, 0
2, 14688, Note_on_c, 0, 76, 70
2, 14694, Note_on_c, 0, 76, 0
2, 14694, Note_on_c, 0, 74, 70
2, 14711, Note_on_c, 0, 74, 0
2, 14712, Note_on_c, 0, 73, 70
2, 14735, Note_on_c, 0, 73, 0
2, 14736, Note_on_c, 0, 71, 70
2, 14825, Note_on_c, 0, 71, 0
2, 14976, Note_on_c, 0, 74, 70
2, 14982, Note_on_c, 0, 74, 0
2, 14982, Note_on_c, 0, 72, 70
2, 14999, Note_on_c, 0, 72, 0
2, 15000, Note_on_c, 0, 71, 70
2, 15023, Note_on_c, 0, 71, 0
2, 15024, Note_on_c, 0, 72, 70
2, 15095, Note_on_c, 0, 72, 0
2, 15096, Note_on_c, 0, 79, 70
2, 15119, Note_on_c, 0, 79, 0
2, 15120, Note_on_c, 0, 76, 70
2, 15143, Note_on_c, 0, 76, 0
2, 15144, Note_on_c, 0, 72, 70
2, 15167, Note_on_c, 0, 72, 0
2, 15168, Note_on_c, 0, 70, 86
2, 15216, Note_on_c, 0, 70, 0
2, 15216, Note_on_c, 0, 71, 70
2, 15261, Note_on_c, 0, 71, 0
2, 15264, Note_on_c, 0, 72, 70
2, 15270, Note_on_c, 0, 72, 0
2, 15270, Note_on_c, 0, 70, 70
2, 15287, Note_on_c, 0, 70, 0
2, 15288, Note_on_c, 0, 69, 70
2, 15300, Note_on_c, 0, 69, 0
2, 15300, Note_on_c, 0, 70, 70
2, 15312, Note_on_c, 0, 70, 0
2, 15312, Note_on_c, 0, 70, 70
2, 15383, Note_on_c, 0, 70, 0
2, 15384, Note_on_c, 0, 77, 70
2, 15407, Note_on_c, 0, 77, 0
2, 15408, Note_on_c, 0, 74, 70
2, 15431, Note_on_c, 0, 74, 0
2, 15432, Note_on_c, 0, 70, 70
2, 15455, Note_on_c, 0, 70, 0
2, 15456, Note_on_c, 0, 68, 86
2, 15504, Note_on_c, 0, 68, 0
2, 15504, Note_on_c, 0, 69, 70
2, 15549, Note_on_c, 0, 69, 0
2, 15552, Note_on_c, 0, 60, 70
2, 15552, Note_on_c, 0, 57, 70
2, 15619, Note_on_c, 0, 60, 0
2, 15619, Note_on_c, 0, 57, 0
2, 15624, Note_on_c, 0, 60, 70
2, 15624, Note_on_c, 0, 57, 70
2, 15647, Note_on_c, 0, 60, 0
2, 15647, Note_on_c, 0, 57, 0
2, 15648, Note_on_c, 0, 59, 70
2, 15648, Note_on_c, 0, 56, 70
2, 15693, Note_on_c, 0, 59, 0
2, 15693, Note_on_c, 0, 56, 0
2, 15720, Note_on_c, 0, 59, 70
2, 15720, Note_on_c, 0, 56, 70
2, 15743, Note_on_c, 0, 59, 0
2, 15743, Note_on_c, 0, 56, 0
2, 15744, Note_on_c, 0, 62, 71
2, 15744, Note_on_c, 0, 59, 71
2, 15811, Note_on_c, 0, 62, 0
2, 15811, Note_on_c, 0, 59, 0
2, 15816, Note_on_c, 0, 62, 74
2, 15816, Note_on_c, 0, 59, 74
2, 15839, Note_on_c, 0, 62, 0
2, 15839, Note_on_c, 0, 59, 0
2, 15840, Note_on_c, 0, 64, 75
2, 15840, Note_on_c, 0, 61, 75
2, 15888, Note_on_c, 0, 64, 0
2, 15888, Note_on_c, 0, 61, 0
2, 15888, Note_on_c, 0, 62, 74
2, 15888, Note_on_c, 0, 59, 74
2, 15933, Note_on_c, 0, 62, 0
2, 15933, Note_on_c, 0, 59, 0
2, 15936, Note_on_c, 0, 61, 73
2, 15936, Note_on_c, 0, 58, 73
2, 16069, Note_on_c, 0, 61, 0
2, 16069, Note_on_c, 0, 58, 0
2, 16128, Note_on_c, 0, 54, 70
2, 16128, Note_on_c, 0, 50, 70
2, 16217, Note_on_c, 0, 54, 0
2, 16217, Note_on_c, 0, 50, 0
2, 16224, Note_on_c, 0, 54, 70
2, 16224, Note_on_c, 0, 50, 70
2, 16379, Note_on_c, 0, 54, 0
2, 16379, Note_on_c, 0, 50, 0
2, 16392, Note_on_c, 0, 59, 75
2, 16415, Note_on_c, 0, 59, 0
2, 16416, Note_on_c, 0, 57, 74
2, 16416, Note_on_c, 0, 54, 74
2, 16464, Note_on_c, 0, 57, 0
2, 16464, Note_on_c, 0, 54, 0
2, 16464, Note_on_c, 0, 55, 73
2, 16464, Note_on_c, 0, 52, 73
2, 16509, Note_on_c, 0, 55, 0
2, 16509, Note_on_c, 0, 52, 0
2, 16512, Note_on_c, 0, 55, 72
2, 16512, Note_on_c, 0, 52, 72
2, 16645, Note_on_c, 0, 55, 0
2, 16645, Note_on_c, 0, 52, 0
2, 16656, Note_on_c, 0, 61, 70
2, 16771, Note_on_c, 0, 61, 0
2, 16776, Note_on_c, 0, 63, 72
2, 16799, Note_on_c, 0, 63, 0
2, 16800, Note_on_c, 0, 64, 72
2, 16867, Note_on_c, 0, 64, 0
2, 16872, Note_on_c, 0, 63, 75
2, 16872, Note_on_c, 0, 59, 75
2, 16895, Note_on_c, 0, 63, 0
2, 16895, Note_on_c, 0, 59, 0
2, 16896, Note_on_c, 0, 61, 74
2, 16896, Note_on_c, 0, 58, 74
2, 16919, Note_on_c, 0, 61, 0
2, 16919, Note_on_c, 0, 58, 0
2, 16920, Note_on_c, 0, 59, 73
2, 16965, Note_on_c, 0, 59, 0
2, 16968, Note_on_c, 0, 58, 71
2, 16991, Note_on_c, 0, 58, 0
2, 16992, Note_on_c, 0, 59, 70
2, 16992, Note_on_c, 0, 51, 70
2, 17081, Note_on_c, 0, 59, 0
2, 17081, Note_on_c, 0, 51, 0
2, 17184, Note_on_c, 0, 64, 64
2, 17184, Note_on_c, 0, 61, 64
2, 17256, Note_on_c, 0, 64, 0
2, 17256, Note_on_c, 0, 61, 0
2, 17256, Note_on_c, 0, 63, 64
2, 17256, Note_on_c, 0, 59, 64
2, 17279, Note_on_c, 0, 63, 0
2, 17279, Note_on_c, 0, 59, 0
2, 17280, Note_on_c, 0, 63, 64
2, 17280, Note_on_c, 0, 59, 64
2, 17369, Note_on_c, 0, 63, 0
2, 17369, Note_on_c, 0, 59, 0
2, 17472, Note_on_c, 0, 70, 64
2, 17472, Note_on_c, 0, 64, 64
2, 17544, Note_on_c, 0, 70, 0
2, 17544, Note_on_c, 0, 64, 0
2, 17544, Note_on_c, 0, 71, 64
2, 17544, Note_on_c, 0, 63, 64
2, 17567, Note_on_c, 0, 71, 0
2, 17567, Note_on_c, 0, 63, 0
2, 17568, Note_on_c, 0, 71, 64
2, 17568, Note_on_c, 0, 63, 64
2, 17613, Note_on_c, 0, 71, 0
2, 17613, Note_on_c, 0, 63, 0
2, 17616, Note_on_c, 0, 67, 63
2, 17664, Note_on_c, 0, 67, 0
2, 17664, Note_on_c, 0, 66, 63
2, 17709, Note_on_c, 0, 66, 0
2, 17712, Note_on_c, 0, 55, 62
2, 17760, Note_on_c, 0, 55, 0
2, 17760, Note_on_c, 0, 54, 62
2, 17805, Note_on_c, 0, 54, 0
2, 17808, Note_on_c, 0, 58, 61
2, 17808, Note_on_c, 0, 52, 61
2, 17853, Note_on_c, 0, 58, 0
2, 17853, Note_on_c, 0, 52, 0
2, 17856, Note_on_c, 0, 61, 61
2, 17856, Note_on_c, 0, 58, 61
2, 17856, Note_on_c, 0, 52, 61
2, 18000, Note_on_c, 0, 61, 0
2, 18000, Note_on_c, 0, 58, 0
2, 18000, Note_on_c, 0, 52, 0
2, 18000, Note_on_c, 0, 59, 59
2, 18000, Note_on_c, 0, 54, 59
2, 18000, Note_on_c, 0, 51, 59
2, 18133, Note_on_c, 0, 59, 0
2, 18133, Note_on_c, 0, 54, 0
2, 18133, Note_on_c, 0, 51, 0
2, 18144, End_track
3, 0, Start_track
3, 0, Program_c, 0, 0
3, 0, Control_c, 0, 7, 127
3, 0, Control_c, 0, 10, 64
3, 18144, End_track
4, 0, Start_track
4, 0, Program_c, 1, 0
4, 0, Control_c, 1, 7, 127
4, 0, Control_c, 1, 10, 64
4, 0, Note_on_c, 1, 47, 58
4, 20, Note_on_c, 1, 47, 0
4, 48, Note_on_c, 1, 50, 58
4, 68, Note_on_c, 1, 50, 0
4, 96, Note_on_c, 1, 54, 58
4, 116, Note_on_c, 1, 54, 0
4, 144, Note_on_c, 1, 59, 58
4, 164, Note_on_c, 1, 59, 0
4, 192, Note_on_c, 1, 54, 58
4, 212, Note_on_c, 1, 54, 0
4, 240, Note_on_c, 1, 50, 58
4, 260, Note_on_c, 1, 50, 0
4, 288, Note_on_c, 1, 47, 58
4, 308, Note_on_c, 1, 47, 0
4, 336, Note_on_c, 1, 52, 58
4, 356, Note_on_c, 1, 52, 0
4, 384, Note_on_c, 1, 55, 58
4, 404, Note_on_c, 1, 55, 0
4, 432, Note_on_c, 1, 59, 58
4, 452, Note_on_c, 1, 59, 0
4, 480, Note_on_c, 1, 55, 58
4, 500, Note_on_c, 1, 55, 0
4, 528, Note_on_c, 1, 52, 58
4, 548, Note_on_c, 1, 52, 0
4, 576, Note_on_c, 1, 46, 58
4, 596, Note_on_c, 1, 46, 0
4, 624, Note_on_c, 1, 49, 58
4, 644, Note_on_c, 1, 49, 0
4, 672, Note_on_c, 1, 52, 58
4, 692, Note_on_c, 1, 52, 0
4, 720, Note_on_c, 1, 55, 58
4, 740, Note_on_c, 1, 55, 0
4, 768, Note_on_c, 1, 52, 58
4, 788, Note_on_c, 1, 52, 0
4, 816, Note_on_c, 1, 49, 58
4, 836, Note_on_c, 1, 49, 0
4, 864, Note_on_c, 1, 47, 58
4, 884, Note_on_c, 1, 47, 0
4, 912, Note_on_c, 1, 50, 58
4, 932, Note_on_c, 1, 50, 0
4, 960, Note_on_c, 1, 54, 58
4, 980, Note_on_c, 1, 54, 0
4, 1008, Note_on_c, 1, 59, 58
4, 1028, Note_on_c, 1, 59, 0
4, 1056, Note_on_c, 1, 54, 58
4, 1076, Note_on_c, 1, 54, 0
4, 1104, Note_on_c, 1, 50, 58
4, 1124, Note_on_c, 1, 50, 0
4, 1152, Note_on_c, 1, 72, 80
4, 1152, Note_on_c, 1, 67, 80
4, 1152, Note_on_c, 1, 64, 80
4, 1152, Note_on_c, 1, 60, 80
4, 1152, Note_on_c, 1, 48, 80
4, 1248, Note_on_c, 1, 72, 0
4, 1248, Note_on_c, 1, 67, 0
4, 1248, Note_on_c, 1, 64, 0
4, 1248, Note_on_c, 1, 60, 0
4, 1248, Note_on_c, 1, 48, 0
4, 1296, Note_on_c, 1, 52, 64
4, 1296, Note_on_c, 1, 40, 64
4, 1344, Note_on_c, 1, 52, 0
4, 1344, Note_on_c, 1, 40, 0
4, 1344, Note_on_c, 1, 50, 64
4, 1344, Note_on_c, 1, 38, 64
4, 1433, Note_on_c, 1, 50, 0
4, 1433, Note_on_c, 1, 38, 0
4, 1440, Note_on_c, 1, 65, 64
4, 1440, Note_on_c, 1, 62, 64
4, 1440, Note_on_c, 1, 58, 64
4, 1529, Note_on_c, 1, 65, 0
4, 1529, Note_on_c, 1, 62, 0
4, 1529, Note_on_c, 1, 58, 0
4, 1584, Note_on_c, 1, 64, 64
4, 1584, Note_on_c, 1, 62, 64
4, 1632, Note_on_c, 1, 62, 0
4, 1632, Note_on_c, 1, 60, 64
4, 1721, Note_on_c, 1, 64, 0
4, 1721, Note_on_c, 1, 60, 0
4, 1728, Note_on_c, 1, 51, 64
4, 1773, Note_on_c, 1, 51, 0
4, 1776, Note_on_c, 1, 63, 64
4, 1821, Note_on_c, 1, 63, 0
4, 1872, Note_on_c, 1, 64, 64
4, 1917, Note_on_c, 1, 64, 0
4, 1968, Note_on_c, 1, 65, 64
4, 2013, Note_on_c, 1, 65, 0
4, 2064, Note_on_c, 1, 66, 64
4, 2109, Note_on_c, 1, 66, 0
4, 2112, Note_on_c, 1, 54, 62
4, 2157, Note_on_c, 1, 54, 0
4, 2160, Note_on_c, 1, 55, 61
4, 2160, Note_on_c, 1, 52, 61
4, 2205, Note_on_c, 1, 55, 0
4, 2205, Note_on_c, 1, 52, 0
4, 2208, Note_on_c, 1, 54, 60
4, 2208, Note_on_c, 1, 50, 60
4, 2253, Note_on_c, 1, 54, 0
4, 2253, Note_on_c, 1, 50, 0
4, 2256, Note_on_c, 1, 52, 59
4, 2256, Note_on_c, 1, 49, 59
4, 2301, Note_on_c, 1, 52, 0
4, 2301, Note_on_c, 1, 49, 0
4, 2304, Note_on_c, 1, 50, 58
4, 2304, Note_on_c, 1, 47, 58
4, 2393, Note_on_c, 1, 50, 0
4, 2393, Note_on_c, 1, 47, 0
4, 2400, Note_on_c, 1, 50, 58
4, 2400, Note_on_c, 1, 47, 58
4, 2489, Note_on_c, 1, 50, 0
4, 2489, Note_on_c, 1, 47, 0
4, 2496, Note_on_c, 1, 50, 58
4, 2496, Note_on_c, 1, 44, 58
4, 2544, Note_on_c, 1, 50, 0
4, 2544, Note_on_c, 1, 44, 0
4, 2544, Note_on_c, 1, 48, 58
4, 2544, Note_on_c, 1, 45, 58
4, 2589, Note_on_c, 1, 48, 0
4, 2589, Note_on_c, 1, 45, 0
4, 2592, Note_on_c, 1, 45, 58
4, 2592, Note_on_c, 1, 42, 58
4, 2681, Note_on_c, 1, 45, 0
4, 2681, Note_on_c, 1, 42, 0
4, 2688, Note_on_c, 1, 45, 58
4, 2688, Note_on_c, 1, 42, 58
4, 2777, Note_on_c, 1, 45, 0
4, 2777, Note_on_c, 1, 42, 0
4, 2784, Note_on_c, 1, 43, 58
4, 2873, Note_on_c, 1, 43, 0
4, 2880, Note_on_c, 1, 59, 58
4, 2880, Note_on_c, 1, 55, 58
4, 2880, Note_on_c, 1, 43, 58
4, 2969, Note_on_c, 1, 59, 0
4, 2969, Note_on_c, 1, 55, 0
4, 2969, Note_on_c, 1, 43, 0
4, 2976, Note_on_c, 1, 44, 74
4, 3072, Note_on_c, 1, 44, 0
4, 3072, Note_on_c, 1, 52, 58
4, 3072, Note_on_c, 1, 45, 58
4, 3117, Note_on_c, 1, 52, 0
4, 3117, Note_on_c, 1, 45, 0
4, 3120, Note_on_c, 1, 33, 58
4, 3165, Note_on_c, 1, 33, 0
4, 3216, Note_on_c, 1, 49, 58
4, 3264, Note_on_c, 1, 49, 0
4, 3264, Note_on_c, 1, 50, 58
4, 3309, Note_on_c, 1, 50, 0
4, 3312, Note_on_c, 1, 45, 58
4, 3357, Note_on_c, 1, 45, 0
4, 3360, Note_on_c, 1, 38, 58
4, 3427, Note_on_c, 1, 38, 0
4, 3456, Note_on_c, 1, 47, 58
4, 3476, Note_on_c, 1, 47, 0
4, 3504, Note_on_c, 1, 50, 58
4, 3524, Note_on_c, 1, 50, 0
4, 3552, Note_on_c, 1, 54, 58
4, 3572, Note_on_c, 1, 54, 0
4, 3600, Note_on_c, 1, 59, 58
4, 3620, Note_on_c, 1, 59, 0
4, 3648, Note_on_c, 1, 54, 58
4, 3668, Note_on_c, 1, 54, 0
4, 3696, Note_on_c, 1, 50, 58
4, 3716, Note_on_c, 1, 50, 0
4, 3744, Note_on_c, 1, 47, 58
4, 3764, Note_on_c, 1, 47, 0
4, 3792, Note_on_c, 1, 52, 58
4, 3812, Note_on_c, 1, 52, 0
4, 3840, Note_on_c, 1, 55, 58
4, 3860, Note_on_c, 1, 55, 0
4, 3888, Note_on_c, 1, 59, 58
4, 3908, Note_on_c, 1, 59, 0
4, 3936, Note_on_c, 1, 55, 58
4, 3956, Note_on_c, 1, 55, 0
4, 3984, Note_on_c, 1, 52, 58
4, 4004, Note_on_c, 1, 52, 0
4, 4032, Note_on_c, 1, 46, 58
4, 4052, Note_on_c, 1, 46, 0
4, 4080, Note_on_c, 1, 49, 58
4, 4100, Note_on_c, 1, 49, 0
4, 4128, Note_on_c, 1, 52, 58
4, 4148, Note_on_c, 1, 52, 0
4, 4176, Note_on_c, 1, 55, 58
4, 4196, Note_on_c, 1, 55, 0
4, 4224, Note_on_c, 1, 52, 58
4, 4244, Note_on_c, 1, 52, 0
4, 4272, Note_on_c, 1, 49, 58
4, 4292, Note_on_c, 1, 49, 0
4, 4320, Note_on_c, 1, 47, 58
4, 4340, Note_on_c, 1, 47, 0
4, 4368, Note_on_c, 1, 50, 58
4, 4388, Note_on_c, 1, 50, 0
4, 4416, Note_on_c, 1, 54, 58
4, 4436, Note_on_c, 1, 54, 0
4, 4464, Note_on_c, 1, 59, 58
4, 4484, Note_on_c, 1, 59, 0
4, 4512, Note_on_c, 1, 54, 58
4, 4532, Note_on_c, 1, 54, 0
4, 4560, Note_on_c, 1, 50, 58
4, 4580, Note_on_c, 1, 50, 0
4, 4608, Note_on_c, 1, 72, 80
4, 4608, Note_on_c, 1, 67, 80
4, 4608, Note_on_c, 1, 64, 80
4, 4608, Note_on_c, 1, 60, 80
4, 4608, Note_on_c, 1, 48, 80
4, 4704, Note_on_c, 1, 72, 0
4, 4704, Note_on_c, 1, 67, 0
4, 4704, Note_on_c, 1, 64, 0
4, 4704, Note_on_c, 1, 60, 0
4, 4704, Note_on_c, 1, 48, 0
4, 4752, Note_on_c, 1, 52, 64
4, 4752, Note_on_c, 1, 40, 64
4, 4800, Note_on_c, 1, 52, 0
4, 4800, Note_on_c, 1, 40, 0
4, 4800, Note_on_c, 1, 50, 64
4, 4800, Note_on_c, 1, 38, 64
4, 4889, Note_on_c, 1, 50, 0
4, 4889, Note_on_c, 1, 38, 0
4, 4896, Note_on_c, 1, 65, 64
4, 4896, Note_on_c, 1, 62, 64
4, 4896, Note_on_c, 1, 58, 64
4, 4985, Note_on_c, 1, 65, 0
4, 4985, Note_on_c, 1, 62, 0
4, 4985, Note_on_c, 1, 58, 0
4, 5040, Note_on_c, 1, 64, 64
4, 5040, Note_on_c, 1, 62, 64
4, 5088, Note_on_c, 1, 62, 0
4, 5088, Note_on_c, 1, 60, 64
4, 5177, Note_on_c, 1, 64, 0
4, 5177, Note_on_c, 1, 60, 0
4, 5184, Note_on_c, 1, 51, 64
4, 5229, Note_on_c, 1, 51, 0
4, 5232, Note_on_c, 1, 63, 64
4, 5277, Note_on_c, 1, 63, 0
4, 5328, Note_on_c, 1, 64, 64
4, 5373, Note_on_c, 1, 64, 0
4, 5424, Note_on_c, 1, 65, 64
4, 5469, Note_on_c, 1, 65, 0
4, 5520, Note_on_c, 1, 66, 64
4, 5565, Note_on_c, 1, 66, 0
4, 5568, Note_on_c, 1, 54, 62
4, 5613, Note_on_c, 1, 54, 0
4, 5616, Note_on_c, 1, 55, 61
4, 5616, Note_on_c, 1, 52, 61
4, 5661, Note_on_c, 1, 55, 0
4, 5661, Note_on_c, 1, 52, 0
4, 5664, Note_on_c, 1, 54, 60
4, 5664, Note_on_c, 1, 50, 60
4, 5709, Note_on_c, 1, 54, 0
4, 5709, Note_on_c, 1, 50, 0
4, 5712, Note_on_c, 1, 52, 59
4, 5712, Note_on_c, 1, 49, 59
4, 5757, Note_on_c, 1, 52, 0
4, 5757, Note_on_c, 1, 49, 0
4, 5760, Note_on_c, 1, 50, 58
4, 5760, Note_on_c, 1, 47, 58
4, 5849, Note_on_c, 1, 50, 0
4, 5849, Note_on_c, 1, 47, 0
4, 5856, Note_on_c, 1, 50, 58
4, 5856, Note_on_c, 1, 47, 58
4, 5945, Note_on_c, 1, 50, 0
4, 5945, Note_on_c, 1, 47, 0
4, 5952, Note_on_c, 1, 50, 58
4, 5952, Note_on_c, 1, 44, 58
4, 6000, Note_on_c, 1, 50, 0
4, 6000, Note_on_c, 1, 44, 0
4, 6000, Note_on_c, 1, 48, 58
4, 6000, Note_on_c, 1, 45, 58
4, 6045, Note_on_c, 1, 48, 0
4, 6045, Note_on_c, 1, 45, 0
4, 6048, Note_on_c, 1, 45, 58
4, 6048, Note_on_c, 1, 42, 58
4, 6137, Note_on_c, 1, 45, 0
4, 6137, Note_on_c, 1, 42, 0
4, 6144, Note_on_c, 1, 45, 58
4, 6144, Note_on_c, 1, 42, 58
4, 6233, Note_on_c, 1, 45, 0
4, 6233, Note_on_c, 1, 42, 0
4, 6240, Note_on_c, 1, 43, 58
4, 6329, Note_on_c, 1, 43, 0
4, 6336, Note_on_c, 1, 59, 58
4, 6336, Note_on_c, 1, 55, 58
4, 6336, Note_on_c, 1, 43, 58
4, 6425, Note_on_c, 1, 59, 0
4, 6425, Note_on_c, 1, 55, 0
4, 6425, Note_on_c, 1, 43, 0
4, 6432, Note_on_c, 1, 44, 74
4, 6528, Note_on_c, 1, 44, 0
4, 6528, Note_on_c, 1, 52, 58
4, 6528, Note_on_c, 1, 45, 58
4, 6573, Note_on_c, 1, 52, 0
4, 6573, Note_on_c, 1, 45, 0
4, 6576, Note_on_c, 1, 33, 58
4, 6621, Note_on_c, 1, 33, 0
4, 6672, Note_on_c, 1, 49, 58
4, 6720, Note_on_c, 1, 49, 0
4, 6720, Note_on_c, 1, 50, 58
4, 6765, Note_on_c, 1, 50, 0
4, 6768, Note_on_c, 1, 45, 58
4, 6813, Note_on_c, 1, 45, 0
4, 6816, Note_on_c, 1, 38, 58
4, 6883, Note_on_c, 1, 38, 0
4, 6912, Note_on_c, 1, 62, 64
4, 6932, Note_on_c, 1, 62, 0
4, 6960, Note_on_c, 1, 66, 64
4, 6980, Note_on_c, 1, 66, 0
4, 7008, Note_on_c, 1, 69, 64
4, 7028, Note_on_c, 1, 69, 0
4, 7056, Note_on_c, 1, 74, 64
4, 7076, Note_on_c, 1, 74, 0
4, 7104, Note_on_c, 1, 69, 64
4, 7124, Note_on_c, 1, 69, 0
4, 7152, Note_on_c, 1, 66, 64
4, 7172, Note_on_c, 1, 66, 0
4, 7200, Note_on_c, 1, 61, 64
4, 7333, Note_on_c, 1, 61, 0
4, 7344, Note_on_c, 1, 71, 64
4, 7344, Note_on_c, 1, 67, 64
4, 7389, Note_on_c, 1, 71, 0
4, 7389, Note_on_c, 1, 67, 0
4, 7392, Note_on_c, 1, 69, 64
4, 7392, Note_on_c, 1, 66, 64
4, 7437, Note_on_c, 1, 69, 0
4, 7437, Note_on_c, 1, 66, 0
4, 7440, Note_on_c, 1, 67, 64
4, 7440, Note_on_c, 1, 64, 64
4, 7485, Note_on_c, 1, 67, 0
4, 7485, Note_on_c, 1, 64, 0
4, 7488, Note_on_c, 1, 66, 64
4, 7508, Note_on_c, 1, 66, 0
4, 7584, Note_on_c, 1, 67, 64
4, 7604, Note_on_c, 1, 67, 0
4, 7680, Note_on_c, 1, 55, 64
4, 7700, Note_on_c, 1, 55, 0
4, 7776, Note_on_c, 1, 57, 64
4, 7917, Note_on_c, 1, 57, 0
4, 8064, Note_on_c, 1, 79, 64
4, 8064, Note_on_c, 1, 76, 64
4, 8109, Note_on_c, 1, 79, 0
4, 8109, Note_on_c, 1, 76, 0
4, 8112, Note_on_c, 1, 77, 64
4, 8112, Note_on_c, 1, 74, 64
4, 8157, Note_on_c, 1, 77, 0
4, 8157, Note_on_c, 1, 74, 0
4, 8160, Note_on_c, 1, 76, 64
4, 8160, Note_on_c, 1, 73, 64
4, 8205, Note_on_c, 1, 76, 0
4, 8205, Note_on_c, 1, 73, 0
4, 8208, Note_on_c, 1, 74, 64
4, 8208, Note_on_c, 1, 71, 64
4, 8253, Note_on_c, 1, 74, 0
4, 8253, Note_on_c, 1, 71, 0
4, 8256, Note_on_c, 1, 76, 64
4, 8256, Note_on_c, 1, 73, 64
4, 8301, Note_on_c, 1, 76, 0
4, 8301, Note_on_c, 1, 73, 0
4, 8352, Note_on_c, 1, 67, 64
4, 8352, Note_on_c, 1, 64, 64
4, 8400, Note_on_c, 1, 67, 0
4, 8400, Note_on_c, 1, 64, 0
4, 8400, Note_on_c, 1, 66, 64
4, 8447, Note_on_c, 1, 66, 0
4, 8616, Note_on_c, 1, 53, 64
4, 8640, Note_on_c, 1, 53, 0
4, 8640, Note_on_c, 1, 54, 64
4, 8663, Note_on_c, 1, 54, 0
4, 8664, Note_on_c, 1, 54, 75
4, 8664, Note_on_c, 1, 42, 75
4, 8687, Note_on_c, 1, 54, 0
4, 8687, Note_on_c, 1, 42, 0
4, 8688, Note_on_c, 1, 55, 75
4, 8688, Note_on_c, 1, 43, 75
4, 8711, Note_on_c, 1, 55, 0
4, 8711, Note_on_c, 1, 43, 0
4, 8712, Note_on_c, 1, 56, 75
4, 8712, Note_on_c, 1, 44, 75
4, 8735, Note_on_c, 1, 56, 0
4, 8735, Note_on_c, 1, 44, 0
4, 8736, Note_on_c, 1, 57, 75
4, 8736, Note_on_c, 1, 45, 75
4, 8825, Note_on_c, 1, 57, 0
4, 8825, Note_on_c, 1, 45, 0
4, 8952, Note_on_c, 1, 45, 62
4, 8975, Note_on_c, 1, 45, 0
4, 8976, Note_on_c, 1, 47, 61
4, 8999, Note_on_c, 1, 47, 0
4, 9000, Note_on_c, 1, 49, 59
4, 9023, Note_on_c, 1, 49, 0
4, 9024, Note_on_c, 1, 50, 58
4, 9157, Note_on_c, 1, 50, 0
4, 9216, Note_on_c, 1, 62, 64
4, 9236, Note_on_c, 1, 62, 0
4, 9264, Note_on_c, 1, 66, 64
4, 9284, Note_on_c, 1, 66, 0
4, 9312, Note_on_c, 1, 69, 64
4, 9332, Note_on_c, 1, 69, 0
4, 9360, Note_on_c, 1, 74, 64
4, 9380, Note_on_c, 1, 74, 0
4, 9408, Note_on_c, 1, 69, 64
4, 9428, Note_on_c, 1, 69, 0
4, 9456, Note_on_c, 1, 66, 64
4, 9476, Note_on_c, 1, 66, 0
4, 9504, Note_on_c, 1, 61, 64
4, 9637, Note_on_c, 1, 61, 0
4, 9648, Note_on_c, 1, 71, 64
4, 9648, Note_on_c, 1, 67, 64
4, 9693, Note_on_c, 1, 71, 0
4, 9693, Note_on_c, 1, 67, 0
4, 9696, Note_on_c, 1, 69, 64
4, 9696, Note_on_c, 1, 66, 64
4, 9741, Note_on_c, 1, 69, 0
4, 9741, Note_on_c, 1, 66, 0
4, 9744, Note_on_c, 1, 67, 64
4, 9744, Note_on_c, 1, 64, 64
4, 9789, Note_on_c, 1, 67, 0
4, 9789, Note_on_c, 1, 64, 0
4, 9792, Note_on_c, 1, 66, 64
4, 9812, Note_on_c, 1, 66, 0
4, 9888, Note_on_c, 1, 67, 64
4, 9908, Note_on_c, 1, 67, 0
4, 9984, Note_on_c, 1, 55, 64
4, 10004, Note_on_c, 1, 55, 0
4, 10080, Note_on_c, 1, 57, 64
4, 10221, Note_on_c, 1, 57, 0
4, 10368, Note_on_c, 1, 79, 64
4, 10368, Note_on_c, 1, 76, 64
4, 10413, Note_on_c, 1, 79, 0
4, 10413, Note_on_c, 1, 76, 0
4, 10416, Note_on_c, 1, 77, 64
4, 10416, Note_on_c, 1, 74, 64
4, 10461, Note_on_c, 1, 77, 0
4, 10461, Note_on_c, 1, 74, 0
4, 10464, Note_on_c, 1, 76, 64
4, 10464, Note_on_c, 1, 73, 64
4, 10509, Note_on_c, 1, 76, 0
4, 10509, Note_on_c, 1, 73, 0
4, 10512, Note_on_c, 1, 74, 64
4, 10512, Note_on_c, 1, 71, 64
4, 10557, Note_on_c, 1, 74, 0
4, 10557, Note_on_c, 1, 71, 0
4, 10560, Note_on_c, 1, 76, 64
4, 10560, Note_on_c, 1, 73, 64
4, 10605, Note_on_c, 1, 76, 0
4, 10605, Note_on_c, 1, 73, 0
4, 10656, Note_on_c, 1, 67, 64
4, 10656, Note_on_c, 1, 64, 64
4, 10704, Note_on_c, 1, 67, 0
4, 10704, Note_on_c, 1, 64, 0
4, 10704, Note_on_c, 1, 66, 64
4, 10751, Note_on_c, 1, 66, 0
4, 10920, Note_on_c, 1, 53, 64
4, 10944, Note_on_c, 1, 53, 0
4, 10944, Note_on_c, 1, 54, 64
4, 10967, Note_on_c, 1, 54, 0
4, 10968, Note_on_c, 1, 54, 75
4, 10968, Note_on_c, 1, 42, 75
4, 10991, Note_on_c, 1, 54, 0
4, 10991, Note_on_c, 1, 42, 0
4, 10992, Note_on_c, 1, 55, 75
4, 10992, Note_on_c, 1, 43, 75
4, 11015, Note_on_c, 1, 55, 0
4, 11015, Note_on_c, 1, 43, 0
4, 11016, Note_on_c, 1, 56, 75
4, 11016, Note_on_c, 1, 44, 75
4, 11039, Note_on_c, 1, 56, 0
4, 11039, Note_on_c, 1, 44, 0
4, 11040, Note_on_c, 1, 57, 75
4, 11040, Note_on_c, 1, 45, 75
4, 11129, Note_on_c, 1, 57, 0
4, 11129, Note_on_c, 1, 45, 0
4, 11256, Note_on_c, 1, 45, 62
4, 11279, Note_on_c, 1, 45, 0
4, 11280, Note_on_c, 1, 47, 61
4, 11303, Note_on_c, 1, 47, 0
4, 11304, Note_on_c, 1, 49, 59
4, 11327, Note_on_c, 1, 49, 0
4, 11328, Note_on_c, 1, 50, 58
4, 11461, Note_on_c, 1, 50, 0
4, 11544, Note_on_c, 1, 51, 64
4, 11568, Note_on_c, 1, 51, 0
4, 11568, Note_on_c, 1, 52, 64
4, 11591, Note_on_c, 1, 52, 0
4, 11832, Note_on_c, 1, 53, 70
4, 11856, Note_on_c, 1, 53, 0
4, 11856, Note_on_c, 1, 54, 70
4, 11879, Note_on_c, 1, 54, 0
4, 12120, Note_on_c, 1, 58, 75
4, 12144, Note_on_c, 1, 58, 0
4, 12144, Note_on_c, 1, 59, 75
4, 12167, Note_on_c, 1, 59, 0
4, 12384, Note_on_c, 1, 48, 80
4, 12455, Note_on_c, 1, 48, 0
4, 12456, Note_on_c, 1, 52, 80
4, 12456, Note_on_c, 1, 40, 80
4, 12479, Note_on_c, 1, 52, 0
4, 12479, Note_on_c, 1, 40, 0
4, 12480, Note_on_c, 1, 52, 80
4, 12480, Note_on_c, 1, 40, 80
4, 12504, Note_on_c, 1, 52, 0
4, 12504, Note_on_c, 1, 40, 0
4, 12504, Note_on_c, 1, 55, 80
4, 12504, Note_on_c, 1, 43, 80
4, 12527, Note_on_c, 1, 55, 0
4, 12527, Note_on_c, 1, 43, 0
4, 12528, Note_on_c, 1, 55, 80
4, 12528, Note_on_c, 1, 43, 80
4, 12552, Note_on_c, 1, 55, 0
4, 12552, Note_on_c, 1, 43, 0
4, 12552, Note_on_c, 1, 60, 80
4, 12552, Note_on_c, 1, 48, 80
4, 12575, Note_on_c, 1, 60, 0
4, 12575, Note_on_c, 1, 48, 0
4, 12576, Note_on_c, 1, 60, 80
4, 12576, Note_on_c, 1, 48, 80
4, 12600, Note_on_c, 1, 60, 0
4, 12600, Note_on_c, 1, 48, 0
4, 12600, Note_on_c, 1, 55, 80
4, 12600, Note_on_c, 1, 43, 80
4, 12623, Note_on_c, 1, 55, 0
4, 12623, Note_on_c, 1, 43, 0
4, 12624, Note_on_c, 1, 60, 80
4, 12624, Note_on_c, 1, 48, 80
4, 12648, Note_on_c, 1, 60, 0
4, 12648, Note_on_c, 1, 48, 0
4, 12648, Note_on_c, 1, 64, 80
4, 12648, Note_on_c, 1, 52, 80
4, 12671, Note_on_c, 1, 64, 0
4, 12671, Note_on_c, 1, 52, 0
4, 12672, Control_c, 1, 64, 0
4, 12672, Note_on_c, 1, 65, 80
4, 12672, Note_on_c, 1, 62, 80
4, 12672, Note_on_c, 1, 59, 80
4, 12672, Note_on_c, 1, 55, 80
4, 12672, Note_on_c, 1, 50, 80
4, 12901, Note_on_c, 1, 65, 0
4, 12901, Note_on_c, 1, 62, 0
4, 12901, Note_on_c, 1, 59, 0
4, 12901, Note_on_c, 1, 55, 0
4, 12901, Note_on_c, 1, 50, 0
4, 12960, Note_on_c, 1, 65, 86
4, 13038, Note_on_c, 1, 65, 0
4, 13038, Note_on_c, 1, 64, 70
4, 13044, Note_on_c, 1, 64, 0
4, 13044, Note_on_c, 1, 62, 70
4, 13050, Note_on_c, 1, 62, 0
4, 13050, Note_on_c, 1, 60, 70
4, 13056, Note_on_c, 1, 60, 0
4, 13056, Note_on_c, 1, 59, 70
4, 13189, Note_on_c, 1, 59, 0
4, 13248, Note_on_c, 1, 66, 70
4, 13248, Note_on_c, 1, 63, 70
4, 13425, Note_on_c, 1, 66, 0
4, 13425, Note_on_c, 1, 63, 0
4, 13536, Note_on_c, 1, 75, 70
4, 13584, Note_on_c, 1, 75, 0
4, 13584, Note_on_c, 1, 76, 68
4, 13632, Note_on_c, 1, 76, 0
4, 13632, Note_on_c, 1, 77, 67
4, 13680, Note_on_c, 1, 77, 0
4, 13680, Note_on_c, 1, 78, 66
4, 13774, Note_on_c, 1, 78, 0
4, 13824, Note_on_c, 1, 59, 58
4, 13844, Note_on_c, 1, 59, 0
4, 13872, Note_on_c, 1, 62, 58
4, 13892, Note_on_c, 1, 62, 0
4, 13920, Note_on_c, 1, 66, 58
4, 13940, Note_on_c, 1, 66, 0
4, 13968, Note_on_c, 1, 71, 58
4, 13988, Note_on_c, 1, 71, 0
4, 14016, Note_on_c, 1, 66, 58
4, 14036, Note_on_c, 1, 66, 0
4, 14064, Note_on_c, 1, 62, 58
4, 14084, Note_on_c, 1, 62, 0
4, 14112, Note_on_c, 1, 59, 58
4, 14132, Note_on_c, 1, 59, 0
4, 14160, Note_on_c, 1, 64, 58
4, 14180, Note_on_c, 1, 64, 0
4, 14208, Note_on_c, 1, 67, 58
4, 14228, Note_on_c, 1, 67, 0
4, 14256, Note_on_c, 1, 71, 58
4, 14276, Note_on_c, 1, 71, 0
4, 14304, Note_on_c, 1, 67, 58
4, 14324, Note_on_c, 1, 67, 0
4, 14352, Note_on_c, 1, 64, 58
4, 14372, Note_on_c, 1, 64, 0
4, 14400, Note_on_c, 1, 58, 58
4, 14489, Note_on_c, 1, 58, 0
4, 14688, Note_on_c, 1, 47, 58
4, 14708, Note_on_c, 1, 47, 0
4, 14736, Note_on_c, 1, 50, 58
4, 14756, Note_on_c, 1, 50, 0
4, 14784, Note_on_c, 1, 54, 58
4, 14804, Note_on_c, 1, 54, 0
4, 14832, Note_on_c, 1, 59, 58
4, 14852, Note_on_c, 1, 59, 0
4, 14880, Note_on_c, 1, 54, 58
4, 14900, Note_on_c, 1, 54, 0
4, 14928, Note_on_c, 1, 50, 58
4, 14948, Note_on_c, 1, 50, 0
4, 15024, Note_on_c, 1, 52, 58
4, 15069, Note_on_c, 1, 52, 0
4, 15072, Note_on_c, 1, 40, 58
4, 15161, Note_on_c, 1, 40, 0
4, 15264, Note_on_c, 1, 53, 58
4, 15264, Note_on_c, 1, 50, 58
4, 15284, Note_on_c, 1, 53, 0
4, 15284, Note_on_c, 1, 50, 0
4, 15312, Note_on_c, 1, 53, 58
4, 15312, Note_on_c, 1, 50, 58
4, 15332, Note_on_c, 1, 53, 0
4, 15332, Note_on_c, 1, 50, 0
4, 15360, Note_on_c, 1, 53, 58
4, 15360, Note_on_c, 1, 50, 58
4, 15380, Note_on_c, 1, 53, 0
4, 15380, Note_on_c, 1, 50, 0
4, 15408, Note_on_c, 1, 53, 58
4, 15408, Note_on_c, 1, 50, 58
4, 15428, Note_on_c, 1, 53, 0
4, 15428, Note_on_c, 1, 50, 0
4, 15456, Note_on_c, 1, 52, 58
4, 15456, Note_on_c, 1, 50, 58
4, 15501, Note_on_c, 1, 52, 0
4, 15501, Note_on_c, 1, 50, 0
4, 15504, Note_on_c, 1, 52, 58
4, 15504, Note_on_c, 1, 48, 58
4, 15549, Note_on_c, 1, 52, 0
4, 15549, Note_on_c, 1, 48, 0
4, 15552, Note_on_c, 1, 39, 70
4, 15597, Note_on_c, 1, 39, 0
4, 15600, Note_on_c, 1, 51, 70
4, 15645, Note_on_c, 1, 51, 0
4, 15696, Note_on_c, 1, 52, 70
4, 15741, Note_on_c, 1, 52, 0
4, 15792, Note_on_c, 1, 53, 70
4, 15837, Note_on_c, 1, 53, 0
4, 15840, Note_on_c, 1, 54, 70
4, 15929, Note_on_c, 1, 54, 0
4, 15936, Note_on_c, 1, 42, 70
4, 16069, Note_on_c, 1, 42, 0
4, 16128, Note_on_c, 1, 35, 58
4, 16148, Note_on_c, 1, 35, 0
4, 16176, Note_on_c, 1, 38, 58
4, 16196, Note_on_c, 1, 38, 0
4, 16224, Note_on_c, 1, 42, 58
4, 16244, Note_on_c, 1, 42, 0
4, 16272, Note_on_c, 1, 47, 58
4, 16292, Note_on_c, 1, 47, 0
4, 16320, Note_on_c, 1, 42, 58
4, 16340, Note_on_c, 1, 42, 0
4, 16368, Note_on_c, 1, 38, 58
4, 16388, Note_on_c, 1, 38, 0
4, 16416, Note_on_c, 1, 35, 58
4, 16436, Note_on_c, 1, 35, 0
4, 16464, Note_on_c, 1, 40, 58
4, 16484, Note_on_c, 1, 40, 0
4, 16512, Note_on_c, 1, 43, 58
4, 16532, Note_on_c, 1, 43, 0
4, 16560, Note_on_c, 1, 47, 58
4, 16580, Note_on_c, 1, 47, 0
4, 16608, Note_on_c, 1, 43, 58
4, 16628, Note_on_c, 1, 43, 0
4, 16656, Note_on_c, 1, 40, 58
4, 16676, Note_on_c, 1, 40, 0
4, 16704, Note_on_c, 1, 52, 58
4, 16724, Note_on_c, 1, 52, 0
4, 16752, Note_on_c, 1, 52, 58
4, 16772, Note_on_c, 1, 52, 0
4, 16800, Note_on_c, 1, 40, 58
4, 16820, Note_on_c, 1, 40, 0
4, 16848, Note_on_c, 1, 40, 58
4, 16868, Note_on_c, 1, 40, 0
4, 16896, Note_on_c, 1, 42, 58
4, 16916, Note_on_c, 1, 42, 0
4, 16944, Note_on_c, 1, 42, 58
4, 16964, Note_on_c, 1, 42, 0
4, 16992, Control_c, 1, 64, 127
4, 16992, Note_on_c, 1, 47, 58
4, 17037, Note_on_c, 1, 47, 0
4, 17040, Note_on_c, 1, 47, 58
4, 17085, Note_on_c, 1, 47, 0
4, 17088, Note_on_c, 1, 47, 58
4, 17133, Note_on_c, 1, 47, 0
4, 17136, Note_on_c, 1, 47, 58
4, 17181, Note_on_c, 1, 47, 0
4, 17184, Note_on_c, 1, 47, 58
4, 17229, Note_on_c, 1, 47, 0
4, 17232, Note_on_c, 1, 47, 58
4, 17277, Note_on_c, 1, 47, 0
4, 17280, Note_on_c, 1, 47, 58
4, 17325, Note_on_c, 1, 47, 0
4, 17328, Note_on_c, 1, 47, 58
4, 17373, Note_on_c, 1, 47, 0
4, 17376, Note_on_c, 1, 47, 58
4, 17421, Note_on_c, 1, 47, 0
4, 17424, Note_on_c, 1, 47, 58
4, 17469, Note_on_c, 1, 47, 0
4, 17472, Note_on_c, 1, 47, 58
4, 17517, Note_on_c, 1, 47, 0
4, 17520, Note_on_c, 1, 47, 58
4, 17565, Note_on_c, 1, 47, 0
4, 17568, Note_on_c, 1, 35, 58
4, 17613, Note_on_c, 1, 35, 0
4, 17616, Note_on_c, 1, 35, 58
4, 17661, Note_on_c, 1, 35, 0
4, 17664, Note_on_c, 1, 35, 58
4, 17709, Note_on_c, 1, 35, 0
4, 17712, Note_on_c, 1, 35, 58
4, 17757, Note_on_c, 1, 35, 0
4, 17760, Note_on_c, 1, 35, 58
4, 17805, Note_on_c, 1, 35, 0
4, 17808, Note_on_c, 1, 35, 58
4, 17853, Note_on_c, 1, 35, 0
4, 17856, Note_on_c, 1, 35, 58
4, 18133, Note_on_c, 1, 35, 0
4, 18144, Control_c, 1, 64, 0
4, 18144, Note_on_c, 1, 35, 0
4, 18189, Note_on_c, 1, 35, 0
4, 18192, End_track
5, 0, Start_track
5, 0, Program_c, 1, 0
5, 0, Control_c, 1, 7, 127
5, 0, Control_c, 1, 10, 64
5, 18144, End_track
6, 0, Start_track
6, 0, Title_t, "Sonata I   Haydn  "
6, 0, End_track
0, 0, End_of_file
