0, 0, Header, 1, 4, 96
1, 0, Start_track
1, 0, Copyright_t, "Copyright  1994-2002 Mozart Music Software"
1, 0, Sequencer_specific, 16, 68, 87, 77, 90, 86, 82, 83, 78, 32, 55, 46, 48, 46, 55, 46, 48
1, 0, Time_signature, 3, 2, 24, 8
1, 0, Tempo, 120000
1, 0, Key_signature, 0, "major"
1, 288, Tempo, 468750
1, 2592, Tempo, 468750
1, 9504, Key_signature, -2, "major"
1, 11808, Key_signature, -2, "major"
1, 21024, Key_signature, 0, "major"
1, 23328, Key_signature, 0, "major"
1, 30528, End_track
2, 0, Start_track
2, 0, Program_c, 0, 0
2, 0, Control_c, 0, 7, 127
2, 0, Control_c, 0, 10, 64
2, 288, Note_on_c, 0, 72, 81
2, 377, Note_on_c, 0, 72, 0
2, 384, Note_on_c, 0, 84, 81
2, 473, Note_on_c, 0, 84, 0
2, 480, Note_on_c, 0, 76, 81
2, 547, Note_on_c, 0, 76, 0
2, 552, Note_on_c, 0, 79, 81
2, 575, Note_on_c, 0, 79, 0
2, 576, Note_on_c, 0, 77, 81
2, 665, Note_on_c, 0, 77, 0
2, 672, Note_on_c, 0, 74, 81
2, 761, Note_on_c, 0, 74, 0
2, 768, Note_on_c, 0, 74, 81
2, 835, Note_on_c, 0, 74, 0
2, 840, Note_on_c, 0, 77, 81
2, 863, Note_on_c, 0, 77, 0
2, 864, Note_on_c, 0, 76, 81
2, 953, Note_on_c, 0, 76, 0
2, 960, Note_on_c, 0, 72, 81
2, 1049, Note_on_c, 0, 72, 0
2, 1056, Note_on_c, 0, 69, 81
2, 1123, Note_on_c, 0, 69, 0
2, 1128, Note_on_c, 0, 74, 81
2, 1151, Note_on_c, 0, 74, 0
2, 1152, Note_on_c, 0, 72, 81
2, 1241, Note_on_c, 0, 72, 0
2, 1248, Note_on_c, 0, 71, 81
2, 1337, Note_on_c, 0, 71, 0
2, 1440, Note_on_c, 0, 67, 81
2, 1456, Note_on_c, 0, 71, 81
2, 1472, Note_on_c, 0, 74, 81
2, 1529, Note_on_c, 0, 74, 0
2, 1529, Note_on_c, 0, 71, 0
2, 1529, Note_on_c, 0, 67, 0
2, 1536, Note_on_c, 0, 79, 81
2, 1559, Note_on_c, 0, 79, 0
2, 1560, Note_on_c, 0, 78, 81
2, 1583, Note_on_c, 0, 78, 0
2, 1584, Note_on_c, 0, 79, 81
2, 1607, Note_on_c, 0, 79, 0
2, 1608, Note_on_c, 0, 81, 81
2, 1631, Note_on_c, 0, 81, 0
2, 1632, Note_on_c, 0, 83, 81
2, 1655, Note_on_c, 0, 83, 0
2, 1656, Note_on_c, 0, 81, 81
2, 1679, Note_on_c, 0, 81, 0
2, 1680, Note_on_c, 0, 83, 81
2, 1703, Note_on_c, 0, 83, 0
2, 1704, Note_on_c, 0, 84, 81
2, 1727, Note_on_c, 0, 84, 0
2, 1728, Note_on_c, 0, 86, 81
2, 1817, Note_on_c, 0, 86, 0
2, 1824, Note_on_c, 0, 79, 81
2, 1847, Note_on_c, 0, 79, 0
2, 1848, Note_on_c, 0, 78, 81
2, 1871, Note_on_c, 0, 78, 0
2, 1872, Note_on_c, 0, 79, 81
2, 1895, Note_on_c, 0, 79, 0
2, 1896, Note_on_c, 0, 81, 81
2, 1919, Note_on_c, 0, 81, 0
2, 1920, Note_on_c, 0, 83, 81
2, 1943, Note_on_c, 0, 83, 0
2, 1944, Note_on_c, 0, 81, 81
2, 1967, Note_on_c, 0, 81, 0
2, 1968, Note_on_c, 0, 83, 81
2, 1991, Note_on_c, 0, 83, 0
2, 1992, Note_on_c, 0, 84, 81
2, 2015, Note_on_c, 0, 84, 0
2, 2016, Note_on_c, 0, 86, 81
2, 2105, Note_on_c, 0, 86, 0
2, 2112, Note_on_c, 0, 71, 81
2, 2201, Note_on_c, 0, 71, 0
2, 2208, Note_on_c, 0, 69, 81
2, 2221, Note_on_c, 0, 69, 0
2, 2222, Note_on_c, 0, 71, 81
2, 2235, Note_on_c, 0, 71, 0
2, 2236, Note_on_c, 0, 69, 81
2, 2249, Note_on_c, 0, 69, 0
2, 2250, Note_on_c, 0, 71, 81
2, 2263, Note_on_c, 0, 71, 0
2, 2264, Note_on_c, 0, 69, 81
2, 2277, Note_on_c, 0, 69, 0
2, 2278, Note_on_c, 0, 67, 81
2, 2290, Note_on_c, 0, 67, 0
2, 2291, Note_on_c, 0, 69, 81
2, 2303, Note_on_c, 0, 69, 0
2, 2304, Note_on_c, 0, 67, 81
2, 2481, Note_on_c, 0, 67, 0
2, 2592, Note_on_c, 0, 72, 81
2, 2681, Note_on_c, 0, 72, 0
2, 2688, Note_on_c, 0, 84, 81
2, 2777, Note_on_c, 0, 84, 0
2, 2784, Note_on_c, 0, 76, 81
2, 2851, Note_on_c, 0, 76, 0
2, 2856, Note_on_c, 0, 79, 81
2, 2879, Note_on_c, 0, 79, 0
2, 2880, Note_on_c, 0, 77, 81
2, 2969, Note_on_c, 0, 77, 0
2, 2976, Note_on_c, 0, 74, 81
2, 3065, Note_on_c, 0, 74, 0
2, 3072, Note_on_c, 0, 74, 81
2, 3139, Note_on_c, 0, 74, 0
2, 3144, Note_on_c, 0, 77, 81
2, 3167, Note_on_c, 0, 77, 0
2, 3168, Note_on_c, 0, 76, 81
2, 3257, Note_on_c, 0, 76, 0
2, 3264, Note_on_c, 0, 72, 81
2, 3353, Note_on_c, 0, 72, 0
2, 3360, Note_on_c, 0, 69, 81
2, 3427, Note_on_c, 0, 69, 0
2, 3432, Note_on_c, 0, 74, 81
2, 3455, Note_on_c, 0, 74, 0
2, 3456, Note_on_c, 0, 72, 81
2, 3545, Note_on_c, 0, 72, 0
2, 3552, Note_on_c, 0, 71, 81
2, 3641, Note_on_c, 0, 71, 0
2, 3744, Note_on_c, 0, 67, 81
2, 3760, Note_on_c, 0, 71, 81
2, 3776, Note_on_c, 0, 74, 81
2, 3833, Note_on_c, 0, 74, 0
2, 3833, Note_on_c, 0, 71, 0
2, 3833, Note_on_c, 0, 67, 0
2, 3840, Note_on_c, 0, 79, 81
2, 3863, Note_on_c, 0, 79, 0
2, 3864, Note_on_c, 0, 78, 81
2, 3887, Note_on_c, 0, 78, 0
2, 3888, Note_on_c, 0, 79, 81
2, 3911, Note_on_c, 0, 79, 0
2, 3912, Note_on_c, 0, 81, 81
2, 3935, Note_on_c, 0, 81, 0
2, 3936, Note_on_c, 0, 83, 81
2, 3959, Note_on_c, 0, 83, 0
2, 3960, Note_on_c, 0, 81, 81
2, 3983, Note_on_c, 0, 81, 0
2, 3984, Note_on_c, 0, 83, 81
2, 4007, Note_on_c, 0, 83, 0
2, 4008, Note_on_c, 0, 84, 81
2, 4031, Note_on_c, 0, 84, 0
2, 4032, Note_on_c, 0, 86, 81
2, 4121, Note_on_c, 0, 86, 0
2, 4128, Note_on_c, 0, 79, 81
2, 4151, Note_on_c, 0, 79, 0
2, 4152, Note_on_c, 0, 78, 81
2, 4175, Note_on_c, 0, 78, 0
2, 4176, Note_on_c, 0, 79, 81
2, 4199, Note_on_c, 0, 79, 0
2, 4200, Note_on_c, 0, 81, 81
2, 4223, Note_on_c, 0, 81, 0
2, 4224, Note_on_c, 0, 83, 81
2, 4247, Note_on_c, 0, 83, 0
2, 4248, Note_on_c, 0, 81, 81
2, 4271, Note_on_c, 0, 81, 0
2, 4272, Note_on_c, 0, 83, 81
2, 4295, Note_on_c, 0, 83, 0
2, 4296, Note_on_c, 0, 84, 81
2, 4319, Note_on_c, 0, 84, 0
2, 4320, Note_on_c, 0, 86, 81
2, 4409, Note_on_c, 0, 86, 0
2, 4416, Note_on_c, 0, 71, 81
2, 4505, Note_on_c, 0, 71, 0
2, 4512, Note_on_c, 0, 69, 81
2, 4525, Note_on_c, 0, 69, 0
2, 4526, Note_on_c, 0, 71, 81
2, 4539, Note_on_c, 0, 71, 0
2, 4540, Note_on_c, 0, 69, 81
2, 4553, Note_on_c, 0, 69, 0
2, 4554, Note_on_c, 0, 71, 81
2, 4567, Note_on_c, 0, 71, 0
2, 4568, Note_on_c, 0, 69, 81
2, 4581, Note_on_c, 0, 69, 0
2, 4582, Note_on_c, 0, 67, 81
2, 4594, Note_on_c, 0, 67, 0
2, 4595, Note_on_c, 0, 69, 81
2, 4607, Note_on_c, 0, 69, 0
2, 4608, Note_on_c, 0, 67, 81
2, 4785, Note_on_c, 0, 67, 0
2, 4896, Note_on_c, 0, 79, 75
2, 4985, Note_on_c, 0, 79, 0
2, 4992, Note_on_c, 0, 84, 75
2, 5081, Note_on_c, 0, 84, 0
2, 5088, Note_on_c, 0, 76, 75
2, 5155, Note_on_c, 0, 76, 0
2, 5160, Note_on_c, 0, 79, 75
2, 5183, Note_on_c, 0, 79, 0
2, 5184, Note_on_c, 0, 77, 75
2, 5273, Note_on_c, 0, 77, 0
2, 5280, Note_on_c, 0, 86, 75
2, 5369, Note_on_c, 0, 86, 0
2, 5376, Note_on_c, 0, 74, 75
2, 5443, Note_on_c, 0, 74, 0
2, 5448, Note_on_c, 0, 77, 75
2, 5471, Note_on_c, 0, 77, 0
2, 5472, Note_on_c, 0, 76, 75
2, 5561, Note_on_c, 0, 76, 0
2, 5568, Note_on_c, 0, 79, 75
2, 5657, Note_on_c, 0, 79, 0
2, 5664, Note_on_c, 0, 80, 75
2, 5731, Note_on_c, 0, 80, 0
2, 5736, Note_on_c, 0, 81, 75
2, 5759, Note_on_c, 0, 81, 0
2, 5760, Note_on_c, 0, 72, 75
2, 5849, Note_on_c, 0, 72, 0
2, 5856, Note_on_c, 0, 71, 75
2, 5945, Note_on_c, 0, 71, 0
2, 6048, Note_on_c, 0, 60, 81
2, 6064, Note_on_c, 0, 64, 81
2, 6080, Note_on_c, 0, 67, 81
2, 6137, Note_on_c, 0, 67, 0
2, 6137, Note_on_c, 0, 64, 0
2, 6137, Note_on_c, 0, 60, 0
2, 6144, Note_on_c, 0, 72, 81
2, 6167, Note_on_c, 0, 72, 0
2, 6168, Note_on_c, 0, 71, 81
2, 6191, Note_on_c, 0, 71, 0
2, 6192, Note_on_c, 0, 72, 81
2, 6215, Note_on_c, 0, 72, 0
2, 6216, Note_on_c, 0, 74, 81
2, 6239, Note_on_c, 0, 74, 0
2, 6240, Note_on_c, 0, 76, 81
2, 6263, Note_on_c, 0, 76, 0
2, 6264, Note_on_c, 0, 74, 81
2, 6287, Note_on_c, 0, 74, 0
2, 6288, Note_on_c, 0, 76, 81
2, 6311, Note_on_c, 0, 76, 0
2, 6312, Note_on_c, 0, 77, 81
2, 6335, Note_on_c, 0, 77, 0
2, 6336, Note_on_c, 0, 72, 81
2, 6352, Note_on_c, 0, 76, 81
2, 6368, Note_on_c, 0, 79, 81
2, 6425, Note_on_c, 0, 79, 0
2, 6425, Note_on_c, 0, 76, 0
2, 6425, Note_on_c, 0, 72, 0
2, 6432, Note_on_c, 0, 72, 81
2, 6477, Note_on_c, 0, 72, 0
2, 6480, Note_on_c, 0, 74, 81
2, 6503, Note_on_c, 0, 74, 0
2, 6504, Note_on_c, 0, 76, 81
2, 6527, Note_on_c, 0, 76, 0
2, 6528, Note_on_c, 0, 77, 81
2, 6551, Note_on_c, 0, 77, 0
2, 6552, Note_on_c, 0, 79, 81
2, 6575, Note_on_c, 0, 79, 0
2, 6576, Note_on_c, 0, 81, 81
2, 6599, Note_on_c, 0, 81, 0
2, 6600, Note_on_c, 0, 83, 81
2, 6623, Note_on_c, 0, 83, 0
2, 6624, Note_on_c, 0, 84, 81
2, 6713, Note_on_c, 0, 84, 0
2, 6720, Note_on_c, 0, 76, 81
2, 6720, Note_on_c, 0, 72, 81
2, 6809, Note_on_c, 0, 76, 0
2, 6809, Note_on_c, 0, 72, 0
2, 6816, Note_on_c, 0, 74, 81
2, 6816, Note_on_c, 0, 71, 81
2, 6905, Note_on_c, 0, 74, 0
2, 6905, Note_on_c, 0, 71, 0
2, 6912, Note_on_c, 0, 72, 81
2, 6912, Note_on_c, 0, 67, 81
2, 6912, Note_on_c, 0, 64, 81
2, 7177, Note_on_c, 0, 72, 0
2, 7177, Note_on_c, 0, 67, 0
2, 7177, Note_on_c, 0, 64, 0
2, 7200, Note_on_c, 0, 79, 75
2, 7289, Note_on_c, 0, 79, 0
2, 7296, Note_on_c, 0, 84, 75
2, 7385, Note_on_c, 0, 84, 0
2, 7392, Note_on_c, 0, 76, 75
2, 7459, Note_on_c, 0, 76, 0
2, 7464, Note_on_c, 0, 79, 75
2, 7487, Note_on_c, 0, 79, 0
2, 7488, Note_on_c, 0, 77, 75
2, 7577, Note_on_c, 0, 77, 0
2, 7584, Note_on_c, 0, 86, 75
2, 7673, Note_on_c, 0, 86, 0
2, 7680, Note_on_c, 0, 74, 75
2, 7747, Note_on_c, 0, 74, 0
2, 7752, Note_on_c, 0, 77, 75
2, 7775, Note_on_c, 0, 77, 0
2, 7776, Note_on_c, 0, 76, 75
2, 7865, Note_on_c, 0, 76, 0
2, 7872, Note_on_c, 0, 79, 75
2, 7961, Note_on_c, 0, 79, 0
2, 7968, Note_on_c, 0, 80, 75
2, 8035, Note_on_c, 0, 80, 0
2, 8040, Note_on_c, 0, 81, 75
2, 8063, Note_on_c, 0, 81, 0
2, 8064, Note_on_c, 0, 72, 75
2, 8153, Note_on_c, 0, 72, 0
2, 8160, Note_on_c, 0, 71, 75
2, 8249, Note_on_c, 0, 71, 0
2, 8352, Note_on_c, 0, 60, 81
2, 8368, Note_on_c, 0, 64, 81
2, 8384, Note_on_c, 0, 67, 81
2, 8441, Note_on_c, 0, 67, 0
2, 8441, Note_on_c, 0, 64, 0
2, 8441, Note_on_c, 0, 60, 0
2, 8448, Note_on_c, 0, 72, 81
2, 8471, Note_on_c, 0, 72, 0
2, 8472, Note_on_c, 0, 71, 81
2, 8495, Note_on_c, 0, 71, 0
2, 8496, Note_on_c, 0, 72, 81
2, 8519, Note_on_c, 0, 72, 0
2, 8520, Note_on_c, 0, 74, 81
2, 8543, Note_on_c, 0, 74, 0
2, 8544, Note_on_c, 0, 76, 81
2, 8567, Note_on_c, 0, 76, 0
2, 8568, Note_on_c, 0, 74, 81
2, 8591, Note_on_c, 0, 74, 0
2, 8592, Note_on_c, 0, 76, 81
2, 8615, Note_on_c, 0, 76, 0
2, 8616, Note_on_c, 0, 77, 81
2, 8639, Note_on_c, 0, 77, 0
2, 8640, Note_on_c, 0, 72, 81
2, 8656, Note_on_c, 0, 76, 81
2, 8672, Note_on_c, 0, 79, 81
2, 8729, Note_on_c, 0, 79, 0
2, 8729, Note_on_c, 0, 76, 0
2, 8729, Note_on_c, 0, 72, 0
2, 8736, Note_on_c, 0, 72, 81
2, 8781, Note_on_c, 0, 72, 0
2, 8784, Note_on_c, 0, 74, 81
2, 8807, Note_on_c, 0, 74, 0
2, 8808, Note_on_c, 0, 76, 81
2, 8831, Note_on_c, 0, 76, 0
2, 8832, Note_on_c, 0, 77, 81
2, 8855, Note_on_c, 0, 77, 0
2, 8856, Note_on_c, 0, 79, 81
2, 8879, Note_on_c, 0, 79, 0
2, 8880, Note_on_c, 0, 81, 81
2, 8903, Note_on_c, 0, 81, 0
2, 8904, Note_on_c, 0, 83, 81
2, 8927, Note_on_c, 0, 83, 0
2, 8928, Note_on_c, 0, 84, 81
2, 9017, Note_on_c, 0, 84, 0
2, 9024, Note_on_c, 0, 76, 81
2, 9024, Note_on_c, 0, 72, 81
2, 9113, Note_on_c, 0, 76, 0
2, 9113, Note_on_c, 0, 72, 0
2, 9120, Note_on_c, 0, 74, 81
2, 9120, Note_on_c, 0, 71, 81
2, 9209, Note_on_c, 0, 74, 0
2, 9209, Note_on_c, 0, 71, 0
2, 9216, Note_on_c, 0, 72, 81
2, 9216, Note_on_c, 0, 67, 81
2, 9216, Note_on_c, 0, 64, 81
2, 9481, Note_on_c, 0, 72, 0
2, 9481, Note_on_c, 0, 67, 0
2, 9481, Note_on_c, 0, 64, 0
2, 9552, Note_on_c, 0, 67, 69
2, 9597, Note_on_c, 0, 67, 0
2, 9648, Note_on_c, 0, 67, 69
2, 9693, Note_on_c, 0, 67, 0
2, 9744, Note_on_c, 0, 67, 69
2, 9789, Note_on_c, 0, 67, 0
2, 9840, Note_on_c, 0, 79, 75
2, 9840, Note_on_c, 0, 75, 75
2, 9860, Note_on_c, 0, 79, 0
2, 9860, Note_on_c, 0, 75, 0
2, 9888, Note_on_c, 0, 79, 75
2, 9888, Note_on_c, 0, 75, 75
2, 9936, Note_on_c, 0, 79, 0
2, 9936, Note_on_c, 0, 75, 0
2, 9936, Note_on_c, 0, 77, 75
2, 9936, Note_on_c, 0, 74, 75
2, 9981, Note_on_c, 0, 77, 0
2, 9981, Note_on_c, 0, 74, 0
2, 9984, Note_on_c, 0, 77, 75
2, 9984, Note_on_c, 0, 74, 75
2, 10032, Note_on_c, 0, 77, 0
2, 10032, Note_on_c, 0, 74, 0
2, 10032, Note_on_c, 0, 75, 75
2, 10032, Note_on_c, 0, 72, 75
2, 10077, Note_on_c, 0, 75, 0
2, 10077, Note_on_c, 0, 72, 0
2, 10128, Note_on_c, 0, 67, 69
2, 10173, Note_on_c, 0, 67, 0
2, 10224, Note_on_c, 0, 67, 69
2, 10269, Note_on_c, 0, 67, 0
2, 10320, Note_on_c, 0, 67, 69
2, 10365, Note_on_c, 0, 67, 0
2, 10416, Note_on_c, 0, 77, 75
2, 10416, Note_on_c, 0, 74, 75
2, 10436, Note_on_c, 0, 77, 0
2, 10436, Note_on_c, 0, 74, 0
2, 10464, Note_on_c, 0, 77, 75
2, 10464, Note_on_c, 0, 74, 75
2, 10512, Note_on_c, 0, 77, 0
2, 10512, Note_on_c, 0, 74, 0
2, 10512, Note_on_c, 0, 75, 75
2, 10512, Note_on_c, 0, 72, 75
2, 10557, Note_on_c, 0, 75, 0
2, 10557, Note_on_c, 0, 72, 0
2, 10560, Note_on_c, 0, 75, 75
2, 10560, Note_on_c, 0, 72, 75
2, 10608, Note_on_c, 0, 75, 0
2, 10608, Note_on_c, 0, 72, 0
2, 10608, Note_on_c, 0, 74, 75
2, 10608, Note_on_c, 0, 71, 75
2, 10653, Note_on_c, 0, 74, 0
2, 10653, Note_on_c, 0, 71, 0
2, 10680, Note_on_c, 0, 72, 75
2, 10703, Note_on_c, 0, 72, 0
2, 10704, Note_on_c, 0, 75, 75
2, 10727, Note_on_c, 0, 75, 0
2, 10728, Note_on_c, 0, 72, 75
2, 10751, Note_on_c, 0, 72, 0
2, 10776, Note_on_c, 0, 72, 75
2, 10799, Note_on_c, 0, 72, 0
2, 10800, Note_on_c, 0, 75, 75
2, 10823, Note_on_c, 0, 75, 0
2, 10824, Note_on_c, 0, 72, 75
2, 10847, Note_on_c, 0, 72, 0
2, 10872, Note_on_c, 0, 72, 75
2, 10895, Note_on_c, 0, 72, 0
2, 10896, Note_on_c, 0, 75, 75
2, 10919, Note_on_c, 0, 75, 0
2, 10920, Note_on_c, 0, 72, 75
2, 10943, Note_on_c, 0, 72, 0
2, 10992, Note_on_c, 0, 84, 75
2, 10992, Note_on_c, 0, 81, 75
2, 11012, Note_on_c, 0, 84, 0
2, 11012, Note_on_c, 0, 81, 0
2, 11040, Note_on_c, 0, 84, 75
2, 11040, Note_on_c, 0, 81, 75
2, 11088, Note_on_c, 0, 84, 0
2, 11088, Note_on_c, 0, 81, 0
2, 11088, Note_on_c, 0, 82, 75
2, 11088, Note_on_c, 0, 79, 75
2, 11133, Note_on_c, 0, 82, 0
2, 11133, Note_on_c, 0, 79, 0
2, 11136, Note_on_c, 0, 82, 75
2, 11136, Note_on_c, 0, 79, 75
2, 11184, Note_on_c, 0, 82, 0
2, 11184, Note_on_c, 0, 79, 0
2, 11184, Note_on_c, 0, 81, 75
2, 11184, Note_on_c, 0, 78, 75
2, 11229, Note_on_c, 0, 81, 0
2, 11229, Note_on_c, 0, 78, 0
2, 11232, Note_on_c, 0, 82, 75
2, 11232, Note_on_c, 0, 79, 75
2, 11321, Note_on_c, 0, 82, 0
2, 11321, Note_on_c, 0, 79, 0
2, 11328, Note_on_c, 0, 79, 75
2, 11328, Note_on_c, 0, 70, 75
2, 11417, Note_on_c, 0, 79, 0
2, 11417, Note_on_c, 0, 70, 0
2, 11424, Note_on_c, 0, 78, 75
2, 11424, Note_on_c, 0, 69, 75
2, 11513, Note_on_c, 0, 78, 0
2, 11513, Note_on_c, 0, 69, 0
2, 11520, Note_on_c, 0, 79, 75
2, 11520, Note_on_c, 0, 70, 75
2, 11609, Note_on_c, 0, 79, 0
2, 11609, Note_on_c, 0, 70, 0
2, 11856, Note_on_c, 0, 67, 69
2, 11901, Note_on_c, 0, 67, 0
2, 11952, Note_on_c, 0, 67, 69
2, 11997, Note_on_c, 0, 67, 0
2, 12048, Note_on_c, 0, 67, 69
2, 12093, Note_on_c, 0, 67, 0
2, 12144, Note_on_c, 0, 79, 75
2, 12144, Note_on_c, 0, 75, 75
2, 12164, Note_on_c, 0, 79, 0
2, 12164, Note_on_c, 0, 75, 0
2, 12192, Note_on_c, 0, 79, 75
2, 12192, Note_on_c, 0, 75, 75
2, 12240, Note_on_c, 0, 79, 0
2, 12240, Note_on_c, 0, 75, 0
2, 12240, Note_on_c, 0, 77, 75
2, 12240, Note_on_c, 0, 74, 75
2, 12285, Note_on_c, 0, 77, 0
2, 12285, Note_on_c, 0, 74, 0
2, 12288, Note_on_c, 0, 77, 75
2, 12288, Note_on_c, 0, 74, 75
2, 12336, Note_on_c, 0, 77, 0
2, 12336, Note_on_c, 0, 74, 0
2, 12336, Note_on_c, 0, 75, 75
2, 12336, Note_on_c, 0, 72, 75
2, 12381, Note_on_c, 0, 75, 0
2, 12381, Note_on_c, 0, 72, 0
2, 12432, Note_on_c, 0, 67, 69
2, 12477, Note_on_c, 0, 67, 0
2, 12528, Note_on_c, 0, 67, 69
2, 12573, Note_on_c, 0, 67, 0
2, 12624, Note_on_c, 0, 67, 69
2, 12669, Note_on_c, 0, 67, 0
2, 12720, Note_on_c, 0, 77, 75
2, 12720, Note_on_c, 0, 74, 75
2, 12740, Note_on_c, 0, 77, 0
2, 12740, Note_on_c, 0, 74, 0
2, 12768, Note_on_c, 0, 77, 75
2, 12768, Note_on_c, 0, 74, 75
2, 12816, Note_on_c, 0, 77, 0
2, 12816, Note_on_c, 0, 74, 0
2, 12816, Note_on_c, 0, 75, 75
2, 12816, Note_on_c, 0, 72, 75
2, 12861, Note_on_c, 0, 75, 0
2, 12861, Note_on_c, 0, 72, 0
2, 12864, Note_on_c, 0, 75, 75
2, 12864, Note_on_c, 0, 72, 75
2, 12912, Note_on_c, 0, 75, 0
2, 12912, Note_on_c, 0, 72, 0
2, 12912, Note_on_c, 0, 74, 75
2, 12912, Note_on_c, 0, 71, 75
2, 12957, Note_on_c, 0, 74, 0
2, 12957, Note_on_c, 0, 71, 0
2, 12984, Note_on_c, 0, 72, 75
2, 13007, Note_on_c, 0, 72, 0
2, 13008, Note_on_c, 0, 75, 75
2, 13031, Note_on_c, 0, 75, 0
2, 13032, Note_on_c, 0, 72, 75
2, 13055, Note_on_c, 0, 72, 0
2, 13080, Note_on_c, 0, 72, 75
2, 13103, Note_on_c, 0, 72, 0
2, 13104, Note_on_c, 0, 75, 75
2, 13127, Note_on_c, 0, 75, 0
2, 13128, Note_on_c, 0, 72, 75
2, 13151, Note_on_c, 0, 72, 0
2, 13176, Note_on_c, 0, 72, 75
2, 13199, Note_on_c, 0, 72, 0
2, 13200, Note_on_c, 0, 75, 75
2, 13223, Note_on_c, 0, 75, 0
2, 13224, Note_on_c, 0, 72, 75
2, 13247, Note_on_c, 0, 72, 0
2, 13296, Note_on_c, 0, 84, 75
2, 13296, Note_on_c, 0, 81, 75
2, 13316, Note_on_c, 0, 84, 0
2, 13316, Note_on_c, 0, 81, 0
2, 13344, Note_on_c, 0, 84, 75
2, 13344, Note_on_c, 0, 81, 75
2, 13392, Note_on_c, 0, 84, 0
2, 13392, Note_on_c, 0, 81, 0
2, 13392, Note_on_c, 0, 82, 75
2, 13392, Note_on_c, 0, 79, 75
2, 13437, Note_on_c, 0, 82, 0
2, 13437, Note_on_c, 0, 79, 0
2, 13440, Note_on_c, 0, 82, 75
2, 13440, Note_on_c, 0, 79, 75
2, 13488, Note_on_c, 0, 82, 0
2, 13488, Note_on_c, 0, 79, 0
2, 13488, Note_on_c, 0, 81, 75
2, 13488, Note_on_c, 0, 78, 75
2, 13533, Note_on_c, 0, 81, 0
2, 13533, Note_on_c, 0, 78, 0
2, 13536, Note_on_c, 0, 82, 75
2, 13536, Note_on_c, 0, 79, 75
2, 13625, Note_on_c, 0, 82, 0
2, 13625, Note_on_c, 0, 79, 0
2, 13632, Note_on_c, 0, 79, 75
2, 13632, Note_on_c, 0, 70, 75
2, 13721, Note_on_c, 0, 79, 0
2, 13721, Note_on_c, 0, 70, 0
2, 13728, Note_on_c, 0, 78, 75
2, 13728, Note_on_c, 0, 69, 75
2, 13817, Note_on_c, 0, 78, 0
2, 13817, Note_on_c, 0, 69, 0
2, 13824, Note_on_c, 0, 79, 75
2, 13824, Note_on_c, 0, 70, 75
2, 13913, Note_on_c, 0, 79, 0
2, 13913, Note_on_c, 0, 70, 0
2, 14160, Note_on_c, 0, 72, 69
2, 14205, Note_on_c, 0, 72, 0
2, 14256, Note_on_c, 0, 72, 69
2, 14301, Note_on_c, 0, 72, 0
2, 14352, Note_on_c, 0, 72, 69
2, 14397, Note_on_c, 0, 72, 0
2, 14400, Note_on_c, 0, 72, 75
2, 14423, Note_on_c, 0, 72, 0
2, 14424, Note_on_c, 0, 74, 75
2, 14447, Note_on_c, 0, 74, 0
2, 14448, Note_on_c, 0, 76, 75
2, 14471, Note_on_c, 0, 76, 0
2, 14472, Note_on_c, 0, 77, 75
2, 14495, Note_on_c, 0, 77, 0
2, 14496, Note_on_c, 0, 79, 75
2, 14519, Note_on_c, 0, 79, 0
2, 14520, Note_on_c, 0, 80, 75
2, 14543, Note_on_c, 0, 80, 0
2, 14544, Note_on_c, 0, 82, 75
2, 14567, Note_on_c, 0, 82, 0
2, 14568, Note_on_c, 0, 84, 75
2, 14591, Note_on_c, 0, 84, 0
2, 14592, Note_on_c, 0, 80, 75
2, 14681, Note_on_c, 0, 80, 0
2, 14736, Note_on_c, 0, 74, 75
2, 14781, Note_on_c, 0, 74, 0
2, 14832, Note_on_c, 0, 74, 75
2, 14877, Note_on_c, 0, 74, 0
2, 14928, Note_on_c, 0, 74, 75
2, 14973, Note_on_c, 0, 74, 0
2, 14976, Note_on_c, 0, 74, 75
2, 14999, Note_on_c, 0, 74, 0
2, 15000, Note_on_c, 0, 76, 81
2, 15023, Note_on_c, 0, 76, 0
2, 15024, Note_on_c, 0, 78, 81
2, 15047, Note_on_c, 0, 78, 0
2, 15048, Note_on_c, 0, 79, 81
2, 15071, Note_on_c, 0, 79, 0
2, 15072, Note_on_c, 0, 81, 81
2, 15095, Note_on_c, 0, 81, 0
2, 15096, Note_on_c, 0, 82, 81
2, 15119, Note_on_c, 0, 82, 0
2, 15120, Note_on_c, 0, 84, 81
2, 15143, Note_on_c, 0, 84, 0
2, 15144, Note_on_c, 0, 86, 81
2, 15167, Note_on_c, 0, 86, 0
2, 15168, Note_on_c, 0, 82, 81
2, 15257, Note_on_c, 0, 82, 0
2, 15312, Note_on_c, 0, 67, 69
2, 15357, Note_on_c, 0, 67, 0
2, 15408, Note_on_c, 0, 67, 69
2, 15453, Note_on_c, 0, 67, 0
2, 15504, Note_on_c, 0, 67, 69
2, 15549, Note_on_c, 0, 67, 0
2, 15600, Note_on_c, 0, 79, 75
2, 15600, Note_on_c, 0, 75, 75
2, 15620, Note_on_c, 0, 79, 0
2, 15620, Note_on_c, 0, 75, 0
2, 15648, Note_on_c, 0, 79, 75
2, 15648, Note_on_c, 0, 75, 75
2, 15696, Note_on_c, 0, 79, 0
2, 15696, Note_on_c, 0, 75, 0
2, 15696, Note_on_c, 0, 77, 75
2, 15696, Note_on_c, 0, 74, 75
2, 15741, Note_on_c, 0, 77, 0
2, 15741, Note_on_c, 0, 74, 0
2, 15744, Note_on_c, 0, 77, 75
2, 15744, Note_on_c, 0, 74, 75
2, 15792, Note_on_c, 0, 77, 0
2, 15792, Note_on_c, 0, 74, 0
2, 15792, Note_on_c, 0, 75, 75
2, 15792, Note_on_c, 0, 72, 75
2, 15837, Note_on_c, 0, 75, 0
2, 15837, Note_on_c, 0, 72, 0
2, 15888, Note_on_c, 0, 67, 69
2, 15933, Note_on_c, 0, 67, 0
2, 15984, Note_on_c, 0, 67, 69
2, 16029, Note_on_c, 0, 67, 0
2, 16080, Note_on_c, 0, 67, 69
2, 16125, Note_on_c, 0, 67, 0
2, 16176, Note_on_c, 0, 77, 75
2, 16176, Note_on_c, 0, 74, 75
2, 16196, Note_on_c, 0, 77, 0
2, 16196, Note_on_c, 0, 74, 0
2, 16224, Note_on_c, 0, 77, 75
2, 16224, Note_on_c, 0, 74, 75
2, 16272, Note_on_c, 0, 77, 0
2, 16272, Note_on_c, 0, 74, 0
2, 16272, Note_on_c, 0, 75, 75
2, 16272, Note_on_c, 0, 72, 75
2, 16317, Note_on_c, 0, 75, 0
2, 16317, Note_on_c, 0, 72, 0
2, 16320, Note_on_c, 0, 75, 75
2, 16320, Note_on_c, 0, 72, 75
2, 16368, Note_on_c, 0, 75, 0
2, 16368, Note_on_c, 0, 72, 0
2, 16368, Note_on_c, 0, 74, 75
2, 16368, Note_on_c, 0, 71, 75
2, 16413, Note_on_c, 0, 74, 0
2, 16413, Note_on_c, 0, 71, 0
2, 16440, Note_on_c, 0, 72, 75
2, 16463, Note_on_c, 0, 72, 0
2, 16464, Note_on_c, 0, 75, 75
2, 16487, Note_on_c, 0, 75, 0
2, 16488, Note_on_c, 0, 72, 75
2, 16511, Note_on_c, 0, 72, 0
2, 16536, Note_on_c, 0, 72, 75
2, 16559, Note_on_c, 0, 72, 0
2, 16560, Note_on_c, 0, 75, 75
2, 16583, Note_on_c, 0, 75, 0
2, 16584, Note_on_c, 0, 72, 75
2, 16607, Note_on_c, 0, 72, 0
2, 16632, Note_on_c, 0, 72, 75
2, 16655, Note_on_c, 0, 72, 0
2, 16656, Note_on_c, 0, 75, 75
2, 16679, Note_on_c, 0, 75, 0
2, 16680, Note_on_c, 0, 72, 75
2, 16703, Note_on_c, 0, 72, 0
2, 16752, Note_on_c, 0, 80, 75
2, 16752, Note_on_c, 0, 77, 75
2, 16772, Note_on_c, 0, 80, 0
2, 16772, Note_on_c, 0, 77, 0
2, 16800, Note_on_c, 0, 80, 75
2, 16800, Note_on_c, 0, 77, 75
2, 16848, Note_on_c, 0, 80, 0
2, 16848, Note_on_c, 0, 77, 0
2, 16848, Note_on_c, 0, 79, 75
2, 16848, Note_on_c, 0, 75, 75
2, 16893, Note_on_c, 0, 79, 0
2, 16893, Note_on_c, 0, 75, 0
2, 16896, Note_on_c, 0, 79, 75
2, 16896, Note_on_c, 0, 75, 75
2, 16944, Note_on_c, 0, 79, 0
2, 16944, Note_on_c, 0, 75, 0
2, 16944, Note_on_c, 0, 77, 75
2, 16944, Note_on_c, 0, 74, 75
2, 16989, Note_on_c, 0, 77, 0
2, 16989, Note_on_c, 0, 74, 0
2, 16992, Note_on_c, 0, 75, 75
2, 16992, Note_on_c, 0, 72, 75
2, 17081, Note_on_c, 0, 75, 0
2, 17081, Note_on_c, 0, 72, 0
2, 17088, Note_on_c, 0, 72, 75
2, 17088, Note_on_c, 0, 63, 75
2, 17177, Note_on_c, 0, 72, 0
2, 17177, Note_on_c, 0, 63, 0
2, 17184, Note_on_c, 0, 71, 75
2, 17184, Note_on_c, 0, 62, 75
2, 17273, Note_on_c, 0, 71, 0
2, 17273, Note_on_c, 0, 62, 0
2, 17280, Note_on_c, 0, 72, 75
2, 17280, Note_on_c, 0, 60, 75
2, 17369, Note_on_c, 0, 72, 0
2, 17369, Note_on_c, 0, 60, 0
2, 17616, Note_on_c, 0, 72, 69
2, 17661, Note_on_c, 0, 72, 0
2, 17712, Note_on_c, 0, 72, 69
2, 17757, Note_on_c, 0, 72, 0
2, 17808, Note_on_c, 0, 72, 69
2, 17853, Note_on_c, 0, 72, 0
2, 17856, Note_on_c, 0, 72, 75
2, 17879, Note_on_c, 0, 72, 0
2, 17880, Note_on_c, 0, 74, 75
2, 17903, Note_on_c, 0, 74, 0
2, 17904, Note_on_c, 0, 76, 75
2, 17927, Note_on_c, 0, 76, 0
2, 17928, Note_on_c, 0, 77, 75
2, 17951, Note_on_c, 0, 77, 0
2, 17952, Note_on_c, 0, 79, 75
2, 17975, Note_on_c, 0, 79, 0
2, 17976, Note_on_c, 0, 80, 75
2, 17999, Note_on_c, 0, 80, 0
2, 18000, Note_on_c, 0, 82, 75
2, 18023, Note_on_c, 0, 82, 0
2, 18024, Note_on_c, 0, 84, 75
2, 18047, Note_on_c, 0, 84, 0
2, 18048, Note_on_c, 0, 80, 75
2, 18137, Note_on_c, 0, 80, 0
2, 18192, Note_on_c, 0, 74, 75
2, 18237, Note_on_c, 0, 74, 0
2, 18288, Note_on_c, 0, 74, 75
2, 18333, Note_on_c, 0, 74, 0
2, 18384, Note_on_c, 0, 74, 75
2, 18429, Note_on_c, 0, 74, 0
2, 18432, Note_on_c, 0, 74, 75
2, 18455, Note_on_c, 0, 74, 0
2, 18456, Note_on_c, 0, 76, 81
2, 18479, Note_on_c, 0, 76, 0
2, 18480, Note_on_c, 0, 78, 81
2, 18503, Note_on_c, 0, 78, 0
2, 18504, Note_on_c, 0, 79, 81
2, 18527, Note_on_c, 0, 79, 0
2, 18528, Note_on_c, 0, 81, 81
2, 18551, Note_on_c, 0, 81, 0
2, 18552, Note_on_c, 0, 82, 81
2, 18575, Note_on_c, 0, 82, 0
2, 18576, Note_on_c, 0, 84, 81
2, 18599, Note_on_c, 0, 84, 0
2, 18600, Note_on_c, 0, 86, 81
2, 18623, Note_on_c, 0, 86, 0
2, 18624, Note_on_c, 0, 82, 81
2, 18713, Note_on_c, 0, 82, 0
2, 18768, Note_on_c, 0, 67, 69
2, 18813, Note_on_c, 0, 67, 0
2, 18864, Note_on_c, 0, 67, 69
2, 18909, Note_on_c, 0, 67, 0
2, 18960, Note_on_c, 0, 67, 69
2, 19005, Note_on_c, 0, 67, 0
2, 19056, Note_on_c, 0, 79, 75
2, 19056, Note_on_c, 0, 75, 75
2, 19076, Note_on_c, 0, 79, 0
2, 19076, Note_on_c, 0, 75, 0
2, 19104, Note_on_c, 0, 79, 75
2, 19104, Note_on_c, 0, 75, 75
2, 19152, Note_on_c, 0, 79, 0
2, 19152, Note_on_c, 0, 75, 0
2, 19152, Note_on_c, 0, 77, 75
2, 19152, Note_on_c, 0, 74, 75
2, 19197, Note_on_c, 0, 77, 0
2, 19197, Note_on_c, 0, 74, 0
2, 19200, Note_on_c, 0, 77, 75
2, 19200, Note_on_c, 0, 74, 75
2, 19248, Note_on_c, 0, 77, 0
2, 19248, Note_on_c, 0, 74, 0
2, 19248, Note_on_c, 0, 75, 75
2, 19248, Note_on_c, 0, 72, 75
2, 19293, Note_on_c, 0, 75, 0
2, 19293, Note_on_c, 0, 72, 0
2, 19344, Note_on_c, 0, 67, 69
2, 19389, Note_on_c, 0, 67, 0
2, 19440, Note_on_c, 0, 67, 69
2, 19485, Note_on_c, 0, 67, 0
2, 19536, Note_on_c, 0, 67, 69
2, 19581, Note_on_c, 0, 67, 0
2, 19632, Note_on_c, 0, 77, 75
2, 19632, Note_on_c, 0, 74, 75
2, 19652, Note_on_c, 0, 77, 0
2, 19652, Note_on_c, 0, 74, 0
2, 19680, Note_on_c, 0, 77, 75
2, 19680, Note_on_c, 0, 74, 75
2, 19728, Note_on_c, 0, 77, 0
2, 19728, Note_on_c, 0, 74, 0
2, 19728, Note_on_c, 0, 75, 75
2, 19728, Note_on_c, 0, 72, 75
2, 19773, Note_on_c, 0, 75, 0
2, 19773, Note_on_c, 0, 72, 0
2, 19776, Note_on_c, 0, 75, 75
2, 19776, Note_on_c, 0, 72, 75
2, 19824, Note_on_c, 0, 75, 0
2, 19824, Note_on_c, 0, 72, 0
2, 19824, Note_on_c, 0, 74, 75
2, 19824, Note_on_c, 0, 71, 75
2, 19869, Note_on_c, 0, 74, 0
2, 19869, Note_on_c, 0, 71, 0
2, 19896, Note_on_c, 0, 72, 75
2, 19919, Note_on_c, 0, 72, 0
2, 19920, Note_on_c, 0, 75, 75
2, 19943, Note_on_c, 0, 75, 0
2, 19944, Note_on_c, 0, 72, 75
2, 19967, Note_on_c, 0, 72, 0
2, 19992, Note_on_c, 0, 72, 75
2, 20015, Note_on_c, 0, 72, 0
2, 20016, Note_on_c, 0, 75, 75
2, 20039, Note_on_c, 0, 75, 0
2, 20040, Note_on_c, 0, 72, 75
2, 20063, Note_on_c, 0, 72, 0
2, 20088, Note_on_c, 0, 72, 75
2, 20111, Note_on_c, 0, 72, 0
2, 20112, Note_on_c, 0, 75, 75
2, 20135, Note_on_c, 0, 75, 0
2, 20136, Note_on_c, 0, 72, 75
2, 20159, Note_on_c, 0, 72, 0
2, 20208, Note_on_c, 0, 80, 75
2, 20208, Note_on_c, 0, 77, 75
2, 20228, Note_on_c, 0, 80, 0
2, 20228, Note_on_c, 0, 77, 0
2, 20256, Note_on_c, 0, 80, 75
2, 20256, Note_on_c, 0, 77, 75
2, 20304, Note_on_c, 0, 80, 0
2, 20304, Note_on_c, 0, 77, 0
2, 20304, Note_on_c, 0, 79, 75
2, 20304, Note_on_c, 0, 75, 75
2, 20349, Note_on_c, 0, 79, 0
2, 20349, Note_on_c, 0, 75, 0
2, 20352, Note_on_c, 0, 79, 75
2, 20352, Note_on_c, 0, 75, 75
2, 20400, Note_on_c, 0, 79, 0
2, 20400, Note_on_c, 0, 75, 0
2, 20400, Note_on_c, 0, 77, 75
2, 20400, Note_on_c, 0, 74, 75
2, 20445, Note_on_c, 0, 77, 0
2, 20445, Note_on_c, 0, 74, 0
2, 20448, Note_on_c, 0, 75, 75
2, 20448, Note_on_c, 0, 72, 75
2, 20537, Note_on_c, 0, 75, 0
2, 20537, Note_on_c, 0, 72, 0
2, 20544, Note_on_c, 0, 72, 75
2, 20544, Note_on_c, 0, 63, 75
2, 20633, Note_on_c, 0, 72, 0
2, 20633, Note_on_c, 0, 63, 0
2, 20640, Note_on_c, 0, 71, 75
2, 20640, Note_on_c, 0, 62, 75
2, 20729, Note_on_c, 0, 71, 0
2, 20729, Note_on_c, 0, 62, 0
2, 20736, Note_on_c, 0, 72, 75
2, 20736, Note_on_c, 0, 60, 75
2, 20825, Note_on_c, 0, 72, 0
2, 20825, Note_on_c, 0, 60, 0
2, 21024, Note_on_c, 0, 72, 81
2, 21113, Note_on_c, 0, 72, 0
2, 21120, Note_on_c, 0, 84, 81
2, 21209, Note_on_c, 0, 84, 0
2, 21216, Note_on_c, 0, 76, 81
2, 21283, Note_on_c, 0, 76, 0
2, 21288, Note_on_c, 0, 79, 81
2, 21311, Note_on_c, 0, 79, 0
2, 21312, Note_on_c, 0, 77, 81
2, 21401, Note_on_c, 0, 77, 0
2, 21408, Note_on_c, 0, 74, 81
2, 21497, Note_on_c, 0, 74, 0
2, 21504, Note_on_c, 0, 74, 81
2, 21571, Note_on_c, 0, 74, 0
2, 21576, Note_on_c, 0, 77, 81
2, 21599, Note_on_c, 0, 77, 0
2, 21600, Note_on_c, 0, 76, 81
2, 21689, Note_on_c, 0, 76, 0
2, 21696, Note_on_c, 0, 72, 81
2, 21785, Note_on_c, 0, 72, 0
2, 21792, Note_on_c, 0, 69, 81
2, 21859, Note_on_c, 0, 69, 0
2, 21864, Note_on_c, 0, 74, 81
2, 21887, Note_on_c, 0, 74, 0
2, 21888, Note_on_c, 0, 72, 81
2, 21977, Note_on_c, 0, 72, 0
2, 21984, Note_on_c, 0, 71, 81
2, 22073, Note_on_c, 0, 71, 0
2, 22176, Note_on_c, 0, 67, 81
2, 22192, Note_on_c, 0, 71, 81
2, 22208, Note_on_c, 0, 74, 81
2, 22265, Note_on_c, 0, 74, 0
2, 22265, Note_on_c, 0, 71, 0
2, 22265, Note_on_c, 0, 67, 0
2, 22272, Note_on_c, 0, 79, 81
2, 22295, Note_on_c, 0, 79, 0
2, 22296, Note_on_c, 0, 78, 81
2, 22319, Note_on_c, 0, 78, 0
2, 22320, Note_on_c, 0, 79, 81
2, 22343, Note_on_c, 0, 79, 0
2, 22344, Note_on_c, 0, 81, 81
2, 22367, Note_on_c, 0, 81, 0
2, 22368, Note_on_c, 0, 83, 81
2, 22391, Note_on_c, 0, 83, 0
2, 22392, Note_on_c, 0, 81, 81
2, 22415, Note_on_c, 0, 81, 0
2, 22416, Note_on_c, 0, 83, 81
2, 22439, Note_on_c, 0, 83, 0
2, 22440, Note_on_c, 0, 84, 81
2, 22463, Note_on_c, 0, 84, 0
2, 22464, Note_on_c, 0, 86, 81
2, 22553, Note_on_c, 0, 86, 0
2, 22560, Note_on_c, 0, 79, 81
2, 22583, Note_on_c, 0, 79, 0
2, 22584, Note_on_c, 0, 78, 81
2, 22607, Note_on_c, 0, 78, 0
2, 22608, Note_on_c, 0, 79, 81
2, 22631, Note_on_c, 0, 79, 0
2, 22632, Note_on_c, 0, 81, 81
2, 22655, Note_on_c, 0, 81, 0
2, 22656, Note_on_c, 0, 83, 81
2, 22679, Note_on_c, 0, 83, 0
2, 22680, Note_on_c, 0, 81, 81
2, 22703, Note_on_c, 0, 81, 0
2, 22704, Note_on_c, 0, 83, 81
2, 22727, Note_on_c, 0, 83, 0
2, 22728, Note_on_c, 0, 84, 81
2, 22751, Note_on_c, 0, 84, 0
2, 22752, Note_on_c, 0, 86, 81
2, 22841, Note_on_c, 0, 86, 0
2, 22848, Note_on_c, 0, 71, 81
2, 22937, Note_on_c, 0, 71, 0
2, 22944, Note_on_c, 0, 69, 81
2, 22957, Note_on_c, 0, 69, 0
2, 22958, Note_on_c, 0, 71, 81
2, 22971, Note_on_c, 0, 71, 0
2, 22972, Note_on_c, 0, 69, 81
2, 22985, Note_on_c, 0, 69, 0
2, 22986, Note_on_c, 0, 71, 81
2, 22999, Note_on_c, 0, 71, 0
2, 23000, Note_on_c, 0, 69, 81
2, 23013, Note_on_c, 0, 69, 0
2, 23014, Note_on_c, 0, 67, 81
2, 23026, Note_on_c, 0, 67, 0
2, 23027, Note_on_c, 0, 69, 81
2, 23039, Note_on_c, 0, 69, 0
2, 23040, Note_on_c, 0, 67, 81
2, 23217, Note_on_c, 0, 67, 0
2, 23328, Note_on_c, 0, 72, 81
2, 23417, Note_on_c, 0, 72, 0
2, 23424, Note_on_c, 0, 84, 81
2, 23513, Note_on_c, 0, 84, 0
2, 23520, Note_on_c, 0, 76, 81
2, 23587, Note_on_c, 0, 76, 0
2, 23592, Note_on_c, 0, 79, 81
2, 23615, Note_on_c, 0, 79, 0
2, 23616, Note_on_c, 0, 77, 81
2, 23705, Note_on_c, 0, 77, 0
2, 23712, Note_on_c, 0, 74, 81
2, 23801, Note_on_c, 0, 74, 0
2, 23808, Note_on_c, 0, 74, 81
2, 23875, Note_on_c, 0, 74, 0
2, 23880, Note_on_c, 0, 77, 81
2, 23903, Note_on_c, 0, 77, 0
2, 23904, Note_on_c, 0, 76, 81
2, 23993, Note_on_c, 0, 76, 0
2, 24000, Note_on_c, 0, 72, 81
2, 24089, Note_on_c, 0, 72, 0
2, 24096, Note_on_c, 0, 69, 81
2, 24163, Note_on_c, 0, 69, 0
2, 24168, Note_on_c, 0, 74, 81
2, 24191, Note_on_c, 0, 74, 0
2, 24192, Note_on_c, 0, 72, 81
2, 24281, Note_on_c, 0, 72, 0
2, 24288, Note_on_c, 0, 71, 81
2, 24377, Note_on_c, 0, 71, 0
2, 24480, Note_on_c, 0, 67, 81
2, 24496, Note_on_c, 0, 71, 81
2, 24512, Note_on_c, 0, 74, 81
2, 24569, Note_on_c, 0, 74, 0
2, 24569, Note_on_c, 0, 71, 0
2, 24569, Note_on_c, 0, 67, 0
2, 24576, Note_on_c, 0, 79, 81
2, 24599, Note_on_c, 0, 79, 0
2, 24600, Note_on_c, 0, 78, 81
2, 24623, Note_on_c, 0, 78, 0
2, 24624, Note_on_c, 0, 79, 81
2, 24647, Note_on_c, 0, 79, 0
2, 24648, Note_on_c, 0, 81, 81
2, 24671, Note_on_c, 0, 81, 0
2, 24672, Note_on_c, 0, 83, 81
2, 24695, Note_on_c, 0, 83, 0
2, 24696, Note_on_c, 0, 81, 81
2, 24719, Note_on_c, 0, 81, 0
2, 24720, Note_on_c, 0, 83, 81
2, 24743, Note_on_c, 0, 83, 0
2, 24744, Note_on_c, 0, 84, 81
2, 24767, Note_on_c, 0, 84, 0
2, 24768, Note_on_c, 0, 86, 81
2, 24857, Note_on_c, 0, 86, 0
2, 24864, Note_on_c, 0, 79, 81
2, 24887, Note_on_c, 0, 79, 0
2, 24888, Note_on_c, 0, 78, 81
2, 24911, Note_on_c, 0, 78, 0
2, 24912, Note_on_c, 0, 79, 81
2, 24935, Note_on_c, 0, 79, 0
2, 24936, Note_on_c, 0, 81, 81
2, 24959, Note_on_c, 0, 81, 0
2, 24960, Note_on_c, 0, 83, 81
2, 24983, Note_on_c, 0, 83, 0
2, 24984, Note_on_c, 0, 81, 81
2, 25007, Note_on_c, 0, 81, 0
2, 25008, Note_on_c, 0, 83, 81
2, 25031, Note_on_c, 0, 83, 0
2, 25032, Note_on_c, 0, 84, 81
2, 25055, Note_on_c, 0, 84, 0
2, 25056, Note_on_c, 0, 86, 81
2, 25145, Note_on_c, 0, 86, 0
2, 25152, Note_on_c, 0, 71, 81
2, 25241, Note_on_c, 0, 71, 0
2, 25248, Note_on_c, 0, 69, 81
2, 25261, Note_on_c, 0, 69, 0
2, 25262, Note_on_c, 0, 71, 81
2, 25275, Note_on_c, 0, 71, 0
2, 25276, Note_on_c, 0, 69, 81
2, 25289, Note_on_c, 0, 69, 0
2, 25290, Note_on_c, 0, 71, 81
2, 25303, Note_on_c, 0, 71, 0
2, 25304, Note_on_c, 0, 69, 81
2, 25317, Note_on_c, 0, 69, 0
2, 25318, Note_on_c, 0, 67, 81
2, 25330, Note_on_c, 0, 67, 0
2, 25331, Note_on_c, 0, 69, 81
2, 25343, Note_on_c, 0, 69, 0
2, 25344, Note_on_c, 0, 67, 81
2, 25521, Note_on_c, 0, 67, 0
2, 25632, Note_on_c, 0, 79, 75
2, 25721, Note_on_c, 0, 79, 0
2, 25728, Note_on_c, 0, 84, 75
2, 25817, Note_on_c, 0, 84, 0
2, 25824, Note_on_c, 0, 76, 75
2, 25891, Note_on_c, 0, 76, 0
2, 25896, Note_on_c, 0, 79, 75
2, 25919, Note_on_c, 0, 79, 0
2, 25920, Note_on_c, 0, 77, 75
2, 26009, Note_on_c, 0, 77, 0
2, 26016, Note_on_c, 0, 86, 75
2, 26105, Note_on_c, 0, 86, 0
2, 26112, Note_on_c, 0, 74, 75
2, 26179, Note_on_c, 0, 74, 0
2, 26184, Note_on_c, 0, 77, 75
2, 26207, Note_on_c, 0, 77, 0
2, 26208, Note_on_c, 0, 76, 75
2, 26297, Note_on_c, 0, 76, 0
2, 26304, Note_on_c, 0, 79, 75
2, 26393, Note_on_c, 0, 79, 0
2, 26400, Note_on_c, 0, 80, 75
2, 26467, Note_on_c, 0, 80, 0
2, 26472, Note_on_c, 0, 81, 75
2, 26495, Note_on_c, 0, 81, 0
2, 26496, Note_on_c, 0, 72, 75
2, 26585, Note_on_c, 0, 72, 0
2, 26592, Note_on_c, 0, 71, 75
2, 26681, Note_on_c, 0, 71, 0
2, 26784, Note_on_c, 0, 60, 81
2, 26800, Note_on_c, 0, 64, 81
2, 26816, Note_on_c, 0, 67, 81
2, 26873, Note_on_c, 0, 67, 0
2, 26873, Note_on_c, 0, 64, 0
2, 26873, Note_on_c, 0, 60, 0
2, 26880, Note_on_c, 0, 72, 81
2, 26903, Note_on_c, 0, 72, 0
2, 26904, Note_on_c, 0, 71, 81
2, 26927, Note_on_c, 0, 71, 0
2, 26928, Note_on_c, 0, 72, 81
2, 26951, Note_on_c, 0, 72, 0
2, 26952, Note_on_c, 0, 74, 81
2, 26975, Note_on_c, 0, 74, 0
2, 26976, Note_on_c, 0, 76, 81
2, 26999, Note_on_c, 0, 76, 0
2, 27000, Note_on_c, 0, 74, 81
2, 27023, Note_on_c, 0, 74, 0
2, 27024, Note_on_c, 0, 76, 81
2, 27047, Note_on_c, 0, 76, 0
2, 27048, Note_on_c, 0, 77, 81
2, 27071, Note_on_c, 0, 77, 0
2, 27072, Note_on_c, 0, 72, 81
2, 27088, Note_on_c, 0, 76, 81
2, 27104, Note_on_c, 0, 79, 81
2, 27161, Note_on_c, 0, 79, 0
2, 27161, Note_on_c, 0, 76, 0
2, 27161, Note_on_c, 0, 72, 0
2, 27168, Note_on_c, 0, 72, 81
2, 27213, Note_on_c, 0, 72, 0
2, 27216, Note_on_c, 0, 74, 81
2, 27239, Note_on_c, 0, 74, 0
2, 27240, Note_on_c, 0, 76, 81
2, 27263, Note_on_c, 0, 76, 0
2, 27264, Note_on_c, 0, 77, 81
2, 27287, Note_on_c, 0, 77, 0
2, 27288, Note_on_c, 0, 79, 81
2, 27311, Note_on_c, 0, 79, 0
2, 27312, Note_on_c, 0, 81, 81
2, 27335, Note_on_c, 0, 81, 0
2, 27336, Note_on_c, 0, 83, 81
2, 27359, Note_on_c, 0, 83, 0
2, 27360, Note_on_c, 0, 84, 81
2, 27449, Note_on_c, 0, 84, 0
2, 27456, Note_on_c, 0, 76, 81
2, 27456, Note_on_c, 0, 72, 81
2, 27545, Note_on_c, 0, 76, 0
2, 27545, Note_on_c, 0, 72, 0
2, 27552, Note_on_c, 0, 74, 81
2, 27552, Note_on_c, 0, 71, 81
2, 27641, Note_on_c, 0, 74, 0
2, 27641, Note_on_c, 0, 71, 0
2, 27648, Note_on_c, 0, 72, 81
2, 27648, Note_on_c, 0, 67, 81
2, 27648, Note_on_c, 0, 64, 81
2, 27913, Note_on_c, 0, 72, 0
2, 27913, Note_on_c, 0, 67, 0
2, 27913, Note_on_c, 0, 64, 0
2, 27936, Note_on_c, 0, 79, 75
2, 28025, Note_on_c, 0, 79, 0
2, 28032, Note_on_c, 0, 84, 75
2, 28121, Note_on_c, 0, 84, 0
2, 28128, Note_on_c, 0, 76, 75
2, 28195, Note_on_c, 0, 76, 0
2, 28200, Note_on_c, 0, 79, 75
2, 28223, Note_on_c, 0, 79, 0
2, 28224, Note_on_c, 0, 77, 75
2, 28313, Note_on_c, 0, 77, 0
2, 28320, Note_on_c, 0, 86, 75
2, 28409, Note_on_c, 0, 86, 0
2, 28416, Note_on_c, 0, 74, 75
2, 28483, Note_on_c, 0, 74, 0
2, 28488, Note_on_c, 0, 77, 75
2, 28511, Note_on_c, 0, 77, 0
2, 28512, Note_on_c, 0, 76, 75
2, 28601, Note_on_c, 0, 76, 0
2, 28608, Note_on_c, 0, 79, 75
2, 28697, Note_on_c, 0, 79, 0
2, 28704, Note_on_c, 0, 80, 75
2, 28771, Note_on_c, 0, 80, 0
2, 28776, Note_on_c, 0, 81, 75
2, 28799, Note_on_c, 0, 81, 0
2, 28800, Note_on_c, 0, 72, 75
2, 28889, Note_on_c, 0, 72, 0
2, 28896, Note_on_c, 0, 71, 75
2, 28985, Note_on_c, 0, 71, 0
2, 29088, Note_on_c, 0, 60, 81
2, 29104, Note_on_c, 0, 64, 81
2, 29120, Note_on_c, 0, 67, 81
2, 29177, Note_on_c, 0, 67, 0
2, 29177, Note_on_c, 0, 64, 0
2, 29177, Note_on_c, 0, 60, 0
2, 29184, Note_on_c, 0, 72, 81
2, 29207, Note_on_c, 0, 72, 0
2, 29208, Note_on_c, 0, 71, 81
2, 29231, Note_on_c, 0, 71, 0
2, 29232, Note_on_c, 0, 72, 81
2, 29255, Note_on_c, 0, 72, 0
2, 29256, Note_on_c, 0, 74, 81
2, 29279, Note_on_c, 0, 74, 0
2, 29280, Note_on_c, 0, 76, 81
2, 29303, Note_on_c, 0, 76, 0
2, 29304, Note_on_c, 0, 74, 81
2, 29327, Note_on_c, 0, 74, 0
2, 29328, Note_on_c, 0, 76, 81
2, 29351, Note_on_c, 0, 76, 0
2, 29352, Note_on_c, 0, 77, 81
2, 29375, Note_on_c, 0, 77, 0
2, 29376, Note_on_c, 0, 72, 81
2, 29392, Note_on_c, 0, 76, 81
2, 29408, Note_on_c, 0, 79, 81
2, 29465, Note_on_c, 0, 79, 0
2, 29465, Note_on_c, 0, 76, 0
2, 29465, Note_on_c, 0, 72, 0
2, 29472, Note_on_c, 0, 72, 81
2, 29517, Note_on_c, 0, 72, 0
2, 29520, Note_on_c, 0, 74, 81
2, 29543, Note_on_c, 0, 74, 0
2, 29544, Note_on_c, 0, 76, 81
2, 29567, Note_on_c, 0, 76, 0
2, 29568, Note_on_c, 0, 77, 81
2, 29591, Note_on_c, 0, 77, 0
2, 29592, Note_on_c, 0, 79, 81
2, 29615, Note_on_c, 0, 79, 0
2, 29616, Note_on_c, 0, 81, 81
2, 29639, Note_on_c, 0, 81, 0
2, 29640, Note_on_c, 0, 83, 81
2, 29663, Note_on_c, 0, 83, 0
2, 29664, Note_on_c, 0, 84, 81
2, 29753, Note_on_c, 0, 84, 0
2, 29760, Note_on_c, 0, 76, 81
2, 29760, Note_on_c, 0, 72, 81
2, 29849, Note_on_c, 0, 76, 0
2, 29849, Note_on_c, 0, 72, 0
2, 29856, Note_on_c, 0, 74, 81
2, 29856, Note_on_c, 0, 71, 81
2, 29945, Note_on_c, 0, 74, 0
2, 29945, Note_on_c, 0, 71, 0
2, 29952, Note_on_c, 0, 72, 81
2, 29952, Note_on_c, 0, 67, 81
2, 29952, Note_on_c, 0, 64, 81
2, 30217, Note_on_c, 0, 72, 0
2, 30217, Note_on_c, 0, 67, 0
2, 30217, Note_on_c, 0, 64, 0
2, 30528, End_track
3, 0, Start_track
3, 0, Program_c, 1, 0
3, 0, Control_c, 1, 7, 127
3, 0, Control_c, 1, 10, 64
3, 288, Note_on_c, 1, 60, 81
3, 288, Note_on_c, 1, 48, 81
3, 465, Note_on_c, 1, 60, 0
3, 465, Note_on_c, 1, 48, 0
3, 480, Note_on_c, 1, 60, 81
3, 569, Note_on_c, 1, 60, 0
3, 576, Note_on_c, 1, 62, 81
3, 665, Note_on_c, 1, 62, 0
3, 672, Note_on_c, 1, 59, 81
3, 761, Note_on_c, 1, 59, 0
3, 768, Note_on_c, 1, 55, 81
3, 857, Note_on_c, 1, 55, 0
3, 864, Note_on_c, 1, 60, 81
3, 953, Note_on_c, 1, 60, 0
3, 960, Note_on_c, 1, 52, 81
3, 1049, Note_on_c, 1, 52, 0
3, 1056, Note_on_c, 1, 53, 81
3, 1145, Note_on_c, 1, 53, 0
3, 1152, Note_on_c, 1, 55, 81
3, 1241, Note_on_c, 1, 55, 0
3, 1248, Note_on_c, 1, 50, 81
3, 1337, Note_on_c, 1, 50, 0
3, 1344, Note_on_c, 1, 43, 81
3, 1433, Note_on_c, 1, 43, 0
3, 1440, Note_on_c, 1, 59, 81
3, 1440, Note_on_c, 1, 55, 81
3, 1529, Note_on_c, 1, 59, 0
3, 1529, Note_on_c, 1, 55, 0
3, 1728, Note_on_c, 1, 59, 81
3, 1728, Note_on_c, 1, 55, 81
3, 1817, Note_on_c, 1, 59, 0
3, 1817, Note_on_c, 1, 55, 0
3, 2016, Note_on_c, 1, 59, 81
3, 2016, Note_on_c, 1, 55, 81
3, 2105, Note_on_c, 1, 59, 0
3, 2105, Note_on_c, 1, 55, 0
3, 2112, Note_on_c, 1, 62, 81
3, 2201, Note_on_c, 1, 62, 0
3, 2208, Note_on_c, 1, 50, 81
3, 2297, Note_on_c, 1, 50, 0
3, 2304, Note_on_c, 1, 55, 81
3, 2393, Note_on_c, 1, 55, 0
3, 2400, Note_on_c, 1, 50, 81
3, 2489, Note_on_c, 1, 50, 0
3, 2496, Note_on_c, 1, 43, 81
3, 2585, Note_on_c, 1, 43, 0
3, 2592, Note_on_c, 1, 60, 81
3, 2592, Note_on_c, 1, 48, 81
3, 2769, Note_on_c, 1, 60, 0
3, 2769, Note_on_c, 1, 48, 0
3, 2784, Note_on_c, 1, 60, 81
3, 2873, Note_on_c, 1, 60, 0
3, 2880, Note_on_c, 1, 62, 81
3, 2969, Note_on_c, 1, 62, 0
3, 2976, Note_on_c, 1, 59, 81
3, 3065, Note_on_c, 1, 59, 0
3, 3072, Note_on_c, 1, 55, 81
3, 3161, Note_on_c, 1, 55, 0
3, 3168, Note_on_c, 1, 60, 81
3, 3257, Note_on_c, 1, 60, 0
3, 3264, Note_on_c, 1, 52, 81
3, 3353, Note_on_c, 1, 52, 0
3, 3360, Note_on_c, 1, 53, 81
3, 3449, Note_on_c, 1, 53, 0
3, 3456, Note_on_c, 1, 55, 81
3, 3545, Note_on_c, 1, 55, 0
3, 3552, Note_on_c, 1, 50, 81
3, 3641, Note_on_c, 1, 50, 0
3, 3648, Note_on_c, 1, 43, 81
3, 3737, Note_on_c, 1, 43, 0
3, 3744, Note_on_c, 1, 59, 81
3, 3744, Note_on_c, 1, 55, 81
3, 3833, Note_on_c, 1, 59, 0
3, 3833, Note_on_c, 1, 55, 0
3, 4032, Note_on_c, 1, 59, 81
3, 4032, Note_on_c, 1, 55, 81
3, 4121, Note_on_c, 1, 59, 0
3, 4121, Note_on_c, 1, 55, 0
3, 4320, Note_on_c, 1, 59, 81
3, 4320, Note_on_c, 1, 55, 81
3, 4409, Note_on_c, 1, 59, 0
3, 4409, Note_on_c, 1, 55, 0
3, 4416, Note_on_c, 1, 62, 81
3, 4505, Note_on_c, 1, 62, 0
3, 4512, Note_on_c, 1, 50, 81
3, 4601, Note_on_c, 1, 50, 0
3, 4608, Note_on_c, 1, 55, 81
3, 4697, Note_on_c, 1, 55, 0
3, 4704, Note_on_c, 1, 50, 81
3, 4793, Note_on_c, 1, 50, 0
3, 4800, Note_on_c, 1, 43, 81
3, 4889, Note_on_c, 1, 43, 0
3, 4896, Note_on_c, 1, 76, 75
3, 5073, Note_on_c, 1, 76, 0
3, 5088, Note_on_c, 1, 72, 75
3, 5177, Note_on_c, 1, 72, 0
3, 5184, Note_on_c, 1, 74, 75
3, 5273, Note_on_c, 1, 74, 0
3, 5280, Note_on_c, 1, 71, 75
3, 5369, Note_on_c, 1, 71, 0
3, 5376, Note_on_c, 1, 67, 75
3, 5465, Note_on_c, 1, 67, 0
3, 5472, Note_on_c, 1, 72, 75
3, 5561, Note_on_c, 1, 72, 0
3, 5568, Note_on_c, 1, 64, 75
3, 5657, Note_on_c, 1, 64, 0
3, 5664, Note_on_c, 1, 65, 75
3, 5753, Note_on_c, 1, 65, 0
3, 5760, Note_on_c, 1, 67, 75
3, 5849, Note_on_c, 1, 67, 0
3, 5856, Note_on_c, 1, 62, 75
3, 5945, Note_on_c, 1, 62, 0
3, 5952, Note_on_c, 1, 55, 75
3, 6041, Note_on_c, 1, 55, 0
3, 6048, Note_on_c, 1, 48, 81
3, 6072, Note_on_c, 1, 52, 81
3, 6096, Note_on_c, 1, 55, 81
3, 6181, Note_on_c, 1, 55, 0
3, 6181, Note_on_c, 1, 52, 0
3, 6181, Note_on_c, 1, 48, 0
3, 6336, Note_on_c, 1, 48, 81
3, 6354, Note_on_c, 1, 52, 81
3, 6372, Note_on_c, 1, 55, 81
3, 6390, Note_on_c, 1, 60, 81
3, 6469, Note_on_c, 1, 60, 0
3, 6469, Note_on_c, 1, 55, 0
3, 6469, Note_on_c, 1, 52, 0
3, 6469, Note_on_c, 1, 48, 0
3, 6624, Note_on_c, 1, 52, 81
3, 6713, Note_on_c, 1, 52, 0
3, 6720, Note_on_c, 1, 55, 81
3, 6809, Note_on_c, 1, 55, 0
3, 6816, Note_on_c, 1, 43, 81
3, 6905, Note_on_c, 1, 43, 0
3, 6912, Note_on_c, 1, 48, 81
3, 7001, Note_on_c, 1, 48, 0
3, 7008, Note_on_c, 1, 43, 81
3, 7097, Note_on_c, 1, 43, 0
3, 7104, Note_on_c, 1, 36, 81
3, 7171, Note_on_c, 1, 36, 0
3, 7200, Note_on_c, 1, 76, 75
3, 7377, Note_on_c, 1, 76, 0
3, 7392, Note_on_c, 1, 72, 75
3, 7481, Note_on_c, 1, 72, 0
3, 7488, Note_on_c, 1, 74, 75
3, 7577, Note_on_c, 1, 74, 0
3, 7584, Note_on_c, 1, 71, 75
3, 7673, Note_on_c, 1, 71, 0
3, 7680, Note_on_c, 1, 67, 75
3, 7769, Note_on_c, 1, 67, 0
3, 7776, Note_on_c, 1, 72, 75
3, 7865, Note_on_c, 1, 72, 0
3, 7872, Note_on_c, 1, 64, 75
3, 7961, Note_on_c, 1, 64, 0
3, 7968, Note_on_c, 1, 65, 75
3, 8057, Note_on_c, 1, 65, 0
3, 8064, Note_on_c, 1, 67, 75
3, 8153, Note_on_c, 1, 67, 0
3, 8160, Note_on_c, 1, 62, 75
3, 8249, Note_on_c, 1, 62, 0
3, 8256, Note_on_c, 1, 55, 75
3, 8345, Note_on_c, 1, 55, 0
3, 8352, Note_on_c, 1, 48, 81
3, 8376, Note_on_c, 1, 52, 81
3, 8400, Note_on_c, 1, 55, 81
3, 8485, Note_on_c, 1, 55, 0
3, 8485, Note_on_c, 1, 52, 0
3, 8485, Note_on_c, 1, 48, 0
3, 8640, Note_on_c, 1, 48, 81
3, 8658, Note_on_c, 1, 52, 81
3, 8676, Note_on_c, 1, 55, 81
3, 8694, Note_on_c, 1, 60, 81
3, 8773, Note_on_c, 1, 60, 0
3, 8773, Note_on_c, 1, 55, 0
3, 8773, Note_on_c, 1, 52, 0
3, 8773, Note_on_c, 1, 48, 0
3, 8928, Note_on_c, 1, 52, 81
3, 9017, Note_on_c, 1, 52, 0
3, 9024, Note_on_c, 1, 55, 81
3, 9113, Note_on_c, 1, 55, 0
3, 9120, Note_on_c, 1, 43, 81
3, 9209, Note_on_c, 1, 43, 0
3, 9216, Note_on_c, 1, 48, 81
3, 9305, Note_on_c, 1, 48, 0
3, 9312, Note_on_c, 1, 43, 81
3, 9401, Note_on_c, 1, 43, 0
3, 9408, Note_on_c, 1, 36, 81
3, 9475, Note_on_c, 1, 36, 0
3, 9504, Note_on_c, 1, 36, 69
3, 9593, Note_on_c, 1, 36, 0
3, 9600, Note_on_c, 1, 55, 75
3, 9600, Note_on_c, 1, 51, 75
3, 9689, Note_on_c, 1, 55, 0
3, 9689, Note_on_c, 1, 51, 0
3, 9696, Note_on_c, 1, 53, 75
3, 9696, Note_on_c, 1, 50, 75
3, 9785, Note_on_c, 1, 53, 0
3, 9785, Note_on_c, 1, 50, 0
3, 9792, Note_on_c, 1, 51, 75
3, 9792, Note_on_c, 1, 48, 75
3, 9881, Note_on_c, 1, 51, 0
3, 9881, Note_on_c, 1, 48, 0
3, 10080, Note_on_c, 1, 55, 69
3, 10169, Note_on_c, 1, 55, 0
3, 10176, Note_on_c, 1, 62, 75
3, 10176, Note_on_c, 1, 59, 75
3, 10265, Note_on_c, 1, 62, 0
3, 10265, Note_on_c, 1, 59, 0
3, 10272, Note_on_c, 1, 60, 75
3, 10272, Note_on_c, 1, 57, 75
3, 10361, Note_on_c, 1, 60, 0
3, 10361, Note_on_c, 1, 57, 0
3, 10368, Note_on_c, 1, 59, 75
3, 10368, Note_on_c, 1, 55, 75
3, 10457, Note_on_c, 1, 59, 0
3, 10457, Note_on_c, 1, 55, 0
3, 10656, Note_on_c, 1, 60, 75
3, 10745, Note_on_c, 1, 60, 0
3, 10752, Note_on_c, 1, 63, 75
3, 10841, Note_on_c, 1, 63, 0
3, 10848, Note_on_c, 1, 60, 75
3, 10937, Note_on_c, 1, 60, 0
3, 10944, Note_on_c, 1, 54, 75
3, 11121, Note_on_c, 1, 54, 0
3, 11232, Note_on_c, 1, 55, 75
3, 11321, Note_on_c, 1, 55, 0
3, 11328, Note_on_c, 1, 62, 75
3, 11417, Note_on_c, 1, 62, 0
3, 11424, Note_on_c, 1, 50, 75
3, 11513, Note_on_c, 1, 50, 0
3, 11520, Note_on_c, 1, 55, 75
3, 11565, Note_on_c, 1, 55, 0
3, 11568, Note_on_c, 1, 43, 74
3, 11613, Note_on_c, 1, 43, 0
3, 11616, Note_on_c, 1, 55, 73
3, 11661, Note_on_c, 1, 55, 0
3, 11664, Note_on_c, 1, 53, 72
3, 11709, Note_on_c, 1, 53, 0
3, 11712, Note_on_c, 1, 51, 71
3, 11757, Note_on_c, 1, 51, 0
3, 11760, Note_on_c, 1, 50, 70
3, 11805, Note_on_c, 1, 50, 0
3, 11808, Note_on_c, 1, 36, 69
3, 11897, Note_on_c, 1, 36, 0
3, 11904, Note_on_c, 1, 55, 75
3, 11904, Note_on_c, 1, 51, 75
3, 11993, Note_on_c, 1, 55, 0
3, 11993, Note_on_c, 1, 51, 0
3, 12000, Note_on_c, 1, 53, 75
3, 12000, Note_on_c, 1, 50, 75
3, 12089, Note_on_c, 1, 53, 0
3, 12089, Note_on_c, 1, 50, 0
3, 12096, Note_on_c, 1, 51, 75
3, 12096, Note_on_c, 1, 48, 75
3, 12185, Note_on_c, 1, 51, 0
3, 12185, Note_on_c, 1, 48, 0
3, 12384, Note_on_c, 1, 55, 69
3, 12473, Note_on_c, 1, 55, 0
3, 12480, Note_on_c, 1, 62, 75
3, 12480, Note_on_c, 1, 59, 75
3, 12569, Note_on_c, 1, 62, 0
3, 12569, Note_on_c, 1, 59, 0
3, 12576, Note_on_c, 1, 60, 75
3, 12576, Note_on_c, 1, 57, 75
3, 12665, Note_on_c, 1, 60, 0
3, 12665, Note_on_c, 1, 57, 0
3, 12672, Note_on_c, 1, 59, 75
3, 12672, Note_on_c, 1, 55, 75
3, 12761, Note_on_c, 1, 59, 0
3, 12761, Note_on_c, 1, 55, 0
3, 12960, Note_on_c, 1, 60, 75
3, 13049, Note_on_c, 1, 60, 0
3, 13056, Note_on_c, 1, 63, 75
3, 13145, Note_on_c, 1, 63, 0
3, 13152, Note_on_c, 1, 60, 75
3, 13241, Note_on_c, 1, 60, 0
3, 13248, Note_on_c, 1, 54, 75
3, 13425, Note_on_c, 1, 54, 0
3, 13536, Note_on_c, 1, 55, 75
3, 13625, Note_on_c, 1, 55, 0
3, 13632, Note_on_c, 1, 62, 75
3, 13721, Note_on_c, 1, 62, 0
3, 13728, Note_on_c, 1, 50, 75
3, 13817, Note_on_c, 1, 50, 0
3, 13824, Note_on_c, 1, 55, 75
3, 13869, Note_on_c, 1, 55, 0
3, 13872, Note_on_c, 1, 43, 74
3, 13917, Note_on_c, 1, 43, 0
3, 13920, Note_on_c, 1, 55, 73
3, 13965, Note_on_c, 1, 55, 0
3, 13968, Note_on_c, 1, 53, 72
3, 14013, Note_on_c, 1, 53, 0
3, 14016, Note_on_c, 1, 51, 71
3, 14061, Note_on_c, 1, 51, 0
3, 14064, Note_on_c, 1, 50, 70
3, 14109, Note_on_c, 1, 50, 0
3, 14112, Note_on_c, 1, 48, 69
3, 14201, Note_on_c, 1, 48, 0
3, 14208, Note_on_c, 1, 64, 75
3, 14208, Note_on_c, 1, 60, 75
3, 14297, Note_on_c, 1, 64, 0
3, 14297, Note_on_c, 1, 60, 0
3, 14304, Note_on_c, 1, 65, 75
3, 14304, Note_on_c, 1, 62, 75
3, 14393, Note_on_c, 1, 65, 0
3, 14393, Note_on_c, 1, 62, 0
3, 14400, Note_on_c, 1, 67, 75
3, 14400, Note_on_c, 1, 64, 75
3, 14489, Note_on_c, 1, 67, 0
3, 14489, Note_on_c, 1, 64, 0
3, 14592, Note_on_c, 1, 65, 75
3, 14681, Note_on_c, 1, 65, 0
3, 14688, Note_on_c, 1, 50, 75
3, 14777, Note_on_c, 1, 50, 0
3, 14784, Note_on_c, 1, 66, 81
3, 14784, Note_on_c, 1, 62, 81
3, 14873, Note_on_c, 1, 66, 0
3, 14873, Note_on_c, 1, 62, 0
3, 14880, Note_on_c, 1, 67, 81
3, 14880, Note_on_c, 1, 64, 81
3, 14969, Note_on_c, 1, 67, 0
3, 14969, Note_on_c, 1, 64, 0
3, 14976, Note_on_c, 1, 69, 81
3, 14976, Note_on_c, 1, 66, 81
3, 15065, Note_on_c, 1, 69, 0
3, 15065, Note_on_c, 1, 66, 0
3, 15168, Note_on_c, 1, 67, 75
3, 15257, Note_on_c, 1, 67, 0
3, 15264, Note_on_c, 1, 48, 69
3, 15353, Note_on_c, 1, 48, 0
3, 15360, Note_on_c, 1, 55, 75
3, 15360, Note_on_c, 1, 51, 75
3, 15449, Note_on_c, 1, 55, 0
3, 15449, Note_on_c, 1, 51, 0
3, 15456, Note_on_c, 1, 53, 75
3, 15456, Note_on_c, 1, 50, 75
3, 15545, Note_on_c, 1, 53, 0
3, 15545, Note_on_c, 1, 50, 0
3, 15552, Note_on_c, 1, 51, 75
3, 15552, Note_on_c, 1, 48, 75
3, 15641, Note_on_c, 1, 51, 0
3, 15641, Note_on_c, 1, 48, 0
3, 15840, Note_on_c, 1, 55, 69
3, 15929, Note_on_c, 1, 55, 0
3, 15936, Note_on_c, 1, 62, 69
3, 15936, Note_on_c, 1, 59, 69
3, 16025, Note_on_c, 1, 62, 0
3, 16025, Note_on_c, 1, 59, 0
3, 16032, Note_on_c, 1, 60, 69
3, 16032, Note_on_c, 1, 57, 69
3, 16121, Note_on_c, 1, 60, 0
3, 16121, Note_on_c, 1, 57, 0
3, 16128, Note_on_c, 1, 59, 69
3, 16128, Note_on_c, 1, 55, 69
3, 16217, Note_on_c, 1, 59, 0
3, 16217, Note_on_c, 1, 55, 0
3, 16416, Note_on_c, 1, 60, 69
3, 16505, Note_on_c, 1, 60, 0
3, 16512, Note_on_c, 1, 63, 69
3, 16601, Note_on_c, 1, 63, 0
3, 16608, Note_on_c, 1, 60, 69
3, 16697, Note_on_c, 1, 60, 0
3, 16704, Note_on_c, 1, 59, 69
3, 16881, Note_on_c, 1, 59, 0
3, 16992, Note_on_c, 1, 60, 69
3, 17081, Note_on_c, 1, 60, 0
3, 17088, Note_on_c, 1, 55, 69
3, 17177, Note_on_c, 1, 55, 0
3, 17184, Note_on_c, 1, 43, 69
3, 17273, Note_on_c, 1, 43, 0
3, 17280, Note_on_c, 1, 48, 69
3, 17369, Note_on_c, 1, 48, 0
3, 17376, Note_on_c, 1, 55, 69
3, 17421, Note_on_c, 1, 55, 0
3, 17424, Note_on_c, 1, 53, 67
3, 17469, Note_on_c, 1, 53, 0
3, 17472, Note_on_c, 1, 51, 66
3, 17517, Note_on_c, 1, 51, 0
3, 17520, Note_on_c, 1, 50, 64
3, 17565, Note_on_c, 1, 50, 0
3, 17568, Note_on_c, 1, 48, 69
3, 17657, Note_on_c, 1, 48, 0
3, 17664, Note_on_c, 1, 64, 75
3, 17664, Note_on_c, 1, 60, 75
3, 17753, Note_on_c, 1, 64, 0
3, 17753, Note_on_c, 1, 60, 0
3, 17760, Note_on_c, 1, 65, 75
3, 17760, Note_on_c, 1, 62, 75
3, 17849, Note_on_c, 1, 65, 0
3, 17849, Note_on_c, 1, 62, 0
3, 17856, Note_on_c, 1, 67, 75
3, 17856, Note_on_c, 1, 64, 75
3, 17945, Note_on_c, 1, 67, 0
3, 17945, Note_on_c, 1, 64, 0
3, 18048, Note_on_c, 1, 65, 75
3, 18137, Note_on_c, 1, 65, 0
3, 18144, Note_on_c, 1, 50, 75
3, 18233, Note_on_c, 1, 50, 0
3, 18240, Note_on_c, 1, 66, 81
3, 18240, Note_on_c, 1, 62, 81
3, 18329, Note_on_c, 1, 66, 0
3, 18329, Note_on_c, 1, 62, 0
3, 18336, Note_on_c, 1, 67, 81
3, 18336, Note_on_c, 1, 64, 81
3, 18425, Note_on_c, 1, 67, 0
3, 18425, Note_on_c, 1, 64, 0
3, 18432, Note_on_c, 1, 69, 81
3, 18432, Note_on_c, 1, 66, 81
3, 18521, Note_on_c, 1, 69, 0
3, 18521, Note_on_c, 1, 66, 0
3, 18624, Note_on_c, 1, 67, 75
3, 18713, Note_on_c, 1, 67, 0
3, 18720, Note_on_c, 1, 48, 69
3, 18809, Note_on_c, 1, 48, 0
3, 18816, Note_on_c, 1, 55, 75
3, 18816, Note_on_c, 1, 51, 75
3, 18905, Note_on_c, 1, 55, 0
3, 18905, Note_on_c, 1, 51, 0
3, 18912, Note_on_c, 1, 53, 75
3, 18912, Note_on_c, 1, 50, 75
3, 19001, Note_on_c, 1, 53, 0
3, 19001, Note_on_c, 1, 50, 0
3, 19008, Note_on_c, 1, 51, 75
3, 19008, Note_on_c, 1, 48, 75
3, 19097, Note_on_c, 1, 51, 0
3, 19097, Note_on_c, 1, 48, 0
3, 19296, Note_on_c, 1, 55, 69
3, 19385, Note_on_c, 1, 55, 0
3, 19392, Note_on_c, 1, 62, 69
3, 19392, Note_on_c, 1, 59, 69
3, 19481, Note_on_c, 1, 62, 0
3, 19481, Note_on_c, 1, 59, 0
3, 19488, Note_on_c, 1, 60, 69
3, 19488, Note_on_c, 1, 57, 69
3, 19577, Note_on_c, 1, 60, 0
3, 19577, Note_on_c, 1, 57, 0
3, 19584, Note_on_c, 1, 59, 69
3, 19584, Note_on_c, 1, 55, 69
3, 19673, Note_on_c, 1, 59, 0
3, 19673, Note_on_c, 1, 55, 0
3, 19872, Note_on_c, 1, 60, 69
3, 19961, Note_on_c, 1, 60, 0
3, 19968, Note_on_c, 1, 63, 69
3, 20057, Note_on_c, 1, 63, 0
3, 20064, Note_on_c, 1, 60, 69
3, 20153, Note_on_c, 1, 60, 0
3, 20160, Note_on_c, 1, 59, 69
3, 20337, Note_on_c, 1, 59, 0
3, 20448, Note_on_c, 1, 60, 69
3, 20537, Note_on_c, 1, 60, 0
3, 20544, Note_on_c, 1, 55, 69
3, 20633, Note_on_c, 1, 55, 0
3, 20640, Note_on_c, 1, 43, 69
3, 20729, Note_on_c, 1, 43, 0
3, 20736, Note_on_c, 1, 48, 69
3, 20825, Note_on_c, 1, 48, 0
3, 20832, Note_on_c, 1, 43, 69
3, 20921, Note_on_c, 1, 43, 0
3, 20928, Note_on_c, 1, 36, 69
3, 21017, Note_on_c, 1, 36, 0
3, 21024, Note_on_c, 1, 60, 81
3, 21024, Note_on_c, 1, 48, 81
3, 21201, Note_on_c, 1, 60, 0
3, 21201, Note_on_c, 1, 48, 0
3, 21216, Note_on_c, 1, 60, 81
3, 21305, Note_on_c, 1, 60, 0
3, 21312, Note_on_c, 1, 62, 81
3, 21401, Note_on_c, 1, 62, 0
3, 21408, Note_on_c, 1, 59, 81
3, 21497, Note_on_c, 1, 59, 0
3, 21504, Note_on_c, 1, 55, 81
3, 21593, Note_on_c, 1, 55, 0
3, 21600, Note_on_c, 1, 60, 81
3, 21689, Note_on_c, 1, 60, 0
3, 21696, Note_on_c, 1, 52, 81
3, 21785, Note_on_c, 1, 52, 0
3, 21792, Note_on_c, 1, 53, 81
3, 21881, Note_on_c, 1, 53, 0
3, 21888, Note_on_c, 1, 55, 81
3, 21977, Note_on_c, 1, 55, 0
3, 21984, Note_on_c, 1, 50, 81
3, 22073, Note_on_c, 1, 50, 0
3, 22080, Note_on_c, 1, 43, 81
3, 22169, Note_on_c, 1, 43, 0
3, 22176, Note_on_c, 1, 59, 81
3, 22176, Note_on_c, 1, 55, 81
3, 22265, Note_on_c, 1, 59, 0
3, 22265, Note_on_c, 1, 55, 0
3, 22464, Note_on_c, 1, 59, 81
3, 22464, Note_on_c, 1, 55, 81
3, 22553, Note_on_c, 1, 59, 0
3, 22553, Note_on_c, 1, 55, 0
3, 22752, Note_on_c, 1, 59, 81
3, 22752, Note_on_c, 1, 55, 81
3, 22841, Note_on_c, 1, 59, 0
3, 22841, Note_on_c, 1, 55, 0
3, 22848, Note_on_c, 1, 62, 81
3, 22937, Note_on_c, 1, 62, 0
3, 22944, Note_on_c, 1, 50, 81
3, 23033, Note_on_c, 1, 50, 0
3, 23040, Note_on_c, 1, 55, 81
3, 23129, Note_on_c, 1, 55, 0
3, 23136, Note_on_c, 1, 50, 81
3, 23225, Note_on_c, 1, 50, 0
3, 23232, Note_on_c, 1, 43, 81
3, 23321, Note_on_c, 1, 43, 0
3, 23328, Note_on_c, 1, 60, 81
3, 23328, Note_on_c, 1, 48, 81
3, 23505, Note_on_c, 1, 60, 0
3, 23505, Note_on_c, 1, 48, 0
3, 23520, Note_on_c, 1, 60, 81
3, 23609, Note_on_c, 1, 60, 0
3, 23616, Note_on_c, 1, 62, 81
3, 23705, Note_on_c, 1, 62, 0
3, 23712, Note_on_c, 1, 59, 81
3, 23801, Note_on_c, 1, 59, 0
3, 23808, Note_on_c, 1, 55, 81
3, 23897, Note_on_c, 1, 55, 0
3, 23904, Note_on_c, 1, 60, 81
3, 23993, Note_on_c, 1, 60, 0
3, 24000, Note_on_c, 1, 52, 81
3, 24089, Note_on_c, 1, 52, 0
3, 24096, Note_on_c, 1, 53, 81
3, 24185, Note_on_c, 1, 53, 0
3, 24192, Note_on_c, 1, 55, 81
3, 24281, Note_on_c, 1, 55, 0
3, 24288, Note_on_c, 1, 50, 81
3, 24377, Note_on_c, 1, 50, 0
3, 24384, Note_on_c, 1, 43, 81
3, 24473, Note_on_c, 1, 43, 0
3, 24480, Note_on_c, 1, 59, 81
3, 24480, Note_on_c, 1, 55, 81
3, 24569, Note_on_c, 1, 59, 0
3, 24569, Note_on_c, 1, 55, 0
3, 24768, Note_on_c, 1, 59, 81
3, 24768, Note_on_c, 1, 55, 81
3, 24857, Note_on_c, 1, 59, 0
3, 24857, Note_on_c, 1, 55, 0
3, 25056, Note_on_c, 1, 59, 81
3, 25056, Note_on_c, 1, 55, 81
3, 25145, Note_on_c, 1, 59, 0
3, 25145, Note_on_c, 1, 55, 0
3, 25152, Note_on_c, 1, 62, 81
3, 25241, Note_on_c, 1, 62, 0
3, 25248, Note_on_c, 1, 50, 81
3, 25337, Note_on_c, 1, 50, 0
3, 25344, Note_on_c, 1, 55, 81
3, 25433, Note_on_c, 1, 55, 0
3, 25440, Note_on_c, 1, 50, 81
3, 25529, Note_on_c, 1, 50, 0
3, 25536, Note_on_c, 1, 43, 81
3, 25625, Note_on_c, 1, 43, 0
3, 25632, Note_on_c, 1, 76, 75
3, 25809, Note_on_c, 1, 76, 0
3, 25824, Note_on_c, 1, 72, 75
3, 25913, Note_on_c, 1, 72, 0
3, 25920, Note_on_c, 1, 74, 75
3, 26009, Note_on_c, 1, 74, 0
3, 26016, Note_on_c, 1, 71, 75
3, 26105, Note_on_c, 1, 71, 0
3, 26112, Note_on_c, 1, 67, 75
3, 26201, Note_on_c, 1, 67, 0
3, 26208, Note_on_c, 1, 72, 75
3, 26297, Note_on_c, 1, 72, 0
3, 26304, Note_on_c, 1, 64, 75
3, 26393, Note_on_c, 1, 64, 0
3, 26400, Note_on_c, 1, 65, 75
3, 26489, Note_on_c, 1, 65, 0
3, 26496, Note_on_c, 1, 67, 75
3, 26585, Note_on_c, 1, 67, 0
3, 26592, Note_on_c, 1, 62, 75
3, 26681, Note_on_c, 1, 62, 0
3, 26688, Note_on_c, 1, 55, 75
3, 26777, Note_on_c, 1, 55, 0
3, 26784, Note_on_c, 1, 48, 81
3, 26800, Note_on_c, 1, 52, 81
3, 26816, Note_on_c, 1, 55, 81
3, 26873, Note_on_c, 1, 55, 0
3, 26873, Note_on_c, 1, 52, 0
3, 26873, Note_on_c, 1, 48, 0
3, 27072, Note_on_c, 1, 48, 81
3, 27090, Note_on_c, 1, 52, 81
3, 27108, Note_on_c, 1, 55, 81
3, 27126, Note_on_c, 1, 60, 81
3, 27205, Note_on_c, 1, 60, 0
3, 27205, Note_on_c, 1, 55, 0
3, 27205, Note_on_c, 1, 52, 0
3, 27205, Note_on_c, 1, 48, 0
3, 27360, Note_on_c, 1, 52, 81
3, 27449, Note_on_c, 1, 52, 0
3, 27456, Note_on_c, 1, 55, 81
3, 27545, Note_on_c, 1, 55, 0
3, 27552, Note_on_c, 1, 43, 81
3, 27641, Note_on_c, 1, 43, 0
3, 27648, Note_on_c, 1, 48, 81
3, 27737, Note_on_c, 1, 48, 0
3, 27744, Note_on_c, 1, 43, 81
3, 27833, Note_on_c, 1, 43, 0
3, 27840, Note_on_c, 1, 36, 81
3, 27929, Note_on_c, 1, 36, 0
3, 27936, Note_on_c, 1, 76, 75
3, 28113, Note_on_c, 1, 76, 0
3, 28128, Note_on_c, 1, 72, 75
3, 28217, Note_on_c, 1, 72, 0
3, 28224, Note_on_c, 1, 74, 75
3, 28313, Note_on_c, 1, 74, 0
3, 28320, Note_on_c, 1, 71, 75
3, 28409, Note_on_c, 1, 71, 0
3, 28416, Note_on_c, 1, 67, 75
3, 28505, Note_on_c, 1, 67, 0
3, 28512, Note_on_c, 1, 72, 75
3, 28601, Note_on_c, 1, 72, 0
3, 28608, Note_on_c, 1, 64, 75
3, 28697, Note_on_c, 1, 64, 0
3, 28704, Note_on_c, 1, 65, 75
3, 28793, Note_on_c, 1, 65, 0
3, 28800, Note_on_c, 1, 67, 75
3, 28889, Note_on_c, 1, 67, 0
3, 28896, Note_on_c, 1, 62, 75
3, 28985, Note_on_c, 1, 62, 0
3, 28992, Note_on_c, 1, 55, 75
3, 29081, Note_on_c, 1, 55, 0
3, 29088, Note_on_c, 1, 48, 81
3, 29104, Note_on_c, 1, 52, 81
3, 29120, Note_on_c, 1, 55, 81
3, 29177, Note_on_c, 1, 55, 0
3, 29177, Note_on_c, 1, 52, 0
3, 29177, Note_on_c, 1, 48, 0
3, 29376, Note_on_c, 1, 48, 81
3, 29394, Note_on_c, 1, 52, 81
3, 29412, Note_on_c, 1, 55, 81
3, 29430, Note_on_c, 1, 60, 81
3, 29509, Note_on_c, 1, 60, 0
3, 29509, Note_on_c, 1, 55, 0
3, 29509, Note_on_c, 1, 52, 0
3, 29509, Note_on_c, 1, 48, 0
3, 29664, Note_on_c, 1, 52, 81
3, 29753, Note_on_c, 1, 52, 0
3, 29760, Note_on_c, 1, 55, 81
3, 29849, Note_on_c, 1, 55, 0
3, 29856, Note_on_c, 1, 43, 81
3, 29945, Note_on_c, 1, 43, 0
3, 29952, Note_on_c, 1, 48, 81
3, 30041, Note_on_c, 1, 48, 0
3, 30048, Note_on_c, 1, 43, 81
3, 30137, Note_on_c, 1, 43, 0
3, 30144, Note_on_c, 1, 36, 81
3, 30233, Note_on_c, 1, 36, 0
3, 30240, Note_on_c, 1, 36, 0
3, 30329, Note_on_c, 1, 36, 0
3, 30528, End_track
4, 0, Start_track
4, 0, Title_t, "<No Title>"
4, 0, End_track
0, 0, End_of_file
