0, 0, Header, 1, 6, 96
1, 0, Start_track
1, 0, Copyright_t, "Copyright  2000 <copyright holder>"
1, 0, Text_t, "Sonata I\015\012"
1, 0, Text_t, "Haydn\015\012"
1, 0, Sequencer_specific, 16, 68, 87, 77, 90, 86, 82, 83, 78, 32, 55, 46, 49, 46, 50, 46, 48
1, 0, Time_signature, 3, 2, 24, 8
1, 0, Tempo, 1333333
1, 0, Key_signature, 3, "major"
1, 3168, Time_signature, 2, 2, 24, 8
1, 3360, Time_signature, 3, 2, 24, 8
1, 4344, Tempo, 3000000
1, 4356, Tempo, 1500000
1, 4464, Tempo, 3000000
1, 4512, Time_signature, 1, 2, 24, 8
1, 4512, Tempo, 1333333
1, 7776, Time_signature, 2, 2, 24, 8
1, 7968, Time_signature, 3, 2, 24, 8
1, 8952, Tempo, 3000000
1, 8964, Tempo, 1500000
1, 9072, Tempo, 3000000
1, 9120, Time_signature, 1, 2, 24, 8
1, 9120, Tempo, 1333333
1, 9216, Time_signature, 3, 2, 24, 8
1, 9504, Tempo, 461538
1, 9792, Tempo, 1333333
1, 10080, Tempo, 461538
1, 10368, Tempo, 1333333
1, 12504, Tempo, 1714285
1, 12528, Tempo, 2000000
1, 12624, Tempo, 2400000
1, 12672, Time_signature, 1, 2, 24, 8
1, 12672, Tempo, 1000000
1, 12768, Time_signature, 3, 2, 24, 8
1, 12768, Tempo, 1333333
1, 14904, Tempo, 2000000
1, 15000, Tempo, 2400000
1, 15072, Tempo, 400000
1, 34944, Tempo, 444444
1, 35040, Tempo, 461538
1, 35136, Tempo, 480000
1, 35232, Tempo, 500000
1, 35280, Tempo, 400000
1, 37248, Tempo, 1000000
1, 37344, Tempo, 400000
1, 44736, Tempo, 600000
1, 45504, Tempo, 400000
1, 49728, Tempo, 461538
1, 50400, Tempo, 600000
1, 50784, End_track
2, 0, Start_track
2, 0, Program_c, 0, 0
2, 0, Control_c, 0, 7, 127
2, 0, Control_c, 0, 10, 64
2, 0, Note_on_c, 0, 76, 64
2, 0, Note_on_c, 0, 73, 64
2, 47, Note_on_c, 0, 76, 0
2, 47, Note_on_c, 0, 73, 0
2, 48, Note_on_c, 0, 76, 64
2, 48, Note_on_c, 0, 73, 64
2, 71, Note_on_c, 0, 76, 0
2, 71, Note_on_c, 0, 73, 0
2, 72, Note_on_c, 0, 76, 64
2, 72, Note_on_c, 0, 73, 64
2, 95, Note_on_c, 0, 76, 0
2, 95, Note_on_c, 0, 73, 0
2, 96, Note_on_c, 0, 81, 64
2, 96, Note_on_c, 0, 73, 64
2, 141, Note_on_c, 0, 81, 0
2, 141, Note_on_c, 0, 73, 0
2, 144, Note_on_c, 0, 76, 64
2, 144, Note_on_c, 0, 73, 64
2, 167, Note_on_c, 0, 76, 0
2, 167, Note_on_c, 0, 73, 0
2, 168, Note_on_c, 0, 76, 64
2, 168, Note_on_c, 0, 73, 64
2, 191, Note_on_c, 0, 76, 0
2, 191, Note_on_c, 0, 73, 0
2, 192, Note_on_c, 0, 76, 64
2, 192, Note_on_c, 0, 73, 64
2, 237, Note_on_c, 0, 76, 0
2, 237, Note_on_c, 0, 73, 0
2, 240, Note_on_c, 0, 76, 64
2, 240, Note_on_c, 0, 73, 64
2, 263, Note_on_c, 0, 76, 0
2, 263, Note_on_c, 0, 73, 0
2, 264, Note_on_c, 0, 76, 64
2, 264, Note_on_c, 0, 73, 64
2, 287, Note_on_c, 0, 76, 0
2, 287, Note_on_c, 0, 73, 0
2, 288, Note_on_c, 0, 74, 64
2, 288, Note_on_c, 0, 71, 64
2, 333, Note_on_c, 0, 74, 0
2, 333, Note_on_c, 0, 71, 0
2, 336, Note_on_c, 0, 74, 64
2, 336, Note_on_c, 0, 71, 64
2, 359, Note_on_c, 0, 74, 0
2, 359, Note_on_c, 0, 71, 0
2, 360, Note_on_c, 0, 74, 64
2, 360, Note_on_c, 0, 71, 64
2, 383, Note_on_c, 0, 74, 0
2, 383, Note_on_c, 0, 71, 0
2, 384, Note_on_c, 0, 81, 64
2, 384, Note_on_c, 0, 71, 64
2, 429, Note_on_c, 0, 81, 0
2, 429, Note_on_c, 0, 71, 0
2, 432, Note_on_c, 0, 81, 64
2, 432, Note_on_c, 0, 71, 64
2, 455, Note_on_c, 0, 81, 0
2, 455, Note_on_c, 0, 71, 0
2, 456, Note_on_c, 0, 81, 64
2, 456, Note_on_c, 0, 71, 64
2, 479, Note_on_c, 0, 81, 0
2, 479, Note_on_c, 0, 71, 0
2, 480, Note_on_c, 0, 80, 64
2, 480, Note_on_c, 0, 71, 64
2, 525, Note_on_c, 0, 80, 0
2, 525, Note_on_c, 0, 71, 0
2, 528, Note_on_c, 0, 80, 64
2, 528, Note_on_c, 0, 71, 64
2, 551, Note_on_c, 0, 80, 0
2, 551, Note_on_c, 0, 71, 0
2, 552, Note_on_c, 0, 80, 64
2, 552, Note_on_c, 0, 71, 64
2, 575, Note_on_c, 0, 80, 0
2, 575, Note_on_c, 0, 71, 0
2, 576, Note_on_c, 0, 81, 75
2, 576, Note_on_c, 0, 76, 75
2, 576, Note_on_c, 0, 73, 75
2, 665, Note_on_c, 0, 81, 0
2, 665, Note_on_c, 0, 76, 0
2, 665, Note_on_c, 0, 73, 0
2, 672, Note_on_c, 0, 80, 76
2, 672, Note_on_c, 0, 76, 76
2, 672, Note_on_c, 0, 71, 76
2, 761, Note_on_c, 0, 80, 0
2, 761, Note_on_c, 0, 76, 0
2, 761, Note_on_c, 0, 71, 0
2, 768, Note_on_c, 0, 81, 78
2, 768, Note_on_c, 0, 76, 78
2, 768, Note_on_c, 0, 73, 78
2, 835, Note_on_c, 0, 81, 0
2, 835, Note_on_c, 0, 76, 0
2, 835, Note_on_c, 0, 73, 0
2, 840, Note_on_c, 0, 76, 80
2, 840, Note_on_c, 0, 73, 80
2, 863, Note_on_c, 0, 76, 0
2, 863, Note_on_c, 0, 73, 0
2, 864, Note_on_c, 0, 76, 80
2, 864, Note_on_c, 0, 73, 80
2, 909, Note_on_c, 0, 76, 0
2, 909, Note_on_c, 0, 73, 0
2, 912, Note_on_c, 0, 74, 79
2, 912, Note_on_c, 0, 71, 79
2, 957, Note_on_c, 0, 74, 0
2, 957, Note_on_c, 0, 71, 0
2, 960, Note_on_c, 0, 73, 78
2, 983, Note_on_c, 0, 73, 0
2, 984, Note_on_c, 0, 75, 77
2, 1007, Note_on_c, 0, 75, 0
2, 1008, Note_on_c, 0, 76, 77
2, 1031, Note_on_c, 0, 76, 0
2, 1032, Note_on_c, 0, 75, 76
2, 1055, Note_on_c, 0, 75, 0
2, 1056, Note_on_c, 0, 76, 76
2, 1101, Note_on_c, 0, 76, 0
2, 1152, Note_on_c, 0, 88, 70
2, 1152, Note_on_c, 0, 85, 70
2, 1175, Note_on_c, 0, 88, 0
2, 1175, Note_on_c, 0, 85, 0
2, 1176, Note_on_c, 0, 86, 70
2, 1176, Note_on_c, 0, 83, 70
2, 1199, Note_on_c, 0, 86, 0
2, 1199, Note_on_c, 0, 83, 0
2, 1200, Note_on_c, 0, 85, 70
2, 1200, Note_on_c, 0, 81, 70
2, 1223, Note_on_c, 0, 85, 0
2, 1223, Note_on_c, 0, 81, 0
2, 1224, Note_on_c, 0, 83, 70
2, 1224, Note_on_c, 0, 80, 70
2, 1247, Note_on_c, 0, 83, 0
2, 1247, Note_on_c, 0, 80, 0
2, 1248, Note_on_c, 0, 81, 70
2, 1248, Note_on_c, 0, 78, 70
2, 1271, Note_on_c, 0, 81, 0
2, 1271, Note_on_c, 0, 78, 0
2, 1272, Note_on_c, 0, 80, 70
2, 1272, Note_on_c, 0, 76, 70
2, 1295, Note_on_c, 0, 80, 0
2, 1295, Note_on_c, 0, 76, 0
2, 1296, Note_on_c, 0, 78, 70
2, 1296, Note_on_c, 0, 74, 70
2, 1319, Note_on_c, 0, 78, 0
2, 1319, Note_on_c, 0, 74, 0
2, 1320, Note_on_c, 0, 76, 70
2, 1320, Note_on_c, 0, 73, 70
2, 1343, Note_on_c, 0, 76, 0
2, 1343, Note_on_c, 0, 73, 0
2, 1344, Note_on_c, 0, 74, 70
2, 1344, Note_on_c, 0, 71, 70
2, 1367, Note_on_c, 0, 74, 0
2, 1367, Note_on_c, 0, 71, 0
2, 1368, Note_on_c, 0, 73, 70
2, 1368, Note_on_c, 0, 69, 70
2, 1391, Note_on_c, 0, 73, 0
2, 1391, Note_on_c, 0, 69, 0
2, 1392, Note_on_c, 0, 71, 70
2, 1392, Note_on_c, 0, 68, 70
2, 1415, Note_on_c, 0, 71, 0
2, 1415, Note_on_c, 0, 68, 0
2, 1416, Note_on_c, 0, 69, 70
2, 1416, Note_on_c, 0, 66, 70
2, 1439, Note_on_c, 0, 69, 0
2, 1439, Note_on_c, 0, 66, 0
2, 1440, Note_on_c, 0, 68, 70
2, 1440, Note_on_c, 0, 64, 70
2, 1529, Note_on_c, 0, 68, 0
2, 1529, Note_on_c, 0, 64, 0
2, 1704, Note_on_c, 0, 81, 91
2, 1728, Note_on_c, 0, 81, 0
2, 1728, Note_on_c, 0, 73, 91
2, 1752, Note_on_c, 0, 73, 0
2, 1752, Note_on_c, 0, 74, 77
2, 1760, Note_on_c, 0, 74, 0
2, 1760, Note_on_c, 0, 73, 78
2, 1768, Note_on_c, 0, 73, 0
2, 1768, Note_on_c, 0, 71, 78
2, 1776, Note_on_c, 0, 71, 0
2, 1776, Note_on_c, 0, 73, 79
2, 1786, Note_on_c, 0, 73, 0
2, 1800, Note_on_c, 0, 74, 79
2, 1823, Note_on_c, 0, 74, 0
2, 1824, Note_on_c, 0, 73, 78
2, 1824, Note_on_c, 0, 68, 78
2, 1824, Note_on_c, 0, 64, 78
2, 1869, Note_on_c, 0, 73, 0
2, 1869, Note_on_c, 0, 68, 0
2, 1869, Note_on_c, 0, 64, 0
2, 1920, Note_on_c, 0, 73, 75
2, 1944, Note_on_c, 0, 73, 0
2, 1944, Note_on_c, 0, 71, 75
2, 1967, Note_on_c, 0, 71, 0
2, 2088, Note_on_c, 0, 81, 75
2, 2111, Note_on_c, 0, 81, 0
2, 2112, Note_on_c, 0, 80, 75
2, 2135, Note_on_c, 0, 80, 0
2, 2136, Note_on_c, 0, 78, 75
2, 2159, Note_on_c, 0, 78, 0
2, 2160, Note_on_c, 0, 78, 75
2, 2220, Note_on_c, 0, 78, 0
2, 2220, Note_on_c, 0, 81, 76
2, 2232, Note_on_c, 0, 81, 0
2, 2232, Note_on_c, 0, 80, 77
2, 2244, Note_on_c, 0, 80, 0
2, 2244, Note_on_c, 0, 81, 78
2, 2256, Note_on_c, 0, 81, 0
2, 2256, Note_on_c, 0, 83, 80
2, 2268, Note_on_c, 0, 83, 0
2, 2268, Note_on_c, 0, 81, 78
2, 2280, Note_on_c, 0, 81, 0
2, 2280, Note_on_c, 0, 80, 77
2, 2292, Note_on_c, 0, 80, 0
2, 2292, Note_on_c, 0, 78, 76
2, 2304, Note_on_c, 0, 78, 0
2, 2304, Note_on_c, 0, 78, 75
2, 2310, Note_on_c, 0, 78, 0
2, 2310, Note_on_c, 0, 76, 75
2, 2327, Note_on_c, 0, 76, 0
2, 2328, Note_on_c, 0, 73, 75
2, 2351, Note_on_c, 0, 73, 0
2, 2352, Note_on_c, 0, 88, 91
2, 2400, Note_on_c, 0, 88, 0
2, 2400, Note_on_c, 0, 50, 91
2, 2400, Note_on_c, 0, 47, 91
2, 2508, Note_on_c, 0, 50, 0
2, 2508, Note_on_c, 0, 47, 0
2, 2508, Note_on_c, 0, 50, 76
2, 2520, Note_on_c, 0, 50, 0
2, 2520, Note_on_c, 0, 49, 77
2, 2532, Note_on_c, 0, 49, 0
2, 2532, Note_on_c, 0, 50, 78
2, 2544, Note_on_c, 0, 50, 0
2, 2544, Note_on_c, 0, 52, 80
2, 2556, Note_on_c, 0, 52, 0
2, 2556, Note_on_c, 0, 50, 78
2, 2568, Note_on_c, 0, 50, 0
2, 2568, Note_on_c, 0, 49, 77
2, 2580, Note_on_c, 0, 49, 0
2, 2580, Note_on_c, 0, 47, 76
2, 2592, Note_on_c, 0, 47, 0
2, 2592, Note_on_c, 0, 49, 75
2, 2592, Note_on_c, 0, 45, 75
2, 2659, Note_on_c, 0, 49, 0
2, 2659, Note_on_c, 0, 45, 0
2, 2664, Note_on_c, 0, 50, 75
2, 2664, Note_on_c, 0, 47, 75
2, 2687, Note_on_c, 0, 50, 0
2, 2687, Note_on_c, 0, 47, 0
2, 2688, Note_on_c, 0, 52, 75
2, 2688, Note_on_c, 0, 49, 75
2, 2733, Note_on_c, 0, 52, 0
2, 2733, Note_on_c, 0, 49, 0
2, 2736, Note_on_c, 0, 69, 64
2, 2751, Note_on_c, 0, 69, 0
2, 2752, Note_on_c, 0, 73, 64
2, 2767, Note_on_c, 0, 73, 0
2, 2768, Note_on_c, 0, 76, 64
2, 2783, Note_on_c, 0, 76, 0
2, 2784, Note_on_c, 0, 78, 64
2, 2851, Note_on_c, 0, 78, 0
2, 2856, Note_on_c, 0, 82, 64
2, 2868, Note_on_c, 0, 82, 0
2, 2868, Note_on_c, 0, 83, 64
2, 2880, Note_on_c, 0, 83, 0
2, 2880, Note_on_c, 0, 86, 80
2, 2904, Note_on_c, 0, 86, 0
2, 2904, Note_on_c, 0, 85, 64
2, 2949, Note_on_c, 0, 85, 0
2, 2952, Note_on_c, 0, 83, 64
2, 2975, Note_on_c, 0, 83, 0
2, 2976, Note_on_c, 0, 81, 64
2, 3043, Note_on_c, 0, 81, 0
2, 3048, Note_on_c, 0, 80, 64
2, 3060, Note_on_c, 0, 80, 0
2, 3060, Note_on_c, 0, 81, 64
2, 3072, Note_on_c, 0, 81, 0
2, 3072, Note_on_c, 0, 80, 64
2, 3084, Note_on_c, 0, 80, 0
2, 3084, Note_on_c, 0, 81, 64
2, 3096, Note_on_c, 0, 81, 0
2, 3096, Note_on_c, 0, 83, 64
2, 3108, Note_on_c, 0, 83, 0
2, 3108, Note_on_c, 0, 81, 64
2, 3120, Note_on_c, 0, 81, 0
2, 3120, Note_on_c, 0, 80, 64
2, 3235, Note_on_c, 0, 80, 0
2, 3360, Note_on_c, 0, 81, 64
2, 3366, Note_on_c, 0, 81, 0
2, 3366, Note_on_c, 0, 79, 64
2, 3394, Note_on_c, 0, 79, 0
2, 3396, Note_on_c, 0, 78, 64
2, 3408, Note_on_c, 0, 78, 0
2, 3408, Note_on_c, 0, 81, 64
2, 3414, Note_on_c, 0, 81, 0
2, 3414, Note_on_c, 0, 79, 64
2, 3442, Note_on_c, 0, 79, 0
2, 3444, Note_on_c, 0, 78, 64
2, 3456, Note_on_c, 0, 78, 0
2, 3456, Note_on_c, 0, 81, 64
2, 3462, Note_on_c, 0, 81, 0
2, 3462, Note_on_c, 0, 79, 64
2, 3471, Note_on_c, 0, 79, 0
2, 3472, Note_on_c, 0, 78, 64
2, 3487, Note_on_c, 0, 78, 0
2, 3488, Note_on_c, 0, 79, 64
2, 3503, Note_on_c, 0, 79, 0
2, 3504, Note_on_c, 0, 83, 64
2, 3519, Note_on_c, 0, 83, 0
2, 3520, Note_on_c, 0, 81, 64
2, 3535, Note_on_c, 0, 81, 0
2, 3536, Note_on_c, 0, 79, 64
2, 3551, Note_on_c, 0, 79, 0
2, 3552, Note_on_c, 0, 79, 80
2, 3576, Note_on_c, 0, 79, 0
2, 3576, Note_on_c, 0, 77, 64
2, 3621, Note_on_c, 0, 77, 0
2, 3624, Note_on_c, 0, 78, 64
2, 3647, Note_on_c, 0, 78, 0
2, 3648, Note_on_c, 0, 79, 64
2, 3654, Note_on_c, 0, 79, 0
2, 3654, Note_on_c, 0, 77, 64
2, 3682, Note_on_c, 0, 77, 0
2, 3684, Note_on_c, 0, 76, 64
2, 3696, Note_on_c, 0, 76, 0
2, 3696, Note_on_c, 0, 79, 64
2, 3702, Note_on_c, 0, 79, 0
2, 3702, Note_on_c, 0, 77, 64
2, 3730, Note_on_c, 0, 77, 0
2, 3732, Note_on_c, 0, 76, 64
2, 3744, Note_on_c, 0, 76, 0
2, 3744, Note_on_c, 0, 79, 64
2, 3750, Note_on_c, 0, 79, 0
2, 3750, Note_on_c, 0, 77, 64
2, 3759, Note_on_c, 0, 77, 0
2, 3760, Note_on_c, 0, 76, 64
2, 3775, Note_on_c, 0, 76, 0
2, 3776, Note_on_c, 0, 77, 64
2, 3791, Note_on_c, 0, 77, 0
2, 3792, Note_on_c, 0, 81, 64
2, 3807, Note_on_c, 0, 81, 0
2, 3808, Note_on_c, 0, 79, 64
2, 3823, Note_on_c, 0, 79, 0
2, 3824, Note_on_c, 0, 77, 64
2, 3839, Note_on_c, 0, 77, 0
2, 3840, Note_on_c, 0, 77, 80
2, 3864, Note_on_c, 0, 77, 0
2, 3864, Note_on_c, 0, 75, 64
2, 3909, Note_on_c, 0, 75, 0
2, 3912, Note_on_c, 0, 76, 64
2, 3959, Note_on_c, 0, 76, 0
2, 3960, Note_on_c, 0, 73, 63
2, 4005, Note_on_c, 0, 73, 0
2, 4008, Note_on_c, 0, 74, 62
2, 4055, Note_on_c, 0, 74, 0
2, 4056, Note_on_c, 0, 71, 61
2, 4101, Note_on_c, 0, 71, 0
2, 4104, Note_on_c, 0, 72, 60
2, 4151, Note_on_c, 0, 72, 0
2, 4152, Note_on_c, 0, 70, 59
2, 4197, Note_on_c, 0, 70, 0
2, 4200, Note_on_c, 0, 71, 58
2, 4223, Note_on_c, 0, 71, 0
2, 4248, Note_on_c, 0, 75, 64
2, 4248, Note_on_c, 0, 69, 64
2, 4272, Note_on_c, 0, 75, 0
2, 4272, Note_on_c, 0, 69, 0
2, 4272, Note_on_c, 0, 76, 66
2, 4272, Note_on_c, 0, 68, 66
2, 4295, Note_on_c, 0, 76, 0
2, 4295, Note_on_c, 0, 68, 0
2, 4296, Note_on_c, 0, 63, 69
2, 4296, Note_on_c, 0, 57, 69
2, 4320, Note_on_c, 0, 63, 0
2, 4320, Note_on_c, 0, 57, 0
2, 4320, Note_on_c, 0, 64, 72
2, 4320, Note_on_c, 0, 56, 72
2, 4343, Note_on_c, 0, 64, 0
2, 4343, Note_on_c, 0, 56, 0
2, 4356, Note_on_c, 0, 57, 75
2, 4380, Note_on_c, 0, 57, 0
2, 4380, Note_on_c, 0, 60, 75
2, 4392, Note_on_c, 0, 60, 0
2, 4392, Note_on_c, 0, 59, 75
2, 4404, Note_on_c, 0, 59, 0
2, 4404, Note_on_c, 0, 57, 75
2, 4416, Note_on_c, 0, 57, 0
2, 4416, Note_on_c, 0, 56, 75
2, 4464, Note_on_c, 0, 56, 0
2, 4464, Note_on_c, 0, 64, 75
2, 4509, Note_on_c, 0, 64, 0
2, 4608, Note_on_c, 0, 76, 64
2, 4608, Note_on_c, 0, 73, 64
2, 4655, Note_on_c, 0, 76, 0
2, 4655, Note_on_c, 0, 73, 0
2, 4656, Note_on_c, 0, 76, 64
2, 4656, Note_on_c, 0, 73, 64
2, 4679, Note_on_c, 0, 76, 0
2, 4679, Note_on_c, 0, 73, 0
2, 4680, Note_on_c, 0, 76, 64
2, 4680, Note_on_c, 0, 73, 64
2, 4703, Note_on_c, 0, 76, 0
2, 4703, Note_on_c, 0, 73, 0
2, 4704, Note_on_c, 0, 81, 64
2, 4704, Note_on_c, 0, 73, 64
2, 4749, Note_on_c, 0, 81, 0
2, 4749, Note_on_c, 0, 73, 0
2, 4752, Note_on_c, 0, 76, 64
2, 4752, Note_on_c, 0, 73, 64
2, 4775, Note_on_c, 0, 76, 0
2, 4775, Note_on_c, 0, 73, 0
2, 4776, Note_on_c, 0, 76, 64
2, 4776, Note_on_c, 0, 73, 64
2, 4799, Note_on_c, 0, 76, 0
2, 4799, Note_on_c, 0, 73, 0
2, 4800, Note_on_c, 0, 76, 64
2, 4800, Note_on_c, 0, 73, 64
2, 4845, Note_on_c, 0, 76, 0
2, 4845, Note_on_c, 0, 73, 0
2, 4848, Note_on_c, 0, 76, 64
2, 4848, Note_on_c, 0, 73, 64
2, 4871, Note_on_c, 0, 76, 0
2, 4871, Note_on_c, 0, 73, 0
2, 4872, Note_on_c, 0, 76, 64
2, 4872, Note_on_c, 0, 73, 64
2, 4895, Note_on_c, 0, 76, 0
2, 4895, Note_on_c, 0, 73, 0
2, 4896, Note_on_c, 0, 74, 64
2, 4896, Note_on_c, 0, 71, 64
2, 4941, Note_on_c, 0, 74, 0
2, 4941, Note_on_c, 0, 71, 0
2, 4944, Note_on_c, 0, 74, 64
2, 4944, Note_on_c, 0, 71, 64
2, 4967, Note_on_c, 0, 74, 0
2, 4967, Note_on_c, 0, 71, 0
2, 4968, Note_on_c, 0, 74, 64
2, 4968, Note_on_c, 0, 71, 64
2, 4991, Note_on_c, 0, 74, 0
2, 4991, Note_on_c, 0, 71, 0
2, 4992, Note_on_c, 0, 81, 64
2, 4992, Note_on_c, 0, 71, 64
2, 5037, Note_on_c, 0, 81, 0
2, 5037, Note_on_c, 0, 71, 0
2, 5040, Note_on_c, 0, 81, 64
2, 5040, Note_on_c, 0, 71, 64
2, 5063, Note_on_c, 0, 81, 0
2, 5063, Note_on_c, 0, 71, 0
2, 5064, Note_on_c, 0, 81, 64
2, 5064, Note_on_c, 0, 71, 64
2, 5087, Note_on_c, 0, 81, 0
2, 5087, Note_on_c, 0, 71, 0
2, 5088, Note_on_c, 0, 80, 64
2, 5088, Note_on_c, 0, 71, 64
2, 5133, Note_on_c, 0, 80, 0
2, 5133, Note_on_c, 0, 71, 0
2, 5136, Note_on_c, 0, 80, 64
2, 5136, Note_on_c, 0, 71, 64
2, 5159, Note_on_c, 0, 80, 0
2, 5159, Note_on_c, 0, 71, 0
2, 5160, Note_on_c, 0, 80, 64
2, 5160, Note_on_c, 0, 71, 64
2, 5183, Note_on_c, 0, 80, 0
2, 5183, Note_on_c, 0, 71, 0
2, 5184, Note_on_c, 0, 81, 75
2, 5184, Note_on_c, 0, 76, 75
2, 5184, Note_on_c, 0, 73, 75
2, 5273, Note_on_c, 0, 81, 0
2, 5273, Note_on_c, 0, 76, 0
2, 5273, Note_on_c, 0, 73, 0
2, 5280, Note_on_c, 0, 80, 76
2, 5280, Note_on_c, 0, 76, 76
2, 5280, Note_on_c, 0, 71, 76
2, 5369, Note_on_c, 0, 80, 0
2, 5369, Note_on_c, 0, 76, 0
2, 5369, Note_on_c, 0, 71, 0
2, 5376, Note_on_c, 0, 81, 78
2, 5376, Note_on_c, 0, 76, 78
2, 5376, Note_on_c, 0, 73, 78
2, 5443, Note_on_c, 0, 81, 0
2, 5443, Note_on_c, 0, 76, 0
2, 5443, Note_on_c, 0, 73, 0
2, 5448, Note_on_c, 0, 76, 80
2, 5448, Note_on_c, 0, 73, 80
2, 5471, Note_on_c, 0, 76, 0
2, 5471, Note_on_c, 0, 73, 0
2, 5472, Note_on_c, 0, 76, 80
2, 5472, Note_on_c, 0, 73, 80
2, 5517, Note_on_c, 0, 76, 0
2, 5517, Note_on_c, 0, 73, 0
2, 5520, Note_on_c, 0, 74, 79
2, 5520, Note_on_c, 0, 71, 79
2, 5565, Note_on_c, 0, 74, 0
2, 5565, Note_on_c, 0, 71, 0
2, 5568, Note_on_c, 0, 73, 78
2, 5591, Note_on_c, 0, 73, 0
2, 5592, Note_on_c, 0, 75, 77
2, 5615, Note_on_c, 0, 75, 0
2, 5616, Note_on_c, 0, 76, 77
2, 5639, Note_on_c, 0, 76, 0
2, 5640, Note_on_c, 0, 75, 76
2, 5663, Note_on_c, 0, 75, 0
2, 5664, Note_on_c, 0, 76, 76
2, 5709, Note_on_c, 0, 76, 0
2, 5760, Note_on_c, 0, 88, 70
2, 5760, Note_on_c, 0, 85, 70
2, 5783, Note_on_c, 0, 88, 0
2, 5783, Note_on_c, 0, 85, 0
2, 5784, Note_on_c, 0, 86, 70
2, 5784, Note_on_c, 0, 83, 70
2, 5807, Note_on_c, 0, 86, 0
2, 5807, Note_on_c, 0, 83, 0
2, 5808, Note_on_c, 0, 85, 70
2, 5808, Note_on_c, 0, 81, 70
2, 5831, Note_on_c, 0, 85, 0
2, 5831, Note_on_c, 0, 81, 0
2, 5832, Note_on_c, 0, 83, 70
2, 5832, Note_on_c, 0, 80, 70
2, 5855, Note_on_c, 0, 83, 0
2, 5855, Note_on_c, 0, 80, 0
2, 5856, Note_on_c, 0, 81, 70
2, 5856, Note_on_c, 0, 78, 70
2, 5879, Note_on_c, 0, 81, 0
2, 5879, Note_on_c, 0, 78, 0
2, 5880, Note_on_c, 0, 80, 70
2, 5880, Note_on_c, 0, 76, 70
2, 5903, Note_on_c, 0, 80, 0
2, 5903, Note_on_c, 0, 76, 0
2, 5904, Note_on_c, 0, 78, 70
2, 5904, Note_on_c, 0, 74, 70
2, 5927, Note_on_c, 0, 78, 0
2, 5927, Note_on_c, 0, 74, 0
2, 5928, Note_on_c, 0, 76, 70
2, 5928, Note_on_c, 0, 73, 70
2, 5951, Note_on_c, 0, 76, 0
2, 5951, Note_on_c, 0, 73, 0
2, 5952, Note_on_c, 0, 74, 70
2, 5952, Note_on_c, 0, 71, 70
2, 5975, Note_on_c, 0, 74, 0
2, 5975, Note_on_c, 0, 71, 0
2, 5976, Note_on_c, 0, 73, 70
2, 5976, Note_on_c, 0, 69, 70
2, 5999, Note_on_c, 0, 73, 0
2, 5999, Note_on_c, 0, 69, 0
2, 6000, Note_on_c, 0, 71, 70
2, 6000, Note_on_c, 0, 68, 70
2, 6023, Note_on_c, 0, 71, 0
2, 6023, Note_on_c, 0, 68, 0
2, 6024, Note_on_c, 0, 69, 70
2, 6024, Note_on_c, 0, 66, 70
2, 6047, Note_on_c, 0, 69, 0
2, 6047, Note_on_c, 0, 66, 0
2, 6048, Note_on_c, 0, 68, 70
2, 6048, Note_on_c, 0, 64, 70
2, 6137, Note_on_c, 0, 68, 0
2, 6137, Note_on_c, 0, 64, 0
2, 6312, Note_on_c, 0, 81, 91
2, 6336, Note_on_c, 0, 81, 0
2, 6336, Note_on_c, 0, 73, 91
2, 6360, Note_on_c, 0, 73, 0
2, 6360, Note_on_c, 0, 74, 77
2, 6368, Note_on_c, 0, 74, 0
2, 6368, Note_on_c, 0, 73, 78
2, 6376, Note_on_c, 0, 73, 0
2, 6376, Note_on_c, 0, 71, 78
2, 6384, Note_on_c, 0, 71, 0
2, 6384, Note_on_c, 0, 73, 79
2, 6394, Note_on_c, 0, 73, 0
2, 6408, Note_on_c, 0, 74, 79
2, 6431, Note_on_c, 0, 74, 0
2, 6432, Note_on_c, 0, 73, 78
2, 6432, Note_on_c, 0, 68, 78
2, 6432, Note_on_c, 0, 64, 78
2, 6477, Note_on_c, 0, 73, 0
2, 6477, Note_on_c, 0, 68, 0
2, 6477, Note_on_c, 0, 64, 0
2, 6528, Note_on_c, 0, 73, 75
2, 6552, Note_on_c, 0, 73, 0
2, 6552, Note_on_c, 0, 71, 75
2, 6575, Note_on_c, 0, 71, 0
2, 6696, Note_on_c, 0, 81, 75
2, 6719, Note_on_c, 0, 81, 0
2, 6720, Note_on_c, 0, 80, 75
2, 6743, Note_on_c, 0, 80, 0
2, 6744, Note_on_c, 0, 78, 75
2, 6767, Note_on_c, 0, 78, 0
2, 6768, Note_on_c, 0, 78, 75
2, 6828, Note_on_c, 0, 78, 0
2, 6828, Note_on_c, 0, 81, 76
2, 6840, Note_on_c, 0, 81, 0
2, 6840, Note_on_c, 0, 80, 77
2, 6852, Note_on_c, 0, 80, 0
2, 6852, Note_on_c, 0, 81, 78
2, 6864, Note_on_c, 0, 81, 0
2, 6864, Note_on_c, 0, 83, 80
2, 6876, Note_on_c, 0, 83, 0
2, 6876, Note_on_c, 0, 81, 78
2, 6888, Note_on_c, 0, 81, 0
2, 6888, Note_on_c, 0, 80, 77
2, 6900, Note_on_c, 0, 80, 0
2, 6900, Note_on_c, 0, 78, 76
2, 6912, Note_on_c, 0, 78, 0
2, 6912, Note_on_c, 0, 78, 75
2, 6918, Note_on_c, 0, 78, 0
2, 6918, Note_on_c, 0, 76, 75
2, 6935, Note_on_c, 0, 76, 0
2, 6936, Note_on_c, 0, 73, 75
2, 6959, Note_on_c, 0, 73, 0
2, 6960, Note_on_c, 0, 88, 91
2, 7008, Note_on_c, 0, 88, 0
2, 7008, Note_on_c, 0, 50, 91
2, 7008, Note_on_c, 0, 47, 91
2, 7116, Note_on_c, 0, 50, 0
2, 7116, Note_on_c, 0, 47, 0
2, 7116, Note_on_c, 0, 50, 76
2, 7128, Note_on_c, 0, 50, 0
2, 7128, Note_on_c, 0, 49, 77
2, 7140, Note_on_c, 0, 49, 0
2, 7140, Note_on_c, 0, 50, 78
2, 7152, Note_on_c, 0, 50, 0
2, 7152, Note_on_c, 0, 52, 80
2, 7164, Note_on_c, 0, 52, 0
2, 7164, Note_on_c, 0, 50, 78
2, 7176, Note_on_c, 0, 50, 0
2, 7176, Note_on_c, 0, 49, 77
2, 7188, Note_on_c, 0, 49, 0
2, 7188, Note_on_c, 0, 47, 76
2, 7200, Note_on_c, 0, 47, 0
2, 7200, Note_on_c, 0, 49, 75
2, 7200, Note_on_c, 0, 45, 75
2, 7267, Note_on_c, 0, 49, 0
2, 7267, Note_on_c, 0, 45, 0
2, 7272, Note_on_c, 0, 50, 75
2, 7272, Note_on_c, 0, 47, 75
2, 7295, Note_on_c, 0, 50, 0
2, 7295, Note_on_c, 0, 47, 0
2, 7296, Note_on_c, 0, 52, 75
2, 7296, Note_on_c, 0, 49, 75
2, 7341, Note_on_c, 0, 52, 0
2, 7341, Note_on_c, 0, 49, 0
2, 7344, Note_on_c, 0, 69, 64
2, 7359, Note_on_c, 0, 69, 0
2, 7360, Note_on_c, 0, 73, 64
2, 7375, Note_on_c, 0, 73, 0
2, 7376, Note_on_c, 0, 76, 64
2, 7391, Note_on_c, 0, 76, 0
2, 7392, Note_on_c, 0, 78, 64
2, 7459, Note_on_c, 0, 78, 0
2, 7464, Note_on_c, 0, 82, 64
2, 7476, Note_on_c, 0, 82, 0
2, 7476, Note_on_c, 0, 83, 64
2, 7488, Note_on_c, 0, 83, 0
2, 7488, Note_on_c, 0, 86, 80
2, 7512, Note_on_c, 0, 86, 0
2, 7512, Note_on_c, 0, 85, 64
2, 7557, Note_on_c, 0, 85, 0
2, 7560, Note_on_c, 0, 83, 64
2, 7583, Note_on_c, 0, 83, 0
2, 7584, Note_on_c, 0, 81, 64
2, 7651, Note_on_c, 0, 81, 0
2, 7656, Note_on_c, 0, 80, 64
2, 7668, Note_on_c, 0, 80, 0
2, 7668, Note_on_c, 0, 81, 64
2, 7680, Note_on_c, 0, 81, 0
2, 7680, Note_on_c, 0, 80, 64
2, 7692, Note_on_c, 0, 80, 0
2, 7692, Note_on_c, 0, 81, 64
2, 7704, Note_on_c, 0, 81, 0
2, 7704, Note_on_c, 0, 83, 64
2, 7716, Note_on_c, 0, 83, 0
2, 7716, Note_on_c, 0, 81, 64
2, 7728, Note_on_c, 0, 81, 0
2, 7728, Note_on_c, 0, 80, 64
2, 7843, Note_on_c, 0, 80, 0
2, 7968, Note_on_c, 0, 81, 64
2, 7974, Note_on_c, 0, 81, 0
2, 7974, Note_on_c, 0, 79, 64
2, 8002, Note_on_c, 0, 79, 0
2, 8004, Note_on_c, 0, 78, 64
2, 8016, Note_on_c, 0, 78, 0
2, 8016, Note_on_c, 0, 81, 64
2, 8022, Note_on_c, 0, 81, 0
2, 8022, Note_on_c, 0, 79, 64
2, 8050, Note_on_c, 0, 79, 0
2, 8052, Note_on_c, 0, 78, 64
2, 8064, Note_on_c, 0, 78, 0
2, 8064, Note_on_c, 0, 81, 64
2, 8070, Note_on_c, 0, 81, 0
2, 8070, Note_on_c, 0, 79, 64
2, 8079, Note_on_c, 0, 79, 0
2, 8080, Note_on_c, 0, 78, 64
2, 8095, Note_on_c, 0, 78, 0
2, 8096, Note_on_c, 0, 79, 64
2, 8111, Note_on_c, 0, 79, 0
2, 8112, Note_on_c, 0, 83, 64
2, 8127, Note_on_c, 0, 83, 0
2, 8128, Note_on_c, 0, 81, 64
2, 8143, Note_on_c, 0, 81, 0
2, 8144, Note_on_c, 0, 79, 64
2, 8159, Note_on_c, 0, 79, 0
2, 8160, Note_on_c, 0, 79, 80
2, 8184, Note_on_c, 0, 79, 0
2, 8184, Note_on_c, 0, 77, 64
2, 8229, Note_on_c, 0, 77, 0
2, 8232, Note_on_c, 0, 78, 64
2, 8255, Note_on_c, 0, 78, 0
2, 8256, Note_on_c, 0, 79, 64
2, 8262, Note_on_c, 0, 79, 0
2, 8262, Note_on_c, 0, 77, 64
2, 8290, Note_on_c, 0, 77, 0
2, 8292, Note_on_c, 0, 76, 64
2, 8304, Note_on_c, 0, 76, 0
2, 8304, Note_on_c, 0, 79, 64
2, 8310, Note_on_c, 0, 79, 0
2, 8310, Note_on_c, 0, 77, 64
2, 8338, Note_on_c, 0, 77, 0
2, 8340, Note_on_c, 0, 76, 64
2, 8352, Note_on_c, 0, 76, 0
2, 8352, Note_on_c, 0, 79, 64
2, 8358, Note_on_c, 0, 79, 0
2, 8358, Note_on_c, 0, 77, 64
2, 8367, Note_on_c, 0, 77, 0
2, 8368, Note_on_c, 0, 76, 64
2, 8383, Note_on_c, 0, 76, 0
2, 8384, Note_on_c, 0, 77, 64
2, 8399, Note_on_c, 0, 77, 0
2, 8400, Note_on_c, 0, 81, 64
2, 8415, Note_on_c, 0, 81, 0
2, 8416, Note_on_c, 0, 79, 64
2, 8431, Note_on_c, 0, 79, 0
2, 8432, Note_on_c, 0, 77, 64
2, 8447, Note_on_c, 0, 77, 0
2, 8448, Note_on_c, 0, 77, 80
2, 8472, Note_on_c, 0, 77, 0
2, 8472, Note_on_c, 0, 75, 64
2, 8517, Note_on_c, 0, 75, 0
2, 8520, Note_on_c, 0, 76, 64
2, 8567, Note_on_c, 0, 76, 0
2, 8568, Note_on_c, 0, 73, 63
2, 8613, Note_on_c, 0, 73, 0
2, 8616, Note_on_c, 0, 74, 62
2, 8663, Note_on_c, 0, 74, 0
2, 8664, Note_on_c, 0, 71, 61
2, 8709, Note_on_c, 0, 71, 0
2, 8712, Note_on_c, 0, 72, 60
2, 8759, Note_on_c, 0, 72, 0
2, 8760, Note_on_c, 0, 70, 59
2, 8805, Note_on_c, 0, 70, 0
2, 8808, Note_on_c, 0, 71, 58
2, 8831, Note_on_c, 0, 71, 0
2, 8856, Note_on_c, 0, 75, 64
2, 8856, Note_on_c, 0, 69, 64
2, 8880, Note_on_c, 0, 75, 0
2, 8880, Note_on_c, 0, 69, 0
2, 8880, Note_on_c, 0, 76, 66
2, 8880, Note_on_c, 0, 68, 66
2, 8903, Note_on_c, 0, 76, 0
2, 8903, Note_on_c, 0, 68, 0
2, 8904, Note_on_c, 0, 63, 69
2, 8904, Note_on_c, 0, 57, 69
2, 8928, Note_on_c, 0, 63, 0
2, 8928, Note_on_c, 0, 57, 0
2, 8928, Note_on_c, 0, 64, 72
2, 8928, Note_on_c, 0, 56, 72
2, 8951, Note_on_c, 0, 64, 0
2, 8951, Note_on_c, 0, 56, 0
2, 8964, Note_on_c, 0, 57, 75
2, 8988, Note_on_c, 0, 57, 0
2, 8988, Note_on_c, 0, 60, 75
2, 9000, Note_on_c, 0, 60, 0
2, 9000, Note_on_c, 0, 59, 75
2, 9012, Note_on_c, 0, 59, 0
2, 9012, Note_on_c, 0, 57, 75
2, 9024, Note_on_c, 0, 57, 0
2, 9024, Note_on_c, 0, 56, 75
2, 9072, Note_on_c, 0, 56, 0
2, 9072, Note_on_c, 0, 64, 75
2, 9117, Note_on_c, 0, 64, 0
2, 9216, Note_on_c, 0, 65, 91
2, 9216, Note_on_c, 0, 64, 91
2, 9264, Note_on_c, 0, 65, 0
2, 9264, Note_on_c, 0, 64, 0
2, 9264, Note_on_c, 0, 65, 75
2, 9264, Note_on_c, 0, 62, 75
2, 9287, Note_on_c, 0, 65, 0
2, 9287, Note_on_c, 0, 62, 0
2, 9288, Note_on_c, 0, 65, 76
2, 9288, Note_on_c, 0, 62, 76
2, 9311, Note_on_c, 0, 65, 0
2, 9311, Note_on_c, 0, 62, 0
2, 9312, Note_on_c, 0, 65, 76
2, 9312, Note_on_c, 0, 62, 76
2, 9357, Note_on_c, 0, 65, 0
2, 9357, Note_on_c, 0, 62, 0
2, 9360, Note_on_c, 0, 65, 77
2, 9360, Note_on_c, 0, 62, 77
2, 9383, Note_on_c, 0, 65, 0
2, 9383, Note_on_c, 0, 62, 0
2, 9384, Note_on_c, 0, 65, 77
2, 9384, Note_on_c, 0, 62, 77
2, 9407, Note_on_c, 0, 65, 0
2, 9407, Note_on_c, 0, 62, 0
2, 9408, Control_c, 0, 64, 127
2, 9408, Note_on_c, 0, 64, 78
2, 9408, Note_on_c, 0, 62, 78
2, 9408, Note_on_c, 0, 59, 78
2, 9502, Note_on_c, 0, 64, 0
2, 9502, Note_on_c, 0, 62, 0
2, 9502, Note_on_c, 0, 59, 0
2, 9504, Control_c, 0, 64, 0
2, 9792, Note_on_c, 0, 82, 96
2, 9792, Note_on_c, 0, 81, 96
2, 9840, Note_on_c, 0, 82, 0
2, 9840, Note_on_c, 0, 81, 0
2, 9840, Note_on_c, 0, 82, 78
2, 9840, Note_on_c, 0, 79, 78
2, 9863, Note_on_c, 0, 82, 0
2, 9863, Note_on_c, 0, 79, 0
2, 9864, Note_on_c, 0, 82, 78
2, 9864, Note_on_c, 0, 79, 78
2, 9887, Note_on_c, 0, 82, 0
2, 9887, Note_on_c, 0, 79, 0
2, 9888, Note_on_c, 0, 82, 77
2, 9888, Note_on_c, 0, 79, 77
2, 9933, Note_on_c, 0, 82, 0
2, 9933, Note_on_c, 0, 79, 0
2, 9936, Note_on_c, 0, 82, 76
2, 9936, Note_on_c, 0, 79, 76
2, 9959, Note_on_c, 0, 82, 0
2, 9959, Note_on_c, 0, 79, 0
2, 9960, Note_on_c, 0, 82, 75
2, 9960, Note_on_c, 0, 79, 75
2, 9983, Note_on_c, 0, 82, 0
2, 9983, Note_on_c, 0, 79, 0
2, 9984, Control_c, 0, 64, 127
2, 9984, Note_on_c, 0, 81, 75
2, 9984, Note_on_c, 0, 79, 75
2, 10078, Note_on_c, 0, 81, 0
2, 10078, Note_on_c, 0, 79, 0
2, 10080, Control_c, 0, 64, 0
2, 10368, Note_on_c, 0, 69, 75
2, 10368, Note_on_c, 0, 65, 75
2, 10413, Note_on_c, 0, 69, 0
2, 10413, Note_on_c, 0, 65, 0
2, 10416, Note_on_c, 0, 69, 75
2, 10416, Note_on_c, 0, 65, 75
2, 10439, Note_on_c, 0, 69, 0
2, 10439, Note_on_c, 0, 65, 0
2, 10440, Note_on_c, 0, 69, 76
2, 10440, Note_on_c, 0, 65, 76
2, 10463, Note_on_c, 0, 69, 0
2, 10463, Note_on_c, 0, 65, 0
2, 10464, Note_on_c, 0, 70, 76
2, 10464, Note_on_c, 0, 65, 76
2, 10509, Note_on_c, 0, 70, 0
2, 10509, Note_on_c, 0, 65, 0
2, 10512, Note_on_c, 0, 70, 77
2, 10512, Note_on_c, 0, 65, 77
2, 10535, Note_on_c, 0, 70, 0
2, 10535, Note_on_c, 0, 65, 0
2, 10536, Note_on_c, 0, 70, 77
2, 10536, Note_on_c, 0, 65, 77
2, 10559, Note_on_c, 0, 70, 0
2, 10559, Note_on_c, 0, 65, 0
2, 10560, Note_on_c, 0, 68, 78
2, 10560, Note_on_c, 0, 64, 78
2, 10605, Note_on_c, 0, 68, 0
2, 10605, Note_on_c, 0, 64, 0
2, 10608, Note_on_c, 0, 68, 79
2, 10608, Note_on_c, 0, 64, 79
2, 10631, Note_on_c, 0, 68, 0
2, 10631, Note_on_c, 0, 64, 0
2, 10632, Note_on_c, 0, 68, 79
2, 10632, Note_on_c, 0, 64, 79
2, 10655, Note_on_c, 0, 68, 0
2, 10655, Note_on_c, 0, 64, 0
2, 10656, Note_on_c, 0, 69, 80
2, 10656, Note_on_c, 0, 64, 80
2, 10701, Note_on_c, 0, 69, 0
2, 10701, Note_on_c, 0, 64, 0
2, 10704, Note_on_c, 0, 69, 80
2, 10704, Note_on_c, 0, 64, 80
2, 10727, Note_on_c, 0, 69, 0
2, 10727, Note_on_c, 0, 64, 0
2, 10728, Note_on_c, 0, 69, 80
2, 10728, Note_on_c, 0, 64, 80
2, 10751, Note_on_c, 0, 69, 0
2, 10751, Note_on_c, 0, 64, 0
2, 10752, Note_on_c, 0, 70, 96
2, 10752, Note_on_c, 0, 67, 96
2, 10800, Note_on_c, 0, 70, 0
2, 10800, Note_on_c, 0, 67, 0
2, 10800, Note_on_c, 0, 70, 80
2, 10800, Note_on_c, 0, 67, 80
2, 10823, Note_on_c, 0, 70, 0
2, 10823, Note_on_c, 0, 67, 0
2, 10824, Note_on_c, 0, 70, 80
2, 10824, Note_on_c, 0, 67, 80
2, 10847, Note_on_c, 0, 70, 0
2, 10847, Note_on_c, 0, 67, 0
2, 10848, Note_on_c, 0, 70, 80
2, 10848, Note_on_c, 0, 67, 80
2, 10871, Note_on_c, 0, 70, 0
2, 10871, Note_on_c, 0, 67, 0
2, 10872, Note_on_c, 0, 74, 80
2, 10872, Note_on_c, 0, 70, 80
2, 10895, Note_on_c, 0, 74, 0
2, 10895, Note_on_c, 0, 70, 0
2, 10896, Note_on_c, 0, 72, 80
2, 10896, Note_on_c, 0, 69, 80
2, 10919, Note_on_c, 0, 72, 0
2, 10919, Note_on_c, 0, 69, 0
2, 10920, Note_on_c, 0, 70, 80
2, 10920, Note_on_c, 0, 67, 80
2, 10943, Note_on_c, 0, 70, 0
2, 10943, Note_on_c, 0, 67, 0
2, 10944, Note_on_c, 0, 69, 80
2, 10944, Note_on_c, 0, 67, 80
2, 10989, Note_on_c, 0, 69, 0
2, 10989, Note_on_c, 0, 67, 0
2, 10992, Note_on_c, 0, 69, 81
2, 10992, Note_on_c, 0, 65, 81
2, 11015, Note_on_c, 0, 69, 0
2, 11015, Note_on_c, 0, 65, 0
2, 11016, Note_on_c, 0, 69, 81
2, 11016, Note_on_c, 0, 65, 81
2, 11039, Note_on_c, 0, 69, 0
2, 11039, Note_on_c, 0, 65, 0
2, 11040, Note_on_c, 0, 70, 82
2, 11040, Note_on_c, 0, 65, 82
2, 11085, Note_on_c, 0, 70, 0
2, 11085, Note_on_c, 0, 65, 0
2, 11088, Note_on_c, 0, 71, 83
2, 11088, Note_on_c, 0, 65, 83
2, 11098, Note_on_c, 0, 71, 0
2, 11098, Note_on_c, 0, 65, 0
2, 11112, Note_on_c, 0, 71, 83
2, 11112, Note_on_c, 0, 65, 83
2, 11122, Note_on_c, 0, 71, 0
2, 11122, Note_on_c, 0, 65, 0
2, 11136, Note_on_c, 0, 72, 84
2, 11136, Note_on_c, 0, 67, 84
2, 11181, Note_on_c, 0, 72, 0
2, 11181, Note_on_c, 0, 67, 0
2, 11184, Note_on_c, 0, 73, 85
2, 11184, Note_on_c, 0, 67, 85
2, 11194, Note_on_c, 0, 73, 0
2, 11194, Note_on_c, 0, 67, 0
2, 11208, Note_on_c, 0, 73, 85
2, 11208, Note_on_c, 0, 67, 85
2, 11218, Note_on_c, 0, 73, 0
2, 11218, Note_on_c, 0, 67, 0
2, 11232, Note_on_c, 0, 74, 86
2, 11247, Note_on_c, 0, 74, 0
2, 11248, Note_on_c, 0, 73, 85
2, 11263, Note_on_c, 0, 73, 0
2, 11264, Note_on_c, 0, 74, 84
2, 11279, Note_on_c, 0, 74, 0
2, 11280, Note_on_c, 0, 77, 83
2, 11280, Note_on_c, 0, 74, 83
2, 11295, Note_on_c, 0, 77, 0
2, 11295, Note_on_c, 0, 74, 0
2, 11296, Note_on_c, 0, 76, 82
2, 11296, Note_on_c, 0, 73, 82
2, 11311, Note_on_c, 0, 76, 0
2, 11311, Note_on_c, 0, 73, 0
2, 11312, Note_on_c, 0, 74, 81
2, 11312, Note_on_c, 0, 71, 81
2, 11327, Note_on_c, 0, 74, 0
2, 11327, Note_on_c, 0, 71, 0
2, 11328, Note_on_c, 0, 74, 80
2, 11328, Note_on_c, 0, 69, 80
2, 11348, Note_on_c, 0, 74, 0
2, 11348, Note_on_c, 0, 69, 0
2, 11424, Note_on_c, 0, 77, 73
2, 11448, Note_on_c, 0, 77, 0
2, 11448, Note_on_c, 0, 76, 72
2, 11493, Note_on_c, 0, 76, 0
2, 11592, Note_on_c, 0, 86, 91
2, 11616, Note_on_c, 0, 86, 0
2, 11616, Note_on_c, 0, 84, 75
2, 11640, Note_on_c, 0, 84, 0
2, 11640, Note_on_c, 0, 82, 75
2, 11663, Note_on_c, 0, 82, 0
2, 11664, Note_on_c, 0, 81, 75
2, 11688, Note_on_c, 0, 81, 0
2, 11688, Note_on_c, 0, 79, 75
2, 11711, Note_on_c, 0, 79, 0
2, 11712, Note_on_c, 0, 85, 75
2, 11727, Note_on_c, 0, 85, 0
2, 11728, Note_on_c, 0, 79, 75
2, 11743, Note_on_c, 0, 79, 0
2, 11744, Note_on_c, 0, 81, 75
2, 11759, Note_on_c, 0, 81, 0
2, 11760, Note_on_c, 0, 82, 75
2, 11775, Note_on_c, 0, 82, 0
2, 11776, Note_on_c, 0, 81, 75
2, 11791, Note_on_c, 0, 81, 0
2, 11792, Note_on_c, 0, 79, 75
2, 11807, Note_on_c, 0, 79, 0
2, 11808, Note_on_c, 0, 77, 75
2, 11823, Note_on_c, 0, 77, 0
2, 11824, Note_on_c, 0, 76, 75
2, 11839, Note_on_c, 0, 76, 0
2, 11840, Note_on_c, 0, 74, 75
2, 11855, Note_on_c, 0, 74, 0
2, 11856, Note_on_c, 0, 74, 75
2, 11901, Note_on_c, 0, 74, 0
2, 11904, Note_on_c, 0, 52, 96
2, 11904, Note_on_c, 0, 49, 96
2, 12023, Note_on_c, 0, 52, 0
2, 12023, Note_on_c, 0, 49, 0
2, 12024, Note_on_c, 0, 45, 96
2, 12048, Note_on_c, 0, 45, 0
2, 12048, Note_on_c, 0, 49, 80
2, 12071, Note_on_c, 0, 49, 0
2, 12072, Note_on_c, 0, 52, 80
2, 12095, Note_on_c, 0, 52, 0
2, 12096, Note_on_c, 0, 53, 80
2, 12096, Note_on_c, 0, 50, 80
2, 12163, Note_on_c, 0, 53, 0
2, 12163, Note_on_c, 0, 50, 0
2, 12168, Note_on_c, 0, 55, 80
2, 12168, Note_on_c, 0, 52, 80
2, 12191, Note_on_c, 0, 55, 0
2, 12191, Note_on_c, 0, 52, 0
2, 12192, Note_on_c, 0, 57, 80
2, 12192, Note_on_c, 0, 53, 80
2, 12237, Note_on_c, 0, 57, 0
2, 12237, Note_on_c, 0, 53, 0
2, 12288, Note_on_c, 0, 84, 96
2, 12288, Note_on_c, 0, 81, 96
2, 12288, Note_on_c, 0, 78, 96
2, 12360, Note_on_c, 0, 84, 0
2, 12360, Note_on_c, 0, 81, 0
2, 12360, Note_on_c, 0, 78, 0
2, 12360, Note_on_c, 0, 84, 80
2, 12360, Note_on_c, 0, 81, 80
2, 12360, Note_on_c, 0, 78, 80
2, 12383, Note_on_c, 0, 84, 0
2, 12383, Note_on_c, 0, 81, 0
2, 12383, Note_on_c, 0, 78, 0
2, 12384, Note_on_c, 0, 83, 80
2, 12384, Note_on_c, 0, 80, 80
2, 12384, Note_on_c, 0, 76, 80
2, 12429, Note_on_c, 0, 83, 0
2, 12429, Note_on_c, 0, 80, 0
2, 12429, Note_on_c, 0, 76, 0
2, 12504, Note_on_c, 0, 76, 91
2, 12528, Note_on_c, 0, 76, 0
2, 12528, Note_on_c, 0, 75, 73
2, 12551, Note_on_c, 0, 75, 0
2, 12552, Note_on_c, 0, 74, 71
2, 12552, Note_on_c, 0, 71, 71
2, 12575, Note_on_c, 0, 74, 0
2, 12575, Note_on_c, 0, 71, 0
2, 12576, Note_on_c, 0, 73, 70
2, 12576, Note_on_c, 0, 70, 70
2, 12599, Note_on_c, 0, 73, 0
2, 12599, Note_on_c, 0, 70, 0
2, 12600, Note_on_c, 0, 72, 68
2, 12600, Note_on_c, 0, 69, 68
2, 12624, Note_on_c, 0, 72, 0
2, 12624, Note_on_c, 0, 69, 0
2, 12624, Note_on_c, 0, 71, 67
2, 12624, Note_on_c, 0, 68, 67
2, 12669, Note_on_c, 0, 71, 0
2, 12669, Note_on_c, 0, 68, 0
2, 12768, Note_on_c, 0, 64, 64
2, 12768, Note_on_c, 0, 61, 64
2, 12815, Note_on_c, 0, 64, 0
2, 12815, Note_on_c, 0, 61, 0
2, 12816, Note_on_c, 0, 64, 64
2, 12816, Note_on_c, 0, 61, 64
2, 12839, Note_on_c, 0, 64, 0
2, 12839, Note_on_c, 0, 61, 0
2, 12840, Note_on_c, 0, 64, 64
2, 12840, Note_on_c, 0, 61, 64
2, 12863, Note_on_c, 0, 64, 0
2, 12863, Note_on_c, 0, 61, 0
2, 12864, Note_on_c, 0, 81, 64
2, 12864, Note_on_c, 0, 73, 64
2, 12909, Note_on_c, 0, 81, 0
2, 12909, Note_on_c, 0, 73, 0
2, 12912, Note_on_c, 0, 64, 64
2, 12912, Note_on_c, 0, 61, 64
2, 12935, Note_on_c, 0, 64, 0
2, 12935, Note_on_c, 0, 61, 0
2, 12936, Note_on_c, 0, 64, 64
2, 12936, Note_on_c, 0, 61, 64
2, 12959, Note_on_c, 0, 64, 0
2, 12959, Note_on_c, 0, 61, 0
2, 12960, Note_on_c, 0, 64, 64
2, 12960, Note_on_c, 0, 61, 64
2, 13005, Note_on_c, 0, 64, 0
2, 13005, Note_on_c, 0, 61, 0
2, 13008, Note_on_c, 0, 64, 64
2, 13008, Note_on_c, 0, 61, 64
2, 13031, Note_on_c, 0, 64, 0
2, 13031, Note_on_c, 0, 61, 0
2, 13032, Note_on_c, 0, 64, 64
2, 13032, Note_on_c, 0, 61, 64
2, 13055, Note_on_c, 0, 64, 0
2, 13055, Note_on_c, 0, 61, 0
2, 13056, Note_on_c, 0, 62, 64
2, 13056, Note_on_c, 0, 59, 64
2, 13101, Note_on_c, 0, 62, 0
2, 13101, Note_on_c, 0, 59, 0
2, 13104, Note_on_c, 0, 62, 64
2, 13104, Note_on_c, 0, 59, 64
2, 13127, Note_on_c, 0, 62, 0
2, 13127, Note_on_c, 0, 59, 0
2, 13128, Note_on_c, 0, 62, 64
2, 13128, Note_on_c, 0, 59, 64
2, 13151, Note_on_c, 0, 62, 0
2, 13151, Note_on_c, 0, 59, 0
2, 13152, Note_on_c, 0, 81, 64
2, 13152, Note_on_c, 0, 71, 64
2, 13197, Note_on_c, 0, 81, 0
2, 13197, Note_on_c, 0, 71, 0
2, 13200, Note_on_c, 0, 62, 64
2, 13200, Note_on_c, 0, 59, 64
2, 13223, Note_on_c, 0, 62, 0
2, 13223, Note_on_c, 0, 59, 0
2, 13224, Note_on_c, 0, 62, 64
2, 13224, Note_on_c, 0, 59, 64
2, 13247, Note_on_c, 0, 62, 0
2, 13247, Note_on_c, 0, 59, 0
2, 13248, Note_on_c, 0, 80, 64
2, 13248, Note_on_c, 0, 71, 64
2, 13293, Note_on_c, 0, 80, 0
2, 13293, Note_on_c, 0, 71, 0
2, 13296, Note_on_c, 0, 62, 64
2, 13296, Note_on_c, 0, 59, 64
2, 13319, Note_on_c, 0, 62, 0
2, 13319, Note_on_c, 0, 59, 0
2, 13320, Note_on_c, 0, 62, 64
2, 13320, Note_on_c, 0, 59, 64
2, 13343, Note_on_c, 0, 62, 0
2, 13343, Note_on_c, 0, 59, 0
2, 13344, Note_on_c, 0, 69, 75
2, 13344, Note_on_c, 0, 64, 75
2, 13344, Note_on_c, 0, 60, 75
2, 13433, Note_on_c, 0, 69, 0
2, 13433, Note_on_c, 0, 64, 0
2, 13433, Note_on_c, 0, 60, 0
2, 13440, Note_on_c, 0, 68, 78
2, 13440, Note_on_c, 0, 64, 78
2, 13440, Note_on_c, 0, 59, 78
2, 13529, Note_on_c, 0, 68, 0
2, 13529, Note_on_c, 0, 64, 0
2, 13529, Note_on_c, 0, 59, 0
2, 13536, Note_on_c, 0, 69, 82
2, 13536, Note_on_c, 0, 64, 82
2, 13536, Note_on_c, 0, 60, 82
2, 13603, Note_on_c, 0, 69, 0
2, 13603, Note_on_c, 0, 64, 0
2, 13603, Note_on_c, 0, 60, 0
2, 13608, Note_on_c, 0, 76, 85
2, 13608, Note_on_c, 0, 72, 85
2, 13631, Note_on_c, 0, 76, 0
2, 13631, Note_on_c, 0, 72, 0
2, 13632, Note_on_c, 0, 76, 102
2, 13632, Note_on_c, 0, 72, 102
2, 13680, Note_on_c, 0, 76, 0
2, 13680, Note_on_c, 0, 72, 0
2, 13680, Note_on_c, 0, 74, 86
2, 13680, Note_on_c, 0, 71, 86
2, 13703, Note_on_c, 0, 74, 0
2, 13703, Note_on_c, 0, 71, 0
2, 13704, Note_on_c, 0, 72, 86
2, 13704, Note_on_c, 0, 69, 86
2, 13727, Note_on_c, 0, 72, 0
2, 13727, Note_on_c, 0, 69, 0
2, 13728, Note_on_c, 0, 72, 75
2, 13728, Note_on_c, 0, 69, 75
2, 13728, Note_on_c, 0, 64, 75
2, 13824, Note_on_c, 0, 72, 0
2, 13824, Note_on_c, 0, 69, 0
2, 13824, Note_on_c, 0, 71, 70
2, 13824, Note_on_c, 0, 68, 70
2, 13869, Note_on_c, 0, 71, 0
2, 13869, Note_on_c, 0, 68, 0
2, 13869, Note_on_c, 0, 64, 0
2, 13920, Note_on_c, 0, 74, 64
2, 13926, Note_on_c, 0, 74, 0
2, 13926, Note_on_c, 0, 72, 64
2, 13954, Note_on_c, 0, 72, 0
2, 13956, Note_on_c, 0, 71, 64
2, 13968, Note_on_c, 0, 71, 0
2, 13968, Note_on_c, 0, 74, 64
2, 13974, Note_on_c, 0, 74, 0
2, 13974, Note_on_c, 0, 72, 64
2, 14002, Note_on_c, 0, 72, 0
2, 14004, Note_on_c, 0, 71, 64
2, 14016, Note_on_c, 0, 71, 0
2, 14016, Note_on_c, 0, 74, 64
2, 14022, Note_on_c, 0, 74, 0
2, 14022, Note_on_c, 0, 72, 64
2, 14031, Note_on_c, 0, 72, 0
2, 14032, Note_on_c, 0, 71, 64
2, 14047, Note_on_c, 0, 71, 0
2, 14048, Note_on_c, 0, 72, 64
2, 14063, Note_on_c, 0, 72, 0
2, 14064, Note_on_c, 0, 76, 64
2, 14079, Note_on_c, 0, 76, 0
2, 14080, Note_on_c, 0, 74, 64
2, 14095, Note_on_c, 0, 74, 0
2, 14096, Note_on_c, 0, 72, 64
2, 14111, Note_on_c, 0, 72, 0
2, 14112, Note_on_c, 0, 72, 80
2, 14136, Note_on_c, 0, 72, 0
2, 14136, Note_on_c, 0, 70, 64
2, 14181, Note_on_c, 0, 70, 0
2, 14184, Note_on_c, 0, 71, 64
2, 14207, Note_on_c, 0, 71, 0
2, 14208, Note_on_c, 0, 72, 64
2, 14214, Note_on_c, 0, 72, 0
2, 14214, Note_on_c, 0, 70, 64
2, 14242, Note_on_c, 0, 70, 0
2, 14244, Note_on_c, 0, 69, 64
2, 14256, Note_on_c, 0, 69, 0
2, 14256, Note_on_c, 0, 72, 64
2, 14262, Note_on_c, 0, 72, 0
2, 14262, Note_on_c, 0, 70, 64
2, 14290, Note_on_c, 0, 70, 0
2, 14292, Note_on_c, 0, 69, 64
2, 14304, Note_on_c, 0, 69, 0
2, 14304, Note_on_c, 0, 72, 64
2, 14310, Note_on_c, 0, 72, 0
2, 14310, Note_on_c, 0, 70, 64
2, 14319, Note_on_c, 0, 70, 0
2, 14320, Note_on_c, 0, 69, 64
2, 14335, Note_on_c, 0, 69, 0
2, 14336, Note_on_c, 0, 70, 64
2, 14351, Note_on_c, 0, 70, 0
2, 14352, Note_on_c, 0, 74, 64
2, 14367, Note_on_c, 0, 74, 0
2, 14368, Note_on_c, 0, 72, 64
2, 14383, Note_on_c, 0, 72, 0
2, 14384, Note_on_c, 0, 70, 64
2, 14399, Note_on_c, 0, 70, 0
2, 14400, Note_on_c, 0, 70, 80
2, 14432, Note_on_c, 0, 70, 0
2, 14432, Note_on_c, 0, 69, 64
2, 14447, Note_on_c, 0, 69, 0
2, 14448, Note_on_c, 0, 68, 64
2, 14471, Note_on_c, 0, 68, 0
2, 14472, Note_on_c, 0, 69, 64
2, 14519, Note_on_c, 0, 69, 0
2, 14520, Note_on_c, 0, 66, 63
2, 14565, Note_on_c, 0, 66, 0
2, 14568, Note_on_c, 0, 67, 62
2, 14615, Note_on_c, 0, 67, 0
2, 14616, Note_on_c, 0, 64, 61
2, 14661, Note_on_c, 0, 64, 0
2, 14664, Note_on_c, 0, 65, 60
2, 14711, Note_on_c, 0, 65, 0
2, 14712, Note_on_c, 0, 63, 59
2, 14757, Note_on_c, 0, 63, 0
2, 14760, Note_on_c, 0, 64, 58
2, 14783, Note_on_c, 0, 64, 0
2, 14808, Note_on_c, 0, 68, 80
2, 14808, Note_on_c, 0, 62, 80
2, 14832, Note_on_c, 0, 68, 0
2, 14832, Note_on_c, 0, 62, 0
2, 14832, Note_on_c, 0, 69, 80
2, 14832, Note_on_c, 0, 61, 80
2, 14855, Note_on_c, 0, 69, 0
2, 14855, Note_on_c, 0, 61, 0
2, 14856, Note_on_c, 0, 56, 80
2, 14856, Note_on_c, 0, 50, 80
2, 14880, Note_on_c, 0, 56, 0
2, 14880, Note_on_c, 0, 50, 0
2, 14880, Note_on_c, 0, 57, 80
2, 14880, Note_on_c, 0, 49, 80
2, 14903, Note_on_c, 0, 57, 0
2, 14903, Note_on_c, 0, 49, 0
2, 14934, Note_on_c, 0, 75, 64
2, 14934, Note_on_c, 0, 72, 64
2, 14934, Note_on_c, 0, 69, 64
2, 14942, Note_on_c, 0, 75, 0
2, 14942, Note_on_c, 0, 72, 0
2, 14942, Note_on_c, 0, 69, 0
2, 14952, Note_on_c, 0, 75, 70
2, 14952, Note_on_c, 0, 72, 70
2, 14952, Note_on_c, 0, 69, 70
2, 15023, Note_on_c, 0, 75, 0
2, 15023, Note_on_c, 0, 72, 0
2, 15023, Note_on_c, 0, 69, 0
2, 15024, Control_c, 0, 64, 127
2, 15024, Note_on_c, 0, 76, 64
2, 15024, Note_on_c, 0, 71, 64
2, 15024, Note_on_c, 0, 68, 64
2, 15069, Note_on_c, 0, 76, 0
2, 15069, Note_on_c, 0, 71, 0
2, 15069, Note_on_c, 0, 68, 0
2, 15072, Control_c, 0, 64, 0
2, 15264, Note_on_c, 0, 64, 80
2, 15303, Note_on_c, 0, 64, 0
2, 15360, Note_on_c, 0, 61, 64
2, 15399, Note_on_c, 0, 61, 0
2, 15456, Note_on_c, 0, 64, 64
2, 15495, Note_on_c, 0, 64, 0
2, 15552, Note_on_c, 0, 69, 99
2, 15737, Note_on_c, 0, 69, 0
2, 15744, Note_on_c, 0, 68, 64
2, 15833, Note_on_c, 0, 68, 0
2, 15840, Note_on_c, 0, 76, 83
2, 15852, Note_on_c, 0, 76, 0
2, 15852, Note_on_c, 0, 74, 83
2, 15864, Note_on_c, 0, 74, 0
2, 15864, Note_on_c, 0, 73, 83
2, 15876, Note_on_c, 0, 73, 0
2, 15876, Note_on_c, 0, 74, 99
2, 15981, Note_on_c, 0, 74, 0
2, 15984, Note_on_c, 0, 73, 64
2, 16029, Note_on_c, 0, 73, 0
2, 16032, Note_on_c, 0, 71, 64
2, 16077, Note_on_c, 0, 71, 0
2, 16080, Note_on_c, 0, 69, 64
2, 16125, Note_on_c, 0, 69, 0
2, 16128, Note_on_c, 0, 68, 64
2, 16176, Note_on_c, 0, 68, 0
2, 16176, Note_on_c, 0, 71, 64
2, 16221, Note_on_c, 0, 71, 0
2, 16224, Note_on_c, 0, 68, 64
2, 16244, Note_on_c, 0, 68, 0
2, 16272, Note_on_c, 0, 64, 64
2, 16292, Note_on_c, 0, 64, 0
2, 16320, Note_on_c, 0, 76, 99
2, 16464, Note_on_c, 0, 76, 0
2, 16464, Note_on_c, 0, 74, 64
2, 16509, Note_on_c, 0, 74, 0
2, 16512, Note_on_c, 0, 73, 64
2, 16560, Note_on_c, 0, 73, 0
2, 16560, Note_on_c, 0, 76, 64
2, 16605, Note_on_c, 0, 76, 0
2, 16608, Note_on_c, 0, 73, 64
2, 16628, Note_on_c, 0, 73, 0
2, 16656, Note_on_c, 0, 69, 64
2, 16676, Note_on_c, 0, 69, 0
2, 16704, Note_on_c, 0, 81, 99
2, 16845, Note_on_c, 0, 81, 0
2, 16848, Note_on_c, 0, 81, 64
2, 16848, Note_on_c, 0, 78, 64
2, 16893, Note_on_c, 0, 81, 0
2, 16893, Note_on_c, 0, 78, 0
2, 16896, Note_on_c, 0, 80, 64
2, 16896, Note_on_c, 0, 76, 64
2, 16941, Note_on_c, 0, 80, 0
2, 16941, Note_on_c, 0, 76, 0
2, 16944, Note_on_c, 0, 78, 64
2, 16944, Note_on_c, 0, 74, 64
2, 16989, Note_on_c, 0, 78, 0
2, 16989, Note_on_c, 0, 74, 0
2, 16992, Note_on_c, 0, 76, 64
2, 16992, Note_on_c, 0, 73, 64
2, 17037, Note_on_c, 0, 76, 0
2, 17037, Note_on_c, 0, 73, 0
2, 17040, Note_on_c, 0, 74, 64
2, 17040, Note_on_c, 0, 71, 64
2, 17085, Note_on_c, 0, 74, 0
2, 17085, Note_on_c, 0, 71, 0
2, 17088, Note_on_c, 0, 74, 64
2, 17136, Note_on_c, 0, 74, 0
2, 17136, Note_on_c, 0, 73, 64
2, 17181, Note_on_c, 0, 73, 0
2, 17184, Note_on_c, 0, 71, 64
2, 17204, Note_on_c, 0, 71, 0
2, 17232, Note_on_c, 0, 69, 64
2, 17252, Note_on_c, 0, 69, 0
2, 17280, Note_on_c, 0, 76, 99
2, 17421, Note_on_c, 0, 76, 0
2, 17424, Note_on_c, 0, 74, 64
2, 17424, Note_on_c, 0, 66, 64
2, 17469, Note_on_c, 0, 74, 0
2, 17469, Note_on_c, 0, 66, 0
2, 17472, Note_on_c, 0, 73, 64
2, 17472, Note_on_c, 0, 64, 64
2, 17520, Note_on_c, 0, 73, 0
2, 17520, Note_on_c, 0, 64, 0
2, 17520, Note_on_c, 0, 71, 64
2, 17520, Note_on_c, 0, 62, 64
2, 17565, Note_on_c, 0, 71, 0
2, 17565, Note_on_c, 0, 62, 0
2, 17568, Note_on_c, 0, 69, 64
2, 17568, Note_on_c, 0, 61, 64
2, 17588, Note_on_c, 0, 69, 0
2, 17588, Note_on_c, 0, 61, 0
2, 17616, Note_on_c, 0, 68, 64
2, 17616, Note_on_c, 0, 59, 64
2, 17636, Note_on_c, 0, 68, 0
2, 17636, Note_on_c, 0, 59, 0
2, 17664, Note_on_c, 0, 69, 64
2, 17664, Note_on_c, 0, 61, 64
2, 17753, Note_on_c, 0, 69, 0
2, 17753, Note_on_c, 0, 61, 0
2, 17760, Note_on_c, 0, 81, 80
2, 17760, Note_on_c, 0, 73, 80
2, 17856, Note_on_c, 0, 81, 0
2, 17856, Note_on_c, 0, 73, 0
2, 17856, Note_on_c, 0, 73, 64
2, 17856, Note_on_c, 0, 69, 64
2, 17945, Note_on_c, 0, 73, 0
2, 17945, Note_on_c, 0, 69, 0
2, 17952, Note_on_c, 0, 71, 64
2, 17952, Note_on_c, 0, 69, 64
2, 18041, Note_on_c, 0, 71, 0
2, 18041, Note_on_c, 0, 69, 0
2, 18048, Note_on_c, 0, 80, 80
2, 18048, Note_on_c, 0, 71, 80
2, 18144, Note_on_c, 0, 80, 0
2, 18144, Note_on_c, 0, 71, 0
2, 18144, Note_on_c, 0, 71, 64
2, 18144, Note_on_c, 0, 68, 64
2, 18233, Note_on_c, 0, 71, 0
2, 18233, Note_on_c, 0, 68, 0
2, 18240, Note_on_c, 0, 69, 64
2, 18240, Note_on_c, 0, 68, 64
2, 18329, Note_on_c, 0, 69, 0
2, 18329, Note_on_c, 0, 68, 0
2, 18336, Note_on_c, 0, 78, 80
2, 18336, Note_on_c, 0, 69, 80
2, 18432, Note_on_c, 0, 78, 0
2, 18432, Note_on_c, 0, 69, 0
2, 18432, Note_on_c, 0, 69, 64
2, 18432, Note_on_c, 0, 66, 64
2, 18521, Note_on_c, 0, 69, 0
2, 18521, Note_on_c, 0, 66, 0
2, 18528, Note_on_c, 0, 68, 64
2, 18528, Note_on_c, 0, 66, 64
2, 18617, Note_on_c, 0, 68, 0
2, 18617, Note_on_c, 0, 66, 0
2, 18624, Note_on_c, 0, 76, 80
2, 18624, Note_on_c, 0, 68, 80
2, 18720, Note_on_c, 0, 76, 0
2, 18720, Note_on_c, 0, 68, 0
2, 18720, Note_on_c, 0, 68, 64
2, 18720, Note_on_c, 0, 64, 64
2, 18809, Note_on_c, 0, 68, 0
2, 18809, Note_on_c, 0, 64, 0
2, 18816, Note_on_c, 0, 66, 64
2, 18816, Note_on_c, 0, 64, 64
2, 18905, Note_on_c, 0, 66, 0
2, 18905, Note_on_c, 0, 64, 0
2, 18912, Note_on_c, 0, 74, 80
2, 18912, Note_on_c, 0, 66, 80
2, 19008, Note_on_c, 0, 74, 0
2, 19008, Note_on_c, 0, 66, 0
2, 19008, Note_on_c, 0, 66, 64
2, 19008, Note_on_c, 0, 62, 64
2, 19097, Note_on_c, 0, 66, 0
2, 19097, Note_on_c, 0, 62, 0
2, 19104, Note_on_c, 0, 64, 64
2, 19104, Note_on_c, 0, 62, 64
2, 19193, Note_on_c, 0, 64, 0
2, 19193, Note_on_c, 0, 62, 0
2, 19200, Note_on_c, 0, 74, 80
2, 19200, Note_on_c, 0, 71, 80
2, 19344, Note_on_c, 0, 74, 0
2, 19344, Note_on_c, 0, 71, 0
2, 19344, Note_on_c, 0, 74, 64
2, 19344, Note_on_c, 0, 71, 64
2, 19389, Note_on_c, 0, 74, 0
2, 19389, Note_on_c, 0, 71, 0
2, 19392, Note_on_c, 0, 73, 64
2, 19437, Note_on_c, 0, 73, 0
2, 19440, Note_on_c, 0, 71, 64
2, 19485, Note_on_c, 0, 71, 0
2, 19488, Note_on_c, 0, 69, 64
2, 19533, Note_on_c, 0, 69, 0
2, 19536, Note_on_c, 0, 68, 64
2, 19581, Note_on_c, 0, 68, 0
2, 19584, Note_on_c, 0, 69, 80
2, 19656, Note_on_c, 0, 69, 0
2, 19656, Note_on_c, 0, 64, 64
2, 19656, Note_on_c, 0, 61, 64
2, 19679, Note_on_c, 0, 64, 0
2, 19679, Note_on_c, 0, 61, 0
2, 19680, Note_on_c, 0, 66, 64
2, 19680, Note_on_c, 0, 62, 64
2, 19747, Note_on_c, 0, 66, 0
2, 19747, Note_on_c, 0, 62, 0
2, 19752, Note_on_c, 0, 62, 64
2, 19752, Note_on_c, 0, 59, 64
2, 19775, Note_on_c, 0, 62, 0
2, 19775, Note_on_c, 0, 59, 0
2, 19776, Note_on_c, 0, 61, 64
2, 19776, Note_on_c, 0, 57, 64
2, 19865, Note_on_c, 0, 61, 0
2, 19865, Note_on_c, 0, 57, 0
2, 19872, Note_on_c, 0, 59, 64
2, 19872, Note_on_c, 0, 56, 64
2, 19961, Note_on_c, 0, 59, 0
2, 19961, Note_on_c, 0, 56, 0
2, 20016, Note_on_c, 0, 57, 75
2, 20061, Note_on_c, 0, 57, 0
2, 20064, Note_on_c, 0, 61, 75
2, 20109, Note_on_c, 0, 61, 0
2, 20112, Note_on_c, 0, 64, 75
2, 20157, Note_on_c, 0, 64, 0
2, 20160, Note_on_c, 0, 69, 75
2, 20180, Note_on_c, 0, 69, 0
2, 20208, Note_on_c, 0, 69, 75
2, 20228, Note_on_c, 0, 69, 0
2, 20256, Note_on_c, 0, 68, 75
2, 20301, Note_on_c, 0, 68, 0
2, 20304, Note_on_c, 0, 64, 75
2, 20349, Note_on_c, 0, 64, 0
2, 20352, Note_on_c, 0, 68, 75
2, 20397, Note_on_c, 0, 68, 0
2, 20400, Note_on_c, 0, 71, 75
2, 20445, Note_on_c, 0, 71, 0
2, 20448, Note_on_c, 0, 74, 75
2, 20468, Note_on_c, 0, 74, 0
2, 20496, Note_on_c, 0, 74, 75
2, 20516, Note_on_c, 0, 74, 0
2, 20544, Note_on_c, 0, 73, 75
2, 20544, Note_on_c, 0, 69, 75
2, 20633, Note_on_c, 0, 73, 0
2, 20633, Note_on_c, 0, 69, 0
2, 20880, Note_on_c, 0, 71, 75
2, 20925, Note_on_c, 0, 71, 0
2, 20928, Note_on_c, 0, 74, 75
2, 20973, Note_on_c, 0, 74, 0
2, 20976, Note_on_c, 0, 80, 75
2, 21021, Note_on_c, 0, 80, 0
2, 21024, Note_on_c, 0, 83, 75
2, 21044, Note_on_c, 0, 83, 0
2, 21072, Note_on_c, 0, 83, 76
2, 21092, Note_on_c, 0, 83, 0
2, 21120, Note_on_c, 0, 81, 76
2, 21165, Note_on_c, 0, 81, 0
2, 21168, Note_on_c, 0, 73, 76
2, 21213, Note_on_c, 0, 73, 0
2, 21216, Note_on_c, 0, 76, 77
2, 21261, Note_on_c, 0, 76, 0
2, 21264, Note_on_c, 0, 81, 77
2, 21309, Note_on_c, 0, 81, 0
2, 21312, Note_on_c, 0, 85, 77
2, 21332, Note_on_c, 0, 85, 0
2, 21360, Note_on_c, 0, 85, 77
2, 21380, Note_on_c, 0, 85, 0
2, 21408, Note_on_c, 0, 83, 78
2, 21453, Note_on_c, 0, 83, 0
2, 21456, Note_on_c, 0, 76, 78
2, 21501, Note_on_c, 0, 76, 0
2, 21504, Note_on_c, 0, 80, 78
2, 21549, Note_on_c, 0, 80, 0
2, 21552, Note_on_c, 0, 83, 79
2, 21597, Note_on_c, 0, 83, 0
2, 21600, Note_on_c, 0, 86, 79
2, 21620, Note_on_c, 0, 86, 0
2, 21648, Note_on_c, 0, 86, 79
2, 21668, Note_on_c, 0, 86, 0
2, 21696, Note_on_c, 0, 85, 80
2, 21719, Note_on_c, 0, 85, 0
2, 21720, Note_on_c, 0, 83, 80
2, 21743, Note_on_c, 0, 83, 0
2, 21744, Note_on_c, 0, 85, 80
2, 21767, Note_on_c, 0, 85, 0
2, 21768, Note_on_c, 0, 86, 80
2, 21791, Note_on_c, 0, 86, 0
2, 21792, Note_on_c, 0, 88, 80
2, 21815, Note_on_c, 0, 88, 0
2, 21816, Note_on_c, 0, 86, 80
2, 21839, Note_on_c, 0, 86, 0
2, 21840, Note_on_c, 0, 85, 80
2, 21863, Note_on_c, 0, 85, 0
2, 21864, Note_on_c, 0, 83, 80
2, 21887, Note_on_c, 0, 83, 0
2, 21888, Note_on_c, 0, 81, 80
2, 21911, Note_on_c, 0, 81, 0
2, 21912, Note_on_c, 0, 80, 80
2, 21935, Note_on_c, 0, 80, 0
2, 21936, Note_on_c, 0, 78, 80
2, 21959, Note_on_c, 0, 78, 0
2, 21960, Note_on_c, 0, 76, 80
2, 21983, Note_on_c, 0, 76, 0
2, 21984, Note_on_c, 0, 78, 80
2, 22073, Note_on_c, 0, 78, 0
2, 22272, Note_on_c, 0, 71, 80
2, 22295, Note_on_c, 0, 71, 0
2, 22296, Note_on_c, 0, 70, 80
2, 22319, Note_on_c, 0, 70, 0
2, 22320, Note_on_c, 0, 71, 80
2, 22343, Note_on_c, 0, 71, 0
2, 22344, Note_on_c, 0, 73, 80
2, 22367, Note_on_c, 0, 73, 0
2, 22368, Note_on_c, 0, 74, 80
2, 22391, Note_on_c, 0, 74, 0
2, 22392, Note_on_c, 0, 73, 80
2, 22415, Note_on_c, 0, 73, 0
2, 22416, Note_on_c, 0, 71, 80
2, 22439, Note_on_c, 0, 71, 0
2, 22440, Note_on_c, 0, 69, 80
2, 22463, Note_on_c, 0, 69, 0
2, 22464, Note_on_c, 0, 71, 80
2, 22487, Note_on_c, 0, 71, 0
2, 22488, Note_on_c, 0, 69, 80
2, 22511, Note_on_c, 0, 69, 0
2, 22512, Note_on_c, 0, 68, 80
2, 22535, Note_on_c, 0, 68, 0
2, 22536, Note_on_c, 0, 66, 80
2, 22559, Note_on_c, 0, 66, 0
2, 22560, Note_on_c, 0, 68, 80
2, 22583, Note_on_c, 0, 68, 0
2, 22584, Note_on_c, 0, 64, 80
2, 22607, Note_on_c, 0, 64, 0
2, 22608, Note_on_c, 0, 66, 80
2, 22631, Note_on_c, 0, 66, 0
2, 22632, Note_on_c, 0, 68, 80
2, 22655, Note_on_c, 0, 68, 0
2, 22656, Note_on_c, 0, 69, 80
2, 22679, Note_on_c, 0, 69, 0
2, 22680, Note_on_c, 0, 71, 80
2, 22703, Note_on_c, 0, 71, 0
2, 22704, Note_on_c, 0, 73, 80
2, 22727, Note_on_c, 0, 73, 0
2, 22728, Note_on_c, 0, 75, 80
2, 22751, Note_on_c, 0, 75, 0
2, 22752, Note_on_c, 0, 76, 80
2, 22775, Note_on_c, 0, 76, 0
2, 22776, Note_on_c, 0, 69, 80
2, 22799, Note_on_c, 0, 69, 0
2, 22800, Note_on_c, 0, 71, 80
2, 22823, Note_on_c, 0, 71, 0
2, 22824, Note_on_c, 0, 73, 80
2, 22847, Note_on_c, 0, 73, 0
2, 22848, Note_on_c, 0, 75, 80
2, 22871, Note_on_c, 0, 75, 0
2, 22872, Note_on_c, 0, 76, 80
2, 22895, Note_on_c, 0, 76, 0
2, 22896, Note_on_c, 0, 78, 80
2, 22919, Note_on_c, 0, 78, 0
2, 22920, Note_on_c, 0, 80, 80
2, 22943, Note_on_c, 0, 80, 0
2, 22944, Note_on_c, 0, 81, 80
2, 22967, Note_on_c, 0, 81, 0
2, 22968, Note_on_c, 0, 80, 80
2, 22991, Note_on_c, 0, 80, 0
2, 22992, Note_on_c, 0, 81, 80
2, 23015, Note_on_c, 0, 81, 0
2, 23016, Note_on_c, 0, 80, 80
2, 23039, Note_on_c, 0, 80, 0
2, 23040, Note_on_c, 0, 81, 80
2, 23129, Note_on_c, 0, 81, 0
2, 23136, Note_on_c, 0, 81, 96
2, 23160, Note_on_c, 0, 81, 0
2, 23160, Note_on_c, 0, 80, 80
2, 23183, Note_on_c, 0, 80, 0
2, 23184, Note_on_c, 0, 81, 80
2, 23207, Note_on_c, 0, 81, 0
2, 23208, Note_on_c, 0, 80, 80
2, 23231, Note_on_c, 0, 80, 0
2, 23232, Note_on_c, 0, 81, 80
2, 23255, Note_on_c, 0, 81, 0
2, 23256, Note_on_c, 0, 80, 80
2, 23279, Note_on_c, 0, 80, 0
2, 23280, Note_on_c, 0, 78, 80
2, 23303, Note_on_c, 0, 78, 0
2, 23304, Note_on_c, 0, 76, 80
2, 23327, Note_on_c, 0, 76, 0
2, 23328, Note_on_c, 0, 74, 80
2, 23351, Note_on_c, 0, 74, 0
2, 23352, Note_on_c, 0, 73, 80
2, 23375, Note_on_c, 0, 73, 0
2, 23376, Note_on_c, 0, 71, 80
2, 23399, Note_on_c, 0, 71, 0
2, 23400, Note_on_c, 0, 69, 80
2, 23423, Note_on_c, 0, 69, 0
2, 23424, Note_on_c, 0, 75, 80
2, 23447, Note_on_c, 0, 75, 0
2, 23448, Note_on_c, 0, 76, 80
2, 23471, Note_on_c, 0, 76, 0
2, 23472, Note_on_c, 0, 75, 80
2, 23495, Note_on_c, 0, 75, 0
2, 23496, Note_on_c, 0, 76, 80
2, 23519, Note_on_c, 0, 76, 0
2, 23520, Note_on_c, 0, 64, 80
2, 23653, Note_on_c, 0, 64, 0
2, 23904, Note_on_c, 0, 64, 91
2, 23943, Note_on_c, 0, 64, 0
2, 24000, Note_on_c, 0, 61, 75
2, 24039, Note_on_c, 0, 61, 0
2, 24096, Note_on_c, 0, 64, 75
2, 24135, Note_on_c, 0, 64, 0
2, 24192, Note_on_c, 0, 69, 110
2, 24377, Note_on_c, 0, 69, 0
2, 24384, Note_on_c, 0, 68, 75
2, 24473, Note_on_c, 0, 68, 0
2, 24480, Note_on_c, 0, 76, 94
2, 24492, Note_on_c, 0, 76, 0
2, 24492, Note_on_c, 0, 74, 94
2, 24504, Note_on_c, 0, 74, 0
2, 24504, Note_on_c, 0, 73, 94
2, 24516, Note_on_c, 0, 73, 0
2, 24516, Note_on_c, 0, 74, 110
2, 24621, Note_on_c, 0, 74, 0
2, 24624, Note_on_c, 0, 73, 75
2, 24669, Note_on_c, 0, 73, 0
2, 24672, Note_on_c, 0, 71, 75
2, 24717, Note_on_c, 0, 71, 0
2, 24720, Note_on_c, 0, 69, 75
2, 24765, Note_on_c, 0, 69, 0
2, 24768, Note_on_c, 0, 68, 75
2, 24816, Note_on_c, 0, 68, 0
2, 24816, Note_on_c, 0, 71, 75
2, 24861, Note_on_c, 0, 71, 0
2, 24864, Note_on_c, 0, 68, 75
2, 24884, Note_on_c, 0, 68, 0
2, 24912, Note_on_c, 0, 64, 75
2, 24932, Note_on_c, 0, 64, 0
2, 24960, Note_on_c, 0, 76, 110
2, 25104, Note_on_c, 0, 76, 0
2, 25104, Note_on_c, 0, 74, 75
2, 25149, Note_on_c, 0, 74, 0
2, 25152, Note_on_c, 0, 73, 75
2, 25200, Note_on_c, 0, 73, 0
2, 25200, Note_on_c, 0, 76, 75
2, 25245, Note_on_c, 0, 76, 0
2, 25248, Note_on_c, 0, 73, 75
2, 25268, Note_on_c, 0, 73, 0
2, 25296, Note_on_c, 0, 69, 75
2, 25316, Note_on_c, 0, 69, 0
2, 25344, Note_on_c, 0, 81, 110
2, 25485, Note_on_c, 0, 81, 0
2, 25488, Note_on_c, 0, 81, 75
2, 25488, Note_on_c, 0, 78, 75
2, 25533, Note_on_c, 0, 81, 0
2, 25533, Note_on_c, 0, 78, 0
2, 25536, Note_on_c, 0, 80, 75
2, 25536, Note_on_c, 0, 76, 75
2, 25581, Note_on_c, 0, 80, 0
2, 25581, Note_on_c, 0, 76, 0
2, 25584, Note_on_c, 0, 78, 75
2, 25584, Note_on_c, 0, 74, 75
2, 25629, Note_on_c, 0, 78, 0
2, 25629, Note_on_c, 0, 74, 0
2, 25632, Note_on_c, 0, 76, 75
2, 25632, Note_on_c, 0, 73, 75
2, 25677, Note_on_c, 0, 76, 0
2, 25677, Note_on_c, 0, 73, 0
2, 25680, Note_on_c, 0, 74, 75
2, 25680, Note_on_c, 0, 71, 75
2, 25725, Note_on_c, 0, 74, 0
2, 25725, Note_on_c, 0, 71, 0
2, 25728, Note_on_c, 0, 74, 75
2, 25776, Note_on_c, 0, 74, 0
2, 25776, Note_on_c, 0, 73, 75
2, 25821, Note_on_c, 0, 73, 0
2, 25824, Note_on_c, 0, 71, 75
2, 25844, Note_on_c, 0, 71, 0
2, 25872, Note_on_c, 0, 69, 75
2, 25892, Note_on_c, 0, 69, 0
2, 25920, Note_on_c, 0, 76, 110
2, 26061, Note_on_c, 0, 76, 0
2, 26064, Note_on_c, 0, 74, 75
2, 26064, Note_on_c, 0, 66, 75
2, 26109, Note_on_c, 0, 74, 0
2, 26109, Note_on_c, 0, 66, 0
2, 26112, Note_on_c, 0, 73, 75
2, 26112, Note_on_c, 0, 64, 75
2, 26160, Note_on_c, 0, 73, 0
2, 26160, Note_on_c, 0, 64, 0
2, 26160, Note_on_c, 0, 71, 75
2, 26160, Note_on_c, 0, 62, 75
2, 26205, Note_on_c, 0, 71, 0
2, 26205, Note_on_c, 0, 62, 0
2, 26208, Note_on_c, 0, 69, 75
2, 26208, Note_on_c, 0, 61, 75
2, 26228, Note_on_c, 0, 69, 0
2, 26228, Note_on_c, 0, 61, 0
2, 26256, Note_on_c, 0, 68, 75
2, 26256, Note_on_c, 0, 59, 75
2, 26276, Note_on_c, 0, 68, 0
2, 26276, Note_on_c, 0, 59, 0
2, 26304, Note_on_c, 0, 69, 75
2, 26304, Note_on_c, 0, 61, 75
2, 26393, Note_on_c, 0, 69, 0
2, 26393, Note_on_c, 0, 61, 0
2, 26400, Note_on_c, 0, 81, 91
2, 26400, Note_on_c, 0, 73, 91
2, 26496, Note_on_c, 0, 81, 0
2, 26496, Note_on_c, 0, 73, 0
2, 26496, Note_on_c, 0, 73, 75
2, 26496, Note_on_c, 0, 69, 75
2, 26585, Note_on_c, 0, 73, 0
2, 26585, Note_on_c, 0, 69, 0
2, 26592, Note_on_c, 0, 71, 75
2, 26592, Note_on_c, 0, 69, 75
2, 26681, Note_on_c, 0, 71, 0
2, 26681, Note_on_c, 0, 69, 0
2, 26688, Note_on_c, 0, 80, 91
2, 26688, Note_on_c, 0, 71, 91
2, 26784, Note_on_c, 0, 80, 0
2, 26784, Note_on_c, 0, 71, 0
2, 26784, Note_on_c, 0, 71, 75
2, 26784, Note_on_c, 0, 68, 75
2, 26873, Note_on_c, 0, 71, 0
2, 26873, Note_on_c, 0, 68, 0
2, 26880, Note_on_c, 0, 69, 75
2, 26880, Note_on_c, 0, 68, 75
2, 26969, Note_on_c, 0, 69, 0
2, 26969, Note_on_c, 0, 68, 0
2, 26976, Note_on_c, 0, 78, 91
2, 26976, Note_on_c, 0, 69, 91
2, 27072, Note_on_c, 0, 78, 0
2, 27072, Note_on_c, 0, 69, 0
2, 27072, Note_on_c, 0, 69, 75
2, 27072, Note_on_c, 0, 66, 75
2, 27161, Note_on_c, 0, 69, 0
2, 27161, Note_on_c, 0, 66, 0
2, 27168, Note_on_c, 0, 68, 75
2, 27168, Note_on_c, 0, 66, 75
2, 27257, Note_on_c, 0, 68, 0
2, 27257, Note_on_c, 0, 66, 0
2, 27264, Note_on_c, 0, 76, 91
2, 27264, Note_on_c, 0, 68, 91
2, 27360, Note_on_c, 0, 76, 0
2, 27360, Note_on_c, 0, 68, 0
2, 27360, Note_on_c, 0, 68, 75
2, 27360, Note_on_c, 0, 64, 75
2, 27449, Note_on_c, 0, 68, 0
2, 27449, Note_on_c, 0, 64, 0
2, 27456, Note_on_c, 0, 66, 75
2, 27456, Note_on_c, 0, 64, 75
2, 27545, Note_on_c, 0, 66, 0
2, 27545, Note_on_c, 0, 64, 0
2, 27552, Note_on_c, 0, 74, 91
2, 27552, Note_on_c, 0, 66, 91
2, 27648, Note_on_c, 0, 74, 0
2, 27648, Note_on_c, 0, 66, 0
2, 27648, Note_on_c, 0, 66, 75
2, 27648, Note_on_c, 0, 62, 75
2, 27737, Note_on_c, 0, 66, 0
2, 27737, Note_on_c, 0, 62, 0
2, 27744, Note_on_c, 0, 64, 75
2, 27744, Note_on_c, 0, 62, 75
2, 27833, Note_on_c, 0, 64, 0
2, 27833, Note_on_c, 0, 62, 0
2, 27840, Note_on_c, 0, 74, 91
2, 27840, Note_on_c, 0, 71, 91
2, 27984, Note_on_c, 0, 74, 0
2, 27984, Note_on_c, 0, 71, 0
2, 27984, Note_on_c, 0, 74, 75
2, 27984, Note_on_c, 0, 71, 75
2, 28029, Note_on_c, 0, 74, 0
2, 28029, Note_on_c, 0, 71, 0
2, 28032, Note_on_c, 0, 73, 75
2, 28077, Note_on_c, 0, 73, 0
2, 28080, Note_on_c, 0, 71, 75
2, 28125, Note_on_c, 0, 71, 0
2, 28128, Note_on_c, 0, 69, 75
2, 28173, Note_on_c, 0, 69, 0
2, 28176, Note_on_c, 0, 68, 75
2, 28221, Note_on_c, 0, 68, 0
2, 28224, Note_on_c, 0, 69, 91
2, 28296, Note_on_c, 0, 69, 0
2, 28296, Note_on_c, 0, 64, 75
2, 28296, Note_on_c, 0, 61, 75
2, 28319, Note_on_c, 0, 64, 0
2, 28319, Note_on_c, 0, 61, 0
2, 28320, Note_on_c, 0, 66, 74
2, 28320, Note_on_c, 0, 62, 74
2, 28387, Note_on_c, 0, 66, 0
2, 28387, Note_on_c, 0, 62, 0
2, 28392, Note_on_c, 0, 62, 72
2, 28392, Note_on_c, 0, 59, 72
2, 28415, Note_on_c, 0, 62, 0
2, 28415, Note_on_c, 0, 59, 0
2, 28416, Note_on_c, 0, 61, 72
2, 28416, Note_on_c, 0, 57, 72
2, 28505, Note_on_c, 0, 61, 0
2, 28505, Note_on_c, 0, 57, 0
2, 28512, Note_on_c, 0, 59, 70
2, 28512, Note_on_c, 0, 56, 70
2, 28601, Note_on_c, 0, 59, 0
2, 28601, Note_on_c, 0, 56, 0
2, 28656, Note_on_c, 0, 69, 75
2, 28701, Note_on_c, 0, 69, 0
2, 28704, Note_on_c, 0, 68, 75
2, 28749, Note_on_c, 0, 68, 0
2, 28752, Note_on_c, 0, 69, 75
2, 28797, Note_on_c, 0, 69, 0
2, 28800, Note_on_c, 0, 72, 75
2, 28820, Note_on_c, 0, 72, 0
2, 28848, Note_on_c, 0, 69, 75
2, 28868, Note_on_c, 0, 69, 0
2, 28944, Note_on_c, 0, 74, 75
2, 28989, Note_on_c, 0, 74, 0
2, 28992, Note_on_c, 0, 73, 75
2, 29037, Note_on_c, 0, 73, 0
2, 29040, Note_on_c, 0, 74, 75
2, 29085, Note_on_c, 0, 74, 0
2, 29088, Note_on_c, 0, 83, 75
2, 29108, Note_on_c, 0, 83, 0
2, 29136, Note_on_c, 0, 74, 75
2, 29156, Note_on_c, 0, 74, 0
2, 29232, Note_on_c, 0, 72, 75
2, 29232, Note_on_c, 0, 69, 75
2, 29277, Note_on_c, 0, 72, 0
2, 29277, Note_on_c, 0, 69, 0
2, 29280, Note_on_c, 0, 71, 75
2, 29280, Note_on_c, 0, 68, 75
2, 29325, Note_on_c, 0, 71, 0
2, 29325, Note_on_c, 0, 68, 0
2, 29328, Note_on_c, 0, 72, 75
2, 29328, Note_on_c, 0, 69, 75
2, 29373, Note_on_c, 0, 72, 0
2, 29373, Note_on_c, 0, 69, 0
2, 29376, Note_on_c, 0, 76, 75
2, 29376, Note_on_c, 0, 72, 75
2, 29396, Note_on_c, 0, 76, 0
2, 29396, Note_on_c, 0, 72, 0
2, 29424, Note_on_c, 0, 72, 75
2, 29424, Note_on_c, 0, 69, 75
2, 29444, Note_on_c, 0, 72, 0
2, 29444, Note_on_c, 0, 69, 0
2, 29520, Note_on_c, 0, 83, 75
2, 29520, Note_on_c, 0, 80, 75
2, 29565, Note_on_c, 0, 83, 0
2, 29565, Note_on_c, 0, 80, 0
2, 29568, Note_on_c, 0, 86, 75
2, 29568, Note_on_c, 0, 83, 75
2, 29613, Note_on_c, 0, 86, 0
2, 29613, Note_on_c, 0, 83, 0
2, 29616, Note_on_c, 0, 89, 75
2, 29616, Note_on_c, 0, 86, 75
2, 29661, Note_on_c, 0, 89, 0
2, 29661, Note_on_c, 0, 86, 0
2, 29664, Note_on_c, 0, 88, 75
2, 29664, Note_on_c, 0, 84, 75
2, 29684, Note_on_c, 0, 88, 0
2, 29684, Note_on_c, 0, 84, 0
2, 29712, Note_on_c, 0, 86, 75
2, 29712, Note_on_c, 0, 83, 75
2, 29732, Note_on_c, 0, 86, 0
2, 29732, Note_on_c, 0, 83, 0
2, 29760, Note_on_c, 0, 84, 75
2, 29760, Note_on_c, 0, 81, 75
2, 29799, Note_on_c, 0, 84, 0
2, 29799, Note_on_c, 0, 81, 0
2, 29856, Note_on_c, 0, 57, 91
2, 29952, Note_on_c, 0, 57, 0
2, 29952, Note_on_c, 0, 84, 75
2, 29952, Note_on_c, 0, 81, 75
2, 29991, Note_on_c, 0, 84, 0
2, 29991, Note_on_c, 0, 81, 0
2, 30048, Note_on_c, 0, 83, 75
2, 30048, Note_on_c, 0, 80, 75
2, 30087, Note_on_c, 0, 83, 0
2, 30087, Note_on_c, 0, 80, 0
2, 30144, Note_on_c, 0, 56, 91
2, 30240, Note_on_c, 0, 56, 0
2, 30240, Note_on_c, 0, 83, 75
2, 30240, Note_on_c, 0, 80, 75
2, 30279, Note_on_c, 0, 83, 0
2, 30279, Note_on_c, 0, 80, 0
2, 30336, Note_on_c, 0, 84, 75
2, 30336, Note_on_c, 0, 81, 75
2, 30375, Note_on_c, 0, 84, 0
2, 30375, Note_on_c, 0, 81, 0
2, 30432, Note_on_c, 0, 57, 91
2, 30528, Note_on_c, 0, 57, 0
2, 30528, Note_on_c, 0, 84, 75
2, 30528, Note_on_c, 0, 81, 75
2, 30567, Note_on_c, 0, 84, 0
2, 30567, Note_on_c, 0, 81, 0
2, 30624, Note_on_c, 0, 86, 75
2, 30624, Note_on_c, 0, 83, 75
2, 30663, Note_on_c, 0, 86, 0
2, 30663, Note_on_c, 0, 83, 0
2, 30720, Note_on_c, 0, 55, 91
2, 30720, Note_on_c, 0, 43, 91
2, 30816, Note_on_c, 0, 55, 0
2, 30816, Note_on_c, 0, 43, 0
2, 30816, Note_on_c, 0, 86, 75
2, 30816, Note_on_c, 0, 83, 75
2, 30855, Note_on_c, 0, 86, 0
2, 30855, Note_on_c, 0, 83, 0
2, 30912, Note_on_c, 0, 88, 80
2, 30935, Note_on_c, 0, 88, 0
2, 30936, Note_on_c, 0, 86, 80
2, 30959, Note_on_c, 0, 86, 0
2, 30960, Note_on_c, 0, 84, 80
2, 30983, Note_on_c, 0, 84, 0
2, 30984, Note_on_c, 0, 83, 80
2, 31007, Note_on_c, 0, 83, 0
2, 31008, Note_on_c, 0, 81, 80
2, 31031, Note_on_c, 0, 81, 0
2, 31032, Note_on_c, 0, 79, 80
2, 31055, Note_on_c, 0, 79, 0
2, 31056, Note_on_c, 0, 77, 80
2, 31079, Note_on_c, 0, 77, 0
2, 31080, Note_on_c, 0, 76, 80
2, 31103, Note_on_c, 0, 76, 0
2, 31104, Note_on_c, 0, 74, 80
2, 31127, Note_on_c, 0, 74, 0
2, 31128, Note_on_c, 0, 72, 80
2, 31151, Note_on_c, 0, 72, 0
2, 31152, Note_on_c, 0, 71, 80
2, 31175, Note_on_c, 0, 71, 0
2, 31176, Note_on_c, 0, 69, 80
2, 31199, Note_on_c, 0, 69, 0
2, 31200, Note_on_c, 0, 70, 80
2, 31223, Note_on_c, 0, 70, 0
2, 31224, Note_on_c, 0, 62, 80
2, 31247, Note_on_c, 0, 62, 0
2, 31248, Note_on_c, 0, 65, 80
2, 31271, Note_on_c, 0, 65, 0
2, 31272, Note_on_c, 0, 70, 80
2, 31295, Note_on_c, 0, 70, 0
2, 31296, Note_on_c, 0, 74, 80
2, 31319, Note_on_c, 0, 74, 0
2, 31320, Note_on_c, 0, 65, 80
2, 31343, Note_on_c, 0, 65, 0
2, 31344, Note_on_c, 0, 70, 80
2, 31367, Note_on_c, 0, 70, 0
2, 31368, Note_on_c, 0, 74, 80
2, 31391, Note_on_c, 0, 74, 0
2, 31392, Note_on_c, 0, 77, 99
2, 31431, Note_on_c, 0, 77, 0
2, 31488, Note_on_c, 0, 77, 80
2, 31511, Note_on_c, 0, 77, 0
2, 31512, Note_on_c, 0, 71, 80
2, 31535, Note_on_c, 0, 71, 0
2, 31536, Note_on_c, 0, 74, 80
2, 31559, Note_on_c, 0, 74, 0
2, 31560, Note_on_c, 0, 77, 80
2, 31583, Note_on_c, 0, 77, 0
2, 31584, Note_on_c, 0, 83, 80
2, 31607, Note_on_c, 0, 83, 0
2, 31608, Note_on_c, 0, 74, 80
2, 31631, Note_on_c, 0, 74, 0
2, 31632, Note_on_c, 0, 77, 80
2, 31655, Note_on_c, 0, 77, 0
2, 31656, Note_on_c, 0, 83, 80
2, 31679, Note_on_c, 0, 83, 0
2, 31680, Note_on_c, 0, 86, 99
2, 31719, Note_on_c, 0, 86, 0
2, 31776, Note_on_c, 0, 76, 80
2, 31799, Note_on_c, 0, 76, 0
2, 31800, Note_on_c, 0, 69, 80
2, 31823, Note_on_c, 0, 69, 0
2, 31824, Note_on_c, 0, 64, 80
2, 31847, Note_on_c, 0, 64, 0
2, 31848, Note_on_c, 0, 69, 80
2, 31871, Note_on_c, 0, 69, 0
2, 31872, Note_on_c, 0, 73, 80
2, 31895, Note_on_c, 0, 73, 0
2, 31896, Note_on_c, 0, 69, 80
2, 31919, Note_on_c, 0, 69, 0
2, 31920, Note_on_c, 0, 73, 80
2, 31943, Note_on_c, 0, 73, 0
2, 31944, Note_on_c, 0, 76, 80
2, 31967, Note_on_c, 0, 76, 0
2, 31968, Note_on_c, 0, 81, 99
2, 32007, Note_on_c, 0, 81, 0
2, 32064, Note_on_c, 0, 74, 80
2, 32087, Note_on_c, 0, 74, 0
2, 32088, Note_on_c, 0, 69, 80
2, 32111, Note_on_c, 0, 69, 0
2, 32112, Note_on_c, 0, 65, 80
2, 32135, Note_on_c, 0, 65, 0
2, 32136, Note_on_c, 0, 69, 80
2, 32159, Note_on_c, 0, 69, 0
2, 32160, Note_on_c, 0, 74, 80
2, 32183, Note_on_c, 0, 74, 0
2, 32184, Note_on_c, 0, 69, 80
2, 32207, Note_on_c, 0, 69, 0
2, 32208, Note_on_c, 0, 74, 80
2, 32231, Note_on_c, 0, 74, 0
2, 32232, Note_on_c, 0, 77, 80
2, 32255, Note_on_c, 0, 77, 0
2, 32256, Note_on_c, 0, 81, 99
2, 32295, Note_on_c, 0, 81, 0
2, 32352, Note_on_c, 0, 68, 75
2, 32372, Note_on_c, 0, 68, 0
2, 32400, Note_on_c, 0, 77, 91
2, 32400, Note_on_c, 0, 74, 91
2, 32496, Note_on_c, 0, 77, 0
2, 32496, Note_on_c, 0, 74, 0
2, 32496, Note_on_c, 0, 76, 75
2, 32496, Note_on_c, 0, 72, 75
2, 32541, Note_on_c, 0, 76, 0
2, 32541, Note_on_c, 0, 72, 0
2, 32544, Note_on_c, 0, 74, 75
2, 32544, Note_on_c, 0, 71, 75
2, 32589, Note_on_c, 0, 74, 0
2, 32589, Note_on_c, 0, 71, 0
2, 32592, Note_on_c, 0, 72, 75
2, 32592, Note_on_c, 0, 69, 75
2, 32637, Note_on_c, 0, 72, 0
2, 32637, Note_on_c, 0, 69, 0
2, 32640, Note_on_c, 0, 71, 75
2, 32640, Note_on_c, 0, 68, 75
2, 32660, Note_on_c, 0, 71, 0
2, 32660, Note_on_c, 0, 68, 0
2, 32688, Note_on_c, 0, 65, 91
2, 32688, Note_on_c, 0, 62, 91
2, 32784, Note_on_c, 0, 65, 0
2, 32784, Note_on_c, 0, 62, 0
2, 32784, Note_on_c, 0, 64, 75
2, 32784, Note_on_c, 0, 60, 75
2, 32829, Note_on_c, 0, 64, 0
2, 32829, Note_on_c, 0, 60, 0
2, 32832, Note_on_c, 0, 62, 75
2, 32832, Note_on_c, 0, 59, 75
2, 32877, Note_on_c, 0, 62, 0
2, 32877, Note_on_c, 0, 59, 0
2, 32880, Note_on_c, 0, 60, 75
2, 32880, Note_on_c, 0, 57, 75
2, 32925, Note_on_c, 0, 60, 0
2, 32925, Note_on_c, 0, 57, 0
2, 32928, Note_on_c, 0, 59, 75
2, 32928, Note_on_c, 0, 56, 75
2, 32973, Note_on_c, 0, 59, 0
2, 32973, Note_on_c, 0, 56, 0
2, 32976, Note_on_c, 0, 64, 75
2, 33021, Note_on_c, 0, 64, 0
2, 33024, Note_on_c, 0, 76, 75
2, 33157, Note_on_c, 0, 76, 0
2, 33168, Note_on_c, 0, 74, 75
2, 33168, Note_on_c, 0, 65, 75
2, 33213, Note_on_c, 0, 74, 0
2, 33213, Note_on_c, 0, 65, 0
2, 33216, Note_on_c, 0, 72, 75
2, 33216, Note_on_c, 0, 64, 75
2, 33261, Note_on_c, 0, 72, 0
2, 33261, Note_on_c, 0, 64, 0
2, 33264, Note_on_c, 0, 71, 75
2, 33264, Note_on_c, 0, 62, 75
2, 33309, Note_on_c, 0, 71, 0
2, 33309, Note_on_c, 0, 62, 0
2, 33312, Note_on_c, 0, 69, 75
2, 33312, Note_on_c, 0, 60, 75
2, 33357, Note_on_c, 0, 69, 0
2, 33357, Note_on_c, 0, 60, 0
2, 33360, Note_on_c, 0, 68, 75
2, 33360, Note_on_c, 0, 59, 75
2, 33405, Note_on_c, 0, 68, 0
2, 33405, Note_on_c, 0, 59, 0
2, 33408, Note_on_c, 0, 69, 75
2, 33408, Note_on_c, 0, 60, 75
2, 33475, Note_on_c, 0, 69, 0
2, 33475, Note_on_c, 0, 60, 0
2, 33480, Note_on_c, 0, 64, 74
2, 33503, Note_on_c, 0, 64, 0
2, 33504, Note_on_c, 0, 65, 73
2, 33571, Note_on_c, 0, 65, 0
2, 33576, Note_on_c, 0, 62, 72
2, 33599, Note_on_c, 0, 62, 0
2, 33600, Note_on_c, 0, 60, 72
2, 33689, Note_on_c, 0, 60, 0
2, 33696, Note_on_c, 0, 59, 71
2, 33785, Note_on_c, 0, 59, 0
2, 33840, Note_on_c, 0, 75, 70
2, 33888, Note_on_c, 0, 75, 0
2, 33888, Note_on_c, 0, 76, 70
2, 34021, Note_on_c, 0, 76, 0
2, 34032, Note_on_c, 0, 74, 70
2, 34077, Note_on_c, 0, 74, 0
2, 34080, Note_on_c, 0, 74, 86
2, 34128, Note_on_c, 0, 74, 0
2, 34128, Note_on_c, 0, 72, 70
2, 34173, Note_on_c, 0, 72, 0
2, 34176, Note_on_c, 0, 74, 71
2, 34221, Note_on_c, 0, 74, 0
2, 34224, Note_on_c, 0, 71, 72
2, 34269, Note_on_c, 0, 71, 0
2, 34272, Note_on_c, 0, 72, 73
2, 34317, Note_on_c, 0, 72, 0
2, 34320, Note_on_c, 0, 69, 74
2, 34320, Note_on_c, 0, 60, 74
2, 34365, Note_on_c, 0, 69, 0
2, 34365, Note_on_c, 0, 60, 0
2, 34368, Note_on_c, 0, 70, 75
2, 34368, Note_on_c, 0, 62, 75
2, 34413, Note_on_c, 0, 70, 0
2, 34413, Note_on_c, 0, 62, 0
2, 34416, Note_on_c, 0, 69, 75
2, 34416, Note_on_c, 0, 60, 75
2, 34461, Note_on_c, 0, 69, 0
2, 34461, Note_on_c, 0, 60, 0
2, 34464, Note_on_c, 0, 68, 74
2, 34464, Note_on_c, 0, 59, 74
2, 34509, Note_on_c, 0, 68, 0
2, 34509, Note_on_c, 0, 59, 0
2, 34512, Note_on_c, 0, 65, 73
2, 34512, Note_on_c, 0, 57, 73
2, 34557, Note_on_c, 0, 65, 0
2, 34557, Note_on_c, 0, 57, 0
2, 34560, Note_on_c, 0, 64, 73
2, 34560, Note_on_c, 0, 56, 73
2, 34605, Note_on_c, 0, 64, 0
2, 34605, Note_on_c, 0, 56, 0
2, 34608, Note_on_c, 0, 62, 72
2, 34608, Note_on_c, 0, 53, 72
2, 34653, Note_on_c, 0, 62, 0
2, 34653, Note_on_c, 0, 53, 0
2, 34656, Note_on_c, 0, 62, 72
2, 34656, Note_on_c, 0, 53, 72
2, 34701, Note_on_c, 0, 62, 0
2, 34701, Note_on_c, 0, 53, 0
2, 34704, Note_on_c, 0, 60, 71
2, 34704, Note_on_c, 0, 52, 71
2, 34749, Note_on_c, 0, 60, 0
2, 34749, Note_on_c, 0, 52, 0
2, 34752, Note_on_c, 0, 59, 71
2, 34752, Note_on_c, 0, 50, 71
2, 34797, Note_on_c, 0, 59, 0
2, 34797, Note_on_c, 0, 50, 0
2, 34800, Note_on_c, 0, 57, 70
2, 34800, Note_on_c, 0, 48, 70
2, 34845, Note_on_c, 0, 57, 0
2, 34845, Note_on_c, 0, 48, 0
2, 35280, Note_on_c, 0, 69, 75
2, 35325, Note_on_c, 0, 69, 0
2, 35328, Note_on_c, 0, 81, 91
2, 35328, Note_on_c, 0, 72, 91
2, 35424, Note_on_c, 0, 81, 0
2, 35424, Note_on_c, 0, 72, 0
2, 35424, Note_on_c, 0, 72, 75
2, 35424, Note_on_c, 0, 69, 75
2, 35513, Note_on_c, 0, 72, 0
2, 35513, Note_on_c, 0, 69, 0
2, 35520, Note_on_c, 0, 70, 75
2, 35520, Note_on_c, 0, 69, 75
2, 35609, Note_on_c, 0, 70, 0
2, 35609, Note_on_c, 0, 69, 0
2, 35616, Note_on_c, 0, 79, 91
2, 35616, Note_on_c, 0, 70, 91
2, 35712, Note_on_c, 0, 79, 0
2, 35712, Note_on_c, 0, 70, 0
2, 35712, Note_on_c, 0, 70, 75
2, 35712, Note_on_c, 0, 67, 75
2, 35801, Note_on_c, 0, 70, 0
2, 35801, Note_on_c, 0, 67, 0
2, 35808, Note_on_c, 0, 69, 75
2, 35808, Note_on_c, 0, 67, 75
2, 35897, Note_on_c, 0, 69, 0
2, 35897, Note_on_c, 0, 67, 0
2, 35904, Note_on_c, 0, 77, 91
2, 35904, Note_on_c, 0, 69, 91
2, 36000, Note_on_c, 0, 77, 0
2, 36000, Note_on_c, 0, 69, 0
2, 36000, Note_on_c, 0, 69, 75
2, 36000, Note_on_c, 0, 65, 75
2, 36089, Note_on_c, 0, 69, 0
2, 36089, Note_on_c, 0, 65, 0
2, 36096, Note_on_c, 0, 67, 75
2, 36096, Note_on_c, 0, 65, 75
2, 36185, Note_on_c, 0, 67, 0
2, 36185, Note_on_c, 0, 65, 0
2, 36192, Note_on_c, 0, 76, 91
2, 36192, Note_on_c, 0, 67, 91
2, 36288, Note_on_c, 0, 76, 0
2, 36288, Note_on_c, 0, 67, 0
2, 36288, Note_on_c, 0, 67, 75
2, 36288, Note_on_c, 0, 64, 75
2, 36377, Note_on_c, 0, 67, 0
2, 36377, Note_on_c, 0, 64, 0
2, 36384, Note_on_c, 0, 65, 70
2, 36384, Note_on_c, 0, 64, 70
2, 36473, Note_on_c, 0, 65, 0
2, 36473, Note_on_c, 0, 64, 0
2, 36480, Note_on_c, 0, 74, 87
2, 36480, Note_on_c, 0, 65, 87
2, 36576, Note_on_c, 0, 74, 0
2, 36576, Note_on_c, 0, 65, 0
2, 36576, Note_on_c, 0, 65, 73
2, 36576, Note_on_c, 0, 62, 73
2, 36665, Note_on_c, 0, 65, 0
2, 36665, Note_on_c, 0, 62, 0
2, 36672, Note_on_c, 0, 64, 80
2, 36672, Note_on_c, 0, 62, 80
2, 36761, Note_on_c, 0, 64, 0
2, 36761, Note_on_c, 0, 62, 0
2, 36768, Note_on_c, 0, 74, 115
2, 36768, Note_on_c, 0, 71, 115
2, 36768, Note_on_c, 0, 68, 115
2, 36912, Note_on_c, 0, 74, 0
2, 36912, Note_on_c, 0, 71, 0
2, 36912, Note_on_c, 0, 68, 0
2, 36960, Note_on_c, 0, 72, 80
2, 36960, Note_on_c, 0, 69, 80
2, 37049, Note_on_c, 0, 72, 0
2, 37049, Note_on_c, 0, 69, 0
2, 37056, Note_on_c, 0, 81, 115
2, 37056, Note_on_c, 0, 78, 115
2, 37056, Note_on_c, 0, 72, 115
2, 37248, Note_on_c, 0, 81, 0
2, 37248, Note_on_c, 0, 78, 0
2, 37248, Note_on_c, 0, 72, 0
2, 37344, Note_on_c, 0, 81, 75
2, 37344, Note_on_c, 0, 73, 75
2, 37438, Note_on_c, 0, 81, 0
2, 37438, Note_on_c, 0, 73, 0
2, 37440, Note_on_c, 0, 73, 75
2, 37440, Note_on_c, 0, 69, 75
2, 37529, Note_on_c, 0, 73, 0
2, 37529, Note_on_c, 0, 69, 0
2, 37536, Note_on_c, 0, 71, 75
2, 37536, Note_on_c, 0, 69, 75
2, 37625, Note_on_c, 0, 71, 0
2, 37625, Note_on_c, 0, 69, 0
2, 37632, Note_on_c, 0, 80, 91
2, 37632, Note_on_c, 0, 71, 91
2, 37728, Note_on_c, 0, 80, 0
2, 37728, Note_on_c, 0, 71, 0
2, 37728, Note_on_c, 0, 71, 75
2, 37728, Note_on_c, 0, 68, 75
2, 37817, Note_on_c, 0, 71, 0
2, 37817, Note_on_c, 0, 68, 0
2, 37824, Note_on_c, 0, 69, 75
2, 37824, Note_on_c, 0, 68, 75
2, 37913, Note_on_c, 0, 69, 0
2, 37913, Note_on_c, 0, 68, 0
2, 37920, Note_on_c, 0, 78, 91
2, 37920, Note_on_c, 0, 69, 91
2, 38016, Note_on_c, 0, 78, 0
2, 38016, Note_on_c, 0, 69, 0
2, 38016, Note_on_c, 0, 69, 75
2, 38016, Note_on_c, 0, 66, 75
2, 38105, Note_on_c, 0, 69, 0
2, 38105, Note_on_c, 0, 66, 0
2, 38112, Note_on_c, 0, 68, 75
2, 38112, Note_on_c, 0, 66, 75
2, 38201, Note_on_c, 0, 68, 0
2, 38201, Note_on_c, 0, 66, 0
2, 38208, Note_on_c, 0, 76, 91
2, 38208, Note_on_c, 0, 68, 91
2, 38304, Note_on_c, 0, 76, 0
2, 38304, Note_on_c, 0, 68, 0
2, 38304, Note_on_c, 0, 68, 75
2, 38304, Note_on_c, 0, 64, 75
2, 38393, Note_on_c, 0, 68, 0
2, 38393, Note_on_c, 0, 64, 0
2, 38400, Note_on_c, 0, 66, 75
2, 38400, Note_on_c, 0, 64, 75
2, 38489, Note_on_c, 0, 66, 0
2, 38489, Note_on_c, 0, 64, 0
2, 38496, Note_on_c, 0, 74, 91
2, 38496, Note_on_c, 0, 66, 91
2, 38592, Note_on_c, 0, 74, 0
2, 38592, Note_on_c, 0, 66, 0
2, 38592, Note_on_c, 0, 66, 76
2, 38592, Note_on_c, 0, 62, 76
2, 38681, Note_on_c, 0, 66, 0
2, 38681, Note_on_c, 0, 62, 0
2, 38688, Note_on_c, 0, 64, 78
2, 38688, Note_on_c, 0, 62, 78
2, 38777, Note_on_c, 0, 64, 0
2, 38777, Note_on_c, 0, 62, 0
2, 38784, Note_on_c, 0, 74, 96
2, 38784, Note_on_c, 0, 71, 96
2, 38784, Note_on_c, 0, 68, 96
2, 38928, Note_on_c, 0, 74, 0
2, 38928, Note_on_c, 0, 71, 0
2, 38928, Note_on_c, 0, 68, 0
2, 38928, Note_on_c, 0, 74, 80
2, 38928, Note_on_c, 0, 71, 80
2, 38973, Note_on_c, 0, 74, 0
2, 38973, Note_on_c, 0, 71, 0
2, 38976, Note_on_c, 0, 73, 80
2, 39021, Note_on_c, 0, 73, 0
2, 39024, Note_on_c, 0, 71, 79
2, 39069, Note_on_c, 0, 71, 0
2, 39072, Note_on_c, 0, 69, 79
2, 39117, Note_on_c, 0, 69, 0
2, 39120, Note_on_c, 0, 68, 78
2, 39165, Note_on_c, 0, 68, 0
2, 39168, Note_on_c, 0, 69, 78
2, 39191, Note_on_c, 0, 69, 0
2, 39192, Note_on_c, 0, 68, 78
2, 39215, Note_on_c, 0, 68, 0
2, 39216, Note_on_c, 0, 69, 77
2, 39239, Note_on_c, 0, 69, 0
2, 39240, Note_on_c, 0, 64, 77
2, 39263, Note_on_c, 0, 64, 0
2, 39264, Note_on_c, 0, 68, 77
2, 39287, Note_on_c, 0, 68, 0
2, 39288, Note_on_c, 0, 66, 77
2, 39311, Note_on_c, 0, 66, 0
2, 39312, Note_on_c, 0, 64, 77
2, 39335, Note_on_c, 0, 64, 0
2, 39336, Note_on_c, 0, 62, 76
2, 39359, Note_on_c, 0, 62, 0
2, 39360, Note_on_c, 0, 61, 76
2, 39449, Note_on_c, 0, 61, 0
2, 39456, Note_on_c, 0, 59, 75
2, 39468, Note_on_c, 0, 59, 0
2, 39468, Note_on_c, 0, 61, 75
2, 39480, Note_on_c, 0, 61, 0
2, 39480, Note_on_c, 0, 59, 75
2, 39545, Note_on_c, 0, 59, 0
2, 39576, Note_on_c, 0, 69, 75
2, 39599, Note_on_c, 0, 69, 0
2, 39600, Note_on_c, 0, 68, 75
2, 39623, Note_on_c, 0, 68, 0
2, 39624, Note_on_c, 0, 69, 75
2, 39647, Note_on_c, 0, 69, 0
2, 39648, Note_on_c, 0, 73, 75
2, 39671, Note_on_c, 0, 73, 0
2, 39672, Note_on_c, 0, 69, 75
2, 39695, Note_on_c, 0, 69, 0
2, 39696, Note_on_c, 0, 68, 75
2, 39719, Note_on_c, 0, 68, 0
2, 39720, Note_on_c, 0, 69, 75
2, 39743, Note_on_c, 0, 69, 0
2, 39744, Note_on_c, 0, 76, 75
2, 39767, Note_on_c, 0, 76, 0
2, 39768, Note_on_c, 0, 69, 75
2, 39791, Note_on_c, 0, 69, 0
2, 39792, Note_on_c, 0, 68, 75
2, 39815, Note_on_c, 0, 68, 0
2, 39816, Note_on_c, 0, 69, 75
2, 39839, Note_on_c, 0, 69, 0
2, 39864, Note_on_c, 0, 71, 75
2, 39887, Note_on_c, 0, 71, 0
2, 39888, Note_on_c, 0, 70, 75
2, 39911, Note_on_c, 0, 70, 0
2, 39912, Note_on_c, 0, 71, 75
2, 39935, Note_on_c, 0, 71, 0
2, 39936, Note_on_c, 0, 74, 75
2, 39959, Note_on_c, 0, 74, 0
2, 39960, Note_on_c, 0, 71, 75
2, 39983, Note_on_c, 0, 71, 0
2, 39984, Note_on_c, 0, 68, 75
2, 40007, Note_on_c, 0, 68, 0
2, 40008, Note_on_c, 0, 71, 75
2, 40031, Note_on_c, 0, 71, 0
2, 40032, Note_on_c, 0, 64, 75
2, 40055, Note_on_c, 0, 64, 0
2, 40056, Note_on_c, 0, 74, 75
2, 40079, Note_on_c, 0, 74, 0
2, 40080, Note_on_c, 0, 73, 75
2, 40103, Note_on_c, 0, 73, 0
2, 40104, Note_on_c, 0, 71, 75
2, 40127, Note_on_c, 0, 71, 0
2, 40128, Note_on_c, 0, 73, 75
2, 40128, Note_on_c, 0, 69, 75
2, 40128, Note_on_c, 0, 64, 75
2, 40167, Note_on_c, 0, 73, 0
2, 40167, Note_on_c, 0, 69, 0
2, 40167, Note_on_c, 0, 64, 0
2, 40320, Note_on_c, 0, 64, 75
2, 40343, Note_on_c, 0, 64, 0
2, 40344, Note_on_c, 0, 69, 75
2, 40367, Note_on_c, 0, 69, 0
2, 40368, Note_on_c, 0, 73, 75
2, 40391, Note_on_c, 0, 73, 0
2, 40392, Note_on_c, 0, 76, 75
2, 40415, Note_on_c, 0, 76, 0
2, 40416, Note_on_c, 0, 71, 75
2, 40416, Note_on_c, 0, 68, 75
2, 40416, Note_on_c, 0, 64, 75
2, 40455, Note_on_c, 0, 71, 0
2, 40455, Note_on_c, 0, 68, 0
2, 40455, Note_on_c, 0, 64, 0
2, 40608, Note_on_c, 0, 64, 75
2, 40631, Note_on_c, 0, 64, 0
2, 40632, Note_on_c, 0, 68, 75
2, 40655, Note_on_c, 0, 68, 0
2, 40656, Note_on_c, 0, 71, 75
2, 40679, Note_on_c, 0, 71, 0
2, 40680, Note_on_c, 0, 74, 75
2, 40703, Note_on_c, 0, 74, 0
2, 40704, Note_on_c, 0, 73, 75
2, 40793, Note_on_c, 0, 73, 0
2, 40800, Note_on_c, 0, 81, 91
2, 40800, Note_on_c, 0, 76, 91
2, 40800, Note_on_c, 0, 73, 91
2, 40944, Note_on_c, 0, 81, 0
2, 40944, Note_on_c, 0, 76, 0
2, 40944, Note_on_c, 0, 73, 0
2, 40944, Note_on_c, 0, 76, 77
2, 40944, Note_on_c, 0, 73, 77
2, 40989, Note_on_c, 0, 76, 0
2, 40989, Note_on_c, 0, 73, 0
2, 40992, Note_on_c, 0, 75, 77
2, 40992, Note_on_c, 0, 73, 77
2, 41081, Note_on_c, 0, 75, 0
2, 41081, Note_on_c, 0, 73, 0
2, 41088, Note_on_c, 0, 83, 94
2, 41088, Note_on_c, 0, 78, 94
2, 41088, Note_on_c, 0, 75, 94
2, 41232, Note_on_c, 0, 83, 0
2, 41232, Note_on_c, 0, 78, 0
2, 41232, Note_on_c, 0, 75, 0
2, 41232, Note_on_c, 0, 75, 80
2, 41232, Note_on_c, 0, 71, 80
2, 41277, Note_on_c, 0, 75, 0
2, 41277, Note_on_c, 0, 71, 0
2, 41280, Note_on_c, 0, 76, 80
2, 41303, Note_on_c, 0, 76, 0
2, 41304, Note_on_c, 0, 80, 80
2, 41327, Note_on_c, 0, 80, 0
2, 41328, Note_on_c, 0, 83, 80
2, 41351, Note_on_c, 0, 83, 0
2, 41352, Note_on_c, 0, 88, 80
2, 41375, Note_on_c, 0, 88, 0
2, 41376, Note_on_c, 0, 76, 80
2, 41399, Note_on_c, 0, 76, 0
2, 41400, Note_on_c, 0, 80, 80
2, 41423, Note_on_c, 0, 80, 0
2, 41424, Note_on_c, 0, 83, 80
2, 41447, Note_on_c, 0, 83, 0
2, 41448, Note_on_c, 0, 88, 80
2, 41471, Note_on_c, 0, 88, 0
2, 41472, Note_on_c, 0, 76, 80
2, 41495, Note_on_c, 0, 76, 0
2, 41496, Note_on_c, 0, 80, 80
2, 41519, Note_on_c, 0, 80, 0
2, 41520, Note_on_c, 0, 83, 80
2, 41543, Note_on_c, 0, 83, 0
2, 41544, Note_on_c, 0, 86, 80
2, 41567, Note_on_c, 0, 86, 0
2, 41568, Note_on_c, 0, 76, 80
2, 41591, Note_on_c, 0, 76, 0
2, 41592, Note_on_c, 0, 81, 80
2, 41615, Note_on_c, 0, 81, 0
2, 41616, Note_on_c, 0, 85, 80
2, 41639, Note_on_c, 0, 85, 0
2, 41640, Note_on_c, 0, 88, 80
2, 41663, Note_on_c, 0, 88, 0
2, 41664, Note_on_c, 0, 76, 80
2, 41687, Note_on_c, 0, 76, 0
2, 41688, Note_on_c, 0, 81, 80
2, 41711, Note_on_c, 0, 81, 0
2, 41712, Note_on_c, 0, 85, 80
2, 41735, Note_on_c, 0, 85, 0
2, 41736, Note_on_c, 0, 88, 80
2, 41759, Note_on_c, 0, 88, 0
2, 41760, Note_on_c, 0, 76, 80
2, 41783, Note_on_c, 0, 76, 0
2, 41784, Note_on_c, 0, 81, 80
2, 41807, Note_on_c, 0, 81, 0
2, 41808, Note_on_c, 0, 85, 80
2, 41831, Note_on_c, 0, 85, 0
2, 41832, Note_on_c, 0, 88, 80
2, 41855, Note_on_c, 0, 88, 0
2, 41856, Note_on_c, 0, 74, 80
2, 41879, Note_on_c, 0, 74, 0
2, 41880, Note_on_c, 0, 78, 80
2, 41903, Note_on_c, 0, 78, 0
2, 41904, Note_on_c, 0, 83, 80
2, 41927, Note_on_c, 0, 83, 0
2, 41928, Note_on_c, 0, 86, 80
2, 41951, Note_on_c, 0, 86, 0
2, 41952, Note_on_c, 0, 74, 80
2, 41975, Note_on_c, 0, 74, 0
2, 41976, Note_on_c, 0, 78, 80
2, 41999, Note_on_c, 0, 78, 0
2, 42000, Note_on_c, 0, 83, 80
2, 42023, Note_on_c, 0, 83, 0
2, 42024, Note_on_c, 0, 86, 80
2, 42047, Note_on_c, 0, 86, 0
2, 42048, Note_on_c, 0, 75, 80
2, 42071, Note_on_c, 0, 75, 0
2, 42072, Note_on_c, 0, 78, 80
2, 42095, Note_on_c, 0, 78, 0
2, 42096, Note_on_c, 0, 81, 80
2, 42119, Note_on_c, 0, 81, 0
2, 42120, Note_on_c, 0, 87, 80
2, 42143, Note_on_c, 0, 87, 0
2, 42144, Note_on_c, 0, 76, 80
2, 42167, Note_on_c, 0, 76, 0
2, 42168, Note_on_c, 0, 80, 80
2, 42191, Note_on_c, 0, 80, 0
2, 42192, Note_on_c, 0, 83, 80
2, 42215, Note_on_c, 0, 83, 0
2, 42216, Note_on_c, 0, 88, 80
2, 42239, Note_on_c, 0, 88, 0
2, 42240, Note_on_c, 0, 76, 80
2, 42263, Note_on_c, 0, 76, 0
2, 42264, Note_on_c, 0, 80, 80
2, 42287, Note_on_c, 0, 80, 0
2, 42288, Note_on_c, 0, 83, 80
2, 42311, Note_on_c, 0, 83, 0
2, 42312, Note_on_c, 0, 88, 80
2, 42335, Note_on_c, 0, 88, 0
2, 42336, Note_on_c, 0, 76, 80
2, 42359, Note_on_c, 0, 76, 0
2, 42360, Note_on_c, 0, 80, 81
2, 42383, Note_on_c, 0, 80, 0
2, 42384, Note_on_c, 0, 83, 83
2, 42407, Note_on_c, 0, 83, 0
2, 42408, Note_on_c, 0, 86, 84
2, 42431, Note_on_c, 0, 86, 0
2, 42432, Note_on_c, 0, 81, 86
2, 42455, Note_on_c, 0, 81, 0
2, 42456, Note_on_c, 0, 76, 86
2, 42479, Note_on_c, 0, 76, 0
2, 42480, Note_on_c, 0, 73, 86
2, 42503, Note_on_c, 0, 73, 0
2, 42504, Note_on_c, 0, 69, 86
2, 42527, Note_on_c, 0, 69, 0
2, 42528, Note_on_c, 0, 81, 86
2, 42551, Note_on_c, 0, 81, 0
2, 42552, Note_on_c, 0, 76, 86
2, 42575, Note_on_c, 0, 76, 0
2, 42576, Note_on_c, 0, 73, 86
2, 42599, Note_on_c, 0, 73, 0
2, 42600, Note_on_c, 0, 69, 86
2, 42623, Note_on_c, 0, 69, 0
2, 42624, Note_on_c, 0, 79, 86
2, 42647, Note_on_c, 0, 79, 0
2, 42648, Note_on_c, 0, 76, 86
2, 42671, Note_on_c, 0, 76, 0
2, 42672, Note_on_c, 0, 73, 86
2, 42695, Note_on_c, 0, 73, 0
2, 42696, Note_on_c, 0, 69, 86
2, 42719, Note_on_c, 0, 69, 0
2, 42720, Note_on_c, 0, 78, 86
2, 42743, Note_on_c, 0, 78, 0
2, 42744, Note_on_c, 0, 74, 86
2, 42767, Note_on_c, 0, 74, 0
2, 42768, Note_on_c, 0, 69, 86
2, 42791, Note_on_c, 0, 69, 0
2, 42792, Note_on_c, 0, 66, 86
2, 42815, Note_on_c, 0, 66, 0
2, 42816, Note_on_c, 0, 57, 86
2, 42839, Note_on_c, 0, 57, 0
2, 42840, Note_on_c, 0, 62, 86
2, 42863, Note_on_c, 0, 62, 0
2, 42864, Note_on_c, 0, 61, 86
2, 42887, Note_on_c, 0, 61, 0
2, 42888, Note_on_c, 0, 62, 86
2, 42911, Note_on_c, 0, 62, 0
2, 42912, Note_on_c, 0, 57, 86
2, 42935, Note_on_c, 0, 57, 0
2, 42936, Note_on_c, 0, 62, 86
2, 42959, Note_on_c, 0, 62, 0
2, 42960, Note_on_c, 0, 61, 86
2, 42983, Note_on_c, 0, 61, 0
2, 42984, Note_on_c, 0, 62, 86
2, 43007, Note_on_c, 0, 62, 0
2, 43008, Note_on_c, 0, 83, 86
2, 43031, Note_on_c, 0, 83, 0
2, 43032, Note_on_c, 0, 78, 86
2, 43055, Note_on_c, 0, 78, 0
2, 43056, Note_on_c, 0, 75, 86
2, 43079, Note_on_c, 0, 75, 0
2, 43080, Note_on_c, 0, 71, 86
2, 43103, Note_on_c, 0, 71, 0
2, 43104, Note_on_c, 0, 83, 86
2, 43127, Note_on_c, 0, 83, 0
2, 43128, Note_on_c, 0, 78, 86
2, 43151, Note_on_c, 0, 78, 0
2, 43152, Note_on_c, 0, 75, 86
2, 43175, Note_on_c, 0, 75, 0
2, 43176, Note_on_c, 0, 71, 86
2, 43199, Note_on_c, 0, 71, 0
2, 43200, Note_on_c, 0, 81, 86
2, 43223, Note_on_c, 0, 81, 0
2, 43224, Note_on_c, 0, 78, 86
2, 43247, Note_on_c, 0, 78, 0
2, 43248, Note_on_c, 0, 75, 86
2, 43271, Note_on_c, 0, 75, 0
2, 43272, Note_on_c, 0, 71, 86
2, 43295, Note_on_c, 0, 71, 0
2, 43296, Note_on_c, 0, 80, 86
2, 43319, Note_on_c, 0, 80, 0
2, 43320, Note_on_c, 0, 76, 86
2, 43343, Note_on_c, 0, 76, 0
2, 43344, Note_on_c, 0, 71, 86
2, 43367, Note_on_c, 0, 71, 0
2, 43368, Note_on_c, 0, 68, 86
2, 43391, Note_on_c, 0, 68, 0
2, 43392, Note_on_c, 0, 59, 86
2, 43415, Note_on_c, 0, 59, 0
2, 43416, Note_on_c, 0, 64, 86
2, 43439, Note_on_c, 0, 64, 0
2, 43440, Note_on_c, 0, 63, 86
2, 43463, Note_on_c, 0, 63, 0
2, 43464, Note_on_c, 0, 64, 86
2, 43487, Note_on_c, 0, 64, 0
2, 43488, Note_on_c, 0, 59, 86
2, 43511, Note_on_c, 0, 59, 0
2, 43512, Note_on_c, 0, 64, 86
2, 43535, Note_on_c, 0, 64, 0
2, 43536, Note_on_c, 0, 63, 86
2, 43559, Note_on_c, 0, 63, 0
2, 43560, Note_on_c, 0, 64, 86
2, 43583, Note_on_c, 0, 64, 0
2, 43584, Note_on_c, 0, 85, 86
2, 43607, Note_on_c, 0, 85, 0
2, 43608, Note_on_c, 0, 80, 86
2, 43631, Note_on_c, 0, 80, 0
2, 43632, Note_on_c, 0, 77, 86
2, 43655, Note_on_c, 0, 77, 0
2, 43656, Note_on_c, 0, 73, 86
2, 43679, Note_on_c, 0, 73, 0
2, 43680, Note_on_c, 0, 85, 86
2, 43703, Note_on_c, 0, 85, 0
2, 43704, Note_on_c, 0, 80, 86
2, 43727, Note_on_c, 0, 80, 0
2, 43728, Note_on_c, 0, 77, 86
2, 43751, Note_on_c, 0, 77, 0
2, 43752, Note_on_c, 0, 73, 86
2, 43775, Note_on_c, 0, 73, 0
2, 43776, Note_on_c, 0, 83, 86
2, 43799, Note_on_c, 0, 83, 0
2, 43800, Note_on_c, 0, 80, 86
2, 43823, Note_on_c, 0, 80, 0
2, 43824, Note_on_c, 0, 77, 86
2, 43847, Note_on_c, 0, 77, 0
2, 43848, Note_on_c, 0, 73, 86
2, 43871, Note_on_c, 0, 73, 0
2, 43872, Note_on_c, 0, 81, 86
2, 43895, Note_on_c, 0, 81, 0
2, 43896, Note_on_c, 0, 78, 86
2, 43919, Note_on_c, 0, 78, 0
2, 43920, Note_on_c, 0, 77, 86
2, 43943, Note_on_c, 0, 77, 0
2, 43944, Note_on_c, 0, 78, 86
2, 43967, Note_on_c, 0, 78, 0
2, 43968, Note_on_c, 0, 73, 86
2, 43991, Note_on_c, 0, 73, 0
2, 43992, Note_on_c, 0, 78, 86
2, 44015, Note_on_c, 0, 78, 0
2, 44016, Note_on_c, 0, 77, 86
2, 44039, Note_on_c, 0, 77, 0
2, 44040, Note_on_c, 0, 78, 86
2, 44063, Note_on_c, 0, 78, 0
2, 44064, Note_on_c, 0, 73, 86
2, 44087, Note_on_c, 0, 73, 0
2, 44088, Note_on_c, 0, 78, 84
2, 44111, Note_on_c, 0, 78, 0
2, 44112, Note_on_c, 0, 77, 83
2, 44135, Note_on_c, 0, 77, 0
2, 44136, Note_on_c, 0, 78, 81
2, 44159, Note_on_c, 0, 78, 0
2, 44160, Note_on_c, 0, 75, 80
2, 44183, Note_on_c, 0, 75, 0
2, 44184, Note_on_c, 0, 76, 80
2, 44207, Note_on_c, 0, 76, 0
2, 44208, Note_on_c, 0, 78, 80
2, 44231, Note_on_c, 0, 78, 0
2, 44232, Note_on_c, 0, 75, 80
2, 44255, Note_on_c, 0, 75, 0
2, 44256, Note_on_c, 0, 76, 80
2, 44345, Note_on_c, 0, 76, 0
2, 44352, Note_on_c, 0, 88, 80
2, 44375, Note_on_c, 0, 88, 0
2, 44376, Note_on_c, 0, 87, 80
2, 44399, Note_on_c, 0, 87, 0
2, 44400, Note_on_c, 0, 85, 80
2, 44423, Note_on_c, 0, 85, 0
2, 44424, Note_on_c, 0, 83, 80
2, 44447, Note_on_c, 0, 83, 0
2, 44448, Note_on_c, 0, 81, 80
2, 44471, Note_on_c, 0, 81, 0
2, 44472, Note_on_c, 0, 80, 80
2, 44495, Note_on_c, 0, 80, 0
2, 44496, Note_on_c, 0, 78, 80
2, 44519, Note_on_c, 0, 78, 0
2, 44520, Note_on_c, 0, 76, 80
2, 44543, Note_on_c, 0, 76, 0
2, 44544, Note_on_c, 0, 75, 80
2, 44574, Note_on_c, 0, 75, 0
2, 44576, Note_on_c, 0, 73, 80
2, 44606, Note_on_c, 0, 73, 0
2, 44608, Note_on_c, 0, 71, 80
2, 44638, Note_on_c, 0, 71, 0
2, 44640, Note_on_c, 0, 70, 80
2, 44663, Note_on_c, 0, 70, 0
2, 44664, Note_on_c, 0, 71, 80
2, 44687, Note_on_c, 0, 71, 0
2, 44688, Note_on_c, 0, 73, 80
2, 44711, Note_on_c, 0, 73, 0
2, 44712, Note_on_c, 0, 71, 80
2, 44735, Note_on_c, 0, 71, 0
2, 44736, Note_on_c, 0, 70, 80
2, 44748, Note_on_c, 0, 70, 0
2, 44748, Note_on_c, 0, 71, 80
2, 44760, Note_on_c, 0, 71, 0
2, 44760, Note_on_c, 0, 73, 80
2, 44772, Note_on_c, 0, 73, 0
2, 44772, Note_on_c, 0, 71, 80
2, 44913, Note_on_c, 0, 71, 0
2, 44928, Note_on_c, 0, 70, 78
2, 45113, Note_on_c, 0, 70, 0
2, 45120, Note_on_c, 0, 69, 76
2, 45401, Note_on_c, 0, 69, 0
2, 45504, Note_on_c, 0, 59, 91
2, 45543, Note_on_c, 0, 59, 0
2, 45600, Note_on_c, 0, 56, 75
2, 45639, Note_on_c, 0, 56, 0
2, 45696, Note_on_c, 0, 59, 75
2, 45696, Note_on_c, 0, 56, 75
2, 45735, Note_on_c, 0, 59, 0
2, 45735, Note_on_c, 0, 56, 0
2, 45792, Note_on_c, 0, 64, 110
2, 45888, Note_on_c, 0, 61, 75
2, 45977, Note_on_c, 0, 64, 0
2, 45977, Note_on_c, 0, 61, 0
2, 45984, Note_on_c, 0, 63, 75
2, 45984, Note_on_c, 0, 59, 75
2, 46073, Note_on_c, 0, 63, 0
2, 46073, Note_on_c, 0, 59, 0
2, 46080, Note_on_c, 0, 69, 110
2, 46080, Note_on_c, 0, 66, 110
2, 46176, Note_on_c, 0, 66, 0
2, 46221, Note_on_c, 0, 69, 0
2, 46224, Note_on_c, 0, 68, 75
2, 46269, Note_on_c, 0, 68, 0
2, 46272, Note_on_c, 0, 66, 75
2, 46317, Note_on_c, 0, 66, 0
2, 46320, Note_on_c, 0, 64, 75
2, 46365, Note_on_c, 0, 64, 0
2, 46368, Note_on_c, 0, 63, 75
2, 46413, Note_on_c, 0, 63, 0
2, 46416, Note_on_c, 0, 66, 75
2, 46461, Note_on_c, 0, 66, 0
2, 46464, Note_on_c, 0, 64, 75
2, 46509, Note_on_c, 0, 64, 0
2, 46512, Note_on_c, 0, 59, 75
2, 46557, Note_on_c, 0, 59, 0
2, 46560, Note_on_c, 0, 71, 110
2, 46704, Note_on_c, 0, 71, 0
2, 46704, Note_on_c, 0, 69, 75
2, 46749, Note_on_c, 0, 69, 0
2, 46752, Note_on_c, 0, 68, 75
2, 46797, Note_on_c, 0, 68, 0
2, 46800, Note_on_c, 0, 71, 75
2, 46845, Note_on_c, 0, 71, 0
2, 46848, Note_on_c, 0, 68, 75
2, 46893, Note_on_c, 0, 68, 0
2, 46896, Note_on_c, 0, 64, 75
2, 46941, Note_on_c, 0, 64, 0
2, 46944, Note_on_c, 0, 74, 110
2, 47085, Note_on_c, 0, 74, 0
2, 47088, Note_on_c, 0, 74, 75
2, 47133, Note_on_c, 0, 74, 0
2, 47136, Note_on_c, 0, 73, 75
2, 47181, Note_on_c, 0, 73, 0
2, 47184, Note_on_c, 0, 71, 75
2, 47229, Note_on_c, 0, 71, 0
2, 47232, Note_on_c, 0, 69, 75
2, 47277, Note_on_c, 0, 69, 0
2, 47280, Note_on_c, 0, 68, 75
2, 47325, Note_on_c, 0, 68, 0
2, 47328, Note_on_c, 0, 69, 75
2, 47328, Note_on_c, 0, 61, 75
2, 47417, Note_on_c, 0, 69, 0
2, 47417, Note_on_c, 0, 61, 0
2, 47424, Note_on_c, 0, 81, 91
2, 47424, Note_on_c, 0, 73, 91
2, 47520, Note_on_c, 0, 81, 0
2, 47520, Note_on_c, 0, 73, 0
2, 47520, Note_on_c, 0, 73, 75
2, 47520, Note_on_c, 0, 69, 75
2, 47609, Note_on_c, 0, 73, 0
2, 47609, Note_on_c, 0, 69, 0
2, 47616, Note_on_c, 0, 71, 75
2, 47616, Note_on_c, 0, 69, 75
2, 47705, Note_on_c, 0, 71, 0
2, 47705, Note_on_c, 0, 69, 0
2, 47712, Note_on_c, 0, 80, 91
2, 47712, Note_on_c, 0, 71, 91
2, 47808, Note_on_c, 0, 80, 0
2, 47808, Note_on_c, 0, 71, 0
2, 47808, Note_on_c, 0, 71, 75
2, 47808, Note_on_c, 0, 68, 75
2, 47897, Note_on_c, 0, 71, 0
2, 47897, Note_on_c, 0, 68, 0
2, 47904, Note_on_c, 0, 69, 75
2, 47904, Note_on_c, 0, 68, 75
2, 47993, Note_on_c, 0, 69, 0
2, 47993, Note_on_c, 0, 68, 0
2, 48000, Note_on_c, 0, 78, 91
2, 48000, Note_on_c, 0, 69, 91
2, 48096, Note_on_c, 0, 78, 0
2, 48096, Note_on_c, 0, 69, 0
2, 48096, Note_on_c, 0, 69, 75
2, 48096, Note_on_c, 0, 66, 75
2, 48185, Note_on_c, 0, 69, 0
2, 48185, Note_on_c, 0, 66, 0
2, 48192, Note_on_c, 0, 68, 75
2, 48192, Note_on_c, 0, 66, 75
2, 48281, Note_on_c, 0, 68, 0
2, 48281, Note_on_c, 0, 66, 0
2, 48288, Note_on_c, 0, 76, 91
2, 48288, Note_on_c, 0, 68, 91
2, 48384, Note_on_c, 0, 76, 0
2, 48384, Note_on_c, 0, 68, 0
2, 48384, Note_on_c, 0, 68, 75
2, 48384, Note_on_c, 0, 64, 75
2, 48473, Note_on_c, 0, 68, 0
2, 48473, Note_on_c, 0, 64, 0
2, 48480, Note_on_c, 0, 66, 75
2, 48480, Note_on_c, 0, 64, 75
2, 48569, Note_on_c, 0, 66, 0
2, 48569, Note_on_c, 0, 64, 0
2, 48576, Note_on_c, 0, 74, 91
2, 48576, Note_on_c, 0, 66, 91
2, 48672, Note_on_c, 0, 74, 0
2, 48672, Note_on_c, 0, 66, 0
2, 48672, Note_on_c, 0, 66, 76
2, 48672, Note_on_c, 0, 62, 76
2, 48761, Note_on_c, 0, 66, 0
2, 48761, Note_on_c, 0, 62, 0
2, 48768, Note_on_c, 0, 64, 77
2, 48768, Note_on_c, 0, 62, 77
2, 48857, Note_on_c, 0, 64, 0
2, 48857, Note_on_c, 0, 62, 0
2, 48864, Note_on_c, 0, 74, 94
2, 48864, Note_on_c, 0, 71, 94
2, 49008, Note_on_c, 0, 74, 0
2, 49008, Note_on_c, 0, 71, 0
2, 49008, Note_on_c, 0, 74, 80
2, 49008, Note_on_c, 0, 71, 80
2, 49053, Note_on_c, 0, 74, 0
2, 49053, Note_on_c, 0, 71, 0
2, 49056, Note_on_c, 0, 73, 80
2, 49080, Note_on_c, 0, 73, 0
2, 49080, Note_on_c, 0, 71, 80
2, 49147, Note_on_c, 0, 71, 0
2, 49152, Note_on_c, 0, 69, 80
2, 49176, Note_on_c, 0, 69, 0
2, 49176, Note_on_c, 0, 68, 80
2, 49243, Note_on_c, 0, 68, 0
2, 49248, Note_on_c, 0, 69, 80
2, 49271, Note_on_c, 0, 69, 0
2, 49272, Note_on_c, 0, 68, 80
2, 49295, Note_on_c, 0, 68, 0
2, 49296, Note_on_c, 0, 69, 80
2, 49319, Note_on_c, 0, 69, 0
2, 49320, Note_on_c, 0, 64, 80
2, 49343, Note_on_c, 0, 64, 0
2, 49344, Note_on_c, 0, 68, 80
2, 49344, Note_on_c, 0, 64, 80
2, 49367, Note_on_c, 0, 68, 0
2, 49367, Note_on_c, 0, 64, 0
2, 49368, Note_on_c, 0, 66, 79
2, 49368, Note_on_c, 0, 62, 79
2, 49391, Note_on_c, 0, 66, 0
2, 49391, Note_on_c, 0, 62, 0
2, 49392, Note_on_c, 0, 64, 79
2, 49392, Note_on_c, 0, 61, 79
2, 49415, Note_on_c, 0, 64, 0
2, 49415, Note_on_c, 0, 61, 0
2, 49416, Note_on_c, 0, 62, 78
2, 49416, Note_on_c, 0, 59, 78
2, 49439, Note_on_c, 0, 62, 0
2, 49439, Note_on_c, 0, 59, 0
2, 49440, Note_on_c, 0, 61, 78
2, 49440, Note_on_c, 0, 57, 78
2, 49529, Note_on_c, 0, 61, 0
2, 49529, Note_on_c, 0, 57, 0
2, 49536, Note_on_c, 0, 59, 76
2, 49536, Note_on_c, 0, 56, 76
2, 49625, Note_on_c, 0, 59, 0
2, 49625, Note_on_c, 0, 56, 0
2, 49632, Note_on_c, 0, 57, 75
2, 49721, Note_on_c, 0, 57, 0
2, 49728, Note_on_c, 0, 83, 94
2, 49740, Note_on_c, 0, 83, 0
2, 49740, Note_on_c, 0, 81, 94
2, 49752, Note_on_c, 0, 81, 0
2, 49752, Note_on_c, 0, 80, 94
2, 49764, Note_on_c, 0, 80, 0
2, 49764, Note_on_c, 0, 81, 110
2, 49872, Note_on_c, 0, 81, 0
2, 49872, Note_on_c, 0, 76, 75
2, 49895, Note_on_c, 0, 76, 0
2, 49896, Note_on_c, 0, 79, 75
2, 49919, Note_on_c, 0, 79, 0
2, 49920, Note_on_c, 0, 78, 75
2, 49950, Note_on_c, 0, 78, 0
2, 49952, Note_on_c, 0, 76, 74
2, 49982, Note_on_c, 0, 76, 0
2, 49984, Note_on_c, 0, 74, 73
2, 50014, Note_on_c, 0, 74, 0
2, 50016, Note_on_c, 0, 73, 73
2, 50016, Note_on_c, 0, 69, 73
2, 50105, Note_on_c, 0, 73, 0
2, 50105, Note_on_c, 0, 69, 0
2, 50112, Note_on_c, 0, 71, 71
2, 50112, Note_on_c, 0, 68, 71
2, 50201, Note_on_c, 0, 71, 0
2, 50201, Note_on_c, 0, 68, 0
2, 50208, Note_on_c, 0, 69, 70
2, 50297, Note_on_c, 0, 69, 0
2, 50400, Note_on_c, 0, 80, 80
2, 50400, Note_on_c, 0, 76, 80
2, 50400, Note_on_c, 0, 74, 80
2, 50400, Note_on_c, 0, 71, 80
2, 50439, Note_on_c, 0, 80, 0
2, 50439, Note_on_c, 0, 76, 0
2, 50439, Note_on_c, 0, 74, 0
2, 50439, Note_on_c, 0, 71, 0
2, 50496, Note_on_c, 0, 81, 96
2, 50496, Note_on_c, 0, 76, 96
2, 50496, Note_on_c, 0, 73, 96
2, 50496, Note_on_c, 0, 69, 96
2, 50592, Note_on_c, 0, 81, 0
2, 50592, Note_on_c, 0, 76, 0
2, 50592, Note_on_c, 0, 73, 0
2, 50592, Note_on_c, 0, 69, 0
2, 50784, End_track
3, 0, Start_track
3, 0, Program_c, 0, 0
3, 0, Control_c, 0, 7, 127
3, 0, Control_c, 0, 10, 64
3, 960, Note_on_c, 0, 69, 73
3, 1056, Note_on_c, 0, 69, 0
3, 1056, Note_on_c, 0, 68, 71
3, 1101, Note_on_c, 0, 68, 0
3, 1728, Note_on_c, 0, 69, 70
3, 1728, Note_on_c, 0, 64, 70
3, 1773, Note_on_c, 0, 69, 0
3, 1773, Note_on_c, 0, 64, 0
3, 1920, Note_on_c, 0, 68, 70
3, 1920, Note_on_c, 0, 64, 70
3, 1920, Note_on_c, 0, 62, 70
3, 1920, Note_on_c, 0, 59, 70
3, 1965, Note_on_c, 0, 68, 0
3, 1965, Note_on_c, 0, 64, 0
3, 1965, Note_on_c, 0, 62, 0
3, 1965, Note_on_c, 0, 59, 0
3, 5568, Note_on_c, 0, 69, 73
3, 5664, Note_on_c, 0, 69, 0
3, 5664, Note_on_c, 0, 68, 71
3, 5709, Note_on_c, 0, 68, 0
3, 6336, Note_on_c, 0, 69, 70
3, 6336, Note_on_c, 0, 64, 70
3, 6381, Note_on_c, 0, 69, 0
3, 6381, Note_on_c, 0, 64, 0
3, 6528, Note_on_c, 0, 68, 70
3, 6528, Note_on_c, 0, 64, 70
3, 6528, Note_on_c, 0, 62, 70
3, 6528, Note_on_c, 0, 59, 70
3, 6573, Note_on_c, 0, 68, 0
3, 6573, Note_on_c, 0, 64, 0
3, 6573, Note_on_c, 0, 62, 0
3, 6573, Note_on_c, 0, 59, 0
3, 9240, Note_on_c, 0, 57, 70
3, 9307, Note_on_c, 0, 57, 0
3, 9336, Note_on_c, 0, 57, 70
3, 9403, Note_on_c, 0, 57, 0
3, 9816, Note_on_c, 0, 74, 70
3, 9883, Note_on_c, 0, 74, 0
3, 9912, Note_on_c, 0, 74, 70
3, 9979, Note_on_c, 0, 74, 0
3, 10392, Note_on_c, 0, 62, 70
3, 10459, Note_on_c, 0, 62, 0
3, 10488, Note_on_c, 0, 62, 70
3, 10555, Note_on_c, 0, 62, 0
3, 10584, Note_on_c, 0, 59, 70
3, 10651, Note_on_c, 0, 59, 0
3, 10680, Note_on_c, 0, 61, 70
3, 10747, Note_on_c, 0, 61, 0
3, 10776, Note_on_c, 0, 60, 70
3, 10843, Note_on_c, 0, 60, 0
3, 10848, Note_on_c, 0, 64, 70
3, 10937, Note_on_c, 0, 64, 0
3, 10968, Note_on_c, 0, 60, 70
3, 11035, Note_on_c, 0, 60, 0
3, 11064, Note_on_c, 0, 61, 72
3, 11131, Note_on_c, 0, 61, 0
3, 11160, Note_on_c, 0, 63, 73
3, 11227, Note_on_c, 0, 63, 0
3, 11232, Note_on_c, 0, 69, 75
3, 11277, Note_on_c, 0, 69, 0
3, 11424, Note_on_c, 0, 73, 70
3, 11424, Note_on_c, 0, 69, 70
3, 11424, Note_on_c, 0, 67, 70
3, 11469, Note_on_c, 0, 73, 0
3, 11469, Note_on_c, 0, 69, 0
3, 11469, Note_on_c, 0, 67, 0
3, 45792, Note_on_c, 0, 61, 70
3, 45837, Note_on_c, 0, 61, 0
3, 45840, Note_on_c, 0, 59, 70
3, 45885, Note_on_c, 0, 59, 0
3, 45888, Note_on_c, 0, 57, 70
3, 45977, Note_on_c, 0, 57, 0
3, 46080, Note_on_c, 0, 61, 70
3, 46125, Note_on_c, 0, 61, 0
3, 46128, Note_on_c, 0, 59, 70
3, 46309, Note_on_c, 0, 59, 0
3, 50784, End_track
4, 0, Start_track
4, 0, Program_c, 1, 0
4, 0, Control_c, 1, 7, 127
4, 0, Control_c, 1, 10, 64
4, 0, Note_on_c, 1, 57, 64
4, 89, Note_on_c, 1, 57, 0
4, 288, Note_on_c, 1, 57, 64
4, 377, Note_on_c, 1, 57, 0
4, 576, Note_on_c, 1, 61, 64
4, 576, Note_on_c, 1, 57, 64
4, 599, Note_on_c, 1, 61, 0
4, 599, Note_on_c, 1, 57, 0
4, 600, Note_on_c, 1, 52, 64
4, 623, Note_on_c, 1, 52, 0
4, 624, Note_on_c, 1, 61, 65
4, 624, Note_on_c, 1, 57, 65
4, 647, Note_on_c, 1, 61, 0
4, 647, Note_on_c, 1, 57, 0
4, 648, Note_on_c, 1, 61, 66
4, 648, Note_on_c, 1, 57, 66
4, 671, Note_on_c, 1, 61, 0
4, 671, Note_on_c, 1, 57, 0
4, 672, Note_on_c, 1, 62, 66
4, 672, Note_on_c, 1, 59, 66
4, 695, Note_on_c, 1, 62, 0
4, 695, Note_on_c, 1, 59, 0
4, 696, Note_on_c, 1, 52, 67
4, 719, Note_on_c, 1, 52, 0
4, 720, Note_on_c, 1, 62, 68
4, 720, Note_on_c, 1, 59, 68
4, 743, Note_on_c, 1, 62, 0
4, 743, Note_on_c, 1, 59, 0
4, 744, Note_on_c, 1, 62, 68
4, 744, Note_on_c, 1, 59, 68
4, 767, Note_on_c, 1, 62, 0
4, 767, Note_on_c, 1, 59, 0
4, 768, Note_on_c, 1, 61, 69
4, 768, Note_on_c, 1, 57, 69
4, 791, Note_on_c, 1, 61, 0
4, 791, Note_on_c, 1, 57, 0
4, 792, Note_on_c, 1, 52, 70
4, 815, Note_on_c, 1, 52, 0
4, 816, Note_on_c, 1, 61, 70
4, 816, Note_on_c, 1, 57, 70
4, 839, Note_on_c, 1, 61, 0
4, 839, Note_on_c, 1, 57, 0
4, 840, Note_on_c, 1, 49, 86
4, 864, Note_on_c, 1, 49, 0
4, 864, Note_on_c, 1, 50, 70
4, 936, Note_on_c, 1, 50, 0
4, 936, Note_on_c, 1, 51, 68
4, 959, Note_on_c, 1, 51, 0
4, 960, Note_on_c, 1, 52, 67
4, 1079, Note_on_c, 1, 52, 0
4, 1080, Note_on_c, 1, 54, 64
4, 1080, Note_on_c, 1, 50, 64
4, 1103, Note_on_c, 1, 54, 0
4, 1103, Note_on_c, 1, 50, 0
4, 1104, Note_on_c, 1, 52, 64
4, 1104, Note_on_c, 1, 49, 64
4, 1127, Note_on_c, 1, 52, 0
4, 1127, Note_on_c, 1, 49, 0
4, 1128, Note_on_c, 1, 50, 65
4, 1128, Note_on_c, 1, 47, 65
4, 1151, Note_on_c, 1, 50, 0
4, 1151, Note_on_c, 1, 47, 0
4, 1152, Note_on_c, 1, 49, 66
4, 1152, Note_on_c, 1, 45, 66
4, 1241, Note_on_c, 1, 49, 0
4, 1241, Note_on_c, 1, 45, 0
4, 1440, Note_on_c, 1, 44, 70
4, 1440, Note_on_c, 1, 40, 70
4, 1463, Note_on_c, 1, 44, 0
4, 1463, Note_on_c, 1, 40, 0
4, 1464, Note_on_c, 1, 45, 70
4, 1464, Note_on_c, 1, 42, 70
4, 1487, Note_on_c, 1, 45, 0
4, 1487, Note_on_c, 1, 42, 0
4, 1488, Note_on_c, 1, 47, 70
4, 1488, Note_on_c, 1, 44, 70
4, 1511, Note_on_c, 1, 47, 0
4, 1511, Note_on_c, 1, 44, 0
4, 1512, Note_on_c, 1, 49, 71
4, 1512, Note_on_c, 1, 45, 71
4, 1535, Note_on_c, 1, 49, 0
4, 1535, Note_on_c, 1, 45, 0
4, 1536, Note_on_c, 1, 50, 71
4, 1536, Note_on_c, 1, 47, 71
4, 1559, Note_on_c, 1, 50, 0
4, 1559, Note_on_c, 1, 47, 0
4, 1560, Note_on_c, 1, 52, 72
4, 1560, Note_on_c, 1, 49, 72
4, 1583, Note_on_c, 1, 52, 0
4, 1583, Note_on_c, 1, 49, 0
4, 1584, Note_on_c, 1, 54, 72
4, 1584, Note_on_c, 1, 50, 72
4, 1607, Note_on_c, 1, 54, 0
4, 1607, Note_on_c, 1, 50, 0
4, 1608, Note_on_c, 1, 56, 72
4, 1608, Note_on_c, 1, 52, 72
4, 1631, Note_on_c, 1, 56, 0
4, 1631, Note_on_c, 1, 52, 0
4, 1632, Note_on_c, 1, 57, 73
4, 1632, Note_on_c, 1, 54, 73
4, 1655, Note_on_c, 1, 57, 0
4, 1655, Note_on_c, 1, 54, 0
4, 1656, Note_on_c, 1, 52, 73
4, 1656, Note_on_c, 1, 49, 73
4, 1679, Note_on_c, 1, 52, 0
4, 1679, Note_on_c, 1, 49, 0
4, 1680, Note_on_c, 1, 54, 74
4, 1680, Note_on_c, 1, 50, 74
4, 1703, Note_on_c, 1, 54, 0
4, 1703, Note_on_c, 1, 50, 0
4, 1704, Note_on_c, 1, 57, 74
4, 1704, Note_on_c, 1, 54, 74
4, 1727, Note_on_c, 1, 57, 0
4, 1727, Note_on_c, 1, 54, 0
4, 1728, Note_on_c, 1, 57, 75
4, 1817, Note_on_c, 1, 57, 0
4, 1824, Note_on_c, 1, 52, 75
4, 1869, Note_on_c, 1, 52, 0
4, 1920, Note_on_c, 1, 52, 75
4, 1965, Note_on_c, 1, 52, 0
4, 2016, Note_on_c, 1, 57, 64
4, 2031, Note_on_c, 1, 57, 0
4, 2032, Note_on_c, 1, 61, 64
4, 2047, Note_on_c, 1, 61, 0
4, 2048, Note_on_c, 1, 64, 64
4, 2063, Note_on_c, 1, 64, 0
4, 2064, Note_on_c, 1, 57, 64
4, 2079, Note_on_c, 1, 57, 0
4, 2080, Note_on_c, 1, 61, 64
4, 2095, Note_on_c, 1, 61, 0
4, 2096, Note_on_c, 1, 64, 64
4, 2111, Note_on_c, 1, 64, 0
4, 2112, Note_on_c, 1, 57, 64
4, 2127, Note_on_c, 1, 57, 0
4, 2128, Note_on_c, 1, 62, 64
4, 2143, Note_on_c, 1, 62, 0
4, 2144, Note_on_c, 1, 66, 64
4, 2159, Note_on_c, 1, 66, 0
4, 2160, Note_on_c, 1, 57, 64
4, 2175, Note_on_c, 1, 57, 0
4, 2176, Note_on_c, 1, 62, 64
4, 2191, Note_on_c, 1, 62, 0
4, 2192, Note_on_c, 1, 66, 64
4, 2207, Note_on_c, 1, 66, 0
4, 2208, Note_on_c, 1, 57, 64
4, 2223, Note_on_c, 1, 57, 0
4, 2224, Note_on_c, 1, 62, 64
4, 2239, Note_on_c, 1, 62, 0
4, 2240, Note_on_c, 1, 66, 64
4, 2255, Note_on_c, 1, 66, 0
4, 2256, Note_on_c, 1, 57, 64
4, 2271, Note_on_c, 1, 57, 0
4, 2272, Note_on_c, 1, 62, 64
4, 2287, Note_on_c, 1, 62, 0
4, 2288, Note_on_c, 1, 66, 64
4, 2303, Note_on_c, 1, 66, 0
4, 2304, Note_on_c, 1, 57, 64
4, 2319, Note_on_c, 1, 57, 0
4, 2320, Note_on_c, 1, 61, 64
4, 2335, Note_on_c, 1, 61, 0
4, 2336, Note_on_c, 1, 64, 64
4, 2351, Note_on_c, 1, 64, 0
4, 2352, Note_on_c, 1, 57, 64
4, 2367, Note_on_c, 1, 57, 0
4, 2368, Note_on_c, 1, 61, 64
4, 2383, Note_on_c, 1, 61, 0
4, 2384, Note_on_c, 1, 64, 64
4, 2399, Note_on_c, 1, 64, 0
4, 2400, Note_on_c, 1, 59, 64
4, 2415, Note_on_c, 1, 59, 0
4, 2416, Note_on_c, 1, 62, 64
4, 2431, Note_on_c, 1, 62, 0
4, 2432, Note_on_c, 1, 64, 64
4, 2447, Note_on_c, 1, 64, 0
4, 2448, Note_on_c, 1, 59, 64
4, 2463, Note_on_c, 1, 59, 0
4, 2464, Note_on_c, 1, 62, 64
4, 2479, Note_on_c, 1, 62, 0
4, 2480, Note_on_c, 1, 64, 64
4, 2495, Note_on_c, 1, 64, 0
4, 2496, Note_on_c, 1, 59, 64
4, 2511, Note_on_c, 1, 59, 0
4, 2512, Note_on_c, 1, 62, 64
4, 2527, Note_on_c, 1, 62, 0
4, 2528, Note_on_c, 1, 64, 64
4, 2543, Note_on_c, 1, 64, 0
4, 2544, Note_on_c, 1, 59, 64
4, 2559, Note_on_c, 1, 59, 0
4, 2560, Note_on_c, 1, 62, 64
4, 2575, Note_on_c, 1, 62, 0
4, 2576, Note_on_c, 1, 64, 64
4, 2591, Note_on_c, 1, 64, 0
4, 2592, Note_on_c, 1, 57, 64
4, 2607, Note_on_c, 1, 57, 0
4, 2608, Note_on_c, 1, 61, 64
4, 2623, Note_on_c, 1, 61, 0
4, 2624, Note_on_c, 1, 64, 64
4, 2639, Note_on_c, 1, 64, 0
4, 2640, Note_on_c, 1, 57, 64
4, 2655, Note_on_c, 1, 57, 0
4, 2656, Note_on_c, 1, 61, 64
4, 2671, Note_on_c, 1, 61, 0
4, 2672, Note_on_c, 1, 64, 64
4, 2687, Note_on_c, 1, 64, 0
4, 2688, Note_on_c, 1, 57, 64
4, 2703, Note_on_c, 1, 57, 0
4, 2704, Note_on_c, 1, 61, 64
4, 2719, Note_on_c, 1, 61, 0
4, 2720, Note_on_c, 1, 64, 64
4, 2735, Note_on_c, 1, 64, 0
4, 2976, Note_on_c, 1, 76, 64
4, 2976, Note_on_c, 1, 73, 64
4, 3120, Note_on_c, 1, 73, 0
4, 3120, Note_on_c, 1, 71, 64
4, 3235, Note_on_c, 1, 76, 0
4, 3235, Note_on_c, 1, 71, 0
4, 3360, Note_on_c, 1, 74, 64
4, 3360, Note_on_c, 1, 71, 64
4, 3405, Note_on_c, 1, 74, 0
4, 3405, Note_on_c, 1, 71, 0
4, 3408, Note_on_c, 1, 74, 64
4, 3408, Note_on_c, 1, 71, 64
4, 3453, Note_on_c, 1, 74, 0
4, 3453, Note_on_c, 1, 71, 0
4, 3456, Note_on_c, 1, 74, 64
4, 3456, Note_on_c, 1, 71, 64
4, 3501, Note_on_c, 1, 74, 0
4, 3501, Note_on_c, 1, 71, 0
4, 3504, Note_on_c, 1, 74, 64
4, 3504, Note_on_c, 1, 71, 64
4, 3549, Note_on_c, 1, 74, 0
4, 3549, Note_on_c, 1, 71, 0
4, 3552, Note_on_c, 1, 73, 64
4, 3552, Note_on_c, 1, 71, 64
4, 3597, Note_on_c, 1, 73, 0
4, 3597, Note_on_c, 1, 71, 0
4, 3600, Note_on_c, 1, 73, 64
4, 3600, Note_on_c, 1, 70, 64
4, 3645, Note_on_c, 1, 73, 0
4, 3645, Note_on_c, 1, 70, 0
4, 3648, Note_on_c, 1, 72, 64
4, 3648, Note_on_c, 1, 69, 64
4, 3693, Note_on_c, 1, 72, 0
4, 3693, Note_on_c, 1, 69, 0
4, 3696, Note_on_c, 1, 72, 64
4, 3696, Note_on_c, 1, 69, 64
4, 3741, Note_on_c, 1, 72, 0
4, 3741, Note_on_c, 1, 69, 0
4, 3744, Note_on_c, 1, 72, 64
4, 3744, Note_on_c, 1, 69, 64
4, 3789, Note_on_c, 1, 72, 0
4, 3789, Note_on_c, 1, 69, 0
4, 3792, Note_on_c, 1, 72, 64
4, 3792, Note_on_c, 1, 69, 64
4, 3837, Note_on_c, 1, 72, 0
4, 3837, Note_on_c, 1, 69, 0
4, 3840, Note_on_c, 1, 71, 64
4, 3840, Note_on_c, 1, 69, 64
4, 3885, Note_on_c, 1, 71, 0
4, 3885, Note_on_c, 1, 69, 0
4, 3888, Note_on_c, 1, 71, 64
4, 3888, Note_on_c, 1, 68, 64
4, 3933, Note_on_c, 1, 71, 0
4, 3933, Note_on_c, 1, 68, 0
4, 3936, Note_on_c, 1, 69, 64
4, 3936, Note_on_c, 1, 67, 64
4, 3981, Note_on_c, 1, 69, 0
4, 3981, Note_on_c, 1, 67, 0
4, 3984, Note_on_c, 1, 69, 63
4, 3984, Note_on_c, 1, 66, 63
4, 4029, Note_on_c, 1, 69, 0
4, 4029, Note_on_c, 1, 66, 0
4, 4032, Note_on_c, 1, 67, 62
4, 4032, Note_on_c, 1, 65, 62
4, 4077, Note_on_c, 1, 67, 0
4, 4077, Note_on_c, 1, 65, 0
4, 4080, Note_on_c, 1, 67, 61
4, 4080, Note_on_c, 1, 64, 61
4, 4125, Note_on_c, 1, 67, 0
4, 4125, Note_on_c, 1, 64, 0
4, 4128, Note_on_c, 1, 66, 60
4, 4128, Note_on_c, 1, 64, 60
4, 4173, Note_on_c, 1, 66, 0
4, 4173, Note_on_c, 1, 64, 0
4, 4176, Note_on_c, 1, 66, 59
4, 4176, Note_on_c, 1, 63, 59
4, 4221, Note_on_c, 1, 66, 0
4, 4221, Note_on_c, 1, 63, 0
4, 4248, Note_on_c, 1, 65, 64
4, 4272, Note_on_c, 1, 65, 0
4, 4272, Note_on_c, 1, 64, 66
4, 4295, Note_on_c, 1, 64, 0
4, 4296, Note_on_c, 1, 53, 69
4, 4320, Note_on_c, 1, 53, 0
4, 4320, Note_on_c, 1, 52, 72
4, 4343, Note_on_c, 1, 52, 0
4, 4356, Note_on_c, 1, 53, 75
4, 4356, Note_on_c, 1, 41, 75
4, 4416, Note_on_c, 1, 53, 0
4, 4416, Note_on_c, 1, 41, 0
4, 4416, Note_on_c, 1, 52, 75
4, 4416, Note_on_c, 1, 40, 75
4, 4509, Note_on_c, 1, 52, 0
4, 4509, Note_on_c, 1, 40, 0
4, 4608, Note_on_c, 1, 57, 64
4, 4697, Note_on_c, 1, 57, 0
4, 4896, Note_on_c, 1, 57, 64
4, 4985, Note_on_c, 1, 57, 0
4, 5184, Note_on_c, 1, 61, 64
4, 5184, Note_on_c, 1, 57, 64
4, 5207, Note_on_c, 1, 61, 0
4, 5207, Note_on_c, 1, 57, 0
4, 5208, Note_on_c, 1, 52, 64
4, 5231, Note_on_c, 1, 52, 0
4, 5232, Note_on_c, 1, 61, 65
4, 5232, Note_on_c, 1, 57, 65
4, 5255, Note_on_c, 1, 61, 0
4, 5255, Note_on_c, 1, 57, 0
4, 5256, Note_on_c, 1, 61, 66
4, 5256, Note_on_c, 1, 57, 66
4, 5279, Note_on_c, 1, 61, 0
4, 5279, Note_on_c, 1, 57, 0
4, 5280, Note_on_c, 1, 62, 66
4, 5280, Note_on_c, 1, 59, 66
4, 5303, Note_on_c, 1, 62, 0
4, 5303, Note_on_c, 1, 59, 0
4, 5304, Note_on_c, 1, 52, 67
4, 5327, Note_on_c, 1, 52, 0
4, 5328, Note_on_c, 1, 62, 68
4, 5328, Note_on_c, 1, 59, 68
4, 5351, Note_on_c, 1, 62, 0
4, 5351, Note_on_c, 1, 59, 0
4, 5352, Note_on_c, 1, 62, 68
4, 5352, Note_on_c, 1, 59, 68
4, 5375, Note_on_c, 1, 62, 0
4, 5375, Note_on_c, 1, 59, 0
4, 5376, Note_on_c, 1, 61, 69
4, 5376, Note_on_c, 1, 57, 69
4, 5399, Note_on_c, 1, 61, 0
4, 5399, Note_on_c, 1, 57, 0
4, 5400, Note_on_c, 1, 52, 70
4, 5423, Note_on_c, 1, 52, 0
4, 5424, Note_on_c, 1, 61, 70
4, 5424, Note_on_c, 1, 57, 70
4, 5447, Note_on_c, 1, 61, 0
4, 5447, Note_on_c, 1, 57, 0
4, 5448, Note_on_c, 1, 49, 86
4, 5472, Note_on_c, 1, 49, 0
4, 5472, Note_on_c, 1, 50, 70
4, 5544, Note_on_c, 1, 50, 0
4, 5544, Note_on_c, 1, 51, 68
4, 5567, Note_on_c, 1, 51, 0
4, 5568, Note_on_c, 1, 52, 67
4, 5687, Note_on_c, 1, 52, 0
4, 5688, Note_on_c, 1, 54, 64
4, 5688, Note_on_c, 1, 50, 64
4, 5711, Note_on_c, 1, 54, 0
4, 5711, Note_on_c, 1, 50, 0
4, 5712, Note_on_c, 1, 52, 64
4, 5712, Note_on_c, 1, 49, 64
4, 5735, Note_on_c, 1, 52, 0
4, 5735, Note_on_c, 1, 49, 0
4, 5736, Note_on_c, 1, 50, 65
4, 5736, Note_on_c, 1, 47, 65
4, 5759, Note_on_c, 1, 50, 0
4, 5759, Note_on_c, 1, 47, 0
4, 5760, Note_on_c, 1, 49, 66
4, 5760, Note_on_c, 1, 45, 66
4, 5849, Note_on_c, 1, 49, 0
4, 5849, Note_on_c, 1, 45, 0
4, 6048, Note_on_c, 1, 44, 70
4, 6048, Note_on_c, 1, 40, 70
4, 6071, Note_on_c, 1, 44, 0
4, 6071, Note_on_c, 1, 40, 0
4, 6072, Note_on_c, 1, 45, 70
4, 6072, Note_on_c, 1, 42, 70
4, 6095, Note_on_c, 1, 45, 0
4, 6095, Note_on_c, 1, 42, 0
4, 6096, Note_on_c, 1, 47, 70
4, 6096, Note_on_c, 1, 44, 70
4, 6119, Note_on_c, 1, 47, 0
4, 6119, Note_on_c, 1, 44, 0
4, 6120, Note_on_c, 1, 49, 71
4, 6120, Note_on_c, 1, 45, 71
4, 6143, Note_on_c, 1, 49, 0
4, 6143, Note_on_c, 1, 45, 0
4, 6144, Note_on_c, 1, 50, 71
4, 6144, Note_on_c, 1, 47, 71
4, 6167, Note_on_c, 1, 50, 0
4, 6167, Note_on_c, 1, 47, 0
4, 6168, Note_on_c, 1, 52, 72
4, 6168, Note_on_c, 1, 49, 72
4, 6191, Note_on_c, 1, 52, 0
4, 6191, Note_on_c, 1, 49, 0
4, 6192, Note_on_c, 1, 54, 72
4, 6192, Note_on_c, 1, 50, 72
4, 6215, Note_on_c, 1, 54, 0
4, 6215, Note_on_c, 1, 50, 0
4, 6216, Note_on_c, 1, 56, 72
4, 6216, Note_on_c, 1, 52, 72
4, 6239, Note_on_c, 1, 56, 0
4, 6239, Note_on_c, 1, 52, 0
4, 6240, Note_on_c, 1, 57, 73
4, 6240, Note_on_c, 1, 54, 73
4, 6263, Note_on_c, 1, 57, 0
4, 6263, Note_on_c, 1, 54, 0
4, 6264, Note_on_c, 1, 52, 73
4, 6264, Note_on_c, 1, 49, 73
4, 6287, Note_on_c, 1, 52, 0
4, 6287, Note_on_c, 1, 49, 0
4, 6288, Note_on_c, 1, 54, 74
4, 6288, Note_on_c, 1, 50, 74
4, 6311, Note_on_c, 1, 54, 0
4, 6311, Note_on_c, 1, 50, 0
4, 6312, Note_on_c, 1, 57, 74
4, 6312, Note_on_c, 1, 54, 74
4, 6335, Note_on_c, 1, 57, 0
4, 6335, Note_on_c, 1, 54, 0
4, 6336, Note_on_c, 1, 57, 75
4, 6425, Note_on_c, 1, 57, 0
4, 6432, Note_on_c, 1, 52, 75
4, 6477, Note_on_c, 1, 52, 0
4, 6528, Note_on_c, 1, 52, 75
4, 6573, Note_on_c, 1, 52, 0
4, 6624, Note_on_c, 1, 57, 64
4, 6639, Note_on_c, 1, 57, 0
4, 6640, Note_on_c, 1, 61, 64
4, 6655, Note_on_c, 1, 61, 0
4, 6656, Note_on_c, 1, 64, 64
4, 6671, Note_on_c, 1, 64, 0
4, 6672, Note_on_c, 1, 57, 64
4, 6687, Note_on_c, 1, 57, 0
4, 6688, Note_on_c, 1, 61, 64
4, 6703, Note_on_c, 1, 61, 0
4, 6704, Note_on_c, 1, 64, 64
4, 6719, Note_on_c, 1, 64, 0
4, 6720, Note_on_c, 1, 57, 64
4, 6735, Note_on_c, 1, 57, 0
4, 6736, Note_on_c, 1, 62, 64
4, 6751, Note_on_c, 1, 62, 0
4, 6752, Note_on_c, 1, 66, 64
4, 6767, Note_on_c, 1, 66, 0
4, 6768, Note_on_c, 1, 57, 64
4, 6783, Note_on_c, 1, 57, 0
4, 6784, Note_on_c, 1, 62, 64
4, 6799, Note_on_c, 1, 62, 0
4, 6800, Note_on_c, 1, 66, 64
4, 6815, Note_on_c, 1, 66, 0
4, 6816, Note_on_c, 1, 57, 64
4, 6831, Note_on_c, 1, 57, 0
4, 6832, Note_on_c, 1, 62, 64
4, 6847, Note_on_c, 1, 62, 0
4, 6848, Note_on_c, 1, 66, 64
4, 6863, Note_on_c, 1, 66, 0
4, 6864, Note_on_c, 1, 57, 64
4, 6879, Note_on_c, 1, 57, 0
4, 6880, Note_on_c, 1, 62, 64
4, 6895, Note_on_c, 1, 62, 0
4, 6896, Note_on_c, 1, 66, 64
4, 6911, Note_on_c, 1, 66, 0
4, 6912, Note_on_c, 1, 57, 64
4, 6927, Note_on_c, 1, 57, 0
4, 6928, Note_on_c, 1, 61, 64
4, 6943, Note_on_c, 1, 61, 0
4, 6944, Note_on_c, 1, 64, 64
4, 6959, Note_on_c, 1, 64, 0
4, 6960, Note_on_c, 1, 57, 64
4, 6975, Note_on_c, 1, 57, 0
4, 6976, Note_on_c, 1, 61, 64
4, 6991, Note_on_c, 1, 61, 0
4, 6992, Note_on_c, 1, 64, 64
4, 7007, Note_on_c, 1, 64, 0
4, 7008, Note_on_c, 1, 59, 64
4, 7023, Note_on_c, 1, 59, 0
4, 7024, Note_on_c, 1, 62, 64
4, 7039, Note_on_c, 1, 62, 0
4, 7040, Note_on_c, 1, 64, 64
4, 7055, Note_on_c, 1, 64, 0
4, 7056, Note_on_c, 1, 59, 64
4, 7071, Note_on_c, 1, 59, 0
4, 7072, Note_on_c, 1, 62, 64
4, 7087, Note_on_c, 1, 62, 0
4, 7088, Note_on_c, 1, 64, 64
4, 7103, Note_on_c, 1, 64, 0
4, 7104, Note_on_c, 1, 59, 64
4, 7119, Note_on_c, 1, 59, 0
4, 7120, Note_on_c, 1, 62, 64
4, 7135, Note_on_c, 1, 62, 0
4, 7136, Note_on_c, 1, 64, 64
4, 7151, Note_on_c, 1, 64, 0
4, 7152, Note_on_c, 1, 59, 64
4, 7167, Note_on_c, 1, 59, 0
4, 7168, Note_on_c, 1, 62, 64
4, 7183, Note_on_c, 1, 62, 0
4, 7184, Note_on_c, 1, 64, 64
4, 7199, Note_on_c, 1, 64, 0
4, 7200, Note_on_c, 1, 57, 64
4, 7215, Note_on_c, 1, 57, 0
4, 7216, Note_on_c, 1, 61, 64
4, 7231, Note_on_c, 1, 61, 0
4, 7232, Note_on_c, 1, 64, 64
4, 7247, Note_on_c, 1, 64, 0
4, 7248, Note_on_c, 1, 57, 64
4, 7263, Note_on_c, 1, 57, 0
4, 7264, Note_on_c, 1, 61, 64
4, 7279, Note_on_c, 1, 61, 0
4, 7280, Note_on_c, 1, 64, 64
4, 7295, Note_on_c, 1, 64, 0
4, 7296, Note_on_c, 1, 57, 64
4, 7311, Note_on_c, 1, 57, 0
4, 7312, Note_on_c, 1, 61, 64
4, 7327, Note_on_c, 1, 61, 0
4, 7328, Note_on_c, 1, 64, 64
4, 7343, Note_on_c, 1, 64, 0
4, 7584, Note_on_c, 1, 76, 64
4, 7584, Note_on_c, 1, 73, 64
4, 7728, Note_on_c, 1, 73, 0
4, 7728, Note_on_c, 1, 71, 64
4, 7843, Note_on_c, 1, 76, 0
4, 7843, Note_on_c, 1, 71, 0
4, 7968, Note_on_c, 1, 74, 64
4, 7968, Note_on_c, 1, 71, 64
4, 8013, Note_on_c, 1, 74, 0
4, 8013, Note_on_c, 1, 71, 0
4, 8016, Note_on_c, 1, 74, 64
4, 8016, Note_on_c, 1, 71, 64
4, 8061, Note_on_c, 1, 74, 0
4, 8061, Note_on_c, 1, 71, 0
4, 8064, Note_on_c, 1, 74, 64
4, 8064, Note_on_c, 1, 71, 64
4, 8109, Note_on_c, 1, 74, 0
4, 8109, Note_on_c, 1, 71, 0
4, 8112, Note_on_c, 1, 74, 64
4, 8112, Note_on_c, 1, 71, 64
4, 8157, Note_on_c, 1, 74, 0
4, 8157, Note_on_c, 1, 71, 0
4, 8160, Note_on_c, 1, 73, 64
4, 8160, Note_on_c, 1, 71, 64
4, 8205, Note_on_c, 1, 73, 0
4, 8205, Note_on_c, 1, 71, 0
4, 8208, Note_on_c, 1, 73, 64
4, 8208, Note_on_c, 1, 70, 64
4, 8253, Note_on_c, 1, 73, 0
4, 8253, Note_on_c, 1, 70, 0
4, 8256, Note_on_c, 1, 72, 64
4, 8256, Note_on_c, 1, 69, 64
4, 8301, Note_on_c, 1, 72, 0
4, 8301, Note_on_c, 1, 69, 0
4, 8304, Note_on_c, 1, 72, 64
4, 8304, Note_on_c, 1, 69, 64
4, 8349, Note_on_c, 1, 72, 0
4, 8349, Note_on_c, 1, 69, 0
4, 8352, Note_on_c, 1, 72, 64
4, 8352, Note_on_c, 1, 69, 64
4, 8397, Note_on_c, 1, 72, 0
4, 8397, Note_on_c, 1, 69, 0
4, 8400, Note_on_c, 1, 72, 64
4, 8400, Note_on_c, 1, 69, 64
4, 8445, Note_on_c, 1, 72, 0
4, 8445, Note_on_c, 1, 69, 0
4, 8448, Note_on_c, 1, 71, 64
4, 8448, Note_on_c, 1, 69, 64
4, 8493, Note_on_c, 1, 71, 0
4, 8493, Note_on_c, 1, 69, 0
4, 8496, Note_on_c, 1, 71, 64
4, 8496, Note_on_c, 1, 68, 64
4, 8541, Note_on_c, 1, 71, 0
4, 8541, Note_on_c, 1, 68, 0
4, 8544, Note_on_c, 1, 69, 64
4, 8544, Note_on_c, 1, 67, 64
4, 8589, Note_on_c, 1, 69, 0
4, 8589, Note_on_c, 1, 67, 0
4, 8592, Note_on_c, 1, 69, 63
4, 8592, Note_on_c, 1, 66, 63
4, 8637, Note_on_c, 1, 69, 0
4, 8637, Note_on_c, 1, 66, 0
4, 8640, Note_on_c, 1, 67, 62
4, 8640, Note_on_c, 1, 65, 62
4, 8685, Note_on_c, 1, 67, 0
4, 8685, Note_on_c, 1, 65, 0
4, 8688, Note_on_c, 1, 67, 61
4, 8688, Note_on_c, 1, 64, 61
4, 8733, Note_on_c, 1, 67, 0
4, 8733, Note_on_c, 1, 64, 0
4, 8736, Note_on_c, 1, 66, 60
4, 8736, Note_on_c, 1, 64, 60
4, 8781, Note_on_c, 1, 66, 0
4, 8781, Note_on_c, 1, 64, 0
4, 8784, Note_on_c, 1, 66, 59
4, 8784, Note_on_c, 1, 63, 59
4, 8829, Note_on_c, 1, 66, 0
4, 8829, Note_on_c, 1, 63, 0
4, 8856, Note_on_c, 1, 65, 64
4, 8880, Note_on_c, 1, 65, 0
4, 8880, Note_on_c, 1, 64, 66
4, 8903, Note_on_c, 1, 64, 0
4, 8904, Note_on_c, 1, 53, 69
4, 8928, Note_on_c, 1, 53, 0
4, 8928, Note_on_c, 1, 52, 72
4, 8951, Note_on_c, 1, 52, 0
4, 8964, Note_on_c, 1, 53, 75
4, 8964, Note_on_c, 1, 41, 75
4, 9024, Note_on_c, 1, 53, 0
4, 9024, Note_on_c, 1, 41, 0
4, 9024, Note_on_c, 1, 52, 75
4, 9024, Note_on_c, 1, 40, 75
4, 9117, Note_on_c, 1, 52, 0
4, 9117, Note_on_c, 1, 40, 0
4, 9216, Note_on_c, 1, 50, 75
4, 9261, Note_on_c, 1, 50, 0
4, 9264, Note_on_c, 1, 48, 75
4, 9309, Note_on_c, 1, 48, 0
4, 9312, Note_on_c, 1, 47, 75
4, 9357, Note_on_c, 1, 47, 0
4, 9360, Note_on_c, 1, 45, 75
4, 9405, Note_on_c, 1, 45, 0
4, 9408, Control_c, 1, 64, 127
4, 9408, Note_on_c, 1, 44, 75
4, 9497, Note_on_c, 1, 44, 0
4, 9504, Control_c, 1, 64, 0
4, 9792, Note_on_c, 1, 67, 75
4, 9837, Note_on_c, 1, 67, 0
4, 9840, Note_on_c, 1, 65, 73
4, 9885, Note_on_c, 1, 65, 0
4, 9888, Note_on_c, 1, 64, 72
4, 9933, Note_on_c, 1, 64, 0
4, 9936, Note_on_c, 1, 62, 71
4, 9981, Note_on_c, 1, 62, 0
4, 9984, Control_c, 1, 64, 127
4, 9984, Note_on_c, 1, 61, 70
4, 10073, Note_on_c, 1, 61, 0
4, 10080, Control_c, 1, 64, 0
4, 10416, Note_on_c, 1, 50, 96
4, 10464, Note_on_c, 1, 50, 0
4, 10512, Note_on_c, 1, 38, 96
4, 10560, Note_on_c, 1, 38, 0
4, 10608, Note_on_c, 1, 50, 96
4, 10656, Note_on_c, 1, 50, 0
4, 10656, Note_on_c, 1, 49, 80
4, 10701, Note_on_c, 1, 49, 0
4, 10752, Note_on_c, 1, 48, 80
4, 10752, Note_on_c, 1, 36, 80
4, 10797, Note_on_c, 1, 48, 0
4, 10797, Note_on_c, 1, 36, 0
4, 10848, Note_on_c, 1, 48, 80
4, 10848, Note_on_c, 1, 36, 80
4, 10937, Note_on_c, 1, 48, 0
4, 10937, Note_on_c, 1, 36, 0
4, 10944, Note_on_c, 1, 53, 80
4, 10989, Note_on_c, 1, 53, 0
4, 10992, Note_on_c, 1, 51, 81
4, 11037, Note_on_c, 1, 51, 0
4, 11040, Note_on_c, 1, 49, 82
4, 11085, Note_on_c, 1, 49, 0
4, 11088, Note_on_c, 1, 50, 83
4, 11111, Note_on_c, 1, 50, 0
4, 11112, Note_on_c, 1, 50, 83
4, 11135, Note_on_c, 1, 50, 0
4, 11136, Note_on_c, 1, 51, 84
4, 11181, Note_on_c, 1, 51, 0
4, 11184, Note_on_c, 1, 52, 85
4, 11207, Note_on_c, 1, 52, 0
4, 11208, Note_on_c, 1, 52, 85
4, 11231, Note_on_c, 1, 52, 0
4, 11232, Note_on_c, 1, 53, 86
4, 11277, Note_on_c, 1, 53, 0
4, 11280, Note_on_c, 1, 44, 82
4, 11325, Note_on_c, 1, 44, 0
4, 11328, Note_on_c, 1, 45, 78
4, 11373, Note_on_c, 1, 45, 0
4, 11424, Note_on_c, 1, 57, 75
4, 11469, Note_on_c, 1, 57, 0
4, 11520, Note_on_c, 1, 62, 64
4, 11535, Note_on_c, 1, 62, 0
4, 11536, Note_on_c, 1, 65, 64
4, 11551, Note_on_c, 1, 65, 0
4, 11552, Note_on_c, 1, 69, 64
4, 11567, Note_on_c, 1, 69, 0
4, 11568, Note_on_c, 1, 62, 64
4, 11583, Note_on_c, 1, 62, 0
4, 11584, Note_on_c, 1, 65, 64
4, 11599, Note_on_c, 1, 65, 0
4, 11600, Note_on_c, 1, 69, 64
4, 11615, Note_on_c, 1, 69, 0
4, 11616, Note_on_c, 1, 62, 64
4, 11631, Note_on_c, 1, 62, 0
4, 11632, Note_on_c, 1, 67, 64
4, 11647, Note_on_c, 1, 67, 0
4, 11648, Note_on_c, 1, 70, 64
4, 11663, Note_on_c, 1, 70, 0
4, 11664, Note_on_c, 1, 62, 64
4, 11679, Note_on_c, 1, 62, 0
4, 11680, Note_on_c, 1, 67, 64
4, 11695, Note_on_c, 1, 67, 0
4, 11696, Note_on_c, 1, 70, 64
4, 11711, Note_on_c, 1, 70, 0
4, 11712, Note_on_c, 1, 62, 64
4, 11727, Note_on_c, 1, 62, 0
4, 11728, Note_on_c, 1, 67, 64
4, 11743, Note_on_c, 1, 67, 0
4, 11744, Note_on_c, 1, 70, 64
4, 11759, Note_on_c, 1, 70, 0
4, 11760, Note_on_c, 1, 62, 64
4, 11775, Note_on_c, 1, 62, 0
4, 11776, Note_on_c, 1, 67, 64
4, 11791, Note_on_c, 1, 67, 0
4, 11792, Note_on_c, 1, 70, 64
4, 11807, Note_on_c, 1, 70, 0
4, 11808, Note_on_c, 1, 62, 64
4, 11823, Note_on_c, 1, 62, 0
4, 11824, Note_on_c, 1, 65, 64
4, 11839, Note_on_c, 1, 65, 0
4, 11840, Note_on_c, 1, 69, 64
4, 11855, Note_on_c, 1, 69, 0
4, 11856, Note_on_c, 1, 62, 64
4, 11871, Note_on_c, 1, 62, 0
4, 11872, Note_on_c, 1, 65, 64
4, 11887, Note_on_c, 1, 65, 0
4, 11888, Note_on_c, 1, 69, 64
4, 11903, Note_on_c, 1, 69, 0
4, 11904, Note_on_c, 1, 64, 64
4, 11919, Note_on_c, 1, 64, 0
4, 11920, Note_on_c, 1, 67, 64
4, 11935, Note_on_c, 1, 67, 0
4, 11936, Note_on_c, 1, 69, 64
4, 11951, Note_on_c, 1, 69, 0
4, 11952, Note_on_c, 1, 64, 64
4, 11967, Note_on_c, 1, 64, 0
4, 11968, Note_on_c, 1, 67, 64
4, 11983, Note_on_c, 1, 67, 0
4, 11984, Note_on_c, 1, 69, 64
4, 11999, Note_on_c, 1, 69, 0
4, 12000, Note_on_c, 1, 64, 64
4, 12015, Note_on_c, 1, 64, 0
4, 12016, Note_on_c, 1, 67, 64
4, 12031, Note_on_c, 1, 67, 0
4, 12032, Note_on_c, 1, 69, 64
4, 12047, Note_on_c, 1, 69, 0
4, 12048, Note_on_c, 1, 64, 64
4, 12063, Note_on_c, 1, 64, 0
4, 12064, Note_on_c, 1, 67, 64
4, 12079, Note_on_c, 1, 67, 0
4, 12080, Note_on_c, 1, 69, 64
4, 12095, Note_on_c, 1, 69, 0
4, 12096, Note_on_c, 1, 62, 64
4, 12111, Note_on_c, 1, 62, 0
4, 12112, Note_on_c, 1, 65, 64
4, 12127, Note_on_c, 1, 65, 0
4, 12128, Note_on_c, 1, 69, 64
4, 12143, Note_on_c, 1, 69, 0
4, 12144, Note_on_c, 1, 62, 64
4, 12159, Note_on_c, 1, 62, 0
4, 12160, Note_on_c, 1, 65, 64
4, 12175, Note_on_c, 1, 65, 0
4, 12176, Note_on_c, 1, 69, 64
4, 12191, Note_on_c, 1, 69, 0
4, 12192, Note_on_c, 1, 62, 64
4, 12207, Note_on_c, 1, 62, 0
4, 12208, Note_on_c, 1, 65, 64
4, 12223, Note_on_c, 1, 65, 0
4, 12224, Note_on_c, 1, 69, 65
4, 12239, Note_on_c, 1, 69, 0
4, 12240, Note_on_c, 1, 62, 66
4, 12255, Note_on_c, 1, 62, 0
4, 12256, Note_on_c, 1, 65, 67
4, 12271, Note_on_c, 1, 65, 0
4, 12272, Note_on_c, 1, 69, 67
4, 12287, Note_on_c, 1, 69, 0
4, 12288, Note_on_c, 1, 63, 70
4, 12303, Note_on_c, 1, 63, 0
4, 12304, Note_on_c, 1, 66, 70
4, 12319, Note_on_c, 1, 66, 0
4, 12320, Note_on_c, 1, 69, 70
4, 12335, Note_on_c, 1, 69, 0
4, 12336, Note_on_c, 1, 63, 70
4, 12351, Note_on_c, 1, 63, 0
4, 12352, Note_on_c, 1, 66, 70
4, 12367, Note_on_c, 1, 66, 0
4, 12368, Note_on_c, 1, 69, 70
4, 12383, Note_on_c, 1, 69, 0
4, 12384, Note_on_c, 1, 68, 70
4, 12429, Note_on_c, 1, 68, 0
4, 12528, Note_on_c, 1, 64, 70
4, 12669, Note_on_c, 1, 64, 0
4, 12768, Note_on_c, 1, 45, 64
4, 12857, Note_on_c, 1, 45, 0
4, 12864, Note_on_c, 1, 45, 64
4, 12953, Note_on_c, 1, 45, 0
4, 12960, Note_on_c, 1, 45, 64
4, 13049, Note_on_c, 1, 45, 0
4, 13056, Note_on_c, 1, 45, 64
4, 13145, Note_on_c, 1, 45, 0
4, 13152, Note_on_c, 1, 45, 64
4, 13241, Note_on_c, 1, 45, 0
4, 13248, Note_on_c, 1, 44, 64
4, 13337, Note_on_c, 1, 44, 0
4, 13344, Note_on_c, 1, 48, 75
4, 13344, Note_on_c, 1, 45, 75
4, 13367, Note_on_c, 1, 48, 0
4, 13367, Note_on_c, 1, 45, 0
4, 13368, Note_on_c, 1, 40, 75
4, 13391, Note_on_c, 1, 40, 0
4, 13392, Note_on_c, 1, 48, 76
4, 13392, Note_on_c, 1, 45, 76
4, 13415, Note_on_c, 1, 48, 0
4, 13415, Note_on_c, 1, 45, 0
4, 13416, Note_on_c, 1, 48, 77
4, 13416, Note_on_c, 1, 45, 77
4, 13439, Note_on_c, 1, 48, 0
4, 13439, Note_on_c, 1, 45, 0
4, 13440, Note_on_c, 1, 50, 78
4, 13440, Note_on_c, 1, 47, 78
4, 13463, Note_on_c, 1, 50, 0
4, 13463, Note_on_c, 1, 47, 0
4, 13464, Note_on_c, 1, 40, 79
4, 13487, Note_on_c, 1, 40, 0
4, 13488, Note_on_c, 1, 50, 80
4, 13488, Note_on_c, 1, 47, 80
4, 13511, Note_on_c, 1, 50, 0
4, 13511, Note_on_c, 1, 47, 0
4, 13512, Note_on_c, 1, 50, 81
4, 13512, Note_on_c, 1, 47, 81
4, 13535, Note_on_c, 1, 50, 0
4, 13535, Note_on_c, 1, 47, 0
4, 13536, Note_on_c, 1, 48, 82
4, 13536, Note_on_c, 1, 45, 82
4, 13559, Note_on_c, 1, 48, 0
4, 13559, Note_on_c, 1, 45, 0
4, 13560, Note_on_c, 1, 40, 83
4, 13583, Note_on_c, 1, 40, 0
4, 13584, Note_on_c, 1, 48, 84
4, 13584, Note_on_c, 1, 45, 84
4, 13607, Note_on_c, 1, 48, 0
4, 13607, Note_on_c, 1, 45, 0
4, 13608, Note_on_c, 1, 48, 101
4, 13608, Note_on_c, 1, 36, 101
4, 13632, Note_on_c, 1, 48, 0
4, 13632, Note_on_c, 1, 36, 0
4, 13632, Note_on_c, 1, 50, 86
4, 13632, Note_on_c, 1, 38, 86
4, 13677, Note_on_c, 1, 50, 0
4, 13677, Note_on_c, 1, 38, 0
4, 13680, Note_on_c, 1, 51, 86
4, 13680, Note_on_c, 1, 39, 86
4, 13725, Note_on_c, 1, 51, 0
4, 13725, Note_on_c, 1, 39, 0
4, 13728, Note_on_c, 1, 52, 75
4, 13728, Note_on_c, 1, 40, 75
4, 13861, Note_on_c, 1, 52, 0
4, 13861, Note_on_c, 1, 40, 0
4, 13920, Note_on_c, 1, 67, 64
4, 13920, Note_on_c, 1, 64, 64
4, 13965, Note_on_c, 1, 67, 0
4, 13965, Note_on_c, 1, 64, 0
4, 13968, Note_on_c, 1, 67, 64
4, 13968, Note_on_c, 1, 64, 64
4, 14013, Note_on_c, 1, 67, 0
4, 14013, Note_on_c, 1, 64, 0
4, 14016, Note_on_c, 1, 67, 64
4, 14016, Note_on_c, 1, 64, 64
4, 14061, Note_on_c, 1, 67, 0
4, 14061, Note_on_c, 1, 64, 0
4, 14064, Note_on_c, 1, 67, 64
4, 14064, Note_on_c, 1, 64, 64
4, 14109, Note_on_c, 1, 67, 0
4, 14109, Note_on_c, 1, 64, 0
4, 14112, Note_on_c, 1, 66, 64
4, 14112, Note_on_c, 1, 64, 64
4, 14157, Note_on_c, 1, 66, 0
4, 14157, Note_on_c, 1, 64, 0
4, 14160, Note_on_c, 1, 66, 64
4, 14160, Note_on_c, 1, 63, 64
4, 14205, Note_on_c, 1, 66, 0
4, 14205, Note_on_c, 1, 63, 0
4, 14208, Note_on_c, 1, 65, 64
4, 14208, Note_on_c, 1, 62, 64
4, 14253, Note_on_c, 1, 65, 0
4, 14253, Note_on_c, 1, 62, 0
4, 14256, Note_on_c, 1, 65, 64
4, 14256, Note_on_c, 1, 62, 64
4, 14301, Note_on_c, 1, 65, 0
4, 14301, Note_on_c, 1, 62, 0
4, 14304, Note_on_c, 1, 65, 64
4, 14304, Note_on_c, 1, 62, 64
4, 14349, Note_on_c, 1, 65, 0
4, 14349, Note_on_c, 1, 62, 0
4, 14352, Note_on_c, 1, 65, 64
4, 14352, Note_on_c, 1, 62, 64
4, 14397, Note_on_c, 1, 65, 0
4, 14397, Note_on_c, 1, 62, 0
4, 14400, Note_on_c, 1, 64, 64
4, 14400, Note_on_c, 1, 62, 64
4, 14445, Note_on_c, 1, 64, 0
4, 14445, Note_on_c, 1, 62, 0
4, 14448, Note_on_c, 1, 64, 64
4, 14448, Note_on_c, 1, 61, 64
4, 14493, Note_on_c, 1, 64, 0
4, 14493, Note_on_c, 1, 61, 0
4, 14496, Note_on_c, 1, 62, 64
4, 14496, Note_on_c, 1, 60, 64
4, 14541, Note_on_c, 1, 62, 0
4, 14541, Note_on_c, 1, 60, 0
4, 14544, Note_on_c, 1, 62, 63
4, 14544, Note_on_c, 1, 59, 63
4, 14589, Note_on_c, 1, 62, 0
4, 14589, Note_on_c, 1, 59, 0
4, 14592, Note_on_c, 1, 60, 62
4, 14592, Note_on_c, 1, 58, 62
4, 14637, Note_on_c, 1, 60, 0
4, 14637, Note_on_c, 1, 58, 0
4, 14640, Note_on_c, 1, 60, 61
4, 14640, Note_on_c, 1, 57, 61
4, 14685, Note_on_c, 1, 60, 0
4, 14685, Note_on_c, 1, 57, 0
4, 14688, Note_on_c, 1, 59, 60
4, 14688, Note_on_c, 1, 57, 60
4, 14733, Note_on_c, 1, 59, 0
4, 14733, Note_on_c, 1, 57, 0
4, 14736, Note_on_c, 1, 59, 59
4, 14736, Note_on_c, 1, 56, 59
4, 14781, Note_on_c, 1, 59, 0
4, 14781, Note_on_c, 1, 56, 0
4, 14808, Note_on_c, 1, 58, 80
4, 14832, Note_on_c, 1, 58, 0
4, 14832, Note_on_c, 1, 57, 80
4, 14855, Note_on_c, 1, 57, 0
4, 14856, Note_on_c, 1, 46, 80
4, 14880, Note_on_c, 1, 46, 0
4, 14880, Note_on_c, 1, 45, 80
4, 14903, Note_on_c, 1, 45, 0
4, 14934, Note_on_c, 1, 53, 64
4, 14942, Note_on_c, 1, 53, 0
4, 14952, Note_on_c, 1, 53, 70
4, 15023, Note_on_c, 1, 53, 0
4, 15024, Control_c, 1, 64, 127
4, 15024, Note_on_c, 1, 52, 70
4, 15069, Note_on_c, 1, 52, 0
4, 15072, Control_c, 1, 64, 0
4, 15360, Note_on_c, 1, 57, 70
4, 15405, Note_on_c, 1, 57, 0
4, 15408, Note_on_c, 1, 56, 70
4, 15453, Note_on_c, 1, 56, 0
4, 15456, Note_on_c, 1, 54, 70
4, 15501, Note_on_c, 1, 54, 0
4, 15504, Note_on_c, 1, 52, 70
4, 15549, Note_on_c, 1, 52, 0
4, 15552, Note_on_c, 1, 50, 70
4, 15597, Note_on_c, 1, 50, 0
4, 15600, Note_on_c, 1, 49, 70
4, 15645, Note_on_c, 1, 49, 0
4, 15648, Note_on_c, 1, 47, 70
4, 15693, Note_on_c, 1, 47, 0
4, 15696, Note_on_c, 1, 52, 70
4, 15741, Note_on_c, 1, 52, 0
4, 15744, Note_on_c, 1, 50, 70
4, 15789, Note_on_c, 1, 50, 0
4, 15792, Note_on_c, 1, 49, 70
4, 15837, Note_on_c, 1, 49, 0
4, 15840, Note_on_c, 1, 47, 70
4, 15885, Note_on_c, 1, 47, 0
4, 15888, Note_on_c, 1, 45, 70
4, 15933, Note_on_c, 1, 45, 0
4, 15936, Note_on_c, 1, 47, 70
4, 15981, Note_on_c, 1, 47, 0
4, 15984, Note_on_c, 1, 45, 70
4, 16029, Note_on_c, 1, 45, 0
4, 16032, Note_on_c, 1, 44, 70
4, 16077, Note_on_c, 1, 44, 0
4, 16080, Note_on_c, 1, 42, 70
4, 16125, Note_on_c, 1, 42, 0
4, 16128, Note_on_c, 1, 40, 70
4, 16173, Note_on_c, 1, 40, 0
4, 16176, Note_on_c, 1, 38, 70
4, 16221, Note_on_c, 1, 38, 0
4, 16224, Note_on_c, 1, 37, 70
4, 16269, Note_on_c, 1, 37, 0
4, 16272, Note_on_c, 1, 35, 70
4, 16317, Note_on_c, 1, 35, 0
4, 16320, Note_on_c, 1, 33, 70
4, 16340, Note_on_c, 1, 33, 0
4, 16368, Note_on_c, 1, 68, 64
4, 16368, Note_on_c, 1, 64, 64
4, 16413, Note_on_c, 1, 68, 0
4, 16413, Note_on_c, 1, 64, 0
4, 16416, Note_on_c, 1, 69, 64
4, 16416, Note_on_c, 1, 66, 64
4, 16461, Note_on_c, 1, 69, 0
4, 16461, Note_on_c, 1, 66, 0
4, 16464, Note_on_c, 1, 71, 64
4, 16464, Note_on_c, 1, 68, 64
4, 16509, Note_on_c, 1, 71, 0
4, 16509, Note_on_c, 1, 68, 0
4, 16512, Note_on_c, 1, 73, 64
4, 16512, Note_on_c, 1, 69, 64
4, 16601, Note_on_c, 1, 73, 0
4, 16601, Note_on_c, 1, 69, 0
4, 16752, Note_on_c, 1, 64, 64
4, 16752, Note_on_c, 1, 61, 64
4, 16800, Note_on_c, 1, 64, 0
4, 16800, Note_on_c, 1, 61, 0
4, 16800, Note_on_c, 1, 66, 64
4, 16800, Note_on_c, 1, 62, 64
4, 16889, Note_on_c, 1, 66, 0
4, 16889, Note_on_c, 1, 62, 0
4, 16896, Note_on_c, 1, 64, 64
4, 16985, Note_on_c, 1, 64, 0
4, 16992, Note_on_c, 1, 52, 64
4, 17081, Note_on_c, 1, 52, 0
4, 17088, Note_on_c, 1, 57, 64
4, 17177, Note_on_c, 1, 57, 0
4, 17328, Note_on_c, 1, 64, 64
4, 17328, Note_on_c, 1, 61, 64
4, 17376, Note_on_c, 1, 64, 0
4, 17376, Note_on_c, 1, 61, 0
4, 17376, Note_on_c, 1, 66, 64
4, 17376, Note_on_c, 1, 62, 64
4, 17465, Note_on_c, 1, 66, 0
4, 17465, Note_on_c, 1, 62, 0
4, 17472, Note_on_c, 1, 64, 64
4, 17561, Note_on_c, 1, 64, 0
4, 17568, Note_on_c, 1, 52, 64
4, 17657, Note_on_c, 1, 52, 0
4, 17664, Note_on_c, 1, 57, 75
4, 17712, Note_on_c, 1, 57, 0
4, 17712, Note_on_c, 1, 56, 75
4, 17757, Note_on_c, 1, 56, 0
4, 17760, Note_on_c, 1, 54, 75
4, 17805, Note_on_c, 1, 54, 0
4, 17808, Note_on_c, 1, 52, 75
4, 17853, Note_on_c, 1, 52, 0
4, 17856, Note_on_c, 1, 54, 75
4, 17901, Note_on_c, 1, 54, 0
4, 17904, Note_on_c, 1, 52, 75
4, 17949, Note_on_c, 1, 52, 0
4, 17952, Note_on_c, 1, 50, 75
4, 18000, Note_on_c, 1, 50, 0
4, 18000, Note_on_c, 1, 54, 75
4, 18045, Note_on_c, 1, 54, 0
4, 18048, Note_on_c, 1, 52, 75
4, 18093, Note_on_c, 1, 52, 0
4, 18096, Note_on_c, 1, 50, 75
4, 18141, Note_on_c, 1, 50, 0
4, 18144, Note_on_c, 1, 52, 75
4, 18189, Note_on_c, 1, 52, 0
4, 18192, Note_on_c, 1, 50, 75
4, 18237, Note_on_c, 1, 50, 0
4, 18240, Note_on_c, 1, 49, 75
4, 18288, Note_on_c, 1, 49, 0
4, 18288, Note_on_c, 1, 52, 75
4, 18333, Note_on_c, 1, 52, 0
4, 18336, Note_on_c, 1, 50, 75
4, 18381, Note_on_c, 1, 50, 0
4, 18384, Note_on_c, 1, 49, 75
4, 18429, Note_on_c, 1, 49, 0
4, 18432, Note_on_c, 1, 50, 75
4, 18477, Note_on_c, 1, 50, 0
4, 18480, Note_on_c, 1, 49, 75
4, 18525, Note_on_c, 1, 49, 0
4, 18528, Note_on_c, 1, 47, 75
4, 18576, Note_on_c, 1, 47, 0
4, 18576, Note_on_c, 1, 50, 75
4, 18621, Note_on_c, 1, 50, 0
4, 18624, Note_on_c, 1, 49, 75
4, 18669, Note_on_c, 1, 49, 0
4, 18672, Note_on_c, 1, 47, 75
4, 18717, Note_on_c, 1, 47, 0
4, 18720, Note_on_c, 1, 49, 75
4, 18765, Note_on_c, 1, 49, 0
4, 18768, Note_on_c, 1, 47, 75
4, 18813, Note_on_c, 1, 47, 0
4, 18816, Note_on_c, 1, 45, 75
4, 18864, Note_on_c, 1, 45, 0
4, 18864, Note_on_c, 1, 49, 75
4, 18909, Note_on_c, 1, 49, 0
4, 18912, Note_on_c, 1, 47, 75
4, 18957, Note_on_c, 1, 47, 0
4, 18960, Note_on_c, 1, 45, 75
4, 19005, Note_on_c, 1, 45, 0
4, 19008, Note_on_c, 1, 47, 75
4, 19053, Note_on_c, 1, 47, 0
4, 19056, Note_on_c, 1, 45, 75
4, 19101, Note_on_c, 1, 45, 0
4, 19104, Note_on_c, 1, 44, 75
4, 19143, Note_on_c, 1, 44, 0
4, 19200, Note_on_c, 1, 44, 75
4, 19245, Note_on_c, 1, 44, 0
4, 19248, Note_on_c, 1, 40, 75
4, 19293, Note_on_c, 1, 40, 0
4, 19296, Note_on_c, 1, 42, 75
4, 19341, Note_on_c, 1, 42, 0
4, 19344, Note_on_c, 1, 44, 75
4, 19389, Note_on_c, 1, 44, 0
4, 19392, Note_on_c, 1, 45, 75
4, 19431, Note_on_c, 1, 45, 0
4, 19488, Note_on_c, 1, 50, 91
4, 19584, Note_on_c, 1, 50, 0
4, 19584, Note_on_c, 1, 49, 75
4, 19673, Note_on_c, 1, 49, 0
4, 19680, Note_on_c, 1, 50, 75
4, 19769, Note_on_c, 1, 50, 0
4, 19776, Note_on_c, 1, 52, 75
4, 19865, Note_on_c, 1, 52, 0
4, 19872, Note_on_c, 1, 52, 75
4, 19961, Note_on_c, 1, 52, 0
4, 19968, Note_on_c, 1, 52, 75
4, 19968, Note_on_c, 1, 49, 75
4, 19968, Note_on_c, 1, 45, 75
4, 20057, Note_on_c, 1, 52, 0
4, 20057, Note_on_c, 1, 49, 0
4, 20057, Note_on_c, 1, 45, 0
4, 20256, Note_on_c, 1, 52, 75
4, 20256, Note_on_c, 1, 47, 75
4, 20256, Note_on_c, 1, 44, 75
4, 20345, Note_on_c, 1, 52, 0
4, 20345, Note_on_c, 1, 47, 0
4, 20345, Note_on_c, 1, 44, 0
4, 20592, Note_on_c, 1, 45, 75
4, 20637, Note_on_c, 1, 45, 0
4, 20640, Note_on_c, 1, 49, 75
4, 20685, Note_on_c, 1, 49, 0
4, 20688, Note_on_c, 1, 52, 75
4, 20733, Note_on_c, 1, 52, 0
4, 20736, Note_on_c, 1, 57, 75
4, 20756, Note_on_c, 1, 57, 0
4, 20784, Note_on_c, 1, 57, 75
4, 20804, Note_on_c, 1, 57, 0
4, 20832, Note_on_c, 1, 56, 75
4, 20877, Note_on_c, 1, 56, 0
4, 20880, Note_on_c, 1, 52, 75
4, 20925, Note_on_c, 1, 52, 0
4, 20928, Note_on_c, 1, 56, 75
4, 20973, Note_on_c, 1, 56, 0
4, 20976, Note_on_c, 1, 59, 75
4, 21021, Note_on_c, 1, 59, 0
4, 21024, Note_on_c, 1, 62, 75
4, 21044, Note_on_c, 1, 62, 0
4, 21072, Note_on_c, 1, 62, 76
4, 21092, Note_on_c, 1, 62, 0
4, 21120, Note_on_c, 1, 61, 76
4, 21165, Note_on_c, 1, 61, 0
4, 21168, Note_on_c, 1, 57, 76
4, 21213, Note_on_c, 1, 57, 0
4, 21216, Note_on_c, 1, 61, 77
4, 21261, Note_on_c, 1, 61, 0
4, 21264, Note_on_c, 1, 64, 77
4, 21309, Note_on_c, 1, 64, 0
4, 21312, Note_on_c, 1, 69, 77
4, 21332, Note_on_c, 1, 69, 0
4, 21360, Note_on_c, 1, 69, 77
4, 21380, Note_on_c, 1, 69, 0
4, 21408, Note_on_c, 1, 68, 78
4, 21453, Note_on_c, 1, 68, 0
4, 21456, Note_on_c, 1, 59, 78
4, 21501, Note_on_c, 1, 59, 0
4, 21504, Note_on_c, 1, 64, 78
4, 21549, Note_on_c, 1, 64, 0
4, 21552, Note_on_c, 1, 68, 79
4, 21597, Note_on_c, 1, 68, 0
4, 21600, Note_on_c, 1, 71, 79
4, 21620, Note_on_c, 1, 71, 0
4, 21648, Note_on_c, 1, 71, 79
4, 21668, Note_on_c, 1, 71, 0
4, 21696, Note_on_c, 1, 69, 80
4, 21785, Note_on_c, 1, 69, 0
4, 21984, Note_on_c, 1, 62, 80
4, 22007, Note_on_c, 1, 62, 0
4, 22008, Note_on_c, 1, 61, 80
4, 22031, Note_on_c, 1, 61, 0
4, 22032, Note_on_c, 1, 62, 80
4, 22055, Note_on_c, 1, 62, 0
4, 22056, Note_on_c, 1, 64, 80
4, 22079, Note_on_c, 1, 64, 0
4, 22080, Note_on_c, 1, 66, 80
4, 22103, Note_on_c, 1, 66, 0
4, 22104, Note_on_c, 1, 64, 80
4, 22127, Note_on_c, 1, 64, 0
4, 22128, Note_on_c, 1, 62, 80
4, 22151, Note_on_c, 1, 62, 0
4, 22152, Note_on_c, 1, 61, 80
4, 22175, Note_on_c, 1, 61, 0
4, 22176, Note_on_c, 1, 62, 80
4, 22199, Note_on_c, 1, 62, 0
4, 22200, Note_on_c, 1, 61, 80
4, 22223, Note_on_c, 1, 61, 0
4, 22224, Note_on_c, 1, 59, 80
4, 22247, Note_on_c, 1, 59, 0
4, 22248, Note_on_c, 1, 57, 80
4, 22271, Note_on_c, 1, 57, 0
4, 22272, Note_on_c, 1, 59, 80
4, 22361, Note_on_c, 1, 59, 0
4, 22560, Note_on_c, 1, 44, 80
4, 22583, Note_on_c, 1, 44, 0
4, 22584, Note_on_c, 1, 40, 80
4, 22607, Note_on_c, 1, 40, 0
4, 22608, Note_on_c, 1, 42, 80
4, 22631, Note_on_c, 1, 42, 0
4, 22632, Note_on_c, 1, 44, 80
4, 22655, Note_on_c, 1, 44, 0
4, 22656, Note_on_c, 1, 45, 80
4, 22679, Note_on_c, 1, 45, 0
4, 22680, Note_on_c, 1, 47, 80
4, 22703, Note_on_c, 1, 47, 0
4, 22704, Note_on_c, 1, 49, 80
4, 22727, Note_on_c, 1, 49, 0
4, 22728, Note_on_c, 1, 51, 80
4, 22751, Note_on_c, 1, 51, 0
4, 22752, Note_on_c, 1, 52, 80
4, 22752, Note_on_c, 1, 40, 80
4, 22772, Note_on_c, 1, 52, 0
4, 22772, Note_on_c, 1, 40, 0
4, 22800, Note_on_c, 1, 38, 80
4, 22820, Note_on_c, 1, 38, 0
4, 22848, Note_on_c, 1, 37, 80
4, 22868, Note_on_c, 1, 37, 0
4, 22896, Note_on_c, 1, 35, 80
4, 22916, Note_on_c, 1, 35, 0
4, 22944, Note_on_c, 1, 37, 96
4, 23040, Note_on_c, 1, 37, 0
4, 23040, Note_on_c, 1, 57, 80
4, 23063, Note_on_c, 1, 57, 0
4, 23064, Note_on_c, 1, 56, 80
4, 23087, Note_on_c, 1, 56, 0
4, 23088, Note_on_c, 1, 57, 80
4, 23111, Note_on_c, 1, 57, 0
4, 23112, Note_on_c, 1, 56, 80
4, 23135, Note_on_c, 1, 56, 0
4, 23136, Note_on_c, 1, 57, 96
4, 23160, Note_on_c, 1, 57, 0
4, 23160, Note_on_c, 1, 56, 80
4, 23183, Note_on_c, 1, 56, 0
4, 23184, Note_on_c, 1, 57, 80
4, 23207, Note_on_c, 1, 57, 0
4, 23208, Note_on_c, 1, 56, 80
4, 23231, Note_on_c, 1, 56, 0
4, 23232, Note_on_c, 1, 57, 80
4, 23255, Note_on_c, 1, 57, 0
4, 23256, Note_on_c, 1, 56, 80
4, 23279, Note_on_c, 1, 56, 0
4, 23280, Note_on_c, 1, 54, 80
4, 23303, Note_on_c, 1, 54, 0
4, 23304, Note_on_c, 1, 52, 80
4, 23327, Note_on_c, 1, 52, 0
4, 23328, Note_on_c, 1, 50, 80
4, 23351, Note_on_c, 1, 50, 0
4, 23352, Note_on_c, 1, 49, 80
4, 23375, Note_on_c, 1, 49, 0
4, 23376, Note_on_c, 1, 47, 80
4, 23399, Note_on_c, 1, 47, 0
4, 23400, Note_on_c, 1, 45, 80
4, 23423, Note_on_c, 1, 45, 0
4, 23424, Note_on_c, 1, 52, 80
4, 23424, Note_on_c, 1, 47, 80
4, 23424, Note_on_c, 1, 44, 80
4, 23424, Note_on_c, 1, 40, 80
4, 23689, Note_on_c, 1, 52, 0
4, 23689, Note_on_c, 1, 47, 0
4, 23689, Note_on_c, 1, 44, 0
4, 23689, Note_on_c, 1, 40, 0
4, 24000, Note_on_c, 1, 57, 75
4, 24045, Note_on_c, 1, 57, 0
4, 24048, Note_on_c, 1, 56, 75
4, 24093, Note_on_c, 1, 56, 0
4, 24096, Note_on_c, 1, 54, 75
4, 24141, Note_on_c, 1, 54, 0
4, 24144, Note_on_c, 1, 52, 75
4, 24189, Note_on_c, 1, 52, 0
4, 24192, Note_on_c, 1, 50, 75
4, 24237, Note_on_c, 1, 50, 0
4, 24240, Note_on_c, 1, 49, 75
4, 24285, Note_on_c, 1, 49, 0
4, 24288, Note_on_c, 1, 47, 75
4, 24333, Note_on_c, 1, 47, 0
4, 24336, Note_on_c, 1, 52, 75
4, 24381, Note_on_c, 1, 52, 0
4, 24384, Note_on_c, 1, 50, 75
4, 24429, Note_on_c, 1, 50, 0
4, 24432, Note_on_c, 1, 49, 75
4, 24477, Note_on_c, 1, 49, 0
4, 24480, Note_on_c, 1, 47, 75
4, 24525, Note_on_c, 1, 47, 0
4, 24528, Note_on_c, 1, 45, 75
4, 24573, Note_on_c, 1, 45, 0
4, 24576, Note_on_c, 1, 47, 75
4, 24621, Note_on_c, 1, 47, 0
4, 24624, Note_on_c, 1, 45, 75
4, 24669, Note_on_c, 1, 45, 0
4, 24672, Note_on_c, 1, 44, 75
4, 24717, Note_on_c, 1, 44, 0
4, 24720, Note_on_c, 1, 42, 75
4, 24765, Note_on_c, 1, 42, 0
4, 24768, Note_on_c, 1, 40, 75
4, 24813, Note_on_c, 1, 40, 0
4, 24816, Note_on_c, 1, 38, 75
4, 24861, Note_on_c, 1, 38, 0
4, 24864, Note_on_c, 1, 37, 75
4, 24909, Note_on_c, 1, 37, 0
4, 24912, Note_on_c, 1, 35, 75
4, 24957, Note_on_c, 1, 35, 0
4, 24960, Note_on_c, 1, 33, 75
4, 24980, Note_on_c, 1, 33, 0
4, 25008, Note_on_c, 1, 68, 64
4, 25008, Note_on_c, 1, 64, 64
4, 25053, Note_on_c, 1, 68, 0
4, 25053, Note_on_c, 1, 64, 0
4, 25056, Note_on_c, 1, 69, 64
4, 25056, Note_on_c, 1, 66, 64
4, 25101, Note_on_c, 1, 69, 0
4, 25101, Note_on_c, 1, 66, 0
4, 25104, Note_on_c, 1, 71, 64
4, 25104, Note_on_c, 1, 68, 64
4, 25149, Note_on_c, 1, 71, 0
4, 25149, Note_on_c, 1, 68, 0
4, 25152, Note_on_c, 1, 73, 64
4, 25152, Note_on_c, 1, 69, 64
4, 25241, Note_on_c, 1, 73, 0
4, 25241, Note_on_c, 1, 69, 0
4, 25392, Note_on_c, 1, 64, 64
4, 25392, Note_on_c, 1, 61, 64
4, 25440, Note_on_c, 1, 64, 0
4, 25440, Note_on_c, 1, 61, 0
4, 25440, Note_on_c, 1, 66, 64
4, 25440, Note_on_c, 1, 62, 64
4, 25529, Note_on_c, 1, 66, 0
4, 25529, Note_on_c, 1, 62, 0
4, 25536, Note_on_c, 1, 64, 64
4, 25625, Note_on_c, 1, 64, 0
4, 25632, Note_on_c, 1, 52, 64
4, 25721, Note_on_c, 1, 52, 0
4, 25728, Note_on_c, 1, 57, 64
4, 25817, Note_on_c, 1, 57, 0
4, 25968, Note_on_c, 1, 64, 64
4, 25968, Note_on_c, 1, 61, 64
4, 26016, Note_on_c, 1, 64, 0
4, 26016, Note_on_c, 1, 61, 0
4, 26016, Note_on_c, 1, 66, 64
4, 26016, Note_on_c, 1, 62, 64
4, 26105, Note_on_c, 1, 66, 0
4, 26105, Note_on_c, 1, 62, 0
4, 26112, Note_on_c, 1, 64, 64
4, 26201, Note_on_c, 1, 64, 0
4, 26208, Note_on_c, 1, 52, 64
4, 26297, Note_on_c, 1, 52, 0
4, 26304, Note_on_c, 1, 57, 75
4, 26352, Note_on_c, 1, 57, 0
4, 26352, Note_on_c, 1, 56, 75
4, 26397, Note_on_c, 1, 56, 0
4, 26400, Note_on_c, 1, 54, 75
4, 26445, Note_on_c, 1, 54, 0
4, 26448, Note_on_c, 1, 52, 75
4, 26493, Note_on_c, 1, 52, 0
4, 26496, Note_on_c, 1, 54, 75
4, 26541, Note_on_c, 1, 54, 0
4, 26544, Note_on_c, 1, 52, 75
4, 26589, Note_on_c, 1, 52, 0
4, 26592, Note_on_c, 1, 50, 75
4, 26640, Note_on_c, 1, 50, 0
4, 26640, Note_on_c, 1, 54, 75
4, 26685, Note_on_c, 1, 54, 0
4, 26688, Note_on_c, 1, 52, 75
4, 26733, Note_on_c, 1, 52, 0
4, 26736, Note_on_c, 1, 50, 75
4, 26781, Note_on_c, 1, 50, 0
4, 26784, Note_on_c, 1, 52, 75
4, 26829, Note_on_c, 1, 52, 0
4, 26832, Note_on_c, 1, 50, 75
4, 26877, Note_on_c, 1, 50, 0
4, 26880, Note_on_c, 1, 49, 75
4, 26928, Note_on_c, 1, 49, 0
4, 26928, Note_on_c, 1, 52, 75
4, 26973, Note_on_c, 1, 52, 0
4, 26976, Note_on_c, 1, 50, 75
4, 27021, Note_on_c, 1, 50, 0
4, 27024, Note_on_c, 1, 49, 75
4, 27069, Note_on_c, 1, 49, 0
4, 27072, Note_on_c, 1, 50, 75
4, 27117, Note_on_c, 1, 50, 0
4, 27120, Note_on_c, 1, 49, 75
4, 27165, Note_on_c, 1, 49, 0
4, 27168, Note_on_c, 1, 47, 75
4, 27216, Note_on_c, 1, 47, 0
4, 27216, Note_on_c, 1, 50, 75
4, 27261, Note_on_c, 1, 50, 0
4, 27264, Note_on_c, 1, 49, 75
4, 27309, Note_on_c, 1, 49, 0
4, 27312, Note_on_c, 1, 47, 75
4, 27357, Note_on_c, 1, 47, 0
4, 27360, Note_on_c, 1, 49, 75
4, 27405, Note_on_c, 1, 49, 0
4, 27408, Note_on_c, 1, 47, 75
4, 27453, Note_on_c, 1, 47, 0
4, 27456, Note_on_c, 1, 45, 75
4, 27504, Note_on_c, 1, 45, 0
4, 27504, Note_on_c, 1, 49, 75
4, 27549, Note_on_c, 1, 49, 0
4, 27552, Note_on_c, 1, 47, 75
4, 27597, Note_on_c, 1, 47, 0
4, 27600, Note_on_c, 1, 45, 75
4, 27645, Note_on_c, 1, 45, 0
4, 27648, Note_on_c, 1, 47, 75
4, 27693, Note_on_c, 1, 47, 0
4, 27696, Note_on_c, 1, 45, 75
4, 27741, Note_on_c, 1, 45, 0
4, 27744, Note_on_c, 1, 44, 75
4, 27783, Note_on_c, 1, 44, 0
4, 27840, Note_on_c, 1, 44, 75
4, 27885, Note_on_c, 1, 44, 0
4, 27888, Note_on_c, 1, 40, 75
4, 27933, Note_on_c, 1, 40, 0
4, 27936, Note_on_c, 1, 42, 75
4, 27981, Note_on_c, 1, 42, 0
4, 27984, Note_on_c, 1, 44, 75
4, 28029, Note_on_c, 1, 44, 0
4, 28032, Note_on_c, 1, 45, 75
4, 28071, Note_on_c, 1, 45, 0
4, 28128, Note_on_c, 1, 50, 91
4, 28224, Note_on_c, 1, 50, 0
4, 28224, Note_on_c, 1, 49, 75
4, 28313, Note_on_c, 1, 49, 0
4, 28320, Note_on_c, 1, 50, 75
4, 28409, Note_on_c, 1, 50, 0
4, 28416, Note_on_c, 1, 52, 75
4, 28505, Note_on_c, 1, 52, 0
4, 28512, Note_on_c, 1, 52, 75
4, 28601, Note_on_c, 1, 52, 0
4, 28608, Note_on_c, 1, 52, 80
4, 28608, Note_on_c, 1, 48, 80
4, 28608, Note_on_c, 1, 45, 80
4, 28697, Note_on_c, 1, 52, 0
4, 28697, Note_on_c, 1, 48, 0
4, 28697, Note_on_c, 1, 45, 0
4, 28896, Note_on_c, 1, 52, 80
4, 28896, Note_on_c, 1, 47, 80
4, 28896, Note_on_c, 1, 44, 80
4, 28985, Note_on_c, 1, 52, 0
4, 28985, Note_on_c, 1, 47, 0
4, 28985, Note_on_c, 1, 44, 0
4, 29184, Note_on_c, 1, 52, 80
4, 29184, Note_on_c, 1, 48, 80
4, 29184, Note_on_c, 1, 45, 80
4, 29273, Note_on_c, 1, 52, 0
4, 29273, Note_on_c, 1, 48, 0
4, 29273, Note_on_c, 1, 45, 0
4, 29472, Note_on_c, 1, 52, 80
4, 29472, Note_on_c, 1, 47, 80
4, 29472, Note_on_c, 1, 44, 80
4, 29561, Note_on_c, 1, 52, 0
4, 29561, Note_on_c, 1, 47, 0
4, 29561, Note_on_c, 1, 44, 0
4, 29760, Note_on_c, 1, 69, 64
4, 29805, Note_on_c, 1, 69, 0
4, 29808, Note_on_c, 1, 76, 64
4, 29853, Note_on_c, 1, 76, 0
4, 29856, Note_on_c, 1, 72, 64
4, 29901, Note_on_c, 1, 72, 0
4, 29904, Note_on_c, 1, 76, 64
4, 29949, Note_on_c, 1, 76, 0
4, 29952, Note_on_c, 1, 69, 64
4, 29997, Note_on_c, 1, 69, 0
4, 30000, Note_on_c, 1, 76, 64
4, 30045, Note_on_c, 1, 76, 0
4, 30048, Note_on_c, 1, 68, 64
4, 30093, Note_on_c, 1, 68, 0
4, 30096, Note_on_c, 1, 76, 64
4, 30141, Note_on_c, 1, 76, 0
4, 30144, Note_on_c, 1, 74, 64
4, 30189, Note_on_c, 1, 74, 0
4, 30192, Note_on_c, 1, 76, 64
4, 30237, Note_on_c, 1, 76, 0
4, 30240, Note_on_c, 1, 68, 64
4, 30285, Note_on_c, 1, 68, 0
4, 30288, Note_on_c, 1, 76, 64
4, 30333, Note_on_c, 1, 76, 0
4, 30336, Note_on_c, 1, 69, 64
4, 30381, Note_on_c, 1, 69, 0
4, 30384, Note_on_c, 1, 76, 65
4, 30429, Note_on_c, 1, 76, 0
4, 30432, Note_on_c, 1, 72, 66
4, 30477, Note_on_c, 1, 72, 0
4, 30480, Note_on_c, 1, 76, 67
4, 30525, Note_on_c, 1, 76, 0
4, 30528, Note_on_c, 1, 69, 68
4, 30573, Note_on_c, 1, 69, 0
4, 30576, Note_on_c, 1, 76, 69
4, 30621, Note_on_c, 1, 76, 0
4, 30624, Note_on_c, 1, 67, 70
4, 30669, Note_on_c, 1, 67, 0
4, 30672, Note_on_c, 1, 74, 70
4, 30717, Note_on_c, 1, 74, 0
4, 30720, Note_on_c, 1, 71, 70
4, 30765, Note_on_c, 1, 71, 0
4, 30768, Note_on_c, 1, 74, 70
4, 30813, Note_on_c, 1, 74, 0
4, 30816, Note_on_c, 1, 67, 70
4, 30861, Note_on_c, 1, 67, 0
4, 30864, Note_on_c, 1, 74, 70
4, 30909, Note_on_c, 1, 74, 0
4, 30912, Note_on_c, 1, 60, 89
4, 30912, Note_on_c, 1, 55, 89
4, 30912, Note_on_c, 1, 52, 89
4, 30912, Note_on_c, 1, 48, 89
4, 31001, Note_on_c, 1, 60, 0
4, 31001, Note_on_c, 1, 55, 0
4, 31001, Note_on_c, 1, 52, 0
4, 31001, Note_on_c, 1, 48, 0
4, 31200, Note_on_c, 1, 58, 89
4, 31200, Note_on_c, 1, 53, 89
4, 31200, Note_on_c, 1, 50, 89
4, 31200, Note_on_c, 1, 46, 89
4, 31289, Note_on_c, 1, 58, 0
4, 31289, Note_on_c, 1, 53, 0
4, 31289, Note_on_c, 1, 50, 0
4, 31289, Note_on_c, 1, 46, 0
4, 31488, Note_on_c, 1, 56, 89
4, 31488, Note_on_c, 1, 44, 89
4, 31577, Note_on_c, 1, 56, 0
4, 31577, Note_on_c, 1, 44, 0
4, 31776, Note_on_c, 1, 55, 89
4, 31776, Note_on_c, 1, 43, 89
4, 31865, Note_on_c, 1, 55, 0
4, 31865, Note_on_c, 1, 43, 0
4, 32064, Note_on_c, 1, 53, 89
4, 32064, Note_on_c, 1, 41, 89
4, 32153, Note_on_c, 1, 53, 0
4, 32153, Note_on_c, 1, 41, 0
4, 32352, Note_on_c, 1, 64, 70
4, 32352, Note_on_c, 1, 52, 70
4, 32529, Note_on_c, 1, 64, 0
4, 32529, Note_on_c, 1, 52, 0
4, 32640, Note_on_c, 1, 64, 70
4, 32640, Note_on_c, 1, 52, 70
4, 32817, Note_on_c, 1, 64, 0
4, 32817, Note_on_c, 1, 52, 0
4, 32928, Note_on_c, 1, 64, 70
4, 32928, Note_on_c, 1, 52, 70
4, 33017, Note_on_c, 1, 64, 0
4, 33017, Note_on_c, 1, 52, 0
4, 33072, Note_on_c, 1, 48, 70
4, 33117, Note_on_c, 1, 48, 0
4, 33120, Note_on_c, 1, 50, 70
4, 33209, Note_on_c, 1, 50, 0
4, 33216, Note_on_c, 1, 52, 70
4, 33305, Note_on_c, 1, 52, 0
4, 33312, Note_on_c, 1, 52, 70
4, 33401, Note_on_c, 1, 52, 0
4, 33408, Note_on_c, 1, 45, 70
4, 33497, Note_on_c, 1, 45, 0
4, 33504, Note_on_c, 1, 57, 68
4, 33504, Note_on_c, 1, 53, 68
4, 33504, Note_on_c, 1, 50, 68
4, 33593, Note_on_c, 1, 57, 0
4, 33593, Note_on_c, 1, 53, 0
4, 33593, Note_on_c, 1, 50, 0
4, 33600, Note_on_c, 1, 57, 67
4, 33600, Note_on_c, 1, 52, 67
4, 33689, Note_on_c, 1, 57, 0
4, 33689, Note_on_c, 1, 52, 0
4, 33696, Note_on_c, 1, 56, 65
4, 33696, Note_on_c, 1, 52, 65
4, 33785, Note_on_c, 1, 56, 0
4, 33785, Note_on_c, 1, 52, 0
4, 33792, Note_on_c, 1, 57, 64
4, 33881, Note_on_c, 1, 57, 0
4, 33936, Note_on_c, 1, 52, 64
4, 33936, Note_on_c, 1, 48, 64
4, 33981, Note_on_c, 1, 52, 0
4, 33981, Note_on_c, 1, 48, 0
4, 33984, Note_on_c, 1, 54, 64
4, 33984, Note_on_c, 1, 50, 64
4, 34029, Note_on_c, 1, 54, 0
4, 34029, Note_on_c, 1, 50, 0
4, 34032, Note_on_c, 1, 56, 64
4, 34032, Note_on_c, 1, 52, 64
4, 34077, Note_on_c, 1, 56, 0
4, 34077, Note_on_c, 1, 52, 0
4, 34080, Note_on_c, 1, 57, 64
4, 34080, Note_on_c, 1, 45, 64
4, 34169, Note_on_c, 1, 57, 0
4, 34169, Note_on_c, 1, 45, 0
4, 34272, Note_on_c, 1, 48, 64
4, 34272, Note_on_c, 1, 36, 64
4, 34361, Note_on_c, 1, 48, 0
4, 34361, Note_on_c, 1, 36, 0
4, 34368, Note_on_c, 1, 50, 64
4, 34368, Note_on_c, 1, 38, 64
4, 34457, Note_on_c, 1, 50, 0
4, 34457, Note_on_c, 1, 38, 0
4, 34464, Note_on_c, 1, 52, 64
4, 34464, Note_on_c, 1, 40, 64
4, 34553, Note_on_c, 1, 52, 0
4, 34553, Note_on_c, 1, 40, 0
4, 34560, Note_on_c, 1, 52, 64
4, 34560, Note_on_c, 1, 40, 64
4, 34649, Note_on_c, 1, 52, 0
4, 34649, Note_on_c, 1, 40, 0
4, 34656, Note_on_c, 1, 45, 64
4, 34745, Note_on_c, 1, 45, 0
4, 34848, Note_on_c, 1, 52, 80
4, 34866, Note_on_c, 1, 52, 0
4, 34866, Note_on_c, 1, 51, 80
4, 34884, Note_on_c, 1, 51, 0
4, 34884, Note_on_c, 1, 52, 80
4, 34989, Note_on_c, 1, 52, 0
4, 34992, Note_on_c, 1, 50, 80
4, 35037, Note_on_c, 1, 50, 0
4, 35040, Note_on_c, 1, 48, 80
4, 35085, Note_on_c, 1, 48, 0
4, 35088, Note_on_c, 1, 47, 80
4, 35133, Note_on_c, 1, 47, 0
4, 35136, Note_on_c, 1, 45, 80
4, 35181, Note_on_c, 1, 45, 0
4, 35184, Note_on_c, 1, 44, 80
4, 35229, Note_on_c, 1, 44, 0
4, 35232, Note_on_c, 1, 45, 80
4, 35325, Note_on_c, 1, 45, 0
4, 35328, Note_on_c, 1, 65, 75
4, 35373, Note_on_c, 1, 65, 0
4, 35376, Note_on_c, 1, 64, 75
4, 35421, Note_on_c, 1, 64, 0
4, 35424, Note_on_c, 1, 65, 75
4, 35469, Note_on_c, 1, 65, 0
4, 35472, Note_on_c, 1, 64, 75
4, 35517, Note_on_c, 1, 64, 0
4, 35520, Note_on_c, 1, 62, 75
4, 35565, Note_on_c, 1, 62, 0
4, 35568, Note_on_c, 1, 65, 75
4, 35613, Note_on_c, 1, 65, 0
4, 35616, Note_on_c, 1, 64, 75
4, 35661, Note_on_c, 1, 64, 0
4, 35664, Note_on_c, 1, 62, 75
4, 35709, Note_on_c, 1, 62, 0
4, 35712, Note_on_c, 1, 64, 75
4, 35757, Note_on_c, 1, 64, 0
4, 35760, Note_on_c, 1, 62, 75
4, 35805, Note_on_c, 1, 62, 0
4, 35808, Note_on_c, 1, 61, 75
4, 35853, Note_on_c, 1, 61, 0
4, 35856, Note_on_c, 1, 64, 75
4, 35901, Note_on_c, 1, 64, 0
4, 35904, Note_on_c, 1, 62, 75
4, 35949, Note_on_c, 1, 62, 0
4, 35952, Note_on_c, 1, 61, 75
4, 35997, Note_on_c, 1, 61, 0
4, 36000, Note_on_c, 1, 62, 75
4, 36045, Note_on_c, 1, 62, 0
4, 36048, Note_on_c, 1, 60, 75
4, 36093, Note_on_c, 1, 60, 0
4, 36096, Note_on_c, 1, 59, 75
4, 36141, Note_on_c, 1, 59, 0
4, 36144, Note_on_c, 1, 62, 75
4, 36189, Note_on_c, 1, 62, 0
4, 36192, Note_on_c, 1, 60, 75
4, 36237, Note_on_c, 1, 60, 0
4, 36240, Note_on_c, 1, 59, 75
4, 36285, Note_on_c, 1, 59, 0
4, 36288, Note_on_c, 1, 60, 75
4, 36333, Note_on_c, 1, 60, 0
4, 36336, Note_on_c, 1, 58, 75
4, 36381, Note_on_c, 1, 58, 0
4, 36384, Note_on_c, 1, 57, 75
4, 36429, Note_on_c, 1, 57, 0
4, 36432, Note_on_c, 1, 60, 75
4, 36477, Note_on_c, 1, 60, 0
4, 36480, Note_on_c, 1, 58, 76
4, 36525, Note_on_c, 1, 58, 0
4, 36528, Note_on_c, 1, 57, 77
4, 36573, Note_on_c, 1, 57, 0
4, 36576, Note_on_c, 1, 58, 78
4, 36621, Note_on_c, 1, 58, 0
4, 36624, Note_on_c, 1, 57, 79
4, 36669, Note_on_c, 1, 57, 0
4, 36672, Note_on_c, 1, 56, 80
4, 36761, Note_on_c, 1, 56, 0
4, 36768, Note_on_c, 1, 56, 99
4, 36768, Note_on_c, 1, 44, 99
4, 36901, Note_on_c, 1, 56, 0
4, 36901, Note_on_c, 1, 44, 0
4, 36960, Note_on_c, 1, 57, 80
4, 36960, Note_on_c, 1, 45, 80
4, 37049, Note_on_c, 1, 57, 0
4, 37049, Note_on_c, 1, 45, 0
4, 37056, Note_on_c, 1, 51, 99
4, 37056, Note_on_c, 1, 39, 99
4, 37233, Note_on_c, 1, 51, 0
4, 37233, Note_on_c, 1, 39, 0
4, 37344, Note_on_c, 1, 54, 75
4, 37389, Note_on_c, 1, 54, 0
4, 37392, Note_on_c, 1, 52, 75
4, 37437, Note_on_c, 1, 52, 0
4, 37440, Note_on_c, 1, 54, 75
4, 37485, Note_on_c, 1, 54, 0
4, 37488, Note_on_c, 1, 52, 75
4, 37533, Note_on_c, 1, 52, 0
4, 37536, Note_on_c, 1, 50, 75
4, 37584, Note_on_c, 1, 50, 0
4, 37584, Note_on_c, 1, 54, 75
4, 37629, Note_on_c, 1, 54, 0
4, 37632, Note_on_c, 1, 52, 75
4, 37677, Note_on_c, 1, 52, 0
4, 37680, Note_on_c, 1, 50, 75
4, 37725, Note_on_c, 1, 50, 0
4, 37728, Note_on_c, 1, 52, 75
4, 37773, Note_on_c, 1, 52, 0
4, 37776, Note_on_c, 1, 50, 75
4, 37821, Note_on_c, 1, 50, 0
4, 37824, Note_on_c, 1, 49, 75
4, 37872, Note_on_c, 1, 49, 0
4, 37872, Note_on_c, 1, 52, 75
4, 37917, Note_on_c, 1, 52, 0
4, 37920, Note_on_c, 1, 50, 75
4, 37965, Note_on_c, 1, 50, 0
4, 37968, Note_on_c, 1, 49, 75
4, 38013, Note_on_c, 1, 49, 0
4, 38016, Note_on_c, 1, 50, 75
4, 38061, Note_on_c, 1, 50, 0
4, 38064, Note_on_c, 1, 49, 75
4, 38109, Note_on_c, 1, 49, 0
4, 38112, Note_on_c, 1, 47, 75
4, 38160, Note_on_c, 1, 47, 0
4, 38160, Note_on_c, 1, 50, 75
4, 38205, Note_on_c, 1, 50, 0
4, 38208, Note_on_c, 1, 49, 75
4, 38253, Note_on_c, 1, 49, 0
4, 38256, Note_on_c, 1, 47, 75
4, 38301, Note_on_c, 1, 47, 0
4, 38304, Note_on_c, 1, 49, 75
4, 38349, Note_on_c, 1, 49, 0
4, 38352, Note_on_c, 1, 47, 75
4, 38397, Note_on_c, 1, 47, 0
4, 38400, Note_on_c, 1, 46, 75
4, 38448, Note_on_c, 1, 46, 0
4, 38448, Note_on_c, 1, 49, 75
4, 38493, Note_on_c, 1, 49, 0
4, 38496, Note_on_c, 1, 47, 75
4, 38541, Note_on_c, 1, 47, 0
4, 38544, Note_on_c, 1, 45, 75
4, 38589, Note_on_c, 1, 45, 0
4, 38592, Note_on_c, 1, 47, 75
4, 38637, Note_on_c, 1, 47, 0
4, 38640, Note_on_c, 1, 45, 75
4, 38685, Note_on_c, 1, 45, 0
4, 38688, Note_on_c, 1, 44, 75
4, 38727, Note_on_c, 1, 44, 0
4, 38784, Note_on_c, 1, 44, 75
4, 38804, Note_on_c, 1, 44, 0
4, 38832, Note_on_c, 1, 40, 75
4, 38852, Note_on_c, 1, 40, 0
4, 38880, Note_on_c, 1, 42, 75
4, 38900, Note_on_c, 1, 42, 0
4, 38928, Note_on_c, 1, 44, 75
4, 38948, Note_on_c, 1, 44, 0
4, 38976, Note_on_c, 1, 45, 75
4, 39015, Note_on_c, 1, 45, 0
4, 39072, Note_on_c, 1, 50, 91
4, 39168, Note_on_c, 1, 50, 0
4, 39168, Note_on_c, 1, 49, 75
4, 39257, Note_on_c, 1, 49, 0
4, 39264, Note_on_c, 1, 50, 75
4, 39353, Note_on_c, 1, 50, 0
4, 39360, Note_on_c, 1, 52, 75
4, 39449, Note_on_c, 1, 52, 0
4, 39456, Note_on_c, 1, 40, 75
4, 39545, Note_on_c, 1, 40, 0
4, 39552, Note_on_c, 1, 52, 70
4, 39552, Note_on_c, 1, 49, 70
4, 39552, Note_on_c, 1, 45, 70
4, 39641, Note_on_c, 1, 52, 0
4, 39641, Note_on_c, 1, 49, 0
4, 39641, Note_on_c, 1, 45, 0
4, 39840, Note_on_c, 1, 52, 70
4, 39840, Note_on_c, 1, 47, 70
4, 39840, Note_on_c, 1, 44, 70
4, 39929, Note_on_c, 1, 52, 0
4, 39929, Note_on_c, 1, 47, 0
4, 39929, Note_on_c, 1, 44, 0
4, 40128, Note_on_c, 1, 45, 80
4, 40151, Note_on_c, 1, 45, 0
4, 40152, Note_on_c, 1, 52, 80
4, 40175, Note_on_c, 1, 52, 0
4, 40176, Note_on_c, 1, 49, 80
4, 40199, Note_on_c, 1, 49, 0
4, 40200, Note_on_c, 1, 52, 80
4, 40223, Note_on_c, 1, 52, 0
4, 40224, Note_on_c, 1, 45, 80
4, 40247, Note_on_c, 1, 45, 0
4, 40248, Note_on_c, 1, 52, 80
4, 40271, Note_on_c, 1, 52, 0
4, 40272, Note_on_c, 1, 49, 80
4, 40295, Note_on_c, 1, 49, 0
4, 40296, Note_on_c, 1, 52, 80
4, 40319, Note_on_c, 1, 52, 0
4, 40320, Note_on_c, 1, 45, 80
4, 40343, Note_on_c, 1, 45, 0
4, 40344, Note_on_c, 1, 52, 80
4, 40367, Note_on_c, 1, 52, 0
4, 40368, Note_on_c, 1, 49, 80
4, 40391, Note_on_c, 1, 49, 0
4, 40392, Note_on_c, 1, 52, 80
4, 40415, Note_on_c, 1, 52, 0
4, 40416, Note_on_c, 1, 44, 80
4, 40439, Note_on_c, 1, 44, 0
4, 40440, Note_on_c, 1, 52, 80
4, 40463, Note_on_c, 1, 52, 0
4, 40464, Note_on_c, 1, 47, 80
4, 40487, Note_on_c, 1, 47, 0
4, 40488, Note_on_c, 1, 52, 80
4, 40511, Note_on_c, 1, 52, 0
4, 40512, Note_on_c, 1, 44, 80
4, 40535, Note_on_c, 1, 44, 0
4, 40536, Note_on_c, 1, 52, 80
4, 40559, Note_on_c, 1, 52, 0
4, 40560, Note_on_c, 1, 47, 80
4, 40583, Note_on_c, 1, 47, 0
4, 40584, Note_on_c, 1, 52, 80
4, 40607, Note_on_c, 1, 52, 0
4, 40608, Note_on_c, 1, 44, 80
4, 40631, Note_on_c, 1, 44, 0
4, 40632, Note_on_c, 1, 52, 80
4, 40655, Note_on_c, 1, 52, 0
4, 40656, Note_on_c, 1, 47, 80
4, 40679, Note_on_c, 1, 47, 0
4, 40680, Note_on_c, 1, 52, 80
4, 40703, Note_on_c, 1, 52, 0
4, 40704, Note_on_c, 1, 45, 80
4, 40727, Note_on_c, 1, 45, 0
4, 40728, Note_on_c, 1, 52, 80
4, 40751, Note_on_c, 1, 52, 0
4, 40752, Note_on_c, 1, 49, 80
4, 40775, Note_on_c, 1, 49, 0
4, 40776, Note_on_c, 1, 52, 80
4, 40799, Note_on_c, 1, 52, 0
4, 40800, Note_on_c, 1, 45, 80
4, 40823, Note_on_c, 1, 45, 0
4, 40824, Note_on_c, 1, 52, 80
4, 40847, Note_on_c, 1, 52, 0
4, 40848, Note_on_c, 1, 49, 80
4, 40871, Note_on_c, 1, 49, 0
4, 40872, Note_on_c, 1, 52, 80
4, 40895, Note_on_c, 1, 52, 0
4, 40896, Note_on_c, 1, 46, 80
4, 40919, Note_on_c, 1, 46, 0
4, 40920, Note_on_c, 1, 54, 80
4, 40943, Note_on_c, 1, 54, 0
4, 40944, Note_on_c, 1, 49, 80
4, 40967, Note_on_c, 1, 49, 0
4, 40968, Note_on_c, 1, 54, 80
4, 40991, Note_on_c, 1, 54, 0
4, 40992, Note_on_c, 1, 47, 80
4, 41015, Note_on_c, 1, 47, 0
4, 41016, Note_on_c, 1, 54, 80
4, 41039, Note_on_c, 1, 54, 0
4, 41040, Note_on_c, 1, 51, 80
4, 41063, Note_on_c, 1, 51, 0
4, 41064, Note_on_c, 1, 54, 80
4, 41087, Note_on_c, 1, 54, 0
4, 41088, Note_on_c, 1, 47, 80
4, 41111, Note_on_c, 1, 47, 0
4, 41112, Note_on_c, 1, 54, 80
4, 41135, Note_on_c, 1, 54, 0
4, 41136, Note_on_c, 1, 51, 80
4, 41159, Note_on_c, 1, 51, 0
4, 41160, Note_on_c, 1, 54, 80
4, 41183, Note_on_c, 1, 54, 0
4, 41184, Note_on_c, 1, 45, 80
4, 41207, Note_on_c, 1, 45, 0
4, 41208, Note_on_c, 1, 54, 80
4, 41231, Note_on_c, 1, 54, 0
4, 41232, Note_on_c, 1, 47, 80
4, 41255, Note_on_c, 1, 47, 0
4, 41256, Note_on_c, 1, 51, 80
4, 41279, Note_on_c, 1, 51, 0
4, 41280, Note_on_c, 1, 52, 80
4, 41280, Note_on_c, 1, 47, 80
4, 41280, Note_on_c, 1, 44, 80
4, 41369, Note_on_c, 1, 52, 0
4, 41369, Note_on_c, 1, 47, 0
4, 41369, Note_on_c, 1, 44, 0
4, 41472, Note_on_c, 1, 44, 80
4, 41495, Note_on_c, 1, 44, 0
4, 41496, Note_on_c, 1, 47, 80
4, 41519, Note_on_c, 1, 47, 0
4, 41520, Note_on_c, 1, 52, 80
4, 41543, Note_on_c, 1, 52, 0
4, 41544, Note_on_c, 1, 56, 80
4, 41567, Note_on_c, 1, 56, 0
4, 41568, Note_on_c, 1, 52, 80
4, 41568, Note_on_c, 1, 49, 80
4, 41568, Note_on_c, 1, 45, 80
4, 41657, Note_on_c, 1, 52, 0
4, 41657, Note_on_c, 1, 49, 0
4, 41657, Note_on_c, 1, 45, 0
4, 41760, Note_on_c, 1, 45, 80
4, 41783, Note_on_c, 1, 45, 0
4, 41784, Note_on_c, 1, 49, 80
4, 41807, Note_on_c, 1, 49, 0
4, 41808, Note_on_c, 1, 52, 80
4, 41831, Note_on_c, 1, 52, 0
4, 41832, Note_on_c, 1, 57, 80
4, 41855, Note_on_c, 1, 57, 0
4, 41856, Note_on_c, 1, 47, 80
4, 41856, Note_on_c, 1, 54, 80
4, 41856, Note_on_c, 1, 50, 80
4, 41945, Note_on_c, 1, 47, 0
4, 41945, Note_on_c, 1, 54, 0
4, 41945, Note_on_c, 1, 50, 0
4, 42048, Note_on_c, 1, 47, 80
4, 42048, Note_on_c, 1, 54, 80
4, 42048, Note_on_c, 1, 51, 80
4, 42137, Note_on_c, 1, 47, 0
4, 42137, Note_on_c, 1, 54, 0
4, 42137, Note_on_c, 1, 51, 0
4, 42144, Note_on_c, 1, 59, 80
4, 42144, Note_on_c, 1, 56, 80
4, 42144, Note_on_c, 1, 52, 80
4, 42233, Note_on_c, 1, 59, 0
4, 42233, Note_on_c, 1, 56, 0
4, 42233, Note_on_c, 1, 52, 0
4, 42336, Note_on_c, 1, 59, 80
4, 42336, Note_on_c, 1, 56, 80
4, 42336, Note_on_c, 1, 50, 80
4, 42425, Note_on_c, 1, 59, 0
4, 42425, Note_on_c, 1, 56, 0
4, 42425, Note_on_c, 1, 50, 0
4, 42432, Note_on_c, 1, 49, 102
4, 42432, Note_on_c, 1, 37, 102
4, 42528, Note_on_c, 1, 49, 0
4, 42528, Note_on_c, 1, 37, 0
4, 42528, Note_on_c, 1, 61, 86
4, 42528, Note_on_c, 1, 57, 86
4, 42528, Note_on_c, 1, 52, 86
4, 42661, Note_on_c, 1, 61, 0
4, 42661, Note_on_c, 1, 57, 0
4, 42661, Note_on_c, 1, 52, 0
4, 42672, Note_on_c, 1, 61, 86
4, 42672, Note_on_c, 1, 57, 86
4, 42672, Note_on_c, 1, 52, 86
4, 42717, Note_on_c, 1, 61, 0
4, 42717, Note_on_c, 1, 57, 0
4, 42717, Note_on_c, 1, 52, 0
4, 42720, Note_on_c, 1, 62, 86
4, 42720, Note_on_c, 1, 57, 86
4, 42720, Note_on_c, 1, 54, 86
4, 42809, Note_on_c, 1, 62, 0
4, 42809, Note_on_c, 1, 57, 0
4, 42809, Note_on_c, 1, 54, 0
4, 42840, Note_on_c, 1, 50, 86
4, 42863, Note_on_c, 1, 50, 0
4, 42864, Note_on_c, 1, 49, 86
4, 42887, Note_on_c, 1, 49, 0
4, 42888, Note_on_c, 1, 50, 86
4, 42911, Note_on_c, 1, 50, 0
4, 42912, Note_on_c, 1, 57, 86
4, 42935, Note_on_c, 1, 57, 0
4, 42936, Note_on_c, 1, 50, 86
4, 42959, Note_on_c, 1, 50, 0
4, 42960, Note_on_c, 1, 49, 86
4, 42983, Note_on_c, 1, 49, 0
4, 42984, Note_on_c, 1, 50, 86
4, 43007, Note_on_c, 1, 50, 0
4, 43008, Note_on_c, 1, 47, 102
4, 43008, Note_on_c, 1, 35, 102
4, 43104, Note_on_c, 1, 47, 0
4, 43104, Note_on_c, 1, 35, 0
4, 43104, Note_on_c, 1, 63, 86
4, 43104, Note_on_c, 1, 59, 86
4, 43104, Note_on_c, 1, 54, 86
4, 43237, Note_on_c, 1, 63, 0
4, 43237, Note_on_c, 1, 59, 0
4, 43237, Note_on_c, 1, 54, 0
4, 43248, Note_on_c, 1, 63, 86
4, 43248, Note_on_c, 1, 59, 86
4, 43248, Note_on_c, 1, 54, 86
4, 43293, Note_on_c, 1, 63, 0
4, 43293, Note_on_c, 1, 59, 0
4, 43293, Note_on_c, 1, 54, 0
4, 43296, Note_on_c, 1, 64, 86
4, 43296, Note_on_c, 1, 59, 86
4, 43296, Note_on_c, 1, 56, 86
4, 43385, Note_on_c, 1, 64, 0
4, 43385, Note_on_c, 1, 59, 0
4, 43385, Note_on_c, 1, 56, 0
4, 43416, Note_on_c, 1, 52, 86
4, 43439, Note_on_c, 1, 52, 0
4, 43440, Note_on_c, 1, 51, 86
4, 43463, Note_on_c, 1, 51, 0
4, 43464, Note_on_c, 1, 52, 86
4, 43487, Note_on_c, 1, 52, 0
4, 43488, Note_on_c, 1, 59, 86
4, 43511, Note_on_c, 1, 59, 0
4, 43512, Note_on_c, 1, 52, 86
4, 43535, Note_on_c, 1, 52, 0
4, 43536, Note_on_c, 1, 51, 86
4, 43559, Note_on_c, 1, 51, 0
4, 43560, Note_on_c, 1, 52, 86
4, 43583, Note_on_c, 1, 52, 0
4, 43584, Note_on_c, 1, 49, 86
4, 43584, Note_on_c, 1, 37, 86
4, 43761, Note_on_c, 1, 49, 0
4, 43761, Note_on_c, 1, 37, 0
4, 43776, Note_on_c, 1, 37, 86
4, 43799, Note_on_c, 1, 37, 0
4, 43800, Note_on_c, 1, 41, 86
4, 43823, Note_on_c, 1, 41, 0
4, 43824, Note_on_c, 1, 45, 86
4, 43847, Note_on_c, 1, 45, 0
4, 43848, Note_on_c, 1, 49, 86
4, 43871, Note_on_c, 1, 49, 0
4, 43872, Note_on_c, 1, 45, 102
4, 43872, Note_on_c, 1, 33, 102
4, 43911, Note_on_c, 1, 45, 0
4, 43911, Note_on_c, 1, 33, 0
4, 43968, Note_on_c, 1, 42, 86
4, 43968, Note_on_c, 1, 30, 86
4, 44057, Note_on_c, 1, 42, 0
4, 44057, Note_on_c, 1, 30, 0
4, 44160, Note_on_c, 1, 57, 80
4, 44160, Note_on_c, 1, 45, 80
4, 44199, Note_on_c, 1, 57, 0
4, 44199, Note_on_c, 1, 45, 0
4, 44256, Note_on_c, 1, 56, 80
4, 44256, Note_on_c, 1, 44, 80
4, 44433, Note_on_c, 1, 56, 0
4, 44433, Note_on_c, 1, 44, 0
4, 45600, Note_on_c, 1, 52, 75
4, 45645, Note_on_c, 1, 52, 0
4, 45648, Note_on_c, 1, 51, 75
4, 45693, Note_on_c, 1, 51, 0
4, 45696, Note_on_c, 1, 49, 75
4, 45741, Note_on_c, 1, 49, 0
4, 45744, Note_on_c, 1, 47, 75
4, 45789, Note_on_c, 1, 47, 0
4, 45792, Note_on_c, 1, 45, 75
4, 45837, Note_on_c, 1, 45, 0
4, 45840, Note_on_c, 1, 44, 75
4, 45885, Note_on_c, 1, 44, 0
4, 45888, Note_on_c, 1, 42, 75
4, 45933, Note_on_c, 1, 42, 0
4, 45936, Note_on_c, 1, 47, 75
4, 45981, Note_on_c, 1, 47, 0
4, 45984, Note_on_c, 1, 45, 75
4, 46029, Note_on_c, 1, 45, 0
4, 46032, Note_on_c, 1, 44, 75
4, 46077, Note_on_c, 1, 44, 0
4, 46080, Note_on_c, 1, 42, 75
4, 46125, Note_on_c, 1, 42, 0
4, 46128, Note_on_c, 1, 40, 75
4, 46173, Note_on_c, 1, 40, 0
4, 46176, Note_on_c, 1, 38, 75
4, 46221, Note_on_c, 1, 38, 0
4, 46224, Note_on_c, 1, 52, 75
4, 46269, Note_on_c, 1, 52, 0
4, 46272, Note_on_c, 1, 51, 75
4, 46317, Note_on_c, 1, 51, 0
4, 46320, Note_on_c, 1, 49, 75
4, 46365, Note_on_c, 1, 49, 0
4, 46368, Note_on_c, 1, 47, 75
4, 46413, Note_on_c, 1, 47, 0
4, 46416, Note_on_c, 1, 45, 75
4, 46461, Note_on_c, 1, 45, 0
4, 46464, Note_on_c, 1, 44, 75
4, 46553, Note_on_c, 1, 44, 0
4, 46608, Note_on_c, 1, 59, 75
4, 46608, Note_on_c, 1, 56, 75
4, 46653, Note_on_c, 1, 59, 0
4, 46653, Note_on_c, 1, 56, 0
4, 46656, Note_on_c, 1, 61, 75
4, 46656, Note_on_c, 1, 57, 75
4, 46701, Note_on_c, 1, 61, 0
4, 46701, Note_on_c, 1, 57, 0
4, 46704, Note_on_c, 1, 63, 75
4, 46704, Note_on_c, 1, 59, 75
4, 46749, Note_on_c, 1, 63, 0
4, 46749, Note_on_c, 1, 59, 0
4, 46752, Note_on_c, 1, 64, 75
4, 46752, Note_on_c, 1, 59, 75
4, 46841, Note_on_c, 1, 64, 0
4, 46841, Note_on_c, 1, 59, 0
4, 46992, Note_on_c, 1, 44, 75
4, 47037, Note_on_c, 1, 44, 0
4, 47040, Note_on_c, 1, 45, 75
4, 47085, Note_on_c, 1, 45, 0
4, 47088, Note_on_c, 1, 50, 75
4, 47133, Note_on_c, 1, 50, 0
4, 47136, Note_on_c, 1, 64, 75
4, 47136, Note_on_c, 1, 52, 75
4, 47225, Note_on_c, 1, 64, 0
4, 47225, Note_on_c, 1, 52, 0
4, 47232, Note_on_c, 1, 62, 75
4, 47232, Note_on_c, 1, 52, 75
4, 47321, Note_on_c, 1, 62, 0
4, 47321, Note_on_c, 1, 52, 0
4, 47328, Note_on_c, 1, 57, 75
4, 47376, Note_on_c, 1, 57, 0
4, 47376, Note_on_c, 1, 56, 75
4, 47421, Note_on_c, 1, 56, 0
4, 47424, Note_on_c, 1, 54, 75
4, 47469, Note_on_c, 1, 54, 0
4, 47472, Note_on_c, 1, 52, 75
4, 47517, Note_on_c, 1, 52, 0
4, 47520, Note_on_c, 1, 54, 75
4, 47565, Note_on_c, 1, 54, 0
4, 47568, Note_on_c, 1, 52, 75
4, 47613, Note_on_c, 1, 52, 0
4, 47616, Note_on_c, 1, 50, 75
4, 47664, Note_on_c, 1, 50, 0
4, 47664, Note_on_c, 1, 54, 75
4, 47709, Note_on_c, 1, 54, 0
4, 47712, Note_on_c, 1, 52, 75
4, 47757, Note_on_c, 1, 52, 0
4, 47760, Note_on_c, 1, 50, 75
4, 47805, Note_on_c, 1, 50, 0
4, 47808, Note_on_c, 1, 52, 75
4, 47853, Note_on_c, 1, 52, 0
4, 47856, Note_on_c, 1, 50, 75
4, 47901, Note_on_c, 1, 50, 0
4, 47904, Note_on_c, 1, 49, 75
4, 47952, Note_on_c, 1, 49, 0
4, 47952, Note_on_c, 1, 52, 75
4, 47997, Note_on_c, 1, 52, 0
4, 48000, Note_on_c, 1, 50, 75
4, 48045, Note_on_c, 1, 50, 0
4, 48048, Note_on_c, 1, 49, 75
4, 48093, Note_on_c, 1, 49, 0
4, 48096, Note_on_c, 1, 50, 75
4, 48141, Note_on_c, 1, 50, 0
4, 48144, Note_on_c, 1, 49, 75
4, 48189, Note_on_c, 1, 49, 0
4, 48192, Note_on_c, 1, 47, 75
4, 48240, Note_on_c, 1, 47, 0
4, 48240, Note_on_c, 1, 50, 75
4, 48285, Note_on_c, 1, 50, 0
4, 48288, Note_on_c, 1, 49, 75
4, 48333, Note_on_c, 1, 49, 0
4, 48336, Note_on_c, 1, 47, 75
4, 48381, Note_on_c, 1, 47, 0
4, 48384, Note_on_c, 1, 49, 75
4, 48429, Note_on_c, 1, 49, 0
4, 48432, Note_on_c, 1, 47, 75
4, 48477, Note_on_c, 1, 47, 0
4, 48480, Note_on_c, 1, 45, 75
4, 48528, Note_on_c, 1, 45, 0
4, 48528, Note_on_c, 1, 49, 75
4, 48573, Note_on_c, 1, 49, 0
4, 48576, Note_on_c, 1, 47, 76
4, 48621, Note_on_c, 1, 47, 0
4, 48624, Note_on_c, 1, 45, 76
4, 48669, Note_on_c, 1, 45, 0
4, 48672, Note_on_c, 1, 47, 77
4, 48717, Note_on_c, 1, 47, 0
4, 48720, Note_on_c, 1, 45, 78
4, 48765, Note_on_c, 1, 45, 0
4, 48768, Note_on_c, 1, 44, 78
4, 48807, Note_on_c, 1, 44, 0
4, 48864, Note_on_c, 1, 44, 80
4, 48884, Note_on_c, 1, 44, 0
4, 48912, Note_on_c, 1, 40, 80
4, 48932, Note_on_c, 1, 40, 0
4, 48960, Note_on_c, 1, 42, 80
4, 48980, Note_on_c, 1, 42, 0
4, 49008, Note_on_c, 1, 44, 80
4, 49028, Note_on_c, 1, 44, 0
4, 49056, Note_on_c, 1, 45, 80
4, 49095, Note_on_c, 1, 45, 0
4, 49152, Note_on_c, 1, 50, 96
4, 49248, Note_on_c, 1, 50, 0
4, 49248, Note_on_c, 1, 49, 80
4, 49337, Note_on_c, 1, 49, 0
4, 49344, Note_on_c, 1, 50, 80
4, 49433, Note_on_c, 1, 50, 0
4, 49440, Note_on_c, 1, 52, 78
4, 49529, Note_on_c, 1, 52, 0
4, 49536, Note_on_c, 1, 40, 76
4, 49625, Note_on_c, 1, 40, 0
4, 49632, Note_on_c, 1, 45, 75
4, 49721, Note_on_c, 1, 45, 0
4, 49728, Note_on_c, 1, 37, 94
4, 49817, Note_on_c, 1, 37, 0
4, 49920, Note_on_c, 1, 50, 75
4, 50009, Note_on_c, 1, 50, 0
4, 50016, Note_on_c, 1, 52, 73
4, 50105, Note_on_c, 1, 52, 0
4, 50112, Note_on_c, 1, 52, 71
4, 50201, Note_on_c, 1, 52, 0
4, 50208, Note_on_c, 1, 45, 70
4, 50297, Note_on_c, 1, 45, 0
4, 50400, Note_on_c, 1, 64, 75
4, 50400, Note_on_c, 1, 52, 75
4, 50439, Note_on_c, 1, 64, 0
4, 50439, Note_on_c, 1, 52, 0
4, 50496, Note_on_c, 1, 57, 91
4, 50496, Note_on_c, 1, 45, 91
4, 50592, Note_on_c, 1, 57, 0
4, 50592, Note_on_c, 1, 45, 0
4, 50784, Note_on_c, 1, 45, 0
4, 50961, Note_on_c, 1, 45, 0
4, 50976, End_track
5, 0, Start_track
5, 0, Program_c, 1, 0
5, 0, Control_c, 1, 7, 127
5, 0, Control_c, 1, 10, 64
5, 24, Note_on_c, 1, 64, 64
5, 91, Note_on_c, 1, 64, 0
5, 120, Note_on_c, 1, 64, 64
5, 187, Note_on_c, 1, 64, 0
5, 216, Note_on_c, 1, 64, 64
5, 283, Note_on_c, 1, 64, 0
5, 312, Note_on_c, 1, 64, 64
5, 379, Note_on_c, 1, 64, 0
5, 408, Note_on_c, 1, 64, 64
5, 475, Note_on_c, 1, 64, 0
5, 504, Note_on_c, 1, 64, 64
5, 571, Note_on_c, 1, 64, 0
5, 4632, Note_on_c, 1, 64, 64
5, 4699, Note_on_c, 1, 64, 0
5, 4728, Note_on_c, 1, 64, 64
5, 4795, Note_on_c, 1, 64, 0
5, 4824, Note_on_c, 1, 64, 64
5, 4891, Note_on_c, 1, 64, 0
5, 4920, Note_on_c, 1, 64, 64
5, 4987, Note_on_c, 1, 64, 0
5, 5016, Note_on_c, 1, 64, 64
5, 5083, Note_on_c, 1, 64, 0
5, 5112, Note_on_c, 1, 64, 64
5, 5179, Note_on_c, 1, 64, 0
5, 12792, Note_on_c, 1, 52, 64
5, 12859, Note_on_c, 1, 52, 0
5, 12888, Note_on_c, 1, 52, 64
5, 12955, Note_on_c, 1, 52, 0
5, 12984, Note_on_c, 1, 52, 64
5, 13051, Note_on_c, 1, 52, 0
5, 13080, Note_on_c, 1, 52, 64
5, 13147, Note_on_c, 1, 52, 0
5, 13176, Note_on_c, 1, 52, 64
5, 13243, Note_on_c, 1, 52, 0
5, 13272, Note_on_c, 1, 52, 64
5, 13339, Note_on_c, 1, 52, 0
5, 34896, Note_on_c, 1, 36, 80
5, 34916, Note_on_c, 1, 36, 0
5, 34944, Note_on_c, 1, 38, 80
5, 35033, Note_on_c, 1, 38, 0
5, 35040, Note_on_c, 1, 40, 80
5, 35129, Note_on_c, 1, 40, 0
5, 35136, Note_on_c, 1, 40, 80
5, 35225, Note_on_c, 1, 40, 0
5, 35232, Note_on_c, 1, 45, 80
5, 35325, Note_on_c, 1, 45, 0
5, 50784, End_track
6, 0, Start_track
6, 0, Title_t, "Sonata I   Haydn  "
6, 0, End_track
0, 0, End_of_file
