0, 0, Header, 1, 6, 96
1, 0, Start_track
1, 0, Copyright_t, "Copyright  1994-2002 Mozart Music Software"
1, 0, Text_t, "Sonata I\015\012"
1, 0, Text_t, "Haydn\015\012"
1, 0, Sequencer_specific, 16, 68, 87, 77, 90, 86, 82, 83, 78, 32, 55, 46, 48, 46, 55, 46, 48
1, 0, Time_signature, 6, 3, 24, 8
1, 0, Tempo, 1090909
1, 0, Key_signature, 1, "major"
1, 2256, Tempo, 1333333
1, 2304, Tempo, 1090909
1, 7728, Tempo, 1333333
1, 7776, Tempo, 1090909
1, 13776, Tempo, 3000000
1, 13824, Tempo, 1090909
1, 19008, Key_signature, 4, "major"
1, 19008, Time_signature, 2, 2, 24, 8
1, 19008, Tempo, 600000
1, 19152, Tempo, 521739
1, 28560, Tempo, 521739
1, 72192, End_track
2, 0, Start_track
2, 0, Program_c, 0, 0
2, 0, Control_c, 0, 7, 127
2, 0, Control_c, 0, 10, 64
2, 0, Note_on_c, 0, 83, 70
2, 89, Note_on_c, 0, 83, 0
2, 96, Note_on_c, 0, 81, 70
2, 108, Note_on_c, 0, 81, 0
2, 108, Note_on_c, 0, 79, 70
2, 120, Note_on_c, 0, 79, 0
2, 120, Note_on_c, 0, 78, 70
2, 132, Note_on_c, 0, 78, 0
2, 132, Note_on_c, 0, 76, 70
2, 144, Note_on_c, 0, 76, 0
2, 144, Note_on_c, 0, 76, 70
2, 233, Note_on_c, 0, 76, 0
2, 240, Note_on_c, 0, 76, 70
2, 285, Note_on_c, 0, 76, 0
2, 288, Note_on_c, 0, 76, 70
2, 355, Note_on_c, 0, 76, 0
2, 360, Note_on_c, 0, 78, 70
2, 383, Note_on_c, 0, 78, 0
2, 384, Note_on_c, 0, 76, 70
2, 417, Note_on_c, 0, 76, 0
2, 420, Note_on_c, 0, 76, 70
2, 426, Note_on_c, 0, 76, 0
2, 426, Note_on_c, 0, 78, 70
2, 432, Note_on_c, 0, 78, 0
2, 432, Note_on_c, 0, 79, 70
2, 477, Note_on_c, 0, 79, 0
2, 528, Note_on_c, 0, 67, 80
2, 573, Note_on_c, 0, 67, 0
2, 576, Note_on_c, 0, 69, 80
2, 643, Note_on_c, 0, 69, 0
2, 648, Note_on_c, 0, 72, 80
2, 660, Note_on_c, 0, 72, 0
2, 660, Note_on_c, 0, 71, 80
2, 672, Note_on_c, 0, 71, 0
2, 672, Note_on_c, 0, 69, 80
2, 684, Note_on_c, 0, 69, 0
2, 684, Note_on_c, 0, 67, 80
2, 696, Note_on_c, 0, 67, 0
2, 696, Note_on_c, 0, 66, 80
2, 708, Note_on_c, 0, 66, 0
2, 708, Note_on_c, 0, 64, 80
2, 720, Note_on_c, 0, 64, 0
2, 720, Note_on_c, 0, 63, 80
2, 768, Note_on_c, 0, 63, 0
2, 768, Note_on_c, 0, 66, 80
2, 791, Note_on_c, 0, 66, 0
2, 792, Note_on_c, 0, 60, 80
2, 815, Note_on_c, 0, 60, 0
2, 816, Note_on_c, 0, 59, 80
2, 839, Note_on_c, 0, 59, 0
2, 840, Note_on_c, 0, 57, 80
2, 863, Note_on_c, 0, 57, 0
2, 864, Note_on_c, 0, 55, 80
2, 887, Note_on_c, 0, 55, 0
2, 888, Note_on_c, 0, 54, 80
2, 911, Note_on_c, 0, 54, 0
2, 912, Note_on_c, 0, 52, 80
2, 957, Note_on_c, 0, 52, 0
2, 960, Note_on_c, 0, 52, 80
2, 1005, Note_on_c, 0, 52, 0
2, 1008, Note_on_c, 0, 52, 80
2, 1053, Note_on_c, 0, 52, 0
2, 1080, Note_on_c, 0, 71, 70
2, 1103, Note_on_c, 0, 71, 0
2, 1104, Note_on_c, 0, 76, 70
2, 1127, Note_on_c, 0, 76, 0
2, 1128, Note_on_c, 0, 79, 70
2, 1151, Note_on_c, 0, 79, 0
2, 1152, Note_on_c, 0, 83, 70
2, 1241, Note_on_c, 0, 83, 0
2, 1248, Note_on_c, 0, 81, 70
2, 1260, Note_on_c, 0, 81, 0
2, 1260, Note_on_c, 0, 79, 70
2, 1272, Note_on_c, 0, 79, 0
2, 1272, Note_on_c, 0, 78, 70
2, 1284, Note_on_c, 0, 78, 0
2, 1284, Note_on_c, 0, 76, 70
2, 1296, Note_on_c, 0, 76, 0
2, 1296, Note_on_c, 0, 76, 70
2, 1385, Note_on_c, 0, 76, 0
2, 1392, Note_on_c, 0, 76, 70
2, 1437, Note_on_c, 0, 76, 0
2, 1440, Note_on_c, 0, 76, 70
2, 1507, Note_on_c, 0, 76, 0
2, 1512, Note_on_c, 0, 78, 70
2, 1535, Note_on_c, 0, 78, 0
2, 1536, Note_on_c, 0, 76, 70
2, 1569, Note_on_c, 0, 76, 0
2, 1572, Note_on_c, 0, 75, 70
2, 1578, Note_on_c, 0, 75, 0
2, 1578, Note_on_c, 0, 78, 70
2, 1584, Note_on_c, 0, 78, 0
2, 1584, Note_on_c, 0, 81, 70
2, 1629, Note_on_c, 0, 81, 0
2, 1680, Note_on_c, 0, 79, 70
2, 1680, Note_on_c, 0, 76, 70
2, 1725, Note_on_c, 0, 79, 0
2, 1725, Note_on_c, 0, 76, 0
2, 1728, Note_on_c, 0, 78, 70
2, 1728, Note_on_c, 0, 75, 70
2, 1795, Note_on_c, 0, 78, 0
2, 1795, Note_on_c, 0, 75, 0
2, 1800, Note_on_c, 0, 79, 70
2, 1800, Note_on_c, 0, 76, 70
2, 1823, Note_on_c, 0, 79, 0
2, 1823, Note_on_c, 0, 76, 0
2, 1824, Note_on_c, 0, 78, 70
2, 1824, Note_on_c, 0, 75, 70
2, 1869, Note_on_c, 0, 78, 0
2, 1869, Note_on_c, 0, 75, 0
2, 1872, Note_on_c, 0, 83, 70
2, 1872, Note_on_c, 0, 75, 70
2, 1917, Note_on_c, 0, 83, 0
2, 1917, Note_on_c, 0, 75, 0
2, 1968, Note_on_c, 0, 79, 70
2, 1968, Note_on_c, 0, 76, 70
2, 2013, Note_on_c, 0, 79, 0
2, 2013, Note_on_c, 0, 76, 0
2, 2016, Note_on_c, 0, 78, 70
2, 2016, Note_on_c, 0, 75, 70
2, 2083, Note_on_c, 0, 78, 0
2, 2083, Note_on_c, 0, 75, 0
2, 2088, Note_on_c, 0, 79, 70
2, 2088, Note_on_c, 0, 76, 70
2, 2111, Note_on_c, 0, 79, 0
2, 2111, Note_on_c, 0, 76, 0
2, 2112, Note_on_c, 0, 78, 70
2, 2112, Note_on_c, 0, 75, 70
2, 2157, Note_on_c, 0, 78, 0
2, 2157, Note_on_c, 0, 75, 0
2, 2160, Note_on_c, 0, 78, 70
2, 2160, Note_on_c, 0, 75, 70
2, 2238, Note_on_c, 0, 78, 0
2, 2238, Note_on_c, 0, 75, 0
2, 2304, Note_on_c, 0, 71, 75
2, 2312, Note_on_c, 0, 74, 75
2, 2320, Note_on_c, 0, 79, 75
2, 2397, Note_on_c, 0, 79, 0
2, 2397, Note_on_c, 0, 74, 0
2, 2397, Note_on_c, 0, 71, 0
2, 2400, Note_on_c, 0, 74, 75
2, 2420, Note_on_c, 0, 74, 0
2, 2448, Note_on_c, 0, 71, 75
2, 2468, Note_on_c, 0, 71, 0
2, 2496, Note_on_c, 0, 67, 75
2, 2516, Note_on_c, 0, 67, 0
2, 2544, Note_on_c, 0, 62, 75
2, 2564, Note_on_c, 0, 62, 0
2, 2592, Note_on_c, 0, 60, 75
2, 2659, Note_on_c, 0, 60, 0
2, 2664, Note_on_c, 0, 62, 75
2, 2687, Note_on_c, 0, 62, 0
2, 2688, Note_on_c, 0, 60, 75
2, 2733, Note_on_c, 0, 60, 0
2, 2736, Note_on_c, 0, 60, 75
2, 2803, Note_on_c, 0, 60, 0
2, 2880, Note_on_c, 0, 72, 75
2, 2886, Note_on_c, 0, 78, 75
2, 2892, Note_on_c, 0, 81, 75
2, 2898, Note_on_c, 0, 84, 75
2, 2973, Note_on_c, 0, 84, 0
2, 2973, Note_on_c, 0, 81, 0
2, 2973, Note_on_c, 0, 78, 0
2, 2973, Note_on_c, 0, 72, 0
2, 2976, Note_on_c, 0, 83, 75
2, 2982, Note_on_c, 0, 83, 0
2, 2982, Note_on_c, 0, 81, 75
2, 2988, Note_on_c, 0, 81, 0
2, 2988, Note_on_c, 0, 79, 75
2, 2994, Note_on_c, 0, 79, 0
2, 2994, Note_on_c, 0, 81, 75
2, 3021, Note_on_c, 0, 81, 0
2, 3024, Note_on_c, 0, 79, 75
2, 3030, Note_on_c, 0, 79, 0
2, 3030, Note_on_c, 0, 78, 75
2, 3036, Note_on_c, 0, 78, 0
2, 3036, Note_on_c, 0, 76, 75
2, 3042, Note_on_c, 0, 76, 0
2, 3042, Note_on_c, 0, 78, 75
2, 3069, Note_on_c, 0, 78, 0
2, 3072, Note_on_c, 0, 83, 75
2, 3078, Note_on_c, 0, 83, 0
2, 3078, Note_on_c, 0, 81, 75
2, 3084, Note_on_c, 0, 81, 0
2, 3084, Note_on_c, 0, 79, 75
2, 3090, Note_on_c, 0, 79, 0
2, 3090, Note_on_c, 0, 81, 75
2, 3119, Note_on_c, 0, 81, 0
2, 3120, Note_on_c, 0, 74, 75
2, 3126, Note_on_c, 0, 74, 0
2, 3126, Note_on_c, 0, 72, 75
2, 3132, Note_on_c, 0, 72, 0
2, 3132, Note_on_c, 0, 71, 75
2, 3138, Note_on_c, 0, 71, 0
2, 3138, Note_on_c, 0, 72, 75
2, 3167, Note_on_c, 0, 72, 0
2, 3168, Note_on_c, 0, 71, 75
2, 3235, Note_on_c, 0, 71, 0
2, 3240, Note_on_c, 0, 72, 75
2, 3263, Note_on_c, 0, 72, 0
2, 3264, Note_on_c, 0, 71, 75
2, 3309, Note_on_c, 0, 71, 0
2, 3312, Note_on_c, 0, 71, 75
2, 3357, Note_on_c, 0, 71, 0
2, 3408, Note_on_c, 0, 79, 75
2, 3453, Note_on_c, 0, 79, 0
2, 3456, Note_on_c, 0, 78, 75
2, 3504, Note_on_c, 0, 78, 0
2, 3504, Note_on_c, 0, 76, 75
2, 3545, Note_on_c, 0, 76, 0
2, 3552, Note_on_c, 0, 79, 75
2, 3597, Note_on_c, 0, 79, 0
2, 3600, Note_on_c, 0, 76, 75
2, 3648, Note_on_c, 0, 76, 0
2, 3648, Note_on_c, 0, 74, 75
2, 3689, Note_on_c, 0, 74, 0
2, 3696, Note_on_c, 0, 79, 75
2, 3741, Note_on_c, 0, 79, 0
2, 3744, Note_on_c, 0, 74, 75
2, 3768, Note_on_c, 0, 74, 0
2, 3768, Note_on_c, 0, 72, 75
2, 3789, Note_on_c, 0, 72, 0
2, 3792, Note_on_c, 0, 72, 75
2, 3812, Note_on_c, 0, 72, 0
2, 3840, Note_on_c, 0, 72, 75
2, 3860, Note_on_c, 0, 72, 0
2, 3888, Note_on_c, 0, 72, 75
2, 3955, Note_on_c, 0, 72, 0
2, 3960, Note_on_c, 0, 69, 75
2, 3983, Note_on_c, 0, 69, 0
2, 3984, Note_on_c, 0, 71, 75
2, 4029, Note_on_c, 0, 71, 0
2, 4032, Note_on_c, 0, 71, 75
2, 4056, Note_on_c, 0, 71, 0
2, 4056, Note_on_c, 0, 69, 75
2, 4077, Note_on_c, 0, 69, 0
2, 4080, Note_on_c, 0, 69, 75
2, 4104, Note_on_c, 0, 69, 0
2, 4104, Note_on_c, 0, 67, 75
2, 4125, Note_on_c, 0, 67, 0
2, 4128, Note_on_c, 0, 67, 75
2, 4152, Note_on_c, 0, 67, 0
2, 4152, Note_on_c, 0, 66, 75
2, 4173, Note_on_c, 0, 66, 0
2, 4176, Note_on_c, 0, 67, 75
2, 4221, Note_on_c, 0, 67, 0
2, 4248, Note_on_c, 0, 78, 75
2, 4260, Note_on_c, 0, 78, 0
2, 4260, Note_on_c, 0, 79, 75
2, 4272, Note_on_c, 0, 79, 0
2, 4272, Note_on_c, 0, 81, 75
2, 4284, Note_on_c, 0, 81, 0
2, 4284, Note_on_c, 0, 79, 75
2, 4296, Note_on_c, 0, 79, 0
2, 4296, Note_on_c, 0, 78, 75
2, 4308, Note_on_c, 0, 78, 0
2, 4308, Note_on_c, 0, 79, 75
2, 4320, Note_on_c, 0, 79, 0
2, 4320, Note_on_c, 0, 78, 75
2, 4368, Note_on_c, 0, 78, 0
2, 4368, Note_on_c, 0, 76, 75
2, 4387, Note_on_c, 0, 76, 0
2, 4392, Note_on_c, 0, 78, 75
2, 4404, Note_on_c, 0, 78, 0
2, 4404, Note_on_c, 0, 79, 75
2, 4416, Note_on_c, 0, 79, 0
2, 4416, Note_on_c, 0, 81, 75
2, 4428, Note_on_c, 0, 81, 0
2, 4428, Note_on_c, 0, 79, 75
2, 4440, Note_on_c, 0, 79, 0
2, 4440, Note_on_c, 0, 78, 75
2, 4452, Note_on_c, 0, 78, 0
2, 4452, Note_on_c, 0, 79, 75
2, 4464, Note_on_c, 0, 79, 0
2, 4464, Note_on_c, 0, 76, 75
2, 4512, Note_on_c, 0, 76, 0
2, 4512, Note_on_c, 0, 74, 75
2, 4531, Note_on_c, 0, 74, 0
2, 4536, Note_on_c, 0, 79, 75
2, 4548, Note_on_c, 0, 79, 0
2, 4548, Note_on_c, 0, 83, 75
2, 4560, Note_on_c, 0, 83, 0
2, 4560, Note_on_c, 0, 81, 75
2, 4572, Note_on_c, 0, 81, 0
2, 4572, Note_on_c, 0, 79, 75
2, 4584, Note_on_c, 0, 79, 0
2, 4584, Note_on_c, 0, 78, 75
2, 4596, Note_on_c, 0, 78, 0
2, 4596, Note_on_c, 0, 76, 75
2, 4608, Note_on_c, 0, 76, 0
2, 4608, Note_on_c, 0, 74, 75
2, 4631, Note_on_c, 0, 74, 0
2, 4632, Note_on_c, 0, 73, 75
2, 4655, Note_on_c, 0, 73, 0
2, 4656, Note_on_c, 0, 72, 75
2, 4701, Note_on_c, 0, 72, 0
2, 4704, Note_on_c, 0, 72, 75
2, 4749, Note_on_c, 0, 72, 0
2, 4752, Note_on_c, 0, 72, 75
2, 4764, Note_on_c, 0, 72, 0
2, 4764, Note_on_c, 0, 81, 75
2, 4815, Note_on_c, 0, 81, 0
2, 4816, Note_on_c, 0, 79, 75
2, 4831, Note_on_c, 0, 79, 0
2, 4832, Note_on_c, 0, 78, 75
2, 4847, Note_on_c, 0, 78, 0
2, 4848, Note_on_c, 0, 76, 75
2, 4863, Note_on_c, 0, 76, 0
2, 4864, Note_on_c, 0, 74, 75
2, 4879, Note_on_c, 0, 74, 0
2, 4880, Note_on_c, 0, 72, 75
2, 4895, Note_on_c, 0, 72, 0
2, 4896, Note_on_c, 0, 71, 75
2, 4908, Note_on_c, 0, 71, 0
2, 4908, Note_on_c, 0, 86, 75
2, 4967, Note_on_c, 0, 86, 0
2, 4968, Note_on_c, 0, 84, 75
2, 4980, Note_on_c, 0, 84, 0
2, 4980, Note_on_c, 0, 83, 75
2, 4992, Note_on_c, 0, 83, 0
2, 4992, Note_on_c, 0, 81, 75
2, 5004, Note_on_c, 0, 81, 0
2, 5004, Note_on_c, 0, 79, 75
2, 5016, Note_on_c, 0, 79, 0
2, 5016, Note_on_c, 0, 78, 75
2, 5028, Note_on_c, 0, 78, 0
2, 5028, Note_on_c, 0, 79, 75
2, 5040, Note_on_c, 0, 79, 0
2, 5040, Note_on_c, 0, 78, 75
2, 5052, Note_on_c, 0, 78, 0
2, 5052, Note_on_c, 0, 76, 75
2, 5064, Note_on_c, 0, 76, 0
2, 5064, Note_on_c, 0, 74, 75
2, 5076, Note_on_c, 0, 74, 0
2, 5076, Note_on_c, 0, 72, 75
2, 5088, Note_on_c, 0, 72, 0
2, 5088, Note_on_c, 0, 71, 75
2, 5133, Note_on_c, 0, 71, 0
2, 5136, Note_on_c, 0, 69, 75
2, 5143, Note_on_c, 0, 69, 0
2, 5143, Note_on_c, 0, 71, 75
2, 5150, Note_on_c, 0, 71, 0
2, 5150, Note_on_c, 0, 69, 75
2, 5157, Note_on_c, 0, 69, 0
2, 5157, Note_on_c, 0, 71, 75
2, 5164, Note_on_c, 0, 71, 0
2, 5164, Note_on_c, 0, 69, 75
2, 5171, Note_on_c, 0, 69, 0
2, 5171, Note_on_c, 0, 67, 75
2, 5178, Note_on_c, 0, 67, 0
2, 5178, Note_on_c, 0, 69, 75
2, 5184, Note_on_c, 0, 69, 0
2, 5184, Note_on_c, 0, 67, 75
2, 5229, Note_on_c, 0, 67, 0
2, 5232, Note_on_c, 0, 62, 75
2, 5232, Note_on_c, 0, 59, 75
2, 5277, Note_on_c, 0, 62, 0
2, 5277, Note_on_c, 0, 59, 0
2, 5280, Note_on_c, 0, 62, 75
2, 5280, Note_on_c, 0, 59, 75
2, 5325, Note_on_c, 0, 62, 0
2, 5325, Note_on_c, 0, 59, 0
2, 5328, Note_on_c, 0, 59, 75
2, 5336, Note_on_c, 0, 62, 75
2, 5344, Note_on_c, 0, 67, 75
2, 5421, Note_on_c, 0, 67, 0
2, 5421, Note_on_c, 0, 62, 0
2, 5421, Note_on_c, 0, 59, 0
2, 5472, Note_on_c, 0, 83, 70
2, 5561, Note_on_c, 0, 83, 0
2, 5568, Note_on_c, 0, 81, 70
2, 5580, Note_on_c, 0, 81, 0
2, 5580, Note_on_c, 0, 79, 70
2, 5592, Note_on_c, 0, 79, 0
2, 5592, Note_on_c, 0, 78, 70
2, 5604, Note_on_c, 0, 78, 0
2, 5604, Note_on_c, 0, 76, 70
2, 5616, Note_on_c, 0, 76, 0
2, 5616, Note_on_c, 0, 76, 70
2, 5705, Note_on_c, 0, 76, 0
2, 5712, Note_on_c, 0, 76, 70
2, 5757, Note_on_c, 0, 76, 0
2, 5760, Note_on_c, 0, 76, 70
2, 5827, Note_on_c, 0, 76, 0
2, 5832, Note_on_c, 0, 78, 70
2, 5855, Note_on_c, 0, 78, 0
2, 5856, Note_on_c, 0, 76, 70
2, 5889, Note_on_c, 0, 76, 0
2, 5892, Note_on_c, 0, 76, 70
2, 5898, Note_on_c, 0, 76, 0
2, 5898, Note_on_c, 0, 78, 70
2, 5904, Note_on_c, 0, 78, 0
2, 5904, Note_on_c, 0, 79, 70
2, 5949, Note_on_c, 0, 79, 0
2, 6000, Note_on_c, 0, 67, 80
2, 6045, Note_on_c, 0, 67, 0
2, 6048, Note_on_c, 0, 69, 80
2, 6115, Note_on_c, 0, 69, 0
2, 6120, Note_on_c, 0, 72, 80
2, 6132, Note_on_c, 0, 72, 0
2, 6132, Note_on_c, 0, 71, 80
2, 6144, Note_on_c, 0, 71, 0
2, 6144, Note_on_c, 0, 69, 80
2, 6156, Note_on_c, 0, 69, 0
2, 6156, Note_on_c, 0, 67, 80
2, 6168, Note_on_c, 0, 67, 0
2, 6168, Note_on_c, 0, 66, 80
2, 6180, Note_on_c, 0, 66, 0
2, 6180, Note_on_c, 0, 64, 80
2, 6192, Note_on_c, 0, 64, 0
2, 6192, Note_on_c, 0, 63, 80
2, 6240, Note_on_c, 0, 63, 0
2, 6240, Note_on_c, 0, 66, 80
2, 6263, Note_on_c, 0, 66, 0
2, 6264, Note_on_c, 0, 60, 80
2, 6287, Note_on_c, 0, 60, 0
2, 6288, Note_on_c, 0, 59, 80
2, 6311, Note_on_c, 0, 59, 0
2, 6312, Note_on_c, 0, 57, 80
2, 6335, Note_on_c, 0, 57, 0
2, 6336, Note_on_c, 0, 55, 80
2, 6359, Note_on_c, 0, 55, 0
2, 6360, Note_on_c, 0, 54, 80
2, 6383, Note_on_c, 0, 54, 0
2, 6384, Note_on_c, 0, 52, 80
2, 6429, Note_on_c, 0, 52, 0
2, 6432, Note_on_c, 0, 52, 80
2, 6477, Note_on_c, 0, 52, 0
2, 6480, Note_on_c, 0, 52, 80
2, 6525, Note_on_c, 0, 52, 0
2, 6552, Note_on_c, 0, 71, 70
2, 6575, Note_on_c, 0, 71, 0
2, 6576, Note_on_c, 0, 76, 70
2, 6599, Note_on_c, 0, 76, 0
2, 6600, Note_on_c, 0, 79, 70
2, 6623, Note_on_c, 0, 79, 0
2, 6624, Note_on_c, 0, 83, 70
2, 6713, Note_on_c, 0, 83, 0
2, 6720, Note_on_c, 0, 81, 70
2, 6732, Note_on_c, 0, 81, 0
2, 6732, Note_on_c, 0, 79, 70
2, 6744, Note_on_c, 0, 79, 0
2, 6744, Note_on_c, 0, 78, 70
2, 6756, Note_on_c, 0, 78, 0
2, 6756, Note_on_c, 0, 76, 70
2, 6768, Note_on_c, 0, 76, 0
2, 6768, Note_on_c, 0, 76, 70
2, 6857, Note_on_c, 0, 76, 0
2, 6864, Note_on_c, 0, 76, 70
2, 6909, Note_on_c, 0, 76, 0
2, 6912, Note_on_c, 0, 76, 70
2, 6979, Note_on_c, 0, 76, 0
2, 6984, Note_on_c, 0, 78, 70
2, 7007, Note_on_c, 0, 78, 0
2, 7008, Note_on_c, 0, 76, 70
2, 7041, Note_on_c, 0, 76, 0
2, 7044, Note_on_c, 0, 75, 70
2, 7050, Note_on_c, 0, 75, 0
2, 7050, Note_on_c, 0, 78, 70
2, 7056, Note_on_c, 0, 78, 0
2, 7056, Note_on_c, 0, 81, 70
2, 7101, Note_on_c, 0, 81, 0
2, 7152, Note_on_c, 0, 79, 70
2, 7152, Note_on_c, 0, 76, 70
2, 7197, Note_on_c, 0, 79, 0
2, 7197, Note_on_c, 0, 76, 0
2, 7200, Note_on_c, 0, 78, 70
2, 7200, Note_on_c, 0, 75, 70
2, 7267, Note_on_c, 0, 78, 0
2, 7267, Note_on_c, 0, 75, 0
2, 7272, Note_on_c, 0, 79, 70
2, 7272, Note_on_c, 0, 76, 70
2, 7295, Note_on_c, 0, 79, 0
2, 7295, Note_on_c, 0, 76, 0
2, 7296, Note_on_c, 0, 78, 70
2, 7296, Note_on_c, 0, 75, 70
2, 7341, Note_on_c, 0, 78, 0
2, 7341, Note_on_c, 0, 75, 0
2, 7344, Note_on_c, 0, 83, 70
2, 7344, Note_on_c, 0, 75, 70
2, 7389, Note_on_c, 0, 83, 0
2, 7389, Note_on_c, 0, 75, 0
2, 7440, Note_on_c, 0, 79, 70
2, 7440, Note_on_c, 0, 76, 70
2, 7485, Note_on_c, 0, 79, 0
2, 7485, Note_on_c, 0, 76, 0
2, 7488, Note_on_c, 0, 78, 70
2, 7488, Note_on_c, 0, 75, 70
2, 7555, Note_on_c, 0, 78, 0
2, 7555, Note_on_c, 0, 75, 0
2, 7560, Note_on_c, 0, 79, 70
2, 7560, Note_on_c, 0, 76, 70
2, 7583, Note_on_c, 0, 79, 0
2, 7583, Note_on_c, 0, 76, 0
2, 7584, Note_on_c, 0, 78, 70
2, 7584, Note_on_c, 0, 75, 70
2, 7629, Note_on_c, 0, 78, 0
2, 7629, Note_on_c, 0, 75, 0
2, 7632, Note_on_c, 0, 78, 70
2, 7632, Note_on_c, 0, 75, 70
2, 7710, Note_on_c, 0, 78, 0
2, 7710, Note_on_c, 0, 75, 0
2, 7776, Note_on_c, 0, 71, 75
2, 7784, Note_on_c, 0, 74, 75
2, 7792, Note_on_c, 0, 79, 75
2, 7869, Note_on_c, 0, 79, 0
2, 7869, Note_on_c, 0, 74, 0
2, 7869, Note_on_c, 0, 71, 0
2, 7872, Note_on_c, 0, 74, 75
2, 7892, Note_on_c, 0, 74, 0
2, 7920, Note_on_c, 0, 71, 75
2, 7940, Note_on_c, 0, 71, 0
2, 7968, Note_on_c, 0, 67, 75
2, 7988, Note_on_c, 0, 67, 0
2, 8016, Note_on_c, 0, 62, 75
2, 8036, Note_on_c, 0, 62, 0
2, 8064, Note_on_c, 0, 60, 75
2, 8131, Note_on_c, 0, 60, 0
2, 8136, Note_on_c, 0, 62, 75
2, 8159, Note_on_c, 0, 62, 0
2, 8160, Note_on_c, 0, 60, 75
2, 8205, Note_on_c, 0, 60, 0
2, 8208, Note_on_c, 0, 60, 75
2, 8275, Note_on_c, 0, 60, 0
2, 8352, Note_on_c, 0, 72, 75
2, 8358, Note_on_c, 0, 78, 75
2, 8364, Note_on_c, 0, 81, 75
2, 8370, Note_on_c, 0, 84, 75
2, 8445, Note_on_c, 0, 84, 0
2, 8445, Note_on_c, 0, 81, 0
2, 8445, Note_on_c, 0, 78, 0
2, 8445, Note_on_c, 0, 72, 0
2, 8448, Note_on_c, 0, 83, 75
2, 8454, Note_on_c, 0, 83, 0
2, 8454, Note_on_c, 0, 81, 75
2, 8460, Note_on_c, 0, 81, 0
2, 8460, Note_on_c, 0, 79, 75
2, 8466, Note_on_c, 0, 79, 0
2, 8466, Note_on_c, 0, 81, 75
2, 8493, Note_on_c, 0, 81, 0
2, 8496, Note_on_c, 0, 79, 75
2, 8502, Note_on_c, 0, 79, 0
2, 8502, Note_on_c, 0, 78, 75
2, 8508, Note_on_c, 0, 78, 0
2, 8508, Note_on_c, 0, 76, 75
2, 8514, Note_on_c, 0, 76, 0
2, 8514, Note_on_c, 0, 78, 75
2, 8541, Note_on_c, 0, 78, 0
2, 8544, Note_on_c, 0, 83, 75
2, 8550, Note_on_c, 0, 83, 0
2, 8550, Note_on_c, 0, 81, 75
2, 8556, Note_on_c, 0, 81, 0
2, 8556, Note_on_c, 0, 79, 75
2, 8562, Note_on_c, 0, 79, 0
2, 8562, Note_on_c, 0, 81, 75
2, 8591, Note_on_c, 0, 81, 0
2, 8592, Note_on_c, 0, 74, 75
2, 8598, Note_on_c, 0, 74, 0
2, 8598, Note_on_c, 0, 72, 75
2, 8604, Note_on_c, 0, 72, 0
2, 8604, Note_on_c, 0, 71, 75
2, 8610, Note_on_c, 0, 71, 0
2, 8610, Note_on_c, 0, 72, 75
2, 8639, Note_on_c, 0, 72, 0
2, 8640, Note_on_c, 0, 71, 75
2, 8707, Note_on_c, 0, 71, 0
2, 8712, Note_on_c, 0, 72, 75
2, 8735, Note_on_c, 0, 72, 0
2, 8736, Note_on_c, 0, 71, 75
2, 8781, Note_on_c, 0, 71, 0
2, 8784, Note_on_c, 0, 71, 75
2, 8829, Note_on_c, 0, 71, 0
2, 8880, Note_on_c, 0, 79, 75
2, 8925, Note_on_c, 0, 79, 0
2, 8928, Note_on_c, 0, 78, 75
2, 8976, Note_on_c, 0, 78, 0
2, 8976, Note_on_c, 0, 76, 75
2, 9017, Note_on_c, 0, 76, 0
2, 9024, Note_on_c, 0, 79, 75
2, 9069, Note_on_c, 0, 79, 0
2, 9072, Note_on_c, 0, 76, 75
2, 9120, Note_on_c, 0, 76, 0
2, 9120, Note_on_c, 0, 74, 75
2, 9161, Note_on_c, 0, 74, 0
2, 9168, Note_on_c, 0, 79, 75
2, 9213, Note_on_c, 0, 79, 0
2, 9216, Note_on_c, 0, 74, 75
2, 9240, Note_on_c, 0, 74, 0
2, 9240, Note_on_c, 0, 72, 75
2, 9261, Note_on_c, 0, 72, 0
2, 9264, Note_on_c, 0, 72, 75
2, 9284, Note_on_c, 0, 72, 0
2, 9312, Note_on_c, 0, 72, 75
2, 9332, Note_on_c, 0, 72, 0
2, 9360, Note_on_c, 0, 72, 75
2, 9427, Note_on_c, 0, 72, 0
2, 9432, Note_on_c, 0, 69, 75
2, 9455, Note_on_c, 0, 69, 0
2, 9456, Note_on_c, 0, 71, 75
2, 9501, Note_on_c, 0, 71, 0
2, 9504, Note_on_c, 0, 71, 75
2, 9528, Note_on_c, 0, 71, 0
2, 9528, Note_on_c, 0, 69, 75
2, 9549, Note_on_c, 0, 69, 0
2, 9552, Note_on_c, 0, 69, 75
2, 9576, Note_on_c, 0, 69, 0
2, 9576, Note_on_c, 0, 67, 75
2, 9597, Note_on_c, 0, 67, 0
2, 9600, Note_on_c, 0, 67, 75
2, 9624, Note_on_c, 0, 67, 0
2, 9624, Note_on_c, 0, 66, 75
2, 9645, Note_on_c, 0, 66, 0
2, 9648, Note_on_c, 0, 67, 75
2, 9693, Note_on_c, 0, 67, 0
2, 9720, Note_on_c, 0, 78, 75
2, 9732, Note_on_c, 0, 78, 0
2, 9732, Note_on_c, 0, 79, 75
2, 9744, Note_on_c, 0, 79, 0
2, 9744, Note_on_c, 0, 81, 75
2, 9756, Note_on_c, 0, 81, 0
2, 9756, Note_on_c, 0, 79, 75
2, 9768, Note_on_c, 0, 79, 0
2, 9768, Note_on_c, 0, 78, 75
2, 9780, Note_on_c, 0, 78, 0
2, 9780, Note_on_c, 0, 79, 75
2, 9792, Note_on_c, 0, 79, 0
2, 9792, Note_on_c, 0, 78, 75
2, 9840, Note_on_c, 0, 78, 0
2, 9840, Note_on_c, 0, 76, 75
2, 9859, Note_on_c, 0, 76, 0
2, 9864, Note_on_c, 0, 78, 75
2, 9876, Note_on_c, 0, 78, 0
2, 9876, Note_on_c, 0, 79, 75
2, 9888, Note_on_c, 0, 79, 0
2, 9888, Note_on_c, 0, 81, 75
2, 9900, Note_on_c, 0, 81, 0
2, 9900, Note_on_c, 0, 79, 75
2, 9912, Note_on_c, 0, 79, 0
2, 9912, Note_on_c, 0, 78, 75
2, 9924, Note_on_c, 0, 78, 0
2, 9924, Note_on_c, 0, 79, 75
2, 9936, Note_on_c, 0, 79, 0
2, 9936, Note_on_c, 0, 76, 75
2, 9984, Note_on_c, 0, 76, 0
2, 9984, Note_on_c, 0, 74, 75
2, 10003, Note_on_c, 0, 74, 0
2, 10008, Note_on_c, 0, 79, 75
2, 10020, Note_on_c, 0, 79, 0
2, 10020, Note_on_c, 0, 83, 75
2, 10032, Note_on_c, 0, 83, 0
2, 10032, Note_on_c, 0, 81, 75
2, 10044, Note_on_c, 0, 81, 0
2, 10044, Note_on_c, 0, 79, 75
2, 10056, Note_on_c, 0, 79, 0
2, 10056, Note_on_c, 0, 78, 75
2, 10068, Note_on_c, 0, 78, 0
2, 10068, Note_on_c, 0, 76, 75
2, 10080, Note_on_c, 0, 76, 0
2, 10080, Note_on_c, 0, 74, 75
2, 10103, Note_on_c, 0, 74, 0
2, 10104, Note_on_c, 0, 73, 75
2, 10127, Note_on_c, 0, 73, 0
2, 10128, Note_on_c, 0, 72, 75
2, 10173, Note_on_c, 0, 72, 0
2, 10176, Note_on_c, 0, 72, 75
2, 10221, Note_on_c, 0, 72, 0
2, 10224, Note_on_c, 0, 72, 75
2, 10236, Note_on_c, 0, 72, 0
2, 10236, Note_on_c, 0, 81, 75
2, 10287, Note_on_c, 0, 81, 0
2, 10288, Note_on_c, 0, 79, 75
2, 10303, Note_on_c, 0, 79, 0
2, 10304, Note_on_c, 0, 78, 75
2, 10319, Note_on_c, 0, 78, 0
2, 10320, Note_on_c, 0, 76, 75
2, 10335, Note_on_c, 0, 76, 0
2, 10336, Note_on_c, 0, 74, 75
2, 10351, Note_on_c, 0, 74, 0
2, 10352, Note_on_c, 0, 72, 75
2, 10367, Note_on_c, 0, 72, 0
2, 10368, Note_on_c, 0, 71, 75
2, 10380, Note_on_c, 0, 71, 0
2, 10380, Note_on_c, 0, 86, 75
2, 10439, Note_on_c, 0, 86, 0
2, 10440, Note_on_c, 0, 84, 75
2, 10452, Note_on_c, 0, 84, 0
2, 10452, Note_on_c, 0, 83, 75
2, 10464, Note_on_c, 0, 83, 0
2, 10464, Note_on_c, 0, 81, 75
2, 10476, Note_on_c, 0, 81, 0
2, 10476, Note_on_c, 0, 79, 75
2, 10488, Note_on_c, 0, 79, 0
2, 10488, Note_on_c, 0, 78, 75
2, 10500, Note_on_c, 0, 78, 0
2, 10500, Note_on_c, 0, 79, 75
2, 10512, Note_on_c, 0, 79, 0
2, 10512, Note_on_c, 0, 78, 75
2, 10524, Note_on_c, 0, 78, 0
2, 10524, Note_on_c, 0, 76, 75
2, 10536, Note_on_c, 0, 76, 0
2, 10536, Note_on_c, 0, 74, 75
2, 10548, Note_on_c, 0, 74, 0
2, 10548, Note_on_c, 0, 72, 75
2, 10560, Note_on_c, 0, 72, 0
2, 10560, Note_on_c, 0, 71, 75
2, 10605, Note_on_c, 0, 71, 0
2, 10608, Note_on_c, 0, 69, 75
2, 10615, Note_on_c, 0, 69, 0
2, 10615, Note_on_c, 0, 71, 75
2, 10622, Note_on_c, 0, 71, 0
2, 10622, Note_on_c, 0, 69, 75
2, 10629, Note_on_c, 0, 69, 0
2, 10629, Note_on_c, 0, 71, 75
2, 10636, Note_on_c, 0, 71, 0
2, 10636, Note_on_c, 0, 69, 75
2, 10643, Note_on_c, 0, 69, 0
2, 10643, Note_on_c, 0, 67, 75
2, 10650, Note_on_c, 0, 67, 0
2, 10650, Note_on_c, 0, 69, 75
2, 10656, Note_on_c, 0, 69, 0
2, 10656, Note_on_c, 0, 67, 75
2, 10701, Note_on_c, 0, 67, 0
2, 10704, Note_on_c, 0, 62, 75
2, 10704, Note_on_c, 0, 59, 75
2, 10749, Note_on_c, 0, 62, 0
2, 10749, Note_on_c, 0, 59, 0
2, 10752, Note_on_c, 0, 62, 75
2, 10752, Note_on_c, 0, 59, 75
2, 10797, Note_on_c, 0, 62, 0
2, 10797, Note_on_c, 0, 59, 0
2, 10800, Note_on_c, 0, 59, 75
2, 10808, Note_on_c, 0, 62, 75
2, 10816, Note_on_c, 0, 67, 75
2, 10893, Note_on_c, 0, 67, 0
2, 10893, Note_on_c, 0, 62, 0
2, 10893, Note_on_c, 0, 59, 0
2, 10944, Note_on_c, 0, 74, 75
2, 11033, Note_on_c, 0, 74, 0
2, 11040, Note_on_c, 0, 72, 75
2, 11052, Note_on_c, 0, 72, 0
2, 11052, Note_on_c, 0, 71, 75
2, 11064, Note_on_c, 0, 71, 0
2, 11064, Note_on_c, 0, 69, 75
2, 11076, Note_on_c, 0, 69, 0
2, 11076, Note_on_c, 0, 67, 75
2, 11088, Note_on_c, 0, 67, 0
2, 11088, Note_on_c, 0, 67, 75
2, 11177, Note_on_c, 0, 67, 0
2, 11184, Note_on_c, 0, 68, 75
2, 11229, Note_on_c, 0, 68, 0
2, 11232, Note_on_c, 0, 69, 75
2, 11299, Note_on_c, 0, 69, 0
2, 11304, Note_on_c, 0, 71, 75
2, 11327, Note_on_c, 0, 71, 0
2, 11328, Note_on_c, 0, 69, 75
2, 11373, Note_on_c, 0, 69, 0
2, 11376, Note_on_c, 0, 69, 75
2, 11421, Note_on_c, 0, 69, 0
2, 11520, Note_on_c, 0, 64, 75
2, 11526, Note_on_c, 0, 64, 0
2, 11526, Note_on_c, 0, 69, 75
2, 11532, Note_on_c, 0, 69, 0
2, 11532, Note_on_c, 0, 72, 75
2, 11538, Note_on_c, 0, 72, 0
2, 11538, Note_on_c, 0, 76, 75
2, 11609, Note_on_c, 0, 76, 0
2, 11616, Note_on_c, 0, 74, 75
2, 11628, Note_on_c, 0, 74, 0
2, 11628, Note_on_c, 0, 72, 75
2, 11640, Note_on_c, 0, 72, 0
2, 11640, Note_on_c, 0, 71, 75
2, 11652, Note_on_c, 0, 71, 0
2, 11652, Note_on_c, 0, 69, 75
2, 11664, Note_on_c, 0, 69, 0
2, 11664, Note_on_c, 0, 69, 75
2, 11753, Note_on_c, 0, 69, 0
2, 11760, Note_on_c, 0, 70, 75
2, 11805, Note_on_c, 0, 70, 0
2, 11808, Note_on_c, 0, 71, 75
2, 11875, Note_on_c, 0, 71, 0
2, 11880, Note_on_c, 0, 72, 75
2, 11903, Note_on_c, 0, 72, 0
2, 11904, Note_on_c, 0, 71, 75
2, 11949, Note_on_c, 0, 71, 0
2, 11952, Note_on_c, 0, 71, 75
2, 11997, Note_on_c, 0, 71, 0
2, 12048, Note_on_c, 0, 71, 75
2, 12060, Note_on_c, 0, 71, 0
2, 12060, Note_on_c, 0, 75, 75
2, 12072, Note_on_c, 0, 75, 0
2, 12072, Note_on_c, 0, 78, 75
2, 12084, Note_on_c, 0, 78, 0
2, 12084, Note_on_c, 0, 83, 75
2, 12096, Note_on_c, 0, 83, 0
2, 12096, Note_on_c, 0, 81, 75
2, 12144, Note_on_c, 0, 81, 0
2, 12144, Note_on_c, 0, 79, 75
2, 12167, Note_on_c, 0, 79, 0
2, 12168, Note_on_c, 0, 83, 75
2, 12180, Note_on_c, 0, 83, 0
2, 12180, Note_on_c, 0, 81, 75
2, 12192, Note_on_c, 0, 81, 0
2, 12192, Note_on_c, 0, 79, 75
2, 12204, Note_on_c, 0, 79, 0
2, 12204, Note_on_c, 0, 78, 75
2, 12216, Note_on_c, 0, 78, 0
2, 12216, Note_on_c, 0, 76, 75
2, 12228, Note_on_c, 0, 76, 0
2, 12228, Note_on_c, 0, 74, 75
2, 12240, Note_on_c, 0, 74, 0
2, 12240, Note_on_c, 0, 74, 75
2, 12288, Note_on_c, 0, 74, 0
2, 12288, Note_on_c, 0, 72, 75
2, 12311, Note_on_c, 0, 72, 0
2, 12312, Note_on_c, 0, 76, 75
2, 12324, Note_on_c, 0, 76, 0
2, 12324, Note_on_c, 0, 74, 75
2, 12336, Note_on_c, 0, 74, 0
2, 12336, Note_on_c, 0, 72, 75
2, 12348, Note_on_c, 0, 72, 0
2, 12348, Note_on_c, 0, 71, 75
2, 12360, Note_on_c, 0, 71, 0
2, 12360, Note_on_c, 0, 69, 75
2, 12372, Note_on_c, 0, 69, 0
2, 12372, Note_on_c, 0, 67, 75
2, 12384, Note_on_c, 0, 67, 0
2, 12384, Note_on_c, 0, 67, 75
2, 12432, Note_on_c, 0, 67, 0
2, 12432, Note_on_c, 0, 66, 75
2, 12455, Note_on_c, 0, 66, 0
2, 12456, Note_on_c, 0, 81, 75
2, 12468, Note_on_c, 0, 81, 0
2, 12468, Note_on_c, 0, 79, 75
2, 12480, Note_on_c, 0, 79, 0
2, 12480, Note_on_c, 0, 78, 75
2, 12492, Note_on_c, 0, 78, 0
2, 12492, Note_on_c, 0, 76, 75
2, 12504, Note_on_c, 0, 76, 0
2, 12504, Note_on_c, 0, 74, 75
2, 12516, Note_on_c, 0, 74, 0
2, 12516, Note_on_c, 0, 72, 75
2, 12528, Note_on_c, 0, 72, 0
2, 12528, Note_on_c, 0, 72, 75
2, 12576, Note_on_c, 0, 72, 0
2, 12576, Note_on_c, 0, 71, 75
2, 12599, Note_on_c, 0, 71, 0
2, 12600, Note_on_c, 0, 74, 75
2, 12612, Note_on_c, 0, 74, 0
2, 12612, Note_on_c, 0, 72, 75
2, 12624, Note_on_c, 0, 72, 0
2, 12624, Note_on_c, 0, 71, 75
2, 12636, Note_on_c, 0, 71, 0
2, 12636, Note_on_c, 0, 69, 75
2, 12648, Note_on_c, 0, 69, 0
2, 12648, Note_on_c, 0, 67, 75
2, 12660, Note_on_c, 0, 67, 0
2, 12660, Note_on_c, 0, 66, 75
2, 12672, Note_on_c, 0, 66, 0
2, 12672, Note_on_c, 0, 66, 75
2, 12720, Note_on_c, 0, 66, 0
2, 12720, Note_on_c, 0, 64, 75
2, 12743, Note_on_c, 0, 64, 0
2, 12744, Note_on_c, 0, 79, 75
2, 12756, Note_on_c, 0, 79, 0
2, 12756, Note_on_c, 0, 78, 75
2, 12768, Note_on_c, 0, 78, 0
2, 12768, Note_on_c, 0, 76, 75
2, 12780, Note_on_c, 0, 76, 0
2, 12780, Note_on_c, 0, 74, 75
2, 12792, Note_on_c, 0, 74, 0
2, 12792, Note_on_c, 0, 72, 75
2, 12804, Note_on_c, 0, 72, 0
2, 12804, Note_on_c, 0, 71, 75
2, 12816, Note_on_c, 0, 71, 0
2, 12816, Note_on_c, 0, 71, 75
2, 12864, Note_on_c, 0, 71, 0
2, 12864, Note_on_c, 0, 69, 75
2, 12887, Note_on_c, 0, 69, 0
2, 12888, Note_on_c, 0, 72, 75
2, 12900, Note_on_c, 0, 72, 0
2, 12900, Note_on_c, 0, 71, 75
2, 12912, Note_on_c, 0, 71, 0
2, 12912, Note_on_c, 0, 69, 75
2, 12924, Note_on_c, 0, 69, 0
2, 12924, Note_on_c, 0, 67, 75
2, 12936, Note_on_c, 0, 67, 0
2, 12936, Note_on_c, 0, 66, 75
2, 12948, Note_on_c, 0, 66, 0
2, 12948, Note_on_c, 0, 64, 75
2, 12960, Note_on_c, 0, 64, 0
2, 12960, Note_on_c, 0, 64, 75
2, 13008, Note_on_c, 0, 64, 0
2, 13008, Note_on_c, 0, 63, 75
2, 13031, Note_on_c, 0, 63, 0
2, 13032, Note_on_c, 0, 78, 75
2, 13044, Note_on_c, 0, 78, 0
2, 13044, Note_on_c, 0, 76, 75
2, 13056, Note_on_c, 0, 76, 0
2, 13056, Note_on_c, 0, 75, 75
2, 13068, Note_on_c, 0, 75, 0
2, 13068, Note_on_c, 0, 72, 75
2, 13080, Note_on_c, 0, 72, 0
2, 13080, Note_on_c, 0, 71, 75
2, 13092, Note_on_c, 0, 71, 0
2, 13092, Note_on_c, 0, 69, 75
2, 13104, Note_on_c, 0, 69, 0
2, 13104, Note_on_c, 0, 69, 75
2, 13149, Note_on_c, 0, 69, 0
2, 13152, Note_on_c, 0, 67, 75
2, 13197, Note_on_c, 0, 67, 0
2, 13200, Note_on_c, 0, 66, 75
2, 13245, Note_on_c, 0, 66, 0
2, 13248, Note_on_c, 0, 64, 75
2, 13271, Note_on_c, 0, 64, 0
2, 13272, Note_on_c, 0, 63, 75
2, 13295, Note_on_c, 0, 63, 0
2, 13296, Note_on_c, 0, 64, 76
2, 13319, Note_on_c, 0, 64, 0
2, 13320, Note_on_c, 0, 67, 76
2, 13343, Note_on_c, 0, 67, 0
2, 13344, Note_on_c, 0, 66, 77
2, 13367, Note_on_c, 0, 66, 0
2, 13368, Note_on_c, 0, 64, 78
2, 13391, Note_on_c, 0, 64, 0
2, 13392, Note_on_c, 0, 71, 78
2, 13392, Note_on_c, 0, 66, 78
2, 13392, Note_on_c, 0, 63, 78
2, 13437, Note_on_c, 0, 71, 0
2, 13437, Note_on_c, 0, 66, 0
2, 13437, Note_on_c, 0, 63, 0
2, 13488, Note_on_c, 0, 67, 80
2, 13488, Note_on_c, 0, 64, 80
2, 13533, Note_on_c, 0, 67, 0
2, 13533, Note_on_c, 0, 64, 0
2, 13536, Note_on_c, 0, 66, 79
2, 13536, Note_on_c, 0, 63, 79
2, 13581, Note_on_c, 0, 66, 0
2, 13581, Note_on_c, 0, 63, 0
2, 13632, Note_on_c, 0, 64, 77
2, 13632, Note_on_c, 0, 58, 77
2, 13677, Note_on_c, 0, 64, 0
2, 13677, Note_on_c, 0, 58, 0
2, 13680, Note_on_c, 0, 63, 76
2, 13680, Note_on_c, 0, 59, 76
2, 13769, Note_on_c, 0, 63, 0
2, 13769, Note_on_c, 0, 59, 0
2, 13824, Note_on_c, 0, 83, 70
2, 13913, Note_on_c, 0, 83, 0
2, 13920, Note_on_c, 0, 81, 70
2, 13932, Note_on_c, 0, 81, 0
2, 13932, Note_on_c, 0, 79, 70
2, 13944, Note_on_c, 0, 79, 0
2, 13944, Note_on_c, 0, 78, 70
2, 13956, Note_on_c, 0, 78, 0
2, 13956, Note_on_c, 0, 76, 70
2, 13968, Note_on_c, 0, 76, 0
2, 13968, Note_on_c, 0, 76, 70
2, 14057, Note_on_c, 0, 76, 0
2, 14064, Note_on_c, 0, 76, 70
2, 14109, Note_on_c, 0, 76, 0
2, 14112, Note_on_c, 0, 76, 70
2, 14179, Note_on_c, 0, 76, 0
2, 14184, Note_on_c, 0, 78, 70
2, 14207, Note_on_c, 0, 78, 0
2, 14208, Note_on_c, 0, 76, 70
2, 14241, Note_on_c, 0, 76, 0
2, 14244, Note_on_c, 0, 76, 70
2, 14250, Note_on_c, 0, 76, 0
2, 14250, Note_on_c, 0, 78, 70
2, 14256, Note_on_c, 0, 78, 0
2, 14256, Note_on_c, 0, 79, 70
2, 14301, Note_on_c, 0, 79, 0
2, 14352, Note_on_c, 0, 67, 70
2, 14397, Note_on_c, 0, 67, 0
2, 14400, Note_on_c, 0, 69, 70
2, 14467, Note_on_c, 0, 69, 0
2, 14472, Note_on_c, 0, 72, 70
2, 14484, Note_on_c, 0, 72, 0
2, 14484, Note_on_c, 0, 71, 70
2, 14496, Note_on_c, 0, 71, 0
2, 14496, Note_on_c, 0, 69, 70
2, 14508, Note_on_c, 0, 69, 0
2, 14508, Note_on_c, 0, 67, 70
2, 14520, Note_on_c, 0, 67, 0
2, 14520, Note_on_c, 0, 66, 70
2, 14532, Note_on_c, 0, 66, 0
2, 14532, Note_on_c, 0, 64, 70
2, 14544, Note_on_c, 0, 64, 0
2, 14544, Note_on_c, 0, 63, 70
2, 14589, Note_on_c, 0, 63, 0
2, 14592, Note_on_c, 0, 66, 70
2, 14615, Note_on_c, 0, 66, 0
2, 14616, Note_on_c, 0, 60, 70
2, 14639, Note_on_c, 0, 60, 0
2, 14640, Note_on_c, 0, 59, 70
2, 14646, Note_on_c, 0, 59, 0
2, 14646, Note_on_c, 0, 60, 70
2, 14652, Note_on_c, 0, 60, 0
2, 14652, Note_on_c, 0, 59, 70
2, 14663, Note_on_c, 0, 59, 0
2, 14664, Note_on_c, 0, 57, 70
2, 14687, Note_on_c, 0, 57, 0
2, 14688, Note_on_c, 0, 56, 70
2, 14733, Note_on_c, 0, 56, 0
2, 14736, Note_on_c, 0, 65, 75
2, 14736, Note_on_c, 0, 62, 75
2, 14781, Note_on_c, 0, 65, 0
2, 14781, Note_on_c, 0, 62, 0
2, 14784, Note_on_c, 0, 65, 75
2, 14784, Note_on_c, 0, 62, 75
2, 14829, Note_on_c, 0, 65, 0
2, 14829, Note_on_c, 0, 62, 0
2, 14832, Note_on_c, 0, 65, 75
2, 14832, Note_on_c, 0, 62, 75
2, 14899, Note_on_c, 0, 65, 0
2, 14899, Note_on_c, 0, 62, 0
2, 14904, Note_on_c, 0, 64, 75
2, 14904, Note_on_c, 0, 60, 75
2, 14927, Note_on_c, 0, 64, 0
2, 14927, Note_on_c, 0, 60, 0
2, 14928, Note_on_c, 0, 62, 75
2, 14928, Note_on_c, 0, 59, 75
2, 14973, Note_on_c, 0, 62, 0
2, 14973, Note_on_c, 0, 59, 0
2, 14976, Note_on_c, 0, 60, 75
2, 14976, Note_on_c, 0, 57, 75
2, 15021, Note_on_c, 0, 60, 0
2, 15021, Note_on_c, 0, 57, 0
2, 15024, Note_on_c, 0, 72, 75
2, 15069, Note_on_c, 0, 72, 0
2, 15072, Note_on_c, 0, 72, 75
2, 15117, Note_on_c, 0, 72, 0
2, 15120, Note_on_c, 0, 72, 75
2, 15187, Note_on_c, 0, 72, 0
2, 15192, Note_on_c, 0, 71, 75
2, 15204, Note_on_c, 0, 71, 0
2, 15204, Note_on_c, 0, 69, 75
2, 15216, Note_on_c, 0, 69, 0
2, 15216, Note_on_c, 0, 69, 75
2, 15228, Note_on_c, 0, 69, 0
2, 15228, Note_on_c, 0, 67, 75
2, 15240, Note_on_c, 0, 67, 0
2, 15240, Note_on_c, 0, 66, 75
2, 15252, Note_on_c, 0, 66, 0
2, 15252, Note_on_c, 0, 64, 75
2, 15264, Note_on_c, 0, 64, 0
2, 15264, Note_on_c, 0, 63, 75
2, 15309, Note_on_c, 0, 63, 0
2, 15312, Note_on_c, 0, 78, 75
2, 15357, Note_on_c, 0, 78, 0
2, 15360, Note_on_c, 0, 78, 75
2, 15405, Note_on_c, 0, 78, 0
2, 15408, Note_on_c, 0, 78, 75
2, 15475, Note_on_c, 0, 78, 0
2, 15480, Note_on_c, 0, 75, 75
2, 15503, Note_on_c, 0, 75, 0
2, 15504, Note_on_c, 0, 69, 75
2, 15549, Note_on_c, 0, 69, 0
2, 15552, Note_on_c, 0, 67, 75
2, 15619, Note_on_c, 0, 67, 0
2, 15624, Note_on_c, 0, 71, 75
2, 15636, Note_on_c, 0, 71, 0
2, 15636, Note_on_c, 0, 67, 75
2, 15648, Note_on_c, 0, 67, 0
2, 15648, Note_on_c, 0, 64, 75
2, 15693, Note_on_c, 0, 64, 0
2, 15696, Note_on_c, 0, 66, 75
2, 15763, Note_on_c, 0, 66, 0
2, 15768, Note_on_c, 0, 69, 75
2, 15780, Note_on_c, 0, 69, 0
2, 15780, Note_on_c, 0, 66, 75
2, 15792, Note_on_c, 0, 66, 0
2, 15792, Note_on_c, 0, 63, 75
2, 15837, Note_on_c, 0, 63, 0
2, 15840, Note_on_c, 0, 64, 75
2, 15885, Note_on_c, 0, 64, 0
2, 15888, Note_on_c, 0, 59, 75
2, 15933, Note_on_c, 0, 59, 0
2, 15936, Note_on_c, 0, 67, 75
2, 15981, Note_on_c, 0, 67, 0
2, 15984, Note_on_c, 0, 64, 75
2, 16029, Note_on_c, 0, 64, 0
2, 16080, Note_on_c, 0, 83, 70
2, 16125, Note_on_c, 0, 83, 0
2, 16128, Note_on_c, 0, 81, 70
2, 16176, Note_on_c, 0, 81, 0
2, 16176, Note_on_c, 0, 79, 70
2, 16217, Note_on_c, 0, 79, 0
2, 16224, Note_on_c, 0, 83, 70
2, 16269, Note_on_c, 0, 83, 0
2, 16272, Note_on_c, 0, 79, 70
2, 16320, Note_on_c, 0, 79, 0
2, 16320, Note_on_c, 0, 78, 70
2, 16361, Note_on_c, 0, 78, 0
2, 16368, Note_on_c, 0, 83, 70
2, 16413, Note_on_c, 0, 83, 0
2, 16416, Note_on_c, 0, 81, 70
2, 16440, Note_on_c, 0, 81, 0
2, 16440, Note_on_c, 0, 79, 70
2, 16461, Note_on_c, 0, 79, 0
2, 16464, Note_on_c, 0, 78, 70
2, 16487, Note_on_c, 0, 78, 0
2, 16488, Note_on_c, 0, 76, 70
2, 16511, Note_on_c, 0, 76, 0
2, 16512, Note_on_c, 0, 75, 70
2, 16535, Note_on_c, 0, 75, 0
2, 16536, Note_on_c, 0, 76, 70
2, 16559, Note_on_c, 0, 76, 0
2, 16560, Note_on_c, 0, 78, 70
2, 16649, Note_on_c, 0, 78, 0
2, 16656, Note_on_c, 0, 76, 75
2, 16701, Note_on_c, 0, 76, 0
2, 16704, Note_on_c, 0, 74, 75
2, 16752, Note_on_c, 0, 74, 0
2, 16752, Note_on_c, 0, 72, 75
2, 16793, Note_on_c, 0, 72, 0
2, 16800, Note_on_c, 0, 76, 75
2, 16845, Note_on_c, 0, 76, 0
2, 16848, Note_on_c, 0, 72, 75
2, 16896, Note_on_c, 0, 72, 0
2, 16896, Note_on_c, 0, 71, 75
2, 16937, Note_on_c, 0, 71, 0
2, 16944, Note_on_c, 0, 76, 75
2, 16989, Note_on_c, 0, 76, 0
2, 16992, Note_on_c, 0, 71, 75
2, 17016, Note_on_c, 0, 71, 0
2, 17016, Note_on_c, 0, 69, 75
2, 17037, Note_on_c, 0, 69, 0
2, 17040, Note_on_c, 0, 69, 75
2, 17085, Note_on_c, 0, 69, 0
2, 17088, Note_on_c, 0, 69, 75
2, 17133, Note_on_c, 0, 69, 0
2, 17136, Note_on_c, 0, 69, 75
2, 17203, Note_on_c, 0, 69, 0
2, 17208, Note_on_c, 0, 66, 75
2, 17231, Note_on_c, 0, 66, 0
2, 17232, Note_on_c, 0, 67, 75
2, 17277, Note_on_c, 0, 67, 0
2, 17280, Note_on_c, 0, 67, 75
2, 17304, Note_on_c, 0, 67, 0
2, 17304, Note_on_c, 0, 66, 75
2, 17325, Note_on_c, 0, 66, 0
2, 17328, Note_on_c, 0, 66, 75
2, 17352, Note_on_c, 0, 66, 0
2, 17352, Note_on_c, 0, 64, 75
2, 17373, Note_on_c, 0, 64, 0
2, 17376, Note_on_c, 0, 64, 75
2, 17400, Note_on_c, 0, 64, 0
2, 17400, Note_on_c, 0, 63, 75
2, 17421, Note_on_c, 0, 63, 0
2, 17424, Note_on_c, 0, 64, 75
2, 17469, Note_on_c, 0, 64, 0
2, 17496, Note_on_c, 0, 82, 75
2, 17508, Note_on_c, 0, 82, 0
2, 17508, Note_on_c, 0, 83, 75
2, 17520, Note_on_c, 0, 83, 0
2, 17520, Note_on_c, 0, 81, 75
2, 17532, Note_on_c, 0, 81, 0
2, 17532, Note_on_c, 0, 79, 75
2, 17544, Note_on_c, 0, 79, 0
2, 17544, Note_on_c, 0, 78, 75
2, 17556, Note_on_c, 0, 78, 0
2, 17556, Note_on_c, 0, 76, 75
2, 17568, Note_on_c, 0, 76, 0
2, 17568, Note_on_c, 0, 76, 75
2, 17613, Note_on_c, 0, 76, 0
2, 17640, Note_on_c, 0, 82, 75
2, 17652, Note_on_c, 0, 82, 0
2, 17652, Note_on_c, 0, 83, 75
2, 17664, Note_on_c, 0, 83, 0
2, 17664, Note_on_c, 0, 81, 75
2, 17676, Note_on_c, 0, 81, 0
2, 17676, Note_on_c, 0, 79, 75
2, 17688, Note_on_c, 0, 79, 0
2, 17688, Note_on_c, 0, 78, 75
2, 17700, Note_on_c, 0, 78, 0
2, 17700, Note_on_c, 0, 76, 75
2, 17712, Note_on_c, 0, 76, 0
2, 17712, Note_on_c, 0, 76, 75
2, 17757, Note_on_c, 0, 76, 0
2, 17784, Note_on_c, 0, 82, 75
2, 17796, Note_on_c, 0, 82, 0
2, 17796, Note_on_c, 0, 83, 75
2, 17808, Note_on_c, 0, 83, 0
2, 17808, Note_on_c, 0, 81, 75
2, 17820, Note_on_c, 0, 81, 0
2, 17820, Note_on_c, 0, 79, 75
2, 17832, Note_on_c, 0, 79, 0
2, 17832, Note_on_c, 0, 78, 75
2, 17844, Note_on_c, 0, 78, 0
2, 17844, Note_on_c, 0, 76, 75
2, 17856, Note_on_c, 0, 76, 0
2, 17856, Note_on_c, 0, 75, 75
2, 17901, Note_on_c, 0, 75, 0
2, 17904, Note_on_c, 0, 84, 75
2, 17949, Note_on_c, 0, 84, 0
2, 17952, Note_on_c, 0, 84, 75
2, 17997, Note_on_c, 0, 84, 0
2, 18000, Note_on_c, 0, 84, 75
2, 18067, Note_on_c, 0, 84, 0
2, 18072, Note_on_c, 0, 83, 75
2, 18095, Note_on_c, 0, 83, 0
2, 18096, Note_on_c, 0, 81, 75
2, 18141, Note_on_c, 0, 81, 0
2, 18144, Note_on_c, 0, 79, 75
2, 18233, Note_on_c, 0, 79, 0
2, 18240, Note_on_c, 0, 83, 75
2, 18252, Note_on_c, 0, 83, 0
2, 18252, Note_on_c, 0, 81, 75
2, 18264, Note_on_c, 0, 81, 0
2, 18264, Note_on_c, 0, 79, 75
2, 18276, Note_on_c, 0, 79, 0
2, 18276, Note_on_c, 0, 78, 75
2, 18288, Note_on_c, 0, 78, 0
2, 18288, Note_on_c, 0, 78, 75
2, 18377, Note_on_c, 0, 78, 0
2, 18384, Note_on_c, 0, 81, 75
2, 18396, Note_on_c, 0, 81, 0
2, 18396, Note_on_c, 0, 78, 75
2, 18408, Note_on_c, 0, 78, 0
2, 18408, Note_on_c, 0, 76, 75
2, 18420, Note_on_c, 0, 76, 0
2, 18420, Note_on_c, 0, 75, 75
2, 18432, Note_on_c, 0, 75, 0
2, 18432, Note_on_c, 0, 76, 75
2, 18477, Note_on_c, 0, 76, 0
2, 18480, Note_on_c, 0, 70, 75
2, 18480, Note_on_c, 0, 64, 75
2, 18525, Note_on_c, 0, 70, 0
2, 18525, Note_on_c, 0, 64, 0
2, 18528, Note_on_c, 0, 70, 75
2, 18528, Note_on_c, 0, 64, 75
2, 18573, Note_on_c, 0, 70, 0
2, 18573, Note_on_c, 0, 64, 0
2, 18576, Note_on_c, 0, 70, 75
2, 18709, Note_on_c, 0, 70, 0
2, 18720, Note_on_c, 0, 71, 75
2, 18720, Note_on_c, 0, 63, 75
2, 18765, Note_on_c, 0, 71, 0
2, 18765, Note_on_c, 0, 63, 0
2, 18768, Note_on_c, 0, 59, 75
2, 18813, Note_on_c, 0, 59, 0
2, 18816, Note_on_c, 0, 59, 75
2, 18861, Note_on_c, 0, 59, 0
2, 18864, Note_on_c, 0, 59, 75
2, 19097, Note_on_c, 0, 59, 0
2, 19152, Note_on_c, 0, 71, 75
2, 19197, Note_on_c, 0, 71, 0
2, 19200, Note_on_c, 0, 69, 75
2, 19223, Note_on_c, 0, 69, 0
2, 19224, Note_on_c, 0, 68, 75
2, 19247, Note_on_c, 0, 68, 0
2, 19248, Note_on_c, 0, 66, 75
2, 19271, Note_on_c, 0, 66, 0
2, 19272, Note_on_c, 0, 64, 75
2, 19295, Note_on_c, 0, 64, 0
2, 19296, Note_on_c, 0, 73, 75
2, 19316, Note_on_c, 0, 73, 0
2, 19392, Note_on_c, 0, 73, 75
2, 19415, Note_on_c, 0, 73, 0
2, 19416, Note_on_c, 0, 71, 75
2, 19439, Note_on_c, 0, 71, 0
2, 19440, Note_on_c, 0, 69, 75
2, 19463, Note_on_c, 0, 69, 0
2, 19464, Note_on_c, 0, 68, 75
2, 19487, Note_on_c, 0, 68, 0
2, 19488, Note_on_c, 0, 66, 75
2, 19508, Note_on_c, 0, 66, 0
2, 19584, Note_on_c, 0, 69, 75
2, 19607, Note_on_c, 0, 69, 0
2, 19608, Note_on_c, 0, 68, 75
2, 19631, Note_on_c, 0, 68, 0
2, 19632, Note_on_c, 0, 66, 75
2, 19655, Note_on_c, 0, 66, 0
2, 19656, Note_on_c, 0, 64, 75
2, 19679, Note_on_c, 0, 64, 0
2, 19680, Note_on_c, 0, 76, 75
2, 19725, Note_on_c, 0, 76, 0
2, 19728, Note_on_c, 0, 68, 75
2, 19751, Note_on_c, 0, 68, 0
2, 19752, Note_on_c, 0, 73, 75
2, 19775, Note_on_c, 0, 73, 0
2, 19776, Note_on_c, 0, 71, 75
2, 19821, Note_on_c, 0, 71, 0
2, 19824, Note_on_c, 0, 69, 75
2, 19836, Note_on_c, 0, 69, 0
2, 19836, Note_on_c, 0, 71, 75
2, 19848, Note_on_c, 0, 71, 0
2, 19848, Note_on_c, 0, 69, 75
2, 19860, Note_on_c, 0, 69, 0
2, 19860, Note_on_c, 0, 71, 75
2, 19869, Note_on_c, 0, 71, 0
2, 19872, Note_on_c, 0, 68, 75
2, 19917, Note_on_c, 0, 68, 0
2, 19920, Note_on_c, 0, 71, 75
2, 19965, Note_on_c, 0, 71, 0
2, 19968, Note_on_c, 0, 69, 75
2, 19991, Note_on_c, 0, 69, 0
2, 19992, Note_on_c, 0, 68, 75
2, 20015, Note_on_c, 0, 68, 0
2, 20016, Note_on_c, 0, 66, 75
2, 20039, Note_on_c, 0, 66, 0
2, 20040, Note_on_c, 0, 64, 75
2, 20063, Note_on_c, 0, 64, 0
2, 20064, Note_on_c, 0, 73, 75
2, 20084, Note_on_c, 0, 73, 0
2, 20160, Note_on_c, 0, 73, 75
2, 20183, Note_on_c, 0, 73, 0
2, 20184, Note_on_c, 0, 71, 75
2, 20207, Note_on_c, 0, 71, 0
2, 20208, Note_on_c, 0, 69, 75
2, 20231, Note_on_c, 0, 69, 0
2, 20232, Note_on_c, 0, 68, 75
2, 20255, Note_on_c, 0, 68, 0
2, 20256, Note_on_c, 0, 66, 75
2, 20276, Note_on_c, 0, 66, 0
2, 20352, Note_on_c, 0, 68, 75
2, 20375, Note_on_c, 0, 68, 0
2, 20376, Note_on_c, 0, 71, 75
2, 20399, Note_on_c, 0, 71, 0
2, 20400, Note_on_c, 0, 64, 75
2, 20423, Note_on_c, 0, 64, 0
2, 20424, Note_on_c, 0, 68, 75
2, 20447, Note_on_c, 0, 68, 0
2, 20448, Note_on_c, 0, 66, 75
2, 20471, Note_on_c, 0, 66, 0
2, 20472, Note_on_c, 0, 69, 75
2, 20495, Note_on_c, 0, 69, 0
2, 20496, Note_on_c, 0, 63, 75
2, 20519, Note_on_c, 0, 63, 0
2, 20520, Note_on_c, 0, 66, 75
2, 20543, Note_on_c, 0, 66, 0
2, 20544, Note_on_c, 0, 64, 75
2, 20633, Note_on_c, 0, 64, 0
2, 20688, Note_on_c, 0, 59, 75
2, 20708, Note_on_c, 0, 59, 0
2, 20736, Note_on_c, 0, 59, 75
2, 20869, Note_on_c, 0, 59, 0
2, 20880, Note_on_c, 0, 68, 75
2, 20903, Note_on_c, 0, 68, 0
2, 20904, Note_on_c, 0, 64, 75
2, 20927, Note_on_c, 0, 64, 0
2, 20928, Note_on_c, 0, 59, 75
2, 21061, Note_on_c, 0, 59, 0
2, 21072, Note_on_c, 0, 69, 75
2, 21095, Note_on_c, 0, 69, 0
2, 21096, Note_on_c, 0, 66, 75
2, 21119, Note_on_c, 0, 66, 0
2, 21120, Note_on_c, 0, 68, 75
2, 21143, Note_on_c, 0, 68, 0
2, 21144, Note_on_c, 0, 64, 75
2, 21167, Note_on_c, 0, 64, 0
2, 21168, Note_on_c, 0, 69, 75
2, 21191, Note_on_c, 0, 69, 0
2, 21192, Note_on_c, 0, 64, 75
2, 21215, Note_on_c, 0, 64, 0
2, 21216, Note_on_c, 0, 71, 75
2, 21261, Note_on_c, 0, 71, 0
2, 21264, Note_on_c, 0, 59, 75
2, 21284, Note_on_c, 0, 59, 0
2, 21312, Note_on_c, 0, 59, 75
2, 21445, Note_on_c, 0, 59, 0
2, 21456, Note_on_c, 0, 68, 75
2, 21479, Note_on_c, 0, 68, 0
2, 21480, Note_on_c, 0, 64, 75
2, 21503, Note_on_c, 0, 64, 0
2, 21504, Note_on_c, 0, 59, 75
2, 21637, Note_on_c, 0, 59, 0
2, 21648, Note_on_c, 0, 69, 75
2, 21671, Note_on_c, 0, 69, 0
2, 21672, Note_on_c, 0, 66, 75
2, 21695, Note_on_c, 0, 66, 0
2, 21696, Note_on_c, 0, 68, 75
2, 21719, Note_on_c, 0, 68, 0
2, 21720, Note_on_c, 0, 64, 75
2, 21743, Note_on_c, 0, 64, 0
2, 21744, Note_on_c, 0, 69, 75
2, 21767, Note_on_c, 0, 69, 0
2, 21768, Note_on_c, 0, 64, 75
2, 21791, Note_on_c, 0, 64, 0
2, 21792, Note_on_c, 0, 71, 75
2, 21837, Note_on_c, 0, 71, 0
2, 21840, Note_on_c, 0, 76, 75
2, 21885, Note_on_c, 0, 76, 0
2, 21888, Note_on_c, 0, 75, 75
2, 21984, Note_on_c, 0, 75, 0
2, 21984, Note_on_c, 0, 73, 75
2, 22029, Note_on_c, 0, 73, 0
2, 22032, Note_on_c, 0, 76, 75
2, 22077, Note_on_c, 0, 76, 0
2, 22080, Note_on_c, 0, 73, 75
2, 22176, Note_on_c, 0, 73, 0
2, 22176, Note_on_c, 0, 71, 75
2, 22199, Note_on_c, 0, 71, 0
2, 22200, Note_on_c, 0, 76, 75
2, 22223, Note_on_c, 0, 76, 0
2, 22224, Note_on_c, 0, 80, 75
2, 22247, Note_on_c, 0, 80, 0
2, 22248, Note_on_c, 0, 83, 75
2, 22271, Note_on_c, 0, 83, 0
2, 22272, Note_on_c, 0, 71, 75
2, 22361, Note_on_c, 0, 71, 0
2, 22368, Note_on_c, 0, 69, 75
2, 22413, Note_on_c, 0, 69, 0
2, 22416, Note_on_c, 0, 68, 75
2, 22461, Note_on_c, 0, 68, 0
2, 22464, Note_on_c, 0, 68, 75
2, 22476, Note_on_c, 0, 68, 0
2, 22476, Note_on_c, 0, 69, 75
2, 22488, Note_on_c, 0, 69, 0
2, 22488, Note_on_c, 0, 68, 75
2, 22509, Note_on_c, 0, 68, 0
2, 22512, Note_on_c, 0, 66, 75
2, 22557, Note_on_c, 0, 66, 0
2, 22608, Note_on_c, 0, 78, 75
2, 22653, Note_on_c, 0, 78, 0
2, 22656, Note_on_c, 0, 76, 75
2, 22679, Note_on_c, 0, 76, 0
2, 22680, Note_on_c, 0, 75, 75
2, 22703, Note_on_c, 0, 75, 0
2, 22704, Note_on_c, 0, 73, 75
2, 22727, Note_on_c, 0, 73, 0
2, 22728, Note_on_c, 0, 71, 75
2, 22751, Note_on_c, 0, 71, 0
2, 22752, Note_on_c, 0, 83, 75
2, 22797, Note_on_c, 0, 83, 0
2, 22800, Note_on_c, 0, 71, 75
2, 22845, Note_on_c, 0, 71, 0
2, 22848, Note_on_c, 0, 70, 75
2, 22896, Note_on_c, 0, 70, 0
2, 22896, Note_on_c, 0, 71, 75
2, 22941, Note_on_c, 0, 71, 0
2, 22944, Note_on_c, 0, 70, 75
2, 22992, Note_on_c, 0, 70, 0
2, 22992, Note_on_c, 0, 71, 75
2, 23037, Note_on_c, 0, 71, 0
2, 23040, Note_on_c, 0, 76, 75
2, 23063, Note_on_c, 0, 76, 0
2, 23064, Note_on_c, 0, 80, 75
2, 23087, Note_on_c, 0, 80, 0
2, 23088, Note_on_c, 0, 73, 75
2, 23111, Note_on_c, 0, 73, 0
2, 23112, Note_on_c, 0, 76, 75
2, 23135, Note_on_c, 0, 76, 0
2, 23136, Note_on_c, 0, 75, 75
2, 23181, Note_on_c, 0, 75, 0
2, 23184, Note_on_c, 0, 78, 70
2, 23229, Note_on_c, 0, 78, 0
2, 23232, Note_on_c, 0, 76, 70
2, 23255, Note_on_c, 0, 76, 0
2, 23256, Note_on_c, 0, 75, 70
2, 23279, Note_on_c, 0, 75, 0
2, 23280, Note_on_c, 0, 73, 70
2, 23303, Note_on_c, 0, 73, 0
2, 23304, Note_on_c, 0, 71, 70
2, 23327, Note_on_c, 0, 71, 0
2, 23328, Note_on_c, 0, 83, 70
2, 23373, Note_on_c, 0, 83, 0
2, 23376, Note_on_c, 0, 71, 70
2, 23421, Note_on_c, 0, 71, 0
2, 23424, Note_on_c, 0, 70, 70
2, 23472, Note_on_c, 0, 70, 0
2, 23472, Note_on_c, 0, 71, 70
2, 23517, Note_on_c, 0, 71, 0
2, 23520, Note_on_c, 0, 70, 70
2, 23568, Note_on_c, 0, 70, 0
2, 23568, Note_on_c, 0, 71, 70
2, 23613, Note_on_c, 0, 71, 0
2, 23616, Note_on_c, 0, 76, 70
2, 23639, Note_on_c, 0, 76, 0
2, 23640, Note_on_c, 0, 80, 70
2, 23663, Note_on_c, 0, 80, 0
2, 23664, Note_on_c, 0, 73, 70
2, 23687, Note_on_c, 0, 73, 0
2, 23688, Note_on_c, 0, 76, 70
2, 23711, Note_on_c, 0, 76, 0
2, 23712, Note_on_c, 0, 75, 71
2, 23735, Note_on_c, 0, 75, 0
2, 23736, Note_on_c, 0, 78, 71
2, 23759, Note_on_c, 0, 78, 0
2, 23760, Note_on_c, 0, 71, 71
2, 23783, Note_on_c, 0, 71, 0
2, 23784, Note_on_c, 0, 75, 72
2, 23807, Note_on_c, 0, 75, 0
2, 23808, Note_on_c, 0, 73, 72
2, 23831, Note_on_c, 0, 73, 0
2, 23832, Note_on_c, 0, 76, 72
2, 23855, Note_on_c, 0, 76, 0
2, 23856, Note_on_c, 0, 70, 73
2, 23879, Note_on_c, 0, 70, 0
2, 23880, Note_on_c, 0, 73, 73
2, 23903, Note_on_c, 0, 73, 0
2, 23904, Note_on_c, 0, 71, 73
2, 23927, Note_on_c, 0, 71, 0
2, 23928, Note_on_c, 0, 75, 74
2, 23951, Note_on_c, 0, 75, 0
2, 23952, Note_on_c, 0, 78, 74
2, 23975, Note_on_c, 0, 78, 0
2, 23976, Note_on_c, 0, 75, 74
2, 23999, Note_on_c, 0, 75, 0
2, 24000, Note_on_c, 0, 76, 75
2, 24023, Note_on_c, 0, 76, 0
2, 24024, Note_on_c, 0, 80, 75
2, 24047, Note_on_c, 0, 80, 0
2, 24048, Note_on_c, 0, 73, 75
2, 24071, Note_on_c, 0, 73, 0
2, 24072, Note_on_c, 0, 76, 76
2, 24095, Note_on_c, 0, 76, 0
2, 24096, Note_on_c, 0, 75, 76
2, 24119, Note_on_c, 0, 75, 0
2, 24120, Note_on_c, 0, 78, 77
2, 24143, Note_on_c, 0, 78, 0
2, 24144, Note_on_c, 0, 71, 77
2, 24167, Note_on_c, 0, 71, 0
2, 24168, Note_on_c, 0, 75, 77
2, 24191, Note_on_c, 0, 75, 0
2, 24192, Note_on_c, 0, 73, 78
2, 24215, Note_on_c, 0, 73, 0
2, 24216, Note_on_c, 0, 76, 78
2, 24239, Note_on_c, 0, 76, 0
2, 24240, Note_on_c, 0, 70, 79
2, 24263, Note_on_c, 0, 70, 0
2, 24264, Note_on_c, 0, 73, 79
2, 24287, Note_on_c, 0, 73, 0
2, 24288, Note_on_c, 0, 71, 80
2, 24311, Note_on_c, 0, 71, 0
2, 24312, Note_on_c, 0, 75, 80
2, 24335, Note_on_c, 0, 75, 0
2, 24336, Note_on_c, 0, 78, 80
2, 24359, Note_on_c, 0, 78, 0
2, 24360, Note_on_c, 0, 83, 80
2, 24383, Note_on_c, 0, 83, 0
2, 24384, Note_on_c, 0, 78, 96
2, 24480, Note_on_c, 0, 78, 0
2, 24480, Note_on_c, 0, 77, 80
2, 24503, Note_on_c, 0, 77, 0
2, 24504, Note_on_c, 0, 71, 80
2, 24527, Note_on_c, 0, 71, 0
2, 24528, Note_on_c, 0, 77, 80
2, 24551, Note_on_c, 0, 77, 0
2, 24552, Note_on_c, 0, 83, 80
2, 24575, Note_on_c, 0, 83, 0
2, 24576, Note_on_c, 0, 78, 96
2, 24672, Note_on_c, 0, 78, 0
2, 24672, Note_on_c, 0, 77, 80
2, 24695, Note_on_c, 0, 77, 0
2, 24696, Note_on_c, 0, 71, 80
2, 24719, Note_on_c, 0, 71, 0
2, 24720, Note_on_c, 0, 77, 80
2, 24743, Note_on_c, 0, 77, 0
2, 24744, Note_on_c, 0, 83, 80
2, 24767, Note_on_c, 0, 83, 0
2, 24768, Note_on_c, 0, 78, 96
2, 24864, Note_on_c, 0, 78, 0
2, 24864, Note_on_c, 0, 77, 80
2, 24887, Note_on_c, 0, 77, 0
2, 24888, Note_on_c, 0, 86, 80
2, 24911, Note_on_c, 0, 86, 0
2, 24912, Note_on_c, 0, 85, 80
2, 24935, Note_on_c, 0, 85, 0
2, 24936, Note_on_c, 0, 83, 80
2, 24959, Note_on_c, 0, 83, 0
2, 24960, Note_on_c, 0, 83, 96
2, 25056, Note_on_c, 0, 83, 0
2, 25056, Note_on_c, 0, 82, 80
2, 25079, Note_on_c, 0, 82, 0
2, 25080, Note_on_c, 0, 85, 80
2, 25103, Note_on_c, 0, 85, 0
2, 25104, Note_on_c, 0, 82, 80
2, 25127, Note_on_c, 0, 82, 0
2, 25128, Note_on_c, 0, 80, 80
2, 25151, Note_on_c, 0, 80, 0
2, 25152, Note_on_c, 0, 80, 96
2, 25248, Note_on_c, 0, 80, 0
2, 25248, Note_on_c, 0, 78, 80
2, 25271, Note_on_c, 0, 78, 0
2, 25272, Note_on_c, 0, 85, 80
2, 25295, Note_on_c, 0, 85, 0
2, 25296, Note_on_c, 0, 78, 80
2, 25319, Note_on_c, 0, 78, 0
2, 25320, Note_on_c, 0, 76, 80
2, 25343, Note_on_c, 0, 76, 0
2, 25344, Note_on_c, 0, 76, 96
2, 25440, Note_on_c, 0, 76, 0
2, 25440, Note_on_c, 0, 75, 80
2, 25463, Note_on_c, 0, 75, 0
2, 25464, Note_on_c, 0, 78, 80
2, 25487, Note_on_c, 0, 78, 0
2, 25488, Note_on_c, 0, 75, 80
2, 25511, Note_on_c, 0, 75, 0
2, 25512, Note_on_c, 0, 71, 80
2, 25535, Note_on_c, 0, 71, 0
2, 25536, Note_on_c, 0, 80, 80
2, 25581, Note_on_c, 0, 80, 0
2, 25584, Note_on_c, 0, 68, 76
2, 25596, Note_on_c, 0, 68, 0
2, 25596, Note_on_c, 0, 80, 75
2, 25630, Note_on_c, 0, 80, 0
2, 25632, Note_on_c, 0, 68, 72
2, 25644, Note_on_c, 0, 68, 0
2, 25644, Note_on_c, 0, 80, 71
2, 25678, Note_on_c, 0, 80, 0
2, 25680, Note_on_c, 0, 68, 68
2, 25692, Note_on_c, 0, 68, 0
2, 25692, Note_on_c, 0, 80, 67
2, 25726, Note_on_c, 0, 80, 0
2, 25728, Note_on_c, 0, 68, 64
2, 25740, Note_on_c, 0, 68, 0
2, 25740, Note_on_c, 0, 80, 64
2, 25818, Note_on_c, 0, 80, 0
2, 25968, Note_on_c, 0, 56, 64
2, 25992, Note_on_c, 0, 56, 0
2, 25992, Note_on_c, 0, 61, 65
2, 26015, Note_on_c, 0, 61, 0
2, 26016, Note_on_c, 0, 61, 66
2, 26040, Note_on_c, 0, 61, 0
2, 26040, Note_on_c, 0, 64, 67
2, 26063, Note_on_c, 0, 64, 0
2, 26064, Note_on_c, 0, 64, 68
2, 26088, Note_on_c, 0, 64, 0
2, 26088, Note_on_c, 0, 68, 70
2, 26111, Note_on_c, 0, 68, 0
2, 26112, Note_on_c, 0, 68, 71
2, 26136, Note_on_c, 0, 68, 0
2, 26136, Note_on_c, 0, 73, 72
2, 26159, Note_on_c, 0, 73, 0
2, 26160, Note_on_c, 0, 73, 73
2, 26184, Note_on_c, 0, 73, 0
2, 26184, Note_on_c, 0, 76, 75
2, 26207, Note_on_c, 0, 76, 0
2, 26208, Note_on_c, 0, 76, 76
2, 26232, Note_on_c, 0, 76, 0
2, 26232, Note_on_c, 0, 80, 77
2, 26255, Note_on_c, 0, 80, 0
2, 26256, Note_on_c, 0, 80, 78
2, 26280, Note_on_c, 0, 80, 0
2, 26280, Note_on_c, 0, 76, 80
2, 26303, Note_on_c, 0, 76, 0
2, 26304, Note_on_c, 0, 76, 80
2, 26327, Note_on_c, 0, 76, 0
2, 26328, Note_on_c, 0, 75, 80
2, 26351, Note_on_c, 0, 75, 0
2, 26352, Note_on_c, 0, 78, 80
2, 26375, Note_on_c, 0, 78, 0
2, 26376, Note_on_c, 0, 71, 80
2, 26399, Note_on_c, 0, 71, 0
2, 26400, Note_on_c, 0, 73, 80
2, 26412, Note_on_c, 0, 73, 0
2, 26412, Note_on_c, 0, 75, 80
2, 26424, Note_on_c, 0, 75, 0
2, 26424, Note_on_c, 0, 73, 80
2, 26436, Note_on_c, 0, 73, 0
2, 26436, Note_on_c, 0, 75, 80
2, 26448, Note_on_c, 0, 75, 0
2, 26448, Note_on_c, 0, 73, 80
2, 26460, Note_on_c, 0, 73, 0
2, 26460, Note_on_c, 0, 75, 80
2, 26465, Note_on_c, 0, 75, 0
2, 26472, Note_on_c, 0, 71, 80
2, 26484, Note_on_c, 0, 71, 0
2, 26484, Note_on_c, 0, 73, 80
2, 26496, Note_on_c, 0, 73, 0
2, 26496, Note_on_c, 0, 71, 80
2, 26585, Note_on_c, 0, 71, 0
2, 26592, Note_on_c, 0, 80, 80
2, 26615, Note_on_c, 0, 80, 0
2, 26616, Note_on_c, 0, 83, 80
2, 26639, Note_on_c, 0, 83, 0
2, 26640, Note_on_c, 0, 82, 80
2, 26663, Note_on_c, 0, 82, 0
2, 26664, Note_on_c, 0, 80, 80
2, 26687, Note_on_c, 0, 80, 0
2, 26688, Note_on_c, 0, 80, 80
2, 26711, Note_on_c, 0, 80, 0
2, 26712, Note_on_c, 0, 78, 80
2, 26735, Note_on_c, 0, 78, 0
2, 26736, Note_on_c, 0, 77, 80
2, 26759, Note_on_c, 0, 77, 0
2, 26760, Note_on_c, 0, 78, 80
2, 26783, Note_on_c, 0, 78, 0
2, 26784, Note_on_c, 0, 76, 80
2, 26807, Note_on_c, 0, 76, 0
2, 26808, Note_on_c, 0, 80, 80
2, 26831, Note_on_c, 0, 80, 0
2, 26832, Note_on_c, 0, 78, 80
2, 26855, Note_on_c, 0, 78, 0
2, 26856, Note_on_c, 0, 76, 80
2, 26879, Note_on_c, 0, 76, 0
2, 26880, Note_on_c, 0, 76, 80
2, 26903, Note_on_c, 0, 76, 0
2, 26904, Note_on_c, 0, 75, 80
2, 26927, Note_on_c, 0, 75, 0
2, 26928, Note_on_c, 0, 74, 80
2, 26951, Note_on_c, 0, 74, 0
2, 26952, Note_on_c, 0, 75, 80
2, 26975, Note_on_c, 0, 75, 0
2, 26976, Note_on_c, 0, 73, 80
2, 26999, Note_on_c, 0, 73, 0
2, 27000, Note_on_c, 0, 76, 80
2, 27023, Note_on_c, 0, 76, 0
2, 27024, Note_on_c, 0, 75, 80
2, 27047, Note_on_c, 0, 75, 0
2, 27048, Note_on_c, 0, 73, 80
2, 27071, Note_on_c, 0, 73, 0
2, 27072, Note_on_c, 0, 73, 80
2, 27095, Note_on_c, 0, 73, 0
2, 27096, Note_on_c, 0, 71, 80
2, 27119, Note_on_c, 0, 71, 0
2, 27120, Note_on_c, 0, 70, 80
2, 27143, Note_on_c, 0, 70, 0
2, 27144, Note_on_c, 0, 71, 80
2, 27167, Note_on_c, 0, 71, 0
2, 27168, Note_on_c, 0, 78, 96
2, 27287, Note_on_c, 0, 78, 0
2, 27288, Note_on_c, 0, 76, 80
2, 27311, Note_on_c, 0, 76, 0
2, 27312, Note_on_c, 0, 75, 80
2, 27335, Note_on_c, 0, 75, 0
2, 27336, Note_on_c, 0, 73, 80
2, 27359, Note_on_c, 0, 73, 0
2, 27360, Note_on_c, 0, 71, 80
2, 27366, Note_on_c, 0, 71, 0
2, 27366, Note_on_c, 0, 73, 80
2, 27378, Note_on_c, 0, 73, 0
2, 27378, Note_on_c, 0, 75, 80
2, 27390, Note_on_c, 0, 75, 0
2, 27390, Note_on_c, 0, 73, 80
2, 27402, Note_on_c, 0, 73, 0
2, 27402, Note_on_c, 0, 75, 80
2, 27414, Note_on_c, 0, 75, 0
2, 27414, Note_on_c, 0, 73, 80
2, 27425, Note_on_c, 0, 73, 0
2, 27432, Note_on_c, 0, 71, 80
2, 27444, Note_on_c, 0, 71, 0
2, 27444, Note_on_c, 0, 73, 80
2, 27456, Note_on_c, 0, 73, 0
2, 27456, Note_on_c, 0, 71, 80
2, 27545, Note_on_c, 0, 71, 0
2, 27568, Note_on_c, 0, 80, 80
2, 27583, Note_on_c, 0, 80, 0
2, 27584, Note_on_c, 0, 82, 80
2, 27599, Note_on_c, 0, 82, 0
2, 27600, Note_on_c, 0, 83, 80
2, 27615, Note_on_c, 0, 83, 0
2, 27616, Note_on_c, 0, 82, 80
2, 27631, Note_on_c, 0, 82, 0
2, 27632, Note_on_c, 0, 80, 80
2, 27647, Note_on_c, 0, 80, 0
2, 27648, Note_on_c, 0, 80, 80
2, 27671, Note_on_c, 0, 80, 0
2, 27672, Note_on_c, 0, 78, 80
2, 27695, Note_on_c, 0, 78, 0
2, 27696, Note_on_c, 0, 77, 80
2, 27719, Note_on_c, 0, 77, 0
2, 27720, Note_on_c, 0, 78, 80
2, 27743, Note_on_c, 0, 78, 0
2, 27760, Note_on_c, 0, 76, 80
2, 27775, Note_on_c, 0, 76, 0
2, 27776, Note_on_c, 0, 78, 80
2, 27791, Note_on_c, 0, 78, 0
2, 27792, Note_on_c, 0, 80, 80
2, 27807, Note_on_c, 0, 80, 0
2, 27808, Note_on_c, 0, 78, 80
2, 27823, Note_on_c, 0, 78, 0
2, 27824, Note_on_c, 0, 76, 80
2, 27839, Note_on_c, 0, 76, 0
2, 27840, Note_on_c, 0, 76, 80
2, 27863, Note_on_c, 0, 76, 0
2, 27864, Note_on_c, 0, 75, 80
2, 27887, Note_on_c, 0, 75, 0
2, 27888, Note_on_c, 0, 74, 80
2, 27911, Note_on_c, 0, 74, 0
2, 27912, Note_on_c, 0, 75, 80
2, 27935, Note_on_c, 0, 75, 0
2, 27952, Note_on_c, 0, 73, 80
2, 27967, Note_on_c, 0, 73, 0
2, 27968, Note_on_c, 0, 75, 80
2, 27983, Note_on_c, 0, 75, 0
2, 27984, Note_on_c, 0, 76, 80
2, 27999, Note_on_c, 0, 76, 0
2, 28000, Note_on_c, 0, 75, 80
2, 28015, Note_on_c, 0, 75, 0
2, 28016, Note_on_c, 0, 73, 80
2, 28031, Note_on_c, 0, 73, 0
2, 28032, Note_on_c, 0, 71, 80
2, 28055, Note_on_c, 0, 71, 0
2, 28056, Note_on_c, 0, 73, 80
2, 28068, Note_on_c, 0, 73, 0
2, 28068, Note_on_c, 0, 75, 80
2, 28080, Note_on_c, 0, 75, 0
2, 28080, Note_on_c, 0, 76, 80
2, 28092, Note_on_c, 0, 76, 0
2, 28092, Note_on_c, 0, 78, 80
2, 28104, Note_on_c, 0, 78, 0
2, 28104, Note_on_c, 0, 80, 80
2, 28116, Note_on_c, 0, 80, 0
2, 28116, Note_on_c, 0, 82, 80
2, 28128, Note_on_c, 0, 82, 0
2, 28128, Note_on_c, 0, 83, 80
2, 28173, Note_on_c, 0, 83, 0
2, 28224, Note_on_c, 0, 80, 80
2, 28239, Note_on_c, 0, 80, 0
2, 28240, Note_on_c, 0, 78, 80
2, 28255, Note_on_c, 0, 78, 0
2, 28256, Note_on_c, 0, 76, 80
2, 28271, Note_on_c, 0, 76, 0
2, 28272, Note_on_c, 0, 75, 80
2, 28287, Note_on_c, 0, 75, 0
2, 28288, Note_on_c, 0, 73, 80
2, 28303, Note_on_c, 0, 73, 0
2, 28304, Note_on_c, 0, 71, 80
2, 28319, Note_on_c, 0, 71, 0
2, 28320, Note_on_c, 0, 73, 80
2, 28332, Note_on_c, 0, 73, 0
2, 28332, Note_on_c, 0, 75, 80
2, 28344, Note_on_c, 0, 75, 0
2, 28344, Note_on_c, 0, 73, 80
2, 28356, Note_on_c, 0, 73, 0
2, 28356, Note_on_c, 0, 75, 80
2, 28368, Note_on_c, 0, 75, 0
2, 28368, Note_on_c, 0, 73, 80
2, 28380, Note_on_c, 0, 73, 0
2, 28380, Note_on_c, 0, 75, 80
2, 28385, Note_on_c, 0, 75, 0
2, 28392, Note_on_c, 0, 71, 80
2, 28404, Note_on_c, 0, 71, 0
2, 28404, Note_on_c, 0, 73, 80
2, 28416, Note_on_c, 0, 73, 0
2, 28416, Note_on_c, 0, 71, 80
2, 28505, Note_on_c, 0, 71, 0
2, 28560, Note_on_c, 0, 71, 75
2, 28605, Note_on_c, 0, 71, 0
2, 28608, Note_on_c, 0, 69, 75
2, 28631, Note_on_c, 0, 69, 0
2, 28632, Note_on_c, 0, 68, 75
2, 28655, Note_on_c, 0, 68, 0
2, 28656, Note_on_c, 0, 66, 75
2, 28679, Note_on_c, 0, 66, 0
2, 28680, Note_on_c, 0, 64, 75
2, 28703, Note_on_c, 0, 64, 0
2, 28704, Note_on_c, 0, 73, 75
2, 28724, Note_on_c, 0, 73, 0
2, 28800, Note_on_c, 0, 73, 75
2, 28823, Note_on_c, 0, 73, 0
2, 28824, Note_on_c, 0, 71, 75
2, 28847, Note_on_c, 0, 71, 0
2, 28848, Note_on_c, 0, 69, 75
2, 28871, Note_on_c, 0, 69, 0
2, 28872, Note_on_c, 0, 68, 75
2, 28895, Note_on_c, 0, 68, 0
2, 28896, Note_on_c, 0, 66, 75
2, 28916, Note_on_c, 0, 66, 0
2, 28992, Note_on_c, 0, 69, 75
2, 29015, Note_on_c, 0, 69, 0
2, 29016, Note_on_c, 0, 68, 75
2, 29039, Note_on_c, 0, 68, 0
2, 29040, Note_on_c, 0, 66, 75
2, 29063, Note_on_c, 0, 66, 0
2, 29064, Note_on_c, 0, 64, 75
2, 29087, Note_on_c, 0, 64, 0
2, 29088, Note_on_c, 0, 76, 75
2, 29133, Note_on_c, 0, 76, 0
2, 29136, Note_on_c, 0, 68, 75
2, 29159, Note_on_c, 0, 68, 0
2, 29160, Note_on_c, 0, 73, 75
2, 29183, Note_on_c, 0, 73, 0
2, 29184, Note_on_c, 0, 71, 75
2, 29229, Note_on_c, 0, 71, 0
2, 29232, Note_on_c, 0, 69, 75
2, 29244, Note_on_c, 0, 69, 0
2, 29244, Note_on_c, 0, 71, 75
2, 29256, Note_on_c, 0, 71, 0
2, 29256, Note_on_c, 0, 69, 75
2, 29268, Note_on_c, 0, 69, 0
2, 29268, Note_on_c, 0, 71, 75
2, 29277, Note_on_c, 0, 71, 0
2, 29280, Note_on_c, 0, 68, 75
2, 29325, Note_on_c, 0, 68, 0
2, 29328, Note_on_c, 0, 71, 75
2, 29373, Note_on_c, 0, 71, 0
2, 29376, Note_on_c, 0, 69, 75
2, 29399, Note_on_c, 0, 69, 0
2, 29400, Note_on_c, 0, 68, 75
2, 29423, Note_on_c, 0, 68, 0
2, 29424, Note_on_c, 0, 66, 75
2, 29447, Note_on_c, 0, 66, 0
2, 29448, Note_on_c, 0, 64, 75
2, 29471, Note_on_c, 0, 64, 0
2, 29472, Note_on_c, 0, 73, 75
2, 29492, Note_on_c, 0, 73, 0
2, 29568, Note_on_c, 0, 73, 75
2, 29591, Note_on_c, 0, 73, 0
2, 29592, Note_on_c, 0, 71, 75
2, 29615, Note_on_c, 0, 71, 0
2, 29616, Note_on_c, 0, 69, 75
2, 29639, Note_on_c, 0, 69, 0
2, 29640, Note_on_c, 0, 68, 75
2, 29663, Note_on_c, 0, 68, 0
2, 29664, Note_on_c, 0, 66, 75
2, 29684, Note_on_c, 0, 66, 0
2, 29760, Note_on_c, 0, 68, 75
2, 29783, Note_on_c, 0, 68, 0
2, 29784, Note_on_c, 0, 71, 75
2, 29807, Note_on_c, 0, 71, 0
2, 29808, Note_on_c, 0, 64, 75
2, 29831, Note_on_c, 0, 64, 0
2, 29832, Note_on_c, 0, 68, 75
2, 29855, Note_on_c, 0, 68, 0
2, 29856, Note_on_c, 0, 66, 75
2, 29879, Note_on_c, 0, 66, 0
2, 29880, Note_on_c, 0, 69, 75
2, 29903, Note_on_c, 0, 69, 0
2, 29904, Note_on_c, 0, 63, 75
2, 29927, Note_on_c, 0, 63, 0
2, 29928, Note_on_c, 0, 66, 75
2, 29951, Note_on_c, 0, 66, 0
2, 29952, Note_on_c, 0, 64, 75
2, 30041, Note_on_c, 0, 64, 0
2, 30096, Note_on_c, 0, 59, 75
2, 30116, Note_on_c, 0, 59, 0
2, 30144, Note_on_c, 0, 59, 75
2, 30277, Note_on_c, 0, 59, 0
2, 30288, Note_on_c, 0, 68, 75
2, 30311, Note_on_c, 0, 68, 0
2, 30312, Note_on_c, 0, 64, 75
2, 30335, Note_on_c, 0, 64, 0
2, 30336, Note_on_c, 0, 59, 75
2, 30469, Note_on_c, 0, 59, 0
2, 30480, Note_on_c, 0, 69, 75
2, 30503, Note_on_c, 0, 69, 0
2, 30504, Note_on_c, 0, 66, 75
2, 30527, Note_on_c, 0, 66, 0
2, 30528, Note_on_c, 0, 68, 75
2, 30551, Note_on_c, 0, 68, 0
2, 30552, Note_on_c, 0, 64, 75
2, 30575, Note_on_c, 0, 64, 0
2, 30576, Note_on_c, 0, 69, 75
2, 30599, Note_on_c, 0, 69, 0
2, 30600, Note_on_c, 0, 64, 75
2, 30623, Note_on_c, 0, 64, 0
2, 30624, Note_on_c, 0, 71, 75
2, 30669, Note_on_c, 0, 71, 0
2, 30672, Note_on_c, 0, 59, 75
2, 30692, Note_on_c, 0, 59, 0
2, 30720, Note_on_c, 0, 59, 75
2, 30853, Note_on_c, 0, 59, 0
2, 30864, Note_on_c, 0, 68, 75
2, 30887, Note_on_c, 0, 68, 0
2, 30888, Note_on_c, 0, 64, 75
2, 30911, Note_on_c, 0, 64, 0
2, 30912, Note_on_c, 0, 59, 75
2, 31045, Note_on_c, 0, 59, 0
2, 31056, Note_on_c, 0, 69, 75
2, 31079, Note_on_c, 0, 69, 0
2, 31080, Note_on_c, 0, 66, 75
2, 31103, Note_on_c, 0, 66, 0
2, 31104, Note_on_c, 0, 68, 75
2, 31127, Note_on_c, 0, 68, 0
2, 31128, Note_on_c, 0, 64, 75
2, 31151, Note_on_c, 0, 64, 0
2, 31152, Note_on_c, 0, 69, 75
2, 31175, Note_on_c, 0, 69, 0
2, 31176, Note_on_c, 0, 64, 75
2, 31199, Note_on_c, 0, 64, 0
2, 31200, Note_on_c, 0, 71, 75
2, 31245, Note_on_c, 0, 71, 0
2, 31248, Note_on_c, 0, 76, 75
2, 31293, Note_on_c, 0, 76, 0
2, 31296, Note_on_c, 0, 75, 75
2, 31392, Note_on_c, 0, 75, 0
2, 31392, Note_on_c, 0, 73, 75
2, 31437, Note_on_c, 0, 73, 0
2, 31440, Note_on_c, 0, 76, 75
2, 31485, Note_on_c, 0, 76, 0
2, 31488, Note_on_c, 0, 73, 75
2, 31584, Note_on_c, 0, 73, 0
2, 31584, Note_on_c, 0, 71, 75
2, 31607, Note_on_c, 0, 71, 0
2, 31608, Note_on_c, 0, 76, 75
2, 31631, Note_on_c, 0, 76, 0
2, 31632, Note_on_c, 0, 80, 75
2, 31655, Note_on_c, 0, 80, 0
2, 31656, Note_on_c, 0, 83, 75
2, 31679, Note_on_c, 0, 83, 0
2, 31680, Note_on_c, 0, 71, 75
2, 31769, Note_on_c, 0, 71, 0
2, 31776, Note_on_c, 0, 69, 75
2, 31821, Note_on_c, 0, 69, 0
2, 31824, Note_on_c, 0, 68, 75
2, 31869, Note_on_c, 0, 68, 0
2, 31872, Note_on_c, 0, 68, 75
2, 31884, Note_on_c, 0, 68, 0
2, 31884, Note_on_c, 0, 69, 75
2, 31896, Note_on_c, 0, 69, 0
2, 31896, Note_on_c, 0, 68, 75
2, 31917, Note_on_c, 0, 68, 0
2, 31920, Note_on_c, 0, 66, 75
2, 31965, Note_on_c, 0, 66, 0
2, 32016, Note_on_c, 0, 78, 75
2, 32061, Note_on_c, 0, 78, 0
2, 32064, Note_on_c, 0, 76, 75
2, 32087, Note_on_c, 0, 76, 0
2, 32088, Note_on_c, 0, 75, 75
2, 32111, Note_on_c, 0, 75, 0
2, 32112, Note_on_c, 0, 73, 75
2, 32135, Note_on_c, 0, 73, 0
2, 32136, Note_on_c, 0, 71, 75
2, 32159, Note_on_c, 0, 71, 0
2, 32160, Note_on_c, 0, 83, 75
2, 32205, Note_on_c, 0, 83, 0
2, 32208, Note_on_c, 0, 71, 75
2, 32253, Note_on_c, 0, 71, 0
2, 32256, Note_on_c, 0, 70, 75
2, 32304, Note_on_c, 0, 70, 0
2, 32304, Note_on_c, 0, 71, 75
2, 32349, Note_on_c, 0, 71, 0
2, 32352, Note_on_c, 0, 70, 75
2, 32400, Note_on_c, 0, 70, 0
2, 32400, Note_on_c, 0, 71, 75
2, 32445, Note_on_c, 0, 71, 0
2, 32448, Note_on_c, 0, 76, 75
2, 32471, Note_on_c, 0, 76, 0
2, 32472, Note_on_c, 0, 80, 75
2, 32495, Note_on_c, 0, 80, 0
2, 32496, Note_on_c, 0, 73, 75
2, 32519, Note_on_c, 0, 73, 0
2, 32520, Note_on_c, 0, 76, 75
2, 32543, Note_on_c, 0, 76, 0
2, 32544, Note_on_c, 0, 75, 75
2, 32589, Note_on_c, 0, 75, 0
2, 32592, Note_on_c, 0, 78, 70
2, 32637, Note_on_c, 0, 78, 0
2, 32640, Note_on_c, 0, 76, 70
2, 32663, Note_on_c, 0, 76, 0
2, 32664, Note_on_c, 0, 75, 70
2, 32687, Note_on_c, 0, 75, 0
2, 32688, Note_on_c, 0, 73, 70
2, 32711, Note_on_c, 0, 73, 0
2, 32712, Note_on_c, 0, 71, 70
2, 32735, Note_on_c, 0, 71, 0
2, 32736, Note_on_c, 0, 83, 70
2, 32781, Note_on_c, 0, 83, 0
2, 32784, Note_on_c, 0, 71, 70
2, 32829, Note_on_c, 0, 71, 0
2, 32832, Note_on_c, 0, 70, 70
2, 32880, Note_on_c, 0, 70, 0
2, 32880, Note_on_c, 0, 71, 70
2, 32925, Note_on_c, 0, 71, 0
2, 32928, Note_on_c, 0, 70, 70
2, 32976, Note_on_c, 0, 70, 0
2, 32976, Note_on_c, 0, 71, 70
2, 33021, Note_on_c, 0, 71, 0
2, 33024, Note_on_c, 0, 76, 70
2, 33047, Note_on_c, 0, 76, 0
2, 33048, Note_on_c, 0, 80, 70
2, 33071, Note_on_c, 0, 80, 0
2, 33072, Note_on_c, 0, 73, 70
2, 33095, Note_on_c, 0, 73, 0
2, 33096, Note_on_c, 0, 76, 70
2, 33119, Note_on_c, 0, 76, 0
2, 33120, Note_on_c, 0, 75, 71
2, 33143, Note_on_c, 0, 75, 0
2, 33144, Note_on_c, 0, 78, 71
2, 33167, Note_on_c, 0, 78, 0
2, 33168, Note_on_c, 0, 71, 71
2, 33191, Note_on_c, 0, 71, 0
2, 33192, Note_on_c, 0, 75, 72
2, 33215, Note_on_c, 0, 75, 0
2, 33216, Note_on_c, 0, 73, 72
2, 33239, Note_on_c, 0, 73, 0
2, 33240, Note_on_c, 0, 76, 72
2, 33263, Note_on_c, 0, 76, 0
2, 33264, Note_on_c, 0, 70, 73
2, 33287, Note_on_c, 0, 70, 0
2, 33288, Note_on_c, 0, 73, 73
2, 33311, Note_on_c, 0, 73, 0
2, 33312, Note_on_c, 0, 71, 73
2, 33335, Note_on_c, 0, 71, 0
2, 33336, Note_on_c, 0, 75, 74
2, 33359, Note_on_c, 0, 75, 0
2, 33360, Note_on_c, 0, 78, 74
2, 33383, Note_on_c, 0, 78, 0
2, 33384, Note_on_c, 0, 75, 74
2, 33407, Note_on_c, 0, 75, 0
2, 33408, Note_on_c, 0, 76, 75
2, 33431, Note_on_c, 0, 76, 0
2, 33432, Note_on_c, 0, 80, 75
2, 33455, Note_on_c, 0, 80, 0
2, 33456, Note_on_c, 0, 73, 75
2, 33479, Note_on_c, 0, 73, 0
2, 33480, Note_on_c, 0, 76, 76
2, 33503, Note_on_c, 0, 76, 0
2, 33504, Note_on_c, 0, 75, 76
2, 33527, Note_on_c, 0, 75, 0
2, 33528, Note_on_c, 0, 78, 77
2, 33551, Note_on_c, 0, 78, 0
2, 33552, Note_on_c, 0, 71, 77
2, 33575, Note_on_c, 0, 71, 0
2, 33576, Note_on_c, 0, 75, 77
2, 33599, Note_on_c, 0, 75, 0
2, 33600, Note_on_c, 0, 73, 78
2, 33623, Note_on_c, 0, 73, 0
2, 33624, Note_on_c, 0, 76, 78
2, 33647, Note_on_c, 0, 76, 0
2, 33648, Note_on_c, 0, 70, 79
2, 33671, Note_on_c, 0, 70, 0
2, 33672, Note_on_c, 0, 73, 79
2, 33695, Note_on_c, 0, 73, 0
2, 33696, Note_on_c, 0, 71, 80
2, 33719, Note_on_c, 0, 71, 0
2, 33720, Note_on_c, 0, 75, 80
2, 33743, Note_on_c, 0, 75, 0
2, 33744, Note_on_c, 0, 78, 80
2, 33767, Note_on_c, 0, 78, 0
2, 33768, Note_on_c, 0, 83, 80
2, 33791, Note_on_c, 0, 83, 0
2, 33792, Note_on_c, 0, 78, 96
2, 33888, Note_on_c, 0, 78, 0
2, 33888, Note_on_c, 0, 77, 80
2, 33911, Note_on_c, 0, 77, 0
2, 33912, Note_on_c, 0, 71, 80
2, 33935, Note_on_c, 0, 71, 0
2, 33936, Note_on_c, 0, 77, 80
2, 33959, Note_on_c, 0, 77, 0
2, 33960, Note_on_c, 0, 83, 80
2, 33983, Note_on_c, 0, 83, 0
2, 33984, Note_on_c, 0, 78, 96
2, 34080, Note_on_c, 0, 78, 0
2, 34080, Note_on_c, 0, 77, 80
2, 34103, Note_on_c, 0, 77, 0
2, 34104, Note_on_c, 0, 71, 80
2, 34127, Note_on_c, 0, 71, 0
2, 34128, Note_on_c, 0, 77, 80
2, 34151, Note_on_c, 0, 77, 0
2, 34152, Note_on_c, 0, 83, 80
2, 34175, Note_on_c, 0, 83, 0
2, 34176, Note_on_c, 0, 78, 96
2, 34272, Note_on_c, 0, 78, 0
2, 34272, Note_on_c, 0, 77, 80
2, 34295, Note_on_c, 0, 77, 0
2, 34296, Note_on_c, 0, 86, 80
2, 34319, Note_on_c, 0, 86, 0
2, 34320, Note_on_c, 0, 85, 80
2, 34343, Note_on_c, 0, 85, 0
2, 34344, Note_on_c, 0, 83, 80
2, 34367, Note_on_c, 0, 83, 0
2, 34368, Note_on_c, 0, 83, 96
2, 34464, Note_on_c, 0, 83, 0
2, 34464, Note_on_c, 0, 82, 80
2, 34487, Note_on_c, 0, 82, 0
2, 34488, Note_on_c, 0, 85, 80
2, 34511, Note_on_c, 0, 85, 0
2, 34512, Note_on_c, 0, 82, 80
2, 34535, Note_on_c, 0, 82, 0
2, 34536, Note_on_c, 0, 80, 80
2, 34559, Note_on_c, 0, 80, 0
2, 34560, Note_on_c, 0, 80, 96
2, 34656, Note_on_c, 0, 80, 0
2, 34656, Note_on_c, 0, 78, 80
2, 34679, Note_on_c, 0, 78, 0
2, 34680, Note_on_c, 0, 85, 80
2, 34703, Note_on_c, 0, 85, 0
2, 34704, Note_on_c, 0, 78, 80
2, 34727, Note_on_c, 0, 78, 0
2, 34728, Note_on_c, 0, 76, 80
2, 34751, Note_on_c, 0, 76, 0
2, 34752, Note_on_c, 0, 76, 96
2, 34848, Note_on_c, 0, 76, 0
2, 34848, Note_on_c, 0, 75, 80
2, 34871, Note_on_c, 0, 75, 0
2, 34872, Note_on_c, 0, 78, 80
2, 34895, Note_on_c, 0, 78, 0
2, 34896, Note_on_c, 0, 75, 80
2, 34919, Note_on_c, 0, 75, 0
2, 34920, Note_on_c, 0, 71, 80
2, 34943, Note_on_c, 0, 71, 0
2, 34944, Note_on_c, 0, 80, 80
2, 34989, Note_on_c, 0, 80, 0
2, 34992, Note_on_c, 0, 68, 76
2, 35004, Note_on_c, 0, 68, 0
2, 35004, Note_on_c, 0, 80, 75
2, 35038, Note_on_c, 0, 80, 0
2, 35040, Note_on_c, 0, 68, 72
2, 35052, Note_on_c, 0, 68, 0
2, 35052, Note_on_c, 0, 80, 71
2, 35086, Note_on_c, 0, 80, 0
2, 35088, Note_on_c, 0, 68, 68
2, 35100, Note_on_c, 0, 68, 0
2, 35100, Note_on_c, 0, 80, 67
2, 35134, Note_on_c, 0, 80, 0
2, 35136, Note_on_c, 0, 68, 64
2, 35148, Note_on_c, 0, 68, 0
2, 35148, Note_on_c, 0, 80, 64
2, 35226, Note_on_c, 0, 80, 0
2, 35376, Note_on_c, 0, 56, 64
2, 35400, Note_on_c, 0, 56, 0
2, 35400, Note_on_c, 0, 61, 65
2, 35423, Note_on_c, 0, 61, 0
2, 35424, Note_on_c, 0, 61, 66
2, 35448, Note_on_c, 0, 61, 0
2, 35448, Note_on_c, 0, 64, 67
2, 35471, Note_on_c, 0, 64, 0
2, 35472, Note_on_c, 0, 64, 68
2, 35496, Note_on_c, 0, 64, 0
2, 35496, Note_on_c, 0, 68, 70
2, 35519, Note_on_c, 0, 68, 0
2, 35520, Note_on_c, 0, 68, 71
2, 35544, Note_on_c, 0, 68, 0
2, 35544, Note_on_c, 0, 73, 72
2, 35567, Note_on_c, 0, 73, 0
2, 35568, Note_on_c, 0, 73, 73
2, 35592, Note_on_c, 0, 73, 0
2, 35592, Note_on_c, 0, 76, 75
2, 35615, Note_on_c, 0, 76, 0
2, 35616, Note_on_c, 0, 76, 76
2, 35640, Note_on_c, 0, 76, 0
2, 35640, Note_on_c, 0, 80, 77
2, 35663, Note_on_c, 0, 80, 0
2, 35664, Note_on_c, 0, 80, 78
2, 35688, Note_on_c, 0, 80, 0
2, 35688, Note_on_c, 0, 76, 80
2, 35711, Note_on_c, 0, 76, 0
2, 35712, Note_on_c, 0, 76, 80
2, 35735, Note_on_c, 0, 76, 0
2, 35736, Note_on_c, 0, 75, 80
2, 35759, Note_on_c, 0, 75, 0
2, 35760, Note_on_c, 0, 78, 80
2, 35783, Note_on_c, 0, 78, 0
2, 35784, Note_on_c, 0, 71, 80
2, 35807, Note_on_c, 0, 71, 0
2, 35808, Note_on_c, 0, 73, 80
2, 35820, Note_on_c, 0, 73, 0
2, 35820, Note_on_c, 0, 75, 80
2, 35832, Note_on_c, 0, 75, 0
2, 35832, Note_on_c, 0, 73, 80
2, 35844, Note_on_c, 0, 73, 0
2, 35844, Note_on_c, 0, 75, 80
2, 35856, Note_on_c, 0, 75, 0
2, 35856, Note_on_c, 0, 73, 80
2, 35868, Note_on_c, 0, 73, 0
2, 35868, Note_on_c, 0, 75, 80
2, 35873, Note_on_c, 0, 75, 0
2, 35880, Note_on_c, 0, 71, 80
2, 35892, Note_on_c, 0, 71, 0
2, 35892, Note_on_c, 0, 73, 80
2, 35904, Note_on_c, 0, 73, 0
2, 35904, Note_on_c, 0, 71, 80
2, 35993, Note_on_c, 0, 71, 0
2, 36000, Note_on_c, 0, 80, 80
2, 36023, Note_on_c, 0, 80, 0
2, 36024, Note_on_c, 0, 83, 80
2, 36047, Note_on_c, 0, 83, 0
2, 36048, Note_on_c, 0, 82, 80
2, 36071, Note_on_c, 0, 82, 0
2, 36072, Note_on_c, 0, 80, 80
2, 36095, Note_on_c, 0, 80, 0
2, 36096, Note_on_c, 0, 80, 80
2, 36119, Note_on_c, 0, 80, 0
2, 36120, Note_on_c, 0, 78, 80
2, 36143, Note_on_c, 0, 78, 0
2, 36144, Note_on_c, 0, 77, 80
2, 36167, Note_on_c, 0, 77, 0
2, 36168, Note_on_c, 0, 78, 80
2, 36191, Note_on_c, 0, 78, 0
2, 36192, Note_on_c, 0, 76, 80
2, 36215, Note_on_c, 0, 76, 0
2, 36216, Note_on_c, 0, 80, 80
2, 36239, Note_on_c, 0, 80, 0
2, 36240, Note_on_c, 0, 78, 80
2, 36263, Note_on_c, 0, 78, 0
2, 36264, Note_on_c, 0, 76, 80
2, 36287, Note_on_c, 0, 76, 0
2, 36288, Note_on_c, 0, 76, 80
2, 36311, Note_on_c, 0, 76, 0
2, 36312, Note_on_c, 0, 75, 80
2, 36335, Note_on_c, 0, 75, 0
2, 36336, Note_on_c, 0, 74, 80
2, 36359, Note_on_c, 0, 74, 0
2, 36360, Note_on_c, 0, 75, 80
2, 36383, Note_on_c, 0, 75, 0
2, 36384, Note_on_c, 0, 73, 80
2, 36407, Note_on_c, 0, 73, 0
2, 36408, Note_on_c, 0, 76, 80
2, 36431, Note_on_c, 0, 76, 0
2, 36432, Note_on_c, 0, 75, 80
2, 36455, Note_on_c, 0, 75, 0
2, 36456, Note_on_c, 0, 73, 80
2, 36479, Note_on_c, 0, 73, 0
2, 36480, Note_on_c, 0, 73, 80
2, 36503, Note_on_c, 0, 73, 0
2, 36504, Note_on_c, 0, 71, 80
2, 36527, Note_on_c, 0, 71, 0
2, 36528, Note_on_c, 0, 70, 80
2, 36551, Note_on_c, 0, 70, 0
2, 36552, Note_on_c, 0, 71, 80
2, 36575, Note_on_c, 0, 71, 0
2, 36576, Note_on_c, 0, 78, 96
2, 36695, Note_on_c, 0, 78, 0
2, 36696, Note_on_c, 0, 76, 80
2, 36719, Note_on_c, 0, 76, 0
2, 36720, Note_on_c, 0, 75, 80
2, 36743, Note_on_c, 0, 75, 0
2, 36744, Note_on_c, 0, 73, 80
2, 36767, Note_on_c, 0, 73, 0
2, 36768, Note_on_c, 0, 71, 80
2, 36774, Note_on_c, 0, 71, 0
2, 36774, Note_on_c, 0, 73, 80
2, 36786, Note_on_c, 0, 73, 0
2, 36786, Note_on_c, 0, 75, 80
2, 36798, Note_on_c, 0, 75, 0
2, 36798, Note_on_c, 0, 73, 80
2, 36810, Note_on_c, 0, 73, 0
2, 36810, Note_on_c, 0, 75, 80
2, 36822, Note_on_c, 0, 75, 0
2, 36822, Note_on_c, 0, 73, 80
2, 36833, Note_on_c, 0, 73, 0
2, 36840, Note_on_c, 0, 71, 80
2, 36852, Note_on_c, 0, 71, 0
2, 36852, Note_on_c, 0, 73, 80
2, 36864, Note_on_c, 0, 73, 0
2, 36864, Note_on_c, 0, 71, 80
2, 36953, Note_on_c, 0, 71, 0
2, 36976, Note_on_c, 0, 80, 80
2, 36991, Note_on_c, 0, 80, 0
2, 36992, Note_on_c, 0, 82, 80
2, 37007, Note_on_c, 0, 82, 0
2, 37008, Note_on_c, 0, 83, 80
2, 37023, Note_on_c, 0, 83, 0
2, 37024, Note_on_c, 0, 82, 80
2, 37039, Note_on_c, 0, 82, 0
2, 37040, Note_on_c, 0, 80, 80
2, 37055, Note_on_c, 0, 80, 0
2, 37056, Note_on_c, 0, 80, 80
2, 37079, Note_on_c, 0, 80, 0
2, 37080, Note_on_c, 0, 78, 80
2, 37103, Note_on_c, 0, 78, 0
2, 37104, Note_on_c, 0, 77, 80
2, 37127, Note_on_c, 0, 77, 0
2, 37128, Note_on_c, 0, 78, 80
2, 37151, Note_on_c, 0, 78, 0
2, 37168, Note_on_c, 0, 76, 80
2, 37183, Note_on_c, 0, 76, 0
2, 37184, Note_on_c, 0, 78, 80
2, 37199, Note_on_c, 0, 78, 0
2, 37200, Note_on_c, 0, 80, 80
2, 37215, Note_on_c, 0, 80, 0
2, 37216, Note_on_c, 0, 78, 80
2, 37231, Note_on_c, 0, 78, 0
2, 37232, Note_on_c, 0, 76, 80
2, 37247, Note_on_c, 0, 76, 0
2, 37248, Note_on_c, 0, 76, 80
2, 37271, Note_on_c, 0, 76, 0
2, 37272, Note_on_c, 0, 75, 80
2, 37295, Note_on_c, 0, 75, 0
2, 37296, Note_on_c, 0, 74, 80
2, 37319, Note_on_c, 0, 74, 0
2, 37320, Note_on_c, 0, 75, 80
2, 37343, Note_on_c, 0, 75, 0
2, 37360, Note_on_c, 0, 73, 80
2, 37375, Note_on_c, 0, 73, 0
2, 37376, Note_on_c, 0, 75, 80
2, 37391, Note_on_c, 0, 75, 0
2, 37392, Note_on_c, 0, 76, 80
2, 37407, Note_on_c, 0, 76, 0
2, 37408, Note_on_c, 0, 75, 80
2, 37423, Note_on_c, 0, 75, 0
2, 37424, Note_on_c, 0, 73, 80
2, 37439, Note_on_c, 0, 73, 0
2, 37440, Note_on_c, 0, 71, 80
2, 37463, Note_on_c, 0, 71, 0
2, 37464, Note_on_c, 0, 73, 80
2, 37476, Note_on_c, 0, 73, 0
2, 37476, Note_on_c, 0, 75, 80
2, 37488, Note_on_c, 0, 75, 0
2, 37488, Note_on_c, 0, 76, 80
2, 37500, Note_on_c, 0, 76, 0
2, 37500, Note_on_c, 0, 78, 80
2, 37512, Note_on_c, 0, 78, 0
2, 37512, Note_on_c, 0, 80, 80
2, 37524, Note_on_c, 0, 80, 0
2, 37524, Note_on_c, 0, 82, 80
2, 37536, Note_on_c, 0, 82, 0
2, 37536, Note_on_c, 0, 83, 80
2, 37581, Note_on_c, 0, 83, 0
2, 37632, Note_on_c, 0, 80, 80
2, 37647, Note_on_c, 0, 80, 0
2, 37648, Note_on_c, 0, 78, 80
2, 37663, Note_on_c, 0, 78, 0
2, 37664, Note_on_c, 0, 76, 80
2, 37679, Note_on_c, 0, 76, 0
2, 37680, Note_on_c, 0, 75, 80
2, 37695, Note_on_c, 0, 75, 0
2, 37696, Note_on_c, 0, 73, 80
2, 37711, Note_on_c, 0, 73, 0
2, 37712, Note_on_c, 0, 71, 80
2, 37727, Note_on_c, 0, 71, 0
2, 37728, Note_on_c, 0, 73, 80
2, 37740, Note_on_c, 0, 73, 0
2, 37740, Note_on_c, 0, 75, 80
2, 37752, Note_on_c, 0, 75, 0
2, 37752, Note_on_c, 0, 73, 80
2, 37764, Note_on_c, 0, 73, 0
2, 37764, Note_on_c, 0, 75, 80
2, 37776, Note_on_c, 0, 75, 0
2, 37776, Note_on_c, 0, 73, 80
2, 37788, Note_on_c, 0, 73, 0
2, 37788, Note_on_c, 0, 75, 80
2, 37793, Note_on_c, 0, 75, 0
2, 37800, Note_on_c, 0, 71, 80
2, 37812, Note_on_c, 0, 71, 0
2, 37812, Note_on_c, 0, 73, 80
2, 37824, Note_on_c, 0, 73, 0
2, 37824, Note_on_c, 0, 71, 80
2, 37913, Note_on_c, 0, 71, 0
2, 37968, Note_on_c, 0, 78, 75
2, 38013, Note_on_c, 0, 78, 0
2, 38016, Note_on_c, 0, 76, 75
2, 38039, Note_on_c, 0, 76, 0
2, 38040, Note_on_c, 0, 75, 75
2, 38063, Note_on_c, 0, 75, 0
2, 38064, Note_on_c, 0, 73, 75
2, 38087, Note_on_c, 0, 73, 0
2, 38088, Note_on_c, 0, 71, 75
2, 38111, Note_on_c, 0, 71, 0
2, 38112, Note_on_c, 0, 80, 75
2, 38132, Note_on_c, 0, 80, 0
2, 38208, Note_on_c, 0, 80, 75
2, 38231, Note_on_c, 0, 80, 0
2, 38232, Note_on_c, 0, 78, 75
2, 38255, Note_on_c, 0, 78, 0
2, 38256, Note_on_c, 0, 76, 75
2, 38279, Note_on_c, 0, 76, 0
2, 38280, Note_on_c, 0, 75, 75
2, 38303, Note_on_c, 0, 75, 0
2, 38304, Note_on_c, 0, 73, 75
2, 38324, Note_on_c, 0, 73, 0
2, 38400, Note_on_c, 0, 76, 75
2, 38423, Note_on_c, 0, 76, 0
2, 38424, Note_on_c, 0, 75, 75
2, 38447, Note_on_c, 0, 75, 0
2, 38448, Note_on_c, 0, 73, 75
2, 38471, Note_on_c, 0, 73, 0
2, 38472, Note_on_c, 0, 71, 75
2, 38495, Note_on_c, 0, 71, 0
2, 38496, Note_on_c, 0, 83, 75
2, 38541, Note_on_c, 0, 83, 0
2, 38544, Note_on_c, 0, 75, 75
2, 38567, Note_on_c, 0, 75, 0
2, 38568, Note_on_c, 0, 80, 75
2, 38591, Note_on_c, 0, 80, 0
2, 38592, Note_on_c, 0, 78, 75
2, 38637, Note_on_c, 0, 78, 0
2, 38640, Note_on_c, 0, 76, 75
2, 38652, Note_on_c, 0, 76, 0
2, 38652, Note_on_c, 0, 78, 75
2, 38664, Note_on_c, 0, 78, 0
2, 38664, Note_on_c, 0, 76, 75
2, 38676, Note_on_c, 0, 76, 0
2, 38676, Note_on_c, 0, 78, 75
2, 38685, Note_on_c, 0, 78, 0
2, 38688, Note_on_c, 0, 75, 75
2, 38733, Note_on_c, 0, 75, 0
2, 38736, Note_on_c, 0, 78, 75
2, 38781, Note_on_c, 0, 78, 0
2, 38784, Note_on_c, 0, 76, 75
2, 38807, Note_on_c, 0, 76, 0
2, 38808, Note_on_c, 0, 75, 75
2, 38831, Note_on_c, 0, 75, 0
2, 38832, Note_on_c, 0, 73, 75
2, 38855, Note_on_c, 0, 73, 0
2, 38856, Note_on_c, 0, 71, 75
2, 38879, Note_on_c, 0, 71, 0
2, 38880, Note_on_c, 0, 80, 75
2, 38900, Note_on_c, 0, 80, 0
2, 38976, Note_on_c, 0, 80, 75
2, 38999, Note_on_c, 0, 80, 0
2, 39000, Note_on_c, 0, 78, 75
2, 39023, Note_on_c, 0, 78, 0
2, 39024, Note_on_c, 0, 76, 75
2, 39047, Note_on_c, 0, 76, 0
2, 39048, Note_on_c, 0, 75, 75
2, 39071, Note_on_c, 0, 75, 0
2, 39072, Note_on_c, 0, 73, 75
2, 39092, Note_on_c, 0, 73, 0
2, 39168, Note_on_c, 0, 75, 75
2, 39191, Note_on_c, 0, 75, 0
2, 39192, Note_on_c, 0, 78, 75
2, 39215, Note_on_c, 0, 78, 0
2, 39216, Note_on_c, 0, 71, 75
2, 39239, Note_on_c, 0, 71, 0
2, 39240, Note_on_c, 0, 75, 75
2, 39263, Note_on_c, 0, 75, 0
2, 39264, Note_on_c, 0, 73, 75
2, 39287, Note_on_c, 0, 73, 0
2, 39288, Note_on_c, 0, 76, 75
2, 39311, Note_on_c, 0, 76, 0
2, 39312, Note_on_c, 0, 70, 75
2, 39335, Note_on_c, 0, 70, 0
2, 39336, Note_on_c, 0, 73, 75
2, 39359, Note_on_c, 0, 73, 0
2, 39360, Note_on_c, 0, 71, 75
2, 39449, Note_on_c, 0, 71, 0
2, 39504, Note_on_c, 0, 66, 75
2, 39549, Note_on_c, 0, 66, 0
2, 39552, Note_on_c, 0, 64, 75
2, 39575, Note_on_c, 0, 64, 0
2, 39576, Note_on_c, 0, 62, 75
2, 39599, Note_on_c, 0, 62, 0
2, 39600, Note_on_c, 0, 61, 75
2, 39623, Note_on_c, 0, 61, 0
2, 39624, Note_on_c, 0, 59, 75
2, 39647, Note_on_c, 0, 59, 0
2, 39648, Note_on_c, 0, 71, 75
2, 39693, Note_on_c, 0, 71, 0
2, 39696, Note_on_c, 0, 74, 75
2, 39741, Note_on_c, 0, 74, 0
2, 39744, Note_on_c, 0, 66, 75
2, 39840, Note_on_c, 0, 66, 0
2, 39840, Note_on_c, 0, 65, 75
2, 39885, Note_on_c, 0, 65, 0
2, 39888, Note_on_c, 0, 68, 75
2, 39933, Note_on_c, 0, 68, 0
2, 39936, Note_on_c, 0, 68, 75
2, 40032, Note_on_c, 0, 68, 0
2, 40032, Note_on_c, 0, 66, 75
2, 40077, Note_on_c, 0, 66, 0
2, 40080, Note_on_c, 0, 69, 75
2, 40125, Note_on_c, 0, 69, 0
2, 40128, Note_on_c, 0, 69, 75
2, 40224, Note_on_c, 0, 69, 0
2, 40224, Note_on_c, 0, 68, 75
2, 40269, Note_on_c, 0, 68, 0
2, 40272, Note_on_c, 0, 73, 75
2, 40317, Note_on_c, 0, 73, 0
2, 40320, Note_on_c, 0, 71, 75
2, 40343, Note_on_c, 0, 71, 0
2, 40344, Note_on_c, 0, 69, 75
2, 40367, Note_on_c, 0, 69, 0
2, 40368, Note_on_c, 0, 68, 75
2, 40391, Note_on_c, 0, 68, 0
2, 40392, Note_on_c, 0, 66, 75
2, 40415, Note_on_c, 0, 66, 0
2, 40416, Note_on_c, 0, 78, 75
2, 40461, Note_on_c, 0, 78, 0
2, 40464, Note_on_c, 0, 66, 75
2, 40509, Note_on_c, 0, 66, 0
2, 40512, Note_on_c, 0, 65, 75
2, 40560, Note_on_c, 0, 65, 0
2, 40560, Note_on_c, 0, 66, 75
2, 40605, Note_on_c, 0, 66, 0
2, 40608, Note_on_c, 0, 65, 75
2, 40656, Note_on_c, 0, 65, 0
2, 40656, Note_on_c, 0, 66, 75
2, 40701, Note_on_c, 0, 66, 0
2, 40704, Note_on_c, 0, 71, 75
2, 40727, Note_on_c, 0, 71, 0
2, 40728, Note_on_c, 0, 74, 75
2, 40751, Note_on_c, 0, 74, 0
2, 40752, Note_on_c, 0, 68, 75
2, 40775, Note_on_c, 0, 68, 0
2, 40776, Note_on_c, 0, 71, 75
2, 40799, Note_on_c, 0, 71, 0
2, 40800, Note_on_c, 0, 69, 75
2, 40845, Note_on_c, 0, 69, 0
2, 40848, Note_on_c, 0, 78, 70
2, 40893, Note_on_c, 0, 78, 0
2, 40896, Note_on_c, 0, 77, 70
2, 40944, Note_on_c, 0, 77, 0
2, 40944, Note_on_c, 0, 78, 70
2, 40989, Note_on_c, 0, 78, 0
2, 40992, Note_on_c, 0, 77, 70
2, 41040, Note_on_c, 0, 77, 0
2, 41040, Note_on_c, 0, 78, 70
2, 41085, Note_on_c, 0, 78, 0
2, 41088, Note_on_c, 0, 83, 70
2, 41111, Note_on_c, 0, 83, 0
2, 41112, Note_on_c, 0, 86, 70
2, 41135, Note_on_c, 0, 86, 0
2, 41136, Note_on_c, 0, 80, 70
2, 41159, Note_on_c, 0, 80, 0
2, 41160, Note_on_c, 0, 83, 70
2, 41183, Note_on_c, 0, 83, 0
2, 41184, Note_on_c, 0, 81, 70
2, 41229, Note_on_c, 0, 81, 0
2, 41232, Note_on_c, 0, 78, 70
2, 41255, Note_on_c, 0, 78, 0
2, 41256, Note_on_c, 0, 80, 70
2, 41279, Note_on_c, 0, 80, 0
2, 41280, Note_on_c, 0, 81, 71
2, 41303, Note_on_c, 0, 81, 0
2, 41304, Note_on_c, 0, 83, 71
2, 41327, Note_on_c, 0, 83, 0
2, 41328, Note_on_c, 0, 81, 72
2, 41351, Note_on_c, 0, 81, 0
2, 41352, Note_on_c, 0, 80, 72
2, 41375, Note_on_c, 0, 80, 0
2, 41376, Note_on_c, 0, 78, 73
2, 41399, Note_on_c, 0, 78, 0
2, 41400, Note_on_c, 0, 76, 73
2, 41423, Note_on_c, 0, 76, 0
2, 41424, Note_on_c, 0, 75, 74
2, 41447, Note_on_c, 0, 75, 0
2, 41448, Note_on_c, 0, 73, 74
2, 41471, Note_on_c, 0, 73, 0
2, 41472, Note_on_c, 0, 73, 75
2, 41568, Note_on_c, 0, 73, 0
2, 41568, Note_on_c, 0, 72, 75
2, 41613, Note_on_c, 0, 72, 0
2, 41616, Note_on_c, 0, 80, 75
2, 41661, Note_on_c, 0, 80, 0
2, 41664, Note_on_c, 0, 78, 75
2, 41687, Note_on_c, 0, 78, 0
2, 41688, Note_on_c, 0, 76, 75
2, 41711, Note_on_c, 0, 76, 0
2, 41712, Note_on_c, 0, 75, 75
2, 41735, Note_on_c, 0, 75, 0
2, 41736, Note_on_c, 0, 73, 75
2, 41759, Note_on_c, 0, 73, 0
2, 41760, Note_on_c, 0, 81, 75
2, 41780, Note_on_c, 0, 81, 0
2, 41856, Note_on_c, 0, 81, 75
2, 41879, Note_on_c, 0, 81, 0
2, 41880, Note_on_c, 0, 80, 75
2, 41903, Note_on_c, 0, 80, 0
2, 41904, Note_on_c, 0, 78, 75
2, 41927, Note_on_c, 0, 78, 0
2, 41928, Note_on_c, 0, 76, 75
2, 41951, Note_on_c, 0, 76, 0
2, 41952, Note_on_c, 0, 78, 75
2, 41972, Note_on_c, 0, 78, 0
2, 42048, Note_on_c, 0, 78, 75
2, 42071, Note_on_c, 0, 78, 0
2, 42072, Note_on_c, 0, 76, 75
2, 42095, Note_on_c, 0, 76, 0
2, 42096, Note_on_c, 0, 75, 75
2, 42119, Note_on_c, 0, 75, 0
2, 42120, Note_on_c, 0, 73, 75
2, 42143, Note_on_c, 0, 73, 0
2, 42144, Note_on_c, 0, 81, 75
2, 42164, Note_on_c, 0, 81, 0
2, 42240, Note_on_c, 0, 81, 75
2, 42263, Note_on_c, 0, 81, 0
2, 42264, Note_on_c, 0, 80, 75
2, 42287, Note_on_c, 0, 80, 0
2, 42288, Note_on_c, 0, 78, 75
2, 42311, Note_on_c, 0, 78, 0
2, 42312, Note_on_c, 0, 76, 75
2, 42335, Note_on_c, 0, 76, 0
2, 42336, Note_on_c, 0, 78, 75
2, 42356, Note_on_c, 0, 78, 0
2, 42432, Note_on_c, 0, 78, 75
2, 42455, Note_on_c, 0, 78, 0
2, 42456, Note_on_c, 0, 76, 75
2, 42479, Note_on_c, 0, 76, 0
2, 42480, Note_on_c, 0, 75, 75
2, 42503, Note_on_c, 0, 75, 0
2, 42504, Note_on_c, 0, 73, 75
2, 42527, Note_on_c, 0, 73, 0
2, 42528, Note_on_c, 0, 73, 75
2, 42573, Note_on_c, 0, 73, 0
2, 42576, Note_on_c, 0, 73, 75
2, 42621, Note_on_c, 0, 73, 0
2, 42624, Note_on_c, 0, 73, 75
2, 42669, Note_on_c, 0, 73, 0
2, 42672, Note_on_c, 0, 75, 75
2, 42695, Note_on_c, 0, 75, 0
2, 42696, Note_on_c, 0, 78, 75
2, 42719, Note_on_c, 0, 78, 0
2, 42720, Note_on_c, 0, 76, 75
2, 42743, Note_on_c, 0, 76, 0
2, 42744, Note_on_c, 0, 75, 75
2, 42767, Note_on_c, 0, 75, 0
2, 42768, Note_on_c, 0, 73, 75
2, 42791, Note_on_c, 0, 73, 0
2, 42792, Note_on_c, 0, 72, 75
2, 42815, Note_on_c, 0, 72, 0
2, 42816, Note_on_c, 0, 73, 75
2, 42861, Note_on_c, 0, 73, 0
2, 42864, Note_on_c, 0, 73, 75
2, 42909, Note_on_c, 0, 73, 0
2, 42912, Note_on_c, 0, 73, 75
2, 42957, Note_on_c, 0, 73, 0
2, 42960, Note_on_c, 0, 73, 75
2, 43005, Note_on_c, 0, 73, 0
2, 43008, Note_on_c, 0, 73, 75
2, 43053, Note_on_c, 0, 73, 0
2, 43056, Note_on_c, 0, 75, 75
2, 43079, Note_on_c, 0, 75, 0
2, 43080, Note_on_c, 0, 78, 75
2, 43103, Note_on_c, 0, 78, 0
2, 43104, Note_on_c, 0, 76, 75
2, 43127, Note_on_c, 0, 76, 0
2, 43128, Note_on_c, 0, 75, 75
2, 43151, Note_on_c, 0, 75, 0
2, 43152, Note_on_c, 0, 73, 75
2, 43175, Note_on_c, 0, 73, 0
2, 43176, Note_on_c, 0, 72, 75
2, 43199, Note_on_c, 0, 72, 0
2, 43200, Note_on_c, 0, 73, 75
2, 43289, Note_on_c, 0, 73, 0
2, 43344, Note_on_c, 0, 68, 75
2, 43356, Note_on_c, 0, 68, 0
2, 43356, Note_on_c, 0, 80, 75
2, 43390, Note_on_c, 0, 80, 0
2, 43392, Note_on_c, 0, 67, 75
2, 43404, Note_on_c, 0, 67, 0
2, 43404, Note_on_c, 0, 79, 75
2, 43438, Note_on_c, 0, 79, 0
2, 43512, Note_on_c, 0, 85, 75
2, 43535, Note_on_c, 0, 85, 0
2, 43536, Note_on_c, 0, 82, 75
2, 43559, Note_on_c, 0, 82, 0
2, 43560, Note_on_c, 0, 79, 75
2, 43583, Note_on_c, 0, 79, 0
2, 43584, Note_on_c, 0, 80, 75
2, 43673, Note_on_c, 0, 80, 0
2, 43728, Note_on_c, 0, 66, 75
2, 43740, Note_on_c, 0, 66, 0
2, 43740, Note_on_c, 0, 78, 75
2, 43774, Note_on_c, 0, 78, 0
2, 43776, Note_on_c, 0, 65, 75
2, 43788, Note_on_c, 0, 65, 0
2, 43788, Note_on_c, 0, 77, 75
2, 43822, Note_on_c, 0, 77, 0
2, 43896, Note_on_c, 0, 83, 75
2, 43919, Note_on_c, 0, 83, 0
2, 43920, Note_on_c, 0, 80, 75
2, 43943, Note_on_c, 0, 80, 0
2, 43944, Note_on_c, 0, 77, 75
2, 43967, Note_on_c, 0, 77, 0
2, 43968, Note_on_c, 0, 78, 75
2, 44057, Note_on_c, 0, 78, 0
2, 44112, Note_on_c, 0, 64, 75
2, 44124, Note_on_c, 0, 64, 0
2, 44124, Note_on_c, 0, 76, 75
2, 44158, Note_on_c, 0, 76, 0
2, 44160, Note_on_c, 0, 63, 75
2, 44172, Note_on_c, 0, 63, 0
2, 44172, Note_on_c, 0, 75, 75
2, 44206, Note_on_c, 0, 75, 0
2, 44280, Note_on_c, 0, 83, 75
2, 44303, Note_on_c, 0, 83, 0
2, 44304, Note_on_c, 0, 78, 75
2, 44327, Note_on_c, 0, 78, 0
2, 44328, Note_on_c, 0, 75, 75
2, 44351, Note_on_c, 0, 75, 0
2, 44352, Note_on_c, 0, 78, 75
2, 44448, Note_on_c, 0, 78, 0
2, 44448, Note_on_c, 0, 76, 75
2, 44471, Note_on_c, 0, 76, 0
2, 44472, Note_on_c, 0, 71, 75
2, 44495, Note_on_c, 0, 71, 0
2, 44496, Note_on_c, 0, 76, 75
2, 44519, Note_on_c, 0, 76, 0
2, 44520, Note_on_c, 0, 80, 75
2, 44543, Note_on_c, 0, 80, 0
2, 44544, Note_on_c, 0, 71, 75
2, 44589, Note_on_c, 0, 71, 0
2, 44592, Note_on_c, 0, 81, 91
2, 44592, Note_on_c, 0, 78, 91
2, 44688, Note_on_c, 0, 81, 0
2, 44688, Note_on_c, 0, 78, 0
2, 44688, Note_on_c, 0, 80, 75
2, 44688, Note_on_c, 0, 76, 75
2, 44733, Note_on_c, 0, 80, 0
2, 44733, Note_on_c, 0, 76, 0
2, 44736, Note_on_c, 0, 80, 75
2, 44736, Note_on_c, 0, 76, 75
2, 44781, Note_on_c, 0, 80, 0
2, 44781, Note_on_c, 0, 76, 0
2, 44784, Note_on_c, 0, 78, 75
2, 44784, Note_on_c, 0, 75, 75
2, 44829, Note_on_c, 0, 78, 0
2, 44829, Note_on_c, 0, 75, 0
2, 44880, Note_on_c, 0, 71, 75
2, 44925, Note_on_c, 0, 71, 0
2, 44928, Note_on_c, 0, 69, 75
2, 44951, Note_on_c, 0, 69, 0
2, 44952, Note_on_c, 0, 68, 75
2, 44975, Note_on_c, 0, 68, 0
2, 44976, Note_on_c, 0, 66, 75
2, 44999, Note_on_c, 0, 66, 0
2, 45000, Note_on_c, 0, 64, 75
2, 45023, Note_on_c, 0, 64, 0
2, 45024, Note_on_c, 0, 73, 75
2, 45044, Note_on_c, 0, 73, 0
2, 45120, Note_on_c, 0, 73, 75
2, 45143, Note_on_c, 0, 73, 0
2, 45144, Note_on_c, 0, 71, 75
2, 45167, Note_on_c, 0, 71, 0
2, 45168, Note_on_c, 0, 69, 75
2, 45191, Note_on_c, 0, 69, 0
2, 45192, Note_on_c, 0, 68, 75
2, 45215, Note_on_c, 0, 68, 0
2, 45216, Note_on_c, 0, 66, 75
2, 45236, Note_on_c, 0, 66, 0
2, 45312, Note_on_c, 0, 69, 75
2, 45335, Note_on_c, 0, 69, 0
2, 45336, Note_on_c, 0, 68, 75
2, 45359, Note_on_c, 0, 68, 0
2, 45360, Note_on_c, 0, 66, 75
2, 45383, Note_on_c, 0, 66, 0
2, 45384, Note_on_c, 0, 64, 75
2, 45407, Note_on_c, 0, 64, 0
2, 45408, Note_on_c, 0, 76, 75
2, 45453, Note_on_c, 0, 76, 0
2, 45456, Note_on_c, 0, 68, 75
2, 45479, Note_on_c, 0, 68, 0
2, 45480, Note_on_c, 0, 73, 75
2, 45503, Note_on_c, 0, 73, 0
2, 45504, Note_on_c, 0, 71, 75
2, 45549, Note_on_c, 0, 71, 0
2, 45552, Note_on_c, 0, 69, 75
2, 45564, Note_on_c, 0, 69, 0
2, 45564, Note_on_c, 0, 71, 75
2, 45576, Note_on_c, 0, 71, 0
2, 45576, Note_on_c, 0, 69, 75
2, 45588, Note_on_c, 0, 69, 0
2, 45588, Note_on_c, 0, 71, 75
2, 45597, Note_on_c, 0, 71, 0
2, 45600, Note_on_c, 0, 68, 75
2, 45645, Note_on_c, 0, 68, 0
2, 45648, Note_on_c, 0, 71, 75
2, 45693, Note_on_c, 0, 71, 0
2, 45696, Note_on_c, 0, 69, 75
2, 45719, Note_on_c, 0, 69, 0
2, 45720, Note_on_c, 0, 67, 75
2, 45743, Note_on_c, 0, 67, 0
2, 45744, Note_on_c, 0, 66, 75
2, 45767, Note_on_c, 0, 66, 0
2, 45768, Note_on_c, 0, 64, 75
2, 45791, Note_on_c, 0, 64, 0
2, 45792, Note_on_c, 0, 72, 75
2, 45812, Note_on_c, 0, 72, 0
2, 45888, Note_on_c, 0, 72, 75
2, 45911, Note_on_c, 0, 72, 0
2, 45912, Note_on_c, 0, 71, 75
2, 45935, Note_on_c, 0, 71, 0
2, 45936, Note_on_c, 0, 69, 75
2, 45959, Note_on_c, 0, 69, 0
2, 45960, Note_on_c, 0, 67, 75
2, 45983, Note_on_c, 0, 67, 0
2, 45984, Note_on_c, 0, 66, 75
2, 46004, Note_on_c, 0, 66, 0
2, 46080, Note_on_c, 0, 69, 75
2, 46103, Note_on_c, 0, 69, 0
2, 46104, Note_on_c, 0, 67, 75
2, 46127, Note_on_c, 0, 67, 0
2, 46128, Note_on_c, 0, 66, 75
2, 46151, Note_on_c, 0, 66, 0
2, 46152, Note_on_c, 0, 64, 75
2, 46175, Note_on_c, 0, 64, 0
2, 46176, Note_on_c, 0, 74, 75
2, 46199, Note_on_c, 0, 74, 0
2, 46200, Note_on_c, 0, 72, 75
2, 46223, Note_on_c, 0, 72, 0
2, 46224, Note_on_c, 0, 71, 75
2, 46247, Note_on_c, 0, 71, 0
2, 46248, Note_on_c, 0, 69, 75
2, 46271, Note_on_c, 0, 69, 0
2, 46272, Note_on_c, 0, 72, 75
2, 46295, Note_on_c, 0, 72, 0
2, 46296, Note_on_c, 0, 71, 75
2, 46319, Note_on_c, 0, 71, 0
2, 46320, Note_on_c, 0, 69, 75
2, 46343, Note_on_c, 0, 69, 0
2, 46344, Note_on_c, 0, 67, 75
2, 46367, Note_on_c, 0, 67, 0
2, 46368, Note_on_c, 0, 71, 75
2, 46391, Note_on_c, 0, 71, 0
2, 46392, Note_on_c, 0, 69, 75
2, 46415, Note_on_c, 0, 69, 0
2, 46416, Note_on_c, 0, 67, 75
2, 46439, Note_on_c, 0, 67, 0
2, 46440, Note_on_c, 0, 66, 75
2, 46463, Note_on_c, 0, 66, 0
2, 46464, Note_on_c, 0, 69, 75
2, 46487, Note_on_c, 0, 69, 0
2, 46488, Note_on_c, 0, 67, 75
2, 46511, Note_on_c, 0, 67, 0
2, 46512, Note_on_c, 0, 66, 75
2, 46535, Note_on_c, 0, 66, 0
2, 46536, Note_on_c, 0, 64, 75
2, 46559, Note_on_c, 0, 64, 0
2, 46560, Note_on_c, 0, 74, 75
2, 46583, Note_on_c, 0, 74, 0
2, 46584, Note_on_c, 0, 72, 75
2, 46607, Note_on_c, 0, 72, 0
2, 46608, Note_on_c, 0, 71, 75
2, 46631, Note_on_c, 0, 71, 0
2, 46632, Note_on_c, 0, 69, 75
2, 46655, Note_on_c, 0, 69, 0
2, 46656, Note_on_c, 0, 72, 75
2, 46679, Note_on_c, 0, 72, 0
2, 46680, Note_on_c, 0, 71, 75
2, 46703, Note_on_c, 0, 71, 0
2, 46704, Note_on_c, 0, 69, 75
2, 46727, Note_on_c, 0, 69, 0
2, 46728, Note_on_c, 0, 67, 75
2, 46751, Note_on_c, 0, 67, 0
2, 46752, Note_on_c, 0, 71, 76
2, 46775, Note_on_c, 0, 71, 0
2, 46776, Note_on_c, 0, 69, 76
2, 46799, Note_on_c, 0, 69, 0
2, 46800, Note_on_c, 0, 67, 76
2, 46823, Note_on_c, 0, 67, 0
2, 46824, Note_on_c, 0, 66, 77
2, 46847, Note_on_c, 0, 66, 0
2, 46848, Note_on_c, 0, 69, 77
2, 46871, Note_on_c, 0, 69, 0
2, 46872, Note_on_c, 0, 67, 77
2, 46895, Note_on_c, 0, 67, 0
2, 46896, Note_on_c, 0, 66, 78
2, 46919, Note_on_c, 0, 66, 0
2, 46920, Note_on_c, 0, 64, 78
2, 46943, Note_on_c, 0, 64, 0
2, 46944, Note_on_c, 0, 76, 78
2, 46989, Note_on_c, 0, 76, 0
2, 46992, Note_on_c, 0, 70, 79
2, 46992, Note_on_c, 0, 64, 79
2, 47037, Note_on_c, 0, 70, 0
2, 47037, Note_on_c, 0, 64, 0
2, 47040, Note_on_c, 0, 71, 80
2, 47040, Note_on_c, 0, 63, 80
2, 47129, Note_on_c, 0, 71, 0
2, 47129, Note_on_c, 0, 63, 0
2, 47184, Note_on_c, 0, 59, 75
2, 47204, Note_on_c, 0, 59, 0
2, 47232, Note_on_c, 0, 59, 75
2, 47365, Note_on_c, 0, 59, 0
2, 47376, Note_on_c, 0, 68, 75
2, 47399, Note_on_c, 0, 68, 0
2, 47400, Note_on_c, 0, 64, 75
2, 47423, Note_on_c, 0, 64, 0
2, 47424, Note_on_c, 0, 59, 75
2, 47557, Note_on_c, 0, 59, 0
2, 47568, Note_on_c, 0, 69, 75
2, 47591, Note_on_c, 0, 69, 0
2, 47592, Note_on_c, 0, 66, 75
2, 47615, Note_on_c, 0, 66, 0
2, 47616, Note_on_c, 0, 68, 75
2, 47639, Note_on_c, 0, 68, 0
2, 47640, Note_on_c, 0, 64, 75
2, 47663, Note_on_c, 0, 64, 0
2, 47664, Note_on_c, 0, 69, 75
2, 47687, Note_on_c, 0, 69, 0
2, 47688, Note_on_c, 0, 64, 75
2, 47711, Note_on_c, 0, 64, 0
2, 47712, Note_on_c, 0, 71, 75
2, 47757, Note_on_c, 0, 71, 0
2, 47760, Note_on_c, 0, 59, 75
2, 47780, Note_on_c, 0, 59, 0
2, 47808, Note_on_c, 0, 59, 75
2, 47927, Note_on_c, 0, 59, 0
2, 47928, Note_on_c, 0, 63, 75
2, 47951, Note_on_c, 0, 63, 0
2, 47952, Note_on_c, 0, 64, 75
2, 47975, Note_on_c, 0, 64, 0
2, 47976, Note_on_c, 0, 68, 75
2, 47999, Note_on_c, 0, 68, 0
2, 48000, Note_on_c, 0, 59, 75
2, 48119, Note_on_c, 0, 59, 0
2, 48120, Note_on_c, 0, 63, 75
2, 48143, Note_on_c, 0, 63, 0
2, 48144, Note_on_c, 0, 66, 75
2, 48167, Note_on_c, 0, 66, 0
2, 48168, Note_on_c, 0, 69, 75
2, 48191, Note_on_c, 0, 69, 0
2, 48192, Note_on_c, 0, 68, 75
2, 48215, Note_on_c, 0, 68, 0
2, 48216, Note_on_c, 0, 64, 75
2, 48239, Note_on_c, 0, 64, 0
2, 48240, Note_on_c, 0, 69, 75
2, 48263, Note_on_c, 0, 69, 0
2, 48264, Note_on_c, 0, 64, 75
2, 48287, Note_on_c, 0, 64, 0
2, 48288, Note_on_c, 0, 71, 75
2, 48333, Note_on_c, 0, 71, 0
2, 48336, Note_on_c, 0, 76, 75
2, 48381, Note_on_c, 0, 76, 0
2, 48384, Note_on_c, 0, 75, 75
2, 48480, Note_on_c, 0, 75, 0
2, 48480, Note_on_c, 0, 73, 75
2, 48525, Note_on_c, 0, 73, 0
2, 48528, Note_on_c, 0, 76, 75
2, 48573, Note_on_c, 0, 76, 0
2, 48576, Note_on_c, 0, 73, 75
2, 48672, Note_on_c, 0, 73, 0
2, 48672, Note_on_c, 0, 71, 75
2, 48695, Note_on_c, 0, 71, 0
2, 48696, Note_on_c, 0, 76, 75
2, 48719, Note_on_c, 0, 76, 0
2, 48720, Note_on_c, 0, 80, 75
2, 48743, Note_on_c, 0, 80, 0
2, 48744, Note_on_c, 0, 83, 75
2, 48767, Note_on_c, 0, 83, 0
2, 48768, Note_on_c, 0, 71, 75
2, 48857, Note_on_c, 0, 71, 0
2, 48864, Note_on_c, 0, 69, 75
2, 48909, Note_on_c, 0, 69, 0
2, 48912, Note_on_c, 0, 68, 75
2, 48957, Note_on_c, 0, 68, 0
2, 48960, Note_on_c, 0, 68, 75
2, 48972, Note_on_c, 0, 68, 0
2, 48972, Note_on_c, 0, 69, 75
2, 48984, Note_on_c, 0, 69, 0
2, 48984, Note_on_c, 0, 68, 75
2, 49005, Note_on_c, 0, 68, 0
2, 49008, Note_on_c, 0, 66, 75
2, 49053, Note_on_c, 0, 66, 0
2, 49104, Note_on_c, 0, 71, 75
2, 49149, Note_on_c, 0, 71, 0
2, 49152, Note_on_c, 0, 69, 75
2, 49175, Note_on_c, 0, 69, 0
2, 49176, Note_on_c, 0, 68, 75
2, 49199, Note_on_c, 0, 68, 0
2, 49200, Note_on_c, 0, 66, 75
2, 49223, Note_on_c, 0, 66, 0
2, 49224, Note_on_c, 0, 64, 75
2, 49247, Note_on_c, 0, 64, 0
2, 49248, Note_on_c, 0, 76, 75
2, 49293, Note_on_c, 0, 76, 0
2, 49296, Note_on_c, 0, 64, 75
2, 49341, Note_on_c, 0, 64, 0
2, 49344, Note_on_c, 0, 63, 75
2, 49392, Note_on_c, 0, 63, 0
2, 49392, Note_on_c, 0, 64, 75
2, 49437, Note_on_c, 0, 64, 0
2, 49440, Note_on_c, 0, 63, 75
2, 49488, Note_on_c, 0, 63, 0
2, 49488, Note_on_c, 0, 64, 75
2, 49533, Note_on_c, 0, 64, 0
2, 49536, Note_on_c, 0, 69, 75
2, 49559, Note_on_c, 0, 69, 0
2, 49560, Note_on_c, 0, 73, 75
2, 49583, Note_on_c, 0, 73, 0
2, 49584, Note_on_c, 0, 66, 75
2, 49607, Note_on_c, 0, 66, 0
2, 49608, Note_on_c, 0, 69, 75
2, 49631, Note_on_c, 0, 69, 0
2, 49632, Note_on_c, 0, 68, 75
2, 49677, Note_on_c, 0, 68, 0
2, 49680, Note_on_c, 0, 71, 70
2, 49725, Note_on_c, 0, 71, 0
2, 49728, Note_on_c, 0, 69, 70
2, 49751, Note_on_c, 0, 69, 0
2, 49752, Note_on_c, 0, 68, 70
2, 49775, Note_on_c, 0, 68, 0
2, 49776, Note_on_c, 0, 66, 70
2, 49799, Note_on_c, 0, 66, 0
2, 49800, Note_on_c, 0, 64, 70
2, 49823, Note_on_c, 0, 64, 0
2, 49824, Note_on_c, 0, 76, 70
2, 49869, Note_on_c, 0, 76, 0
2, 49872, Note_on_c, 0, 64, 70
2, 49917, Note_on_c, 0, 64, 0
2, 49920, Note_on_c, 0, 63, 70
2, 49968, Note_on_c, 0, 63, 0
2, 49968, Note_on_c, 0, 64, 70
2, 50013, Note_on_c, 0, 64, 0
2, 50016, Note_on_c, 0, 63, 70
2, 50064, Note_on_c, 0, 63, 0
2, 50064, Note_on_c, 0, 64, 70
2, 50109, Note_on_c, 0, 64, 0
2, 50112, Note_on_c, 0, 69, 70
2, 50135, Note_on_c, 0, 69, 0
2, 50136, Note_on_c, 0, 73, 70
2, 50159, Note_on_c, 0, 73, 0
2, 50160, Note_on_c, 0, 66, 70
2, 50183, Note_on_c, 0, 66, 0
2, 50184, Note_on_c, 0, 69, 70
2, 50207, Note_on_c, 0, 69, 0
2, 50208, Note_on_c, 0, 68, 70
2, 50231, Note_on_c, 0, 68, 0
2, 50232, Note_on_c, 0, 71, 70
2, 50255, Note_on_c, 0, 71, 0
2, 50256, Note_on_c, 0, 64, 70
2, 50279, Note_on_c, 0, 64, 0
2, 50280, Note_on_c, 0, 68, 70
2, 50303, Note_on_c, 0, 68, 0
2, 50304, Note_on_c, 0, 66, 70
2, 50327, Note_on_c, 0, 66, 0
2, 50328, Note_on_c, 0, 69, 70
2, 50351, Note_on_c, 0, 69, 0
2, 50352, Note_on_c, 0, 63, 71
2, 50375, Note_on_c, 0, 63, 0
2, 50376, Note_on_c, 0, 66, 71
2, 50399, Note_on_c, 0, 66, 0
2, 50400, Note_on_c, 0, 64, 72
2, 50423, Note_on_c, 0, 64, 0
2, 50424, Note_on_c, 0, 68, 73
2, 50447, Note_on_c, 0, 68, 0
2, 50448, Note_on_c, 0, 71, 73
2, 50471, Note_on_c, 0, 71, 0
2, 50472, Note_on_c, 0, 68, 74
2, 50495, Note_on_c, 0, 68, 0
2, 50496, Note_on_c, 0, 69, 75
2, 50519, Note_on_c, 0, 69, 0
2, 50520, Note_on_c, 0, 73, 75
2, 50543, Note_on_c, 0, 73, 0
2, 50544, Note_on_c, 0, 66, 75
2, 50567, Note_on_c, 0, 66, 0
2, 50568, Note_on_c, 0, 69, 75
2, 50591, Note_on_c, 0, 69, 0
2, 50592, Note_on_c, 0, 68, 75
2, 50615, Note_on_c, 0, 68, 0
2, 50616, Note_on_c, 0, 71, 75
2, 50639, Note_on_c, 0, 71, 0
2, 50640, Note_on_c, 0, 64, 75
2, 50663, Note_on_c, 0, 64, 0
2, 50664, Note_on_c, 0, 68, 75
2, 50687, Note_on_c, 0, 68, 0
2, 50688, Note_on_c, 0, 66, 75
2, 50711, Note_on_c, 0, 66, 0
2, 50712, Note_on_c, 0, 69, 76
2, 50735, Note_on_c, 0, 69, 0
2, 50736, Note_on_c, 0, 63, 77
2, 50759, Note_on_c, 0, 63, 0
2, 50760, Note_on_c, 0, 66, 78
2, 50783, Note_on_c, 0, 66, 0
2, 50784, Note_on_c, 0, 64, 79
2, 50807, Note_on_c, 0, 64, 0
2, 50808, Note_on_c, 0, 68, 80
2, 50831, Note_on_c, 0, 68, 0
2, 50832, Note_on_c, 0, 71, 80
2, 50855, Note_on_c, 0, 71, 0
2, 50856, Note_on_c, 0, 76, 80
2, 50879, Note_on_c, 0, 76, 0
2, 50880, Note_on_c, 0, 71, 96
2, 50976, Note_on_c, 0, 71, 0
2, 50976, Note_on_c, 0, 70, 80
2, 50999, Note_on_c, 0, 70, 0
2, 51000, Note_on_c, 0, 64, 80
2, 51023, Note_on_c, 0, 64, 0
2, 51024, Note_on_c, 0, 70, 80
2, 51047, Note_on_c, 0, 70, 0
2, 51048, Note_on_c, 0, 76, 80
2, 51071, Note_on_c, 0, 76, 0
2, 51072, Note_on_c, 0, 71, 96
2, 51168, Note_on_c, 0, 71, 0
2, 51168, Note_on_c, 0, 70, 80
2, 51191, Note_on_c, 0, 70, 0
2, 51192, Note_on_c, 0, 64, 80
2, 51215, Note_on_c, 0, 64, 0
2, 51216, Note_on_c, 0, 70, 80
2, 51239, Note_on_c, 0, 70, 0
2, 51240, Note_on_c, 0, 76, 80
2, 51263, Note_on_c, 0, 76, 0
2, 51264, Note_on_c, 0, 71, 96
2, 51360, Note_on_c, 0, 71, 0
2, 51360, Note_on_c, 0, 70, 80
2, 51383, Note_on_c, 0, 70, 0
2, 51384, Note_on_c, 0, 79, 80
2, 51407, Note_on_c, 0, 79, 0
2, 51408, Note_on_c, 0, 78, 80
2, 51431, Note_on_c, 0, 78, 0
2, 51432, Note_on_c, 0, 76, 80
2, 51455, Note_on_c, 0, 76, 0
2, 51456, Note_on_c, 0, 76, 96
2, 51552, Note_on_c, 0, 76, 0
2, 51552, Note_on_c, 0, 75, 80
2, 51575, Note_on_c, 0, 75, 0
2, 51576, Note_on_c, 0, 78, 80
2, 51599, Note_on_c, 0, 78, 0
2, 51600, Note_on_c, 0, 75, 80
2, 51623, Note_on_c, 0, 75, 0
2, 51624, Note_on_c, 0, 73, 80
2, 51647, Note_on_c, 0, 73, 0
2, 51648, Note_on_c, 0, 73, 96
2, 51744, Note_on_c, 0, 73, 0
2, 51744, Note_on_c, 0, 71, 80
2, 51767, Note_on_c, 0, 71, 0
2, 51768, Note_on_c, 0, 78, 80
2, 51791, Note_on_c, 0, 78, 0
2, 51792, Note_on_c, 0, 71, 80
2, 51815, Note_on_c, 0, 71, 0
2, 51816, Note_on_c, 0, 69, 80
2, 51839, Note_on_c, 0, 69, 0
2, 51840, Note_on_c, 0, 69, 96
2, 51936, Note_on_c, 0, 69, 0
2, 51936, Note_on_c, 0, 68, 80
2, 51959, Note_on_c, 0, 68, 0
2, 51960, Note_on_c, 0, 71, 80
2, 51983, Note_on_c, 0, 71, 0
2, 51984, Note_on_c, 0, 68, 80
2, 52007, Note_on_c, 0, 68, 0
2, 52008, Note_on_c, 0, 64, 80
2, 52031, Note_on_c, 0, 64, 0
2, 52032, Note_on_c, 0, 73, 80
2, 52077, Note_on_c, 0, 73, 0
2, 52080, Note_on_c, 0, 61, 80
2, 52092, Note_on_c, 0, 61, 0
2, 52092, Note_on_c, 0, 73, 78
2, 52126, Note_on_c, 0, 73, 0
2, 52128, Note_on_c, 0, 61, 75
2, 52140, Note_on_c, 0, 61, 0
2, 52140, Note_on_c, 0, 73, 73
2, 52174, Note_on_c, 0, 73, 0
2, 52176, Note_on_c, 0, 61, 70
2, 52188, Note_on_c, 0, 61, 0
2, 52188, Note_on_c, 0, 73, 68
2, 52222, Note_on_c, 0, 73, 0
2, 52224, Note_on_c, 0, 61, 65
2, 52236, Note_on_c, 0, 61, 0
2, 52236, Note_on_c, 0, 73, 64
2, 52314, Note_on_c, 0, 73, 0
2, 52464, Note_on_c, 0, 61, 64
2, 52488, Note_on_c, 0, 61, 0
2, 52488, Note_on_c, 0, 66, 65
2, 52511, Note_on_c, 0, 66, 0
2, 52512, Note_on_c, 0, 66, 66
2, 52536, Note_on_c, 0, 66, 0
2, 52536, Note_on_c, 0, 69, 68
2, 52559, Note_on_c, 0, 69, 0
2, 52560, Note_on_c, 0, 69, 69
2, 52584, Note_on_c, 0, 69, 0
2, 52584, Note_on_c, 0, 73, 70
2, 52607, Note_on_c, 0, 73, 0
2, 52608, Note_on_c, 0, 73, 72
2, 52632, Note_on_c, 0, 73, 0
2, 52632, Note_on_c, 0, 78, 73
2, 52655, Note_on_c, 0, 78, 0
2, 52656, Note_on_c, 0, 78, 74
2, 52680, Note_on_c, 0, 78, 0
2, 52680, Note_on_c, 0, 81, 76
2, 52703, Note_on_c, 0, 81, 0
2, 52704, Note_on_c, 0, 81, 77
2, 52728, Note_on_c, 0, 81, 0
2, 52728, Note_on_c, 0, 85, 78
2, 52751, Note_on_c, 0, 85, 0
2, 52752, Note_on_c, 0, 85, 80
2, 52776, Note_on_c, 0, 85, 0
2, 52776, Note_on_c, 0, 81, 80
2, 52799, Note_on_c, 0, 81, 0
2, 52800, Note_on_c, 0, 81, 80
2, 52823, Note_on_c, 0, 81, 0
2, 52824, Note_on_c, 0, 80, 80
2, 52847, Note_on_c, 0, 80, 0
2, 52848, Note_on_c, 0, 83, 80
2, 52871, Note_on_c, 0, 83, 0
2, 52872, Note_on_c, 0, 76, 80
2, 52895, Note_on_c, 0, 76, 0
2, 52896, Note_on_c, 0, 78, 80
2, 52908, Note_on_c, 0, 78, 0
2, 52908, Note_on_c, 0, 80, 80
2, 52920, Note_on_c, 0, 80, 0
2, 52920, Note_on_c, 0, 78, 80
2, 52932, Note_on_c, 0, 78, 0
2, 52932, Note_on_c, 0, 80, 80
2, 52944, Note_on_c, 0, 80, 0
2, 52944, Note_on_c, 0, 78, 80
2, 52956, Note_on_c, 0, 78, 0
2, 52956, Note_on_c, 0, 80, 80
2, 52961, Note_on_c, 0, 80, 0
2, 52968, Note_on_c, 0, 76, 80
2, 52980, Note_on_c, 0, 76, 0
2, 52980, Note_on_c, 0, 78, 80
2, 52992, Note_on_c, 0, 78, 0
2, 52992, Note_on_c, 0, 76, 80
2, 53081, Note_on_c, 0, 76, 0
2, 53088, Note_on_c, 0, 73, 80
2, 53111, Note_on_c, 0, 73, 0
2, 53112, Note_on_c, 0, 76, 80
2, 53135, Note_on_c, 0, 76, 0
2, 53136, Note_on_c, 0, 75, 80
2, 53159, Note_on_c, 0, 75, 0
2, 53160, Note_on_c, 0, 73, 80
2, 53183, Note_on_c, 0, 73, 0
2, 53184, Note_on_c, 0, 73, 80
2, 53207, Note_on_c, 0, 73, 0
2, 53208, Note_on_c, 0, 71, 80
2, 53231, Note_on_c, 0, 71, 0
2, 53232, Note_on_c, 0, 70, 80
2, 53255, Note_on_c, 0, 70, 0
2, 53256, Note_on_c, 0, 71, 80
2, 53279, Note_on_c, 0, 71, 0
2, 53280, Note_on_c, 0, 69, 80
2, 53303, Note_on_c, 0, 69, 0
2, 53304, Note_on_c, 0, 73, 80
2, 53327, Note_on_c, 0, 73, 0
2, 53328, Note_on_c, 0, 71, 80
2, 53351, Note_on_c, 0, 71, 0
2, 53352, Note_on_c, 0, 69, 80
2, 53375, Note_on_c, 0, 69, 0
2, 53376, Note_on_c, 0, 69, 80
2, 53399, Note_on_c, 0, 69, 0
2, 53400, Note_on_c, 0, 68, 80
2, 53423, Note_on_c, 0, 68, 0
2, 53424, Note_on_c, 0, 67, 80
2, 53447, Note_on_c, 0, 67, 0
2, 53448, Note_on_c, 0, 68, 80
2, 53471, Note_on_c, 0, 68, 0
2, 53472, Note_on_c, 0, 66, 80
2, 53495, Note_on_c, 0, 66, 0
2, 53496, Note_on_c, 0, 69, 80
2, 53519, Note_on_c, 0, 69, 0
2, 53520, Note_on_c, 0, 68, 80
2, 53543, Note_on_c, 0, 68, 0
2, 53544, Note_on_c, 0, 66, 80
2, 53567, Note_on_c, 0, 66, 0
2, 53568, Note_on_c, 0, 66, 80
2, 53591, Note_on_c, 0, 66, 0
2, 53592, Note_on_c, 0, 64, 80
2, 53615, Note_on_c, 0, 64, 0
2, 53616, Note_on_c, 0, 63, 80
2, 53639, Note_on_c, 0, 63, 0
2, 53640, Note_on_c, 0, 64, 80
2, 53663, Note_on_c, 0, 64, 0
2, 53664, Note_on_c, 0, 71, 96
2, 53783, Note_on_c, 0, 71, 0
2, 53784, Note_on_c, 0, 69, 80
2, 53807, Note_on_c, 0, 69, 0
2, 53808, Note_on_c, 0, 68, 80
2, 53831, Note_on_c, 0, 68, 0
2, 53832, Note_on_c, 0, 66, 80
2, 53855, Note_on_c, 0, 66, 0
2, 53856, Note_on_c, 0, 64, 80
2, 53901, Note_on_c, 0, 64, 0
2, 53904, Note_on_c, 0, 66, 80
2, 53916, Note_on_c, 0, 66, 0
2, 53916, Note_on_c, 0, 68, 80
2, 53928, Note_on_c, 0, 68, 0
2, 53928, Note_on_c, 0, 66, 80
2, 53940, Note_on_c, 0, 66, 0
2, 53940, Note_on_c, 0, 68, 80
2, 53949, Note_on_c, 0, 68, 0
2, 53952, Note_on_c, 0, 64, 80
2, 54041, Note_on_c, 0, 64, 0
2, 54064, Note_on_c, 0, 73, 80
2, 54079, Note_on_c, 0, 73, 0
2, 54080, Note_on_c, 0, 75, 80
2, 54095, Note_on_c, 0, 75, 0
2, 54096, Note_on_c, 0, 76, 80
2, 54111, Note_on_c, 0, 76, 0
2, 54112, Note_on_c, 0, 75, 80
2, 54127, Note_on_c, 0, 75, 0
2, 54128, Note_on_c, 0, 73, 80
2, 54143, Note_on_c, 0, 73, 0
2, 54144, Note_on_c, 0, 73, 80
2, 54167, Note_on_c, 0, 73, 0
2, 54168, Note_on_c, 0, 71, 80
2, 54191, Note_on_c, 0, 71, 0
2, 54192, Note_on_c, 0, 70, 80
2, 54215, Note_on_c, 0, 70, 0
2, 54216, Note_on_c, 0, 71, 80
2, 54239, Note_on_c, 0, 71, 0
2, 54256, Note_on_c, 0, 69, 80
2, 54271, Note_on_c, 0, 69, 0
2, 54272, Note_on_c, 0, 71, 80
2, 54287, Note_on_c, 0, 71, 0
2, 54288, Note_on_c, 0, 73, 80
2, 54303, Note_on_c, 0, 73, 0
2, 54304, Note_on_c, 0, 71, 80
2, 54319, Note_on_c, 0, 71, 0
2, 54320, Note_on_c, 0, 69, 80
2, 54335, Note_on_c, 0, 69, 0
2, 54336, Note_on_c, 0, 69, 80
2, 54359, Note_on_c, 0, 69, 0
2, 54360, Note_on_c, 0, 68, 80
2, 54383, Note_on_c, 0, 68, 0
2, 54384, Note_on_c, 0, 67, 80
2, 54407, Note_on_c, 0, 67, 0
2, 54408, Note_on_c, 0, 68, 80
2, 54431, Note_on_c, 0, 68, 0
2, 54448, Note_on_c, 0, 66, 80
2, 54463, Note_on_c, 0, 66, 0
2, 54464, Note_on_c, 0, 68, 80
2, 54479, Note_on_c, 0, 68, 0
2, 54480, Note_on_c, 0, 69, 80
2, 54495, Note_on_c, 0, 69, 0
2, 54496, Note_on_c, 0, 68, 80
2, 54511, Note_on_c, 0, 68, 0
2, 54512, Note_on_c, 0, 66, 80
2, 54527, Note_on_c, 0, 66, 0
2, 54528, Note_on_c, 0, 64, 80
2, 54551, Note_on_c, 0, 64, 0
2, 54552, Note_on_c, 0, 66, 80
2, 54564, Note_on_c, 0, 66, 0
2, 54564, Note_on_c, 0, 68, 80
2, 54576, Note_on_c, 0, 68, 0
2, 54576, Note_on_c, 0, 69, 80
2, 54588, Note_on_c, 0, 69, 0
2, 54588, Note_on_c, 0, 71, 80
2, 54600, Note_on_c, 0, 71, 0
2, 54600, Note_on_c, 0, 73, 80
2, 54612, Note_on_c, 0, 73, 0
2, 54612, Note_on_c, 0, 75, 80
2, 54624, Note_on_c, 0, 75, 0
2, 54624, Note_on_c, 0, 76, 80
2, 54669, Note_on_c, 0, 76, 0
2, 54720, Note_on_c, 0, 73, 80
2, 54735, Note_on_c, 0, 73, 0
2, 54736, Note_on_c, 0, 71, 80
2, 54751, Note_on_c, 0, 71, 0
2, 54752, Note_on_c, 0, 69, 80
2, 54767, Note_on_c, 0, 69, 0
2, 54768, Note_on_c, 0, 68, 80
2, 54783, Note_on_c, 0, 68, 0
2, 54784, Note_on_c, 0, 66, 80
2, 54799, Note_on_c, 0, 66, 0
2, 54800, Note_on_c, 0, 64, 80
2, 54815, Note_on_c, 0, 64, 0
2, 54816, Note_on_c, 0, 66, 80
2, 54828, Note_on_c, 0, 66, 0
2, 54828, Note_on_c, 0, 68, 80
2, 54840, Note_on_c, 0, 68, 0
2, 54840, Note_on_c, 0, 66, 80
2, 54852, Note_on_c, 0, 66, 0
2, 54852, Note_on_c, 0, 68, 80
2, 54864, Note_on_c, 0, 68, 0
2, 54864, Note_on_c, 0, 66, 80
2, 54876, Note_on_c, 0, 66, 0
2, 54876, Note_on_c, 0, 68, 80
2, 54881, Note_on_c, 0, 68, 0
2, 54888, Note_on_c, 0, 64, 80
2, 54900, Note_on_c, 0, 64, 0
2, 54900, Note_on_c, 0, 66, 80
2, 54912, Note_on_c, 0, 66, 0
2, 54912, Note_on_c, 0, 64, 80
2, 55001, Note_on_c, 0, 64, 0
2, 55056, Note_on_c, 0, 78, 75
2, 55101, Note_on_c, 0, 78, 0
2, 55104, Note_on_c, 0, 76, 75
2, 55127, Note_on_c, 0, 76, 0
2, 55128, Note_on_c, 0, 75, 75
2, 55151, Note_on_c, 0, 75, 0
2, 55152, Note_on_c, 0, 73, 75
2, 55175, Note_on_c, 0, 73, 0
2, 55176, Note_on_c, 0, 71, 75
2, 55199, Note_on_c, 0, 71, 0
2, 55200, Note_on_c, 0, 80, 75
2, 55220, Note_on_c, 0, 80, 0
2, 55296, Note_on_c, 0, 80, 75
2, 55319, Note_on_c, 0, 80, 0
2, 55320, Note_on_c, 0, 78, 75
2, 55343, Note_on_c, 0, 78, 0
2, 55344, Note_on_c, 0, 76, 75
2, 55367, Note_on_c, 0, 76, 0
2, 55368, Note_on_c, 0, 75, 75
2, 55391, Note_on_c, 0, 75, 0
2, 55392, Note_on_c, 0, 73, 75
2, 55412, Note_on_c, 0, 73, 0
2, 55488, Note_on_c, 0, 76, 75
2, 55511, Note_on_c, 0, 76, 0
2, 55512, Note_on_c, 0, 75, 75
2, 55535, Note_on_c, 0, 75, 0
2, 55536, Note_on_c, 0, 73, 75
2, 55559, Note_on_c, 0, 73, 0
2, 55560, Note_on_c, 0, 71, 75
2, 55583, Note_on_c, 0, 71, 0
2, 55584, Note_on_c, 0, 83, 75
2, 55629, Note_on_c, 0, 83, 0
2, 55632, Note_on_c, 0, 75, 75
2, 55655, Note_on_c, 0, 75, 0
2, 55656, Note_on_c, 0, 80, 75
2, 55679, Note_on_c, 0, 80, 0
2, 55680, Note_on_c, 0, 78, 75
2, 55725, Note_on_c, 0, 78, 0
2, 55728, Note_on_c, 0, 76, 75
2, 55740, Note_on_c, 0, 76, 0
2, 55740, Note_on_c, 0, 78, 75
2, 55752, Note_on_c, 0, 78, 0
2, 55752, Note_on_c, 0, 76, 75
2, 55764, Note_on_c, 0, 76, 0
2, 55764, Note_on_c, 0, 78, 75
2, 55773, Note_on_c, 0, 78, 0
2, 55776, Note_on_c, 0, 75, 75
2, 55821, Note_on_c, 0, 75, 0
2, 55824, Note_on_c, 0, 78, 75
2, 55869, Note_on_c, 0, 78, 0
2, 55872, Note_on_c, 0, 76, 75
2, 55895, Note_on_c, 0, 76, 0
2, 55896, Note_on_c, 0, 75, 75
2, 55919, Note_on_c, 0, 75, 0
2, 55920, Note_on_c, 0, 73, 75
2, 55943, Note_on_c, 0, 73, 0
2, 55944, Note_on_c, 0, 71, 75
2, 55967, Note_on_c, 0, 71, 0
2, 55968, Note_on_c, 0, 80, 75
2, 55988, Note_on_c, 0, 80, 0
2, 56064, Note_on_c, 0, 80, 75
2, 56087, Note_on_c, 0, 80, 0
2, 56088, Note_on_c, 0, 78, 75
2, 56111, Note_on_c, 0, 78, 0
2, 56112, Note_on_c, 0, 76, 75
2, 56135, Note_on_c, 0, 76, 0
2, 56136, Note_on_c, 0, 75, 75
2, 56159, Note_on_c, 0, 75, 0
2, 56160, Note_on_c, 0, 73, 75
2, 56180, Note_on_c, 0, 73, 0
2, 56256, Note_on_c, 0, 75, 75
2, 56279, Note_on_c, 0, 75, 0
2, 56280, Note_on_c, 0, 78, 75
2, 56303, Note_on_c, 0, 78, 0
2, 56304, Note_on_c, 0, 71, 75
2, 56327, Note_on_c, 0, 71, 0
2, 56328, Note_on_c, 0, 75, 75
2, 56351, Note_on_c, 0, 75, 0
2, 56352, Note_on_c, 0, 73, 75
2, 56375, Note_on_c, 0, 73, 0
2, 56376, Note_on_c, 0, 76, 75
2, 56399, Note_on_c, 0, 76, 0
2, 56400, Note_on_c, 0, 70, 75
2, 56423, Note_on_c, 0, 70, 0
2, 56424, Note_on_c, 0, 73, 75
2, 56447, Note_on_c, 0, 73, 0
2, 56448, Note_on_c, 0, 71, 75
2, 56537, Note_on_c, 0, 71, 0
2, 56592, Note_on_c, 0, 66, 75
2, 56637, Note_on_c, 0, 66, 0
2, 56640, Note_on_c, 0, 64, 75
2, 56663, Note_on_c, 0, 64, 0
2, 56664, Note_on_c, 0, 62, 75
2, 56687, Note_on_c, 0, 62, 0
2, 56688, Note_on_c, 0, 61, 75
2, 56711, Note_on_c, 0, 61, 0
2, 56712, Note_on_c, 0, 59, 75
2, 56735, Note_on_c, 0, 59, 0
2, 56736, Note_on_c, 0, 71, 75
2, 56781, Note_on_c, 0, 71, 0
2, 56784, Note_on_c, 0, 74, 75
2, 56829, Note_on_c, 0, 74, 0
2, 56832, Note_on_c, 0, 66, 75
2, 56928, Note_on_c, 0, 66, 0
2, 56928, Note_on_c, 0, 65, 75
2, 56973, Note_on_c, 0, 65, 0
2, 56976, Note_on_c, 0, 68, 75
2, 57021, Note_on_c, 0, 68, 0
2, 57024, Note_on_c, 0, 68, 75
2, 57120, Note_on_c, 0, 68, 0
2, 57120, Note_on_c, 0, 66, 75
2, 57165, Note_on_c, 0, 66, 0
2, 57168, Note_on_c, 0, 69, 75
2, 57213, Note_on_c, 0, 69, 0
2, 57216, Note_on_c, 0, 69, 75
2, 57312, Note_on_c, 0, 69, 0
2, 57312, Note_on_c, 0, 68, 75
2, 57357, Note_on_c, 0, 68, 0
2, 57360, Note_on_c, 0, 73, 75
2, 57405, Note_on_c, 0, 73, 0
2, 57408, Note_on_c, 0, 71, 75
2, 57431, Note_on_c, 0, 71, 0
2, 57432, Note_on_c, 0, 69, 75
2, 57455, Note_on_c, 0, 69, 0
2, 57456, Note_on_c, 0, 68, 75
2, 57479, Note_on_c, 0, 68, 0
2, 57480, Note_on_c, 0, 66, 75
2, 57503, Note_on_c, 0, 66, 0
2, 57504, Note_on_c, 0, 78, 75
2, 57549, Note_on_c, 0, 78, 0
2, 57552, Note_on_c, 0, 66, 75
2, 57597, Note_on_c, 0, 66, 0
2, 57600, Note_on_c, 0, 65, 75
2, 57648, Note_on_c, 0, 65, 0
2, 57648, Note_on_c, 0, 66, 75
2, 57693, Note_on_c, 0, 66, 0
2, 57696, Note_on_c, 0, 65, 75
2, 57744, Note_on_c, 0, 65, 0
2, 57744, Note_on_c, 0, 66, 75
2, 57789, Note_on_c, 0, 66, 0
2, 57792, Note_on_c, 0, 71, 75
2, 57815, Note_on_c, 0, 71, 0
2, 57816, Note_on_c, 0, 74, 75
2, 57839, Note_on_c, 0, 74, 0
2, 57840, Note_on_c, 0, 68, 75
2, 57863, Note_on_c, 0, 68, 0
2, 57864, Note_on_c, 0, 71, 75
2, 57887, Note_on_c, 0, 71, 0
2, 57888, Note_on_c, 0, 69, 75
2, 57933, Note_on_c, 0, 69, 0
2, 57936, Note_on_c, 0, 78, 70
2, 57981, Note_on_c, 0, 78, 0
2, 57984, Note_on_c, 0, 77, 70
2, 58032, Note_on_c, 0, 77, 0
2, 58032, Note_on_c, 0, 78, 70
2, 58077, Note_on_c, 0, 78, 0
2, 58080, Note_on_c, 0, 77, 70
2, 58128, Note_on_c, 0, 77, 0
2, 58128, Note_on_c, 0, 78, 70
2, 58173, Note_on_c, 0, 78, 0
2, 58176, Note_on_c, 0, 83, 70
2, 58199, Note_on_c, 0, 83, 0
2, 58200, Note_on_c, 0, 86, 70
2, 58223, Note_on_c, 0, 86, 0
2, 58224, Note_on_c, 0, 80, 70
2, 58247, Note_on_c, 0, 80, 0
2, 58248, Note_on_c, 0, 83, 70
2, 58271, Note_on_c, 0, 83, 0
2, 58272, Note_on_c, 0, 81, 70
2, 58317, Note_on_c, 0, 81, 0
2, 58320, Note_on_c, 0, 78, 70
2, 58343, Note_on_c, 0, 78, 0
2, 58344, Note_on_c, 0, 80, 70
2, 58367, Note_on_c, 0, 80, 0
2, 58368, Note_on_c, 0, 81, 71
2, 58391, Note_on_c, 0, 81, 0
2, 58392, Note_on_c, 0, 83, 71
2, 58415, Note_on_c, 0, 83, 0
2, 58416, Note_on_c, 0, 81, 72
2, 58439, Note_on_c, 0, 81, 0
2, 58440, Note_on_c, 0, 80, 72
2, 58463, Note_on_c, 0, 80, 0
2, 58464, Note_on_c, 0, 78, 73
2, 58487, Note_on_c, 0, 78, 0
2, 58488, Note_on_c, 0, 76, 73
2, 58511, Note_on_c, 0, 76, 0
2, 58512, Note_on_c, 0, 75, 74
2, 58535, Note_on_c, 0, 75, 0
2, 58536, Note_on_c, 0, 73, 74
2, 58559, Note_on_c, 0, 73, 0
2, 58560, Note_on_c, 0, 73, 75
2, 58656, Note_on_c, 0, 73, 0
2, 58656, Note_on_c, 0, 72, 75
2, 58701, Note_on_c, 0, 72, 0
2, 58704, Note_on_c, 0, 80, 75
2, 58749, Note_on_c, 0, 80, 0
2, 58752, Note_on_c, 0, 78, 75
2, 58775, Note_on_c, 0, 78, 0
2, 58776, Note_on_c, 0, 76, 75
2, 58799, Note_on_c, 0, 76, 0
2, 58800, Note_on_c, 0, 75, 75
2, 58823, Note_on_c, 0, 75, 0
2, 58824, Note_on_c, 0, 73, 75
2, 58847, Note_on_c, 0, 73, 0
2, 58848, Note_on_c, 0, 81, 75
2, 58868, Note_on_c, 0, 81, 0
2, 58944, Note_on_c, 0, 81, 75
2, 58967, Note_on_c, 0, 81, 0
2, 58968, Note_on_c, 0, 80, 75
2, 58991, Note_on_c, 0, 80, 0
2, 58992, Note_on_c, 0, 78, 75
2, 59015, Note_on_c, 0, 78, 0
2, 59016, Note_on_c, 0, 76, 75
2, 59039, Note_on_c, 0, 76, 0
2, 59040, Note_on_c, 0, 78, 75
2, 59060, Note_on_c, 0, 78, 0
2, 59136, Note_on_c, 0, 78, 75
2, 59159, Note_on_c, 0, 78, 0
2, 59160, Note_on_c, 0, 76, 75
2, 59183, Note_on_c, 0, 76, 0
2, 59184, Note_on_c, 0, 75, 75
2, 59207, Note_on_c, 0, 75, 0
2, 59208, Note_on_c, 0, 73, 75
2, 59231, Note_on_c, 0, 73, 0
2, 59232, Note_on_c, 0, 81, 75
2, 59252, Note_on_c, 0, 81, 0
2, 59328, Note_on_c, 0, 81, 75
2, 59351, Note_on_c, 0, 81, 0
2, 59352, Note_on_c, 0, 80, 75
2, 59375, Note_on_c, 0, 80, 0
2, 59376, Note_on_c, 0, 78, 75
2, 59399, Note_on_c, 0, 78, 0
2, 59400, Note_on_c, 0, 76, 75
2, 59423, Note_on_c, 0, 76, 0
2, 59424, Note_on_c, 0, 78, 75
2, 59444, Note_on_c, 0, 78, 0
2, 59520, Note_on_c, 0, 78, 75
2, 59543, Note_on_c, 0, 78, 0
2, 59544, Note_on_c, 0, 76, 75
2, 59567, Note_on_c, 0, 76, 0
2, 59568, Note_on_c, 0, 75, 75
2, 59591, Note_on_c, 0, 75, 0
2, 59592, Note_on_c, 0, 73, 75
2, 59615, Note_on_c, 0, 73, 0
2, 59616, Note_on_c, 0, 73, 75
2, 59661, Note_on_c, 0, 73, 0
2, 59664, Note_on_c, 0, 73, 75
2, 59709, Note_on_c, 0, 73, 0
2, 59712, Note_on_c, 0, 73, 75
2, 59757, Note_on_c, 0, 73, 0
2, 59760, Note_on_c, 0, 75, 75
2, 59783, Note_on_c, 0, 75, 0
2, 59784, Note_on_c, 0, 78, 75
2, 59807, Note_on_c, 0, 78, 0
2, 59808, Note_on_c, 0, 76, 75
2, 59831, Note_on_c, 0, 76, 0
2, 59832, Note_on_c, 0, 75, 75
2, 59855, Note_on_c, 0, 75, 0
2, 59856, Note_on_c, 0, 73, 75
2, 59879, Note_on_c, 0, 73, 0
2, 59880, Note_on_c, 0, 72, 75
2, 59903, Note_on_c, 0, 72, 0
2, 59904, Note_on_c, 0, 73, 75
2, 59949, Note_on_c, 0, 73, 0
2, 59952, Note_on_c, 0, 73, 75
2, 59997, Note_on_c, 0, 73, 0
2, 60000, Note_on_c, 0, 73, 75
2, 60045, Note_on_c, 0, 73, 0
2, 60048, Note_on_c, 0, 73, 75
2, 60093, Note_on_c, 0, 73, 0
2, 60096, Note_on_c, 0, 73, 75
2, 60141, Note_on_c, 0, 73, 0
2, 60144, Note_on_c, 0, 75, 75
2, 60167, Note_on_c, 0, 75, 0
2, 60168, Note_on_c, 0, 78, 75
2, 60191, Note_on_c, 0, 78, 0
2, 60192, Note_on_c, 0, 76, 75
2, 60215, Note_on_c, 0, 76, 0
2, 60216, Note_on_c, 0, 75, 75
2, 60239, Note_on_c, 0, 75, 0
2, 60240, Note_on_c, 0, 73, 75
2, 60263, Note_on_c, 0, 73, 0
2, 60264, Note_on_c, 0, 72, 75
2, 60287, Note_on_c, 0, 72, 0
2, 60288, Note_on_c, 0, 73, 75
2, 60377, Note_on_c, 0, 73, 0
2, 60432, Note_on_c, 0, 68, 75
2, 60444, Note_on_c, 0, 68, 0
2, 60444, Note_on_c, 0, 80, 75
2, 60478, Note_on_c, 0, 80, 0
2, 60480, Note_on_c, 0, 67, 75
2, 60492, Note_on_c, 0, 67, 0
2, 60492, Note_on_c, 0, 79, 75
2, 60526, Note_on_c, 0, 79, 0
2, 60600, Note_on_c, 0, 85, 75
2, 60623, Note_on_c, 0, 85, 0
2, 60624, Note_on_c, 0, 82, 75
2, 60647, Note_on_c, 0, 82, 0
2, 60648, Note_on_c, 0, 79, 75
2, 60671, Note_on_c, 0, 79, 0
2, 60672, Note_on_c, 0, 80, 75
2, 60761, Note_on_c, 0, 80, 0
2, 60816, Note_on_c, 0, 66, 75
2, 60828, Note_on_c, 0, 66, 0
2, 60828, Note_on_c, 0, 78, 75
2, 60862, Note_on_c, 0, 78, 0
2, 60864, Note_on_c, 0, 65, 75
2, 60876, Note_on_c, 0, 65, 0
2, 60876, Note_on_c, 0, 77, 75
2, 60910, Note_on_c, 0, 77, 0
2, 60984, Note_on_c, 0, 83, 75
2, 61007, Note_on_c, 0, 83, 0
2, 61008, Note_on_c, 0, 80, 75
2, 61031, Note_on_c, 0, 80, 0
2, 61032, Note_on_c, 0, 77, 75
2, 61055, Note_on_c, 0, 77, 0
2, 61056, Note_on_c, 0, 78, 75
2, 61145, Note_on_c, 0, 78, 0
2, 61200, Note_on_c, 0, 64, 75
2, 61212, Note_on_c, 0, 64, 0
2, 61212, Note_on_c, 0, 76, 75
2, 61246, Note_on_c, 0, 76, 0
2, 61248, Note_on_c, 0, 63, 75
2, 61260, Note_on_c, 0, 63, 0
2, 61260, Note_on_c, 0, 75, 75
2, 61294, Note_on_c, 0, 75, 0
2, 61368, Note_on_c, 0, 83, 75
2, 61391, Note_on_c, 0, 83, 0
2, 61392, Note_on_c, 0, 78, 75
2, 61415, Note_on_c, 0, 78, 0
2, 61416, Note_on_c, 0, 75, 75
2, 61439, Note_on_c, 0, 75, 0
2, 61440, Note_on_c, 0, 78, 75
2, 61536, Note_on_c, 0, 78, 0
2, 61536, Note_on_c, 0, 76, 75
2, 61559, Note_on_c, 0, 76, 0
2, 61560, Note_on_c, 0, 71, 75
2, 61583, Note_on_c, 0, 71, 0
2, 61584, Note_on_c, 0, 76, 75
2, 61607, Note_on_c, 0, 76, 0
2, 61608, Note_on_c, 0, 80, 75
2, 61631, Note_on_c, 0, 80, 0
2, 61632, Note_on_c, 0, 71, 75
2, 61677, Note_on_c, 0, 71, 0
2, 61680, Note_on_c, 0, 81, 91
2, 61680, Note_on_c, 0, 78, 91
2, 61776, Note_on_c, 0, 81, 0
2, 61776, Note_on_c, 0, 78, 0
2, 61776, Note_on_c, 0, 80, 75
2, 61776, Note_on_c, 0, 76, 75
2, 61821, Note_on_c, 0, 80, 0
2, 61821, Note_on_c, 0, 76, 0
2, 61824, Note_on_c, 0, 80, 75
2, 61824, Note_on_c, 0, 76, 75
2, 61869, Note_on_c, 0, 80, 0
2, 61869, Note_on_c, 0, 76, 0
2, 61872, Note_on_c, 0, 78, 75
2, 61872, Note_on_c, 0, 75, 75
2, 61917, Note_on_c, 0, 78, 0
2, 61917, Note_on_c, 0, 75, 0
2, 61968, Note_on_c, 0, 71, 75
2, 62013, Note_on_c, 0, 71, 0
2, 62016, Note_on_c, 0, 69, 75
2, 62039, Note_on_c, 0, 69, 0
2, 62040, Note_on_c, 0, 68, 75
2, 62063, Note_on_c, 0, 68, 0
2, 62064, Note_on_c, 0, 66, 75
2, 62087, Note_on_c, 0, 66, 0
2, 62088, Note_on_c, 0, 64, 75
2, 62111, Note_on_c, 0, 64, 0
2, 62112, Note_on_c, 0, 73, 75
2, 62132, Note_on_c, 0, 73, 0
2, 62208, Note_on_c, 0, 73, 75
2, 62231, Note_on_c, 0, 73, 0
2, 62232, Note_on_c, 0, 71, 75
2, 62255, Note_on_c, 0, 71, 0
2, 62256, Note_on_c, 0, 69, 75
2, 62279, Note_on_c, 0, 69, 0
2, 62280, Note_on_c, 0, 68, 75
2, 62303, Note_on_c, 0, 68, 0
2, 62304, Note_on_c, 0, 66, 75
2, 62324, Note_on_c, 0, 66, 0
2, 62400, Note_on_c, 0, 69, 75
2, 62423, Note_on_c, 0, 69, 0
2, 62424, Note_on_c, 0, 68, 75
2, 62447, Note_on_c, 0, 68, 0
2, 62448, Note_on_c, 0, 66, 75
2, 62471, Note_on_c, 0, 66, 0
2, 62472, Note_on_c, 0, 64, 75
2, 62495, Note_on_c, 0, 64, 0
2, 62496, Note_on_c, 0, 76, 75
2, 62541, Note_on_c, 0, 76, 0
2, 62544, Note_on_c, 0, 68, 75
2, 62567, Note_on_c, 0, 68, 0
2, 62568, Note_on_c, 0, 73, 75
2, 62591, Note_on_c, 0, 73, 0
2, 62592, Note_on_c, 0, 71, 75
2, 62637, Note_on_c, 0, 71, 0
2, 62640, Note_on_c, 0, 69, 75
2, 62652, Note_on_c, 0, 69, 0
2, 62652, Note_on_c, 0, 71, 75
2, 62664, Note_on_c, 0, 71, 0
2, 62664, Note_on_c, 0, 69, 75
2, 62676, Note_on_c, 0, 69, 0
2, 62676, Note_on_c, 0, 71, 75
2, 62685, Note_on_c, 0, 71, 0
2, 62688, Note_on_c, 0, 68, 75
2, 62733, Note_on_c, 0, 68, 0
2, 62736, Note_on_c, 0, 71, 75
2, 62781, Note_on_c, 0, 71, 0
2, 62784, Note_on_c, 0, 69, 75
2, 62807, Note_on_c, 0, 69, 0
2, 62808, Note_on_c, 0, 67, 75
2, 62831, Note_on_c, 0, 67, 0
2, 62832, Note_on_c, 0, 66, 75
2, 62855, Note_on_c, 0, 66, 0
2, 62856, Note_on_c, 0, 64, 75
2, 62879, Note_on_c, 0, 64, 0
2, 62880, Note_on_c, 0, 72, 75
2, 62900, Note_on_c, 0, 72, 0
2, 62976, Note_on_c, 0, 72, 75
2, 62999, Note_on_c, 0, 72, 0
2, 63000, Note_on_c, 0, 71, 75
2, 63023, Note_on_c, 0, 71, 0
2, 63024, Note_on_c, 0, 69, 75
2, 63047, Note_on_c, 0, 69, 0
2, 63048, Note_on_c, 0, 67, 75
2, 63071, Note_on_c, 0, 67, 0
2, 63072, Note_on_c, 0, 66, 75
2, 63092, Note_on_c, 0, 66, 0
2, 63168, Note_on_c, 0, 69, 75
2, 63191, Note_on_c, 0, 69, 0
2, 63192, Note_on_c, 0, 67, 75
2, 63215, Note_on_c, 0, 67, 0
2, 63216, Note_on_c, 0, 66, 75
2, 63239, Note_on_c, 0, 66, 0
2, 63240, Note_on_c, 0, 64, 75
2, 63263, Note_on_c, 0, 64, 0
2, 63264, Note_on_c, 0, 74, 75
2, 63287, Note_on_c, 0, 74, 0
2, 63288, Note_on_c, 0, 72, 75
2, 63311, Note_on_c, 0, 72, 0
2, 63312, Note_on_c, 0, 71, 75
2, 63335, Note_on_c, 0, 71, 0
2, 63336, Note_on_c, 0, 69, 75
2, 63359, Note_on_c, 0, 69, 0
2, 63360, Note_on_c, 0, 72, 75
2, 63383, Note_on_c, 0, 72, 0
2, 63384, Note_on_c, 0, 71, 75
2, 63407, Note_on_c, 0, 71, 0
2, 63408, Note_on_c, 0, 69, 75
2, 63431, Note_on_c, 0, 69, 0
2, 63432, Note_on_c, 0, 67, 75
2, 63455, Note_on_c, 0, 67, 0
2, 63456, Note_on_c, 0, 71, 75
2, 63479, Note_on_c, 0, 71, 0
2, 63480, Note_on_c, 0, 69, 75
2, 63503, Note_on_c, 0, 69, 0
2, 63504, Note_on_c, 0, 67, 75
2, 63527, Note_on_c, 0, 67, 0
2, 63528, Note_on_c, 0, 66, 75
2, 63551, Note_on_c, 0, 66, 0
2, 63552, Note_on_c, 0, 69, 75
2, 63575, Note_on_c, 0, 69, 0
2, 63576, Note_on_c, 0, 67, 75
2, 63599, Note_on_c, 0, 67, 0
2, 63600, Note_on_c, 0, 66, 75
2, 63623, Note_on_c, 0, 66, 0
2, 63624, Note_on_c, 0, 64, 75
2, 63647, Note_on_c, 0, 64, 0
2, 63648, Note_on_c, 0, 74, 75
2, 63671, Note_on_c, 0, 74, 0
2, 63672, Note_on_c, 0, 72, 75
2, 63695, Note_on_c, 0, 72, 0
2, 63696, Note_on_c, 0, 71, 75
2, 63719, Note_on_c, 0, 71, 0
2, 63720, Note_on_c, 0, 69, 75
2, 63743, Note_on_c, 0, 69, 0
2, 63744, Note_on_c, 0, 72, 75
2, 63767, Note_on_c, 0, 72, 0
2, 63768, Note_on_c, 0, 71, 75
2, 63791, Note_on_c, 0, 71, 0
2, 63792, Note_on_c, 0, 69, 75
2, 63815, Note_on_c, 0, 69, 0
2, 63816, Note_on_c, 0, 67, 75
2, 63839, Note_on_c, 0, 67, 0
2, 63840, Note_on_c, 0, 71, 76
2, 63863, Note_on_c, 0, 71, 0
2, 63864, Note_on_c, 0, 69, 76
2, 63887, Note_on_c, 0, 69, 0
2, 63888, Note_on_c, 0, 67, 76
2, 63911, Note_on_c, 0, 67, 0
2, 63912, Note_on_c, 0, 66, 77
2, 63935, Note_on_c, 0, 66, 0
2, 63936, Note_on_c, 0, 69, 77
2, 63959, Note_on_c, 0, 69, 0
2, 63960, Note_on_c, 0, 67, 77
2, 63983, Note_on_c, 0, 67, 0
2, 63984, Note_on_c, 0, 66, 78
2, 64007, Note_on_c, 0, 66, 0
2, 64008, Note_on_c, 0, 64, 78
2, 64031, Note_on_c, 0, 64, 0
2, 64032, Note_on_c, 0, 76, 78
2, 64077, Note_on_c, 0, 76, 0
2, 64080, Note_on_c, 0, 70, 79
2, 64080, Note_on_c, 0, 64, 79
2, 64125, Note_on_c, 0, 70, 0
2, 64125, Note_on_c, 0, 64, 0
2, 64128, Note_on_c, 0, 71, 80
2, 64128, Note_on_c, 0, 63, 80
2, 64217, Note_on_c, 0, 71, 0
2, 64217, Note_on_c, 0, 63, 0
2, 64272, Note_on_c, 0, 59, 75
2, 64292, Note_on_c, 0, 59, 0
2, 64320, Note_on_c, 0, 59, 75
2, 64453, Note_on_c, 0, 59, 0
2, 64464, Note_on_c, 0, 68, 75
2, 64487, Note_on_c, 0, 68, 0
2, 64488, Note_on_c, 0, 64, 75
2, 64511, Note_on_c, 0, 64, 0
2, 64512, Note_on_c, 0, 59, 75
2, 64645, Note_on_c, 0, 59, 0
2, 64656, Note_on_c, 0, 69, 75
2, 64679, Note_on_c, 0, 69, 0
2, 64680, Note_on_c, 0, 66, 75
2, 64703, Note_on_c, 0, 66, 0
2, 64704, Note_on_c, 0, 68, 75
2, 64727, Note_on_c, 0, 68, 0
2, 64728, Note_on_c, 0, 64, 75
2, 64751, Note_on_c, 0, 64, 0
2, 64752, Note_on_c, 0, 69, 75
2, 64775, Note_on_c, 0, 69, 0
2, 64776, Note_on_c, 0, 64, 75
2, 64799, Note_on_c, 0, 64, 0
2, 64800, Note_on_c, 0, 71, 75
2, 64845, Note_on_c, 0, 71, 0
2, 64848, Note_on_c, 0, 59, 75
2, 64868, Note_on_c, 0, 59, 0
2, 64896, Note_on_c, 0, 59, 75
2, 65015, Note_on_c, 0, 59, 0
2, 65016, Note_on_c, 0, 63, 75
2, 65039, Note_on_c, 0, 63, 0
2, 65040, Note_on_c, 0, 64, 75
2, 65063, Note_on_c, 0, 64, 0
2, 65064, Note_on_c, 0, 68, 75
2, 65087, Note_on_c, 0, 68, 0
2, 65088, Note_on_c, 0, 59, 75
2, 65207, Note_on_c, 0, 59, 0
2, 65208, Note_on_c, 0, 63, 75
2, 65231, Note_on_c, 0, 63, 0
2, 65232, Note_on_c, 0, 66, 75
2, 65255, Note_on_c, 0, 66, 0
2, 65256, Note_on_c, 0, 69, 75
2, 65279, Note_on_c, 0, 69, 0
2, 65280, Note_on_c, 0, 68, 75
2, 65303, Note_on_c, 0, 68, 0
2, 65304, Note_on_c, 0, 64, 75
2, 65327, Note_on_c, 0, 64, 0
2, 65328, Note_on_c, 0, 69, 75
2, 65351, Note_on_c, 0, 69, 0
2, 65352, Note_on_c, 0, 64, 75
2, 65375, Note_on_c, 0, 64, 0
2, 65376, Note_on_c, 0, 71, 75
2, 65421, Note_on_c, 0, 71, 0
2, 65424, Note_on_c, 0, 76, 75
2, 65469, Note_on_c, 0, 76, 0
2, 65472, Note_on_c, 0, 75, 75
2, 65568, Note_on_c, 0, 75, 0
2, 65568, Note_on_c, 0, 73, 75
2, 65613, Note_on_c, 0, 73, 0
2, 65616, Note_on_c, 0, 76, 75
2, 65661, Note_on_c, 0, 76, 0
2, 65664, Note_on_c, 0, 73, 75
2, 65760, Note_on_c, 0, 73, 0
2, 65760, Note_on_c, 0, 71, 75
2, 65783, Note_on_c, 0, 71, 0
2, 65784, Note_on_c, 0, 76, 75
2, 65807, Note_on_c, 0, 76, 0
2, 65808, Note_on_c, 0, 80, 75
2, 65831, Note_on_c, 0, 80, 0
2, 65832, Note_on_c, 0, 83, 75
2, 65855, Note_on_c, 0, 83, 0
2, 65856, Note_on_c, 0, 71, 75
2, 65945, Note_on_c, 0, 71, 0
2, 65952, Note_on_c, 0, 69, 75
2, 65997, Note_on_c, 0, 69, 0
2, 66000, Note_on_c, 0, 68, 75
2, 66045, Note_on_c, 0, 68, 0
2, 66048, Note_on_c, 0, 68, 75
2, 66060, Note_on_c, 0, 68, 0
2, 66060, Note_on_c, 0, 69, 75
2, 66072, Note_on_c, 0, 69, 0
2, 66072, Note_on_c, 0, 68, 75
2, 66093, Note_on_c, 0, 68, 0
2, 66096, Note_on_c, 0, 66, 75
2, 66141, Note_on_c, 0, 66, 0
2, 66192, Note_on_c, 0, 71, 75
2, 66237, Note_on_c, 0, 71, 0
2, 66240, Note_on_c, 0, 69, 75
2, 66263, Note_on_c, 0, 69, 0
2, 66264, Note_on_c, 0, 68, 75
2, 66287, Note_on_c, 0, 68, 0
2, 66288, Note_on_c, 0, 66, 75
2, 66311, Note_on_c, 0, 66, 0
2, 66312, Note_on_c, 0, 64, 75
2, 66335, Note_on_c, 0, 64, 0
2, 66336, Note_on_c, 0, 76, 75
2, 66381, Note_on_c, 0, 76, 0
2, 66384, Note_on_c, 0, 64, 75
2, 66429, Note_on_c, 0, 64, 0
2, 66432, Note_on_c, 0, 63, 75
2, 66480, Note_on_c, 0, 63, 0
2, 66480, Note_on_c, 0, 64, 75
2, 66525, Note_on_c, 0, 64, 0
2, 66528, Note_on_c, 0, 63, 75
2, 66576, Note_on_c, 0, 63, 0
2, 66576, Note_on_c, 0, 64, 75
2, 66621, Note_on_c, 0, 64, 0
2, 66624, Note_on_c, 0, 69, 75
2, 66647, Note_on_c, 0, 69, 0
2, 66648, Note_on_c, 0, 73, 75
2, 66671, Note_on_c, 0, 73, 0
2, 66672, Note_on_c, 0, 66, 75
2, 66695, Note_on_c, 0, 66, 0
2, 66696, Note_on_c, 0, 69, 75
2, 66719, Note_on_c, 0, 69, 0
2, 66720, Note_on_c, 0, 68, 75
2, 66765, Note_on_c, 0, 68, 0
2, 66768, Note_on_c, 0, 71, 70
2, 66813, Note_on_c, 0, 71, 0
2, 66816, Note_on_c, 0, 69, 70
2, 66839, Note_on_c, 0, 69, 0
2, 66840, Note_on_c, 0, 68, 70
2, 66863, Note_on_c, 0, 68, 0
2, 66864, Note_on_c, 0, 66, 70
2, 66887, Note_on_c, 0, 66, 0
2, 66888, Note_on_c, 0, 64, 70
2, 66911, Note_on_c, 0, 64, 0
2, 66912, Note_on_c, 0, 76, 70
2, 66957, Note_on_c, 0, 76, 0
2, 66960, Note_on_c, 0, 64, 70
2, 67005, Note_on_c, 0, 64, 0
2, 67008, Note_on_c, 0, 63, 70
2, 67056, Note_on_c, 0, 63, 0
2, 67056, Note_on_c, 0, 64, 70
2, 67101, Note_on_c, 0, 64, 0
2, 67104, Note_on_c, 0, 63, 70
2, 67152, Note_on_c, 0, 63, 0
2, 67152, Note_on_c, 0, 64, 70
2, 67197, Note_on_c, 0, 64, 0
2, 67200, Note_on_c, 0, 69, 70
2, 67223, Note_on_c, 0, 69, 0
2, 67224, Note_on_c, 0, 73, 70
2, 67247, Note_on_c, 0, 73, 0
2, 67248, Note_on_c, 0, 66, 70
2, 67271, Note_on_c, 0, 66, 0
2, 67272, Note_on_c, 0, 69, 70
2, 67295, Note_on_c, 0, 69, 0
2, 67296, Note_on_c, 0, 68, 70
2, 67319, Note_on_c, 0, 68, 0
2, 67320, Note_on_c, 0, 71, 70
2, 67343, Note_on_c, 0, 71, 0
2, 67344, Note_on_c, 0, 64, 70
2, 67367, Note_on_c, 0, 64, 0
2, 67368, Note_on_c, 0, 68, 70
2, 67391, Note_on_c, 0, 68, 0
2, 67392, Note_on_c, 0, 66, 70
2, 67415, Note_on_c, 0, 66, 0
2, 67416, Note_on_c, 0, 69, 70
2, 67439, Note_on_c, 0, 69, 0
2, 67440, Note_on_c, 0, 63, 71
2, 67463, Note_on_c, 0, 63, 0
2, 67464, Note_on_c, 0, 66, 71
2, 67487, Note_on_c, 0, 66, 0
2, 67488, Note_on_c, 0, 64, 72
2, 67511, Note_on_c, 0, 64, 0
2, 67512, Note_on_c, 0, 68, 73
2, 67535, Note_on_c, 0, 68, 0
2, 67536, Note_on_c, 0, 71, 73
2, 67559, Note_on_c, 0, 71, 0
2, 67560, Note_on_c, 0, 68, 74
2, 67583, Note_on_c, 0, 68, 0
2, 67584, Note_on_c, 0, 69, 75
2, 67607, Note_on_c, 0, 69, 0
2, 67608, Note_on_c, 0, 73, 75
2, 67631, Note_on_c, 0, 73, 0
2, 67632, Note_on_c, 0, 66, 75
2, 67655, Note_on_c, 0, 66, 0
2, 67656, Note_on_c, 0, 69, 75
2, 67679, Note_on_c, 0, 69, 0
2, 67680, Note_on_c, 0, 68, 75
2, 67703, Note_on_c, 0, 68, 0
2, 67704, Note_on_c, 0, 71, 75
2, 67727, Note_on_c, 0, 71, 0
2, 67728, Note_on_c, 0, 64, 75
2, 67751, Note_on_c, 0, 64, 0
2, 67752, Note_on_c, 0, 68, 75
2, 67775, Note_on_c, 0, 68, 0
2, 67776, Note_on_c, 0, 66, 75
2, 67799, Note_on_c, 0, 66, 0
2, 67800, Note_on_c, 0, 69, 76
2, 67823, Note_on_c, 0, 69, 0
2, 67824, Note_on_c, 0, 63, 77
2, 67847, Note_on_c, 0, 63, 0
2, 67848, Note_on_c, 0, 66, 78
2, 67871, Note_on_c, 0, 66, 0
2, 67872, Note_on_c, 0, 64, 79
2, 67895, Note_on_c, 0, 64, 0
2, 67896, Note_on_c, 0, 68, 80
2, 67919, Note_on_c, 0, 68, 0
2, 67920, Note_on_c, 0, 71, 80
2, 67943, Note_on_c, 0, 71, 0
2, 67944, Note_on_c, 0, 76, 80
2, 67967, Note_on_c, 0, 76, 0
2, 67968, Note_on_c, 0, 71, 96
2, 68064, Note_on_c, 0, 71, 0
2, 68064, Note_on_c, 0, 70, 80
2, 68087, Note_on_c, 0, 70, 0
2, 68088, Note_on_c, 0, 64, 80
2, 68111, Note_on_c, 0, 64, 0
2, 68112, Note_on_c, 0, 70, 80
2, 68135, Note_on_c, 0, 70, 0
2, 68136, Note_on_c, 0, 76, 80
2, 68159, Note_on_c, 0, 76, 0
2, 68160, Note_on_c, 0, 71, 96
2, 68256, Note_on_c, 0, 71, 0
2, 68256, Note_on_c, 0, 70, 80
2, 68279, Note_on_c, 0, 70, 0
2, 68280, Note_on_c, 0, 64, 80
2, 68303, Note_on_c, 0, 64, 0
2, 68304, Note_on_c, 0, 70, 80
2, 68327, Note_on_c, 0, 70, 0
2, 68328, Note_on_c, 0, 76, 80
2, 68351, Note_on_c, 0, 76, 0
2, 68352, Note_on_c, 0, 71, 96
2, 68448, Note_on_c, 0, 71, 0
2, 68448, Note_on_c, 0, 70, 80
2, 68471, Note_on_c, 0, 70, 0
2, 68472, Note_on_c, 0, 79, 80
2, 68495, Note_on_c, 0, 79, 0
2, 68496, Note_on_c, 0, 78, 80
2, 68519, Note_on_c, 0, 78, 0
2, 68520, Note_on_c, 0, 76, 80
2, 68543, Note_on_c, 0, 76, 0
2, 68544, Note_on_c, 0, 76, 96
2, 68640, Note_on_c, 0, 76, 0
2, 68640, Note_on_c, 0, 75, 80
2, 68663, Note_on_c, 0, 75, 0
2, 68664, Note_on_c, 0, 78, 80
2, 68687, Note_on_c, 0, 78, 0
2, 68688, Note_on_c, 0, 75, 80
2, 68711, Note_on_c, 0, 75, 0
2, 68712, Note_on_c, 0, 73, 80
2, 68735, Note_on_c, 0, 73, 0
2, 68736, Note_on_c, 0, 73, 96
2, 68832, Note_on_c, 0, 73, 0
2, 68832, Note_on_c, 0, 71, 80
2, 68855, Note_on_c, 0, 71, 0
2, 68856, Note_on_c, 0, 78, 80
2, 68879, Note_on_c, 0, 78, 0
2, 68880, Note_on_c, 0, 71, 80
2, 68903, Note_on_c, 0, 71, 0
2, 68904, Note_on_c, 0, 69, 80
2, 68927, Note_on_c, 0, 69, 0
2, 68928, Note_on_c, 0, 69, 96
2, 69024, Note_on_c, 0, 69, 0
2, 69024, Note_on_c, 0, 68, 80
2, 69047, Note_on_c, 0, 68, 0
2, 69048, Note_on_c, 0, 71, 80
2, 69071, Note_on_c, 0, 71, 0
2, 69072, Note_on_c, 0, 68, 80
2, 69095, Note_on_c, 0, 68, 0
2, 69096, Note_on_c, 0, 64, 80
2, 69119, Note_on_c, 0, 64, 0
2, 69120, Note_on_c, 0, 73, 80
2, 69165, Note_on_c, 0, 73, 0
2, 69168, Note_on_c, 0, 61, 80
2, 69180, Note_on_c, 0, 61, 0
2, 69180, Note_on_c, 0, 73, 78
2, 69214, Note_on_c, 0, 73, 0
2, 69216, Note_on_c, 0, 61, 75
2, 69228, Note_on_c, 0, 61, 0
2, 69228, Note_on_c, 0, 73, 73
2, 69262, Note_on_c, 0, 73, 0
2, 69264, Note_on_c, 0, 61, 70
2, 69276, Note_on_c, 0, 61, 0
2, 69276, Note_on_c, 0, 73, 68
2, 69310, Note_on_c, 0, 73, 0
2, 69312, Note_on_c, 0, 61, 65
2, 69324, Note_on_c, 0, 61, 0
2, 69324, Note_on_c, 0, 73, 64
2, 69402, Note_on_c, 0, 73, 0
2, 69552, Note_on_c, 0, 61, 64
2, 69576, Note_on_c, 0, 61, 0
2, 69576, Note_on_c, 0, 66, 65
2, 69599, Note_on_c, 0, 66, 0
2, 69600, Note_on_c, 0, 66, 66
2, 69624, Note_on_c, 0, 66, 0
2, 69624, Note_on_c, 0, 69, 68
2, 69647, Note_on_c, 0, 69, 0
2, 69648, Note_on_c, 0, 69, 69
2, 69672, Note_on_c, 0, 69, 0
2, 69672, Note_on_c, 0, 73, 70
2, 69695, Note_on_c, 0, 73, 0
2, 69696, Note_on_c, 0, 73, 72
2, 69720, Note_on_c, 0, 73, 0
2, 69720, Note_on_c, 0, 78, 73
2, 69743, Note_on_c, 0, 78, 0
2, 69744, Note_on_c, 0, 78, 74
2, 69768, Note_on_c, 0, 78, 0
2, 69768, Note_on_c, 0, 81, 76
2, 69791, Note_on_c, 0, 81, 0
2, 69792, Note_on_c, 0, 81, 77
2, 69816, Note_on_c, 0, 81, 0
2, 69816, Note_on_c, 0, 85, 78
2, 69839, Note_on_c, 0, 85, 0
2, 69840, Note_on_c, 0, 85, 80
2, 69864, Note_on_c, 0, 85, 0
2, 69864, Note_on_c, 0, 81, 80
2, 69887, Note_on_c, 0, 81, 0
2, 69888, Note_on_c, 0, 81, 80
2, 69911, Note_on_c, 0, 81, 0
2, 69912, Note_on_c, 0, 80, 80
2, 69935, Note_on_c, 0, 80, 0
2, 69936, Note_on_c, 0, 83, 80
2, 69959, Note_on_c, 0, 83, 0
2, 69960, Note_on_c, 0, 76, 80
2, 69983, Note_on_c, 0, 76, 0
2, 69984, Note_on_c, 0, 78, 80
2, 69996, Note_on_c, 0, 78, 0
2, 69996, Note_on_c, 0, 80, 80
2, 70008, Note_on_c, 0, 80, 0
2, 70008, Note_on_c, 0, 78, 80
2, 70020, Note_on_c, 0, 78, 0
2, 70020, Note_on_c, 0, 80, 80
2, 70032, Note_on_c, 0, 80, 0
2, 70032, Note_on_c, 0, 78, 80
2, 70044, Note_on_c, 0, 78, 0
2, 70044, Note_on_c, 0, 80, 80
2, 70049, Note_on_c, 0, 80, 0
2, 70056, Note_on_c, 0, 76, 80
2, 70068, Note_on_c, 0, 76, 0
2, 70068, Note_on_c, 0, 78, 80
2, 70080, Note_on_c, 0, 78, 0
2, 70080, Note_on_c, 0, 76, 80
2, 70169, Note_on_c, 0, 76, 0
2, 70176, Note_on_c, 0, 73, 80
2, 70199, Note_on_c, 0, 73, 0
2, 70200, Note_on_c, 0, 76, 80
2, 70223, Note_on_c, 0, 76, 0
2, 70224, Note_on_c, 0, 75, 80
2, 70247, Note_on_c, 0, 75, 0
2, 70248, Note_on_c, 0, 73, 80
2, 70271, Note_on_c, 0, 73, 0
2, 70272, Note_on_c, 0, 73, 80
2, 70295, Note_on_c, 0, 73, 0
2, 70296, Note_on_c, 0, 71, 80
2, 70319, Note_on_c, 0, 71, 0
2, 70320, Note_on_c, 0, 70, 80
2, 70343, Note_on_c, 0, 70, 0
2, 70344, Note_on_c, 0, 71, 80
2, 70367, Note_on_c, 0, 71, 0
2, 70368, Note_on_c, 0, 69, 80
2, 70391, Note_on_c, 0, 69, 0
2, 70392, Note_on_c, 0, 73, 80
2, 70415, Note_on_c, 0, 73, 0
2, 70416, Note_on_c, 0, 71, 80
2, 70439, Note_on_c, 0, 71, 0
2, 70440, Note_on_c, 0, 69, 80
2, 70463, Note_on_c, 0, 69, 0
2, 70464, Note_on_c, 0, 69, 80
2, 70487, Note_on_c, 0, 69, 0
2, 70488, Note_on_c, 0, 68, 80
2, 70511, Note_on_c, 0, 68, 0
2, 70512, Note_on_c, 0, 67, 80
2, 70535, Note_on_c, 0, 67, 0
2, 70536, Note_on_c, 0, 68, 80
2, 70559, Note_on_c, 0, 68, 0
2, 70560, Note_on_c, 0, 66, 80
2, 70583, Note_on_c, 0, 66, 0
2, 70584, Note_on_c, 0, 69, 80
2, 70607, Note_on_c, 0, 69, 0
2, 70608, Note_on_c, 0, 68, 80
2, 70631, Note_on_c, 0, 68, 0
2, 70632, Note_on_c, 0, 66, 80
2, 70655, Note_on_c, 0, 66, 0
2, 70656, Note_on_c, 0, 66, 80
2, 70679, Note_on_c, 0, 66, 0
2, 70680, Note_on_c, 0, 64, 80
2, 70703, Note_on_c, 0, 64, 0
2, 70704, Note_on_c, 0, 63, 80
2, 70727, Note_on_c, 0, 63, 0
2, 70728, Note_on_c, 0, 64, 80
2, 70751, Note_on_c, 0, 64, 0
2, 70752, Note_on_c, 0, 71, 96
2, 70871, Note_on_c, 0, 71, 0
2, 70872, Note_on_c, 0, 69, 80
2, 70895, Note_on_c, 0, 69, 0
2, 70896, Note_on_c, 0, 68, 80
2, 70919, Note_on_c, 0, 68, 0
2, 70920, Note_on_c, 0, 66, 80
2, 70943, Note_on_c, 0, 66, 0
2, 70944, Note_on_c, 0, 64, 80
2, 70989, Note_on_c, 0, 64, 0
2, 70992, Note_on_c, 0, 66, 80
2, 71004, Note_on_c, 0, 66, 0
2, 71004, Note_on_c, 0, 68, 80
2, 71016, Note_on_c, 0, 68, 0
2, 71016, Note_on_c, 0, 66, 80
2, 71028, Note_on_c, 0, 66, 0
2, 71028, Note_on_c, 0, 68, 80
2, 71037, Note_on_c, 0, 68, 0
2, 71040, Note_on_c, 0, 64, 80
2, 71129, Note_on_c, 0, 64, 0
2, 71152, Note_on_c, 0, 73, 80
2, 71167, Note_on_c, 0, 73, 0
2, 71168, Note_on_c, 0, 75, 80
2, 71183, Note_on_c, 0, 75, 0
2, 71184, Note_on_c, 0, 76, 80
2, 71199, Note_on_c, 0, 76, 0
2, 71200, Note_on_c, 0, 75, 80
2, 71215, Note_on_c, 0, 75, 0
2, 71216, Note_on_c, 0, 73, 80
2, 71231, Note_on_c, 0, 73, 0
2, 71232, Note_on_c, 0, 73, 80
2, 71255, Note_on_c, 0, 73, 0
2, 71256, Note_on_c, 0, 71, 80
2, 71279, Note_on_c, 0, 71, 0
2, 71280, Note_on_c, 0, 70, 80
2, 71303, Note_on_c, 0, 70, 0
2, 71304, Note_on_c, 0, 71, 80
2, 71327, Note_on_c, 0, 71, 0
2, 71344, Note_on_c, 0, 69, 80
2, 71359, Note_on_c, 0, 69, 0
2, 71360, Note_on_c, 0, 71, 80
2, 71375, Note_on_c, 0, 71, 0
2, 71376, Note_on_c, 0, 73, 80
2, 71391, Note_on_c, 0, 73, 0
2, 71392, Note_on_c, 0, 71, 80
2, 71407, Note_on_c, 0, 71, 0
2, 71408, Note_on_c, 0, 69, 80
2, 71423, Note_on_c, 0, 69, 0
2, 71424, Note_on_c, 0, 69, 80
2, 71447, Note_on_c, 0, 69, 0
2, 71448, Note_on_c, 0, 68, 80
2, 71471, Note_on_c, 0, 68, 0
2, 71472, Note_on_c, 0, 67, 80
2, 71495, Note_on_c, 0, 67, 0
2, 71496, Note_on_c, 0, 68, 80
2, 71519, Note_on_c, 0, 68, 0
2, 71536, Note_on_c, 0, 66, 80
2, 71551, Note_on_c, 0, 66, 0
2, 71552, Note_on_c, 0, 68, 80
2, 71567, Note_on_c, 0, 68, 0
2, 71568, Note_on_c, 0, 69, 80
2, 71583, Note_on_c, 0, 69, 0
2, 71584, Note_on_c, 0, 68, 80
2, 71599, Note_on_c, 0, 68, 0
2, 71600, Note_on_c, 0, 66, 80
2, 71615, Note_on_c, 0, 66, 0
2, 71616, Note_on_c, 0, 64, 80
2, 71639, Note_on_c, 0, 64, 0
2, 71640, Note_on_c, 0, 66, 80
2, 71652, Note_on_c, 0, 66, 0
2, 71652, Note_on_c, 0, 68, 80
2, 71664, Note_on_c, 0, 68, 0
2, 71664, Note_on_c, 0, 69, 80
2, 71676, Note_on_c, 0, 69, 0
2, 71676, Note_on_c, 0, 71, 80
2, 71688, Note_on_c, 0, 71, 0
2, 71688, Note_on_c, 0, 73, 80
2, 71700, Note_on_c, 0, 73, 0
2, 71700, Note_on_c, 0, 75, 80
2, 71712, Note_on_c, 0, 75, 0
2, 71712, Note_on_c, 0, 76, 80
2, 71757, Note_on_c, 0, 76, 0
2, 71808, Note_on_c, 0, 73, 80
2, 71823, Note_on_c, 0, 73, 0
2, 71824, Note_on_c, 0, 71, 80
2, 71839, Note_on_c, 0, 71, 0
2, 71840, Note_on_c, 0, 69, 80
2, 71855, Note_on_c, 0, 69, 0
2, 71856, Note_on_c, 0, 68, 80
2, 71871, Note_on_c, 0, 68, 0
2, 71872, Note_on_c, 0, 66, 80
2, 71887, Note_on_c, 0, 66, 0
2, 71888, Note_on_c, 0, 64, 80
2, 71903, Note_on_c, 0, 64, 0
2, 71904, Note_on_c, 0, 66, 80
2, 71916, Note_on_c, 0, 66, 0
2, 71916, Note_on_c, 0, 68, 80
2, 71928, Note_on_c, 0, 68, 0
2, 71928, Note_on_c, 0, 66, 80
2, 71940, Note_on_c, 0, 66, 0
2, 71940, Note_on_c, 0, 68, 80
2, 71952, Note_on_c, 0, 68, 0
2, 71952, Note_on_c, 0, 66, 80
2, 71964, Note_on_c, 0, 66, 0
2, 71964, Note_on_c, 0, 68, 80
2, 71969, Note_on_c, 0, 68, 0
2, 71976, Note_on_c, 0, 64, 80
2, 71988, Note_on_c, 0, 64, 0
2, 71988, Note_on_c, 0, 66, 80
2, 72000, Note_on_c, 0, 66, 0
2, 72000, Note_on_c, 0, 64, 80
2, 72089, Note_on_c, 0, 64, 0
2, 72192, End_track
3, 0, Start_track
3, 0, Program_c, 0, 0
3, 0, Control_c, 0, 7, 127
3, 0, Control_c, 0, 10, 64
3, 18576, Note_on_c, 0, 67, 64
3, 18643, Note_on_c, 0, 67, 0
3, 18648, Note_on_c, 0, 66, 64
3, 18671, Note_on_c, 0, 66, 0
3, 18672, Note_on_c, 0, 64, 64
3, 18717, Note_on_c, 0, 64, 0
3, 72192, End_track
4, 0, Start_track
4, 0, Program_c, 1, 0
4, 0, Control_c, 1, 7, 127
4, 0, Control_c, 1, 10, 64
4, 0, Note_on_c, 1, 67, 70
4, 0, Note_on_c, 1, 64, 70
4, 89, Note_on_c, 1, 67, 0
4, 89, Note_on_c, 1, 64, 0
4, 96, Note_on_c, 1, 67, 70
4, 96, Note_on_c, 1, 64, 70
4, 141, Note_on_c, 1, 67, 0
4, 141, Note_on_c, 1, 64, 0
4, 144, Note_on_c, 1, 71, 70
4, 144, Note_on_c, 1, 67, 70
4, 233, Note_on_c, 1, 71, 0
4, 233, Note_on_c, 1, 67, 0
4, 240, Note_on_c, 1, 71, 70
4, 240, Note_on_c, 1, 67, 70
4, 285, Note_on_c, 1, 71, 0
4, 285, Note_on_c, 1, 67, 0
4, 288, Note_on_c, 1, 72, 70
4, 288, Note_on_c, 1, 69, 70
4, 377, Note_on_c, 1, 72, 0
4, 377, Note_on_c, 1, 69, 0
4, 384, Note_on_c, 1, 72, 70
4, 384, Note_on_c, 1, 69, 70
4, 429, Note_on_c, 1, 72, 0
4, 429, Note_on_c, 1, 69, 0
4, 432, Note_on_c, 1, 71, 70
4, 432, Note_on_c, 1, 67, 70
4, 477, Note_on_c, 1, 71, 0
4, 477, Note_on_c, 1, 67, 0
4, 528, Note_on_c, 1, 55, 80
4, 573, Note_on_c, 1, 55, 0
4, 576, Note_on_c, 1, 57, 80
4, 643, Note_on_c, 1, 57, 0
4, 648, Note_on_c, 1, 60, 80
4, 660, Note_on_c, 1, 60, 0
4, 660, Note_on_c, 1, 59, 80
4, 672, Note_on_c, 1, 59, 0
4, 672, Note_on_c, 1, 57, 80
4, 684, Note_on_c, 1, 57, 0
4, 684, Note_on_c, 1, 55, 80
4, 696, Note_on_c, 1, 55, 0
4, 696, Note_on_c, 1, 54, 80
4, 708, Note_on_c, 1, 54, 0
4, 708, Note_on_c, 1, 52, 80
4, 720, Note_on_c, 1, 52, 0
4, 720, Note_on_c, 1, 51, 80
4, 768, Note_on_c, 1, 51, 0
4, 768, Note_on_c, 1, 54, 80
4, 791, Note_on_c, 1, 54, 0
4, 792, Note_on_c, 1, 48, 80
4, 815, Note_on_c, 1, 48, 0
4, 816, Note_on_c, 1, 47, 80
4, 839, Note_on_c, 1, 47, 0
4, 840, Note_on_c, 1, 45, 80
4, 863, Note_on_c, 1, 45, 0
4, 864, Note_on_c, 1, 43, 80
4, 887, Note_on_c, 1, 43, 0
4, 888, Note_on_c, 1, 42, 80
4, 911, Note_on_c, 1, 42, 0
4, 912, Note_on_c, 1, 40, 80
4, 957, Note_on_c, 1, 40, 0
4, 960, Note_on_c, 1, 40, 80
4, 1005, Note_on_c, 1, 40, 0
4, 1008, Note_on_c, 1, 40, 80
4, 1053, Note_on_c, 1, 40, 0
4, 1152, Note_on_c, 1, 67, 70
4, 1152, Note_on_c, 1, 64, 70
4, 1241, Note_on_c, 1, 67, 0
4, 1241, Note_on_c, 1, 64, 0
4, 1248, Note_on_c, 1, 67, 70
4, 1248, Note_on_c, 1, 64, 70
4, 1293, Note_on_c, 1, 67, 0
4, 1293, Note_on_c, 1, 64, 0
4, 1296, Note_on_c, 1, 71, 70
4, 1296, Note_on_c, 1, 67, 70
4, 1385, Note_on_c, 1, 71, 0
4, 1385, Note_on_c, 1, 67, 0
4, 1392, Note_on_c, 1, 71, 70
4, 1392, Note_on_c, 1, 67, 70
4, 1437, Note_on_c, 1, 71, 0
4, 1437, Note_on_c, 1, 67, 0
4, 1440, Note_on_c, 1, 72, 70
4, 1440, Note_on_c, 1, 69, 70
4, 1529, Note_on_c, 1, 72, 0
4, 1529, Note_on_c, 1, 69, 0
4, 1536, Note_on_c, 1, 71, 70
4, 1536, Note_on_c, 1, 67, 70
4, 1581, Note_on_c, 1, 71, 0
4, 1581, Note_on_c, 1, 67, 0
4, 1584, Note_on_c, 1, 69, 70
4, 1584, Note_on_c, 1, 66, 70
4, 1629, Note_on_c, 1, 69, 0
4, 1629, Note_on_c, 1, 66, 0
4, 1680, Note_on_c, 1, 64, 70
4, 1725, Note_on_c, 1, 64, 0
4, 1728, Note_on_c, 1, 71, 70
4, 1795, Note_on_c, 1, 71, 0
4, 1800, Note_on_c, 1, 70, 70
4, 1823, Note_on_c, 1, 70, 0
4, 1824, Note_on_c, 1, 71, 70
4, 1869, Note_on_c, 1, 71, 0
4, 1872, Note_on_c, 1, 59, 70
4, 1917, Note_on_c, 1, 59, 0
4, 1968, Note_on_c, 1, 71, 70
4, 2013, Note_on_c, 1, 71, 0
4, 2016, Note_on_c, 1, 71, 70
4, 2083, Note_on_c, 1, 71, 0
4, 2088, Note_on_c, 1, 70, 70
4, 2111, Note_on_c, 1, 70, 0
4, 2112, Note_on_c, 1, 71, 70
4, 2157, Note_on_c, 1, 71, 0
4, 2160, Note_on_c, 1, 59, 70
4, 2238, Note_on_c, 1, 59, 0
4, 2304, Note_on_c, 1, 43, 75
4, 2310, Note_on_c, 1, 47, 75
4, 2316, Note_on_c, 1, 50, 75
4, 2322, Note_on_c, 1, 55, 75
4, 2577, Note_on_c, 1, 55, 0
4, 2577, Note_on_c, 1, 50, 0
4, 2577, Note_on_c, 1, 47, 0
4, 2577, Note_on_c, 1, 43, 0
4, 2592, Note_on_c, 1, 55, 70
4, 2592, Note_on_c, 1, 52, 70
4, 2592, Note_on_c, 1, 45, 70
4, 2686, Note_on_c, 1, 55, 0
4, 2686, Note_on_c, 1, 52, 0
4, 2686, Note_on_c, 1, 45, 0
4, 2688, Note_on_c, 1, 55, 70
4, 2688, Note_on_c, 1, 52, 70
4, 2688, Note_on_c, 1, 45, 70
4, 2735, Note_on_c, 1, 55, 0
4, 2735, Note_on_c, 1, 52, 0
4, 2735, Note_on_c, 1, 45, 0
4, 2736, Note_on_c, 1, 55, 70
4, 2736, Note_on_c, 1, 52, 70
4, 2736, Note_on_c, 1, 45, 70
4, 2806, Note_on_c, 1, 55, 0
4, 2806, Note_on_c, 1, 52, 0
4, 2806, Note_on_c, 1, 45, 0
4, 2880, Note_on_c, 1, 54, 75
4, 2880, Note_on_c, 1, 50, 75
4, 2880, Note_on_c, 1, 38, 75
4, 3145, Note_on_c, 1, 54, 0
4, 3145, Note_on_c, 1, 50, 0
4, 3145, Note_on_c, 1, 38, 0
4, 3168, Note_on_c, 1, 55, 70
4, 3168, Note_on_c, 1, 50, 70
4, 3168, Note_on_c, 1, 43, 70
4, 3262, Note_on_c, 1, 55, 0
4, 3262, Note_on_c, 1, 50, 0
4, 3262, Note_on_c, 1, 43, 0
4, 3264, Note_on_c, 1, 55, 70
4, 3264, Note_on_c, 1, 50, 70
4, 3264, Note_on_c, 1, 43, 70
4, 3311, Note_on_c, 1, 55, 0
4, 3311, Note_on_c, 1, 50, 0
4, 3311, Note_on_c, 1, 43, 0
4, 3312, Note_on_c, 1, 55, 70
4, 3312, Note_on_c, 1, 50, 70
4, 3312, Note_on_c, 1, 43, 70
4, 3359, Note_on_c, 1, 55, 0
4, 3359, Note_on_c, 1, 50, 0
4, 3359, Note_on_c, 1, 43, 0
4, 3456, Note_on_c, 1, 67, 75
4, 3456, Note_on_c, 1, 60, 75
4, 3501, Note_on_c, 1, 67, 0
4, 3501, Note_on_c, 1, 60, 0
4, 3600, Note_on_c, 1, 67, 75
4, 3600, Note_on_c, 1, 59, 75
4, 3645, Note_on_c, 1, 67, 0
4, 3645, Note_on_c, 1, 59, 0
4, 3792, Note_on_c, 1, 64, 75
4, 3792, Note_on_c, 1, 57, 75
4, 3837, Note_on_c, 1, 64, 0
4, 3837, Note_on_c, 1, 57, 0
4, 3840, Note_on_c, 1, 64, 75
4, 3840, Note_on_c, 1, 55, 75
4, 3885, Note_on_c, 1, 64, 0
4, 3885, Note_on_c, 1, 55, 0
4, 3888, Note_on_c, 1, 62, 75
4, 3888, Note_on_c, 1, 54, 75
4, 3977, Note_on_c, 1, 62, 0
4, 3977, Note_on_c, 1, 54, 0
4, 3984, Note_on_c, 1, 62, 75
4, 3984, Note_on_c, 1, 55, 75
4, 4029, Note_on_c, 1, 62, 0
4, 4029, Note_on_c, 1, 55, 0
4, 4032, Note_on_c, 1, 60, 75
4, 4032, Note_on_c, 1, 48, 75
4, 4077, Note_on_c, 1, 60, 0
4, 4077, Note_on_c, 1, 48, 0
4, 4080, Note_on_c, 1, 59, 75
4, 4080, Note_on_c, 1, 50, 75
4, 4125, Note_on_c, 1, 59, 0
4, 4125, Note_on_c, 1, 50, 0
4, 4128, Note_on_c, 1, 57, 75
4, 4128, Note_on_c, 1, 50, 75
4, 4173, Note_on_c, 1, 57, 0
4, 4173, Note_on_c, 1, 50, 0
4, 4176, Note_on_c, 1, 55, 75
4, 4176, Note_on_c, 1, 43, 75
4, 4223, Note_on_c, 1, 55, 0
4, 4223, Note_on_c, 1, 43, 0
4, 4320, Note_on_c, 1, 67, 75
4, 4320, Note_on_c, 1, 60, 75
4, 4365, Note_on_c, 1, 67, 0
4, 4365, Note_on_c, 1, 60, 0
4, 4464, Note_on_c, 1, 67, 75
4, 4464, Note_on_c, 1, 59, 75
4, 4509, Note_on_c, 1, 67, 0
4, 4509, Note_on_c, 1, 59, 0
4, 4656, Note_on_c, 1, 64, 75
4, 4656, Note_on_c, 1, 57, 75
4, 4701, Note_on_c, 1, 64, 0
4, 4701, Note_on_c, 1, 57, 0
4, 4704, Note_on_c, 1, 63, 75
4, 4704, Note_on_c, 1, 55, 75
4, 4749, Note_on_c, 1, 63, 0
4, 4749, Note_on_c, 1, 55, 0
4, 4752, Note_on_c, 1, 62, 75
4, 4752, Note_on_c, 1, 54, 75
4, 4885, Note_on_c, 1, 62, 0
4, 4885, Note_on_c, 1, 54, 0
4, 4896, Note_on_c, 1, 59, 75
4, 4896, Note_on_c, 1, 55, 75
4, 4985, Note_on_c, 1, 59, 0
4, 4985, Note_on_c, 1, 55, 0
4, 4992, Note_on_c, 1, 67, 75
4, 4992, Note_on_c, 1, 59, 75
4, 5037, Note_on_c, 1, 67, 0
4, 5037, Note_on_c, 1, 59, 0
4, 5040, Note_on_c, 1, 67, 75
4, 5040, Note_on_c, 1, 60, 75
4, 5085, Note_on_c, 1, 67, 0
4, 5085, Note_on_c, 1, 60, 0
4, 5088, Note_on_c, 1, 67, 75
4, 5088, Note_on_c, 1, 62, 75
4, 5133, Note_on_c, 1, 67, 0
4, 5133, Note_on_c, 1, 62, 0
4, 5136, Note_on_c, 1, 66, 75
4, 5136, Note_on_c, 1, 62, 75
4, 5181, Note_on_c, 1, 66, 0
4, 5181, Note_on_c, 1, 62, 0
4, 5184, Note_on_c, 1, 67, 75
4, 5184, Note_on_c, 1, 55, 75
4, 5229, Note_on_c, 1, 67, 0
4, 5229, Note_on_c, 1, 55, 0
4, 5232, Note_on_c, 1, 55, 75
4, 5232, Note_on_c, 1, 43, 75
4, 5279, Note_on_c, 1, 55, 0
4, 5279, Note_on_c, 1, 43, 0
4, 5280, Note_on_c, 1, 55, 75
4, 5280, Note_on_c, 1, 43, 75
4, 5327, Note_on_c, 1, 55, 0
4, 5327, Note_on_c, 1, 43, 0
4, 5328, Note_on_c, 1, 55, 75
4, 5328, Note_on_c, 1, 43, 75
4, 5421, Note_on_c, 1, 55, 0
4, 5421, Note_on_c, 1, 43, 0
4, 5472, Note_on_c, 1, 67, 70
4, 5472, Note_on_c, 1, 64, 70
4, 5561, Note_on_c, 1, 67, 0
4, 5561, Note_on_c, 1, 64, 0
4, 5568, Note_on_c, 1, 67, 70
4, 5568, Note_on_c, 1, 64, 70
4, 5613, Note_on_c, 1, 67, 0
4, 5613, Note_on_c, 1, 64, 0
4, 5616, Note_on_c, 1, 71, 70
4, 5616, Note_on_c, 1, 67, 70
4, 5705, Note_on_c, 1, 71, 0
4, 5705, Note_on_c, 1, 67, 0
4, 5712, Note_on_c, 1, 71, 70
4, 5712, Note_on_c, 1, 67, 70
4, 5757, Note_on_c, 1, 71, 0
4, 5757, Note_on_c, 1, 67, 0
4, 5760, Note_on_c, 1, 72, 70
4, 5760, Note_on_c, 1, 69, 70
4, 5849, Note_on_c, 1, 72, 0
4, 5849, Note_on_c, 1, 69, 0
4, 5856, Note_on_c, 1, 72, 70
4, 5856, Note_on_c, 1, 69, 70
4, 5901, Note_on_c, 1, 72, 0
4, 5901, Note_on_c, 1, 69, 0
4, 5904, Note_on_c, 1, 71, 70
4, 5904, Note_on_c, 1, 67, 70
4, 5949, Note_on_c, 1, 71, 0
4, 5949, Note_on_c, 1, 67, 0
4, 6000, Note_on_c, 1, 55, 80
4, 6045, Note_on_c, 1, 55, 0
4, 6048, Note_on_c, 1, 57, 80
4, 6115, Note_on_c, 1, 57, 0
4, 6120, Note_on_c, 1, 60, 80
4, 6132, Note_on_c, 1, 60, 0
4, 6132, Note_on_c, 1, 59, 80
4, 6144, Note_on_c, 1, 59, 0
4, 6144, Note_on_c, 1, 57, 80
4, 6156, Note_on_c, 1, 57, 0
4, 6156, Note_on_c, 1, 55, 80
4, 6168, Note_on_c, 1, 55, 0
4, 6168, Note_on_c, 1, 54, 80
4, 6180, Note_on_c, 1, 54, 0
4, 6180, Note_on_c, 1, 52, 80
4, 6192, Note_on_c, 1, 52, 0
4, 6192, Note_on_c, 1, 51, 80
4, 6240, Note_on_c, 1, 51, 0
4, 6240, Note_on_c, 1, 54, 80
4, 6263, Note_on_c, 1, 54, 0
4, 6264, Note_on_c, 1, 48, 80
4, 6287, Note_on_c, 1, 48, 0
4, 6288, Note_on_c, 1, 47, 80
4, 6311, Note_on_c, 1, 47, 0
4, 6312, Note_on_c, 1, 45, 80
4, 6335, Note_on_c, 1, 45, 0
4, 6336, Note_on_c, 1, 43, 80
4, 6359, Note_on_c, 1, 43, 0
4, 6360, Note_on_c, 1, 42, 80
4, 6383, Note_on_c, 1, 42, 0
4, 6384, Note_on_c, 1, 40, 80
4, 6429, Note_on_c, 1, 40, 0
4, 6432, Note_on_c, 1, 40, 80
4, 6477, Note_on_c, 1, 40, 0
4, 6480, Note_on_c, 1, 40, 80
4, 6525, Note_on_c, 1, 40, 0
4, 6624, Note_on_c, 1, 67, 70
4, 6624, Note_on_c, 1, 64, 70
4, 6713, Note_on_c, 1, 67, 0
4, 6713, Note_on_c, 1, 64, 0
4, 6720, Note_on_c, 1, 67, 70
4, 6720, Note_on_c, 1, 64, 70
4, 6765, Note_on_c, 1, 67, 0
4, 6765, Note_on_c, 1, 64, 0
4, 6768, Note_on_c, 1, 71, 70
4, 6768, Note_on_c, 1, 67, 70
4, 6857, Note_on_c, 1, 71, 0
4, 6857, Note_on_c, 1, 67, 0
4, 6864, Note_on_c, 1, 71, 70
4, 6864, Note_on_c, 1, 67, 70
4, 6909, Note_on_c, 1, 71, 0
4, 6909, Note_on_c, 1, 67, 0
4, 6912, Note_on_c, 1, 72, 70
4, 6912, Note_on_c, 1, 69, 70
4, 7001, Note_on_c, 1, 72, 0
4, 7001, Note_on_c, 1, 69, 0
4, 7008, Note_on_c, 1, 71, 70
4, 7008, Note_on_c, 1, 67, 70
4, 7053, Note_on_c, 1, 71, 0
4, 7053, Note_on_c, 1, 67, 0
4, 7056, Note_on_c, 1, 69, 70
4, 7056, Note_on_c, 1, 66, 70
4, 7101, Note_on_c, 1, 69, 0
4, 7101, Note_on_c, 1, 66, 0
4, 7152, Note_on_c, 1, 64, 70
4, 7197, Note_on_c, 1, 64, 0
4, 7200, Note_on_c, 1, 71, 70
4, 7267, Note_on_c, 1, 71, 0
4, 7272, Note_on_c, 1, 70, 70
4, 7295, Note_on_c, 1, 70, 0
4, 7296, Note_on_c, 1, 71, 70
4, 7341, Note_on_c, 1, 71, 0
4, 7344, Note_on_c, 1, 59, 70
4, 7389, Note_on_c, 1, 59, 0
4, 7440, Note_on_c, 1, 71, 70
4, 7485, Note_on_c, 1, 71, 0
4, 7488, Note_on_c, 1, 71, 70
4, 7555, Note_on_c, 1, 71, 0
4, 7560, Note_on_c, 1, 70, 70
4, 7583, Note_on_c, 1, 70, 0
4, 7584, Note_on_c, 1, 71, 70
4, 7629, Note_on_c, 1, 71, 0
4, 7632, Note_on_c, 1, 59, 70
4, 7710, Note_on_c, 1, 59, 0
4, 7776, Note_on_c, 1, 43, 75
4, 7782, Note_on_c, 1, 47, 75
4, 7788, Note_on_c, 1, 50, 75
4, 7794, Note_on_c, 1, 55, 75
4, 8049, Note_on_c, 1, 55, 0
4, 8049, Note_on_c, 1, 50, 0
4, 8049, Note_on_c, 1, 47, 0
4, 8049, Note_on_c, 1, 43, 0
4, 8064, Note_on_c, 1, 55, 70
4, 8064, Note_on_c, 1, 52, 70
4, 8064, Note_on_c, 1, 45, 70
4, 8158, Note_on_c, 1, 55, 0
4, 8158, Note_on_c, 1, 52, 0
4, 8158, Note_on_c, 1, 45, 0
4, 8160, Note_on_c, 1, 55, 70
4, 8160, Note_on_c, 1, 52, 70
4, 8160, Note_on_c, 1, 45, 70
4, 8207, Note_on_c, 1, 55, 0
4, 8207, Note_on_c, 1, 52, 0
4, 8207, Note_on_c, 1, 45, 0
4, 8208, Note_on_c, 1, 55, 70
4, 8208, Note_on_c, 1, 52, 70
4, 8208, Note_on_c, 1, 45, 70
4, 8278, Note_on_c, 1, 55, 0
4, 8278, Note_on_c, 1, 52, 0
4, 8278, Note_on_c, 1, 45, 0
4, 8352, Note_on_c, 1, 54, 75
4, 8352, Note_on_c, 1, 50, 75
4, 8352, Note_on_c, 1, 38, 75
4, 8617, Note_on_c, 1, 54, 0
4, 8617, Note_on_c, 1, 50, 0
4, 8617, Note_on_c, 1, 38, 0
4, 8640, Note_on_c, 1, 55, 70
4, 8640, Note_on_c, 1, 50, 70
4, 8640, Note_on_c, 1, 43, 70
4, 8734, Note_on_c, 1, 55, 0
4, 8734, Note_on_c, 1, 50, 0
4, 8734, Note_on_c, 1, 43, 0
4, 8736, Note_on_c, 1, 55, 70
4, 8736, Note_on_c, 1, 50, 70
4, 8736, Note_on_c, 1, 43, 70
4, 8783, Note_on_c, 1, 55, 0
4, 8783, Note_on_c, 1, 50, 0
4, 8783, Note_on_c, 1, 43, 0
4, 8784, Note_on_c, 1, 55, 70
4, 8784, Note_on_c, 1, 50, 70
4, 8784, Note_on_c, 1, 43, 70
4, 8831, Note_on_c, 1, 55, 0
4, 8831, Note_on_c, 1, 50, 0
4, 8831, Note_on_c, 1, 43, 0
4, 8928, Note_on_c, 1, 67, 75
4, 8928, Note_on_c, 1, 60, 75
4, 8973, Note_on_c, 1, 67, 0
4, 8973, Note_on_c, 1, 60, 0
4, 9072, Note_on_c, 1, 67, 75
4, 9072, Note_on_c, 1, 59, 75
4, 9117, Note_on_c, 1, 67, 0
4, 9117, Note_on_c, 1, 59, 0
4, 9264, Note_on_c, 1, 64, 75
4, 9264, Note_on_c, 1, 57, 75
4, 9309, Note_on_c, 1, 64, 0
4, 9309, Note_on_c, 1, 57, 0
4, 9312, Note_on_c, 1, 64, 75
4, 9312, Note_on_c, 1, 55, 75
4, 9357, Note_on_c, 1, 64, 0
4, 9357, Note_on_c, 1, 55, 0
4, 9360, Note_on_c, 1, 62, 75
4, 9360, Note_on_c, 1, 54, 75
4, 9449, Note_on_c, 1, 62, 0
4, 9449, Note_on_c, 1, 54, 0
4, 9456, Note_on_c, 1, 62, 75
4, 9456, Note_on_c, 1, 55, 75
4, 9501, Note_on_c, 1, 62, 0
4, 9501, Note_on_c, 1, 55, 0
4, 9504, Note_on_c, 1, 60, 75
4, 9504, Note_on_c, 1, 48, 75
4, 9549, Note_on_c, 1, 60, 0
4, 9549, Note_on_c, 1, 48, 0
4, 9552, Note_on_c, 1, 59, 75
4, 9552, Note_on_c, 1, 50, 75
4, 9597, Note_on_c, 1, 59, 0
4, 9597, Note_on_c, 1, 50, 0
4, 9600, Note_on_c, 1, 57, 75
4, 9600, Note_on_c, 1, 50, 75
4, 9645, Note_on_c, 1, 57, 0
4, 9645, Note_on_c, 1, 50, 0
4, 9648, Note_on_c, 1, 55, 75
4, 9648, Note_on_c, 1, 43, 75
4, 9695, Note_on_c, 1, 55, 0
4, 9695, Note_on_c, 1, 43, 0
4, 9792, Note_on_c, 1, 67, 75
4, 9792, Note_on_c, 1, 60, 75
4, 9837, Note_on_c, 1, 67, 0
4, 9837, Note_on_c, 1, 60, 0
4, 9936, Note_on_c, 1, 67, 75
4, 9936, Note_on_c, 1, 59, 75
4, 9981, Note_on_c, 1, 67, 0
4, 9981, Note_on_c, 1, 59, 0
4, 10128, Note_on_c, 1, 64, 75
4, 10128, Note_on_c, 1, 57, 75
4, 10173, Note_on_c, 1, 64, 0
4, 10173, Note_on_c, 1, 57, 0
4, 10176, Note_on_c, 1, 63, 75
4, 10176, Note_on_c, 1, 55, 75
4, 10221, Note_on_c, 1, 63, 0
4, 10221, Note_on_c, 1, 55, 0
4, 10224, Note_on_c, 1, 62, 75
4, 10224, Note_on_c, 1, 54, 75
4, 10357, Note_on_c, 1, 62, 0
4, 10357, Note_on_c, 1, 54, 0
4, 10368, Note_on_c, 1, 59, 75
4, 10368, Note_on_c, 1, 55, 75
4, 10457, Note_on_c, 1, 59, 0
4, 10457, Note_on_c, 1, 55, 0
4, 10464, Note_on_c, 1, 67, 75
4, 10464, Note_on_c, 1, 59, 75
4, 10509, Note_on_c, 1, 67, 0
4, 10509, Note_on_c, 1, 59, 0
4, 10512, Note_on_c, 1, 67, 75
4, 10512, Note_on_c, 1, 60, 75
4, 10557, Note_on_c, 1, 67, 0
4, 10557, Note_on_c, 1, 60, 0
4, 10560, Note_on_c, 1, 67, 75
4, 10560, Note_on_c, 1, 62, 75
4, 10605, Note_on_c, 1, 67, 0
4, 10605, Note_on_c, 1, 62, 0
4, 10608, Note_on_c, 1, 66, 75
4, 10608, Note_on_c, 1, 62, 75
4, 10653, Note_on_c, 1, 66, 0
4, 10653, Note_on_c, 1, 62, 0
4, 10656, Note_on_c, 1, 67, 75
4, 10656, Note_on_c, 1, 55, 75
4, 10701, Note_on_c, 1, 67, 0
4, 10701, Note_on_c, 1, 55, 0
4, 10704, Note_on_c, 1, 55, 75
4, 10704, Note_on_c, 1, 43, 75
4, 10751, Note_on_c, 1, 55, 0
4, 10751, Note_on_c, 1, 43, 0
4, 10752, Note_on_c, 1, 55, 75
4, 10752, Note_on_c, 1, 43, 75
4, 10799, Note_on_c, 1, 55, 0
4, 10799, Note_on_c, 1, 43, 0
4, 10800, Note_on_c, 1, 55, 75
4, 10800, Note_on_c, 1, 43, 75
4, 10893, Note_on_c, 1, 55, 0
4, 10893, Note_on_c, 1, 43, 0
4, 10944, Note_on_c, 1, 59, 75
4, 10944, Note_on_c, 1, 55, 75
4, 11033, Note_on_c, 1, 59, 0
4, 11033, Note_on_c, 1, 55, 0
4, 11040, Note_on_c, 1, 59, 75
4, 11040, Note_on_c, 1, 55, 75
4, 11085, Note_on_c, 1, 59, 0
4, 11085, Note_on_c, 1, 55, 0
4, 11088, Note_on_c, 1, 62, 75
4, 11088, Note_on_c, 1, 59, 75
4, 11177, Note_on_c, 1, 62, 0
4, 11177, Note_on_c, 1, 59, 0
4, 11184, Note_on_c, 1, 62, 75
4, 11184, Note_on_c, 1, 59, 75
4, 11229, Note_on_c, 1, 62, 0
4, 11229, Note_on_c, 1, 59, 0
4, 11232, Note_on_c, 1, 64, 75
4, 11232, Note_on_c, 1, 60, 75
4, 11321, Note_on_c, 1, 64, 0
4, 11321, Note_on_c, 1, 60, 0
4, 11328, Note_on_c, 1, 64, 75
4, 11328, Note_on_c, 1, 60, 75
4, 11373, Note_on_c, 1, 64, 0
4, 11373, Note_on_c, 1, 60, 0
4, 11376, Note_on_c, 1, 64, 75
4, 11376, Note_on_c, 1, 60, 75
4, 11421, Note_on_c, 1, 64, 0
4, 11421, Note_on_c, 1, 60, 0
4, 11760, Note_on_c, 1, 67, 75
4, 11760, Note_on_c, 1, 64, 75
4, 11805, Note_on_c, 1, 67, 0
4, 11805, Note_on_c, 1, 64, 0
4, 11808, Note_on_c, 1, 66, 75
4, 11808, Note_on_c, 1, 63, 75
4, 11897, Note_on_c, 1, 66, 0
4, 11897, Note_on_c, 1, 63, 0
4, 11904, Note_on_c, 1, 66, 75
4, 11904, Note_on_c, 1, 63, 75
4, 11949, Note_on_c, 1, 66, 0
4, 11949, Note_on_c, 1, 63, 0
4, 11952, Note_on_c, 1, 66, 75
4, 11952, Note_on_c, 1, 63, 75
4, 11997, Note_on_c, 1, 66, 0
4, 11997, Note_on_c, 1, 63, 0
4, 12048, Note_on_c, 1, 59, 75
4, 12048, Note_on_c, 1, 51, 75
4, 12093, Note_on_c, 1, 59, 0
4, 12093, Note_on_c, 1, 51, 0
4, 12096, Note_on_c, 1, 59, 75
4, 12096, Note_on_c, 1, 52, 75
4, 12185, Note_on_c, 1, 59, 0
4, 12185, Note_on_c, 1, 52, 0
4, 12192, Note_on_c, 1, 64, 75
4, 12192, Note_on_c, 1, 55, 75
4, 12237, Note_on_c, 1, 64, 0
4, 12237, Note_on_c, 1, 55, 0
4, 12240, Note_on_c, 1, 64, 75
4, 12240, Note_on_c, 1, 57, 75
4, 12329, Note_on_c, 1, 64, 0
4, 12329, Note_on_c, 1, 57, 0
4, 12336, Note_on_c, 1, 64, 75
4, 12336, Note_on_c, 1, 60, 75
4, 12381, Note_on_c, 1, 64, 0
4, 12381, Note_on_c, 1, 60, 0
4, 12384, Note_on_c, 1, 62, 75
4, 12473, Note_on_c, 1, 62, 0
4, 12480, Note_on_c, 1, 62, 75
4, 12480, Note_on_c, 1, 54, 75
4, 12525, Note_on_c, 1, 62, 0
4, 12525, Note_on_c, 1, 54, 0
4, 12528, Note_on_c, 1, 62, 75
4, 12528, Note_on_c, 1, 55, 75
4, 12617, Note_on_c, 1, 62, 0
4, 12617, Note_on_c, 1, 55, 0
4, 12624, Note_on_c, 1, 62, 75
4, 12624, Note_on_c, 1, 59, 75
4, 12669, Note_on_c, 1, 62, 0
4, 12669, Note_on_c, 1, 59, 0
4, 12672, Note_on_c, 1, 60, 75
4, 12761, Note_on_c, 1, 60, 0
4, 12768, Note_on_c, 1, 60, 75
4, 12768, Note_on_c, 1, 52, 75
4, 12813, Note_on_c, 1, 60, 0
4, 12813, Note_on_c, 1, 52, 0
4, 12816, Note_on_c, 1, 60, 75
4, 12816, Note_on_c, 1, 54, 75
4, 12905, Note_on_c, 1, 60, 0
4, 12905, Note_on_c, 1, 54, 0
4, 12912, Note_on_c, 1, 60, 75
4, 12912, Note_on_c, 1, 57, 75
4, 12957, Note_on_c, 1, 60, 0
4, 12957, Note_on_c, 1, 57, 0
4, 12960, Note_on_c, 1, 59, 75
4, 13049, Note_on_c, 1, 59, 0
4, 13056, Note_on_c, 1, 59, 75
4, 13056, Note_on_c, 1, 51, 75
4, 13101, Note_on_c, 1, 59, 0
4, 13101, Note_on_c, 1, 51, 0
4, 13104, Note_on_c, 1, 59, 75
4, 13104, Note_on_c, 1, 52, 75
4, 13193, Note_on_c, 1, 59, 0
4, 13193, Note_on_c, 1, 52, 0
4, 13200, Note_on_c, 1, 59, 75
4, 13200, Note_on_c, 1, 50, 75
4, 13245, Note_on_c, 1, 59, 0
4, 13245, Note_on_c, 1, 50, 0
4, 13248, Note_on_c, 1, 59, 75
4, 13248, Note_on_c, 1, 48, 75
4, 13337, Note_on_c, 1, 59, 0
4, 13337, Note_on_c, 1, 48, 0
4, 13344, Note_on_c, 1, 58, 75
4, 13344, Note_on_c, 1, 48, 75
4, 13389, Note_on_c, 1, 58, 0
4, 13389, Note_on_c, 1, 48, 0
4, 13392, Note_on_c, 1, 59, 75
4, 13392, Note_on_c, 1, 47, 75
4, 13437, Note_on_c, 1, 59, 0
4, 13437, Note_on_c, 1, 47, 0
4, 13536, Note_on_c, 1, 47, 75
4, 13536, Note_on_c, 1, 35, 75
4, 13581, Note_on_c, 1, 47, 0
4, 13581, Note_on_c, 1, 35, 0
4, 13680, Note_on_c, 1, 47, 75
4, 13680, Note_on_c, 1, 35, 75
4, 13769, Note_on_c, 1, 47, 0
4, 13769, Note_on_c, 1, 35, 0
4, 13824, Note_on_c, 1, 67, 70
4, 13824, Note_on_c, 1, 64, 70
4, 13913, Note_on_c, 1, 67, 0
4, 13913, Note_on_c, 1, 64, 0
4, 13920, Note_on_c, 1, 67, 70
4, 13920, Note_on_c, 1, 64, 70
4, 13965, Note_on_c, 1, 67, 0
4, 13965, Note_on_c, 1, 64, 0
4, 13968, Note_on_c, 1, 71, 70
4, 13968, Note_on_c, 1, 67, 70
4, 14057, Note_on_c, 1, 71, 0
4, 14057, Note_on_c, 1, 67, 0
4, 14064, Note_on_c, 1, 71, 70
4, 14064, Note_on_c, 1, 67, 70
4, 14109, Note_on_c, 1, 71, 0
4, 14109, Note_on_c, 1, 67, 0
4, 14112, Note_on_c, 1, 72, 70
4, 14112, Note_on_c, 1, 69, 70
4, 14201, Note_on_c, 1, 72, 0
4, 14201, Note_on_c, 1, 69, 0
4, 14208, Note_on_c, 1, 72, 70
4, 14208, Note_on_c, 1, 69, 70
4, 14253, Note_on_c, 1, 72, 0
4, 14253, Note_on_c, 1, 69, 0
4, 14256, Note_on_c, 1, 71, 70
4, 14256, Note_on_c, 1, 67, 70
4, 14301, Note_on_c, 1, 71, 0
4, 14301, Note_on_c, 1, 67, 0
4, 14352, Note_on_c, 1, 55, 70
4, 14397, Note_on_c, 1, 55, 0
4, 14400, Note_on_c, 1, 57, 70
4, 14467, Note_on_c, 1, 57, 0
4, 14472, Note_on_c, 1, 60, 70
4, 14484, Note_on_c, 1, 60, 0
4, 14484, Note_on_c, 1, 59, 70
4, 14496, Note_on_c, 1, 59, 0
4, 14496, Note_on_c, 1, 57, 70
4, 14508, Note_on_c, 1, 57, 0
4, 14508, Note_on_c, 1, 55, 70
4, 14520, Note_on_c, 1, 55, 0
4, 14520, Note_on_c, 1, 54, 70
4, 14532, Note_on_c, 1, 54, 0
4, 14532, Note_on_c, 1, 52, 70
4, 14544, Note_on_c, 1, 52, 0
4, 14544, Note_on_c, 1, 51, 70
4, 14589, Note_on_c, 1, 51, 0
4, 14592, Note_on_c, 1, 54, 70
4, 14615, Note_on_c, 1, 54, 0
4, 14616, Note_on_c, 1, 48, 70
4, 14639, Note_on_c, 1, 48, 0
4, 14640, Note_on_c, 1, 47, 70
4, 14663, Note_on_c, 1, 47, 0
4, 14664, Note_on_c, 1, 45, 70
4, 14687, Note_on_c, 1, 45, 0
4, 14688, Note_on_c, 1, 44, 70
4, 14777, Note_on_c, 1, 44, 0
4, 14832, Note_on_c, 1, 44, 75
4, 14921, Note_on_c, 1, 44, 0
4, 14928, Note_on_c, 1, 44, 75
4, 14973, Note_on_c, 1, 44, 0
4, 14976, Note_on_c, 1, 45, 75
4, 14976, Note_on_c, 1, 33, 75
4, 15065, Note_on_c, 1, 45, 0
4, 15065, Note_on_c, 1, 33, 0
4, 15120, Note_on_c, 1, 60, 75
4, 15120, Note_on_c, 1, 57, 75
4, 15209, Note_on_c, 1, 60, 0
4, 15209, Note_on_c, 1, 57, 0
4, 15216, Note_on_c, 1, 61, 75
4, 15216, Note_on_c, 1, 58, 75
4, 15261, Note_on_c, 1, 61, 0
4, 15261, Note_on_c, 1, 58, 0
4, 15264, Note_on_c, 1, 59, 75
4, 15353, Note_on_c, 1, 59, 0
4, 15408, Note_on_c, 1, 59, 75
4, 15408, Note_on_c, 1, 51, 75
4, 15497, Note_on_c, 1, 59, 0
4, 15497, Note_on_c, 1, 51, 0
4, 15504, Note_on_c, 1, 59, 75
4, 15504, Note_on_c, 1, 51, 75
4, 15549, Note_on_c, 1, 59, 0
4, 15549, Note_on_c, 1, 51, 0
4, 15552, Note_on_c, 1, 59, 75
4, 15552, Note_on_c, 1, 52, 75
4, 15641, Note_on_c, 1, 59, 0
4, 15641, Note_on_c, 1, 52, 0
4, 15648, Note_on_c, 1, 43, 75
4, 15648, Note_on_c, 1, 31, 75
4, 15693, Note_on_c, 1, 43, 0
4, 15693, Note_on_c, 1, 31, 0
4, 15696, Note_on_c, 1, 45, 75
4, 15696, Note_on_c, 1, 33, 75
4, 15785, Note_on_c, 1, 45, 0
4, 15785, Note_on_c, 1, 33, 0
4, 15792, Note_on_c, 1, 47, 75
4, 15792, Note_on_c, 1, 35, 75
4, 15837, Note_on_c, 1, 47, 0
4, 15837, Note_on_c, 1, 35, 0
4, 15840, Note_on_c, 1, 52, 75
4, 15840, Note_on_c, 1, 40, 75
4, 15929, Note_on_c, 1, 52, 0
4, 15929, Note_on_c, 1, 40, 0
4, 15936, Note_on_c, 1, 52, 75
4, 15936, Note_on_c, 1, 40, 75
4, 15981, Note_on_c, 1, 52, 0
4, 15981, Note_on_c, 1, 40, 0
4, 15984, Note_on_c, 1, 52, 75
4, 15984, Note_on_c, 1, 40, 75
4, 16073, Note_on_c, 1, 52, 0
4, 16073, Note_on_c, 1, 40, 0
4, 16128, Note_on_c, 1, 71, 70
4, 16128, Note_on_c, 1, 64, 70
4, 16217, Note_on_c, 1, 71, 0
4, 16217, Note_on_c, 1, 64, 0
4, 16272, Note_on_c, 1, 71, 70
4, 16272, Note_on_c, 1, 63, 70
4, 16361, Note_on_c, 1, 71, 0
4, 16361, Note_on_c, 1, 63, 0
4, 16416, Note_on_c, 1, 71, 70
4, 16416, Note_on_c, 1, 64, 70
4, 16505, Note_on_c, 1, 71, 0
4, 16505, Note_on_c, 1, 64, 0
4, 16512, Note_on_c, 1, 64, 70
4, 16512, Note_on_c, 1, 60, 70
4, 16557, Note_on_c, 1, 64, 0
4, 16557, Note_on_c, 1, 60, 0
4, 16560, Note_on_c, 1, 63, 70
4, 16560, Note_on_c, 1, 59, 70
4, 16649, Note_on_c, 1, 63, 0
4, 16649, Note_on_c, 1, 59, 0
4, 16704, Note_on_c, 1, 64, 75
4, 16704, Note_on_c, 1, 57, 75
4, 16749, Note_on_c, 1, 64, 0
4, 16749, Note_on_c, 1, 57, 0
4, 16848, Note_on_c, 1, 64, 75
4, 16848, Note_on_c, 1, 55, 75
4, 16893, Note_on_c, 1, 64, 0
4, 16893, Note_on_c, 1, 55, 0
4, 17040, Note_on_c, 1, 60, 75
4, 17040, Note_on_c, 1, 54, 75
4, 17085, Note_on_c, 1, 60, 0
4, 17085, Note_on_c, 1, 54, 0
4, 17088, Note_on_c, 1, 60, 75
4, 17088, Note_on_c, 1, 52, 75
4, 17133, Note_on_c, 1, 60, 0
4, 17133, Note_on_c, 1, 52, 0
4, 17136, Note_on_c, 1, 59, 75
4, 17136, Note_on_c, 1, 51, 75
4, 17225, Note_on_c, 1, 59, 0
4, 17225, Note_on_c, 1, 51, 0
4, 17232, Note_on_c, 1, 59, 75
4, 17232, Note_on_c, 1, 52, 75
4, 17277, Note_on_c, 1, 59, 0
4, 17277, Note_on_c, 1, 52, 0
4, 17280, Note_on_c, 1, 57, 75
4, 17280, Note_on_c, 1, 45, 75
4, 17325, Note_on_c, 1, 57, 0
4, 17325, Note_on_c, 1, 45, 0
4, 17328, Note_on_c, 1, 55, 75
4, 17328, Note_on_c, 1, 47, 75
4, 17373, Note_on_c, 1, 55, 0
4, 17373, Note_on_c, 1, 47, 0
4, 17376, Note_on_c, 1, 54, 75
4, 17376, Note_on_c, 1, 47, 75
4, 17421, Note_on_c, 1, 54, 0
4, 17421, Note_on_c, 1, 47, 0
4, 17424, Note_on_c, 1, 52, 75
4, 17424, Note_on_c, 1, 40, 75
4, 17469, Note_on_c, 1, 52, 0
4, 17469, Note_on_c, 1, 40, 0
4, 17568, Note_on_c, 1, 72, 75
4, 17568, Note_on_c, 1, 69, 75
4, 17613, Note_on_c, 1, 72, 0
4, 17613, Note_on_c, 1, 69, 0
4, 17712, Note_on_c, 1, 71, 75
4, 17712, Note_on_c, 1, 67, 75
4, 17757, Note_on_c, 1, 71, 0
4, 17757, Note_on_c, 1, 67, 0
4, 17904, Note_on_c, 1, 69, 75
4, 17904, Note_on_c, 1, 66, 75
4, 17949, Note_on_c, 1, 69, 0
4, 17949, Note_on_c, 1, 66, 0
4, 17952, Note_on_c, 1, 67, 75
4, 17952, Note_on_c, 1, 64, 75
4, 17997, Note_on_c, 1, 67, 0
4, 17997, Note_on_c, 1, 64, 0
4, 18000, Note_on_c, 1, 66, 75
4, 18000, Note_on_c, 1, 63, 75
4, 18089, Note_on_c, 1, 66, 0
4, 18089, Note_on_c, 1, 63, 0
4, 18096, Note_on_c, 1, 66, 75
4, 18096, Note_on_c, 1, 63, 75
4, 18141, Note_on_c, 1, 66, 0
4, 18141, Note_on_c, 1, 63, 0
4, 18144, Note_on_c, 1, 71, 75
4, 18144, Note_on_c, 1, 64, 75
4, 18233, Note_on_c, 1, 71, 0
4, 18233, Note_on_c, 1, 64, 0
4, 18240, Note_on_c, 1, 64, 75
4, 18240, Note_on_c, 1, 55, 75
4, 18285, Note_on_c, 1, 64, 0
4, 18285, Note_on_c, 1, 55, 0
4, 18288, Note_on_c, 1, 60, 75
4, 18288, Note_on_c, 1, 57, 75
4, 18377, Note_on_c, 1, 60, 0
4, 18377, Note_on_c, 1, 57, 0
4, 18384, Note_on_c, 1, 69, 75
4, 18384, Note_on_c, 1, 59, 75
4, 18429, Note_on_c, 1, 69, 0
4, 18429, Note_on_c, 1, 59, 0
4, 18432, Note_on_c, 1, 67, 75
4, 18432, Note_on_c, 1, 60, 75
4, 18477, Note_on_c, 1, 67, 0
4, 18477, Note_on_c, 1, 60, 0
4, 18576, Note_on_c, 1, 48, 75
4, 18576, Note_on_c, 1, 36, 75
4, 18621, Note_on_c, 1, 48, 0
4, 18621, Note_on_c, 1, 36, 0
4, 18624, Note_on_c, 1, 48, 75
4, 18624, Note_on_c, 1, 36, 75
4, 18669, Note_on_c, 1, 48, 0
4, 18669, Note_on_c, 1, 36, 0
4, 18672, Note_on_c, 1, 48, 75
4, 18672, Note_on_c, 1, 36, 75
4, 18717, Note_on_c, 1, 48, 0
4, 18717, Note_on_c, 1, 36, 0
4, 18720, Note_on_c, 1, 47, 75
4, 18720, Note_on_c, 1, 35, 75
4, 18765, Note_on_c, 1, 47, 0
4, 18765, Note_on_c, 1, 35, 0
4, 18768, Note_on_c, 1, 51, 75
4, 18813, Note_on_c, 1, 51, 0
4, 18816, Note_on_c, 1, 51, 75
4, 18861, Note_on_c, 1, 51, 0
4, 18864, Note_on_c, 1, 51, 75
4, 18864, Note_on_c, 1, 47, 75
4, 18864, Note_on_c, 1, 35, 75
4, 19097, Note_on_c, 1, 51, 0
4, 19097, Note_on_c, 1, 47, 0
4, 19097, Note_on_c, 1, 35, 0
4, 19200, Note_on_c, 1, 52, 75
4, 19245, Note_on_c, 1, 52, 0
4, 19248, Note_on_c, 1, 56, 75
4, 19293, Note_on_c, 1, 56, 0
4, 19296, Note_on_c, 1, 57, 75
4, 19341, Note_on_c, 1, 57, 0
4, 19344, Note_on_c, 1, 45, 75
4, 19389, Note_on_c, 1, 45, 0
4, 19392, Note_on_c, 1, 56, 75
4, 19437, Note_on_c, 1, 56, 0
4, 19440, Note_on_c, 1, 52, 75
4, 19485, Note_on_c, 1, 52, 0
4, 19488, Note_on_c, 1, 51, 75
4, 19533, Note_on_c, 1, 51, 0
4, 19536, Note_on_c, 1, 47, 75
4, 19581, Note_on_c, 1, 47, 0
4, 19584, Note_on_c, 1, 52, 75
4, 19673, Note_on_c, 1, 52, 0
4, 19728, Note_on_c, 1, 64, 75
4, 19773, Note_on_c, 1, 64, 0
4, 19776, Note_on_c, 1, 66, 75
4, 19821, Note_on_c, 1, 66, 0
4, 19824, Note_on_c, 1, 59, 75
4, 19869, Note_on_c, 1, 59, 0
4, 19872, Note_on_c, 1, 64, 75
4, 19961, Note_on_c, 1, 64, 0
4, 19968, Note_on_c, 1, 52, 75
4, 20013, Note_on_c, 1, 52, 0
4, 20016, Note_on_c, 1, 56, 75
4, 20061, Note_on_c, 1, 56, 0
4, 20064, Note_on_c, 1, 57, 75
4, 20109, Note_on_c, 1, 57, 0
4, 20112, Note_on_c, 1, 45, 75
4, 20157, Note_on_c, 1, 45, 0
4, 20160, Note_on_c, 1, 56, 75
4, 20205, Note_on_c, 1, 56, 0
4, 20208, Note_on_c, 1, 52, 75
4, 20253, Note_on_c, 1, 52, 0
4, 20256, Note_on_c, 1, 51, 75
4, 20301, Note_on_c, 1, 51, 0
4, 20304, Note_on_c, 1, 47, 75
4, 20349, Note_on_c, 1, 47, 0
4, 20352, Note_on_c, 1, 52, 75
4, 20397, Note_on_c, 1, 52, 0
4, 20400, Note_on_c, 1, 61, 75
4, 20445, Note_on_c, 1, 61, 0
4, 20448, Note_on_c, 1, 57, 75
4, 20493, Note_on_c, 1, 57, 0
4, 20496, Note_on_c, 1, 59, 75
4, 20541, Note_on_c, 1, 59, 0
4, 20544, Note_on_c, 1, 52, 75
4, 20589, Note_on_c, 1, 52, 0
4, 20592, Note_on_c, 1, 47, 75
4, 20637, Note_on_c, 1, 47, 0
4, 20640, Note_on_c, 1, 40, 75
4, 20685, Note_on_c, 1, 40, 0
4, 20784, Note_on_c, 1, 56, 75
4, 20829, Note_on_c, 1, 56, 0
4, 20832, Note_on_c, 1, 54, 75
4, 20877, Note_on_c, 1, 54, 0
4, 20880, Note_on_c, 1, 52, 75
4, 20925, Note_on_c, 1, 52, 0
4, 20976, Note_on_c, 1, 51, 75
4, 21021, Note_on_c, 1, 51, 0
4, 21024, Note_on_c, 1, 49, 75
4, 21069, Note_on_c, 1, 49, 0
4, 21072, Note_on_c, 1, 47, 75
4, 21117, Note_on_c, 1, 47, 0
4, 21120, Note_on_c, 1, 52, 75
4, 21165, Note_on_c, 1, 52, 0
4, 21168, Note_on_c, 1, 54, 75
4, 21213, Note_on_c, 1, 54, 0
4, 21216, Note_on_c, 1, 56, 75
4, 21261, Note_on_c, 1, 56, 0
4, 21360, Note_on_c, 1, 56, 75
4, 21405, Note_on_c, 1, 56, 0
4, 21408, Note_on_c, 1, 54, 75
4, 21453, Note_on_c, 1, 54, 0
4, 21456, Note_on_c, 1, 52, 75
4, 21501, Note_on_c, 1, 52, 0
4, 21552, Note_on_c, 1, 51, 75
4, 21597, Note_on_c, 1, 51, 0
4, 21600, Note_on_c, 1, 49, 75
4, 21645, Note_on_c, 1, 49, 0
4, 21648, Note_on_c, 1, 47, 75
4, 21693, Note_on_c, 1, 47, 0
4, 21696, Note_on_c, 1, 52, 75
4, 21741, Note_on_c, 1, 52, 0
4, 21744, Note_on_c, 1, 54, 75
4, 21789, Note_on_c, 1, 54, 0
4, 21792, Note_on_c, 1, 56, 75
4, 21837, Note_on_c, 1, 56, 0
4, 21936, Note_on_c, 1, 64, 75
4, 21936, Note_on_c, 1, 57, 75
4, 21981, Note_on_c, 1, 64, 0
4, 21981, Note_on_c, 1, 57, 0
4, 21984, Note_on_c, 1, 64, 75
4, 21984, Note_on_c, 1, 57, 75
4, 22029, Note_on_c, 1, 64, 0
4, 22029, Note_on_c, 1, 57, 0
4, 22128, Note_on_c, 1, 64, 75
4, 22128, Note_on_c, 1, 56, 75
4, 22173, Note_on_c, 1, 64, 0
4, 22173, Note_on_c, 1, 56, 0
4, 22176, Note_on_c, 1, 64, 75
4, 22176, Note_on_c, 1, 56, 75
4, 22221, Note_on_c, 1, 64, 0
4, 22221, Note_on_c, 1, 56, 0
4, 22320, Note_on_c, 1, 63, 75
4, 22320, Note_on_c, 1, 54, 75
4, 22365, Note_on_c, 1, 63, 0
4, 22365, Note_on_c, 1, 54, 0
4, 22368, Note_on_c, 1, 63, 75
4, 22368, Note_on_c, 1, 54, 75
4, 22413, Note_on_c, 1, 63, 0
4, 22413, Note_on_c, 1, 54, 0
4, 22416, Note_on_c, 1, 64, 75
4, 22416, Note_on_c, 1, 52, 75
4, 22461, Note_on_c, 1, 64, 0
4, 22461, Note_on_c, 1, 52, 0
4, 22464, Note_on_c, 1, 64, 75
4, 22509, Note_on_c, 1, 64, 0
4, 22512, Note_on_c, 1, 63, 75
4, 22557, Note_on_c, 1, 63, 0
4, 22800, Note_on_c, 1, 63, 75
4, 22823, Note_on_c, 1, 63, 0
4, 22824, Note_on_c, 1, 66, 75
4, 22847, Note_on_c, 1, 66, 0
4, 22848, Note_on_c, 1, 64, 75
4, 22871, Note_on_c, 1, 64, 0
4, 22872, Note_on_c, 1, 66, 75
4, 22895, Note_on_c, 1, 66, 0
4, 22896, Note_on_c, 1, 63, 75
4, 22919, Note_on_c, 1, 63, 0
4, 22920, Note_on_c, 1, 66, 75
4, 22943, Note_on_c, 1, 66, 0
4, 22944, Note_on_c, 1, 64, 75
4, 22967, Note_on_c, 1, 64, 0
4, 22968, Note_on_c, 1, 66, 75
4, 22991, Note_on_c, 1, 66, 0
4, 22992, Note_on_c, 1, 63, 75
4, 23015, Note_on_c, 1, 63, 0
4, 23016, Note_on_c, 1, 66, 75
4, 23039, Note_on_c, 1, 66, 0
4, 23040, Note_on_c, 1, 61, 75
4, 23085, Note_on_c, 1, 61, 0
4, 23088, Note_on_c, 1, 70, 75
4, 23133, Note_on_c, 1, 70, 0
4, 23136, Note_on_c, 1, 71, 75
4, 23181, Note_on_c, 1, 71, 0
4, 23376, Note_on_c, 1, 63, 70
4, 23399, Note_on_c, 1, 63, 0
4, 23400, Note_on_c, 1, 66, 70
4, 23423, Note_on_c, 1, 66, 0
4, 23424, Note_on_c, 1, 64, 70
4, 23447, Note_on_c, 1, 64, 0
4, 23448, Note_on_c, 1, 66, 70
4, 23471, Note_on_c, 1, 66, 0
4, 23472, Note_on_c, 1, 63, 70
4, 23495, Note_on_c, 1, 63, 0
4, 23496, Note_on_c, 1, 66, 70
4, 23519, Note_on_c, 1, 66, 0
4, 23520, Note_on_c, 1, 64, 70
4, 23543, Note_on_c, 1, 64, 0
4, 23544, Note_on_c, 1, 66, 70
4, 23567, Note_on_c, 1, 66, 0
4, 23568, Note_on_c, 1, 63, 70
4, 23591, Note_on_c, 1, 63, 0
4, 23592, Note_on_c, 1, 66, 70
4, 23615, Note_on_c, 1, 66, 0
4, 23616, Note_on_c, 1, 61, 70
4, 23661, Note_on_c, 1, 61, 0
4, 23664, Note_on_c, 1, 70, 70
4, 23709, Note_on_c, 1, 70, 0
4, 23712, Note_on_c, 1, 71, 71
4, 23757, Note_on_c, 1, 71, 0
4, 23760, Note_on_c, 1, 63, 71
4, 23805, Note_on_c, 1, 63, 0
4, 23808, Note_on_c, 1, 64, 72
4, 23853, Note_on_c, 1, 64, 0
4, 23856, Note_on_c, 1, 66, 73
4, 23901, Note_on_c, 1, 66, 0
4, 23904, Note_on_c, 1, 63, 73
4, 23949, Note_on_c, 1, 63, 0
4, 23952, Note_on_c, 1, 59, 74
4, 23997, Note_on_c, 1, 59, 0
4, 24000, Note_on_c, 1, 61, 75
4, 24045, Note_on_c, 1, 61, 0
4, 24048, Note_on_c, 1, 70, 75
4, 24093, Note_on_c, 1, 70, 0
4, 24096, Note_on_c, 1, 71, 76
4, 24141, Note_on_c, 1, 71, 0
4, 24144, Note_on_c, 1, 63, 77
4, 24189, Note_on_c, 1, 63, 0
4, 24192, Note_on_c, 1, 64, 78
4, 24237, Note_on_c, 1, 64, 0
4, 24240, Note_on_c, 1, 66, 79
4, 24285, Note_on_c, 1, 66, 0
4, 24288, Note_on_c, 1, 59, 80
4, 24333, Note_on_c, 1, 59, 0
4, 24432, Note_on_c, 1, 59, 70
4, 24432, Note_on_c, 1, 56, 70
4, 24479, Note_on_c, 1, 59, 0
4, 24479, Note_on_c, 1, 56, 0
4, 24480, Note_on_c, 1, 59, 70
4, 24480, Note_on_c, 1, 56, 70
4, 24527, Note_on_c, 1, 59, 0
4, 24527, Note_on_c, 1, 56, 0
4, 24624, Note_on_c, 1, 59, 70
4, 24624, Note_on_c, 1, 56, 70
4, 24671, Note_on_c, 1, 59, 0
4, 24671, Note_on_c, 1, 56, 0
4, 24672, Note_on_c, 1, 59, 70
4, 24672, Note_on_c, 1, 56, 70
4, 24719, Note_on_c, 1, 59, 0
4, 24719, Note_on_c, 1, 56, 0
4, 24816, Note_on_c, 1, 59, 70
4, 24816, Note_on_c, 1, 56, 70
4, 24863, Note_on_c, 1, 59, 0
4, 24863, Note_on_c, 1, 56, 0
4, 24864, Note_on_c, 1, 59, 70
4, 24864, Note_on_c, 1, 56, 70
4, 24911, Note_on_c, 1, 59, 0
4, 24911, Note_on_c, 1, 56, 0
4, 24912, Note_on_c, 1, 59, 70
4, 24912, Note_on_c, 1, 56, 70
4, 24959, Note_on_c, 1, 59, 0
4, 24959, Note_on_c, 1, 56, 0
4, 25008, Note_on_c, 1, 61, 70
4, 25008, Note_on_c, 1, 54, 70
4, 25055, Note_on_c, 1, 61, 0
4, 25055, Note_on_c, 1, 54, 0
4, 25056, Note_on_c, 1, 61, 70
4, 25056, Note_on_c, 1, 54, 70
4, 25103, Note_on_c, 1, 61, 0
4, 25103, Note_on_c, 1, 54, 0
4, 25104, Note_on_c, 1, 61, 70
4, 25104, Note_on_c, 1, 56, 70
4, 25151, Note_on_c, 1, 61, 0
4, 25151, Note_on_c, 1, 56, 0
4, 25200, Note_on_c, 1, 61, 70
4, 25200, Note_on_c, 1, 58, 70
4, 25247, Note_on_c, 1, 61, 0
4, 25247, Note_on_c, 1, 58, 0
4, 25248, Note_on_c, 1, 61, 70
4, 25248, Note_on_c, 1, 58, 70
4, 25295, Note_on_c, 1, 61, 0
4, 25295, Note_on_c, 1, 58, 0
4, 25296, Note_on_c, 1, 61, 70
4, 25296, Note_on_c, 1, 58, 70
4, 25343, Note_on_c, 1, 61, 0
4, 25343, Note_on_c, 1, 58, 0
4, 25392, Note_on_c, 1, 66, 70
4, 25392, Note_on_c, 1, 59, 70
4, 25439, Note_on_c, 1, 66, 0
4, 25439, Note_on_c, 1, 59, 0
4, 25440, Note_on_c, 1, 66, 70
4, 25440, Note_on_c, 1, 59, 70
4, 25487, Note_on_c, 1, 66, 0
4, 25487, Note_on_c, 1, 59, 0
4, 25488, Note_on_c, 1, 66, 70
4, 25488, Note_on_c, 1, 59, 70
4, 25535, Note_on_c, 1, 66, 0
4, 25535, Note_on_c, 1, 59, 0
4, 25536, Note_on_c, 1, 64, 70
4, 25625, Note_on_c, 1, 64, 0
4, 25920, Note_on_c, 1, 52, 80
4, 25920, Note_on_c, 1, 40, 80
4, 26009, Note_on_c, 1, 52, 0
4, 26009, Note_on_c, 1, 40, 0
4, 26256, Note_on_c, 1, 58, 80
4, 26301, Note_on_c, 1, 58, 0
4, 26304, Note_on_c, 1, 59, 80
4, 26349, Note_on_c, 1, 59, 0
4, 26352, Note_on_c, 1, 51, 80
4, 26397, Note_on_c, 1, 51, 0
4, 26400, Note_on_c, 1, 52, 80
4, 26445, Note_on_c, 1, 52, 0
4, 26448, Note_on_c, 1, 54, 80
4, 26493, Note_on_c, 1, 54, 0
4, 26496, Note_on_c, 1, 47, 80
4, 26541, Note_on_c, 1, 47, 0
4, 26544, Note_on_c, 1, 59, 80
4, 26589, Note_on_c, 1, 59, 0
4, 26640, Note_on_c, 1, 75, 70
4, 26640, Note_on_c, 1, 71, 70
4, 26685, Note_on_c, 1, 75, 0
4, 26685, Note_on_c, 1, 71, 0
4, 26688, Note_on_c, 1, 73, 70
4, 26688, Note_on_c, 1, 70, 70
4, 26735, Note_on_c, 1, 73, 0
4, 26735, Note_on_c, 1, 70, 0
4, 26736, Note_on_c, 1, 73, 70
4, 26736, Note_on_c, 1, 70, 70
4, 26783, Note_on_c, 1, 73, 0
4, 26783, Note_on_c, 1, 70, 0
4, 26784, Note_on_c, 1, 71, 70
4, 26784, Note_on_c, 1, 68, 70
4, 26831, Note_on_c, 1, 71, 0
4, 26831, Note_on_c, 1, 68, 0
4, 26832, Note_on_c, 1, 71, 70
4, 26832, Note_on_c, 1, 68, 70
4, 26879, Note_on_c, 1, 71, 0
4, 26879, Note_on_c, 1, 68, 0
4, 26880, Note_on_c, 1, 70, 70
4, 26880, Note_on_c, 1, 66, 70
4, 26927, Note_on_c, 1, 70, 0
4, 26927, Note_on_c, 1, 66, 0
4, 26928, Note_on_c, 1, 70, 70
4, 26928, Note_on_c, 1, 66, 70
4, 26975, Note_on_c, 1, 70, 0
4, 26975, Note_on_c, 1, 66, 0
4, 26976, Note_on_c, 1, 68, 70
4, 26976, Note_on_c, 1, 64, 70
4, 27023, Note_on_c, 1, 68, 0
4, 27023, Note_on_c, 1, 64, 0
4, 27024, Note_on_c, 1, 68, 70
4, 27024, Note_on_c, 1, 64, 70
4, 27071, Note_on_c, 1, 68, 0
4, 27071, Note_on_c, 1, 64, 0
4, 27072, Note_on_c, 1, 66, 70
4, 27072, Note_on_c, 1, 63, 70
4, 27161, Note_on_c, 1, 66, 0
4, 27161, Note_on_c, 1, 63, 0
4, 27216, Note_on_c, 1, 63, 75
4, 27261, Note_on_c, 1, 63, 0
4, 27264, Note_on_c, 1, 64, 75
4, 27309, Note_on_c, 1, 64, 0
4, 27312, Note_on_c, 1, 64, 75
4, 27357, Note_on_c, 1, 64, 0
4, 27360, Note_on_c, 1, 66, 75
4, 27405, Note_on_c, 1, 66, 0
4, 27408, Note_on_c, 1, 54, 75
4, 27453, Note_on_c, 1, 54, 0
4, 27456, Note_on_c, 1, 59, 75
4, 27501, Note_on_c, 1, 59, 0
4, 27504, Note_on_c, 1, 47, 75
4, 27549, Note_on_c, 1, 47, 0
4, 27552, Note_on_c, 1, 75, 70
4, 27552, Note_on_c, 1, 71, 70
4, 27599, Note_on_c, 1, 75, 0
4, 27599, Note_on_c, 1, 71, 0
4, 27600, Note_on_c, 1, 75, 70
4, 27600, Note_on_c, 1, 71, 70
4, 27647, Note_on_c, 1, 75, 0
4, 27647, Note_on_c, 1, 71, 0
4, 27648, Note_on_c, 1, 73, 70
4, 27648, Note_on_c, 1, 70, 70
4, 27695, Note_on_c, 1, 73, 0
4, 27695, Note_on_c, 1, 70, 0
4, 27696, Note_on_c, 1, 73, 70
4, 27696, Note_on_c, 1, 70, 70
4, 27743, Note_on_c, 1, 73, 0
4, 27743, Note_on_c, 1, 70, 0
4, 27744, Note_on_c, 1, 71, 70
4, 27744, Note_on_c, 1, 68, 70
4, 27791, Note_on_c, 1, 71, 0
4, 27791, Note_on_c, 1, 68, 0
4, 27792, Note_on_c, 1, 71, 70
4, 27792, Note_on_c, 1, 68, 70
4, 27839, Note_on_c, 1, 71, 0
4, 27839, Note_on_c, 1, 68, 0
4, 27840, Note_on_c, 1, 70, 70
4, 27840, Note_on_c, 1, 66, 70
4, 27887, Note_on_c, 1, 70, 0
4, 27887, Note_on_c, 1, 66, 0
4, 27888, Note_on_c, 1, 70, 70
4, 27888, Note_on_c, 1, 66, 70
4, 27935, Note_on_c, 1, 70, 0
4, 27935, Note_on_c, 1, 66, 0
4, 27936, Note_on_c, 1, 68, 70
4, 27936, Note_on_c, 1, 64, 70
4, 27983, Note_on_c, 1, 68, 0
4, 27983, Note_on_c, 1, 64, 0
4, 27984, Note_on_c, 1, 68, 70
4, 27984, Note_on_c, 1, 64, 70
4, 28031, Note_on_c, 1, 68, 0
4, 28031, Note_on_c, 1, 64, 0
4, 28032, Note_on_c, 1, 66, 70
4, 28032, Note_on_c, 1, 63, 70
4, 28121, Note_on_c, 1, 66, 0
4, 28121, Note_on_c, 1, 63, 0
4, 28176, Note_on_c, 1, 63, 75
4, 28221, Note_on_c, 1, 63, 0
4, 28224, Note_on_c, 1, 64, 75
4, 28269, Note_on_c, 1, 64, 0
4, 28272, Note_on_c, 1, 68, 75
4, 28317, Note_on_c, 1, 68, 0
4, 28320, Note_on_c, 1, 66, 75
4, 28365, Note_on_c, 1, 66, 0
4, 28368, Note_on_c, 1, 54, 75
4, 28413, Note_on_c, 1, 54, 0
4, 28416, Note_on_c, 1, 59, 75
4, 28461, Note_on_c, 1, 59, 0
4, 28464, Note_on_c, 1, 54, 75
4, 28509, Note_on_c, 1, 54, 0
4, 28512, Note_on_c, 1, 47, 75
4, 28557, Note_on_c, 1, 47, 0
4, 28608, Note_on_c, 1, 52, 75
4, 28653, Note_on_c, 1, 52, 0
4, 28656, Note_on_c, 1, 56, 75
4, 28701, Note_on_c, 1, 56, 0
4, 28704, Note_on_c, 1, 57, 75
4, 28749, Note_on_c, 1, 57, 0
4, 28752, Note_on_c, 1, 45, 75
4, 28797, Note_on_c, 1, 45, 0
4, 28800, Note_on_c, 1, 56, 75
4, 28845, Note_on_c, 1, 56, 0
4, 28848, Note_on_c, 1, 52, 75
4, 28893, Note_on_c, 1, 52, 0
4, 28896, Note_on_c, 1, 51, 75
4, 28941, Note_on_c, 1, 51, 0
4, 28944, Note_on_c, 1, 47, 75
4, 28989, Note_on_c, 1, 47, 0
4, 28992, Note_on_c, 1, 52, 75
4, 29081, Note_on_c, 1, 52, 0
4, 29136, Note_on_c, 1, 64, 75
4, 29181, Note_on_c, 1, 64, 0
4, 29184, Note_on_c, 1, 66, 75
4, 29229, Note_on_c, 1, 66, 0
4, 29232, Note_on_c, 1, 59, 75
4, 29277, Note_on_c, 1, 59, 0
4, 29280, Note_on_c, 1, 64, 75
4, 29369, Note_on_c, 1, 64, 0
4, 29376, Note_on_c, 1, 52, 75
4, 29421, Note_on_c, 1, 52, 0
4, 29424, Note_on_c, 1, 56, 75
4, 29469, Note_on_c, 1, 56, 0
4, 29472, Note_on_c, 1, 57, 75
4, 29517, Note_on_c, 1, 57, 0
4, 29520, Note_on_c, 1, 45, 75
4, 29565, Note_on_c, 1, 45, 0
4, 29568, Note_on_c, 1, 56, 75
4, 29613, Note_on_c, 1, 56, 0
4, 29616, Note_on_c, 1, 52, 75
4, 29661, Note_on_c, 1, 52, 0
4, 29664, Note_on_c, 1, 51, 75
4, 29709, Note_on_c, 1, 51, 0
4, 29712, Note_on_c, 1, 47, 75
4, 29757, Note_on_c, 1, 47, 0
4, 29760, Note_on_c, 1, 52, 75
4, 29805, Note_on_c, 1, 52, 0
4, 29808, Note_on_c, 1, 61, 75
4, 29853, Note_on_c, 1, 61, 0
4, 29856, Note_on_c, 1, 57, 75
4, 29901, Note_on_c, 1, 57, 0
4, 29904, Note_on_c, 1, 59, 75
4, 29949, Note_on_c, 1, 59, 0
4, 29952, Note_on_c, 1, 52, 75
4, 29997, Note_on_c, 1, 52, 0
4, 30000, Note_on_c, 1, 47, 75
4, 30045, Note_on_c, 1, 47, 0
4, 30048, Note_on_c, 1, 40, 75
4, 30093, Note_on_c, 1, 40, 0
4, 30192, Note_on_c, 1, 56, 75
4, 30237, Note_on_c, 1, 56, 0
4, 30240, Note_on_c, 1, 54, 75
4, 30285, Note_on_c, 1, 54, 0
4, 30288, Note_on_c, 1, 52, 75
4, 30333, Note_on_c, 1, 52, 0
4, 30384, Note_on_c, 1, 51, 75
4, 30429, Note_on_c, 1, 51, 0
4, 30432, Note_on_c, 1, 49, 75
4, 30477, Note_on_c, 1, 49, 0
4, 30480, Note_on_c, 1, 47, 75
4, 30525, Note_on_c, 1, 47, 0
4, 30528, Note_on_c, 1, 52, 75
4, 30573, Note_on_c, 1, 52, 0
4, 30576, Note_on_c, 1, 54, 75
4, 30621, Note_on_c, 1, 54, 0
4, 30624, Note_on_c, 1, 56, 75
4, 30669, Note_on_c, 1, 56, 0
4, 30768, Note_on_c, 1, 56, 75
4, 30813, Note_on_c, 1, 56, 0
4, 30816, Note_on_c, 1, 54, 75
4, 30861, Note_on_c, 1, 54, 0
4, 30864, Note_on_c, 1, 52, 75
4, 30909, Note_on_c, 1, 52, 0
4, 30960, Note_on_c, 1, 51, 75
4, 31005, Note_on_c, 1, 51, 0
4, 31008, Note_on_c, 1, 49, 75
4, 31053, Note_on_c, 1, 49, 0
4, 31056, Note_on_c, 1, 47, 75
4, 31101, Note_on_c, 1, 47, 0
4, 31104, Note_on_c, 1, 52, 75
4, 31149, Note_on_c, 1, 52, 0
4, 31152, Note_on_c, 1, 54, 75
4, 31197, Note_on_c, 1, 54, 0
4, 31200, Note_on_c, 1, 56, 75
4, 31245, Note_on_c, 1, 56, 0
4, 31344, Note_on_c, 1, 64, 75
4, 31344, Note_on_c, 1, 57, 75
4, 31389, Note_on_c, 1, 64, 0
4, 31389, Note_on_c, 1, 57, 0
4, 31392, Note_on_c, 1, 64, 75
4, 31392, Note_on_c, 1, 57, 75
4, 31437, Note_on_c, 1, 64, 0
4, 31437, Note_on_c, 1, 57, 0
4, 31536, Note_on_c, 1, 64, 75
4, 31536, Note_on_c, 1, 56, 75
4, 31581, Note_on_c, 1, 64, 0
4, 31581, Note_on_c, 1, 56, 0
4, 31584, Note_on_c, 1, 64, 75
4, 31584, Note_on_c, 1, 56, 75
4, 31629, Note_on_c, 1, 64, 0
4, 31629, Note_on_c, 1, 56, 0
4, 31728, Note_on_c, 1, 63, 75
4, 31728, Note_on_c, 1, 54, 75
4, 31773, Note_on_c, 1, 63, 0
4, 31773, Note_on_c, 1, 54, 0
4, 31776, Note_on_c, 1, 63, 75
4, 31776, Note_on_c, 1, 54, 75
4, 31821, Note_on_c, 1, 63, 0
4, 31821, Note_on_c, 1, 54, 0
4, 31824, Note_on_c, 1, 64, 75
4, 31824, Note_on_c, 1, 52, 75
4, 31869, Note_on_c, 1, 64, 0
4, 31869, Note_on_c, 1, 52, 0
4, 31872, Note_on_c, 1, 64, 75
4, 31917, Note_on_c, 1, 64, 0
4, 31920, Note_on_c, 1, 63, 75
4, 31965, Note_on_c, 1, 63, 0
4, 32208, Note_on_c, 1, 63, 75
4, 32231, Note_on_c, 1, 63, 0
4, 32232, Note_on_c, 1, 66, 75
4, 32255, Note_on_c, 1, 66, 0
4, 32256, Note_on_c, 1, 64, 75
4, 32279, Note_on_c, 1, 64, 0
4, 32280, Note_on_c, 1, 66, 75
4, 32303, Note_on_c, 1, 66, 0
4, 32304, Note_on_c, 1, 63, 75
4, 32327, Note_on_c, 1, 63, 0
4, 32328, Note_on_c, 1, 66, 75
4, 32351, Note_on_c, 1, 66, 0
4, 32352, Note_on_c, 1, 64, 75
4, 32375, Note_on_c, 1, 64, 0
4, 32376, Note_on_c, 1, 66, 75
4, 32399, Note_on_c, 1, 66, 0
4, 32400, Note_on_c, 1, 63, 75
4, 32423, Note_on_c, 1, 63, 0
4, 32424, Note_on_c, 1, 66, 75
4, 32447, Note_on_c, 1, 66, 0
4, 32448, Note_on_c, 1, 61, 75
4, 32493, Note_on_c, 1, 61, 0
4, 32496, Note_on_c, 1, 70, 75
4, 32541, Note_on_c, 1, 70, 0
4, 32544, Note_on_c, 1, 71, 75
4, 32589, Note_on_c, 1, 71, 0
4, 32784, Note_on_c, 1, 63, 70
4, 32807, Note_on_c, 1, 63, 0
4, 32808, Note_on_c, 1, 66, 70
4, 32831, Note_on_c, 1, 66, 0
4, 32832, Note_on_c, 1, 64, 70
4, 32855, Note_on_c, 1, 64, 0
4, 32856, Note_on_c, 1, 66, 70
4, 32879, Note_on_c, 1, 66, 0
4, 32880, Note_on_c, 1, 63, 70
4, 32903, Note_on_c, 1, 63, 0
4, 32904, Note_on_c, 1, 66, 70
4, 32927, Note_on_c, 1, 66, 0
4, 32928, Note_on_c, 1, 64, 70
4, 32951, Note_on_c, 1, 64, 0
4, 32952, Note_on_c, 1, 66, 70
4, 32975, Note_on_c, 1, 66, 0
4, 32976, Note_on_c, 1, 63, 70
4, 32999, Note_on_c, 1, 63, 0
4, 33000, Note_on_c, 1, 66, 70
4, 33023, Note_on_c, 1, 66, 0
4, 33024, Note_on_c, 1, 61, 70
4, 33069, Note_on_c, 1, 61, 0
4, 33072, Note_on_c, 1, 70, 70
4, 33117, Note_on_c, 1, 70, 0
4, 33120, Note_on_c, 1, 71, 71
4, 33165, Note_on_c, 1, 71, 0
4, 33168, Note_on_c, 1, 63, 71
4, 33213, Note_on_c, 1, 63, 0
4, 33216, Note_on_c, 1, 64, 72
4, 33261, Note_on_c, 1, 64, 0
4, 33264, Note_on_c, 1, 66, 73
4, 33309, Note_on_c, 1, 66, 0
4, 33312, Note_on_c, 1, 63, 73
4, 33357, Note_on_c, 1, 63, 0
4, 33360, Note_on_c, 1, 59, 74
4, 33405, Note_on_c, 1, 59, 0
4, 33408, Note_on_c, 1, 61, 75
4, 33453, Note_on_c, 1, 61, 0
4, 33456, Note_on_c, 1, 70, 75
4, 33501, Note_on_c, 1, 70, 0
4, 33504, Note_on_c, 1, 71, 76
4, 33549, Note_on_c, 1, 71, 0
4, 33552, Note_on_c, 1, 63, 77
4, 33597, Note_on_c, 1, 63, 0
4, 33600, Note_on_c, 1, 64, 78
4, 33645, Note_on_c, 1, 64, 0
4, 33648, Note_on_c, 1, 66, 79
4, 33693, Note_on_c, 1, 66, 0
4, 33696, Note_on_c, 1, 59, 80
4, 33741, Note_on_c, 1, 59, 0
4, 33840, Note_on_c, 1, 59, 70
4, 33840, Note_on_c, 1, 56, 70
4, 33887, Note_on_c, 1, 59, 0
4, 33887, Note_on_c, 1, 56, 0
4, 33888, Note_on_c, 1, 59, 70
4, 33888, Note_on_c, 1, 56, 70
4, 33935, Note_on_c, 1, 59, 0
4, 33935, Note_on_c, 1, 56, 0
4, 34032, Note_on_c, 1, 59, 70
4, 34032, Note_on_c, 1, 56, 70
4, 34079, Note_on_c, 1, 59, 0
4, 34079, Note_on_c, 1, 56, 0
4, 34080, Note_on_c, 1, 59, 70
4, 34080, Note_on_c, 1, 56, 70
4, 34127, Note_on_c, 1, 59, 0
4, 34127, Note_on_c, 1, 56, 0
4, 34224, Note_on_c, 1, 59, 70
4, 34224, Note_on_c, 1, 56, 70
4, 34271, Note_on_c, 1, 59, 0
4, 34271, Note_on_c, 1, 56, 0
4, 34272, Note_on_c, 1, 59, 70
4, 34272, Note_on_c, 1, 56, 70
4, 34319, Note_on_c, 1, 59, 0
4, 34319, Note_on_c, 1, 56, 0
4, 34320, Note_on_c, 1, 59, 70
4, 34320, Note_on_c, 1, 56, 70
4, 34367, Note_on_c, 1, 59, 0
4, 34367, Note_on_c, 1, 56, 0
4, 34416, Note_on_c, 1, 61, 70
4, 34416, Note_on_c, 1, 54, 70
4, 34463, Note_on_c, 1, 61, 0
4, 34463, Note_on_c, 1, 54, 0
4, 34464, Note_on_c, 1, 61, 70
4, 34464, Note_on_c, 1, 54, 70
4, 34511, Note_on_c, 1, 61, 0
4, 34511, Note_on_c, 1, 54, 0
4, 34512, Note_on_c, 1, 61, 70
4, 34512, Note_on_c, 1, 56, 70
4, 34559, Note_on_c, 1, 61, 0
4, 34559, Note_on_c, 1, 56, 0
4, 34608, Note_on_c, 1, 61, 70
4, 34608, Note_on_c, 1, 58, 70
4, 34655, Note_on_c, 1, 61, 0
4, 34655, Note_on_c, 1, 58, 0
4, 34656, Note_on_c, 1, 61, 70
4, 34656, Note_on_c, 1, 58, 70
4, 34703, Note_on_c, 1, 61, 0
4, 34703, Note_on_c, 1, 58, 0
4, 34704, Note_on_c, 1, 61, 70
4, 34704, Note_on_c, 1, 58, 70
4, 34751, Note_on_c, 1, 61, 0
4, 34751, Note_on_c, 1, 58, 0
4, 34800, Note_on_c, 1, 66, 70
4, 34800, Note_on_c, 1, 59, 70
4, 34847, Note_on_c, 1, 66, 0
4, 34847, Note_on_c, 1, 59, 0
4, 34848, Note_on_c, 1, 66, 70
4, 34848, Note_on_c, 1, 59, 70
4, 34895, Note_on_c, 1, 66, 0
4, 34895, Note_on_c, 1, 59, 0
4, 34896, Note_on_c, 1, 66, 70
4, 34896, Note_on_c, 1, 59, 70
4, 34943, Note_on_c, 1, 66, 0
4, 34943, Note_on_c, 1, 59, 0
4, 34944, Note_on_c, 1, 64, 70
4, 35033, Note_on_c, 1, 64, 0
4, 35328, Note_on_c, 1, 52, 80
4, 35328, Note_on_c, 1, 40, 80
4, 35417, Note_on_c, 1, 52, 0
4, 35417, Note_on_c, 1, 40, 0
4, 35664, Note_on_c, 1, 58, 80
4, 35709, Note_on_c, 1, 58, 0
4, 35712, Note_on_c, 1, 59, 80
4, 35757, Note_on_c, 1, 59, 0
4, 35760, Note_on_c, 1, 51, 80
4, 35805, Note_on_c, 1, 51, 0
4, 35808, Note_on_c, 1, 52, 80
4, 35853, Note_on_c, 1, 52, 0
4, 35856, Note_on_c, 1, 54, 80
4, 35901, Note_on_c, 1, 54, 0
4, 35904, Note_on_c, 1, 47, 80
4, 35949, Note_on_c, 1, 47, 0
4, 35952, Note_on_c, 1, 59, 80
4, 35997, Note_on_c, 1, 59, 0
4, 36048, Note_on_c, 1, 75, 70
4, 36048, Note_on_c, 1, 71, 70
4, 36093, Note_on_c, 1, 75, 0
4, 36093, Note_on_c, 1, 71, 0
4, 36096, Note_on_c, 1, 73, 70
4, 36096, Note_on_c, 1, 70, 70
4, 36143, Note_on_c, 1, 73, 0
4, 36143, Note_on_c, 1, 70, 0
4, 36144, Note_on_c, 1, 73, 70
4, 36144, Note_on_c, 1, 70, 70
4, 36191, Note_on_c, 1, 73, 0
4, 36191, Note_on_c, 1, 70, 0
4, 36192, Note_on_c, 1, 71, 70
4, 36192, Note_on_c, 1, 68, 70
4, 36239, Note_on_c, 1, 71, 0
4, 36239, Note_on_c, 1, 68, 0
4, 36240, Note_on_c, 1, 71, 70
4, 36240, Note_on_c, 1, 68, 70
4, 36287, Note_on_c, 1, 71, 0
4, 36287, Note_on_c, 1, 68, 0
4, 36288, Note_on_c, 1, 70, 70
4, 36288, Note_on_c, 1, 66, 70
4, 36335, Note_on_c, 1, 70, 0
4, 36335, Note_on_c, 1, 66, 0
4, 36336, Note_on_c, 1, 70, 70
4, 36336, Note_on_c, 1, 66, 70
4, 36383, Note_on_c, 1, 70, 0
4, 36383, Note_on_c, 1, 66, 0
4, 36384, Note_on_c, 1, 68, 70
4, 36384, Note_on_c, 1, 64, 70
4, 36431, Note_on_c, 1, 68, 0
4, 36431, Note_on_c, 1, 64, 0
4, 36432, Note_on_c, 1, 68, 70
4, 36432, Note_on_c, 1, 64, 70
4, 36479, Note_on_c, 1, 68, 0
4, 36479, Note_on_c, 1, 64, 0
4, 36480, Note_on_c, 1, 66, 70
4, 36480, Note_on_c, 1, 63, 70
4, 36569, Note_on_c, 1, 66, 0
4, 36569, Note_on_c, 1, 63, 0
4, 36624, Note_on_c, 1, 63, 75
4, 36669, Note_on_c, 1, 63, 0
4, 36672, Note_on_c, 1, 64, 75
4, 36717, Note_on_c, 1, 64, 0
4, 36720, Note_on_c, 1, 64, 75
4, 36765, Note_on_c, 1, 64, 0
4, 36768, Note_on_c, 1, 66, 75
4, 36813, Note_on_c, 1, 66, 0
4, 36816, Note_on_c, 1, 54, 75
4, 36861, Note_on_c, 1, 54, 0
4, 36864, Note_on_c, 1, 59, 75
4, 36909, Note_on_c, 1, 59, 0
4, 36912, Note_on_c, 1, 47, 75
4, 36957, Note_on_c, 1, 47, 0
4, 36960, Note_on_c, 1, 75, 70
4, 36960, Note_on_c, 1, 71, 70
4, 37007, Note_on_c, 1, 75, 0
4, 37007, Note_on_c, 1, 71, 0
4, 37008, Note_on_c, 1, 75, 70
4, 37008, Note_on_c, 1, 71, 70
4, 37055, Note_on_c, 1, 75, 0
4, 37055, Note_on_c, 1, 71, 0
4, 37056, Note_on_c, 1, 73, 70
4, 37056, Note_on_c, 1, 70, 70
4, 37103, Note_on_c, 1, 73, 0
4, 37103, Note_on_c, 1, 70, 0
4, 37104, Note_on_c, 1, 73, 70
4, 37104, Note_on_c, 1, 70, 70
4, 37151, Note_on_c, 1, 73, 0
4, 37151, Note_on_c, 1, 70, 0
4, 37152, Note_on_c, 1, 71, 70
4, 37152, Note_on_c, 1, 68, 70
4, 37199, Note_on_c, 1, 71, 0
4, 37199, Note_on_c, 1, 68, 0
4, 37200, Note_on_c, 1, 71, 70
4, 37200, Note_on_c, 1, 68, 70
4, 37247, Note_on_c, 1, 71, 0
4, 37247, Note_on_c, 1, 68, 0
4, 37248, Note_on_c, 1, 70, 70
4, 37248, Note_on_c, 1, 66, 70
4, 37295, Note_on_c, 1, 70, 0
4, 37295, Note_on_c, 1, 66, 0
4, 37296, Note_on_c, 1, 70, 70
4, 37296, Note_on_c, 1, 66, 70
4, 37343, Note_on_c, 1, 70, 0
4, 37343, Note_on_c, 1, 66, 0
4, 37344, Note_on_c, 1, 68, 70
4, 37344, Note_on_c, 1, 64, 70
4, 37391, Note_on_c, 1, 68, 0
4, 37391, Note_on_c, 1, 64, 0
4, 37392, Note_on_c, 1, 68, 70
4, 37392, Note_on_c, 1, 64, 70
4, 37439, Note_on_c, 1, 68, 0
4, 37439, Note_on_c, 1, 64, 0
4, 37440, Note_on_c, 1, 66, 70
4, 37440, Note_on_c, 1, 63, 70
4, 37529, Note_on_c, 1, 66, 0
4, 37529, Note_on_c, 1, 63, 0
4, 37584, Note_on_c, 1, 63, 75
4, 37629, Note_on_c, 1, 63, 0
4, 37632, Note_on_c, 1, 64, 75
4, 37677, Note_on_c, 1, 64, 0
4, 37680, Note_on_c, 1, 68, 75
4, 37725, Note_on_c, 1, 68, 0
4, 37728, Note_on_c, 1, 66, 75
4, 37773, Note_on_c, 1, 66, 0
4, 37776, Note_on_c, 1, 54, 75
4, 37821, Note_on_c, 1, 54, 0
4, 37824, Note_on_c, 1, 59, 75
4, 37869, Note_on_c, 1, 59, 0
4, 37872, Note_on_c, 1, 54, 75
4, 37917, Note_on_c, 1, 54, 0
4, 37920, Note_on_c, 1, 47, 75
4, 37965, Note_on_c, 1, 47, 0
4, 38016, Note_on_c, 1, 59, 75
4, 38061, Note_on_c, 1, 59, 0
4, 38064, Note_on_c, 1, 63, 75
4, 38109, Note_on_c, 1, 63, 0
4, 38112, Note_on_c, 1, 64, 75
4, 38157, Note_on_c, 1, 64, 0
4, 38160, Note_on_c, 1, 52, 75
4, 38205, Note_on_c, 1, 52, 0
4, 38208, Note_on_c, 1, 63, 75
4, 38253, Note_on_c, 1, 63, 0
4, 38256, Note_on_c, 1, 59, 75
4, 38301, Note_on_c, 1, 59, 0
4, 38304, Note_on_c, 1, 58, 75
4, 38349, Note_on_c, 1, 58, 0
4, 38352, Note_on_c, 1, 54, 75
4, 38397, Note_on_c, 1, 54, 0
4, 38400, Note_on_c, 1, 59, 75
4, 38489, Note_on_c, 1, 59, 0
4, 38544, Note_on_c, 1, 71, 75
4, 38589, Note_on_c, 1, 71, 0
4, 38592, Note_on_c, 1, 73, 75
4, 38637, Note_on_c, 1, 73, 0
4, 38640, Note_on_c, 1, 66, 75
4, 38685, Note_on_c, 1, 66, 0
4, 38688, Note_on_c, 1, 71, 75
4, 38733, Note_on_c, 1, 71, 0
4, 38784, Note_on_c, 1, 59, 75
4, 38829, Note_on_c, 1, 59, 0
4, 38832, Note_on_c, 1, 63, 75
4, 38877, Note_on_c, 1, 63, 0
4, 38880, Note_on_c, 1, 64, 75
4, 38925, Note_on_c, 1, 64, 0
4, 38928, Note_on_c, 1, 52, 75
4, 38973, Note_on_c, 1, 52, 0
4, 38976, Note_on_c, 1, 63, 75
4, 39021, Note_on_c, 1, 63, 0
4, 39024, Note_on_c, 1, 59, 75
4, 39069, Note_on_c, 1, 59, 0
4, 39072, Note_on_c, 1, 58, 75
4, 39117, Note_on_c, 1, 58, 0
4, 39120, Note_on_c, 1, 54, 75
4, 39165, Note_on_c, 1, 54, 0
4, 39168, Note_on_c, 1, 59, 75
4, 39213, Note_on_c, 1, 59, 0
4, 39216, Note_on_c, 1, 68, 75
4, 39261, Note_on_c, 1, 68, 0
4, 39264, Note_on_c, 1, 64, 75
4, 39309, Note_on_c, 1, 64, 0
4, 39312, Note_on_c, 1, 66, 75
4, 39357, Note_on_c, 1, 66, 0
4, 39360, Note_on_c, 1, 59, 75
4, 39405, Note_on_c, 1, 59, 0
4, 39408, Note_on_c, 1, 54, 75
4, 39453, Note_on_c, 1, 54, 0
4, 39456, Note_on_c, 1, 47, 75
4, 39501, Note_on_c, 1, 47, 0
4, 39792, Note_on_c, 1, 61, 70
4, 39792, Note_on_c, 1, 59, 70
4, 39839, Note_on_c, 1, 61, 0
4, 39839, Note_on_c, 1, 59, 0
4, 39840, Note_on_c, 1, 61, 70
4, 39840, Note_on_c, 1, 59, 70
4, 39887, Note_on_c, 1, 61, 0
4, 39887, Note_on_c, 1, 59, 0
4, 39984, Note_on_c, 1, 61, 70
4, 39984, Note_on_c, 1, 57, 70
4, 40031, Note_on_c, 1, 61, 0
4, 40031, Note_on_c, 1, 57, 0
4, 40032, Note_on_c, 1, 61, 70
4, 40032, Note_on_c, 1, 57, 70
4, 40079, Note_on_c, 1, 61, 0
4, 40079, Note_on_c, 1, 57, 0
4, 40176, Note_on_c, 1, 61, 70
4, 40176, Note_on_c, 1, 53, 70
4, 40223, Note_on_c, 1, 61, 0
4, 40223, Note_on_c, 1, 53, 0
4, 40224, Note_on_c, 1, 61, 70
4, 40224, Note_on_c, 1, 53, 70
4, 40271, Note_on_c, 1, 61, 0
4, 40271, Note_on_c, 1, 53, 0
4, 40272, Note_on_c, 1, 61, 70
4, 40272, Note_on_c, 1, 53, 70
4, 40319, Note_on_c, 1, 61, 0
4, 40319, Note_on_c, 1, 53, 0
4, 40320, Note_on_c, 1, 61, 70
4, 40320, Note_on_c, 1, 54, 70
4, 40409, Note_on_c, 1, 61, 0
4, 40409, Note_on_c, 1, 54, 0
4, 40464, Note_on_c, 1, 57, 75
4, 40487, Note_on_c, 1, 57, 0
4, 40488, Note_on_c, 1, 61, 75
4, 40511, Note_on_c, 1, 61, 0
4, 40512, Note_on_c, 1, 59, 75
4, 40535, Note_on_c, 1, 59, 0
4, 40536, Note_on_c, 1, 61, 75
4, 40559, Note_on_c, 1, 61, 0
4, 40560, Note_on_c, 1, 57, 75
4, 40583, Note_on_c, 1, 57, 0
4, 40584, Note_on_c, 1, 61, 75
4, 40607, Note_on_c, 1, 61, 0
4, 40608, Note_on_c, 1, 59, 75
4, 40631, Note_on_c, 1, 59, 0
4, 40632, Note_on_c, 1, 61, 75
4, 40655, Note_on_c, 1, 61, 0
4, 40656, Note_on_c, 1, 57, 75
4, 40679, Note_on_c, 1, 57, 0
4, 40680, Note_on_c, 1, 61, 75
4, 40703, Note_on_c, 1, 61, 0
4, 40704, Note_on_c, 1, 56, 75
4, 40749, Note_on_c, 1, 56, 0
4, 40752, Note_on_c, 1, 65, 75
4, 40797, Note_on_c, 1, 65, 0
4, 40800, Note_on_c, 1, 66, 75
4, 40845, Note_on_c, 1, 66, 0
4, 40848, Note_on_c, 1, 69, 70
4, 40871, Note_on_c, 1, 69, 0
4, 40872, Note_on_c, 1, 73, 70
4, 40895, Note_on_c, 1, 73, 0
4, 40896, Note_on_c, 1, 71, 70
4, 40919, Note_on_c, 1, 71, 0
4, 40920, Note_on_c, 1, 73, 70
4, 40943, Note_on_c, 1, 73, 0
4, 40944, Note_on_c, 1, 69, 70
4, 40967, Note_on_c, 1, 69, 0
4, 40968, Note_on_c, 1, 73, 70
4, 40991, Note_on_c, 1, 73, 0
4, 40992, Note_on_c, 1, 71, 70
4, 41015, Note_on_c, 1, 71, 0
4, 41016, Note_on_c, 1, 73, 70
4, 41039, Note_on_c, 1, 73, 0
4, 41040, Note_on_c, 1, 69, 70
4, 41063, Note_on_c, 1, 69, 0
4, 41064, Note_on_c, 1, 73, 70
4, 41087, Note_on_c, 1, 73, 0
4, 41088, Note_on_c, 1, 68, 70
4, 41133, Note_on_c, 1, 68, 0
4, 41136, Note_on_c, 1, 65, 70
4, 41181, Note_on_c, 1, 65, 0
4, 41184, Note_on_c, 1, 66, 70
4, 41229, Note_on_c, 1, 66, 0
4, 41232, Note_on_c, 1, 69, 70
4, 41255, Note_on_c, 1, 69, 0
4, 41256, Note_on_c, 1, 68, 70
4, 41279, Note_on_c, 1, 68, 0
4, 41280, Note_on_c, 1, 66, 71
4, 41413, Note_on_c, 1, 66, 0
4, 41424, Note_on_c, 1, 67, 74
4, 41469, Note_on_c, 1, 67, 0
4, 41472, Note_on_c, 1, 68, 75
4, 41517, Note_on_c, 1, 68, 0
4, 41520, Note_on_c, 1, 63, 75
4, 41565, Note_on_c, 1, 63, 0
4, 41568, Note_on_c, 1, 56, 75
4, 41613, Note_on_c, 1, 56, 0
4, 41664, Note_on_c, 1, 61, 75
4, 41709, Note_on_c, 1, 61, 0
4, 41712, Note_on_c, 1, 64, 75
4, 41757, Note_on_c, 1, 64, 0
4, 41760, Note_on_c, 1, 66, 75
4, 41805, Note_on_c, 1, 66, 0
4, 41808, Note_on_c, 1, 54, 75
4, 41853, Note_on_c, 1, 54, 0
4, 41856, Note_on_c, 1, 64, 75
4, 41901, Note_on_c, 1, 64, 0
4, 41904, Note_on_c, 1, 61, 75
4, 41949, Note_on_c, 1, 61, 0
4, 41952, Note_on_c, 1, 63, 75
4, 41997, Note_on_c, 1, 63, 0
4, 42000, Note_on_c, 1, 56, 75
4, 42045, Note_on_c, 1, 56, 0
4, 42048, Note_on_c, 1, 61, 75
4, 42093, Note_on_c, 1, 61, 0
4, 42096, Note_on_c, 1, 64, 75
4, 42141, Note_on_c, 1, 64, 0
4, 42144, Note_on_c, 1, 66, 75
4, 42189, Note_on_c, 1, 66, 0
4, 42192, Note_on_c, 1, 54, 75
4, 42237, Note_on_c, 1, 54, 0
4, 42240, Note_on_c, 1, 64, 75
4, 42285, Note_on_c, 1, 64, 0
4, 42288, Note_on_c, 1, 61, 75
4, 42333, Note_on_c, 1, 61, 0
4, 42336, Note_on_c, 1, 63, 75
4, 42381, Note_on_c, 1, 63, 0
4, 42384, Note_on_c, 1, 56, 75
4, 42429, Note_on_c, 1, 56, 0
4, 42480, Note_on_c, 1, 61, 75
4, 42503, Note_on_c, 1, 61, 0
4, 42504, Note_on_c, 1, 64, 75
4, 42527, Note_on_c, 1, 64, 0
4, 42528, Note_on_c, 1, 63, 75
4, 42551, Note_on_c, 1, 63, 0
4, 42552, Note_on_c, 1, 66, 75
4, 42575, Note_on_c, 1, 66, 0
4, 42576, Note_on_c, 1, 64, 75
4, 42599, Note_on_c, 1, 64, 0
4, 42600, Note_on_c, 1, 68, 75
4, 42623, Note_on_c, 1, 68, 0
4, 42624, Note_on_c, 1, 66, 75
4, 42713, Note_on_c, 1, 66, 0
4, 42720, Note_on_c, 1, 68, 75
4, 42809, Note_on_c, 1, 68, 0
4, 42816, Note_on_c, 1, 69, 75
4, 42861, Note_on_c, 1, 69, 0
4, 42864, Note_on_c, 1, 61, 75
4, 42887, Note_on_c, 1, 61, 0
4, 42888, Note_on_c, 1, 64, 75
4, 42911, Note_on_c, 1, 64, 0
4, 42912, Note_on_c, 1, 63, 75
4, 42935, Note_on_c, 1, 63, 0
4, 42936, Note_on_c, 1, 66, 75
4, 42959, Note_on_c, 1, 66, 0
4, 42960, Note_on_c, 1, 64, 75
4, 42983, Note_on_c, 1, 64, 0
4, 42984, Note_on_c, 1, 68, 75
4, 43007, Note_on_c, 1, 68, 0
4, 43008, Note_on_c, 1, 66, 75
4, 43097, Note_on_c, 1, 66, 0
4, 43104, Note_on_c, 1, 68, 75
4, 43193, Note_on_c, 1, 68, 0
4, 43200, Note_on_c, 1, 61, 75
4, 43245, Note_on_c, 1, 61, 0
4, 43248, Note_on_c, 1, 56, 75
4, 43293, Note_on_c, 1, 56, 0
4, 43296, Note_on_c, 1, 49, 75
4, 43385, Note_on_c, 1, 49, 0
4, 43440, Note_on_c, 1, 63, 70
4, 43440, Note_on_c, 1, 61, 70
4, 43487, Note_on_c, 1, 63, 0
4, 43487, Note_on_c, 1, 61, 0
4, 43488, Note_on_c, 1, 63, 70
4, 43488, Note_on_c, 1, 61, 70
4, 43535, Note_on_c, 1, 63, 0
4, 43535, Note_on_c, 1, 61, 0
4, 43632, Note_on_c, 1, 63, 70
4, 43632, Note_on_c, 1, 59, 70
4, 43679, Note_on_c, 1, 63, 0
4, 43679, Note_on_c, 1, 59, 0
4, 43680, Note_on_c, 1, 63, 70
4, 43680, Note_on_c, 1, 59, 70
4, 43727, Note_on_c, 1, 63, 0
4, 43727, Note_on_c, 1, 59, 0
4, 43824, Note_on_c, 1, 61, 70
4, 43824, Note_on_c, 1, 59, 70
4, 43871, Note_on_c, 1, 61, 0
4, 43871, Note_on_c, 1, 59, 0
4, 43872, Note_on_c, 1, 61, 70
4, 43872, Note_on_c, 1, 59, 70
4, 43919, Note_on_c, 1, 61, 0
4, 43919, Note_on_c, 1, 59, 0
4, 44016, Note_on_c, 1, 61, 70
4, 44016, Note_on_c, 1, 57, 70
4, 44063, Note_on_c, 1, 61, 0
4, 44063, Note_on_c, 1, 57, 0
4, 44064, Note_on_c, 1, 61, 70
4, 44064, Note_on_c, 1, 57, 70
4, 44111, Note_on_c, 1, 61, 0
4, 44111, Note_on_c, 1, 57, 0
4, 44208, Note_on_c, 1, 59, 70
4, 44208, Note_on_c, 1, 57, 70
4, 44255, Note_on_c, 1, 59, 0
4, 44255, Note_on_c, 1, 57, 0
4, 44256, Note_on_c, 1, 59, 70
4, 44256, Note_on_c, 1, 57, 70
4, 44303, Note_on_c, 1, 59, 0
4, 44303, Note_on_c, 1, 57, 0
4, 44400, Note_on_c, 1, 59, 70
4, 44400, Note_on_c, 1, 56, 70
4, 44447, Note_on_c, 1, 59, 0
4, 44447, Note_on_c, 1, 56, 0
4, 44448, Note_on_c, 1, 59, 70
4, 44448, Note_on_c, 1, 56, 70
4, 44495, Note_on_c, 1, 59, 0
4, 44495, Note_on_c, 1, 56, 0
4, 44592, Note_on_c, 1, 59, 75
4, 44592, Note_on_c, 1, 51, 75
4, 44639, Note_on_c, 1, 59, 0
4, 44639, Note_on_c, 1, 51, 0
4, 44640, Note_on_c, 1, 59, 75
4, 44640, Note_on_c, 1, 51, 75
4, 44687, Note_on_c, 1, 59, 0
4, 44687, Note_on_c, 1, 51, 0
4, 44688, Note_on_c, 1, 59, 75
4, 44688, Note_on_c, 1, 52, 75
4, 44735, Note_on_c, 1, 59, 0
4, 44735, Note_on_c, 1, 52, 0
4, 44736, Note_on_c, 1, 59, 75
4, 44781, Note_on_c, 1, 59, 0
4, 44784, Note_on_c, 1, 47, 75
4, 44829, Note_on_c, 1, 47, 0
4, 44928, Note_on_c, 1, 52, 75
4, 44973, Note_on_c, 1, 52, 0
4, 44976, Note_on_c, 1, 56, 75
4, 45021, Note_on_c, 1, 56, 0
4, 45024, Note_on_c, 1, 57, 75
4, 45069, Note_on_c, 1, 57, 0
4, 45072, Note_on_c, 1, 45, 75
4, 45117, Note_on_c, 1, 45, 0
4, 45120, Note_on_c, 1, 56, 75
4, 45165, Note_on_c, 1, 56, 0
4, 45168, Note_on_c, 1, 52, 75
4, 45213, Note_on_c, 1, 52, 0
4, 45216, Note_on_c, 1, 51, 75
4, 45261, Note_on_c, 1, 51, 0
4, 45264, Note_on_c, 1, 47, 75
4, 45309, Note_on_c, 1, 47, 0
4, 45312, Note_on_c, 1, 52, 75
4, 45401, Note_on_c, 1, 52, 0
4, 45456, Note_on_c, 1, 64, 75
4, 45501, Note_on_c, 1, 64, 0
4, 45504, Note_on_c, 1, 66, 75
4, 45549, Note_on_c, 1, 66, 0
4, 45552, Note_on_c, 1, 59, 75
4, 45597, Note_on_c, 1, 59, 0
4, 45600, Note_on_c, 1, 64, 75
4, 45689, Note_on_c, 1, 64, 0
4, 45696, Note_on_c, 1, 52, 75
4, 45741, Note_on_c, 1, 52, 0
4, 45744, Note_on_c, 1, 55, 75
4, 45789, Note_on_c, 1, 55, 0
4, 45792, Note_on_c, 1, 57, 75
4, 45837, Note_on_c, 1, 57, 0
4, 45840, Note_on_c, 1, 45, 75
4, 45885, Note_on_c, 1, 45, 0
4, 45888, Note_on_c, 1, 55, 75
4, 45933, Note_on_c, 1, 55, 0
4, 45936, Note_on_c, 1, 52, 75
4, 45981, Note_on_c, 1, 52, 0
4, 45984, Note_on_c, 1, 51, 75
4, 46029, Note_on_c, 1, 51, 0
4, 46032, Note_on_c, 1, 47, 75
4, 46077, Note_on_c, 1, 47, 0
4, 46080, Note_on_c, 1, 52, 75
4, 46125, Note_on_c, 1, 52, 0
4, 46128, Note_on_c, 1, 55, 75
4, 46173, Note_on_c, 1, 55, 0
4, 46176, Note_on_c, 1, 57, 75
4, 46221, Note_on_c, 1, 57, 0
4, 46224, Note_on_c, 1, 66, 75
4, 46269, Note_on_c, 1, 66, 0
4, 46272, Note_on_c, 1, 55, 75
4, 46317, Note_on_c, 1, 55, 0
4, 46320, Note_on_c, 1, 64, 75
4, 46365, Note_on_c, 1, 64, 0
4, 46368, Note_on_c, 1, 54, 75
4, 46413, Note_on_c, 1, 54, 0
4, 46416, Note_on_c, 1, 63, 75
4, 46461, Note_on_c, 1, 63, 0
4, 46464, Note_on_c, 1, 52, 75
4, 46509, Note_on_c, 1, 52, 0
4, 46512, Note_on_c, 1, 55, 75
4, 46557, Note_on_c, 1, 55, 0
4, 46560, Note_on_c, 1, 57, 75
4, 46605, Note_on_c, 1, 57, 0
4, 46608, Note_on_c, 1, 66, 75
4, 46653, Note_on_c, 1, 66, 0
4, 46656, Note_on_c, 1, 55, 75
4, 46701, Note_on_c, 1, 55, 0
4, 46704, Note_on_c, 1, 64, 75
4, 46749, Note_on_c, 1, 64, 0
4, 46752, Note_on_c, 1, 54, 76
4, 46797, Note_on_c, 1, 54, 0
4, 46800, Note_on_c, 1, 63, 76
4, 46845, Note_on_c, 1, 63, 0
4, 46848, Note_on_c, 1, 52, 77
4, 46937, Note_on_c, 1, 52, 0
4, 46992, Note_on_c, 1, 48, 79
4, 46992, Note_on_c, 1, 36, 79
4, 47037, Note_on_c, 1, 48, 0
4, 47037, Note_on_c, 1, 36, 0
4, 47040, Note_on_c, 1, 47, 80
4, 47040, Note_on_c, 1, 35, 80
4, 47129, Note_on_c, 1, 47, 0
4, 47129, Note_on_c, 1, 35, 0
4, 47280, Note_on_c, 1, 56, 75
4, 47325, Note_on_c, 1, 56, 0
4, 47328, Note_on_c, 1, 54, 75
4, 47373, Note_on_c, 1, 54, 0
4, 47376, Note_on_c, 1, 52, 75
4, 47421, Note_on_c, 1, 52, 0
4, 47472, Note_on_c, 1, 51, 75
4, 47517, Note_on_c, 1, 51, 0
4, 47520, Note_on_c, 1, 49, 75
4, 47565, Note_on_c, 1, 49, 0
4, 47568, Note_on_c, 1, 47, 75
4, 47613, Note_on_c, 1, 47, 0
4, 47616, Note_on_c, 1, 52, 75
4, 47661, Note_on_c, 1, 52, 0
4, 47664, Note_on_c, 1, 54, 75
4, 47709, Note_on_c, 1, 54, 0
4, 47712, Note_on_c, 1, 56, 75
4, 47757, Note_on_c, 1, 56, 0
4, 47856, Note_on_c, 1, 56, 75
4, 47901, Note_on_c, 1, 56, 0
4, 47904, Note_on_c, 1, 54, 75
4, 47949, Note_on_c, 1, 54, 0
4, 47952, Note_on_c, 1, 52, 75
4, 47997, Note_on_c, 1, 52, 0
4, 48048, Note_on_c, 1, 51, 75
4, 48093, Note_on_c, 1, 51, 0
4, 48096, Note_on_c, 1, 49, 75
4, 48141, Note_on_c, 1, 49, 0
4, 48144, Note_on_c, 1, 47, 75
4, 48189, Note_on_c, 1, 47, 0
4, 48192, Note_on_c, 1, 52, 75
4, 48237, Note_on_c, 1, 52, 0
4, 48240, Note_on_c, 1, 54, 75
4, 48285, Note_on_c, 1, 54, 0
4, 48288, Note_on_c, 1, 56, 75
4, 48333, Note_on_c, 1, 56, 0
4, 48432, Note_on_c, 1, 64, 75
4, 48432, Note_on_c, 1, 57, 75
4, 48477, Note_on_c, 1, 64, 0
4, 48477, Note_on_c, 1, 57, 0
4, 48480, Note_on_c, 1, 64, 75
4, 48480, Note_on_c, 1, 57, 75
4, 48525, Note_on_c, 1, 64, 0
4, 48525, Note_on_c, 1, 57, 0
4, 48624, Note_on_c, 1, 64, 75
4, 48624, Note_on_c, 1, 56, 75
4, 48669, Note_on_c, 1, 64, 0
4, 48669, Note_on_c, 1, 56, 0
4, 48672, Note_on_c, 1, 64, 75
4, 48672, Note_on_c, 1, 56, 75
4, 48717, Note_on_c, 1, 64, 0
4, 48717, Note_on_c, 1, 56, 0
4, 48816, Note_on_c, 1, 63, 75
4, 48816, Note_on_c, 1, 54, 75
4, 48861, Note_on_c, 1, 63, 0
4, 48861, Note_on_c, 1, 54, 0
4, 48864, Note_on_c, 1, 63, 75
4, 48864, Note_on_c, 1, 54, 75
4, 48909, Note_on_c, 1, 63, 0
4, 48909, Note_on_c, 1, 54, 0
4, 48912, Note_on_c, 1, 64, 75
4, 48912, Note_on_c, 1, 52, 75
4, 48957, Note_on_c, 1, 64, 0
4, 48957, Note_on_c, 1, 52, 0
4, 48960, Note_on_c, 1, 64, 75
4, 49005, Note_on_c, 1, 64, 0
4, 49008, Note_on_c, 1, 63, 75
4, 49053, Note_on_c, 1, 63, 0
4, 49296, Note_on_c, 1, 56, 75
4, 49319, Note_on_c, 1, 56, 0
4, 49320, Note_on_c, 1, 59, 75
4, 49343, Note_on_c, 1, 59, 0
4, 49344, Note_on_c, 1, 57, 75
4, 49367, Note_on_c, 1, 57, 0
4, 49368, Note_on_c, 1, 59, 75
4, 49391, Note_on_c, 1, 59, 0
4, 49392, Note_on_c, 1, 56, 75
4, 49415, Note_on_c, 1, 56, 0
4, 49416, Note_on_c, 1, 59, 75
4, 49439, Note_on_c, 1, 59, 0
4, 49440, Note_on_c, 1, 57, 75
4, 49463, Note_on_c, 1, 57, 0
4, 49464, Note_on_c, 1, 59, 75
4, 49487, Note_on_c, 1, 59, 0
4, 49488, Note_on_c, 1, 56, 75
4, 49511, Note_on_c, 1, 56, 0
4, 49512, Note_on_c, 1, 59, 75
4, 49535, Note_on_c, 1, 59, 0
4, 49536, Note_on_c, 1, 54, 75
4, 49581, Note_on_c, 1, 54, 0
4, 49584, Note_on_c, 1, 63, 75
4, 49629, Note_on_c, 1, 63, 0
4, 49632, Note_on_c, 1, 64, 75
4, 49677, Note_on_c, 1, 64, 0
4, 49872, Note_on_c, 1, 56, 70
4, 49895, Note_on_c, 1, 56, 0
4, 49896, Note_on_c, 1, 59, 70
4, 49919, Note_on_c, 1, 59, 0
4, 49920, Note_on_c, 1, 57, 70
4, 49943, Note_on_c, 1, 57, 0
4, 49944, Note_on_c, 1, 59, 70
4, 49967, Note_on_c, 1, 59, 0
4, 49968, Note_on_c, 1, 56, 70
4, 49991, Note_on_c, 1, 56, 0
4, 49992, Note_on_c, 1, 59, 70
4, 50015, Note_on_c, 1, 59, 0
4, 50016, Note_on_c, 1, 57, 70
4, 50039, Note_on_c, 1, 57, 0
4, 50040, Note_on_c, 1, 59, 70
4, 50063, Note_on_c, 1, 59, 0
4, 50064, Note_on_c, 1, 56, 70
4, 50087, Note_on_c, 1, 56, 0
4, 50088, Note_on_c, 1, 59, 70
4, 50111, Note_on_c, 1, 59, 0
4, 50112, Note_on_c, 1, 54, 70
4, 50157, Note_on_c, 1, 54, 0
4, 50160, Note_on_c, 1, 63, 70
4, 50205, Note_on_c, 1, 63, 0
4, 50208, Note_on_c, 1, 64, 70
4, 50253, Note_on_c, 1, 64, 0
4, 50256, Note_on_c, 1, 56, 70
4, 50301, Note_on_c, 1, 56, 0
4, 50304, Note_on_c, 1, 57, 70
4, 50349, Note_on_c, 1, 57, 0
4, 50352, Note_on_c, 1, 59, 71
4, 50397, Note_on_c, 1, 59, 0
4, 50400, Note_on_c, 1, 56, 72
4, 50445, Note_on_c, 1, 56, 0
4, 50448, Note_on_c, 1, 52, 73
4, 50493, Note_on_c, 1, 52, 0
4, 50496, Note_on_c, 1, 54, 75
4, 50541, Note_on_c, 1, 54, 0
4, 50544, Note_on_c, 1, 63, 75
4, 50589, Note_on_c, 1, 63, 0
4, 50592, Note_on_c, 1, 64, 75
4, 50637, Note_on_c, 1, 64, 0
4, 50640, Note_on_c, 1, 56, 75
4, 50685, Note_on_c, 1, 56, 0
4, 50688, Note_on_c, 1, 57, 75
4, 50733, Note_on_c, 1, 57, 0
4, 50736, Note_on_c, 1, 59, 76
4, 50781, Note_on_c, 1, 59, 0
4, 50784, Note_on_c, 1, 52, 78
4, 50829, Note_on_c, 1, 52, 0
4, 50928, Note_on_c, 1, 52, 70
4, 50928, Note_on_c, 1, 48, 70
4, 50975, Note_on_c, 1, 52, 0
4, 50975, Note_on_c, 1, 48, 0
4, 50976, Note_on_c, 1, 52, 70
4, 50976, Note_on_c, 1, 48, 70
4, 51023, Note_on_c, 1, 52, 0
4, 51023, Note_on_c, 1, 48, 0
4, 51120, Note_on_c, 1, 52, 70
4, 51120, Note_on_c, 1, 48, 70
4, 51167, Note_on_c, 1, 52, 0
4, 51167, Note_on_c, 1, 48, 0
4, 51168, Note_on_c, 1, 52, 70
4, 51168, Note_on_c, 1, 48, 70
4, 51215, Note_on_c, 1, 52, 0
4, 51215, Note_on_c, 1, 48, 0
4, 51312, Note_on_c, 1, 52, 70
4, 51312, Note_on_c, 1, 48, 70
4, 51359, Note_on_c, 1, 52, 0
4, 51359, Note_on_c, 1, 48, 0
4, 51360, Note_on_c, 1, 52, 70
4, 51360, Note_on_c, 1, 48, 70
4, 51407, Note_on_c, 1, 52, 0
4, 51407, Note_on_c, 1, 48, 0
4, 51408, Note_on_c, 1, 52, 70
4, 51408, Note_on_c, 1, 48, 70
4, 51455, Note_on_c, 1, 52, 0
4, 51455, Note_on_c, 1, 48, 0
4, 51504, Note_on_c, 1, 54, 70
4, 51504, Note_on_c, 1, 47, 70
4, 51551, Note_on_c, 1, 54, 0
4, 51551, Note_on_c, 1, 47, 0
4, 51552, Note_on_c, 1, 54, 70
4, 51552, Note_on_c, 1, 47, 70
4, 51599, Note_on_c, 1, 54, 0
4, 51599, Note_on_c, 1, 47, 0
4, 51600, Note_on_c, 1, 54, 70
4, 51600, Note_on_c, 1, 49, 70
4, 51647, Note_on_c, 1, 54, 0
4, 51647, Note_on_c, 1, 49, 0
4, 51696, Note_on_c, 1, 54, 70
4, 51696, Note_on_c, 1, 51, 70
4, 51741, Note_on_c, 1, 54, 0
4, 51741, Note_on_c, 1, 51, 0
4, 51744, Note_on_c, 1, 54, 70
4, 51744, Note_on_c, 1, 51, 70
4, 51789, Note_on_c, 1, 54, 0
4, 51789, Note_on_c, 1, 51, 0
4, 51792, Note_on_c, 1, 54, 70
4, 51792, Note_on_c, 1, 51, 70
4, 51837, Note_on_c, 1, 54, 0
4, 51837, Note_on_c, 1, 51, 0
4, 51888, Note_on_c, 1, 59, 70
4, 51888, Note_on_c, 1, 52, 70
4, 51933, Note_on_c, 1, 59, 0
4, 51933, Note_on_c, 1, 52, 0
4, 51936, Note_on_c, 1, 59, 70
4, 51936, Note_on_c, 1, 52, 70
4, 51981, Note_on_c, 1, 59, 0
4, 51981, Note_on_c, 1, 52, 0
4, 51984, Note_on_c, 1, 59, 70
4, 51984, Note_on_c, 1, 52, 70
4, 52029, Note_on_c, 1, 59, 0
4, 52029, Note_on_c, 1, 52, 0
4, 52032, Note_on_c, 1, 57, 70
4, 52121, Note_on_c, 1, 57, 0
4, 52416, Note_on_c, 1, 45, 80
4, 52416, Note_on_c, 1, 33, 80
4, 52505, Note_on_c, 1, 45, 0
4, 52505, Note_on_c, 1, 33, 0
4, 52752, Note_on_c, 1, 63, 80
4, 52797, Note_on_c, 1, 63, 0
4, 52800, Note_on_c, 1, 64, 80
4, 52845, Note_on_c, 1, 64, 0
4, 52848, Note_on_c, 1, 56, 80
4, 52893, Note_on_c, 1, 56, 0
4, 52896, Note_on_c, 1, 57, 80
4, 52941, Note_on_c, 1, 57, 0
4, 52944, Note_on_c, 1, 59, 80
4, 52989, Note_on_c, 1, 59, 0
4, 52992, Note_on_c, 1, 52, 80
4, 53037, Note_on_c, 1, 52, 0
4, 53040, Note_on_c, 1, 64, 80
4, 53085, Note_on_c, 1, 64, 0
4, 53136, Note_on_c, 1, 68, 70
4, 53136, Note_on_c, 1, 64, 70
4, 53181, Note_on_c, 1, 68, 0
4, 53181, Note_on_c, 1, 64, 0
4, 53184, Note_on_c, 1, 66, 70
4, 53184, Note_on_c, 1, 63, 70
4, 53229, Note_on_c, 1, 66, 0
4, 53229, Note_on_c, 1, 63, 0
4, 53232, Note_on_c, 1, 66, 70
4, 53232, Note_on_c, 1, 63, 70
4, 53277, Note_on_c, 1, 66, 0
4, 53277, Note_on_c, 1, 63, 0
4, 53280, Note_on_c, 1, 64, 70
4, 53280, Note_on_c, 1, 61, 70
4, 53325, Note_on_c, 1, 64, 0
4, 53325, Note_on_c, 1, 61, 0
4, 53328, Note_on_c, 1, 64, 70
4, 53328, Note_on_c, 1, 61, 70
4, 53373, Note_on_c, 1, 64, 0
4, 53373, Note_on_c, 1, 61, 0
4, 53376, Note_on_c, 1, 63, 70
4, 53376, Note_on_c, 1, 59, 70
4, 53421, Note_on_c, 1, 63, 0
4, 53421, Note_on_c, 1, 59, 0
4, 53424, Note_on_c, 1, 63, 70
4, 53424, Note_on_c, 1, 59, 70
4, 53469, Note_on_c, 1, 63, 0
4, 53469, Note_on_c, 1, 59, 0
4, 53472, Note_on_c, 1, 61, 70
4, 53472, Note_on_c, 1, 57, 70
4, 53517, Note_on_c, 1, 61, 0
4, 53517, Note_on_c, 1, 57, 0
4, 53520, Note_on_c, 1, 61, 70
4, 53520, Note_on_c, 1, 57, 70
4, 53565, Note_on_c, 1, 61, 0
4, 53565, Note_on_c, 1, 57, 0
4, 53568, Note_on_c, 1, 59, 70
4, 53568, Note_on_c, 1, 56, 70
4, 53657, Note_on_c, 1, 59, 0
4, 53657, Note_on_c, 1, 56, 0
4, 53712, Note_on_c, 1, 56, 75
4, 53757, Note_on_c, 1, 56, 0
4, 53760, Note_on_c, 1, 57, 75
4, 53805, Note_on_c, 1, 57, 0
4, 53808, Note_on_c, 1, 57, 75
4, 53853, Note_on_c, 1, 57, 0
4, 53856, Note_on_c, 1, 59, 75
4, 53901, Note_on_c, 1, 59, 0
4, 53904, Note_on_c, 1, 47, 75
4, 53949, Note_on_c, 1, 47, 0
4, 53952, Note_on_c, 1, 52, 75
4, 53997, Note_on_c, 1, 52, 0
4, 54000, Note_on_c, 1, 40, 75
4, 54045, Note_on_c, 1, 40, 0
4, 54048, Note_on_c, 1, 68, 70
4, 54048, Note_on_c, 1, 64, 70
4, 54093, Note_on_c, 1, 68, 0
4, 54093, Note_on_c, 1, 64, 0
4, 54096, Note_on_c, 1, 68, 70
4, 54096, Note_on_c, 1, 64, 70
4, 54141, Note_on_c, 1, 68, 0
4, 54141, Note_on_c, 1, 64, 0
4, 54144, Note_on_c, 1, 66, 70
4, 54144, Note_on_c, 1, 63, 70
4, 54189, Note_on_c, 1, 66, 0
4, 54189, Note_on_c, 1, 63, 0
4, 54192, Note_on_c, 1, 66, 70
4, 54192, Note_on_c, 1, 63, 70
4, 54237, Note_on_c, 1, 66, 0
4, 54237, Note_on_c, 1, 63, 0
4, 54240, Note_on_c, 1, 64, 70
4, 54240, Note_on_c, 1, 61, 70
4, 54285, Note_on_c, 1, 64, 0
4, 54285, Note_on_c, 1, 61, 0
4, 54288, Note_on_c, 1, 64, 70
4, 54288, Note_on_c, 1, 61, 70
4, 54333, Note_on_c, 1, 64, 0
4, 54333, Note_on_c, 1, 61, 0
4, 54336, Note_on_c, 1, 63, 70
4, 54336, Note_on_c, 1, 59, 70
4, 54381, Note_on_c, 1, 63, 0
4, 54381, Note_on_c, 1, 59, 0
4, 54384, Note_on_c, 1, 63, 70
4, 54384, Note_on_c, 1, 59, 70
4, 54429, Note_on_c, 1, 63, 0
4, 54429, Note_on_c, 1, 59, 0
4, 54432, Note_on_c, 1, 61, 70
4, 54432, Note_on_c, 1, 57, 70
4, 54477, Note_on_c, 1, 61, 0
4, 54477, Note_on_c, 1, 57, 0
4, 54480, Note_on_c, 1, 61, 70
4, 54480, Note_on_c, 1, 57, 70
4, 54525, Note_on_c, 1, 61, 0
4, 54525, Note_on_c, 1, 57, 0
4, 54528, Note_on_c, 1, 59, 70
4, 54528, Note_on_c, 1, 56, 70
4, 54617, Note_on_c, 1, 59, 0
4, 54617, Note_on_c, 1, 56, 0
4, 54672, Note_on_c, 1, 56, 75
4, 54717, Note_on_c, 1, 56, 0
4, 54720, Note_on_c, 1, 57, 75
4, 54765, Note_on_c, 1, 57, 0
4, 54768, Note_on_c, 1, 61, 75
4, 54813, Note_on_c, 1, 61, 0
4, 54816, Note_on_c, 1, 59, 75
4, 54861, Note_on_c, 1, 59, 0
4, 54864, Note_on_c, 1, 47, 75
4, 54909, Note_on_c, 1, 47, 0
4, 54912, Note_on_c, 1, 52, 75
4, 54957, Note_on_c, 1, 52, 0
4, 54960, Note_on_c, 1, 40, 75
4, 55005, Note_on_c, 1, 40, 0
4, 55104, Note_on_c, 1, 59, 75
4, 55149, Note_on_c, 1, 59, 0
4, 55152, Note_on_c, 1, 63, 75
4, 55197, Note_on_c, 1, 63, 0
4, 55200, Note_on_c, 1, 64, 75
4, 55245, Note_on_c, 1, 64, 0
4, 55248, Note_on_c, 1, 52, 75
4, 55293, Note_on_c, 1, 52, 0
4, 55296, Note_on_c, 1, 63, 75
4, 55341, Note_on_c, 1, 63, 0
4, 55344, Note_on_c, 1, 59, 75
4, 55389, Note_on_c, 1, 59, 0
4, 55392, Note_on_c, 1, 58, 75
4, 55437, Note_on_c, 1, 58, 0
4, 55440, Note_on_c, 1, 54, 75
4, 55485, Note_on_c, 1, 54, 0
4, 55488, Note_on_c, 1, 59, 75
4, 55577, Note_on_c, 1, 59, 0
4, 55632, Note_on_c, 1, 71, 75
4, 55677, Note_on_c, 1, 71, 0
4, 55680, Note_on_c, 1, 73, 75
4, 55725, Note_on_c, 1, 73, 0
4, 55728, Note_on_c, 1, 66, 75
4, 55773, Note_on_c, 1, 66, 0
4, 55776, Note_on_c, 1, 71, 75
4, 55821, Note_on_c, 1, 71, 0
4, 55872, Note_on_c, 1, 59, 75
4, 55917, Note_on_c, 1, 59, 0
4, 55920, Note_on_c, 1, 63, 75
4, 55965, Note_on_c, 1, 63, 0
4, 55968, Note_on_c, 1, 64, 75
4, 56013, Note_on_c, 1, 64, 0
4, 56016, Note_on_c, 1, 52, 75
4, 56061, Note_on_c, 1, 52, 0
4, 56064, Note_on_c, 1, 63, 75
4, 56109, Note_on_c, 1, 63, 0
4, 56112, Note_on_c, 1, 59, 75
4, 56157, Note_on_c, 1, 59, 0
4, 56160, Note_on_c, 1, 58, 75
4, 56205, Note_on_c, 1, 58, 0
4, 56208, Note_on_c, 1, 54, 75
4, 56253, Note_on_c, 1, 54, 0
4, 56256, Note_on_c, 1, 59, 75
4, 56301, Note_on_c, 1, 59, 0
4, 56304, Note_on_c, 1, 68, 75
4, 56349, Note_on_c, 1, 68, 0
4, 56352, Note_on_c, 1, 64, 75
4, 56397, Note_on_c, 1, 64, 0
4, 56400, Note_on_c, 1, 66, 75
4, 56445, Note_on_c, 1, 66, 0
4, 56448, Note_on_c, 1, 59, 75
4, 56493, Note_on_c, 1, 59, 0
4, 56496, Note_on_c, 1, 54, 75
4, 56541, Note_on_c, 1, 54, 0
4, 56544, Note_on_c, 1, 47, 75
4, 56589, Note_on_c, 1, 47, 0
4, 56880, Note_on_c, 1, 61, 70
4, 56880, Note_on_c, 1, 59, 70
4, 56927, Note_on_c, 1, 61, 0
4, 56927, Note_on_c, 1, 59, 0
4, 56928, Note_on_c, 1, 61, 70
4, 56928, Note_on_c, 1, 59, 70
4, 56975, Note_on_c, 1, 61, 0
4, 56975, Note_on_c, 1, 59, 0
4, 57072, Note_on_c, 1, 61, 70
4, 57072, Note_on_c, 1, 57, 70
4, 57119, Note_on_c, 1, 61, 0
4, 57119, Note_on_c, 1, 57, 0
4, 57120, Note_on_c, 1, 61, 70
4, 57120, Note_on_c, 1, 57, 70
4, 57167, Note_on_c, 1, 61, 0
4, 57167, Note_on_c, 1, 57, 0
4, 57264, Note_on_c, 1, 61, 70
4, 57264, Note_on_c, 1, 53, 70
4, 57311, Note_on_c, 1, 61, 0
4, 57311, Note_on_c, 1, 53, 0
4, 57312, Note_on_c, 1, 61, 70
4, 57312, Note_on_c, 1, 53, 70
4, 57359, Note_on_c, 1, 61, 0
4, 57359, Note_on_c, 1, 53, 0
4, 57360, Note_on_c, 1, 61, 70
4, 57360, Note_on_c, 1, 53, 70
4, 57407, Note_on_c, 1, 61, 0
4, 57407, Note_on_c, 1, 53, 0
4, 57408, Note_on_c, 1, 61, 70
4, 57408, Note_on_c, 1, 54, 70
4, 57497, Note_on_c, 1, 61, 0
4, 57497, Note_on_c, 1, 54, 0
4, 57552, Note_on_c, 1, 57, 75
4, 57575, Note_on_c, 1, 57, 0
4, 57576, Note_on_c, 1, 61, 75
4, 57599, Note_on_c, 1, 61, 0
4, 57600, Note_on_c, 1, 59, 75
4, 57623, Note_on_c, 1, 59, 0
4, 57624, Note_on_c, 1, 61, 75
4, 57647, Note_on_c, 1, 61, 0
4, 57648, Note_on_c, 1, 57, 75
4, 57671, Note_on_c, 1, 57, 0
4, 57672, Note_on_c, 1, 61, 75
4, 57695, Note_on_c, 1, 61, 0
4, 57696, Note_on_c, 1, 59, 75
4, 57719, Note_on_c, 1, 59, 0
4, 57720, Note_on_c, 1, 61, 75
4, 57743, Note_on_c, 1, 61, 0
4, 57744, Note_on_c, 1, 57, 75
4, 57767, Note_on_c, 1, 57, 0
4, 57768, Note_on_c, 1, 61, 75
4, 57791, Note_on_c, 1, 61, 0
4, 57792, Note_on_c, 1, 56, 75
4, 57837, Note_on_c, 1, 56, 0
4, 57840, Note_on_c, 1, 65, 75
4, 57885, Note_on_c, 1, 65, 0
4, 57888, Note_on_c, 1, 66, 75
4, 57933, Note_on_c, 1, 66, 0
4, 57936, Note_on_c, 1, 69, 70
4, 57959, Note_on_c, 1, 69, 0
4, 57960, Note_on_c, 1, 73, 70
4, 57983, Note_on_c, 1, 73, 0
4, 57984, Note_on_c, 1, 71, 70
4, 58007, Note_on_c, 1, 71, 0
4, 58008, Note_on_c, 1, 73, 70
4, 58031, Note_on_c, 1, 73, 0
4, 58032, Note_on_c, 1, 69, 70
4, 58055, Note_on_c, 1, 69, 0
4, 58056, Note_on_c, 1, 73, 70
4, 58079, Note_on_c, 1, 73, 0
4, 58080, Note_on_c, 1, 71, 70
4, 58103, Note_on_c, 1, 71, 0
4, 58104, Note_on_c, 1, 73, 70
4, 58127, Note_on_c, 1, 73, 0
4, 58128, Note_on_c, 1, 69, 70
4, 58151, Note_on_c, 1, 69, 0
4, 58152, Note_on_c, 1, 73, 70
4, 58175, Note_on_c, 1, 73, 0
4, 58176, Note_on_c, 1, 68, 70
4, 58221, Note_on_c, 1, 68, 0
4, 58224, Note_on_c, 1, 65, 70
4, 58269, Note_on_c, 1, 65, 0
4, 58272, Note_on_c, 1, 66, 70
4, 58317, Note_on_c, 1, 66, 0
4, 58320, Note_on_c, 1, 69, 70
4, 58343, Note_on_c, 1, 69, 0
4, 58344, Note_on_c, 1, 68, 70
4, 58367, Note_on_c, 1, 68, 0
4, 58368, Note_on_c, 1, 66, 71
4, 58501, Note_on_c, 1, 66, 0
4, 58512, Note_on_c, 1, 67, 74
4, 58557, Note_on_c, 1, 67, 0
4, 58560, Note_on_c, 1, 68, 75
4, 58605, Note_on_c, 1, 68, 0
4, 58608, Note_on_c, 1, 63, 75
4, 58653, Note_on_c, 1, 63, 0
4, 58656, Note_on_c, 1, 56, 75
4, 58701, Note_on_c, 1, 56, 0
4, 58752, Note_on_c, 1, 61, 75
4, 58797, Note_on_c, 1, 61, 0
4, 58800, Note_on_c, 1, 64, 75
4, 58845, Note_on_c, 1, 64, 0
4, 58848, Note_on_c, 1, 66, 75
4, 58893, Note_on_c, 1, 66, 0
4, 58896, Note_on_c, 1, 54, 75
4, 58941, Note_on_c, 1, 54, 0
4, 58944, Note_on_c, 1, 64, 75
4, 58989, Note_on_c, 1, 64, 0
4, 58992, Note_on_c, 1, 61, 75
4, 59037, Note_on_c, 1, 61, 0
4, 59040, Note_on_c, 1, 63, 75
4, 59085, Note_on_c, 1, 63, 0
4, 59088, Note_on_c, 1, 56, 75
4, 59133, Note_on_c, 1, 56, 0
4, 59136, Note_on_c, 1, 61, 75
4, 59181, Note_on_c, 1, 61, 0
4, 59184, Note_on_c, 1, 64, 75
4, 59229, Note_on_c, 1, 64, 0
4, 59232, Note_on_c, 1, 66, 75
4, 59277, Note_on_c, 1, 66, 0
4, 59280, Note_on_c, 1, 54, 75
4, 59325, Note_on_c, 1, 54, 0
4, 59328, Note_on_c, 1, 64, 75
4, 59373, Note_on_c, 1, 64, 0
4, 59376, Note_on_c, 1, 61, 75
4, 59421, Note_on_c, 1, 61, 0
4, 59424, Note_on_c, 1, 63, 75
4, 59469, Note_on_c, 1, 63, 0
4, 59472, Note_on_c, 1, 56, 75
4, 59517, Note_on_c, 1, 56, 0
4, 59568, Note_on_c, 1, 61, 75
4, 59591, Note_on_c, 1, 61, 0
4, 59592, Note_on_c, 1, 64, 75
4, 59615, Note_on_c, 1, 64, 0
4, 59616, Note_on_c, 1, 63, 75
4, 59639, Note_on_c, 1, 63, 0
4, 59640, Note_on_c, 1, 66, 75
4, 59663, Note_on_c, 1, 66, 0
4, 59664, Note_on_c, 1, 64, 75
4, 59687, Note_on_c, 1, 64, 0
4, 59688, Note_on_c, 1, 68, 75
4, 59711, Note_on_c, 1, 68, 0
4, 59712, Note_on_c, 1, 66, 75
4, 59801, Note_on_c, 1, 66, 0
4, 59808, Note_on_c, 1, 68, 75
4, 59897, Note_on_c, 1, 68, 0
4, 59904, Note_on_c, 1, 69, 75
4, 59949, Note_on_c, 1, 69, 0
4, 59952, Note_on_c, 1, 61, 75
4, 59975, Note_on_c, 1, 61, 0
4, 59976, Note_on_c, 1, 64, 75
4, 59999, Note_on_c, 1, 64, 0
4, 60000, Note_on_c, 1, 63, 75
4, 60023, Note_on_c, 1, 63, 0
4, 60024, Note_on_c, 1, 66, 75
4, 60047, Note_on_c, 1, 66, 0
4, 60048, Note_on_c, 1, 64, 75
4, 60071, Note_on_c, 1, 64, 0
4, 60072, Note_on_c, 1, 68, 75
4, 60095, Note_on_c, 1, 68, 0
4, 60096, Note_on_c, 1, 66, 75
4, 60185, Note_on_c, 1, 66, 0
4, 60192, Note_on_c, 1, 68, 75
4, 60281, Note_on_c, 1, 68, 0
4, 60288, Note_on_c, 1, 61, 75
4, 60333, Note_on_c, 1, 61, 0
4, 60336, Note_on_c, 1, 56, 75
4, 60381, Note_on_c, 1, 56, 0
4, 60384, Note_on_c, 1, 49, 75
4, 60473, Note_on_c, 1, 49, 0
4, 60528, Note_on_c, 1, 63, 70
4, 60528, Note_on_c, 1, 61, 70
4, 60575, Note_on_c, 1, 63, 0
4, 60575, Note_on_c, 1, 61, 0
4, 60576, Note_on_c, 1, 63, 70
4, 60576, Note_on_c, 1, 61, 70
4, 60623, Note_on_c, 1, 63, 0
4, 60623, Note_on_c, 1, 61, 0
4, 60720, Note_on_c, 1, 63, 70
4, 60720, Note_on_c, 1, 59, 70
4, 60767, Note_on_c, 1, 63, 0
4, 60767, Note_on_c, 1, 59, 0
4, 60768, Note_on_c, 1, 63, 70
4, 60768, Note_on_c, 1, 59, 70
4, 60815, Note_on_c, 1, 63, 0
4, 60815, Note_on_c, 1, 59, 0
4, 60912, Note_on_c, 1, 61, 70
4, 60912, Note_on_c, 1, 59, 70
4, 60959, Note_on_c, 1, 61, 0
4, 60959, Note_on_c, 1, 59, 0
4, 60960, Note_on_c, 1, 61, 70
4, 60960, Note_on_c, 1, 59, 70
4, 61007, Note_on_c, 1, 61, 0
4, 61007, Note_on_c, 1, 59, 0
4, 61104, Note_on_c, 1, 61, 70
4, 61104, Note_on_c, 1, 57, 70
4, 61151, Note_on_c, 1, 61, 0
4, 61151, Note_on_c, 1, 57, 0
4, 61152, Note_on_c, 1, 61, 70
4, 61152, Note_on_c, 1, 57, 70
4, 61199, Note_on_c, 1, 61, 0
4, 61199, Note_on_c, 1, 57, 0
4, 61296, Note_on_c, 1, 59, 70
4, 61296, Note_on_c, 1, 57, 70
4, 61343, Note_on_c, 1, 59, 0
4, 61343, Note_on_c, 1, 57, 0
4, 61344, Note_on_c, 1, 59, 70
4, 61344, Note_on_c, 1, 57, 70
4, 61391, Note_on_c, 1, 59, 0
4, 61391, Note_on_c, 1, 57, 0
4, 61488, Note_on_c, 1, 59, 70
4, 61488, Note_on_c, 1, 56, 70
4, 61535, Note_on_c, 1, 59, 0
4, 61535, Note_on_c, 1, 56, 0
4, 61536, Note_on_c, 1, 59, 70
4, 61536, Note_on_c, 1, 56, 70
4, 61583, Note_on_c, 1, 59, 0
4, 61583, Note_on_c, 1, 56, 0
4, 61680, Note_on_c, 1, 59, 75
4, 61680, Note_on_c, 1, 51, 75
4, 61727, Note_on_c, 1, 59, 0
4, 61727, Note_on_c, 1, 51, 0
4, 61728, Note_on_c, 1, 59, 75
4, 61728, Note_on_c, 1, 51, 75
4, 61775, Note_on_c, 1, 59, 0
4, 61775, Note_on_c, 1, 51, 0
4, 61776, Note_on_c, 1, 59, 75
4, 61776, Note_on_c, 1, 52, 75
4, 61823, Note_on_c, 1, 59, 0
4, 61823, Note_on_c, 1, 52, 0
4, 61824, Note_on_c, 1, 59, 75
4, 61869, Note_on_c, 1, 59, 0
4, 61872, Note_on_c, 1, 47, 75
4, 61917, Note_on_c, 1, 47, 0
4, 62016, Note_on_c, 1, 52, 75
4, 62061, Note_on_c, 1, 52, 0
4, 62064, Note_on_c, 1, 56, 75
4, 62109, Note_on_c, 1, 56, 0
4, 62112, Note_on_c, 1, 57, 75
4, 62157, Note_on_c, 1, 57, 0
4, 62160, Note_on_c, 1, 45, 75
4, 62205, Note_on_c, 1, 45, 0
4, 62208, Note_on_c, 1, 56, 75
4, 62253, Note_on_c, 1, 56, 0
4, 62256, Note_on_c, 1, 52, 75
4, 62301, Note_on_c, 1, 52, 0
4, 62304, Note_on_c, 1, 51, 75
4, 62349, Note_on_c, 1, 51, 0
4, 62352, Note_on_c, 1, 47, 75
4, 62397, Note_on_c, 1, 47, 0
4, 62400, Note_on_c, 1, 52, 75
4, 62489, Note_on_c, 1, 52, 0
4, 62544, Note_on_c, 1, 64, 75
4, 62589, Note_on_c, 1, 64, 0
4, 62592, Note_on_c, 1, 66, 75
4, 62637, Note_on_c, 1, 66, 0
4, 62640, Note_on_c, 1, 59, 75
4, 62685, Note_on_c, 1, 59, 0
4, 62688, Note_on_c, 1, 64, 75
4, 62777, Note_on_c, 1, 64, 0
4, 62784, Note_on_c, 1, 52, 75
4, 62829, Note_on_c, 1, 52, 0
4, 62832, Note_on_c, 1, 55, 75
4, 62877, Note_on_c, 1, 55, 0
4, 62880, Note_on_c, 1, 57, 75
4, 62925, Note_on_c, 1, 57, 0
4, 62928, Note_on_c, 1, 45, 75
4, 62973, Note_on_c, 1, 45, 0
4, 62976, Note_on_c, 1, 55, 75
4, 63021, Note_on_c, 1, 55, 0
4, 63024, Note_on_c, 1, 52, 75
4, 63069, Note_on_c, 1, 52, 0
4, 63072, Note_on_c, 1, 51, 75
4, 63117, Note_on_c, 1, 51, 0
4, 63120, Note_on_c, 1, 47, 75
4, 63165, Note_on_c, 1, 47, 0
4, 63168, Note_on_c, 1, 52, 75
4, 63213, Note_on_c, 1, 52, 0
4, 63216, Note_on_c, 1, 55, 75
4, 63261, Note_on_c, 1, 55, 0
4, 63264, Note_on_c, 1, 57, 75
4, 63309, Note_on_c, 1, 57, 0
4, 63312, Note_on_c, 1, 66, 75
4, 63357, Note_on_c, 1, 66, 0
4, 63360, Note_on_c, 1, 55, 75
4, 63405, Note_on_c, 1, 55, 0
4, 63408, Note_on_c, 1, 64, 75
4, 63453, Note_on_c, 1, 64, 0
4, 63456, Note_on_c, 1, 54, 75
4, 63501, Note_on_c, 1, 54, 0
4, 63504, Note_on_c, 1, 63, 75
4, 63549, Note_on_c, 1, 63, 0
4, 63552, Note_on_c, 1, 52, 75
4, 63597, Note_on_c, 1, 52, 0
4, 63600, Note_on_c, 1, 55, 75
4, 63645, Note_on_c, 1, 55, 0
4, 63648, Note_on_c, 1, 57, 75
4, 63693, Note_on_c, 1, 57, 0
4, 63696, Note_on_c, 1, 66, 75
4, 63741, Note_on_c, 1, 66, 0
4, 63744, Note_on_c, 1, 55, 75
4, 63789, Note_on_c, 1, 55, 0
4, 63792, Note_on_c, 1, 64, 75
4, 63837, Note_on_c, 1, 64, 0
4, 63840, Note_on_c, 1, 54, 76
4, 63885, Note_on_c, 1, 54, 0
4, 63888, Note_on_c, 1, 63, 76
4, 63933, Note_on_c, 1, 63, 0
4, 63936, Note_on_c, 1, 52, 77
4, 64025, Note_on_c, 1, 52, 0
4, 64080, Note_on_c, 1, 48, 79
4, 64080, Note_on_c, 1, 36, 79
4, 64125, Note_on_c, 1, 48, 0
4, 64125, Note_on_c, 1, 36, 0
4, 64128, Note_on_c, 1, 47, 80
4, 64128, Note_on_c, 1, 35, 80
4, 64217, Note_on_c, 1, 47, 0
4, 64217, Note_on_c, 1, 35, 0
4, 64368, Note_on_c, 1, 56, 75
4, 64413, Note_on_c, 1, 56, 0
4, 64416, Note_on_c, 1, 54, 75
4, 64461, Note_on_c, 1, 54, 0
4, 64464, Note_on_c, 1, 52, 75
4, 64509, Note_on_c, 1, 52, 0
4, 64560, Note_on_c, 1, 51, 75
4, 64605, Note_on_c, 1, 51, 0
4, 64608, Note_on_c, 1, 49, 75
4, 64653, Note_on_c, 1, 49, 0
4, 64656, Note_on_c, 1, 47, 75
4, 64701, Note_on_c, 1, 47, 0
4, 64704, Note_on_c, 1, 52, 75
4, 64749, Note_on_c, 1, 52, 0
4, 64752, Note_on_c, 1, 54, 75
4, 64797, Note_on_c, 1, 54, 0
4, 64800, Note_on_c, 1, 56, 75
4, 64845, Note_on_c, 1, 56, 0
4, 64944, Note_on_c, 1, 56, 75
4, 64989, Note_on_c, 1, 56, 0
4, 64992, Note_on_c, 1, 54, 75
4, 65037, Note_on_c, 1, 54, 0
4, 65040, Note_on_c, 1, 52, 75
4, 65085, Note_on_c, 1, 52, 0
4, 65136, Note_on_c, 1, 51, 75
4, 65181, Note_on_c, 1, 51, 0
4, 65184, Note_on_c, 1, 49, 75
4, 65229, Note_on_c, 1, 49, 0
4, 65232, Note_on_c, 1, 47, 75
4, 65277, Note_on_c, 1, 47, 0
4, 65280, Note_on_c, 1, 52, 75
4, 65325, Note_on_c, 1, 52, 0
4, 65328, Note_on_c, 1, 54, 75
4, 65373, Note_on_c, 1, 54, 0
4, 65376, Note_on_c, 1, 56, 75
4, 65421, Note_on_c, 1, 56, 0
4, 65520, Note_on_c, 1, 64, 75
4, 65520, Note_on_c, 1, 57, 75
4, 65565, Note_on_c, 1, 64, 0
4, 65565, Note_on_c, 1, 57, 0
4, 65568, Note_on_c, 1, 64, 75
4, 65568, Note_on_c, 1, 57, 75
4, 65613, Note_on_c, 1, 64, 0
4, 65613, Note_on_c, 1, 57, 0
4, 65712, Note_on_c, 1, 64, 75
4, 65712, Note_on_c, 1, 56, 75
4, 65757, Note_on_c, 1, 64, 0
4, 65757, Note_on_c, 1, 56, 0
4, 65760, Note_on_c, 1, 64, 75
4, 65760, Note_on_c, 1, 56, 75
4, 65805, Note_on_c, 1, 64, 0
4, 65805, Note_on_c, 1, 56, 0
4, 65904, Note_on_c, 1, 63, 75
4, 65904, Note_on_c, 1, 54, 75
4, 65949, Note_on_c, 1, 63, 0
4, 65949, Note_on_c, 1, 54, 0
4, 65952, Note_on_c, 1, 63, 75
4, 65952, Note_on_c, 1, 54, 75
4, 65997, Note_on_c, 1, 63, 0
4, 65997, Note_on_c, 1, 54, 0
4, 66000, Note_on_c, 1, 64, 75
4, 66000, Note_on_c, 1, 52, 75
4, 66045, Note_on_c, 1, 64, 0
4, 66045, Note_on_c, 1, 52, 0
4, 66048, Note_on_c, 1, 64, 75
4, 66093, Note_on_c, 1, 64, 0
4, 66096, Note_on_c, 1, 63, 75
4, 66141, Note_on_c, 1, 63, 0
4, 66384, Note_on_c, 1, 56, 75
4, 66407, Note_on_c, 1, 56, 0
4, 66408, Note_on_c, 1, 59, 75
4, 66431, Note_on_c, 1, 59, 0
4, 66432, Note_on_c, 1, 57, 75
4, 66455, Note_on_c, 1, 57, 0
4, 66456, Note_on_c, 1, 59, 75
4, 66479, Note_on_c, 1, 59, 0
4, 66480, Note_on_c, 1, 56, 75
4, 66503, Note_on_c, 1, 56, 0
4, 66504, Note_on_c, 1, 59, 75
4, 66527, Note_on_c, 1, 59, 0
4, 66528, Note_on_c, 1, 57, 75
4, 66551, Note_on_c, 1, 57, 0
4, 66552, Note_on_c, 1, 59, 75
4, 66575, Note_on_c, 1, 59, 0
4, 66576, Note_on_c, 1, 56, 75
4, 66599, Note_on_c, 1, 56, 0
4, 66600, Note_on_c, 1, 59, 75
4, 66623, Note_on_c, 1, 59, 0
4, 66624, Note_on_c, 1, 54, 75
4, 66669, Note_on_c, 1, 54, 0
4, 66672, Note_on_c, 1, 63, 75
4, 66717, Note_on_c, 1, 63, 0
4, 66720, Note_on_c, 1, 64, 75
4, 66765, Note_on_c, 1, 64, 0
4, 66960, Note_on_c, 1, 56, 70
4, 66983, Note_on_c, 1, 56, 0
4, 66984, Note_on_c, 1, 59, 70
4, 67007, Note_on_c, 1, 59, 0
4, 67008, Note_on_c, 1, 57, 70
4, 67031, Note_on_c, 1, 57, 0
4, 67032, Note_on_c, 1, 59, 70
4, 67055, Note_on_c, 1, 59, 0
4, 67056, Note_on_c, 1, 56, 70
4, 67079, Note_on_c, 1, 56, 0
4, 67080, Note_on_c, 1, 59, 70
4, 67103, Note_on_c, 1, 59, 0
4, 67104, Note_on_c, 1, 57, 70
4, 67127, Note_on_c, 1, 57, 0
4, 67128, Note_on_c, 1, 59, 70
4, 67151, Note_on_c, 1, 59, 0
4, 67152, Note_on_c, 1, 56, 70
4, 67175, Note_on_c, 1, 56, 0
4, 67176, Note_on_c, 1, 59, 70
4, 67199, Note_on_c, 1, 59, 0
4, 67200, Note_on_c, 1, 54, 70
4, 67245, Note_on_c, 1, 54, 0
4, 67248, Note_on_c, 1, 63, 70
4, 67293, Note_on_c, 1, 63, 0
4, 67296, Note_on_c, 1, 64, 70
4, 67341, Note_on_c, 1, 64, 0
4, 67344, Note_on_c, 1, 56, 70
4, 67389, Note_on_c, 1, 56, 0
4, 67392, Note_on_c, 1, 57, 70
4, 67437, Note_on_c, 1, 57, 0
4, 67440, Note_on_c, 1, 59, 71
4, 67485, Note_on_c, 1, 59, 0
4, 67488, Note_on_c, 1, 56, 72
4, 67533, Note_on_c, 1, 56, 0
4, 67536, Note_on_c, 1, 52, 73
4, 67581, Note_on_c, 1, 52, 0
4, 67584, Note_on_c, 1, 54, 75
4, 67629, Note_on_c, 1, 54, 0
4, 67632, Note_on_c, 1, 63, 75
4, 67677, Note_on_c, 1, 63, 0
4, 67680, Note_on_c, 1, 64, 75
4, 67725, Note_on_c, 1, 64, 0
4, 67728, Note_on_c, 1, 56, 75
4, 67773, Note_on_c, 1, 56, 0
4, 67776, Note_on_c, 1, 57, 75
4, 67821, Note_on_c, 1, 57, 0
4, 67824, Note_on_c, 1, 59, 76
4, 67869, Note_on_c, 1, 59, 0
4, 67872, Note_on_c, 1, 52, 78
4, 67917, Note_on_c, 1, 52, 0
4, 68016, Note_on_c, 1, 52, 70
4, 68016, Note_on_c, 1, 48, 70
4, 68063, Note_on_c, 1, 52, 0
4, 68063, Note_on_c, 1, 48, 0
4, 68064, Note_on_c, 1, 52, 70
4, 68064, Note_on_c, 1, 48, 70
4, 68111, Note_on_c, 1, 52, 0
4, 68111, Note_on_c, 1, 48, 0
4, 68208, Note_on_c, 1, 52, 70
4, 68208, Note_on_c, 1, 48, 70
4, 68255, Note_on_c, 1, 52, 0
4, 68255, Note_on_c, 1, 48, 0
4, 68256, Note_on_c, 1, 52, 70
4, 68256, Note_on_c, 1, 48, 70
4, 68303, Note_on_c, 1, 52, 0
4, 68303, Note_on_c, 1, 48, 0
4, 68400, Note_on_c, 1, 52, 70
4, 68400, Note_on_c, 1, 48, 70
4, 68447, Note_on_c, 1, 52, 0
4, 68447, Note_on_c, 1, 48, 0
4, 68448, Note_on_c, 1, 52, 70
4, 68448, Note_on_c, 1, 48, 70
4, 68495, Note_on_c, 1, 52, 0
4, 68495, Note_on_c, 1, 48, 0
4, 68496, Note_on_c, 1, 52, 70
4, 68496, Note_on_c, 1, 48, 70
4, 68543, Note_on_c, 1, 52, 0
4, 68543, Note_on_c, 1, 48, 0
4, 68592, Note_on_c, 1, 54, 70
4, 68592, Note_on_c, 1, 47, 70
4, 68639, Note_on_c, 1, 54, 0
4, 68639, Note_on_c, 1, 47, 0
4, 68640, Note_on_c, 1, 54, 70
4, 68640, Note_on_c, 1, 47, 70
4, 68687, Note_on_c, 1, 54, 0
4, 68687, Note_on_c, 1, 47, 0
4, 68688, Note_on_c, 1, 54, 70
4, 68688, Note_on_c, 1, 49, 70
4, 68735, Note_on_c, 1, 54, 0
4, 68735, Note_on_c, 1, 49, 0
4, 68784, Note_on_c, 1, 54, 70
4, 68784, Note_on_c, 1, 51, 70
4, 68829, Note_on_c, 1, 54, 0
4, 68829, Note_on_c, 1, 51, 0
4, 68832, Note_on_c, 1, 54, 70
4, 68832, Note_on_c, 1, 51, 70
4, 68877, Note_on_c, 1, 54, 0
4, 68877, Note_on_c, 1, 51, 0
4, 68880, Note_on_c, 1, 54, 70
4, 68880, Note_on_c, 1, 51, 70
4, 68925, Note_on_c, 1, 54, 0
4, 68925, Note_on_c, 1, 51, 0
4, 68976, Note_on_c, 1, 59, 70
4, 68976, Note_on_c, 1, 52, 70
4, 69021, Note_on_c, 1, 59, 0
4, 69021, Note_on_c, 1, 52, 0
4, 69024, Note_on_c, 1, 59, 70
4, 69024, Note_on_c, 1, 52, 70
4, 69069, Note_on_c, 1, 59, 0
4, 69069, Note_on_c, 1, 52, 0
4, 69072, Note_on_c, 1, 59, 70
4, 69072, Note_on_c, 1, 52, 70
4, 69117, Note_on_c, 1, 59, 0
4, 69117, Note_on_c, 1, 52, 0
4, 69120, Note_on_c, 1, 57, 70
4, 69209, Note_on_c, 1, 57, 0
4, 69504, Note_on_c, 1, 45, 80
4, 69504, Note_on_c, 1, 33, 80
4, 69593, Note_on_c, 1, 45, 0
4, 69593, Note_on_c, 1, 33, 0
4, 69840, Note_on_c, 1, 63, 80
4, 69885, Note_on_c, 1, 63, 0
4, 69888, Note_on_c, 1, 64, 80
4, 69933, Note_on_c, 1, 64, 0
4, 69936, Note_on_c, 1, 56, 80
4, 69981, Note_on_c, 1, 56, 0
4, 69984, Note_on_c, 1, 57, 80
4, 70029, Note_on_c, 1, 57, 0
4, 70032, Note_on_c, 1, 59, 80
4, 70077, Note_on_c, 1, 59, 0
4, 70080, Note_on_c, 1, 52, 80
4, 70125, Note_on_c, 1, 52, 0
4, 70128, Note_on_c, 1, 64, 80
4, 70173, Note_on_c, 1, 64, 0
4, 70224, Note_on_c, 1, 68, 70
4, 70224, Note_on_c, 1, 64, 70
4, 70269, Note_on_c, 1, 68, 0
4, 70269, Note_on_c, 1, 64, 0
4, 70272, Note_on_c, 1, 66, 70
4, 70272, Note_on_c, 1, 63, 70
4, 70317, Note_on_c, 1, 66, 0
4, 70317, Note_on_c, 1, 63, 0
4, 70320, Note_on_c, 1, 66, 70
4, 70320, Note_on_c, 1, 63, 70
4, 70365, Note_on_c, 1, 66, 0
4, 70365, Note_on_c, 1, 63, 0
4, 70368, Note_on_c, 1, 64, 70
4, 70368, Note_on_c, 1, 61, 70
4, 70413, Note_on_c, 1, 64, 0
4, 70413, Note_on_c, 1, 61, 0
4, 70416, Note_on_c, 1, 64, 70
4, 70416, Note_on_c, 1, 61, 70
4, 70461, Note_on_c, 1, 64, 0
4, 70461, Note_on_c, 1, 61, 0
4, 70464, Note_on_c, 1, 63, 70
4, 70464, Note_on_c, 1, 59, 70
4, 70509, Note_on_c, 1, 63, 0
4, 70509, Note_on_c, 1, 59, 0
4, 70512, Note_on_c, 1, 63, 70
4, 70512, Note_on_c, 1, 59, 70
4, 70557, Note_on_c, 1, 63, 0
4, 70557, Note_on_c, 1, 59, 0
4, 70560, Note_on_c, 1, 61, 70
4, 70560, Note_on_c, 1, 57, 70
4, 70605, Note_on_c, 1, 61, 0
4, 70605, Note_on_c, 1, 57, 0
4, 70608, Note_on_c, 1, 61, 70
4, 70608, Note_on_c, 1, 57, 70
4, 70653, Note_on_c, 1, 61, 0
4, 70653, Note_on_c, 1, 57, 0
4, 70656, Note_on_c, 1, 59, 70
4, 70656, Note_on_c, 1, 56, 70
4, 70745, Note_on_c, 1, 59, 0
4, 70745, Note_on_c, 1, 56, 0
4, 70800, Note_on_c, 1, 56, 75
4, 70845, Note_on_c, 1, 56, 0
4, 70848, Note_on_c, 1, 57, 75
4, 70893, Note_on_c, 1, 57, 0
4, 70896, Note_on_c, 1, 57, 75
4, 70941, Note_on_c, 1, 57, 0
4, 70944, Note_on_c, 1, 59, 75
4, 70989, Note_on_c, 1, 59, 0
4, 70992, Note_on_c, 1, 47, 75
4, 71037, Note_on_c, 1, 47, 0
4, 71040, Note_on_c, 1, 52, 75
4, 71085, Note_on_c, 1, 52, 0
4, 71088, Note_on_c, 1, 40, 75
4, 71133, Note_on_c, 1, 40, 0
4, 71136, Note_on_c, 1, 68, 70
4, 71136, Note_on_c, 1, 64, 70
4, 71181, Note_on_c, 1, 68, 0
4, 71181, Note_on_c, 1, 64, 0
4, 71184, Note_on_c, 1, 68, 70
4, 71184, Note_on_c, 1, 64, 70
4, 71229, Note_on_c, 1, 68, 0
4, 71229, Note_on_c, 1, 64, 0
4, 71232, Note_on_c, 1, 66, 70
4, 71232, Note_on_c, 1, 63, 70
4, 71277, Note_on_c, 1, 66, 0
4, 71277, Note_on_c, 1, 63, 0
4, 71280, Note_on_c, 1, 66, 70
4, 71280, Note_on_c, 1, 63, 70
4, 71325, Note_on_c, 1, 66, 0
4, 71325, Note_on_c, 1, 63, 0
4, 71328, Note_on_c, 1, 64, 70
4, 71328, Note_on_c, 1, 61, 70
4, 71373, Note_on_c, 1, 64, 0
4, 71373, Note_on_c, 1, 61, 0
4, 71376, Note_on_c, 1, 64, 70
4, 71376, Note_on_c, 1, 61, 70
4, 71421, Note_on_c, 1, 64, 0
4, 71421, Note_on_c, 1, 61, 0
4, 71424, Note_on_c, 1, 63, 70
4, 71424, Note_on_c, 1, 59, 70
4, 71469, Note_on_c, 1, 63, 0
4, 71469, Note_on_c, 1, 59, 0
4, 71472, Note_on_c, 1, 63, 70
4, 71472, Note_on_c, 1, 59, 70
4, 71517, Note_on_c, 1, 63, 0
4, 71517, Note_on_c, 1, 59, 0
4, 71520, Note_on_c, 1, 61, 70
4, 71520, Note_on_c, 1, 57, 70
4, 71565, Note_on_c, 1, 61, 0
4, 71565, Note_on_c, 1, 57, 0
4, 71568, Note_on_c, 1, 61, 70
4, 71568, Note_on_c, 1, 57, 70
4, 71613, Note_on_c, 1, 61, 0
4, 71613, Note_on_c, 1, 57, 0
4, 71616, Note_on_c, 1, 59, 70
4, 71616, Note_on_c, 1, 56, 70
4, 71705, Note_on_c, 1, 59, 0
4, 71705, Note_on_c, 1, 56, 0
4, 71760, Note_on_c, 1, 56, 75
4, 71805, Note_on_c, 1, 56, 0
4, 71808, Note_on_c, 1, 57, 75
4, 71853, Note_on_c, 1, 57, 0
4, 71856, Note_on_c, 1, 61, 75
4, 71901, Note_on_c, 1, 61, 0
4, 71904, Note_on_c, 1, 59, 75
4, 71949, Note_on_c, 1, 59, 0
4, 71952, Note_on_c, 1, 47, 75
4, 71997, Note_on_c, 1, 47, 0
4, 72000, Note_on_c, 1, 52, 75
4, 72045, Note_on_c, 1, 52, 0
4, 72048, Note_on_c, 1, 40, 75
4, 72093, Note_on_c, 1, 40, 0
4, 72144, Note_on_c, 1, 40, 0
4, 72189, Note_on_c, 1, 40, 0
4, 72192, End_track
5, 0, Start_track
5, 0, Program_c, 1, 0
5, 0, Control_c, 1, 7, 127
5, 0, Control_c, 1, 10, 64
5, 22464, Note_on_c, 1, 59, 64
5, 22553, Note_on_c, 1, 59, 0
5, 31872, Note_on_c, 1, 59, 64
5, 31961, Note_on_c, 1, 59, 0
5, 48960, Note_on_c, 1, 59, 64
5, 49049, Note_on_c, 1, 59, 0
5, 66048, Note_on_c, 1, 59, 64
5, 66137, Note_on_c, 1, 59, 0
5, 72192, End_track
6, 0, Start_track
6, 0, Title_t, "Sonata I   Haydn  "
6, 0, End_track
0, 0, End_of_file
