0, 0, Header, 1, 6, 96
1, 0, Start_track
1, 0, Copyright_t, "Copyright  1994-2002 Mozart Music Software"
1, 0, Text_t, "Sonata I\015\012"
1, 0, Text_t, "Haydn\015\012"
1, 0, Sequencer_specific, 16, 68, 87, 77, 90, 86, 82, 83, 78, 32, 55, 46, 48, 46, 55, 46, 48
1, 0, Time_signature, 3, 2, 24, 8
1, 0, Tempo, 750000
1, 0, Key_signature, -2, "major"
1, 63360, End_track
2, 0, Start_track
2, 0, Program_c, 0, 0
2, 0, Control_c, 0, 7, 127
2, 0, Control_c, 0, 10, 64
2, 0, Note_on_c, 0, 77, 75
2, 0, Note_on_c, 0, 74, 75
2, 177, Note_on_c, 0, 77, 0
2, 177, Note_on_c, 0, 74, 0
2, 192, Note_on_c, 0, 81, 75
2, 198, Note_on_c, 0, 81, 0
2, 198, Note_on_c, 0, 79, 75
2, 198, Note_on_c, 0, 75, 75
2, 259, Note_on_c, 0, 79, 0
2, 259, Note_on_c, 0, 75, 0
2, 264, Note_on_c, 0, 77, 75
2, 264, Note_on_c, 0, 74, 75
2, 287, Note_on_c, 0, 77, 0
2, 287, Note_on_c, 0, 74, 0
2, 288, Note_on_c, 0, 77, 75
2, 288, Note_on_c, 0, 74, 75
2, 377, Note_on_c, 0, 77, 0
2, 377, Note_on_c, 0, 74, 0
2, 384, Note_on_c, 0, 75, 75
2, 393, Note_on_c, 0, 75, 0
2, 393, Note_on_c, 0, 77, 75
2, 402, Note_on_c, 0, 77, 0
2, 402, Note_on_c, 0, 75, 75
2, 411, Note_on_c, 0, 75, 0
2, 411, Note_on_c, 0, 77, 75
2, 420, Note_on_c, 0, 77, 0
2, 420, Note_on_c, 0, 75, 75
2, 429, Note_on_c, 0, 75, 0
2, 429, Note_on_c, 0, 77, 75
2, 438, Note_on_c, 0, 77, 0
2, 438, Note_on_c, 0, 75, 75
2, 447, Note_on_c, 0, 75, 0
2, 447, Note_on_c, 0, 74, 75
2, 464, Note_on_c, 0, 74, 0
2, 464, Note_on_c, 0, 75, 75
2, 480, Note_on_c, 0, 75, 0
2, 480, Note_on_c, 0, 74, 75
2, 480, Note_on_c, 0, 70, 75
2, 569, Note_on_c, 0, 74, 0
2, 569, Note_on_c, 0, 70, 0
2, 576, Note_on_c, 0, 79, 75
2, 586, Note_on_c, 0, 79, 0
2, 600, Note_on_c, 0, 81, 75
2, 608, Note_on_c, 0, 81, 0
2, 608, Note_on_c, 0, 79, 75
2, 616, Note_on_c, 0, 79, 0
2, 616, Note_on_c, 0, 78, 75
2, 624, Note_on_c, 0, 78, 0
2, 624, Note_on_c, 0, 79, 75
2, 647, Note_on_c, 0, 79, 0
2, 648, Note_on_c, 0, 81, 75
2, 671, Note_on_c, 0, 81, 0
2, 672, Note_on_c, 0, 82, 75
2, 739, Note_on_c, 0, 82, 0
2, 744, Note_on_c, 0, 81, 75
2, 767, Note_on_c, 0, 81, 0
2, 768, Note_on_c, 0, 79, 75
2, 835, Note_on_c, 0, 79, 0
2, 840, Note_on_c, 0, 77, 75
2, 863, Note_on_c, 0, 77, 0
2, 864, Note_on_c, 0, 77, 75
2, 960, Note_on_c, 0, 77, 0
2, 960, Note_on_c, 0, 75, 75
2, 1041, Note_on_c, 0, 75, 0
2, 1056, Note_on_c, 0, 74, 75
2, 1145, Note_on_c, 0, 74, 0
2, 1152, Note_on_c, 0, 72, 75
2, 1161, Note_on_c, 0, 72, 0
2, 1161, Note_on_c, 0, 74, 75
2, 1170, Note_on_c, 0, 74, 0
2, 1170, Note_on_c, 0, 72, 75
2, 1179, Note_on_c, 0, 72, 0
2, 1179, Note_on_c, 0, 74, 75
2, 1188, Note_on_c, 0, 74, 0
2, 1188, Note_on_c, 0, 72, 75
2, 1197, Note_on_c, 0, 72, 0
2, 1197, Note_on_c, 0, 74, 75
2, 1206, Note_on_c, 0, 74, 0
2, 1206, Note_on_c, 0, 72, 75
2, 1215, Note_on_c, 0, 72, 0
2, 1215, Note_on_c, 0, 71, 75
2, 1232, Note_on_c, 0, 71, 0
2, 1232, Note_on_c, 0, 72, 75
2, 1248, Note_on_c, 0, 72, 0
2, 1248, Note_on_c, 0, 79, 75
2, 1315, Note_on_c, 0, 79, 0
2, 1320, Note_on_c, 0, 75, 75
2, 1343, Note_on_c, 0, 75, 0
2, 1344, Note_on_c, 0, 74, 75
2, 1411, Note_on_c, 0, 74, 0
2, 1416, Note_on_c, 0, 72, 75
2, 1439, Note_on_c, 0, 72, 0
2, 1440, Note_on_c, 0, 70, 75
2, 1559, Note_on_c, 0, 70, 0
2, 1560, Note_on_c, 0, 69, 75
2, 1583, Note_on_c, 0, 69, 0
2, 1584, Note_on_c, 0, 70, 75
2, 1596, Note_on_c, 0, 70, 0
2, 1596, Note_on_c, 0, 69, 75
2, 1608, Note_on_c, 0, 69, 0
2, 1608, Note_on_c, 0, 67, 75
2, 1620, Note_on_c, 0, 67, 0
2, 1620, Note_on_c, 0, 69, 75
2, 1632, Note_on_c, 0, 69, 0
2, 1632, Note_on_c, 0, 70, 75
2, 1699, Note_on_c, 0, 70, 0
2, 1704, Note_on_c, 0, 74, 75
2, 1727, Note_on_c, 0, 74, 0
2, 1728, Note_on_c, 0, 65, 75
2, 1854, Note_on_c, 0, 65, 0
2, 1856, Note_on_c, 0, 67, 75
2, 1886, Note_on_c, 0, 67, 0
2, 1888, Note_on_c, 0, 65, 75
2, 1918, Note_on_c, 0, 65, 0
2, 1920, Note_on_c, 0, 63, 75
2, 1950, Note_on_c, 0, 63, 0
2, 1952, Note_on_c, 0, 62, 75
2, 1982, Note_on_c, 0, 62, 0
2, 1984, Note_on_c, 0, 63, 75
2, 2014, Note_on_c, 0, 63, 0
2, 2016, Note_on_c, 0, 63, 75
2, 2112, Note_on_c, 0, 63, 0
2, 2112, Note_on_c, 0, 62, 75
2, 2201, Note_on_c, 0, 62, 0
2, 2304, Note_on_c, 0, 77, 75
2, 2304, Note_on_c, 0, 74, 75
2, 2445, Note_on_c, 0, 77, 0
2, 2445, Note_on_c, 0, 74, 0
2, 2448, Note_on_c, 0, 79, 75
2, 2471, Note_on_c, 0, 79, 0
2, 2472, Note_on_c, 0, 81, 75
2, 2495, Note_on_c, 0, 81, 0
2, 2496, Note_on_c, 0, 84, 75
2, 2519, Note_on_c, 0, 84, 0
2, 2520, Note_on_c, 0, 82, 75
2, 2543, Note_on_c, 0, 82, 0
2, 2544, Note_on_c, 0, 81, 75
2, 2567, Note_on_c, 0, 81, 0
2, 2568, Note_on_c, 0, 79, 75
2, 2591, Note_on_c, 0, 79, 0
2, 2592, Note_on_c, 0, 77, 75
2, 2681, Note_on_c, 0, 77, 0
2, 2688, Note_on_c, 0, 75, 75
2, 2697, Note_on_c, 0, 75, 0
2, 2697, Note_on_c, 0, 77, 75
2, 2706, Note_on_c, 0, 77, 0
2, 2706, Note_on_c, 0, 75, 75
2, 2715, Note_on_c, 0, 75, 0
2, 2715, Note_on_c, 0, 77, 75
2, 2724, Note_on_c, 0, 77, 0
2, 2724, Note_on_c, 0, 75, 75
2, 2733, Note_on_c, 0, 75, 0
2, 2733, Note_on_c, 0, 77, 75
2, 2742, Note_on_c, 0, 77, 0
2, 2742, Note_on_c, 0, 75, 75
2, 2751, Note_on_c, 0, 75, 0
2, 2751, Note_on_c, 0, 74, 75
2, 2768, Note_on_c, 0, 74, 0
2, 2768, Note_on_c, 0, 75, 75
2, 2784, Note_on_c, 0, 75, 0
2, 2784, Note_on_c, 0, 74, 75
2, 2873, Note_on_c, 0, 74, 0
2, 2928, Note_on_c, 0, 78, 75
2, 2973, Note_on_c, 0, 78, 0
2, 2976, Note_on_c, 0, 79, 75
2, 3021, Note_on_c, 0, 79, 0
2, 3024, Note_on_c, 0, 81, 75
2, 3069, Note_on_c, 0, 81, 0
2, 3072, Note_on_c, 0, 84, 75
2, 3095, Note_on_c, 0, 84, 0
2, 3096, Note_on_c, 0, 82, 75
2, 3119, Note_on_c, 0, 82, 0
2, 3120, Note_on_c, 0, 81, 75
2, 3143, Note_on_c, 0, 81, 0
2, 3144, Note_on_c, 0, 79, 75
2, 3167, Note_on_c, 0, 79, 0
2, 3168, Note_on_c, 0, 79, 75
2, 3191, Note_on_c, 0, 79, 0
2, 3192, Note_on_c, 0, 77, 75
2, 3215, Note_on_c, 0, 77, 0
2, 3216, Note_on_c, 0, 76, 75
2, 3239, Note_on_c, 0, 76, 0
2, 3240, Note_on_c, 0, 79, 75
2, 3263, Note_on_c, 0, 79, 0
2, 3264, Note_on_c, 0, 77, 75
2, 3309, Note_on_c, 0, 77, 0
2, 3312, Note_on_c, 0, 79, 75
2, 3324, Note_on_c, 0, 79, 0
2, 3324, Note_on_c, 0, 77, 75
2, 3336, Note_on_c, 0, 77, 0
2, 3336, Note_on_c, 0, 76, 75
2, 3348, Note_on_c, 0, 76, 0
2, 3348, Note_on_c, 0, 77, 75
2, 3360, Note_on_c, 0, 77, 0
2, 3360, Note_on_c, 0, 82, 75
2, 3405, Note_on_c, 0, 82, 0
2, 3408, Note_on_c, 0, 74, 75
2, 3453, Note_on_c, 0, 74, 0
2, 3456, Note_on_c, 0, 77, 75
2, 3589, Note_on_c, 0, 77, 0
2, 3600, Note_on_c, 0, 75, 75
2, 3612, Note_on_c, 0, 75, 0
2, 3612, Note_on_c, 0, 77, 75
2, 3624, Note_on_c, 0, 77, 0
2, 3624, Note_on_c, 0, 75, 75
2, 3645, Note_on_c, 0, 75, 0
2, 3648, Note_on_c, 0, 74, 75
2, 3671, Note_on_c, 0, 74, 0
2, 3672, Note_on_c, 0, 75, 75
2, 3695, Note_on_c, 0, 75, 0
2, 3696, Note_on_c, 0, 76, 75
2, 3719, Note_on_c, 0, 76, 0
2, 3720, Note_on_c, 0, 77, 75
2, 3743, Note_on_c, 0, 77, 0
2, 3744, Note_on_c, 0, 75, 75
2, 3767, Note_on_c, 0, 75, 0
2, 3768, Note_on_c, 0, 74, 75
2, 3791, Note_on_c, 0, 74, 0
2, 3792, Note_on_c, 0, 72, 75
2, 3815, Note_on_c, 0, 72, 0
2, 3816, Note_on_c, 0, 74, 75
2, 3839, Note_on_c, 0, 74, 0
2, 3840, Note_on_c, 0, 72, 75
2, 3879, Note_on_c, 0, 72, 0
2, 4080, Note_on_c, 0, 84, 75
2, 4080, Note_on_c, 0, 81, 75
2, 4125, Note_on_c, 0, 84, 0
2, 4125, Note_on_c, 0, 81, 0
2, 4128, Note_on_c, 0, 82, 75
2, 4128, Note_on_c, 0, 79, 75
2, 4173, Note_on_c, 0, 82, 0
2, 4173, Note_on_c, 0, 79, 0
2, 4176, Note_on_c, 0, 81, 75
2, 4176, Note_on_c, 0, 77, 75
2, 4221, Note_on_c, 0, 81, 0
2, 4221, Note_on_c, 0, 77, 0
2, 4224, Note_on_c, 0, 79, 75
2, 4224, Note_on_c, 0, 76, 75
2, 4269, Note_on_c, 0, 79, 0
2, 4269, Note_on_c, 0, 76, 0
2, 4272, Note_on_c, 0, 81, 75
2, 4272, Note_on_c, 0, 77, 75
2, 4317, Note_on_c, 0, 81, 0
2, 4317, Note_on_c, 0, 77, 0
2, 4320, Note_on_c, 0, 81, 91
2, 4320, Note_on_c, 0, 78, 91
2, 4416, Note_on_c, 0, 81, 0
2, 4416, Note_on_c, 0, 78, 0
2, 4416, Note_on_c, 0, 82, 75
2, 4416, Note_on_c, 0, 79, 75
2, 4653, Note_on_c, 0, 82, 0
2, 4653, Note_on_c, 0, 79, 0
2, 4656, Note_on_c, 0, 86, 75
2, 4656, Note_on_c, 0, 82, 75
2, 4701, Note_on_c, 0, 86, 0
2, 4701, Note_on_c, 0, 82, 0
2, 4704, Note_on_c, 0, 84, 75
2, 4704, Note_on_c, 0, 81, 75
2, 4749, Note_on_c, 0, 84, 0
2, 4749, Note_on_c, 0, 81, 0
2, 4752, Note_on_c, 0, 82, 75
2, 4752, Note_on_c, 0, 79, 75
2, 4797, Note_on_c, 0, 82, 0
2, 4797, Note_on_c, 0, 79, 0
2, 4800, Note_on_c, 0, 81, 75
2, 4800, Note_on_c, 0, 77, 75
2, 4845, Note_on_c, 0, 81, 0
2, 4845, Note_on_c, 0, 77, 0
2, 4848, Note_on_c, 0, 79, 75
2, 4848, Note_on_c, 0, 76, 75
2, 4893, Note_on_c, 0, 79, 0
2, 4893, Note_on_c, 0, 76, 0
2, 4896, Note_on_c, 0, 80, 91
2, 4896, Note_on_c, 0, 76, 91
2, 4992, Note_on_c, 0, 80, 0
2, 4992, Note_on_c, 0, 76, 0
2, 4992, Note_on_c, 0, 81, 75
2, 4992, Note_on_c, 0, 77, 75
2, 5169, Note_on_c, 0, 81, 0
2, 5169, Note_on_c, 0, 77, 0
2, 5232, Note_on_c, 0, 80, 75
2, 5277, Note_on_c, 0, 80, 0
2, 5280, Note_on_c, 0, 81, 75
2, 5325, Note_on_c, 0, 81, 0
2, 5328, Note_on_c, 0, 76, 75
2, 5373, Note_on_c, 0, 76, 0
2, 5376, Note_on_c, 0, 77, 75
2, 5421, Note_on_c, 0, 77, 0
2, 5424, Note_on_c, 0, 74, 75
2, 5469, Note_on_c, 0, 74, 0
2, 5472, Note_on_c, 0, 72, 75
2, 5517, Note_on_c, 0, 72, 0
2, 5520, Note_on_c, 0, 71, 75
2, 5609, Note_on_c, 0, 71, 0
2, 5616, Note_on_c, 0, 80, 75
2, 5705, Note_on_c, 0, 80, 0
2, 5712, Note_on_c, 0, 79, 75
2, 5805, Note_on_c, 0, 79, 0
2, 5808, Note_on_c, 0, 86, 75
2, 5897, Note_on_c, 0, 86, 0
2, 5904, Note_on_c, 0, 84, 75
2, 5949, Note_on_c, 0, 84, 0
2, 5952, Note_on_c, 0, 84, 75
2, 5986, Note_on_c, 0, 84, 0
2, 5988, Note_on_c, 0, 82, 75
2, 6000, Note_on_c, 0, 82, 0
2, 6000, Note_on_c, 0, 84, 75
2, 6012, Note_on_c, 0, 84, 0
2, 6012, Note_on_c, 0, 82, 75
2, 6024, Note_on_c, 0, 82, 0
2, 6024, Note_on_c, 0, 81, 75
2, 6036, Note_on_c, 0, 81, 0
2, 6036, Note_on_c, 0, 82, 75
2, 6048, Note_on_c, 0, 82, 0
2, 6048, Note_on_c, 0, 82, 75
2, 6093, Note_on_c, 0, 82, 0
2, 6096, Note_on_c, 0, 80, 75
2, 6141, Note_on_c, 0, 80, 0
2, 6144, Note_on_c, 0, 81, 75
2, 6263, Note_on_c, 0, 81, 0
2, 6264, Note_on_c, 0, 84, 75
2, 6287, Note_on_c, 0, 84, 0
2, 6288, Note_on_c, 0, 82, 75
2, 6311, Note_on_c, 0, 82, 0
2, 6312, Note_on_c, 0, 81, 75
2, 6335, Note_on_c, 0, 81, 0
2, 6336, Note_on_c, 0, 81, 75
2, 6381, Note_on_c, 0, 81, 0
2, 6384, Note_on_c, 0, 78, 75
2, 6429, Note_on_c, 0, 78, 0
2, 6432, Note_on_c, 0, 79, 75
2, 6551, Note_on_c, 0, 79, 0
2, 6552, Note_on_c, 0, 82, 75
2, 6575, Note_on_c, 0, 82, 0
2, 6576, Note_on_c, 0, 81, 75
2, 6599, Note_on_c, 0, 81, 0
2, 6600, Note_on_c, 0, 79, 75
2, 6623, Note_on_c, 0, 79, 0
2, 6624, Note_on_c, 0, 79, 75
2, 6669, Note_on_c, 0, 79, 0
2, 6672, Note_on_c, 0, 77, 75
2, 6761, Note_on_c, 0, 77, 0
2, 6768, Note_on_c, 0, 77, 75
2, 6839, Note_on_c, 0, 77, 0
2, 6840, Note_on_c, 0, 81, 75
2, 6863, Note_on_c, 0, 81, 0
2, 6864, Note_on_c, 0, 79, 75
2, 6887, Note_on_c, 0, 79, 0
2, 6888, Note_on_c, 0, 77, 75
2, 6911, Note_on_c, 0, 77, 0
2, 6912, Note_on_c, 0, 77, 75
2, 7053, Note_on_c, 0, 77, 0
2, 7056, Note_on_c, 0, 75, 75
2, 7101, Note_on_c, 0, 75, 0
2, 7104, Note_on_c, 0, 76, 75
2, 7127, Note_on_c, 0, 76, 0
2, 7128, Note_on_c, 0, 79, 75
2, 7151, Note_on_c, 0, 79, 0
2, 7152, Note_on_c, 0, 77, 75
2, 7175, Note_on_c, 0, 77, 0
2, 7176, Note_on_c, 0, 81, 75
2, 7199, Note_on_c, 0, 81, 0
2, 7200, Note_on_c, 0, 79, 75
2, 7223, Note_on_c, 0, 79, 0
2, 7224, Note_on_c, 0, 82, 75
2, 7247, Note_on_c, 0, 82, 0
2, 7248, Note_on_c, 0, 81, 75
2, 7271, Note_on_c, 0, 81, 0
2, 7272, Note_on_c, 0, 84, 75
2, 7295, Note_on_c, 0, 84, 0
2, 7296, Note_on_c, 0, 82, 75
2, 7319, Note_on_c, 0, 82, 0
2, 7320, Note_on_c, 0, 81, 75
2, 7343, Note_on_c, 0, 81, 0
2, 7344, Note_on_c, 0, 79, 75
2, 7367, Note_on_c, 0, 79, 0
2, 7368, Note_on_c, 0, 77, 75
2, 7391, Note_on_c, 0, 77, 0
2, 7392, Note_on_c, 0, 76, 75
2, 7415, Note_on_c, 0, 76, 0
2, 7416, Note_on_c, 0, 74, 75
2, 7439, Note_on_c, 0, 74, 0
2, 7440, Note_on_c, 0, 72, 75
2, 7463, Note_on_c, 0, 72, 0
2, 7464, Note_on_c, 0, 70, 75
2, 7487, Note_on_c, 0, 70, 0
2, 7488, Note_on_c, 0, 69, 75
2, 7533, Note_on_c, 0, 69, 0
2, 7536, Note_on_c, 0, 77, 75
2, 7669, Note_on_c, 0, 77, 0
2, 7680, Note_on_c, 0, 76, 75
2, 7769, Note_on_c, 0, 76, 0
2, 7776, Note_on_c, 0, 74, 75
2, 7953, Note_on_c, 0, 74, 0
2, 7968, Note_on_c, 0, 72, 75
2, 8057, Note_on_c, 0, 72, 0
2, 8064, Note_on_c, 0, 70, 75
2, 8301, Note_on_c, 0, 70, 0
2, 8304, Note_on_c, 0, 69, 75
2, 8375, Note_on_c, 0, 69, 0
2, 8376, Note_on_c, 0, 67, 75
2, 8399, Note_on_c, 0, 67, 0
2, 8400, Note_on_c, 0, 70, 75
2, 8423, Note_on_c, 0, 70, 0
2, 8424, Note_on_c, 0, 67, 75
2, 8447, Note_on_c, 0, 67, 0
2, 8448, Note_on_c, 0, 65, 75
2, 8537, Note_on_c, 0, 65, 0
2, 8544, Note_on_c, 0, 64, 75
2, 8555, Note_on_c, 0, 64, 0
2, 8555, Note_on_c, 0, 65, 75
2, 8566, Note_on_c, 0, 65, 0
2, 8566, Note_on_c, 0, 64, 75
2, 8577, Note_on_c, 0, 64, 0
2, 8577, Note_on_c, 0, 65, 75
2, 8588, Note_on_c, 0, 65, 0
2, 8588, Note_on_c, 0, 64, 75
2, 8599, Note_on_c, 0, 64, 0
2, 8599, Note_on_c, 0, 62, 75
2, 8620, Note_on_c, 0, 62, 0
2, 8620, Note_on_c, 0, 64, 75
2, 8640, Note_on_c, 0, 64, 0
2, 8640, Note_on_c, 0, 77, 75
2, 8817, Note_on_c, 0, 77, 0
2, 8832, Note_on_c, 0, 76, 75
2, 8921, Note_on_c, 0, 76, 0
2, 8928, Note_on_c, 0, 74, 75
2, 9105, Note_on_c, 0, 74, 0
2, 9120, Note_on_c, 0, 72, 75
2, 9209, Note_on_c, 0, 72, 0
2, 9216, Note_on_c, 0, 70, 75
2, 9453, Note_on_c, 0, 70, 0
2, 9456, Note_on_c, 0, 70, 75
2, 9501, Note_on_c, 0, 70, 0
2, 9504, Note_on_c, 0, 72, 75
2, 9527, Note_on_c, 0, 72, 0
2, 9528, Note_on_c, 0, 70, 75
2, 9551, Note_on_c, 0, 70, 0
2, 9552, Note_on_c, 0, 69, 75
2, 9575, Note_on_c, 0, 69, 0
2, 9576, Note_on_c, 0, 70, 75
2, 9599, Note_on_c, 0, 70, 0
2, 9600, Note_on_c, 0, 79, 75
2, 9600, Note_on_c, 0, 70, 75
2, 9969, Note_on_c, 0, 79, 0
2, 9969, Note_on_c, 0, 70, 0
2, 10032, Note_on_c, 0, 76, 75
2, 10056, Note_on_c, 0, 76, 0
2, 10056, Note_on_c, 0, 72, 75
2, 10079, Note_on_c, 0, 72, 0
2, 10080, Note_on_c, 0, 77, 75
2, 10100, Note_on_c, 0, 77, 0
2, 10128, Note_on_c, 0, 76, 75
2, 10152, Note_on_c, 0, 76, 0
2, 10152, Note_on_c, 0, 72, 75
2, 10175, Note_on_c, 0, 72, 0
2, 10176, Note_on_c, 0, 77, 75
2, 10196, Note_on_c, 0, 77, 0
2, 10224, Note_on_c, 0, 76, 75
2, 10248, Note_on_c, 0, 76, 0
2, 10248, Note_on_c, 0, 72, 75
2, 10271, Note_on_c, 0, 72, 0
2, 10272, Note_on_c, 0, 77, 75
2, 10292, Note_on_c, 0, 77, 0
2, 10320, Note_on_c, 0, 79, 75
2, 10344, Note_on_c, 0, 79, 0
2, 10344, Note_on_c, 0, 72, 75
2, 10367, Note_on_c, 0, 72, 0
2, 10368, Note_on_c, 0, 81, 75
2, 10388, Note_on_c, 0, 81, 0
2, 10416, Note_on_c, 0, 82, 75
2, 10439, Note_on_c, 0, 82, 0
2, 10440, Note_on_c, 0, 72, 75
2, 10463, Note_on_c, 0, 72, 0
2, 10464, Note_on_c, 0, 84, 75
2, 10484, Note_on_c, 0, 84, 0
2, 10560, Note_on_c, 0, 82, 75
2, 10583, Note_on_c, 0, 82, 0
2, 10584, Note_on_c, 0, 81, 75
2, 10607, Note_on_c, 0, 81, 0
2, 10608, Note_on_c, 0, 79, 75
2, 10631, Note_on_c, 0, 79, 0
2, 10632, Note_on_c, 0, 77, 75
2, 10655, Note_on_c, 0, 77, 0
2, 10656, Note_on_c, 0, 76, 75
2, 10679, Note_on_c, 0, 76, 0
2, 10680, Note_on_c, 0, 74, 75
2, 10703, Note_on_c, 0, 74, 0
2, 10704, Note_on_c, 0, 72, 75
2, 10727, Note_on_c, 0, 72, 0
2, 10728, Note_on_c, 0, 70, 75
2, 10751, Note_on_c, 0, 70, 0
2, 10752, Note_on_c, 0, 69, 75
2, 10841, Note_on_c, 0, 69, 0
2, 10848, Note_on_c, 0, 67, 75
2, 10857, Note_on_c, 0, 67, 0
2, 10857, Note_on_c, 0, 69, 75
2, 10866, Note_on_c, 0, 69, 0
2, 10866, Note_on_c, 0, 67, 75
2, 10875, Note_on_c, 0, 67, 0
2, 10875, Note_on_c, 0, 69, 75
2, 10884, Note_on_c, 0, 69, 0
2, 10884, Note_on_c, 0, 67, 75
2, 10893, Note_on_c, 0, 67, 0
2, 10893, Note_on_c, 0, 69, 75
2, 10902, Note_on_c, 0, 69, 0
2, 10902, Note_on_c, 0, 67, 75
2, 10911, Note_on_c, 0, 67, 0
2, 10911, Note_on_c, 0, 65, 75
2, 10928, Note_on_c, 0, 65, 0
2, 10928, Note_on_c, 0, 67, 75
2, 10944, Note_on_c, 0, 67, 0
2, 10944, Note_on_c, 0, 65, 75
2, 10989, Note_on_c, 0, 65, 0
2, 10992, Note_on_c, 0, 76, 75
2, 11015, Note_on_c, 0, 76, 0
2, 11016, Note_on_c, 0, 72, 75
2, 11039, Note_on_c, 0, 72, 0
2, 11040, Note_on_c, 0, 77, 75
2, 11063, Note_on_c, 0, 77, 0
2, 11064, Note_on_c, 0, 72, 75
2, 11087, Note_on_c, 0, 72, 0
2, 11088, Note_on_c, 0, 76, 75
2, 11111, Note_on_c, 0, 76, 0
2, 11112, Note_on_c, 0, 72, 75
2, 11135, Note_on_c, 0, 72, 0
2, 11136, Note_on_c, 0, 77, 75
2, 11159, Note_on_c, 0, 77, 0
2, 11160, Note_on_c, 0, 72, 75
2, 11183, Note_on_c, 0, 72, 0
2, 11184, Note_on_c, 0, 79, 75
2, 11207, Note_on_c, 0, 79, 0
2, 11208, Note_on_c, 0, 72, 75
2, 11231, Note_on_c, 0, 72, 0
2, 11232, Note_on_c, 0, 81, 75
2, 11255, Note_on_c, 0, 81, 0
2, 11256, Note_on_c, 0, 72, 75
2, 11279, Note_on_c, 0, 72, 0
2, 11280, Note_on_c, 0, 82, 75
2, 11303, Note_on_c, 0, 82, 0
2, 11304, Note_on_c, 0, 72, 75
2, 11327, Note_on_c, 0, 72, 0
2, 11328, Note_on_c, 0, 84, 75
2, 11348, Note_on_c, 0, 84, 0
2, 11376, Note_on_c, 0, 77, 75
2, 11399, Note_on_c, 0, 77, 0
2, 11400, Note_on_c, 0, 89, 75
2, 11423, Note_on_c, 0, 89, 0
2, 11424, Note_on_c, 0, 76, 75
2, 11447, Note_on_c, 0, 76, 0
2, 11448, Note_on_c, 0, 88, 75
2, 11471, Note_on_c, 0, 88, 0
2, 11472, Note_on_c, 0, 75, 75
2, 11495, Note_on_c, 0, 75, 0
2, 11496, Note_on_c, 0, 87, 75
2, 11519, Note_on_c, 0, 87, 0
2, 11520, Note_on_c, 0, 74, 75
2, 11543, Note_on_c, 0, 74, 0
2, 11544, Note_on_c, 0, 86, 75
2, 11544, Note_on_c, 0, 82, 75
2, 11567, Note_on_c, 0, 86, 0
2, 11567, Note_on_c, 0, 82, 0
2, 11568, Note_on_c, 0, 84, 75
2, 11568, Note_on_c, 0, 81, 75
2, 11591, Note_on_c, 0, 84, 0
2, 11591, Note_on_c, 0, 81, 0
2, 11592, Note_on_c, 0, 82, 75
2, 11592, Note_on_c, 0, 79, 75
2, 11615, Note_on_c, 0, 82, 0
2, 11615, Note_on_c, 0, 79, 0
2, 11616, Note_on_c, 0, 81, 75
2, 11616, Note_on_c, 0, 77, 75
2, 11705, Note_on_c, 0, 81, 0
2, 11705, Note_on_c, 0, 77, 0
2, 11712, Note_on_c, 0, 79, 75
2, 11721, Note_on_c, 0, 79, 0
2, 11721, Note_on_c, 0, 81, 75
2, 11730, Note_on_c, 0, 81, 0
2, 11730, Note_on_c, 0, 79, 75
2, 11739, Note_on_c, 0, 79, 0
2, 11739, Note_on_c, 0, 81, 75
2, 11748, Note_on_c, 0, 81, 0
2, 11748, Note_on_c, 0, 79, 75
2, 11757, Note_on_c, 0, 79, 0
2, 11757, Note_on_c, 0, 81, 75
2, 11766, Note_on_c, 0, 81, 0
2, 11766, Note_on_c, 0, 79, 75
2, 11775, Note_on_c, 0, 79, 0
2, 11775, Note_on_c, 0, 77, 75
2, 11792, Note_on_c, 0, 77, 0
2, 11792, Note_on_c, 0, 79, 75
2, 11808, Note_on_c, 0, 79, 0
2, 11808, Note_on_c, 0, 77, 75
2, 11897, Note_on_c, 0, 77, 0
2, 11952, Note_on_c, 0, 72, 70
2, 11952, Note_on_c, 0, 69, 70
2, 12000, Note_on_c, 0, 72, 0
2, 12000, Note_on_c, 0, 69, 0
2, 12000, Note_on_c, 0, 74, 70
2, 12000, Note_on_c, 0, 70, 70
2, 12045, Note_on_c, 0, 74, 0
2, 12045, Note_on_c, 0, 70, 0
2, 12048, Note_on_c, 0, 70, 70
2, 12048, Note_on_c, 0, 64, 70
2, 12068, Note_on_c, 0, 70, 0
2, 12068, Note_on_c, 0, 64, 0
2, 12096, Note_on_c, 0, 70, 70
2, 12096, Note_on_c, 0, 64, 70
2, 12192, Note_on_c, 0, 70, 0
2, 12192, Note_on_c, 0, 64, 0
2, 12192, Note_on_c, 0, 69, 70
2, 12192, Note_on_c, 0, 65, 70
2, 12212, Note_on_c, 0, 69, 0
2, 12212, Note_on_c, 0, 65, 0
2, 12240, Note_on_c, 0, 69, 70
2, 12240, Note_on_c, 0, 60, 70
2, 12288, Note_on_c, 0, 69, 0
2, 12288, Note_on_c, 0, 60, 0
2, 12288, Note_on_c, 0, 70, 70
2, 12288, Note_on_c, 0, 62, 70
2, 12333, Note_on_c, 0, 70, 0
2, 12333, Note_on_c, 0, 62, 0
2, 12336, Note_on_c, 0, 64, 70
2, 12336, Note_on_c, 0, 58, 70
2, 12356, Note_on_c, 0, 64, 0
2, 12356, Note_on_c, 0, 58, 0
2, 12384, Note_on_c, 0, 64, 70
2, 12384, Note_on_c, 0, 58, 70
2, 12480, Note_on_c, 0, 64, 0
2, 12480, Note_on_c, 0, 58, 0
2, 12480, Note_on_c, 0, 65, 70
2, 12480, Note_on_c, 0, 57, 70
2, 12500, Note_on_c, 0, 65, 0
2, 12500, Note_on_c, 0, 57, 0
2, 12528, Note_on_c, 0, 60, 70
2, 12528, Note_on_c, 0, 57, 70
2, 12573, Note_on_c, 0, 60, 0
2, 12573, Note_on_c, 0, 57, 0
2, 12576, Note_on_c, 0, 62, 70
2, 12576, Note_on_c, 0, 58, 70
2, 12621, Note_on_c, 0, 62, 0
2, 12621, Note_on_c, 0, 58, 0
2, 12960, Note_on_c, 0, 77, 75
2, 12960, Note_on_c, 0, 74, 75
2, 13137, Note_on_c, 0, 77, 0
2, 13137, Note_on_c, 0, 74, 0
2, 13152, Note_on_c, 0, 81, 75
2, 13158, Note_on_c, 0, 81, 0
2, 13158, Note_on_c, 0, 79, 75
2, 13158, Note_on_c, 0, 75, 75
2, 13219, Note_on_c, 0, 79, 0
2, 13219, Note_on_c, 0, 75, 0
2, 13224, Note_on_c, 0, 77, 75
2, 13224, Note_on_c, 0, 74, 75
2, 13247, Note_on_c, 0, 77, 0
2, 13247, Note_on_c, 0, 74, 0
2, 13248, Note_on_c, 0, 77, 75
2, 13248, Note_on_c, 0, 74, 75
2, 13337, Note_on_c, 0, 77, 0
2, 13337, Note_on_c, 0, 74, 0
2, 13344, Note_on_c, 0, 75, 75
2, 13353, Note_on_c, 0, 75, 0
2, 13353, Note_on_c, 0, 77, 75
2, 13362, Note_on_c, 0, 77, 0
2, 13362, Note_on_c, 0, 75, 75
2, 13371, Note_on_c, 0, 75, 0
2, 13371, Note_on_c, 0, 77, 75
2, 13380, Note_on_c, 0, 77, 0
2, 13380, Note_on_c, 0, 75, 75
2, 13389, Note_on_c, 0, 75, 0
2, 13389, Note_on_c, 0, 77, 75
2, 13398, Note_on_c, 0, 77, 0
2, 13398, Note_on_c, 0, 75, 75
2, 13407, Note_on_c, 0, 75, 0
2, 13407, Note_on_c, 0, 74, 75
2, 13424, Note_on_c, 0, 74, 0
2, 13424, Note_on_c, 0, 75, 75
2, 13440, Note_on_c, 0, 75, 0
2, 13440, Note_on_c, 0, 74, 75
2, 13440, Note_on_c, 0, 70, 75
2, 13529, Note_on_c, 0, 74, 0
2, 13529, Note_on_c, 0, 70, 0
2, 13536, Note_on_c, 0, 79, 75
2, 13546, Note_on_c, 0, 79, 0
2, 13560, Note_on_c, 0, 81, 75
2, 13568, Note_on_c, 0, 81, 0
2, 13568, Note_on_c, 0, 79, 75
2, 13576, Note_on_c, 0, 79, 0
2, 13576, Note_on_c, 0, 78, 75
2, 13584, Note_on_c, 0, 78, 0
2, 13584, Note_on_c, 0, 79, 75
2, 13607, Note_on_c, 0, 79, 0
2, 13608, Note_on_c, 0, 81, 75
2, 13631, Note_on_c, 0, 81, 0
2, 13632, Note_on_c, 0, 82, 75
2, 13699, Note_on_c, 0, 82, 0
2, 13704, Note_on_c, 0, 81, 75
2, 13727, Note_on_c, 0, 81, 0
2, 13728, Note_on_c, 0, 79, 75
2, 13795, Note_on_c, 0, 79, 0
2, 13800, Note_on_c, 0, 77, 75
2, 13823, Note_on_c, 0, 77, 0
2, 13824, Note_on_c, 0, 77, 75
2, 13920, Note_on_c, 0, 77, 0
2, 13920, Note_on_c, 0, 75, 75
2, 14001, Note_on_c, 0, 75, 0
2, 14016, Note_on_c, 0, 74, 75
2, 14105, Note_on_c, 0, 74, 0
2, 14112, Note_on_c, 0, 72, 75
2, 14121, Note_on_c, 0, 72, 0
2, 14121, Note_on_c, 0, 74, 75
2, 14130, Note_on_c, 0, 74, 0
2, 14130, Note_on_c, 0, 72, 75
2, 14139, Note_on_c, 0, 72, 0
2, 14139, Note_on_c, 0, 74, 75
2, 14148, Note_on_c, 0, 74, 0
2, 14148, Note_on_c, 0, 72, 75
2, 14157, Note_on_c, 0, 72, 0
2, 14157, Note_on_c, 0, 74, 75
2, 14166, Note_on_c, 0, 74, 0
2, 14166, Note_on_c, 0, 72, 75
2, 14175, Note_on_c, 0, 72, 0
2, 14175, Note_on_c, 0, 71, 75
2, 14192, Note_on_c, 0, 71, 0
2, 14192, Note_on_c, 0, 72, 75
2, 14208, Note_on_c, 0, 72, 0
2, 14208, Note_on_c, 0, 79, 75
2, 14275, Note_on_c, 0, 79, 0
2, 14280, Note_on_c, 0, 75, 75
2, 14303, Note_on_c, 0, 75, 0
2, 14304, Note_on_c, 0, 74, 75
2, 14371, Note_on_c, 0, 74, 0
2, 14376, Note_on_c, 0, 72, 75
2, 14399, Note_on_c, 0, 72, 0
2, 14400, Note_on_c, 0, 70, 75
2, 14519, Note_on_c, 0, 70, 0
2, 14520, Note_on_c, 0, 69, 75
2, 14543, Note_on_c, 0, 69, 0
2, 14544, Note_on_c, 0, 70, 75
2, 14556, Note_on_c, 0, 70, 0
2, 14556, Note_on_c, 0, 69, 75
2, 14568, Note_on_c, 0, 69, 0
2, 14568, Note_on_c, 0, 67, 75
2, 14580, Note_on_c, 0, 67, 0
2, 14580, Note_on_c, 0, 69, 75
2, 14592, Note_on_c, 0, 69, 0
2, 14592, Note_on_c, 0, 70, 75
2, 14659, Note_on_c, 0, 70, 0
2, 14664, Note_on_c, 0, 74, 75
2, 14687, Note_on_c, 0, 74, 0
2, 14688, Note_on_c, 0, 65, 75
2, 14814, Note_on_c, 0, 65, 0
2, 14816, Note_on_c, 0, 67, 75
2, 14846, Note_on_c, 0, 67, 0
2, 14848, Note_on_c, 0, 65, 75
2, 14878, Note_on_c, 0, 65, 0
2, 14880, Note_on_c, 0, 63, 75
2, 14910, Note_on_c, 0, 63, 0
2, 14912, Note_on_c, 0, 62, 75
2, 14942, Note_on_c, 0, 62, 0
2, 14944, Note_on_c, 0, 63, 75
2, 14974, Note_on_c, 0, 63, 0
2, 14976, Note_on_c, 0, 63, 75
2, 15072, Note_on_c, 0, 63, 0
2, 15072, Note_on_c, 0, 62, 75
2, 15161, Note_on_c, 0, 62, 0
2, 15264, Note_on_c, 0, 77, 75
2, 15264, Note_on_c, 0, 74, 75
2, 15405, Note_on_c, 0, 77, 0
2, 15405, Note_on_c, 0, 74, 0
2, 15408, Note_on_c, 0, 79, 75
2, 15431, Note_on_c, 0, 79, 0
2, 15432, Note_on_c, 0, 81, 75
2, 15455, Note_on_c, 0, 81, 0
2, 15456, Note_on_c, 0, 84, 75
2, 15479, Note_on_c, 0, 84, 0
2, 15480, Note_on_c, 0, 82, 75
2, 15503, Note_on_c, 0, 82, 0
2, 15504, Note_on_c, 0, 81, 75
2, 15527, Note_on_c, 0, 81, 0
2, 15528, Note_on_c, 0, 79, 75
2, 15551, Note_on_c, 0, 79, 0
2, 15552, Note_on_c, 0, 77, 75
2, 15641, Note_on_c, 0, 77, 0
2, 15648, Note_on_c, 0, 75, 75
2, 15657, Note_on_c, 0, 75, 0
2, 15657, Note_on_c, 0, 77, 75
2, 15666, Note_on_c, 0, 77, 0
2, 15666, Note_on_c, 0, 75, 75
2, 15675, Note_on_c, 0, 75, 0
2, 15675, Note_on_c, 0, 77, 75
2, 15684, Note_on_c, 0, 77, 0
2, 15684, Note_on_c, 0, 75, 75
2, 15693, Note_on_c, 0, 75, 0
2, 15693, Note_on_c, 0, 77, 75
2, 15702, Note_on_c, 0, 77, 0
2, 15702, Note_on_c, 0, 75, 75
2, 15711, Note_on_c, 0, 75, 0
2, 15711, Note_on_c, 0, 74, 75
2, 15728, Note_on_c, 0, 74, 0
2, 15728, Note_on_c, 0, 75, 75
2, 15744, Note_on_c, 0, 75, 0
2, 15744, Note_on_c, 0, 74, 75
2, 15833, Note_on_c, 0, 74, 0
2, 15888, Note_on_c, 0, 78, 75
2, 15933, Note_on_c, 0, 78, 0
2, 15936, Note_on_c, 0, 79, 75
2, 15981, Note_on_c, 0, 79, 0
2, 15984, Note_on_c, 0, 81, 75
2, 16029, Note_on_c, 0, 81, 0
2, 16032, Note_on_c, 0, 84, 75
2, 16055, Note_on_c, 0, 84, 0
2, 16056, Note_on_c, 0, 82, 75
2, 16079, Note_on_c, 0, 82, 0
2, 16080, Note_on_c, 0, 81, 75
2, 16103, Note_on_c, 0, 81, 0
2, 16104, Note_on_c, 0, 79, 75
2, 16127, Note_on_c, 0, 79, 0
2, 16128, Note_on_c, 0, 79, 75
2, 16151, Note_on_c, 0, 79, 0
2, 16152, Note_on_c, 0, 77, 75
2, 16175, Note_on_c, 0, 77, 0
2, 16176, Note_on_c, 0, 76, 75
2, 16199, Note_on_c, 0, 76, 0
2, 16200, Note_on_c, 0, 79, 75
2, 16223, Note_on_c, 0, 79, 0
2, 16224, Note_on_c, 0, 77, 75
2, 16269, Note_on_c, 0, 77, 0
2, 16272, Note_on_c, 0, 79, 75
2, 16284, Note_on_c, 0, 79, 0
2, 16284, Note_on_c, 0, 77, 75
2, 16296, Note_on_c, 0, 77, 0
2, 16296, Note_on_c, 0, 76, 75
2, 16308, Note_on_c, 0, 76, 0
2, 16308, Note_on_c, 0, 77, 75
2, 16320, Note_on_c, 0, 77, 0
2, 16320, Note_on_c, 0, 82, 75
2, 16365, Note_on_c, 0, 82, 0
2, 16368, Note_on_c, 0, 74, 75
2, 16413, Note_on_c, 0, 74, 0
2, 16416, Note_on_c, 0, 77, 75
2, 16549, Note_on_c, 0, 77, 0
2, 16560, Note_on_c, 0, 75, 75
2, 16572, Note_on_c, 0, 75, 0
2, 16572, Note_on_c, 0, 77, 75
2, 16584, Note_on_c, 0, 77, 0
2, 16584, Note_on_c, 0, 75, 75
2, 16605, Note_on_c, 0, 75, 0
2, 16608, Note_on_c, 0, 74, 75
2, 16631, Note_on_c, 0, 74, 0
2, 16632, Note_on_c, 0, 75, 75
2, 16655, Note_on_c, 0, 75, 0
2, 16656, Note_on_c, 0, 76, 75
2, 16679, Note_on_c, 0, 76, 0
2, 16680, Note_on_c, 0, 77, 75
2, 16703, Note_on_c, 0, 77, 0
2, 16704, Note_on_c, 0, 75, 75
2, 16727, Note_on_c, 0, 75, 0
2, 16728, Note_on_c, 0, 74, 75
2, 16751, Note_on_c, 0, 74, 0
2, 16752, Note_on_c, 0, 72, 75
2, 16775, Note_on_c, 0, 72, 0
2, 16776, Note_on_c, 0, 74, 75
2, 16799, Note_on_c, 0, 74, 0
2, 16800, Note_on_c, 0, 72, 75
2, 16839, Note_on_c, 0, 72, 0
2, 17040, Note_on_c, 0, 84, 75
2, 17040, Note_on_c, 0, 81, 75
2, 17085, Note_on_c, 0, 84, 0
2, 17085, Note_on_c, 0, 81, 0
2, 17088, Note_on_c, 0, 82, 75
2, 17088, Note_on_c, 0, 79, 75
2, 17133, Note_on_c, 0, 82, 0
2, 17133, Note_on_c, 0, 79, 0
2, 17136, Note_on_c, 0, 81, 75
2, 17136, Note_on_c, 0, 77, 75
2, 17181, Note_on_c, 0, 81, 0
2, 17181, Note_on_c, 0, 77, 0
2, 17184, Note_on_c, 0, 79, 75
2, 17184, Note_on_c, 0, 76, 75
2, 17229, Note_on_c, 0, 79, 0
2, 17229, Note_on_c, 0, 76, 0
2, 17232, Note_on_c, 0, 81, 75
2, 17232, Note_on_c, 0, 77, 75
2, 17277, Note_on_c, 0, 81, 0
2, 17277, Note_on_c, 0, 77, 0
2, 17280, Note_on_c, 0, 81, 91
2, 17280, Note_on_c, 0, 78, 91
2, 17376, Note_on_c, 0, 81, 0
2, 17376, Note_on_c, 0, 78, 0
2, 17376, Note_on_c, 0, 82, 75
2, 17376, Note_on_c, 0, 79, 75
2, 17613, Note_on_c, 0, 82, 0
2, 17613, Note_on_c, 0, 79, 0
2, 17616, Note_on_c, 0, 86, 75
2, 17616, Note_on_c, 0, 82, 75
2, 17661, Note_on_c, 0, 86, 0
2, 17661, Note_on_c, 0, 82, 0
2, 17664, Note_on_c, 0, 84, 75
2, 17664, Note_on_c, 0, 81, 75
2, 17709, Note_on_c, 0, 84, 0
2, 17709, Note_on_c, 0, 81, 0
2, 17712, Note_on_c, 0, 82, 75
2, 17712, Note_on_c, 0, 79, 75
2, 17757, Note_on_c, 0, 82, 0
2, 17757, Note_on_c, 0, 79, 0
2, 17760, Note_on_c, 0, 81, 75
2, 17760, Note_on_c, 0, 77, 75
2, 17805, Note_on_c, 0, 81, 0
2, 17805, Note_on_c, 0, 77, 0
2, 17808, Note_on_c, 0, 79, 75
2, 17808, Note_on_c, 0, 76, 75
2, 17853, Note_on_c, 0, 79, 0
2, 17853, Note_on_c, 0, 76, 0
2, 17856, Note_on_c, 0, 80, 91
2, 17856, Note_on_c, 0, 76, 91
2, 17952, Note_on_c, 0, 80, 0
2, 17952, Note_on_c, 0, 76, 0
2, 17952, Note_on_c, 0, 81, 75
2, 17952, Note_on_c, 0, 77, 75
2, 18129, Note_on_c, 0, 81, 0
2, 18129, Note_on_c, 0, 77, 0
2, 18192, Note_on_c, 0, 80, 75
2, 18237, Note_on_c, 0, 80, 0
2, 18240, Note_on_c, 0, 81, 75
2, 18285, Note_on_c, 0, 81, 0
2, 18288, Note_on_c, 0, 76, 75
2, 18333, Note_on_c, 0, 76, 0
2, 18336, Note_on_c, 0, 77, 75
2, 18381, Note_on_c, 0, 77, 0
2, 18384, Note_on_c, 0, 74, 75
2, 18429, Note_on_c, 0, 74, 0
2, 18432, Note_on_c, 0, 72, 75
2, 18477, Note_on_c, 0, 72, 0
2, 18480, Note_on_c, 0, 71, 75
2, 18569, Note_on_c, 0, 71, 0
2, 18576, Note_on_c, 0, 80, 75
2, 18665, Note_on_c, 0, 80, 0
2, 18672, Note_on_c, 0, 79, 75
2, 18765, Note_on_c, 0, 79, 0
2, 18768, Note_on_c, 0, 86, 75
2, 18857, Note_on_c, 0, 86, 0
2, 18864, Note_on_c, 0, 84, 75
2, 18909, Note_on_c, 0, 84, 0
2, 18912, Note_on_c, 0, 84, 75
2, 18946, Note_on_c, 0, 84, 0
2, 18948, Note_on_c, 0, 82, 75
2, 18960, Note_on_c, 0, 82, 0
2, 18960, Note_on_c, 0, 84, 75
2, 18972, Note_on_c, 0, 84, 0
2, 18972, Note_on_c, 0, 82, 75
2, 18984, Note_on_c, 0, 82, 0
2, 18984, Note_on_c, 0, 81, 75
2, 18996, Note_on_c, 0, 81, 0
2, 18996, Note_on_c, 0, 82, 75
2, 19008, Note_on_c, 0, 82, 0
2, 19008, Note_on_c, 0, 82, 75
2, 19053, Note_on_c, 0, 82, 0
2, 19056, Note_on_c, 0, 80, 75
2, 19101, Note_on_c, 0, 80, 0
2, 19104, Note_on_c, 0, 81, 75
2, 19223, Note_on_c, 0, 81, 0
2, 19224, Note_on_c, 0, 84, 75
2, 19247, Note_on_c, 0, 84, 0
2, 19248, Note_on_c, 0, 82, 75
2, 19271, Note_on_c, 0, 82, 0
2, 19272, Note_on_c, 0, 81, 75
2, 19295, Note_on_c, 0, 81, 0
2, 19296, Note_on_c, 0, 81, 75
2, 19341, Note_on_c, 0, 81, 0
2, 19344, Note_on_c, 0, 78, 75
2, 19389, Note_on_c, 0, 78, 0
2, 19392, Note_on_c, 0, 79, 75
2, 19511, Note_on_c, 0, 79, 0
2, 19512, Note_on_c, 0, 82, 75
2, 19535, Note_on_c, 0, 82, 0
2, 19536, Note_on_c, 0, 81, 75
2, 19559, Note_on_c, 0, 81, 0
2, 19560, Note_on_c, 0, 79, 75
2, 19583, Note_on_c, 0, 79, 0
2, 19584, Note_on_c, 0, 79, 75
2, 19629, Note_on_c, 0, 79, 0
2, 19632, Note_on_c, 0, 77, 75
2, 19721, Note_on_c, 0, 77, 0
2, 19728, Note_on_c, 0, 77, 75
2, 19799, Note_on_c, 0, 77, 0
2, 19800, Note_on_c, 0, 81, 75
2, 19823, Note_on_c, 0, 81, 0
2, 19824, Note_on_c, 0, 79, 75
2, 19847, Note_on_c, 0, 79, 0
2, 19848, Note_on_c, 0, 77, 75
2, 19871, Note_on_c, 0, 77, 0
2, 19872, Note_on_c, 0, 77, 75
2, 20013, Note_on_c, 0, 77, 0
2, 20016, Note_on_c, 0, 75, 75
2, 20061, Note_on_c, 0, 75, 0
2, 20064, Note_on_c, 0, 76, 75
2, 20087, Note_on_c, 0, 76, 0
2, 20088, Note_on_c, 0, 79, 75
2, 20111, Note_on_c, 0, 79, 0
2, 20112, Note_on_c, 0, 77, 75
2, 20135, Note_on_c, 0, 77, 0
2, 20136, Note_on_c, 0, 81, 75
2, 20159, Note_on_c, 0, 81, 0
2, 20160, Note_on_c, 0, 79, 75
2, 20183, Note_on_c, 0, 79, 0
2, 20184, Note_on_c, 0, 82, 75
2, 20207, Note_on_c, 0, 82, 0
2, 20208, Note_on_c, 0, 81, 75
2, 20231, Note_on_c, 0, 81, 0
2, 20232, Note_on_c, 0, 84, 75
2, 20255, Note_on_c, 0, 84, 0
2, 20256, Note_on_c, 0, 82, 75
2, 20279, Note_on_c, 0, 82, 0
2, 20280, Note_on_c, 0, 81, 75
2, 20303, Note_on_c, 0, 81, 0
2, 20304, Note_on_c, 0, 79, 75
2, 20327, Note_on_c, 0, 79, 0
2, 20328, Note_on_c, 0, 77, 75
2, 20351, Note_on_c, 0, 77, 0
2, 20352, Note_on_c, 0, 76, 75
2, 20375, Note_on_c, 0, 76, 0
2, 20376, Note_on_c, 0, 74, 75
2, 20399, Note_on_c, 0, 74, 0
2, 20400, Note_on_c, 0, 72, 75
2, 20423, Note_on_c, 0, 72, 0
2, 20424, Note_on_c, 0, 70, 75
2, 20447, Note_on_c, 0, 70, 0
2, 20448, Note_on_c, 0, 69, 75
2, 20493, Note_on_c, 0, 69, 0
2, 20496, Note_on_c, 0, 77, 75
2, 20629, Note_on_c, 0, 77, 0
2, 20640, Note_on_c, 0, 76, 75
2, 20729, Note_on_c, 0, 76, 0
2, 20736, Note_on_c, 0, 74, 75
2, 20913, Note_on_c, 0, 74, 0
2, 20928, Note_on_c, 0, 72, 75
2, 21017, Note_on_c, 0, 72, 0
2, 21024, Note_on_c, 0, 70, 75
2, 21261, Note_on_c, 0, 70, 0
2, 21264, Note_on_c, 0, 69, 75
2, 21335, Note_on_c, 0, 69, 0
2, 21336, Note_on_c, 0, 67, 75
2, 21359, Note_on_c, 0, 67, 0
2, 21360, Note_on_c, 0, 70, 75
2, 21383, Note_on_c, 0, 70, 0
2, 21384, Note_on_c, 0, 67, 75
2, 21407, Note_on_c, 0, 67, 0
2, 21408, Note_on_c, 0, 65, 75
2, 21497, Note_on_c, 0, 65, 0
2, 21504, Note_on_c, 0, 64, 75
2, 21515, Note_on_c, 0, 64, 0
2, 21515, Note_on_c, 0, 65, 75
2, 21526, Note_on_c, 0, 65, 0
2, 21526, Note_on_c, 0, 64, 75
2, 21537, Note_on_c, 0, 64, 0
2, 21537, Note_on_c, 0, 65, 75
2, 21548, Note_on_c, 0, 65, 0
2, 21548, Note_on_c, 0, 64, 75
2, 21559, Note_on_c, 0, 64, 0
2, 21559, Note_on_c, 0, 62, 75
2, 21580, Note_on_c, 0, 62, 0
2, 21580, Note_on_c, 0, 64, 75
2, 21600, Note_on_c, 0, 64, 0
2, 21600, Note_on_c, 0, 77, 75
2, 21777, Note_on_c, 0, 77, 0
2, 21792, Note_on_c, 0, 76, 75
2, 21881, Note_on_c, 0, 76, 0
2, 21888, Note_on_c, 0, 74, 75
2, 22065, Note_on_c, 0, 74, 0
2, 22080, Note_on_c, 0, 72, 75
2, 22169, Note_on_c, 0, 72, 0
2, 22176, Note_on_c, 0, 70, 75
2, 22413, Note_on_c, 0, 70, 0
2, 22416, Note_on_c, 0, 70, 75
2, 22461, Note_on_c, 0, 70, 0
2, 22464, Note_on_c, 0, 72, 75
2, 22487, Note_on_c, 0, 72, 0
2, 22488, Note_on_c, 0, 70, 75
2, 22511, Note_on_c, 0, 70, 0
2, 22512, Note_on_c, 0, 69, 75
2, 22535, Note_on_c, 0, 69, 0
2, 22536, Note_on_c, 0, 70, 75
2, 22559, Note_on_c, 0, 70, 0
2, 22560, Note_on_c, 0, 79, 75
2, 22560, Note_on_c, 0, 70, 75
2, 22929, Note_on_c, 0, 79, 0
2, 22929, Note_on_c, 0, 70, 0
2, 22992, Note_on_c, 0, 76, 75
2, 23016, Note_on_c, 0, 76, 0
2, 23016, Note_on_c, 0, 72, 75
2, 23039, Note_on_c, 0, 72, 0
2, 23040, Note_on_c, 0, 77, 75
2, 23060, Note_on_c, 0, 77, 0
2, 23088, Note_on_c, 0, 76, 75
2, 23112, Note_on_c, 0, 76, 0
2, 23112, Note_on_c, 0, 72, 75
2, 23135, Note_on_c, 0, 72, 0
2, 23136, Note_on_c, 0, 77, 75
2, 23156, Note_on_c, 0, 77, 0
2, 23184, Note_on_c, 0, 76, 75
2, 23208, Note_on_c, 0, 76, 0
2, 23208, Note_on_c, 0, 72, 75
2, 23231, Note_on_c, 0, 72, 0
2, 23232, Note_on_c, 0, 77, 75
2, 23252, Note_on_c, 0, 77, 0
2, 23280, Note_on_c, 0, 79, 75
2, 23304, Note_on_c, 0, 79, 0
2, 23304, Note_on_c, 0, 72, 75
2, 23327, Note_on_c, 0, 72, 0
2, 23328, Note_on_c, 0, 81, 75
2, 23348, Note_on_c, 0, 81, 0
2, 23376, Note_on_c, 0, 82, 75
2, 23399, Note_on_c, 0, 82, 0
2, 23400, Note_on_c, 0, 72, 75
2, 23423, Note_on_c, 0, 72, 0
2, 23424, Note_on_c, 0, 84, 75
2, 23444, Note_on_c, 0, 84, 0
2, 23520, Note_on_c, 0, 82, 75
2, 23543, Note_on_c, 0, 82, 0
2, 23544, Note_on_c, 0, 81, 75
2, 23567, Note_on_c, 0, 81, 0
2, 23568, Note_on_c, 0, 79, 75
2, 23591, Note_on_c, 0, 79, 0
2, 23592, Note_on_c, 0, 77, 75
2, 23615, Note_on_c, 0, 77, 0
2, 23616, Note_on_c, 0, 76, 75
2, 23639, Note_on_c, 0, 76, 0
2, 23640, Note_on_c, 0, 74, 75
2, 23663, Note_on_c, 0, 74, 0
2, 23664, Note_on_c, 0, 72, 75
2, 23687, Note_on_c, 0, 72, 0
2, 23688, Note_on_c, 0, 70, 75
2, 23711, Note_on_c, 0, 70, 0
2, 23712, Note_on_c, 0, 69, 75
2, 23801, Note_on_c, 0, 69, 0
2, 23808, Note_on_c, 0, 67, 75
2, 23817, Note_on_c, 0, 67, 0
2, 23817, Note_on_c, 0, 69, 75
2, 23826, Note_on_c, 0, 69, 0
2, 23826, Note_on_c, 0, 67, 75
2, 23835, Note_on_c, 0, 67, 0
2, 23835, Note_on_c, 0, 69, 75
2, 23844, Note_on_c, 0, 69, 0
2, 23844, Note_on_c, 0, 67, 75
2, 23853, Note_on_c, 0, 67, 0
2, 23853, Note_on_c, 0, 69, 75
2, 23862, Note_on_c, 0, 69, 0
2, 23862, Note_on_c, 0, 67, 75
2, 23871, Note_on_c, 0, 67, 0
2, 23871, Note_on_c, 0, 65, 75
2, 23888, Note_on_c, 0, 65, 0
2, 23888, Note_on_c, 0, 67, 75
2, 23904, Note_on_c, 0, 67, 0
2, 23904, Note_on_c, 0, 65, 75
2, 23949, Note_on_c, 0, 65, 0
2, 23952, Note_on_c, 0, 76, 75
2, 23975, Note_on_c, 0, 76, 0
2, 23976, Note_on_c, 0, 72, 75
2, 23999, Note_on_c, 0, 72, 0
2, 24000, Note_on_c, 0, 77, 75
2, 24023, Note_on_c, 0, 77, 0
2, 24024, Note_on_c, 0, 72, 75
2, 24047, Note_on_c, 0, 72, 0
2, 24048, Note_on_c, 0, 76, 75
2, 24071, Note_on_c, 0, 76, 0
2, 24072, Note_on_c, 0, 72, 75
2, 24095, Note_on_c, 0, 72, 0
2, 24096, Note_on_c, 0, 77, 75
2, 24119, Note_on_c, 0, 77, 0
2, 24120, Note_on_c, 0, 72, 75
2, 24143, Note_on_c, 0, 72, 0
2, 24144, Note_on_c, 0, 79, 75
2, 24167, Note_on_c, 0, 79, 0
2, 24168, Note_on_c, 0, 72, 75
2, 24191, Note_on_c, 0, 72, 0
2, 24192, Note_on_c, 0, 81, 75
2, 24215, Note_on_c, 0, 81, 0
2, 24216, Note_on_c, 0, 72, 75
2, 24239, Note_on_c, 0, 72, 0
2, 24240, Note_on_c, 0, 82, 75
2, 24263, Note_on_c, 0, 82, 0
2, 24264, Note_on_c, 0, 72, 75
2, 24287, Note_on_c, 0, 72, 0
2, 24288, Note_on_c, 0, 84, 75
2, 24308, Note_on_c, 0, 84, 0
2, 24336, Note_on_c, 0, 77, 75
2, 24359, Note_on_c, 0, 77, 0
2, 24360, Note_on_c, 0, 89, 75
2, 24383, Note_on_c, 0, 89, 0
2, 24384, Note_on_c, 0, 76, 75
2, 24407, Note_on_c, 0, 76, 0
2, 24408, Note_on_c, 0, 88, 75
2, 24431, Note_on_c, 0, 88, 0
2, 24432, Note_on_c, 0, 75, 75
2, 24455, Note_on_c, 0, 75, 0
2, 24456, Note_on_c, 0, 87, 75
2, 24479, Note_on_c, 0, 87, 0
2, 24480, Note_on_c, 0, 74, 75
2, 24503, Note_on_c, 0, 74, 0
2, 24504, Note_on_c, 0, 86, 75
2, 24504, Note_on_c, 0, 82, 75
2, 24527, Note_on_c, 0, 86, 0
2, 24527, Note_on_c, 0, 82, 0
2, 24528, Note_on_c, 0, 84, 75
2, 24528, Note_on_c, 0, 81, 75
2, 24551, Note_on_c, 0, 84, 0
2, 24551, Note_on_c, 0, 81, 0
2, 24552, Note_on_c, 0, 82, 75
2, 24552, Note_on_c, 0, 79, 75
2, 24575, Note_on_c, 0, 82, 0
2, 24575, Note_on_c, 0, 79, 0
2, 24576, Note_on_c, 0, 81, 75
2, 24576, Note_on_c, 0, 77, 75
2, 24665, Note_on_c, 0, 81, 0
2, 24665, Note_on_c, 0, 77, 0
2, 24672, Note_on_c, 0, 79, 75
2, 24681, Note_on_c, 0, 79, 0
2, 24681, Note_on_c, 0, 81, 75
2, 24690, Note_on_c, 0, 81, 0
2, 24690, Note_on_c, 0, 79, 75
2, 24699, Note_on_c, 0, 79, 0
2, 24699, Note_on_c, 0, 81, 75
2, 24708, Note_on_c, 0, 81, 0
2, 24708, Note_on_c, 0, 79, 75
2, 24717, Note_on_c, 0, 79, 0
2, 24717, Note_on_c, 0, 81, 75
2, 24726, Note_on_c, 0, 81, 0
2, 24726, Note_on_c, 0, 79, 75
2, 24735, Note_on_c, 0, 79, 0
2, 24735, Note_on_c, 0, 77, 75
2, 24752, Note_on_c, 0, 77, 0
2, 24752, Note_on_c, 0, 79, 75
2, 24768, Note_on_c, 0, 79, 0
2, 24768, Note_on_c, 0, 77, 75
2, 24857, Note_on_c, 0, 77, 0
2, 24912, Note_on_c, 0, 72, 70
2, 24912, Note_on_c, 0, 69, 70
2, 24960, Note_on_c, 0, 72, 0
2, 24960, Note_on_c, 0, 69, 0
2, 24960, Note_on_c, 0, 74, 70
2, 24960, Note_on_c, 0, 70, 70
2, 25005, Note_on_c, 0, 74, 0
2, 25005, Note_on_c, 0, 70, 0
2, 25008, Note_on_c, 0, 70, 70
2, 25008, Note_on_c, 0, 64, 70
2, 25028, Note_on_c, 0, 70, 0
2, 25028, Note_on_c, 0, 64, 0
2, 25056, Note_on_c, 0, 70, 70
2, 25056, Note_on_c, 0, 64, 70
2, 25152, Note_on_c, 0, 70, 0
2, 25152, Note_on_c, 0, 64, 0
2, 25152, Note_on_c, 0, 69, 70
2, 25152, Note_on_c, 0, 65, 70
2, 25172, Note_on_c, 0, 69, 0
2, 25172, Note_on_c, 0, 65, 0
2, 25200, Note_on_c, 0, 69, 70
2, 25200, Note_on_c, 0, 60, 70
2, 25248, Note_on_c, 0, 69, 0
2, 25248, Note_on_c, 0, 60, 0
2, 25248, Note_on_c, 0, 70, 70
2, 25248, Note_on_c, 0, 62, 70
2, 25293, Note_on_c, 0, 70, 0
2, 25293, Note_on_c, 0, 62, 0
2, 25296, Note_on_c, 0, 64, 70
2, 25296, Note_on_c, 0, 58, 70
2, 25316, Note_on_c, 0, 64, 0
2, 25316, Note_on_c, 0, 58, 0
2, 25344, Note_on_c, 0, 64, 70
2, 25344, Note_on_c, 0, 58, 70
2, 25440, Note_on_c, 0, 64, 0
2, 25440, Note_on_c, 0, 58, 0
2, 25440, Note_on_c, 0, 65, 70
2, 25440, Note_on_c, 0, 57, 70
2, 25460, Note_on_c, 0, 65, 0
2, 25460, Note_on_c, 0, 57, 0
2, 25488, Note_on_c, 0, 60, 70
2, 25488, Note_on_c, 0, 57, 70
2, 25533, Note_on_c, 0, 60, 0
2, 25533, Note_on_c, 0, 57, 0
2, 25536, Note_on_c, 0, 62, 70
2, 25536, Note_on_c, 0, 58, 70
2, 25581, Note_on_c, 0, 62, 0
2, 25581, Note_on_c, 0, 58, 0
2, 25920, Note_on_c, 0, 72, 75
2, 25920, Note_on_c, 0, 69, 75
2, 26097, Note_on_c, 0, 72, 0
2, 26097, Note_on_c, 0, 69, 0
2, 26112, Note_on_c, 0, 76, 75
2, 26118, Note_on_c, 0, 76, 0
2, 26118, Note_on_c, 0, 74, 75
2, 26118, Note_on_c, 0, 70, 75
2, 26179, Note_on_c, 0, 74, 0
2, 26179, Note_on_c, 0, 70, 0
2, 26184, Note_on_c, 0, 72, 75
2, 26184, Note_on_c, 0, 69, 75
2, 26207, Note_on_c, 0, 72, 0
2, 26207, Note_on_c, 0, 69, 0
2, 26208, Note_on_c, 0, 72, 75
2, 26208, Note_on_c, 0, 69, 75
2, 26297, Note_on_c, 0, 72, 0
2, 26297, Note_on_c, 0, 69, 0
2, 26304, Note_on_c, 0, 70, 75
2, 26313, Note_on_c, 0, 70, 0
2, 26313, Note_on_c, 0, 72, 75
2, 26322, Note_on_c, 0, 72, 0
2, 26322, Note_on_c, 0, 70, 75
2, 26331, Note_on_c, 0, 70, 0
2, 26331, Note_on_c, 0, 72, 75
2, 26340, Note_on_c, 0, 72, 0
2, 26340, Note_on_c, 0, 70, 75
2, 26349, Note_on_c, 0, 70, 0
2, 26349, Note_on_c, 0, 72, 75
2, 26358, Note_on_c, 0, 72, 0
2, 26358, Note_on_c, 0, 70, 75
2, 26367, Note_on_c, 0, 70, 0
2, 26367, Note_on_c, 0, 69, 75
2, 26384, Note_on_c, 0, 69, 0
2, 26384, Note_on_c, 0, 70, 75
2, 26400, Note_on_c, 0, 70, 0
2, 26400, Note_on_c, 0, 69, 75
2, 26400, Note_on_c, 0, 65, 75
2, 26489, Note_on_c, 0, 69, 0
2, 26489, Note_on_c, 0, 65, 0
2, 26496, Note_on_c, 0, 74, 75
2, 26519, Note_on_c, 0, 74, 0
2, 26520, Note_on_c, 0, 73, 75
2, 26543, Note_on_c, 0, 73, 0
2, 26544, Note_on_c, 0, 74, 75
2, 26567, Note_on_c, 0, 74, 0
2, 26568, Note_on_c, 0, 76, 75
2, 26591, Note_on_c, 0, 76, 0
2, 26592, Note_on_c, 0, 77, 75
2, 26615, Note_on_c, 0, 77, 0
2, 26616, Note_on_c, 0, 76, 75
2, 26639, Note_on_c, 0, 76, 0
2, 26640, Note_on_c, 0, 79, 75
2, 26663, Note_on_c, 0, 79, 0
2, 26664, Note_on_c, 0, 77, 75
2, 26687, Note_on_c, 0, 77, 0
2, 26688, Note_on_c, 0, 81, 75
2, 26711, Note_on_c, 0, 81, 0
2, 26712, Note_on_c, 0, 77, 75
2, 26735, Note_on_c, 0, 77, 0
2, 26736, Note_on_c, 0, 76, 75
2, 26759, Note_on_c, 0, 76, 0
2, 26760, Note_on_c, 0, 74, 75
2, 26783, Note_on_c, 0, 74, 0
2, 26784, Note_on_c, 0, 72, 75
2, 26873, Note_on_c, 0, 72, 0
2, 26880, Note_on_c, 0, 70, 75
2, 26889, Note_on_c, 0, 70, 0
2, 26889, Note_on_c, 0, 72, 75
2, 26898, Note_on_c, 0, 72, 0
2, 26898, Note_on_c, 0, 70, 75
2, 26907, Note_on_c, 0, 70, 0
2, 26907, Note_on_c, 0, 72, 75
2, 26916, Note_on_c, 0, 72, 0
2, 26916, Note_on_c, 0, 70, 75
2, 26925, Note_on_c, 0, 70, 0
2, 26925, Note_on_c, 0, 72, 75
2, 26934, Note_on_c, 0, 72, 0
2, 26934, Note_on_c, 0, 70, 75
2, 26943, Note_on_c, 0, 70, 0
2, 26943, Note_on_c, 0, 69, 75
2, 26960, Note_on_c, 0, 69, 0
2, 26960, Note_on_c, 0, 70, 75
2, 26976, Note_on_c, 0, 70, 0
2, 26976, Note_on_c, 0, 69, 75
2, 27161, Note_on_c, 0, 69, 0
2, 27360, Note_on_c, 0, 77, 75
2, 27383, Note_on_c, 0, 77, 0
2, 27384, Note_on_c, 0, 76, 75
2, 27407, Note_on_c, 0, 76, 0
2, 27408, Note_on_c, 0, 79, 75
2, 27431, Note_on_c, 0, 79, 0
2, 27432, Note_on_c, 0, 77, 75
2, 27455, Note_on_c, 0, 77, 0
2, 27456, Note_on_c, 0, 80, 75
2, 27501, Note_on_c, 0, 80, 0
2, 27504, Note_on_c, 0, 77, 75
2, 27549, Note_on_c, 0, 77, 0
2, 27552, Note_on_c, 0, 75, 75
2, 27597, Note_on_c, 0, 75, 0
2, 27600, Note_on_c, 0, 74, 75
2, 27645, Note_on_c, 0, 74, 0
2, 27648, Note_on_c, 0, 72, 75
2, 27737, Note_on_c, 0, 72, 0
2, 27744, Note_on_c, 0, 71, 75
2, 27833, Note_on_c, 0, 71, 0
2, 27840, Note_on_c, 0, 74, 75
2, 27981, Note_on_c, 0, 74, 0
2, 27984, Note_on_c, 0, 67, 75
2, 28029, Note_on_c, 0, 67, 0
2, 28032, Note_on_c, 0, 72, 75
2, 28055, Note_on_c, 0, 72, 0
2, 28056, Note_on_c, 0, 71, 75
2, 28079, Note_on_c, 0, 71, 0
2, 28080, Note_on_c, 0, 74, 75
2, 28103, Note_on_c, 0, 74, 0
2, 28104, Note_on_c, 0, 72, 75
2, 28127, Note_on_c, 0, 72, 0
2, 28128, Note_on_c, 0, 75, 75
2, 28151, Note_on_c, 0, 75, 0
2, 28152, Note_on_c, 0, 74, 75
2, 28175, Note_on_c, 0, 74, 0
2, 28176, Note_on_c, 0, 77, 75
2, 28199, Note_on_c, 0, 77, 0
2, 28200, Note_on_c, 0, 75, 75
2, 28223, Note_on_c, 0, 75, 0
2, 28224, Note_on_c, 0, 79, 75
2, 28845, Note_on_c, 0, 79, 0
2, 28848, Note_on_c, 0, 78, 75
2, 28893, Note_on_c, 0, 78, 0
2, 28896, Note_on_c, 0, 79, 75
2, 28919, Note_on_c, 0, 79, 0
2, 28920, Note_on_c, 0, 78, 75
2, 28943, Note_on_c, 0, 78, 0
2, 28944, Note_on_c, 0, 76, 75
2, 28967, Note_on_c, 0, 76, 0
2, 28968, Note_on_c, 0, 78, 75
2, 28991, Note_on_c, 0, 78, 0
2, 28992, Note_on_c, 0, 81, 75
2, 29553, Note_on_c, 0, 81, 0
2, 29616, Note_on_c, 0, 78, 75
2, 29639, Note_on_c, 0, 78, 0
2, 29640, Note_on_c, 0, 74, 75
2, 29663, Note_on_c, 0, 74, 0
2, 29664, Note_on_c, 0, 79, 75
2, 29684, Note_on_c, 0, 79, 0
2, 29712, Note_on_c, 0, 78, 75
2, 29735, Note_on_c, 0, 78, 0
2, 29736, Note_on_c, 0, 74, 75
2, 29759, Note_on_c, 0, 74, 0
2, 29760, Note_on_c, 0, 79, 75
2, 29780, Note_on_c, 0, 79, 0
2, 29808, Note_on_c, 0, 78, 75
2, 29831, Note_on_c, 0, 78, 0
2, 29832, Note_on_c, 0, 74, 75
2, 29855, Note_on_c, 0, 74, 0
2, 29856, Note_on_c, 0, 79, 75
2, 29876, Note_on_c, 0, 79, 0
2, 29904, Note_on_c, 0, 81, 75
2, 29927, Note_on_c, 0, 81, 0
2, 29928, Note_on_c, 0, 74, 75
2, 29951, Note_on_c, 0, 74, 0
2, 29952, Note_on_c, 0, 82, 75
2, 29972, Note_on_c, 0, 82, 0
2, 30000, Note_on_c, 0, 84, 75
2, 30023, Note_on_c, 0, 84, 0
2, 30024, Note_on_c, 0, 74, 75
2, 30047, Note_on_c, 0, 74, 0
2, 30048, Note_on_c, 0, 86, 75
2, 30068, Note_on_c, 0, 86, 0
2, 30144, Note_on_c, 0, 84, 75
2, 30167, Note_on_c, 0, 84, 0
2, 30168, Note_on_c, 0, 82, 75
2, 30191, Note_on_c, 0, 82, 0
2, 30192, Note_on_c, 0, 81, 75
2, 30215, Note_on_c, 0, 81, 0
2, 30216, Note_on_c, 0, 79, 75
2, 30239, Note_on_c, 0, 79, 0
2, 30240, Note_on_c, 0, 77, 75
2, 30263, Note_on_c, 0, 77, 0
2, 30264, Note_on_c, 0, 75, 75
2, 30287, Note_on_c, 0, 75, 0
2, 30288, Note_on_c, 0, 74, 75
2, 30311, Note_on_c, 0, 74, 0
2, 30312, Note_on_c, 0, 72, 75
2, 30335, Note_on_c, 0, 72, 0
2, 30336, Note_on_c, 0, 70, 75
2, 30425, Note_on_c, 0, 70, 0
2, 30432, Note_on_c, 0, 69, 75
2, 30441, Note_on_c, 0, 69, 0
2, 30441, Note_on_c, 0, 70, 75
2, 30450, Note_on_c, 0, 70, 0
2, 30450, Note_on_c, 0, 69, 75
2, 30459, Note_on_c, 0, 69, 0
2, 30459, Note_on_c, 0, 70, 75
2, 30468, Note_on_c, 0, 70, 0
2, 30468, Note_on_c, 0, 69, 75
2, 30477, Note_on_c, 0, 69, 0
2, 30477, Note_on_c, 0, 70, 75
2, 30486, Note_on_c, 0, 70, 0
2, 30486, Note_on_c, 0, 69, 75
2, 30495, Note_on_c, 0, 69, 0
2, 30495, Note_on_c, 0, 67, 75
2, 30512, Note_on_c, 0, 67, 0
2, 30512, Note_on_c, 0, 69, 75
2, 30528, Note_on_c, 0, 69, 0
2, 30528, Note_on_c, 0, 67, 75
2, 30573, Note_on_c, 0, 67, 0
2, 30576, Note_on_c, 0, 78, 75
2, 30599, Note_on_c, 0, 78, 0
2, 30600, Note_on_c, 0, 74, 75
2, 30623, Note_on_c, 0, 74, 0
2, 30624, Note_on_c, 0, 79, 75
2, 30647, Note_on_c, 0, 79, 0
2, 30648, Note_on_c, 0, 74, 76
2, 30671, Note_on_c, 0, 74, 0
2, 30672, Note_on_c, 0, 78, 76
2, 30695, Note_on_c, 0, 78, 0
2, 30696, Note_on_c, 0, 74, 77
2, 30719, Note_on_c, 0, 74, 0
2, 30720, Note_on_c, 0, 79, 77
2, 30743, Note_on_c, 0, 79, 0
2, 30744, Note_on_c, 0, 74, 78
2, 30767, Note_on_c, 0, 74, 0
2, 30768, Note_on_c, 0, 81, 78
2, 30791, Note_on_c, 0, 81, 0
2, 30792, Note_on_c, 0, 74, 79
2, 30815, Note_on_c, 0, 74, 0
2, 30816, Note_on_c, 0, 82, 95
2, 30840, Note_on_c, 0, 82, 0
2, 30840, Note_on_c, 0, 74, 75
2, 30863, Note_on_c, 0, 74, 0
2, 30864, Note_on_c, 0, 76, 75
2, 30887, Note_on_c, 0, 76, 0
2, 30888, Note_on_c, 0, 72, 75
2, 30911, Note_on_c, 0, 72, 0
2, 30912, Note_on_c, 0, 77, 76
2, 30935, Note_on_c, 0, 77, 0
2, 30936, Note_on_c, 0, 72, 76
2, 30959, Note_on_c, 0, 72, 0
2, 30960, Note_on_c, 0, 76, 77
2, 30983, Note_on_c, 0, 76, 0
2, 30984, Note_on_c, 0, 72, 77
2, 31007, Note_on_c, 0, 72, 0
2, 31008, Note_on_c, 0, 77, 77
2, 31031, Note_on_c, 0, 77, 0
2, 31032, Note_on_c, 0, 72, 78
2, 31055, Note_on_c, 0, 72, 0
2, 31056, Note_on_c, 0, 79, 78
2, 31079, Note_on_c, 0, 79, 0
2, 31080, Note_on_c, 0, 72, 79
2, 31103, Note_on_c, 0, 72, 0
2, 31104, Note_on_c, 0, 80, 95
2, 31128, Note_on_c, 0, 80, 0
2, 31128, Note_on_c, 0, 72, 75
2, 31151, Note_on_c, 0, 72, 0
2, 31152, Note_on_c, 0, 74, 75
2, 31175, Note_on_c, 0, 74, 0
2, 31176, Note_on_c, 0, 70, 75
2, 31199, Note_on_c, 0, 70, 0
2, 31200, Note_on_c, 0, 75, 76
2, 31223, Note_on_c, 0, 75, 0
2, 31224, Note_on_c, 0, 70, 76
2, 31247, Note_on_c, 0, 70, 0
2, 31248, Note_on_c, 0, 74, 76
2, 31271, Note_on_c, 0, 74, 0
2, 31272, Note_on_c, 0, 70, 77
2, 31295, Note_on_c, 0, 70, 0
2, 31296, Note_on_c, 0, 75, 77
2, 31319, Note_on_c, 0, 75, 0
2, 31320, Note_on_c, 0, 70, 78
2, 31343, Note_on_c, 0, 70, 0
2, 31344, Note_on_c, 0, 65, 78
2, 31367, Note_on_c, 0, 65, 0
2, 31368, Note_on_c, 0, 77, 78
2, 31391, Note_on_c, 0, 77, 0
2, 31392, Note_on_c, 0, 67, 79
2, 31415, Note_on_c, 0, 67, 0
2, 31416, Note_on_c, 0, 79, 79
2, 31439, Note_on_c, 0, 79, 0
2, 31440, Note_on_c, 0, 65, 80
2, 31463, Note_on_c, 0, 65, 0
2, 31464, Note_on_c, 0, 77, 80
2, 31487, Note_on_c, 0, 77, 0
2, 31488, Note_on_c, 0, 63, 80
2, 31511, Note_on_c, 0, 63, 0
2, 31512, Note_on_c, 0, 75, 80
2, 31535, Note_on_c, 0, 75, 0
2, 31536, Note_on_c, 0, 62, 80
2, 31559, Note_on_c, 0, 62, 0
2, 31560, Note_on_c, 0, 74, 80
2, 31583, Note_on_c, 0, 74, 0
2, 31584, Note_on_c, 0, 60, 80
2, 31607, Note_on_c, 0, 60, 0
2, 31608, Note_on_c, 0, 72, 80
2, 31631, Note_on_c, 0, 72, 0
2, 31632, Note_on_c, 0, 58, 80
2, 31655, Note_on_c, 0, 58, 0
2, 31656, Note_on_c, 0, 70, 80
2, 31679, Note_on_c, 0, 70, 0
2, 31680, Note_on_c, 0, 57, 80
2, 31703, Note_on_c, 0, 57, 0
2, 31704, Note_on_c, 0, 69, 80
2, 31727, Note_on_c, 0, 69, 0
2, 31968, Note_on_c, 0, 77, 75
2, 31968, Note_on_c, 0, 74, 75
2, 32145, Note_on_c, 0, 77, 0
2, 32145, Note_on_c, 0, 74, 0
2, 32160, Note_on_c, 0, 81, 75
2, 32166, Note_on_c, 0, 81, 0
2, 32166, Note_on_c, 0, 79, 75
2, 32166, Note_on_c, 0, 75, 75
2, 32227, Note_on_c, 0, 79, 0
2, 32227, Note_on_c, 0, 75, 0
2, 32232, Note_on_c, 0, 77, 75
2, 32232, Note_on_c, 0, 74, 75
2, 32255, Note_on_c, 0, 77, 0
2, 32255, Note_on_c, 0, 74, 0
2, 32256, Note_on_c, 0, 77, 75
2, 32256, Note_on_c, 0, 74, 75
2, 32345, Note_on_c, 0, 77, 0
2, 32345, Note_on_c, 0, 74, 0
2, 32352, Note_on_c, 0, 75, 75
2, 32361, Note_on_c, 0, 75, 0
2, 32361, Note_on_c, 0, 77, 75
2, 32370, Note_on_c, 0, 77, 0
2, 32370, Note_on_c, 0, 75, 75
2, 32379, Note_on_c, 0, 75, 0
2, 32379, Note_on_c, 0, 77, 75
2, 32388, Note_on_c, 0, 77, 0
2, 32388, Note_on_c, 0, 75, 75
2, 32397, Note_on_c, 0, 75, 0
2, 32397, Note_on_c, 0, 77, 75
2, 32406, Note_on_c, 0, 77, 0
2, 32406, Note_on_c, 0, 75, 75
2, 32415, Note_on_c, 0, 75, 0
2, 32415, Note_on_c, 0, 74, 75
2, 32432, Note_on_c, 0, 74, 0
2, 32432, Note_on_c, 0, 75, 75
2, 32448, Note_on_c, 0, 75, 0
2, 32448, Note_on_c, 0, 74, 75
2, 32448, Note_on_c, 0, 70, 75
2, 32537, Note_on_c, 0, 74, 0
2, 32537, Note_on_c, 0, 70, 0
2, 32544, Note_on_c, 0, 79, 75
2, 32554, Note_on_c, 0, 79, 0
2, 32568, Note_on_c, 0, 81, 75
2, 32576, Note_on_c, 0, 81, 0
2, 32576, Note_on_c, 0, 79, 75
2, 32584, Note_on_c, 0, 79, 0
2, 32584, Note_on_c, 0, 78, 75
2, 32592, Note_on_c, 0, 78, 0
2, 32592, Note_on_c, 0, 79, 75
2, 32615, Note_on_c, 0, 79, 0
2, 32616, Note_on_c, 0, 81, 75
2, 32639, Note_on_c, 0, 81, 0
2, 32640, Note_on_c, 0, 82, 75
2, 32707, Note_on_c, 0, 82, 0
2, 32712, Note_on_c, 0, 85, 75
2, 32735, Note_on_c, 0, 85, 0
2, 32736, Note_on_c, 0, 86, 75
2, 32759, Note_on_c, 0, 86, 0
2, 32760, Note_on_c, 0, 81, 75
2, 32783, Note_on_c, 0, 81, 0
2, 32784, Note_on_c, 0, 82, 75
2, 32807, Note_on_c, 0, 82, 0
2, 32808, Note_on_c, 0, 79, 75
2, 32831, Note_on_c, 0, 79, 0
2, 32832, Note_on_c, 0, 77, 75
2, 32995, Note_on_c, 0, 77, 0
2, 33000, Note_on_c, 0, 75, 75
2, 33006, Note_on_c, 0, 75, 0
2, 33006, Note_on_c, 0, 77, 75
2, 33012, Note_on_c, 0, 77, 0
2, 33012, Note_on_c, 0, 75, 75
2, 33023, Note_on_c, 0, 75, 0
2, 33024, Note_on_c, 0, 74, 75
2, 33113, Note_on_c, 0, 74, 0
2, 33120, Note_on_c, 0, 72, 75
2, 33129, Note_on_c, 0, 72, 0
2, 33129, Note_on_c, 0, 74, 75
2, 33138, Note_on_c, 0, 74, 0
2, 33138, Note_on_c, 0, 72, 75
2, 33147, Note_on_c, 0, 72, 0
2, 33147, Note_on_c, 0, 74, 75
2, 33156, Note_on_c, 0, 74, 0
2, 33156, Note_on_c, 0, 72, 75
2, 33165, Note_on_c, 0, 72, 0
2, 33165, Note_on_c, 0, 74, 75
2, 33174, Note_on_c, 0, 74, 0
2, 33174, Note_on_c, 0, 72, 75
2, 33183, Note_on_c, 0, 72, 0
2, 33183, Note_on_c, 0, 71, 75
2, 33200, Note_on_c, 0, 71, 0
2, 33200, Note_on_c, 0, 72, 75
2, 33216, Note_on_c, 0, 72, 0
2, 33216, Note_on_c, 0, 79, 75
2, 33245, Note_on_c, 0, 79, 0
2, 33288, Note_on_c, 0, 75, 75
2, 33311, Note_on_c, 0, 75, 0
2, 33312, Note_on_c, 0, 75, 75
2, 33318, Note_on_c, 0, 75, 0
2, 33318, Note_on_c, 0, 74, 75
2, 33341, Note_on_c, 0, 74, 0
2, 33384, Note_on_c, 0, 72, 75
2, 33407, Note_on_c, 0, 72, 0
2, 33408, Note_on_c, 0, 70, 75
2, 33527, Note_on_c, 0, 70, 0
2, 33528, Note_on_c, 0, 69, 75
2, 33551, Note_on_c, 0, 69, 0
2, 33552, Note_on_c, 0, 70, 75
2, 33564, Note_on_c, 0, 70, 0
2, 33564, Note_on_c, 0, 69, 75
2, 33576, Note_on_c, 0, 69, 0
2, 33576, Note_on_c, 0, 67, 75
2, 33588, Note_on_c, 0, 67, 0
2, 33588, Note_on_c, 0, 69, 75
2, 33600, Note_on_c, 0, 69, 0
2, 33600, Note_on_c, 0, 70, 75
2, 33623, Note_on_c, 0, 70, 0
2, 33624, Note_on_c, 0, 72, 75
2, 33632, Note_on_c, 0, 72, 0
2, 33632, Note_on_c, 0, 70, 75
2, 33640, Note_on_c, 0, 70, 0
2, 33640, Note_on_c, 0, 69, 75
2, 33648, Note_on_c, 0, 69, 0
2, 33648, Note_on_c, 0, 70, 75
2, 33671, Note_on_c, 0, 70, 0
2, 33672, Note_on_c, 0, 74, 75
2, 33695, Note_on_c, 0, 74, 0
2, 33696, Note_on_c, 0, 65, 75
2, 33822, Note_on_c, 0, 65, 0
2, 33824, Note_on_c, 0, 67, 75
2, 33854, Note_on_c, 0, 67, 0
2, 33856, Note_on_c, 0, 65, 75
2, 33886, Note_on_c, 0, 65, 0
2, 33888, Note_on_c, 0, 63, 75
2, 33894, Note_on_c, 0, 63, 0
2, 33894, Note_on_c, 0, 65, 75
2, 33900, Note_on_c, 0, 65, 0
2, 33900, Note_on_c, 0, 63, 75
2, 33918, Note_on_c, 0, 63, 0
2, 33920, Note_on_c, 0, 62, 75
2, 33950, Note_on_c, 0, 62, 0
2, 33952, Note_on_c, 0, 63, 75
2, 33982, Note_on_c, 0, 63, 0
2, 33984, Note_on_c, 0, 63, 75
2, 34110, Note_on_c, 0, 63, 0
2, 34112, Note_on_c, 0, 62, 75
2, 34142, Note_on_c, 0, 62, 0
2, 34144, Note_on_c, 0, 65, 75
2, 34174, Note_on_c, 0, 65, 0
2, 34176, Note_on_c, 0, 69, 75
2, 34206, Note_on_c, 0, 69, 0
2, 34208, Note_on_c, 0, 70, 75
2, 34238, Note_on_c, 0, 70, 0
2, 34240, Note_on_c, 0, 74, 75
2, 34272, Note_on_c, 0, 77, 75
2, 34413, Note_on_c, 0, 77, 0
2, 34413, Note_on_c, 0, 74, 0
2, 34416, Note_on_c, 0, 79, 75
2, 34439, Note_on_c, 0, 79, 0
2, 34440, Note_on_c, 0, 81, 75
2, 34463, Note_on_c, 0, 81, 0
2, 34464, Note_on_c, 0, 84, 75
2, 34487, Note_on_c, 0, 84, 0
2, 34488, Note_on_c, 0, 82, 75
2, 34511, Note_on_c, 0, 82, 0
2, 34512, Note_on_c, 0, 81, 75
2, 34535, Note_on_c, 0, 81, 0
2, 34536, Note_on_c, 0, 79, 75
2, 34559, Note_on_c, 0, 79, 0
2, 34560, Note_on_c, 0, 77, 75
2, 34649, Note_on_c, 0, 77, 0
2, 34656, Note_on_c, 0, 75, 75
2, 34665, Note_on_c, 0, 75, 0
2, 34665, Note_on_c, 0, 77, 75
2, 34674, Note_on_c, 0, 77, 0
2, 34674, Note_on_c, 0, 75, 75
2, 34683, Note_on_c, 0, 75, 0
2, 34683, Note_on_c, 0, 77, 75
2, 34692, Note_on_c, 0, 77, 0
2, 34692, Note_on_c, 0, 75, 75
2, 34701, Note_on_c, 0, 75, 0
2, 34701, Note_on_c, 0, 77, 75
2, 34710, Note_on_c, 0, 77, 0
2, 34710, Note_on_c, 0, 75, 75
2, 34719, Note_on_c, 0, 75, 0
2, 34719, Note_on_c, 0, 74, 75
2, 34736, Note_on_c, 0, 74, 0
2, 34736, Note_on_c, 0, 75, 75
2, 34752, Note_on_c, 0, 75, 0
2, 34752, Note_on_c, 0, 74, 75
2, 34841, Note_on_c, 0, 74, 0
2, 34896, Note_on_c, 0, 78, 70
2, 34941, Note_on_c, 0, 78, 0
2, 34944, Note_on_c, 0, 79, 70
2, 34989, Note_on_c, 0, 79, 0
2, 34992, Note_on_c, 0, 81, 70
2, 35037, Note_on_c, 0, 81, 0
2, 35040, Note_on_c, 0, 84, 70
2, 35063, Note_on_c, 0, 84, 0
2, 35064, Note_on_c, 0, 82, 70
2, 35087, Note_on_c, 0, 82, 0
2, 35088, Note_on_c, 0, 81, 70
2, 35111, Note_on_c, 0, 81, 0
2, 35112, Note_on_c, 0, 79, 70
2, 35135, Note_on_c, 0, 79, 0
2, 35136, Note_on_c, 0, 79, 70
2, 35159, Note_on_c, 0, 79, 0
2, 35160, Note_on_c, 0, 77, 70
2, 35183, Note_on_c, 0, 77, 0
2, 35184, Note_on_c, 0, 76, 70
2, 35207, Note_on_c, 0, 76, 0
2, 35208, Note_on_c, 0, 79, 70
2, 35231, Note_on_c, 0, 79, 0
2, 35232, Note_on_c, 0, 77, 70
2, 35277, Note_on_c, 0, 77, 0
2, 35280, Note_on_c, 0, 79, 70
2, 35292, Note_on_c, 0, 79, 0
2, 35292, Note_on_c, 0, 77, 70
2, 35304, Note_on_c, 0, 77, 0
2, 35304, Note_on_c, 0, 76, 70
2, 35316, Note_on_c, 0, 76, 0
2, 35316, Note_on_c, 0, 77, 70
2, 35328, Note_on_c, 0, 77, 0
2, 35328, Note_on_c, 0, 81, 70
2, 35373, Note_on_c, 0, 81, 0
2, 35376, Note_on_c, 0, 82, 70
2, 35469, Note_on_c, 0, 82, 0
2, 35472, Note_on_c, 0, 78, 70
2, 35517, Note_on_c, 0, 78, 0
2, 35520, Note_on_c, 0, 81, 70
2, 35543, Note_on_c, 0, 81, 0
2, 35544, Note_on_c, 0, 79, 70
2, 35567, Note_on_c, 0, 79, 0
2, 35568, Note_on_c, 0, 82, 70
2, 35591, Note_on_c, 0, 82, 0
2, 35592, Note_on_c, 0, 81, 70
2, 35615, Note_on_c, 0, 81, 0
2, 35616, Note_on_c, 0, 84, 70
2, 35639, Note_on_c, 0, 84, 0
2, 35640, Note_on_c, 0, 82, 70
2, 35663, Note_on_c, 0, 82, 0
2, 35664, Note_on_c, 0, 81, 70
2, 35687, Note_on_c, 0, 81, 0
2, 35688, Note_on_c, 0, 79, 70
2, 35711, Note_on_c, 0, 79, 0
2, 35712, Note_on_c, 0, 79, 70
2, 35735, Note_on_c, 0, 79, 0
2, 35736, Note_on_c, 0, 77, 70
2, 35759, Note_on_c, 0, 77, 0
2, 35760, Note_on_c, 0, 76, 70
2, 35783, Note_on_c, 0, 76, 0
2, 35784, Note_on_c, 0, 79, 70
2, 35807, Note_on_c, 0, 79, 0
2, 35808, Note_on_c, 0, 77, 70
2, 35853, Note_on_c, 0, 77, 0
2, 35856, Note_on_c, 0, 79, 70
2, 35868, Note_on_c, 0, 79, 0
2, 35868, Note_on_c, 0, 77, 70
2, 35880, Note_on_c, 0, 77, 0
2, 35880, Note_on_c, 0, 76, 70
2, 35892, Note_on_c, 0, 76, 0
2, 35892, Note_on_c, 0, 77, 70
2, 35904, Note_on_c, 0, 77, 0
2, 35904, Note_on_c, 0, 86, 70
2, 35949, Note_on_c, 0, 86, 0
2, 35952, Note_on_c, 0, 77, 70
2, 35997, Note_on_c, 0, 77, 0
2, 36000, Note_on_c, 0, 77, 70
2, 36048, Note_on_c, 0, 77, 0
2, 36048, Note_on_c, 0, 75, 70
2, 36068, Note_on_c, 0, 75, 0
2, 36120, Note_on_c, 0, 75, 70
2, 36143, Note_on_c, 0, 75, 0
2, 36144, Note_on_c, 0, 77, 70
2, 36156, Note_on_c, 0, 77, 0
2, 36156, Note_on_c, 0, 75, 70
2, 36168, Note_on_c, 0, 75, 0
2, 36168, Note_on_c, 0, 74, 70
2, 36180, Note_on_c, 0, 74, 0
2, 36180, Note_on_c, 0, 75, 70
2, 36192, Note_on_c, 0, 75, 0
2, 36192, Note_on_c, 0, 84, 70
2, 36237, Note_on_c, 0, 84, 0
2, 36240, Note_on_c, 0, 75, 70
2, 36333, Note_on_c, 0, 75, 0
2, 36336, Note_on_c, 0, 74, 70
2, 36381, Note_on_c, 0, 74, 0
2, 36384, Note_on_c, 0, 74, 70
2, 36407, Note_on_c, 0, 74, 0
2, 36408, Note_on_c, 0, 71, 70
2, 36431, Note_on_c, 0, 71, 0
2, 36432, Note_on_c, 0, 72, 70
2, 36455, Note_on_c, 0, 72, 0
2, 36456, Note_on_c, 0, 79, 70
2, 36479, Note_on_c, 0, 79, 0
2, 36480, Note_on_c, 0, 77, 70
2, 36503, Note_on_c, 0, 77, 0
2, 36504, Note_on_c, 0, 75, 70
2, 36527, Note_on_c, 0, 75, 0
2, 36528, Note_on_c, 0, 74, 70
2, 36551, Note_on_c, 0, 74, 0
2, 36552, Note_on_c, 0, 72, 70
2, 36575, Note_on_c, 0, 72, 0
2, 36576, Note_on_c, 0, 70, 70
2, 36672, Note_on_c, 0, 70, 0
2, 36672, Note_on_c, 0, 69, 70
2, 36678, Note_on_c, 0, 69, 0
2, 36678, Note_on_c, 0, 70, 70
2, 36684, Note_on_c, 0, 70, 0
2, 36684, Note_on_c, 0, 69, 70
2, 36717, Note_on_c, 0, 69, 0
2, 36912, Note_on_c, 0, 77, 75
2, 36912, Note_on_c, 0, 74, 75
2, 36957, Note_on_c, 0, 77, 0
2, 36957, Note_on_c, 0, 74, 0
2, 36960, Note_on_c, 0, 75, 75
2, 36960, Note_on_c, 0, 72, 75
2, 37005, Note_on_c, 0, 75, 0
2, 37005, Note_on_c, 0, 72, 0
2, 37008, Note_on_c, 0, 74, 75
2, 37008, Note_on_c, 0, 70, 75
2, 37053, Note_on_c, 0, 74, 0
2, 37053, Note_on_c, 0, 70, 0
2, 37056, Note_on_c, 0, 72, 75
2, 37056, Note_on_c, 0, 69, 75
2, 37101, Note_on_c, 0, 72, 0
2, 37101, Note_on_c, 0, 69, 0
2, 37104, Note_on_c, 0, 74, 75
2, 37104, Note_on_c, 0, 70, 75
2, 37149, Note_on_c, 0, 74, 0
2, 37149, Note_on_c, 0, 70, 0
2, 37152, Note_on_c, 0, 74, 91
2, 37152, Note_on_c, 0, 71, 91
2, 37248, Note_on_c, 0, 74, 0
2, 37248, Note_on_c, 0, 71, 0
2, 37248, Note_on_c, 0, 75, 75
2, 37248, Note_on_c, 0, 72, 75
2, 37485, Note_on_c, 0, 75, 0
2, 37485, Note_on_c, 0, 72, 0
2, 37488, Note_on_c, 0, 79, 75
2, 37488, Note_on_c, 0, 75, 75
2, 37533, Note_on_c, 0, 79, 0
2, 37533, Note_on_c, 0, 75, 0
2, 37536, Note_on_c, 0, 77, 75
2, 37536, Note_on_c, 0, 74, 75
2, 37581, Note_on_c, 0, 77, 0
2, 37581, Note_on_c, 0, 74, 0
2, 37584, Note_on_c, 0, 75, 75
2, 37584, Note_on_c, 0, 72, 75
2, 37629, Note_on_c, 0, 75, 0
2, 37629, Note_on_c, 0, 72, 0
2, 37632, Note_on_c, 0, 74, 75
2, 37632, Note_on_c, 0, 70, 75
2, 37677, Note_on_c, 0, 74, 0
2, 37677, Note_on_c, 0, 70, 0
2, 37680, Note_on_c, 0, 72, 75
2, 37680, Note_on_c, 0, 69, 75
2, 37725, Note_on_c, 0, 72, 0
2, 37725, Note_on_c, 0, 69, 0
2, 37728, Note_on_c, 0, 73, 91
2, 37728, Note_on_c, 0, 69, 91
2, 37824, Note_on_c, 0, 73, 0
2, 37824, Note_on_c, 0, 69, 0
2, 37824, Note_on_c, 0, 74, 75
2, 37824, Note_on_c, 0, 70, 75
2, 38001, Note_on_c, 0, 74, 0
2, 38001, Note_on_c, 0, 70, 0
2, 38064, Note_on_c, 0, 85, 75
2, 38109, Note_on_c, 0, 85, 0
2, 38112, Note_on_c, 0, 86, 75
2, 38157, Note_on_c, 0, 86, 0
2, 38160, Note_on_c, 0, 81, 75
2, 38205, Note_on_c, 0, 81, 0
2, 38208, Note_on_c, 0, 82, 75
2, 38253, Note_on_c, 0, 82, 0
2, 38256, Note_on_c, 0, 79, 75
2, 38301, Note_on_c, 0, 79, 0
2, 38304, Note_on_c, 0, 77, 75
2, 38349, Note_on_c, 0, 77, 0
2, 38352, Note_on_c, 0, 76, 75
2, 38441, Note_on_c, 0, 76, 0
2, 38448, Note_on_c, 0, 85, 75
2, 38537, Note_on_c, 0, 85, 0
2, 38544, Note_on_c, 0, 84, 75
2, 38615, Note_on_c, 0, 84, 0
2, 38616, Note_on_c, 0, 87, 75
2, 38639, Note_on_c, 0, 87, 0
2, 38640, Note_on_c, 0, 86, 75
2, 38663, Note_on_c, 0, 86, 0
2, 38664, Note_on_c, 0, 89, 75
2, 38687, Note_on_c, 0, 89, 0
2, 38688, Note_on_c, 0, 87, 75
2, 38711, Note_on_c, 0, 87, 0
2, 38712, Note_on_c, 0, 86, 75
2, 38735, Note_on_c, 0, 86, 0
2, 38736, Note_on_c, 0, 84, 75
2, 38759, Note_on_c, 0, 84, 0
2, 38760, Note_on_c, 0, 82, 75
2, 38783, Note_on_c, 0, 82, 0
2, 38784, Note_on_c, 0, 81, 75
2, 38807, Note_on_c, 0, 81, 0
2, 38808, Note_on_c, 0, 79, 75
2, 38831, Note_on_c, 0, 79, 0
2, 38832, Note_on_c, 0, 77, 75
2, 38855, Note_on_c, 0, 77, 0
2, 38856, Note_on_c, 0, 75, 75
2, 38879, Note_on_c, 0, 75, 0
2, 38880, Note_on_c, 0, 74, 75
2, 38925, Note_on_c, 0, 74, 0
2, 38928, Note_on_c, 0, 82, 75
2, 39061, Note_on_c, 0, 82, 0
2, 39072, Note_on_c, 0, 81, 75
2, 39161, Note_on_c, 0, 81, 0
2, 39168, Note_on_c, 0, 79, 75
2, 39345, Note_on_c, 0, 79, 0
2, 39360, Note_on_c, 0, 77, 75
2, 39449, Note_on_c, 0, 77, 0
2, 39456, Note_on_c, 0, 75, 75
2, 39693, Note_on_c, 0, 75, 0
2, 39696, Note_on_c, 0, 74, 75
2, 39767, Note_on_c, 0, 74, 0
2, 39768, Note_on_c, 0, 72, 75
2, 39791, Note_on_c, 0, 72, 0
2, 39792, Note_on_c, 0, 75, 75
2, 39815, Note_on_c, 0, 75, 0
2, 39816, Note_on_c, 0, 72, 75
2, 39839, Note_on_c, 0, 72, 0
2, 39840, Note_on_c, 0, 70, 75
2, 39929, Note_on_c, 0, 70, 0
2, 39936, Note_on_c, 0, 69, 75
2, 39947, Note_on_c, 0, 69, 0
2, 39947, Note_on_c, 0, 70, 75
2, 39958, Note_on_c, 0, 70, 0
2, 39958, Note_on_c, 0, 69, 75
2, 39969, Note_on_c, 0, 69, 0
2, 39969, Note_on_c, 0, 70, 75
2, 39980, Note_on_c, 0, 70, 0
2, 39980, Note_on_c, 0, 69, 75
2, 39991, Note_on_c, 0, 69, 0
2, 39991, Note_on_c, 0, 67, 75
2, 40012, Note_on_c, 0, 67, 0
2, 40012, Note_on_c, 0, 69, 75
2, 40032, Note_on_c, 0, 69, 0
2, 40032, Note_on_c, 0, 82, 75
2, 40209, Note_on_c, 0, 82, 0
2, 40224, Note_on_c, 0, 81, 75
2, 40313, Note_on_c, 0, 81, 0
2, 40320, Note_on_c, 0, 79, 75
2, 40497, Note_on_c, 0, 79, 0
2, 40512, Note_on_c, 0, 77, 75
2, 40601, Note_on_c, 0, 77, 0
2, 40608, Note_on_c, 0, 75, 75
2, 40845, Note_on_c, 0, 75, 0
2, 40848, Note_on_c, 0, 75, 75
2, 40893, Note_on_c, 0, 75, 0
2, 40896, Note_on_c, 0, 77, 75
2, 40919, Note_on_c, 0, 77, 0
2, 40920, Note_on_c, 0, 75, 75
2, 40943, Note_on_c, 0, 75, 0
2, 40944, Note_on_c, 0, 74, 75
2, 40967, Note_on_c, 0, 74, 0
2, 40968, Note_on_c, 0, 75, 75
2, 40991, Note_on_c, 0, 75, 0
2, 40992, Note_on_c, 0, 84, 75
2, 40992, Note_on_c, 0, 75, 75
2, 41361, Note_on_c, 0, 84, 0
2, 41361, Note_on_c, 0, 75, 0
2, 41424, Note_on_c, 0, 81, 75
2, 41447, Note_on_c, 0, 81, 0
2, 41448, Note_on_c, 0, 77, 75
2, 41471, Note_on_c, 0, 77, 0
2, 41472, Note_on_c, 0, 82, 75
2, 41492, Note_on_c, 0, 82, 0
2, 41520, Note_on_c, 0, 81, 75
2, 41543, Note_on_c, 0, 81, 0
2, 41544, Note_on_c, 0, 77, 75
2, 41567, Note_on_c, 0, 77, 0
2, 41568, Note_on_c, 0, 82, 75
2, 41588, Note_on_c, 0, 82, 0
2, 41616, Note_on_c, 0, 81, 75
2, 41639, Note_on_c, 0, 81, 0
2, 41640, Note_on_c, 0, 77, 75
2, 41663, Note_on_c, 0, 77, 0
2, 41664, Note_on_c, 0, 82, 75
2, 41684, Note_on_c, 0, 82, 0
2, 41712, Note_on_c, 0, 84, 75
2, 41735, Note_on_c, 0, 84, 0
2, 41736, Note_on_c, 0, 77, 75
2, 41759, Note_on_c, 0, 77, 0
2, 41760, Note_on_c, 0, 86, 75
2, 41780, Note_on_c, 0, 86, 0
2, 41808, Note_on_c, 0, 87, 75
2, 41831, Note_on_c, 0, 87, 0
2, 41832, Note_on_c, 0, 77, 75
2, 41855, Note_on_c, 0, 77, 0
2, 41856, Note_on_c, 0, 89, 75
2, 41876, Note_on_c, 0, 89, 0
2, 41952, Note_on_c, 0, 87, 75
2, 41975, Note_on_c, 0, 87, 0
2, 41976, Note_on_c, 0, 86, 75
2, 41999, Note_on_c, 0, 86, 0
2, 42000, Note_on_c, 0, 84, 75
2, 42023, Note_on_c, 0, 84, 0
2, 42024, Note_on_c, 0, 82, 75
2, 42047, Note_on_c, 0, 82, 0
2, 42048, Note_on_c, 0, 81, 75
2, 42071, Note_on_c, 0, 81, 0
2, 42072, Note_on_c, 0, 79, 75
2, 42095, Note_on_c, 0, 79, 0
2, 42096, Note_on_c, 0, 77, 75
2, 42119, Note_on_c, 0, 77, 0
2, 42120, Note_on_c, 0, 75, 75
2, 42143, Note_on_c, 0, 75, 0
2, 42144, Note_on_c, 0, 74, 75
2, 42233, Note_on_c, 0, 74, 0
2, 42240, Note_on_c, 0, 72, 75
2, 42249, Note_on_c, 0, 72, 0
2, 42249, Note_on_c, 0, 74, 75
2, 42258, Note_on_c, 0, 74, 0
2, 42258, Note_on_c, 0, 72, 75
2, 42267, Note_on_c, 0, 72, 0
2, 42267, Note_on_c, 0, 74, 75
2, 42276, Note_on_c, 0, 74, 0
2, 42276, Note_on_c, 0, 72, 75
2, 42285, Note_on_c, 0, 72, 0
2, 42285, Note_on_c, 0, 74, 75
2, 42294, Note_on_c, 0, 74, 0
2, 42294, Note_on_c, 0, 72, 75
2, 42303, Note_on_c, 0, 72, 0
2, 42303, Note_on_c, 0, 70, 75
2, 42320, Note_on_c, 0, 70, 0
2, 42320, Note_on_c, 0, 72, 75
2, 42336, Note_on_c, 0, 72, 0
2, 42336, Note_on_c, 0, 70, 75
2, 42381, Note_on_c, 0, 70, 0
2, 42384, Note_on_c, 0, 69, 75
2, 42407, Note_on_c, 0, 69, 0
2, 42408, Note_on_c, 0, 65, 75
2, 42431, Note_on_c, 0, 65, 0
2, 42432, Note_on_c, 0, 70, 75
2, 42455, Note_on_c, 0, 70, 0
2, 42456, Note_on_c, 0, 65, 75
2, 42479, Note_on_c, 0, 65, 0
2, 42480, Note_on_c, 0, 69, 75
2, 42503, Note_on_c, 0, 69, 0
2, 42504, Note_on_c, 0, 65, 75
2, 42527, Note_on_c, 0, 65, 0
2, 42528, Note_on_c, 0, 70, 75
2, 42551, Note_on_c, 0, 70, 0
2, 42552, Note_on_c, 0, 65, 75
2, 42575, Note_on_c, 0, 65, 0
2, 42576, Note_on_c, 0, 72, 75
2, 42599, Note_on_c, 0, 72, 0
2, 42600, Note_on_c, 0, 65, 75
2, 42623, Note_on_c, 0, 65, 0
2, 42624, Note_on_c, 0, 74, 75
2, 42647, Note_on_c, 0, 74, 0
2, 42648, Note_on_c, 0, 65, 75
2, 42671, Note_on_c, 0, 65, 0
2, 42672, Note_on_c, 0, 75, 75
2, 42695, Note_on_c, 0, 75, 0
2, 42696, Note_on_c, 0, 65, 75
2, 42719, Note_on_c, 0, 65, 0
2, 42720, Note_on_c, 0, 77, 75
2, 42765, Note_on_c, 0, 77, 0
2, 42768, Note_on_c, 0, 82, 75
2, 42791, Note_on_c, 0, 82, 0
2, 42792, Note_on_c, 0, 70, 75
2, 42815, Note_on_c, 0, 70, 0
2, 42816, Note_on_c, 0, 81, 75
2, 42839, Note_on_c, 0, 81, 0
2, 42840, Note_on_c, 0, 69, 75
2, 42863, Note_on_c, 0, 69, 0
2, 42864, Note_on_c, 0, 80, 75
2, 42887, Note_on_c, 0, 80, 0
2, 42888, Note_on_c, 0, 68, 75
2, 42911, Note_on_c, 0, 68, 0
2, 42912, Note_on_c, 0, 67, 75
2, 42922, Note_on_c, 0, 67, 0
2, 42936, Note_on_c, 0, 79, 75
2, 42936, Note_on_c, 0, 75, 75
2, 42959, Note_on_c, 0, 79, 0
2, 42959, Note_on_c, 0, 75, 0
2, 42960, Note_on_c, 0, 77, 75
2, 42960, Note_on_c, 0, 74, 75
2, 42983, Note_on_c, 0, 77, 0
2, 42983, Note_on_c, 0, 74, 0
2, 42984, Note_on_c, 0, 75, 75
2, 42984, Note_on_c, 0, 72, 75
2, 43007, Note_on_c, 0, 75, 0
2, 43007, Note_on_c, 0, 72, 0
2, 43008, Note_on_c, 0, 74, 75
2, 43008, Note_on_c, 0, 70, 75
2, 43097, Note_on_c, 0, 74, 0
2, 43097, Note_on_c, 0, 70, 0
2, 43104, Note_on_c, 0, 72, 75
2, 43113, Note_on_c, 0, 72, 0
2, 43113, Note_on_c, 0, 74, 75
2, 43122, Note_on_c, 0, 74, 0
2, 43122, Note_on_c, 0, 72, 75
2, 43131, Note_on_c, 0, 72, 0
2, 43131, Note_on_c, 0, 74, 75
2, 43140, Note_on_c, 0, 74, 0
2, 43140, Note_on_c, 0, 72, 75
2, 43149, Note_on_c, 0, 72, 0
2, 43149, Note_on_c, 0, 74, 75
2, 43158, Note_on_c, 0, 74, 0
2, 43158, Note_on_c, 0, 72, 75
2, 43167, Note_on_c, 0, 72, 0
2, 43167, Note_on_c, 0, 70, 75
2, 43184, Note_on_c, 0, 70, 0
2, 43184, Note_on_c, 0, 72, 75
2, 43200, Note_on_c, 0, 72, 0
2, 43200, Note_on_c, 0, 70, 75
2, 43289, Note_on_c, 0, 70, 0
2, 43344, Note_on_c, 0, 77, 70
2, 43344, Note_on_c, 0, 74, 70
2, 43392, Note_on_c, 0, 77, 0
2, 43392, Note_on_c, 0, 74, 0
2, 43392, Note_on_c, 0, 79, 70
2, 43392, Note_on_c, 0, 75, 70
2, 43437, Note_on_c, 0, 79, 0
2, 43437, Note_on_c, 0, 75, 0
2, 43440, Note_on_c, 0, 75, 70
2, 43440, Note_on_c, 0, 69, 70
2, 43460, Note_on_c, 0, 75, 0
2, 43460, Note_on_c, 0, 69, 0
2, 43488, Note_on_c, 0, 75, 70
2, 43488, Note_on_c, 0, 69, 70
2, 43584, Note_on_c, 0, 75, 0
2, 43584, Note_on_c, 0, 69, 0
2, 43584, Note_on_c, 0, 74, 70
2, 43584, Note_on_c, 0, 70, 70
2, 43604, Note_on_c, 0, 74, 0
2, 43604, Note_on_c, 0, 70, 0
2, 43632, Note_on_c, 0, 74, 70
2, 43632, Note_on_c, 0, 65, 70
2, 43677, Note_on_c, 0, 74, 0
2, 43677, Note_on_c, 0, 65, 0
2, 43680, Note_on_c, 0, 75, 70
2, 43680, Note_on_c, 0, 67, 70
2, 43725, Note_on_c, 0, 75, 0
2, 43725, Note_on_c, 0, 67, 0
2, 43728, Note_on_c, 0, 69, 70
2, 43728, Note_on_c, 0, 63, 70
2, 43748, Note_on_c, 0, 69, 0
2, 43748, Note_on_c, 0, 63, 0
2, 43776, Note_on_c, 0, 69, 70
2, 43776, Note_on_c, 0, 63, 70
2, 43872, Note_on_c, 0, 69, 0
2, 43872, Note_on_c, 0, 63, 0
2, 43872, Note_on_c, 0, 70, 70
2, 43872, Note_on_c, 0, 62, 70
2, 43892, Note_on_c, 0, 70, 0
2, 43892, Note_on_c, 0, 62, 0
2, 43920, Note_on_c, 0, 65, 70
2, 43920, Note_on_c, 0, 62, 70
2, 43965, Note_on_c, 0, 65, 0
2, 43965, Note_on_c, 0, 62, 0
2, 43968, Note_on_c, 0, 67, 70
2, 43968, Note_on_c, 0, 63, 70
2, 44013, Note_on_c, 0, 67, 0
2, 44013, Note_on_c, 0, 63, 0
2, 44016, Note_on_c, 0, 57, 70
2, 44016, Note_on_c, 0, 51, 70
2, 44036, Note_on_c, 0, 57, 0
2, 44036, Note_on_c, 0, 51, 0
2, 44064, Note_on_c, 0, 57, 70
2, 44064, Note_on_c, 0, 51, 70
2, 44352, Note_on_c, 0, 57, 0
2, 44352, Note_on_c, 0, 51, 0
2, 44352, Note_on_c, 0, 58, 70
2, 44352, Note_on_c, 0, 50, 70
2, 44441, Note_on_c, 0, 58, 0
2, 44441, Note_on_c, 0, 50, 0
2, 44640, Note_on_c, 0, 72, 75
2, 44640, Note_on_c, 0, 69, 75
2, 44817, Note_on_c, 0, 72, 0
2, 44817, Note_on_c, 0, 69, 0
2, 44832, Note_on_c, 0, 76, 75
2, 44838, Note_on_c, 0, 76, 0
2, 44838, Note_on_c, 0, 74, 75
2, 44838, Note_on_c, 0, 70, 75
2, 44899, Note_on_c, 0, 74, 0
2, 44899, Note_on_c, 0, 70, 0
2, 44904, Note_on_c, 0, 72, 75
2, 44904, Note_on_c, 0, 69, 75
2, 44927, Note_on_c, 0, 72, 0
2, 44927, Note_on_c, 0, 69, 0
2, 44928, Note_on_c, 0, 72, 75
2, 44928, Note_on_c, 0, 69, 75
2, 45017, Note_on_c, 0, 72, 0
2, 45017, Note_on_c, 0, 69, 0
2, 45024, Note_on_c, 0, 70, 75
2, 45033, Note_on_c, 0, 70, 0
2, 45033, Note_on_c, 0, 72, 75
2, 45042, Note_on_c, 0, 72, 0
2, 45042, Note_on_c, 0, 70, 75
2, 45051, Note_on_c, 0, 70, 0
2, 45051, Note_on_c, 0, 72, 75
2, 45060, Note_on_c, 0, 72, 0
2, 45060, Note_on_c, 0, 70, 75
2, 45069, Note_on_c, 0, 70, 0
2, 45069, Note_on_c, 0, 72, 75
2, 45078, Note_on_c, 0, 72, 0
2, 45078, Note_on_c, 0, 70, 75
2, 45087, Note_on_c, 0, 70, 0
2, 45087, Note_on_c, 0, 69, 75
2, 45104, Note_on_c, 0, 69, 0
2, 45104, Note_on_c, 0, 70, 75
2, 45120, Note_on_c, 0, 70, 0
2, 45120, Note_on_c, 0, 69, 75
2, 45120, Note_on_c, 0, 65, 75
2, 45209, Note_on_c, 0, 69, 0
2, 45209, Note_on_c, 0, 65, 0
2, 45216, Note_on_c, 0, 74, 75
2, 45239, Note_on_c, 0, 74, 0
2, 45240, Note_on_c, 0, 73, 75
2, 45263, Note_on_c, 0, 73, 0
2, 45264, Note_on_c, 0, 74, 75
2, 45287, Note_on_c, 0, 74, 0
2, 45288, Note_on_c, 0, 76, 75
2, 45311, Note_on_c, 0, 76, 0
2, 45312, Note_on_c, 0, 77, 75
2, 45335, Note_on_c, 0, 77, 0
2, 45336, Note_on_c, 0, 76, 75
2, 45359, Note_on_c, 0, 76, 0
2, 45360, Note_on_c, 0, 79, 75
2, 45383, Note_on_c, 0, 79, 0
2, 45384, Note_on_c, 0, 77, 75
2, 45407, Note_on_c, 0, 77, 0
2, 45408, Note_on_c, 0, 81, 75
2, 45431, Note_on_c, 0, 81, 0
2, 45432, Note_on_c, 0, 77, 75
2, 45455, Note_on_c, 0, 77, 0
2, 45456, Note_on_c, 0, 76, 75
2, 45479, Note_on_c, 0, 76, 0
2, 45480, Note_on_c, 0, 74, 75
2, 45503, Note_on_c, 0, 74, 0
2, 45504, Note_on_c, 0, 72, 75
2, 45593, Note_on_c, 0, 72, 0
2, 45600, Note_on_c, 0, 70, 75
2, 45609, Note_on_c, 0, 70, 0
2, 45609, Note_on_c, 0, 72, 75
2, 45618, Note_on_c, 0, 72, 0
2, 45618, Note_on_c, 0, 70, 75
2, 45627, Note_on_c, 0, 70, 0
2, 45627, Note_on_c, 0, 72, 75
2, 45636, Note_on_c, 0, 72, 0
2, 45636, Note_on_c, 0, 70, 75
2, 45645, Note_on_c, 0, 70, 0
2, 45645, Note_on_c, 0, 72, 75
2, 45654, Note_on_c, 0, 72, 0
2, 45654, Note_on_c, 0, 70, 75
2, 45663, Note_on_c, 0, 70, 0
2, 45663, Note_on_c, 0, 69, 75
2, 45680, Note_on_c, 0, 69, 0
2, 45680, Note_on_c, 0, 70, 75
2, 45696, Note_on_c, 0, 70, 0
2, 45696, Note_on_c, 0, 69, 75
2, 45881, Note_on_c, 0, 69, 0
2, 46080, Note_on_c, 0, 77, 75
2, 46103, Note_on_c, 0, 77, 0
2, 46104, Note_on_c, 0, 76, 75
2, 46127, Note_on_c, 0, 76, 0
2, 46128, Note_on_c, 0, 79, 75
2, 46151, Note_on_c, 0, 79, 0
2, 46152, Note_on_c, 0, 77, 75
2, 46175, Note_on_c, 0, 77, 0
2, 46176, Note_on_c, 0, 80, 75
2, 46221, Note_on_c, 0, 80, 0
2, 46224, Note_on_c, 0, 77, 75
2, 46269, Note_on_c, 0, 77, 0
2, 46272, Note_on_c, 0, 75, 75
2, 46317, Note_on_c, 0, 75, 0
2, 46320, Note_on_c, 0, 74, 75
2, 46365, Note_on_c, 0, 74, 0
2, 46368, Note_on_c, 0, 72, 75
2, 46457, Note_on_c, 0, 72, 0
2, 46464, Note_on_c, 0, 71, 75
2, 46553, Note_on_c, 0, 71, 0
2, 46560, Note_on_c, 0, 74, 75
2, 46701, Note_on_c, 0, 74, 0
2, 46704, Note_on_c, 0, 67, 75
2, 46749, Note_on_c, 0, 67, 0
2, 46752, Note_on_c, 0, 72, 75
2, 46775, Note_on_c, 0, 72, 0
2, 46776, Note_on_c, 0, 71, 75
2, 46799, Note_on_c, 0, 71, 0
2, 46800, Note_on_c, 0, 74, 75
2, 46823, Note_on_c, 0, 74, 0
2, 46824, Note_on_c, 0, 72, 75
2, 46847, Note_on_c, 0, 72, 0
2, 46848, Note_on_c, 0, 75, 75
2, 46871, Note_on_c, 0, 75, 0
2, 46872, Note_on_c, 0, 74, 75
2, 46895, Note_on_c, 0, 74, 0
2, 46896, Note_on_c, 0, 77, 75
2, 46919, Note_on_c, 0, 77, 0
2, 46920, Note_on_c, 0, 75, 75
2, 46943, Note_on_c, 0, 75, 0
2, 46944, Note_on_c, 0, 79, 75
2, 47565, Note_on_c, 0, 79, 0
2, 47568, Note_on_c, 0, 78, 75
2, 47613, Note_on_c, 0, 78, 0
2, 47616, Note_on_c, 0, 79, 75
2, 47639, Note_on_c, 0, 79, 0
2, 47640, Note_on_c, 0, 78, 75
2, 47663, Note_on_c, 0, 78, 0
2, 47664, Note_on_c, 0, 76, 75
2, 47687, Note_on_c, 0, 76, 0
2, 47688, Note_on_c, 0, 78, 75
2, 47711, Note_on_c, 0, 78, 0
2, 47712, Note_on_c, 0, 81, 75
2, 48273, Note_on_c, 0, 81, 0
2, 48336, Note_on_c, 0, 78, 75
2, 48359, Note_on_c, 0, 78, 0
2, 48360, Note_on_c, 0, 74, 75
2, 48383, Note_on_c, 0, 74, 0
2, 48384, Note_on_c, 0, 79, 75
2, 48404, Note_on_c, 0, 79, 0
2, 48432, Note_on_c, 0, 78, 75
2, 48455, Note_on_c, 0, 78, 0
2, 48456, Note_on_c, 0, 74, 75
2, 48479, Note_on_c, 0, 74, 0
2, 48480, Note_on_c, 0, 79, 75
2, 48500, Note_on_c, 0, 79, 0
2, 48528, Note_on_c, 0, 78, 75
2, 48551, Note_on_c, 0, 78, 0
2, 48552, Note_on_c, 0, 74, 75
2, 48575, Note_on_c, 0, 74, 0
2, 48576, Note_on_c, 0, 79, 75
2, 48596, Note_on_c, 0, 79, 0
2, 48624, Note_on_c, 0, 81, 75
2, 48647, Note_on_c, 0, 81, 0
2, 48648, Note_on_c, 0, 74, 75
2, 48671, Note_on_c, 0, 74, 0
2, 48672, Note_on_c, 0, 82, 75
2, 48692, Note_on_c, 0, 82, 0
2, 48720, Note_on_c, 0, 84, 75
2, 48743, Note_on_c, 0, 84, 0
2, 48744, Note_on_c, 0, 74, 75
2, 48767, Note_on_c, 0, 74, 0
2, 48768, Note_on_c, 0, 86, 75
2, 48788, Note_on_c, 0, 86, 0
2, 48864, Note_on_c, 0, 84, 75
2, 48887, Note_on_c, 0, 84, 0
2, 48888, Note_on_c, 0, 82, 75
2, 48911, Note_on_c, 0, 82, 0
2, 48912, Note_on_c, 0, 81, 75
2, 48935, Note_on_c, 0, 81, 0
2, 48936, Note_on_c, 0, 79, 75
2, 48959, Note_on_c, 0, 79, 0
2, 48960, Note_on_c, 0, 77, 75
2, 48983, Note_on_c, 0, 77, 0
2, 48984, Note_on_c, 0, 75, 75
2, 49007, Note_on_c, 0, 75, 0
2, 49008, Note_on_c, 0, 74, 75
2, 49031, Note_on_c, 0, 74, 0
2, 49032, Note_on_c, 0, 72, 75
2, 49055, Note_on_c, 0, 72, 0
2, 49056, Note_on_c, 0, 70, 75
2, 49145, Note_on_c, 0, 70, 0
2, 49152, Note_on_c, 0, 69, 75
2, 49161, Note_on_c, 0, 69, 0
2, 49161, Note_on_c, 0, 70, 75
2, 49170, Note_on_c, 0, 70, 0
2, 49170, Note_on_c, 0, 69, 75
2, 49179, Note_on_c, 0, 69, 0
2, 49179, Note_on_c, 0, 70, 75
2, 49188, Note_on_c, 0, 70, 0
2, 49188, Note_on_c, 0, 69, 75
2, 49197, Note_on_c, 0, 69, 0
2, 49197, Note_on_c, 0, 70, 75
2, 49206, Note_on_c, 0, 70, 0
2, 49206, Note_on_c, 0, 69, 75
2, 49215, Note_on_c, 0, 69, 0
2, 49215, Note_on_c, 0, 67, 75
2, 49232, Note_on_c, 0, 67, 0
2, 49232, Note_on_c, 0, 69, 75
2, 49248, Note_on_c, 0, 69, 0
2, 49248, Note_on_c, 0, 67, 75
2, 49293, Note_on_c, 0, 67, 0
2, 49296, Note_on_c, 0, 78, 75
2, 49319, Note_on_c, 0, 78, 0
2, 49320, Note_on_c, 0, 74, 75
2, 49343, Note_on_c, 0, 74, 0
2, 49344, Note_on_c, 0, 79, 75
2, 49367, Note_on_c, 0, 79, 0
2, 49368, Note_on_c, 0, 74, 76
2, 49391, Note_on_c, 0, 74, 0
2, 49392, Note_on_c, 0, 78, 76
2, 49415, Note_on_c, 0, 78, 0
2, 49416, Note_on_c, 0, 74, 77
2, 49439, Note_on_c, 0, 74, 0
2, 49440, Note_on_c, 0, 79, 77
2, 49463, Note_on_c, 0, 79, 0
2, 49464, Note_on_c, 0, 74, 78
2, 49487, Note_on_c, 0, 74, 0
2, 49488, Note_on_c, 0, 81, 78
2, 49511, Note_on_c, 0, 81, 0
2, 49512, Note_on_c, 0, 74, 79
2, 49535, Note_on_c, 0, 74, 0
2, 49536, Note_on_c, 0, 82, 95
2, 49560, Note_on_c, 0, 82, 0
2, 49560, Note_on_c, 0, 74, 75
2, 49583, Note_on_c, 0, 74, 0
2, 49584, Note_on_c, 0, 76, 75
2, 49607, Note_on_c, 0, 76, 0
2, 49608, Note_on_c, 0, 72, 75
2, 49631, Note_on_c, 0, 72, 0
2, 49632, Note_on_c, 0, 77, 76
2, 49655, Note_on_c, 0, 77, 0
2, 49656, Note_on_c, 0, 72, 76
2, 49679, Note_on_c, 0, 72, 0
2, 49680, Note_on_c, 0, 76, 77
2, 49703, Note_on_c, 0, 76, 0
2, 49704, Note_on_c, 0, 72, 77
2, 49727, Note_on_c, 0, 72, 0
2, 49728, Note_on_c, 0, 77, 77
2, 49751, Note_on_c, 0, 77, 0
2, 49752, Note_on_c, 0, 72, 78
2, 49775, Note_on_c, 0, 72, 0
2, 49776, Note_on_c, 0, 79, 78
2, 49799, Note_on_c, 0, 79, 0
2, 49800, Note_on_c, 0, 72, 79
2, 49823, Note_on_c, 0, 72, 0
2, 49824, Note_on_c, 0, 80, 95
2, 49848, Note_on_c, 0, 80, 0
2, 49848, Note_on_c, 0, 72, 75
2, 49871, Note_on_c, 0, 72, 0
2, 49872, Note_on_c, 0, 74, 75
2, 49895, Note_on_c, 0, 74, 0
2, 49896, Note_on_c, 0, 70, 75
2, 49919, Note_on_c, 0, 70, 0
2, 49920, Note_on_c, 0, 75, 76
2, 49943, Note_on_c, 0, 75, 0
2, 49944, Note_on_c, 0, 70, 76
2, 49967, Note_on_c, 0, 70, 0
2, 49968, Note_on_c, 0, 74, 76
2, 49991, Note_on_c, 0, 74, 0
2, 49992, Note_on_c, 0, 70, 77
2, 50015, Note_on_c, 0, 70, 0
2, 50016, Note_on_c, 0, 75, 77
2, 50039, Note_on_c, 0, 75, 0
2, 50040, Note_on_c, 0, 70, 78
2, 50063, Note_on_c, 0, 70, 0
2, 50064, Note_on_c, 0, 65, 78
2, 50087, Note_on_c, 0, 65, 0
2, 50088, Note_on_c, 0, 77, 78
2, 50111, Note_on_c, 0, 77, 0
2, 50112, Note_on_c, 0, 67, 79
2, 50135, Note_on_c, 0, 67, 0
2, 50136, Note_on_c, 0, 79, 79
2, 50159, Note_on_c, 0, 79, 0
2, 50160, Note_on_c, 0, 65, 80
2, 50183, Note_on_c, 0, 65, 0
2, 50184, Note_on_c, 0, 77, 80
2, 50207, Note_on_c, 0, 77, 0
2, 50208, Note_on_c, 0, 63, 80
2, 50231, Note_on_c, 0, 63, 0
2, 50232, Note_on_c, 0, 75, 80
2, 50255, Note_on_c, 0, 75, 0
2, 50256, Note_on_c, 0, 62, 80
2, 50279, Note_on_c, 0, 62, 0
2, 50280, Note_on_c, 0, 74, 80
2, 50303, Note_on_c, 0, 74, 0
2, 50304, Note_on_c, 0, 60, 80
2, 50327, Note_on_c, 0, 60, 0
2, 50328, Note_on_c, 0, 72, 80
2, 50351, Note_on_c, 0, 72, 0
2, 50352, Note_on_c, 0, 58, 80
2, 50375, Note_on_c, 0, 58, 0
2, 50376, Note_on_c, 0, 70, 80
2, 50399, Note_on_c, 0, 70, 0
2, 50400, Note_on_c, 0, 57, 80
2, 50423, Note_on_c, 0, 57, 0
2, 50424, Note_on_c, 0, 69, 80
2, 50447, Note_on_c, 0, 69, 0
2, 50688, Note_on_c, 0, 77, 75
2, 50688, Note_on_c, 0, 74, 75
2, 50865, Note_on_c, 0, 77, 0
2, 50865, Note_on_c, 0, 74, 0
2, 50880, Note_on_c, 0, 81, 75
2, 50886, Note_on_c, 0, 81, 0
2, 50886, Note_on_c, 0, 79, 75
2, 50886, Note_on_c, 0, 75, 75
2, 50947, Note_on_c, 0, 79, 0
2, 50947, Note_on_c, 0, 75, 0
2, 50952, Note_on_c, 0, 77, 75
2, 50952, Note_on_c, 0, 74, 75
2, 50975, Note_on_c, 0, 77, 0
2, 50975, Note_on_c, 0, 74, 0
2, 50976, Note_on_c, 0, 77, 75
2, 50976, Note_on_c, 0, 74, 75
2, 51065, Note_on_c, 0, 77, 0
2, 51065, Note_on_c, 0, 74, 0
2, 51072, Note_on_c, 0, 75, 75
2, 51081, Note_on_c, 0, 75, 0
2, 51081, Note_on_c, 0, 77, 75
2, 51090, Note_on_c, 0, 77, 0
2, 51090, Note_on_c, 0, 75, 75
2, 51099, Note_on_c, 0, 75, 0
2, 51099, Note_on_c, 0, 77, 75
2, 51108, Note_on_c, 0, 77, 0
2, 51108, Note_on_c, 0, 75, 75
2, 51117, Note_on_c, 0, 75, 0
2, 51117, Note_on_c, 0, 77, 75
2, 51126, Note_on_c, 0, 77, 0
2, 51126, Note_on_c, 0, 75, 75
2, 51135, Note_on_c, 0, 75, 0
2, 51135, Note_on_c, 0, 74, 75
2, 51152, Note_on_c, 0, 74, 0
2, 51152, Note_on_c, 0, 75, 75
2, 51168, Note_on_c, 0, 75, 0
2, 51168, Note_on_c, 0, 74, 75
2, 51168, Note_on_c, 0, 70, 75
2, 51257, Note_on_c, 0, 74, 0
2, 51257, Note_on_c, 0, 70, 0
2, 51264, Note_on_c, 0, 79, 75
2, 51274, Note_on_c, 0, 79, 0
2, 51288, Note_on_c, 0, 81, 75
2, 51296, Note_on_c, 0, 81, 0
2, 51296, Note_on_c, 0, 79, 75
2, 51304, Note_on_c, 0, 79, 0
2, 51304, Note_on_c, 0, 78, 75
2, 51312, Note_on_c, 0, 78, 0
2, 51312, Note_on_c, 0, 79, 75
2, 51335, Note_on_c, 0, 79, 0
2, 51336, Note_on_c, 0, 81, 75
2, 51359, Note_on_c, 0, 81, 0
2, 51360, Note_on_c, 0, 82, 75
2, 51427, Note_on_c, 0, 82, 0
2, 51432, Note_on_c, 0, 85, 75
2, 51455, Note_on_c, 0, 85, 0
2, 51456, Note_on_c, 0, 86, 75
2, 51479, Note_on_c, 0, 86, 0
2, 51480, Note_on_c, 0, 81, 75
2, 51503, Note_on_c, 0, 81, 0
2, 51504, Note_on_c, 0, 82, 75
2, 51527, Note_on_c, 0, 82, 0
2, 51528, Note_on_c, 0, 79, 75
2, 51551, Note_on_c, 0, 79, 0
2, 51552, Note_on_c, 0, 77, 75
2, 51715, Note_on_c, 0, 77, 0
2, 51720, Note_on_c, 0, 75, 75
2, 51726, Note_on_c, 0, 75, 0
2, 51726, Note_on_c, 0, 77, 75
2, 51732, Note_on_c, 0, 77, 0
2, 51732, Note_on_c, 0, 75, 75
2, 51743, Note_on_c, 0, 75, 0
2, 51744, Note_on_c, 0, 74, 75
2, 51833, Note_on_c, 0, 74, 0
2, 51840, Note_on_c, 0, 72, 75
2, 51849, Note_on_c, 0, 72, 0
2, 51849, Note_on_c, 0, 74, 75
2, 51858, Note_on_c, 0, 74, 0
2, 51858, Note_on_c, 0, 72, 75
2, 51867, Note_on_c, 0, 72, 0
2, 51867, Note_on_c, 0, 74, 75
2, 51876, Note_on_c, 0, 74, 0
2, 51876, Note_on_c, 0, 72, 75
2, 51885, Note_on_c, 0, 72, 0
2, 51885, Note_on_c, 0, 74, 75
2, 51894, Note_on_c, 0, 74, 0
2, 51894, Note_on_c, 0, 72, 75
2, 51903, Note_on_c, 0, 72, 0
2, 51903, Note_on_c, 0, 71, 75
2, 51920, Note_on_c, 0, 71, 0
2, 51920, Note_on_c, 0, 72, 75
2, 51936, Note_on_c, 0, 72, 0
2, 51936, Note_on_c, 0, 79, 75
2, 51965, Note_on_c, 0, 79, 0
2, 52008, Note_on_c, 0, 75, 75
2, 52031, Note_on_c, 0, 75, 0
2, 52032, Note_on_c, 0, 75, 75
2, 52038, Note_on_c, 0, 75, 0
2, 52038, Note_on_c, 0, 74, 75
2, 52061, Note_on_c, 0, 74, 0
2, 52104, Note_on_c, 0, 72, 75
2, 52127, Note_on_c, 0, 72, 0
2, 52128, Note_on_c, 0, 70, 75
2, 52247, Note_on_c, 0, 70, 0
2, 52248, Note_on_c, 0, 69, 75
2, 52271, Note_on_c, 0, 69, 0
2, 52272, Note_on_c, 0, 70, 75
2, 52284, Note_on_c, 0, 70, 0
2, 52284, Note_on_c, 0, 69, 75
2, 52296, Note_on_c, 0, 69, 0
2, 52296, Note_on_c, 0, 67, 75
2, 52308, Note_on_c, 0, 67, 0
2, 52308, Note_on_c, 0, 69, 75
2, 52320, Note_on_c, 0, 69, 0
2, 52320, Note_on_c, 0, 70, 75
2, 52343, Note_on_c, 0, 70, 0
2, 52344, Note_on_c, 0, 72, 75
2, 52352, Note_on_c, 0, 72, 0
2, 52352, Note_on_c, 0, 70, 75
2, 52360, Note_on_c, 0, 70, 0
2, 52360, Note_on_c, 0, 69, 75
2, 52368, Note_on_c, 0, 69, 0
2, 52368, Note_on_c, 0, 70, 75
2, 52391, Note_on_c, 0, 70, 0
2, 52392, Note_on_c, 0, 74, 75
2, 52415, Note_on_c, 0, 74, 0
2, 52416, Note_on_c, 0, 65, 75
2, 52542, Note_on_c, 0, 65, 0
2, 52544, Note_on_c, 0, 67, 75
2, 52574, Note_on_c, 0, 67, 0
2, 52576, Note_on_c, 0, 65, 75
2, 52606, Note_on_c, 0, 65, 0
2, 52608, Note_on_c, 0, 63, 75
2, 52614, Note_on_c, 0, 63, 0
2, 52614, Note_on_c, 0, 65, 75
2, 52620, Note_on_c, 0, 65, 0
2, 52620, Note_on_c, 0, 63, 75
2, 52638, Note_on_c, 0, 63, 0
2, 52640, Note_on_c, 0, 62, 75
2, 52670, Note_on_c, 0, 62, 0
2, 52672, Note_on_c, 0, 63, 75
2, 52702, Note_on_c, 0, 63, 0
2, 52704, Note_on_c, 0, 63, 75
2, 52830, Note_on_c, 0, 63, 0
2, 52832, Note_on_c, 0, 62, 75
2, 52862, Note_on_c, 0, 62, 0
2, 52864, Note_on_c, 0, 65, 75
2, 52894, Note_on_c, 0, 65, 0
2, 52896, Note_on_c, 0, 69, 75
2, 52926, Note_on_c, 0, 69, 0
2, 52928, Note_on_c, 0, 70, 75
2, 52958, Note_on_c, 0, 70, 0
2, 52960, Note_on_c, 0, 74, 75
2, 52992, Note_on_c, 0, 77, 75
2, 53133, Note_on_c, 0, 77, 0
2, 53133, Note_on_c, 0, 74, 0
2, 53136, Note_on_c, 0, 79, 75
2, 53159, Note_on_c, 0, 79, 0
2, 53160, Note_on_c, 0, 81, 75
2, 53183, Note_on_c, 0, 81, 0
2, 53184, Note_on_c, 0, 84, 75
2, 53207, Note_on_c, 0, 84, 0
2, 53208, Note_on_c, 0, 82, 75
2, 53231, Note_on_c, 0, 82, 0
2, 53232, Note_on_c, 0, 81, 75
2, 53255, Note_on_c, 0, 81, 0
2, 53256, Note_on_c, 0, 79, 75
2, 53279, Note_on_c, 0, 79, 0
2, 53280, Note_on_c, 0, 77, 75
2, 53369, Note_on_c, 0, 77, 0
2, 53376, Note_on_c, 0, 75, 75
2, 53385, Note_on_c, 0, 75, 0
2, 53385, Note_on_c, 0, 77, 75
2, 53394, Note_on_c, 0, 77, 0
2, 53394, Note_on_c, 0, 75, 75
2, 53403, Note_on_c, 0, 75, 0
2, 53403, Note_on_c, 0, 77, 75
2, 53412, Note_on_c, 0, 77, 0
2, 53412, Note_on_c, 0, 75, 75
2, 53421, Note_on_c, 0, 75, 0
2, 53421, Note_on_c, 0, 77, 75
2, 53430, Note_on_c, 0, 77, 0
2, 53430, Note_on_c, 0, 75, 75
2, 53439, Note_on_c, 0, 75, 0
2, 53439, Note_on_c, 0, 74, 75
2, 53456, Note_on_c, 0, 74, 0
2, 53456, Note_on_c, 0, 75, 75
2, 53472, Note_on_c, 0, 75, 0
2, 53472, Note_on_c, 0, 74, 75
2, 53561, Note_on_c, 0, 74, 0
2, 53616, Note_on_c, 0, 78, 70
2, 53661, Note_on_c, 0, 78, 0
2, 53664, Note_on_c, 0, 79, 70
2, 53709, Note_on_c, 0, 79, 0
2, 53712, Note_on_c, 0, 81, 70
2, 53757, Note_on_c, 0, 81, 0
2, 53760, Note_on_c, 0, 84, 70
2, 53783, Note_on_c, 0, 84, 0
2, 53784, Note_on_c, 0, 82, 70
2, 53807, Note_on_c, 0, 82, 0
2, 53808, Note_on_c, 0, 81, 70
2, 53831, Note_on_c, 0, 81, 0
2, 53832, Note_on_c, 0, 79, 70
2, 53855, Note_on_c, 0, 79, 0
2, 53856, Note_on_c, 0, 79, 70
2, 53879, Note_on_c, 0, 79, 0
2, 53880, Note_on_c, 0, 77, 70
2, 53903, Note_on_c, 0, 77, 0
2, 53904, Note_on_c, 0, 76, 70
2, 53927, Note_on_c, 0, 76, 0
2, 53928, Note_on_c, 0, 79, 70
2, 53951, Note_on_c, 0, 79, 0
2, 53952, Note_on_c, 0, 77, 70
2, 53997, Note_on_c, 0, 77, 0
2, 54000, Note_on_c, 0, 79, 70
2, 54012, Note_on_c, 0, 79, 0
2, 54012, Note_on_c, 0, 77, 70
2, 54024, Note_on_c, 0, 77, 0
2, 54024, Note_on_c, 0, 76, 70
2, 54036, Note_on_c, 0, 76, 0
2, 54036, Note_on_c, 0, 77, 70
2, 54048, Note_on_c, 0, 77, 0
2, 54048, Note_on_c, 0, 81, 70
2, 54093, Note_on_c, 0, 81, 0
2, 54096, Note_on_c, 0, 82, 70
2, 54189, Note_on_c, 0, 82, 0
2, 54192, Note_on_c, 0, 78, 70
2, 54237, Note_on_c, 0, 78, 0
2, 54240, Note_on_c, 0, 81, 70
2, 54263, Note_on_c, 0, 81, 0
2, 54264, Note_on_c, 0, 79, 70
2, 54287, Note_on_c, 0, 79, 0
2, 54288, Note_on_c, 0, 82, 70
2, 54311, Note_on_c, 0, 82, 0
2, 54312, Note_on_c, 0, 81, 70
2, 54335, Note_on_c, 0, 81, 0
2, 54336, Note_on_c, 0, 84, 70
2, 54359, Note_on_c, 0, 84, 0
2, 54360, Note_on_c, 0, 82, 70
2, 54383, Note_on_c, 0, 82, 0
2, 54384, Note_on_c, 0, 81, 70
2, 54407, Note_on_c, 0, 81, 0
2, 54408, Note_on_c, 0, 79, 70
2, 54431, Note_on_c, 0, 79, 0
2, 54432, Note_on_c, 0, 79, 70
2, 54455, Note_on_c, 0, 79, 0
2, 54456, Note_on_c, 0, 77, 70
2, 54479, Note_on_c, 0, 77, 0
2, 54480, Note_on_c, 0, 76, 70
2, 54503, Note_on_c, 0, 76, 0
2, 54504, Note_on_c, 0, 79, 70
2, 54527, Note_on_c, 0, 79, 0
2, 54528, Note_on_c, 0, 77, 70
2, 54573, Note_on_c, 0, 77, 0
2, 54576, Note_on_c, 0, 79, 70
2, 54588, Note_on_c, 0, 79, 0
2, 54588, Note_on_c, 0, 77, 70
2, 54600, Note_on_c, 0, 77, 0
2, 54600, Note_on_c, 0, 76, 70
2, 54612, Note_on_c, 0, 76, 0
2, 54612, Note_on_c, 0, 77, 70
2, 54624, Note_on_c, 0, 77, 0
2, 54624, Note_on_c, 0, 86, 70
2, 54669, Note_on_c, 0, 86, 0
2, 54672, Note_on_c, 0, 77, 70
2, 54717, Note_on_c, 0, 77, 0
2, 54720, Note_on_c, 0, 77, 70
2, 54768, Note_on_c, 0, 77, 0
2, 54768, Note_on_c, 0, 75, 70
2, 54788, Note_on_c, 0, 75, 0
2, 54840, Note_on_c, 0, 75, 70
2, 54863, Note_on_c, 0, 75, 0
2, 54864, Note_on_c, 0, 77, 70
2, 54876, Note_on_c, 0, 77, 0
2, 54876, Note_on_c, 0, 75, 70
2, 54888, Note_on_c, 0, 75, 0
2, 54888, Note_on_c, 0, 74, 70
2, 54900, Note_on_c, 0, 74, 0
2, 54900, Note_on_c, 0, 75, 70
2, 54912, Note_on_c, 0, 75, 0
2, 54912, Note_on_c, 0, 84, 70
2, 54957, Note_on_c, 0, 84, 0
2, 54960, Note_on_c, 0, 75, 70
2, 55053, Note_on_c, 0, 75, 0
2, 55056, Note_on_c, 0, 74, 70
2, 55101, Note_on_c, 0, 74, 0
2, 55104, Note_on_c, 0, 74, 70
2, 55127, Note_on_c, 0, 74, 0
2, 55128, Note_on_c, 0, 71, 70
2, 55151, Note_on_c, 0, 71, 0
2, 55152, Note_on_c, 0, 72, 70
2, 55175, Note_on_c, 0, 72, 0
2, 55176, Note_on_c, 0, 79, 70
2, 55199, Note_on_c, 0, 79, 0
2, 55200, Note_on_c, 0, 77, 70
2, 55223, Note_on_c, 0, 77, 0
2, 55224, Note_on_c, 0, 75, 70
2, 55247, Note_on_c, 0, 75, 0
2, 55248, Note_on_c, 0, 74, 70
2, 55271, Note_on_c, 0, 74, 0
2, 55272, Note_on_c, 0, 72, 70
2, 55295, Note_on_c, 0, 72, 0
2, 55296, Note_on_c, 0, 70, 70
2, 55392, Note_on_c, 0, 70, 0
2, 55392, Note_on_c, 0, 69, 70
2, 55398, Note_on_c, 0, 69, 0
2, 55398, Note_on_c, 0, 70, 70
2, 55404, Note_on_c, 0, 70, 0
2, 55404, Note_on_c, 0, 69, 70
2, 55437, Note_on_c, 0, 69, 0
2, 55632, Note_on_c, 0, 77, 75
2, 55632, Note_on_c, 0, 74, 75
2, 55677, Note_on_c, 0, 77, 0
2, 55677, Note_on_c, 0, 74, 0
2, 55680, Note_on_c, 0, 75, 75
2, 55680, Note_on_c, 0, 72, 75
2, 55725, Note_on_c, 0, 75, 0
2, 55725, Note_on_c, 0, 72, 0
2, 55728, Note_on_c, 0, 74, 75
2, 55728, Note_on_c, 0, 70, 75
2, 55773, Note_on_c, 0, 74, 0
2, 55773, Note_on_c, 0, 70, 0
2, 55776, Note_on_c, 0, 72, 75
2, 55776, Note_on_c, 0, 69, 75
2, 55821, Note_on_c, 0, 72, 0
2, 55821, Note_on_c, 0, 69, 0
2, 55824, Note_on_c, 0, 74, 75
2, 55824, Note_on_c, 0, 70, 75
2, 55869, Note_on_c, 0, 74, 0
2, 55869, Note_on_c, 0, 70, 0
2, 55872, Note_on_c, 0, 74, 91
2, 55872, Note_on_c, 0, 71, 91
2, 55968, Note_on_c, 0, 74, 0
2, 55968, Note_on_c, 0, 71, 0
2, 55968, Note_on_c, 0, 75, 75
2, 55968, Note_on_c, 0, 72, 75
2, 56205, Note_on_c, 0, 75, 0
2, 56205, Note_on_c, 0, 72, 0
2, 56208, Note_on_c, 0, 79, 75
2, 56208, Note_on_c, 0, 75, 75
2, 56253, Note_on_c, 0, 79, 0
2, 56253, Note_on_c, 0, 75, 0
2, 56256, Note_on_c, 0, 77, 75
2, 56256, Note_on_c, 0, 74, 75
2, 56301, Note_on_c, 0, 77, 0
2, 56301, Note_on_c, 0, 74, 0
2, 56304, Note_on_c, 0, 75, 75
2, 56304, Note_on_c, 0, 72, 75
2, 56349, Note_on_c, 0, 75, 0
2, 56349, Note_on_c, 0, 72, 0
2, 56352, Note_on_c, 0, 74, 75
2, 56352, Note_on_c, 0, 70, 75
2, 56397, Note_on_c, 0, 74, 0
2, 56397, Note_on_c, 0, 70, 0
2, 56400, Note_on_c, 0, 72, 75
2, 56400, Note_on_c, 0, 69, 75
2, 56445, Note_on_c, 0, 72, 0
2, 56445, Note_on_c, 0, 69, 0
2, 56448, Note_on_c, 0, 73, 91
2, 56448, Note_on_c, 0, 69, 91
2, 56544, Note_on_c, 0, 73, 0
2, 56544, Note_on_c, 0, 69, 0
2, 56544, Note_on_c, 0, 74, 75
2, 56544, Note_on_c, 0, 70, 75
2, 56721, Note_on_c, 0, 74, 0
2, 56721, Note_on_c, 0, 70, 0
2, 56784, Note_on_c, 0, 85, 75
2, 56829, Note_on_c, 0, 85, 0
2, 56832, Note_on_c, 0, 86, 75
2, 56877, Note_on_c, 0, 86, 0
2, 56880, Note_on_c, 0, 81, 75
2, 56925, Note_on_c, 0, 81, 0
2, 56928, Note_on_c, 0, 82, 75
2, 56973, Note_on_c, 0, 82, 0
2, 56976, Note_on_c, 0, 79, 75
2, 57021, Note_on_c, 0, 79, 0
2, 57024, Note_on_c, 0, 77, 75
2, 57069, Note_on_c, 0, 77, 0
2, 57072, Note_on_c, 0, 76, 75
2, 57161, Note_on_c, 0, 76, 0
2, 57168, Note_on_c, 0, 85, 75
2, 57257, Note_on_c, 0, 85, 0
2, 57264, Note_on_c, 0, 84, 75
2, 57335, Note_on_c, 0, 84, 0
2, 57336, Note_on_c, 0, 87, 75
2, 57359, Note_on_c, 0, 87, 0
2, 57360, Note_on_c, 0, 86, 75
2, 57383, Note_on_c, 0, 86, 0
2, 57384, Note_on_c, 0, 89, 75
2, 57407, Note_on_c, 0, 89, 0
2, 57408, Note_on_c, 0, 87, 75
2, 57431, Note_on_c, 0, 87, 0
2, 57432, Note_on_c, 0, 86, 75
2, 57455, Note_on_c, 0, 86, 0
2, 57456, Note_on_c, 0, 84, 75
2, 57479, Note_on_c, 0, 84, 0
2, 57480, Note_on_c, 0, 82, 75
2, 57503, Note_on_c, 0, 82, 0
2, 57504, Note_on_c, 0, 81, 75
2, 57527, Note_on_c, 0, 81, 0
2, 57528, Note_on_c, 0, 79, 75
2, 57551, Note_on_c, 0, 79, 0
2, 57552, Note_on_c, 0, 77, 75
2, 57575, Note_on_c, 0, 77, 0
2, 57576, Note_on_c, 0, 75, 75
2, 57599, Note_on_c, 0, 75, 0
2, 57600, Note_on_c, 0, 74, 75
2, 57645, Note_on_c, 0, 74, 0
2, 57648, Note_on_c, 0, 82, 75
2, 57781, Note_on_c, 0, 82, 0
2, 57792, Note_on_c, 0, 81, 75
2, 57881, Note_on_c, 0, 81, 0
2, 57888, Note_on_c, 0, 79, 75
2, 58065, Note_on_c, 0, 79, 0
2, 58080, Note_on_c, 0, 77, 75
2, 58169, Note_on_c, 0, 77, 0
2, 58176, Note_on_c, 0, 75, 75
2, 58413, Note_on_c, 0, 75, 0
2, 58416, Note_on_c, 0, 74, 75
2, 58487, Note_on_c, 0, 74, 0
2, 58488, Note_on_c, 0, 72, 75
2, 58511, Note_on_c, 0, 72, 0
2, 58512, Note_on_c, 0, 75, 75
2, 58535, Note_on_c, 0, 75, 0
2, 58536, Note_on_c, 0, 72, 75
2, 58559, Note_on_c, 0, 72, 0
2, 58560, Note_on_c, 0, 70, 75
2, 58649, Note_on_c, 0, 70, 0
2, 58656, Note_on_c, 0, 69, 75
2, 58667, Note_on_c, 0, 69, 0
2, 58667, Note_on_c, 0, 70, 75
2, 58678, Note_on_c, 0, 70, 0
2, 58678, Note_on_c, 0, 69, 75
2, 58689, Note_on_c, 0, 69, 0
2, 58689, Note_on_c, 0, 70, 75
2, 58700, Note_on_c, 0, 70, 0
2, 58700, Note_on_c, 0, 69, 75
2, 58711, Note_on_c, 0, 69, 0
2, 58711, Note_on_c, 0, 67, 75
2, 58732, Note_on_c, 0, 67, 0
2, 58732, Note_on_c, 0, 69, 75
2, 58752, Note_on_c, 0, 69, 0
2, 58752, Note_on_c, 0, 82, 75
2, 58929, Note_on_c, 0, 82, 0
2, 58944, Note_on_c, 0, 81, 75
2, 59033, Note_on_c, 0, 81, 0
2, 59040, Note_on_c, 0, 79, 75
2, 59217, Note_on_c, 0, 79, 0
2, 59232, Note_on_c, 0, 77, 75
2, 59321, Note_on_c, 0, 77, 0
2, 59328, Note_on_c, 0, 75, 75
2, 59565, Note_on_c, 0, 75, 0
2, 59568, Note_on_c, 0, 75, 75
2, 59613, Note_on_c, 0, 75, 0
2, 59616, Note_on_c, 0, 77, 75
2, 59639, Note_on_c, 0, 77, 0
2, 59640, Note_on_c, 0, 75, 75
2, 59663, Note_on_c, 0, 75, 0
2, 59664, Note_on_c, 0, 74, 75
2, 59687, Note_on_c, 0, 74, 0
2, 59688, Note_on_c, 0, 75, 75
2, 59711, Note_on_c, 0, 75, 0
2, 59712, Note_on_c, 0, 84, 75
2, 59712, Note_on_c, 0, 75, 75
2, 60081, Note_on_c, 0, 84, 0
2, 60081, Note_on_c, 0, 75, 0
2, 60144, Note_on_c, 0, 81, 75
2, 60167, Note_on_c, 0, 81, 0
2, 60168, Note_on_c, 0, 77, 75
2, 60191, Note_on_c, 0, 77, 0
2, 60192, Note_on_c, 0, 82, 75
2, 60212, Note_on_c, 0, 82, 0
2, 60240, Note_on_c, 0, 81, 75
2, 60263, Note_on_c, 0, 81, 0
2, 60264, Note_on_c, 0, 77, 75
2, 60287, Note_on_c, 0, 77, 0
2, 60288, Note_on_c, 0, 82, 75
2, 60308, Note_on_c, 0, 82, 0
2, 60336, Note_on_c, 0, 81, 75
2, 60359, Note_on_c, 0, 81, 0
2, 60360, Note_on_c, 0, 77, 75
2, 60383, Note_on_c, 0, 77, 0
2, 60384, Note_on_c, 0, 82, 75
2, 60404, Note_on_c, 0, 82, 0
2, 60432, Note_on_c, 0, 84, 75
2, 60455, Note_on_c, 0, 84, 0
2, 60456, Note_on_c, 0, 77, 75
2, 60479, Note_on_c, 0, 77, 0
2, 60480, Note_on_c, 0, 86, 75
2, 60500, Note_on_c, 0, 86, 0
2, 60528, Note_on_c, 0, 87, 75
2, 60551, Note_on_c, 0, 87, 0
2, 60552, Note_on_c, 0, 77, 75
2, 60575, Note_on_c, 0, 77, 0
2, 60576, Note_on_c, 0, 89, 75
2, 60596, Note_on_c, 0, 89, 0
2, 60672, Note_on_c, 0, 87, 75
2, 60695, Note_on_c, 0, 87, 0
2, 60696, Note_on_c, 0, 86, 75
2, 60719, Note_on_c, 0, 86, 0
2, 60720, Note_on_c, 0, 84, 75
2, 60743, Note_on_c, 0, 84, 0
2, 60744, Note_on_c, 0, 82, 75
2, 60767, Note_on_c, 0, 82, 0
2, 60768, Note_on_c, 0, 81, 75
2, 60791, Note_on_c, 0, 81, 0
2, 60792, Note_on_c, 0, 79, 75
2, 60815, Note_on_c, 0, 79, 0
2, 60816, Note_on_c, 0, 77, 75
2, 60839, Note_on_c, 0, 77, 0
2, 60840, Note_on_c, 0, 75, 75
2, 60863, Note_on_c, 0, 75, 0
2, 60864, Note_on_c, 0, 74, 75
2, 60953, Note_on_c, 0, 74, 0
2, 60960, Note_on_c, 0, 72, 75
2, 60969, Note_on_c, 0, 72, 0
2, 60969, Note_on_c, 0, 74, 75
2, 60978, Note_on_c, 0, 74, 0
2, 60978, Note_on_c, 0, 72, 75
2, 60987, Note_on_c, 0, 72, 0
2, 60987, Note_on_c, 0, 74, 75
2, 60996, Note_on_c, 0, 74, 0
2, 60996, Note_on_c, 0, 72, 75
2, 61005, Note_on_c, 0, 72, 0
2, 61005, Note_on_c, 0, 74, 75
2, 61014, Note_on_c, 0, 74, 0
2, 61014, Note_on_c, 0, 72, 75
2, 61023, Note_on_c, 0, 72, 0
2, 61023, Note_on_c, 0, 70, 75
2, 61040, Note_on_c, 0, 70, 0
2, 61040, Note_on_c, 0, 72, 75
2, 61056, Note_on_c, 0, 72, 0
2, 61056, Note_on_c, 0, 70, 75
2, 61101, Note_on_c, 0, 70, 0
2, 61104, Note_on_c, 0, 69, 75
2, 61127, Note_on_c, 0, 69, 0
2, 61128, Note_on_c, 0, 65, 75
2, 61151, Note_on_c, 0, 65, 0
2, 61152, Note_on_c, 0, 70, 75
2, 61175, Note_on_c, 0, 70, 0
2, 61176, Note_on_c, 0, 65, 75
2, 61199, Note_on_c, 0, 65, 0
2, 61200, Note_on_c, 0, 69, 75
2, 61223, Note_on_c, 0, 69, 0
2, 61224, Note_on_c, 0, 65, 75
2, 61247, Note_on_c, 0, 65, 0
2, 61248, Note_on_c, 0, 70, 75
2, 61271, Note_on_c, 0, 70, 0
2, 61272, Note_on_c, 0, 65, 75
2, 61295, Note_on_c, 0, 65, 0
2, 61296, Note_on_c, 0, 72, 75
2, 61319, Note_on_c, 0, 72, 0
2, 61320, Note_on_c, 0, 65, 75
2, 61343, Note_on_c, 0, 65, 0
2, 61344, Note_on_c, 0, 74, 75
2, 61367, Note_on_c, 0, 74, 0
2, 61368, Note_on_c, 0, 65, 75
2, 61391, Note_on_c, 0, 65, 0
2, 61392, Note_on_c, 0, 75, 75
2, 61415, Note_on_c, 0, 75, 0
2, 61416, Note_on_c, 0, 65, 75
2, 61439, Note_on_c, 0, 65, 0
2, 61440, Note_on_c, 0, 77, 75
2, 61485, Note_on_c, 0, 77, 0
2, 61488, Note_on_c, 0, 82, 75
2, 61511, Note_on_c, 0, 82, 0
2, 61512, Note_on_c, 0, 70, 75
2, 61535, Note_on_c, 0, 70, 0
2, 61536, Note_on_c, 0, 81, 75
2, 61559, Note_on_c, 0, 81, 0
2, 61560, Note_on_c, 0, 69, 75
2, 61583, Note_on_c, 0, 69, 0
2, 61584, Note_on_c, 0, 80, 75
2, 61607, Note_on_c, 0, 80, 0
2, 61608, Note_on_c, 0, 68, 75
2, 61631, Note_on_c, 0, 68, 0
2, 61632, Note_on_c, 0, 67, 75
2, 61642, Note_on_c, 0, 67, 0
2, 61656, Note_on_c, 0, 79, 75
2, 61656, Note_on_c, 0, 75, 75
2, 61679, Note_on_c, 0, 79, 0
2, 61679, Note_on_c, 0, 75, 0
2, 61680, Note_on_c, 0, 77, 75
2, 61680, Note_on_c, 0, 74, 75
2, 61703, Note_on_c, 0, 77, 0
2, 61703, Note_on_c, 0, 74, 0
2, 61704, Note_on_c, 0, 75, 75
2, 61704, Note_on_c, 0, 72, 75
2, 61727, Note_on_c, 0, 75, 0
2, 61727, Note_on_c, 0, 72, 0
2, 61728, Note_on_c, 0, 74, 75
2, 61728, Note_on_c, 0, 70, 75
2, 61817, Note_on_c, 0, 74, 0
2, 61817, Note_on_c, 0, 70, 0
2, 61824, Note_on_c, 0, 72, 75
2, 61833, Note_on_c, 0, 72, 0
2, 61833, Note_on_c, 0, 74, 75
2, 61842, Note_on_c, 0, 74, 0
2, 61842, Note_on_c, 0, 72, 75
2, 61851, Note_on_c, 0, 72, 0
2, 61851, Note_on_c, 0, 74, 75
2, 61860, Note_on_c, 0, 74, 0
2, 61860, Note_on_c, 0, 72, 75
2, 61869, Note_on_c, 0, 72, 0
2, 61869, Note_on_c, 0, 74, 75
2, 61878, Note_on_c, 0, 74, 0
2, 61878, Note_on_c, 0, 72, 75
2, 61887, Note_on_c, 0, 72, 0
2, 61887, Note_on_c, 0, 70, 75
2, 61904, Note_on_c, 0, 70, 0
2, 61904, Note_on_c, 0, 72, 75
2, 61920, Note_on_c, 0, 72, 0
2, 61920, Note_on_c, 0, 70, 75
2, 62009, Note_on_c, 0, 70, 0
2, 62064, Note_on_c, 0, 77, 70
2, 62064, Note_on_c, 0, 74, 70
2, 62112, Note_on_c, 0, 77, 0
2, 62112, Note_on_c, 0, 74, 0
2, 62112, Note_on_c, 0, 79, 70
2, 62112, Note_on_c, 0, 75, 70
2, 62157, Note_on_c, 0, 79, 0
2, 62157, Note_on_c, 0, 75, 0
2, 62160, Note_on_c, 0, 75, 70
2, 62160, Note_on_c, 0, 69, 70
2, 62180, Note_on_c, 0, 75, 0
2, 62180, Note_on_c, 0, 69, 0
2, 62208, Note_on_c, 0, 75, 70
2, 62208, Note_on_c, 0, 69, 70
2, 62304, Note_on_c, 0, 75, 0
2, 62304, Note_on_c, 0, 69, 0
2, 62304, Note_on_c, 0, 74, 70
2, 62304, Note_on_c, 0, 70, 70
2, 62324, Note_on_c, 0, 74, 0
2, 62324, Note_on_c, 0, 70, 0
2, 62352, Note_on_c, 0, 74, 70
2, 62352, Note_on_c, 0, 65, 70
2, 62397, Note_on_c, 0, 74, 0
2, 62397, Note_on_c, 0, 65, 0
2, 62400, Note_on_c, 0, 75, 70
2, 62400, Note_on_c, 0, 67, 70
2, 62445, Note_on_c, 0, 75, 0
2, 62445, Note_on_c, 0, 67, 0
2, 62448, Note_on_c, 0, 69, 70
2, 62448, Note_on_c, 0, 63, 70
2, 62468, Note_on_c, 0, 69, 0
2, 62468, Note_on_c, 0, 63, 0
2, 62496, Note_on_c, 0, 69, 70
2, 62496, Note_on_c, 0, 63, 70
2, 62592, Note_on_c, 0, 69, 0
2, 62592, Note_on_c, 0, 63, 0
2, 62592, Note_on_c, 0, 70, 70
2, 62592, Note_on_c, 0, 62, 70
2, 62612, Note_on_c, 0, 70, 0
2, 62612, Note_on_c, 0, 62, 0
2, 62640, Note_on_c, 0, 65, 70
2, 62640, Note_on_c, 0, 62, 70
2, 62685, Note_on_c, 0, 65, 0
2, 62685, Note_on_c, 0, 62, 0
2, 62688, Note_on_c, 0, 67, 70
2, 62688, Note_on_c, 0, 63, 70
2, 62733, Note_on_c, 0, 67, 0
2, 62733, Note_on_c, 0, 63, 0
2, 62736, Note_on_c, 0, 57, 70
2, 62736, Note_on_c, 0, 51, 70
2, 62756, Note_on_c, 0, 57, 0
2, 62756, Note_on_c, 0, 51, 0
2, 62784, Note_on_c, 0, 57, 70
2, 62784, Note_on_c, 0, 51, 70
2, 63072, Note_on_c, 0, 57, 0
2, 63072, Note_on_c, 0, 51, 0
2, 63072, Note_on_c, 0, 58, 70
2, 63072, Note_on_c, 0, 50, 70
2, 63161, Note_on_c, 0, 58, 0
2, 63161, Note_on_c, 0, 50, 0
2, 63360, End_track
3, 0, Start_track
3, 0, Program_c, 0, 0
3, 0, Control_c, 0, 7, 127
3, 0, Control_c, 0, 10, 64
3, 384, Note_on_c, 0, 72, 64
3, 473, Note_on_c, 0, 72, 0
3, 7632, Note_on_c, 0, 70, 64
3, 7677, Note_on_c, 0, 70, 0
3, 7680, Note_on_c, 0, 72, 64
3, 7686, Note_on_c, 0, 72, 0
3, 7686, Note_on_c, 0, 70, 64
3, 7725, Note_on_c, 0, 70, 0
3, 7728, Note_on_c, 0, 69, 64
3, 7773, Note_on_c, 0, 69, 0
3, 7824, Note_on_c, 0, 62, 64
3, 7869, Note_on_c, 0, 62, 0
3, 7872, Note_on_c, 0, 66, 64
3, 7917, Note_on_c, 0, 66, 0
3, 7920, Note_on_c, 0, 67, 64
3, 7965, Note_on_c, 0, 67, 0
3, 7968, Note_on_c, 0, 69, 64
3, 7974, Note_on_c, 0, 69, 0
3, 7974, Note_on_c, 0, 67, 64
3, 8013, Note_on_c, 0, 67, 0
3, 8016, Note_on_c, 0, 65, 64
3, 8109, Note_on_c, 0, 65, 0
3, 8112, Note_on_c, 0, 62, 64
3, 8157, Note_on_c, 0, 62, 0
3, 8160, Note_on_c, 0, 64, 64
3, 8205, Note_on_c, 0, 64, 0
3, 8208, Note_on_c, 0, 67, 64
3, 8253, Note_on_c, 0, 67, 0
3, 8256, Note_on_c, 0, 60, 64
3, 8345, Note_on_c, 0, 60, 0
3, 8352, Note_on_c, 0, 58, 64
3, 8441, Note_on_c, 0, 58, 0
3, 8448, Note_on_c, 0, 57, 64
3, 8537, Note_on_c, 0, 57, 0
3, 8544, Note_on_c, 0, 55, 64
3, 8633, Note_on_c, 0, 55, 0
3, 8688, Note_on_c, 0, 70, 64
3, 8733, Note_on_c, 0, 70, 0
3, 8736, Note_on_c, 0, 72, 64
3, 8759, Note_on_c, 0, 72, 0
3, 8760, Note_on_c, 0, 70, 64
3, 8783, Note_on_c, 0, 70, 0
3, 8784, Note_on_c, 0, 69, 64
3, 8807, Note_on_c, 0, 69, 0
3, 8808, Note_on_c, 0, 70, 64
3, 8831, Note_on_c, 0, 70, 0
3, 8832, Note_on_c, 0, 70, 64
3, 8877, Note_on_c, 0, 70, 0
3, 8880, Note_on_c, 0, 69, 64
3, 8973, Note_on_c, 0, 69, 0
3, 8976, Note_on_c, 0, 67, 64
3, 9021, Note_on_c, 0, 67, 0
3, 9024, Note_on_c, 0, 69, 64
3, 9047, Note_on_c, 0, 69, 0
3, 9048, Note_on_c, 0, 67, 64
3, 9071, Note_on_c, 0, 67, 0
3, 9072, Note_on_c, 0, 66, 64
3, 9095, Note_on_c, 0, 66, 0
3, 9096, Note_on_c, 0, 67, 64
3, 9119, Note_on_c, 0, 67, 0
3, 9120, Note_on_c, 0, 67, 64
3, 9165, Note_on_c, 0, 67, 0
3, 9168, Note_on_c, 0, 65, 64
3, 9261, Note_on_c, 0, 65, 0
3, 9264, Note_on_c, 0, 65, 64
3, 9309, Note_on_c, 0, 65, 0
3, 9312, Note_on_c, 0, 67, 64
3, 9335, Note_on_c, 0, 67, 0
3, 9336, Note_on_c, 0, 65, 64
3, 9359, Note_on_c, 0, 65, 0
3, 9360, Note_on_c, 0, 64, 64
3, 9383, Note_on_c, 0, 64, 0
3, 9384, Note_on_c, 0, 65, 64
3, 9407, Note_on_c, 0, 65, 0
3, 9408, Note_on_c, 0, 64, 64
3, 9969, Note_on_c, 0, 64, 0
3, 11712, Note_on_c, 0, 76, 64
3, 11801, Note_on_c, 0, 76, 0
3, 13344, Note_on_c, 0, 72, 64
3, 13433, Note_on_c, 0, 72, 0
3, 20592, Note_on_c, 0, 70, 64
3, 20637, Note_on_c, 0, 70, 0
3, 20640, Note_on_c, 0, 72, 64
3, 20646, Note_on_c, 0, 72, 0
3, 20646, Note_on_c, 0, 70, 64
3, 20685, Note_on_c, 0, 70, 0
3, 20688, Note_on_c, 0, 69, 64
3, 20733, Note_on_c, 0, 69, 0
3, 20784, Note_on_c, 0, 62, 64
3, 20829, Note_on_c, 0, 62, 0
3, 20832, Note_on_c, 0, 66, 64
3, 20877, Note_on_c, 0, 66, 0
3, 20880, Note_on_c, 0, 67, 64
3, 20925, Note_on_c, 0, 67, 0
3, 20928, Note_on_c, 0, 69, 64
3, 20934, Note_on_c, 0, 69, 0
3, 20934, Note_on_c, 0, 67, 64
3, 20973, Note_on_c, 0, 67, 0
3, 20976, Note_on_c, 0, 65, 64
3, 21069, Note_on_c, 0, 65, 0
3, 21072, Note_on_c, 0, 62, 64
3, 21117, Note_on_c, 0, 62, 0
3, 21120, Note_on_c, 0, 64, 64
3, 21165, Note_on_c, 0, 64, 0
3, 21168, Note_on_c, 0, 67, 64
3, 21213, Note_on_c, 0, 67, 0
3, 21216, Note_on_c, 0, 60, 64
3, 21305, Note_on_c, 0, 60, 0
3, 21312, Note_on_c, 0, 58, 64
3, 21401, Note_on_c, 0, 58, 0
3, 21408, Note_on_c, 0, 57, 64
3, 21497, Note_on_c, 0, 57, 0
3, 21504, Note_on_c, 0, 55, 64
3, 21593, Note_on_c, 0, 55, 0
3, 21648, Note_on_c, 0, 70, 64
3, 21693, Note_on_c, 0, 70, 0
3, 21696, Note_on_c, 0, 72, 64
3, 21719, Note_on_c, 0, 72, 0
3, 21720, Note_on_c, 0, 70, 64
3, 21743, Note_on_c, 0, 70, 0
3, 21744, Note_on_c, 0, 69, 64
3, 21767, Note_on_c, 0, 69, 0
3, 21768, Note_on_c, 0, 70, 64
3, 21791, Note_on_c, 0, 70, 0
3, 21792, Note_on_c, 0, 70, 64
3, 21837, Note_on_c, 0, 70, 0
3, 21840, Note_on_c, 0, 69, 64
3, 21933, Note_on_c, 0, 69, 0
3, 21936, Note_on_c, 0, 67, 64
3, 21981, Note_on_c, 0, 67, 0
3, 21984, Note_on_c, 0, 69, 64
3, 22007, Note_on_c, 0, 69, 0
3, 22008, Note_on_c, 0, 67, 64
3, 22031, Note_on_c, 0, 67, 0
3, 22032, Note_on_c, 0, 66, 64
3, 22055, Note_on_c, 0, 66, 0
3, 22056, Note_on_c, 0, 67, 64
3, 22079, Note_on_c, 0, 67, 0
3, 22080, Note_on_c, 0, 67, 64
3, 22125, Note_on_c, 0, 67, 0
3, 22128, Note_on_c, 0, 65, 64
3, 22221, Note_on_c, 0, 65, 0
3, 22224, Note_on_c, 0, 65, 64
3, 22269, Note_on_c, 0, 65, 0
3, 22272, Note_on_c, 0, 67, 64
3, 22295, Note_on_c, 0, 67, 0
3, 22296, Note_on_c, 0, 65, 64
3, 22319, Note_on_c, 0, 65, 0
3, 22320, Note_on_c, 0, 64, 64
3, 22343, Note_on_c, 0, 64, 0
3, 22344, Note_on_c, 0, 65, 64
3, 22367, Note_on_c, 0, 65, 0
3, 22368, Note_on_c, 0, 64, 64
3, 22929, Note_on_c, 0, 64, 0
3, 24672, Note_on_c, 0, 76, 64
3, 24761, Note_on_c, 0, 76, 0
3, 26304, Note_on_c, 0, 67, 64
3, 26393, Note_on_c, 0, 67, 0
3, 28272, Note_on_c, 0, 71, 64
3, 28317, Note_on_c, 0, 71, 0
3, 28320, Note_on_c, 0, 72, 64
3, 28365, Note_on_c, 0, 72, 0
3, 28368, Note_on_c, 0, 74, 64
3, 28413, Note_on_c, 0, 74, 0
3, 28416, Note_on_c, 0, 77, 64
3, 28422, Note_on_c, 0, 77, 0
3, 28422, Note_on_c, 0, 75, 64
3, 28461, Note_on_c, 0, 75, 0
3, 28464, Note_on_c, 0, 74, 64
3, 28509, Note_on_c, 0, 74, 0
3, 28512, Note_on_c, 0, 74, 64
3, 28601, Note_on_c, 0, 74, 0
3, 28608, Note_on_c, 0, 73, 64
3, 28785, Note_on_c, 0, 73, 0
3, 28800, Note_on_c, 0, 74, 64
3, 29037, Note_on_c, 0, 74, 0
3, 29040, Note_on_c, 0, 72, 64
3, 29085, Note_on_c, 0, 72, 0
3, 29088, Note_on_c, 0, 74, 64
3, 29111, Note_on_c, 0, 74, 0
3, 29112, Note_on_c, 0, 72, 64
3, 29135, Note_on_c, 0, 72, 0
3, 29136, Note_on_c, 0, 71, 64
3, 29159, Note_on_c, 0, 71, 0
3, 29160, Note_on_c, 0, 72, 64
3, 29183, Note_on_c, 0, 72, 0
3, 29184, Note_on_c, 0, 72, 64
3, 29553, Note_on_c, 0, 72, 0
3, 32352, Note_on_c, 0, 72, 64
3, 32441, Note_on_c, 0, 72, 0
3, 39024, Note_on_c, 0, 75, 64
3, 39069, Note_on_c, 0, 75, 0
3, 39072, Note_on_c, 0, 77, 64
3, 39078, Note_on_c, 0, 77, 0
3, 39078, Note_on_c, 0, 75, 64
3, 39117, Note_on_c, 0, 75, 0
3, 39120, Note_on_c, 0, 74, 64
3, 39165, Note_on_c, 0, 74, 0
3, 39216, Note_on_c, 0, 67, 64
3, 39261, Note_on_c, 0, 67, 0
3, 39264, Note_on_c, 0, 71, 64
3, 39309, Note_on_c, 0, 71, 0
3, 39312, Note_on_c, 0, 72, 64
3, 39357, Note_on_c, 0, 72, 0
3, 39360, Note_on_c, 0, 74, 64
3, 39366, Note_on_c, 0, 74, 0
3, 39366, Note_on_c, 0, 72, 64
3, 39405, Note_on_c, 0, 72, 0
3, 39408, Note_on_c, 0, 70, 64
3, 39501, Note_on_c, 0, 70, 0
3, 39504, Note_on_c, 0, 67, 64
3, 39549, Note_on_c, 0, 67, 0
3, 39552, Note_on_c, 0, 69, 64
3, 39597, Note_on_c, 0, 69, 0
3, 39600, Note_on_c, 0, 72, 64
3, 39645, Note_on_c, 0, 72, 0
3, 39648, Note_on_c, 0, 65, 64
3, 39737, Note_on_c, 0, 65, 0
3, 39744, Note_on_c, 0, 67, 64
3, 39833, Note_on_c, 0, 67, 0
3, 39840, Note_on_c, 0, 62, 64
3, 39929, Note_on_c, 0, 62, 0
3, 39936, Note_on_c, 0, 60, 64
3, 40025, Note_on_c, 0, 60, 0
3, 40080, Note_on_c, 0, 75, 64
3, 40125, Note_on_c, 0, 75, 0
3, 40128, Note_on_c, 0, 77, 64
3, 40151, Note_on_c, 0, 77, 0
3, 40152, Note_on_c, 0, 75, 64
3, 40175, Note_on_c, 0, 75, 0
3, 40176, Note_on_c, 0, 74, 64
3, 40199, Note_on_c, 0, 74, 0
3, 40200, Note_on_c, 0, 75, 64
3, 40223, Note_on_c, 0, 75, 0
3, 40224, Note_on_c, 0, 75, 64
3, 40269, Note_on_c, 0, 75, 0
3, 40272, Note_on_c, 0, 74, 64
3, 40365, Note_on_c, 0, 74, 0
3, 40368, Note_on_c, 0, 72, 64
3, 40413, Note_on_c, 0, 72, 0
3, 40416, Note_on_c, 0, 74, 64
3, 40439, Note_on_c, 0, 74, 0
3, 40440, Note_on_c, 0, 72, 64
3, 40463, Note_on_c, 0, 72, 0
3, 40464, Note_on_c, 0, 71, 64
3, 40487, Note_on_c, 0, 71, 0
3, 40488, Note_on_c, 0, 72, 64
3, 40511, Note_on_c, 0, 72, 0
3, 40512, Note_on_c, 0, 72, 64
3, 40557, Note_on_c, 0, 72, 0
3, 40560, Note_on_c, 0, 70, 64
3, 40653, Note_on_c, 0, 70, 0
3, 40656, Note_on_c, 0, 70, 64
3, 40701, Note_on_c, 0, 70, 0
3, 40704, Note_on_c, 0, 72, 64
3, 40727, Note_on_c, 0, 72, 0
3, 40728, Note_on_c, 0, 70, 64
3, 40751, Note_on_c, 0, 70, 0
3, 40752, Note_on_c, 0, 69, 64
3, 40775, Note_on_c, 0, 69, 0
3, 40776, Note_on_c, 0, 70, 64
3, 40799, Note_on_c, 0, 70, 0
3, 40800, Note_on_c, 0, 69, 64
3, 41361, Note_on_c, 0, 69, 0
3, 43104, Note_on_c, 0, 69, 64
3, 43193, Note_on_c, 0, 69, 0
3, 45024, Note_on_c, 0, 67, 64
3, 45113, Note_on_c, 0, 67, 0
3, 46992, Note_on_c, 0, 71, 64
3, 47037, Note_on_c, 0, 71, 0
3, 47040, Note_on_c, 0, 72, 64
3, 47085, Note_on_c, 0, 72, 0
3, 47088, Note_on_c, 0, 74, 64
3, 47133, Note_on_c, 0, 74, 0
3, 47136, Note_on_c, 0, 77, 64
3, 47142, Note_on_c, 0, 77, 0
3, 47142, Note_on_c, 0, 75, 64
3, 47181, Note_on_c, 0, 75, 0
3, 47184, Note_on_c, 0, 74, 64
3, 47229, Note_on_c, 0, 74, 0
3, 47232, Note_on_c, 0, 74, 64
3, 47321, Note_on_c, 0, 74, 0
3, 47328, Note_on_c, 0, 73, 64
3, 47505, Note_on_c, 0, 73, 0
3, 47520, Note_on_c, 0, 74, 64
3, 47757, Note_on_c, 0, 74, 0
3, 47760, Note_on_c, 0, 72, 64
3, 47805, Note_on_c, 0, 72, 0
3, 47808, Note_on_c, 0, 74, 64
3, 47831, Note_on_c, 0, 74, 0
3, 47832, Note_on_c, 0, 72, 64
3, 47855, Note_on_c, 0, 72, 0
3, 47856, Note_on_c, 0, 71, 64
3, 47879, Note_on_c, 0, 71, 0
3, 47880, Note_on_c, 0, 72, 64
3, 47903, Note_on_c, 0, 72, 0
3, 47904, Note_on_c, 0, 72, 64
3, 48273, Note_on_c, 0, 72, 0
3, 51072, Note_on_c, 0, 72, 64
3, 51161, Note_on_c, 0, 72, 0
3, 57744, Note_on_c, 0, 75, 64
3, 57789, Note_on_c, 0, 75, 0
3, 57792, Note_on_c, 0, 77, 64
3, 57798, Note_on_c, 0, 77, 0
3, 57798, Note_on_c, 0, 75, 64
3, 57837, Note_on_c, 0, 75, 0
3, 57840, Note_on_c, 0, 74, 64
3, 57885, Note_on_c, 0, 74, 0
3, 57936, Note_on_c, 0, 67, 64
3, 57981, Note_on_c, 0, 67, 0
3, 57984, Note_on_c, 0, 71, 64
3, 58029, Note_on_c, 0, 71, 0
3, 58032, Note_on_c, 0, 72, 64
3, 58077, Note_on_c, 0, 72, 0
3, 58080, Note_on_c, 0, 74, 64
3, 58086, Note_on_c, 0, 74, 0
3, 58086, Note_on_c, 0, 72, 64
3, 58125, Note_on_c, 0, 72, 0
3, 58128, Note_on_c, 0, 70, 64
3, 58221, Note_on_c, 0, 70, 0
3, 58224, Note_on_c, 0, 67, 64
3, 58269, Note_on_c, 0, 67, 0
3, 58272, Note_on_c, 0, 69, 64
3, 58317, Note_on_c, 0, 69, 0
3, 58320, Note_on_c, 0, 72, 64
3, 58365, Note_on_c, 0, 72, 0
3, 58368, Note_on_c, 0, 65, 64
3, 58457, Note_on_c, 0, 65, 0
3, 58464, Note_on_c, 0, 67, 64
3, 58553, Note_on_c, 0, 67, 0
3, 58560, Note_on_c, 0, 62, 64
3, 58649, Note_on_c, 0, 62, 0
3, 58656, Note_on_c, 0, 60, 64
3, 58745, Note_on_c, 0, 60, 0
3, 58800, Note_on_c, 0, 75, 64
3, 58845, Note_on_c, 0, 75, 0
3, 58848, Note_on_c, 0, 77, 64
3, 58871, Note_on_c, 0, 77, 0
3, 58872, Note_on_c, 0, 75, 64
3, 58895, Note_on_c, 0, 75, 0
3, 58896, Note_on_c, 0, 74, 64
3, 58919, Note_on_c, 0, 74, 0
3, 58920, Note_on_c, 0, 75, 64
3, 58943, Note_on_c, 0, 75, 0
3, 58944, Note_on_c, 0, 75, 64
3, 58989, Note_on_c, 0, 75, 0
3, 58992, Note_on_c, 0, 74, 64
3, 59085, Note_on_c, 0, 74, 0
3, 59088, Note_on_c, 0, 72, 64
3, 59133, Note_on_c, 0, 72, 0
3, 59136, Note_on_c, 0, 74, 64
3, 59159, Note_on_c, 0, 74, 0
3, 59160, Note_on_c, 0, 72, 64
3, 59183, Note_on_c, 0, 72, 0
3, 59184, Note_on_c, 0, 71, 64
3, 59207, Note_on_c, 0, 71, 0
3, 59208, Note_on_c, 0, 72, 64
3, 59231, Note_on_c, 0, 72, 0
3, 59232, Note_on_c, 0, 72, 64
3, 59277, Note_on_c, 0, 72, 0
3, 59280, Note_on_c, 0, 70, 64
3, 59373, Note_on_c, 0, 70, 0
3, 59376, Note_on_c, 0, 70, 64
3, 59421, Note_on_c, 0, 70, 0
3, 59424, Note_on_c, 0, 72, 64
3, 59447, Note_on_c, 0, 72, 0
3, 59448, Note_on_c, 0, 70, 64
3, 59471, Note_on_c, 0, 70, 0
3, 59472, Note_on_c, 0, 69, 64
3, 59495, Note_on_c, 0, 69, 0
3, 59496, Note_on_c, 0, 70, 64
3, 59519, Note_on_c, 0, 70, 0
3, 59520, Note_on_c, 0, 69, 64
3, 60081, Note_on_c, 0, 69, 0
3, 61824, Note_on_c, 0, 69, 64
3, 61913, Note_on_c, 0, 69, 0
3, 63360, End_track
4, 0, Start_track
4, 0, Program_c, 1, 0
4, 0, Control_c, 1, 7, 127
4, 0, Control_c, 1, 10, 64
4, 0, Note_on_c, 1, 46, 64
4, 89, Note_on_c, 1, 46, 0
4, 96, Note_on_c, 1, 58, 64
4, 185, Note_on_c, 1, 58, 0
4, 384, Note_on_c, 1, 65, 64
4, 473, Note_on_c, 1, 65, 0
4, 480, Note_on_c, 1, 67, 64
4, 569, Note_on_c, 1, 67, 0
4, 576, Note_on_c, 1, 70, 64
4, 576, Note_on_c, 1, 63, 64
4, 665, Note_on_c, 1, 70, 0
4, 665, Note_on_c, 1, 63, 0
4, 672, Note_on_c, 1, 70, 64
4, 672, Note_on_c, 1, 62, 64
4, 761, Note_on_c, 1, 70, 0
4, 761, Note_on_c, 1, 62, 0
4, 960, Note_on_c, 1, 69, 64
4, 1049, Note_on_c, 1, 69, 0
4, 1056, Note_on_c, 1, 70, 64
4, 1150, Note_on_c, 1, 70, 0
4, 1152, Note_on_c, 1, 67, 64
4, 1152, Note_on_c, 1, 63, 64
4, 1241, Note_on_c, 1, 67, 0
4, 1241, Note_on_c, 1, 63, 0
4, 1536, Note_on_c, 1, 65, 64
4, 1536, Note_on_c, 1, 63, 64
4, 1625, Note_on_c, 1, 65, 0
4, 1625, Note_on_c, 1, 63, 0
4, 1632, Note_on_c, 1, 65, 64
4, 1632, Note_on_c, 1, 62, 64
4, 1721, Note_on_c, 1, 65, 0
4, 1721, Note_on_c, 1, 62, 0
4, 1824, Note_on_c, 1, 62, 64
4, 1824, Note_on_c, 1, 53, 64
4, 1913, Note_on_c, 1, 62, 0
4, 1913, Note_on_c, 1, 53, 0
4, 1920, Note_on_c, 1, 60, 64
4, 1920, Note_on_c, 1, 53, 64
4, 2009, Note_on_c, 1, 60, 0
4, 2009, Note_on_c, 1, 53, 0
4, 2016, Note_on_c, 1, 58, 64
4, 2105, Note_on_c, 1, 58, 0
4, 2112, Note_on_c, 1, 46, 64
4, 2201, Note_on_c, 1, 46, 0
4, 2304, Note_on_c, 1, 34, 64
4, 2393, Note_on_c, 1, 34, 0
4, 2400, Note_on_c, 1, 46, 64
4, 2489, Note_on_c, 1, 46, 0
4, 2568, Note_on_c, 1, 75, 64
4, 2591, Note_on_c, 1, 75, 0
4, 2592, Note_on_c, 1, 74, 64
4, 2681, Note_on_c, 1, 74, 0
4, 2688, Note_on_c, 1, 72, 64
4, 2688, Note_on_c, 1, 66, 64
4, 2777, Note_on_c, 1, 72, 0
4, 2777, Note_on_c, 1, 66, 0
4, 2784, Note_on_c, 1, 70, 64
4, 2784, Note_on_c, 1, 67, 64
4, 2873, Note_on_c, 1, 70, 0
4, 2873, Note_on_c, 1, 67, 0
4, 2880, Note_on_c, 1, 70, 64
4, 2880, Note_on_c, 1, 63, 64
4, 3168, Note_on_c, 1, 63, 0
4, 3168, Note_on_c, 1, 62, 64
4, 3345, Note_on_c, 1, 70, 0
4, 3345, Note_on_c, 1, 62, 0
4, 3552, Note_on_c, 1, 69, 64
4, 3552, Note_on_c, 1, 60, 64
4, 3641, Note_on_c, 1, 69, 0
4, 3641, Note_on_c, 1, 60, 0
4, 3648, Note_on_c, 1, 70, 64
4, 3648, Note_on_c, 1, 58, 64
4, 3737, Note_on_c, 1, 70, 0
4, 3737, Note_on_c, 1, 58, 0
4, 3744, Note_on_c, 1, 70, 64
4, 3833, Note_on_c, 1, 70, 0
4, 3840, Note_on_c, 1, 69, 64
4, 3929, Note_on_c, 1, 69, 0
4, 4032, Note_on_c, 1, 41, 64
4, 4121, Note_on_c, 1, 41, 0
4, 4368, Note_on_c, 1, 60, 64
4, 4413, Note_on_c, 1, 60, 0
4, 4416, Note_on_c, 1, 48, 64
4, 4461, Note_on_c, 1, 48, 0
4, 4464, Note_on_c, 1, 52, 64
4, 4509, Note_on_c, 1, 52, 0
4, 4512, Note_on_c, 1, 55, 64
4, 4557, Note_on_c, 1, 55, 0
4, 4560, Note_on_c, 1, 59, 64
4, 4605, Note_on_c, 1, 59, 0
4, 4608, Note_on_c, 1, 60, 64
4, 4697, Note_on_c, 1, 60, 0
4, 4944, Note_on_c, 1, 53, 64
4, 4989, Note_on_c, 1, 53, 0
4, 4992, Note_on_c, 1, 41, 64
4, 5037, Note_on_c, 1, 41, 0
4, 5040, Note_on_c, 1, 45, 64
4, 5085, Note_on_c, 1, 45, 0
4, 5088, Note_on_c, 1, 48, 64
4, 5133, Note_on_c, 1, 48, 0
4, 5136, Note_on_c, 1, 52, 64
4, 5181, Note_on_c, 1, 52, 0
4, 5184, Note_on_c, 1, 53, 64
4, 5449, Note_on_c, 1, 53, 0
4, 5760, Note_on_c, 1, 70, 64
4, 5849, Note_on_c, 1, 70, 0
4, 5856, Note_on_c, 1, 67, 64
4, 5945, Note_on_c, 1, 67, 0
4, 5952, Note_on_c, 1, 72, 64
4, 6181, Note_on_c, 1, 72, 0
4, 6192, Note_on_c, 1, 73, 64
4, 6237, Note_on_c, 1, 73, 0
4, 6240, Note_on_c, 1, 74, 64
4, 6469, Note_on_c, 1, 74, 0
4, 6480, Note_on_c, 1, 71, 64
4, 6525, Note_on_c, 1, 71, 0
4, 6528, Note_on_c, 1, 72, 64
4, 6713, Note_on_c, 1, 72, 0
4, 6720, Note_on_c, 1, 69, 64
4, 6809, Note_on_c, 1, 69, 0
4, 6816, Note_on_c, 1, 71, 64
4, 6905, Note_on_c, 1, 71, 0
4, 6912, Note_on_c, 1, 71, 64
4, 7008, Note_on_c, 1, 71, 0
4, 7008, Note_on_c, 1, 72, 64
4, 7097, Note_on_c, 1, 72, 0
4, 7584, Note_on_c, 1, 62, 64
4, 7673, Note_on_c, 1, 62, 0
4, 7680, Note_on_c, 1, 60, 64
4, 7769, Note_on_c, 1, 60, 0
4, 7872, Note_on_c, 1, 58, 64
4, 7961, Note_on_c, 1, 58, 0
4, 7968, Note_on_c, 1, 57, 64
4, 8057, Note_on_c, 1, 57, 0
4, 8064, Note_on_c, 1, 55, 64
4, 8153, Note_on_c, 1, 55, 0
4, 8160, Note_on_c, 1, 48, 64
4, 8249, Note_on_c, 1, 48, 0
4, 8256, Note_on_c, 1, 53, 64
4, 8345, Note_on_c, 1, 53, 0
4, 8352, Note_on_c, 1, 46, 64
4, 8441, Note_on_c, 1, 46, 0
4, 8448, Note_on_c, 1, 48, 64
4, 8625, Note_on_c, 1, 48, 0
4, 8640, Note_on_c, 1, 50, 64
4, 8729, Note_on_c, 1, 50, 0
4, 8736, Note_on_c, 1, 62, 64
4, 8825, Note_on_c, 1, 62, 0
4, 8832, Note_on_c, 1, 60, 64
4, 8921, Note_on_c, 1, 60, 0
4, 8928, Note_on_c, 1, 46, 64
4, 9017, Note_on_c, 1, 46, 0
4, 9024, Note_on_c, 1, 58, 64
4, 9113, Note_on_c, 1, 58, 0
4, 9120, Note_on_c, 1, 57, 64
4, 9209, Note_on_c, 1, 57, 0
4, 9216, Note_on_c, 1, 55, 64
4, 9969, Note_on_c, 1, 55, 0
4, 10032, Note_on_c, 1, 70, 64
4, 10080, Note_on_c, 1, 70, 0
4, 10080, Note_on_c, 1, 69, 64
4, 10100, Note_on_c, 1, 69, 0
4, 10128, Note_on_c, 1, 70, 64
4, 10176, Note_on_c, 1, 70, 0
4, 10176, Note_on_c, 1, 69, 64
4, 10196, Note_on_c, 1, 69, 0
4, 10224, Note_on_c, 1, 70, 64
4, 10272, Note_on_c, 1, 70, 0
4, 10272, Note_on_c, 1, 69, 64
4, 10292, Note_on_c, 1, 69, 0
4, 10320, Note_on_c, 1, 64, 64
4, 10365, Note_on_c, 1, 64, 0
4, 10368, Note_on_c, 1, 65, 64
4, 10415, Note_on_c, 1, 65, 0
4, 10416, Note_on_c, 1, 67, 64
4, 10461, Note_on_c, 1, 67, 0
4, 10464, Note_on_c, 1, 69, 64
4, 10509, Note_on_c, 1, 69, 0
4, 10608, Note_on_c, 1, 57, 64
4, 10653, Note_on_c, 1, 57, 0
4, 10656, Note_on_c, 1, 58, 64
4, 10745, Note_on_c, 1, 58, 0
4, 10752, Note_on_c, 1, 60, 64
4, 10841, Note_on_c, 1, 60, 0
4, 10848, Note_on_c, 1, 48, 64
4, 10937, Note_on_c, 1, 48, 0
4, 10944, Note_on_c, 1, 53, 64
4, 10989, Note_on_c, 1, 53, 0
4, 10992, Note_on_c, 1, 70, 64
4, 11037, Note_on_c, 1, 70, 0
4, 11040, Note_on_c, 1, 69, 64
4, 11085, Note_on_c, 1, 69, 0
4, 11088, Note_on_c, 1, 70, 64
4, 11133, Note_on_c, 1, 70, 0
4, 11136, Note_on_c, 1, 69, 64
4, 11181, Note_on_c, 1, 69, 0
4, 11184, Note_on_c, 1, 64, 64
4, 11229, Note_on_c, 1, 64, 0
4, 11232, Note_on_c, 1, 65, 64
4, 11277, Note_on_c, 1, 65, 0
4, 11280, Note_on_c, 1, 67, 64
4, 11325, Note_on_c, 1, 67, 0
4, 11328, Note_on_c, 1, 69, 64
4, 11373, Note_on_c, 1, 69, 0
4, 11472, Note_on_c, 1, 57, 64
4, 11517, Note_on_c, 1, 57, 0
4, 11520, Note_on_c, 1, 58, 64
4, 11609, Note_on_c, 1, 58, 0
4, 11616, Note_on_c, 1, 60, 64
4, 11705, Note_on_c, 1, 60, 0
4, 11712, Note_on_c, 1, 48, 64
4, 11801, Note_on_c, 1, 48, 0
4, 11808, Note_on_c, 1, 53, 64
4, 11897, Note_on_c, 1, 53, 0
4, 11904, Note_on_c, 1, 41, 64
4, 11993, Note_on_c, 1, 41, 0
4, 12096, Note_on_c, 1, 53, 64
4, 12185, Note_on_c, 1, 53, 0
4, 12192, Note_on_c, 1, 41, 64
4, 12281, Note_on_c, 1, 41, 0
4, 12384, Note_on_c, 1, 53, 64
4, 12473, Note_on_c, 1, 53, 0
4, 12480, Note_on_c, 1, 41, 64
4, 12569, Note_on_c, 1, 41, 0
4, 12624, Note_on_c, 1, 52, 64
4, 12624, Note_on_c, 1, 46, 64
4, 12644, Note_on_c, 1, 52, 0
4, 12644, Note_on_c, 1, 46, 0
4, 12672, Note_on_c, 1, 52, 64
4, 12672, Note_on_c, 1, 46, 64
4, 12768, Note_on_c, 1, 52, 0
4, 12768, Note_on_c, 1, 46, 0
4, 12768, Note_on_c, 1, 53, 64
4, 12768, Note_on_c, 1, 45, 64
4, 12857, Note_on_c, 1, 53, 0
4, 12857, Note_on_c, 1, 45, 0
4, 12960, Note_on_c, 1, 46, 64
4, 13049, Note_on_c, 1, 46, 0
4, 13056, Note_on_c, 1, 58, 64
4, 13145, Note_on_c, 1, 58, 0
4, 13344, Note_on_c, 1, 65, 64
4, 13433, Note_on_c, 1, 65, 0
4, 13440, Note_on_c, 1, 67, 64
4, 13529, Note_on_c, 1, 67, 0
4, 13536, Note_on_c, 1, 70, 64
4, 13536, Note_on_c, 1, 63, 64
4, 13625, Note_on_c, 1, 70, 0
4, 13625, Note_on_c, 1, 63, 0
4, 13632, Note_on_c, 1, 70, 64
4, 13632, Note_on_c, 1, 62, 64
4, 13721, Note_on_c, 1, 70, 0
4, 13721, Note_on_c, 1, 62, 0
4, 13920, Note_on_c, 1, 69, 64
4, 14009, Note_on_c, 1, 69, 0
4, 14016, Note_on_c, 1, 70, 64
4, 14110, Note_on_c, 1, 70, 0
4, 14112, Note_on_c, 1, 67, 64
4, 14112, Note_on_c, 1, 63, 64
4, 14201, Note_on_c, 1, 67, 0
4, 14201, Note_on_c, 1, 63, 0
4, 14496, Note_on_c, 1, 65, 64
4, 14496, Note_on_c, 1, 63, 64
4, 14585, Note_on_c, 1, 65, 0
4, 14585, Note_on_c, 1, 63, 0
4, 14592, Note_on_c, 1, 65, 64
4, 14592, Note_on_c, 1, 62, 64
4, 14681, Note_on_c, 1, 65, 0
4, 14681, Note_on_c, 1, 62, 0
4, 14784, Note_on_c, 1, 62, 64
4, 14784, Note_on_c, 1, 53, 64
4, 14873, Note_on_c, 1, 62, 0
4, 14873, Note_on_c, 1, 53, 0
4, 14880, Note_on_c, 1, 60, 64
4, 14880, Note_on_c, 1, 53, 64
4, 14969, Note_on_c, 1, 60, 0
4, 14969, Note_on_c, 1, 53, 0
4, 14976, Note_on_c, 1, 58, 64
4, 15065, Note_on_c, 1, 58, 0
4, 15072, Note_on_c, 1, 46, 64
4, 15161, Note_on_c, 1, 46, 0
4, 15264, Note_on_c, 1, 34, 64
4, 15353, Note_on_c, 1, 34, 0
4, 15360, Note_on_c, 1, 46, 64
4, 15449, Note_on_c, 1, 46, 0
4, 15528, Note_on_c, 1, 75, 64
4, 15551, Note_on_c, 1, 75, 0
4, 15552, Note_on_c, 1, 74, 64
4, 15641, Note_on_c, 1, 74, 0
4, 15648, Note_on_c, 1, 72, 64
4, 15648, Note_on_c, 1, 66, 64
4, 15737, Note_on_c, 1, 72, 0
4, 15737, Note_on_c, 1, 66, 0
4, 15744, Note_on_c, 1, 70, 64
4, 15744, Note_on_c, 1, 67, 64
4, 15833, Note_on_c, 1, 70, 0
4, 15833, Note_on_c, 1, 67, 0
4, 15840, Note_on_c, 1, 70, 64
4, 15840, Note_on_c, 1, 63, 64
4, 16128, Note_on_c, 1, 63, 0
4, 16128, Note_on_c, 1, 62, 64
4, 16305, Note_on_c, 1, 70, 0
4, 16305, Note_on_c, 1, 62, 0
4, 16512, Note_on_c, 1, 69, 64
4, 16512, Note_on_c, 1, 60, 64
4, 16601, Note_on_c, 1, 69, 0
4, 16601, Note_on_c, 1, 60, 0
4, 16608, Note_on_c, 1, 70, 64
4, 16608, Note_on_c, 1, 58, 64
4, 16697, Note_on_c, 1, 70, 0
4, 16697, Note_on_c, 1, 58, 0
4, 16704, Note_on_c, 1, 70, 64
4, 16793, Note_on_c, 1, 70, 0
4, 16800, Note_on_c, 1, 69, 64
4, 16889, Note_on_c, 1, 69, 0
4, 16992, Note_on_c, 1, 41, 64
4, 17081, Note_on_c, 1, 41, 0
4, 17328, Note_on_c, 1, 60, 64
4, 17373, Note_on_c, 1, 60, 0
4, 17376, Note_on_c, 1, 48, 64
4, 17421, Note_on_c, 1, 48, 0
4, 17424, Note_on_c, 1, 52, 64
4, 17469, Note_on_c, 1, 52, 0
4, 17472, Note_on_c, 1, 55, 64
4, 17517, Note_on_c, 1, 55, 0
4, 17520, Note_on_c, 1, 59, 64
4, 17565, Note_on_c, 1, 59, 0
4, 17568, Note_on_c, 1, 60, 64
4, 17657, Note_on_c, 1, 60, 0
4, 17904, Note_on_c, 1, 53, 64
4, 17949, Note_on_c, 1, 53, 0
4, 17952, Note_on_c, 1, 41, 64
4, 17997, Note_on_c, 1, 41, 0
4, 18000, Note_on_c, 1, 45, 64
4, 18045, Note_on_c, 1, 45, 0
4, 18048, Note_on_c, 1, 48, 64
4, 18093, Note_on_c, 1, 48, 0
4, 18096, Note_on_c, 1, 52, 64
4, 18141, Note_on_c, 1, 52, 0
4, 18144, Note_on_c, 1, 53, 64
4, 18409, Note_on_c, 1, 53, 0
4, 18720, Note_on_c, 1, 70, 64
4, 18809, Note_on_c, 1, 70, 0
4, 18816, Note_on_c, 1, 67, 64
4, 18905, Note_on_c, 1, 67, 0
4, 18912, Note_on_c, 1, 72, 64
4, 19141, Note_on_c, 1, 72, 0
4, 19152, Note_on_c, 1, 73, 64
4, 19197, Note_on_c, 1, 73, 0
4, 19200, Note_on_c, 1, 74, 64
4, 19429, Note_on_c, 1, 74, 0
4, 19440, Note_on_c, 1, 71, 64
4, 19485, Note_on_c, 1, 71, 0
4, 19488, Note_on_c, 1, 72, 64
4, 19673, Note_on_c, 1, 72, 0
4, 19680, Note_on_c, 1, 69, 64
4, 19769, Note_on_c, 1, 69, 0
4, 19776, Note_on_c, 1, 71, 64
4, 19865, Note_on_c, 1, 71, 0
4, 19872, Note_on_c, 1, 71, 64
4, 19968, Note_on_c, 1, 71, 0
4, 19968, Note_on_c, 1, 72, 64
4, 20057, Note_on_c, 1, 72, 0
4, 20544, Note_on_c, 1, 62, 64
4, 20633, Note_on_c, 1, 62, 0
4, 20640, Note_on_c, 1, 60, 64
4, 20729, Note_on_c, 1, 60, 0
4, 20832, Note_on_c, 1, 58, 64
4, 20921, Note_on_c, 1, 58, 0
4, 20928, Note_on_c, 1, 57, 64
4, 21017, Note_on_c, 1, 57, 0
4, 21024, Note_on_c, 1, 55, 64
4, 21113, Note_on_c, 1, 55, 0
4, 21120, Note_on_c, 1, 48, 64
4, 21209, Note_on_c, 1, 48, 0
4, 21216, Note_on_c, 1, 53, 64
4, 21305, Note_on_c, 1, 53, 0
4, 21312, Note_on_c, 1, 46, 64
4, 21401, Note_on_c, 1, 46, 0
4, 21408, Note_on_c, 1, 48, 64
4, 21585, Note_on_c, 1, 48, 0
4, 21600, Note_on_c, 1, 50, 64
4, 21689, Note_on_c, 1, 50, 0
4, 21696, Note_on_c, 1, 62, 64
4, 21785, Note_on_c, 1, 62, 0
4, 21792, Note_on_c, 1, 60, 64
4, 21881, Note_on_c, 1, 60, 0
4, 21888, Note_on_c, 1, 46, 64
4, 21977, Note_on_c, 1, 46, 0
4, 21984, Note_on_c, 1, 58, 64
4, 22073, Note_on_c, 1, 58, 0
4, 22080, Note_on_c, 1, 57, 64
4, 22169, Note_on_c, 1, 57, 0
4, 22176, Note_on_c, 1, 55, 64
4, 22929, Note_on_c, 1, 55, 0
4, 22992, Note_on_c, 1, 70, 64
4, 23040, Note_on_c, 1, 70, 0
4, 23040, Note_on_c, 1, 69, 64
4, 23060, Note_on_c, 1, 69, 0
4, 23088, Note_on_c, 1, 70, 64
4, 23136, Note_on_c, 1, 70, 0
4, 23136, Note_on_c, 1, 69, 64
4, 23156, Note_on_c, 1, 69, 0
4, 23184, Note_on_c, 1, 70, 64
4, 23232, Note_on_c, 1, 70, 0
4, 23232, Note_on_c, 1, 69, 64
4, 23252, Note_on_c, 1, 69, 0
4, 23280, Note_on_c, 1, 64, 64
4, 23325, Note_on_c, 1, 64, 0
4, 23328, Note_on_c, 1, 65, 64
4, 23375, Note_on_c, 1, 65, 0
4, 23376, Note_on_c, 1, 67, 64
4, 23421, Note_on_c, 1, 67, 0
4, 23424, Note_on_c, 1, 69, 64
4, 23469, Note_on_c, 1, 69, 0
4, 23568, Note_on_c, 1, 57, 64
4, 23613, Note_on_c, 1, 57, 0
4, 23616, Note_on_c, 1, 58, 64
4, 23705, Note_on_c, 1, 58, 0
4, 23712, Note_on_c, 1, 60, 64
4, 23801, Note_on_c, 1, 60, 0
4, 23808, Note_on_c, 1, 48, 64
4, 23897, Note_on_c, 1, 48, 0
4, 23904, Note_on_c, 1, 53, 64
4, 23949, Note_on_c, 1, 53, 0
4, 23952, Note_on_c, 1, 70, 64
4, 23997, Note_on_c, 1, 70, 0
4, 24000, Note_on_c, 1, 69, 64
4, 24045, Note_on_c, 1, 69, 0
4, 24048, Note_on_c, 1, 70, 64
4, 24093, Note_on_c, 1, 70, 0
4, 24096, Note_on_c, 1, 69, 64
4, 24141, Note_on_c, 1, 69, 0
4, 24144, Note_on_c, 1, 64, 64
4, 24189, Note_on_c, 1, 64, 0
4, 24192, Note_on_c, 1, 65, 64
4, 24237, Note_on_c, 1, 65, 0
4, 24240, Note_on_c, 1, 67, 64
4, 24285, Note_on_c, 1, 67, 0
4, 24288, Note_on_c, 1, 69, 64
4, 24333, Note_on_c, 1, 69, 0
4, 24432, Note_on_c, 1, 57, 64
4, 24477, Note_on_c, 1, 57, 0
4, 24480, Note_on_c, 1, 58, 64
4, 24569, Note_on_c, 1, 58, 0
4, 24576, Note_on_c, 1, 60, 64
4, 24665, Note_on_c, 1, 60, 0
4, 24672, Note_on_c, 1, 48, 64
4, 24761, Note_on_c, 1, 48, 0
4, 24768, Note_on_c, 1, 53, 64
4, 24857, Note_on_c, 1, 53, 0
4, 24864, Note_on_c, 1, 41, 64
4, 24953, Note_on_c, 1, 41, 0
4, 25056, Note_on_c, 1, 53, 64
4, 25145, Note_on_c, 1, 53, 0
4, 25152, Note_on_c, 1, 41, 64
4, 25241, Note_on_c, 1, 41, 0
4, 25344, Note_on_c, 1, 53, 64
4, 25433, Note_on_c, 1, 53, 0
4, 25440, Note_on_c, 1, 41, 64
4, 25529, Note_on_c, 1, 41, 0
4, 25584, Note_on_c, 1, 52, 64
4, 25584, Note_on_c, 1, 46, 64
4, 25604, Note_on_c, 1, 52, 0
4, 25604, Note_on_c, 1, 46, 0
4, 25632, Note_on_c, 1, 52, 64
4, 25632, Note_on_c, 1, 46, 64
4, 25728, Note_on_c, 1, 52, 0
4, 25728, Note_on_c, 1, 46, 0
4, 25728, Note_on_c, 1, 53, 64
4, 25728, Note_on_c, 1, 45, 64
4, 25817, Note_on_c, 1, 53, 0
4, 25817, Note_on_c, 1, 45, 0
4, 25920, Note_on_c, 1, 41, 64
4, 26009, Note_on_c, 1, 41, 0
4, 26016, Note_on_c, 1, 53, 64
4, 26105, Note_on_c, 1, 53, 0
4, 26304, Note_on_c, 1, 60, 64
4, 26393, Note_on_c, 1, 60, 0
4, 26400, Note_on_c, 1, 62, 64
4, 26489, Note_on_c, 1, 62, 0
4, 26496, Note_on_c, 1, 65, 64
4, 26496, Note_on_c, 1, 58, 64
4, 26585, Note_on_c, 1, 65, 0
4, 26585, Note_on_c, 1, 58, 0
4, 26592, Note_on_c, 1, 65, 64
4, 26592, Note_on_c, 1, 57, 64
4, 26681, Note_on_c, 1, 65, 0
4, 26681, Note_on_c, 1, 57, 0
4, 26880, Note_on_c, 1, 64, 64
4, 26880, Note_on_c, 1, 55, 64
4, 26969, Note_on_c, 1, 64, 0
4, 26969, Note_on_c, 1, 55, 0
4, 26976, Note_on_c, 1, 65, 64
4, 26976, Note_on_c, 1, 53, 64
4, 27161, Note_on_c, 1, 65, 0
4, 27161, Note_on_c, 1, 53, 0
4, 27648, Note_on_c, 1, 65, 64
4, 27671, Note_on_c, 1, 65, 0
4, 27672, Note_on_c, 1, 64, 64
4, 27695, Note_on_c, 1, 64, 0
4, 27696, Note_on_c, 1, 67, 64
4, 27719, Note_on_c, 1, 67, 0
4, 27720, Note_on_c, 1, 65, 64
4, 27743, Note_on_c, 1, 65, 0
4, 27744, Note_on_c, 1, 68, 64
4, 27789, Note_on_c, 1, 68, 0
4, 27792, Note_on_c, 1, 65, 64
4, 27837, Note_on_c, 1, 65, 0
4, 27840, Note_on_c, 1, 63, 64
4, 27885, Note_on_c, 1, 63, 0
4, 27888, Note_on_c, 1, 62, 64
4, 27933, Note_on_c, 1, 62, 0
4, 27936, Note_on_c, 1, 63, 64
4, 28489, Note_on_c, 1, 63, 0
4, 28560, Note_on_c, 1, 67, 64
4, 28605, Note_on_c, 1, 67, 0
4, 28608, Note_on_c, 1, 69, 64
4, 28653, Note_on_c, 1, 69, 0
4, 28656, Note_on_c, 1, 70, 64
4, 28701, Note_on_c, 1, 70, 0
4, 28704, Note_on_c, 1, 69, 64
4, 28749, Note_on_c, 1, 69, 0
4, 28752, Note_on_c, 1, 67, 64
4, 28797, Note_on_c, 1, 67, 0
4, 28800, Note_on_c, 1, 69, 64
4, 29221, Note_on_c, 1, 69, 0
4, 29232, Note_on_c, 1, 66, 64
4, 29277, Note_on_c, 1, 66, 0
4, 29280, Note_on_c, 1, 64, 64
4, 29303, Note_on_c, 1, 64, 0
4, 29304, Note_on_c, 1, 66, 64
4, 29327, Note_on_c, 1, 66, 0
4, 29328, Note_on_c, 1, 67, 64
4, 29351, Note_on_c, 1, 67, 0
4, 29352, Note_on_c, 1, 66, 64
4, 29375, Note_on_c, 1, 66, 0
4, 29376, Note_on_c, 1, 66, 64
4, 29553, Note_on_c, 1, 66, 0
4, 29616, Note_on_c, 1, 72, 64
4, 29664, Note_on_c, 1, 72, 0
4, 29664, Note_on_c, 1, 70, 64
4, 29684, Note_on_c, 1, 70, 0
4, 29712, Note_on_c, 1, 72, 64
4, 29760, Note_on_c, 1, 72, 0
4, 29760, Note_on_c, 1, 70, 64
4, 29780, Note_on_c, 1, 70, 0
4, 29808, Note_on_c, 1, 72, 64
4, 29856, Note_on_c, 1, 72, 0
4, 29856, Note_on_c, 1, 70, 64
4, 29876, Note_on_c, 1, 70, 0
4, 29904, Note_on_c, 1, 66, 64
4, 29952, Note_on_c, 1, 66, 0
4, 29952, Note_on_c, 1, 67, 64
4, 29997, Note_on_c, 1, 67, 0
4, 30000, Note_on_c, 1, 69, 64
4, 30045, Note_on_c, 1, 69, 0
4, 30048, Note_on_c, 1, 70, 64
4, 30093, Note_on_c, 1, 70, 0
4, 30192, Note_on_c, 1, 58, 64
4, 30237, Note_on_c, 1, 58, 0
4, 30240, Note_on_c, 1, 60, 64
4, 30329, Note_on_c, 1, 60, 0
4, 30336, Note_on_c, 1, 62, 64
4, 30425, Note_on_c, 1, 62, 0
4, 30432, Note_on_c, 1, 50, 64
4, 30521, Note_on_c, 1, 50, 0
4, 30528, Note_on_c, 1, 55, 64
4, 30573, Note_on_c, 1, 55, 0
4, 30576, Note_on_c, 1, 72, 75
4, 30621, Note_on_c, 1, 72, 0
4, 30624, Note_on_c, 1, 70, 75
4, 30672, Note_on_c, 1, 70, 0
4, 30672, Note_on_c, 1, 72, 76
4, 30717, Note_on_c, 1, 72, 0
4, 30720, Note_on_c, 1, 70, 77
4, 30765, Note_on_c, 1, 70, 0
4, 30768, Note_on_c, 1, 66, 78
4, 30813, Note_on_c, 1, 66, 0
4, 30816, Note_on_c, 1, 67, 79
4, 30861, Note_on_c, 1, 67, 0
4, 30864, Note_on_c, 1, 70, 75
4, 30909, Note_on_c, 1, 70, 0
4, 30912, Note_on_c, 1, 68, 75
4, 30957, Note_on_c, 1, 68, 0
4, 30960, Note_on_c, 1, 70, 76
4, 31005, Note_on_c, 1, 70, 0
4, 31008, Note_on_c, 1, 68, 77
4, 31053, Note_on_c, 1, 68, 0
4, 31056, Note_on_c, 1, 64, 78
4, 31101, Note_on_c, 1, 64, 0
4, 31104, Note_on_c, 1, 65, 79
4, 31149, Note_on_c, 1, 65, 0
4, 31152, Note_on_c, 1, 68, 75
4, 31197, Note_on_c, 1, 68, 0
4, 31200, Note_on_c, 1, 67, 75
4, 31245, Note_on_c, 1, 67, 0
4, 31248, Note_on_c, 1, 68, 76
4, 31293, Note_on_c, 1, 68, 0
4, 31296, Note_on_c, 1, 67, 77
4, 31341, Note_on_c, 1, 67, 0
4, 31344, Note_on_c, 1, 62, 77
4, 31389, Note_on_c, 1, 62, 0
4, 31392, Note_on_c, 1, 63, 78
4, 31481, Note_on_c, 1, 63, 0
4, 31680, Note_on_c, 1, 41, 80
4, 31703, Note_on_c, 1, 41, 0
4, 31704, Note_on_c, 1, 53, 79
4, 31727, Note_on_c, 1, 53, 0
4, 31728, Note_on_c, 1, 43, 79
4, 31751, Note_on_c, 1, 43, 0
4, 31752, Note_on_c, 1, 55, 78
4, 31775, Note_on_c, 1, 55, 0
4, 31776, Note_on_c, 1, 41, 78
4, 31799, Note_on_c, 1, 41, 0
4, 31800, Note_on_c, 1, 53, 77
4, 31823, Note_on_c, 1, 53, 0
4, 31824, Note_on_c, 1, 39, 77
4, 31847, Note_on_c, 1, 39, 0
4, 31848, Note_on_c, 1, 51, 77
4, 31871, Note_on_c, 1, 51, 0
4, 31872, Note_on_c, 1, 38, 76
4, 31895, Note_on_c, 1, 38, 0
4, 31896, Note_on_c, 1, 50, 76
4, 31919, Note_on_c, 1, 50, 0
4, 31920, Note_on_c, 1, 36, 75
4, 31943, Note_on_c, 1, 36, 0
4, 31944, Note_on_c, 1, 48, 75
4, 31967, Note_on_c, 1, 48, 0
4, 31968, Note_on_c, 1, 34, 75
4, 32007, Note_on_c, 1, 34, 0
4, 32064, Note_on_c, 1, 58, 75
4, 32103, Note_on_c, 1, 58, 0
4, 32352, Note_on_c, 1, 65, 75
4, 32441, Note_on_c, 1, 65, 0
4, 32448, Note_on_c, 1, 67, 75
4, 32537, Note_on_c, 1, 67, 0
4, 32544, Note_on_c, 1, 70, 75
4, 32544, Note_on_c, 1, 63, 75
4, 32633, Note_on_c, 1, 70, 0
4, 32633, Note_on_c, 1, 63, 0
4, 32640, Note_on_c, 1, 70, 75
4, 32640, Note_on_c, 1, 62, 75
4, 32729, Note_on_c, 1, 70, 0
4, 32729, Note_on_c, 1, 62, 0
4, 32928, Note_on_c, 1, 69, 75
4, 33017, Note_on_c, 1, 69, 0
4, 33024, Note_on_c, 1, 70, 75
4, 33118, Note_on_c, 1, 70, 0
4, 33120, Note_on_c, 1, 67, 75
4, 33120, Note_on_c, 1, 63, 75
4, 33209, Note_on_c, 1, 67, 0
4, 33209, Note_on_c, 1, 63, 0
4, 33504, Note_on_c, 1, 65, 75
4, 33504, Note_on_c, 1, 63, 75
4, 33593, Note_on_c, 1, 65, 0
4, 33593, Note_on_c, 1, 63, 0
4, 33600, Note_on_c, 1, 65, 75
4, 33600, Note_on_c, 1, 62, 75
4, 33689, Note_on_c, 1, 65, 0
4, 33689, Note_on_c, 1, 62, 0
4, 33792, Note_on_c, 1, 62, 75
4, 33792, Note_on_c, 1, 53, 75
4, 33881, Note_on_c, 1, 62, 0
4, 33881, Note_on_c, 1, 53, 0
4, 33888, Note_on_c, 1, 60, 75
4, 33888, Note_on_c, 1, 53, 75
4, 33977, Note_on_c, 1, 60, 0
4, 33977, Note_on_c, 1, 53, 0
4, 33984, Note_on_c, 1, 58, 75
4, 34073, Note_on_c, 1, 58, 0
4, 34080, Note_on_c, 1, 46, 75
4, 34169, Note_on_c, 1, 46, 0
4, 34272, Note_on_c, 1, 34, 75
4, 34361, Note_on_c, 1, 34, 0
4, 34368, Note_on_c, 1, 58, 75
4, 34457, Note_on_c, 1, 58, 0
4, 34536, Note_on_c, 1, 75, 75
4, 34559, Note_on_c, 1, 75, 0
4, 34560, Note_on_c, 1, 74, 75
4, 34649, Note_on_c, 1, 74, 0
4, 34656, Note_on_c, 1, 72, 75
4, 34656, Note_on_c, 1, 66, 75
4, 34745, Note_on_c, 1, 72, 0
4, 34745, Note_on_c, 1, 66, 0
4, 34752, Note_on_c, 1, 70, 75
4, 34752, Note_on_c, 1, 67, 75
4, 34841, Note_on_c, 1, 70, 0
4, 34841, Note_on_c, 1, 67, 0
4, 34848, Note_on_c, 1, 70, 70
4, 34848, Note_on_c, 1, 63, 70
4, 35136, Note_on_c, 1, 63, 0
4, 35136, Note_on_c, 1, 62, 70
4, 35401, Note_on_c, 1, 70, 0
4, 35401, Note_on_c, 1, 62, 0
4, 35424, Note_on_c, 1, 70, 70
4, 35424, Note_on_c, 1, 63, 70
4, 35689, Note_on_c, 1, 70, 0
4, 35689, Note_on_c, 1, 63, 0
4, 35712, Note_on_c, 1, 71, 70
4, 35712, Note_on_c, 1, 62, 70
4, 35977, Note_on_c, 1, 71, 0
4, 35977, Note_on_c, 1, 62, 0
4, 36000, Note_on_c, 1, 72, 70
4, 36089, Note_on_c, 1, 72, 0
4, 36096, Note_on_c, 1, 69, 70
4, 36273, Note_on_c, 1, 69, 0
4, 36288, Note_on_c, 1, 70, 70
4, 36288, Note_on_c, 1, 58, 70
4, 36382, Note_on_c, 1, 70, 0
4, 36382, Note_on_c, 1, 58, 0
4, 36384, Note_on_c, 1, 63, 70
4, 36473, Note_on_c, 1, 63, 0
4, 36624, Note_on_c, 1, 53, 75
4, 36669, Note_on_c, 1, 53, 0
4, 36672, Note_on_c, 1, 41, 75
4, 36717, Note_on_c, 1, 41, 0
4, 36720, Note_on_c, 1, 45, 75
4, 36765, Note_on_c, 1, 45, 0
4, 36768, Note_on_c, 1, 48, 75
4, 36813, Note_on_c, 1, 48, 0
4, 36816, Note_on_c, 1, 52, 75
4, 36861, Note_on_c, 1, 52, 0
4, 36864, Note_on_c, 1, 53, 75
4, 36953, Note_on_c, 1, 53, 0
4, 37200, Note_on_c, 1, 53, 75
4, 37245, Note_on_c, 1, 53, 0
4, 37248, Note_on_c, 1, 41, 75
4, 37293, Note_on_c, 1, 41, 0
4, 37296, Note_on_c, 1, 45, 75
4, 37341, Note_on_c, 1, 45, 0
4, 37344, Note_on_c, 1, 48, 75
4, 37389, Note_on_c, 1, 48, 0
4, 37392, Note_on_c, 1, 52, 75
4, 37437, Note_on_c, 1, 52, 0
4, 37440, Note_on_c, 1, 53, 75
4, 37529, Note_on_c, 1, 53, 0
4, 37776, Note_on_c, 1, 58, 75
4, 37821, Note_on_c, 1, 58, 0
4, 37824, Note_on_c, 1, 46, 75
4, 37869, Note_on_c, 1, 46, 0
4, 37872, Note_on_c, 1, 50, 75
4, 37917, Note_on_c, 1, 50, 0
4, 37920, Note_on_c, 1, 53, 75
4, 37965, Note_on_c, 1, 53, 0
4, 37968, Note_on_c, 1, 57, 75
4, 38013, Note_on_c, 1, 57, 0
4, 38016, Note_on_c, 1, 58, 75
4, 38281, Note_on_c, 1, 58, 0
4, 38400, Note_on_c, 1, 70, 75
4, 38489, Note_on_c, 1, 70, 0
4, 38496, Note_on_c, 1, 69, 75
4, 38592, Note_on_c, 1, 77, 75
4, 38769, Note_on_c, 1, 77, 0
4, 38769, Note_on_c, 1, 69, 0
4, 38976, Note_on_c, 1, 67, 75
4, 39065, Note_on_c, 1, 67, 0
4, 39072, Note_on_c, 1, 65, 75
4, 39161, Note_on_c, 1, 65, 0
4, 39264, Note_on_c, 1, 63, 75
4, 39353, Note_on_c, 1, 63, 0
4, 39360, Note_on_c, 1, 62, 75
4, 39449, Note_on_c, 1, 62, 0
4, 39456, Note_on_c, 1, 60, 75
4, 39545, Note_on_c, 1, 60, 0
4, 39552, Note_on_c, 1, 53, 75
4, 39641, Note_on_c, 1, 53, 0
4, 39648, Note_on_c, 1, 58, 75
4, 39737, Note_on_c, 1, 58, 0
4, 39744, Note_on_c, 1, 51, 75
4, 39833, Note_on_c, 1, 51, 0
4, 39840, Note_on_c, 1, 53, 75
4, 40017, Note_on_c, 1, 53, 0
4, 40032, Note_on_c, 1, 55, 75
4, 40128, Note_on_c, 1, 55, 0
4, 40128, Note_on_c, 1, 67, 75
4, 40217, Note_on_c, 1, 67, 0
4, 40224, Note_on_c, 1, 65, 75
4, 40313, Note_on_c, 1, 65, 0
4, 40320, Note_on_c, 1, 51, 75
4, 40409, Note_on_c, 1, 51, 0
4, 40416, Note_on_c, 1, 63, 75
4, 40505, Note_on_c, 1, 63, 0
4, 40512, Note_on_c, 1, 62, 75
4, 40601, Note_on_c, 1, 62, 0
4, 40608, Note_on_c, 1, 60, 75
4, 41361, Note_on_c, 1, 60, 0
4, 41424, Note_on_c, 1, 75, 75
4, 41472, Note_on_c, 1, 75, 0
4, 41472, Note_on_c, 1, 74, 75
4, 41492, Note_on_c, 1, 74, 0
4, 41520, Note_on_c, 1, 75, 75
4, 41568, Note_on_c, 1, 75, 0
4, 41568, Note_on_c, 1, 74, 75
4, 41588, Note_on_c, 1, 74, 0
4, 41616, Note_on_c, 1, 75, 75
4, 41664, Note_on_c, 1, 75, 0
4, 41664, Note_on_c, 1, 74, 75
4, 41684, Note_on_c, 1, 74, 0
4, 41712, Note_on_c, 1, 69, 75
4, 41760, Note_on_c, 1, 69, 0
4, 41760, Note_on_c, 1, 70, 75
4, 41780, Note_on_c, 1, 70, 0
4, 41808, Note_on_c, 1, 72, 75
4, 41856, Note_on_c, 1, 72, 0
4, 41856, Note_on_c, 1, 74, 75
4, 41876, Note_on_c, 1, 74, 0
4, 42000, Note_on_c, 1, 62, 75
4, 42045, Note_on_c, 1, 62, 0
4, 42048, Note_on_c, 1, 63, 75
4, 42137, Note_on_c, 1, 63, 0
4, 42144, Note_on_c, 1, 65, 75
4, 42233, Note_on_c, 1, 65, 0
4, 42240, Note_on_c, 1, 53, 75
4, 42329, Note_on_c, 1, 53, 0
4, 42336, Note_on_c, 1, 58, 75
4, 42381, Note_on_c, 1, 58, 0
4, 42384, Note_on_c, 1, 63, 75
4, 42429, Note_on_c, 1, 63, 0
4, 42432, Note_on_c, 1, 62, 75
4, 42477, Note_on_c, 1, 62, 0
4, 42480, Note_on_c, 1, 63, 75
4, 42525, Note_on_c, 1, 63, 0
4, 42528, Note_on_c, 1, 62, 75
4, 42573, Note_on_c, 1, 62, 0
4, 42576, Note_on_c, 1, 57, 75
4, 42621, Note_on_c, 1, 57, 0
4, 42624, Note_on_c, 1, 58, 75
4, 42669, Note_on_c, 1, 58, 0
4, 42672, Note_on_c, 1, 60, 75
4, 42717, Note_on_c, 1, 60, 0
4, 42720, Note_on_c, 1, 62, 75
4, 42765, Note_on_c, 1, 62, 0
4, 42864, Note_on_c, 1, 50, 75
4, 42909, Note_on_c, 1, 50, 0
4, 42912, Note_on_c, 1, 51, 75
4, 43001, Note_on_c, 1, 51, 0
4, 43008, Note_on_c, 1, 53, 75
4, 43097, Note_on_c, 1, 53, 0
4, 43104, Note_on_c, 1, 41, 75
4, 43193, Note_on_c, 1, 41, 0
4, 43200, Note_on_c, 1, 46, 75
4, 43289, Note_on_c, 1, 46, 0
4, 43296, Note_on_c, 1, 34, 75
4, 43385, Note_on_c, 1, 34, 0
4, 43488, Note_on_c, 1, 46, 75
4, 43577, Note_on_c, 1, 46, 0
4, 43584, Note_on_c, 1, 34, 75
4, 43673, Note_on_c, 1, 34, 0
4, 43776, Note_on_c, 1, 46, 75
4, 43865, Note_on_c, 1, 46, 0
4, 43872, Note_on_c, 1, 34, 75
4, 43961, Note_on_c, 1, 34, 0
4, 44064, Note_on_c, 1, 46, 75
4, 44352, Note_on_c, 1, 46, 0
4, 44352, Note_on_c, 1, 34, 75
4, 44441, Note_on_c, 1, 34, 0
4, 44640, Note_on_c, 1, 41, 64
4, 44729, Note_on_c, 1, 41, 0
4, 44736, Note_on_c, 1, 53, 64
4, 44825, Note_on_c, 1, 53, 0
4, 45024, Note_on_c, 1, 60, 64
4, 45113, Note_on_c, 1, 60, 0
4, 45120, Note_on_c, 1, 62, 64
4, 45209, Note_on_c, 1, 62, 0
4, 45216, Note_on_c, 1, 65, 64
4, 45216, Note_on_c, 1, 58, 64
4, 45305, Note_on_c, 1, 65, 0
4, 45305, Note_on_c, 1, 58, 0
4, 45312, Note_on_c, 1, 65, 64
4, 45312, Note_on_c, 1, 57, 64
4, 45401, Note_on_c, 1, 65, 0
4, 45401, Note_on_c, 1, 57, 0
4, 45600, Note_on_c, 1, 64, 64
4, 45600, Note_on_c, 1, 55, 64
4, 45689, Note_on_c, 1, 64, 0
4, 45689, Note_on_c, 1, 55, 0
4, 45696, Note_on_c, 1, 65, 64
4, 45696, Note_on_c, 1, 53, 64
4, 45881, Note_on_c, 1, 65, 0
4, 45881, Note_on_c, 1, 53, 0
4, 46368, Note_on_c, 1, 65, 64
4, 46391, Note_on_c, 1, 65, 0
4, 46392, Note_on_c, 1, 64, 64
4, 46415, Note_on_c, 1, 64, 0
4, 46416, Note_on_c, 1, 67, 64
4, 46439, Note_on_c, 1, 67, 0
4, 46440, Note_on_c, 1, 65, 64
4, 46463, Note_on_c, 1, 65, 0
4, 46464, Note_on_c, 1, 68, 64
4, 46509, Note_on_c, 1, 68, 0
4, 46512, Note_on_c, 1, 65, 64
4, 46557, Note_on_c, 1, 65, 0
4, 46560, Note_on_c, 1, 63, 64
4, 46605, Note_on_c, 1, 63, 0
4, 46608, Note_on_c, 1, 62, 64
4, 46653, Note_on_c, 1, 62, 0
4, 46656, Note_on_c, 1, 63, 64
4, 47209, Note_on_c, 1, 63, 0
4, 47280, Note_on_c, 1, 67, 64
4, 47325, Note_on_c, 1, 67, 0
4, 47328, Note_on_c, 1, 69, 64
4, 47373, Note_on_c, 1, 69, 0
4, 47376, Note_on_c, 1, 70, 64
4, 47421, Note_on_c, 1, 70, 0
4, 47424, Note_on_c, 1, 69, 64
4, 47469, Note_on_c, 1, 69, 0
4, 47472, Note_on_c, 1, 67, 64
4, 47517, Note_on_c, 1, 67, 0
4, 47520, Note_on_c, 1, 69, 64
4, 47941, Note_on_c, 1, 69, 0
4, 47952, Note_on_c, 1, 66, 64
4, 47997, Note_on_c, 1, 66, 0
4, 48000, Note_on_c, 1, 64, 64
4, 48023, Note_on_c, 1, 64, 0
4, 48024, Note_on_c, 1, 66, 64
4, 48047, Note_on_c, 1, 66, 0
4, 48048, Note_on_c, 1, 67, 64
4, 48071, Note_on_c, 1, 67, 0
4, 48072, Note_on_c, 1, 66, 64
4, 48095, Note_on_c, 1, 66, 0
4, 48096, Note_on_c, 1, 66, 64
4, 48273, Note_on_c, 1, 66, 0
4, 48336, Note_on_c, 1, 72, 64
4, 48384, Note_on_c, 1, 72, 0
4, 48384, Note_on_c, 1, 70, 64
4, 48404, Note_on_c, 1, 70, 0
4, 48432, Note_on_c, 1, 72, 64
4, 48480, Note_on_c, 1, 72, 0
4, 48480, Note_on_c, 1, 70, 64
4, 48500, Note_on_c, 1, 70, 0
4, 48528, Note_on_c, 1, 72, 64
4, 48576, Note_on_c, 1, 72, 0
4, 48576, Note_on_c, 1, 70, 64
4, 48596, Note_on_c, 1, 70, 0
4, 48624, Note_on_c, 1, 66, 64
4, 48672, Note_on_c, 1, 66, 0
4, 48672, Note_on_c, 1, 67, 64
4, 48717, Note_on_c, 1, 67, 0
4, 48720, Note_on_c, 1, 69, 64
4, 48765, Note_on_c, 1, 69, 0
4, 48768, Note_on_c, 1, 70, 64
4, 48813, Note_on_c, 1, 70, 0
4, 48912, Note_on_c, 1, 58, 64
4, 48957, Note_on_c, 1, 58, 0
4, 48960, Note_on_c, 1, 60, 64
4, 49049, Note_on_c, 1, 60, 0
4, 49056, Note_on_c, 1, 62, 64
4, 49145, Note_on_c, 1, 62, 0
4, 49152, Note_on_c, 1, 50, 64
4, 49241, Note_on_c, 1, 50, 0
4, 49248, Note_on_c, 1, 55, 64
4, 49293, Note_on_c, 1, 55, 0
4, 49296, Note_on_c, 1, 72, 75
4, 49341, Note_on_c, 1, 72, 0
4, 49344, Note_on_c, 1, 70, 75
4, 49392, Note_on_c, 1, 70, 0
4, 49392, Note_on_c, 1, 72, 76
4, 49437, Note_on_c, 1, 72, 0
4, 49440, Note_on_c, 1, 70, 77
4, 49485, Note_on_c, 1, 70, 0
4, 49488, Note_on_c, 1, 66, 78
4, 49533, Note_on_c, 1, 66, 0
4, 49536, Note_on_c, 1, 67, 79
4, 49581, Note_on_c, 1, 67, 0
4, 49584, Note_on_c, 1, 70, 75
4, 49629, Note_on_c, 1, 70, 0
4, 49632, Note_on_c, 1, 68, 75
4, 49677, Note_on_c, 1, 68, 0
4, 49680, Note_on_c, 1, 70, 76
4, 49725, Note_on_c, 1, 70, 0
4, 49728, Note_on_c, 1, 68, 77
4, 49773, Note_on_c, 1, 68, 0
4, 49776, Note_on_c, 1, 64, 78
4, 49821, Note_on_c, 1, 64, 0
4, 49824, Note_on_c, 1, 65, 79
4, 49869, Note_on_c, 1, 65, 0
4, 49872, Note_on_c, 1, 68, 75
4, 49917, Note_on_c, 1, 68, 0
4, 49920, Note_on_c, 1, 67, 75
4, 49965, Note_on_c, 1, 67, 0
4, 49968, Note_on_c, 1, 68, 76
4, 50013, Note_on_c, 1, 68, 0
4, 50016, Note_on_c, 1, 67, 77
4, 50061, Note_on_c, 1, 67, 0
4, 50064, Note_on_c, 1, 62, 77
4, 50109, Note_on_c, 1, 62, 0
4, 50112, Note_on_c, 1, 63, 78
4, 50201, Note_on_c, 1, 63, 0
4, 50400, Note_on_c, 1, 41, 80
4, 50423, Note_on_c, 1, 41, 0
4, 50424, Note_on_c, 1, 53, 79
4, 50447, Note_on_c, 1, 53, 0
4, 50448, Note_on_c, 1, 43, 79
4, 50471, Note_on_c, 1, 43, 0
4, 50472, Note_on_c, 1, 55, 78
4, 50495, Note_on_c, 1, 55, 0
4, 50496, Note_on_c, 1, 41, 78
4, 50519, Note_on_c, 1, 41, 0
4, 50520, Note_on_c, 1, 53, 77
4, 50543, Note_on_c, 1, 53, 0
4, 50544, Note_on_c, 1, 39, 77
4, 50567, Note_on_c, 1, 39, 0
4, 50568, Note_on_c, 1, 51, 77
4, 50591, Note_on_c, 1, 51, 0
4, 50592, Note_on_c, 1, 38, 76
4, 50615, Note_on_c, 1, 38, 0
4, 50616, Note_on_c, 1, 50, 76
4, 50639, Note_on_c, 1, 50, 0
4, 50640, Note_on_c, 1, 36, 75
4, 50663, Note_on_c, 1, 36, 0
4, 50664, Note_on_c, 1, 48, 75
4, 50687, Note_on_c, 1, 48, 0
4, 50688, Note_on_c, 1, 34, 75
4, 50727, Note_on_c, 1, 34, 0
4, 50784, Note_on_c, 1, 58, 75
4, 50823, Note_on_c, 1, 58, 0
4, 51072, Note_on_c, 1, 65, 75
4, 51161, Note_on_c, 1, 65, 0
4, 51168, Note_on_c, 1, 67, 75
4, 51257, Note_on_c, 1, 67, 0
4, 51264, Note_on_c, 1, 70, 75
4, 51264, Note_on_c, 1, 63, 75
4, 51353, Note_on_c, 1, 70, 0
4, 51353, Note_on_c, 1, 63, 0
4, 51360, Note_on_c, 1, 70, 75
4, 51360, Note_on_c, 1, 62, 75
4, 51449, Note_on_c, 1, 70, 0
4, 51449, Note_on_c, 1, 62, 0
4, 51648, Note_on_c, 1, 69, 75
4, 51737, Note_on_c, 1, 69, 0
4, 51744, Note_on_c, 1, 70, 75
4, 51838, Note_on_c, 1, 70, 0
4, 51840, Note_on_c, 1, 67, 75
4, 51840, Note_on_c, 1, 63, 75
4, 51929, Note_on_c, 1, 67, 0
4, 51929, Note_on_c, 1, 63, 0
4, 52224, Note_on_c, 1, 65, 75
4, 52224, Note_on_c, 1, 63, 75
4, 52313, Note_on_c, 1, 65, 0
4, 52313, Note_on_c, 1, 63, 0
4, 52320, Note_on_c, 1, 65, 75
4, 52320, Note_on_c, 1, 62, 75
4, 52409, Note_on_c, 1, 65, 0
4, 52409, Note_on_c, 1, 62, 0
4, 52512, Note_on_c, 1, 62, 75
4, 52512, Note_on_c, 1, 53, 75
4, 52601, Note_on_c, 1, 62, 0
4, 52601, Note_on_c, 1, 53, 0
4, 52608, Note_on_c, 1, 60, 75
4, 52608, Note_on_c, 1, 53, 75
4, 52697, Note_on_c, 1, 60, 0
4, 52697, Note_on_c, 1, 53, 0
4, 52704, Note_on_c, 1, 58, 75
4, 52793, Note_on_c, 1, 58, 0
4, 52800, Note_on_c, 1, 46, 75
4, 52889, Note_on_c, 1, 46, 0
4, 52992, Note_on_c, 1, 34, 75
4, 53081, Note_on_c, 1, 34, 0
4, 53088, Note_on_c, 1, 58, 75
4, 53177, Note_on_c, 1, 58, 0
4, 53256, Note_on_c, 1, 75, 75
4, 53279, Note_on_c, 1, 75, 0
4, 53280, Note_on_c, 1, 74, 75
4, 53369, Note_on_c, 1, 74, 0
4, 53376, Note_on_c, 1, 72, 75
4, 53376, Note_on_c, 1, 66, 75
4, 53465, Note_on_c, 1, 72, 0
4, 53465, Note_on_c, 1, 66, 0
4, 53472, Note_on_c, 1, 70, 75
4, 53472, Note_on_c, 1, 67, 75
4, 53561, Note_on_c, 1, 70, 0
4, 53561, Note_on_c, 1, 67, 0
4, 53568, Note_on_c, 1, 70, 70
4, 53568, Note_on_c, 1, 63, 70
4, 53856, Note_on_c, 1, 63, 0
4, 53856, Note_on_c, 1, 62, 70
4, 54121, Note_on_c, 1, 70, 0
4, 54121, Note_on_c, 1, 62, 0
4, 54144, Note_on_c, 1, 70, 70
4, 54144, Note_on_c, 1, 63, 70
4, 54409, Note_on_c, 1, 70, 0
4, 54409, Note_on_c, 1, 63, 0
4, 54432, Note_on_c, 1, 71, 70
4, 54432, Note_on_c, 1, 62, 70
4, 54697, Note_on_c, 1, 71, 0
4, 54697, Note_on_c, 1, 62, 0
4, 54720, Note_on_c, 1, 72, 70
4, 54809, Note_on_c, 1, 72, 0
4, 54816, Note_on_c, 1, 69, 70
4, 54993, Note_on_c, 1, 69, 0
4, 55008, Note_on_c, 1, 70, 70
4, 55008, Note_on_c, 1, 58, 70
4, 55102, Note_on_c, 1, 70, 0
4, 55102, Note_on_c, 1, 58, 0
4, 55104, Note_on_c, 1, 63, 70
4, 55193, Note_on_c, 1, 63, 0
4, 55344, Note_on_c, 1, 53, 75
4, 55389, Note_on_c, 1, 53, 0
4, 55392, Note_on_c, 1, 41, 75
4, 55437, Note_on_c, 1, 41, 0
4, 55440, Note_on_c, 1, 45, 75
4, 55485, Note_on_c, 1, 45, 0
4, 55488, Note_on_c, 1, 48, 75
4, 55533, Note_on_c, 1, 48, 0
4, 55536, Note_on_c, 1, 52, 75
4, 55581, Note_on_c, 1, 52, 0
4, 55584, Note_on_c, 1, 53, 75
4, 55673, Note_on_c, 1, 53, 0
4, 55920, Note_on_c, 1, 53, 75
4, 55965, Note_on_c, 1, 53, 0
4, 55968, Note_on_c, 1, 41, 75
4, 56013, Note_on_c, 1, 41, 0
4, 56016, Note_on_c, 1, 45, 75
4, 56061, Note_on_c, 1, 45, 0
4, 56064, Note_on_c, 1, 48, 75
4, 56109, Note_on_c, 1, 48, 0
4, 56112, Note_on_c, 1, 52, 75
4, 56157, Note_on_c, 1, 52, 0
4, 56160, Note_on_c, 1, 53, 75
4, 56249, Note_on_c, 1, 53, 0
4, 56496, Note_on_c, 1, 58, 75
4, 56541, Note_on_c, 1, 58, 0
4, 56544, Note_on_c, 1, 46, 75
4, 56589, Note_on_c, 1, 46, 0
4, 56592, Note_on_c, 1, 50, 75
4, 56637, Note_on_c, 1, 50, 0
4, 56640, Note_on_c, 1, 53, 75
4, 56685, Note_on_c, 1, 53, 0
4, 56688, Note_on_c, 1, 57, 75
4, 56733, Note_on_c, 1, 57, 0
4, 56736, Note_on_c, 1, 58, 75
4, 57001, Note_on_c, 1, 58, 0
4, 57120, Note_on_c, 1, 70, 75
4, 57209, Note_on_c, 1, 70, 0
4, 57216, Note_on_c, 1, 69, 75
4, 57312, Note_on_c, 1, 77, 75
4, 57489, Note_on_c, 1, 77, 0
4, 57489, Note_on_c, 1, 69, 0
4, 57696, Note_on_c, 1, 67, 75
4, 57785, Note_on_c, 1, 67, 0
4, 57792, Note_on_c, 1, 65, 75
4, 57881, Note_on_c, 1, 65, 0
4, 57984, Note_on_c, 1, 63, 75
4, 58073, Note_on_c, 1, 63, 0
4, 58080, Note_on_c, 1, 62, 75
4, 58169, Note_on_c, 1, 62, 0
4, 58176, Note_on_c, 1, 60, 75
4, 58265, Note_on_c, 1, 60, 0
4, 58272, Note_on_c, 1, 53, 75
4, 58361, Note_on_c, 1, 53, 0
4, 58368, Note_on_c, 1, 58, 75
4, 58457, Note_on_c, 1, 58, 0
4, 58464, Note_on_c, 1, 51, 75
4, 58553, Note_on_c, 1, 51, 0
4, 58560, Note_on_c, 1, 53, 75
4, 58737, Note_on_c, 1, 53, 0
4, 58752, Note_on_c, 1, 55, 75
4, 58848, Note_on_c, 1, 55, 0
4, 58848, Note_on_c, 1, 67, 75
4, 58937, Note_on_c, 1, 67, 0
4, 58944, Note_on_c, 1, 65, 75
4, 59033, Note_on_c, 1, 65, 0
4, 59040, Note_on_c, 1, 51, 75
4, 59129, Note_on_c, 1, 51, 0
4, 59136, Note_on_c, 1, 63, 75
4, 59225, Note_on_c, 1, 63, 0
4, 59232, Note_on_c, 1, 62, 75
4, 59321, Note_on_c, 1, 62, 0
4, 59328, Note_on_c, 1, 60, 75
4, 60081, Note_on_c, 1, 60, 0
4, 60144, Note_on_c, 1, 75, 75
4, 60192, Note_on_c, 1, 75, 0
4, 60192, Note_on_c, 1, 74, 75
4, 60212, Note_on_c, 1, 74, 0
4, 60240, Note_on_c, 1, 75, 75
4, 60288, Note_on_c, 1, 75, 0
4, 60288, Note_on_c, 1, 74, 75
4, 60308, Note_on_c, 1, 74, 0
4, 60336, Note_on_c, 1, 75, 75
4, 60384, Note_on_c, 1, 75, 0
4, 60384, Note_on_c, 1, 74, 75
4, 60404, Note_on_c, 1, 74, 0
4, 60432, Note_on_c, 1, 69, 75
4, 60480, Note_on_c, 1, 69, 0
4, 60480, Note_on_c, 1, 70, 75
4, 60500, Note_on_c, 1, 70, 0
4, 60528, Note_on_c, 1, 72, 75
4, 60576, Note_on_c, 1, 72, 0
4, 60576, Note_on_c, 1, 74, 75
4, 60596, Note_on_c, 1, 74, 0
4, 60720, Note_on_c, 1, 62, 75
4, 60765, Note_on_c, 1, 62, 0
4, 60768, Note_on_c, 1, 63, 75
4, 60857, Note_on_c, 1, 63, 0
4, 60864, Note_on_c, 1, 65, 75
4, 60953, Note_on_c, 1, 65, 0
4, 60960, Note_on_c, 1, 53, 75
4, 61049, Note_on_c, 1, 53, 0
4, 61056, Note_on_c, 1, 58, 75
4, 61101, Note_on_c, 1, 58, 0
4, 61104, Note_on_c, 1, 63, 75
4, 61149, Note_on_c, 1, 63, 0
4, 61152, Note_on_c, 1, 62, 75
4, 61197, Note_on_c, 1, 62, 0
4, 61200, Note_on_c, 1, 63, 75
4, 61245, Note_on_c, 1, 63, 0
4, 61248, Note_on_c, 1, 62, 75
4, 61293, Note_on_c, 1, 62, 0
4, 61296, Note_on_c, 1, 57, 75
4, 61341, Note_on_c, 1, 57, 0
4, 61344, Note_on_c, 1, 58, 75
4, 61389, Note_on_c, 1, 58, 0
4, 61392, Note_on_c, 1, 60, 75
4, 61437, Note_on_c, 1, 60, 0
4, 61440, Note_on_c, 1, 62, 75
4, 61485, Note_on_c, 1, 62, 0
4, 61584, Note_on_c, 1, 50, 75
4, 61629, Note_on_c, 1, 50, 0
4, 61632, Note_on_c, 1, 51, 75
4, 61721, Note_on_c, 1, 51, 0
4, 61728, Note_on_c, 1, 53, 75
4, 61817, Note_on_c, 1, 53, 0
4, 61824, Note_on_c, 1, 41, 75
4, 61913, Note_on_c, 1, 41, 0
4, 61920, Note_on_c, 1, 46, 75
4, 62009, Note_on_c, 1, 46, 0
4, 62016, Note_on_c, 1, 34, 75
4, 62105, Note_on_c, 1, 34, 0
4, 62208, Note_on_c, 1, 46, 75
4, 62297, Note_on_c, 1, 46, 0
4, 62304, Note_on_c, 1, 34, 75
4, 62393, Note_on_c, 1, 34, 0
4, 62496, Note_on_c, 1, 46, 75
4, 62585, Note_on_c, 1, 46, 0
4, 62592, Note_on_c, 1, 34, 75
4, 62681, Note_on_c, 1, 34, 0
4, 62784, Note_on_c, 1, 46, 75
4, 63072, Note_on_c, 1, 46, 0
4, 63072, Note_on_c, 1, 34, 75
4, 63161, Note_on_c, 1, 34, 0
4, 63360, End_track
5, 0, Start_track
5, 0, Program_c, 1, 0
5, 0, Control_c, 1, 7, 127
5, 0, Control_c, 1, 10, 64
5, 864, Note_on_c, 1, 60, 64
5, 1041, Note_on_c, 1, 60, 0
5, 1056, Note_on_c, 1, 58, 64
5, 1150, Note_on_c, 1, 58, 0
5, 3744, Note_on_c, 1, 65, 64
5, 3921, Note_on_c, 1, 65, 0
5, 5568, Note_on_c, 1, 65, 64
5, 5657, Note_on_c, 1, 65, 0
5, 5664, Note_on_c, 1, 64, 64
5, 6025, Note_on_c, 1, 64, 0
5, 6048, Note_on_c, 1, 65, 64
5, 6313, Note_on_c, 1, 65, 0
5, 6336, Note_on_c, 1, 64, 64
5, 6601, Note_on_c, 1, 64, 0
5, 6624, Note_on_c, 1, 62, 64
5, 6889, Note_on_c, 1, 62, 0
5, 6912, Note_on_c, 1, 60, 64
5, 7089, Note_on_c, 1, 60, 0
5, 9648, Note_on_c, 1, 60, 64
5, 9693, Note_on_c, 1, 60, 0
5, 9696, Note_on_c, 1, 59, 64
5, 9719, Note_on_c, 1, 59, 0
5, 9720, Note_on_c, 1, 60, 64
5, 9743, Note_on_c, 1, 60, 0
5, 9744, Note_on_c, 1, 62, 64
5, 9767, Note_on_c, 1, 62, 0
5, 9768, Note_on_c, 1, 60, 64
5, 9791, Note_on_c, 1, 60, 0
5, 9792, Note_on_c, 1, 60, 64
5, 9969, Note_on_c, 1, 60, 0
5, 13824, Note_on_c, 1, 60, 64
5, 14001, Note_on_c, 1, 60, 0
5, 14016, Note_on_c, 1, 58, 64
5, 14110, Note_on_c, 1, 58, 0
5, 16704, Note_on_c, 1, 65, 64
5, 16881, Note_on_c, 1, 65, 0
5, 18528, Note_on_c, 1, 65, 64
5, 18617, Note_on_c, 1, 65, 0
5, 18624, Note_on_c, 1, 64, 64
5, 18985, Note_on_c, 1, 64, 0
5, 19008, Note_on_c, 1, 65, 64
5, 19273, Note_on_c, 1, 65, 0
5, 19296, Note_on_c, 1, 64, 64
5, 19561, Note_on_c, 1, 64, 0
5, 19584, Note_on_c, 1, 62, 64
5, 19849, Note_on_c, 1, 62, 0
5, 19872, Note_on_c, 1, 60, 64
5, 20049, Note_on_c, 1, 60, 0
5, 22608, Note_on_c, 1, 60, 64
5, 22653, Note_on_c, 1, 60, 0
5, 22656, Note_on_c, 1, 59, 64
5, 22679, Note_on_c, 1, 59, 0
5, 22680, Note_on_c, 1, 60, 64
5, 22703, Note_on_c, 1, 60, 0
5, 22704, Note_on_c, 1, 62, 64
5, 22727, Note_on_c, 1, 62, 0
5, 22728, Note_on_c, 1, 60, 64
5, 22751, Note_on_c, 1, 60, 0
5, 22752, Note_on_c, 1, 60, 64
5, 22929, Note_on_c, 1, 60, 0
5, 28512, Note_on_c, 1, 63, 64
5, 28777, Note_on_c, 1, 63, 0
5, 28800, Note_on_c, 1, 62, 64
5, 29553, Note_on_c, 1, 62, 0
5, 32832, Note_on_c, 1, 60, 64
5, 33009, Note_on_c, 1, 60, 0
5, 33024, Note_on_c, 1, 58, 64
5, 33118, Note_on_c, 1, 58, 0
5, 36000, Note_on_c, 1, 60, 64
5, 36265, Note_on_c, 1, 60, 0
5, 41040, Note_on_c, 1, 65, 64
5, 41085, Note_on_c, 1, 65, 0
5, 41088, Note_on_c, 1, 64, 64
5, 41111, Note_on_c, 1, 64, 0
5, 41112, Note_on_c, 1, 65, 64
5, 41135, Note_on_c, 1, 65, 0
5, 41136, Note_on_c, 1, 67, 64
5, 41159, Note_on_c, 1, 67, 0
5, 41160, Note_on_c, 1, 65, 64
5, 41183, Note_on_c, 1, 65, 0
5, 41184, Note_on_c, 1, 65, 64
5, 41361, Note_on_c, 1, 65, 0
5, 47232, Note_on_c, 1, 63, 64
5, 47497, Note_on_c, 1, 63, 0
5, 47520, Note_on_c, 1, 62, 64
5, 48273, Note_on_c, 1, 62, 0
5, 51552, Note_on_c, 1, 60, 64
5, 51729, Note_on_c, 1, 60, 0
5, 51744, Note_on_c, 1, 58, 64
5, 51838, Note_on_c, 1, 58, 0
5, 54720, Note_on_c, 1, 60, 64
5, 54985, Note_on_c, 1, 60, 0
5, 59760, Note_on_c, 1, 65, 64
5, 59805, Note_on_c, 1, 65, 0
5, 59808, Note_on_c, 1, 64, 64
5, 59831, Note_on_c, 1, 64, 0
5, 59832, Note_on_c, 1, 65, 64
5, 59855, Note_on_c, 1, 65, 0
5, 59856, Note_on_c, 1, 67, 64
5, 59879, Note_on_c, 1, 67, 0
5, 59880, Note_on_c, 1, 65, 64
5, 59903, Note_on_c, 1, 65, 0
5, 59904, Note_on_c, 1, 65, 64
5, 60081, Note_on_c, 1, 65, 0
5, 63360, End_track
6, 0, Start_track
6, 0, Title_t, "Sonata I   Haydn  "
6, 0, End_track
0, 0, End_of_file
