0, 0, Header, 1, 4, 96
1, 0, Start_track
1, 0, Copyright_t, "Copyright  1994-2002 Mozart Music Software"
1, 0, Sequencer_specific, 16, 68, 87, 77, 90, 86, 82, 83, 78, 32, 55, 46, 48, 46, 55, 46, 48
1, 0, Time_signature, 3, 2, 24, 8
1, 0, Tempo, 500000
1, 0, Key_signature, 0, "major"
1, 11520, Key_signature, -2, "major"
1, 13824, Key_signature, -2, "major"
1, 24768, Key_signature, 0, "major"
1, 27072, Key_signature, 0, "major"
1, 36576, End_track
2, 0, Start_track
2, 0, Program_c, 0, 0
2, 0, Control_c, 0, 7, 127
2, 0, Control_c, 0, 10, 64
2, 0, Note_on_c, 0, 74, 85
2, 12, Note_on_c, 0, 74, 0
2, 12, Note_on_c, 0, 72, 85
2, 24, Note_on_c, 0, 72, 0
2, 24, Note_on_c, 0, 71, 85
2, 36, Note_on_c, 0, 71, 0
2, 36, Note_on_c, 0, 72, 85
2, 93, Note_on_c, 0, 72, 0
2, 96, Note_on_c, 0, 67, 85
2, 126, Note_on_c, 0, 67, 0
2, 128, Note_on_c, 0, 72, 85
2, 158, Note_on_c, 0, 72, 0
2, 160, Note_on_c, 0, 76, 85
2, 190, Note_on_c, 0, 76, 0
2, 192, Note_on_c, 0, 74, 85
2, 222, Note_on_c, 0, 74, 0
2, 224, Note_on_c, 0, 72, 85
2, 254, Note_on_c, 0, 72, 0
2, 256, Note_on_c, 0, 71, 85
2, 286, Note_on_c, 0, 71, 0
2, 288, Note_on_c, 0, 72, 85
2, 377, Note_on_c, 0, 72, 0
2, 384, Note_on_c, 0, 67, 85
2, 414, Note_on_c, 0, 67, 0
2, 416, Note_on_c, 0, 72, 85
2, 446, Note_on_c, 0, 72, 0
2, 448, Note_on_c, 0, 76, 85
2, 478, Note_on_c, 0, 76, 0
2, 480, Note_on_c, 0, 74, 85
2, 510, Note_on_c, 0, 74, 0
2, 512, Note_on_c, 0, 72, 85
2, 542, Note_on_c, 0, 72, 0
2, 544, Note_on_c, 0, 71, 85
2, 574, Note_on_c, 0, 71, 0
2, 576, Note_on_c, 0, 72, 85
2, 665, Note_on_c, 0, 72, 0
2, 672, Note_on_c, 0, 79, 85
2, 702, Note_on_c, 0, 79, 0
2, 704, Note_on_c, 0, 81, 85
2, 734, Note_on_c, 0, 81, 0
2, 736, Note_on_c, 0, 83, 85
2, 766, Note_on_c, 0, 83, 0
2, 768, Note_on_c, 0, 84, 85
2, 798, Note_on_c, 0, 84, 0
2, 800, Note_on_c, 0, 79, 85
2, 830, Note_on_c, 0, 79, 0
2, 832, Note_on_c, 0, 76, 85
2, 862, Note_on_c, 0, 76, 0
2, 864, Note_on_c, 0, 79, 85
2, 972, Note_on_c, 0, 79, 0
2, 972, Note_on_c, 0, 77, 85
2, 984, Note_on_c, 0, 77, 0
2, 984, Note_on_c, 0, 79, 85
2, 996, Note_on_c, 0, 79, 0
2, 996, Note_on_c, 0, 77, 85
2, 1008, Note_on_c, 0, 77, 0
2, 1008, Note_on_c, 0, 79, 85
2, 1020, Note_on_c, 0, 79, 0
2, 1020, Note_on_c, 0, 77, 85
2, 1032, Note_on_c, 0, 77, 0
2, 1032, Note_on_c, 0, 76, 85
2, 1044, Note_on_c, 0, 76, 0
2, 1044, Note_on_c, 0, 77, 85
2, 1056, Note_on_c, 0, 77, 0
2, 1056, Note_on_c, 0, 76, 85
2, 1145, Note_on_c, 0, 76, 0
2, 1152, Note_on_c, 0, 74, 85
2, 1241, Note_on_c, 0, 74, 0
2, 1248, Note_on_c, 0, 81, 85
2, 1278, Note_on_c, 0, 81, 0
2, 1280, Note_on_c, 0, 79, 85
2, 1310, Note_on_c, 0, 79, 0
2, 1312, Note_on_c, 0, 77, 85
2, 1342, Note_on_c, 0, 77, 0
2, 1344, Note_on_c, 0, 76, 85
2, 1374, Note_on_c, 0, 76, 0
2, 1376, Note_on_c, 0, 74, 85
2, 1406, Note_on_c, 0, 74, 0
2, 1408, Note_on_c, 0, 72, 85
2, 1438, Note_on_c, 0, 72, 0
2, 1440, Note_on_c, 0, 72, 85
2, 1548, Note_on_c, 0, 72, 0
2, 1548, Note_on_c, 0, 71, 85
2, 1560, Note_on_c, 0, 71, 0
2, 1560, Note_on_c, 0, 72, 85
2, 1572, Note_on_c, 0, 72, 0
2, 1572, Note_on_c, 0, 71, 85
2, 1584, Note_on_c, 0, 71, 0
2, 1584, Note_on_c, 0, 72, 85
2, 1596, Note_on_c, 0, 72, 0
2, 1596, Note_on_c, 0, 71, 85
2, 1608, Note_on_c, 0, 71, 0
2, 1608, Note_on_c, 0, 69, 85
2, 1620, Note_on_c, 0, 69, 0
2, 1620, Note_on_c, 0, 71, 85
2, 1632, Note_on_c, 0, 71, 0
2, 1632, Note_on_c, 0, 72, 85
2, 1721, Note_on_c, 0, 72, 0
2, 1728, Note_on_c, 0, 67, 85
2, 1817, Note_on_c, 0, 67, 0
2, 1824, Note_on_c, 0, 77, 101
2, 1824, Note_on_c, 0, 74, 101
2, 1920, Note_on_c, 0, 77, 0
2, 1920, Note_on_c, 0, 74, 0
2, 1920, Note_on_c, 0, 76, 85
2, 1920, Note_on_c, 0, 72, 85
2, 2009, Note_on_c, 0, 76, 0
2, 2009, Note_on_c, 0, 72, 0
2, 2016, Note_on_c, 0, 76, 85
2, 2016, Note_on_c, 0, 72, 85
2, 2112, Note_on_c, 0, 76, 0
2, 2112, Note_on_c, 0, 72, 0
2, 2112, Note_on_c, 0, 74, 85
2, 2112, Note_on_c, 0, 71, 85
2, 2201, Note_on_c, 0, 74, 0
2, 2201, Note_on_c, 0, 71, 0
2, 2304, Note_on_c, 0, 74, 85
2, 2316, Note_on_c, 0, 74, 0
2, 2316, Note_on_c, 0, 72, 85
2, 2328, Note_on_c, 0, 72, 0
2, 2328, Note_on_c, 0, 71, 85
2, 2340, Note_on_c, 0, 71, 0
2, 2340, Note_on_c, 0, 72, 85
2, 2397, Note_on_c, 0, 72, 0
2, 2400, Note_on_c, 0, 67, 85
2, 2430, Note_on_c, 0, 67, 0
2, 2432, Note_on_c, 0, 72, 85
2, 2462, Note_on_c, 0, 72, 0
2, 2464, Note_on_c, 0, 76, 85
2, 2494, Note_on_c, 0, 76, 0
2, 2496, Note_on_c, 0, 74, 85
2, 2526, Note_on_c, 0, 74, 0
2, 2528, Note_on_c, 0, 72, 85
2, 2558, Note_on_c, 0, 72, 0
2, 2560, Note_on_c, 0, 71, 85
2, 2590, Note_on_c, 0, 71, 0
2, 2592, Note_on_c, 0, 72, 85
2, 2681, Note_on_c, 0, 72, 0
2, 2688, Note_on_c, 0, 67, 85
2, 2718, Note_on_c, 0, 67, 0
2, 2720, Note_on_c, 0, 72, 85
2, 2750, Note_on_c, 0, 72, 0
2, 2752, Note_on_c, 0, 76, 85
2, 2782, Note_on_c, 0, 76, 0
2, 2784, Note_on_c, 0, 74, 85
2, 2814, Note_on_c, 0, 74, 0
2, 2816, Note_on_c, 0, 72, 85
2, 2846, Note_on_c, 0, 72, 0
2, 2848, Note_on_c, 0, 71, 85
2, 2878, Note_on_c, 0, 71, 0
2, 2880, Note_on_c, 0, 72, 85
2, 2969, Note_on_c, 0, 72, 0
2, 2976, Note_on_c, 0, 79, 85
2, 3006, Note_on_c, 0, 79, 0
2, 3008, Note_on_c, 0, 81, 85
2, 3038, Note_on_c, 0, 81, 0
2, 3040, Note_on_c, 0, 83, 85
2, 3070, Note_on_c, 0, 83, 0
2, 3072, Note_on_c, 0, 84, 85
2, 3102, Note_on_c, 0, 84, 0
2, 3104, Note_on_c, 0, 79, 85
2, 3134, Note_on_c, 0, 79, 0
2, 3136, Note_on_c, 0, 76, 85
2, 3166, Note_on_c, 0, 76, 0
2, 3168, Note_on_c, 0, 79, 85
2, 3276, Note_on_c, 0, 79, 0
2, 3276, Note_on_c, 0, 77, 85
2, 3288, Note_on_c, 0, 77, 0
2, 3288, Note_on_c, 0, 79, 85
2, 3300, Note_on_c, 0, 79, 0
2, 3300, Note_on_c, 0, 77, 85
2, 3312, Note_on_c, 0, 77, 0
2, 3312, Note_on_c, 0, 79, 85
2, 3324, Note_on_c, 0, 79, 0
2, 3324, Note_on_c, 0, 77, 85
2, 3336, Note_on_c, 0, 77, 0
2, 3336, Note_on_c, 0, 76, 85
2, 3348, Note_on_c, 0, 76, 0
2, 3348, Note_on_c, 0, 77, 85
2, 3360, Note_on_c, 0, 77, 0
2, 3360, Note_on_c, 0, 76, 85
2, 3449, Note_on_c, 0, 76, 0
2, 3456, Note_on_c, 0, 74, 85
2, 3545, Note_on_c, 0, 74, 0
2, 3552, Note_on_c, 0, 81, 85
2, 3582, Note_on_c, 0, 81, 0
2, 3584, Note_on_c, 0, 79, 85
2, 3614, Note_on_c, 0, 79, 0
2, 3616, Note_on_c, 0, 77, 85
2, 3646, Note_on_c, 0, 77, 0
2, 3648, Note_on_c, 0, 76, 85
2, 3678, Note_on_c, 0, 76, 0
2, 3680, Note_on_c, 0, 74, 85
2, 3710, Note_on_c, 0, 74, 0
2, 3712, Note_on_c, 0, 72, 85
2, 3742, Note_on_c, 0, 72, 0
2, 3744, Note_on_c, 0, 72, 85
2, 3852, Note_on_c, 0, 72, 0
2, 3852, Note_on_c, 0, 71, 85
2, 3864, Note_on_c, 0, 71, 0
2, 3864, Note_on_c, 0, 72, 85
2, 3876, Note_on_c, 0, 72, 0
2, 3876, Note_on_c, 0, 71, 85
2, 3888, Note_on_c, 0, 71, 0
2, 3888, Note_on_c, 0, 72, 85
2, 3900, Note_on_c, 0, 72, 0
2, 3900, Note_on_c, 0, 71, 85
2, 3912, Note_on_c, 0, 71, 0
2, 3912, Note_on_c, 0, 69, 85
2, 3924, Note_on_c, 0, 69, 0
2, 3924, Note_on_c, 0, 71, 85
2, 3936, Note_on_c, 0, 71, 0
2, 3936, Note_on_c, 0, 72, 85
2, 4025, Note_on_c, 0, 72, 0
2, 4032, Note_on_c, 0, 67, 85
2, 4121, Note_on_c, 0, 67, 0
2, 4128, Note_on_c, 0, 77, 101
2, 4128, Note_on_c, 0, 74, 101
2, 4224, Note_on_c, 0, 77, 0
2, 4224, Note_on_c, 0, 74, 0
2, 4224, Note_on_c, 0, 76, 85
2, 4224, Note_on_c, 0, 72, 85
2, 4313, Note_on_c, 0, 76, 0
2, 4313, Note_on_c, 0, 72, 0
2, 4320, Note_on_c, 0, 76, 85
2, 4320, Note_on_c, 0, 72, 85
2, 4416, Note_on_c, 0, 76, 0
2, 4416, Note_on_c, 0, 72, 0
2, 4416, Note_on_c, 0, 74, 85
2, 4416, Note_on_c, 0, 71, 85
2, 4505, Note_on_c, 0, 74, 0
2, 4505, Note_on_c, 0, 71, 0
2, 4608, Note_on_c, 0, 79, 85
2, 4697, Note_on_c, 0, 79, 0
2, 4704, Note_on_c, 0, 72, 85
2, 4734, Note_on_c, 0, 72, 0
2, 4736, Note_on_c, 0, 76, 85
2, 4766, Note_on_c, 0, 76, 0
2, 4768, Note_on_c, 0, 79, 85
2, 4798, Note_on_c, 0, 79, 0
2, 4800, Note_on_c, 0, 76, 85
2, 4830, Note_on_c, 0, 76, 0
2, 4832, Note_on_c, 0, 79, 85
2, 4862, Note_on_c, 0, 79, 0
2, 4864, Note_on_c, 0, 82, 85
2, 4894, Note_on_c, 0, 82, 0
2, 4896, Note_on_c, 0, 82, 85
2, 4985, Note_on_c, 0, 82, 0
2, 4992, Note_on_c, 0, 81, 85
2, 5081, Note_on_c, 0, 81, 0
2, 5088, Note_on_c, 0, 79, 85
2, 5177, Note_on_c, 0, 79, 0
2, 5184, Note_on_c, 0, 77, 85
2, 5214, Note_on_c, 0, 77, 0
2, 5216, Note_on_c, 0, 76, 85
2, 5246, Note_on_c, 0, 76, 0
2, 5248, Note_on_c, 0, 77, 85
2, 5278, Note_on_c, 0, 77, 0
2, 5280, Note_on_c, 0, 81, 85
2, 5310, Note_on_c, 0, 81, 0
2, 5312, Note_on_c, 0, 79, 85
2, 5342, Note_on_c, 0, 79, 0
2, 5344, Note_on_c, 0, 77, 85
2, 5374, Note_on_c, 0, 77, 0
2, 5376, Note_on_c, 0, 76, 85
2, 5406, Note_on_c, 0, 76, 0
2, 5408, Note_on_c, 0, 74, 85
2, 5438, Note_on_c, 0, 74, 0
2, 5440, Note_on_c, 0, 72, 85
2, 5470, Note_on_c, 0, 72, 0
2, 5472, Note_on_c, 0, 72, 85
2, 5649, Note_on_c, 0, 72, 0
2, 5664, Note_on_c, 0, 71, 85
2, 5753, Note_on_c, 0, 71, 0
2, 5760, Note_on_c, 0, 74, 85
2, 5772, Note_on_c, 0, 74, 0
2, 5772, Note_on_c, 0, 72, 85
2, 5784, Note_on_c, 0, 72, 0
2, 5784, Note_on_c, 0, 71, 85
2, 5796, Note_on_c, 0, 71, 0
2, 5796, Note_on_c, 0, 72, 85
2, 5853, Note_on_c, 0, 72, 0
2, 5856, Note_on_c, 0, 67, 85
2, 5886, Note_on_c, 0, 67, 0
2, 5888, Note_on_c, 0, 72, 85
2, 5918, Note_on_c, 0, 72, 0
2, 5920, Note_on_c, 0, 76, 85
2, 5950, Note_on_c, 0, 76, 0
2, 5952, Note_on_c, 0, 74, 85
2, 5982, Note_on_c, 0, 74, 0
2, 5984, Note_on_c, 0, 72, 85
2, 6014, Note_on_c, 0, 72, 0
2, 6016, Note_on_c, 0, 71, 85
2, 6046, Note_on_c, 0, 71, 0
2, 6048, Note_on_c, 0, 72, 85
2, 6137, Note_on_c, 0, 72, 0
2, 6144, Note_on_c, 0, 67, 85
2, 6174, Note_on_c, 0, 67, 0
2, 6176, Note_on_c, 0, 72, 85
2, 6206, Note_on_c, 0, 72, 0
2, 6208, Note_on_c, 0, 76, 85
2, 6238, Note_on_c, 0, 76, 0
2, 6240, Note_on_c, 0, 74, 85
2, 6270, Note_on_c, 0, 74, 0
2, 6272, Note_on_c, 0, 72, 85
2, 6302, Note_on_c, 0, 72, 0
2, 6304, Note_on_c, 0, 71, 85
2, 6334, Note_on_c, 0, 71, 0
2, 6336, Note_on_c, 0, 72, 85
2, 6425, Note_on_c, 0, 72, 0
2, 6432, Note_on_c, 0, 79, 85
2, 6462, Note_on_c, 0, 79, 0
2, 6464, Note_on_c, 0, 81, 85
2, 6494, Note_on_c, 0, 81, 0
2, 6496, Note_on_c, 0, 83, 85
2, 6526, Note_on_c, 0, 83, 0
2, 6528, Note_on_c, 0, 84, 85
2, 6558, Note_on_c, 0, 84, 0
2, 6560, Note_on_c, 0, 79, 85
2, 6590, Note_on_c, 0, 79, 0
2, 6592, Note_on_c, 0, 76, 85
2, 6622, Note_on_c, 0, 76, 0
2, 6624, Note_on_c, 0, 79, 85
2, 6732, Note_on_c, 0, 79, 0
2, 6732, Note_on_c, 0, 77, 85
2, 6744, Note_on_c, 0, 77, 0
2, 6744, Note_on_c, 0, 79, 85
2, 6756, Note_on_c, 0, 79, 0
2, 6756, Note_on_c, 0, 77, 85
2, 6768, Note_on_c, 0, 77, 0
2, 6768, Note_on_c, 0, 79, 85
2, 6780, Note_on_c, 0, 79, 0
2, 6780, Note_on_c, 0, 77, 85
2, 6792, Note_on_c, 0, 77, 0
2, 6792, Note_on_c, 0, 76, 85
2, 6804, Note_on_c, 0, 76, 0
2, 6804, Note_on_c, 0, 77, 85
2, 6816, Note_on_c, 0, 77, 0
2, 6816, Note_on_c, 0, 76, 85
2, 6905, Note_on_c, 0, 76, 0
2, 6912, Note_on_c, 0, 74, 85
2, 7001, Note_on_c, 0, 74, 0
2, 7008, Note_on_c, 0, 81, 85
2, 7038, Note_on_c, 0, 81, 0
2, 7040, Note_on_c, 0, 79, 85
2, 7070, Note_on_c, 0, 79, 0
2, 7072, Note_on_c, 0, 77, 85
2, 7102, Note_on_c, 0, 77, 0
2, 7104, Note_on_c, 0, 76, 85
2, 7134, Note_on_c, 0, 76, 0
2, 7136, Note_on_c, 0, 74, 85
2, 7166, Note_on_c, 0, 74, 0
2, 7168, Note_on_c, 0, 72, 85
2, 7198, Note_on_c, 0, 72, 0
2, 7200, Note_on_c, 0, 72, 85
2, 7308, Note_on_c, 0, 72, 0
2, 7308, Note_on_c, 0, 71, 85
2, 7320, Note_on_c, 0, 71, 0
2, 7320, Note_on_c, 0, 72, 85
2, 7332, Note_on_c, 0, 72, 0
2, 7332, Note_on_c, 0, 71, 85
2, 7344, Note_on_c, 0, 71, 0
2, 7344, Note_on_c, 0, 72, 85
2, 7356, Note_on_c, 0, 72, 0
2, 7356, Note_on_c, 0, 71, 85
2, 7368, Note_on_c, 0, 71, 0
2, 7368, Note_on_c, 0, 69, 85
2, 7380, Note_on_c, 0, 69, 0
2, 7380, Note_on_c, 0, 71, 85
2, 7392, Note_on_c, 0, 71, 0
2, 7392, Note_on_c, 0, 72, 85
2, 7481, Note_on_c, 0, 72, 0
2, 7488, Note_on_c, 0, 83, 85
2, 7511, Note_on_c, 0, 83, 0
2, 7512, Note_on_c, 0, 81, 85
2, 7535, Note_on_c, 0, 81, 0
2, 7536, Note_on_c, 0, 79, 85
2, 7559, Note_on_c, 0, 79, 0
2, 7560, Note_on_c, 0, 77, 85
2, 7583, Note_on_c, 0, 77, 0
2, 7584, Note_on_c, 0, 76, 85
2, 7692, Note_on_c, 0, 76, 0
2, 7692, Note_on_c, 0, 74, 85
2, 7704, Note_on_c, 0, 74, 0
2, 7704, Note_on_c, 0, 76, 85
2, 7716, Note_on_c, 0, 76, 0
2, 7716, Note_on_c, 0, 74, 85
2, 7728, Note_on_c, 0, 74, 0
2, 7728, Note_on_c, 0, 76, 85
2, 7740, Note_on_c, 0, 76, 0
2, 7740, Note_on_c, 0, 74, 85
2, 7752, Note_on_c, 0, 74, 0
2, 7752, Note_on_c, 0, 72, 85
2, 7764, Note_on_c, 0, 72, 0
2, 7764, Note_on_c, 0, 74, 85
2, 7776, Note_on_c, 0, 74, 0
2, 7776, Note_on_c, 0, 72, 85
2, 7865, Note_on_c, 0, 72, 0
2, 8064, Note_on_c, 0, 79, 85
2, 8153, Note_on_c, 0, 79, 0
2, 8160, Note_on_c, 0, 72, 85
2, 8190, Note_on_c, 0, 72, 0
2, 8192, Note_on_c, 0, 76, 85
2, 8222, Note_on_c, 0, 76, 0
2, 8224, Note_on_c, 0, 79, 85
2, 8254, Note_on_c, 0, 79, 0
2, 8256, Note_on_c, 0, 76, 85
2, 8286, Note_on_c, 0, 76, 0
2, 8288, Note_on_c, 0, 79, 85
2, 8318, Note_on_c, 0, 79, 0
2, 8320, Note_on_c, 0, 82, 85
2, 8350, Note_on_c, 0, 82, 0
2, 8352, Note_on_c, 0, 82, 85
2, 8441, Note_on_c, 0, 82, 0
2, 8448, Note_on_c, 0, 81, 85
2, 8537, Note_on_c, 0, 81, 0
2, 8544, Note_on_c, 0, 79, 85
2, 8633, Note_on_c, 0, 79, 0
2, 8640, Note_on_c, 0, 77, 85
2, 8670, Note_on_c, 0, 77, 0
2, 8672, Note_on_c, 0, 76, 85
2, 8702, Note_on_c, 0, 76, 0
2, 8704, Note_on_c, 0, 77, 85
2, 8734, Note_on_c, 0, 77, 0
2, 8736, Note_on_c, 0, 81, 85
2, 8766, Note_on_c, 0, 81, 0
2, 8768, Note_on_c, 0, 79, 85
2, 8798, Note_on_c, 0, 79, 0
2, 8800, Note_on_c, 0, 77, 85
2, 8830, Note_on_c, 0, 77, 0
2, 8832, Note_on_c, 0, 76, 85
2, 8862, Note_on_c, 0, 76, 0
2, 8864, Note_on_c, 0, 74, 85
2, 8894, Note_on_c, 0, 74, 0
2, 8896, Note_on_c, 0, 72, 85
2, 8926, Note_on_c, 0, 72, 0
2, 8928, Note_on_c, 0, 72, 85
2, 9105, Note_on_c, 0, 72, 0
2, 9120, Note_on_c, 0, 71, 85
2, 9209, Note_on_c, 0, 71, 0
2, 9216, Note_on_c, 0, 74, 85
2, 9228, Note_on_c, 0, 74, 0
2, 9228, Note_on_c, 0, 72, 85
2, 9240, Note_on_c, 0, 72, 0
2, 9240, Note_on_c, 0, 71, 85
2, 9252, Note_on_c, 0, 71, 0
2, 9252, Note_on_c, 0, 72, 85
2, 9309, Note_on_c, 0, 72, 0
2, 9312, Note_on_c, 0, 67, 85
2, 9342, Note_on_c, 0, 67, 0
2, 9344, Note_on_c, 0, 72, 85
2, 9374, Note_on_c, 0, 72, 0
2, 9376, Note_on_c, 0, 76, 85
2, 9406, Note_on_c, 0, 76, 0
2, 9408, Note_on_c, 0, 74, 85
2, 9438, Note_on_c, 0, 74, 0
2, 9440, Note_on_c, 0, 72, 85
2, 9470, Note_on_c, 0, 72, 0
2, 9472, Note_on_c, 0, 71, 85
2, 9502, Note_on_c, 0, 71, 0
2, 9504, Note_on_c, 0, 72, 85
2, 9593, Note_on_c, 0, 72, 0
2, 9600, Note_on_c, 0, 67, 85
2, 9630, Note_on_c, 0, 67, 0
2, 9632, Note_on_c, 0, 72, 85
2, 9662, Note_on_c, 0, 72, 0
2, 9664, Note_on_c, 0, 76, 85
2, 9694, Note_on_c, 0, 76, 0
2, 9696, Note_on_c, 0, 74, 85
2, 9726, Note_on_c, 0, 74, 0
2, 9728, Note_on_c, 0, 72, 85
2, 9758, Note_on_c, 0, 72, 0
2, 9760, Note_on_c, 0, 71, 85
2, 9790, Note_on_c, 0, 71, 0
2, 9792, Note_on_c, 0, 72, 85
2, 9881, Note_on_c, 0, 72, 0
2, 9888, Note_on_c, 0, 79, 85
2, 9918, Note_on_c, 0, 79, 0
2, 9920, Note_on_c, 0, 81, 85
2, 9950, Note_on_c, 0, 81, 0
2, 9952, Note_on_c, 0, 83, 85
2, 9982, Note_on_c, 0, 83, 0
2, 9984, Note_on_c, 0, 84, 85
2, 10014, Note_on_c, 0, 84, 0
2, 10016, Note_on_c, 0, 79, 85
2, 10046, Note_on_c, 0, 79, 0
2, 10048, Note_on_c, 0, 76, 85
2, 10078, Note_on_c, 0, 76, 0
2, 10080, Note_on_c, 0, 79, 85
2, 10188, Note_on_c, 0, 79, 0
2, 10188, Note_on_c, 0, 77, 85
2, 10200, Note_on_c, 0, 77, 0
2, 10200, Note_on_c, 0, 79, 85
2, 10212, Note_on_c, 0, 79, 0
2, 10212, Note_on_c, 0, 77, 85
2, 10224, Note_on_c, 0, 77, 0
2, 10224, Note_on_c, 0, 79, 85
2, 10236, Note_on_c, 0, 79, 0
2, 10236, Note_on_c, 0, 77, 85
2, 10248, Note_on_c, 0, 77, 0
2, 10248, Note_on_c, 0, 76, 85
2, 10260, Note_on_c, 0, 76, 0
2, 10260, Note_on_c, 0, 77, 85
2, 10272, Note_on_c, 0, 77, 0
2, 10272, Note_on_c, 0, 76, 85
2, 10361, Note_on_c, 0, 76, 0
2, 10368, Note_on_c, 0, 74, 85
2, 10457, Note_on_c, 0, 74, 0
2, 10464, Note_on_c, 0, 81, 85
2, 10494, Note_on_c, 0, 81, 0
2, 10496, Note_on_c, 0, 79, 85
2, 10526, Note_on_c, 0, 79, 0
2, 10528, Note_on_c, 0, 77, 85
2, 10558, Note_on_c, 0, 77, 0
2, 10560, Note_on_c, 0, 76, 85
2, 10590, Note_on_c, 0, 76, 0
2, 10592, Note_on_c, 0, 74, 85
2, 10622, Note_on_c, 0, 74, 0
2, 10624, Note_on_c, 0, 72, 85
2, 10654, Note_on_c, 0, 72, 0
2, 10656, Note_on_c, 0, 72, 85
2, 10764, Note_on_c, 0, 72, 0
2, 10764, Note_on_c, 0, 71, 85
2, 10776, Note_on_c, 0, 71, 0
2, 10776, Note_on_c, 0, 72, 85
2, 10788, Note_on_c, 0, 72, 0
2, 10788, Note_on_c, 0, 71, 85
2, 10800, Note_on_c, 0, 71, 0
2, 10800, Note_on_c, 0, 72, 85
2, 10812, Note_on_c, 0, 72, 0
2, 10812, Note_on_c, 0, 71, 85
2, 10824, Note_on_c, 0, 71, 0
2, 10824, Note_on_c, 0, 69, 85
2, 10836, Note_on_c, 0, 69, 0
2, 10836, Note_on_c, 0, 71, 85
2, 10848, Note_on_c, 0, 71, 0
2, 10848, Note_on_c, 0, 72, 85
2, 10937, Note_on_c, 0, 72, 0
2, 10944, Note_on_c, 0, 83, 85
2, 10967, Note_on_c, 0, 83, 0
2, 10968, Note_on_c, 0, 81, 85
2, 10991, Note_on_c, 0, 81, 0
2, 10992, Note_on_c, 0, 79, 85
2, 11015, Note_on_c, 0, 79, 0
2, 11016, Note_on_c, 0, 77, 85
2, 11039, Note_on_c, 0, 77, 0
2, 11040, Note_on_c, 0, 76, 85
2, 11148, Note_on_c, 0, 76, 0
2, 11148, Note_on_c, 0, 74, 85
2, 11160, Note_on_c, 0, 74, 0
2, 11160, Note_on_c, 0, 76, 85
2, 11172, Note_on_c, 0, 76, 0
2, 11172, Note_on_c, 0, 74, 85
2, 11184, Note_on_c, 0, 74, 0
2, 11184, Note_on_c, 0, 76, 85
2, 11196, Note_on_c, 0, 76, 0
2, 11196, Note_on_c, 0, 74, 85
2, 11208, Note_on_c, 0, 74, 0
2, 11208, Note_on_c, 0, 72, 85
2, 11220, Note_on_c, 0, 72, 0
2, 11220, Note_on_c, 0, 74, 85
2, 11232, Note_on_c, 0, 74, 0
2, 11232, Note_on_c, 0, 72, 85
2, 11321, Note_on_c, 0, 72, 0
2, 11568, Note_on_c, 0, 67, 85
2, 11613, Note_on_c, 0, 67, 0
2, 11616, Note_on_c, 0, 65, 85
2, 11661, Note_on_c, 0, 65, 0
2, 11664, Note_on_c, 0, 63, 85
2, 11709, Note_on_c, 0, 63, 0
2, 11712, Note_on_c, 0, 62, 85
2, 11757, Note_on_c, 0, 62, 0
2, 11760, Note_on_c, 0, 60, 85
2, 11805, Note_on_c, 0, 60, 0
2, 11808, Note_on_c, 0, 60, 85
2, 12000, Note_on_c, 0, 60, 0
2, 12000, Note_on_c, 0, 59, 85
2, 12089, Note_on_c, 0, 59, 0
2, 12144, Note_on_c, 0, 65, 85
2, 12189, Note_on_c, 0, 65, 0
2, 12192, Note_on_c, 0, 63, 85
2, 12237, Note_on_c, 0, 63, 0
2, 12240, Note_on_c, 0, 62, 85
2, 12285, Note_on_c, 0, 62, 0
2, 12288, Note_on_c, 0, 60, 85
2, 12333, Note_on_c, 0, 60, 0
2, 12336, Note_on_c, 0, 59, 85
2, 12381, Note_on_c, 0, 59, 0
2, 12384, Note_on_c, 0, 62, 85
2, 12576, Note_on_c, 0, 62, 0
2, 12576, Note_on_c, 0, 60, 85
2, 12665, Note_on_c, 0, 60, 0
2, 12720, Note_on_c, 0, 67, 85
2, 12765, Note_on_c, 0, 67, 0
2, 12768, Note_on_c, 0, 65, 85
2, 12813, Note_on_c, 0, 65, 0
2, 12816, Note_on_c, 0, 63, 85
2, 12861, Note_on_c, 0, 63, 0
2, 12864, Note_on_c, 0, 62, 85
2, 12909, Note_on_c, 0, 62, 0
2, 12912, Note_on_c, 0, 60, 85
2, 12957, Note_on_c, 0, 60, 0
2, 13008, Note_on_c, 0, 62, 85
2, 13053, Note_on_c, 0, 62, 0
2, 13056, Note_on_c, 0, 65, 85
2, 13101, Note_on_c, 0, 65, 0
2, 13104, Note_on_c, 0, 62, 85
2, 13149, Note_on_c, 0, 62, 0
2, 13152, Note_on_c, 0, 60, 85
2, 13197, Note_on_c, 0, 60, 0
2, 13200, Note_on_c, 0, 59, 85
2, 13245, Note_on_c, 0, 59, 0
2, 13248, Note_on_c, 0, 60, 85
2, 13337, Note_on_c, 0, 60, 0
2, 13344, Note_on_c, 0, 63, 85
2, 13389, Note_on_c, 0, 63, 0
2, 13392, Note_on_c, 0, 62, 85
2, 13437, Note_on_c, 0, 62, 0
2, 13440, Note_on_c, 0, 60, 85
2, 13485, Note_on_c, 0, 60, 0
2, 13488, Note_on_c, 0, 59, 85
2, 13533, Note_on_c, 0, 59, 0
2, 13536, Note_on_c, 0, 60, 85
2, 13625, Note_on_c, 0, 60, 0
2, 13872, Note_on_c, 0, 67, 85
2, 13917, Note_on_c, 0, 67, 0
2, 13920, Note_on_c, 0, 65, 85
2, 13965, Note_on_c, 0, 65, 0
2, 13968, Note_on_c, 0, 63, 85
2, 14013, Note_on_c, 0, 63, 0
2, 14016, Note_on_c, 0, 62, 85
2, 14061, Note_on_c, 0, 62, 0
2, 14064, Note_on_c, 0, 60, 85
2, 14109, Note_on_c, 0, 60, 0
2, 14112, Note_on_c, 0, 60, 85
2, 14304, Note_on_c, 0, 60, 0
2, 14304, Note_on_c, 0, 59, 85
2, 14393, Note_on_c, 0, 59, 0
2, 14448, Note_on_c, 0, 65, 85
2, 14493, Note_on_c, 0, 65, 0
2, 14496, Note_on_c, 0, 63, 85
2, 14541, Note_on_c, 0, 63, 0
2, 14544, Note_on_c, 0, 62, 85
2, 14589, Note_on_c, 0, 62, 0
2, 14592, Note_on_c, 0, 60, 85
2, 14637, Note_on_c, 0, 60, 0
2, 14640, Note_on_c, 0, 59, 85
2, 14685, Note_on_c, 0, 59, 0
2, 14688, Note_on_c, 0, 62, 85
2, 14880, Note_on_c, 0, 62, 0
2, 14880, Note_on_c, 0, 60, 85
2, 14969, Note_on_c, 0, 60, 0
2, 15024, Note_on_c, 0, 67, 85
2, 15069, Note_on_c, 0, 67, 0
2, 15072, Note_on_c, 0, 65, 85
2, 15117, Note_on_c, 0, 65, 0
2, 15120, Note_on_c, 0, 63, 85
2, 15165, Note_on_c, 0, 63, 0
2, 15168, Note_on_c, 0, 62, 85
2, 15213, Note_on_c, 0, 62, 0
2, 15216, Note_on_c, 0, 60, 85
2, 15261, Note_on_c, 0, 60, 0
2, 15312, Note_on_c, 0, 62, 85
2, 15357, Note_on_c, 0, 62, 0
2, 15360, Note_on_c, 0, 65, 85
2, 15405, Note_on_c, 0, 65, 0
2, 15408, Note_on_c, 0, 62, 85
2, 15453, Note_on_c, 0, 62, 0
2, 15456, Note_on_c, 0, 60, 85
2, 15501, Note_on_c, 0, 60, 0
2, 15504, Note_on_c, 0, 59, 85
2, 15549, Note_on_c, 0, 59, 0
2, 15552, Note_on_c, 0, 60, 85
2, 15641, Note_on_c, 0, 60, 0
2, 15648, Note_on_c, 0, 63, 85
2, 15693, Note_on_c, 0, 63, 0
2, 15696, Note_on_c, 0, 62, 85
2, 15741, Note_on_c, 0, 62, 0
2, 15744, Note_on_c, 0, 60, 85
2, 15789, Note_on_c, 0, 60, 0
2, 15792, Note_on_c, 0, 59, 85
2, 15837, Note_on_c, 0, 59, 0
2, 15840, Note_on_c, 0, 60, 85
2, 15929, Note_on_c, 0, 60, 0
2, 16176, Note_on_c, 0, 70, 85
2, 16221, Note_on_c, 0, 70, 0
2, 16224, Note_on_c, 0, 68, 85
2, 16269, Note_on_c, 0, 68, 0
2, 16272, Note_on_c, 0, 67, 85
2, 16317, Note_on_c, 0, 67, 0
2, 16320, Note_on_c, 0, 65, 85
2, 16365, Note_on_c, 0, 65, 0
2, 16368, Note_on_c, 0, 63, 85
2, 16413, Note_on_c, 0, 63, 0
2, 16464, Note_on_c, 0, 72, 85
2, 16509, Note_on_c, 0, 72, 0
2, 16512, Note_on_c, 0, 70, 85
2, 16557, Note_on_c, 0, 70, 0
2, 16560, Note_on_c, 0, 68, 85
2, 16605, Note_on_c, 0, 68, 0
2, 16608, Note_on_c, 0, 67, 85
2, 16653, Note_on_c, 0, 67, 0
2, 16656, Note_on_c, 0, 65, 85
2, 16701, Note_on_c, 0, 65, 0
2, 16752, Note_on_c, 0, 68, 85
2, 16797, Note_on_c, 0, 68, 0
2, 16800, Note_on_c, 0, 67, 85
2, 16845, Note_on_c, 0, 67, 0
2, 16848, Note_on_c, 0, 65, 85
2, 16893, Note_on_c, 0, 65, 0
2, 16896, Note_on_c, 0, 63, 85
2, 16941, Note_on_c, 0, 63, 0
2, 16944, Note_on_c, 0, 62, 85
2, 16989, Note_on_c, 0, 62, 0
2, 17040, Note_on_c, 0, 63, 85
2, 17129, Note_on_c, 0, 63, 0
2, 17136, Note_on_c, 0, 68, 85
2, 17225, Note_on_c, 0, 68, 0
2, 17232, Note_on_c, 0, 67, 85
2, 17277, Note_on_c, 0, 67, 0
2, 17328, Note_on_c, 0, 65, 85
2, 17417, Note_on_c, 0, 65, 0
2, 17424, Note_on_c, 0, 72, 85
2, 17513, Note_on_c, 0, 72, 0
2, 17520, Note_on_c, 0, 70, 85
2, 17613, Note_on_c, 0, 70, 0
2, 17616, Note_on_c, 0, 68, 85
2, 17705, Note_on_c, 0, 68, 0
2, 17712, Note_on_c, 0, 67, 85
2, 17801, Note_on_c, 0, 67, 0
2, 17808, Note_on_c, 0, 65, 85
2, 17853, Note_on_c, 0, 65, 0
2, 17856, Note_on_c, 0, 65, 85
2, 17945, Note_on_c, 0, 65, 0
2, 17952, Note_on_c, 0, 63, 85
2, 18041, Note_on_c, 0, 63, 0
2, 18192, Note_on_c, 0, 67, 85
2, 18237, Note_on_c, 0, 67, 0
2, 18240, Note_on_c, 0, 65, 85
2, 18285, Note_on_c, 0, 65, 0
2, 18288, Note_on_c, 0, 63, 85
2, 18333, Note_on_c, 0, 63, 0
2, 18336, Note_on_c, 0, 62, 85
2, 18381, Note_on_c, 0, 62, 0
2, 18384, Note_on_c, 0, 60, 85
2, 18429, Note_on_c, 0, 60, 0
2, 18432, Note_on_c, 0, 60, 85
2, 18624, Note_on_c, 0, 60, 0
2, 18624, Note_on_c, 0, 59, 85
2, 18713, Note_on_c, 0, 59, 0
2, 18768, Note_on_c, 0, 65, 85
2, 18813, Note_on_c, 0, 65, 0
2, 18816, Note_on_c, 0, 63, 85
2, 18861, Note_on_c, 0, 63, 0
2, 18864, Note_on_c, 0, 62, 85
2, 18909, Note_on_c, 0, 62, 0
2, 18912, Note_on_c, 0, 60, 85
2, 18957, Note_on_c, 0, 60, 0
2, 18960, Note_on_c, 0, 59, 85
2, 19005, Note_on_c, 0, 59, 0
2, 19008, Note_on_c, 0, 62, 85
2, 19200, Note_on_c, 0, 62, 0
2, 19200, Note_on_c, 0, 60, 85
2, 19289, Note_on_c, 0, 60, 0
2, 19344, Note_on_c, 0, 67, 85
2, 19389, Note_on_c, 0, 67, 0
2, 19392, Note_on_c, 0, 65, 85
2, 19437, Note_on_c, 0, 65, 0
2, 19440, Note_on_c, 0, 63, 85
2, 19485, Note_on_c, 0, 63, 0
2, 19488, Note_on_c, 0, 62, 85
2, 19533, Note_on_c, 0, 62, 0
2, 19536, Note_on_c, 0, 60, 85
2, 19581, Note_on_c, 0, 60, 0
2, 19632, Note_on_c, 0, 62, 85
2, 19677, Note_on_c, 0, 62, 0
2, 19680, Note_on_c, 0, 65, 85
2, 19725, Note_on_c, 0, 65, 0
2, 19728, Note_on_c, 0, 62, 85
2, 19773, Note_on_c, 0, 62, 0
2, 19776, Note_on_c, 0, 60, 85
2, 19821, Note_on_c, 0, 60, 0
2, 19824, Note_on_c, 0, 59, 85
2, 19869, Note_on_c, 0, 59, 0
2, 19872, Note_on_c, 0, 60, 85
2, 19961, Note_on_c, 0, 60, 0
2, 19968, Note_on_c, 0, 63, 85
2, 20013, Note_on_c, 0, 63, 0
2, 20016, Note_on_c, 0, 62, 85
2, 20061, Note_on_c, 0, 62, 0
2, 20064, Note_on_c, 0, 60, 85
2, 20109, Note_on_c, 0, 60, 0
2, 20112, Note_on_c, 0, 59, 85
2, 20157, Note_on_c, 0, 59, 0
2, 20160, Note_on_c, 0, 60, 85
2, 20249, Note_on_c, 0, 60, 0
2, 20496, Note_on_c, 0, 70, 85
2, 20541, Note_on_c, 0, 70, 0
2, 20544, Note_on_c, 0, 68, 85
2, 20589, Note_on_c, 0, 68, 0
2, 20592, Note_on_c, 0, 67, 85
2, 20637, Note_on_c, 0, 67, 0
2, 20640, Note_on_c, 0, 65, 85
2, 20685, Note_on_c, 0, 65, 0
2, 20688, Note_on_c, 0, 63, 85
2, 20733, Note_on_c, 0, 63, 0
2, 20784, Note_on_c, 0, 72, 85
2, 20829, Note_on_c, 0, 72, 0
2, 20832, Note_on_c, 0, 70, 85
2, 20877, Note_on_c, 0, 70, 0
2, 20880, Note_on_c, 0, 68, 85
2, 20925, Note_on_c, 0, 68, 0
2, 20928, Note_on_c, 0, 67, 85
2, 20973, Note_on_c, 0, 67, 0
2, 20976, Note_on_c, 0, 65, 85
2, 21021, Note_on_c, 0, 65, 0
2, 21072, Note_on_c, 0, 68, 85
2, 21117, Note_on_c, 0, 68, 0
2, 21120, Note_on_c, 0, 67, 85
2, 21165, Note_on_c, 0, 67, 0
2, 21168, Note_on_c, 0, 65, 85
2, 21213, Note_on_c, 0, 65, 0
2, 21216, Note_on_c, 0, 63, 85
2, 21261, Note_on_c, 0, 63, 0
2, 21264, Note_on_c, 0, 62, 85
2, 21309, Note_on_c, 0, 62, 0
2, 21360, Note_on_c, 0, 63, 85
2, 21449, Note_on_c, 0, 63, 0
2, 21456, Note_on_c, 0, 68, 85
2, 21545, Note_on_c, 0, 68, 0
2, 21552, Note_on_c, 0, 67, 85
2, 21597, Note_on_c, 0, 67, 0
2, 21648, Note_on_c, 0, 65, 85
2, 21737, Note_on_c, 0, 65, 0
2, 21744, Note_on_c, 0, 72, 85
2, 21833, Note_on_c, 0, 72, 0
2, 21840, Note_on_c, 0, 70, 85
2, 21933, Note_on_c, 0, 70, 0
2, 21936, Note_on_c, 0, 68, 85
2, 22025, Note_on_c, 0, 68, 0
2, 22032, Note_on_c, 0, 67, 85
2, 22121, Note_on_c, 0, 67, 0
2, 22128, Note_on_c, 0, 65, 85
2, 22173, Note_on_c, 0, 65, 0
2, 22176, Note_on_c, 0, 65, 85
2, 22265, Note_on_c, 0, 65, 0
2, 22272, Note_on_c, 0, 63, 85
2, 22361, Note_on_c, 0, 63, 0
2, 22512, Note_on_c, 0, 67, 85
2, 22557, Note_on_c, 0, 67, 0
2, 22560, Note_on_c, 0, 65, 85
2, 22605, Note_on_c, 0, 65, 0
2, 22608, Note_on_c, 0, 63, 85
2, 22653, Note_on_c, 0, 63, 0
2, 22656, Note_on_c, 0, 62, 85
2, 22701, Note_on_c, 0, 62, 0
2, 22704, Note_on_c, 0, 60, 85
2, 22749, Note_on_c, 0, 60, 0
2, 22752, Note_on_c, 0, 60, 85
2, 22944, Note_on_c, 0, 60, 0
2, 22944, Note_on_c, 0, 59, 85
2, 23033, Note_on_c, 0, 59, 0
2, 23088, Note_on_c, 0, 65, 85
2, 23133, Note_on_c, 0, 65, 0
2, 23136, Note_on_c, 0, 63, 85
2, 23181, Note_on_c, 0, 63, 0
2, 23184, Note_on_c, 0, 62, 85
2, 23229, Note_on_c, 0, 62, 0
2, 23232, Note_on_c, 0, 60, 85
2, 23277, Note_on_c, 0, 60, 0
2, 23280, Note_on_c, 0, 59, 85
2, 23325, Note_on_c, 0, 59, 0
2, 23328, Note_on_c, 0, 62, 85
2, 23520, Note_on_c, 0, 62, 0
2, 23520, Note_on_c, 0, 60, 85
2, 23609, Note_on_c, 0, 60, 0
2, 23664, Note_on_c, 0, 67, 85
2, 23709, Note_on_c, 0, 67, 0
2, 23712, Note_on_c, 0, 65, 85
2, 23757, Note_on_c, 0, 65, 0
2, 23760, Note_on_c, 0, 63, 85
2, 23805, Note_on_c, 0, 63, 0
2, 23808, Note_on_c, 0, 62, 85
2, 23853, Note_on_c, 0, 62, 0
2, 23856, Note_on_c, 0, 60, 85
2, 23901, Note_on_c, 0, 60, 0
2, 23952, Note_on_c, 0, 62, 85
2, 23997, Note_on_c, 0, 62, 0
2, 24000, Note_on_c, 0, 65, 85
2, 24045, Note_on_c, 0, 65, 0
2, 24048, Note_on_c, 0, 62, 85
2, 24093, Note_on_c, 0, 62, 0
2, 24096, Note_on_c, 0, 60, 85
2, 24141, Note_on_c, 0, 60, 0
2, 24144, Note_on_c, 0, 59, 85
2, 24189, Note_on_c, 0, 59, 0
2, 24192, Note_on_c, 0, 60, 85
2, 24281, Note_on_c, 0, 60, 0
2, 24288, Note_on_c, 0, 63, 85
2, 24333, Note_on_c, 0, 63, 0
2, 24336, Note_on_c, 0, 62, 85
2, 24381, Note_on_c, 0, 62, 0
2, 24384, Note_on_c, 0, 60, 85
2, 24429, Note_on_c, 0, 60, 0
2, 24432, Note_on_c, 0, 59, 85
2, 24477, Note_on_c, 0, 59, 0
2, 24480, Note_on_c, 0, 60, 85
2, 24569, Note_on_c, 0, 60, 0
2, 24768, Note_on_c, 0, 74, 85
2, 24780, Note_on_c, 0, 74, 0
2, 24780, Note_on_c, 0, 72, 85
2, 24792, Note_on_c, 0, 72, 0
2, 24792, Note_on_c, 0, 71, 85
2, 24804, Note_on_c, 0, 71, 0
2, 24804, Note_on_c, 0, 72, 85
2, 24861, Note_on_c, 0, 72, 0
2, 24864, Note_on_c, 0, 67, 85
2, 24894, Note_on_c, 0, 67, 0
2, 24896, Note_on_c, 0, 72, 85
2, 24926, Note_on_c, 0, 72, 0
2, 24928, Note_on_c, 0, 76, 85
2, 24958, Note_on_c, 0, 76, 0
2, 24960, Note_on_c, 0, 74, 85
2, 24990, Note_on_c, 0, 74, 0
2, 24992, Note_on_c, 0, 72, 85
2, 25022, Note_on_c, 0, 72, 0
2, 25024, Note_on_c, 0, 71, 85
2, 25054, Note_on_c, 0, 71, 0
2, 25056, Note_on_c, 0, 72, 85
2, 25145, Note_on_c, 0, 72, 0
2, 25152, Note_on_c, 0, 67, 85
2, 25182, Note_on_c, 0, 67, 0
2, 25184, Note_on_c, 0, 72, 85
2, 25214, Note_on_c, 0, 72, 0
2, 25216, Note_on_c, 0, 76, 85
2, 25246, Note_on_c, 0, 76, 0
2, 25248, Note_on_c, 0, 74, 85
2, 25278, Note_on_c, 0, 74, 0
2, 25280, Note_on_c, 0, 72, 85
2, 25310, Note_on_c, 0, 72, 0
2, 25312, Note_on_c, 0, 71, 85
2, 25342, Note_on_c, 0, 71, 0
2, 25344, Note_on_c, 0, 72, 85
2, 25433, Note_on_c, 0, 72, 0
2, 25440, Note_on_c, 0, 79, 85
2, 25470, Note_on_c, 0, 79, 0
2, 25472, Note_on_c, 0, 81, 85
2, 25502, Note_on_c, 0, 81, 0
2, 25504, Note_on_c, 0, 83, 85
2, 25534, Note_on_c, 0, 83, 0
2, 25536, Note_on_c, 0, 84, 85
2, 25566, Note_on_c, 0, 84, 0
2, 25568, Note_on_c, 0, 79, 85
2, 25598, Note_on_c, 0, 79, 0
2, 25600, Note_on_c, 0, 76, 85
2, 25630, Note_on_c, 0, 76, 0
2, 25632, Note_on_c, 0, 79, 85
2, 25740, Note_on_c, 0, 79, 0
2, 25740, Note_on_c, 0, 77, 85
2, 25752, Note_on_c, 0, 77, 0
2, 25752, Note_on_c, 0, 79, 85
2, 25764, Note_on_c, 0, 79, 0
2, 25764, Note_on_c, 0, 77, 85
2, 25776, Note_on_c, 0, 77, 0
2, 25776, Note_on_c, 0, 79, 85
2, 25788, Note_on_c, 0, 79, 0
2, 25788, Note_on_c, 0, 77, 85
2, 25800, Note_on_c, 0, 77, 0
2, 25800, Note_on_c, 0, 76, 85
2, 25812, Note_on_c, 0, 76, 0
2, 25812, Note_on_c, 0, 77, 85
2, 25824, Note_on_c, 0, 77, 0
2, 25824, Note_on_c, 0, 76, 85
2, 25913, Note_on_c, 0, 76, 0
2, 25920, Note_on_c, 0, 74, 85
2, 26009, Note_on_c, 0, 74, 0
2, 26016, Note_on_c, 0, 81, 85
2, 26046, Note_on_c, 0, 81, 0
2, 26048, Note_on_c, 0, 79, 85
2, 26078, Note_on_c, 0, 79, 0
2, 26080, Note_on_c, 0, 77, 85
2, 26110, Note_on_c, 0, 77, 0
2, 26112, Note_on_c, 0, 76, 85
2, 26142, Note_on_c, 0, 76, 0
2, 26144, Note_on_c, 0, 74, 85
2, 26174, Note_on_c, 0, 74, 0
2, 26176, Note_on_c, 0, 72, 85
2, 26206, Note_on_c, 0, 72, 0
2, 26208, Note_on_c, 0, 72, 85
2, 26316, Note_on_c, 0, 72, 0
2, 26316, Note_on_c, 0, 71, 85
2, 26328, Note_on_c, 0, 71, 0
2, 26328, Note_on_c, 0, 72, 85
2, 26340, Note_on_c, 0, 72, 0
2, 26340, Note_on_c, 0, 71, 85
2, 26352, Note_on_c, 0, 71, 0
2, 26352, Note_on_c, 0, 72, 85
2, 26364, Note_on_c, 0, 72, 0
2, 26364, Note_on_c, 0, 71, 85
2, 26376, Note_on_c, 0, 71, 0
2, 26376, Note_on_c, 0, 69, 85
2, 26388, Note_on_c, 0, 69, 0
2, 26388, Note_on_c, 0, 71, 85
2, 26400, Note_on_c, 0, 71, 0
2, 26400, Note_on_c, 0, 72, 85
2, 26489, Note_on_c, 0, 72, 0
2, 26496, Note_on_c, 0, 67, 85
2, 26585, Note_on_c, 0, 67, 0
2, 26592, Note_on_c, 0, 77, 85
2, 26592, Note_on_c, 0, 74, 85
2, 26681, Note_on_c, 0, 77, 0
2, 26681, Note_on_c, 0, 74, 0
2, 26688, Note_on_c, 0, 76, 85
2, 26688, Note_on_c, 0, 72, 85
2, 26777, Note_on_c, 0, 76, 0
2, 26777, Note_on_c, 0, 72, 0
2, 26784, Note_on_c, 0, 76, 85
2, 26784, Note_on_c, 0, 72, 85
2, 26873, Note_on_c, 0, 76, 0
2, 26873, Note_on_c, 0, 72, 0
2, 26880, Note_on_c, 0, 74, 85
2, 26880, Note_on_c, 0, 71, 85
2, 26969, Note_on_c, 0, 74, 0
2, 26969, Note_on_c, 0, 71, 0
2, 27072, Note_on_c, 0, 74, 85
2, 27084, Note_on_c, 0, 74, 0
2, 27084, Note_on_c, 0, 72, 85
2, 27096, Note_on_c, 0, 72, 0
2, 27096, Note_on_c, 0, 71, 85
2, 27108, Note_on_c, 0, 71, 0
2, 27108, Note_on_c, 0, 72, 85
2, 27165, Note_on_c, 0, 72, 0
2, 27168, Note_on_c, 0, 67, 85
2, 27198, Note_on_c, 0, 67, 0
2, 27200, Note_on_c, 0, 72, 85
2, 27230, Note_on_c, 0, 72, 0
2, 27232, Note_on_c, 0, 76, 85
2, 27262, Note_on_c, 0, 76, 0
2, 27264, Note_on_c, 0, 74, 85
2, 27294, Note_on_c, 0, 74, 0
2, 27296, Note_on_c, 0, 72, 85
2, 27326, Note_on_c, 0, 72, 0
2, 27328, Note_on_c, 0, 71, 85
2, 27358, Note_on_c, 0, 71, 0
2, 27360, Note_on_c, 0, 72, 85
2, 27449, Note_on_c, 0, 72, 0
2, 27456, Note_on_c, 0, 67, 85
2, 27486, Note_on_c, 0, 67, 0
2, 27488, Note_on_c, 0, 72, 85
2, 27518, Note_on_c, 0, 72, 0
2, 27520, Note_on_c, 0, 76, 85
2, 27550, Note_on_c, 0, 76, 0
2, 27552, Note_on_c, 0, 74, 85
2, 27582, Note_on_c, 0, 74, 0
2, 27584, Note_on_c, 0, 72, 85
2, 27614, Note_on_c, 0, 72, 0
2, 27616, Note_on_c, 0, 71, 85
2, 27646, Note_on_c, 0, 71, 0
2, 27648, Note_on_c, 0, 72, 85
2, 27737, Note_on_c, 0, 72, 0
2, 27744, Note_on_c, 0, 79, 85
2, 27774, Note_on_c, 0, 79, 0
2, 27776, Note_on_c, 0, 81, 85
2, 27806, Note_on_c, 0, 81, 0
2, 27808, Note_on_c, 0, 83, 85
2, 27838, Note_on_c, 0, 83, 0
2, 27840, Note_on_c, 0, 84, 85
2, 27870, Note_on_c, 0, 84, 0
2, 27872, Note_on_c, 0, 79, 85
2, 27902, Note_on_c, 0, 79, 0
2, 27904, Note_on_c, 0, 76, 85
2, 27934, Note_on_c, 0, 76, 0
2, 27936, Note_on_c, 0, 79, 85
2, 28044, Note_on_c, 0, 79, 0
2, 28044, Note_on_c, 0, 77, 85
2, 28056, Note_on_c, 0, 77, 0
2, 28056, Note_on_c, 0, 79, 85
2, 28068, Note_on_c, 0, 79, 0
2, 28068, Note_on_c, 0, 77, 85
2, 28080, Note_on_c, 0, 77, 0
2, 28080, Note_on_c, 0, 79, 85
2, 28092, Note_on_c, 0, 79, 0
2, 28092, Note_on_c, 0, 77, 85
2, 28104, Note_on_c, 0, 77, 0
2, 28104, Note_on_c, 0, 76, 85
2, 28116, Note_on_c, 0, 76, 0
2, 28116, Note_on_c, 0, 77, 85
2, 28128, Note_on_c, 0, 77, 0
2, 28128, Note_on_c, 0, 76, 85
2, 28217, Note_on_c, 0, 76, 0
2, 28224, Note_on_c, 0, 74, 85
2, 28313, Note_on_c, 0, 74, 0
2, 28320, Note_on_c, 0, 81, 85
2, 28350, Note_on_c, 0, 81, 0
2, 28352, Note_on_c, 0, 79, 85
2, 28382, Note_on_c, 0, 79, 0
2, 28384, Note_on_c, 0, 77, 85
2, 28414, Note_on_c, 0, 77, 0
2, 28416, Note_on_c, 0, 76, 85
2, 28446, Note_on_c, 0, 76, 0
2, 28448, Note_on_c, 0, 74, 85
2, 28478, Note_on_c, 0, 74, 0
2, 28480, Note_on_c, 0, 72, 85
2, 28510, Note_on_c, 0, 72, 0
2, 28512, Note_on_c, 0, 72, 85
2, 28620, Note_on_c, 0, 72, 0
2, 28620, Note_on_c, 0, 71, 85
2, 28632, Note_on_c, 0, 71, 0
2, 28632, Note_on_c, 0, 72, 85
2, 28644, Note_on_c, 0, 72, 0
2, 28644, Note_on_c, 0, 71, 85
2, 28656, Note_on_c, 0, 71, 0
2, 28656, Note_on_c, 0, 72, 85
2, 28668, Note_on_c, 0, 72, 0
2, 28668, Note_on_c, 0, 71, 85
2, 28680, Note_on_c, 0, 71, 0
2, 28680, Note_on_c, 0, 69, 85
2, 28692, Note_on_c, 0, 69, 0
2, 28692, Note_on_c, 0, 71, 85
2, 28704, Note_on_c, 0, 71, 0
2, 28704, Note_on_c, 0, 72, 85
2, 28793, Note_on_c, 0, 72, 0
2, 28800, Note_on_c, 0, 67, 85
2, 28889, Note_on_c, 0, 67, 0
2, 28896, Note_on_c, 0, 77, 85
2, 28896, Note_on_c, 0, 74, 85
2, 28985, Note_on_c, 0, 77, 0
2, 28985, Note_on_c, 0, 74, 0
2, 28992, Note_on_c, 0, 76, 85
2, 28992, Note_on_c, 0, 72, 85
2, 29081, Note_on_c, 0, 76, 0
2, 29081, Note_on_c, 0, 72, 0
2, 29088, Note_on_c, 0, 76, 85
2, 29088, Note_on_c, 0, 72, 85
2, 29177, Note_on_c, 0, 76, 0
2, 29177, Note_on_c, 0, 72, 0
2, 29184, Note_on_c, 0, 74, 85
2, 29184, Note_on_c, 0, 71, 85
2, 29273, Note_on_c, 0, 74, 0
2, 29273, Note_on_c, 0, 71, 0
2, 29376, Note_on_c, 0, 79, 85
2, 29465, Note_on_c, 0, 79, 0
2, 29472, Note_on_c, 0, 72, 85
2, 29502, Note_on_c, 0, 72, 0
2, 29504, Note_on_c, 0, 76, 85
2, 29534, Note_on_c, 0, 76, 0
2, 29536, Note_on_c, 0, 79, 85
2, 29566, Note_on_c, 0, 79, 0
2, 29568, Note_on_c, 0, 76, 85
2, 29598, Note_on_c, 0, 76, 0
2, 29600, Note_on_c, 0, 79, 85
2, 29630, Note_on_c, 0, 79, 0
2, 29632, Note_on_c, 0, 82, 85
2, 29662, Note_on_c, 0, 82, 0
2, 29664, Note_on_c, 0, 82, 85
2, 29753, Note_on_c, 0, 82, 0
2, 29760, Note_on_c, 0, 81, 85
2, 29849, Note_on_c, 0, 81, 0
2, 29856, Note_on_c, 0, 79, 85
2, 29945, Note_on_c, 0, 79, 0
2, 29952, Note_on_c, 0, 77, 85
2, 29982, Note_on_c, 0, 77, 0
2, 29984, Note_on_c, 0, 76, 85
2, 30014, Note_on_c, 0, 76, 0
2, 30016, Note_on_c, 0, 77, 85
2, 30046, Note_on_c, 0, 77, 0
2, 30048, Note_on_c, 0, 81, 85
2, 30078, Note_on_c, 0, 81, 0
2, 30080, Note_on_c, 0, 79, 85
2, 30110, Note_on_c, 0, 79, 0
2, 30112, Note_on_c, 0, 77, 85
2, 30142, Note_on_c, 0, 77, 0
2, 30144, Note_on_c, 0, 76, 85
2, 30174, Note_on_c, 0, 76, 0
2, 30176, Note_on_c, 0, 74, 85
2, 30206, Note_on_c, 0, 74, 0
2, 30208, Note_on_c, 0, 72, 85
2, 30238, Note_on_c, 0, 72, 0
2, 30240, Note_on_c, 0, 72, 85
2, 30417, Note_on_c, 0, 72, 0
2, 30432, Note_on_c, 0, 71, 85
2, 30521, Note_on_c, 0, 71, 0
2, 30528, Note_on_c, 0, 74, 85
2, 30540, Note_on_c, 0, 74, 0
2, 30540, Note_on_c, 0, 72, 85
2, 30552, Note_on_c, 0, 72, 0
2, 30552, Note_on_c, 0, 71, 85
2, 30564, Note_on_c, 0, 71, 0
2, 30564, Note_on_c, 0, 72, 85
2, 30621, Note_on_c, 0, 72, 0
2, 30624, Note_on_c, 0, 67, 85
2, 30654, Note_on_c, 0, 67, 0
2, 30656, Note_on_c, 0, 72, 85
2, 30686, Note_on_c, 0, 72, 0
2, 30688, Note_on_c, 0, 76, 85
2, 30718, Note_on_c, 0, 76, 0
2, 30720, Note_on_c, 0, 74, 85
2, 30750, Note_on_c, 0, 74, 0
2, 30752, Note_on_c, 0, 72, 85
2, 30782, Note_on_c, 0, 72, 0
2, 30784, Note_on_c, 0, 71, 85
2, 30814, Note_on_c, 0, 71, 0
2, 30816, Note_on_c, 0, 72, 85
2, 30905, Note_on_c, 0, 72, 0
2, 30912, Note_on_c, 0, 67, 85
2, 30942, Note_on_c, 0, 67, 0
2, 30944, Note_on_c, 0, 72, 85
2, 30974, Note_on_c, 0, 72, 0
2, 30976, Note_on_c, 0, 76, 85
2, 31006, Note_on_c, 0, 76, 0
2, 31008, Note_on_c, 0, 74, 85
2, 31038, Note_on_c, 0, 74, 0
2, 31040, Note_on_c, 0, 72, 85
2, 31070, Note_on_c, 0, 72, 0
2, 31072, Note_on_c, 0, 71, 85
2, 31102, Note_on_c, 0, 71, 0
2, 31104, Note_on_c, 0, 72, 85
2, 31193, Note_on_c, 0, 72, 0
2, 31200, Note_on_c, 0, 79, 85
2, 31230, Note_on_c, 0, 79, 0
2, 31232, Note_on_c, 0, 81, 85
2, 31262, Note_on_c, 0, 81, 0
2, 31264, Note_on_c, 0, 83, 85
2, 31294, Note_on_c, 0, 83, 0
2, 31296, Note_on_c, 0, 84, 85
2, 31326, Note_on_c, 0, 84, 0
2, 31328, Note_on_c, 0, 79, 85
2, 31358, Note_on_c, 0, 79, 0
2, 31360, Note_on_c, 0, 76, 85
2, 31390, Note_on_c, 0, 76, 0
2, 31392, Note_on_c, 0, 79, 85
2, 31500, Note_on_c, 0, 79, 0
2, 31500, Note_on_c, 0, 77, 85
2, 31512, Note_on_c, 0, 77, 0
2, 31512, Note_on_c, 0, 79, 85
2, 31524, Note_on_c, 0, 79, 0
2, 31524, Note_on_c, 0, 77, 85
2, 31536, Note_on_c, 0, 77, 0
2, 31536, Note_on_c, 0, 79, 85
2, 31548, Note_on_c, 0, 79, 0
2, 31548, Note_on_c, 0, 77, 85
2, 31560, Note_on_c, 0, 77, 0
2, 31560, Note_on_c, 0, 76, 85
2, 31572, Note_on_c, 0, 76, 0
2, 31572, Note_on_c, 0, 77, 85
2, 31584, Note_on_c, 0, 77, 0
2, 31584, Note_on_c, 0, 76, 85
2, 31673, Note_on_c, 0, 76, 0
2, 31680, Note_on_c, 0, 74, 85
2, 31769, Note_on_c, 0, 74, 0
2, 31776, Note_on_c, 0, 81, 85
2, 31806, Note_on_c, 0, 81, 0
2, 31808, Note_on_c, 0, 79, 85
2, 31838, Note_on_c, 0, 79, 0
2, 31840, Note_on_c, 0, 77, 85
2, 31870, Note_on_c, 0, 77, 0
2, 31872, Note_on_c, 0, 76, 85
2, 31902, Note_on_c, 0, 76, 0
2, 31904, Note_on_c, 0, 74, 85
2, 31934, Note_on_c, 0, 74, 0
2, 31936, Note_on_c, 0, 72, 85
2, 31966, Note_on_c, 0, 72, 0
2, 31968, Note_on_c, 0, 72, 85
2, 32076, Note_on_c, 0, 72, 0
2, 32076, Note_on_c, 0, 71, 85
2, 32088, Note_on_c, 0, 71, 0
2, 32088, Note_on_c, 0, 72, 85
2, 32100, Note_on_c, 0, 72, 0
2, 32100, Note_on_c, 0, 71, 85
2, 32112, Note_on_c, 0, 71, 0
2, 32112, Note_on_c, 0, 72, 85
2, 32124, Note_on_c, 0, 72, 0
2, 32124, Note_on_c, 0, 71, 85
2, 32136, Note_on_c, 0, 71, 0
2, 32136, Note_on_c, 0, 69, 85
2, 32148, Note_on_c, 0, 69, 0
2, 32148, Note_on_c, 0, 71, 85
2, 32160, Note_on_c, 0, 71, 0
2, 32160, Note_on_c, 0, 72, 85
2, 32249, Note_on_c, 0, 72, 0
2, 32256, Note_on_c, 0, 83, 85
2, 32279, Note_on_c, 0, 83, 0
2, 32280, Note_on_c, 0, 81, 85
2, 32303, Note_on_c, 0, 81, 0
2, 32304, Note_on_c, 0, 79, 85
2, 32327, Note_on_c, 0, 79, 0
2, 32328, Note_on_c, 0, 77, 85
2, 32351, Note_on_c, 0, 77, 0
2, 32352, Note_on_c, 0, 76, 85
2, 32460, Note_on_c, 0, 76, 0
2, 32460, Note_on_c, 0, 74, 85
2, 32472, Note_on_c, 0, 74, 0
2, 32472, Note_on_c, 0, 76, 85
2, 32484, Note_on_c, 0, 76, 0
2, 32484, Note_on_c, 0, 74, 85
2, 32496, Note_on_c, 0, 74, 0
2, 32496, Note_on_c, 0, 76, 85
2, 32508, Note_on_c, 0, 76, 0
2, 32508, Note_on_c, 0, 74, 85
2, 32520, Note_on_c, 0, 74, 0
2, 32520, Note_on_c, 0, 72, 85
2, 32532, Note_on_c, 0, 72, 0
2, 32532, Note_on_c, 0, 74, 85
2, 32544, Note_on_c, 0, 74, 0
2, 32544, Note_on_c, 0, 72, 85
2, 32633, Note_on_c, 0, 72, 0
2, 32832, Note_on_c, 0, 79, 85
2, 32921, Note_on_c, 0, 79, 0
2, 32928, Note_on_c, 0, 72, 85
2, 32958, Note_on_c, 0, 72, 0
2, 32960, Note_on_c, 0, 76, 85
2, 32990, Note_on_c, 0, 76, 0
2, 32992, Note_on_c, 0, 79, 85
2, 33022, Note_on_c, 0, 79, 0
2, 33024, Note_on_c, 0, 76, 85
2, 33054, Note_on_c, 0, 76, 0
2, 33056, Note_on_c, 0, 79, 85
2, 33086, Note_on_c, 0, 79, 0
2, 33088, Note_on_c, 0, 82, 85
2, 33118, Note_on_c, 0, 82, 0
2, 33120, Note_on_c, 0, 82, 85
2, 33209, Note_on_c, 0, 82, 0
2, 33216, Note_on_c, 0, 81, 85
2, 33305, Note_on_c, 0, 81, 0
2, 33312, Note_on_c, 0, 79, 85
2, 33401, Note_on_c, 0, 79, 0
2, 33408, Note_on_c, 0, 77, 85
2, 33438, Note_on_c, 0, 77, 0
2, 33440, Note_on_c, 0, 76, 85
2, 33470, Note_on_c, 0, 76, 0
2, 33472, Note_on_c, 0, 77, 85
2, 33502, Note_on_c, 0, 77, 0
2, 33504, Note_on_c, 0, 81, 85
2, 33534, Note_on_c, 0, 81, 0
2, 33536, Note_on_c, 0, 79, 85
2, 33566, Note_on_c, 0, 79, 0
2, 33568, Note_on_c, 0, 77, 85
2, 33598, Note_on_c, 0, 77, 0
2, 33600, Note_on_c, 0, 76, 85
2, 33630, Note_on_c, 0, 76, 0
2, 33632, Note_on_c, 0, 74, 85
2, 33662, Note_on_c, 0, 74, 0
2, 33664, Note_on_c, 0, 72, 85
2, 33694, Note_on_c, 0, 72, 0
2, 33696, Note_on_c, 0, 72, 85
2, 33873, Note_on_c, 0, 72, 0
2, 33888, Note_on_c, 0, 71, 85
2, 33977, Note_on_c, 0, 71, 0
2, 33984, Note_on_c, 0, 74, 85
2, 33996, Note_on_c, 0, 74, 0
2, 33996, Note_on_c, 0, 72, 85
2, 34008, Note_on_c, 0, 72, 0
2, 34008, Note_on_c, 0, 71, 85
2, 34020, Note_on_c, 0, 71, 0
2, 34020, Note_on_c, 0, 72, 85
2, 34077, Note_on_c, 0, 72, 0
2, 34080, Note_on_c, 0, 67, 85
2, 34110, Note_on_c, 0, 67, 0
2, 34112, Note_on_c, 0, 72, 85
2, 34142, Note_on_c, 0, 72, 0
2, 34144, Note_on_c, 0, 76, 85
2, 34174, Note_on_c, 0, 76, 0
2, 34176, Note_on_c, 0, 74, 85
2, 34206, Note_on_c, 0, 74, 0
2, 34208, Note_on_c, 0, 72, 85
2, 34238, Note_on_c, 0, 72, 0
2, 34240, Note_on_c, 0, 71, 85
2, 34270, Note_on_c, 0, 71, 0
2, 34272, Note_on_c, 0, 72, 85
2, 34361, Note_on_c, 0, 72, 0
2, 34368, Note_on_c, 0, 67, 85
2, 34398, Note_on_c, 0, 67, 0
2, 34400, Note_on_c, 0, 72, 85
2, 34430, Note_on_c, 0, 72, 0
2, 34432, Note_on_c, 0, 76, 85
2, 34462, Note_on_c, 0, 76, 0
2, 34464, Note_on_c, 0, 74, 85
2, 34494, Note_on_c, 0, 74, 0
2, 34496, Note_on_c, 0, 72, 85
2, 34526, Note_on_c, 0, 72, 0
2, 34528, Note_on_c, 0, 71, 85
2, 34558, Note_on_c, 0, 71, 0
2, 34560, Note_on_c, 0, 72, 85
2, 34649, Note_on_c, 0, 72, 0
2, 34656, Note_on_c, 0, 79, 85
2, 34686, Note_on_c, 0, 79, 0
2, 34688, Note_on_c, 0, 81, 85
2, 34718, Note_on_c, 0, 81, 0
2, 34720, Note_on_c, 0, 83, 85
2, 34750, Note_on_c, 0, 83, 0
2, 34752, Note_on_c, 0, 84, 85
2, 34782, Note_on_c, 0, 84, 0
2, 34784, Note_on_c, 0, 79, 85
2, 34814, Note_on_c, 0, 79, 0
2, 34816, Note_on_c, 0, 76, 85
2, 34846, Note_on_c, 0, 76, 0
2, 34848, Note_on_c, 0, 79, 85
2, 34956, Note_on_c, 0, 79, 0
2, 34956, Note_on_c, 0, 77, 85
2, 34968, Note_on_c, 0, 77, 0
2, 34968, Note_on_c, 0, 79, 85
2, 34980, Note_on_c, 0, 79, 0
2, 34980, Note_on_c, 0, 77, 85
2, 34992, Note_on_c, 0, 77, 0
2, 34992, Note_on_c, 0, 79, 85
2, 35004, Note_on_c, 0, 79, 0
2, 35004, Note_on_c, 0, 77, 85
2, 35016, Note_on_c, 0, 77, 0
2, 35016, Note_on_c, 0, 76, 85
2, 35028, Note_on_c, 0, 76, 0
2, 35028, Note_on_c, 0, 77, 85
2, 35040, Note_on_c, 0, 77, 0
2, 35040, Note_on_c, 0, 76, 85
2, 35129, Note_on_c, 0, 76, 0
2, 35136, Note_on_c, 0, 74, 85
2, 35225, Note_on_c, 0, 74, 0
2, 35232, Note_on_c, 0, 81, 85
2, 35262, Note_on_c, 0, 81, 0
2, 35264, Note_on_c, 0, 79, 85
2, 35294, Note_on_c, 0, 79, 0
2, 35296, Note_on_c, 0, 77, 85
2, 35326, Note_on_c, 0, 77, 0
2, 35328, Note_on_c, 0, 76, 85
2, 35358, Note_on_c, 0, 76, 0
2, 35360, Note_on_c, 0, 74, 85
2, 35390, Note_on_c, 0, 74, 0
2, 35392, Note_on_c, 0, 72, 85
2, 35422, Note_on_c, 0, 72, 0
2, 35424, Note_on_c, 0, 72, 85
2, 35532, Note_on_c, 0, 72, 0
2, 35532, Note_on_c, 0, 71, 85
2, 35544, Note_on_c, 0, 71, 0
2, 35544, Note_on_c, 0, 72, 85
2, 35556, Note_on_c, 0, 72, 0
2, 35556, Note_on_c, 0, 71, 85
2, 35568, Note_on_c, 0, 71, 0
2, 35568, Note_on_c, 0, 72, 85
2, 35580, Note_on_c, 0, 72, 0
2, 35580, Note_on_c, 0, 71, 85
2, 35592, Note_on_c, 0, 71, 0
2, 35592, Note_on_c, 0, 69, 85
2, 35604, Note_on_c, 0, 69, 0
2, 35604, Note_on_c, 0, 71, 85
2, 35616, Note_on_c, 0, 71, 0
2, 35616, Note_on_c, 0, 72, 85
2, 35705, Note_on_c, 0, 72, 0
2, 35712, Note_on_c, 0, 83, 85
2, 35735, Note_on_c, 0, 83, 0
2, 35736, Note_on_c, 0, 81, 85
2, 35759, Note_on_c, 0, 81, 0
2, 35760, Note_on_c, 0, 79, 85
2, 35783, Note_on_c, 0, 79, 0
2, 35784, Note_on_c, 0, 77, 85
2, 35807, Note_on_c, 0, 77, 0
2, 35808, Note_on_c, 0, 76, 85
2, 35916, Note_on_c, 0, 76, 0
2, 35916, Note_on_c, 0, 74, 85
2, 35928, Note_on_c, 0, 74, 0
2, 35928, Note_on_c, 0, 76, 85
2, 35940, Note_on_c, 0, 76, 0
2, 35940, Note_on_c, 0, 74, 85
2, 35952, Note_on_c, 0, 74, 0
2, 35952, Note_on_c, 0, 76, 85
2, 35964, Note_on_c, 0, 76, 0
2, 35964, Note_on_c, 0, 74, 85
2, 35976, Note_on_c, 0, 74, 0
2, 35976, Note_on_c, 0, 72, 85
2, 35988, Note_on_c, 0, 72, 0
2, 35988, Note_on_c, 0, 74, 85
2, 36000, Note_on_c, 0, 74, 0
2, 36000, Note_on_c, 0, 72, 85
2, 36089, Note_on_c, 0, 72, 0
2, 36576, End_track
3, 0, Start_track
3, 0, Program_c, 1, 0
3, 0, Control_c, 1, 7, 127
3, 0, Control_c, 1, 10, 64
3, 0, Note_on_c, 1, 64, 64
3, 0, Note_on_c, 1, 60, 64
3, 177, Note_on_c, 1, 64, 0
3, 177, Note_on_c, 1, 60, 0
3, 192, Note_on_c, 1, 65, 64
3, 192, Note_on_c, 1, 55, 64
3, 281, Note_on_c, 1, 65, 0
3, 281, Note_on_c, 1, 55, 0
3, 288, Note_on_c, 1, 64, 64
3, 288, Note_on_c, 1, 60, 64
3, 465, Note_on_c, 1, 64, 0
3, 465, Note_on_c, 1, 60, 0
3, 480, Note_on_c, 1, 65, 64
3, 480, Note_on_c, 1, 55, 64
3, 569, Note_on_c, 1, 65, 0
3, 569, Note_on_c, 1, 55, 0
3, 576, Note_on_c, 1, 64, 64
3, 576, Note_on_c, 1, 60, 64
3, 665, Note_on_c, 1, 64, 0
3, 665, Note_on_c, 1, 60, 0
3, 768, Note_on_c, 1, 60, 64
3, 857, Note_on_c, 1, 60, 0
3, 864, Note_on_c, 1, 62, 64
3, 953, Note_on_c, 1, 62, 0
3, 960, Note_on_c, 1, 55, 64
3, 1049, Note_on_c, 1, 55, 0
3, 1056, Note_on_c, 1, 60, 64
3, 1145, Note_on_c, 1, 60, 0
3, 1152, Note_on_c, 1, 53, 64
3, 1241, Note_on_c, 1, 53, 0
3, 1440, Note_on_c, 1, 55, 64
3, 1529, Note_on_c, 1, 55, 0
3, 1536, Note_on_c, 1, 53, 64
3, 1625, Note_on_c, 1, 53, 0
3, 1632, Note_on_c, 1, 52, 64
3, 1721, Note_on_c, 1, 52, 0
3, 1824, Note_on_c, 1, 59, 64
3, 1913, Note_on_c, 1, 59, 0
3, 1920, Note_on_c, 1, 60, 64
3, 2009, Note_on_c, 1, 60, 0
3, 2016, Note_on_c, 1, 55, 64
3, 2105, Note_on_c, 1, 55, 0
3, 2112, Note_on_c, 1, 67, 64
3, 2201, Note_on_c, 1, 67, 0
3, 2208, Note_on_c, 1, 55, 64
3, 2297, Note_on_c, 1, 55, 0
3, 2304, Note_on_c, 1, 64, 64
3, 2304, Note_on_c, 1, 60, 64
3, 2481, Note_on_c, 1, 64, 0
3, 2481, Note_on_c, 1, 60, 0
3, 2496, Note_on_c, 1, 65, 64
3, 2496, Note_on_c, 1, 55, 64
3, 2585, Note_on_c, 1, 65, 0
3, 2585, Note_on_c, 1, 55, 0
3, 2592, Note_on_c, 1, 64, 64
3, 2592, Note_on_c, 1, 60, 64
3, 2769, Note_on_c, 1, 64, 0
3, 2769, Note_on_c, 1, 60, 0
3, 2784, Note_on_c, 1, 65, 64
3, 2784, Note_on_c, 1, 55, 64
3, 2873, Note_on_c, 1, 65, 0
3, 2873, Note_on_c, 1, 55, 0
3, 2880, Note_on_c, 1, 64, 64
3, 2880, Note_on_c, 1, 60, 64
3, 2969, Note_on_c, 1, 64, 0
3, 2969, Note_on_c, 1, 60, 0
3, 3072, Note_on_c, 1, 60, 64
3, 3161, Note_on_c, 1, 60, 0
3, 3168, Note_on_c, 1, 62, 64
3, 3257, Note_on_c, 1, 62, 0
3, 3264, Note_on_c, 1, 55, 64
3, 3353, Note_on_c, 1, 55, 0
3, 3360, Note_on_c, 1, 60, 64
3, 3449, Note_on_c, 1, 60, 0
3, 3456, Note_on_c, 1, 53, 64
3, 3545, Note_on_c, 1, 53, 0
3, 3744, Note_on_c, 1, 55, 64
3, 3833, Note_on_c, 1, 55, 0
3, 3840, Note_on_c, 1, 53, 64
3, 3929, Note_on_c, 1, 53, 0
3, 3936, Note_on_c, 1, 52, 64
3, 4025, Note_on_c, 1, 52, 0
3, 4128, Note_on_c, 1, 59, 64
3, 4217, Note_on_c, 1, 59, 0
3, 4224, Note_on_c, 1, 60, 64
3, 4313, Note_on_c, 1, 60, 0
3, 4320, Note_on_c, 1, 55, 64
3, 4409, Note_on_c, 1, 55, 0
3, 4416, Note_on_c, 1, 67, 64
3, 4505, Note_on_c, 1, 67, 0
3, 4512, Note_on_c, 1, 55, 64
3, 4601, Note_on_c, 1, 55, 0
3, 4608, Note_on_c, 1, 60, 64
3, 4608, Note_on_c, 1, 52, 64
3, 4785, Note_on_c, 1, 60, 0
3, 4785, Note_on_c, 1, 52, 0
3, 4800, Note_on_c, 1, 60, 64
3, 4800, Note_on_c, 1, 52, 64
3, 4889, Note_on_c, 1, 60, 0
3, 4889, Note_on_c, 1, 52, 0
3, 4896, Note_on_c, 1, 53, 64
3, 4985, Note_on_c, 1, 53, 0
3, 4992, Note_on_c, 1, 65, 64
3, 5081, Note_on_c, 1, 65, 0
3, 5088, Note_on_c, 1, 64, 64
3, 5177, Note_on_c, 1, 64, 0
3, 5184, Note_on_c, 1, 62, 64
3, 5273, Note_on_c, 1, 62, 0
3, 5280, Note_on_c, 1, 65, 64
3, 5369, Note_on_c, 1, 65, 0
3, 5376, Note_on_c, 1, 66, 64
3, 5465, Note_on_c, 1, 66, 0
3, 5472, Note_on_c, 1, 67, 64
3, 5561, Note_on_c, 1, 67, 0
3, 5568, Note_on_c, 1, 62, 64
3, 5657, Note_on_c, 1, 62, 0
3, 5664, Note_on_c, 1, 55, 64
3, 5753, Note_on_c, 1, 55, 0
3, 5760, Note_on_c, 1, 64, 64
3, 5760, Note_on_c, 1, 60, 64
3, 5937, Note_on_c, 1, 64, 0
3, 5937, Note_on_c, 1, 60, 0
3, 5952, Note_on_c, 1, 65, 64
3, 5952, Note_on_c, 1, 55, 64
3, 6041, Note_on_c, 1, 65, 0
3, 6041, Note_on_c, 1, 55, 0
3, 6048, Note_on_c, 1, 64, 64
3, 6048, Note_on_c, 1, 60, 64
3, 6225, Note_on_c, 1, 64, 0
3, 6225, Note_on_c, 1, 60, 0
3, 6240, Note_on_c, 1, 65, 64
3, 6240, Note_on_c, 1, 55, 64
3, 6329, Note_on_c, 1, 65, 0
3, 6329, Note_on_c, 1, 55, 0
3, 6336, Note_on_c, 1, 64, 64
3, 6336, Note_on_c, 1, 60, 64
3, 6425, Note_on_c, 1, 64, 0
3, 6425, Note_on_c, 1, 60, 0
3, 6528, Note_on_c, 1, 60, 64
3, 6617, Note_on_c, 1, 60, 0
3, 6624, Note_on_c, 1, 62, 64
3, 6713, Note_on_c, 1, 62, 0
3, 6720, Note_on_c, 1, 55, 64
3, 6809, Note_on_c, 1, 55, 0
3, 6816, Note_on_c, 1, 60, 64
3, 6905, Note_on_c, 1, 60, 0
3, 6912, Note_on_c, 1, 53, 64
3, 7001, Note_on_c, 1, 53, 0
3, 7200, Note_on_c, 1, 55, 64
3, 7289, Note_on_c, 1, 55, 0
3, 7296, Note_on_c, 1, 53, 64
3, 7385, Note_on_c, 1, 53, 0
3, 7392, Note_on_c, 1, 52, 64
3, 7481, Note_on_c, 1, 52, 0
3, 7488, Note_on_c, 1, 53, 64
3, 7577, Note_on_c, 1, 53, 0
3, 7584, Note_on_c, 1, 55, 64
3, 7673, Note_on_c, 1, 55, 0
3, 7680, Note_on_c, 1, 43, 64
3, 7769, Note_on_c, 1, 43, 0
3, 7776, Note_on_c, 1, 48, 64
3, 7865, Note_on_c, 1, 48, 0
3, 7872, Note_on_c, 1, 43, 64
3, 7961, Note_on_c, 1, 43, 0
3, 7968, Note_on_c, 1, 36, 64
3, 8057, Note_on_c, 1, 36, 0
3, 8064, Note_on_c, 1, 60, 64
3, 8064, Note_on_c, 1, 52, 64
3, 8241, Note_on_c, 1, 60, 0
3, 8241, Note_on_c, 1, 52, 0
3, 8256, Note_on_c, 1, 60, 64
3, 8256, Note_on_c, 1, 52, 64
3, 8345, Note_on_c, 1, 60, 0
3, 8345, Note_on_c, 1, 52, 0
3, 8352, Note_on_c, 1, 53, 64
3, 8441, Note_on_c, 1, 53, 0
3, 8448, Note_on_c, 1, 65, 64
3, 8537, Note_on_c, 1, 65, 0
3, 8544, Note_on_c, 1, 64, 64
3, 8633, Note_on_c, 1, 64, 0
3, 8640, Note_on_c, 1, 62, 64
3, 8729, Note_on_c, 1, 62, 0
3, 8736, Note_on_c, 1, 65, 64
3, 8825, Note_on_c, 1, 65, 0
3, 8832, Note_on_c, 1, 66, 64
3, 8921, Note_on_c, 1, 66, 0
3, 8928, Note_on_c, 1, 67, 64
3, 9017, Note_on_c, 1, 67, 0
3, 9024, Note_on_c, 1, 62, 64
3, 9113, Note_on_c, 1, 62, 0
3, 9120, Note_on_c, 1, 55, 64
3, 9209, Note_on_c, 1, 55, 0
3, 9216, Note_on_c, 1, 64, 64
3, 9216, Note_on_c, 1, 60, 64
3, 9393, Note_on_c, 1, 64, 0
3, 9393, Note_on_c, 1, 60, 0
3, 9408, Note_on_c, 1, 65, 64
3, 9408, Note_on_c, 1, 55, 64
3, 9497, Note_on_c, 1, 65, 0
3, 9497, Note_on_c, 1, 55, 0
3, 9504, Note_on_c, 1, 64, 64
3, 9504, Note_on_c, 1, 60, 64
3, 9681, Note_on_c, 1, 64, 0
3, 9681, Note_on_c, 1, 60, 0
3, 9696, Note_on_c, 1, 65, 64
3, 9696, Note_on_c, 1, 55, 64
3, 9785, Note_on_c, 1, 65, 0
3, 9785, Note_on_c, 1, 55, 0
3, 9792, Note_on_c, 1, 64, 64
3, 9792, Note_on_c, 1, 60, 64
3, 9881, Note_on_c, 1, 64, 0
3, 9881, Note_on_c, 1, 60, 0
3, 9984, Note_on_c, 1, 60, 64
3, 10073, Note_on_c, 1, 60, 0
3, 10080, Note_on_c, 1, 62, 64
3, 10169, Note_on_c, 1, 62, 0
3, 10176, Note_on_c, 1, 55, 64
3, 10265, Note_on_c, 1, 55, 0
3, 10272, Note_on_c, 1, 60, 64
3, 10361, Note_on_c, 1, 60, 0
3, 10368, Note_on_c, 1, 53, 64
3, 10457, Note_on_c, 1, 53, 0
3, 10656, Note_on_c, 1, 55, 64
3, 10745, Note_on_c, 1, 55, 0
3, 10752, Note_on_c, 1, 53, 64
3, 10841, Note_on_c, 1, 53, 0
3, 10848, Note_on_c, 1, 52, 64
3, 10937, Note_on_c, 1, 52, 0
3, 10944, Note_on_c, 1, 53, 64
3, 11033, Note_on_c, 1, 53, 0
3, 11040, Note_on_c, 1, 55, 64
3, 11129, Note_on_c, 1, 55, 0
3, 11136, Note_on_c, 1, 43, 64
3, 11225, Note_on_c, 1, 43, 0
3, 11232, Note_on_c, 1, 48, 64
3, 11321, Note_on_c, 1, 48, 0
3, 11328, Note_on_c, 1, 43, 64
3, 11417, Note_on_c, 1, 43, 0
3, 11424, Note_on_c, 1, 36, 64
3, 11513, Note_on_c, 1, 36, 0
3, 11520, Note_on_c, 1, 51, 64
3, 11520, Note_on_c, 1, 48, 64
3, 11609, Note_on_c, 1, 51, 0
3, 11609, Note_on_c, 1, 48, 0
3, 11904, Note_on_c, 1, 53, 64
3, 11904, Note_on_c, 1, 50, 64
3, 11993, Note_on_c, 1, 53, 0
3, 11993, Note_on_c, 1, 50, 0
3, 12000, Note_on_c, 1, 53, 64
3, 12000, Note_on_c, 1, 50, 64
3, 12089, Note_on_c, 1, 53, 0
3, 12089, Note_on_c, 1, 50, 0
3, 12096, Note_on_c, 1, 53, 64
3, 12096, Note_on_c, 1, 50, 64
3, 12185, Note_on_c, 1, 53, 0
3, 12185, Note_on_c, 1, 50, 0
3, 12480, Note_on_c, 1, 55, 64
3, 12480, Note_on_c, 1, 51, 64
3, 12569, Note_on_c, 1, 55, 0
3, 12569, Note_on_c, 1, 51, 0
3, 12576, Note_on_c, 1, 55, 64
3, 12576, Note_on_c, 1, 51, 64
3, 12665, Note_on_c, 1, 55, 0
3, 12665, Note_on_c, 1, 51, 0
3, 12672, Note_on_c, 1, 55, 64
3, 12672, Note_on_c, 1, 51, 64
3, 12761, Note_on_c, 1, 55, 0
3, 12761, Note_on_c, 1, 51, 0
3, 12960, Note_on_c, 1, 56, 64
3, 12960, Note_on_c, 1, 53, 64
3, 13049, Note_on_c, 1, 56, 0
3, 13049, Note_on_c, 1, 53, 0
3, 13248, Note_on_c, 1, 51, 64
3, 13337, Note_on_c, 1, 51, 0
3, 13344, Note_on_c, 1, 53, 64
3, 13433, Note_on_c, 1, 53, 0
3, 13440, Note_on_c, 1, 55, 64
3, 13529, Note_on_c, 1, 55, 0
3, 13536, Note_on_c, 1, 48, 64
3, 13625, Note_on_c, 1, 48, 0
3, 13632, Note_on_c, 1, 43, 64
3, 13721, Note_on_c, 1, 43, 0
3, 13728, Note_on_c, 1, 36, 64
3, 13817, Note_on_c, 1, 36, 0
3, 13824, Note_on_c, 1, 51, 64
3, 13824, Note_on_c, 1, 48, 64
3, 13913, Note_on_c, 1, 51, 0
3, 13913, Note_on_c, 1, 48, 0
3, 14208, Note_on_c, 1, 53, 64
3, 14208, Note_on_c, 1, 50, 64
3, 14297, Note_on_c, 1, 53, 0
3, 14297, Note_on_c, 1, 50, 0
3, 14304, Note_on_c, 1, 53, 64
3, 14304, Note_on_c, 1, 50, 64
3, 14393, Note_on_c, 1, 53, 0
3, 14393, Note_on_c, 1, 50, 0
3, 14400, Note_on_c, 1, 53, 64
3, 14400, Note_on_c, 1, 50, 64
3, 14489, Note_on_c, 1, 53, 0
3, 14489, Note_on_c, 1, 50, 0
3, 14784, Note_on_c, 1, 55, 64
3, 14784, Note_on_c, 1, 51, 64
3, 14873, Note_on_c, 1, 55, 0
3, 14873, Note_on_c, 1, 51, 0
3, 14880, Note_on_c, 1, 55, 64
3, 14880, Note_on_c, 1, 51, 64
3, 14969, Note_on_c, 1, 55, 0
3, 14969, Note_on_c, 1, 51, 0
3, 14976, Note_on_c, 1, 55, 64
3, 14976, Note_on_c, 1, 51, 64
3, 15065, Note_on_c, 1, 55, 0
3, 15065, Note_on_c, 1, 51, 0
3, 15264, Note_on_c, 1, 56, 64
3, 15264, Note_on_c, 1, 53, 64
3, 15353, Note_on_c, 1, 56, 0
3, 15353, Note_on_c, 1, 53, 0
3, 15552, Note_on_c, 1, 51, 64
3, 15641, Note_on_c, 1, 51, 0
3, 15648, Note_on_c, 1, 53, 64
3, 15737, Note_on_c, 1, 53, 0
3, 15744, Note_on_c, 1, 55, 64
3, 15833, Note_on_c, 1, 55, 0
3, 15840, Note_on_c, 1, 48, 64
3, 15929, Note_on_c, 1, 48, 0
3, 15936, Note_on_c, 1, 43, 64
3, 16025, Note_on_c, 1, 43, 0
3, 16032, Note_on_c, 1, 36, 64
3, 16121, Note_on_c, 1, 36, 0
3, 16128, Note_on_c, 1, 51, 64
3, 16128, Note_on_c, 1, 43, 64
3, 16217, Note_on_c, 1, 51, 0
3, 16217, Note_on_c, 1, 43, 0
3, 16416, Note_on_c, 1, 51, 64
3, 16416, Note_on_c, 1, 44, 64
3, 16505, Note_on_c, 1, 51, 0
3, 16505, Note_on_c, 1, 44, 0
3, 16704, Note_on_c, 1, 50, 64
3, 16704, Note_on_c, 1, 46, 64
3, 16793, Note_on_c, 1, 50, 0
3, 16793, Note_on_c, 1, 46, 0
3, 16992, Note_on_c, 1, 48, 64
3, 17081, Note_on_c, 1, 48, 0
3, 17088, Note_on_c, 1, 60, 64
3, 17177, Note_on_c, 1, 60, 0
3, 17184, Note_on_c, 1, 58, 64
3, 17273, Note_on_c, 1, 58, 0
3, 17280, Note_on_c, 1, 44, 64
3, 17369, Note_on_c, 1, 44, 0
3, 17376, Note_on_c, 1, 56, 64
3, 17465, Note_on_c, 1, 56, 0
3, 17472, Note_on_c, 1, 55, 64
3, 17561, Note_on_c, 1, 55, 0
3, 17568, Note_on_c, 1, 56, 64
3, 17657, Note_on_c, 1, 56, 0
3, 17664, Note_on_c, 1, 58, 64
3, 17753, Note_on_c, 1, 58, 0
3, 17760, Note_on_c, 1, 46, 64
3, 17849, Note_on_c, 1, 46, 0
3, 17856, Note_on_c, 1, 51, 64
3, 17989, Note_on_c, 1, 51, 0
3, 18000, Note_on_c, 1, 53, 64
3, 18045, Note_on_c, 1, 53, 0
3, 18048, Note_on_c, 1, 51, 64
3, 18093, Note_on_c, 1, 51, 0
3, 18096, Note_on_c, 1, 50, 64
3, 18141, Note_on_c, 1, 50, 0
3, 18144, Note_on_c, 1, 51, 64
3, 18144, Note_on_c, 1, 48, 64
3, 18233, Note_on_c, 1, 51, 0
3, 18233, Note_on_c, 1, 48, 0
3, 18528, Note_on_c, 1, 53, 64
3, 18528, Note_on_c, 1, 50, 64
3, 18617, Note_on_c, 1, 53, 0
3, 18617, Note_on_c, 1, 50, 0
3, 18624, Note_on_c, 1, 53, 64
3, 18624, Note_on_c, 1, 50, 64
3, 18713, Note_on_c, 1, 53, 0
3, 18713, Note_on_c, 1, 50, 0
3, 18720, Note_on_c, 1, 53, 64
3, 18720, Note_on_c, 1, 50, 64
3, 18809, Note_on_c, 1, 53, 0
3, 18809, Note_on_c, 1, 50, 0
3, 19104, Note_on_c, 1, 55, 64
3, 19104, Note_on_c, 1, 51, 64
3, 19193, Note_on_c, 1, 55, 0
3, 19193, Note_on_c, 1, 51, 0
3, 19200, Note_on_c, 1, 55, 64
3, 19200, Note_on_c, 1, 51, 64
3, 19289, Note_on_c, 1, 55, 0
3, 19289, Note_on_c, 1, 51, 0
3, 19296, Note_on_c, 1, 55, 64
3, 19296, Note_on_c, 1, 51, 64
3, 19385, Note_on_c, 1, 55, 0
3, 19385, Note_on_c, 1, 51, 0
3, 19584, Note_on_c, 1, 56, 64
3, 19584, Note_on_c, 1, 53, 64
3, 19673, Note_on_c, 1, 56, 0
3, 19673, Note_on_c, 1, 53, 0
3, 19872, Note_on_c, 1, 51, 64
3, 19961, Note_on_c, 1, 51, 0
3, 19968, Note_on_c, 1, 53, 64
3, 20057, Note_on_c, 1, 53, 0
3, 20064, Note_on_c, 1, 55, 64
3, 20153, Note_on_c, 1, 55, 0
3, 20160, Note_on_c, 1, 48, 64
3, 20249, Note_on_c, 1, 48, 0
3, 20256, Note_on_c, 1, 43, 64
3, 20345, Note_on_c, 1, 43, 0
3, 20352, Note_on_c, 1, 36, 64
3, 20441, Note_on_c, 1, 36, 0
3, 20448, Note_on_c, 1, 51, 64
3, 20448, Note_on_c, 1, 43, 64
3, 20537, Note_on_c, 1, 51, 0
3, 20537, Note_on_c, 1, 43, 0
3, 20736, Note_on_c, 1, 51, 64
3, 20736, Note_on_c, 1, 44, 64
3, 20825, Note_on_c, 1, 51, 0
3, 20825, Note_on_c, 1, 44, 0
3, 21024, Note_on_c, 1, 50, 64
3, 21024, Note_on_c, 1, 46, 64
3, 21113, Note_on_c, 1, 50, 0
3, 21113, Note_on_c, 1, 46, 0
3, 21312, Note_on_c, 1, 48, 64
3, 21401, Note_on_c, 1, 48, 0
3, 21408, Note_on_c, 1, 60, 64
3, 21497, Note_on_c, 1, 60, 0
3, 21504, Note_on_c, 1, 58, 64
3, 21593, Note_on_c, 1, 58, 0
3, 21600, Note_on_c, 1, 44, 64
3, 21689, Note_on_c, 1, 44, 0
3, 21696, Note_on_c, 1, 56, 64
3, 21785, Note_on_c, 1, 56, 0
3, 21792, Note_on_c, 1, 55, 64
3, 21881, Note_on_c, 1, 55, 0
3, 21888, Note_on_c, 1, 56, 64
3, 21977, Note_on_c, 1, 56, 0
3, 21984, Note_on_c, 1, 58, 64
3, 22073, Note_on_c, 1, 58, 0
3, 22080, Note_on_c, 1, 46, 64
3, 22169, Note_on_c, 1, 46, 0
3, 22176, Note_on_c, 1, 51, 64
3, 22309, Note_on_c, 1, 51, 0
3, 22320, Note_on_c, 1, 53, 64
3, 22365, Note_on_c, 1, 53, 0
3, 22368, Note_on_c, 1, 51, 64
3, 22413, Note_on_c, 1, 51, 0
3, 22416, Note_on_c, 1, 50, 64
3, 22461, Note_on_c, 1, 50, 0
3, 22464, Note_on_c, 1, 51, 64
3, 22464, Note_on_c, 1, 48, 64
3, 22553, Note_on_c, 1, 51, 0
3, 22553, Note_on_c, 1, 48, 0
3, 22848, Note_on_c, 1, 53, 64
3, 22848, Note_on_c, 1, 50, 64
3, 22937, Note_on_c, 1, 53, 0
3, 22937, Note_on_c, 1, 50, 0
3, 22944, Note_on_c, 1, 53, 64
3, 22944, Note_on_c, 1, 50, 64
3, 23033, Note_on_c, 1, 53, 0
3, 23033, Note_on_c, 1, 50, 0
3, 23040, Note_on_c, 1, 53, 64
3, 23040, Note_on_c, 1, 50, 64
3, 23129, Note_on_c, 1, 53, 0
3, 23129, Note_on_c, 1, 50, 0
3, 23424, Note_on_c, 1, 55, 64
3, 23424, Note_on_c, 1, 51, 64
3, 23513, Note_on_c, 1, 55, 0
3, 23513, Note_on_c, 1, 51, 0
3, 23520, Note_on_c, 1, 55, 64
3, 23520, Note_on_c, 1, 51, 64
3, 23609, Note_on_c, 1, 55, 0
3, 23609, Note_on_c, 1, 51, 0
3, 23616, Note_on_c, 1, 55, 64
3, 23616, Note_on_c, 1, 51, 64
3, 23705, Note_on_c, 1, 55, 0
3, 23705, Note_on_c, 1, 51, 0
3, 23904, Note_on_c, 1, 56, 64
3, 23904, Note_on_c, 1, 53, 64
3, 23993, Note_on_c, 1, 56, 0
3, 23993, Note_on_c, 1, 53, 0
3, 24192, Note_on_c, 1, 51, 64
3, 24281, Note_on_c, 1, 51, 0
3, 24288, Note_on_c, 1, 53, 64
3, 24377, Note_on_c, 1, 53, 0
3, 24384, Note_on_c, 1, 55, 64
3, 24473, Note_on_c, 1, 55, 0
3, 24480, Note_on_c, 1, 48, 64
3, 24569, Note_on_c, 1, 48, 0
3, 24576, Note_on_c, 1, 43, 64
3, 24665, Note_on_c, 1, 43, 0
3, 24672, Note_on_c, 1, 36, 64
3, 24761, Note_on_c, 1, 36, 0
3, 24768, Note_on_c, 1, 64, 64
3, 24768, Note_on_c, 1, 60, 64
3, 24945, Note_on_c, 1, 64, 0
3, 24945, Note_on_c, 1, 60, 0
3, 24960, Note_on_c, 1, 65, 64
3, 24960, Note_on_c, 1, 55, 64
3, 25049, Note_on_c, 1, 65, 0
3, 25049, Note_on_c, 1, 55, 0
3, 25056, Note_on_c, 1, 64, 64
3, 25056, Note_on_c, 1, 60, 64
3, 25233, Note_on_c, 1, 64, 0
3, 25233, Note_on_c, 1, 60, 0
3, 25248, Note_on_c, 1, 65, 64
3, 25248, Note_on_c, 1, 55, 64
3, 25337, Note_on_c, 1, 65, 0
3, 25337, Note_on_c, 1, 55, 0
3, 25344, Note_on_c, 1, 64, 64
3, 25344, Note_on_c, 1, 60, 64
3, 25433, Note_on_c, 1, 64, 0
3, 25433, Note_on_c, 1, 60, 0
3, 25536, Note_on_c, 1, 60, 64
3, 25625, Note_on_c, 1, 60, 0
3, 25632, Note_on_c, 1, 62, 64
3, 25721, Note_on_c, 1, 62, 0
3, 25728, Note_on_c, 1, 55, 64
3, 25817, Note_on_c, 1, 55, 0
3, 25824, Note_on_c, 1, 60, 64
3, 25913, Note_on_c, 1, 60, 0
3, 25920, Note_on_c, 1, 53, 64
3, 26009, Note_on_c, 1, 53, 0
3, 26208, Note_on_c, 1, 55, 64
3, 26297, Note_on_c, 1, 55, 0
3, 26304, Note_on_c, 1, 53, 64
3, 26393, Note_on_c, 1, 53, 0
3, 26400, Note_on_c, 1, 52, 64
3, 26489, Note_on_c, 1, 52, 0
3, 26592, Note_on_c, 1, 59, 64
3, 26681, Note_on_c, 1, 59, 0
3, 26688, Note_on_c, 1, 60, 64
3, 26777, Note_on_c, 1, 60, 0
3, 26784, Note_on_c, 1, 55, 64
3, 26873, Note_on_c, 1, 55, 0
3, 26880, Note_on_c, 1, 67, 64
3, 26969, Note_on_c, 1, 67, 0
3, 26976, Note_on_c, 1, 55, 64
3, 27065, Note_on_c, 1, 55, 0
3, 27072, Note_on_c, 1, 64, 64
3, 27072, Note_on_c, 1, 60, 64
3, 27249, Note_on_c, 1, 64, 0
3, 27249, Note_on_c, 1, 60, 0
3, 27264, Note_on_c, 1, 65, 64
3, 27264, Note_on_c, 1, 55, 64
3, 27353, Note_on_c, 1, 65, 0
3, 27353, Note_on_c, 1, 55, 0
3, 27360, Note_on_c, 1, 64, 64
3, 27360, Note_on_c, 1, 60, 64
3, 27537, Note_on_c, 1, 64, 0
3, 27537, Note_on_c, 1, 60, 0
3, 27552, Note_on_c, 1, 65, 64
3, 27552, Note_on_c, 1, 55, 64
3, 27641, Note_on_c, 1, 65, 0
3, 27641, Note_on_c, 1, 55, 0
3, 27648, Note_on_c, 1, 64, 64
3, 27648, Note_on_c, 1, 60, 64
3, 27737, Note_on_c, 1, 64, 0
3, 27737, Note_on_c, 1, 60, 0
3, 27840, Note_on_c, 1, 60, 64
3, 27929, Note_on_c, 1, 60, 0
3, 27936, Note_on_c, 1, 62, 64
3, 28025, Note_on_c, 1, 62, 0
3, 28032, Note_on_c, 1, 55, 64
3, 28121, Note_on_c, 1, 55, 0
3, 28128, Note_on_c, 1, 60, 64
3, 28217, Note_on_c, 1, 60, 0
3, 28224, Note_on_c, 1, 53, 64
3, 28313, Note_on_c, 1, 53, 0
3, 28512, Note_on_c, 1, 55, 64
3, 28601, Note_on_c, 1, 55, 0
3, 28608, Note_on_c, 1, 53, 64
3, 28697, Note_on_c, 1, 53, 0
3, 28704, Note_on_c, 1, 52, 64
3, 28793, Note_on_c, 1, 52, 0
3, 28896, Note_on_c, 1, 59, 64
3, 28985, Note_on_c, 1, 59, 0
3, 28992, Note_on_c, 1, 60, 64
3, 29081, Note_on_c, 1, 60, 0
3, 29088, Note_on_c, 1, 55, 64
3, 29177, Note_on_c, 1, 55, 0
3, 29184, Note_on_c, 1, 67, 64
3, 29273, Note_on_c, 1, 67, 0
3, 29280, Note_on_c, 1, 55, 64
3, 29369, Note_on_c, 1, 55, 0
3, 29376, Note_on_c, 1, 60, 64
3, 29376, Note_on_c, 1, 52, 64
3, 29553, Note_on_c, 1, 60, 0
3, 29553, Note_on_c, 1, 52, 0
3, 29568, Note_on_c, 1, 60, 64
3, 29568, Note_on_c, 1, 52, 64
3, 29657, Note_on_c, 1, 60, 0
3, 29657, Note_on_c, 1, 52, 0
3, 29664, Note_on_c, 1, 53, 64
3, 29753, Note_on_c, 1, 53, 0
3, 29760, Note_on_c, 1, 65, 64
3, 29849, Note_on_c, 1, 65, 0
3, 29856, Note_on_c, 1, 64, 64
3, 29945, Note_on_c, 1, 64, 0
3, 29952, Note_on_c, 1, 62, 64
3, 30041, Note_on_c, 1, 62, 0
3, 30048, Note_on_c, 1, 65, 64
3, 30137, Note_on_c, 1, 65, 0
3, 30144, Note_on_c, 1, 66, 64
3, 30233, Note_on_c, 1, 66, 0
3, 30240, Note_on_c, 1, 67, 64
3, 30329, Note_on_c, 1, 67, 0
3, 30336, Note_on_c, 1, 62, 64
3, 30425, Note_on_c, 1, 62, 0
3, 30432, Note_on_c, 1, 55, 64
3, 30521, Note_on_c, 1, 55, 0
3, 30528, Note_on_c, 1, 64, 64
3, 30528, Note_on_c, 1, 60, 64
3, 30705, Note_on_c, 1, 64, 0
3, 30705, Note_on_c, 1, 60, 0
3, 30720, Note_on_c, 1, 65, 64
3, 30720, Note_on_c, 1, 55, 64
3, 30809, Note_on_c, 1, 65, 0
3, 30809, Note_on_c, 1, 55, 0
3, 30816, Note_on_c, 1, 64, 64
3, 30816, Note_on_c, 1, 60, 64
3, 30993, Note_on_c, 1, 64, 0
3, 30993, Note_on_c, 1, 60, 0
3, 31008, Note_on_c, 1, 65, 64
3, 31008, Note_on_c, 1, 55, 64
3, 31097, Note_on_c, 1, 65, 0
3, 31097, Note_on_c, 1, 55, 0
3, 31104, Note_on_c, 1, 64, 64
3, 31104, Note_on_c, 1, 60, 64
3, 31193, Note_on_c, 1, 64, 0
3, 31193, Note_on_c, 1, 60, 0
3, 31296, Note_on_c, 1, 60, 64
3, 31385, Note_on_c, 1, 60, 0
3, 31392, Note_on_c, 1, 62, 64
3, 31481, Note_on_c, 1, 62, 0
3, 31488, Note_on_c, 1, 55, 64
3, 31577, Note_on_c, 1, 55, 0
3, 31584, Note_on_c, 1, 60, 64
3, 31673, Note_on_c, 1, 60, 0
3, 31680, Note_on_c, 1, 53, 64
3, 31769, Note_on_c, 1, 53, 0
3, 31968, Note_on_c, 1, 55, 64
3, 32057, Note_on_c, 1, 55, 0
3, 32064, Note_on_c, 1, 53, 64
3, 32153, Note_on_c, 1, 53, 0
3, 32160, Note_on_c, 1, 52, 64
3, 32249, Note_on_c, 1, 52, 0
3, 32256, Note_on_c, 1, 53, 64
3, 32345, Note_on_c, 1, 53, 0
3, 32352, Note_on_c, 1, 55, 64
3, 32441, Note_on_c, 1, 55, 0
3, 32448, Note_on_c, 1, 43, 64
3, 32537, Note_on_c, 1, 43, 0
3, 32544, Note_on_c, 1, 48, 64
3, 32633, Note_on_c, 1, 48, 0
3, 32640, Note_on_c, 1, 43, 64
3, 32729, Note_on_c, 1, 43, 0
3, 32736, Note_on_c, 1, 36, 64
3, 32825, Note_on_c, 1, 36, 0
3, 32832, Note_on_c, 1, 60, 64
3, 32832, Note_on_c, 1, 52, 64
3, 33009, Note_on_c, 1, 60, 0
3, 33009, Note_on_c, 1, 52, 0
3, 33024, Note_on_c, 1, 60, 64
3, 33024, Note_on_c, 1, 52, 64
3, 33113, Note_on_c, 1, 60, 0
3, 33113, Note_on_c, 1, 52, 0
3, 33120, Note_on_c, 1, 53, 64
3, 33209, Note_on_c, 1, 53, 0
3, 33216, Note_on_c, 1, 65, 64
3, 33305, Note_on_c, 1, 65, 0
3, 33312, Note_on_c, 1, 64, 64
3, 33401, Note_on_c, 1, 64, 0
3, 33408, Note_on_c, 1, 62, 64
3, 33497, Note_on_c, 1, 62, 0
3, 33504, Note_on_c, 1, 65, 64
3, 33593, Note_on_c, 1, 65, 0
3, 33600, Note_on_c, 1, 66, 64
3, 33689, Note_on_c, 1, 66, 0
3, 33696, Note_on_c, 1, 67, 64
3, 33785, Note_on_c, 1, 67, 0
3, 33792, Note_on_c, 1, 62, 64
3, 33881, Note_on_c, 1, 62, 0
3, 33888, Note_on_c, 1, 55, 64
3, 33977, Note_on_c, 1, 55, 0
3, 33984, Note_on_c, 1, 64, 64
3, 33984, Note_on_c, 1, 60, 64
3, 34161, Note_on_c, 1, 64, 0
3, 34161, Note_on_c, 1, 60, 0
3, 34176, Note_on_c, 1, 65, 64
3, 34176, Note_on_c, 1, 55, 64
3, 34265, Note_on_c, 1, 65, 0
3, 34265, Note_on_c, 1, 55, 0
3, 34272, Note_on_c, 1, 64, 64
3, 34272, Note_on_c, 1, 60, 64
3, 34449, Note_on_c, 1, 64, 0
3, 34449, Note_on_c, 1, 60, 0
3, 34464, Note_on_c, 1, 65, 64
3, 34464, Note_on_c, 1, 55, 64
3, 34553, Note_on_c, 1, 65, 0
3, 34553, Note_on_c, 1, 55, 0
3, 34560, Note_on_c, 1, 64, 64
3, 34560, Note_on_c, 1, 60, 64
3, 34649, Note_on_c, 1, 64, 0
3, 34649, Note_on_c, 1, 60, 0
3, 34752, Note_on_c, 1, 60, 64
3, 34841, Note_on_c, 1, 60, 0
3, 34848, Note_on_c, 1, 62, 64
3, 34937, Note_on_c, 1, 62, 0
3, 34944, Note_on_c, 1, 55, 64
3, 35033, Note_on_c, 1, 55, 0
3, 35040, Note_on_c, 1, 60, 64
3, 35129, Note_on_c, 1, 60, 0
3, 35136, Note_on_c, 1, 53, 64
3, 35225, Note_on_c, 1, 53, 0
3, 35424, Note_on_c, 1, 55, 64
3, 35513, Note_on_c, 1, 55, 0
3, 35520, Note_on_c, 1, 53, 64
3, 35609, Note_on_c, 1, 53, 0
3, 35616, Note_on_c, 1, 52, 64
3, 35705, Note_on_c, 1, 52, 0
3, 35712, Note_on_c, 1, 53, 64
3, 35801, Note_on_c, 1, 53, 0
3, 35808, Note_on_c, 1, 55, 64
3, 35897, Note_on_c, 1, 55, 0
3, 35904, Note_on_c, 1, 43, 64
3, 35993, Note_on_c, 1, 43, 0
3, 36000, Note_on_c, 1, 48, 64
3, 36089, Note_on_c, 1, 48, 0
3, 36096, Note_on_c, 1, 43, 64
3, 36185, Note_on_c, 1, 43, 0
3, 36192, Note_on_c, 1, 36, 64
3, 36281, Note_on_c, 1, 36, 0
3, 36288, Note_on_c, 1, 36, 0
3, 36377, Note_on_c, 1, 36, 0
3, 36576, End_track
4, 0, Start_track
4, 0, Title_t, "<No Title>"
4, 0, End_track
0, 0, End_of_file
