0, 0, Header, 1, 6, 96
1, 0, Start_track
1, 0, Copyright_t, "Copyright  2000 <copyright holder>"
1, 0, Text_t, "Sonata I\015\012"
1, 0, Text_t, "Haydn\015\012"
1, 0, Sequencer_specific, 16, 68, 87, 77, 90, 86, 82, 83, 78, 32, 54, 46, 48, 46, 57, 46, 48
1, 0, Time_signature, 3, 3, 24, 8
1, 0, Tempo, 428571
1, 0, Key_signature, 3, "major"
1, 19872, End_track
2, 0, Start_track
2, 0, Program_c, 0, 0
2, 0, Control_c, 0, 7, 127
2, 0, Control_c, 0, 10, 64
2, 0, Note_on_c, 0, 69, 75
2, 12, Note_on_c, 0, 69, 0
2, 12, Note_on_c, 0, 68, 75
2, 24, Note_on_c, 0, 68, 0
2, 24, Note_on_c, 0, 69, 75
2, 45, Note_on_c, 0, 69, 0
2, 144, Note_on_c, 0, 71, 75
2, 156, Note_on_c, 0, 71, 0
2, 156, Note_on_c, 0, 69, 75
2, 168, Note_on_c, 0, 69, 0
2, 168, Note_on_c, 0, 71, 75
2, 189, Note_on_c, 0, 71, 0
2, 288, Note_on_c, 0, 73, 75
2, 300, Note_on_c, 0, 73, 0
2, 300, Note_on_c, 0, 71, 75
2, 312, Note_on_c, 0, 71, 0
2, 312, Note_on_c, 0, 73, 75
2, 333, Note_on_c, 0, 73, 0
2, 432, Note_on_c, 0, 74, 75
2, 444, Note_on_c, 0, 74, 0
2, 444, Note_on_c, 0, 73, 75
2, 456, Note_on_c, 0, 73, 0
2, 456, Note_on_c, 0, 74, 75
2, 477, Note_on_c, 0, 74, 0
2, 576, Note_on_c, 0, 74, 75
2, 599, Note_on_c, 0, 74, 0
2, 600, Note_on_c, 0, 73, 75
2, 623, Note_on_c, 0, 73, 0
2, 624, Note_on_c, 0, 71, 75
2, 647, Note_on_c, 0, 71, 0
2, 648, Note_on_c, 0, 69, 75
2, 671, Note_on_c, 0, 69, 0
2, 672, Note_on_c, 0, 68, 75
2, 695, Note_on_c, 0, 68, 0
2, 696, Note_on_c, 0, 66, 75
2, 719, Note_on_c, 0, 66, 0
2, 720, Note_on_c, 0, 64, 75
2, 809, Note_on_c, 0, 64, 0
2, 816, Note_on_c, 0, 62, 75
2, 828, Note_on_c, 0, 62, 0
2, 828, Note_on_c, 0, 64, 75
2, 840, Note_on_c, 0, 64, 0
2, 840, Note_on_c, 0, 62, 75
2, 861, Note_on_c, 0, 62, 0
2, 864, Note_on_c, 0, 61, 75
2, 953, Note_on_c, 0, 61, 0
2, 1008, Note_on_c, 0, 78, 75
2, 1097, Note_on_c, 0, 78, 0
2, 1104, Note_on_c, 0, 80, 75
2, 1149, Note_on_c, 0, 80, 0
2, 1152, Note_on_c, 0, 81, 75
2, 1197, Note_on_c, 0, 81, 0
2, 1200, Note_on_c, 0, 76, 75
2, 1245, Note_on_c, 0, 76, 0
2, 1296, Note_on_c, 0, 78, 75
2, 1385, Note_on_c, 0, 78, 0
2, 1392, Note_on_c, 0, 80, 75
2, 1437, Note_on_c, 0, 80, 0
2, 1440, Note_on_c, 0, 81, 75
2, 1485, Note_on_c, 0, 81, 0
2, 1488, Note_on_c, 0, 76, 75
2, 1533, Note_on_c, 0, 76, 0
2, 1584, Note_on_c, 0, 76, 75
2, 1607, Note_on_c, 0, 76, 0
2, 1608, Note_on_c, 0, 74, 75
2, 1631, Note_on_c, 0, 74, 0
2, 1632, Note_on_c, 0, 83, 75
2, 1655, Note_on_c, 0, 83, 0
2, 1656, Note_on_c, 0, 74, 75
2, 1679, Note_on_c, 0, 74, 0
2, 1680, Note_on_c, 0, 74, 75
2, 1703, Note_on_c, 0, 74, 0
2, 1704, Note_on_c, 0, 73, 75
2, 1727, Note_on_c, 0, 73, 0
2, 1728, Note_on_c, 0, 78, 75
2, 1751, Note_on_c, 0, 78, 0
2, 1752, Note_on_c, 0, 76, 75
2, 1775, Note_on_c, 0, 76, 0
2, 1776, Note_on_c, 0, 74, 75
2, 1799, Note_on_c, 0, 74, 0
2, 1800, Note_on_c, 0, 73, 75
2, 1823, Note_on_c, 0, 73, 0
2, 1824, Note_on_c, 0, 71, 75
2, 1847, Note_on_c, 0, 71, 0
2, 1848, Note_on_c, 0, 69, 75
2, 1871, Note_on_c, 0, 69, 0
2, 1872, Note_on_c, 0, 69, 75
2, 1920, Note_on_c, 0, 69, 0
2, 1920, Note_on_c, 0, 68, 75
2, 1961, Note_on_c, 0, 68, 0
2, 2016, Note_on_c, 0, 83, 75
2, 2039, Note_on_c, 0, 83, 0
2, 2040, Note_on_c, 0, 80, 74
2, 2063, Note_on_c, 0, 80, 0
2, 2064, Note_on_c, 0, 76, 73
2, 2087, Note_on_c, 0, 76, 0
2, 2088, Note_on_c, 0, 71, 72
2, 2111, Note_on_c, 0, 71, 0
2, 2112, Note_on_c, 0, 75, 71
2, 2135, Note_on_c, 0, 75, 0
2, 2136, Note_on_c, 0, 71, 70
2, 2159, Note_on_c, 0, 71, 0
2, 2160, Note_on_c, 0, 76, 70
2, 2183, Note_on_c, 0, 76, 0
2, 2184, Note_on_c, 0, 71, 70
2, 2207, Note_on_c, 0, 71, 0
2, 2208, Note_on_c, 0, 78, 71
2, 2231, Note_on_c, 0, 78, 0
2, 2232, Note_on_c, 0, 71, 72
2, 2255, Note_on_c, 0, 71, 0
2, 2256, Note_on_c, 0, 80, 73
2, 2279, Note_on_c, 0, 80, 0
2, 2280, Note_on_c, 0, 71, 74
2, 2303, Note_on_c, 0, 71, 0
2, 2304, Note_on_c, 0, 83, 70
2, 2327, Note_on_c, 0, 83, 0
2, 2328, Note_on_c, 0, 79, 69
2, 2351, Note_on_c, 0, 79, 0
2, 2352, Note_on_c, 0, 76, 68
2, 2375, Note_on_c, 0, 76, 0
2, 2376, Note_on_c, 0, 71, 67
2, 2399, Note_on_c, 0, 71, 0
2, 2400, Note_on_c, 0, 75, 66
2, 2423, Note_on_c, 0, 75, 0
2, 2424, Note_on_c, 0, 71, 65
2, 2447, Note_on_c, 0, 71, 0
2, 2448, Note_on_c, 0, 76, 64
2, 2471, Note_on_c, 0, 76, 0
2, 2472, Note_on_c, 0, 71, 65
2, 2495, Note_on_c, 0, 71, 0
2, 2496, Note_on_c, 0, 78, 66
2, 2519, Note_on_c, 0, 78, 0
2, 2520, Note_on_c, 0, 71, 67
2, 2543, Note_on_c, 0, 71, 0
2, 2544, Note_on_c, 0, 79, 68
2, 2567, Note_on_c, 0, 79, 0
2, 2568, Note_on_c, 0, 71, 69
2, 2591, Note_on_c, 0, 71, 0
2, 2592, Note_on_c, 0, 83, 75
2, 2615, Note_on_c, 0, 83, 0
2, 2616, Note_on_c, 0, 80, 74
2, 2639, Note_on_c, 0, 80, 0
2, 2640, Note_on_c, 0, 76, 73
2, 2663, Note_on_c, 0, 76, 0
2, 2664, Note_on_c, 0, 71, 72
2, 2687, Note_on_c, 0, 71, 0
2, 2688, Note_on_c, 0, 75, 71
2, 2711, Note_on_c, 0, 75, 0
2, 2712, Note_on_c, 0, 71, 70
2, 2735, Note_on_c, 0, 71, 0
2, 2736, Note_on_c, 0, 76, 70
2, 2759, Note_on_c, 0, 76, 0
2, 2760, Note_on_c, 0, 71, 70
2, 2783, Note_on_c, 0, 71, 0
2, 2784, Note_on_c, 0, 78, 71
2, 2807, Note_on_c, 0, 78, 0
2, 2808, Note_on_c, 0, 71, 72
2, 2831, Note_on_c, 0, 71, 0
2, 2832, Note_on_c, 0, 80, 73
2, 2855, Note_on_c, 0, 80, 0
2, 2856, Note_on_c, 0, 71, 74
2, 2879, Note_on_c, 0, 71, 0
2, 2880, Note_on_c, 0, 83, 75
2, 2903, Note_on_c, 0, 83, 0
2, 2904, Note_on_c, 0, 81, 75
2, 2927, Note_on_c, 0, 81, 0
2, 2928, Note_on_c, 0, 80, 75
2, 2951, Note_on_c, 0, 80, 0
2, 2952, Note_on_c, 0, 78, 75
2, 2975, Note_on_c, 0, 78, 0
2, 2976, Note_on_c, 0, 76, 75
2, 2999, Note_on_c, 0, 76, 0
2, 3000, Note_on_c, 0, 74, 75
2, 3023, Note_on_c, 0, 74, 0
2, 3024, Note_on_c, 0, 73, 75
2, 3069, Note_on_c, 0, 73, 0
2, 3072, Note_on_c, 0, 73, 75
2, 3117, Note_on_c, 0, 73, 0
2, 3120, Note_on_c, 0, 73, 75
2, 3165, Note_on_c, 0, 73, 0
2, 3168, Note_on_c, 0, 73, 75
2, 3191, Note_on_c, 0, 73, 0
2, 3192, Note_on_c, 0, 76, 75
2, 3215, Note_on_c, 0, 76, 0
2, 3216, Note_on_c, 0, 75, 75
2, 3239, Note_on_c, 0, 75, 0
2, 3240, Note_on_c, 0, 73, 75
2, 3263, Note_on_c, 0, 73, 0
2, 3264, Note_on_c, 0, 71, 75
2, 3287, Note_on_c, 0, 71, 0
2, 3288, Note_on_c, 0, 69, 75
2, 3311, Note_on_c, 0, 69, 0
2, 3312, Note_on_c, 0, 68, 75
2, 3335, Note_on_c, 0, 68, 0
2, 3336, Note_on_c, 0, 71, 75
2, 3359, Note_on_c, 0, 71, 0
2, 3360, Note_on_c, 0, 69, 75
2, 3383, Note_on_c, 0, 69, 0
2, 3384, Note_on_c, 0, 68, 75
2, 3407, Note_on_c, 0, 68, 0
2, 3408, Note_on_c, 0, 66, 75
2, 3431, Note_on_c, 0, 66, 0
2, 3432, Note_on_c, 0, 64, 75
2, 3455, Note_on_c, 0, 64, 0
2, 3456, Note_on_c, 0, 68, 75
2, 3470, Note_on_c, 0, 68, 0
2, 3471, Note_on_c, 0, 66, 75
2, 3485, Note_on_c, 0, 66, 0
2, 3486, Note_on_c, 0, 68, 75
2, 3500, Note_on_c, 0, 68, 0
2, 3501, Note_on_c, 0, 66, 75
2, 3515, Note_on_c, 0, 66, 0
2, 3516, Note_on_c, 0, 68, 75
2, 3529, Note_on_c, 0, 68, 0
2, 3530, Note_on_c, 0, 66, 75
2, 3543, Note_on_c, 0, 66, 0
2, 3544, Note_on_c, 0, 68, 75
2, 3557, Note_on_c, 0, 68, 0
2, 3558, Note_on_c, 0, 66, 75
2, 3571, Note_on_c, 0, 66, 0
2, 3572, Note_on_c, 0, 64, 75
2, 3585, Note_on_c, 0, 64, 0
2, 3586, Note_on_c, 0, 66, 75
2, 3599, Note_on_c, 0, 66, 0
2, 3600, Note_on_c, 0, 64, 75
2, 3645, Note_on_c, 0, 64, 0
2, 3648, Note_on_c, 0, 71, 75
2, 3671, Note_on_c, 0, 71, 0
2, 3672, Note_on_c, 0, 68, 75
2, 3695, Note_on_c, 0, 68, 0
2, 3696, Note_on_c, 0, 69, 75
2, 3719, Note_on_c, 0, 69, 0
2, 3720, Note_on_c, 0, 66, 75
2, 3743, Note_on_c, 0, 66, 0
2, 3744, Note_on_c, 0, 64, 75
2, 3789, Note_on_c, 0, 64, 0
2, 3792, Note_on_c, 0, 71, 75
2, 3815, Note_on_c, 0, 71, 0
2, 3816, Note_on_c, 0, 68, 75
2, 3839, Note_on_c, 0, 68, 0
2, 3840, Note_on_c, 0, 69, 75
2, 3863, Note_on_c, 0, 69, 0
2, 3864, Note_on_c, 0, 66, 75
2, 3887, Note_on_c, 0, 66, 0
2, 3888, Note_on_c, 0, 64, 75
2, 3977, Note_on_c, 0, 64, 0
2, 4032, Note_on_c, 0, 69, 75
2, 4044, Note_on_c, 0, 69, 0
2, 4044, Note_on_c, 0, 68, 75
2, 4056, Note_on_c, 0, 68, 0
2, 4056, Note_on_c, 0, 69, 75
2, 4077, Note_on_c, 0, 69, 0
2, 4176, Note_on_c, 0, 71, 75
2, 4188, Note_on_c, 0, 71, 0
2, 4188, Note_on_c, 0, 69, 75
2, 4200, Note_on_c, 0, 69, 0
2, 4200, Note_on_c, 0, 71, 75
2, 4221, Note_on_c, 0, 71, 0
2, 4320, Note_on_c, 0, 73, 75
2, 4332, Note_on_c, 0, 73, 0
2, 4332, Note_on_c, 0, 71, 75
2, 4344, Note_on_c, 0, 71, 0
2, 4344, Note_on_c, 0, 73, 75
2, 4365, Note_on_c, 0, 73, 0
2, 4464, Note_on_c, 0, 74, 75
2, 4476, Note_on_c, 0, 74, 0
2, 4476, Note_on_c, 0, 73, 75
2, 4488, Note_on_c, 0, 73, 0
2, 4488, Note_on_c, 0, 74, 75
2, 4509, Note_on_c, 0, 74, 0
2, 4608, Note_on_c, 0, 74, 75
2, 4631, Note_on_c, 0, 74, 0
2, 4632, Note_on_c, 0, 73, 75
2, 4655, Note_on_c, 0, 73, 0
2, 4656, Note_on_c, 0, 71, 75
2, 4679, Note_on_c, 0, 71, 0
2, 4680, Note_on_c, 0, 69, 75
2, 4703, Note_on_c, 0, 69, 0
2, 4704, Note_on_c, 0, 68, 75
2, 4727, Note_on_c, 0, 68, 0
2, 4728, Note_on_c, 0, 66, 75
2, 4751, Note_on_c, 0, 66, 0
2, 4752, Note_on_c, 0, 64, 75
2, 4841, Note_on_c, 0, 64, 0
2, 4848, Note_on_c, 0, 62, 75
2, 4860, Note_on_c, 0, 62, 0
2, 4860, Note_on_c, 0, 64, 75
2, 4872, Note_on_c, 0, 64, 0
2, 4872, Note_on_c, 0, 62, 75
2, 4893, Note_on_c, 0, 62, 0
2, 4896, Note_on_c, 0, 61, 75
2, 4985, Note_on_c, 0, 61, 0
2, 5040, Note_on_c, 0, 78, 75
2, 5129, Note_on_c, 0, 78, 0
2, 5136, Note_on_c, 0, 80, 75
2, 5181, Note_on_c, 0, 80, 0
2, 5184, Note_on_c, 0, 81, 75
2, 5229, Note_on_c, 0, 81, 0
2, 5232, Note_on_c, 0, 76, 75
2, 5277, Note_on_c, 0, 76, 0
2, 5328, Note_on_c, 0, 78, 75
2, 5417, Note_on_c, 0, 78, 0
2, 5424, Note_on_c, 0, 80, 75
2, 5469, Note_on_c, 0, 80, 0
2, 5472, Note_on_c, 0, 81, 75
2, 5517, Note_on_c, 0, 81, 0
2, 5520, Note_on_c, 0, 76, 75
2, 5565, Note_on_c, 0, 76, 0
2, 5616, Note_on_c, 0, 76, 75
2, 5639, Note_on_c, 0, 76, 0
2, 5640, Note_on_c, 0, 74, 75
2, 5663, Note_on_c, 0, 74, 0
2, 5664, Note_on_c, 0, 83, 75
2, 5687, Note_on_c, 0, 83, 0
2, 5688, Note_on_c, 0, 74, 75
2, 5711, Note_on_c, 0, 74, 0
2, 5712, Note_on_c, 0, 74, 75
2, 5735, Note_on_c, 0, 74, 0
2, 5736, Note_on_c, 0, 73, 75
2, 5759, Note_on_c, 0, 73, 0
2, 5760, Note_on_c, 0, 78, 75
2, 5783, Note_on_c, 0, 78, 0
2, 5784, Note_on_c, 0, 76, 75
2, 5807, Note_on_c, 0, 76, 0
2, 5808, Note_on_c, 0, 74, 75
2, 5831, Note_on_c, 0, 74, 0
2, 5832, Note_on_c, 0, 73, 75
2, 5855, Note_on_c, 0, 73, 0
2, 5856, Note_on_c, 0, 71, 75
2, 5879, Note_on_c, 0, 71, 0
2, 5880, Note_on_c, 0, 69, 75
2, 5903, Note_on_c, 0, 69, 0
2, 5904, Note_on_c, 0, 69, 75
2, 5952, Note_on_c, 0, 69, 0
2, 5952, Note_on_c, 0, 68, 75
2, 5993, Note_on_c, 0, 68, 0
2, 6048, Note_on_c, 0, 83, 75
2, 6071, Note_on_c, 0, 83, 0
2, 6072, Note_on_c, 0, 80, 74
2, 6095, Note_on_c, 0, 80, 0
2, 6096, Note_on_c, 0, 76, 73
2, 6119, Note_on_c, 0, 76, 0
2, 6120, Note_on_c, 0, 71, 72
2, 6143, Note_on_c, 0, 71, 0
2, 6144, Note_on_c, 0, 75, 71
2, 6167, Note_on_c, 0, 75, 0
2, 6168, Note_on_c, 0, 71, 70
2, 6191, Note_on_c, 0, 71, 0
2, 6192, Note_on_c, 0, 76, 70
2, 6215, Note_on_c, 0, 76, 0
2, 6216, Note_on_c, 0, 71, 70
2, 6239, Note_on_c, 0, 71, 0
2, 6240, Note_on_c, 0, 78, 71
2, 6263, Note_on_c, 0, 78, 0
2, 6264, Note_on_c, 0, 71, 72
2, 6287, Note_on_c, 0, 71, 0
2, 6288, Note_on_c, 0, 80, 73
2, 6311, Note_on_c, 0, 80, 0
2, 6312, Note_on_c, 0, 71, 74
2, 6335, Note_on_c, 0, 71, 0
2, 6336, Note_on_c, 0, 83, 70
2, 6359, Note_on_c, 0, 83, 0
2, 6360, Note_on_c, 0, 79, 69
2, 6383, Note_on_c, 0, 79, 0
2, 6384, Note_on_c, 0, 76, 68
2, 6407, Note_on_c, 0, 76, 0
2, 6408, Note_on_c, 0, 71, 67
2, 6431, Note_on_c, 0, 71, 0
2, 6432, Note_on_c, 0, 75, 66
2, 6455, Note_on_c, 0, 75, 0
2, 6456, Note_on_c, 0, 71, 65
2, 6479, Note_on_c, 0, 71, 0
2, 6480, Note_on_c, 0, 76, 64
2, 6503, Note_on_c, 0, 76, 0
2, 6504, Note_on_c, 0, 71, 65
2, 6527, Note_on_c, 0, 71, 0
2, 6528, Note_on_c, 0, 78, 66
2, 6551, Note_on_c, 0, 78, 0
2, 6552, Note_on_c, 0, 71, 67
2, 6575, Note_on_c, 0, 71, 0
2, 6576, Note_on_c, 0, 79, 68
2, 6599, Note_on_c, 0, 79, 0
2, 6600, Note_on_c, 0, 71, 69
2, 6623, Note_on_c, 0, 71, 0
2, 6624, Note_on_c, 0, 83, 75
2, 6647, Note_on_c, 0, 83, 0
2, 6648, Note_on_c, 0, 80, 74
2, 6671, Note_on_c, 0, 80, 0
2, 6672, Note_on_c, 0, 76, 73
2, 6695, Note_on_c, 0, 76, 0
2, 6696, Note_on_c, 0, 71, 72
2, 6719, Note_on_c, 0, 71, 0
2, 6720, Note_on_c, 0, 75, 71
2, 6743, Note_on_c, 0, 75, 0
2, 6744, Note_on_c, 0, 71, 70
2, 6767, Note_on_c, 0, 71, 0
2, 6768, Note_on_c, 0, 76, 70
2, 6791, Note_on_c, 0, 76, 0
2, 6792, Note_on_c, 0, 71, 70
2, 6815, Note_on_c, 0, 71, 0
2, 6816, Note_on_c, 0, 78, 71
2, 6839, Note_on_c, 0, 78, 0
2, 6840, Note_on_c, 0, 71, 72
2, 6863, Note_on_c, 0, 71, 0
2, 6864, Note_on_c, 0, 80, 73
2, 6887, Note_on_c, 0, 80, 0
2, 6888, Note_on_c, 0, 71, 74
2, 6911, Note_on_c, 0, 71, 0
2, 6912, Note_on_c, 0, 83, 75
2, 6935, Note_on_c, 0, 83, 0
2, 6936, Note_on_c, 0, 81, 75
2, 6959, Note_on_c, 0, 81, 0
2, 6960, Note_on_c, 0, 80, 75
2, 6983, Note_on_c, 0, 80, 0
2, 6984, Note_on_c, 0, 78, 75
2, 7007, Note_on_c, 0, 78, 0
2, 7008, Note_on_c, 0, 76, 75
2, 7031, Note_on_c, 0, 76, 0
2, 7032, Note_on_c, 0, 74, 75
2, 7055, Note_on_c, 0, 74, 0
2, 7056, Note_on_c, 0, 73, 75
2, 7101, Note_on_c, 0, 73, 0
2, 7104, Note_on_c, 0, 73, 75
2, 7149, Note_on_c, 0, 73, 0
2, 7152, Note_on_c, 0, 73, 75
2, 7197, Note_on_c, 0, 73, 0
2, 7200, Note_on_c, 0, 73, 75
2, 7223, Note_on_c, 0, 73, 0
2, 7224, Note_on_c, 0, 76, 75
2, 7247, Note_on_c, 0, 76, 0
2, 7248, Note_on_c, 0, 75, 75
2, 7271, Note_on_c, 0, 75, 0
2, 7272, Note_on_c, 0, 73, 75
2, 7295, Note_on_c, 0, 73, 0
2, 7296, Note_on_c, 0, 71, 75
2, 7319, Note_on_c, 0, 71, 0
2, 7320, Note_on_c, 0, 69, 75
2, 7343, Note_on_c, 0, 69, 0
2, 7344, Note_on_c, 0, 68, 75
2, 7367, Note_on_c, 0, 68, 0
2, 7368, Note_on_c, 0, 71, 75
2, 7391, Note_on_c, 0, 71, 0
2, 7392, Note_on_c, 0, 69, 75
2, 7415, Note_on_c, 0, 69, 0
2, 7416, Note_on_c, 0, 68, 75
2, 7439, Note_on_c, 0, 68, 0
2, 7440, Note_on_c, 0, 66, 75
2, 7463, Note_on_c, 0, 66, 0
2, 7464, Note_on_c, 0, 64, 75
2, 7487, Note_on_c, 0, 64, 0
2, 7488, Note_on_c, 0, 68, 75
2, 7502, Note_on_c, 0, 68, 0
2, 7503, Note_on_c, 0, 66, 75
2, 7517, Note_on_c, 0, 66, 0
2, 7518, Note_on_c, 0, 68, 75
2, 7532, Note_on_c, 0, 68, 0
2, 7533, Note_on_c, 0, 66, 75
2, 7547, Note_on_c, 0, 66, 0
2, 7548, Note_on_c, 0, 68, 75
2, 7561, Note_on_c, 0, 68, 0
2, 7562, Note_on_c, 0, 66, 75
2, 7575, Note_on_c, 0, 66, 0
2, 7576, Note_on_c, 0, 68, 75
2, 7589, Note_on_c, 0, 68, 0
2, 7590, Note_on_c, 0, 66, 75
2, 7603, Note_on_c, 0, 66, 0
2, 7604, Note_on_c, 0, 64, 75
2, 7617, Note_on_c, 0, 64, 0
2, 7618, Note_on_c, 0, 66, 75
2, 7631, Note_on_c, 0, 66, 0
2, 7632, Note_on_c, 0, 64, 75
2, 7677, Note_on_c, 0, 64, 0
2, 7680, Note_on_c, 0, 71, 75
2, 7703, Note_on_c, 0, 71, 0
2, 7704, Note_on_c, 0, 68, 75
2, 7727, Note_on_c, 0, 68, 0
2, 7728, Note_on_c, 0, 69, 75
2, 7751, Note_on_c, 0, 69, 0
2, 7752, Note_on_c, 0, 66, 75
2, 7775, Note_on_c, 0, 66, 0
2, 7776, Note_on_c, 0, 64, 75
2, 7821, Note_on_c, 0, 64, 0
2, 7824, Note_on_c, 0, 71, 75
2, 7847, Note_on_c, 0, 71, 0
2, 7848, Note_on_c, 0, 68, 75
2, 7871, Note_on_c, 0, 68, 0
2, 7872, Note_on_c, 0, 69, 75
2, 7895, Note_on_c, 0, 69, 0
2, 7896, Note_on_c, 0, 66, 75
2, 7919, Note_on_c, 0, 66, 0
2, 7920, Note_on_c, 0, 64, 75
2, 8009, Note_on_c, 0, 64, 0
2, 8064, Note_on_c, 0, 64, 75
2, 8109, Note_on_c, 0, 64, 0
2, 8112, Note_on_c, 0, 68, 75
2, 8135, Note_on_c, 0, 68, 0
2, 8136, Note_on_c, 0, 64, 75
2, 8159, Note_on_c, 0, 64, 0
2, 8160, Note_on_c, 0, 71, 75
2, 8183, Note_on_c, 0, 71, 0
2, 8184, Note_on_c, 0, 68, 75
2, 8207, Note_on_c, 0, 68, 0
2, 8208, Note_on_c, 0, 66, 75
2, 8253, Note_on_c, 0, 66, 0
2, 8256, Note_on_c, 0, 69, 75
2, 8279, Note_on_c, 0, 69, 0
2, 8280, Note_on_c, 0, 66, 75
2, 8303, Note_on_c, 0, 66, 0
2, 8304, Note_on_c, 0, 73, 75
2, 8327, Note_on_c, 0, 73, 0
2, 8328, Note_on_c, 0, 69, 75
2, 8351, Note_on_c, 0, 69, 0
2, 8352, Note_on_c, 0, 68, 75
2, 8397, Note_on_c, 0, 68, 0
2, 8400, Note_on_c, 0, 71, 75
2, 8423, Note_on_c, 0, 71, 0
2, 8424, Note_on_c, 0, 68, 75
2, 8447, Note_on_c, 0, 68, 0
2, 8448, Note_on_c, 0, 74, 75
2, 8471, Note_on_c, 0, 74, 0
2, 8472, Note_on_c, 0, 71, 75
2, 8495, Note_on_c, 0, 71, 0
2, 8496, Note_on_c, 0, 69, 75
2, 8541, Note_on_c, 0, 69, 0
2, 8544, Note_on_c, 0, 73, 75
2, 8567, Note_on_c, 0, 73, 0
2, 8568, Note_on_c, 0, 69, 76
2, 8591, Note_on_c, 0, 69, 0
2, 8592, Note_on_c, 0, 76, 77
2, 8615, Note_on_c, 0, 76, 0
2, 8616, Note_on_c, 0, 73, 78
2, 8639, Note_on_c, 0, 73, 0
2, 8640, Note_on_c, 0, 71, 80
2, 8663, Note_on_c, 0, 71, 0
2, 8664, Note_on_c, 0, 64, 80
2, 8687, Note_on_c, 0, 64, 0
2, 8688, Note_on_c, 0, 74, 80
2, 8711, Note_on_c, 0, 74, 0
2, 8712, Note_on_c, 0, 64, 80
2, 8735, Note_on_c, 0, 64, 0
2, 8736, Note_on_c, 0, 73, 80
2, 8759, Note_on_c, 0, 73, 0
2, 8760, Note_on_c, 0, 64, 80
2, 8783, Note_on_c, 0, 64, 0
2, 8784, Note_on_c, 0, 71, 80
2, 8807, Note_on_c, 0, 71, 0
2, 8808, Note_on_c, 0, 64, 80
2, 8831, Note_on_c, 0, 64, 0
2, 8832, Note_on_c, 0, 74, 80
2, 8855, Note_on_c, 0, 74, 0
2, 8856, Note_on_c, 0, 64, 80
2, 8879, Note_on_c, 0, 64, 0
2, 8880, Note_on_c, 0, 73, 80
2, 8903, Note_on_c, 0, 73, 0
2, 8904, Note_on_c, 0, 64, 80
2, 8927, Note_on_c, 0, 64, 0
2, 8928, Note_on_c, 0, 71, 80
2, 8940, Note_on_c, 0, 71, 0
2, 8940, Note_on_c, 0, 73, 80
2, 8952, Note_on_c, 0, 73, 0
2, 8952, Note_on_c, 0, 71, 80
2, 9017, Note_on_c, 0, 71, 0
2, 9072, Note_on_c, 0, 69, 75
2, 9084, Note_on_c, 0, 69, 0
2, 9084, Note_on_c, 0, 68, 75
2, 9096, Note_on_c, 0, 68, 0
2, 9096, Note_on_c, 0, 69, 75
2, 9117, Note_on_c, 0, 69, 0
2, 9216, Note_on_c, 0, 71, 75
2, 9228, Note_on_c, 0, 71, 0
2, 9228, Note_on_c, 0, 69, 75
2, 9240, Note_on_c, 0, 69, 0
2, 9240, Note_on_c, 0, 71, 75
2, 9261, Note_on_c, 0, 71, 0
2, 9360, Note_on_c, 0, 73, 75
2, 9372, Note_on_c, 0, 73, 0
2, 9372, Note_on_c, 0, 71, 75
2, 9384, Note_on_c, 0, 71, 0
2, 9384, Note_on_c, 0, 73, 75
2, 9405, Note_on_c, 0, 73, 0
2, 9504, Note_on_c, 0, 74, 75
2, 9516, Note_on_c, 0, 74, 0
2, 9516, Note_on_c, 0, 73, 75
2, 9528, Note_on_c, 0, 73, 0
2, 9528, Note_on_c, 0, 74, 75
2, 9549, Note_on_c, 0, 74, 0
2, 9648, Note_on_c, 0, 74, 75
2, 9671, Note_on_c, 0, 74, 0
2, 9672, Note_on_c, 0, 73, 75
2, 9695, Note_on_c, 0, 73, 0
2, 9696, Note_on_c, 0, 71, 75
2, 9719, Note_on_c, 0, 71, 0
2, 9720, Note_on_c, 0, 69, 75
2, 9743, Note_on_c, 0, 69, 0
2, 9744, Note_on_c, 0, 68, 75
2, 9767, Note_on_c, 0, 68, 0
2, 9768, Note_on_c, 0, 66, 75
2, 9791, Note_on_c, 0, 66, 0
2, 9792, Note_on_c, 0, 64, 75
2, 9881, Note_on_c, 0, 64, 0
2, 9888, Note_on_c, 0, 62, 75
2, 9900, Note_on_c, 0, 62, 0
2, 9900, Note_on_c, 0, 64, 75
2, 9912, Note_on_c, 0, 64, 0
2, 9912, Note_on_c, 0, 62, 75
2, 9933, Note_on_c, 0, 62, 0
2, 9936, Note_on_c, 0, 61, 75
2, 9981, Note_on_c, 0, 61, 0
2, 9984, Note_on_c, 0, 68, 75
2, 9996, Note_on_c, 0, 68, 0
2, 9996, Note_on_c, 0, 69, 75
2, 10030, Note_on_c, 0, 69, 0
2, 10032, Note_on_c, 0, 68, 75
2, 10044, Note_on_c, 0, 68, 0
2, 10044, Note_on_c, 0, 69, 75
2, 10078, Note_on_c, 0, 69, 0
2, 10080, Note_on_c, 0, 64, 75
2, 10169, Note_on_c, 0, 64, 0
2, 10176, Note_on_c, 0, 62, 75
2, 10188, Note_on_c, 0, 62, 0
2, 10188, Note_on_c, 0, 64, 75
2, 10200, Note_on_c, 0, 64, 0
2, 10200, Note_on_c, 0, 62, 75
2, 10221, Note_on_c, 0, 62, 0
2, 10224, Note_on_c, 0, 61, 75
2, 10313, Note_on_c, 0, 61, 0
2, 10368, Note_on_c, 0, 74, 75
2, 10380, Note_on_c, 0, 74, 0
2, 10380, Note_on_c, 0, 73, 75
2, 10392, Note_on_c, 0, 73, 0
2, 10392, Note_on_c, 0, 74, 75
2, 10413, Note_on_c, 0, 74, 0
2, 10512, Note_on_c, 0, 76, 77
2, 10524, Note_on_c, 0, 76, 0
2, 10524, Note_on_c, 0, 74, 77
2, 10536, Note_on_c, 0, 74, 0
2, 10536, Note_on_c, 0, 76, 77
2, 10557, Note_on_c, 0, 76, 0
2, 10656, Note_on_c, 0, 78, 79
2, 10668, Note_on_c, 0, 78, 0
2, 10668, Note_on_c, 0, 76, 79
2, 10680, Note_on_c, 0, 76, 0
2, 10680, Note_on_c, 0, 78, 79
2, 10701, Note_on_c, 0, 78, 0
2, 10800, Note_on_c, 0, 86, 80
2, 10823, Note_on_c, 0, 86, 0
2, 10824, Note_on_c, 0, 85, 80
2, 10847, Note_on_c, 0, 85, 0
2, 10848, Note_on_c, 0, 83, 80
2, 10871, Note_on_c, 0, 83, 0
2, 10872, Note_on_c, 0, 81, 80
2, 10895, Note_on_c, 0, 81, 0
2, 10896, Note_on_c, 0, 80, 80
2, 10919, Note_on_c, 0, 80, 0
2, 10920, Note_on_c, 0, 78, 80
2, 10943, Note_on_c, 0, 78, 0
2, 10944, Note_on_c, 0, 76, 80
2, 10989, Note_on_c, 0, 76, 0
2, 11088, Note_on_c, 0, 85, 80
2, 11111, Note_on_c, 0, 85, 0
2, 11112, Note_on_c, 0, 83, 80
2, 11135, Note_on_c, 0, 83, 0
2, 11136, Note_on_c, 0, 81, 80
2, 11159, Note_on_c, 0, 81, 0
2, 11160, Note_on_c, 0, 80, 80
2, 11183, Note_on_c, 0, 80, 0
2, 11184, Note_on_c, 0, 78, 80
2, 11207, Note_on_c, 0, 78, 0
2, 11208, Note_on_c, 0, 76, 80
2, 11231, Note_on_c, 0, 76, 0
2, 11232, Note_on_c, 0, 74, 80
2, 11277, Note_on_c, 0, 74, 0
2, 11376, Note_on_c, 0, 83, 80
2, 11399, Note_on_c, 0, 83, 0
2, 11400, Note_on_c, 0, 81, 80
2, 11423, Note_on_c, 0, 81, 0
2, 11424, Note_on_c, 0, 80, 80
2, 11447, Note_on_c, 0, 80, 0
2, 11448, Note_on_c, 0, 78, 80
2, 11471, Note_on_c, 0, 78, 0
2, 11472, Note_on_c, 0, 76, 80
2, 11495, Note_on_c, 0, 76, 0
2, 11496, Note_on_c, 0, 74, 80
2, 11519, Note_on_c, 0, 74, 0
2, 11520, Note_on_c, 0, 73, 80
2, 11543, Note_on_c, 0, 73, 0
2, 11544, Note_on_c, 0, 76, 80
2, 11567, Note_on_c, 0, 76, 0
2, 11568, Note_on_c, 0, 74, 80
2, 11591, Note_on_c, 0, 74, 0
2, 11592, Note_on_c, 0, 73, 80
2, 11615, Note_on_c, 0, 73, 0
2, 11616, Note_on_c, 0, 71, 80
2, 11639, Note_on_c, 0, 71, 0
2, 11640, Note_on_c, 0, 69, 80
2, 11663, Note_on_c, 0, 69, 0
2, 11664, Note_on_c, 0, 78, 80
2, 11687, Note_on_c, 0, 78, 0
2, 11688, Note_on_c, 0, 76, 80
2, 11711, Note_on_c, 0, 76, 0
2, 11712, Note_on_c, 0, 74, 80
2, 11735, Note_on_c, 0, 74, 0
2, 11736, Note_on_c, 0, 73, 80
2, 11759, Note_on_c, 0, 73, 0
2, 11760, Note_on_c, 0, 71, 80
2, 11783, Note_on_c, 0, 71, 0
2, 11784, Note_on_c, 0, 69, 80
2, 11807, Note_on_c, 0, 69, 0
2, 11808, Note_on_c, 0, 69, 80
2, 11856, Note_on_c, 0, 69, 0
2, 11856, Note_on_c, 0, 68, 80
2, 11897, Note_on_c, 0, 68, 0
2, 11952, Note_on_c, 0, 76, 75
2, 11975, Note_on_c, 0, 76, 0
2, 11976, Note_on_c, 0, 73, 74
2, 11999, Note_on_c, 0, 73, 0
2, 12000, Note_on_c, 0, 69, 73
2, 12023, Note_on_c, 0, 69, 0
2, 12024, Note_on_c, 0, 64, 72
2, 12047, Note_on_c, 0, 64, 0
2, 12048, Note_on_c, 0, 68, 71
2, 12071, Note_on_c, 0, 68, 0
2, 12072, Note_on_c, 0, 64, 70
2, 12095, Note_on_c, 0, 64, 0
2, 12096, Note_on_c, 0, 69, 70
2, 12119, Note_on_c, 0, 69, 0
2, 12120, Note_on_c, 0, 64, 70
2, 12143, Note_on_c, 0, 64, 0
2, 12144, Note_on_c, 0, 71, 71
2, 12167, Note_on_c, 0, 71, 0
2, 12168, Note_on_c, 0, 64, 72
2, 12191, Note_on_c, 0, 64, 0
2, 12192, Note_on_c, 0, 73, 73
2, 12215, Note_on_c, 0, 73, 0
2, 12216, Note_on_c, 0, 64, 74
2, 12239, Note_on_c, 0, 64, 0
2, 12240, Note_on_c, 0, 76, 70
2, 12263, Note_on_c, 0, 76, 0
2, 12264, Note_on_c, 0, 72, 69
2, 12287, Note_on_c, 0, 72, 0
2, 12288, Note_on_c, 0, 69, 68
2, 12311, Note_on_c, 0, 69, 0
2, 12312, Note_on_c, 0, 64, 67
2, 12335, Note_on_c, 0, 64, 0
2, 12336, Note_on_c, 0, 68, 66
2, 12359, Note_on_c, 0, 68, 0
2, 12360, Note_on_c, 0, 64, 65
2, 12383, Note_on_c, 0, 64, 0
2, 12384, Note_on_c, 0, 69, 64
2, 12407, Note_on_c, 0, 69, 0
2, 12408, Note_on_c, 0, 64, 65
2, 12431, Note_on_c, 0, 64, 0
2, 12432, Note_on_c, 0, 71, 66
2, 12455, Note_on_c, 0, 71, 0
2, 12456, Note_on_c, 0, 64, 67
2, 12479, Note_on_c, 0, 64, 0
2, 12480, Note_on_c, 0, 72, 68
2, 12503, Note_on_c, 0, 72, 0
2, 12504, Note_on_c, 0, 64, 69
2, 12527, Note_on_c, 0, 64, 0
2, 12528, Note_on_c, 0, 76, 75
2, 12551, Note_on_c, 0, 76, 0
2, 12552, Note_on_c, 0, 73, 74
2, 12575, Note_on_c, 0, 73, 0
2, 12576, Note_on_c, 0, 69, 73
2, 12599, Note_on_c, 0, 69, 0
2, 12600, Note_on_c, 0, 64, 72
2, 12623, Note_on_c, 0, 64, 0
2, 12624, Note_on_c, 0, 68, 71
2, 12647, Note_on_c, 0, 68, 0
2, 12648, Note_on_c, 0, 64, 70
2, 12671, Note_on_c, 0, 64, 0
2, 12672, Note_on_c, 0, 69, 70
2, 12695, Note_on_c, 0, 69, 0
2, 12696, Note_on_c, 0, 64, 70
2, 12719, Note_on_c, 0, 64, 0
2, 12720, Note_on_c, 0, 71, 71
2, 12743, Note_on_c, 0, 71, 0
2, 12744, Note_on_c, 0, 64, 72
2, 12767, Note_on_c, 0, 64, 0
2, 12768, Note_on_c, 0, 73, 73
2, 12791, Note_on_c, 0, 73, 0
2, 12792, Note_on_c, 0, 64, 74
2, 12815, Note_on_c, 0, 64, 0
2, 12816, Note_on_c, 0, 76, 75
2, 12839, Note_on_c, 0, 76, 0
2, 12840, Note_on_c, 0, 74, 75
2, 12863, Note_on_c, 0, 74, 0
2, 12864, Note_on_c, 0, 73, 75
2, 12887, Note_on_c, 0, 73, 0
2, 12888, Note_on_c, 0, 71, 75
2, 12911, Note_on_c, 0, 71, 0
2, 12912, Note_on_c, 0, 69, 75
2, 12935, Note_on_c, 0, 69, 0
2, 12936, Note_on_c, 0, 67, 75
2, 12959, Note_on_c, 0, 67, 0
2, 12960, Note_on_c, 0, 66, 75
2, 13005, Note_on_c, 0, 66, 0
2, 13008, Note_on_c, 0, 78, 76
2, 13053, Note_on_c, 0, 78, 0
2, 13056, Note_on_c, 0, 78, 77
2, 13101, Note_on_c, 0, 78, 0
2, 13104, Note_on_c, 0, 78, 79
2, 13127, Note_on_c, 0, 78, 0
2, 13128, Note_on_c, 0, 81, 80
2, 13151, Note_on_c, 0, 81, 0
2, 13152, Note_on_c, 0, 80, 80
2, 13175, Note_on_c, 0, 80, 0
2, 13176, Note_on_c, 0, 78, 80
2, 13199, Note_on_c, 0, 78, 0
2, 13200, Note_on_c, 0, 76, 80
2, 13223, Note_on_c, 0, 76, 0
2, 13224, Note_on_c, 0, 74, 80
2, 13247, Note_on_c, 0, 74, 0
2, 13248, Note_on_c, 0, 73, 80
2, 13271, Note_on_c, 0, 73, 0
2, 13272, Note_on_c, 0, 76, 80
2, 13295, Note_on_c, 0, 76, 0
2, 13296, Note_on_c, 0, 74, 80
2, 13319, Note_on_c, 0, 74, 0
2, 13320, Note_on_c, 0, 73, 80
2, 13343, Note_on_c, 0, 73, 0
2, 13344, Note_on_c, 0, 71, 80
2, 13367, Note_on_c, 0, 71, 0
2, 13368, Note_on_c, 0, 69, 80
2, 13391, Note_on_c, 0, 69, 0
2, 13392, Note_on_c, 0, 73, 80
2, 13406, Note_on_c, 0, 73, 0
2, 13407, Note_on_c, 0, 71, 80
2, 13421, Note_on_c, 0, 71, 0
2, 13422, Note_on_c, 0, 73, 80
2, 13436, Note_on_c, 0, 73, 0
2, 13437, Note_on_c, 0, 71, 80
2, 13451, Note_on_c, 0, 71, 0
2, 13452, Note_on_c, 0, 73, 80
2, 13465, Note_on_c, 0, 73, 0
2, 13466, Note_on_c, 0, 71, 80
2, 13479, Note_on_c, 0, 71, 0
2, 13480, Note_on_c, 0, 73, 80
2, 13493, Note_on_c, 0, 73, 0
2, 13494, Note_on_c, 0, 71, 80
2, 13507, Note_on_c, 0, 71, 0
2, 13508, Note_on_c, 0, 69, 80
2, 13521, Note_on_c, 0, 69, 0
2, 13522, Note_on_c, 0, 71, 80
2, 13535, Note_on_c, 0, 71, 0
2, 13536, Note_on_c, 0, 69, 80
2, 13581, Note_on_c, 0, 69, 0
2, 13584, Note_on_c, 0, 76, 80
2, 13607, Note_on_c, 0, 76, 0
2, 13608, Note_on_c, 0, 73, 80
2, 13631, Note_on_c, 0, 73, 0
2, 13632, Note_on_c, 0, 74, 80
2, 13655, Note_on_c, 0, 74, 0
2, 13656, Note_on_c, 0, 71, 80
2, 13679, Note_on_c, 0, 71, 0
2, 13680, Note_on_c, 0, 69, 80
2, 13725, Note_on_c, 0, 69, 0
2, 13728, Note_on_c, 0, 76, 80
2, 13751, Note_on_c, 0, 76, 0
2, 13752, Note_on_c, 0, 73, 80
2, 13775, Note_on_c, 0, 73, 0
2, 13776, Note_on_c, 0, 74, 80
2, 13799, Note_on_c, 0, 74, 0
2, 13800, Note_on_c, 0, 71, 80
2, 13823, Note_on_c, 0, 71, 0
2, 13824, Note_on_c, 0, 69, 80
2, 13913, Note_on_c, 0, 69, 0
2, 13968, Note_on_c, 0, 64, 75
2, 14013, Note_on_c, 0, 64, 0
2, 14016, Note_on_c, 0, 68, 75
2, 14039, Note_on_c, 0, 68, 0
2, 14040, Note_on_c, 0, 64, 75
2, 14063, Note_on_c, 0, 64, 0
2, 14064, Note_on_c, 0, 71, 75
2, 14087, Note_on_c, 0, 71, 0
2, 14088, Note_on_c, 0, 68, 75
2, 14111, Note_on_c, 0, 68, 0
2, 14112, Note_on_c, 0, 66, 75
2, 14157, Note_on_c, 0, 66, 0
2, 14160, Note_on_c, 0, 69, 75
2, 14183, Note_on_c, 0, 69, 0
2, 14184, Note_on_c, 0, 66, 75
2, 14207, Note_on_c, 0, 66, 0
2, 14208, Note_on_c, 0, 73, 75
2, 14231, Note_on_c, 0, 73, 0
2, 14232, Note_on_c, 0, 69, 75
2, 14255, Note_on_c, 0, 69, 0
2, 14256, Note_on_c, 0, 68, 75
2, 14301, Note_on_c, 0, 68, 0
2, 14304, Note_on_c, 0, 71, 75
2, 14327, Note_on_c, 0, 71, 0
2, 14328, Note_on_c, 0, 68, 75
2, 14351, Note_on_c, 0, 68, 0
2, 14352, Note_on_c, 0, 74, 75
2, 14375, Note_on_c, 0, 74, 0
2, 14376, Note_on_c, 0, 71, 75
2, 14399, Note_on_c, 0, 71, 0
2, 14400, Note_on_c, 0, 69, 75
2, 14445, Note_on_c, 0, 69, 0
2, 14448, Note_on_c, 0, 73, 75
2, 14471, Note_on_c, 0, 73, 0
2, 14472, Note_on_c, 0, 69, 76
2, 14495, Note_on_c, 0, 69, 0
2, 14496, Note_on_c, 0, 76, 77
2, 14519, Note_on_c, 0, 76, 0
2, 14520, Note_on_c, 0, 73, 78
2, 14543, Note_on_c, 0, 73, 0
2, 14544, Note_on_c, 0, 71, 80
2, 14567, Note_on_c, 0, 71, 0
2, 14568, Note_on_c, 0, 64, 80
2, 14591, Note_on_c, 0, 64, 0
2, 14592, Note_on_c, 0, 74, 80
2, 14615, Note_on_c, 0, 74, 0
2, 14616, Note_on_c, 0, 64, 80
2, 14639, Note_on_c, 0, 64, 0
2, 14640, Note_on_c, 0, 73, 80
2, 14663, Note_on_c, 0, 73, 0
2, 14664, Note_on_c, 0, 64, 80
2, 14687, Note_on_c, 0, 64, 0
2, 14688, Note_on_c, 0, 71, 80
2, 14711, Note_on_c, 0, 71, 0
2, 14712, Note_on_c, 0, 64, 80
2, 14735, Note_on_c, 0, 64, 0
2, 14736, Note_on_c, 0, 74, 80
2, 14759, Note_on_c, 0, 74, 0
2, 14760, Note_on_c, 0, 64, 80
2, 14783, Note_on_c, 0, 64, 0
2, 14784, Note_on_c, 0, 73, 80
2, 14807, Note_on_c, 0, 73, 0
2, 14808, Note_on_c, 0, 64, 80
2, 14831, Note_on_c, 0, 64, 0
2, 14832, Note_on_c, 0, 71, 80
2, 14844, Note_on_c, 0, 71, 0
2, 14844, Note_on_c, 0, 73, 80
2, 14856, Note_on_c, 0, 73, 0
2, 14856, Note_on_c, 0, 71, 80
2, 14921, Note_on_c, 0, 71, 0
2, 14976, Note_on_c, 0, 69, 75
2, 14988, Note_on_c, 0, 69, 0
2, 14988, Note_on_c, 0, 68, 75
2, 15000, Note_on_c, 0, 68, 0
2, 15000, Note_on_c, 0, 69, 75
2, 15021, Note_on_c, 0, 69, 0
2, 15120, Note_on_c, 0, 71, 75
2, 15132, Note_on_c, 0, 71, 0
2, 15132, Note_on_c, 0, 69, 75
2, 15144, Note_on_c, 0, 69, 0
2, 15144, Note_on_c, 0, 71, 75
2, 15165, Note_on_c, 0, 71, 0
2, 15264, Note_on_c, 0, 73, 75
2, 15276, Note_on_c, 0, 73, 0
2, 15276, Note_on_c, 0, 71, 75
2, 15288, Note_on_c, 0, 71, 0
2, 15288, Note_on_c, 0, 73, 75
2, 15309, Note_on_c, 0, 73, 0
2, 15408, Note_on_c, 0, 74, 75
2, 15420, Note_on_c, 0, 74, 0
2, 15420, Note_on_c, 0, 73, 75
2, 15432, Note_on_c, 0, 73, 0
2, 15432, Note_on_c, 0, 74, 75
2, 15453, Note_on_c, 0, 74, 0
2, 15552, Note_on_c, 0, 74, 75
2, 15575, Note_on_c, 0, 74, 0
2, 15576, Note_on_c, 0, 73, 75
2, 15599, Note_on_c, 0, 73, 0
2, 15600, Note_on_c, 0, 71, 75
2, 15623, Note_on_c, 0, 71, 0
2, 15624, Note_on_c, 0, 69, 75
2, 15647, Note_on_c, 0, 69, 0
2, 15648, Note_on_c, 0, 68, 75
2, 15671, Note_on_c, 0, 68, 0
2, 15672, Note_on_c, 0, 66, 75
2, 15695, Note_on_c, 0, 66, 0
2, 15696, Note_on_c, 0, 64, 75
2, 15785, Note_on_c, 0, 64, 0
2, 15792, Note_on_c, 0, 62, 75
2, 15804, Note_on_c, 0, 62, 0
2, 15804, Note_on_c, 0, 64, 75
2, 15816, Note_on_c, 0, 64, 0
2, 15816, Note_on_c, 0, 62, 75
2, 15837, Note_on_c, 0, 62, 0
2, 15840, Note_on_c, 0, 61, 75
2, 15885, Note_on_c, 0, 61, 0
2, 15888, Note_on_c, 0, 68, 75
2, 15900, Note_on_c, 0, 68, 0
2, 15900, Note_on_c, 0, 69, 75
2, 15934, Note_on_c, 0, 69, 0
2, 15936, Note_on_c, 0, 68, 75
2, 15948, Note_on_c, 0, 68, 0
2, 15948, Note_on_c, 0, 69, 75
2, 15982, Note_on_c, 0, 69, 0
2, 15984, Note_on_c, 0, 64, 75
2, 16073, Note_on_c, 0, 64, 0
2, 16080, Note_on_c, 0, 62, 75
2, 16092, Note_on_c, 0, 62, 0
2, 16092, Note_on_c, 0, 64, 75
2, 16104, Note_on_c, 0, 64, 0
2, 16104, Note_on_c, 0, 62, 75
2, 16125, Note_on_c, 0, 62, 0
2, 16128, Note_on_c, 0, 61, 75
2, 16217, Note_on_c, 0, 61, 0
2, 16272, Note_on_c, 0, 74, 75
2, 16284, Note_on_c, 0, 74, 0
2, 16284, Note_on_c, 0, 73, 75
2, 16296, Note_on_c, 0, 73, 0
2, 16296, Note_on_c, 0, 74, 75
2, 16317, Note_on_c, 0, 74, 0
2, 16416, Note_on_c, 0, 76, 77
2, 16428, Note_on_c, 0, 76, 0
2, 16428, Note_on_c, 0, 74, 77
2, 16440, Note_on_c, 0, 74, 0
2, 16440, Note_on_c, 0, 76, 77
2, 16461, Note_on_c, 0, 76, 0
2, 16560, Note_on_c, 0, 78, 79
2, 16572, Note_on_c, 0, 78, 0
2, 16572, Note_on_c, 0, 76, 79
2, 16584, Note_on_c, 0, 76, 0
2, 16584, Note_on_c, 0, 78, 79
2, 16605, Note_on_c, 0, 78, 0
2, 16704, Note_on_c, 0, 86, 80
2, 16727, Note_on_c, 0, 86, 0
2, 16728, Note_on_c, 0, 85, 80
2, 16751, Note_on_c, 0, 85, 0
2, 16752, Note_on_c, 0, 83, 80
2, 16775, Note_on_c, 0, 83, 0
2, 16776, Note_on_c, 0, 81, 80
2, 16799, Note_on_c, 0, 81, 0
2, 16800, Note_on_c, 0, 80, 80
2, 16823, Note_on_c, 0, 80, 0
2, 16824, Note_on_c, 0, 78, 80
2, 16847, Note_on_c, 0, 78, 0
2, 16848, Note_on_c, 0, 76, 80
2, 16893, Note_on_c, 0, 76, 0
2, 16992, Note_on_c, 0, 85, 80
2, 17015, Note_on_c, 0, 85, 0
2, 17016, Note_on_c, 0, 83, 80
2, 17039, Note_on_c, 0, 83, 0
2, 17040, Note_on_c, 0, 81, 80
2, 17063, Note_on_c, 0, 81, 0
2, 17064, Note_on_c, 0, 80, 80
2, 17087, Note_on_c, 0, 80, 0
2, 17088, Note_on_c, 0, 78, 80
2, 17111, Note_on_c, 0, 78, 0
2, 17112, Note_on_c, 0, 76, 80
2, 17135, Note_on_c, 0, 76, 0
2, 17136, Note_on_c, 0, 74, 80
2, 17181, Note_on_c, 0, 74, 0
2, 17280, Note_on_c, 0, 83, 80
2, 17303, Note_on_c, 0, 83, 0
2, 17304, Note_on_c, 0, 81, 80
2, 17327, Note_on_c, 0, 81, 0
2, 17328, Note_on_c, 0, 80, 80
2, 17351, Note_on_c, 0, 80, 0
2, 17352, Note_on_c, 0, 78, 80
2, 17375, Note_on_c, 0, 78, 0
2, 17376, Note_on_c, 0, 76, 80
2, 17399, Note_on_c, 0, 76, 0
2, 17400, Note_on_c, 0, 74, 80
2, 17423, Note_on_c, 0, 74, 0
2, 17424, Note_on_c, 0, 73, 80
2, 17447, Note_on_c, 0, 73, 0
2, 17448, Note_on_c, 0, 76, 80
2, 17471, Note_on_c, 0, 76, 0
2, 17472, Note_on_c, 0, 74, 80
2, 17495, Note_on_c, 0, 74, 0
2, 17496, Note_on_c, 0, 73, 80
2, 17519, Note_on_c, 0, 73, 0
2, 17520, Note_on_c, 0, 71, 80
2, 17543, Note_on_c, 0, 71, 0
2, 17544, Note_on_c, 0, 69, 80
2, 17567, Note_on_c, 0, 69, 0
2, 17568, Note_on_c, 0, 78, 80
2, 17591, Note_on_c, 0, 78, 0
2, 17592, Note_on_c, 0, 76, 80
2, 17615, Note_on_c, 0, 76, 0
2, 17616, Note_on_c, 0, 74, 80
2, 17639, Note_on_c, 0, 74, 0
2, 17640, Note_on_c, 0, 73, 80
2, 17663, Note_on_c, 0, 73, 0
2, 17664, Note_on_c, 0, 71, 80
2, 17687, Note_on_c, 0, 71, 0
2, 17688, Note_on_c, 0, 69, 80
2, 17711, Note_on_c, 0, 69, 0
2, 17712, Note_on_c, 0, 69, 80
2, 17760, Note_on_c, 0, 69, 0
2, 17760, Note_on_c, 0, 68, 80
2, 17801, Note_on_c, 0, 68, 0
2, 17856, Note_on_c, 0, 76, 75
2, 17879, Note_on_c, 0, 76, 0
2, 17880, Note_on_c, 0, 73, 74
2, 17903, Note_on_c, 0, 73, 0
2, 17904, Note_on_c, 0, 69, 73
2, 17927, Note_on_c, 0, 69, 0
2, 17928, Note_on_c, 0, 64, 72
2, 17951, Note_on_c, 0, 64, 0
2, 17952, Note_on_c, 0, 68, 71
2, 17975, Note_on_c, 0, 68, 0
2, 17976, Note_on_c, 0, 64, 70
2, 17999, Note_on_c, 0, 64, 0
2, 18000, Note_on_c, 0, 69, 70
2, 18023, Note_on_c, 0, 69, 0
2, 18024, Note_on_c, 0, 64, 70
2, 18047, Note_on_c, 0, 64, 0
2, 18048, Note_on_c, 0, 71, 71
2, 18071, Note_on_c, 0, 71, 0
2, 18072, Note_on_c, 0, 64, 72
2, 18095, Note_on_c, 0, 64, 0
2, 18096, Note_on_c, 0, 73, 73
2, 18119, Note_on_c, 0, 73, 0
2, 18120, Note_on_c, 0, 64, 74
2, 18143, Note_on_c, 0, 64, 0
2, 18144, Note_on_c, 0, 76, 70
2, 18167, Note_on_c, 0, 76, 0
2, 18168, Note_on_c, 0, 72, 69
2, 18191, Note_on_c, 0, 72, 0
2, 18192, Note_on_c, 0, 69, 68
2, 18215, Note_on_c, 0, 69, 0
2, 18216, Note_on_c, 0, 64, 67
2, 18239, Note_on_c, 0, 64, 0
2, 18240, Note_on_c, 0, 68, 66
2, 18263, Note_on_c, 0, 68, 0
2, 18264, Note_on_c, 0, 64, 65
2, 18287, Note_on_c, 0, 64, 0
2, 18288, Note_on_c, 0, 69, 64
2, 18311, Note_on_c, 0, 69, 0
2, 18312, Note_on_c, 0, 64, 65
2, 18335, Note_on_c, 0, 64, 0
2, 18336, Note_on_c, 0, 71, 66
2, 18359, Note_on_c, 0, 71, 0
2, 18360, Note_on_c, 0, 64, 67
2, 18383, Note_on_c, 0, 64, 0
2, 18384, Note_on_c, 0, 72, 68
2, 18407, Note_on_c, 0, 72, 0
2, 18408, Note_on_c, 0, 64, 69
2, 18431, Note_on_c, 0, 64, 0
2, 18432, Note_on_c, 0, 76, 75
2, 18455, Note_on_c, 0, 76, 0
2, 18456, Note_on_c, 0, 73, 74
2, 18479, Note_on_c, 0, 73, 0
2, 18480, Note_on_c, 0, 69, 73
2, 18503, Note_on_c, 0, 69, 0
2, 18504, Note_on_c, 0, 64, 72
2, 18527, Note_on_c, 0, 64, 0
2, 18528, Note_on_c, 0, 68, 71
2, 18551, Note_on_c, 0, 68, 0
2, 18552, Note_on_c, 0, 64, 70
2, 18575, Note_on_c, 0, 64, 0
2, 18576, Note_on_c, 0, 69, 70
2, 18599, Note_on_c, 0, 69, 0
2, 18600, Note_on_c, 0, 64, 70
2, 18623, Note_on_c, 0, 64, 0
2, 18624, Note_on_c, 0, 71, 71
2, 18647, Note_on_c, 0, 71, 0
2, 18648, Note_on_c, 0, 64, 72
2, 18671, Note_on_c, 0, 64, 0
2, 18672, Note_on_c, 0, 73, 73
2, 18695, Note_on_c, 0, 73, 0
2, 18696, Note_on_c, 0, 64, 74
2, 18719, Note_on_c, 0, 64, 0
2, 18720, Note_on_c, 0, 76, 75
2, 18743, Note_on_c, 0, 76, 0
2, 18744, Note_on_c, 0, 74, 75
2, 18767, Note_on_c, 0, 74, 0
2, 18768, Note_on_c, 0, 73, 75
2, 18791, Note_on_c, 0, 73, 0
2, 18792, Note_on_c, 0, 71, 75
2, 18815, Note_on_c, 0, 71, 0
2, 18816, Note_on_c, 0, 69, 75
2, 18839, Note_on_c, 0, 69, 0
2, 18840, Note_on_c, 0, 67, 75
2, 18863, Note_on_c, 0, 67, 0
2, 18864, Note_on_c, 0, 66, 75
2, 18909, Note_on_c, 0, 66, 0
2, 18912, Note_on_c, 0, 78, 76
2, 18957, Note_on_c, 0, 78, 0
2, 18960, Note_on_c, 0, 78, 77
2, 19005, Note_on_c, 0, 78, 0
2, 19008, Note_on_c, 0, 78, 79
2, 19031, Note_on_c, 0, 78, 0
2, 19032, Note_on_c, 0, 81, 80
2, 19055, Note_on_c, 0, 81, 0
2, 19056, Note_on_c, 0, 80, 80
2, 19079, Note_on_c, 0, 80, 0
2, 19080, Note_on_c, 0, 78, 80
2, 19103, Note_on_c, 0, 78, 0
2, 19104, Note_on_c, 0, 76, 80
2, 19127, Note_on_c, 0, 76, 0
2, 19128, Note_on_c, 0, 74, 80
2, 19151, Note_on_c, 0, 74, 0
2, 19152, Note_on_c, 0, 73, 80
2, 19175, Note_on_c, 0, 73, 0
2, 19176, Note_on_c, 0, 76, 80
2, 19199, Note_on_c, 0, 76, 0
2, 19200, Note_on_c, 0, 74, 80
2, 19223, Note_on_c, 0, 74, 0
2, 19224, Note_on_c, 0, 73, 80
2, 19247, Note_on_c, 0, 73, 0
2, 19248, Note_on_c, 0, 71, 80
2, 19271, Note_on_c, 0, 71, 0
2, 19272, Note_on_c, 0, 69, 80
2, 19295, Note_on_c, 0, 69, 0
2, 19296, Note_on_c, 0, 73, 80
2, 19310, Note_on_c, 0, 73, 0
2, 19311, Note_on_c, 0, 71, 80
2, 19325, Note_on_c, 0, 71, 0
2, 19326, Note_on_c, 0, 73, 80
2, 19340, Note_on_c, 0, 73, 0
2, 19341, Note_on_c, 0, 71, 80
2, 19355, Note_on_c, 0, 71, 0
2, 19356, Note_on_c, 0, 73, 80
2, 19369, Note_on_c, 0, 73, 0
2, 19370, Note_on_c, 0, 71, 80
2, 19383, Note_on_c, 0, 71, 0
2, 19384, Note_on_c, 0, 73, 80
2, 19397, Note_on_c, 0, 73, 0
2, 19398, Note_on_c, 0, 71, 80
2, 19411, Note_on_c, 0, 71, 0
2, 19412, Note_on_c, 0, 69, 80
2, 19425, Note_on_c, 0, 69, 0
2, 19426, Note_on_c, 0, 71, 80
2, 19439, Note_on_c, 0, 71, 0
2, 19440, Note_on_c, 0, 69, 80
2, 19485, Note_on_c, 0, 69, 0
2, 19488, Note_on_c, 0, 76, 80
2, 19511, Note_on_c, 0, 76, 0
2, 19512, Note_on_c, 0, 73, 80
2, 19535, Note_on_c, 0, 73, 0
2, 19536, Note_on_c, 0, 74, 80
2, 19559, Note_on_c, 0, 74, 0
2, 19560, Note_on_c, 0, 71, 80
2, 19583, Note_on_c, 0, 71, 0
2, 19584, Note_on_c, 0, 69, 80
2, 19629, Note_on_c, 0, 69, 0
2, 19632, Note_on_c, 0, 76, 80
2, 19655, Note_on_c, 0, 76, 0
2, 19656, Note_on_c, 0, 73, 80
2, 19679, Note_on_c, 0, 73, 0
2, 19680, Note_on_c, 0, 74, 80
2, 19703, Note_on_c, 0, 74, 0
2, 19704, Note_on_c, 0, 71, 80
2, 19727, Note_on_c, 0, 71, 0
2, 19728, Note_on_c, 0, 69, 80
2, 19817, Note_on_c, 0, 69, 0
2, 19872, End_track
3, 0, Start_track
3, 0, Program_c, 0, 0
3, 0, Control_c, 0, 7, 127
3, 0, Control_c, 0, 10, 64
3, 19872, End_track
4, 0, Start_track
4, 0, Program_c, 1, 0
4, 0, Control_c, 1, 7, 127
4, 0, Control_c, 1, 10, 64
4, 0, Note_on_c, 1, 57, 64
4, 23, Note_on_c, 1, 57, 0
4, 24, Note_on_c, 1, 64, 64
4, 47, Note_on_c, 1, 64, 0
4, 48, Note_on_c, 1, 61, 64
4, 71, Note_on_c, 1, 61, 0
4, 72, Note_on_c, 1, 64, 64
4, 95, Note_on_c, 1, 64, 0
4, 96, Note_on_c, 1, 57, 64
4, 119, Note_on_c, 1, 57, 0
4, 120, Note_on_c, 1, 64, 64
4, 143, Note_on_c, 1, 64, 0
4, 144, Note_on_c, 1, 56, 64
4, 167, Note_on_c, 1, 56, 0
4, 168, Note_on_c, 1, 64, 64
4, 191, Note_on_c, 1, 64, 0
4, 192, Note_on_c, 1, 59, 64
4, 215, Note_on_c, 1, 59, 0
4, 216, Note_on_c, 1, 64, 64
4, 239, Note_on_c, 1, 64, 0
4, 240, Note_on_c, 1, 56, 64
4, 263, Note_on_c, 1, 56, 0
4, 264, Note_on_c, 1, 64, 64
4, 287, Note_on_c, 1, 64, 0
4, 288, Note_on_c, 1, 57, 64
4, 311, Note_on_c, 1, 57, 0
4, 312, Note_on_c, 1, 64, 64
4, 335, Note_on_c, 1, 64, 0
4, 336, Note_on_c, 1, 61, 64
4, 359, Note_on_c, 1, 61, 0
4, 360, Note_on_c, 1, 64, 64
4, 383, Note_on_c, 1, 64, 0
4, 384, Note_on_c, 1, 57, 64
4, 407, Note_on_c, 1, 57, 0
4, 408, Note_on_c, 1, 64, 64
4, 431, Note_on_c, 1, 64, 0
4, 432, Note_on_c, 1, 56, 64
4, 455, Note_on_c, 1, 56, 0
4, 456, Note_on_c, 1, 64, 64
4, 479, Note_on_c, 1, 64, 0
4, 480, Note_on_c, 1, 59, 64
4, 503, Note_on_c, 1, 59, 0
4, 504, Note_on_c, 1, 64, 64
4, 527, Note_on_c, 1, 64, 0
4, 528, Note_on_c, 1, 56, 64
4, 551, Note_on_c, 1, 56, 0
4, 552, Note_on_c, 1, 64, 64
4, 575, Note_on_c, 1, 64, 0
4, 576, Note_on_c, 1, 57, 64
4, 665, Note_on_c, 1, 57, 0
4, 720, Note_on_c, 1, 61, 64
4, 720, Note_on_c, 1, 52, 64
4, 767, Note_on_c, 1, 61, 0
4, 767, Note_on_c, 1, 52, 0
4, 768, Note_on_c, 1, 61, 64
4, 768, Note_on_c, 1, 52, 64
4, 815, Note_on_c, 1, 61, 0
4, 815, Note_on_c, 1, 52, 0
4, 816, Note_on_c, 1, 59, 64
4, 816, Note_on_c, 1, 52, 64
4, 863, Note_on_c, 1, 59, 0
4, 863, Note_on_c, 1, 52, 0
4, 864, Note_on_c, 1, 57, 64
4, 953, Note_on_c, 1, 57, 0
4, 1008, Note_on_c, 1, 62, 64
4, 1031, Note_on_c, 1, 62, 0
4, 1032, Note_on_c, 1, 69, 64
4, 1055, Note_on_c, 1, 69, 0
4, 1056, Note_on_c, 1, 66, 64
4, 1079, Note_on_c, 1, 66, 0
4, 1080, Note_on_c, 1, 69, 64
4, 1103, Note_on_c, 1, 69, 0
4, 1104, Note_on_c, 1, 62, 64
4, 1127, Note_on_c, 1, 62, 0
4, 1128, Note_on_c, 1, 69, 64
4, 1151, Note_on_c, 1, 69, 0
4, 1152, Note_on_c, 1, 61, 64
4, 1175, Note_on_c, 1, 61, 0
4, 1176, Note_on_c, 1, 69, 64
4, 1199, Note_on_c, 1, 69, 0
4, 1200, Note_on_c, 1, 64, 64
4, 1223, Note_on_c, 1, 64, 0
4, 1224, Note_on_c, 1, 69, 64
4, 1247, Note_on_c, 1, 69, 0
4, 1248, Note_on_c, 1, 61, 64
4, 1271, Note_on_c, 1, 61, 0
4, 1272, Note_on_c, 1, 69, 64
4, 1295, Note_on_c, 1, 69, 0
4, 1296, Note_on_c, 1, 62, 64
4, 1319, Note_on_c, 1, 62, 0
4, 1320, Note_on_c, 1, 69, 64
4, 1343, Note_on_c, 1, 69, 0
4, 1344, Note_on_c, 1, 66, 64
4, 1367, Note_on_c, 1, 66, 0
4, 1368, Note_on_c, 1, 69, 64
4, 1391, Note_on_c, 1, 69, 0
4, 1392, Note_on_c, 1, 62, 64
4, 1415, Note_on_c, 1, 62, 0
4, 1416, Note_on_c, 1, 69, 64
4, 1439, Note_on_c, 1, 69, 0
4, 1440, Note_on_c, 1, 61, 64
4, 1463, Note_on_c, 1, 61, 0
4, 1464, Note_on_c, 1, 69, 64
4, 1487, Note_on_c, 1, 69, 0
4, 1488, Note_on_c, 1, 64, 64
4, 1511, Note_on_c, 1, 64, 0
4, 1512, Note_on_c, 1, 69, 64
4, 1535, Note_on_c, 1, 69, 0
4, 1536, Note_on_c, 1, 61, 64
4, 1559, Note_on_c, 1, 61, 0
4, 1560, Note_on_c, 1, 69, 64
4, 1583, Note_on_c, 1, 69, 0
4, 1584, Note_on_c, 1, 59, 64
4, 1629, Note_on_c, 1, 59, 0
4, 1632, Note_on_c, 1, 68, 64
4, 1677, Note_on_c, 1, 68, 0
4, 1680, Note_on_c, 1, 69, 64
4, 1725, Note_on_c, 1, 69, 0
4, 1728, Note_on_c, 1, 62, 64
4, 1817, Note_on_c, 1, 62, 0
4, 1824, Note_on_c, 1, 63, 64
4, 1869, Note_on_c, 1, 63, 0
4, 1872, Note_on_c, 1, 64, 64
4, 1917, Note_on_c, 1, 64, 0
4, 1920, Note_on_c, 1, 52, 64
4, 1965, Note_on_c, 1, 52, 0
4, 2112, Note_on_c, 1, 69, 64
4, 2157, Note_on_c, 1, 69, 0
4, 2160, Note_on_c, 1, 68, 64
4, 2205, Note_on_c, 1, 68, 0
4, 2208, Note_on_c, 1, 66, 64
4, 2253, Note_on_c, 1, 66, 0
4, 2256, Note_on_c, 1, 64, 64
4, 2301, Note_on_c, 1, 64, 0
4, 2400, Note_on_c, 1, 69, 64
4, 2445, Note_on_c, 1, 69, 0
4, 2448, Note_on_c, 1, 67, 64
4, 2493, Note_on_c, 1, 67, 0
4, 2496, Note_on_c, 1, 66, 64
4, 2541, Note_on_c, 1, 66, 0
4, 2544, Note_on_c, 1, 64, 64
4, 2589, Note_on_c, 1, 64, 0
4, 2688, Note_on_c, 1, 69, 64
4, 2733, Note_on_c, 1, 69, 0
4, 2736, Note_on_c, 1, 68, 64
4, 2781, Note_on_c, 1, 68, 0
4, 2784, Note_on_c, 1, 66, 64
4, 2829, Note_on_c, 1, 66, 0
4, 2832, Note_on_c, 1, 64, 64
4, 2877, Note_on_c, 1, 64, 0
4, 3024, Note_on_c, 1, 64, 64
4, 3024, Note_on_c, 1, 57, 64
4, 3071, Note_on_c, 1, 64, 0
4, 3071, Note_on_c, 1, 57, 0
4, 3072, Note_on_c, 1, 64, 64
4, 3072, Note_on_c, 1, 57, 64
4, 3119, Note_on_c, 1, 64, 0
4, 3119, Note_on_c, 1, 57, 0
4, 3120, Note_on_c, 1, 64, 64
4, 3120, Note_on_c, 1, 57, 64
4, 3167, Note_on_c, 1, 64, 0
4, 3167, Note_on_c, 1, 57, 0
4, 3168, Note_on_c, 1, 64, 64
4, 3168, Note_on_c, 1, 57, 64
4, 3257, Note_on_c, 1, 64, 0
4, 3257, Note_on_c, 1, 57, 0
4, 3312, Note_on_c, 1, 52, 64
4, 3312, Note_on_c, 1, 47, 64
4, 3401, Note_on_c, 1, 52, 0
4, 3401, Note_on_c, 1, 47, 0
4, 3456, Note_on_c, 1, 51, 64
4, 3456, Note_on_c, 1, 47, 64
4, 3503, Note_on_c, 1, 51, 0
4, 3503, Note_on_c, 1, 47, 0
4, 3504, Note_on_c, 1, 51, 64
4, 3504, Note_on_c, 1, 47, 64
4, 3551, Note_on_c, 1, 51, 0
4, 3551, Note_on_c, 1, 47, 0
4, 3552, Note_on_c, 1, 51, 64
4, 3552, Note_on_c, 1, 47, 64
4, 3599, Note_on_c, 1, 51, 0
4, 3599, Note_on_c, 1, 47, 0
4, 3600, Note_on_c, 1, 52, 75
4, 3645, Note_on_c, 1, 52, 0
4, 3696, Note_on_c, 1, 47, 75
4, 3741, Note_on_c, 1, 47, 0
4, 3744, Note_on_c, 1, 52, 75
4, 3789, Note_on_c, 1, 52, 0
4, 3840, Note_on_c, 1, 47, 75
4, 3885, Note_on_c, 1, 47, 0
4, 3888, Note_on_c, 1, 52, 75
4, 3977, Note_on_c, 1, 52, 0
4, 4032, Note_on_c, 1, 57, 64
4, 4055, Note_on_c, 1, 57, 0
4, 4056, Note_on_c, 1, 64, 64
4, 4079, Note_on_c, 1, 64, 0
4, 4080, Note_on_c, 1, 61, 64
4, 4103, Note_on_c, 1, 61, 0
4, 4104, Note_on_c, 1, 64, 64
4, 4127, Note_on_c, 1, 64, 0
4, 4128, Note_on_c, 1, 57, 64
4, 4151, Note_on_c, 1, 57, 0
4, 4152, Note_on_c, 1, 64, 64
4, 4175, Note_on_c, 1, 64, 0
4, 4176, Note_on_c, 1, 56, 64
4, 4199, Note_on_c, 1, 56, 0
4, 4200, Note_on_c, 1, 64, 64
4, 4223, Note_on_c, 1, 64, 0
4, 4224, Note_on_c, 1, 59, 64
4, 4247, Note_on_c, 1, 59, 0
4, 4248, Note_on_c, 1, 64, 64
4, 4271, Note_on_c, 1, 64, 0
4, 4272, Note_on_c, 1, 56, 64
4, 4295, Note_on_c, 1, 56, 0
4, 4296, Note_on_c, 1, 64, 64
4, 4319, Note_on_c, 1, 64, 0
4, 4320, Note_on_c, 1, 57, 64
4, 4343, Note_on_c, 1, 57, 0
4, 4344, Note_on_c, 1, 64, 64
4, 4367, Note_on_c, 1, 64, 0
4, 4368, Note_on_c, 1, 61, 64
4, 4391, Note_on_c, 1, 61, 0
4, 4392, Note_on_c, 1, 64, 64
4, 4415, Note_on_c, 1, 64, 0
4, 4416, Note_on_c, 1, 57, 64
4, 4439, Note_on_c, 1, 57, 0
4, 4440, Note_on_c, 1, 64, 64
4, 4463, Note_on_c, 1, 64, 0
4, 4464, Note_on_c, 1, 56, 64
4, 4487, Note_on_c, 1, 56, 0
4, 4488, Note_on_c, 1, 64, 64
4, 4511, Note_on_c, 1, 64, 0
4, 4512, Note_on_c, 1, 59, 64
4, 4535, Note_on_c, 1, 59, 0
4, 4536, Note_on_c, 1, 64, 64
4, 4559, Note_on_c, 1, 64, 0
4, 4560, Note_on_c, 1, 56, 64
4, 4583, Note_on_c, 1, 56, 0
4, 4584, Note_on_c, 1, 64, 64
4, 4607, Note_on_c, 1, 64, 0
4, 4608, Note_on_c, 1, 57, 64
4, 4697, Note_on_c, 1, 57, 0
4, 4752, Note_on_c, 1, 61, 64
4, 4752, Note_on_c, 1, 52, 64
4, 4799, Note_on_c, 1, 61, 0
4, 4799, Note_on_c, 1, 52, 0
4, 4800, Note_on_c, 1, 61, 64
4, 4800, Note_on_c, 1, 52, 64
4, 4847, Note_on_c, 1, 61, 0
4, 4847, Note_on_c, 1, 52, 0
4, 4848, Note_on_c, 1, 59, 64
4, 4848, Note_on_c, 1, 52, 64
4, 4895, Note_on_c, 1, 59, 0
4, 4895, Note_on_c, 1, 52, 0
4, 4896, Note_on_c, 1, 57, 64
4, 4985, Note_on_c, 1, 57, 0
4, 5040, Note_on_c, 1, 62, 64
4, 5063, Note_on_c, 1, 62, 0
4, 5064, Note_on_c, 1, 69, 64
4, 5087, Note_on_c, 1, 69, 0
4, 5088, Note_on_c, 1, 66, 64
4, 5111, Note_on_c, 1, 66, 0
4, 5112, Note_on_c, 1, 69, 64
4, 5135, Note_on_c, 1, 69, 0
4, 5136, Note_on_c, 1, 62, 64
4, 5159, Note_on_c, 1, 62, 0
4, 5160, Note_on_c, 1, 69, 64
4, 5183, Note_on_c, 1, 69, 0
4, 5184, Note_on_c, 1, 61, 64
4, 5207, Note_on_c, 1, 61, 0
4, 5208, Note_on_c, 1, 69, 64
4, 5231, Note_on_c, 1, 69, 0
4, 5232, Note_on_c, 1, 64, 64
4, 5255, Note_on_c, 1, 64, 0
4, 5256, Note_on_c, 1, 69, 64
4, 5279, Note_on_c, 1, 69, 0
4, 5280, Note_on_c, 1, 61, 64
4, 5303, Note_on_c, 1, 61, 0
4, 5304, Note_on_c, 1, 69, 64
4, 5327, Note_on_c, 1, 69, 0
4, 5328, Note_on_c, 1, 62, 64
4, 5351, Note_on_c, 1, 62, 0
4, 5352, Note_on_c, 1, 69, 64
4, 5375, Note_on_c, 1, 69, 0
4, 5376, Note_on_c, 1, 66, 64
4, 5399, Note_on_c, 1, 66, 0
4, 5400, Note_on_c, 1, 69, 64
4, 5423, Note_on_c, 1, 69, 0
4, 5424, Note_on_c, 1, 62, 64
4, 5447, Note_on_c, 1, 62, 0
4, 5448, Note_on_c, 1, 69, 64
4, 5471, Note_on_c, 1, 69, 0
4, 5472, Note_on_c, 1, 61, 64
4, 5495, Note_on_c, 1, 61, 0
4, 5496, Note_on_c, 1, 69, 64
4, 5519, Note_on_c, 1, 69, 0
4, 5520, Note_on_c, 1, 64, 64
4, 5543, Note_on_c, 1, 64, 0
4, 5544, Note_on_c, 1, 69, 64
4, 5567, Note_on_c, 1, 69, 0
4, 5568, Note_on_c, 1, 61, 64
4, 5591, Note_on_c, 1, 61, 0
4, 5592, Note_on_c, 1, 69, 64
4, 5615, Note_on_c, 1, 69, 0
4, 5616, Note_on_c, 1, 59, 64
4, 5661, Note_on_c, 1, 59, 0
4, 5664, Note_on_c, 1, 68, 64
4, 5709, Note_on_c, 1, 68, 0
4, 5712, Note_on_c, 1, 69, 64
4, 5757, Note_on_c, 1, 69, 0
4, 5760, Note_on_c, 1, 62, 64
4, 5849, Note_on_c, 1, 62, 0
4, 5856, Note_on_c, 1, 63, 64
4, 5901, Note_on_c, 1, 63, 0
4, 5904, Note_on_c, 1, 64, 64
4, 5949, Note_on_c, 1, 64, 0
4, 5952, Note_on_c, 1, 52, 64
4, 5997, Note_on_c, 1, 52, 0
4, 6144, Note_on_c, 1, 69, 64
4, 6189, Note_on_c, 1, 69, 0
4, 6192, Note_on_c, 1, 68, 64
4, 6237, Note_on_c, 1, 68, 0
4, 6240, Note_on_c, 1, 66, 64
4, 6285, Note_on_c, 1, 66, 0
4, 6288, Note_on_c, 1, 64, 64
4, 6333, Note_on_c, 1, 64, 0
4, 6432, Note_on_c, 1, 69, 64
4, 6477, Note_on_c, 1, 69, 0
4, 6480, Note_on_c, 1, 67, 64
4, 6525, Note_on_c, 1, 67, 0
4, 6528, Note_on_c, 1, 66, 64
4, 6573, Note_on_c, 1, 66, 0
4, 6576, Note_on_c, 1, 64, 64
4, 6621, Note_on_c, 1, 64, 0
4, 6720, Note_on_c, 1, 69, 64
4, 6765, Note_on_c, 1, 69, 0
4, 6768, Note_on_c, 1, 68, 64
4, 6813, Note_on_c, 1, 68, 0
4, 6816, Note_on_c, 1, 66, 64
4, 6861, Note_on_c, 1, 66, 0
4, 6864, Note_on_c, 1, 64, 64
4, 6909, Note_on_c, 1, 64, 0
4, 7056, Note_on_c, 1, 64, 64
4, 7056, Note_on_c, 1, 57, 64
4, 7103, Note_on_c, 1, 64, 0
4, 7103, Note_on_c, 1, 57, 0
4, 7104, Note_on_c, 1, 64, 64
4, 7104, Note_on_c, 1, 57, 64
4, 7151, Note_on_c, 1, 64, 0
4, 7151, Note_on_c, 1, 57, 0
4, 7152, Note_on_c, 1, 64, 64
4, 7152, Note_on_c, 1, 57, 64
4, 7199, Note_on_c, 1, 64, 0
4, 7199, Note_on_c, 1, 57, 0
4, 7200, Note_on_c, 1, 64, 64
4, 7200, Note_on_c, 1, 57, 64
4, 7289, Note_on_c, 1, 64, 0
4, 7289, Note_on_c, 1, 57, 0
4, 7344, Note_on_c, 1, 52, 64
4, 7344, Note_on_c, 1, 47, 64
4, 7433, Note_on_c, 1, 52, 0
4, 7433, Note_on_c, 1, 47, 0
4, 7488, Note_on_c, 1, 51, 64
4, 7488, Note_on_c, 1, 47, 64
4, 7535, Note_on_c, 1, 51, 0
4, 7535, Note_on_c, 1, 47, 0
4, 7536, Note_on_c, 1, 51, 64
4, 7536, Note_on_c, 1, 47, 64
4, 7583, Note_on_c, 1, 51, 0
4, 7583, Note_on_c, 1, 47, 0
4, 7584, Note_on_c, 1, 51, 64
4, 7584, Note_on_c, 1, 47, 64
4, 7631, Note_on_c, 1, 51, 0
4, 7631, Note_on_c, 1, 47, 0
4, 7632, Note_on_c, 1, 52, 75
4, 7677, Note_on_c, 1, 52, 0
4, 7728, Note_on_c, 1, 47, 75
4, 7773, Note_on_c, 1, 47, 0
4, 7776, Note_on_c, 1, 52, 75
4, 7821, Note_on_c, 1, 52, 0
4, 7872, Note_on_c, 1, 47, 75
4, 7917, Note_on_c, 1, 47, 0
4, 7920, Note_on_c, 1, 52, 75
4, 8009, Note_on_c, 1, 52, 0
4, 8064, Note_on_c, 1, 52, 75
4, 8197, Note_on_c, 1, 52, 0
4, 8208, Note_on_c, 1, 51, 75
4, 8341, Note_on_c, 1, 51, 0
4, 8352, Note_on_c, 1, 50, 75
4, 8485, Note_on_c, 1, 50, 0
4, 8496, Note_on_c, 1, 49, 75
4, 8629, Note_on_c, 1, 49, 0
4, 8640, Note_on_c, 1, 56, 80
4, 8685, Note_on_c, 1, 56, 0
4, 8688, Note_on_c, 1, 59, 80
4, 8733, Note_on_c, 1, 59, 0
4, 8736, Note_on_c, 1, 57, 80
4, 8781, Note_on_c, 1, 57, 0
4, 8784, Note_on_c, 1, 56, 80
4, 8829, Note_on_c, 1, 56, 0
4, 8832, Note_on_c, 1, 59, 80
4, 8877, Note_on_c, 1, 59, 0
4, 8880, Note_on_c, 1, 57, 80
4, 8925, Note_on_c, 1, 57, 0
4, 8928, Note_on_c, 1, 56, 80
4, 8928, Note_on_c, 1, 52, 80
4, 9017, Note_on_c, 1, 56, 0
4, 9017, Note_on_c, 1, 52, 0
4, 9072, Note_on_c, 1, 57, 64
4, 9095, Note_on_c, 1, 57, 0
4, 9096, Note_on_c, 1, 64, 64
4, 9119, Note_on_c, 1, 64, 0
4, 9120, Note_on_c, 1, 61, 64
4, 9143, Note_on_c, 1, 61, 0
4, 9144, Note_on_c, 1, 64, 64
4, 9167, Note_on_c, 1, 64, 0
4, 9168, Note_on_c, 1, 57, 64
4, 9191, Note_on_c, 1, 57, 0
4, 9192, Note_on_c, 1, 64, 64
4, 9215, Note_on_c, 1, 64, 0
4, 9216, Note_on_c, 1, 56, 64
4, 9239, Note_on_c, 1, 56, 0
4, 9240, Note_on_c, 1, 64, 64
4, 9263, Note_on_c, 1, 64, 0
4, 9264, Note_on_c, 1, 59, 64
4, 9287, Note_on_c, 1, 59, 0
4, 9288, Note_on_c, 1, 64, 64
4, 9311, Note_on_c, 1, 64, 0
4, 9312, Note_on_c, 1, 56, 64
4, 9335, Note_on_c, 1, 56, 0
4, 9336, Note_on_c, 1, 64, 64
4, 9359, Note_on_c, 1, 64, 0
4, 9360, Note_on_c, 1, 57, 64
4, 9383, Note_on_c, 1, 57, 0
4, 9384, Note_on_c, 1, 64, 64
4, 9407, Note_on_c, 1, 64, 0
4, 9408, Note_on_c, 1, 61, 64
4, 9431, Note_on_c, 1, 61, 0
4, 9432, Note_on_c, 1, 64, 64
4, 9455, Note_on_c, 1, 64, 0
4, 9456, Note_on_c, 1, 57, 64
4, 9479, Note_on_c, 1, 57, 0
4, 9480, Note_on_c, 1, 64, 64
4, 9503, Note_on_c, 1, 64, 0
4, 9504, Note_on_c, 1, 56, 64
4, 9527, Note_on_c, 1, 56, 0
4, 9528, Note_on_c, 1, 64, 64
4, 9551, Note_on_c, 1, 64, 0
4, 9552, Note_on_c, 1, 59, 64
4, 9575, Note_on_c, 1, 59, 0
4, 9576, Note_on_c, 1, 64, 64
4, 9599, Note_on_c, 1, 64, 0
4, 9600, Note_on_c, 1, 56, 64
4, 9623, Note_on_c, 1, 56, 0
4, 9624, Note_on_c, 1, 64, 64
4, 9647, Note_on_c, 1, 64, 0
4, 9648, Note_on_c, 1, 57, 64
4, 9737, Note_on_c, 1, 57, 0
4, 9792, Note_on_c, 1, 61, 64
4, 9792, Note_on_c, 1, 52, 64
4, 9839, Note_on_c, 1, 61, 0
4, 9839, Note_on_c, 1, 52, 0
4, 9840, Note_on_c, 1, 61, 64
4, 9840, Note_on_c, 1, 52, 64
4, 9887, Note_on_c, 1, 61, 0
4, 9887, Note_on_c, 1, 52, 0
4, 9888, Note_on_c, 1, 59, 64
4, 9888, Note_on_c, 1, 52, 64
4, 9935, Note_on_c, 1, 59, 0
4, 9935, Note_on_c, 1, 52, 0
4, 9936, Note_on_c, 1, 57, 64
4, 10025, Note_on_c, 1, 57, 0
4, 10080, Note_on_c, 1, 61, 64
4, 10080, Note_on_c, 1, 52, 64
4, 10127, Note_on_c, 1, 61, 0
4, 10127, Note_on_c, 1, 52, 0
4, 10128, Note_on_c, 1, 61, 64
4, 10128, Note_on_c, 1, 52, 64
4, 10175, Note_on_c, 1, 61, 0
4, 10175, Note_on_c, 1, 52, 0
4, 10176, Note_on_c, 1, 59, 64
4, 10176, Note_on_c, 1, 52, 64
4, 10223, Note_on_c, 1, 59, 0
4, 10223, Note_on_c, 1, 52, 0
4, 10224, Note_on_c, 1, 57, 64
4, 10313, Note_on_c, 1, 57, 0
4, 10368, Note_on_c, 1, 62, 64
4, 10391, Note_on_c, 1, 62, 0
4, 10392, Note_on_c, 1, 69, 64
4, 10415, Note_on_c, 1, 69, 0
4, 10416, Note_on_c, 1, 66, 64
4, 10439, Note_on_c, 1, 66, 0
4, 10440, Note_on_c, 1, 69, 65
4, 10463, Note_on_c, 1, 69, 0
4, 10464, Note_on_c, 1, 62, 65
4, 10487, Note_on_c, 1, 62, 0
4, 10488, Note_on_c, 1, 69, 65
4, 10511, Note_on_c, 1, 69, 0
4, 10512, Note_on_c, 1, 61, 66
4, 10535, Note_on_c, 1, 61, 0
4, 10536, Note_on_c, 1, 69, 66
4, 10559, Note_on_c, 1, 69, 0
4, 10560, Note_on_c, 1, 64, 66
4, 10583, Note_on_c, 1, 64, 0
4, 10584, Note_on_c, 1, 69, 67
4, 10607, Note_on_c, 1, 69, 0
4, 10608, Note_on_c, 1, 61, 67
4, 10631, Note_on_c, 1, 61, 0
4, 10632, Note_on_c, 1, 69, 67
4, 10655, Note_on_c, 1, 69, 0
4, 10656, Note_on_c, 1, 62, 68
4, 10679, Note_on_c, 1, 62, 0
4, 10680, Note_on_c, 1, 69, 68
4, 10703, Note_on_c, 1, 69, 0
4, 10704, Note_on_c, 1, 66, 68
4, 10727, Note_on_c, 1, 66, 0
4, 10728, Note_on_c, 1, 69, 69
4, 10751, Note_on_c, 1, 69, 0
4, 10752, Note_on_c, 1, 62, 69
4, 10775, Note_on_c, 1, 62, 0
4, 10776, Note_on_c, 1, 69, 69
4, 10799, Note_on_c, 1, 69, 0
4, 10800, Note_on_c, 1, 59, 70
4, 10889, Note_on_c, 1, 59, 0
4, 10992, Note_on_c, 1, 64, 70
4, 10992, Note_on_c, 1, 61, 70
4, 11037, Note_on_c, 1, 64, 0
4, 11037, Note_on_c, 1, 61, 0
4, 11040, Note_on_c, 1, 62, 70
4, 11040, Note_on_c, 1, 59, 70
4, 11085, Note_on_c, 1, 62, 0
4, 11085, Note_on_c, 1, 59, 0
4, 11088, Note_on_c, 1, 61, 70
4, 11088, Note_on_c, 1, 57, 70
4, 11177, Note_on_c, 1, 61, 0
4, 11177, Note_on_c, 1, 57, 0
4, 11280, Note_on_c, 1, 62, 70
4, 11280, Note_on_c, 1, 59, 70
4, 11325, Note_on_c, 1, 62, 0
4, 11325, Note_on_c, 1, 59, 0
4, 11328, Note_on_c, 1, 61, 70
4, 11328, Note_on_c, 1, 57, 70
4, 11373, Note_on_c, 1, 61, 0
4, 11373, Note_on_c, 1, 57, 0
4, 11376, Note_on_c, 1, 59, 70
4, 11376, Note_on_c, 1, 56, 70
4, 11465, Note_on_c, 1, 59, 0
4, 11465, Note_on_c, 1, 56, 0
4, 11520, Note_on_c, 1, 57, 70
4, 11520, Note_on_c, 1, 45, 70
4, 11609, Note_on_c, 1, 57, 0
4, 11609, Note_on_c, 1, 45, 0
4, 11664, Note_on_c, 1, 50, 70
4, 11753, Note_on_c, 1, 50, 0
4, 11808, Note_on_c, 1, 52, 70
4, 11808, Note_on_c, 1, 40, 70
4, 11897, Note_on_c, 1, 52, 0
4, 11897, Note_on_c, 1, 40, 0
4, 12048, Note_on_c, 1, 62, 64
4, 12093, Note_on_c, 1, 62, 0
4, 12096, Note_on_c, 1, 61, 64
4, 12141, Note_on_c, 1, 61, 0
4, 12144, Note_on_c, 1, 59, 64
4, 12189, Note_on_c, 1, 59, 0
4, 12192, Note_on_c, 1, 57, 64
4, 12237, Note_on_c, 1, 57, 0
4, 12336, Note_on_c, 1, 62, 64
4, 12381, Note_on_c, 1, 62, 0
4, 12384, Note_on_c, 1, 60, 64
4, 12429, Note_on_c, 1, 60, 0
4, 12432, Note_on_c, 1, 59, 64
4, 12477, Note_on_c, 1, 59, 0
4, 12480, Note_on_c, 1, 57, 64
4, 12525, Note_on_c, 1, 57, 0
4, 12624, Note_on_c, 1, 62, 64
4, 12669, Note_on_c, 1, 62, 0
4, 12672, Note_on_c, 1, 61, 64
4, 12717, Note_on_c, 1, 61, 0
4, 12720, Note_on_c, 1, 59, 64
4, 12765, Note_on_c, 1, 59, 0
4, 12768, Note_on_c, 1, 57, 64
4, 12813, Note_on_c, 1, 57, 0
4, 13008, Note_on_c, 1, 57, 75
4, 13008, Note_on_c, 1, 50, 75
4, 13055, Note_on_c, 1, 57, 0
4, 13055, Note_on_c, 1, 50, 0
4, 13056, Note_on_c, 1, 57, 75
4, 13056, Note_on_c, 1, 50, 75
4, 13103, Note_on_c, 1, 57, 0
4, 13103, Note_on_c, 1, 50, 0
4, 13104, Note_on_c, 1, 57, 75
4, 13104, Note_on_c, 1, 50, 75
4, 13193, Note_on_c, 1, 57, 0
4, 13193, Note_on_c, 1, 50, 0
4, 13248, Note_on_c, 1, 57, 75
4, 13248, Note_on_c, 1, 52, 75
4, 13337, Note_on_c, 1, 57, 0
4, 13337, Note_on_c, 1, 52, 0
4, 13392, Note_on_c, 1, 52, 75
4, 13437, Note_on_c, 1, 52, 0
4, 13440, Note_on_c, 1, 52, 75
4, 13485, Note_on_c, 1, 52, 0
4, 13488, Note_on_c, 1, 52, 75
4, 13533, Note_on_c, 1, 52, 0
4, 13536, Note_on_c, 1, 57, 75
4, 13581, Note_on_c, 1, 57, 0
4, 13632, Note_on_c, 1, 52, 75
4, 13677, Note_on_c, 1, 52, 0
4, 13680, Note_on_c, 1, 45, 75
4, 13725, Note_on_c, 1, 45, 0
4, 13776, Note_on_c, 1, 52, 75
4, 13821, Note_on_c, 1, 52, 0
4, 13824, Note_on_c, 1, 45, 75
4, 13913, Note_on_c, 1, 45, 0
4, 13968, Note_on_c, 1, 52, 75
4, 14101, Note_on_c, 1, 52, 0
4, 14112, Note_on_c, 1, 51, 75
4, 14245, Note_on_c, 1, 51, 0
4, 14256, Note_on_c, 1, 50, 75
4, 14389, Note_on_c, 1, 50, 0
4, 14400, Note_on_c, 1, 49, 75
4, 14533, Note_on_c, 1, 49, 0
4, 14544, Note_on_c, 1, 56, 80
4, 14589, Note_on_c, 1, 56, 0
4, 14592, Note_on_c, 1, 59, 80
4, 14637, Note_on_c, 1, 59, 0
4, 14640, Note_on_c, 1, 57, 80
4, 14685, Note_on_c, 1, 57, 0
4, 14688, Note_on_c, 1, 56, 80
4, 14733, Note_on_c, 1, 56, 0
4, 14736, Note_on_c, 1, 59, 80
4, 14781, Note_on_c, 1, 59, 0
4, 14784, Note_on_c, 1, 57, 80
4, 14829, Note_on_c, 1, 57, 0
4, 14832, Note_on_c, 1, 56, 80
4, 14832, Note_on_c, 1, 52, 80
4, 14921, Note_on_c, 1, 56, 0
4, 14921, Note_on_c, 1, 52, 0
4, 14976, Note_on_c, 1, 57, 64
4, 14999, Note_on_c, 1, 57, 0
4, 15000, Note_on_c, 1, 64, 64
4, 15023, Note_on_c, 1, 64, 0
4, 15024, Note_on_c, 1, 61, 64
4, 15047, Note_on_c, 1, 61, 0
4, 15048, Note_on_c, 1, 64, 64
4, 15071, Note_on_c, 1, 64, 0
4, 15072, Note_on_c, 1, 57, 64
4, 15095, Note_on_c, 1, 57, 0
4, 15096, Note_on_c, 1, 64, 64
4, 15119, Note_on_c, 1, 64, 0
4, 15120, Note_on_c, 1, 56, 64
4, 15143, Note_on_c, 1, 56, 0
4, 15144, Note_on_c, 1, 64, 64
4, 15167, Note_on_c, 1, 64, 0
4, 15168, Note_on_c, 1, 59, 64
4, 15191, Note_on_c, 1, 59, 0
4, 15192, Note_on_c, 1, 64, 64
4, 15215, Note_on_c, 1, 64, 0
4, 15216, Note_on_c, 1, 56, 64
4, 15239, Note_on_c, 1, 56, 0
4, 15240, Note_on_c, 1, 64, 64
4, 15263, Note_on_c, 1, 64, 0
4, 15264, Note_on_c, 1, 57, 64
4, 15287, Note_on_c, 1, 57, 0
4, 15288, Note_on_c, 1, 64, 64
4, 15311, Note_on_c, 1, 64, 0
4, 15312, Note_on_c, 1, 61, 64
4, 15335, Note_on_c, 1, 61, 0
4, 15336, Note_on_c, 1, 64, 64
4, 15359, Note_on_c, 1, 64, 0
4, 15360, Note_on_c, 1, 57, 64
4, 15383, Note_on_c, 1, 57, 0
4, 15384, Note_on_c, 1, 64, 64
4, 15407, Note_on_c, 1, 64, 0
4, 15408, Note_on_c, 1, 56, 64
4, 15431, Note_on_c, 1, 56, 0
4, 15432, Note_on_c, 1, 64, 64
4, 15455, Note_on_c, 1, 64, 0
4, 15456, Note_on_c, 1, 59, 64
4, 15479, Note_on_c, 1, 59, 0
4, 15480, Note_on_c, 1, 64, 64
4, 15503, Note_on_c, 1, 64, 0
4, 15504, Note_on_c, 1, 56, 64
4, 15527, Note_on_c, 1, 56, 0
4, 15528, Note_on_c, 1, 64, 64
4, 15551, Note_on_c, 1, 64, 0
4, 15552, Note_on_c, 1, 57, 64
4, 15641, Note_on_c, 1, 57, 0
4, 15696, Note_on_c, 1, 61, 64
4, 15696, Note_on_c, 1, 52, 64
4, 15743, Note_on_c, 1, 61, 0
4, 15743, Note_on_c, 1, 52, 0
4, 15744, Note_on_c, 1, 61, 64
4, 15744, Note_on_c, 1, 52, 64
4, 15791, Note_on_c, 1, 61, 0
4, 15791, Note_on_c, 1, 52, 0
4, 15792, Note_on_c, 1, 59, 64
4, 15792, Note_on_c, 1, 52, 64
4, 15839, Note_on_c, 1, 59, 0
4, 15839, Note_on_c, 1, 52, 0
4, 15840, Note_on_c, 1, 57, 64
4, 15929, Note_on_c, 1, 57, 0
4, 15984, Note_on_c, 1, 61, 64
4, 15984, Note_on_c, 1, 52, 64
4, 16031, Note_on_c, 1, 61, 0
4, 16031, Note_on_c, 1, 52, 0
4, 16032, Note_on_c, 1, 61, 64
4, 16032, Note_on_c, 1, 52, 64
4, 16079, Note_on_c, 1, 61, 0
4, 16079, Note_on_c, 1, 52, 0
4, 16080, Note_on_c, 1, 59, 64
4, 16080, Note_on_c, 1, 52, 64
4, 16127, Note_on_c, 1, 59, 0
4, 16127, Note_on_c, 1, 52, 0
4, 16128, Note_on_c, 1, 57, 64
4, 16217, Note_on_c, 1, 57, 0
4, 16272, Note_on_c, 1, 62, 64
4, 16295, Note_on_c, 1, 62, 0
4, 16296, Note_on_c, 1, 69, 64
4, 16319, Note_on_c, 1, 69, 0
4, 16320, Note_on_c, 1, 66, 64
4, 16343, Note_on_c, 1, 66, 0
4, 16344, Note_on_c, 1, 69, 65
4, 16367, Note_on_c, 1, 69, 0
4, 16368, Note_on_c, 1, 62, 65
4, 16391, Note_on_c, 1, 62, 0
4, 16392, Note_on_c, 1, 69, 65
4, 16415, Note_on_c, 1, 69, 0
4, 16416, Note_on_c, 1, 61, 66
4, 16439, Note_on_c, 1, 61, 0
4, 16440, Note_on_c, 1, 69, 66
4, 16463, Note_on_c, 1, 69, 0
4, 16464, Note_on_c, 1, 64, 66
4, 16487, Note_on_c, 1, 64, 0
4, 16488, Note_on_c, 1, 69, 67
4, 16511, Note_on_c, 1, 69, 0
4, 16512, Note_on_c, 1, 61, 67
4, 16535, Note_on_c, 1, 61, 0
4, 16536, Note_on_c, 1, 69, 67
4, 16559, Note_on_c, 1, 69, 0
4, 16560, Note_on_c, 1, 62, 68
4, 16583, Note_on_c, 1, 62, 0
4, 16584, Note_on_c, 1, 69, 68
4, 16607, Note_on_c, 1, 69, 0
4, 16608, Note_on_c, 1, 66, 68
4, 16631, Note_on_c, 1, 66, 0
4, 16632, Note_on_c, 1, 69, 69
4, 16655, Note_on_c, 1, 69, 0
4, 16656, Note_on_c, 1, 62, 69
4, 16679, Note_on_c, 1, 62, 0
4, 16680, Note_on_c, 1, 69, 69
4, 16703, Note_on_c, 1, 69, 0
4, 16704, Note_on_c, 1, 59, 70
4, 16793, Note_on_c, 1, 59, 0
4, 16896, Note_on_c, 1, 64, 70
4, 16896, Note_on_c, 1, 61, 70
4, 16941, Note_on_c, 1, 64, 0
4, 16941, Note_on_c, 1, 61, 0
4, 16944, Note_on_c, 1, 62, 70
4, 16944, Note_on_c, 1, 59, 70
4, 16989, Note_on_c, 1, 62, 0
4, 16989, Note_on_c, 1, 59, 0
4, 16992, Note_on_c, 1, 61, 70
4, 16992, Note_on_c, 1, 57, 70
4, 17081, Note_on_c, 1, 61, 0
4, 17081, Note_on_c, 1, 57, 0
4, 17184, Note_on_c, 1, 62, 70
4, 17184, Note_on_c, 1, 59, 70
4, 17229, Note_on_c, 1, 62, 0
4, 17229, Note_on_c, 1, 59, 0
4, 17232, Note_on_c, 1, 61, 70
4, 17232, Note_on_c, 1, 57, 70
4, 17277, Note_on_c, 1, 61, 0
4, 17277, Note_on_c, 1, 57, 0
4, 17280, Note_on_c, 1, 59, 70
4, 17280, Note_on_c, 1, 56, 70
4, 17369, Note_on_c, 1, 59, 0
4, 17369, Note_on_c, 1, 56, 0
4, 17424, Note_on_c, 1, 57, 70
4, 17424, Note_on_c, 1, 45, 70
4, 17513, Note_on_c, 1, 57, 0
4, 17513, Note_on_c, 1, 45, 0
4, 17568, Note_on_c, 1, 50, 70
4, 17657, Note_on_c, 1, 50, 0
4, 17712, Note_on_c, 1, 52, 70
4, 17712, Note_on_c, 1, 40, 70
4, 17801, Note_on_c, 1, 52, 0
4, 17801, Note_on_c, 1, 40, 0
4, 17952, Note_on_c, 1, 62, 64
4, 17997, Note_on_c, 1, 62, 0
4, 18000, Note_on_c, 1, 61, 64
4, 18045, Note_on_c, 1, 61, 0
4, 18048, Note_on_c, 1, 59, 64
4, 18093, Note_on_c, 1, 59, 0
4, 18096, Note_on_c, 1, 57, 64
4, 18141, Note_on_c, 1, 57, 0
4, 18240, Note_on_c, 1, 62, 64
4, 18285, Note_on_c, 1, 62, 0
4, 18288, Note_on_c, 1, 60, 64
4, 18333, Note_on_c, 1, 60, 0
4, 18336, Note_on_c, 1, 59, 64
4, 18381, Note_on_c, 1, 59, 0
4, 18384, Note_on_c, 1, 57, 64
4, 18429, Note_on_c, 1, 57, 0
4, 18528, Note_on_c, 1, 62, 64
4, 18573, Note_on_c, 1, 62, 0
4, 18576, Note_on_c, 1, 61, 64
4, 18621, Note_on_c, 1, 61, 0
4, 18624, Note_on_c, 1, 59, 64
4, 18669, Note_on_c, 1, 59, 0
4, 18672, Note_on_c, 1, 57, 64
4, 18717, Note_on_c, 1, 57, 0
4, 18912, Note_on_c, 1, 57, 75
4, 18912, Note_on_c, 1, 50, 75
4, 18959, Note_on_c, 1, 57, 0
4, 18959, Note_on_c, 1, 50, 0
4, 18960, Note_on_c, 1, 57, 75
4, 18960, Note_on_c, 1, 50, 75
4, 19007, Note_on_c, 1, 57, 0
4, 19007, Note_on_c, 1, 50, 0
4, 19008, Note_on_c, 1, 57, 75
4, 19008, Note_on_c, 1, 50, 75
4, 19097, Note_on_c, 1, 57, 0
4, 19097, Note_on_c, 1, 50, 0
4, 19152, Note_on_c, 1, 57, 75
4, 19152, Note_on_c, 1, 52, 75
4, 19241, Note_on_c, 1, 57, 0
4, 19241, Note_on_c, 1, 52, 0
4, 19296, Note_on_c, 1, 52, 75
4, 19341, Note_on_c, 1, 52, 0
4, 19344, Note_on_c, 1, 52, 75
4, 19389, Note_on_c, 1, 52, 0
4, 19392, Note_on_c, 1, 52, 75
4, 19437, Note_on_c, 1, 52, 0
4, 19440, Note_on_c, 1, 57, 75
4, 19485, Note_on_c, 1, 57, 0
4, 19536, Note_on_c, 1, 52, 75
4, 19581, Note_on_c, 1, 52, 0
4, 19584, Note_on_c, 1, 45, 75
4, 19629, Note_on_c, 1, 45, 0
4, 19680, Note_on_c, 1, 52, 75
4, 19725, Note_on_c, 1, 52, 0
4, 19728, Note_on_c, 1, 45, 75
4, 19817, Note_on_c, 1, 45, 0
4, 19872, Note_on_c, 1, 45, 0
4, 19961, Note_on_c, 1, 45, 0
4, 19968, End_track
5, 0, Start_track
5, 0, Program_c, 1, 0
5, 0, Control_c, 1, 7, 127
5, 0, Control_c, 1, 10, 64
5, 8064, Note_on_c, 1, 40, 75
5, 8629, Note_on_c, 1, 40, 0
5, 8640, Note_on_c, 1, 52, 80
5, 8773, Note_on_c, 1, 52, 0
5, 8784, Note_on_c, 1, 52, 80
5, 8917, Note_on_c, 1, 52, 0
5, 13968, Note_on_c, 1, 40, 75
5, 14533, Note_on_c, 1, 40, 0
5, 14544, Note_on_c, 1, 52, 80
5, 14677, Note_on_c, 1, 52, 0
5, 14688, Note_on_c, 1, 52, 80
5, 14821, Note_on_c, 1, 52, 0
5, 19872, End_track
6, 0, Start_track
6, 0, Title_t, "Sonata I   Haydn  "
6, 0, End_track
0, 0, End_of_file
