0, 0, Header, 1, 6, 96
1, 0, Start_track
1, 0, Copyright_t, "Copyright  1994-2002 Mozart Music Software"
1, 0, Text_t, "Piano Solo\015\012"
1, 0, Text_t, "<composer>\015\012"
1, 0, Sequencer_specific, 16, 68, 87, 77, 90, 86, 82, 83, 78, 32, 55, 46, 48, 46, 55, 46, 48
1, 0, Time_signature, 3, 2, 24, 8
1, 0, Tempo, 461538
1, 0, Key_signature, -3, "major"
1, 16128, Key_signature, -6, "major"
1, 20160, Key_signature, -6, "major"
1, 33408, Key_signature, -3, "major"
1, 37440, Key_signature, -3, "major"
1, 49536, End_track
2, 0, Start_track
2, 0, Program_c, 0, 0
2, 0, Control_c, 0, 7, 127
2, 0, Control_c, 0, 10, 64
2, 0, Note_on_c, 0, 63, 75
2, 89, Note_on_c, 0, 63, 0
2, 96, Note_on_c, 0, 75, 75
2, 185, Note_on_c, 0, 75, 0
2, 264, Note_on_c, 0, 75, 75
2, 287, Note_on_c, 0, 75, 0
2, 288, Note_on_c, 0, 70, 75
2, 377, Note_on_c, 0, 70, 0
2, 384, Note_on_c, 0, 80, 75
2, 473, Note_on_c, 0, 80, 0
2, 552, Note_on_c, 0, 80, 75
2, 575, Note_on_c, 0, 80, 0
2, 576, Note_on_c, 0, 79, 75
2, 665, Note_on_c, 0, 79, 0
2, 672, Note_on_c, 0, 82, 77
2, 761, Note_on_c, 0, 82, 0
2, 768, Note_on_c, 0, 82, 79
2, 791, Note_on_c, 0, 82, 0
2, 792, Note_on_c, 0, 80, 79
2, 815, Note_on_c, 0, 80, 0
2, 816, Note_on_c, 0, 79, 80
2, 839, Note_on_c, 0, 79, 0
2, 840, Note_on_c, 0, 77, 80
2, 863, Note_on_c, 0, 77, 0
2, 864, Note_on_c, 0, 75, 81
2, 953, Note_on_c, 0, 75, 0
2, 960, Note_on_c, 0, 75, 79
2, 975, Note_on_c, 0, 75, 0
2, 976, Note_on_c, 0, 74, 78
2, 991, Note_on_c, 0, 74, 0
2, 992, Note_on_c, 0, 75, 78
2, 1007, Note_on_c, 0, 75, 0
2, 1008, Note_on_c, 0, 74, 78
2, 1023, Note_on_c, 0, 74, 0
2, 1024, Note_on_c, 0, 72, 78
2, 1039, Note_on_c, 0, 72, 0
2, 1040, Note_on_c, 0, 74, 77
2, 1055, Note_on_c, 0, 74, 0
2, 1056, Note_on_c, 0, 75, 77
2, 1145, Note_on_c, 0, 75, 0
2, 1152, Note_on_c, 0, 63, 75
2, 1241, Note_on_c, 0, 63, 0
2, 1248, Note_on_c, 0, 68, 75
2, 1337, Note_on_c, 0, 68, 0
2, 1416, Note_on_c, 0, 72, 75
2, 1428, Note_on_c, 0, 72, 0
2, 1428, Note_on_c, 0, 68, 75
2, 1440, Note_on_c, 0, 68, 0
2, 1440, Note_on_c, 0, 70, 75
2, 1529, Note_on_c, 0, 70, 0
2, 1536, Note_on_c, 0, 63, 75
2, 1625, Note_on_c, 0, 63, 0
2, 1704, Note_on_c, 0, 67, 75
2, 1716, Note_on_c, 0, 67, 0
2, 1716, Note_on_c, 0, 63, 75
2, 1728, Note_on_c, 0, 63, 0
2, 1728, Note_on_c, 0, 58, 75
2, 1817, Note_on_c, 0, 58, 0
2, 1824, Note_on_c, 0, 68, 91
2, 1824, Note_on_c, 0, 65, 91
2, 1920, Note_on_c, 0, 68, 0
2, 1920, Note_on_c, 0, 65, 0
2, 1920, Note_on_c, 0, 67, 75
2, 1920, Note_on_c, 0, 63, 75
2, 2009, Note_on_c, 0, 67, 0
2, 2009, Note_on_c, 0, 63, 0
2, 2016, Note_on_c, 0, 68, 75
2, 2031, Note_on_c, 0, 68, 0
2, 2032, Note_on_c, 0, 67, 75
2, 2047, Note_on_c, 0, 67, 0
2, 2048, Note_on_c, 0, 68, 75
2, 2063, Note_on_c, 0, 68, 0
2, 2064, Note_on_c, 0, 67, 75
2, 2079, Note_on_c, 0, 67, 0
2, 2080, Note_on_c, 0, 65, 75
2, 2095, Note_on_c, 0, 65, 0
2, 2096, Note_on_c, 0, 67, 75
2, 2111, Note_on_c, 0, 67, 0
2, 2112, Note_on_c, 0, 65, 75
2, 2201, Note_on_c, 0, 65, 0
2, 2304, Note_on_c, 0, 77, 75
2, 2327, Note_on_c, 0, 77, 0
2, 2328, Note_on_c, 0, 75, 74
2, 2351, Note_on_c, 0, 75, 0
2, 2352, Note_on_c, 0, 74, 73
2, 2375, Note_on_c, 0, 74, 0
2, 2376, Note_on_c, 0, 72, 73
2, 2399, Note_on_c, 0, 72, 0
2, 2400, Note_on_c, 0, 70, 72
2, 2423, Note_on_c, 0, 70, 0
2, 2424, Note_on_c, 0, 69, 72
2, 2447, Note_on_c, 0, 69, 0
2, 2448, Note_on_c, 0, 67, 71
2, 2471, Note_on_c, 0, 67, 0
2, 2472, Note_on_c, 0, 65, 71
2, 2495, Note_on_c, 0, 65, 0
2, 2496, Note_on_c, 0, 63, 70
2, 2519, Note_on_c, 0, 63, 0
2, 2520, Note_on_c, 0, 62, 70
2, 2543, Note_on_c, 0, 62, 0
2, 2544, Note_on_c, 0, 60, 70
2, 2567, Note_on_c, 0, 60, 0
2, 2568, Note_on_c, 0, 58, 70
2, 2591, Note_on_c, 0, 58, 0
2, 2592, Note_on_c, 0, 57, 71
2, 2610, Note_on_c, 0, 57, 0
2, 2610, Note_on_c, 0, 58, 71
2, 2628, Note_on_c, 0, 58, 0
2, 2628, Note_on_c, 0, 57, 71
2, 2646, Note_on_c, 0, 57, 0
2, 2646, Note_on_c, 0, 58, 71
2, 2664, Note_on_c, 0, 58, 0
2, 2664, Note_on_c, 0, 57, 71
2, 2682, Note_on_c, 0, 57, 0
2, 2682, Note_on_c, 0, 58, 71
2, 2700, Note_on_c, 0, 58, 0
2, 2700, Note_on_c, 0, 57, 71
2, 2718, Note_on_c, 0, 57, 0
2, 2718, Note_on_c, 0, 58, 71
2, 2725, Note_on_c, 0, 58, 0
2, 2736, Note_on_c, 0, 60, 73
2, 2759, Note_on_c, 0, 60, 0
2, 2760, Note_on_c, 0, 63, 73
2, 2783, Note_on_c, 0, 63, 0
2, 2784, Note_on_c, 0, 62, 73
2, 2873, Note_on_c, 0, 62, 0
2, 2880, Note_on_c, 0, 77, 70
2, 2903, Note_on_c, 0, 77, 0
2, 2904, Note_on_c, 0, 75, 69
2, 2927, Note_on_c, 0, 75, 0
2, 2928, Note_on_c, 0, 74, 69
2, 2951, Note_on_c, 0, 74, 0
2, 2952, Note_on_c, 0, 72, 68
2, 2975, Note_on_c, 0, 72, 0
2, 2976, Note_on_c, 0, 70, 68
2, 2999, Note_on_c, 0, 70, 0
2, 3000, Note_on_c, 0, 69, 67
2, 3023, Note_on_c, 0, 69, 0
2, 3024, Note_on_c, 0, 67, 67
2, 3047, Note_on_c, 0, 67, 0
2, 3048, Note_on_c, 0, 65, 66
2, 3071, Note_on_c, 0, 65, 0
2, 3072, Note_on_c, 0, 63, 66
2, 3095, Note_on_c, 0, 63, 0
2, 3096, Note_on_c, 0, 62, 66
2, 3119, Note_on_c, 0, 62, 0
2, 3120, Note_on_c, 0, 60, 66
2, 3143, Note_on_c, 0, 60, 0
2, 3144, Note_on_c, 0, 58, 67
2, 3167, Note_on_c, 0, 58, 0
2, 3168, Note_on_c, 0, 57, 67
2, 3186, Note_on_c, 0, 57, 0
2, 3186, Note_on_c, 0, 58, 67
2, 3204, Note_on_c, 0, 58, 0
2, 3204, Note_on_c, 0, 57, 67
2, 3222, Note_on_c, 0, 57, 0
2, 3222, Note_on_c, 0, 58, 67
2, 3240, Note_on_c, 0, 58, 0
2, 3240, Note_on_c, 0, 57, 67
2, 3258, Note_on_c, 0, 57, 0
2, 3258, Note_on_c, 0, 58, 67
2, 3276, Note_on_c, 0, 58, 0
2, 3276, Note_on_c, 0, 57, 67
2, 3294, Note_on_c, 0, 57, 0
2, 3294, Note_on_c, 0, 58, 67
2, 3301, Note_on_c, 0, 58, 0
2, 3312, Note_on_c, 0, 60, 71
2, 3335, Note_on_c, 0, 60, 0
2, 3336, Note_on_c, 0, 63, 72
2, 3359, Note_on_c, 0, 63, 0
2, 3360, Note_on_c, 0, 62, 72
2, 3449, Note_on_c, 0, 62, 0
2, 3456, Note_on_c, 0, 60, 75
2, 3523, Note_on_c, 0, 60, 0
2, 3528, Note_on_c, 0, 62, 75
2, 3551, Note_on_c, 0, 62, 0
2, 3552, Note_on_c, 0, 58, 75
2, 3641, Note_on_c, 0, 58, 0
2, 3648, Note_on_c, 0, 58, 75
2, 3663, Note_on_c, 0, 58, 0
2, 3664, Note_on_c, 0, 57, 75
2, 3679, Note_on_c, 0, 57, 0
2, 3680, Note_on_c, 0, 58, 75
2, 3695, Note_on_c, 0, 58, 0
2, 3696, Note_on_c, 0, 57, 75
2, 3711, Note_on_c, 0, 57, 0
2, 3712, Note_on_c, 0, 55, 75
2, 3727, Note_on_c, 0, 55, 0
2, 3728, Note_on_c, 0, 57, 75
2, 3743, Note_on_c, 0, 57, 0
2, 3744, Note_on_c, 0, 57, 75
2, 3840, Note_on_c, 0, 57, 0
2, 3840, Note_on_c, 0, 58, 75
2, 4017, Note_on_c, 0, 58, 0
2, 4032, Note_on_c, 0, 63, 75
2, 4121, Note_on_c, 0, 63, 0
2, 4128, Note_on_c, 0, 75, 75
2, 4217, Note_on_c, 0, 75, 0
2, 4296, Note_on_c, 0, 75, 75
2, 4319, Note_on_c, 0, 75, 0
2, 4320, Note_on_c, 0, 70, 75
2, 4409, Note_on_c, 0, 70, 0
2, 4416, Note_on_c, 0, 80, 75
2, 4505, Note_on_c, 0, 80, 0
2, 4584, Note_on_c, 0, 80, 75
2, 4607, Note_on_c, 0, 80, 0
2, 4608, Note_on_c, 0, 79, 75
2, 4697, Note_on_c, 0, 79, 0
2, 4704, Note_on_c, 0, 82, 77
2, 4793, Note_on_c, 0, 82, 0
2, 4800, Note_on_c, 0, 82, 79
2, 4823, Note_on_c, 0, 82, 0
2, 4824, Note_on_c, 0, 80, 79
2, 4847, Note_on_c, 0, 80, 0
2, 4848, Note_on_c, 0, 79, 80
2, 4871, Note_on_c, 0, 79, 0
2, 4872, Note_on_c, 0, 77, 80
2, 4895, Note_on_c, 0, 77, 0
2, 4896, Note_on_c, 0, 75, 81
2, 4985, Note_on_c, 0, 75, 0
2, 4992, Note_on_c, 0, 75, 79
2, 5007, Note_on_c, 0, 75, 0
2, 5008, Note_on_c, 0, 74, 78
2, 5023, Note_on_c, 0, 74, 0
2, 5024, Note_on_c, 0, 75, 78
2, 5039, Note_on_c, 0, 75, 0
2, 5040, Note_on_c, 0, 74, 78
2, 5055, Note_on_c, 0, 74, 0
2, 5056, Note_on_c, 0, 72, 78
2, 5071, Note_on_c, 0, 72, 0
2, 5072, Note_on_c, 0, 74, 77
2, 5087, Note_on_c, 0, 74, 0
2, 5088, Note_on_c, 0, 75, 77
2, 5177, Note_on_c, 0, 75, 0
2, 5184, Note_on_c, 0, 63, 75
2, 5273, Note_on_c, 0, 63, 0
2, 5280, Note_on_c, 0, 68, 75
2, 5369, Note_on_c, 0, 68, 0
2, 5448, Note_on_c, 0, 72, 75
2, 5460, Note_on_c, 0, 72, 0
2, 5460, Note_on_c, 0, 68, 75
2, 5472, Note_on_c, 0, 68, 0
2, 5472, Note_on_c, 0, 70, 75
2, 5561, Note_on_c, 0, 70, 0
2, 5568, Note_on_c, 0, 63, 75
2, 5657, Note_on_c, 0, 63, 0
2, 5736, Note_on_c, 0, 67, 75
2, 5748, Note_on_c, 0, 67, 0
2, 5748, Note_on_c, 0, 63, 75
2, 5760, Note_on_c, 0, 63, 0
2, 5760, Note_on_c, 0, 58, 75
2, 5849, Note_on_c, 0, 58, 0
2, 5856, Note_on_c, 0, 68, 91
2, 5856, Note_on_c, 0, 65, 91
2, 5952, Note_on_c, 0, 68, 0
2, 5952, Note_on_c, 0, 65, 0
2, 5952, Note_on_c, 0, 67, 75
2, 5952, Note_on_c, 0, 63, 75
2, 6041, Note_on_c, 0, 67, 0
2, 6041, Note_on_c, 0, 63, 0
2, 6048, Note_on_c, 0, 68, 75
2, 6063, Note_on_c, 0, 68, 0
2, 6064, Note_on_c, 0, 67, 75
2, 6079, Note_on_c, 0, 67, 0
2, 6080, Note_on_c, 0, 68, 75
2, 6095, Note_on_c, 0, 68, 0
2, 6096, Note_on_c, 0, 67, 75
2, 6111, Note_on_c, 0, 67, 0
2, 6112, Note_on_c, 0, 65, 75
2, 6127, Note_on_c, 0, 65, 0
2, 6128, Note_on_c, 0, 67, 75
2, 6143, Note_on_c, 0, 67, 0
2, 6144, Note_on_c, 0, 65, 75
2, 6233, Note_on_c, 0, 65, 0
2, 6336, Note_on_c, 0, 77, 75
2, 6359, Note_on_c, 0, 77, 0
2, 6360, Note_on_c, 0, 75, 74
2, 6383, Note_on_c, 0, 75, 0
2, 6384, Note_on_c, 0, 74, 73
2, 6407, Note_on_c, 0, 74, 0
2, 6408, Note_on_c, 0, 72, 73
2, 6431, Note_on_c, 0, 72, 0
2, 6432, Note_on_c, 0, 70, 72
2, 6455, Note_on_c, 0, 70, 0
2, 6456, Note_on_c, 0, 69, 72
2, 6479, Note_on_c, 0, 69, 0
2, 6480, Note_on_c, 0, 67, 71
2, 6503, Note_on_c, 0, 67, 0
2, 6504, Note_on_c, 0, 65, 71
2, 6527, Note_on_c, 0, 65, 0
2, 6528, Note_on_c, 0, 63, 70
2, 6551, Note_on_c, 0, 63, 0
2, 6552, Note_on_c, 0, 62, 70
2, 6575, Note_on_c, 0, 62, 0
2, 6576, Note_on_c, 0, 60, 70
2, 6599, Note_on_c, 0, 60, 0
2, 6600, Note_on_c, 0, 58, 70
2, 6623, Note_on_c, 0, 58, 0
2, 6624, Note_on_c, 0, 57, 71
2, 6642, Note_on_c, 0, 57, 0
2, 6642, Note_on_c, 0, 58, 71
2, 6660, Note_on_c, 0, 58, 0
2, 6660, Note_on_c, 0, 57, 71
2, 6678, Note_on_c, 0, 57, 0
2, 6678, Note_on_c, 0, 58, 71
2, 6696, Note_on_c, 0, 58, 0
2, 6696, Note_on_c, 0, 57, 71
2, 6714, Note_on_c, 0, 57, 0
2, 6714, Note_on_c, 0, 58, 71
2, 6732, Note_on_c, 0, 58, 0
2, 6732, Note_on_c, 0, 57, 71
2, 6750, Note_on_c, 0, 57, 0
2, 6750, Note_on_c, 0, 58, 71
2, 6757, Note_on_c, 0, 58, 0
2, 6768, Note_on_c, 0, 60, 73
2, 6791, Note_on_c, 0, 60, 0
2, 6792, Note_on_c, 0, 63, 73
2, 6815, Note_on_c, 0, 63, 0
2, 6816, Note_on_c, 0, 62, 73
2, 6905, Note_on_c, 0, 62, 0
2, 6912, Note_on_c, 0, 77, 70
2, 6935, Note_on_c, 0, 77, 0
2, 6936, Note_on_c, 0, 75, 69
2, 6959, Note_on_c, 0, 75, 0
2, 6960, Note_on_c, 0, 74, 69
2, 6983, Note_on_c, 0, 74, 0
2, 6984, Note_on_c, 0, 72, 68
2, 7007, Note_on_c, 0, 72, 0
2, 7008, Note_on_c, 0, 70, 68
2, 7031, Note_on_c, 0, 70, 0
2, 7032, Note_on_c, 0, 69, 67
2, 7055, Note_on_c, 0, 69, 0
2, 7056, Note_on_c, 0, 67, 67
2, 7079, Note_on_c, 0, 67, 0
2, 7080, Note_on_c, 0, 65, 66
2, 7103, Note_on_c, 0, 65, 0
2, 7104, Note_on_c, 0, 63, 66
2, 7127, Note_on_c, 0, 63, 0
2, 7128, Note_on_c, 0, 62, 66
2, 7151, Note_on_c, 0, 62, 0
2, 7152, Note_on_c, 0, 60, 66
2, 7175, Note_on_c, 0, 60, 0
2, 7176, Note_on_c, 0, 58, 67
2, 7199, Note_on_c, 0, 58, 0
2, 7200, Note_on_c, 0, 57, 67
2, 7218, Note_on_c, 0, 57, 0
2, 7218, Note_on_c, 0, 58, 67
2, 7236, Note_on_c, 0, 58, 0
2, 7236, Note_on_c, 0, 57, 67
2, 7254, Note_on_c, 0, 57, 0
2, 7254, Note_on_c, 0, 58, 67
2, 7272, Note_on_c, 0, 58, 0
2, 7272, Note_on_c, 0, 57, 67
2, 7290, Note_on_c, 0, 57, 0
2, 7290, Note_on_c, 0, 58, 67
2, 7308, Note_on_c, 0, 58, 0
2, 7308, Note_on_c, 0, 57, 67
2, 7326, Note_on_c, 0, 57, 0
2, 7326, Note_on_c, 0, 58, 67
2, 7333, Note_on_c, 0, 58, 0
2, 7344, Note_on_c, 0, 60, 71
2, 7367, Note_on_c, 0, 60, 0
2, 7368, Note_on_c, 0, 63, 72
2, 7391, Note_on_c, 0, 63, 0
2, 7392, Note_on_c, 0, 62, 72
2, 7481, Note_on_c, 0, 62, 0
2, 7488, Note_on_c, 0, 60, 75
2, 7555, Note_on_c, 0, 60, 0
2, 7560, Note_on_c, 0, 62, 75
2, 7583, Note_on_c, 0, 62, 0
2, 7584, Note_on_c, 0, 58, 75
2, 7673, Note_on_c, 0, 58, 0
2, 7680, Note_on_c, 0, 58, 75
2, 7695, Note_on_c, 0, 58, 0
2, 7696, Note_on_c, 0, 57, 75
2, 7711, Note_on_c, 0, 57, 0
2, 7712, Note_on_c, 0, 58, 75
2, 7727, Note_on_c, 0, 58, 0
2, 7728, Note_on_c, 0, 57, 75
2, 7743, Note_on_c, 0, 57, 0
2, 7744, Note_on_c, 0, 55, 75
2, 7759, Note_on_c, 0, 55, 0
2, 7760, Note_on_c, 0, 57, 75
2, 7775, Note_on_c, 0, 57, 0
2, 7776, Note_on_c, 0, 57, 75
2, 7872, Note_on_c, 0, 57, 0
2, 7872, Note_on_c, 0, 58, 75
2, 8049, Note_on_c, 0, 58, 0
2, 8064, Note_on_c, 0, 63, 75
2, 8153, Note_on_c, 0, 63, 0
2, 8160, Note_on_c, 0, 70, 75
2, 8249, Note_on_c, 0, 70, 0
2, 8328, Note_on_c, 0, 73, 75
2, 8351, Note_on_c, 0, 73, 0
2, 8352, Note_on_c, 0, 71, 75
2, 8448, Note_on_c, 0, 71, 0
2, 8448, Note_on_c, 0, 72, 75
2, 8537, Note_on_c, 0, 72, 0
2, 8640, Note_on_c, 0, 65, 76
2, 8729, Note_on_c, 0, 65, 0
2, 8736, Note_on_c, 0, 72, 77
2, 8825, Note_on_c, 0, 72, 0
2, 8904, Note_on_c, 0, 75, 78
2, 8927, Note_on_c, 0, 75, 0
2, 8928, Note_on_c, 0, 73, 78
2, 9024, Note_on_c, 0, 73, 0
2, 9024, Note_on_c, 0, 74, 79
2, 9113, Note_on_c, 0, 74, 0
2, 9216, Note_on_c, 0, 70, 80
2, 9305, Note_on_c, 0, 70, 0
2, 9312, Note_on_c, 0, 80, 81
2, 9401, Note_on_c, 0, 80, 0
2, 9480, Note_on_c, 0, 80, 81
2, 9492, Note_on_c, 0, 80, 0
2, 9492, Note_on_c, 0, 77, 81
2, 9504, Note_on_c, 0, 77, 0
2, 9504, Note_on_c, 0, 79, 81
2, 9593, Note_on_c, 0, 79, 0
2, 9600, Note_on_c, 0, 82, 81
2, 9689, Note_on_c, 0, 82, 0
2, 9768, Note_on_c, 0, 79, 81
2, 9780, Note_on_c, 0, 79, 0
2, 9780, Note_on_c, 0, 75, 81
2, 9792, Note_on_c, 0, 75, 0
2, 9792, Note_on_c, 0, 72, 81
2, 9881, Note_on_c, 0, 72, 0
2, 9888, Note_on_c, 0, 82, 81
2, 9900, Note_on_c, 0, 82, 0
2, 9900, Note_on_c, 0, 80, 81
2, 9955, Note_on_c, 0, 80, 0
2, 9960, Note_on_c, 0, 79, 81
2, 9983, Note_on_c, 0, 79, 0
2, 9984, Note_on_c, 0, 77, 81
2, 10051, Note_on_c, 0, 77, 0
2, 10056, Note_on_c, 0, 75, 81
2, 10079, Note_on_c, 0, 75, 0
2, 10080, Note_on_c, 0, 75, 81
2, 10176, Note_on_c, 0, 75, 0
2, 10176, Note_on_c, 0, 74, 79
2, 10265, Note_on_c, 0, 74, 0
2, 10368, Note_on_c, 0, 82, 75
2, 10391, Note_on_c, 0, 82, 0
2, 10392, Note_on_c, 0, 80, 74
2, 10415, Note_on_c, 0, 80, 0
2, 10416, Note_on_c, 0, 79, 74
2, 10439, Note_on_c, 0, 79, 0
2, 10440, Note_on_c, 0, 77, 73
2, 10463, Note_on_c, 0, 77, 0
2, 10464, Note_on_c, 0, 75, 73
2, 10487, Note_on_c, 0, 75, 0
2, 10488, Note_on_c, 0, 74, 72
2, 10511, Note_on_c, 0, 74, 0
2, 10512, Note_on_c, 0, 72, 72
2, 10535, Note_on_c, 0, 72, 0
2, 10536, Note_on_c, 0, 70, 72
2, 10559, Note_on_c, 0, 70, 0
2, 10560, Note_on_c, 0, 68, 71
2, 10583, Note_on_c, 0, 68, 0
2, 10584, Note_on_c, 0, 67, 71
2, 10607, Note_on_c, 0, 67, 0
2, 10608, Note_on_c, 0, 65, 70
2, 10631, Note_on_c, 0, 65, 0
2, 10632, Note_on_c, 0, 63, 70
2, 10655, Note_on_c, 0, 63, 0
2, 10656, Note_on_c, 0, 62, 70
2, 10674, Note_on_c, 0, 62, 0
2, 10674, Note_on_c, 0, 63, 70
2, 10692, Note_on_c, 0, 63, 0
2, 10692, Note_on_c, 0, 62, 70
2, 10710, Note_on_c, 0, 62, 0
2, 10710, Note_on_c, 0, 63, 70
2, 10728, Note_on_c, 0, 63, 0
2, 10728, Note_on_c, 0, 62, 70
2, 10746, Note_on_c, 0, 62, 0
2, 10746, Note_on_c, 0, 63, 70
2, 10764, Note_on_c, 0, 63, 0
2, 10764, Note_on_c, 0, 62, 70
2, 10782, Note_on_c, 0, 62, 0
2, 10782, Note_on_c, 0, 63, 70
2, 10789, Note_on_c, 0, 63, 0
2, 10800, Note_on_c, 0, 65, 72
2, 10823, Note_on_c, 0, 65, 0
2, 10824, Note_on_c, 0, 68, 72
2, 10847, Note_on_c, 0, 68, 0
2, 10848, Note_on_c, 0, 67, 73
2, 10937, Note_on_c, 0, 67, 0
2, 10944, Note_on_c, 0, 82, 70
2, 10967, Note_on_c, 0, 82, 0
2, 10968, Note_on_c, 0, 80, 69
2, 10991, Note_on_c, 0, 80, 0
2, 10992, Note_on_c, 0, 79, 69
2, 11015, Note_on_c, 0, 79, 0
2, 11016, Note_on_c, 0, 77, 68
2, 11039, Note_on_c, 0, 77, 0
2, 11040, Note_on_c, 0, 75, 68
2, 11063, Note_on_c, 0, 75, 0
2, 11064, Note_on_c, 0, 74, 67
2, 11087, Note_on_c, 0, 74, 0
2, 11088, Note_on_c, 0, 72, 67
2, 11111, Note_on_c, 0, 72, 0
2, 11112, Note_on_c, 0, 70, 66
2, 11135, Note_on_c, 0, 70, 0
2, 11136, Note_on_c, 0, 68, 66
2, 11159, Note_on_c, 0, 68, 0
2, 11160, Note_on_c, 0, 67, 66
2, 11183, Note_on_c, 0, 67, 0
2, 11184, Note_on_c, 0, 65, 67
2, 11207, Note_on_c, 0, 65, 0
2, 11208, Note_on_c, 0, 63, 67
2, 11231, Note_on_c, 0, 63, 0
2, 11232, Note_on_c, 0, 62, 68
2, 11250, Note_on_c, 0, 62, 0
2, 11250, Note_on_c, 0, 63, 68
2, 11268, Note_on_c, 0, 63, 0
2, 11268, Note_on_c, 0, 62, 68
2, 11286, Note_on_c, 0, 62, 0
2, 11286, Note_on_c, 0, 63, 68
2, 11304, Note_on_c, 0, 63, 0
2, 11304, Note_on_c, 0, 62, 68
2, 11322, Note_on_c, 0, 62, 0
2, 11322, Note_on_c, 0, 63, 68
2, 11340, Note_on_c, 0, 63, 0
2, 11340, Note_on_c, 0, 62, 68
2, 11358, Note_on_c, 0, 62, 0
2, 11358, Note_on_c, 0, 63, 68
2, 11365, Note_on_c, 0, 63, 0
2, 11376, Note_on_c, 0, 65, 71
2, 11399, Note_on_c, 0, 65, 0
2, 11400, Note_on_c, 0, 68, 72
2, 11423, Note_on_c, 0, 68, 0
2, 11424, Note_on_c, 0, 67, 72
2, 11513, Note_on_c, 0, 67, 0
2, 11520, Note_on_c, 0, 65, 75
2, 11587, Note_on_c, 0, 65, 0
2, 11592, Note_on_c, 0, 67, 75
2, 11615, Note_on_c, 0, 67, 0
2, 11616, Note_on_c, 0, 63, 75
2, 11705, Note_on_c, 0, 63, 0
2, 11712, Note_on_c, 0, 63, 75
2, 11727, Note_on_c, 0, 63, 0
2, 11728, Note_on_c, 0, 62, 75
2, 11743, Note_on_c, 0, 62, 0
2, 11744, Note_on_c, 0, 63, 75
2, 11759, Note_on_c, 0, 63, 0
2, 11760, Note_on_c, 0, 62, 75
2, 11775, Note_on_c, 0, 62, 0
2, 11776, Note_on_c, 0, 60, 75
2, 11791, Note_on_c, 0, 60, 0
2, 11792, Note_on_c, 0, 62, 75
2, 11807, Note_on_c, 0, 62, 0
2, 11808, Note_on_c, 0, 62, 75
2, 11904, Note_on_c, 0, 62, 0
2, 11904, Note_on_c, 0, 63, 75
2, 12081, Note_on_c, 0, 63, 0
2, 12096, Note_on_c, 0, 63, 75
2, 12185, Note_on_c, 0, 63, 0
2, 12192, Note_on_c, 0, 70, 75
2, 12281, Note_on_c, 0, 70, 0
2, 12360, Note_on_c, 0, 73, 75
2, 12383, Note_on_c, 0, 73, 0
2, 12384, Note_on_c, 0, 71, 75
2, 12480, Note_on_c, 0, 71, 0
2, 12480, Note_on_c, 0, 72, 75
2, 12569, Note_on_c, 0, 72, 0
2, 12672, Note_on_c, 0, 65, 76
2, 12761, Note_on_c, 0, 65, 0
2, 12768, Note_on_c, 0, 72, 77
2, 12857, Note_on_c, 0, 72, 0
2, 12936, Note_on_c, 0, 75, 78
2, 12959, Note_on_c, 0, 75, 0
2, 12960, Note_on_c, 0, 73, 78
2, 13056, Note_on_c, 0, 73, 0
2, 13056, Note_on_c, 0, 74, 79
2, 13145, Note_on_c, 0, 74, 0
2, 13248, Note_on_c, 0, 70, 80
2, 13337, Note_on_c, 0, 70, 0
2, 13344, Note_on_c, 0, 80, 81
2, 13433, Note_on_c, 0, 80, 0
2, 13512, Note_on_c, 0, 80, 81
2, 13524, Note_on_c, 0, 80, 0
2, 13524, Note_on_c, 0, 77, 81
2, 13536, Note_on_c, 0, 77, 0
2, 13536, Note_on_c, 0, 79, 81
2, 13625, Note_on_c, 0, 79, 0
2, 13632, Note_on_c, 0, 82, 81
2, 13721, Note_on_c, 0, 82, 0
2, 13800, Note_on_c, 0, 79, 81
2, 13812, Note_on_c, 0, 79, 0
2, 13812, Note_on_c, 0, 75, 81
2, 13824, Note_on_c, 0, 75, 0
2, 13824, Note_on_c, 0, 72, 81
2, 13913, Note_on_c, 0, 72, 0
2, 13920, Note_on_c, 0, 82, 81
2, 13932, Note_on_c, 0, 82, 0
2, 13932, Note_on_c, 0, 80, 81
2, 13987, Note_on_c, 0, 80, 0
2, 13992, Note_on_c, 0, 79, 81
2, 14015, Note_on_c, 0, 79, 0
2, 14016, Note_on_c, 0, 77, 81
2, 14083, Note_on_c, 0, 77, 0
2, 14088, Note_on_c, 0, 75, 81
2, 14111, Note_on_c, 0, 75, 0
2, 14112, Note_on_c, 0, 75, 81
2, 14208, Note_on_c, 0, 75, 0
2, 14208, Note_on_c, 0, 74, 79
2, 14297, Note_on_c, 0, 74, 0
2, 14400, Note_on_c, 0, 82, 75
2, 14423, Note_on_c, 0, 82, 0
2, 14424, Note_on_c, 0, 80, 74
2, 14447, Note_on_c, 0, 80, 0
2, 14448, Note_on_c, 0, 79, 74
2, 14471, Note_on_c, 0, 79, 0
2, 14472, Note_on_c, 0, 77, 73
2, 14495, Note_on_c, 0, 77, 0
2, 14496, Note_on_c, 0, 75, 73
2, 14519, Note_on_c, 0, 75, 0
2, 14520, Note_on_c, 0, 74, 72
2, 14543, Note_on_c, 0, 74, 0
2, 14544, Note_on_c, 0, 72, 72
2, 14567, Note_on_c, 0, 72, 0
2, 14568, Note_on_c, 0, 70, 72
2, 14591, Note_on_c, 0, 70, 0
2, 14592, Note_on_c, 0, 68, 71
2, 14615, Note_on_c, 0, 68, 0
2, 14616, Note_on_c, 0, 67, 71
2, 14639, Note_on_c, 0, 67, 0
2, 14640, Note_on_c, 0, 65, 70
2, 14663, Note_on_c, 0, 65, 0
2, 14664, Note_on_c, 0, 63, 70
2, 14687, Note_on_c, 0, 63, 0
2, 14688, Note_on_c, 0, 62, 70
2, 14706, Note_on_c, 0, 62, 0
2, 14706, Note_on_c, 0, 63, 70
2, 14724, Note_on_c, 0, 63, 0
2, 14724, Note_on_c, 0, 62, 70
2, 14742, Note_on_c, 0, 62, 0
2, 14742, Note_on_c, 0, 63, 70
2, 14760, Note_on_c, 0, 63, 0
2, 14760, Note_on_c, 0, 62, 70
2, 14778, Note_on_c, 0, 62, 0
2, 14778, Note_on_c, 0, 63, 70
2, 14796, Note_on_c, 0, 63, 0
2, 14796, Note_on_c, 0, 62, 70
2, 14814, Note_on_c, 0, 62, 0
2, 14814, Note_on_c, 0, 63, 70
2, 14821, Note_on_c, 0, 63, 0
2, 14832, Note_on_c, 0, 65, 72
2, 14855, Note_on_c, 0, 65, 0
2, 14856, Note_on_c, 0, 68, 72
2, 14879, Note_on_c, 0, 68, 0
2, 14880, Note_on_c, 0, 67, 73
2, 14969, Note_on_c, 0, 67, 0
2, 14976, Note_on_c, 0, 82, 70
2, 14999, Note_on_c, 0, 82, 0
2, 15000, Note_on_c, 0, 80, 69
2, 15023, Note_on_c, 0, 80, 0
2, 15024, Note_on_c, 0, 79, 69
2, 15047, Note_on_c, 0, 79, 0
2, 15048, Note_on_c, 0, 77, 68
2, 15071, Note_on_c, 0, 77, 0
2, 15072, Note_on_c, 0, 75, 68
2, 15095, Note_on_c, 0, 75, 0
2, 15096, Note_on_c, 0, 74, 67
2, 15119, Note_on_c, 0, 74, 0
2, 15120, Note_on_c, 0, 72, 67
2, 15143, Note_on_c, 0, 72, 0
2, 15144, Note_on_c, 0, 70, 66
2, 15167, Note_on_c, 0, 70, 0
2, 15168, Note_on_c, 0, 68, 66
2, 15191, Note_on_c, 0, 68, 0
2, 15192, Note_on_c, 0, 67, 66
2, 15215, Note_on_c, 0, 67, 0
2, 15216, Note_on_c, 0, 65, 67
2, 15239, Note_on_c, 0, 65, 0
2, 15240, Note_on_c, 0, 63, 67
2, 15263, Note_on_c, 0, 63, 0
2, 15264, Note_on_c, 0, 62, 68
2, 15282, Note_on_c, 0, 62, 0
2, 15282, Note_on_c, 0, 63, 68
2, 15300, Note_on_c, 0, 63, 0
2, 15300, Note_on_c, 0, 62, 68
2, 15318, Note_on_c, 0, 62, 0
2, 15318, Note_on_c, 0, 63, 68
2, 15336, Note_on_c, 0, 63, 0
2, 15336, Note_on_c, 0, 62, 68
2, 15354, Note_on_c, 0, 62, 0
2, 15354, Note_on_c, 0, 63, 68
2, 15372, Note_on_c, 0, 63, 0
2, 15372, Note_on_c, 0, 62, 68
2, 15390, Note_on_c, 0, 62, 0
2, 15390, Note_on_c, 0, 63, 68
2, 15397, Note_on_c, 0, 63, 0
2, 15408, Note_on_c, 0, 65, 71
2, 15431, Note_on_c, 0, 65, 0
2, 15432, Note_on_c, 0, 68, 72
2, 15455, Note_on_c, 0, 68, 0
2, 15456, Note_on_c, 0, 67, 72
2, 15545, Note_on_c, 0, 67, 0
2, 15552, Note_on_c, 0, 65, 75
2, 15619, Note_on_c, 0, 65, 0
2, 15624, Note_on_c, 0, 67, 75
2, 15647, Note_on_c, 0, 67, 0
2, 15648, Note_on_c, 0, 63, 75
2, 15737, Note_on_c, 0, 63, 0
2, 15744, Note_on_c, 0, 63, 75
2, 15759, Note_on_c, 0, 63, 0
2, 15760, Note_on_c, 0, 62, 75
2, 15775, Note_on_c, 0, 62, 0
2, 15776, Note_on_c, 0, 63, 75
2, 15791, Note_on_c, 0, 63, 0
2, 15792, Note_on_c, 0, 62, 75
2, 15807, Note_on_c, 0, 62, 0
2, 15808, Note_on_c, 0, 60, 75
2, 15823, Note_on_c, 0, 60, 0
2, 15824, Note_on_c, 0, 62, 75
2, 15839, Note_on_c, 0, 62, 0
2, 15840, Note_on_c, 0, 62, 75
2, 15936, Note_on_c, 0, 62, 0
2, 15936, Note_on_c, 0, 63, 75
2, 16113, Note_on_c, 0, 63, 0
2, 16176, Note_on_c, 0, 63, 66
2, 16265, Note_on_c, 0, 63, 0
2, 16272, Note_on_c, 0, 66, 66
2, 16361, Note_on_c, 0, 66, 0
2, 16368, Note_on_c, 0, 65, 66
2, 16461, Note_on_c, 0, 65, 0
2, 16464, Note_on_c, 0, 63, 66
2, 16553, Note_on_c, 0, 63, 0
2, 16560, Note_on_c, 0, 62, 67
2, 16649, Note_on_c, 0, 62, 0
2, 16656, Note_on_c, 0, 63, 67
2, 16749, Note_on_c, 0, 63, 0
2, 16752, Note_on_c, 0, 65, 68
2, 16841, Note_on_c, 0, 65, 0
2, 16848, Note_on_c, 0, 68, 69
2, 16937, Note_on_c, 0, 68, 0
2, 16944, Note_on_c, 0, 66, 69
2, 17037, Note_on_c, 0, 66, 0
2, 17040, Note_on_c, 0, 65, 70
2, 17085, Note_on_c, 0, 65, 0
2, 17328, Note_on_c, 0, 73, 75
2, 17417, Note_on_c, 0, 73, 0
2, 17424, Note_on_c, 0, 70, 75
2, 17513, Note_on_c, 0, 70, 0
2, 17520, Note_on_c, 0, 66, 75
2, 17565, Note_on_c, 0, 66, 0
2, 17616, Note_on_c, 0, 78, 75
2, 17705, Note_on_c, 0, 78, 0
2, 17712, Note_on_c, 0, 75, 75
2, 17801, Note_on_c, 0, 75, 0
2, 17808, Note_on_c, 0, 71, 75
2, 17853, Note_on_c, 0, 71, 0
2, 17904, Note_on_c, 0, 73, 75
2, 17993, Note_on_c, 0, 73, 0
2, 18000, Note_on_c, 0, 70, 75
2, 18089, Note_on_c, 0, 70, 0
2, 18096, Note_on_c, 0, 66, 75
2, 18141, Note_on_c, 0, 66, 0
2, 18192, Note_on_c, 0, 78, 75
2, 18281, Note_on_c, 0, 78, 0
2, 18288, Note_on_c, 0, 75, 75
2, 18377, Note_on_c, 0, 75, 0
2, 18384, Note_on_c, 0, 71, 75
2, 18429, Note_on_c, 0, 71, 0
2, 18480, Note_on_c, 0, 73, 75
2, 18569, Note_on_c, 0, 73, 0
2, 18576, Note_on_c, 0, 70, 75
2, 18665, Note_on_c, 0, 70, 0
2, 18672, Note_on_c, 0, 66, 75
2, 18717, Note_on_c, 0, 66, 0
2, 18768, Note_on_c, 0, 80, 75
2, 18857, Note_on_c, 0, 80, 0
2, 18864, Note_on_c, 0, 77, 75
2, 18953, Note_on_c, 0, 77, 0
2, 18960, Note_on_c, 0, 71, 75
2, 19005, Note_on_c, 0, 71, 0
2, 19008, Note_on_c, 0, 70, 75
2, 19053, Note_on_c, 0, 70, 0
2, 19056, Note_on_c, 0, 73, 75
2, 19145, Note_on_c, 0, 73, 0
2, 19152, Note_on_c, 0, 66, 75
2, 19197, Note_on_c, 0, 66, 0
2, 19200, Note_on_c, 0, 65, 75
2, 19245, Note_on_c, 0, 65, 0
2, 19248, Note_on_c, 0, 68, 75
2, 19341, Note_on_c, 0, 68, 0
2, 19344, Note_on_c, 0, 66, 75
2, 19433, Note_on_c, 0, 66, 0
2, 19440, Note_on_c, 0, 71, 75
2, 19529, Note_on_c, 0, 71, 0
2, 19536, Note_on_c, 0, 70, 75
2, 19629, Note_on_c, 0, 70, 0
2, 19632, Note_on_c, 0, 68, 75
2, 19721, Note_on_c, 0, 68, 0
2, 19728, Note_on_c, 0, 66, 75
2, 19817, Note_on_c, 0, 66, 0
2, 19824, Note_on_c, 0, 65, 75
2, 19917, Note_on_c, 0, 65, 0
2, 19920, Note_on_c, 0, 66, 75
2, 19965, Note_on_c, 0, 66, 0
2, 20208, Note_on_c, 0, 63, 66
2, 20297, Note_on_c, 0, 63, 0
2, 20304, Note_on_c, 0, 66, 66
2, 20393, Note_on_c, 0, 66, 0
2, 20400, Note_on_c, 0, 65, 66
2, 20493, Note_on_c, 0, 65, 0
2, 20496, Note_on_c, 0, 63, 66
2, 20585, Note_on_c, 0, 63, 0
2, 20592, Note_on_c, 0, 62, 67
2, 20681, Note_on_c, 0, 62, 0
2, 20688, Note_on_c, 0, 63, 67
2, 20781, Note_on_c, 0, 63, 0
2, 20784, Note_on_c, 0, 65, 68
2, 20873, Note_on_c, 0, 65, 0
2, 20880, Note_on_c, 0, 68, 69
2, 20969, Note_on_c, 0, 68, 0
2, 20976, Note_on_c, 0, 66, 69
2, 21069, Note_on_c, 0, 66, 0
2, 21072, Note_on_c, 0, 65, 70
2, 21117, Note_on_c, 0, 65, 0
2, 21360, Note_on_c, 0, 73, 75
2, 21449, Note_on_c, 0, 73, 0
2, 21456, Note_on_c, 0, 70, 75
2, 21545, Note_on_c, 0, 70, 0
2, 21552, Note_on_c, 0, 66, 75
2, 21597, Note_on_c, 0, 66, 0
2, 21648, Note_on_c, 0, 78, 75
2, 21737, Note_on_c, 0, 78, 0
2, 21744, Note_on_c, 0, 75, 75
2, 21833, Note_on_c, 0, 75, 0
2, 21840, Note_on_c, 0, 71, 75
2, 21885, Note_on_c, 0, 71, 0
2, 21936, Note_on_c, 0, 73, 75
2, 22025, Note_on_c, 0, 73, 0
2, 22032, Note_on_c, 0, 70, 75
2, 22121, Note_on_c, 0, 70, 0
2, 22128, Note_on_c, 0, 66, 75
2, 22173, Note_on_c, 0, 66, 0
2, 22224, Note_on_c, 0, 78, 75
2, 22313, Note_on_c, 0, 78, 0
2, 22320, Note_on_c, 0, 75, 75
2, 22409, Note_on_c, 0, 75, 0
2, 22416, Note_on_c, 0, 71, 75
2, 22461, Note_on_c, 0, 71, 0
2, 22512, Note_on_c, 0, 73, 75
2, 22601, Note_on_c, 0, 73, 0
2, 22608, Note_on_c, 0, 70, 75
2, 22697, Note_on_c, 0, 70, 0
2, 22704, Note_on_c, 0, 66, 75
2, 22749, Note_on_c, 0, 66, 0
2, 22800, Note_on_c, 0, 80, 75
2, 22889, Note_on_c, 0, 80, 0
2, 22896, Note_on_c, 0, 77, 75
2, 22985, Note_on_c, 0, 77, 0
2, 22992, Note_on_c, 0, 71, 75
2, 23037, Note_on_c, 0, 71, 0
2, 23040, Note_on_c, 0, 70, 75
2, 23085, Note_on_c, 0, 70, 0
2, 23088, Note_on_c, 0, 73, 75
2, 23177, Note_on_c, 0, 73, 0
2, 23184, Note_on_c, 0, 66, 75
2, 23229, Note_on_c, 0, 66, 0
2, 23232, Note_on_c, 0, 65, 75
2, 23277, Note_on_c, 0, 65, 0
2, 23280, Note_on_c, 0, 68, 75
2, 23373, Note_on_c, 0, 68, 0
2, 23376, Note_on_c, 0, 66, 75
2, 23465, Note_on_c, 0, 66, 0
2, 23472, Note_on_c, 0, 71, 75
2, 23561, Note_on_c, 0, 71, 0
2, 23568, Note_on_c, 0, 70, 75
2, 23661, Note_on_c, 0, 70, 0
2, 23664, Note_on_c, 0, 68, 75
2, 23753, Note_on_c, 0, 68, 0
2, 23760, Note_on_c, 0, 66, 75
2, 23849, Note_on_c, 0, 66, 0
2, 23856, Note_on_c, 0, 65, 75
2, 23949, Note_on_c, 0, 65, 0
2, 23952, Note_on_c, 0, 66, 75
2, 23997, Note_on_c, 0, 66, 0
2, 24240, Note_on_c, 0, 70, 75
2, 24329, Note_on_c, 0, 70, 0
2, 24336, Note_on_c, 0, 82, 75
2, 24425, Note_on_c, 0, 82, 0
2, 24432, Note_on_c, 0, 80, 75
2, 24525, Note_on_c, 0, 80, 0
2, 24528, Note_on_c, 0, 78, 75
2, 24617, Note_on_c, 0, 78, 0
2, 24624, Note_on_c, 0, 77, 75
2, 24713, Note_on_c, 0, 77, 0
2, 24720, Note_on_c, 0, 75, 75
2, 24813, Note_on_c, 0, 75, 0
2, 24816, Note_on_c, 0, 74, 75
2, 24905, Note_on_c, 0, 74, 0
2, 24912, Note_on_c, 0, 77, 75
2, 25001, Note_on_c, 0, 77, 0
2, 25008, Note_on_c, 0, 75, 75
2, 25101, Note_on_c, 0, 75, 0
2, 25104, Note_on_c, 0, 77, 75
2, 25193, Note_on_c, 0, 77, 0
2, 25200, Note_on_c, 0, 80, 75
2, 25289, Note_on_c, 0, 80, 0
2, 25296, Note_on_c, 0, 78, 75
2, 25389, Note_on_c, 0, 78, 0
2, 25392, Note_on_c, 0, 77, 75
2, 25481, Note_on_c, 0, 77, 0
2, 25488, Note_on_c, 0, 83, 75
2, 25577, Note_on_c, 0, 83, 0
2, 25584, Note_on_c, 0, 75, 75
2, 25721, Note_on_c, 0, 75, 0
2, 25728, Note_on_c, 0, 74, 75
2, 25817, Note_on_c, 0, 74, 0
2, 25968, Note_on_c, 0, 70, 75
2, 26057, Note_on_c, 0, 70, 0
2, 26064, Note_on_c, 0, 67, 75
2, 26153, Note_on_c, 0, 67, 0
2, 26160, Note_on_c, 0, 63, 75
2, 26205, Note_on_c, 0, 63, 0
2, 26256, Note_on_c, 0, 75, 75
2, 26345, Note_on_c, 0, 75, 0
2, 26352, Note_on_c, 0, 71, 75
2, 26441, Note_on_c, 0, 71, 0
2, 26448, Note_on_c, 0, 68, 75
2, 26493, Note_on_c, 0, 68, 0
2, 26544, Note_on_c, 0, 70, 75
2, 26633, Note_on_c, 0, 70, 0
2, 26640, Note_on_c, 0, 67, 75
2, 26729, Note_on_c, 0, 67, 0
2, 26736, Note_on_c, 0, 63, 75
2, 26781, Note_on_c, 0, 63, 0
2, 26832, Note_on_c, 0, 75, 75
2, 26921, Note_on_c, 0, 75, 0
2, 26928, Note_on_c, 0, 71, 75
2, 27017, Note_on_c, 0, 71, 0
2, 27024, Note_on_c, 0, 68, 75
2, 27069, Note_on_c, 0, 68, 0
2, 27120, Note_on_c, 0, 70, 75
2, 27209, Note_on_c, 0, 70, 0
2, 27216, Note_on_c, 0, 66, 75
2, 27305, Note_on_c, 0, 66, 0
2, 27312, Note_on_c, 0, 63, 75
2, 27357, Note_on_c, 0, 63, 0
2, 27408, Note_on_c, 0, 77, 75
2, 27497, Note_on_c, 0, 77, 0
2, 27504, Note_on_c, 0, 74, 74
2, 27593, Note_on_c, 0, 74, 0
2, 27600, Note_on_c, 0, 68, 73
2, 27645, Note_on_c, 0, 68, 0
2, 27648, Note_on_c, 0, 66, 73
2, 27693, Note_on_c, 0, 66, 0
2, 27696, Note_on_c, 0, 70, 72
2, 27785, Note_on_c, 0, 70, 0
2, 27792, Note_on_c, 0, 63, 72
2, 27837, Note_on_c, 0, 63, 0
2, 27840, Note_on_c, 0, 62, 71
2, 27885, Note_on_c, 0, 62, 0
2, 27888, Note_on_c, 0, 65, 71
2, 27981, Note_on_c, 0, 65, 0
2, 27984, Note_on_c, 0, 63, 70
2, 28073, Note_on_c, 0, 63, 0
2, 28080, Note_on_c, 0, 68, 69
2, 28169, Note_on_c, 0, 68, 0
2, 28176, Note_on_c, 0, 66, 69
2, 28269, Note_on_c, 0, 66, 0
2, 28272, Note_on_c, 0, 65, 68
2, 28361, Note_on_c, 0, 65, 0
2, 28368, Note_on_c, 0, 63, 67
2, 28457, Note_on_c, 0, 63, 0
2, 28464, Note_on_c, 0, 62, 67
2, 28557, Note_on_c, 0, 62, 0
2, 28560, Note_on_c, 0, 63, 66
2, 28605, Note_on_c, 0, 63, 0
2, 28848, Note_on_c, 0, 70, 75
2, 28937, Note_on_c, 0, 70, 0
2, 28944, Note_on_c, 0, 82, 75
2, 29033, Note_on_c, 0, 82, 0
2, 29040, Note_on_c, 0, 80, 75
2, 29133, Note_on_c, 0, 80, 0
2, 29136, Note_on_c, 0, 78, 75
2, 29225, Note_on_c, 0, 78, 0
2, 29232, Note_on_c, 0, 77, 75
2, 29321, Note_on_c, 0, 77, 0
2, 29328, Note_on_c, 0, 75, 75
2, 29421, Note_on_c, 0, 75, 0
2, 29424, Note_on_c, 0, 74, 75
2, 29513, Note_on_c, 0, 74, 0
2, 29520, Note_on_c, 0, 77, 75
2, 29609, Note_on_c, 0, 77, 0
2, 29616, Note_on_c, 0, 75, 75
2, 29709, Note_on_c, 0, 75, 0
2, 29712, Note_on_c, 0, 77, 75
2, 29801, Note_on_c, 0, 77, 0
2, 29808, Note_on_c, 0, 80, 75
2, 29897, Note_on_c, 0, 80, 0
2, 29904, Note_on_c, 0, 78, 75
2, 29997, Note_on_c, 0, 78, 0
2, 30000, Note_on_c, 0, 77, 75
2, 30089, Note_on_c, 0, 77, 0
2, 30096, Note_on_c, 0, 83, 75
2, 30185, Note_on_c, 0, 83, 0
2, 30192, Note_on_c, 0, 75, 75
2, 30329, Note_on_c, 0, 75, 0
2, 30336, Note_on_c, 0, 74, 75
2, 30425, Note_on_c, 0, 74, 0
2, 30576, Note_on_c, 0, 70, 75
2, 30665, Note_on_c, 0, 70, 0
2, 30672, Note_on_c, 0, 67, 75
2, 30761, Note_on_c, 0, 67, 0
2, 30768, Note_on_c, 0, 63, 75
2, 30813, Note_on_c, 0, 63, 0
2, 30864, Note_on_c, 0, 75, 75
2, 30953, Note_on_c, 0, 75, 0
2, 30960, Note_on_c, 0, 71, 75
2, 31049, Note_on_c, 0, 71, 0
2, 31056, Note_on_c, 0, 68, 75
2, 31101, Note_on_c, 0, 68, 0
2, 31152, Note_on_c, 0, 70, 75
2, 31241, Note_on_c, 0, 70, 0
2, 31248, Note_on_c, 0, 67, 75
2, 31337, Note_on_c, 0, 67, 0
2, 31344, Note_on_c, 0, 63, 75
2, 31389, Note_on_c, 0, 63, 0
2, 31440, Note_on_c, 0, 75, 75
2, 31529, Note_on_c, 0, 75, 0
2, 31536, Note_on_c, 0, 71, 75
2, 31625, Note_on_c, 0, 71, 0
2, 31632, Note_on_c, 0, 68, 75
2, 31677, Note_on_c, 0, 68, 0
2, 31728, Note_on_c, 0, 70, 75
2, 31817, Note_on_c, 0, 70, 0
2, 31824, Note_on_c, 0, 66, 75
2, 31913, Note_on_c, 0, 66, 0
2, 31920, Note_on_c, 0, 63, 75
2, 31965, Note_on_c, 0, 63, 0
2, 32016, Note_on_c, 0, 77, 75
2, 32105, Note_on_c, 0, 77, 0
2, 32112, Note_on_c, 0, 74, 74
2, 32201, Note_on_c, 0, 74, 0
2, 32208, Note_on_c, 0, 68, 73
2, 32253, Note_on_c, 0, 68, 0
2, 32256, Note_on_c, 0, 66, 73
2, 32301, Note_on_c, 0, 66, 0
2, 32304, Note_on_c, 0, 70, 72
2, 32393, Note_on_c, 0, 70, 0
2, 32400, Note_on_c, 0, 63, 72
2, 32445, Note_on_c, 0, 63, 0
2, 32448, Note_on_c, 0, 62, 71
2, 32493, Note_on_c, 0, 62, 0
2, 32496, Note_on_c, 0, 65, 71
2, 32589, Note_on_c, 0, 65, 0
2, 32592, Note_on_c, 0, 63, 70
2, 32681, Note_on_c, 0, 63, 0
2, 32688, Note_on_c, 0, 68, 69
2, 32777, Note_on_c, 0, 68, 0
2, 32784, Note_on_c, 0, 66, 69
2, 32877, Note_on_c, 0, 66, 0
2, 32880, Note_on_c, 0, 65, 68
2, 32969, Note_on_c, 0, 65, 0
2, 32976, Note_on_c, 0, 63, 67
2, 33065, Note_on_c, 0, 63, 0
2, 33072, Note_on_c, 0, 62, 67
2, 33165, Note_on_c, 0, 62, 0
2, 33168, Note_on_c, 0, 63, 66
2, 33213, Note_on_c, 0, 63, 0
2, 33408, Note_on_c, 0, 63, 75
2, 33497, Note_on_c, 0, 63, 0
2, 33504, Note_on_c, 0, 75, 75
2, 33593, Note_on_c, 0, 75, 0
2, 33672, Note_on_c, 0, 75, 75
2, 33695, Note_on_c, 0, 75, 0
2, 33696, Note_on_c, 0, 70, 75
2, 33785, Note_on_c, 0, 70, 0
2, 33792, Note_on_c, 0, 80, 75
2, 33881, Note_on_c, 0, 80, 0
2, 33960, Note_on_c, 0, 80, 75
2, 33983, Note_on_c, 0, 80, 0
2, 33984, Note_on_c, 0, 79, 75
2, 34073, Note_on_c, 0, 79, 0
2, 34080, Note_on_c, 0, 82, 77
2, 34169, Note_on_c, 0, 82, 0
2, 34176, Note_on_c, 0, 82, 79
2, 34199, Note_on_c, 0, 82, 0
2, 34200, Note_on_c, 0, 80, 79
2, 34223, Note_on_c, 0, 80, 0
2, 34224, Note_on_c, 0, 79, 80
2, 34247, Note_on_c, 0, 79, 0
2, 34248, Note_on_c, 0, 77, 80
2, 34271, Note_on_c, 0, 77, 0
2, 34272, Note_on_c, 0, 75, 81
2, 34361, Note_on_c, 0, 75, 0
2, 34368, Note_on_c, 0, 75, 79
2, 34383, Note_on_c, 0, 75, 0
2, 34384, Note_on_c, 0, 74, 78
2, 34399, Note_on_c, 0, 74, 0
2, 34400, Note_on_c, 0, 75, 78
2, 34415, Note_on_c, 0, 75, 0
2, 34416, Note_on_c, 0, 74, 78
2, 34431, Note_on_c, 0, 74, 0
2, 34432, Note_on_c, 0, 72, 78
2, 34447, Note_on_c, 0, 72, 0
2, 34448, Note_on_c, 0, 74, 77
2, 34463, Note_on_c, 0, 74, 0
2, 34464, Note_on_c, 0, 75, 77
2, 34553, Note_on_c, 0, 75, 0
2, 34560, Note_on_c, 0, 63, 75
2, 34649, Note_on_c, 0, 63, 0
2, 34656, Note_on_c, 0, 68, 75
2, 34745, Note_on_c, 0, 68, 0
2, 34824, Note_on_c, 0, 72, 75
2, 34836, Note_on_c, 0, 72, 0
2, 34836, Note_on_c, 0, 68, 75
2, 34848, Note_on_c, 0, 68, 0
2, 34848, Note_on_c, 0, 70, 75
2, 34937, Note_on_c, 0, 70, 0
2, 34944, Note_on_c, 0, 63, 75
2, 35033, Note_on_c, 0, 63, 0
2, 35112, Note_on_c, 0, 67, 75
2, 35124, Note_on_c, 0, 67, 0
2, 35124, Note_on_c, 0, 63, 75
2, 35136, Note_on_c, 0, 63, 0
2, 35136, Note_on_c, 0, 58, 75
2, 35225, Note_on_c, 0, 58, 0
2, 35232, Note_on_c, 0, 68, 91
2, 35232, Note_on_c, 0, 65, 91
2, 35328, Note_on_c, 0, 68, 0
2, 35328, Note_on_c, 0, 65, 0
2, 35328, Note_on_c, 0, 67, 75
2, 35328, Note_on_c, 0, 63, 75
2, 35417, Note_on_c, 0, 67, 0
2, 35417, Note_on_c, 0, 63, 0
2, 35424, Note_on_c, 0, 68, 75
2, 35439, Note_on_c, 0, 68, 0
2, 35440, Note_on_c, 0, 67, 75
2, 35455, Note_on_c, 0, 67, 0
2, 35456, Note_on_c, 0, 68, 75
2, 35471, Note_on_c, 0, 68, 0
2, 35472, Note_on_c, 0, 67, 75
2, 35487, Note_on_c, 0, 67, 0
2, 35488, Note_on_c, 0, 65, 75
2, 35503, Note_on_c, 0, 65, 0
2, 35504, Note_on_c, 0, 67, 75
2, 35519, Note_on_c, 0, 67, 0
2, 35520, Note_on_c, 0, 65, 75
2, 35609, Note_on_c, 0, 65, 0
2, 35712, Note_on_c, 0, 77, 75
2, 35735, Note_on_c, 0, 77, 0
2, 35736, Note_on_c, 0, 75, 74
2, 35759, Note_on_c, 0, 75, 0
2, 35760, Note_on_c, 0, 74, 73
2, 35783, Note_on_c, 0, 74, 0
2, 35784, Note_on_c, 0, 72, 73
2, 35807, Note_on_c, 0, 72, 0
2, 35808, Note_on_c, 0, 70, 72
2, 35831, Note_on_c, 0, 70, 0
2, 35832, Note_on_c, 0, 69, 71
2, 35855, Note_on_c, 0, 69, 0
2, 35856, Note_on_c, 0, 67, 71
2, 35879, Note_on_c, 0, 67, 0
2, 35880, Note_on_c, 0, 65, 70
2, 35903, Note_on_c, 0, 65, 0
2, 35904, Note_on_c, 0, 63, 70
2, 35927, Note_on_c, 0, 63, 0
2, 35928, Note_on_c, 0, 62, 70
2, 35951, Note_on_c, 0, 62, 0
2, 35952, Note_on_c, 0, 60, 70
2, 35975, Note_on_c, 0, 60, 0
2, 35976, Note_on_c, 0, 58, 70
2, 35999, Note_on_c, 0, 58, 0
2, 36000, Note_on_c, 0, 57, 71
2, 36018, Note_on_c, 0, 57, 0
2, 36018, Note_on_c, 0, 58, 71
2, 36036, Note_on_c, 0, 58, 0
2, 36036, Note_on_c, 0, 57, 71
2, 36054, Note_on_c, 0, 57, 0
2, 36054, Note_on_c, 0, 58, 71
2, 36072, Note_on_c, 0, 58, 0
2, 36072, Note_on_c, 0, 57, 71
2, 36090, Note_on_c, 0, 57, 0
2, 36090, Note_on_c, 0, 58, 71
2, 36108, Note_on_c, 0, 58, 0
2, 36108, Note_on_c, 0, 57, 71
2, 36126, Note_on_c, 0, 57, 0
2, 36126, Note_on_c, 0, 58, 71
2, 36133, Note_on_c, 0, 58, 0
2, 36144, Note_on_c, 0, 60, 73
2, 36167, Note_on_c, 0, 60, 0
2, 36168, Note_on_c, 0, 63, 73
2, 36191, Note_on_c, 0, 63, 0
2, 36192, Note_on_c, 0, 62, 73
2, 36281, Note_on_c, 0, 62, 0
2, 36288, Note_on_c, 0, 77, 70
2, 36311, Note_on_c, 0, 77, 0
2, 36312, Note_on_c, 0, 75, 69
2, 36335, Note_on_c, 0, 75, 0
2, 36336, Note_on_c, 0, 74, 69
2, 36359, Note_on_c, 0, 74, 0
2, 36360, Note_on_c, 0, 72, 68
2, 36383, Note_on_c, 0, 72, 0
2, 36384, Note_on_c, 0, 70, 68
2, 36407, Note_on_c, 0, 70, 0
2, 36408, Note_on_c, 0, 69, 67
2, 36431, Note_on_c, 0, 69, 0
2, 36432, Note_on_c, 0, 67, 67
2, 36455, Note_on_c, 0, 67, 0
2, 36456, Note_on_c, 0, 65, 66
2, 36479, Note_on_c, 0, 65, 0
2, 36480, Note_on_c, 0, 63, 66
2, 36503, Note_on_c, 0, 63, 0
2, 36504, Note_on_c, 0, 62, 66
2, 36527, Note_on_c, 0, 62, 0
2, 36528, Note_on_c, 0, 60, 67
2, 36551, Note_on_c, 0, 60, 0
2, 36552, Note_on_c, 0, 58, 67
2, 36575, Note_on_c, 0, 58, 0
2, 36576, Note_on_c, 0, 57, 68
2, 36594, Note_on_c, 0, 57, 0
2, 36594, Note_on_c, 0, 58, 68
2, 36612, Note_on_c, 0, 58, 0
2, 36612, Note_on_c, 0, 57, 68
2, 36630, Note_on_c, 0, 57, 0
2, 36630, Note_on_c, 0, 58, 68
2, 36648, Note_on_c, 0, 58, 0
2, 36648, Note_on_c, 0, 57, 68
2, 36666, Note_on_c, 0, 57, 0
2, 36666, Note_on_c, 0, 58, 68
2, 36684, Note_on_c, 0, 58, 0
2, 36684, Note_on_c, 0, 57, 68
2, 36702, Note_on_c, 0, 57, 0
2, 36702, Note_on_c, 0, 58, 68
2, 36709, Note_on_c, 0, 58, 0
2, 36720, Note_on_c, 0, 60, 71
2, 36743, Note_on_c, 0, 60, 0
2, 36744, Note_on_c, 0, 63, 72
2, 36767, Note_on_c, 0, 63, 0
2, 36768, Note_on_c, 0, 62, 72
2, 36857, Note_on_c, 0, 62, 0
2, 36864, Note_on_c, 0, 60, 75
2, 36931, Note_on_c, 0, 60, 0
2, 36936, Note_on_c, 0, 62, 75
2, 36959, Note_on_c, 0, 62, 0
2, 36960, Note_on_c, 0, 58, 75
2, 37049, Note_on_c, 0, 58, 0
2, 37056, Note_on_c, 0, 58, 75
2, 37071, Note_on_c, 0, 58, 0
2, 37072, Note_on_c, 0, 57, 75
2, 37087, Note_on_c, 0, 57, 0
2, 37088, Note_on_c, 0, 58, 75
2, 37103, Note_on_c, 0, 58, 0
2, 37104, Note_on_c, 0, 57, 75
2, 37119, Note_on_c, 0, 57, 0
2, 37120, Note_on_c, 0, 55, 75
2, 37135, Note_on_c, 0, 55, 0
2, 37136, Note_on_c, 0, 57, 75
2, 37151, Note_on_c, 0, 57, 0
2, 37152, Note_on_c, 0, 57, 75
2, 37248, Note_on_c, 0, 57, 0
2, 37248, Note_on_c, 0, 58, 75
2, 37425, Note_on_c, 0, 58, 0
2, 37440, Note_on_c, 0, 63, 75
2, 37529, Note_on_c, 0, 63, 0
2, 37536, Note_on_c, 0, 75, 75
2, 37625, Note_on_c, 0, 75, 0
2, 37704, Note_on_c, 0, 75, 75
2, 37727, Note_on_c, 0, 75, 0
2, 37728, Note_on_c, 0, 70, 75
2, 37817, Note_on_c, 0, 70, 0
2, 37824, Note_on_c, 0, 80, 75
2, 37913, Note_on_c, 0, 80, 0
2, 37992, Note_on_c, 0, 80, 75
2, 38015, Note_on_c, 0, 80, 0
2, 38016, Note_on_c, 0, 79, 75
2, 38105, Note_on_c, 0, 79, 0
2, 38112, Note_on_c, 0, 82, 77
2, 38201, Note_on_c, 0, 82, 0
2, 38208, Note_on_c, 0, 82, 79
2, 38231, Note_on_c, 0, 82, 0
2, 38232, Note_on_c, 0, 80, 79
2, 38255, Note_on_c, 0, 80, 0
2, 38256, Note_on_c, 0, 79, 80
2, 38279, Note_on_c, 0, 79, 0
2, 38280, Note_on_c, 0, 77, 80
2, 38303, Note_on_c, 0, 77, 0
2, 38304, Note_on_c, 0, 75, 81
2, 38393, Note_on_c, 0, 75, 0
2, 38400, Note_on_c, 0, 75, 79
2, 38415, Note_on_c, 0, 75, 0
2, 38416, Note_on_c, 0, 74, 78
2, 38431, Note_on_c, 0, 74, 0
2, 38432, Note_on_c, 0, 75, 78
2, 38447, Note_on_c, 0, 75, 0
2, 38448, Note_on_c, 0, 74, 78
2, 38463, Note_on_c, 0, 74, 0
2, 38464, Note_on_c, 0, 72, 78
2, 38479, Note_on_c, 0, 72, 0
2, 38480, Note_on_c, 0, 74, 77
2, 38495, Note_on_c, 0, 74, 0
2, 38496, Note_on_c, 0, 75, 77
2, 38585, Note_on_c, 0, 75, 0
2, 38592, Note_on_c, 0, 63, 75
2, 38681, Note_on_c, 0, 63, 0
2, 38688, Note_on_c, 0, 68, 75
2, 38777, Note_on_c, 0, 68, 0
2, 38856, Note_on_c, 0, 72, 75
2, 38868, Note_on_c, 0, 72, 0
2, 38868, Note_on_c, 0, 68, 75
2, 38880, Note_on_c, 0, 68, 0
2, 38880, Note_on_c, 0, 70, 75
2, 38969, Note_on_c, 0, 70, 0
2, 38976, Note_on_c, 0, 63, 75
2, 39065, Note_on_c, 0, 63, 0
2, 39144, Note_on_c, 0, 67, 75
2, 39156, Note_on_c, 0, 67, 0
2, 39156, Note_on_c, 0, 63, 75
2, 39168, Note_on_c, 0, 63, 0
2, 39168, Note_on_c, 0, 58, 75
2, 39257, Note_on_c, 0, 58, 0
2, 39264, Note_on_c, 0, 68, 91
2, 39264, Note_on_c, 0, 65, 91
2, 39360, Note_on_c, 0, 68, 0
2, 39360, Note_on_c, 0, 65, 0
2, 39360, Note_on_c, 0, 67, 75
2, 39360, Note_on_c, 0, 63, 75
2, 39449, Note_on_c, 0, 67, 0
2, 39449, Note_on_c, 0, 63, 0
2, 39456, Note_on_c, 0, 68, 75
2, 39471, Note_on_c, 0, 68, 0
2, 39472, Note_on_c, 0, 67, 75
2, 39487, Note_on_c, 0, 67, 0
2, 39488, Note_on_c, 0, 68, 75
2, 39503, Note_on_c, 0, 68, 0
2, 39504, Note_on_c, 0, 67, 75
2, 39519, Note_on_c, 0, 67, 0
2, 39520, Note_on_c, 0, 65, 75
2, 39535, Note_on_c, 0, 65, 0
2, 39536, Note_on_c, 0, 67, 75
2, 39551, Note_on_c, 0, 67, 0
2, 39552, Note_on_c, 0, 65, 75
2, 39641, Note_on_c, 0, 65, 0
2, 39744, Note_on_c, 0, 77, 75
2, 39767, Note_on_c, 0, 77, 0
2, 39768, Note_on_c, 0, 75, 74
2, 39791, Note_on_c, 0, 75, 0
2, 39792, Note_on_c, 0, 74, 73
2, 39815, Note_on_c, 0, 74, 0
2, 39816, Note_on_c, 0, 72, 73
2, 39839, Note_on_c, 0, 72, 0
2, 39840, Note_on_c, 0, 70, 72
2, 39863, Note_on_c, 0, 70, 0
2, 39864, Note_on_c, 0, 69, 71
2, 39887, Note_on_c, 0, 69, 0
2, 39888, Note_on_c, 0, 67, 71
2, 39911, Note_on_c, 0, 67, 0
2, 39912, Note_on_c, 0, 65, 70
2, 39935, Note_on_c, 0, 65, 0
2, 39936, Note_on_c, 0, 63, 70
2, 39959, Note_on_c, 0, 63, 0
2, 39960, Note_on_c, 0, 62, 70
2, 39983, Note_on_c, 0, 62, 0
2, 39984, Note_on_c, 0, 60, 70
2, 40007, Note_on_c, 0, 60, 0
2, 40008, Note_on_c, 0, 58, 70
2, 40031, Note_on_c, 0, 58, 0
2, 40032, Note_on_c, 0, 57, 71
2, 40050, Note_on_c, 0, 57, 0
2, 40050, Note_on_c, 0, 58, 71
2, 40068, Note_on_c, 0, 58, 0
2, 40068, Note_on_c, 0, 57, 71
2, 40086, Note_on_c, 0, 57, 0
2, 40086, Note_on_c, 0, 58, 71
2, 40104, Note_on_c, 0, 58, 0
2, 40104, Note_on_c, 0, 57, 71
2, 40122, Note_on_c, 0, 57, 0
2, 40122, Note_on_c, 0, 58, 71
2, 40140, Note_on_c, 0, 58, 0
2, 40140, Note_on_c, 0, 57, 71
2, 40158, Note_on_c, 0, 57, 0
2, 40158, Note_on_c, 0, 58, 71
2, 40165, Note_on_c, 0, 58, 0
2, 40176, Note_on_c, 0, 60, 73
2, 40199, Note_on_c, 0, 60, 0
2, 40200, Note_on_c, 0, 63, 73
2, 40223, Note_on_c, 0, 63, 0
2, 40224, Note_on_c, 0, 62, 73
2, 40313, Note_on_c, 0, 62, 0
2, 40320, Note_on_c, 0, 77, 70
2, 40343, Note_on_c, 0, 77, 0
2, 40344, Note_on_c, 0, 75, 69
2, 40367, Note_on_c, 0, 75, 0
2, 40368, Note_on_c, 0, 74, 69
2, 40391, Note_on_c, 0, 74, 0
2, 40392, Note_on_c, 0, 72, 68
2, 40415, Note_on_c, 0, 72, 0
2, 40416, Note_on_c, 0, 70, 68
2, 40439, Note_on_c, 0, 70, 0
2, 40440, Note_on_c, 0, 69, 67
2, 40463, Note_on_c, 0, 69, 0
2, 40464, Note_on_c, 0, 67, 67
2, 40487, Note_on_c, 0, 67, 0
2, 40488, Note_on_c, 0, 65, 66
2, 40511, Note_on_c, 0, 65, 0
2, 40512, Note_on_c, 0, 63, 66
2, 40535, Note_on_c, 0, 63, 0
2, 40536, Note_on_c, 0, 62, 66
2, 40559, Note_on_c, 0, 62, 0
2, 40560, Note_on_c, 0, 60, 67
2, 40583, Note_on_c, 0, 60, 0
2, 40584, Note_on_c, 0, 58, 67
2, 40607, Note_on_c, 0, 58, 0
2, 40608, Note_on_c, 0, 57, 68
2, 40626, Note_on_c, 0, 57, 0
2, 40626, Note_on_c, 0, 58, 68
2, 40644, Note_on_c, 0, 58, 0
2, 40644, Note_on_c, 0, 57, 68
2, 40662, Note_on_c, 0, 57, 0
2, 40662, Note_on_c, 0, 58, 68
2, 40680, Note_on_c, 0, 58, 0
2, 40680, Note_on_c, 0, 57, 68
2, 40698, Note_on_c, 0, 57, 0
2, 40698, Note_on_c, 0, 58, 68
2, 40716, Note_on_c, 0, 58, 0
2, 40716, Note_on_c, 0, 57, 68
2, 40734, Note_on_c, 0, 57, 0
2, 40734, Note_on_c, 0, 58, 68
2, 40741, Note_on_c, 0, 58, 0
2, 40752, Note_on_c, 0, 60, 71
2, 40775, Note_on_c, 0, 60, 0
2, 40776, Note_on_c, 0, 63, 72
2, 40799, Note_on_c, 0, 63, 0
2, 40800, Note_on_c, 0, 62, 72
2, 40889, Note_on_c, 0, 62, 0
2, 40896, Note_on_c, 0, 60, 75
2, 40963, Note_on_c, 0, 60, 0
2, 40968, Note_on_c, 0, 62, 75
2, 40991, Note_on_c, 0, 62, 0
2, 40992, Note_on_c, 0, 58, 75
2, 41081, Note_on_c, 0, 58, 0
2, 41088, Note_on_c, 0, 58, 75
2, 41103, Note_on_c, 0, 58, 0
2, 41104, Note_on_c, 0, 57, 75
2, 41119, Note_on_c, 0, 57, 0
2, 41120, Note_on_c, 0, 58, 75
2, 41135, Note_on_c, 0, 58, 0
2, 41136, Note_on_c, 0, 57, 75
2, 41151, Note_on_c, 0, 57, 0
2, 41152, Note_on_c, 0, 55, 75
2, 41167, Note_on_c, 0, 55, 0
2, 41168, Note_on_c, 0, 57, 75
2, 41183, Note_on_c, 0, 57, 0
2, 41184, Note_on_c, 0, 57, 75
2, 41280, Note_on_c, 0, 57, 0
2, 41280, Note_on_c, 0, 58, 75
2, 41457, Note_on_c, 0, 58, 0
2, 41472, Note_on_c, 0, 63, 75
2, 41561, Note_on_c, 0, 63, 0
2, 41568, Note_on_c, 0, 70, 75
2, 41657, Note_on_c, 0, 70, 0
2, 41736, Note_on_c, 0, 73, 75
2, 41759, Note_on_c, 0, 73, 0
2, 41760, Note_on_c, 0, 71, 75
2, 41856, Note_on_c, 0, 71, 0
2, 41856, Note_on_c, 0, 72, 76
2, 41945, Note_on_c, 0, 72, 0
2, 42048, Note_on_c, 0, 65, 77
2, 42137, Note_on_c, 0, 65, 0
2, 42144, Note_on_c, 0, 72, 77
2, 42233, Note_on_c, 0, 72, 0
2, 42312, Note_on_c, 0, 75, 78
2, 42335, Note_on_c, 0, 75, 0
2, 42336, Note_on_c, 0, 73, 78
2, 42432, Note_on_c, 0, 73, 0
2, 42432, Note_on_c, 0, 74, 79
2, 42521, Note_on_c, 0, 74, 0
2, 42624, Note_on_c, 0, 70, 80
2, 42713, Note_on_c, 0, 70, 0
2, 42720, Note_on_c, 0, 80, 80
2, 42809, Note_on_c, 0, 80, 0
2, 42888, Note_on_c, 0, 80, 81
2, 42900, Note_on_c, 0, 80, 0
2, 42900, Note_on_c, 0, 77, 81
2, 42912, Note_on_c, 0, 77, 0
2, 42912, Note_on_c, 0, 79, 81
2, 43001, Note_on_c, 0, 79, 0
2, 43008, Note_on_c, 0, 82, 81
2, 43097, Note_on_c, 0, 82, 0
2, 43176, Note_on_c, 0, 79, 81
2, 43188, Note_on_c, 0, 79, 0
2, 43188, Note_on_c, 0, 75, 81
2, 43200, Note_on_c, 0, 75, 0
2, 43200, Note_on_c, 0, 72, 81
2, 43289, Note_on_c, 0, 72, 0
2, 43296, Note_on_c, 0, 82, 81
2, 43308, Note_on_c, 0, 82, 0
2, 43308, Note_on_c, 0, 80, 81
2, 43363, Note_on_c, 0, 80, 0
2, 43368, Note_on_c, 0, 79, 81
2, 43391, Note_on_c, 0, 79, 0
2, 43392, Note_on_c, 0, 77, 81
2, 43459, Note_on_c, 0, 77, 0
2, 43464, Note_on_c, 0, 75, 81
2, 43487, Note_on_c, 0, 75, 0
2, 43488, Note_on_c, 0, 75, 81
2, 43584, Note_on_c, 0, 75, 0
2, 43584, Note_on_c, 0, 74, 79
2, 43673, Note_on_c, 0, 74, 0
2, 43776, Note_on_c, 0, 82, 75
2, 43799, Note_on_c, 0, 82, 0
2, 43800, Note_on_c, 0, 80, 74
2, 43823, Note_on_c, 0, 80, 0
2, 43824, Note_on_c, 0, 79, 73
2, 43847, Note_on_c, 0, 79, 0
2, 43848, Note_on_c, 0, 77, 73
2, 43871, Note_on_c, 0, 77, 0
2, 43872, Note_on_c, 0, 75, 72
2, 43895, Note_on_c, 0, 75, 0
2, 43896, Note_on_c, 0, 74, 71
2, 43919, Note_on_c, 0, 74, 0
2, 43920, Note_on_c, 0, 72, 71
2, 43943, Note_on_c, 0, 72, 0
2, 43944, Note_on_c, 0, 70, 70
2, 43967, Note_on_c, 0, 70, 0
2, 43968, Note_on_c, 0, 68, 70
2, 43991, Note_on_c, 0, 68, 0
2, 43992, Note_on_c, 0, 67, 70
2, 44015, Note_on_c, 0, 67, 0
2, 44016, Note_on_c, 0, 65, 70
2, 44039, Note_on_c, 0, 65, 0
2, 44040, Note_on_c, 0, 63, 70
2, 44063, Note_on_c, 0, 63, 0
2, 44064, Note_on_c, 0, 62, 71
2, 44082, Note_on_c, 0, 62, 0
2, 44082, Note_on_c, 0, 63, 71
2, 44100, Note_on_c, 0, 63, 0
2, 44100, Note_on_c, 0, 62, 71
2, 44118, Note_on_c, 0, 62, 0
2, 44118, Note_on_c, 0, 63, 71
2, 44136, Note_on_c, 0, 63, 0
2, 44136, Note_on_c, 0, 62, 71
2, 44154, Note_on_c, 0, 62, 0
2, 44154, Note_on_c, 0, 63, 71
2, 44172, Note_on_c, 0, 63, 0
2, 44172, Note_on_c, 0, 62, 71
2, 44190, Note_on_c, 0, 62, 0
2, 44190, Note_on_c, 0, 63, 71
2, 44197, Note_on_c, 0, 63, 0
2, 44208, Note_on_c, 0, 65, 73
2, 44231, Note_on_c, 0, 65, 0
2, 44232, Note_on_c, 0, 68, 73
2, 44255, Note_on_c, 0, 68, 0
2, 44256, Note_on_c, 0, 67, 73
2, 44345, Note_on_c, 0, 67, 0
2, 44352, Note_on_c, 0, 82, 70
2, 44375, Note_on_c, 0, 82, 0
2, 44376, Note_on_c, 0, 80, 69
2, 44399, Note_on_c, 0, 80, 0
2, 44400, Note_on_c, 0, 79, 69
2, 44423, Note_on_c, 0, 79, 0
2, 44424, Note_on_c, 0, 77, 68
2, 44447, Note_on_c, 0, 77, 0
2, 44448, Note_on_c, 0, 75, 68
2, 44471, Note_on_c, 0, 75, 0
2, 44472, Note_on_c, 0, 74, 67
2, 44495, Note_on_c, 0, 74, 0
2, 44496, Note_on_c, 0, 72, 67
2, 44519, Note_on_c, 0, 72, 0
2, 44520, Note_on_c, 0, 70, 66
2, 44543, Note_on_c, 0, 70, 0
2, 44544, Note_on_c, 0, 68, 66
2, 44567, Note_on_c, 0, 68, 0
2, 44568, Note_on_c, 0, 67, 66
2, 44591, Note_on_c, 0, 67, 0
2, 44592, Note_on_c, 0, 65, 67
2, 44615, Note_on_c, 0, 65, 0
2, 44616, Note_on_c, 0, 63, 67
2, 44639, Note_on_c, 0, 63, 0
2, 44640, Note_on_c, 0, 62, 68
2, 44658, Note_on_c, 0, 62, 0
2, 44658, Note_on_c, 0, 63, 68
2, 44676, Note_on_c, 0, 63, 0
2, 44676, Note_on_c, 0, 62, 68
2, 44694, Note_on_c, 0, 62, 0
2, 44694, Note_on_c, 0, 63, 68
2, 44712, Note_on_c, 0, 63, 0
2, 44712, Note_on_c, 0, 62, 68
2, 44730, Note_on_c, 0, 62, 0
2, 44730, Note_on_c, 0, 63, 68
2, 44748, Note_on_c, 0, 63, 0
2, 44748, Note_on_c, 0, 62, 68
2, 44766, Note_on_c, 0, 62, 0
2, 44766, Note_on_c, 0, 63, 68
2, 44773, Note_on_c, 0, 63, 0
2, 44784, Note_on_c, 0, 65, 71
2, 44807, Note_on_c, 0, 65, 0
2, 44808, Note_on_c, 0, 68, 72
2, 44831, Note_on_c, 0, 68, 0
2, 44832, Note_on_c, 0, 67, 72
2, 44921, Note_on_c, 0, 67, 0
2, 44928, Note_on_c, 0, 65, 75
2, 44995, Note_on_c, 0, 65, 0
2, 45000, Note_on_c, 0, 67, 75
2, 45023, Note_on_c, 0, 67, 0
2, 45024, Note_on_c, 0, 63, 75
2, 45113, Note_on_c, 0, 63, 0
2, 45120, Note_on_c, 0, 63, 75
2, 45135, Note_on_c, 0, 63, 0
2, 45136, Note_on_c, 0, 62, 75
2, 45151, Note_on_c, 0, 62, 0
2, 45152, Note_on_c, 0, 63, 75
2, 45167, Note_on_c, 0, 63, 0
2, 45168, Note_on_c, 0, 62, 75
2, 45183, Note_on_c, 0, 62, 0
2, 45184, Note_on_c, 0, 60, 75
2, 45199, Note_on_c, 0, 60, 0
2, 45200, Note_on_c, 0, 62, 75
2, 45215, Note_on_c, 0, 62, 0
2, 45216, Note_on_c, 0, 62, 75
2, 45312, Note_on_c, 0, 62, 0
2, 45312, Note_on_c, 0, 63, 75
2, 45489, Note_on_c, 0, 63, 0
2, 45504, Note_on_c, 0, 63, 75
2, 45593, Note_on_c, 0, 63, 0
2, 45600, Note_on_c, 0, 70, 75
2, 45689, Note_on_c, 0, 70, 0
2, 45768, Note_on_c, 0, 73, 75
2, 45791, Note_on_c, 0, 73, 0
2, 45792, Note_on_c, 0, 71, 75
2, 45888, Note_on_c, 0, 71, 0
2, 45888, Note_on_c, 0, 72, 76
2, 45977, Note_on_c, 0, 72, 0
2, 46080, Note_on_c, 0, 65, 77
2, 46169, Note_on_c, 0, 65, 0
2, 46176, Note_on_c, 0, 72, 77
2, 46265, Note_on_c, 0, 72, 0
2, 46344, Note_on_c, 0, 75, 78
2, 46367, Note_on_c, 0, 75, 0
2, 46368, Note_on_c, 0, 73, 78
2, 46464, Note_on_c, 0, 73, 0
2, 46464, Note_on_c, 0, 74, 79
2, 46553, Note_on_c, 0, 74, 0
2, 46656, Note_on_c, 0, 70, 80
2, 46745, Note_on_c, 0, 70, 0
2, 46752, Note_on_c, 0, 80, 80
2, 46841, Note_on_c, 0, 80, 0
2, 46920, Note_on_c, 0, 80, 81
2, 46932, Note_on_c, 0, 80, 0
2, 46932, Note_on_c, 0, 77, 81
2, 46944, Note_on_c, 0, 77, 0
2, 46944, Note_on_c, 0, 79, 81
2, 47033, Note_on_c, 0, 79, 0
2, 47040, Note_on_c, 0, 82, 81
2, 47129, Note_on_c, 0, 82, 0
2, 47208, Note_on_c, 0, 79, 81
2, 47220, Note_on_c, 0, 79, 0
2, 47220, Note_on_c, 0, 75, 81
2, 47232, Note_on_c, 0, 75, 0
2, 47232, Note_on_c, 0, 72, 81
2, 47321, Note_on_c, 0, 72, 0
2, 47328, Note_on_c, 0, 82, 81
2, 47340, Note_on_c, 0, 82, 0
2, 47340, Note_on_c, 0, 80, 81
2, 47395, Note_on_c, 0, 80, 0
2, 47400, Note_on_c, 0, 79, 81
2, 47423, Note_on_c, 0, 79, 0
2, 47424, Note_on_c, 0, 77, 81
2, 47491, Note_on_c, 0, 77, 0
2, 47496, Note_on_c, 0, 75, 81
2, 47519, Note_on_c, 0, 75, 0
2, 47520, Note_on_c, 0, 75, 81
2, 47616, Note_on_c, 0, 75, 0
2, 47616, Note_on_c, 0, 74, 79
2, 47705, Note_on_c, 0, 74, 0
2, 47808, Note_on_c, 0, 82, 75
2, 47831, Note_on_c, 0, 82, 0
2, 47832, Note_on_c, 0, 80, 74
2, 47855, Note_on_c, 0, 80, 0
2, 47856, Note_on_c, 0, 79, 73
2, 47879, Note_on_c, 0, 79, 0
2, 47880, Note_on_c, 0, 77, 73
2, 47903, Note_on_c, 0, 77, 0
2, 47904, Note_on_c, 0, 75, 72
2, 47927, Note_on_c, 0, 75, 0
2, 47928, Note_on_c, 0, 74, 71
2, 47951, Note_on_c, 0, 74, 0
2, 47952, Note_on_c, 0, 72, 71
2, 47975, Note_on_c, 0, 72, 0
2, 47976, Note_on_c, 0, 70, 70
2, 47999, Note_on_c, 0, 70, 0
2, 48000, Note_on_c, 0, 68, 70
2, 48023, Note_on_c, 0, 68, 0
2, 48024, Note_on_c, 0, 67, 70
2, 48047, Note_on_c, 0, 67, 0
2, 48048, Note_on_c, 0, 65, 70
2, 48071, Note_on_c, 0, 65, 0
2, 48072, Note_on_c, 0, 63, 70
2, 48095, Note_on_c, 0, 63, 0
2, 48096, Note_on_c, 0, 62, 71
2, 48114, Note_on_c, 0, 62, 0
2, 48114, Note_on_c, 0, 63, 71
2, 48132, Note_on_c, 0, 63, 0
2, 48132, Note_on_c, 0, 62, 71
2, 48150, Note_on_c, 0, 62, 0
2, 48150, Note_on_c, 0, 63, 71
2, 48168, Note_on_c, 0, 63, 0
2, 48168, Note_on_c, 0, 62, 71
2, 48186, Note_on_c, 0, 62, 0
2, 48186, Note_on_c, 0, 63, 71
2, 48204, Note_on_c, 0, 63, 0
2, 48204, Note_on_c, 0, 62, 71
2, 48222, Note_on_c, 0, 62, 0
2, 48222, Note_on_c, 0, 63, 71
2, 48229, Note_on_c, 0, 63, 0
2, 48240, Note_on_c, 0, 65, 73
2, 48263, Note_on_c, 0, 65, 0
2, 48264, Note_on_c, 0, 68, 73
2, 48287, Note_on_c, 0, 68, 0
2, 48288, Note_on_c, 0, 67, 73
2, 48377, Note_on_c, 0, 67, 0
2, 48384, Note_on_c, 0, 82, 70
2, 48407, Note_on_c, 0, 82, 0
2, 48408, Note_on_c, 0, 80, 69
2, 48431, Note_on_c, 0, 80, 0
2, 48432, Note_on_c, 0, 79, 69
2, 48455, Note_on_c, 0, 79, 0
2, 48456, Note_on_c, 0, 77, 68
2, 48479, Note_on_c, 0, 77, 0
2, 48480, Note_on_c, 0, 75, 68
2, 48503, Note_on_c, 0, 75, 0
2, 48504, Note_on_c, 0, 74, 67
2, 48527, Note_on_c, 0, 74, 0
2, 48528, Note_on_c, 0, 72, 67
2, 48551, Note_on_c, 0, 72, 0
2, 48552, Note_on_c, 0, 70, 66
2, 48575, Note_on_c, 0, 70, 0
2, 48576, Note_on_c, 0, 68, 66
2, 48599, Note_on_c, 0, 68, 0
2, 48600, Note_on_c, 0, 67, 66
2, 48623, Note_on_c, 0, 67, 0
2, 48624, Note_on_c, 0, 65, 67
2, 48647, Note_on_c, 0, 65, 0
2, 48648, Note_on_c, 0, 63, 67
2, 48671, Note_on_c, 0, 63, 0
2, 48672, Note_on_c, 0, 62, 68
2, 48690, Note_on_c, 0, 62, 0
2, 48690, Note_on_c, 0, 63, 68
2, 48708, Note_on_c, 0, 63, 0
2, 48708, Note_on_c, 0, 62, 68
2, 48726, Note_on_c, 0, 62, 0
2, 48726, Note_on_c, 0, 63, 68
2, 48744, Note_on_c, 0, 63, 0
2, 48744, Note_on_c, 0, 62, 68
2, 48762, Note_on_c, 0, 62, 0
2, 48762, Note_on_c, 0, 63, 68
2, 48780, Note_on_c, 0, 63, 0
2, 48780, Note_on_c, 0, 62, 68
2, 48798, Note_on_c, 0, 62, 0
2, 48798, Note_on_c, 0, 63, 68
2, 48805, Note_on_c, 0, 63, 0
2, 48816, Note_on_c, 0, 65, 71
2, 48839, Note_on_c, 0, 65, 0
2, 48840, Note_on_c, 0, 68, 72
2, 48863, Note_on_c, 0, 68, 0
2, 48864, Note_on_c, 0, 67, 72
2, 48953, Note_on_c, 0, 67, 0
2, 48960, Note_on_c, 0, 65, 75
2, 49027, Note_on_c, 0, 65, 0
2, 49032, Note_on_c, 0, 67, 75
2, 49055, Note_on_c, 0, 67, 0
2, 49056, Note_on_c, 0, 63, 75
2, 49145, Note_on_c, 0, 63, 0
2, 49152, Note_on_c, 0, 63, 75
2, 49167, Note_on_c, 0, 63, 0
2, 49168, Note_on_c, 0, 62, 75
2, 49183, Note_on_c, 0, 62, 0
2, 49184, Note_on_c, 0, 63, 75
2, 49199, Note_on_c, 0, 63, 0
2, 49200, Note_on_c, 0, 62, 75
2, 49215, Note_on_c, 0, 62, 0
2, 49216, Note_on_c, 0, 60, 75
2, 49231, Note_on_c, 0, 60, 0
2, 49232, Note_on_c, 0, 62, 75
2, 49247, Note_on_c, 0, 62, 0
2, 49248, Note_on_c, 0, 62, 75
2, 49344, Note_on_c, 0, 62, 0
2, 49344, Note_on_c, 0, 63, 75
2, 49521, Note_on_c, 0, 63, 0
2, 49536, End_track
3, 0, Start_track
3, 0, Program_c, 0, 0
3, 0, Control_c, 0, 7, 127
3, 0, Control_c, 0, 10, 64
3, 2016, Note_on_c, 0, 63, 64
3, 2112, Note_on_c, 0, 63, 0
3, 2112, Note_on_c, 0, 62, 64
3, 2201, Note_on_c, 0, 62, 0
3, 6048, Note_on_c, 0, 63, 64
3, 6144, Note_on_c, 0, 63, 0
3, 6144, Note_on_c, 0, 62, 64
3, 6233, Note_on_c, 0, 62, 0
3, 35424, Note_on_c, 0, 63, 64
3, 35520, Note_on_c, 0, 63, 0
3, 35520, Note_on_c, 0, 62, 64
3, 35609, Note_on_c, 0, 62, 0
3, 39456, Note_on_c, 0, 63, 64
3, 39552, Note_on_c, 0, 63, 0
3, 39552, Note_on_c, 0, 62, 64
3, 39641, Note_on_c, 0, 62, 0
3, 49536, End_track
4, 0, Start_track
4, 0, Program_c, 1, 0
4, 0, Control_c, 1, 7, 127
4, 0, Control_c, 1, 10, 64
4, 96, Note_on_c, 1, 55, 75
4, 185, Note_on_c, 1, 55, 0
4, 192, Note_on_c, 1, 51, 75
4, 281, Note_on_c, 1, 51, 0
4, 384, Note_on_c, 1, 50, 75
4, 473, Note_on_c, 1, 50, 0
4, 480, Note_on_c, 1, 46, 75
4, 569, Note_on_c, 1, 46, 0
4, 672, Note_on_c, 1, 55, 75
4, 761, Note_on_c, 1, 55, 0
4, 768, Note_on_c, 1, 56, 75
4, 857, Note_on_c, 1, 56, 0
4, 864, Note_on_c, 1, 58, 75
4, 953, Note_on_c, 1, 58, 0
4, 960, Note_on_c, 1, 56, 75
4, 1049, Note_on_c, 1, 56, 0
4, 1056, Note_on_c, 1, 55, 75
4, 1145, Note_on_c, 1, 55, 0
4, 1248, Note_on_c, 1, 60, 75
4, 1337, Note_on_c, 1, 60, 0
4, 1344, Note_on_c, 1, 56, 75
4, 1433, Note_on_c, 1, 56, 0
4, 1536, Note_on_c, 1, 55, 75
4, 1625, Note_on_c, 1, 55, 0
4, 1632, Note_on_c, 1, 51, 75
4, 1721, Note_on_c, 1, 51, 0
4, 1824, Note_on_c, 1, 50, 75
4, 1913, Note_on_c, 1, 50, 0
4, 1920, Note_on_c, 1, 51, 75
4, 2009, Note_on_c, 1, 51, 0
4, 2016, Note_on_c, 1, 46, 75
4, 2105, Note_on_c, 1, 46, 0
4, 2112, Note_on_c, 1, 58, 75
4, 2201, Note_on_c, 1, 58, 0
4, 2208, Note_on_c, 1, 46, 75
4, 2297, Note_on_c, 1, 46, 0
4, 2688, Note_on_c, 1, 48, 75
4, 2688, Note_on_c, 1, 41, 75
4, 2777, Note_on_c, 1, 48, 0
4, 2777, Note_on_c, 1, 41, 0
4, 2784, Note_on_c, 1, 50, 75
4, 2784, Note_on_c, 1, 46, 75
4, 2873, Note_on_c, 1, 50, 0
4, 2873, Note_on_c, 1, 46, 0
4, 3264, Note_on_c, 1, 48, 75
4, 3264, Note_on_c, 1, 41, 75
4, 3353, Note_on_c, 1, 48, 0
4, 3353, Note_on_c, 1, 41, 0
4, 3360, Note_on_c, 1, 50, 75
4, 3360, Note_on_c, 1, 46, 75
4, 3449, Note_on_c, 1, 50, 0
4, 3449, Note_on_c, 1, 46, 0
4, 3456, Note_on_c, 1, 51, 75
4, 3456, Note_on_c, 1, 39, 75
4, 3545, Note_on_c, 1, 51, 0
4, 3545, Note_on_c, 1, 39, 0
4, 3552, Note_on_c, 1, 50, 75
4, 3552, Note_on_c, 1, 41, 75
4, 3641, Note_on_c, 1, 50, 0
4, 3641, Note_on_c, 1, 41, 0
4, 3648, Note_on_c, 1, 48, 75
4, 3648, Note_on_c, 1, 41, 75
4, 3737, Note_on_c, 1, 48, 0
4, 3737, Note_on_c, 1, 41, 0
4, 3744, Note_on_c, 1, 46, 75
4, 3833, Note_on_c, 1, 46, 0
4, 3840, Note_on_c, 1, 41, 75
4, 3929, Note_on_c, 1, 41, 0
4, 3936, Note_on_c, 1, 34, 75
4, 4025, Note_on_c, 1, 34, 0
4, 4128, Note_on_c, 1, 55, 75
4, 4217, Note_on_c, 1, 55, 0
4, 4224, Note_on_c, 1, 51, 75
4, 4313, Note_on_c, 1, 51, 0
4, 4416, Note_on_c, 1, 50, 75
4, 4505, Note_on_c, 1, 50, 0
4, 4512, Note_on_c, 1, 46, 75
4, 4601, Note_on_c, 1, 46, 0
4, 4704, Note_on_c, 1, 55, 75
4, 4793, Note_on_c, 1, 55, 0
4, 4800, Note_on_c, 1, 56, 75
4, 4889, Note_on_c, 1, 56, 0
4, 4896, Note_on_c, 1, 58, 75
4, 4985, Note_on_c, 1, 58, 0
4, 4992, Note_on_c, 1, 56, 75
4, 5081, Note_on_c, 1, 56, 0
4, 5088, Note_on_c, 1, 55, 75
4, 5177, Note_on_c, 1, 55, 0
4, 5280, Note_on_c, 1, 60, 75
4, 5369, Note_on_c, 1, 60, 0
4, 5376, Note_on_c, 1, 56, 75
4, 5465, Note_on_c, 1, 56, 0
4, 5568, Note_on_c, 1, 55, 75
4, 5657, Note_on_c, 1, 55, 0
4, 5664, Note_on_c, 1, 51, 75
4, 5753, Note_on_c, 1, 51, 0
4, 5856, Note_on_c, 1, 50, 75
4, 5945, Note_on_c, 1, 50, 0
4, 5952, Note_on_c, 1, 51, 75
4, 6041, Note_on_c, 1, 51, 0
4, 6048, Note_on_c, 1, 46, 75
4, 6137, Note_on_c, 1, 46, 0
4, 6144, Note_on_c, 1, 58, 75
4, 6233, Note_on_c, 1, 58, 0
4, 6240, Note_on_c, 1, 46, 75
4, 6329, Note_on_c, 1, 46, 0
4, 6720, Note_on_c, 1, 48, 75
4, 6720, Note_on_c, 1, 41, 75
4, 6809, Note_on_c, 1, 48, 0
4, 6809, Note_on_c, 1, 41, 0
4, 6816, Note_on_c, 1, 50, 75
4, 6816, Note_on_c, 1, 46, 75
4, 6905, Note_on_c, 1, 50, 0
4, 6905, Note_on_c, 1, 46, 0
4, 7296, Note_on_c, 1, 48, 75
4, 7296, Note_on_c, 1, 41, 75
4, 7385, Note_on_c, 1, 48, 0
4, 7385, Note_on_c, 1, 41, 0
4, 7392, Note_on_c, 1, 50, 75
4, 7392, Note_on_c, 1, 46, 75
4, 7481, Note_on_c, 1, 50, 0
4, 7481, Note_on_c, 1, 46, 0
4, 7488, Note_on_c, 1, 51, 75
4, 7488, Note_on_c, 1, 39, 75
4, 7577, Note_on_c, 1, 51, 0
4, 7577, Note_on_c, 1, 39, 0
4, 7584, Note_on_c, 1, 50, 75
4, 7584, Note_on_c, 1, 41, 75
4, 7673, Note_on_c, 1, 50, 0
4, 7673, Note_on_c, 1, 41, 0
4, 7680, Note_on_c, 1, 48, 75
4, 7680, Note_on_c, 1, 41, 75
4, 7769, Note_on_c, 1, 48, 0
4, 7769, Note_on_c, 1, 41, 0
4, 7776, Note_on_c, 1, 46, 75
4, 7865, Note_on_c, 1, 46, 0
4, 7872, Note_on_c, 1, 41, 75
4, 7961, Note_on_c, 1, 41, 0
4, 7968, Note_on_c, 1, 34, 75
4, 8057, Note_on_c, 1, 34, 0
4, 8160, Note_on_c, 1, 55, 75
4, 8249, Note_on_c, 1, 55, 0
4, 8256, Note_on_c, 1, 51, 75
4, 8345, Note_on_c, 1, 51, 0
4, 8448, Note_on_c, 1, 56, 75
4, 8537, Note_on_c, 1, 56, 0
4, 8544, Note_on_c, 1, 44, 76
4, 8633, Note_on_c, 1, 44, 0
4, 8736, Note_on_c, 1, 57, 77
4, 8825, Note_on_c, 1, 57, 0
4, 8832, Note_on_c, 1, 53, 78
4, 8921, Note_on_c, 1, 53, 0
4, 9024, Note_on_c, 1, 58, 79
4, 9113, Note_on_c, 1, 58, 0
4, 9120, Note_on_c, 1, 46, 79
4, 9209, Note_on_c, 1, 46, 0
4, 9312, Note_on_c, 1, 62, 81
4, 9401, Note_on_c, 1, 62, 0
4, 9408, Note_on_c, 1, 58, 81
4, 9497, Note_on_c, 1, 58, 0
4, 9600, Note_on_c, 1, 63, 81
4, 9689, Note_on_c, 1, 63, 0
4, 9696, Note_on_c, 1, 55, 81
4, 9785, Note_on_c, 1, 55, 0
4, 9792, Note_on_c, 1, 56, 81
4, 9969, Note_on_c, 1, 56, 0
4, 9984, Note_on_c, 1, 57, 81
4, 10073, Note_on_c, 1, 57, 0
4, 10080, Note_on_c, 1, 58, 81
4, 10169, Note_on_c, 1, 58, 0
4, 10176, Note_on_c, 1, 53, 79
4, 10265, Note_on_c, 1, 53, 0
4, 10272, Note_on_c, 1, 46, 77
4, 10361, Note_on_c, 1, 46, 0
4, 10752, Note_on_c, 1, 53, 75
4, 10752, Note_on_c, 1, 46, 75
4, 10841, Note_on_c, 1, 53, 0
4, 10841, Note_on_c, 1, 46, 0
4, 10848, Note_on_c, 1, 55, 75
4, 10848, Note_on_c, 1, 51, 75
4, 10937, Note_on_c, 1, 55, 0
4, 10937, Note_on_c, 1, 51, 0
4, 11328, Note_on_c, 1, 53, 75
4, 11328, Note_on_c, 1, 46, 75
4, 11417, Note_on_c, 1, 53, 0
4, 11417, Note_on_c, 1, 46, 0
4, 11424, Note_on_c, 1, 55, 75
4, 11424, Note_on_c, 1, 51, 75
4, 11513, Note_on_c, 1, 55, 0
4, 11513, Note_on_c, 1, 51, 0
4, 11520, Note_on_c, 1, 56, 75
4, 11520, Note_on_c, 1, 44, 75
4, 11609, Note_on_c, 1, 56, 0
4, 11609, Note_on_c, 1, 44, 0
4, 11616, Note_on_c, 1, 55, 75
4, 11616, Note_on_c, 1, 46, 75
4, 11705, Note_on_c, 1, 55, 0
4, 11705, Note_on_c, 1, 46, 0
4, 11712, Note_on_c, 1, 53, 75
4, 11712, Note_on_c, 1, 46, 75
4, 11801, Note_on_c, 1, 53, 0
4, 11801, Note_on_c, 1, 46, 0
4, 11808, Note_on_c, 1, 51, 75
4, 11897, Note_on_c, 1, 51, 0
4, 11904, Note_on_c, 1, 46, 75
4, 11993, Note_on_c, 1, 46, 0
4, 12000, Note_on_c, 1, 39, 75
4, 12089, Note_on_c, 1, 39, 0
4, 12192, Note_on_c, 1, 55, 75
4, 12281, Note_on_c, 1, 55, 0
4, 12288, Note_on_c, 1, 51, 75
4, 12377, Note_on_c, 1, 51, 0
4, 12480, Note_on_c, 1, 56, 75
4, 12569, Note_on_c, 1, 56, 0
4, 12576, Note_on_c, 1, 44, 76
4, 12665, Note_on_c, 1, 44, 0
4, 12768, Note_on_c, 1, 57, 77
4, 12857, Note_on_c, 1, 57, 0
4, 12864, Note_on_c, 1, 53, 78
4, 12953, Note_on_c, 1, 53, 0
4, 13056, Note_on_c, 1, 58, 79
4, 13145, Note_on_c, 1, 58, 0
4, 13152, Note_on_c, 1, 46, 79
4, 13241, Note_on_c, 1, 46, 0
4, 13344, Note_on_c, 1, 62, 81
4, 13433, Note_on_c, 1, 62, 0
4, 13440, Note_on_c, 1, 58, 81
4, 13529, Note_on_c, 1, 58, 0
4, 13632, Note_on_c, 1, 63, 81
4, 13721, Note_on_c, 1, 63, 0
4, 13728, Note_on_c, 1, 55, 81
4, 13817, Note_on_c, 1, 55, 0
4, 13824, Note_on_c, 1, 56, 81
4, 14001, Note_on_c, 1, 56, 0
4, 14016, Note_on_c, 1, 57, 81
4, 14105, Note_on_c, 1, 57, 0
4, 14112, Note_on_c, 1, 58, 81
4, 14201, Note_on_c, 1, 58, 0
4, 14208, Note_on_c, 1, 53, 79
4, 14297, Note_on_c, 1, 53, 0
4, 14304, Note_on_c, 1, 46, 77
4, 14393, Note_on_c, 1, 46, 0
4, 14784, Note_on_c, 1, 53, 75
4, 14784, Note_on_c, 1, 46, 75
4, 14873, Note_on_c, 1, 53, 0
4, 14873, Note_on_c, 1, 46, 0
4, 14880, Note_on_c, 1, 55, 75
4, 14880, Note_on_c, 1, 51, 75
4, 14969, Note_on_c, 1, 55, 0
4, 14969, Note_on_c, 1, 51, 0
4, 15360, Note_on_c, 1, 53, 75
4, 15360, Note_on_c, 1, 46, 75
4, 15449, Note_on_c, 1, 53, 0
4, 15449, Note_on_c, 1, 46, 0
4, 15456, Note_on_c, 1, 55, 75
4, 15456, Note_on_c, 1, 51, 75
4, 15545, Note_on_c, 1, 55, 0
4, 15545, Note_on_c, 1, 51, 0
4, 15552, Note_on_c, 1, 56, 75
4, 15552, Note_on_c, 1, 44, 75
4, 15641, Note_on_c, 1, 56, 0
4, 15641, Note_on_c, 1, 44, 0
4, 15648, Note_on_c, 1, 55, 75
4, 15648, Note_on_c, 1, 46, 75
4, 15737, Note_on_c, 1, 55, 0
4, 15737, Note_on_c, 1, 46, 0
4, 15744, Note_on_c, 1, 53, 75
4, 15744, Note_on_c, 1, 46, 75
4, 15833, Note_on_c, 1, 53, 0
4, 15833, Note_on_c, 1, 46, 0
4, 15840, Note_on_c, 1, 51, 75
4, 15929, Note_on_c, 1, 51, 0
4, 15936, Note_on_c, 1, 46, 75
4, 16025, Note_on_c, 1, 46, 0
4, 16032, Note_on_c, 1, 39, 75
4, 16121, Note_on_c, 1, 39, 0
4, 16128, Note_on_c, 1, 51, 66
4, 16217, Note_on_c, 1, 51, 0
4, 16224, Note_on_c, 1, 58, 66
4, 16313, Note_on_c, 1, 58, 0
4, 16320, Note_on_c, 1, 56, 66
4, 16409, Note_on_c, 1, 56, 0
4, 16416, Note_on_c, 1, 54, 66
4, 16505, Note_on_c, 1, 54, 0
4, 16512, Note_on_c, 1, 53, 66
4, 16601, Note_on_c, 1, 53, 0
4, 16608, Note_on_c, 1, 54, 67
4, 16697, Note_on_c, 1, 54, 0
4, 16704, Note_on_c, 1, 46, 68
4, 16793, Note_on_c, 1, 46, 0
4, 16800, Note_on_c, 1, 50, 68
4, 16889, Note_on_c, 1, 50, 0
4, 16896, Note_on_c, 1, 51, 69
4, 16985, Note_on_c, 1, 51, 0
4, 16992, Note_on_c, 1, 46, 70
4, 17081, Note_on_c, 1, 46, 0
4, 17088, Note_on_c, 1, 58, 70
4, 17177, Note_on_c, 1, 58, 0
4, 17184, Note_on_c, 1, 46, 70
4, 17273, Note_on_c, 1, 46, 0
4, 17376, Note_on_c, 1, 61, 75
4, 17465, Note_on_c, 1, 61, 0
4, 17472, Note_on_c, 1, 64, 75
4, 17561, Note_on_c, 1, 64, 0
4, 17664, Note_on_c, 1, 59, 75
4, 17753, Note_on_c, 1, 59, 0
4, 17760, Note_on_c, 1, 63, 75
4, 17849, Note_on_c, 1, 63, 0
4, 17952, Note_on_c, 1, 61, 75
4, 18041, Note_on_c, 1, 61, 0
4, 18048, Note_on_c, 1, 64, 75
4, 18137, Note_on_c, 1, 64, 0
4, 18240, Note_on_c, 1, 59, 75
4, 18329, Note_on_c, 1, 59, 0
4, 18336, Note_on_c, 1, 63, 75
4, 18425, Note_on_c, 1, 63, 0
4, 18528, Note_on_c, 1, 58, 75
4, 18617, Note_on_c, 1, 58, 0
4, 18624, Note_on_c, 1, 61, 75
4, 18713, Note_on_c, 1, 61, 0
4, 18816, Note_on_c, 1, 56, 75
4, 18905, Note_on_c, 1, 56, 0
4, 18912, Note_on_c, 1, 59, 75
4, 19001, Note_on_c, 1, 59, 0
4, 19008, Note_on_c, 1, 54, 75
4, 19097, Note_on_c, 1, 54, 0
4, 19104, Note_on_c, 1, 58, 75
4, 19193, Note_on_c, 1, 58, 0
4, 19200, Note_on_c, 1, 61, 75
4, 19289, Note_on_c, 1, 61, 0
4, 19296, Note_on_c, 1, 58, 75
4, 19385, Note_on_c, 1, 58, 0
4, 19392, Note_on_c, 1, 53, 75
4, 19481, Note_on_c, 1, 53, 0
4, 19488, Note_on_c, 1, 54, 75
4, 19577, Note_on_c, 1, 54, 0
4, 19584, Note_on_c, 1, 59, 75
4, 19673, Note_on_c, 1, 59, 0
4, 19680, Note_on_c, 1, 61, 75
4, 19769, Note_on_c, 1, 61, 0
4, 19776, Note_on_c, 1, 49, 75
4, 19865, Note_on_c, 1, 49, 0
4, 19872, Note_on_c, 1, 54, 75
4, 19961, Note_on_c, 1, 54, 0
4, 19968, Note_on_c, 1, 49, 75
4, 20057, Note_on_c, 1, 49, 0
4, 20064, Note_on_c, 1, 42, 75
4, 20153, Note_on_c, 1, 42, 0
4, 20160, Note_on_c, 1, 51, 66
4, 20249, Note_on_c, 1, 51, 0
4, 20256, Note_on_c, 1, 58, 66
4, 20345, Note_on_c, 1, 58, 0
4, 20352, Note_on_c, 1, 56, 66
4, 20441, Note_on_c, 1, 56, 0
4, 20448, Note_on_c, 1, 54, 66
4, 20537, Note_on_c, 1, 54, 0
4, 20544, Note_on_c, 1, 53, 66
4, 20633, Note_on_c, 1, 53, 0
4, 20640, Note_on_c, 1, 54, 67
4, 20729, Note_on_c, 1, 54, 0
4, 20736, Note_on_c, 1, 46, 68
4, 20825, Note_on_c, 1, 46, 0
4, 20832, Note_on_c, 1, 50, 68
4, 20921, Note_on_c, 1, 50, 0
4, 20928, Note_on_c, 1, 51, 69
4, 21017, Note_on_c, 1, 51, 0
4, 21024, Note_on_c, 1, 46, 70
4, 21113, Note_on_c, 1, 46, 0
4, 21120, Note_on_c, 1, 58, 70
4, 21209, Note_on_c, 1, 58, 0
4, 21216, Note_on_c, 1, 46, 70
4, 21305, Note_on_c, 1, 46, 0
4, 21408, Note_on_c, 1, 61, 75
4, 21497, Note_on_c, 1, 61, 0
4, 21504, Note_on_c, 1, 64, 75
4, 21593, Note_on_c, 1, 64, 0
4, 21696, Note_on_c, 1, 59, 75
4, 21785, Note_on_c, 1, 59, 0
4, 21792, Note_on_c, 1, 63, 75
4, 21881, Note_on_c, 1, 63, 0
4, 21984, Note_on_c, 1, 61, 75
4, 22073, Note_on_c, 1, 61, 0
4, 22080, Note_on_c, 1, 64, 75
4, 22169, Note_on_c, 1, 64, 0
4, 22272, Note_on_c, 1, 59, 75
4, 22361, Note_on_c, 1, 59, 0
4, 22368, Note_on_c, 1, 63, 75
4, 22457, Note_on_c, 1, 63, 0
4, 22560, Note_on_c, 1, 58, 75
4, 22649, Note_on_c, 1, 58, 0
4, 22656, Note_on_c, 1, 61, 75
4, 22745, Note_on_c, 1, 61, 0
4, 22848, Note_on_c, 1, 56, 75
4, 22937, Note_on_c, 1, 56, 0
4, 22944, Note_on_c, 1, 59, 75
4, 23033, Note_on_c, 1, 59, 0
4, 23040, Note_on_c, 1, 54, 75
4, 23129, Note_on_c, 1, 54, 0
4, 23136, Note_on_c, 1, 58, 75
4, 23225, Note_on_c, 1, 58, 0
4, 23232, Note_on_c, 1, 61, 75
4, 23321, Note_on_c, 1, 61, 0
4, 23328, Note_on_c, 1, 58, 75
4, 23417, Note_on_c, 1, 58, 0
4, 23424, Note_on_c, 1, 53, 75
4, 23513, Note_on_c, 1, 53, 0
4, 23520, Note_on_c, 1, 54, 75
4, 23609, Note_on_c, 1, 54, 0
4, 23616, Note_on_c, 1, 59, 75
4, 23705, Note_on_c, 1, 59, 0
4, 23712, Note_on_c, 1, 61, 75
4, 23801, Note_on_c, 1, 61, 0
4, 23808, Note_on_c, 1, 49, 75
4, 23897, Note_on_c, 1, 49, 0
4, 23904, Note_on_c, 1, 54, 75
4, 23993, Note_on_c, 1, 54, 0
4, 24000, Note_on_c, 1, 49, 75
4, 24089, Note_on_c, 1, 49, 0
4, 24096, Note_on_c, 1, 42, 75
4, 24185, Note_on_c, 1, 42, 0
4, 24288, Note_on_c, 1, 66, 75
4, 24377, Note_on_c, 1, 66, 0
4, 24384, Note_on_c, 1, 65, 75
4, 24473, Note_on_c, 1, 65, 0
4, 24480, Note_on_c, 1, 63, 75
4, 24569, Note_on_c, 1, 63, 0
4, 24576, Note_on_c, 1, 61, 75
4, 24665, Note_on_c, 1, 61, 0
4, 24672, Note_on_c, 1, 59, 75
4, 24761, Note_on_c, 1, 59, 0
4, 24864, Note_on_c, 1, 68, 75
4, 24953, Note_on_c, 1, 68, 0
4, 24960, Note_on_c, 1, 66, 75
4, 25049, Note_on_c, 1, 66, 0
4, 25152, Note_on_c, 1, 62, 75
4, 25241, Note_on_c, 1, 62, 0
4, 25248, Note_on_c, 1, 63, 75
4, 25337, Note_on_c, 1, 63, 0
4, 25344, Note_on_c, 1, 56, 75
4, 25433, Note_on_c, 1, 56, 0
4, 25440, Note_on_c, 1, 53, 75
4, 25529, Note_on_c, 1, 53, 0
4, 25536, Note_on_c, 1, 56, 75
4, 25625, Note_on_c, 1, 56, 0
4, 25632, Note_on_c, 1, 58, 75
4, 25721, Note_on_c, 1, 58, 0
4, 25728, Note_on_c, 1, 53, 75
4, 25817, Note_on_c, 1, 53, 0
4, 25824, Note_on_c, 1, 46, 75
4, 25913, Note_on_c, 1, 46, 0
4, 26016, Note_on_c, 1, 58, 75
4, 26105, Note_on_c, 1, 58, 0
4, 26112, Note_on_c, 1, 61, 75
4, 26201, Note_on_c, 1, 61, 0
4, 26304, Note_on_c, 1, 56, 75
4, 26393, Note_on_c, 1, 56, 0
4, 26400, Note_on_c, 1, 59, 75
4, 26489, Note_on_c, 1, 59, 0
4, 26592, Note_on_c, 1, 58, 75
4, 26681, Note_on_c, 1, 58, 0
4, 26688, Note_on_c, 1, 61, 75
4, 26777, Note_on_c, 1, 61, 0
4, 26880, Note_on_c, 1, 56, 75
4, 26969, Note_on_c, 1, 56, 0
4, 26976, Note_on_c, 1, 59, 75
4, 27065, Note_on_c, 1, 59, 0
4, 27168, Note_on_c, 1, 54, 75
4, 27257, Note_on_c, 1, 54, 0
4, 27264, Note_on_c, 1, 58, 75
4, 27353, Note_on_c, 1, 58, 0
4, 27456, Note_on_c, 1, 53, 75
4, 27545, Note_on_c, 1, 53, 0
4, 27552, Note_on_c, 1, 58, 74
4, 27641, Note_on_c, 1, 58, 0
4, 27648, Note_on_c, 1, 51, 73
4, 27737, Note_on_c, 1, 51, 0
4, 27744, Note_on_c, 1, 54, 72
4, 27833, Note_on_c, 1, 54, 0
4, 27840, Note_on_c, 1, 58, 72
4, 27929, Note_on_c, 1, 58, 0
4, 27936, Note_on_c, 1, 54, 71
4, 28025, Note_on_c, 1, 54, 0
4, 28032, Note_on_c, 1, 50, 70
4, 28121, Note_on_c, 1, 50, 0
4, 28128, Note_on_c, 1, 51, 69
4, 28217, Note_on_c, 1, 51, 0
4, 28224, Note_on_c, 1, 56, 69
4, 28313, Note_on_c, 1, 56, 0
4, 28320, Note_on_c, 1, 58, 68
4, 28409, Note_on_c, 1, 58, 0
4, 28416, Note_on_c, 1, 46, 67
4, 28505, Note_on_c, 1, 46, 0
4, 28512, Note_on_c, 1, 51, 66
4, 28601, Note_on_c, 1, 51, 0
4, 28608, Note_on_c, 1, 46, 66
4, 28697, Note_on_c, 1, 46, 0
4, 28704, Note_on_c, 1, 39, 66
4, 28793, Note_on_c, 1, 39, 0
4, 28896, Note_on_c, 1, 66, 75
4, 28985, Note_on_c, 1, 66, 0
4, 28992, Note_on_c, 1, 65, 75
4, 29081, Note_on_c, 1, 65, 0
4, 29088, Note_on_c, 1, 63, 75
4, 29177, Note_on_c, 1, 63, 0
4, 29184, Note_on_c, 1, 61, 75
4, 29273, Note_on_c, 1, 61, 0
4, 29280, Note_on_c, 1, 59, 75
4, 29369, Note_on_c, 1, 59, 0
4, 29472, Note_on_c, 1, 68, 75
4, 29561, Note_on_c, 1, 68, 0
4, 29568, Note_on_c, 1, 66, 75
4, 29657, Note_on_c, 1, 66, 0
4, 29760, Note_on_c, 1, 62, 75
4, 29849, Note_on_c, 1, 62, 0
4, 29856, Note_on_c, 1, 63, 75
4, 29945, Note_on_c, 1, 63, 0
4, 29952, Note_on_c, 1, 56, 75
4, 30041, Note_on_c, 1, 56, 0
4, 30048, Note_on_c, 1, 53, 75
4, 30137, Note_on_c, 1, 53, 0
4, 30144, Note_on_c, 1, 56, 75
4, 30233, Note_on_c, 1, 56, 0
4, 30240, Note_on_c, 1, 58, 75
4, 30329, Note_on_c, 1, 58, 0
4, 30336, Note_on_c, 1, 53, 75
4, 30425, Note_on_c, 1, 53, 0
4, 30432, Note_on_c, 1, 46, 75
4, 30521, Note_on_c, 1, 46, 0
4, 30624, Note_on_c, 1, 58, 75
4, 30713, Note_on_c, 1, 58, 0
4, 30720, Note_on_c, 1, 61, 75
4, 30809, Note_on_c, 1, 61, 0
4, 30912, Note_on_c, 1, 56, 75
4, 31001, Note_on_c, 1, 56, 0
4, 31008, Note_on_c, 1, 59, 75
4, 31097, Note_on_c, 1, 59, 0
4, 31200, Note_on_c, 1, 58, 75
4, 31289, Note_on_c, 1, 58, 0
4, 31296, Note_on_c, 1, 61, 75
4, 31385, Note_on_c, 1, 61, 0
4, 31488, Note_on_c, 1, 56, 75
4, 31577, Note_on_c, 1, 56, 0
4, 31584, Note_on_c, 1, 59, 75
4, 31673, Note_on_c, 1, 59, 0
4, 31776, Note_on_c, 1, 54, 75
4, 31865, Note_on_c, 1, 54, 0
4, 31872, Note_on_c, 1, 58, 75
4, 31961, Note_on_c, 1, 58, 0
4, 32064, Note_on_c, 1, 53, 75
4, 32153, Note_on_c, 1, 53, 0
4, 32160, Note_on_c, 1, 58, 74
4, 32249, Note_on_c, 1, 58, 0
4, 32256, Note_on_c, 1, 51, 73
4, 32345, Note_on_c, 1, 51, 0
4, 32352, Note_on_c, 1, 54, 72
4, 32441, Note_on_c, 1, 54, 0
4, 32448, Note_on_c, 1, 58, 72
4, 32537, Note_on_c, 1, 58, 0
4, 32544, Note_on_c, 1, 54, 71
4, 32633, Note_on_c, 1, 54, 0
4, 32640, Note_on_c, 1, 50, 70
4, 32729, Note_on_c, 1, 50, 0
4, 32736, Note_on_c, 1, 51, 69
4, 32825, Note_on_c, 1, 51, 0
4, 32832, Note_on_c, 1, 56, 69
4, 32921, Note_on_c, 1, 56, 0
4, 32928, Note_on_c, 1, 58, 68
4, 33017, Note_on_c, 1, 58, 0
4, 33024, Note_on_c, 1, 46, 67
4, 33113, Note_on_c, 1, 46, 0
4, 33120, Note_on_c, 1, 51, 66
4, 33209, Note_on_c, 1, 51, 0
4, 33216, Note_on_c, 1, 46, 66
4, 33305, Note_on_c, 1, 46, 0
4, 33312, Note_on_c, 1, 39, 66
4, 33401, Note_on_c, 1, 39, 0
4, 33504, Note_on_c, 1, 55, 75
4, 33593, Note_on_c, 1, 55, 0
4, 33600, Note_on_c, 1, 51, 75
4, 33689, Note_on_c, 1, 51, 0
4, 33792, Note_on_c, 1, 50, 75
4, 33881, Note_on_c, 1, 50, 0
4, 33888, Note_on_c, 1, 46, 75
4, 33977, Note_on_c, 1, 46, 0
4, 34080, Note_on_c, 1, 55, 75
4, 34169, Note_on_c, 1, 55, 0
4, 34176, Note_on_c, 1, 56, 75
4, 34265, Note_on_c, 1, 56, 0
4, 34272, Note_on_c, 1, 58, 75
4, 34361, Note_on_c, 1, 58, 0
4, 34368, Note_on_c, 1, 56, 75
4, 34457, Note_on_c, 1, 56, 0
4, 34464, Note_on_c, 1, 55, 75
4, 34553, Note_on_c, 1, 55, 0
4, 34656, Note_on_c, 1, 60, 75
4, 34745, Note_on_c, 1, 60, 0
4, 34752, Note_on_c, 1, 56, 75
4, 34841, Note_on_c, 1, 56, 0
4, 34944, Note_on_c, 1, 55, 75
4, 35033, Note_on_c, 1, 55, 0
4, 35040, Note_on_c, 1, 51, 75
4, 35129, Note_on_c, 1, 51, 0
4, 35232, Note_on_c, 1, 50, 75
4, 35321, Note_on_c, 1, 50, 0
4, 35328, Note_on_c, 1, 51, 75
4, 35417, Note_on_c, 1, 51, 0
4, 35424, Note_on_c, 1, 46, 75
4, 35513, Note_on_c, 1, 46, 0
4, 35520, Note_on_c, 1, 58, 75
4, 35609, Note_on_c, 1, 58, 0
4, 35616, Note_on_c, 1, 46, 75
4, 35705, Note_on_c, 1, 46, 0
4, 36096, Note_on_c, 1, 48, 75
4, 36096, Note_on_c, 1, 41, 75
4, 36185, Note_on_c, 1, 48, 0
4, 36185, Note_on_c, 1, 41, 0
4, 36192, Note_on_c, 1, 50, 75
4, 36192, Note_on_c, 1, 46, 75
4, 36281, Note_on_c, 1, 50, 0
4, 36281, Note_on_c, 1, 46, 0
4, 36672, Note_on_c, 1, 48, 75
4, 36672, Note_on_c, 1, 41, 75
4, 36761, Note_on_c, 1, 48, 0
4, 36761, Note_on_c, 1, 41, 0
4, 36768, Note_on_c, 1, 50, 75
4, 36768, Note_on_c, 1, 46, 75
4, 36857, Note_on_c, 1, 50, 0
4, 36857, Note_on_c, 1, 46, 0
4, 36864, Note_on_c, 1, 51, 75
4, 36864, Note_on_c, 1, 39, 75
4, 36953, Note_on_c, 1, 51, 0
4, 36953, Note_on_c, 1, 39, 0
4, 36960, Note_on_c, 1, 50, 75
4, 36960, Note_on_c, 1, 41, 75
4, 37049, Note_on_c, 1, 50, 0
4, 37049, Note_on_c, 1, 41, 0
4, 37056, Note_on_c, 1, 48, 75
4, 37056, Note_on_c, 1, 41, 75
4, 37145, Note_on_c, 1, 48, 0
4, 37145, Note_on_c, 1, 41, 0
4, 37152, Note_on_c, 1, 46, 75
4, 37241, Note_on_c, 1, 46, 0
4, 37248, Note_on_c, 1, 41, 75
4, 37337, Note_on_c, 1, 41, 0
4, 37344, Note_on_c, 1, 34, 75
4, 37433, Note_on_c, 1, 34, 0
4, 37536, Note_on_c, 1, 55, 75
4, 37625, Note_on_c, 1, 55, 0
4, 37632, Note_on_c, 1, 51, 75
4, 37721, Note_on_c, 1, 51, 0
4, 37824, Note_on_c, 1, 50, 75
4, 37913, Note_on_c, 1, 50, 0
4, 37920, Note_on_c, 1, 46, 75
4, 38009, Note_on_c, 1, 46, 0
4, 38112, Note_on_c, 1, 55, 75
4, 38201, Note_on_c, 1, 55, 0
4, 38208, Note_on_c, 1, 56, 75
4, 38297, Note_on_c, 1, 56, 0
4, 38304, Note_on_c, 1, 58, 75
4, 38393, Note_on_c, 1, 58, 0
4, 38400, Note_on_c, 1, 56, 75
4, 38489, Note_on_c, 1, 56, 0
4, 38496, Note_on_c, 1, 55, 75
4, 38585, Note_on_c, 1, 55, 0
4, 38688, Note_on_c, 1, 60, 75
4, 38777, Note_on_c, 1, 60, 0
4, 38784, Note_on_c, 1, 56, 75
4, 38873, Note_on_c, 1, 56, 0
4, 38976, Note_on_c, 1, 55, 75
4, 39065, Note_on_c, 1, 55, 0
4, 39072, Note_on_c, 1, 51, 75
4, 39161, Note_on_c, 1, 51, 0
4, 39264, Note_on_c, 1, 50, 75
4, 39353, Note_on_c, 1, 50, 0
4, 39360, Note_on_c, 1, 51, 75
4, 39449, Note_on_c, 1, 51, 0
4, 39456, Note_on_c, 1, 46, 75
4, 39545, Note_on_c, 1, 46, 0
4, 39552, Note_on_c, 1, 58, 75
4, 39641, Note_on_c, 1, 58, 0
4, 39648, Note_on_c, 1, 46, 75
4, 39737, Note_on_c, 1, 46, 0
4, 40128, Note_on_c, 1, 48, 75
4, 40128, Note_on_c, 1, 41, 75
4, 40217, Note_on_c, 1, 48, 0
4, 40217, Note_on_c, 1, 41, 0
4, 40224, Note_on_c, 1, 50, 75
4, 40224, Note_on_c, 1, 46, 75
4, 40313, Note_on_c, 1, 50, 0
4, 40313, Note_on_c, 1, 46, 0
4, 40704, Note_on_c, 1, 48, 75
4, 40704, Note_on_c, 1, 41, 75
4, 40793, Note_on_c, 1, 48, 0
4, 40793, Note_on_c, 1, 41, 0
4, 40800, Note_on_c, 1, 50, 75
4, 40800, Note_on_c, 1, 46, 75
4, 40889, Note_on_c, 1, 50, 0
4, 40889, Note_on_c, 1, 46, 0
4, 40896, Note_on_c, 1, 51, 75
4, 40896, Note_on_c, 1, 39, 75
4, 40985, Note_on_c, 1, 51, 0
4, 40985, Note_on_c, 1, 39, 0
4, 40992, Note_on_c, 1, 50, 75
4, 40992, Note_on_c, 1, 41, 75
4, 41081, Note_on_c, 1, 50, 0
4, 41081, Note_on_c, 1, 41, 0
4, 41088, Note_on_c, 1, 48, 75
4, 41088, Note_on_c, 1, 41, 75
4, 41177, Note_on_c, 1, 48, 0
4, 41177, Note_on_c, 1, 41, 0
4, 41184, Note_on_c, 1, 46, 75
4, 41273, Note_on_c, 1, 46, 0
4, 41280, Note_on_c, 1, 41, 75
4, 41369, Note_on_c, 1, 41, 0
4, 41376, Note_on_c, 1, 34, 75
4, 41465, Note_on_c, 1, 34, 0
4, 41568, Note_on_c, 1, 55, 75
4, 41657, Note_on_c, 1, 55, 0
4, 41664, Note_on_c, 1, 51, 75
4, 41753, Note_on_c, 1, 51, 0
4, 41856, Note_on_c, 1, 56, 76
4, 41945, Note_on_c, 1, 56, 0
4, 41952, Note_on_c, 1, 44, 76
4, 42041, Note_on_c, 1, 44, 0
4, 42144, Note_on_c, 1, 57, 77
4, 42233, Note_on_c, 1, 57, 0
4, 42240, Note_on_c, 1, 53, 78
4, 42329, Note_on_c, 1, 53, 0
4, 42432, Note_on_c, 1, 58, 79
4, 42521, Note_on_c, 1, 58, 0
4, 42528, Note_on_c, 1, 46, 79
4, 42617, Note_on_c, 1, 46, 0
4, 42720, Note_on_c, 1, 62, 80
4, 42809, Note_on_c, 1, 62, 0
4, 42816, Note_on_c, 1, 58, 81
4, 42905, Note_on_c, 1, 58, 0
4, 43008, Note_on_c, 1, 63, 81
4, 43097, Note_on_c, 1, 63, 0
4, 43104, Note_on_c, 1, 55, 81
4, 43193, Note_on_c, 1, 55, 0
4, 43200, Note_on_c, 1, 56, 81
4, 43377, Note_on_c, 1, 56, 0
4, 43392, Note_on_c, 1, 57, 81
4, 43481, Note_on_c, 1, 57, 0
4, 43488, Note_on_c, 1, 58, 81
4, 43577, Note_on_c, 1, 58, 0
4, 43584, Note_on_c, 1, 53, 79
4, 43673, Note_on_c, 1, 53, 0
4, 43680, Note_on_c, 1, 46, 77
4, 43769, Note_on_c, 1, 46, 0
4, 44160, Note_on_c, 1, 53, 75
4, 44160, Note_on_c, 1, 46, 75
4, 44249, Note_on_c, 1, 53, 0
4, 44249, Note_on_c, 1, 46, 0
4, 44256, Note_on_c, 1, 55, 75
4, 44256, Note_on_c, 1, 51, 75
4, 44345, Note_on_c, 1, 55, 0
4, 44345, Note_on_c, 1, 51, 0
4, 44736, Note_on_c, 1, 53, 75
4, 44736, Note_on_c, 1, 46, 75
4, 44825, Note_on_c, 1, 53, 0
4, 44825, Note_on_c, 1, 46, 0
4, 44832, Note_on_c, 1, 55, 75
4, 44832, Note_on_c, 1, 51, 75
4, 44921, Note_on_c, 1, 55, 0
4, 44921, Note_on_c, 1, 51, 0
4, 44928, Note_on_c, 1, 56, 75
4, 44928, Note_on_c, 1, 44, 75
4, 45017, Note_on_c, 1, 56, 0
4, 45017, Note_on_c, 1, 44, 0
4, 45024, Note_on_c, 1, 55, 75
4, 45024, Note_on_c, 1, 46, 75
4, 45113, Note_on_c, 1, 55, 0
4, 45113, Note_on_c, 1, 46, 0
4, 45120, Note_on_c, 1, 53, 75
4, 45120, Note_on_c, 1, 46, 75
4, 45209, Note_on_c, 1, 53, 0
4, 45209, Note_on_c, 1, 46, 0
4, 45216, Note_on_c, 1, 51, 75
4, 45305, Note_on_c, 1, 51, 0
4, 45312, Note_on_c, 1, 46, 75
4, 45401, Note_on_c, 1, 46, 0
4, 45408, Note_on_c, 1, 39, 75
4, 45497, Note_on_c, 1, 39, 0
4, 45600, Note_on_c, 1, 55, 75
4, 45689, Note_on_c, 1, 55, 0
4, 45696, Note_on_c, 1, 51, 75
4, 45785, Note_on_c, 1, 51, 0
4, 45888, Note_on_c, 1, 56, 76
4, 45977, Note_on_c, 1, 56, 0
4, 45984, Note_on_c, 1, 44, 76
4, 46073, Note_on_c, 1, 44, 0
4, 46176, Note_on_c, 1, 57, 77
4, 46265, Note_on_c, 1, 57, 0
4, 46272, Note_on_c, 1, 53, 78
4, 46361, Note_on_c, 1, 53, 0
4, 46464, Note_on_c, 1, 58, 79
4, 46553, Note_on_c, 1, 58, 0
4, 46560, Note_on_c, 1, 46, 79
4, 46649, Note_on_c, 1, 46, 0
4, 46752, Note_on_c, 1, 62, 80
4, 46841, Note_on_c, 1, 62, 0
4, 46848, Note_on_c, 1, 58, 81
4, 46937, Note_on_c, 1, 58, 0
4, 47040, Note_on_c, 1, 63, 81
4, 47129, Note_on_c, 1, 63, 0
4, 47136, Note_on_c, 1, 55, 81
4, 47225, Note_on_c, 1, 55, 0
4, 47232, Note_on_c, 1, 56, 81
4, 47409, Note_on_c, 1, 56, 0
4, 47424, Note_on_c, 1, 57, 81
4, 47513, Note_on_c, 1, 57, 0
4, 47520, Note_on_c, 1, 58, 81
4, 47609, Note_on_c, 1, 58, 0
4, 47616, Note_on_c, 1, 53, 79
4, 47705, Note_on_c, 1, 53, 0
4, 47712, Note_on_c, 1, 46, 77
4, 47801, Note_on_c, 1, 46, 0
4, 48192, Note_on_c, 1, 53, 75
4, 48192, Note_on_c, 1, 46, 75
4, 48281, Note_on_c, 1, 53, 0
4, 48281, Note_on_c, 1, 46, 0
4, 48288, Note_on_c, 1, 55, 75
4, 48288, Note_on_c, 1, 51, 75
4, 48377, Note_on_c, 1, 55, 0
4, 48377, Note_on_c, 1, 51, 0
4, 48768, Note_on_c, 1, 53, 75
4, 48768, Note_on_c, 1, 46, 75
4, 48857, Note_on_c, 1, 53, 0
4, 48857, Note_on_c, 1, 46, 0
4, 48864, Note_on_c, 1, 55, 75
4, 48864, Note_on_c, 1, 51, 75
4, 48953, Note_on_c, 1, 55, 0
4, 48953, Note_on_c, 1, 51, 0
4, 48960, Note_on_c, 1, 56, 75
4, 48960, Note_on_c, 1, 44, 75
4, 49049, Note_on_c, 1, 56, 0
4, 49049, Note_on_c, 1, 44, 0
4, 49056, Note_on_c, 1, 55, 75
4, 49056, Note_on_c, 1, 46, 75
4, 49145, Note_on_c, 1, 55, 0
4, 49145, Note_on_c, 1, 46, 0
4, 49152, Note_on_c, 1, 53, 75
4, 49152, Note_on_c, 1, 46, 75
4, 49241, Note_on_c, 1, 53, 0
4, 49241, Note_on_c, 1, 46, 0
4, 49248, Note_on_c, 1, 51, 75
4, 49337, Note_on_c, 1, 51, 0
4, 49344, Note_on_c, 1, 46, 75
4, 49433, Note_on_c, 1, 46, 0
4, 49440, Note_on_c, 1, 39, 75
4, 49529, Note_on_c, 1, 39, 0
4, 49536, Note_on_c, 1, 39, 0
4, 49625, Note_on_c, 1, 39, 0
4, 49632, End_track
5, 0, Start_track
5, 0, Program_c, 0, 0
5, 0, Control_c, 0, 7, 127
5, 0, Control_c, 0, 10, 64
5, 17280, Note_on_c, 0, 54, 64
5, 17545, Note_on_c, 0, 54, 0
5, 17568, Note_on_c, 0, 54, 64
5, 17833, Note_on_c, 0, 54, 0
5, 17856, Note_on_c, 0, 54, 64
5, 18121, Note_on_c, 0, 54, 0
5, 18144, Note_on_c, 0, 54, 64
5, 18409, Note_on_c, 0, 54, 0
5, 18432, Note_on_c, 0, 54, 64
5, 18697, Note_on_c, 0, 54, 0
5, 18720, Note_on_c, 0, 53, 64
5, 18985, Note_on_c, 0, 53, 0
5, 21312, Note_on_c, 0, 54, 64
5, 21577, Note_on_c, 0, 54, 0
5, 21600, Note_on_c, 0, 54, 64
5, 21865, Note_on_c, 0, 54, 0
5, 21888, Note_on_c, 0, 54, 64
5, 22153, Note_on_c, 0, 54, 0
5, 22176, Note_on_c, 0, 54, 64
5, 22441, Note_on_c, 0, 54, 0
5, 22464, Note_on_c, 0, 54, 64
5, 22729, Note_on_c, 0, 54, 0
5, 22752, Note_on_c, 0, 53, 64
5, 23017, Note_on_c, 0, 53, 0
5, 24192, Note_on_c, 0, 58, 64
5, 24745, Note_on_c, 0, 58, 0
5, 24768, Note_on_c, 0, 58, 64
5, 25033, Note_on_c, 0, 58, 0
5, 25056, Note_on_c, 0, 58, 64
5, 25321, Note_on_c, 0, 58, 0
5, 25920, Note_on_c, 0, 51, 64
5, 26185, Note_on_c, 0, 51, 0
5, 26208, Note_on_c, 0, 51, 64
5, 26473, Note_on_c, 0, 51, 0
5, 26496, Note_on_c, 0, 51, 64
5, 26761, Note_on_c, 0, 51, 0
5, 26784, Note_on_c, 0, 51, 64
5, 27049, Note_on_c, 0, 51, 0
5, 27072, Note_on_c, 0, 51, 64
5, 27337, Note_on_c, 0, 51, 0
5, 27360, Note_on_c, 0, 50, 64
5, 27625, Note_on_c, 0, 50, 0
5, 28800, Note_on_c, 0, 58, 64
5, 29353, Note_on_c, 0, 58, 0
5, 29376, Note_on_c, 0, 58, 64
5, 29641, Note_on_c, 0, 58, 0
5, 29664, Note_on_c, 0, 58, 64
5, 29929, Note_on_c, 0, 58, 0
5, 30528, Note_on_c, 0, 51, 64
5, 30793, Note_on_c, 0, 51, 0
5, 30816, Note_on_c, 0, 51, 64
5, 31081, Note_on_c, 0, 51, 0
5, 31104, Note_on_c, 0, 51, 64
5, 31369, Note_on_c, 0, 51, 0
5, 31392, Note_on_c, 0, 51, 64
5, 31657, Note_on_c, 0, 51, 0
5, 31680, Note_on_c, 0, 51, 64
5, 31945, Note_on_c, 0, 51, 0
5, 31968, Note_on_c, 0, 50, 64
5, 32233, Note_on_c, 0, 50, 0
5, 49536, End_track
6, 0, Start_track
6, 0, Title_t, "Piano Solo   <composer>  "
6, 0, End_track
0, 0, End_of_file
