0, 0, Header, 1, 6, 96
1, 0, Start_track
1, 0, Copyright_t, "Copyright  2000 <copyright holder>"
1, 0, Text_t, "Sonata I\015\012"
1, 0, Text_t, "Haydn\015\012"
1, 0, Sequencer_specific, 16, 68, 87, 77, 90, 86, 82, 83, 78, 32, 55, 46, 49, 46, 50, 46, 48
1, 0, Time_signature, 3, 2, 24, 8
1, 0, Tempo, 100000
1, 0, Key_signature, -3, "major"
1, 192, Tempo, 461538
1, 2496, Tempo, 461538
1, 14592, Key_signature, 0, "major"
1, 16896, Key_signature, 0, "major"
1, 28992, Key_signature, -3, "major"
1, 31296, Key_signature, -3, "major"
1, 43488, End_track
2, 0, Start_track
2, 0, Program_c, 0, 0
2, 0, Control_c, 0, 7, 127
2, 0, Control_c, 0, 10, 64
2, 192, Note_on_c, 0, 72, 80
2, 192, Note_on_c, 0, 63, 80
2, 231, Note_on_c, 0, 72, 0
2, 231, Note_on_c, 0, 63, 0
2, 288, Note_on_c, 0, 71, 91
2, 288, Note_on_c, 0, 65, 91
2, 327, Note_on_c, 0, 71, 0
2, 327, Note_on_c, 0, 65, 0
2, 384, Note_on_c, 0, 72, 76
2, 384, Note_on_c, 0, 67, 76
2, 423, Note_on_c, 0, 72, 0
2, 423, Note_on_c, 0, 67, 0
2, 480, Note_on_c, 0, 80, 94
2, 480, Note_on_c, 0, 77, 94
2, 665, Note_on_c, 0, 80, 0
2, 665, Note_on_c, 0, 77, 0
2, 672, Note_on_c, 0, 79, 80
2, 672, Note_on_c, 0, 75, 80
2, 761, Note_on_c, 0, 79, 0
2, 761, Note_on_c, 0, 75, 0
2, 768, Note_on_c, 0, 77, 80
2, 768, Note_on_c, 0, 68, 80
2, 807, Note_on_c, 0, 77, 0
2, 807, Note_on_c, 0, 68, 0
2, 864, Note_on_c, 0, 75, 80
2, 864, Note_on_c, 0, 67, 80
2, 912, Note_on_c, 0, 75, 0
2, 912, Note_on_c, 0, 67, 0
2, 912, Note_on_c, 0, 74, 79
2, 912, Note_on_c, 0, 65, 79
2, 957, Note_on_c, 0, 74, 0
2, 957, Note_on_c, 0, 65, 0
2, 960, Note_on_c, 0, 72, 78
2, 960, Note_on_c, 0, 63, 78
2, 999, Note_on_c, 0, 72, 0
2, 999, Note_on_c, 0, 63, 0
2, 1056, Note_on_c, 0, 71, 76
2, 1056, Note_on_c, 0, 62, 76
2, 1095, Note_on_c, 0, 71, 0
2, 1095, Note_on_c, 0, 62, 0
2, 1152, Note_on_c, 0, 71, 91
2, 1152, Note_on_c, 0, 63, 91
2, 1248, Note_on_c, 0, 71, 0
2, 1248, Note_on_c, 0, 72, 75
2, 1337, Note_on_c, 0, 72, 0
2, 1337, Note_on_c, 0, 63, 0
2, 1344, Note_on_c, 0, 82, 75
2, 1367, Note_on_c, 0, 82, 0
2, 1368, Note_on_c, 0, 80, 76
2, 1391, Note_on_c, 0, 80, 0
2, 1392, Note_on_c, 0, 82, 78
2, 1415, Note_on_c, 0, 82, 0
2, 1416, Note_on_c, 0, 84, 80
2, 1439, Note_on_c, 0, 84, 0
2, 1440, Note_on_c, 0, 82, 79
2, 1536, Note_on_c, 0, 82, 0
2, 1536, Note_on_c, 0, 80, 77
2, 1625, Note_on_c, 0, 80, 0
2, 1632, Note_on_c, 0, 80, 75
2, 1655, Note_on_c, 0, 80, 0
2, 1656, Note_on_c, 0, 79, 76
2, 1679, Note_on_c, 0, 79, 0
2, 1680, Note_on_c, 0, 80, 78
2, 1703, Note_on_c, 0, 80, 0
2, 1704, Note_on_c, 0, 82, 80
2, 1727, Note_on_c, 0, 82, 0
2, 1728, Note_on_c, 0, 80, 79
2, 1824, Note_on_c, 0, 80, 0
2, 1824, Note_on_c, 0, 79, 77
2, 1913, Note_on_c, 0, 79, 0
2, 1920, Note_on_c, 0, 75, 80
2, 1920, Note_on_c, 0, 72, 80
2, 1959, Note_on_c, 0, 75, 0
2, 1959, Note_on_c, 0, 72, 0
2, 2016, Note_on_c, 0, 74, 80
2, 2016, Note_on_c, 0, 71, 80
2, 2055, Note_on_c, 0, 74, 0
2, 2055, Note_on_c, 0, 71, 0
2, 2112, Note_on_c, 0, 60, 75
2, 2157, Note_on_c, 0, 60, 0
2, 2160, Note_on_c, 0, 62, 75
2, 2205, Note_on_c, 0, 62, 0
2, 2208, Note_on_c, 0, 63, 75
2, 2275, Note_on_c, 0, 63, 0
2, 2280, Note_on_c, 0, 66, 75
2, 2303, Note_on_c, 0, 66, 0
2, 2304, Note_on_c, 0, 66, 91
2, 2304, Note_on_c, 0, 60, 91
2, 2400, Note_on_c, 0, 66, 0
2, 2400, Note_on_c, 0, 60, 0
2, 2400, Note_on_c, 0, 67, 75
2, 2400, Note_on_c, 0, 59, 75
2, 2489, Note_on_c, 0, 67, 0
2, 2489, Note_on_c, 0, 59, 0
2, 2496, Note_on_c, 0, 72, 80
2, 2496, Note_on_c, 0, 63, 80
2, 2535, Note_on_c, 0, 72, 0
2, 2535, Note_on_c, 0, 63, 0
2, 2592, Note_on_c, 0, 71, 91
2, 2592, Note_on_c, 0, 65, 91
2, 2631, Note_on_c, 0, 71, 0
2, 2631, Note_on_c, 0, 65, 0
2, 2688, Note_on_c, 0, 72, 76
2, 2688, Note_on_c, 0, 67, 76
2, 2727, Note_on_c, 0, 72, 0
2, 2727, Note_on_c, 0, 67, 0
2, 2784, Note_on_c, 0, 80, 94
2, 2784, Note_on_c, 0, 77, 94
2, 2969, Note_on_c, 0, 80, 0
2, 2969, Note_on_c, 0, 77, 0
2, 2976, Note_on_c, 0, 79, 80
2, 2976, Note_on_c, 0, 75, 80
2, 3065, Note_on_c, 0, 79, 0
2, 3065, Note_on_c, 0, 75, 0
2, 3072, Note_on_c, 0, 77, 80
2, 3072, Note_on_c, 0, 68, 80
2, 3111, Note_on_c, 0, 77, 0
2, 3111, Note_on_c, 0, 68, 0
2, 3168, Note_on_c, 0, 75, 80
2, 3168, Note_on_c, 0, 67, 80
2, 3216, Note_on_c, 0, 75, 0
2, 3216, Note_on_c, 0, 67, 0
2, 3216, Note_on_c, 0, 74, 79
2, 3216, Note_on_c, 0, 65, 79
2, 3261, Note_on_c, 0, 74, 0
2, 3261, Note_on_c, 0, 65, 0
2, 3264, Note_on_c, 0, 72, 78
2, 3264, Note_on_c, 0, 63, 78
2, 3303, Note_on_c, 0, 72, 0
2, 3303, Note_on_c, 0, 63, 0
2, 3360, Note_on_c, 0, 71, 76
2, 3360, Note_on_c, 0, 62, 76
2, 3399, Note_on_c, 0, 71, 0
2, 3399, Note_on_c, 0, 62, 0
2, 3456, Note_on_c, 0, 71, 91
2, 3456, Note_on_c, 0, 63, 91
2, 3552, Note_on_c, 0, 71, 0
2, 3552, Note_on_c, 0, 72, 75
2, 3641, Note_on_c, 0, 72, 0
2, 3641, Note_on_c, 0, 63, 0
2, 3648, Note_on_c, 0, 82, 75
2, 3671, Note_on_c, 0, 82, 0
2, 3672, Note_on_c, 0, 80, 76
2, 3695, Note_on_c, 0, 80, 0
2, 3696, Note_on_c, 0, 82, 78
2, 3719, Note_on_c, 0, 82, 0
2, 3720, Note_on_c, 0, 84, 80
2, 3743, Note_on_c, 0, 84, 0
2, 3744, Note_on_c, 0, 82, 79
2, 3840, Note_on_c, 0, 82, 0
2, 3840, Note_on_c, 0, 80, 77
2, 3929, Note_on_c, 0, 80, 0
2, 3936, Note_on_c, 0, 80, 75
2, 3959, Note_on_c, 0, 80, 0
2, 3960, Note_on_c, 0, 79, 76
2, 3983, Note_on_c, 0, 79, 0
2, 3984, Note_on_c, 0, 80, 78
2, 4007, Note_on_c, 0, 80, 0
2, 4008, Note_on_c, 0, 82, 80
2, 4031, Note_on_c, 0, 82, 0
2, 4032, Note_on_c, 0, 80, 79
2, 4128, Note_on_c, 0, 80, 0
2, 4128, Note_on_c, 0, 79, 77
2, 4217, Note_on_c, 0, 79, 0
2, 4224, Note_on_c, 0, 75, 80
2, 4224, Note_on_c, 0, 72, 80
2, 4263, Note_on_c, 0, 75, 0
2, 4263, Note_on_c, 0, 72, 0
2, 4320, Note_on_c, 0, 74, 80
2, 4320, Note_on_c, 0, 71, 80
2, 4359, Note_on_c, 0, 74, 0
2, 4359, Note_on_c, 0, 71, 0
2, 4416, Note_on_c, 0, 60, 75
2, 4461, Note_on_c, 0, 60, 0
2, 4464, Note_on_c, 0, 62, 75
2, 4509, Note_on_c, 0, 62, 0
2, 4512, Note_on_c, 0, 63, 75
2, 4579, Note_on_c, 0, 63, 0
2, 4584, Note_on_c, 0, 66, 75
2, 4607, Note_on_c, 0, 66, 0
2, 4608, Note_on_c, 0, 66, 91
2, 4608, Note_on_c, 0, 60, 91
2, 4704, Note_on_c, 0, 66, 0
2, 4704, Note_on_c, 0, 60, 0
2, 4704, Note_on_c, 0, 67, 75
2, 4704, Note_on_c, 0, 59, 75
2, 4793, Note_on_c, 0, 67, 0
2, 4793, Note_on_c, 0, 59, 0
2, 4800, Note_on_c, 0, 70, 70
2, 4813, Note_on_c, 0, 70, 0
2, 4814, Note_on_c, 0, 72, 71
2, 4827, Note_on_c, 0, 72, 0
2, 4828, Note_on_c, 0, 70, 73
2, 4841, Note_on_c, 0, 70, 0
2, 4842, Note_on_c, 0, 72, 75
2, 4855, Note_on_c, 0, 72, 0
2, 4856, Note_on_c, 0, 70, 74
2, 4869, Note_on_c, 0, 70, 0
2, 4870, Note_on_c, 0, 68, 73
2, 4882, Note_on_c, 0, 68, 0
2, 4883, Note_on_c, 0, 70, 72
2, 4895, Note_on_c, 0, 70, 0
2, 4896, Note_on_c, 0, 75, 70
2, 4896, Note_on_c, 0, 67, 70
2, 4985, Note_on_c, 0, 75, 0
2, 4985, Note_on_c, 0, 67, 0
2, 4992, Note_on_c, 0, 70, 70
2, 4992, Note_on_c, 0, 63, 70
2, 5081, Note_on_c, 0, 70, 0
2, 5081, Note_on_c, 0, 63, 0
2, 5088, Note_on_c, 0, 70, 70
2, 5088, Note_on_c, 0, 63, 70
2, 5177, Note_on_c, 0, 70, 0
2, 5177, Note_on_c, 0, 63, 0
2, 5184, Note_on_c, 0, 77, 70
2, 5184, Note_on_c, 0, 68, 70
2, 5273, Note_on_c, 0, 77, 0
2, 5273, Note_on_c, 0, 68, 0
2, 5280, Note_on_c, 0, 70, 70
2, 5369, Note_on_c, 0, 70, 0
2, 5376, Note_on_c, 0, 77, 70
2, 5389, Note_on_c, 0, 77, 0
2, 5390, Note_on_c, 0, 79, 71
2, 5403, Note_on_c, 0, 79, 0
2, 5404, Note_on_c, 0, 77, 73
2, 5417, Note_on_c, 0, 77, 0
2, 5418, Note_on_c, 0, 79, 75
2, 5431, Note_on_c, 0, 79, 0
2, 5432, Note_on_c, 0, 77, 74
2, 5445, Note_on_c, 0, 77, 0
2, 5446, Note_on_c, 0, 75, 73
2, 5458, Note_on_c, 0, 75, 0
2, 5459, Note_on_c, 0, 77, 72
2, 5471, Note_on_c, 0, 77, 0
2, 5472, Note_on_c, 0, 79, 70
2, 5517, Note_on_c, 0, 79, 0
2, 5520, Note_on_c, 0, 82, 70
2, 5565, Note_on_c, 0, 82, 0
2, 5568, Note_on_c, 0, 80, 71
2, 5613, Note_on_c, 0, 80, 0
2, 5616, Note_on_c, 0, 79, 72
2, 5661, Note_on_c, 0, 79, 0
2, 5664, Note_on_c, 0, 77, 73
2, 5709, Note_on_c, 0, 77, 0
2, 5712, Note_on_c, 0, 75, 74
2, 5712, Note_on_c, 0, 67, 74
2, 5757, Note_on_c, 0, 75, 0
2, 5757, Note_on_c, 0, 67, 0
2, 5760, Note_on_c, 0, 75, 75
2, 5760, Note_on_c, 0, 67, 75
2, 5856, Note_on_c, 0, 75, 0
2, 5856, Note_on_c, 0, 67, 0
2, 5856, Note_on_c, 0, 74, 72
2, 5856, Note_on_c, 0, 65, 72
2, 5945, Note_on_c, 0, 74, 0
2, 5945, Note_on_c, 0, 65, 0
2, 5952, Note_on_c, 0, 73, 70
2, 5952, Note_on_c, 0, 70, 70
2, 6144, Note_on_c, 0, 73, 0
2, 6144, Note_on_c, 0, 70, 0
2, 6144, Note_on_c, 0, 72, 71
2, 6144, Note_on_c, 0, 68, 71
2, 6238, Note_on_c, 0, 72, 0
2, 6238, Note_on_c, 0, 68, 0
2, 6240, Note_on_c, 0, 75, 72
2, 6240, Note_on_c, 0, 72, 72
2, 6432, Note_on_c, 0, 75, 0
2, 6432, Note_on_c, 0, 72, 0
2, 6432, Note_on_c, 0, 74, 74
2, 6432, Note_on_c, 0, 70, 74
2, 6526, Note_on_c, 0, 74, 0
2, 6526, Note_on_c, 0, 70, 0
2, 6528, Note_on_c, 0, 63, 74
2, 6541, Note_on_c, 0, 63, 0
2, 6542, Note_on_c, 0, 65, 75
2, 6555, Note_on_c, 0, 65, 0
2, 6556, Note_on_c, 0, 63, 75
2, 6569, Note_on_c, 0, 63, 0
2, 6570, Note_on_c, 0, 65, 75
2, 6583, Note_on_c, 0, 65, 0
2, 6584, Note_on_c, 0, 63, 75
2, 6597, Note_on_c, 0, 63, 0
2, 6598, Note_on_c, 0, 62, 75
2, 6610, Note_on_c, 0, 62, 0
2, 6611, Note_on_c, 0, 63, 75
2, 6623, Note_on_c, 0, 63, 0
2, 6624, Note_on_c, 0, 65, 75
2, 6624, Note_on_c, 0, 60, 75
2, 6624, Note_on_c, 0, 56, 75
2, 6720, Note_on_c, 0, 65, 0
2, 6720, Note_on_c, 0, 60, 0
2, 6720, Note_on_c, 0, 56, 0
2, 6720, Note_on_c, 0, 68, 75
2, 6809, Note_on_c, 0, 68, 0
2, 6816, Note_on_c, 0, 62, 75
2, 6816, Note_on_c, 0, 56, 75
2, 6855, Note_on_c, 0, 62, 0
2, 6855, Note_on_c, 0, 56, 0
2, 6912, Note_on_c, 0, 63, 75
2, 6912, Note_on_c, 0, 55, 75
2, 7089, Note_on_c, 0, 63, 0
2, 7089, Note_on_c, 0, 55, 0
2, 7104, Note_on_c, 0, 84, 75
2, 7104, Note_on_c, 0, 79, 75
2, 7104, Note_on_c, 0, 75, 75
2, 7143, Note_on_c, 0, 84, 0
2, 7143, Note_on_c, 0, 79, 0
2, 7143, Note_on_c, 0, 75, 0
2, 7200, Note_on_c, 0, 83, 75
2, 7200, Note_on_c, 0, 77, 75
2, 7200, Note_on_c, 0, 74, 75
2, 7239, Note_on_c, 0, 83, 0
2, 7239, Note_on_c, 0, 77, 0
2, 7239, Note_on_c, 0, 74, 0
2, 7296, Note_on_c, 0, 84, 75
2, 7296, Note_on_c, 0, 79, 75
2, 7296, Note_on_c, 0, 75, 75
2, 7335, Note_on_c, 0, 84, 0
2, 7335, Note_on_c, 0, 79, 0
2, 7335, Note_on_c, 0, 75, 0
2, 7392, Note_on_c, 0, 61, 91
2, 7577, Note_on_c, 0, 61, 0
2, 7584, Note_on_c, 0, 60, 75
2, 7673, Note_on_c, 0, 60, 0
2, 7680, Note_on_c, 0, 52, 80
2, 7693, Note_on_c, 0, 52, 0
2, 7694, Note_on_c, 0, 53, 80
2, 7707, Note_on_c, 0, 53, 0
2, 7708, Note_on_c, 0, 52, 80
2, 7721, Note_on_c, 0, 52, 0
2, 7722, Note_on_c, 0, 53, 80
2, 7735, Note_on_c, 0, 53, 0
2, 7736, Note_on_c, 0, 52, 80
2, 7749, Note_on_c, 0, 52, 0
2, 7750, Note_on_c, 0, 50, 80
2, 7762, Note_on_c, 0, 50, 0
2, 7763, Note_on_c, 0, 52, 80
2, 7775, Note_on_c, 0, 52, 0
2, 7776, Note_on_c, 0, 53, 80
2, 7815, Note_on_c, 0, 53, 0
2, 7872, Note_on_c, 0, 61, 80
2, 7911, Note_on_c, 0, 61, 0
2, 7968, Note_on_c, 0, 54, 80
2, 7981, Note_on_c, 0, 54, 0
2, 7982, Note_on_c, 0, 55, 80
2, 7995, Note_on_c, 0, 55, 0
2, 7996, Note_on_c, 0, 54, 80
2, 8009, Note_on_c, 0, 54, 0
2, 8010, Note_on_c, 0, 55, 80
2, 8023, Note_on_c, 0, 55, 0
2, 8024, Note_on_c, 0, 54, 80
2, 8037, Note_on_c, 0, 54, 0
2, 8038, Note_on_c, 0, 52, 80
2, 8050, Note_on_c, 0, 52, 0
2, 8051, Note_on_c, 0, 54, 80
2, 8063, Note_on_c, 0, 54, 0
2, 8064, Note_on_c, 0, 55, 80
2, 8103, Note_on_c, 0, 55, 0
2, 8160, Note_on_c, 0, 63, 80
2, 8199, Note_on_c, 0, 63, 0
2, 8256, Note_on_c, 0, 59, 80
2, 8269, Note_on_c, 0, 59, 0
2, 8270, Note_on_c, 0, 60, 80
2, 8283, Note_on_c, 0, 60, 0
2, 8284, Note_on_c, 0, 59, 80
2, 8297, Note_on_c, 0, 59, 0
2, 8298, Note_on_c, 0, 60, 80
2, 8311, Note_on_c, 0, 60, 0
2, 8312, Note_on_c, 0, 59, 80
2, 8325, Note_on_c, 0, 59, 0
2, 8326, Note_on_c, 0, 57, 80
2, 8338, Note_on_c, 0, 57, 0
2, 8339, Note_on_c, 0, 59, 80
2, 8351, Note_on_c, 0, 59, 0
2, 8352, Note_on_c, 0, 60, 80
2, 8391, Note_on_c, 0, 60, 0
2, 8448, Note_on_c, 0, 80, 96
2, 8448, Note_on_c, 0, 77, 96
2, 8592, Note_on_c, 0, 80, 0
2, 8592, Note_on_c, 0, 77, 0
2, 8688, Note_on_c, 0, 80, 70
2, 8733, Note_on_c, 0, 80, 0
2, 8736, Note_on_c, 0, 79, 70
2, 8781, Note_on_c, 0, 79, 0
2, 8784, Note_on_c, 0, 78, 71
2, 8829, Note_on_c, 0, 78, 0
2, 8832, Note_on_c, 0, 77, 72
2, 8877, Note_on_c, 0, 77, 0
2, 8880, Note_on_c, 0, 76, 73
2, 8925, Note_on_c, 0, 76, 0
2, 8928, Note_on_c, 0, 75, 73
2, 8995, Note_on_c, 0, 75, 0
2, 9000, Note_on_c, 0, 73, 75
2, 9023, Note_on_c, 0, 73, 0
2, 9024, Note_on_c, 0, 72, 75
2, 9113, Note_on_c, 0, 72, 0
2, 9120, Note_on_c, 0, 71, 75
2, 9209, Note_on_c, 0, 71, 0
2, 9216, Note_on_c, 0, 72, 75
2, 9255, Note_on_c, 0, 72, 0
2, 9312, Note_on_c, 0, 63, 75
2, 9401, Note_on_c, 0, 63, 0
2, 9408, Note_on_c, 0, 62, 75
2, 9420, Note_on_c, 0, 62, 0
2, 9420, Note_on_c, 0, 63, 75
2, 9432, Note_on_c, 0, 63, 0
2, 9432, Note_on_c, 0, 62, 75
2, 9497, Note_on_c, 0, 62, 0
2, 9504, Note_on_c, 0, 60, 75
2, 9681, Note_on_c, 0, 60, 0
2, 9696, Note_on_c, 0, 70, 70
2, 9709, Note_on_c, 0, 70, 0
2, 9710, Note_on_c, 0, 72, 71
2, 9723, Note_on_c, 0, 72, 0
2, 9724, Note_on_c, 0, 70, 73
2, 9737, Note_on_c, 0, 70, 0
2, 9738, Note_on_c, 0, 72, 75
2, 9751, Note_on_c, 0, 72, 0
2, 9752, Note_on_c, 0, 70, 74
2, 9765, Note_on_c, 0, 70, 0
2, 9766, Note_on_c, 0, 68, 73
2, 9778, Note_on_c, 0, 68, 0
2, 9779, Note_on_c, 0, 70, 72
2, 9791, Note_on_c, 0, 70, 0
2, 9792, Note_on_c, 0, 75, 70
2, 9792, Note_on_c, 0, 67, 70
2, 9881, Note_on_c, 0, 75, 0
2, 9881, Note_on_c, 0, 67, 0
2, 9888, Note_on_c, 0, 70, 70
2, 9888, Note_on_c, 0, 63, 70
2, 9977, Note_on_c, 0, 70, 0
2, 9977, Note_on_c, 0, 63, 0
2, 9984, Note_on_c, 0, 70, 70
2, 9984, Note_on_c, 0, 63, 70
2, 10073, Note_on_c, 0, 70, 0
2, 10073, Note_on_c, 0, 63, 0
2, 10080, Note_on_c, 0, 77, 70
2, 10080, Note_on_c, 0, 68, 70
2, 10169, Note_on_c, 0, 77, 0
2, 10169, Note_on_c, 0, 68, 0
2, 10176, Note_on_c, 0, 70, 70
2, 10265, Note_on_c, 0, 70, 0
2, 10272, Note_on_c, 0, 77, 70
2, 10285, Note_on_c, 0, 77, 0
2, 10286, Note_on_c, 0, 79, 71
2, 10299, Note_on_c, 0, 79, 0
2, 10300, Note_on_c, 0, 77, 73
2, 10313, Note_on_c, 0, 77, 0
2, 10314, Note_on_c, 0, 79, 75
2, 10327, Note_on_c, 0, 79, 0
2, 10328, Note_on_c, 0, 77, 74
2, 10341, Note_on_c, 0, 77, 0
2, 10342, Note_on_c, 0, 75, 73
2, 10354, Note_on_c, 0, 75, 0
2, 10355, Note_on_c, 0, 77, 72
2, 10367, Note_on_c, 0, 77, 0
2, 10368, Note_on_c, 0, 79, 70
2, 10413, Note_on_c, 0, 79, 0
2, 10416, Note_on_c, 0, 82, 70
2, 10461, Note_on_c, 0, 82, 0
2, 10464, Note_on_c, 0, 80, 71
2, 10509, Note_on_c, 0, 80, 0
2, 10512, Note_on_c, 0, 79, 72
2, 10557, Note_on_c, 0, 79, 0
2, 10560, Note_on_c, 0, 77, 73
2, 10605, Note_on_c, 0, 77, 0
2, 10608, Note_on_c, 0, 75, 74
2, 10608, Note_on_c, 0, 67, 74
2, 10653, Note_on_c, 0, 75, 0
2, 10653, Note_on_c, 0, 67, 0
2, 10656, Note_on_c, 0, 75, 75
2, 10656, Note_on_c, 0, 67, 75
2, 10752, Note_on_c, 0, 75, 0
2, 10752, Note_on_c, 0, 67, 0
2, 10752, Note_on_c, 0, 74, 72
2, 10752, Note_on_c, 0, 65, 72
2, 10841, Note_on_c, 0, 74, 0
2, 10841, Note_on_c, 0, 65, 0
2, 10848, Note_on_c, 0, 73, 70
2, 10848, Note_on_c, 0, 70, 70
2, 11040, Note_on_c, 0, 73, 0
2, 11040, Note_on_c, 0, 70, 0
2, 11040, Note_on_c, 0, 72, 71
2, 11040, Note_on_c, 0, 68, 71
2, 11134, Note_on_c, 0, 72, 0
2, 11134, Note_on_c, 0, 68, 0
2, 11136, Note_on_c, 0, 75, 72
2, 11136, Note_on_c, 0, 72, 72
2, 11328, Note_on_c, 0, 75, 0
2, 11328, Note_on_c, 0, 72, 0
2, 11328, Note_on_c, 0, 74, 74
2, 11328, Note_on_c, 0, 70, 74
2, 11422, Note_on_c, 0, 74, 0
2, 11422, Note_on_c, 0, 70, 0
2, 11424, Note_on_c, 0, 63, 74
2, 11437, Note_on_c, 0, 63, 0
2, 11438, Note_on_c, 0, 65, 75
2, 11451, Note_on_c, 0, 65, 0
2, 11452, Note_on_c, 0, 63, 75
2, 11465, Note_on_c, 0, 63, 0
2, 11466, Note_on_c, 0, 65, 75
2, 11479, Note_on_c, 0, 65, 0
2, 11480, Note_on_c, 0, 63, 75
2, 11493, Note_on_c, 0, 63, 0
2, 11494, Note_on_c, 0, 62, 75
2, 11506, Note_on_c, 0, 62, 0
2, 11507, Note_on_c, 0, 63, 75
2, 11519, Note_on_c, 0, 63, 0
2, 11520, Note_on_c, 0, 65, 75
2, 11520, Note_on_c, 0, 60, 75
2, 11520, Note_on_c, 0, 56, 75
2, 11616, Note_on_c, 0, 65, 0
2, 11616, Note_on_c, 0, 60, 0
2, 11616, Note_on_c, 0, 56, 0
2, 11616, Note_on_c, 0, 68, 75
2, 11705, Note_on_c, 0, 68, 0
2, 11712, Note_on_c, 0, 62, 75
2, 11712, Note_on_c, 0, 56, 75
2, 11751, Note_on_c, 0, 62, 0
2, 11751, Note_on_c, 0, 56, 0
2, 11808, Note_on_c, 0, 63, 75
2, 11808, Note_on_c, 0, 55, 75
2, 11985, Note_on_c, 0, 63, 0
2, 11985, Note_on_c, 0, 55, 0
2, 12000, Note_on_c, 0, 84, 75
2, 12000, Note_on_c, 0, 79, 75
2, 12000, Note_on_c, 0, 75, 75
2, 12039, Note_on_c, 0, 84, 0
2, 12039, Note_on_c, 0, 79, 0
2, 12039, Note_on_c, 0, 75, 0
2, 12096, Note_on_c, 0, 83, 75
2, 12096, Note_on_c, 0, 77, 75
2, 12096, Note_on_c, 0, 74, 75
2, 12135, Note_on_c, 0, 83, 0
2, 12135, Note_on_c, 0, 77, 0
2, 12135, Note_on_c, 0, 74, 0
2, 12192, Note_on_c, 0, 84, 75
2, 12192, Note_on_c, 0, 79, 75
2, 12192, Note_on_c, 0, 75, 75
2, 12231, Note_on_c, 0, 84, 0
2, 12231, Note_on_c, 0, 79, 0
2, 12231, Note_on_c, 0, 75, 0
2, 12288, Note_on_c, 0, 61, 91
2, 12473, Note_on_c, 0, 61, 0
2, 12480, Note_on_c, 0, 60, 75
2, 12569, Note_on_c, 0, 60, 0
2, 12576, Note_on_c, 0, 52, 80
2, 12589, Note_on_c, 0, 52, 0
2, 12590, Note_on_c, 0, 53, 80
2, 12603, Note_on_c, 0, 53, 0
2, 12604, Note_on_c, 0, 52, 80
2, 12617, Note_on_c, 0, 52, 0
2, 12618, Note_on_c, 0, 53, 80
2, 12631, Note_on_c, 0, 53, 0
2, 12632, Note_on_c, 0, 52, 80
2, 12645, Note_on_c, 0, 52, 0
2, 12646, Note_on_c, 0, 50, 80
2, 12658, Note_on_c, 0, 50, 0
2, 12659, Note_on_c, 0, 52, 80
2, 12671, Note_on_c, 0, 52, 0
2, 12672, Note_on_c, 0, 53, 80
2, 12711, Note_on_c, 0, 53, 0
2, 12768, Note_on_c, 0, 61, 80
2, 12807, Note_on_c, 0, 61, 0
2, 12864, Note_on_c, 0, 54, 80
2, 12877, Note_on_c, 0, 54, 0
2, 12878, Note_on_c, 0, 55, 80
2, 12891, Note_on_c, 0, 55, 0
2, 12892, Note_on_c, 0, 54, 80
2, 12905, Note_on_c, 0, 54, 0
2, 12906, Note_on_c, 0, 55, 80
2, 12919, Note_on_c, 0, 55, 0
2, 12920, Note_on_c, 0, 54, 80
2, 12933, Note_on_c, 0, 54, 0
2, 12934, Note_on_c, 0, 52, 80
2, 12946, Note_on_c, 0, 52, 0
2, 12947, Note_on_c, 0, 54, 80
2, 12959, Note_on_c, 0, 54, 0
2, 12960, Note_on_c, 0, 55, 80
2, 12999, Note_on_c, 0, 55, 0
2, 13056, Note_on_c, 0, 63, 80
2, 13095, Note_on_c, 0, 63, 0
2, 13152, Note_on_c, 0, 59, 80
2, 13165, Note_on_c, 0, 59, 0
2, 13166, Note_on_c, 0, 60, 80
2, 13179, Note_on_c, 0, 60, 0
2, 13180, Note_on_c, 0, 59, 80
2, 13193, Note_on_c, 0, 59, 0
2, 13194, Note_on_c, 0, 60, 80
2, 13207, Note_on_c, 0, 60, 0
2, 13208, Note_on_c, 0, 59, 80
2, 13221, Note_on_c, 0, 59, 0
2, 13222, Note_on_c, 0, 57, 80
2, 13234, Note_on_c, 0, 57, 0
2, 13235, Note_on_c, 0, 59, 80
2, 13247, Note_on_c, 0, 59, 0
2, 13248, Note_on_c, 0, 60, 80
2, 13287, Note_on_c, 0, 60, 0
2, 13344, Note_on_c, 0, 80, 96
2, 13344, Note_on_c, 0, 77, 96
2, 13488, Note_on_c, 0, 80, 0
2, 13488, Note_on_c, 0, 77, 0
2, 13584, Note_on_c, 0, 80, 70
2, 13629, Note_on_c, 0, 80, 0
2, 13632, Note_on_c, 0, 79, 70
2, 13677, Note_on_c, 0, 79, 0
2, 13680, Note_on_c, 0, 78, 71
2, 13725, Note_on_c, 0, 78, 0
2, 13728, Note_on_c, 0, 77, 72
2, 13773, Note_on_c, 0, 77, 0
2, 13776, Note_on_c, 0, 76, 73
2, 13821, Note_on_c, 0, 76, 0
2, 13824, Note_on_c, 0, 75, 73
2, 13891, Note_on_c, 0, 75, 0
2, 13896, Note_on_c, 0, 73, 75
2, 13919, Note_on_c, 0, 73, 0
2, 13920, Note_on_c, 0, 72, 75
2, 14009, Note_on_c, 0, 72, 0
2, 14016, Note_on_c, 0, 71, 75
2, 14105, Note_on_c, 0, 71, 0
2, 14112, Note_on_c, 0, 72, 75
2, 14151, Note_on_c, 0, 72, 0
2, 14208, Note_on_c, 0, 63, 75
2, 14297, Note_on_c, 0, 63, 0
2, 14304, Note_on_c, 0, 62, 75
2, 14316, Note_on_c, 0, 62, 0
2, 14316, Note_on_c, 0, 63, 75
2, 14328, Note_on_c, 0, 63, 0
2, 14328, Note_on_c, 0, 62, 75
2, 14393, Note_on_c, 0, 62, 0
2, 14400, Note_on_c, 0, 60, 75
2, 14577, Note_on_c, 0, 60, 0
2, 14592, Note_on_c, 0, 76, 75
2, 14637, Note_on_c, 0, 76, 0
2, 14640, Note_on_c, 0, 77, 75
2, 14685, Note_on_c, 0, 77, 0
2, 14688, Note_on_c, 0, 79, 75
2, 14711, Note_on_c, 0, 79, 0
2, 14712, Note_on_c, 0, 84, 75
2, 14735, Note_on_c, 0, 84, 0
2, 14736, Note_on_c, 0, 83, 75
2, 14759, Note_on_c, 0, 83, 0
2, 14760, Note_on_c, 0, 84, 75
2, 14783, Note_on_c, 0, 84, 0
2, 14784, Note_on_c, 0, 88, 75
2, 14807, Note_on_c, 0, 88, 0
2, 14808, Note_on_c, 0, 84, 75
2, 14831, Note_on_c, 0, 84, 0
2, 14832, Note_on_c, 0, 83, 75
2, 14855, Note_on_c, 0, 83, 0
2, 14856, Note_on_c, 0, 84, 75
2, 14879, Note_on_c, 0, 84, 0
2, 14880, Note_on_c, 0, 79, 75
2, 14892, Note_on_c, 0, 79, 0
2, 14892, Note_on_c, 0, 81, 75
2, 14904, Note_on_c, 0, 81, 0
2, 14904, Note_on_c, 0, 79, 75
2, 14969, Note_on_c, 0, 79, 0
2, 14976, Note_on_c, 0, 77, 75
2, 14999, Note_on_c, 0, 77, 0
2, 15000, Note_on_c, 0, 83, 75
2, 15023, Note_on_c, 0, 83, 0
2, 15024, Note_on_c, 0, 81, 75
2, 15047, Note_on_c, 0, 81, 0
2, 15048, Note_on_c, 0, 83, 75
2, 15071, Note_on_c, 0, 83, 0
2, 15072, Note_on_c, 0, 86, 75
2, 15095, Note_on_c, 0, 86, 0
2, 15096, Note_on_c, 0, 83, 75
2, 15119, Note_on_c, 0, 83, 0
2, 15120, Note_on_c, 0, 81, 75
2, 15143, Note_on_c, 0, 81, 0
2, 15144, Note_on_c, 0, 83, 75
2, 15167, Note_on_c, 0, 83, 0
2, 15168, Note_on_c, 0, 77, 75
2, 15180, Note_on_c, 0, 77, 0
2, 15180, Note_on_c, 0, 79, 75
2, 15192, Note_on_c, 0, 79, 0
2, 15192, Note_on_c, 0, 77, 75
2, 15257, Note_on_c, 0, 77, 0
2, 15264, Note_on_c, 0, 76, 75
2, 15309, Note_on_c, 0, 76, 0
2, 15312, Note_on_c, 0, 79, 75
2, 15401, Note_on_c, 0, 79, 0
2, 15408, Note_on_c, 0, 84, 77
2, 15497, Note_on_c, 0, 84, 0
2, 15504, Note_on_c, 0, 88, 79
2, 15597, Note_on_c, 0, 88, 0
2, 15600, Note_on_c, 0, 86, 80
2, 15645, Note_on_c, 0, 86, 0
2, 15648, Note_on_c, 0, 83, 79
2, 15671, Note_on_c, 0, 83, 0
2, 15672, Note_on_c, 0, 84, 78
2, 15695, Note_on_c, 0, 84, 0
2, 15696, Note_on_c, 0, 86, 78
2, 15719, Note_on_c, 0, 86, 0
2, 15720, Note_on_c, 0, 84, 77
2, 15743, Note_on_c, 0, 84, 0
2, 15744, Note_on_c, 0, 83, 77
2, 15767, Note_on_c, 0, 83, 0
2, 15768, Note_on_c, 0, 81, 76
2, 15791, Note_on_c, 0, 81, 0
2, 15792, Note_on_c, 0, 79, 76
2, 15815, Note_on_c, 0, 79, 0
2, 15816, Note_on_c, 0, 77, 75
2, 15839, Note_on_c, 0, 77, 0
2, 15840, Note_on_c, 0, 79, 75
2, 15852, Note_on_c, 0, 79, 0
2, 15852, Note_on_c, 0, 81, 75
2, 15864, Note_on_c, 0, 81, 0
2, 15864, Note_on_c, 0, 79, 75
2, 15907, Note_on_c, 0, 79, 0
2, 15912, Note_on_c, 0, 77, 75
2, 15935, Note_on_c, 0, 77, 0
2, 15936, Note_on_c, 0, 79, 75
2, 15948, Note_on_c, 0, 79, 0
2, 15948, Note_on_c, 0, 81, 75
2, 15960, Note_on_c, 0, 81, 0
2, 15960, Note_on_c, 0, 79, 75
2, 16003, Note_on_c, 0, 79, 0
2, 16008, Note_on_c, 0, 77, 75
2, 16031, Note_on_c, 0, 77, 0
2, 16032, Note_on_c, 0, 79, 75
2, 16044, Note_on_c, 0, 79, 0
2, 16044, Note_on_c, 0, 81, 75
2, 16056, Note_on_c, 0, 81, 0
2, 16056, Note_on_c, 0, 79, 75
2, 16099, Note_on_c, 0, 79, 0
2, 16104, Note_on_c, 0, 77, 75
2, 16127, Note_on_c, 0, 77, 0
2, 16128, Note_on_c, 0, 79, 75
2, 16128, Note_on_c, 0, 76, 75
2, 16152, Note_on_c, 0, 79, 0
2, 16152, Note_on_c, 0, 76, 0
2, 16152, Note_on_c, 0, 77, 75
2, 16152, Note_on_c, 0, 74, 75
2, 16175, Note_on_c, 0, 77, 0
2, 16175, Note_on_c, 0, 74, 0
2, 16176, Note_on_c, 0, 79, 75
2, 16176, Note_on_c, 0, 76, 75
2, 16200, Note_on_c, 0, 79, 0
2, 16200, Note_on_c, 0, 76, 0
2, 16200, Note_on_c, 0, 77, 75
2, 16200, Note_on_c, 0, 74, 75
2, 16223, Note_on_c, 0, 77, 0
2, 16223, Note_on_c, 0, 74, 0
2, 16224, Note_on_c, 0, 79, 75
2, 16224, Note_on_c, 0, 76, 75
2, 16248, Note_on_c, 0, 79, 0
2, 16248, Note_on_c, 0, 76, 0
2, 16248, Note_on_c, 0, 77, 75
2, 16248, Note_on_c, 0, 74, 75
2, 16271, Note_on_c, 0, 77, 0
2, 16271, Note_on_c, 0, 74, 0
2, 16272, Note_on_c, 0, 79, 75
2, 16272, Note_on_c, 0, 76, 75
2, 16296, Note_on_c, 0, 79, 0
2, 16296, Note_on_c, 0, 76, 0
2, 16296, Note_on_c, 0, 77, 75
2, 16296, Note_on_c, 0, 74, 75
2, 16319, Note_on_c, 0, 77, 0
2, 16319, Note_on_c, 0, 74, 0
2, 16320, Note_on_c, 0, 79, 75
2, 16320, Note_on_c, 0, 76, 75
2, 16365, Note_on_c, 0, 79, 0
2, 16365, Note_on_c, 0, 76, 0
2, 16368, Note_on_c, 0, 84, 75
2, 16368, Note_on_c, 0, 79, 75
2, 16413, Note_on_c, 0, 84, 0
2, 16413, Note_on_c, 0, 79, 0
2, 16416, Note_on_c, 0, 76, 75
2, 16416, Note_on_c, 0, 72, 75
2, 16439, Note_on_c, 0, 76, 0
2, 16439, Note_on_c, 0, 72, 0
2, 16440, Note_on_c, 0, 74, 75
2, 16440, Note_on_c, 0, 67, 75
2, 16463, Note_on_c, 0, 74, 0
2, 16463, Note_on_c, 0, 67, 0
2, 16464, Note_on_c, 0, 72, 75
2, 16464, Note_on_c, 0, 64, 75
2, 16487, Note_on_c, 0, 72, 0
2, 16487, Note_on_c, 0, 64, 0
2, 16488, Note_on_c, 0, 74, 75
2, 16488, Note_on_c, 0, 67, 75
2, 16511, Note_on_c, 0, 74, 0
2, 16511, Note_on_c, 0, 67, 0
2, 16512, Note_on_c, 0, 76, 75
2, 16512, Note_on_c, 0, 72, 75
2, 16535, Note_on_c, 0, 76, 0
2, 16535, Note_on_c, 0, 72, 0
2, 16536, Note_on_c, 0, 74, 75
2, 16536, Note_on_c, 0, 67, 75
2, 16559, Note_on_c, 0, 74, 0
2, 16559, Note_on_c, 0, 67, 0
2, 16560, Note_on_c, 0, 72, 75
2, 16560, Note_on_c, 0, 64, 75
2, 16583, Note_on_c, 0, 72, 0
2, 16583, Note_on_c, 0, 64, 0
2, 16584, Note_on_c, 0, 74, 75
2, 16584, Note_on_c, 0, 67, 75
2, 16607, Note_on_c, 0, 74, 0
2, 16607, Note_on_c, 0, 67, 0
2, 16608, Note_on_c, 0, 76, 75
2, 16608, Note_on_c, 0, 72, 75
2, 16631, Note_on_c, 0, 76, 0
2, 16631, Note_on_c, 0, 72, 0
2, 16632, Note_on_c, 0, 74, 75
2, 16632, Note_on_c, 0, 67, 75
2, 16655, Note_on_c, 0, 74, 0
2, 16655, Note_on_c, 0, 67, 0
2, 16656, Note_on_c, 0, 72, 75
2, 16656, Note_on_c, 0, 64, 75
2, 16679, Note_on_c, 0, 72, 0
2, 16679, Note_on_c, 0, 64, 0
2, 16680, Note_on_c, 0, 76, 75
2, 16680, Note_on_c, 0, 72, 75
2, 16703, Note_on_c, 0, 76, 0
2, 16703, Note_on_c, 0, 72, 0
2, 16704, Note_on_c, 0, 74, 75
2, 16716, Note_on_c, 0, 74, 0
2, 16716, Note_on_c, 0, 76, 75
2, 16728, Note_on_c, 0, 76, 0
2, 16728, Note_on_c, 0, 74, 75
2, 16881, Note_on_c, 0, 74, 0
2, 16896, Note_on_c, 0, 76, 75
2, 16941, Note_on_c, 0, 76, 0
2, 16944, Note_on_c, 0, 77, 75
2, 16989, Note_on_c, 0, 77, 0
2, 16992, Note_on_c, 0, 79, 75
2, 17015, Note_on_c, 0, 79, 0
2, 17016, Note_on_c, 0, 84, 75
2, 17039, Note_on_c, 0, 84, 0
2, 17040, Note_on_c, 0, 83, 75
2, 17063, Note_on_c, 0, 83, 0
2, 17064, Note_on_c, 0, 84, 75
2, 17087, Note_on_c, 0, 84, 0
2, 17088, Note_on_c, 0, 88, 75
2, 17111, Note_on_c, 0, 88, 0
2, 17112, Note_on_c, 0, 84, 75
2, 17135, Note_on_c, 0, 84, 0
2, 17136, Note_on_c, 0, 83, 75
2, 17159, Note_on_c, 0, 83, 0
2, 17160, Note_on_c, 0, 84, 75
2, 17183, Note_on_c, 0, 84, 0
2, 17184, Note_on_c, 0, 79, 75
2, 17196, Note_on_c, 0, 79, 0
2, 17196, Note_on_c, 0, 81, 75
2, 17208, Note_on_c, 0, 81, 0
2, 17208, Note_on_c, 0, 79, 75
2, 17273, Note_on_c, 0, 79, 0
2, 17280, Note_on_c, 0, 77, 75
2, 17303, Note_on_c, 0, 77, 0
2, 17304, Note_on_c, 0, 83, 75
2, 17327, Note_on_c, 0, 83, 0
2, 17328, Note_on_c, 0, 81, 75
2, 17351, Note_on_c, 0, 81, 0
2, 17352, Note_on_c, 0, 83, 75
2, 17375, Note_on_c, 0, 83, 0
2, 17376, Note_on_c, 0, 86, 75
2, 17399, Note_on_c, 0, 86, 0
2, 17400, Note_on_c, 0, 83, 75
2, 17423, Note_on_c, 0, 83, 0
2, 17424, Note_on_c, 0, 81, 75
2, 17447, Note_on_c, 0, 81, 0
2, 17448, Note_on_c, 0, 83, 75
2, 17471, Note_on_c, 0, 83, 0
2, 17472, Note_on_c, 0, 77, 75
2, 17484, Note_on_c, 0, 77, 0
2, 17484, Note_on_c, 0, 79, 75
2, 17496, Note_on_c, 0, 79, 0
2, 17496, Note_on_c, 0, 77, 75
2, 17561, Note_on_c, 0, 77, 0
2, 17568, Note_on_c, 0, 76, 75
2, 17613, Note_on_c, 0, 76, 0
2, 17616, Note_on_c, 0, 79, 75
2, 17705, Note_on_c, 0, 79, 0
2, 17712, Note_on_c, 0, 84, 77
2, 17801, Note_on_c, 0, 84, 0
2, 17808, Note_on_c, 0, 88, 79
2, 17901, Note_on_c, 0, 88, 0
2, 17904, Note_on_c, 0, 86, 80
2, 17949, Note_on_c, 0, 86, 0
2, 17952, Note_on_c, 0, 83, 79
2, 17975, Note_on_c, 0, 83, 0
2, 17976, Note_on_c, 0, 84, 78
2, 17999, Note_on_c, 0, 84, 0
2, 18000, Note_on_c, 0, 86, 78
2, 18023, Note_on_c, 0, 86, 0
2, 18024, Note_on_c, 0, 84, 77
2, 18047, Note_on_c, 0, 84, 0
2, 18048, Note_on_c, 0, 83, 77
2, 18071, Note_on_c, 0, 83, 0
2, 18072, Note_on_c, 0, 81, 76
2, 18095, Note_on_c, 0, 81, 0
2, 18096, Note_on_c, 0, 79, 76
2, 18119, Note_on_c, 0, 79, 0
2, 18120, Note_on_c, 0, 77, 75
2, 18143, Note_on_c, 0, 77, 0
2, 18144, Note_on_c, 0, 79, 75
2, 18156, Note_on_c, 0, 79, 0
2, 18156, Note_on_c, 0, 81, 75
2, 18168, Note_on_c, 0, 81, 0
2, 18168, Note_on_c, 0, 79, 75
2, 18211, Note_on_c, 0, 79, 0
2, 18216, Note_on_c, 0, 77, 75
2, 18239, Note_on_c, 0, 77, 0
2, 18240, Note_on_c, 0, 79, 75
2, 18252, Note_on_c, 0, 79, 0
2, 18252, Note_on_c, 0, 81, 75
2, 18264, Note_on_c, 0, 81, 0
2, 18264, Note_on_c, 0, 79, 75
2, 18307, Note_on_c, 0, 79, 0
2, 18312, Note_on_c, 0, 77, 75
2, 18335, Note_on_c, 0, 77, 0
2, 18336, Note_on_c, 0, 79, 75
2, 18348, Note_on_c, 0, 79, 0
2, 18348, Note_on_c, 0, 81, 75
2, 18360, Note_on_c, 0, 81, 0
2, 18360, Note_on_c, 0, 79, 75
2, 18403, Note_on_c, 0, 79, 0
2, 18408, Note_on_c, 0, 77, 75
2, 18431, Note_on_c, 0, 77, 0
2, 18432, Note_on_c, 0, 79, 75
2, 18432, Note_on_c, 0, 76, 75
2, 18456, Note_on_c, 0, 79, 0
2, 18456, Note_on_c, 0, 76, 0
2, 18456, Note_on_c, 0, 77, 75
2, 18456, Note_on_c, 0, 74, 75
2, 18479, Note_on_c, 0, 77, 0
2, 18479, Note_on_c, 0, 74, 0
2, 18480, Note_on_c, 0, 79, 75
2, 18480, Note_on_c, 0, 76, 75
2, 18504, Note_on_c, 0, 79, 0
2, 18504, Note_on_c, 0, 76, 0
2, 18504, Note_on_c, 0, 77, 75
2, 18504, Note_on_c, 0, 74, 75
2, 18527, Note_on_c, 0, 77, 0
2, 18527, Note_on_c, 0, 74, 0
2, 18528, Note_on_c, 0, 79, 75
2, 18528, Note_on_c, 0, 76, 75
2, 18552, Note_on_c, 0, 79, 0
2, 18552, Note_on_c, 0, 76, 0
2, 18552, Note_on_c, 0, 77, 75
2, 18552, Note_on_c, 0, 74, 75
2, 18575, Note_on_c, 0, 77, 0
2, 18575, Note_on_c, 0, 74, 0
2, 18576, Note_on_c, 0, 79, 75
2, 18576, Note_on_c, 0, 76, 75
2, 18600, Note_on_c, 0, 79, 0
2, 18600, Note_on_c, 0, 76, 0
2, 18600, Note_on_c, 0, 77, 75
2, 18600, Note_on_c, 0, 74, 75
2, 18623, Note_on_c, 0, 77, 0
2, 18623, Note_on_c, 0, 74, 0
2, 18624, Note_on_c, 0, 79, 75
2, 18624, Note_on_c, 0, 76, 75
2, 18669, Note_on_c, 0, 79, 0
2, 18669, Note_on_c, 0, 76, 0
2, 18672, Note_on_c, 0, 84, 75
2, 18672, Note_on_c, 0, 79, 75
2, 18717, Note_on_c, 0, 84, 0
2, 18717, Note_on_c, 0, 79, 0
2, 18720, Note_on_c, 0, 76, 75
2, 18720, Note_on_c, 0, 72, 75
2, 18743, Note_on_c, 0, 76, 0
2, 18743, Note_on_c, 0, 72, 0
2, 18744, Note_on_c, 0, 74, 75
2, 18744, Note_on_c, 0, 67, 75
2, 18767, Note_on_c, 0, 74, 0
2, 18767, Note_on_c, 0, 67, 0
2, 18768, Note_on_c, 0, 72, 75
2, 18768, Note_on_c, 0, 64, 75
2, 18791, Note_on_c, 0, 72, 0
2, 18791, Note_on_c, 0, 64, 0
2, 18792, Note_on_c, 0, 74, 75
2, 18792, Note_on_c, 0, 67, 75
2, 18815, Note_on_c, 0, 74, 0
2, 18815, Note_on_c, 0, 67, 0
2, 18816, Note_on_c, 0, 76, 75
2, 18816, Note_on_c, 0, 72, 75
2, 18839, Note_on_c, 0, 76, 0
2, 18839, Note_on_c, 0, 72, 0
2, 18840, Note_on_c, 0, 74, 75
2, 18840, Note_on_c, 0, 67, 75
2, 18863, Note_on_c, 0, 74, 0
2, 18863, Note_on_c, 0, 67, 0
2, 18864, Note_on_c, 0, 72, 75
2, 18864, Note_on_c, 0, 64, 75
2, 18887, Note_on_c, 0, 72, 0
2, 18887, Note_on_c, 0, 64, 0
2, 18888, Note_on_c, 0, 74, 75
2, 18888, Note_on_c, 0, 67, 75
2, 18911, Note_on_c, 0, 74, 0
2, 18911, Note_on_c, 0, 67, 0
2, 18912, Note_on_c, 0, 76, 75
2, 18912, Note_on_c, 0, 72, 75
2, 18935, Note_on_c, 0, 76, 0
2, 18935, Note_on_c, 0, 72, 0
2, 18936, Note_on_c, 0, 74, 75
2, 18936, Note_on_c, 0, 67, 75
2, 18959, Note_on_c, 0, 74, 0
2, 18959, Note_on_c, 0, 67, 0
2, 18960, Note_on_c, 0, 72, 75
2, 18960, Note_on_c, 0, 64, 75
2, 18983, Note_on_c, 0, 72, 0
2, 18983, Note_on_c, 0, 64, 0
2, 18984, Note_on_c, 0, 76, 75
2, 18984, Note_on_c, 0, 72, 75
2, 19007, Note_on_c, 0, 76, 0
2, 19007, Note_on_c, 0, 72, 0
2, 19008, Note_on_c, 0, 74, 75
2, 19020, Note_on_c, 0, 74, 0
2, 19020, Note_on_c, 0, 76, 75
2, 19032, Note_on_c, 0, 76, 0
2, 19032, Note_on_c, 0, 74, 75
2, 19185, Note_on_c, 0, 74, 0
2, 19296, Note_on_c, 0, 59, 75
2, 19319, Note_on_c, 0, 59, 0
2, 19320, Note_on_c, 0, 57, 75
2, 19343, Note_on_c, 0, 57, 0
2, 19344, Note_on_c, 0, 55, 75
2, 19367, Note_on_c, 0, 55, 0
2, 19368, Note_on_c, 0, 57, 75
2, 19391, Note_on_c, 0, 57, 0
2, 19392, Note_on_c, 0, 59, 75
2, 19415, Note_on_c, 0, 59, 0
2, 19416, Note_on_c, 0, 57, 75
2, 19439, Note_on_c, 0, 57, 0
2, 19440, Note_on_c, 0, 55, 75
2, 19463, Note_on_c, 0, 55, 0
2, 19464, Note_on_c, 0, 57, 75
2, 19487, Note_on_c, 0, 57, 0
2, 19488, Note_on_c, 0, 59, 75
2, 19511, Note_on_c, 0, 59, 0
2, 19512, Note_on_c, 0, 57, 75
2, 19535, Note_on_c, 0, 57, 0
2, 19536, Note_on_c, 0, 55, 75
2, 19559, Note_on_c, 0, 55, 0
2, 19560, Note_on_c, 0, 57, 75
2, 19583, Note_on_c, 0, 57, 0
2, 19584, Note_on_c, 0, 59, 75
2, 19608, Note_on_c, 0, 59, 0
2, 19608, Note_on_c, 0, 62, 75
2, 19675, Note_on_c, 0, 62, 0
2, 19680, Note_on_c, 0, 59, 76
2, 19704, Note_on_c, 0, 59, 0
2, 19704, Note_on_c, 0, 62, 77
2, 19771, Note_on_c, 0, 62, 0
2, 19776, Note_on_c, 0, 60, 94
2, 19872, Note_on_c, 0, 60, 0
2, 19872, Note_on_c, 0, 65, 75
2, 19895, Note_on_c, 0, 65, 0
2, 19896, Note_on_c, 0, 64, 75
2, 19919, Note_on_c, 0, 64, 0
2, 19920, Note_on_c, 0, 62, 75
2, 19943, Note_on_c, 0, 62, 0
2, 19944, Note_on_c, 0, 64, 75
2, 19967, Note_on_c, 0, 64, 0
2, 19968, Note_on_c, 0, 65, 75
2, 19991, Note_on_c, 0, 65, 0
2, 19992, Note_on_c, 0, 64, 75
2, 20015, Note_on_c, 0, 64, 0
2, 20016, Note_on_c, 0, 62, 75
2, 20039, Note_on_c, 0, 62, 0
2, 20040, Note_on_c, 0, 64, 75
2, 20063, Note_on_c, 0, 64, 0
2, 20064, Note_on_c, 0, 65, 75
2, 20087, Note_on_c, 0, 65, 0
2, 20088, Note_on_c, 0, 64, 75
2, 20111, Note_on_c, 0, 64, 0
2, 20112, Note_on_c, 0, 62, 75
2, 20135, Note_on_c, 0, 62, 0
2, 20136, Note_on_c, 0, 64, 75
2, 20159, Note_on_c, 0, 64, 0
2, 20160, Note_on_c, 0, 65, 75
2, 20184, Note_on_c, 0, 65, 0
2, 20184, Note_on_c, 0, 69, 75
2, 20251, Note_on_c, 0, 69, 0
2, 20256, Note_on_c, 0, 68, 77
2, 20280, Note_on_c, 0, 68, 0
2, 20280, Note_on_c, 0, 71, 78
2, 20347, Note_on_c, 0, 71, 0
2, 20352, Note_on_c, 0, 69, 96
2, 20448, Note_on_c, 0, 69, 0
2, 20448, Note_on_c, 0, 70, 75
2, 20496, Note_on_c, 0, 70, 0
2, 20496, Note_on_c, 0, 77, 75
2, 20541, Note_on_c, 0, 77, 0
2, 20544, Note_on_c, 0, 74, 75
2, 20589, Note_on_c, 0, 74, 0
2, 20592, Note_on_c, 0, 70, 75
2, 20637, Note_on_c, 0, 70, 0
2, 20640, Note_on_c, 0, 68, 75
2, 20688, Note_on_c, 0, 68, 0
2, 20688, Note_on_c, 0, 71, 75
2, 20733, Note_on_c, 0, 71, 0
2, 20736, Note_on_c, 0, 69, 75
2, 20784, Note_on_c, 0, 69, 0
2, 20784, Note_on_c, 0, 81, 75
2, 20829, Note_on_c, 0, 81, 0
2, 20832, Note_on_c, 0, 76, 76
2, 20877, Note_on_c, 0, 76, 0
2, 20880, Note_on_c, 0, 72, 77
2, 20925, Note_on_c, 0, 72, 0
2, 20928, Note_on_c, 0, 71, 78
2, 20973, Note_on_c, 0, 71, 0
2, 20976, Note_on_c, 0, 69, 79
2, 21021, Note_on_c, 0, 69, 0
2, 21024, Note_on_c, 0, 75, 80
2, 21063, Note_on_c, 0, 75, 0
2, 21120, Note_on_c, 0, 76, 80
2, 21159, Note_on_c, 0, 76, 0
2, 21216, Note_on_c, 0, 64, 80
2, 21255, Note_on_c, 0, 64, 0
2, 21312, Note_on_c, 0, 57, 80
2, 21401, Note_on_c, 0, 57, 0
2, 21528, Note_on_c, 0, 69, 80
2, 21551, Note_on_c, 0, 69, 0
2, 21552, Note_on_c, 0, 71, 80
2, 21575, Note_on_c, 0, 71, 0
2, 21576, Note_on_c, 0, 72, 80
2, 21599, Note_on_c, 0, 72, 0
2, 21600, Note_on_c, 0, 72, 80
2, 21610, Note_on_c, 0, 72, 0
2, 21624, Note_on_c, 0, 72, 80
2, 21647, Note_on_c, 0, 72, 0
2, 21648, Note_on_c, 0, 71, 80
2, 21671, Note_on_c, 0, 71, 0
2, 21672, Note_on_c, 0, 72, 80
2, 21695, Note_on_c, 0, 72, 0
2, 21696, Note_on_c, 0, 74, 80
2, 21719, Note_on_c, 0, 74, 0
2, 21720, Note_on_c, 0, 72, 80
2, 21743, Note_on_c, 0, 72, 0
2, 21744, Note_on_c, 0, 71, 80
2, 21767, Note_on_c, 0, 71, 0
2, 21768, Note_on_c, 0, 72, 80
2, 21791, Note_on_c, 0, 72, 0
2, 21792, Note_on_c, 0, 81, 80
2, 21831, Note_on_c, 0, 81, 0
2, 21888, Note_on_c, 0, 71, 80
2, 21898, Note_on_c, 0, 71, 0
2, 21912, Note_on_c, 0, 74, 80
2, 21935, Note_on_c, 0, 74, 0
2, 21936, Note_on_c, 0, 72, 80
2, 21959, Note_on_c, 0, 72, 0
2, 21960, Note_on_c, 0, 74, 80
2, 21983, Note_on_c, 0, 74, 0
2, 21984, Note_on_c, 0, 79, 80
2, 22007, Note_on_c, 0, 79, 0
2, 22008, Note_on_c, 0, 71, 80
2, 22031, Note_on_c, 0, 71, 0
2, 22032, Note_on_c, 0, 74, 80
2, 22055, Note_on_c, 0, 74, 0
2, 22056, Note_on_c, 0, 79, 80
2, 22079, Note_on_c, 0, 79, 0
2, 22080, Note_on_c, 0, 83, 80
2, 22119, Note_on_c, 0, 83, 0
2, 22176, Note_on_c, 0, 64, 70
2, 22196, Note_on_c, 0, 64, 0
2, 22224, Note_on_c, 0, 67, 86
2, 22320, Note_on_c, 0, 67, 0
2, 22320, Note_on_c, 0, 72, 70
2, 22409, Note_on_c, 0, 72, 0
2, 22416, Note_on_c, 0, 76, 70
2, 22461, Note_on_c, 0, 76, 0
2, 22464, Note_on_c, 0, 74, 70
2, 22487, Note_on_c, 0, 74, 0
2, 22488, Note_on_c, 0, 72, 71
2, 22511, Note_on_c, 0, 72, 0
2, 22512, Note_on_c, 0, 71, 72
2, 22535, Note_on_c, 0, 71, 0
2, 22536, Note_on_c, 0, 72, 73
2, 22559, Note_on_c, 0, 72, 0
2, 22560, Note_on_c, 0, 74, 74
2, 22583, Note_on_c, 0, 74, 0
2, 22584, Note_on_c, 0, 72, 75
2, 22607, Note_on_c, 0, 72, 0
2, 22608, Note_on_c, 0, 71, 74
2, 22631, Note_on_c, 0, 71, 0
2, 22632, Note_on_c, 0, 69, 73
2, 22655, Note_on_c, 0, 69, 0
2, 22656, Note_on_c, 0, 67, 72
2, 22679, Note_on_c, 0, 67, 0
2, 22680, Note_on_c, 0, 65, 72
2, 22703, Note_on_c, 0, 65, 0
2, 22704, Note_on_c, 0, 64, 71
2, 22727, Note_on_c, 0, 64, 0
2, 22728, Note_on_c, 0, 62, 70
2, 22751, Note_on_c, 0, 62, 0
2, 22752, Note_on_c, 0, 67, 70
2, 22764, Note_on_c, 0, 67, 0
2, 22764, Note_on_c, 0, 69, 70
2, 22776, Note_on_c, 0, 69, 0
2, 22776, Note_on_c, 0, 67, 70
2, 22819, Note_on_c, 0, 67, 0
2, 22824, Note_on_c, 0, 69, 70
2, 22847, Note_on_c, 0, 69, 0
2, 22848, Note_on_c, 0, 67, 71
2, 22860, Note_on_c, 0, 67, 0
2, 22860, Note_on_c, 0, 69, 71
2, 22872, Note_on_c, 0, 69, 0
2, 22872, Note_on_c, 0, 67, 71
2, 22915, Note_on_c, 0, 67, 0
2, 22920, Note_on_c, 0, 69, 71
2, 22943, Note_on_c, 0, 69, 0
2, 22944, Note_on_c, 0, 67, 72
2, 22956, Note_on_c, 0, 67, 0
2, 22956, Note_on_c, 0, 69, 72
2, 22968, Note_on_c, 0, 69, 0
2, 22968, Note_on_c, 0, 67, 72
2, 23011, Note_on_c, 0, 67, 0
2, 23016, Note_on_c, 0, 70, 73
2, 23039, Note_on_c, 0, 70, 0
2, 23040, Note_on_c, 0, 69, 73
2, 23052, Note_on_c, 0, 69, 0
2, 23052, Note_on_c, 0, 71, 73
2, 23064, Note_on_c, 0, 71, 0
2, 23064, Note_on_c, 0, 69, 73
2, 23107, Note_on_c, 0, 69, 0
2, 23112, Note_on_c, 0, 70, 74
2, 23135, Note_on_c, 0, 70, 0
2, 23136, Note_on_c, 0, 69, 74
2, 23148, Note_on_c, 0, 69, 0
2, 23148, Note_on_c, 0, 71, 74
2, 23160, Note_on_c, 0, 71, 0
2, 23160, Note_on_c, 0, 69, 74
2, 23203, Note_on_c, 0, 69, 0
2, 23208, Note_on_c, 0, 70, 75
2, 23231, Note_on_c, 0, 70, 0
2, 23232, Note_on_c, 0, 69, 75
2, 23244, Note_on_c, 0, 69, 0
2, 23244, Note_on_c, 0, 71, 75
2, 23256, Note_on_c, 0, 71, 0
2, 23256, Note_on_c, 0, 69, 75
2, 23299, Note_on_c, 0, 69, 0
2, 23304, Note_on_c, 0, 72, 76
2, 23327, Note_on_c, 0, 72, 0
2, 23328, Note_on_c, 0, 71, 76
2, 23340, Note_on_c, 0, 71, 0
2, 23340, Note_on_c, 0, 72, 76
2, 23352, Note_on_c, 0, 72, 0
2, 23352, Note_on_c, 0, 71, 76
2, 23395, Note_on_c, 0, 71, 0
2, 23400, Note_on_c, 0, 74, 77
2, 23400, Note_on_c, 0, 71, 77
2, 23400, Note_on_c, 0, 65, 77
2, 23423, Note_on_c, 0, 74, 0
2, 23423, Note_on_c, 0, 71, 0
2, 23423, Note_on_c, 0, 65, 0
2, 23424, Note_on_c, 0, 72, 77
2, 23436, Note_on_c, 0, 72, 0
2, 23436, Note_on_c, 0, 74, 77
2, 23448, Note_on_c, 0, 74, 0
2, 23448, Note_on_c, 0, 72, 77
2, 23491, Note_on_c, 0, 72, 0
2, 23496, Note_on_c, 0, 76, 78
2, 23496, Note_on_c, 0, 72, 78
2, 23496, Note_on_c, 0, 64, 78
2, 23519, Note_on_c, 0, 76, 0
2, 23519, Note_on_c, 0, 72, 0
2, 23519, Note_on_c, 0, 64, 0
2, 23520, Note_on_c, 0, 74, 78
2, 23532, Note_on_c, 0, 74, 0
2, 23532, Note_on_c, 0, 76, 78
2, 23544, Note_on_c, 0, 76, 0
2, 23544, Note_on_c, 0, 74, 78
2, 23587, Note_on_c, 0, 74, 0
2, 23592, Note_on_c, 0, 77, 79
2, 23592, Note_on_c, 0, 71, 79
2, 23592, Note_on_c, 0, 62, 79
2, 23615, Note_on_c, 0, 77, 0
2, 23615, Note_on_c, 0, 71, 0
2, 23615, Note_on_c, 0, 62, 0
2, 23616, Note_on_c, 0, 64, 80
2, 23622, Note_on_c, 0, 64, 0
2, 23622, Note_on_c, 0, 65, 80
2, 23628, Note_on_c, 0, 65, 0
2, 23628, Note_on_c, 0, 64, 80
2, 23646, Note_on_c, 0, 64, 0
2, 23648, Note_on_c, 0, 62, 79
2, 23678, Note_on_c, 0, 62, 0
2, 23680, Note_on_c, 0, 60, 78
2, 23710, Note_on_c, 0, 60, 0
2, 23712, Note_on_c, 0, 64, 78
2, 23718, Note_on_c, 0, 64, 0
2, 23718, Note_on_c, 0, 65, 78
2, 23724, Note_on_c, 0, 65, 0
2, 23724, Note_on_c, 0, 64, 78
2, 23742, Note_on_c, 0, 64, 0
2, 23744, Note_on_c, 0, 62, 77
2, 23774, Note_on_c, 0, 62, 0
2, 23776, Note_on_c, 0, 60, 77
2, 23806, Note_on_c, 0, 60, 0
2, 23808, Note_on_c, 0, 64, 76
2, 23814, Note_on_c, 0, 64, 0
2, 23814, Note_on_c, 0, 65, 76
2, 23820, Note_on_c, 0, 65, 0
2, 23820, Note_on_c, 0, 64, 76
2, 23838, Note_on_c, 0, 64, 0
2, 23840, Note_on_c, 0, 62, 76
2, 23870, Note_on_c, 0, 62, 0
2, 23872, Note_on_c, 0, 60, 75
2, 23902, Note_on_c, 0, 60, 0
2, 23904, Note_on_c, 0, 67, 75
2, 23904, Note_on_c, 0, 59, 75
2, 24081, Note_on_c, 0, 67, 0
2, 24081, Note_on_c, 0, 59, 0
2, 24192, Note_on_c, 0, 59, 75
2, 24215, Note_on_c, 0, 59, 0
2, 24216, Note_on_c, 0, 57, 75
2, 24239, Note_on_c, 0, 57, 0
2, 24240, Note_on_c, 0, 55, 75
2, 24263, Note_on_c, 0, 55, 0
2, 24264, Note_on_c, 0, 57, 75
2, 24287, Note_on_c, 0, 57, 0
2, 24288, Note_on_c, 0, 59, 75
2, 24311, Note_on_c, 0, 59, 0
2, 24312, Note_on_c, 0, 57, 75
2, 24335, Note_on_c, 0, 57, 0
2, 24336, Note_on_c, 0, 55, 75
2, 24359, Note_on_c, 0, 55, 0
2, 24360, Note_on_c, 0, 57, 75
2, 24383, Note_on_c, 0, 57, 0
2, 24384, Note_on_c, 0, 59, 75
2, 24407, Note_on_c, 0, 59, 0
2, 24408, Note_on_c, 0, 57, 75
2, 24431, Note_on_c, 0, 57, 0
2, 24432, Note_on_c, 0, 55, 75
2, 24455, Note_on_c, 0, 55, 0
2, 24456, Note_on_c, 0, 57, 75
2, 24479, Note_on_c, 0, 57, 0
2, 24480, Note_on_c, 0, 59, 75
2, 24504, Note_on_c, 0, 59, 0
2, 24504, Note_on_c, 0, 62, 75
2, 24571, Note_on_c, 0, 62, 0
2, 24576, Note_on_c, 0, 59, 76
2, 24600, Note_on_c, 0, 59, 0
2, 24600, Note_on_c, 0, 62, 77
2, 24667, Note_on_c, 0, 62, 0
2, 24672, Note_on_c, 0, 60, 94
2, 24768, Note_on_c, 0, 60, 0
2, 24768, Note_on_c, 0, 65, 75
2, 24791, Note_on_c, 0, 65, 0
2, 24792, Note_on_c, 0, 64, 75
2, 24815, Note_on_c, 0, 64, 0
2, 24816, Note_on_c, 0, 62, 75
2, 24839, Note_on_c, 0, 62, 0
2, 24840, Note_on_c, 0, 64, 75
2, 24863, Note_on_c, 0, 64, 0
2, 24864, Note_on_c, 0, 65, 75
2, 24887, Note_on_c, 0, 65, 0
2, 24888, Note_on_c, 0, 64, 75
2, 24911, Note_on_c, 0, 64, 0
2, 24912, Note_on_c, 0, 62, 75
2, 24935, Note_on_c, 0, 62, 0
2, 24936, Note_on_c, 0, 64, 75
2, 24959, Note_on_c, 0, 64, 0
2, 24960, Note_on_c, 0, 65, 75
2, 24983, Note_on_c, 0, 65, 0
2, 24984, Note_on_c, 0, 64, 75
2, 25007, Note_on_c, 0, 64, 0
2, 25008, Note_on_c, 0, 62, 75
2, 25031, Note_on_c, 0, 62, 0
2, 25032, Note_on_c, 0, 64, 75
2, 25055, Note_on_c, 0, 64, 0
2, 25056, Note_on_c, 0, 65, 75
2, 25080, Note_on_c, 0, 65, 0
2, 25080, Note_on_c, 0, 69, 75
2, 25147, Note_on_c, 0, 69, 0
2, 25152, Note_on_c, 0, 68, 77
2, 25176, Note_on_c, 0, 68, 0
2, 25176, Note_on_c, 0, 71, 78
2, 25243, Note_on_c, 0, 71, 0
2, 25248, Note_on_c, 0, 69, 96
2, 25344, Note_on_c, 0, 69, 0
2, 25344, Note_on_c, 0, 70, 75
2, 25392, Note_on_c, 0, 70, 0
2, 25392, Note_on_c, 0, 77, 75
2, 25437, Note_on_c, 0, 77, 0
2, 25440, Note_on_c, 0, 74, 75
2, 25485, Note_on_c, 0, 74, 0
2, 25488, Note_on_c, 0, 70, 75
2, 25533, Note_on_c, 0, 70, 0
2, 25536, Note_on_c, 0, 68, 75
2, 25584, Note_on_c, 0, 68, 0
2, 25584, Note_on_c, 0, 71, 75
2, 25629, Note_on_c, 0, 71, 0
2, 25632, Note_on_c, 0, 69, 75
2, 25680, Note_on_c, 0, 69, 0
2, 25680, Note_on_c, 0, 81, 75
2, 25725, Note_on_c, 0, 81, 0
2, 25728, Note_on_c, 0, 76, 76
2, 25773, Note_on_c, 0, 76, 0
2, 25776, Note_on_c, 0, 72, 77
2, 25821, Note_on_c, 0, 72, 0
2, 25824, Note_on_c, 0, 71, 78
2, 25869, Note_on_c, 0, 71, 0
2, 25872, Note_on_c, 0, 69, 79
2, 25917, Note_on_c, 0, 69, 0
2, 25920, Note_on_c, 0, 75, 80
2, 25959, Note_on_c, 0, 75, 0
2, 26016, Note_on_c, 0, 76, 80
2, 26055, Note_on_c, 0, 76, 0
2, 26112, Note_on_c, 0, 64, 80
2, 26151, Note_on_c, 0, 64, 0
2, 26208, Note_on_c, 0, 57, 80
2, 26297, Note_on_c, 0, 57, 0
2, 26424, Note_on_c, 0, 69, 80
2, 26447, Note_on_c, 0, 69, 0
2, 26448, Note_on_c, 0, 71, 80
2, 26471, Note_on_c, 0, 71, 0
2, 26472, Note_on_c, 0, 72, 80
2, 26495, Note_on_c, 0, 72, 0
2, 26496, Note_on_c, 0, 72, 80
2, 26506, Note_on_c, 0, 72, 0
2, 26520, Note_on_c, 0, 72, 80
2, 26543, Note_on_c, 0, 72, 0
2, 26544, Note_on_c, 0, 71, 80
2, 26567, Note_on_c, 0, 71, 0
2, 26568, Note_on_c, 0, 72, 80
2, 26591, Note_on_c, 0, 72, 0
2, 26592, Note_on_c, 0, 74, 80
2, 26615, Note_on_c, 0, 74, 0
2, 26616, Note_on_c, 0, 72, 80
2, 26639, Note_on_c, 0, 72, 0
2, 26640, Note_on_c, 0, 71, 80
2, 26663, Note_on_c, 0, 71, 0
2, 26664, Note_on_c, 0, 72, 80
2, 26687, Note_on_c, 0, 72, 0
2, 26688, Note_on_c, 0, 81, 80
2, 26727, Note_on_c, 0, 81, 0
2, 26784, Note_on_c, 0, 71, 80
2, 26794, Note_on_c, 0, 71, 0
2, 26808, Note_on_c, 0, 74, 80
2, 26831, Note_on_c, 0, 74, 0
2, 26832, Note_on_c, 0, 72, 80
2, 26855, Note_on_c, 0, 72, 0
2, 26856, Note_on_c, 0, 74, 80
2, 26879, Note_on_c, 0, 74, 0
2, 26880, Note_on_c, 0, 79, 80
2, 26903, Note_on_c, 0, 79, 0
2, 26904, Note_on_c, 0, 71, 80
2, 26927, Note_on_c, 0, 71, 0
2, 26928, Note_on_c, 0, 74, 80
2, 26951, Note_on_c, 0, 74, 0
2, 26952, Note_on_c, 0, 79, 80
2, 26975, Note_on_c, 0, 79, 0
2, 26976, Note_on_c, 0, 83, 80
2, 27015, Note_on_c, 0, 83, 0
2, 27072, Note_on_c, 0, 64, 70
2, 27092, Note_on_c, 0, 64, 0
2, 27120, Note_on_c, 0, 67, 86
2, 27216, Note_on_c, 0, 67, 0
2, 27216, Note_on_c, 0, 72, 70
2, 27305, Note_on_c, 0, 72, 0
2, 27312, Note_on_c, 0, 76, 70
2, 27357, Note_on_c, 0, 76, 0
2, 27360, Note_on_c, 0, 74, 70
2, 27383, Note_on_c, 0, 74, 0
2, 27384, Note_on_c, 0, 72, 71
2, 27407, Note_on_c, 0, 72, 0
2, 27408, Note_on_c, 0, 71, 72
2, 27431, Note_on_c, 0, 71, 0
2, 27432, Note_on_c, 0, 72, 73
2, 27455, Note_on_c, 0, 72, 0
2, 27456, Note_on_c, 0, 74, 74
2, 27479, Note_on_c, 0, 74, 0
2, 27480, Note_on_c, 0, 72, 75
2, 27503, Note_on_c, 0, 72, 0
2, 27504, Note_on_c, 0, 71, 74
2, 27527, Note_on_c, 0, 71, 0
2, 27528, Note_on_c, 0, 69, 73
2, 27551, Note_on_c, 0, 69, 0
2, 27552, Note_on_c, 0, 67, 72
2, 27575, Note_on_c, 0, 67, 0
2, 27576, Note_on_c, 0, 65, 72
2, 27599, Note_on_c, 0, 65, 0
2, 27600, Note_on_c, 0, 64, 71
2, 27623, Note_on_c, 0, 64, 0
2, 27624, Note_on_c, 0, 62, 70
2, 27647, Note_on_c, 0, 62, 0
2, 27648, Note_on_c, 0, 67, 70
2, 27660, Note_on_c, 0, 67, 0
2, 27660, Note_on_c, 0, 69, 70
2, 27672, Note_on_c, 0, 69, 0
2, 27672, Note_on_c, 0, 67, 70
2, 27715, Note_on_c, 0, 67, 0
2, 27720, Note_on_c, 0, 69, 70
2, 27743, Note_on_c, 0, 69, 0
2, 27744, Note_on_c, 0, 67, 71
2, 27756, Note_on_c, 0, 67, 0
2, 27756, Note_on_c, 0, 69, 71
2, 27768, Note_on_c, 0, 69, 0
2, 27768, Note_on_c, 0, 67, 71
2, 27811, Note_on_c, 0, 67, 0
2, 27816, Note_on_c, 0, 69, 71
2, 27839, Note_on_c, 0, 69, 0
2, 27840, Note_on_c, 0, 67, 72
2, 27852, Note_on_c, 0, 67, 0
2, 27852, Note_on_c, 0, 69, 72
2, 27864, Note_on_c, 0, 69, 0
2, 27864, Note_on_c, 0, 67, 72
2, 27907, Note_on_c, 0, 67, 0
2, 27912, Note_on_c, 0, 70, 73
2, 27935, Note_on_c, 0, 70, 0
2, 27936, Note_on_c, 0, 69, 73
2, 27948, Note_on_c, 0, 69, 0
2, 27948, Note_on_c, 0, 71, 73
2, 27960, Note_on_c, 0, 71, 0
2, 27960, Note_on_c, 0, 69, 73
2, 28003, Note_on_c, 0, 69, 0
2, 28008, Note_on_c, 0, 70, 74
2, 28031, Note_on_c, 0, 70, 0
2, 28032, Note_on_c, 0, 69, 74
2, 28044, Note_on_c, 0, 69, 0
2, 28044, Note_on_c, 0, 71, 74
2, 28056, Note_on_c, 0, 71, 0
2, 28056, Note_on_c, 0, 69, 74
2, 28099, Note_on_c, 0, 69, 0
2, 28104, Note_on_c, 0, 70, 75
2, 28127, Note_on_c, 0, 70, 0
2, 28128, Note_on_c, 0, 69, 75
2, 28140, Note_on_c, 0, 69, 0
2, 28140, Note_on_c, 0, 71, 75
2, 28152, Note_on_c, 0, 71, 0
2, 28152, Note_on_c, 0, 69, 75
2, 28195, Note_on_c, 0, 69, 0
2, 28200, Note_on_c, 0, 72, 76
2, 28223, Note_on_c, 0, 72, 0
2, 28224, Note_on_c, 0, 71, 76
2, 28236, Note_on_c, 0, 71, 0
2, 28236, Note_on_c, 0, 72, 76
2, 28248, Note_on_c, 0, 72, 0
2, 28248, Note_on_c, 0, 71, 76
2, 28291, Note_on_c, 0, 71, 0
2, 28296, Note_on_c, 0, 74, 77
2, 28296, Note_on_c, 0, 71, 77
2, 28296, Note_on_c, 0, 65, 77
2, 28319, Note_on_c, 0, 74, 0
2, 28319, Note_on_c, 0, 71, 0
2, 28319, Note_on_c, 0, 65, 0
2, 28320, Note_on_c, 0, 72, 77
2, 28332, Note_on_c, 0, 72, 0
2, 28332, Note_on_c, 0, 74, 77
2, 28344, Note_on_c, 0, 74, 0
2, 28344, Note_on_c, 0, 72, 77
2, 28387, Note_on_c, 0, 72, 0
2, 28392, Note_on_c, 0, 76, 78
2, 28392, Note_on_c, 0, 72, 78
2, 28392, Note_on_c, 0, 64, 78
2, 28415, Note_on_c, 0, 76, 0
2, 28415, Note_on_c, 0, 72, 0
2, 28415, Note_on_c, 0, 64, 0
2, 28416, Note_on_c, 0, 74, 78
2, 28428, Note_on_c, 0, 74, 0
2, 28428, Note_on_c, 0, 76, 78
2, 28440, Note_on_c, 0, 76, 0
2, 28440, Note_on_c, 0, 74, 78
2, 28483, Note_on_c, 0, 74, 0
2, 28488, Note_on_c, 0, 77, 79
2, 28488, Note_on_c, 0, 71, 79
2, 28488, Note_on_c, 0, 62, 79
2, 28511, Note_on_c, 0, 77, 0
2, 28511, Note_on_c, 0, 71, 0
2, 28511, Note_on_c, 0, 62, 0
2, 28512, Note_on_c, 0, 64, 80
2, 28518, Note_on_c, 0, 64, 0
2, 28518, Note_on_c, 0, 65, 80
2, 28524, Note_on_c, 0, 65, 0
2, 28524, Note_on_c, 0, 64, 80
2, 28542, Note_on_c, 0, 64, 0
2, 28544, Note_on_c, 0, 62, 79
2, 28574, Note_on_c, 0, 62, 0
2, 28576, Note_on_c, 0, 60, 78
2, 28606, Note_on_c, 0, 60, 0
2, 28608, Note_on_c, 0, 64, 78
2, 28614, Note_on_c, 0, 64, 0
2, 28614, Note_on_c, 0, 65, 78
2, 28620, Note_on_c, 0, 65, 0
2, 28620, Note_on_c, 0, 64, 78
2, 28638, Note_on_c, 0, 64, 0
2, 28640, Note_on_c, 0, 62, 77
2, 28670, Note_on_c, 0, 62, 0
2, 28672, Note_on_c, 0, 60, 77
2, 28702, Note_on_c, 0, 60, 0
2, 28704, Note_on_c, 0, 64, 76
2, 28710, Note_on_c, 0, 64, 0
2, 28710, Note_on_c, 0, 65, 76
2, 28716, Note_on_c, 0, 65, 0
2, 28716, Note_on_c, 0, 64, 76
2, 28734, Note_on_c, 0, 64, 0
2, 28736, Note_on_c, 0, 62, 76
2, 28766, Note_on_c, 0, 62, 0
2, 28768, Note_on_c, 0, 60, 75
2, 28798, Note_on_c, 0, 60, 0
2, 28800, Note_on_c, 0, 67, 75
2, 28800, Note_on_c, 0, 59, 75
2, 28955, Note_on_c, 0, 67, 0
2, 28955, Note_on_c, 0, 59, 0
2, 28992, Note_on_c, 0, 72, 91
2, 28992, Note_on_c, 0, 63, 91
2, 29031, Note_on_c, 0, 72, 0
2, 29031, Note_on_c, 0, 63, 0
2, 29088, Note_on_c, 0, 71, 91
2, 29088, Note_on_c, 0, 65, 91
2, 29127, Note_on_c, 0, 71, 0
2, 29127, Note_on_c, 0, 65, 0
2, 29184, Note_on_c, 0, 72, 76
2, 29184, Note_on_c, 0, 67, 76
2, 29223, Note_on_c, 0, 72, 0
2, 29223, Note_on_c, 0, 67, 0
2, 29280, Note_on_c, 0, 80, 94
2, 29280, Note_on_c, 0, 77, 94
2, 29465, Note_on_c, 0, 80, 0
2, 29465, Note_on_c, 0, 77, 0
2, 29472, Note_on_c, 0, 79, 80
2, 29472, Note_on_c, 0, 75, 80
2, 29561, Note_on_c, 0, 79, 0
2, 29561, Note_on_c, 0, 75, 0
2, 29568, Note_on_c, 0, 77, 80
2, 29568, Note_on_c, 0, 68, 80
2, 29607, Note_on_c, 0, 77, 0
2, 29607, Note_on_c, 0, 68, 0
2, 29664, Note_on_c, 0, 75, 80
2, 29664, Note_on_c, 0, 67, 80
2, 29712, Note_on_c, 0, 75, 0
2, 29712, Note_on_c, 0, 67, 0
2, 29712, Note_on_c, 0, 74, 79
2, 29712, Note_on_c, 0, 65, 79
2, 29757, Note_on_c, 0, 74, 0
2, 29757, Note_on_c, 0, 65, 0
2, 29760, Note_on_c, 0, 72, 78
2, 29760, Note_on_c, 0, 63, 78
2, 29799, Note_on_c, 0, 72, 0
2, 29799, Note_on_c, 0, 63, 0
2, 29856, Note_on_c, 0, 71, 76
2, 29856, Note_on_c, 0, 62, 76
2, 29895, Note_on_c, 0, 71, 0
2, 29895, Note_on_c, 0, 62, 0
2, 29952, Note_on_c, 0, 71, 91
2, 29952, Note_on_c, 0, 63, 91
2, 30048, Note_on_c, 0, 71, 0
2, 30048, Note_on_c, 0, 72, 75
2, 30137, Note_on_c, 0, 72, 0
2, 30137, Note_on_c, 0, 63, 0
2, 30144, Note_on_c, 0, 82, 75
2, 30167, Note_on_c, 0, 82, 0
2, 30168, Note_on_c, 0, 80, 76
2, 30191, Note_on_c, 0, 80, 0
2, 30192, Note_on_c, 0, 82, 78
2, 30215, Note_on_c, 0, 82, 0
2, 30216, Note_on_c, 0, 84, 80
2, 30239, Note_on_c, 0, 84, 0
2, 30240, Note_on_c, 0, 82, 79
2, 30336, Note_on_c, 0, 82, 0
2, 30336, Note_on_c, 0, 80, 77
2, 30425, Note_on_c, 0, 80, 0
2, 30432, Note_on_c, 0, 80, 75
2, 30455, Note_on_c, 0, 80, 0
2, 30456, Note_on_c, 0, 79, 76
2, 30479, Note_on_c, 0, 79, 0
2, 30480, Note_on_c, 0, 80, 78
2, 30503, Note_on_c, 0, 80, 0
2, 30504, Note_on_c, 0, 82, 80
2, 30527, Note_on_c, 0, 82, 0
2, 30528, Note_on_c, 0, 80, 79
2, 30624, Note_on_c, 0, 80, 0
2, 30624, Note_on_c, 0, 79, 77
2, 30713, Note_on_c, 0, 79, 0
2, 30720, Note_on_c, 0, 75, 80
2, 30720, Note_on_c, 0, 72, 80
2, 30759, Note_on_c, 0, 75, 0
2, 30759, Note_on_c, 0, 72, 0
2, 30816, Note_on_c, 0, 74, 80
2, 30816, Note_on_c, 0, 71, 80
2, 30855, Note_on_c, 0, 74, 0
2, 30855, Note_on_c, 0, 71, 0
2, 30912, Note_on_c, 0, 60, 75
2, 30957, Note_on_c, 0, 60, 0
2, 30960, Note_on_c, 0, 62, 75
2, 31005, Note_on_c, 0, 62, 0
2, 31008, Note_on_c, 0, 63, 75
2, 31075, Note_on_c, 0, 63, 0
2, 31080, Note_on_c, 0, 66, 75
2, 31103, Note_on_c, 0, 66, 0
2, 31104, Note_on_c, 0, 66, 91
2, 31104, Note_on_c, 0, 60, 91
2, 31200, Note_on_c, 0, 66, 0
2, 31200, Note_on_c, 0, 60, 0
2, 31200, Note_on_c, 0, 67, 75
2, 31200, Note_on_c, 0, 59, 75
2, 31289, Note_on_c, 0, 67, 0
2, 31289, Note_on_c, 0, 59, 0
2, 31296, Note_on_c, 0, 72, 91
2, 31296, Note_on_c, 0, 63, 91
2, 31335, Note_on_c, 0, 72, 0
2, 31335, Note_on_c, 0, 63, 0
2, 31392, Note_on_c, 0, 71, 91
2, 31392, Note_on_c, 0, 65, 91
2, 31431, Note_on_c, 0, 71, 0
2, 31431, Note_on_c, 0, 65, 0
2, 31488, Note_on_c, 0, 72, 76
2, 31488, Note_on_c, 0, 67, 76
2, 31527, Note_on_c, 0, 72, 0
2, 31527, Note_on_c, 0, 67, 0
2, 31584, Note_on_c, 0, 80, 94
2, 31584, Note_on_c, 0, 77, 94
2, 31769, Note_on_c, 0, 80, 0
2, 31769, Note_on_c, 0, 77, 0
2, 31776, Note_on_c, 0, 79, 80
2, 31776, Note_on_c, 0, 75, 80
2, 31865, Note_on_c, 0, 79, 0
2, 31865, Note_on_c, 0, 75, 0
2, 31872, Note_on_c, 0, 77, 80
2, 31872, Note_on_c, 0, 68, 80
2, 31911, Note_on_c, 0, 77, 0
2, 31911, Note_on_c, 0, 68, 0
2, 31968, Note_on_c, 0, 75, 80
2, 31968, Note_on_c, 0, 67, 80
2, 32016, Note_on_c, 0, 75, 0
2, 32016, Note_on_c, 0, 67, 0
2, 32016, Note_on_c, 0, 74, 79
2, 32016, Note_on_c, 0, 65, 79
2, 32061, Note_on_c, 0, 74, 0
2, 32061, Note_on_c, 0, 65, 0
2, 32064, Note_on_c, 0, 72, 78
2, 32064, Note_on_c, 0, 63, 78
2, 32103, Note_on_c, 0, 72, 0
2, 32103, Note_on_c, 0, 63, 0
2, 32160, Note_on_c, 0, 71, 76
2, 32160, Note_on_c, 0, 62, 76
2, 32199, Note_on_c, 0, 71, 0
2, 32199, Note_on_c, 0, 62, 0
2, 32256, Note_on_c, 0, 71, 91
2, 32256, Note_on_c, 0, 63, 91
2, 32352, Note_on_c, 0, 71, 0
2, 32352, Note_on_c, 0, 72, 75
2, 32441, Note_on_c, 0, 72, 0
2, 32441, Note_on_c, 0, 63, 0
2, 32448, Note_on_c, 0, 82, 75
2, 32471, Note_on_c, 0, 82, 0
2, 32472, Note_on_c, 0, 80, 76
2, 32495, Note_on_c, 0, 80, 0
2, 32496, Note_on_c, 0, 82, 78
2, 32519, Note_on_c, 0, 82, 0
2, 32520, Note_on_c, 0, 84, 80
2, 32543, Note_on_c, 0, 84, 0
2, 32544, Note_on_c, 0, 82, 79
2, 32640, Note_on_c, 0, 82, 0
2, 32640, Note_on_c, 0, 80, 77
2, 32729, Note_on_c, 0, 80, 0
2, 32736, Note_on_c, 0, 80, 75
2, 32759, Note_on_c, 0, 80, 0
2, 32760, Note_on_c, 0, 79, 76
2, 32783, Note_on_c, 0, 79, 0
2, 32784, Note_on_c, 0, 80, 78
2, 32807, Note_on_c, 0, 80, 0
2, 32808, Note_on_c, 0, 82, 80
2, 32831, Note_on_c, 0, 82, 0
2, 32832, Note_on_c, 0, 80, 79
2, 32928, Note_on_c, 0, 80, 0
2, 32928, Note_on_c, 0, 79, 77
2, 33017, Note_on_c, 0, 79, 0
2, 33024, Note_on_c, 0, 75, 80
2, 33024, Note_on_c, 0, 72, 80
2, 33063, Note_on_c, 0, 75, 0
2, 33063, Note_on_c, 0, 72, 0
2, 33120, Note_on_c, 0, 74, 80
2, 33120, Note_on_c, 0, 71, 80
2, 33159, Note_on_c, 0, 74, 0
2, 33159, Note_on_c, 0, 71, 0
2, 33216, Note_on_c, 0, 60, 75
2, 33261, Note_on_c, 0, 60, 0
2, 33264, Note_on_c, 0, 62, 75
2, 33309, Note_on_c, 0, 62, 0
2, 33312, Note_on_c, 0, 63, 75
2, 33379, Note_on_c, 0, 63, 0
2, 33384, Note_on_c, 0, 66, 75
2, 33407, Note_on_c, 0, 66, 0
2, 33408, Note_on_c, 0, 66, 91
2, 33408, Note_on_c, 0, 60, 91
2, 33504, Note_on_c, 0, 66, 0
2, 33504, Note_on_c, 0, 60, 0
2, 33504, Note_on_c, 0, 67, 75
2, 33504, Note_on_c, 0, 59, 75
2, 33593, Note_on_c, 0, 67, 0
2, 33593, Note_on_c, 0, 59, 0
2, 33600, Note_on_c, 0, 70, 70
2, 33613, Note_on_c, 0, 70, 0
2, 33614, Note_on_c, 0, 72, 71
2, 33627, Note_on_c, 0, 72, 0
2, 33628, Note_on_c, 0, 70, 72
2, 33641, Note_on_c, 0, 70, 0
2, 33642, Note_on_c, 0, 72, 73
2, 33655, Note_on_c, 0, 72, 0
2, 33656, Note_on_c, 0, 70, 74
2, 33669, Note_on_c, 0, 70, 0
2, 33670, Note_on_c, 0, 68, 74
2, 33682, Note_on_c, 0, 68, 0
2, 33683, Note_on_c, 0, 70, 72
2, 33695, Note_on_c, 0, 70, 0
2, 33696, Note_on_c, 0, 75, 70
2, 33696, Note_on_c, 0, 67, 70
2, 33785, Note_on_c, 0, 75, 0
2, 33785, Note_on_c, 0, 67, 0
2, 33792, Note_on_c, 0, 70, 70
2, 33792, Note_on_c, 0, 63, 70
2, 33881, Note_on_c, 0, 70, 0
2, 33881, Note_on_c, 0, 63, 0
2, 33888, Note_on_c, 0, 70, 70
2, 33888, Note_on_c, 0, 63, 70
2, 33977, Note_on_c, 0, 70, 0
2, 33977, Note_on_c, 0, 63, 0
2, 33984, Note_on_c, 0, 77, 70
2, 33984, Note_on_c, 0, 68, 70
2, 34073, Note_on_c, 0, 77, 0
2, 34073, Note_on_c, 0, 68, 0
2, 34080, Note_on_c, 0, 70, 70
2, 34169, Note_on_c, 0, 70, 0
2, 34176, Note_on_c, 0, 77, 70
2, 34189, Note_on_c, 0, 77, 0
2, 34190, Note_on_c, 0, 79, 71
2, 34203, Note_on_c, 0, 79, 0
2, 34204, Note_on_c, 0, 77, 73
2, 34217, Note_on_c, 0, 77, 0
2, 34218, Note_on_c, 0, 79, 75
2, 34231, Note_on_c, 0, 79, 0
2, 34232, Note_on_c, 0, 77, 74
2, 34245, Note_on_c, 0, 77, 0
2, 34246, Note_on_c, 0, 75, 73
2, 34258, Note_on_c, 0, 75, 0
2, 34259, Note_on_c, 0, 77, 72
2, 34271, Note_on_c, 0, 77, 0
2, 34272, Note_on_c, 0, 79, 70
2, 34317, Note_on_c, 0, 79, 0
2, 34320, Note_on_c, 0, 82, 70
2, 34365, Note_on_c, 0, 82, 0
2, 34368, Note_on_c, 0, 80, 71
2, 34413, Note_on_c, 0, 80, 0
2, 34416, Note_on_c, 0, 79, 72
2, 34461, Note_on_c, 0, 79, 0
2, 34464, Note_on_c, 0, 77, 73
2, 34509, Note_on_c, 0, 77, 0
2, 34512, Note_on_c, 0, 75, 74
2, 34512, Note_on_c, 0, 67, 74
2, 34557, Note_on_c, 0, 75, 0
2, 34557, Note_on_c, 0, 67, 0
2, 34560, Note_on_c, 0, 75, 75
2, 34560, Note_on_c, 0, 67, 75
2, 34656, Note_on_c, 0, 75, 0
2, 34656, Note_on_c, 0, 67, 0
2, 34656, Note_on_c, 0, 74, 72
2, 34656, Note_on_c, 0, 65, 72
2, 34745, Note_on_c, 0, 74, 0
2, 34745, Note_on_c, 0, 65, 0
2, 34752, Note_on_c, 0, 73, 70
2, 34752, Note_on_c, 0, 70, 70
2, 34944, Note_on_c, 0, 73, 0
2, 34944, Note_on_c, 0, 70, 0
2, 34944, Note_on_c, 0, 72, 73
2, 34944, Note_on_c, 0, 68, 73
2, 35038, Note_on_c, 0, 72, 0
2, 35038, Note_on_c, 0, 68, 0
2, 35040, Note_on_c, 0, 75, 75
2, 35040, Note_on_c, 0, 72, 75
2, 35232, Note_on_c, 0, 75, 0
2, 35232, Note_on_c, 0, 72, 0
2, 35232, Note_on_c, 0, 74, 78
2, 35232, Note_on_c, 0, 70, 78
2, 35326, Note_on_c, 0, 74, 0
2, 35326, Note_on_c, 0, 70, 0
2, 35328, Note_on_c, 0, 63, 80
2, 35341, Note_on_c, 0, 63, 0
2, 35342, Note_on_c, 0, 65, 80
2, 35355, Note_on_c, 0, 65, 0
2, 35356, Note_on_c, 0, 63, 80
2, 35369, Note_on_c, 0, 63, 0
2, 35370, Note_on_c, 0, 65, 80
2, 35383, Note_on_c, 0, 65, 0
2, 35384, Note_on_c, 0, 63, 80
2, 35397, Note_on_c, 0, 63, 0
2, 35398, Note_on_c, 0, 62, 80
2, 35410, Note_on_c, 0, 62, 0
2, 35411, Note_on_c, 0, 63, 80
2, 35423, Note_on_c, 0, 63, 0
2, 35424, Note_on_c, 0, 65, 80
2, 35424, Note_on_c, 0, 60, 80
2, 35424, Note_on_c, 0, 56, 80
2, 35520, Note_on_c, 0, 65, 0
2, 35520, Note_on_c, 0, 60, 0
2, 35520, Note_on_c, 0, 56, 0
2, 35520, Note_on_c, 0, 68, 80
2, 35609, Note_on_c, 0, 68, 0
2, 35616, Note_on_c, 0, 62, 80
2, 35616, Note_on_c, 0, 56, 80
2, 35655, Note_on_c, 0, 62, 0
2, 35655, Note_on_c, 0, 56, 0
2, 35712, Note_on_c, 0, 63, 80
2, 35712, Note_on_c, 0, 55, 80
2, 35889, Note_on_c, 0, 63, 0
2, 35889, Note_on_c, 0, 55, 0
2, 35904, Note_on_c, 0, 84, 75
2, 35904, Note_on_c, 0, 79, 75
2, 35904, Note_on_c, 0, 75, 75
2, 35943, Note_on_c, 0, 84, 0
2, 35943, Note_on_c, 0, 79, 0
2, 35943, Note_on_c, 0, 75, 0
2, 36000, Note_on_c, 0, 83, 75
2, 36000, Note_on_c, 0, 77, 75
2, 36000, Note_on_c, 0, 74, 75
2, 36039, Note_on_c, 0, 83, 0
2, 36039, Note_on_c, 0, 77, 0
2, 36039, Note_on_c, 0, 74, 0
2, 36096, Note_on_c, 0, 84, 75
2, 36096, Note_on_c, 0, 79, 75
2, 36096, Note_on_c, 0, 75, 75
2, 36135, Note_on_c, 0, 84, 0
2, 36135, Note_on_c, 0, 79, 0
2, 36135, Note_on_c, 0, 75, 0
2, 36192, Note_on_c, 0, 61, 91
2, 36377, Note_on_c, 0, 61, 0
2, 36384, Note_on_c, 0, 60, 75
2, 36473, Note_on_c, 0, 60, 0
2, 36480, Note_on_c, 0, 52, 80
2, 36493, Note_on_c, 0, 52, 0
2, 36494, Note_on_c, 0, 53, 80
2, 36507, Note_on_c, 0, 53, 0
2, 36508, Note_on_c, 0, 52, 80
2, 36521, Note_on_c, 0, 52, 0
2, 36522, Note_on_c, 0, 53, 80
2, 36535, Note_on_c, 0, 53, 0
2, 36536, Note_on_c, 0, 52, 80
2, 36549, Note_on_c, 0, 52, 0
2, 36550, Note_on_c, 0, 50, 80
2, 36562, Note_on_c, 0, 50, 0
2, 36563, Note_on_c, 0, 52, 80
2, 36575, Note_on_c, 0, 52, 0
2, 36576, Note_on_c, 0, 53, 80
2, 36615, Note_on_c, 0, 53, 0
2, 36672, Note_on_c, 0, 61, 80
2, 36711, Note_on_c, 0, 61, 0
2, 36768, Note_on_c, 0, 54, 80
2, 36781, Note_on_c, 0, 54, 0
2, 36782, Note_on_c, 0, 55, 80
2, 36795, Note_on_c, 0, 55, 0
2, 36796, Note_on_c, 0, 54, 80
2, 36809, Note_on_c, 0, 54, 0
2, 36810, Note_on_c, 0, 55, 80
2, 36823, Note_on_c, 0, 55, 0
2, 36824, Note_on_c, 0, 54, 80
2, 36837, Note_on_c, 0, 54, 0
2, 36838, Note_on_c, 0, 52, 80
2, 36850, Note_on_c, 0, 52, 0
2, 36851, Note_on_c, 0, 54, 80
2, 36863, Note_on_c, 0, 54, 0
2, 36864, Note_on_c, 0, 55, 80
2, 36903, Note_on_c, 0, 55, 0
2, 36960, Note_on_c, 0, 63, 80
2, 36999, Note_on_c, 0, 63, 0
2, 37056, Note_on_c, 0, 59, 80
2, 37069, Note_on_c, 0, 59, 0
2, 37070, Note_on_c, 0, 60, 80
2, 37083, Note_on_c, 0, 60, 0
2, 37084, Note_on_c, 0, 59, 80
2, 37097, Note_on_c, 0, 59, 0
2, 37098, Note_on_c, 0, 60, 80
2, 37111, Note_on_c, 0, 60, 0
2, 37112, Note_on_c, 0, 59, 80
2, 37125, Note_on_c, 0, 59, 0
2, 37126, Note_on_c, 0, 57, 80
2, 37138, Note_on_c, 0, 57, 0
2, 37139, Note_on_c, 0, 59, 80
2, 37151, Note_on_c, 0, 59, 0
2, 37152, Note_on_c, 0, 60, 80
2, 37246, Note_on_c, 0, 60, 0
2, 37248, Note_on_c, 0, 80, 96
2, 37248, Note_on_c, 0, 77, 96
2, 37306, Note_on_c, 0, 80, 0
2, 37306, Note_on_c, 0, 77, 0
2, 37488, Note_on_c, 0, 80, 70
2, 37533, Note_on_c, 0, 80, 0
2, 37536, Note_on_c, 0, 79, 70
2, 37581, Note_on_c, 0, 79, 0
2, 37584, Note_on_c, 0, 78, 71
2, 37629, Note_on_c, 0, 78, 0
2, 37632, Note_on_c, 0, 77, 72
2, 37677, Note_on_c, 0, 77, 0
2, 37680, Note_on_c, 0, 76, 73
2, 37725, Note_on_c, 0, 76, 0
2, 37728, Note_on_c, 0, 75, 73
2, 37795, Note_on_c, 0, 75, 0
2, 37800, Note_on_c, 0, 73, 75
2, 37823, Note_on_c, 0, 73, 0
2, 37824, Note_on_c, 0, 72, 75
2, 37913, Note_on_c, 0, 72, 0
2, 37920, Note_on_c, 0, 71, 75
2, 38009, Note_on_c, 0, 71, 0
2, 38016, Note_on_c, 0, 72, 75
2, 38055, Note_on_c, 0, 72, 0
2, 38112, Note_on_c, 0, 63, 75
2, 38201, Note_on_c, 0, 63, 0
2, 38208, Note_on_c, 0, 62, 75
2, 38220, Note_on_c, 0, 62, 0
2, 38220, Note_on_c, 0, 63, 75
2, 38232, Note_on_c, 0, 63, 0
2, 38232, Note_on_c, 0, 62, 75
2, 38297, Note_on_c, 0, 62, 0
2, 38304, Note_on_c, 0, 60, 75
2, 38481, Note_on_c, 0, 60, 0
2, 38496, Note_on_c, 0, 70, 70
2, 38509, Note_on_c, 0, 70, 0
2, 38510, Note_on_c, 0, 72, 71
2, 38523, Note_on_c, 0, 72, 0
2, 38524, Note_on_c, 0, 70, 72
2, 38537, Note_on_c, 0, 70, 0
2, 38538, Note_on_c, 0, 72, 73
2, 38551, Note_on_c, 0, 72, 0
2, 38552, Note_on_c, 0, 70, 74
2, 38565, Note_on_c, 0, 70, 0
2, 38566, Note_on_c, 0, 68, 74
2, 38578, Note_on_c, 0, 68, 0
2, 38579, Note_on_c, 0, 70, 72
2, 38591, Note_on_c, 0, 70, 0
2, 38592, Note_on_c, 0, 75, 70
2, 38592, Note_on_c, 0, 67, 70
2, 38681, Note_on_c, 0, 75, 0
2, 38681, Note_on_c, 0, 67, 0
2, 38688, Note_on_c, 0, 70, 70
2, 38688, Note_on_c, 0, 63, 70
2, 38777, Note_on_c, 0, 70, 0
2, 38777, Note_on_c, 0, 63, 0
2, 38784, Note_on_c, 0, 70, 70
2, 38784, Note_on_c, 0, 63, 70
2, 38873, Note_on_c, 0, 70, 0
2, 38873, Note_on_c, 0, 63, 0
2, 38880, Note_on_c, 0, 77, 70
2, 38880, Note_on_c, 0, 68, 70
2, 38969, Note_on_c, 0, 77, 0
2, 38969, Note_on_c, 0, 68, 0
2, 38976, Note_on_c, 0, 70, 70
2, 39065, Note_on_c, 0, 70, 0
2, 39072, Note_on_c, 0, 77, 70
2, 39085, Note_on_c, 0, 77, 0
2, 39086, Note_on_c, 0, 79, 71
2, 39099, Note_on_c, 0, 79, 0
2, 39100, Note_on_c, 0, 77, 73
2, 39113, Note_on_c, 0, 77, 0
2, 39114, Note_on_c, 0, 79, 75
2, 39127, Note_on_c, 0, 79, 0
2, 39128, Note_on_c, 0, 77, 74
2, 39141, Note_on_c, 0, 77, 0
2, 39142, Note_on_c, 0, 75, 73
2, 39154, Note_on_c, 0, 75, 0
2, 39155, Note_on_c, 0, 77, 72
2, 39167, Note_on_c, 0, 77, 0
2, 39168, Note_on_c, 0, 79, 70
2, 39213, Note_on_c, 0, 79, 0
2, 39216, Note_on_c, 0, 82, 70
2, 39261, Note_on_c, 0, 82, 0
2, 39264, Note_on_c, 0, 80, 71
2, 39309, Note_on_c, 0, 80, 0
2, 39312, Note_on_c, 0, 79, 72
2, 39357, Note_on_c, 0, 79, 0
2, 39360, Note_on_c, 0, 77, 73
2, 39405, Note_on_c, 0, 77, 0
2, 39408, Note_on_c, 0, 75, 74
2, 39408, Note_on_c, 0, 67, 74
2, 39453, Note_on_c, 0, 75, 0
2, 39453, Note_on_c, 0, 67, 0
2, 39456, Note_on_c, 0, 75, 75
2, 39456, Note_on_c, 0, 67, 75
2, 39552, Note_on_c, 0, 75, 0
2, 39552, Note_on_c, 0, 67, 0
2, 39552, Note_on_c, 0, 74, 72
2, 39552, Note_on_c, 0, 65, 72
2, 39641, Note_on_c, 0, 74, 0
2, 39641, Note_on_c, 0, 65, 0
2, 39648, Note_on_c, 0, 73, 70
2, 39648, Note_on_c, 0, 70, 70
2, 39840, Note_on_c, 0, 73, 0
2, 39840, Note_on_c, 0, 70, 0
2, 39840, Note_on_c, 0, 72, 73
2, 39840, Note_on_c, 0, 68, 73
2, 39934, Note_on_c, 0, 72, 0
2, 39934, Note_on_c, 0, 68, 0
2, 39936, Note_on_c, 0, 75, 75
2, 39936, Note_on_c, 0, 72, 75
2, 40128, Note_on_c, 0, 75, 0
2, 40128, Note_on_c, 0, 72, 0
2, 40128, Note_on_c, 0, 74, 78
2, 40128, Note_on_c, 0, 70, 78
2, 40222, Note_on_c, 0, 74, 0
2, 40222, Note_on_c, 0, 70, 0
2, 40224, Note_on_c, 0, 63, 80
2, 40237, Note_on_c, 0, 63, 0
2, 40238, Note_on_c, 0, 65, 80
2, 40251, Note_on_c, 0, 65, 0
2, 40252, Note_on_c, 0, 63, 80
2, 40265, Note_on_c, 0, 63, 0
2, 40266, Note_on_c, 0, 65, 80
2, 40279, Note_on_c, 0, 65, 0
2, 40280, Note_on_c, 0, 63, 80
2, 40293, Note_on_c, 0, 63, 0
2, 40294, Note_on_c, 0, 62, 80
2, 40306, Note_on_c, 0, 62, 0
2, 40307, Note_on_c, 0, 63, 80
2, 40319, Note_on_c, 0, 63, 0
2, 40320, Note_on_c, 0, 65, 80
2, 40320, Note_on_c, 0, 60, 80
2, 40320, Note_on_c, 0, 56, 80
2, 40416, Note_on_c, 0, 65, 0
2, 40416, Note_on_c, 0, 60, 0
2, 40416, Note_on_c, 0, 56, 0
2, 40416, Note_on_c, 0, 68, 80
2, 40505, Note_on_c, 0, 68, 0
2, 40512, Note_on_c, 0, 62, 80
2, 40512, Note_on_c, 0, 56, 80
2, 40551, Note_on_c, 0, 62, 0
2, 40551, Note_on_c, 0, 56, 0
2, 40608, Note_on_c, 0, 63, 80
2, 40608, Note_on_c, 0, 55, 80
2, 40785, Note_on_c, 0, 63, 0
2, 40785, Note_on_c, 0, 55, 0
2, 40800, Note_on_c, 0, 84, 75
2, 40800, Note_on_c, 0, 79, 75
2, 40800, Note_on_c, 0, 75, 75
2, 40839, Note_on_c, 0, 84, 0
2, 40839, Note_on_c, 0, 79, 0
2, 40839, Note_on_c, 0, 75, 0
2, 40896, Note_on_c, 0, 83, 75
2, 40896, Note_on_c, 0, 77, 75
2, 40896, Note_on_c, 0, 74, 75
2, 40935, Note_on_c, 0, 83, 0
2, 40935, Note_on_c, 0, 77, 0
2, 40935, Note_on_c, 0, 74, 0
2, 40992, Note_on_c, 0, 84, 75
2, 40992, Note_on_c, 0, 79, 75
2, 40992, Note_on_c, 0, 75, 75
2, 41031, Note_on_c, 0, 84, 0
2, 41031, Note_on_c, 0, 79, 0
2, 41031, Note_on_c, 0, 75, 0
2, 41088, Note_on_c, 0, 61, 91
2, 41273, Note_on_c, 0, 61, 0
2, 41280, Note_on_c, 0, 60, 75
2, 41369, Note_on_c, 0, 60, 0
2, 41376, Note_on_c, 0, 52, 80
2, 41389, Note_on_c, 0, 52, 0
2, 41390, Note_on_c, 0, 53, 80
2, 41403, Note_on_c, 0, 53, 0
2, 41404, Note_on_c, 0, 52, 80
2, 41417, Note_on_c, 0, 52, 0
2, 41418, Note_on_c, 0, 53, 80
2, 41431, Note_on_c, 0, 53, 0
2, 41432, Note_on_c, 0, 52, 80
2, 41445, Note_on_c, 0, 52, 0
2, 41446, Note_on_c, 0, 50, 80
2, 41458, Note_on_c, 0, 50, 0
2, 41459, Note_on_c, 0, 52, 80
2, 41471, Note_on_c, 0, 52, 0
2, 41472, Note_on_c, 0, 53, 80
2, 41511, Note_on_c, 0, 53, 0
2, 41568, Note_on_c, 0, 61, 80
2, 41607, Note_on_c, 0, 61, 0
2, 41664, Note_on_c, 0, 54, 80
2, 41677, Note_on_c, 0, 54, 0
2, 41678, Note_on_c, 0, 55, 80
2, 41691, Note_on_c, 0, 55, 0
2, 41692, Note_on_c, 0, 54, 80
2, 41705, Note_on_c, 0, 54, 0
2, 41706, Note_on_c, 0, 55, 80
2, 41719, Note_on_c, 0, 55, 0
2, 41720, Note_on_c, 0, 54, 80
2, 41733, Note_on_c, 0, 54, 0
2, 41734, Note_on_c, 0, 52, 80
2, 41746, Note_on_c, 0, 52, 0
2, 41747, Note_on_c, 0, 54, 80
2, 41759, Note_on_c, 0, 54, 0
2, 41760, Note_on_c, 0, 55, 80
2, 41799, Note_on_c, 0, 55, 0
2, 41856, Note_on_c, 0, 63, 80
2, 41895, Note_on_c, 0, 63, 0
2, 41952, Note_on_c, 0, 59, 80
2, 41965, Note_on_c, 0, 59, 0
2, 41966, Note_on_c, 0, 60, 80
2, 41979, Note_on_c, 0, 60, 0
2, 41980, Note_on_c, 0, 59, 80
2, 41993, Note_on_c, 0, 59, 0
2, 41994, Note_on_c, 0, 60, 80
2, 42007, Note_on_c, 0, 60, 0
2, 42008, Note_on_c, 0, 59, 80
2, 42021, Note_on_c, 0, 59, 0
2, 42022, Note_on_c, 0, 57, 80
2, 42034, Note_on_c, 0, 57, 0
2, 42035, Note_on_c, 0, 59, 80
2, 42047, Note_on_c, 0, 59, 0
2, 42048, Note_on_c, 0, 60, 80
2, 42142, Note_on_c, 0, 60, 0
2, 42144, Note_on_c, 0, 80, 96
2, 42144, Note_on_c, 0, 77, 96
2, 42202, Note_on_c, 0, 80, 0
2, 42202, Note_on_c, 0, 77, 0
2, 42384, Note_on_c, 0, 80, 70
2, 42429, Note_on_c, 0, 80, 0
2, 42432, Note_on_c, 0, 79, 70
2, 42477, Note_on_c, 0, 79, 0
2, 42480, Note_on_c, 0, 78, 71
2, 42525, Note_on_c, 0, 78, 0
2, 42528, Note_on_c, 0, 77, 72
2, 42573, Note_on_c, 0, 77, 0
2, 42576, Note_on_c, 0, 76, 73
2, 42621, Note_on_c, 0, 76, 0
2, 42624, Note_on_c, 0, 75, 73
2, 42691, Note_on_c, 0, 75, 0
2, 42696, Note_on_c, 0, 73, 75
2, 42719, Note_on_c, 0, 73, 0
2, 42720, Note_on_c, 0, 72, 75
2, 42809, Note_on_c, 0, 72, 0
2, 42816, Note_on_c, 0, 71, 75
2, 42905, Note_on_c, 0, 71, 0
2, 42912, Note_on_c, 0, 72, 75
2, 42951, Note_on_c, 0, 72, 0
2, 43008, Note_on_c, 0, 63, 75
2, 43097, Note_on_c, 0, 63, 0
2, 43104, Note_on_c, 0, 62, 75
2, 43116, Note_on_c, 0, 62, 0
2, 43116, Note_on_c, 0, 63, 75
2, 43128, Note_on_c, 0, 63, 0
2, 43128, Note_on_c, 0, 62, 75
2, 43193, Note_on_c, 0, 62, 0
2, 43200, Note_on_c, 0, 60, 75
2, 43377, Note_on_c, 0, 60, 0
2, 43488, End_track
3, 0, Start_track
3, 0, Program_c, 0, 0
3, 0, Control_c, 0, 7, 127
3, 0, Control_c, 0, 10, 64
3, 5376, Note_on_c, 0, 70, 64
3, 5465, Note_on_c, 0, 70, 0
3, 6528, Note_on_c, 0, 58, 64
3, 6617, Note_on_c, 0, 58, 0
3, 9312, Note_on_c, 0, 60, 64
3, 9401, Note_on_c, 0, 60, 0
3, 9408, Note_on_c, 0, 59, 64
3, 9497, Note_on_c, 0, 59, 0
3, 9504, Note_on_c, 0, 60, 64
3, 9681, Note_on_c, 0, 60, 0
3, 10272, Note_on_c, 0, 70, 64
3, 10361, Note_on_c, 0, 70, 0
3, 11424, Note_on_c, 0, 58, 64
3, 11513, Note_on_c, 0, 58, 0
3, 14208, Note_on_c, 0, 60, 64
3, 14297, Note_on_c, 0, 60, 0
3, 14304, Note_on_c, 0, 59, 64
3, 14393, Note_on_c, 0, 59, 0
3, 14400, Note_on_c, 0, 60, 64
3, 14577, Note_on_c, 0, 60, 0
3, 15840, Note_on_c, 0, 76, 64
3, 15907, Note_on_c, 0, 76, 0
3, 15912, Note_on_c, 0, 74, 64
3, 15935, Note_on_c, 0, 74, 0
3, 15936, Note_on_c, 0, 76, 64
3, 16003, Note_on_c, 0, 76, 0
3, 16008, Note_on_c, 0, 74, 64
3, 16031, Note_on_c, 0, 74, 0
3, 16032, Note_on_c, 0, 76, 64
3, 16099, Note_on_c, 0, 76, 0
3, 16104, Note_on_c, 0, 74, 64
3, 16127, Note_on_c, 0, 74, 0
3, 16704, Note_on_c, 0, 67, 64
3, 16881, Note_on_c, 0, 67, 0
3, 18144, Note_on_c, 0, 76, 64
3, 18211, Note_on_c, 0, 76, 0
3, 18216, Note_on_c, 0, 74, 64
3, 18239, Note_on_c, 0, 74, 0
3, 18240, Note_on_c, 0, 76, 64
3, 18307, Note_on_c, 0, 76, 0
3, 18312, Note_on_c, 0, 74, 64
3, 18335, Note_on_c, 0, 74, 0
3, 18336, Note_on_c, 0, 76, 64
3, 18403, Note_on_c, 0, 76, 0
3, 18408, Note_on_c, 0, 74, 64
3, 18431, Note_on_c, 0, 74, 0
3, 19008, Note_on_c, 0, 67, 64
3, 19185, Note_on_c, 0, 67, 0
3, 34176, Note_on_c, 0, 70, 64
3, 34265, Note_on_c, 0, 70, 0
3, 35328, Note_on_c, 0, 58, 64
3, 35417, Note_on_c, 0, 58, 0
3, 38112, Note_on_c, 0, 60, 64
3, 38201, Note_on_c, 0, 60, 0
3, 38208, Note_on_c, 0, 59, 64
3, 38297, Note_on_c, 0, 59, 0
3, 38304, Note_on_c, 0, 60, 64
3, 38481, Note_on_c, 0, 60, 0
3, 39072, Note_on_c, 0, 70, 64
3, 39161, Note_on_c, 0, 70, 0
3, 40224, Note_on_c, 0, 58, 64
3, 40313, Note_on_c, 0, 58, 0
3, 43008, Note_on_c, 0, 60, 64
3, 43097, Note_on_c, 0, 60, 0
3, 43104, Note_on_c, 0, 59, 64
3, 43193, Note_on_c, 0, 59, 0
3, 43200, Note_on_c, 0, 60, 64
3, 43377, Note_on_c, 0, 60, 0
3, 43488, End_track
4, 0, Start_track
4, 0, Program_c, 1, 0
4, 0, Control_c, 1, 7, 127
4, 0, Control_c, 1, 10, 64
4, 192, Note_on_c, 1, 60, 64
4, 192, Note_on_c, 1, 48, 64
4, 231, Note_on_c, 1, 60, 0
4, 231, Note_on_c, 1, 48, 0
4, 288, Note_on_c, 1, 62, 64
4, 288, Note_on_c, 1, 50, 64
4, 327, Note_on_c, 1, 62, 0
4, 327, Note_on_c, 1, 50, 0
4, 384, Note_on_c, 1, 63, 64
4, 384, Note_on_c, 1, 51, 64
4, 423, Note_on_c, 1, 63, 0
4, 423, Note_on_c, 1, 51, 0
4, 480, Note_on_c, 1, 59, 80
4, 480, Note_on_c, 1, 47, 80
4, 576, Note_on_c, 1, 59, 0
4, 576, Note_on_c, 1, 47, 0
4, 576, Note_on_c, 1, 60, 64
4, 576, Note_on_c, 1, 48, 64
4, 753, Note_on_c, 1, 60, 0
4, 753, Note_on_c, 1, 48, 0
4, 768, Note_on_c, 1, 59, 64
4, 857, Note_on_c, 1, 59, 0
4, 864, Note_on_c, 1, 60, 64
4, 912, Note_on_c, 1, 60, 0
4, 912, Note_on_c, 1, 53, 64
4, 957, Note_on_c, 1, 53, 0
4, 960, Note_on_c, 1, 55, 64
4, 1049, Note_on_c, 1, 55, 0
4, 1056, Note_on_c, 1, 43, 64
4, 1145, Note_on_c, 1, 43, 0
4, 1152, Note_on_c, 1, 48, 64
4, 1241, Note_on_c, 1, 48, 0
4, 1248, Note_on_c, 1, 36, 64
4, 1337, Note_on_c, 1, 36, 0
4, 1344, Note_on_c, 1, 64, 70
4, 1440, Note_on_c, 1, 64, 0
4, 1440, Note_on_c, 1, 65, 70
4, 1617, Note_on_c, 1, 65, 0
4, 1632, Note_on_c, 1, 62, 70
4, 1728, Note_on_c, 1, 62, 0
4, 1728, Note_on_c, 1, 63, 70
4, 1905, Note_on_c, 1, 63, 0
4, 1920, Note_on_c, 1, 54, 80
4, 1920, Note_on_c, 1, 42, 80
4, 2016, Note_on_c, 1, 54, 0
4, 2016, Note_on_c, 1, 42, 0
4, 2016, Note_on_c, 1, 55, 80
4, 2016, Note_on_c, 1, 43, 80
4, 2105, Note_on_c, 1, 55, 0
4, 2105, Note_on_c, 1, 43, 0
4, 2112, Note_on_c, 1, 56, 96
4, 2112, Note_on_c, 1, 44, 96
4, 2304, Note_on_c, 1, 56, 0
4, 2304, Note_on_c, 1, 44, 0
4, 2304, Note_on_c, 1, 55, 80
4, 2304, Note_on_c, 1, 43, 80
4, 2481, Note_on_c, 1, 55, 0
4, 2481, Note_on_c, 1, 43, 0
4, 2496, Note_on_c, 1, 60, 64
4, 2496, Note_on_c, 1, 48, 64
4, 2535, Note_on_c, 1, 60, 0
4, 2535, Note_on_c, 1, 48, 0
4, 2592, Note_on_c, 1, 62, 64
4, 2592, Note_on_c, 1, 50, 64
4, 2631, Note_on_c, 1, 62, 0
4, 2631, Note_on_c, 1, 50, 0
4, 2688, Note_on_c, 1, 63, 64
4, 2688, Note_on_c, 1, 51, 64
4, 2727, Note_on_c, 1, 63, 0
4, 2727, Note_on_c, 1, 51, 0
4, 2784, Note_on_c, 1, 59, 80
4, 2784, Note_on_c, 1, 47, 80
4, 2880, Note_on_c, 1, 59, 0
4, 2880, Note_on_c, 1, 47, 0
4, 2880, Note_on_c, 1, 60, 64
4, 2880, Note_on_c, 1, 48, 64
4, 3057, Note_on_c, 1, 60, 0
4, 3057, Note_on_c, 1, 48, 0
4, 3072, Note_on_c, 1, 59, 64
4, 3161, Note_on_c, 1, 59, 0
4, 3168, Note_on_c, 1, 60, 64
4, 3216, Note_on_c, 1, 60, 0
4, 3216, Note_on_c, 1, 53, 64
4, 3261, Note_on_c, 1, 53, 0
4, 3264, Note_on_c, 1, 55, 64
4, 3353, Note_on_c, 1, 55, 0
4, 3360, Note_on_c, 1, 43, 64
4, 3449, Note_on_c, 1, 43, 0
4, 3456, Note_on_c, 1, 48, 64
4, 3545, Note_on_c, 1, 48, 0
4, 3552, Note_on_c, 1, 36, 64
4, 3641, Note_on_c, 1, 36, 0
4, 3648, Note_on_c, 1, 64, 70
4, 3744, Note_on_c, 1, 64, 0
4, 3744, Note_on_c, 1, 65, 70
4, 3921, Note_on_c, 1, 65, 0
4, 3936, Note_on_c, 1, 62, 70
4, 4032, Note_on_c, 1, 62, 0
4, 4032, Note_on_c, 1, 63, 70
4, 4209, Note_on_c, 1, 63, 0
4, 4224, Note_on_c, 1, 54, 80
4, 4224, Note_on_c, 1, 42, 80
4, 4320, Note_on_c, 1, 54, 0
4, 4320, Note_on_c, 1, 42, 0
4, 4320, Note_on_c, 1, 55, 80
4, 4320, Note_on_c, 1, 43, 80
4, 4409, Note_on_c, 1, 55, 0
4, 4409, Note_on_c, 1, 43, 0
4, 4416, Note_on_c, 1, 56, 96
4, 4416, Note_on_c, 1, 44, 96
4, 4608, Note_on_c, 1, 56, 0
4, 4608, Note_on_c, 1, 44, 0
4, 4608, Note_on_c, 1, 55, 80
4, 4608, Note_on_c, 1, 43, 80
4, 4785, Note_on_c, 1, 55, 0
4, 4785, Note_on_c, 1, 43, 0
4, 5088, Note_on_c, 1, 51, 70
4, 5101, Note_on_c, 1, 51, 0
4, 5102, Note_on_c, 1, 53, 71
4, 5115, Note_on_c, 1, 53, 0
4, 5116, Note_on_c, 1, 51, 73
4, 5129, Note_on_c, 1, 51, 0
4, 5130, Note_on_c, 1, 53, 75
4, 5143, Note_on_c, 1, 53, 0
4, 5144, Note_on_c, 1, 51, 74
4, 5157, Note_on_c, 1, 51, 0
4, 5158, Note_on_c, 1, 50, 73
4, 5170, Note_on_c, 1, 50, 0
4, 5171, Note_on_c, 1, 51, 72
4, 5183, Note_on_c, 1, 51, 0
4, 5184, Note_on_c, 1, 50, 70
4, 5273, Note_on_c, 1, 50, 0
4, 5280, Note_on_c, 1, 65, 70
4, 5369, Note_on_c, 1, 65, 0
4, 5376, Note_on_c, 1, 65, 70
4, 5465, Note_on_c, 1, 65, 0
4, 5472, Note_on_c, 1, 63, 70
4, 5561, Note_on_c, 1, 63, 0
4, 5568, Note_on_c, 1, 55, 71
4, 5657, Note_on_c, 1, 55, 0
4, 5664, Note_on_c, 1, 56, 73
4, 5753, Note_on_c, 1, 56, 0
4, 5760, Note_on_c, 1, 58, 75
4, 5849, Note_on_c, 1, 58, 0
4, 5856, Note_on_c, 1, 56, 72
4, 5945, Note_on_c, 1, 56, 0
4, 5952, Note_on_c, 1, 55, 70
4, 5965, Note_on_c, 1, 55, 0
4, 5966, Note_on_c, 1, 56, 70
4, 5979, Note_on_c, 1, 56, 0
4, 5980, Note_on_c, 1, 55, 70
4, 5993, Note_on_c, 1, 55, 0
4, 5994, Note_on_c, 1, 56, 70
4, 6007, Note_on_c, 1, 56, 0
4, 6008, Note_on_c, 1, 55, 70
4, 6021, Note_on_c, 1, 55, 0
4, 6022, Note_on_c, 1, 53, 71
4, 6034, Note_on_c, 1, 53, 0
4, 6035, Note_on_c, 1, 55, 71
4, 6047, Note_on_c, 1, 55, 0
4, 6048, Note_on_c, 1, 56, 71
4, 6137, Note_on_c, 1, 56, 0
4, 6144, Note_on_c, 1, 44, 73
4, 6233, Note_on_c, 1, 44, 0
4, 6240, Note_on_c, 1, 57, 74
4, 6253, Note_on_c, 1, 57, 0
4, 6254, Note_on_c, 1, 58, 75
4, 6267, Note_on_c, 1, 58, 0
4, 6268, Note_on_c, 1, 57, 75
4, 6281, Note_on_c, 1, 57, 0
4, 6282, Note_on_c, 1, 58, 75
4, 6295, Note_on_c, 1, 58, 0
4, 6296, Note_on_c, 1, 57, 75
4, 6309, Note_on_c, 1, 57, 0
4, 6310, Note_on_c, 1, 55, 75
4, 6322, Note_on_c, 1, 55, 0
4, 6323, Note_on_c, 1, 57, 76
4, 6335, Note_on_c, 1, 57, 0
4, 6336, Note_on_c, 1, 58, 76
4, 6425, Note_on_c, 1, 58, 0
4, 6432, Note_on_c, 1, 46, 77
4, 6521, Note_on_c, 1, 46, 0
4, 6528, Note_on_c, 1, 53, 80
4, 6543, Note_on_c, 1, 53, 0
4, 6544, Note_on_c, 1, 51, 80
4, 6559, Note_on_c, 1, 51, 0
4, 6560, Note_on_c, 1, 53, 80
4, 6575, Note_on_c, 1, 53, 0
4, 6576, Note_on_c, 1, 51, 80
4, 6591, Note_on_c, 1, 51, 0
4, 6592, Note_on_c, 1, 50, 80
4, 6607, Note_on_c, 1, 50, 0
4, 6608, Note_on_c, 1, 51, 80
4, 6623, Note_on_c, 1, 51, 0
4, 6624, Note_on_c, 1, 44, 80
4, 6713, Note_on_c, 1, 44, 0
4, 6816, Note_on_c, 1, 46, 80
4, 6855, Note_on_c, 1, 46, 0
4, 6912, Note_on_c, 1, 51, 80
4, 7001, Note_on_c, 1, 51, 0
4, 7008, Note_on_c, 1, 39, 80
4, 7097, Note_on_c, 1, 39, 0
4, 7392, Note_on_c, 1, 56, 80
4, 7392, Note_on_c, 1, 53, 80
4, 7488, Note_on_c, 1, 56, 0
4, 7488, Note_on_c, 1, 53, 0
4, 7488, Note_on_c, 1, 55, 80
4, 7488, Note_on_c, 1, 52, 80
4, 7577, Note_on_c, 1, 55, 0
4, 7577, Note_on_c, 1, 52, 0
4, 7680, Note_on_c, 1, 41, 80
4, 7695, Note_on_c, 1, 41, 0
4, 7696, Note_on_c, 1, 40, 80
4, 7711, Note_on_c, 1, 40, 0
4, 7712, Note_on_c, 1, 41, 80
4, 7727, Note_on_c, 1, 41, 0
4, 7728, Note_on_c, 1, 40, 80
4, 7743, Note_on_c, 1, 40, 0
4, 7744, Note_on_c, 1, 38, 80
4, 7759, Note_on_c, 1, 38, 0
4, 7760, Note_on_c, 1, 40, 80
4, 7775, Note_on_c, 1, 40, 0
4, 7776, Note_on_c, 1, 41, 80
4, 7815, Note_on_c, 1, 41, 0
4, 7872, Note_on_c, 1, 49, 80
4, 7911, Note_on_c, 1, 49, 0
4, 7968, Note_on_c, 1, 43, 80
4, 7983, Note_on_c, 1, 43, 0
4, 7984, Note_on_c, 1, 42, 80
4, 7999, Note_on_c, 1, 42, 0
4, 8000, Note_on_c, 1, 43, 80
4, 8015, Note_on_c, 1, 43, 0
4, 8016, Note_on_c, 1, 42, 80
4, 8031, Note_on_c, 1, 42, 0
4, 8032, Note_on_c, 1, 39, 80
4, 8047, Note_on_c, 1, 39, 0
4, 8048, Note_on_c, 1, 41, 80
4, 8063, Note_on_c, 1, 41, 0
4, 8064, Note_on_c, 1, 43, 80
4, 8103, Note_on_c, 1, 43, 0
4, 8160, Note_on_c, 1, 51, 80
4, 8199, Note_on_c, 1, 51, 0
4, 8256, Note_on_c, 1, 48, 80
4, 8271, Note_on_c, 1, 48, 0
4, 8272, Note_on_c, 1, 47, 80
4, 8287, Note_on_c, 1, 47, 0
4, 8288, Note_on_c, 1, 48, 80
4, 8303, Note_on_c, 1, 48, 0
4, 8304, Note_on_c, 1, 47, 80
4, 8319, Note_on_c, 1, 47, 0
4, 8320, Note_on_c, 1, 45, 80
4, 8335, Note_on_c, 1, 45, 0
4, 8336, Note_on_c, 1, 47, 80
4, 8351, Note_on_c, 1, 47, 0
4, 8352, Note_on_c, 1, 48, 80
4, 8391, Note_on_c, 1, 48, 0
4, 8832, Note_on_c, 1, 59, 70
4, 8928, Note_on_c, 1, 59, 0
4, 8928, Note_on_c, 1, 60, 70
4, 8995, Note_on_c, 1, 60, 0
4, 9000, Note_on_c, 1, 53, 70
4, 9023, Note_on_c, 1, 53, 0
4, 9024, Note_on_c, 1, 52, 70
4, 9069, Note_on_c, 1, 52, 0
4, 9072, Note_on_c, 1, 53, 70
4, 9117, Note_on_c, 1, 53, 0
4, 9120, Note_on_c, 1, 54, 70
4, 9165, Note_on_c, 1, 54, 0
4, 9168, Note_on_c, 1, 55, 70
4, 9213, Note_on_c, 1, 55, 0
4, 9216, Note_on_c, 1, 56, 70
4, 9255, Note_on_c, 1, 56, 0
4, 9312, Note_on_c, 1, 55, 70
4, 9401, Note_on_c, 1, 55, 0
4, 9408, Note_on_c, 1, 43, 70
4, 9497, Note_on_c, 1, 43, 0
4, 9504, Note_on_c, 1, 48, 70
4, 9593, Note_on_c, 1, 48, 0
4, 9600, Note_on_c, 1, 36, 70
4, 9689, Note_on_c, 1, 36, 0
4, 9984, Note_on_c, 1, 51, 70
4, 9997, Note_on_c, 1, 51, 0
4, 9998, Note_on_c, 1, 53, 71
4, 10011, Note_on_c, 1, 53, 0
4, 10012, Note_on_c, 1, 51, 73
4, 10025, Note_on_c, 1, 51, 0
4, 10026, Note_on_c, 1, 53, 75
4, 10039, Note_on_c, 1, 53, 0
4, 10040, Note_on_c, 1, 51, 74
4, 10053, Note_on_c, 1, 51, 0
4, 10054, Note_on_c, 1, 50, 73
4, 10066, Note_on_c, 1, 50, 0
4, 10067, Note_on_c, 1, 51, 72
4, 10079, Note_on_c, 1, 51, 0
4, 10080, Note_on_c, 1, 50, 70
4, 10169, Note_on_c, 1, 50, 0
4, 10176, Note_on_c, 1, 65, 70
4, 10265, Note_on_c, 1, 65, 0
4, 10272, Note_on_c, 1, 65, 70
4, 10361, Note_on_c, 1, 65, 0
4, 10368, Note_on_c, 1, 63, 70
4, 10457, Note_on_c, 1, 63, 0
4, 10464, Note_on_c, 1, 55, 71
4, 10553, Note_on_c, 1, 55, 0
4, 10560, Note_on_c, 1, 56, 73
4, 10649, Note_on_c, 1, 56, 0
4, 10656, Note_on_c, 1, 58, 75
4, 10745, Note_on_c, 1, 58, 0
4, 10752, Note_on_c, 1, 56, 72
4, 10841, Note_on_c, 1, 56, 0
4, 10848, Note_on_c, 1, 55, 70
4, 10861, Note_on_c, 1, 55, 0
4, 10862, Note_on_c, 1, 56, 70
4, 10875, Note_on_c, 1, 56, 0
4, 10876, Note_on_c, 1, 55, 70
4, 10889, Note_on_c, 1, 55, 0
4, 10890, Note_on_c, 1, 56, 70
4, 10903, Note_on_c, 1, 56, 0
4, 10904, Note_on_c, 1, 55, 70
4, 10917, Note_on_c, 1, 55, 0
4, 10918, Note_on_c, 1, 53, 71
4, 10930, Note_on_c, 1, 53, 0
4, 10931, Note_on_c, 1, 55, 71
4, 10943, Note_on_c, 1, 55, 0
4, 10944, Note_on_c, 1, 56, 71
4, 11033, Note_on_c, 1, 56, 0
4, 11040, Note_on_c, 1, 44, 73
4, 11129, Note_on_c, 1, 44, 0
4, 11136, Note_on_c, 1, 57, 74
4, 11149, Note_on_c, 1, 57, 0
4, 11150, Note_on_c, 1, 58, 75
4, 11163, Note_on_c, 1, 58, 0
4, 11164, Note_on_c, 1, 57, 75
4, 11177, Note_on_c, 1, 57, 0
4, 11178, Note_on_c, 1, 58, 75
4, 11191, Note_on_c, 1, 58, 0
4, 11192, Note_on_c, 1, 57, 75
4, 11205, Note_on_c, 1, 57, 0
4, 11206, Note_on_c, 1, 55, 75
4, 11218, Note_on_c, 1, 55, 0
4, 11219, Note_on_c, 1, 57, 76
4, 11231, Note_on_c, 1, 57, 0
4, 11232, Note_on_c, 1, 58, 76
4, 11321, Note_on_c, 1, 58, 0
4, 11328, Note_on_c, 1, 46, 77
4, 11417, Note_on_c, 1, 46, 0
4, 11424, Note_on_c, 1, 53, 80
4, 11439, Note_on_c, 1, 53, 0
4, 11440, Note_on_c, 1, 51, 80
4, 11455, Note_on_c, 1, 51, 0
4, 11456, Note_on_c, 1, 53, 80
4, 11471, Note_on_c, 1, 53, 0
4, 11472, Note_on_c, 1, 51, 80
4, 11487, Note_on_c, 1, 51, 0
4, 11488, Note_on_c, 1, 50, 80
4, 11503, Note_on_c, 1, 50, 0
4, 11504, Note_on_c, 1, 51, 80
4, 11519, Note_on_c, 1, 51, 0
4, 11520, Note_on_c, 1, 44, 80
4, 11609, Note_on_c, 1, 44, 0
4, 11712, Note_on_c, 1, 46, 80
4, 11751, Note_on_c, 1, 46, 0
4, 11808, Note_on_c, 1, 51, 80
4, 11897, Note_on_c, 1, 51, 0
4, 11904, Note_on_c, 1, 39, 80
4, 11993, Note_on_c, 1, 39, 0
4, 12288, Note_on_c, 1, 56, 80
4, 12288, Note_on_c, 1, 53, 80
4, 12384, Note_on_c, 1, 56, 0
4, 12384, Note_on_c, 1, 53, 0
4, 12384, Note_on_c, 1, 55, 80
4, 12384, Note_on_c, 1, 52, 80
4, 12473, Note_on_c, 1, 55, 0
4, 12473, Note_on_c, 1, 52, 0
4, 12576, Note_on_c, 1, 41, 80
4, 12591, Note_on_c, 1, 41, 0
4, 12592, Note_on_c, 1, 40, 80
4, 12607, Note_on_c, 1, 40, 0
4, 12608, Note_on_c, 1, 41, 80
4, 12623, Note_on_c, 1, 41, 0
4, 12624, Note_on_c, 1, 40, 80
4, 12639, Note_on_c, 1, 40, 0
4, 12640, Note_on_c, 1, 38, 80
4, 12655, Note_on_c, 1, 38, 0
4, 12656, Note_on_c, 1, 40, 80
4, 12671, Note_on_c, 1, 40, 0
4, 12672, Note_on_c, 1, 41, 80
4, 12711, Note_on_c, 1, 41, 0
4, 12768, Note_on_c, 1, 49, 80
4, 12807, Note_on_c, 1, 49, 0
4, 12864, Note_on_c, 1, 43, 80
4, 12879, Note_on_c, 1, 43, 0
4, 12880, Note_on_c, 1, 42, 80
4, 12895, Note_on_c, 1, 42, 0
4, 12896, Note_on_c, 1, 43, 80
4, 12911, Note_on_c, 1, 43, 0
4, 12912, Note_on_c, 1, 42, 80
4, 12927, Note_on_c, 1, 42, 0
4, 12928, Note_on_c, 1, 39, 80
4, 12943, Note_on_c, 1, 39, 0
4, 12944, Note_on_c, 1, 41, 80
4, 12959, Note_on_c, 1, 41, 0
4, 12960, Note_on_c, 1, 43, 80
4, 12999, Note_on_c, 1, 43, 0
4, 13056, Note_on_c, 1, 51, 80
4, 13095, Note_on_c, 1, 51, 0
4, 13152, Note_on_c, 1, 48, 80
4, 13167, Note_on_c, 1, 48, 0
4, 13168, Note_on_c, 1, 47, 80
4, 13183, Note_on_c, 1, 47, 0
4, 13184, Note_on_c, 1, 48, 80
4, 13199, Note_on_c, 1, 48, 0
4, 13200, Note_on_c, 1, 47, 80
4, 13215, Note_on_c, 1, 47, 0
4, 13216, Note_on_c, 1, 45, 80
4, 13231, Note_on_c, 1, 45, 0
4, 13232, Note_on_c, 1, 47, 80
4, 13247, Note_on_c, 1, 47, 0
4, 13248, Note_on_c, 1, 48, 80
4, 13287, Note_on_c, 1, 48, 0
4, 13728, Note_on_c, 1, 59, 70
4, 13824, Note_on_c, 1, 59, 0
4, 13824, Note_on_c, 1, 60, 70
4, 13891, Note_on_c, 1, 60, 0
4, 13896, Note_on_c, 1, 53, 70
4, 13919, Note_on_c, 1, 53, 0
4, 13920, Note_on_c, 1, 52, 70
4, 13965, Note_on_c, 1, 52, 0
4, 13968, Note_on_c, 1, 53, 70
4, 14013, Note_on_c, 1, 53, 0
4, 14016, Note_on_c, 1, 54, 70
4, 14061, Note_on_c, 1, 54, 0
4, 14064, Note_on_c, 1, 55, 70
4, 14109, Note_on_c, 1, 55, 0
4, 14112, Note_on_c, 1, 56, 70
4, 14151, Note_on_c, 1, 56, 0
4, 14208, Note_on_c, 1, 55, 70
4, 14297, Note_on_c, 1, 55, 0
4, 14304, Note_on_c, 1, 43, 70
4, 14393, Note_on_c, 1, 43, 0
4, 14400, Note_on_c, 1, 48, 70
4, 14489, Note_on_c, 1, 48, 0
4, 14496, Note_on_c, 1, 36, 70
4, 14585, Note_on_c, 1, 36, 0
4, 14688, Note_on_c, 1, 76, 70
4, 14688, Note_on_c, 1, 72, 70
4, 14727, Note_on_c, 1, 76, 0
4, 14727, Note_on_c, 1, 72, 0
4, 14880, Note_on_c, 1, 76, 70
4, 14880, Note_on_c, 1, 72, 70
4, 14976, Note_on_c, 1, 76, 0
4, 14976, Note_on_c, 1, 72, 0
4, 14976, Note_on_c, 1, 74, 70
4, 14976, Note_on_c, 1, 71, 70
4, 15015, Note_on_c, 1, 74, 0
4, 15015, Note_on_c, 1, 71, 0
4, 15168, Note_on_c, 1, 74, 70
4, 15168, Note_on_c, 1, 71, 70
4, 15264, Note_on_c, 1, 74, 0
4, 15264, Note_on_c, 1, 71, 0
4, 15264, Note_on_c, 1, 72, 70
4, 15303, Note_on_c, 1, 72, 0
4, 15360, Note_on_c, 1, 72, 70
4, 15449, Note_on_c, 1, 72, 0
4, 15456, Note_on_c, 1, 76, 70
4, 15545, Note_on_c, 1, 76, 0
4, 15552, Note_on_c, 1, 77, 70
4, 15597, Note_on_c, 1, 77, 0
4, 15600, Note_on_c, 1, 78, 70
4, 15645, Note_on_c, 1, 78, 0
4, 15648, Note_on_c, 1, 79, 70
4, 15737, Note_on_c, 1, 79, 0
4, 16992, Note_on_c, 1, 76, 70
4, 16992, Note_on_c, 1, 72, 70
4, 17031, Note_on_c, 1, 76, 0
4, 17031, Note_on_c, 1, 72, 0
4, 17184, Note_on_c, 1, 76, 70
4, 17184, Note_on_c, 1, 72, 70
4, 17280, Note_on_c, 1, 76, 0
4, 17280, Note_on_c, 1, 72, 0
4, 17280, Note_on_c, 1, 74, 70
4, 17280, Note_on_c, 1, 71, 70
4, 17319, Note_on_c, 1, 74, 0
4, 17319, Note_on_c, 1, 71, 0
4, 17472, Note_on_c, 1, 74, 70
4, 17472, Note_on_c, 1, 71, 70
4, 17568, Note_on_c, 1, 74, 0
4, 17568, Note_on_c, 1, 71, 0
4, 17568, Note_on_c, 1, 72, 70
4, 17607, Note_on_c, 1, 72, 0
4, 17664, Note_on_c, 1, 72, 70
4, 17753, Note_on_c, 1, 72, 0
4, 17760, Note_on_c, 1, 76, 70
4, 17849, Note_on_c, 1, 76, 0
4, 17856, Note_on_c, 1, 77, 70
4, 17901, Note_on_c, 1, 77, 0
4, 17904, Note_on_c, 1, 78, 70
4, 17949, Note_on_c, 1, 78, 0
4, 17952, Note_on_c, 1, 79, 70
4, 18041, Note_on_c, 1, 79, 0
4, 19296, Note_on_c, 1, 55, 75
4, 19319, Note_on_c, 1, 55, 0
4, 19320, Note_on_c, 1, 50, 75
4, 19343, Note_on_c, 1, 50, 0
4, 19344, Note_on_c, 1, 47, 75
4, 19367, Note_on_c, 1, 47, 0
4, 19368, Note_on_c, 1, 50, 75
4, 19391, Note_on_c, 1, 50, 0
4, 19392, Note_on_c, 1, 55, 75
4, 19415, Note_on_c, 1, 55, 0
4, 19416, Note_on_c, 1, 50, 75
4, 19439, Note_on_c, 1, 50, 0
4, 19440, Note_on_c, 1, 47, 75
4, 19463, Note_on_c, 1, 47, 0
4, 19464, Note_on_c, 1, 50, 75
4, 19487, Note_on_c, 1, 50, 0
4, 19488, Note_on_c, 1, 55, 75
4, 19511, Note_on_c, 1, 55, 0
4, 19512, Note_on_c, 1, 50, 75
4, 19535, Note_on_c, 1, 50, 0
4, 19536, Note_on_c, 1, 47, 75
4, 19559, Note_on_c, 1, 47, 0
4, 19560, Note_on_c, 1, 50, 75
4, 19583, Note_on_c, 1, 50, 0
4, 19584, Note_on_c, 1, 55, 75
4, 19673, Note_on_c, 1, 55, 0
4, 19680, Note_on_c, 1, 55, 76
4, 19680, Note_on_c, 1, 53, 76
4, 19769, Note_on_c, 1, 55, 0
4, 19769, Note_on_c, 1, 53, 0
4, 19776, Note_on_c, 1, 55, 78
4, 19776, Note_on_c, 1, 52, 78
4, 19865, Note_on_c, 1, 55, 0
4, 19865, Note_on_c, 1, 52, 0
4, 19872, Note_on_c, 1, 62, 80
4, 19895, Note_on_c, 1, 62, 0
4, 19896, Note_on_c, 1, 57, 80
4, 19919, Note_on_c, 1, 57, 0
4, 19920, Note_on_c, 1, 53, 80
4, 19943, Note_on_c, 1, 53, 0
4, 19944, Note_on_c, 1, 57, 80
4, 19967, Note_on_c, 1, 57, 0
4, 19968, Note_on_c, 1, 62, 80
4, 19991, Note_on_c, 1, 62, 0
4, 19992, Note_on_c, 1, 57, 80
4, 20015, Note_on_c, 1, 57, 0
4, 20016, Note_on_c, 1, 53, 80
4, 20039, Note_on_c, 1, 53, 0
4, 20040, Note_on_c, 1, 57, 80
4, 20063, Note_on_c, 1, 57, 0
4, 20064, Note_on_c, 1, 62, 80
4, 20087, Note_on_c, 1, 62, 0
4, 20088, Note_on_c, 1, 57, 80
4, 20111, Note_on_c, 1, 57, 0
4, 20112, Note_on_c, 1, 53, 80
4, 20135, Note_on_c, 1, 53, 0
4, 20136, Note_on_c, 1, 57, 80
4, 20159, Note_on_c, 1, 57, 0
4, 20160, Note_on_c, 1, 62, 80
4, 20249, Note_on_c, 1, 62, 0
4, 20256, Note_on_c, 1, 64, 83
4, 20256, Note_on_c, 1, 62, 83
4, 20345, Note_on_c, 1, 64, 0
4, 20345, Note_on_c, 1, 62, 0
4, 20352, Note_on_c, 1, 64, 86
4, 20352, Note_on_c, 1, 60, 86
4, 20441, Note_on_c, 1, 64, 0
4, 20441, Note_on_c, 1, 60, 0
4, 20448, Note_on_c, 1, 58, 86
4, 20448, Note_on_c, 1, 50, 86
4, 20448, Note_on_c, 1, 46, 86
4, 20537, Note_on_c, 1, 58, 0
4, 20537, Note_on_c, 1, 50, 0
4, 20537, Note_on_c, 1, 46, 0
4, 20640, Note_on_c, 1, 64, 86
4, 20729, Note_on_c, 1, 64, 0
4, 20736, Note_on_c, 1, 57, 86
4, 20736, Note_on_c, 1, 48, 86
4, 20736, Note_on_c, 1, 45, 86
4, 20825, Note_on_c, 1, 57, 0
4, 20825, Note_on_c, 1, 48, 0
4, 20825, Note_on_c, 1, 45, 0
4, 20928, Note_on_c, 1, 64, 86
4, 21017, Note_on_c, 1, 64, 0
4, 21024, Note_on_c, 1, 51, 80
4, 21024, Note_on_c, 1, 39, 80
4, 21063, Note_on_c, 1, 51, 0
4, 21063, Note_on_c, 1, 39, 0
4, 21120, Note_on_c, 1, 52, 80
4, 21120, Note_on_c, 1, 40, 80
4, 21159, Note_on_c, 1, 52, 0
4, 21159, Note_on_c, 1, 40, 0
4, 21216, Note_on_c, 1, 52, 80
4, 21216, Note_on_c, 1, 40, 80
4, 21255, Note_on_c, 1, 52, 0
4, 21255, Note_on_c, 1, 40, 0
4, 21312, Note_on_c, 1, 45, 80
4, 21312, Note_on_c, 1, 33, 80
4, 21401, Note_on_c, 1, 45, 0
4, 21401, Note_on_c, 1, 33, 0
4, 21504, Note_on_c, 1, 43, 75
4, 21600, Note_on_c, 1, 43, 0
4, 21600, Note_on_c, 1, 42, 75
4, 21639, Note_on_c, 1, 42, 0
4, 21792, Note_on_c, 1, 66, 70
4, 21792, Note_on_c, 1, 57, 70
4, 21792, Note_on_c, 1, 50, 70
4, 21888, Note_on_c, 1, 66, 0
4, 21888, Note_on_c, 1, 57, 0
4, 21888, Note_on_c, 1, 50, 0
4, 21888, Note_on_c, 1, 43, 70
4, 21927, Note_on_c, 1, 43, 0
4, 22080, Note_on_c, 1, 62, 64
4, 22080, Note_on_c, 1, 55, 64
4, 22080, Note_on_c, 1, 53, 64
4, 22176, Note_on_c, 1, 62, 0
4, 22176, Note_on_c, 1, 55, 0
4, 22176, Note_on_c, 1, 53, 0
4, 22176, Note_on_c, 1, 52, 70
4, 22265, Note_on_c, 1, 52, 0
4, 22272, Note_on_c, 1, 60, 70
4, 22361, Note_on_c, 1, 60, 0
4, 22368, Note_on_c, 1, 64, 70
4, 22457, Note_on_c, 1, 64, 0
4, 22464, Note_on_c, 1, 66, 70
4, 22553, Note_on_c, 1, 66, 0
4, 22560, Note_on_c, 1, 67, 70
4, 22649, Note_on_c, 1, 67, 0
4, 22752, Note_on_c, 1, 64, 70
4, 22752, Note_on_c, 1, 60, 70
4, 22841, Note_on_c, 1, 64, 0
4, 22841, Note_on_c, 1, 60, 0
4, 22848, Note_on_c, 1, 64, 70
4, 22848, Note_on_c, 1, 60, 70
4, 22937, Note_on_c, 1, 64, 0
4, 22937, Note_on_c, 1, 60, 0
4, 22944, Note_on_c, 1, 64, 71
4, 22944, Note_on_c, 1, 60, 71
4, 23033, Note_on_c, 1, 64, 0
4, 23033, Note_on_c, 1, 60, 0
4, 23040, Note_on_c, 1, 65, 72
4, 23040, Note_on_c, 1, 60, 72
4, 23129, Note_on_c, 1, 65, 0
4, 23129, Note_on_c, 1, 60, 0
4, 23136, Note_on_c, 1, 65, 73
4, 23136, Note_on_c, 1, 60, 73
4, 23225, Note_on_c, 1, 65, 0
4, 23225, Note_on_c, 1, 60, 0
4, 23232, Note_on_c, 1, 65, 74
4, 23232, Note_on_c, 1, 60, 74
4, 23321, Note_on_c, 1, 65, 0
4, 23321, Note_on_c, 1, 60, 0
4, 23616, Note_on_c, 1, 60, 75
4, 23646, Note_on_c, 1, 60, 0
4, 23648, Note_on_c, 1, 55, 74
4, 23678, Note_on_c, 1, 55, 0
4, 23680, Note_on_c, 1, 52, 73
4, 23710, Note_on_c, 1, 52, 0
4, 23712, Note_on_c, 1, 60, 73
4, 23742, Note_on_c, 1, 60, 0
4, 23744, Note_on_c, 1, 55, 72
4, 23774, Note_on_c, 1, 55, 0
4, 23776, Note_on_c, 1, 52, 72
4, 23806, Note_on_c, 1, 52, 0
4, 23808, Note_on_c, 1, 60, 71
4, 23838, Note_on_c, 1, 60, 0
4, 23840, Note_on_c, 1, 55, 71
4, 23870, Note_on_c, 1, 55, 0
4, 23872, Note_on_c, 1, 52, 70
4, 23902, Note_on_c, 1, 52, 0
4, 23904, Note_on_c, 1, 55, 70
4, 23904, Note_on_c, 1, 43, 70
4, 24081, Note_on_c, 1, 55, 0
4, 24081, Note_on_c, 1, 43, 0
4, 24192, Note_on_c, 1, 55, 75
4, 24215, Note_on_c, 1, 55, 0
4, 24216, Note_on_c, 1, 50, 75
4, 24239, Note_on_c, 1, 50, 0
4, 24240, Note_on_c, 1, 47, 75
4, 24263, Note_on_c, 1, 47, 0
4, 24264, Note_on_c, 1, 50, 75
4, 24287, Note_on_c, 1, 50, 0
4, 24288, Note_on_c, 1, 55, 75
4, 24311, Note_on_c, 1, 55, 0
4, 24312, Note_on_c, 1, 50, 75
4, 24335, Note_on_c, 1, 50, 0
4, 24336, Note_on_c, 1, 47, 75
4, 24359, Note_on_c, 1, 47, 0
4, 24360, Note_on_c, 1, 50, 75
4, 24383, Note_on_c, 1, 50, 0
4, 24384, Note_on_c, 1, 55, 75
4, 24407, Note_on_c, 1, 55, 0
4, 24408, Note_on_c, 1, 50, 75
4, 24431, Note_on_c, 1, 50, 0
4, 24432, Note_on_c, 1, 47, 75
4, 24455, Note_on_c, 1, 47, 0
4, 24456, Note_on_c, 1, 50, 75
4, 24479, Note_on_c, 1, 50, 0
4, 24480, Note_on_c, 1, 55, 75
4, 24569, Note_on_c, 1, 55, 0
4, 24576, Note_on_c, 1, 55, 76
4, 24576, Note_on_c, 1, 53, 76
4, 24665, Note_on_c, 1, 55, 0
4, 24665, Note_on_c, 1, 53, 0
4, 24672, Note_on_c, 1, 55, 78
4, 24672, Note_on_c, 1, 52, 78
4, 24761, Note_on_c, 1, 55, 0
4, 24761, Note_on_c, 1, 52, 0
4, 24768, Note_on_c, 1, 62, 80
4, 24791, Note_on_c, 1, 62, 0
4, 24792, Note_on_c, 1, 57, 80
4, 24815, Note_on_c, 1, 57, 0
4, 24816, Note_on_c, 1, 53, 80
4, 24839, Note_on_c, 1, 53, 0
4, 24840, Note_on_c, 1, 57, 80
4, 24863, Note_on_c, 1, 57, 0
4, 24864, Note_on_c, 1, 62, 80
4, 24887, Note_on_c, 1, 62, 0
4, 24888, Note_on_c, 1, 57, 80
4, 24911, Note_on_c, 1, 57, 0
4, 24912, Note_on_c, 1, 53, 80
4, 24935, Note_on_c, 1, 53, 0
4, 24936, Note_on_c, 1, 57, 80
4, 24959, Note_on_c, 1, 57, 0
4, 24960, Note_on_c, 1, 62, 80
4, 24983, Note_on_c, 1, 62, 0
4, 24984, Note_on_c, 1, 57, 80
4, 25007, Note_on_c, 1, 57, 0
4, 25008, Note_on_c, 1, 53, 80
4, 25031, Note_on_c, 1, 53, 0
4, 25032, Note_on_c, 1, 57, 80
4, 25055, Note_on_c, 1, 57, 0
4, 25056, Note_on_c, 1, 62, 80
4, 25145, Note_on_c, 1, 62, 0
4, 25152, Note_on_c, 1, 64, 83
4, 25152, Note_on_c, 1, 62, 83
4, 25241, Note_on_c, 1, 64, 0
4, 25241, Note_on_c, 1, 62, 0
4, 25248, Note_on_c, 1, 64, 86
4, 25248, Note_on_c, 1, 60, 86
4, 25337, Note_on_c, 1, 64, 0
4, 25337, Note_on_c, 1, 60, 0
4, 25344, Note_on_c, 1, 58, 86
4, 25344, Note_on_c, 1, 50, 86
4, 25344, Note_on_c, 1, 46, 86
4, 25433, Note_on_c, 1, 58, 0
4, 25433, Note_on_c, 1, 50, 0
4, 25433, Note_on_c, 1, 46, 0
4, 25536, Note_on_c, 1, 64, 86
4, 25625, Note_on_c, 1, 64, 0
4, 25632, Note_on_c, 1, 57, 86
4, 25632, Note_on_c, 1, 48, 86
4, 25632, Note_on_c, 1, 45, 86
4, 25721, Note_on_c, 1, 57, 0
4, 25721, Note_on_c, 1, 48, 0
4, 25721, Note_on_c, 1, 45, 0
4, 25824, Note_on_c, 1, 64, 86
4, 25913, Note_on_c, 1, 64, 0
4, 25920, Note_on_c, 1, 51, 80
4, 25920, Note_on_c, 1, 39, 80
4, 25959, Note_on_c, 1, 51, 0
4, 25959, Note_on_c, 1, 39, 0
4, 26016, Note_on_c, 1, 52, 80
4, 26016, Note_on_c, 1, 40, 80
4, 26055, Note_on_c, 1, 52, 0
4, 26055, Note_on_c, 1, 40, 0
4, 26112, Note_on_c, 1, 52, 80
4, 26112, Note_on_c, 1, 40, 80
4, 26151, Note_on_c, 1, 52, 0
4, 26151, Note_on_c, 1, 40, 0
4, 26208, Note_on_c, 1, 45, 80
4, 26208, Note_on_c, 1, 33, 80
4, 26297, Note_on_c, 1, 45, 0
4, 26297, Note_on_c, 1, 33, 0
4, 26400, Note_on_c, 1, 43, 75
4, 26496, Note_on_c, 1, 43, 0
4, 26496, Note_on_c, 1, 42, 75
4, 26535, Note_on_c, 1, 42, 0
4, 26688, Note_on_c, 1, 66, 70
4, 26688, Note_on_c, 1, 57, 70
4, 26688, Note_on_c, 1, 50, 70
4, 26784, Note_on_c, 1, 66, 0
4, 26784, Note_on_c, 1, 57, 0
4, 26784, Note_on_c, 1, 50, 0
4, 26784, Note_on_c, 1, 43, 70
4, 26823, Note_on_c, 1, 43, 0
4, 26976, Note_on_c, 1, 62, 64
4, 26976, Note_on_c, 1, 55, 64
4, 26976, Note_on_c, 1, 53, 64
4, 27072, Note_on_c, 1, 62, 0
4, 27072, Note_on_c, 1, 55, 0
4, 27072, Note_on_c, 1, 53, 0
4, 27072, Note_on_c, 1, 52, 70
4, 27161, Note_on_c, 1, 52, 0
4, 27168, Note_on_c, 1, 60, 70
4, 27257, Note_on_c, 1, 60, 0
4, 27264, Note_on_c, 1, 64, 70
4, 27353, Note_on_c, 1, 64, 0
4, 27360, Note_on_c, 1, 66, 70
4, 27449, Note_on_c, 1, 66, 0
4, 27456, Note_on_c, 1, 67, 70
4, 27545, Note_on_c, 1, 67, 0
4, 27648, Note_on_c, 1, 64, 70
4, 27648, Note_on_c, 1, 60, 70
4, 27737, Note_on_c, 1, 64, 0
4, 27737, Note_on_c, 1, 60, 0
4, 27744, Note_on_c, 1, 64, 70
4, 27744, Note_on_c, 1, 60, 70
4, 27833, Note_on_c, 1, 64, 0
4, 27833, Note_on_c, 1, 60, 0
4, 27840, Note_on_c, 1, 64, 71
4, 27840, Note_on_c, 1, 60, 71
4, 27929, Note_on_c, 1, 64, 0
4, 27929, Note_on_c, 1, 60, 0
4, 27936, Note_on_c, 1, 65, 72
4, 27936, Note_on_c, 1, 60, 72
4, 28025, Note_on_c, 1, 65, 0
4, 28025, Note_on_c, 1, 60, 0
4, 28032, Note_on_c, 1, 65, 73
4, 28032, Note_on_c, 1, 60, 73
4, 28121, Note_on_c, 1, 65, 0
4, 28121, Note_on_c, 1, 60, 0
4, 28128, Note_on_c, 1, 65, 74
4, 28128, Note_on_c, 1, 60, 74
4, 28217, Note_on_c, 1, 65, 0
4, 28217, Note_on_c, 1, 60, 0
4, 28512, Note_on_c, 1, 60, 75
4, 28542, Note_on_c, 1, 60, 0
4, 28544, Note_on_c, 1, 55, 74
4, 28574, Note_on_c, 1, 55, 0
4, 28576, Note_on_c, 1, 52, 73
4, 28606, Note_on_c, 1, 52, 0
4, 28608, Note_on_c, 1, 60, 73
4, 28638, Note_on_c, 1, 60, 0
4, 28640, Note_on_c, 1, 55, 72
4, 28670, Note_on_c, 1, 55, 0
4, 28672, Note_on_c, 1, 52, 72
4, 28702, Note_on_c, 1, 52, 0
4, 28704, Note_on_c, 1, 60, 71
4, 28734, Note_on_c, 1, 60, 0
4, 28736, Note_on_c, 1, 55, 71
4, 28766, Note_on_c, 1, 55, 0
4, 28768, Note_on_c, 1, 52, 70
4, 28798, Note_on_c, 1, 52, 0
4, 28800, Note_on_c, 1, 55, 70
4, 28800, Note_on_c, 1, 43, 70
4, 28977, Note_on_c, 1, 55, 0
4, 28977, Note_on_c, 1, 43, 0
4, 28992, Note_on_c, 1, 60, 91
4, 28992, Note_on_c, 1, 48, 91
4, 29031, Note_on_c, 1, 60, 0
4, 29031, Note_on_c, 1, 48, 0
4, 29088, Note_on_c, 1, 62, 75
4, 29088, Note_on_c, 1, 50, 75
4, 29127, Note_on_c, 1, 62, 0
4, 29127, Note_on_c, 1, 50, 0
4, 29184, Note_on_c, 1, 63, 75
4, 29184, Note_on_c, 1, 51, 75
4, 29223, Note_on_c, 1, 63, 0
4, 29223, Note_on_c, 1, 51, 0
4, 29280, Note_on_c, 1, 59, 91
4, 29280, Note_on_c, 1, 47, 91
4, 29376, Note_on_c, 1, 59, 0
4, 29376, Note_on_c, 1, 47, 0
4, 29376, Note_on_c, 1, 60, 75
4, 29376, Note_on_c, 1, 48, 75
4, 29553, Note_on_c, 1, 60, 0
4, 29553, Note_on_c, 1, 48, 0
4, 29568, Note_on_c, 1, 59, 75
4, 29657, Note_on_c, 1, 59, 0
4, 29664, Note_on_c, 1, 60, 75
4, 29712, Note_on_c, 1, 60, 0
4, 29712, Note_on_c, 1, 53, 75
4, 29757, Note_on_c, 1, 53, 0
4, 29760, Note_on_c, 1, 55, 75
4, 29849, Note_on_c, 1, 55, 0
4, 29856, Note_on_c, 1, 43, 75
4, 29945, Note_on_c, 1, 43, 0
4, 29952, Note_on_c, 1, 48, 75
4, 30041, Note_on_c, 1, 48, 0
4, 30048, Note_on_c, 1, 36, 75
4, 30137, Note_on_c, 1, 36, 0
4, 30144, Note_on_c, 1, 64, 70
4, 30240, Note_on_c, 1, 64, 0
4, 30240, Note_on_c, 1, 65, 70
4, 30417, Note_on_c, 1, 65, 0
4, 30432, Note_on_c, 1, 62, 70
4, 30528, Note_on_c, 1, 62, 0
4, 30528, Note_on_c, 1, 63, 70
4, 30705, Note_on_c, 1, 63, 0
4, 30720, Note_on_c, 1, 54, 80
4, 30720, Note_on_c, 1, 42, 80
4, 30816, Note_on_c, 1, 54, 0
4, 30816, Note_on_c, 1, 42, 0
4, 30816, Note_on_c, 1, 55, 80
4, 30816, Note_on_c, 1, 43, 80
4, 30905, Note_on_c, 1, 55, 0
4, 30905, Note_on_c, 1, 43, 0
4, 30912, Note_on_c, 1, 56, 96
4, 30912, Note_on_c, 1, 44, 96
4, 31104, Note_on_c, 1, 56, 0
4, 31104, Note_on_c, 1, 44, 0
4, 31104, Note_on_c, 1, 55, 80
4, 31104, Note_on_c, 1, 43, 80
4, 31281, Note_on_c, 1, 55, 0
4, 31281, Note_on_c, 1, 43, 0
4, 31296, Note_on_c, 1, 60, 91
4, 31296, Note_on_c, 1, 48, 91
4, 31335, Note_on_c, 1, 60, 0
4, 31335, Note_on_c, 1, 48, 0
4, 31392, Note_on_c, 1, 62, 75
4, 31392, Note_on_c, 1, 50, 75
4, 31431, Note_on_c, 1, 62, 0
4, 31431, Note_on_c, 1, 50, 0
4, 31488, Note_on_c, 1, 63, 75
4, 31488, Note_on_c, 1, 51, 75
4, 31527, Note_on_c, 1, 63, 0
4, 31527, Note_on_c, 1, 51, 0
4, 31584, Note_on_c, 1, 59, 91
4, 31584, Note_on_c, 1, 47, 91
4, 31680, Note_on_c, 1, 59, 0
4, 31680, Note_on_c, 1, 47, 0
4, 31680, Note_on_c, 1, 60, 75
4, 31680, Note_on_c, 1, 48, 75
4, 31857, Note_on_c, 1, 60, 0
4, 31857, Note_on_c, 1, 48, 0
4, 31872, Note_on_c, 1, 59, 75
4, 31961, Note_on_c, 1, 59, 0
4, 31968, Note_on_c, 1, 60, 75
4, 32016, Note_on_c, 1, 60, 0
4, 32016, Note_on_c, 1, 53, 75
4, 32061, Note_on_c, 1, 53, 0
4, 32064, Note_on_c, 1, 55, 75
4, 32153, Note_on_c, 1, 55, 0
4, 32160, Note_on_c, 1, 43, 75
4, 32249, Note_on_c, 1, 43, 0
4, 32256, Note_on_c, 1, 48, 75
4, 32345, Note_on_c, 1, 48, 0
4, 32352, Note_on_c, 1, 36, 75
4, 32441, Note_on_c, 1, 36, 0
4, 32448, Note_on_c, 1, 64, 70
4, 32544, Note_on_c, 1, 64, 0
4, 32544, Note_on_c, 1, 65, 70
4, 32721, Note_on_c, 1, 65, 0
4, 32736, Note_on_c, 1, 62, 70
4, 32832, Note_on_c, 1, 62, 0
4, 32832, Note_on_c, 1, 63, 70
4, 33009, Note_on_c, 1, 63, 0
4, 33024, Note_on_c, 1, 54, 80
4, 33024, Note_on_c, 1, 42, 80
4, 33120, Note_on_c, 1, 54, 0
4, 33120, Note_on_c, 1, 42, 0
4, 33120, Note_on_c, 1, 55, 80
4, 33120, Note_on_c, 1, 43, 80
4, 33209, Note_on_c, 1, 55, 0
4, 33209, Note_on_c, 1, 43, 0
4, 33216, Note_on_c, 1, 56, 96
4, 33216, Note_on_c, 1, 44, 96
4, 33408, Note_on_c, 1, 56, 0
4, 33408, Note_on_c, 1, 44, 0
4, 33408, Note_on_c, 1, 55, 80
4, 33408, Note_on_c, 1, 43, 80
4, 33585, Note_on_c, 1, 55, 0
4, 33585, Note_on_c, 1, 43, 0
4, 33888, Note_on_c, 1, 51, 70
4, 33901, Note_on_c, 1, 51, 0
4, 33902, Note_on_c, 1, 53, 71
4, 33915, Note_on_c, 1, 53, 0
4, 33916, Note_on_c, 1, 51, 73
4, 33929, Note_on_c, 1, 51, 0
4, 33930, Note_on_c, 1, 53, 75
4, 33943, Note_on_c, 1, 53, 0
4, 33944, Note_on_c, 1, 51, 74
4, 33957, Note_on_c, 1, 51, 0
4, 33958, Note_on_c, 1, 50, 73
4, 33970, Note_on_c, 1, 50, 0
4, 33971, Note_on_c, 1, 51, 72
4, 33983, Note_on_c, 1, 51, 0
4, 33984, Note_on_c, 1, 50, 70
4, 34073, Note_on_c, 1, 50, 0
4, 34080, Note_on_c, 1, 65, 70
4, 34169, Note_on_c, 1, 65, 0
4, 34176, Note_on_c, 1, 65, 70
4, 34265, Note_on_c, 1, 65, 0
4, 34272, Note_on_c, 1, 63, 70
4, 34361, Note_on_c, 1, 63, 0
4, 34368, Note_on_c, 1, 55, 71
4, 34457, Note_on_c, 1, 55, 0
4, 34464, Note_on_c, 1, 56, 73
4, 34553, Note_on_c, 1, 56, 0
4, 34560, Note_on_c, 1, 58, 75
4, 34649, Note_on_c, 1, 58, 0
4, 34656, Note_on_c, 1, 56, 72
4, 34745, Note_on_c, 1, 56, 0
4, 34752, Note_on_c, 1, 55, 70
4, 34765, Note_on_c, 1, 55, 0
4, 34766, Note_on_c, 1, 56, 70
4, 34779, Note_on_c, 1, 56, 0
4, 34780, Note_on_c, 1, 55, 70
4, 34793, Note_on_c, 1, 55, 0
4, 34794, Note_on_c, 1, 56, 70
4, 34807, Note_on_c, 1, 56, 0
4, 34808, Note_on_c, 1, 55, 70
4, 34821, Note_on_c, 1, 55, 0
4, 34822, Note_on_c, 1, 53, 71
4, 34834, Note_on_c, 1, 53, 0
4, 34835, Note_on_c, 1, 55, 71
4, 34847, Note_on_c, 1, 55, 0
4, 34848, Note_on_c, 1, 56, 71
4, 34937, Note_on_c, 1, 56, 0
4, 34944, Note_on_c, 1, 44, 73
4, 35033, Note_on_c, 1, 44, 0
4, 35040, Note_on_c, 1, 57, 74
4, 35053, Note_on_c, 1, 57, 0
4, 35054, Note_on_c, 1, 58, 75
4, 35067, Note_on_c, 1, 58, 0
4, 35068, Note_on_c, 1, 57, 75
4, 35081, Note_on_c, 1, 57, 0
4, 35082, Note_on_c, 1, 58, 75
4, 35095, Note_on_c, 1, 58, 0
4, 35096, Note_on_c, 1, 57, 75
4, 35109, Note_on_c, 1, 57, 0
4, 35110, Note_on_c, 1, 55, 75
4, 35122, Note_on_c, 1, 55, 0
4, 35123, Note_on_c, 1, 57, 76
4, 35135, Note_on_c, 1, 57, 0
4, 35136, Note_on_c, 1, 58, 76
4, 35225, Note_on_c, 1, 58, 0
4, 35232, Note_on_c, 1, 46, 77
4, 35321, Note_on_c, 1, 46, 0
4, 35328, Note_on_c, 1, 53, 80
4, 35343, Note_on_c, 1, 53, 0
4, 35344, Note_on_c, 1, 51, 80
4, 35359, Note_on_c, 1, 51, 0
4, 35360, Note_on_c, 1, 53, 80
4, 35375, Note_on_c, 1, 53, 0
4, 35376, Note_on_c, 1, 51, 80
4, 35391, Note_on_c, 1, 51, 0
4, 35392, Note_on_c, 1, 50, 80
4, 35407, Note_on_c, 1, 50, 0
4, 35408, Note_on_c, 1, 51, 80
4, 35423, Note_on_c, 1, 51, 0
4, 35424, Note_on_c, 1, 44, 80
4, 35513, Note_on_c, 1, 44, 0
4, 35616, Note_on_c, 1, 46, 80
4, 35655, Note_on_c, 1, 46, 0
4, 35712, Note_on_c, 1, 51, 80
4, 35801, Note_on_c, 1, 51, 0
4, 35808, Note_on_c, 1, 39, 80
4, 35897, Note_on_c, 1, 39, 0
4, 36192, Note_on_c, 1, 56, 80
4, 36192, Note_on_c, 1, 53, 80
4, 36288, Note_on_c, 1, 56, 0
4, 36288, Note_on_c, 1, 53, 0
4, 36288, Note_on_c, 1, 55, 80
4, 36288, Note_on_c, 1, 52, 80
4, 36377, Note_on_c, 1, 55, 0
4, 36377, Note_on_c, 1, 52, 0
4, 36480, Note_on_c, 1, 41, 80
4, 36495, Note_on_c, 1, 41, 0
4, 36496, Note_on_c, 1, 40, 80
4, 36511, Note_on_c, 1, 40, 0
4, 36512, Note_on_c, 1, 41, 80
4, 36527, Note_on_c, 1, 41, 0
4, 36528, Note_on_c, 1, 40, 80
4, 36543, Note_on_c, 1, 40, 0
4, 36544, Note_on_c, 1, 38, 80
4, 36559, Note_on_c, 1, 38, 0
4, 36560, Note_on_c, 1, 40, 80
4, 36575, Note_on_c, 1, 40, 0
4, 36576, Note_on_c, 1, 41, 80
4, 36615, Note_on_c, 1, 41, 0
4, 36672, Note_on_c, 1, 49, 80
4, 36711, Note_on_c, 1, 49, 0
4, 36768, Note_on_c, 1, 43, 80
4, 36783, Note_on_c, 1, 43, 0
4, 36784, Note_on_c, 1, 42, 80
4, 36799, Note_on_c, 1, 42, 0
4, 36800, Note_on_c, 1, 43, 80
4, 36815, Note_on_c, 1, 43, 0
4, 36816, Note_on_c, 1, 42, 80
4, 36831, Note_on_c, 1, 42, 0
4, 36832, Note_on_c, 1, 39, 80
4, 36847, Note_on_c, 1, 39, 0
4, 36848, Note_on_c, 1, 41, 80
4, 36863, Note_on_c, 1, 41, 0
4, 36864, Note_on_c, 1, 43, 80
4, 36903, Note_on_c, 1, 43, 0
4, 36960, Note_on_c, 1, 51, 80
4, 36999, Note_on_c, 1, 51, 0
4, 37056, Note_on_c, 1, 48, 80
4, 37071, Note_on_c, 1, 48, 0
4, 37072, Note_on_c, 1, 47, 80
4, 37087, Note_on_c, 1, 47, 0
4, 37088, Note_on_c, 1, 48, 80
4, 37103, Note_on_c, 1, 48, 0
4, 37104, Note_on_c, 1, 47, 80
4, 37119, Note_on_c, 1, 47, 0
4, 37120, Note_on_c, 1, 45, 80
4, 37135, Note_on_c, 1, 45, 0
4, 37136, Note_on_c, 1, 47, 80
4, 37151, Note_on_c, 1, 47, 0
4, 37152, Note_on_c, 1, 48, 80
4, 37191, Note_on_c, 1, 48, 0
4, 37632, Note_on_c, 1, 59, 70
4, 37728, Note_on_c, 1, 59, 0
4, 37728, Note_on_c, 1, 60, 70
4, 37795, Note_on_c, 1, 60, 0
4, 37800, Note_on_c, 1, 53, 70
4, 37823, Note_on_c, 1, 53, 0
4, 37824, Note_on_c, 1, 52, 70
4, 37869, Note_on_c, 1, 52, 0
4, 37872, Note_on_c, 1, 53, 70
4, 37917, Note_on_c, 1, 53, 0
4, 37920, Note_on_c, 1, 54, 70
4, 37965, Note_on_c, 1, 54, 0
4, 37968, Note_on_c, 1, 55, 70
4, 38013, Note_on_c, 1, 55, 0
4, 38016, Note_on_c, 1, 56, 70
4, 38055, Note_on_c, 1, 56, 0
4, 38112, Note_on_c, 1, 55, 70
4, 38201, Note_on_c, 1, 55, 0
4, 38208, Note_on_c, 1, 43, 70
4, 38297, Note_on_c, 1, 43, 0
4, 38304, Note_on_c, 1, 48, 70
4, 38393, Note_on_c, 1, 48, 0
4, 38400, Note_on_c, 1, 36, 70
4, 38489, Note_on_c, 1, 36, 0
4, 38784, Note_on_c, 1, 51, 70
4, 38797, Note_on_c, 1, 51, 0
4, 38798, Note_on_c, 1, 53, 71
4, 38811, Note_on_c, 1, 53, 0
4, 38812, Note_on_c, 1, 51, 73
4, 38825, Note_on_c, 1, 51, 0
4, 38826, Note_on_c, 1, 53, 75
4, 38839, Note_on_c, 1, 53, 0
4, 38840, Note_on_c, 1, 51, 74
4, 38853, Note_on_c, 1, 51, 0
4, 38854, Note_on_c, 1, 50, 73
4, 38866, Note_on_c, 1, 50, 0
4, 38867, Note_on_c, 1, 51, 72
4, 38879, Note_on_c, 1, 51, 0
4, 38880, Note_on_c, 1, 50, 70
4, 38969, Note_on_c, 1, 50, 0
4, 38976, Note_on_c, 1, 65, 70
4, 39065, Note_on_c, 1, 65, 0
4, 39072, Note_on_c, 1, 65, 70
4, 39161, Note_on_c, 1, 65, 0
4, 39168, Note_on_c, 1, 63, 70
4, 39257, Note_on_c, 1, 63, 0
4, 39264, Note_on_c, 1, 55, 71
4, 39353, Note_on_c, 1, 55, 0
4, 39360, Note_on_c, 1, 56, 73
4, 39449, Note_on_c, 1, 56, 0
4, 39456, Note_on_c, 1, 58, 75
4, 39545, Note_on_c, 1, 58, 0
4, 39552, Note_on_c, 1, 56, 72
4, 39641, Note_on_c, 1, 56, 0
4, 39648, Note_on_c, 1, 55, 70
4, 39661, Note_on_c, 1, 55, 0
4, 39662, Note_on_c, 1, 56, 70
4, 39675, Note_on_c, 1, 56, 0
4, 39676, Note_on_c, 1, 55, 70
4, 39689, Note_on_c, 1, 55, 0
4, 39690, Note_on_c, 1, 56, 70
4, 39703, Note_on_c, 1, 56, 0
4, 39704, Note_on_c, 1, 55, 70
4, 39717, Note_on_c, 1, 55, 0
4, 39718, Note_on_c, 1, 53, 71
4, 39730, Note_on_c, 1, 53, 0
4, 39731, Note_on_c, 1, 55, 71
4, 39743, Note_on_c, 1, 55, 0
4, 39744, Note_on_c, 1, 56, 71
4, 39833, Note_on_c, 1, 56, 0
4, 39840, Note_on_c, 1, 44, 73
4, 39929, Note_on_c, 1, 44, 0
4, 39936, Note_on_c, 1, 57, 74
4, 39949, Note_on_c, 1, 57, 0
4, 39950, Note_on_c, 1, 58, 75
4, 39963, Note_on_c, 1, 58, 0
4, 39964, Note_on_c, 1, 57, 75
4, 39977, Note_on_c, 1, 57, 0
4, 39978, Note_on_c, 1, 58, 75
4, 39991, Note_on_c, 1, 58, 0
4, 39992, Note_on_c, 1, 57, 75
4, 40005, Note_on_c, 1, 57, 0
4, 40006, Note_on_c, 1, 55, 75
4, 40018, Note_on_c, 1, 55, 0
4, 40019, Note_on_c, 1, 57, 76
4, 40031, Note_on_c, 1, 57, 0
4, 40032, Note_on_c, 1, 58, 76
4, 40121, Note_on_c, 1, 58, 0
4, 40128, Note_on_c, 1, 46, 77
4, 40217, Note_on_c, 1, 46, 0
4, 40224, Note_on_c, 1, 53, 80
4, 40239, Note_on_c, 1, 53, 0
4, 40240, Note_on_c, 1, 51, 80
4, 40255, Note_on_c, 1, 51, 0
4, 40256, Note_on_c, 1, 53, 80
4, 40271, Note_on_c, 1, 53, 0
4, 40272, Note_on_c, 1, 51, 80
4, 40287, Note_on_c, 1, 51, 0
4, 40288, Note_on_c, 1, 50, 80
4, 40303, Note_on_c, 1, 50, 0
4, 40304, Note_on_c, 1, 51, 80
4, 40319, Note_on_c, 1, 51, 0
4, 40320, Note_on_c, 1, 44, 80
4, 40409, Note_on_c, 1, 44, 0
4, 40512, Note_on_c, 1, 46, 80
4, 40551, Note_on_c, 1, 46, 0
4, 40608, Note_on_c, 1, 51, 80
4, 40697, Note_on_c, 1, 51, 0
4, 40704, Note_on_c, 1, 39, 80
4, 40793, Note_on_c, 1, 39, 0
4, 41088, Note_on_c, 1, 56, 80
4, 41088, Note_on_c, 1, 53, 80
4, 41184, Note_on_c, 1, 56, 0
4, 41184, Note_on_c, 1, 53, 0
4, 41184, Note_on_c, 1, 55, 80
4, 41184, Note_on_c, 1, 52, 80
4, 41273, Note_on_c, 1, 55, 0
4, 41273, Note_on_c, 1, 52, 0
4, 41376, Note_on_c, 1, 41, 80
4, 41391, Note_on_c, 1, 41, 0
4, 41392, Note_on_c, 1, 40, 80
4, 41407, Note_on_c, 1, 40, 0
4, 41408, Note_on_c, 1, 41, 80
4, 41423, Note_on_c, 1, 41, 0
4, 41424, Note_on_c, 1, 40, 80
4, 41439, Note_on_c, 1, 40, 0
4, 41440, Note_on_c, 1, 38, 80
4, 41455, Note_on_c, 1, 38, 0
4, 41456, Note_on_c, 1, 40, 80
4, 41471, Note_on_c, 1, 40, 0
4, 41472, Note_on_c, 1, 41, 80
4, 41511, Note_on_c, 1, 41, 0
4, 41568, Note_on_c, 1, 49, 80
4, 41607, Note_on_c, 1, 49, 0
4, 41664, Note_on_c, 1, 43, 80
4, 41679, Note_on_c, 1, 43, 0
4, 41680, Note_on_c, 1, 42, 80
4, 41695, Note_on_c, 1, 42, 0
4, 41696, Note_on_c, 1, 43, 80
4, 41711, Note_on_c, 1, 43, 0
4, 41712, Note_on_c, 1, 42, 80
4, 41727, Note_on_c, 1, 42, 0
4, 41728, Note_on_c, 1, 39, 80
4, 41743, Note_on_c, 1, 39, 0
4, 41744, Note_on_c, 1, 41, 80
4, 41759, Note_on_c, 1, 41, 0
4, 41760, Note_on_c, 1, 43, 80
4, 41799, Note_on_c, 1, 43, 0
4, 41856, Note_on_c, 1, 51, 80
4, 41895, Note_on_c, 1, 51, 0
4, 41952, Note_on_c, 1, 48, 80
4, 41967, Note_on_c, 1, 48, 0
4, 41968, Note_on_c, 1, 47, 80
4, 41983, Note_on_c, 1, 47, 0
4, 41984, Note_on_c, 1, 48, 80
4, 41999, Note_on_c, 1, 48, 0
4, 42000, Note_on_c, 1, 47, 80
4, 42015, Note_on_c, 1, 47, 0
4, 42016, Note_on_c, 1, 45, 80
4, 42031, Note_on_c, 1, 45, 0
4, 42032, Note_on_c, 1, 47, 80
4, 42047, Note_on_c, 1, 47, 0
4, 42048, Note_on_c, 1, 48, 80
4, 42087, Note_on_c, 1, 48, 0
4, 42528, Note_on_c, 1, 59, 70
4, 42624, Note_on_c, 1, 59, 0
4, 42624, Note_on_c, 1, 60, 70
4, 42691, Note_on_c, 1, 60, 0
4, 42696, Note_on_c, 1, 53, 70
4, 42719, Note_on_c, 1, 53, 0
4, 42720, Note_on_c, 1, 52, 70
4, 42765, Note_on_c, 1, 52, 0
4, 42768, Note_on_c, 1, 53, 70
4, 42813, Note_on_c, 1, 53, 0
4, 42816, Note_on_c, 1, 54, 70
4, 42861, Note_on_c, 1, 54, 0
4, 42864, Note_on_c, 1, 55, 70
4, 42909, Note_on_c, 1, 55, 0
4, 42912, Note_on_c, 1, 56, 70
4, 42951, Note_on_c, 1, 56, 0
4, 43008, Note_on_c, 1, 55, 70
4, 43097, Note_on_c, 1, 55, 0
4, 43104, Note_on_c, 1, 43, 70
4, 43193, Note_on_c, 1, 43, 0
4, 43200, Note_on_c, 1, 48, 70
4, 43289, Note_on_c, 1, 48, 0
4, 43296, Note_on_c, 1, 36, 70
4, 43385, Note_on_c, 1, 36, 0
4, 43392, Note_on_c, 1, 36, 0
4, 43481, Note_on_c, 1, 36, 0
4, 43488, End_track
5, 0, Start_track
5, 0, Program_c, 1, 0
5, 0, Control_c, 1, 7, 127
5, 0, Control_c, 1, 10, 64
5, 43488, End_track
6, 0, Start_track
6, 0, Title_t, "Sonata I   Haydn  "
6, 0, End_track
0, 0, End_of_file
