0, 0, Header, 1, 6, 96
1, 0, Start_track
1, 0, Copyright_t, "Copyright  1994-2002 Mozart Music Software"
1, 0, Text_t, "Sonata I\015\012"
1, 0, Text_t, "Haydn\015\012"
1, 0, Sequencer_specific, 16, 68, 87, 77, 90, 86, 82, 83, 78, 32, 55, 46, 48, 46, 55, 46, 48
1, 0, Time_signature, 3, 2, 24, 8
1, 0, Tempo, 461538
1, 0, Key_signature, 2, "major"
1, 21888, Key_signature, 0, "major"
1, 28224, Key_signature, 0, "major"
1, 50688, Key_signature, 2, "major"
1, 55872, Key_signature, 2, "major"
1, 72576, End_track
2, 0, Start_track
2, 0, Program_c, 0, 0
2, 0, Control_c, 0, 7, 127
2, 0, Control_c, 0, 10, 64
2, 0, Note_on_c, 0, 62, 91
2, 96, Note_on_c, 0, 62, 0
2, 96, Note_on_c, 0, 66, 75
2, 108, Note_on_c, 0, 66, 0
2, 108, Note_on_c, 0, 67, 75
2, 120, Note_on_c, 0, 67, 0
2, 120, Note_on_c, 0, 66, 75
2, 163, Note_on_c, 0, 66, 0
2, 168, Note_on_c, 0, 64, 75
2, 191, Note_on_c, 0, 64, 0
2, 192, Note_on_c, 0, 66, 75
2, 259, Note_on_c, 0, 66, 0
2, 264, Note_on_c, 0, 67, 75
2, 287, Note_on_c, 0, 67, 0
2, 288, Note_on_c, 0, 69, 75
2, 377, Note_on_c, 0, 69, 0
2, 384, Note_on_c, 0, 66, 75
2, 396, Note_on_c, 0, 66, 0
2, 396, Note_on_c, 0, 67, 75
2, 408, Note_on_c, 0, 67, 0
2, 408, Note_on_c, 0, 66, 75
2, 451, Note_on_c, 0, 66, 0
2, 456, Note_on_c, 0, 64, 75
2, 479, Note_on_c, 0, 64, 0
2, 480, Note_on_c, 0, 66, 75
2, 547, Note_on_c, 0, 66, 0
2, 552, Note_on_c, 0, 67, 75
2, 575, Note_on_c, 0, 67, 0
2, 576, Note_on_c, 0, 69, 75
2, 665, Note_on_c, 0, 69, 0
2, 672, Note_on_c, 0, 57, 75
2, 702, Note_on_c, 0, 57, 0
2, 704, Note_on_c, 0, 62, 75
2, 734, Note_on_c, 0, 62, 0
2, 736, Note_on_c, 0, 66, 75
2, 766, Note_on_c, 0, 66, 0
2, 768, Note_on_c, 0, 64, 75
2, 791, Note_on_c, 0, 64, 0
2, 792, Note_on_c, 0, 62, 75
2, 815, Note_on_c, 0, 62, 0
2, 816, Note_on_c, 0, 61, 75
2, 839, Note_on_c, 0, 61, 0
2, 840, Note_on_c, 0, 59, 75
2, 863, Note_on_c, 0, 59, 0
2, 864, Note_on_c, 0, 57, 75
2, 953, Note_on_c, 0, 57, 0
2, 960, Note_on_c, 0, 55, 75
2, 973, Note_on_c, 0, 55, 0
2, 974, Note_on_c, 0, 57, 75
2, 987, Note_on_c, 0, 57, 0
2, 988, Note_on_c, 0, 55, 75
2, 1001, Note_on_c, 0, 55, 0
2, 1002, Note_on_c, 0, 57, 75
2, 1015, Note_on_c, 0, 57, 0
2, 1016, Note_on_c, 0, 55, 75
2, 1029, Note_on_c, 0, 55, 0
2, 1030, Note_on_c, 0, 54, 75
2, 1042, Note_on_c, 0, 54, 0
2, 1043, Note_on_c, 0, 55, 75
2, 1055, Note_on_c, 0, 55, 0
2, 1056, Note_on_c, 0, 54, 75
2, 1145, Note_on_c, 0, 54, 0
2, 1152, Note_on_c, 0, 59, 75
2, 1164, Note_on_c, 0, 59, 0
2, 1164, Note_on_c, 0, 61, 75
2, 1176, Note_on_c, 0, 61, 0
2, 1176, Note_on_c, 0, 59, 75
2, 1219, Note_on_c, 0, 59, 0
2, 1224, Note_on_c, 0, 57, 75
2, 1247, Note_on_c, 0, 57, 0
2, 1248, Note_on_c, 0, 59, 75
2, 1315, Note_on_c, 0, 59, 0
2, 1320, Note_on_c, 0, 61, 75
2, 1343, Note_on_c, 0, 61, 0
2, 1344, Note_on_c, 0, 62, 75
2, 1411, Note_on_c, 0, 62, 0
2, 1416, Note_on_c, 0, 57, 75
2, 1439, Note_on_c, 0, 57, 0
2, 1440, Note_on_c, 0, 57, 75
2, 1507, Note_on_c, 0, 57, 0
2, 1512, Note_on_c, 0, 55, 75
2, 1535, Note_on_c, 0, 55, 0
2, 1536, Note_on_c, 0, 67, 75
2, 1566, Note_on_c, 0, 67, 0
2, 1568, Note_on_c, 0, 64, 75
2, 1598, Note_on_c, 0, 64, 0
2, 1600, Note_on_c, 0, 61, 75
2, 1630, Note_on_c, 0, 61, 0
2, 1632, Note_on_c, 0, 64, 75
2, 1644, Note_on_c, 0, 64, 0
2, 1644, Note_on_c, 0, 62, 75
2, 1656, Note_on_c, 0, 62, 0
2, 1656, Note_on_c, 0, 61, 75
2, 1668, Note_on_c, 0, 61, 0
2, 1668, Note_on_c, 0, 62, 75
2, 1721, Note_on_c, 0, 62, 0
2, 1728, Note_on_c, 0, 59, 75
2, 1817, Note_on_c, 0, 59, 0
2, 1824, Note_on_c, 0, 70, 91
2, 1856, Note_on_c, 0, 70, 0
2, 1856, Note_on_c, 0, 71, 76
2, 1886, Note_on_c, 0, 71, 0
2, 1888, Note_on_c, 0, 69, 78
2, 1918, Note_on_c, 0, 69, 0
2, 1920, Note_on_c, 0, 67, 79
2, 1950, Note_on_c, 0, 67, 0
2, 1952, Note_on_c, 0, 66, 78
2, 1982, Note_on_c, 0, 66, 0
2, 1984, Note_on_c, 0, 64, 77
2, 2014, Note_on_c, 0, 64, 0
2, 2016, Note_on_c, 0, 62, 75
2, 2208, Note_on_c, 0, 62, 0
2, 2208, Note_on_c, 0, 61, 75
2, 2297, Note_on_c, 0, 61, 0
2, 2304, Note_on_c, 0, 81, 75
2, 2334, Note_on_c, 0, 81, 0
2, 2336, Note_on_c, 0, 85, 76
2, 2366, Note_on_c, 0, 85, 0
2, 2368, Note_on_c, 0, 88, 78
2, 2398, Note_on_c, 0, 88, 0
2, 2400, Note_on_c, 0, 86, 79
2, 2430, Note_on_c, 0, 86, 0
2, 2432, Note_on_c, 0, 85, 78
2, 2462, Note_on_c, 0, 85, 0
2, 2464, Note_on_c, 0, 83, 77
2, 2494, Note_on_c, 0, 83, 0
2, 2496, Note_on_c, 0, 81, 75
2, 2526, Note_on_c, 0, 81, 0
2, 2528, Note_on_c, 0, 80, 75
2, 2558, Note_on_c, 0, 80, 0
2, 2560, Note_on_c, 0, 78, 75
2, 2637, Note_on_c, 0, 78, 0
2, 2640, Note_on_c, 0, 76, 75
2, 2729, Note_on_c, 0, 76, 0
2, 2736, Note_on_c, 0, 74, 75
2, 2825, Note_on_c, 0, 74, 0
2, 2832, Note_on_c, 0, 73, 75
2, 2877, Note_on_c, 0, 73, 0
2, 2880, Note_on_c, 0, 71, 75
2, 2910, Note_on_c, 0, 71, 0
2, 2912, Note_on_c, 0, 74, 76
2, 2942, Note_on_c, 0, 74, 0
2, 2944, Note_on_c, 0, 73, 77
2, 2974, Note_on_c, 0, 73, 0
2, 2976, Note_on_c, 0, 74, 78
2, 3006, Note_on_c, 0, 74, 0
2, 3008, Note_on_c, 0, 78, 79
2, 3038, Note_on_c, 0, 78, 0
2, 3040, Note_on_c, 0, 76, 79
2, 3070, Note_on_c, 0, 76, 0
2, 3072, Note_on_c, 0, 74, 78
2, 3102, Note_on_c, 0, 74, 0
2, 3104, Note_on_c, 0, 73, 77
2, 3134, Note_on_c, 0, 73, 0
2, 3136, Note_on_c, 0, 71, 76
2, 3166, Note_on_c, 0, 71, 0
2, 3168, Note_on_c, 0, 69, 75
2, 3213, Note_on_c, 0, 69, 0
2, 3216, Note_on_c, 0, 68, 75
2, 3305, Note_on_c, 0, 68, 0
2, 3312, Note_on_c, 0, 71, 75
2, 3401, Note_on_c, 0, 71, 0
2, 3408, Note_on_c, 0, 69, 75
2, 3453, Note_on_c, 0, 69, 0
2, 3456, Note_on_c, 0, 64, 75
2, 3486, Note_on_c, 0, 64, 0
2, 3488, Note_on_c, 0, 74, 76
2, 3518, Note_on_c, 0, 74, 0
2, 3520, Note_on_c, 0, 73, 78
2, 3550, Note_on_c, 0, 73, 0
2, 3552, Note_on_c, 0, 74, 79
2, 3582, Note_on_c, 0, 74, 0
2, 3584, Note_on_c, 0, 71, 78
2, 3614, Note_on_c, 0, 71, 0
2, 3616, Note_on_c, 0, 68, 77
2, 3646, Note_on_c, 0, 68, 0
2, 3648, Note_on_c, 0, 71, 75
2, 3660, Note_on_c, 0, 71, 0
2, 3660, Note_on_c, 0, 69, 75
2, 3672, Note_on_c, 0, 69, 0
2, 3672, Note_on_c, 0, 68, 75
2, 3684, Note_on_c, 0, 68, 0
2, 3684, Note_on_c, 0, 69, 75
2, 3737, Note_on_c, 0, 69, 0
2, 3744, Note_on_c, 0, 64, 64
2, 3774, Note_on_c, 0, 64, 0
2, 3776, Note_on_c, 0, 74, 64
2, 3806, Note_on_c, 0, 74, 0
2, 3808, Note_on_c, 0, 73, 69
2, 3838, Note_on_c, 0, 73, 0
2, 3840, Note_on_c, 0, 74, 74
2, 3870, Note_on_c, 0, 74, 0
2, 3872, Note_on_c, 0, 71, 72
2, 3902, Note_on_c, 0, 71, 0
2, 3904, Note_on_c, 0, 68, 68
2, 3934, Note_on_c, 0, 68, 0
2, 3936, Note_on_c, 0, 71, 64
2, 3948, Note_on_c, 0, 71, 0
2, 3948, Note_on_c, 0, 69, 64
2, 3960, Note_on_c, 0, 69, 0
2, 3960, Note_on_c, 0, 68, 64
2, 3972, Note_on_c, 0, 68, 0
2, 3972, Note_on_c, 0, 69, 64
2, 4025, Note_on_c, 0, 69, 0
2, 4032, Note_on_c, 0, 66, 75
2, 4062, Note_on_c, 0, 66, 0
2, 4064, Note_on_c, 0, 71, 75
2, 4094, Note_on_c, 0, 71, 0
2, 4096, Note_on_c, 0, 70, 75
2, 4126, Note_on_c, 0, 70, 0
2, 4128, Note_on_c, 0, 71, 75
2, 4158, Note_on_c, 0, 71, 0
2, 4160, Note_on_c, 0, 74, 75
2, 4190, Note_on_c, 0, 74, 0
2, 4192, Note_on_c, 0, 73, 76
2, 4222, Note_on_c, 0, 73, 0
2, 4224, Note_on_c, 0, 74, 77
2, 4254, Note_on_c, 0, 74, 0
2, 4256, Note_on_c, 0, 76, 77
2, 4286, Note_on_c, 0, 76, 0
2, 4288, Note_on_c, 0, 78, 78
2, 4318, Note_on_c, 0, 78, 0
2, 4320, Note_on_c, 0, 76, 79
2, 4350, Note_on_c, 0, 76, 0
2, 4352, Note_on_c, 0, 74, 79
2, 4382, Note_on_c, 0, 74, 0
2, 4384, Note_on_c, 0, 73, 79
2, 4414, Note_on_c, 0, 73, 0
2, 4416, Note_on_c, 0, 71, 79
2, 4446, Note_on_c, 0, 71, 0
2, 4448, Note_on_c, 0, 69, 78
2, 4478, Note_on_c, 0, 69, 0
2, 4480, Note_on_c, 0, 68, 77
2, 4510, Note_on_c, 0, 68, 0
2, 4512, Note_on_c, 0, 69, 77
2, 4542, Note_on_c, 0, 69, 0
2, 4544, Note_on_c, 0, 64, 76
2, 4574, Note_on_c, 0, 64, 0
2, 4576, Note_on_c, 0, 61, 76
2, 4606, Note_on_c, 0, 61, 0
2, 4608, Note_on_c, 0, 66, 75
2, 4638, Note_on_c, 0, 66, 0
2, 4640, Note_on_c, 0, 64, 75
2, 4670, Note_on_c, 0, 64, 0
2, 4672, Note_on_c, 0, 62, 75
2, 4702, Note_on_c, 0, 62, 0
2, 4704, Note_on_c, 0, 61, 75
2, 4793, Note_on_c, 0, 61, 0
2, 4800, Note_on_c, 0, 59, 75
2, 4813, Note_on_c, 0, 59, 0
2, 4814, Note_on_c, 0, 61, 75
2, 4827, Note_on_c, 0, 61, 0
2, 4828, Note_on_c, 0, 59, 75
2, 4841, Note_on_c, 0, 59, 0
2, 4842, Note_on_c, 0, 61, 75
2, 4855, Note_on_c, 0, 61, 0
2, 4856, Note_on_c, 0, 59, 75
2, 4869, Note_on_c, 0, 59, 0
2, 4870, Note_on_c, 0, 57, 75
2, 4882, Note_on_c, 0, 57, 0
2, 4883, Note_on_c, 0, 59, 75
2, 4895, Note_on_c, 0, 59, 0
2, 4896, Note_on_c, 0, 57, 75
2, 5073, Note_on_c, 0, 57, 0
2, 5184, Note_on_c, 0, 62, 91
2, 5280, Note_on_c, 0, 62, 0
2, 5280, Note_on_c, 0, 66, 75
2, 5292, Note_on_c, 0, 66, 0
2, 5292, Note_on_c, 0, 67, 75
2, 5304, Note_on_c, 0, 67, 0
2, 5304, Note_on_c, 0, 66, 75
2, 5347, Note_on_c, 0, 66, 0
2, 5352, Note_on_c, 0, 64, 75
2, 5375, Note_on_c, 0, 64, 0
2, 5376, Note_on_c, 0, 66, 75
2, 5443, Note_on_c, 0, 66, 0
2, 5448, Note_on_c, 0, 67, 75
2, 5471, Note_on_c, 0, 67, 0
2, 5472, Note_on_c, 0, 69, 75
2, 5561, Note_on_c, 0, 69, 0
2, 5568, Note_on_c, 0, 66, 75
2, 5580, Note_on_c, 0, 66, 0
2, 5580, Note_on_c, 0, 67, 75
2, 5592, Note_on_c, 0, 67, 0
2, 5592, Note_on_c, 0, 66, 75
2, 5635, Note_on_c, 0, 66, 0
2, 5640, Note_on_c, 0, 64, 75
2, 5663, Note_on_c, 0, 64, 0
2, 5664, Note_on_c, 0, 66, 75
2, 5731, Note_on_c, 0, 66, 0
2, 5736, Note_on_c, 0, 67, 75
2, 5759, Note_on_c, 0, 67, 0
2, 5760, Note_on_c, 0, 69, 75
2, 5849, Note_on_c, 0, 69, 0
2, 5856, Note_on_c, 0, 57, 75
2, 5886, Note_on_c, 0, 57, 0
2, 5888, Note_on_c, 0, 62, 75
2, 5918, Note_on_c, 0, 62, 0
2, 5920, Note_on_c, 0, 66, 75
2, 5950, Note_on_c, 0, 66, 0
2, 5952, Note_on_c, 0, 64, 75
2, 5975, Note_on_c, 0, 64, 0
2, 5976, Note_on_c, 0, 62, 75
2, 5999, Note_on_c, 0, 62, 0
2, 6000, Note_on_c, 0, 61, 75
2, 6023, Note_on_c, 0, 61, 0
2, 6024, Note_on_c, 0, 59, 75
2, 6047, Note_on_c, 0, 59, 0
2, 6048, Note_on_c, 0, 57, 75
2, 6137, Note_on_c, 0, 57, 0
2, 6144, Note_on_c, 0, 55, 75
2, 6157, Note_on_c, 0, 55, 0
2, 6158, Note_on_c, 0, 57, 75
2, 6171, Note_on_c, 0, 57, 0
2, 6172, Note_on_c, 0, 55, 75
2, 6185, Note_on_c, 0, 55, 0
2, 6186, Note_on_c, 0, 57, 75
2, 6199, Note_on_c, 0, 57, 0
2, 6200, Note_on_c, 0, 55, 75
2, 6213, Note_on_c, 0, 55, 0
2, 6214, Note_on_c, 0, 54, 75
2, 6226, Note_on_c, 0, 54, 0
2, 6227, Note_on_c, 0, 55, 75
2, 6239, Note_on_c, 0, 55, 0
2, 6240, Note_on_c, 0, 54, 75
2, 6329, Note_on_c, 0, 54, 0
2, 6336, Note_on_c, 0, 59, 75
2, 6348, Note_on_c, 0, 59, 0
2, 6348, Note_on_c, 0, 61, 75
2, 6360, Note_on_c, 0, 61, 0
2, 6360, Note_on_c, 0, 59, 75
2, 6403, Note_on_c, 0, 59, 0
2, 6408, Note_on_c, 0, 57, 75
2, 6431, Note_on_c, 0, 57, 0
2, 6432, Note_on_c, 0, 59, 75
2, 6499, Note_on_c, 0, 59, 0
2, 6504, Note_on_c, 0, 61, 75
2, 6527, Note_on_c, 0, 61, 0
2, 6528, Note_on_c, 0, 62, 75
2, 6595, Note_on_c, 0, 62, 0
2, 6600, Note_on_c, 0, 57, 75
2, 6623, Note_on_c, 0, 57, 0
2, 6624, Note_on_c, 0, 57, 75
2, 6691, Note_on_c, 0, 57, 0
2, 6696, Note_on_c, 0, 55, 75
2, 6719, Note_on_c, 0, 55, 0
2, 6720, Note_on_c, 0, 67, 75
2, 6750, Note_on_c, 0, 67, 0
2, 6752, Note_on_c, 0, 64, 75
2, 6782, Note_on_c, 0, 64, 0
2, 6784, Note_on_c, 0, 61, 75
2, 6814, Note_on_c, 0, 61, 0
2, 6816, Note_on_c, 0, 64, 75
2, 6828, Note_on_c, 0, 64, 0
2, 6828, Note_on_c, 0, 62, 75
2, 6840, Note_on_c, 0, 62, 0
2, 6840, Note_on_c, 0, 61, 75
2, 6852, Note_on_c, 0, 61, 0
2, 6852, Note_on_c, 0, 62, 75
2, 6905, Note_on_c, 0, 62, 0
2, 6912, Note_on_c, 0, 59, 75
2, 7001, Note_on_c, 0, 59, 0
2, 7008, Note_on_c, 0, 70, 91
2, 7040, Note_on_c, 0, 70, 0
2, 7040, Note_on_c, 0, 71, 76
2, 7070, Note_on_c, 0, 71, 0
2, 7072, Note_on_c, 0, 69, 78
2, 7102, Note_on_c, 0, 69, 0
2, 7104, Note_on_c, 0, 67, 79
2, 7134, Note_on_c, 0, 67, 0
2, 7136, Note_on_c, 0, 66, 78
2, 7166, Note_on_c, 0, 66, 0
2, 7168, Note_on_c, 0, 64, 77
2, 7198, Note_on_c, 0, 64, 0
2, 7200, Note_on_c, 0, 62, 75
2, 7392, Note_on_c, 0, 62, 0
2, 7392, Note_on_c, 0, 61, 75
2, 7481, Note_on_c, 0, 61, 0
2, 7488, Note_on_c, 0, 81, 75
2, 7518, Note_on_c, 0, 81, 0
2, 7520, Note_on_c, 0, 85, 76
2, 7550, Note_on_c, 0, 85, 0
2, 7552, Note_on_c, 0, 88, 78
2, 7582, Note_on_c, 0, 88, 0
2, 7584, Note_on_c, 0, 86, 79
2, 7614, Note_on_c, 0, 86, 0
2, 7616, Note_on_c, 0, 85, 78
2, 7646, Note_on_c, 0, 85, 0
2, 7648, Note_on_c, 0, 83, 77
2, 7678, Note_on_c, 0, 83, 0
2, 7680, Note_on_c, 0, 81, 75
2, 7710, Note_on_c, 0, 81, 0
2, 7712, Note_on_c, 0, 80, 75
2, 7742, Note_on_c, 0, 80, 0
2, 7744, Note_on_c, 0, 78, 75
2, 7821, Note_on_c, 0, 78, 0
2, 7824, Note_on_c, 0, 76, 75
2, 7913, Note_on_c, 0, 76, 0
2, 7920, Note_on_c, 0, 74, 75
2, 8009, Note_on_c, 0, 74, 0
2, 8016, Note_on_c, 0, 73, 75
2, 8061, Note_on_c, 0, 73, 0
2, 8064, Note_on_c, 0, 71, 75
2, 8094, Note_on_c, 0, 71, 0
2, 8096, Note_on_c, 0, 74, 76
2, 8126, Note_on_c, 0, 74, 0
2, 8128, Note_on_c, 0, 73, 77
2, 8158, Note_on_c, 0, 73, 0
2, 8160, Note_on_c, 0, 74, 78
2, 8190, Note_on_c, 0, 74, 0
2, 8192, Note_on_c, 0, 78, 79
2, 8222, Note_on_c, 0, 78, 0
2, 8224, Note_on_c, 0, 76, 79
2, 8254, Note_on_c, 0, 76, 0
2, 8256, Note_on_c, 0, 74, 78
2, 8286, Note_on_c, 0, 74, 0
2, 8288, Note_on_c, 0, 73, 77
2, 8318, Note_on_c, 0, 73, 0
2, 8320, Note_on_c, 0, 71, 76
2, 8350, Note_on_c, 0, 71, 0
2, 8352, Note_on_c, 0, 69, 75
2, 8397, Note_on_c, 0, 69, 0
2, 8400, Note_on_c, 0, 68, 75
2, 8489, Note_on_c, 0, 68, 0
2, 8496, Note_on_c, 0, 71, 75
2, 8585, Note_on_c, 0, 71, 0
2, 8592, Note_on_c, 0, 69, 75
2, 8637, Note_on_c, 0, 69, 0
2, 8640, Note_on_c, 0, 64, 75
2, 8670, Note_on_c, 0, 64, 0
2, 8672, Note_on_c, 0, 74, 76
2, 8702, Note_on_c, 0, 74, 0
2, 8704, Note_on_c, 0, 73, 78
2, 8734, Note_on_c, 0, 73, 0
2, 8736, Note_on_c, 0, 74, 79
2, 8766, Note_on_c, 0, 74, 0
2, 8768, Note_on_c, 0, 71, 78
2, 8798, Note_on_c, 0, 71, 0
2, 8800, Note_on_c, 0, 68, 77
2, 8830, Note_on_c, 0, 68, 0
2, 8832, Note_on_c, 0, 71, 75
2, 8844, Note_on_c, 0, 71, 0
2, 8844, Note_on_c, 0, 69, 75
2, 8856, Note_on_c, 0, 69, 0
2, 8856, Note_on_c, 0, 68, 75
2, 8868, Note_on_c, 0, 68, 0
2, 8868, Note_on_c, 0, 69, 75
2, 8921, Note_on_c, 0, 69, 0
2, 8928, Note_on_c, 0, 64, 64
2, 8958, Note_on_c, 0, 64, 0
2, 8960, Note_on_c, 0, 74, 64
2, 8990, Note_on_c, 0, 74, 0
2, 8992, Note_on_c, 0, 73, 69
2, 9022, Note_on_c, 0, 73, 0
2, 9024, Note_on_c, 0, 74, 74
2, 9054, Note_on_c, 0, 74, 0
2, 9056, Note_on_c, 0, 71, 72
2, 9086, Note_on_c, 0, 71, 0
2, 9088, Note_on_c, 0, 68, 68
2, 9118, Note_on_c, 0, 68, 0
2, 9120, Note_on_c, 0, 71, 64
2, 9132, Note_on_c, 0, 71, 0
2, 9132, Note_on_c, 0, 69, 64
2, 9144, Note_on_c, 0, 69, 0
2, 9144, Note_on_c, 0, 68, 64
2, 9156, Note_on_c, 0, 68, 0
2, 9156, Note_on_c, 0, 69, 64
2, 9209, Note_on_c, 0, 69, 0
2, 9216, Note_on_c, 0, 66, 75
2, 9246, Note_on_c, 0, 66, 0
2, 9248, Note_on_c, 0, 71, 75
2, 9278, Note_on_c, 0, 71, 0
2, 9280, Note_on_c, 0, 70, 75
2, 9310, Note_on_c, 0, 70, 0
2, 9312, Note_on_c, 0, 71, 75
2, 9342, Note_on_c, 0, 71, 0
2, 9344, Note_on_c, 0, 74, 75
2, 9374, Note_on_c, 0, 74, 0
2, 9376, Note_on_c, 0, 73, 76
2, 9406, Note_on_c, 0, 73, 0
2, 9408, Note_on_c, 0, 74, 77
2, 9438, Note_on_c, 0, 74, 0
2, 9440, Note_on_c, 0, 76, 77
2, 9470, Note_on_c, 0, 76, 0
2, 9472, Note_on_c, 0, 78, 78
2, 9502, Note_on_c, 0, 78, 0
2, 9504, Note_on_c, 0, 76, 79
2, 9534, Note_on_c, 0, 76, 0
2, 9536, Note_on_c, 0, 74, 79
2, 9566, Note_on_c, 0, 74, 0
2, 9568, Note_on_c, 0, 73, 79
2, 9598, Note_on_c, 0, 73, 0
2, 9600, Note_on_c, 0, 71, 79
2, 9630, Note_on_c, 0, 71, 0
2, 9632, Note_on_c, 0, 69, 78
2, 9662, Note_on_c, 0, 69, 0
2, 9664, Note_on_c, 0, 68, 77
2, 9694, Note_on_c, 0, 68, 0
2, 9696, Note_on_c, 0, 69, 77
2, 9726, Note_on_c, 0, 69, 0
2, 9728, Note_on_c, 0, 64, 76
2, 9758, Note_on_c, 0, 64, 0
2, 9760, Note_on_c, 0, 61, 76
2, 9790, Note_on_c, 0, 61, 0
2, 9792, Note_on_c, 0, 66, 75
2, 9822, Note_on_c, 0, 66, 0
2, 9824, Note_on_c, 0, 64, 75
2, 9854, Note_on_c, 0, 64, 0
2, 9856, Note_on_c, 0, 62, 75
2, 9886, Note_on_c, 0, 62, 0
2, 9888, Note_on_c, 0, 61, 75
2, 9977, Note_on_c, 0, 61, 0
2, 9984, Note_on_c, 0, 59, 75
2, 9997, Note_on_c, 0, 59, 0
2, 9998, Note_on_c, 0, 61, 75
2, 10011, Note_on_c, 0, 61, 0
2, 10012, Note_on_c, 0, 59, 75
2, 10025, Note_on_c, 0, 59, 0
2, 10026, Note_on_c, 0, 61, 75
2, 10039, Note_on_c, 0, 61, 0
2, 10040, Note_on_c, 0, 59, 75
2, 10053, Note_on_c, 0, 59, 0
2, 10054, Note_on_c, 0, 57, 75
2, 10066, Note_on_c, 0, 57, 0
2, 10067, Note_on_c, 0, 59, 75
2, 10079, Note_on_c, 0, 59, 0
2, 10080, Note_on_c, 0, 57, 75
2, 10257, Note_on_c, 0, 57, 0
2, 10368, Note_on_c, 0, 57, 75
2, 10457, Note_on_c, 0, 57, 0
2, 10464, Note_on_c, 0, 61, 75
2, 10476, Note_on_c, 0, 61, 0
2, 10476, Note_on_c, 0, 62, 75
2, 10488, Note_on_c, 0, 62, 0
2, 10488, Note_on_c, 0, 61, 75
2, 10531, Note_on_c, 0, 61, 0
2, 10536, Note_on_c, 0, 59, 75
2, 10559, Note_on_c, 0, 59, 0
2, 10560, Note_on_c, 0, 61, 75
2, 10627, Note_on_c, 0, 61, 0
2, 10632, Note_on_c, 0, 62, 75
2, 10655, Note_on_c, 0, 62, 0
2, 10656, Note_on_c, 0, 64, 75
2, 10686, Note_on_c, 0, 64, 0
2, 10688, Note_on_c, 0, 61, 75
2, 10718, Note_on_c, 0, 61, 0
2, 10720, Note_on_c, 0, 57, 75
2, 10750, Note_on_c, 0, 57, 0
2, 10752, Note_on_c, 0, 67, 75
2, 10782, Note_on_c, 0, 67, 0
2, 10784, Note_on_c, 0, 64, 75
2, 10814, Note_on_c, 0, 64, 0
2, 10816, Note_on_c, 0, 61, 75
2, 10846, Note_on_c, 0, 61, 0
2, 10848, Note_on_c, 0, 64, 75
2, 10860, Note_on_c, 0, 64, 0
2, 10860, Note_on_c, 0, 62, 75
2, 10872, Note_on_c, 0, 62, 0
2, 10872, Note_on_c, 0, 61, 75
2, 10884, Note_on_c, 0, 61, 0
2, 10884, Note_on_c, 0, 62, 75
2, 10937, Note_on_c, 0, 62, 0
2, 10944, Note_on_c, 0, 57, 64
2, 11033, Note_on_c, 0, 57, 0
2, 11040, Note_on_c, 0, 61, 64
2, 11052, Note_on_c, 0, 61, 0
2, 11052, Note_on_c, 0, 62, 64
2, 11064, Note_on_c, 0, 62, 0
2, 11064, Note_on_c, 0, 61, 64
2, 11107, Note_on_c, 0, 61, 0
2, 11112, Note_on_c, 0, 59, 64
2, 11135, Note_on_c, 0, 59, 0
2, 11136, Note_on_c, 0, 61, 64
2, 11203, Note_on_c, 0, 61, 0
2, 11208, Note_on_c, 0, 62, 64
2, 11231, Note_on_c, 0, 62, 0
2, 11232, Note_on_c, 0, 64, 64
2, 11262, Note_on_c, 0, 64, 0
2, 11264, Note_on_c, 0, 61, 64
2, 11294, Note_on_c, 0, 61, 0
2, 11296, Note_on_c, 0, 57, 64
2, 11326, Note_on_c, 0, 57, 0
2, 11328, Note_on_c, 0, 67, 64
2, 11358, Note_on_c, 0, 67, 0
2, 11360, Note_on_c, 0, 64, 64
2, 11390, Note_on_c, 0, 64, 0
2, 11392, Note_on_c, 0, 61, 64
2, 11422, Note_on_c, 0, 61, 0
2, 11424, Note_on_c, 0, 64, 64
2, 11436, Note_on_c, 0, 64, 0
2, 11436, Note_on_c, 0, 62, 64
2, 11448, Note_on_c, 0, 62, 0
2, 11448, Note_on_c, 0, 61, 64
2, 11460, Note_on_c, 0, 61, 0
2, 11460, Note_on_c, 0, 62, 64
2, 11513, Note_on_c, 0, 62, 0
2, 11520, Note_on_c, 0, 59, 75
2, 11609, Note_on_c, 0, 59, 0
2, 11616, Note_on_c, 0, 70, 91
2, 11648, Note_on_c, 0, 70, 0
2, 11648, Note_on_c, 0, 71, 75
2, 11678, Note_on_c, 0, 71, 0
2, 11680, Note_on_c, 0, 69, 75
2, 11710, Note_on_c, 0, 69, 0
2, 11712, Note_on_c, 0, 67, 75
2, 11742, Note_on_c, 0, 67, 0
2, 11744, Note_on_c, 0, 66, 75
2, 11774, Note_on_c, 0, 66, 0
2, 11776, Note_on_c, 0, 64, 75
2, 11806, Note_on_c, 0, 64, 0
2, 11808, Note_on_c, 0, 57, 75
2, 11897, Note_on_c, 0, 57, 0
2, 11904, Note_on_c, 0, 68, 91
2, 11936, Note_on_c, 0, 68, 0
2, 11936, Note_on_c, 0, 69, 75
2, 11966, Note_on_c, 0, 69, 0
2, 11968, Note_on_c, 0, 67, 75
2, 11998, Note_on_c, 0, 67, 0
2, 12000, Note_on_c, 0, 66, 75
2, 12030, Note_on_c, 0, 66, 0
2, 12032, Note_on_c, 0, 64, 75
2, 12062, Note_on_c, 0, 64, 0
2, 12064, Note_on_c, 0, 62, 75
2, 12094, Note_on_c, 0, 62, 0
2, 12096, Note_on_c, 0, 63, 91
2, 12192, Note_on_c, 0, 63, 0
2, 12192, Note_on_c, 0, 64, 75
2, 12259, Note_on_c, 0, 64, 0
2, 12264, Note_on_c, 0, 67, 75
2, 12287, Note_on_c, 0, 67, 0
2, 12288, Note_on_c, 0, 59, 75
2, 12355, Note_on_c, 0, 59, 0
2, 12360, Note_on_c, 0, 64, 75
2, 12383, Note_on_c, 0, 64, 0
2, 12384, Note_on_c, 0, 62, 75
2, 12576, Note_on_c, 0, 62, 0
2, 12576, Note_on_c, 0, 61, 75
2, 12665, Note_on_c, 0, 61, 0
2, 12672, Note_on_c, 0, 74, 75
2, 12702, Note_on_c, 0, 74, 0
2, 12704, Note_on_c, 0, 78, 76
2, 12734, Note_on_c, 0, 78, 0
2, 12736, Note_on_c, 0, 81, 78
2, 12766, Note_on_c, 0, 81, 0
2, 12768, Note_on_c, 0, 79, 79
2, 12798, Note_on_c, 0, 79, 0
2, 12800, Note_on_c, 0, 78, 78
2, 12830, Note_on_c, 0, 78, 0
2, 12832, Note_on_c, 0, 76, 77
2, 12862, Note_on_c, 0, 76, 0
2, 12864, Note_on_c, 0, 74, 75
2, 12894, Note_on_c, 0, 74, 0
2, 12896, Note_on_c, 0, 73, 75
2, 12926, Note_on_c, 0, 73, 0
2, 12928, Note_on_c, 0, 71, 75
2, 13005, Note_on_c, 0, 71, 0
2, 13008, Note_on_c, 0, 69, 75
2, 13097, Note_on_c, 0, 69, 0
2, 13104, Note_on_c, 0, 67, 75
2, 13193, Note_on_c, 0, 67, 0
2, 13200, Note_on_c, 0, 66, 75
2, 13245, Note_on_c, 0, 66, 0
2, 13248, Note_on_c, 0, 64, 75
2, 13278, Note_on_c, 0, 64, 0
2, 13280, Note_on_c, 0, 67, 75
2, 13310, Note_on_c, 0, 67, 0
2, 13312, Note_on_c, 0, 66, 76
2, 13342, Note_on_c, 0, 66, 0
2, 13344, Note_on_c, 0, 67, 77
2, 13374, Note_on_c, 0, 67, 0
2, 13376, Note_on_c, 0, 71, 78
2, 13406, Note_on_c, 0, 71, 0
2, 13408, Note_on_c, 0, 69, 79
2, 13438, Note_on_c, 0, 69, 0
2, 13440, Note_on_c, 0, 67, 79
2, 13470, Note_on_c, 0, 67, 0
2, 13472, Note_on_c, 0, 66, 77
2, 13502, Note_on_c, 0, 66, 0
2, 13504, Note_on_c, 0, 64, 76
2, 13534, Note_on_c, 0, 64, 0
2, 13536, Note_on_c, 0, 62, 75
2, 13581, Note_on_c, 0, 62, 0
2, 13584, Note_on_c, 0, 61, 75
2, 13673, Note_on_c, 0, 61, 0
2, 13680, Note_on_c, 0, 64, 75
2, 13769, Note_on_c, 0, 64, 0
2, 13776, Note_on_c, 0, 62, 75
2, 13821, Note_on_c, 0, 62, 0
2, 13824, Note_on_c, 0, 57, 75
2, 13854, Note_on_c, 0, 57, 0
2, 13856, Note_on_c, 0, 67, 76
2, 13886, Note_on_c, 0, 67, 0
2, 13888, Note_on_c, 0, 66, 78
2, 13918, Note_on_c, 0, 66, 0
2, 13920, Note_on_c, 0, 67, 79
2, 13950, Note_on_c, 0, 67, 0
2, 13952, Note_on_c, 0, 64, 78
2, 13982, Note_on_c, 0, 64, 0
2, 13984, Note_on_c, 0, 61, 77
2, 14014, Note_on_c, 0, 61, 0
2, 14016, Note_on_c, 0, 64, 75
2, 14028, Note_on_c, 0, 64, 0
2, 14028, Note_on_c, 0, 62, 75
2, 14040, Note_on_c, 0, 62, 0
2, 14040, Note_on_c, 0, 61, 75
2, 14052, Note_on_c, 0, 61, 0
2, 14052, Note_on_c, 0, 62, 75
2, 14105, Note_on_c, 0, 62, 0
2, 14112, Note_on_c, 0, 57, 64
2, 14142, Note_on_c, 0, 57, 0
2, 14144, Note_on_c, 0, 67, 64
2, 14174, Note_on_c, 0, 67, 0
2, 14176, Note_on_c, 0, 66, 69
2, 14206, Note_on_c, 0, 66, 0
2, 14208, Note_on_c, 0, 67, 74
2, 14238, Note_on_c, 0, 67, 0
2, 14240, Note_on_c, 0, 64, 72
2, 14270, Note_on_c, 0, 64, 0
2, 14272, Note_on_c, 0, 61, 68
2, 14302, Note_on_c, 0, 61, 0
2, 14304, Note_on_c, 0, 64, 64
2, 14316, Note_on_c, 0, 64, 0
2, 14316, Note_on_c, 0, 62, 64
2, 14328, Note_on_c, 0, 62, 0
2, 14328, Note_on_c, 0, 61, 64
2, 14340, Note_on_c, 0, 61, 0
2, 14340, Note_on_c, 0, 62, 64
2, 14393, Note_on_c, 0, 62, 0
2, 14400, Note_on_c, 0, 59, 75
2, 14430, Note_on_c, 0, 59, 0
2, 14432, Note_on_c, 0, 64, 75
2, 14462, Note_on_c, 0, 64, 0
2, 14464, Note_on_c, 0, 63, 75
2, 14494, Note_on_c, 0, 63, 0
2, 14496, Note_on_c, 0, 64, 75
2, 14526, Note_on_c, 0, 64, 0
2, 14528, Note_on_c, 0, 67, 75
2, 14558, Note_on_c, 0, 67, 0
2, 14560, Note_on_c, 0, 66, 76
2, 14590, Note_on_c, 0, 66, 0
2, 14592, Note_on_c, 0, 67, 77
2, 14622, Note_on_c, 0, 67, 0
2, 14624, Note_on_c, 0, 69, 78
2, 14654, Note_on_c, 0, 69, 0
2, 14656, Note_on_c, 0, 71, 78
2, 14686, Note_on_c, 0, 71, 0
2, 14688, Note_on_c, 0, 69, 79
2, 14718, Note_on_c, 0, 69, 0
2, 14720, Note_on_c, 0, 67, 79
2, 14750, Note_on_c, 0, 67, 0
2, 14752, Note_on_c, 0, 66, 79
2, 14782, Note_on_c, 0, 66, 0
2, 14784, Note_on_c, 0, 64, 78
2, 14814, Note_on_c, 0, 64, 0
2, 14816, Note_on_c, 0, 62, 78
2, 14846, Note_on_c, 0, 62, 0
2, 14848, Note_on_c, 0, 61, 77
2, 14878, Note_on_c, 0, 61, 0
2, 14880, Note_on_c, 0, 62, 77
2, 14969, Note_on_c, 0, 62, 0
2, 14976, Note_on_c, 0, 71, 75
2, 15006, Note_on_c, 0, 71, 0
2, 15008, Note_on_c, 0, 76, 75
2, 15038, Note_on_c, 0, 76, 0
2, 15040, Note_on_c, 0, 75, 75
2, 15070, Note_on_c, 0, 75, 0
2, 15072, Note_on_c, 0, 76, 75
2, 15102, Note_on_c, 0, 76, 0
2, 15104, Note_on_c, 0, 79, 75
2, 15134, Note_on_c, 0, 79, 0
2, 15136, Note_on_c, 0, 78, 76
2, 15166, Note_on_c, 0, 78, 0
2, 15168, Note_on_c, 0, 79, 77
2, 15198, Note_on_c, 0, 79, 0
2, 15200, Note_on_c, 0, 81, 77
2, 15230, Note_on_c, 0, 81, 0
2, 15232, Note_on_c, 0, 83, 78
2, 15262, Note_on_c, 0, 83, 0
2, 15264, Note_on_c, 0, 81, 79
2, 15294, Note_on_c, 0, 81, 0
2, 15296, Note_on_c, 0, 79, 79
2, 15326, Note_on_c, 0, 79, 0
2, 15328, Note_on_c, 0, 78, 79
2, 15358, Note_on_c, 0, 78, 0
2, 15360, Note_on_c, 0, 76, 79
2, 15390, Note_on_c, 0, 76, 0
2, 15392, Note_on_c, 0, 74, 78
2, 15422, Note_on_c, 0, 74, 0
2, 15424, Note_on_c, 0, 73, 77
2, 15454, Note_on_c, 0, 73, 0
2, 15456, Note_on_c, 0, 74, 77
2, 15486, Note_on_c, 0, 74, 0
2, 15488, Note_on_c, 0, 69, 76
2, 15518, Note_on_c, 0, 69, 0
2, 15520, Note_on_c, 0, 66, 76
2, 15550, Note_on_c, 0, 66, 0
2, 15552, Note_on_c, 0, 71, 75
2, 15582, Note_on_c, 0, 71, 0
2, 15584, Note_on_c, 0, 69, 75
2, 15614, Note_on_c, 0, 69, 0
2, 15616, Note_on_c, 0, 67, 75
2, 15646, Note_on_c, 0, 67, 0
2, 15648, Note_on_c, 0, 66, 75
2, 15737, Note_on_c, 0, 66, 0
2, 15744, Note_on_c, 0, 64, 75
2, 15757, Note_on_c, 0, 64, 0
2, 15758, Note_on_c, 0, 66, 75
2, 15771, Note_on_c, 0, 66, 0
2, 15772, Note_on_c, 0, 64, 75
2, 15785, Note_on_c, 0, 64, 0
2, 15786, Note_on_c, 0, 66, 75
2, 15799, Note_on_c, 0, 66, 0
2, 15800, Note_on_c, 0, 64, 75
2, 15813, Note_on_c, 0, 64, 0
2, 15814, Note_on_c, 0, 62, 75
2, 15826, Note_on_c, 0, 62, 0
2, 15827, Note_on_c, 0, 64, 75
2, 15839, Note_on_c, 0, 64, 0
2, 15840, Note_on_c, 0, 62, 75
2, 16017, Note_on_c, 0, 62, 0
2, 16128, Note_on_c, 0, 57, 75
2, 16217, Note_on_c, 0, 57, 0
2, 16224, Note_on_c, 0, 61, 75
2, 16236, Note_on_c, 0, 61, 0
2, 16236, Note_on_c, 0, 62, 75
2, 16248, Note_on_c, 0, 62, 0
2, 16248, Note_on_c, 0, 61, 75
2, 16291, Note_on_c, 0, 61, 0
2, 16296, Note_on_c, 0, 59, 75
2, 16319, Note_on_c, 0, 59, 0
2, 16320, Note_on_c, 0, 61, 75
2, 16387, Note_on_c, 0, 61, 0
2, 16392, Note_on_c, 0, 62, 75
2, 16415, Note_on_c, 0, 62, 0
2, 16416, Note_on_c, 0, 64, 75
2, 16446, Note_on_c, 0, 64, 0
2, 16448, Note_on_c, 0, 61, 75
2, 16478, Note_on_c, 0, 61, 0
2, 16480, Note_on_c, 0, 57, 75
2, 16510, Note_on_c, 0, 57, 0
2, 16512, Note_on_c, 0, 67, 75
2, 16542, Note_on_c, 0, 67, 0
2, 16544, Note_on_c, 0, 64, 75
2, 16574, Note_on_c, 0, 64, 0
2, 16576, Note_on_c, 0, 61, 75
2, 16606, Note_on_c, 0, 61, 0
2, 16608, Note_on_c, 0, 64, 75
2, 16620, Note_on_c, 0, 64, 0
2, 16620, Note_on_c, 0, 62, 75
2, 16632, Note_on_c, 0, 62, 0
2, 16632, Note_on_c, 0, 61, 75
2, 16644, Note_on_c, 0, 61, 0
2, 16644, Note_on_c, 0, 62, 75
2, 16697, Note_on_c, 0, 62, 0
2, 16704, Note_on_c, 0, 57, 64
2, 16793, Note_on_c, 0, 57, 0
2, 16800, Note_on_c, 0, 61, 64
2, 16812, Note_on_c, 0, 61, 0
2, 16812, Note_on_c, 0, 62, 64
2, 16824, Note_on_c, 0, 62, 0
2, 16824, Note_on_c, 0, 61, 64
2, 16867, Note_on_c, 0, 61, 0
2, 16872, Note_on_c, 0, 59, 64
2, 16895, Note_on_c, 0, 59, 0
2, 16896, Note_on_c, 0, 61, 64
2, 16963, Note_on_c, 0, 61, 0
2, 16968, Note_on_c, 0, 62, 64
2, 16991, Note_on_c, 0, 62, 0
2, 16992, Note_on_c, 0, 64, 64
2, 17022, Note_on_c, 0, 64, 0
2, 17024, Note_on_c, 0, 61, 64
2, 17054, Note_on_c, 0, 61, 0
2, 17056, Note_on_c, 0, 57, 64
2, 17086, Note_on_c, 0, 57, 0
2, 17088, Note_on_c, 0, 67, 64
2, 17118, Note_on_c, 0, 67, 0
2, 17120, Note_on_c, 0, 64, 64
2, 17150, Note_on_c, 0, 64, 0
2, 17152, Note_on_c, 0, 61, 64
2, 17182, Note_on_c, 0, 61, 0
2, 17184, Note_on_c, 0, 64, 64
2, 17196, Note_on_c, 0, 64, 0
2, 17196, Note_on_c, 0, 62, 64
2, 17208, Note_on_c, 0, 62, 0
2, 17208, Note_on_c, 0, 61, 64
2, 17220, Note_on_c, 0, 61, 0
2, 17220, Note_on_c, 0, 62, 64
2, 17273, Note_on_c, 0, 62, 0
2, 17280, Note_on_c, 0, 59, 75
2, 17369, Note_on_c, 0, 59, 0
2, 17376, Note_on_c, 0, 70, 91
2, 17408, Note_on_c, 0, 70, 0
2, 17408, Note_on_c, 0, 71, 75
2, 17438, Note_on_c, 0, 71, 0
2, 17440, Note_on_c, 0, 69, 75
2, 17470, Note_on_c, 0, 69, 0
2, 17472, Note_on_c, 0, 67, 75
2, 17502, Note_on_c, 0, 67, 0
2, 17504, Note_on_c, 0, 66, 75
2, 17534, Note_on_c, 0, 66, 0
2, 17536, Note_on_c, 0, 64, 75
2, 17566, Note_on_c, 0, 64, 0
2, 17568, Note_on_c, 0, 57, 75
2, 17657, Note_on_c, 0, 57, 0
2, 17664, Note_on_c, 0, 68, 91
2, 17696, Note_on_c, 0, 68, 0
2, 17696, Note_on_c, 0, 69, 75
2, 17726, Note_on_c, 0, 69, 0
2, 17728, Note_on_c, 0, 67, 75
2, 17758, Note_on_c, 0, 67, 0
2, 17760, Note_on_c, 0, 66, 75
2, 17790, Note_on_c, 0, 66, 0
2, 17792, Note_on_c, 0, 64, 75
2, 17822, Note_on_c, 0, 64, 0
2, 17824, Note_on_c, 0, 62, 75
2, 17854, Note_on_c, 0, 62, 0
2, 17856, Note_on_c, 0, 63, 91
2, 17952, Note_on_c, 0, 63, 0
2, 17952, Note_on_c, 0, 64, 75
2, 18019, Note_on_c, 0, 64, 0
2, 18024, Note_on_c, 0, 67, 75
2, 18047, Note_on_c, 0, 67, 0
2, 18048, Note_on_c, 0, 59, 75
2, 18115, Note_on_c, 0, 59, 0
2, 18120, Note_on_c, 0, 64, 75
2, 18143, Note_on_c, 0, 64, 0
2, 18144, Note_on_c, 0, 62, 75
2, 18336, Note_on_c, 0, 62, 0
2, 18336, Note_on_c, 0, 61, 75
2, 18425, Note_on_c, 0, 61, 0
2, 18432, Note_on_c, 0, 74, 75
2, 18462, Note_on_c, 0, 74, 0
2, 18464, Note_on_c, 0, 78, 76
2, 18494, Note_on_c, 0, 78, 0
2, 18496, Note_on_c, 0, 81, 78
2, 18526, Note_on_c, 0, 81, 0
2, 18528, Note_on_c, 0, 79, 79
2, 18558, Note_on_c, 0, 79, 0
2, 18560, Note_on_c, 0, 78, 78
2, 18590, Note_on_c, 0, 78, 0
2, 18592, Note_on_c, 0, 76, 77
2, 18622, Note_on_c, 0, 76, 0
2, 18624, Note_on_c, 0, 74, 75
2, 18654, Note_on_c, 0, 74, 0
2, 18656, Note_on_c, 0, 73, 75
2, 18686, Note_on_c, 0, 73, 0
2, 18688, Note_on_c, 0, 71, 75
2, 18765, Note_on_c, 0, 71, 0
2, 18768, Note_on_c, 0, 69, 75
2, 18857, Note_on_c, 0, 69, 0
2, 18864, Note_on_c, 0, 67, 75
2, 18953, Note_on_c, 0, 67, 0
2, 18960, Note_on_c, 0, 66, 75
2, 19005, Note_on_c, 0, 66, 0
2, 19008, Note_on_c, 0, 64, 75
2, 19038, Note_on_c, 0, 64, 0
2, 19040, Note_on_c, 0, 67, 75
2, 19070, Note_on_c, 0, 67, 0
2, 19072, Note_on_c, 0, 66, 76
2, 19102, Note_on_c, 0, 66, 0
2, 19104, Note_on_c, 0, 67, 77
2, 19134, Note_on_c, 0, 67, 0
2, 19136, Note_on_c, 0, 71, 78
2, 19166, Note_on_c, 0, 71, 0
2, 19168, Note_on_c, 0, 69, 79
2, 19198, Note_on_c, 0, 69, 0
2, 19200, Note_on_c, 0, 67, 79
2, 19230, Note_on_c, 0, 67, 0
2, 19232, Note_on_c, 0, 66, 77
2, 19262, Note_on_c, 0, 66, 0
2, 19264, Note_on_c, 0, 64, 76
2, 19294, Note_on_c, 0, 64, 0
2, 19296, Note_on_c, 0, 62, 75
2, 19341, Note_on_c, 0, 62, 0
2, 19344, Note_on_c, 0, 61, 75
2, 19433, Note_on_c, 0, 61, 0
2, 19440, Note_on_c, 0, 64, 75
2, 19529, Note_on_c, 0, 64, 0
2, 19536, Note_on_c, 0, 62, 75
2, 19581, Note_on_c, 0, 62, 0
2, 19584, Note_on_c, 0, 57, 75
2, 19614, Note_on_c, 0, 57, 0
2, 19616, Note_on_c, 0, 67, 76
2, 19646, Note_on_c, 0, 67, 0
2, 19648, Note_on_c, 0, 66, 78
2, 19678, Note_on_c, 0, 66, 0
2, 19680, Note_on_c, 0, 67, 79
2, 19710, Note_on_c, 0, 67, 0
2, 19712, Note_on_c, 0, 64, 78
2, 19742, Note_on_c, 0, 64, 0
2, 19744, Note_on_c, 0, 61, 77
2, 19774, Note_on_c, 0, 61, 0
2, 19776, Note_on_c, 0, 64, 75
2, 19788, Note_on_c, 0, 64, 0
2, 19788, Note_on_c, 0, 62, 75
2, 19800, Note_on_c, 0, 62, 0
2, 19800, Note_on_c, 0, 61, 75
2, 19812, Note_on_c, 0, 61, 0
2, 19812, Note_on_c, 0, 62, 75
2, 19865, Note_on_c, 0, 62, 0
2, 19872, Note_on_c, 0, 57, 64
2, 19902, Note_on_c, 0, 57, 0
2, 19904, Note_on_c, 0, 67, 64
2, 19934, Note_on_c, 0, 67, 0
2, 19936, Note_on_c, 0, 66, 69
2, 19966, Note_on_c, 0, 66, 0
2, 19968, Note_on_c, 0, 67, 74
2, 19998, Note_on_c, 0, 67, 0
2, 20000, Note_on_c, 0, 64, 72
2, 20030, Note_on_c, 0, 64, 0
2, 20032, Note_on_c, 0, 61, 68
2, 20062, Note_on_c, 0, 61, 0
2, 20064, Note_on_c, 0, 64, 64
2, 20076, Note_on_c, 0, 64, 0
2, 20076, Note_on_c, 0, 62, 64
2, 20088, Note_on_c, 0, 62, 0
2, 20088, Note_on_c, 0, 61, 64
2, 20100, Note_on_c, 0, 61, 0
2, 20100, Note_on_c, 0, 62, 64
2, 20153, Note_on_c, 0, 62, 0
2, 20160, Note_on_c, 0, 59, 75
2, 20190, Note_on_c, 0, 59, 0
2, 20192, Note_on_c, 0, 64, 75
2, 20222, Note_on_c, 0, 64, 0
2, 20224, Note_on_c, 0, 63, 75
2, 20254, Note_on_c, 0, 63, 0
2, 20256, Note_on_c, 0, 64, 75
2, 20286, Note_on_c, 0, 64, 0
2, 20288, Note_on_c, 0, 67, 75
2, 20318, Note_on_c, 0, 67, 0
2, 20320, Note_on_c, 0, 66, 76
2, 20350, Note_on_c, 0, 66, 0
2, 20352, Note_on_c, 0, 67, 77
2, 20382, Note_on_c, 0, 67, 0
2, 20384, Note_on_c, 0, 69, 78
2, 20414, Note_on_c, 0, 69, 0
2, 20416, Note_on_c, 0, 71, 78
2, 20446, Note_on_c, 0, 71, 0
2, 20448, Note_on_c, 0, 69, 79
2, 20478, Note_on_c, 0, 69, 0
2, 20480, Note_on_c, 0, 67, 79
2, 20510, Note_on_c, 0, 67, 0
2, 20512, Note_on_c, 0, 66, 79
2, 20542, Note_on_c, 0, 66, 0
2, 20544, Note_on_c, 0, 64, 78
2, 20574, Note_on_c, 0, 64, 0
2, 20576, Note_on_c, 0, 62, 78
2, 20606, Note_on_c, 0, 62, 0
2, 20608, Note_on_c, 0, 61, 77
2, 20638, Note_on_c, 0, 61, 0
2, 20640, Note_on_c, 0, 62, 77
2, 20729, Note_on_c, 0, 62, 0
2, 20736, Note_on_c, 0, 71, 75
2, 20766, Note_on_c, 0, 71, 0
2, 20768, Note_on_c, 0, 76, 75
2, 20798, Note_on_c, 0, 76, 0
2, 20800, Note_on_c, 0, 75, 75
2, 20830, Note_on_c, 0, 75, 0
2, 20832, Note_on_c, 0, 76, 75
2, 20862, Note_on_c, 0, 76, 0
2, 20864, Note_on_c, 0, 79, 75
2, 20894, Note_on_c, 0, 79, 0
2, 20896, Note_on_c, 0, 78, 76
2, 20926, Note_on_c, 0, 78, 0
2, 20928, Note_on_c, 0, 79, 77
2, 20958, Note_on_c, 0, 79, 0
2, 20960, Note_on_c, 0, 81, 77
2, 20990, Note_on_c, 0, 81, 0
2, 20992, Note_on_c, 0, 83, 78
2, 21022, Note_on_c, 0, 83, 0
2, 21024, Note_on_c, 0, 81, 79
2, 21054, Note_on_c, 0, 81, 0
2, 21056, Note_on_c, 0, 79, 79
2, 21086, Note_on_c, 0, 79, 0
2, 21088, Note_on_c, 0, 78, 79
2, 21118, Note_on_c, 0, 78, 0
2, 21120, Note_on_c, 0, 76, 79
2, 21150, Note_on_c, 0, 76, 0
2, 21152, Note_on_c, 0, 74, 78
2, 21182, Note_on_c, 0, 74, 0
2, 21184, Note_on_c, 0, 73, 77
2, 21214, Note_on_c, 0, 73, 0
2, 21216, Note_on_c, 0, 74, 77
2, 21246, Note_on_c, 0, 74, 0
2, 21248, Note_on_c, 0, 69, 76
2, 21278, Note_on_c, 0, 69, 0
2, 21280, Note_on_c, 0, 66, 76
2, 21310, Note_on_c, 0, 66, 0
2, 21312, Note_on_c, 0, 71, 75
2, 21342, Note_on_c, 0, 71, 0
2, 21344, Note_on_c, 0, 69, 75
2, 21374, Note_on_c, 0, 69, 0
2, 21376, Note_on_c, 0, 67, 75
2, 21406, Note_on_c, 0, 67, 0
2, 21408, Note_on_c, 0, 66, 75
2, 21497, Note_on_c, 0, 66, 0
2, 21504, Note_on_c, 0, 64, 75
2, 21517, Note_on_c, 0, 64, 0
2, 21518, Note_on_c, 0, 66, 75
2, 21531, Note_on_c, 0, 66, 0
2, 21532, Note_on_c, 0, 64, 75
2, 21545, Note_on_c, 0, 64, 0
2, 21546, Note_on_c, 0, 66, 75
2, 21559, Note_on_c, 0, 66, 0
2, 21560, Note_on_c, 0, 64, 75
2, 21573, Note_on_c, 0, 64, 0
2, 21574, Note_on_c, 0, 62, 75
2, 21586, Note_on_c, 0, 62, 0
2, 21587, Note_on_c, 0, 64, 75
2, 21599, Note_on_c, 0, 64, 0
2, 21600, Note_on_c, 0, 62, 75
2, 21777, Note_on_c, 0, 62, 0
2, 21960, Note_on_c, 0, 62, 80
2, 21972, Note_on_c, 0, 62, 0
2, 21972, Note_on_c, 0, 64, 80
2, 21984, Note_on_c, 0, 64, 0
2, 21984, Note_on_c, 0, 65, 80
2, 22051, Note_on_c, 0, 65, 0
2, 22056, Note_on_c, 0, 65, 80
2, 22068, Note_on_c, 0, 65, 0
2, 22068, Note_on_c, 0, 67, 80
2, 22080, Note_on_c, 0, 67, 0
2, 22080, Note_on_c, 0, 69, 80
2, 22147, Note_on_c, 0, 69, 0
2, 22152, Note_on_c, 0, 71, 80
2, 22164, Note_on_c, 0, 71, 0
2, 22164, Note_on_c, 0, 73, 80
2, 22176, Note_on_c, 0, 73, 0
2, 22176, Note_on_c, 0, 74, 80
2, 22243, Note_on_c, 0, 74, 0
2, 22248, Note_on_c, 0, 74, 80
2, 22260, Note_on_c, 0, 74, 0
2, 22260, Note_on_c, 0, 76, 80
2, 22272, Note_on_c, 0, 76, 0
2, 22272, Note_on_c, 0, 77, 80
2, 22311, Note_on_c, 0, 77, 0
2, 22464, Note_on_c, 0, 76, 64
2, 22509, Note_on_c, 0, 76, 0
2, 22512, Note_on_c, 0, 82, 64
2, 22512, Note_on_c, 0, 79, 64
2, 22532, Note_on_c, 0, 82, 0
2, 22532, Note_on_c, 0, 79, 0
2, 22560, Note_on_c, 0, 82, 64
2, 22560, Note_on_c, 0, 79, 64
2, 22608, Note_on_c, 0, 82, 0
2, 22608, Note_on_c, 0, 79, 0
2, 22608, Note_on_c, 0, 81, 64
2, 22608, Note_on_c, 0, 77, 64
2, 22653, Note_on_c, 0, 81, 0
2, 22653, Note_on_c, 0, 77, 0
2, 22656, Note_on_c, 0, 81, 64
2, 22656, Note_on_c, 0, 77, 64
2, 22704, Note_on_c, 0, 81, 0
2, 22704, Note_on_c, 0, 77, 0
2, 22704, Note_on_c, 0, 79, 64
2, 22704, Note_on_c, 0, 76, 64
2, 22724, Note_on_c, 0, 79, 0
2, 22724, Note_on_c, 0, 76, 0
2, 22752, Note_on_c, 0, 79, 64
2, 22752, Note_on_c, 0, 76, 64
2, 22800, Note_on_c, 0, 79, 0
2, 22800, Note_on_c, 0, 76, 0
2, 22800, Note_on_c, 0, 77, 64
2, 22800, Note_on_c, 0, 74, 64
2, 22845, Note_on_c, 0, 77, 0
2, 22845, Note_on_c, 0, 74, 0
2, 22848, Note_on_c, 0, 81, 64
2, 22848, Note_on_c, 0, 77, 64
2, 22937, Note_on_c, 0, 81, 0
2, 22937, Note_on_c, 0, 77, 0
2, 23112, Note_on_c, 0, 62, 80
2, 23124, Note_on_c, 0, 62, 0
2, 23124, Note_on_c, 0, 64, 80
2, 23136, Note_on_c, 0, 64, 0
2, 23136, Note_on_c, 0, 65, 80
2, 23203, Note_on_c, 0, 65, 0
2, 23208, Note_on_c, 0, 65, 80
2, 23220, Note_on_c, 0, 65, 0
2, 23220, Note_on_c, 0, 67, 80
2, 23232, Note_on_c, 0, 67, 0
2, 23232, Note_on_c, 0, 69, 80
2, 23299, Note_on_c, 0, 69, 0
2, 23304, Note_on_c, 0, 71, 80
2, 23316, Note_on_c, 0, 71, 0
2, 23316, Note_on_c, 0, 73, 80
2, 23328, Note_on_c, 0, 73, 0
2, 23328, Note_on_c, 0, 74, 80
2, 23395, Note_on_c, 0, 74, 0
2, 23400, Note_on_c, 0, 74, 80
2, 23412, Note_on_c, 0, 74, 0
2, 23412, Note_on_c, 0, 76, 80
2, 23424, Note_on_c, 0, 76, 0
2, 23424, Note_on_c, 0, 77, 80
2, 23463, Note_on_c, 0, 77, 0
2, 23616, Note_on_c, 0, 76, 64
2, 23661, Note_on_c, 0, 76, 0
2, 23664, Note_on_c, 0, 82, 64
2, 23664, Note_on_c, 0, 79, 64
2, 23684, Note_on_c, 0, 82, 0
2, 23684, Note_on_c, 0, 79, 0
2, 23712, Note_on_c, 0, 82, 64
2, 23712, Note_on_c, 0, 79, 64
2, 23760, Note_on_c, 0, 82, 0
2, 23760, Note_on_c, 0, 79, 0
2, 23760, Note_on_c, 0, 81, 64
2, 23760, Note_on_c, 0, 77, 64
2, 23780, Note_on_c, 0, 81, 0
2, 23780, Note_on_c, 0, 77, 0
2, 23808, Note_on_c, 0, 81, 64
2, 23808, Note_on_c, 0, 77, 64
2, 23856, Note_on_c, 0, 81, 0
2, 23856, Note_on_c, 0, 77, 0
2, 23856, Note_on_c, 0, 79, 64
2, 23856, Note_on_c, 0, 76, 64
2, 23876, Note_on_c, 0, 79, 0
2, 23876, Note_on_c, 0, 76, 0
2, 23904, Note_on_c, 0, 77, 64
2, 23904, Note_on_c, 0, 74, 64
2, 23952, Note_on_c, 0, 74, 0
2, 23952, Note_on_c, 0, 81, 64
2, 23972, Note_on_c, 0, 81, 0
2, 23972, Note_on_c, 0, 77, 0
2, 24000, Note_on_c, 0, 81, 64
2, 24000, Note_on_c, 0, 77, 64
2, 24048, Note_on_c, 0, 81, 0
2, 24048, Note_on_c, 0, 77, 0
2, 24048, Note_on_c, 0, 79, 64
2, 24048, Note_on_c, 0, 76, 64
2, 24068, Note_on_c, 0, 79, 0
2, 24068, Note_on_c, 0, 76, 0
2, 24096, Note_on_c, 0, 79, 64
2, 24096, Note_on_c, 0, 76, 64
2, 24144, Note_on_c, 0, 79, 0
2, 24144, Note_on_c, 0, 76, 0
2, 24144, Note_on_c, 0, 77, 64
2, 24144, Note_on_c, 0, 74, 64
2, 24164, Note_on_c, 0, 77, 0
2, 24164, Note_on_c, 0, 74, 0
2, 24240, Note_on_c, 0, 77, 64
2, 24240, Note_on_c, 0, 74, 64
2, 24285, Note_on_c, 0, 77, 0
2, 24285, Note_on_c, 0, 74, 0
2, 24288, Note_on_c, 0, 76, 64
2, 24288, Note_on_c, 0, 73, 64
2, 24333, Note_on_c, 0, 76, 0
2, 24333, Note_on_c, 0, 73, 0
2, 24336, Note_on_c, 0, 77, 64
2, 24336, Note_on_c, 0, 74, 64
2, 24381, Note_on_c, 0, 77, 0
2, 24381, Note_on_c, 0, 74, 0
2, 24432, Note_on_c, 0, 77, 80
2, 24432, Note_on_c, 0, 74, 80
2, 24477, Note_on_c, 0, 77, 0
2, 24477, Note_on_c, 0, 74, 0
2, 24480, Note_on_c, 0, 77, 80
2, 24480, Note_on_c, 0, 74, 80
2, 24576, Note_on_c, 0, 77, 0
2, 24576, Note_on_c, 0, 74, 0
2, 24576, Note_on_c, 0, 76, 64
2, 24576, Note_on_c, 0, 73, 64
2, 24665, Note_on_c, 0, 76, 0
2, 24665, Note_on_c, 0, 73, 0
2, 24840, Note_on_c, 0, 65, 80
2, 24852, Note_on_c, 0, 65, 0
2, 24852, Note_on_c, 0, 67, 80
2, 24864, Note_on_c, 0, 67, 0
2, 24864, Note_on_c, 0, 69, 80
2, 24931, Note_on_c, 0, 69, 0
2, 24936, Note_on_c, 0, 69, 80
2, 24948, Note_on_c, 0, 69, 0
2, 24948, Note_on_c, 0, 70, 80
2, 24960, Note_on_c, 0, 70, 0
2, 24960, Note_on_c, 0, 72, 80
2, 25027, Note_on_c, 0, 72, 0
2, 25032, Note_on_c, 0, 74, 80
2, 25044, Note_on_c, 0, 74, 0
2, 25044, Note_on_c, 0, 76, 80
2, 25056, Note_on_c, 0, 76, 0
2, 25056, Note_on_c, 0, 77, 80
2, 25123, Note_on_c, 0, 77, 0
2, 25128, Note_on_c, 0, 77, 80
2, 25140, Note_on_c, 0, 77, 0
2, 25140, Note_on_c, 0, 79, 80
2, 25152, Note_on_c, 0, 79, 0
2, 25152, Note_on_c, 0, 81, 80
2, 25219, Note_on_c, 0, 81, 0
2, 25224, Note_on_c, 0, 81, 80
2, 25236, Note_on_c, 0, 81, 0
2, 25236, Note_on_c, 0, 82, 80
2, 25248, Note_on_c, 0, 82, 0
2, 25248, Note_on_c, 0, 84, 80
2, 25315, Note_on_c, 0, 84, 0
2, 25320, Note_on_c, 0, 86, 80
2, 25332, Note_on_c, 0, 86, 0
2, 25332, Note_on_c, 0, 88, 80
2, 25344, Note_on_c, 0, 88, 0
2, 25344, Note_on_c, 0, 89, 80
2, 25389, Note_on_c, 0, 89, 0
2, 25392, Note_on_c, 0, 84, 80
2, 25437, Note_on_c, 0, 84, 0
2, 25440, Note_on_c, 0, 82, 78
2, 25452, Note_on_c, 0, 82, 0
2, 25452, Note_on_c, 0, 84, 78
2, 25464, Note_on_c, 0, 84, 0
2, 25464, Note_on_c, 0, 82, 78
2, 25485, Note_on_c, 0, 82, 0
2, 25488, Note_on_c, 0, 81, 76
2, 25533, Note_on_c, 0, 81, 0
2, 25536, Note_on_c, 0, 79, 74
2, 25548, Note_on_c, 0, 79, 0
2, 25548, Note_on_c, 0, 81, 74
2, 25560, Note_on_c, 0, 81, 0
2, 25560, Note_on_c, 0, 79, 74
2, 25581, Note_on_c, 0, 79, 0
2, 25584, Note_on_c, 0, 77, 72
2, 25629, Note_on_c, 0, 77, 0
2, 25680, Note_on_c, 0, 79, 70
2, 25725, Note_on_c, 0, 79, 0
2, 25728, Note_on_c, 0, 84, 70
2, 25773, Note_on_c, 0, 84, 0
2, 25776, Note_on_c, 0, 76, 70
2, 25821, Note_on_c, 0, 76, 0
2, 25824, Note_on_c, 0, 79, 70
2, 25836, Note_on_c, 0, 79, 0
2, 25836, Note_on_c, 0, 77, 70
2, 25848, Note_on_c, 0, 77, 0
2, 25848, Note_on_c, 0, 76, 70
2, 25860, Note_on_c, 0, 76, 0
2, 25860, Note_on_c, 0, 77, 70
2, 25913, Note_on_c, 0, 77, 0
2, 25968, Note_on_c, 0, 79, 64
2, 26013, Note_on_c, 0, 79, 0
2, 26016, Note_on_c, 0, 84, 64
2, 26061, Note_on_c, 0, 84, 0
2, 26064, Note_on_c, 0, 76, 64
2, 26109, Note_on_c, 0, 76, 0
2, 26112, Note_on_c, 0, 79, 64
2, 26124, Note_on_c, 0, 79, 0
2, 26124, Note_on_c, 0, 77, 64
2, 26136, Note_on_c, 0, 77, 0
2, 26136, Note_on_c, 0, 76, 64
2, 26148, Note_on_c, 0, 76, 0
2, 26148, Note_on_c, 0, 77, 64
2, 26201, Note_on_c, 0, 77, 0
2, 26256, Note_on_c, 0, 70, 64
2, 26256, Note_on_c, 0, 67, 64
2, 26276, Note_on_c, 0, 70, 0
2, 26276, Note_on_c, 0, 67, 0
2, 26304, Note_on_c, 0, 70, 65
2, 26304, Note_on_c, 0, 67, 65
2, 26352, Note_on_c, 0, 70, 0
2, 26352, Note_on_c, 0, 67, 0
2, 26352, Note_on_c, 0, 69, 66
2, 26352, Note_on_c, 0, 65, 66
2, 26372, Note_on_c, 0, 69, 0
2, 26372, Note_on_c, 0, 65, 0
2, 26400, Note_on_c, 0, 69, 67
2, 26400, Note_on_c, 0, 65, 67
2, 26448, Note_on_c, 0, 69, 0
2, 26448, Note_on_c, 0, 65, 0
2, 26448, Note_on_c, 0, 67, 68
2, 26448, Note_on_c, 0, 64, 68
2, 26468, Note_on_c, 0, 67, 0
2, 26468, Note_on_c, 0, 64, 0
2, 26544, Note_on_c, 0, 72, 70
2, 26544, Note_on_c, 0, 69, 70
2, 26564, Note_on_c, 0, 72, 0
2, 26564, Note_on_c, 0, 69, 0
2, 26592, Note_on_c, 0, 72, 71
2, 26592, Note_on_c, 0, 69, 71
2, 26640, Note_on_c, 0, 72, 0
2, 26640, Note_on_c, 0, 69, 0
2, 26640, Note_on_c, 0, 70, 72
2, 26640, Note_on_c, 0, 67, 72
2, 26660, Note_on_c, 0, 70, 0
2, 26660, Note_on_c, 0, 67, 0
2, 26688, Note_on_c, 0, 70, 72
2, 26688, Note_on_c, 0, 67, 72
2, 26736, Note_on_c, 0, 70, 0
2, 26736, Note_on_c, 0, 67, 0
2, 26736, Note_on_c, 0, 69, 73
2, 26736, Note_on_c, 0, 65, 73
2, 26756, Note_on_c, 0, 69, 0
2, 26756, Note_on_c, 0, 65, 0
2, 26832, Note_on_c, 0, 74, 75
2, 26832, Note_on_c, 0, 70, 75
2, 26852, Note_on_c, 0, 74, 0
2, 26852, Note_on_c, 0, 70, 0
2, 26880, Note_on_c, 0, 74, 76
2, 26880, Note_on_c, 0, 70, 76
2, 26928, Note_on_c, 0, 74, 0
2, 26928, Note_on_c, 0, 70, 0
2, 26928, Note_on_c, 0, 72, 77
2, 26928, Note_on_c, 0, 69, 77
2, 26948, Note_on_c, 0, 72, 0
2, 26948, Note_on_c, 0, 69, 0
2, 26976, Note_on_c, 0, 72, 78
2, 26976, Note_on_c, 0, 69, 78
2, 27024, Note_on_c, 0, 72, 0
2, 27024, Note_on_c, 0, 69, 0
2, 27024, Note_on_c, 0, 70, 79
2, 27024, Note_on_c, 0, 67, 79
2, 27044, Note_on_c, 0, 70, 0
2, 27044, Note_on_c, 0, 67, 0
2, 27120, Note_on_c, 0, 77, 80
2, 27143, Note_on_c, 0, 77, 0
2, 27144, Note_on_c, 0, 79, 80
2, 27167, Note_on_c, 0, 79, 0
2, 27168, Note_on_c, 0, 81, 80
2, 27213, Note_on_c, 0, 81, 0
2, 27216, Note_on_c, 0, 77, 80
2, 27261, Note_on_c, 0, 77, 0
2, 27312, Note_on_c, 0, 77, 80
2, 27357, Note_on_c, 0, 77, 0
2, 27408, Note_on_c, 0, 77, 80
2, 27431, Note_on_c, 0, 77, 0
2, 27432, Note_on_c, 0, 79, 80
2, 27455, Note_on_c, 0, 79, 0
2, 27456, Note_on_c, 0, 81, 80
2, 27501, Note_on_c, 0, 81, 0
2, 27504, Note_on_c, 0, 77, 80
2, 27549, Note_on_c, 0, 77, 0
2, 27600, Note_on_c, 0, 77, 80
2, 27645, Note_on_c, 0, 77, 0
2, 27696, Note_on_c, 0, 86, 80
2, 27696, Note_on_c, 0, 82, 80
2, 27741, Note_on_c, 0, 86, 0
2, 27741, Note_on_c, 0, 82, 0
2, 27744, Note_on_c, 0, 84, 80
2, 27744, Note_on_c, 0, 81, 80
2, 27789, Note_on_c, 0, 84, 0
2, 27789, Note_on_c, 0, 81, 0
2, 27792, Note_on_c, 0, 82, 80
2, 27792, Note_on_c, 0, 79, 80
2, 27837, Note_on_c, 0, 82, 0
2, 27837, Note_on_c, 0, 79, 0
2, 27840, Note_on_c, 0, 81, 80
2, 27840, Note_on_c, 0, 77, 80
2, 27885, Note_on_c, 0, 81, 0
2, 27885, Note_on_c, 0, 77, 0
2, 27888, Note_on_c, 0, 79, 80
2, 27888, Note_on_c, 0, 76, 80
2, 27933, Note_on_c, 0, 79, 0
2, 27933, Note_on_c, 0, 76, 0
2, 27936, Note_on_c, 0, 79, 80
2, 27948, Note_on_c, 0, 79, 0
2, 27948, Note_on_c, 0, 77, 80
2, 27960, Note_on_c, 0, 77, 0
2, 27960, Note_on_c, 0, 76, 80
2, 27972, Note_on_c, 0, 76, 0
2, 27972, Note_on_c, 0, 77, 80
2, 28113, Note_on_c, 0, 77, 0
2, 28296, Note_on_c, 0, 62, 80
2, 28308, Note_on_c, 0, 62, 0
2, 28308, Note_on_c, 0, 64, 80
2, 28320, Note_on_c, 0, 64, 0
2, 28320, Note_on_c, 0, 65, 80
2, 28387, Note_on_c, 0, 65, 0
2, 28392, Note_on_c, 0, 65, 80
2, 28404, Note_on_c, 0, 65, 0
2, 28404, Note_on_c, 0, 67, 80
2, 28416, Note_on_c, 0, 67, 0
2, 28416, Note_on_c, 0, 69, 80
2, 28483, Note_on_c, 0, 69, 0
2, 28488, Note_on_c, 0, 71, 80
2, 28500, Note_on_c, 0, 71, 0
2, 28500, Note_on_c, 0, 73, 80
2, 28512, Note_on_c, 0, 73, 0
2, 28512, Note_on_c, 0, 74, 80
2, 28579, Note_on_c, 0, 74, 0
2, 28584, Note_on_c, 0, 74, 80
2, 28596, Note_on_c, 0, 74, 0
2, 28596, Note_on_c, 0, 76, 80
2, 28608, Note_on_c, 0, 76, 0
2, 28608, Note_on_c, 0, 77, 80
2, 28647, Note_on_c, 0, 77, 0
2, 28800, Note_on_c, 0, 76, 64
2, 28845, Note_on_c, 0, 76, 0
2, 28848, Note_on_c, 0, 82, 64
2, 28848, Note_on_c, 0, 79, 64
2, 28868, Note_on_c, 0, 82, 0
2, 28868, Note_on_c, 0, 79, 0
2, 28896, Note_on_c, 0, 82, 64
2, 28896, Note_on_c, 0, 79, 64
2, 28944, Note_on_c, 0, 82, 0
2, 28944, Note_on_c, 0, 79, 0
2, 28944, Note_on_c, 0, 81, 64
2, 28944, Note_on_c, 0, 77, 64
2, 28989, Note_on_c, 0, 81, 0
2, 28989, Note_on_c, 0, 77, 0
2, 28992, Note_on_c, 0, 81, 64
2, 28992, Note_on_c, 0, 77, 64
2, 29040, Note_on_c, 0, 81, 0
2, 29040, Note_on_c, 0, 77, 0
2, 29040, Note_on_c, 0, 79, 64
2, 29040, Note_on_c, 0, 76, 64
2, 29060, Note_on_c, 0, 79, 0
2, 29060, Note_on_c, 0, 76, 0
2, 29088, Note_on_c, 0, 79, 64
2, 29088, Note_on_c, 0, 76, 64
2, 29136, Note_on_c, 0, 79, 0
2, 29136, Note_on_c, 0, 76, 0
2, 29136, Note_on_c, 0, 77, 64
2, 29136, Note_on_c, 0, 74, 64
2, 29181, Note_on_c, 0, 77, 0
2, 29181, Note_on_c, 0, 74, 0
2, 29184, Note_on_c, 0, 81, 64
2, 29184, Note_on_c, 0, 77, 64
2, 29273, Note_on_c, 0, 81, 0
2, 29273, Note_on_c, 0, 77, 0
2, 29448, Note_on_c, 0, 62, 80
2, 29460, Note_on_c, 0, 62, 0
2, 29460, Note_on_c, 0, 64, 80
2, 29472, Note_on_c, 0, 64, 0
2, 29472, Note_on_c, 0, 65, 80
2, 29539, Note_on_c, 0, 65, 0
2, 29544, Note_on_c, 0, 65, 80
2, 29556, Note_on_c, 0, 65, 0
2, 29556, Note_on_c, 0, 67, 80
2, 29568, Note_on_c, 0, 67, 0
2, 29568, Note_on_c, 0, 69, 80
2, 29635, Note_on_c, 0, 69, 0
2, 29640, Note_on_c, 0, 71, 80
2, 29652, Note_on_c, 0, 71, 0
2, 29652, Note_on_c, 0, 73, 80
2, 29664, Note_on_c, 0, 73, 0
2, 29664, Note_on_c, 0, 74, 80
2, 29731, Note_on_c, 0, 74, 0
2, 29736, Note_on_c, 0, 74, 80
2, 29748, Note_on_c, 0, 74, 0
2, 29748, Note_on_c, 0, 76, 80
2, 29760, Note_on_c, 0, 76, 0
2, 29760, Note_on_c, 0, 77, 80
2, 29799, Note_on_c, 0, 77, 0
2, 29952, Note_on_c, 0, 76, 64
2, 29997, Note_on_c, 0, 76, 0
2, 30000, Note_on_c, 0, 82, 64
2, 30000, Note_on_c, 0, 79, 64
2, 30020, Note_on_c, 0, 82, 0
2, 30020, Note_on_c, 0, 79, 0
2, 30048, Note_on_c, 0, 82, 64
2, 30048, Note_on_c, 0, 79, 64
2, 30096, Note_on_c, 0, 82, 0
2, 30096, Note_on_c, 0, 79, 0
2, 30096, Note_on_c, 0, 81, 64
2, 30096, Note_on_c, 0, 77, 64
2, 30116, Note_on_c, 0, 81, 0
2, 30116, Note_on_c, 0, 77, 0
2, 30144, Note_on_c, 0, 81, 64
2, 30144, Note_on_c, 0, 77, 64
2, 30192, Note_on_c, 0, 81, 0
2, 30192, Note_on_c, 0, 77, 0
2, 30192, Note_on_c, 0, 79, 64
2, 30192, Note_on_c, 0, 76, 64
2, 30212, Note_on_c, 0, 79, 0
2, 30212, Note_on_c, 0, 76, 0
2, 30240, Note_on_c, 0, 77, 64
2, 30240, Note_on_c, 0, 74, 64
2, 30288, Note_on_c, 0, 74, 0
2, 30288, Note_on_c, 0, 81, 64
2, 30308, Note_on_c, 0, 81, 0
2, 30308, Note_on_c, 0, 77, 0
2, 30336, Note_on_c, 0, 81, 64
2, 30336, Note_on_c, 0, 77, 64
2, 30384, Note_on_c, 0, 81, 0
2, 30384, Note_on_c, 0, 77, 0
2, 30384, Note_on_c, 0, 79, 64
2, 30384, Note_on_c, 0, 76, 64
2, 30404, Note_on_c, 0, 79, 0
2, 30404, Note_on_c, 0, 76, 0
2, 30432, Note_on_c, 0, 79, 64
2, 30432, Note_on_c, 0, 76, 64
2, 30480, Note_on_c, 0, 79, 0
2, 30480, Note_on_c, 0, 76, 0
2, 30480, Note_on_c, 0, 77, 64
2, 30480, Note_on_c, 0, 74, 64
2, 30500, Note_on_c, 0, 77, 0
2, 30500, Note_on_c, 0, 74, 0
2, 30576, Note_on_c, 0, 77, 64
2, 30576, Note_on_c, 0, 74, 64
2, 30621, Note_on_c, 0, 77, 0
2, 30621, Note_on_c, 0, 74, 0
2, 30624, Note_on_c, 0, 76, 64
2, 30624, Note_on_c, 0, 73, 64
2, 30669, Note_on_c, 0, 76, 0
2, 30669, Note_on_c, 0, 73, 0
2, 30672, Note_on_c, 0, 77, 64
2, 30672, Note_on_c, 0, 74, 64
2, 30717, Note_on_c, 0, 77, 0
2, 30717, Note_on_c, 0, 74, 0
2, 30768, Note_on_c, 0, 77, 80
2, 30768, Note_on_c, 0, 74, 80
2, 30813, Note_on_c, 0, 77, 0
2, 30813, Note_on_c, 0, 74, 0
2, 30816, Note_on_c, 0, 77, 80
2, 30816, Note_on_c, 0, 74, 80
2, 30912, Note_on_c, 0, 77, 0
2, 30912, Note_on_c, 0, 74, 0
2, 30912, Note_on_c, 0, 76, 64
2, 30912, Note_on_c, 0, 73, 64
2, 31001, Note_on_c, 0, 76, 0
2, 31001, Note_on_c, 0, 73, 0
2, 31176, Note_on_c, 0, 65, 80
2, 31188, Note_on_c, 0, 65, 0
2, 31188, Note_on_c, 0, 67, 80
2, 31200, Note_on_c, 0, 67, 0
2, 31200, Note_on_c, 0, 69, 80
2, 31267, Note_on_c, 0, 69, 0
2, 31272, Note_on_c, 0, 69, 80
2, 31284, Note_on_c, 0, 69, 0
2, 31284, Note_on_c, 0, 70, 80
2, 31296, Note_on_c, 0, 70, 0
2, 31296, Note_on_c, 0, 72, 80
2, 31363, Note_on_c, 0, 72, 0
2, 31368, Note_on_c, 0, 74, 80
2, 31380, Note_on_c, 0, 74, 0
2, 31380, Note_on_c, 0, 76, 80
2, 31392, Note_on_c, 0, 76, 0
2, 31392, Note_on_c, 0, 77, 80
2, 31459, Note_on_c, 0, 77, 0
2, 31464, Note_on_c, 0, 77, 80
2, 31476, Note_on_c, 0, 77, 0
2, 31476, Note_on_c, 0, 79, 80
2, 31488, Note_on_c, 0, 79, 0
2, 31488, Note_on_c, 0, 81, 80
2, 31555, Note_on_c, 0, 81, 0
2, 31560, Note_on_c, 0, 81, 80
2, 31572, Note_on_c, 0, 81, 0
2, 31572, Note_on_c, 0, 82, 80
2, 31584, Note_on_c, 0, 82, 0
2, 31584, Note_on_c, 0, 84, 80
2, 31651, Note_on_c, 0, 84, 0
2, 31656, Note_on_c, 0, 86, 80
2, 31668, Note_on_c, 0, 86, 0
2, 31668, Note_on_c, 0, 88, 80
2, 31680, Note_on_c, 0, 88, 0
2, 31680, Note_on_c, 0, 89, 80
2, 31725, Note_on_c, 0, 89, 0
2, 31728, Note_on_c, 0, 84, 80
2, 31773, Note_on_c, 0, 84, 0
2, 31776, Note_on_c, 0, 82, 78
2, 31788, Note_on_c, 0, 82, 0
2, 31788, Note_on_c, 0, 84, 78
2, 31800, Note_on_c, 0, 84, 0
2, 31800, Note_on_c, 0, 82, 78
2, 31821, Note_on_c, 0, 82, 0
2, 31824, Note_on_c, 0, 81, 76
2, 31869, Note_on_c, 0, 81, 0
2, 31872, Note_on_c, 0, 79, 74
2, 31884, Note_on_c, 0, 79, 0
2, 31884, Note_on_c, 0, 81, 74
2, 31896, Note_on_c, 0, 81, 0
2, 31896, Note_on_c, 0, 79, 74
2, 31917, Note_on_c, 0, 79, 0
2, 31920, Note_on_c, 0, 77, 72
2, 31965, Note_on_c, 0, 77, 0
2, 32016, Note_on_c, 0, 79, 70
2, 32061, Note_on_c, 0, 79, 0
2, 32064, Note_on_c, 0, 84, 70
2, 32109, Note_on_c, 0, 84, 0
2, 32112, Note_on_c, 0, 76, 70
2, 32157, Note_on_c, 0, 76, 0
2, 32160, Note_on_c, 0, 79, 70
2, 32172, Note_on_c, 0, 79, 0
2, 32172, Note_on_c, 0, 77, 70
2, 32184, Note_on_c, 0, 77, 0
2, 32184, Note_on_c, 0, 76, 70
2, 32196, Note_on_c, 0, 76, 0
2, 32196, Note_on_c, 0, 77, 70
2, 32249, Note_on_c, 0, 77, 0
2, 32304, Note_on_c, 0, 79, 64
2, 32349, Note_on_c, 0, 79, 0
2, 32352, Note_on_c, 0, 84, 64
2, 32397, Note_on_c, 0, 84, 0
2, 32400, Note_on_c, 0, 76, 64
2, 32445, Note_on_c, 0, 76, 0
2, 32448, Note_on_c, 0, 79, 64
2, 32460, Note_on_c, 0, 79, 0
2, 32460, Note_on_c, 0, 77, 64
2, 32472, Note_on_c, 0, 77, 0
2, 32472, Note_on_c, 0, 76, 64
2, 32484, Note_on_c, 0, 76, 0
2, 32484, Note_on_c, 0, 77, 64
2, 32537, Note_on_c, 0, 77, 0
2, 32592, Note_on_c, 0, 70, 64
2, 32592, Note_on_c, 0, 67, 64
2, 32612, Note_on_c, 0, 70, 0
2, 32612, Note_on_c, 0, 67, 0
2, 32640, Note_on_c, 0, 70, 65
2, 32640, Note_on_c, 0, 67, 65
2, 32688, Note_on_c, 0, 70, 0
2, 32688, Note_on_c, 0, 67, 0
2, 32688, Note_on_c, 0, 69, 66
2, 32688, Note_on_c, 0, 65, 66
2, 32708, Note_on_c, 0, 69, 0
2, 32708, Note_on_c, 0, 65, 0
2, 32736, Note_on_c, 0, 69, 67
2, 32736, Note_on_c, 0, 65, 67
2, 32784, Note_on_c, 0, 69, 0
2, 32784, Note_on_c, 0, 65, 0
2, 32784, Note_on_c, 0, 67, 68
2, 32784, Note_on_c, 0, 64, 68
2, 32804, Note_on_c, 0, 67, 0
2, 32804, Note_on_c, 0, 64, 0
2, 32880, Note_on_c, 0, 72, 70
2, 32880, Note_on_c, 0, 69, 70
2, 32900, Note_on_c, 0, 72, 0
2, 32900, Note_on_c, 0, 69, 0
2, 32928, Note_on_c, 0, 72, 71
2, 32928, Note_on_c, 0, 69, 71
2, 32976, Note_on_c, 0, 72, 0
2, 32976, Note_on_c, 0, 69, 0
2, 32976, Note_on_c, 0, 70, 72
2, 32976, Note_on_c, 0, 67, 72
2, 32996, Note_on_c, 0, 70, 0
2, 32996, Note_on_c, 0, 67, 0
2, 33024, Note_on_c, 0, 70, 72
2, 33024, Note_on_c, 0, 67, 72
2, 33072, Note_on_c, 0, 70, 0
2, 33072, Note_on_c, 0, 67, 0
2, 33072, Note_on_c, 0, 69, 73
2, 33072, Note_on_c, 0, 65, 73
2, 33092, Note_on_c, 0, 69, 0
2, 33092, Note_on_c, 0, 65, 0
2, 33168, Note_on_c, 0, 74, 75
2, 33168, Note_on_c, 0, 70, 75
2, 33188, Note_on_c, 0, 74, 0
2, 33188, Note_on_c, 0, 70, 0
2, 33216, Note_on_c, 0, 74, 76
2, 33216, Note_on_c, 0, 70, 76
2, 33264, Note_on_c, 0, 74, 0
2, 33264, Note_on_c, 0, 70, 0
2, 33264, Note_on_c, 0, 72, 77
2, 33264, Note_on_c, 0, 69, 77
2, 33284, Note_on_c, 0, 72, 0
2, 33284, Note_on_c, 0, 69, 0
2, 33312, Note_on_c, 0, 72, 78
2, 33312, Note_on_c, 0, 69, 78
2, 33360, Note_on_c, 0, 72, 0
2, 33360, Note_on_c, 0, 69, 0
2, 33360, Note_on_c, 0, 70, 79
2, 33360, Note_on_c, 0, 67, 79
2, 33380, Note_on_c, 0, 70, 0
2, 33380, Note_on_c, 0, 67, 0
2, 33456, Note_on_c, 0, 77, 80
2, 33479, Note_on_c, 0, 77, 0
2, 33480, Note_on_c, 0, 79, 80
2, 33503, Note_on_c, 0, 79, 0
2, 33504, Note_on_c, 0, 81, 80
2, 33549, Note_on_c, 0, 81, 0
2, 33552, Note_on_c, 0, 77, 80
2, 33597, Note_on_c, 0, 77, 0
2, 33648, Note_on_c, 0, 77, 80
2, 33693, Note_on_c, 0, 77, 0
2, 33744, Note_on_c, 0, 77, 80
2, 33767, Note_on_c, 0, 77, 0
2, 33768, Note_on_c, 0, 79, 80
2, 33791, Note_on_c, 0, 79, 0
2, 33792, Note_on_c, 0, 81, 80
2, 33837, Note_on_c, 0, 81, 0
2, 33840, Note_on_c, 0, 77, 80
2, 33885, Note_on_c, 0, 77, 0
2, 33936, Note_on_c, 0, 77, 80
2, 33981, Note_on_c, 0, 77, 0
2, 34032, Note_on_c, 0, 86, 80
2, 34032, Note_on_c, 0, 82, 80
2, 34077, Note_on_c, 0, 86, 0
2, 34077, Note_on_c, 0, 82, 0
2, 34080, Note_on_c, 0, 84, 80
2, 34080, Note_on_c, 0, 81, 80
2, 34125, Note_on_c, 0, 84, 0
2, 34125, Note_on_c, 0, 81, 0
2, 34128, Note_on_c, 0, 82, 80
2, 34128, Note_on_c, 0, 79, 80
2, 34173, Note_on_c, 0, 82, 0
2, 34173, Note_on_c, 0, 79, 0
2, 34176, Note_on_c, 0, 81, 80
2, 34176, Note_on_c, 0, 77, 80
2, 34221, Note_on_c, 0, 81, 0
2, 34221, Note_on_c, 0, 77, 0
2, 34224, Note_on_c, 0, 79, 80
2, 34224, Note_on_c, 0, 76, 80
2, 34269, Note_on_c, 0, 79, 0
2, 34269, Note_on_c, 0, 76, 0
2, 34272, Note_on_c, 0, 79, 80
2, 34284, Note_on_c, 0, 79, 0
2, 34284, Note_on_c, 0, 77, 80
2, 34296, Note_on_c, 0, 77, 0
2, 34296, Note_on_c, 0, 76, 80
2, 34308, Note_on_c, 0, 76, 0
2, 34308, Note_on_c, 0, 77, 80
2, 34449, Note_on_c, 0, 77, 0
2, 34632, Note_on_c, 0, 72, 80
2, 34644, Note_on_c, 0, 72, 0
2, 34644, Note_on_c, 0, 74, 80
2, 34656, Note_on_c, 0, 74, 0
2, 34656, Note_on_c, 0, 75, 80
2, 34723, Note_on_c, 0, 75, 0
2, 34728, Note_on_c, 0, 69, 80
2, 34740, Note_on_c, 0, 69, 0
2, 34740, Note_on_c, 0, 70, 80
2, 34752, Note_on_c, 0, 70, 0
2, 34752, Note_on_c, 0, 72, 80
2, 34819, Note_on_c, 0, 72, 0
2, 34824, Note_on_c, 0, 66, 80
2, 34836, Note_on_c, 0, 66, 0
2, 34836, Note_on_c, 0, 67, 80
2, 34848, Note_on_c, 0, 67, 0
2, 34848, Note_on_c, 0, 69, 80
2, 34915, Note_on_c, 0, 69, 0
2, 34920, Note_on_c, 0, 60, 80
2, 34932, Note_on_c, 0, 60, 0
2, 34932, Note_on_c, 0, 62, 80
2, 34944, Note_on_c, 0, 62, 0
2, 34944, Note_on_c, 0, 63, 80
2, 35011, Note_on_c, 0, 63, 0
2, 35016, Note_on_c, 0, 57, 80
2, 35028, Note_on_c, 0, 57, 0
2, 35028, Note_on_c, 0, 58, 80
2, 35040, Note_on_c, 0, 58, 0
2, 35040, Note_on_c, 0, 60, 80
2, 35107, Note_on_c, 0, 60, 0
2, 35112, Note_on_c, 0, 54, 80
2, 35124, Note_on_c, 0, 54, 0
2, 35124, Note_on_c, 0, 55, 80
2, 35136, Note_on_c, 0, 55, 0
2, 35136, Note_on_c, 0, 57, 80
2, 35181, Note_on_c, 0, 57, 0
2, 35184, Note_on_c, 0, 75, 64
2, 35184, Note_on_c, 0, 72, 64
2, 35204, Note_on_c, 0, 75, 0
2, 35204, Note_on_c, 0, 72, 0
2, 35232, Note_on_c, 0, 75, 64
2, 35232, Note_on_c, 0, 72, 64
2, 35280, Note_on_c, 0, 75, 0
2, 35280, Note_on_c, 0, 72, 0
2, 35280, Note_on_c, 0, 74, 64
2, 35280, Note_on_c, 0, 70, 64
2, 35300, Note_on_c, 0, 74, 0
2, 35300, Note_on_c, 0, 70, 0
2, 35328, Note_on_c, 0, 74, 64
2, 35328, Note_on_c, 0, 70, 64
2, 35376, Note_on_c, 0, 74, 0
2, 35376, Note_on_c, 0, 70, 0
2, 35376, Note_on_c, 0, 72, 64
2, 35376, Note_on_c, 0, 69, 64
2, 35396, Note_on_c, 0, 72, 0
2, 35396, Note_on_c, 0, 69, 0
2, 35424, Note_on_c, 0, 70, 64
2, 35424, Note_on_c, 0, 67, 64
2, 35472, Note_on_c, 0, 67, 0
2, 35472, Note_on_c, 0, 74, 64
2, 35492, Note_on_c, 0, 74, 0
2, 35492, Note_on_c, 0, 70, 0
2, 35520, Note_on_c, 0, 74, 64
2, 35520, Note_on_c, 0, 70, 64
2, 35568, Note_on_c, 0, 74, 0
2, 35568, Note_on_c, 0, 70, 0
2, 35568, Note_on_c, 0, 72, 64
2, 35568, Note_on_c, 0, 69, 64
2, 35588, Note_on_c, 0, 72, 0
2, 35588, Note_on_c, 0, 69, 0
2, 35616, Note_on_c, 0, 72, 64
2, 35616, Note_on_c, 0, 69, 64
2, 35664, Note_on_c, 0, 72, 0
2, 35664, Note_on_c, 0, 69, 0
2, 35664, Note_on_c, 0, 70, 64
2, 35664, Note_on_c, 0, 67, 64
2, 35684, Note_on_c, 0, 70, 0
2, 35684, Note_on_c, 0, 67, 0
2, 35784, Note_on_c, 0, 74, 80
2, 35796, Note_on_c, 0, 74, 0
2, 35796, Note_on_c, 0, 76, 80
2, 35808, Note_on_c, 0, 76, 0
2, 35808, Note_on_c, 0, 77, 80
2, 35875, Note_on_c, 0, 77, 0
2, 35880, Note_on_c, 0, 71, 80
2, 35892, Note_on_c, 0, 71, 0
2, 35892, Note_on_c, 0, 72, 80
2, 35904, Note_on_c, 0, 72, 0
2, 35904, Note_on_c, 0, 74, 80
2, 35971, Note_on_c, 0, 74, 0
2, 35976, Note_on_c, 0, 68, 80
2, 35988, Note_on_c, 0, 68, 0
2, 35988, Note_on_c, 0, 69, 80
2, 36000, Note_on_c, 0, 69, 0
2, 36000, Note_on_c, 0, 71, 80
2, 36067, Note_on_c, 0, 71, 0
2, 36072, Note_on_c, 0, 62, 80
2, 36084, Note_on_c, 0, 62, 0
2, 36084, Note_on_c, 0, 64, 80
2, 36096, Note_on_c, 0, 64, 0
2, 36096, Note_on_c, 0, 65, 80
2, 36163, Note_on_c, 0, 65, 0
2, 36168, Note_on_c, 0, 59, 80
2, 36180, Note_on_c, 0, 59, 0
2, 36180, Note_on_c, 0, 60, 80
2, 36192, Note_on_c, 0, 60, 0
2, 36192, Note_on_c, 0, 62, 80
2, 36259, Note_on_c, 0, 62, 0
2, 36264, Note_on_c, 0, 56, 80
2, 36276, Note_on_c, 0, 56, 0
2, 36276, Note_on_c, 0, 57, 80
2, 36288, Note_on_c, 0, 57, 0
2, 36288, Note_on_c, 0, 59, 80
2, 36333, Note_on_c, 0, 59, 0
2, 36336, Note_on_c, 0, 77, 64
2, 36336, Note_on_c, 0, 74, 64
2, 36356, Note_on_c, 0, 77, 0
2, 36356, Note_on_c, 0, 74, 0
2, 36384, Note_on_c, 0, 77, 64
2, 36384, Note_on_c, 0, 74, 64
2, 36432, Note_on_c, 0, 77, 0
2, 36432, Note_on_c, 0, 74, 0
2, 36432, Note_on_c, 0, 76, 64
2, 36432, Note_on_c, 0, 72, 64
2, 36452, Note_on_c, 0, 76, 0
2, 36452, Note_on_c, 0, 72, 0
2, 36480, Note_on_c, 0, 76, 64
2, 36480, Note_on_c, 0, 72, 64
2, 36528, Note_on_c, 0, 76, 0
2, 36528, Note_on_c, 0, 72, 0
2, 36528, Note_on_c, 0, 74, 64
2, 36528, Note_on_c, 0, 71, 64
2, 36548, Note_on_c, 0, 74, 0
2, 36548, Note_on_c, 0, 71, 0
2, 36576, Note_on_c, 0, 73, 64
2, 36576, Note_on_c, 0, 69, 64
2, 36624, Note_on_c, 0, 69, 0
2, 36624, Note_on_c, 0, 76, 64
2, 36644, Note_on_c, 0, 76, 0
2, 36644, Note_on_c, 0, 73, 0
2, 36672, Note_on_c, 0, 76, 64
2, 36672, Note_on_c, 0, 73, 64
2, 36720, Note_on_c, 0, 76, 0
2, 36720, Note_on_c, 0, 73, 0
2, 36720, Note_on_c, 0, 74, 64
2, 36720, Note_on_c, 0, 71, 64
2, 36740, Note_on_c, 0, 74, 0
2, 36740, Note_on_c, 0, 71, 0
2, 36768, Note_on_c, 0, 74, 64
2, 36768, Note_on_c, 0, 71, 64
2, 36816, Note_on_c, 0, 74, 0
2, 36816, Note_on_c, 0, 71, 0
2, 36816, Note_on_c, 0, 73, 64
2, 36816, Note_on_c, 0, 69, 64
2, 36836, Note_on_c, 0, 73, 0
2, 36836, Note_on_c, 0, 69, 0
2, 36912, Note_on_c, 0, 82, 64
2, 36912, Note_on_c, 0, 79, 64
2, 36932, Note_on_c, 0, 82, 0
2, 36932, Note_on_c, 0, 79, 0
2, 36960, Note_on_c, 0, 82, 65
2, 36960, Note_on_c, 0, 79, 65
2, 37008, Note_on_c, 0, 82, 0
2, 37008, Note_on_c, 0, 79, 0
2, 37008, Note_on_c, 0, 81, 66
2, 37008, Note_on_c, 0, 77, 66
2, 37028, Note_on_c, 0, 81, 0
2, 37028, Note_on_c, 0, 77, 0
2, 37056, Note_on_c, 0, 81, 68
2, 37056, Note_on_c, 0, 77, 68
2, 37104, Note_on_c, 0, 81, 0
2, 37104, Note_on_c, 0, 77, 0
2, 37104, Note_on_c, 0, 79, 69
2, 37104, Note_on_c, 0, 76, 69
2, 37124, Note_on_c, 0, 79, 0
2, 37124, Note_on_c, 0, 76, 0
2, 37152, Note_on_c, 0, 77, 71
2, 37152, Note_on_c, 0, 74, 71
2, 37200, Note_on_c, 0, 74, 0
2, 37200, Note_on_c, 0, 81, 72
2, 37220, Note_on_c, 0, 81, 0
2, 37220, Note_on_c, 0, 77, 0
2, 37248, Note_on_c, 0, 81, 74
2, 37248, Note_on_c, 0, 77, 74
2, 37296, Note_on_c, 0, 81, 0
2, 37296, Note_on_c, 0, 77, 0
2, 37296, Note_on_c, 0, 79, 75
2, 37296, Note_on_c, 0, 76, 75
2, 37316, Note_on_c, 0, 79, 0
2, 37316, Note_on_c, 0, 76, 0
2, 37344, Note_on_c, 0, 79, 77
2, 37344, Note_on_c, 0, 76, 77
2, 37392, Note_on_c, 0, 79, 0
2, 37392, Note_on_c, 0, 76, 0
2, 37392, Note_on_c, 0, 77, 78
2, 37392, Note_on_c, 0, 74, 78
2, 37412, Note_on_c, 0, 77, 0
2, 37412, Note_on_c, 0, 74, 0
2, 37488, Note_on_c, 0, 77, 80
2, 37488, Note_on_c, 0, 74, 80
2, 37533, Note_on_c, 0, 77, 0
2, 37533, Note_on_c, 0, 74, 0
2, 37536, Note_on_c, 0, 86, 80
2, 37581, Note_on_c, 0, 86, 0
2, 37584, Note_on_c, 0, 77, 80
2, 37584, Note_on_c, 0, 74, 80
2, 37629, Note_on_c, 0, 77, 0
2, 37629, Note_on_c, 0, 74, 0
2, 37632, Note_on_c, 0, 86, 80
2, 37677, Note_on_c, 0, 86, 0
2, 37680, Note_on_c, 0, 77, 76
2, 37680, Note_on_c, 0, 74, 76
2, 37725, Note_on_c, 0, 77, 0
2, 37725, Note_on_c, 0, 74, 0
2, 37728, Note_on_c, 0, 79, 72
2, 37743, Note_on_c, 0, 79, 0
2, 37744, Note_on_c, 0, 77, 71
2, 37759, Note_on_c, 0, 77, 0
2, 37760, Note_on_c, 0, 79, 70
2, 37775, Note_on_c, 0, 79, 0
2, 37776, Note_on_c, 0, 77, 69
2, 37791, Note_on_c, 0, 77, 0
2, 37792, Note_on_c, 0, 76, 68
2, 37807, Note_on_c, 0, 76, 0
2, 37808, Note_on_c, 0, 77, 67
2, 37823, Note_on_c, 0, 77, 0
2, 37824, Note_on_c, 0, 76, 64
2, 37824, Note_on_c, 0, 73, 64
2, 37913, Note_on_c, 0, 76, 0
2, 37913, Note_on_c, 0, 73, 0
2, 38088, Note_on_c, 0, 62, 80
2, 38100, Note_on_c, 0, 62, 0
2, 38100, Note_on_c, 0, 64, 80
2, 38112, Note_on_c, 0, 64, 0
2, 38112, Note_on_c, 0, 65, 80
2, 38179, Note_on_c, 0, 65, 0
2, 38184, Note_on_c, 0, 65, 80
2, 38196, Note_on_c, 0, 65, 0
2, 38196, Note_on_c, 0, 67, 80
2, 38208, Note_on_c, 0, 67, 0
2, 38208, Note_on_c, 0, 69, 80
2, 38275, Note_on_c, 0, 69, 0
2, 38280, Note_on_c, 0, 71, 80
2, 38292, Note_on_c, 0, 71, 0
2, 38292, Note_on_c, 0, 73, 80
2, 38304, Note_on_c, 0, 73, 0
2, 38304, Note_on_c, 0, 74, 80
2, 38371, Note_on_c, 0, 74, 0
2, 38376, Note_on_c, 0, 74, 80
2, 38388, Note_on_c, 0, 74, 0
2, 38388, Note_on_c, 0, 76, 80
2, 38400, Note_on_c, 0, 76, 0
2, 38400, Note_on_c, 0, 77, 80
2, 38439, Note_on_c, 0, 77, 0
2, 38592, Note_on_c, 0, 76, 64
2, 38637, Note_on_c, 0, 76, 0
2, 38640, Note_on_c, 0, 82, 64
2, 38640, Note_on_c, 0, 79, 64
2, 38660, Note_on_c, 0, 82, 0
2, 38660, Note_on_c, 0, 79, 0
2, 38688, Note_on_c, 0, 82, 64
2, 38688, Note_on_c, 0, 79, 64
2, 38736, Note_on_c, 0, 82, 0
2, 38736, Note_on_c, 0, 79, 0
2, 38736, Note_on_c, 0, 81, 64
2, 38736, Note_on_c, 0, 77, 64
2, 38756, Note_on_c, 0, 81, 0
2, 38756, Note_on_c, 0, 77, 0
2, 38784, Note_on_c, 0, 81, 64
2, 38784, Note_on_c, 0, 77, 64
2, 38832, Note_on_c, 0, 81, 0
2, 38832, Note_on_c, 0, 77, 0
2, 38832, Note_on_c, 0, 79, 64
2, 38832, Note_on_c, 0, 76, 64
2, 38852, Note_on_c, 0, 79, 0
2, 38852, Note_on_c, 0, 76, 0
2, 38880, Note_on_c, 0, 79, 64
2, 38880, Note_on_c, 0, 76, 64
2, 38928, Note_on_c, 0, 79, 0
2, 38928, Note_on_c, 0, 76, 0
2, 38928, Note_on_c, 0, 77, 64
2, 38928, Note_on_c, 0, 74, 64
2, 38948, Note_on_c, 0, 77, 0
2, 38948, Note_on_c, 0, 74, 0
2, 38976, Note_on_c, 0, 81, 64
2, 38976, Note_on_c, 0, 77, 64
2, 39065, Note_on_c, 0, 81, 0
2, 39065, Note_on_c, 0, 77, 0
2, 39240, Note_on_c, 0, 62, 80
2, 39252, Note_on_c, 0, 62, 0
2, 39252, Note_on_c, 0, 64, 80
2, 39264, Note_on_c, 0, 64, 0
2, 39264, Note_on_c, 0, 65, 80
2, 39331, Note_on_c, 0, 65, 0
2, 39336, Note_on_c, 0, 65, 80
2, 39348, Note_on_c, 0, 65, 0
2, 39348, Note_on_c, 0, 67, 80
2, 39360, Note_on_c, 0, 67, 0
2, 39360, Note_on_c, 0, 69, 80
2, 39427, Note_on_c, 0, 69, 0
2, 39432, Note_on_c, 0, 71, 80
2, 39444, Note_on_c, 0, 71, 0
2, 39444, Note_on_c, 0, 73, 80
2, 39456, Note_on_c, 0, 73, 0
2, 39456, Note_on_c, 0, 74, 80
2, 39523, Note_on_c, 0, 74, 0
2, 39528, Note_on_c, 0, 74, 80
2, 39540, Note_on_c, 0, 74, 0
2, 39540, Note_on_c, 0, 76, 80
2, 39552, Note_on_c, 0, 76, 0
2, 39552, Note_on_c, 0, 77, 80
2, 39619, Note_on_c, 0, 77, 0
2, 39624, Note_on_c, 0, 77, 80
2, 39636, Note_on_c, 0, 77, 0
2, 39636, Note_on_c, 0, 79, 80
2, 39648, Note_on_c, 0, 79, 0
2, 39648, Note_on_c, 0, 81, 80
2, 39715, Note_on_c, 0, 81, 0
2, 39720, Note_on_c, 0, 83, 80
2, 39732, Note_on_c, 0, 83, 0
2, 39732, Note_on_c, 0, 85, 80
2, 39744, Note_on_c, 0, 85, 0
2, 39744, Note_on_c, 0, 86, 80
2, 39789, Note_on_c, 0, 86, 0
2, 39792, Note_on_c, 0, 81, 80
2, 39837, Note_on_c, 0, 81, 0
2, 39840, Note_on_c, 0, 79, 78
2, 39852, Note_on_c, 0, 79, 0
2, 39852, Note_on_c, 0, 81, 78
2, 39864, Note_on_c, 0, 81, 0
2, 39864, Note_on_c, 0, 79, 78
2, 39885, Note_on_c, 0, 79, 0
2, 39888, Note_on_c, 0, 77, 76
2, 39933, Note_on_c, 0, 77, 0
2, 39936, Note_on_c, 0, 76, 74
2, 39948, Note_on_c, 0, 76, 0
2, 39948, Note_on_c, 0, 77, 74
2, 39960, Note_on_c, 0, 77, 0
2, 39960, Note_on_c, 0, 76, 74
2, 39981, Note_on_c, 0, 76, 0
2, 39984, Note_on_c, 0, 74, 72
2, 40029, Note_on_c, 0, 74, 0
2, 40080, Note_on_c, 0, 76, 70
2, 40125, Note_on_c, 0, 76, 0
2, 40128, Note_on_c, 0, 81, 70
2, 40173, Note_on_c, 0, 81, 0
2, 40176, Note_on_c, 0, 73, 70
2, 40221, Note_on_c, 0, 73, 0
2, 40224, Note_on_c, 0, 76, 70
2, 40236, Note_on_c, 0, 76, 0
2, 40236, Note_on_c, 0, 74, 70
2, 40248, Note_on_c, 0, 74, 0
2, 40248, Note_on_c, 0, 73, 70
2, 40260, Note_on_c, 0, 73, 0
2, 40260, Note_on_c, 0, 74, 70
2, 40313, Note_on_c, 0, 74, 0
2, 40368, Note_on_c, 0, 76, 64
2, 40413, Note_on_c, 0, 76, 0
2, 40416, Note_on_c, 0, 81, 64
2, 40461, Note_on_c, 0, 81, 0
2, 40464, Note_on_c, 0, 73, 64
2, 40509, Note_on_c, 0, 73, 0
2, 40512, Note_on_c, 0, 76, 64
2, 40524, Note_on_c, 0, 76, 0
2, 40524, Note_on_c, 0, 74, 64
2, 40536, Note_on_c, 0, 74, 0
2, 40536, Note_on_c, 0, 73, 64
2, 40548, Note_on_c, 0, 73, 0
2, 40548, Note_on_c, 0, 74, 64
2, 40601, Note_on_c, 0, 74, 0
2, 40656, Note_on_c, 0, 67, 64
2, 40656, Note_on_c, 0, 64, 64
2, 40676, Note_on_c, 0, 67, 0
2, 40676, Note_on_c, 0, 64, 0
2, 40704, Note_on_c, 0, 67, 64
2, 40704, Note_on_c, 0, 64, 64
2, 40752, Note_on_c, 0, 67, 0
2, 40752, Note_on_c, 0, 64, 0
2, 40752, Note_on_c, 0, 65, 65
2, 40752, Note_on_c, 0, 62, 65
2, 40772, Note_on_c, 0, 65, 0
2, 40772, Note_on_c, 0, 62, 0
2, 40800, Note_on_c, 0, 65, 66
2, 40800, Note_on_c, 0, 62, 66
2, 40848, Note_on_c, 0, 65, 0
2, 40848, Note_on_c, 0, 62, 0
2, 40848, Note_on_c, 0, 64, 67
2, 40848, Note_on_c, 0, 61, 67
2, 40868, Note_on_c, 0, 64, 0
2, 40868, Note_on_c, 0, 61, 0
2, 40944, Note_on_c, 0, 69, 69
2, 40944, Note_on_c, 0, 65, 69
2, 40964, Note_on_c, 0, 69, 0
2, 40964, Note_on_c, 0, 65, 0
2, 40992, Note_on_c, 0, 69, 70
2, 40992, Note_on_c, 0, 65, 70
2, 41040, Note_on_c, 0, 69, 0
2, 41040, Note_on_c, 0, 65, 0
2, 41040, Note_on_c, 0, 67, 71
2, 41040, Note_on_c, 0, 64, 71
2, 41060, Note_on_c, 0, 67, 0
2, 41060, Note_on_c, 0, 64, 0
2, 41088, Note_on_c, 0, 67, 72
2, 41088, Note_on_c, 0, 64, 72
2, 41136, Note_on_c, 0, 67, 0
2, 41136, Note_on_c, 0, 64, 0
2, 41136, Note_on_c, 0, 65, 73
2, 41136, Note_on_c, 0, 62, 73
2, 41156, Note_on_c, 0, 65, 0
2, 41156, Note_on_c, 0, 62, 0
2, 41232, Note_on_c, 0, 70, 75
2, 41232, Note_on_c, 0, 67, 75
2, 41252, Note_on_c, 0, 70, 0
2, 41252, Note_on_c, 0, 67, 0
2, 41280, Note_on_c, 0, 70, 76
2, 41280, Note_on_c, 0, 67, 76
2, 41328, Note_on_c, 0, 70, 0
2, 41328, Note_on_c, 0, 67, 0
2, 41328, Note_on_c, 0, 69, 77
2, 41328, Note_on_c, 0, 65, 77
2, 41348, Note_on_c, 0, 69, 0
2, 41348, Note_on_c, 0, 65, 0
2, 41376, Note_on_c, 0, 69, 78
2, 41376, Note_on_c, 0, 65, 78
2, 41424, Note_on_c, 0, 69, 0
2, 41424, Note_on_c, 0, 65, 0
2, 41424, Note_on_c, 0, 67, 79
2, 41424, Note_on_c, 0, 64, 79
2, 41444, Note_on_c, 0, 67, 0
2, 41444, Note_on_c, 0, 64, 0
2, 41520, Note_on_c, 0, 74, 80
2, 41543, Note_on_c, 0, 74, 0
2, 41544, Note_on_c, 0, 76, 80
2, 41567, Note_on_c, 0, 76, 0
2, 41568, Note_on_c, 0, 77, 80
2, 41613, Note_on_c, 0, 77, 0
2, 41616, Note_on_c, 0, 74, 80
2, 41661, Note_on_c, 0, 74, 0
2, 41712, Note_on_c, 0, 74, 80
2, 41757, Note_on_c, 0, 74, 0
2, 41808, Note_on_c, 0, 74, 80
2, 41831, Note_on_c, 0, 74, 0
2, 41832, Note_on_c, 0, 76, 80
2, 41855, Note_on_c, 0, 76, 0
2, 41856, Note_on_c, 0, 77, 80
2, 41901, Note_on_c, 0, 77, 0
2, 41904, Note_on_c, 0, 74, 80
2, 41949, Note_on_c, 0, 74, 0
2, 42000, Note_on_c, 0, 74, 80
2, 42045, Note_on_c, 0, 74, 0
2, 42096, Note_on_c, 0, 82, 80
2, 42096, Note_on_c, 0, 79, 80
2, 42141, Note_on_c, 0, 82, 0
2, 42141, Note_on_c, 0, 79, 0
2, 42144, Note_on_c, 0, 81, 80
2, 42144, Note_on_c, 0, 77, 80
2, 42189, Note_on_c, 0, 81, 0
2, 42189, Note_on_c, 0, 77, 0
2, 42192, Note_on_c, 0, 79, 80
2, 42192, Note_on_c, 0, 76, 80
2, 42237, Note_on_c, 0, 79, 0
2, 42237, Note_on_c, 0, 76, 0
2, 42240, Note_on_c, 0, 77, 80
2, 42240, Note_on_c, 0, 74, 80
2, 42285, Note_on_c, 0, 77, 0
2, 42285, Note_on_c, 0, 74, 0
2, 42288, Note_on_c, 0, 76, 80
2, 42288, Note_on_c, 0, 73, 80
2, 42333, Note_on_c, 0, 76, 0
2, 42333, Note_on_c, 0, 73, 0
2, 42336, Note_on_c, 0, 76, 80
2, 42348, Note_on_c, 0, 76, 0
2, 42348, Note_on_c, 0, 74, 80
2, 42360, Note_on_c, 0, 74, 0
2, 42360, Note_on_c, 0, 73, 80
2, 42372, Note_on_c, 0, 73, 0
2, 42372, Note_on_c, 0, 74, 80
2, 42425, Note_on_c, 0, 74, 0
2, 42696, Note_on_c, 0, 72, 80
2, 42708, Note_on_c, 0, 72, 0
2, 42708, Note_on_c, 0, 74, 80
2, 42720, Note_on_c, 0, 74, 0
2, 42720, Note_on_c, 0, 75, 80
2, 42787, Note_on_c, 0, 75, 0
2, 42792, Note_on_c, 0, 69, 80
2, 42804, Note_on_c, 0, 69, 0
2, 42804, Note_on_c, 0, 70, 80
2, 42816, Note_on_c, 0, 70, 0
2, 42816, Note_on_c, 0, 72, 80
2, 42883, Note_on_c, 0, 72, 0
2, 42888, Note_on_c, 0, 66, 80
2, 42900, Note_on_c, 0, 66, 0
2, 42900, Note_on_c, 0, 67, 80
2, 42912, Note_on_c, 0, 67, 0
2, 42912, Note_on_c, 0, 69, 80
2, 42979, Note_on_c, 0, 69, 0
2, 42984, Note_on_c, 0, 60, 80
2, 42996, Note_on_c, 0, 60, 0
2, 42996, Note_on_c, 0, 62, 80
2, 43008, Note_on_c, 0, 62, 0
2, 43008, Note_on_c, 0, 63, 80
2, 43075, Note_on_c, 0, 63, 0
2, 43080, Note_on_c, 0, 57, 80
2, 43092, Note_on_c, 0, 57, 0
2, 43092, Note_on_c, 0, 58, 80
2, 43104, Note_on_c, 0, 58, 0
2, 43104, Note_on_c, 0, 60, 80
2, 43171, Note_on_c, 0, 60, 0
2, 43176, Note_on_c, 0, 54, 80
2, 43188, Note_on_c, 0, 54, 0
2, 43188, Note_on_c, 0, 55, 80
2, 43200, Note_on_c, 0, 55, 0
2, 43200, Note_on_c, 0, 57, 80
2, 43245, Note_on_c, 0, 57, 0
2, 43248, Note_on_c, 0, 75, 64
2, 43248, Note_on_c, 0, 72, 64
2, 43268, Note_on_c, 0, 75, 0
2, 43268, Note_on_c, 0, 72, 0
2, 43296, Note_on_c, 0, 75, 64
2, 43296, Note_on_c, 0, 72, 64
2, 43344, Note_on_c, 0, 75, 0
2, 43344, Note_on_c, 0, 72, 0
2, 43344, Note_on_c, 0, 74, 64
2, 43344, Note_on_c, 0, 70, 64
2, 43364, Note_on_c, 0, 74, 0
2, 43364, Note_on_c, 0, 70, 0
2, 43392, Note_on_c, 0, 74, 64
2, 43392, Note_on_c, 0, 70, 64
2, 43440, Note_on_c, 0, 74, 0
2, 43440, Note_on_c, 0, 70, 0
2, 43440, Note_on_c, 0, 72, 64
2, 43440, Note_on_c, 0, 69, 64
2, 43460, Note_on_c, 0, 72, 0
2, 43460, Note_on_c, 0, 69, 0
2, 43488, Note_on_c, 0, 70, 64
2, 43488, Note_on_c, 0, 67, 64
2, 43536, Note_on_c, 0, 67, 0
2, 43536, Note_on_c, 0, 74, 64
2, 43556, Note_on_c, 0, 74, 0
2, 43556, Note_on_c, 0, 70, 0
2, 43584, Note_on_c, 0, 74, 64
2, 43584, Note_on_c, 0, 70, 64
2, 43632, Note_on_c, 0, 74, 0
2, 43632, Note_on_c, 0, 70, 0
2, 43632, Note_on_c, 0, 72, 64
2, 43632, Note_on_c, 0, 69, 64
2, 43652, Note_on_c, 0, 72, 0
2, 43652, Note_on_c, 0, 69, 0
2, 43680, Note_on_c, 0, 72, 64
2, 43680, Note_on_c, 0, 69, 64
2, 43728, Note_on_c, 0, 72, 0
2, 43728, Note_on_c, 0, 69, 0
2, 43728, Note_on_c, 0, 70, 64
2, 43728, Note_on_c, 0, 67, 64
2, 43748, Note_on_c, 0, 70, 0
2, 43748, Note_on_c, 0, 67, 0
2, 43848, Note_on_c, 0, 74, 80
2, 43860, Note_on_c, 0, 74, 0
2, 43860, Note_on_c, 0, 76, 80
2, 43872, Note_on_c, 0, 76, 0
2, 43872, Note_on_c, 0, 77, 80
2, 43939, Note_on_c, 0, 77, 0
2, 43944, Note_on_c, 0, 71, 80
2, 43956, Note_on_c, 0, 71, 0
2, 43956, Note_on_c, 0, 72, 80
2, 43968, Note_on_c, 0, 72, 0
2, 43968, Note_on_c, 0, 74, 80
2, 44035, Note_on_c, 0, 74, 0
2, 44040, Note_on_c, 0, 68, 80
2, 44052, Note_on_c, 0, 68, 0
2, 44052, Note_on_c, 0, 69, 80
2, 44064, Note_on_c, 0, 69, 0
2, 44064, Note_on_c, 0, 71, 80
2, 44131, Note_on_c, 0, 71, 0
2, 44136, Note_on_c, 0, 62, 80
2, 44148, Note_on_c, 0, 62, 0
2, 44148, Note_on_c, 0, 64, 80
2, 44160, Note_on_c, 0, 64, 0
2, 44160, Note_on_c, 0, 65, 80
2, 44227, Note_on_c, 0, 65, 0
2, 44232, Note_on_c, 0, 59, 80
2, 44244, Note_on_c, 0, 59, 0
2, 44244, Note_on_c, 0, 60, 80
2, 44256, Note_on_c, 0, 60, 0
2, 44256, Note_on_c, 0, 62, 80
2, 44323, Note_on_c, 0, 62, 0
2, 44328, Note_on_c, 0, 56, 80
2, 44340, Note_on_c, 0, 56, 0
2, 44340, Note_on_c, 0, 57, 80
2, 44352, Note_on_c, 0, 57, 0
2, 44352, Note_on_c, 0, 59, 80
2, 44397, Note_on_c, 0, 59, 0
2, 44400, Note_on_c, 0, 77, 64
2, 44400, Note_on_c, 0, 74, 64
2, 44420, Note_on_c, 0, 77, 0
2, 44420, Note_on_c, 0, 74, 0
2, 44448, Note_on_c, 0, 77, 64
2, 44448, Note_on_c, 0, 74, 64
2, 44496, Note_on_c, 0, 77, 0
2, 44496, Note_on_c, 0, 74, 0
2, 44496, Note_on_c, 0, 76, 64
2, 44496, Note_on_c, 0, 72, 64
2, 44516, Note_on_c, 0, 76, 0
2, 44516, Note_on_c, 0, 72, 0
2, 44544, Note_on_c, 0, 76, 64
2, 44544, Note_on_c, 0, 72, 64
2, 44592, Note_on_c, 0, 76, 0
2, 44592, Note_on_c, 0, 72, 0
2, 44592, Note_on_c, 0, 74, 64
2, 44592, Note_on_c, 0, 71, 64
2, 44612, Note_on_c, 0, 74, 0
2, 44612, Note_on_c, 0, 71, 0
2, 44640, Note_on_c, 0, 73, 64
2, 44640, Note_on_c, 0, 69, 64
2, 44688, Note_on_c, 0, 69, 0
2, 44688, Note_on_c, 0, 76, 64
2, 44708, Note_on_c, 0, 76, 0
2, 44708, Note_on_c, 0, 73, 0
2, 44736, Note_on_c, 0, 76, 64
2, 44736, Note_on_c, 0, 73, 64
2, 44784, Note_on_c, 0, 76, 0
2, 44784, Note_on_c, 0, 73, 0
2, 44784, Note_on_c, 0, 74, 64
2, 44784, Note_on_c, 0, 71, 64
2, 44804, Note_on_c, 0, 74, 0
2, 44804, Note_on_c, 0, 71, 0
2, 44832, Note_on_c, 0, 74, 64
2, 44832, Note_on_c, 0, 71, 64
2, 44880, Note_on_c, 0, 74, 0
2, 44880, Note_on_c, 0, 71, 0
2, 44880, Note_on_c, 0, 73, 64
2, 44880, Note_on_c, 0, 69, 64
2, 44900, Note_on_c, 0, 73, 0
2, 44900, Note_on_c, 0, 69, 0
2, 44976, Note_on_c, 0, 82, 64
2, 44976, Note_on_c, 0, 79, 64
2, 44996, Note_on_c, 0, 82, 0
2, 44996, Note_on_c, 0, 79, 0
2, 45024, Note_on_c, 0, 82, 65
2, 45024, Note_on_c, 0, 79, 65
2, 45072, Note_on_c, 0, 82, 0
2, 45072, Note_on_c, 0, 79, 0
2, 45072, Note_on_c, 0, 81, 66
2, 45072, Note_on_c, 0, 77, 66
2, 45092, Note_on_c, 0, 81, 0
2, 45092, Note_on_c, 0, 77, 0
2, 45120, Note_on_c, 0, 81, 68
2, 45120, Note_on_c, 0, 77, 68
2, 45168, Note_on_c, 0, 81, 0
2, 45168, Note_on_c, 0, 77, 0
2, 45168, Note_on_c, 0, 79, 69
2, 45168, Note_on_c, 0, 76, 69
2, 45188, Note_on_c, 0, 79, 0
2, 45188, Note_on_c, 0, 76, 0
2, 45216, Note_on_c, 0, 77, 71
2, 45216, Note_on_c, 0, 74, 71
2, 45264, Note_on_c, 0, 74, 0
2, 45264, Note_on_c, 0, 81, 72
2, 45284, Note_on_c, 0, 81, 0
2, 45284, Note_on_c, 0, 77, 0
2, 45312, Note_on_c, 0, 81, 74
2, 45312, Note_on_c, 0, 77, 74
2, 45360, Note_on_c, 0, 81, 0
2, 45360, Note_on_c, 0, 77, 0
2, 45360, Note_on_c, 0, 79, 75
2, 45360, Note_on_c, 0, 76, 75
2, 45380, Note_on_c, 0, 79, 0
2, 45380, Note_on_c, 0, 76, 0
2, 45408, Note_on_c, 0, 79, 77
2, 45408, Note_on_c, 0, 76, 77
2, 45456, Note_on_c, 0, 79, 0
2, 45456, Note_on_c, 0, 76, 0
2, 45456, Note_on_c, 0, 77, 78
2, 45456, Note_on_c, 0, 74, 78
2, 45476, Note_on_c, 0, 77, 0
2, 45476, Note_on_c, 0, 74, 0
2, 45552, Note_on_c, 0, 77, 80
2, 45552, Note_on_c, 0, 74, 80
2, 45597, Note_on_c, 0, 77, 0
2, 45597, Note_on_c, 0, 74, 0
2, 45600, Note_on_c, 0, 86, 80
2, 45645, Note_on_c, 0, 86, 0
2, 45648, Note_on_c, 0, 77, 80
2, 45648, Note_on_c, 0, 74, 80
2, 45693, Note_on_c, 0, 77, 0
2, 45693, Note_on_c, 0, 74, 0
2, 45696, Note_on_c, 0, 86, 80
2, 45741, Note_on_c, 0, 86, 0
2, 45744, Note_on_c, 0, 77, 76
2, 45744, Note_on_c, 0, 74, 76
2, 45789, Note_on_c, 0, 77, 0
2, 45789, Note_on_c, 0, 74, 0
2, 45792, Note_on_c, 0, 79, 72
2, 45807, Note_on_c, 0, 79, 0
2, 45808, Note_on_c, 0, 77, 71
2, 45823, Note_on_c, 0, 77, 0
2, 45824, Note_on_c, 0, 79, 70
2, 45839, Note_on_c, 0, 79, 0
2, 45840, Note_on_c, 0, 77, 69
2, 45855, Note_on_c, 0, 77, 0
2, 45856, Note_on_c, 0, 76, 68
2, 45871, Note_on_c, 0, 76, 0
2, 45872, Note_on_c, 0, 77, 67
2, 45887, Note_on_c, 0, 77, 0
2, 45888, Note_on_c, 0, 76, 64
2, 45888, Note_on_c, 0, 73, 64
2, 45977, Note_on_c, 0, 76, 0
2, 45977, Note_on_c, 0, 73, 0
2, 46152, Note_on_c, 0, 62, 80
2, 46164, Note_on_c, 0, 62, 0
2, 46164, Note_on_c, 0, 64, 80
2, 46176, Note_on_c, 0, 64, 0
2, 46176, Note_on_c, 0, 65, 80
2, 46243, Note_on_c, 0, 65, 0
2, 46248, Note_on_c, 0, 65, 80
2, 46260, Note_on_c, 0, 65, 0
2, 46260, Note_on_c, 0, 67, 80
2, 46272, Note_on_c, 0, 67, 0
2, 46272, Note_on_c, 0, 69, 80
2, 46339, Note_on_c, 0, 69, 0
2, 46344, Note_on_c, 0, 71, 80
2, 46356, Note_on_c, 0, 71, 0
2, 46356, Note_on_c, 0, 73, 80
2, 46368, Note_on_c, 0, 73, 0
2, 46368, Note_on_c, 0, 74, 80
2, 46435, Note_on_c, 0, 74, 0
2, 46440, Note_on_c, 0, 74, 80
2, 46452, Note_on_c, 0, 74, 0
2, 46452, Note_on_c, 0, 76, 80
2, 46464, Note_on_c, 0, 76, 0
2, 46464, Note_on_c, 0, 77, 80
2, 46503, Note_on_c, 0, 77, 0
2, 46656, Note_on_c, 0, 76, 64
2, 46701, Note_on_c, 0, 76, 0
2, 46704, Note_on_c, 0, 82, 64
2, 46704, Note_on_c, 0, 79, 64
2, 46724, Note_on_c, 0, 82, 0
2, 46724, Note_on_c, 0, 79, 0
2, 46752, Note_on_c, 0, 82, 64
2, 46752, Note_on_c, 0, 79, 64
2, 46800, Note_on_c, 0, 82, 0
2, 46800, Note_on_c, 0, 79, 0
2, 46800, Note_on_c, 0, 81, 64
2, 46800, Note_on_c, 0, 77, 64
2, 46820, Note_on_c, 0, 81, 0
2, 46820, Note_on_c, 0, 77, 0
2, 46848, Note_on_c, 0, 81, 64
2, 46848, Note_on_c, 0, 77, 64
2, 46896, Note_on_c, 0, 81, 0
2, 46896, Note_on_c, 0, 77, 0
2, 46896, Note_on_c, 0, 79, 64
2, 46896, Note_on_c, 0, 76, 64
2, 46916, Note_on_c, 0, 79, 0
2, 46916, Note_on_c, 0, 76, 0
2, 46944, Note_on_c, 0, 79, 64
2, 46944, Note_on_c, 0, 76, 64
2, 46992, Note_on_c, 0, 79, 0
2, 46992, Note_on_c, 0, 76, 0
2, 46992, Note_on_c, 0, 77, 64
2, 46992, Note_on_c, 0, 74, 64
2, 47012, Note_on_c, 0, 77, 0
2, 47012, Note_on_c, 0, 74, 0
2, 47040, Note_on_c, 0, 81, 64
2, 47040, Note_on_c, 0, 77, 64
2, 47129, Note_on_c, 0, 81, 0
2, 47129, Note_on_c, 0, 77, 0
2, 47304, Note_on_c, 0, 62, 80
2, 47316, Note_on_c, 0, 62, 0
2, 47316, Note_on_c, 0, 64, 80
2, 47328, Note_on_c, 0, 64, 0
2, 47328, Note_on_c, 0, 65, 80
2, 47395, Note_on_c, 0, 65, 0
2, 47400, Note_on_c, 0, 65, 80
2, 47412, Note_on_c, 0, 65, 0
2, 47412, Note_on_c, 0, 67, 80
2, 47424, Note_on_c, 0, 67, 0
2, 47424, Note_on_c, 0, 69, 80
2, 47491, Note_on_c, 0, 69, 0
2, 47496, Note_on_c, 0, 71, 80
2, 47508, Note_on_c, 0, 71, 0
2, 47508, Note_on_c, 0, 73, 80
2, 47520, Note_on_c, 0, 73, 0
2, 47520, Note_on_c, 0, 74, 80
2, 47587, Note_on_c, 0, 74, 0
2, 47592, Note_on_c, 0, 74, 80
2, 47604, Note_on_c, 0, 74, 0
2, 47604, Note_on_c, 0, 76, 80
2, 47616, Note_on_c, 0, 76, 0
2, 47616, Note_on_c, 0, 77, 80
2, 47683, Note_on_c, 0, 77, 0
2, 47688, Note_on_c, 0, 77, 80
2, 47700, Note_on_c, 0, 77, 0
2, 47700, Note_on_c, 0, 79, 80
2, 47712, Note_on_c, 0, 79, 0
2, 47712, Note_on_c, 0, 81, 80
2, 47779, Note_on_c, 0, 81, 0
2, 47784, Note_on_c, 0, 83, 80
2, 47796, Note_on_c, 0, 83, 0
2, 47796, Note_on_c, 0, 85, 80
2, 47808, Note_on_c, 0, 85, 0
2, 47808, Note_on_c, 0, 86, 80
2, 47853, Note_on_c, 0, 86, 0
2, 47856, Note_on_c, 0, 81, 80
2, 47901, Note_on_c, 0, 81, 0
2, 47904, Note_on_c, 0, 79, 78
2, 47916, Note_on_c, 0, 79, 0
2, 47916, Note_on_c, 0, 81, 78
2, 47928, Note_on_c, 0, 81, 0
2, 47928, Note_on_c, 0, 79, 78
2, 47949, Note_on_c, 0, 79, 0
2, 47952, Note_on_c, 0, 77, 76
2, 47997, Note_on_c, 0, 77, 0
2, 48000, Note_on_c, 0, 76, 74
2, 48012, Note_on_c, 0, 76, 0
2, 48012, Note_on_c, 0, 77, 74
2, 48024, Note_on_c, 0, 77, 0
2, 48024, Note_on_c, 0, 76, 74
2, 48045, Note_on_c, 0, 76, 0
2, 48048, Note_on_c, 0, 74, 72
2, 48093, Note_on_c, 0, 74, 0
2, 48144, Note_on_c, 0, 76, 70
2, 48189, Note_on_c, 0, 76, 0
2, 48192, Note_on_c, 0, 81, 70
2, 48237, Note_on_c, 0, 81, 0
2, 48240, Note_on_c, 0, 73, 70
2, 48285, Note_on_c, 0, 73, 0
2, 48288, Note_on_c, 0, 76, 70
2, 48300, Note_on_c, 0, 76, 0
2, 48300, Note_on_c, 0, 74, 70
2, 48312, Note_on_c, 0, 74, 0
2, 48312, Note_on_c, 0, 73, 70
2, 48324, Note_on_c, 0, 73, 0
2, 48324, Note_on_c, 0, 74, 70
2, 48377, Note_on_c, 0, 74, 0
2, 48432, Note_on_c, 0, 76, 64
2, 48477, Note_on_c, 0, 76, 0
2, 48480, Note_on_c, 0, 81, 64
2, 48525, Note_on_c, 0, 81, 0
2, 48528, Note_on_c, 0, 73, 64
2, 48573, Note_on_c, 0, 73, 0
2, 48576, Note_on_c, 0, 76, 64
2, 48588, Note_on_c, 0, 76, 0
2, 48588, Note_on_c, 0, 74, 64
2, 48600, Note_on_c, 0, 74, 0
2, 48600, Note_on_c, 0, 73, 64
2, 48612, Note_on_c, 0, 73, 0
2, 48612, Note_on_c, 0, 74, 64
2, 48665, Note_on_c, 0, 74, 0
2, 48720, Note_on_c, 0, 67, 64
2, 48720, Note_on_c, 0, 64, 64
2, 48740, Note_on_c, 0, 67, 0
2, 48740, Note_on_c, 0, 64, 0
2, 48768, Note_on_c, 0, 67, 64
2, 48768, Note_on_c, 0, 64, 64
2, 48816, Note_on_c, 0, 67, 0
2, 48816, Note_on_c, 0, 64, 0
2, 48816, Note_on_c, 0, 65, 65
2, 48816, Note_on_c, 0, 62, 65
2, 48836, Note_on_c, 0, 65, 0
2, 48836, Note_on_c, 0, 62, 0
2, 48864, Note_on_c, 0, 65, 66
2, 48864, Note_on_c, 0, 62, 66
2, 48912, Note_on_c, 0, 65, 0
2, 48912, Note_on_c, 0, 62, 0
2, 48912, Note_on_c, 0, 64, 67
2, 48912, Note_on_c, 0, 61, 67
2, 48932, Note_on_c, 0, 64, 0
2, 48932, Note_on_c, 0, 61, 0
2, 49008, Note_on_c, 0, 69, 69
2, 49008, Note_on_c, 0, 65, 69
2, 49028, Note_on_c, 0, 69, 0
2, 49028, Note_on_c, 0, 65, 0
2, 49056, Note_on_c, 0, 69, 70
2, 49056, Note_on_c, 0, 65, 70
2, 49104, Note_on_c, 0, 69, 0
2, 49104, Note_on_c, 0, 65, 0
2, 49104, Note_on_c, 0, 67, 71
2, 49104, Note_on_c, 0, 64, 71
2, 49124, Note_on_c, 0, 67, 0
2, 49124, Note_on_c, 0, 64, 0
2, 49152, Note_on_c, 0, 67, 72
2, 49152, Note_on_c, 0, 64, 72
2, 49200, Note_on_c, 0, 67, 0
2, 49200, Note_on_c, 0, 64, 0
2, 49200, Note_on_c, 0, 65, 73
2, 49200, Note_on_c, 0, 62, 73
2, 49220, Note_on_c, 0, 65, 0
2, 49220, Note_on_c, 0, 62, 0
2, 49296, Note_on_c, 0, 70, 75
2, 49296, Note_on_c, 0, 67, 75
2, 49316, Note_on_c, 0, 70, 0
2, 49316, Note_on_c, 0, 67, 0
2, 49344, Note_on_c, 0, 70, 76
2, 49344, Note_on_c, 0, 67, 76
2, 49392, Note_on_c, 0, 70, 0
2, 49392, Note_on_c, 0, 67, 0
2, 49392, Note_on_c, 0, 69, 77
2, 49392, Note_on_c, 0, 65, 77
2, 49412, Note_on_c, 0, 69, 0
2, 49412, Note_on_c, 0, 65, 0
2, 49440, Note_on_c, 0, 69, 78
2, 49440, Note_on_c, 0, 65, 78
2, 49488, Note_on_c, 0, 69, 0
2, 49488, Note_on_c, 0, 65, 0
2, 49488, Note_on_c, 0, 67, 79
2, 49488, Note_on_c, 0, 64, 79
2, 49508, Note_on_c, 0, 67, 0
2, 49508, Note_on_c, 0, 64, 0
2, 49584, Note_on_c, 0, 74, 80
2, 49607, Note_on_c, 0, 74, 0
2, 49608, Note_on_c, 0, 76, 80
2, 49631, Note_on_c, 0, 76, 0
2, 49632, Note_on_c, 0, 77, 80
2, 49677, Note_on_c, 0, 77, 0
2, 49680, Note_on_c, 0, 74, 80
2, 49725, Note_on_c, 0, 74, 0
2, 49776, Note_on_c, 0, 74, 80
2, 49821, Note_on_c, 0, 74, 0
2, 49872, Note_on_c, 0, 74, 80
2, 49895, Note_on_c, 0, 74, 0
2, 49896, Note_on_c, 0, 76, 80
2, 49919, Note_on_c, 0, 76, 0
2, 49920, Note_on_c, 0, 77, 80
2, 49965, Note_on_c, 0, 77, 0
2, 49968, Note_on_c, 0, 74, 80
2, 50013, Note_on_c, 0, 74, 0
2, 50064, Note_on_c, 0, 74, 80
2, 50109, Note_on_c, 0, 74, 0
2, 50160, Note_on_c, 0, 82, 80
2, 50160, Note_on_c, 0, 79, 80
2, 50205, Note_on_c, 0, 82, 0
2, 50205, Note_on_c, 0, 79, 0
2, 50208, Note_on_c, 0, 81, 80
2, 50208, Note_on_c, 0, 77, 80
2, 50253, Note_on_c, 0, 81, 0
2, 50253, Note_on_c, 0, 77, 0
2, 50256, Note_on_c, 0, 79, 80
2, 50256, Note_on_c, 0, 76, 80
2, 50301, Note_on_c, 0, 79, 0
2, 50301, Note_on_c, 0, 76, 0
2, 50304, Note_on_c, 0, 77, 80
2, 50304, Note_on_c, 0, 74, 80
2, 50349, Note_on_c, 0, 77, 0
2, 50349, Note_on_c, 0, 74, 0
2, 50352, Note_on_c, 0, 76, 80
2, 50352, Note_on_c, 0, 73, 80
2, 50397, Note_on_c, 0, 76, 0
2, 50397, Note_on_c, 0, 73, 0
2, 50400, Note_on_c, 0, 76, 80
2, 50412, Note_on_c, 0, 76, 0
2, 50412, Note_on_c, 0, 74, 80
2, 50424, Note_on_c, 0, 74, 0
2, 50424, Note_on_c, 0, 73, 80
2, 50436, Note_on_c, 0, 73, 0
2, 50436, Note_on_c, 0, 74, 80
2, 50489, Note_on_c, 0, 74, 0
2, 50688, Note_on_c, 0, 62, 91
2, 50784, Note_on_c, 0, 62, 0
2, 50784, Note_on_c, 0, 66, 75
2, 50796, Note_on_c, 0, 66, 0
2, 50796, Note_on_c, 0, 67, 75
2, 50808, Note_on_c, 0, 67, 0
2, 50808, Note_on_c, 0, 66, 75
2, 50851, Note_on_c, 0, 66, 0
2, 50856, Note_on_c, 0, 64, 75
2, 50879, Note_on_c, 0, 64, 0
2, 50880, Note_on_c, 0, 66, 75
2, 50947, Note_on_c, 0, 66, 0
2, 50952, Note_on_c, 0, 67, 75
2, 50975, Note_on_c, 0, 67, 0
2, 50976, Note_on_c, 0, 69, 75
2, 51065, Note_on_c, 0, 69, 0
2, 51072, Note_on_c, 0, 66, 75
2, 51084, Note_on_c, 0, 66, 0
2, 51084, Note_on_c, 0, 67, 75
2, 51096, Note_on_c, 0, 67, 0
2, 51096, Note_on_c, 0, 66, 75
2, 51139, Note_on_c, 0, 66, 0
2, 51144, Note_on_c, 0, 64, 75
2, 51167, Note_on_c, 0, 64, 0
2, 51168, Note_on_c, 0, 66, 75
2, 51235, Note_on_c, 0, 66, 0
2, 51240, Note_on_c, 0, 67, 75
2, 51263, Note_on_c, 0, 67, 0
2, 51264, Note_on_c, 0, 69, 75
2, 51353, Note_on_c, 0, 69, 0
2, 51360, Note_on_c, 0, 57, 75
2, 51390, Note_on_c, 0, 57, 0
2, 51392, Note_on_c, 0, 62, 75
2, 51422, Note_on_c, 0, 62, 0
2, 51424, Note_on_c, 0, 66, 75
2, 51454, Note_on_c, 0, 66, 0
2, 51456, Note_on_c, 0, 64, 75
2, 51479, Note_on_c, 0, 64, 0
2, 51480, Note_on_c, 0, 62, 75
2, 51503, Note_on_c, 0, 62, 0
2, 51504, Note_on_c, 0, 61, 75
2, 51527, Note_on_c, 0, 61, 0
2, 51528, Note_on_c, 0, 59, 75
2, 51551, Note_on_c, 0, 59, 0
2, 51552, Note_on_c, 0, 57, 75
2, 51641, Note_on_c, 0, 57, 0
2, 51648, Note_on_c, 0, 55, 75
2, 51661, Note_on_c, 0, 55, 0
2, 51662, Note_on_c, 0, 57, 75
2, 51675, Note_on_c, 0, 57, 0
2, 51676, Note_on_c, 0, 55, 75
2, 51689, Note_on_c, 0, 55, 0
2, 51690, Note_on_c, 0, 57, 75
2, 51703, Note_on_c, 0, 57, 0
2, 51704, Note_on_c, 0, 55, 75
2, 51717, Note_on_c, 0, 55, 0
2, 51718, Note_on_c, 0, 54, 75
2, 51730, Note_on_c, 0, 54, 0
2, 51731, Note_on_c, 0, 55, 75
2, 51743, Note_on_c, 0, 55, 0
2, 51744, Note_on_c, 0, 54, 75
2, 51833, Note_on_c, 0, 54, 0
2, 51840, Note_on_c, 0, 59, 75
2, 51852, Note_on_c, 0, 59, 0
2, 51852, Note_on_c, 0, 61, 75
2, 51864, Note_on_c, 0, 61, 0
2, 51864, Note_on_c, 0, 59, 75
2, 51907, Note_on_c, 0, 59, 0
2, 51912, Note_on_c, 0, 57, 75
2, 51935, Note_on_c, 0, 57, 0
2, 51936, Note_on_c, 0, 59, 75
2, 52003, Note_on_c, 0, 59, 0
2, 52008, Note_on_c, 0, 61, 75
2, 52031, Note_on_c, 0, 61, 0
2, 52032, Note_on_c, 0, 62, 75
2, 52099, Note_on_c, 0, 62, 0
2, 52104, Note_on_c, 0, 57, 75
2, 52127, Note_on_c, 0, 57, 0
2, 52128, Note_on_c, 0, 57, 75
2, 52195, Note_on_c, 0, 57, 0
2, 52200, Note_on_c, 0, 55, 75
2, 52223, Note_on_c, 0, 55, 0
2, 52224, Note_on_c, 0, 67, 75
2, 52254, Note_on_c, 0, 67, 0
2, 52256, Note_on_c, 0, 64, 75
2, 52286, Note_on_c, 0, 64, 0
2, 52288, Note_on_c, 0, 61, 75
2, 52318, Note_on_c, 0, 61, 0
2, 52320, Note_on_c, 0, 64, 75
2, 52332, Note_on_c, 0, 64, 0
2, 52332, Note_on_c, 0, 62, 75
2, 52344, Note_on_c, 0, 62, 0
2, 52344, Note_on_c, 0, 61, 75
2, 52356, Note_on_c, 0, 61, 0
2, 52356, Note_on_c, 0, 62, 75
2, 52409, Note_on_c, 0, 62, 0
2, 52416, Note_on_c, 0, 59, 75
2, 52505, Note_on_c, 0, 59, 0
2, 52512, Note_on_c, 0, 70, 91
2, 52544, Note_on_c, 0, 70, 0
2, 52544, Note_on_c, 0, 71, 76
2, 52574, Note_on_c, 0, 71, 0
2, 52576, Note_on_c, 0, 69, 78
2, 52606, Note_on_c, 0, 69, 0
2, 52608, Note_on_c, 0, 67, 79
2, 52638, Note_on_c, 0, 67, 0
2, 52640, Note_on_c, 0, 66, 78
2, 52670, Note_on_c, 0, 66, 0
2, 52672, Note_on_c, 0, 64, 77
2, 52702, Note_on_c, 0, 64, 0
2, 52704, Note_on_c, 0, 62, 75
2, 52896, Note_on_c, 0, 62, 0
2, 52896, Note_on_c, 0, 61, 75
2, 52985, Note_on_c, 0, 61, 0
2, 52992, Note_on_c, 0, 81, 75
2, 53022, Note_on_c, 0, 81, 0
2, 53024, Note_on_c, 0, 85, 76
2, 53054, Note_on_c, 0, 85, 0
2, 53056, Note_on_c, 0, 88, 78
2, 53086, Note_on_c, 0, 88, 0
2, 53088, Note_on_c, 0, 86, 79
2, 53118, Note_on_c, 0, 86, 0
2, 53120, Note_on_c, 0, 85, 78
2, 53150, Note_on_c, 0, 85, 0
2, 53152, Note_on_c, 0, 83, 77
2, 53182, Note_on_c, 0, 83, 0
2, 53184, Note_on_c, 0, 81, 75
2, 53214, Note_on_c, 0, 81, 0
2, 53216, Note_on_c, 0, 80, 75
2, 53246, Note_on_c, 0, 80, 0
2, 53248, Note_on_c, 0, 78, 75
2, 53325, Note_on_c, 0, 78, 0
2, 53328, Note_on_c, 0, 76, 75
2, 53417, Note_on_c, 0, 76, 0
2, 53424, Note_on_c, 0, 74, 75
2, 53513, Note_on_c, 0, 74, 0
2, 53520, Note_on_c, 0, 73, 75
2, 53565, Note_on_c, 0, 73, 0
2, 53568, Note_on_c, 0, 71, 75
2, 53598, Note_on_c, 0, 71, 0
2, 53600, Note_on_c, 0, 74, 75
2, 53630, Note_on_c, 0, 74, 0
2, 53632, Note_on_c, 0, 73, 76
2, 53662, Note_on_c, 0, 73, 0
2, 53664, Note_on_c, 0, 74, 77
2, 53694, Note_on_c, 0, 74, 0
2, 53696, Note_on_c, 0, 78, 78
2, 53726, Note_on_c, 0, 78, 0
2, 53728, Note_on_c, 0, 76, 79
2, 53758, Note_on_c, 0, 76, 0
2, 53760, Note_on_c, 0, 74, 79
2, 53790, Note_on_c, 0, 74, 0
2, 53792, Note_on_c, 0, 73, 77
2, 53822, Note_on_c, 0, 73, 0
2, 53824, Note_on_c, 0, 71, 76
2, 53854, Note_on_c, 0, 71, 0
2, 53856, Note_on_c, 0, 69, 75
2, 53901, Note_on_c, 0, 69, 0
2, 53904, Note_on_c, 0, 68, 75
2, 53993, Note_on_c, 0, 68, 0
2, 54000, Note_on_c, 0, 71, 75
2, 54089, Note_on_c, 0, 71, 0
2, 54096, Note_on_c, 0, 69, 75
2, 54141, Note_on_c, 0, 69, 0
2, 54144, Note_on_c, 0, 64, 75
2, 54174, Note_on_c, 0, 64, 0
2, 54176, Note_on_c, 0, 74, 76
2, 54206, Note_on_c, 0, 74, 0
2, 54208, Note_on_c, 0, 73, 78
2, 54238, Note_on_c, 0, 73, 0
2, 54240, Note_on_c, 0, 74, 79
2, 54270, Note_on_c, 0, 74, 0
2, 54272, Note_on_c, 0, 71, 78
2, 54302, Note_on_c, 0, 71, 0
2, 54304, Note_on_c, 0, 68, 77
2, 54334, Note_on_c, 0, 68, 0
2, 54336, Note_on_c, 0, 71, 75
2, 54348, Note_on_c, 0, 71, 0
2, 54348, Note_on_c, 0, 69, 75
2, 54360, Note_on_c, 0, 69, 0
2, 54360, Note_on_c, 0, 68, 75
2, 54372, Note_on_c, 0, 68, 0
2, 54372, Note_on_c, 0, 69, 75
2, 54425, Note_on_c, 0, 69, 0
2, 54432, Note_on_c, 0, 64, 64
2, 54462, Note_on_c, 0, 64, 0
2, 54464, Note_on_c, 0, 74, 67
2, 54494, Note_on_c, 0, 74, 0
2, 54496, Note_on_c, 0, 73, 70
2, 54526, Note_on_c, 0, 73, 0
2, 54528, Note_on_c, 0, 74, 74
2, 54558, Note_on_c, 0, 74, 0
2, 54560, Note_on_c, 0, 71, 72
2, 54590, Note_on_c, 0, 71, 0
2, 54592, Note_on_c, 0, 68, 68
2, 54622, Note_on_c, 0, 68, 0
2, 54624, Note_on_c, 0, 71, 64
2, 54636, Note_on_c, 0, 71, 0
2, 54636, Note_on_c, 0, 69, 64
2, 54648, Note_on_c, 0, 69, 0
2, 54648, Note_on_c, 0, 68, 64
2, 54660, Note_on_c, 0, 68, 0
2, 54660, Note_on_c, 0, 69, 64
2, 54713, Note_on_c, 0, 69, 0
2, 54720, Note_on_c, 0, 66, 75
2, 54750, Note_on_c, 0, 66, 0
2, 54752, Note_on_c, 0, 71, 75
2, 54782, Note_on_c, 0, 71, 0
2, 54784, Note_on_c, 0, 70, 75
2, 54814, Note_on_c, 0, 70, 0
2, 54816, Note_on_c, 0, 71, 75
2, 54846, Note_on_c, 0, 71, 0
2, 54848, Note_on_c, 0, 74, 75
2, 54878, Note_on_c, 0, 74, 0
2, 54880, Note_on_c, 0, 73, 76
2, 54910, Note_on_c, 0, 73, 0
2, 54912, Note_on_c, 0, 74, 77
2, 54942, Note_on_c, 0, 74, 0
2, 54944, Note_on_c, 0, 76, 77
2, 54974, Note_on_c, 0, 76, 0
2, 54976, Note_on_c, 0, 78, 78
2, 55006, Note_on_c, 0, 78, 0
2, 55008, Note_on_c, 0, 76, 79
2, 55038, Note_on_c, 0, 76, 0
2, 55040, Note_on_c, 0, 74, 79
2, 55070, Note_on_c, 0, 74, 0
2, 55072, Note_on_c, 0, 73, 79
2, 55102, Note_on_c, 0, 73, 0
2, 55104, Note_on_c, 0, 71, 79
2, 55134, Note_on_c, 0, 71, 0
2, 55136, Note_on_c, 0, 69, 78
2, 55166, Note_on_c, 0, 69, 0
2, 55168, Note_on_c, 0, 68, 77
2, 55198, Note_on_c, 0, 68, 0
2, 55200, Note_on_c, 0, 69, 77
2, 55230, Note_on_c, 0, 69, 0
2, 55232, Note_on_c, 0, 64, 76
2, 55262, Note_on_c, 0, 64, 0
2, 55264, Note_on_c, 0, 61, 76
2, 55294, Note_on_c, 0, 61, 0
2, 55296, Note_on_c, 0, 66, 75
2, 55326, Note_on_c, 0, 66, 0
2, 55328, Note_on_c, 0, 64, 75
2, 55358, Note_on_c, 0, 64, 0
2, 55360, Note_on_c, 0, 62, 75
2, 55390, Note_on_c, 0, 62, 0
2, 55392, Note_on_c, 0, 61, 75
2, 55481, Note_on_c, 0, 61, 0
2, 55488, Note_on_c, 0, 59, 75
2, 55501, Note_on_c, 0, 59, 0
2, 55502, Note_on_c, 0, 61, 75
2, 55515, Note_on_c, 0, 61, 0
2, 55516, Note_on_c, 0, 59, 75
2, 55529, Note_on_c, 0, 59, 0
2, 55530, Note_on_c, 0, 61, 75
2, 55543, Note_on_c, 0, 61, 0
2, 55544, Note_on_c, 0, 59, 75
2, 55557, Note_on_c, 0, 59, 0
2, 55558, Note_on_c, 0, 57, 75
2, 55570, Note_on_c, 0, 57, 0
2, 55571, Note_on_c, 0, 59, 75
2, 55583, Note_on_c, 0, 59, 0
2, 55584, Note_on_c, 0, 57, 75
2, 55761, Note_on_c, 0, 57, 0
2, 55872, Note_on_c, 0, 62, 91
2, 55968, Note_on_c, 0, 62, 0
2, 55968, Note_on_c, 0, 66, 75
2, 55980, Note_on_c, 0, 66, 0
2, 55980, Note_on_c, 0, 67, 75
2, 55992, Note_on_c, 0, 67, 0
2, 55992, Note_on_c, 0, 66, 75
2, 56035, Note_on_c, 0, 66, 0
2, 56040, Note_on_c, 0, 64, 75
2, 56063, Note_on_c, 0, 64, 0
2, 56064, Note_on_c, 0, 66, 75
2, 56131, Note_on_c, 0, 66, 0
2, 56136, Note_on_c, 0, 67, 75
2, 56159, Note_on_c, 0, 67, 0
2, 56160, Note_on_c, 0, 69, 75
2, 56249, Note_on_c, 0, 69, 0
2, 56256, Note_on_c, 0, 66, 75
2, 56268, Note_on_c, 0, 66, 0
2, 56268, Note_on_c, 0, 67, 75
2, 56280, Note_on_c, 0, 67, 0
2, 56280, Note_on_c, 0, 66, 75
2, 56323, Note_on_c, 0, 66, 0
2, 56328, Note_on_c, 0, 64, 75
2, 56351, Note_on_c, 0, 64, 0
2, 56352, Note_on_c, 0, 66, 75
2, 56419, Note_on_c, 0, 66, 0
2, 56424, Note_on_c, 0, 67, 75
2, 56447, Note_on_c, 0, 67, 0
2, 56448, Note_on_c, 0, 69, 75
2, 56537, Note_on_c, 0, 69, 0
2, 56544, Note_on_c, 0, 57, 75
2, 56574, Note_on_c, 0, 57, 0
2, 56576, Note_on_c, 0, 62, 75
2, 56606, Note_on_c, 0, 62, 0
2, 56608, Note_on_c, 0, 66, 75
2, 56638, Note_on_c, 0, 66, 0
2, 56640, Note_on_c, 0, 64, 75
2, 56663, Note_on_c, 0, 64, 0
2, 56664, Note_on_c, 0, 62, 75
2, 56687, Note_on_c, 0, 62, 0
2, 56688, Note_on_c, 0, 61, 75
2, 56711, Note_on_c, 0, 61, 0
2, 56712, Note_on_c, 0, 59, 75
2, 56735, Note_on_c, 0, 59, 0
2, 56736, Note_on_c, 0, 57, 75
2, 56825, Note_on_c, 0, 57, 0
2, 56832, Note_on_c, 0, 55, 75
2, 56845, Note_on_c, 0, 55, 0
2, 56846, Note_on_c, 0, 57, 75
2, 56859, Note_on_c, 0, 57, 0
2, 56860, Note_on_c, 0, 55, 75
2, 56873, Note_on_c, 0, 55, 0
2, 56874, Note_on_c, 0, 57, 75
2, 56887, Note_on_c, 0, 57, 0
2, 56888, Note_on_c, 0, 55, 75
2, 56901, Note_on_c, 0, 55, 0
2, 56902, Note_on_c, 0, 54, 75
2, 56914, Note_on_c, 0, 54, 0
2, 56915, Note_on_c, 0, 55, 75
2, 56927, Note_on_c, 0, 55, 0
2, 56928, Note_on_c, 0, 54, 75
2, 57017, Note_on_c, 0, 54, 0
2, 57024, Note_on_c, 0, 59, 75
2, 57036, Note_on_c, 0, 59, 0
2, 57036, Note_on_c, 0, 61, 75
2, 57048, Note_on_c, 0, 61, 0
2, 57048, Note_on_c, 0, 59, 75
2, 57091, Note_on_c, 0, 59, 0
2, 57096, Note_on_c, 0, 57, 75
2, 57119, Note_on_c, 0, 57, 0
2, 57120, Note_on_c, 0, 59, 75
2, 57187, Note_on_c, 0, 59, 0
2, 57192, Note_on_c, 0, 61, 75
2, 57215, Note_on_c, 0, 61, 0
2, 57216, Note_on_c, 0, 62, 75
2, 57283, Note_on_c, 0, 62, 0
2, 57288, Note_on_c, 0, 57, 75
2, 57311, Note_on_c, 0, 57, 0
2, 57312, Note_on_c, 0, 57, 75
2, 57379, Note_on_c, 0, 57, 0
2, 57384, Note_on_c, 0, 55, 75
2, 57407, Note_on_c, 0, 55, 0
2, 57408, Note_on_c, 0, 67, 75
2, 57438, Note_on_c, 0, 67, 0
2, 57440, Note_on_c, 0, 64, 75
2, 57470, Note_on_c, 0, 64, 0
2, 57472, Note_on_c, 0, 61, 75
2, 57502, Note_on_c, 0, 61, 0
2, 57504, Note_on_c, 0, 64, 75
2, 57516, Note_on_c, 0, 64, 0
2, 57516, Note_on_c, 0, 62, 75
2, 57528, Note_on_c, 0, 62, 0
2, 57528, Note_on_c, 0, 61, 75
2, 57540, Note_on_c, 0, 61, 0
2, 57540, Note_on_c, 0, 62, 75
2, 57593, Note_on_c, 0, 62, 0
2, 57600, Note_on_c, 0, 59, 75
2, 57689, Note_on_c, 0, 59, 0
2, 57696, Note_on_c, 0, 70, 91
2, 57728, Note_on_c, 0, 70, 0
2, 57728, Note_on_c, 0, 71, 76
2, 57758, Note_on_c, 0, 71, 0
2, 57760, Note_on_c, 0, 69, 78
2, 57790, Note_on_c, 0, 69, 0
2, 57792, Note_on_c, 0, 67, 79
2, 57822, Note_on_c, 0, 67, 0
2, 57824, Note_on_c, 0, 66, 78
2, 57854, Note_on_c, 0, 66, 0
2, 57856, Note_on_c, 0, 64, 77
2, 57886, Note_on_c, 0, 64, 0
2, 57888, Note_on_c, 0, 62, 75
2, 58080, Note_on_c, 0, 62, 0
2, 58080, Note_on_c, 0, 61, 75
2, 58169, Note_on_c, 0, 61, 0
2, 58176, Note_on_c, 0, 81, 75
2, 58206, Note_on_c, 0, 81, 0
2, 58208, Note_on_c, 0, 85, 76
2, 58238, Note_on_c, 0, 85, 0
2, 58240, Note_on_c, 0, 88, 78
2, 58270, Note_on_c, 0, 88, 0
2, 58272, Note_on_c, 0, 86, 79
2, 58302, Note_on_c, 0, 86, 0
2, 58304, Note_on_c, 0, 85, 78
2, 58334, Note_on_c, 0, 85, 0
2, 58336, Note_on_c, 0, 83, 77
2, 58366, Note_on_c, 0, 83, 0
2, 58368, Note_on_c, 0, 81, 75
2, 58398, Note_on_c, 0, 81, 0
2, 58400, Note_on_c, 0, 80, 75
2, 58430, Note_on_c, 0, 80, 0
2, 58432, Note_on_c, 0, 78, 75
2, 58509, Note_on_c, 0, 78, 0
2, 58512, Note_on_c, 0, 76, 75
2, 58601, Note_on_c, 0, 76, 0
2, 58608, Note_on_c, 0, 74, 75
2, 58697, Note_on_c, 0, 74, 0
2, 58704, Note_on_c, 0, 73, 75
2, 58749, Note_on_c, 0, 73, 0
2, 58752, Note_on_c, 0, 71, 75
2, 58782, Note_on_c, 0, 71, 0
2, 58784, Note_on_c, 0, 74, 75
2, 58814, Note_on_c, 0, 74, 0
2, 58816, Note_on_c, 0, 73, 76
2, 58846, Note_on_c, 0, 73, 0
2, 58848, Note_on_c, 0, 74, 77
2, 58878, Note_on_c, 0, 74, 0
2, 58880, Note_on_c, 0, 78, 78
2, 58910, Note_on_c, 0, 78, 0
2, 58912, Note_on_c, 0, 76, 79
2, 58942, Note_on_c, 0, 76, 0
2, 58944, Note_on_c, 0, 74, 79
2, 58974, Note_on_c, 0, 74, 0
2, 58976, Note_on_c, 0, 73, 77
2, 59006, Note_on_c, 0, 73, 0
2, 59008, Note_on_c, 0, 71, 76
2, 59038, Note_on_c, 0, 71, 0
2, 59040, Note_on_c, 0, 69, 75
2, 59085, Note_on_c, 0, 69, 0
2, 59088, Note_on_c, 0, 68, 75
2, 59177, Note_on_c, 0, 68, 0
2, 59184, Note_on_c, 0, 71, 75
2, 59273, Note_on_c, 0, 71, 0
2, 59280, Note_on_c, 0, 69, 75
2, 59325, Note_on_c, 0, 69, 0
2, 59328, Note_on_c, 0, 64, 75
2, 59358, Note_on_c, 0, 64, 0
2, 59360, Note_on_c, 0, 74, 76
2, 59390, Note_on_c, 0, 74, 0
2, 59392, Note_on_c, 0, 73, 78
2, 59422, Note_on_c, 0, 73, 0
2, 59424, Note_on_c, 0, 74, 79
2, 59454, Note_on_c, 0, 74, 0
2, 59456, Note_on_c, 0, 71, 78
2, 59486, Note_on_c, 0, 71, 0
2, 59488, Note_on_c, 0, 68, 77
2, 59518, Note_on_c, 0, 68, 0
2, 59520, Note_on_c, 0, 71, 75
2, 59532, Note_on_c, 0, 71, 0
2, 59532, Note_on_c, 0, 69, 75
2, 59544, Note_on_c, 0, 69, 0
2, 59544, Note_on_c, 0, 68, 75
2, 59556, Note_on_c, 0, 68, 0
2, 59556, Note_on_c, 0, 69, 75
2, 59609, Note_on_c, 0, 69, 0
2, 59616, Note_on_c, 0, 64, 64
2, 59646, Note_on_c, 0, 64, 0
2, 59648, Note_on_c, 0, 74, 67
2, 59678, Note_on_c, 0, 74, 0
2, 59680, Note_on_c, 0, 73, 70
2, 59710, Note_on_c, 0, 73, 0
2, 59712, Note_on_c, 0, 74, 74
2, 59742, Note_on_c, 0, 74, 0
2, 59744, Note_on_c, 0, 71, 72
2, 59774, Note_on_c, 0, 71, 0
2, 59776, Note_on_c, 0, 68, 68
2, 59806, Note_on_c, 0, 68, 0
2, 59808, Note_on_c, 0, 71, 64
2, 59820, Note_on_c, 0, 71, 0
2, 59820, Note_on_c, 0, 69, 64
2, 59832, Note_on_c, 0, 69, 0
2, 59832, Note_on_c, 0, 68, 64
2, 59844, Note_on_c, 0, 68, 0
2, 59844, Note_on_c, 0, 69, 64
2, 59897, Note_on_c, 0, 69, 0
2, 59904, Note_on_c, 0, 66, 75
2, 59934, Note_on_c, 0, 66, 0
2, 59936, Note_on_c, 0, 71, 75
2, 59966, Note_on_c, 0, 71, 0
2, 59968, Note_on_c, 0, 70, 75
2, 59998, Note_on_c, 0, 70, 0
2, 60000, Note_on_c, 0, 71, 75
2, 60030, Note_on_c, 0, 71, 0
2, 60032, Note_on_c, 0, 74, 75
2, 60062, Note_on_c, 0, 74, 0
2, 60064, Note_on_c, 0, 73, 76
2, 60094, Note_on_c, 0, 73, 0
2, 60096, Note_on_c, 0, 74, 77
2, 60126, Note_on_c, 0, 74, 0
2, 60128, Note_on_c, 0, 76, 77
2, 60158, Note_on_c, 0, 76, 0
2, 60160, Note_on_c, 0, 78, 78
2, 60190, Note_on_c, 0, 78, 0
2, 60192, Note_on_c, 0, 76, 79
2, 60222, Note_on_c, 0, 76, 0
2, 60224, Note_on_c, 0, 74, 79
2, 60254, Note_on_c, 0, 74, 0
2, 60256, Note_on_c, 0, 73, 79
2, 60286, Note_on_c, 0, 73, 0
2, 60288, Note_on_c, 0, 71, 79
2, 60318, Note_on_c, 0, 71, 0
2, 60320, Note_on_c, 0, 69, 78
2, 60350, Note_on_c, 0, 69, 0
2, 60352, Note_on_c, 0, 68, 77
2, 60382, Note_on_c, 0, 68, 0
2, 60384, Note_on_c, 0, 69, 77
2, 60414, Note_on_c, 0, 69, 0
2, 60416, Note_on_c, 0, 64, 76
2, 60446, Note_on_c, 0, 64, 0
2, 60448, Note_on_c, 0, 61, 76
2, 60478, Note_on_c, 0, 61, 0
2, 60480, Note_on_c, 0, 66, 75
2, 60510, Note_on_c, 0, 66, 0
2, 60512, Note_on_c, 0, 64, 75
2, 60542, Note_on_c, 0, 64, 0
2, 60544, Note_on_c, 0, 62, 75
2, 60574, Note_on_c, 0, 62, 0
2, 60576, Note_on_c, 0, 61, 75
2, 60665, Note_on_c, 0, 61, 0
2, 60672, Note_on_c, 0, 59, 75
2, 60685, Note_on_c, 0, 59, 0
2, 60686, Note_on_c, 0, 61, 75
2, 60699, Note_on_c, 0, 61, 0
2, 60700, Note_on_c, 0, 59, 75
2, 60713, Note_on_c, 0, 59, 0
2, 60714, Note_on_c, 0, 61, 75
2, 60727, Note_on_c, 0, 61, 0
2, 60728, Note_on_c, 0, 59, 75
2, 60741, Note_on_c, 0, 59, 0
2, 60742, Note_on_c, 0, 57, 75
2, 60754, Note_on_c, 0, 57, 0
2, 60755, Note_on_c, 0, 59, 75
2, 60767, Note_on_c, 0, 59, 0
2, 60768, Note_on_c, 0, 57, 75
2, 60945, Note_on_c, 0, 57, 0
2, 61056, Note_on_c, 0, 57, 75
2, 61145, Note_on_c, 0, 57, 0
2, 61152, Note_on_c, 0, 61, 75
2, 61164, Note_on_c, 0, 61, 0
2, 61164, Note_on_c, 0, 62, 75
2, 61176, Note_on_c, 0, 62, 0
2, 61176, Note_on_c, 0, 61, 75
2, 61219, Note_on_c, 0, 61, 0
2, 61224, Note_on_c, 0, 59, 75
2, 61247, Note_on_c, 0, 59, 0
2, 61248, Note_on_c, 0, 61, 75
2, 61315, Note_on_c, 0, 61, 0
2, 61320, Note_on_c, 0, 62, 75
2, 61343, Note_on_c, 0, 62, 0
2, 61344, Note_on_c, 0, 64, 75
2, 61374, Note_on_c, 0, 64, 0
2, 61376, Note_on_c, 0, 61, 75
2, 61406, Note_on_c, 0, 61, 0
2, 61408, Note_on_c, 0, 57, 75
2, 61438, Note_on_c, 0, 57, 0
2, 61440, Note_on_c, 0, 67, 75
2, 61470, Note_on_c, 0, 67, 0
2, 61472, Note_on_c, 0, 64, 75
2, 61502, Note_on_c, 0, 64, 0
2, 61504, Note_on_c, 0, 61, 75
2, 61534, Note_on_c, 0, 61, 0
2, 61536, Note_on_c, 0, 64, 75
2, 61548, Note_on_c, 0, 64, 0
2, 61548, Note_on_c, 0, 62, 75
2, 61560, Note_on_c, 0, 62, 0
2, 61560, Note_on_c, 0, 61, 75
2, 61572, Note_on_c, 0, 61, 0
2, 61572, Note_on_c, 0, 62, 75
2, 61625, Note_on_c, 0, 62, 0
2, 61632, Note_on_c, 0, 57, 64
2, 61721, Note_on_c, 0, 57, 0
2, 61728, Note_on_c, 0, 61, 64
2, 61740, Note_on_c, 0, 61, 0
2, 61740, Note_on_c, 0, 62, 64
2, 61752, Note_on_c, 0, 62, 0
2, 61752, Note_on_c, 0, 61, 64
2, 61795, Note_on_c, 0, 61, 0
2, 61800, Note_on_c, 0, 59, 64
2, 61823, Note_on_c, 0, 59, 0
2, 61824, Note_on_c, 0, 61, 64
2, 61891, Note_on_c, 0, 61, 0
2, 61896, Note_on_c, 0, 62, 64
2, 61919, Note_on_c, 0, 62, 0
2, 61920, Note_on_c, 0, 64, 64
2, 61950, Note_on_c, 0, 64, 0
2, 61952, Note_on_c, 0, 61, 64
2, 61982, Note_on_c, 0, 61, 0
2, 61984, Note_on_c, 0, 57, 64
2, 62014, Note_on_c, 0, 57, 0
2, 62016, Note_on_c, 0, 67, 64
2, 62046, Note_on_c, 0, 67, 0
2, 62048, Note_on_c, 0, 64, 64
2, 62078, Note_on_c, 0, 64, 0
2, 62080, Note_on_c, 0, 61, 64
2, 62110, Note_on_c, 0, 61, 0
2, 62112, Note_on_c, 0, 64, 64
2, 62124, Note_on_c, 0, 64, 0
2, 62124, Note_on_c, 0, 62, 64
2, 62136, Note_on_c, 0, 62, 0
2, 62136, Note_on_c, 0, 61, 64
2, 62148, Note_on_c, 0, 61, 0
2, 62148, Note_on_c, 0, 62, 64
2, 62201, Note_on_c, 0, 62, 0
2, 62208, Note_on_c, 0, 59, 75
2, 62297, Note_on_c, 0, 59, 0
2, 62304, Note_on_c, 0, 70, 91
2, 62336, Note_on_c, 0, 70, 0
2, 62336, Note_on_c, 0, 71, 75
2, 62366, Note_on_c, 0, 71, 0
2, 62368, Note_on_c, 0, 69, 75
2, 62398, Note_on_c, 0, 69, 0
2, 62400, Note_on_c, 0, 67, 75
2, 62430, Note_on_c, 0, 67, 0
2, 62432, Note_on_c, 0, 66, 75
2, 62462, Note_on_c, 0, 66, 0
2, 62464, Note_on_c, 0, 64, 75
2, 62494, Note_on_c, 0, 64, 0
2, 62496, Note_on_c, 0, 57, 75
2, 62585, Note_on_c, 0, 57, 0
2, 62592, Note_on_c, 0, 68, 91
2, 62624, Note_on_c, 0, 68, 0
2, 62624, Note_on_c, 0, 69, 75
2, 62654, Note_on_c, 0, 69, 0
2, 62656, Note_on_c, 0, 67, 75
2, 62686, Note_on_c, 0, 67, 0
2, 62688, Note_on_c, 0, 66, 75
2, 62718, Note_on_c, 0, 66, 0
2, 62720, Note_on_c, 0, 64, 75
2, 62750, Note_on_c, 0, 64, 0
2, 62752, Note_on_c, 0, 62, 75
2, 62782, Note_on_c, 0, 62, 0
2, 62784, Note_on_c, 0, 63, 91
2, 62880, Note_on_c, 0, 63, 0
2, 62880, Note_on_c, 0, 64, 75
2, 62947, Note_on_c, 0, 64, 0
2, 62952, Note_on_c, 0, 67, 75
2, 62975, Note_on_c, 0, 67, 0
2, 62976, Note_on_c, 0, 59, 75
2, 63043, Note_on_c, 0, 59, 0
2, 63048, Note_on_c, 0, 64, 75
2, 63071, Note_on_c, 0, 64, 0
2, 63072, Note_on_c, 0, 62, 75
2, 63264, Note_on_c, 0, 62, 0
2, 63264, Note_on_c, 0, 61, 75
2, 63353, Note_on_c, 0, 61, 0
2, 63360, Note_on_c, 0, 74, 75
2, 63390, Note_on_c, 0, 74, 0
2, 63392, Note_on_c, 0, 78, 76
2, 63422, Note_on_c, 0, 78, 0
2, 63424, Note_on_c, 0, 81, 78
2, 63454, Note_on_c, 0, 81, 0
2, 63456, Note_on_c, 0, 79, 79
2, 63486, Note_on_c, 0, 79, 0
2, 63488, Note_on_c, 0, 78, 78
2, 63518, Note_on_c, 0, 78, 0
2, 63520, Note_on_c, 0, 76, 77
2, 63550, Note_on_c, 0, 76, 0
2, 63552, Note_on_c, 0, 74, 75
2, 63582, Note_on_c, 0, 74, 0
2, 63584, Note_on_c, 0, 73, 75
2, 63614, Note_on_c, 0, 73, 0
2, 63616, Note_on_c, 0, 71, 75
2, 63693, Note_on_c, 0, 71, 0
2, 63696, Note_on_c, 0, 69, 75
2, 63785, Note_on_c, 0, 69, 0
2, 63792, Note_on_c, 0, 67, 75
2, 63881, Note_on_c, 0, 67, 0
2, 63888, Note_on_c, 0, 66, 75
2, 63933, Note_on_c, 0, 66, 0
2, 63936, Note_on_c, 0, 64, 75
2, 63966, Note_on_c, 0, 64, 0
2, 63968, Note_on_c, 0, 67, 75
2, 63998, Note_on_c, 0, 67, 0
2, 64000, Note_on_c, 0, 66, 76
2, 64030, Note_on_c, 0, 66, 0
2, 64032, Note_on_c, 0, 67, 77
2, 64062, Note_on_c, 0, 67, 0
2, 64064, Note_on_c, 0, 71, 78
2, 64094, Note_on_c, 0, 71, 0
2, 64096, Note_on_c, 0, 69, 79
2, 64126, Note_on_c, 0, 69, 0
2, 64128, Note_on_c, 0, 67, 79
2, 64158, Note_on_c, 0, 67, 0
2, 64160, Note_on_c, 0, 66, 77
2, 64190, Note_on_c, 0, 66, 0
2, 64192, Note_on_c, 0, 64, 76
2, 64222, Note_on_c, 0, 64, 0
2, 64224, Note_on_c, 0, 62, 75
2, 64269, Note_on_c, 0, 62, 0
2, 64272, Note_on_c, 0, 61, 75
2, 64361, Note_on_c, 0, 61, 0
2, 64368, Note_on_c, 0, 64, 75
2, 64457, Note_on_c, 0, 64, 0
2, 64464, Note_on_c, 0, 62, 75
2, 64509, Note_on_c, 0, 62, 0
2, 64512, Note_on_c, 0, 57, 75
2, 64542, Note_on_c, 0, 57, 0
2, 64544, Note_on_c, 0, 67, 76
2, 64574, Note_on_c, 0, 67, 0
2, 64576, Note_on_c, 0, 66, 78
2, 64606, Note_on_c, 0, 66, 0
2, 64608, Note_on_c, 0, 67, 79
2, 64638, Note_on_c, 0, 67, 0
2, 64640, Note_on_c, 0, 64, 78
2, 64670, Note_on_c, 0, 64, 0
2, 64672, Note_on_c, 0, 61, 77
2, 64702, Note_on_c, 0, 61, 0
2, 64704, Note_on_c, 0, 64, 75
2, 64716, Note_on_c, 0, 64, 0
2, 64716, Note_on_c, 0, 62, 75
2, 64728, Note_on_c, 0, 62, 0
2, 64728, Note_on_c, 0, 61, 75
2, 64740, Note_on_c, 0, 61, 0
2, 64740, Note_on_c, 0, 62, 75
2, 64793, Note_on_c, 0, 62, 0
2, 64800, Note_on_c, 0, 57, 64
2, 64830, Note_on_c, 0, 57, 0
2, 64832, Note_on_c, 0, 67, 64
2, 64862, Note_on_c, 0, 67, 0
2, 64864, Note_on_c, 0, 66, 69
2, 64894, Note_on_c, 0, 66, 0
2, 64896, Note_on_c, 0, 67, 74
2, 64926, Note_on_c, 0, 67, 0
2, 64928, Note_on_c, 0, 64, 72
2, 64958, Note_on_c, 0, 64, 0
2, 64960, Note_on_c, 0, 61, 68
2, 64990, Note_on_c, 0, 61, 0
2, 64992, Note_on_c, 0, 64, 64
2, 65004, Note_on_c, 0, 64, 0
2, 65004, Note_on_c, 0, 62, 64
2, 65016, Note_on_c, 0, 62, 0
2, 65016, Note_on_c, 0, 61, 64
2, 65028, Note_on_c, 0, 61, 0
2, 65028, Note_on_c, 0, 62, 64
2, 65081, Note_on_c, 0, 62, 0
2, 65088, Note_on_c, 0, 59, 75
2, 65118, Note_on_c, 0, 59, 0
2, 65120, Note_on_c, 0, 64, 75
2, 65150, Note_on_c, 0, 64, 0
2, 65152, Note_on_c, 0, 63, 75
2, 65182, Note_on_c, 0, 63, 0
2, 65184, Note_on_c, 0, 64, 75
2, 65214, Note_on_c, 0, 64, 0
2, 65216, Note_on_c, 0, 67, 75
2, 65246, Note_on_c, 0, 67, 0
2, 65248, Note_on_c, 0, 66, 76
2, 65278, Note_on_c, 0, 66, 0
2, 65280, Note_on_c, 0, 67, 77
2, 65310, Note_on_c, 0, 67, 0
2, 65312, Note_on_c, 0, 69, 78
2, 65342, Note_on_c, 0, 69, 0
2, 65344, Note_on_c, 0, 71, 78
2, 65374, Note_on_c, 0, 71, 0
2, 65376, Note_on_c, 0, 69, 79
2, 65406, Note_on_c, 0, 69, 0
2, 65408, Note_on_c, 0, 67, 79
2, 65438, Note_on_c, 0, 67, 0
2, 65440, Note_on_c, 0, 66, 79
2, 65470, Note_on_c, 0, 66, 0
2, 65472, Note_on_c, 0, 64, 78
2, 65502, Note_on_c, 0, 64, 0
2, 65504, Note_on_c, 0, 62, 78
2, 65534, Note_on_c, 0, 62, 0
2, 65536, Note_on_c, 0, 61, 77
2, 65566, Note_on_c, 0, 61, 0
2, 65568, Note_on_c, 0, 62, 77
2, 65657, Note_on_c, 0, 62, 0
2, 65664, Note_on_c, 0, 71, 75
2, 65694, Note_on_c, 0, 71, 0
2, 65696, Note_on_c, 0, 76, 75
2, 65726, Note_on_c, 0, 76, 0
2, 65728, Note_on_c, 0, 75, 75
2, 65758, Note_on_c, 0, 75, 0
2, 65760, Note_on_c, 0, 76, 75
2, 65790, Note_on_c, 0, 76, 0
2, 65792, Note_on_c, 0, 79, 75
2, 65822, Note_on_c, 0, 79, 0
2, 65824, Note_on_c, 0, 78, 76
2, 65854, Note_on_c, 0, 78, 0
2, 65856, Note_on_c, 0, 79, 77
2, 65886, Note_on_c, 0, 79, 0
2, 65888, Note_on_c, 0, 81, 77
2, 65918, Note_on_c, 0, 81, 0
2, 65920, Note_on_c, 0, 83, 78
2, 65950, Note_on_c, 0, 83, 0
2, 65952, Note_on_c, 0, 81, 79
2, 65982, Note_on_c, 0, 81, 0
2, 65984, Note_on_c, 0, 79, 79
2, 66014, Note_on_c, 0, 79, 0
2, 66016, Note_on_c, 0, 78, 79
2, 66046, Note_on_c, 0, 78, 0
2, 66048, Note_on_c, 0, 76, 79
2, 66078, Note_on_c, 0, 76, 0
2, 66080, Note_on_c, 0, 74, 78
2, 66110, Note_on_c, 0, 74, 0
2, 66112, Note_on_c, 0, 73, 77
2, 66142, Note_on_c, 0, 73, 0
2, 66144, Note_on_c, 0, 74, 77
2, 66174, Note_on_c, 0, 74, 0
2, 66176, Note_on_c, 0, 69, 76
2, 66206, Note_on_c, 0, 69, 0
2, 66208, Note_on_c, 0, 66, 76
2, 66238, Note_on_c, 0, 66, 0
2, 66240, Note_on_c, 0, 71, 75
2, 66270, Note_on_c, 0, 71, 0
2, 66272, Note_on_c, 0, 69, 75
2, 66302, Note_on_c, 0, 69, 0
2, 66304, Note_on_c, 0, 67, 75
2, 66334, Note_on_c, 0, 67, 0
2, 66336, Note_on_c, 0, 66, 75
2, 66425, Note_on_c, 0, 66, 0
2, 66432, Note_on_c, 0, 64, 75
2, 66445, Note_on_c, 0, 64, 0
2, 66446, Note_on_c, 0, 66, 75
2, 66459, Note_on_c, 0, 66, 0
2, 66460, Note_on_c, 0, 64, 75
2, 66473, Note_on_c, 0, 64, 0
2, 66474, Note_on_c, 0, 66, 75
2, 66487, Note_on_c, 0, 66, 0
2, 66488, Note_on_c, 0, 64, 75
2, 66501, Note_on_c, 0, 64, 0
2, 66502, Note_on_c, 0, 62, 75
2, 66514, Note_on_c, 0, 62, 0
2, 66515, Note_on_c, 0, 64, 75
2, 66527, Note_on_c, 0, 64, 0
2, 66528, Note_on_c, 0, 62, 75
2, 66705, Note_on_c, 0, 62, 0
2, 66816, Note_on_c, 0, 57, 75
2, 66905, Note_on_c, 0, 57, 0
2, 66912, Note_on_c, 0, 61, 75
2, 66924, Note_on_c, 0, 61, 0
2, 66924, Note_on_c, 0, 62, 75
2, 66936, Note_on_c, 0, 62, 0
2, 66936, Note_on_c, 0, 61, 75
2, 66979, Note_on_c, 0, 61, 0
2, 66984, Note_on_c, 0, 59, 75
2, 67007, Note_on_c, 0, 59, 0
2, 67008, Note_on_c, 0, 61, 75
2, 67075, Note_on_c, 0, 61, 0
2, 67080, Note_on_c, 0, 62, 75
2, 67103, Note_on_c, 0, 62, 0
2, 67104, Note_on_c, 0, 64, 75
2, 67134, Note_on_c, 0, 64, 0
2, 67136, Note_on_c, 0, 61, 75
2, 67166, Note_on_c, 0, 61, 0
2, 67168, Note_on_c, 0, 57, 75
2, 67198, Note_on_c, 0, 57, 0
2, 67200, Note_on_c, 0, 67, 75
2, 67230, Note_on_c, 0, 67, 0
2, 67232, Note_on_c, 0, 64, 75
2, 67262, Note_on_c, 0, 64, 0
2, 67264, Note_on_c, 0, 61, 75
2, 67294, Note_on_c, 0, 61, 0
2, 67296, Note_on_c, 0, 64, 75
2, 67308, Note_on_c, 0, 64, 0
2, 67308, Note_on_c, 0, 62, 75
2, 67320, Note_on_c, 0, 62, 0
2, 67320, Note_on_c, 0, 61, 75
2, 67332, Note_on_c, 0, 61, 0
2, 67332, Note_on_c, 0, 62, 75
2, 67385, Note_on_c, 0, 62, 0
2, 67392, Note_on_c, 0, 57, 64
2, 67481, Note_on_c, 0, 57, 0
2, 67488, Note_on_c, 0, 61, 64
2, 67500, Note_on_c, 0, 61, 0
2, 67500, Note_on_c, 0, 62, 64
2, 67512, Note_on_c, 0, 62, 0
2, 67512, Note_on_c, 0, 61, 64
2, 67555, Note_on_c, 0, 61, 0
2, 67560, Note_on_c, 0, 59, 64
2, 67583, Note_on_c, 0, 59, 0
2, 67584, Note_on_c, 0, 61, 64
2, 67651, Note_on_c, 0, 61, 0
2, 67656, Note_on_c, 0, 62, 64
2, 67679, Note_on_c, 0, 62, 0
2, 67680, Note_on_c, 0, 64, 64
2, 67710, Note_on_c, 0, 64, 0
2, 67712, Note_on_c, 0, 61, 64
2, 67742, Note_on_c, 0, 61, 0
2, 67744, Note_on_c, 0, 57, 64
2, 67774, Note_on_c, 0, 57, 0
2, 67776, Note_on_c, 0, 67, 64
2, 67806, Note_on_c, 0, 67, 0
2, 67808, Note_on_c, 0, 64, 64
2, 67838, Note_on_c, 0, 64, 0
2, 67840, Note_on_c, 0, 61, 64
2, 67870, Note_on_c, 0, 61, 0
2, 67872, Note_on_c, 0, 64, 64
2, 67884, Note_on_c, 0, 64, 0
2, 67884, Note_on_c, 0, 62, 64
2, 67896, Note_on_c, 0, 62, 0
2, 67896, Note_on_c, 0, 61, 64
2, 67908, Note_on_c, 0, 61, 0
2, 67908, Note_on_c, 0, 62, 64
2, 67961, Note_on_c, 0, 62, 0
2, 67968, Note_on_c, 0, 59, 75
2, 68057, Note_on_c, 0, 59, 0
2, 68064, Note_on_c, 0, 70, 91
2, 68096, Note_on_c, 0, 70, 0
2, 68096, Note_on_c, 0, 71, 75
2, 68126, Note_on_c, 0, 71, 0
2, 68128, Note_on_c, 0, 69, 75
2, 68158, Note_on_c, 0, 69, 0
2, 68160, Note_on_c, 0, 67, 75
2, 68190, Note_on_c, 0, 67, 0
2, 68192, Note_on_c, 0, 66, 75
2, 68222, Note_on_c, 0, 66, 0
2, 68224, Note_on_c, 0, 64, 75
2, 68254, Note_on_c, 0, 64, 0
2, 68256, Note_on_c, 0, 57, 75
2, 68345, Note_on_c, 0, 57, 0
2, 68352, Note_on_c, 0, 68, 91
2, 68384, Note_on_c, 0, 68, 0
2, 68384, Note_on_c, 0, 69, 75
2, 68414, Note_on_c, 0, 69, 0
2, 68416, Note_on_c, 0, 67, 75
2, 68446, Note_on_c, 0, 67, 0
2, 68448, Note_on_c, 0, 66, 75
2, 68478, Note_on_c, 0, 66, 0
2, 68480, Note_on_c, 0, 64, 75
2, 68510, Note_on_c, 0, 64, 0
2, 68512, Note_on_c, 0, 62, 75
2, 68542, Note_on_c, 0, 62, 0
2, 68544, Note_on_c, 0, 63, 91
2, 68640, Note_on_c, 0, 63, 0
2, 68640, Note_on_c, 0, 64, 75
2, 68707, Note_on_c, 0, 64, 0
2, 68712, Note_on_c, 0, 67, 75
2, 68735, Note_on_c, 0, 67, 0
2, 68736, Note_on_c, 0, 59, 75
2, 68803, Note_on_c, 0, 59, 0
2, 68808, Note_on_c, 0, 64, 75
2, 68831, Note_on_c, 0, 64, 0
2, 68832, Note_on_c, 0, 62, 75
2, 69024, Note_on_c, 0, 62, 0
2, 69024, Note_on_c, 0, 61, 75
2, 69113, Note_on_c, 0, 61, 0
2, 69120, Note_on_c, 0, 74, 75
2, 69150, Note_on_c, 0, 74, 0
2, 69152, Note_on_c, 0, 78, 76
2, 69182, Note_on_c, 0, 78, 0
2, 69184, Note_on_c, 0, 81, 78
2, 69214, Note_on_c, 0, 81, 0
2, 69216, Note_on_c, 0, 79, 79
2, 69246, Note_on_c, 0, 79, 0
2, 69248, Note_on_c, 0, 78, 78
2, 69278, Note_on_c, 0, 78, 0
2, 69280, Note_on_c, 0, 76, 77
2, 69310, Note_on_c, 0, 76, 0
2, 69312, Note_on_c, 0, 74, 75
2, 69342, Note_on_c, 0, 74, 0
2, 69344, Note_on_c, 0, 73, 75
2, 69374, Note_on_c, 0, 73, 0
2, 69376, Note_on_c, 0, 71, 75
2, 69453, Note_on_c, 0, 71, 0
2, 69456, Note_on_c, 0, 69, 75
2, 69545, Note_on_c, 0, 69, 0
2, 69552, Note_on_c, 0, 67, 75
2, 69641, Note_on_c, 0, 67, 0
2, 69648, Note_on_c, 0, 66, 75
2, 69693, Note_on_c, 0, 66, 0
2, 69696, Note_on_c, 0, 64, 75
2, 69726, Note_on_c, 0, 64, 0
2, 69728, Note_on_c, 0, 67, 75
2, 69758, Note_on_c, 0, 67, 0
2, 69760, Note_on_c, 0, 66, 76
2, 69790, Note_on_c, 0, 66, 0
2, 69792, Note_on_c, 0, 67, 77
2, 69822, Note_on_c, 0, 67, 0
2, 69824, Note_on_c, 0, 71, 78
2, 69854, Note_on_c, 0, 71, 0
2, 69856, Note_on_c, 0, 69, 79
2, 69886, Note_on_c, 0, 69, 0
2, 69888, Note_on_c, 0, 67, 79
2, 69918, Note_on_c, 0, 67, 0
2, 69920, Note_on_c, 0, 66, 77
2, 69950, Note_on_c, 0, 66, 0
2, 69952, Note_on_c, 0, 64, 76
2, 69982, Note_on_c, 0, 64, 0
2, 69984, Note_on_c, 0, 62, 75
2, 70029, Note_on_c, 0, 62, 0
2, 70032, Note_on_c, 0, 61, 75
2, 70121, Note_on_c, 0, 61, 0
2, 70128, Note_on_c, 0, 64, 75
2, 70217, Note_on_c, 0, 64, 0
2, 70224, Note_on_c, 0, 62, 75
2, 70269, Note_on_c, 0, 62, 0
2, 70272, Note_on_c, 0, 57, 75
2, 70302, Note_on_c, 0, 57, 0
2, 70304, Note_on_c, 0, 67, 76
2, 70334, Note_on_c, 0, 67, 0
2, 70336, Note_on_c, 0, 66, 78
2, 70366, Note_on_c, 0, 66, 0
2, 70368, Note_on_c, 0, 67, 79
2, 70398, Note_on_c, 0, 67, 0
2, 70400, Note_on_c, 0, 64, 78
2, 70430, Note_on_c, 0, 64, 0
2, 70432, Note_on_c, 0, 61, 77
2, 70462, Note_on_c, 0, 61, 0
2, 70464, Note_on_c, 0, 64, 75
2, 70476, Note_on_c, 0, 64, 0
2, 70476, Note_on_c, 0, 62, 75
2, 70488, Note_on_c, 0, 62, 0
2, 70488, Note_on_c, 0, 61, 75
2, 70500, Note_on_c, 0, 61, 0
2, 70500, Note_on_c, 0, 62, 75
2, 70553, Note_on_c, 0, 62, 0
2, 70560, Note_on_c, 0, 57, 64
2, 70590, Note_on_c, 0, 57, 0
2, 70592, Note_on_c, 0, 67, 64
2, 70622, Note_on_c, 0, 67, 0
2, 70624, Note_on_c, 0, 66, 69
2, 70654, Note_on_c, 0, 66, 0
2, 70656, Note_on_c, 0, 67, 74
2, 70686, Note_on_c, 0, 67, 0
2, 70688, Note_on_c, 0, 64, 72
2, 70718, Note_on_c, 0, 64, 0
2, 70720, Note_on_c, 0, 61, 68
2, 70750, Note_on_c, 0, 61, 0
2, 70752, Note_on_c, 0, 64, 64
2, 70764, Note_on_c, 0, 64, 0
2, 70764, Note_on_c, 0, 62, 64
2, 70776, Note_on_c, 0, 62, 0
2, 70776, Note_on_c, 0, 61, 64
2, 70788, Note_on_c, 0, 61, 0
2, 70788, Note_on_c, 0, 62, 64
2, 70841, Note_on_c, 0, 62, 0
2, 70848, Note_on_c, 0, 59, 75
2, 70878, Note_on_c, 0, 59, 0
2, 70880, Note_on_c, 0, 64, 75
2, 70910, Note_on_c, 0, 64, 0
2, 70912, Note_on_c, 0, 63, 75
2, 70942, Note_on_c, 0, 63, 0
2, 70944, Note_on_c, 0, 64, 75
2, 70974, Note_on_c, 0, 64, 0
2, 70976, Note_on_c, 0, 67, 75
2, 71006, Note_on_c, 0, 67, 0
2, 71008, Note_on_c, 0, 66, 76
2, 71038, Note_on_c, 0, 66, 0
2, 71040, Note_on_c, 0, 67, 77
2, 71070, Note_on_c, 0, 67, 0
2, 71072, Note_on_c, 0, 69, 78
2, 71102, Note_on_c, 0, 69, 0
2, 71104, Note_on_c, 0, 71, 78
2, 71134, Note_on_c, 0, 71, 0
2, 71136, Note_on_c, 0, 69, 79
2, 71166, Note_on_c, 0, 69, 0
2, 71168, Note_on_c, 0, 67, 79
2, 71198, Note_on_c, 0, 67, 0
2, 71200, Note_on_c, 0, 66, 79
2, 71230, Note_on_c, 0, 66, 0
2, 71232, Note_on_c, 0, 64, 78
2, 71262, Note_on_c, 0, 64, 0
2, 71264, Note_on_c, 0, 62, 78
2, 71294, Note_on_c, 0, 62, 0
2, 71296, Note_on_c, 0, 61, 77
2, 71326, Note_on_c, 0, 61, 0
2, 71328, Note_on_c, 0, 62, 77
2, 71417, Note_on_c, 0, 62, 0
2, 71424, Note_on_c, 0, 71, 75
2, 71454, Note_on_c, 0, 71, 0
2, 71456, Note_on_c, 0, 76, 75
2, 71486, Note_on_c, 0, 76, 0
2, 71488, Note_on_c, 0, 75, 75
2, 71518, Note_on_c, 0, 75, 0
2, 71520, Note_on_c, 0, 76, 75
2, 71550, Note_on_c, 0, 76, 0
2, 71552, Note_on_c, 0, 79, 75
2, 71582, Note_on_c, 0, 79, 0
2, 71584, Note_on_c, 0, 78, 76
2, 71614, Note_on_c, 0, 78, 0
2, 71616, Note_on_c, 0, 79, 77
2, 71646, Note_on_c, 0, 79, 0
2, 71648, Note_on_c, 0, 81, 77
2, 71678, Note_on_c, 0, 81, 0
2, 71680, Note_on_c, 0, 83, 78
2, 71710, Note_on_c, 0, 83, 0
2, 71712, Note_on_c, 0, 81, 79
2, 71742, Note_on_c, 0, 81, 0
2, 71744, Note_on_c, 0, 79, 79
2, 71774, Note_on_c, 0, 79, 0
2, 71776, Note_on_c, 0, 78, 79
2, 71806, Note_on_c, 0, 78, 0
2, 71808, Note_on_c, 0, 76, 79
2, 71838, Note_on_c, 0, 76, 0
2, 71840, Note_on_c, 0, 74, 78
2, 71870, Note_on_c, 0, 74, 0
2, 71872, Note_on_c, 0, 73, 77
2, 71902, Note_on_c, 0, 73, 0
2, 71904, Note_on_c, 0, 74, 77
2, 71934, Note_on_c, 0, 74, 0
2, 71936, Note_on_c, 0, 69, 76
2, 71966, Note_on_c, 0, 69, 0
2, 71968, Note_on_c, 0, 66, 76
2, 71998, Note_on_c, 0, 66, 0
2, 72000, Note_on_c, 0, 71, 75
2, 72030, Note_on_c, 0, 71, 0
2, 72032, Note_on_c, 0, 69, 75
2, 72062, Note_on_c, 0, 69, 0
2, 72064, Note_on_c, 0, 67, 75
2, 72094, Note_on_c, 0, 67, 0
2, 72096, Note_on_c, 0, 66, 75
2, 72185, Note_on_c, 0, 66, 0
2, 72192, Note_on_c, 0, 64, 75
2, 72205, Note_on_c, 0, 64, 0
2, 72206, Note_on_c, 0, 66, 75
2, 72219, Note_on_c, 0, 66, 0
2, 72220, Note_on_c, 0, 64, 75
2, 72233, Note_on_c, 0, 64, 0
2, 72234, Note_on_c, 0, 66, 75
2, 72247, Note_on_c, 0, 66, 0
2, 72248, Note_on_c, 0, 64, 75
2, 72261, Note_on_c, 0, 64, 0
2, 72262, Note_on_c, 0, 62, 75
2, 72274, Note_on_c, 0, 62, 0
2, 72275, Note_on_c, 0, 64, 75
2, 72287, Note_on_c, 0, 64, 0
2, 72288, Note_on_c, 0, 62, 75
2, 72465, Note_on_c, 0, 62, 0
2, 72576, End_track
3, 0, Start_track
3, 0, Program_c, 0, 0
3, 0, Control_c, 0, 7, 127
3, 0, Control_c, 0, 10, 64
3, 27120, Note_on_c, 0, 69, 80
3, 27209, Note_on_c, 0, 69, 0
3, 27216, Note_on_c, 0, 69, 80
3, 27261, Note_on_c, 0, 69, 0
3, 27312, Note_on_c, 0, 69, 80
3, 27357, Note_on_c, 0, 69, 0
3, 27408, Note_on_c, 0, 69, 80
3, 27497, Note_on_c, 0, 69, 0
3, 27504, Note_on_c, 0, 69, 80
3, 27549, Note_on_c, 0, 69, 0
3, 27600, Note_on_c, 0, 69, 80
3, 27645, Note_on_c, 0, 69, 0
3, 33456, Note_on_c, 0, 69, 80
3, 33545, Note_on_c, 0, 69, 0
3, 33552, Note_on_c, 0, 69, 80
3, 33597, Note_on_c, 0, 69, 0
3, 33648, Note_on_c, 0, 69, 80
3, 33693, Note_on_c, 0, 69, 0
3, 33744, Note_on_c, 0, 69, 80
3, 33833, Note_on_c, 0, 69, 0
3, 33840, Note_on_c, 0, 69, 80
3, 33885, Note_on_c, 0, 69, 0
3, 33936, Note_on_c, 0, 69, 80
3, 33981, Note_on_c, 0, 69, 0
3, 37728, Note_on_c, 0, 76, 78
3, 37817, Note_on_c, 0, 76, 0
3, 41520, Note_on_c, 0, 65, 80
3, 41609, Note_on_c, 0, 65, 0
3, 41616, Note_on_c, 0, 65, 80
3, 41661, Note_on_c, 0, 65, 0
3, 41712, Note_on_c, 0, 65, 80
3, 41757, Note_on_c, 0, 65, 0
3, 41808, Note_on_c, 0, 65, 80
3, 41897, Note_on_c, 0, 65, 0
3, 41904, Note_on_c, 0, 65, 80
3, 41949, Note_on_c, 0, 65, 0
3, 42000, Note_on_c, 0, 65, 80
3, 42045, Note_on_c, 0, 65, 0
3, 45792, Note_on_c, 0, 76, 78
3, 45881, Note_on_c, 0, 76, 0
3, 49584, Note_on_c, 0, 65, 80
3, 49673, Note_on_c, 0, 65, 0
3, 49680, Note_on_c, 0, 65, 80
3, 49725, Note_on_c, 0, 65, 0
3, 49776, Note_on_c, 0, 65, 80
3, 49821, Note_on_c, 0, 65, 0
3, 49872, Note_on_c, 0, 65, 80
3, 49961, Note_on_c, 0, 65, 0
3, 49968, Note_on_c, 0, 65, 80
3, 50013, Note_on_c, 0, 65, 0
3, 50064, Note_on_c, 0, 65, 80
3, 50109, Note_on_c, 0, 65, 0
3, 72576, End_track
4, 0, Start_track
4, 0, Program_c, 1, 0
4, 0, Control_c, 1, 7, 127
4, 0, Control_c, 1, 10, 64
4, 0, Note_on_c, 1, 50, 91
4, 0, Note_on_c, 1, 38, 91
4, 192, Note_on_c, 1, 50, 0
4, 192, Note_on_c, 1, 38, 0
4, 192, Note_on_c, 1, 52, 75
4, 192, Note_on_c, 1, 40, 75
4, 281, Note_on_c, 1, 52, 0
4, 281, Note_on_c, 1, 40, 0
4, 288, Note_on_c, 1, 54, 75
4, 288, Note_on_c, 1, 42, 75
4, 377, Note_on_c, 1, 54, 0
4, 377, Note_on_c, 1, 42, 0
4, 384, Note_on_c, 1, 50, 75
4, 384, Note_on_c, 1, 38, 75
4, 473, Note_on_c, 1, 50, 0
4, 473, Note_on_c, 1, 38, 0
4, 480, Note_on_c, 1, 52, 75
4, 480, Note_on_c, 1, 40, 75
4, 569, Note_on_c, 1, 52, 0
4, 569, Note_on_c, 1, 40, 0
4, 576, Note_on_c, 1, 54, 75
4, 576, Note_on_c, 1, 42, 75
4, 753, Note_on_c, 1, 54, 0
4, 753, Note_on_c, 1, 42, 0
4, 768, Note_on_c, 1, 50, 75
4, 857, Note_on_c, 1, 50, 0
4, 864, Note_on_c, 1, 52, 75
4, 953, Note_on_c, 1, 52, 0
4, 960, Note_on_c, 1, 45, 75
4, 1049, Note_on_c, 1, 45, 0
4, 1056, Note_on_c, 1, 50, 75
4, 1145, Note_on_c, 1, 50, 0
4, 1152, Note_on_c, 1, 43, 75
4, 1241, Note_on_c, 1, 43, 0
4, 1248, Note_on_c, 1, 55, 75
4, 1337, Note_on_c, 1, 55, 0
4, 1344, Note_on_c, 1, 54, 75
4, 1433, Note_on_c, 1, 54, 0
4, 1440, Note_on_c, 1, 52, 75
4, 1529, Note_on_c, 1, 52, 0
4, 1536, Note_on_c, 1, 45, 75
4, 1625, Note_on_c, 1, 45, 0
4, 1632, Note_on_c, 1, 50, 75
4, 1721, Note_on_c, 1, 50, 0
4, 1728, Note_on_c, 1, 43, 75
4, 1817, Note_on_c, 1, 43, 0
4, 1824, Note_on_c, 1, 55, 75
4, 1913, Note_on_c, 1, 55, 0
4, 1920, Note_on_c, 1, 55, 75
4, 2009, Note_on_c, 1, 55, 0
4, 2016, Note_on_c, 1, 57, 75
4, 2105, Note_on_c, 1, 57, 0
4, 2112, Note_on_c, 1, 52, 75
4, 2201, Note_on_c, 1, 52, 0
4, 2208, Note_on_c, 1, 45, 75
4, 2297, Note_on_c, 1, 45, 0
4, 2304, Note_on_c, 1, 57, 75
4, 2393, Note_on_c, 1, 57, 0
4, 2400, Note_on_c, 1, 61, 75
4, 2489, Note_on_c, 1, 61, 0
4, 2496, Note_on_c, 1, 62, 75
4, 2585, Note_on_c, 1, 62, 0
4, 2592, Note_on_c, 1, 61, 75
4, 2681, Note_on_c, 1, 61, 0
4, 2688, Note_on_c, 1, 59, 75
4, 2777, Note_on_c, 1, 59, 0
4, 2784, Note_on_c, 1, 57, 75
4, 2873, Note_on_c, 1, 57, 0
4, 2880, Note_on_c, 1, 62, 75
4, 2969, Note_on_c, 1, 62, 0
4, 2976, Note_on_c, 1, 59, 75
4, 3065, Note_on_c, 1, 59, 0
4, 3072, Note_on_c, 1, 62, 75
4, 3161, Note_on_c, 1, 62, 0
4, 3168, Note_on_c, 1, 64, 75
4, 3257, Note_on_c, 1, 64, 0
4, 3264, Note_on_c, 1, 62, 75
4, 3353, Note_on_c, 1, 62, 0
4, 3360, Note_on_c, 1, 61, 75
4, 3449, Note_on_c, 1, 61, 0
4, 3456, Note_on_c, 1, 56, 75
4, 3545, Note_on_c, 1, 56, 0
4, 3552, Note_on_c, 1, 59, 75
4, 3641, Note_on_c, 1, 59, 0
4, 3648, Note_on_c, 1, 61, 75
4, 3737, Note_on_c, 1, 61, 0
4, 3744, Note_on_c, 1, 56, 64
4, 3833, Note_on_c, 1, 56, 0
4, 3840, Note_on_c, 1, 59, 64
4, 3929, Note_on_c, 1, 59, 0
4, 3936, Note_on_c, 1, 61, 64
4, 4025, Note_on_c, 1, 61, 0
4, 4032, Note_on_c, 1, 62, 75
4, 4032, Note_on_c, 1, 50, 75
4, 4121, Note_on_c, 1, 62, 0
4, 4121, Note_on_c, 1, 50, 0
4, 4320, Note_on_c, 1, 49, 75
4, 4320, Note_on_c, 1, 37, 75
4, 4409, Note_on_c, 1, 49, 0
4, 4409, Note_on_c, 1, 37, 0
4, 4608, Note_on_c, 1, 50, 75
4, 4608, Note_on_c, 1, 38, 75
4, 4697, Note_on_c, 1, 50, 0
4, 4697, Note_on_c, 1, 38, 0
4, 4704, Note_on_c, 1, 52, 75
4, 4793, Note_on_c, 1, 52, 0
4, 4800, Note_on_c, 1, 40, 75
4, 4889, Note_on_c, 1, 40, 0
4, 4896, Note_on_c, 1, 45, 75
4, 4985, Note_on_c, 1, 45, 0
4, 4992, Note_on_c, 1, 40, 75
4, 5081, Note_on_c, 1, 40, 0
4, 5088, Note_on_c, 1, 33, 75
4, 5177, Note_on_c, 1, 33, 0
4, 5184, Note_on_c, 1, 50, 91
4, 5184, Note_on_c, 1, 38, 91
4, 5376, Note_on_c, 1, 50, 0
4, 5376, Note_on_c, 1, 38, 0
4, 5376, Note_on_c, 1, 52, 75
4, 5376, Note_on_c, 1, 40, 75
4, 5465, Note_on_c, 1, 52, 0
4, 5465, Note_on_c, 1, 40, 0
4, 5472, Note_on_c, 1, 54, 75
4, 5472, Note_on_c, 1, 42, 75
4, 5561, Note_on_c, 1, 54, 0
4, 5561, Note_on_c, 1, 42, 0
4, 5568, Note_on_c, 1, 50, 75
4, 5568, Note_on_c, 1, 38, 75
4, 5657, Note_on_c, 1, 50, 0
4, 5657, Note_on_c, 1, 38, 0
4, 5664, Note_on_c, 1, 52, 75
4, 5664, Note_on_c, 1, 40, 75
4, 5753, Note_on_c, 1, 52, 0
4, 5753, Note_on_c, 1, 40, 0
4, 5760, Note_on_c, 1, 54, 75
4, 5760, Note_on_c, 1, 42, 75
4, 5937, Note_on_c, 1, 54, 0
4, 5937, Note_on_c, 1, 42, 0
4, 5952, Note_on_c, 1, 50, 75
4, 6041, Note_on_c, 1, 50, 0
4, 6048, Note_on_c, 1, 52, 75
4, 6137, Note_on_c, 1, 52, 0
4, 6144, Note_on_c, 1, 45, 75
4, 6233, Note_on_c, 1, 45, 0
4, 6240, Note_on_c, 1, 50, 75
4, 6329, Note_on_c, 1, 50, 0
4, 6336, Note_on_c, 1, 43, 75
4, 6425, Note_on_c, 1, 43, 0
4, 6432, Note_on_c, 1, 55, 75
4, 6521, Note_on_c, 1, 55, 0
4, 6528, Note_on_c, 1, 54, 75
4, 6617, Note_on_c, 1, 54, 0
4, 6624, Note_on_c, 1, 52, 75
4, 6713, Note_on_c, 1, 52, 0
4, 6720, Note_on_c, 1, 45, 75
4, 6809, Note_on_c, 1, 45, 0
4, 6816, Note_on_c, 1, 50, 75
4, 6905, Note_on_c, 1, 50, 0
4, 6912, Note_on_c, 1, 43, 75
4, 7001, Note_on_c, 1, 43, 0
4, 7008, Note_on_c, 1, 55, 75
4, 7097, Note_on_c, 1, 55, 0
4, 7104, Note_on_c, 1, 55, 75
4, 7193, Note_on_c, 1, 55, 0
4, 7200, Note_on_c, 1, 57, 75
4, 7289, Note_on_c, 1, 57, 0
4, 7296, Note_on_c, 1, 52, 75
4, 7385, Note_on_c, 1, 52, 0
4, 7392, Note_on_c, 1, 45, 75
4, 7481, Note_on_c, 1, 45, 0
4, 7488, Note_on_c, 1, 57, 75
4, 7577, Note_on_c, 1, 57, 0
4, 7584, Note_on_c, 1, 61, 75
4, 7673, Note_on_c, 1, 61, 0
4, 7680, Note_on_c, 1, 62, 75
4, 7769, Note_on_c, 1, 62, 0
4, 7776, Note_on_c, 1, 61, 75
4, 7865, Note_on_c, 1, 61, 0
4, 7872, Note_on_c, 1, 59, 75
4, 7961, Note_on_c, 1, 59, 0
4, 7968, Note_on_c, 1, 57, 75
4, 8057, Note_on_c, 1, 57, 0
4, 8064, Note_on_c, 1, 62, 75
4, 8153, Note_on_c, 1, 62, 0
4, 8160, Note_on_c, 1, 59, 75
4, 8249, Note_on_c, 1, 59, 0
4, 8256, Note_on_c, 1, 62, 75
4, 8345, Note_on_c, 1, 62, 0
4, 8352, Note_on_c, 1, 64, 75
4, 8441, Note_on_c, 1, 64, 0
4, 8448, Note_on_c, 1, 62, 75
4, 8537, Note_on_c, 1, 62, 0
4, 8544, Note_on_c, 1, 61, 75
4, 8633, Note_on_c, 1, 61, 0
4, 8640, Note_on_c, 1, 56, 75
4, 8729, Note_on_c, 1, 56, 0
4, 8736, Note_on_c, 1, 59, 75
4, 8825, Note_on_c, 1, 59, 0
4, 8832, Note_on_c, 1, 61, 75
4, 8921, Note_on_c, 1, 61, 0
4, 8928, Note_on_c, 1, 56, 64
4, 9017, Note_on_c, 1, 56, 0
4, 9024, Note_on_c, 1, 59, 64
4, 9113, Note_on_c, 1, 59, 0
4, 9120, Note_on_c, 1, 61, 64
4, 9209, Note_on_c, 1, 61, 0
4, 9216, Note_on_c, 1, 62, 75
4, 9216, Note_on_c, 1, 50, 75
4, 9305, Note_on_c, 1, 62, 0
4, 9305, Note_on_c, 1, 50, 0
4, 9504, Note_on_c, 1, 49, 75
4, 9504, Note_on_c, 1, 37, 75
4, 9593, Note_on_c, 1, 49, 0
4, 9593, Note_on_c, 1, 37, 0
4, 9792, Note_on_c, 1, 50, 75
4, 9792, Note_on_c, 1, 38, 75
4, 9881, Note_on_c, 1, 50, 0
4, 9881, Note_on_c, 1, 38, 0
4, 9888, Note_on_c, 1, 52, 75
4, 9977, Note_on_c, 1, 52, 0
4, 9984, Note_on_c, 1, 40, 75
4, 10073, Note_on_c, 1, 40, 0
4, 10080, Note_on_c, 1, 45, 75
4, 10169, Note_on_c, 1, 45, 0
4, 10176, Note_on_c, 1, 40, 75
4, 10265, Note_on_c, 1, 40, 0
4, 10272, Note_on_c, 1, 33, 75
4, 10361, Note_on_c, 1, 33, 0
4, 10368, Note_on_c, 1, 45, 75
4, 10368, Note_on_c, 1, 33, 75
4, 10457, Note_on_c, 1, 45, 0
4, 10457, Note_on_c, 1, 33, 0
4, 10464, Note_on_c, 1, 45, 75
4, 10553, Note_on_c, 1, 45, 0
4, 10560, Note_on_c, 1, 47, 75
4, 10649, Note_on_c, 1, 47, 0
4, 10656, Note_on_c, 1, 49, 75
4, 10745, Note_on_c, 1, 49, 0
4, 10752, Note_on_c, 1, 52, 75
4, 10841, Note_on_c, 1, 52, 0
4, 10848, Note_on_c, 1, 54, 75
4, 10937, Note_on_c, 1, 54, 0
4, 10944, Note_on_c, 1, 45, 64
4, 10944, Note_on_c, 1, 33, 64
4, 11033, Note_on_c, 1, 45, 0
4, 11033, Note_on_c, 1, 33, 0
4, 11040, Note_on_c, 1, 45, 64
4, 11129, Note_on_c, 1, 45, 0
4, 11136, Note_on_c, 1, 47, 64
4, 11225, Note_on_c, 1, 47, 0
4, 11232, Note_on_c, 1, 49, 64
4, 11321, Note_on_c, 1, 49, 0
4, 11328, Note_on_c, 1, 52, 64
4, 11417, Note_on_c, 1, 52, 0
4, 11424, Note_on_c, 1, 54, 64
4, 11513, Note_on_c, 1, 54, 0
4, 11520, Note_on_c, 1, 43, 75
4, 11609, Note_on_c, 1, 43, 0
4, 11616, Note_on_c, 1, 55, 75
4, 11705, Note_on_c, 1, 55, 0
4, 11808, Note_on_c, 1, 42, 75
4, 11897, Note_on_c, 1, 42, 0
4, 11904, Note_on_c, 1, 54, 75
4, 11993, Note_on_c, 1, 54, 0
4, 12096, Note_on_c, 1, 55, 75
4, 12096, Note_on_c, 1, 43, 75
4, 12273, Note_on_c, 1, 55, 0
4, 12273, Note_on_c, 1, 43, 0
4, 12288, Note_on_c, 1, 56, 75
4, 12377, Note_on_c, 1, 56, 0
4, 12384, Note_on_c, 1, 57, 75
4, 12473, Note_on_c, 1, 57, 0
4, 12480, Note_on_c, 1, 52, 75
4, 12569, Note_on_c, 1, 52, 0
4, 12576, Note_on_c, 1, 45, 75
4, 12665, Note_on_c, 1, 45, 0
4, 12672, Note_on_c, 1, 62, 75
4, 12761, Note_on_c, 1, 62, 0
4, 12768, Note_on_c, 1, 66, 75
4, 12857, Note_on_c, 1, 66, 0
4, 12864, Note_on_c, 1, 67, 75
4, 12953, Note_on_c, 1, 67, 0
4, 12960, Note_on_c, 1, 66, 75
4, 13049, Note_on_c, 1, 66, 0
4, 13056, Note_on_c, 1, 64, 75
4, 13145, Note_on_c, 1, 64, 0
4, 13152, Note_on_c, 1, 62, 75
4, 13241, Note_on_c, 1, 62, 0
4, 13248, Note_on_c, 1, 55, 75
4, 13337, Note_on_c, 1, 55, 0
4, 13344, Note_on_c, 1, 52, 75
4, 13433, Note_on_c, 1, 52, 0
4, 13440, Note_on_c, 1, 55, 75
4, 13529, Note_on_c, 1, 55, 0
4, 13536, Note_on_c, 1, 57, 75
4, 13625, Note_on_c, 1, 57, 0
4, 13632, Note_on_c, 1, 55, 75
4, 13721, Note_on_c, 1, 55, 0
4, 13728, Note_on_c, 1, 54, 75
4, 13817, Note_on_c, 1, 54, 0
4, 13824, Note_on_c, 1, 49, 75
4, 13913, Note_on_c, 1, 49, 0
4, 13920, Note_on_c, 1, 52, 75
4, 14009, Note_on_c, 1, 52, 0
4, 14016, Note_on_c, 1, 54, 75
4, 14105, Note_on_c, 1, 54, 0
4, 14112, Note_on_c, 1, 49, 64
4, 14201, Note_on_c, 1, 49, 0
4, 14208, Note_on_c, 1, 52, 64
4, 14297, Note_on_c, 1, 52, 0
4, 14304, Note_on_c, 1, 54, 64
4, 14393, Note_on_c, 1, 54, 0
4, 14400, Note_on_c, 1, 55, 64
4, 14400, Note_on_c, 1, 43, 64
4, 14577, Note_on_c, 1, 55, 0
4, 14577, Note_on_c, 1, 43, 0
4, 14688, Note_on_c, 1, 54, 64
4, 14688, Note_on_c, 1, 42, 64
4, 14865, Note_on_c, 1, 54, 0
4, 14865, Note_on_c, 1, 42, 0
4, 14976, Note_on_c, 1, 55, 64
4, 14976, Note_on_c, 1, 43, 64
4, 15153, Note_on_c, 1, 55, 0
4, 15153, Note_on_c, 1, 43, 0
4, 15264, Note_on_c, 1, 54, 64
4, 15264, Note_on_c, 1, 42, 64
4, 15441, Note_on_c, 1, 54, 0
4, 15441, Note_on_c, 1, 42, 0
4, 15552, Note_on_c, 1, 55, 64
4, 15552, Note_on_c, 1, 43, 64
4, 15641, Note_on_c, 1, 55, 0
4, 15641, Note_on_c, 1, 43, 0
4, 15648, Note_on_c, 1, 57, 64
4, 15737, Note_on_c, 1, 57, 0
4, 15744, Note_on_c, 1, 45, 64
4, 15833, Note_on_c, 1, 45, 0
4, 15840, Note_on_c, 1, 50, 64
4, 15929, Note_on_c, 1, 50, 0
4, 15936, Note_on_c, 1, 45, 64
4, 16025, Note_on_c, 1, 45, 0
4, 16032, Note_on_c, 1, 38, 64
4, 16121, Note_on_c, 1, 38, 0
4, 16128, Note_on_c, 1, 45, 75
4, 16128, Note_on_c, 1, 33, 75
4, 16217, Note_on_c, 1, 45, 0
4, 16217, Note_on_c, 1, 33, 0
4, 16224, Note_on_c, 1, 45, 75
4, 16313, Note_on_c, 1, 45, 0
4, 16320, Note_on_c, 1, 47, 75
4, 16409, Note_on_c, 1, 47, 0
4, 16416, Note_on_c, 1, 49, 75
4, 16505, Note_on_c, 1, 49, 0
4, 16512, Note_on_c, 1, 52, 75
4, 16601, Note_on_c, 1, 52, 0
4, 16608, Note_on_c, 1, 54, 75
4, 16697, Note_on_c, 1, 54, 0
4, 16704, Note_on_c, 1, 45, 64
4, 16704, Note_on_c, 1, 33, 64
4, 16793, Note_on_c, 1, 45, 0
4, 16793, Note_on_c, 1, 33, 0
4, 16800, Note_on_c, 1, 45, 64
4, 16889, Note_on_c, 1, 45, 0
4, 16896, Note_on_c, 1, 47, 64
4, 16985, Note_on_c, 1, 47, 0
4, 16992, Note_on_c, 1, 49, 64
4, 17081, Note_on_c, 1, 49, 0
4, 17088, Note_on_c, 1, 52, 64
4, 17177, Note_on_c, 1, 52, 0
4, 17184, Note_on_c, 1, 54, 64
4, 17273, Note_on_c, 1, 54, 0
4, 17280, Note_on_c, 1, 43, 75
4, 17369, Note_on_c, 1, 43, 0
4, 17376, Note_on_c, 1, 55, 75
4, 17465, Note_on_c, 1, 55, 0
4, 17568, Note_on_c, 1, 42, 75
4, 17657, Note_on_c, 1, 42, 0
4, 17664, Note_on_c, 1, 54, 75
4, 17753, Note_on_c, 1, 54, 0
4, 17856, Note_on_c, 1, 55, 75
4, 17856, Note_on_c, 1, 43, 75
4, 18033, Note_on_c, 1, 55, 0
4, 18033, Note_on_c, 1, 43, 0
4, 18048, Note_on_c, 1, 56, 75
4, 18137, Note_on_c, 1, 56, 0
4, 18144, Note_on_c, 1, 57, 75
4, 18233, Note_on_c, 1, 57, 0
4, 18240, Note_on_c, 1, 52, 75
4, 18329, Note_on_c, 1, 52, 0
4, 18336, Note_on_c, 1, 45, 75
4, 18425, Note_on_c, 1, 45, 0
4, 18432, Note_on_c, 1, 62, 75
4, 18521, Note_on_c, 1, 62, 0
4, 18528, Note_on_c, 1, 66, 75
4, 18617, Note_on_c, 1, 66, 0
4, 18624, Note_on_c, 1, 67, 75
4, 18713, Note_on_c, 1, 67, 0
4, 18720, Note_on_c, 1, 66, 75
4, 18809, Note_on_c, 1, 66, 0
4, 18816, Note_on_c, 1, 64, 75
4, 18905, Note_on_c, 1, 64, 0
4, 18912, Note_on_c, 1, 62, 75
4, 19001, Note_on_c, 1, 62, 0
4, 19008, Note_on_c, 1, 55, 75
4, 19097, Note_on_c, 1, 55, 0
4, 19104, Note_on_c, 1, 52, 75
4, 19193, Note_on_c, 1, 52, 0
4, 19200, Note_on_c, 1, 55, 75
4, 19289, Note_on_c, 1, 55, 0
4, 19296, Note_on_c, 1, 57, 75
4, 19385, Note_on_c, 1, 57, 0
4, 19392, Note_on_c, 1, 55, 75
4, 19481, Note_on_c, 1, 55, 0
4, 19488, Note_on_c, 1, 54, 75
4, 19577, Note_on_c, 1, 54, 0
4, 19584, Note_on_c, 1, 49, 75
4, 19673, Note_on_c, 1, 49, 0
4, 19680, Note_on_c, 1, 52, 75
4, 19769, Note_on_c, 1, 52, 0
4, 19776, Note_on_c, 1, 54, 75
4, 19865, Note_on_c, 1, 54, 0
4, 19872, Note_on_c, 1, 49, 64
4, 19961, Note_on_c, 1, 49, 0
4, 19968, Note_on_c, 1, 52, 64
4, 20057, Note_on_c, 1, 52, 0
4, 20064, Note_on_c, 1, 54, 64
4, 20153, Note_on_c, 1, 54, 0
4, 20160, Note_on_c, 1, 55, 64
4, 20160, Note_on_c, 1, 43, 64
4, 20337, Note_on_c, 1, 55, 0
4, 20337, Note_on_c, 1, 43, 0
4, 20448, Note_on_c, 1, 54, 64
4, 20448, Note_on_c, 1, 42, 64
4, 20625, Note_on_c, 1, 54, 0
4, 20625, Note_on_c, 1, 42, 0
4, 20736, Note_on_c, 1, 55, 64
4, 20736, Note_on_c, 1, 43, 64
4, 20913, Note_on_c, 1, 55, 0
4, 20913, Note_on_c, 1, 43, 0
4, 21024, Note_on_c, 1, 54, 64
4, 21024, Note_on_c, 1, 42, 64
4, 21201, Note_on_c, 1, 54, 0
4, 21201, Note_on_c, 1, 42, 0
4, 21312, Note_on_c, 1, 55, 64
4, 21312, Note_on_c, 1, 43, 64
4, 21401, Note_on_c, 1, 55, 0
4, 21401, Note_on_c, 1, 43, 0
4, 21408, Note_on_c, 1, 57, 64
4, 21497, Note_on_c, 1, 57, 0
4, 21504, Note_on_c, 1, 45, 64
4, 21593, Note_on_c, 1, 45, 0
4, 21600, Note_on_c, 1, 50, 64
4, 21689, Note_on_c, 1, 50, 0
4, 21696, Note_on_c, 1, 45, 64
4, 21785, Note_on_c, 1, 45, 0
4, 21792, Note_on_c, 1, 38, 64
4, 21881, Note_on_c, 1, 38, 0
4, 21888, Note_on_c, 1, 50, 80
4, 21888, Note_on_c, 1, 38, 80
4, 22065, Note_on_c, 1, 50, 0
4, 22065, Note_on_c, 1, 38, 0
4, 22080, Note_on_c, 1, 48, 80
4, 22080, Note_on_c, 1, 36, 80
4, 22169, Note_on_c, 1, 48, 0
4, 22169, Note_on_c, 1, 36, 0
4, 22176, Note_on_c, 1, 46, 80
4, 22176, Note_on_c, 1, 34, 80
4, 22265, Note_on_c, 1, 46, 0
4, 22265, Note_on_c, 1, 34, 0
4, 22272, Note_on_c, 1, 41, 80
4, 22272, Note_on_c, 1, 29, 80
4, 22361, Note_on_c, 1, 41, 0
4, 22361, Note_on_c, 1, 29, 0
4, 22464, Note_on_c, 1, 43, 64
4, 22464, Note_on_c, 1, 31, 64
4, 22641, Note_on_c, 1, 43, 0
4, 22641, Note_on_c, 1, 31, 0
4, 22656, Note_on_c, 1, 45, 64
4, 22656, Note_on_c, 1, 33, 64
4, 22745, Note_on_c, 1, 45, 0
4, 22745, Note_on_c, 1, 33, 0
4, 22752, Note_on_c, 1, 50, 64
4, 22752, Note_on_c, 1, 38, 64
4, 22929, Note_on_c, 1, 50, 0
4, 22929, Note_on_c, 1, 38, 0
4, 23040, Note_on_c, 1, 50, 80
4, 23040, Note_on_c, 1, 38, 80
4, 23217, Note_on_c, 1, 50, 0
4, 23217, Note_on_c, 1, 38, 0
4, 23232, Note_on_c, 1, 48, 80
4, 23232, Note_on_c, 1, 36, 80
4, 23321, Note_on_c, 1, 48, 0
4, 23321, Note_on_c, 1, 36, 0
4, 23328, Note_on_c, 1, 46, 80
4, 23328, Note_on_c, 1, 34, 80
4, 23417, Note_on_c, 1, 46, 0
4, 23417, Note_on_c, 1, 34, 0
4, 23424, Note_on_c, 1, 41, 80
4, 23424, Note_on_c, 1, 29, 80
4, 23513, Note_on_c, 1, 41, 0
4, 23513, Note_on_c, 1, 29, 0
4, 23616, Note_on_c, 1, 43, 64
4, 23616, Note_on_c, 1, 31, 64
4, 23793, Note_on_c, 1, 43, 0
4, 23793, Note_on_c, 1, 31, 0
4, 23808, Note_on_c, 1, 45, 64
4, 23808, Note_on_c, 1, 33, 64
4, 23897, Note_on_c, 1, 45, 0
4, 23897, Note_on_c, 1, 33, 0
4, 23904, Note_on_c, 1, 50, 64
4, 23904, Note_on_c, 1, 38, 64
4, 24081, Note_on_c, 1, 50, 0
4, 24081, Note_on_c, 1, 38, 0
4, 24192, Note_on_c, 1, 44, 70
4, 24369, Note_on_c, 1, 44, 0
4, 24384, Note_on_c, 1, 44, 75
4, 24473, Note_on_c, 1, 44, 0
4, 24480, Note_on_c, 1, 45, 80
4, 24569, Note_on_c, 1, 45, 0
4, 24576, Note_on_c, 1, 33, 64
4, 24665, Note_on_c, 1, 33, 0
4, 24768, Note_on_c, 1, 53, 80
4, 24768, Note_on_c, 1, 41, 80
4, 24945, Note_on_c, 1, 53, 0
4, 24945, Note_on_c, 1, 41, 0
4, 24960, Note_on_c, 1, 52, 80
4, 24960, Note_on_c, 1, 40, 80
4, 25049, Note_on_c, 1, 52, 0
4, 25049, Note_on_c, 1, 40, 0
4, 25056, Note_on_c, 1, 50, 80
4, 25056, Note_on_c, 1, 38, 80
4, 25145, Note_on_c, 1, 50, 0
4, 25145, Note_on_c, 1, 38, 0
4, 25152, Note_on_c, 1, 48, 80
4, 25152, Note_on_c, 1, 36, 80
4, 25241, Note_on_c, 1, 48, 0
4, 25241, Note_on_c, 1, 36, 0
4, 25248, Note_on_c, 1, 46, 80
4, 25248, Note_on_c, 1, 34, 80
4, 25337, Note_on_c, 1, 46, 0
4, 25337, Note_on_c, 1, 34, 0
4, 25344, Note_on_c, 1, 45, 80
4, 25344, Note_on_c, 1, 33, 80
4, 25521, Note_on_c, 1, 45, 0
4, 25521, Note_on_c, 1, 33, 0
4, 25632, Note_on_c, 1, 72, 70
4, 25632, Note_on_c, 1, 70, 70
4, 25809, Note_on_c, 1, 72, 0
4, 25809, Note_on_c, 1, 70, 0
4, 25824, Note_on_c, 1, 72, 70
4, 25824, Note_on_c, 1, 69, 70
4, 25913, Note_on_c, 1, 72, 0
4, 25913, Note_on_c, 1, 69, 0
4, 25920, Note_on_c, 1, 72, 64
4, 25920, Note_on_c, 1, 70, 64
4, 26097, Note_on_c, 1, 72, 0
4, 26097, Note_on_c, 1, 70, 0
4, 26112, Note_on_c, 1, 72, 64
4, 26112, Note_on_c, 1, 69, 64
4, 26201, Note_on_c, 1, 72, 0
4, 26201, Note_on_c, 1, 69, 0
4, 26208, Note_on_c, 1, 60, 64
4, 26208, Note_on_c, 1, 48, 64
4, 26297, Note_on_c, 1, 60, 0
4, 26297, Note_on_c, 1, 48, 0
4, 26496, Note_on_c, 1, 60, 70
4, 26496, Note_on_c, 1, 48, 70
4, 26585, Note_on_c, 1, 60, 0
4, 26585, Note_on_c, 1, 48, 0
4, 26784, Note_on_c, 1, 60, 75
4, 26784, Note_on_c, 1, 48, 75
4, 26873, Note_on_c, 1, 60, 0
4, 26873, Note_on_c, 1, 48, 0
4, 27072, Note_on_c, 1, 53, 80
4, 27072, Note_on_c, 1, 41, 80
4, 27249, Note_on_c, 1, 53, 0
4, 27249, Note_on_c, 1, 41, 0
4, 27264, Note_on_c, 1, 52, 80
4, 27264, Note_on_c, 1, 40, 80
4, 27353, Note_on_c, 1, 52, 0
4, 27353, Note_on_c, 1, 40, 0
4, 27360, Note_on_c, 1, 50, 80
4, 27360, Note_on_c, 1, 38, 80
4, 27537, Note_on_c, 1, 50, 0
4, 27537, Note_on_c, 1, 38, 0
4, 27552, Note_on_c, 1, 45, 80
4, 27552, Note_on_c, 1, 36, 80
4, 27641, Note_on_c, 1, 45, 0
4, 27641, Note_on_c, 1, 36, 0
4, 27648, Note_on_c, 1, 46, 80
4, 27648, Note_on_c, 1, 34, 80
4, 27737, Note_on_c, 1, 46, 0
4, 27737, Note_on_c, 1, 34, 0
4, 27744, Note_on_c, 1, 48, 80
4, 27833, Note_on_c, 1, 48, 0
4, 27840, Note_on_c, 1, 36, 80
4, 27929, Note_on_c, 1, 36, 0
4, 27936, Note_on_c, 1, 41, 80
4, 28025, Note_on_c, 1, 41, 0
4, 28032, Note_on_c, 1, 36, 80
4, 28121, Note_on_c, 1, 36, 0
4, 28128, Note_on_c, 1, 29, 80
4, 28217, Note_on_c, 1, 29, 0
4, 28224, Note_on_c, 1, 50, 80
4, 28224, Note_on_c, 1, 38, 80
4, 28401, Note_on_c, 1, 50, 0
4, 28401, Note_on_c, 1, 38, 0
4, 28416, Note_on_c, 1, 48, 80
4, 28416, Note_on_c, 1, 36, 80
4, 28505, Note_on_c, 1, 48, 0
4, 28505, Note_on_c, 1, 36, 0
4, 28512, Note_on_c, 1, 46, 80
4, 28512, Note_on_c, 1, 34, 80
4, 28601, Note_on_c, 1, 46, 0
4, 28601, Note_on_c, 1, 34, 0
4, 28608, Note_on_c, 1, 41, 80
4, 28608, Note_on_c, 1, 29, 80
4, 28697, Note_on_c, 1, 41, 0
4, 28697, Note_on_c, 1, 29, 0
4, 28800, Note_on_c, 1, 43, 64
4, 28800, Note_on_c, 1, 31, 64
4, 28977, Note_on_c, 1, 43, 0
4, 28977, Note_on_c, 1, 31, 0
4, 28992, Note_on_c, 1, 45, 64
4, 28992, Note_on_c, 1, 33, 64
4, 29081, Note_on_c, 1, 45, 0
4, 29081, Note_on_c, 1, 33, 0
4, 29088, Note_on_c, 1, 50, 64
4, 29088, Note_on_c, 1, 38, 64
4, 29265, Note_on_c, 1, 50, 0
4, 29265, Note_on_c, 1, 38, 0
4, 29376, Note_on_c, 1, 50, 80
4, 29376, Note_on_c, 1, 38, 80
4, 29553, Note_on_c, 1, 50, 0
4, 29553, Note_on_c, 1, 38, 0
4, 29568, Note_on_c, 1, 48, 80
4, 29568, Note_on_c, 1, 36, 80
4, 29657, Note_on_c, 1, 48, 0
4, 29657, Note_on_c, 1, 36, 0
4, 29664, Note_on_c, 1, 46, 80
4, 29664, Note_on_c, 1, 34, 80
4, 29753, Note_on_c, 1, 46, 0
4, 29753, Note_on_c, 1, 34, 0
4, 29760, Note_on_c, 1, 41, 80
4, 29760, Note_on_c, 1, 29, 80
4, 29849, Note_on_c, 1, 41, 0
4, 29849, Note_on_c, 1, 29, 0
4, 29952, Note_on_c, 1, 43, 64
4, 29952, Note_on_c, 1, 31, 64
4, 30129, Note_on_c, 1, 43, 0
4, 30129, Note_on_c, 1, 31, 0
4, 30144, Note_on_c, 1, 45, 64
4, 30144, Note_on_c, 1, 33, 64
4, 30233, Note_on_c, 1, 45, 0
4, 30233, Note_on_c, 1, 33, 0
4, 30240, Note_on_c, 1, 50, 64
4, 30240, Note_on_c, 1, 38, 64
4, 30417, Note_on_c, 1, 50, 0
4, 30417, Note_on_c, 1, 38, 0
4, 30528, Note_on_c, 1, 44, 70
4, 30705, Note_on_c, 1, 44, 0
4, 30720, Note_on_c, 1, 44, 75
4, 30809, Note_on_c, 1, 44, 0
4, 30816, Note_on_c, 1, 45, 80
4, 30905, Note_on_c, 1, 45, 0
4, 30912, Note_on_c, 1, 33, 64
4, 31001, Note_on_c, 1, 33, 0
4, 31104, Note_on_c, 1, 53, 80
4, 31104, Note_on_c, 1, 41, 80
4, 31281, Note_on_c, 1, 53, 0
4, 31281, Note_on_c, 1, 41, 0
4, 31296, Note_on_c, 1, 52, 80
4, 31296, Note_on_c, 1, 40, 80
4, 31385, Note_on_c, 1, 52, 0
4, 31385, Note_on_c, 1, 40, 0
4, 31392, Note_on_c, 1, 50, 80
4, 31392, Note_on_c, 1, 38, 80
4, 31481, Note_on_c, 1, 50, 0
4, 31481, Note_on_c, 1, 38, 0
4, 31488, Note_on_c, 1, 48, 80
4, 31488, Note_on_c, 1, 36, 80
4, 31577, Note_on_c, 1, 48, 0
4, 31577, Note_on_c, 1, 36, 0
4, 31584, Note_on_c, 1, 46, 80
4, 31584, Note_on_c, 1, 34, 80
4, 31673, Note_on_c, 1, 46, 0
4, 31673, Note_on_c, 1, 34, 0
4, 31680, Note_on_c, 1, 45, 80
4, 31680, Note_on_c, 1, 33, 80
4, 31857, Note_on_c, 1, 45, 0
4, 31857, Note_on_c, 1, 33, 0
4, 31968, Note_on_c, 1, 72, 70
4, 31968, Note_on_c, 1, 70, 70
4, 32145, Note_on_c, 1, 72, 0
4, 32145, Note_on_c, 1, 70, 0
4, 32160, Note_on_c, 1, 72, 70
4, 32160, Note_on_c, 1, 69, 70
4, 32249, Note_on_c, 1, 72, 0
4, 32249, Note_on_c, 1, 69, 0
4, 32256, Note_on_c, 1, 72, 64
4, 32256, Note_on_c, 1, 70, 64
4, 32433, Note_on_c, 1, 72, 0
4, 32433, Note_on_c, 1, 70, 0
4, 32448, Note_on_c, 1, 72, 64
4, 32448, Note_on_c, 1, 69, 64
4, 32537, Note_on_c, 1, 72, 0
4, 32537, Note_on_c, 1, 69, 0
4, 32544, Note_on_c, 1, 60, 64
4, 32544, Note_on_c, 1, 48, 64
4, 32633, Note_on_c, 1, 60, 0
4, 32633, Note_on_c, 1, 48, 0
4, 32832, Note_on_c, 1, 60, 70
4, 32832, Note_on_c, 1, 48, 70
4, 32921, Note_on_c, 1, 60, 0
4, 32921, Note_on_c, 1, 48, 0
4, 33120, Note_on_c, 1, 60, 75
4, 33120, Note_on_c, 1, 48, 75
4, 33209, Note_on_c, 1, 60, 0
4, 33209, Note_on_c, 1, 48, 0
4, 33408, Note_on_c, 1, 53, 80
4, 33408, Note_on_c, 1, 41, 80
4, 33585, Note_on_c, 1, 53, 0
4, 33585, Note_on_c, 1, 41, 0
4, 33600, Note_on_c, 1, 52, 80
4, 33600, Note_on_c, 1, 40, 80
4, 33689, Note_on_c, 1, 52, 0
4, 33689, Note_on_c, 1, 40, 0
4, 33696, Note_on_c, 1, 50, 80
4, 33696, Note_on_c, 1, 38, 80
4, 33873, Note_on_c, 1, 50, 0
4, 33873, Note_on_c, 1, 38, 0
4, 33888, Note_on_c, 1, 45, 80
4, 33888, Note_on_c, 1, 36, 80
4, 33977, Note_on_c, 1, 45, 0
4, 33977, Note_on_c, 1, 36, 0
4, 33984, Note_on_c, 1, 46, 80
4, 33984, Note_on_c, 1, 34, 80
4, 34073, Note_on_c, 1, 46, 0
4, 34073, Note_on_c, 1, 34, 0
4, 34080, Note_on_c, 1, 48, 80
4, 34169, Note_on_c, 1, 48, 0
4, 34176, Note_on_c, 1, 36, 80
4, 34265, Note_on_c, 1, 36, 0
4, 34272, Note_on_c, 1, 41, 80
4, 34361, Note_on_c, 1, 41, 0
4, 34368, Note_on_c, 1, 36, 80
4, 34457, Note_on_c, 1, 36, 0
4, 34464, Note_on_c, 1, 29, 80
4, 34553, Note_on_c, 1, 29, 0
4, 34560, Note_on_c, 1, 66, 80
4, 34560, Note_on_c, 1, 54, 80
4, 34737, Note_on_c, 1, 66, 0
4, 34737, Note_on_c, 1, 54, 0
4, 34752, Note_on_c, 1, 63, 80
4, 34752, Note_on_c, 1, 51, 80
4, 34841, Note_on_c, 1, 63, 0
4, 34841, Note_on_c, 1, 51, 0
4, 34848, Note_on_c, 1, 60, 80
4, 34848, Note_on_c, 1, 48, 80
4, 34937, Note_on_c, 1, 60, 0
4, 34937, Note_on_c, 1, 48, 0
4, 34944, Note_on_c, 1, 57, 80
4, 34944, Note_on_c, 1, 45, 80
4, 35033, Note_on_c, 1, 57, 0
4, 35033, Note_on_c, 1, 45, 0
4, 35040, Note_on_c, 1, 54, 80
4, 35040, Note_on_c, 1, 42, 80
4, 35129, Note_on_c, 1, 54, 0
4, 35129, Note_on_c, 1, 42, 0
4, 35136, Note_on_c, 1, 50, 80
4, 35136, Note_on_c, 1, 38, 80
4, 35225, Note_on_c, 1, 50, 0
4, 35225, Note_on_c, 1, 38, 0
4, 35424, Note_on_c, 1, 55, 64
4, 35424, Note_on_c, 1, 43, 64
4, 35513, Note_on_c, 1, 55, 0
4, 35513, Note_on_c, 1, 43, 0
4, 35712, Note_on_c, 1, 68, 80
4, 35712, Note_on_c, 1, 56, 80
4, 35889, Note_on_c, 1, 68, 0
4, 35889, Note_on_c, 1, 56, 0
4, 35904, Note_on_c, 1, 65, 80
4, 35904, Note_on_c, 1, 53, 80
4, 35993, Note_on_c, 1, 65, 0
4, 35993, Note_on_c, 1, 53, 0
4, 36000, Note_on_c, 1, 62, 80
4, 36000, Note_on_c, 1, 50, 80
4, 36089, Note_on_c, 1, 62, 0
4, 36089, Note_on_c, 1, 50, 0
4, 36096, Note_on_c, 1, 59, 80
4, 36096, Note_on_c, 1, 47, 80
4, 36185, Note_on_c, 1, 59, 0
4, 36185, Note_on_c, 1, 47, 0
4, 36192, Note_on_c, 1, 56, 80
4, 36192, Note_on_c, 1, 44, 80
4, 36281, Note_on_c, 1, 56, 0
4, 36281, Note_on_c, 1, 44, 0
4, 36288, Note_on_c, 1, 52, 80
4, 36288, Note_on_c, 1, 40, 80
4, 36377, Note_on_c, 1, 52, 0
4, 36377, Note_on_c, 1, 40, 0
4, 36576, Note_on_c, 1, 57, 64
4, 36576, Note_on_c, 1, 45, 64
4, 36665, Note_on_c, 1, 57, 0
4, 36665, Note_on_c, 1, 45, 0
4, 36864, Note_on_c, 1, 49, 64
4, 36864, Note_on_c, 1, 37, 64
4, 37041, Note_on_c, 1, 49, 0
4, 37041, Note_on_c, 1, 37, 0
4, 37152, Note_on_c, 1, 50, 68
4, 37152, Note_on_c, 1, 38, 68
4, 37329, Note_on_c, 1, 50, 0
4, 37329, Note_on_c, 1, 38, 0
4, 37440, Note_on_c, 1, 56, 80
4, 37440, Note_on_c, 1, 44, 80
4, 37617, Note_on_c, 1, 56, 0
4, 37617, Note_on_c, 1, 44, 0
4, 37632, Note_on_c, 1, 56, 80
4, 37632, Note_on_c, 1, 44, 80
4, 37721, Note_on_c, 1, 56, 0
4, 37721, Note_on_c, 1, 44, 0
4, 37728, Note_on_c, 1, 57, 72
4, 37817, Note_on_c, 1, 57, 0
4, 37824, Note_on_c, 1, 45, 64
4, 37913, Note_on_c, 1, 45, 0
4, 38016, Note_on_c, 1, 50, 80
4, 38016, Note_on_c, 1, 38, 80
4, 38193, Note_on_c, 1, 50, 0
4, 38193, Note_on_c, 1, 38, 0
4, 38208, Note_on_c, 1, 48, 80
4, 38208, Note_on_c, 1, 36, 80
4, 38297, Note_on_c, 1, 48, 0
4, 38297, Note_on_c, 1, 36, 0
4, 38304, Note_on_c, 1, 46, 80
4, 38304, Note_on_c, 1, 34, 80
4, 38393, Note_on_c, 1, 46, 0
4, 38393, Note_on_c, 1, 34, 0
4, 38400, Note_on_c, 1, 41, 80
4, 38400, Note_on_c, 1, 29, 80
4, 38489, Note_on_c, 1, 41, 0
4, 38489, Note_on_c, 1, 29, 0
4, 38592, Note_on_c, 1, 43, 64
4, 38592, Note_on_c, 1, 31, 64
4, 38769, Note_on_c, 1, 43, 0
4, 38769, Note_on_c, 1, 31, 0
4, 38784, Note_on_c, 1, 45, 64
4, 38784, Note_on_c, 1, 33, 64
4, 38873, Note_on_c, 1, 45, 0
4, 38873, Note_on_c, 1, 33, 0
4, 38880, Note_on_c, 1, 50, 64
4, 38880, Note_on_c, 1, 38, 64
4, 39057, Note_on_c, 1, 50, 0
4, 39057, Note_on_c, 1, 38, 0
4, 39168, Note_on_c, 1, 50, 80
4, 39168, Note_on_c, 1, 38, 80
4, 39345, Note_on_c, 1, 50, 0
4, 39345, Note_on_c, 1, 38, 0
4, 39360, Note_on_c, 1, 48, 80
4, 39360, Note_on_c, 1, 36, 80
4, 39449, Note_on_c, 1, 48, 0
4, 39449, Note_on_c, 1, 36, 0
4, 39456, Note_on_c, 1, 46, 80
4, 39456, Note_on_c, 1, 34, 80
4, 39545, Note_on_c, 1, 46, 0
4, 39545, Note_on_c, 1, 34, 0
4, 39552, Note_on_c, 1, 45, 80
4, 39552, Note_on_c, 1, 33, 80
4, 39641, Note_on_c, 1, 45, 0
4, 39641, Note_on_c, 1, 33, 0
4, 39648, Note_on_c, 1, 43, 80
4, 39648, Note_on_c, 1, 31, 80
4, 39737, Note_on_c, 1, 43, 0
4, 39737, Note_on_c, 1, 31, 0
4, 39744, Note_on_c, 1, 41, 80
4, 39744, Note_on_c, 1, 29, 80
4, 39833, Note_on_c, 1, 41, 0
4, 39833, Note_on_c, 1, 29, 0
4, 40032, Note_on_c, 1, 69, 70
4, 40032, Note_on_c, 1, 67, 70
4, 40209, Note_on_c, 1, 69, 0
4, 40209, Note_on_c, 1, 67, 0
4, 40224, Note_on_c, 1, 69, 70
4, 40224, Note_on_c, 1, 65, 70
4, 40313, Note_on_c, 1, 69, 0
4, 40313, Note_on_c, 1, 65, 0
4, 40320, Note_on_c, 1, 69, 64
4, 40320, Note_on_c, 1, 67, 64
4, 40497, Note_on_c, 1, 69, 0
4, 40497, Note_on_c, 1, 67, 0
4, 40512, Note_on_c, 1, 69, 64
4, 40512, Note_on_c, 1, 65, 64
4, 40601, Note_on_c, 1, 69, 0
4, 40601, Note_on_c, 1, 65, 0
4, 40608, Note_on_c, 1, 57, 64
4, 40608, Note_on_c, 1, 45, 64
4, 40697, Note_on_c, 1, 57, 0
4, 40697, Note_on_c, 1, 45, 0
4, 40896, Note_on_c, 1, 57, 70
4, 40896, Note_on_c, 1, 45, 70
4, 40985, Note_on_c, 1, 57, 0
4, 40985, Note_on_c, 1, 45, 0
4, 41184, Note_on_c, 1, 57, 75
4, 41184, Note_on_c, 1, 45, 75
4, 41273, Note_on_c, 1, 57, 0
4, 41273, Note_on_c, 1, 45, 0
4, 41472, Note_on_c, 1, 50, 80
4, 41472, Note_on_c, 1, 38, 80
4, 41649, Note_on_c, 1, 50, 0
4, 41649, Note_on_c, 1, 38, 0
4, 41664, Note_on_c, 1, 48, 80
4, 41664, Note_on_c, 1, 36, 80
4, 41753, Note_on_c, 1, 48, 0
4, 41753, Note_on_c, 1, 36, 0
4, 41760, Note_on_c, 1, 46, 80
4, 41760, Note_on_c, 1, 34, 80
4, 41937, Note_on_c, 1, 46, 0
4, 41937, Note_on_c, 1, 34, 0
4, 41952, Note_on_c, 1, 41, 80
4, 41952, Note_on_c, 1, 29, 80
4, 42041, Note_on_c, 1, 41, 0
4, 42041, Note_on_c, 1, 29, 0
4, 42048, Note_on_c, 1, 43, 80
4, 42048, Note_on_c, 1, 31, 80
4, 42225, Note_on_c, 1, 43, 0
4, 42225, Note_on_c, 1, 31, 0
4, 42240, Note_on_c, 1, 45, 80
4, 42240, Note_on_c, 1, 33, 80
4, 42329, Note_on_c, 1, 45, 0
4, 42329, Note_on_c, 1, 33, 0
4, 42336, Note_on_c, 1, 50, 80
4, 42425, Note_on_c, 1, 50, 0
4, 42432, Note_on_c, 1, 45, 80
4, 42521, Note_on_c, 1, 45, 0
4, 42528, Note_on_c, 1, 38, 80
4, 42617, Note_on_c, 1, 38, 0
4, 42624, Note_on_c, 1, 66, 80
4, 42624, Note_on_c, 1, 54, 80
4, 42801, Note_on_c, 1, 66, 0
4, 42801, Note_on_c, 1, 54, 0
4, 42816, Note_on_c, 1, 63, 80
4, 42816, Note_on_c, 1, 51, 80
4, 42905, Note_on_c, 1, 63, 0
4, 42905, Note_on_c, 1, 51, 0
4, 42912, Note_on_c, 1, 60, 80
4, 42912, Note_on_c, 1, 48, 80
4, 43001, Note_on_c, 1, 60, 0
4, 43001, Note_on_c, 1, 48, 0
4, 43008, Note_on_c, 1, 57, 80
4, 43008, Note_on_c, 1, 45, 80
4, 43097, Note_on_c, 1, 57, 0
4, 43097, Note_on_c, 1, 45, 0
4, 43104, Note_on_c, 1, 54, 80
4, 43104, Note_on_c, 1, 42, 80
4, 43193, Note_on_c, 1, 54, 0
4, 43193, Note_on_c, 1, 42, 0
4, 43200, Note_on_c, 1, 50, 80
4, 43200, Note_on_c, 1, 38, 80
4, 43289, Note_on_c, 1, 50, 0
4, 43289, Note_on_c, 1, 38, 0
4, 43488, Note_on_c, 1, 55, 64
4, 43488, Note_on_c, 1, 43, 64
4, 43577, Note_on_c, 1, 55, 0
4, 43577, Note_on_c, 1, 43, 0
4, 43776, Note_on_c, 1, 68, 80
4, 43776, Note_on_c, 1, 56, 80
4, 43953, Note_on_c, 1, 68, 0
4, 43953, Note_on_c, 1, 56, 0
4, 43968, Note_on_c, 1, 65, 80
4, 43968, Note_on_c, 1, 53, 80
4, 44057, Note_on_c, 1, 65, 0
4, 44057, Note_on_c, 1, 53, 0
4, 44064, Note_on_c, 1, 62, 80
4, 44064, Note_on_c, 1, 50, 80
4, 44153, Note_on_c, 1, 62, 0
4, 44153, Note_on_c, 1, 50, 0
4, 44160, Note_on_c, 1, 59, 80
4, 44160, Note_on_c, 1, 47, 80
4, 44249, Note_on_c, 1, 59, 0
4, 44249, Note_on_c, 1, 47, 0
4, 44256, Note_on_c, 1, 56, 80
4, 44256, Note_on_c, 1, 44, 80
4, 44345, Note_on_c, 1, 56, 0
4, 44345, Note_on_c, 1, 44, 0
4, 44352, Note_on_c, 1, 52, 80
4, 44352, Note_on_c, 1, 40, 80
4, 44441, Note_on_c, 1, 52, 0
4, 44441, Note_on_c, 1, 40, 0
4, 44640, Note_on_c, 1, 57, 64
4, 44640, Note_on_c, 1, 45, 64
4, 44729, Note_on_c, 1, 57, 0
4, 44729, Note_on_c, 1, 45, 0
4, 44928, Note_on_c, 1, 49, 64
4, 44928, Note_on_c, 1, 37, 64
4, 45105, Note_on_c, 1, 49, 0
4, 45105, Note_on_c, 1, 37, 0
4, 45216, Note_on_c, 1, 50, 68
4, 45216, Note_on_c, 1, 38, 68
4, 45393, Note_on_c, 1, 50, 0
4, 45393, Note_on_c, 1, 38, 0
4, 45504, Note_on_c, 1, 56, 80
4, 45504, Note_on_c, 1, 44, 80
4, 45681, Note_on_c, 1, 56, 0
4, 45681, Note_on_c, 1, 44, 0
4, 45696, Note_on_c, 1, 56, 80
4, 45696, Note_on_c, 1, 44, 80
4, 45785, Note_on_c, 1, 56, 0
4, 45785, Note_on_c, 1, 44, 0
4, 45792, Note_on_c, 1, 57, 72
4, 45881, Note_on_c, 1, 57, 0
4, 45888, Note_on_c, 1, 45, 64
4, 45977, Note_on_c, 1, 45, 0
4, 46080, Note_on_c, 1, 50, 80
4, 46080, Note_on_c, 1, 38, 80
4, 46257, Note_on_c, 1, 50, 0
4, 46257, Note_on_c, 1, 38, 0
4, 46272, Note_on_c, 1, 48, 80
4, 46272, Note_on_c, 1, 36, 80
4, 46361, Note_on_c, 1, 48, 0
4, 46361, Note_on_c, 1, 36, 0
4, 46368, Note_on_c, 1, 46, 80
4, 46368, Note_on_c, 1, 34, 80
4, 46457, Note_on_c, 1, 46, 0
4, 46457, Note_on_c, 1, 34, 0
4, 46464, Note_on_c, 1, 41, 80
4, 46464, Note_on_c, 1, 29, 80
4, 46553, Note_on_c, 1, 41, 0
4, 46553, Note_on_c, 1, 29, 0
4, 46656, Note_on_c, 1, 43, 64
4, 46656, Note_on_c, 1, 31, 64
4, 46833, Note_on_c, 1, 43, 0
4, 46833, Note_on_c, 1, 31, 0
4, 46848, Note_on_c, 1, 45, 64
4, 46848, Note_on_c, 1, 33, 64
4, 46937, Note_on_c, 1, 45, 0
4, 46937, Note_on_c, 1, 33, 0
4, 46944, Note_on_c, 1, 50, 64
4, 46944, Note_on_c, 1, 38, 64
4, 47121, Note_on_c, 1, 50, 0
4, 47121, Note_on_c, 1, 38, 0
4, 47232, Note_on_c, 1, 50, 80
4, 47232, Note_on_c, 1, 38, 80
4, 47409, Note_on_c, 1, 50, 0
4, 47409, Note_on_c, 1, 38, 0
4, 47424, Note_on_c, 1, 48, 80
4, 47424, Note_on_c, 1, 36, 80
4, 47513, Note_on_c, 1, 48, 0
4, 47513, Note_on_c, 1, 36, 0
4, 47520, Note_on_c, 1, 46, 80
4, 47520, Note_on_c, 1, 34, 80
4, 47609, Note_on_c, 1, 46, 0
4, 47609, Note_on_c, 1, 34, 0
4, 47616, Note_on_c, 1, 45, 80
4, 47616, Note_on_c, 1, 33, 80
4, 47705, Note_on_c, 1, 45, 0
4, 47705, Note_on_c, 1, 33, 0
4, 47712, Note_on_c, 1, 43, 80
4, 47712, Note_on_c, 1, 31, 80
4, 47801, Note_on_c, 1, 43, 0
4, 47801, Note_on_c, 1, 31, 0
4, 47808, Note_on_c, 1, 41, 80
4, 47808, Note_on_c, 1, 29, 80
4, 47897, Note_on_c, 1, 41, 0
4, 47897, Note_on_c, 1, 29, 0
4, 48096, Note_on_c, 1, 69, 70
4, 48096, Note_on_c, 1, 67, 70
4, 48273, Note_on_c, 1, 69, 0
4, 48273, Note_on_c, 1, 67, 0
4, 48288, Note_on_c, 1, 69, 70
4, 48288, Note_on_c, 1, 65, 70
4, 48377, Note_on_c, 1, 69, 0
4, 48377, Note_on_c, 1, 65, 0
4, 48384, Note_on_c, 1, 69, 64
4, 48384, Note_on_c, 1, 67, 64
4, 48561, Note_on_c, 1, 69, 0
4, 48561, Note_on_c, 1, 67, 0
4, 48576, Note_on_c, 1, 69, 64
4, 48576, Note_on_c, 1, 65, 64
4, 48665, Note_on_c, 1, 69, 0
4, 48665, Note_on_c, 1, 65, 0
4, 48672, Note_on_c, 1, 57, 64
4, 48672, Note_on_c, 1, 45, 64
4, 48761, Note_on_c, 1, 57, 0
4, 48761, Note_on_c, 1, 45, 0
4, 48960, Note_on_c, 1, 57, 70
4, 48960, Note_on_c, 1, 45, 70
4, 49049, Note_on_c, 1, 57, 0
4, 49049, Note_on_c, 1, 45, 0
4, 49248, Note_on_c, 1, 57, 75
4, 49248, Note_on_c, 1, 45, 75
4, 49337, Note_on_c, 1, 57, 0
4, 49337, Note_on_c, 1, 45, 0
4, 49536, Note_on_c, 1, 50, 80
4, 49536, Note_on_c, 1, 38, 80
4, 49713, Note_on_c, 1, 50, 0
4, 49713, Note_on_c, 1, 38, 0
4, 49728, Note_on_c, 1, 48, 80
4, 49728, Note_on_c, 1, 36, 80
4, 49817, Note_on_c, 1, 48, 0
4, 49817, Note_on_c, 1, 36, 0
4, 49824, Note_on_c, 1, 46, 80
4, 49824, Note_on_c, 1, 34, 80
4, 50001, Note_on_c, 1, 46, 0
4, 50001, Note_on_c, 1, 34, 0
4, 50016, Note_on_c, 1, 41, 80
4, 50016, Note_on_c, 1, 29, 80
4, 50105, Note_on_c, 1, 41, 0
4, 50105, Note_on_c, 1, 29, 0
4, 50112, Note_on_c, 1, 43, 80
4, 50112, Note_on_c, 1, 31, 80
4, 50289, Note_on_c, 1, 43, 0
4, 50289, Note_on_c, 1, 31, 0
4, 50304, Note_on_c, 1, 45, 80
4, 50304, Note_on_c, 1, 33, 80
4, 50393, Note_on_c, 1, 45, 0
4, 50393, Note_on_c, 1, 33, 0
4, 50400, Note_on_c, 1, 50, 80
4, 50489, Note_on_c, 1, 50, 0
4, 50496, Note_on_c, 1, 45, 80
4, 50585, Note_on_c, 1, 45, 0
4, 50592, Note_on_c, 1, 38, 80
4, 50681, Note_on_c, 1, 38, 0
4, 50688, Note_on_c, 1, 50, 91
4, 50688, Note_on_c, 1, 38, 91
4, 50880, Note_on_c, 1, 50, 0
4, 50880, Note_on_c, 1, 38, 0
4, 50880, Note_on_c, 1, 52, 75
4, 50880, Note_on_c, 1, 40, 75
4, 50969, Note_on_c, 1, 52, 0
4, 50969, Note_on_c, 1, 40, 0
4, 50976, Note_on_c, 1, 54, 75
4, 50976, Note_on_c, 1, 42, 75
4, 51065, Note_on_c, 1, 54, 0
4, 51065, Note_on_c, 1, 42, 0
4, 51072, Note_on_c, 1, 50, 75
4, 51072, Note_on_c, 1, 38, 75
4, 51161, Note_on_c, 1, 50, 0
4, 51161, Note_on_c, 1, 38, 0
4, 51168, Note_on_c, 1, 52, 75
4, 51168, Note_on_c, 1, 40, 75
4, 51257, Note_on_c, 1, 52, 0
4, 51257, Note_on_c, 1, 40, 0
4, 51264, Note_on_c, 1, 54, 75
4, 51264, Note_on_c, 1, 42, 75
4, 51441, Note_on_c, 1, 54, 0
4, 51441, Note_on_c, 1, 42, 0
4, 51456, Note_on_c, 1, 50, 75
4, 51545, Note_on_c, 1, 50, 0
4, 51552, Note_on_c, 1, 52, 75
4, 51641, Note_on_c, 1, 52, 0
4, 51648, Note_on_c, 1, 45, 75
4, 51737, Note_on_c, 1, 45, 0
4, 51744, Note_on_c, 1, 50, 75
4, 51833, Note_on_c, 1, 50, 0
4, 51840, Note_on_c, 1, 43, 75
4, 51929, Note_on_c, 1, 43, 0
4, 51936, Note_on_c, 1, 55, 75
4, 52025, Note_on_c, 1, 55, 0
4, 52032, Note_on_c, 1, 54, 75
4, 52121, Note_on_c, 1, 54, 0
4, 52128, Note_on_c, 1, 52, 75
4, 52217, Note_on_c, 1, 52, 0
4, 52224, Note_on_c, 1, 45, 75
4, 52313, Note_on_c, 1, 45, 0
4, 52320, Note_on_c, 1, 50, 75
4, 52409, Note_on_c, 1, 50, 0
4, 52416, Note_on_c, 1, 43, 75
4, 52505, Note_on_c, 1, 43, 0
4, 52512, Note_on_c, 1, 55, 75
4, 52601, Note_on_c, 1, 55, 0
4, 52608, Note_on_c, 1, 55, 75
4, 52697, Note_on_c, 1, 55, 0
4, 52704, Note_on_c, 1, 57, 75
4, 52793, Note_on_c, 1, 57, 0
4, 52800, Note_on_c, 1, 52, 75
4, 52889, Note_on_c, 1, 52, 0
4, 52896, Note_on_c, 1, 45, 75
4, 52985, Note_on_c, 1, 45, 0
4, 52992, Note_on_c, 1, 57, 75
4, 53081, Note_on_c, 1, 57, 0
4, 53088, Note_on_c, 1, 61, 75
4, 53177, Note_on_c, 1, 61, 0
4, 53184, Note_on_c, 1, 62, 75
4, 53273, Note_on_c, 1, 62, 0
4, 53280, Note_on_c, 1, 61, 75
4, 53369, Note_on_c, 1, 61, 0
4, 53376, Note_on_c, 1, 59, 75
4, 53465, Note_on_c, 1, 59, 0
4, 53472, Note_on_c, 1, 57, 75
4, 53561, Note_on_c, 1, 57, 0
4, 53568, Note_on_c, 1, 62, 75
4, 53657, Note_on_c, 1, 62, 0
4, 53664, Note_on_c, 1, 59, 75
4, 53753, Note_on_c, 1, 59, 0
4, 53760, Note_on_c, 1, 62, 75
4, 53849, Note_on_c, 1, 62, 0
4, 53856, Note_on_c, 1, 64, 75
4, 53945, Note_on_c, 1, 64, 0
4, 53952, Note_on_c, 1, 62, 75
4, 54041, Note_on_c, 1, 62, 0
4, 54048, Note_on_c, 1, 61, 75
4, 54137, Note_on_c, 1, 61, 0
4, 54144, Note_on_c, 1, 56, 75
4, 54233, Note_on_c, 1, 56, 0
4, 54240, Note_on_c, 1, 59, 75
4, 54329, Note_on_c, 1, 59, 0
4, 54336, Note_on_c, 1, 61, 75
4, 54425, Note_on_c, 1, 61, 0
4, 54432, Note_on_c, 1, 56, 64
4, 54521, Note_on_c, 1, 56, 0
4, 54528, Note_on_c, 1, 59, 64
4, 54617, Note_on_c, 1, 59, 0
4, 54624, Note_on_c, 1, 61, 64
4, 54713, Note_on_c, 1, 61, 0
4, 54720, Note_on_c, 1, 62, 75
4, 54720, Note_on_c, 1, 50, 75
4, 54809, Note_on_c, 1, 62, 0
4, 54809, Note_on_c, 1, 50, 0
4, 55008, Note_on_c, 1, 49, 75
4, 55008, Note_on_c, 1, 37, 75
4, 55097, Note_on_c, 1, 49, 0
4, 55097, Note_on_c, 1, 37, 0
4, 55296, Note_on_c, 1, 50, 75
4, 55296, Note_on_c, 1, 38, 75
4, 55385, Note_on_c, 1, 50, 0
4, 55385, Note_on_c, 1, 38, 0
4, 55392, Note_on_c, 1, 52, 75
4, 55481, Note_on_c, 1, 52, 0
4, 55488, Note_on_c, 1, 40, 75
4, 55577, Note_on_c, 1, 40, 0
4, 55584, Note_on_c, 1, 45, 75
4, 55673, Note_on_c, 1, 45, 0
4, 55680, Note_on_c, 1, 40, 75
4, 55769, Note_on_c, 1, 40, 0
4, 55776, Note_on_c, 1, 33, 75
4, 55865, Note_on_c, 1, 33, 0
4, 55872, Note_on_c, 1, 50, 91
4, 55872, Note_on_c, 1, 38, 91
4, 56064, Note_on_c, 1, 50, 0
4, 56064, Note_on_c, 1, 38, 0
4, 56064, Note_on_c, 1, 52, 75
4, 56064, Note_on_c, 1, 40, 75
4, 56153, Note_on_c, 1, 52, 0
4, 56153, Note_on_c, 1, 40, 0
4, 56160, Note_on_c, 1, 54, 75
4, 56160, Note_on_c, 1, 42, 75
4, 56249, Note_on_c, 1, 54, 0
4, 56249, Note_on_c, 1, 42, 0
4, 56256, Note_on_c, 1, 50, 75
4, 56256, Note_on_c, 1, 38, 75
4, 56345, Note_on_c, 1, 50, 0
4, 56345, Note_on_c, 1, 38, 0
4, 56352, Note_on_c, 1, 52, 75
4, 56352, Note_on_c, 1, 40, 75
4, 56441, Note_on_c, 1, 52, 0
4, 56441, Note_on_c, 1, 40, 0
4, 56448, Note_on_c, 1, 54, 75
4, 56448, Note_on_c, 1, 42, 75
4, 56625, Note_on_c, 1, 54, 0
4, 56625, Note_on_c, 1, 42, 0
4, 56640, Note_on_c, 1, 50, 75
4, 56729, Note_on_c, 1, 50, 0
4, 56736, Note_on_c, 1, 52, 75
4, 56825, Note_on_c, 1, 52, 0
4, 56832, Note_on_c, 1, 45, 75
4, 56921, Note_on_c, 1, 45, 0
4, 56928, Note_on_c, 1, 50, 75
4, 57017, Note_on_c, 1, 50, 0
4, 57024, Note_on_c, 1, 43, 75
4, 57113, Note_on_c, 1, 43, 0
4, 57120, Note_on_c, 1, 55, 75
4, 57209, Note_on_c, 1, 55, 0
4, 57216, Note_on_c, 1, 54, 75
4, 57305, Note_on_c, 1, 54, 0
4, 57312, Note_on_c, 1, 52, 75
4, 57401, Note_on_c, 1, 52, 0
4, 57408, Note_on_c, 1, 45, 75
4, 57497, Note_on_c, 1, 45, 0
4, 57504, Note_on_c, 1, 50, 75
4, 57593, Note_on_c, 1, 50, 0
4, 57600, Note_on_c, 1, 43, 75
4, 57689, Note_on_c, 1, 43, 0
4, 57696, Note_on_c, 1, 55, 75
4, 57785, Note_on_c, 1, 55, 0
4, 57792, Note_on_c, 1, 55, 75
4, 57881, Note_on_c, 1, 55, 0
4, 57888, Note_on_c, 1, 57, 75
4, 57977, Note_on_c, 1, 57, 0
4, 57984, Note_on_c, 1, 52, 75
4, 58073, Note_on_c, 1, 52, 0
4, 58080, Note_on_c, 1, 45, 75
4, 58169, Note_on_c, 1, 45, 0
4, 58176, Note_on_c, 1, 57, 75
4, 58265, Note_on_c, 1, 57, 0
4, 58272, Note_on_c, 1, 61, 75
4, 58361, Note_on_c, 1, 61, 0
4, 58368, Note_on_c, 1, 62, 75
4, 58457, Note_on_c, 1, 62, 0
4, 58464, Note_on_c, 1, 61, 75
4, 58553, Note_on_c, 1, 61, 0
4, 58560, Note_on_c, 1, 59, 75
4, 58649, Note_on_c, 1, 59, 0
4, 58656, Note_on_c, 1, 57, 75
4, 58745, Note_on_c, 1, 57, 0
4, 58752, Note_on_c, 1, 62, 75
4, 58841, Note_on_c, 1, 62, 0
4, 58848, Note_on_c, 1, 59, 75
4, 58937, Note_on_c, 1, 59, 0
4, 58944, Note_on_c, 1, 62, 75
4, 59033, Note_on_c, 1, 62, 0
4, 59040, Note_on_c, 1, 64, 75
4, 59129, Note_on_c, 1, 64, 0
4, 59136, Note_on_c, 1, 62, 75
4, 59225, Note_on_c, 1, 62, 0
4, 59232, Note_on_c, 1, 61, 75
4, 59321, Note_on_c, 1, 61, 0
4, 59328, Note_on_c, 1, 56, 75
4, 59417, Note_on_c, 1, 56, 0
4, 59424, Note_on_c, 1, 59, 75
4, 59513, Note_on_c, 1, 59, 0
4, 59520, Note_on_c, 1, 61, 75
4, 59609, Note_on_c, 1, 61, 0
4, 59616, Note_on_c, 1, 56, 64
4, 59705, Note_on_c, 1, 56, 0
4, 59712, Note_on_c, 1, 59, 64
4, 59801, Note_on_c, 1, 59, 0
4, 59808, Note_on_c, 1, 61, 64
4, 59897, Note_on_c, 1, 61, 0
4, 59904, Note_on_c, 1, 62, 75
4, 59904, Note_on_c, 1, 50, 75
4, 59993, Note_on_c, 1, 62, 0
4, 59993, Note_on_c, 1, 50, 0
4, 60192, Note_on_c, 1, 49, 75
4, 60192, Note_on_c, 1, 37, 75
4, 60281, Note_on_c, 1, 49, 0
4, 60281, Note_on_c, 1, 37, 0
4, 60480, Note_on_c, 1, 50, 75
4, 60480, Note_on_c, 1, 38, 75
4, 60569, Note_on_c, 1, 50, 0
4, 60569, Note_on_c, 1, 38, 0
4, 60576, Note_on_c, 1, 52, 75
4, 60665, Note_on_c, 1, 52, 0
4, 60672, Note_on_c, 1, 40, 75
4, 60761, Note_on_c, 1, 40, 0
4, 60768, Note_on_c, 1, 45, 75
4, 60857, Note_on_c, 1, 45, 0
4, 60864, Note_on_c, 1, 40, 75
4, 60953, Note_on_c, 1, 40, 0
4, 60960, Note_on_c, 1, 33, 75
4, 61049, Note_on_c, 1, 33, 0
4, 61056, Note_on_c, 1, 45, 75
4, 61056, Note_on_c, 1, 33, 75
4, 61145, Note_on_c, 1, 45, 0
4, 61145, Note_on_c, 1, 33, 0
4, 61152, Note_on_c, 1, 45, 75
4, 61241, Note_on_c, 1, 45, 0
4, 61248, Note_on_c, 1, 47, 75
4, 61337, Note_on_c, 1, 47, 0
4, 61344, Note_on_c, 1, 49, 75
4, 61433, Note_on_c, 1, 49, 0
4, 61440, Note_on_c, 1, 52, 75
4, 61529, Note_on_c, 1, 52, 0
4, 61536, Note_on_c, 1, 54, 75
4, 61625, Note_on_c, 1, 54, 0
4, 61632, Note_on_c, 1, 45, 64
4, 61632, Note_on_c, 1, 33, 64
4, 61721, Note_on_c, 1, 45, 0
4, 61721, Note_on_c, 1, 33, 0
4, 61728, Note_on_c, 1, 45, 64
4, 61817, Note_on_c, 1, 45, 0
4, 61824, Note_on_c, 1, 47, 64
4, 61913, Note_on_c, 1, 47, 0
4, 61920, Note_on_c, 1, 49, 64
4, 62009, Note_on_c, 1, 49, 0
4, 62016, Note_on_c, 1, 52, 64
4, 62105, Note_on_c, 1, 52, 0
4, 62112, Note_on_c, 1, 54, 64
4, 62201, Note_on_c, 1, 54, 0
4, 62208, Note_on_c, 1, 43, 75
4, 62297, Note_on_c, 1, 43, 0
4, 62304, Note_on_c, 1, 55, 75
4, 62393, Note_on_c, 1, 55, 0
4, 62496, Note_on_c, 1, 42, 75
4, 62585, Note_on_c, 1, 42, 0
4, 62592, Note_on_c, 1, 54, 75
4, 62681, Note_on_c, 1, 54, 0
4, 62784, Note_on_c, 1, 55, 75
4, 62784, Note_on_c, 1, 43, 75
4, 62961, Note_on_c, 1, 55, 0
4, 62961, Note_on_c, 1, 43, 0
4, 62976, Note_on_c, 1, 56, 75
4, 63065, Note_on_c, 1, 56, 0
4, 63072, Note_on_c, 1, 57, 75
4, 63161, Note_on_c, 1, 57, 0
4, 63168, Note_on_c, 1, 52, 75
4, 63257, Note_on_c, 1, 52, 0
4, 63264, Note_on_c, 1, 45, 75
4, 63353, Note_on_c, 1, 45, 0
4, 63360, Note_on_c, 1, 62, 75
4, 63449, Note_on_c, 1, 62, 0
4, 63456, Note_on_c, 1, 66, 75
4, 63545, Note_on_c, 1, 66, 0
4, 63552, Note_on_c, 1, 67, 75
4, 63641, Note_on_c, 1, 67, 0
4, 63648, Note_on_c, 1, 66, 75
4, 63737, Note_on_c, 1, 66, 0
4, 63744, Note_on_c, 1, 64, 75
4, 63833, Note_on_c, 1, 64, 0
4, 63840, Note_on_c, 1, 62, 75
4, 63929, Note_on_c, 1, 62, 0
4, 63936, Note_on_c, 1, 55, 75
4, 64025, Note_on_c, 1, 55, 0
4, 64032, Note_on_c, 1, 52, 75
4, 64121, Note_on_c, 1, 52, 0
4, 64128, Note_on_c, 1, 55, 75
4, 64217, Note_on_c, 1, 55, 0
4, 64224, Note_on_c, 1, 57, 75
4, 64313, Note_on_c, 1, 57, 0
4, 64320, Note_on_c, 1, 55, 75
4, 64409, Note_on_c, 1, 55, 0
4, 64416, Note_on_c, 1, 54, 75
4, 64505, Note_on_c, 1, 54, 0
4, 64512, Note_on_c, 1, 49, 75
4, 64601, Note_on_c, 1, 49, 0
4, 64608, Note_on_c, 1, 52, 75
4, 64697, Note_on_c, 1, 52, 0
4, 64704, Note_on_c, 1, 54, 75
4, 64793, Note_on_c, 1, 54, 0
4, 64800, Note_on_c, 1, 49, 64
4, 64889, Note_on_c, 1, 49, 0
4, 64896, Note_on_c, 1, 52, 64
4, 64985, Note_on_c, 1, 52, 0
4, 64992, Note_on_c, 1, 54, 64
4, 65081, Note_on_c, 1, 54, 0
4, 65088, Note_on_c, 1, 55, 64
4, 65088, Note_on_c, 1, 43, 64
4, 65265, Note_on_c, 1, 55, 0
4, 65265, Note_on_c, 1, 43, 0
4, 65376, Note_on_c, 1, 54, 64
4, 65376, Note_on_c, 1, 42, 64
4, 65553, Note_on_c, 1, 54, 0
4, 65553, Note_on_c, 1, 42, 0
4, 65664, Note_on_c, 1, 55, 64
4, 65664, Note_on_c, 1, 43, 64
4, 65841, Note_on_c, 1, 55, 0
4, 65841, Note_on_c, 1, 43, 0
4, 65952, Note_on_c, 1, 54, 64
4, 65952, Note_on_c, 1, 42, 64
4, 66129, Note_on_c, 1, 54, 0
4, 66129, Note_on_c, 1, 42, 0
4, 66240, Note_on_c, 1, 55, 64
4, 66240, Note_on_c, 1, 43, 64
4, 66329, Note_on_c, 1, 55, 0
4, 66329, Note_on_c, 1, 43, 0
4, 66336, Note_on_c, 1, 57, 64
4, 66425, Note_on_c, 1, 57, 0
4, 66432, Note_on_c, 1, 45, 64
4, 66521, Note_on_c, 1, 45, 0
4, 66528, Note_on_c, 1, 50, 64
4, 66617, Note_on_c, 1, 50, 0
4, 66624, Note_on_c, 1, 45, 64
4, 66713, Note_on_c, 1, 45, 0
4, 66720, Note_on_c, 1, 38, 64
4, 66809, Note_on_c, 1, 38, 0
4, 66816, Note_on_c, 1, 45, 75
4, 66816, Note_on_c, 1, 33, 75
4, 66905, Note_on_c, 1, 45, 0
4, 66905, Note_on_c, 1, 33, 0
4, 66912, Note_on_c, 1, 45, 75
4, 67001, Note_on_c, 1, 45, 0
4, 67008, Note_on_c, 1, 47, 75
4, 67097, Note_on_c, 1, 47, 0
4, 67104, Note_on_c, 1, 49, 75
4, 67193, Note_on_c, 1, 49, 0
4, 67200, Note_on_c, 1, 52, 75
4, 67289, Note_on_c, 1, 52, 0
4, 67296, Note_on_c, 1, 54, 75
4, 67385, Note_on_c, 1, 54, 0
4, 67392, Note_on_c, 1, 45, 64
4, 67392, Note_on_c, 1, 33, 64
4, 67481, Note_on_c, 1, 45, 0
4, 67481, Note_on_c, 1, 33, 0
4, 67488, Note_on_c, 1, 45, 64
4, 67577, Note_on_c, 1, 45, 0
4, 67584, Note_on_c, 1, 47, 64
4, 67673, Note_on_c, 1, 47, 0
4, 67680, Note_on_c, 1, 49, 64
4, 67769, Note_on_c, 1, 49, 0
4, 67776, Note_on_c, 1, 52, 64
4, 67865, Note_on_c, 1, 52, 0
4, 67872, Note_on_c, 1, 54, 64
4, 67961, Note_on_c, 1, 54, 0
4, 67968, Note_on_c, 1, 43, 75
4, 68057, Note_on_c, 1, 43, 0
4, 68064, Note_on_c, 1, 55, 75
4, 68153, Note_on_c, 1, 55, 0
4, 68256, Note_on_c, 1, 42, 75
4, 68345, Note_on_c, 1, 42, 0
4, 68352, Note_on_c, 1, 54, 75
4, 68441, Note_on_c, 1, 54, 0
4, 68544, Note_on_c, 1, 55, 75
4, 68544, Note_on_c, 1, 43, 75
4, 68721, Note_on_c, 1, 55, 0
4, 68721, Note_on_c, 1, 43, 0
4, 68736, Note_on_c, 1, 56, 75
4, 68825, Note_on_c, 1, 56, 0
4, 68832, Note_on_c, 1, 57, 75
4, 68921, Note_on_c, 1, 57, 0
4, 68928, Note_on_c, 1, 52, 75
4, 69017, Note_on_c, 1, 52, 0
4, 69024, Note_on_c, 1, 45, 75
4, 69113, Note_on_c, 1, 45, 0
4, 69120, Note_on_c, 1, 62, 75
4, 69209, Note_on_c, 1, 62, 0
4, 69216, Note_on_c, 1, 66, 75
4, 69305, Note_on_c, 1, 66, 0
4, 69312, Note_on_c, 1, 67, 75
4, 69401, Note_on_c, 1, 67, 0
4, 69408, Note_on_c, 1, 66, 75
4, 69497, Note_on_c, 1, 66, 0
4, 69504, Note_on_c, 1, 64, 75
4, 69593, Note_on_c, 1, 64, 0
4, 69600, Note_on_c, 1, 62, 75
4, 69689, Note_on_c, 1, 62, 0
4, 69696, Note_on_c, 1, 55, 75
4, 69785, Note_on_c, 1, 55, 0
4, 69792, Note_on_c, 1, 52, 75
4, 69881, Note_on_c, 1, 52, 0
4, 69888, Note_on_c, 1, 55, 75
4, 69977, Note_on_c, 1, 55, 0
4, 69984, Note_on_c, 1, 57, 75
4, 70073, Note_on_c, 1, 57, 0
4, 70080, Note_on_c, 1, 55, 75
4, 70169, Note_on_c, 1, 55, 0
4, 70176, Note_on_c, 1, 54, 75
4, 70265, Note_on_c, 1, 54, 0
4, 70272, Note_on_c, 1, 49, 75
4, 70361, Note_on_c, 1, 49, 0
4, 70368, Note_on_c, 1, 52, 75
4, 70457, Note_on_c, 1, 52, 0
4, 70464, Note_on_c, 1, 54, 75
4, 70553, Note_on_c, 1, 54, 0
4, 70560, Note_on_c, 1, 49, 64
4, 70649, Note_on_c, 1, 49, 0
4, 70656, Note_on_c, 1, 52, 64
4, 70745, Note_on_c, 1, 52, 0
4, 70752, Note_on_c, 1, 54, 64
4, 70841, Note_on_c, 1, 54, 0
4, 70848, Note_on_c, 1, 55, 64
4, 70848, Note_on_c, 1, 43, 64
4, 71025, Note_on_c, 1, 55, 0
4, 71025, Note_on_c, 1, 43, 0
4, 71136, Note_on_c, 1, 54, 64
4, 71136, Note_on_c, 1, 42, 64
4, 71313, Note_on_c, 1, 54, 0
4, 71313, Note_on_c, 1, 42, 0
4, 71424, Note_on_c, 1, 55, 64
4, 71424, Note_on_c, 1, 43, 64
4, 71601, Note_on_c, 1, 55, 0
4, 71601, Note_on_c, 1, 43, 0
4, 71712, Note_on_c, 1, 54, 64
4, 71712, Note_on_c, 1, 42, 64
4, 71889, Note_on_c, 1, 54, 0
4, 71889, Note_on_c, 1, 42, 0
4, 72000, Note_on_c, 1, 55, 64
4, 72000, Note_on_c, 1, 43, 64
4, 72089, Note_on_c, 1, 55, 0
4, 72089, Note_on_c, 1, 43, 0
4, 72096, Note_on_c, 1, 57, 64
4, 72185, Note_on_c, 1, 57, 0
4, 72192, Note_on_c, 1, 45, 64
4, 72281, Note_on_c, 1, 45, 0
4, 72288, Note_on_c, 1, 50, 64
4, 72377, Note_on_c, 1, 50, 0
4, 72384, Note_on_c, 1, 45, 64
4, 72473, Note_on_c, 1, 45, 0
4, 72480, Note_on_c, 1, 38, 64
4, 72569, Note_on_c, 1, 38, 0
4, 72576, Note_on_c, 1, 38, 0
4, 72665, Note_on_c, 1, 38, 0
4, 72672, End_track
5, 0, Start_track
5, 0, Program_c, 1, 0
5, 0, Control_c, 1, 7, 127
5, 0, Control_c, 1, 10, 64
5, 10464, Note_on_c, 1, 45, 64
5, 10641, Note_on_c, 1, 45, 0
5, 10656, Note_on_c, 1, 45, 64
5, 10921, Note_on_c, 1, 45, 0
5, 11040, Note_on_c, 1, 45, 64
5, 11217, Note_on_c, 1, 45, 0
5, 11232, Note_on_c, 1, 45, 64
5, 11497, Note_on_c, 1, 45, 0
5, 16224, Note_on_c, 1, 45, 64
5, 16401, Note_on_c, 1, 45, 0
5, 16416, Note_on_c, 1, 45, 64
5, 16681, Note_on_c, 1, 45, 0
5, 16800, Note_on_c, 1, 45, 64
5, 16977, Note_on_c, 1, 45, 0
5, 16992, Note_on_c, 1, 45, 64
5, 17257, Note_on_c, 1, 45, 0
5, 61152, Note_on_c, 1, 45, 64
5, 61329, Note_on_c, 1, 45, 0
5, 61344, Note_on_c, 1, 45, 64
5, 61609, Note_on_c, 1, 45, 0
5, 61728, Note_on_c, 1, 45, 64
5, 61905, Note_on_c, 1, 45, 0
5, 61920, Note_on_c, 1, 45, 64
5, 62185, Note_on_c, 1, 45, 0
5, 66912, Note_on_c, 1, 45, 64
5, 67089, Note_on_c, 1, 45, 0
5, 67104, Note_on_c, 1, 45, 64
5, 67369, Note_on_c, 1, 45, 0
5, 67488, Note_on_c, 1, 45, 64
5, 67665, Note_on_c, 1, 45, 0
5, 67680, Note_on_c, 1, 45, 64
5, 67945, Note_on_c, 1, 45, 0
5, 72576, End_track
6, 0, Start_track
6, 0, Title_t, "Sonata I   Haydn  "
6, 0, End_track
0, 0, End_of_file
