0, 0, Header, 1, 6, 96
1, 0, Start_track
1, 0, Copyright_t, "Copyright  2000 <copyright holder>"
1, 0, Text_t, "Sonata I\015\012"
1, 0, Text_t, "Haydn\015\012"
1, 0, Sequencer_specific, 16, 68, 87, 77, 90, 86, 82, 83, 78, 32, 55, 46, 48, 46, 56, 46, 48
1, 0, Time_signature, 2, 1, 24, 8
1, 0, Tempo, 1090909
1, 0, Key_signature, -1, "major"
1, 14210, Key_signature, 2, "major"
1, 14210, Time_signature, 3, 2, 24, 8
1, 14306, Tempo, 300000
1, 62594, Tempo, 400000
1, 63074, Tempo, 300000
1, 64322, Tempo, 387096
1, 64802, Tempo, 300000
1, 65858, Tempo, 545454
1, 65954, Tempo, 300000
1, 67874, Tempo, 461538
1, 67970, Tempo, 300000
1, 69794, End_track
2, 0, Start_track
2, 0, Program_c, 0, 0
2, 0, Control_c, 0, 7, 127
2, 0, Control_c, 0, 10, 64
2, 0, Note_on_c, 0, 74, 77
2, 72, Note_on_c, 0, 74, 0
2, 72, Note_on_c, 0, 77, 61
2, 84, Note_on_c, 0, 77, 0
2, 84, Note_on_c, 0, 76, 61
2, 96, Note_on_c, 0, 76, 0
2, 96, Note_on_c, 0, 74, 61
2, 116, Note_on_c, 0, 74, 0
2, 144, Note_on_c, 0, 74, 61
2, 164, Note_on_c, 0, 74, 0
2, 240, Note_on_c, 0, 81, 61
2, 260, Note_on_c, 0, 81, 0
2, 336, Note_on_c, 0, 74, 61
2, 384, Note_on_c, 0, 74, 0
2, 384, Note_on_c, 0, 73, 77
2, 456, Note_on_c, 0, 73, 0
2, 456, Note_on_c, 0, 76, 61
2, 468, Note_on_c, 0, 76, 0
2, 468, Note_on_c, 0, 74, 61
2, 480, Note_on_c, 0, 74, 0
2, 480, Note_on_c, 0, 73, 61
2, 500, Note_on_c, 0, 73, 0
2, 528, Note_on_c, 0, 73, 61
2, 548, Note_on_c, 0, 73, 0
2, 624, Note_on_c, 0, 81, 61
2, 630, Note_on_c, 0, 81, 0
2, 630, Note_on_c, 0, 82, 77
2, 672, Note_on_c, 0, 82, 0
2, 720, Note_on_c, 0, 73, 61
2, 768, Note_on_c, 0, 73, 0
2, 768, Note_on_c, 0, 74, 77
2, 840, Note_on_c, 0, 74, 0
2, 840, Note_on_c, 0, 77, 61
2, 852, Note_on_c, 0, 77, 0
2, 852, Note_on_c, 0, 76, 61
2, 864, Note_on_c, 0, 76, 0
2, 864, Note_on_c, 0, 74, 61
2, 884, Note_on_c, 0, 74, 0
2, 912, Note_on_c, 0, 74, 61
2, 932, Note_on_c, 0, 74, 0
2, 1008, Note_on_c, 0, 85, 61
2, 1014, Note_on_c, 0, 85, 0
2, 1014, Note_on_c, 0, 86, 77
2, 1056, Note_on_c, 0, 86, 0
2, 1104, Note_on_c, 0, 77, 61
2, 1152, Note_on_c, 0, 77, 0
2, 1152, Note_on_c, 0, 76, 77
2, 1224, Note_on_c, 0, 76, 0
2, 1224, Note_on_c, 0, 79, 61
2, 1236, Note_on_c, 0, 79, 0
2, 1236, Note_on_c, 0, 77, 61
2, 1248, Note_on_c, 0, 77, 0
2, 1248, Note_on_c, 0, 76, 61
2, 1268, Note_on_c, 0, 76, 0
2, 1296, Note_on_c, 0, 82, 61
2, 1296, Note_on_c, 0, 79, 61
2, 1316, Note_on_c, 0, 82, 0
2, 1316, Note_on_c, 0, 79, 0
2, 1392, Note_on_c, 0, 81, 61
2, 1392, Note_on_c, 0, 77, 61
2, 1412, Note_on_c, 0, 81, 0
2, 1412, Note_on_c, 0, 77, 0
2, 1464, Note_on_c, 0, 73, 61
2, 1487, Note_on_c, 0, 73, 0
2, 1488, Note_on_c, 0, 76, 61
2, 1511, Note_on_c, 0, 76, 0
2, 1512, Note_on_c, 0, 79, 61
2, 1535, Note_on_c, 0, 79, 0
2, 1536, Note_on_c, 0, 79, 61
2, 1559, Note_on_c, 0, 79, 0
2, 1560, Note_on_c, 0, 77, 61
2, 1583, Note_on_c, 0, 77, 0
2, 1584, Note_on_c, 0, 76, 61
2, 1607, Note_on_c, 0, 76, 0
2, 1608, Note_on_c, 0, 74, 61
2, 1631, Note_on_c, 0, 74, 0
2, 1632, Note_on_c, 0, 74, 61
2, 1652, Note_on_c, 0, 74, 0
2, 1680, Note_on_c, 0, 74, 61
2, 1700, Note_on_c, 0, 74, 0
2, 1776, Note_on_c, 0, 85, 61
2, 1782, Note_on_c, 0, 85, 0
2, 1782, Note_on_c, 0, 86, 61
2, 1788, Note_on_c, 0, 86, 0
2, 1788, Note_on_c, 0, 88, 61
2, 1794, Note_on_c, 0, 88, 0
2, 1794, Note_on_c, 0, 86, 77
2, 1824, Note_on_c, 0, 86, 0
2, 1872, Note_on_c, 0, 77, 61
2, 1917, Note_on_c, 0, 77, 0
2, 1920, Note_on_c, 0, 76, 77
2, 1992, Note_on_c, 0, 76, 0
2, 1992, Note_on_c, 0, 79, 61
2, 2004, Note_on_c, 0, 79, 0
2, 2004, Note_on_c, 0, 77, 61
2, 2016, Note_on_c, 0, 77, 0
2, 2016, Note_on_c, 0, 76, 61
2, 2061, Note_on_c, 0, 76, 0
2, 2064, Note_on_c, 0, 82, 61
2, 2064, Note_on_c, 0, 79, 61
2, 2084, Note_on_c, 0, 82, 0
2, 2084, Note_on_c, 0, 79, 0
2, 2160, Note_on_c, 0, 81, 61
2, 2160, Note_on_c, 0, 77, 61
2, 2180, Note_on_c, 0, 81, 0
2, 2180, Note_on_c, 0, 77, 0
2, 2232, Note_on_c, 0, 73, 61
2, 2255, Note_on_c, 0, 73, 0
2, 2256, Note_on_c, 0, 76, 61
2, 2279, Note_on_c, 0, 76, 0
2, 2280, Note_on_c, 0, 79, 61
2, 2303, Note_on_c, 0, 79, 0
2, 2304, Note_on_c, 0, 79, 61
2, 2327, Note_on_c, 0, 79, 0
2, 2328, Note_on_c, 0, 77, 61
2, 2351, Note_on_c, 0, 77, 0
2, 2352, Note_on_c, 0, 76, 61
2, 2375, Note_on_c, 0, 76, 0
2, 2376, Note_on_c, 0, 77, 61
2, 2399, Note_on_c, 0, 77, 0
2, 2448, Note_on_c, 0, 86, 61
2, 2448, Note_on_c, 0, 77, 61
2, 2493, Note_on_c, 0, 86, 0
2, 2493, Note_on_c, 0, 77, 0
2, 2544, Note_on_c, 0, 86, 61
2, 2544, Note_on_c, 0, 77, 61
2, 2589, Note_on_c, 0, 86, 0
2, 2589, Note_on_c, 0, 77, 0
2, 2640, Note_on_c, 0, 77, 61
2, 2685, Note_on_c, 0, 77, 0
2, 2688, Note_on_c, 0, 79, 61
2, 2733, Note_on_c, 0, 79, 0
2, 2736, Note_on_c, 0, 77, 61
2, 2743, Note_on_c, 0, 77, 0
2, 2743, Note_on_c, 0, 79, 61
2, 2750, Note_on_c, 0, 79, 0
2, 2750, Note_on_c, 0, 77, 61
2, 2757, Note_on_c, 0, 77, 0
2, 2757, Note_on_c, 0, 79, 61
2, 2764, Note_on_c, 0, 79, 0
2, 2764, Note_on_c, 0, 77, 61
2, 2771, Note_on_c, 0, 77, 0
2, 2771, Note_on_c, 0, 76, 61
2, 2778, Note_on_c, 0, 76, 0
2, 2778, Note_on_c, 0, 77, 61
2, 2784, Note_on_c, 0, 77, 0
2, 2784, Note_on_c, 0, 76, 61
2, 2823, Note_on_c, 0, 76, 0
2, 3072, Note_on_c, 0, 72, 67
2, 3139, Note_on_c, 0, 72, 0
2, 3144, Note_on_c, 0, 76, 67
2, 3156, Note_on_c, 0, 76, 0
2, 3156, Note_on_c, 0, 77, 67
2, 3168, Note_on_c, 0, 77, 0
2, 3168, Note_on_c, 0, 72, 67
2, 3188, Note_on_c, 0, 72, 0
2, 3216, Note_on_c, 0, 72, 67
2, 3236, Note_on_c, 0, 72, 0
2, 3288, Note_on_c, 0, 84, 67
2, 3311, Note_on_c, 0, 84, 0
2, 3312, Note_on_c, 0, 82, 67
2, 3335, Note_on_c, 0, 82, 0
2, 3336, Note_on_c, 0, 81, 67
2, 3359, Note_on_c, 0, 81, 0
2, 3360, Note_on_c, 0, 79, 67
2, 3383, Note_on_c, 0, 79, 0
2, 3384, Note_on_c, 0, 77, 67
2, 3407, Note_on_c, 0, 77, 0
2, 3408, Note_on_c, 0, 76, 67
2, 3431, Note_on_c, 0, 76, 0
2, 3432, Note_on_c, 0, 77, 67
2, 3455, Note_on_c, 0, 77, 0
2, 3456, Note_on_c, 0, 76, 67
2, 3462, Note_on_c, 0, 76, 0
2, 3462, Note_on_c, 0, 77, 67
2, 3468, Note_on_c, 0, 77, 0
2, 3468, Note_on_c, 0, 79, 67
2, 3474, Note_on_c, 0, 79, 0
2, 3474, Note_on_c, 0, 77, 67
2, 3523, Note_on_c, 0, 77, 0
2, 3528, Note_on_c, 0, 76, 67
2, 3540, Note_on_c, 0, 76, 0
2, 3540, Note_on_c, 0, 77, 67
2, 3552, Note_on_c, 0, 77, 0
2, 3552, Note_on_c, 0, 76, 67
2, 3572, Note_on_c, 0, 76, 0
2, 3600, Note_on_c, 0, 76, 67
2, 3620, Note_on_c, 0, 76, 0
2, 3792, Note_on_c, 0, 67, 67
2, 3815, Note_on_c, 0, 67, 0
2, 3816, Note_on_c, 0, 69, 67
2, 3839, Note_on_c, 0, 69, 0
2, 3840, Note_on_c, 0, 72, 67
2, 3852, Note_on_c, 0, 72, 0
2, 3852, Note_on_c, 0, 70, 67
2, 3864, Note_on_c, 0, 70, 0
2, 3864, Note_on_c, 0, 69, 67
2, 3876, Note_on_c, 0, 69, 0
2, 3876, Note_on_c, 0, 67, 68
2, 3888, Note_on_c, 0, 67, 0
2, 3888, Note_on_c, 0, 77, 68
2, 3900, Note_on_c, 0, 77, 0
2, 3900, Note_on_c, 0, 76, 68
2, 3912, Note_on_c, 0, 76, 0
2, 3912, Note_on_c, 0, 74, 69
2, 3924, Note_on_c, 0, 74, 0
2, 3924, Note_on_c, 0, 72, 69
2, 3936, Note_on_c, 0, 72, 0
2, 3936, Note_on_c, 0, 81, 69
2, 3948, Note_on_c, 0, 81, 0
2, 3948, Note_on_c, 0, 79, 70
2, 3960, Note_on_c, 0, 79, 0
2, 3960, Note_on_c, 0, 77, 70
2, 3972, Note_on_c, 0, 77, 0
2, 3972, Note_on_c, 0, 76, 70
2, 3984, Note_on_c, 0, 76, 0
2, 3984, Note_on_c, 0, 84, 71
2, 3996, Note_on_c, 0, 84, 0
2, 3996, Note_on_c, 0, 82, 71
2, 4008, Note_on_c, 0, 82, 0
2, 4008, Note_on_c, 0, 81, 71
2, 4020, Note_on_c, 0, 81, 0
2, 4020, Note_on_c, 0, 79, 72
2, 4032, Note_on_c, 0, 79, 0
2, 4032, Note_on_c, 0, 88, 72
2, 4055, Note_on_c, 0, 88, 0
2, 4056, Note_on_c, 0, 86, 73
2, 4079, Note_on_c, 0, 86, 0
2, 4080, Note_on_c, 0, 84, 73
2, 4151, Note_on_c, 0, 84, 0
2, 4152, Note_on_c, 0, 82, 73
2, 4164, Note_on_c, 0, 82, 0
2, 4164, Note_on_c, 0, 84, 73
2, 4176, Note_on_c, 0, 84, 0
2, 4176, Note_on_c, 0, 88, 73
2, 4188, Note_on_c, 0, 88, 0
2, 4188, Note_on_c, 0, 86, 72
2, 4200, Note_on_c, 0, 86, 0
2, 4200, Note_on_c, 0, 84, 72
2, 4212, Note_on_c, 0, 84, 0
2, 4212, Note_on_c, 0, 82, 72
2, 4224, Note_on_c, 0, 82, 0
2, 4224, Note_on_c, 0, 82, 71
2, 4247, Note_on_c, 0, 82, 0
2, 4248, Note_on_c, 0, 81, 71
2, 4271, Note_on_c, 0, 81, 0
2, 4272, Note_on_c, 0, 80, 70
2, 4295, Note_on_c, 0, 80, 0
2, 4296, Note_on_c, 0, 81, 69
2, 4319, Note_on_c, 0, 81, 0
2, 4320, Note_on_c, 0, 80, 69
2, 4343, Note_on_c, 0, 80, 0
2, 4344, Note_on_c, 0, 81, 68
2, 4367, Note_on_c, 0, 81, 0
2, 4368, Note_on_c, 0, 80, 67
2, 4391, Note_on_c, 0, 80, 0
2, 4392, Note_on_c, 0, 81, 67
2, 4415, Note_on_c, 0, 81, 0
2, 4416, Note_on_c, 0, 81, 67
2, 4436, Note_on_c, 0, 81, 0
2, 4608, Note_on_c, 0, 73, 67
2, 4632, Note_on_c, 0, 73, 0
2, 4632, Note_on_c, 0, 74, 67
2, 4655, Note_on_c, 0, 74, 0
2, 4656, Note_on_c, 0, 74, 68
2, 4727, Note_on_c, 0, 74, 0
2, 4728, Note_on_c, 0, 75, 69
2, 4738, Note_on_c, 0, 75, 0
2, 4752, Note_on_c, 0, 76, 70
2, 4762, Note_on_c, 0, 76, 0
2, 4776, Note_on_c, 0, 77, 70
2, 4786, Note_on_c, 0, 77, 0
2, 4800, Note_on_c, 0, 78, 71
2, 4810, Note_on_c, 0, 78, 0
2, 4824, Note_on_c, 0, 79, 71
2, 4834, Note_on_c, 0, 79, 0
2, 4848, Note_on_c, 0, 80, 72
2, 4858, Note_on_c, 0, 80, 0
2, 4872, Note_on_c, 0, 81, 72
2, 4882, Note_on_c, 0, 81, 0
2, 4896, Note_on_c, 0, 84, 73
2, 4920, Note_on_c, 0, 84, 0
2, 4920, Note_on_c, 0, 82, 73
2, 4943, Note_on_c, 0, 82, 0
2, 4968, Note_on_c, 0, 74, 67
2, 4991, Note_on_c, 0, 74, 0
2, 4992, Note_on_c, 0, 74, 67
2, 5015, Note_on_c, 0, 74, 0
2, 5016, Note_on_c, 0, 72, 68
2, 5039, Note_on_c, 0, 72, 0
2, 5040, Note_on_c, 0, 71, 68
2, 5063, Note_on_c, 0, 71, 0
2, 5064, Note_on_c, 0, 72, 69
2, 5087, Note_on_c, 0, 72, 0
2, 5088, Note_on_c, 0, 72, 69
2, 5207, Note_on_c, 0, 72, 0
2, 5208, Note_on_c, 0, 84, 72
2, 5218, Note_on_c, 0, 84, 0
2, 5256, Note_on_c, 0, 81, 73
2, 5266, Note_on_c, 0, 81, 0
2, 5304, Note_on_c, 0, 77, 73
2, 5314, Note_on_c, 0, 77, 0
2, 5352, Note_on_c, 0, 72, 73
2, 5362, Note_on_c, 0, 72, 0
2, 5376, Note_on_c, 0, 72, 73
2, 5399, Note_on_c, 0, 72, 0
2, 5400, Note_on_c, 0, 70, 73
2, 5423, Note_on_c, 0, 70, 0
2, 5424, Note_on_c, 0, 69, 73
2, 5447, Note_on_c, 0, 69, 0
2, 5448, Note_on_c, 0, 70, 74
2, 5471, Note_on_c, 0, 70, 0
2, 5472, Note_on_c, 0, 79, 74
2, 5539, Note_on_c, 0, 79, 0
2, 5544, Note_on_c, 0, 70, 75
2, 5567, Note_on_c, 0, 70, 0
2, 5568, Note_on_c, 0, 69, 75
2, 5580, Note_on_c, 0, 69, 0
2, 5580, Note_on_c, 0, 72, 75
2, 5592, Note_on_c, 0, 72, 0
2, 5592, Note_on_c, 0, 70, 76
2, 5604, Note_on_c, 0, 70, 0
2, 5604, Note_on_c, 0, 69, 76
2, 5616, Note_on_c, 0, 69, 0
2, 5616, Note_on_c, 0, 70, 76
2, 5628, Note_on_c, 0, 70, 0
2, 5628, Note_on_c, 0, 72, 76
2, 5640, Note_on_c, 0, 72, 0
2, 5640, Note_on_c, 0, 74, 76
2, 5646, Note_on_c, 0, 74, 0
2, 5646, Note_on_c, 0, 76, 76
2, 5652, Note_on_c, 0, 76, 0
2, 5652, Note_on_c, 0, 77, 76
2, 5658, Note_on_c, 0, 77, 0
2, 5658, Note_on_c, 0, 79, 76
2, 5664, Note_on_c, 0, 79, 0
2, 5664, Note_on_c, 0, 81, 93
2, 5736, Note_on_c, 0, 81, 0
2, 5736, Note_on_c, 0, 69, 78
2, 5736, Note_on_c, 0, 65, 78
2, 5759, Note_on_c, 0, 69, 0
2, 5759, Note_on_c, 0, 65, 0
2, 5760, Note_on_c, 0, 72, 78
2, 5760, Note_on_c, 0, 69, 78
2, 5923, Note_on_c, 0, 72, 0
2, 5923, Note_on_c, 0, 69, 0
2, 5928, Note_on_c, 0, 70, 66
2, 5928, Note_on_c, 0, 67, 66
2, 5940, Note_on_c, 0, 70, 0
2, 5940, Note_on_c, 0, 67, 0
2, 5940, Note_on_c, 0, 69, 65
2, 5940, Note_on_c, 0, 65, 65
2, 5952, Note_on_c, 0, 69, 0
2, 5952, Note_on_c, 0, 65, 0
2, 5952, Note_on_c, 0, 67, 64
2, 5952, Note_on_c, 0, 64, 64
2, 5999, Note_on_c, 0, 67, 0
2, 5999, Note_on_c, 0, 64, 0
2, 6144, Note_on_c, 0, 81, 73
2, 6168, Note_on_c, 0, 81, 0
2, 6168, Note_on_c, 0, 79, 73
2, 6191, Note_on_c, 0, 79, 0
2, 6192, Note_on_c, 0, 79, 73
2, 6237, Note_on_c, 0, 79, 0
2, 6288, Note_on_c, 0, 77, 73
2, 6300, Note_on_c, 0, 77, 0
2, 6300, Note_on_c, 0, 76, 73
2, 6312, Note_on_c, 0, 76, 0
2, 6312, Note_on_c, 0, 74, 73
2, 6324, Note_on_c, 0, 74, 0
2, 6324, Note_on_c, 0, 72, 73
2, 6336, Note_on_c, 0, 72, 0
2, 6336, Note_on_c, 0, 84, 73
2, 6356, Note_on_c, 0, 84, 0
2, 6384, Note_on_c, 0, 84, 73
2, 6404, Note_on_c, 0, 84, 0
2, 6456, Note_on_c, 0, 86, 73
2, 6468, Note_on_c, 0, 86, 0
2, 6468, Note_on_c, 0, 84, 73
2, 6480, Note_on_c, 0, 84, 0
2, 6480, Note_on_c, 0, 82, 73
2, 6492, Note_on_c, 0, 82, 0
2, 6492, Note_on_c, 0, 81, 73
2, 6504, Note_on_c, 0, 81, 0
2, 6504, Note_on_c, 0, 79, 73
2, 6516, Note_on_c, 0, 79, 0
2, 6516, Note_on_c, 0, 77, 73
2, 6528, Note_on_c, 0, 77, 0
2, 6528, Note_on_c, 0, 76, 73
2, 6540, Note_on_c, 0, 76, 0
2, 6540, Note_on_c, 0, 77, 73
2, 6552, Note_on_c, 0, 77, 0
2, 6552, Note_on_c, 0, 79, 73
2, 6564, Note_on_c, 0, 79, 0
2, 6564, Note_on_c, 0, 81, 73
2, 6576, Note_on_c, 0, 81, 0
2, 6576, Note_on_c, 0, 79, 73
2, 6596, Note_on_c, 0, 79, 0
2, 6672, Note_on_c, 0, 77, 73
2, 6684, Note_on_c, 0, 77, 0
2, 6684, Note_on_c, 0, 76, 73
2, 6696, Note_on_c, 0, 76, 0
2, 6696, Note_on_c, 0, 74, 73
2, 6708, Note_on_c, 0, 74, 0
2, 6708, Note_on_c, 0, 72, 73
2, 6720, Note_on_c, 0, 72, 0
2, 6720, Note_on_c, 0, 84, 73
2, 6740, Note_on_c, 0, 84, 0
2, 6768, Note_on_c, 0, 84, 73
2, 6791, Note_on_c, 0, 84, 0
2, 6792, Note_on_c, 0, 86, 73
2, 6804, Note_on_c, 0, 86, 0
2, 6804, Note_on_c, 0, 88, 73
2, 6816, Note_on_c, 0, 88, 0
2, 6816, Note_on_c, 0, 89, 73
2, 6828, Note_on_c, 0, 89, 0
2, 6828, Note_on_c, 0, 88, 73
2, 6840, Note_on_c, 0, 88, 0
2, 6840, Note_on_c, 0, 86, 73
2, 6852, Note_on_c, 0, 86, 0
2, 6852, Note_on_c, 0, 84, 73
2, 6864, Note_on_c, 0, 84, 0
2, 6864, Note_on_c, 0, 82, 73
2, 6876, Note_on_c, 0, 82, 0
2, 6876, Note_on_c, 0, 81, 73
2, 6888, Note_on_c, 0, 81, 0
2, 6888, Note_on_c, 0, 79, 73
2, 6900, Note_on_c, 0, 79, 0
2, 6900, Note_on_c, 0, 77, 73
2, 6912, Note_on_c, 0, 77, 0
2, 6912, Note_on_c, 0, 76, 73
2, 6924, Note_on_c, 0, 76, 0
2, 6924, Note_on_c, 0, 77, 73
2, 6936, Note_on_c, 0, 77, 0
2, 6936, Note_on_c, 0, 79, 73
2, 6948, Note_on_c, 0, 79, 0
2, 6948, Note_on_c, 0, 81, 73
2, 6960, Note_on_c, 0, 81, 0
2, 6960, Note_on_c, 0, 79, 73
2, 6980, Note_on_c, 0, 79, 0
2, 7056, Note_on_c, 0, 77, 73
2, 7068, Note_on_c, 0, 77, 0
2, 7068, Note_on_c, 0, 76, 73
2, 7080, Note_on_c, 0, 76, 0
2, 7080, Note_on_c, 0, 74, 73
2, 7092, Note_on_c, 0, 74, 0
2, 7092, Note_on_c, 0, 72, 73
2, 7104, Note_on_c, 0, 72, 0
2, 7104, Note_on_c, 0, 84, 73
2, 7124, Note_on_c, 0, 84, 0
2, 7152, Note_on_c, 0, 84, 73
2, 7215, Note_on_c, 0, 84, 0
2, 7216, Note_on_c, 0, 82, 73
2, 7231, Note_on_c, 0, 82, 0
2, 7232, Note_on_c, 0, 81, 73
2, 7247, Note_on_c, 0, 81, 0
2, 7248, Note_on_c, 0, 79, 73
2, 7263, Note_on_c, 0, 79, 0
2, 7264, Note_on_c, 0, 77, 73
2, 7279, Note_on_c, 0, 77, 0
2, 7280, Note_on_c, 0, 75, 73
2, 7295, Note_on_c, 0, 75, 0
2, 7296, Note_on_c, 0, 75, 73
2, 7302, Note_on_c, 0, 75, 0
2, 7302, Note_on_c, 0, 74, 73
2, 7319, Note_on_c, 0, 74, 0
2, 7320, Note_on_c, 0, 73, 73
2, 7343, Note_on_c, 0, 73, 0
2, 7344, Note_on_c, 0, 74, 73
2, 7367, Note_on_c, 0, 74, 0
2, 7368, Note_on_c, 0, 78, 73
2, 7391, Note_on_c, 0, 78, 0
2, 7392, Note_on_c, 0, 79, 73
2, 7415, Note_on_c, 0, 79, 0
2, 7416, Note_on_c, 0, 81, 73
2, 7439, Note_on_c, 0, 81, 0
2, 7440, Note_on_c, 0, 82, 73
2, 7446, Note_on_c, 0, 82, 0
2, 7446, Note_on_c, 0, 81, 73
2, 7452, Note_on_c, 0, 81, 0
2, 7452, Note_on_c, 0, 82, 73
2, 7463, Note_on_c, 0, 82, 0
2, 7464, Note_on_c, 0, 84, 73
2, 7487, Note_on_c, 0, 84, 0
2, 7488, Note_on_c, 0, 85, 73
2, 7511, Note_on_c, 0, 85, 0
2, 7512, Note_on_c, 0, 87, 73
2, 7518, Note_on_c, 0, 87, 0
2, 7518, Note_on_c, 0, 86, 73
2, 7535, Note_on_c, 0, 86, 0
2, 7536, Note_on_c, 0, 84, 73
2, 7559, Note_on_c, 0, 84, 0
2, 7560, Note_on_c, 0, 82, 73
2, 7583, Note_on_c, 0, 82, 0
2, 7584, Note_on_c, 0, 81, 73
2, 7607, Note_on_c, 0, 81, 0
2, 7608, Note_on_c, 0, 79, 73
2, 7631, Note_on_c, 0, 79, 0
2, 7632, Note_on_c, 0, 82, 73
2, 7655, Note_on_c, 0, 82, 0
2, 7656, Note_on_c, 0, 79, 73
2, 7679, Note_on_c, 0, 79, 0
2, 7680, Note_on_c, 0, 89, 78
2, 7761, Note_on_c, 0, 89, 0
2, 7776, Note_on_c, 0, 89, 78
2, 7782, Note_on_c, 0, 89, 0
2, 7782, Note_on_c, 0, 88, 78
2, 7788, Note_on_c, 0, 88, 0
2, 7788, Note_on_c, 0, 86, 78
2, 7794, Note_on_c, 0, 86, 0
2, 7794, Note_on_c, 0, 84, 78
2, 7800, Note_on_c, 0, 84, 0
2, 7800, Note_on_c, 0, 82, 78
2, 7806, Note_on_c, 0, 82, 0
2, 7806, Note_on_c, 0, 81, 78
2, 7812, Note_on_c, 0, 81, 0
2, 7812, Note_on_c, 0, 79, 78
2, 7818, Note_on_c, 0, 79, 0
2, 7818, Note_on_c, 0, 77, 78
2, 7824, Note_on_c, 0, 77, 0
2, 7824, Note_on_c, 0, 76, 78
2, 7830, Note_on_c, 0, 76, 0
2, 7830, Note_on_c, 0, 74, 78
2, 7836, Note_on_c, 0, 74, 0
2, 7836, Note_on_c, 0, 72, 78
2, 7842, Note_on_c, 0, 72, 0
2, 7842, Note_on_c, 0, 71, 78
2, 7848, Note_on_c, 0, 71, 0
2, 7848, Note_on_c, 0, 72, 78
2, 7854, Note_on_c, 0, 72, 0
2, 7854, Note_on_c, 0, 74, 78
2, 7860, Note_on_c, 0, 74, 0
2, 7860, Note_on_c, 0, 76, 78
2, 7866, Note_on_c, 0, 76, 0
2, 7866, Note_on_c, 0, 77, 78
2, 7872, Note_on_c, 0, 77, 0
2, 7872, Note_on_c, 0, 79, 78
2, 7879, Note_on_c, 0, 79, 0
2, 7879, Note_on_c, 0, 81, 78
2, 7886, Note_on_c, 0, 81, 0
2, 7886, Note_on_c, 0, 79, 78
2, 7893, Note_on_c, 0, 79, 0
2, 7893, Note_on_c, 0, 81, 78
2, 7900, Note_on_c, 0, 81, 0
2, 7900, Note_on_c, 0, 79, 78
2, 7907, Note_on_c, 0, 79, 0
2, 7907, Note_on_c, 0, 81, 78
2, 7914, Note_on_c, 0, 81, 0
2, 7914, Note_on_c, 0, 79, 78
2, 7921, Note_on_c, 0, 79, 0
2, 7921, Note_on_c, 0, 81, 78
2, 7928, Note_on_c, 0, 81, 0
2, 7928, Note_on_c, 0, 79, 78
2, 7935, Note_on_c, 0, 79, 0
2, 7935, Note_on_c, 0, 81, 78
2, 7942, Note_on_c, 0, 81, 0
2, 7942, Note_on_c, 0, 79, 78
2, 7949, Note_on_c, 0, 79, 0
2, 7949, Note_on_c, 0, 81, 78
2, 7956, Note_on_c, 0, 81, 0
2, 7956, Note_on_c, 0, 79, 78
2, 7963, Note_on_c, 0, 79, 0
2, 7963, Note_on_c, 0, 81, 78
2, 7970, Note_on_c, 0, 81, 0
2, 7970, Note_on_c, 0, 79, 78
2, 7977, Note_on_c, 0, 79, 0
2, 7977, Note_on_c, 0, 81, 78
2, 7984, Note_on_c, 0, 81, 0
2, 7984, Note_on_c, 0, 79, 78
2, 7991, Note_on_c, 0, 79, 0
2, 7991, Note_on_c, 0, 81, 78
2, 7998, Note_on_c, 0, 81, 0
2, 7998, Note_on_c, 0, 79, 78
2, 8004, Note_on_c, 0, 79, 0
2, 8004, Note_on_c, 0, 81, 78
2, 8010, Note_on_c, 0, 81, 0
2, 8010, Note_on_c, 0, 79, 78
2, 8016, Note_on_c, 0, 79, 0
2, 8016, Note_on_c, 0, 81, 78
2, 8022, Note_on_c, 0, 81, 0
2, 8022, Note_on_c, 0, 79, 78
2, 8028, Note_on_c, 0, 79, 0
2, 8028, Note_on_c, 0, 81, 78
2, 8034, Note_on_c, 0, 81, 0
2, 8034, Note_on_c, 0, 79, 78
2, 8040, Note_on_c, 0, 79, 0
2, 8040, Note_on_c, 0, 77, 78
2, 8052, Note_on_c, 0, 77, 0
2, 8053, Note_on_c, 0, 79, 78
2, 8065, Note_on_c, 0, 79, 0
2, 8066, Note_on_c, 0, 77, 78
2, 8206, Note_on_c, 0, 77, 0
2, 8258, Note_on_c, 0, 72, 78
2, 8258, Note_on_c, 0, 63, 78
2, 8391, Note_on_c, 0, 72, 0
2, 8391, Note_on_c, 0, 63, 0
2, 8402, Note_on_c, 0, 63, 78
2, 8402, Note_on_c, 0, 60, 78
2, 8447, Note_on_c, 0, 63, 0
2, 8447, Note_on_c, 0, 60, 0
2, 8450, Note_on_c, 0, 62, 78
2, 8450, Note_on_c, 0, 58, 78
2, 8495, Note_on_c, 0, 62, 0
2, 8495, Note_on_c, 0, 58, 0
2, 8498, Note_on_c, 0, 74, 78
2, 8498, Note_on_c, 0, 70, 78
2, 8543, Note_on_c, 0, 74, 0
2, 8543, Note_on_c, 0, 70, 0
2, 8594, Note_on_c, 0, 70, 78
2, 8594, Note_on_c, 0, 67, 78
2, 8639, Note_on_c, 0, 70, 0
2, 8639, Note_on_c, 0, 67, 0
2, 8642, Note_on_c, 0, 69, 78
2, 8642, Note_on_c, 0, 65, 78
2, 8687, Note_on_c, 0, 69, 0
2, 8687, Note_on_c, 0, 65, 0
2, 8690, Note_on_c, 0, 72, 78
2, 8690, Note_on_c, 0, 69, 78
2, 8735, Note_on_c, 0, 72, 0
2, 8735, Note_on_c, 0, 69, 0
2, 8786, Note_on_c, 0, 64, 78
2, 8786, Note_on_c, 0, 58, 78
2, 8831, Note_on_c, 0, 64, 0
2, 8831, Note_on_c, 0, 58, 0
2, 8834, Note_on_c, 0, 65, 78
2, 8834, Note_on_c, 0, 57, 78
2, 8879, Note_on_c, 0, 65, 0
2, 8879, Note_on_c, 0, 57, 0
2, 8882, Note_on_c, 0, 72, 55
2, 8882, Note_on_c, 0, 69, 55
2, 8902, Note_on_c, 0, 72, 0
2, 8902, Note_on_c, 0, 69, 0
2, 8930, Note_on_c, 0, 69, 55
2, 8930, Note_on_c, 0, 65, 55
2, 8950, Note_on_c, 0, 69, 0
2, 8950, Note_on_c, 0, 65, 0
2, 9218, Note_on_c, 0, 74, 61
2, 9285, Note_on_c, 0, 74, 0
2, 9290, Note_on_c, 0, 77, 61
2, 9302, Note_on_c, 0, 77, 0
2, 9302, Note_on_c, 0, 76, 61
2, 9314, Note_on_c, 0, 76, 0
2, 9314, Note_on_c, 0, 74, 61
2, 9334, Note_on_c, 0, 74, 0
2, 9362, Note_on_c, 0, 74, 61
2, 9382, Note_on_c, 0, 74, 0
2, 9434, Note_on_c, 0, 81, 61
2, 9457, Note_on_c, 0, 81, 0
2, 9458, Note_on_c, 0, 79, 61
2, 9481, Note_on_c, 0, 79, 0
2, 9482, Note_on_c, 0, 77, 61
2, 9505, Note_on_c, 0, 77, 0
2, 9506, Note_on_c, 0, 76, 61
2, 9529, Note_on_c, 0, 76, 0
2, 9530, Note_on_c, 0, 74, 61
2, 9553, Note_on_c, 0, 74, 0
2, 9554, Note_on_c, 0, 73, 61
2, 9577, Note_on_c, 0, 73, 0
2, 9578, Note_on_c, 0, 74, 61
2, 9601, Note_on_c, 0, 74, 0
2, 9602, Note_on_c, 0, 72, 67
2, 9669, Note_on_c, 0, 72, 0
2, 9674, Note_on_c, 0, 75, 67
2, 9686, Note_on_c, 0, 75, 0
2, 9686, Note_on_c, 0, 74, 67
2, 9698, Note_on_c, 0, 74, 0
2, 9698, Note_on_c, 0, 72, 67
2, 9708, Note_on_c, 0, 72, 0
2, 9722, Note_on_c, 0, 84, 67
2, 9767, Note_on_c, 0, 84, 0
2, 9770, Note_on_c, 0, 82, 67
2, 9815, Note_on_c, 0, 82, 0
2, 9818, Note_on_c, 0, 81, 67
2, 9863, Note_on_c, 0, 81, 0
2, 9866, Note_on_c, 0, 79, 67
2, 9911, Note_on_c, 0, 79, 0
2, 9914, Note_on_c, 0, 78, 67
2, 9959, Note_on_c, 0, 78, 0
2, 9962, Note_on_c, 0, 81, 67
2, 9985, Note_on_c, 0, 81, 0
2, 9986, Note_on_c, 0, 79, 83
2, 10058, Note_on_c, 0, 79, 0
2, 10058, Note_on_c, 0, 82, 67
2, 10070, Note_on_c, 0, 82, 0
2, 10070, Note_on_c, 0, 81, 67
2, 10082, Note_on_c, 0, 81, 0
2, 10082, Note_on_c, 0, 79, 67
2, 10102, Note_on_c, 0, 79, 0
2, 10130, Note_on_c, 0, 79, 67
2, 10150, Note_on_c, 0, 79, 0
2, 10202, Note_on_c, 0, 86, 67
2, 10225, Note_on_c, 0, 86, 0
2, 10226, Note_on_c, 0, 84, 67
2, 10249, Note_on_c, 0, 84, 0
2, 10250, Note_on_c, 0, 82, 67
2, 10273, Note_on_c, 0, 82, 0
2, 10274, Note_on_c, 0, 81, 67
2, 10297, Note_on_c, 0, 81, 0
2, 10298, Note_on_c, 0, 79, 67
2, 10321, Note_on_c, 0, 79, 0
2, 10322, Note_on_c, 0, 84, 67
2, 10334, Note_on_c, 0, 84, 0
2, 10334, Note_on_c, 0, 82, 67
2, 10346, Note_on_c, 0, 82, 0
2, 10346, Note_on_c, 0, 81, 67
2, 10358, Note_on_c, 0, 81, 0
2, 10358, Note_on_c, 0, 79, 67
2, 10370, Note_on_c, 0, 79, 0
2, 10370, Note_on_c, 0, 77, 73
2, 10415, Note_on_c, 0, 77, 0
2, 10418, Note_on_c, 0, 76, 73
2, 10430, Note_on_c, 0, 76, 0
2, 10430, Note_on_c, 0, 77, 73
2, 10442, Note_on_c, 0, 77, 0
2, 10442, Note_on_c, 0, 79, 73
2, 10454, Note_on_c, 0, 79, 0
2, 10454, Note_on_c, 0, 77, 73
2, 10466, Note_on_c, 0, 77, 0
2, 10466, Note_on_c, 0, 76, 73
2, 10486, Note_on_c, 0, 76, 0
2, 10538, Note_on_c, 0, 72, 73
2, 10550, Note_on_c, 0, 72, 0
2, 10550, Note_on_c, 0, 74, 73
2, 10562, Note_on_c, 0, 74, 0
2, 10562, Note_on_c, 0, 77, 73
2, 10574, Note_on_c, 0, 77, 0
2, 10574, Note_on_c, 0, 76, 73
2, 10586, Note_on_c, 0, 76, 0
2, 10586, Note_on_c, 0, 74, 74
2, 10598, Note_on_c, 0, 74, 0
2, 10598, Note_on_c, 0, 72, 75
2, 10610, Note_on_c, 0, 72, 0
2, 10610, Note_on_c, 0, 81, 75
2, 10622, Note_on_c, 0, 81, 0
2, 10622, Note_on_c, 0, 79, 76
2, 10634, Note_on_c, 0, 79, 0
2, 10634, Note_on_c, 0, 77, 77
2, 10646, Note_on_c, 0, 77, 0
2, 10646, Note_on_c, 0, 76, 78
2, 10658, Note_on_c, 0, 76, 0
2, 10658, Note_on_c, 0, 88, 77
2, 10670, Note_on_c, 0, 88, 0
2, 10670, Note_on_c, 0, 86, 76
2, 10682, Note_on_c, 0, 86, 0
2, 10682, Note_on_c, 0, 84, 76
2, 10694, Note_on_c, 0, 84, 0
2, 10694, Note_on_c, 0, 82, 75
2, 10706, Note_on_c, 0, 82, 0
2, 10706, Note_on_c, 0, 81, 75
2, 10718, Note_on_c, 0, 81, 0
2, 10718, Note_on_c, 0, 79, 74
2, 10730, Note_on_c, 0, 79, 0
2, 10730, Note_on_c, 0, 77, 74
2, 10742, Note_on_c, 0, 77, 0
2, 10742, Note_on_c, 0, 76, 73
2, 10754, Note_on_c, 0, 76, 0
2, 10754, Note_on_c, 0, 77, 89
2, 10826, Note_on_c, 0, 77, 0
2, 10826, Note_on_c, 0, 81, 73
2, 10838, Note_on_c, 0, 81, 0
2, 10838, Note_on_c, 0, 79, 73
2, 10850, Note_on_c, 0, 79, 0
2, 10850, Note_on_c, 0, 77, 73
2, 10860, Note_on_c, 0, 77, 0
2, 10874, Note_on_c, 0, 84, 73
2, 10919, Note_on_c, 0, 84, 0
2, 10922, Note_on_c, 0, 82, 73
2, 10967, Note_on_c, 0, 82, 0
2, 10970, Note_on_c, 0, 81, 73
2, 11015, Note_on_c, 0, 81, 0
2, 11018, Note_on_c, 0, 79, 73
2, 11063, Note_on_c, 0, 79, 0
2, 11066, Note_on_c, 0, 77, 73
2, 11111, Note_on_c, 0, 77, 0
2, 11114, Note_on_c, 0, 76, 73
2, 11137, Note_on_c, 0, 76, 0
2, 11138, Note_on_c, 0, 74, 73
2, 11205, Note_on_c, 0, 74, 0
2, 11210, Note_on_c, 0, 77, 73
2, 11222, Note_on_c, 0, 77, 0
2, 11222, Note_on_c, 0, 76, 73
2, 11234, Note_on_c, 0, 76, 0
2, 11234, Note_on_c, 0, 74, 73
2, 11257, Note_on_c, 0, 74, 0
2, 11258, Note_on_c, 0, 75, 73
2, 11268, Note_on_c, 0, 75, 0
2, 11282, Note_on_c, 0, 76, 74
2, 11292, Note_on_c, 0, 76, 0
2, 11306, Note_on_c, 0, 77, 75
2, 11316, Note_on_c, 0, 77, 0
2, 11330, Note_on_c, 0, 78, 75
2, 11340, Note_on_c, 0, 78, 0
2, 11354, Note_on_c, 0, 79, 76
2, 11364, Note_on_c, 0, 79, 0
2, 11378, Note_on_c, 0, 80, 77
2, 11388, Note_on_c, 0, 80, 0
2, 11402, Note_on_c, 0, 81, 78
2, 11412, Note_on_c, 0, 81, 0
2, 11426, Note_on_c, 0, 84, 77
2, 11438, Note_on_c, 0, 84, 0
2, 11438, Note_on_c, 0, 82, 76
2, 11450, Note_on_c, 0, 82, 0
2, 11450, Note_on_c, 0, 81, 76
2, 11462, Note_on_c, 0, 81, 0
2, 11462, Note_on_c, 0, 79, 75
2, 11474, Note_on_c, 0, 79, 0
2, 11474, Note_on_c, 0, 79, 75
2, 11486, Note_on_c, 0, 79, 0
2, 11486, Note_on_c, 0, 77, 74
2, 11498, Note_on_c, 0, 77, 0
2, 11498, Note_on_c, 0, 76, 74
2, 11510, Note_on_c, 0, 76, 0
2, 11510, Note_on_c, 0, 74, 73
2, 11522, Note_on_c, 0, 74, 0
2, 11522, Note_on_c, 0, 73, 73
2, 11534, Note_on_c, 0, 73, 0
2, 11534, Note_on_c, 0, 74, 73
2, 11546, Note_on_c, 0, 74, 0
2, 11546, Note_on_c, 0, 76, 73
2, 11558, Note_on_c, 0, 76, 0
2, 11558, Note_on_c, 0, 77, 73
2, 11570, Note_on_c, 0, 77, 0
2, 11570, Note_on_c, 0, 76, 73
2, 11590, Note_on_c, 0, 76, 0
2, 11666, Note_on_c, 0, 74, 73
2, 11678, Note_on_c, 0, 74, 0
2, 11678, Note_on_c, 0, 73, 73
2, 11690, Note_on_c, 0, 73, 0
2, 11690, Note_on_c, 0, 71, 73
2, 11702, Note_on_c, 0, 71, 0
2, 11702, Note_on_c, 0, 69, 73
2, 11714, Note_on_c, 0, 69, 0
2, 11714, Note_on_c, 0, 81, 73
2, 11734, Note_on_c, 0, 81, 0
2, 11762, Note_on_c, 0, 81, 73
2, 11782, Note_on_c, 0, 81, 0
2, 11834, Note_on_c, 0, 82, 73
2, 11846, Note_on_c, 0, 82, 0
2, 11846, Note_on_c, 0, 81, 73
2, 11858, Note_on_c, 0, 81, 0
2, 11858, Note_on_c, 0, 79, 73
2, 11870, Note_on_c, 0, 79, 0
2, 11870, Note_on_c, 0, 77, 73
2, 11882, Note_on_c, 0, 77, 0
2, 11882, Note_on_c, 0, 76, 73
2, 11894, Note_on_c, 0, 76, 0
2, 11894, Note_on_c, 0, 74, 73
2, 11906, Note_on_c, 0, 74, 0
2, 11906, Note_on_c, 0, 73, 73
2, 11918, Note_on_c, 0, 73, 0
2, 11918, Note_on_c, 0, 74, 73
2, 11930, Note_on_c, 0, 74, 0
2, 11930, Note_on_c, 0, 76, 73
2, 11942, Note_on_c, 0, 76, 0
2, 11942, Note_on_c, 0, 77, 73
2, 11954, Note_on_c, 0, 77, 0
2, 11954, Note_on_c, 0, 76, 73
2, 11974, Note_on_c, 0, 76, 0
2, 12050, Note_on_c, 0, 74, 73
2, 12062, Note_on_c, 0, 74, 0
2, 12062, Note_on_c, 0, 73, 73
2, 12074, Note_on_c, 0, 73, 0
2, 12074, Note_on_c, 0, 71, 73
2, 12086, Note_on_c, 0, 71, 0
2, 12086, Note_on_c, 0, 69, 73
2, 12098, Note_on_c, 0, 69, 0
2, 12098, Note_on_c, 0, 81, 73
2, 12118, Note_on_c, 0, 81, 0
2, 12146, Note_on_c, 0, 81, 73
2, 12156, Note_on_c, 0, 81, 0
2, 12170, Note_on_c, 0, 89, 73
2, 12182, Note_on_c, 0, 89, 0
2, 12182, Note_on_c, 0, 88, 73
2, 12194, Note_on_c, 0, 88, 0
2, 12194, Note_on_c, 0, 86, 73
2, 12206, Note_on_c, 0, 86, 0
2, 12206, Note_on_c, 0, 84, 73
2, 12218, Note_on_c, 0, 84, 0
2, 12218, Note_on_c, 0, 82, 73
2, 12230, Note_on_c, 0, 82, 0
2, 12230, Note_on_c, 0, 81, 73
2, 12242, Note_on_c, 0, 81, 0
2, 12242, Note_on_c, 0, 79, 73
2, 12254, Note_on_c, 0, 79, 0
2, 12254, Note_on_c, 0, 77, 73
2, 12266, Note_on_c, 0, 77, 0
2, 12266, Note_on_c, 0, 76, 73
2, 12278, Note_on_c, 0, 76, 0
2, 12278, Note_on_c, 0, 74, 73
2, 12290, Note_on_c, 0, 74, 0
2, 12290, Note_on_c, 0, 73, 73
2, 12302, Note_on_c, 0, 73, 0
2, 12302, Note_on_c, 0, 74, 73
2, 12314, Note_on_c, 0, 74, 0
2, 12314, Note_on_c, 0, 76, 73
2, 12326, Note_on_c, 0, 76, 0
2, 12326, Note_on_c, 0, 77, 73
2, 12338, Note_on_c, 0, 77, 0
2, 12338, Note_on_c, 0, 76, 73
2, 12358, Note_on_c, 0, 76, 0
2, 12434, Note_on_c, 0, 74, 73
2, 12446, Note_on_c, 0, 74, 0
2, 12446, Note_on_c, 0, 73, 73
2, 12458, Note_on_c, 0, 73, 0
2, 12458, Note_on_c, 0, 71, 73
2, 12470, Note_on_c, 0, 71, 0
2, 12470, Note_on_c, 0, 69, 73
2, 12482, Note_on_c, 0, 69, 0
2, 12482, Note_on_c, 0, 81, 73
2, 12502, Note_on_c, 0, 81, 0
2, 12530, Note_on_c, 0, 81, 73
2, 12550, Note_on_c, 0, 81, 0
2, 12626, Note_on_c, 0, 79, 73
2, 12638, Note_on_c, 0, 79, 0
2, 12638, Note_on_c, 0, 77, 73
2, 12650, Note_on_c, 0, 77, 0
2, 12650, Note_on_c, 0, 76, 73
2, 12662, Note_on_c, 0, 76, 0
2, 12662, Note_on_c, 0, 74, 73
2, 12674, Note_on_c, 0, 74, 0
2, 12674, Note_on_c, 0, 75, 67
2, 12684, Note_on_c, 0, 75, 0
2, 12698, Note_on_c, 0, 79, 67
2, 12743, Note_on_c, 0, 79, 0
2, 12746, Note_on_c, 0, 81, 69
2, 12791, Note_on_c, 0, 81, 0
2, 12794, Note_on_c, 0, 82, 70
2, 12839, Note_on_c, 0, 82, 0
2, 12842, Note_on_c, 0, 81, 71
2, 12887, Note_on_c, 0, 81, 0
2, 12890, Note_on_c, 0, 79, 73
2, 12935, Note_on_c, 0, 79, 0
2, 12938, Note_on_c, 0, 77, 74
2, 12983, Note_on_c, 0, 77, 0
2, 12986, Note_on_c, 0, 76, 75
2, 13031, Note_on_c, 0, 76, 0
2, 13034, Note_on_c, 0, 74, 77
2, 13057, Note_on_c, 0, 74, 0
2, 13058, Note_on_c, 0, 73, 77
2, 13070, Note_on_c, 0, 73, 0
2, 13070, Note_on_c, 0, 74, 78
2, 13082, Note_on_c, 0, 74, 0
2, 13082, Note_on_c, 0, 76, 78
2, 13094, Note_on_c, 0, 76, 0
2, 13094, Note_on_c, 0, 77, 78
2, 13106, Note_on_c, 0, 77, 0
2, 13106, Note_on_c, 0, 76, 78
2, 13126, Note_on_c, 0, 76, 0
2, 13178, Note_on_c, 0, 76, 78
2, 13190, Note_on_c, 0, 76, 0
2, 13190, Note_on_c, 0, 77, 78
2, 13202, Note_on_c, 0, 77, 0
2, 13202, Note_on_c, 0, 81, 78
2, 13214, Note_on_c, 0, 81, 0
2, 13214, Note_on_c, 0, 79, 78
2, 13226, Note_on_c, 0, 79, 0
2, 13226, Note_on_c, 0, 77, 78
2, 13238, Note_on_c, 0, 77, 0
2, 13238, Note_on_c, 0, 76, 78
2, 13250, Note_on_c, 0, 76, 0
2, 13250, Note_on_c, 0, 77, 78
2, 13298, Note_on_c, 0, 77, 0
2, 13298, Note_on_c, 0, 86, 78
2, 13318, Note_on_c, 0, 86, 0
2, 13370, Note_on_c, 0, 74, 78
2, 13382, Note_on_c, 0, 74, 0
2, 13382, Note_on_c, 0, 76, 78
2, 13394, Note_on_c, 0, 76, 0
2, 13394, Note_on_c, 0, 79, 78
2, 13406, Note_on_c, 0, 79, 0
2, 13406, Note_on_c, 0, 77, 78
2, 13418, Note_on_c, 0, 77, 0
2, 13418, Note_on_c, 0, 76, 78
2, 13430, Note_on_c, 0, 76, 0
2, 13430, Note_on_c, 0, 74, 78
2, 13442, Note_on_c, 0, 74, 0
2, 13442, Note_on_c, 0, 73, 78
2, 13490, Note_on_c, 0, 73, 0
2, 13490, Note_on_c, 0, 81, 78
2, 13510, Note_on_c, 0, 81, 0
2, 13562, Note_on_c, 0, 64, 78
2, 13574, Note_on_c, 0, 64, 0
2, 13574, Note_on_c, 0, 65, 78
2, 13586, Note_on_c, 0, 65, 0
2, 13586, Note_on_c, 0, 69, 78
2, 13598, Note_on_c, 0, 69, 0
2, 13598, Note_on_c, 0, 67, 78
2, 13610, Note_on_c, 0, 67, 0
2, 13610, Note_on_c, 0, 65, 78
2, 13622, Note_on_c, 0, 65, 0
2, 13622, Note_on_c, 0, 64, 78
2, 13634, Note_on_c, 0, 64, 0
2, 13634, Note_on_c, 0, 65, 78
2, 13682, Note_on_c, 0, 65, 0
2, 13682, Note_on_c, 0, 74, 78
2, 13702, Note_on_c, 0, 74, 0
2, 13754, Note_on_c, 0, 62, 78
2, 13766, Note_on_c, 0, 62, 0
2, 13766, Note_on_c, 0, 64, 78
2, 13778, Note_on_c, 0, 64, 0
2, 13778, Note_on_c, 0, 67, 78
2, 13790, Note_on_c, 0, 67, 0
2, 13790, Note_on_c, 0, 65, 78
2, 13802, Note_on_c, 0, 65, 0
2, 13802, Note_on_c, 0, 64, 78
2, 13814, Note_on_c, 0, 64, 0
2, 13814, Note_on_c, 0, 62, 78
2, 13826, Note_on_c, 0, 62, 0
2, 13826, Note_on_c, 0, 61, 78
2, 13849, Note_on_c, 0, 61, 0
2, 13850, Note_on_c, 0, 69, 78
2, 13860, Note_on_c, 0, 69, 0
2, 13874, Note_on_c, 0, 64, 78
2, 13884, Note_on_c, 0, 64, 0
2, 13898, Note_on_c, 0, 61, 78
2, 13908, Note_on_c, 0, 61, 0
2, 14402, Note_on_c, 0, 69, 73
2, 14402, Note_on_c, 0, 66, 73
2, 14587, Note_on_c, 0, 69, 0
2, 14587, Note_on_c, 0, 66, 0
2, 14594, Note_on_c, 0, 67, 74
2, 14594, Note_on_c, 0, 64, 74
2, 14683, Note_on_c, 0, 67, 0
2, 14683, Note_on_c, 0, 64, 0
2, 14690, Note_on_c, 0, 66, 75
2, 14690, Note_on_c, 0, 62, 75
2, 14779, Note_on_c, 0, 66, 0
2, 14779, Note_on_c, 0, 62, 0
2, 14786, Note_on_c, 0, 71, 76
2, 14786, Note_on_c, 0, 67, 76
2, 14875, Note_on_c, 0, 71, 0
2, 14875, Note_on_c, 0, 67, 0
2, 14978, Note_on_c, 0, 76, 78
2, 14978, Note_on_c, 0, 67, 78
2, 15067, Note_on_c, 0, 76, 0
2, 15067, Note_on_c, 0, 67, 0
2, 15074, Note_on_c, 0, 74, 77
2, 15074, Note_on_c, 0, 66, 77
2, 15163, Note_on_c, 0, 74, 0
2, 15163, Note_on_c, 0, 66, 0
2, 15170, Note_on_c, 0, 73, 76
2, 15170, Note_on_c, 0, 64, 76
2, 15259, Note_on_c, 0, 73, 0
2, 15259, Note_on_c, 0, 64, 0
2, 15266, Note_on_c, 0, 71, 75
2, 15266, Note_on_c, 0, 62, 75
2, 15355, Note_on_c, 0, 71, 0
2, 15355, Note_on_c, 0, 62, 0
2, 15362, Note_on_c, 0, 69, 74
2, 15362, Note_on_c, 0, 64, 74
2, 15451, Note_on_c, 0, 69, 0
2, 15451, Note_on_c, 0, 64, 0
2, 15554, Note_on_c, 0, 69, 73
2, 15554, Note_on_c, 0, 66, 73
2, 15739, Note_on_c, 0, 69, 0
2, 15739, Note_on_c, 0, 66, 0
2, 15746, Note_on_c, 0, 67, 74
2, 15746, Note_on_c, 0, 64, 74
2, 15835, Note_on_c, 0, 67, 0
2, 15835, Note_on_c, 0, 64, 0
2, 15842, Note_on_c, 0, 66, 75
2, 15842, Note_on_c, 0, 62, 75
2, 15931, Note_on_c, 0, 66, 0
2, 15931, Note_on_c, 0, 62, 0
2, 15938, Note_on_c, 0, 71, 76
2, 15938, Note_on_c, 0, 67, 76
2, 16027, Note_on_c, 0, 71, 0
2, 16027, Note_on_c, 0, 67, 0
2, 16130, Note_on_c, 0, 67, 77
2, 16130, Note_on_c, 0, 64, 77
2, 16315, Note_on_c, 0, 67, 0
2, 16315, Note_on_c, 0, 64, 0
2, 16322, Note_on_c, 0, 66, 75
2, 16322, Note_on_c, 0, 62, 75
2, 16411, Note_on_c, 0, 66, 0
2, 16411, Note_on_c, 0, 62, 0
2, 16418, Note_on_c, 0, 64, 74
2, 16418, Note_on_c, 0, 61, 74
2, 16507, Note_on_c, 0, 64, 0
2, 16507, Note_on_c, 0, 61, 0
2, 16514, Note_on_c, 0, 62, 73
2, 16603, Note_on_c, 0, 62, 0
2, 16706, Note_on_c, 0, 81, 73
2, 16706, Note_on_c, 0, 78, 73
2, 16891, Note_on_c, 0, 81, 0
2, 16891, Note_on_c, 0, 78, 0
2, 16898, Note_on_c, 0, 79, 73
2, 16898, Note_on_c, 0, 76, 73
2, 16987, Note_on_c, 0, 79, 0
2, 16987, Note_on_c, 0, 76, 0
2, 16994, Note_on_c, 0, 78, 73
2, 16994, Note_on_c, 0, 74, 73
2, 17083, Note_on_c, 0, 78, 0
2, 17083, Note_on_c, 0, 74, 0
2, 17090, Note_on_c, 0, 76, 73
2, 17179, Note_on_c, 0, 76, 0
2, 17186, Note_on_c, 0, 81, 73
2, 17231, Note_on_c, 0, 81, 0
2, 17234, Note_on_c, 0, 79, 73
2, 17279, Note_on_c, 0, 79, 0
2, 17282, Note_on_c, 0, 78, 73
2, 17327, Note_on_c, 0, 78, 0
2, 17330, Note_on_c, 0, 76, 73
2, 17375, Note_on_c, 0, 76, 0
2, 17378, Note_on_c, 0, 74, 73
2, 17467, Note_on_c, 0, 74, 0
2, 17474, Note_on_c, 0, 86, 73
2, 17519, Note_on_c, 0, 86, 0
2, 17522, Note_on_c, 0, 81, 73
2, 17567, Note_on_c, 0, 81, 0
2, 17570, Note_on_c, 0, 78, 73
2, 17615, Note_on_c, 0, 78, 0
2, 17618, Note_on_c, 0, 74, 73
2, 17663, Note_on_c, 0, 74, 0
2, 17666, Note_on_c, 0, 76, 73
2, 17755, Note_on_c, 0, 76, 0
2, 17762, Note_on_c, 0, 81, 73
2, 17807, Note_on_c, 0, 81, 0
2, 17810, Note_on_c, 0, 79, 73
2, 17855, Note_on_c, 0, 79, 0
2, 17858, Note_on_c, 0, 78, 73
2, 17903, Note_on_c, 0, 78, 0
2, 17906, Note_on_c, 0, 76, 73
2, 17951, Note_on_c, 0, 76, 0
2, 17954, Note_on_c, 0, 74, 73
2, 18043, Note_on_c, 0, 74, 0
2, 18146, Note_on_c, 0, 78, 73
2, 18191, Note_on_c, 0, 78, 0
2, 18194, Note_on_c, 0, 69, 73
2, 18239, Note_on_c, 0, 69, 0
2, 18242, Note_on_c, 0, 69, 73
2, 18287, Note_on_c, 0, 69, 0
2, 18290, Note_on_c, 0, 68, 73
2, 18335, Note_on_c, 0, 68, 0
2, 18338, Note_on_c, 0, 76, 73
2, 18383, Note_on_c, 0, 76, 0
2, 18386, Note_on_c, 0, 67, 73
2, 18431, Note_on_c, 0, 67, 0
2, 18434, Note_on_c, 0, 67, 73
2, 18479, Note_on_c, 0, 67, 0
2, 18482, Note_on_c, 0, 66, 73
2, 18527, Note_on_c, 0, 66, 0
2, 18530, Note_on_c, 0, 71, 73
2, 18575, Note_on_c, 0, 71, 0
2, 18578, Note_on_c, 0, 63, 73
2, 18623, Note_on_c, 0, 63, 0
2, 18626, Note_on_c, 0, 64, 73
2, 18671, Note_on_c, 0, 64, 0
2, 18674, Note_on_c, 0, 66, 73
2, 18719, Note_on_c, 0, 66, 0
2, 18722, Note_on_c, 0, 67, 73
2, 18767, Note_on_c, 0, 67, 0
2, 18770, Note_on_c, 0, 64, 73
2, 18815, Note_on_c, 0, 64, 0
2, 18818, Note_on_c, 0, 62, 73
2, 18914, Note_on_c, 0, 62, 0
2, 18914, Note_on_c, 0, 61, 73
2, 19003, Note_on_c, 0, 61, 0
2, 19010, Note_on_c, 0, 81, 73
2, 19010, Note_on_c, 0, 78, 73
2, 19195, Note_on_c, 0, 81, 0
2, 19195, Note_on_c, 0, 78, 0
2, 19202, Note_on_c, 0, 79, 73
2, 19202, Note_on_c, 0, 76, 73
2, 19291, Note_on_c, 0, 79, 0
2, 19291, Note_on_c, 0, 76, 0
2, 19298, Note_on_c, 0, 78, 73
2, 19298, Note_on_c, 0, 74, 73
2, 19387, Note_on_c, 0, 78, 0
2, 19387, Note_on_c, 0, 74, 0
2, 19394, Note_on_c, 0, 76, 73
2, 19483, Note_on_c, 0, 76, 0
2, 19490, Note_on_c, 0, 81, 73
2, 19535, Note_on_c, 0, 81, 0
2, 19538, Note_on_c, 0, 79, 73
2, 19583, Note_on_c, 0, 79, 0
2, 19586, Note_on_c, 0, 78, 73
2, 19631, Note_on_c, 0, 78, 0
2, 19634, Note_on_c, 0, 76, 73
2, 19679, Note_on_c, 0, 76, 0
2, 19682, Note_on_c, 0, 74, 73
2, 19771, Note_on_c, 0, 74, 0
2, 19778, Note_on_c, 0, 86, 73
2, 19823, Note_on_c, 0, 86, 0
2, 19826, Note_on_c, 0, 81, 73
2, 19871, Note_on_c, 0, 81, 0
2, 19874, Note_on_c, 0, 78, 73
2, 19919, Note_on_c, 0, 78, 0
2, 19922, Note_on_c, 0, 74, 73
2, 19967, Note_on_c, 0, 74, 0
2, 19970, Note_on_c, 0, 76, 73
2, 20059, Note_on_c, 0, 76, 0
2, 20066, Note_on_c, 0, 81, 73
2, 20111, Note_on_c, 0, 81, 0
2, 20114, Note_on_c, 0, 79, 73
2, 20159, Note_on_c, 0, 79, 0
2, 20162, Note_on_c, 0, 78, 73
2, 20207, Note_on_c, 0, 78, 0
2, 20210, Note_on_c, 0, 76, 73
2, 20255, Note_on_c, 0, 76, 0
2, 20258, Note_on_c, 0, 74, 73
2, 20347, Note_on_c, 0, 74, 0
2, 20354, Note_on_c, 0, 86, 73
2, 20399, Note_on_c, 0, 86, 0
2, 20402, Note_on_c, 0, 85, 73
2, 20447, Note_on_c, 0, 85, 0
2, 20450, Note_on_c, 0, 83, 73
2, 20495, Note_on_c, 0, 83, 0
2, 20498, Note_on_c, 0, 81, 73
2, 20543, Note_on_c, 0, 81, 0
2, 20546, Note_on_c, 0, 81, 73
2, 20591, Note_on_c, 0, 81, 0
2, 20594, Note_on_c, 0, 80, 73
2, 20639, Note_on_c, 0, 80, 0
2, 20642, Note_on_c, 0, 83, 73
2, 20687, Note_on_c, 0, 83, 0
2, 20690, Note_on_c, 0, 74, 73
2, 20735, Note_on_c, 0, 74, 0
2, 20738, Note_on_c, 0, 74, 73
2, 20783, Note_on_c, 0, 74, 0
2, 20786, Note_on_c, 0, 73, 73
2, 20831, Note_on_c, 0, 73, 0
2, 20834, Note_on_c, 0, 71, 73
2, 20879, Note_on_c, 0, 71, 0
2, 20882, Note_on_c, 0, 74, 73
2, 20927, Note_on_c, 0, 74, 0
2, 20930, Note_on_c, 0, 78, 73
2, 20975, Note_on_c, 0, 78, 0
2, 20978, Note_on_c, 0, 74, 73
2, 21023, Note_on_c, 0, 74, 0
2, 21026, Note_on_c, 0, 71, 73
2, 21071, Note_on_c, 0, 71, 0
2, 21074, Note_on_c, 0, 68, 73
2, 21119, Note_on_c, 0, 68, 0
2, 21122, Note_on_c, 0, 69, 73
2, 21211, Note_on_c, 0, 69, 0
2, 21314, Note_on_c, 0, 69, 73
2, 21314, Note_on_c, 0, 66, 73
2, 21499, Note_on_c, 0, 69, 0
2, 21499, Note_on_c, 0, 66, 0
2, 21506, Note_on_c, 0, 67, 74
2, 21506, Note_on_c, 0, 64, 74
2, 21595, Note_on_c, 0, 67, 0
2, 21595, Note_on_c, 0, 64, 0
2, 21602, Note_on_c, 0, 66, 75
2, 21602, Note_on_c, 0, 62, 75
2, 21691, Note_on_c, 0, 66, 0
2, 21691, Note_on_c, 0, 62, 0
2, 21698, Note_on_c, 0, 71, 76
2, 21698, Note_on_c, 0, 67, 76
2, 21787, Note_on_c, 0, 71, 0
2, 21787, Note_on_c, 0, 67, 0
2, 21890, Note_on_c, 0, 76, 78
2, 21890, Note_on_c, 0, 67, 78
2, 21979, Note_on_c, 0, 76, 0
2, 21979, Note_on_c, 0, 67, 0
2, 21986, Note_on_c, 0, 74, 77
2, 21986, Note_on_c, 0, 66, 77
2, 22075, Note_on_c, 0, 74, 0
2, 22075, Note_on_c, 0, 66, 0
2, 22082, Note_on_c, 0, 73, 76
2, 22082, Note_on_c, 0, 64, 76
2, 22171, Note_on_c, 0, 73, 0
2, 22171, Note_on_c, 0, 64, 0
2, 22178, Note_on_c, 0, 71, 75
2, 22178, Note_on_c, 0, 62, 75
2, 22267, Note_on_c, 0, 71, 0
2, 22267, Note_on_c, 0, 62, 0
2, 22274, Note_on_c, 0, 69, 74
2, 22274, Note_on_c, 0, 64, 74
2, 22363, Note_on_c, 0, 69, 0
2, 22363, Note_on_c, 0, 64, 0
2, 22466, Note_on_c, 0, 69, 73
2, 22466, Note_on_c, 0, 66, 73
2, 22651, Note_on_c, 0, 69, 0
2, 22651, Note_on_c, 0, 66, 0
2, 22658, Note_on_c, 0, 67, 74
2, 22658, Note_on_c, 0, 64, 74
2, 22747, Note_on_c, 0, 67, 0
2, 22747, Note_on_c, 0, 64, 0
2, 22754, Note_on_c, 0, 66, 75
2, 22754, Note_on_c, 0, 62, 75
2, 22843, Note_on_c, 0, 66, 0
2, 22843, Note_on_c, 0, 62, 0
2, 22850, Note_on_c, 0, 71, 76
2, 22850, Note_on_c, 0, 67, 76
2, 22939, Note_on_c, 0, 71, 0
2, 22939, Note_on_c, 0, 67, 0
2, 23042, Note_on_c, 0, 67, 77
2, 23042, Note_on_c, 0, 64, 77
2, 23227, Note_on_c, 0, 67, 0
2, 23227, Note_on_c, 0, 64, 0
2, 23234, Note_on_c, 0, 66, 75
2, 23234, Note_on_c, 0, 62, 75
2, 23323, Note_on_c, 0, 66, 0
2, 23323, Note_on_c, 0, 62, 0
2, 23330, Note_on_c, 0, 64, 74
2, 23330, Note_on_c, 0, 61, 74
2, 23419, Note_on_c, 0, 64, 0
2, 23419, Note_on_c, 0, 61, 0
2, 23426, Note_on_c, 0, 62, 73
2, 23515, Note_on_c, 0, 62, 0
2, 23618, Note_on_c, 0, 81, 73
2, 23618, Note_on_c, 0, 78, 73
2, 23803, Note_on_c, 0, 81, 0
2, 23803, Note_on_c, 0, 78, 0
2, 23810, Note_on_c, 0, 79, 73
2, 23810, Note_on_c, 0, 76, 73
2, 23899, Note_on_c, 0, 79, 0
2, 23899, Note_on_c, 0, 76, 0
2, 23906, Note_on_c, 0, 78, 73
2, 23906, Note_on_c, 0, 74, 73
2, 23995, Note_on_c, 0, 78, 0
2, 23995, Note_on_c, 0, 74, 0
2, 24002, Note_on_c, 0, 76, 73
2, 24091, Note_on_c, 0, 76, 0
2, 24098, Note_on_c, 0, 81, 73
2, 24143, Note_on_c, 0, 81, 0
2, 24146, Note_on_c, 0, 79, 73
2, 24191, Note_on_c, 0, 79, 0
2, 24194, Note_on_c, 0, 78, 73
2, 24239, Note_on_c, 0, 78, 0
2, 24242, Note_on_c, 0, 76, 73
2, 24287, Note_on_c, 0, 76, 0
2, 24290, Note_on_c, 0, 74, 73
2, 24379, Note_on_c, 0, 74, 0
2, 24386, Note_on_c, 0, 86, 73
2, 24431, Note_on_c, 0, 86, 0
2, 24434, Note_on_c, 0, 81, 73
2, 24479, Note_on_c, 0, 81, 0
2, 24482, Note_on_c, 0, 78, 73
2, 24527, Note_on_c, 0, 78, 0
2, 24530, Note_on_c, 0, 74, 73
2, 24575, Note_on_c, 0, 74, 0
2, 24578, Note_on_c, 0, 76, 73
2, 24667, Note_on_c, 0, 76, 0
2, 24674, Note_on_c, 0, 81, 73
2, 24719, Note_on_c, 0, 81, 0
2, 24722, Note_on_c, 0, 79, 73
2, 24767, Note_on_c, 0, 79, 0
2, 24770, Note_on_c, 0, 78, 73
2, 24815, Note_on_c, 0, 78, 0
2, 24818, Note_on_c, 0, 76, 73
2, 24863, Note_on_c, 0, 76, 0
2, 24866, Note_on_c, 0, 74, 73
2, 24955, Note_on_c, 0, 74, 0
2, 25058, Note_on_c, 0, 78, 73
2, 25103, Note_on_c, 0, 78, 0
2, 25106, Note_on_c, 0, 69, 73
2, 25151, Note_on_c, 0, 69, 0
2, 25154, Note_on_c, 0, 69, 73
2, 25199, Note_on_c, 0, 69, 0
2, 25202, Note_on_c, 0, 68, 73
2, 25247, Note_on_c, 0, 68, 0
2, 25250, Note_on_c, 0, 76, 73
2, 25295, Note_on_c, 0, 76, 0
2, 25298, Note_on_c, 0, 67, 73
2, 25343, Note_on_c, 0, 67, 0
2, 25346, Note_on_c, 0, 67, 73
2, 25391, Note_on_c, 0, 67, 0
2, 25394, Note_on_c, 0, 66, 73
2, 25439, Note_on_c, 0, 66, 0
2, 25442, Note_on_c, 0, 71, 73
2, 25487, Note_on_c, 0, 71, 0
2, 25490, Note_on_c, 0, 63, 73
2, 25535, Note_on_c, 0, 63, 0
2, 25538, Note_on_c, 0, 64, 73
2, 25583, Note_on_c, 0, 64, 0
2, 25586, Note_on_c, 0, 66, 73
2, 25631, Note_on_c, 0, 66, 0
2, 25634, Note_on_c, 0, 67, 73
2, 25679, Note_on_c, 0, 67, 0
2, 25682, Note_on_c, 0, 64, 73
2, 25727, Note_on_c, 0, 64, 0
2, 25730, Note_on_c, 0, 62, 73
2, 25826, Note_on_c, 0, 62, 0
2, 25826, Note_on_c, 0, 61, 73
2, 25915, Note_on_c, 0, 61, 0
2, 25922, Note_on_c, 0, 81, 73
2, 25922, Note_on_c, 0, 78, 73
2, 26107, Note_on_c, 0, 81, 0
2, 26107, Note_on_c, 0, 78, 0
2, 26114, Note_on_c, 0, 79, 73
2, 26114, Note_on_c, 0, 76, 73
2, 26203, Note_on_c, 0, 79, 0
2, 26203, Note_on_c, 0, 76, 0
2, 26210, Note_on_c, 0, 78, 73
2, 26210, Note_on_c, 0, 74, 73
2, 26299, Note_on_c, 0, 78, 0
2, 26299, Note_on_c, 0, 74, 0
2, 26306, Note_on_c, 0, 76, 73
2, 26395, Note_on_c, 0, 76, 0
2, 26402, Note_on_c, 0, 81, 73
2, 26447, Note_on_c, 0, 81, 0
2, 26450, Note_on_c, 0, 79, 73
2, 26495, Note_on_c, 0, 79, 0
2, 26498, Note_on_c, 0, 78, 73
2, 26543, Note_on_c, 0, 78, 0
2, 26546, Note_on_c, 0, 76, 73
2, 26591, Note_on_c, 0, 76, 0
2, 26594, Note_on_c, 0, 74, 73
2, 26683, Note_on_c, 0, 74, 0
2, 26690, Note_on_c, 0, 86, 73
2, 26735, Note_on_c, 0, 86, 0
2, 26738, Note_on_c, 0, 81, 73
2, 26783, Note_on_c, 0, 81, 0
2, 26786, Note_on_c, 0, 78, 73
2, 26831, Note_on_c, 0, 78, 0
2, 26834, Note_on_c, 0, 74, 73
2, 26879, Note_on_c, 0, 74, 0
2, 26882, Note_on_c, 0, 76, 73
2, 26971, Note_on_c, 0, 76, 0
2, 26978, Note_on_c, 0, 81, 73
2, 27023, Note_on_c, 0, 81, 0
2, 27026, Note_on_c, 0, 79, 73
2, 27071, Note_on_c, 0, 79, 0
2, 27074, Note_on_c, 0, 78, 73
2, 27119, Note_on_c, 0, 78, 0
2, 27122, Note_on_c, 0, 76, 73
2, 27167, Note_on_c, 0, 76, 0
2, 27170, Note_on_c, 0, 74, 73
2, 27259, Note_on_c, 0, 74, 0
2, 27266, Note_on_c, 0, 86, 73
2, 27311, Note_on_c, 0, 86, 0
2, 27314, Note_on_c, 0, 85, 73
2, 27359, Note_on_c, 0, 85, 0
2, 27362, Note_on_c, 0, 83, 73
2, 27407, Note_on_c, 0, 83, 0
2, 27410, Note_on_c, 0, 81, 73
2, 27455, Note_on_c, 0, 81, 0
2, 27458, Note_on_c, 0, 81, 73
2, 27503, Note_on_c, 0, 81, 0
2, 27506, Note_on_c, 0, 80, 73
2, 27551, Note_on_c, 0, 80, 0
2, 27554, Note_on_c, 0, 83, 73
2, 27599, Note_on_c, 0, 83, 0
2, 27602, Note_on_c, 0, 74, 73
2, 27647, Note_on_c, 0, 74, 0
2, 27650, Note_on_c, 0, 74, 73
2, 27695, Note_on_c, 0, 74, 0
2, 27698, Note_on_c, 0, 73, 73
2, 27743, Note_on_c, 0, 73, 0
2, 27746, Note_on_c, 0, 71, 73
2, 27791, Note_on_c, 0, 71, 0
2, 27794, Note_on_c, 0, 74, 73
2, 27839, Note_on_c, 0, 74, 0
2, 27842, Note_on_c, 0, 78, 73
2, 27887, Note_on_c, 0, 78, 0
2, 27890, Note_on_c, 0, 74, 73
2, 27935, Note_on_c, 0, 74, 0
2, 27938, Note_on_c, 0, 71, 73
2, 27983, Note_on_c, 0, 71, 0
2, 27986, Note_on_c, 0, 68, 73
2, 28031, Note_on_c, 0, 68, 0
2, 28034, Note_on_c, 0, 69, 73
2, 28123, Note_on_c, 0, 69, 0
2, 28322, Note_on_c, 0, 75, 73
2, 28418, Note_on_c, 0, 75, 0
2, 28418, Note_on_c, 0, 76, 73
2, 28507, Note_on_c, 0, 76, 0
2, 28610, Note_on_c, 0, 78, 73
2, 28706, Note_on_c, 0, 78, 0
2, 28706, Note_on_c, 0, 79, 73
2, 28795, Note_on_c, 0, 79, 0
2, 28898, Note_on_c, 0, 73, 73
2, 28994, Note_on_c, 0, 73, 0
2, 28994, Note_on_c, 0, 74, 73
2, 29083, Note_on_c, 0, 74, 0
2, 29186, Note_on_c, 0, 76, 73
2, 29282, Note_on_c, 0, 76, 0
2, 29282, Note_on_c, 0, 78, 73
2, 29371, Note_on_c, 0, 78, 0
2, 29378, Note_on_c, 0, 81, 73
2, 29378, Note_on_c, 0, 78, 73
2, 29563, Note_on_c, 0, 81, 0
2, 29563, Note_on_c, 0, 78, 0
2, 29570, Note_on_c, 0, 78, 73
2, 29570, Note_on_c, 0, 75, 73
2, 29659, Note_on_c, 0, 78, 0
2, 29659, Note_on_c, 0, 75, 0
2, 29666, Note_on_c, 0, 79, 74
2, 29666, Note_on_c, 0, 76, 74
2, 29851, Note_on_c, 0, 79, 0
2, 29851, Note_on_c, 0, 76, 0
2, 29858, Note_on_c, 0, 76, 75
2, 29858, Note_on_c, 0, 73, 75
2, 29947, Note_on_c, 0, 76, 0
2, 29947, Note_on_c, 0, 73, 0
2, 29954, Note_on_c, 0, 78, 75
2, 29954, Note_on_c, 0, 74, 75
2, 30043, Note_on_c, 0, 78, 0
2, 30043, Note_on_c, 0, 74, 0
2, 30050, Note_on_c, 0, 73, 76
2, 30050, Note_on_c, 0, 67, 76
2, 30146, Note_on_c, 0, 73, 0
2, 30146, Note_on_c, 0, 67, 0
2, 30146, Note_on_c, 0, 74, 76
2, 30146, Note_on_c, 0, 66, 76
2, 30235, Note_on_c, 0, 74, 0
2, 30235, Note_on_c, 0, 66, 0
2, 30242, Note_on_c, 0, 68, 77
2, 30242, Note_on_c, 0, 62, 77
2, 30331, Note_on_c, 0, 68, 0
2, 30331, Note_on_c, 0, 62, 0
2, 30338, Note_on_c, 0, 69, 77
2, 30338, Note_on_c, 0, 61, 77
2, 30427, Note_on_c, 0, 69, 0
2, 30427, Note_on_c, 0, 61, 0
2, 30530, Note_on_c, 0, 69, 73
2, 30530, Note_on_c, 0, 66, 73
2, 30715, Note_on_c, 0, 69, 0
2, 30715, Note_on_c, 0, 66, 0
2, 30722, Note_on_c, 0, 67, 74
2, 30722, Note_on_c, 0, 64, 74
2, 30811, Note_on_c, 0, 67, 0
2, 30811, Note_on_c, 0, 64, 0
2, 30818, Note_on_c, 0, 66, 75
2, 30818, Note_on_c, 0, 62, 75
2, 30907, Note_on_c, 0, 66, 0
2, 30907, Note_on_c, 0, 62, 0
2, 30914, Note_on_c, 0, 71, 76
2, 30914, Note_on_c, 0, 67, 76
2, 31003, Note_on_c, 0, 71, 0
2, 31003, Note_on_c, 0, 67, 0
2, 31106, Note_on_c, 0, 76, 78
2, 31106, Note_on_c, 0, 67, 78
2, 31195, Note_on_c, 0, 76, 0
2, 31195, Note_on_c, 0, 67, 0
2, 31202, Note_on_c, 0, 74, 77
2, 31202, Note_on_c, 0, 66, 77
2, 31291, Note_on_c, 0, 74, 0
2, 31291, Note_on_c, 0, 66, 0
2, 31298, Note_on_c, 0, 73, 76
2, 31298, Note_on_c, 0, 64, 76
2, 31387, Note_on_c, 0, 73, 0
2, 31387, Note_on_c, 0, 64, 0
2, 31394, Note_on_c, 0, 71, 75
2, 31394, Note_on_c, 0, 62, 75
2, 31483, Note_on_c, 0, 71, 0
2, 31483, Note_on_c, 0, 62, 0
2, 31490, Note_on_c, 0, 69, 74
2, 31490, Note_on_c, 0, 64, 74
2, 31579, Note_on_c, 0, 69, 0
2, 31579, Note_on_c, 0, 64, 0
2, 31682, Note_on_c, 0, 69, 73
2, 31682, Note_on_c, 0, 66, 73
2, 31867, Note_on_c, 0, 69, 0
2, 31867, Note_on_c, 0, 66, 0
2, 31874, Note_on_c, 0, 67, 74
2, 31874, Note_on_c, 0, 64, 74
2, 31963, Note_on_c, 0, 67, 0
2, 31963, Note_on_c, 0, 64, 0
2, 31970, Note_on_c, 0, 66, 75
2, 31970, Note_on_c, 0, 62, 75
2, 32059, Note_on_c, 0, 66, 0
2, 32059, Note_on_c, 0, 62, 0
2, 32066, Note_on_c, 0, 71, 76
2, 32066, Note_on_c, 0, 67, 76
2, 32155, Note_on_c, 0, 71, 0
2, 32155, Note_on_c, 0, 67, 0
2, 32258, Note_on_c, 0, 67, 77
2, 32258, Note_on_c, 0, 64, 77
2, 32443, Note_on_c, 0, 67, 0
2, 32443, Note_on_c, 0, 64, 0
2, 32450, Note_on_c, 0, 66, 75
2, 32450, Note_on_c, 0, 62, 75
2, 32539, Note_on_c, 0, 66, 0
2, 32539, Note_on_c, 0, 62, 0
2, 32546, Note_on_c, 0, 64, 74
2, 32546, Note_on_c, 0, 61, 74
2, 32635, Note_on_c, 0, 64, 0
2, 32635, Note_on_c, 0, 61, 0
2, 32642, Note_on_c, 0, 62, 73
2, 32731, Note_on_c, 0, 62, 0
2, 32930, Note_on_c, 0, 75, 73
2, 33026, Note_on_c, 0, 75, 0
2, 33026, Note_on_c, 0, 76, 73
2, 33115, Note_on_c, 0, 76, 0
2, 33218, Note_on_c, 0, 78, 73
2, 33314, Note_on_c, 0, 78, 0
2, 33314, Note_on_c, 0, 79, 73
2, 33403, Note_on_c, 0, 79, 0
2, 33506, Note_on_c, 0, 73, 73
2, 33602, Note_on_c, 0, 73, 0
2, 33602, Note_on_c, 0, 74, 73
2, 33691, Note_on_c, 0, 74, 0
2, 33794, Note_on_c, 0, 76, 73
2, 33890, Note_on_c, 0, 76, 0
2, 33890, Note_on_c, 0, 78, 73
2, 33979, Note_on_c, 0, 78, 0
2, 33986, Note_on_c, 0, 81, 73
2, 33986, Note_on_c, 0, 78, 73
2, 34171, Note_on_c, 0, 81, 0
2, 34171, Note_on_c, 0, 78, 0
2, 34178, Note_on_c, 0, 78, 74
2, 34178, Note_on_c, 0, 75, 74
2, 34267, Note_on_c, 0, 78, 0
2, 34267, Note_on_c, 0, 75, 0
2, 34274, Note_on_c, 0, 79, 74
2, 34274, Note_on_c, 0, 76, 74
2, 34459, Note_on_c, 0, 79, 0
2, 34459, Note_on_c, 0, 76, 0
2, 34466, Note_on_c, 0, 76, 75
2, 34466, Note_on_c, 0, 73, 75
2, 34555, Note_on_c, 0, 76, 0
2, 34555, Note_on_c, 0, 73, 0
2, 34562, Note_on_c, 0, 78, 76
2, 34562, Note_on_c, 0, 74, 76
2, 34651, Note_on_c, 0, 78, 0
2, 34651, Note_on_c, 0, 74, 0
2, 34658, Note_on_c, 0, 73, 76
2, 34658, Note_on_c, 0, 67, 76
2, 34754, Note_on_c, 0, 73, 0
2, 34754, Note_on_c, 0, 67, 0
2, 34754, Note_on_c, 0, 74, 77
2, 34754, Note_on_c, 0, 66, 77
2, 34843, Note_on_c, 0, 74, 0
2, 34843, Note_on_c, 0, 66, 0
2, 34850, Note_on_c, 0, 68, 77
2, 34850, Note_on_c, 0, 62, 77
2, 34939, Note_on_c, 0, 68, 0
2, 34939, Note_on_c, 0, 62, 0
2, 34946, Note_on_c, 0, 69, 78
2, 34946, Note_on_c, 0, 61, 78
2, 35035, Note_on_c, 0, 69, 0
2, 35035, Note_on_c, 0, 61, 0
2, 35138, Note_on_c, 0, 69, 73
2, 35138, Note_on_c, 0, 66, 73
2, 35323, Note_on_c, 0, 69, 0
2, 35323, Note_on_c, 0, 66, 0
2, 35330, Note_on_c, 0, 67, 73
2, 35330, Note_on_c, 0, 64, 73
2, 35419, Note_on_c, 0, 67, 0
2, 35419, Note_on_c, 0, 64, 0
2, 35426, Note_on_c, 0, 66, 73
2, 35426, Note_on_c, 0, 62, 73
2, 35515, Note_on_c, 0, 66, 0
2, 35515, Note_on_c, 0, 62, 0
2, 35522, Note_on_c, 0, 71, 73
2, 35522, Note_on_c, 0, 67, 73
2, 35611, Note_on_c, 0, 71, 0
2, 35611, Note_on_c, 0, 67, 0
2, 35714, Note_on_c, 0, 76, 73
2, 35714, Note_on_c, 0, 67, 73
2, 35803, Note_on_c, 0, 76, 0
2, 35803, Note_on_c, 0, 67, 0
2, 35810, Note_on_c, 0, 74, 73
2, 35810, Note_on_c, 0, 66, 73
2, 35899, Note_on_c, 0, 74, 0
2, 35899, Note_on_c, 0, 66, 0
2, 35906, Note_on_c, 0, 73, 73
2, 35906, Note_on_c, 0, 64, 73
2, 35995, Note_on_c, 0, 73, 0
2, 35995, Note_on_c, 0, 64, 0
2, 36002, Note_on_c, 0, 71, 73
2, 36002, Note_on_c, 0, 62, 73
2, 36091, Note_on_c, 0, 71, 0
2, 36091, Note_on_c, 0, 62, 0
2, 36098, Note_on_c, 0, 69, 73
2, 36098, Note_on_c, 0, 64, 73
2, 36187, Note_on_c, 0, 69, 0
2, 36187, Note_on_c, 0, 64, 0
2, 36290, Note_on_c, 0, 69, 73
2, 36290, Note_on_c, 0, 66, 73
2, 36475, Note_on_c, 0, 69, 0
2, 36475, Note_on_c, 0, 66, 0
2, 36482, Note_on_c, 0, 67, 73
2, 36482, Note_on_c, 0, 64, 73
2, 36571, Note_on_c, 0, 67, 0
2, 36571, Note_on_c, 0, 64, 0
2, 36578, Note_on_c, 0, 66, 73
2, 36578, Note_on_c, 0, 62, 73
2, 36667, Note_on_c, 0, 66, 0
2, 36667, Note_on_c, 0, 62, 0
2, 36674, Note_on_c, 0, 71, 73
2, 36674, Note_on_c, 0, 67, 73
2, 36763, Note_on_c, 0, 71, 0
2, 36763, Note_on_c, 0, 67, 0
2, 36866, Note_on_c, 0, 67, 73
2, 36866, Note_on_c, 0, 64, 73
2, 37051, Note_on_c, 0, 67, 0
2, 37051, Note_on_c, 0, 64, 0
2, 37058, Note_on_c, 0, 66, 73
2, 37058, Note_on_c, 0, 62, 73
2, 37147, Note_on_c, 0, 66, 0
2, 37147, Note_on_c, 0, 62, 0
2, 37154, Note_on_c, 0, 64, 73
2, 37154, Note_on_c, 0, 61, 73
2, 37243, Note_on_c, 0, 64, 0
2, 37243, Note_on_c, 0, 61, 0
2, 37250, Note_on_c, 0, 62, 73
2, 37339, Note_on_c, 0, 62, 0
2, 37394, Note_on_c, 0, 69, 73
2, 37439, Note_on_c, 0, 69, 0
2, 37442, Note_on_c, 0, 74, 73
2, 37487, Note_on_c, 0, 74, 0
2, 37490, Note_on_c, 0, 78, 73
2, 37535, Note_on_c, 0, 78, 0
2, 37586, Note_on_c, 0, 69, 73
2, 37631, Note_on_c, 0, 69, 0
2, 37682, Note_on_c, 0, 67, 73
2, 37727, Note_on_c, 0, 67, 0
2, 37778, Note_on_c, 0, 66, 73
2, 37823, Note_on_c, 0, 66, 0
2, 37874, Note_on_c, 0, 64, 73
2, 37919, Note_on_c, 0, 64, 0
2, 37922, Note_on_c, 0, 63, 73
2, 37967, Note_on_c, 0, 63, 0
2, 37970, Note_on_c, 0, 64, 73
2, 38015, Note_on_c, 0, 64, 0
2, 38018, Note_on_c, 0, 67, 73
2, 38063, Note_on_c, 0, 67, 0
2, 38066, Note_on_c, 0, 71, 73
2, 38111, Note_on_c, 0, 71, 0
2, 38114, Note_on_c, 0, 76, 73
2, 38159, Note_on_c, 0, 76, 0
2, 38162, Note_on_c, 0, 79, 73
2, 38207, Note_on_c, 0, 79, 0
2, 38258, Note_on_c, 0, 76, 75
2, 38303, Note_on_c, 0, 76, 0
2, 38354, Note_on_c, 0, 74, 77
2, 38399, Note_on_c, 0, 74, 0
2, 38450, Note_on_c, 0, 73, 78
2, 38495, Note_on_c, 0, 73, 0
2, 38498, Note_on_c, 0, 76, 77
2, 38543, Note_on_c, 0, 76, 0
2, 38546, Note_on_c, 0, 69, 76
2, 38591, Note_on_c, 0, 69, 0
2, 38594, Note_on_c, 0, 74, 75
2, 38639, Note_on_c, 0, 74, 0
2, 38642, Note_on_c, 0, 78, 74
2, 38687, Note_on_c, 0, 78, 0
2, 38738, Note_on_c, 0, 69, 73
2, 38783, Note_on_c, 0, 69, 0
2, 38834, Note_on_c, 0, 67, 73
2, 38879, Note_on_c, 0, 67, 0
2, 38930, Note_on_c, 0, 66, 73
2, 38975, Note_on_c, 0, 66, 0
2, 39026, Note_on_c, 0, 64, 73
2, 39071, Note_on_c, 0, 64, 0
2, 39074, Note_on_c, 0, 63, 73
2, 39119, Note_on_c, 0, 63, 0
2, 39122, Note_on_c, 0, 64, 73
2, 39167, Note_on_c, 0, 64, 0
2, 39170, Note_on_c, 0, 67, 73
2, 39215, Note_on_c, 0, 67, 0
2, 39218, Note_on_c, 0, 71, 73
2, 39263, Note_on_c, 0, 71, 0
2, 39266, Note_on_c, 0, 69, 73
2, 39311, Note_on_c, 0, 69, 0
2, 39314, Note_on_c, 0, 66, 73
2, 39359, Note_on_c, 0, 66, 0
2, 39410, Note_on_c, 0, 62, 73
2, 39455, Note_on_c, 0, 62, 0
2, 39506, Note_on_c, 0, 61, 73
2, 39551, Note_on_c, 0, 61, 0
2, 39602, Note_on_c, 0, 62, 73
2, 39647, Note_on_c, 0, 62, 0
2, 39698, Note_on_c, 0, 69, 73
2, 39743, Note_on_c, 0, 69, 0
2, 39746, Note_on_c, 0, 74, 73
2, 39791, Note_on_c, 0, 74, 0
2, 39794, Note_on_c, 0, 78, 73
2, 39839, Note_on_c, 0, 78, 0
2, 39890, Note_on_c, 0, 69, 73
2, 39935, Note_on_c, 0, 69, 0
2, 39986, Note_on_c, 0, 67, 73
2, 40031, Note_on_c, 0, 67, 0
2, 40082, Note_on_c, 0, 66, 73
2, 40127, Note_on_c, 0, 66, 0
2, 40178, Note_on_c, 0, 76, 73
2, 40223, Note_on_c, 0, 76, 0
2, 40226, Note_on_c, 0, 81, 73
2, 40271, Note_on_c, 0, 81, 0
2, 40274, Note_on_c, 0, 79, 73
2, 40319, Note_on_c, 0, 79, 0
2, 40322, Note_on_c, 0, 78, 73
2, 40367, Note_on_c, 0, 78, 0
2, 40370, Note_on_c, 0, 76, 73
2, 40415, Note_on_c, 0, 76, 0
2, 40466, Note_on_c, 0, 74, 73
2, 40511, Note_on_c, 0, 74, 0
2, 40514, Note_on_c, 0, 86, 73
2, 40559, Note_on_c, 0, 86, 0
2, 40562, Note_on_c, 0, 81, 73
2, 40607, Note_on_c, 0, 81, 0
2, 40610, Note_on_c, 0, 78, 73
2, 40655, Note_on_c, 0, 78, 0
2, 40658, Note_on_c, 0, 74, 73
2, 40703, Note_on_c, 0, 74, 0
2, 40754, Note_on_c, 0, 76, 73
2, 40799, Note_on_c, 0, 76, 0
2, 40802, Note_on_c, 0, 81, 73
2, 40847, Note_on_c, 0, 81, 0
2, 40850, Note_on_c, 0, 79, 73
2, 40895, Note_on_c, 0, 79, 0
2, 40898, Note_on_c, 0, 78, 73
2, 40943, Note_on_c, 0, 78, 0
2, 40946, Note_on_c, 0, 76, 73
2, 40991, Note_on_c, 0, 76, 0
2, 41042, Note_on_c, 0, 74, 73
2, 41087, Note_on_c, 0, 74, 0
2, 41090, Note_on_c, 0, 78, 73
2, 41135, Note_on_c, 0, 78, 0
2, 41138, Note_on_c, 0, 69, 73
2, 41183, Note_on_c, 0, 69, 0
2, 41234, Note_on_c, 0, 66, 73
2, 41279, Note_on_c, 0, 66, 0
2, 41330, Note_on_c, 0, 67, 73
2, 41375, Note_on_c, 0, 67, 0
2, 41426, Note_on_c, 0, 64, 73
2, 41471, Note_on_c, 0, 64, 0
2, 41522, Note_on_c, 0, 66, 73
2, 41567, Note_on_c, 0, 66, 0
2, 41618, Note_on_c, 0, 71, 73
2, 41663, Note_on_c, 0, 71, 0
2, 41666, Note_on_c, 0, 67, 73
2, 41711, Note_on_c, 0, 67, 0
2, 41714, Note_on_c, 0, 66, 73
2, 41759, Note_on_c, 0, 66, 0
2, 41762, Note_on_c, 0, 64, 73
2, 41807, Note_on_c, 0, 64, 0
2, 41810, Note_on_c, 0, 62, 73
2, 41855, Note_on_c, 0, 62, 0
2, 41858, Note_on_c, 0, 61, 73
2, 41903, Note_on_c, 0, 61, 0
2, 41906, Note_on_c, 0, 64, 73
2, 41951, Note_on_c, 0, 64, 0
2, 42002, Note_on_c, 0, 69, 73
2, 42047, Note_on_c, 0, 69, 0
2, 42050, Note_on_c, 0, 74, 73
2, 42095, Note_on_c, 0, 74, 0
2, 42098, Note_on_c, 0, 78, 73
2, 42143, Note_on_c, 0, 78, 0
2, 42194, Note_on_c, 0, 69, 73
2, 42239, Note_on_c, 0, 69, 0
2, 42290, Note_on_c, 0, 67, 73
2, 42335, Note_on_c, 0, 67, 0
2, 42386, Note_on_c, 0, 66, 73
2, 42431, Note_on_c, 0, 66, 0
2, 42482, Note_on_c, 0, 76, 73
2, 42527, Note_on_c, 0, 76, 0
2, 42530, Note_on_c, 0, 81, 73
2, 42575, Note_on_c, 0, 81, 0
2, 42578, Note_on_c, 0, 79, 73
2, 42623, Note_on_c, 0, 79, 0
2, 42626, Note_on_c, 0, 78, 73
2, 42671, Note_on_c, 0, 78, 0
2, 42674, Note_on_c, 0, 76, 73
2, 42719, Note_on_c, 0, 76, 0
2, 42770, Note_on_c, 0, 74, 73
2, 42815, Note_on_c, 0, 74, 0
2, 42866, Note_on_c, 0, 85, 73
2, 42911, Note_on_c, 0, 85, 0
2, 42962, Note_on_c, 0, 86, 73
2, 43007, Note_on_c, 0, 86, 0
2, 43058, Note_on_c, 0, 76, 73
2, 43103, Note_on_c, 0, 76, 0
2, 43106, Note_on_c, 0, 81, 73
2, 43151, Note_on_c, 0, 81, 0
2, 43154, Note_on_c, 0, 79, 73
2, 43199, Note_on_c, 0, 79, 0
2, 43202, Note_on_c, 0, 78, 73
2, 43247, Note_on_c, 0, 78, 0
2, 43250, Note_on_c, 0, 76, 73
2, 43295, Note_on_c, 0, 76, 0
2, 43346, Note_on_c, 0, 74, 73
2, 43391, Note_on_c, 0, 74, 0
2, 43394, Note_on_c, 0, 86, 73
2, 43439, Note_on_c, 0, 86, 0
2, 43442, Note_on_c, 0, 85, 73
2, 43487, Note_on_c, 0, 85, 0
2, 43490, Note_on_c, 0, 83, 73
2, 43535, Note_on_c, 0, 83, 0
2, 43538, Note_on_c, 0, 81, 73
2, 43583, Note_on_c, 0, 81, 0
2, 43586, Note_on_c, 0, 80, 73
2, 43631, Note_on_c, 0, 80, 0
2, 43682, Note_on_c, 0, 74, 73
2, 43727, Note_on_c, 0, 74, 0
2, 43778, Note_on_c, 0, 73, 73
2, 43823, Note_on_c, 0, 73, 0
2, 43922, Note_on_c, 0, 71, 73
2, 43967, Note_on_c, 0, 71, 0
2, 43970, Note_on_c, 0, 78, 73
2, 44015, Note_on_c, 0, 78, 0
2, 44018, Note_on_c, 0, 74, 73
2, 44063, Note_on_c, 0, 74, 0
2, 44066, Note_on_c, 0, 71, 73
2, 44111, Note_on_c, 0, 71, 0
2, 44114, Note_on_c, 0, 68, 73
2, 44159, Note_on_c, 0, 68, 0
2, 44162, Note_on_c, 0, 69, 73
2, 44251, Note_on_c, 0, 69, 0
2, 44306, Note_on_c, 0, 69, 73
2, 44351, Note_on_c, 0, 69, 0
2, 44354, Note_on_c, 0, 74, 73
2, 44399, Note_on_c, 0, 74, 0
2, 44402, Note_on_c, 0, 78, 73
2, 44447, Note_on_c, 0, 78, 0
2, 44498, Note_on_c, 0, 69, 73
2, 44543, Note_on_c, 0, 69, 0
2, 44594, Note_on_c, 0, 67, 73
2, 44639, Note_on_c, 0, 67, 0
2, 44690, Note_on_c, 0, 66, 73
2, 44735, Note_on_c, 0, 66, 0
2, 44786, Note_on_c, 0, 64, 73
2, 44831, Note_on_c, 0, 64, 0
2, 44834, Note_on_c, 0, 63, 73
2, 44879, Note_on_c, 0, 63, 0
2, 44882, Note_on_c, 0, 64, 73
2, 44927, Note_on_c, 0, 64, 0
2, 44930, Note_on_c, 0, 67, 73
2, 44975, Note_on_c, 0, 67, 0
2, 44978, Note_on_c, 0, 71, 73
2, 45023, Note_on_c, 0, 71, 0
2, 45026, Note_on_c, 0, 76, 73
2, 45071, Note_on_c, 0, 76, 0
2, 45074, Note_on_c, 0, 79, 73
2, 45119, Note_on_c, 0, 79, 0
2, 45170, Note_on_c, 0, 76, 75
2, 45215, Note_on_c, 0, 76, 0
2, 45266, Note_on_c, 0, 74, 77
2, 45311, Note_on_c, 0, 74, 0
2, 45362, Note_on_c, 0, 73, 77
2, 45407, Note_on_c, 0, 73, 0
2, 45410, Note_on_c, 0, 76, 76
2, 45455, Note_on_c, 0, 76, 0
2, 45458, Note_on_c, 0, 69, 75
2, 45503, Note_on_c, 0, 69, 0
2, 45506, Note_on_c, 0, 74, 74
2, 45551, Note_on_c, 0, 74, 0
2, 45554, Note_on_c, 0, 78, 73
2, 45599, Note_on_c, 0, 78, 0
2, 45650, Note_on_c, 0, 69, 73
2, 45695, Note_on_c, 0, 69, 0
2, 45746, Note_on_c, 0, 67, 73
2, 45791, Note_on_c, 0, 67, 0
2, 45842, Note_on_c, 0, 66, 73
2, 45887, Note_on_c, 0, 66, 0
2, 45938, Note_on_c, 0, 64, 73
2, 45983, Note_on_c, 0, 64, 0
2, 45986, Note_on_c, 0, 63, 73
2, 46031, Note_on_c, 0, 63, 0
2, 46034, Note_on_c, 0, 64, 73
2, 46079, Note_on_c, 0, 64, 0
2, 46082, Note_on_c, 0, 67, 73
2, 46127, Note_on_c, 0, 67, 0
2, 46130, Note_on_c, 0, 71, 73
2, 46175, Note_on_c, 0, 71, 0
2, 46178, Note_on_c, 0, 69, 73
2, 46223, Note_on_c, 0, 69, 0
2, 46226, Note_on_c, 0, 66, 73
2, 46271, Note_on_c, 0, 66, 0
2, 46322, Note_on_c, 0, 62, 73
2, 46367, Note_on_c, 0, 62, 0
2, 46418, Note_on_c, 0, 61, 73
2, 46463, Note_on_c, 0, 61, 0
2, 46514, Note_on_c, 0, 62, 73
2, 46559, Note_on_c, 0, 62, 0
2, 46610, Note_on_c, 0, 69, 73
2, 46655, Note_on_c, 0, 69, 0
2, 46658, Note_on_c, 0, 74, 73
2, 46703, Note_on_c, 0, 74, 0
2, 46706, Note_on_c, 0, 78, 73
2, 46751, Note_on_c, 0, 78, 0
2, 46802, Note_on_c, 0, 69, 73
2, 46847, Note_on_c, 0, 69, 0
2, 46898, Note_on_c, 0, 67, 73
2, 46943, Note_on_c, 0, 67, 0
2, 46994, Note_on_c, 0, 66, 73
2, 47039, Note_on_c, 0, 66, 0
2, 47090, Note_on_c, 0, 76, 73
2, 47135, Note_on_c, 0, 76, 0
2, 47138, Note_on_c, 0, 81, 73
2, 47183, Note_on_c, 0, 81, 0
2, 47186, Note_on_c, 0, 79, 73
2, 47231, Note_on_c, 0, 79, 0
2, 47234, Note_on_c, 0, 78, 73
2, 47279, Note_on_c, 0, 78, 0
2, 47282, Note_on_c, 0, 76, 73
2, 47327, Note_on_c, 0, 76, 0
2, 47378, Note_on_c, 0, 74, 73
2, 47423, Note_on_c, 0, 74, 0
2, 47426, Note_on_c, 0, 86, 73
2, 47471, Note_on_c, 0, 86, 0
2, 47474, Note_on_c, 0, 81, 73
2, 47519, Note_on_c, 0, 81, 0
2, 47522, Note_on_c, 0, 78, 73
2, 47567, Note_on_c, 0, 78, 0
2, 47570, Note_on_c, 0, 74, 73
2, 47615, Note_on_c, 0, 74, 0
2, 47666, Note_on_c, 0, 76, 73
2, 47711, Note_on_c, 0, 76, 0
2, 47714, Note_on_c, 0, 81, 73
2, 47759, Note_on_c, 0, 81, 0
2, 47762, Note_on_c, 0, 79, 73
2, 47807, Note_on_c, 0, 79, 0
2, 47810, Note_on_c, 0, 78, 73
2, 47855, Note_on_c, 0, 78, 0
2, 47858, Note_on_c, 0, 76, 73
2, 47903, Note_on_c, 0, 76, 0
2, 47954, Note_on_c, 0, 74, 73
2, 47999, Note_on_c, 0, 74, 0
2, 48002, Note_on_c, 0, 78, 73
2, 48047, Note_on_c, 0, 78, 0
2, 48050, Note_on_c, 0, 69, 73
2, 48095, Note_on_c, 0, 69, 0
2, 48146, Note_on_c, 0, 66, 73
2, 48191, Note_on_c, 0, 66, 0
2, 48242, Note_on_c, 0, 67, 73
2, 48287, Note_on_c, 0, 67, 0
2, 48338, Note_on_c, 0, 64, 73
2, 48383, Note_on_c, 0, 64, 0
2, 48434, Note_on_c, 0, 66, 73
2, 48479, Note_on_c, 0, 66, 0
2, 48530, Note_on_c, 0, 71, 73
2, 48575, Note_on_c, 0, 71, 0
2, 48578, Note_on_c, 0, 67, 74
2, 48623, Note_on_c, 0, 67, 0
2, 48626, Note_on_c, 0, 66, 75
2, 48671, Note_on_c, 0, 66, 0
2, 48674, Note_on_c, 0, 64, 76
2, 48719, Note_on_c, 0, 64, 0
2, 48722, Note_on_c, 0, 62, 78
2, 48767, Note_on_c, 0, 62, 0
2, 48770, Note_on_c, 0, 61, 76
2, 48815, Note_on_c, 0, 61, 0
2, 48818, Note_on_c, 0, 64, 75
2, 48863, Note_on_c, 0, 64, 0
2, 48914, Note_on_c, 0, 69, 73
2, 48959, Note_on_c, 0, 69, 0
2, 48962, Note_on_c, 0, 74, 73
2, 49007, Note_on_c, 0, 74, 0
2, 49010, Note_on_c, 0, 78, 73
2, 49055, Note_on_c, 0, 78, 0
2, 49106, Note_on_c, 0, 69, 73
2, 49151, Note_on_c, 0, 69, 0
2, 49202, Note_on_c, 0, 67, 73
2, 49247, Note_on_c, 0, 67, 0
2, 49298, Note_on_c, 0, 66, 73
2, 49343, Note_on_c, 0, 66, 0
2, 49394, Note_on_c, 0, 76, 73
2, 49439, Note_on_c, 0, 76, 0
2, 49442, Note_on_c, 0, 81, 73
2, 49487, Note_on_c, 0, 81, 0
2, 49490, Note_on_c, 0, 79, 73
2, 49535, Note_on_c, 0, 79, 0
2, 49538, Note_on_c, 0, 78, 73
2, 49583, Note_on_c, 0, 78, 0
2, 49586, Note_on_c, 0, 76, 73
2, 49631, Note_on_c, 0, 76, 0
2, 49682, Note_on_c, 0, 74, 73
2, 49727, Note_on_c, 0, 74, 0
2, 49778, Note_on_c, 0, 85, 73
2, 49823, Note_on_c, 0, 85, 0
2, 49874, Note_on_c, 0, 86, 73
2, 49919, Note_on_c, 0, 86, 0
2, 49970, Note_on_c, 0, 76, 73
2, 50015, Note_on_c, 0, 76, 0
2, 50018, Note_on_c, 0, 81, 73
2, 50063, Note_on_c, 0, 81, 0
2, 50066, Note_on_c, 0, 79, 73
2, 50111, Note_on_c, 0, 79, 0
2, 50114, Note_on_c, 0, 78, 73
2, 50159, Note_on_c, 0, 78, 0
2, 50162, Note_on_c, 0, 76, 73
2, 50207, Note_on_c, 0, 76, 0
2, 50258, Note_on_c, 0, 74, 73
2, 50303, Note_on_c, 0, 74, 0
2, 50306, Note_on_c, 0, 86, 73
2, 50351, Note_on_c, 0, 86, 0
2, 50354, Note_on_c, 0, 85, 73
2, 50399, Note_on_c, 0, 85, 0
2, 50402, Note_on_c, 0, 83, 73
2, 50447, Note_on_c, 0, 83, 0
2, 50450, Note_on_c, 0, 81, 73
2, 50495, Note_on_c, 0, 81, 0
2, 50498, Note_on_c, 0, 80, 73
2, 50543, Note_on_c, 0, 80, 0
2, 50594, Note_on_c, 0, 74, 73
2, 50639, Note_on_c, 0, 74, 0
2, 50690, Note_on_c, 0, 73, 73
2, 50735, Note_on_c, 0, 73, 0
2, 50834, Note_on_c, 0, 71, 73
2, 50879, Note_on_c, 0, 71, 0
2, 50882, Note_on_c, 0, 78, 73
2, 50927, Note_on_c, 0, 78, 0
2, 50930, Note_on_c, 0, 74, 73
2, 50975, Note_on_c, 0, 74, 0
2, 50978, Note_on_c, 0, 71, 73
2, 51023, Note_on_c, 0, 71, 0
2, 51026, Note_on_c, 0, 68, 73
2, 51071, Note_on_c, 0, 68, 0
2, 51074, Note_on_c, 0, 69, 73
2, 51163, Note_on_c, 0, 69, 0
2, 51362, Note_on_c, 0, 75, 73
2, 51407, Note_on_c, 0, 75, 0
2, 51410, Note_on_c, 0, 78, 73
2, 51455, Note_on_c, 0, 78, 0
2, 51506, Note_on_c, 0, 76, 73
2, 51551, Note_on_c, 0, 76, 0
2, 51602, Note_on_c, 0, 81, 73
2, 51647, Note_on_c, 0, 81, 0
2, 51698, Note_on_c, 0, 79, 73
2, 51743, Note_on_c, 0, 79, 0
2, 51746, Note_on_c, 0, 83, 73
2, 51791, Note_on_c, 0, 83, 0
2, 51794, Note_on_c, 0, 76, 73
2, 51839, Note_on_c, 0, 76, 0
2, 51938, Note_on_c, 0, 73, 73
2, 51983, Note_on_c, 0, 73, 0
2, 51986, Note_on_c, 0, 76, 73
2, 52031, Note_on_c, 0, 76, 0
2, 52082, Note_on_c, 0, 74, 73
2, 52127, Note_on_c, 0, 74, 0
2, 52178, Note_on_c, 0, 79, 73
2, 52223, Note_on_c, 0, 79, 0
2, 52274, Note_on_c, 0, 78, 73
2, 52319, Note_on_c, 0, 78, 0
2, 52322, Note_on_c, 0, 81, 73
2, 52367, Note_on_c, 0, 81, 0
2, 52370, Note_on_c, 0, 74, 73
2, 52415, Note_on_c, 0, 74, 0
2, 52466, Note_on_c, 0, 81, 73
2, 52511, Note_on_c, 0, 81, 0
2, 52562, Note_on_c, 0, 78, 73
2, 52607, Note_on_c, 0, 78, 0
2, 52658, Note_on_c, 0, 79, 73
2, 52703, Note_on_c, 0, 79, 0
2, 52754, Note_on_c, 0, 76, 74
2, 52799, Note_on_c, 0, 76, 0
2, 52850, Note_on_c, 0, 78, 74
2, 52895, Note_on_c, 0, 78, 0
2, 52946, Note_on_c, 0, 75, 75
2, 52991, Note_on_c, 0, 75, 0
2, 53042, Note_on_c, 0, 76, 75
2, 53087, Note_on_c, 0, 76, 0
2, 53138, Note_on_c, 0, 73, 76
2, 53183, Note_on_c, 0, 73, 0
2, 53234, Note_on_c, 0, 74, 77
2, 53279, Note_on_c, 0, 74, 0
2, 53330, Note_on_c, 0, 68, 77
2, 53375, Note_on_c, 0, 68, 0
2, 53426, Note_on_c, 0, 69, 78
2, 53471, Note_on_c, 0, 69, 0
2, 53522, Note_on_c, 0, 69, 73
2, 53567, Note_on_c, 0, 69, 0
2, 53570, Note_on_c, 0, 74, 73
2, 53615, Note_on_c, 0, 74, 0
2, 53618, Note_on_c, 0, 78, 73
2, 53663, Note_on_c, 0, 78, 0
2, 53714, Note_on_c, 0, 69, 73
2, 53759, Note_on_c, 0, 69, 0
2, 53810, Note_on_c, 0, 67, 73
2, 53855, Note_on_c, 0, 67, 0
2, 53906, Note_on_c, 0, 66, 73
2, 53951, Note_on_c, 0, 66, 0
2, 54002, Note_on_c, 0, 64, 73
2, 54047, Note_on_c, 0, 64, 0
2, 54050, Note_on_c, 0, 63, 73
2, 54095, Note_on_c, 0, 63, 0
2, 54098, Note_on_c, 0, 64, 73
2, 54143, Note_on_c, 0, 64, 0
2, 54146, Note_on_c, 0, 67, 73
2, 54191, Note_on_c, 0, 67, 0
2, 54194, Note_on_c, 0, 71, 73
2, 54239, Note_on_c, 0, 71, 0
2, 54242, Note_on_c, 0, 76, 73
2, 54287, Note_on_c, 0, 76, 0
2, 54290, Note_on_c, 0, 79, 73
2, 54335, Note_on_c, 0, 79, 0
2, 54386, Note_on_c, 0, 76, 75
2, 54431, Note_on_c, 0, 76, 0
2, 54482, Note_on_c, 0, 74, 76
2, 54527, Note_on_c, 0, 74, 0
2, 54578, Note_on_c, 0, 73, 78
2, 54623, Note_on_c, 0, 73, 0
2, 54626, Note_on_c, 0, 76, 77
2, 54671, Note_on_c, 0, 76, 0
2, 54674, Note_on_c, 0, 69, 76
2, 54719, Note_on_c, 0, 69, 0
2, 54722, Note_on_c, 0, 74, 75
2, 54767, Note_on_c, 0, 74, 0
2, 54770, Note_on_c, 0, 78, 74
2, 54815, Note_on_c, 0, 78, 0
2, 54866, Note_on_c, 0, 69, 73
2, 54911, Note_on_c, 0, 69, 0
2, 54962, Note_on_c, 0, 67, 73
2, 55007, Note_on_c, 0, 67, 0
2, 55058, Note_on_c, 0, 66, 73
2, 55103, Note_on_c, 0, 66, 0
2, 55154, Note_on_c, 0, 64, 73
2, 55199, Note_on_c, 0, 64, 0
2, 55202, Note_on_c, 0, 63, 73
2, 55247, Note_on_c, 0, 63, 0
2, 55250, Note_on_c, 0, 64, 73
2, 55295, Note_on_c, 0, 64, 0
2, 55298, Note_on_c, 0, 67, 73
2, 55343, Note_on_c, 0, 67, 0
2, 55346, Note_on_c, 0, 71, 73
2, 55391, Note_on_c, 0, 71, 0
2, 55394, Note_on_c, 0, 69, 73
2, 55439, Note_on_c, 0, 69, 0
2, 55442, Note_on_c, 0, 66, 73
2, 55487, Note_on_c, 0, 66, 0
2, 55538, Note_on_c, 0, 62, 73
2, 55583, Note_on_c, 0, 62, 0
2, 55634, Note_on_c, 0, 61, 73
2, 55679, Note_on_c, 0, 61, 0
2, 55730, Note_on_c, 0, 62, 73
2, 55775, Note_on_c, 0, 62, 0
2, 55970, Note_on_c, 0, 75, 73
2, 56015, Note_on_c, 0, 75, 0
2, 56018, Note_on_c, 0, 78, 73
2, 56063, Note_on_c, 0, 78, 0
2, 56114, Note_on_c, 0, 76, 73
2, 56159, Note_on_c, 0, 76, 0
2, 56210, Note_on_c, 0, 81, 73
2, 56255, Note_on_c, 0, 81, 0
2, 56306, Note_on_c, 0, 79, 73
2, 56351, Note_on_c, 0, 79, 0
2, 56354, Note_on_c, 0, 83, 73
2, 56399, Note_on_c, 0, 83, 0
2, 56402, Note_on_c, 0, 76, 73
2, 56447, Note_on_c, 0, 76, 0
2, 56546, Note_on_c, 0, 73, 73
2, 56591, Note_on_c, 0, 73, 0
2, 56594, Note_on_c, 0, 76, 73
2, 56639, Note_on_c, 0, 76, 0
2, 56690, Note_on_c, 0, 74, 73
2, 56735, Note_on_c, 0, 74, 0
2, 56786, Note_on_c, 0, 79, 73
2, 56831, Note_on_c, 0, 79, 0
2, 56882, Note_on_c, 0, 78, 73
2, 56927, Note_on_c, 0, 78, 0
2, 56930, Note_on_c, 0, 81, 73
2, 56975, Note_on_c, 0, 81, 0
2, 56978, Note_on_c, 0, 74, 73
2, 57023, Note_on_c, 0, 74, 0
2, 57074, Note_on_c, 0, 81, 73
2, 57119, Note_on_c, 0, 81, 0
2, 57170, Note_on_c, 0, 78, 73
2, 57215, Note_on_c, 0, 78, 0
2, 57266, Note_on_c, 0, 79, 73
2, 57311, Note_on_c, 0, 79, 0
2, 57362, Note_on_c, 0, 76, 74
2, 57407, Note_on_c, 0, 76, 0
2, 57458, Note_on_c, 0, 78, 74
2, 57503, Note_on_c, 0, 78, 0
2, 57554, Note_on_c, 0, 75, 75
2, 57599, Note_on_c, 0, 75, 0
2, 57650, Note_on_c, 0, 76, 75
2, 57695, Note_on_c, 0, 76, 0
2, 57746, Note_on_c, 0, 73, 76
2, 57791, Note_on_c, 0, 73, 0
2, 57842, Note_on_c, 0, 74, 77
2, 57887, Note_on_c, 0, 74, 0
2, 57938, Note_on_c, 0, 68, 77
2, 57983, Note_on_c, 0, 68, 0
2, 58034, Note_on_c, 0, 69, 78
2, 58079, Note_on_c, 0, 69, 0
2, 58130, Note_on_c, 0, 69, 73
2, 58175, Note_on_c, 0, 69, 0
2, 58178, Note_on_c, 0, 74, 73
2, 58223, Note_on_c, 0, 74, 0
2, 58226, Note_on_c, 0, 78, 73
2, 58271, Note_on_c, 0, 78, 0
2, 58322, Note_on_c, 0, 69, 73
2, 58367, Note_on_c, 0, 69, 0
2, 58418, Note_on_c, 0, 67, 73
2, 58463, Note_on_c, 0, 67, 0
2, 58514, Note_on_c, 0, 66, 73
2, 58559, Note_on_c, 0, 66, 0
2, 58610, Note_on_c, 0, 64, 73
2, 58655, Note_on_c, 0, 64, 0
2, 58658, Note_on_c, 0, 63, 73
2, 58703, Note_on_c, 0, 63, 0
2, 58706, Note_on_c, 0, 64, 73
2, 58751, Note_on_c, 0, 64, 0
2, 58754, Note_on_c, 0, 67, 73
2, 58799, Note_on_c, 0, 67, 0
2, 58802, Note_on_c, 0, 71, 73
2, 58847, Note_on_c, 0, 71, 0
2, 58850, Note_on_c, 0, 76, 73
2, 58895, Note_on_c, 0, 76, 0
2, 58898, Note_on_c, 0, 79, 73
2, 58943, Note_on_c, 0, 79, 0
2, 58994, Note_on_c, 0, 76, 75
2, 59039, Note_on_c, 0, 76, 0
2, 59090, Note_on_c, 0, 74, 76
2, 59135, Note_on_c, 0, 74, 0
2, 59186, Note_on_c, 0, 73, 78
2, 59231, Note_on_c, 0, 73, 0
2, 59234, Note_on_c, 0, 76, 77
2, 59279, Note_on_c, 0, 76, 0
2, 59282, Note_on_c, 0, 69, 76
2, 59327, Note_on_c, 0, 69, 0
2, 59330, Note_on_c, 0, 74, 75
2, 59375, Note_on_c, 0, 74, 0
2, 59378, Note_on_c, 0, 78, 74
2, 59423, Note_on_c, 0, 78, 0
2, 59474, Note_on_c, 0, 69, 73
2, 59519, Note_on_c, 0, 69, 0
2, 59570, Note_on_c, 0, 67, 73
2, 59615, Note_on_c, 0, 67, 0
2, 59666, Note_on_c, 0, 66, 73
2, 59711, Note_on_c, 0, 66, 0
2, 59762, Note_on_c, 0, 64, 73
2, 59807, Note_on_c, 0, 64, 0
2, 59810, Note_on_c, 0, 63, 73
2, 59855, Note_on_c, 0, 63, 0
2, 59858, Note_on_c, 0, 64, 73
2, 59903, Note_on_c, 0, 64, 0
2, 59906, Note_on_c, 0, 67, 73
2, 59951, Note_on_c, 0, 67, 0
2, 59954, Note_on_c, 0, 71, 73
2, 59999, Note_on_c, 0, 71, 0
2, 60002, Note_on_c, 0, 69, 73
2, 60047, Note_on_c, 0, 69, 0
2, 60050, Note_on_c, 0, 66, 73
2, 60095, Note_on_c, 0, 66, 0
2, 60146, Note_on_c, 0, 62, 73
2, 60191, Note_on_c, 0, 62, 0
2, 60242, Note_on_c, 0, 61, 73
2, 60287, Note_on_c, 0, 61, 0
2, 60338, Note_on_c, 0, 62, 73
2, 60383, Note_on_c, 0, 62, 0
2, 60482, Note_on_c, 0, 69, 73
2, 60482, Note_on_c, 0, 66, 73
2, 60667, Note_on_c, 0, 69, 0
2, 60667, Note_on_c, 0, 66, 0
2, 60674, Note_on_c, 0, 67, 74
2, 60674, Note_on_c, 0, 64, 74
2, 60763, Note_on_c, 0, 67, 0
2, 60763, Note_on_c, 0, 64, 0
2, 60770, Note_on_c, 0, 66, 75
2, 60770, Note_on_c, 0, 62, 75
2, 60859, Note_on_c, 0, 66, 0
2, 60859, Note_on_c, 0, 62, 0
2, 60866, Note_on_c, 0, 71, 76
2, 60866, Note_on_c, 0, 67, 76
2, 60955, Note_on_c, 0, 71, 0
2, 60955, Note_on_c, 0, 67, 0
2, 61058, Note_on_c, 0, 76, 78
2, 61058, Note_on_c, 0, 67, 78
2, 61147, Note_on_c, 0, 76, 0
2, 61147, Note_on_c, 0, 67, 0
2, 61154, Note_on_c, 0, 74, 77
2, 61154, Note_on_c, 0, 66, 77
2, 61243, Note_on_c, 0, 74, 0
2, 61243, Note_on_c, 0, 66, 0
2, 61250, Note_on_c, 0, 73, 76
2, 61250, Note_on_c, 0, 64, 76
2, 61339, Note_on_c, 0, 73, 0
2, 61339, Note_on_c, 0, 64, 0
2, 61346, Note_on_c, 0, 71, 75
2, 61346, Note_on_c, 0, 62, 75
2, 61435, Note_on_c, 0, 71, 0
2, 61435, Note_on_c, 0, 62, 0
2, 61442, Note_on_c, 0, 69, 74
2, 61442, Note_on_c, 0, 64, 74
2, 61531, Note_on_c, 0, 69, 0
2, 61531, Note_on_c, 0, 64, 0
2, 61634, Note_on_c, 0, 69, 73
2, 61634, Note_on_c, 0, 66, 73
2, 61819, Note_on_c, 0, 69, 0
2, 61819, Note_on_c, 0, 66, 0
2, 61826, Note_on_c, 0, 67, 74
2, 61826, Note_on_c, 0, 64, 74
2, 61915, Note_on_c, 0, 67, 0
2, 61915, Note_on_c, 0, 64, 0
2, 61922, Note_on_c, 0, 66, 75
2, 61922, Note_on_c, 0, 62, 75
2, 62011, Note_on_c, 0, 66, 0
2, 62011, Note_on_c, 0, 62, 0
2, 62018, Note_on_c, 0, 71, 76
2, 62018, Note_on_c, 0, 67, 76
2, 62107, Note_on_c, 0, 71, 0
2, 62107, Note_on_c, 0, 67, 0
2, 62210, Note_on_c, 0, 67, 76
2, 62210, Note_on_c, 0, 64, 76
2, 62395, Note_on_c, 0, 67, 0
2, 62395, Note_on_c, 0, 64, 0
2, 62402, Note_on_c, 0, 66, 74
2, 62402, Note_on_c, 0, 62, 74
2, 62491, Note_on_c, 0, 66, 0
2, 62491, Note_on_c, 0, 62, 0
2, 62498, Note_on_c, 0, 64, 73
2, 62498, Note_on_c, 0, 61, 73
2, 62498, Note_on_c, 0, 55, 73
2, 62587, Note_on_c, 0, 64, 0
2, 62587, Note_on_c, 0, 61, 0
2, 62587, Note_on_c, 0, 55, 0
2, 62594, Note_on_c, 0, 62, 73
2, 62594, Note_on_c, 0, 56, 73
2, 62594, Note_on_c, 0, 53, 73
2, 63059, Note_on_c, 0, 62, 0
2, 63059, Note_on_c, 0, 56, 0
2, 63059, Note_on_c, 0, 53, 0
2, 63074, Note_on_c, 0, 61, 73
2, 63074, Note_on_c, 0, 55, 73
2, 63259, Note_on_c, 0, 61, 0
2, 63259, Note_on_c, 0, 55, 0
2, 63266, Note_on_c, 0, 62, 74
2, 63266, Note_on_c, 0, 54, 74
2, 63355, Note_on_c, 0, 62, 0
2, 63355, Note_on_c, 0, 54, 0
2, 63362, Note_on_c, 0, 67, 75
2, 63362, Note_on_c, 0, 61, 75
2, 63547, Note_on_c, 0, 67, 0
2, 63547, Note_on_c, 0, 61, 0
2, 63554, Note_on_c, 0, 66, 77
2, 63554, Note_on_c, 0, 62, 77
2, 63643, Note_on_c, 0, 66, 0
2, 63643, Note_on_c, 0, 62, 0
2, 63650, Note_on_c, 0, 73, 78
2, 63650, Note_on_c, 0, 67, 78
2, 63835, Note_on_c, 0, 73, 0
2, 63835, Note_on_c, 0, 67, 0
2, 63842, Note_on_c, 0, 74, 80
2, 63842, Note_on_c, 0, 66, 80
2, 63931, Note_on_c, 0, 74, 0
2, 63931, Note_on_c, 0, 66, 0
2, 63938, Note_on_c, 0, 79, 81
2, 63938, Note_on_c, 0, 73, 81
2, 64034, Note_on_c, 0, 73, 0
2, 64034, Note_on_c, 0, 76, 82
2, 64123, Note_on_c, 0, 79, 0
2, 64123, Note_on_c, 0, 76, 0
2, 64130, Note_on_c, 0, 78, 83
2, 64130, Note_on_c, 0, 74, 83
2, 64219, Note_on_c, 0, 78, 0
2, 64219, Note_on_c, 0, 74, 0
2, 64226, Note_on_c, 0, 78, 84
2, 64226, Note_on_c, 0, 74, 84
2, 64315, Note_on_c, 0, 78, 0
2, 64315, Note_on_c, 0, 74, 0
2, 64322, Note_on_c, 0, 86, 86
2, 64322, Note_on_c, 0, 78, 86
2, 64322, Note_on_c, 0, 74, 86
2, 64787, Note_on_c, 0, 86, 0
2, 64787, Note_on_c, 0, 78, 0
2, 64787, Note_on_c, 0, 74, 0
2, 64802, Note_on_c, 0, 84, 73
2, 64802, Note_on_c, 0, 81, 73
2, 64987, Note_on_c, 0, 84, 0
2, 64987, Note_on_c, 0, 81, 0
2, 64994, Note_on_c, 0, 83, 73
2, 64994, Note_on_c, 0, 79, 73
2, 65083, Note_on_c, 0, 83, 0
2, 65083, Note_on_c, 0, 79, 0
2, 65090, Note_on_c, 0, 81, 73
2, 65090, Note_on_c, 0, 78, 73
2, 65275, Note_on_c, 0, 81, 0
2, 65275, Note_on_c, 0, 78, 0
2, 65282, Note_on_c, 0, 79, 73
2, 65282, Note_on_c, 0, 76, 73
2, 65371, Note_on_c, 0, 79, 0
2, 65371, Note_on_c, 0, 76, 0
2, 65378, Note_on_c, 0, 78, 73
2, 65378, Note_on_c, 0, 74, 73
2, 65467, Note_on_c, 0, 78, 0
2, 65467, Note_on_c, 0, 74, 0
2, 65474, Note_on_c, 0, 76, 73
2, 65486, Note_on_c, 0, 76, 0
2, 65486, Note_on_c, 0, 78, 73
2, 65498, Note_on_c, 0, 78, 0
2, 65498, Note_on_c, 0, 76, 73
2, 65563, Note_on_c, 0, 76, 0
2, 65570, Note_on_c, 0, 74, 73
2, 65659, Note_on_c, 0, 74, 0
2, 65666, Note_on_c, 0, 73, 73
2, 65666, Note_on_c, 0, 67, 73
2, 65755, Note_on_c, 0, 73, 0
2, 65755, Note_on_c, 0, 67, 0
2, 65762, Note_on_c, 0, 74, 73
2, 65762, Note_on_c, 0, 66, 73
2, 65856, Note_on_c, 0, 74, 0
2, 65856, Note_on_c, 0, 66, 0
2, 66050, Note_on_c, 0, 77, 71
2, 66146, Note_on_c, 0, 77, 0
2, 66146, Note_on_c, 0, 76, 70
2, 66235, Note_on_c, 0, 76, 0
2, 66338, Note_on_c, 0, 77, 67
2, 66434, Note_on_c, 0, 77, 0
2, 66434, Note_on_c, 0, 76, 65
2, 66523, Note_on_c, 0, 76, 0
2, 66626, Note_on_c, 0, 77, 62
2, 66722, Note_on_c, 0, 77, 0
2, 66722, Note_on_c, 0, 76, 61
2, 66811, Note_on_c, 0, 76, 0
2, 66914, Note_on_c, 0, 77, 58
2, 67010, Note_on_c, 0, 77, 0
2, 67010, Note_on_c, 0, 76, 56
2, 67099, Note_on_c, 0, 76, 0
2, 67394, Note_on_c, 0, 69, 78
2, 67424, Note_on_c, 0, 69, 0
2, 67426, Note_on_c, 0, 74, 78
2, 67456, Note_on_c, 0, 74, 0
2, 67458, Note_on_c, 0, 78, 78
2, 67488, Note_on_c, 0, 78, 0
2, 67490, Note_on_c, 0, 81, 78
2, 67579, Note_on_c, 0, 81, 0
2, 67586, Note_on_c, 0, 69, 78
2, 67598, Note_on_c, 0, 73, 78
2, 67610, Note_on_c, 0, 76, 78
2, 67622, Note_on_c, 0, 79, 78
2, 67675, Note_on_c, 0, 79, 0
2, 67675, Note_on_c, 0, 76, 0
2, 67675, Note_on_c, 0, 73, 0
2, 67675, Note_on_c, 0, 69, 0
2, 67682, Note_on_c, 0, 69, 78
2, 67698, Note_on_c, 0, 74, 78
2, 67714, Note_on_c, 0, 78, 78
2, 67771, Note_on_c, 0, 78, 0
2, 67771, Note_on_c, 0, 74, 0
2, 67771, Note_on_c, 0, 69, 0
2, 67778, Note_on_c, 0, 71, 78
2, 67794, Note_on_c, 0, 79, 78
2, 67810, Note_on_c, 0, 83, 78
2, 67867, Note_on_c, 0, 83, 0
2, 67867, Note_on_c, 0, 79, 0
2, 67867, Note_on_c, 0, 71, 0
2, 67970, Note_on_c, 0, 76, 73
2, 67970, Note_on_c, 0, 67, 73
2, 68059, Note_on_c, 0, 76, 0
2, 68059, Note_on_c, 0, 67, 0
2, 68066, Note_on_c, 0, 74, 73
2, 68066, Note_on_c, 0, 66, 73
2, 68155, Note_on_c, 0, 74, 0
2, 68155, Note_on_c, 0, 66, 0
2, 68162, Note_on_c, 0, 73, 73
2, 68162, Note_on_c, 0, 64, 73
2, 68251, Note_on_c, 0, 73, 0
2, 68251, Note_on_c, 0, 64, 0
2, 68258, Note_on_c, 0, 71, 73
2, 68258, Note_on_c, 0, 62, 73
2, 68347, Note_on_c, 0, 71, 0
2, 68347, Note_on_c, 0, 62, 0
2, 68354, Note_on_c, 0, 69, 73
2, 68354, Note_on_c, 0, 64, 73
2, 68443, Note_on_c, 0, 69, 0
2, 68443, Note_on_c, 0, 64, 0
2, 68498, Note_on_c, 0, 69, 67
2, 68543, Note_on_c, 0, 69, 0
2, 68546, Note_on_c, 0, 74, 66
2, 68591, Note_on_c, 0, 74, 0
2, 68594, Note_on_c, 0, 78, 65
2, 68639, Note_on_c, 0, 78, 0
2, 68690, Note_on_c, 0, 69, 64
2, 68735, Note_on_c, 0, 69, 0
2, 68786, Note_on_c, 0, 67, 62
2, 68831, Note_on_c, 0, 67, 0
2, 68882, Note_on_c, 0, 66, 61
2, 68927, Note_on_c, 0, 66, 0
2, 68978, Note_on_c, 0, 64, 59
2, 69023, Note_on_c, 0, 64, 0
2, 69026, Note_on_c, 0, 63, 59
2, 69071, Note_on_c, 0, 63, 0
2, 69074, Note_on_c, 0, 64, 58
2, 69119, Note_on_c, 0, 64, 0
2, 69122, Note_on_c, 0, 67, 57
2, 69167, Note_on_c, 0, 67, 0
2, 69170, Note_on_c, 0, 71, 57
2, 69215, Note_on_c, 0, 71, 0
2, 69218, Note_on_c, 0, 69, 56
2, 69218, Note_on_c, 0, 66, 56
2, 69307, Note_on_c, 0, 69, 0
2, 69307, Note_on_c, 0, 66, 0
2, 69410, Note_on_c, 0, 61, 78
2, 69410, Note_on_c, 0, 57, 78
2, 69449, Note_on_c, 0, 61, 0
2, 69449, Note_on_c, 0, 57, 0
2, 69506, Note_on_c, 0, 62, 78
2, 69506, Note_on_c, 0, 57, 78
2, 69595, Note_on_c, 0, 62, 0
2, 69595, Note_on_c, 0, 57, 0
2, 69794, End_track
3, 0, Start_track
3, 0, Program_c, 0, 0
3, 0, Control_c, 0, 7, 127
3, 0, Control_c, 0, 10, 64
3, 17088, Note_on_c, 0, 74, 73
3, 17353, Note_on_c, 0, 74, 0
3, 17376, Note_on_c, 0, 74, 73
3, 17465, Note_on_c, 0, 74, 0
3, 17664, Note_on_c, 0, 74, 73
3, 17929, Note_on_c, 0, 74, 0
3, 17952, Note_on_c, 0, 74, 73
3, 18041, Note_on_c, 0, 74, 0
3, 24000, Note_on_c, 0, 74, 73
3, 24265, Note_on_c, 0, 74, 0
3, 24288, Note_on_c, 0, 74, 73
3, 24377, Note_on_c, 0, 74, 0
3, 24576, Note_on_c, 0, 74, 73
3, 24841, Note_on_c, 0, 74, 0
3, 24864, Note_on_c, 0, 74, 73
3, 24953, Note_on_c, 0, 74, 0
3, 32640, Note_on_c, 0, 62, 73
3, 32729, Note_on_c, 0, 62, 0
3, 37248, Note_on_c, 0, 62, 73
3, 37337, Note_on_c, 0, 62, 0
3, 69792, End_track
4, 0, Start_track
4, 0, Program_c, 1, 0
4, 0, Control_c, 1, 7, 127
4, 0, Control_c, 1, 10, 64
4, 0, Note_on_c, 1, 65, 55
4, 0, Note_on_c, 1, 62, 55
4, 39, Note_on_c, 1, 65, 0
4, 39, Note_on_c, 1, 62, 0
4, 96, Note_on_c, 1, 65, 55
4, 96, Note_on_c, 1, 62, 55
4, 135, Note_on_c, 1, 65, 0
4, 135, Note_on_c, 1, 62, 0
4, 192, Note_on_c, 1, 65, 55
4, 192, Note_on_c, 1, 62, 55
4, 231, Note_on_c, 1, 65, 0
4, 231, Note_on_c, 1, 62, 0
4, 288, Note_on_c, 1, 65, 55
4, 288, Note_on_c, 1, 62, 55
4, 327, Note_on_c, 1, 65, 0
4, 327, Note_on_c, 1, 62, 0
4, 384, Note_on_c, 1, 67, 55
4, 384, Note_on_c, 1, 64, 55
4, 423, Note_on_c, 1, 67, 0
4, 423, Note_on_c, 1, 64, 0
4, 480, Note_on_c, 1, 67, 55
4, 480, Note_on_c, 1, 64, 55
4, 519, Note_on_c, 1, 67, 0
4, 519, Note_on_c, 1, 64, 0
4, 576, Note_on_c, 1, 67, 55
4, 576, Note_on_c, 1, 64, 55
4, 615, Note_on_c, 1, 67, 0
4, 615, Note_on_c, 1, 64, 0
4, 672, Note_on_c, 1, 67, 55
4, 672, Note_on_c, 1, 64, 55
4, 711, Note_on_c, 1, 67, 0
4, 711, Note_on_c, 1, 64, 0
4, 768, Note_on_c, 1, 69, 55
4, 768, Note_on_c, 1, 65, 55
4, 807, Note_on_c, 1, 69, 0
4, 807, Note_on_c, 1, 65, 0
4, 864, Note_on_c, 1, 69, 55
4, 864, Note_on_c, 1, 65, 55
4, 903, Note_on_c, 1, 69, 0
4, 903, Note_on_c, 1, 65, 0
4, 960, Note_on_c, 1, 69, 55
4, 960, Note_on_c, 1, 65, 55
4, 999, Note_on_c, 1, 69, 0
4, 999, Note_on_c, 1, 65, 0
4, 1056, Note_on_c, 1, 69, 55
4, 1056, Note_on_c, 1, 65, 55
4, 1095, Note_on_c, 1, 69, 0
4, 1095, Note_on_c, 1, 65, 0
4, 1152, Note_on_c, 1, 70, 55
4, 1152, Note_on_c, 1, 67, 55
4, 1191, Note_on_c, 1, 70, 0
4, 1191, Note_on_c, 1, 67, 0
4, 1248, Note_on_c, 1, 70, 55
4, 1248, Note_on_c, 1, 67, 55
4, 1287, Note_on_c, 1, 70, 0
4, 1287, Note_on_c, 1, 67, 0
4, 1344, Note_on_c, 1, 69, 55
4, 1383, Note_on_c, 1, 69, 0
4, 1440, Note_on_c, 1, 69, 55
4, 1479, Note_on_c, 1, 69, 0
4, 1536, Note_on_c, 1, 65, 55
4, 1536, Note_on_c, 1, 62, 55
4, 1575, Note_on_c, 1, 65, 0
4, 1575, Note_on_c, 1, 62, 0
4, 1632, Note_on_c, 1, 65, 55
4, 1632, Note_on_c, 1, 62, 55
4, 1671, Note_on_c, 1, 65, 0
4, 1671, Note_on_c, 1, 62, 0
4, 1728, Note_on_c, 1, 69, 55
4, 1728, Note_on_c, 1, 65, 55
4, 1767, Note_on_c, 1, 69, 0
4, 1767, Note_on_c, 1, 65, 0
4, 1824, Note_on_c, 1, 69, 55
4, 1824, Note_on_c, 1, 65, 55
4, 1863, Note_on_c, 1, 69, 0
4, 1863, Note_on_c, 1, 65, 0
4, 1920, Note_on_c, 1, 70, 55
4, 1920, Note_on_c, 1, 67, 55
4, 1959, Note_on_c, 1, 70, 0
4, 1959, Note_on_c, 1, 67, 0
4, 2016, Note_on_c, 1, 70, 55
4, 2016, Note_on_c, 1, 67, 55
4, 2055, Note_on_c, 1, 70, 0
4, 2055, Note_on_c, 1, 67, 0
4, 2112, Note_on_c, 1, 69, 55
4, 2151, Note_on_c, 1, 69, 0
4, 2208, Note_on_c, 1, 69, 55
4, 2247, Note_on_c, 1, 69, 0
4, 2304, Note_on_c, 1, 74, 55
4, 2343, Note_on_c, 1, 74, 0
4, 2400, Note_on_c, 1, 74, 55
4, 2400, Note_on_c, 1, 70, 55
4, 2439, Note_on_c, 1, 74, 0
4, 2439, Note_on_c, 1, 70, 0
4, 2496, Note_on_c, 1, 74, 55
4, 2496, Note_on_c, 1, 69, 55
4, 2535, Note_on_c, 1, 74, 0
4, 2535, Note_on_c, 1, 69, 0
4, 2592, Note_on_c, 1, 74, 55
4, 2592, Note_on_c, 1, 68, 55
4, 2631, Note_on_c, 1, 74, 0
4, 2631, Note_on_c, 1, 68, 0
4, 2688, Note_on_c, 1, 74, 55
4, 2784, Note_on_c, 1, 74, 0
4, 2784, Note_on_c, 1, 73, 55
4, 2823, Note_on_c, 1, 73, 0
4, 3072, Note_on_c, 1, 57, 55
4, 3120, Note_on_c, 1, 57, 0
4, 3120, Note_on_c, 1, 60, 55
4, 3165, Note_on_c, 1, 60, 0
4, 3168, Note_on_c, 1, 57, 55
4, 3216, Note_on_c, 1, 57, 0
4, 3216, Note_on_c, 1, 60, 55
4, 3261, Note_on_c, 1, 60, 0
4, 3264, Note_on_c, 1, 57, 55
4, 3312, Note_on_c, 1, 57, 0
4, 3312, Note_on_c, 1, 60, 55
4, 3357, Note_on_c, 1, 60, 0
4, 3360, Note_on_c, 1, 57, 55
4, 3408, Note_on_c, 1, 57, 0
4, 3408, Note_on_c, 1, 60, 55
4, 3453, Note_on_c, 1, 60, 0
4, 3456, Note_on_c, 1, 58, 55
4, 3504, Note_on_c, 1, 58, 0
4, 3504, Note_on_c, 1, 60, 55
4, 3549, Note_on_c, 1, 60, 0
4, 3552, Note_on_c, 1, 58, 55
4, 3600, Note_on_c, 1, 58, 0
4, 3600, Note_on_c, 1, 60, 55
4, 3645, Note_on_c, 1, 60, 0
4, 3648, Note_on_c, 1, 58, 55
4, 3696, Note_on_c, 1, 58, 0
4, 3696, Note_on_c, 1, 60, 55
4, 3741, Note_on_c, 1, 60, 0
4, 3744, Note_on_c, 1, 58, 55
4, 3792, Note_on_c, 1, 58, 0
4, 3792, Note_on_c, 1, 60, 55
4, 3837, Note_on_c, 1, 60, 0
4, 3840, Note_on_c, 1, 55, 55
4, 3888, Note_on_c, 1, 55, 0
4, 3888, Note_on_c, 1, 60, 55
4, 3933, Note_on_c, 1, 60, 0
4, 3936, Note_on_c, 1, 55, 55
4, 3984, Note_on_c, 1, 55, 0
4, 3984, Note_on_c, 1, 60, 55
4, 4029, Note_on_c, 1, 60, 0
4, 4032, Note_on_c, 1, 55, 55
4, 4080, Note_on_c, 1, 55, 0
4, 4080, Note_on_c, 1, 60, 55
4, 4125, Note_on_c, 1, 60, 0
4, 4128, Note_on_c, 1, 55, 55
4, 4176, Note_on_c, 1, 55, 0
4, 4176, Note_on_c, 1, 60, 55
4, 4221, Note_on_c, 1, 60, 0
4, 4224, Note_on_c, 1, 57, 55
4, 4272, Note_on_c, 1, 57, 0
4, 4272, Note_on_c, 1, 60, 55
4, 4317, Note_on_c, 1, 60, 0
4, 4320, Note_on_c, 1, 57, 55
4, 4368, Note_on_c, 1, 57, 0
4, 4368, Note_on_c, 1, 60, 55
4, 4413, Note_on_c, 1, 60, 0
4, 4416, Note_on_c, 1, 57, 55
4, 4464, Note_on_c, 1, 57, 0
4, 4464, Note_on_c, 1, 60, 55
4, 4509, Note_on_c, 1, 60, 0
4, 4512, Note_on_c, 1, 57, 55
4, 4560, Note_on_c, 1, 57, 0
4, 4560, Note_on_c, 1, 60, 55
4, 4605, Note_on_c, 1, 60, 0
4, 4608, Note_on_c, 1, 58, 55
4, 4656, Note_on_c, 1, 58, 0
4, 4656, Note_on_c, 1, 62, 55
4, 4701, Note_on_c, 1, 62, 0
4, 4704, Note_on_c, 1, 58, 55
4, 4752, Note_on_c, 1, 58, 0
4, 4752, Note_on_c, 1, 62, 55
4, 4797, Note_on_c, 1, 62, 0
4, 4800, Note_on_c, 1, 58, 55
4, 4848, Note_on_c, 1, 58, 0
4, 4848, Note_on_c, 1, 62, 55
4, 4893, Note_on_c, 1, 62, 0
4, 4896, Note_on_c, 1, 58, 55
4, 4944, Note_on_c, 1, 58, 0
4, 4944, Note_on_c, 1, 62, 55
4, 4989, Note_on_c, 1, 62, 0
4, 4992, Note_on_c, 1, 57, 55
4, 5040, Note_on_c, 1, 57, 0
4, 5040, Note_on_c, 1, 60, 55
4, 5085, Note_on_c, 1, 60, 0
4, 5088, Note_on_c, 1, 57, 55
4, 5136, Note_on_c, 1, 57, 0
4, 5136, Note_on_c, 1, 60, 55
4, 5181, Note_on_c, 1, 60, 0
4, 5184, Note_on_c, 1, 57, 55
4, 5232, Note_on_c, 1, 57, 0
4, 5232, Note_on_c, 1, 60, 55
4, 5277, Note_on_c, 1, 60, 0
4, 5280, Note_on_c, 1, 57, 55
4, 5328, Note_on_c, 1, 57, 0
4, 5328, Note_on_c, 1, 60, 55
4, 5373, Note_on_c, 1, 60, 0
4, 5376, Note_on_c, 1, 55, 55
4, 5424, Note_on_c, 1, 55, 0
4, 5424, Note_on_c, 1, 60, 55
4, 5469, Note_on_c, 1, 60, 0
4, 5472, Note_on_c, 1, 55, 55
4, 5520, Note_on_c, 1, 55, 0
4, 5520, Note_on_c, 1, 60, 55
4, 5565, Note_on_c, 1, 60, 0
4, 5568, Note_on_c, 1, 57, 55
4, 5616, Note_on_c, 1, 57, 0
4, 5616, Note_on_c, 1, 60, 55
4, 5661, Note_on_c, 1, 60, 0
4, 5664, Note_on_c, 1, 59, 78
4, 5664, Note_on_c, 1, 53, 78
4, 5664, Note_on_c, 1, 50, 78
4, 5753, Note_on_c, 1, 59, 0
4, 5753, Note_on_c, 1, 53, 0
4, 5753, Note_on_c, 1, 50, 0
4, 5760, Note_on_c, 1, 60, 78
4, 5760, Note_on_c, 1, 48, 78
4, 5799, Note_on_c, 1, 60, 0
4, 5799, Note_on_c, 1, 48, 0
4, 5856, Note_on_c, 1, 36, 78
4, 5895, Note_on_c, 1, 36, 0
4, 6144, Note_on_c, 1, 64, 61
4, 6144, Note_on_c, 1, 60, 61
4, 6189, Note_on_c, 1, 64, 0
4, 6189, Note_on_c, 1, 60, 0
4, 6192, Note_on_c, 1, 67, 61
4, 6237, Note_on_c, 1, 67, 0
4, 6240, Note_on_c, 1, 64, 61
4, 6240, Note_on_c, 1, 60, 61
4, 6285, Note_on_c, 1, 64, 0
4, 6285, Note_on_c, 1, 60, 0
4, 6288, Note_on_c, 1, 67, 61
4, 6333, Note_on_c, 1, 67, 0
4, 6336, Note_on_c, 1, 60, 61
4, 6381, Note_on_c, 1, 60, 0
4, 6384, Note_on_c, 1, 65, 61
4, 6429, Note_on_c, 1, 65, 0
4, 6432, Note_on_c, 1, 60, 61
4, 6477, Note_on_c, 1, 60, 0
4, 6480, Note_on_c, 1, 65, 61
4, 6525, Note_on_c, 1, 65, 0
4, 6528, Note_on_c, 1, 64, 61
4, 6528, Note_on_c, 1, 60, 61
4, 6573, Note_on_c, 1, 64, 0
4, 6573, Note_on_c, 1, 60, 0
4, 6576, Note_on_c, 1, 67, 61
4, 6621, Note_on_c, 1, 67, 0
4, 6624, Note_on_c, 1, 64, 61
4, 6624, Note_on_c, 1, 60, 61
4, 6669, Note_on_c, 1, 64, 0
4, 6669, Note_on_c, 1, 60, 0
4, 6672, Note_on_c, 1, 67, 61
4, 6717, Note_on_c, 1, 67, 0
4, 6720, Note_on_c, 1, 60, 61
4, 6765, Note_on_c, 1, 60, 0
4, 6768, Note_on_c, 1, 65, 61
4, 6813, Note_on_c, 1, 65, 0
4, 6816, Note_on_c, 1, 60, 61
4, 6861, Note_on_c, 1, 60, 0
4, 6864, Note_on_c, 1, 65, 61
4, 6909, Note_on_c, 1, 65, 0
4, 6912, Note_on_c, 1, 60, 61
4, 6957, Note_on_c, 1, 60, 0
4, 6960, Note_on_c, 1, 64, 61
4, 7005, Note_on_c, 1, 64, 0
4, 7008, Note_on_c, 1, 60, 61
4, 7053, Note_on_c, 1, 60, 0
4, 7056, Note_on_c, 1, 67, 61
4, 7101, Note_on_c, 1, 67, 0
4, 7104, Note_on_c, 1, 60, 61
4, 7149, Note_on_c, 1, 60, 0
4, 7152, Note_on_c, 1, 65, 61
4, 7197, Note_on_c, 1, 65, 0
4, 7200, Note_on_c, 1, 60, 61
4, 7245, Note_on_c, 1, 60, 0
4, 7248, Note_on_c, 1, 65, 61
4, 7293, Note_on_c, 1, 65, 0
4, 7296, Note_on_c, 1, 62, 61
4, 7341, Note_on_c, 1, 62, 0
4, 7344, Note_on_c, 1, 67, 61
4, 7389, Note_on_c, 1, 67, 0
4, 7392, Note_on_c, 1, 62, 61
4, 7437, Note_on_c, 1, 62, 0
4, 7440, Note_on_c, 1, 67, 61
4, 7485, Note_on_c, 1, 67, 0
4, 7488, Note_on_c, 1, 62, 61
4, 7533, Note_on_c, 1, 62, 0
4, 7536, Note_on_c, 1, 67, 61
4, 7581, Note_on_c, 1, 67, 0
4, 7584, Note_on_c, 1, 62, 61
4, 7629, Note_on_c, 1, 62, 0
4, 7632, Note_on_c, 1, 67, 61
4, 7677, Note_on_c, 1, 67, 0
4, 7680, Note_on_c, 1, 65, 61
4, 7725, Note_on_c, 1, 65, 0
4, 7728, Note_on_c, 1, 69, 61
4, 7773, Note_on_c, 1, 69, 0
4, 7776, Note_on_c, 1, 65, 61
4, 7821, Note_on_c, 1, 65, 0
4, 7824, Note_on_c, 1, 69, 61
4, 7869, Note_on_c, 1, 69, 0
4, 7872, Note_on_c, 1, 64, 61
4, 7917, Note_on_c, 1, 64, 0
4, 7920, Note_on_c, 1, 70, 61
4, 7965, Note_on_c, 1, 70, 0
4, 7968, Note_on_c, 1, 64, 61
4, 8013, Note_on_c, 1, 64, 0
4, 8016, Note_on_c, 1, 70, 61
4, 8061, Note_on_c, 1, 70, 0
4, 8064, Note_on_c, 1, 69, 61
4, 8064, Note_on_c, 1, 62, 61
4, 8204, Note_on_c, 1, 69, 0
4, 8204, Note_on_c, 1, 62, 0
4, 8256, Note_on_c, 1, 48, 61
4, 8304, Note_on_c, 1, 48, 0
4, 8304, Note_on_c, 1, 53, 61
4, 8349, Note_on_c, 1, 53, 0
4, 8352, Note_on_c, 1, 48, 61
4, 8400, Note_on_c, 1, 48, 0
4, 8400, Note_on_c, 1, 53, 61
4, 8445, Note_on_c, 1, 53, 0
4, 8448, Note_on_c, 1, 46, 73
4, 8537, Note_on_c, 1, 46, 0
4, 8544, Note_on_c, 1, 34, 73
4, 8633, Note_on_c, 1, 34, 0
4, 8640, Note_on_c, 1, 48, 73
4, 8729, Note_on_c, 1, 48, 0
4, 8736, Note_on_c, 1, 36, 73
4, 8825, Note_on_c, 1, 36, 0
4, 8832, Note_on_c, 1, 41, 73
4, 8921, Note_on_c, 1, 41, 0
4, 8976, Note_on_c, 1, 48, 55
4, 8976, Note_on_c, 1, 45, 55
4, 8996, Note_on_c, 1, 48, 0
4, 8996, Note_on_c, 1, 45, 0
4, 9024, Note_on_c, 1, 45, 55
4, 9024, Note_on_c, 1, 41, 55
4, 9063, Note_on_c, 1, 45, 0
4, 9063, Note_on_c, 1, 41, 0
4, 9216, Note_on_c, 1, 65, 55
4, 9264, Note_on_c, 1, 65, 0
4, 9264, Note_on_c, 1, 69, 55
4, 9309, Note_on_c, 1, 69, 0
4, 9312, Note_on_c, 1, 65, 55
4, 9360, Note_on_c, 1, 65, 0
4, 9360, Note_on_c, 1, 69, 55
4, 9405, Note_on_c, 1, 69, 0
4, 9408, Note_on_c, 1, 65, 55
4, 9456, Note_on_c, 1, 65, 0
4, 9456, Note_on_c, 1, 69, 55
4, 9501, Note_on_c, 1, 69, 0
4, 9504, Note_on_c, 1, 65, 55
4, 9552, Note_on_c, 1, 65, 0
4, 9552, Note_on_c, 1, 69, 55
4, 9597, Note_on_c, 1, 69, 0
4, 9600, Note_on_c, 1, 66, 55
4, 9648, Note_on_c, 1, 66, 0
4, 9648, Note_on_c, 1, 69, 55
4, 9693, Note_on_c, 1, 69, 0
4, 9696, Note_on_c, 1, 66, 55
4, 9744, Note_on_c, 1, 66, 0
4, 9744, Note_on_c, 1, 69, 55
4, 9789, Note_on_c, 1, 69, 0
4, 9792, Note_on_c, 1, 66, 55
4, 9840, Note_on_c, 1, 66, 0
4, 9840, Note_on_c, 1, 69, 55
4, 9885, Note_on_c, 1, 69, 0
4, 9888, Note_on_c, 1, 62, 55
4, 9936, Note_on_c, 1, 62, 0
4, 9936, Note_on_c, 1, 66, 55
4, 9981, Note_on_c, 1, 66, 0
4, 9984, Note_on_c, 1, 62, 55
4, 10032, Note_on_c, 1, 62, 0
4, 10032, Note_on_c, 1, 67, 55
4, 10077, Note_on_c, 1, 67, 0
4, 10080, Note_on_c, 1, 62, 55
4, 10128, Note_on_c, 1, 62, 0
4, 10128, Note_on_c, 1, 67, 55
4, 10173, Note_on_c, 1, 67, 0
4, 10176, Note_on_c, 1, 62, 55
4, 10224, Note_on_c, 1, 62, 0
4, 10224, Note_on_c, 1, 67, 55
4, 10269, Note_on_c, 1, 67, 0
4, 10272, Note_on_c, 1, 62, 55
4, 10320, Note_on_c, 1, 62, 0
4, 10320, Note_on_c, 1, 67, 55
4, 10365, Note_on_c, 1, 67, 0
4, 10368, Note_on_c, 1, 60, 55
4, 10416, Note_on_c, 1, 60, 0
4, 10416, Note_on_c, 1, 67, 55
4, 10461, Note_on_c, 1, 67, 0
4, 10464, Note_on_c, 1, 60, 55
4, 10512, Note_on_c, 1, 60, 0
4, 10512, Note_on_c, 1, 67, 55
4, 10557, Note_on_c, 1, 67, 0
4, 10560, Note_on_c, 1, 60, 55
4, 10608, Note_on_c, 1, 60, 0
4, 10608, Note_on_c, 1, 67, 55
4, 10653, Note_on_c, 1, 67, 0
4, 10656, Note_on_c, 1, 60, 55
4, 10704, Note_on_c, 1, 60, 0
4, 10704, Note_on_c, 1, 67, 55
4, 10749, Note_on_c, 1, 67, 0
4, 10752, Note_on_c, 1, 60, 55
4, 10800, Note_on_c, 1, 60, 0
4, 10800, Note_on_c, 1, 65, 55
4, 10845, Note_on_c, 1, 65, 0
4, 10848, Note_on_c, 1, 60, 55
4, 10896, Note_on_c, 1, 60, 0
4, 10896, Note_on_c, 1, 65, 55
4, 10941, Note_on_c, 1, 65, 0
4, 10944, Note_on_c, 1, 60, 55
4, 10992, Note_on_c, 1, 60, 0
4, 10992, Note_on_c, 1, 65, 55
4, 11037, Note_on_c, 1, 65, 0
4, 11040, Note_on_c, 1, 60, 55
4, 11088, Note_on_c, 1, 60, 0
4, 11088, Note_on_c, 1, 65, 55
4, 11133, Note_on_c, 1, 65, 0
4, 11136, Note_on_c, 1, 58, 55
4, 11184, Note_on_c, 1, 58, 0
4, 11184, Note_on_c, 1, 65, 55
4, 11229, Note_on_c, 1, 65, 0
4, 11232, Note_on_c, 1, 58, 55
4, 11280, Note_on_c, 1, 58, 0
4, 11280, Note_on_c, 1, 65, 55
4, 11325, Note_on_c, 1, 65, 0
4, 11328, Note_on_c, 1, 58, 55
4, 11376, Note_on_c, 1, 58, 0
4, 11376, Note_on_c, 1, 64, 55
4, 11421, Note_on_c, 1, 64, 0
4, 11424, Note_on_c, 1, 58, 55
4, 11472, Note_on_c, 1, 58, 0
4, 11472, Note_on_c, 1, 64, 55
4, 11517, Note_on_c, 1, 64, 0
4, 11520, Note_on_c, 1, 57, 55
4, 11568, Note_on_c, 1, 57, 0
4, 11568, Note_on_c, 1, 61, 55
4, 11613, Note_on_c, 1, 61, 0
4, 11616, Note_on_c, 1, 57, 55
4, 11664, Note_on_c, 1, 57, 0
4, 11664, Note_on_c, 1, 64, 55
4, 11709, Note_on_c, 1, 64, 0
4, 11712, Note_on_c, 1, 57, 55
4, 11760, Note_on_c, 1, 57, 0
4, 11760, Note_on_c, 1, 62, 55
4, 11805, Note_on_c, 1, 62, 0
4, 11808, Note_on_c, 1, 57, 55
4, 11856, Note_on_c, 1, 57, 0
4, 11856, Note_on_c, 1, 62, 55
4, 11901, Note_on_c, 1, 62, 0
4, 11904, Note_on_c, 1, 57, 55
4, 11952, Note_on_c, 1, 57, 0
4, 11952, Note_on_c, 1, 61, 55
4, 11997, Note_on_c, 1, 61, 0
4, 12000, Note_on_c, 1, 57, 55
4, 12048, Note_on_c, 1, 57, 0
4, 12048, Note_on_c, 1, 64, 55
4, 12093, Note_on_c, 1, 64, 0
4, 12096, Note_on_c, 1, 57, 55
4, 12144, Note_on_c, 1, 57, 0
4, 12144, Note_on_c, 1, 62, 55
4, 12189, Note_on_c, 1, 62, 0
4, 12192, Note_on_c, 1, 57, 55
4, 12240, Note_on_c, 1, 57, 0
4, 12240, Note_on_c, 1, 62, 55
4, 12285, Note_on_c, 1, 62, 0
4, 12288, Note_on_c, 1, 57, 55
4, 12336, Note_on_c, 1, 57, 0
4, 12336, Note_on_c, 1, 61, 55
4, 12381, Note_on_c, 1, 61, 0
4, 12384, Note_on_c, 1, 57, 55
4, 12432, Note_on_c, 1, 57, 0
4, 12432, Note_on_c, 1, 64, 55
4, 12477, Note_on_c, 1, 64, 0
4, 12480, Note_on_c, 1, 57, 55
4, 12528, Note_on_c, 1, 57, 0
4, 12528, Note_on_c, 1, 62, 55
4, 12573, Note_on_c, 1, 62, 0
4, 12576, Note_on_c, 1, 57, 55
4, 12624, Note_on_c, 1, 57, 0
4, 12624, Note_on_c, 1, 62, 55
4, 12669, Note_on_c, 1, 62, 0
4, 12672, Note_on_c, 1, 58, 55
4, 12720, Note_on_c, 1, 58, 0
4, 12720, Note_on_c, 1, 63, 57
4, 12765, Note_on_c, 1, 63, 0
4, 12768, Note_on_c, 1, 58, 60
4, 12816, Note_on_c, 1, 58, 0
4, 12816, Note_on_c, 1, 63, 63
4, 12861, Note_on_c, 1, 63, 0
4, 12864, Note_on_c, 1, 59, 66
4, 12912, Note_on_c, 1, 59, 0
4, 12912, Note_on_c, 1, 62, 69
4, 12957, Note_on_c, 1, 62, 0
4, 12960, Note_on_c, 1, 59, 72
4, 13008, Note_on_c, 1, 59, 0
4, 13008, Note_on_c, 1, 65, 75
4, 13053, Note_on_c, 1, 65, 0
4, 13056, Note_on_c, 1, 64, 78
4, 13104, Note_on_c, 1, 64, 0
4, 13104, Note_on_c, 1, 61, 78
4, 13149, Note_on_c, 1, 61, 0
4, 13152, Note_on_c, 1, 61, 78
4, 13200, Note_on_c, 1, 61, 0
4, 13200, Note_on_c, 1, 64, 78
4, 13245, Note_on_c, 1, 64, 0
4, 13248, Note_on_c, 1, 62, 78
4, 13296, Note_on_c, 1, 62, 0
4, 13296, Note_on_c, 1, 65, 78
4, 13341, Note_on_c, 1, 65, 0
4, 13344, Note_on_c, 1, 59, 78
4, 13392, Note_on_c, 1, 59, 0
4, 13392, Note_on_c, 1, 68, 78
4, 13437, Note_on_c, 1, 68, 0
4, 13440, Note_on_c, 1, 64, 78
4, 13488, Note_on_c, 1, 64, 0
4, 13488, Note_on_c, 1, 61, 78
4, 13533, Note_on_c, 1, 61, 0
4, 13536, Note_on_c, 1, 49, 78
4, 13584, Note_on_c, 1, 49, 0
4, 13584, Note_on_c, 1, 52, 78
4, 13629, Note_on_c, 1, 52, 0
4, 13632, Note_on_c, 1, 50, 78
4, 13680, Note_on_c, 1, 50, 0
4, 13680, Note_on_c, 1, 53, 78
4, 13725, Note_on_c, 1, 53, 0
4, 13728, Note_on_c, 1, 47, 78
4, 13776, Note_on_c, 1, 47, 0
4, 13776, Note_on_c, 1, 56, 78
4, 13821, Note_on_c, 1, 56, 0
4, 13824, Note_on_c, 1, 57, 78
4, 13913, Note_on_c, 1, 57, 0
4, 13920, Note_on_c, 1, 57, 78
4, 13930, Note_on_c, 1, 57, 0
4, 13944, Note_on_c, 1, 52, 78
4, 13954, Note_on_c, 1, 52, 0
4, 13968, Note_on_c, 1, 49, 78
4, 13978, Note_on_c, 1, 49, 0
4, 14496, Note_on_c, 1, 50, 73
4, 14761, Note_on_c, 1, 50, 0
4, 14784, Note_on_c, 1, 43, 73
4, 14823, Note_on_c, 1, 43, 0
4, 15072, Note_on_c, 1, 57, 73
4, 15249, Note_on_c, 1, 57, 0
4, 15264, Note_on_c, 1, 59, 73
4, 15353, Note_on_c, 1, 59, 0
4, 15360, Note_on_c, 1, 61, 73
4, 15449, Note_on_c, 1, 61, 0
4, 15648, Note_on_c, 1, 50, 73
4, 15913, Note_on_c, 1, 50, 0
4, 15936, Note_on_c, 1, 43, 73
4, 15975, Note_on_c, 1, 43, 0
4, 16224, Note_on_c, 1, 45, 73
4, 16489, Note_on_c, 1, 45, 0
4, 16512, Note_on_c, 1, 38, 73
4, 16551, Note_on_c, 1, 38, 0
4, 16800, Note_on_c, 1, 66, 73
4, 16800, Note_on_c, 1, 62, 73
4, 16889, Note_on_c, 1, 66, 0
4, 16889, Note_on_c, 1, 62, 0
4, 16896, Note_on_c, 1, 67, 73
4, 16896, Note_on_c, 1, 64, 73
4, 16985, Note_on_c, 1, 67, 0
4, 16985, Note_on_c, 1, 64, 0
4, 16992, Note_on_c, 1, 69, 73
4, 16992, Note_on_c, 1, 66, 73
4, 17081, Note_on_c, 1, 69, 0
4, 17081, Note_on_c, 1, 66, 0
4, 17088, Note_on_c, 1, 71, 67
4, 17088, Note_on_c, 1, 67, 67
4, 17088, Note_on_c, 1, 62, 67
4, 17353, Note_on_c, 1, 71, 0
4, 17353, Note_on_c, 1, 67, 0
4, 17353, Note_on_c, 1, 62, 0
4, 17376, Note_on_c, 1, 69, 67
4, 17376, Note_on_c, 1, 66, 67
4, 17376, Note_on_c, 1, 62, 67
4, 17641, Note_on_c, 1, 69, 0
4, 17641, Note_on_c, 1, 66, 0
4, 17641, Note_on_c, 1, 62, 0
4, 17664, Note_on_c, 1, 71, 67
4, 17664, Note_on_c, 1, 67, 67
4, 17664, Note_on_c, 1, 62, 67
4, 17929, Note_on_c, 1, 71, 0
4, 17929, Note_on_c, 1, 67, 0
4, 17929, Note_on_c, 1, 62, 0
4, 17952, Note_on_c, 1, 69, 67
4, 17952, Note_on_c, 1, 66, 67
4, 17952, Note_on_c, 1, 62, 67
4, 18041, Note_on_c, 1, 69, 0
4, 18041, Note_on_c, 1, 66, 0
4, 18041, Note_on_c, 1, 62, 0
4, 18144, Note_on_c, 1, 62, 73
4, 18233, Note_on_c, 1, 62, 0
4, 18240, Note_on_c, 1, 64, 73
4, 18329, Note_on_c, 1, 64, 0
4, 18336, Note_on_c, 1, 61, 73
4, 18425, Note_on_c, 1, 61, 0
4, 18432, Note_on_c, 1, 62, 73
4, 18521, Note_on_c, 1, 62, 0
4, 18528, Note_on_c, 1, 55, 73
4, 18793, Note_on_c, 1, 55, 0
4, 18816, Note_on_c, 1, 57, 73
4, 18993, Note_on_c, 1, 57, 0
4, 19104, Note_on_c, 1, 66, 73
4, 19104, Note_on_c, 1, 62, 73
4, 19193, Note_on_c, 1, 66, 0
4, 19193, Note_on_c, 1, 62, 0
4, 19200, Note_on_c, 1, 67, 73
4, 19200, Note_on_c, 1, 64, 73
4, 19289, Note_on_c, 1, 67, 0
4, 19289, Note_on_c, 1, 64, 0
4, 19296, Note_on_c, 1, 69, 73
4, 19296, Note_on_c, 1, 66, 73
4, 19385, Note_on_c, 1, 69, 0
4, 19385, Note_on_c, 1, 66, 0
4, 19392, Note_on_c, 1, 73, 73
4, 19392, Note_on_c, 1, 69, 73
4, 19392, Note_on_c, 1, 67, 73
4, 19657, Note_on_c, 1, 73, 0
4, 19657, Note_on_c, 1, 69, 0
4, 19657, Note_on_c, 1, 67, 0
4, 19680, Note_on_c, 1, 74, 73
4, 19680, Note_on_c, 1, 69, 73
4, 19680, Note_on_c, 1, 66, 73
4, 19945, Note_on_c, 1, 74, 0
4, 19945, Note_on_c, 1, 69, 0
4, 19945, Note_on_c, 1, 66, 0
4, 19968, Note_on_c, 1, 73, 73
4, 19968, Note_on_c, 1, 69, 73
4, 19968, Note_on_c, 1, 67, 73
4, 20233, Note_on_c, 1, 73, 0
4, 20233, Note_on_c, 1, 69, 0
4, 20233, Note_on_c, 1, 67, 0
4, 20256, Note_on_c, 1, 74, 73
4, 20256, Note_on_c, 1, 69, 73
4, 20256, Note_on_c, 1, 66, 73
4, 20521, Note_on_c, 1, 74, 0
4, 20521, Note_on_c, 1, 69, 0
4, 20521, Note_on_c, 1, 66, 0
4, 20544, Note_on_c, 1, 64, 73
4, 20633, Note_on_c, 1, 64, 0
4, 20640, Note_on_c, 1, 68, 73
4, 20729, Note_on_c, 1, 68, 0
4, 20736, Note_on_c, 1, 69, 73
4, 20825, Note_on_c, 1, 69, 0
4, 20832, Note_on_c, 1, 62, 73
4, 21009, Note_on_c, 1, 62, 0
4, 21024, Note_on_c, 1, 64, 73
4, 21113, Note_on_c, 1, 64, 0
4, 21120, Note_on_c, 1, 57, 73
4, 21209, Note_on_c, 1, 57, 0
4, 21408, Note_on_c, 1, 50, 73
4, 21673, Note_on_c, 1, 50, 0
4, 21696, Note_on_c, 1, 43, 73
4, 21735, Note_on_c, 1, 43, 0
4, 21984, Note_on_c, 1, 57, 73
4, 22161, Note_on_c, 1, 57, 0
4, 22176, Note_on_c, 1, 59, 73
4, 22265, Note_on_c, 1, 59, 0
4, 22272, Note_on_c, 1, 61, 73
4, 22361, Note_on_c, 1, 61, 0
4, 22560, Note_on_c, 1, 50, 73
4, 22825, Note_on_c, 1, 50, 0
4, 22848, Note_on_c, 1, 43, 73
4, 22887, Note_on_c, 1, 43, 0
4, 23136, Note_on_c, 1, 45, 73
4, 23401, Note_on_c, 1, 45, 0
4, 23424, Note_on_c, 1, 38, 73
4, 23463, Note_on_c, 1, 38, 0
4, 23712, Note_on_c, 1, 66, 73
4, 23712, Note_on_c, 1, 62, 73
4, 23801, Note_on_c, 1, 66, 0
4, 23801, Note_on_c, 1, 62, 0
4, 23808, Note_on_c, 1, 67, 73
4, 23808, Note_on_c, 1, 64, 73
4, 23897, Note_on_c, 1, 67, 0
4, 23897, Note_on_c, 1, 64, 0
4, 23904, Note_on_c, 1, 69, 73
4, 23904, Note_on_c, 1, 66, 73
4, 23993, Note_on_c, 1, 69, 0
4, 23993, Note_on_c, 1, 66, 0
4, 24000, Note_on_c, 1, 71, 67
4, 24000, Note_on_c, 1, 67, 67
4, 24000, Note_on_c, 1, 62, 67
4, 24265, Note_on_c, 1, 71, 0
4, 24265, Note_on_c, 1, 67, 0
4, 24265, Note_on_c, 1, 62, 0
4, 24288, Note_on_c, 1, 69, 67
4, 24288, Note_on_c, 1, 66, 67
4, 24288, Note_on_c, 1, 62, 67
4, 24553, Note_on_c, 1, 69, 0
4, 24553, Note_on_c, 1, 66, 0
4, 24553, Note_on_c, 1, 62, 0
4, 24576, Note_on_c, 1, 71, 67
4, 24576, Note_on_c, 1, 67, 67
4, 24576, Note_on_c, 1, 62, 67
4, 24841, Note_on_c, 1, 71, 0
4, 24841, Note_on_c, 1, 67, 0
4, 24841, Note_on_c, 1, 62, 0
4, 24864, Note_on_c, 1, 69, 67
4, 24864, Note_on_c, 1, 66, 67
4, 24864, Note_on_c, 1, 62, 67
4, 24953, Note_on_c, 1, 69, 0
4, 24953, Note_on_c, 1, 66, 0
4, 24953, Note_on_c, 1, 62, 0
4, 25056, Note_on_c, 1, 62, 73
4, 25145, Note_on_c, 1, 62, 0
4, 25152, Note_on_c, 1, 64, 73
4, 25241, Note_on_c, 1, 64, 0
4, 25248, Note_on_c, 1, 61, 73
4, 25337, Note_on_c, 1, 61, 0
4, 25344, Note_on_c, 1, 62, 73
4, 25433, Note_on_c, 1, 62, 0
4, 25440, Note_on_c, 1, 55, 73
4, 25705, Note_on_c, 1, 55, 0
4, 25728, Note_on_c, 1, 57, 73
4, 25905, Note_on_c, 1, 57, 0
4, 26016, Note_on_c, 1, 66, 73
4, 26016, Note_on_c, 1, 62, 73
4, 26105, Note_on_c, 1, 66, 0
4, 26105, Note_on_c, 1, 62, 0
4, 26112, Note_on_c, 1, 67, 73
4, 26112, Note_on_c, 1, 64, 73
4, 26201, Note_on_c, 1, 67, 0
4, 26201, Note_on_c, 1, 64, 0
4, 26208, Note_on_c, 1, 69, 73
4, 26208, Note_on_c, 1, 66, 73
4, 26297, Note_on_c, 1, 69, 0
4, 26297, Note_on_c, 1, 66, 0
4, 26304, Note_on_c, 1, 73, 73
4, 26304, Note_on_c, 1, 69, 73
4, 26304, Note_on_c, 1, 67, 73
4, 26569, Note_on_c, 1, 73, 0
4, 26569, Note_on_c, 1, 69, 0
4, 26569, Note_on_c, 1, 67, 0
4, 26592, Note_on_c, 1, 74, 73
4, 26592, Note_on_c, 1, 69, 73
4, 26592, Note_on_c, 1, 66, 73
4, 26857, Note_on_c, 1, 74, 0
4, 26857, Note_on_c, 1, 69, 0
4, 26857, Note_on_c, 1, 66, 0
4, 26880, Note_on_c, 1, 73, 73
4, 26880, Note_on_c, 1, 69, 73
4, 26880, Note_on_c, 1, 67, 73
4, 27145, Note_on_c, 1, 73, 0
4, 27145, Note_on_c, 1, 69, 0
4, 27145, Note_on_c, 1, 67, 0
4, 27168, Note_on_c, 1, 74, 73
4, 27168, Note_on_c, 1, 69, 73
4, 27168, Note_on_c, 1, 66, 73
4, 27433, Note_on_c, 1, 74, 0
4, 27433, Note_on_c, 1, 69, 0
4, 27433, Note_on_c, 1, 66, 0
4, 27456, Note_on_c, 1, 64, 73
4, 27545, Note_on_c, 1, 64, 0
4, 27552, Note_on_c, 1, 68, 73
4, 27641, Note_on_c, 1, 68, 0
4, 27648, Note_on_c, 1, 69, 73
4, 27737, Note_on_c, 1, 69, 0
4, 27744, Note_on_c, 1, 62, 73
4, 27921, Note_on_c, 1, 62, 0
4, 27936, Note_on_c, 1, 64, 73
4, 28025, Note_on_c, 1, 64, 0
4, 28032, Note_on_c, 1, 57, 73
4, 28121, Note_on_c, 1, 57, 0
4, 28224, Note_on_c, 1, 72, 73
4, 28224, Note_on_c, 1, 69, 73
4, 28409, Note_on_c, 1, 72, 0
4, 28409, Note_on_c, 1, 69, 0
4, 28416, Note_on_c, 1, 71, 73
4, 28416, Note_on_c, 1, 67, 73
4, 28505, Note_on_c, 1, 71, 0
4, 28505, Note_on_c, 1, 67, 0
4, 28512, Note_on_c, 1, 69, 73
4, 28512, Note_on_c, 1, 66, 73
4, 28697, Note_on_c, 1, 69, 0
4, 28697, Note_on_c, 1, 66, 0
4, 28704, Note_on_c, 1, 67, 73
4, 28704, Note_on_c, 1, 64, 73
4, 28793, Note_on_c, 1, 67, 0
4, 28793, Note_on_c, 1, 64, 0
4, 28800, Note_on_c, 1, 70, 73
4, 28800, Note_on_c, 1, 67, 73
4, 28985, Note_on_c, 1, 70, 0
4, 28985, Note_on_c, 1, 67, 0
4, 28992, Note_on_c, 1, 69, 73
4, 28992, Note_on_c, 1, 66, 73
4, 29081, Note_on_c, 1, 69, 0
4, 29081, Note_on_c, 1, 66, 0
4, 29088, Note_on_c, 1, 67, 73
4, 29088, Note_on_c, 1, 64, 73
4, 29273, Note_on_c, 1, 67, 0
4, 29273, Note_on_c, 1, 64, 0
4, 29280, Note_on_c, 1, 66, 73
4, 29280, Note_on_c, 1, 62, 73
4, 29369, Note_on_c, 1, 66, 0
4, 29369, Note_on_c, 1, 62, 0
4, 29376, Note_on_c, 1, 45, 73
4, 29465, Note_on_c, 1, 45, 0
4, 29472, Note_on_c, 1, 57, 73
4, 29649, Note_on_c, 1, 57, 0
4, 29664, Note_on_c, 1, 45, 74
4, 29753, Note_on_c, 1, 45, 0
4, 29760, Note_on_c, 1, 57, 74
4, 29937, Note_on_c, 1, 57, 0
4, 29952, Note_on_c, 1, 45, 75
4, 30041, Note_on_c, 1, 45, 0
4, 30048, Note_on_c, 1, 57, 76
4, 30137, Note_on_c, 1, 57, 0
4, 30144, Note_on_c, 1, 45, 76
4, 30233, Note_on_c, 1, 45, 0
4, 30240, Note_on_c, 1, 57, 77
4, 30329, Note_on_c, 1, 57, 0
4, 30336, Note_on_c, 1, 45, 77
4, 30425, Note_on_c, 1, 45, 0
4, 30624, Note_on_c, 1, 50, 73
4, 30889, Note_on_c, 1, 50, 0
4, 30912, Note_on_c, 1, 43, 73
4, 30951, Note_on_c, 1, 43, 0
4, 31200, Note_on_c, 1, 57, 73
4, 31377, Note_on_c, 1, 57, 0
4, 31392, Note_on_c, 1, 59, 73
4, 31481, Note_on_c, 1, 59, 0
4, 31488, Note_on_c, 1, 61, 73
4, 31577, Note_on_c, 1, 61, 0
4, 31776, Note_on_c, 1, 50, 73
4, 32041, Note_on_c, 1, 50, 0
4, 32064, Note_on_c, 1, 43, 73
4, 32103, Note_on_c, 1, 43, 0
4, 32352, Note_on_c, 1, 45, 73
4, 32617, Note_on_c, 1, 45, 0
4, 32640, Note_on_c, 1, 38, 73
4, 32729, Note_on_c, 1, 38, 0
4, 32832, Note_on_c, 1, 72, 73
4, 32832, Note_on_c, 1, 69, 73
4, 33017, Note_on_c, 1, 72, 0
4, 33017, Note_on_c, 1, 69, 0
4, 33024, Note_on_c, 1, 71, 73
4, 33024, Note_on_c, 1, 67, 73
4, 33113, Note_on_c, 1, 71, 0
4, 33113, Note_on_c, 1, 67, 0
4, 33120, Note_on_c, 1, 69, 73
4, 33120, Note_on_c, 1, 66, 73
4, 33305, Note_on_c, 1, 69, 0
4, 33305, Note_on_c, 1, 66, 0
4, 33312, Note_on_c, 1, 67, 73
4, 33312, Note_on_c, 1, 64, 73
4, 33401, Note_on_c, 1, 67, 0
4, 33401, Note_on_c, 1, 64, 0
4, 33408, Note_on_c, 1, 70, 73
4, 33408, Note_on_c, 1, 67, 73
4, 33593, Note_on_c, 1, 70, 0
4, 33593, Note_on_c, 1, 67, 0
4, 33600, Note_on_c, 1, 69, 73
4, 33600, Note_on_c, 1, 66, 73
4, 33689, Note_on_c, 1, 69, 0
4, 33689, Note_on_c, 1, 66, 0
4, 33696, Note_on_c, 1, 67, 73
4, 33696, Note_on_c, 1, 64, 73
4, 33881, Note_on_c, 1, 67, 0
4, 33881, Note_on_c, 1, 64, 0
4, 33888, Note_on_c, 1, 66, 73
4, 33888, Note_on_c, 1, 62, 73
4, 33977, Note_on_c, 1, 66, 0
4, 33977, Note_on_c, 1, 62, 0
4, 33984, Note_on_c, 1, 45, 73
4, 34073, Note_on_c, 1, 45, 0
4, 34080, Note_on_c, 1, 57, 73
4, 34257, Note_on_c, 1, 57, 0
4, 34272, Note_on_c, 1, 45, 74
4, 34361, Note_on_c, 1, 45, 0
4, 34368, Note_on_c, 1, 57, 75
4, 34545, Note_on_c, 1, 57, 0
4, 34560, Note_on_c, 1, 45, 76
4, 34649, Note_on_c, 1, 45, 0
4, 34656, Note_on_c, 1, 57, 76
4, 34745, Note_on_c, 1, 57, 0
4, 34752, Note_on_c, 1, 45, 77
4, 34841, Note_on_c, 1, 45, 0
4, 34848, Note_on_c, 1, 57, 77
4, 34937, Note_on_c, 1, 57, 0
4, 34944, Note_on_c, 1, 45, 78
4, 35033, Note_on_c, 1, 45, 0
4, 35232, Note_on_c, 1, 50, 73
4, 35497, Note_on_c, 1, 50, 0
4, 35520, Note_on_c, 1, 43, 73
4, 35559, Note_on_c, 1, 43, 0
4, 35808, Note_on_c, 1, 57, 73
4, 35985, Note_on_c, 1, 57, 0
4, 36000, Note_on_c, 1, 59, 73
4, 36089, Note_on_c, 1, 59, 0
4, 36096, Note_on_c, 1, 61, 73
4, 36185, Note_on_c, 1, 61, 0
4, 36384, Note_on_c, 1, 50, 73
4, 36649, Note_on_c, 1, 50, 0
4, 36672, Note_on_c, 1, 43, 73
4, 36711, Note_on_c, 1, 43, 0
4, 36960, Note_on_c, 1, 45, 73
4, 37225, Note_on_c, 1, 45, 0
4, 37248, Note_on_c, 1, 38, 73
4, 37337, Note_on_c, 1, 38, 0
4, 37536, Note_on_c, 1, 66, 73
4, 37575, Note_on_c, 1, 66, 0
4, 37632, Note_on_c, 1, 64, 73
4, 37671, Note_on_c, 1, 64, 0
4, 37728, Note_on_c, 1, 62, 73
4, 37767, Note_on_c, 1, 62, 0
4, 37824, Note_on_c, 1, 59, 73
4, 37824, Note_on_c, 1, 55, 73
4, 37913, Note_on_c, 1, 59, 0
4, 37913, Note_on_c, 1, 55, 0
4, 38208, Note_on_c, 1, 67, 74
4, 38247, Note_on_c, 1, 67, 0
4, 38304, Note_on_c, 1, 68, 76
4, 38343, Note_on_c, 1, 68, 0
4, 38400, Note_on_c, 1, 69, 78
4, 38489, Note_on_c, 1, 69, 0
4, 38688, Note_on_c, 1, 66, 73
4, 38727, Note_on_c, 1, 66, 0
4, 38784, Note_on_c, 1, 64, 73
4, 38823, Note_on_c, 1, 64, 0
4, 38880, Note_on_c, 1, 62, 73
4, 38919, Note_on_c, 1, 62, 0
4, 38976, Note_on_c, 1, 59, 73
4, 38976, Note_on_c, 1, 55, 73
4, 39065, Note_on_c, 1, 59, 0
4, 39065, Note_on_c, 1, 55, 0
4, 39360, Note_on_c, 1, 54, 73
4, 39360, Note_on_c, 1, 45, 73
4, 39399, Note_on_c, 1, 54, 0
4, 39399, Note_on_c, 1, 45, 0
4, 39456, Note_on_c, 1, 52, 73
4, 39456, Note_on_c, 1, 45, 73
4, 39495, Note_on_c, 1, 52, 0
4, 39495, Note_on_c, 1, 45, 0
4, 39552, Note_on_c, 1, 50, 73
4, 39641, Note_on_c, 1, 50, 0
4, 39648, Note_on_c, 1, 38, 73
4, 39737, Note_on_c, 1, 38, 0
4, 39840, Note_on_c, 1, 66, 73
4, 39879, Note_on_c, 1, 66, 0
4, 39936, Note_on_c, 1, 64, 73
4, 39975, Note_on_c, 1, 64, 0
4, 40032, Note_on_c, 1, 62, 73
4, 40071, Note_on_c, 1, 62, 0
4, 40128, Note_on_c, 1, 74, 67
4, 40128, Note_on_c, 1, 71, 67
4, 40128, Note_on_c, 1, 67, 67
4, 40393, Note_on_c, 1, 74, 0
4, 40393, Note_on_c, 1, 71, 0
4, 40393, Note_on_c, 1, 67, 0
4, 40416, Note_on_c, 1, 69, 67
4, 40416, Note_on_c, 1, 66, 67
4, 40681, Note_on_c, 1, 69, 0
4, 40681, Note_on_c, 1, 66, 0
4, 40704, Note_on_c, 1, 74, 67
4, 40704, Note_on_c, 1, 71, 67
4, 40704, Note_on_c, 1, 67, 67
4, 40969, Note_on_c, 1, 74, 0
4, 40969, Note_on_c, 1, 71, 0
4, 40969, Note_on_c, 1, 67, 0
4, 40992, Note_on_c, 1, 69, 67
4, 40992, Note_on_c, 1, 66, 67
4, 41081, Note_on_c, 1, 69, 0
4, 41081, Note_on_c, 1, 66, 0
4, 41184, Note_on_c, 1, 62, 73
4, 41223, Note_on_c, 1, 62, 0
4, 41280, Note_on_c, 1, 64, 73
4, 41319, Note_on_c, 1, 64, 0
4, 41376, Note_on_c, 1, 61, 73
4, 41415, Note_on_c, 1, 61, 0
4, 41472, Note_on_c, 1, 62, 73
4, 41511, Note_on_c, 1, 62, 0
4, 41568, Note_on_c, 1, 55, 73
4, 41760, Note_on_c, 1, 55, 0
4, 41760, Note_on_c, 1, 56, 73
4, 41849, Note_on_c, 1, 56, 0
4, 41856, Note_on_c, 1, 57, 73
4, 41945, Note_on_c, 1, 57, 0
4, 41952, Note_on_c, 1, 45, 73
4, 42041, Note_on_c, 1, 45, 0
4, 42144, Note_on_c, 1, 66, 73
4, 42183, Note_on_c, 1, 66, 0
4, 42240, Note_on_c, 1, 64, 73
4, 42279, Note_on_c, 1, 64, 0
4, 42336, Note_on_c, 1, 62, 73
4, 42375, Note_on_c, 1, 62, 0
4, 42432, Note_on_c, 1, 73, 73
4, 42432, Note_on_c, 1, 69, 73
4, 42432, Note_on_c, 1, 67, 73
4, 42697, Note_on_c, 1, 73, 0
4, 42697, Note_on_c, 1, 69, 0
4, 42697, Note_on_c, 1, 67, 0
4, 42720, Note_on_c, 1, 69, 73
4, 42720, Note_on_c, 1, 66, 73
4, 42809, Note_on_c, 1, 69, 0
4, 42809, Note_on_c, 1, 66, 0
4, 42816, Note_on_c, 1, 67, 73
4, 42816, Note_on_c, 1, 64, 73
4, 42905, Note_on_c, 1, 67, 0
4, 42905, Note_on_c, 1, 64, 0
4, 42912, Note_on_c, 1, 66, 73
4, 42912, Note_on_c, 1, 62, 73
4, 43001, Note_on_c, 1, 66, 0
4, 43001, Note_on_c, 1, 62, 0
4, 43008, Note_on_c, 1, 73, 73
4, 43008, Note_on_c, 1, 69, 73
4, 43008, Note_on_c, 1, 67, 73
4, 43273, Note_on_c, 1, 73, 0
4, 43273, Note_on_c, 1, 69, 0
4, 43273, Note_on_c, 1, 67, 0
4, 43296, Note_on_c, 1, 69, 73
4, 43296, Note_on_c, 1, 66, 73
4, 43561, Note_on_c, 1, 69, 0
4, 43561, Note_on_c, 1, 66, 0
4, 43632, Note_on_c, 1, 64, 73
4, 43677, Note_on_c, 1, 64, 0
4, 43728, Note_on_c, 1, 68, 73
4, 43773, Note_on_c, 1, 68, 0
4, 43824, Note_on_c, 1, 69, 73
4, 43869, Note_on_c, 1, 69, 0
4, 43872, Note_on_c, 1, 62, 73
4, 44064, Note_on_c, 1, 62, 0
4, 44064, Note_on_c, 1, 64, 73
4, 44153, Note_on_c, 1, 64, 0
4, 44160, Note_on_c, 1, 57, 73
4, 44249, Note_on_c, 1, 57, 0
4, 44448, Note_on_c, 1, 66, 73
4, 44487, Note_on_c, 1, 66, 0
4, 44544, Note_on_c, 1, 64, 73
4, 44583, Note_on_c, 1, 64, 0
4, 44640, Note_on_c, 1, 62, 73
4, 44679, Note_on_c, 1, 62, 0
4, 44736, Note_on_c, 1, 59, 73
4, 44736, Note_on_c, 1, 55, 73
4, 44825, Note_on_c, 1, 59, 0
4, 44825, Note_on_c, 1, 55, 0
4, 45120, Note_on_c, 1, 67, 74
4, 45159, Note_on_c, 1, 67, 0
4, 45216, Note_on_c, 1, 68, 76
4, 45255, Note_on_c, 1, 68, 0
4, 45312, Note_on_c, 1, 69, 78
4, 45401, Note_on_c, 1, 69, 0
4, 45600, Note_on_c, 1, 66, 73
4, 45639, Note_on_c, 1, 66, 0
4, 45696, Note_on_c, 1, 64, 73
4, 45735, Note_on_c, 1, 64, 0
4, 45792, Note_on_c, 1, 62, 73
4, 45831, Note_on_c, 1, 62, 0
4, 45888, Note_on_c, 1, 59, 73
4, 45888, Note_on_c, 1, 55, 73
4, 45977, Note_on_c, 1, 59, 0
4, 45977, Note_on_c, 1, 55, 0
4, 46272, Note_on_c, 1, 54, 73
4, 46272, Note_on_c, 1, 45, 73
4, 46311, Note_on_c, 1, 54, 0
4, 46311, Note_on_c, 1, 45, 0
4, 46368, Note_on_c, 1, 52, 73
4, 46368, Note_on_c, 1, 45, 73
4, 46407, Note_on_c, 1, 52, 0
4, 46407, Note_on_c, 1, 45, 0
4, 46464, Note_on_c, 1, 50, 73
4, 46553, Note_on_c, 1, 50, 0
4, 46560, Note_on_c, 1, 38, 73
4, 46649, Note_on_c, 1, 38, 0
4, 46752, Note_on_c, 1, 66, 73
4, 46791, Note_on_c, 1, 66, 0
4, 46848, Note_on_c, 1, 64, 73
4, 46887, Note_on_c, 1, 64, 0
4, 46944, Note_on_c, 1, 62, 73
4, 46983, Note_on_c, 1, 62, 0
4, 47040, Note_on_c, 1, 74, 73
4, 47040, Note_on_c, 1, 71, 73
4, 47040, Note_on_c, 1, 67, 73
4, 47305, Note_on_c, 1, 74, 0
4, 47305, Note_on_c, 1, 71, 0
4, 47305, Note_on_c, 1, 67, 0
4, 47328, Note_on_c, 1, 69, 73
4, 47328, Note_on_c, 1, 66, 73
4, 47593, Note_on_c, 1, 69, 0
4, 47593, Note_on_c, 1, 66, 0
4, 47616, Note_on_c, 1, 74, 73
4, 47616, Note_on_c, 1, 71, 73
4, 47616, Note_on_c, 1, 67, 73
4, 47881, Note_on_c, 1, 74, 0
4, 47881, Note_on_c, 1, 71, 0
4, 47881, Note_on_c, 1, 67, 0
4, 47904, Note_on_c, 1, 69, 73
4, 47904, Note_on_c, 1, 66, 73
4, 47993, Note_on_c, 1, 69, 0
4, 47993, Note_on_c, 1, 66, 0
4, 48096, Note_on_c, 1, 62, 73
4, 48135, Note_on_c, 1, 62, 0
4, 48192, Note_on_c, 1, 64, 73
4, 48231, Note_on_c, 1, 64, 0
4, 48288, Note_on_c, 1, 61, 73
4, 48327, Note_on_c, 1, 61, 0
4, 48384, Note_on_c, 1, 62, 73
4, 48423, Note_on_c, 1, 62, 0
4, 48480, Note_on_c, 1, 55, 73
4, 48672, Note_on_c, 1, 55, 0
4, 48672, Note_on_c, 1, 56, 73
4, 48761, Note_on_c, 1, 56, 0
4, 48768, Note_on_c, 1, 57, 78
4, 48857, Note_on_c, 1, 57, 0
4, 48864, Note_on_c, 1, 45, 75
4, 48953, Note_on_c, 1, 45, 0
4, 49056, Note_on_c, 1, 66, 73
4, 49095, Note_on_c, 1, 66, 0
4, 49152, Note_on_c, 1, 64, 73
4, 49191, Note_on_c, 1, 64, 0
4, 49248, Note_on_c, 1, 62, 73
4, 49287, Note_on_c, 1, 62, 0
4, 49344, Note_on_c, 1, 73, 73
4, 49344, Note_on_c, 1, 69, 73
4, 49344, Note_on_c, 1, 67, 73
4, 49609, Note_on_c, 1, 73, 0
4, 49609, Note_on_c, 1, 69, 0
4, 49609, Note_on_c, 1, 67, 0
4, 49632, Note_on_c, 1, 69, 73
4, 49632, Note_on_c, 1, 66, 73
4, 49721, Note_on_c, 1, 69, 0
4, 49721, Note_on_c, 1, 66, 0
4, 49728, Note_on_c, 1, 67, 73
4, 49728, Note_on_c, 1, 64, 73
4, 49817, Note_on_c, 1, 67, 0
4, 49817, Note_on_c, 1, 64, 0
4, 49824, Note_on_c, 1, 66, 73
4, 49824, Note_on_c, 1, 62, 73
4, 49913, Note_on_c, 1, 66, 0
4, 49913, Note_on_c, 1, 62, 0
4, 49920, Note_on_c, 1, 73, 73
4, 49920, Note_on_c, 1, 69, 73
4, 49920, Note_on_c, 1, 67, 73
4, 50185, Note_on_c, 1, 73, 0
4, 50185, Note_on_c, 1, 69, 0
4, 50185, Note_on_c, 1, 67, 0
4, 50208, Note_on_c, 1, 69, 73
4, 50208, Note_on_c, 1, 66, 73
4, 50473, Note_on_c, 1, 69, 0
4, 50473, Note_on_c, 1, 66, 0
4, 50544, Note_on_c, 1, 64, 73
4, 50589, Note_on_c, 1, 64, 0
4, 50640, Note_on_c, 1, 68, 73
4, 50685, Note_on_c, 1, 68, 0
4, 50736, Note_on_c, 1, 69, 73
4, 50781, Note_on_c, 1, 69, 0
4, 50784, Note_on_c, 1, 62, 73
4, 50976, Note_on_c, 1, 62, 0
4, 50976, Note_on_c, 1, 64, 73
4, 51065, Note_on_c, 1, 64, 0
4, 51072, Note_on_c, 1, 57, 73
4, 51161, Note_on_c, 1, 57, 0
4, 51264, Note_on_c, 1, 69, 73
4, 51309, Note_on_c, 1, 69, 0
4, 51312, Note_on_c, 1, 72, 73
4, 51357, Note_on_c, 1, 72, 0
4, 51456, Note_on_c, 1, 67, 73
4, 51501, Note_on_c, 1, 67, 0
4, 51552, Note_on_c, 1, 66, 73
4, 51597, Note_on_c, 1, 66, 0
4, 51648, Note_on_c, 1, 64, 73
4, 51737, Note_on_c, 1, 64, 0
4, 51840, Note_on_c, 1, 67, 73
4, 51885, Note_on_c, 1, 67, 0
4, 51888, Note_on_c, 1, 70, 73
4, 51933, Note_on_c, 1, 70, 0
4, 52032, Note_on_c, 1, 66, 73
4, 52077, Note_on_c, 1, 66, 0
4, 52128, Note_on_c, 1, 64, 73
4, 52173, Note_on_c, 1, 64, 0
4, 52224, Note_on_c, 1, 62, 73
4, 52313, Note_on_c, 1, 62, 0
4, 52416, Note_on_c, 1, 66, 73
4, 52505, Note_on_c, 1, 66, 0
4, 52512, Note_on_c, 1, 63, 73
4, 52601, Note_on_c, 1, 63, 0
4, 52608, Note_on_c, 1, 64, 73
4, 52697, Note_on_c, 1, 64, 0
4, 52704, Note_on_c, 1, 61, 73
4, 52793, Note_on_c, 1, 61, 0
4, 52800, Note_on_c, 1, 69, 74
4, 52889, Note_on_c, 1, 69, 0
4, 52896, Note_on_c, 1, 66, 74
4, 52985, Note_on_c, 1, 66, 0
4, 52992, Note_on_c, 1, 67, 75
4, 53081, Note_on_c, 1, 67, 0
4, 53088, Note_on_c, 1, 64, 76
4, 53177, Note_on_c, 1, 64, 0
4, 53184, Note_on_c, 1, 66, 76
4, 53273, Note_on_c, 1, 66, 0
4, 53280, Note_on_c, 1, 62, 77
4, 53369, Note_on_c, 1, 62, 0
4, 53376, Note_on_c, 1, 61, 78
4, 53465, Note_on_c, 1, 61, 0
4, 53472, Note_on_c, 1, 57, 78
4, 53561, Note_on_c, 1, 57, 0
4, 53664, Note_on_c, 1, 66, 73
4, 53703, Note_on_c, 1, 66, 0
4, 53760, Note_on_c, 1, 64, 73
4, 53799, Note_on_c, 1, 64, 0
4, 53856, Note_on_c, 1, 62, 73
4, 53895, Note_on_c, 1, 62, 0
4, 53952, Note_on_c, 1, 59, 73
4, 53952, Note_on_c, 1, 55, 73
4, 54041, Note_on_c, 1, 59, 0
4, 54041, Note_on_c, 1, 55, 0
4, 54336, Note_on_c, 1, 67, 74
4, 54375, Note_on_c, 1, 67, 0
4, 54432, Note_on_c, 1, 68, 75
4, 54471, Note_on_c, 1, 68, 0
4, 54528, Note_on_c, 1, 69, 76
4, 54617, Note_on_c, 1, 69, 0
4, 54816, Note_on_c, 1, 66, 73
4, 54855, Note_on_c, 1, 66, 0
4, 54912, Note_on_c, 1, 64, 73
4, 54951, Note_on_c, 1, 64, 0
4, 55008, Note_on_c, 1, 62, 73
4, 55047, Note_on_c, 1, 62, 0
4, 55104, Note_on_c, 1, 59, 73
4, 55104, Note_on_c, 1, 55, 73
4, 55193, Note_on_c, 1, 59, 0
4, 55193, Note_on_c, 1, 55, 0
4, 55488, Note_on_c, 1, 54, 73
4, 55488, Note_on_c, 1, 45, 73
4, 55527, Note_on_c, 1, 54, 0
4, 55527, Note_on_c, 1, 45, 0
4, 55584, Note_on_c, 1, 52, 73
4, 55584, Note_on_c, 1, 45, 73
4, 55623, Note_on_c, 1, 52, 0
4, 55623, Note_on_c, 1, 45, 0
4, 55680, Note_on_c, 1, 50, 73
4, 55769, Note_on_c, 1, 50, 0
4, 55776, Note_on_c, 1, 38, 73
4, 55865, Note_on_c, 1, 38, 0
4, 55872, Note_on_c, 1, 69, 73
4, 55917, Note_on_c, 1, 69, 0
4, 55920, Note_on_c, 1, 72, 73
4, 55965, Note_on_c, 1, 72, 0
4, 56064, Note_on_c, 1, 67, 73
4, 56109, Note_on_c, 1, 67, 0
4, 56160, Note_on_c, 1, 66, 73
4, 56205, Note_on_c, 1, 66, 0
4, 56256, Note_on_c, 1, 64, 73
4, 56345, Note_on_c, 1, 64, 0
4, 56448, Note_on_c, 1, 67, 73
4, 56493, Note_on_c, 1, 67, 0
4, 56496, Note_on_c, 1, 70, 73
4, 56541, Note_on_c, 1, 70, 0
4, 56640, Note_on_c, 1, 66, 73
4, 56685, Note_on_c, 1, 66, 0
4, 56736, Note_on_c, 1, 64, 73
4, 56781, Note_on_c, 1, 64, 0
4, 56832, Note_on_c, 1, 62, 73
4, 56921, Note_on_c, 1, 62, 0
4, 57024, Note_on_c, 1, 66, 73
4, 57113, Note_on_c, 1, 66, 0
4, 57120, Note_on_c, 1, 63, 73
4, 57209, Note_on_c, 1, 63, 0
4, 57216, Note_on_c, 1, 64, 73
4, 57305, Note_on_c, 1, 64, 0
4, 57312, Note_on_c, 1, 61, 73
4, 57401, Note_on_c, 1, 61, 0
4, 57408, Note_on_c, 1, 69, 74
4, 57497, Note_on_c, 1, 69, 0
4, 57504, Note_on_c, 1, 66, 74
4, 57593, Note_on_c, 1, 66, 0
4, 57600, Note_on_c, 1, 67, 75
4, 57689, Note_on_c, 1, 67, 0
4, 57696, Note_on_c, 1, 64, 76
4, 57785, Note_on_c, 1, 64, 0
4, 57792, Note_on_c, 1, 66, 76
4, 57881, Note_on_c, 1, 66, 0
4, 57888, Note_on_c, 1, 62, 77
4, 57977, Note_on_c, 1, 62, 0
4, 57984, Note_on_c, 1, 61, 78
4, 58073, Note_on_c, 1, 61, 0
4, 58080, Note_on_c, 1, 57, 78
4, 58169, Note_on_c, 1, 57, 0
4, 58272, Note_on_c, 1, 66, 73
4, 58311, Note_on_c, 1, 66, 0
4, 58368, Note_on_c, 1, 64, 73
4, 58407, Note_on_c, 1, 64, 0
4, 58464, Note_on_c, 1, 62, 73
4, 58503, Note_on_c, 1, 62, 0
4, 58560, Note_on_c, 1, 59, 73
4, 58560, Note_on_c, 1, 55, 73
4, 58649, Note_on_c, 1, 59, 0
4, 58649, Note_on_c, 1, 55, 0
4, 58944, Note_on_c, 1, 67, 74
4, 58983, Note_on_c, 1, 67, 0
4, 59040, Note_on_c, 1, 68, 75
4, 59079, Note_on_c, 1, 68, 0
4, 59136, Note_on_c, 1, 69, 76
4, 59225, Note_on_c, 1, 69, 0
4, 59424, Note_on_c, 1, 66, 73
4, 59463, Note_on_c, 1, 66, 0
4, 59520, Note_on_c, 1, 64, 73
4, 59559, Note_on_c, 1, 64, 0
4, 59616, Note_on_c, 1, 62, 73
4, 59655, Note_on_c, 1, 62, 0
4, 59712, Note_on_c, 1, 59, 73
4, 59712, Note_on_c, 1, 55, 73
4, 59801, Note_on_c, 1, 59, 0
4, 59801, Note_on_c, 1, 55, 0
4, 60096, Note_on_c, 1, 54, 73
4, 60096, Note_on_c, 1, 45, 73
4, 60135, Note_on_c, 1, 54, 0
4, 60135, Note_on_c, 1, 45, 0
4, 60192, Note_on_c, 1, 52, 73
4, 60192, Note_on_c, 1, 45, 73
4, 60231, Note_on_c, 1, 52, 0
4, 60231, Note_on_c, 1, 45, 0
4, 60288, Note_on_c, 1, 50, 73
4, 60377, Note_on_c, 1, 50, 0
4, 60384, Note_on_c, 1, 38, 73
4, 60473, Note_on_c, 1, 38, 0
4, 60576, Note_on_c, 1, 50, 73
4, 60841, Note_on_c, 1, 50, 0
4, 60864, Note_on_c, 1, 43, 73
4, 60903, Note_on_c, 1, 43, 0
4, 61152, Note_on_c, 1, 57, 73
4, 61344, Note_on_c, 1, 57, 0
4, 61344, Note_on_c, 1, 59, 73
4, 61433, Note_on_c, 1, 59, 0
4, 61440, Note_on_c, 1, 61, 73
4, 61529, Note_on_c, 1, 61, 0
4, 61728, Note_on_c, 1, 50, 73
4, 61993, Note_on_c, 1, 50, 0
4, 62016, Note_on_c, 1, 43, 73
4, 62055, Note_on_c, 1, 43, 0
4, 62304, Note_on_c, 1, 45, 73
4, 62569, Note_on_c, 1, 45, 0
4, 62592, Note_on_c, 1, 47, 73
4, 62592, Note_on_c, 1, 35, 73
4, 63057, Note_on_c, 1, 47, 0
4, 63057, Note_on_c, 1, 35, 0
4, 63072, Note_on_c, 1, 33, 73
4, 63161, Note_on_c, 1, 33, 0
4, 63168, Note_on_c, 1, 45, 73
4, 63345, Note_on_c, 1, 45, 0
4, 63360, Note_on_c, 1, 33, 75
4, 63449, Note_on_c, 1, 33, 0
4, 63456, Note_on_c, 1, 45, 76
4, 63633, Note_on_c, 1, 45, 0
4, 63648, Note_on_c, 1, 33, 78
4, 63737, Note_on_c, 1, 33, 0
4, 63744, Note_on_c, 1, 45, 79
4, 63921, Note_on_c, 1, 45, 0
4, 63936, Note_on_c, 1, 33, 81
4, 64025, Note_on_c, 1, 33, 0
4, 64032, Note_on_c, 1, 35, 82
4, 64297, Note_on_c, 1, 35, 0
4, 64320, Note_on_c, 1, 47, 86
4, 64320, Note_on_c, 1, 35, 86
4, 64785, Note_on_c, 1, 47, 0
4, 64785, Note_on_c, 1, 35, 0
4, 64800, Note_on_c, 1, 66, 73
4, 64889, Note_on_c, 1, 66, 0
4, 64896, Note_on_c, 1, 67, 73
4, 65073, Note_on_c, 1, 67, 0
4, 65088, Note_on_c, 1, 63, 73
4, 65177, Note_on_c, 1, 63, 0
4, 65184, Note_on_c, 1, 64, 73
4, 65273, Note_on_c, 1, 64, 0
4, 65280, Note_on_c, 1, 61, 73
4, 65369, Note_on_c, 1, 61, 0
4, 65376, Note_on_c, 1, 62, 73
4, 65465, Note_on_c, 1, 62, 0
4, 65472, Note_on_c, 1, 67, 73
4, 65472, Note_on_c, 1, 55, 73
4, 65561, Note_on_c, 1, 67, 0
4, 65561, Note_on_c, 1, 55, 0
4, 65568, Note_on_c, 1, 66, 73
4, 65568, Note_on_c, 1, 57, 73
4, 65657, Note_on_c, 1, 66, 0
4, 65657, Note_on_c, 1, 57, 0
4, 65664, Note_on_c, 1, 64, 73
4, 65664, Note_on_c, 1, 57, 73
4, 65753, Note_on_c, 1, 64, 0
4, 65753, Note_on_c, 1, 57, 0
4, 65760, Note_on_c, 1, 62, 73
4, 65760, Note_on_c, 1, 59, 73
4, 65854, Note_on_c, 1, 62, 0
4, 65854, Note_on_c, 1, 59, 0
4, 65952, Note_on_c, 1, 56, 73
4, 65952, Note_on_c, 1, 50, 73
4, 66137, Note_on_c, 1, 56, 0
4, 66137, Note_on_c, 1, 50, 0
4, 66144, Note_on_c, 1, 57, 70
4, 66144, Note_on_c, 1, 49, 70
4, 66233, Note_on_c, 1, 57, 0
4, 66233, Note_on_c, 1, 49, 0
4, 66240, Note_on_c, 1, 62, 68
4, 66240, Note_on_c, 1, 56, 68
4, 66425, Note_on_c, 1, 62, 0
4, 66425, Note_on_c, 1, 56, 0
4, 66432, Note_on_c, 1, 61, 65
4, 66432, Note_on_c, 1, 57, 65
4, 66521, Note_on_c, 1, 61, 0
4, 66521, Note_on_c, 1, 57, 0
4, 66528, Note_on_c, 1, 68, 64
4, 66528, Note_on_c, 1, 62, 64
4, 66713, Note_on_c, 1, 68, 0
4, 66713, Note_on_c, 1, 62, 0
4, 66720, Note_on_c, 1, 69, 61
4, 66720, Note_on_c, 1, 61, 61
4, 66809, Note_on_c, 1, 69, 0
4, 66809, Note_on_c, 1, 61, 0
4, 66816, Note_on_c, 1, 74, 59
4, 66816, Note_on_c, 1, 68, 59
4, 67001, Note_on_c, 1, 74, 0
4, 67001, Note_on_c, 1, 68, 0
4, 67008, Note_on_c, 1, 73, 56
4, 67008, Note_on_c, 1, 69, 56
4, 67097, Note_on_c, 1, 73, 0
4, 67097, Note_on_c, 1, 69, 0
4, 67488, Note_on_c, 1, 62, 78
4, 67488, Note_on_c, 1, 54, 78
4, 67577, Note_on_c, 1, 62, 0
4, 67577, Note_on_c, 1, 54, 0
4, 67584, Note_on_c, 1, 61, 78
4, 67584, Note_on_c, 1, 52, 78
4, 67673, Note_on_c, 1, 61, 0
4, 67673, Note_on_c, 1, 52, 0
4, 67680, Note_on_c, 1, 62, 78
4, 67680, Note_on_c, 1, 50, 78
4, 67769, Note_on_c, 1, 62, 0
4, 67769, Note_on_c, 1, 50, 0
4, 67776, Note_on_c, 1, 55, 78
4, 67788, Note_on_c, 1, 59, 78
4, 67800, Note_on_c, 1, 62, 78
4, 67812, Note_on_c, 1, 67, 78
4, 67865, Note_on_c, 1, 67, 0
4, 67865, Note_on_c, 1, 62, 0
4, 67865, Note_on_c, 1, 59, 0
4, 67865, Note_on_c, 1, 55, 0
4, 68064, Note_on_c, 1, 57, 73
4, 68241, Note_on_c, 1, 57, 0
4, 68256, Note_on_c, 1, 59, 73
4, 68345, Note_on_c, 1, 59, 0
4, 68352, Note_on_c, 1, 61, 73
4, 68441, Note_on_c, 1, 61, 0
4, 68640, Note_on_c, 1, 66, 65
4, 68679, Note_on_c, 1, 66, 0
4, 68736, Note_on_c, 1, 64, 64
4, 68775, Note_on_c, 1, 64, 0
4, 68832, Note_on_c, 1, 62, 62
4, 68871, Note_on_c, 1, 62, 0
4, 68928, Note_on_c, 1, 59, 61
4, 68928, Note_on_c, 1, 55, 61
4, 69017, Note_on_c, 1, 59, 0
4, 69017, Note_on_c, 1, 55, 0
4, 69408, Note_on_c, 1, 55, 78
4, 69408, Note_on_c, 1, 52, 78
4, 69408, Note_on_c, 1, 45, 78
4, 69447, Note_on_c, 1, 55, 0
4, 69447, Note_on_c, 1, 52, 0
4, 69447, Note_on_c, 1, 45, 0
4, 69504, Note_on_c, 1, 54, 78
4, 69504, Note_on_c, 1, 50, 78
4, 69504, Note_on_c, 1, 38, 78
4, 69593, Note_on_c, 1, 54, 0
4, 69593, Note_on_c, 1, 50, 0
4, 69593, Note_on_c, 1, 38, 0
4, 69792, Note_on_c, 1, 38, 0
4, 69881, Note_on_c, 1, 38, 0
4, 69888, End_track
5, 0, Start_track
5, 0, Program_c, 1, 0
5, 0, Control_c, 1, 7, 127
5, 0, Control_c, 1, 10, 64
5, 2688, Note_on_c, 1, 69, 64
5, 2865, Note_on_c, 1, 69, 0
5, 3072, Note_on_c, 1, 53, 61
5, 3161, Note_on_c, 1, 53, 0
5, 3168, Note_on_c, 1, 53, 61
5, 3257, Note_on_c, 1, 53, 0
5, 3264, Note_on_c, 1, 53, 61
5, 3353, Note_on_c, 1, 53, 0
5, 3360, Note_on_c, 1, 53, 61
5, 3449, Note_on_c, 1, 53, 0
5, 3456, Note_on_c, 1, 55, 61
5, 3545, Note_on_c, 1, 55, 0
5, 3552, Note_on_c, 1, 55, 61
5, 3641, Note_on_c, 1, 55, 0
5, 3648, Note_on_c, 1, 55, 61
5, 3737, Note_on_c, 1, 55, 0
5, 3744, Note_on_c, 1, 55, 61
5, 3833, Note_on_c, 1, 55, 0
5, 3840, Note_on_c, 1, 52, 61
5, 3929, Note_on_c, 1, 52, 0
5, 3936, Note_on_c, 1, 52, 61
5, 4025, Note_on_c, 1, 52, 0
5, 4032, Note_on_c, 1, 52, 61
5, 4121, Note_on_c, 1, 52, 0
5, 4128, Note_on_c, 1, 52, 61
5, 4217, Note_on_c, 1, 52, 0
5, 4224, Note_on_c, 1, 53, 61
5, 4313, Note_on_c, 1, 53, 0
5, 4320, Note_on_c, 1, 53, 61
5, 4409, Note_on_c, 1, 53, 0
5, 4416, Note_on_c, 1, 53, 61
5, 4505, Note_on_c, 1, 53, 0
5, 4512, Note_on_c, 1, 53, 61
5, 4601, Note_on_c, 1, 53, 0
5, 4608, Note_on_c, 1, 53, 61
5, 4697, Note_on_c, 1, 53, 0
5, 4704, Note_on_c, 1, 53, 61
5, 4793, Note_on_c, 1, 53, 0
5, 4800, Note_on_c, 1, 53, 61
5, 4889, Note_on_c, 1, 53, 0
5, 4896, Note_on_c, 1, 53, 61
5, 4985, Note_on_c, 1, 53, 0
5, 4992, Note_on_c, 1, 53, 61
5, 5081, Note_on_c, 1, 53, 0
5, 5088, Note_on_c, 1, 53, 61
5, 5177, Note_on_c, 1, 53, 0
5, 5184, Note_on_c, 1, 53, 61
5, 5273, Note_on_c, 1, 53, 0
5, 5280, Note_on_c, 1, 53, 61
5, 5369, Note_on_c, 1, 53, 0
5, 5376, Note_on_c, 1, 52, 61
5, 5465, Note_on_c, 1, 52, 0
5, 5472, Note_on_c, 1, 52, 61
5, 5561, Note_on_c, 1, 52, 0
5, 5568, Note_on_c, 1, 53, 61
5, 5657, Note_on_c, 1, 53, 0
5, 6144, Note_on_c, 1, 58, 61
5, 6233, Note_on_c, 1, 58, 0
5, 6240, Note_on_c, 1, 58, 61
5, 6329, Note_on_c, 1, 58, 0
5, 6336, Note_on_c, 1, 57, 61
5, 6425, Note_on_c, 1, 57, 0
5, 6432, Note_on_c, 1, 57, 61
5, 6521, Note_on_c, 1, 57, 0
5, 6528, Note_on_c, 1, 58, 61
5, 6617, Note_on_c, 1, 58, 0
5, 6624, Note_on_c, 1, 58, 61
5, 6713, Note_on_c, 1, 58, 0
5, 6720, Note_on_c, 1, 57, 61
5, 6809, Note_on_c, 1, 57, 0
5, 6816, Note_on_c, 1, 57, 61
5, 6905, Note_on_c, 1, 57, 0
5, 6912, Note_on_c, 1, 58, 61
5, 7001, Note_on_c, 1, 58, 0
5, 7008, Note_on_c, 1, 58, 61
5, 7097, Note_on_c, 1, 58, 0
5, 7104, Note_on_c, 1, 57, 61
5, 7193, Note_on_c, 1, 57, 0
5, 7200, Note_on_c, 1, 57, 61
5, 7289, Note_on_c, 1, 57, 0
5, 7296, Note_on_c, 1, 58, 61
5, 7385, Note_on_c, 1, 58, 0
5, 7392, Note_on_c, 1, 58, 61
5, 7481, Note_on_c, 1, 58, 0
5, 7488, Note_on_c, 1, 58, 61
5, 7577, Note_on_c, 1, 58, 0
5, 7584, Note_on_c, 1, 58, 61
5, 7673, Note_on_c, 1, 58, 0
5, 7680, Note_on_c, 1, 60, 61
5, 7769, Note_on_c, 1, 60, 0
5, 7776, Note_on_c, 1, 60, 61
5, 7865, Note_on_c, 1, 60, 0
5, 7872, Note_on_c, 1, 60, 61
5, 7961, Note_on_c, 1, 60, 0
5, 7968, Note_on_c, 1, 60, 61
5, 8057, Note_on_c, 1, 60, 0
5, 8256, Note_on_c, 1, 45, 61
5, 8345, Note_on_c, 1, 45, 0
5, 8352, Note_on_c, 1, 45, 61
5, 8441, Note_on_c, 1, 45, 0
5, 9216, Note_on_c, 1, 62, 61
5, 9305, Note_on_c, 1, 62, 0
5, 9312, Note_on_c, 1, 62, 61
5, 9401, Note_on_c, 1, 62, 0
5, 9408, Note_on_c, 1, 62, 61
5, 9497, Note_on_c, 1, 62, 0
5, 9504, Note_on_c, 1, 62, 61
5, 9593, Note_on_c, 1, 62, 0
5, 9600, Note_on_c, 1, 62, 61
5, 9689, Note_on_c, 1, 62, 0
5, 9696, Note_on_c, 1, 62, 61
5, 9785, Note_on_c, 1, 62, 0
5, 9792, Note_on_c, 1, 60, 61
5, 9881, Note_on_c, 1, 60, 0
5, 9888, Note_on_c, 1, 60, 61
5, 9977, Note_on_c, 1, 60, 0
5, 9984, Note_on_c, 1, 58, 61
5, 10073, Note_on_c, 1, 58, 0
5, 10080, Note_on_c, 1, 58, 61
5, 10169, Note_on_c, 1, 58, 0
5, 10176, Note_on_c, 1, 58, 61
5, 10265, Note_on_c, 1, 58, 0
5, 10272, Note_on_c, 1, 58, 61
5, 10361, Note_on_c, 1, 58, 0
5, 10368, Note_on_c, 1, 58, 61
5, 10457, Note_on_c, 1, 58, 0
5, 10464, Note_on_c, 1, 58, 61
5, 10553, Note_on_c, 1, 58, 0
5, 10560, Note_on_c, 1, 58, 61
5, 10649, Note_on_c, 1, 58, 0
5, 10656, Note_on_c, 1, 58, 61
5, 10745, Note_on_c, 1, 58, 0
5, 10752, Note_on_c, 1, 57, 61
5, 10841, Note_on_c, 1, 57, 0
5, 10848, Note_on_c, 1, 57, 61
5, 10937, Note_on_c, 1, 57, 0
5, 10944, Note_on_c, 1, 57, 61
5, 11033, Note_on_c, 1, 57, 0
5, 11040, Note_on_c, 1, 57, 61
5, 11129, Note_on_c, 1, 57, 0
5, 11136, Note_on_c, 1, 57, 61
5, 11225, Note_on_c, 1, 57, 0
5, 11232, Note_on_c, 1, 57, 61
5, 11321, Note_on_c, 1, 57, 0
5, 11328, Note_on_c, 1, 55, 61
5, 11417, Note_on_c, 1, 55, 0
5, 11424, Note_on_c, 1, 55, 61
5, 11513, Note_on_c, 1, 55, 0
5, 11520, Note_on_c, 1, 55, 61
5, 11609, Note_on_c, 1, 55, 0
5, 11616, Note_on_c, 1, 55, 61
5, 11705, Note_on_c, 1, 55, 0
5, 11712, Note_on_c, 1, 53, 61
5, 11801, Note_on_c, 1, 53, 0
5, 11808, Note_on_c, 1, 53, 61
5, 11897, Note_on_c, 1, 53, 0
5, 11904, Note_on_c, 1, 55, 61
5, 11993, Note_on_c, 1, 55, 0
5, 12000, Note_on_c, 1, 55, 61
5, 12089, Note_on_c, 1, 55, 0
5, 12096, Note_on_c, 1, 53, 61
5, 12185, Note_on_c, 1, 53, 0
5, 12192, Note_on_c, 1, 53, 61
5, 12281, Note_on_c, 1, 53, 0
5, 12288, Note_on_c, 1, 55, 61
5, 12377, Note_on_c, 1, 55, 0
5, 12384, Note_on_c, 1, 55, 61
5, 12473, Note_on_c, 1, 55, 0
5, 12480, Note_on_c, 1, 53, 61
5, 12569, Note_on_c, 1, 53, 0
5, 12576, Note_on_c, 1, 53, 61
5, 12665, Note_on_c, 1, 53, 0
5, 12672, Note_on_c, 1, 55, 61
5, 12761, Note_on_c, 1, 55, 0
5, 12768, Note_on_c, 1, 55, 65
5, 12857, Note_on_c, 1, 55, 0
5, 12864, Note_on_c, 1, 56, 69
5, 12953, Note_on_c, 1, 56, 0
5, 12960, Note_on_c, 1, 56, 73
5, 13049, Note_on_c, 1, 56, 0
5, 13056, Note_on_c, 1, 57, 78
5, 13145, Note_on_c, 1, 57, 0
5, 13152, Note_on_c, 1, 57, 78
5, 13241, Note_on_c, 1, 57, 0
5, 13248, Note_on_c, 1, 57, 78
5, 13337, Note_on_c, 1, 57, 0
5, 13344, Note_on_c, 1, 57, 78
5, 13433, Note_on_c, 1, 57, 0
5, 13440, Note_on_c, 1, 57, 78
5, 13529, Note_on_c, 1, 57, 0
5, 13536, Note_on_c, 1, 45, 78
5, 13625, Note_on_c, 1, 45, 0
5, 13632, Note_on_c, 1, 45, 78
5, 13721, Note_on_c, 1, 45, 0
5, 13728, Note_on_c, 1, 45, 78
5, 13817, Note_on_c, 1, 45, 0
5, 13824, Note_on_c, 1, 45, 78
5, 13913, Note_on_c, 1, 45, 0
5, 13992, Note_on_c, 1, 45, 78
5, 14015, Note_on_c, 1, 45, 0
5, 14016, Note_on_c, 1, 33, 78
5, 14297, Note_on_c, 1, 33, 0
5, 16800, Note_on_c, 1, 62, 73
5, 17065, Note_on_c, 1, 62, 0
5, 23712, Note_on_c, 1, 62, 73
5, 23977, Note_on_c, 1, 62, 0
5, 52416, Note_on_c, 1, 57, 78
5, 53465, Note_on_c, 1, 57, 0
5, 57024, Note_on_c, 1, 57, 78
5, 58073, Note_on_c, 1, 57, 0
5, 64128, Note_on_c, 1, 47, 78
5, 64217, Note_on_c, 1, 47, 0
5, 64224, Note_on_c, 1, 47, 78
5, 64313, Note_on_c, 1, 47, 0
5, 69792, End_track
6, 0, Start_track
6, 0, Title_t, "Sonata I   Haydn  "
6, 0, End_track
0, 0, End_of_file
