0, 0, Header, 1, 6, 96
1, 0, Start_track
1, 0, Copyright_t, "Copyright  1994-2002 Mozart Music Software"
1, 0, Text_t, "Sonata I\015\012"
1, 0, Text_t, "Haydn\015\012"
1, 0, Sequencer_specific, 16, 68, 87, 77, 90, 86, 82, 83, 78, 32, 55, 46, 48, 46, 55, 46, 48
1, 0, Time_signature, 3, 2, 24, 8
1, 0, Tempo, 387096
1, 0, Key_signature, 1, "major"
1, 45504, End_track
2, 0, Start_track
2, 0, Program_c, 0, 0
2, 0, Control_c, 0, 7, 127
2, 0, Control_c, 0, 10, 64
2, 0, Note_on_c, 0, 67, 80
2, 89, Note_on_c, 0, 67, 0
2, 96, Note_on_c, 0, 67, 80
2, 141, Note_on_c, 0, 67, 0
2, 144, Note_on_c, 0, 66, 80
2, 189, Note_on_c, 0, 66, 0
2, 192, Note_on_c, 0, 67, 80
2, 237, Note_on_c, 0, 67, 0
2, 240, Note_on_c, 0, 69, 80
2, 285, Note_on_c, 0, 69, 0
2, 288, Note_on_c, 0, 71, 80
2, 327, Note_on_c, 0, 71, 0
2, 384, Note_on_c, 0, 67, 80
2, 423, Note_on_c, 0, 67, 0
2, 480, Note_on_c, 0, 74, 80
2, 525, Note_on_c, 0, 74, 0
2, 528, Note_on_c, 0, 71, 80
2, 573, Note_on_c, 0, 71, 0
2, 576, Note_on_c, 0, 67, 80
2, 615, Note_on_c, 0, 67, 0
2, 672, Note_on_c, 0, 62, 80
2, 711, Note_on_c, 0, 62, 0
2, 768, Note_on_c, 0, 71, 80
2, 807, Note_on_c, 0, 71, 0
2, 864, Note_on_c, 0, 67, 80
2, 881, Note_on_c, 0, 67, 0
2, 882, Note_on_c, 0, 69, 80
2, 899, Note_on_c, 0, 69, 0
2, 900, Note_on_c, 0, 67, 80
2, 917, Note_on_c, 0, 67, 0
2, 918, Note_on_c, 0, 69, 80
2, 935, Note_on_c, 0, 69, 0
2, 936, Note_on_c, 0, 67, 80
2, 953, Note_on_c, 0, 67, 0
2, 954, Note_on_c, 0, 69, 80
2, 970, Note_on_c, 0, 69, 0
2, 971, Note_on_c, 0, 67, 80
2, 987, Note_on_c, 0, 67, 0
2, 988, Note_on_c, 0, 69, 80
2, 1004, Note_on_c, 0, 69, 0
2, 1005, Note_on_c, 0, 67, 80
2, 1021, Note_on_c, 0, 67, 0
2, 1022, Note_on_c, 0, 66, 80
2, 1038, Note_on_c, 0, 66, 0
2, 1039, Note_on_c, 0, 67, 80
2, 1055, Note_on_c, 0, 67, 0
2, 1056, Note_on_c, 0, 83, 75
2, 1101, Note_on_c, 0, 83, 0
2, 1104, Note_on_c, 0, 74, 75
2, 1149, Note_on_c, 0, 74, 0
2, 1152, Note_on_c, 0, 84, 91
2, 1200, Note_on_c, 0, 84, 0
2, 1200, Note_on_c, 0, 81, 75
2, 1245, Note_on_c, 0, 81, 0
2, 1248, Note_on_c, 0, 78, 75
2, 1293, Note_on_c, 0, 78, 0
2, 1296, Note_on_c, 0, 74, 75
2, 1341, Note_on_c, 0, 74, 0
2, 1344, Note_on_c, 0, 83, 91
2, 1392, Note_on_c, 0, 83, 0
2, 1392, Note_on_c, 0, 79, 75
2, 1437, Note_on_c, 0, 79, 0
2, 1440, Note_on_c, 0, 84, 91
2, 1488, Note_on_c, 0, 84, 0
2, 1488, Note_on_c, 0, 81, 75
2, 1533, Note_on_c, 0, 81, 0
2, 1536, Note_on_c, 0, 78, 75
2, 1581, Note_on_c, 0, 78, 0
2, 1584, Note_on_c, 0, 74, 75
2, 1629, Note_on_c, 0, 74, 0
2, 1632, Note_on_c, 0, 83, 91
2, 1680, Note_on_c, 0, 83, 0
2, 1680, Note_on_c, 0, 79, 75
2, 1725, Note_on_c, 0, 79, 0
2, 1728, Note_on_c, 0, 74, 75
2, 1728, Note_on_c, 0, 71, 75
2, 1817, Note_on_c, 0, 74, 0
2, 1817, Note_on_c, 0, 71, 0
2, 1824, Note_on_c, 0, 72, 75
2, 1824, Note_on_c, 0, 69, 75
2, 1913, Note_on_c, 0, 72, 0
2, 1913, Note_on_c, 0, 69, 0
2, 1920, Note_on_c, 0, 71, 75
2, 1920, Note_on_c, 0, 67, 75
2, 2009, Note_on_c, 0, 71, 0
2, 2009, Note_on_c, 0, 67, 0
2, 2016, Note_on_c, 0, 69, 75
2, 2016, Note_on_c, 0, 66, 75
2, 2105, Note_on_c, 0, 69, 0
2, 2105, Note_on_c, 0, 66, 0
2, 2304, Note_on_c, 0, 67, 80
2, 2393, Note_on_c, 0, 67, 0
2, 2400, Note_on_c, 0, 67, 80
2, 2445, Note_on_c, 0, 67, 0
2, 2448, Note_on_c, 0, 66, 80
2, 2493, Note_on_c, 0, 66, 0
2, 2496, Note_on_c, 0, 67, 80
2, 2541, Note_on_c, 0, 67, 0
2, 2544, Note_on_c, 0, 69, 80
2, 2589, Note_on_c, 0, 69, 0
2, 2592, Note_on_c, 0, 71, 80
2, 2631, Note_on_c, 0, 71, 0
2, 2688, Note_on_c, 0, 67, 80
2, 2727, Note_on_c, 0, 67, 0
2, 2784, Note_on_c, 0, 74, 80
2, 2829, Note_on_c, 0, 74, 0
2, 2832, Note_on_c, 0, 71, 80
2, 2877, Note_on_c, 0, 71, 0
2, 2880, Note_on_c, 0, 67, 80
2, 2919, Note_on_c, 0, 67, 0
2, 2976, Note_on_c, 0, 62, 80
2, 3015, Note_on_c, 0, 62, 0
2, 3072, Note_on_c, 0, 71, 80
2, 3111, Note_on_c, 0, 71, 0
2, 3168, Note_on_c, 0, 67, 80
2, 3185, Note_on_c, 0, 67, 0
2, 3186, Note_on_c, 0, 69, 80
2, 3203, Note_on_c, 0, 69, 0
2, 3204, Note_on_c, 0, 67, 80
2, 3221, Note_on_c, 0, 67, 0
2, 3222, Note_on_c, 0, 69, 80
2, 3239, Note_on_c, 0, 69, 0
2, 3240, Note_on_c, 0, 67, 80
2, 3257, Note_on_c, 0, 67, 0
2, 3258, Note_on_c, 0, 69, 80
2, 3274, Note_on_c, 0, 69, 0
2, 3275, Note_on_c, 0, 67, 80
2, 3291, Note_on_c, 0, 67, 0
2, 3292, Note_on_c, 0, 69, 80
2, 3308, Note_on_c, 0, 69, 0
2, 3309, Note_on_c, 0, 67, 80
2, 3325, Note_on_c, 0, 67, 0
2, 3326, Note_on_c, 0, 66, 80
2, 3342, Note_on_c, 0, 66, 0
2, 3343, Note_on_c, 0, 67, 80
2, 3359, Note_on_c, 0, 67, 0
2, 3360, Note_on_c, 0, 83, 75
2, 3405, Note_on_c, 0, 83, 0
2, 3408, Note_on_c, 0, 74, 75
2, 3453, Note_on_c, 0, 74, 0
2, 3456, Note_on_c, 0, 84, 91
2, 3504, Note_on_c, 0, 84, 0
2, 3504, Note_on_c, 0, 81, 75
2, 3549, Note_on_c, 0, 81, 0
2, 3552, Note_on_c, 0, 78, 75
2, 3597, Note_on_c, 0, 78, 0
2, 3600, Note_on_c, 0, 74, 75
2, 3645, Note_on_c, 0, 74, 0
2, 3648, Note_on_c, 0, 83, 91
2, 3696, Note_on_c, 0, 83, 0
2, 3696, Note_on_c, 0, 79, 75
2, 3741, Note_on_c, 0, 79, 0
2, 3744, Note_on_c, 0, 84, 91
2, 3792, Note_on_c, 0, 84, 0
2, 3792, Note_on_c, 0, 81, 75
2, 3837, Note_on_c, 0, 81, 0
2, 3840, Note_on_c, 0, 78, 75
2, 3885, Note_on_c, 0, 78, 0
2, 3888, Note_on_c, 0, 74, 75
2, 3933, Note_on_c, 0, 74, 0
2, 3936, Note_on_c, 0, 83, 91
2, 3984, Note_on_c, 0, 83, 0
2, 3984, Note_on_c, 0, 79, 75
2, 4029, Note_on_c, 0, 79, 0
2, 4032, Note_on_c, 0, 74, 75
2, 4032, Note_on_c, 0, 71, 75
2, 4121, Note_on_c, 0, 74, 0
2, 4121, Note_on_c, 0, 71, 0
2, 4128, Note_on_c, 0, 72, 75
2, 4128, Note_on_c, 0, 69, 75
2, 4217, Note_on_c, 0, 72, 0
2, 4217, Note_on_c, 0, 69, 0
2, 4224, Note_on_c, 0, 71, 75
2, 4224, Note_on_c, 0, 67, 75
2, 4313, Note_on_c, 0, 71, 0
2, 4313, Note_on_c, 0, 67, 0
2, 4320, Note_on_c, 0, 69, 75
2, 4320, Note_on_c, 0, 66, 75
2, 4409, Note_on_c, 0, 69, 0
2, 4409, Note_on_c, 0, 66, 0
2, 4608, Note_on_c, 0, 74, 75
2, 4697, Note_on_c, 0, 74, 0
2, 4704, Note_on_c, 0, 78, 75
2, 4749, Note_on_c, 0, 78, 0
2, 4752, Note_on_c, 0, 76, 75
2, 4797, Note_on_c, 0, 76, 0
2, 4800, Note_on_c, 0, 78, 75
2, 4845, Note_on_c, 0, 78, 0
2, 4848, Note_on_c, 0, 79, 75
2, 4893, Note_on_c, 0, 79, 0
2, 4896, Note_on_c, 0, 81, 75
2, 5073, Note_on_c, 0, 81, 0
2, 5088, Note_on_c, 0, 84, 75
2, 5133, Note_on_c, 0, 84, 0
2, 5136, Note_on_c, 0, 81, 75
2, 5181, Note_on_c, 0, 81, 0
2, 5184, Note_on_c, 0, 83, 75
2, 5273, Note_on_c, 0, 83, 0
2, 5280, Note_on_c, 0, 79, 75
2, 5369, Note_on_c, 0, 79, 0
2, 5376, Note_on_c, 0, 86, 75
2, 5465, Note_on_c, 0, 86, 0
2, 5472, Note_on_c, 0, 79, 75
2, 5484, Note_on_c, 0, 79, 0
2, 5484, Note_on_c, 0, 78, 75
2, 5496, Note_on_c, 0, 78, 0
2, 5496, Note_on_c, 0, 76, 75
2, 5508, Note_on_c, 0, 76, 0
2, 5508, Note_on_c, 0, 78, 75
2, 5649, Note_on_c, 0, 78, 0
2, 5664, Note_on_c, 0, 81, 75
2, 5709, Note_on_c, 0, 81, 0
2, 5712, Note_on_c, 0, 78, 75
2, 5757, Note_on_c, 0, 78, 0
2, 5760, Note_on_c, 0, 79, 75
2, 5805, Note_on_c, 0, 79, 0
2, 5808, Note_on_c, 0, 74, 75
2, 5853, Note_on_c, 0, 74, 0
2, 5856, Note_on_c, 0, 83, 75
2, 5901, Note_on_c, 0, 83, 0
2, 5904, Note_on_c, 0, 79, 75
2, 5949, Note_on_c, 0, 79, 0
2, 5952, Note_on_c, 0, 86, 75
2, 5997, Note_on_c, 0, 86, 0
2, 6000, Note_on_c, 0, 83, 75
2, 6045, Note_on_c, 0, 83, 0
2, 6048, Note_on_c, 0, 81, 75
2, 6137, Note_on_c, 0, 81, 0
2, 6144, Note_on_c, 0, 84, 75
2, 6233, Note_on_c, 0, 84, 0
2, 6240, Note_on_c, 0, 83, 75
2, 6285, Note_on_c, 0, 83, 0
2, 6288, Note_on_c, 0, 79, 75
2, 6333, Note_on_c, 0, 79, 0
2, 6336, Note_on_c, 0, 74, 75
2, 6425, Note_on_c, 0, 74, 0
2, 6432, Note_on_c, 0, 84, 75
2, 6521, Note_on_c, 0, 84, 0
2, 6528, Note_on_c, 0, 83, 75
2, 6573, Note_on_c, 0, 83, 0
2, 6576, Note_on_c, 0, 79, 75
2, 6621, Note_on_c, 0, 79, 0
2, 6624, Note_on_c, 0, 74, 75
2, 6713, Note_on_c, 0, 74, 0
2, 6912, Note_on_c, 0, 67, 80
2, 7001, Note_on_c, 0, 67, 0
2, 7008, Note_on_c, 0, 67, 80
2, 7053, Note_on_c, 0, 67, 0
2, 7056, Note_on_c, 0, 66, 80
2, 7101, Note_on_c, 0, 66, 0
2, 7104, Note_on_c, 0, 67, 80
2, 7149, Note_on_c, 0, 67, 0
2, 7152, Note_on_c, 0, 69, 80
2, 7197, Note_on_c, 0, 69, 0
2, 7200, Note_on_c, 0, 71, 80
2, 7239, Note_on_c, 0, 71, 0
2, 7296, Note_on_c, 0, 67, 80
2, 7335, Note_on_c, 0, 67, 0
2, 7392, Note_on_c, 0, 74, 80
2, 7437, Note_on_c, 0, 74, 0
2, 7440, Note_on_c, 0, 71, 80
2, 7485, Note_on_c, 0, 71, 0
2, 7488, Note_on_c, 0, 67, 80
2, 7527, Note_on_c, 0, 67, 0
2, 7584, Note_on_c, 0, 62, 80
2, 7623, Note_on_c, 0, 62, 0
2, 7680, Note_on_c, 0, 71, 80
2, 7719, Note_on_c, 0, 71, 0
2, 7776, Note_on_c, 0, 67, 80
2, 7793, Note_on_c, 0, 67, 0
2, 7794, Note_on_c, 0, 69, 80
2, 7811, Note_on_c, 0, 69, 0
2, 7812, Note_on_c, 0, 67, 80
2, 7829, Note_on_c, 0, 67, 0
2, 7830, Note_on_c, 0, 69, 80
2, 7847, Note_on_c, 0, 69, 0
2, 7848, Note_on_c, 0, 67, 80
2, 7865, Note_on_c, 0, 67, 0
2, 7866, Note_on_c, 0, 69, 80
2, 7882, Note_on_c, 0, 69, 0
2, 7883, Note_on_c, 0, 67, 80
2, 7899, Note_on_c, 0, 67, 0
2, 7900, Note_on_c, 0, 69, 80
2, 7916, Note_on_c, 0, 69, 0
2, 7917, Note_on_c, 0, 67, 80
2, 7933, Note_on_c, 0, 67, 0
2, 7934, Note_on_c, 0, 66, 80
2, 7950, Note_on_c, 0, 66, 0
2, 7951, Note_on_c, 0, 67, 80
2, 7967, Note_on_c, 0, 67, 0
2, 7968, Note_on_c, 0, 83, 75
2, 8013, Note_on_c, 0, 83, 0
2, 8016, Note_on_c, 0, 74, 75
2, 8061, Note_on_c, 0, 74, 0
2, 8064, Note_on_c, 0, 84, 91
2, 8112, Note_on_c, 0, 84, 0
2, 8112, Note_on_c, 0, 81, 75
2, 8157, Note_on_c, 0, 81, 0
2, 8160, Note_on_c, 0, 78, 75
2, 8205, Note_on_c, 0, 78, 0
2, 8208, Note_on_c, 0, 74, 75
2, 8253, Note_on_c, 0, 74, 0
2, 8256, Note_on_c, 0, 83, 91
2, 8304, Note_on_c, 0, 83, 0
2, 8304, Note_on_c, 0, 79, 75
2, 8349, Note_on_c, 0, 79, 0
2, 8352, Note_on_c, 0, 84, 91
2, 8400, Note_on_c, 0, 84, 0
2, 8400, Note_on_c, 0, 81, 75
2, 8445, Note_on_c, 0, 81, 0
2, 8448, Note_on_c, 0, 78, 75
2, 8493, Note_on_c, 0, 78, 0
2, 8496, Note_on_c, 0, 74, 75
2, 8541, Note_on_c, 0, 74, 0
2, 8544, Note_on_c, 0, 83, 91
2, 8592, Note_on_c, 0, 83, 0
2, 8592, Note_on_c, 0, 79, 75
2, 8637, Note_on_c, 0, 79, 0
2, 8640, Note_on_c, 0, 81, 75
2, 8640, Note_on_c, 0, 72, 75
2, 8729, Note_on_c, 0, 81, 0
2, 8729, Note_on_c, 0, 72, 0
2, 8736, Note_on_c, 0, 79, 75
2, 8736, Note_on_c, 0, 71, 75
2, 8825, Note_on_c, 0, 79, 0
2, 8825, Note_on_c, 0, 71, 0
2, 8832, Note_on_c, 0, 78, 75
2, 8832, Note_on_c, 0, 69, 75
2, 8921, Note_on_c, 0, 78, 0
2, 8921, Note_on_c, 0, 69, 0
2, 8928, Note_on_c, 0, 79, 75
2, 8928, Note_on_c, 0, 67, 75
2, 9017, Note_on_c, 0, 79, 0
2, 9017, Note_on_c, 0, 67, 0
2, 9216, Note_on_c, 0, 74, 75
2, 9305, Note_on_c, 0, 74, 0
2, 9312, Note_on_c, 0, 78, 75
2, 9357, Note_on_c, 0, 78, 0
2, 9360, Note_on_c, 0, 76, 75
2, 9405, Note_on_c, 0, 76, 0
2, 9408, Note_on_c, 0, 78, 75
2, 9453, Note_on_c, 0, 78, 0
2, 9456, Note_on_c, 0, 79, 75
2, 9501, Note_on_c, 0, 79, 0
2, 9504, Note_on_c, 0, 81, 75
2, 9681, Note_on_c, 0, 81, 0
2, 9696, Note_on_c, 0, 84, 75
2, 9741, Note_on_c, 0, 84, 0
2, 9744, Note_on_c, 0, 81, 75
2, 9789, Note_on_c, 0, 81, 0
2, 9792, Note_on_c, 0, 83, 75
2, 9881, Note_on_c, 0, 83, 0
2, 9888, Note_on_c, 0, 79, 75
2, 9977, Note_on_c, 0, 79, 0
2, 9984, Note_on_c, 0, 86, 75
2, 10073, Note_on_c, 0, 86, 0
2, 10080, Note_on_c, 0, 79, 75
2, 10092, Note_on_c, 0, 79, 0
2, 10092, Note_on_c, 0, 78, 75
2, 10104, Note_on_c, 0, 78, 0
2, 10104, Note_on_c, 0, 76, 75
2, 10116, Note_on_c, 0, 76, 0
2, 10116, Note_on_c, 0, 78, 75
2, 10257, Note_on_c, 0, 78, 0
2, 10272, Note_on_c, 0, 81, 75
2, 10317, Note_on_c, 0, 81, 0
2, 10320, Note_on_c, 0, 78, 75
2, 10365, Note_on_c, 0, 78, 0
2, 10368, Note_on_c, 0, 79, 75
2, 10413, Note_on_c, 0, 79, 0
2, 10416, Note_on_c, 0, 74, 75
2, 10461, Note_on_c, 0, 74, 0
2, 10464, Note_on_c, 0, 83, 75
2, 10509, Note_on_c, 0, 83, 0
2, 10512, Note_on_c, 0, 79, 75
2, 10557, Note_on_c, 0, 79, 0
2, 10560, Note_on_c, 0, 86, 75
2, 10605, Note_on_c, 0, 86, 0
2, 10608, Note_on_c, 0, 83, 75
2, 10653, Note_on_c, 0, 83, 0
2, 10656, Note_on_c, 0, 81, 75
2, 10745, Note_on_c, 0, 81, 0
2, 10752, Note_on_c, 0, 84, 75
2, 10841, Note_on_c, 0, 84, 0
2, 10848, Note_on_c, 0, 83, 75
2, 10893, Note_on_c, 0, 83, 0
2, 10896, Note_on_c, 0, 79, 75
2, 10941, Note_on_c, 0, 79, 0
2, 10944, Note_on_c, 0, 74, 75
2, 11033, Note_on_c, 0, 74, 0
2, 11040, Note_on_c, 0, 84, 75
2, 11129, Note_on_c, 0, 84, 0
2, 11136, Note_on_c, 0, 83, 75
2, 11181, Note_on_c, 0, 83, 0
2, 11184, Note_on_c, 0, 79, 75
2, 11229, Note_on_c, 0, 79, 0
2, 11232, Note_on_c, 0, 74, 75
2, 11321, Note_on_c, 0, 74, 0
2, 11520, Note_on_c, 0, 67, 80
2, 11609, Note_on_c, 0, 67, 0
2, 11616, Note_on_c, 0, 67, 80
2, 11661, Note_on_c, 0, 67, 0
2, 11664, Note_on_c, 0, 66, 80
2, 11709, Note_on_c, 0, 66, 0
2, 11712, Note_on_c, 0, 67, 80
2, 11757, Note_on_c, 0, 67, 0
2, 11760, Note_on_c, 0, 69, 80
2, 11805, Note_on_c, 0, 69, 0
2, 11808, Note_on_c, 0, 71, 80
2, 11847, Note_on_c, 0, 71, 0
2, 11904, Note_on_c, 0, 67, 80
2, 11943, Note_on_c, 0, 67, 0
2, 12000, Note_on_c, 0, 74, 80
2, 12045, Note_on_c, 0, 74, 0
2, 12048, Note_on_c, 0, 71, 80
2, 12093, Note_on_c, 0, 71, 0
2, 12096, Note_on_c, 0, 67, 80
2, 12135, Note_on_c, 0, 67, 0
2, 12192, Note_on_c, 0, 62, 80
2, 12231, Note_on_c, 0, 62, 0
2, 12288, Note_on_c, 0, 71, 80
2, 12327, Note_on_c, 0, 71, 0
2, 12384, Note_on_c, 0, 67, 80
2, 12401, Note_on_c, 0, 67, 0
2, 12402, Note_on_c, 0, 69, 80
2, 12419, Note_on_c, 0, 69, 0
2, 12420, Note_on_c, 0, 67, 80
2, 12437, Note_on_c, 0, 67, 0
2, 12438, Note_on_c, 0, 69, 80
2, 12455, Note_on_c, 0, 69, 0
2, 12456, Note_on_c, 0, 67, 80
2, 12473, Note_on_c, 0, 67, 0
2, 12474, Note_on_c, 0, 69, 80
2, 12490, Note_on_c, 0, 69, 0
2, 12491, Note_on_c, 0, 67, 80
2, 12507, Note_on_c, 0, 67, 0
2, 12508, Note_on_c, 0, 69, 80
2, 12524, Note_on_c, 0, 69, 0
2, 12525, Note_on_c, 0, 67, 80
2, 12541, Note_on_c, 0, 67, 0
2, 12542, Note_on_c, 0, 66, 80
2, 12558, Note_on_c, 0, 66, 0
2, 12559, Note_on_c, 0, 67, 80
2, 12575, Note_on_c, 0, 67, 0
2, 12576, Note_on_c, 0, 83, 75
2, 12621, Note_on_c, 0, 83, 0
2, 12624, Note_on_c, 0, 74, 75
2, 12669, Note_on_c, 0, 74, 0
2, 12672, Note_on_c, 0, 84, 91
2, 12720, Note_on_c, 0, 84, 0
2, 12720, Note_on_c, 0, 81, 75
2, 12765, Note_on_c, 0, 81, 0
2, 12768, Note_on_c, 0, 78, 75
2, 12813, Note_on_c, 0, 78, 0
2, 12816, Note_on_c, 0, 74, 75
2, 12861, Note_on_c, 0, 74, 0
2, 12864, Note_on_c, 0, 83, 91
2, 12912, Note_on_c, 0, 83, 0
2, 12912, Note_on_c, 0, 79, 75
2, 12957, Note_on_c, 0, 79, 0
2, 12960, Note_on_c, 0, 84, 91
2, 13008, Note_on_c, 0, 84, 0
2, 13008, Note_on_c, 0, 81, 75
2, 13053, Note_on_c, 0, 81, 0
2, 13056, Note_on_c, 0, 78, 75
2, 13101, Note_on_c, 0, 78, 0
2, 13104, Note_on_c, 0, 74, 75
2, 13149, Note_on_c, 0, 74, 0
2, 13152, Note_on_c, 0, 83, 91
2, 13200, Note_on_c, 0, 83, 0
2, 13200, Note_on_c, 0, 79, 75
2, 13245, Note_on_c, 0, 79, 0
2, 13248, Note_on_c, 0, 81, 75
2, 13248, Note_on_c, 0, 72, 75
2, 13337, Note_on_c, 0, 81, 0
2, 13337, Note_on_c, 0, 72, 0
2, 13344, Note_on_c, 0, 79, 75
2, 13344, Note_on_c, 0, 71, 75
2, 13433, Note_on_c, 0, 79, 0
2, 13433, Note_on_c, 0, 71, 0
2, 13440, Note_on_c, 0, 78, 75
2, 13440, Note_on_c, 0, 69, 75
2, 13529, Note_on_c, 0, 78, 0
2, 13529, Note_on_c, 0, 69, 0
2, 13536, Note_on_c, 0, 79, 75
2, 13536, Note_on_c, 0, 67, 75
2, 13625, Note_on_c, 0, 79, 0
2, 13625, Note_on_c, 0, 67, 0
2, 13920, Note_on_c, 0, 64, 70
2, 14009, Note_on_c, 0, 64, 0
2, 14016, Note_on_c, 0, 67, 70
2, 14046, Note_on_c, 0, 67, 0
2, 14048, Note_on_c, 0, 66, 70
2, 14078, Note_on_c, 0, 66, 0
2, 14080, Note_on_c, 0, 64, 70
2, 14110, Note_on_c, 0, 64, 0
2, 14112, Note_on_c, 0, 71, 70
2, 14201, Note_on_c, 0, 71, 0
2, 14496, Note_on_c, 0, 64, 70
2, 14585, Note_on_c, 0, 64, 0
2, 14592, Note_on_c, 0, 67, 70
2, 14622, Note_on_c, 0, 67, 0
2, 14624, Note_on_c, 0, 66, 70
2, 14654, Note_on_c, 0, 66, 0
2, 14656, Note_on_c, 0, 64, 70
2, 14686, Note_on_c, 0, 64, 0
2, 14688, Note_on_c, 0, 71, 70
2, 14777, Note_on_c, 0, 71, 0
2, 15072, Note_on_c, 0, 59, 70
2, 15161, Note_on_c, 0, 59, 0
2, 15168, Note_on_c, 0, 63, 70
2, 15198, Note_on_c, 0, 63, 0
2, 15200, Note_on_c, 0, 61, 70
2, 15230, Note_on_c, 0, 61, 0
2, 15232, Note_on_c, 0, 59, 70
2, 15262, Note_on_c, 0, 59, 0
2, 15264, Note_on_c, 0, 69, 70
2, 15353, Note_on_c, 0, 69, 0
2, 15648, Note_on_c, 0, 59, 70
2, 15737, Note_on_c, 0, 59, 0
2, 15744, Note_on_c, 0, 63, 70
2, 15774, Note_on_c, 0, 63, 0
2, 15776, Note_on_c, 0, 61, 70
2, 15806, Note_on_c, 0, 61, 0
2, 15808, Note_on_c, 0, 59, 70
2, 15838, Note_on_c, 0, 59, 0
2, 15840, Note_on_c, 0, 69, 70
2, 15929, Note_on_c, 0, 69, 0
2, 15936, Note_on_c, 0, 72, 70
2, 15936, Note_on_c, 0, 69, 70
2, 16025, Note_on_c, 0, 72, 0
2, 16025, Note_on_c, 0, 69, 0
2, 16032, Note_on_c, 0, 71, 70
2, 16032, Note_on_c, 0, 67, 70
2, 16121, Note_on_c, 0, 71, 0
2, 16121, Note_on_c, 0, 67, 0
2, 16128, Note_on_c, 0, 69, 70
2, 16128, Note_on_c, 0, 66, 70
2, 16217, Note_on_c, 0, 69, 0
2, 16217, Note_on_c, 0, 66, 0
2, 16224, Note_on_c, 0, 67, 70
2, 16224, Note_on_c, 0, 64, 70
2, 16313, Note_on_c, 0, 67, 0
2, 16313, Note_on_c, 0, 64, 0
2, 16320, Note_on_c, 0, 66, 70
2, 16320, Note_on_c, 0, 63, 70
2, 16409, Note_on_c, 0, 66, 0
2, 16409, Note_on_c, 0, 63, 0
2, 16416, Note_on_c, 0, 66, 70
2, 16428, Note_on_c, 0, 66, 0
2, 16428, Note_on_c, 0, 64, 70
2, 16440, Note_on_c, 0, 64, 0
2, 16440, Note_on_c, 0, 63, 70
2, 16452, Note_on_c, 0, 63, 0
2, 16452, Note_on_c, 0, 64, 70
2, 16593, Note_on_c, 0, 64, 0
2, 16800, Note_on_c, 0, 64, 70
2, 16889, Note_on_c, 0, 64, 0
2, 16896, Note_on_c, 0, 67, 70
2, 16926, Note_on_c, 0, 67, 0
2, 16928, Note_on_c, 0, 66, 70
2, 16958, Note_on_c, 0, 66, 0
2, 16960, Note_on_c, 0, 64, 70
2, 16990, Note_on_c, 0, 64, 0
2, 16992, Note_on_c, 0, 71, 70
2, 17081, Note_on_c, 0, 71, 0
2, 17376, Note_on_c, 0, 64, 70
2, 17465, Note_on_c, 0, 64, 0
2, 17472, Note_on_c, 0, 67, 70
2, 17502, Note_on_c, 0, 67, 0
2, 17504, Note_on_c, 0, 66, 70
2, 17534, Note_on_c, 0, 66, 0
2, 17536, Note_on_c, 0, 64, 70
2, 17566, Note_on_c, 0, 64, 0
2, 17568, Note_on_c, 0, 71, 70
2, 17657, Note_on_c, 0, 71, 0
2, 17952, Note_on_c, 0, 59, 70
2, 18041, Note_on_c, 0, 59, 0
2, 18048, Note_on_c, 0, 63, 70
2, 18078, Note_on_c, 0, 63, 0
2, 18080, Note_on_c, 0, 61, 70
2, 18110, Note_on_c, 0, 61, 0
2, 18112, Note_on_c, 0, 59, 70
2, 18142, Note_on_c, 0, 59, 0
2, 18144, Note_on_c, 0, 69, 70
2, 18233, Note_on_c, 0, 69, 0
2, 18528, Note_on_c, 0, 59, 70
2, 18617, Note_on_c, 0, 59, 0
2, 18624, Note_on_c, 0, 63, 70
2, 18654, Note_on_c, 0, 63, 0
2, 18656, Note_on_c, 0, 61, 70
2, 18686, Note_on_c, 0, 61, 0
2, 18688, Note_on_c, 0, 59, 70
2, 18718, Note_on_c, 0, 59, 0
2, 18720, Note_on_c, 0, 69, 70
2, 18809, Note_on_c, 0, 69, 0
2, 18816, Note_on_c, 0, 72, 70
2, 18816, Note_on_c, 0, 69, 70
2, 18905, Note_on_c, 0, 72, 0
2, 18905, Note_on_c, 0, 69, 0
2, 18912, Note_on_c, 0, 71, 70
2, 18912, Note_on_c, 0, 67, 70
2, 19001, Note_on_c, 0, 71, 0
2, 19001, Note_on_c, 0, 67, 0
2, 19008, Note_on_c, 0, 69, 70
2, 19008, Note_on_c, 0, 66, 70
2, 19097, Note_on_c, 0, 69, 0
2, 19097, Note_on_c, 0, 66, 0
2, 19104, Note_on_c, 0, 67, 70
2, 19104, Note_on_c, 0, 64, 70
2, 19193, Note_on_c, 0, 67, 0
2, 19193, Note_on_c, 0, 64, 0
2, 19200, Note_on_c, 0, 66, 70
2, 19200, Note_on_c, 0, 63, 70
2, 19289, Note_on_c, 0, 66, 0
2, 19289, Note_on_c, 0, 63, 0
2, 19296, Note_on_c, 0, 66, 70
2, 19308, Note_on_c, 0, 66, 0
2, 19308, Note_on_c, 0, 64, 70
2, 19320, Note_on_c, 0, 64, 0
2, 19320, Note_on_c, 0, 63, 70
2, 19332, Note_on_c, 0, 63, 0
2, 19332, Note_on_c, 0, 64, 70
2, 19473, Note_on_c, 0, 64, 0
2, 19680, Note_on_c, 0, 67, 75
2, 19769, Note_on_c, 0, 67, 0
2, 19776, Note_on_c, 0, 71, 75
2, 19806, Note_on_c, 0, 71, 0
2, 19808, Note_on_c, 0, 69, 75
2, 19838, Note_on_c, 0, 69, 0
2, 19840, Note_on_c, 0, 67, 75
2, 19870, Note_on_c, 0, 67, 0
2, 19872, Note_on_c, 0, 62, 75
2, 19961, Note_on_c, 0, 62, 0
2, 20256, Note_on_c, 0, 67, 75
2, 20345, Note_on_c, 0, 67, 0
2, 20352, Note_on_c, 0, 71, 75
2, 20382, Note_on_c, 0, 71, 0
2, 20384, Note_on_c, 0, 69, 75
2, 20414, Note_on_c, 0, 69, 0
2, 20416, Note_on_c, 0, 67, 75
2, 20446, Note_on_c, 0, 67, 0
2, 20448, Note_on_c, 0, 62, 75
2, 20537, Note_on_c, 0, 62, 0
2, 20832, Note_on_c, 0, 69, 75
2, 20921, Note_on_c, 0, 69, 0
2, 20928, Note_on_c, 0, 72, 75
2, 20958, Note_on_c, 0, 72, 0
2, 20960, Note_on_c, 0, 71, 75
2, 20990, Note_on_c, 0, 71, 0
2, 20992, Note_on_c, 0, 69, 75
2, 21022, Note_on_c, 0, 69, 0
2, 21024, Note_on_c, 0, 62, 75
2, 21113, Note_on_c, 0, 62, 0
2, 21120, Note_on_c, 0, 71, 75
2, 21209, Note_on_c, 0, 71, 0
2, 21216, Note_on_c, 0, 74, 75
2, 21246, Note_on_c, 0, 74, 0
2, 21248, Note_on_c, 0, 72, 75
2, 21278, Note_on_c, 0, 72, 0
2, 21280, Note_on_c, 0, 71, 75
2, 21310, Note_on_c, 0, 71, 0
2, 21312, Note_on_c, 0, 62, 75
2, 21401, Note_on_c, 0, 62, 0
2, 21408, Note_on_c, 0, 69, 75
2, 21497, Note_on_c, 0, 69, 0
2, 21504, Note_on_c, 0, 72, 75
2, 21534, Note_on_c, 0, 72, 0
2, 21536, Note_on_c, 0, 71, 75
2, 21566, Note_on_c, 0, 71, 0
2, 21568, Note_on_c, 0, 69, 75
2, 21598, Note_on_c, 0, 69, 0
2, 21600, Note_on_c, 0, 69, 75
2, 21648, Note_on_c, 0, 69, 0
2, 21648, Note_on_c, 0, 71, 75
2, 21689, Note_on_c, 0, 71, 0
2, 21696, Note_on_c, 0, 67, 75
2, 21785, Note_on_c, 0, 67, 0
2, 21792, Note_on_c, 0, 67, 75
2, 21807, Note_on_c, 0, 67, 0
2, 21808, Note_on_c, 0, 66, 75
2, 21823, Note_on_c, 0, 66, 0
2, 21824, Note_on_c, 0, 67, 75
2, 21839, Note_on_c, 0, 67, 0
2, 21840, Note_on_c, 0, 66, 75
2, 21855, Note_on_c, 0, 66, 0
2, 21856, Note_on_c, 0, 64, 75
2, 21871, Note_on_c, 0, 64, 0
2, 21872, Note_on_c, 0, 66, 75
2, 21887, Note_on_c, 0, 66, 0
2, 21888, Note_on_c, 0, 67, 75
2, 22065, Note_on_c, 0, 67, 0
2, 22272, Note_on_c, 0, 64, 70
2, 22361, Note_on_c, 0, 64, 0
2, 22368, Note_on_c, 0, 67, 70
2, 22398, Note_on_c, 0, 67, 0
2, 22400, Note_on_c, 0, 66, 70
2, 22430, Note_on_c, 0, 66, 0
2, 22432, Note_on_c, 0, 64, 70
2, 22462, Note_on_c, 0, 64, 0
2, 22464, Note_on_c, 0, 71, 70
2, 22553, Note_on_c, 0, 71, 0
2, 22848, Note_on_c, 0, 64, 70
2, 22937, Note_on_c, 0, 64, 0
2, 22944, Note_on_c, 0, 67, 70
2, 22974, Note_on_c, 0, 67, 0
2, 22976, Note_on_c, 0, 66, 70
2, 23006, Note_on_c, 0, 66, 0
2, 23008, Note_on_c, 0, 64, 70
2, 23038, Note_on_c, 0, 64, 0
2, 23040, Note_on_c, 0, 71, 70
2, 23129, Note_on_c, 0, 71, 0
2, 23424, Note_on_c, 0, 66, 70
2, 23513, Note_on_c, 0, 66, 0
2, 23520, Note_on_c, 0, 69, 70
2, 23550, Note_on_c, 0, 69, 0
2, 23552, Note_on_c, 0, 67, 70
2, 23582, Note_on_c, 0, 67, 0
2, 23584, Note_on_c, 0, 66, 70
2, 23614, Note_on_c, 0, 66, 0
2, 23616, Note_on_c, 0, 63, 70
2, 23705, Note_on_c, 0, 63, 0
2, 24000, Note_on_c, 0, 66, 70
2, 24089, Note_on_c, 0, 66, 0
2, 24096, Note_on_c, 0, 69, 70
2, 24126, Note_on_c, 0, 69, 0
2, 24128, Note_on_c, 0, 67, 70
2, 24158, Note_on_c, 0, 67, 0
2, 24160, Note_on_c, 0, 66, 70
2, 24190, Note_on_c, 0, 66, 0
2, 24192, Note_on_c, 0, 63, 70
2, 24281, Note_on_c, 0, 63, 0
2, 24576, Note_on_c, 0, 69, 70
2, 24665, Note_on_c, 0, 69, 0
2, 24672, Note_on_c, 0, 72, 70
2, 24702, Note_on_c, 0, 72, 0
2, 24704, Note_on_c, 0, 71, 70
2, 24734, Note_on_c, 0, 71, 0
2, 24736, Note_on_c, 0, 69, 70
2, 24766, Note_on_c, 0, 69, 0
2, 24768, Note_on_c, 0, 67, 70
2, 24857, Note_on_c, 0, 67, 0
2, 24864, Note_on_c, 0, 71, 70
2, 24953, Note_on_c, 0, 71, 0
2, 24960, Note_on_c, 0, 64, 70
2, 24990, Note_on_c, 0, 64, 0
2, 24992, Note_on_c, 0, 66, 70
2, 25022, Note_on_c, 0, 66, 0
2, 25024, Note_on_c, 0, 67, 70
2, 25054, Note_on_c, 0, 67, 0
2, 25056, Note_on_c, 0, 66, 70
2, 25145, Note_on_c, 0, 66, 0
2, 25152, Note_on_c, 0, 64, 70
2, 25241, Note_on_c, 0, 64, 0
2, 25248, Note_on_c, 0, 64, 70
2, 25263, Note_on_c, 0, 64, 0
2, 25264, Note_on_c, 0, 63, 70
2, 25279, Note_on_c, 0, 63, 0
2, 25280, Note_on_c, 0, 64, 70
2, 25295, Note_on_c, 0, 64, 0
2, 25296, Note_on_c, 0, 63, 70
2, 25311, Note_on_c, 0, 63, 0
2, 25312, Note_on_c, 0, 61, 70
2, 25327, Note_on_c, 0, 61, 0
2, 25328, Note_on_c, 0, 63, 70
2, 25343, Note_on_c, 0, 63, 0
2, 25344, Note_on_c, 0, 64, 70
2, 25521, Note_on_c, 0, 64, 0
2, 25728, Note_on_c, 0, 67, 75
2, 25817, Note_on_c, 0, 67, 0
2, 25824, Note_on_c, 0, 71, 75
2, 25854, Note_on_c, 0, 71, 0
2, 25856, Note_on_c, 0, 69, 75
2, 25886, Note_on_c, 0, 69, 0
2, 25888, Note_on_c, 0, 67, 75
2, 25918, Note_on_c, 0, 67, 0
2, 25920, Note_on_c, 0, 62, 75
2, 26009, Note_on_c, 0, 62, 0
2, 26304, Note_on_c, 0, 67, 75
2, 26393, Note_on_c, 0, 67, 0
2, 26400, Note_on_c, 0, 71, 75
2, 26430, Note_on_c, 0, 71, 0
2, 26432, Note_on_c, 0, 69, 75
2, 26462, Note_on_c, 0, 69, 0
2, 26464, Note_on_c, 0, 67, 75
2, 26494, Note_on_c, 0, 67, 0
2, 26496, Note_on_c, 0, 62, 75
2, 26585, Note_on_c, 0, 62, 0
2, 26880, Note_on_c, 0, 69, 75
2, 26969, Note_on_c, 0, 69, 0
2, 26976, Note_on_c, 0, 72, 75
2, 27006, Note_on_c, 0, 72, 0
2, 27008, Note_on_c, 0, 71, 75
2, 27038, Note_on_c, 0, 71, 0
2, 27040, Note_on_c, 0, 69, 75
2, 27070, Note_on_c, 0, 69, 0
2, 27072, Note_on_c, 0, 62, 75
2, 27161, Note_on_c, 0, 62, 0
2, 27168, Note_on_c, 0, 71, 75
2, 27257, Note_on_c, 0, 71, 0
2, 27264, Note_on_c, 0, 74, 75
2, 27294, Note_on_c, 0, 74, 0
2, 27296, Note_on_c, 0, 72, 75
2, 27326, Note_on_c, 0, 72, 0
2, 27328, Note_on_c, 0, 71, 75
2, 27358, Note_on_c, 0, 71, 0
2, 27360, Note_on_c, 0, 62, 75
2, 27449, Note_on_c, 0, 62, 0
2, 27456, Note_on_c, 0, 69, 75
2, 27545, Note_on_c, 0, 69, 0
2, 27552, Note_on_c, 0, 72, 75
2, 27582, Note_on_c, 0, 72, 0
2, 27584, Note_on_c, 0, 71, 75
2, 27614, Note_on_c, 0, 71, 0
2, 27616, Note_on_c, 0, 69, 75
2, 27646, Note_on_c, 0, 69, 0
2, 27648, Note_on_c, 0, 69, 75
2, 27696, Note_on_c, 0, 69, 0
2, 27696, Note_on_c, 0, 71, 75
2, 27737, Note_on_c, 0, 71, 0
2, 27744, Note_on_c, 0, 67, 75
2, 27833, Note_on_c, 0, 67, 0
2, 27840, Note_on_c, 0, 67, 75
2, 27855, Note_on_c, 0, 67, 0
2, 27856, Note_on_c, 0, 66, 75
2, 27871, Note_on_c, 0, 66, 0
2, 27872, Note_on_c, 0, 67, 75
2, 27887, Note_on_c, 0, 67, 0
2, 27888, Note_on_c, 0, 66, 75
2, 27903, Note_on_c, 0, 66, 0
2, 27904, Note_on_c, 0, 64, 75
2, 27919, Note_on_c, 0, 64, 0
2, 27920, Note_on_c, 0, 66, 75
2, 27935, Note_on_c, 0, 66, 0
2, 27936, Note_on_c, 0, 67, 75
2, 28113, Note_on_c, 0, 67, 0
2, 28320, Note_on_c, 0, 64, 70
2, 28409, Note_on_c, 0, 64, 0
2, 28416, Note_on_c, 0, 67, 70
2, 28446, Note_on_c, 0, 67, 0
2, 28448, Note_on_c, 0, 66, 70
2, 28478, Note_on_c, 0, 66, 0
2, 28480, Note_on_c, 0, 64, 70
2, 28510, Note_on_c, 0, 64, 0
2, 28512, Note_on_c, 0, 71, 70
2, 28601, Note_on_c, 0, 71, 0
2, 28896, Note_on_c, 0, 64, 70
2, 28985, Note_on_c, 0, 64, 0
2, 28992, Note_on_c, 0, 67, 70
2, 29022, Note_on_c, 0, 67, 0
2, 29024, Note_on_c, 0, 66, 70
2, 29054, Note_on_c, 0, 66, 0
2, 29056, Note_on_c, 0, 64, 70
2, 29086, Note_on_c, 0, 64, 0
2, 29088, Note_on_c, 0, 71, 70
2, 29177, Note_on_c, 0, 71, 0
2, 29472, Note_on_c, 0, 66, 70
2, 29561, Note_on_c, 0, 66, 0
2, 29568, Note_on_c, 0, 69, 70
2, 29598, Note_on_c, 0, 69, 0
2, 29600, Note_on_c, 0, 67, 70
2, 29630, Note_on_c, 0, 67, 0
2, 29632, Note_on_c, 0, 66, 70
2, 29662, Note_on_c, 0, 66, 0
2, 29664, Note_on_c, 0, 63, 70
2, 29753, Note_on_c, 0, 63, 0
2, 30048, Note_on_c, 0, 66, 70
2, 30137, Note_on_c, 0, 66, 0
2, 30144, Note_on_c, 0, 69, 70
2, 30174, Note_on_c, 0, 69, 0
2, 30176, Note_on_c, 0, 67, 70
2, 30206, Note_on_c, 0, 67, 0
2, 30208, Note_on_c, 0, 66, 70
2, 30238, Note_on_c, 0, 66, 0
2, 30240, Note_on_c, 0, 63, 70
2, 30329, Note_on_c, 0, 63, 0
2, 30624, Note_on_c, 0, 69, 70
2, 30713, Note_on_c, 0, 69, 0
2, 30720, Note_on_c, 0, 72, 70
2, 30750, Note_on_c, 0, 72, 0
2, 30752, Note_on_c, 0, 71, 70
2, 30782, Note_on_c, 0, 71, 0
2, 30784, Note_on_c, 0, 69, 70
2, 30814, Note_on_c, 0, 69, 0
2, 30816, Note_on_c, 0, 67, 70
2, 30905, Note_on_c, 0, 67, 0
2, 30912, Note_on_c, 0, 71, 70
2, 31001, Note_on_c, 0, 71, 0
2, 31008, Note_on_c, 0, 64, 70
2, 31038, Note_on_c, 0, 64, 0
2, 31040, Note_on_c, 0, 66, 70
2, 31070, Note_on_c, 0, 66, 0
2, 31072, Note_on_c, 0, 67, 70
2, 31102, Note_on_c, 0, 67, 0
2, 31104, Note_on_c, 0, 66, 70
2, 31193, Note_on_c, 0, 66, 0
2, 31200, Note_on_c, 0, 64, 70
2, 31289, Note_on_c, 0, 64, 0
2, 31296, Note_on_c, 0, 64, 70
2, 31311, Note_on_c, 0, 64, 0
2, 31312, Note_on_c, 0, 63, 70
2, 31327, Note_on_c, 0, 63, 0
2, 31328, Note_on_c, 0, 64, 70
2, 31343, Note_on_c, 0, 64, 0
2, 31344, Note_on_c, 0, 63, 70
2, 31359, Note_on_c, 0, 63, 0
2, 31360, Note_on_c, 0, 61, 70
2, 31375, Note_on_c, 0, 61, 0
2, 31376, Note_on_c, 0, 63, 70
2, 31391, Note_on_c, 0, 63, 0
2, 31392, Note_on_c, 0, 64, 70
2, 31569, Note_on_c, 0, 64, 0
2, 31680, Note_on_c, 0, 67, 80
2, 31769, Note_on_c, 0, 67, 0
2, 31776, Note_on_c, 0, 67, 80
2, 31821, Note_on_c, 0, 67, 0
2, 31824, Note_on_c, 0, 66, 80
2, 31869, Note_on_c, 0, 66, 0
2, 31872, Note_on_c, 0, 67, 80
2, 31917, Note_on_c, 0, 67, 0
2, 31920, Note_on_c, 0, 69, 80
2, 31965, Note_on_c, 0, 69, 0
2, 31968, Note_on_c, 0, 71, 80
2, 32007, Note_on_c, 0, 71, 0
2, 32064, Note_on_c, 0, 67, 80
2, 32103, Note_on_c, 0, 67, 0
2, 32160, Note_on_c, 0, 74, 80
2, 32205, Note_on_c, 0, 74, 0
2, 32208, Note_on_c, 0, 71, 80
2, 32253, Note_on_c, 0, 71, 0
2, 32256, Note_on_c, 0, 67, 80
2, 32295, Note_on_c, 0, 67, 0
2, 32352, Note_on_c, 0, 62, 80
2, 32391, Note_on_c, 0, 62, 0
2, 32448, Note_on_c, 0, 71, 80
2, 32487, Note_on_c, 0, 71, 0
2, 32544, Note_on_c, 0, 67, 80
2, 32561, Note_on_c, 0, 67, 0
2, 32562, Note_on_c, 0, 69, 80
2, 32579, Note_on_c, 0, 69, 0
2, 32580, Note_on_c, 0, 67, 80
2, 32597, Note_on_c, 0, 67, 0
2, 32598, Note_on_c, 0, 69, 80
2, 32615, Note_on_c, 0, 69, 0
2, 32616, Note_on_c, 0, 67, 80
2, 32633, Note_on_c, 0, 67, 0
2, 32634, Note_on_c, 0, 69, 80
2, 32650, Note_on_c, 0, 69, 0
2, 32651, Note_on_c, 0, 67, 80
2, 32667, Note_on_c, 0, 67, 0
2, 32668, Note_on_c, 0, 69, 80
2, 32684, Note_on_c, 0, 69, 0
2, 32685, Note_on_c, 0, 67, 80
2, 32701, Note_on_c, 0, 67, 0
2, 32702, Note_on_c, 0, 66, 80
2, 32718, Note_on_c, 0, 66, 0
2, 32719, Note_on_c, 0, 67, 80
2, 32735, Note_on_c, 0, 67, 0
2, 32736, Note_on_c, 0, 83, 75
2, 32781, Note_on_c, 0, 83, 0
2, 32784, Note_on_c, 0, 74, 75
2, 32829, Note_on_c, 0, 74, 0
2, 32832, Note_on_c, 0, 84, 91
2, 32880, Note_on_c, 0, 84, 0
2, 32880, Note_on_c, 0, 81, 75
2, 32925, Note_on_c, 0, 81, 0
2, 32928, Note_on_c, 0, 78, 75
2, 32973, Note_on_c, 0, 78, 0
2, 32976, Note_on_c, 0, 74, 75
2, 33021, Note_on_c, 0, 74, 0
2, 33024, Note_on_c, 0, 83, 91
2, 33072, Note_on_c, 0, 83, 0
2, 33072, Note_on_c, 0, 79, 75
2, 33117, Note_on_c, 0, 79, 0
2, 33120, Note_on_c, 0, 84, 91
2, 33168, Note_on_c, 0, 84, 0
2, 33168, Note_on_c, 0, 81, 75
2, 33213, Note_on_c, 0, 81, 0
2, 33216, Note_on_c, 0, 78, 75
2, 33261, Note_on_c, 0, 78, 0
2, 33264, Note_on_c, 0, 74, 75
2, 33309, Note_on_c, 0, 74, 0
2, 33312, Note_on_c, 0, 83, 91
2, 33360, Note_on_c, 0, 83, 0
2, 33360, Note_on_c, 0, 79, 75
2, 33405, Note_on_c, 0, 79, 0
2, 33408, Note_on_c, 0, 74, 75
2, 33408, Note_on_c, 0, 71, 75
2, 33497, Note_on_c, 0, 74, 0
2, 33497, Note_on_c, 0, 71, 0
2, 33504, Note_on_c, 0, 72, 75
2, 33504, Note_on_c, 0, 69, 75
2, 33593, Note_on_c, 0, 72, 0
2, 33593, Note_on_c, 0, 69, 0
2, 33600, Note_on_c, 0, 71, 75
2, 33600, Note_on_c, 0, 67, 75
2, 33689, Note_on_c, 0, 71, 0
2, 33689, Note_on_c, 0, 67, 0
2, 33696, Note_on_c, 0, 69, 75
2, 33696, Note_on_c, 0, 66, 75
2, 33785, Note_on_c, 0, 69, 0
2, 33785, Note_on_c, 0, 66, 0
2, 33984, Note_on_c, 0, 67, 80
2, 34073, Note_on_c, 0, 67, 0
2, 34080, Note_on_c, 0, 67, 80
2, 34125, Note_on_c, 0, 67, 0
2, 34128, Note_on_c, 0, 66, 80
2, 34173, Note_on_c, 0, 66, 0
2, 34176, Note_on_c, 0, 67, 80
2, 34221, Note_on_c, 0, 67, 0
2, 34224, Note_on_c, 0, 69, 80
2, 34269, Note_on_c, 0, 69, 0
2, 34272, Note_on_c, 0, 71, 80
2, 34311, Note_on_c, 0, 71, 0
2, 34368, Note_on_c, 0, 67, 80
2, 34407, Note_on_c, 0, 67, 0
2, 34464, Note_on_c, 0, 74, 80
2, 34509, Note_on_c, 0, 74, 0
2, 34512, Note_on_c, 0, 71, 80
2, 34557, Note_on_c, 0, 71, 0
2, 34560, Note_on_c, 0, 67, 80
2, 34599, Note_on_c, 0, 67, 0
2, 34656, Note_on_c, 0, 62, 80
2, 34695, Note_on_c, 0, 62, 0
2, 34752, Note_on_c, 0, 71, 80
2, 34791, Note_on_c, 0, 71, 0
2, 34848, Note_on_c, 0, 67, 80
2, 34865, Note_on_c, 0, 67, 0
2, 34866, Note_on_c, 0, 69, 80
2, 34883, Note_on_c, 0, 69, 0
2, 34884, Note_on_c, 0, 67, 80
2, 34901, Note_on_c, 0, 67, 0
2, 34902, Note_on_c, 0, 69, 80
2, 34919, Note_on_c, 0, 69, 0
2, 34920, Note_on_c, 0, 67, 80
2, 34937, Note_on_c, 0, 67, 0
2, 34938, Note_on_c, 0, 69, 80
2, 34954, Note_on_c, 0, 69, 0
2, 34955, Note_on_c, 0, 67, 80
2, 34971, Note_on_c, 0, 67, 0
2, 34972, Note_on_c, 0, 69, 80
2, 34988, Note_on_c, 0, 69, 0
2, 34989, Note_on_c, 0, 67, 80
2, 35005, Note_on_c, 0, 67, 0
2, 35006, Note_on_c, 0, 66, 80
2, 35022, Note_on_c, 0, 66, 0
2, 35023, Note_on_c, 0, 67, 80
2, 35039, Note_on_c, 0, 67, 0
2, 35040, Note_on_c, 0, 83, 75
2, 35085, Note_on_c, 0, 83, 0
2, 35088, Note_on_c, 0, 74, 75
2, 35133, Note_on_c, 0, 74, 0
2, 35136, Note_on_c, 0, 84, 91
2, 35184, Note_on_c, 0, 84, 0
2, 35184, Note_on_c, 0, 81, 75
2, 35229, Note_on_c, 0, 81, 0
2, 35232, Note_on_c, 0, 78, 75
2, 35277, Note_on_c, 0, 78, 0
2, 35280, Note_on_c, 0, 74, 75
2, 35325, Note_on_c, 0, 74, 0
2, 35328, Note_on_c, 0, 83, 91
2, 35376, Note_on_c, 0, 83, 0
2, 35376, Note_on_c, 0, 79, 75
2, 35421, Note_on_c, 0, 79, 0
2, 35424, Note_on_c, 0, 84, 91
2, 35472, Note_on_c, 0, 84, 0
2, 35472, Note_on_c, 0, 81, 75
2, 35517, Note_on_c, 0, 81, 0
2, 35520, Note_on_c, 0, 78, 75
2, 35565, Note_on_c, 0, 78, 0
2, 35568, Note_on_c, 0, 74, 75
2, 35613, Note_on_c, 0, 74, 0
2, 35616, Note_on_c, 0, 83, 91
2, 35664, Note_on_c, 0, 83, 0
2, 35664, Note_on_c, 0, 79, 75
2, 35709, Note_on_c, 0, 79, 0
2, 35712, Note_on_c, 0, 74, 75
2, 35712, Note_on_c, 0, 71, 75
2, 35801, Note_on_c, 0, 74, 0
2, 35801, Note_on_c, 0, 71, 0
2, 35808, Note_on_c, 0, 72, 75
2, 35808, Note_on_c, 0, 69, 75
2, 35897, Note_on_c, 0, 72, 0
2, 35897, Note_on_c, 0, 69, 0
2, 35904, Note_on_c, 0, 71, 75
2, 35904, Note_on_c, 0, 67, 75
2, 35993, Note_on_c, 0, 71, 0
2, 35993, Note_on_c, 0, 67, 0
2, 36000, Note_on_c, 0, 69, 75
2, 36000, Note_on_c, 0, 66, 75
2, 36089, Note_on_c, 0, 69, 0
2, 36089, Note_on_c, 0, 66, 0
2, 36288, Note_on_c, 0, 74, 75
2, 36377, Note_on_c, 0, 74, 0
2, 36384, Note_on_c, 0, 78, 75
2, 36429, Note_on_c, 0, 78, 0
2, 36432, Note_on_c, 0, 76, 75
2, 36477, Note_on_c, 0, 76, 0
2, 36480, Note_on_c, 0, 78, 75
2, 36525, Note_on_c, 0, 78, 0
2, 36528, Note_on_c, 0, 79, 75
2, 36573, Note_on_c, 0, 79, 0
2, 36576, Note_on_c, 0, 81, 75
2, 36753, Note_on_c, 0, 81, 0
2, 36768, Note_on_c, 0, 84, 75
2, 36813, Note_on_c, 0, 84, 0
2, 36816, Note_on_c, 0, 81, 75
2, 36861, Note_on_c, 0, 81, 0
2, 36864, Note_on_c, 0, 83, 75
2, 36953, Note_on_c, 0, 83, 0
2, 36960, Note_on_c, 0, 79, 75
2, 37049, Note_on_c, 0, 79, 0
2, 37056, Note_on_c, 0, 86, 75
2, 37145, Note_on_c, 0, 86, 0
2, 37152, Note_on_c, 0, 79, 75
2, 37169, Note_on_c, 0, 79, 0
2, 37170, Note_on_c, 0, 78, 75
2, 37187, Note_on_c, 0, 78, 0
2, 37188, Note_on_c, 0, 79, 75
2, 37205, Note_on_c, 0, 79, 0
2, 37206, Note_on_c, 0, 78, 75
2, 37223, Note_on_c, 0, 78, 0
2, 37224, Note_on_c, 0, 79, 75
2, 37241, Note_on_c, 0, 79, 0
2, 37242, Note_on_c, 0, 78, 75
2, 37258, Note_on_c, 0, 78, 0
2, 37259, Note_on_c, 0, 79, 75
2, 37275, Note_on_c, 0, 79, 0
2, 37276, Note_on_c, 0, 78, 75
2, 37292, Note_on_c, 0, 78, 0
2, 37293, Note_on_c, 0, 79, 75
2, 37309, Note_on_c, 0, 79, 0
2, 37310, Note_on_c, 0, 78, 75
2, 37326, Note_on_c, 0, 78, 0
2, 37327, Note_on_c, 0, 79, 75
2, 37343, Note_on_c, 0, 79, 0
2, 37344, Note_on_c, 0, 81, 75
2, 37389, Note_on_c, 0, 81, 0
2, 37392, Note_on_c, 0, 78, 75
2, 37437, Note_on_c, 0, 78, 0
2, 37440, Note_on_c, 0, 79, 75
2, 37485, Note_on_c, 0, 79, 0
2, 37488, Note_on_c, 0, 74, 75
2, 37533, Note_on_c, 0, 74, 0
2, 37536, Note_on_c, 0, 83, 75
2, 37581, Note_on_c, 0, 83, 0
2, 37584, Note_on_c, 0, 79, 75
2, 37629, Note_on_c, 0, 79, 0
2, 37632, Note_on_c, 0, 86, 75
2, 37677, Note_on_c, 0, 86, 0
2, 37680, Note_on_c, 0, 83, 75
2, 37725, Note_on_c, 0, 83, 0
2, 37728, Note_on_c, 0, 81, 75
2, 37817, Note_on_c, 0, 81, 0
2, 37824, Note_on_c, 0, 84, 75
2, 37913, Note_on_c, 0, 84, 0
2, 37920, Note_on_c, 0, 83, 75
2, 37965, Note_on_c, 0, 83, 0
2, 37968, Note_on_c, 0, 79, 75
2, 38013, Note_on_c, 0, 79, 0
2, 38016, Note_on_c, 0, 74, 75
2, 38105, Note_on_c, 0, 74, 0
2, 38112, Note_on_c, 0, 84, 75
2, 38201, Note_on_c, 0, 84, 0
2, 38208, Note_on_c, 0, 83, 75
2, 38253, Note_on_c, 0, 83, 0
2, 38256, Note_on_c, 0, 79, 75
2, 38301, Note_on_c, 0, 79, 0
2, 38304, Note_on_c, 0, 74, 75
2, 38393, Note_on_c, 0, 74, 0
2, 38592, Note_on_c, 0, 67, 80
2, 38681, Note_on_c, 0, 67, 0
2, 38688, Note_on_c, 0, 67, 80
2, 38733, Note_on_c, 0, 67, 0
2, 38736, Note_on_c, 0, 66, 80
2, 38781, Note_on_c, 0, 66, 0
2, 38784, Note_on_c, 0, 67, 80
2, 38829, Note_on_c, 0, 67, 0
2, 38832, Note_on_c, 0, 69, 80
2, 38877, Note_on_c, 0, 69, 0
2, 38880, Note_on_c, 0, 71, 80
2, 38919, Note_on_c, 0, 71, 0
2, 38976, Note_on_c, 0, 67, 80
2, 39015, Note_on_c, 0, 67, 0
2, 39072, Note_on_c, 0, 74, 80
2, 39117, Note_on_c, 0, 74, 0
2, 39120, Note_on_c, 0, 71, 80
2, 39165, Note_on_c, 0, 71, 0
2, 39168, Note_on_c, 0, 67, 80
2, 39207, Note_on_c, 0, 67, 0
2, 39264, Note_on_c, 0, 62, 80
2, 39303, Note_on_c, 0, 62, 0
2, 39360, Note_on_c, 0, 71, 80
2, 39399, Note_on_c, 0, 71, 0
2, 39456, Note_on_c, 0, 67, 80
2, 39473, Note_on_c, 0, 67, 0
2, 39474, Note_on_c, 0, 69, 80
2, 39491, Note_on_c, 0, 69, 0
2, 39492, Note_on_c, 0, 67, 80
2, 39509, Note_on_c, 0, 67, 0
2, 39510, Note_on_c, 0, 69, 80
2, 39527, Note_on_c, 0, 69, 0
2, 39528, Note_on_c, 0, 67, 80
2, 39545, Note_on_c, 0, 67, 0
2, 39546, Note_on_c, 0, 69, 80
2, 39562, Note_on_c, 0, 69, 0
2, 39563, Note_on_c, 0, 67, 80
2, 39579, Note_on_c, 0, 67, 0
2, 39580, Note_on_c, 0, 69, 80
2, 39596, Note_on_c, 0, 69, 0
2, 39597, Note_on_c, 0, 67, 80
2, 39613, Note_on_c, 0, 67, 0
2, 39614, Note_on_c, 0, 66, 80
2, 39630, Note_on_c, 0, 66, 0
2, 39631, Note_on_c, 0, 67, 80
2, 39647, Note_on_c, 0, 67, 0
2, 39648, Note_on_c, 0, 83, 75
2, 39693, Note_on_c, 0, 83, 0
2, 39696, Note_on_c, 0, 74, 75
2, 39741, Note_on_c, 0, 74, 0
2, 39744, Note_on_c, 0, 84, 91
2, 39792, Note_on_c, 0, 84, 0
2, 39792, Note_on_c, 0, 81, 75
2, 39837, Note_on_c, 0, 81, 0
2, 39840, Note_on_c, 0, 78, 75
2, 39885, Note_on_c, 0, 78, 0
2, 39888, Note_on_c, 0, 74, 75
2, 39933, Note_on_c, 0, 74, 0
2, 39936, Note_on_c, 0, 83, 91
2, 39984, Note_on_c, 0, 83, 0
2, 39984, Note_on_c, 0, 79, 75
2, 40029, Note_on_c, 0, 79, 0
2, 40032, Note_on_c, 0, 84, 91
2, 40080, Note_on_c, 0, 84, 0
2, 40080, Note_on_c, 0, 81, 75
2, 40125, Note_on_c, 0, 81, 0
2, 40128, Note_on_c, 0, 78, 75
2, 40173, Note_on_c, 0, 78, 0
2, 40176, Note_on_c, 0, 74, 75
2, 40221, Note_on_c, 0, 74, 0
2, 40224, Note_on_c, 0, 83, 91
2, 40272, Note_on_c, 0, 83, 0
2, 40272, Note_on_c, 0, 79, 75
2, 40317, Note_on_c, 0, 79, 0
2, 40320, Note_on_c, 0, 81, 75
2, 40320, Note_on_c, 0, 72, 75
2, 40409, Note_on_c, 0, 81, 0
2, 40409, Note_on_c, 0, 72, 0
2, 40416, Note_on_c, 0, 79, 75
2, 40416, Note_on_c, 0, 71, 75
2, 40505, Note_on_c, 0, 79, 0
2, 40505, Note_on_c, 0, 71, 0
2, 40512, Note_on_c, 0, 78, 75
2, 40512, Note_on_c, 0, 69, 75
2, 40601, Note_on_c, 0, 78, 0
2, 40601, Note_on_c, 0, 69, 0
2, 40608, Note_on_c, 0, 79, 75
2, 40608, Note_on_c, 0, 67, 75
2, 40697, Note_on_c, 0, 79, 0
2, 40697, Note_on_c, 0, 67, 0
2, 40896, Note_on_c, 0, 74, 75
2, 40985, Note_on_c, 0, 74, 0
2, 40992, Note_on_c, 0, 78, 75
2, 41037, Note_on_c, 0, 78, 0
2, 41040, Note_on_c, 0, 76, 75
2, 41085, Note_on_c, 0, 76, 0
2, 41088, Note_on_c, 0, 78, 75
2, 41133, Note_on_c, 0, 78, 0
2, 41136, Note_on_c, 0, 79, 75
2, 41181, Note_on_c, 0, 79, 0
2, 41184, Note_on_c, 0, 81, 75
2, 41361, Note_on_c, 0, 81, 0
2, 41376, Note_on_c, 0, 84, 75
2, 41421, Note_on_c, 0, 84, 0
2, 41424, Note_on_c, 0, 81, 75
2, 41469, Note_on_c, 0, 81, 0
2, 41472, Note_on_c, 0, 83, 75
2, 41561, Note_on_c, 0, 83, 0
2, 41568, Note_on_c, 0, 79, 75
2, 41657, Note_on_c, 0, 79, 0
2, 41664, Note_on_c, 0, 86, 75
2, 41753, Note_on_c, 0, 86, 0
2, 41760, Note_on_c, 0, 79, 75
2, 41777, Note_on_c, 0, 79, 0
2, 41778, Note_on_c, 0, 78, 75
2, 41795, Note_on_c, 0, 78, 0
2, 41796, Note_on_c, 0, 79, 75
2, 41813, Note_on_c, 0, 79, 0
2, 41814, Note_on_c, 0, 78, 75
2, 41831, Note_on_c, 0, 78, 0
2, 41832, Note_on_c, 0, 79, 75
2, 41849, Note_on_c, 0, 79, 0
2, 41850, Note_on_c, 0, 78, 75
2, 41866, Note_on_c, 0, 78, 0
2, 41867, Note_on_c, 0, 79, 75
2, 41883, Note_on_c, 0, 79, 0
2, 41884, Note_on_c, 0, 78, 75
2, 41900, Note_on_c, 0, 78, 0
2, 41901, Note_on_c, 0, 79, 75
2, 41917, Note_on_c, 0, 79, 0
2, 41918, Note_on_c, 0, 78, 75
2, 41934, Note_on_c, 0, 78, 0
2, 41935, Note_on_c, 0, 79, 75
2, 41951, Note_on_c, 0, 79, 0
2, 41952, Note_on_c, 0, 81, 75
2, 41997, Note_on_c, 0, 81, 0
2, 42000, Note_on_c, 0, 78, 75
2, 42045, Note_on_c, 0, 78, 0
2, 42048, Note_on_c, 0, 79, 75
2, 42093, Note_on_c, 0, 79, 0
2, 42096, Note_on_c, 0, 74, 75
2, 42141, Note_on_c, 0, 74, 0
2, 42144, Note_on_c, 0, 83, 75
2, 42189, Note_on_c, 0, 83, 0
2, 42192, Note_on_c, 0, 79, 75
2, 42237, Note_on_c, 0, 79, 0
2, 42240, Note_on_c, 0, 86, 75
2, 42285, Note_on_c, 0, 86, 0
2, 42288, Note_on_c, 0, 83, 75
2, 42333, Note_on_c, 0, 83, 0
2, 42336, Note_on_c, 0, 81, 75
2, 42425, Note_on_c, 0, 81, 0
2, 42432, Note_on_c, 0, 84, 75
2, 42521, Note_on_c, 0, 84, 0
2, 42528, Note_on_c, 0, 83, 75
2, 42573, Note_on_c, 0, 83, 0
2, 42576, Note_on_c, 0, 79, 75
2, 42621, Note_on_c, 0, 79, 0
2, 42624, Note_on_c, 0, 74, 75
2, 42713, Note_on_c, 0, 74, 0
2, 42720, Note_on_c, 0, 84, 75
2, 42809, Note_on_c, 0, 84, 0
2, 42816, Note_on_c, 0, 83, 75
2, 42861, Note_on_c, 0, 83, 0
2, 42864, Note_on_c, 0, 79, 75
2, 42909, Note_on_c, 0, 79, 0
2, 42912, Note_on_c, 0, 74, 75
2, 43001, Note_on_c, 0, 74, 0
2, 43200, Note_on_c, 0, 67, 80
2, 43289, Note_on_c, 0, 67, 0
2, 43296, Note_on_c, 0, 67, 80
2, 43341, Note_on_c, 0, 67, 0
2, 43344, Note_on_c, 0, 66, 80
2, 43389, Note_on_c, 0, 66, 0
2, 43392, Note_on_c, 0, 67, 80
2, 43437, Note_on_c, 0, 67, 0
2, 43440, Note_on_c, 0, 69, 80
2, 43485, Note_on_c, 0, 69, 0
2, 43488, Note_on_c, 0, 71, 80
2, 43527, Note_on_c, 0, 71, 0
2, 43584, Note_on_c, 0, 67, 80
2, 43623, Note_on_c, 0, 67, 0
2, 43680, Note_on_c, 0, 74, 80
2, 43725, Note_on_c, 0, 74, 0
2, 43728, Note_on_c, 0, 71, 80
2, 43773, Note_on_c, 0, 71, 0
2, 43776, Note_on_c, 0, 67, 80
2, 43815, Note_on_c, 0, 67, 0
2, 43872, Note_on_c, 0, 62, 80
2, 43911, Note_on_c, 0, 62, 0
2, 43968, Note_on_c, 0, 71, 80
2, 44007, Note_on_c, 0, 71, 0
2, 44064, Note_on_c, 0, 67, 80
2, 44081, Note_on_c, 0, 67, 0
2, 44082, Note_on_c, 0, 69, 80
2, 44099, Note_on_c, 0, 69, 0
2, 44100, Note_on_c, 0, 67, 80
2, 44117, Note_on_c, 0, 67, 0
2, 44118, Note_on_c, 0, 69, 80
2, 44135, Note_on_c, 0, 69, 0
2, 44136, Note_on_c, 0, 67, 80
2, 44153, Note_on_c, 0, 67, 0
2, 44154, Note_on_c, 0, 69, 80
2, 44170, Note_on_c, 0, 69, 0
2, 44171, Note_on_c, 0, 67, 80
2, 44187, Note_on_c, 0, 67, 0
2, 44188, Note_on_c, 0, 69, 80
2, 44204, Note_on_c, 0, 69, 0
2, 44205, Note_on_c, 0, 67, 80
2, 44221, Note_on_c, 0, 67, 0
2, 44222, Note_on_c, 0, 66, 80
2, 44238, Note_on_c, 0, 66, 0
2, 44239, Note_on_c, 0, 67, 80
2, 44255, Note_on_c, 0, 67, 0
2, 44256, Note_on_c, 0, 83, 75
2, 44301, Note_on_c, 0, 83, 0
2, 44304, Note_on_c, 0, 74, 75
2, 44349, Note_on_c, 0, 74, 0
2, 44352, Note_on_c, 0, 84, 91
2, 44400, Note_on_c, 0, 84, 0
2, 44400, Note_on_c, 0, 81, 75
2, 44445, Note_on_c, 0, 81, 0
2, 44448, Note_on_c, 0, 78, 75
2, 44493, Note_on_c, 0, 78, 0
2, 44496, Note_on_c, 0, 74, 75
2, 44541, Note_on_c, 0, 74, 0
2, 44544, Note_on_c, 0, 83, 91
2, 44592, Note_on_c, 0, 83, 0
2, 44592, Note_on_c, 0, 79, 75
2, 44637, Note_on_c, 0, 79, 0
2, 44640, Note_on_c, 0, 84, 91
2, 44688, Note_on_c, 0, 84, 0
2, 44688, Note_on_c, 0, 81, 75
2, 44733, Note_on_c, 0, 81, 0
2, 44736, Note_on_c, 0, 78, 75
2, 44781, Note_on_c, 0, 78, 0
2, 44784, Note_on_c, 0, 74, 75
2, 44829, Note_on_c, 0, 74, 0
2, 44832, Note_on_c, 0, 83, 91
2, 44880, Note_on_c, 0, 83, 0
2, 44880, Note_on_c, 0, 79, 75
2, 44925, Note_on_c, 0, 79, 0
2, 44928, Note_on_c, 0, 81, 75
2, 44928, Note_on_c, 0, 72, 75
2, 45017, Note_on_c, 0, 81, 0
2, 45017, Note_on_c, 0, 72, 0
2, 45024, Note_on_c, 0, 79, 75
2, 45024, Note_on_c, 0, 71, 75
2, 45113, Note_on_c, 0, 79, 0
2, 45113, Note_on_c, 0, 71, 0
2, 45120, Note_on_c, 0, 78, 75
2, 45120, Note_on_c, 0, 69, 75
2, 45209, Note_on_c, 0, 78, 0
2, 45209, Note_on_c, 0, 69, 0
2, 45216, Note_on_c, 0, 79, 75
2, 45216, Note_on_c, 0, 67, 75
2, 45305, Note_on_c, 0, 79, 0
2, 45305, Note_on_c, 0, 67, 0
2, 45504, End_track
3, 0, Start_track
3, 0, Program_c, 0, 0
3, 0, Control_c, 0, 7, 127
3, 0, Control_c, 0, 10, 64
3, 45504, End_track
4, 0, Start_track
4, 0, Program_c, 1, 0
4, 0, Control_c, 1, 7, 127
4, 0, Control_c, 1, 10, 64
4, 0, Note_on_c, 1, 55, 80
4, 0, Note_on_c, 1, 43, 80
4, 89, Note_on_c, 1, 55, 0
4, 89, Note_on_c, 1, 43, 0
4, 96, Note_on_c, 1, 55, 80
4, 141, Note_on_c, 1, 55, 0
4, 144, Note_on_c, 1, 54, 80
4, 189, Note_on_c, 1, 54, 0
4, 192, Note_on_c, 1, 55, 80
4, 237, Note_on_c, 1, 55, 0
4, 240, Note_on_c, 1, 57, 80
4, 285, Note_on_c, 1, 57, 0
4, 288, Note_on_c, 1, 59, 80
4, 327, Note_on_c, 1, 59, 0
4, 384, Note_on_c, 1, 55, 80
4, 423, Note_on_c, 1, 55, 0
4, 480, Note_on_c, 1, 62, 80
4, 525, Note_on_c, 1, 62, 0
4, 528, Note_on_c, 1, 59, 80
4, 573, Note_on_c, 1, 59, 0
4, 576, Note_on_c, 1, 55, 80
4, 615, Note_on_c, 1, 55, 0
4, 672, Note_on_c, 1, 50, 80
4, 711, Note_on_c, 1, 50, 0
4, 768, Note_on_c, 1, 59, 80
4, 807, Note_on_c, 1, 59, 0
4, 864, Note_on_c, 1, 55, 80
4, 1041, Note_on_c, 1, 55, 0
4, 1056, Note_on_c, 1, 62, 75
4, 1056, Note_on_c, 1, 55, 75
4, 1145, Note_on_c, 1, 62, 0
4, 1145, Note_on_c, 1, 55, 0
4, 1152, Note_on_c, 1, 62, 75
4, 1152, Note_on_c, 1, 54, 75
4, 1329, Note_on_c, 1, 62, 0
4, 1329, Note_on_c, 1, 54, 0
4, 1344, Note_on_c, 1, 62, 75
4, 1344, Note_on_c, 1, 55, 75
4, 1433, Note_on_c, 1, 62, 0
4, 1433, Note_on_c, 1, 55, 0
4, 1440, Note_on_c, 1, 62, 75
4, 1440, Note_on_c, 1, 54, 75
4, 1617, Note_on_c, 1, 62, 0
4, 1617, Note_on_c, 1, 54, 0
4, 1632, Note_on_c, 1, 62, 75
4, 1632, Note_on_c, 1, 55, 75
4, 1721, Note_on_c, 1, 62, 0
4, 1721, Note_on_c, 1, 55, 0
4, 1728, Note_on_c, 1, 59, 75
4, 1817, Note_on_c, 1, 59, 0
4, 1824, Note_on_c, 1, 60, 75
4, 1913, Note_on_c, 1, 60, 0
4, 1920, Note_on_c, 1, 61, 75
4, 2009, Note_on_c, 1, 61, 0
4, 2016, Note_on_c, 1, 62, 75
4, 2105, Note_on_c, 1, 62, 0
4, 2112, Note_on_c, 1, 50, 75
4, 2201, Note_on_c, 1, 50, 0
4, 2304, Note_on_c, 1, 55, 80
4, 2304, Note_on_c, 1, 43, 80
4, 2393, Note_on_c, 1, 55, 0
4, 2393, Note_on_c, 1, 43, 0
4, 2400, Note_on_c, 1, 55, 80
4, 2445, Note_on_c, 1, 55, 0
4, 2448, Note_on_c, 1, 54, 80
4, 2493, Note_on_c, 1, 54, 0
4, 2496, Note_on_c, 1, 55, 80
4, 2541, Note_on_c, 1, 55, 0
4, 2544, Note_on_c, 1, 57, 80
4, 2589, Note_on_c, 1, 57, 0
4, 2592, Note_on_c, 1, 59, 80
4, 2631, Note_on_c, 1, 59, 0
4, 2688, Note_on_c, 1, 55, 80
4, 2727, Note_on_c, 1, 55, 0
4, 2784, Note_on_c, 1, 62, 80
4, 2829, Note_on_c, 1, 62, 0
4, 2832, Note_on_c, 1, 59, 80
4, 2877, Note_on_c, 1, 59, 0
4, 2880, Note_on_c, 1, 55, 80
4, 2919, Note_on_c, 1, 55, 0
4, 2976, Note_on_c, 1, 50, 80
4, 3015, Note_on_c, 1, 50, 0
4, 3072, Note_on_c, 1, 59, 80
4, 3111, Note_on_c, 1, 59, 0
4, 3168, Note_on_c, 1, 55, 80
4, 3345, Note_on_c, 1, 55, 0
4, 3360, Note_on_c, 1, 62, 75
4, 3360, Note_on_c, 1, 55, 75
4, 3449, Note_on_c, 1, 62, 0
4, 3449, Note_on_c, 1, 55, 0
4, 3456, Note_on_c, 1, 62, 75
4, 3456, Note_on_c, 1, 54, 75
4, 3633, Note_on_c, 1, 62, 0
4, 3633, Note_on_c, 1, 54, 0
4, 3648, Note_on_c, 1, 62, 75
4, 3648, Note_on_c, 1, 55, 75
4, 3737, Note_on_c, 1, 62, 0
4, 3737, Note_on_c, 1, 55, 0
4, 3744, Note_on_c, 1, 62, 75
4, 3744, Note_on_c, 1, 54, 75
4, 3921, Note_on_c, 1, 62, 0
4, 3921, Note_on_c, 1, 54, 0
4, 3936, Note_on_c, 1, 62, 75
4, 3936, Note_on_c, 1, 55, 75
4, 4025, Note_on_c, 1, 62, 0
4, 4025, Note_on_c, 1, 55, 0
4, 4032, Note_on_c, 1, 59, 75
4, 4121, Note_on_c, 1, 59, 0
4, 4128, Note_on_c, 1, 60, 75
4, 4217, Note_on_c, 1, 60, 0
4, 4224, Note_on_c, 1, 61, 75
4, 4313, Note_on_c, 1, 61, 0
4, 4320, Note_on_c, 1, 62, 75
4, 4409, Note_on_c, 1, 62, 0
4, 4416, Note_on_c, 1, 50, 75
4, 4505, Note_on_c, 1, 50, 0
4, 4608, Note_on_c, 1, 62, 75
4, 4608, Note_on_c, 1, 50, 75
4, 4697, Note_on_c, 1, 62, 0
4, 4697, Note_on_c, 1, 50, 0
4, 4896, Note_on_c, 1, 54, 75
4, 4941, Note_on_c, 1, 54, 0
4, 4944, Note_on_c, 1, 62, 75
4, 4989, Note_on_c, 1, 62, 0
4, 4992, Note_on_c, 1, 57, 75
4, 5037, Note_on_c, 1, 57, 0
4, 5040, Note_on_c, 1, 62, 75
4, 5085, Note_on_c, 1, 62, 0
4, 5088, Note_on_c, 1, 54, 75
4, 5133, Note_on_c, 1, 54, 0
4, 5136, Note_on_c, 1, 62, 75
4, 5181, Note_on_c, 1, 62, 0
4, 5184, Note_on_c, 1, 55, 75
4, 5229, Note_on_c, 1, 55, 0
4, 5232, Note_on_c, 1, 62, 75
4, 5277, Note_on_c, 1, 62, 0
4, 5280, Note_on_c, 1, 59, 75
4, 5325, Note_on_c, 1, 59, 0
4, 5328, Note_on_c, 1, 62, 75
4, 5373, Note_on_c, 1, 62, 0
4, 5376, Note_on_c, 1, 55, 75
4, 5421, Note_on_c, 1, 55, 0
4, 5424, Note_on_c, 1, 62, 75
4, 5469, Note_on_c, 1, 62, 0
4, 5472, Note_on_c, 1, 57, 75
4, 5517, Note_on_c, 1, 57, 0
4, 5520, Note_on_c, 1, 62, 75
4, 5565, Note_on_c, 1, 62, 0
4, 5568, Note_on_c, 1, 60, 75
4, 5613, Note_on_c, 1, 60, 0
4, 5616, Note_on_c, 1, 62, 75
4, 5661, Note_on_c, 1, 62, 0
4, 5664, Note_on_c, 1, 57, 75
4, 5709, Note_on_c, 1, 57, 0
4, 5712, Note_on_c, 1, 62, 75
4, 5757, Note_on_c, 1, 62, 0
4, 5760, Note_on_c, 1, 59, 75
4, 5849, Note_on_c, 1, 59, 0
4, 6048, Note_on_c, 1, 54, 75
4, 6093, Note_on_c, 1, 54, 0
4, 6096, Note_on_c, 1, 62, 75
4, 6141, Note_on_c, 1, 62, 0
4, 6144, Note_on_c, 1, 57, 75
4, 6189, Note_on_c, 1, 57, 0
4, 6192, Note_on_c, 1, 62, 75
4, 6237, Note_on_c, 1, 62, 0
4, 6240, Note_on_c, 1, 55, 75
4, 6285, Note_on_c, 1, 55, 0
4, 6288, Note_on_c, 1, 62, 75
4, 6333, Note_on_c, 1, 62, 0
4, 6336, Note_on_c, 1, 54, 75
4, 6381, Note_on_c, 1, 54, 0
4, 6384, Note_on_c, 1, 62, 75
4, 6429, Note_on_c, 1, 62, 0
4, 6432, Note_on_c, 1, 57, 75
4, 6477, Note_on_c, 1, 57, 0
4, 6480, Note_on_c, 1, 62, 75
4, 6525, Note_on_c, 1, 62, 0
4, 6528, Note_on_c, 1, 55, 75
4, 6573, Note_on_c, 1, 55, 0
4, 6576, Note_on_c, 1, 62, 75
4, 6621, Note_on_c, 1, 62, 0
4, 6624, Note_on_c, 1, 50, 75
4, 6713, Note_on_c, 1, 50, 0
4, 6912, Note_on_c, 1, 55, 80
4, 6912, Note_on_c, 1, 43, 80
4, 7001, Note_on_c, 1, 55, 0
4, 7001, Note_on_c, 1, 43, 0
4, 7008, Note_on_c, 1, 55, 80
4, 7053, Note_on_c, 1, 55, 0
4, 7056, Note_on_c, 1, 54, 80
4, 7101, Note_on_c, 1, 54, 0
4, 7104, Note_on_c, 1, 55, 80
4, 7149, Note_on_c, 1, 55, 0
4, 7152, Note_on_c, 1, 57, 80
4, 7197, Note_on_c, 1, 57, 0
4, 7200, Note_on_c, 1, 59, 80
4, 7239, Note_on_c, 1, 59, 0
4, 7296, Note_on_c, 1, 55, 80
4, 7335, Note_on_c, 1, 55, 0
4, 7392, Note_on_c, 1, 62, 80
4, 7437, Note_on_c, 1, 62, 0
4, 7440, Note_on_c, 1, 59, 80
4, 7485, Note_on_c, 1, 59, 0
4, 7488, Note_on_c, 1, 55, 80
4, 7527, Note_on_c, 1, 55, 0
4, 7584, Note_on_c, 1, 50, 80
4, 7623, Note_on_c, 1, 50, 0
4, 7680, Note_on_c, 1, 59, 80
4, 7719, Note_on_c, 1, 59, 0
4, 7776, Note_on_c, 1, 55, 80
4, 7953, Note_on_c, 1, 55, 0
4, 7968, Note_on_c, 1, 62, 75
4, 7968, Note_on_c, 1, 55, 75
4, 8057, Note_on_c, 1, 62, 0
4, 8057, Note_on_c, 1, 55, 0
4, 8064, Note_on_c, 1, 62, 75
4, 8064, Note_on_c, 1, 54, 75
4, 8241, Note_on_c, 1, 62, 0
4, 8241, Note_on_c, 1, 54, 0
4, 8256, Note_on_c, 1, 62, 75
4, 8256, Note_on_c, 1, 55, 75
4, 8345, Note_on_c, 1, 62, 0
4, 8345, Note_on_c, 1, 55, 0
4, 8352, Note_on_c, 1, 62, 75
4, 8352, Note_on_c, 1, 54, 75
4, 8529, Note_on_c, 1, 62, 0
4, 8529, Note_on_c, 1, 54, 0
4, 8544, Note_on_c, 1, 62, 75
4, 8544, Note_on_c, 1, 55, 75
4, 8633, Note_on_c, 1, 62, 0
4, 8633, Note_on_c, 1, 55, 0
4, 8640, Note_on_c, 1, 60, 75
4, 8729, Note_on_c, 1, 60, 0
4, 8736, Note_on_c, 1, 62, 75
4, 8825, Note_on_c, 1, 62, 0
4, 8832, Note_on_c, 1, 50, 75
4, 8921, Note_on_c, 1, 50, 0
4, 8928, Note_on_c, 1, 55, 75
4, 9017, Note_on_c, 1, 55, 0
4, 9024, Note_on_c, 1, 50, 75
4, 9113, Note_on_c, 1, 50, 0
4, 9120, Note_on_c, 1, 43, 75
4, 9209, Note_on_c, 1, 43, 0
4, 9216, Note_on_c, 1, 62, 75
4, 9216, Note_on_c, 1, 50, 75
4, 9305, Note_on_c, 1, 62, 0
4, 9305, Note_on_c, 1, 50, 0
4, 9504, Note_on_c, 1, 54, 75
4, 9549, Note_on_c, 1, 54, 0
4, 9552, Note_on_c, 1, 62, 75
4, 9597, Note_on_c, 1, 62, 0
4, 9600, Note_on_c, 1, 57, 75
4, 9645, Note_on_c, 1, 57, 0
4, 9648, Note_on_c, 1, 62, 75
4, 9693, Note_on_c, 1, 62, 0
4, 9696, Note_on_c, 1, 54, 75
4, 9741, Note_on_c, 1, 54, 0
4, 9744, Note_on_c, 1, 62, 75
4, 9789, Note_on_c, 1, 62, 0
4, 9792, Note_on_c, 1, 55, 75
4, 9837, Note_on_c, 1, 55, 0
4, 9840, Note_on_c, 1, 62, 75
4, 9885, Note_on_c, 1, 62, 0
4, 9888, Note_on_c, 1, 59, 75
4, 9933, Note_on_c, 1, 59, 0
4, 9936, Note_on_c, 1, 62, 75
4, 9981, Note_on_c, 1, 62, 0
4, 9984, Note_on_c, 1, 55, 75
4, 10029, Note_on_c, 1, 55, 0
4, 10032, Note_on_c, 1, 62, 75
4, 10077, Note_on_c, 1, 62, 0
4, 10080, Note_on_c, 1, 57, 75
4, 10125, Note_on_c, 1, 57, 0
4, 10128, Note_on_c, 1, 62, 75
4, 10173, Note_on_c, 1, 62, 0
4, 10176, Note_on_c, 1, 60, 75
4, 10221, Note_on_c, 1, 60, 0
4, 10224, Note_on_c, 1, 62, 75
4, 10269, Note_on_c, 1, 62, 0
4, 10272, Note_on_c, 1, 57, 75
4, 10317, Note_on_c, 1, 57, 0
4, 10320, Note_on_c, 1, 62, 75
4, 10365, Note_on_c, 1, 62, 0
4, 10368, Note_on_c, 1, 59, 75
4, 10457, Note_on_c, 1, 59, 0
4, 10656, Note_on_c, 1, 54, 75
4, 10701, Note_on_c, 1, 54, 0
4, 10704, Note_on_c, 1, 62, 75
4, 10749, Note_on_c, 1, 62, 0
4, 10752, Note_on_c, 1, 57, 75
4, 10797, Note_on_c, 1, 57, 0
4, 10800, Note_on_c, 1, 62, 75
4, 10845, Note_on_c, 1, 62, 0
4, 10848, Note_on_c, 1, 55, 75
4, 10893, Note_on_c, 1, 55, 0
4, 10896, Note_on_c, 1, 62, 75
4, 10941, Note_on_c, 1, 62, 0
4, 10944, Note_on_c, 1, 54, 75
4, 10989, Note_on_c, 1, 54, 0
4, 10992, Note_on_c, 1, 62, 75
4, 11037, Note_on_c, 1, 62, 0
4, 11040, Note_on_c, 1, 57, 75
4, 11085, Note_on_c, 1, 57, 0
4, 11088, Note_on_c, 1, 62, 75
4, 11133, Note_on_c, 1, 62, 0
4, 11136, Note_on_c, 1, 55, 75
4, 11181, Note_on_c, 1, 55, 0
4, 11184, Note_on_c, 1, 62, 75
4, 11229, Note_on_c, 1, 62, 0
4, 11232, Note_on_c, 1, 50, 75
4, 11321, Note_on_c, 1, 50, 0
4, 11520, Note_on_c, 1, 55, 80
4, 11520, Note_on_c, 1, 43, 80
4, 11609, Note_on_c, 1, 55, 0
4, 11609, Note_on_c, 1, 43, 0
4, 11616, Note_on_c, 1, 55, 80
4, 11661, Note_on_c, 1, 55, 0
4, 11664, Note_on_c, 1, 54, 80
4, 11709, Note_on_c, 1, 54, 0
4, 11712, Note_on_c, 1, 55, 80
4, 11757, Note_on_c, 1, 55, 0
4, 11760, Note_on_c, 1, 57, 80
4, 11805, Note_on_c, 1, 57, 0
4, 11808, Note_on_c, 1, 59, 80
4, 11847, Note_on_c, 1, 59, 0
4, 11904, Note_on_c, 1, 55, 80
4, 11943, Note_on_c, 1, 55, 0
4, 12000, Note_on_c, 1, 62, 80
4, 12045, Note_on_c, 1, 62, 0
4, 12048, Note_on_c, 1, 59, 80
4, 12093, Note_on_c, 1, 59, 0
4, 12096, Note_on_c, 1, 55, 80
4, 12135, Note_on_c, 1, 55, 0
4, 12192, Note_on_c, 1, 50, 80
4, 12231, Note_on_c, 1, 50, 0
4, 12288, Note_on_c, 1, 59, 80
4, 12327, Note_on_c, 1, 59, 0
4, 12384, Note_on_c, 1, 55, 80
4, 12561, Note_on_c, 1, 55, 0
4, 12576, Note_on_c, 1, 62, 75
4, 12576, Note_on_c, 1, 55, 75
4, 12665, Note_on_c, 1, 62, 0
4, 12665, Note_on_c, 1, 55, 0
4, 12672, Note_on_c, 1, 62, 75
4, 12672, Note_on_c, 1, 54, 75
4, 12849, Note_on_c, 1, 62, 0
4, 12849, Note_on_c, 1, 54, 0
4, 12864, Note_on_c, 1, 62, 75
4, 12864, Note_on_c, 1, 55, 75
4, 12953, Note_on_c, 1, 62, 0
4, 12953, Note_on_c, 1, 55, 0
4, 12960, Note_on_c, 1, 62, 75
4, 12960, Note_on_c, 1, 54, 75
4, 13137, Note_on_c, 1, 62, 0
4, 13137, Note_on_c, 1, 54, 0
4, 13152, Note_on_c, 1, 62, 75
4, 13152, Note_on_c, 1, 55, 75
4, 13241, Note_on_c, 1, 62, 0
4, 13241, Note_on_c, 1, 55, 0
4, 13248, Note_on_c, 1, 60, 75
4, 13337, Note_on_c, 1, 60, 0
4, 13344, Note_on_c, 1, 62, 75
4, 13433, Note_on_c, 1, 62, 0
4, 13440, Note_on_c, 1, 50, 75
4, 13529, Note_on_c, 1, 50, 0
4, 13536, Note_on_c, 1, 55, 75
4, 13625, Note_on_c, 1, 55, 0
4, 13632, Note_on_c, 1, 50, 75
4, 13721, Note_on_c, 1, 50, 0
4, 13728, Note_on_c, 1, 43, 75
4, 13817, Note_on_c, 1, 43, 0
4, 13824, Note_on_c, 1, 52, 70
4, 13824, Note_on_c, 1, 40, 70
4, 13913, Note_on_c, 1, 52, 0
4, 13913, Note_on_c, 1, 40, 0
4, 14208, Note_on_c, 1, 55, 70
4, 14208, Note_on_c, 1, 52, 70
4, 14297, Note_on_c, 1, 55, 0
4, 14297, Note_on_c, 1, 52, 0
4, 14304, Note_on_c, 1, 57, 70
4, 14304, Note_on_c, 1, 54, 70
4, 14393, Note_on_c, 1, 57, 0
4, 14393, Note_on_c, 1, 54, 0
4, 14400, Note_on_c, 1, 59, 70
4, 14400, Note_on_c, 1, 55, 70
4, 14489, Note_on_c, 1, 59, 0
4, 14489, Note_on_c, 1, 55, 0
4, 14784, Note_on_c, 1, 51, 70
4, 14784, Note_on_c, 1, 47, 70
4, 14873, Note_on_c, 1, 51, 0
4, 14873, Note_on_c, 1, 47, 0
4, 14880, Note_on_c, 1, 52, 70
4, 14880, Note_on_c, 1, 49, 70
4, 14969, Note_on_c, 1, 52, 0
4, 14969, Note_on_c, 1, 49, 0
4, 14976, Note_on_c, 1, 54, 70
4, 14976, Note_on_c, 1, 51, 70
4, 15065, Note_on_c, 1, 54, 0
4, 15065, Note_on_c, 1, 51, 0
4, 15360, Note_on_c, 1, 51, 70
4, 15360, Note_on_c, 1, 47, 70
4, 15449, Note_on_c, 1, 51, 0
4, 15449, Note_on_c, 1, 47, 0
4, 15456, Note_on_c, 1, 52, 70
4, 15456, Note_on_c, 1, 48, 70
4, 15545, Note_on_c, 1, 52, 0
4, 15545, Note_on_c, 1, 48, 0
4, 15552, Note_on_c, 1, 51, 70
4, 15552, Note_on_c, 1, 47, 70
4, 15641, Note_on_c, 1, 51, 0
4, 15641, Note_on_c, 1, 47, 0
4, 15936, Note_on_c, 1, 51, 70
4, 16025, Note_on_c, 1, 51, 0
4, 16032, Note_on_c, 1, 52, 70
4, 16121, Note_on_c, 1, 52, 0
4, 16128, Note_on_c, 1, 57, 70
4, 16217, Note_on_c, 1, 57, 0
4, 16224, Note_on_c, 1, 59, 70
4, 16313, Note_on_c, 1, 59, 0
4, 16320, Note_on_c, 1, 47, 70
4, 16409, Note_on_c, 1, 47, 0
4, 16416, Note_on_c, 1, 52, 70
4, 16505, Note_on_c, 1, 52, 0
4, 16512, Note_on_c, 1, 47, 70
4, 16601, Note_on_c, 1, 47, 0
4, 16608, Note_on_c, 1, 40, 70
4, 16697, Note_on_c, 1, 40, 0
4, 16704, Note_on_c, 1, 52, 70
4, 16704, Note_on_c, 1, 40, 70
4, 16793, Note_on_c, 1, 52, 0
4, 16793, Note_on_c, 1, 40, 0
4, 17088, Note_on_c, 1, 55, 70
4, 17088, Note_on_c, 1, 52, 70
4, 17177, Note_on_c, 1, 55, 0
4, 17177, Note_on_c, 1, 52, 0
4, 17184, Note_on_c, 1, 57, 70
4, 17184, Note_on_c, 1, 54, 70
4, 17273, Note_on_c, 1, 57, 0
4, 17273, Note_on_c, 1, 54, 0
4, 17280, Note_on_c, 1, 59, 70
4, 17280, Note_on_c, 1, 55, 70
4, 17369, Note_on_c, 1, 59, 0
4, 17369, Note_on_c, 1, 55, 0
4, 17664, Note_on_c, 1, 51, 70
4, 17664, Note_on_c, 1, 47, 70
4, 17753, Note_on_c, 1, 51, 0
4, 17753, Note_on_c, 1, 47, 0
4, 17760, Note_on_c, 1, 52, 70
4, 17760, Note_on_c, 1, 49, 70
4, 17849, Note_on_c, 1, 52, 0
4, 17849, Note_on_c, 1, 49, 0
4, 17856, Note_on_c, 1, 54, 70
4, 17856, Note_on_c, 1, 51, 70
4, 17945, Note_on_c, 1, 54, 0
4, 17945, Note_on_c, 1, 51, 0
4, 18240, Note_on_c, 1, 51, 70
4, 18240, Note_on_c, 1, 47, 70
4, 18329, Note_on_c, 1, 51, 0
4, 18329, Note_on_c, 1, 47, 0
4, 18336, Note_on_c, 1, 52, 70
4, 18336, Note_on_c, 1, 48, 70
4, 18425, Note_on_c, 1, 52, 0
4, 18425, Note_on_c, 1, 48, 0
4, 18432, Note_on_c, 1, 51, 70
4, 18432, Note_on_c, 1, 47, 70
4, 18521, Note_on_c, 1, 51, 0
4, 18521, Note_on_c, 1, 47, 0
4, 18816, Note_on_c, 1, 51, 70
4, 18905, Note_on_c, 1, 51, 0
4, 18912, Note_on_c, 1, 52, 70
4, 19001, Note_on_c, 1, 52, 0
4, 19008, Note_on_c, 1, 57, 70
4, 19097, Note_on_c, 1, 57, 0
4, 19104, Note_on_c, 1, 59, 70
4, 19193, Note_on_c, 1, 59, 0
4, 19200, Note_on_c, 1, 47, 70
4, 19289, Note_on_c, 1, 47, 0
4, 19296, Note_on_c, 1, 52, 70
4, 19385, Note_on_c, 1, 52, 0
4, 19392, Note_on_c, 1, 47, 70
4, 19481, Note_on_c, 1, 47, 0
4, 19488, Note_on_c, 1, 40, 70
4, 19577, Note_on_c, 1, 40, 0
4, 19584, Note_on_c, 1, 55, 75
4, 19584, Note_on_c, 1, 43, 75
4, 19673, Note_on_c, 1, 55, 0
4, 19673, Note_on_c, 1, 43, 0
4, 19968, Note_on_c, 1, 62, 75
4, 19968, Note_on_c, 1, 59, 75
4, 20057, Note_on_c, 1, 62, 0
4, 20057, Note_on_c, 1, 59, 0
4, 20064, Note_on_c, 1, 60, 75
4, 20064, Note_on_c, 1, 57, 75
4, 20153, Note_on_c, 1, 60, 0
4, 20153, Note_on_c, 1, 57, 0
4, 20160, Note_on_c, 1, 59, 75
4, 20160, Note_on_c, 1, 55, 75
4, 20249, Note_on_c, 1, 59, 0
4, 20249, Note_on_c, 1, 55, 0
4, 20544, Note_on_c, 1, 60, 75
4, 20544, Note_on_c, 1, 57, 75
4, 20633, Note_on_c, 1, 60, 0
4, 20633, Note_on_c, 1, 57, 0
4, 20640, Note_on_c, 1, 59, 75
4, 20640, Note_on_c, 1, 55, 75
4, 20729, Note_on_c, 1, 59, 0
4, 20729, Note_on_c, 1, 55, 0
4, 20736, Note_on_c, 1, 57, 75
4, 20736, Note_on_c, 1, 54, 75
4, 20825, Note_on_c, 1, 57, 0
4, 20825, Note_on_c, 1, 54, 0
4, 21024, Note_on_c, 1, 59, 75
4, 21024, Note_on_c, 1, 55, 75
4, 21201, Note_on_c, 1, 59, 0
4, 21201, Note_on_c, 1, 55, 0
4, 21312, Note_on_c, 1, 57, 75
4, 21312, Note_on_c, 1, 54, 75
4, 21489, Note_on_c, 1, 57, 0
4, 21489, Note_on_c, 1, 54, 0
4, 21600, Note_on_c, 1, 43, 75
4, 21689, Note_on_c, 1, 43, 0
4, 21696, Note_on_c, 1, 47, 75
4, 21785, Note_on_c, 1, 47, 0
4, 21792, Note_on_c, 1, 50, 75
4, 21881, Note_on_c, 1, 50, 0
4, 21888, Note_on_c, 1, 43, 75
4, 21977, Note_on_c, 1, 43, 0
4, 21984, Note_on_c, 1, 55, 75
4, 21984, Note_on_c, 1, 43, 75
4, 22073, Note_on_c, 1, 55, 0
4, 22073, Note_on_c, 1, 43, 0
4, 22080, Note_on_c, 1, 54, 75
4, 22080, Note_on_c, 1, 42, 75
4, 22169, Note_on_c, 1, 54, 0
4, 22169, Note_on_c, 1, 42, 0
4, 22176, Note_on_c, 1, 52, 75
4, 22176, Note_on_c, 1, 40, 75
4, 22265, Note_on_c, 1, 52, 0
4, 22265, Note_on_c, 1, 40, 0
4, 22560, Note_on_c, 1, 55, 70
4, 22560, Note_on_c, 1, 52, 70
4, 22649, Note_on_c, 1, 55, 0
4, 22649, Note_on_c, 1, 52, 0
4, 22656, Note_on_c, 1, 57, 70
4, 22656, Note_on_c, 1, 54, 70
4, 22745, Note_on_c, 1, 57, 0
4, 22745, Note_on_c, 1, 54, 0
4, 22752, Note_on_c, 1, 59, 70
4, 22752, Note_on_c, 1, 55, 70
4, 22841, Note_on_c, 1, 59, 0
4, 22841, Note_on_c, 1, 55, 0
4, 23136, Note_on_c, 1, 51, 70
4, 23136, Note_on_c, 1, 47, 70
4, 23225, Note_on_c, 1, 51, 0
4, 23225, Note_on_c, 1, 47, 0
4, 23232, Note_on_c, 1, 52, 70
4, 23232, Note_on_c, 1, 49, 70
4, 23321, Note_on_c, 1, 52, 0
4, 23321, Note_on_c, 1, 49, 0
4, 23328, Note_on_c, 1, 54, 70
4, 23328, Note_on_c, 1, 51, 70
4, 23417, Note_on_c, 1, 54, 0
4, 23417, Note_on_c, 1, 51, 0
4, 23712, Note_on_c, 1, 60, 70
4, 23712, Note_on_c, 1, 57, 70
4, 23801, Note_on_c, 1, 60, 0
4, 23801, Note_on_c, 1, 57, 0
4, 23808, Note_on_c, 1, 59, 70
4, 23808, Note_on_c, 1, 55, 70
4, 23897, Note_on_c, 1, 59, 0
4, 23897, Note_on_c, 1, 55, 0
4, 23904, Note_on_c, 1, 57, 70
4, 23904, Note_on_c, 1, 54, 70
4, 23993, Note_on_c, 1, 57, 0
4, 23993, Note_on_c, 1, 54, 0
4, 24288, Note_on_c, 1, 60, 70
4, 24288, Note_on_c, 1, 57, 70
4, 24377, Note_on_c, 1, 60, 0
4, 24377, Note_on_c, 1, 57, 0
4, 24384, Note_on_c, 1, 59, 70
4, 24384, Note_on_c, 1, 55, 70
4, 24473, Note_on_c, 1, 59, 0
4, 24473, Note_on_c, 1, 55, 0
4, 24480, Note_on_c, 1, 57, 70
4, 24480, Note_on_c, 1, 54, 70
4, 24569, Note_on_c, 1, 57, 0
4, 24569, Note_on_c, 1, 54, 0
4, 24672, Note_on_c, 1, 63, 70
4, 24672, Note_on_c, 1, 51, 70
4, 24768, Note_on_c, 1, 63, 0
4, 24768, Note_on_c, 1, 51, 0
4, 24768, Note_on_c, 1, 64, 70
4, 24768, Note_on_c, 1, 52, 70
4, 24857, Note_on_c, 1, 64, 0
4, 24857, Note_on_c, 1, 52, 0
4, 24960, Note_on_c, 1, 55, 70
4, 24960, Note_on_c, 1, 43, 70
4, 25049, Note_on_c, 1, 55, 0
4, 25049, Note_on_c, 1, 43, 0
4, 25056, Note_on_c, 1, 57, 70
4, 25056, Note_on_c, 1, 45, 70
4, 25145, Note_on_c, 1, 57, 0
4, 25145, Note_on_c, 1, 45, 0
4, 25152, Note_on_c, 1, 55, 70
4, 25152, Note_on_c, 1, 47, 70
4, 25241, Note_on_c, 1, 55, 0
4, 25241, Note_on_c, 1, 47, 0
4, 25248, Note_on_c, 1, 54, 70
4, 25248, Note_on_c, 1, 47, 70
4, 25337, Note_on_c, 1, 54, 0
4, 25337, Note_on_c, 1, 47, 0
4, 25344, Note_on_c, 1, 52, 70
4, 25433, Note_on_c, 1, 52, 0
4, 25440, Note_on_c, 1, 40, 70
4, 25529, Note_on_c, 1, 40, 0
4, 25632, Note_on_c, 1, 55, 75
4, 25632, Note_on_c, 1, 43, 75
4, 25721, Note_on_c, 1, 55, 0
4, 25721, Note_on_c, 1, 43, 0
4, 26016, Note_on_c, 1, 62, 75
4, 26016, Note_on_c, 1, 59, 75
4, 26105, Note_on_c, 1, 62, 0
4, 26105, Note_on_c, 1, 59, 0
4, 26112, Note_on_c, 1, 60, 75
4, 26112, Note_on_c, 1, 57, 75
4, 26201, Note_on_c, 1, 60, 0
4, 26201, Note_on_c, 1, 57, 0
4, 26208, Note_on_c, 1, 59, 75
4, 26208, Note_on_c, 1, 55, 75
4, 26297, Note_on_c, 1, 59, 0
4, 26297, Note_on_c, 1, 55, 0
4, 26592, Note_on_c, 1, 60, 75
4, 26592, Note_on_c, 1, 57, 75
4, 26681, Note_on_c, 1, 60, 0
4, 26681, Note_on_c, 1, 57, 0
4, 26688, Note_on_c, 1, 59, 75
4, 26688, Note_on_c, 1, 55, 75
4, 26777, Note_on_c, 1, 59, 0
4, 26777, Note_on_c, 1, 55, 0
4, 26784, Note_on_c, 1, 57, 75
4, 26784, Note_on_c, 1, 54, 75
4, 26873, Note_on_c, 1, 57, 0
4, 26873, Note_on_c, 1, 54, 0
4, 27072, Note_on_c, 1, 59, 75
4, 27072, Note_on_c, 1, 55, 75
4, 27249, Note_on_c, 1, 59, 0
4, 27249, Note_on_c, 1, 55, 0
4, 27360, Note_on_c, 1, 57, 75
4, 27360, Note_on_c, 1, 54, 75
4, 27537, Note_on_c, 1, 57, 0
4, 27537, Note_on_c, 1, 54, 0
4, 27648, Note_on_c, 1, 43, 75
4, 27737, Note_on_c, 1, 43, 0
4, 27744, Note_on_c, 1, 47, 75
4, 27833, Note_on_c, 1, 47, 0
4, 27840, Note_on_c, 1, 50, 75
4, 27929, Note_on_c, 1, 50, 0
4, 27936, Note_on_c, 1, 43, 75
4, 28025, Note_on_c, 1, 43, 0
4, 28032, Note_on_c, 1, 55, 75
4, 28032, Note_on_c, 1, 43, 75
4, 28121, Note_on_c, 1, 55, 0
4, 28121, Note_on_c, 1, 43, 0
4, 28128, Note_on_c, 1, 54, 75
4, 28128, Note_on_c, 1, 42, 75
4, 28217, Note_on_c, 1, 54, 0
4, 28217, Note_on_c, 1, 42, 0
4, 28224, Note_on_c, 1, 52, 75
4, 28224, Note_on_c, 1, 40, 75
4, 28313, Note_on_c, 1, 52, 0
4, 28313, Note_on_c, 1, 40, 0
4, 28608, Note_on_c, 1, 55, 70
4, 28608, Note_on_c, 1, 52, 70
4, 28697, Note_on_c, 1, 55, 0
4, 28697, Note_on_c, 1, 52, 0
4, 28704, Note_on_c, 1, 57, 70
4, 28704, Note_on_c, 1, 54, 70
4, 28793, Note_on_c, 1, 57, 0
4, 28793, Note_on_c, 1, 54, 0
4, 28800, Note_on_c, 1, 59, 70
4, 28800, Note_on_c, 1, 55, 70
4, 28889, Note_on_c, 1, 59, 0
4, 28889, Note_on_c, 1, 55, 0
4, 29184, Note_on_c, 1, 51, 70
4, 29184, Note_on_c, 1, 47, 70
4, 29273, Note_on_c, 1, 51, 0
4, 29273, Note_on_c, 1, 47, 0
4, 29280, Note_on_c, 1, 52, 70
4, 29280, Note_on_c, 1, 49, 70
4, 29369, Note_on_c, 1, 52, 0
4, 29369, Note_on_c, 1, 49, 0
4, 29376, Note_on_c, 1, 54, 70
4, 29376, Note_on_c, 1, 51, 70
4, 29465, Note_on_c, 1, 54, 0
4, 29465, Note_on_c, 1, 51, 0
4, 29760, Note_on_c, 1, 60, 70
4, 29760, Note_on_c, 1, 57, 70
4, 29849, Note_on_c, 1, 60, 0
4, 29849, Note_on_c, 1, 57, 0
4, 29856, Note_on_c, 1, 59, 70
4, 29856, Note_on_c, 1, 55, 70
4, 29945, Note_on_c, 1, 59, 0
4, 29945, Note_on_c, 1, 55, 0
4, 29952, Note_on_c, 1, 57, 70
4, 29952, Note_on_c, 1, 54, 70
4, 30041, Note_on_c, 1, 57, 0
4, 30041, Note_on_c, 1, 54, 0
4, 30336, Note_on_c, 1, 60, 70
4, 30336, Note_on_c, 1, 57, 70
4, 30425, Note_on_c, 1, 60, 0
4, 30425, Note_on_c, 1, 57, 0
4, 30432, Note_on_c, 1, 59, 70
4, 30432, Note_on_c, 1, 55, 70
4, 30521, Note_on_c, 1, 59, 0
4, 30521, Note_on_c, 1, 55, 0
4, 30528, Note_on_c, 1, 57, 70
4, 30528, Note_on_c, 1, 54, 70
4, 30617, Note_on_c, 1, 57, 0
4, 30617, Note_on_c, 1, 54, 0
4, 30720, Note_on_c, 1, 63, 70
4, 30720, Note_on_c, 1, 51, 70
4, 30816, Note_on_c, 1, 63, 0
4, 30816, Note_on_c, 1, 51, 0
4, 30816, Note_on_c, 1, 64, 70
4, 30816, Note_on_c, 1, 52, 70
4, 30905, Note_on_c, 1, 64, 0
4, 30905, Note_on_c, 1, 52, 0
4, 31008, Note_on_c, 1, 55, 70
4, 31008, Note_on_c, 1, 43, 70
4, 31097, Note_on_c, 1, 55, 0
4, 31097, Note_on_c, 1, 43, 0
4, 31104, Note_on_c, 1, 57, 70
4, 31104, Note_on_c, 1, 45, 70
4, 31193, Note_on_c, 1, 57, 0
4, 31193, Note_on_c, 1, 45, 0
4, 31200, Note_on_c, 1, 55, 70
4, 31200, Note_on_c, 1, 47, 70
4, 31289, Note_on_c, 1, 55, 0
4, 31289, Note_on_c, 1, 47, 0
4, 31296, Note_on_c, 1, 54, 70
4, 31296, Note_on_c, 1, 47, 70
4, 31385, Note_on_c, 1, 54, 0
4, 31385, Note_on_c, 1, 47, 0
4, 31392, Note_on_c, 1, 52, 70
4, 31481, Note_on_c, 1, 52, 0
4, 31488, Note_on_c, 1, 40, 70
4, 31577, Note_on_c, 1, 40, 0
4, 31680, Note_on_c, 1, 55, 80
4, 31680, Note_on_c, 1, 43, 80
4, 31769, Note_on_c, 1, 55, 0
4, 31769, Note_on_c, 1, 43, 0
4, 31776, Note_on_c, 1, 55, 80
4, 31821, Note_on_c, 1, 55, 0
4, 31824, Note_on_c, 1, 54, 80
4, 31869, Note_on_c, 1, 54, 0
4, 31872, Note_on_c, 1, 55, 80
4, 31917, Note_on_c, 1, 55, 0
4, 31920, Note_on_c, 1, 57, 80
4, 31965, Note_on_c, 1, 57, 0
4, 31968, Note_on_c, 1, 59, 80
4, 32007, Note_on_c, 1, 59, 0
4, 32064, Note_on_c, 1, 55, 80
4, 32103, Note_on_c, 1, 55, 0
4, 32160, Note_on_c, 1, 62, 80
4, 32205, Note_on_c, 1, 62, 0
4, 32208, Note_on_c, 1, 59, 80
4, 32253, Note_on_c, 1, 59, 0
4, 32256, Note_on_c, 1, 55, 80
4, 32295, Note_on_c, 1, 55, 0
4, 32352, Note_on_c, 1, 50, 80
4, 32391, Note_on_c, 1, 50, 0
4, 32448, Note_on_c, 1, 59, 80
4, 32487, Note_on_c, 1, 59, 0
4, 32544, Note_on_c, 1, 55, 80
4, 32721, Note_on_c, 1, 55, 0
4, 32736, Note_on_c, 1, 62, 75
4, 32736, Note_on_c, 1, 55, 75
4, 32825, Note_on_c, 1, 62, 0
4, 32825, Note_on_c, 1, 55, 0
4, 32832, Note_on_c, 1, 62, 75
4, 32832, Note_on_c, 1, 54, 75
4, 33009, Note_on_c, 1, 62, 0
4, 33009, Note_on_c, 1, 54, 0
4, 33024, Note_on_c, 1, 62, 75
4, 33024, Note_on_c, 1, 55, 75
4, 33113, Note_on_c, 1, 62, 0
4, 33113, Note_on_c, 1, 55, 0
4, 33120, Note_on_c, 1, 62, 75
4, 33120, Note_on_c, 1, 54, 75
4, 33297, Note_on_c, 1, 62, 0
4, 33297, Note_on_c, 1, 54, 0
4, 33312, Note_on_c, 1, 62, 75
4, 33312, Note_on_c, 1, 55, 75
4, 33401, Note_on_c, 1, 62, 0
4, 33401, Note_on_c, 1, 55, 0
4, 33408, Note_on_c, 1, 59, 75
4, 33497, Note_on_c, 1, 59, 0
4, 33504, Note_on_c, 1, 60, 75
4, 33593, Note_on_c, 1, 60, 0
4, 33600, Note_on_c, 1, 61, 75
4, 33689, Note_on_c, 1, 61, 0
4, 33696, Note_on_c, 1, 62, 75
4, 33785, Note_on_c, 1, 62, 0
4, 33792, Note_on_c, 1, 50, 75
4, 33881, Note_on_c, 1, 50, 0
4, 33984, Note_on_c, 1, 55, 80
4, 33984, Note_on_c, 1, 43, 80
4, 34073, Note_on_c, 1, 55, 0
4, 34073, Note_on_c, 1, 43, 0
4, 34080, Note_on_c, 1, 55, 80
4, 34125, Note_on_c, 1, 55, 0
4, 34128, Note_on_c, 1, 54, 80
4, 34173, Note_on_c, 1, 54, 0
4, 34176, Note_on_c, 1, 55, 80
4, 34221, Note_on_c, 1, 55, 0
4, 34224, Note_on_c, 1, 57, 80
4, 34269, Note_on_c, 1, 57, 0
4, 34272, Note_on_c, 1, 59, 80
4, 34311, Note_on_c, 1, 59, 0
4, 34368, Note_on_c, 1, 55, 80
4, 34407, Note_on_c, 1, 55, 0
4, 34464, Note_on_c, 1, 62, 80
4, 34509, Note_on_c, 1, 62, 0
4, 34512, Note_on_c, 1, 59, 80
4, 34557, Note_on_c, 1, 59, 0
4, 34560, Note_on_c, 1, 55, 80
4, 34599, Note_on_c, 1, 55, 0
4, 34656, Note_on_c, 1, 50, 80
4, 34695, Note_on_c, 1, 50, 0
4, 34752, Note_on_c, 1, 59, 80
4, 34791, Note_on_c, 1, 59, 0
4, 34848, Note_on_c, 1, 55, 80
4, 35025, Note_on_c, 1, 55, 0
4, 35040, Note_on_c, 1, 62, 75
4, 35040, Note_on_c, 1, 55, 75
4, 35129, Note_on_c, 1, 62, 0
4, 35129, Note_on_c, 1, 55, 0
4, 35136, Note_on_c, 1, 62, 75
4, 35136, Note_on_c, 1, 54, 75
4, 35313, Note_on_c, 1, 62, 0
4, 35313, Note_on_c, 1, 54, 0
4, 35328, Note_on_c, 1, 62, 75
4, 35328, Note_on_c, 1, 55, 75
4, 35417, Note_on_c, 1, 62, 0
4, 35417, Note_on_c, 1, 55, 0
4, 35424, Note_on_c, 1, 62, 75
4, 35424, Note_on_c, 1, 54, 75
4, 35601, Note_on_c, 1, 62, 0
4, 35601, Note_on_c, 1, 54, 0
4, 35616, Note_on_c, 1, 62, 75
4, 35616, Note_on_c, 1, 55, 75
4, 35705, Note_on_c, 1, 62, 0
4, 35705, Note_on_c, 1, 55, 0
4, 35712, Note_on_c, 1, 59, 75
4, 35801, Note_on_c, 1, 59, 0
4, 35808, Note_on_c, 1, 60, 75
4, 35897, Note_on_c, 1, 60, 0
4, 35904, Note_on_c, 1, 61, 75
4, 35993, Note_on_c, 1, 61, 0
4, 36000, Note_on_c, 1, 62, 75
4, 36089, Note_on_c, 1, 62, 0
4, 36096, Note_on_c, 1, 50, 75
4, 36185, Note_on_c, 1, 50, 0
4, 36288, Note_on_c, 1, 62, 75
4, 36288, Note_on_c, 1, 50, 75
4, 36377, Note_on_c, 1, 62, 0
4, 36377, Note_on_c, 1, 50, 0
4, 36576, Note_on_c, 1, 54, 75
4, 36621, Note_on_c, 1, 54, 0
4, 36624, Note_on_c, 1, 62, 75
4, 36669, Note_on_c, 1, 62, 0
4, 36672, Note_on_c, 1, 57, 75
4, 36717, Note_on_c, 1, 57, 0
4, 36720, Note_on_c, 1, 62, 75
4, 36765, Note_on_c, 1, 62, 0
4, 36768, Note_on_c, 1, 54, 75
4, 36813, Note_on_c, 1, 54, 0
4, 36816, Note_on_c, 1, 62, 75
4, 36861, Note_on_c, 1, 62, 0
4, 36864, Note_on_c, 1, 55, 75
4, 36909, Note_on_c, 1, 55, 0
4, 36912, Note_on_c, 1, 62, 75
4, 36957, Note_on_c, 1, 62, 0
4, 36960, Note_on_c, 1, 59, 75
4, 37005, Note_on_c, 1, 59, 0
4, 37008, Note_on_c, 1, 62, 75
4, 37053, Note_on_c, 1, 62, 0
4, 37056, Note_on_c, 1, 55, 75
4, 37101, Note_on_c, 1, 55, 0
4, 37104, Note_on_c, 1, 62, 75
4, 37149, Note_on_c, 1, 62, 0
4, 37152, Note_on_c, 1, 57, 75
4, 37197, Note_on_c, 1, 57, 0
4, 37200, Note_on_c, 1, 62, 75
4, 37245, Note_on_c, 1, 62, 0
4, 37248, Note_on_c, 1, 60, 75
4, 37293, Note_on_c, 1, 60, 0
4, 37296, Note_on_c, 1, 62, 75
4, 37341, Note_on_c, 1, 62, 0
4, 37344, Note_on_c, 1, 57, 75
4, 37389, Note_on_c, 1, 57, 0
4, 37392, Note_on_c, 1, 62, 75
4, 37437, Note_on_c, 1, 62, 0
4, 37440, Note_on_c, 1, 59, 75
4, 37529, Note_on_c, 1, 59, 0
4, 37728, Note_on_c, 1, 54, 75
4, 37773, Note_on_c, 1, 54, 0
4, 37776, Note_on_c, 1, 62, 75
4, 37821, Note_on_c, 1, 62, 0
4, 37824, Note_on_c, 1, 57, 75
4, 37869, Note_on_c, 1, 57, 0
4, 37872, Note_on_c, 1, 62, 75
4, 37917, Note_on_c, 1, 62, 0
4, 37920, Note_on_c, 1, 55, 75
4, 37965, Note_on_c, 1, 55, 0
4, 37968, Note_on_c, 1, 62, 75
4, 38013, Note_on_c, 1, 62, 0
4, 38016, Note_on_c, 1, 54, 75
4, 38061, Note_on_c, 1, 54, 0
4, 38064, Note_on_c, 1, 62, 75
4, 38109, Note_on_c, 1, 62, 0
4, 38112, Note_on_c, 1, 57, 75
4, 38157, Note_on_c, 1, 57, 0
4, 38160, Note_on_c, 1, 62, 75
4, 38205, Note_on_c, 1, 62, 0
4, 38208, Note_on_c, 1, 55, 75
4, 38253, Note_on_c, 1, 55, 0
4, 38256, Note_on_c, 1, 62, 75
4, 38301, Note_on_c, 1, 62, 0
4, 38304, Note_on_c, 1, 50, 75
4, 38393, Note_on_c, 1, 50, 0
4, 38592, Note_on_c, 1, 55, 80
4, 38592, Note_on_c, 1, 43, 80
4, 38681, Note_on_c, 1, 55, 0
4, 38681, Note_on_c, 1, 43, 0
4, 38688, Note_on_c, 1, 55, 80
4, 38733, Note_on_c, 1, 55, 0
4, 38736, Note_on_c, 1, 54, 80
4, 38781, Note_on_c, 1, 54, 0
4, 38784, Note_on_c, 1, 55, 80
4, 38829, Note_on_c, 1, 55, 0
4, 38832, Note_on_c, 1, 57, 80
4, 38877, Note_on_c, 1, 57, 0
4, 38880, Note_on_c, 1, 59, 80
4, 38919, Note_on_c, 1, 59, 0
4, 38976, Note_on_c, 1, 55, 80
4, 39015, Note_on_c, 1, 55, 0
4, 39072, Note_on_c, 1, 62, 80
4, 39117, Note_on_c, 1, 62, 0
4, 39120, Note_on_c, 1, 59, 80
4, 39165, Note_on_c, 1, 59, 0
4, 39168, Note_on_c, 1, 55, 80
4, 39207, Note_on_c, 1, 55, 0
4, 39264, Note_on_c, 1, 50, 80
4, 39303, Note_on_c, 1, 50, 0
4, 39360, Note_on_c, 1, 59, 80
4, 39399, Note_on_c, 1, 59, 0
4, 39456, Note_on_c, 1, 55, 80
4, 39633, Note_on_c, 1, 55, 0
4, 39648, Note_on_c, 1, 62, 75
4, 39648, Note_on_c, 1, 55, 75
4, 39737, Note_on_c, 1, 62, 0
4, 39737, Note_on_c, 1, 55, 0
4, 39744, Note_on_c, 1, 62, 75
4, 39744, Note_on_c, 1, 54, 75
4, 39921, Note_on_c, 1, 62, 0
4, 39921, Note_on_c, 1, 54, 0
4, 39936, Note_on_c, 1, 62, 75
4, 39936, Note_on_c, 1, 55, 75
4, 40025, Note_on_c, 1, 62, 0
4, 40025, Note_on_c, 1, 55, 0
4, 40032, Note_on_c, 1, 62, 75
4, 40032, Note_on_c, 1, 54, 75
4, 40209, Note_on_c, 1, 62, 0
4, 40209, Note_on_c, 1, 54, 0
4, 40224, Note_on_c, 1, 62, 75
4, 40224, Note_on_c, 1, 55, 75
4, 40313, Note_on_c, 1, 62, 0
4, 40313, Note_on_c, 1, 55, 0
4, 40320, Note_on_c, 1, 60, 75
4, 40409, Note_on_c, 1, 60, 0
4, 40416, Note_on_c, 1, 62, 75
4, 40505, Note_on_c, 1, 62, 0
4, 40512, Note_on_c, 1, 50, 75
4, 40601, Note_on_c, 1, 50, 0
4, 40608, Note_on_c, 1, 55, 75
4, 40697, Note_on_c, 1, 55, 0
4, 40704, Note_on_c, 1, 50, 75
4, 40793, Note_on_c, 1, 50, 0
4, 40800, Note_on_c, 1, 43, 75
4, 40889, Note_on_c, 1, 43, 0
4, 40896, Note_on_c, 1, 62, 75
4, 40896, Note_on_c, 1, 50, 75
4, 40985, Note_on_c, 1, 62, 0
4, 40985, Note_on_c, 1, 50, 0
4, 41184, Note_on_c, 1, 54, 75
4, 41229, Note_on_c, 1, 54, 0
4, 41232, Note_on_c, 1, 62, 75
4, 41277, Note_on_c, 1, 62, 0
4, 41280, Note_on_c, 1, 57, 75
4, 41325, Note_on_c, 1, 57, 0
4, 41328, Note_on_c, 1, 62, 75
4, 41373, Note_on_c, 1, 62, 0
4, 41376, Note_on_c, 1, 54, 75
4, 41421, Note_on_c, 1, 54, 0
4, 41424, Note_on_c, 1, 62, 75
4, 41469, Note_on_c, 1, 62, 0
4, 41472, Note_on_c, 1, 55, 75
4, 41517, Note_on_c, 1, 55, 0
4, 41520, Note_on_c, 1, 62, 75
4, 41565, Note_on_c, 1, 62, 0
4, 41568, Note_on_c, 1, 59, 75
4, 41613, Note_on_c, 1, 59, 0
4, 41616, Note_on_c, 1, 62, 75
4, 41661, Note_on_c, 1, 62, 0
4, 41664, Note_on_c, 1, 55, 75
4, 41709, Note_on_c, 1, 55, 0
4, 41712, Note_on_c, 1, 62, 75
4, 41757, Note_on_c, 1, 62, 0
4, 41760, Note_on_c, 1, 57, 75
4, 41805, Note_on_c, 1, 57, 0
4, 41808, Note_on_c, 1, 62, 75
4, 41853, Note_on_c, 1, 62, 0
4, 41856, Note_on_c, 1, 60, 75
4, 41901, Note_on_c, 1, 60, 0
4, 41904, Note_on_c, 1, 62, 75
4, 41949, Note_on_c, 1, 62, 0
4, 41952, Note_on_c, 1, 57, 75
4, 41997, Note_on_c, 1, 57, 0
4, 42000, Note_on_c, 1, 62, 75
4, 42045, Note_on_c, 1, 62, 0
4, 42048, Note_on_c, 1, 59, 75
4, 42137, Note_on_c, 1, 59, 0
4, 42336, Note_on_c, 1, 54, 75
4, 42381, Note_on_c, 1, 54, 0
4, 42384, Note_on_c, 1, 62, 75
4, 42429, Note_on_c, 1, 62, 0
4, 42432, Note_on_c, 1, 57, 75
4, 42477, Note_on_c, 1, 57, 0
4, 42480, Note_on_c, 1, 62, 75
4, 42525, Note_on_c, 1, 62, 0
4, 42528, Note_on_c, 1, 55, 75
4, 42573, Note_on_c, 1, 55, 0
4, 42576, Note_on_c, 1, 62, 75
4, 42621, Note_on_c, 1, 62, 0
4, 42624, Note_on_c, 1, 54, 75
4, 42669, Note_on_c, 1, 54, 0
4, 42672, Note_on_c, 1, 62, 75
4, 42717, Note_on_c, 1, 62, 0
4, 42720, Note_on_c, 1, 57, 75
4, 42765, Note_on_c, 1, 57, 0
4, 42768, Note_on_c, 1, 62, 75
4, 42813, Note_on_c, 1, 62, 0
4, 42816, Note_on_c, 1, 55, 75
4, 42861, Note_on_c, 1, 55, 0
4, 42864, Note_on_c, 1, 62, 75
4, 42909, Note_on_c, 1, 62, 0
4, 42912, Note_on_c, 1, 50, 75
4, 43001, Note_on_c, 1, 50, 0
4, 43200, Note_on_c, 1, 55, 80
4, 43200, Note_on_c, 1, 43, 80
4, 43289, Note_on_c, 1, 55, 0
4, 43289, Note_on_c, 1, 43, 0
4, 43296, Note_on_c, 1, 55, 80
4, 43341, Note_on_c, 1, 55, 0
4, 43344, Note_on_c, 1, 54, 80
4, 43389, Note_on_c, 1, 54, 0
4, 43392, Note_on_c, 1, 55, 80
4, 43437, Note_on_c, 1, 55, 0
4, 43440, Note_on_c, 1, 57, 80
4, 43485, Note_on_c, 1, 57, 0
4, 43488, Note_on_c, 1, 59, 80
4, 43527, Note_on_c, 1, 59, 0
4, 43584, Note_on_c, 1, 55, 80
4, 43623, Note_on_c, 1, 55, 0
4, 43680, Note_on_c, 1, 62, 80
4, 43725, Note_on_c, 1, 62, 0
4, 43728, Note_on_c, 1, 59, 80
4, 43773, Note_on_c, 1, 59, 0
4, 43776, Note_on_c, 1, 55, 80
4, 43815, Note_on_c, 1, 55, 0
4, 43872, Note_on_c, 1, 50, 80
4, 43911, Note_on_c, 1, 50, 0
4, 43968, Note_on_c, 1, 59, 80
4, 44007, Note_on_c, 1, 59, 0
4, 44064, Note_on_c, 1, 55, 80
4, 44241, Note_on_c, 1, 55, 0
4, 44256, Note_on_c, 1, 62, 75
4, 44256, Note_on_c, 1, 55, 75
4, 44345, Note_on_c, 1, 62, 0
4, 44345, Note_on_c, 1, 55, 0
4, 44352, Note_on_c, 1, 62, 75
4, 44352, Note_on_c, 1, 54, 75
4, 44529, Note_on_c, 1, 62, 0
4, 44529, Note_on_c, 1, 54, 0
4, 44544, Note_on_c, 1, 62, 75
4, 44544, Note_on_c, 1, 55, 75
4, 44633, Note_on_c, 1, 62, 0
4, 44633, Note_on_c, 1, 55, 0
4, 44640, Note_on_c, 1, 62, 75
4, 44640, Note_on_c, 1, 54, 75
4, 44817, Note_on_c, 1, 62, 0
4, 44817, Note_on_c, 1, 54, 0
4, 44832, Note_on_c, 1, 62, 75
4, 44832, Note_on_c, 1, 55, 75
4, 44921, Note_on_c, 1, 62, 0
4, 44921, Note_on_c, 1, 55, 0
4, 44928, Note_on_c, 1, 60, 75
4, 45017, Note_on_c, 1, 60, 0
4, 45024, Note_on_c, 1, 62, 75
4, 45113, Note_on_c, 1, 62, 0
4, 45120, Note_on_c, 1, 50, 75
4, 45209, Note_on_c, 1, 50, 0
4, 45216, Note_on_c, 1, 55, 75
4, 45305, Note_on_c, 1, 55, 0
4, 45312, Note_on_c, 1, 50, 75
4, 45401, Note_on_c, 1, 50, 0
4, 45408, Note_on_c, 1, 43, 75
4, 45497, Note_on_c, 1, 43, 0
4, 45504, Note_on_c, 1, 43, 0
4, 45593, Note_on_c, 1, 43, 0
4, 45600, End_track
5, 0, Start_track
5, 0, Program_c, 1, 0
5, 0, Control_c, 1, 7, 127
5, 0, Control_c, 1, 10, 64
5, 45504, End_track
6, 0, Start_track
6, 0, Title_t, "Sonata I   Haydn  "
6, 0, End_track
0, 0, End_of_file
