0, 0, Header, 1, 6, 96
1, 0, Start_track
1, 0, Copyright_t, "Copyright  2000 <copyright holder>"
1, 0, Text_t, "Sonata I\015\012"
1, 0, Text_t, "Haydn\015\012"
1, 0, Sequencer_specific, 16, 68, 87, 77, 90, 86, 82, 83, 78, 32, 55, 46, 49, 46, 51, 46, 48
1, 0, Time_signature, 2, 1, 48, 8
1, 0, Tempo, 454545
1, 0, Key_signature, 2, "major"
1, 42624, End_track
2, 0, Start_track
2, 0, Program_c, 0, 0
2, 0, Control_c, 0, 7, 127
2, 0, Control_c, 0, 10, 64
2, 0, Note_on_c, 0, 54, 80
2, 12, Note_on_c, 0, 54, 0
2, 12, Note_on_c, 0, 57, 80
2, 24, Note_on_c, 0, 57, 0
2, 24, Note_on_c, 0, 62, 80
2, 177, Note_on_c, 0, 62, 0
2, 192, Note_on_c, 0, 57, 80
2, 204, Note_on_c, 0, 57, 0
2, 204, Note_on_c, 0, 61, 80
2, 216, Note_on_c, 0, 61, 0
2, 216, Note_on_c, 0, 64, 80
2, 369, Note_on_c, 0, 64, 0
2, 384, Note_on_c, 0, 57, 80
2, 396, Note_on_c, 0, 57, 0
2, 396, Note_on_c, 0, 62, 80
2, 408, Note_on_c, 0, 62, 0
2, 408, Note_on_c, 0, 66, 80
2, 561, Note_on_c, 0, 66, 0
2, 672, Note_on_c, 0, 74, 64
2, 739, Note_on_c, 0, 74, 0
2, 744, Note_on_c, 0, 69, 64
2, 767, Note_on_c, 0, 69, 0
2, 768, Note_on_c, 0, 66, 64
2, 945, Note_on_c, 0, 66, 0
2, 960, Note_on_c, 0, 69, 64
2, 978, Note_on_c, 0, 69, 0
2, 978, Note_on_c, 0, 67, 64
2, 1027, Note_on_c, 0, 67, 0
2, 1032, Note_on_c, 0, 66, 64
2, 1055, Note_on_c, 0, 66, 0
2, 1056, Note_on_c, 0, 67, 64
2, 1123, Note_on_c, 0, 67, 0
2, 1128, Note_on_c, 0, 71, 65
2, 1151, Note_on_c, 0, 71, 0
2, 1152, Note_on_c, 0, 64, 65
2, 1219, Note_on_c, 0, 64, 0
2, 1224, Note_on_c, 0, 67, 66
2, 1247, Note_on_c, 0, 67, 0
2, 1248, Note_on_c, 0, 66, 67
2, 1315, Note_on_c, 0, 66, 0
2, 1320, Note_on_c, 0, 69, 68
2, 1343, Note_on_c, 0, 69, 0
2, 1344, Note_on_c, 0, 67, 68
2, 1433, Note_on_c, 0, 67, 0
2, 1536, Note_on_c, 0, 54, 80
2, 1548, Note_on_c, 0, 54, 0
2, 1548, Note_on_c, 0, 57, 80
2, 1560, Note_on_c, 0, 57, 0
2, 1560, Note_on_c, 0, 62, 80
2, 1713, Note_on_c, 0, 62, 0
2, 1728, Note_on_c, 0, 57, 80
2, 1740, Note_on_c, 0, 57, 0
2, 1740, Note_on_c, 0, 61, 80
2, 1752, Note_on_c, 0, 61, 0
2, 1752, Note_on_c, 0, 64, 80
2, 1905, Note_on_c, 0, 64, 0
2, 1920, Note_on_c, 0, 57, 80
2, 1932, Note_on_c, 0, 57, 0
2, 1932, Note_on_c, 0, 62, 80
2, 1944, Note_on_c, 0, 62, 0
2, 1944, Note_on_c, 0, 66, 80
2, 2097, Note_on_c, 0, 66, 0
2, 2208, Note_on_c, 0, 78, 64
2, 2275, Note_on_c, 0, 78, 0
2, 2280, Note_on_c, 0, 74, 64
2, 2303, Note_on_c, 0, 74, 0
2, 2304, Note_on_c, 0, 69, 64
2, 2481, Note_on_c, 0, 69, 0
2, 2496, Note_on_c, 0, 73, 64
2, 2508, Note_on_c, 0, 73, 0
2, 2508, Note_on_c, 0, 71, 64
2, 2563, Note_on_c, 0, 71, 0
2, 2568, Note_on_c, 0, 69, 64
2, 2591, Note_on_c, 0, 69, 0
2, 2592, Note_on_c, 0, 71, 64
2, 2659, Note_on_c, 0, 71, 0
2, 2664, Note_on_c, 0, 74, 64
2, 2687, Note_on_c, 0, 74, 0
2, 2688, Note_on_c, 0, 69, 64
2, 2755, Note_on_c, 0, 69, 0
2, 2760, Note_on_c, 0, 74, 66
2, 2783, Note_on_c, 0, 74, 0
2, 2784, Note_on_c, 0, 78, 67
2, 2851, Note_on_c, 0, 78, 0
2, 2856, Note_on_c, 0, 74, 70
2, 2879, Note_on_c, 0, 74, 0
2, 2880, Note_on_c, 0, 81, 87
2, 2976, Note_on_c, 0, 81, 0
2, 3072, Note_on_c, 0, 71, 64
2, 3139, Note_on_c, 0, 71, 0
2, 3144, Note_on_c, 0, 74, 66
2, 3167, Note_on_c, 0, 74, 0
2, 3168, Note_on_c, 0, 79, 67
2, 3235, Note_on_c, 0, 79, 0
2, 3240, Note_on_c, 0, 74, 70
2, 3263, Note_on_c, 0, 74, 0
2, 3264, Note_on_c, 0, 83, 87
2, 3360, Note_on_c, 0, 83, 0
2, 3432, Note_on_c, 0, 83, 75
2, 3442, Note_on_c, 0, 83, 0
2, 3456, Note_on_c, 0, 81, 96
2, 3488, Note_on_c, 0, 81, 0
2, 3488, Note_on_c, 0, 78, 80
2, 3518, Note_on_c, 0, 78, 0
2, 3520, Note_on_c, 0, 74, 80
2, 3550, Note_on_c, 0, 74, 0
2, 3552, Note_on_c, 0, 69, 80
2, 3582, Note_on_c, 0, 69, 0
2, 3584, Note_on_c, 0, 66, 80
2, 3614, Note_on_c, 0, 66, 0
2, 3616, Note_on_c, 0, 62, 80
2, 3646, Note_on_c, 0, 62, 0
2, 3648, Note_on_c, 0, 57, 80
2, 3678, Note_on_c, 0, 57, 0
2, 3680, Note_on_c, 0, 58, 79
2, 3710, Note_on_c, 0, 58, 0
2, 3712, Note_on_c, 0, 59, 78
2, 3742, Note_on_c, 0, 59, 0
2, 3744, Note_on_c, 0, 60, 77
2, 3774, Note_on_c, 0, 60, 0
2, 3776, Note_on_c, 0, 61, 76
2, 3806, Note_on_c, 0, 61, 0
2, 3808, Note_on_c, 0, 64, 76
2, 3838, Note_on_c, 0, 64, 0
2, 3840, Note_on_c, 0, 62, 75
2, 3858, Note_on_c, 0, 62, 0
2, 3858, Note_on_c, 0, 74, 91
2, 4032, Note_on_c, 0, 74, 0
2, 4032, Note_on_c, 0, 73, 75
2, 4032, Note_on_c, 0, 61, 75
2, 4128, Note_on_c, 0, 73, 0
2, 4128, Note_on_c, 0, 61, 0
2, 4128, Note_on_c, 0, 74, 75
2, 4128, Note_on_c, 0, 62, 75
2, 4217, Note_on_c, 0, 74, 0
2, 4217, Note_on_c, 0, 62, 0
2, 4224, Note_on_c, 0, 76, 75
2, 4224, Note_on_c, 0, 64, 75
2, 4379, Note_on_c, 0, 76, 0
2, 4379, Note_on_c, 0, 64, 0
2, 4392, Note_on_c, 0, 78, 75
2, 4392, Note_on_c, 0, 66, 75
2, 4415, Note_on_c, 0, 78, 0
2, 4415, Note_on_c, 0, 66, 0
2, 4416, Note_on_c, 0, 79, 75
2, 4416, Note_on_c, 0, 67, 75
2, 4593, Note_on_c, 0, 79, 0
2, 4593, Note_on_c, 0, 67, 0
2, 4608, Note_on_c, 0, 78, 75
2, 4608, Note_on_c, 0, 66, 75
2, 4647, Note_on_c, 0, 78, 0
2, 4647, Note_on_c, 0, 66, 0
2, 4704, Note_on_c, 0, 78, 75
2, 4704, Note_on_c, 0, 66, 75
2, 4743, Note_on_c, 0, 78, 0
2, 4743, Note_on_c, 0, 66, 0
2, 4800, Note_on_c, 0, 83, 75
2, 4800, Note_on_c, 0, 71, 75
2, 4839, Note_on_c, 0, 83, 0
2, 4839, Note_on_c, 0, 71, 0
2, 4896, Note_on_c, 0, 83, 75
2, 4896, Note_on_c, 0, 71, 75
2, 4935, Note_on_c, 0, 83, 0
2, 4935, Note_on_c, 0, 71, 0
2, 4992, Note_on_c, 0, 74, 75
2, 4992, Note_on_c, 0, 66, 75
2, 5184, Note_on_c, 0, 74, 0
2, 5184, Note_on_c, 0, 66, 0
2, 5184, Note_on_c, 0, 73, 80
2, 5214, Note_on_c, 0, 73, 0
2, 5216, Note_on_c, 0, 71, 79
2, 5246, Note_on_c, 0, 71, 0
2, 5248, Note_on_c, 0, 69, 78
2, 5278, Note_on_c, 0, 69, 0
2, 5280, Note_on_c, 0, 67, 77
2, 5310, Note_on_c, 0, 67, 0
2, 5312, Note_on_c, 0, 66, 76
2, 5342, Note_on_c, 0, 66, 0
2, 5344, Note_on_c, 0, 64, 76
2, 5374, Note_on_c, 0, 64, 0
2, 5376, Note_on_c, 0, 74, 75
2, 5376, Note_on_c, 0, 62, 75
2, 5553, Note_on_c, 0, 74, 0
2, 5553, Note_on_c, 0, 62, 0
2, 5568, Note_on_c, 0, 73, 75
2, 5568, Note_on_c, 0, 61, 75
2, 5664, Note_on_c, 0, 73, 0
2, 5664, Note_on_c, 0, 61, 0
2, 5664, Note_on_c, 0, 74, 75
2, 5664, Note_on_c, 0, 62, 75
2, 5753, Note_on_c, 0, 74, 0
2, 5753, Note_on_c, 0, 62, 0
2, 5760, Note_on_c, 0, 76, 75
2, 5760, Note_on_c, 0, 64, 75
2, 5915, Note_on_c, 0, 76, 0
2, 5915, Note_on_c, 0, 64, 0
2, 5928, Note_on_c, 0, 78, 75
2, 5928, Note_on_c, 0, 66, 75
2, 5951, Note_on_c, 0, 78, 0
2, 5951, Note_on_c, 0, 66, 0
2, 5952, Note_on_c, 0, 79, 75
2, 5952, Note_on_c, 0, 67, 75
2, 6129, Note_on_c, 0, 79, 0
2, 6129, Note_on_c, 0, 67, 0
2, 6144, Note_on_c, 0, 78, 75
2, 6144, Note_on_c, 0, 66, 75
2, 6321, Note_on_c, 0, 78, 0
2, 6321, Note_on_c, 0, 66, 0
2, 6336, Note_on_c, 0, 76, 76
2, 6336, Note_on_c, 0, 64, 76
2, 6425, Note_on_c, 0, 76, 0
2, 6425, Note_on_c, 0, 64, 0
2, 6432, Note_on_c, 0, 78, 76
2, 6432, Note_on_c, 0, 66, 76
2, 6521, Note_on_c, 0, 78, 0
2, 6521, Note_on_c, 0, 66, 0
2, 6528, Note_on_c, 0, 79, 77
2, 6528, Note_on_c, 0, 67, 77
2, 6683, Note_on_c, 0, 79, 0
2, 6683, Note_on_c, 0, 67, 0
2, 6696, Note_on_c, 0, 81, 78
2, 6696, Note_on_c, 0, 69, 78
2, 6719, Note_on_c, 0, 81, 0
2, 6719, Note_on_c, 0, 69, 0
2, 6720, Note_on_c, 0, 83, 78
2, 6720, Note_on_c, 0, 71, 78
2, 6875, Note_on_c, 0, 83, 0
2, 6875, Note_on_c, 0, 71, 0
2, 6888, Note_on_c, 0, 83, 79
2, 6888, Note_on_c, 0, 71, 79
2, 6911, Note_on_c, 0, 83, 0
2, 6911, Note_on_c, 0, 71, 0
2, 6912, Note_on_c, 0, 81, 79
2, 6912, Note_on_c, 0, 69, 79
2, 6942, Note_on_c, 0, 81, 0
2, 6942, Note_on_c, 0, 69, 0
2, 6944, Note_on_c, 0, 78, 80
2, 6974, Note_on_c, 0, 78, 0
2, 6976, Note_on_c, 0, 86, 80
2, 7006, Note_on_c, 0, 86, 0
2, 7008, Note_on_c, 0, 81, 80
2, 7038, Note_on_c, 0, 81, 0
2, 7040, Note_on_c, 0, 78, 79
2, 7070, Note_on_c, 0, 78, 0
2, 7072, Note_on_c, 0, 74, 78
2, 7102, Note_on_c, 0, 74, 0
2, 7104, Note_on_c, 0, 69, 78
2, 7134, Note_on_c, 0, 69, 0
2, 7136, Note_on_c, 0, 66, 77
2, 7166, Note_on_c, 0, 66, 0
2, 7168, Note_on_c, 0, 69, 76
2, 7198, Note_on_c, 0, 69, 0
2, 7200, Note_on_c, 0, 67, 76
2, 7230, Note_on_c, 0, 67, 0
2, 7232, Note_on_c, 0, 64, 75
2, 7262, Note_on_c, 0, 64, 0
2, 7264, Note_on_c, 0, 61, 75
2, 7294, Note_on_c, 0, 61, 0
2, 7296, Note_on_c, 0, 74, 74
2, 7296, Note_on_c, 0, 62, 74
2, 7473, Note_on_c, 0, 74, 0
2, 7473, Note_on_c, 0, 62, 0
2, 7488, Note_on_c, 0, 78, 70
2, 7488, Note_on_c, 0, 66, 70
2, 7665, Note_on_c, 0, 78, 0
2, 7665, Note_on_c, 0, 66, 0
2, 7680, Note_on_c, 0, 81, 86
2, 7680, Note_on_c, 0, 69, 86
2, 7902, Note_on_c, 0, 81, 0
2, 7902, Note_on_c, 0, 69, 0
2, 7904, Note_on_c, 0, 83, 70
2, 7904, Note_on_c, 0, 71, 70
2, 7934, Note_on_c, 0, 83, 0
2, 7934, Note_on_c, 0, 71, 0
2, 7936, Note_on_c, 0, 81, 70
2, 7936, Note_on_c, 0, 69, 70
2, 7966, Note_on_c, 0, 81, 0
2, 7966, Note_on_c, 0, 69, 0
2, 7968, Note_on_c, 0, 79, 70
2, 7968, Note_on_c, 0, 67, 70
2, 7998, Note_on_c, 0, 79, 0
2, 7998, Note_on_c, 0, 67, 0
2, 8000, Note_on_c, 0, 78, 70
2, 8000, Note_on_c, 0, 66, 70
2, 8030, Note_on_c, 0, 78, 0
2, 8030, Note_on_c, 0, 66, 0
2, 8032, Note_on_c, 0, 76, 70
2, 8032, Note_on_c, 0, 64, 70
2, 8062, Note_on_c, 0, 76, 0
2, 8062, Note_on_c, 0, 64, 0
2, 8064, Note_on_c, 0, 74, 70
2, 8064, Note_on_c, 0, 62, 70
2, 8241, Note_on_c, 0, 74, 0
2, 8241, Note_on_c, 0, 62, 0
2, 8256, Note_on_c, 0, 78, 75
2, 8256, Note_on_c, 0, 66, 75
2, 8433, Note_on_c, 0, 78, 0
2, 8433, Note_on_c, 0, 66, 0
2, 8448, Note_on_c, 0, 82, 101
2, 8448, Note_on_c, 0, 70, 101
2, 8670, Note_on_c, 0, 82, 0
2, 8670, Note_on_c, 0, 70, 0
2, 8672, Note_on_c, 0, 88, 80
2, 8672, Note_on_c, 0, 76, 80
2, 8702, Note_on_c, 0, 88, 0
2, 8702, Note_on_c, 0, 76, 0
2, 8704, Note_on_c, 0, 86, 80
2, 8704, Note_on_c, 0, 74, 80
2, 8734, Note_on_c, 0, 86, 0
2, 8734, Note_on_c, 0, 74, 0
2, 8736, Note_on_c, 0, 85, 80
2, 8736, Note_on_c, 0, 73, 80
2, 8766, Note_on_c, 0, 85, 0
2, 8766, Note_on_c, 0, 73, 0
2, 8768, Note_on_c, 0, 83, 80
2, 8768, Note_on_c, 0, 71, 80
2, 8798, Note_on_c, 0, 83, 0
2, 8798, Note_on_c, 0, 71, 0
2, 8800, Note_on_c, 0, 82, 80
2, 8800, Note_on_c, 0, 70, 80
2, 8830, Note_on_c, 0, 82, 0
2, 8830, Note_on_c, 0, 70, 0
2, 8832, Note_on_c, 0, 83, 80
2, 8832, Note_on_c, 0, 71, 80
2, 8921, Note_on_c, 0, 83, 0
2, 8921, Note_on_c, 0, 71, 0
2, 8928, Note_on_c, 0, 85, 80
2, 8928, Note_on_c, 0, 73, 80
2, 9017, Note_on_c, 0, 85, 0
2, 9017, Note_on_c, 0, 73, 0
2, 9024, Note_on_c, 0, 88, 80
2, 9024, Note_on_c, 0, 76, 80
2, 9072, Note_on_c, 0, 88, 0
2, 9072, Note_on_c, 0, 76, 0
2, 9072, Note_on_c, 0, 86, 80
2, 9072, Note_on_c, 0, 74, 80
2, 9117, Note_on_c, 0, 86, 0
2, 9117, Note_on_c, 0, 74, 0
2, 9120, Note_on_c, 0, 85, 80
2, 9120, Note_on_c, 0, 73, 80
2, 9168, Note_on_c, 0, 85, 0
2, 9168, Note_on_c, 0, 73, 0
2, 9168, Note_on_c, 0, 83, 80
2, 9168, Note_on_c, 0, 71, 80
2, 9213, Note_on_c, 0, 83, 0
2, 9213, Note_on_c, 0, 71, 0
2, 9216, Note_on_c, 0, 81, 80
2, 9216, Note_on_c, 0, 73, 80
2, 9408, Note_on_c, 0, 81, 0
2, 9408, Note_on_c, 0, 73, 0
2, 9408, Note_on_c, 0, 80, 86
2, 9438, Note_on_c, 0, 80, 0
2, 9440, Note_on_c, 0, 78, 83
2, 9470, Note_on_c, 0, 78, 0
2, 9472, Note_on_c, 0, 76, 81
2, 9502, Note_on_c, 0, 76, 0
2, 9504, Note_on_c, 0, 74, 78
2, 9534, Note_on_c, 0, 74, 0
2, 9536, Note_on_c, 0, 73, 76
2, 9566, Note_on_c, 0, 73, 0
2, 9568, Note_on_c, 0, 71, 73
2, 9598, Note_on_c, 0, 71, 0
2, 9600, Note_on_c, 0, 69, 70
2, 9639, Note_on_c, 0, 69, 0
2, 9696, Note_on_c, 0, 69, 70
2, 9735, Note_on_c, 0, 69, 0
2, 9792, Note_on_c, 0, 71, 70
2, 9831, Note_on_c, 0, 71, 0
2, 9984, Note_on_c, 0, 73, 70
2, 10023, Note_on_c, 0, 73, 0
2, 10080, Note_on_c, 0, 73, 70
2, 10119, Note_on_c, 0, 73, 0
2, 10176, Note_on_c, 0, 74, 70
2, 10215, Note_on_c, 0, 74, 0
2, 10400, Note_on_c, 0, 85, 75
2, 10430, Note_on_c, 0, 85, 0
2, 10432, Note_on_c, 0, 83, 75
2, 10462, Note_on_c, 0, 83, 0
2, 10464, Note_on_c, 0, 81, 75
2, 10494, Note_on_c, 0, 81, 0
2, 10496, Note_on_c, 0, 80, 75
2, 10526, Note_on_c, 0, 80, 0
2, 10528, Note_on_c, 0, 78, 75
2, 10558, Note_on_c, 0, 78, 0
2, 10560, Note_on_c, 0, 76, 75
2, 10590, Note_on_c, 0, 76, 0
2, 10592, Note_on_c, 0, 78, 75
2, 10622, Note_on_c, 0, 78, 0
2, 10624, Note_on_c, 0, 76, 75
2, 10654, Note_on_c, 0, 76, 0
2, 10656, Note_on_c, 0, 74, 75
2, 10686, Note_on_c, 0, 74, 0
2, 10688, Note_on_c, 0, 73, 75
2, 10718, Note_on_c, 0, 73, 0
2, 10720, Note_on_c, 0, 71, 75
2, 10750, Note_on_c, 0, 71, 0
2, 10752, Note_on_c, 0, 69, 75
2, 10782, Note_on_c, 0, 69, 0
2, 10784, Note_on_c, 0, 85, 96
2, 10816, Note_on_c, 0, 85, 0
2, 10816, Note_on_c, 0, 83, 75
2, 10846, Note_on_c, 0, 83, 0
2, 10848, Note_on_c, 0, 81, 75
2, 10861, Note_on_c, 0, 81, 0
2, 10880, Note_on_c, 0, 80, 96
2, 10912, Note_on_c, 0, 80, 0
2, 10912, Note_on_c, 0, 78, 75
2, 10942, Note_on_c, 0, 78, 0
2, 10944, Note_on_c, 0, 76, 75
2, 10957, Note_on_c, 0, 76, 0
2, 10976, Note_on_c, 0, 78, 96
2, 11008, Note_on_c, 0, 78, 0
2, 11008, Note_on_c, 0, 76, 75
2, 11038, Note_on_c, 0, 76, 0
2, 11040, Note_on_c, 0, 74, 75
2, 11053, Note_on_c, 0, 74, 0
2, 11072, Note_on_c, 0, 73, 96
2, 11104, Note_on_c, 0, 73, 0
2, 11104, Note_on_c, 0, 71, 75
2, 11134, Note_on_c, 0, 71, 0
2, 11136, Note_on_c, 0, 69, 75
2, 11166, Note_on_c, 0, 69, 0
2, 11168, Note_on_c, 0, 81, 80
2, 11198, Note_on_c, 0, 81, 0
2, 11200, Note_on_c, 0, 80, 80
2, 11230, Note_on_c, 0, 80, 0
2, 11232, Note_on_c, 0, 78, 80
2, 11262, Note_on_c, 0, 78, 0
2, 11264, Note_on_c, 0, 85, 80
2, 11294, Note_on_c, 0, 85, 0
2, 11296, Note_on_c, 0, 75, 80
2, 11326, Note_on_c, 0, 75, 0
2, 11328, Note_on_c, 0, 76, 80
2, 11358, Note_on_c, 0, 76, 0
2, 11360, Note_on_c, 0, 78, 80
2, 11390, Note_on_c, 0, 78, 0
2, 11392, Note_on_c, 0, 76, 80
2, 11422, Note_on_c, 0, 76, 0
2, 11424, Note_on_c, 0, 74, 80
2, 11454, Note_on_c, 0, 74, 0
2, 11456, Note_on_c, 0, 81, 80
2, 11486, Note_on_c, 0, 81, 0
2, 11488, Note_on_c, 0, 72, 80
2, 11518, Note_on_c, 0, 72, 0
2, 11520, Note_on_c, 0, 73, 80
2, 11550, Note_on_c, 0, 73, 0
2, 11552, Note_on_c, 0, 74, 79
2, 11582, Note_on_c, 0, 74, 0
2, 11584, Note_on_c, 0, 73, 78
2, 11614, Note_on_c, 0, 73, 0
2, 11616, Note_on_c, 0, 71, 78
2, 11646, Note_on_c, 0, 71, 0
2, 11648, Note_on_c, 0, 78, 77
2, 11678, Note_on_c, 0, 78, 0
2, 11680, Note_on_c, 0, 68, 77
2, 11710, Note_on_c, 0, 68, 0
2, 11712, Note_on_c, 0, 69, 76
2, 11742, Note_on_c, 0, 69, 0
2, 11744, Note_on_c, 0, 73, 76
2, 11774, Note_on_c, 0, 73, 0
2, 11776, Note_on_c, 0, 71, 75
2, 11806, Note_on_c, 0, 71, 0
2, 11808, Note_on_c, 0, 69, 74
2, 11838, Note_on_c, 0, 69, 0
2, 11840, Note_on_c, 0, 76, 74
2, 11870, Note_on_c, 0, 76, 0
2, 11872, Note_on_c, 0, 70, 73
2, 11902, Note_on_c, 0, 70, 0
2, 11904, Note_on_c, 0, 71, 73
2, 12037, Note_on_c, 0, 71, 0
2, 12048, Note_on_c, 0, 71, 70
2, 12060, Note_on_c, 0, 71, 0
2, 12060, Note_on_c, 0, 73, 70
2, 12072, Note_on_c, 0, 73, 0
2, 12072, Note_on_c, 0, 74, 70
2, 12084, Note_on_c, 0, 74, 0
2, 12084, Note_on_c, 0, 76, 70
2, 12096, Note_on_c, 0, 76, 0
2, 12096, Note_on_c, 0, 77, 87
2, 12192, Note_on_c, 0, 77, 0
2, 12192, Note_on_c, 0, 78, 73
2, 12281, Note_on_c, 0, 78, 0
2, 12288, Note_on_c, 0, 78, 75
2, 12306, Note_on_c, 0, 78, 0
2, 12306, Note_on_c, 0, 69, 91
2, 12480, Note_on_c, 0, 69, 0
2, 12480, Note_on_c, 0, 73, 71
2, 12492, Note_on_c, 0, 73, 0
2, 12492, Note_on_c, 0, 71, 71
2, 12547, Note_on_c, 0, 71, 0
2, 12552, Note_on_c, 0, 69, 70
2, 12575, Note_on_c, 0, 69, 0
2, 12576, Note_on_c, 0, 71, 70
2, 12643, Note_on_c, 0, 71, 0
2, 12648, Note_on_c, 0, 73, 70
2, 12671, Note_on_c, 0, 73, 0
2, 12672, Note_on_c, 0, 69, 70
2, 12702, Note_on_c, 0, 69, 0
2, 12704, Note_on_c, 0, 81, 75
2, 12704, Note_on_c, 0, 78, 75
2, 12734, Note_on_c, 0, 81, 0
2, 12734, Note_on_c, 0, 78, 0
2, 12736, Note_on_c, 0, 80, 75
2, 12736, Note_on_c, 0, 76, 75
2, 12766, Note_on_c, 0, 80, 0
2, 12766, Note_on_c, 0, 76, 0
2, 12768, Note_on_c, 0, 78, 75
2, 12768, Note_on_c, 0, 74, 75
2, 12798, Note_on_c, 0, 78, 0
2, 12798, Note_on_c, 0, 74, 0
2, 12800, Note_on_c, 0, 76, 75
2, 12800, Note_on_c, 0, 73, 75
2, 12830, Note_on_c, 0, 76, 0
2, 12830, Note_on_c, 0, 73, 0
2, 12832, Note_on_c, 0, 74, 75
2, 12832, Note_on_c, 0, 71, 75
2, 12862, Note_on_c, 0, 74, 0
2, 12862, Note_on_c, 0, 71, 0
2, 12864, Note_on_c, 0, 73, 75
2, 12864, Note_on_c, 0, 69, 75
2, 12894, Note_on_c, 0, 73, 0
2, 12894, Note_on_c, 0, 69, 0
2, 12896, Note_on_c, 0, 81, 75
2, 12896, Note_on_c, 0, 78, 75
2, 12926, Note_on_c, 0, 81, 0
2, 12926, Note_on_c, 0, 78, 0
2, 12928, Note_on_c, 0, 80, 76
2, 12928, Note_on_c, 0, 76, 76
2, 12958, Note_on_c, 0, 80, 0
2, 12958, Note_on_c, 0, 76, 0
2, 12960, Note_on_c, 0, 78, 76
2, 12960, Note_on_c, 0, 74, 76
2, 12990, Note_on_c, 0, 78, 0
2, 12990, Note_on_c, 0, 74, 0
2, 12992, Note_on_c, 0, 76, 77
2, 12992, Note_on_c, 0, 73, 77
2, 13022, Note_on_c, 0, 76, 0
2, 13022, Note_on_c, 0, 73, 0
2, 13024, Note_on_c, 0, 74, 77
2, 13024, Note_on_c, 0, 71, 77
2, 13054, Note_on_c, 0, 74, 0
2, 13054, Note_on_c, 0, 71, 0
2, 13056, Note_on_c, 0, 73, 78
2, 13056, Note_on_c, 0, 69, 78
2, 13086, Note_on_c, 0, 73, 0
2, 13086, Note_on_c, 0, 69, 0
2, 13088, Note_on_c, 0, 85, 79
2, 13120, Note_on_c, 0, 85, 0
2, 13120, Note_on_c, 0, 83, 80
2, 13150, Note_on_c, 0, 83, 0
2, 13152, Note_on_c, 0, 81, 80
2, 13165, Note_on_c, 0, 81, 0
2, 13184, Note_on_c, 0, 81, 78
2, 13216, Note_on_c, 0, 81, 0
2, 13216, Note_on_c, 0, 80, 77
2, 13246, Note_on_c, 0, 80, 0
2, 13248, Note_on_c, 0, 78, 76
2, 13261, Note_on_c, 0, 78, 0
2, 13280, Note_on_c, 0, 78, 75
2, 13312, Note_on_c, 0, 78, 0
2, 13312, Note_on_c, 0, 76, 74
2, 13342, Note_on_c, 0, 76, 0
2, 13344, Note_on_c, 0, 74, 73
2, 13357, Note_on_c, 0, 74, 0
2, 13376, Note_on_c, 0, 74, 72
2, 13408, Note_on_c, 0, 74, 0
2, 13408, Note_on_c, 0, 73, 71
2, 13438, Note_on_c, 0, 73, 0
2, 13440, Note_on_c, 0, 71, 70
2, 13529, Note_on_c, 0, 71, 0
2, 13536, Note_on_c, 0, 74, 70
2, 13625, Note_on_c, 0, 74, 0
2, 13632, Note_on_c, 0, 73, 70
2, 13721, Note_on_c, 0, 73, 0
2, 13728, Note_on_c, 0, 69, 70
2, 13817, Note_on_c, 0, 69, 0
2, 13824, Note_on_c, 0, 78, 86
2, 13968, Note_on_c, 0, 78, 0
2, 13968, Note_on_c, 0, 80, 73
2, 13980, Note_on_c, 0, 80, 0
2, 13980, Note_on_c, 0, 78, 74
2, 13992, Note_on_c, 0, 78, 0
2, 13992, Note_on_c, 0, 77, 74
2, 14004, Note_on_c, 0, 77, 0
2, 14004, Note_on_c, 0, 78, 74
2, 14016, Note_on_c, 0, 78, 0
2, 14016, Note_on_c, 0, 81, 91
2, 14208, Note_on_c, 0, 81, 0
2, 14208, Note_on_c, 0, 69, 80
2, 14385, Note_on_c, 0, 69, 0
2, 14400, Note_on_c, 0, 73, 80
2, 14412, Note_on_c, 0, 73, 0
2, 14412, Note_on_c, 0, 71, 80
2, 14467, Note_on_c, 0, 71, 0
2, 14472, Note_on_c, 0, 69, 80
2, 14495, Note_on_c, 0, 69, 0
2, 14496, Note_on_c, 0, 71, 78
2, 14563, Note_on_c, 0, 71, 0
2, 14568, Note_on_c, 0, 73, 72
2, 14591, Note_on_c, 0, 73, 0
2, 14592, Note_on_c, 0, 69, 71
2, 14681, Note_on_c, 0, 69, 0
2, 14784, Note_on_c, 0, 76, 64
2, 14784, Note_on_c, 0, 68, 64
2, 14823, Note_on_c, 0, 76, 0
2, 14823, Note_on_c, 0, 68, 0
2, 14880, Note_on_c, 0, 76, 64
2, 14880, Note_on_c, 0, 68, 64
2, 14919, Note_on_c, 0, 76, 0
2, 14919, Note_on_c, 0, 68, 0
2, 14976, Note_on_c, 0, 73, 64
2, 14976, Note_on_c, 0, 69, 64
2, 15065, Note_on_c, 0, 73, 0
2, 15065, Note_on_c, 0, 69, 0
2, 15168, Note_on_c, 0, 76, 58
2, 15168, Note_on_c, 0, 68, 58
2, 15207, Note_on_c, 0, 76, 0
2, 15207, Note_on_c, 0, 68, 0
2, 15264, Note_on_c, 0, 76, 58
2, 15264, Note_on_c, 0, 68, 58
2, 15303, Note_on_c, 0, 76, 0
2, 15303, Note_on_c, 0, 68, 0
2, 15360, Note_on_c, 0, 69, 58
2, 15449, Note_on_c, 0, 69, 0
2, 15552, Note_on_c, 0, 45, 96
2, 15648, Note_on_c, 0, 45, 0
2, 15648, Note_on_c, 0, 45, 96
2, 15744, Note_on_c, 0, 45, 0
2, 15744, Note_on_c, 0, 45, 96
2, 15776, Note_on_c, 0, 45, 0
2, 15776, Note_on_c, 0, 52, 70
2, 15806, Note_on_c, 0, 52, 0
2, 15808, Note_on_c, 0, 50, 70
2, 15838, Note_on_c, 0, 50, 0
2, 15840, Note_on_c, 0, 49, 70
2, 15853, Note_on_c, 0, 49, 0
2, 15872, Note_on_c, 0, 55, 70
2, 15902, Note_on_c, 0, 55, 0
2, 15904, Note_on_c, 0, 54, 70
2, 15934, Note_on_c, 0, 54, 0
2, 15936, Note_on_c, 0, 52, 70
2, 15949, Note_on_c, 0, 52, 0
2, 15968, Note_on_c, 0, 59, 70
2, 15998, Note_on_c, 0, 59, 0
2, 16000, Note_on_c, 0, 57, 71
2, 16030, Note_on_c, 0, 57, 0
2, 16032, Note_on_c, 0, 55, 71
2, 16045, Note_on_c, 0, 55, 0
2, 16064, Note_on_c, 0, 64, 71
2, 16094, Note_on_c, 0, 64, 0
2, 16096, Note_on_c, 0, 62, 71
2, 16126, Note_on_c, 0, 62, 0
2, 16128, Note_on_c, 0, 61, 72
2, 16141, Note_on_c, 0, 61, 0
2, 16160, Note_on_c, 0, 67, 72
2, 16190, Note_on_c, 0, 67, 0
2, 16192, Note_on_c, 0, 66, 72
2, 16222, Note_on_c, 0, 66, 0
2, 16224, Note_on_c, 0, 64, 72
2, 16254, Note_on_c, 0, 64, 0
2, 16256, Note_on_c, 0, 62, 72
2, 16286, Note_on_c, 0, 62, 0
2, 16288, Note_on_c, 0, 61, 73
2, 16318, Note_on_c, 0, 61, 0
2, 16320, Note_on_c, 0, 60, 73
2, 16350, Note_on_c, 0, 60, 0
2, 16352, Note_on_c, 0, 59, 73
2, 16382, Note_on_c, 0, 59, 0
2, 16384, Note_on_c, 0, 58, 73
2, 16414, Note_on_c, 0, 58, 0
2, 16416, Note_on_c, 0, 57, 74
2, 16446, Note_on_c, 0, 57, 0
2, 16448, Note_on_c, 0, 56, 74
2, 16478, Note_on_c, 0, 56, 0
2, 16480, Note_on_c, 0, 55, 74
2, 16510, Note_on_c, 0, 55, 0
2, 16512, Note_on_c, 0, 54, 80
2, 16524, Note_on_c, 0, 54, 0
2, 16524, Note_on_c, 0, 57, 80
2, 16536, Note_on_c, 0, 57, 0
2, 16536, Note_on_c, 0, 62, 80
2, 16689, Note_on_c, 0, 62, 0
2, 16704, Note_on_c, 0, 57, 80
2, 16716, Note_on_c, 0, 57, 0
2, 16716, Note_on_c, 0, 61, 80
2, 16728, Note_on_c, 0, 61, 0
2, 16728, Note_on_c, 0, 64, 80
2, 16881, Note_on_c, 0, 64, 0
2, 16896, Note_on_c, 0, 57, 80
2, 16908, Note_on_c, 0, 57, 0
2, 16908, Note_on_c, 0, 62, 80
2, 16920, Note_on_c, 0, 62, 0
2, 16920, Note_on_c, 0, 66, 80
2, 17073, Note_on_c, 0, 66, 0
2, 17184, Note_on_c, 0, 74, 64
2, 17251, Note_on_c, 0, 74, 0
2, 17256, Note_on_c, 0, 69, 64
2, 17279, Note_on_c, 0, 69, 0
2, 17280, Note_on_c, 0, 66, 64
2, 17457, Note_on_c, 0, 66, 0
2, 17472, Note_on_c, 0, 69, 64
2, 17484, Note_on_c, 0, 69, 0
2, 17484, Note_on_c, 0, 67, 64
2, 17539, Note_on_c, 0, 67, 0
2, 17544, Note_on_c, 0, 66, 64
2, 17567, Note_on_c, 0, 66, 0
2, 17568, Note_on_c, 0, 67, 64
2, 17635, Note_on_c, 0, 67, 0
2, 17640, Note_on_c, 0, 71, 64
2, 17663, Note_on_c, 0, 71, 0
2, 17664, Note_on_c, 0, 64, 64
2, 17731, Note_on_c, 0, 64, 0
2, 17736, Note_on_c, 0, 67, 64
2, 17759, Note_on_c, 0, 67, 0
2, 17760, Note_on_c, 0, 66, 64
2, 17827, Note_on_c, 0, 66, 0
2, 17832, Note_on_c, 0, 69, 64
2, 17855, Note_on_c, 0, 69, 0
2, 17856, Note_on_c, 0, 67, 64
2, 17945, Note_on_c, 0, 67, 0
2, 18048, Note_on_c, 0, 54, 80
2, 18060, Note_on_c, 0, 54, 0
2, 18060, Note_on_c, 0, 57, 80
2, 18072, Note_on_c, 0, 57, 0
2, 18072, Note_on_c, 0, 62, 80
2, 18137, Note_on_c, 0, 62, 0
2, 18192, Note_on_c, 0, 54, 80
2, 18204, Note_on_c, 0, 54, 0
2, 18204, Note_on_c, 0, 57, 80
2, 18216, Note_on_c, 0, 57, 0
2, 18216, Note_on_c, 0, 62, 80
2, 18237, Note_on_c, 0, 62, 0
2, 18240, Note_on_c, 0, 57, 80
2, 18246, Note_on_c, 0, 57, 0
2, 18246, Note_on_c, 0, 61, 80
2, 18252, Note_on_c, 0, 61, 0
2, 18252, Note_on_c, 0, 64, 80
2, 18329, Note_on_c, 0, 64, 0
2, 18384, Note_on_c, 0, 57, 80
2, 18396, Note_on_c, 0, 57, 0
2, 18396, Note_on_c, 0, 61, 80
2, 18408, Note_on_c, 0, 61, 0
2, 18408, Note_on_c, 0, 64, 80
2, 18429, Note_on_c, 0, 64, 0
2, 18432, Note_on_c, 0, 57, 80
2, 18444, Note_on_c, 0, 57, 0
2, 18444, Note_on_c, 0, 62, 80
2, 18456, Note_on_c, 0, 62, 0
2, 18456, Note_on_c, 0, 66, 80
2, 18521, Note_on_c, 0, 66, 0
2, 18648, Note_on_c, 0, 81, 80
2, 18671, Note_on_c, 0, 81, 0
2, 18672, Note_on_c, 0, 79, 77
2, 18695, Note_on_c, 0, 79, 0
2, 18696, Note_on_c, 0, 78, 75
2, 18719, Note_on_c, 0, 78, 0
2, 18720, Note_on_c, 0, 76, 73
2, 18743, Note_on_c, 0, 76, 0
2, 18744, Note_on_c, 0, 74, 70
2, 18767, Note_on_c, 0, 74, 0
2, 18768, Note_on_c, 0, 73, 68
2, 18791, Note_on_c, 0, 73, 0
2, 18792, Note_on_c, 0, 71, 66
2, 18815, Note_on_c, 0, 71, 0
2, 18816, Note_on_c, 0, 69, 64
2, 18949, Note_on_c, 0, 69, 0
2, 18960, Note_on_c, 0, 70, 64
2, 19005, Note_on_c, 0, 70, 0
2, 19008, Note_on_c, 0, 71, 64
2, 19031, Note_on_c, 0, 71, 0
2, 19032, Note_on_c, 0, 73, 64
2, 19055, Note_on_c, 0, 73, 0
2, 19056, Note_on_c, 0, 74, 64
2, 19079, Note_on_c, 0, 74, 0
2, 19080, Note_on_c, 0, 73, 64
2, 19103, Note_on_c, 0, 73, 0
2, 19104, Note_on_c, 0, 76, 64
2, 19127, Note_on_c, 0, 76, 0
2, 19128, Note_on_c, 0, 74, 64
2, 19151, Note_on_c, 0, 74, 0
2, 19152, Note_on_c, 0, 73, 64
2, 19175, Note_on_c, 0, 73, 0
2, 19176, Note_on_c, 0, 71, 64
2, 19199, Note_on_c, 0, 71, 0
2, 19200, Note_on_c, 0, 69, 64
2, 19245, Note_on_c, 0, 69, 0
2, 19248, Note_on_c, 0, 71, 65
2, 19271, Note_on_c, 0, 71, 0
2, 19272, Note_on_c, 0, 73, 66
2, 19295, Note_on_c, 0, 73, 0
2, 19296, Note_on_c, 0, 74, 67
2, 19319, Note_on_c, 0, 74, 0
2, 19320, Note_on_c, 0, 76, 68
2, 19343, Note_on_c, 0, 76, 0
2, 19344, Note_on_c, 0, 78, 69
2, 19367, Note_on_c, 0, 78, 0
2, 19368, Note_on_c, 0, 79, 70
2, 19391, Note_on_c, 0, 79, 0
2, 19392, Note_on_c, 0, 81, 71
2, 19481, Note_on_c, 0, 81, 0
2, 19584, Note_on_c, 0, 71, 64
2, 19629, Note_on_c, 0, 71, 0
2, 19632, Note_on_c, 0, 73, 68
2, 19655, Note_on_c, 0, 73, 0
2, 19656, Note_on_c, 0, 74, 70
2, 19679, Note_on_c, 0, 74, 0
2, 19680, Note_on_c, 0, 76, 72
2, 19703, Note_on_c, 0, 76, 0
2, 19704, Note_on_c, 0, 78, 74
2, 19727, Note_on_c, 0, 78, 0
2, 19728, Note_on_c, 0, 79, 76
2, 19751, Note_on_c, 0, 79, 0
2, 19752, Note_on_c, 0, 81, 78
2, 19775, Note_on_c, 0, 81, 0
2, 19776, Note_on_c, 0, 83, 80
2, 19821, Note_on_c, 0, 83, 0
2, 19824, Note_on_c, 0, 85, 80
2, 19836, Note_on_c, 0, 85, 0
2, 19836, Note_on_c, 0, 83, 80
2, 19848, Note_on_c, 0, 83, 0
2, 19848, Note_on_c, 0, 82, 80
2, 19860, Note_on_c, 0, 82, 0
2, 19860, Note_on_c, 0, 83, 80
2, 19872, Note_on_c, 0, 83, 0
2, 19872, Note_on_c, 0, 85, 80
2, 19917, Note_on_c, 0, 85, 0
2, 19920, Note_on_c, 0, 86, 80
2, 19965, Note_on_c, 0, 86, 0
2, 19968, Note_on_c, 0, 86, 80
2, 19986, Note_on_c, 0, 86, 0
2, 19986, Note_on_c, 0, 74, 96
2, 20160, Note_on_c, 0, 74, 0
2, 20160, Note_on_c, 0, 76, 80
2, 20172, Note_on_c, 0, 76, 0
2, 20172, Note_on_c, 0, 78, 80
2, 20184, Note_on_c, 0, 78, 0
2, 20184, Note_on_c, 0, 76, 80
2, 20227, Note_on_c, 0, 76, 0
2, 20232, Note_on_c, 0, 74, 76
2, 20255, Note_on_c, 0, 74, 0
2, 20256, Note_on_c, 0, 76, 74
2, 20323, Note_on_c, 0, 76, 0
2, 20328, Note_on_c, 0, 78, 70
2, 20351, Note_on_c, 0, 78, 0
2, 20352, Note_on_c, 0, 74, 69
2, 20441, Note_on_c, 0, 74, 0
2, 20544, Note_on_c, 0, 76, 64
2, 20583, Note_on_c, 0, 76, 0
2, 20640, Note_on_c, 0, 76, 64
2, 20679, Note_on_c, 0, 76, 0
2, 20736, Note_on_c, 0, 77, 64
2, 20825, Note_on_c, 0, 77, 0
2, 20928, Note_on_c, 0, 73, 64
2, 20967, Note_on_c, 0, 73, 0
2, 21024, Note_on_c, 0, 73, 64
2, 21063, Note_on_c, 0, 73, 0
2, 21120, Note_on_c, 0, 74, 64
2, 21159, Note_on_c, 0, 74, 0
2, 21216, Note_on_c, 0, 74, 64
2, 21255, Note_on_c, 0, 74, 0
2, 21312, Note_on_c, 0, 76, 64
2, 21351, Note_on_c, 0, 76, 0
2, 21408, Note_on_c, 0, 76, 64
2, 21447, Note_on_c, 0, 76, 0
2, 21504, Note_on_c, 0, 77, 64
2, 21543, Note_on_c, 0, 77, 0
2, 21600, Note_on_c, 0, 77, 64
2, 21639, Note_on_c, 0, 77, 0
2, 21696, Note_on_c, 0, 82, 65
2, 21696, Note_on_c, 0, 70, 65
2, 21735, Note_on_c, 0, 82, 0
2, 21735, Note_on_c, 0, 70, 0
2, 21792, Note_on_c, 0, 82, 66
2, 21792, Note_on_c, 0, 70, 66
2, 21831, Note_on_c, 0, 82, 0
2, 21831, Note_on_c, 0, 70, 0
2, 21888, Note_on_c, 0, 76, 68
2, 21888, Note_on_c, 0, 64, 68
2, 21927, Note_on_c, 0, 76, 0
2, 21927, Note_on_c, 0, 64, 0
2, 21984, Note_on_c, 0, 76, 69
2, 21984, Note_on_c, 0, 64, 69
2, 22023, Note_on_c, 0, 76, 0
2, 22023, Note_on_c, 0, 64, 0
2, 22080, Note_on_c, 0, 81, 71
2, 22080, Note_on_c, 0, 69, 71
2, 22119, Note_on_c, 0, 81, 0
2, 22119, Note_on_c, 0, 69, 0
2, 22176, Note_on_c, 0, 81, 72
2, 22176, Note_on_c, 0, 69, 72
2, 22215, Note_on_c, 0, 81, 0
2, 22215, Note_on_c, 0, 69, 0
2, 22272, Note_on_c, 0, 86, 73
2, 22272, Note_on_c, 0, 77, 73
2, 22311, Note_on_c, 0, 86, 0
2, 22311, Note_on_c, 0, 77, 0
2, 22368, Note_on_c, 0, 86, 75
2, 22368, Note_on_c, 0, 77, 75
2, 22407, Note_on_c, 0, 86, 0
2, 22407, Note_on_c, 0, 77, 0
2, 22464, Note_on_c, 0, 86, 76
2, 22464, Note_on_c, 0, 74, 76
2, 22503, Note_on_c, 0, 86, 0
2, 22503, Note_on_c, 0, 74, 0
2, 22560, Note_on_c, 0, 86, 78
2, 22560, Note_on_c, 0, 74, 78
2, 22599, Note_on_c, 0, 86, 0
2, 22599, Note_on_c, 0, 74, 0
2, 22656, Note_on_c, 0, 76, 79
2, 22686, Note_on_c, 0, 76, 0
2, 22688, Note_on_c, 0, 79, 80
2, 22718, Note_on_c, 0, 79, 0
2, 22720, Note_on_c, 0, 77, 80
2, 22750, Note_on_c, 0, 77, 0
2, 22752, Note_on_c, 0, 76, 80
2, 22782, Note_on_c, 0, 76, 0
2, 22784, Note_on_c, 0, 82, 80
2, 22814, Note_on_c, 0, 82, 0
2, 22816, Note_on_c, 0, 81, 80
2, 22846, Note_on_c, 0, 81, 0
2, 22848, Note_on_c, 0, 79, 80
2, 22878, Note_on_c, 0, 79, 0
2, 22880, Note_on_c, 0, 86, 80
2, 22910, Note_on_c, 0, 86, 0
2, 22912, Note_on_c, 0, 84, 80
2, 22942, Note_on_c, 0, 84, 0
2, 22944, Note_on_c, 0, 82, 80
2, 22974, Note_on_c, 0, 82, 0
2, 22976, Note_on_c, 0, 81, 80
2, 23006, Note_on_c, 0, 81, 0
2, 23008, Note_on_c, 0, 79, 80
2, 23038, Note_on_c, 0, 79, 0
2, 23040, Note_on_c, 0, 77, 80
2, 23070, Note_on_c, 0, 77, 0
2, 23072, Note_on_c, 0, 81, 80
2, 23102, Note_on_c, 0, 81, 0
2, 23104, Note_on_c, 0, 79, 80
2, 23134, Note_on_c, 0, 79, 0
2, 23136, Note_on_c, 0, 77, 80
2, 23166, Note_on_c, 0, 77, 0
2, 23168, Note_on_c, 0, 76, 80
2, 23198, Note_on_c, 0, 76, 0
2, 23200, Note_on_c, 0, 74, 80
2, 23230, Note_on_c, 0, 74, 0
2, 23232, Note_on_c, 0, 72, 80
2, 23262, Note_on_c, 0, 72, 0
2, 23264, Note_on_c, 0, 74, 80
2, 23294, Note_on_c, 0, 74, 0
2, 23296, Note_on_c, 0, 72, 80
2, 23326, Note_on_c, 0, 72, 0
2, 23328, Note_on_c, 0, 70, 80
2, 23358, Note_on_c, 0, 70, 0
2, 23360, Note_on_c, 0, 69, 80
2, 23390, Note_on_c, 0, 69, 0
2, 23392, Note_on_c, 0, 67, 80
2, 23422, Note_on_c, 0, 67, 0
2, 23424, Note_on_c, 0, 65, 80
2, 23454, Note_on_c, 0, 65, 0
2, 23456, Note_on_c, 0, 81, 75
2, 23486, Note_on_c, 0, 81, 0
2, 23488, Note_on_c, 0, 79, 75
2, 23518, Note_on_c, 0, 79, 0
2, 23520, Note_on_c, 0, 77, 75
2, 23550, Note_on_c, 0, 77, 0
2, 23552, Note_on_c, 0, 76, 75
2, 23582, Note_on_c, 0, 76, 0
2, 23584, Note_on_c, 0, 74, 75
2, 23614, Note_on_c, 0, 74, 0
2, 23616, Note_on_c, 0, 72, 75
2, 23646, Note_on_c, 0, 72, 0
2, 23648, Note_on_c, 0, 74, 75
2, 23678, Note_on_c, 0, 74, 0
2, 23680, Note_on_c, 0, 72, 75
2, 23710, Note_on_c, 0, 72, 0
2, 23712, Note_on_c, 0, 70, 75
2, 23742, Note_on_c, 0, 70, 0
2, 23744, Note_on_c, 0, 69, 75
2, 23774, Note_on_c, 0, 69, 0
2, 23776, Note_on_c, 0, 67, 75
2, 23806, Note_on_c, 0, 67, 0
2, 23808, Note_on_c, 0, 65, 75
2, 23838, Note_on_c, 0, 65, 0
2, 23840, Note_on_c, 0, 81, 70
2, 23870, Note_on_c, 0, 81, 0
2, 23872, Note_on_c, 0, 79, 70
2, 23902, Note_on_c, 0, 79, 0
2, 23904, Note_on_c, 0, 77, 70
2, 23934, Note_on_c, 0, 77, 0
2, 23936, Note_on_c, 0, 76, 70
2, 23966, Note_on_c, 0, 76, 0
2, 23968, Note_on_c, 0, 74, 70
2, 23998, Note_on_c, 0, 74, 0
2, 24000, Note_on_c, 0, 72, 70
2, 24030, Note_on_c, 0, 72, 0
2, 24032, Note_on_c, 0, 74, 70
2, 24062, Note_on_c, 0, 74, 0
2, 24064, Note_on_c, 0, 72, 70
2, 24094, Note_on_c, 0, 72, 0
2, 24096, Note_on_c, 0, 70, 70
2, 24126, Note_on_c, 0, 70, 0
2, 24128, Note_on_c, 0, 69, 70
2, 24158, Note_on_c, 0, 69, 0
2, 24160, Note_on_c, 0, 67, 70
2, 24190, Note_on_c, 0, 67, 0
2, 24192, Note_on_c, 0, 65, 70
2, 24222, Note_on_c, 0, 65, 0
2, 24224, Note_on_c, 0, 69, 70
2, 24254, Note_on_c, 0, 69, 0
2, 24256, Note_on_c, 0, 77, 70
2, 24286, Note_on_c, 0, 77, 0
2, 24288, Note_on_c, 0, 65, 70
2, 24318, Note_on_c, 0, 65, 0
2, 24320, Note_on_c, 0, 69, 70
2, 24350, Note_on_c, 0, 69, 0
2, 24352, Note_on_c, 0, 76, 70
2, 24382, Note_on_c, 0, 76, 0
2, 24384, Note_on_c, 0, 65, 71
2, 24414, Note_on_c, 0, 65, 0
2, 24416, Note_on_c, 0, 69, 71
2, 24446, Note_on_c, 0, 69, 0
2, 24448, Note_on_c, 0, 74, 72
2, 24478, Note_on_c, 0, 74, 0
2, 24480, Note_on_c, 0, 65, 72
2, 24510, Note_on_c, 0, 65, 0
2, 24512, Note_on_c, 0, 69, 73
2, 24542, Note_on_c, 0, 69, 0
2, 24544, Note_on_c, 0, 73, 73
2, 24574, Note_on_c, 0, 73, 0
2, 24576, Note_on_c, 0, 65, 74
2, 24606, Note_on_c, 0, 65, 0
2, 24608, Note_on_c, 0, 70, 74
2, 24638, Note_on_c, 0, 70, 0
2, 24640, Note_on_c, 0, 74, 75
2, 24670, Note_on_c, 0, 74, 0
2, 24672, Note_on_c, 0, 65, 75
2, 24702, Note_on_c, 0, 65, 0
2, 24704, Note_on_c, 0, 69, 76
2, 24734, Note_on_c, 0, 69, 0
2, 24736, Note_on_c, 0, 74, 76
2, 24766, Note_on_c, 0, 74, 0
2, 24768, Note_on_c, 0, 65, 77
2, 24798, Note_on_c, 0, 65, 0
2, 24800, Note_on_c, 0, 68, 77
2, 24830, Note_on_c, 0, 68, 0
2, 24832, Note_on_c, 0, 74, 78
2, 24862, Note_on_c, 0, 74, 0
2, 24864, Note_on_c, 0, 65, 78
2, 24894, Note_on_c, 0, 65, 0
2, 24896, Note_on_c, 0, 67, 80
2, 24926, Note_on_c, 0, 67, 0
2, 24928, Note_on_c, 0, 74, 80
2, 24958, Note_on_c, 0, 74, 0
2, 24960, Note_on_c, 0, 65, 80
2, 24990, Note_on_c, 0, 65, 0
2, 24992, Note_on_c, 0, 69, 80
2, 25022, Note_on_c, 0, 69, 0
2, 25024, Note_on_c, 0, 72, 80
2, 25054, Note_on_c, 0, 72, 0
2, 25056, Note_on_c, 0, 65, 80
2, 25086, Note_on_c, 0, 65, 0
2, 25088, Note_on_c, 0, 68, 80
2, 25118, Note_on_c, 0, 68, 0
2, 25120, Note_on_c, 0, 71, 80
2, 25150, Note_on_c, 0, 71, 0
2, 25152, Note_on_c, 0, 65, 80
2, 25182, Note_on_c, 0, 65, 0
2, 25184, Note_on_c, 0, 69, 79
2, 25214, Note_on_c, 0, 69, 0
2, 25216, Note_on_c, 0, 72, 78
2, 25246, Note_on_c, 0, 72, 0
2, 25248, Note_on_c, 0, 70, 77
2, 25278, Note_on_c, 0, 70, 0
2, 25280, Note_on_c, 0, 67, 76
2, 25310, Note_on_c, 0, 67, 0
2, 25312, Note_on_c, 0, 64, 76
2, 25342, Note_on_c, 0, 64, 0
2, 25344, Note_on_c, 0, 77, 75
2, 25344, Note_on_c, 0, 65, 75
2, 25521, Note_on_c, 0, 77, 0
2, 25521, Note_on_c, 0, 65, 0
2, 25536, Note_on_c, 0, 81, 70
2, 25536, Note_on_c, 0, 69, 70
2, 25713, Note_on_c, 0, 81, 0
2, 25713, Note_on_c, 0, 69, 0
2, 25728, Note_on_c, 0, 84, 86
2, 25728, Note_on_c, 0, 72, 86
2, 25950, Note_on_c, 0, 84, 0
2, 25950, Note_on_c, 0, 72, 0
2, 25952, Note_on_c, 0, 86, 70
2, 25952, Note_on_c, 0, 74, 70
2, 25982, Note_on_c, 0, 86, 0
2, 25982, Note_on_c, 0, 74, 0
2, 25984, Note_on_c, 0, 84, 70
2, 25984, Note_on_c, 0, 72, 70
2, 26014, Note_on_c, 0, 84, 0
2, 26014, Note_on_c, 0, 72, 0
2, 26016, Note_on_c, 0, 82, 70
2, 26016, Note_on_c, 0, 70, 70
2, 26046, Note_on_c, 0, 82, 0
2, 26046, Note_on_c, 0, 70, 0
2, 26048, Note_on_c, 0, 81, 70
2, 26048, Note_on_c, 0, 69, 70
2, 26078, Note_on_c, 0, 81, 0
2, 26078, Note_on_c, 0, 69, 0
2, 26080, Note_on_c, 0, 79, 70
2, 26080, Note_on_c, 0, 67, 70
2, 26110, Note_on_c, 0, 79, 0
2, 26110, Note_on_c, 0, 67, 0
2, 26112, Note_on_c, 0, 77, 70
2, 26112, Note_on_c, 0, 65, 70
2, 26289, Note_on_c, 0, 77, 0
2, 26289, Note_on_c, 0, 65, 0
2, 26304, Note_on_c, 0, 81, 72
2, 26304, Note_on_c, 0, 69, 72
2, 26393, Note_on_c, 0, 81, 0
2, 26393, Note_on_c, 0, 69, 0
2, 26400, Note_on_c, 0, 84, 73
2, 26400, Note_on_c, 0, 72, 73
2, 26489, Note_on_c, 0, 84, 0
2, 26489, Note_on_c, 0, 72, 0
2, 26496, Note_on_c, 0, 87, 96
2, 26496, Note_on_c, 0, 75, 96
2, 26622, Note_on_c, 0, 87, 0
2, 26622, Note_on_c, 0, 75, 0
2, 26624, Note_on_c, 0, 84, 74
2, 26654, Note_on_c, 0, 84, 0
2, 26656, Note_on_c, 0, 82, 73
2, 26686, Note_on_c, 0, 82, 0
2, 26688, Note_on_c, 0, 81, 73
2, 26718, Note_on_c, 0, 81, 0
2, 26720, Note_on_c, 0, 79, 72
2, 26750, Note_on_c, 0, 79, 0
2, 26752, Note_on_c, 0, 78, 72
2, 26782, Note_on_c, 0, 78, 0
2, 26784, Note_on_c, 0, 75, 71
2, 26814, Note_on_c, 0, 75, 0
2, 26816, Note_on_c, 0, 74, 71
2, 26846, Note_on_c, 0, 74, 0
2, 26848, Note_on_c, 0, 72, 70
2, 26878, Note_on_c, 0, 72, 0
2, 26880, Note_on_c, 0, 70, 70
2, 26898, Note_on_c, 0, 70, 0
2, 26898, Note_on_c, 0, 79, 86
2, 27072, Note_on_c, 0, 79, 0
2, 27072, Note_on_c, 0, 82, 91
2, 27168, Note_on_c, 0, 82, 0
2, 27168, Note_on_c, 0, 86, 93
2, 27264, Note_on_c, 0, 86, 0
2, 27264, Note_on_c, 0, 89, 101
2, 27264, Note_on_c, 0, 77, 101
2, 27390, Note_on_c, 0, 89, 0
2, 27390, Note_on_c, 0, 77, 0
2, 27392, Note_on_c, 0, 85, 80
2, 27422, Note_on_c, 0, 85, 0
2, 27424, Note_on_c, 0, 86, 80
2, 27454, Note_on_c, 0, 86, 0
2, 27456, Note_on_c, 0, 89, 80
2, 27486, Note_on_c, 0, 89, 0
2, 27488, Note_on_c, 0, 85, 80
2, 27518, Note_on_c, 0, 85, 0
2, 27520, Note_on_c, 0, 86, 80
2, 27550, Note_on_c, 0, 86, 0
2, 27552, Note_on_c, 0, 89, 80
2, 27582, Note_on_c, 0, 89, 0
2, 27584, Note_on_c, 0, 88, 80
2, 27614, Note_on_c, 0, 88, 0
2, 27616, Note_on_c, 0, 86, 80
2, 27646, Note_on_c, 0, 86, 0
2, 27648, Note_on_c, 0, 85, 80
2, 27737, Note_on_c, 0, 85, 0
2, 27744, Note_on_c, 0, 81, 80
2, 27744, Note_on_c, 0, 69, 80
2, 27833, Note_on_c, 0, 81, 0
2, 27833, Note_on_c, 0, 69, 0
2, 27840, Note_on_c, 0, 82, 76
2, 27840, Note_on_c, 0, 70, 76
2, 27929, Note_on_c, 0, 82, 0
2, 27929, Note_on_c, 0, 70, 0
2, 27936, Note_on_c, 0, 80, 73
2, 27936, Note_on_c, 0, 68, 73
2, 28025, Note_on_c, 0, 80, 0
2, 28025, Note_on_c, 0, 68, 0
2, 28032, Note_on_c, 0, 81, 70
2, 28032, Note_on_c, 0, 69, 70
2, 28121, Note_on_c, 0, 81, 0
2, 28121, Note_on_c, 0, 69, 0
2, 28128, Note_on_c, 0, 76, 67
2, 28217, Note_on_c, 0, 76, 0
2, 28224, Note_on_c, 0, 77, 64
2, 28313, Note_on_c, 0, 77, 0
2, 28320, Note_on_c, 0, 68, 64
2, 28409, Note_on_c, 0, 68, 0
2, 28416, Note_on_c, 0, 69, 64
2, 28505, Note_on_c, 0, 69, 0
2, 28512, Note_on_c, 0, 73, 64
2, 28542, Note_on_c, 0, 73, 0
2, 28544, Note_on_c, 0, 76, 64
2, 28574, Note_on_c, 0, 76, 0
2, 28576, Note_on_c, 0, 81, 65
2, 28606, Note_on_c, 0, 81, 0
2, 28608, Note_on_c, 0, 74, 65
2, 28638, Note_on_c, 0, 74, 0
2, 28640, Note_on_c, 0, 77, 66
2, 28670, Note_on_c, 0, 77, 0
2, 28672, Note_on_c, 0, 83, 66
2, 28702, Note_on_c, 0, 83, 0
2, 28704, Note_on_c, 0, 71, 67
2, 28734, Note_on_c, 0, 71, 0
2, 28736, Note_on_c, 0, 74, 68
2, 28766, Note_on_c, 0, 74, 0
2, 28768, Note_on_c, 0, 80, 68
2, 28798, Note_on_c, 0, 80, 0
2, 28800, Note_on_c, 0, 69, 69
2, 28830, Note_on_c, 0, 69, 0
2, 28832, Note_on_c, 0, 76, 69
2, 28862, Note_on_c, 0, 76, 0
2, 28864, Note_on_c, 0, 81, 70
2, 28894, Note_on_c, 0, 81, 0
2, 28896, Note_on_c, 0, 69, 70
2, 28926, Note_on_c, 0, 69, 0
2, 28928, Note_on_c, 0, 75, 71
2, 28958, Note_on_c, 0, 75, 0
2, 28960, Note_on_c, 0, 78, 72
2, 28990, Note_on_c, 0, 78, 0
2, 28992, Note_on_c, 0, 69, 72
2, 29022, Note_on_c, 0, 69, 0
2, 29024, Note_on_c, 0, 76, 73
2, 29054, Note_on_c, 0, 76, 0
2, 29056, Note_on_c, 0, 79, 73
2, 29086, Note_on_c, 0, 79, 0
2, 29088, Note_on_c, 0, 69, 74
2, 29118, Note_on_c, 0, 69, 0
2, 29120, Note_on_c, 0, 78, 74
2, 29150, Note_on_c, 0, 78, 0
2, 29152, Note_on_c, 0, 81, 75
2, 29182, Note_on_c, 0, 81, 0
2, 29184, Note_on_c, 0, 69, 76
2, 29214, Note_on_c, 0, 69, 0
2, 29216, Note_on_c, 0, 76, 76
2, 29246, Note_on_c, 0, 76, 0
2, 29248, Note_on_c, 0, 79, 77
2, 29278, Note_on_c, 0, 79, 0
2, 29280, Note_on_c, 0, 69, 77
2, 29310, Note_on_c, 0, 69, 0
2, 29312, Note_on_c, 0, 78, 78
2, 29342, Note_on_c, 0, 78, 0
2, 29344, Note_on_c, 0, 81, 78
2, 29374, Note_on_c, 0, 81, 0
2, 29376, Note_on_c, 0, 69, 79
2, 29406, Note_on_c, 0, 69, 0
2, 29408, Note_on_c, 0, 76, 80
2, 29438, Note_on_c, 0, 76, 0
2, 29440, Note_on_c, 0, 79, 80
2, 29470, Note_on_c, 0, 79, 0
2, 29472, Note_on_c, 0, 69, 81
2, 29502, Note_on_c, 0, 69, 0
2, 29504, Note_on_c, 0, 78, 81
2, 29534, Note_on_c, 0, 78, 0
2, 29536, Note_on_c, 0, 81, 82
2, 29566, Note_on_c, 0, 81, 0
2, 29568, Control_c, 0, 64, 127
2, 29568, Note_on_c, 0, 69, 82
2, 29568, Note_on_c, 0, 73, 82
2, 29568, Note_on_c, 0, 76, 82
2, 29615, Note_on_c, 0, 76, 0
2, 29615, Note_on_c, 0, 73, 0
2, 29615, Note_on_c, 0, 69, 0
2, 30336, Control_c, 0, 64, 0
2, 30336, Note_on_c, 0, 54, 80
2, 30348, Note_on_c, 0, 54, 0
2, 30348, Note_on_c, 0, 57, 80
2, 30360, Note_on_c, 0, 57, 0
2, 30360, Note_on_c, 0, 62, 96
2, 30528, Note_on_c, 0, 62, 0
2, 30528, Note_on_c, 0, 57, 80
2, 30540, Note_on_c, 0, 57, 0
2, 30540, Note_on_c, 0, 61, 80
2, 30552, Note_on_c, 0, 61, 0
2, 30552, Note_on_c, 0, 64, 80
2, 30705, Note_on_c, 0, 64, 0
2, 30720, Note_on_c, 0, 57, 80
2, 30732, Note_on_c, 0, 57, 0
2, 30732, Note_on_c, 0, 62, 80
2, 30744, Note_on_c, 0, 62, 0
2, 30744, Note_on_c, 0, 66, 80
2, 30897, Note_on_c, 0, 66, 0
2, 31008, Note_on_c, 0, 74, 64
2, 31075, Note_on_c, 0, 74, 0
2, 31080, Note_on_c, 0, 69, 64
2, 31103, Note_on_c, 0, 69, 0
2, 31104, Note_on_c, 0, 66, 64
2, 31281, Note_on_c, 0, 66, 0
2, 31296, Note_on_c, 0, 69, 64
2, 31314, Note_on_c, 0, 69, 0
2, 31314, Note_on_c, 0, 67, 64
2, 31363, Note_on_c, 0, 67, 0
2, 31368, Note_on_c, 0, 66, 64
2, 31391, Note_on_c, 0, 66, 0
2, 31392, Note_on_c, 0, 67, 64
2, 31459, Note_on_c, 0, 67, 0
2, 31464, Note_on_c, 0, 71, 65
2, 31487, Note_on_c, 0, 71, 0
2, 31488, Note_on_c, 0, 64, 65
2, 31555, Note_on_c, 0, 64, 0
2, 31560, Note_on_c, 0, 67, 66
2, 31583, Note_on_c, 0, 67, 0
2, 31584, Note_on_c, 0, 66, 67
2, 31651, Note_on_c, 0, 66, 0
2, 31656, Note_on_c, 0, 69, 68
2, 31679, Note_on_c, 0, 69, 0
2, 31680, Note_on_c, 0, 67, 68
2, 31769, Note_on_c, 0, 67, 0
2, 31872, Note_on_c, 0, 54, 80
2, 31884, Note_on_c, 0, 54, 0
2, 31884, Note_on_c, 0, 57, 80
2, 31896, Note_on_c, 0, 57, 0
2, 31896, Note_on_c, 0, 62, 80
2, 31961, Note_on_c, 0, 62, 0
2, 32016, Note_on_c, 0, 54, 80
2, 32028, Note_on_c, 0, 54, 0
2, 32028, Note_on_c, 0, 57, 80
2, 32040, Note_on_c, 0, 57, 0
2, 32040, Note_on_c, 0, 62, 80
2, 32061, Note_on_c, 0, 62, 0
2, 32064, Note_on_c, 0, 57, 80
2, 32070, Note_on_c, 0, 57, 0
2, 32070, Note_on_c, 0, 61, 80
2, 32076, Note_on_c, 0, 61, 0
2, 32076, Note_on_c, 0, 64, 80
2, 32153, Note_on_c, 0, 64, 0
2, 32208, Note_on_c, 0, 57, 80
2, 32220, Note_on_c, 0, 57, 0
2, 32220, Note_on_c, 0, 61, 80
2, 32232, Note_on_c, 0, 61, 0
2, 32232, Note_on_c, 0, 64, 80
2, 32253, Note_on_c, 0, 64, 0
2, 32256, Note_on_c, 0, 57, 80
2, 32268, Note_on_c, 0, 57, 0
2, 32268, Note_on_c, 0, 62, 80
2, 32280, Note_on_c, 0, 62, 0
2, 32280, Note_on_c, 0, 66, 80
2, 32345, Note_on_c, 0, 66, 0
2, 32472, Note_on_c, 0, 81, 80
2, 32495, Note_on_c, 0, 81, 0
2, 32496, Note_on_c, 0, 79, 77
2, 32519, Note_on_c, 0, 79, 0
2, 32520, Note_on_c, 0, 78, 75
2, 32543, Note_on_c, 0, 78, 0
2, 32544, Note_on_c, 0, 76, 73
2, 32567, Note_on_c, 0, 76, 0
2, 32568, Note_on_c, 0, 74, 70
2, 32591, Note_on_c, 0, 74, 0
2, 32592, Note_on_c, 0, 73, 68
2, 32615, Note_on_c, 0, 73, 0
2, 32616, Note_on_c, 0, 71, 66
2, 32639, Note_on_c, 0, 71, 0
2, 32640, Note_on_c, 0, 69, 64
2, 32773, Note_on_c, 0, 69, 0
2, 32784, Note_on_c, 0, 70, 64
2, 32829, Note_on_c, 0, 70, 0
2, 32832, Note_on_c, 0, 71, 64
2, 32855, Note_on_c, 0, 71, 0
2, 32856, Note_on_c, 0, 73, 64
2, 32879, Note_on_c, 0, 73, 0
2, 32880, Note_on_c, 0, 74, 64
2, 32903, Note_on_c, 0, 74, 0
2, 32904, Note_on_c, 0, 73, 64
2, 32927, Note_on_c, 0, 73, 0
2, 32928, Note_on_c, 0, 76, 64
2, 32951, Note_on_c, 0, 76, 0
2, 32952, Note_on_c, 0, 74, 64
2, 32975, Note_on_c, 0, 74, 0
2, 32976, Note_on_c, 0, 73, 64
2, 32999, Note_on_c, 0, 73, 0
2, 33000, Note_on_c, 0, 71, 64
2, 33023, Note_on_c, 0, 71, 0
2, 33024, Note_on_c, 0, 69, 64
2, 33047, Note_on_c, 0, 69, 0
2, 33048, Note_on_c, 0, 71, 64
2, 33071, Note_on_c, 0, 71, 0
2, 33072, Note_on_c, 0, 73, 65
2, 33095, Note_on_c, 0, 73, 0
2, 33096, Note_on_c, 0, 74, 66
2, 33119, Note_on_c, 0, 74, 0
2, 33120, Note_on_c, 0, 76, 67
2, 33143, Note_on_c, 0, 76, 0
2, 33144, Note_on_c, 0, 78, 68
2, 33167, Note_on_c, 0, 78, 0
2, 33168, Note_on_c, 0, 79, 69
2, 33191, Note_on_c, 0, 79, 0
2, 33192, Note_on_c, 0, 80, 70
2, 33215, Note_on_c, 0, 80, 0
2, 33216, Note_on_c, 0, 81, 71
2, 33305, Note_on_c, 0, 81, 0
2, 33408, Note_on_c, 0, 71, 64
2, 33453, Note_on_c, 0, 71, 0
2, 33456, Note_on_c, 0, 73, 68
2, 33479, Note_on_c, 0, 73, 0
2, 33480, Note_on_c, 0, 74, 70
2, 33503, Note_on_c, 0, 74, 0
2, 33504, Note_on_c, 0, 76, 72
2, 33527, Note_on_c, 0, 76, 0
2, 33528, Note_on_c, 0, 78, 74
2, 33551, Note_on_c, 0, 78, 0
2, 33552, Note_on_c, 0, 79, 76
2, 33575, Note_on_c, 0, 79, 0
2, 33576, Note_on_c, 0, 81, 78
2, 33599, Note_on_c, 0, 81, 0
2, 33600, Note_on_c, 0, 83, 80
2, 33645, Note_on_c, 0, 83, 0
2, 33648, Note_on_c, 0, 85, 80
2, 33660, Note_on_c, 0, 85, 0
2, 33660, Note_on_c, 0, 83, 80
2, 33672, Note_on_c, 0, 83, 0
2, 33672, Note_on_c, 0, 82, 80
2, 33684, Note_on_c, 0, 82, 0
2, 33684, Note_on_c, 0, 83, 80
2, 33696, Note_on_c, 0, 83, 0
2, 33696, Note_on_c, 0, 85, 80
2, 33741, Note_on_c, 0, 85, 0
2, 33744, Note_on_c, 0, 86, 80
2, 33789, Note_on_c, 0, 86, 0
2, 33792, Note_on_c, 0, 86, 80
2, 33810, Note_on_c, 0, 86, 0
2, 33810, Note_on_c, 0, 74, 96
2, 33984, Note_on_c, 0, 74, 0
2, 33984, Note_on_c, 0, 76, 80
2, 33996, Note_on_c, 0, 76, 0
2, 33996, Note_on_c, 0, 78, 80
2, 34008, Note_on_c, 0, 78, 0
2, 34008, Note_on_c, 0, 76, 80
2, 34051, Note_on_c, 0, 76, 0
2, 34056, Note_on_c, 0, 74, 76
2, 34079, Note_on_c, 0, 74, 0
2, 34080, Note_on_c, 0, 76, 74
2, 34147, Note_on_c, 0, 76, 0
2, 34152, Note_on_c, 0, 78, 70
2, 34175, Note_on_c, 0, 78, 0
2, 34176, Note_on_c, 0, 74, 69
2, 34265, Note_on_c, 0, 74, 0
2, 34368, Note_on_c, 0, 81, 64
2, 34368, Note_on_c, 0, 76, 64
2, 34407, Note_on_c, 0, 81, 0
2, 34407, Note_on_c, 0, 76, 0
2, 34464, Note_on_c, 0, 81, 64
2, 34464, Note_on_c, 0, 76, 64
2, 34503, Note_on_c, 0, 81, 0
2, 34503, Note_on_c, 0, 76, 0
2, 34560, Note_on_c, 0, 81, 64
2, 34560, Note_on_c, 0, 78, 64
2, 34649, Note_on_c, 0, 81, 0
2, 34649, Note_on_c, 0, 78, 0
2, 34752, Note_on_c, 0, 57, 64
2, 34752, Note_on_c, 0, 52, 64
2, 34791, Note_on_c, 0, 57, 0
2, 34791, Note_on_c, 0, 52, 0
2, 34848, Note_on_c, 0, 57, 64
2, 34848, Note_on_c, 0, 52, 64
2, 34887, Note_on_c, 0, 57, 0
2, 34887, Note_on_c, 0, 52, 0
2, 34944, Note_on_c, 0, 57, 64
2, 34944, Note_on_c, 0, 54, 64
2, 35033, Note_on_c, 0, 57, 0
2, 35033, Note_on_c, 0, 54, 0
2, 35136, Note_on_c, 0, 81, 64
2, 35136, Note_on_c, 0, 76, 64
2, 35175, Note_on_c, 0, 81, 0
2, 35175, Note_on_c, 0, 76, 0
2, 35232, Note_on_c, 0, 81, 64
2, 35232, Note_on_c, 0, 76, 64
2, 35271, Note_on_c, 0, 81, 0
2, 35271, Note_on_c, 0, 76, 0
2, 35328, Note_on_c, 0, 78, 64
2, 35358, Note_on_c, 0, 78, 0
2, 35360, Note_on_c, 0, 81, 64
2, 35390, Note_on_c, 0, 81, 0
2, 35392, Note_on_c, 0, 79, 65
2, 35422, Note_on_c, 0, 79, 0
2, 35424, Note_on_c, 0, 78, 65
2, 35454, Note_on_c, 0, 78, 0
2, 35456, Note_on_c, 0, 76, 66
2, 35486, Note_on_c, 0, 76, 0
2, 35488, Note_on_c, 0, 74, 67
2, 35518, Note_on_c, 0, 74, 0
2, 35520, Note_on_c, 0, 73, 67
2, 35550, Note_on_c, 0, 73, 0
2, 35552, Note_on_c, 0, 71, 68
2, 35582, Note_on_c, 0, 71, 0
2, 35584, Note_on_c, 0, 69, 68
2, 35614, Note_on_c, 0, 69, 0
2, 35616, Note_on_c, 0, 67, 69
2, 35646, Note_on_c, 0, 67, 0
2, 35648, Note_on_c, 0, 66, 70
2, 35678, Note_on_c, 0, 66, 0
2, 35680, Note_on_c, 0, 64, 70
2, 35710, Note_on_c, 0, 64, 0
2, 35712, Note_on_c, 0, 62, 71
2, 35742, Note_on_c, 0, 62, 0
2, 35744, Note_on_c, 0, 78, 71
2, 35774, Note_on_c, 0, 78, 0
2, 35776, Note_on_c, 0, 76, 72
2, 35806, Note_on_c, 0, 76, 0
2, 35808, Note_on_c, 0, 74, 73
2, 35838, Note_on_c, 0, 74, 0
2, 35840, Note_on_c, 0, 73, 73
2, 35870, Note_on_c, 0, 73, 0
2, 35872, Note_on_c, 0, 71, 74
2, 35902, Note_on_c, 0, 71, 0
2, 35904, Note_on_c, 0, 69, 74
2, 35934, Note_on_c, 0, 69, 0
2, 35936, Note_on_c, 0, 67, 75
2, 35966, Note_on_c, 0, 67, 0
2, 35968, Note_on_c, 0, 66, 76
2, 35998, Note_on_c, 0, 66, 0
2, 36000, Note_on_c, 0, 64, 76
2, 36030, Note_on_c, 0, 64, 0
2, 36032, Note_on_c, 0, 62, 77
2, 36062, Note_on_c, 0, 62, 0
2, 36064, Note_on_c, 0, 61, 77
2, 36094, Note_on_c, 0, 61, 0
2, 36096, Note_on_c, 0, 62, 78
2, 36126, Note_on_c, 0, 62, 0
2, 36128, Note_on_c, 0, 78, 101
2, 36160, Note_on_c, 0, 78, 0
2, 36160, Note_on_c, 0, 76, 80
2, 36190, Note_on_c, 0, 76, 0
2, 36192, Note_on_c, 0, 74, 80
2, 36205, Note_on_c, 0, 74, 0
2, 36224, Note_on_c, 0, 73, 101
2, 36256, Note_on_c, 0, 73, 0
2, 36256, Note_on_c, 0, 71, 80
2, 36286, Note_on_c, 0, 71, 0
2, 36288, Note_on_c, 0, 69, 80
2, 36301, Note_on_c, 0, 69, 0
2, 36320, Note_on_c, 0, 71, 101
2, 36352, Note_on_c, 0, 71, 0
2, 36352, Note_on_c, 0, 69, 80
2, 36382, Note_on_c, 0, 69, 0
2, 36384, Note_on_c, 0, 67, 80
2, 36397, Note_on_c, 0, 67, 0
2, 36416, Note_on_c, 0, 66, 101
2, 36448, Note_on_c, 0, 66, 0
2, 36448, Note_on_c, 0, 64, 80
2, 36478, Note_on_c, 0, 64, 0
2, 36480, Note_on_c, 0, 62, 80
2, 36510, Note_on_c, 0, 62, 0
2, 36512, Note_on_c, 0, 74, 80
2, 36542, Note_on_c, 0, 74, 0
2, 36544, Note_on_c, 0, 73, 80
2, 36574, Note_on_c, 0, 73, 0
2, 36576, Note_on_c, 0, 71, 80
2, 36606, Note_on_c, 0, 71, 0
2, 36608, Note_on_c, 0, 78, 80
2, 36638, Note_on_c, 0, 78, 0
2, 36640, Note_on_c, 0, 68, 80
2, 36670, Note_on_c, 0, 68, 0
2, 36672, Note_on_c, 0, 69, 80
2, 36702, Note_on_c, 0, 69, 0
2, 36704, Note_on_c, 0, 71, 80
2, 36734, Note_on_c, 0, 71, 0
2, 36736, Note_on_c, 0, 69, 80
2, 36766, Note_on_c, 0, 69, 0
2, 36768, Note_on_c, 0, 67, 80
2, 36798, Note_on_c, 0, 67, 0
2, 36800, Note_on_c, 0, 74, 80
2, 36830, Note_on_c, 0, 74, 0
2, 36832, Note_on_c, 0, 65, 80
2, 36862, Note_on_c, 0, 65, 0
2, 36864, Note_on_c, 0, 66, 80
2, 36894, Note_on_c, 0, 66, 0
2, 36896, Note_on_c, 0, 67, 80
2, 36926, Note_on_c, 0, 67, 0
2, 36928, Note_on_c, 0, 66, 80
2, 36958, Note_on_c, 0, 66, 0
2, 36960, Note_on_c, 0, 64, 80
2, 36990, Note_on_c, 0, 64, 0
2, 36992, Note_on_c, 0, 71, 79
2, 37022, Note_on_c, 0, 71, 0
2, 37024, Note_on_c, 0, 61, 78
2, 37054, Note_on_c, 0, 61, 0
2, 37056, Note_on_c, 0, 62, 77
2, 37086, Note_on_c, 0, 62, 0
2, 37088, Note_on_c, 0, 66, 77
2, 37118, Note_on_c, 0, 66, 0
2, 37120, Note_on_c, 0, 64, 76
2, 37150, Note_on_c, 0, 64, 0
2, 37152, Note_on_c, 0, 62, 75
2, 37182, Note_on_c, 0, 62, 0
2, 37184, Note_on_c, 0, 69, 75
2, 37214, Note_on_c, 0, 69, 0
2, 37216, Note_on_c, 0, 63, 74
2, 37246, Note_on_c, 0, 63, 0
2, 37248, Note_on_c, 0, 64, 73
2, 37381, Note_on_c, 0, 64, 0
2, 37392, Note_on_c, 0, 64, 64
2, 37404, Note_on_c, 0, 64, 0
2, 37404, Note_on_c, 0, 66, 64
2, 37416, Note_on_c, 0, 66, 0
2, 37416, Note_on_c, 0, 67, 65
2, 37428, Note_on_c, 0, 67, 0
2, 37428, Note_on_c, 0, 69, 65
2, 37440, Note_on_c, 0, 69, 0
2, 37440, Note_on_c, 0, 70, 82
2, 37536, Note_on_c, 0, 70, 0
2, 37536, Note_on_c, 0, 71, 70
2, 37625, Note_on_c, 0, 71, 0
2, 37632, Note_on_c, 0, 71, 75
2, 37650, Note_on_c, 0, 71, 0
2, 37650, Note_on_c, 0, 62, 91
2, 37824, Note_on_c, 0, 62, 0
2, 37824, Note_on_c, 0, 66, 64
2, 37836, Note_on_c, 0, 66, 0
2, 37836, Note_on_c, 0, 64, 64
2, 37891, Note_on_c, 0, 64, 0
2, 37896, Note_on_c, 0, 62, 64
2, 37919, Note_on_c, 0, 62, 0
2, 37920, Note_on_c, 0, 64, 64
2, 37987, Note_on_c, 0, 64, 0
2, 37992, Note_on_c, 0, 66, 64
2, 38015, Note_on_c, 0, 66, 0
2, 38016, Note_on_c, 0, 62, 64
2, 38046, Note_on_c, 0, 62, 0
2, 38048, Note_on_c, 0, 74, 64
2, 38048, Note_on_c, 0, 71, 64
2, 38078, Note_on_c, 0, 74, 0
2, 38078, Note_on_c, 0, 71, 0
2, 38080, Note_on_c, 0, 73, 64
2, 38080, Note_on_c, 0, 69, 64
2, 38110, Note_on_c, 0, 73, 0
2, 38110, Note_on_c, 0, 69, 0
2, 38112, Note_on_c, 0, 71, 64
2, 38112, Note_on_c, 0, 67, 64
2, 38142, Note_on_c, 0, 71, 0
2, 38142, Note_on_c, 0, 67, 0
2, 38144, Note_on_c, 0, 69, 65
2, 38144, Note_on_c, 0, 66, 65
2, 38174, Note_on_c, 0, 69, 0
2, 38174, Note_on_c, 0, 66, 0
2, 38176, Note_on_c, 0, 67, 67
2, 38176, Note_on_c, 0, 64, 67
2, 38206, Note_on_c, 0, 67, 0
2, 38206, Note_on_c, 0, 64, 0
2, 38208, Note_on_c, 0, 66, 68
2, 38208, Note_on_c, 0, 62, 68
2, 38238, Note_on_c, 0, 66, 0
2, 38238, Note_on_c, 0, 62, 0
2, 38240, Note_on_c, 0, 74, 70
2, 38240, Note_on_c, 0, 71, 70
2, 38270, Note_on_c, 0, 74, 0
2, 38270, Note_on_c, 0, 71, 0
2, 38272, Note_on_c, 0, 73, 71
2, 38272, Note_on_c, 0, 69, 71
2, 38302, Note_on_c, 0, 73, 0
2, 38302, Note_on_c, 0, 69, 0
2, 38304, Note_on_c, 0, 71, 73
2, 38304, Note_on_c, 0, 67, 73
2, 38334, Note_on_c, 0, 71, 0
2, 38334, Note_on_c, 0, 67, 0
2, 38336, Note_on_c, 0, 69, 74
2, 38336, Note_on_c, 0, 66, 74
2, 38366, Note_on_c, 0, 69, 0
2, 38366, Note_on_c, 0, 66, 0
2, 38368, Note_on_c, 0, 67, 76
2, 38368, Note_on_c, 0, 64, 76
2, 38398, Note_on_c, 0, 67, 0
2, 38398, Note_on_c, 0, 64, 0
2, 38400, Note_on_c, 0, 66, 77
2, 38400, Note_on_c, 0, 62, 77
2, 38430, Note_on_c, 0, 66, 0
2, 38430, Note_on_c, 0, 62, 0
2, 38432, Note_on_c, 0, 86, 80
2, 38432, Note_on_c, 0, 83, 80
2, 38462, Note_on_c, 0, 86, 0
2, 38462, Note_on_c, 0, 83, 0
2, 38464, Note_on_c, 0, 85, 80
2, 38464, Note_on_c, 0, 81, 80
2, 38494, Note_on_c, 0, 85, 0
2, 38494, Note_on_c, 0, 81, 0
2, 38496, Note_on_c, 0, 83, 80
2, 38496, Note_on_c, 0, 79, 80
2, 38526, Note_on_c, 0, 83, 0
2, 38526, Note_on_c, 0, 79, 0
2, 38528, Note_on_c, 0, 81, 80
2, 38528, Note_on_c, 0, 78, 80
2, 38558, Note_on_c, 0, 81, 0
2, 38558, Note_on_c, 0, 78, 0
2, 38560, Note_on_c, 0, 79, 80
2, 38560, Note_on_c, 0, 76, 80
2, 38590, Note_on_c, 0, 79, 0
2, 38590, Note_on_c, 0, 76, 0
2, 38592, Note_on_c, 0, 78, 80
2, 38592, Note_on_c, 0, 74, 80
2, 38622, Note_on_c, 0, 78, 0
2, 38622, Note_on_c, 0, 74, 0
2, 38624, Note_on_c, 0, 86, 80
2, 38624, Note_on_c, 0, 83, 80
2, 38654, Note_on_c, 0, 86, 0
2, 38654, Note_on_c, 0, 83, 0
2, 38656, Note_on_c, 0, 85, 80
2, 38656, Note_on_c, 0, 81, 80
2, 38686, Note_on_c, 0, 85, 0
2, 38686, Note_on_c, 0, 81, 0
2, 38688, Note_on_c, 0, 83, 80
2, 38688, Note_on_c, 0, 79, 80
2, 38718, Note_on_c, 0, 83, 0
2, 38718, Note_on_c, 0, 79, 0
2, 38720, Note_on_c, 0, 81, 80
2, 38720, Note_on_c, 0, 78, 80
2, 38750, Note_on_c, 0, 81, 0
2, 38750, Note_on_c, 0, 78, 0
2, 38752, Note_on_c, 0, 79, 80
2, 38752, Note_on_c, 0, 76, 80
2, 38782, Note_on_c, 0, 79, 0
2, 38782, Note_on_c, 0, 76, 0
2, 38784, Note_on_c, 0, 78, 80
2, 38784, Note_on_c, 0, 74, 80
2, 38814, Note_on_c, 0, 78, 0
2, 38814, Note_on_c, 0, 74, 0
2, 38816, Note_on_c, 0, 81, 80
2, 38816, Note_on_c, 0, 78, 80
2, 38848, Note_on_c, 0, 81, 0
2, 38848, Note_on_c, 0, 78, 0
2, 38848, Note_on_c, 0, 79, 80
2, 38848, Note_on_c, 0, 76, 80
2, 38878, Note_on_c, 0, 79, 0
2, 38878, Note_on_c, 0, 76, 0
2, 38880, Note_on_c, 0, 78, 80
2, 38880, Note_on_c, 0, 74, 80
2, 38893, Note_on_c, 0, 78, 0
2, 38893, Note_on_c, 0, 74, 0
2, 38912, Note_on_c, 0, 78, 79
2, 38912, Note_on_c, 0, 74, 79
2, 38944, Note_on_c, 0, 78, 0
2, 38944, Note_on_c, 0, 74, 0
2, 38944, Note_on_c, 0, 76, 78
2, 38944, Note_on_c, 0, 73, 78
2, 38974, Note_on_c, 0, 76, 0
2, 38974, Note_on_c, 0, 73, 0
2, 38976, Note_on_c, 0, 74, 77
2, 38976, Note_on_c, 0, 71, 77
2, 38989, Note_on_c, 0, 74, 0
2, 38989, Note_on_c, 0, 71, 0
2, 39008, Note_on_c, 0, 74, 76
2, 39008, Note_on_c, 0, 71, 76
2, 39040, Note_on_c, 0, 74, 0
2, 39040, Note_on_c, 0, 71, 0
2, 39040, Note_on_c, 0, 73, 75
2, 39040, Note_on_c, 0, 69, 75
2, 39070, Note_on_c, 0, 73, 0
2, 39070, Note_on_c, 0, 69, 0
2, 39072, Note_on_c, 0, 71, 74
2, 39072, Note_on_c, 0, 67, 74
2, 39085, Note_on_c, 0, 71, 0
2, 39085, Note_on_c, 0, 67, 0
2, 39104, Note_on_c, 0, 71, 73
2, 39104, Note_on_c, 0, 67, 73
2, 39136, Note_on_c, 0, 71, 0
2, 39136, Note_on_c, 0, 67, 0
2, 39136, Note_on_c, 0, 69, 72
2, 39136, Note_on_c, 0, 66, 72
2, 39166, Note_on_c, 0, 69, 0
2, 39166, Note_on_c, 0, 66, 0
2, 39168, Note_on_c, 0, 67, 71
2, 39168, Note_on_c, 0, 64, 71
2, 39345, Note_on_c, 0, 67, 0
2, 39345, Note_on_c, 0, 64, 0
2, 39360, Note_on_c, 0, 66, 64
2, 39449, Note_on_c, 0, 66, 0
2, 39456, Note_on_c, 0, 62, 64
2, 39545, Note_on_c, 0, 62, 0
2, 39552, Note_on_c, 0, 71, 64
2, 39685, Note_on_c, 0, 71, 0
2, 39696, Note_on_c, 0, 73, 70
2, 39708, Note_on_c, 0, 73, 0
2, 39708, Note_on_c, 0, 71, 70
2, 39720, Note_on_c, 0, 71, 0
2, 39720, Note_on_c, 0, 70, 70
2, 39732, Note_on_c, 0, 70, 0
2, 39732, Note_on_c, 0, 71, 70
2, 39744, Note_on_c, 0, 71, 0
2, 39744, Note_on_c, 0, 74, 88
2, 39936, Note_on_c, 0, 74, 0
2, 39936, Note_on_c, 0, 62, 91
2, 40128, Note_on_c, 0, 62, 0
2, 40128, Note_on_c, 0, 66, 70
2, 40140, Note_on_c, 0, 66, 0
2, 40140, Note_on_c, 0, 64, 70
2, 40195, Note_on_c, 0, 64, 0
2, 40200, Note_on_c, 0, 62, 68
2, 40223, Note_on_c, 0, 62, 0
2, 40224, Note_on_c, 0, 64, 68
2, 40291, Note_on_c, 0, 64, 0
2, 40296, Note_on_c, 0, 66, 66
2, 40319, Note_on_c, 0, 66, 0
2, 40320, Note_on_c, 0, 62, 66
2, 40409, Note_on_c, 0, 62, 0
2, 40512, Note_on_c, 0, 67, 64
2, 40512, Note_on_c, 0, 61, 64
2, 40551, Note_on_c, 0, 67, 0
2, 40551, Note_on_c, 0, 61, 0
2, 40608, Note_on_c, 0, 67, 64
2, 40608, Note_on_c, 0, 61, 64
2, 40647, Note_on_c, 0, 67, 0
2, 40647, Note_on_c, 0, 61, 0
2, 40704, Note_on_c, 0, 66, 64
2, 40704, Note_on_c, 0, 62, 64
2, 40798, Note_on_c, 0, 66, 0
2, 40798, Note_on_c, 0, 62, 0
2, 40896, Note_on_c, 0, 73, 68
2, 40896, Note_on_c, 0, 67, 68
2, 40935, Note_on_c, 0, 73, 0
2, 40935, Note_on_c, 0, 67, 0
2, 40992, Note_on_c, 0, 73, 70
2, 40992, Note_on_c, 0, 67, 70
2, 41031, Note_on_c, 0, 73, 0
2, 41031, Note_on_c, 0, 67, 0
2, 41088, Note_on_c, 0, 74, 70
2, 41088, Note_on_c, 0, 66, 70
2, 41182, Note_on_c, 0, 74, 0
2, 41182, Note_on_c, 0, 66, 0
2, 41280, Note_on_c, 0, 67, 70
2, 41280, Note_on_c, 0, 61, 70
2, 41319, Note_on_c, 0, 67, 0
2, 41319, Note_on_c, 0, 61, 0
2, 41376, Note_on_c, 0, 67, 70
2, 41376, Note_on_c, 0, 61, 70
2, 41415, Note_on_c, 0, 67, 0
2, 41415, Note_on_c, 0, 61, 0
2, 41472, Note_on_c, 0, 66, 70
2, 41472, Note_on_c, 0, 62, 70
2, 41566, Note_on_c, 0, 66, 0
2, 41566, Note_on_c, 0, 62, 0
2, 41664, Note_on_c, 0, 61, 66
2, 41664, Note_on_c, 0, 55, 66
2, 41703, Note_on_c, 0, 61, 0
2, 41703, Note_on_c, 0, 55, 0
2, 41760, Note_on_c, 0, 61, 64
2, 41760, Note_on_c, 0, 55, 64
2, 41799, Note_on_c, 0, 61, 0
2, 41799, Note_on_c, 0, 55, 0
2, 41856, Note_on_c, 0, 62, 64
2, 41856, Note_on_c, 0, 54, 64
2, 41950, Note_on_c, 0, 62, 0
2, 41950, Note_on_c, 0, 54, 0
2, 42048, Note_on_c, 0, 62, 60
2, 42048, Note_on_c, 0, 54, 60
2, 42087, Note_on_c, 0, 62, 0
2, 42087, Note_on_c, 0, 54, 0
2, 42144, Note_on_c, 0, 62, 58
2, 42144, Note_on_c, 0, 54, 58
2, 42183, Note_on_c, 0, 62, 0
2, 42183, Note_on_c, 0, 54, 0
2, 42240, Note_on_c, 0, 62, 58
2, 42240, Note_on_c, 0, 54, 58
2, 42594, Note_on_c, 0, 62, 0
2, 42594, Note_on_c, 0, 54, 0
2, 42624, End_track
3, 0, Start_track
3, 0, Program_c, 0, 0
3, 0, Control_c, 0, 7, 127
3, 0, Control_c, 0, 10, 64
3, 29568, Control_c, 0, 64, 127
3, 29568, Note_on_c, 0, 79, 86
3, 29600, Note_on_c, 0, 79, 0
3, 29600, Note_on_c, 0, 76, 86
3, 29630, Note_on_c, 0, 76, 0
3, 29632, Note_on_c, 0, 73, 86
3, 29662, Note_on_c, 0, 73, 0
3, 29664, Note_on_c, 0, 69, 86
3, 29694, Note_on_c, 0, 69, 0
3, 30336, Control_c, 0, 64, 0
3, 42624, End_track
4, 0, Start_track
4, 0, Program_c, 1, 0
4, 0, Control_c, 1, 7, 127
4, 0, Control_c, 1, 10, 64
4, 96, Note_on_c, 1, 50, 80
4, 96, Note_on_c, 1, 38, 80
4, 185, Note_on_c, 1, 50, 0
4, 185, Note_on_c, 1, 38, 0
4, 288, Note_on_c, 1, 45, 80
4, 288, Note_on_c, 1, 33, 80
4, 377, Note_on_c, 1, 45, 0
4, 377, Note_on_c, 1, 33, 0
4, 480, Note_on_c, 1, 50, 80
4, 510, Note_on_c, 1, 50, 0
4, 512, Note_on_c, 1, 45, 80
4, 542, Note_on_c, 1, 45, 0
4, 544, Note_on_c, 1, 42, 80
4, 574, Note_on_c, 1, 42, 0
4, 576, Note_on_c, 1, 38, 80
4, 665, Note_on_c, 1, 38, 0
4, 864, Note_on_c, 1, 62, 64
4, 1129, Note_on_c, 1, 62, 0
4, 1152, Note_on_c, 1, 61, 64
4, 1241, Note_on_c, 1, 61, 0
4, 1248, Note_on_c, 1, 62, 64
4, 1337, Note_on_c, 1, 62, 0
4, 1344, Note_on_c, 1, 64, 64
4, 1433, Note_on_c, 1, 64, 0
4, 1584, Note_on_c, 1, 49, 80
4, 1607, Note_on_c, 1, 49, 0
4, 1608, Note_on_c, 1, 50, 80
4, 1631, Note_on_c, 1, 50, 0
4, 1632, Note_on_c, 1, 38, 80
4, 1721, Note_on_c, 1, 38, 0
4, 1776, Note_on_c, 1, 44, 80
4, 1799, Note_on_c, 1, 44, 0
4, 1800, Note_on_c, 1, 45, 80
4, 1823, Note_on_c, 1, 45, 0
4, 1824, Note_on_c, 1, 33, 80
4, 1913, Note_on_c, 1, 33, 0
4, 1992, Note_on_c, 1, 49, 80
4, 2015, Note_on_c, 1, 49, 0
4, 2016, Note_on_c, 1, 50, 80
4, 2061, Note_on_c, 1, 50, 0
4, 2064, Note_on_c, 1, 45, 80
4, 2087, Note_on_c, 1, 45, 0
4, 2088, Note_on_c, 1, 42, 80
4, 2111, Note_on_c, 1, 42, 0
4, 2112, Note_on_c, 1, 38, 80
4, 2201, Note_on_c, 1, 38, 0
4, 2400, Note_on_c, 1, 66, 64
4, 2489, Note_on_c, 1, 66, 0
4, 2496, Note_on_c, 1, 67, 64
4, 2585, Note_on_c, 1, 67, 0
4, 2592, Note_on_c, 1, 67, 64
4, 2681, Note_on_c, 1, 67, 0
4, 2688, Note_on_c, 1, 66, 64
4, 2688, Note_on_c, 1, 62, 64
4, 2865, Note_on_c, 1, 66, 0
4, 2865, Note_on_c, 1, 62, 0
4, 3072, Note_on_c, 1, 62, 64
4, 3072, Note_on_c, 1, 59, 64
4, 3072, Note_on_c, 1, 55, 64
4, 3249, Note_on_c, 1, 62, 0
4, 3249, Note_on_c, 1, 59, 0
4, 3249, Note_on_c, 1, 55, 0
4, 3456, Note_on_c, 1, 54, 80
4, 3456, Note_on_c, 1, 50, 80
4, 3456, Note_on_c, 1, 45, 80
4, 3721, Note_on_c, 1, 54, 0
4, 3721, Note_on_c, 1, 50, 0
4, 3721, Note_on_c, 1, 45, 0
4, 3744, Note_on_c, 1, 55, 80
4, 3744, Note_on_c, 1, 52, 80
4, 3744, Note_on_c, 1, 45, 80
4, 3833, Note_on_c, 1, 55, 0
4, 3833, Note_on_c, 1, 52, 0
4, 3833, Note_on_c, 1, 45, 0
4, 3840, Note_on_c, 1, 50, 64
4, 3870, Note_on_c, 1, 50, 0
4, 3872, Note_on_c, 1, 54, 64
4, 3902, Note_on_c, 1, 54, 0
4, 3904, Note_on_c, 1, 57, 64
4, 3934, Note_on_c, 1, 57, 0
4, 3936, Note_on_c, 1, 50, 64
4, 3966, Note_on_c, 1, 50, 0
4, 3968, Note_on_c, 1, 54, 64
4, 3998, Note_on_c, 1, 54, 0
4, 4000, Note_on_c, 1, 57, 64
4, 4030, Note_on_c, 1, 57, 0
4, 4032, Note_on_c, 1, 52, 64
4, 4062, Note_on_c, 1, 52, 0
4, 4064, Note_on_c, 1, 55, 64
4, 4094, Note_on_c, 1, 55, 0
4, 4096, Note_on_c, 1, 57, 64
4, 4126, Note_on_c, 1, 57, 0
4, 4128, Note_on_c, 1, 50, 64
4, 4158, Note_on_c, 1, 50, 0
4, 4160, Note_on_c, 1, 54, 64
4, 4190, Note_on_c, 1, 54, 0
4, 4192, Note_on_c, 1, 57, 64
4, 4222, Note_on_c, 1, 57, 0
4, 4224, Note_on_c, 1, 49, 64
4, 4254, Note_on_c, 1, 49, 0
4, 4256, Note_on_c, 1, 52, 64
4, 4286, Note_on_c, 1, 52, 0
4, 4288, Note_on_c, 1, 57, 64
4, 4318, Note_on_c, 1, 57, 0
4, 4320, Note_on_c, 1, 47, 64
4, 4350, Note_on_c, 1, 47, 0
4, 4352, Note_on_c, 1, 50, 64
4, 4382, Note_on_c, 1, 50, 0
4, 4384, Note_on_c, 1, 57, 64
4, 4414, Note_on_c, 1, 57, 0
4, 4416, Note_on_c, 1, 45, 64
4, 4446, Note_on_c, 1, 45, 0
4, 4448, Note_on_c, 1, 49, 64
4, 4478, Note_on_c, 1, 49, 0
4, 4480, Note_on_c, 1, 57, 64
4, 4510, Note_on_c, 1, 57, 0
4, 4512, Note_on_c, 1, 49, 64
4, 4542, Note_on_c, 1, 49, 0
4, 4544, Note_on_c, 1, 52, 64
4, 4574, Note_on_c, 1, 52, 0
4, 4576, Note_on_c, 1, 57, 64
4, 4606, Note_on_c, 1, 57, 0
4, 4608, Note_on_c, 1, 50, 64
4, 4638, Note_on_c, 1, 50, 0
4, 4640, Note_on_c, 1, 54, 64
4, 4670, Note_on_c, 1, 54, 0
4, 4672, Note_on_c, 1, 57, 64
4, 4702, Note_on_c, 1, 57, 0
4, 4704, Note_on_c, 1, 50, 64
4, 4734, Note_on_c, 1, 50, 0
4, 4736, Note_on_c, 1, 54, 64
4, 4766, Note_on_c, 1, 54, 0
4, 4768, Note_on_c, 1, 57, 64
4, 4798, Note_on_c, 1, 57, 0
4, 4800, Note_on_c, 1, 43, 64
4, 4830, Note_on_c, 1, 43, 0
4, 4832, Note_on_c, 1, 47, 64
4, 4862, Note_on_c, 1, 47, 0
4, 4864, Note_on_c, 1, 55, 64
4, 4894, Note_on_c, 1, 55, 0
4, 4896, Note_on_c, 1, 43, 64
4, 4926, Note_on_c, 1, 43, 0
4, 4928, Note_on_c, 1, 47, 64
4, 4958, Note_on_c, 1, 47, 0
4, 4960, Note_on_c, 1, 55, 64
4, 4990, Note_on_c, 1, 55, 0
4, 4992, Note_on_c, 1, 45, 75
4, 5022, Note_on_c, 1, 45, 0
4, 5024, Note_on_c, 1, 50, 75
4, 5054, Note_on_c, 1, 50, 0
4, 5056, Note_on_c, 1, 54, 76
4, 5086, Note_on_c, 1, 54, 0
4, 5088, Note_on_c, 1, 57, 77
4, 5118, Note_on_c, 1, 57, 0
4, 5120, Note_on_c, 1, 59, 78
4, 5150, Note_on_c, 1, 59, 0
4, 5152, Note_on_c, 1, 56, 78
4, 5182, Note_on_c, 1, 56, 0
4, 5184, Note_on_c, 1, 64, 80
4, 5184, Note_on_c, 1, 57, 80
4, 5273, Note_on_c, 1, 64, 0
4, 5273, Note_on_c, 1, 57, 0
4, 5376, Note_on_c, 1, 50, 75
4, 5406, Note_on_c, 1, 50, 0
4, 5408, Note_on_c, 1, 54, 75
4, 5438, Note_on_c, 1, 54, 0
4, 5440, Note_on_c, 1, 57, 75
4, 5470, Note_on_c, 1, 57, 0
4, 5472, Note_on_c, 1, 50, 75
4, 5502, Note_on_c, 1, 50, 0
4, 5504, Note_on_c, 1, 54, 75
4, 5534, Note_on_c, 1, 54, 0
4, 5536, Note_on_c, 1, 57, 75
4, 5566, Note_on_c, 1, 57, 0
4, 5568, Note_on_c, 1, 52, 75
4, 5598, Note_on_c, 1, 52, 0
4, 5600, Note_on_c, 1, 55, 75
4, 5630, Note_on_c, 1, 55, 0
4, 5632, Note_on_c, 1, 57, 75
4, 5662, Note_on_c, 1, 57, 0
4, 5664, Note_on_c, 1, 50, 75
4, 5694, Note_on_c, 1, 50, 0
4, 5696, Note_on_c, 1, 54, 75
4, 5726, Note_on_c, 1, 54, 0
4, 5728, Note_on_c, 1, 57, 75
4, 5758, Note_on_c, 1, 57, 0
4, 5760, Note_on_c, 1, 49, 75
4, 5790, Note_on_c, 1, 49, 0
4, 5792, Note_on_c, 1, 52, 75
4, 5822, Note_on_c, 1, 52, 0
4, 5824, Note_on_c, 1, 57, 75
4, 5854, Note_on_c, 1, 57, 0
4, 5856, Note_on_c, 1, 47, 75
4, 5886, Note_on_c, 1, 47, 0
4, 5888, Note_on_c, 1, 50, 75
4, 5918, Note_on_c, 1, 50, 0
4, 5920, Note_on_c, 1, 57, 75
4, 5950, Note_on_c, 1, 57, 0
4, 5952, Note_on_c, 1, 45, 75
4, 5982, Note_on_c, 1, 45, 0
4, 5984, Note_on_c, 1, 49, 75
4, 6014, Note_on_c, 1, 49, 0
4, 6016, Note_on_c, 1, 57, 75
4, 6046, Note_on_c, 1, 57, 0
4, 6048, Note_on_c, 1, 49, 75
4, 6078, Note_on_c, 1, 49, 0
4, 6080, Note_on_c, 1, 52, 75
4, 6110, Note_on_c, 1, 52, 0
4, 6112, Note_on_c, 1, 57, 75
4, 6142, Note_on_c, 1, 57, 0
4, 6144, Note_on_c, 1, 50, 75
4, 6174, Note_on_c, 1, 50, 0
4, 6176, Note_on_c, 1, 54, 75
4, 6206, Note_on_c, 1, 54, 0
4, 6208, Note_on_c, 1, 57, 75
4, 6238, Note_on_c, 1, 57, 0
4, 6240, Note_on_c, 1, 50, 75
4, 6270, Note_on_c, 1, 50, 0
4, 6272, Note_on_c, 1, 54, 75
4, 6302, Note_on_c, 1, 54, 0
4, 6304, Note_on_c, 1, 57, 75
4, 6334, Note_on_c, 1, 57, 0
4, 6336, Note_on_c, 1, 49, 75
4, 6366, Note_on_c, 1, 49, 0
4, 6368, Note_on_c, 1, 55, 75
4, 6398, Note_on_c, 1, 55, 0
4, 6400, Note_on_c, 1, 57, 76
4, 6430, Note_on_c, 1, 57, 0
4, 6432, Note_on_c, 1, 48, 76
4, 6462, Note_on_c, 1, 48, 0
4, 6464, Note_on_c, 1, 50, 76
4, 6494, Note_on_c, 1, 50, 0
4, 6496, Note_on_c, 1, 57, 76
4, 6526, Note_on_c, 1, 57, 0
4, 6528, Note_on_c, 1, 47, 76
4, 6558, Note_on_c, 1, 47, 0
4, 6560, Note_on_c, 1, 50, 76
4, 6590, Note_on_c, 1, 50, 0
4, 6592, Note_on_c, 1, 55, 76
4, 6622, Note_on_c, 1, 55, 0
4, 6624, Note_on_c, 1, 45, 77
4, 6654, Note_on_c, 1, 45, 0
4, 6656, Note_on_c, 1, 48, 77
4, 6686, Note_on_c, 1, 48, 0
4, 6688, Note_on_c, 1, 54, 77
4, 6718, Note_on_c, 1, 54, 0
4, 6720, Note_on_c, 1, 43, 77
4, 6750, Note_on_c, 1, 43, 0
4, 6752, Note_on_c, 1, 47, 77
4, 6782, Note_on_c, 1, 47, 0
4, 6784, Note_on_c, 1, 55, 77
4, 6814, Note_on_c, 1, 55, 0
4, 6816, Note_on_c, 1, 43, 77
4, 6846, Note_on_c, 1, 43, 0
4, 6848, Note_on_c, 1, 47, 78
4, 6878, Note_on_c, 1, 47, 0
4, 6880, Note_on_c, 1, 55, 78
4, 6910, Note_on_c, 1, 55, 0
4, 6912, Note_on_c, 1, 54, 78
4, 6912, Note_on_c, 1, 50, 78
4, 6912, Note_on_c, 1, 45, 78
4, 7177, Note_on_c, 1, 54, 0
4, 7177, Note_on_c, 1, 50, 0
4, 7177, Note_on_c, 1, 45, 0
4, 7200, Note_on_c, 1, 55, 80
4, 7200, Note_on_c, 1, 49, 80
4, 7200, Note_on_c, 1, 45, 80
4, 7289, Note_on_c, 1, 55, 0
4, 7289, Note_on_c, 1, 49, 0
4, 7289, Note_on_c, 1, 45, 0
4, 7296, Note_on_c, 1, 50, 72
4, 7326, Note_on_c, 1, 50, 0
4, 7328, Note_on_c, 1, 54, 70
4, 7358, Note_on_c, 1, 54, 0
4, 7360, Note_on_c, 1, 57, 70
4, 7390, Note_on_c, 1, 57, 0
4, 7392, Note_on_c, 1, 50, 70
4, 7422, Note_on_c, 1, 50, 0
4, 7424, Note_on_c, 1, 54, 70
4, 7454, Note_on_c, 1, 54, 0
4, 7456, Note_on_c, 1, 57, 70
4, 7486, Note_on_c, 1, 57, 0
4, 7488, Note_on_c, 1, 50, 70
4, 7518, Note_on_c, 1, 50, 0
4, 7520, Note_on_c, 1, 54, 70
4, 7550, Note_on_c, 1, 54, 0
4, 7552, Note_on_c, 1, 57, 70
4, 7582, Note_on_c, 1, 57, 0
4, 7584, Note_on_c, 1, 50, 70
4, 7614, Note_on_c, 1, 50, 0
4, 7616, Note_on_c, 1, 54, 70
4, 7646, Note_on_c, 1, 54, 0
4, 7648, Note_on_c, 1, 57, 70
4, 7678, Note_on_c, 1, 57, 0
4, 7680, Note_on_c, 1, 49, 70
4, 7710, Note_on_c, 1, 49, 0
4, 7712, Note_on_c, 1, 55, 70
4, 7742, Note_on_c, 1, 55, 0
4, 7744, Note_on_c, 1, 57, 70
4, 7774, Note_on_c, 1, 57, 0
4, 7776, Note_on_c, 1, 49, 70
4, 7806, Note_on_c, 1, 49, 0
4, 7808, Note_on_c, 1, 55, 70
4, 7838, Note_on_c, 1, 55, 0
4, 7840, Note_on_c, 1, 57, 70
4, 7870, Note_on_c, 1, 57, 0
4, 7872, Note_on_c, 1, 49, 70
4, 7902, Note_on_c, 1, 49, 0
4, 7904, Note_on_c, 1, 55, 70
4, 7934, Note_on_c, 1, 55, 0
4, 7936, Note_on_c, 1, 57, 70
4, 7966, Note_on_c, 1, 57, 0
4, 7968, Note_on_c, 1, 49, 70
4, 7998, Note_on_c, 1, 49, 0
4, 8000, Note_on_c, 1, 55, 70
4, 8030, Note_on_c, 1, 55, 0
4, 8032, Note_on_c, 1, 57, 70
4, 8062, Note_on_c, 1, 57, 0
4, 8064, Note_on_c, 1, 50, 70
4, 8094, Note_on_c, 1, 50, 0
4, 8096, Note_on_c, 1, 54, 70
4, 8126, Note_on_c, 1, 54, 0
4, 8128, Note_on_c, 1, 57, 71
4, 8158, Note_on_c, 1, 57, 0
4, 8160, Note_on_c, 1, 50, 72
4, 8190, Note_on_c, 1, 50, 0
4, 8192, Note_on_c, 1, 54, 73
4, 8222, Note_on_c, 1, 54, 0
4, 8224, Note_on_c, 1, 57, 73
4, 8254, Note_on_c, 1, 57, 0
4, 8256, Note_on_c, 1, 50, 74
4, 8286, Note_on_c, 1, 50, 0
4, 8288, Note_on_c, 1, 54, 75
4, 8318, Note_on_c, 1, 54, 0
4, 8320, Note_on_c, 1, 57, 76
4, 8350, Note_on_c, 1, 57, 0
4, 8352, Note_on_c, 1, 50, 77
4, 8382, Note_on_c, 1, 50, 0
4, 8384, Note_on_c, 1, 54, 77
4, 8414, Note_on_c, 1, 54, 0
4, 8416, Note_on_c, 1, 57, 78
4, 8446, Note_on_c, 1, 57, 0
4, 8448, Note_on_c, 1, 49, 80
4, 8478, Note_on_c, 1, 49, 0
4, 8480, Note_on_c, 1, 52, 80
4, 8510, Note_on_c, 1, 52, 0
4, 8512, Note_on_c, 1, 55, 80
4, 8542, Note_on_c, 1, 55, 0
4, 8544, Note_on_c, 1, 49, 80
4, 8574, Note_on_c, 1, 49, 0
4, 8576, Note_on_c, 1, 52, 80
4, 8606, Note_on_c, 1, 52, 0
4, 8608, Note_on_c, 1, 55, 80
4, 8638, Note_on_c, 1, 55, 0
4, 8640, Note_on_c, 1, 49, 80
4, 8670, Note_on_c, 1, 49, 0
4, 8672, Note_on_c, 1, 52, 80
4, 8702, Note_on_c, 1, 52, 0
4, 8704, Note_on_c, 1, 55, 80
4, 8734, Note_on_c, 1, 55, 0
4, 8736, Note_on_c, 1, 49, 80
4, 8766, Note_on_c, 1, 49, 0
4, 8768, Note_on_c, 1, 52, 80
4, 8798, Note_on_c, 1, 52, 0
4, 8800, Note_on_c, 1, 55, 80
4, 8830, Note_on_c, 1, 55, 0
4, 8832, Note_on_c, 1, 50, 80
4, 8862, Note_on_c, 1, 50, 0
4, 8864, Note_on_c, 1, 54, 80
4, 8894, Note_on_c, 1, 54, 0
4, 8896, Note_on_c, 1, 59, 80
4, 8926, Note_on_c, 1, 59, 0
4, 8928, Note_on_c, 1, 49, 80
4, 8958, Note_on_c, 1, 49, 0
4, 8960, Note_on_c, 1, 52, 80
4, 8990, Note_on_c, 1, 52, 0
4, 8992, Note_on_c, 1, 58, 80
4, 9022, Note_on_c, 1, 58, 0
4, 9024, Note_on_c, 1, 47, 80
4, 9054, Note_on_c, 1, 47, 0
4, 9056, Note_on_c, 1, 50, 80
4, 9086, Note_on_c, 1, 50, 0
4, 9088, Note_on_c, 1, 59, 80
4, 9118, Note_on_c, 1, 59, 0
4, 9120, Note_on_c, 1, 50, 80
4, 9150, Note_on_c, 1, 50, 0
4, 9152, Note_on_c, 1, 54, 80
4, 9182, Note_on_c, 1, 54, 0
4, 9184, Note_on_c, 1, 59, 80
4, 9214, Note_on_c, 1, 59, 0
4, 9216, Note_on_c, 1, 52, 80
4, 9246, Note_on_c, 1, 52, 0
4, 9248, Note_on_c, 1, 57, 80
4, 9278, Note_on_c, 1, 57, 0
4, 9280, Note_on_c, 1, 61, 81
4, 9310, Note_on_c, 1, 61, 0
4, 9312, Note_on_c, 1, 64, 81
4, 9342, Note_on_c, 1, 64, 0
4, 9344, Note_on_c, 1, 66, 82
4, 9374, Note_on_c, 1, 66, 0
4, 9376, Note_on_c, 1, 63, 83
4, 9406, Note_on_c, 1, 63, 0
4, 9408, Note_on_c, 1, 71, 83
4, 9408, Note_on_c, 1, 64, 83
4, 9497, Note_on_c, 1, 71, 0
4, 9497, Note_on_c, 1, 64, 0
4, 9600, Note_on_c, 1, 57, 64
4, 9630, Note_on_c, 1, 57, 0
4, 9632, Note_on_c, 1, 61, 64
4, 9662, Note_on_c, 1, 61, 0
4, 9664, Note_on_c, 1, 64, 64
4, 9694, Note_on_c, 1, 64, 0
4, 9696, Note_on_c, 1, 57, 64
4, 9726, Note_on_c, 1, 57, 0
4, 9728, Note_on_c, 1, 61, 64
4, 9758, Note_on_c, 1, 61, 0
4, 9760, Note_on_c, 1, 64, 64
4, 9790, Note_on_c, 1, 64, 0
4, 9792, Note_on_c, 1, 56, 64
4, 9822, Note_on_c, 1, 56, 0
4, 9824, Note_on_c, 1, 62, 64
4, 9854, Note_on_c, 1, 62, 0
4, 9856, Note_on_c, 1, 64, 64
4, 9886, Note_on_c, 1, 64, 0
4, 9888, Note_on_c, 1, 56, 64
4, 9918, Note_on_c, 1, 56, 0
4, 9920, Note_on_c, 1, 62, 64
4, 9950, Note_on_c, 1, 62, 0
4, 9952, Note_on_c, 1, 64, 64
4, 9982, Note_on_c, 1, 64, 0
4, 9984, Note_on_c, 1, 57, 64
4, 10014, Note_on_c, 1, 57, 0
4, 10016, Note_on_c, 1, 61, 64
4, 10046, Note_on_c, 1, 61, 0
4, 10048, Note_on_c, 1, 64, 64
4, 10078, Note_on_c, 1, 64, 0
4, 10080, Note_on_c, 1, 57, 64
4, 10110, Note_on_c, 1, 57, 0
4, 10112, Note_on_c, 1, 61, 64
4, 10142, Note_on_c, 1, 61, 0
4, 10144, Note_on_c, 1, 64, 64
4, 10174, Note_on_c, 1, 64, 0
4, 10176, Note_on_c, 1, 59, 70
4, 10206, Note_on_c, 1, 59, 0
4, 10208, Note_on_c, 1, 62, 70
4, 10238, Note_on_c, 1, 62, 0
4, 10240, Note_on_c, 1, 64, 71
4, 10270, Note_on_c, 1, 64, 0
4, 10272, Note_on_c, 1, 59, 72
4, 10302, Note_on_c, 1, 59, 0
4, 10304, Note_on_c, 1, 62, 73
4, 10334, Note_on_c, 1, 62, 0
4, 10336, Note_on_c, 1, 64, 73
4, 10366, Note_on_c, 1, 64, 0
4, 10368, Note_on_c, 1, 61, 75
4, 10368, Note_on_c, 1, 57, 75
4, 10457, Note_on_c, 1, 61, 0
4, 10457, Note_on_c, 1, 57, 0
4, 10656, Note_on_c, 1, 64, 75
4, 10656, Note_on_c, 1, 59, 75
4, 10656, Note_on_c, 1, 56, 75
4, 10745, Note_on_c, 1, 64, 0
4, 10745, Note_on_c, 1, 59, 0
4, 10745, Note_on_c, 1, 56, 0
4, 10752, Note_on_c, 1, 64, 75
4, 10752, Note_on_c, 1, 61, 75
4, 10752, Note_on_c, 1, 57, 75
4, 10841, Note_on_c, 1, 64, 0
4, 10841, Note_on_c, 1, 61, 0
4, 10841, Note_on_c, 1, 57, 0
4, 11040, Note_on_c, 1, 64, 75
4, 11040, Note_on_c, 1, 59, 75
4, 11040, Note_on_c, 1, 56, 75
4, 11129, Note_on_c, 1, 64, 0
4, 11129, Note_on_c, 1, 59, 0
4, 11129, Note_on_c, 1, 56, 0
4, 11136, Note_on_c, 1, 64, 75
4, 11136, Note_on_c, 1, 61, 75
4, 11136, Note_on_c, 1, 57, 75
4, 11225, Note_on_c, 1, 64, 0
4, 11225, Note_on_c, 1, 61, 0
4, 11225, Note_on_c, 1, 57, 0
4, 11232, Note_on_c, 1, 73, 70
4, 11232, Note_on_c, 1, 69, 70
4, 11321, Note_on_c, 1, 73, 0
4, 11321, Note_on_c, 1, 69, 0
4, 11328, Note_on_c, 1, 71, 70
4, 11328, Note_on_c, 1, 68, 70
4, 11417, Note_on_c, 1, 71, 0
4, 11417, Note_on_c, 1, 68, 0
4, 11424, Note_on_c, 1, 69, 70
4, 11424, Note_on_c, 1, 66, 70
4, 11513, Note_on_c, 1, 69, 0
4, 11513, Note_on_c, 1, 66, 0
4, 11520, Note_on_c, 1, 68, 80
4, 11520, Note_on_c, 1, 64, 80
4, 11609, Note_on_c, 1, 68, 0
4, 11609, Note_on_c, 1, 64, 0
4, 11616, Note_on_c, 1, 66, 76
4, 11616, Note_on_c, 1, 62, 76
4, 11705, Note_on_c, 1, 66, 0
4, 11705, Note_on_c, 1, 62, 0
4, 11712, Note_on_c, 1, 64, 72
4, 11712, Note_on_c, 1, 61, 72
4, 11801, Note_on_c, 1, 64, 0
4, 11801, Note_on_c, 1, 61, 0
4, 11904, Note_on_c, 1, 50, 65
4, 11934, Note_on_c, 1, 50, 0
4, 11936, Note_on_c, 1, 54, 64
4, 11966, Note_on_c, 1, 54, 0
4, 11968, Note_on_c, 1, 59, 64
4, 11998, Note_on_c, 1, 59, 0
4, 12000, Note_on_c, 1, 50, 64
4, 12030, Note_on_c, 1, 50, 0
4, 12032, Note_on_c, 1, 54, 64
4, 12062, Note_on_c, 1, 54, 0
4, 12064, Note_on_c, 1, 59, 64
4, 12094, Note_on_c, 1, 59, 0
4, 12096, Note_on_c, 1, 51, 64
4, 12126, Note_on_c, 1, 51, 0
4, 12128, Note_on_c, 1, 57, 64
4, 12158, Note_on_c, 1, 57, 0
4, 12160, Note_on_c, 1, 60, 64
4, 12190, Note_on_c, 1, 60, 0
4, 12192, Note_on_c, 1, 51, 64
4, 12222, Note_on_c, 1, 51, 0
4, 12224, Note_on_c, 1, 57, 64
4, 12254, Note_on_c, 1, 57, 0
4, 12256, Note_on_c, 1, 60, 64
4, 12286, Note_on_c, 1, 60, 0
4, 12288, Note_on_c, 1, 52, 64
4, 12318, Note_on_c, 1, 52, 0
4, 12320, Note_on_c, 1, 57, 64
4, 12350, Note_on_c, 1, 57, 0
4, 12352, Note_on_c, 1, 61, 64
4, 12382, Note_on_c, 1, 61, 0
4, 12384, Note_on_c, 1, 52, 64
4, 12414, Note_on_c, 1, 52, 0
4, 12416, Note_on_c, 1, 57, 64
4, 12446, Note_on_c, 1, 57, 0
4, 12448, Note_on_c, 1, 61, 64
4, 12478, Note_on_c, 1, 61, 0
4, 12480, Note_on_c, 1, 52, 64
4, 12510, Note_on_c, 1, 52, 0
4, 12512, Note_on_c, 1, 56, 64
4, 12542, Note_on_c, 1, 56, 0
4, 12544, Note_on_c, 1, 62, 64
4, 12574, Note_on_c, 1, 62, 0
4, 12576, Note_on_c, 1, 52, 64
4, 12606, Note_on_c, 1, 52, 0
4, 12608, Note_on_c, 1, 56, 64
4, 12638, Note_on_c, 1, 56, 0
4, 12640, Note_on_c, 1, 62, 64
4, 12670, Note_on_c, 1, 62, 0
4, 12672, Note_on_c, 1, 61, 64
4, 12672, Note_on_c, 1, 57, 64
4, 12761, Note_on_c, 1, 61, 0
4, 12761, Note_on_c, 1, 57, 0
4, 12832, Note_on_c, 1, 56, 75
4, 12832, Note_on_c, 1, 44, 75
4, 12862, Note_on_c, 1, 56, 0
4, 12862, Note_on_c, 1, 44, 0
4, 12864, Note_on_c, 1, 57, 75
4, 12864, Note_on_c, 1, 45, 75
4, 12953, Note_on_c, 1, 57, 0
4, 12953, Note_on_c, 1, 45, 0
4, 13024, Note_on_c, 1, 56, 77
4, 13024, Note_on_c, 1, 44, 77
4, 13054, Note_on_c, 1, 56, 0
4, 13054, Note_on_c, 1, 44, 0
4, 13056, Note_on_c, 1, 57, 78
4, 13056, Note_on_c, 1, 45, 78
4, 13145, Note_on_c, 1, 57, 0
4, 13145, Note_on_c, 1, 45, 0
4, 13184, Note_on_c, 1, 66, 78
4, 13216, Note_on_c, 1, 66, 0
4, 13216, Note_on_c, 1, 64, 76
4, 13246, Note_on_c, 1, 64, 0
4, 13248, Note_on_c, 1, 62, 75
4, 13261, Note_on_c, 1, 62, 0
4, 13280, Note_on_c, 1, 62, 73
4, 13312, Note_on_c, 1, 62, 0
4, 13312, Note_on_c, 1, 61, 71
4, 13342, Note_on_c, 1, 61, 0
4, 13344, Note_on_c, 1, 59, 70
4, 13357, Note_on_c, 1, 59, 0
4, 13376, Note_on_c, 1, 59, 68
4, 13408, Note_on_c, 1, 59, 0
4, 13408, Note_on_c, 1, 57, 66
4, 13438, Note_on_c, 1, 57, 0
4, 13440, Note_on_c, 1, 56, 64
4, 13470, Note_on_c, 1, 56, 0
4, 13472, Note_on_c, 1, 59, 64
4, 13502, Note_on_c, 1, 59, 0
4, 13504, Note_on_c, 1, 64, 64
4, 13534, Note_on_c, 1, 64, 0
4, 13536, Note_on_c, 1, 56, 64
4, 13566, Note_on_c, 1, 56, 0
4, 13568, Note_on_c, 1, 59, 64
4, 13598, Note_on_c, 1, 59, 0
4, 13600, Note_on_c, 1, 64, 64
4, 13630, Note_on_c, 1, 64, 0
4, 13632, Note_on_c, 1, 57, 64
4, 13662, Note_on_c, 1, 57, 0
4, 13664, Note_on_c, 1, 61, 64
4, 13694, Note_on_c, 1, 61, 0
4, 13696, Note_on_c, 1, 64, 64
4, 13726, Note_on_c, 1, 64, 0
4, 13728, Note_on_c, 1, 57, 64
4, 13758, Note_on_c, 1, 57, 0
4, 13760, Note_on_c, 1, 61, 64
4, 13790, Note_on_c, 1, 61, 0
4, 13792, Note_on_c, 1, 64, 64
4, 13822, Note_on_c, 1, 64, 0
4, 13824, Note_on_c, 1, 50, 64
4, 13854, Note_on_c, 1, 50, 0
4, 13856, Note_on_c, 1, 54, 66
4, 13886, Note_on_c, 1, 54, 0
4, 13888, Note_on_c, 1, 59, 68
4, 13918, Note_on_c, 1, 59, 0
4, 13920, Note_on_c, 1, 50, 70
4, 13950, Note_on_c, 1, 50, 0
4, 13952, Note_on_c, 1, 54, 72
4, 13982, Note_on_c, 1, 54, 0
4, 13984, Note_on_c, 1, 59, 74
4, 14014, Note_on_c, 1, 59, 0
4, 14016, Note_on_c, 1, 51, 76
4, 14046, Note_on_c, 1, 51, 0
4, 14048, Note_on_c, 1, 57, 80
4, 14078, Note_on_c, 1, 57, 0
4, 14080, Note_on_c, 1, 60, 80
4, 14110, Note_on_c, 1, 60, 0
4, 14112, Note_on_c, 1, 51, 80
4, 14142, Note_on_c, 1, 51, 0
4, 14144, Note_on_c, 1, 57, 80
4, 14174, Note_on_c, 1, 57, 0
4, 14176, Note_on_c, 1, 60, 80
4, 14206, Note_on_c, 1, 60, 0
4, 14208, Note_on_c, 1, 52, 80
4, 14238, Note_on_c, 1, 52, 0
4, 14240, Note_on_c, 1, 57, 80
4, 14270, Note_on_c, 1, 57, 0
4, 14272, Note_on_c, 1, 61, 80
4, 14302, Note_on_c, 1, 61, 0
4, 14304, Note_on_c, 1, 52, 80
4, 14334, Note_on_c, 1, 52, 0
4, 14336, Note_on_c, 1, 57, 80
4, 14366, Note_on_c, 1, 57, 0
4, 14368, Note_on_c, 1, 61, 80
4, 14398, Note_on_c, 1, 61, 0
4, 14400, Note_on_c, 1, 52, 80
4, 14430, Note_on_c, 1, 52, 0
4, 14432, Note_on_c, 1, 56, 80
4, 14462, Note_on_c, 1, 56, 0
4, 14464, Note_on_c, 1, 62, 77
4, 14494, Note_on_c, 1, 62, 0
4, 14496, Note_on_c, 1, 52, 75
4, 14526, Note_on_c, 1, 52, 0
4, 14528, Note_on_c, 1, 56, 72
4, 14558, Note_on_c, 1, 56, 0
4, 14560, Note_on_c, 1, 62, 70
4, 14590, Note_on_c, 1, 62, 0
4, 14592, Note_on_c, 1, 57, 67
4, 14622, Note_on_c, 1, 57, 0
4, 14624, Note_on_c, 1, 61, 64
4, 14654, Note_on_c, 1, 61, 0
4, 14656, Note_on_c, 1, 64, 64
4, 14686, Note_on_c, 1, 64, 0
4, 14688, Note_on_c, 1, 57, 64
4, 14718, Note_on_c, 1, 57, 0
4, 14720, Note_on_c, 1, 61, 64
4, 14750, Note_on_c, 1, 61, 0
4, 14752, Note_on_c, 1, 64, 64
4, 14782, Note_on_c, 1, 64, 0
4, 14784, Note_on_c, 1, 52, 64
4, 14814, Note_on_c, 1, 52, 0
4, 14816, Note_on_c, 1, 59, 64
4, 14846, Note_on_c, 1, 59, 0
4, 14848, Note_on_c, 1, 62, 64
4, 14878, Note_on_c, 1, 62, 0
4, 14880, Note_on_c, 1, 52, 64
4, 14910, Note_on_c, 1, 52, 0
4, 14912, Note_on_c, 1, 59, 64
4, 14942, Note_on_c, 1, 59, 0
4, 14944, Note_on_c, 1, 62, 64
4, 14974, Note_on_c, 1, 62, 0
4, 14976, Note_on_c, 1, 57, 64
4, 15006, Note_on_c, 1, 57, 0
4, 15008, Note_on_c, 1, 61, 63
4, 15038, Note_on_c, 1, 61, 0
4, 15040, Note_on_c, 1, 64, 62
4, 15070, Note_on_c, 1, 64, 0
4, 15072, Note_on_c, 1, 57, 61
4, 15102, Note_on_c, 1, 57, 0
4, 15104, Note_on_c, 1, 61, 60
4, 15134, Note_on_c, 1, 61, 0
4, 15136, Note_on_c, 1, 64, 59
4, 15166, Note_on_c, 1, 64, 0
4, 15168, Note_on_c, 1, 52, 59
4, 15198, Note_on_c, 1, 52, 0
4, 15200, Note_on_c, 1, 59, 58
4, 15230, Note_on_c, 1, 59, 0
4, 15232, Note_on_c, 1, 62, 58
4, 15262, Note_on_c, 1, 62, 0
4, 15264, Note_on_c, 1, 52, 58
4, 15294, Note_on_c, 1, 52, 0
4, 15296, Note_on_c, 1, 59, 58
4, 15326, Note_on_c, 1, 59, 0
4, 15328, Note_on_c, 1, 62, 58
4, 15358, Note_on_c, 1, 62, 0
4, 15360, Note_on_c, 1, 57, 58
4, 15390, Note_on_c, 1, 57, 0
4, 15392, Note_on_c, 1, 61, 58
4, 15422, Note_on_c, 1, 61, 0
4, 15424, Note_on_c, 1, 64, 58
4, 15454, Note_on_c, 1, 64, 0
4, 15456, Note_on_c, 1, 57, 58
4, 15486, Note_on_c, 1, 57, 0
4, 15488, Note_on_c, 1, 61, 58
4, 15518, Note_on_c, 1, 61, 0
4, 15520, Note_on_c, 1, 64, 58
4, 15550, Note_on_c, 1, 64, 0
4, 15552, Note_on_c, 1, 57, 58
4, 15582, Note_on_c, 1, 57, 0
4, 15584, Note_on_c, 1, 61, 58
4, 15614, Note_on_c, 1, 61, 0
4, 15616, Note_on_c, 1, 64, 58
4, 15646, Note_on_c, 1, 64, 0
4, 15648, Note_on_c, 1, 57, 58
4, 15678, Note_on_c, 1, 57, 0
4, 15680, Note_on_c, 1, 61, 58
4, 15710, Note_on_c, 1, 61, 0
4, 15712, Note_on_c, 1, 64, 58
4, 15742, Note_on_c, 1, 64, 0
4, 15744, Note_on_c, 1, 57, 58
4, 15833, Note_on_c, 1, 57, 0
4, 16560, Note_on_c, 1, 49, 80
4, 16583, Note_on_c, 1, 49, 0
4, 16584, Note_on_c, 1, 50, 80
4, 16607, Note_on_c, 1, 50, 0
4, 16608, Note_on_c, 1, 38, 80
4, 16697, Note_on_c, 1, 38, 0
4, 16752, Note_on_c, 1, 44, 80
4, 16775, Note_on_c, 1, 44, 0
4, 16776, Note_on_c, 1, 45, 80
4, 16799, Note_on_c, 1, 45, 0
4, 16800, Note_on_c, 1, 33, 80
4, 16889, Note_on_c, 1, 33, 0
4, 16968, Note_on_c, 1, 49, 80
4, 16991, Note_on_c, 1, 49, 0
4, 16992, Note_on_c, 1, 50, 80
4, 17037, Note_on_c, 1, 50, 0
4, 17040, Note_on_c, 1, 45, 80
4, 17063, Note_on_c, 1, 45, 0
4, 17064, Note_on_c, 1, 42, 80
4, 17087, Note_on_c, 1, 42, 0
4, 17088, Note_on_c, 1, 38, 80
4, 17177, Note_on_c, 1, 38, 0
4, 17376, Note_on_c, 1, 62, 64
4, 17641, Note_on_c, 1, 62, 0
4, 17664, Note_on_c, 1, 61, 64
4, 17753, Note_on_c, 1, 61, 0
4, 17760, Note_on_c, 1, 62, 64
4, 17849, Note_on_c, 1, 62, 0
4, 17856, Note_on_c, 1, 64, 64
4, 17945, Note_on_c, 1, 64, 0
4, 18072, Note_on_c, 1, 50, 80
4, 18095, Note_on_c, 1, 50, 0
4, 18096, Note_on_c, 1, 45, 80
4, 18119, Note_on_c, 1, 45, 0
4, 18120, Note_on_c, 1, 42, 80
4, 18143, Note_on_c, 1, 42, 0
4, 18144, Note_on_c, 1, 38, 80
4, 18189, Note_on_c, 1, 38, 0
4, 18264, Note_on_c, 1, 45, 80
4, 18287, Note_on_c, 1, 45, 0
4, 18288, Note_on_c, 1, 40, 80
4, 18311, Note_on_c, 1, 40, 0
4, 18312, Note_on_c, 1, 37, 80
4, 18335, Note_on_c, 1, 37, 0
4, 18336, Note_on_c, 1, 33, 80
4, 18381, Note_on_c, 1, 33, 0
4, 18456, Note_on_c, 1, 38, 80
4, 18479, Note_on_c, 1, 38, 0
4, 18480, Note_on_c, 1, 40, 80
4, 18503, Note_on_c, 1, 40, 0
4, 18504, Note_on_c, 1, 42, 80
4, 18527, Note_on_c, 1, 42, 0
4, 18528, Note_on_c, 1, 43, 80
4, 18551, Note_on_c, 1, 43, 0
4, 18552, Note_on_c, 1, 45, 80
4, 18575, Note_on_c, 1, 45, 0
4, 18576, Note_on_c, 1, 47, 80
4, 18599, Note_on_c, 1, 47, 0
4, 18600, Note_on_c, 1, 49, 80
4, 18623, Note_on_c, 1, 49, 0
4, 18624, Note_on_c, 1, 50, 80
4, 18713, Note_on_c, 1, 50, 0
4, 18816, Note_on_c, 1, 66, 64
4, 18861, Note_on_c, 1, 66, 0
4, 18864, Note_on_c, 1, 62, 64
4, 18909, Note_on_c, 1, 62, 0
4, 18912, Note_on_c, 1, 66, 64
4, 18957, Note_on_c, 1, 66, 0
4, 18960, Note_on_c, 1, 62, 64
4, 19005, Note_on_c, 1, 62, 0
4, 19008, Note_on_c, 1, 67, 64
4, 19053, Note_on_c, 1, 67, 0
4, 19056, Note_on_c, 1, 62, 64
4, 19101, Note_on_c, 1, 62, 0
4, 19104, Note_on_c, 1, 67, 64
4, 19149, Note_on_c, 1, 67, 0
4, 19152, Note_on_c, 1, 62, 64
4, 19197, Note_on_c, 1, 62, 0
4, 19200, Note_on_c, 1, 66, 64
4, 19289, Note_on_c, 1, 66, 0
4, 19440, Note_on_c, 1, 66, 64
4, 19463, Note_on_c, 1, 66, 0
4, 19464, Note_on_c, 1, 64, 64
4, 19487, Note_on_c, 1, 64, 0
4, 19488, Note_on_c, 1, 62, 64
4, 19511, Note_on_c, 1, 62, 0
4, 19512, Note_on_c, 1, 61, 64
4, 19535, Note_on_c, 1, 61, 0
4, 19536, Note_on_c, 1, 59, 64
4, 19559, Note_on_c, 1, 59, 0
4, 19560, Note_on_c, 1, 57, 64
4, 19583, Note_on_c, 1, 57, 0
4, 19584, Note_on_c, 1, 55, 64
4, 19673, Note_on_c, 1, 55, 0
4, 19872, Note_on_c, 1, 65, 80
4, 19872, Note_on_c, 1, 62, 80
4, 19872, Note_on_c, 1, 59, 80
4, 19872, Note_on_c, 1, 56, 80
4, 19961, Note_on_c, 1, 65, 0
4, 19961, Note_on_c, 1, 62, 0
4, 19961, Note_on_c, 1, 59, 0
4, 19961, Note_on_c, 1, 56, 0
4, 19968, Note_on_c, 1, 57, 70
4, 19998, Note_on_c, 1, 57, 0
4, 20000, Note_on_c, 1, 62, 70
4, 20030, Note_on_c, 1, 62, 0
4, 20032, Note_on_c, 1, 66, 70
4, 20062, Note_on_c, 1, 66, 0
4, 20064, Note_on_c, 1, 57, 70
4, 20094, Note_on_c, 1, 57, 0
4, 20096, Note_on_c, 1, 62, 70
4, 20126, Note_on_c, 1, 62, 0
4, 20128, Note_on_c, 1, 66, 70
4, 20158, Note_on_c, 1, 66, 0
4, 20160, Note_on_c, 1, 57, 70
4, 20190, Note_on_c, 1, 57, 0
4, 20192, Note_on_c, 1, 61, 69
4, 20222, Note_on_c, 1, 61, 0
4, 20224, Note_on_c, 1, 67, 68
4, 20254, Note_on_c, 1, 67, 0
4, 20256, Note_on_c, 1, 57, 67
4, 20286, Note_on_c, 1, 57, 0
4, 20288, Note_on_c, 1, 61, 66
4, 20318, Note_on_c, 1, 61, 0
4, 20320, Note_on_c, 1, 67, 65
4, 20350, Note_on_c, 1, 67, 0
4, 20352, Note_on_c, 1, 62, 65
4, 20382, Note_on_c, 1, 62, 0
4, 20384, Note_on_c, 1, 65, 64
4, 20414, Note_on_c, 1, 65, 0
4, 20416, Note_on_c, 1, 69, 64
4, 20446, Note_on_c, 1, 69, 0
4, 20448, Note_on_c, 1, 62, 64
4, 20478, Note_on_c, 1, 62, 0
4, 20480, Note_on_c, 1, 65, 64
4, 20510, Note_on_c, 1, 65, 0
4, 20512, Note_on_c, 1, 69, 64
4, 20542, Note_on_c, 1, 69, 0
4, 20544, Note_on_c, 1, 61, 64
4, 20574, Note_on_c, 1, 61, 0
4, 20576, Note_on_c, 1, 64, 64
4, 20606, Note_on_c, 1, 64, 0
4, 20608, Note_on_c, 1, 69, 64
4, 20638, Note_on_c, 1, 69, 0
4, 20640, Note_on_c, 1, 61, 64
4, 20670, Note_on_c, 1, 61, 0
4, 20672, Note_on_c, 1, 64, 64
4, 20702, Note_on_c, 1, 64, 0
4, 20704, Note_on_c, 1, 69, 64
4, 20734, Note_on_c, 1, 69, 0
4, 20736, Note_on_c, 1, 62, 64
4, 20766, Note_on_c, 1, 62, 0
4, 20768, Note_on_c, 1, 65, 64
4, 20798, Note_on_c, 1, 65, 0
4, 20800, Note_on_c, 1, 69, 64
4, 20830, Note_on_c, 1, 69, 0
4, 20832, Note_on_c, 1, 62, 64
4, 20862, Note_on_c, 1, 62, 0
4, 20864, Note_on_c, 1, 65, 64
4, 20894, Note_on_c, 1, 65, 0
4, 20896, Note_on_c, 1, 69, 64
4, 20926, Note_on_c, 1, 69, 0
4, 20928, Note_on_c, 1, 64, 64
4, 20958, Note_on_c, 1, 64, 0
4, 20960, Note_on_c, 1, 67, 64
4, 20990, Note_on_c, 1, 67, 0
4, 20992, Note_on_c, 1, 69, 64
4, 21022, Note_on_c, 1, 69, 0
4, 21024, Note_on_c, 1, 64, 64
4, 21054, Note_on_c, 1, 64, 0
4, 21056, Note_on_c, 1, 67, 64
4, 21086, Note_on_c, 1, 67, 0
4, 21088, Note_on_c, 1, 69, 64
4, 21118, Note_on_c, 1, 69, 0
4, 21120, Note_on_c, 1, 65, 64
4, 21150, Note_on_c, 1, 65, 0
4, 21152, Note_on_c, 1, 69, 64
4, 21182, Note_on_c, 1, 69, 0
4, 21184, Note_on_c, 1, 67, 64
4, 21214, Note_on_c, 1, 67, 0
4, 21216, Note_on_c, 1, 65, 64
4, 21246, Note_on_c, 1, 65, 0
4, 21248, Note_on_c, 1, 64, 64
4, 21278, Note_on_c, 1, 64, 0
4, 21280, Note_on_c, 1, 62, 64
4, 21310, Note_on_c, 1, 62, 0
4, 21312, Note_on_c, 1, 61, 64
4, 21342, Note_on_c, 1, 61, 0
4, 21344, Note_on_c, 1, 64, 64
4, 21374, Note_on_c, 1, 64, 0
4, 21376, Note_on_c, 1, 62, 64
4, 21406, Note_on_c, 1, 62, 0
4, 21408, Note_on_c, 1, 61, 64
4, 21438, Note_on_c, 1, 61, 0
4, 21440, Note_on_c, 1, 59, 64
4, 21470, Note_on_c, 1, 59, 0
4, 21472, Note_on_c, 1, 57, 64
4, 21502, Note_on_c, 1, 57, 0
4, 21504, Note_on_c, 1, 62, 64
4, 21534, Note_on_c, 1, 62, 0
4, 21536, Note_on_c, 1, 65, 64
4, 21566, Note_on_c, 1, 65, 0
4, 21568, Note_on_c, 1, 64, 64
4, 21598, Note_on_c, 1, 64, 0
4, 21600, Note_on_c, 1, 62, 64
4, 21630, Note_on_c, 1, 62, 0
4, 21632, Note_on_c, 1, 60, 64
4, 21662, Note_on_c, 1, 60, 0
4, 21664, Note_on_c, 1, 58, 64
4, 21694, Note_on_c, 1, 58, 0
4, 21696, Note_on_c, 1, 57, 65
4, 21726, Note_on_c, 1, 57, 0
4, 21728, Note_on_c, 1, 55, 65
4, 21758, Note_on_c, 1, 55, 0
4, 21760, Note_on_c, 1, 54, 66
4, 21790, Note_on_c, 1, 54, 0
4, 21792, Note_on_c, 1, 55, 66
4, 21822, Note_on_c, 1, 55, 0
4, 21824, Note_on_c, 1, 57, 67
4, 21854, Note_on_c, 1, 57, 0
4, 21856, Note_on_c, 1, 58, 67
4, 21886, Note_on_c, 1, 58, 0
4, 21888, Note_on_c, 1, 60, 67
4, 21918, Note_on_c, 1, 60, 0
4, 21920, Note_on_c, 1, 62, 68
4, 21950, Note_on_c, 1, 62, 0
4, 21952, Note_on_c, 1, 60, 68
4, 21982, Note_on_c, 1, 60, 0
4, 21984, Note_on_c, 1, 58, 69
4, 22014, Note_on_c, 1, 58, 0
4, 22016, Note_on_c, 1, 57, 69
4, 22046, Note_on_c, 1, 57, 0
4, 22048, Note_on_c, 1, 55, 70
4, 22078, Note_on_c, 1, 55, 0
4, 22080, Note_on_c, 1, 53, 70
4, 22110, Note_on_c, 1, 53, 0
4, 22112, Note_on_c, 1, 55, 71
4, 22142, Note_on_c, 1, 55, 0
4, 22144, Note_on_c, 1, 57, 71
4, 22174, Note_on_c, 1, 57, 0
4, 22176, Note_on_c, 1, 55, 71
4, 22206, Note_on_c, 1, 55, 0
4, 22208, Note_on_c, 1, 53, 72
4, 22238, Note_on_c, 1, 53, 0
4, 22240, Note_on_c, 1, 52, 72
4, 22270, Note_on_c, 1, 52, 0
4, 22272, Note_on_c, 1, 50, 73
4, 22302, Note_on_c, 1, 50, 0
4, 22304, Note_on_c, 1, 52, 73
4, 22334, Note_on_c, 1, 52, 0
4, 22336, Note_on_c, 1, 53, 74
4, 22366, Note_on_c, 1, 53, 0
4, 22368, Note_on_c, 1, 52, 74
4, 22398, Note_on_c, 1, 52, 0
4, 22400, Note_on_c, 1, 50, 75
4, 22430, Note_on_c, 1, 50, 0
4, 22432, Note_on_c, 1, 48, 75
4, 22462, Note_on_c, 1, 48, 0
4, 22464, Note_on_c, 1, 46, 75
4, 22494, Note_on_c, 1, 46, 0
4, 22496, Note_on_c, 1, 50, 76
4, 22526, Note_on_c, 1, 50, 0
4, 22528, Note_on_c, 1, 54, 76
4, 22558, Note_on_c, 1, 54, 0
4, 22560, Note_on_c, 1, 55, 77
4, 22590, Note_on_c, 1, 55, 0
4, 22592, Note_on_c, 1, 57, 77
4, 22622, Note_on_c, 1, 57, 0
4, 22624, Note_on_c, 1, 58, 78
4, 22654, Note_on_c, 1, 58, 0
4, 22656, Note_on_c, 1, 60, 78
4, 22686, Note_on_c, 1, 60, 0
4, 22688, Note_on_c, 1, 64, 80
4, 22718, Note_on_c, 1, 64, 0
4, 22720, Note_on_c, 1, 62, 80
4, 22750, Note_on_c, 1, 62, 0
4, 22752, Note_on_c, 1, 60, 80
4, 22782, Note_on_c, 1, 60, 0
4, 22784, Note_on_c, 1, 67, 80
4, 22814, Note_on_c, 1, 67, 0
4, 22816, Note_on_c, 1, 65, 80
4, 22846, Note_on_c, 1, 65, 0
4, 22848, Note_on_c, 1, 64, 80
4, 22878, Note_on_c, 1, 64, 0
4, 22880, Note_on_c, 1, 70, 80
4, 22910, Note_on_c, 1, 70, 0
4, 22912, Note_on_c, 1, 69, 80
4, 22942, Note_on_c, 1, 69, 0
4, 22944, Note_on_c, 1, 67, 80
4, 22974, Note_on_c, 1, 67, 0
4, 22976, Note_on_c, 1, 72, 80
4, 23006, Note_on_c, 1, 72, 0
4, 23008, Note_on_c, 1, 70, 80
4, 23038, Note_on_c, 1, 70, 0
4, 23040, Note_on_c, 1, 69, 80
4, 23070, Note_on_c, 1, 69, 0
4, 23072, Note_on_c, 1, 72, 80
4, 23102, Note_on_c, 1, 72, 0
4, 23104, Note_on_c, 1, 70, 80
4, 23134, Note_on_c, 1, 70, 0
4, 23136, Note_on_c, 1, 69, 80
4, 23166, Note_on_c, 1, 69, 0
4, 23168, Note_on_c, 1, 67, 80
4, 23198, Note_on_c, 1, 67, 0
4, 23200, Note_on_c, 1, 65, 80
4, 23230, Note_on_c, 1, 65, 0
4, 23232, Note_on_c, 1, 64, 80
4, 23262, Note_on_c, 1, 64, 0
4, 23264, Note_on_c, 1, 65, 80
4, 23294, Note_on_c, 1, 65, 0
4, 23296, Note_on_c, 1, 64, 80
4, 23326, Note_on_c, 1, 64, 0
4, 23328, Note_on_c, 1, 62, 80
4, 23358, Note_on_c, 1, 62, 0
4, 23360, Note_on_c, 1, 60, 80
4, 23390, Note_on_c, 1, 60, 0
4, 23392, Note_on_c, 1, 58, 80
4, 23422, Note_on_c, 1, 58, 0
4, 23424, Note_on_c, 1, 57, 80
4, 23513, Note_on_c, 1, 57, 0
4, 23712, Note_on_c, 1, 60, 75
4, 23712, Note_on_c, 1, 55, 75
4, 23712, Note_on_c, 1, 52, 75
4, 23801, Note_on_c, 1, 60, 0
4, 23801, Note_on_c, 1, 55, 0
4, 23801, Note_on_c, 1, 52, 0
4, 23808, Note_on_c, 1, 60, 75
4, 23808, Note_on_c, 1, 57, 75
4, 23808, Note_on_c, 1, 53, 75
4, 23897, Note_on_c, 1, 60, 0
4, 23897, Note_on_c, 1, 57, 0
4, 23897, Note_on_c, 1, 53, 0
4, 24096, Note_on_c, 1, 60, 75
4, 24096, Note_on_c, 1, 55, 75
4, 24096, Note_on_c, 1, 52, 75
4, 24185, Note_on_c, 1, 60, 0
4, 24185, Note_on_c, 1, 55, 0
4, 24185, Note_on_c, 1, 52, 0
4, 24192, Note_on_c, 1, 60, 75
4, 24192, Note_on_c, 1, 57, 75
4, 24192, Note_on_c, 1, 53, 75
4, 24281, Note_on_c, 1, 60, 0
4, 24281, Note_on_c, 1, 57, 0
4, 24281, Note_on_c, 1, 53, 0
4, 24576, Note_on_c, 1, 46, 77
4, 24576, Note_on_c, 1, 34, 77
4, 24841, Note_on_c, 1, 46, 0
4, 24841, Note_on_c, 1, 34, 0
4, 24864, Note_on_c, 1, 47, 79
4, 24864, Note_on_c, 1, 35, 79
4, 24953, Note_on_c, 1, 47, 0
4, 24953, Note_on_c, 1, 35, 0
4, 24960, Note_on_c, 1, 48, 86
4, 24960, Note_on_c, 1, 36, 86
4, 25049, Note_on_c, 1, 48, 0
4, 25049, Note_on_c, 1, 36, 0
4, 25056, Note_on_c, 1, 49, 86
4, 25056, Note_on_c, 1, 37, 86
4, 25145, Note_on_c, 1, 49, 0
4, 25145, Note_on_c, 1, 37, 0
4, 25152, Note_on_c, 1, 48, 80
4, 25152, Note_on_c, 1, 36, 80
4, 25329, Note_on_c, 1, 48, 0
4, 25329, Note_on_c, 1, 36, 0
4, 25344, Note_on_c, 1, 53, 71
4, 25374, Note_on_c, 1, 53, 0
4, 25376, Note_on_c, 1, 57, 70
4, 25406, Note_on_c, 1, 57, 0
4, 25408, Note_on_c, 1, 60, 70
4, 25438, Note_on_c, 1, 60, 0
4, 25440, Note_on_c, 1, 53, 70
4, 25470, Note_on_c, 1, 53, 0
4, 25472, Note_on_c, 1, 57, 70
4, 25502, Note_on_c, 1, 57, 0
4, 25504, Note_on_c, 1, 60, 70
4, 25534, Note_on_c, 1, 60, 0
4, 25536, Note_on_c, 1, 53, 70
4, 25566, Note_on_c, 1, 53, 0
4, 25568, Note_on_c, 1, 57, 70
4, 25598, Note_on_c, 1, 57, 0
4, 25600, Note_on_c, 1, 60, 70
4, 25630, Note_on_c, 1, 60, 0
4, 25632, Note_on_c, 1, 53, 70
4, 25662, Note_on_c, 1, 53, 0
4, 25664, Note_on_c, 1, 57, 70
4, 25694, Note_on_c, 1, 57, 0
4, 25696, Note_on_c, 1, 60, 70
4, 25726, Note_on_c, 1, 60, 0
4, 25728, Note_on_c, 1, 52, 70
4, 25758, Note_on_c, 1, 52, 0
4, 25760, Note_on_c, 1, 58, 70
4, 25790, Note_on_c, 1, 58, 0
4, 25792, Note_on_c, 1, 60, 70
4, 25822, Note_on_c, 1, 60, 0
4, 25824, Note_on_c, 1, 52, 70
4, 25854, Note_on_c, 1, 52, 0
4, 25856, Note_on_c, 1, 58, 70
4, 25886, Note_on_c, 1, 58, 0
4, 25888, Note_on_c, 1, 60, 70
4, 25918, Note_on_c, 1, 60, 0
4, 25920, Note_on_c, 1, 52, 70
4, 25950, Note_on_c, 1, 52, 0
4, 25952, Note_on_c, 1, 58, 70
4, 25982, Note_on_c, 1, 58, 0
4, 25984, Note_on_c, 1, 60, 70
4, 26014, Note_on_c, 1, 60, 0
4, 26016, Note_on_c, 1, 52, 70
4, 26046, Note_on_c, 1, 52, 0
4, 26048, Note_on_c, 1, 58, 70
4, 26078, Note_on_c, 1, 58, 0
4, 26080, Note_on_c, 1, 60, 70
4, 26110, Note_on_c, 1, 60, 0
4, 26112, Note_on_c, 1, 53, 70
4, 26142, Note_on_c, 1, 53, 0
4, 26144, Note_on_c, 1, 57, 70
4, 26174, Note_on_c, 1, 57, 0
4, 26176, Note_on_c, 1, 60, 70
4, 26206, Note_on_c, 1, 60, 0
4, 26208, Note_on_c, 1, 53, 71
4, 26238, Note_on_c, 1, 53, 0
4, 26240, Note_on_c, 1, 57, 71
4, 26270, Note_on_c, 1, 57, 0
4, 26272, Note_on_c, 1, 60, 72
4, 26302, Note_on_c, 1, 60, 0
4, 26304, Note_on_c, 1, 53, 72
4, 26334, Note_on_c, 1, 53, 0
4, 26336, Note_on_c, 1, 57, 73
4, 26366, Note_on_c, 1, 57, 0
4, 26368, Note_on_c, 1, 60, 73
4, 26398, Note_on_c, 1, 60, 0
4, 26400, Note_on_c, 1, 53, 74
4, 26430, Note_on_c, 1, 53, 0
4, 26432, Note_on_c, 1, 57, 75
4, 26462, Note_on_c, 1, 57, 0
4, 26464, Note_on_c, 1, 60, 75
4, 26494, Note_on_c, 1, 60, 0
4, 26496, Note_on_c, 1, 54, 75
4, 26526, Note_on_c, 1, 54, 0
4, 26528, Note_on_c, 1, 57, 75
4, 26558, Note_on_c, 1, 57, 0
4, 26560, Note_on_c, 1, 60, 75
4, 26590, Note_on_c, 1, 60, 0
4, 26592, Note_on_c, 1, 54, 75
4, 26622, Note_on_c, 1, 54, 0
4, 26624, Note_on_c, 1, 57, 74
4, 26654, Note_on_c, 1, 57, 0
4, 26656, Note_on_c, 1, 60, 73
4, 26686, Note_on_c, 1, 60, 0
4, 26688, Note_on_c, 1, 54, 73
4, 26718, Note_on_c, 1, 54, 0
4, 26720, Note_on_c, 1, 57, 72
4, 26750, Note_on_c, 1, 57, 0
4, 26752, Note_on_c, 1, 62, 72
4, 26782, Note_on_c, 1, 62, 0
4, 26784, Note_on_c, 1, 54, 71
4, 26814, Note_on_c, 1, 54, 0
4, 26816, Note_on_c, 1, 57, 71
4, 26846, Note_on_c, 1, 57, 0
4, 26848, Note_on_c, 1, 62, 70
4, 26878, Note_on_c, 1, 62, 0
4, 26880, Note_on_c, 1, 55, 70
4, 26910, Note_on_c, 1, 55, 0
4, 26912, Note_on_c, 1, 58, 70
4, 26942, Note_on_c, 1, 58, 0
4, 26944, Note_on_c, 1, 62, 71
4, 26974, Note_on_c, 1, 62, 0
4, 26976, Note_on_c, 1, 55, 72
4, 27006, Note_on_c, 1, 55, 0
4, 27008, Note_on_c, 1, 58, 73
4, 27038, Note_on_c, 1, 58, 0
4, 27040, Note_on_c, 1, 62, 74
4, 27070, Note_on_c, 1, 62, 0
4, 27072, Note_on_c, 1, 55, 75
4, 27102, Note_on_c, 1, 55, 0
4, 27104, Note_on_c, 1, 58, 76
4, 27134, Note_on_c, 1, 58, 0
4, 27136, Note_on_c, 1, 62, 77
4, 27166, Note_on_c, 1, 62, 0
4, 27168, Note_on_c, 1, 55, 78
4, 27198, Note_on_c, 1, 55, 0
4, 27200, Note_on_c, 1, 58, 80
4, 27230, Note_on_c, 1, 58, 0
4, 27232, Note_on_c, 1, 62, 80
4, 27262, Note_on_c, 1, 62, 0
4, 27264, Note_on_c, 1, 56, 80
4, 27294, Note_on_c, 1, 56, 0
4, 27296, Note_on_c, 1, 59, 80
4, 27326, Note_on_c, 1, 59, 0
4, 27328, Note_on_c, 1, 62, 80
4, 27358, Note_on_c, 1, 62, 0
4, 27360, Note_on_c, 1, 56, 80
4, 27390, Note_on_c, 1, 56, 0
4, 27392, Note_on_c, 1, 59, 80
4, 27422, Note_on_c, 1, 59, 0
4, 27424, Note_on_c, 1, 62, 80
4, 27454, Note_on_c, 1, 62, 0
4, 27456, Note_on_c, 1, 56, 80
4, 27486, Note_on_c, 1, 56, 0
4, 27488, Note_on_c, 1, 59, 80
4, 27518, Note_on_c, 1, 59, 0
4, 27520, Note_on_c, 1, 62, 80
4, 27550, Note_on_c, 1, 62, 0
4, 27552, Note_on_c, 1, 56, 80
4, 27582, Note_on_c, 1, 56, 0
4, 27584, Note_on_c, 1, 62, 80
4, 27614, Note_on_c, 1, 62, 0
4, 27616, Note_on_c, 1, 65, 80
4, 27646, Note_on_c, 1, 65, 0
4, 27648, Note_on_c, 1, 57, 80
4, 27678, Note_on_c, 1, 57, 0
4, 27680, Note_on_c, 1, 61, 80
4, 27710, Note_on_c, 1, 61, 0
4, 27712, Note_on_c, 1, 64, 80
4, 27742, Note_on_c, 1, 64, 0
4, 27744, Note_on_c, 1, 57, 80
4, 27774, Note_on_c, 1, 57, 0
4, 27776, Note_on_c, 1, 61, 78
4, 27806, Note_on_c, 1, 61, 0
4, 27808, Note_on_c, 1, 64, 77
4, 27838, Note_on_c, 1, 64, 0
4, 27840, Note_on_c, 1, 57, 76
4, 27870, Note_on_c, 1, 57, 0
4, 27872, Note_on_c, 1, 62, 75
4, 27902, Note_on_c, 1, 62, 0
4, 27904, Note_on_c, 1, 65, 74
4, 27934, Note_on_c, 1, 65, 0
4, 27936, Note_on_c, 1, 57, 73
4, 27966, Note_on_c, 1, 57, 0
4, 27968, Note_on_c, 1, 62, 71
4, 27998, Note_on_c, 1, 62, 0
4, 28000, Note_on_c, 1, 65, 70
4, 28030, Note_on_c, 1, 65, 0
4, 28032, Note_on_c, 1, 57, 69
4, 28062, Note_on_c, 1, 57, 0
4, 28064, Note_on_c, 1, 61, 68
4, 28094, Note_on_c, 1, 61, 0
4, 28096, Note_on_c, 1, 64, 67
4, 28126, Note_on_c, 1, 64, 0
4, 28128, Note_on_c, 1, 57, 66
4, 28158, Note_on_c, 1, 57, 0
4, 28160, Note_on_c, 1, 61, 64
4, 28190, Note_on_c, 1, 61, 0
4, 28192, Note_on_c, 1, 64, 64
4, 28222, Note_on_c, 1, 64, 0
4, 28224, Note_on_c, 1, 57, 64
4, 28254, Note_on_c, 1, 57, 0
4, 28256, Note_on_c, 1, 62, 64
4, 28286, Note_on_c, 1, 62, 0
4, 28288, Note_on_c, 1, 65, 64
4, 28318, Note_on_c, 1, 65, 0
4, 28320, Note_on_c, 1, 57, 64
4, 28350, Note_on_c, 1, 57, 0
4, 28352, Note_on_c, 1, 62, 64
4, 28382, Note_on_c, 1, 62, 0
4, 28384, Note_on_c, 1, 65, 64
4, 28414, Note_on_c, 1, 65, 0
4, 28416, Note_on_c, 1, 57, 64
4, 28446, Note_on_c, 1, 57, 0
4, 28448, Note_on_c, 1, 61, 64
4, 28478, Note_on_c, 1, 61, 0
4, 28480, Note_on_c, 1, 64, 64
4, 28510, Note_on_c, 1, 64, 0
4, 28512, Note_on_c, 1, 57, 64
4, 28542, Note_on_c, 1, 57, 0
4, 28544, Note_on_c, 1, 61, 64
4, 28574, Note_on_c, 1, 61, 0
4, 28576, Note_on_c, 1, 64, 65
4, 28606, Note_on_c, 1, 64, 0
4, 28608, Note_on_c, 1, 57, 65
4, 28638, Note_on_c, 1, 57, 0
4, 28640, Note_on_c, 1, 62, 66
4, 28670, Note_on_c, 1, 62, 0
4, 28672, Note_on_c, 1, 65, 66
4, 28702, Note_on_c, 1, 65, 0
4, 28704, Note_on_c, 1, 57, 67
4, 28734, Note_on_c, 1, 57, 0
4, 28736, Note_on_c, 1, 59, 68
4, 28766, Note_on_c, 1, 59, 0
4, 28768, Note_on_c, 1, 62, 68
4, 28798, Note_on_c, 1, 62, 0
4, 28800, Note_on_c, 1, 57, 69
4, 28830, Note_on_c, 1, 57, 0
4, 28832, Note_on_c, 1, 61, 69
4, 28862, Note_on_c, 1, 61, 0
4, 28864, Note_on_c, 1, 64, 70
4, 28894, Note_on_c, 1, 64, 0
4, 28896, Note_on_c, 1, 57, 70
4, 28926, Note_on_c, 1, 57, 0
4, 28928, Note_on_c, 1, 63, 71
4, 28958, Note_on_c, 1, 63, 0
4, 28960, Note_on_c, 1, 66, 72
4, 28990, Note_on_c, 1, 66, 0
4, 28992, Note_on_c, 1, 57, 72
4, 29022, Note_on_c, 1, 57, 0
4, 29024, Note_on_c, 1, 64, 73
4, 29054, Note_on_c, 1, 64, 0
4, 29056, Note_on_c, 1, 67, 73
4, 29086, Note_on_c, 1, 67, 0
4, 29088, Note_on_c, 1, 57, 74
4, 29118, Note_on_c, 1, 57, 0
4, 29120, Note_on_c, 1, 63, 74
4, 29150, Note_on_c, 1, 63, 0
4, 29152, Note_on_c, 1, 66, 75
4, 29182, Note_on_c, 1, 66, 0
4, 29184, Note_on_c, 1, 57, 76
4, 29214, Note_on_c, 1, 57, 0
4, 29216, Note_on_c, 1, 64, 76
4, 29246, Note_on_c, 1, 64, 0
4, 29248, Note_on_c, 1, 67, 77
4, 29278, Note_on_c, 1, 67, 0
4, 29280, Note_on_c, 1, 57, 77
4, 29310, Note_on_c, 1, 57, 0
4, 29312, Note_on_c, 1, 63, 78
4, 29342, Note_on_c, 1, 63, 0
4, 29344, Note_on_c, 1, 66, 78
4, 29374, Note_on_c, 1, 66, 0
4, 29376, Note_on_c, 1, 57, 79
4, 29406, Note_on_c, 1, 57, 0
4, 29408, Note_on_c, 1, 64, 80
4, 29438, Note_on_c, 1, 64, 0
4, 29440, Note_on_c, 1, 67, 80
4, 29470, Note_on_c, 1, 67, 0
4, 29472, Note_on_c, 1, 57, 81
4, 29502, Note_on_c, 1, 57, 0
4, 29504, Note_on_c, 1, 63, 81
4, 29534, Note_on_c, 1, 63, 0
4, 29536, Note_on_c, 1, 66, 82
4, 29566, Note_on_c, 1, 66, 0
4, 29568, Note_on_c, 1, 57, 82
4, 29568, Note_on_c, 1, 61, 82
4, 29568, Note_on_c, 1, 64, 82
4, 29568, Note_on_c, 1, 67, 82
4, 29613, Note_on_c, 1, 67, 0
4, 29613, Note_on_c, 1, 64, 0
4, 29613, Note_on_c, 1, 61, 0
4, 29613, Note_on_c, 1, 57, 0
4, 29664, Control_c, 1, 64, 127
4, 29696, Note_on_c, 1, 67, 86
4, 29726, Note_on_c, 1, 67, 0
4, 29728, Note_on_c, 1, 64, 86
4, 29758, Note_on_c, 1, 64, 0
4, 29760, Note_on_c, 1, 61, 86
4, 29790, Note_on_c, 1, 61, 0
4, 29792, Note_on_c, 1, 57, 86
4, 29822, Note_on_c, 1, 57, 0
4, 29824, Note_on_c, 1, 55, 86
4, 29854, Note_on_c, 1, 55, 0
4, 29856, Note_on_c, 1, 52, 86
4, 29886, Note_on_c, 1, 52, 0
4, 29888, Note_on_c, 1, 49, 86
4, 29918, Note_on_c, 1, 49, 0
4, 29920, Note_on_c, 1, 45, 86
4, 29950, Note_on_c, 1, 45, 0
4, 29952, Control_c, 1, 64, 0
4, 29952, Note_on_c, 1, 33, 86
4, 29982, Note_on_c, 1, 33, 0
4, 29984, Note_on_c, 1, 37, 86
4, 30014, Note_on_c, 1, 37, 0
4, 30016, Note_on_c, 1, 40, 86
4, 30046, Note_on_c, 1, 40, 0
4, 30048, Note_on_c, 1, 45, 86
4, 30078, Note_on_c, 1, 45, 0
4, 30080, Note_on_c, 1, 49, 86
4, 30110, Note_on_c, 1, 49, 0
4, 30112, Note_on_c, 1, 52, 86
4, 30142, Note_on_c, 1, 52, 0
4, 30144, Note_on_c, 1, 55, 86
4, 30174, Note_on_c, 1, 55, 0
4, 30176, Note_on_c, 1, 59, 86
4, 30206, Note_on_c, 1, 59, 0
4, 30208, Note_on_c, 1, 57, 86
4, 30238, Note_on_c, 1, 57, 0
4, 30240, Note_on_c, 1, 55, 86
4, 30270, Note_on_c, 1, 55, 0
4, 30272, Note_on_c, 1, 54, 86
4, 30302, Note_on_c, 1, 54, 0
4, 30304, Note_on_c, 1, 52, 86
4, 30334, Note_on_c, 1, 52, 0
4, 30384, Note_on_c, 1, 49, 80
4, 30407, Note_on_c, 1, 49, 0
4, 30408, Note_on_c, 1, 50, 80
4, 30431, Note_on_c, 1, 50, 0
4, 30432, Note_on_c, 1, 38, 80
4, 30521, Note_on_c, 1, 38, 0
4, 30576, Note_on_c, 1, 44, 80
4, 30599, Note_on_c, 1, 44, 0
4, 30600, Note_on_c, 1, 45, 80
4, 30623, Note_on_c, 1, 45, 0
4, 30624, Note_on_c, 1, 33, 80
4, 30713, Note_on_c, 1, 33, 0
4, 30792, Note_on_c, 1, 49, 80
4, 30815, Note_on_c, 1, 49, 0
4, 30816, Note_on_c, 1, 50, 80
4, 30861, Note_on_c, 1, 50, 0
4, 30864, Note_on_c, 1, 45, 80
4, 30887, Note_on_c, 1, 45, 0
4, 30888, Note_on_c, 1, 42, 80
4, 30911, Note_on_c, 1, 42, 0
4, 30912, Note_on_c, 1, 38, 80
4, 31001, Note_on_c, 1, 38, 0
4, 31200, Note_on_c, 1, 62, 64
4, 31465, Note_on_c, 1, 62, 0
4, 31488, Note_on_c, 1, 61, 64
4, 31577, Note_on_c, 1, 61, 0
4, 31584, Note_on_c, 1, 62, 64
4, 31673, Note_on_c, 1, 62, 0
4, 31680, Note_on_c, 1, 64, 64
4, 31769, Note_on_c, 1, 64, 0
4, 31896, Note_on_c, 1, 50, 80
4, 31919, Note_on_c, 1, 50, 0
4, 31920, Note_on_c, 1, 45, 80
4, 31943, Note_on_c, 1, 45, 0
4, 31944, Note_on_c, 1, 42, 80
4, 31967, Note_on_c, 1, 42, 0
4, 31968, Note_on_c, 1, 38, 80
4, 32013, Note_on_c, 1, 38, 0
4, 32088, Note_on_c, 1, 45, 80
4, 32111, Note_on_c, 1, 45, 0
4, 32112, Note_on_c, 1, 40, 80
4, 32135, Note_on_c, 1, 40, 0
4, 32136, Note_on_c, 1, 37, 80
4, 32159, Note_on_c, 1, 37, 0
4, 32160, Note_on_c, 1, 33, 80
4, 32205, Note_on_c, 1, 33, 0
4, 32280, Note_on_c, 1, 50, 80
4, 32303, Note_on_c, 1, 50, 0
4, 32304, Note_on_c, 1, 49, 80
4, 32327, Note_on_c, 1, 49, 0
4, 32328, Note_on_c, 1, 47, 80
4, 32351, Note_on_c, 1, 47, 0
4, 32352, Note_on_c, 1, 45, 80
4, 32375, Note_on_c, 1, 45, 0
4, 32376, Note_on_c, 1, 43, 80
4, 32399, Note_on_c, 1, 43, 0
4, 32400, Note_on_c, 1, 42, 80
4, 32423, Note_on_c, 1, 42, 0
4, 32424, Note_on_c, 1, 40, 80
4, 32447, Note_on_c, 1, 40, 0
4, 32448, Note_on_c, 1, 38, 80
4, 32537, Note_on_c, 1, 38, 0
4, 32640, Note_on_c, 1, 50, 64
4, 32663, Note_on_c, 1, 50, 0
4, 32664, Note_on_c, 1, 54, 64
4, 32687, Note_on_c, 1, 54, 0
4, 32688, Note_on_c, 1, 57, 64
4, 32711, Note_on_c, 1, 57, 0
4, 32712, Note_on_c, 1, 62, 64
4, 32735, Note_on_c, 1, 62, 0
4, 32736, Note_on_c, 1, 66, 64
4, 32781, Note_on_c, 1, 66, 0
4, 32784, Note_on_c, 1, 62, 64
4, 32829, Note_on_c, 1, 62, 0
4, 32832, Note_on_c, 1, 67, 64
4, 32877, Note_on_c, 1, 67, 0
4, 32880, Note_on_c, 1, 62, 64
4, 32925, Note_on_c, 1, 62, 0
4, 32928, Note_on_c, 1, 67, 64
4, 32973, Note_on_c, 1, 67, 0
4, 32976, Note_on_c, 1, 62, 64
4, 33021, Note_on_c, 1, 62, 0
4, 33024, Note_on_c, 1, 66, 64
4, 33113, Note_on_c, 1, 66, 0
4, 33216, Note_on_c, 1, 54, 64
4, 33239, Note_on_c, 1, 54, 0
4, 33240, Note_on_c, 1, 55, 64
4, 33263, Note_on_c, 1, 55, 0
4, 33264, Note_on_c, 1, 57, 64
4, 33287, Note_on_c, 1, 57, 0
4, 33288, Note_on_c, 1, 59, 64
4, 33311, Note_on_c, 1, 59, 0
4, 33312, Note_on_c, 1, 61, 64
4, 33335, Note_on_c, 1, 61, 0
4, 33336, Note_on_c, 1, 62, 64
4, 33359, Note_on_c, 1, 62, 0
4, 33360, Note_on_c, 1, 64, 64
4, 33383, Note_on_c, 1, 64, 0
4, 33384, Note_on_c, 1, 66, 64
4, 33407, Note_on_c, 1, 66, 0
4, 33408, Note_on_c, 1, 67, 64
4, 33497, Note_on_c, 1, 67, 0
4, 33696, Note_on_c, 1, 65, 80
4, 33696, Note_on_c, 1, 62, 80
4, 33696, Note_on_c, 1, 59, 80
4, 33696, Note_on_c, 1, 56, 80
4, 33785, Note_on_c, 1, 65, 0
4, 33785, Note_on_c, 1, 62, 0
4, 33785, Note_on_c, 1, 59, 0
4, 33785, Note_on_c, 1, 56, 0
4, 33792, Note_on_c, 1, 57, 70
4, 33822, Note_on_c, 1, 57, 0
4, 33824, Note_on_c, 1, 62, 70
4, 33854, Note_on_c, 1, 62, 0
4, 33856, Note_on_c, 1, 66, 70
4, 33886, Note_on_c, 1, 66, 0
4, 33888, Note_on_c, 1, 57, 80
4, 33918, Note_on_c, 1, 57, 0
4, 33920, Note_on_c, 1, 62, 78
4, 33950, Note_on_c, 1, 62, 0
4, 33952, Note_on_c, 1, 66, 76
4, 33982, Note_on_c, 1, 66, 0
4, 33984, Note_on_c, 1, 57, 75
4, 34014, Note_on_c, 1, 57, 0
4, 34016, Note_on_c, 1, 61, 73
4, 34046, Note_on_c, 1, 61, 0
4, 34048, Note_on_c, 1, 67, 72
4, 34078, Note_on_c, 1, 67, 0
4, 34080, Note_on_c, 1, 57, 70
4, 34110, Note_on_c, 1, 57, 0
4, 34112, Note_on_c, 1, 61, 69
4, 34142, Note_on_c, 1, 61, 0
4, 34144, Note_on_c, 1, 67, 67
4, 34174, Note_on_c, 1, 67, 0
4, 34176, Note_on_c, 1, 62, 66
4, 34206, Note_on_c, 1, 62, 0
4, 34208, Note_on_c, 1, 66, 64
4, 34238, Note_on_c, 1, 66, 0
4, 34240, Note_on_c, 1, 69, 64
4, 34270, Note_on_c, 1, 69, 0
4, 34272, Note_on_c, 1, 62, 64
4, 34302, Note_on_c, 1, 62, 0
4, 34304, Note_on_c, 1, 66, 64
4, 34334, Note_on_c, 1, 66, 0
4, 34336, Note_on_c, 1, 69, 64
4, 34366, Note_on_c, 1, 69, 0
4, 34368, Note_on_c, 1, 61, 64
4, 34398, Note_on_c, 1, 61, 0
4, 34400, Note_on_c, 1, 67, 64
4, 34430, Note_on_c, 1, 67, 0
4, 34432, Note_on_c, 1, 69, 64
4, 34462, Note_on_c, 1, 69, 0
4, 34464, Note_on_c, 1, 61, 64
4, 34494, Note_on_c, 1, 61, 0
4, 34496, Note_on_c, 1, 67, 64
4, 34526, Note_on_c, 1, 67, 0
4, 34528, Note_on_c, 1, 69, 64
4, 34558, Note_on_c, 1, 69, 0
4, 34560, Note_on_c, 1, 62, 64
4, 34590, Note_on_c, 1, 62, 0
4, 34592, Note_on_c, 1, 66, 64
4, 34622, Note_on_c, 1, 66, 0
4, 34624, Note_on_c, 1, 69, 64
4, 34654, Note_on_c, 1, 69, 0
4, 34656, Note_on_c, 1, 62, 64
4, 34686, Note_on_c, 1, 62, 0
4, 34688, Note_on_c, 1, 66, 64
4, 34718, Note_on_c, 1, 66, 0
4, 34720, Note_on_c, 1, 69, 64
4, 34750, Note_on_c, 1, 69, 0
4, 34752, Note_on_c, 1, 61, 64
4, 34782, Note_on_c, 1, 61, 0
4, 34784, Note_on_c, 1, 67, 64
4, 34814, Note_on_c, 1, 67, 0
4, 34816, Note_on_c, 1, 69, 64
4, 34846, Note_on_c, 1, 69, 0
4, 34848, Note_on_c, 1, 61, 64
4, 34878, Note_on_c, 1, 61, 0
4, 34880, Note_on_c, 1, 67, 64
4, 34910, Note_on_c, 1, 67, 0
4, 34912, Note_on_c, 1, 69, 64
4, 34942, Note_on_c, 1, 69, 0
4, 34944, Note_on_c, 1, 62, 64
4, 34974, Note_on_c, 1, 62, 0
4, 34976, Note_on_c, 1, 66, 64
4, 35006, Note_on_c, 1, 66, 0
4, 35008, Note_on_c, 1, 69, 64
4, 35038, Note_on_c, 1, 69, 0
4, 35040, Note_on_c, 1, 62, 64
4, 35070, Note_on_c, 1, 62, 0
4, 35072, Note_on_c, 1, 66, 64
4, 35102, Note_on_c, 1, 66, 0
4, 35104, Note_on_c, 1, 69, 64
4, 35134, Note_on_c, 1, 69, 0
4, 35136, Note_on_c, 1, 61, 64
4, 35166, Note_on_c, 1, 61, 0
4, 35168, Note_on_c, 1, 67, 64
4, 35198, Note_on_c, 1, 67, 0
4, 35200, Note_on_c, 1, 69, 64
4, 35230, Note_on_c, 1, 69, 0
4, 35232, Note_on_c, 1, 61, 64
4, 35262, Note_on_c, 1, 61, 0
4, 35264, Note_on_c, 1, 67, 64
4, 35294, Note_on_c, 1, 67, 0
4, 35296, Note_on_c, 1, 69, 64
4, 35326, Note_on_c, 1, 69, 0
4, 35328, Note_on_c, 1, 62, 64
4, 35417, Note_on_c, 1, 62, 0
4, 35616, Note_on_c, 1, 57, 69
4, 35616, Note_on_c, 1, 55, 69
4, 35616, Note_on_c, 1, 52, 69
4, 35616, Note_on_c, 1, 49, 69
4, 35705, Note_on_c, 1, 57, 0
4, 35705, Note_on_c, 1, 55, 0
4, 35705, Note_on_c, 1, 52, 0
4, 35705, Note_on_c, 1, 49, 0
4, 35712, Note_on_c, 1, 57, 71
4, 35712, Note_on_c, 1, 54, 71
4, 35712, Note_on_c, 1, 50, 71
4, 35801, Note_on_c, 1, 57, 0
4, 35801, Note_on_c, 1, 54, 0
4, 35801, Note_on_c, 1, 50, 0
4, 36000, Note_on_c, 1, 57, 76
4, 36000, Note_on_c, 1, 55, 76
4, 36000, Note_on_c, 1, 52, 76
4, 36000, Note_on_c, 1, 49, 76
4, 36089, Note_on_c, 1, 57, 0
4, 36089, Note_on_c, 1, 55, 0
4, 36089, Note_on_c, 1, 52, 0
4, 36089, Note_on_c, 1, 49, 0
4, 36096, Note_on_c, 1, 57, 78
4, 36096, Note_on_c, 1, 54, 78
4, 36096, Note_on_c, 1, 50, 78
4, 36185, Note_on_c, 1, 57, 0
4, 36185, Note_on_c, 1, 54, 0
4, 36185, Note_on_c, 1, 50, 0
4, 36384, Note_on_c, 1, 57, 80
4, 36384, Note_on_c, 1, 55, 80
4, 36384, Note_on_c, 1, 52, 80
4, 36384, Note_on_c, 1, 49, 80
4, 36473, Note_on_c, 1, 57, 0
4, 36473, Note_on_c, 1, 55, 0
4, 36473, Note_on_c, 1, 52, 0
4, 36473, Note_on_c, 1, 49, 0
4, 36480, Note_on_c, 1, 57, 80
4, 36480, Note_on_c, 1, 54, 80
4, 36480, Note_on_c, 1, 50, 80
4, 36569, Note_on_c, 1, 57, 0
4, 36569, Note_on_c, 1, 54, 0
4, 36569, Note_on_c, 1, 50, 0
4, 36576, Note_on_c, 1, 66, 70
4, 36576, Note_on_c, 1, 62, 70
4, 36665, Note_on_c, 1, 66, 0
4, 36665, Note_on_c, 1, 62, 0
4, 36672, Note_on_c, 1, 64, 70
4, 36672, Note_on_c, 1, 61, 70
4, 36761, Note_on_c, 1, 64, 0
4, 36761, Note_on_c, 1, 61, 0
4, 36768, Note_on_c, 1, 62, 70
4, 36768, Note_on_c, 1, 59, 70
4, 36857, Note_on_c, 1, 62, 0
4, 36857, Note_on_c, 1, 59, 0
4, 36864, Note_on_c, 1, 61, 70
4, 36864, Note_on_c, 1, 57, 70
4, 36953, Note_on_c, 1, 61, 0
4, 36953, Note_on_c, 1, 57, 0
4, 36960, Note_on_c, 1, 59, 70
4, 36960, Note_on_c, 1, 55, 70
4, 37049, Note_on_c, 1, 59, 0
4, 37049, Note_on_c, 1, 55, 0
4, 37056, Note_on_c, 1, 57, 70
4, 37056, Note_on_c, 1, 54, 70
4, 37145, Note_on_c, 1, 57, 0
4, 37145, Note_on_c, 1, 54, 0
4, 37248, Note_on_c, 1, 43, 64
4, 37278, Note_on_c, 1, 43, 0
4, 37280, Note_on_c, 1, 47, 64
4, 37310, Note_on_c, 1, 47, 0
4, 37312, Note_on_c, 1, 52, 64
4, 37342, Note_on_c, 1, 52, 0
4, 37344, Note_on_c, 1, 43, 64
4, 37374, Note_on_c, 1, 43, 0
4, 37376, Note_on_c, 1, 47, 64
4, 37406, Note_on_c, 1, 47, 0
4, 37408, Note_on_c, 1, 52, 64
4, 37438, Note_on_c, 1, 52, 0
4, 37440, Note_on_c, 1, 44, 64
4, 37470, Note_on_c, 1, 44, 0
4, 37472, Note_on_c, 1, 50, 64
4, 37502, Note_on_c, 1, 50, 0
4, 37504, Note_on_c, 1, 53, 64
4, 37534, Note_on_c, 1, 53, 0
4, 37536, Note_on_c, 1, 44, 64
4, 37566, Note_on_c, 1, 44, 0
4, 37568, Note_on_c, 1, 50, 64
4, 37598, Note_on_c, 1, 50, 0
4, 37600, Note_on_c, 1, 53, 64
4, 37630, Note_on_c, 1, 53, 0
4, 37632, Note_on_c, 1, 45, 64
4, 37662, Note_on_c, 1, 45, 0
4, 37664, Note_on_c, 1, 50, 64
4, 37694, Note_on_c, 1, 50, 0
4, 37696, Note_on_c, 1, 54, 64
4, 37726, Note_on_c, 1, 54, 0
4, 37728, Note_on_c, 1, 45, 64
4, 37758, Note_on_c, 1, 45, 0
4, 37760, Note_on_c, 1, 50, 64
4, 37790, Note_on_c, 1, 50, 0
4, 37792, Note_on_c, 1, 54, 64
4, 37822, Note_on_c, 1, 54, 0
4, 37824, Note_on_c, 1, 45, 64
4, 37854, Note_on_c, 1, 45, 0
4, 37856, Note_on_c, 1, 49, 64
4, 37886, Note_on_c, 1, 49, 0
4, 37888, Note_on_c, 1, 55, 64
4, 37918, Note_on_c, 1, 55, 0
4, 37920, Note_on_c, 1, 45, 64
4, 37950, Note_on_c, 1, 45, 0
4, 37952, Note_on_c, 1, 49, 64
4, 37982, Note_on_c, 1, 49, 0
4, 37984, Note_on_c, 1, 55, 64
4, 38014, Note_on_c, 1, 55, 0
4, 38016, Note_on_c, 1, 54, 64
4, 38016, Note_on_c, 1, 50, 64
4, 38105, Note_on_c, 1, 54, 0
4, 38105, Note_on_c, 1, 50, 0
4, 38176, Note_on_c, 1, 49, 66
4, 38176, Note_on_c, 1, 37, 66
4, 38206, Note_on_c, 1, 49, 0
4, 38206, Note_on_c, 1, 37, 0
4, 38208, Note_on_c, 1, 50, 67
4, 38208, Note_on_c, 1, 38, 67
4, 38297, Note_on_c, 1, 50, 0
4, 38297, Note_on_c, 1, 38, 0
4, 38368, Note_on_c, 1, 49, 74
4, 38368, Note_on_c, 1, 37, 74
4, 38398, Note_on_c, 1, 49, 0
4, 38398, Note_on_c, 1, 37, 0
4, 38400, Note_on_c, 1, 50, 75
4, 38400, Note_on_c, 1, 38, 75
4, 38489, Note_on_c, 1, 50, 0
4, 38489, Note_on_c, 1, 38, 0
4, 38560, Note_on_c, 1, 61, 80
4, 38560, Note_on_c, 1, 49, 80
4, 38590, Note_on_c, 1, 61, 0
4, 38590, Note_on_c, 1, 49, 0
4, 38592, Note_on_c, 1, 62, 80
4, 38592, Note_on_c, 1, 50, 80
4, 38681, Note_on_c, 1, 62, 0
4, 38681, Note_on_c, 1, 50, 0
4, 38752, Note_on_c, 1, 61, 80
4, 38752, Note_on_c, 1, 49, 80
4, 38782, Note_on_c, 1, 61, 0
4, 38782, Note_on_c, 1, 49, 0
4, 38784, Note_on_c, 1, 62, 80
4, 38784, Note_on_c, 1, 50, 80
4, 38873, Note_on_c, 1, 62, 0
4, 38873, Note_on_c, 1, 50, 0
4, 39168, Note_on_c, 1, 49, 64
4, 39198, Note_on_c, 1, 49, 0
4, 39200, Note_on_c, 1, 52, 64
4, 39230, Note_on_c, 1, 52, 0
4, 39232, Note_on_c, 1, 57, 64
4, 39262, Note_on_c, 1, 57, 0
4, 39264, Note_on_c, 1, 49, 64
4, 39294, Note_on_c, 1, 49, 0
4, 39296, Note_on_c, 1, 52, 64
4, 39326, Note_on_c, 1, 52, 0
4, 39328, Note_on_c, 1, 57, 64
4, 39358, Note_on_c, 1, 57, 0
4, 39360, Note_on_c, 1, 50, 64
4, 39390, Note_on_c, 1, 50, 0
4, 39392, Note_on_c, 1, 54, 64
4, 39422, Note_on_c, 1, 54, 0
4, 39424, Note_on_c, 1, 57, 64
4, 39454, Note_on_c, 1, 57, 0
4, 39456, Note_on_c, 1, 50, 64
4, 39486, Note_on_c, 1, 50, 0
4, 39488, Note_on_c, 1, 54, 64
4, 39518, Note_on_c, 1, 54, 0
4, 39520, Note_on_c, 1, 57, 64
4, 39550, Note_on_c, 1, 57, 0
4, 39552, Note_on_c, 1, 43, 64
4, 39582, Note_on_c, 1, 43, 0
4, 39584, Note_on_c, 1, 50, 66
4, 39614, Note_on_c, 1, 50, 0
4, 39616, Note_on_c, 1, 55, 68
4, 39646, Note_on_c, 1, 55, 0
4, 39648, Note_on_c, 1, 43, 70
4, 39678, Note_on_c, 1, 43, 0
4, 39680, Note_on_c, 1, 50, 72
4, 39710, Note_on_c, 1, 50, 0
4, 39712, Note_on_c, 1, 55, 74
4, 39742, Note_on_c, 1, 55, 0
4, 39744, Note_on_c, 1, 44, 76
4, 39774, Note_on_c, 1, 44, 0
4, 39776, Note_on_c, 1, 50, 80
4, 39806, Note_on_c, 1, 50, 0
4, 39808, Note_on_c, 1, 53, 80
4, 39838, Note_on_c, 1, 53, 0
4, 39840, Note_on_c, 1, 44, 80
4, 39870, Note_on_c, 1, 44, 0
4, 39872, Note_on_c, 1, 50, 80
4, 39902, Note_on_c, 1, 50, 0
4, 39904, Note_on_c, 1, 53, 80
4, 39934, Note_on_c, 1, 53, 0
4, 39936, Note_on_c, 1, 45, 80
4, 39966, Note_on_c, 1, 45, 0
4, 39968, Note_on_c, 1, 50, 78
4, 39998, Note_on_c, 1, 50, 0
4, 40000, Note_on_c, 1, 54, 77
4, 40030, Note_on_c, 1, 54, 0
4, 40032, Note_on_c, 1, 45, 76
4, 40062, Note_on_c, 1, 45, 0
4, 40064, Note_on_c, 1, 50, 75
4, 40094, Note_on_c, 1, 50, 0
4, 40096, Note_on_c, 1, 54, 74
4, 40126, Note_on_c, 1, 54, 0
4, 40128, Note_on_c, 1, 45, 73
4, 40158, Note_on_c, 1, 45, 0
4, 40160, Note_on_c, 1, 49, 71
4, 40190, Note_on_c, 1, 49, 0
4, 40192, Note_on_c, 1, 55, 70
4, 40222, Note_on_c, 1, 55, 0
4, 40224, Note_on_c, 1, 45, 69
4, 40254, Note_on_c, 1, 45, 0
4, 40256, Note_on_c, 1, 49, 68
4, 40286, Note_on_c, 1, 49, 0
4, 40288, Note_on_c, 1, 55, 67
4, 40318, Note_on_c, 1, 55, 0
4, 40320, Note_on_c, 1, 38, 66
4, 40350, Note_on_c, 1, 38, 0
4, 40352, Note_on_c, 1, 45, 64
4, 40382, Note_on_c, 1, 45, 0
4, 40384, Note_on_c, 1, 50, 64
4, 40414, Note_on_c, 1, 50, 0
4, 40416, Note_on_c, 1, 38, 64
4, 40446, Note_on_c, 1, 38, 0
4, 40448, Note_on_c, 1, 45, 64
4, 40478, Note_on_c, 1, 45, 0
4, 40480, Note_on_c, 1, 50, 64
4, 40510, Note_on_c, 1, 50, 0
4, 40512, Note_on_c, 1, 37, 64
4, 40542, Note_on_c, 1, 37, 0
4, 40544, Note_on_c, 1, 45, 64
4, 40574, Note_on_c, 1, 45, 0
4, 40576, Note_on_c, 1, 52, 64
4, 40606, Note_on_c, 1, 52, 0
4, 40608, Note_on_c, 1, 37, 64
4, 40638, Note_on_c, 1, 37, 0
4, 40640, Note_on_c, 1, 45, 64
4, 40670, Note_on_c, 1, 45, 0
4, 40672, Note_on_c, 1, 52, 64
4, 40702, Note_on_c, 1, 52, 0
4, 40704, Note_on_c, 1, 38, 64
4, 40734, Note_on_c, 1, 38, 0
4, 40736, Note_on_c, 1, 45, 64
4, 40766, Note_on_c, 1, 45, 0
4, 40768, Note_on_c, 1, 50, 65
4, 40798, Note_on_c, 1, 50, 0
4, 40800, Note_on_c, 1, 38, 66
4, 40830, Note_on_c, 1, 38, 0
4, 40832, Note_on_c, 1, 45, 67
4, 40862, Note_on_c, 1, 45, 0
4, 40864, Note_on_c, 1, 50, 68
4, 40894, Note_on_c, 1, 50, 0
4, 40896, Note_on_c, 1, 37, 68
4, 40926, Note_on_c, 1, 37, 0
4, 40928, Note_on_c, 1, 45, 70
4, 40958, Note_on_c, 1, 45, 0
4, 40960, Note_on_c, 1, 52, 70
4, 40990, Note_on_c, 1, 52, 0
4, 40992, Note_on_c, 1, 37, 70
4, 41022, Note_on_c, 1, 37, 0
4, 41024, Note_on_c, 1, 45, 70
4, 41054, Note_on_c, 1, 45, 0
4, 41056, Note_on_c, 1, 52, 70
4, 41086, Note_on_c, 1, 52, 0
4, 41088, Note_on_c, 1, 38, 70
4, 41118, Note_on_c, 1, 38, 0
4, 41120, Note_on_c, 1, 45, 70
4, 41150, Note_on_c, 1, 45, 0
4, 41152, Note_on_c, 1, 50, 70
4, 41182, Note_on_c, 1, 50, 0
4, 41184, Note_on_c, 1, 38, 70
4, 41214, Note_on_c, 1, 38, 0
4, 41216, Note_on_c, 1, 45, 70
4, 41246, Note_on_c, 1, 45, 0
4, 41248, Note_on_c, 1, 50, 70
4, 41278, Note_on_c, 1, 50, 0
4, 41280, Note_on_c, 1, 37, 70
4, 41310, Note_on_c, 1, 37, 0
4, 41312, Note_on_c, 1, 46, 70
4, 41342, Note_on_c, 1, 46, 0
4, 41344, Note_on_c, 1, 52, 70
4, 41374, Note_on_c, 1, 52, 0
4, 41376, Note_on_c, 1, 37, 70
4, 41406, Note_on_c, 1, 37, 0
4, 41408, Note_on_c, 1, 46, 70
4, 41438, Note_on_c, 1, 46, 0
4, 41440, Note_on_c, 1, 52, 70
4, 41470, Note_on_c, 1, 52, 0
4, 41472, Note_on_c, 1, 38, 70
4, 41502, Note_on_c, 1, 38, 0
4, 41504, Note_on_c, 1, 45, 69
4, 41534, Note_on_c, 1, 45, 0
4, 41536, Note_on_c, 1, 50, 68
4, 41566, Note_on_c, 1, 50, 0
4, 41568, Note_on_c, 1, 38, 67
4, 41598, Note_on_c, 1, 38, 0
4, 41600, Note_on_c, 1, 45, 66
4, 41630, Note_on_c, 1, 45, 0
4, 41632, Note_on_c, 1, 50, 65
4, 41662, Note_on_c, 1, 50, 0
4, 41664, Note_on_c, 1, 37, 65
4, 41694, Note_on_c, 1, 37, 0
4, 41696, Note_on_c, 1, 46, 64
4, 41726, Note_on_c, 1, 46, 0
4, 41728, Note_on_c, 1, 52, 64
4, 41758, Note_on_c, 1, 52, 0
4, 41760, Note_on_c, 1, 37, 64
4, 41790, Note_on_c, 1, 37, 0
4, 41792, Note_on_c, 1, 46, 64
4, 41822, Note_on_c, 1, 46, 0
4, 41824, Note_on_c, 1, 52, 64
4, 41854, Note_on_c, 1, 52, 0
4, 41856, Note_on_c, 1, 38, 64
4, 41886, Note_on_c, 1, 38, 0
4, 41888, Note_on_c, 1, 45, 63
4, 41918, Note_on_c, 1, 45, 0
4, 41920, Note_on_c, 1, 50, 62
4, 41950, Note_on_c, 1, 50, 0
4, 41952, Note_on_c, 1, 38, 61
4, 41982, Note_on_c, 1, 38, 0
4, 41984, Note_on_c, 1, 45, 60
4, 42014, Note_on_c, 1, 45, 0
4, 42016, Note_on_c, 1, 50, 59
4, 42046, Note_on_c, 1, 50, 0
4, 42048, Note_on_c, 1, 38, 59
4, 42078, Note_on_c, 1, 38, 0
4, 42080, Note_on_c, 1, 45, 58
4, 42110, Note_on_c, 1, 45, 0
4, 42112, Note_on_c, 1, 52, 58
4, 42142, Note_on_c, 1, 52, 0
4, 42144, Note_on_c, 1, 38, 58
4, 42174, Note_on_c, 1, 38, 0
4, 42176, Note_on_c, 1, 45, 58
4, 42206, Note_on_c, 1, 45, 0
4, 42208, Note_on_c, 1, 52, 58
4, 42238, Note_on_c, 1, 52, 0
4, 42240, Note_on_c, 1, 38, 58
4, 42594, Note_on_c, 1, 38, 0
4, 42624, Note_on_c, 1, 38, 0
4, 42713, Note_on_c, 1, 38, 0
4, 42720, End_track
5, 0, Start_track
5, 0, Program_c, 1, 0
5, 0, Control_c, 1, 7, 127
5, 0, Control_c, 1, 10, 64
5, 864, Note_on_c, 1, 62, 64
5, 953, Note_on_c, 1, 62, 0
5, 960, Note_on_c, 1, 59, 64
5, 1049, Note_on_c, 1, 59, 0
5, 1056, Note_on_c, 1, 55, 64
5, 1145, Note_on_c, 1, 55, 0
5, 1152, Note_on_c, 1, 57, 64
5, 1417, Note_on_c, 1, 57, 0
5, 2400, Note_on_c, 1, 62, 64
5, 2665, Note_on_c, 1, 62, 0
5, 17376, Note_on_c, 1, 62, 64
5, 17465, Note_on_c, 1, 62, 0
5, 17472, Note_on_c, 1, 59, 64
5, 17561, Note_on_c, 1, 59, 0
5, 17568, Note_on_c, 1, 55, 64
5, 17657, Note_on_c, 1, 55, 0
5, 17664, Note_on_c, 1, 57, 64
5, 17929, Note_on_c, 1, 57, 0
5, 31200, Note_on_c, 1, 62, 64
5, 31289, Note_on_c, 1, 62, 0
5, 31296, Note_on_c, 1, 59, 64
5, 31385, Note_on_c, 1, 59, 0
5, 31392, Note_on_c, 1, 55, 64
5, 31481, Note_on_c, 1, 55, 0
5, 31488, Note_on_c, 1, 57, 64
5, 31753, Note_on_c, 1, 57, 0
5, 42624, End_track
6, 0, Start_track
6, 0, Title_t, "Sonata I   Haydn  "
6, 0, End_track
0, 0, End_of_file
