0, 0, Header, 1, 5, 96
1, 0, Start_track
1, 0, Copyright_t, "Copyright  1994-2002 Mozart Music Software"
1, 0, Sequencer_specific, 16, 68, 87, 77, 90, 86, 82, 83, 78, 32, 55, 46, 48, 46, 55, 46, 48
1, 0, Time_signature, 3, 3, 24, 8
1, 0, Tempo, 521739
1, 0, Key_signature, 3, "major"
1, 3312, Key_signature, 1, "major"
1, 4752, Key_signature, 3, "major"
1, 9648, Key_signature, 1, "major"
1, 11088, Key_signature, 3, "major"
1, 21888, Key_signature, 0, "major"
1, 23328, Key_signature, 3, "major"
1, 34128, Key_signature, 0, "major"
1, 35568, Key_signature, 3, "major"
1, 37296, End_track
2, 0, Start_track
2, 0, Program_c, 0, 0
2, 0, Control_c, 0, 7, 127
2, 0, Control_c, 0, 10, 64
2, 96, Note_on_c, 0, 69, 77
2, 111, Note_on_c, 0, 69, 0
2, 112, Note_on_c, 0, 71, 77
2, 127, Note_on_c, 0, 71, 0
2, 128, Note_on_c, 0, 73, 77
2, 143, Note_on_c, 0, 73, 0
2, 144, Note_on_c, 0, 69, 77
2, 189, Note_on_c, 0, 69, 0
2, 192, Note_on_c, 0, 73, 77
2, 237, Note_on_c, 0, 73, 0
2, 240, Note_on_c, 0, 76, 77
2, 285, Note_on_c, 0, 76, 0
2, 288, Note_on_c, 0, 76, 77
2, 333, Note_on_c, 0, 76, 0
2, 336, Note_on_c, 0, 81, 77
2, 381, Note_on_c, 0, 81, 0
2, 384, Note_on_c, 0, 76, 77
2, 407, Note_on_c, 0, 76, 0
2, 408, Note_on_c, 0, 73, 77
2, 431, Note_on_c, 0, 73, 0
2, 432, Note_on_c, 0, 76, 77
2, 455, Note_on_c, 0, 76, 0
2, 456, Note_on_c, 0, 74, 77
2, 479, Note_on_c, 0, 74, 0
2, 480, Note_on_c, 0, 74, 77
2, 503, Note_on_c, 0, 74, 0
2, 504, Note_on_c, 0, 71, 77
2, 527, Note_on_c, 0, 71, 0
2, 528, Note_on_c, 0, 73, 77
2, 573, Note_on_c, 0, 73, 0
2, 576, Note_on_c, 0, 76, 77
2, 621, Note_on_c, 0, 76, 0
2, 624, Note_on_c, 0, 81, 77
2, 669, Note_on_c, 0, 81, 0
2, 672, Note_on_c, 0, 73, 77
2, 695, Note_on_c, 0, 73, 0
2, 696, Note_on_c, 0, 69, 77
2, 719, Note_on_c, 0, 69, 0
2, 720, Note_on_c, 0, 73, 77
2, 743, Note_on_c, 0, 73, 0
2, 744, Note_on_c, 0, 71, 77
2, 767, Note_on_c, 0, 71, 0
2, 768, Note_on_c, 0, 71, 77
2, 791, Note_on_c, 0, 71, 0
2, 792, Note_on_c, 0, 68, 77
2, 815, Note_on_c, 0, 68, 0
2, 816, Note_on_c, 0, 69, 77
2, 861, Note_on_c, 0, 69, 0
2, 864, Note_on_c, 0, 64, 77
2, 909, Note_on_c, 0, 64, 0
2, 912, Note_on_c, 0, 74, 77
2, 912, Note_on_c, 0, 71, 77
2, 957, Note_on_c, 0, 74, 0
2, 957, Note_on_c, 0, 71, 0
2, 960, Note_on_c, 0, 73, 77
2, 960, Note_on_c, 0, 69, 77
2, 1005, Note_on_c, 0, 73, 0
2, 1005, Note_on_c, 0, 69, 0
2, 1008, Note_on_c, 0, 74, 77
2, 1020, Note_on_c, 0, 74, 0
2, 1020, Note_on_c, 0, 73, 77
2, 1032, Note_on_c, 0, 73, 0
2, 1032, Note_on_c, 0, 74, 77
2, 1044, Note_on_c, 0, 74, 0
2, 1044, Note_on_c, 0, 73, 77
2, 1056, Note_on_c, 0, 73, 0
2, 1056, Note_on_c, 0, 71, 77
2, 1101, Note_on_c, 0, 71, 0
2, 1152, Note_on_c, 0, 71, 77
2, 1197, Note_on_c, 0, 71, 0
2, 1200, Note_on_c, 0, 76, 77
2, 1215, Note_on_c, 0, 76, 0
2, 1216, Note_on_c, 0, 74, 77
2, 1231, Note_on_c, 0, 74, 0
2, 1232, Note_on_c, 0, 73, 77
2, 1247, Note_on_c, 0, 73, 0
2, 1248, Note_on_c, 0, 74, 77
2, 1263, Note_on_c, 0, 74, 0
2, 1264, Note_on_c, 0, 73, 77
2, 1279, Note_on_c, 0, 73, 0
2, 1280, Note_on_c, 0, 71, 77
2, 1295, Note_on_c, 0, 71, 0
2, 1296, Note_on_c, 0, 73, 77
2, 1311, Note_on_c, 0, 73, 0
2, 1312, Note_on_c, 0, 69, 77
2, 1327, Note_on_c, 0, 69, 0
2, 1328, Note_on_c, 0, 73, 77
2, 1343, Note_on_c, 0, 73, 0
2, 1344, Note_on_c, 0, 76, 77
2, 1359, Note_on_c, 0, 76, 0
2, 1360, Note_on_c, 0, 73, 77
2, 1375, Note_on_c, 0, 73, 0
2, 1376, Note_on_c, 0, 76, 77
2, 1391, Note_on_c, 0, 76, 0
2, 1392, Note_on_c, 0, 81, 77
2, 1437, Note_on_c, 0, 81, 0
2, 1440, Note_on_c, 0, 73, 77
2, 1485, Note_on_c, 0, 73, 0
2, 1488, Note_on_c, 0, 78, 77
2, 1503, Note_on_c, 0, 78, 0
2, 1504, Note_on_c, 0, 76, 77
2, 1519, Note_on_c, 0, 76, 0
2, 1520, Note_on_c, 0, 75, 77
2, 1535, Note_on_c, 0, 75, 0
2, 1536, Note_on_c, 0, 76, 77
2, 1551, Note_on_c, 0, 76, 0
2, 1552, Note_on_c, 0, 75, 77
2, 1567, Note_on_c, 0, 75, 0
2, 1568, Note_on_c, 0, 73, 77
2, 1583, Note_on_c, 0, 73, 0
2, 1584, Note_on_c, 0, 75, 77
2, 1599, Note_on_c, 0, 75, 0
2, 1600, Note_on_c, 0, 71, 77
2, 1615, Note_on_c, 0, 71, 0
2, 1616, Note_on_c, 0, 75, 77
2, 1631, Note_on_c, 0, 75, 0
2, 1632, Note_on_c, 0, 78, 77
2, 1647, Note_on_c, 0, 78, 0
2, 1648, Note_on_c, 0, 75, 77
2, 1663, Note_on_c, 0, 75, 0
2, 1664, Note_on_c, 0, 78, 77
2, 1679, Note_on_c, 0, 78, 0
2, 1680, Note_on_c, 0, 83, 77
2, 1725, Note_on_c, 0, 83, 0
2, 1728, Note_on_c, 0, 71, 77
2, 1773, Note_on_c, 0, 71, 0
2, 1776, Note_on_c, 0, 81, 77
2, 1799, Note_on_c, 0, 81, 0
2, 1800, Note_on_c, 0, 78, 77
2, 1823, Note_on_c, 0, 78, 0
2, 1824, Note_on_c, 0, 80, 77
2, 1847, Note_on_c, 0, 80, 0
2, 1848, Note_on_c, 0, 76, 77
2, 1871, Note_on_c, 0, 76, 0
2, 1872, Note_on_c, 0, 76, 77
2, 1895, Note_on_c, 0, 76, 0
2, 1896, Note_on_c, 0, 75, 77
2, 1919, Note_on_c, 0, 75, 0
2, 1920, Note_on_c, 0, 78, 77
2, 1943, Note_on_c, 0, 78, 0
2, 1944, Note_on_c, 0, 75, 77
2, 1967, Note_on_c, 0, 75, 0
2, 1968, Note_on_c, 0, 76, 77
2, 2013, Note_on_c, 0, 76, 0
2, 2016, Note_on_c, 0, 71, 69
2, 2061, Note_on_c, 0, 71, 0
2, 2064, Note_on_c, 0, 81, 69
2, 2087, Note_on_c, 0, 81, 0
2, 2088, Note_on_c, 0, 78, 69
2, 2111, Note_on_c, 0, 78, 0
2, 2112, Note_on_c, 0, 80, 69
2, 2135, Note_on_c, 0, 80, 0
2, 2136, Note_on_c, 0, 76, 69
2, 2159, Note_on_c, 0, 76, 0
2, 2160, Note_on_c, 0, 76, 69
2, 2183, Note_on_c, 0, 76, 0
2, 2184, Note_on_c, 0, 75, 69
2, 2207, Note_on_c, 0, 75, 0
2, 2208, Note_on_c, 0, 78, 69
2, 2231, Note_on_c, 0, 78, 0
2, 2232, Note_on_c, 0, 75, 69
2, 2255, Note_on_c, 0, 75, 0
2, 2256, Note_on_c, 0, 76, 69
2, 2301, Note_on_c, 0, 76, 0
2, 2304, Note_on_c, 0, 74, 77
2, 2316, Note_on_c, 0, 74, 0
2, 2316, Note_on_c, 0, 73, 77
2, 2328, Note_on_c, 0, 73, 0
2, 2328, Note_on_c, 0, 71, 77
2, 2340, Note_on_c, 0, 71, 0
2, 2340, Note_on_c, 0, 73, 77
2, 2352, Note_on_c, 0, 73, 0
2, 2352, Note_on_c, 0, 81, 77
2, 2397, Note_on_c, 0, 81, 0
2, 2448, Note_on_c, 0, 73, 77
2, 2460, Note_on_c, 0, 73, 0
2, 2460, Note_on_c, 0, 71, 77
2, 2472, Note_on_c, 0, 71, 0
2, 2472, Note_on_c, 0, 69, 77
2, 2484, Note_on_c, 0, 69, 0
2, 2484, Note_on_c, 0, 71, 77
2, 2496, Note_on_c, 0, 71, 0
2, 2496, Note_on_c, 0, 80, 77
2, 2541, Note_on_c, 0, 80, 0
2, 2592, Note_on_c, 0, 71, 77
2, 2604, Note_on_c, 0, 71, 0
2, 2604, Note_on_c, 0, 69, 77
2, 2616, Note_on_c, 0, 69, 0
2, 2616, Note_on_c, 0, 68, 77
2, 2628, Note_on_c, 0, 68, 0
2, 2628, Note_on_c, 0, 69, 77
2, 2640, Note_on_c, 0, 69, 0
2, 2640, Note_on_c, 0, 78, 77
2, 2685, Note_on_c, 0, 78, 0
2, 2736, Note_on_c, 0, 69, 77
2, 2748, Note_on_c, 0, 69, 0
2, 2748, Note_on_c, 0, 68, 77
2, 2760, Note_on_c, 0, 68, 0
2, 2760, Note_on_c, 0, 66, 77
2, 2772, Note_on_c, 0, 66, 0
2, 2772, Note_on_c, 0, 68, 77
2, 2784, Note_on_c, 0, 68, 0
2, 2784, Note_on_c, 0, 76, 77
2, 2829, Note_on_c, 0, 76, 0
2, 2880, Note_on_c, 0, 69, 77
2, 2892, Note_on_c, 0, 69, 0
2, 2892, Note_on_c, 0, 68, 77
2, 2904, Note_on_c, 0, 68, 0
2, 2904, Note_on_c, 0, 66, 77
2, 2916, Note_on_c, 0, 66, 0
2, 2916, Note_on_c, 0, 68, 77
2, 2928, Note_on_c, 0, 68, 0
2, 2928, Note_on_c, 0, 76, 77
2, 2973, Note_on_c, 0, 76, 0
2, 3024, Note_on_c, 0, 68, 77
2, 3036, Note_on_c, 0, 68, 0
2, 3036, Note_on_c, 0, 66, 77
2, 3048, Note_on_c, 0, 66, 0
2, 3048, Note_on_c, 0, 64, 77
2, 3060, Note_on_c, 0, 64, 0
2, 3060, Note_on_c, 0, 66, 77
2, 3072, Note_on_c, 0, 66, 0
2, 3096, Note_on_c, 0, 69, 77
2, 3119, Note_on_c, 0, 69, 0
2, 3120, Note_on_c, 0, 68, 77
2, 3132, Note_on_c, 0, 68, 0
2, 3132, Note_on_c, 0, 71, 77
2, 3144, Note_on_c, 0, 71, 0
2, 3144, Note_on_c, 0, 63, 77
2, 3156, Note_on_c, 0, 63, 0
2, 3156, Note_on_c, 0, 66, 77
2, 3168, Note_on_c, 0, 66, 0
2, 3168, Note_on_c, 0, 64, 77
2, 3257, Note_on_c, 0, 64, 0
2, 3312, Note_on_c, 0, 76, 61
2, 3357, Note_on_c, 0, 76, 0
2, 3360, Note_on_c, 0, 78, 61
2, 3405, Note_on_c, 0, 78, 0
2, 3408, Note_on_c, 0, 75, 61
2, 3453, Note_on_c, 0, 75, 0
2, 3456, Note_on_c, 0, 76, 61
2, 3479, Note_on_c, 0, 76, 0
2, 3480, Note_on_c, 0, 84, 61
2, 3503, Note_on_c, 0, 84, 0
2, 3504, Note_on_c, 0, 83, 61
2, 3527, Note_on_c, 0, 83, 0
2, 3528, Note_on_c, 0, 81, 61
2, 3551, Note_on_c, 0, 81, 0
2, 3552, Note_on_c, 0, 79, 61
2, 3575, Note_on_c, 0, 79, 0
2, 3576, Note_on_c, 0, 78, 61
2, 3599, Note_on_c, 0, 78, 0
2, 3600, Note_on_c, 0, 76, 61
2, 3645, Note_on_c, 0, 76, 0
2, 3648, Note_on_c, 0, 78, 61
2, 3693, Note_on_c, 0, 78, 0
2, 3696, Note_on_c, 0, 75, 61
2, 3741, Note_on_c, 0, 75, 0
2, 3744, Note_on_c, 0, 76, 61
2, 3767, Note_on_c, 0, 76, 0
2, 3768, Note_on_c, 0, 78, 61
2, 3791, Note_on_c, 0, 78, 0
2, 3792, Note_on_c, 0, 79, 61
2, 3815, Note_on_c, 0, 79, 0
2, 3816, Note_on_c, 0, 81, 61
2, 3839, Note_on_c, 0, 81, 0
2, 3840, Note_on_c, 0, 83, 61
2, 3885, Note_on_c, 0, 83, 0
2, 3888, Note_on_c, 0, 83, 61
2, 3912, Note_on_c, 0, 83, 0
2, 3912, Note_on_c, 0, 84, 61
2, 3935, Note_on_c, 0, 84, 0
2, 3936, Note_on_c, 0, 81, 61
2, 3981, Note_on_c, 0, 81, 0
2, 3984, Note_on_c, 0, 78, 61
2, 4029, Note_on_c, 0, 78, 0
2, 4032, Note_on_c, 0, 82, 61
2, 4056, Note_on_c, 0, 82, 0
2, 4056, Note_on_c, 0, 83, 61
2, 4079, Note_on_c, 0, 83, 0
2, 4080, Note_on_c, 0, 79, 61
2, 4125, Note_on_c, 0, 79, 0
2, 4176, Note_on_c, 0, 80, 61
2, 4200, Note_on_c, 0, 80, 0
2, 4200, Note_on_c, 0, 81, 61
2, 4223, Note_on_c, 0, 81, 0
2, 4224, Note_on_c, 0, 78, 61
2, 4269, Note_on_c, 0, 78, 0
2, 4272, Note_on_c, 0, 75, 61
2, 4317, Note_on_c, 0, 75, 0
2, 4320, Note_on_c, 0, 78, 61
2, 4344, Note_on_c, 0, 78, 0
2, 4344, Note_on_c, 0, 79, 61
2, 4367, Note_on_c, 0, 79, 0
2, 4368, Note_on_c, 0, 76, 61
2, 4413, Note_on_c, 0, 76, 0
2, 4464, Note_on_c, 0, 75, 61
2, 4487, Note_on_c, 0, 75, 0
2, 4488, Note_on_c, 0, 76, 61
2, 4511, Note_on_c, 0, 76, 0
2, 4512, Note_on_c, 0, 78, 61
2, 4535, Note_on_c, 0, 78, 0
2, 4536, Note_on_c, 0, 79, 61
2, 4559, Note_on_c, 0, 79, 0
2, 4560, Note_on_c, 0, 81, 61
2, 4583, Note_on_c, 0, 81, 0
2, 4584, Note_on_c, 0, 79, 61
2, 4607, Note_on_c, 0, 79, 0
2, 4608, Note_on_c, 0, 79, 61
2, 4620, Note_on_c, 0, 79, 0
2, 4620, Note_on_c, 0, 81, 61
2, 4632, Note_on_c, 0, 81, 0
2, 4632, Note_on_c, 0, 79, 61
2, 4653, Note_on_c, 0, 79, 0
2, 4656, Note_on_c, 0, 78, 61
2, 4701, Note_on_c, 0, 78, 0
2, 4704, Note_on_c, 0, 76, 61
2, 4719, Note_on_c, 0, 76, 0
2, 4720, Note_on_c, 0, 78, 65
2, 4735, Note_on_c, 0, 78, 0
2, 4736, Note_on_c, 0, 80, 69
2, 4751, Note_on_c, 0, 80, 0
2, 4752, Note_on_c, 0, 76, 85
2, 4797, Note_on_c, 0, 76, 0
2, 4800, Note_on_c, 0, 80, 85
2, 4800, Note_on_c, 0, 76, 85
2, 4845, Note_on_c, 0, 80, 0
2, 4845, Note_on_c, 0, 76, 0
2, 4848, Note_on_c, 0, 83, 85
2, 4848, Note_on_c, 0, 80, 85
2, 4893, Note_on_c, 0, 83, 0
2, 4893, Note_on_c, 0, 80, 0
2, 4896, Note_on_c, 0, 83, 85
2, 4896, Note_on_c, 0, 80, 85
2, 4941, Note_on_c, 0, 83, 0
2, 4941, Note_on_c, 0, 80, 0
2, 4944, Note_on_c, 0, 81, 85
2, 4944, Note_on_c, 0, 78, 85
2, 4989, Note_on_c, 0, 81, 0
2, 4989, Note_on_c, 0, 78, 0
2, 4992, Note_on_c, 0, 75, 85
2, 5007, Note_on_c, 0, 75, 0
2, 5008, Note_on_c, 0, 76, 85
2, 5023, Note_on_c, 0, 76, 0
2, 5024, Note_on_c, 0, 78, 85
2, 5039, Note_on_c, 0, 78, 0
2, 5040, Note_on_c, 0, 71, 85
2, 5085, Note_on_c, 0, 71, 0
2, 5088, Note_on_c, 0, 78, 85
2, 5088, Note_on_c, 0, 75, 85
2, 5133, Note_on_c, 0, 78, 0
2, 5133, Note_on_c, 0, 75, 0
2, 5136, Note_on_c, 0, 81, 85
2, 5136, Note_on_c, 0, 78, 85
2, 5181, Note_on_c, 0, 81, 0
2, 5181, Note_on_c, 0, 78, 0
2, 5184, Note_on_c, 0, 81, 85
2, 5184, Note_on_c, 0, 78, 85
2, 5229, Note_on_c, 0, 81, 0
2, 5229, Note_on_c, 0, 78, 0
2, 5232, Note_on_c, 0, 80, 85
2, 5232, Note_on_c, 0, 76, 85
2, 5277, Note_on_c, 0, 80, 0
2, 5277, Note_on_c, 0, 76, 0
2, 5280, Note_on_c, 0, 76, 85
2, 5295, Note_on_c, 0, 76, 0
2, 5296, Note_on_c, 0, 78, 85
2, 5311, Note_on_c, 0, 78, 0
2, 5312, Note_on_c, 0, 80, 85
2, 5327, Note_on_c, 0, 80, 0
2, 5328, Note_on_c, 0, 76, 85
2, 5373, Note_on_c, 0, 76, 0
2, 5376, Note_on_c, 0, 80, 85
2, 5376, Note_on_c, 0, 76, 85
2, 5421, Note_on_c, 0, 80, 0
2, 5421, Note_on_c, 0, 76, 0
2, 5424, Note_on_c, 0, 83, 85
2, 5424, Note_on_c, 0, 80, 85
2, 5469, Note_on_c, 0, 83, 0
2, 5469, Note_on_c, 0, 80, 0
2, 5472, Note_on_c, 0, 83, 85
2, 5472, Note_on_c, 0, 80, 85
2, 5517, Note_on_c, 0, 83, 0
2, 5517, Note_on_c, 0, 80, 0
2, 5520, Note_on_c, 0, 81, 85
2, 5520, Note_on_c, 0, 78, 85
2, 5565, Note_on_c, 0, 81, 0
2, 5565, Note_on_c, 0, 78, 0
2, 5568, Note_on_c, 0, 75, 85
2, 5583, Note_on_c, 0, 75, 0
2, 5584, Note_on_c, 0, 76, 85
2, 5599, Note_on_c, 0, 76, 0
2, 5600, Note_on_c, 0, 78, 85
2, 5615, Note_on_c, 0, 78, 0
2, 5616, Note_on_c, 0, 71, 85
2, 5661, Note_on_c, 0, 71, 0
2, 5664, Note_on_c, 0, 78, 85
2, 5664, Note_on_c, 0, 75, 85
2, 5709, Note_on_c, 0, 78, 0
2, 5709, Note_on_c, 0, 75, 0
2, 5712, Note_on_c, 0, 81, 85
2, 5712, Note_on_c, 0, 78, 85
2, 5757, Note_on_c, 0, 81, 0
2, 5757, Note_on_c, 0, 78, 0
2, 5760, Note_on_c, 0, 81, 85
2, 5760, Note_on_c, 0, 78, 85
2, 5805, Note_on_c, 0, 81, 0
2, 5805, Note_on_c, 0, 78, 0
2, 5808, Note_on_c, 0, 80, 85
2, 5808, Note_on_c, 0, 76, 85
2, 5853, Note_on_c, 0, 80, 0
2, 5853, Note_on_c, 0, 76, 0
2, 5856, Note_on_c, 0, 76, 77
2, 5871, Note_on_c, 0, 76, 0
2, 5872, Note_on_c, 0, 78, 77
2, 5887, Note_on_c, 0, 78, 0
2, 5888, Note_on_c, 0, 80, 77
2, 5903, Note_on_c, 0, 80, 0
2, 5904, Note_on_c, 0, 71, 77
2, 5949, Note_on_c, 0, 71, 0
2, 5952, Note_on_c, 0, 76, 77
2, 5997, Note_on_c, 0, 76, 0
2, 6000, Note_on_c, 0, 74, 77
2, 6045, Note_on_c, 0, 74, 0
2, 6048, Note_on_c, 0, 76, 77
2, 6060, Note_on_c, 0, 76, 0
2, 6060, Note_on_c, 0, 74, 77
2, 6072, Note_on_c, 0, 74, 0
2, 6072, Note_on_c, 0, 76, 77
2, 6084, Note_on_c, 0, 76, 0
2, 6084, Note_on_c, 0, 74, 77
2, 6096, Note_on_c, 0, 74, 0
2, 6096, Note_on_c, 0, 73, 77
2, 6141, Note_on_c, 0, 73, 0
2, 6144, Note_on_c, 0, 75, 77
2, 6159, Note_on_c, 0, 75, 0
2, 6160, Note_on_c, 0, 78, 77
2, 6175, Note_on_c, 0, 78, 0
2, 6176, Note_on_c, 0, 81, 77
2, 6191, Note_on_c, 0, 81, 0
2, 6192, Note_on_c, 0, 80, 77
2, 6207, Note_on_c, 0, 80, 0
2, 6208, Note_on_c, 0, 81, 77
2, 6223, Note_on_c, 0, 81, 0
2, 6224, Note_on_c, 0, 83, 77
2, 6239, Note_on_c, 0, 83, 0
2, 6240, Note_on_c, 0, 76, 77
2, 6285, Note_on_c, 0, 76, 0
2, 6288, Note_on_c, 0, 76, 77
2, 6300, Note_on_c, 0, 76, 0
2, 6300, Note_on_c, 0, 75, 77
2, 6312, Note_on_c, 0, 75, 0
2, 6312, Note_on_c, 0, 76, 77
2, 6324, Note_on_c, 0, 76, 0
2, 6324, Note_on_c, 0, 75, 77
2, 6336, Note_on_c, 0, 75, 0
2, 6336, Note_on_c, 0, 75, 77
2, 6381, Note_on_c, 0, 75, 0
2, 6384, Note_on_c, 0, 76, 77
2, 6429, Note_on_c, 0, 76, 0
2, 6432, Note_on_c, 0, 69, 77
2, 6447, Note_on_c, 0, 69, 0
2, 6448, Note_on_c, 0, 71, 77
2, 6463, Note_on_c, 0, 71, 0
2, 6464, Note_on_c, 0, 73, 77
2, 6479, Note_on_c, 0, 73, 0
2, 6480, Note_on_c, 0, 69, 77
2, 6525, Note_on_c, 0, 69, 0
2, 6528, Note_on_c, 0, 73, 77
2, 6573, Note_on_c, 0, 73, 0
2, 6576, Note_on_c, 0, 76, 77
2, 6621, Note_on_c, 0, 76, 0
2, 6624, Note_on_c, 0, 76, 77
2, 6669, Note_on_c, 0, 76, 0
2, 6672, Note_on_c, 0, 81, 77
2, 6717, Note_on_c, 0, 81, 0
2, 6720, Note_on_c, 0, 76, 77
2, 6743, Note_on_c, 0, 76, 0
2, 6744, Note_on_c, 0, 73, 77
2, 6767, Note_on_c, 0, 73, 0
2, 6768, Note_on_c, 0, 76, 77
2, 6791, Note_on_c, 0, 76, 0
2, 6792, Note_on_c, 0, 74, 77
2, 6815, Note_on_c, 0, 74, 0
2, 6816, Note_on_c, 0, 74, 77
2, 6839, Note_on_c, 0, 74, 0
2, 6840, Note_on_c, 0, 71, 77
2, 6863, Note_on_c, 0, 71, 0
2, 6864, Note_on_c, 0, 73, 77
2, 6909, Note_on_c, 0, 73, 0
2, 6912, Note_on_c, 0, 76, 77
2, 6957, Note_on_c, 0, 76, 0
2, 6960, Note_on_c, 0, 81, 77
2, 7005, Note_on_c, 0, 81, 0
2, 7008, Note_on_c, 0, 73, 77
2, 7031, Note_on_c, 0, 73, 0
2, 7032, Note_on_c, 0, 69, 77
2, 7055, Note_on_c, 0, 69, 0
2, 7056, Note_on_c, 0, 73, 77
2, 7079, Note_on_c, 0, 73, 0
2, 7080, Note_on_c, 0, 71, 77
2, 7103, Note_on_c, 0, 71, 0
2, 7104, Note_on_c, 0, 71, 77
2, 7127, Note_on_c, 0, 71, 0
2, 7128, Note_on_c, 0, 68, 77
2, 7151, Note_on_c, 0, 68, 0
2, 7152, Note_on_c, 0, 69, 77
2, 7197, Note_on_c, 0, 69, 0
2, 7200, Note_on_c, 0, 64, 77
2, 7245, Note_on_c, 0, 64, 0
2, 7248, Note_on_c, 0, 74, 77
2, 7248, Note_on_c, 0, 71, 77
2, 7293, Note_on_c, 0, 74, 0
2, 7293, Note_on_c, 0, 71, 0
2, 7296, Note_on_c, 0, 73, 77
2, 7296, Note_on_c, 0, 69, 77
2, 7341, Note_on_c, 0, 73, 0
2, 7341, Note_on_c, 0, 69, 0
2, 7344, Note_on_c, 0, 74, 77
2, 7356, Note_on_c, 0, 74, 0
2, 7356, Note_on_c, 0, 73, 77
2, 7368, Note_on_c, 0, 73, 0
2, 7368, Note_on_c, 0, 74, 77
2, 7380, Note_on_c, 0, 74, 0
2, 7380, Note_on_c, 0, 73, 77
2, 7392, Note_on_c, 0, 73, 0
2, 7392, Note_on_c, 0, 71, 77
2, 7437, Note_on_c, 0, 71, 0
2, 7488, Note_on_c, 0, 71, 77
2, 7533, Note_on_c, 0, 71, 0
2, 7536, Note_on_c, 0, 76, 77
2, 7551, Note_on_c, 0, 76, 0
2, 7552, Note_on_c, 0, 74, 77
2, 7567, Note_on_c, 0, 74, 0
2, 7568, Note_on_c, 0, 73, 77
2, 7583, Note_on_c, 0, 73, 0
2, 7584, Note_on_c, 0, 74, 77
2, 7599, Note_on_c, 0, 74, 0
2, 7600, Note_on_c, 0, 73, 77
2, 7615, Note_on_c, 0, 73, 0
2, 7616, Note_on_c, 0, 71, 77
2, 7631, Note_on_c, 0, 71, 0
2, 7632, Note_on_c, 0, 73, 77
2, 7647, Note_on_c, 0, 73, 0
2, 7648, Note_on_c, 0, 69, 77
2, 7663, Note_on_c, 0, 69, 0
2, 7664, Note_on_c, 0, 73, 77
2, 7679, Note_on_c, 0, 73, 0
2, 7680, Note_on_c, 0, 76, 77
2, 7695, Note_on_c, 0, 76, 0
2, 7696, Note_on_c, 0, 73, 77
2, 7711, Note_on_c, 0, 73, 0
2, 7712, Note_on_c, 0, 76, 77
2, 7727, Note_on_c, 0, 76, 0
2, 7728, Note_on_c, 0, 81, 77
2, 7773, Note_on_c, 0, 81, 0
2, 7776, Note_on_c, 0, 73, 77
2, 7821, Note_on_c, 0, 73, 0
2, 7824, Note_on_c, 0, 78, 77
2, 7839, Note_on_c, 0, 78, 0
2, 7840, Note_on_c, 0, 76, 77
2, 7855, Note_on_c, 0, 76, 0
2, 7856, Note_on_c, 0, 75, 77
2, 7871, Note_on_c, 0, 75, 0
2, 7872, Note_on_c, 0, 76, 77
2, 7887, Note_on_c, 0, 76, 0
2, 7888, Note_on_c, 0, 75, 77
2, 7903, Note_on_c, 0, 75, 0
2, 7904, Note_on_c, 0, 73, 77
2, 7919, Note_on_c, 0, 73, 0
2, 7920, Note_on_c, 0, 75, 77
2, 7935, Note_on_c, 0, 75, 0
2, 7936, Note_on_c, 0, 71, 77
2, 7951, Note_on_c, 0, 71, 0
2, 7952, Note_on_c, 0, 75, 77
2, 7967, Note_on_c, 0, 75, 0
2, 7968, Note_on_c, 0, 78, 77
2, 7983, Note_on_c, 0, 78, 0
2, 7984, Note_on_c, 0, 75, 77
2, 7999, Note_on_c, 0, 75, 0
2, 8000, Note_on_c, 0, 78, 77
2, 8015, Note_on_c, 0, 78, 0
2, 8016, Note_on_c, 0, 83, 77
2, 8061, Note_on_c, 0, 83, 0
2, 8064, Note_on_c, 0, 71, 77
2, 8109, Note_on_c, 0, 71, 0
2, 8112, Note_on_c, 0, 81, 77
2, 8135, Note_on_c, 0, 81, 0
2, 8136, Note_on_c, 0, 78, 77
2, 8159, Note_on_c, 0, 78, 0
2, 8160, Note_on_c, 0, 80, 77
2, 8183, Note_on_c, 0, 80, 0
2, 8184, Note_on_c, 0, 76, 77
2, 8207, Note_on_c, 0, 76, 0
2, 8208, Note_on_c, 0, 76, 77
2, 8231, Note_on_c, 0, 76, 0
2, 8232, Note_on_c, 0, 75, 77
2, 8255, Note_on_c, 0, 75, 0
2, 8256, Note_on_c, 0, 78, 77
2, 8279, Note_on_c, 0, 78, 0
2, 8280, Note_on_c, 0, 75, 77
2, 8303, Note_on_c, 0, 75, 0
2, 8304, Note_on_c, 0, 76, 77
2, 8349, Note_on_c, 0, 76, 0
2, 8352, Note_on_c, 0, 71, 69
2, 8397, Note_on_c, 0, 71, 0
2, 8400, Note_on_c, 0, 81, 69
2, 8423, Note_on_c, 0, 81, 0
2, 8424, Note_on_c, 0, 78, 69
2, 8447, Note_on_c, 0, 78, 0
2, 8448, Note_on_c, 0, 80, 69
2, 8471, Note_on_c, 0, 80, 0
2, 8472, Note_on_c, 0, 76, 69
2, 8495, Note_on_c, 0, 76, 0
2, 8496, Note_on_c, 0, 76, 69
2, 8519, Note_on_c, 0, 76, 0
2, 8520, Note_on_c, 0, 75, 69
2, 8543, Note_on_c, 0, 75, 0
2, 8544, Note_on_c, 0, 78, 69
2, 8567, Note_on_c, 0, 78, 0
2, 8568, Note_on_c, 0, 75, 69
2, 8591, Note_on_c, 0, 75, 0
2, 8592, Note_on_c, 0, 76, 69
2, 8637, Note_on_c, 0, 76, 0
2, 8640, Note_on_c, 0, 74, 77
2, 8652, Note_on_c, 0, 74, 0
2, 8652, Note_on_c, 0, 73, 77
2, 8664, Note_on_c, 0, 73, 0
2, 8664, Note_on_c, 0, 71, 77
2, 8676, Note_on_c, 0, 71, 0
2, 8676, Note_on_c, 0, 73, 77
2, 8688, Note_on_c, 0, 73, 0
2, 8688, Note_on_c, 0, 81, 77
2, 8733, Note_on_c, 0, 81, 0
2, 8784, Note_on_c, 0, 73, 77
2, 8796, Note_on_c, 0, 73, 0
2, 8796, Note_on_c, 0, 71, 77
2, 8808, Note_on_c, 0, 71, 0
2, 8808, Note_on_c, 0, 69, 77
2, 8820, Note_on_c, 0, 69, 0
2, 8820, Note_on_c, 0, 71, 77
2, 8832, Note_on_c, 0, 71, 0
2, 8832, Note_on_c, 0, 80, 77
2, 8877, Note_on_c, 0, 80, 0
2, 8928, Note_on_c, 0, 71, 77
2, 8940, Note_on_c, 0, 71, 0
2, 8940, Note_on_c, 0, 69, 77
2, 8952, Note_on_c, 0, 69, 0
2, 8952, Note_on_c, 0, 68, 77
2, 8964, Note_on_c, 0, 68, 0
2, 8964, Note_on_c, 0, 69, 77
2, 8976, Note_on_c, 0, 69, 0
2, 8976, Note_on_c, 0, 78, 77
2, 9021, Note_on_c, 0, 78, 0
2, 9072, Note_on_c, 0, 69, 77
2, 9084, Note_on_c, 0, 69, 0
2, 9084, Note_on_c, 0, 68, 77
2, 9096, Note_on_c, 0, 68, 0
2, 9096, Note_on_c, 0, 66, 77
2, 9108, Note_on_c, 0, 66, 0
2, 9108, Note_on_c, 0, 68, 77
2, 9120, Note_on_c, 0, 68, 0
2, 9120, Note_on_c, 0, 76, 77
2, 9165, Note_on_c, 0, 76, 0
2, 9216, Note_on_c, 0, 69, 77
2, 9228, Note_on_c, 0, 69, 0
2, 9228, Note_on_c, 0, 68, 77
2, 9240, Note_on_c, 0, 68, 0
2, 9240, Note_on_c, 0, 66, 77
2, 9252, Note_on_c, 0, 66, 0
2, 9252, Note_on_c, 0, 68, 77
2, 9264, Note_on_c, 0, 68, 0
2, 9264, Note_on_c, 0, 76, 77
2, 9309, Note_on_c, 0, 76, 0
2, 9360, Note_on_c, 0, 68, 77
2, 9372, Note_on_c, 0, 68, 0
2, 9372, Note_on_c, 0, 66, 77
2, 9384, Note_on_c, 0, 66, 0
2, 9384, Note_on_c, 0, 64, 77
2, 9396, Note_on_c, 0, 64, 0
2, 9396, Note_on_c, 0, 66, 77
2, 9408, Note_on_c, 0, 66, 0
2, 9432, Note_on_c, 0, 69, 77
2, 9455, Note_on_c, 0, 69, 0
2, 9456, Note_on_c, 0, 68, 77
2, 9468, Note_on_c, 0, 68, 0
2, 9468, Note_on_c, 0, 71, 77
2, 9480, Note_on_c, 0, 71, 0
2, 9480, Note_on_c, 0, 63, 77
2, 9492, Note_on_c, 0, 63, 0
2, 9492, Note_on_c, 0, 66, 77
2, 9504, Note_on_c, 0, 66, 0
2, 9504, Note_on_c, 0, 64, 77
2, 9593, Note_on_c, 0, 64, 0
2, 9648, Note_on_c, 0, 76, 61
2, 9693, Note_on_c, 0, 76, 0
2, 9696, Note_on_c, 0, 78, 61
2, 9741, Note_on_c, 0, 78, 0
2, 9744, Note_on_c, 0, 75, 61
2, 9789, Note_on_c, 0, 75, 0
2, 9792, Note_on_c, 0, 76, 61
2, 9815, Note_on_c, 0, 76, 0
2, 9816, Note_on_c, 0, 84, 61
2, 9839, Note_on_c, 0, 84, 0
2, 9840, Note_on_c, 0, 83, 61
2, 9863, Note_on_c, 0, 83, 0
2, 9864, Note_on_c, 0, 81, 61
2, 9887, Note_on_c, 0, 81, 0
2, 9888, Note_on_c, 0, 79, 61
2, 9911, Note_on_c, 0, 79, 0
2, 9912, Note_on_c, 0, 78, 61
2, 9935, Note_on_c, 0, 78, 0
2, 9936, Note_on_c, 0, 76, 61
2, 9981, Note_on_c, 0, 76, 0
2, 9984, Note_on_c, 0, 78, 61
2, 10029, Note_on_c, 0, 78, 0
2, 10032, Note_on_c, 0, 75, 61
2, 10077, Note_on_c, 0, 75, 0
2, 10080, Note_on_c, 0, 76, 61
2, 10103, Note_on_c, 0, 76, 0
2, 10104, Note_on_c, 0, 78, 61
2, 10127, Note_on_c, 0, 78, 0
2, 10128, Note_on_c, 0, 79, 61
2, 10151, Note_on_c, 0, 79, 0
2, 10152, Note_on_c, 0, 81, 61
2, 10175, Note_on_c, 0, 81, 0
2, 10176, Note_on_c, 0, 83, 61
2, 10221, Note_on_c, 0, 83, 0
2, 10224, Note_on_c, 0, 83, 61
2, 10248, Note_on_c, 0, 83, 0
2, 10248, Note_on_c, 0, 84, 61
2, 10271, Note_on_c, 0, 84, 0
2, 10272, Note_on_c, 0, 81, 61
2, 10317, Note_on_c, 0, 81, 0
2, 10320, Note_on_c, 0, 78, 61
2, 10365, Note_on_c, 0, 78, 0
2, 10368, Note_on_c, 0, 82, 61
2, 10392, Note_on_c, 0, 82, 0
2, 10392, Note_on_c, 0, 83, 61
2, 10415, Note_on_c, 0, 83, 0
2, 10416, Note_on_c, 0, 79, 61
2, 10461, Note_on_c, 0, 79, 0
2, 10512, Note_on_c, 0, 80, 61
2, 10536, Note_on_c, 0, 80, 0
2, 10536, Note_on_c, 0, 81, 61
2, 10559, Note_on_c, 0, 81, 0
2, 10560, Note_on_c, 0, 78, 61
2, 10605, Note_on_c, 0, 78, 0
2, 10608, Note_on_c, 0, 75, 61
2, 10653, Note_on_c, 0, 75, 0
2, 10656, Note_on_c, 0, 78, 61
2, 10680, Note_on_c, 0, 78, 0
2, 10680, Note_on_c, 0, 79, 61
2, 10703, Note_on_c, 0, 79, 0
2, 10704, Note_on_c, 0, 76, 61
2, 10749, Note_on_c, 0, 76, 0
2, 10800, Note_on_c, 0, 75, 61
2, 10823, Note_on_c, 0, 75, 0
2, 10824, Note_on_c, 0, 76, 61
2, 10847, Note_on_c, 0, 76, 0
2, 10848, Note_on_c, 0, 78, 61
2, 10871, Note_on_c, 0, 78, 0
2, 10872, Note_on_c, 0, 79, 61
2, 10895, Note_on_c, 0, 79, 0
2, 10896, Note_on_c, 0, 81, 61
2, 10919, Note_on_c, 0, 81, 0
2, 10920, Note_on_c, 0, 79, 61
2, 10943, Note_on_c, 0, 79, 0
2, 10944, Note_on_c, 0, 79, 61
2, 10956, Note_on_c, 0, 79, 0
2, 10956, Note_on_c, 0, 81, 61
2, 10968, Note_on_c, 0, 81, 0
2, 10968, Note_on_c, 0, 79, 61
2, 10989, Note_on_c, 0, 79, 0
2, 10992, Note_on_c, 0, 78, 61
2, 11037, Note_on_c, 0, 78, 0
2, 11040, Note_on_c, 0, 76, 61
2, 11055, Note_on_c, 0, 76, 0
2, 11056, Note_on_c, 0, 78, 65
2, 11071, Note_on_c, 0, 78, 0
2, 11072, Note_on_c, 0, 80, 69
2, 11087, Note_on_c, 0, 80, 0
2, 11088, Note_on_c, 0, 76, 85
2, 11133, Note_on_c, 0, 76, 0
2, 11136, Note_on_c, 0, 80, 85
2, 11136, Note_on_c, 0, 76, 85
2, 11181, Note_on_c, 0, 80, 0
2, 11181, Note_on_c, 0, 76, 0
2, 11184, Note_on_c, 0, 83, 85
2, 11184, Note_on_c, 0, 80, 85
2, 11229, Note_on_c, 0, 83, 0
2, 11229, Note_on_c, 0, 80, 0
2, 11232, Note_on_c, 0, 83, 85
2, 11232, Note_on_c, 0, 80, 85
2, 11277, Note_on_c, 0, 83, 0
2, 11277, Note_on_c, 0, 80, 0
2, 11280, Note_on_c, 0, 81, 85
2, 11280, Note_on_c, 0, 78, 85
2, 11325, Note_on_c, 0, 81, 0
2, 11325, Note_on_c, 0, 78, 0
2, 11328, Note_on_c, 0, 75, 85
2, 11343, Note_on_c, 0, 75, 0
2, 11344, Note_on_c, 0, 76, 85
2, 11359, Note_on_c, 0, 76, 0
2, 11360, Note_on_c, 0, 78, 85
2, 11375, Note_on_c, 0, 78, 0
2, 11376, Note_on_c, 0, 71, 85
2, 11421, Note_on_c, 0, 71, 0
2, 11424, Note_on_c, 0, 78, 85
2, 11424, Note_on_c, 0, 75, 85
2, 11469, Note_on_c, 0, 78, 0
2, 11469, Note_on_c, 0, 75, 0
2, 11472, Note_on_c, 0, 81, 85
2, 11472, Note_on_c, 0, 78, 85
2, 11517, Note_on_c, 0, 81, 0
2, 11517, Note_on_c, 0, 78, 0
2, 11520, Note_on_c, 0, 81, 85
2, 11520, Note_on_c, 0, 78, 85
2, 11565, Note_on_c, 0, 81, 0
2, 11565, Note_on_c, 0, 78, 0
2, 11568, Note_on_c, 0, 80, 85
2, 11568, Note_on_c, 0, 76, 85
2, 11613, Note_on_c, 0, 80, 0
2, 11613, Note_on_c, 0, 76, 0
2, 11616, Note_on_c, 0, 76, 85
2, 11631, Note_on_c, 0, 76, 0
2, 11632, Note_on_c, 0, 78, 85
2, 11647, Note_on_c, 0, 78, 0
2, 11648, Note_on_c, 0, 80, 85
2, 11663, Note_on_c, 0, 80, 0
2, 11664, Note_on_c, 0, 76, 85
2, 11709, Note_on_c, 0, 76, 0
2, 11712, Note_on_c, 0, 80, 85
2, 11712, Note_on_c, 0, 76, 85
2, 11757, Note_on_c, 0, 80, 0
2, 11757, Note_on_c, 0, 76, 0
2, 11760, Note_on_c, 0, 83, 85
2, 11760, Note_on_c, 0, 80, 85
2, 11805, Note_on_c, 0, 83, 0
2, 11805, Note_on_c, 0, 80, 0
2, 11808, Note_on_c, 0, 83, 85
2, 11808, Note_on_c, 0, 80, 85
2, 11853, Note_on_c, 0, 83, 0
2, 11853, Note_on_c, 0, 80, 0
2, 11856, Note_on_c, 0, 81, 85
2, 11856, Note_on_c, 0, 78, 85
2, 11901, Note_on_c, 0, 81, 0
2, 11901, Note_on_c, 0, 78, 0
2, 11904, Note_on_c, 0, 75, 85
2, 11919, Note_on_c, 0, 75, 0
2, 11920, Note_on_c, 0, 76, 85
2, 11935, Note_on_c, 0, 76, 0
2, 11936, Note_on_c, 0, 78, 85
2, 11951, Note_on_c, 0, 78, 0
2, 11952, Note_on_c, 0, 71, 85
2, 11997, Note_on_c, 0, 71, 0
2, 12000, Note_on_c, 0, 78, 85
2, 12000, Note_on_c, 0, 75, 85
2, 12045, Note_on_c, 0, 78, 0
2, 12045, Note_on_c, 0, 75, 0
2, 12048, Note_on_c, 0, 81, 85
2, 12048, Note_on_c, 0, 78, 85
2, 12093, Note_on_c, 0, 81, 0
2, 12093, Note_on_c, 0, 78, 0
2, 12096, Note_on_c, 0, 81, 85
2, 12096, Note_on_c, 0, 78, 85
2, 12141, Note_on_c, 0, 81, 0
2, 12141, Note_on_c, 0, 78, 0
2, 12144, Note_on_c, 0, 80, 85
2, 12144, Note_on_c, 0, 76, 85
2, 12189, Note_on_c, 0, 80, 0
2, 12189, Note_on_c, 0, 76, 0
2, 12192, Note_on_c, 0, 76, 77
2, 12207, Note_on_c, 0, 76, 0
2, 12208, Note_on_c, 0, 78, 77
2, 12223, Note_on_c, 0, 78, 0
2, 12224, Note_on_c, 0, 80, 77
2, 12239, Note_on_c, 0, 80, 0
2, 12240, Note_on_c, 0, 71, 77
2, 12285, Note_on_c, 0, 71, 0
2, 12288, Note_on_c, 0, 76, 77
2, 12333, Note_on_c, 0, 76, 0
2, 12336, Note_on_c, 0, 74, 77
2, 12381, Note_on_c, 0, 74, 0
2, 12384, Note_on_c, 0, 76, 77
2, 12396, Note_on_c, 0, 76, 0
2, 12396, Note_on_c, 0, 74, 77
2, 12408, Note_on_c, 0, 74, 0
2, 12408, Note_on_c, 0, 76, 77
2, 12420, Note_on_c, 0, 76, 0
2, 12420, Note_on_c, 0, 74, 77
2, 12432, Note_on_c, 0, 74, 0
2, 12432, Note_on_c, 0, 73, 77
2, 12477, Note_on_c, 0, 73, 0
2, 12480, Note_on_c, 0, 75, 77
2, 12495, Note_on_c, 0, 75, 0
2, 12496, Note_on_c, 0, 78, 77
2, 12511, Note_on_c, 0, 78, 0
2, 12512, Note_on_c, 0, 81, 77
2, 12527, Note_on_c, 0, 81, 0
2, 12528, Note_on_c, 0, 80, 77
2, 12543, Note_on_c, 0, 80, 0
2, 12544, Note_on_c, 0, 81, 77
2, 12559, Note_on_c, 0, 81, 0
2, 12560, Note_on_c, 0, 83, 77
2, 12575, Note_on_c, 0, 83, 0
2, 12576, Note_on_c, 0, 76, 77
2, 12621, Note_on_c, 0, 76, 0
2, 12624, Note_on_c, 0, 76, 77
2, 12636, Note_on_c, 0, 76, 0
2, 12636, Note_on_c, 0, 75, 77
2, 12648, Note_on_c, 0, 75, 0
2, 12648, Note_on_c, 0, 76, 77
2, 12660, Note_on_c, 0, 76, 0
2, 12660, Note_on_c, 0, 75, 77
2, 12672, Note_on_c, 0, 75, 0
2, 12672, Note_on_c, 0, 75, 77
2, 12717, Note_on_c, 0, 75, 0
2, 12720, Note_on_c, 0, 76, 77
2, 12765, Note_on_c, 0, 76, 0
2, 12768, Note_on_c, 0, 64, 77
2, 12783, Note_on_c, 0, 64, 0
2, 12784, Note_on_c, 0, 66, 77
2, 12799, Note_on_c, 0, 66, 0
2, 12800, Note_on_c, 0, 68, 77
2, 12815, Note_on_c, 0, 68, 0
2, 12816, Note_on_c, 0, 64, 77
2, 12861, Note_on_c, 0, 64, 0
2, 12864, Note_on_c, 0, 68, 77
2, 12909, Note_on_c, 0, 68, 0
2, 12912, Note_on_c, 0, 71, 77
2, 12957, Note_on_c, 0, 71, 0
2, 12960, Note_on_c, 0, 71, 77
2, 13005, Note_on_c, 0, 71, 0
2, 13008, Note_on_c, 0, 76, 77
2, 13053, Note_on_c, 0, 76, 0
2, 13056, Note_on_c, 0, 71, 77
2, 13079, Note_on_c, 0, 71, 0
2, 13080, Note_on_c, 0, 68, 77
2, 13103, Note_on_c, 0, 68, 0
2, 13104, Note_on_c, 0, 71, 77
2, 13127, Note_on_c, 0, 71, 0
2, 13128, Note_on_c, 0, 69, 77
2, 13151, Note_on_c, 0, 69, 0
2, 13152, Note_on_c, 0, 69, 77
2, 13175, Note_on_c, 0, 69, 0
2, 13176, Note_on_c, 0, 66, 77
2, 13199, Note_on_c, 0, 66, 0
2, 13200, Note_on_c, 0, 68, 77
2, 13245, Note_on_c, 0, 68, 0
2, 13248, Note_on_c, 0, 71, 77
2, 13293, Note_on_c, 0, 71, 0
2, 13296, Note_on_c, 0, 76, 77
2, 13341, Note_on_c, 0, 76, 0
2, 13344, Note_on_c, 0, 68, 77
2, 13367, Note_on_c, 0, 68, 0
2, 13368, Note_on_c, 0, 64, 77
2, 13391, Note_on_c, 0, 64, 0
2, 13392, Note_on_c, 0, 68, 77
2, 13415, Note_on_c, 0, 68, 0
2, 13416, Note_on_c, 0, 66, 77
2, 13439, Note_on_c, 0, 66, 0
2, 13440, Note_on_c, 0, 66, 77
2, 13463, Note_on_c, 0, 66, 0
2, 13464, Note_on_c, 0, 63, 77
2, 13487, Note_on_c, 0, 63, 0
2, 13488, Note_on_c, 0, 64, 77
2, 13533, Note_on_c, 0, 64, 0
2, 13536, Note_on_c, 0, 59, 77
2, 13581, Note_on_c, 0, 59, 0
2, 13584, Note_on_c, 0, 69, 77
2, 13584, Note_on_c, 0, 66, 77
2, 13629, Note_on_c, 0, 69, 0
2, 13629, Note_on_c, 0, 66, 0
2, 13632, Note_on_c, 0, 68, 77
2, 13632, Note_on_c, 0, 64, 77
2, 13677, Note_on_c, 0, 68, 0
2, 13677, Note_on_c, 0, 64, 0
2, 13680, Note_on_c, 0, 69, 77
2, 13692, Note_on_c, 0, 69, 0
2, 13692, Note_on_c, 0, 68, 77
2, 13704, Note_on_c, 0, 68, 0
2, 13704, Note_on_c, 0, 69, 77
2, 13716, Note_on_c, 0, 69, 0
2, 13716, Note_on_c, 0, 68, 77
2, 13728, Note_on_c, 0, 68, 0
2, 13728, Note_on_c, 0, 66, 77
2, 13773, Note_on_c, 0, 66, 0
2, 13824, Note_on_c, 0, 77, 77
2, 13847, Note_on_c, 0, 77, 0
2, 13848, Note_on_c, 0, 71, 77
2, 13871, Note_on_c, 0, 71, 0
2, 13872, Note_on_c, 0, 80, 77
2, 13895, Note_on_c, 0, 80, 0
2, 13896, Note_on_c, 0, 77, 77
2, 13919, Note_on_c, 0, 77, 0
2, 13920, Note_on_c, 0, 83, 77
2, 13943, Note_on_c, 0, 83, 0
2, 13944, Note_on_c, 0, 80, 77
2, 13967, Note_on_c, 0, 80, 0
2, 13968, Note_on_c, 0, 81, 77
2, 13991, Note_on_c, 0, 81, 0
2, 13992, Note_on_c, 0, 85, 77
2, 14015, Note_on_c, 0, 85, 0
2, 14016, Note_on_c, 0, 83, 77
2, 14039, Note_on_c, 0, 83, 0
2, 14040, Note_on_c, 0, 81, 77
2, 14063, Note_on_c, 0, 81, 0
2, 14064, Note_on_c, 0, 80, 77
2, 14087, Note_on_c, 0, 80, 0
2, 14088, Note_on_c, 0, 78, 77
2, 14111, Note_on_c, 0, 78, 0
2, 14112, Note_on_c, 0, 77, 77
2, 14135, Note_on_c, 0, 77, 0
2, 14136, Note_on_c, 0, 71, 77
2, 14159, Note_on_c, 0, 71, 0
2, 14160, Note_on_c, 0, 80, 77
2, 14183, Note_on_c, 0, 80, 0
2, 14184, Note_on_c, 0, 77, 77
2, 14207, Note_on_c, 0, 77, 0
2, 14208, Note_on_c, 0, 83, 77
2, 14231, Note_on_c, 0, 83, 0
2, 14232, Note_on_c, 0, 80, 77
2, 14255, Note_on_c, 0, 80, 0
2, 14256, Note_on_c, 0, 81, 77
2, 14256, Note_on_c, 0, 78, 77
2, 14345, Note_on_c, 0, 81, 0
2, 14345, Note_on_c, 0, 78, 0
2, 14400, Note_on_c, 0, 75, 77
2, 14423, Note_on_c, 0, 75, 0
2, 14424, Note_on_c, 0, 71, 77
2, 14447, Note_on_c, 0, 71, 0
2, 14448, Note_on_c, 0, 78, 77
2, 14471, Note_on_c, 0, 78, 0
2, 14472, Note_on_c, 0, 75, 77
2, 14495, Note_on_c, 0, 75, 0
2, 14496, Note_on_c, 0, 81, 77
2, 14519, Note_on_c, 0, 81, 0
2, 14520, Note_on_c, 0, 78, 77
2, 14543, Note_on_c, 0, 78, 0
2, 14544, Note_on_c, 0, 80, 77
2, 14567, Note_on_c, 0, 80, 0
2, 14568, Note_on_c, 0, 83, 77
2, 14591, Note_on_c, 0, 83, 0
2, 14592, Note_on_c, 0, 81, 77
2, 14615, Note_on_c, 0, 81, 0
2, 14616, Note_on_c, 0, 80, 77
2, 14639, Note_on_c, 0, 80, 0
2, 14640, Note_on_c, 0, 78, 77
2, 14663, Note_on_c, 0, 78, 0
2, 14664, Note_on_c, 0, 76, 77
2, 14687, Note_on_c, 0, 76, 0
2, 14688, Note_on_c, 0, 75, 77
2, 14711, Note_on_c, 0, 75, 0
2, 14712, Note_on_c, 0, 71, 77
2, 14735, Note_on_c, 0, 71, 0
2, 14736, Note_on_c, 0, 78, 77
2, 14759, Note_on_c, 0, 78, 0
2, 14760, Note_on_c, 0, 75, 77
2, 14783, Note_on_c, 0, 75, 0
2, 14784, Note_on_c, 0, 81, 77
2, 14807, Note_on_c, 0, 81, 0
2, 14808, Note_on_c, 0, 78, 77
2, 14831, Note_on_c, 0, 78, 0
2, 14832, Note_on_c, 0, 80, 77
2, 14832, Note_on_c, 0, 76, 77
2, 14921, Note_on_c, 0, 80, 0
2, 14921, Note_on_c, 0, 76, 0
2, 14976, Note_on_c, 0, 68, 77
2, 14999, Note_on_c, 0, 68, 0
2, 15000, Note_on_c, 0, 71, 77
2, 15023, Note_on_c, 0, 71, 0
2, 15024, Note_on_c, 0, 69, 77
2, 15047, Note_on_c, 0, 69, 0
2, 15048, Note_on_c, 0, 68, 77
2, 15071, Note_on_c, 0, 68, 0
2, 15072, Note_on_c, 0, 66, 77
2, 15095, Note_on_c, 0, 66, 0
2, 15096, Note_on_c, 0, 64, 77
2, 15119, Note_on_c, 0, 64, 0
2, 15120, Note_on_c, 0, 74, 77
2, 15120, Note_on_c, 0, 71, 77
2, 15216, Note_on_c, 0, 74, 0
2, 15216, Note_on_c, 0, 71, 0
2, 15216, Note_on_c, 0, 73, 77
2, 15216, Note_on_c, 0, 69, 77
2, 15261, Note_on_c, 0, 73, 0
2, 15261, Note_on_c, 0, 69, 0
2, 15264, Note_on_c, 0, 70, 77
2, 15287, Note_on_c, 0, 70, 0
2, 15288, Note_on_c, 0, 73, 77
2, 15311, Note_on_c, 0, 73, 0
2, 15312, Note_on_c, 0, 71, 77
2, 15335, Note_on_c, 0, 71, 0
2, 15336, Note_on_c, 0, 70, 77
2, 15359, Note_on_c, 0, 70, 0
2, 15360, Note_on_c, 0, 68, 77
2, 15383, Note_on_c, 0, 68, 0
2, 15384, Note_on_c, 0, 66, 77
2, 15407, Note_on_c, 0, 66, 0
2, 15408, Note_on_c, 0, 76, 77
2, 15408, Note_on_c, 0, 73, 77
2, 15504, Note_on_c, 0, 76, 0
2, 15504, Note_on_c, 0, 73, 0
2, 15504, Note_on_c, 0, 75, 77
2, 15504, Note_on_c, 0, 71, 77
2, 15549, Note_on_c, 0, 75, 0
2, 15549, Note_on_c, 0, 71, 0
2, 15552, Note_on_c, 0, 75, 77
2, 15575, Note_on_c, 0, 75, 0
2, 15576, Note_on_c, 0, 78, 77
2, 15599, Note_on_c, 0, 78, 0
2, 15600, Note_on_c, 0, 76, 77
2, 15623, Note_on_c, 0, 76, 0
2, 15624, Note_on_c, 0, 75, 77
2, 15647, Note_on_c, 0, 75, 0
2, 15648, Note_on_c, 0, 73, 77
2, 15671, Note_on_c, 0, 73, 0
2, 15672, Note_on_c, 0, 71, 77
2, 15695, Note_on_c, 0, 71, 0
2, 15696, Note_on_c, 0, 81, 77
2, 15696, Note_on_c, 0, 78, 77
2, 15792, Note_on_c, 0, 81, 0
2, 15792, Note_on_c, 0, 78, 0
2, 15792, Note_on_c, 0, 80, 77
2, 15792, Note_on_c, 0, 76, 77
2, 15837, Note_on_c, 0, 80, 0
2, 15837, Note_on_c, 0, 76, 0
2, 15840, Note_on_c, 0, 80, 77
2, 15840, Note_on_c, 0, 76, 77
2, 15888, Note_on_c, 0, 80, 0
2, 15888, Note_on_c, 0, 76, 0
2, 15888, Note_on_c, 0, 78, 77
2, 15888, Note_on_c, 0, 75, 77
2, 15933, Note_on_c, 0, 78, 0
2, 15933, Note_on_c, 0, 75, 0
2, 15984, Note_on_c, 0, 71, 77
2, 16073, Note_on_c, 0, 71, 0
2, 16080, Note_on_c, 0, 73, 78
2, 16080, Note_on_c, 0, 70, 78
2, 16125, Note_on_c, 0, 73, 0
2, 16125, Note_on_c, 0, 70, 0
2, 16128, Note_on_c, 0, 75, 79
2, 16128, Note_on_c, 0, 71, 79
2, 16217, Note_on_c, 0, 75, 0
2, 16217, Note_on_c, 0, 71, 0
2, 16224, Note_on_c, 0, 76, 80
2, 16224, Note_on_c, 0, 73, 80
2, 16269, Note_on_c, 0, 76, 0
2, 16269, Note_on_c, 0, 73, 0
2, 16272, Note_on_c, 0, 78, 81
2, 16272, Note_on_c, 0, 75, 81
2, 16317, Note_on_c, 0, 78, 0
2, 16317, Note_on_c, 0, 75, 0
2, 16320, Note_on_c, 0, 81, 82
2, 16320, Note_on_c, 0, 78, 82
2, 16365, Note_on_c, 0, 81, 0
2, 16365, Note_on_c, 0, 78, 0
2, 16368, Note_on_c, 0, 80, 82
2, 16368, Note_on_c, 0, 76, 82
2, 16413, Note_on_c, 0, 80, 0
2, 16413, Note_on_c, 0, 76, 0
2, 16416, Note_on_c, 0, 78, 83
2, 16416, Note_on_c, 0, 75, 83
2, 16505, Note_on_c, 0, 78, 0
2, 16505, Note_on_c, 0, 75, 0
2, 16560, Note_on_c, 0, 71, 85
2, 16649, Note_on_c, 0, 71, 0
2, 16656, Note_on_c, 0, 73, 77
2, 16656, Note_on_c, 0, 70, 77
2, 16701, Note_on_c, 0, 73, 0
2, 16701, Note_on_c, 0, 70, 0
2, 16704, Note_on_c, 0, 75, 77
2, 16704, Note_on_c, 0, 71, 77
2, 16793, Note_on_c, 0, 75, 0
2, 16793, Note_on_c, 0, 71, 0
2, 16800, Note_on_c, 0, 76, 79
2, 16800, Note_on_c, 0, 73, 79
2, 16845, Note_on_c, 0, 76, 0
2, 16845, Note_on_c, 0, 73, 0
2, 16848, Note_on_c, 0, 78, 80
2, 16848, Note_on_c, 0, 75, 80
2, 16893, Note_on_c, 0, 78, 0
2, 16893, Note_on_c, 0, 75, 0
2, 16896, Note_on_c, 0, 81, 81
2, 16896, Note_on_c, 0, 78, 81
2, 16941, Note_on_c, 0, 81, 0
2, 16941, Note_on_c, 0, 78, 0
2, 16944, Note_on_c, 0, 80, 82
2, 16944, Note_on_c, 0, 76, 82
2, 16989, Note_on_c, 0, 80, 0
2, 16989, Note_on_c, 0, 76, 0
2, 16992, Note_on_c, 0, 78, 83
2, 16992, Note_on_c, 0, 75, 83
2, 17081, Note_on_c, 0, 78, 0
2, 17081, Note_on_c, 0, 75, 0
2, 17136, Note_on_c, 0, 71, 85
2, 17136, Note_on_c, 0, 68, 85
2, 17225, Note_on_c, 0, 71, 0
2, 17225, Note_on_c, 0, 68, 0
2, 17232, Note_on_c, 0, 76, 85
2, 17256, Note_on_c, 0, 76, 0
2, 17256, Note_on_c, 0, 71, 85
2, 17279, Note_on_c, 0, 71, 0
2, 17280, Note_on_c, 0, 74, 85
2, 17292, Note_on_c, 0, 74, 0
2, 17292, Note_on_c, 0, 73, 85
2, 17304, Note_on_c, 0, 73, 0
2, 17304, Note_on_c, 0, 74, 85
2, 17316, Note_on_c, 0, 74, 0
2, 17316, Note_on_c, 0, 73, 85
2, 17328, Note_on_c, 0, 73, 0
2, 17328, Note_on_c, 0, 71, 85
2, 17373, Note_on_c, 0, 71, 0
2, 17424, Note_on_c, 0, 81, 85
2, 17424, Note_on_c, 0, 75, 85
2, 17472, Note_on_c, 0, 81, 0
2, 17472, Note_on_c, 0, 75, 0
2, 17472, Note_on_c, 0, 80, 85
2, 17472, Note_on_c, 0, 76, 85
2, 17517, Note_on_c, 0, 80, 0
2, 17517, Note_on_c, 0, 76, 0
2, 17568, Note_on_c, 0, 74, 85
2, 17580, Note_on_c, 0, 74, 0
2, 17580, Note_on_c, 0, 73, 85
2, 17592, Note_on_c, 0, 73, 0
2, 17592, Note_on_c, 0, 74, 85
2, 17604, Note_on_c, 0, 74, 0
2, 17604, Note_on_c, 0, 73, 85
2, 17616, Note_on_c, 0, 73, 0
2, 17616, Note_on_c, 0, 71, 85
2, 17661, Note_on_c, 0, 71, 0
2, 17712, Note_on_c, 0, 81, 85
2, 17712, Note_on_c, 0, 75, 85
2, 17760, Note_on_c, 0, 81, 0
2, 17760, Note_on_c, 0, 75, 0
2, 17760, Note_on_c, 0, 80, 85
2, 17760, Note_on_c, 0, 76, 85
2, 17805, Note_on_c, 0, 80, 0
2, 17805, Note_on_c, 0, 76, 0
2, 17856, Note_on_c, 0, 81, 85
2, 17879, Note_on_c, 0, 81, 0
2, 17880, Note_on_c, 0, 78, 84
2, 17903, Note_on_c, 0, 78, 0
2, 17904, Note_on_c, 0, 85, 84
2, 17927, Note_on_c, 0, 85, 0
2, 17928, Note_on_c, 0, 81, 83
2, 17951, Note_on_c, 0, 81, 0
2, 17952, Note_on_c, 0, 80, 83
2, 17975, Note_on_c, 0, 80, 0
2, 17976, Note_on_c, 0, 78, 82
2, 17999, Note_on_c, 0, 78, 0
2, 18000, Note_on_c, 0, 80, 82
2, 18023, Note_on_c, 0, 80, 0
2, 18024, Note_on_c, 0, 76, 81
2, 18047, Note_on_c, 0, 76, 0
2, 18048, Note_on_c, 0, 83, 81
2, 18071, Note_on_c, 0, 83, 0
2, 18072, Note_on_c, 0, 80, 80
2, 18095, Note_on_c, 0, 80, 0
2, 18096, Note_on_c, 0, 78, 80
2, 18119, Note_on_c, 0, 78, 0
2, 18120, Note_on_c, 0, 76, 79
2, 18143, Note_on_c, 0, 76, 0
2, 18144, Note_on_c, 0, 78, 79
2, 18167, Note_on_c, 0, 78, 0
2, 18168, Note_on_c, 0, 75, 78
2, 18191, Note_on_c, 0, 75, 0
2, 18192, Note_on_c, 0, 81, 78
2, 18215, Note_on_c, 0, 81, 0
2, 18216, Note_on_c, 0, 78, 77
2, 18239, Note_on_c, 0, 78, 0
2, 18240, Note_on_c, 0, 76, 77
2, 18263, Note_on_c, 0, 76, 0
2, 18264, Note_on_c, 0, 75, 77
2, 18287, Note_on_c, 0, 75, 0
2, 18288, Note_on_c, 0, 76, 76
2, 18311, Note_on_c, 0, 76, 0
2, 18312, Note_on_c, 0, 73, 76
2, 18335, Note_on_c, 0, 73, 0
2, 18336, Note_on_c, 0, 80, 75
2, 18359, Note_on_c, 0, 80, 0
2, 18360, Note_on_c, 0, 76, 75
2, 18383, Note_on_c, 0, 76, 0
2, 18384, Note_on_c, 0, 75, 74
2, 18407, Note_on_c, 0, 75, 0
2, 18408, Note_on_c, 0, 73, 74
2, 18431, Note_on_c, 0, 73, 0
2, 18432, Note_on_c, 0, 75, 73
2, 18447, Note_on_c, 0, 75, 0
2, 18448, Note_on_c, 0, 76, 73
2, 18463, Note_on_c, 0, 76, 0
2, 18464, Note_on_c, 0, 78, 73
2, 18479, Note_on_c, 0, 78, 0
2, 18480, Note_on_c, 0, 76, 73
2, 18525, Note_on_c, 0, 76, 0
2, 18528, Note_on_c, 0, 76, 72
2, 18540, Note_on_c, 0, 76, 0
2, 18540, Note_on_c, 0, 75, 71
2, 18552, Note_on_c, 0, 75, 0
2, 18552, Note_on_c, 0, 76, 71
2, 18564, Note_on_c, 0, 76, 0
2, 18564, Note_on_c, 0, 75, 71
2, 18576, Note_on_c, 0, 75, 0
2, 18576, Note_on_c, 0, 73, 71
2, 18665, Note_on_c, 0, 73, 0
2, 18672, Note_on_c, 0, 69, 77
2, 18687, Note_on_c, 0, 69, 0
2, 18688, Note_on_c, 0, 71, 77
2, 18703, Note_on_c, 0, 71, 0
2, 18704, Note_on_c, 0, 73, 77
2, 18719, Note_on_c, 0, 73, 0
2, 18720, Note_on_c, 0, 69, 77
2, 18765, Note_on_c, 0, 69, 0
2, 18768, Note_on_c, 0, 73, 77
2, 18813, Note_on_c, 0, 73, 0
2, 18816, Note_on_c, 0, 76, 77
2, 18861, Note_on_c, 0, 76, 0
2, 18864, Note_on_c, 0, 76, 77
2, 18909, Note_on_c, 0, 76, 0
2, 18912, Note_on_c, 0, 81, 77
2, 18957, Note_on_c, 0, 81, 0
2, 18960, Note_on_c, 0, 76, 77
2, 18983, Note_on_c, 0, 76, 0
2, 18984, Note_on_c, 0, 73, 77
2, 19007, Note_on_c, 0, 73, 0
2, 19008, Note_on_c, 0, 76, 77
2, 19031, Note_on_c, 0, 76, 0
2, 19032, Note_on_c, 0, 74, 77
2, 19055, Note_on_c, 0, 74, 0
2, 19056, Note_on_c, 0, 74, 77
2, 19079, Note_on_c, 0, 74, 0
2, 19080, Note_on_c, 0, 71, 77
2, 19103, Note_on_c, 0, 71, 0
2, 19104, Note_on_c, 0, 73, 77
2, 19149, Note_on_c, 0, 73, 0
2, 19152, Note_on_c, 0, 76, 77
2, 19197, Note_on_c, 0, 76, 0
2, 19200, Note_on_c, 0, 81, 77
2, 19245, Note_on_c, 0, 81, 0
2, 19248, Note_on_c, 0, 73, 77
2, 19271, Note_on_c, 0, 73, 0
2, 19272, Note_on_c, 0, 69, 77
2, 19295, Note_on_c, 0, 69, 0
2, 19296, Note_on_c, 0, 73, 77
2, 19319, Note_on_c, 0, 73, 0
2, 19320, Note_on_c, 0, 71, 77
2, 19343, Note_on_c, 0, 71, 0
2, 19344, Note_on_c, 0, 71, 77
2, 19367, Note_on_c, 0, 71, 0
2, 19368, Note_on_c, 0, 68, 77
2, 19391, Note_on_c, 0, 68, 0
2, 19392, Note_on_c, 0, 69, 77
2, 19437, Note_on_c, 0, 69, 0
2, 19440, Note_on_c, 0, 64, 77
2, 19485, Note_on_c, 0, 64, 0
2, 19488, Note_on_c, 0, 74, 77
2, 19488, Note_on_c, 0, 71, 77
2, 19533, Note_on_c, 0, 74, 0
2, 19533, Note_on_c, 0, 71, 0
2, 19536, Note_on_c, 0, 73, 77
2, 19536, Note_on_c, 0, 69, 77
2, 19581, Note_on_c, 0, 73, 0
2, 19581, Note_on_c, 0, 69, 0
2, 19584, Note_on_c, 0, 74, 77
2, 19596, Note_on_c, 0, 74, 0
2, 19596, Note_on_c, 0, 73, 77
2, 19608, Note_on_c, 0, 73, 0
2, 19608, Note_on_c, 0, 74, 77
2, 19620, Note_on_c, 0, 74, 0
2, 19620, Note_on_c, 0, 73, 77
2, 19632, Note_on_c, 0, 73, 0
2, 19632, Note_on_c, 0, 71, 77
2, 19677, Note_on_c, 0, 71, 0
2, 19728, Note_on_c, 0, 64, 77
2, 19773, Note_on_c, 0, 64, 0
2, 19776, Note_on_c, 0, 69, 77
2, 19791, Note_on_c, 0, 69, 0
2, 19792, Note_on_c, 0, 67, 77
2, 19807, Note_on_c, 0, 67, 0
2, 19808, Note_on_c, 0, 66, 77
2, 19823, Note_on_c, 0, 66, 0
2, 19824, Note_on_c, 0, 67, 77
2, 19839, Note_on_c, 0, 67, 0
2, 19840, Note_on_c, 0, 66, 77
2, 19855, Note_on_c, 0, 66, 0
2, 19856, Note_on_c, 0, 64, 77
2, 19871, Note_on_c, 0, 64, 0
2, 19872, Note_on_c, 0, 66, 77
2, 19887, Note_on_c, 0, 66, 0
2, 19888, Note_on_c, 0, 62, 77
2, 19903, Note_on_c, 0, 62, 0
2, 19904, Note_on_c, 0, 66, 77
2, 19919, Note_on_c, 0, 66, 0
2, 19920, Note_on_c, 0, 69, 77
2, 19935, Note_on_c, 0, 69, 0
2, 19936, Note_on_c, 0, 66, 77
2, 19951, Note_on_c, 0, 66, 0
2, 19952, Note_on_c, 0, 69, 77
2, 19967, Note_on_c, 0, 69, 0
2, 19968, Note_on_c, 0, 74, 77
2, 20013, Note_on_c, 0, 74, 0
2, 20016, Note_on_c, 0, 66, 77
2, 20061, Note_on_c, 0, 66, 0
2, 20064, Note_on_c, 0, 71, 77
2, 20079, Note_on_c, 0, 71, 0
2, 20080, Note_on_c, 0, 69, 77
2, 20095, Note_on_c, 0, 69, 0
2, 20096, Note_on_c, 0, 68, 77
2, 20111, Note_on_c, 0, 68, 0
2, 20112, Note_on_c, 0, 69, 77
2, 20127, Note_on_c, 0, 69, 0
2, 20128, Note_on_c, 0, 68, 77
2, 20143, Note_on_c, 0, 68, 0
2, 20144, Note_on_c, 0, 66, 77
2, 20159, Note_on_c, 0, 66, 0
2, 20160, Note_on_c, 0, 68, 77
2, 20175, Note_on_c, 0, 68, 0
2, 20176, Note_on_c, 0, 64, 77
2, 20191, Note_on_c, 0, 64, 0
2, 20192, Note_on_c, 0, 68, 77
2, 20207, Note_on_c, 0, 68, 0
2, 20208, Note_on_c, 0, 71, 77
2, 20223, Note_on_c, 0, 71, 0
2, 20224, Note_on_c, 0, 68, 77
2, 20239, Note_on_c, 0, 68, 0
2, 20240, Note_on_c, 0, 71, 77
2, 20255, Note_on_c, 0, 71, 0
2, 20256, Note_on_c, 0, 76, 77
2, 20301, Note_on_c, 0, 76, 0
2, 20304, Note_on_c, 0, 64, 77
2, 20349, Note_on_c, 0, 64, 0
2, 20352, Note_on_c, 0, 74, 77
2, 20375, Note_on_c, 0, 74, 0
2, 20376, Note_on_c, 0, 71, 77
2, 20399, Note_on_c, 0, 71, 0
2, 20400, Note_on_c, 0, 73, 77
2, 20423, Note_on_c, 0, 73, 0
2, 20424, Note_on_c, 0, 69, 77
2, 20447, Note_on_c, 0, 69, 0
2, 20448, Note_on_c, 0, 69, 77
2, 20471, Note_on_c, 0, 69, 0
2, 20472, Note_on_c, 0, 68, 77
2, 20495, Note_on_c, 0, 68, 0
2, 20496, Note_on_c, 0, 71, 77
2, 20519, Note_on_c, 0, 71, 0
2, 20520, Note_on_c, 0, 68, 77
2, 20543, Note_on_c, 0, 68, 0
2, 20544, Note_on_c, 0, 69, 77
2, 20589, Note_on_c, 0, 69, 0
2, 20592, Note_on_c, 0, 64, 69
2, 20637, Note_on_c, 0, 64, 0
2, 20640, Note_on_c, 0, 74, 69
2, 20663, Note_on_c, 0, 74, 0
2, 20664, Note_on_c, 0, 71, 69
2, 20687, Note_on_c, 0, 71, 0
2, 20688, Note_on_c, 0, 73, 69
2, 20711, Note_on_c, 0, 73, 0
2, 20712, Note_on_c, 0, 69, 69
2, 20735, Note_on_c, 0, 69, 0
2, 20736, Note_on_c, 0, 69, 69
2, 20759, Note_on_c, 0, 69, 0
2, 20760, Note_on_c, 0, 68, 69
2, 20783, Note_on_c, 0, 68, 0
2, 20784, Note_on_c, 0, 71, 69
2, 20807, Note_on_c, 0, 71, 0
2, 20808, Note_on_c, 0, 68, 69
2, 20831, Note_on_c, 0, 68, 0
2, 20832, Note_on_c, 0, 69, 69
2, 20877, Note_on_c, 0, 69, 0
2, 20880, Note_on_c, 0, 68, 77
2, 20892, Note_on_c, 0, 68, 0
2, 20892, Note_on_c, 0, 66, 77
2, 20904, Note_on_c, 0, 66, 0
2, 20904, Note_on_c, 0, 64, 77
2, 20916, Note_on_c, 0, 64, 0
2, 20916, Note_on_c, 0, 66, 77
2, 20928, Note_on_c, 0, 66, 0
2, 20928, Note_on_c, 0, 74, 77
2, 20973, Note_on_c, 0, 74, 0
2, 21024, Note_on_c, 0, 66, 77
2, 21036, Note_on_c, 0, 66, 0
2, 21036, Note_on_c, 0, 64, 77
2, 21048, Note_on_c, 0, 64, 0
2, 21048, Note_on_c, 0, 62, 77
2, 21060, Note_on_c, 0, 62, 0
2, 21060, Note_on_c, 0, 64, 77
2, 21072, Note_on_c, 0, 64, 0
2, 21072, Note_on_c, 0, 73, 77
2, 21117, Note_on_c, 0, 73, 0
2, 21168, Note_on_c, 0, 64, 77
2, 21180, Note_on_c, 0, 64, 0
2, 21180, Note_on_c, 0, 62, 77
2, 21192, Note_on_c, 0, 62, 0
2, 21192, Note_on_c, 0, 61, 77
2, 21204, Note_on_c, 0, 61, 0
2, 21204, Note_on_c, 0, 62, 77
2, 21216, Note_on_c, 0, 62, 0
2, 21216, Note_on_c, 0, 71, 77
2, 21261, Note_on_c, 0, 71, 0
2, 21312, Note_on_c, 0, 62, 77
2, 21324, Note_on_c, 0, 62, 0
2, 21324, Note_on_c, 0, 61, 77
2, 21336, Note_on_c, 0, 61, 0
2, 21336, Note_on_c, 0, 59, 77
2, 21348, Note_on_c, 0, 59, 0
2, 21348, Note_on_c, 0, 61, 77
2, 21360, Note_on_c, 0, 61, 0
2, 21360, Note_on_c, 0, 69, 77
2, 21405, Note_on_c, 0, 69, 0
2, 21456, Note_on_c, 0, 74, 77
2, 21468, Note_on_c, 0, 74, 0
2, 21468, Note_on_c, 0, 73, 77
2, 21480, Note_on_c, 0, 73, 0
2, 21480, Note_on_c, 0, 71, 77
2, 21492, Note_on_c, 0, 71, 0
2, 21492, Note_on_c, 0, 73, 77
2, 21504, Note_on_c, 0, 73, 0
2, 21504, Note_on_c, 0, 81, 77
2, 21549, Note_on_c, 0, 81, 0
2, 21600, Note_on_c, 0, 73, 77
2, 21612, Note_on_c, 0, 73, 0
2, 21612, Note_on_c, 0, 71, 77
2, 21624, Note_on_c, 0, 71, 0
2, 21624, Note_on_c, 0, 69, 77
2, 21636, Note_on_c, 0, 69, 0
2, 21636, Note_on_c, 0, 71, 77
2, 21648, Note_on_c, 0, 71, 0
2, 21672, Note_on_c, 0, 74, 77
2, 21695, Note_on_c, 0, 74, 0
2, 21696, Note_on_c, 0, 73, 77
2, 21708, Note_on_c, 0, 73, 0
2, 21708, Note_on_c, 0, 76, 77
2, 21720, Note_on_c, 0, 76, 0
2, 21720, Note_on_c, 0, 68, 77
2, 21732, Note_on_c, 0, 68, 0
2, 21732, Note_on_c, 0, 71, 77
2, 21744, Note_on_c, 0, 71, 0
2, 21744, Note_on_c, 0, 69, 77
2, 21833, Note_on_c, 0, 69, 0
2, 21888, Note_on_c, 0, 69, 61
2, 21933, Note_on_c, 0, 69, 0
2, 21936, Note_on_c, 0, 71, 61
2, 21981, Note_on_c, 0, 71, 0
2, 21984, Note_on_c, 0, 68, 61
2, 22029, Note_on_c, 0, 68, 0
2, 22032, Note_on_c, 0, 69, 61
2, 22055, Note_on_c, 0, 69, 0
2, 22056, Note_on_c, 0, 77, 61
2, 22079, Note_on_c, 0, 77, 0
2, 22080, Note_on_c, 0, 76, 61
2, 22103, Note_on_c, 0, 76, 0
2, 22104, Note_on_c, 0, 74, 61
2, 22127, Note_on_c, 0, 74, 0
2, 22128, Note_on_c, 0, 72, 61
2, 22151, Note_on_c, 0, 72, 0
2, 22152, Note_on_c, 0, 71, 61
2, 22175, Note_on_c, 0, 71, 0
2, 22176, Note_on_c, 0, 69, 61
2, 22221, Note_on_c, 0, 69, 0
2, 22224, Note_on_c, 0, 71, 61
2, 22269, Note_on_c, 0, 71, 0
2, 22272, Note_on_c, 0, 68, 61
2, 22317, Note_on_c, 0, 68, 0
2, 22320, Note_on_c, 0, 69, 61
2, 22343, Note_on_c, 0, 69, 0
2, 22344, Note_on_c, 0, 71, 61
2, 22367, Note_on_c, 0, 71, 0
2, 22368, Note_on_c, 0, 72, 61
2, 22391, Note_on_c, 0, 72, 0
2, 22392, Note_on_c, 0, 74, 61
2, 22415, Note_on_c, 0, 74, 0
2, 22416, Note_on_c, 0, 76, 61
2, 22461, Note_on_c, 0, 76, 0
2, 22464, Note_on_c, 0, 76, 61
2, 22487, Note_on_c, 0, 76, 0
2, 22488, Note_on_c, 0, 77, 61
2, 22511, Note_on_c, 0, 77, 0
2, 22512, Note_on_c, 0, 74, 61
2, 22557, Note_on_c, 0, 74, 0
2, 22560, Note_on_c, 0, 71, 61
2, 22605, Note_on_c, 0, 71, 0
2, 22608, Note_on_c, 0, 75, 61
2, 22631, Note_on_c, 0, 75, 0
2, 22632, Note_on_c, 0, 76, 61
2, 22655, Note_on_c, 0, 76, 0
2, 22656, Note_on_c, 0, 72, 61
2, 22701, Note_on_c, 0, 72, 0
2, 22752, Note_on_c, 0, 73, 61
2, 22775, Note_on_c, 0, 73, 0
2, 22776, Note_on_c, 0, 74, 61
2, 22799, Note_on_c, 0, 74, 0
2, 22800, Note_on_c, 0, 71, 61
2, 22845, Note_on_c, 0, 71, 0
2, 22848, Note_on_c, 0, 68, 61
2, 22893, Note_on_c, 0, 68, 0
2, 22896, Note_on_c, 0, 71, 61
2, 22919, Note_on_c, 0, 71, 0
2, 22920, Note_on_c, 0, 72, 61
2, 22943, Note_on_c, 0, 72, 0
2, 22944, Note_on_c, 0, 69, 61
2, 22989, Note_on_c, 0, 69, 0
2, 23040, Note_on_c, 0, 68, 61
2, 23063, Note_on_c, 0, 68, 0
2, 23064, Note_on_c, 0, 69, 61
2, 23087, Note_on_c, 0, 69, 0
2, 23088, Note_on_c, 0, 71, 61
2, 23111, Note_on_c, 0, 71, 0
2, 23112, Note_on_c, 0, 72, 61
2, 23135, Note_on_c, 0, 72, 0
2, 23136, Note_on_c, 0, 74, 61
2, 23159, Note_on_c, 0, 74, 0
2, 23160, Note_on_c, 0, 72, 61
2, 23183, Note_on_c, 0, 72, 0
2, 23184, Note_on_c, 0, 74, 61
2, 23196, Note_on_c, 0, 74, 0
2, 23196, Note_on_c, 0, 72, 61
2, 23208, Note_on_c, 0, 72, 0
2, 23208, Note_on_c, 0, 74, 61
2, 23220, Note_on_c, 0, 74, 0
2, 23220, Note_on_c, 0, 72, 61
2, 23232, Note_on_c, 0, 72, 0
2, 23232, Note_on_c, 0, 71, 61
2, 23277, Note_on_c, 0, 71, 0
2, 23280, Note_on_c, 0, 69, 73
2, 23295, Note_on_c, 0, 69, 0
2, 23296, Note_on_c, 0, 71, 76
2, 23311, Note_on_c, 0, 71, 0
2, 23312, Note_on_c, 0, 73, 79
2, 23327, Note_on_c, 0, 73, 0
2, 23328, Note_on_c, 0, 69, 85
2, 23373, Note_on_c, 0, 69, 0
2, 23376, Note_on_c, 0, 73, 85
2, 23376, Note_on_c, 0, 69, 85
2, 23421, Note_on_c, 0, 73, 0
2, 23421, Note_on_c, 0, 69, 0
2, 23424, Note_on_c, 0, 76, 85
2, 23424, Note_on_c, 0, 73, 85
2, 23469, Note_on_c, 0, 76, 0
2, 23469, Note_on_c, 0, 73, 0
2, 23472, Note_on_c, 0, 76, 85
2, 23472, Note_on_c, 0, 73, 85
2, 23517, Note_on_c, 0, 76, 0
2, 23517, Note_on_c, 0, 73, 0
2, 23520, Note_on_c, 0, 74, 85
2, 23520, Note_on_c, 0, 71, 85
2, 23565, Note_on_c, 0, 74, 0
2, 23565, Note_on_c, 0, 71, 0
2, 23568, Note_on_c, 0, 68, 85
2, 23583, Note_on_c, 0, 68, 0
2, 23584, Note_on_c, 0, 69, 85
2, 23599, Note_on_c, 0, 69, 0
2, 23600, Note_on_c, 0, 71, 85
2, 23615, Note_on_c, 0, 71, 0
2, 23616, Note_on_c, 0, 64, 85
2, 23661, Note_on_c, 0, 64, 0
2, 23664, Note_on_c, 0, 71, 85
2, 23664, Note_on_c, 0, 68, 85
2, 23709, Note_on_c, 0, 71, 0
2, 23709, Note_on_c, 0, 68, 0
2, 23712, Note_on_c, 0, 74, 85
2, 23712, Note_on_c, 0, 71, 85
2, 23757, Note_on_c, 0, 74, 0
2, 23757, Note_on_c, 0, 71, 0
2, 23760, Note_on_c, 0, 74, 85
2, 23760, Note_on_c, 0, 71, 85
2, 23805, Note_on_c, 0, 74, 0
2, 23805, Note_on_c, 0, 71, 0
2, 23808, Note_on_c, 0, 73, 85
2, 23808, Note_on_c, 0, 69, 85
2, 23853, Note_on_c, 0, 73, 0
2, 23853, Note_on_c, 0, 69, 0
2, 23856, Note_on_c, 0, 69, 85
2, 23871, Note_on_c, 0, 69, 0
2, 23872, Note_on_c, 0, 71, 85
2, 23887, Note_on_c, 0, 71, 0
2, 23888, Note_on_c, 0, 73, 85
2, 23903, Note_on_c, 0, 73, 0
2, 23904, Note_on_c, 0, 69, 85
2, 23949, Note_on_c, 0, 69, 0
2, 23952, Note_on_c, 0, 73, 85
2, 23952, Note_on_c, 0, 69, 85
2, 23997, Note_on_c, 0, 73, 0
2, 23997, Note_on_c, 0, 69, 0
2, 24000, Note_on_c, 0, 76, 85
2, 24000, Note_on_c, 0, 73, 85
2, 24045, Note_on_c, 0, 76, 0
2, 24045, Note_on_c, 0, 73, 0
2, 24048, Note_on_c, 0, 76, 85
2, 24048, Note_on_c, 0, 73, 85
2, 24093, Note_on_c, 0, 76, 0
2, 24093, Note_on_c, 0, 73, 0
2, 24096, Note_on_c, 0, 74, 85
2, 24096, Note_on_c, 0, 71, 85
2, 24141, Note_on_c, 0, 74, 0
2, 24141, Note_on_c, 0, 71, 0
2, 24144, Note_on_c, 0, 68, 85
2, 24159, Note_on_c, 0, 68, 0
2, 24160, Note_on_c, 0, 69, 85
2, 24175, Note_on_c, 0, 69, 0
2, 24176, Note_on_c, 0, 71, 85
2, 24191, Note_on_c, 0, 71, 0
2, 24192, Note_on_c, 0, 64, 85
2, 24237, Note_on_c, 0, 64, 0
2, 24240, Note_on_c, 0, 71, 85
2, 24240, Note_on_c, 0, 68, 85
2, 24285, Note_on_c, 0, 71, 0
2, 24285, Note_on_c, 0, 68, 0
2, 24288, Note_on_c, 0, 74, 85
2, 24288, Note_on_c, 0, 71, 85
2, 24333, Note_on_c, 0, 74, 0
2, 24333, Note_on_c, 0, 71, 0
2, 24336, Note_on_c, 0, 74, 85
2, 24336, Note_on_c, 0, 71, 85
2, 24381, Note_on_c, 0, 74, 0
2, 24381, Note_on_c, 0, 71, 0
2, 24384, Note_on_c, 0, 73, 85
2, 24384, Note_on_c, 0, 69, 85
2, 24429, Note_on_c, 0, 73, 0
2, 24429, Note_on_c, 0, 69, 0
2, 24432, Note_on_c, 0, 69, 77
2, 24447, Note_on_c, 0, 69, 0
2, 24448, Note_on_c, 0, 71, 77
2, 24463, Note_on_c, 0, 71, 0
2, 24464, Note_on_c, 0, 73, 77
2, 24479, Note_on_c, 0, 73, 0
2, 24480, Note_on_c, 0, 64, 77
2, 24525, Note_on_c, 0, 64, 0
2, 24528, Note_on_c, 0, 69, 77
2, 24573, Note_on_c, 0, 69, 0
2, 24576, Note_on_c, 0, 67, 77
2, 24621, Note_on_c, 0, 67, 0
2, 24624, Note_on_c, 0, 67, 77
2, 24669, Note_on_c, 0, 67, 0
2, 24672, Note_on_c, 0, 66, 77
2, 24717, Note_on_c, 0, 66, 0
2, 24720, Note_on_c, 0, 68, 77
2, 24735, Note_on_c, 0, 68, 0
2, 24736, Note_on_c, 0, 71, 77
2, 24751, Note_on_c, 0, 71, 0
2, 24752, Note_on_c, 0, 74, 77
2, 24767, Note_on_c, 0, 74, 0
2, 24768, Note_on_c, 0, 73, 77
2, 24783, Note_on_c, 0, 73, 0
2, 24784, Note_on_c, 0, 74, 77
2, 24799, Note_on_c, 0, 74, 0
2, 24800, Note_on_c, 0, 76, 77
2, 24815, Note_on_c, 0, 76, 0
2, 24816, Note_on_c, 0, 69, 77
2, 24861, Note_on_c, 0, 69, 0
2, 24864, Note_on_c, 0, 69, 77
2, 24876, Note_on_c, 0, 69, 0
2, 24876, Note_on_c, 0, 68, 77
2, 24888, Note_on_c, 0, 68, 0
2, 24888, Note_on_c, 0, 69, 77
2, 24900, Note_on_c, 0, 69, 0
2, 24900, Note_on_c, 0, 68, 77
2, 24912, Note_on_c, 0, 68, 0
2, 24912, Note_on_c, 0, 69, 77
2, 25001, Note_on_c, 0, 69, 0
2, 25008, Note_on_c, 0, 64, 77
2, 25023, Note_on_c, 0, 64, 0
2, 25024, Note_on_c, 0, 66, 77
2, 25039, Note_on_c, 0, 66, 0
2, 25040, Note_on_c, 0, 68, 77
2, 25055, Note_on_c, 0, 68, 0
2, 25056, Note_on_c, 0, 64, 77
2, 25101, Note_on_c, 0, 64, 0
2, 25104, Note_on_c, 0, 68, 77
2, 25149, Note_on_c, 0, 68, 0
2, 25152, Note_on_c, 0, 71, 77
2, 25197, Note_on_c, 0, 71, 0
2, 25200, Note_on_c, 0, 71, 77
2, 25245, Note_on_c, 0, 71, 0
2, 25248, Note_on_c, 0, 76, 77
2, 25293, Note_on_c, 0, 76, 0
2, 25296, Note_on_c, 0, 71, 77
2, 25319, Note_on_c, 0, 71, 0
2, 25320, Note_on_c, 0, 68, 77
2, 25343, Note_on_c, 0, 68, 0
2, 25344, Note_on_c, 0, 71, 77
2, 25367, Note_on_c, 0, 71, 0
2, 25368, Note_on_c, 0, 69, 77
2, 25391, Note_on_c, 0, 69, 0
2, 25392, Note_on_c, 0, 69, 77
2, 25415, Note_on_c, 0, 69, 0
2, 25416, Note_on_c, 0, 66, 77
2, 25439, Note_on_c, 0, 66, 0
2, 25440, Note_on_c, 0, 68, 77
2, 25485, Note_on_c, 0, 68, 0
2, 25488, Note_on_c, 0, 71, 77
2, 25533, Note_on_c, 0, 71, 0
2, 25536, Note_on_c, 0, 76, 77
2, 25581, Note_on_c, 0, 76, 0
2, 25584, Note_on_c, 0, 68, 77
2, 25607, Note_on_c, 0, 68, 0
2, 25608, Note_on_c, 0, 64, 77
2, 25631, Note_on_c, 0, 64, 0
2, 25632, Note_on_c, 0, 68, 77
2, 25655, Note_on_c, 0, 68, 0
2, 25656, Note_on_c, 0, 66, 77
2, 25679, Note_on_c, 0, 66, 0
2, 25680, Note_on_c, 0, 66, 77
2, 25703, Note_on_c, 0, 66, 0
2, 25704, Note_on_c, 0, 63, 77
2, 25727, Note_on_c, 0, 63, 0
2, 25728, Note_on_c, 0, 64, 77
2, 25773, Note_on_c, 0, 64, 0
2, 25776, Note_on_c, 0, 59, 77
2, 25821, Note_on_c, 0, 59, 0
2, 25824, Note_on_c, 0, 69, 77
2, 25824, Note_on_c, 0, 66, 77
2, 25869, Note_on_c, 0, 69, 0
2, 25869, Note_on_c, 0, 66, 0
2, 25872, Note_on_c, 0, 68, 77
2, 25872, Note_on_c, 0, 64, 77
2, 25917, Note_on_c, 0, 68, 0
2, 25917, Note_on_c, 0, 64, 0
2, 25920, Note_on_c, 0, 69, 77
2, 25932, Note_on_c, 0, 69, 0
2, 25932, Note_on_c, 0, 68, 77
2, 25944, Note_on_c, 0, 68, 0
2, 25944, Note_on_c, 0, 69, 77
2, 25956, Note_on_c, 0, 69, 0
2, 25956, Note_on_c, 0, 68, 77
2, 25968, Note_on_c, 0, 68, 0
2, 25968, Note_on_c, 0, 66, 77
2, 26013, Note_on_c, 0, 66, 0
2, 26064, Note_on_c, 0, 77, 77
2, 26087, Note_on_c, 0, 77, 0
2, 26088, Note_on_c, 0, 71, 77
2, 26111, Note_on_c, 0, 71, 0
2, 26112, Note_on_c, 0, 80, 77
2, 26135, Note_on_c, 0, 80, 0
2, 26136, Note_on_c, 0, 77, 77
2, 26159, Note_on_c, 0, 77, 0
2, 26160, Note_on_c, 0, 83, 77
2, 26183, Note_on_c, 0, 83, 0
2, 26184, Note_on_c, 0, 80, 77
2, 26207, Note_on_c, 0, 80, 0
2, 26208, Note_on_c, 0, 81, 77
2, 26231, Note_on_c, 0, 81, 0
2, 26232, Note_on_c, 0, 85, 77
2, 26255, Note_on_c, 0, 85, 0
2, 26256, Note_on_c, 0, 83, 77
2, 26279, Note_on_c, 0, 83, 0
2, 26280, Note_on_c, 0, 81, 77
2, 26303, Note_on_c, 0, 81, 0
2, 26304, Note_on_c, 0, 80, 77
2, 26327, Note_on_c, 0, 80, 0
2, 26328, Note_on_c, 0, 78, 77
2, 26351, Note_on_c, 0, 78, 0
2, 26352, Note_on_c, 0, 77, 77
2, 26375, Note_on_c, 0, 77, 0
2, 26376, Note_on_c, 0, 71, 77
2, 26399, Note_on_c, 0, 71, 0
2, 26400, Note_on_c, 0, 80, 77
2, 26423, Note_on_c, 0, 80, 0
2, 26424, Note_on_c, 0, 77, 77
2, 26447, Note_on_c, 0, 77, 0
2, 26448, Note_on_c, 0, 83, 77
2, 26471, Note_on_c, 0, 83, 0
2, 26472, Note_on_c, 0, 80, 77
2, 26495, Note_on_c, 0, 80, 0
2, 26496, Note_on_c, 0, 81, 77
2, 26496, Note_on_c, 0, 78, 77
2, 26585, Note_on_c, 0, 81, 0
2, 26585, Note_on_c, 0, 78, 0
2, 26640, Note_on_c, 0, 75, 77
2, 26663, Note_on_c, 0, 75, 0
2, 26664, Note_on_c, 0, 71, 77
2, 26687, Note_on_c, 0, 71, 0
2, 26688, Note_on_c, 0, 78, 77
2, 26711, Note_on_c, 0, 78, 0
2, 26712, Note_on_c, 0, 75, 77
2, 26735, Note_on_c, 0, 75, 0
2, 26736, Note_on_c, 0, 81, 77
2, 26759, Note_on_c, 0, 81, 0
2, 26760, Note_on_c, 0, 78, 77
2, 26783, Note_on_c, 0, 78, 0
2, 26784, Note_on_c, 0, 80, 77
2, 26807, Note_on_c, 0, 80, 0
2, 26808, Note_on_c, 0, 83, 77
2, 26831, Note_on_c, 0, 83, 0
2, 26832, Note_on_c, 0, 81, 77
2, 26855, Note_on_c, 0, 81, 0
2, 26856, Note_on_c, 0, 80, 77
2, 26879, Note_on_c, 0, 80, 0
2, 26880, Note_on_c, 0, 78, 77
2, 26903, Note_on_c, 0, 78, 0
2, 26904, Note_on_c, 0, 76, 77
2, 26927, Note_on_c, 0, 76, 0
2, 26928, Note_on_c, 0, 75, 77
2, 26951, Note_on_c, 0, 75, 0
2, 26952, Note_on_c, 0, 71, 77
2, 26975, Note_on_c, 0, 71, 0
2, 26976, Note_on_c, 0, 78, 77
2, 26999, Note_on_c, 0, 78, 0
2, 27000, Note_on_c, 0, 75, 77
2, 27023, Note_on_c, 0, 75, 0
2, 27024, Note_on_c, 0, 81, 77
2, 27047, Note_on_c, 0, 81, 0
2, 27048, Note_on_c, 0, 78, 77
2, 27071, Note_on_c, 0, 78, 0
2, 27072, Note_on_c, 0, 80, 77
2, 27072, Note_on_c, 0, 76, 77
2, 27161, Note_on_c, 0, 80, 0
2, 27161, Note_on_c, 0, 76, 0
2, 27216, Note_on_c, 0, 68, 77
2, 27239, Note_on_c, 0, 68, 0
2, 27240, Note_on_c, 0, 71, 77
2, 27263, Note_on_c, 0, 71, 0
2, 27264, Note_on_c, 0, 69, 77
2, 27287, Note_on_c, 0, 69, 0
2, 27288, Note_on_c, 0, 68, 77
2, 27311, Note_on_c, 0, 68, 0
2, 27312, Note_on_c, 0, 66, 77
2, 27335, Note_on_c, 0, 66, 0
2, 27336, Note_on_c, 0, 64, 77
2, 27359, Note_on_c, 0, 64, 0
2, 27360, Note_on_c, 0, 74, 77
2, 27360, Note_on_c, 0, 71, 77
2, 27456, Note_on_c, 0, 74, 0
2, 27456, Note_on_c, 0, 71, 0
2, 27456, Note_on_c, 0, 73, 77
2, 27456, Note_on_c, 0, 69, 77
2, 27501, Note_on_c, 0, 73, 0
2, 27501, Note_on_c, 0, 69, 0
2, 27504, Note_on_c, 0, 70, 77
2, 27527, Note_on_c, 0, 70, 0
2, 27528, Note_on_c, 0, 73, 77
2, 27551, Note_on_c, 0, 73, 0
2, 27552, Note_on_c, 0, 71, 77
2, 27575, Note_on_c, 0, 71, 0
2, 27576, Note_on_c, 0, 70, 77
2, 27599, Note_on_c, 0, 70, 0
2, 27600, Note_on_c, 0, 68, 77
2, 27623, Note_on_c, 0, 68, 0
2, 27624, Note_on_c, 0, 66, 77
2, 27647, Note_on_c, 0, 66, 0
2, 27648, Note_on_c, 0, 76, 77
2, 27648, Note_on_c, 0, 73, 77
2, 27744, Note_on_c, 0, 76, 0
2, 27744, Note_on_c, 0, 73, 0
2, 27744, Note_on_c, 0, 75, 77
2, 27744, Note_on_c, 0, 71, 77
2, 27789, Note_on_c, 0, 75, 0
2, 27789, Note_on_c, 0, 71, 0
2, 27792, Note_on_c, 0, 75, 77
2, 27815, Note_on_c, 0, 75, 0
2, 27816, Note_on_c, 0, 78, 77
2, 27839, Note_on_c, 0, 78, 0
2, 27840, Note_on_c, 0, 76, 77
2, 27863, Note_on_c, 0, 76, 0
2, 27864, Note_on_c, 0, 75, 77
2, 27887, Note_on_c, 0, 75, 0
2, 27888, Note_on_c, 0, 73, 77
2, 27911, Note_on_c, 0, 73, 0
2, 27912, Note_on_c, 0, 71, 77
2, 27935, Note_on_c, 0, 71, 0
2, 27936, Note_on_c, 0, 81, 77
2, 27936, Note_on_c, 0, 78, 77
2, 28032, Note_on_c, 0, 81, 0
2, 28032, Note_on_c, 0, 78, 0
2, 28032, Note_on_c, 0, 80, 77
2, 28032, Note_on_c, 0, 76, 77
2, 28077, Note_on_c, 0, 80, 0
2, 28077, Note_on_c, 0, 76, 0
2, 28080, Note_on_c, 0, 80, 77
2, 28080, Note_on_c, 0, 76, 77
2, 28128, Note_on_c, 0, 80, 0
2, 28128, Note_on_c, 0, 76, 0
2, 28128, Note_on_c, 0, 78, 77
2, 28128, Note_on_c, 0, 75, 77
2, 28173, Note_on_c, 0, 78, 0
2, 28173, Note_on_c, 0, 75, 0
2, 28224, Note_on_c, 0, 71, 77
2, 28313, Note_on_c, 0, 71, 0
2, 28320, Note_on_c, 0, 73, 78
2, 28320, Note_on_c, 0, 70, 78
2, 28365, Note_on_c, 0, 73, 0
2, 28365, Note_on_c, 0, 70, 0
2, 28368, Note_on_c, 0, 75, 79
2, 28368, Note_on_c, 0, 71, 79
2, 28457, Note_on_c, 0, 75, 0
2, 28457, Note_on_c, 0, 71, 0
2, 28464, Note_on_c, 0, 76, 80
2, 28464, Note_on_c, 0, 73, 80
2, 28509, Note_on_c, 0, 76, 0
2, 28509, Note_on_c, 0, 73, 0
2, 28512, Note_on_c, 0, 78, 81
2, 28512, Note_on_c, 0, 75, 81
2, 28557, Note_on_c, 0, 78, 0
2, 28557, Note_on_c, 0, 75, 0
2, 28560, Note_on_c, 0, 81, 82
2, 28560, Note_on_c, 0, 78, 82
2, 28605, Note_on_c, 0, 81, 0
2, 28605, Note_on_c, 0, 78, 0
2, 28608, Note_on_c, 0, 80, 82
2, 28608, Note_on_c, 0, 76, 82
2, 28653, Note_on_c, 0, 80, 0
2, 28653, Note_on_c, 0, 76, 0
2, 28656, Note_on_c, 0, 78, 83
2, 28656, Note_on_c, 0, 75, 83
2, 28745, Note_on_c, 0, 78, 0
2, 28745, Note_on_c, 0, 75, 0
2, 28800, Note_on_c, 0, 71, 85
2, 28889, Note_on_c, 0, 71, 0
2, 28896, Note_on_c, 0, 73, 77
2, 28896, Note_on_c, 0, 70, 77
2, 28941, Note_on_c, 0, 73, 0
2, 28941, Note_on_c, 0, 70, 0
2, 28944, Note_on_c, 0, 75, 77
2, 28944, Note_on_c, 0, 71, 77
2, 29033, Note_on_c, 0, 75, 0
2, 29033, Note_on_c, 0, 71, 0
2, 29040, Note_on_c, 0, 76, 79
2, 29040, Note_on_c, 0, 73, 79
2, 29085, Note_on_c, 0, 76, 0
2, 29085, Note_on_c, 0, 73, 0
2, 29088, Note_on_c, 0, 78, 80
2, 29088, Note_on_c, 0, 75, 80
2, 29133, Note_on_c, 0, 78, 0
2, 29133, Note_on_c, 0, 75, 0
2, 29136, Note_on_c, 0, 81, 81
2, 29136, Note_on_c, 0, 78, 81
2, 29181, Note_on_c, 0, 81, 0
2, 29181, Note_on_c, 0, 78, 0
2, 29184, Note_on_c, 0, 80, 82
2, 29184, Note_on_c, 0, 76, 82
2, 29229, Note_on_c, 0, 80, 0
2, 29229, Note_on_c, 0, 76, 0
2, 29232, Note_on_c, 0, 78, 83
2, 29232, Note_on_c, 0, 75, 83
2, 29321, Note_on_c, 0, 78, 0
2, 29321, Note_on_c, 0, 75, 0
2, 29376, Note_on_c, 0, 71, 85
2, 29376, Note_on_c, 0, 68, 85
2, 29465, Note_on_c, 0, 71, 0
2, 29465, Note_on_c, 0, 68, 0
2, 29472, Note_on_c, 0, 76, 85
2, 29496, Note_on_c, 0, 76, 0
2, 29496, Note_on_c, 0, 71, 85
2, 29519, Note_on_c, 0, 71, 0
2, 29520, Note_on_c, 0, 74, 85
2, 29532, Note_on_c, 0, 74, 0
2, 29532, Note_on_c, 0, 73, 85
2, 29544, Note_on_c, 0, 73, 0
2, 29544, Note_on_c, 0, 74, 85
2, 29556, Note_on_c, 0, 74, 0
2, 29556, Note_on_c, 0, 73, 85
2, 29568, Note_on_c, 0, 73, 0
2, 29568, Note_on_c, 0, 71, 85
2, 29613, Note_on_c, 0, 71, 0
2, 29664, Note_on_c, 0, 81, 85
2, 29664, Note_on_c, 0, 75, 85
2, 29712, Note_on_c, 0, 81, 0
2, 29712, Note_on_c, 0, 75, 0
2, 29712, Note_on_c, 0, 80, 85
2, 29712, Note_on_c, 0, 76, 85
2, 29757, Note_on_c, 0, 80, 0
2, 29757, Note_on_c, 0, 76, 0
2, 29808, Note_on_c, 0, 74, 85
2, 29820, Note_on_c, 0, 74, 0
2, 29820, Note_on_c, 0, 73, 85
2, 29832, Note_on_c, 0, 73, 0
2, 29832, Note_on_c, 0, 74, 85
2, 29844, Note_on_c, 0, 74, 0
2, 29844, Note_on_c, 0, 73, 85
2, 29856, Note_on_c, 0, 73, 0
2, 29856, Note_on_c, 0, 71, 85
2, 29901, Note_on_c, 0, 71, 0
2, 29952, Note_on_c, 0, 81, 85
2, 29952, Note_on_c, 0, 75, 85
2, 30000, Note_on_c, 0, 81, 0
2, 30000, Note_on_c, 0, 75, 0
2, 30000, Note_on_c, 0, 80, 85
2, 30000, Note_on_c, 0, 76, 85
2, 30045, Note_on_c, 0, 80, 0
2, 30045, Note_on_c, 0, 76, 0
2, 30096, Note_on_c, 0, 81, 85
2, 30119, Note_on_c, 0, 81, 0
2, 30120, Note_on_c, 0, 78, 84
2, 30143, Note_on_c, 0, 78, 0
2, 30144, Note_on_c, 0, 85, 84
2, 30167, Note_on_c, 0, 85, 0
2, 30168, Note_on_c, 0, 81, 83
2, 30191, Note_on_c, 0, 81, 0
2, 30192, Note_on_c, 0, 80, 83
2, 30215, Note_on_c, 0, 80, 0
2, 30216, Note_on_c, 0, 78, 82
2, 30239, Note_on_c, 0, 78, 0
2, 30240, Note_on_c, 0, 80, 82
2, 30263, Note_on_c, 0, 80, 0
2, 30264, Note_on_c, 0, 76, 81
2, 30287, Note_on_c, 0, 76, 0
2, 30288, Note_on_c, 0, 83, 81
2, 30311, Note_on_c, 0, 83, 0
2, 30312, Note_on_c, 0, 80, 80
2, 30335, Note_on_c, 0, 80, 0
2, 30336, Note_on_c, 0, 78, 80
2, 30359, Note_on_c, 0, 78, 0
2, 30360, Note_on_c, 0, 76, 79
2, 30383, Note_on_c, 0, 76, 0
2, 30384, Note_on_c, 0, 78, 79
2, 30407, Note_on_c, 0, 78, 0
2, 30408, Note_on_c, 0, 75, 78
2, 30431, Note_on_c, 0, 75, 0
2, 30432, Note_on_c, 0, 81, 78
2, 30455, Note_on_c, 0, 81, 0
2, 30456, Note_on_c, 0, 78, 77
2, 30479, Note_on_c, 0, 78, 0
2, 30480, Note_on_c, 0, 76, 77
2, 30503, Note_on_c, 0, 76, 0
2, 30504, Note_on_c, 0, 75, 77
2, 30527, Note_on_c, 0, 75, 0
2, 30528, Note_on_c, 0, 76, 76
2, 30551, Note_on_c, 0, 76, 0
2, 30552, Note_on_c, 0, 73, 76
2, 30575, Note_on_c, 0, 73, 0
2, 30576, Note_on_c, 0, 80, 75
2, 30599, Note_on_c, 0, 80, 0
2, 30600, Note_on_c, 0, 76, 75
2, 30623, Note_on_c, 0, 76, 0
2, 30624, Note_on_c, 0, 75, 74
2, 30647, Note_on_c, 0, 75, 0
2, 30648, Note_on_c, 0, 73, 74
2, 30671, Note_on_c, 0, 73, 0
2, 30672, Note_on_c, 0, 75, 73
2, 30687, Note_on_c, 0, 75, 0
2, 30688, Note_on_c, 0, 76, 73
2, 30703, Note_on_c, 0, 76, 0
2, 30704, Note_on_c, 0, 78, 73
2, 30719, Note_on_c, 0, 78, 0
2, 30720, Note_on_c, 0, 76, 73
2, 30765, Note_on_c, 0, 76, 0
2, 30768, Note_on_c, 0, 76, 72
2, 30780, Note_on_c, 0, 76, 0
2, 30780, Note_on_c, 0, 75, 71
2, 30792, Note_on_c, 0, 75, 0
2, 30792, Note_on_c, 0, 76, 71
2, 30804, Note_on_c, 0, 76, 0
2, 30804, Note_on_c, 0, 75, 71
2, 30816, Note_on_c, 0, 75, 0
2, 30816, Note_on_c, 0, 73, 71
2, 30905, Note_on_c, 0, 73, 0
2, 30912, Note_on_c, 0, 69, 77
2, 30927, Note_on_c, 0, 69, 0
2, 30928, Note_on_c, 0, 71, 77
2, 30943, Note_on_c, 0, 71, 0
2, 30944, Note_on_c, 0, 73, 77
2, 30959, Note_on_c, 0, 73, 0
2, 30960, Note_on_c, 0, 69, 77
2, 31005, Note_on_c, 0, 69, 0
2, 31008, Note_on_c, 0, 73, 77
2, 31053, Note_on_c, 0, 73, 0
2, 31056, Note_on_c, 0, 76, 77
2, 31101, Note_on_c, 0, 76, 0
2, 31104, Note_on_c, 0, 76, 77
2, 31149, Note_on_c, 0, 76, 0
2, 31152, Note_on_c, 0, 81, 77
2, 31197, Note_on_c, 0, 81, 0
2, 31200, Note_on_c, 0, 76, 77
2, 31223, Note_on_c, 0, 76, 0
2, 31224, Note_on_c, 0, 73, 77
2, 31247, Note_on_c, 0, 73, 0
2, 31248, Note_on_c, 0, 76, 77
2, 31271, Note_on_c, 0, 76, 0
2, 31272, Note_on_c, 0, 74, 77
2, 31295, Note_on_c, 0, 74, 0
2, 31296, Note_on_c, 0, 74, 77
2, 31319, Note_on_c, 0, 74, 0
2, 31320, Note_on_c, 0, 71, 77
2, 31343, Note_on_c, 0, 71, 0
2, 31344, Note_on_c, 0, 73, 77
2, 31389, Note_on_c, 0, 73, 0
2, 31392, Note_on_c, 0, 76, 77
2, 31437, Note_on_c, 0, 76, 0
2, 31440, Note_on_c, 0, 81, 77
2, 31485, Note_on_c, 0, 81, 0
2, 31488, Note_on_c, 0, 73, 77
2, 31511, Note_on_c, 0, 73, 0
2, 31512, Note_on_c, 0, 69, 77
2, 31535, Note_on_c, 0, 69, 0
2, 31536, Note_on_c, 0, 73, 77
2, 31559, Note_on_c, 0, 73, 0
2, 31560, Note_on_c, 0, 71, 77
2, 31583, Note_on_c, 0, 71, 0
2, 31584, Note_on_c, 0, 71, 77
2, 31607, Note_on_c, 0, 71, 0
2, 31608, Note_on_c, 0, 68, 77
2, 31631, Note_on_c, 0, 68, 0
2, 31632, Note_on_c, 0, 69, 77
2, 31677, Note_on_c, 0, 69, 0
2, 31680, Note_on_c, 0, 64, 77
2, 31725, Note_on_c, 0, 64, 0
2, 31728, Note_on_c, 0, 74, 77
2, 31728, Note_on_c, 0, 71, 77
2, 31773, Note_on_c, 0, 74, 0
2, 31773, Note_on_c, 0, 71, 0
2, 31776, Note_on_c, 0, 73, 77
2, 31776, Note_on_c, 0, 69, 77
2, 31821, Note_on_c, 0, 73, 0
2, 31821, Note_on_c, 0, 69, 0
2, 31824, Note_on_c, 0, 74, 77
2, 31836, Note_on_c, 0, 74, 0
2, 31836, Note_on_c, 0, 73, 77
2, 31848, Note_on_c, 0, 73, 0
2, 31848, Note_on_c, 0, 74, 77
2, 31860, Note_on_c, 0, 74, 0
2, 31860, Note_on_c, 0, 73, 77
2, 31872, Note_on_c, 0, 73, 0
2, 31872, Note_on_c, 0, 71, 77
2, 31917, Note_on_c, 0, 71, 0
2, 31968, Note_on_c, 0, 64, 77
2, 32013, Note_on_c, 0, 64, 0
2, 32016, Note_on_c, 0, 69, 77
2, 32031, Note_on_c, 0, 69, 0
2, 32032, Note_on_c, 0, 67, 77
2, 32047, Note_on_c, 0, 67, 0
2, 32048, Note_on_c, 0, 66, 77
2, 32063, Note_on_c, 0, 66, 0
2, 32064, Note_on_c, 0, 67, 77
2, 32079, Note_on_c, 0, 67, 0
2, 32080, Note_on_c, 0, 66, 77
2, 32095, Note_on_c, 0, 66, 0
2, 32096, Note_on_c, 0, 64, 77
2, 32111, Note_on_c, 0, 64, 0
2, 32112, Note_on_c, 0, 66, 77
2, 32127, Note_on_c, 0, 66, 0
2, 32128, Note_on_c, 0, 62, 77
2, 32143, Note_on_c, 0, 62, 0
2, 32144, Note_on_c, 0, 66, 77
2, 32159, Note_on_c, 0, 66, 0
2, 32160, Note_on_c, 0, 69, 77
2, 32175, Note_on_c, 0, 69, 0
2, 32176, Note_on_c, 0, 66, 77
2, 32191, Note_on_c, 0, 66, 0
2, 32192, Note_on_c, 0, 69, 77
2, 32207, Note_on_c, 0, 69, 0
2, 32208, Note_on_c, 0, 74, 77
2, 32253, Note_on_c, 0, 74, 0
2, 32256, Note_on_c, 0, 66, 77
2, 32301, Note_on_c, 0, 66, 0
2, 32304, Note_on_c, 0, 71, 77
2, 32319, Note_on_c, 0, 71, 0
2, 32320, Note_on_c, 0, 69, 77
2, 32335, Note_on_c, 0, 69, 0
2, 32336, Note_on_c, 0, 68, 77
2, 32351, Note_on_c, 0, 68, 0
2, 32352, Note_on_c, 0, 69, 77
2, 32367, Note_on_c, 0, 69, 0
2, 32368, Note_on_c, 0, 68, 77
2, 32383, Note_on_c, 0, 68, 0
2, 32384, Note_on_c, 0, 66, 77
2, 32399, Note_on_c, 0, 66, 0
2, 32400, Note_on_c, 0, 68, 77
2, 32415, Note_on_c, 0, 68, 0
2, 32416, Note_on_c, 0, 64, 77
2, 32431, Note_on_c, 0, 64, 0
2, 32432, Note_on_c, 0, 68, 77
2, 32447, Note_on_c, 0, 68, 0
2, 32448, Note_on_c, 0, 71, 77
2, 32463, Note_on_c, 0, 71, 0
2, 32464, Note_on_c, 0, 68, 77
2, 32479, Note_on_c, 0, 68, 0
2, 32480, Note_on_c, 0, 71, 77
2, 32495, Note_on_c, 0, 71, 0
2, 32496, Note_on_c, 0, 76, 77
2, 32541, Note_on_c, 0, 76, 0
2, 32544, Note_on_c, 0, 64, 77
2, 32589, Note_on_c, 0, 64, 0
2, 32592, Note_on_c, 0, 74, 77
2, 32615, Note_on_c, 0, 74, 0
2, 32616, Note_on_c, 0, 71, 77
2, 32639, Note_on_c, 0, 71, 0
2, 32640, Note_on_c, 0, 73, 77
2, 32663, Note_on_c, 0, 73, 0
2, 32664, Note_on_c, 0, 69, 77
2, 32687, Note_on_c, 0, 69, 0
2, 32688, Note_on_c, 0, 69, 77
2, 32711, Note_on_c, 0, 69, 0
2, 32712, Note_on_c, 0, 68, 77
2, 32735, Note_on_c, 0, 68, 0
2, 32736, Note_on_c, 0, 71, 77
2, 32759, Note_on_c, 0, 71, 0
2, 32760, Note_on_c, 0, 68, 77
2, 32783, Note_on_c, 0, 68, 0
2, 32784, Note_on_c, 0, 69, 77
2, 32829, Note_on_c, 0, 69, 0
2, 32832, Note_on_c, 0, 64, 69
2, 32877, Note_on_c, 0, 64, 0
2, 32880, Note_on_c, 0, 74, 69
2, 32903, Note_on_c, 0, 74, 0
2, 32904, Note_on_c, 0, 71, 69
2, 32927, Note_on_c, 0, 71, 0
2, 32928, Note_on_c, 0, 73, 69
2, 32951, Note_on_c, 0, 73, 0
2, 32952, Note_on_c, 0, 69, 69
2, 32975, Note_on_c, 0, 69, 0
2, 32976, Note_on_c, 0, 69, 69
2, 32999, Note_on_c, 0, 69, 0
2, 33000, Note_on_c, 0, 68, 69
2, 33023, Note_on_c, 0, 68, 0
2, 33024, Note_on_c, 0, 71, 69
2, 33047, Note_on_c, 0, 71, 0
2, 33048, Note_on_c, 0, 68, 69
2, 33071, Note_on_c, 0, 68, 0
2, 33072, Note_on_c, 0, 69, 69
2, 33117, Note_on_c, 0, 69, 0
2, 33120, Note_on_c, 0, 68, 77
2, 33132, Note_on_c, 0, 68, 0
2, 33132, Note_on_c, 0, 66, 77
2, 33144, Note_on_c, 0, 66, 0
2, 33144, Note_on_c, 0, 64, 77
2, 33156, Note_on_c, 0, 64, 0
2, 33156, Note_on_c, 0, 66, 77
2, 33168, Note_on_c, 0, 66, 0
2, 33168, Note_on_c, 0, 74, 77
2, 33213, Note_on_c, 0, 74, 0
2, 33264, Note_on_c, 0, 66, 77
2, 33276, Note_on_c, 0, 66, 0
2, 33276, Note_on_c, 0, 64, 77
2, 33288, Note_on_c, 0, 64, 0
2, 33288, Note_on_c, 0, 62, 77
2, 33300, Note_on_c, 0, 62, 0
2, 33300, Note_on_c, 0, 64, 77
2, 33312, Note_on_c, 0, 64, 0
2, 33312, Note_on_c, 0, 73, 77
2, 33357, Note_on_c, 0, 73, 0
2, 33408, Note_on_c, 0, 64, 77
2, 33420, Note_on_c, 0, 64, 0
2, 33420, Note_on_c, 0, 62, 77
2, 33432, Note_on_c, 0, 62, 0
2, 33432, Note_on_c, 0, 61, 77
2, 33444, Note_on_c, 0, 61, 0
2, 33444, Note_on_c, 0, 62, 77
2, 33456, Note_on_c, 0, 62, 0
2, 33456, Note_on_c, 0, 71, 77
2, 33501, Note_on_c, 0, 71, 0
2, 33552, Note_on_c, 0, 62, 77
2, 33564, Note_on_c, 0, 62, 0
2, 33564, Note_on_c, 0, 61, 77
2, 33576, Note_on_c, 0, 61, 0
2, 33576, Note_on_c, 0, 59, 77
2, 33588, Note_on_c, 0, 59, 0
2, 33588, Note_on_c, 0, 61, 77
2, 33600, Note_on_c, 0, 61, 0
2, 33600, Note_on_c, 0, 69, 77
2, 33645, Note_on_c, 0, 69, 0
2, 33696, Note_on_c, 0, 74, 77
2, 33708, Note_on_c, 0, 74, 0
2, 33708, Note_on_c, 0, 73, 77
2, 33720, Note_on_c, 0, 73, 0
2, 33720, Note_on_c, 0, 71, 77
2, 33732, Note_on_c, 0, 71, 0
2, 33732, Note_on_c, 0, 73, 77
2, 33744, Note_on_c, 0, 73, 0
2, 33744, Note_on_c, 0, 81, 77
2, 33789, Note_on_c, 0, 81, 0
2, 33840, Note_on_c, 0, 73, 77
2, 33852, Note_on_c, 0, 73, 0
2, 33852, Note_on_c, 0, 71, 77
2, 33864, Note_on_c, 0, 71, 0
2, 33864, Note_on_c, 0, 69, 77
2, 33876, Note_on_c, 0, 69, 0
2, 33876, Note_on_c, 0, 71, 77
2, 33888, Note_on_c, 0, 71, 0
2, 33912, Note_on_c, 0, 74, 77
2, 33935, Note_on_c, 0, 74, 0
2, 33936, Note_on_c, 0, 73, 77
2, 33948, Note_on_c, 0, 73, 0
2, 33948, Note_on_c, 0, 76, 77
2, 33960, Note_on_c, 0, 76, 0
2, 33960, Note_on_c, 0, 68, 77
2, 33972, Note_on_c, 0, 68, 0
2, 33972, Note_on_c, 0, 71, 77
2, 33984, Note_on_c, 0, 71, 0
2, 33984, Note_on_c, 0, 69, 77
2, 34073, Note_on_c, 0, 69, 0
2, 34128, Note_on_c, 0, 69, 61
2, 34173, Note_on_c, 0, 69, 0
2, 34176, Note_on_c, 0, 71, 61
2, 34221, Note_on_c, 0, 71, 0
2, 34224, Note_on_c, 0, 68, 61
2, 34269, Note_on_c, 0, 68, 0
2, 34272, Note_on_c, 0, 69, 61
2, 34295, Note_on_c, 0, 69, 0
2, 34296, Note_on_c, 0, 77, 61
2, 34319, Note_on_c, 0, 77, 0
2, 34320, Note_on_c, 0, 76, 61
2, 34343, Note_on_c, 0, 76, 0
2, 34344, Note_on_c, 0, 74, 61
2, 34367, Note_on_c, 0, 74, 0
2, 34368, Note_on_c, 0, 72, 61
2, 34391, Note_on_c, 0, 72, 0
2, 34392, Note_on_c, 0, 71, 61
2, 34415, Note_on_c, 0, 71, 0
2, 34416, Note_on_c, 0, 69, 61
2, 34461, Note_on_c, 0, 69, 0
2, 34464, Note_on_c, 0, 71, 61
2, 34509, Note_on_c, 0, 71, 0
2, 34512, Note_on_c, 0, 68, 61
2, 34557, Note_on_c, 0, 68, 0
2, 34560, Note_on_c, 0, 69, 61
2, 34583, Note_on_c, 0, 69, 0
2, 34584, Note_on_c, 0, 71, 61
2, 34607, Note_on_c, 0, 71, 0
2, 34608, Note_on_c, 0, 72, 61
2, 34631, Note_on_c, 0, 72, 0
2, 34632, Note_on_c, 0, 74, 61
2, 34655, Note_on_c, 0, 74, 0
2, 34656, Note_on_c, 0, 76, 61
2, 34701, Note_on_c, 0, 76, 0
2, 34704, Note_on_c, 0, 76, 61
2, 34727, Note_on_c, 0, 76, 0
2, 34728, Note_on_c, 0, 77, 61
2, 34751, Note_on_c, 0, 77, 0
2, 34752, Note_on_c, 0, 74, 61
2, 34797, Note_on_c, 0, 74, 0
2, 34800, Note_on_c, 0, 71, 61
2, 34845, Note_on_c, 0, 71, 0
2, 34848, Note_on_c, 0, 75, 61
2, 34871, Note_on_c, 0, 75, 0
2, 34872, Note_on_c, 0, 76, 61
2, 34895, Note_on_c, 0, 76, 0
2, 34896, Note_on_c, 0, 72, 61
2, 34941, Note_on_c, 0, 72, 0
2, 34992, Note_on_c, 0, 73, 61
2, 35015, Note_on_c, 0, 73, 0
2, 35016, Note_on_c, 0, 74, 61
2, 35039, Note_on_c, 0, 74, 0
2, 35040, Note_on_c, 0, 71, 61
2, 35085, Note_on_c, 0, 71, 0
2, 35088, Note_on_c, 0, 68, 61
2, 35133, Note_on_c, 0, 68, 0
2, 35136, Note_on_c, 0, 71, 61
2, 35159, Note_on_c, 0, 71, 0
2, 35160, Note_on_c, 0, 72, 61
2, 35183, Note_on_c, 0, 72, 0
2, 35184, Note_on_c, 0, 69, 61
2, 35229, Note_on_c, 0, 69, 0
2, 35280, Note_on_c, 0, 68, 61
2, 35303, Note_on_c, 0, 68, 0
2, 35304, Note_on_c, 0, 69, 61
2, 35327, Note_on_c, 0, 69, 0
2, 35328, Note_on_c, 0, 71, 61
2, 35351, Note_on_c, 0, 71, 0
2, 35352, Note_on_c, 0, 72, 61
2, 35375, Note_on_c, 0, 72, 0
2, 35376, Note_on_c, 0, 74, 61
2, 35399, Note_on_c, 0, 74, 0
2, 35400, Note_on_c, 0, 72, 61
2, 35423, Note_on_c, 0, 72, 0
2, 35424, Note_on_c, 0, 74, 61
2, 35436, Note_on_c, 0, 74, 0
2, 35436, Note_on_c, 0, 72, 61
2, 35448, Note_on_c, 0, 72, 0
2, 35448, Note_on_c, 0, 74, 61
2, 35460, Note_on_c, 0, 74, 0
2, 35460, Note_on_c, 0, 72, 61
2, 35472, Note_on_c, 0, 72, 0
2, 35472, Note_on_c, 0, 71, 61
2, 35517, Note_on_c, 0, 71, 0
2, 35520, Note_on_c, 0, 69, 73
2, 35535, Note_on_c, 0, 69, 0
2, 35536, Note_on_c, 0, 71, 76
2, 35551, Note_on_c, 0, 71, 0
2, 35552, Note_on_c, 0, 73, 79
2, 35567, Note_on_c, 0, 73, 0
2, 35568, Note_on_c, 0, 69, 85
2, 35613, Note_on_c, 0, 69, 0
2, 35616, Note_on_c, 0, 73, 85
2, 35616, Note_on_c, 0, 69, 85
2, 35661, Note_on_c, 0, 73, 0
2, 35661, Note_on_c, 0, 69, 0
2, 35664, Note_on_c, 0, 76, 85
2, 35664, Note_on_c, 0, 73, 85
2, 35709, Note_on_c, 0, 76, 0
2, 35709, Note_on_c, 0, 73, 0
2, 35712, Note_on_c, 0, 76, 85
2, 35712, Note_on_c, 0, 73, 85
2, 35757, Note_on_c, 0, 76, 0
2, 35757, Note_on_c, 0, 73, 0
2, 35760, Note_on_c, 0, 74, 85
2, 35760, Note_on_c, 0, 71, 85
2, 35805, Note_on_c, 0, 74, 0
2, 35805, Note_on_c, 0, 71, 0
2, 35808, Note_on_c, 0, 68, 85
2, 35823, Note_on_c, 0, 68, 0
2, 35824, Note_on_c, 0, 69, 85
2, 35839, Note_on_c, 0, 69, 0
2, 35840, Note_on_c, 0, 71, 85
2, 35855, Note_on_c, 0, 71, 0
2, 35856, Note_on_c, 0, 64, 85
2, 35901, Note_on_c, 0, 64, 0
2, 35904, Note_on_c, 0, 71, 85
2, 35904, Note_on_c, 0, 68, 85
2, 35949, Note_on_c, 0, 71, 0
2, 35949, Note_on_c, 0, 68, 0
2, 35952, Note_on_c, 0, 74, 85
2, 35952, Note_on_c, 0, 71, 85
2, 35997, Note_on_c, 0, 74, 0
2, 35997, Note_on_c, 0, 71, 0
2, 36000, Note_on_c, 0, 74, 85
2, 36000, Note_on_c, 0, 71, 85
2, 36045, Note_on_c, 0, 74, 0
2, 36045, Note_on_c, 0, 71, 0
2, 36048, Note_on_c, 0, 73, 85
2, 36048, Note_on_c, 0, 69, 85
2, 36093, Note_on_c, 0, 73, 0
2, 36093, Note_on_c, 0, 69, 0
2, 36096, Note_on_c, 0, 69, 85
2, 36111, Note_on_c, 0, 69, 0
2, 36112, Note_on_c, 0, 71, 85
2, 36127, Note_on_c, 0, 71, 0
2, 36128, Note_on_c, 0, 73, 85
2, 36143, Note_on_c, 0, 73, 0
2, 36144, Note_on_c, 0, 69, 85
2, 36189, Note_on_c, 0, 69, 0
2, 36192, Note_on_c, 0, 73, 85
2, 36192, Note_on_c, 0, 69, 85
2, 36237, Note_on_c, 0, 73, 0
2, 36237, Note_on_c, 0, 69, 0
2, 36240, Note_on_c, 0, 76, 85
2, 36240, Note_on_c, 0, 73, 85
2, 36285, Note_on_c, 0, 76, 0
2, 36285, Note_on_c, 0, 73, 0
2, 36288, Note_on_c, 0, 76, 85
2, 36288, Note_on_c, 0, 73, 85
2, 36333, Note_on_c, 0, 76, 0
2, 36333, Note_on_c, 0, 73, 0
2, 36336, Note_on_c, 0, 74, 85
2, 36336, Note_on_c, 0, 71, 85
2, 36381, Note_on_c, 0, 74, 0
2, 36381, Note_on_c, 0, 71, 0
2, 36384, Note_on_c, 0, 68, 85
2, 36399, Note_on_c, 0, 68, 0
2, 36400, Note_on_c, 0, 69, 85
2, 36415, Note_on_c, 0, 69, 0
2, 36416, Note_on_c, 0, 71, 85
2, 36431, Note_on_c, 0, 71, 0
2, 36432, Note_on_c, 0, 64, 85
2, 36477, Note_on_c, 0, 64, 0
2, 36480, Note_on_c, 0, 71, 85
2, 36480, Note_on_c, 0, 68, 85
2, 36525, Note_on_c, 0, 71, 0
2, 36525, Note_on_c, 0, 68, 0
2, 36528, Note_on_c, 0, 74, 85
2, 36528, Note_on_c, 0, 71, 85
2, 36573, Note_on_c, 0, 74, 0
2, 36573, Note_on_c, 0, 71, 0
2, 36576, Note_on_c, 0, 74, 85
2, 36576, Note_on_c, 0, 71, 85
2, 36621, Note_on_c, 0, 74, 0
2, 36621, Note_on_c, 0, 71, 0
2, 36624, Note_on_c, 0, 73, 85
2, 36624, Note_on_c, 0, 69, 85
2, 36669, Note_on_c, 0, 73, 0
2, 36669, Note_on_c, 0, 69, 0
2, 36672, Note_on_c, 0, 69, 77
2, 36687, Note_on_c, 0, 69, 0
2, 36688, Note_on_c, 0, 71, 77
2, 36703, Note_on_c, 0, 71, 0
2, 36704, Note_on_c, 0, 73, 77
2, 36719, Note_on_c, 0, 73, 0
2, 36720, Note_on_c, 0, 64, 77
2, 36765, Note_on_c, 0, 64, 0
2, 36768, Note_on_c, 0, 69, 77
2, 36813, Note_on_c, 0, 69, 0
2, 36816, Note_on_c, 0, 67, 77
2, 36861, Note_on_c, 0, 67, 0
2, 36864, Note_on_c, 0, 67, 77
2, 36909, Note_on_c, 0, 67, 0
2, 36912, Note_on_c, 0, 66, 77
2, 36957, Note_on_c, 0, 66, 0
2, 36960, Note_on_c, 0, 68, 77
2, 36975, Note_on_c, 0, 68, 0
2, 36976, Note_on_c, 0, 71, 77
2, 36991, Note_on_c, 0, 71, 0
2, 36992, Note_on_c, 0, 74, 77
2, 37007, Note_on_c, 0, 74, 0
2, 37008, Note_on_c, 0, 73, 77
2, 37023, Note_on_c, 0, 73, 0
2, 37024, Note_on_c, 0, 74, 77
2, 37039, Note_on_c, 0, 74, 0
2, 37040, Note_on_c, 0, 76, 77
2, 37055, Note_on_c, 0, 76, 0
2, 37056, Note_on_c, 0, 69, 77
2, 37101, Note_on_c, 0, 69, 0
2, 37104, Note_on_c, 0, 69, 77
2, 37116, Note_on_c, 0, 69, 0
2, 37116, Note_on_c, 0, 68, 77
2, 37128, Note_on_c, 0, 68, 0
2, 37128, Note_on_c, 0, 69, 77
2, 37140, Note_on_c, 0, 69, 0
2, 37140, Note_on_c, 0, 68, 77
2, 37152, Note_on_c, 0, 68, 0
2, 37152, Note_on_c, 0, 69, 77
2, 37241, Note_on_c, 0, 69, 0
2, 37296, End_track
3, 0, Start_track
3, 0, Program_c, 0, 0
3, 0, Control_c, 0, 7, 127
3, 0, Control_c, 0, 10, 64
3, 432, Note_on_c, 0, 62, 77
3, 477, Note_on_c, 0, 62, 0
3, 480, Note_on_c, 0, 56, 77
3, 525, Note_on_c, 0, 56, 0
3, 528, Note_on_c, 0, 57, 77
3, 573, Note_on_c, 0, 57, 0
3, 1008, Note_on_c, 0, 69, 77
3, 1056, Note_on_c, 0, 69, 0
3, 1056, Note_on_c, 0, 68, 77
3, 1101, Note_on_c, 0, 68, 0
3, 1152, Note_on_c, 0, 56, 77
3, 1175, Note_on_c, 0, 56, 0
3, 1176, Note_on_c, 0, 64, 77
3, 1199, Note_on_c, 0, 64, 0
3, 1200, Note_on_c, 0, 59, 77
3, 1223, Note_on_c, 0, 59, 0
3, 1224, Note_on_c, 0, 64, 77
3, 1247, Note_on_c, 0, 64, 0
3, 1248, Note_on_c, 0, 56, 77
3, 1271, Note_on_c, 0, 56, 0
3, 1272, Note_on_c, 0, 64, 77
3, 1295, Note_on_c, 0, 64, 0
3, 1296, Note_on_c, 0, 57, 77
3, 1319, Note_on_c, 0, 57, 0
3, 1320, Note_on_c, 0, 64, 77
3, 1343, Note_on_c, 0, 64, 0
3, 1344, Note_on_c, 0, 61, 77
3, 1367, Note_on_c, 0, 61, 0
3, 1368, Note_on_c, 0, 64, 77
3, 1391, Note_on_c, 0, 64, 0
3, 1392, Note_on_c, 0, 57, 77
3, 1415, Note_on_c, 0, 57, 0
3, 1416, Note_on_c, 0, 64, 77
3, 1439, Note_on_c, 0, 64, 0
3, 1440, Note_on_c, 0, 58, 77
3, 1463, Note_on_c, 0, 58, 0
3, 1464, Note_on_c, 0, 66, 77
3, 1487, Note_on_c, 0, 66, 0
3, 1488, Note_on_c, 0, 61, 77
3, 1511, Note_on_c, 0, 61, 0
3, 1512, Note_on_c, 0, 66, 77
3, 1535, Note_on_c, 0, 66, 0
3, 1536, Note_on_c, 0, 58, 77
3, 1559, Note_on_c, 0, 58, 0
3, 1560, Note_on_c, 0, 66, 77
3, 1583, Note_on_c, 0, 66, 0
3, 1584, Note_on_c, 0, 59, 77
3, 1607, Note_on_c, 0, 59, 0
3, 1608, Note_on_c, 0, 66, 77
3, 1631, Note_on_c, 0, 66, 0
3, 1632, Note_on_c, 0, 63, 77
3, 1655, Note_on_c, 0, 63, 0
3, 1656, Note_on_c, 0, 66, 77
3, 1679, Note_on_c, 0, 66, 0
3, 1680, Note_on_c, 0, 59, 77
3, 1703, Note_on_c, 0, 59, 0
3, 1704, Note_on_c, 0, 66, 77
3, 1727, Note_on_c, 0, 66, 0
3, 1728, Note_on_c, 0, 63, 77
3, 1751, Note_on_c, 0, 63, 0
3, 1752, Note_on_c, 0, 71, 77
3, 1775, Note_on_c, 0, 71, 0
3, 1776, Note_on_c, 0, 66, 77
3, 1799, Note_on_c, 0, 66, 0
3, 1800, Note_on_c, 0, 71, 77
3, 1823, Note_on_c, 0, 71, 0
3, 1824, Note_on_c, 0, 64, 77
3, 1847, Note_on_c, 0, 64, 0
3, 1848, Note_on_c, 0, 71, 77
3, 1871, Note_on_c, 0, 71, 0
3, 1872, Note_on_c, 0, 66, 77
3, 1895, Note_on_c, 0, 66, 0
3, 1896, Note_on_c, 0, 71, 77
3, 1919, Note_on_c, 0, 71, 0
3, 1920, Note_on_c, 0, 69, 77
3, 1943, Note_on_c, 0, 69, 0
3, 1944, Note_on_c, 0, 71, 77
3, 1967, Note_on_c, 0, 71, 0
3, 1968, Note_on_c, 0, 68, 77
3, 1991, Note_on_c, 0, 68, 0
3, 1992, Note_on_c, 0, 71, 77
3, 2015, Note_on_c, 0, 71, 0
3, 2016, Note_on_c, 0, 63, 69
3, 2039, Note_on_c, 0, 63, 0
3, 2040, Note_on_c, 0, 71, 69
3, 2063, Note_on_c, 0, 71, 0
3, 2064, Note_on_c, 0, 66, 69
3, 2087, Note_on_c, 0, 66, 0
3, 2088, Note_on_c, 0, 71, 69
3, 2111, Note_on_c, 0, 71, 0
3, 2112, Note_on_c, 0, 64, 69
3, 2135, Note_on_c, 0, 64, 0
3, 2136, Note_on_c, 0, 71, 69
3, 2159, Note_on_c, 0, 71, 0
3, 2160, Note_on_c, 0, 66, 69
3, 2183, Note_on_c, 0, 66, 0
3, 2184, Note_on_c, 0, 71, 69
3, 2207, Note_on_c, 0, 71, 0
3, 2208, Note_on_c, 0, 69, 69
3, 2231, Note_on_c, 0, 69, 0
3, 2232, Note_on_c, 0, 71, 69
3, 2255, Note_on_c, 0, 71, 0
3, 2256, Note_on_c, 0, 68, 69
3, 2279, Note_on_c, 0, 68, 0
3, 2280, Note_on_c, 0, 71, 69
3, 2303, Note_on_c, 0, 71, 0
3, 2304, Note_on_c, 0, 69, 69
3, 2349, Note_on_c, 0, 69, 0
3, 2352, Note_on_c, 0, 66, 69
3, 2397, Note_on_c, 0, 66, 0
3, 2400, Note_on_c, 0, 63, 69
3, 2445, Note_on_c, 0, 63, 0
3, 2448, Note_on_c, 0, 68, 69
3, 2493, Note_on_c, 0, 68, 0
3, 2496, Note_on_c, 0, 64, 69
3, 2541, Note_on_c, 0, 64, 0
3, 2544, Note_on_c, 0, 61, 69
3, 2589, Note_on_c, 0, 61, 0
3, 2592, Note_on_c, 0, 66, 69
3, 2637, Note_on_c, 0, 66, 0
3, 2640, Note_on_c, 0, 63, 69
3, 2685, Note_on_c, 0, 63, 0
3, 2688, Note_on_c, 0, 59, 69
3, 2733, Note_on_c, 0, 59, 0
3, 2736, Note_on_c, 0, 64, 69
3, 2825, Note_on_c, 0, 64, 0
3, 2832, Note_on_c, 0, 63, 69
3, 2877, Note_on_c, 0, 63, 0
3, 3312, Note_on_c, 0, 71, 61
3, 3312, Note_on_c, 0, 67, 61
3, 3357, Note_on_c, 0, 71, 0
3, 3357, Note_on_c, 0, 67, 0
3, 3360, Note_on_c, 0, 72, 61
3, 3360, Note_on_c, 0, 69, 61
3, 3405, Note_on_c, 0, 72, 0
3, 3405, Note_on_c, 0, 69, 0
3, 3408, Note_on_c, 0, 69, 61
3, 3408, Note_on_c, 0, 66, 61
3, 3453, Note_on_c, 0, 69, 0
3, 3453, Note_on_c, 0, 66, 0
3, 3456, Note_on_c, 0, 71, 61
3, 3456, Note_on_c, 0, 67, 61
3, 3545, Note_on_c, 0, 71, 0
3, 3545, Note_on_c, 0, 67, 0
3, 3600, Note_on_c, 0, 71, 61
3, 3600, Note_on_c, 0, 67, 61
3, 3645, Note_on_c, 0, 71, 0
3, 3645, Note_on_c, 0, 67, 0
3, 3648, Note_on_c, 0, 72, 61
3, 3648, Note_on_c, 0, 69, 61
3, 3693, Note_on_c, 0, 72, 0
3, 3693, Note_on_c, 0, 69, 0
3, 3696, Note_on_c, 0, 69, 61
3, 3696, Note_on_c, 0, 66, 61
3, 3741, Note_on_c, 0, 69, 0
3, 3741, Note_on_c, 0, 66, 0
3, 3744, Note_on_c, 0, 71, 61
3, 3744, Note_on_c, 0, 67, 61
3, 3833, Note_on_c, 0, 71, 0
3, 3833, Note_on_c, 0, 67, 0
3, 3888, Note_on_c, 0, 69, 61
3, 3933, Note_on_c, 0, 69, 0
3, 3936, Note_on_c, 0, 66, 61
3, 3981, Note_on_c, 0, 66, 0
3, 3984, Note_on_c, 0, 62, 61
3, 4029, Note_on_c, 0, 62, 0
3, 4032, Note_on_c, 0, 67, 61
3, 4077, Note_on_c, 0, 67, 0
3, 4080, Note_on_c, 0, 64, 61
3, 4125, Note_on_c, 0, 64, 0
3, 4128, Note_on_c, 0, 60, 61
3, 4173, Note_on_c, 0, 60, 0
3, 4176, Note_on_c, 0, 66, 61
3, 4221, Note_on_c, 0, 66, 0
3, 4224, Note_on_c, 0, 63, 61
3, 4269, Note_on_c, 0, 63, 0
3, 4272, Note_on_c, 0, 59, 61
3, 4317, Note_on_c, 0, 59, 0
3, 4320, Note_on_c, 0, 64, 61
3, 4365, Note_on_c, 0, 64, 0
3, 4368, Note_on_c, 0, 67, 61
3, 4413, Note_on_c, 0, 67, 0
3, 4416, Note_on_c, 0, 64, 61
3, 4461, Note_on_c, 0, 64, 0
3, 4512, Note_on_c, 0, 63, 61
3, 4535, Note_on_c, 0, 63, 0
3, 4536, Note_on_c, 0, 64, 61
3, 4559, Note_on_c, 0, 64, 0
3, 4560, Note_on_c, 0, 66, 61
3, 4583, Note_on_c, 0, 66, 0
3, 4584, Note_on_c, 0, 64, 61
3, 4607, Note_on_c, 0, 64, 0
3, 4608, Note_on_c, 0, 64, 61
3, 4653, Note_on_c, 0, 64, 0
3, 4656, Note_on_c, 0, 63, 61
3, 4701, Note_on_c, 0, 63, 0
3, 6768, Note_on_c, 0, 62, 77
3, 6813, Note_on_c, 0, 62, 0
3, 6816, Note_on_c, 0, 56, 77
3, 6861, Note_on_c, 0, 56, 0
3, 6864, Note_on_c, 0, 57, 77
3, 6909, Note_on_c, 0, 57, 0
3, 7344, Note_on_c, 0, 69, 77
3, 7392, Note_on_c, 0, 69, 0
3, 7392, Note_on_c, 0, 68, 77
3, 7437, Note_on_c, 0, 68, 0
3, 7488, Note_on_c, 0, 56, 77
3, 7511, Note_on_c, 0, 56, 0
3, 7512, Note_on_c, 0, 64, 77
3, 7535, Note_on_c, 0, 64, 0
3, 7536, Note_on_c, 0, 59, 77
3, 7559, Note_on_c, 0, 59, 0
3, 7560, Note_on_c, 0, 64, 77
3, 7583, Note_on_c, 0, 64, 0
3, 7584, Note_on_c, 0, 56, 77
3, 7607, Note_on_c, 0, 56, 0
3, 7608, Note_on_c, 0, 64, 77
3, 7631, Note_on_c, 0, 64, 0
3, 7632, Note_on_c, 0, 57, 77
3, 7655, Note_on_c, 0, 57, 0
3, 7656, Note_on_c, 0, 64, 77
3, 7679, Note_on_c, 0, 64, 0
3, 7680, Note_on_c, 0, 61, 77
3, 7703, Note_on_c, 0, 61, 0
3, 7704, Note_on_c, 0, 64, 77
3, 7727, Note_on_c, 0, 64, 0
3, 7728, Note_on_c, 0, 57, 77
3, 7751, Note_on_c, 0, 57, 0
3, 7752, Note_on_c, 0, 64, 77
3, 7775, Note_on_c, 0, 64, 0
3, 7776, Note_on_c, 0, 58, 77
3, 7799, Note_on_c, 0, 58, 0
3, 7800, Note_on_c, 0, 66, 77
3, 7823, Note_on_c, 0, 66, 0
3, 7824, Note_on_c, 0, 61, 77
3, 7847, Note_on_c, 0, 61, 0
3, 7848, Note_on_c, 0, 66, 77
3, 7871, Note_on_c, 0, 66, 0
3, 7872, Note_on_c, 0, 58, 77
3, 7895, Note_on_c, 0, 58, 0
3, 7896, Note_on_c, 0, 66, 77
3, 7919, Note_on_c, 0, 66, 0
3, 7920, Note_on_c, 0, 59, 77
3, 7943, Note_on_c, 0, 59, 0
3, 7944, Note_on_c, 0, 66, 77
3, 7967, Note_on_c, 0, 66, 0
3, 7968, Note_on_c, 0, 63, 77
3, 7991, Note_on_c, 0, 63, 0
3, 7992, Note_on_c, 0, 66, 77
3, 8015, Note_on_c, 0, 66, 0
3, 8016, Note_on_c, 0, 59, 77
3, 8039, Note_on_c, 0, 59, 0
3, 8040, Note_on_c, 0, 66, 77
3, 8063, Note_on_c, 0, 66, 0
3, 8064, Note_on_c, 0, 63, 77
3, 8087, Note_on_c, 0, 63, 0
3, 8088, Note_on_c, 0, 71, 77
3, 8111, Note_on_c, 0, 71, 0
3, 8112, Note_on_c, 0, 66, 77
3, 8135, Note_on_c, 0, 66, 0
3, 8136, Note_on_c, 0, 71, 77
3, 8159, Note_on_c, 0, 71, 0
3, 8160, Note_on_c, 0, 64, 77
3, 8183, Note_on_c, 0, 64, 0
3, 8184, Note_on_c, 0, 71, 77
3, 8207, Note_on_c, 0, 71, 0
3, 8208, Note_on_c, 0, 66, 77
3, 8231, Note_on_c, 0, 66, 0
3, 8232, Note_on_c, 0, 71, 77
3, 8255, Note_on_c, 0, 71, 0
3, 8256, Note_on_c, 0, 69, 77
3, 8279, Note_on_c, 0, 69, 0
3, 8280, Note_on_c, 0, 71, 77
3, 8303, Note_on_c, 0, 71, 0
3, 8304, Note_on_c, 0, 68, 77
3, 8327, Note_on_c, 0, 68, 0
3, 8328, Note_on_c, 0, 71, 77
3, 8351, Note_on_c, 0, 71, 0
3, 8352, Note_on_c, 0, 63, 69
3, 8375, Note_on_c, 0, 63, 0
3, 8376, Note_on_c, 0, 71, 69
3, 8399, Note_on_c, 0, 71, 0
3, 8400, Note_on_c, 0, 66, 69
3, 8423, Note_on_c, 0, 66, 0
3, 8424, Note_on_c, 0, 71, 69
3, 8447, Note_on_c, 0, 71, 0
3, 8448, Note_on_c, 0, 64, 69
3, 8471, Note_on_c, 0, 64, 0
3, 8472, Note_on_c, 0, 71, 69
3, 8495, Note_on_c, 0, 71, 0
3, 8496, Note_on_c, 0, 66, 69
3, 8519, Note_on_c, 0, 66, 0
3, 8520, Note_on_c, 0, 71, 69
3, 8543, Note_on_c, 0, 71, 0
3, 8544, Note_on_c, 0, 69, 69
3, 8567, Note_on_c, 0, 69, 0
3, 8568, Note_on_c, 0, 71, 69
3, 8591, Note_on_c, 0, 71, 0
3, 8592, Note_on_c, 0, 68, 69
3, 8615, Note_on_c, 0, 68, 0
3, 8616, Note_on_c, 0, 71, 69
3, 8639, Note_on_c, 0, 71, 0
3, 8640, Note_on_c, 0, 69, 69
3, 8685, Note_on_c, 0, 69, 0
3, 8688, Note_on_c, 0, 66, 69
3, 8733, Note_on_c, 0, 66, 0
3, 8736, Note_on_c, 0, 63, 69
3, 8781, Note_on_c, 0, 63, 0
3, 8784, Note_on_c, 0, 68, 69
3, 8829, Note_on_c, 0, 68, 0
3, 8832, Note_on_c, 0, 64, 69
3, 8877, Note_on_c, 0, 64, 0
3, 8880, Note_on_c, 0, 61, 69
3, 8925, Note_on_c, 0, 61, 0
3, 8928, Note_on_c, 0, 66, 69
3, 8973, Note_on_c, 0, 66, 0
3, 8976, Note_on_c, 0, 63, 69
3, 9021, Note_on_c, 0, 63, 0
3, 9024, Note_on_c, 0, 59, 69
3, 9069, Note_on_c, 0, 59, 0
3, 9072, Note_on_c, 0, 64, 69
3, 9161, Note_on_c, 0, 64, 0
3, 9168, Note_on_c, 0, 63, 69
3, 9213, Note_on_c, 0, 63, 0
3, 9648, Note_on_c, 0, 71, 61
3, 9648, Note_on_c, 0, 67, 61
3, 9693, Note_on_c, 0, 71, 0
3, 9693, Note_on_c, 0, 67, 0
3, 9696, Note_on_c, 0, 72, 61
3, 9696, Note_on_c, 0, 69, 61
3, 9741, Note_on_c, 0, 72, 0
3, 9741, Note_on_c, 0, 69, 0
3, 9744, Note_on_c, 0, 69, 61
3, 9744, Note_on_c, 0, 66, 61
3, 9789, Note_on_c, 0, 69, 0
3, 9789, Note_on_c, 0, 66, 0
3, 9792, Note_on_c, 0, 71, 61
3, 9792, Note_on_c, 0, 67, 61
3, 9881, Note_on_c, 0, 71, 0
3, 9881, Note_on_c, 0, 67, 0
3, 9936, Note_on_c, 0, 71, 61
3, 9936, Note_on_c, 0, 67, 61
3, 9981, Note_on_c, 0, 71, 0
3, 9981, Note_on_c, 0, 67, 0
3, 9984, Note_on_c, 0, 72, 61
3, 9984, Note_on_c, 0, 69, 61
3, 10029, Note_on_c, 0, 72, 0
3, 10029, Note_on_c, 0, 69, 0
3, 10032, Note_on_c, 0, 69, 61
3, 10032, Note_on_c, 0, 66, 61
3, 10077, Note_on_c, 0, 69, 0
3, 10077, Note_on_c, 0, 66, 0
3, 10080, Note_on_c, 0, 71, 61
3, 10080, Note_on_c, 0, 67, 61
3, 10169, Note_on_c, 0, 71, 0
3, 10169, Note_on_c, 0, 67, 0
3, 10224, Note_on_c, 0, 69, 61
3, 10269, Note_on_c, 0, 69, 0
3, 10272, Note_on_c, 0, 66, 61
3, 10317, Note_on_c, 0, 66, 0
3, 10320, Note_on_c, 0, 62, 61
3, 10365, Note_on_c, 0, 62, 0
3, 10368, Note_on_c, 0, 67, 61
3, 10413, Note_on_c, 0, 67, 0
3, 10416, Note_on_c, 0, 64, 61
3, 10461, Note_on_c, 0, 64, 0
3, 10464, Note_on_c, 0, 60, 61
3, 10509, Note_on_c, 0, 60, 0
3, 10512, Note_on_c, 0, 66, 61
3, 10557, Note_on_c, 0, 66, 0
3, 10560, Note_on_c, 0, 63, 61
3, 10605, Note_on_c, 0, 63, 0
3, 10608, Note_on_c, 0, 59, 61
3, 10653, Note_on_c, 0, 59, 0
3, 10656, Note_on_c, 0, 64, 61
3, 10701, Note_on_c, 0, 64, 0
3, 10704, Note_on_c, 0, 67, 61
3, 10749, Note_on_c, 0, 67, 0
3, 10752, Note_on_c, 0, 64, 61
3, 10797, Note_on_c, 0, 64, 0
3, 10848, Note_on_c, 0, 63, 61
3, 10871, Note_on_c, 0, 63, 0
3, 10872, Note_on_c, 0, 64, 61
3, 10895, Note_on_c, 0, 64, 0
3, 10896, Note_on_c, 0, 66, 61
3, 10919, Note_on_c, 0, 66, 0
3, 10920, Note_on_c, 0, 64, 61
3, 10943, Note_on_c, 0, 64, 0
3, 10944, Note_on_c, 0, 64, 61
3, 10989, Note_on_c, 0, 64, 0
3, 10992, Note_on_c, 0, 63, 61
3, 11037, Note_on_c, 0, 63, 0
3, 13104, Note_on_c, 0, 54, 61
3, 13149, Note_on_c, 0, 54, 0
3, 13152, Note_on_c, 0, 51, 61
3, 13197, Note_on_c, 0, 51, 0
3, 13200, Note_on_c, 0, 52, 61
3, 13245, Note_on_c, 0, 52, 0
3, 13680, Note_on_c, 0, 66, 61
3, 13725, Note_on_c, 0, 66, 0
3, 13728, Note_on_c, 0, 63, 61
3, 13773, Note_on_c, 0, 63, 0
3, 13824, Note_on_c, 0, 68, 61
3, 13869, Note_on_c, 0, 68, 0
3, 13872, Note_on_c, 0, 68, 61
3, 13917, Note_on_c, 0, 68, 0
3, 13920, Note_on_c, 0, 68, 61
3, 13965, Note_on_c, 0, 68, 0
3, 13968, Note_on_c, 0, 66, 61
3, 14013, Note_on_c, 0, 66, 0
3, 14016, Note_on_c, 0, 66, 61
3, 14061, Note_on_c, 0, 66, 0
3, 14064, Note_on_c, 0, 66, 61
3, 14109, Note_on_c, 0, 66, 0
3, 14112, Note_on_c, 0, 68, 61
3, 14157, Note_on_c, 0, 68, 0
3, 14160, Note_on_c, 0, 68, 61
3, 14205, Note_on_c, 0, 68, 0
3, 14208, Note_on_c, 0, 68, 61
3, 14253, Note_on_c, 0, 68, 0
3, 14256, Note_on_c, 0, 54, 61
3, 14279, Note_on_c, 0, 54, 0
3, 14280, Note_on_c, 0, 66, 61
3, 14303, Note_on_c, 0, 66, 0
3, 14304, Note_on_c, 0, 65, 61
3, 14327, Note_on_c, 0, 65, 0
3, 14328, Note_on_c, 0, 66, 61
3, 14351, Note_on_c, 0, 66, 0
3, 14352, Note_on_c, 0, 54, 61
3, 14397, Note_on_c, 0, 54, 0
3, 14400, Note_on_c, 0, 66, 61
3, 14445, Note_on_c, 0, 66, 0
3, 14448, Note_on_c, 0, 66, 61
3, 14493, Note_on_c, 0, 66, 0
3, 14496, Note_on_c, 0, 66, 61
3, 14541, Note_on_c, 0, 66, 0
3, 14544, Note_on_c, 0, 64, 61
3, 14589, Note_on_c, 0, 64, 0
3, 14592, Note_on_c, 0, 64, 61
3, 14637, Note_on_c, 0, 64, 0
3, 14640, Note_on_c, 0, 64, 61
3, 14685, Note_on_c, 0, 64, 0
3, 14688, Note_on_c, 0, 66, 61
3, 14733, Note_on_c, 0, 66, 0
3, 14736, Note_on_c, 0, 66, 61
3, 14781, Note_on_c, 0, 66, 0
3, 14784, Note_on_c, 0, 66, 61
3, 14829, Note_on_c, 0, 66, 0
3, 17280, Note_on_c, 0, 69, 61
3, 17325, Note_on_c, 0, 69, 0
3, 17328, Note_on_c, 0, 68, 61
3, 17373, Note_on_c, 0, 68, 0
3, 17568, Note_on_c, 0, 69, 61
3, 17616, Note_on_c, 0, 69, 0
3, 17616, Note_on_c, 0, 68, 61
3, 17661, Note_on_c, 0, 68, 0
3, 19008, Note_on_c, 0, 62, 61
3, 19053, Note_on_c, 0, 62, 0
3, 19056, Note_on_c, 0, 56, 61
3, 19101, Note_on_c, 0, 56, 0
3, 19104, Note_on_c, 0, 57, 61
3, 19149, Note_on_c, 0, 57, 0
3, 19584, Note_on_c, 0, 69, 61
3, 19629, Note_on_c, 0, 69, 0
3, 19632, Note_on_c, 0, 68, 61
3, 19677, Note_on_c, 0, 68, 0
3, 23184, Note_on_c, 0, 57, 61
3, 23229, Note_on_c, 0, 57, 0
3, 23232, Note_on_c, 0, 56, 61
3, 23277, Note_on_c, 0, 56, 0
3, 25344, Note_on_c, 0, 54, 61
3, 25389, Note_on_c, 0, 54, 0
3, 25392, Note_on_c, 0, 51, 61
3, 25437, Note_on_c, 0, 51, 0
3, 25440, Note_on_c, 0, 52, 61
3, 25485, Note_on_c, 0, 52, 0
3, 25920, Note_on_c, 0, 66, 61
3, 25965, Note_on_c, 0, 66, 0
3, 25968, Note_on_c, 0, 63, 61
3, 26013, Note_on_c, 0, 63, 0
3, 26064, Note_on_c, 0, 68, 61
3, 26109, Note_on_c, 0, 68, 0
3, 26112, Note_on_c, 0, 68, 61
3, 26157, Note_on_c, 0, 68, 0
3, 26160, Note_on_c, 0, 68, 61
3, 26205, Note_on_c, 0, 68, 0
3, 26208, Note_on_c, 0, 66, 61
3, 26253, Note_on_c, 0, 66, 0
3, 26256, Note_on_c, 0, 66, 61
3, 26301, Note_on_c, 0, 66, 0
3, 26304, Note_on_c, 0, 66, 61
3, 26349, Note_on_c, 0, 66, 0
3, 26352, Note_on_c, 0, 68, 61
3, 26397, Note_on_c, 0, 68, 0
3, 26400, Note_on_c, 0, 68, 61
3, 26445, Note_on_c, 0, 68, 0
3, 26448, Note_on_c, 0, 68, 61
3, 26493, Note_on_c, 0, 68, 0
3, 26496, Note_on_c, 0, 54, 61
3, 26519, Note_on_c, 0, 54, 0
3, 26520, Note_on_c, 0, 66, 61
3, 26543, Note_on_c, 0, 66, 0
3, 26544, Note_on_c, 0, 65, 61
3, 26567, Note_on_c, 0, 65, 0
3, 26568, Note_on_c, 0, 66, 61
3, 26591, Note_on_c, 0, 66, 0
3, 26592, Note_on_c, 0, 54, 61
3, 26637, Note_on_c, 0, 54, 0
3, 26640, Note_on_c, 0, 66, 61
3, 26685, Note_on_c, 0, 66, 0
3, 26688, Note_on_c, 0, 66, 61
3, 26733, Note_on_c, 0, 66, 0
3, 26736, Note_on_c, 0, 66, 61
3, 26781, Note_on_c, 0, 66, 0
3, 26784, Note_on_c, 0, 64, 61
3, 26829, Note_on_c, 0, 64, 0
3, 26832, Note_on_c, 0, 64, 61
3, 26877, Note_on_c, 0, 64, 0
3, 26880, Note_on_c, 0, 64, 61
3, 26925, Note_on_c, 0, 64, 0
3, 26928, Note_on_c, 0, 66, 61
3, 26973, Note_on_c, 0, 66, 0
3, 26976, Note_on_c, 0, 66, 61
3, 27021, Note_on_c, 0, 66, 0
3, 27024, Note_on_c, 0, 66, 61
3, 27069, Note_on_c, 0, 66, 0
3, 29520, Note_on_c, 0, 69, 61
3, 29565, Note_on_c, 0, 69, 0
3, 29568, Note_on_c, 0, 68, 61
3, 29613, Note_on_c, 0, 68, 0
3, 29808, Note_on_c, 0, 69, 61
3, 29856, Note_on_c, 0, 69, 0
3, 29856, Note_on_c, 0, 68, 61
3, 29901, Note_on_c, 0, 68, 0
3, 31248, Note_on_c, 0, 62, 61
3, 31293, Note_on_c, 0, 62, 0
3, 31296, Note_on_c, 0, 56, 61
3, 31341, Note_on_c, 0, 56, 0
3, 31344, Note_on_c, 0, 57, 61
3, 31389, Note_on_c, 0, 57, 0
3, 31824, Note_on_c, 0, 69, 61
3, 31869, Note_on_c, 0, 69, 0
3, 31872, Note_on_c, 0, 68, 61
3, 31917, Note_on_c, 0, 68, 0
3, 35424, Note_on_c, 0, 57, 61
3, 35469, Note_on_c, 0, 57, 0
3, 35472, Note_on_c, 0, 56, 61
3, 35517, Note_on_c, 0, 56, 0
3, 37296, End_track
4, 0, Start_track
4, 0, Program_c, 0, 0
4, 0, Control_c, 0, 7, 127
4, 0, Control_c, 0, 10, 64
4, 144, Note_on_c, 0, 61, 77
4, 144, Note_on_c, 0, 57, 77
4, 233, Note_on_c, 0, 61, 0
4, 233, Note_on_c, 0, 57, 0
4, 288, Note_on_c, 0, 61, 77
4, 288, Note_on_c, 0, 57, 77
4, 377, Note_on_c, 0, 61, 0
4, 377, Note_on_c, 0, 57, 0
4, 432, Note_on_c, 0, 52, 77
4, 521, Note_on_c, 0, 52, 0
4, 528, Note_on_c, 0, 57, 77
4, 573, Note_on_c, 0, 57, 0
4, 576, Note_on_c, 0, 61, 77
4, 576, Note_on_c, 0, 57, 77
4, 665, Note_on_c, 0, 61, 0
4, 665, Note_on_c, 0, 57, 0
4, 720, Note_on_c, 0, 62, 77
4, 765, Note_on_c, 0, 62, 0
4, 768, Note_on_c, 0, 59, 77
4, 813, Note_on_c, 0, 59, 0
4, 816, Note_on_c, 0, 61, 77
4, 861, Note_on_c, 0, 61, 0
4, 912, Note_on_c, 0, 56, 77
4, 957, Note_on_c, 0, 56, 0
4, 960, Note_on_c, 0, 57, 77
4, 1005, Note_on_c, 0, 57, 0
4, 1008, Note_on_c, 0, 52, 77
4, 1097, Note_on_c, 0, 52, 0
4, 1104, Note_on_c, 0, 54, 77
4, 1149, Note_on_c, 0, 54, 0
4, 2880, Note_on_c, 0, 61, 77
4, 2969, Note_on_c, 0, 61, 0
4, 2976, Note_on_c, 0, 56, 77
4, 3021, Note_on_c, 0, 56, 0
4, 3024, Note_on_c, 0, 57, 77
4, 3069, Note_on_c, 0, 57, 0
4, 3072, Note_on_c, 0, 54, 77
4, 3117, Note_on_c, 0, 54, 0
4, 3120, Note_on_c, 0, 59, 77
4, 3165, Note_on_c, 0, 59, 0
4, 3168, Note_on_c, 0, 52, 77
4, 3257, Note_on_c, 0, 52, 0
4, 4608, Note_on_c, 0, 59, 77
4, 4608, Note_on_c, 0, 47, 77
4, 4697, Note_on_c, 0, 59, 0
4, 4697, Note_on_c, 0, 47, 0
4, 4752, Note_on_c, 0, 52, 85
4, 4752, Note_on_c, 0, 40, 85
4, 4841, Note_on_c, 0, 52, 0
4, 4841, Note_on_c, 0, 40, 0
4, 4896, Note_on_c, 0, 59, 85
4, 4896, Note_on_c, 0, 47, 85
4, 4985, Note_on_c, 0, 59, 0
4, 4985, Note_on_c, 0, 47, 0
4, 5040, Note_on_c, 0, 47, 85
4, 5040, Note_on_c, 0, 35, 85
4, 5129, Note_on_c, 0, 47, 0
4, 5129, Note_on_c, 0, 35, 0
4, 5184, Note_on_c, 0, 52, 85
4, 5184, Note_on_c, 0, 40, 85
4, 5273, Note_on_c, 0, 52, 0
4, 5273, Note_on_c, 0, 40, 0
4, 5328, Note_on_c, 0, 52, 85
4, 5328, Note_on_c, 0, 40, 85
4, 5417, Note_on_c, 0, 52, 0
4, 5417, Note_on_c, 0, 40, 0
4, 5472, Note_on_c, 0, 59, 85
4, 5472, Note_on_c, 0, 47, 85
4, 5561, Note_on_c, 0, 59, 0
4, 5561, Note_on_c, 0, 47, 0
4, 5616, Note_on_c, 0, 47, 85
4, 5616, Note_on_c, 0, 35, 85
4, 5705, Note_on_c, 0, 47, 0
4, 5705, Note_on_c, 0, 35, 0
4, 5760, Note_on_c, 0, 52, 85
4, 5760, Note_on_c, 0, 40, 85
4, 5849, Note_on_c, 0, 52, 0
4, 5849, Note_on_c, 0, 40, 0
4, 5904, Note_on_c, 0, 56, 77
4, 5993, Note_on_c, 0, 56, 0
4, 6048, Note_on_c, 0, 57, 77
4, 6137, Note_on_c, 0, 57, 0
4, 6144, Note_on_c, 0, 54, 77
4, 6189, Note_on_c, 0, 54, 0
4, 6192, Note_on_c, 0, 52, 77
4, 6237, Note_on_c, 0, 52, 0
4, 6240, Note_on_c, 0, 56, 77
4, 6285, Note_on_c, 0, 56, 0
4, 6288, Note_on_c, 0, 59, 77
4, 6333, Note_on_c, 0, 59, 0
4, 6336, Note_on_c, 0, 52, 77
4, 6425, Note_on_c, 0, 52, 0
4, 6480, Note_on_c, 0, 61, 77
4, 6480, Note_on_c, 0, 57, 77
4, 6569, Note_on_c, 0, 61, 0
4, 6569, Note_on_c, 0, 57, 0
4, 6624, Note_on_c, 0, 61, 77
4, 6624, Note_on_c, 0, 57, 77
4, 6713, Note_on_c, 0, 61, 0
4, 6713, Note_on_c, 0, 57, 0
4, 6768, Note_on_c, 0, 52, 77
4, 6857, Note_on_c, 0, 52, 0
4, 6864, Note_on_c, 0, 57, 77
4, 6909, Note_on_c, 0, 57, 0
4, 6912, Note_on_c, 0, 61, 77
4, 6912, Note_on_c, 0, 57, 77
4, 7001, Note_on_c, 0, 61, 0
4, 7001, Note_on_c, 0, 57, 0
4, 7056, Note_on_c, 0, 62, 77
4, 7101, Note_on_c, 0, 62, 0
4, 7104, Note_on_c, 0, 59, 77
4, 7149, Note_on_c, 0, 59, 0
4, 7152, Note_on_c, 0, 61, 77
4, 7197, Note_on_c, 0, 61, 0
4, 7248, Note_on_c, 0, 56, 77
4, 7293, Note_on_c, 0, 56, 0
4, 7296, Note_on_c, 0, 57, 77
4, 7341, Note_on_c, 0, 57, 0
4, 7344, Note_on_c, 0, 52, 77
4, 7433, Note_on_c, 0, 52, 0
4, 7440, Note_on_c, 0, 54, 77
4, 7485, Note_on_c, 0, 54, 0
4, 9216, Note_on_c, 0, 61, 77
4, 9305, Note_on_c, 0, 61, 0
4, 9312, Note_on_c, 0, 56, 77
4, 9357, Note_on_c, 0, 56, 0
4, 9360, Note_on_c, 0, 57, 77
4, 9405, Note_on_c, 0, 57, 0
4, 9408, Note_on_c, 0, 54, 77
4, 9453, Note_on_c, 0, 54, 0
4, 9456, Note_on_c, 0, 59, 77
4, 9501, Note_on_c, 0, 59, 0
4, 9504, Note_on_c, 0, 52, 77
4, 9593, Note_on_c, 0, 52, 0
4, 10944, Note_on_c, 0, 59, 77
4, 10944, Note_on_c, 0, 47, 77
4, 11033, Note_on_c, 0, 59, 0
4, 11033, Note_on_c, 0, 47, 0
4, 11088, Note_on_c, 0, 52, 85
4, 11088, Note_on_c, 0, 40, 85
4, 11177, Note_on_c, 0, 52, 0
4, 11177, Note_on_c, 0, 40, 0
4, 11232, Note_on_c, 0, 59, 85
4, 11232, Note_on_c, 0, 47, 85
4, 11321, Note_on_c, 0, 59, 0
4, 11321, Note_on_c, 0, 47, 0
4, 11376, Note_on_c, 0, 47, 85
4, 11376, Note_on_c, 0, 35, 85
4, 11465, Note_on_c, 0, 47, 0
4, 11465, Note_on_c, 0, 35, 0
4, 11520, Note_on_c, 0, 52, 85
4, 11520, Note_on_c, 0, 40, 85
4, 11609, Note_on_c, 0, 52, 0
4, 11609, Note_on_c, 0, 40, 0
4, 11664, Note_on_c, 0, 52, 85
4, 11664, Note_on_c, 0, 40, 85
4, 11753, Note_on_c, 0, 52, 0
4, 11753, Note_on_c, 0, 40, 0
4, 11808, Note_on_c, 0, 59, 85
4, 11808, Note_on_c, 0, 47, 85
4, 11897, Note_on_c, 0, 59, 0
4, 11897, Note_on_c, 0, 47, 0
4, 11952, Note_on_c, 0, 47, 85
4, 11952, Note_on_c, 0, 35, 85
4, 12041, Note_on_c, 0, 47, 0
4, 12041, Note_on_c, 0, 35, 0
4, 12096, Note_on_c, 0, 52, 85
4, 12096, Note_on_c, 0, 40, 85
4, 12185, Note_on_c, 0, 52, 0
4, 12185, Note_on_c, 0, 40, 0
4, 12240, Note_on_c, 0, 56, 77
4, 12329, Note_on_c, 0, 56, 0
4, 12384, Note_on_c, 0, 57, 77
4, 12473, Note_on_c, 0, 57, 0
4, 12480, Note_on_c, 0, 54, 77
4, 12525, Note_on_c, 0, 54, 0
4, 12528, Note_on_c, 0, 52, 77
4, 12573, Note_on_c, 0, 52, 0
4, 12576, Note_on_c, 0, 56, 77
4, 12621, Note_on_c, 0, 56, 0
4, 12624, Note_on_c, 0, 59, 77
4, 12669, Note_on_c, 0, 59, 0
4, 12672, Note_on_c, 0, 52, 77
4, 12761, Note_on_c, 0, 52, 0
4, 12816, Note_on_c, 0, 56, 77
4, 12816, Note_on_c, 0, 52, 77
4, 12905, Note_on_c, 0, 56, 0
4, 12905, Note_on_c, 0, 52, 0
4, 12960, Note_on_c, 0, 56, 77
4, 12960, Note_on_c, 0, 52, 77
4, 13049, Note_on_c, 0, 56, 0
4, 13049, Note_on_c, 0, 52, 0
4, 13104, Note_on_c, 0, 47, 77
4, 13193, Note_on_c, 0, 47, 0
4, 13200, Note_on_c, 0, 52, 77
4, 13245, Note_on_c, 0, 52, 0
4, 13248, Note_on_c, 0, 56, 77
4, 13248, Note_on_c, 0, 52, 77
4, 13337, Note_on_c, 0, 56, 0
4, 13337, Note_on_c, 0, 52, 0
4, 13392, Note_on_c, 0, 57, 77
4, 13437, Note_on_c, 0, 57, 0
4, 13440, Note_on_c, 0, 54, 77
4, 13485, Note_on_c, 0, 54, 0
4, 13488, Note_on_c, 0, 56, 77
4, 13533, Note_on_c, 0, 56, 0
4, 13584, Note_on_c, 0, 51, 77
4, 13629, Note_on_c, 0, 51, 0
4, 13632, Note_on_c, 0, 52, 77
4, 13677, Note_on_c, 0, 52, 0
4, 13680, Note_on_c, 0, 59, 77
4, 13725, Note_on_c, 0, 59, 0
4, 13728, Note_on_c, 0, 54, 77
4, 13773, Note_on_c, 0, 54, 0
4, 13776, Note_on_c, 0, 47, 77
4, 13821, Note_on_c, 0, 47, 0
4, 13824, Note_on_c, 0, 61, 61
4, 13869, Note_on_c, 0, 61, 0
4, 13872, Note_on_c, 0, 61, 61
4, 13917, Note_on_c, 0, 61, 0
4, 13920, Note_on_c, 0, 61, 61
4, 13965, Note_on_c, 0, 61, 0
4, 13968, Note_on_c, 0, 61, 61
4, 14013, Note_on_c, 0, 61, 0
4, 14016, Note_on_c, 0, 61, 61
4, 14061, Note_on_c, 0, 61, 0
4, 14064, Note_on_c, 0, 61, 61
4, 14109, Note_on_c, 0, 61, 0
4, 14112, Note_on_c, 0, 61, 61
4, 14157, Note_on_c, 0, 61, 0
4, 14160, Note_on_c, 0, 61, 61
4, 14205, Note_on_c, 0, 61, 0
4, 14208, Note_on_c, 0, 61, 61
4, 14253, Note_on_c, 0, 61, 0
4, 14400, Note_on_c, 0, 59, 77
4, 14445, Note_on_c, 0, 59, 0
4, 14448, Note_on_c, 0, 59, 77
4, 14493, Note_on_c, 0, 59, 0
4, 14496, Note_on_c, 0, 59, 77
4, 14541, Note_on_c, 0, 59, 0
4, 14544, Note_on_c, 0, 59, 77
4, 14589, Note_on_c, 0, 59, 0
4, 14592, Note_on_c, 0, 59, 77
4, 14637, Note_on_c, 0, 59, 0
4, 14640, Note_on_c, 0, 59, 77
4, 14685, Note_on_c, 0, 59, 0
4, 14688, Note_on_c, 0, 59, 77
4, 14733, Note_on_c, 0, 59, 0
4, 14736, Note_on_c, 0, 59, 77
4, 14781, Note_on_c, 0, 59, 0
4, 14784, Note_on_c, 0, 59, 77
4, 14829, Note_on_c, 0, 59, 0
4, 14832, Note_on_c, 0, 52, 77
4, 14855, Note_on_c, 0, 52, 0
4, 14856, Note_on_c, 0, 64, 77
4, 14879, Note_on_c, 0, 64, 0
4, 14880, Note_on_c, 0, 63, 77
4, 14903, Note_on_c, 0, 63, 0
4, 14904, Note_on_c, 0, 64, 77
4, 14927, Note_on_c, 0, 64, 0
4, 14928, Note_on_c, 0, 52, 77
4, 14973, Note_on_c, 0, 52, 0
4, 15168, Note_on_c, 0, 56, 77
4, 15216, Note_on_c, 0, 56, 0
4, 15216, Note_on_c, 0, 57, 77
4, 15261, Note_on_c, 0, 57, 0
4, 15456, Note_on_c, 0, 58, 77
4, 15504, Note_on_c, 0, 58, 0
4, 15504, Note_on_c, 0, 59, 77
4, 15549, Note_on_c, 0, 59, 0
4, 15744, Note_on_c, 0, 51, 77
4, 15792, Note_on_c, 0, 51, 0
4, 15792, Note_on_c, 0, 52, 77
4, 15837, Note_on_c, 0, 52, 0
4, 15840, Note_on_c, 0, 59, 77
4, 15885, Note_on_c, 0, 59, 0
4, 15888, Note_on_c, 0, 54, 77
4, 15933, Note_on_c, 0, 54, 0
4, 15936, Note_on_c, 0, 47, 77
4, 15981, Note_on_c, 0, 47, 0
4, 15984, Note_on_c, 0, 47, 77
4, 16007, Note_on_c, 0, 47, 0
4, 16008, Note_on_c, 0, 59, 77
4, 16031, Note_on_c, 0, 59, 0
4, 16032, Note_on_c, 0, 47, 77
4, 16055, Note_on_c, 0, 47, 0
4, 16056, Note_on_c, 0, 59, 78
4, 16079, Note_on_c, 0, 59, 0
4, 16080, Note_on_c, 0, 47, 78
4, 16103, Note_on_c, 0, 47, 0
4, 16104, Note_on_c, 0, 59, 79
4, 16127, Note_on_c, 0, 59, 0
4, 16128, Note_on_c, 0, 47, 79
4, 16151, Note_on_c, 0, 47, 0
4, 16152, Note_on_c, 0, 59, 79
4, 16175, Note_on_c, 0, 59, 0
4, 16176, Note_on_c, 0, 47, 80
4, 16199, Note_on_c, 0, 47, 0
4, 16200, Note_on_c, 0, 59, 80
4, 16223, Note_on_c, 0, 59, 0
4, 16224, Note_on_c, 0, 47, 81
4, 16247, Note_on_c, 0, 47, 0
4, 16248, Note_on_c, 0, 59, 81
4, 16271, Note_on_c, 0, 59, 0
4, 16272, Note_on_c, 0, 47, 82
4, 16295, Note_on_c, 0, 47, 0
4, 16296, Note_on_c, 0, 59, 82
4, 16319, Note_on_c, 0, 59, 0
4, 16320, Note_on_c, 0, 47, 82
4, 16343, Note_on_c, 0, 47, 0
4, 16344, Note_on_c, 0, 59, 83
4, 16367, Note_on_c, 0, 59, 0
4, 16368, Note_on_c, 0, 47, 83
4, 16391, Note_on_c, 0, 47, 0
4, 16392, Note_on_c, 0, 59, 84
4, 16415, Note_on_c, 0, 59, 0
4, 16416, Note_on_c, 0, 47, 84
4, 16439, Note_on_c, 0, 47, 0
4, 16440, Note_on_c, 0, 59, 85
4, 16463, Note_on_c, 0, 59, 0
4, 16464, Note_on_c, 0, 54, 85
4, 16487, Note_on_c, 0, 54, 0
4, 16488, Note_on_c, 0, 51, 85
4, 16511, Note_on_c, 0, 51, 0
4, 16512, Note_on_c, 0, 47, 85
4, 16557, Note_on_c, 0, 47, 0
4, 16560, Note_on_c, 0, 47, 77
4, 16583, Note_on_c, 0, 47, 0
4, 16584, Note_on_c, 0, 59, 77
4, 16607, Note_on_c, 0, 59, 0
4, 16608, Note_on_c, 0, 47, 77
4, 16631, Note_on_c, 0, 47, 0
4, 16632, Note_on_c, 0, 59, 78
4, 16655, Note_on_c, 0, 59, 0
4, 16656, Note_on_c, 0, 47, 78
4, 16679, Note_on_c, 0, 47, 0
4, 16680, Note_on_c, 0, 59, 79
4, 16703, Note_on_c, 0, 59, 0
4, 16704, Note_on_c, 0, 47, 79
4, 16727, Note_on_c, 0, 47, 0
4, 16728, Note_on_c, 0, 59, 79
4, 16751, Note_on_c, 0, 59, 0
4, 16752, Note_on_c, 0, 47, 80
4, 16775, Note_on_c, 0, 47, 0
4, 16776, Note_on_c, 0, 59, 80
4, 16799, Note_on_c, 0, 59, 0
4, 16800, Note_on_c, 0, 47, 81
4, 16823, Note_on_c, 0, 47, 0
4, 16824, Note_on_c, 0, 59, 81
4, 16847, Note_on_c, 0, 59, 0
4, 16848, Note_on_c, 0, 47, 82
4, 16871, Note_on_c, 0, 47, 0
4, 16872, Note_on_c, 0, 59, 82
4, 16895, Note_on_c, 0, 59, 0
4, 16896, Note_on_c, 0, 47, 82
4, 16919, Note_on_c, 0, 47, 0
4, 16920, Note_on_c, 0, 59, 83
4, 16943, Note_on_c, 0, 59, 0
4, 16944, Note_on_c, 0, 47, 83
4, 16967, Note_on_c, 0, 47, 0
4, 16968, Note_on_c, 0, 59, 84
4, 16991, Note_on_c, 0, 59, 0
4, 16992, Note_on_c, 0, 47, 84
4, 17015, Note_on_c, 0, 47, 0
4, 17016, Note_on_c, 0, 59, 85
4, 17039, Note_on_c, 0, 59, 0
4, 17040, Note_on_c, 0, 54, 85
4, 17063, Note_on_c, 0, 54, 0
4, 17064, Note_on_c, 0, 51, 85
4, 17087, Note_on_c, 0, 51, 0
4, 17088, Note_on_c, 0, 47, 85
4, 17133, Note_on_c, 0, 47, 0
4, 17136, Note_on_c, 0, 52, 85
4, 17159, Note_on_c, 0, 52, 0
4, 17160, Note_on_c, 0, 64, 85
4, 17183, Note_on_c, 0, 64, 0
4, 17184, Note_on_c, 0, 52, 85
4, 17207, Note_on_c, 0, 52, 0
4, 17208, Note_on_c, 0, 64, 85
4, 17231, Note_on_c, 0, 64, 0
4, 17232, Note_on_c, 0, 52, 85
4, 17255, Note_on_c, 0, 52, 0
4, 17256, Note_on_c, 0, 64, 85
4, 17279, Note_on_c, 0, 64, 0
4, 17280, Note_on_c, 0, 52, 85
4, 17303, Note_on_c, 0, 52, 0
4, 17304, Note_on_c, 0, 64, 85
4, 17327, Note_on_c, 0, 64, 0
4, 17328, Note_on_c, 0, 52, 85
4, 17351, Note_on_c, 0, 52, 0
4, 17352, Note_on_c, 0, 64, 85
4, 17375, Note_on_c, 0, 64, 0
4, 17376, Note_on_c, 0, 52, 85
4, 17399, Note_on_c, 0, 52, 0
4, 17400, Note_on_c, 0, 64, 85
4, 17423, Note_on_c, 0, 64, 0
4, 17424, Note_on_c, 0, 52, 85
4, 17447, Note_on_c, 0, 52, 0
4, 17448, Note_on_c, 0, 64, 85
4, 17471, Note_on_c, 0, 64, 0
4, 17472, Note_on_c, 0, 52, 85
4, 17495, Note_on_c, 0, 52, 0
4, 17496, Note_on_c, 0, 64, 85
4, 17519, Note_on_c, 0, 64, 0
4, 17520, Note_on_c, 0, 52, 85
4, 17543, Note_on_c, 0, 52, 0
4, 17544, Note_on_c, 0, 64, 85
4, 17567, Note_on_c, 0, 64, 0
4, 17568, Note_on_c, 0, 52, 85
4, 17591, Note_on_c, 0, 52, 0
4, 17592, Note_on_c, 0, 64, 85
4, 17615, Note_on_c, 0, 64, 0
4, 17616, Note_on_c, 0, 52, 85
4, 17639, Note_on_c, 0, 52, 0
4, 17640, Note_on_c, 0, 64, 85
4, 17663, Note_on_c, 0, 64, 0
4, 17664, Note_on_c, 0, 52, 85
4, 17687, Note_on_c, 0, 52, 0
4, 17688, Note_on_c, 0, 64, 85
4, 17711, Note_on_c, 0, 64, 0
4, 17712, Note_on_c, 0, 52, 85
4, 17735, Note_on_c, 0, 52, 0
4, 17736, Note_on_c, 0, 64, 85
4, 17759, Note_on_c, 0, 64, 0
4, 17760, Note_on_c, 0, 52, 85
4, 17783, Note_on_c, 0, 52, 0
4, 17784, Note_on_c, 0, 64, 85
4, 17807, Note_on_c, 0, 64, 0
4, 17808, Note_on_c, 0, 52, 85
4, 17831, Note_on_c, 0, 52, 0
4, 17832, Note_on_c, 0, 64, 85
4, 17855, Note_on_c, 0, 64, 0
4, 17856, Note_on_c, 0, 66, 85
4, 17945, Note_on_c, 0, 66, 0
4, 17952, Note_on_c, 0, 63, 82
4, 17997, Note_on_c, 0, 63, 0
4, 18000, Note_on_c, 0, 64, 81
4, 18089, Note_on_c, 0, 64, 0
4, 18096, Note_on_c, 0, 61, 79
4, 18141, Note_on_c, 0, 61, 0
4, 18144, Note_on_c, 0, 63, 78
4, 18233, Note_on_c, 0, 63, 0
4, 18240, Note_on_c, 0, 60, 76
4, 18285, Note_on_c, 0, 60, 0
4, 18288, Note_on_c, 0, 61, 75
4, 18377, Note_on_c, 0, 61, 0
4, 18384, Note_on_c, 0, 57, 73
4, 18429, Note_on_c, 0, 57, 0
4, 18432, Note_on_c, 0, 54, 72
4, 18477, Note_on_c, 0, 54, 0
4, 18480, Note_on_c, 0, 56, 71
4, 18525, Note_on_c, 0, 56, 0
4, 18528, Note_on_c, 0, 44, 70
4, 18573, Note_on_c, 0, 44, 0
4, 18576, Note_on_c, 0, 49, 69
4, 18665, Note_on_c, 0, 49, 0
4, 18720, Note_on_c, 0, 61, 77
4, 18720, Note_on_c, 0, 57, 77
4, 18809, Note_on_c, 0, 61, 0
4, 18809, Note_on_c, 0, 57, 0
4, 18864, Note_on_c, 0, 61, 77
4, 18864, Note_on_c, 0, 57, 77
4, 18953, Note_on_c, 0, 61, 0
4, 18953, Note_on_c, 0, 57, 0
4, 19008, Note_on_c, 0, 52, 77
4, 19097, Note_on_c, 0, 52, 0
4, 19104, Note_on_c, 0, 57, 77
4, 19149, Note_on_c, 0, 57, 0
4, 19152, Note_on_c, 0, 61, 77
4, 19152, Note_on_c, 0, 57, 77
4, 19241, Note_on_c, 0, 61, 0
4, 19241, Note_on_c, 0, 57, 0
4, 19296, Note_on_c, 0, 62, 77
4, 19341, Note_on_c, 0, 62, 0
4, 19344, Note_on_c, 0, 59, 77
4, 19389, Note_on_c, 0, 59, 0
4, 19392, Note_on_c, 0, 61, 77
4, 19437, Note_on_c, 0, 61, 0
4, 19488, Note_on_c, 0, 56, 77
4, 19533, Note_on_c, 0, 56, 0
4, 19536, Note_on_c, 0, 57, 77
4, 19581, Note_on_c, 0, 57, 0
4, 19584, Note_on_c, 0, 52, 77
4, 19673, Note_on_c, 0, 52, 0
4, 19680, Note_on_c, 0, 54, 77
4, 19725, Note_on_c, 0, 54, 0
4, 19728, Note_on_c, 0, 49, 77
4, 19751, Note_on_c, 0, 49, 0
4, 19752, Note_on_c, 0, 57, 77
4, 19775, Note_on_c, 0, 57, 0
4, 19776, Note_on_c, 0, 52, 77
4, 19799, Note_on_c, 0, 52, 0
4, 19800, Note_on_c, 0, 57, 77
4, 19823, Note_on_c, 0, 57, 0
4, 19824, Note_on_c, 0, 49, 77
4, 19847, Note_on_c, 0, 49, 0
4, 19848, Note_on_c, 0, 57, 77
4, 19871, Note_on_c, 0, 57, 0
4, 19872, Note_on_c, 0, 50, 77
4, 19895, Note_on_c, 0, 50, 0
4, 19896, Note_on_c, 0, 57, 77
4, 19919, Note_on_c, 0, 57, 0
4, 19920, Note_on_c, 0, 54, 77
4, 19943, Note_on_c, 0, 54, 0
4, 19944, Note_on_c, 0, 57, 77
4, 19967, Note_on_c, 0, 57, 0
4, 19968, Note_on_c, 0, 50, 77
4, 19991, Note_on_c, 0, 50, 0
4, 19992, Note_on_c, 0, 57, 77
4, 20015, Note_on_c, 0, 57, 0
4, 20016, Note_on_c, 0, 51, 77
4, 20039, Note_on_c, 0, 51, 0
4, 20040, Note_on_c, 0, 59, 77
4, 20063, Note_on_c, 0, 59, 0
4, 20064, Note_on_c, 0, 54, 77
4, 20087, Note_on_c, 0, 54, 0
4, 20088, Note_on_c, 0, 59, 77
4, 20111, Note_on_c, 0, 59, 0
4, 20112, Note_on_c, 0, 51, 77
4, 20135, Note_on_c, 0, 51, 0
4, 20136, Note_on_c, 0, 59, 77
4, 20159, Note_on_c, 0, 59, 0
4, 20160, Note_on_c, 0, 52, 77
4, 20183, Note_on_c, 0, 52, 0
4, 20184, Note_on_c, 0, 59, 77
4, 20207, Note_on_c, 0, 59, 0
4, 20208, Note_on_c, 0, 56, 77
4, 20231, Note_on_c, 0, 56, 0
4, 20232, Note_on_c, 0, 59, 77
4, 20255, Note_on_c, 0, 59, 0
4, 20256, Note_on_c, 0, 52, 77
4, 20279, Note_on_c, 0, 52, 0
4, 20280, Note_on_c, 0, 59, 77
4, 20303, Note_on_c, 0, 59, 0
4, 20304, Note_on_c, 0, 56, 77
4, 20327, Note_on_c, 0, 56, 0
4, 20328, Note_on_c, 0, 64, 77
4, 20351, Note_on_c, 0, 64, 0
4, 20352, Note_on_c, 0, 59, 77
4, 20375, Note_on_c, 0, 59, 0
4, 20376, Note_on_c, 0, 64, 77
4, 20399, Note_on_c, 0, 64, 0
4, 20400, Note_on_c, 0, 57, 77
4, 20423, Note_on_c, 0, 57, 0
4, 20424, Note_on_c, 0, 64, 77
4, 20447, Note_on_c, 0, 64, 0
4, 20448, Note_on_c, 0, 59, 77
4, 20471, Note_on_c, 0, 59, 0
4, 20472, Note_on_c, 0, 64, 77
4, 20495, Note_on_c, 0, 64, 0
4, 20496, Note_on_c, 0, 62, 77
4, 20519, Note_on_c, 0, 62, 0
4, 20520, Note_on_c, 0, 64, 77
4, 20543, Note_on_c, 0, 64, 0
4, 20544, Note_on_c, 0, 61, 77
4, 20567, Note_on_c, 0, 61, 0
4, 20568, Note_on_c, 0, 64, 77
4, 20591, Note_on_c, 0, 64, 0
4, 20592, Note_on_c, 0, 56, 69
4, 20615, Note_on_c, 0, 56, 0
4, 20616, Note_on_c, 0, 64, 69
4, 20639, Note_on_c, 0, 64, 0
4, 20640, Note_on_c, 0, 59, 69
4, 20663, Note_on_c, 0, 59, 0
4, 20664, Note_on_c, 0, 64, 69
4, 20687, Note_on_c, 0, 64, 0
4, 20688, Note_on_c, 0, 57, 69
4, 20711, Note_on_c, 0, 57, 0
4, 20712, Note_on_c, 0, 64, 69
4, 20735, Note_on_c, 0, 64, 0
4, 20736, Note_on_c, 0, 59, 69
4, 20759, Note_on_c, 0, 59, 0
4, 20760, Note_on_c, 0, 64, 69
4, 20783, Note_on_c, 0, 64, 0
4, 20784, Note_on_c, 0, 62, 69
4, 20807, Note_on_c, 0, 62, 0
4, 20808, Note_on_c, 0, 64, 69
4, 20831, Note_on_c, 0, 64, 0
4, 20832, Note_on_c, 0, 61, 69
4, 20855, Note_on_c, 0, 61, 0
4, 20856, Note_on_c, 0, 64, 69
4, 20879, Note_on_c, 0, 64, 0
4, 20880, Note_on_c, 0, 62, 69
4, 20925, Note_on_c, 0, 62, 0
4, 20928, Note_on_c, 0, 59, 69
4, 20973, Note_on_c, 0, 59, 0
4, 20976, Note_on_c, 0, 56, 69
4, 21021, Note_on_c, 0, 56, 0
4, 21024, Note_on_c, 0, 61, 69
4, 21069, Note_on_c, 0, 61, 0
4, 21072, Note_on_c, 0, 57, 69
4, 21117, Note_on_c, 0, 57, 0
4, 21120, Note_on_c, 0, 54, 69
4, 21165, Note_on_c, 0, 54, 0
4, 21168, Note_on_c, 0, 59, 69
4, 21213, Note_on_c, 0, 59, 0
4, 21216, Note_on_c, 0, 56, 69
4, 21261, Note_on_c, 0, 56, 0
4, 21264, Note_on_c, 0, 52, 69
4, 21309, Note_on_c, 0, 52, 0
4, 21312, Note_on_c, 0, 57, 69
4, 21401, Note_on_c, 0, 57, 0
4, 21408, Note_on_c, 0, 56, 69
4, 21453, Note_on_c, 0, 56, 0
4, 21456, Note_on_c, 0, 54, 69
4, 21545, Note_on_c, 0, 54, 0
4, 21552, Note_on_c, 0, 49, 69
4, 21597, Note_on_c, 0, 49, 0
4, 21600, Note_on_c, 0, 50, 69
4, 21645, Note_on_c, 0, 50, 0
4, 21648, Note_on_c, 0, 47, 69
4, 21693, Note_on_c, 0, 47, 0
4, 21696, Note_on_c, 0, 52, 69
4, 21741, Note_on_c, 0, 52, 0
4, 21744, Note_on_c, 0, 45, 69
4, 21833, Note_on_c, 0, 45, 0
4, 21888, Note_on_c, 0, 64, 61
4, 21888, Note_on_c, 0, 60, 61
4, 21933, Note_on_c, 0, 64, 0
4, 21933, Note_on_c, 0, 60, 0
4, 21936, Note_on_c, 0, 65, 61
4, 21936, Note_on_c, 0, 62, 61
4, 21981, Note_on_c, 0, 65, 0
4, 21981, Note_on_c, 0, 62, 0
4, 21984, Note_on_c, 0, 62, 61
4, 21984, Note_on_c, 0, 59, 61
4, 22029, Note_on_c, 0, 62, 0
4, 22029, Note_on_c, 0, 59, 0
4, 22032, Note_on_c, 0, 64, 61
4, 22032, Note_on_c, 0, 60, 61
4, 22121, Note_on_c, 0, 64, 0
4, 22121, Note_on_c, 0, 60, 0
4, 22176, Note_on_c, 0, 64, 61
4, 22176, Note_on_c, 0, 60, 61
4, 22221, Note_on_c, 0, 64, 0
4, 22221, Note_on_c, 0, 60, 0
4, 22224, Note_on_c, 0, 65, 61
4, 22224, Note_on_c, 0, 62, 61
4, 22269, Note_on_c, 0, 65, 0
4, 22269, Note_on_c, 0, 62, 0
4, 22272, Note_on_c, 0, 62, 61
4, 22272, Note_on_c, 0, 59, 61
4, 22317, Note_on_c, 0, 62, 0
4, 22317, Note_on_c, 0, 59, 0
4, 22320, Note_on_c, 0, 64, 61
4, 22320, Note_on_c, 0, 60, 61
4, 22409, Note_on_c, 0, 64, 0
4, 22409, Note_on_c, 0, 60, 0
4, 22464, Note_on_c, 0, 62, 61
4, 22509, Note_on_c, 0, 62, 0
4, 22512, Note_on_c, 0, 59, 61
4, 22557, Note_on_c, 0, 59, 0
4, 22560, Note_on_c, 0, 55, 61
4, 22605, Note_on_c, 0, 55, 0
4, 22608, Note_on_c, 0, 60, 61
4, 22653, Note_on_c, 0, 60, 0
4, 22656, Note_on_c, 0, 57, 61
4, 22701, Note_on_c, 0, 57, 0
4, 22704, Note_on_c, 0, 53, 61
4, 22749, Note_on_c, 0, 53, 0
4, 22752, Note_on_c, 0, 59, 61
4, 22797, Note_on_c, 0, 59, 0
4, 22800, Note_on_c, 0, 56, 61
4, 22845, Note_on_c, 0, 56, 0
4, 22848, Note_on_c, 0, 52, 61
4, 22893, Note_on_c, 0, 52, 0
4, 22896, Note_on_c, 0, 57, 61
4, 22941, Note_on_c, 0, 57, 0
4, 22944, Note_on_c, 0, 60, 61
4, 22989, Note_on_c, 0, 60, 0
4, 22992, Note_on_c, 0, 57, 61
4, 23037, Note_on_c, 0, 57, 0
4, 23088, Note_on_c, 0, 56, 61
4, 23111, Note_on_c, 0, 56, 0
4, 23112, Note_on_c, 0, 57, 61
4, 23135, Note_on_c, 0, 57, 0
4, 23136, Note_on_c, 0, 59, 61
4, 23159, Note_on_c, 0, 59, 0
4, 23160, Note_on_c, 0, 57, 61
4, 23183, Note_on_c, 0, 57, 0
4, 23184, Note_on_c, 0, 52, 61
4, 23273, Note_on_c, 0, 52, 0
4, 23328, Note_on_c, 0, 57, 85
4, 23328, Note_on_c, 0, 45, 85
4, 23417, Note_on_c, 0, 57, 0
4, 23417, Note_on_c, 0, 45, 0
4, 23472, Note_on_c, 0, 52, 85
4, 23472, Note_on_c, 0, 40, 85
4, 23561, Note_on_c, 0, 52, 0
4, 23561, Note_on_c, 0, 40, 0
4, 23616, Note_on_c, 0, 52, 85
4, 23616, Note_on_c, 0, 40, 85
4, 23705, Note_on_c, 0, 52, 0
4, 23705, Note_on_c, 0, 40, 0
4, 23760, Note_on_c, 0, 57, 85
4, 23760, Note_on_c, 0, 45, 85
4, 23849, Note_on_c, 0, 57, 0
4, 23849, Note_on_c, 0, 45, 0
4, 23904, Note_on_c, 0, 57, 77
4, 23904, Note_on_c, 0, 45, 77
4, 23993, Note_on_c, 0, 57, 0
4, 23993, Note_on_c, 0, 45, 0
4, 24048, Note_on_c, 0, 52, 77
4, 24048, Note_on_c, 0, 40, 77
4, 24137, Note_on_c, 0, 52, 0
4, 24137, Note_on_c, 0, 40, 0
4, 24192, Note_on_c, 0, 52, 77
4, 24192, Note_on_c, 0, 40, 77
4, 24281, Note_on_c, 0, 52, 0
4, 24281, Note_on_c, 0, 40, 0
4, 24336, Note_on_c, 0, 57, 77
4, 24336, Note_on_c, 0, 45, 77
4, 24425, Note_on_c, 0, 57, 0
4, 24425, Note_on_c, 0, 45, 0
4, 24480, Note_on_c, 0, 49, 77
4, 24613, Note_on_c, 0, 49, 0
4, 24624, Note_on_c, 0, 50, 77
4, 24713, Note_on_c, 0, 50, 0
4, 24720, Note_on_c, 0, 47, 77
4, 24765, Note_on_c, 0, 47, 0
4, 24768, Note_on_c, 0, 45, 77
4, 24813, Note_on_c, 0, 45, 0
4, 24816, Note_on_c, 0, 49, 77
4, 24861, Note_on_c, 0, 49, 0
4, 24864, Note_on_c, 0, 52, 77
4, 24909, Note_on_c, 0, 52, 0
4, 24912, Note_on_c, 0, 45, 77
4, 25001, Note_on_c, 0, 45, 0
4, 25056, Note_on_c, 0, 56, 77
4, 25056, Note_on_c, 0, 52, 77
4, 25145, Note_on_c, 0, 56, 0
4, 25145, Note_on_c, 0, 52, 0
4, 25200, Note_on_c, 0, 56, 77
4, 25200, Note_on_c, 0, 52, 77
4, 25289, Note_on_c, 0, 56, 0
4, 25289, Note_on_c, 0, 52, 0
4, 25344, Note_on_c, 0, 47, 77
4, 25433, Note_on_c, 0, 47, 0
4, 25440, Note_on_c, 0, 52, 77
4, 25485, Note_on_c, 0, 52, 0
4, 25488, Note_on_c, 0, 56, 77
4, 25488, Note_on_c, 0, 52, 77
4, 25577, Note_on_c, 0, 56, 0
4, 25577, Note_on_c, 0, 52, 0
4, 25632, Note_on_c, 0, 57, 77
4, 25677, Note_on_c, 0, 57, 0
4, 25680, Note_on_c, 0, 54, 77
4, 25725, Note_on_c, 0, 54, 0
4, 25728, Note_on_c, 0, 56, 77
4, 25773, Note_on_c, 0, 56, 0
4, 25824, Note_on_c, 0, 51, 77
4, 25869, Note_on_c, 0, 51, 0
4, 25872, Note_on_c, 0, 52, 77
4, 25917, Note_on_c, 0, 52, 0
4, 25920, Note_on_c, 0, 59, 77
4, 25965, Note_on_c, 0, 59, 0
4, 25968, Note_on_c, 0, 54, 77
4, 26013, Note_on_c, 0, 54, 0
4, 26016, Note_on_c, 0, 47, 77
4, 26061, Note_on_c, 0, 47, 0
4, 26064, Note_on_c, 0, 61, 61
4, 26109, Note_on_c, 0, 61, 0
4, 26112, Note_on_c, 0, 61, 61
4, 26157, Note_on_c, 0, 61, 0
4, 26160, Note_on_c, 0, 61, 61
4, 26205, Note_on_c, 0, 61, 0
4, 26208, Note_on_c, 0, 61, 61
4, 26253, Note_on_c, 0, 61, 0
4, 26256, Note_on_c, 0, 61, 61
4, 26301, Note_on_c, 0, 61, 0
4, 26304, Note_on_c, 0, 61, 61
4, 26349, Note_on_c, 0, 61, 0
4, 26352, Note_on_c, 0, 61, 61
4, 26397, Note_on_c, 0, 61, 0
4, 26400, Note_on_c, 0, 61, 61
4, 26445, Note_on_c, 0, 61, 0
4, 26448, Note_on_c, 0, 61, 61
4, 26493, Note_on_c, 0, 61, 0
4, 26640, Note_on_c, 0, 59, 77
4, 26685, Note_on_c, 0, 59, 0
4, 26688, Note_on_c, 0, 59, 77
4, 26733, Note_on_c, 0, 59, 0
4, 26736, Note_on_c, 0, 59, 77
4, 26781, Note_on_c, 0, 59, 0
4, 26784, Note_on_c, 0, 59, 77
4, 26829, Note_on_c, 0, 59, 0
4, 26832, Note_on_c, 0, 59, 77
4, 26877, Note_on_c, 0, 59, 0
4, 26880, Note_on_c, 0, 59, 77
4, 26925, Note_on_c, 0, 59, 0
4, 26928, Note_on_c, 0, 59, 77
4, 26973, Note_on_c, 0, 59, 0
4, 26976, Note_on_c, 0, 59, 77
4, 27021, Note_on_c, 0, 59, 0
4, 27024, Note_on_c, 0, 59, 77
4, 27069, Note_on_c, 0, 59, 0
4, 27072, Note_on_c, 0, 52, 77
4, 27095, Note_on_c, 0, 52, 0
4, 27096, Note_on_c, 0, 64, 77
4, 27119, Note_on_c, 0, 64, 0
4, 27120, Note_on_c, 0, 63, 77
4, 27143, Note_on_c, 0, 63, 0
4, 27144, Note_on_c, 0, 64, 77
4, 27167, Note_on_c, 0, 64, 0
4, 27168, Note_on_c, 0, 52, 77
4, 27213, Note_on_c, 0, 52, 0
4, 27408, Note_on_c, 0, 56, 77
4, 27456, Note_on_c, 0, 56, 0
4, 27456, Note_on_c, 0, 57, 77
4, 27501, Note_on_c, 0, 57, 0
4, 27696, Note_on_c, 0, 58, 77
4, 27744, Note_on_c, 0, 58, 0
4, 27744, Note_on_c, 0, 59, 77
4, 27789, Note_on_c, 0, 59, 0
4, 27984, Note_on_c, 0, 51, 77
4, 28032, Note_on_c, 0, 51, 0
4, 28032, Note_on_c, 0, 52, 77
4, 28077, Note_on_c, 0, 52, 0
4, 28080, Note_on_c, 0, 59, 77
4, 28125, Note_on_c, 0, 59, 0
4, 28128, Note_on_c, 0, 54, 77
4, 28173, Note_on_c, 0, 54, 0
4, 28176, Note_on_c, 0, 47, 77
4, 28221, Note_on_c, 0, 47, 0
4, 28224, Note_on_c, 0, 47, 77
4, 28247, Note_on_c, 0, 47, 0
4, 28248, Note_on_c, 0, 59, 77
4, 28271, Note_on_c, 0, 59, 0
4, 28272, Note_on_c, 0, 47, 77
4, 28295, Note_on_c, 0, 47, 0
4, 28296, Note_on_c, 0, 59, 78
4, 28319, Note_on_c, 0, 59, 0
4, 28320, Note_on_c, 0, 47, 78
4, 28343, Note_on_c, 0, 47, 0
4, 28344, Note_on_c, 0, 59, 79
4, 28367, Note_on_c, 0, 59, 0
4, 28368, Note_on_c, 0, 47, 79
4, 28391, Note_on_c, 0, 47, 0
4, 28392, Note_on_c, 0, 59, 79
4, 28415, Note_on_c, 0, 59, 0
4, 28416, Note_on_c, 0, 47, 80
4, 28439, Note_on_c, 0, 47, 0
4, 28440, Note_on_c, 0, 59, 80
4, 28463, Note_on_c, 0, 59, 0
4, 28464, Note_on_c, 0, 47, 81
4, 28487, Note_on_c, 0, 47, 0
4, 28488, Note_on_c, 0, 59, 81
4, 28511, Note_on_c, 0, 59, 0
4, 28512, Note_on_c, 0, 47, 82
4, 28535, Note_on_c, 0, 47, 0
4, 28536, Note_on_c, 0, 59, 82
4, 28559, Note_on_c, 0, 59, 0
4, 28560, Note_on_c, 0, 47, 82
4, 28583, Note_on_c, 0, 47, 0
4, 28584, Note_on_c, 0, 59, 83
4, 28607, Note_on_c, 0, 59, 0
4, 28608, Note_on_c, 0, 47, 83
4, 28631, Note_on_c, 0, 47, 0
4, 28632, Note_on_c, 0, 59, 84
4, 28655, Note_on_c, 0, 59, 0
4, 28656, Note_on_c, 0, 47, 84
4, 28679, Note_on_c, 0, 47, 0
4, 28680, Note_on_c, 0, 59, 85
4, 28703, Note_on_c, 0, 59, 0
4, 28704, Note_on_c, 0, 54, 85
4, 28727, Note_on_c, 0, 54, 0
4, 28728, Note_on_c, 0, 51, 85
4, 28751, Note_on_c, 0, 51, 0
4, 28752, Note_on_c, 0, 47, 85
4, 28797, Note_on_c, 0, 47, 0
4, 28800, Note_on_c, 0, 47, 77
4, 28823, Note_on_c, 0, 47, 0
4, 28824, Note_on_c, 0, 59, 77
4, 28847, Note_on_c, 0, 59, 0
4, 28848, Note_on_c, 0, 47, 77
4, 28871, Note_on_c, 0, 47, 0
4, 28872, Note_on_c, 0, 59, 78
4, 28895, Note_on_c, 0, 59, 0
4, 28896, Note_on_c, 0, 47, 78
4, 28919, Note_on_c, 0, 47, 0
4, 28920, Note_on_c, 0, 59, 79
4, 28943, Note_on_c, 0, 59, 0
4, 28944, Note_on_c, 0, 47, 79
4, 28967, Note_on_c, 0, 47, 0
4, 28968, Note_on_c, 0, 59, 79
4, 28991, Note_on_c, 0, 59, 0
4, 28992, Note_on_c, 0, 47, 80
4, 29015, Note_on_c, 0, 47, 0
4, 29016, Note_on_c, 0, 59, 80
4, 29039, Note_on_c, 0, 59, 0
4, 29040, Note_on_c, 0, 47, 81
4, 29063, Note_on_c, 0, 47, 0
4, 29064, Note_on_c, 0, 59, 81
4, 29087, Note_on_c, 0, 59, 0
4, 29088, Note_on_c, 0, 47, 82
4, 29111, Note_on_c, 0, 47, 0
4, 29112, Note_on_c, 0, 59, 82
4, 29135, Note_on_c, 0, 59, 0
4, 29136, Note_on_c, 0, 47, 82
4, 29159, Note_on_c, 0, 47, 0
4, 29160, Note_on_c, 0, 59, 83
4, 29183, Note_on_c, 0, 59, 0
4, 29184, Note_on_c, 0, 47, 83
4, 29207, Note_on_c, 0, 47, 0
4, 29208, Note_on_c, 0, 59, 84
4, 29231, Note_on_c, 0, 59, 0
4, 29232, Note_on_c, 0, 47, 84
4, 29255, Note_on_c, 0, 47, 0
4, 29256, Note_on_c, 0, 59, 85
4, 29279, Note_on_c, 0, 59, 0
4, 29280, Note_on_c, 0, 54, 85
4, 29303, Note_on_c, 0, 54, 0
4, 29304, Note_on_c, 0, 51, 85
4, 29327, Note_on_c, 0, 51, 0
4, 29328, Note_on_c, 0, 47, 85
4, 29373, Note_on_c, 0, 47, 0
4, 29376, Note_on_c, 0, 52, 85
4, 29399, Note_on_c, 0, 52, 0
4, 29400, Note_on_c, 0, 64, 85
4, 29423, Note_on_c, 0, 64, 0
4, 29424, Note_on_c, 0, 52, 85
4, 29447, Note_on_c, 0, 52, 0
4, 29448, Note_on_c, 0, 64, 85
4, 29471, Note_on_c, 0, 64, 0
4, 29472, Note_on_c, 0, 52, 85
4, 29495, Note_on_c, 0, 52, 0
4, 29496, Note_on_c, 0, 64, 85
4, 29519, Note_on_c, 0, 64, 0
4, 29520, Note_on_c, 0, 52, 85
4, 29543, Note_on_c, 0, 52, 0
4, 29544, Note_on_c, 0, 64, 85
4, 29567, Note_on_c, 0, 64, 0
4, 29568, Note_on_c, 0, 52, 85
4, 29591, Note_on_c, 0, 52, 0
4, 29592, Note_on_c, 0, 64, 85
4, 29615, Note_on_c, 0, 64, 0
4, 29616, Note_on_c, 0, 52, 85
4, 29639, Note_on_c, 0, 52, 0
4, 29640, Note_on_c, 0, 64, 85
4, 29663, Note_on_c, 0, 64, 0
4, 29664, Note_on_c, 0, 52, 85
4, 29687, Note_on_c, 0, 52, 0
4, 29688, Note_on_c, 0, 64, 85
4, 29711, Note_on_c, 0, 64, 0
4, 29712, Note_on_c, 0, 52, 85
4, 29735, Note_on_c, 0, 52, 0
4, 29736, Note_on_c, 0, 64, 85
4, 29759, Note_on_c, 0, 64, 0
4, 29760, Note_on_c, 0, 52, 85
4, 29783, Note_on_c, 0, 52, 0
4, 29784, Note_on_c, 0, 64, 85
4, 29807, Note_on_c, 0, 64, 0
4, 29808, Note_on_c, 0, 52, 85
4, 29831, Note_on_c, 0, 52, 0
4, 29832, Note_on_c, 0, 64, 85
4, 29855, Note_on_c, 0, 64, 0
4, 29856, Note_on_c, 0, 52, 85
4, 29879, Note_on_c, 0, 52, 0
4, 29880, Note_on_c, 0, 64, 85
4, 29903, Note_on_c, 0, 64, 0
4, 29904, Note_on_c, 0, 52, 85
4, 29927, Note_on_c, 0, 52, 0
4, 29928, Note_on_c, 0, 64, 85
4, 29951, Note_on_c, 0, 64, 0
4, 29952, Note_on_c, 0, 52, 85
4, 29975, Note_on_c, 0, 52, 0
4, 29976, Note_on_c, 0, 64, 85
4, 29999, Note_on_c, 0, 64, 0
4, 30000, Note_on_c, 0, 52, 85
4, 30023, Note_on_c, 0, 52, 0
4, 30024, Note_on_c, 0, 64, 85
4, 30047, Note_on_c, 0, 64, 0
4, 30048, Note_on_c, 0, 52, 85
4, 30071, Note_on_c, 0, 52, 0
4, 30072, Note_on_c, 0, 64, 85
4, 30095, Note_on_c, 0, 64, 0
4, 30096, Note_on_c, 0, 66, 85
4, 30185, Note_on_c, 0, 66, 0
4, 30192, Note_on_c, 0, 63, 82
4, 30237, Note_on_c, 0, 63, 0
4, 30240, Note_on_c, 0, 64, 81
4, 30329, Note_on_c, 0, 64, 0
4, 30336, Note_on_c, 0, 61, 79
4, 30381, Note_on_c, 0, 61, 0
4, 30384, Note_on_c, 0, 63, 78
4, 30473, Note_on_c, 0, 63, 0
4, 30480, Note_on_c, 0, 60, 76
4, 30525, Note_on_c, 0, 60, 0
4, 30528, Note_on_c, 0, 61, 75
4, 30617, Note_on_c, 0, 61, 0
4, 30624, Note_on_c, 0, 57, 73
4, 30669, Note_on_c, 0, 57, 0
4, 30672, Note_on_c, 0, 54, 72
4, 30717, Note_on_c, 0, 54, 0
4, 30720, Note_on_c, 0, 56, 71
4, 30765, Note_on_c, 0, 56, 0
4, 30768, Note_on_c, 0, 44, 70
4, 30813, Note_on_c, 0, 44, 0
4, 30816, Note_on_c, 0, 49, 69
4, 30905, Note_on_c, 0, 49, 0
4, 30960, Note_on_c, 0, 61, 77
4, 30960, Note_on_c, 0, 57, 77
4, 31049, Note_on_c, 0, 61, 0
4, 31049, Note_on_c, 0, 57, 0
4, 31104, Note_on_c, 0, 61, 77
4, 31104, Note_on_c, 0, 57, 77
4, 31193, Note_on_c, 0, 61, 0
4, 31193, Note_on_c, 0, 57, 0
4, 31248, Note_on_c, 0, 52, 77
4, 31337, Note_on_c, 0, 52, 0
4, 31344, Note_on_c, 0, 57, 77
4, 31389, Note_on_c, 0, 57, 0
4, 31392, Note_on_c, 0, 61, 77
4, 31392, Note_on_c, 0, 57, 77
4, 31481, Note_on_c, 0, 61, 0
4, 31481, Note_on_c, 0, 57, 0
4, 31536, Note_on_c, 0, 62, 77
4, 31581, Note_on_c, 0, 62, 0
4, 31584, Note_on_c, 0, 59, 77
4, 31629, Note_on_c, 0, 59, 0
4, 31632, Note_on_c, 0, 61, 77
4, 31677, Note_on_c, 0, 61, 0
4, 31728, Note_on_c, 0, 56, 77
4, 31773, Note_on_c, 0, 56, 0
4, 31776, Note_on_c, 0, 57, 77
4, 31821, Note_on_c, 0, 57, 0
4, 31824, Note_on_c, 0, 52, 77
4, 31913, Note_on_c, 0, 52, 0
4, 31920, Note_on_c, 0, 54, 77
4, 31965, Note_on_c, 0, 54, 0
4, 31968, Note_on_c, 0, 49, 77
4, 31991, Note_on_c, 0, 49, 0
4, 31992, Note_on_c, 0, 57, 77
4, 32015, Note_on_c, 0, 57, 0
4, 32016, Note_on_c, 0, 52, 77
4, 32039, Note_on_c, 0, 52, 0
4, 32040, Note_on_c, 0, 57, 77
4, 32063, Note_on_c, 0, 57, 0
4, 32064, Note_on_c, 0, 49, 77
4, 32087, Note_on_c, 0, 49, 0
4, 32088, Note_on_c, 0, 57, 77
4, 32111, Note_on_c, 0, 57, 0
4, 32112, Note_on_c, 0, 50, 77
4, 32135, Note_on_c, 0, 50, 0
4, 32136, Note_on_c, 0, 57, 77
4, 32159, Note_on_c, 0, 57, 0
4, 32160, Note_on_c, 0, 54, 77
4, 32183, Note_on_c, 0, 54, 0
4, 32184, Note_on_c, 0, 57, 77
4, 32207, Note_on_c, 0, 57, 0
4, 32208, Note_on_c, 0, 50, 77
4, 32231, Note_on_c, 0, 50, 0
4, 32232, Note_on_c, 0, 57, 77
4, 32255, Note_on_c, 0, 57, 0
4, 32256, Note_on_c, 0, 51, 77
4, 32279, Note_on_c, 0, 51, 0
4, 32280, Note_on_c, 0, 59, 77
4, 32303, Note_on_c, 0, 59, 0
4, 32304, Note_on_c, 0, 54, 77
4, 32327, Note_on_c, 0, 54, 0
4, 32328, Note_on_c, 0, 59, 77
4, 32351, Note_on_c, 0, 59, 0
4, 32352, Note_on_c, 0, 51, 77
4, 32375, Note_on_c, 0, 51, 0
4, 32376, Note_on_c, 0, 59, 77
4, 32399, Note_on_c, 0, 59, 0
4, 32400, Note_on_c, 0, 52, 77
4, 32423, Note_on_c, 0, 52, 0
4, 32424, Note_on_c, 0, 59, 77
4, 32447, Note_on_c, 0, 59, 0
4, 32448, Note_on_c, 0, 56, 77
4, 32471, Note_on_c, 0, 56, 0
4, 32472, Note_on_c, 0, 59, 77
4, 32495, Note_on_c, 0, 59, 0
4, 32496, Note_on_c, 0, 52, 77
4, 32519, Note_on_c, 0, 52, 0
4, 32520, Note_on_c, 0, 59, 77
4, 32543, Note_on_c, 0, 59, 0
4, 32544, Note_on_c, 0, 56, 77
4, 32567, Note_on_c, 0, 56, 0
4, 32568, Note_on_c, 0, 64, 77
4, 32591, Note_on_c, 0, 64, 0
4, 32592, Note_on_c, 0, 59, 77
4, 32615, Note_on_c, 0, 59, 0
4, 32616, Note_on_c, 0, 64, 77
4, 32639, Note_on_c, 0, 64, 0
4, 32640, Note_on_c, 0, 57, 77
4, 32663, Note_on_c, 0, 57, 0
4, 32664, Note_on_c, 0, 64, 77
4, 32687, Note_on_c, 0, 64, 0
4, 32688, Note_on_c, 0, 59, 77
4, 32711, Note_on_c, 0, 59, 0
4, 32712, Note_on_c, 0, 64, 77
4, 32735, Note_on_c, 0, 64, 0
4, 32736, Note_on_c, 0, 62, 77
4, 32759, Note_on_c, 0, 62, 0
4, 32760, Note_on_c, 0, 64, 77
4, 32783, Note_on_c, 0, 64, 0
4, 32784, Note_on_c, 0, 61, 77
4, 32807, Note_on_c, 0, 61, 0
4, 32808, Note_on_c, 0, 64, 77
4, 32831, Note_on_c, 0, 64, 0
4, 32832, Note_on_c, 0, 56, 69
4, 32855, Note_on_c, 0, 56, 0
4, 32856, Note_on_c, 0, 64, 69
4, 32879, Note_on_c, 0, 64, 0
4, 32880, Note_on_c, 0, 59, 69
4, 32903, Note_on_c, 0, 59, 0
4, 32904, Note_on_c, 0, 64, 69
4, 32927, Note_on_c, 0, 64, 0
4, 32928, Note_on_c, 0, 57, 69
4, 32951, Note_on_c, 0, 57, 0
4, 32952, Note_on_c, 0, 64, 69
4, 32975, Note_on_c, 0, 64, 0
4, 32976, Note_on_c, 0, 59, 69
4, 32999, Note_on_c, 0, 59, 0
4, 33000, Note_on_c, 0, 64, 69
4, 33023, Note_on_c, 0, 64, 0
4, 33024, Note_on_c, 0, 62, 69
4, 33047, Note_on_c, 0, 62, 0
4, 33048, Note_on_c, 0, 64, 69
4, 33071, Note_on_c, 0, 64, 0
4, 33072, Note_on_c, 0, 61, 69
4, 33095, Note_on_c, 0, 61, 0
4, 33096, Note_on_c, 0, 64, 69
4, 33119, Note_on_c, 0, 64, 0
4, 33120, Note_on_c, 0, 62, 69
4, 33165, Note_on_c, 0, 62, 0
4, 33168, Note_on_c, 0, 59, 69
4, 33213, Note_on_c, 0, 59, 0
4, 33216, Note_on_c, 0, 56, 69
4, 33261, Note_on_c, 0, 56, 0
4, 33264, Note_on_c, 0, 61, 69
4, 33309, Note_on_c, 0, 61, 0
4, 33312, Note_on_c, 0, 57, 69
4, 33357, Note_on_c, 0, 57, 0
4, 33360, Note_on_c, 0, 54, 69
4, 33405, Note_on_c, 0, 54, 0
4, 33408, Note_on_c, 0, 59, 69
4, 33453, Note_on_c, 0, 59, 0
4, 33456, Note_on_c, 0, 56, 69
4, 33501, Note_on_c, 0, 56, 0
4, 33504, Note_on_c, 0, 52, 69
4, 33549, Note_on_c, 0, 52, 0
4, 33552, Note_on_c, 0, 57, 69
4, 33641, Note_on_c, 0, 57, 0
4, 33648, Note_on_c, 0, 56, 69
4, 33693, Note_on_c, 0, 56, 0
4, 33696, Note_on_c, 0, 54, 69
4, 33785, Note_on_c, 0, 54, 0
4, 33792, Note_on_c, 0, 49, 69
4, 33837, Note_on_c, 0, 49, 0
4, 33840, Note_on_c, 0, 50, 69
4, 33885, Note_on_c, 0, 50, 0
4, 33888, Note_on_c, 0, 47, 69
4, 33933, Note_on_c, 0, 47, 0
4, 33936, Note_on_c, 0, 52, 69
4, 33981, Note_on_c, 0, 52, 0
4, 33984, Note_on_c, 0, 45, 69
4, 34073, Note_on_c, 0, 45, 0
4, 34128, Note_on_c, 0, 64, 61
4, 34128, Note_on_c, 0, 60, 61
4, 34173, Note_on_c, 0, 64, 0
4, 34173, Note_on_c, 0, 60, 0
4, 34176, Note_on_c, 0, 65, 61
4, 34176, Note_on_c, 0, 62, 61
4, 34221, Note_on_c, 0, 65, 0
4, 34221, Note_on_c, 0, 62, 0
4, 34224, Note_on_c, 0, 62, 61
4, 34224, Note_on_c, 0, 59, 61
4, 34269, Note_on_c, 0, 62, 0
4, 34269, Note_on_c, 0, 59, 0
4, 34272, Note_on_c, 0, 64, 61
4, 34272, Note_on_c, 0, 60, 61
4, 34361, Note_on_c, 0, 64, 0
4, 34361, Note_on_c, 0, 60, 0
4, 34416, Note_on_c, 0, 64, 61
4, 34416, Note_on_c, 0, 60, 61
4, 34461, Note_on_c, 0, 64, 0
4, 34461, Note_on_c, 0, 60, 0
4, 34464, Note_on_c, 0, 65, 61
4, 34464, Note_on_c, 0, 62, 61
4, 34509, Note_on_c, 0, 65, 0
4, 34509, Note_on_c, 0, 62, 0
4, 34512, Note_on_c, 0, 62, 61
4, 34512, Note_on_c, 0, 59, 61
4, 34557, Note_on_c, 0, 62, 0
4, 34557, Note_on_c, 0, 59, 0
4, 34560, Note_on_c, 0, 64, 61
4, 34560, Note_on_c, 0, 60, 61
4, 34649, Note_on_c, 0, 64, 0
4, 34649, Note_on_c, 0, 60, 0
4, 34704, Note_on_c, 0, 62, 61
4, 34749, Note_on_c, 0, 62, 0
4, 34752, Note_on_c, 0, 59, 61
4, 34797, Note_on_c, 0, 59, 0
4, 34800, Note_on_c, 0, 55, 61
4, 34845, Note_on_c, 0, 55, 0
4, 34848, Note_on_c, 0, 60, 61
4, 34893, Note_on_c, 0, 60, 0
4, 34896, Note_on_c, 0, 57, 61
4, 34941, Note_on_c, 0, 57, 0
4, 34944, Note_on_c, 0, 53, 61
4, 34989, Note_on_c, 0, 53, 0
4, 34992, Note_on_c, 0, 59, 61
4, 35037, Note_on_c, 0, 59, 0
4, 35040, Note_on_c, 0, 56, 61
4, 35085, Note_on_c, 0, 56, 0
4, 35088, Note_on_c, 0, 52, 61
4, 35133, Note_on_c, 0, 52, 0
4, 35136, Note_on_c, 0, 57, 61
4, 35181, Note_on_c, 0, 57, 0
4, 35184, Note_on_c, 0, 60, 61
4, 35229, Note_on_c, 0, 60, 0
4, 35232, Note_on_c, 0, 57, 61
4, 35277, Note_on_c, 0, 57, 0
4, 35328, Note_on_c, 0, 56, 61
4, 35351, Note_on_c, 0, 56, 0
4, 35352, Note_on_c, 0, 57, 61
4, 35375, Note_on_c, 0, 57, 0
4, 35376, Note_on_c, 0, 59, 61
4, 35399, Note_on_c, 0, 59, 0
4, 35400, Note_on_c, 0, 57, 61
4, 35423, Note_on_c, 0, 57, 0
4, 35424, Note_on_c, 0, 52, 61
4, 35513, Note_on_c, 0, 52, 0
4, 35568, Note_on_c, 0, 57, 85
4, 35568, Note_on_c, 0, 45, 85
4, 35657, Note_on_c, 0, 57, 0
4, 35657, Note_on_c, 0, 45, 0
4, 35712, Note_on_c, 0, 52, 85
4, 35712, Note_on_c, 0, 40, 85
4, 35801, Note_on_c, 0, 52, 0
4, 35801, Note_on_c, 0, 40, 0
4, 35856, Note_on_c, 0, 52, 85
4, 35856, Note_on_c, 0, 40, 85
4, 35945, Note_on_c, 0, 52, 0
4, 35945, Note_on_c, 0, 40, 0
4, 36000, Note_on_c, 0, 57, 85
4, 36000, Note_on_c, 0, 45, 85
4, 36089, Note_on_c, 0, 57, 0
4, 36089, Note_on_c, 0, 45, 0
4, 36144, Note_on_c, 0, 57, 77
4, 36144, Note_on_c, 0, 45, 77
4, 36233, Note_on_c, 0, 57, 0
4, 36233, Note_on_c, 0, 45, 0
4, 36288, Note_on_c, 0, 52, 77
4, 36288, Note_on_c, 0, 40, 77
4, 36377, Note_on_c, 0, 52, 0
4, 36377, Note_on_c, 0, 40, 0
4, 36432, Note_on_c, 0, 52, 77
4, 36432, Note_on_c, 0, 40, 77
4, 36521, Note_on_c, 0, 52, 0
4, 36521, Note_on_c, 0, 40, 0
4, 36576, Note_on_c, 0, 57, 77
4, 36576, Note_on_c, 0, 45, 77
4, 36665, Note_on_c, 0, 57, 0
4, 36665, Note_on_c, 0, 45, 0
4, 36720, Note_on_c, 0, 49, 77
4, 36853, Note_on_c, 0, 49, 0
4, 36864, Note_on_c, 0, 50, 77
4, 36953, Note_on_c, 0, 50, 0
4, 36960, Note_on_c, 0, 47, 77
4, 37005, Note_on_c, 0, 47, 0
4, 37008, Note_on_c, 0, 45, 77
4, 37053, Note_on_c, 0, 45, 0
4, 37056, Note_on_c, 0, 49, 77
4, 37101, Note_on_c, 0, 49, 0
4, 37104, Note_on_c, 0, 52, 77
4, 37149, Note_on_c, 0, 52, 0
4, 37152, Note_on_c, 0, 45, 77
4, 37241, Note_on_c, 0, 45, 0
4, 37296, Note_on_c, 0, 45, 0
4, 37385, Note_on_c, 0, 45, 0
4, 37392, End_track
5, 0, Start_track
5, 0, Title_t, "<No Title>"
5, 0, End_track
0, 0, End_of_file
