0, 0, Header, 1, 3, 120
1, 0, Start_track
1, 0, Title_t, "untitled"
1, 0, Copyright_t, "Copyright(C)2002 Shin"
1, 0, Text_t, "Shin\012"
1, 0, System_exclusive, 5, 126, 127, 9, 1, 247
1, 0, Time_signature, 3, 2, 24, 8
1, 0, Key_signature, 0, "major"
1, 0, Tempo, 375000
1, 9120, Tempo, 428571
1, 9240, Tempo, 500000
1, 9360, Tempo, 600000
1, 9570, Tempo, 375000
1, 13320, Tempo, 375000
1, 15240, Tempo, 428571
1, 15360, Tempo, 500000
1, 15480, Tempo, 600000
1, 15690, Tempo, 375000
1, 46080, Tempo, 428571
1, 46440, Tempo, 500000
1, 47370, Tempo, 375000
1, 47520, Tempo, 375000
1, 53040, Tempo, 428571
1, 53160, Tempo, 500000
1, 53280, Tempo, 750000
1, 53440, Tempo, 375000
1, 56880, Tempo, 428571
1, 56880, End_track
2, 0, Start_track
2, 120, Control_c, 0, 0, 81
2, 121, Control_c, 0, 32, 3
2, 122, Program_c, 0, 0
2, 123, Control_c, 0, 7, 127
2, 240, Control_c, 0, 91, 125
2, 720, Note_on_c, 0, 76, 47
2, 930, Note_on_c, 0, 76, 0
2, 930, Note_on_c, 0, 77, 47
2, 960, Note_on_c, 0, 77, 0
2, 960, Note_on_c, 0, 74, 47
2, 1050, Note_on_c, 0, 74, 0
2, 1050, Note_on_c, 0, 76, 47
2, 1080, Note_on_c, 0, 76, 0
2, 1080, Note_on_c, 0, 72, 41
2, 1200, Note_on_c, 0, 72, 0
2, 1200, Note_on_c, 0, 79, 46
2, 1230, Note_on_c, 0, 79, 0
2, 1320, Note_on_c, 0, 79, 40
2, 1350, Note_on_c, 0, 79, 0
2, 1440, Note_on_c, 0, 79, 49
2, 1500, Note_on_c, 0, 79, 0
2, 1500, Note_on_c, 0, 77, 48
2, 1560, Note_on_c, 0, 77, 0
2, 1560, Note_on_c, 0, 77, 46
2, 1620, Note_on_c, 0, 77, 0
2, 1620, Note_on_c, 0, 76, 44
2, 1680, Note_on_c, 0, 76, 0
2, 1680, Note_on_c, 0, 76, 43
2, 1740, Note_on_c, 0, 76, 0
2, 1740, Note_on_c, 0, 74, 41
2, 1800, Note_on_c, 0, 74, 0
2, 1800, Note_on_c, 0, 74, 41
2, 1830, Note_on_c, 0, 74, 0
2, 1920, Note_on_c, 0, 71, 41
2, 1950, Note_on_c, 0, 71, 0
2, 2040, Note_on_c, 0, 67, 41
2, 2070, Note_on_c, 0, 67, 0
2, 2160, Note_on_c, 0, 76, 46
2, 2370, Note_on_c, 0, 76, 0
2, 2370, Note_on_c, 0, 77, 46
2, 2400, Note_on_c, 0, 77, 0
2, 2400, Note_on_c, 0, 74, 46
2, 2490, Note_on_c, 0, 74, 0
2, 2490, Note_on_c, 0, 76, 46
2, 2520, Note_on_c, 0, 76, 0
2, 2520, Note_on_c, 0, 72, 39
2, 2640, Note_on_c, 0, 72, 0
2, 2640, Note_on_c, 0, 84, 45
2, 2670, Note_on_c, 0, 84, 0
2, 2760, Note_on_c, 0, 84, 40
2, 2790, Note_on_c, 0, 84, 0
2, 2880, Note_on_c, 0, 80, 48
2, 2910, Note_on_c, 0, 80, 0
2, 2910, Note_on_c, 0, 81, 48
2, 2940, Note_on_c, 0, 81, 0
2, 3000, Note_on_c, 0, 76, 46
2, 3030, Note_on_c, 0, 76, 0
2, 3030, Note_on_c, 0, 77, 45
2, 3060, Note_on_c, 0, 77, 0
2, 3120, Note_on_c, 0, 74, 43
2, 3150, Note_on_c, 0, 74, 0
2, 3150, Note_on_c, 0, 71, 41
2, 3180, Note_on_c, 0, 71, 0
2, 3240, Note_on_c, 0, 72, 41
2, 3360, Note_on_c, 0, 72, 0
2, 3600, Note_on_c, 0, 76, 47
2, 3810, Note_on_c, 0, 76, 0
2, 3810, Note_on_c, 0, 77, 47
2, 3840, Note_on_c, 0, 77, 0
2, 3840, Note_on_c, 0, 74, 47
2, 3930, Note_on_c, 0, 74, 0
2, 3930, Note_on_c, 0, 76, 47
2, 3960, Note_on_c, 0, 76, 0
2, 3960, Note_on_c, 0, 72, 41
2, 4080, Note_on_c, 0, 72, 0
2, 4080, Note_on_c, 0, 79, 46
2, 4110, Note_on_c, 0, 79, 0
2, 4200, Note_on_c, 0, 79, 40
2, 4230, Note_on_c, 0, 79, 0
2, 4320, Note_on_c, 0, 79, 49
2, 4380, Note_on_c, 0, 79, 0
2, 4380, Note_on_c, 0, 77, 48
2, 4440, Note_on_c, 0, 77, 0
2, 4440, Note_on_c, 0, 77, 46
2, 4500, Note_on_c, 0, 77, 0
2, 4500, Note_on_c, 0, 76, 44
2, 4560, Note_on_c, 0, 76, 0
2, 4560, Note_on_c, 0, 76, 43
2, 4620, Note_on_c, 0, 76, 0
2, 4620, Note_on_c, 0, 74, 41
2, 4680, Note_on_c, 0, 74, 0
2, 4680, Note_on_c, 0, 74, 41
2, 4710, Note_on_c, 0, 74, 0
2, 4800, Note_on_c, 0, 71, 41
2, 4830, Note_on_c, 0, 71, 0
2, 4920, Note_on_c, 0, 67, 41
2, 4950, Note_on_c, 0, 67, 0
2, 5040, Note_on_c, 0, 76, 46
2, 5250, Note_on_c, 0, 76, 0
2, 5250, Note_on_c, 0, 77, 46
2, 5280, Note_on_c, 0, 77, 0
2, 5280, Note_on_c, 0, 74, 46
2, 5370, Note_on_c, 0, 74, 0
2, 5370, Note_on_c, 0, 76, 46
2, 5400, Note_on_c, 0, 76, 0
2, 5400, Note_on_c, 0, 72, 39
2, 5520, Note_on_c, 0, 72, 0
2, 5520, Note_on_c, 0, 84, 45
2, 5550, Note_on_c, 0, 84, 0
2, 5640, Note_on_c, 0, 84, 40
2, 5670, Note_on_c, 0, 84, 0
2, 5760, Note_on_c, 0, 80, 48
2, 5790, Note_on_c, 0, 80, 0
2, 5790, Note_on_c, 0, 81, 48
2, 5820, Note_on_c, 0, 81, 0
2, 5880, Note_on_c, 0, 76, 46
2, 5910, Note_on_c, 0, 76, 0
2, 5910, Note_on_c, 0, 77, 45
2, 5940, Note_on_c, 0, 77, 0
2, 6000, Note_on_c, 0, 74, 43
2, 6030, Note_on_c, 0, 74, 0
2, 6030, Note_on_c, 0, 71, 41
2, 6060, Note_on_c, 0, 71, 0
2, 6120, Note_on_c, 0, 72, 41
2, 6240, Note_on_c, 0, 72, 0
2, 6480, Note_on_c, 0, 77, 42
2, 6690, Note_on_c, 0, 77, 0
2, 6690, Note_on_c, 0, 79, 42
2, 6720, Note_on_c, 0, 79, 0
2, 6720, Note_on_c, 0, 76, 42
2, 6810, Note_on_c, 0, 76, 0
2, 6810, Note_on_c, 0, 77, 42
2, 6840, Note_on_c, 0, 77, 0
2, 6840, Note_on_c, 0, 74, 41
2, 6870, Note_on_c, 0, 74, 0
2, 6960, Note_on_c, 0, 71, 39
2, 6990, Note_on_c, 0, 71, 0
2, 7080, Note_on_c, 0, 67, 37
2, 7110, Note_on_c, 0, 67, 0
2, 7200, Note_on_c, 0, 84, 48
2, 7410, Note_on_c, 0, 84, 0
2, 7410, Note_on_c, 0, 86, 47
2, 7440, Note_on_c, 0, 86, 0
2, 7440, Note_on_c, 0, 83, 47
2, 7530, Note_on_c, 0, 83, 0
2, 7530, Note_on_c, 0, 84, 47
2, 7560, Note_on_c, 0, 84, 0
2, 7560, Note_on_c, 0, 81, 41
2, 7770, Note_on_c, 0, 81, 0
2, 7770, Note_on_c, 0, 83, 41
2, 7800, Note_on_c, 0, 83, 0
2, 7800, Note_on_c, 0, 79, 41
2, 7890, Note_on_c, 0, 79, 0
2, 7890, Note_on_c, 0, 81, 41
2, 7920, Note_on_c, 0, 81, 0
2, 7920, Note_on_c, 0, 78, 41
2, 8010, Note_on_c, 0, 78, 0
2, 8010, Note_on_c, 0, 81, 47
2, 8040, Note_on_c, 0, 81, 0
2, 8040, Note_on_c, 0, 84, 49
2, 8130, Note_on_c, 0, 84, 0
2, 8130, Note_on_c, 0, 81, 42
2, 8160, Note_on_c, 0, 81, 0
2, 8160, Note_on_c, 0, 78, 39
2, 8250, Note_on_c, 0, 78, 0
2, 8250, Note_on_c, 0, 81, 47
2, 8280, Note_on_c, 0, 81, 0
2, 8280, Note_on_c, 0, 79, 42
2, 8370, Note_on_c, 0, 79, 0
2, 8400, Note_on_c, 0, 79, 42
2, 8490, Note_on_c, 0, 79, 0
2, 8520, Note_on_c, 0, 79, 42
2, 8610, Note_on_c, 0, 79, 0
2, 8640, Note_on_c, 0, 78, 47
2, 8730, Note_on_c, 0, 78, 0
2, 8730, Note_on_c, 0, 81, 52
2, 8760, Note_on_c, 0, 81, 0
2, 8760, Note_on_c, 0, 84, 53
2, 8850, Note_on_c, 0, 84, 0
2, 8850, Note_on_c, 0, 81, 47
2, 8880, Note_on_c, 0, 81, 0
2, 8880, Note_on_c, 0, 78, 44
2, 8970, Note_on_c, 0, 78, 0
2, 8970, Note_on_c, 0, 81, 51
2, 9000, Note_on_c, 0, 81, 0
2, 9000, Note_on_c, 0, 79, 45
2, 9090, Note_on_c, 0, 79, 0
2, 9120, Note_on_c, 0, 79, 44
2, 9210, Note_on_c, 0, 79, 0
2, 9240, Note_on_c, 0, 79, 42
2, 9330, Note_on_c, 0, 79, 0
2, 9360, Note_on_c, 0, 79, 40
2, 9570, Note_on_c, 0, 79, 0
2, 9570, Note_on_c, 0, 81, 39
2, 9600, Note_on_c, 0, 81, 0
2, 9600, Note_on_c, 0, 77, 39
2, 9690, Note_on_c, 0, 77, 0
2, 9690, Note_on_c, 0, 79, 39
2, 9720, Note_on_c, 0, 79, 0
2, 9720, Note_on_c, 0, 76, 47
2, 9930, Note_on_c, 0, 76, 0
2, 9930, Note_on_c, 0, 77, 47
2, 9960, Note_on_c, 0, 77, 0
2, 9960, Note_on_c, 0, 74, 47
2, 10050, Note_on_c, 0, 74, 0
2, 10050, Note_on_c, 0, 76, 47
2, 10080, Note_on_c, 0, 76, 0
2, 10080, Note_on_c, 0, 72, 41
2, 10200, Note_on_c, 0, 72, 0
2, 10200, Note_on_c, 0, 79, 46
2, 10230, Note_on_c, 0, 79, 0
2, 10320, Note_on_c, 0, 79, 40
2, 10350, Note_on_c, 0, 79, 0
2, 10440, Note_on_c, 0, 79, 49
2, 10500, Note_on_c, 0, 79, 0
2, 10500, Note_on_c, 0, 77, 48
2, 10560, Note_on_c, 0, 77, 0
2, 10560, Note_on_c, 0, 77, 46
2, 10620, Note_on_c, 0, 77, 0
2, 10620, Note_on_c, 0, 76, 44
2, 10680, Note_on_c, 0, 76, 0
2, 10680, Note_on_c, 0, 76, 43
2, 10740, Note_on_c, 0, 76, 0
2, 10740, Note_on_c, 0, 74, 41
2, 10800, Note_on_c, 0, 74, 0
2, 10800, Note_on_c, 0, 74, 41
2, 10830, Note_on_c, 0, 74, 0
2, 10920, Note_on_c, 0, 71, 41
2, 10950, Note_on_c, 0, 71, 0
2, 11040, Note_on_c, 0, 67, 41
2, 11070, Note_on_c, 0, 67, 0
2, 11160, Note_on_c, 0, 76, 46
2, 11370, Note_on_c, 0, 76, 0
2, 11370, Note_on_c, 0, 77, 46
2, 11400, Note_on_c, 0, 77, 0
2, 11400, Note_on_c, 0, 74, 46
2, 11490, Note_on_c, 0, 74, 0
2, 11490, Note_on_c, 0, 76, 46
2, 11520, Note_on_c, 0, 76, 0
2, 11520, Note_on_c, 0, 72, 39
2, 11640, Note_on_c, 0, 72, 0
2, 11640, Note_on_c, 0, 84, 45
2, 11670, Note_on_c, 0, 84, 0
2, 11760, Note_on_c, 0, 84, 40
2, 11790, Note_on_c, 0, 84, 0
2, 11880, Note_on_c, 0, 80, 48
2, 11910, Note_on_c, 0, 80, 0
2, 11910, Note_on_c, 0, 81, 48
2, 11940, Note_on_c, 0, 81, 0
2, 12000, Note_on_c, 0, 76, 46
2, 12030, Note_on_c, 0, 76, 0
2, 12030, Note_on_c, 0, 77, 45
2, 12060, Note_on_c, 0, 77, 0
2, 12120, Note_on_c, 0, 74, 43
2, 12150, Note_on_c, 0, 74, 0
2, 12150, Note_on_c, 0, 71, 41
2, 12180, Note_on_c, 0, 71, 0
2, 12240, Note_on_c, 0, 72, 41
2, 12360, Note_on_c, 0, 72, 0
2, 12600, Note_on_c, 0, 77, 42
2, 12810, Note_on_c, 0, 77, 0
2, 12810, Note_on_c, 0, 79, 42
2, 12840, Note_on_c, 0, 79, 0
2, 12840, Note_on_c, 0, 76, 42
2, 12930, Note_on_c, 0, 76, 0
2, 12930, Note_on_c, 0, 77, 42
2, 12960, Note_on_c, 0, 77, 0
2, 12960, Note_on_c, 0, 74, 41
2, 12990, Note_on_c, 0, 74, 0
2, 13080, Note_on_c, 0, 71, 39
2, 13110, Note_on_c, 0, 71, 0
2, 13200, Note_on_c, 0, 67, 37
2, 13230, Note_on_c, 0, 67, 0
2, 13320, Note_on_c, 0, 84, 48
2, 13530, Note_on_c, 0, 84, 0
2, 13530, Note_on_c, 0, 86, 47
2, 13560, Note_on_c, 0, 86, 0
2, 13560, Note_on_c, 0, 83, 47
2, 13650, Note_on_c, 0, 83, 0
2, 13650, Note_on_c, 0, 84, 47
2, 13680, Note_on_c, 0, 84, 0
2, 13680, Note_on_c, 0, 81, 41
2, 13890, Note_on_c, 0, 81, 0
2, 13890, Note_on_c, 0, 83, 41
2, 13920, Note_on_c, 0, 83, 0
2, 13920, Note_on_c, 0, 79, 41
2, 14010, Note_on_c, 0, 79, 0
2, 14010, Note_on_c, 0, 81, 41
2, 14040, Note_on_c, 0, 81, 0
2, 14040, Note_on_c, 0, 78, 41
2, 14130, Note_on_c, 0, 78, 0
2, 14130, Note_on_c, 0, 81, 47
2, 14160, Note_on_c, 0, 81, 0
2, 14160, Note_on_c, 0, 84, 49
2, 14250, Note_on_c, 0, 84, 0
2, 14250, Note_on_c, 0, 81, 42
2, 14280, Note_on_c, 0, 81, 0
2, 14280, Note_on_c, 0, 78, 39
2, 14370, Note_on_c, 0, 78, 0
2, 14370, Note_on_c, 0, 81, 47
2, 14400, Note_on_c, 0, 81, 0
2, 14400, Note_on_c, 0, 79, 42
2, 14490, Note_on_c, 0, 79, 0
2, 14520, Note_on_c, 0, 79, 42
2, 14610, Note_on_c, 0, 79, 0
2, 14640, Note_on_c, 0, 79, 42
2, 14730, Note_on_c, 0, 79, 0
2, 14760, Note_on_c, 0, 78, 47
2, 14850, Note_on_c, 0, 78, 0
2, 14850, Note_on_c, 0, 81, 52
2, 14880, Note_on_c, 0, 81, 0
2, 14880, Note_on_c, 0, 84, 53
2, 14970, Note_on_c, 0, 84, 0
2, 14970, Note_on_c, 0, 81, 47
2, 15000, Note_on_c, 0, 81, 0
2, 15000, Note_on_c, 0, 78, 44
2, 15090, Note_on_c, 0, 78, 0
2, 15090, Note_on_c, 0, 81, 51
2, 15120, Note_on_c, 0, 81, 0
2, 15120, Note_on_c, 0, 79, 45
2, 15210, Note_on_c, 0, 79, 0
2, 15240, Note_on_c, 0, 79, 44
2, 15330, Note_on_c, 0, 79, 0
2, 15360, Note_on_c, 0, 79, 42
2, 15450, Note_on_c, 0, 79, 0
2, 15480, Note_on_c, 0, 79, 40
2, 15690, Note_on_c, 0, 79, 0
2, 15690, Note_on_c, 0, 81, 39
2, 15720, Note_on_c, 0, 81, 0
2, 15720, Note_on_c, 0, 77, 39
2, 15810, Note_on_c, 0, 77, 0
2, 15810, Note_on_c, 0, 79, 39
2, 15840, Note_on_c, 0, 79, 0
2, 15840, Note_on_c, 0, 76, 47
2, 16050, Note_on_c, 0, 76, 0
2, 16050, Note_on_c, 0, 77, 47
2, 16080, Note_on_c, 0, 77, 0
2, 16080, Note_on_c, 0, 74, 47
2, 16170, Note_on_c, 0, 74, 0
2, 16170, Note_on_c, 0, 76, 47
2, 16200, Note_on_c, 0, 76, 0
2, 16200, Note_on_c, 0, 72, 41
2, 16320, Note_on_c, 0, 72, 0
2, 16320, Note_on_c, 0, 79, 46
2, 16350, Note_on_c, 0, 79, 0
2, 16440, Note_on_c, 0, 79, 40
2, 16470, Note_on_c, 0, 79, 0
2, 16560, Note_on_c, 0, 79, 49
2, 16620, Note_on_c, 0, 79, 0
2, 16620, Note_on_c, 0, 77, 48
2, 16680, Note_on_c, 0, 77, 0
2, 16680, Note_on_c, 0, 77, 46
2, 16740, Note_on_c, 0, 77, 0
2, 16740, Note_on_c, 0, 76, 44
2, 16800, Note_on_c, 0, 76, 0
2, 16800, Note_on_c, 0, 76, 43
2, 16860, Note_on_c, 0, 76, 0
2, 16860, Note_on_c, 0, 74, 41
2, 16920, Note_on_c, 0, 74, 0
2, 16920, Note_on_c, 0, 74, 41
2, 16950, Note_on_c, 0, 74, 0
2, 17040, Note_on_c, 0, 71, 41
2, 17070, Note_on_c, 0, 71, 0
2, 17160, Note_on_c, 0, 67, 41
2, 17190, Note_on_c, 0, 67, 0
2, 17280, Note_on_c, 0, 76, 46
2, 17490, Note_on_c, 0, 76, 0
2, 17490, Note_on_c, 0, 77, 46
2, 17520, Note_on_c, 0, 77, 0
2, 17520, Note_on_c, 0, 74, 46
2, 17610, Note_on_c, 0, 74, 0
2, 17610, Note_on_c, 0, 76, 46
2, 17640, Note_on_c, 0, 76, 0
2, 17640, Note_on_c, 0, 72, 39
2, 17760, Note_on_c, 0, 72, 0
2, 17760, Note_on_c, 0, 84, 45
2, 17790, Note_on_c, 0, 84, 0
2, 17880, Note_on_c, 0, 84, 40
2, 17910, Note_on_c, 0, 84, 0
2, 18000, Note_on_c, 0, 80, 48
2, 18030, Note_on_c, 0, 80, 0
2, 18030, Note_on_c, 0, 81, 48
2, 18060, Note_on_c, 0, 81, 0
2, 18120, Note_on_c, 0, 76, 46
2, 18150, Note_on_c, 0, 76, 0
2, 18150, Note_on_c, 0, 77, 45
2, 18180, Note_on_c, 0, 77, 0
2, 18240, Note_on_c, 0, 74, 43
2, 18270, Note_on_c, 0, 74, 0
2, 18270, Note_on_c, 0, 71, 41
2, 18300, Note_on_c, 0, 71, 0
2, 18360, Note_on_c, 0, 72, 41
2, 18480, Note_on_c, 0, 72, 0
2, 18720, Note_on_c, 0, 76, 39
2, 18930, Note_on_c, 0, 76, 0
2, 18930, Note_on_c, 0, 79, 39
2, 18960, Note_on_c, 0, 79, 0
2, 18960, Note_on_c, 0, 78, 39
2, 19050, Note_on_c, 0, 78, 0
2, 19050, Note_on_c, 0, 81, 40
2, 19080, Note_on_c, 0, 81, 0
2, 19080, Note_on_c, 0, 79, 40
2, 19200, Note_on_c, 0, 79, 0
2, 19200, Note_on_c, 0, 86, 46
2, 19230, Note_on_c, 0, 86, 0
2, 19320, Note_on_c, 0, 86, 39
2, 19350, Note_on_c, 0, 86, 0
2, 19440, Note_on_c, 0, 86, 47
2, 19500, Note_on_c, 0, 86, 0
2, 19500, Note_on_c, 0, 84, 46
2, 19560, Note_on_c, 0, 84, 0
2, 19560, Note_on_c, 0, 84, 44
2, 19620, Note_on_c, 0, 84, 0
2, 19620, Note_on_c, 0, 83, 43
2, 19680, Note_on_c, 0, 83, 0
2, 19680, Note_on_c, 0, 83, 41
2, 19740, Note_on_c, 0, 83, 0
2, 19740, Note_on_c, 0, 81, 40
2, 19800, Note_on_c, 0, 81, 0
2, 19800, Note_on_c, 0, 81, 45
2, 19830, Note_on_c, 0, 81, 0
2, 19920, Note_on_c, 0, 78, 42
2, 19950, Note_on_c, 0, 78, 0
2, 20040, Note_on_c, 0, 74, 39
2, 20070, Note_on_c, 0, 74, 0
2, 20280, Note_on_c, 0, 79, 40
2, 20280, Note_on_c, 0, 83, 40
2, 20370, Note_on_c, 0, 83, 0
2, 20370, Note_on_c, 0, 79, 0
2, 20400, Note_on_c, 0, 79, 40
2, 20400, Note_on_c, 0, 83, 40
2, 20490, Note_on_c, 0, 83, 0
2, 20490, Note_on_c, 0, 79, 0
2, 20520, Note_on_c, 0, 79, 40
2, 20520, Note_on_c, 0, 83, 40
2, 20610, Note_on_c, 0, 83, 0
2, 20610, Note_on_c, 0, 79, 0
2, 20640, Note_on_c, 0, 79, 40
2, 20640, Note_on_c, 0, 83, 40
2, 20730, Note_on_c, 0, 83, 0
2, 20730, Note_on_c, 0, 79, 0
2, 20760, Note_on_c, 0, 79, 40
2, 20760, Note_on_c, 0, 83, 40
2, 20850, Note_on_c, 0, 83, 0
2, 20850, Note_on_c, 0, 79, 0
2, 20880, Note_on_c, 0, 79, 41
2, 20880, Note_on_c, 0, 83, 41
2, 20970, Note_on_c, 0, 83, 0
2, 20970, Note_on_c, 0, 79, 0
2, 21000, Note_on_c, 0, 81, 45
2, 21000, Note_on_c, 0, 84, 45
2, 21090, Note_on_c, 0, 84, 0
2, 21090, Note_on_c, 0, 81, 0
2, 21120, Note_on_c, 0, 83, 49
2, 21120, Note_on_c, 0, 86, 49
2, 21210, Note_on_c, 0, 86, 0
2, 21210, Note_on_c, 0, 83, 0
2, 21240, Note_on_c, 0, 84, 53
2, 21280, Note_on_c, 0, 84, 0
2, 21280, Note_on_c, 0, 81, 52
2, 21320, Note_on_c, 0, 81, 0
2, 21320, Note_on_c, 0, 76, 50
2, 21360, Note_on_c, 0, 76, 0
2, 21360, Note_on_c, 0, 83, 49
2, 21400, Note_on_c, 0, 83, 0
2, 21400, Note_on_c, 0, 79, 47
2, 21440, Note_on_c, 0, 79, 0
2, 21440, Note_on_c, 0, 74, 46
2, 21480, Note_on_c, 0, 74, 0
2, 21480, Note_on_c, 0, 81, 44
2, 21520, Note_on_c, 0, 81, 0
2, 21520, Note_on_c, 0, 78, 43
2, 21560, Note_on_c, 0, 78, 0
2, 21560, Note_on_c, 0, 74, 41
2, 21600, Note_on_c, 0, 74, 0
2, 21720, Note_on_c, 0, 79, 45
2, 21720, Note_on_c, 0, 83, 45
2, 21810, Note_on_c, 0, 83, 0
2, 21810, Note_on_c, 0, 79, 0
2, 21840, Note_on_c, 0, 79, 45
2, 21840, Note_on_c, 0, 83, 45
2, 21930, Note_on_c, 0, 83, 0
2, 21930, Note_on_c, 0, 79, 0
2, 21960, Note_on_c, 0, 79, 45
2, 21960, Note_on_c, 0, 83, 45
2, 22050, Note_on_c, 0, 83, 0
2, 22050, Note_on_c, 0, 79, 0
2, 22080, Note_on_c, 0, 79, 45
2, 22080, Note_on_c, 0, 83, 45
2, 22170, Note_on_c, 0, 83, 0
2, 22170, Note_on_c, 0, 79, 0
2, 22200, Note_on_c, 0, 79, 45
2, 22200, Note_on_c, 0, 83, 45
2, 22290, Note_on_c, 0, 83, 0
2, 22290, Note_on_c, 0, 79, 0
2, 22320, Note_on_c, 0, 79, 46
2, 22320, Note_on_c, 0, 83, 46
2, 22410, Note_on_c, 0, 83, 0
2, 22410, Note_on_c, 0, 79, 0
2, 22440, Note_on_c, 0, 81, 48
2, 22440, Note_on_c, 0, 84, 48
2, 22530, Note_on_c, 0, 84, 0
2, 22530, Note_on_c, 0, 81, 0
2, 22560, Note_on_c, 0, 83, 51
2, 22560, Note_on_c, 0, 86, 51
2, 22650, Note_on_c, 0, 86, 0
2, 22650, Note_on_c, 0, 83, 0
2, 22680, Note_on_c, 0, 84, 53
2, 22720, Note_on_c, 0, 84, 0
2, 22720, Note_on_c, 0, 81, 52
2, 22760, Note_on_c, 0, 81, 0
2, 22760, Note_on_c, 0, 76, 50
2, 22800, Note_on_c, 0, 76, 0
2, 22800, Note_on_c, 0, 83, 49
2, 22840, Note_on_c, 0, 83, 0
2, 22840, Note_on_c, 0, 79, 47
2, 22880, Note_on_c, 0, 79, 0
2, 22880, Note_on_c, 0, 74, 46
2, 22920, Note_on_c, 0, 74, 0
2, 22920, Note_on_c, 0, 81, 44
2, 22960, Note_on_c, 0, 81, 0
2, 22960, Note_on_c, 0, 78, 43
2, 23000, Note_on_c, 0, 78, 0
2, 23000, Note_on_c, 0, 72, 41
2, 23040, Note_on_c, 0, 72, 0
2, 23040, Note_on_c, 0, 79, 41
2, 23040, Note_on_c, 0, 71, 41
2, 23640, Note_on_c, 0, 71, 0
2, 23640, Note_on_c, 0, 79, 0
2, 23760, Note_on_c, 0, 79, 41
2, 23970, Note_on_c, 0, 79, 0
2, 23970, Note_on_c, 0, 81, 41
2, 24000, Note_on_c, 0, 81, 0
2, 24000, Note_on_c, 0, 77, 41
2, 24090, Note_on_c, 0, 77, 0
2, 24090, Note_on_c, 0, 79, 41
2, 24120, Note_on_c, 0, 79, 0
2, 24120, Note_on_c, 0, 76, 41
2, 24330, Note_on_c, 0, 76, 0
2, 24330, Note_on_c, 0, 77, 41
2, 24360, Note_on_c, 0, 77, 0
2, 24360, Note_on_c, 0, 74, 41
2, 24450, Note_on_c, 0, 74, 0
2, 24450, Note_on_c, 0, 76, 41
2, 24480, Note_on_c, 0, 76, 0
2, 24480, Note_on_c, 0, 73, 48
2, 24510, Note_on_c, 0, 73, 0
2, 24600, Note_on_c, 0, 70, 46
2, 24600, Note_on_c, 0, 73, 46
2, 24690, Note_on_c, 0, 73, 0
2, 24690, Note_on_c, 0, 70, 0
2, 24720, Note_on_c, 0, 74, 43
2, 24720, Note_on_c, 0, 69, 43
2, 24810, Note_on_c, 0, 69, 0
2, 24810, Note_on_c, 0, 74, 0
2, 24840, Note_on_c, 0, 76, 40
2, 24840, Note_on_c, 0, 67, 40
2, 24930, Note_on_c, 0, 67, 0
2, 24930, Note_on_c, 0, 76, 0
2, 24960, Note_on_c, 0, 77, 38
2, 24960, Note_on_c, 0, 65, 38
2, 25050, Note_on_c, 0, 65, 0
2, 25050, Note_on_c, 0, 77, 0
2, 25050, Note_on_c, 0, 79, 37
2, 25080, Note_on_c, 0, 79, 0
2, 25080, Note_on_c, 0, 76, 37
2, 25170, Note_on_c, 0, 76, 0
2, 25170, Note_on_c, 0, 77, 37
2, 25200, Note_on_c, 0, 77, 0
2, 25200, Note_on_c, 0, 74, 37
2, 25230, Note_on_c, 0, 74, 0
2, 25320, Note_on_c, 0, 74, 37
2, 25410, Note_on_c, 0, 74, 0
2, 25410, Note_on_c, 0, 76, 37
2, 25440, Note_on_c, 0, 76, 0
2, 25440, Note_on_c, 0, 72, 37
2, 25530, Note_on_c, 0, 72, 0
2, 25530, Note_on_c, 0, 74, 37
2, 25560, Note_on_c, 0, 74, 0
2, 25560, Note_on_c, 0, 67, 37
2, 25560, Note_on_c, 0, 71, 37
2, 25650, Note_on_c, 0, 71, 0
2, 25650, Note_on_c, 0, 67, 0
2, 25650, Note_on_c, 0, 74, 37
2, 25680, Note_on_c, 0, 74, 0
2, 25680, Note_on_c, 0, 69, 37
2, 25680, Note_on_c, 0, 72, 37
2, 25770, Note_on_c, 0, 72, 0
2, 25770, Note_on_c, 0, 69, 0
2, 25770, Note_on_c, 0, 76, 37
2, 25800, Note_on_c, 0, 76, 0
2, 25800, Note_on_c, 0, 71, 37
2, 25800, Note_on_c, 0, 74, 37
2, 25890, Note_on_c, 0, 74, 0
2, 25890, Note_on_c, 0, 71, 0
2, 25890, Note_on_c, 0, 77, 37
2, 25920, Note_on_c, 0, 77, 0
2, 25920, Note_on_c, 0, 72, 39
2, 25920, Note_on_c, 0, 76, 39
2, 26130, Note_on_c, 0, 76, 0
2, 26130, Note_on_c, 0, 77, 39
2, 26160, Note_on_c, 0, 77, 0
2, 26160, Note_on_c, 0, 72, 0
2, 26160, Note_on_c, 0, 74, 39
2, 26250, Note_on_c, 0, 74, 0
2, 26250, Note_on_c, 0, 76, 39
2, 26280, Note_on_c, 0, 76, 0
2, 26280, Note_on_c, 0, 72, 34
2, 26400, Note_on_c, 0, 72, 0
2, 26400, Note_on_c, 0, 79, 39
2, 26430, Note_on_c, 0, 79, 0
2, 26520, Note_on_c, 0, 79, 34
2, 26550, Note_on_c, 0, 79, 0
2, 26640, Note_on_c, 0, 79, 41
2, 26700, Note_on_c, 0, 79, 0
2, 26700, Note_on_c, 0, 77, 40
2, 26760, Note_on_c, 0, 77, 0
2, 26760, Note_on_c, 0, 77, 39
2, 26820, Note_on_c, 0, 77, 0
2, 26820, Note_on_c, 0, 76, 37
2, 26880, Note_on_c, 0, 76, 0
2, 26880, Note_on_c, 0, 76, 36
2, 26940, Note_on_c, 0, 76, 0
2, 26940, Note_on_c, 0, 74, 34
2, 27000, Note_on_c, 0, 74, 0
2, 27000, Note_on_c, 0, 74, 34
2, 27030, Note_on_c, 0, 74, 0
2, 27120, Note_on_c, 0, 71, 34
2, 27150, Note_on_c, 0, 71, 0
2, 27240, Note_on_c, 0, 67, 34
2, 27270, Note_on_c, 0, 67, 0
2, 27360, Note_on_c, 0, 76, 39
2, 27570, Note_on_c, 0, 76, 0
2, 27570, Note_on_c, 0, 77, 39
2, 27600, Note_on_c, 0, 77, 0
2, 27600, Note_on_c, 0, 74, 39
2, 27690, Note_on_c, 0, 74, 0
2, 27690, Note_on_c, 0, 76, 39
2, 27720, Note_on_c, 0, 76, 0
2, 27720, Note_on_c, 0, 72, 33
2, 27840, Note_on_c, 0, 72, 0
2, 27840, Note_on_c, 0, 84, 38
2, 27870, Note_on_c, 0, 84, 0
2, 27960, Note_on_c, 0, 84, 34
2, 27990, Note_on_c, 0, 84, 0
2, 28080, Note_on_c, 0, 80, 40
2, 28110, Note_on_c, 0, 80, 0
2, 28110, Note_on_c, 0, 81, 40
2, 28140, Note_on_c, 0, 81, 0
2, 28200, Note_on_c, 0, 76, 39
2, 28230, Note_on_c, 0, 76, 0
2, 28230, Note_on_c, 0, 77, 38
2, 28260, Note_on_c, 0, 77, 0
2, 28320, Note_on_c, 0, 74, 36
2, 28350, Note_on_c, 0, 74, 0
2, 28350, Note_on_c, 0, 71, 34
2, 28380, Note_on_c, 0, 71, 0
2, 28440, Note_on_c, 0, 72, 34
2, 28560, Note_on_c, 0, 72, 0
2, 28800, Note_on_c, 0, 76, 39
2, 29010, Note_on_c, 0, 76, 0
2, 29010, Note_on_c, 0, 79, 39
2, 29040, Note_on_c, 0, 79, 0
2, 29040, Note_on_c, 0, 78, 39
2, 29130, Note_on_c, 0, 78, 0
2, 29130, Note_on_c, 0, 81, 40
2, 29160, Note_on_c, 0, 81, 0
2, 29160, Note_on_c, 0, 79, 40
2, 29280, Note_on_c, 0, 79, 0
2, 29280, Note_on_c, 0, 86, 46
2, 29310, Note_on_c, 0, 86, 0
2, 29400, Note_on_c, 0, 86, 39
2, 29430, Note_on_c, 0, 86, 0
2, 29520, Note_on_c, 0, 86, 47
2, 29580, Note_on_c, 0, 86, 0
2, 29580, Note_on_c, 0, 84, 46
2, 29640, Note_on_c, 0, 84, 0
2, 29640, Note_on_c, 0, 84, 44
2, 29700, Note_on_c, 0, 84, 0
2, 29700, Note_on_c, 0, 83, 43
2, 29760, Note_on_c, 0, 83, 0
2, 29760, Note_on_c, 0, 83, 41
2, 29820, Note_on_c, 0, 83, 0
2, 29820, Note_on_c, 0, 81, 40
2, 29880, Note_on_c, 0, 81, 0
2, 29880, Note_on_c, 0, 81, 45
2, 29910, Note_on_c, 0, 81, 0
2, 30000, Note_on_c, 0, 78, 42
2, 30030, Note_on_c, 0, 78, 0
2, 30120, Note_on_c, 0, 74, 39
2, 30150, Note_on_c, 0, 74, 0
2, 30360, Note_on_c, 0, 79, 40
2, 30360, Note_on_c, 0, 83, 40
2, 30450, Note_on_c, 0, 83, 0
2, 30450, Note_on_c, 0, 79, 0
2, 30480, Note_on_c, 0, 79, 40
2, 30480, Note_on_c, 0, 83, 40
2, 30570, Note_on_c, 0, 83, 0
2, 30570, Note_on_c, 0, 79, 0
2, 30600, Note_on_c, 0, 79, 40
2, 30600, Note_on_c, 0, 83, 40
2, 30690, Note_on_c, 0, 83, 0
2, 30690, Note_on_c, 0, 79, 0
2, 30720, Note_on_c, 0, 79, 40
2, 30720, Note_on_c, 0, 83, 40
2, 30810, Note_on_c, 0, 83, 0
2, 30810, Note_on_c, 0, 79, 0
2, 30840, Note_on_c, 0, 79, 40
2, 30840, Note_on_c, 0, 83, 40
2, 30930, Note_on_c, 0, 83, 0
2, 30930, Note_on_c, 0, 79, 0
2, 30960, Note_on_c, 0, 79, 41
2, 30960, Note_on_c, 0, 83, 41
2, 31050, Note_on_c, 0, 83, 0
2, 31050, Note_on_c, 0, 79, 0
2, 31080, Note_on_c, 0, 81, 45
2, 31080, Note_on_c, 0, 84, 45
2, 31170, Note_on_c, 0, 84, 0
2, 31170, Note_on_c, 0, 81, 0
2, 31200, Note_on_c, 0, 83, 49
2, 31200, Note_on_c, 0, 86, 49
2, 31290, Note_on_c, 0, 86, 0
2, 31290, Note_on_c, 0, 83, 0
2, 31320, Note_on_c, 0, 84, 53
2, 31360, Note_on_c, 0, 84, 0
2, 31360, Note_on_c, 0, 81, 52
2, 31400, Note_on_c, 0, 81, 0
2, 31400, Note_on_c, 0, 76, 50
2, 31440, Note_on_c, 0, 76, 0
2, 31440, Note_on_c, 0, 83, 49
2, 31480, Note_on_c, 0, 83, 0
2, 31480, Note_on_c, 0, 79, 47
2, 31520, Note_on_c, 0, 79, 0
2, 31520, Note_on_c, 0, 74, 46
2, 31560, Note_on_c, 0, 74, 0
2, 31560, Note_on_c, 0, 81, 44
2, 31600, Note_on_c, 0, 81, 0
2, 31600, Note_on_c, 0, 78, 43
2, 31640, Note_on_c, 0, 78, 0
2, 31640, Note_on_c, 0, 74, 41
2, 31680, Note_on_c, 0, 74, 0
2, 31800, Note_on_c, 0, 79, 45
2, 31800, Note_on_c, 0, 83, 45
2, 31890, Note_on_c, 0, 83, 0
2, 31890, Note_on_c, 0, 79, 0
2, 31920, Note_on_c, 0, 79, 45
2, 31920, Note_on_c, 0, 83, 45
2, 32010, Note_on_c, 0, 83, 0
2, 32010, Note_on_c, 0, 79, 0
2, 32040, Note_on_c, 0, 79, 45
2, 32040, Note_on_c, 0, 83, 45
2, 32130, Note_on_c, 0, 83, 0
2, 32130, Note_on_c, 0, 79, 0
2, 32160, Note_on_c, 0, 79, 45
2, 32160, Note_on_c, 0, 83, 45
2, 32250, Note_on_c, 0, 83, 0
2, 32250, Note_on_c, 0, 79, 0
2, 32280, Note_on_c, 0, 79, 45
2, 32280, Note_on_c, 0, 83, 45
2, 32370, Note_on_c, 0, 83, 0
2, 32370, Note_on_c, 0, 79, 0
2, 32400, Note_on_c, 0, 79, 46
2, 32400, Note_on_c, 0, 83, 46
2, 32490, Note_on_c, 0, 83, 0
2, 32490, Note_on_c, 0, 79, 0
2, 32520, Note_on_c, 0, 81, 48
2, 32520, Note_on_c, 0, 84, 48
2, 32610, Note_on_c, 0, 84, 0
2, 32610, Note_on_c, 0, 81, 0
2, 32640, Note_on_c, 0, 83, 51
2, 32640, Note_on_c, 0, 86, 51
2, 32730, Note_on_c, 0, 86, 0
2, 32730, Note_on_c, 0, 83, 0
2, 32760, Note_on_c, 0, 84, 53
2, 32800, Note_on_c, 0, 84, 0
2, 32800, Note_on_c, 0, 81, 52
2, 32840, Note_on_c, 0, 81, 0
2, 32840, Note_on_c, 0, 76, 50
2, 32880, Note_on_c, 0, 76, 0
2, 32880, Note_on_c, 0, 83, 49
2, 32920, Note_on_c, 0, 83, 0
2, 32920, Note_on_c, 0, 79, 47
2, 32960, Note_on_c, 0, 79, 0
2, 32960, Note_on_c, 0, 74, 46
2, 33000, Note_on_c, 0, 74, 0
2, 33000, Note_on_c, 0, 81, 44
2, 33040, Note_on_c, 0, 81, 0
2, 33040, Note_on_c, 0, 78, 43
2, 33080, Note_on_c, 0, 78, 0
2, 33080, Note_on_c, 0, 72, 41
2, 33120, Note_on_c, 0, 72, 0
2, 33120, Note_on_c, 0, 79, 41
2, 33120, Note_on_c, 0, 71, 41
2, 33720, Note_on_c, 0, 71, 0
2, 33720, Note_on_c, 0, 79, 0
2, 33840, Note_on_c, 0, 79, 41
2, 34050, Note_on_c, 0, 79, 0
2, 34050, Note_on_c, 0, 81, 41
2, 34080, Note_on_c, 0, 81, 0
2, 34080, Note_on_c, 0, 77, 41
2, 34170, Note_on_c, 0, 77, 0
2, 34170, Note_on_c, 0, 79, 41
2, 34200, Note_on_c, 0, 79, 0
2, 34200, Note_on_c, 0, 76, 41
2, 34410, Note_on_c, 0, 76, 0
2, 34410, Note_on_c, 0, 77, 41
2, 34440, Note_on_c, 0, 77, 0
2, 34440, Note_on_c, 0, 74, 41
2, 34530, Note_on_c, 0, 74, 0
2, 34530, Note_on_c, 0, 76, 41
2, 34560, Note_on_c, 0, 76, 0
2, 34560, Note_on_c, 0, 73, 48
2, 34590, Note_on_c, 0, 73, 0
2, 34680, Note_on_c, 0, 70, 46
2, 34680, Note_on_c, 0, 73, 46
2, 34770, Note_on_c, 0, 73, 0
2, 34770, Note_on_c, 0, 70, 0
2, 34800, Note_on_c, 0, 74, 43
2, 34800, Note_on_c, 0, 69, 43
2, 34890, Note_on_c, 0, 69, 0
2, 34890, Note_on_c, 0, 74, 0
2, 34920, Note_on_c, 0, 76, 40
2, 34920, Note_on_c, 0, 67, 40
2, 35010, Note_on_c, 0, 67, 0
2, 35010, Note_on_c, 0, 76, 0
2, 35040, Note_on_c, 0, 77, 38
2, 35040, Note_on_c, 0, 65, 38
2, 35130, Note_on_c, 0, 65, 0
2, 35130, Note_on_c, 0, 77, 0
2, 35130, Note_on_c, 0, 79, 37
2, 35160, Note_on_c, 0, 79, 0
2, 35160, Note_on_c, 0, 76, 37
2, 35250, Note_on_c, 0, 76, 0
2, 35250, Note_on_c, 0, 77, 37
2, 35280, Note_on_c, 0, 77, 0
2, 35280, Note_on_c, 0, 74, 37
2, 35310, Note_on_c, 0, 74, 0
2, 35400, Note_on_c, 0, 74, 37
2, 35490, Note_on_c, 0, 74, 0
2, 35490, Note_on_c, 0, 76, 37
2, 35520, Note_on_c, 0, 76, 0
2, 35520, Note_on_c, 0, 72, 37
2, 35610, Note_on_c, 0, 72, 0
2, 35610, Note_on_c, 0, 74, 37
2, 35640, Note_on_c, 0, 74, 0
2, 35640, Note_on_c, 0, 67, 37
2, 35640, Note_on_c, 0, 71, 37
2, 35730, Note_on_c, 0, 71, 0
2, 35730, Note_on_c, 0, 67, 0
2, 35730, Note_on_c, 0, 74, 37
2, 35760, Note_on_c, 0, 74, 0
2, 35760, Note_on_c, 0, 69, 37
2, 35760, Note_on_c, 0, 72, 37
2, 35850, Note_on_c, 0, 72, 0
2, 35850, Note_on_c, 0, 69, 0
2, 35850, Note_on_c, 0, 76, 37
2, 35880, Note_on_c, 0, 76, 0
2, 35880, Note_on_c, 0, 71, 37
2, 35880, Note_on_c, 0, 74, 37
2, 35970, Note_on_c, 0, 74, 0
2, 35970, Note_on_c, 0, 71, 0
2, 35970, Note_on_c, 0, 77, 37
2, 36000, Note_on_c, 0, 77, 0
2, 36000, Note_on_c, 0, 72, 39
2, 36000, Note_on_c, 0, 76, 39
2, 36210, Note_on_c, 0, 76, 0
2, 36210, Note_on_c, 0, 77, 39
2, 36240, Note_on_c, 0, 77, 0
2, 36240, Note_on_c, 0, 72, 0
2, 36240, Note_on_c, 0, 74, 39
2, 36330, Note_on_c, 0, 74, 0
2, 36330, Note_on_c, 0, 76, 39
2, 36360, Note_on_c, 0, 76, 0
2, 36360, Note_on_c, 0, 72, 34
2, 36480, Note_on_c, 0, 72, 0
2, 36480, Note_on_c, 0, 79, 39
2, 36510, Note_on_c, 0, 79, 0
2, 36600, Note_on_c, 0, 79, 34
2, 36630, Note_on_c, 0, 79, 0
2, 36720, Note_on_c, 0, 79, 41
2, 36780, Note_on_c, 0, 79, 0
2, 36780, Note_on_c, 0, 77, 40
2, 36840, Note_on_c, 0, 77, 0
2, 36840, Note_on_c, 0, 77, 39
2, 36900, Note_on_c, 0, 77, 0
2, 36900, Note_on_c, 0, 76, 37
2, 36960, Note_on_c, 0, 76, 0
2, 36960, Note_on_c, 0, 76, 36
2, 37020, Note_on_c, 0, 76, 0
2, 37020, Note_on_c, 0, 74, 34
2, 37080, Note_on_c, 0, 74, 0
2, 37080, Note_on_c, 0, 74, 34
2, 37110, Note_on_c, 0, 74, 0
2, 37200, Note_on_c, 0, 71, 34
2, 37230, Note_on_c, 0, 71, 0
2, 37320, Note_on_c, 0, 67, 34
2, 37350, Note_on_c, 0, 67, 0
2, 37440, Note_on_c, 0, 76, 39
2, 37650, Note_on_c, 0, 76, 0
2, 37650, Note_on_c, 0, 77, 39
2, 37680, Note_on_c, 0, 77, 0
2, 37680, Note_on_c, 0, 74, 39
2, 37770, Note_on_c, 0, 74, 0
2, 37770, Note_on_c, 0, 76, 39
2, 37800, Note_on_c, 0, 76, 0
2, 37800, Note_on_c, 0, 72, 33
2, 37920, Note_on_c, 0, 72, 0
2, 37920, Note_on_c, 0, 84, 38
2, 37950, Note_on_c, 0, 84, 0
2, 38040, Note_on_c, 0, 84, 34
2, 38070, Note_on_c, 0, 84, 0
2, 38160, Note_on_c, 0, 80, 40
2, 38190, Note_on_c, 0, 80, 0
2, 38190, Note_on_c, 0, 81, 40
2, 38220, Note_on_c, 0, 81, 0
2, 38280, Note_on_c, 0, 76, 39
2, 38310, Note_on_c, 0, 76, 0
2, 38310, Note_on_c, 0, 77, 38
2, 38340, Note_on_c, 0, 77, 0
2, 38400, Note_on_c, 0, 74, 36
2, 38430, Note_on_c, 0, 74, 0
2, 38430, Note_on_c, 0, 71, 34
2, 38460, Note_on_c, 0, 71, 0
2, 38520, Note_on_c, 0, 72, 34
2, 38640, Note_on_c, 0, 72, 0
2, 38880, Note_on_c, 0, 72, 39
2, 39000, Note_on_c, 0, 72, 0
2, 39000, Note_on_c, 0, 71, 39
2, 39120, Note_on_c, 0, 71, 0
2, 39120, Note_on_c, 0, 72, 39
2, 39240, Note_on_c, 0, 72, 0
2, 39240, Note_on_c, 0, 72, 38
2, 39240, Note_on_c, 0, 74, 38
2, 39360, Note_on_c, 0, 74, 0
2, 39360, Note_on_c, 0, 75, 40
2, 39480, Note_on_c, 0, 75, 0
2, 39480, Note_on_c, 0, 77, 42
2, 39600, Note_on_c, 0, 77, 0
2, 39600, Note_on_c, 0, 72, 0
2, 39600, Note_on_c, 0, 72, 44
2, 39600, Note_on_c, 0, 75, 44
2, 39720, Note_on_c, 0, 75, 0
2, 39720, Note_on_c, 0, 72, 0
2, 39720, Note_on_c, 0, 71, 45
2, 39720, Note_on_c, 0, 74, 45
2, 39840, Note_on_c, 0, 74, 0
2, 39840, Note_on_c, 0, 71, 0
2, 39840, Note_on_c, 0, 67, 47
2, 39840, Note_on_c, 0, 79, 47
2, 39960, Note_on_c, 0, 79, 0
2, 39960, Note_on_c, 0, 67, 0
2, 39960, Note_on_c, 0, 74, 48
2, 39960, Note_on_c, 0, 77, 48
2, 40080, Note_on_c, 0, 77, 0
2, 40080, Note_on_c, 0, 74, 0
2, 40080, Note_on_c, 0, 72, 48
2, 40080, Note_on_c, 0, 75, 48
2, 40200, Note_on_c, 0, 75, 0
2, 40200, Note_on_c, 0, 72, 0
2, 40200, Note_on_c, 0, 71, 48
2, 40200, Note_on_c, 0, 74, 48
2, 40320, Note_on_c, 0, 74, 0
2, 40320, Note_on_c, 0, 71, 0
2, 40320, Note_on_c, 0, 72, 36
2, 40380, Note_on_c, 0, 72, 0
2, 40380, Note_on_c, 0, 77, 39
2, 40440, Note_on_c, 0, 77, 0
2, 40440, Note_on_c, 0, 76, 43
2, 40500, Note_on_c, 0, 76, 0
2, 40500, Note_on_c, 0, 79, 46
2, 40560, Note_on_c, 0, 79, 0
2, 40560, Note_on_c, 0, 77, 50
2, 40620, Note_on_c, 0, 77, 0
2, 40620, Note_on_c, 0, 84, 53
2, 40680, Note_on_c, 0, 84, 0
2, 40680, Note_on_c, 0, 82, 52
2, 40740, Note_on_c, 0, 82, 0
2, 40740, Note_on_c, 0, 74, 49
2, 40800, Note_on_c, 0, 74, 0
2, 40800, Note_on_c, 0, 77, 46
2, 40860, Note_on_c, 0, 77, 0
2, 40860, Note_on_c, 0, 74, 43
2, 40920, Note_on_c, 0, 74, 0
2, 40920, Note_on_c, 0, 75, 40
2, 40980, Note_on_c, 0, 75, 0
2, 40980, Note_on_c, 0, 82, 53
2, 41040, Note_on_c, 0, 82, 0
2, 41040, Note_on_c, 0, 72, 52
2, 41100, Note_on_c, 0, 72, 0
2, 41100, Note_on_c, 0, 80, 51
2, 41160, Note_on_c, 0, 80, 0
2, 41160, Note_on_c, 0, 79, 49
2, 41220, Note_on_c, 0, 79, 0
2, 41220, Note_on_c, 0, 75, 48
2, 41280, Note_on_c, 0, 75, 0
2, 41280, Note_on_c, 0, 77, 46
2, 41340, Note_on_c, 0, 77, 0
2, 41340, Note_on_c, 0, 74, 45
2, 41400, Note_on_c, 0, 74, 0
2, 41400, Note_on_c, 0, 75, 44
2, 41520, Note_on_c, 0, 75, 0
2, 41760, Note_on_c, 0, 72, 39
2, 41880, Note_on_c, 0, 72, 0
2, 41880, Note_on_c, 0, 71, 39
2, 42000, Note_on_c, 0, 71, 0
2, 42000, Note_on_c, 0, 72, 39
2, 42120, Note_on_c, 0, 72, 0
2, 42120, Note_on_c, 0, 72, 38
2, 42120, Note_on_c, 0, 74, 38
2, 42240, Note_on_c, 0, 74, 0
2, 42240, Note_on_c, 0, 75, 40
2, 42360, Note_on_c, 0, 75, 0
2, 42360, Note_on_c, 0, 77, 42
2, 42480, Note_on_c, 0, 77, 0
2, 42480, Note_on_c, 0, 72, 0
2, 42480, Note_on_c, 0, 72, 44
2, 42480, Note_on_c, 0, 75, 44
2, 42600, Note_on_c, 0, 75, 0
2, 42600, Note_on_c, 0, 72, 0
2, 42600, Note_on_c, 0, 71, 45
2, 42600, Note_on_c, 0, 74, 45
2, 42720, Note_on_c, 0, 74, 0
2, 42720, Note_on_c, 0, 71, 0
2, 42720, Note_on_c, 0, 67, 47
2, 42720, Note_on_c, 0, 79, 47
2, 42840, Note_on_c, 0, 79, 0
2, 42840, Note_on_c, 0, 67, 0
2, 42840, Note_on_c, 0, 74, 48
2, 42840, Note_on_c, 0, 77, 48
2, 42960, Note_on_c, 0, 77, 0
2, 42960, Note_on_c, 0, 74, 0
2, 42960, Note_on_c, 0, 72, 48
2, 42960, Note_on_c, 0, 75, 48
2, 43080, Note_on_c, 0, 75, 0
2, 43080, Note_on_c, 0, 72, 0
2, 43080, Note_on_c, 0, 71, 48
2, 43080, Note_on_c, 0, 74, 48
2, 43200, Note_on_c, 0, 74, 0
2, 43200, Note_on_c, 0, 71, 0
2, 43200, Note_on_c, 0, 72, 36
2, 43260, Note_on_c, 0, 72, 0
2, 43260, Note_on_c, 0, 77, 39
2, 43320, Note_on_c, 0, 77, 0
2, 43320, Note_on_c, 0, 76, 43
2, 43380, Note_on_c, 0, 76, 0
2, 43380, Note_on_c, 0, 79, 46
2, 43440, Note_on_c, 0, 79, 0
2, 43440, Note_on_c, 0, 77, 50
2, 43500, Note_on_c, 0, 77, 0
2, 43500, Note_on_c, 0, 84, 53
2, 43560, Note_on_c, 0, 84, 0
2, 43560, Note_on_c, 0, 82, 52
2, 43620, Note_on_c, 0, 82, 0
2, 43620, Note_on_c, 0, 74, 49
2, 43680, Note_on_c, 0, 74, 0
2, 43680, Note_on_c, 0, 77, 46
2, 43740, Note_on_c, 0, 77, 0
2, 43740, Note_on_c, 0, 74, 43
2, 43800, Note_on_c, 0, 74, 0
2, 43800, Note_on_c, 0, 75, 40
2, 43860, Note_on_c, 0, 75, 0
2, 43860, Note_on_c, 0, 82, 53
2, 43920, Note_on_c, 0, 82, 0
2, 43920, Note_on_c, 0, 72, 52
2, 43980, Note_on_c, 0, 72, 0
2, 43980, Note_on_c, 0, 80, 51
2, 44040, Note_on_c, 0, 80, 0
2, 44040, Note_on_c, 0, 79, 49
2, 44100, Note_on_c, 0, 79, 0
2, 44100, Note_on_c, 0, 75, 48
2, 44160, Note_on_c, 0, 75, 0
2, 44160, Note_on_c, 0, 77, 46
2, 44220, Note_on_c, 0, 77, 0
2, 44220, Note_on_c, 0, 74, 45
2, 44280, Note_on_c, 0, 74, 0
2, 44280, Note_on_c, 0, 75, 44
2, 44400, Note_on_c, 0, 75, 0
2, 44640, Note_on_c, 0, 67, 46
2, 44640, Note_on_c, 0, 79, 46
2, 44700, Note_on_c, 0, 79, 0
2, 44700, Note_on_c, 0, 78, 45
2, 44760, Note_on_c, 0, 78, 0
2, 44760, Note_on_c, 0, 79, 44
2, 44820, Note_on_c, 0, 79, 0
2, 44820, Note_on_c, 0, 75, 43
2, 44880, Note_on_c, 0, 75, 0
2, 44880, Note_on_c, 0, 74, 41
2, 44940, Note_on_c, 0, 74, 0
2, 44940, Note_on_c, 0, 72, 40
2, 45000, Note_on_c, 0, 72, 0
2, 45000, Note_on_c, 0, 67, 0
2, 45000, Note_on_c, 0, 68, 46
2, 45000, Note_on_c, 0, 71, 46
2, 45060, Note_on_c, 0, 68, 0
2, 45060, Note_on_c, 0, 67, 45
2, 45120, Note_on_c, 0, 67, 0
2, 45120, Note_on_c, 0, 68, 43
2, 45180, Note_on_c, 0, 68, 0
2, 45180, Note_on_c, 0, 65, 42
2, 45240, Note_on_c, 0, 65, 0
2, 45240, Note_on_c, 0, 67, 40
2, 45300, Note_on_c, 0, 67, 0
2, 45300, Note_on_c, 0, 68, 39
2, 45360, Note_on_c, 0, 68, 0
2, 45360, Note_on_c, 0, 71, 0
2, 45360, Note_on_c, 0, 67, 40
2, 45360, Note_on_c, 0, 79, 40
2, 45420, Note_on_c, 0, 79, 0
2, 45420, Note_on_c, 0, 78, 40
2, 45480, Note_on_c, 0, 78, 0
2, 45480, Note_on_c, 0, 79, 39
2, 45540, Note_on_c, 0, 79, 0
2, 45540, Note_on_c, 0, 75, 39
2, 45600, Note_on_c, 0, 75, 0
2, 45600, Note_on_c, 0, 74, 38
2, 45660, Note_on_c, 0, 74, 0
2, 45660, Note_on_c, 0, 72, 38
2, 45720, Note_on_c, 0, 72, 0
2, 45720, Note_on_c, 0, 67, 0
2, 45720, Note_on_c, 0, 68, 43
2, 45720, Note_on_c, 0, 71, 43
2, 45780, Note_on_c, 0, 68, 0
2, 45780, Note_on_c, 0, 67, 43
2, 45840, Note_on_c, 0, 67, 0
2, 45840, Note_on_c, 0, 68, 42
2, 45900, Note_on_c, 0, 68, 0
2, 45900, Note_on_c, 0, 65, 41
2, 45960, Note_on_c, 0, 65, 0
2, 45960, Note_on_c, 0, 67, 40
2, 46020, Note_on_c, 0, 67, 0
2, 46020, Note_on_c, 0, 68, 39
2, 46080, Note_on_c, 0, 68, 0
2, 46080, Note_on_c, 0, 71, 0
2, 46080, Note_on_c, 0, 72, 42
2, 46080, Note_on_c, 0, 67, 42
2, 46140, Note_on_c, 0, 67, 0
2, 46140, Note_on_c, 0, 65, 41
2, 46200, Note_on_c, 0, 65, 0
2, 46200, Note_on_c, 0, 67, 40
2, 46260, Note_on_c, 0, 67, 0
2, 46260, Note_on_c, 0, 63, 39
2, 46320, Note_on_c, 0, 63, 0
2, 46320, Note_on_c, 0, 65, 38
2, 46380, Note_on_c, 0, 65, 0
2, 46380, Note_on_c, 0, 67, 37
2, 46440, Note_on_c, 0, 67, 0
2, 46440, Note_on_c, 0, 72, 0
2, 46440, Note_on_c, 0, 74, 45
2, 46500, Note_on_c, 0, 74, 0
2, 46500, Note_on_c, 0, 75, 45
2, 46560, Note_on_c, 0, 75, 0
2, 46560, Note_on_c, 0, 77, 45
2, 46620, Note_on_c, 0, 77, 0
2, 46620, Note_on_c, 0, 74, 45
2, 46680, Note_on_c, 0, 74, 0
2, 46680, Note_on_c, 0, 75, 45
2, 46740, Note_on_c, 0, 75, 0
2, 46740, Note_on_c, 0, 72, 45
2, 46800, Note_on_c, 0, 72, 0
2, 46800, Note_on_c, 0, 67, 45
2, 46800, Note_on_c, 0, 79, 45
2, 47280, Note_on_c, 0, 67, 0
2, 47370, Note_on_c, 0, 79, 0
2, 47370, Note_on_c, 0, 81, 38
2, 47400, Note_on_c, 0, 81, 0
2, 47400, Note_on_c, 0, 77, 38
2, 47490, Note_on_c, 0, 77, 0
2, 47490, Note_on_c, 0, 79, 38
2, 47520, Note_on_c, 0, 79, 0
2, 47520, Note_on_c, 0, 76, 47
2, 47730, Note_on_c, 0, 76, 0
2, 47730, Note_on_c, 0, 77, 47
2, 47760, Note_on_c, 0, 77, 0
2, 47760, Note_on_c, 0, 74, 47
2, 47850, Note_on_c, 0, 74, 0
2, 47850, Note_on_c, 0, 76, 47
2, 47880, Note_on_c, 0, 76, 0
2, 47880, Note_on_c, 0, 72, 41
2, 48000, Note_on_c, 0, 72, 0
2, 48000, Note_on_c, 0, 79, 46
2, 48030, Note_on_c, 0, 79, 0
2, 48120, Note_on_c, 0, 79, 40
2, 48150, Note_on_c, 0, 79, 0
2, 48240, Note_on_c, 0, 79, 49
2, 48300, Note_on_c, 0, 79, 0
2, 48300, Note_on_c, 0, 77, 48
2, 48360, Note_on_c, 0, 77, 0
2, 48360, Note_on_c, 0, 77, 46
2, 48420, Note_on_c, 0, 77, 0
2, 48420, Note_on_c, 0, 76, 44
2, 48480, Note_on_c, 0, 76, 0
2, 48480, Note_on_c, 0, 76, 43
2, 48540, Note_on_c, 0, 76, 0
2, 48540, Note_on_c, 0, 74, 41
2, 48600, Note_on_c, 0, 74, 0
2, 48600, Note_on_c, 0, 74, 41
2, 48630, Note_on_c, 0, 74, 0
2, 48720, Note_on_c, 0, 71, 41
2, 48750, Note_on_c, 0, 71, 0
2, 48840, Note_on_c, 0, 67, 41
2, 48870, Note_on_c, 0, 67, 0
2, 48960, Note_on_c, 0, 76, 46
2, 49170, Note_on_c, 0, 76, 0
2, 49170, Note_on_c, 0, 77, 46
2, 49200, Note_on_c, 0, 77, 0
2, 49200, Note_on_c, 0, 74, 46
2, 49290, Note_on_c, 0, 74, 0
2, 49290, Note_on_c, 0, 76, 46
2, 49320, Note_on_c, 0, 76, 0
2, 49320, Note_on_c, 0, 72, 39
2, 49440, Note_on_c, 0, 72, 0
2, 49440, Note_on_c, 0, 84, 45
2, 49470, Note_on_c, 0, 84, 0
2, 49560, Note_on_c, 0, 84, 40
2, 49590, Note_on_c, 0, 84, 0
2, 49680, Note_on_c, 0, 80, 48
2, 49710, Note_on_c, 0, 80, 0
2, 49710, Note_on_c, 0, 81, 48
2, 49740, Note_on_c, 0, 81, 0
2, 49800, Note_on_c, 0, 76, 46
2, 49830, Note_on_c, 0, 76, 0
2, 49830, Note_on_c, 0, 77, 45
2, 49860, Note_on_c, 0, 77, 0
2, 49920, Note_on_c, 0, 74, 43
2, 49950, Note_on_c, 0, 74, 0
2, 49950, Note_on_c, 0, 71, 41
2, 49980, Note_on_c, 0, 71, 0
2, 50040, Note_on_c, 0, 72, 41
2, 50160, Note_on_c, 0, 72, 0
2, 50400, Note_on_c, 0, 77, 42
2, 50610, Note_on_c, 0, 77, 0
2, 50610, Note_on_c, 0, 79, 42
2, 50640, Note_on_c, 0, 79, 0
2, 50640, Note_on_c, 0, 76, 42
2, 50730, Note_on_c, 0, 76, 0
2, 50730, Note_on_c, 0, 77, 42
2, 50760, Note_on_c, 0, 77, 0
2, 50760, Note_on_c, 0, 74, 41
2, 50790, Note_on_c, 0, 74, 0
2, 50880, Note_on_c, 0, 71, 39
2, 50910, Note_on_c, 0, 71, 0
2, 51000, Note_on_c, 0, 67, 37
2, 51030, Note_on_c, 0, 67, 0
2, 51120, Note_on_c, 0, 84, 48
2, 51330, Note_on_c, 0, 84, 0
2, 51330, Note_on_c, 0, 86, 47
2, 51360, Note_on_c, 0, 86, 0
2, 51360, Note_on_c, 0, 83, 47
2, 51450, Note_on_c, 0, 83, 0
2, 51450, Note_on_c, 0, 84, 47
2, 51480, Note_on_c, 0, 84, 0
2, 51480, Note_on_c, 0, 81, 41
2, 51690, Note_on_c, 0, 81, 0
2, 51690, Note_on_c, 0, 83, 41
2, 51720, Note_on_c, 0, 83, 0
2, 51720, Note_on_c, 0, 79, 41
2, 51810, Note_on_c, 0, 79, 0
2, 51810, Note_on_c, 0, 81, 41
2, 51840, Note_on_c, 0, 81, 0
2, 51840, Note_on_c, 0, 78, 41
2, 51930, Note_on_c, 0, 78, 0
2, 51930, Note_on_c, 0, 81, 47
2, 51960, Note_on_c, 0, 81, 0
2, 51960, Note_on_c, 0, 84, 49
2, 52050, Note_on_c, 0, 84, 0
2, 52050, Note_on_c, 0, 81, 42
2, 52080, Note_on_c, 0, 81, 0
2, 52080, Note_on_c, 0, 78, 39
2, 52170, Note_on_c, 0, 78, 0
2, 52170, Note_on_c, 0, 81, 47
2, 52200, Note_on_c, 0, 81, 0
2, 52200, Note_on_c, 0, 79, 42
2, 52290, Note_on_c, 0, 79, 0
2, 52320, Note_on_c, 0, 79, 42
2, 52410, Note_on_c, 0, 79, 0
2, 52440, Note_on_c, 0, 79, 42
2, 52530, Note_on_c, 0, 79, 0
2, 52560, Note_on_c, 0, 78, 47
2, 52650, Note_on_c, 0, 78, 0
2, 52650, Note_on_c, 0, 81, 52
2, 52680, Note_on_c, 0, 81, 0
2, 52680, Note_on_c, 0, 84, 53
2, 52770, Note_on_c, 0, 84, 0
2, 52770, Note_on_c, 0, 81, 47
2, 52800, Note_on_c, 0, 81, 0
2, 52800, Note_on_c, 0, 78, 44
2, 52890, Note_on_c, 0, 78, 0
2, 52890, Note_on_c, 0, 81, 51
2, 52920, Note_on_c, 0, 81, 0
2, 52920, Note_on_c, 0, 79, 45
2, 53010, Note_on_c, 0, 79, 0
2, 53040, Note_on_c, 0, 79, 44
2, 53130, Note_on_c, 0, 79, 0
2, 53160, Note_on_c, 0, 79, 42
2, 53250, Note_on_c, 0, 79, 0
2, 53280, Note_on_c, 0, 79, 40
2, 53440, Note_on_c, 0, 79, 0
2, 53440, Note_on_c, 0, 81, 36
2, 53480, Note_on_c, 0, 81, 0
2, 53480, Note_on_c, 0, 79, 36
2, 53520, Note_on_c, 0, 79, 0
2, 53520, Note_on_c, 0, 77, 36
2, 53560, Note_on_c, 0, 77, 0
2, 53560, Note_on_c, 0, 79, 36
2, 53600, Note_on_c, 0, 79, 0
2, 53600, Note_on_c, 0, 77, 36
2, 53640, Note_on_c, 0, 77, 0
2, 53640, Note_on_c, 0, 76, 36
2, 53800, Note_on_c, 0, 76, 0
2, 53800, Note_on_c, 0, 77, 36
2, 53840, Note_on_c, 0, 77, 0
2, 53840, Note_on_c, 0, 76, 36
2, 53880, Note_on_c, 0, 76, 0
2, 53880, Note_on_c, 0, 74, 36
2, 53920, Note_on_c, 0, 74, 0
2, 53920, Note_on_c, 0, 76, 36
2, 53960, Note_on_c, 0, 76, 0
2, 53960, Note_on_c, 0, 74, 36
2, 54000, Note_on_c, 0, 74, 0
2, 54000, Note_on_c, 0, 72, 36
2, 54030, Note_on_c, 0, 72, 0
2, 54060, Note_on_c, 0, 79, 40
2, 54090, Note_on_c, 0, 79, 0
2, 54120, Note_on_c, 0, 79, 41
2, 54150, Note_on_c, 0, 79, 0
2, 54180, Note_on_c, 0, 79, 39
2, 54210, Note_on_c, 0, 79, 0
2, 54240, Note_on_c, 0, 79, 37
2, 54270, Note_on_c, 0, 79, 0
2, 54300, Note_on_c, 0, 79, 35
2, 54330, Note_on_c, 0, 79, 0
2, 54360, Note_on_c, 0, 79, 44
2, 54420, Note_on_c, 0, 79, 0
2, 54420, Note_on_c, 0, 78, 43
2, 54480, Note_on_c, 0, 78, 0
2, 54480, Note_on_c, 0, 77, 41
2, 54540, Note_on_c, 0, 77, 0
2, 54540, Note_on_c, 0, 76, 40
2, 54600, Note_on_c, 0, 76, 0
2, 54600, Note_on_c, 0, 75, 38
2, 54660, Note_on_c, 0, 75, 0
2, 54660, Note_on_c, 0, 74, 37
2, 54720, Note_on_c, 0, 74, 0
2, 54720, Note_on_c, 0, 74, 44
2, 54750, Note_on_c, 0, 74, 0
2, 54840, Note_on_c, 0, 71, 40
2, 54870, Note_on_c, 0, 71, 0
2, 54960, Note_on_c, 0, 67, 36
2, 54990, Note_on_c, 0, 67, 0
2, 55080, Note_on_c, 0, 76, 40
2, 55240, Note_on_c, 0, 76, 0
2, 55240, Note_on_c, 0, 77, 40
2, 55280, Note_on_c, 0, 77, 0
2, 55280, Note_on_c, 0, 76, 40
2, 55320, Note_on_c, 0, 76, 0
2, 55320, Note_on_c, 0, 74, 40
2, 55360, Note_on_c, 0, 74, 0
2, 55360, Note_on_c, 0, 76, 40
2, 55400, Note_on_c, 0, 76, 0
2, 55400, Note_on_c, 0, 74, 40
2, 55440, Note_on_c, 0, 74, 0
2, 55440, Note_on_c, 0, 72, 41
2, 55480, Note_on_c, 0, 72, 0
2, 55480, Note_on_c, 0, 76, 43
2, 55520, Note_on_c, 0, 76, 0
2, 55520, Note_on_c, 0, 79, 45
2, 55560, Note_on_c, 0, 79, 0
2, 55560, Note_on_c, 0, 76, 47
2, 55600, Note_on_c, 0, 76, 0
2, 55600, Note_on_c, 0, 79, 49
2, 55640, Note_on_c, 0, 79, 0
2, 55640, Note_on_c, 0, 84, 51
2, 55680, Note_on_c, 0, 84, 0
2, 55680, Note_on_c, 0, 79, 53
2, 55720, Note_on_c, 0, 79, 0
2, 55720, Note_on_c, 0, 84, 56
2, 55760, Note_on_c, 0, 84, 0
2, 55760, Note_on_c, 0, 88, 58
2, 55800, Note_on_c, 0, 88, 0
2, 55800, Note_on_c, 0, 74, 50
2, 55860, Note_on_c, 0, 74, 0
2, 55920, Note_on_c, 0, 77, 50
2, 56010, Note_on_c, 0, 77, 0
2, 56010, Note_on_c, 0, 74, 50
2, 56040, Note_on_c, 0, 74, 0
2, 56040, Note_on_c, 0, 71, 50
2, 56130, Note_on_c, 0, 71, 0
2, 56130, Note_on_c, 0, 74, 50
2, 56160, Note_on_c, 0, 74, 0
2, 56160, Note_on_c, 0, 72, 41
2, 56200, Note_on_c, 0, 72, 0
2, 56200, Note_on_c, 0, 76, 43
2, 56240, Note_on_c, 0, 76, 0
2, 56240, Note_on_c, 0, 79, 45
2, 56280, Note_on_c, 0, 79, 0
2, 56280, Note_on_c, 0, 76, 47
2, 56320, Note_on_c, 0, 76, 0
2, 56320, Note_on_c, 0, 79, 49
2, 56360, Note_on_c, 0, 79, 0
2, 56360, Note_on_c, 0, 84, 51
2, 56400, Note_on_c, 0, 84, 0
2, 56400, Note_on_c, 0, 79, 53
2, 56440, Note_on_c, 0, 79, 0
2, 56440, Note_on_c, 0, 84, 56
2, 56480, Note_on_c, 0, 84, 0
2, 56480, Note_on_c, 0, 88, 58
2, 56520, Note_on_c, 0, 88, 0
2, 56520, Note_on_c, 0, 74, 50
2, 56580, Note_on_c, 0, 74, 0
2, 56640, Note_on_c, 0, 77, 50
2, 56730, Note_on_c, 0, 77, 0
2, 56730, Note_on_c, 0, 74, 50
2, 56760, Note_on_c, 0, 74, 0
2, 56760, Note_on_c, 0, 71, 50
2, 56850, Note_on_c, 0, 71, 0
2, 56850, Note_on_c, 0, 74, 50
2, 56880, Note_on_c, 0, 74, 0
2, 56880, Note_on_c, 0, 72, 52
2, 56910, Note_on_c, 0, 72, 0
2, 57000, Note_on_c, 0, 84, 52
2, 57000, Note_on_c, 0, 76, 52
2, 57060, Note_on_c, 0, 76, 0
2, 57060, Note_on_c, 0, 84, 0
2, 57120, Note_on_c, 0, 76, 52
2, 57120, Note_on_c, 0, 84, 52
2, 57180, Note_on_c, 0, 84, 0
2, 57180, Note_on_c, 0, 76, 0
2, 57240, Note_on_c, 0, 76, 52
2, 57240, Note_on_c, 0, 84, 52
2, 57480, Note_on_c, 0, 84, 0
2, 57480, Note_on_c, 0, 76, 0
2, 57480, End_track
3, 0, Start_track
3, 240, Control_c, 0, 91, 125
3, 840, Note_on_c, 0, 67, 42
3, 840, Note_on_c, 0, 60, 42
3, 960, Note_on_c, 0, 60, 0
3, 960, Note_on_c, 0, 67, 0
3, 960, Note_on_c, 0, 65, 40
3, 960, Note_on_c, 0, 67, 40
3, 1020, Note_on_c, 0, 67, 0
3, 1020, Note_on_c, 0, 65, 0
3, 1080, Note_on_c, 0, 67, 38
3, 1080, Note_on_c, 0, 64, 38
3, 1200, Note_on_c, 0, 64, 0
3, 1200, Note_on_c, 0, 67, 0
3, 1440, Note_on_c, 0, 59, 42
3, 1440, Note_on_c, 0, 67, 42
3, 1680, Note_on_c, 0, 59, 0
3, 1680, Note_on_c, 0, 60, 39
3, 1800, Note_on_c, 0, 60, 0
3, 1800, Note_on_c, 0, 55, 38
3, 1920, Note_on_c, 0, 55, 0
3, 1920, Note_on_c, 0, 67, 0
3, 2280, Note_on_c, 0, 67, 40
3, 2280, Note_on_c, 0, 60, 40
3, 2400, Note_on_c, 0, 60, 0
3, 2400, Note_on_c, 0, 67, 0
3, 2400, Note_on_c, 0, 65, 39
3, 2400, Note_on_c, 0, 67, 39
3, 2460, Note_on_c, 0, 67, 0
3, 2460, Note_on_c, 0, 65, 0
3, 2520, Note_on_c, 0, 64, 38
3, 2520, Note_on_c, 0, 67, 38
3, 2640, Note_on_c, 0, 67, 0
3, 2640, Note_on_c, 0, 64, 0
3, 2760, Note_on_c, 0, 52, 42
3, 2760, Note_on_c, 0, 60, 42
3, 2820, Note_on_c, 0, 60, 0
3, 2820, Note_on_c, 0, 52, 0
3, 2880, Note_on_c, 0, 60, 40
3, 2880, Note_on_c, 0, 53, 40
3, 3000, Note_on_c, 0, 53, 0
3, 3000, Note_on_c, 0, 60, 0
3, 3120, Note_on_c, 0, 65, 38
3, 3120, Note_on_c, 0, 55, 38
3, 3180, Note_on_c, 0, 55, 0
3, 3180, Note_on_c, 0, 65, 0
3, 3240, Note_on_c, 0, 60, 38
3, 3240, Note_on_c, 0, 64, 38
3, 3360, Note_on_c, 0, 64, 0
3, 3360, Note_on_c, 0, 60, 0
3, 3720, Note_on_c, 0, 67, 42
3, 3720, Note_on_c, 0, 60, 42
3, 3840, Note_on_c, 0, 60, 0
3, 3840, Note_on_c, 0, 67, 0
3, 3840, Note_on_c, 0, 65, 40
3, 3840, Note_on_c, 0, 67, 40
3, 3900, Note_on_c, 0, 67, 0
3, 3900, Note_on_c, 0, 65, 0
3, 3960, Note_on_c, 0, 67, 38
3, 3960, Note_on_c, 0, 64, 38
3, 4080, Note_on_c, 0, 64, 0
3, 4080, Note_on_c, 0, 67, 0
3, 4320, Note_on_c, 0, 59, 42
3, 4320, Note_on_c, 0, 67, 42
3, 4560, Note_on_c, 0, 59, 0
3, 4560, Note_on_c, 0, 60, 39
3, 4680, Note_on_c, 0, 60, 0
3, 4680, Note_on_c, 0, 55, 38
3, 4800, Note_on_c, 0, 55, 0
3, 4800, Note_on_c, 0, 67, 0
3, 5160, Note_on_c, 0, 67, 40
3, 5160, Note_on_c, 0, 60, 40
3, 5280, Note_on_c, 0, 60, 0
3, 5280, Note_on_c, 0, 67, 0
3, 5280, Note_on_c, 0, 65, 39
3, 5280, Note_on_c, 0, 67, 39
3, 5340, Note_on_c, 0, 67, 0
3, 5340, Note_on_c, 0, 65, 0
3, 5400, Note_on_c, 0, 64, 38
3, 5400, Note_on_c, 0, 67, 38
3, 5520, Note_on_c, 0, 67, 0
3, 5520, Note_on_c, 0, 64, 0
3, 5640, Note_on_c, 0, 52, 42
3, 5640, Note_on_c, 0, 60, 42
3, 5700, Note_on_c, 0, 60, 0
3, 5700, Note_on_c, 0, 52, 0
3, 5760, Note_on_c, 0, 60, 40
3, 5760, Note_on_c, 0, 53, 40
3, 5880, Note_on_c, 0, 53, 0
3, 5880, Note_on_c, 0, 60, 0
3, 6000, Note_on_c, 0, 65, 38
3, 6000, Note_on_c, 0, 55, 38
3, 6060, Note_on_c, 0, 55, 0
3, 6060, Note_on_c, 0, 65, 0
3, 6120, Note_on_c, 0, 60, 38
3, 6120, Note_on_c, 0, 64, 38
3, 6240, Note_on_c, 0, 64, 0
3, 6240, Note_on_c, 0, 60, 0
3, 6600, Note_on_c, 0, 67, 39
3, 6600, Note_on_c, 0, 59, 39
3, 6720, Note_on_c, 0, 59, 0
3, 6720, Note_on_c, 0, 67, 0
3, 6720, Note_on_c, 0, 60, 39
3, 6720, Note_on_c, 0, 67, 39
3, 6780, Note_on_c, 0, 67, 0
3, 6780, Note_on_c, 0, 60, 0
3, 6840, Note_on_c, 0, 55, 39
3, 6840, Note_on_c, 0, 67, 39
3, 6960, Note_on_c, 0, 67, 0
3, 6960, Note_on_c, 0, 55, 0
3, 7320, Note_on_c, 0, 64, 46
3, 7320, Note_on_c, 0, 67, 46
3, 7440, Note_on_c, 0, 67, 0
3, 7440, Note_on_c, 0, 64, 0
3, 7440, Note_on_c, 0, 62, 44
3, 7440, Note_on_c, 0, 66, 44
3, 7500, Note_on_c, 0, 66, 0
3, 7500, Note_on_c, 0, 62, 0
3, 7680, Note_on_c, 0, 64, 41
3, 7680, Note_on_c, 0, 60, 41
3, 7800, Note_on_c, 0, 60, 0
3, 7800, Note_on_c, 0, 64, 0
3, 7800, Note_on_c, 0, 62, 39
3, 7800, Note_on_c, 0, 59, 39
3, 7860, Note_on_c, 0, 59, 0
3, 7860, Note_on_c, 0, 62, 0
3, 7920, Note_on_c, 0, 57, 46
3, 7920, Note_on_c, 0, 60, 46
3, 8160, Note_on_c, 0, 60, 0
3, 8160, Note_on_c, 0, 57, 0
3, 8160, Note_on_c, 0, 50, 39
3, 8220, Note_on_c, 0, 50, 0
3, 8280, Note_on_c, 0, 55, 35
3, 8370, Note_on_c, 0, 55, 0
3, 8370, Note_on_c, 0, 59, 40
3, 8400, Note_on_c, 0, 59, 0
3, 8400, Note_on_c, 0, 62, 42
3, 8490, Note_on_c, 0, 62, 0
3, 8490, Note_on_c, 0, 67, 48
3, 8520, Note_on_c, 0, 67, 0
3, 8520, Note_on_c, 0, 71, 50
3, 8610, Note_on_c, 0, 71, 0
3, 8610, Note_on_c, 0, 67, 41
3, 8640, Note_on_c, 0, 67, 0
3, 8640, Note_on_c, 0, 69, 48
3, 8640, Note_on_c, 0, 72, 48
3, 8880, Note_on_c, 0, 72, 0
3, 8880, Note_on_c, 0, 69, 0
3, 8880, Note_on_c, 0, 62, 41
3, 9000, Note_on_c, 0, 62, 0
3, 9000, Note_on_c, 0, 55, 52
3, 9090, Note_on_c, 0, 55, 0
3, 9090, Note_on_c, 0, 59, 49
3, 9120, Note_on_c, 0, 59, 0
3, 9120, Note_on_c, 0, 50, 48
3, 9210, Note_on_c, 0, 50, 0
3, 9210, Note_on_c, 0, 55, 45
3, 9240, Note_on_c, 0, 55, 0
3, 9240, Note_on_c, 0, 47, 44
3, 9330, Note_on_c, 0, 47, 0
3, 9330, Note_on_c, 0, 50, 41
3, 9360, Note_on_c, 0, 50, 0
3, 9360, Note_on_c, 0, 43, 40
3, 9480, Note_on_c, 0, 43, 0
3, 9840, Note_on_c, 0, 67, 42
3, 9840, Note_on_c, 0, 60, 42
3, 9960, Note_on_c, 0, 60, 0
3, 9960, Note_on_c, 0, 67, 0
3, 9960, Note_on_c, 0, 65, 40
3, 9960, Note_on_c, 0, 67, 40
3, 10020, Note_on_c, 0, 67, 0
3, 10020, Note_on_c, 0, 65, 0
3, 10080, Note_on_c, 0, 67, 38
3, 10080, Note_on_c, 0, 64, 38
3, 10200, Note_on_c, 0, 64, 0
3, 10200, Note_on_c, 0, 67, 0
3, 10440, Note_on_c, 0, 59, 42
3, 10440, Note_on_c, 0, 67, 42
3, 10680, Note_on_c, 0, 59, 0
3, 10680, Note_on_c, 0, 60, 39
3, 10800, Note_on_c, 0, 60, 0
3, 10800, Note_on_c, 0, 55, 38
3, 10920, Note_on_c, 0, 55, 0
3, 10920, Note_on_c, 0, 67, 0
3, 11280, Note_on_c, 0, 67, 40
3, 11280, Note_on_c, 0, 60, 40
3, 11400, Note_on_c, 0, 60, 0
3, 11400, Note_on_c, 0, 67, 0
3, 11400, Note_on_c, 0, 65, 39
3, 11400, Note_on_c, 0, 67, 39
3, 11460, Note_on_c, 0, 67, 0
3, 11460, Note_on_c, 0, 65, 0
3, 11520, Note_on_c, 0, 64, 38
3, 11520, Note_on_c, 0, 67, 38
3, 11640, Note_on_c, 0, 67, 0
3, 11640, Note_on_c, 0, 64, 0
3, 11760, Note_on_c, 0, 52, 42
3, 11760, Note_on_c, 0, 60, 42
3, 11820, Note_on_c, 0, 60, 0
3, 11820, Note_on_c, 0, 52, 0
3, 11880, Note_on_c, 0, 60, 40
3, 11880, Note_on_c, 0, 53, 40
3, 12000, Note_on_c, 0, 53, 0
3, 12000, Note_on_c, 0, 60, 0
3, 12120, Note_on_c, 0, 65, 38
3, 12120, Note_on_c, 0, 55, 38
3, 12180, Note_on_c, 0, 55, 0
3, 12180, Note_on_c, 0, 65, 0
3, 12240, Note_on_c, 0, 60, 38
3, 12240, Note_on_c, 0, 64, 38
3, 12360, Note_on_c, 0, 64, 0
3, 12360, Note_on_c, 0, 60, 0
3, 12720, Note_on_c, 0, 67, 39
3, 12720, Note_on_c, 0, 59, 39
3, 12840, Note_on_c, 0, 59, 0
3, 12840, Note_on_c, 0, 67, 0
3, 12840, Note_on_c, 0, 60, 39
3, 12840, Note_on_c, 0, 67, 39
3, 12900, Note_on_c, 0, 67, 0
3, 12900, Note_on_c, 0, 60, 0
3, 12960, Note_on_c, 0, 55, 39
3, 12960, Note_on_c, 0, 67, 39
3, 13080, Note_on_c, 0, 67, 0
3, 13080, Note_on_c, 0, 55, 0
3, 13440, Note_on_c, 0, 64, 46
3, 13440, Note_on_c, 0, 67, 46
3, 13560, Note_on_c, 0, 67, 0
3, 13560, Note_on_c, 0, 64, 0
3, 13560, Note_on_c, 0, 62, 44
3, 13560, Note_on_c, 0, 66, 44
3, 13620, Note_on_c, 0, 66, 0
3, 13620, Note_on_c, 0, 62, 0
3, 13800, Note_on_c, 0, 64, 41
3, 13800, Note_on_c, 0, 60, 41
3, 13920, Note_on_c, 0, 60, 0
3, 13920, Note_on_c, 0, 64, 0
3, 13920, Note_on_c, 0, 62, 39
3, 13920, Note_on_c, 0, 59, 39
3, 13980, Note_on_c, 0, 59, 0
3, 13980, Note_on_c, 0, 62, 0
3, 14040, Note_on_c, 0, 57, 46
3, 14040, Note_on_c, 0, 60, 46
3, 14280, Note_on_c, 0, 60, 0
3, 14280, Note_on_c, 0, 57, 0
3, 14280, Note_on_c, 0, 50, 39
3, 14340, Note_on_c, 0, 50, 0
3, 14400, Note_on_c, 0, 55, 35
3, 14490, Note_on_c, 0, 55, 0
3, 14490, Note_on_c, 0, 59, 40
3, 14520, Note_on_c, 0, 59, 0
3, 14520, Note_on_c, 0, 62, 42
3, 14610, Note_on_c, 0, 62, 0
3, 14610, Note_on_c, 0, 67, 48
3, 14640, Note_on_c, 0, 67, 0
3, 14640, Note_on_c, 0, 71, 50
3, 14730, Note_on_c, 0, 71, 0
3, 14730, Note_on_c, 0, 67, 41
3, 14760, Note_on_c, 0, 67, 0
3, 14760, Note_on_c, 0, 69, 48
3, 14760, Note_on_c, 0, 72, 48
3, 15000, Note_on_c, 0, 72, 0
3, 15000, Note_on_c, 0, 69, 0
3, 15000, Note_on_c, 0, 62, 41
3, 15120, Note_on_c, 0, 62, 0
3, 15120, Note_on_c, 0, 55, 52
3, 15210, Note_on_c, 0, 55, 0
3, 15210, Note_on_c, 0, 59, 49
3, 15240, Note_on_c, 0, 59, 0
3, 15240, Note_on_c, 0, 50, 48
3, 15330, Note_on_c, 0, 50, 0
3, 15330, Note_on_c, 0, 55, 45
3, 15360, Note_on_c, 0, 55, 0
3, 15360, Note_on_c, 0, 47, 44
3, 15450, Note_on_c, 0, 47, 0
3, 15450, Note_on_c, 0, 50, 41
3, 15480, Note_on_c, 0, 50, 0
3, 15480, Note_on_c, 0, 43, 40
3, 15600, Note_on_c, 0, 43, 0
3, 15960, Note_on_c, 0, 67, 42
3, 15960, Note_on_c, 0, 60, 42
3, 16080, Note_on_c, 0, 60, 0
3, 16080, Note_on_c, 0, 67, 0
3, 16080, Note_on_c, 0, 65, 40
3, 16080, Note_on_c, 0, 67, 40
3, 16140, Note_on_c, 0, 67, 0
3, 16140, Note_on_c, 0, 65, 0
3, 16200, Note_on_c, 0, 67, 38
3, 16200, Note_on_c, 0, 64, 38
3, 16320, Note_on_c, 0, 64, 0
3, 16320, Note_on_c, 0, 67, 0
3, 16560, Note_on_c, 0, 59, 42
3, 16560, Note_on_c, 0, 67, 42
3, 16800, Note_on_c, 0, 59, 0
3, 16800, Note_on_c, 0, 60, 39
3, 16920, Note_on_c, 0, 60, 0
3, 16920, Note_on_c, 0, 55, 38
3, 17040, Note_on_c, 0, 55, 0
3, 17040, Note_on_c, 0, 67, 0
3, 17400, Note_on_c, 0, 67, 40
3, 17400, Note_on_c, 0, 60, 40
3, 17520, Note_on_c, 0, 60, 0
3, 17520, Note_on_c, 0, 67, 0
3, 17520, Note_on_c, 0, 65, 39
3, 17520, Note_on_c, 0, 67, 39
3, 17580, Note_on_c, 0, 67, 0
3, 17580, Note_on_c, 0, 65, 0
3, 17640, Note_on_c, 0, 64, 38
3, 17640, Note_on_c, 0, 67, 38
3, 17760, Note_on_c, 0, 67, 0
3, 17760, Note_on_c, 0, 64, 0
3, 17880, Note_on_c, 0, 52, 42
3, 17880, Note_on_c, 0, 60, 42
3, 17940, Note_on_c, 0, 60, 0
3, 17940, Note_on_c, 0, 52, 0
3, 18000, Note_on_c, 0, 60, 40
3, 18000, Note_on_c, 0, 53, 40
3, 18120, Note_on_c, 0, 53, 0
3, 18120, Note_on_c, 0, 60, 0
3, 18240, Note_on_c, 0, 65, 38
3, 18240, Note_on_c, 0, 55, 38
3, 18300, Note_on_c, 0, 55, 0
3, 18300, Note_on_c, 0, 65, 0
3, 18360, Note_on_c, 0, 60, 38
3, 18360, Note_on_c, 0, 64, 38
3, 18480, Note_on_c, 0, 64, 0
3, 18480, Note_on_c, 0, 60, 0
3, 18840, Note_on_c, 0, 72, 40
3, 18960, Note_on_c, 0, 72, 0
3, 18960, Note_on_c, 0, 69, 40
3, 19080, Note_on_c, 0, 69, 0
3, 19080, Note_on_c, 0, 71, 40
3, 19200, Note_on_c, 0, 71, 0
3, 19440, Note_on_c, 0, 66, 37
3, 19440, Note_on_c, 0, 74, 37
3, 19680, Note_on_c, 0, 66, 0
3, 19680, Note_on_c, 0, 67, 37
3, 19800, Note_on_c, 0, 67, 0
3, 19800, Note_on_c, 0, 74, 0
3, 19800, Note_on_c, 0, 62, 37
3, 19920, Note_on_c, 0, 62, 0
3, 20160, Note_on_c, 0, 67, 51
3, 20370, Note_on_c, 0, 67, 0
3, 20370, Note_on_c, 0, 69, 50
3, 20400, Note_on_c, 0, 69, 0
3, 20400, Note_on_c, 0, 66, 49
3, 20430, Note_on_c, 0, 66, 0
3, 20490, Note_on_c, 0, 67, 49
3, 20520, Note_on_c, 0, 67, 0
3, 20520, Note_on_c, 0, 64, 49
3, 20550, Note_on_c, 0, 64, 0
3, 20610, Note_on_c, 0, 66, 48
3, 20640, Note_on_c, 0, 66, 0
3, 20640, Note_on_c, 0, 62, 48
3, 20670, Note_on_c, 0, 62, 0
3, 20730, Note_on_c, 0, 64, 47
3, 20760, Note_on_c, 0, 64, 0
3, 20760, Note_on_c, 0, 60, 47
3, 20790, Note_on_c, 0, 60, 0
3, 20850, Note_on_c, 0, 62, 46
3, 20880, Note_on_c, 0, 62, 0
3, 20880, Note_on_c, 0, 59, 46
3, 20910, Note_on_c, 0, 59, 0
3, 20970, Note_on_c, 0, 60, 45
3, 21000, Note_on_c, 0, 60, 0
3, 21000, Note_on_c, 0, 57, 45
3, 21030, Note_on_c, 0, 57, 0
3, 21090, Note_on_c, 0, 59, 44
3, 21120, Note_on_c, 0, 59, 0
3, 21120, Note_on_c, 0, 55, 44
3, 21180, Note_on_c, 0, 55, 0
3, 21240, Note_on_c, 0, 60, 39
3, 21330, Note_on_c, 0, 60, 0
3, 21360, Note_on_c, 0, 62, 45
3, 21450, Note_on_c, 0, 62, 0
3, 21480, Note_on_c, 0, 62, 40
3, 21570, Note_on_c, 0, 62, 0
3, 21600, Note_on_c, 0, 67, 51
3, 21760, Note_on_c, 0, 67, 0
3, 21760, Note_on_c, 0, 69, 49
3, 21800, Note_on_c, 0, 69, 0
3, 21800, Note_on_c, 0, 67, 49
3, 21840, Note_on_c, 0, 67, 0
3, 21840, Note_on_c, 0, 66, 49
3, 21880, Note_on_c, 0, 66, 0
3, 21880, Note_on_c, 0, 67, 48
3, 21920, Note_on_c, 0, 67, 0
3, 21920, Note_on_c, 0, 66, 48
3, 21960, Note_on_c, 0, 66, 0
3, 21960, Note_on_c, 0, 64, 47
3, 22000, Note_on_c, 0, 64, 0
3, 22000, Note_on_c, 0, 66, 47
3, 22040, Note_on_c, 0, 66, 0
3, 22040, Note_on_c, 0, 64, 46
3, 22080, Note_on_c, 0, 64, 0
3, 22080, Note_on_c, 0, 62, 46
3, 22120, Note_on_c, 0, 62, 0
3, 22120, Note_on_c, 0, 64, 45
3, 22160, Note_on_c, 0, 64, 0
3, 22160, Note_on_c, 0, 62, 45
3, 22200, Note_on_c, 0, 62, 0
3, 22200, Note_on_c, 0, 60, 45
3, 22240, Note_on_c, 0, 60, 0
3, 22240, Note_on_c, 0, 62, 44
3, 22280, Note_on_c, 0, 62, 0
3, 22280, Note_on_c, 0, 60, 44
3, 22320, Note_on_c, 0, 60, 0
3, 22320, Note_on_c, 0, 59, 43
3, 22360, Note_on_c, 0, 59, 0
3, 22360, Note_on_c, 0, 60, 43
3, 22400, Note_on_c, 0, 60, 0
3, 22400, Note_on_c, 0, 59, 42
3, 22440, Note_on_c, 0, 59, 0
3, 22440, Note_on_c, 0, 57, 42
3, 22480, Note_on_c, 0, 57, 0
3, 22480, Note_on_c, 0, 59, 41
3, 22520, Note_on_c, 0, 59, 0
3, 22520, Note_on_c, 0, 57, 41
3, 22560, Note_on_c, 0, 57, 0
3, 22560, Note_on_c, 0, 55, 41
3, 22620, Note_on_c, 0, 55, 0
3, 22680, Note_on_c, 0, 60, 39
3, 22770, Note_on_c, 0, 60, 0
3, 22800, Note_on_c, 0, 62, 39
3, 22890, Note_on_c, 0, 62, 0
3, 22920, Note_on_c, 0, 62, 39
3, 23010, Note_on_c, 0, 62, 0
3, 23040, Note_on_c, 0, 55, 37
3, 23160, Note_on_c, 0, 55, 0
3, 23400, Note_on_c, 0, 67, 40
3, 23610, Note_on_c, 0, 67, 0
3, 23610, Note_on_c, 0, 69, 40
3, 23640, Note_on_c, 0, 69, 0
3, 23640, Note_on_c, 0, 65, 40
3, 23730, Note_on_c, 0, 65, 0
3, 23730, Note_on_c, 0, 67, 40
3, 23760, Note_on_c, 0, 67, 0
3, 23760, Note_on_c, 0, 64, 36
3, 23880, Note_on_c, 0, 70, 45
3, 23970, Note_on_c, 0, 70, 0
3, 23970, Note_on_c, 0, 72, 42
3, 24000, Note_on_c, 0, 72, 0
3, 24000, Note_on_c, 0, 69, 42
3, 24090, Note_on_c, 0, 69, 0
3, 24090, Note_on_c, 0, 70, 39
3, 24120, Note_on_c, 0, 70, 0
3, 24120, Note_on_c, 0, 67, 38
3, 24150, Note_on_c, 0, 67, 0
3, 24150, Note_on_c, 0, 64, 0
3, 24240, Note_on_c, 0, 67, 42
3, 24240, Note_on_c, 0, 70, 42
3, 24330, Note_on_c, 0, 70, 0
3, 24330, Note_on_c, 0, 67, 0
3, 24360, Note_on_c, 0, 65, 40
3, 24360, Note_on_c, 0, 69, 40
3, 24450, Note_on_c, 0, 69, 0
3, 24450, Note_on_c, 0, 65, 0
3, 24480, Note_on_c, 0, 64, 37
3, 24480, Note_on_c, 0, 67, 37
3, 24570, Note_on_c, 0, 67, 0
3, 24570, Note_on_c, 0, 64, 0
3, 24600, Note_on_c, 0, 55, 46
3, 24690, Note_on_c, 0, 55, 0
3, 24690, Note_on_c, 0, 57, 44
3, 24720, Note_on_c, 0, 57, 0
3, 24720, Note_on_c, 0, 53, 43
3, 24810, Note_on_c, 0, 53, 0
3, 24810, Note_on_c, 0, 55, 41
3, 24840, Note_on_c, 0, 55, 0
3, 24840, Note_on_c, 0, 52, 40
3, 24930, Note_on_c, 0, 52, 0
3, 24930, Note_on_c, 0, 53, 38
3, 24960, Note_on_c, 0, 53, 0
3, 24960, Note_on_c, 0, 50, 37
3, 24990, Note_on_c, 0, 50, 0
3, 25080, Note_on_c, 0, 52, 36
3, 25080, Note_on_c, 0, 55, 36
3, 25110, Note_on_c, 0, 55, 0
3, 25110, Note_on_c, 0, 52, 0
3, 25200, Note_on_c, 0, 53, 36
3, 25200, Note_on_c, 0, 57, 36
3, 25440, Note_on_c, 0, 53, 0
3, 25440, Note_on_c, 0, 54, 39
3, 25560, Note_on_c, 0, 54, 0
3, 25560, Note_on_c, 0, 57, 0
3, 25560, Note_on_c, 0, 55, 36
3, 25680, Note_on_c, 0, 55, 0
3, 26040, Note_on_c, 0, 64, 35
3, 26040, Note_on_c, 0, 60, 35
3, 26160, Note_on_c, 0, 60, 0
3, 26160, Note_on_c, 0, 64, 0
3, 26160, Note_on_c, 0, 55, 34
3, 26160, Note_on_c, 0, 65, 34
3, 26220, Note_on_c, 0, 65, 0
3, 26220, Note_on_c, 0, 55, 0
3, 26280, Note_on_c, 0, 64, 32
3, 26280, Note_on_c, 0, 60, 32
3, 26400, Note_on_c, 0, 60, 0
3, 26400, Note_on_c, 0, 64, 0
3, 26640, Note_on_c, 0, 59, 35
3, 26640, Note_on_c, 0, 67, 35
3, 26880, Note_on_c, 0, 59, 0
3, 26880, Note_on_c, 0, 60, 33
3, 27000, Note_on_c, 0, 60, 0
3, 27000, Note_on_c, 0, 55, 32
3, 27120, Note_on_c, 0, 55, 0
3, 27120, Note_on_c, 0, 67, 0
3, 27480, Note_on_c, 0, 67, 34
3, 27480, Note_on_c, 0, 60, 34
3, 27600, Note_on_c, 0, 60, 0
3, 27600, Note_on_c, 0, 67, 0
3, 27600, Note_on_c, 0, 65, 33
3, 27600, Note_on_c, 0, 67, 33
3, 27660, Note_on_c, 0, 67, 0
3, 27660, Note_on_c, 0, 65, 0
3, 27720, Note_on_c, 0, 64, 32
3, 27720, Note_on_c, 0, 67, 32
3, 27840, Note_on_c, 0, 67, 0
3, 27840, Note_on_c, 0, 64, 0
3, 27960, Note_on_c, 0, 52, 35
3, 27960, Note_on_c, 0, 60, 35
3, 28020, Note_on_c, 0, 60, 0
3, 28020, Note_on_c, 0, 52, 0
3, 28080, Note_on_c, 0, 60, 34
3, 28080, Note_on_c, 0, 53, 34
3, 28200, Note_on_c, 0, 53, 0
3, 28200, Note_on_c, 0, 60, 0
3, 28320, Note_on_c, 0, 65, 32
3, 28320, Note_on_c, 0, 55, 32
3, 28380, Note_on_c, 0, 55, 0
3, 28380, Note_on_c, 0, 65, 0
3, 28440, Note_on_c, 0, 60, 32
3, 28440, Note_on_c, 0, 64, 32
3, 28560, Note_on_c, 0, 64, 0
3, 28560, Note_on_c, 0, 60, 0
3, 28920, Note_on_c, 0, 72, 40
3, 29040, Note_on_c, 0, 72, 0
3, 29040, Note_on_c, 0, 69, 40
3, 29160, Note_on_c, 0, 69, 0
3, 29160, Note_on_c, 0, 71, 40
3, 29280, Note_on_c, 0, 71, 0
3, 29520, Note_on_c, 0, 66, 37
3, 29520, Note_on_c, 0, 74, 37
3, 29760, Note_on_c, 0, 66, 0
3, 29760, Note_on_c, 0, 67, 37
3, 29880, Note_on_c, 0, 67, 0
3, 29880, Note_on_c, 0, 74, 0
3, 29880, Note_on_c, 0, 62, 37
3, 30000, Note_on_c, 0, 62, 0
3, 30240, Note_on_c, 0, 67, 51
3, 30450, Note_on_c, 0, 67, 0
3, 30450, Note_on_c, 0, 69, 50
3, 30480, Note_on_c, 0, 69, 0
3, 30480, Note_on_c, 0, 66, 49
3, 30510, Note_on_c, 0, 66, 0
3, 30570, Note_on_c, 0, 67, 49
3, 30600, Note_on_c, 0, 67, 0
3, 30600, Note_on_c, 0, 64, 49
3, 30630, Note_on_c, 0, 64, 0
3, 30690, Note_on_c, 0, 66, 48
3, 30720, Note_on_c, 0, 66, 0
3, 30720, Note_on_c, 0, 62, 48
3, 30750, Note_on_c, 0, 62, 0
3, 30810, Note_on_c, 0, 64, 47
3, 30840, Note_on_c, 0, 64, 0
3, 30840, Note_on_c, 0, 60, 47
3, 30870, Note_on_c, 0, 60, 0
3, 30930, Note_on_c, 0, 62, 46
3, 30960, Note_on_c, 0, 62, 0
3, 30960, Note_on_c, 0, 59, 46
3, 30990, Note_on_c, 0, 59, 0
3, 31050, Note_on_c, 0, 60, 45
3, 31080, Note_on_c, 0, 60, 0
3, 31080, Note_on_c, 0, 57, 45
3, 31110, Note_on_c, 0, 57, 0
3, 31170, Note_on_c, 0, 59, 44
3, 31200, Note_on_c, 0, 59, 0
3, 31200, Note_on_c, 0, 55, 44
3, 31260, Note_on_c, 0, 55, 0
3, 31320, Note_on_c, 0, 60, 39
3, 31410, Note_on_c, 0, 60, 0
3, 31440, Note_on_c, 0, 62, 45
3, 31530, Note_on_c, 0, 62, 0
3, 31560, Note_on_c, 0, 62, 40
3, 31650, Note_on_c, 0, 62, 0
3, 31680, Note_on_c, 0, 67, 51
3, 31840, Note_on_c, 0, 67, 0
3, 31840, Note_on_c, 0, 69, 49
3, 31880, Note_on_c, 0, 69, 0
3, 31880, Note_on_c, 0, 67, 49
3, 31920, Note_on_c, 0, 67, 0
3, 31920, Note_on_c, 0, 66, 49
3, 31960, Note_on_c, 0, 66, 0
3, 31960, Note_on_c, 0, 67, 48
3, 32000, Note_on_c, 0, 67, 0
3, 32000, Note_on_c, 0, 66, 48
3, 32040, Note_on_c, 0, 66, 0
3, 32040, Note_on_c, 0, 64, 47
3, 32080, Note_on_c, 0, 64, 0
3, 32080, Note_on_c, 0, 66, 47
3, 32120, Note_on_c, 0, 66, 0
3, 32120, Note_on_c, 0, 64, 46
3, 32160, Note_on_c, 0, 64, 0
3, 32160, Note_on_c, 0, 62, 46
3, 32200, Note_on_c, 0, 62, 0
3, 32200, Note_on_c, 0, 64, 45
3, 32240, Note_on_c, 0, 64, 0
3, 32240, Note_on_c, 0, 62, 45
3, 32280, Note_on_c, 0, 62, 0
3, 32280, Note_on_c, 0, 60, 45
3, 32320, Note_on_c, 0, 60, 0
3, 32320, Note_on_c, 0, 62, 44
3, 32360, Note_on_c, 0, 62, 0
3, 32360, Note_on_c, 0, 60, 44
3, 32400, Note_on_c, 0, 60, 0
3, 32400, Note_on_c, 0, 59, 43
3, 32440, Note_on_c, 0, 59, 0
3, 32440, Note_on_c, 0, 60, 43
3, 32480, Note_on_c, 0, 60, 0
3, 32480, Note_on_c, 0, 59, 42
3, 32520, Note_on_c, 0, 59, 0
3, 32520, Note_on_c, 0, 57, 42
3, 32560, Note_on_c, 0, 57, 0
3, 32560, Note_on_c, 0, 59, 41
3, 32600, Note_on_c, 0, 59, 0
3, 32600, Note_on_c, 0, 57, 41
3, 32640, Note_on_c, 0, 57, 0
3, 32640, Note_on_c, 0, 55, 41
3, 32700, Note_on_c, 0, 55, 0
3, 32760, Note_on_c, 0, 60, 39
3, 32850, Note_on_c, 0, 60, 0
3, 32880, Note_on_c, 0, 62, 39
3, 32970, Note_on_c, 0, 62, 0
3, 33000, Note_on_c, 0, 62, 39
3, 33090, Note_on_c, 0, 62, 0
3, 33120, Note_on_c, 0, 55, 37
3, 33240, Note_on_c, 0, 55, 0
3, 33480, Note_on_c, 0, 67, 40
3, 33690, Note_on_c, 0, 67, 0
3, 33690, Note_on_c, 0, 69, 40
3, 33720, Note_on_c, 0, 69, 0
3, 33720, Note_on_c, 0, 65, 40
3, 33810, Note_on_c, 0, 65, 0
3, 33810, Note_on_c, 0, 67, 40
3, 33840, Note_on_c, 0, 67, 0
3, 33840, Note_on_c, 0, 64, 36
3, 33960, Note_on_c, 0, 70, 45
3, 34050, Note_on_c, 0, 70, 0
3, 34050, Note_on_c, 0, 72, 42
3, 34080, Note_on_c, 0, 72, 0
3, 34080, Note_on_c, 0, 69, 42
3, 34170, Note_on_c, 0, 69, 0
3, 34170, Note_on_c, 0, 70, 39
3, 34200, Note_on_c, 0, 70, 0
3, 34200, Note_on_c, 0, 67, 38
3, 34230, Note_on_c, 0, 67, 0
3, 34230, Note_on_c, 0, 64, 0
3, 34320, Note_on_c, 0, 67, 42
3, 34320, Note_on_c, 0, 70, 42
3, 34410, Note_on_c, 0, 70, 0
3, 34410, Note_on_c, 0, 67, 0
3, 34440, Note_on_c, 0, 65, 40
3, 34440, Note_on_c, 0, 69, 40
3, 34530, Note_on_c, 0, 69, 0
3, 34530, Note_on_c, 0, 65, 0
3, 34560, Note_on_c, 0, 64, 37
3, 34560, Note_on_c, 0, 67, 37
3, 34650, Note_on_c, 0, 67, 0
3, 34650, Note_on_c, 0, 64, 0
3, 34680, Note_on_c, 0, 55, 46
3, 34770, Note_on_c, 0, 55, 0
3, 34770, Note_on_c, 0, 57, 44
3, 34800, Note_on_c, 0, 57, 0
3, 34800, Note_on_c, 0, 53, 43
3, 34890, Note_on_c, 0, 53, 0
3, 34890, Note_on_c, 0, 55, 41
3, 34920, Note_on_c, 0, 55, 0
3, 34920, Note_on_c, 0, 52, 40
3, 35010, Note_on_c, 0, 52, 0
3, 35010, Note_on_c, 0, 53, 38
3, 35040, Note_on_c, 0, 53, 0
3, 35040, Note_on_c, 0, 50, 37
3, 35070, Note_on_c, 0, 50, 0
3, 35160, Note_on_c, 0, 52, 36
3, 35160, Note_on_c, 0, 55, 36
3, 35190, Note_on_c, 0, 55, 0
3, 35190, Note_on_c, 0, 52, 0
3, 35280, Note_on_c, 0, 53, 36
3, 35280, Note_on_c, 0, 57, 36
3, 35520, Note_on_c, 0, 53, 0
3, 35520, Note_on_c, 0, 54, 39
3, 35640, Note_on_c, 0, 54, 0
3, 35640, Note_on_c, 0, 57, 0
3, 35640, Note_on_c, 0, 55, 36
3, 35760, Note_on_c, 0, 55, 0
3, 36120, Note_on_c, 0, 64, 35
3, 36120, Note_on_c, 0, 60, 35
3, 36240, Note_on_c, 0, 60, 0
3, 36240, Note_on_c, 0, 64, 0
3, 36240, Note_on_c, 0, 55, 34
3, 36240, Note_on_c, 0, 65, 34
3, 36300, Note_on_c, 0, 65, 0
3, 36300, Note_on_c, 0, 55, 0
3, 36360, Note_on_c, 0, 64, 32
3, 36360, Note_on_c, 0, 60, 32
3, 36480, Note_on_c, 0, 60, 0
3, 36480, Note_on_c, 0, 64, 0
3, 36720, Note_on_c, 0, 59, 35
3, 36720, Note_on_c, 0, 67, 35
3, 36960, Note_on_c, 0, 59, 0
3, 36960, Note_on_c, 0, 60, 33
3, 37080, Note_on_c, 0, 60, 0
3, 37080, Note_on_c, 0, 55, 32
3, 37200, Note_on_c, 0, 55, 0
3, 37200, Note_on_c, 0, 67, 0
3, 37560, Note_on_c, 0, 67, 34
3, 37560, Note_on_c, 0, 60, 34
3, 37680, Note_on_c, 0, 60, 0
3, 37680, Note_on_c, 0, 67, 0
3, 37680, Note_on_c, 0, 65, 33
3, 37680, Note_on_c, 0, 67, 33
3, 37740, Note_on_c, 0, 67, 0
3, 37740, Note_on_c, 0, 65, 0
3, 37800, Note_on_c, 0, 64, 32
3, 37800, Note_on_c, 0, 67, 32
3, 37920, Note_on_c, 0, 67, 0
3, 37920, Note_on_c, 0, 64, 0
3, 38040, Note_on_c, 0, 52, 35
3, 38040, Note_on_c, 0, 60, 35
3, 38100, Note_on_c, 0, 60, 0
3, 38100, Note_on_c, 0, 52, 0
3, 38160, Note_on_c, 0, 60, 34
3, 38160, Note_on_c, 0, 53, 34
3, 38280, Note_on_c, 0, 53, 0
3, 38280, Note_on_c, 0, 60, 0
3, 38400, Note_on_c, 0, 65, 32
3, 38400, Note_on_c, 0, 55, 32
3, 38460, Note_on_c, 0, 55, 0
3, 38460, Note_on_c, 0, 65, 0
3, 38520, Note_on_c, 0, 60, 32
3, 38520, Note_on_c, 0, 64, 32
3, 38640, Note_on_c, 0, 64, 0
3, 38640, Note_on_c, 0, 60, 0
3, 38880, Note_on_c, 0, 36, 40
3, 38940, Note_on_c, 0, 36, 0
3, 38940, Note_on_c, 0, 48, 40
3, 39000, Note_on_c, 0, 48, 0
3, 39000, Note_on_c, 0, 38, 41
3, 39060, Note_on_c, 0, 38, 0
3, 39060, Note_on_c, 0, 50, 41
3, 39120, Note_on_c, 0, 50, 0
3, 39120, Note_on_c, 0, 39, 42
3, 39180, Note_on_c, 0, 39, 0
3, 39180, Note_on_c, 0, 51, 42
3, 39240, Note_on_c, 0, 51, 0
3, 39240, Note_on_c, 0, 41, 43
3, 39300, Note_on_c, 0, 41, 0
3, 39300, Note_on_c, 0, 53, 43
3, 39360, Note_on_c, 0, 53, 0
3, 39360, Note_on_c, 0, 43, 44
3, 39420, Note_on_c, 0, 43, 0
3, 39420, Note_on_c, 0, 55, 44
3, 39480, Note_on_c, 0, 55, 0
3, 39480, Note_on_c, 0, 44, 45
3, 39540, Note_on_c, 0, 44, 0
3, 39540, Note_on_c, 0, 56, 45
3, 39600, Note_on_c, 0, 56, 0
3, 39600, Note_on_c, 0, 43, 46
3, 39660, Note_on_c, 0, 43, 0
3, 39660, Note_on_c, 0, 55, 46
3, 39720, Note_on_c, 0, 55, 0
3, 39720, Note_on_c, 0, 45, 47
3, 39780, Note_on_c, 0, 45, 0
3, 39780, Note_on_c, 0, 57, 47
3, 39840, Note_on_c, 0, 57, 0
3, 39840, Note_on_c, 0, 47, 48
3, 39900, Note_on_c, 0, 47, 0
3, 39900, Note_on_c, 0, 59, 48
3, 39960, Note_on_c, 0, 59, 0
3, 39960, Note_on_c, 0, 48, 49
3, 40020, Note_on_c, 0, 48, 0
3, 40020, Note_on_c, 0, 60, 49
3, 40080, Note_on_c, 0, 60, 0
3, 40080, Note_on_c, 0, 51, 50
3, 40140, Note_on_c, 0, 51, 0
3, 40140, Note_on_c, 0, 63, 50
3, 40200, Note_on_c, 0, 63, 0
3, 40200, Note_on_c, 0, 55, 51
3, 40260, Note_on_c, 0, 55, 0
3, 40260, Note_on_c, 0, 67, 51
3, 40320, Note_on_c, 0, 67, 0
3, 40320, Note_on_c, 0, 56, 39
3, 40320, Note_on_c, 0, 68, 39
3, 40680, Note_on_c, 0, 68, 0
3, 40680, Note_on_c, 0, 56, 0
3, 40680, Note_on_c, 0, 65, 39
3, 40680, Note_on_c, 0, 58, 39
3, 40680, Note_on_c, 0, 56, 39
3, 40920, Note_on_c, 0, 56, 0
3, 40920, Note_on_c, 0, 58, 0
3, 40920, Note_on_c, 0, 65, 0
3, 40920, Note_on_c, 0, 55, 39
3, 40920, Note_on_c, 0, 63, 39
3, 40980, Note_on_c, 0, 63, 0
3, 40980, Note_on_c, 0, 55, 0
3, 41040, Note_on_c, 0, 56, 45
3, 41100, Note_on_c, 0, 56, 0
3, 41160, Note_on_c, 0, 58, 44
3, 41220, Note_on_c, 0, 58, 0
3, 41280, Note_on_c, 0, 46, 43
3, 41340, Note_on_c, 0, 46, 0
3, 41400, Note_on_c, 0, 51, 43
3, 41460, Note_on_c, 0, 51, 0
3, 41520, Note_on_c, 0, 55, 45
3, 41580, Note_on_c, 0, 55, 0
3, 41580, Note_on_c, 0, 53, 47
3, 41640, Note_on_c, 0, 53, 0
3, 41640, Note_on_c, 0, 51, 44
3, 41700, Note_on_c, 0, 51, 0
3, 41700, Note_on_c, 0, 50, 40
3, 41760, Note_on_c, 0, 50, 0
3, 41760, Note_on_c, 0, 36, 40
3, 41820, Note_on_c, 0, 36, 0
3, 41820, Note_on_c, 0, 48, 40
3, 41880, Note_on_c, 0, 48, 0
3, 41880, Note_on_c, 0, 38, 41
3, 41940, Note_on_c, 0, 38, 0
3, 41940, Note_on_c, 0, 50, 41
3, 42000, Note_on_c, 0, 50, 0
3, 42000, Note_on_c, 0, 39, 42
3, 42060, Note_on_c, 0, 39, 0
3, 42060, Note_on_c, 0, 51, 42
3, 42120, Note_on_c, 0, 51, 0
3, 42120, Note_on_c, 0, 41, 43
3, 42180, Note_on_c, 0, 41, 0
3, 42180, Note_on_c, 0, 53, 43
3, 42240, Note_on_c, 0, 53, 0
3, 42240, Note_on_c, 0, 43, 44
3, 42300, Note_on_c, 0, 43, 0
3, 42300, Note_on_c, 0, 55, 44
3, 42360, Note_on_c, 0, 55, 0
3, 42360, Note_on_c, 0, 44, 45
3, 42420, Note_on_c, 0, 44, 0
3, 42420, Note_on_c, 0, 56, 45
3, 42480, Note_on_c, 0, 56, 0
3, 42480, Note_on_c, 0, 43, 46
3, 42540, Note_on_c, 0, 43, 0
3, 42540, Note_on_c, 0, 55, 46
3, 42600, Note_on_c, 0, 55, 0
3, 42600, Note_on_c, 0, 45, 47
3, 42660, Note_on_c, 0, 45, 0
3, 42660, Note_on_c, 0, 57, 47
3, 42720, Note_on_c, 0, 57, 0
3, 42720, Note_on_c, 0, 47, 48
3, 42780, Note_on_c, 0, 47, 0
3, 42780, Note_on_c, 0, 59, 48
3, 42840, Note_on_c, 0, 59, 0
3, 42840, Note_on_c, 0, 48, 49
3, 42900, Note_on_c, 0, 48, 0
3, 42900, Note_on_c, 0, 60, 49
3, 42960, Note_on_c, 0, 60, 0
3, 42960, Note_on_c, 0, 51, 50
3, 43020, Note_on_c, 0, 51, 0
3, 43020, Note_on_c, 0, 63, 50
3, 43080, Note_on_c, 0, 63, 0
3, 43080, Note_on_c, 0, 55, 51
3, 43140, Note_on_c, 0, 55, 0
3, 43140, Note_on_c, 0, 67, 51
3, 43200, Note_on_c, 0, 67, 0
3, 43200, Note_on_c, 0, 56, 39
3, 43200, Note_on_c, 0, 68, 39
3, 43560, Note_on_c, 0, 68, 0
3, 43560, Note_on_c, 0, 56, 0
3, 43560, Note_on_c, 0, 65, 39
3, 43560, Note_on_c, 0, 58, 39
3, 43560, Note_on_c, 0, 56, 39
3, 43800, Note_on_c, 0, 56, 0
3, 43800, Note_on_c, 0, 58, 0
3, 43800, Note_on_c, 0, 65, 0
3, 43800, Note_on_c, 0, 55, 39
3, 43800, Note_on_c, 0, 63, 39
3, 43860, Note_on_c, 0, 63, 0
3, 43860, Note_on_c, 0, 55, 0
3, 43920, Note_on_c, 0, 56, 45
3, 43980, Note_on_c, 0, 56, 0
3, 44040, Note_on_c, 0, 58, 44
3, 44100, Note_on_c, 0, 58, 0
3, 44160, Note_on_c, 0, 46, 43
3, 44220, Note_on_c, 0, 46, 0
3, 44280, Note_on_c, 0, 51, 43
3, 44340, Note_on_c, 0, 51, 0
3, 44400, Note_on_c, 0, 46, 39
3, 44460, Note_on_c, 0, 46, 0
3, 44520, Note_on_c, 0, 39, 37
3, 44580, Note_on_c, 0, 39, 0
3, 44640, Note_on_c, 0, 63, 37
3, 44700, Note_on_c, 0, 63, 0
3, 44700, Note_on_c, 0, 62, 37
3, 44760, Note_on_c, 0, 62, 0
3, 44760, Note_on_c, 0, 63, 37
3, 44820, Note_on_c, 0, 63, 0
3, 44820, Note_on_c, 0, 60, 37
3, 44880, Note_on_c, 0, 60, 0
3, 44880, Note_on_c, 0, 62, 39
3, 44940, Note_on_c, 0, 62, 0
3, 44940, Note_on_c, 0, 63, 41
3, 45000, Note_on_c, 0, 63, 0
3, 45000, Note_on_c, 0, 65, 44
3, 45060, Note_on_c, 0, 65, 0
3, 45060, Note_on_c, 0, 64, 43
3, 45120, Note_on_c, 0, 64, 0
3, 45120, Note_on_c, 0, 65, 41
3, 45180, Note_on_c, 0, 65, 0
3, 45180, Note_on_c, 0, 62, 40
3, 45240, Note_on_c, 0, 62, 0
3, 45240, Note_on_c, 0, 63, 38
3, 45300, Note_on_c, 0, 63, 0
3, 45300, Note_on_c, 0, 65, 37
3, 45360, Note_on_c, 0, 65, 0
3, 45360, Note_on_c, 0, 63, 34
3, 45420, Note_on_c, 0, 63, 0
3, 45420, Note_on_c, 0, 62, 34
3, 45480, Note_on_c, 0, 62, 0
3, 45480, Note_on_c, 0, 63, 34
3, 45540, Note_on_c, 0, 63, 0
3, 45540, Note_on_c, 0, 60, 34
3, 45600, Note_on_c, 0, 60, 0
3, 45600, Note_on_c, 0, 62, 36
3, 45660, Note_on_c, 0, 62, 0
3, 45660, Note_on_c, 0, 63, 39
3, 45720, Note_on_c, 0, 63, 0
3, 45720, Note_on_c, 0, 65, 42
3, 45780, Note_on_c, 0, 65, 0
3, 45780, Note_on_c, 0, 64, 42
3, 45840, Note_on_c, 0, 64, 0
3, 45840, Note_on_c, 0, 65, 40
3, 45900, Note_on_c, 0, 65, 0
3, 45900, Note_on_c, 0, 62, 39
3, 45960, Note_on_c, 0, 62, 0
3, 45960, Note_on_c, 0, 63, 37
3, 46020, Note_on_c, 0, 63, 0
3, 46020, Note_on_c, 0, 65, 36
3, 46080, Note_on_c, 0, 65, 0
3, 46080, Note_on_c, 0, 63, 43
3, 46140, Note_on_c, 0, 63, 0
3, 46140, Note_on_c, 0, 62, 41
3, 46200, Note_on_c, 0, 62, 0
3, 46200, Note_on_c, 0, 63, 40
3, 46260, Note_on_c, 0, 63, 0
3, 46260, Note_on_c, 0, 60, 39
3, 46320, Note_on_c, 0, 60, 0
3, 46320, Note_on_c, 0, 62, 38
3, 46380, Note_on_c, 0, 62, 0
3, 46380, Note_on_c, 0, 63, 37
3, 46440, Note_on_c, 0, 63, 0
3, 46440, Note_on_c, 0, 59, 43
3, 46500, Note_on_c, 0, 59, 0
3, 46500, Note_on_c, 0, 60, 44
3, 46560, Note_on_c, 0, 60, 0
3, 46560, Note_on_c, 0, 62, 44
3, 46620, Note_on_c, 0, 62, 0
3, 46620, Note_on_c, 0, 59, 44
3, 46680, Note_on_c, 0, 59, 0
3, 46680, Note_on_c, 0, 60, 44
3, 46740, Note_on_c, 0, 60, 0
3, 46740, Note_on_c, 0, 57, 44
3, 46800, Note_on_c, 0, 57, 0
3, 46800, Note_on_c, 0, 55, 44
3, 47280, Note_on_c, 0, 55, 0
3, 47640, Note_on_c, 0, 67, 42
3, 47640, Note_on_c, 0, 60, 42
3, 47760, Note_on_c, 0, 60, 0
3, 47760, Note_on_c, 0, 67, 0
3, 47760, Note_on_c, 0, 65, 40
3, 47760, Note_on_c, 0, 67, 40
3, 47820, Note_on_c, 0, 67, 0
3, 47820, Note_on_c, 0, 65, 0
3, 47880, Note_on_c, 0, 67, 38
3, 47880, Note_on_c, 0, 64, 38
3, 48000, Note_on_c, 0, 64, 0
3, 48000, Note_on_c, 0, 67, 0
3, 48240, Note_on_c, 0, 59, 42
3, 48240, Note_on_c, 0, 67, 42
3, 48480, Note_on_c, 0, 59, 0
3, 48480, Note_on_c, 0, 60, 39
3, 48600, Note_on_c, 0, 60, 0
3, 48600, Note_on_c, 0, 55, 38
3, 48720, Note_on_c, 0, 55, 0
3, 48720, Note_on_c, 0, 67, 0
3, 49080, Note_on_c, 0, 67, 40
3, 49080, Note_on_c, 0, 60, 40
3, 49200, Note_on_c, 0, 60, 0
3, 49200, Note_on_c, 0, 67, 0
3, 49200, Note_on_c, 0, 65, 39
3, 49200, Note_on_c, 0, 67, 39
3, 49260, Note_on_c, 0, 67, 0
3, 49260, Note_on_c, 0, 65, 0
3, 49320, Note_on_c, 0, 64, 38
3, 49320, Note_on_c, 0, 67, 38
3, 49440, Note_on_c, 0, 67, 0
3, 49440, Note_on_c, 0, 64, 0
3, 49560, Note_on_c, 0, 52, 42
3, 49560, Note_on_c, 0, 60, 42
3, 49620, Note_on_c, 0, 60, 0
3, 49620, Note_on_c, 0, 52, 0
3, 49680, Note_on_c, 0, 60, 40
3, 49680, Note_on_c, 0, 53, 40
3, 49800, Note_on_c, 0, 53, 0
3, 49800, Note_on_c, 0, 60, 0
3, 49920, Note_on_c, 0, 65, 38
3, 49920, Note_on_c, 0, 55, 38
3, 49980, Note_on_c, 0, 55, 0
3, 49980, Note_on_c, 0, 65, 0
3, 50040, Note_on_c, 0, 60, 38
3, 50040, Note_on_c, 0, 64, 38
3, 50160, Note_on_c, 0, 64, 0
3, 50160, Note_on_c, 0, 60, 0
3, 50520, Note_on_c, 0, 67, 39
3, 50520, Note_on_c, 0, 59, 39
3, 50640, Note_on_c, 0, 59, 0
3, 50640, Note_on_c, 0, 67, 0
3, 50640, Note_on_c, 0, 60, 39
3, 50640, Note_on_c, 0, 67, 39
3, 50700, Note_on_c, 0, 67, 0
3, 50700, Note_on_c, 0, 60, 0
3, 50760, Note_on_c, 0, 55, 39
3, 50760, Note_on_c, 0, 67, 39
3, 50880, Note_on_c, 0, 67, 0
3, 50880, Note_on_c, 0, 55, 0
3, 51240, Note_on_c, 0, 64, 46
3, 51240, Note_on_c, 0, 67, 46
3, 51360, Note_on_c, 0, 67, 0
3, 51360, Note_on_c, 0, 64, 0
3, 51360, Note_on_c, 0, 62, 44
3, 51360, Note_on_c, 0, 66, 44
3, 51420, Note_on_c, 0, 66, 0
3, 51420, Note_on_c, 0, 62, 0
3, 51600, Note_on_c, 0, 64, 41
3, 51600, Note_on_c, 0, 60, 41
3, 51720, Note_on_c, 0, 60, 0
3, 51720, Note_on_c, 0, 64, 0
3, 51720, Note_on_c, 0, 62, 39
3, 51720, Note_on_c, 0, 59, 39
3, 51780, Note_on_c, 0, 59, 0
3, 51780, Note_on_c, 0, 62, 0
3, 51840, Note_on_c, 0, 57, 46
3, 51840, Note_on_c, 0, 60, 46
3, 52080, Note_on_c, 0, 60, 0
3, 52080, Note_on_c, 0, 57, 0
3, 52080, Note_on_c, 0, 50, 39
3, 52140, Note_on_c, 0, 50, 0
3, 52200, Note_on_c, 0, 55, 35
3, 52290, Note_on_c, 0, 55, 0
3, 52290, Note_on_c, 0, 59, 40
3, 52320, Note_on_c, 0, 59, 0
3, 52320, Note_on_c, 0, 62, 42
3, 52410, Note_on_c, 0, 62, 0
3, 52410, Note_on_c, 0, 67, 48
3, 52440, Note_on_c, 0, 67, 0
3, 52440, Note_on_c, 0, 71, 50
3, 52530, Note_on_c, 0, 71, 0
3, 52530, Note_on_c, 0, 67, 41
3, 52560, Note_on_c, 0, 67, 0
3, 52560, Note_on_c, 0, 69, 48
3, 52560, Note_on_c, 0, 72, 48
3, 52800, Note_on_c, 0, 72, 0
3, 52800, Note_on_c, 0, 69, 0
3, 52800, Note_on_c, 0, 62, 41
3, 52920, Note_on_c, 0, 62, 0
3, 52920, Note_on_c, 0, 55, 52
3, 53010, Note_on_c, 0, 55, 0
3, 53010, Note_on_c, 0, 59, 49
3, 53040, Note_on_c, 0, 59, 0
3, 53040, Note_on_c, 0, 50, 48
3, 53130, Note_on_c, 0, 50, 0
3, 53130, Note_on_c, 0, 55, 45
3, 53160, Note_on_c, 0, 55, 0
3, 53160, Note_on_c, 0, 47, 44
3, 53250, Note_on_c, 0, 47, 0
3, 53250, Note_on_c, 0, 50, 41
3, 53280, Note_on_c, 0, 50, 0
3, 53280, Note_on_c, 0, 43, 40
3, 53400, Note_on_c, 0, 43, 0
3, 53760, Note_on_c, 0, 67, 42
3, 53760, Note_on_c, 0, 60, 42
3, 53880, Note_on_c, 0, 60, 0
3, 53880, Note_on_c, 0, 67, 0
3, 53880, Note_on_c, 0, 65, 40
3, 53880, Note_on_c, 0, 67, 40
3, 53940, Note_on_c, 0, 67, 0
3, 53940, Note_on_c, 0, 65, 0
3, 54000, Note_on_c, 0, 67, 38
3, 54000, Note_on_c, 0, 64, 38
3, 54120, Note_on_c, 0, 64, 0
3, 54120, Note_on_c, 0, 67, 0
3, 54360, Note_on_c, 0, 59, 42
3, 54360, Note_on_c, 0, 67, 42
3, 54600, Note_on_c, 0, 59, 0
3, 54600, Note_on_c, 0, 60, 39
3, 54720, Note_on_c, 0, 60, 0
3, 54720, Note_on_c, 0, 55, 38
3, 54840, Note_on_c, 0, 55, 0
3, 54840, Note_on_c, 0, 67, 0
3, 55200, Note_on_c, 0, 67, 40
3, 55200, Note_on_c, 0, 60, 40
3, 55320, Note_on_c, 0, 60, 0
3, 55320, Note_on_c, 0, 67, 0
3, 55320, Note_on_c, 0, 65, 39
3, 55320, Note_on_c, 0, 67, 39
3, 55380, Note_on_c, 0, 67, 0
3, 55380, Note_on_c, 0, 65, 0
3, 55440, Note_on_c, 0, 64, 38
3, 55440, Note_on_c, 0, 67, 38
3, 55560, Note_on_c, 0, 67, 0
3, 55560, Note_on_c, 0, 64, 0
3, 55680, Note_on_c, 0, 52, 48
3, 55680, Note_on_c, 0, 55, 48
3, 55740, Note_on_c, 0, 55, 0
3, 55740, Note_on_c, 0, 52, 0
3, 55800, Note_on_c, 0, 57, 48
3, 55800, Note_on_c, 0, 53, 48
3, 55920, Note_on_c, 0, 53, 0
3, 55920, Note_on_c, 0, 57, 0
3, 56040, Note_on_c, 0, 65, 48
3, 56040, Note_on_c, 0, 55, 48
3, 56100, Note_on_c, 0, 55, 0
3, 56100, Note_on_c, 0, 65, 0
3, 56160, Note_on_c, 0, 60, 48
3, 56160, Note_on_c, 0, 64, 48
3, 56280, Note_on_c, 0, 64, 0
3, 56280, Note_on_c, 0, 60, 0
3, 56400, Note_on_c, 0, 52, 48
3, 56400, Note_on_c, 0, 55, 48
3, 56460, Note_on_c, 0, 55, 0
3, 56460, Note_on_c, 0, 52, 0
3, 56520, Note_on_c, 0, 57, 48
3, 56520, Note_on_c, 0, 53, 48
3, 56640, Note_on_c, 0, 53, 0
3, 56640, Note_on_c, 0, 57, 0
3, 56760, Note_on_c, 0, 65, 48
3, 56760, Note_on_c, 0, 55, 48
3, 56820, Note_on_c, 0, 55, 0
3, 56820, Note_on_c, 0, 65, 0
3, 56880, Note_on_c, 0, 60, 48
3, 56880, Note_on_c, 0, 64, 48
3, 56940, Note_on_c, 0, 64, 0
3, 56940, Note_on_c, 0, 60, 0
3, 57000, Note_on_c, 0, 48, 48
3, 57000, Note_on_c, 0, 60, 48
3, 57060, Note_on_c, 0, 60, 0
3, 57060, Note_on_c, 0, 48, 0
3, 57120, Note_on_c, 0, 48, 48
3, 57120, Note_on_c, 0, 60, 48
3, 57180, Note_on_c, 0, 60, 0
3, 57180, Note_on_c, 0, 48, 0
3, 57240, Note_on_c, 0, 48, 48
3, 57240, Note_on_c, 0, 60, 48
3, 57480, Note_on_c, 0, 60, 0
3, 57480, Note_on_c, 0, 48, 0
3, 57480, End_track
0, 0, End_of_file
