0, 0, Header, 1, 6, 96
1, 0, Start_track
1, 0, Copyright_t, "Copyright  2000 <copyright holder>"
1, 0, Text_t, "Sonata I\015\012"
1, 0, Text_t, "Haydn\015\012"
1, 0, Sequencer_specific, 16, 68, 87, 77, 90, 86, 82, 83, 78, 32, 55, 46, 48, 46, 56, 46, 48
1, 0, Time_signature, 4, 2, 24, 8
1, 0, Tempo, 800000
1, 0, Key_signature, 4, "major"
1, 23040, Tempo, 352941
1, 23424, Tempo, 800000
1, 43392, Tempo, 352941
1, 43776, Tempo, 800000
1, 59136, End_track
2, 0, Start_track
2, 0, Program_c, 0, 0
2, 0, Control_c, 0, 7, 127
2, 0, Control_c, 0, 10, 64
2, 0, Note_on_c, 0, 68, 80
2, 8, Note_on_c, 0, 71, 80
2, 16, Note_on_c, 0, 76, 80
2, 93, Note_on_c, 0, 76, 0
2, 93, Note_on_c, 0, 71, 0
2, 93, Note_on_c, 0, 68, 0
2, 96, Note_on_c, 0, 71, 75
2, 119, Note_on_c, 0, 71, 0
2, 120, Note_on_c, 0, 73, 75
2, 128, Note_on_c, 0, 73, 0
2, 128, Note_on_c, 0, 71, 75
2, 136, Note_on_c, 0, 71, 0
2, 136, Note_on_c, 0, 69, 75
2, 144, Note_on_c, 0, 69, 0
2, 144, Note_on_c, 0, 71, 75
2, 167, Note_on_c, 0, 71, 0
2, 168, Note_on_c, 0, 73, 75
2, 191, Note_on_c, 0, 73, 0
2, 192, Note_on_c, 0, 71, 75
2, 215, Note_on_c, 0, 71, 0
2, 216, Note_on_c, 0, 69, 75
2, 239, Note_on_c, 0, 69, 0
2, 240, Note_on_c, 0, 68, 75
2, 263, Note_on_c, 0, 68, 0
2, 264, Note_on_c, 0, 69, 75
2, 287, Note_on_c, 0, 69, 0
2, 288, Note_on_c, 0, 69, 75
2, 311, Note_on_c, 0, 69, 0
2, 312, Note_on_c, 0, 68, 75
2, 335, Note_on_c, 0, 68, 0
2, 336, Note_on_c, 0, 66, 75
2, 359, Note_on_c, 0, 66, 0
2, 360, Note_on_c, 0, 68, 75
2, 383, Note_on_c, 0, 68, 0
2, 384, Note_on_c, 0, 68, 75
2, 407, Note_on_c, 0, 68, 0
2, 408, Note_on_c, 0, 66, 75
2, 431, Note_on_c, 0, 66, 0
2, 432, Note_on_c, 0, 64, 75
2, 455, Note_on_c, 0, 64, 0
2, 456, Note_on_c, 0, 63, 75
2, 479, Note_on_c, 0, 63, 0
2, 480, Note_on_c, 0, 64, 75
2, 525, Note_on_c, 0, 64, 0
2, 528, Note_on_c, 0, 69, 75
2, 548, Note_on_c, 0, 69, 0
2, 576, Note_on_c, 0, 68, 75
2, 596, Note_on_c, 0, 68, 0
2, 672, Note_on_c, 0, 71, 75
2, 692, Note_on_c, 0, 71, 0
2, 768, Note_on_c, 0, 69, 80
2, 774, Note_on_c, 0, 75, 80
2, 780, Note_on_c, 0, 78, 80
2, 786, Note_on_c, 0, 81, 80
2, 861, Note_on_c, 0, 81, 0
2, 861, Note_on_c, 0, 78, 0
2, 861, Note_on_c, 0, 75, 0
2, 861, Note_on_c, 0, 69, 0
2, 864, Note_on_c, 0, 69, 75
2, 887, Note_on_c, 0, 69, 0
2, 888, Note_on_c, 0, 71, 75
2, 896, Note_on_c, 0, 71, 0
2, 896, Note_on_c, 0, 69, 75
2, 904, Note_on_c, 0, 69, 0
2, 904, Note_on_c, 0, 68, 75
2, 912, Note_on_c, 0, 68, 0
2, 912, Note_on_c, 0, 69, 75
2, 935, Note_on_c, 0, 69, 0
2, 936, Note_on_c, 0, 73, 75
2, 959, Note_on_c, 0, 73, 0
2, 960, Note_on_c, 0, 71, 75
2, 983, Note_on_c, 0, 71, 0
2, 984, Note_on_c, 0, 69, 75
2, 1007, Note_on_c, 0, 69, 0
2, 1008, Note_on_c, 0, 68, 75
2, 1031, Note_on_c, 0, 68, 0
2, 1032, Note_on_c, 0, 69, 75
2, 1055, Note_on_c, 0, 69, 0
2, 1056, Note_on_c, 0, 69, 75
2, 1079, Note_on_c, 0, 69, 0
2, 1080, Note_on_c, 0, 68, 75
2, 1103, Note_on_c, 0, 68, 0
2, 1104, Note_on_c, 0, 66, 75
2, 1127, Note_on_c, 0, 66, 0
2, 1128, Note_on_c, 0, 68, 75
2, 1151, Note_on_c, 0, 68, 0
2, 1152, Note_on_c, 0, 68, 75
2, 1175, Note_on_c, 0, 68, 0
2, 1176, Note_on_c, 0, 66, 75
2, 1199, Note_on_c, 0, 66, 0
2, 1200, Note_on_c, 0, 69, 75
2, 1223, Note_on_c, 0, 69, 0
2, 1224, Note_on_c, 0, 73, 75
2, 1247, Note_on_c, 0, 73, 0
2, 1248, Note_on_c, 0, 61, 75
2, 1293, Note_on_c, 0, 61, 0
2, 1296, Note_on_c, 0, 63, 75
2, 1296, Note_on_c, 0, 57, 75
2, 1316, Note_on_c, 0, 63, 0
2, 1316, Note_on_c, 0, 57, 0
2, 1344, Note_on_c, 0, 64, 75
2, 1344, Note_on_c, 0, 56, 75
2, 1383, Note_on_c, 0, 64, 0
2, 1383, Note_on_c, 0, 56, 0
2, 1536, Note_on_c, 0, 68, 80
2, 1544, Note_on_c, 0, 71, 80
2, 1552, Note_on_c, 0, 76, 80
2, 1604, Note_on_c, 0, 76, 0
2, 1604, Note_on_c, 0, 71, 0
2, 1604, Note_on_c, 0, 68, 0
2, 1728, Note_on_c, 0, 68, 75
2, 1751, Note_on_c, 0, 68, 0
2, 1752, Note_on_c, 0, 69, 75
2, 1775, Note_on_c, 0, 69, 0
2, 1776, Note_on_c, 0, 71, 75
2, 1799, Note_on_c, 0, 71, 0
2, 1800, Note_on_c, 0, 69, 75
2, 1823, Note_on_c, 0, 69, 0
2, 1824, Note_on_c, 0, 66, 75
2, 1847, Note_on_c, 0, 66, 0
2, 1848, Note_on_c, 0, 68, 75
2, 1871, Note_on_c, 0, 68, 0
2, 1872, Note_on_c, 0, 69, 75
2, 1895, Note_on_c, 0, 69, 0
2, 1896, Note_on_c, 0, 68, 75
2, 1919, Note_on_c, 0, 68, 0
2, 3072, Note_on_c, 0, 73, 64
2, 3078, Note_on_c, 0, 73, 0
2, 3078, Note_on_c, 0, 71, 64
2, 3084, Note_on_c, 0, 71, 0
2, 3084, Note_on_c, 0, 69, 64
2, 3090, Note_on_c, 0, 69, 0
2, 3090, Note_on_c, 0, 71, 64
2, 3161, Note_on_c, 0, 71, 0
2, 3168, Note_on_c, 0, 70, 64
2, 3191, Note_on_c, 0, 70, 0
2, 3192, Note_on_c, 0, 71, 64
2, 3215, Note_on_c, 0, 71, 0
2, 3216, Note_on_c, 0, 73, 64
2, 3239, Note_on_c, 0, 73, 0
2, 3240, Note_on_c, 0, 71, 64
2, 3263, Note_on_c, 0, 71, 0
2, 3264, Note_on_c, 0, 71, 65
2, 3397, Note_on_c, 0, 71, 0
2, 3408, Note_on_c, 0, 72, 67
2, 3453, Note_on_c, 0, 72, 0
2, 3456, Note_on_c, 0, 75, 67
2, 3462, Note_on_c, 0, 75, 0
2, 3462, Note_on_c, 0, 73, 67
2, 3468, Note_on_c, 0, 73, 0
2, 3468, Note_on_c, 0, 71, 67
2, 3474, Note_on_c, 0, 71, 0
2, 3474, Note_on_c, 0, 73, 67
2, 3545, Note_on_c, 0, 73, 0
2, 3552, Note_on_c, 0, 72, 68
2, 3575, Note_on_c, 0, 72, 0
2, 3576, Note_on_c, 0, 73, 69
2, 3599, Note_on_c, 0, 73, 0
2, 3600, Note_on_c, 0, 75, 69
2, 3623, Note_on_c, 0, 75, 0
2, 3624, Note_on_c, 0, 73, 69
2, 3647, Note_on_c, 0, 73, 0
2, 3648, Note_on_c, 0, 73, 70
2, 3781, Note_on_c, 0, 73, 0
2, 3792, Note_on_c, 0, 74, 71
2, 3837, Note_on_c, 0, 74, 0
2, 3840, Note_on_c, 0, 76, 72
2, 3846, Note_on_c, 0, 76, 0
2, 3846, Note_on_c, 0, 75, 72
2, 3852, Note_on_c, 0, 75, 0
2, 3852, Note_on_c, 0, 73, 72
2, 3858, Note_on_c, 0, 73, 0
2, 3858, Note_on_c, 0, 75, 72
2, 3929, Note_on_c, 0, 75, 0
2, 3936, Note_on_c, 0, 74, 73
2, 3959, Note_on_c, 0, 74, 0
2, 3960, Note_on_c, 0, 75, 73
2, 3983, Note_on_c, 0, 75, 0
2, 3984, Note_on_c, 0, 76, 74
2, 4007, Note_on_c, 0, 76, 0
2, 4008, Note_on_c, 0, 75, 74
2, 4031, Note_on_c, 0, 75, 0
2, 4032, Note_on_c, 0, 75, 74
2, 4195, Note_on_c, 0, 75, 0
2, 4200, Note_on_c, 0, 78, 76
2, 4210, Note_on_c, 0, 78, 0
2, 4224, Note_on_c, 0, 78, 77
2, 4248, Note_on_c, 0, 78, 0
2, 4248, Note_on_c, 0, 76, 77
2, 4271, Note_on_c, 0, 76, 0
2, 4272, Note_on_c, 0, 76, 77
2, 4296, Note_on_c, 0, 76, 0
2, 4296, Note_on_c, 0, 75, 78
2, 4319, Note_on_c, 0, 75, 0
2, 4320, Note_on_c, 0, 75, 78
2, 4344, Note_on_c, 0, 75, 0
2, 4344, Note_on_c, 0, 73, 78
2, 4367, Note_on_c, 0, 73, 0
2, 4368, Note_on_c, 0, 73, 79
2, 4392, Note_on_c, 0, 73, 0
2, 4392, Note_on_c, 0, 75, 79
2, 4415, Note_on_c, 0, 75, 0
2, 4416, Note_on_c, 0, 78, 79
2, 4440, Note_on_c, 0, 78, 0
2, 4440, Note_on_c, 0, 76, 80
2, 4463, Note_on_c, 0, 76, 0
2, 4464, Note_on_c, 0, 76, 80
2, 4488, Note_on_c, 0, 76, 0
2, 4488, Note_on_c, 0, 75, 80
2, 4511, Note_on_c, 0, 75, 0
2, 4512, Note_on_c, 0, 75, 80
2, 4536, Note_on_c, 0, 75, 0
2, 4536, Note_on_c, 0, 73, 80
2, 4559, Note_on_c, 0, 73, 0
2, 4560, Note_on_c, 0, 73, 80
2, 4584, Note_on_c, 0, 73, 0
2, 4584, Note_on_c, 0, 75, 80
2, 4607, Note_on_c, 0, 75, 0
2, 4608, Note_on_c, 0, 78, 80
2, 4632, Note_on_c, 0, 78, 0
2, 4632, Note_on_c, 0, 76, 80
2, 4655, Note_on_c, 0, 76, 0
2, 4656, Note_on_c, 0, 76, 80
2, 4680, Note_on_c, 0, 76, 0
2, 4680, Note_on_c, 0, 75, 80
2, 4703, Note_on_c, 0, 75, 0
2, 4704, Note_on_c, 0, 75, 80
2, 4728, Note_on_c, 0, 75, 0
2, 4728, Note_on_c, 0, 73, 80
2, 4751, Note_on_c, 0, 73, 0
2, 4752, Note_on_c, 0, 73, 80
2, 4762, Note_on_c, 0, 73, 0
2, 4776, Note_on_c, 0, 80, 80
2, 4786, Note_on_c, 0, 80, 0
2, 4800, Note_on_c, 0, 75, 80
2, 4824, Note_on_c, 0, 75, 0
2, 4824, Note_on_c, 0, 73, 80
2, 4847, Note_on_c, 0, 73, 0
2, 4848, Note_on_c, 0, 73, 80
2, 4858, Note_on_c, 0, 73, 0
2, 4872, Note_on_c, 0, 80, 80
2, 4882, Note_on_c, 0, 80, 0
2, 4896, Note_on_c, 0, 75, 80
2, 4920, Note_on_c, 0, 75, 0
2, 4920, Note_on_c, 0, 73, 80
2, 4943, Note_on_c, 0, 73, 0
2, 4944, Note_on_c, 0, 73, 80
2, 4954, Note_on_c, 0, 73, 0
2, 4968, Note_on_c, 0, 80, 80
2, 4978, Note_on_c, 0, 80, 0
2, 4992, Note_on_c, 0, 73, 80
2, 5111, Note_on_c, 0, 73, 0
2, 5112, Note_on_c, 0, 75, 80
2, 5135, Note_on_c, 0, 75, 0
2, 5136, Note_on_c, 0, 76, 80
2, 5159, Note_on_c, 0, 76, 0
2, 5160, Note_on_c, 0, 75, 80
2, 5183, Note_on_c, 0, 75, 0
2, 5184, Note_on_c, 0, 78, 80
2, 5207, Note_on_c, 0, 78, 0
2, 5208, Note_on_c, 0, 76, 80
2, 5231, Note_on_c, 0, 76, 0
2, 5232, Note_on_c, 0, 75, 80
2, 5255, Note_on_c, 0, 75, 0
2, 5256, Note_on_c, 0, 73, 80
2, 5279, Note_on_c, 0, 73, 0
2, 5280, Note_on_c, 0, 71, 80
2, 5303, Note_on_c, 0, 71, 0
2, 5304, Note_on_c, 0, 70, 80
2, 5327, Note_on_c, 0, 70, 0
2, 5328, Control_c, 0, 64, 127
2, 5328, Note_on_c, 0, 76, 80
2, 5351, Note_on_c, 0, 76, 0
2, 5352, Note_on_c, 0, 73, 80
2, 5375, Note_on_c, 0, 73, 0
2, 5376, Note_on_c, 0, 70, 80
2, 5399, Note_on_c, 0, 70, 0
2, 5400, Note_on_c, 0, 67, 80
2, 5423, Note_on_c, 0, 67, 0
2, 5424, Note_on_c, 0, 76, 80
2, 5447, Note_on_c, 0, 76, 0
2, 5448, Note_on_c, 0, 73, 80
2, 5471, Note_on_c, 0, 73, 0
2, 5472, Note_on_c, 0, 70, 80
2, 5495, Note_on_c, 0, 70, 0
2, 5496, Note_on_c, 0, 67, 80
2, 5519, Note_on_c, 0, 67, 0
2, 5520, Note_on_c, 0, 76, 80
2, 5543, Note_on_c, 0, 76, 0
2, 5544, Note_on_c, 0, 73, 80
2, 5567, Note_on_c, 0, 73, 0
2, 5568, Note_on_c, 0, 70, 80
2, 5591, Note_on_c, 0, 70, 0
2, 5592, Note_on_c, 0, 67, 80
2, 5615, Note_on_c, 0, 67, 0
2, 5616, Note_on_c, 0, 76, 80
2, 5639, Note_on_c, 0, 76, 0
2, 5640, Note_on_c, 0, 73, 80
2, 5663, Note_on_c, 0, 73, 0
2, 5664, Note_on_c, 0, 70, 80
2, 5687, Note_on_c, 0, 70, 0
2, 5688, Note_on_c, 0, 67, 80
2, 5711, Note_on_c, 0, 67, 0
2, 5712, Note_on_c, 0, 76, 80
2, 5727, Note_on_c, 0, 76, 0
2, 5728, Note_on_c, 0, 73, 80
2, 5743, Note_on_c, 0, 73, 0
2, 5744, Note_on_c, 0, 70, 80
2, 5759, Note_on_c, 0, 70, 0
2, 5760, Control_c, 0, 64, 0
2, 5760, Note_on_c, 0, 66, 80
2, 5816, Note_on_c, 0, 66, 0
2, 5816, Note_on_c, 0, 70, 80
2, 5824, Note_on_c, 0, 70, 0
2, 5824, Note_on_c, 0, 73, 80
2, 5832, Note_on_c, 0, 73, 0
2, 5832, Note_on_c, 0, 76, 80
2, 5840, Note_on_c, 0, 76, 0
2, 5840, Note_on_c, 0, 73, 80
2, 5848, Note_on_c, 0, 73, 0
2, 5848, Note_on_c, 0, 70, 80
2, 5856, Note_on_c, 0, 70, 0
2, 5856, Control_c, 0, 64, 0
2, 5856, Note_on_c, 0, 66, 80
2, 5901, Note_on_c, 0, 66, 0
2, 5904, Note_on_c, 0, 82, 80
2, 5904, Note_on_c, 0, 73, 80
2, 5924, Note_on_c, 0, 82, 0
2, 5924, Note_on_c, 0, 73, 0
2, 5952, Note_on_c, 0, 82, 96
2, 5952, Note_on_c, 0, 73, 96
2, 6048, Note_on_c, 0, 82, 0
2, 6048, Note_on_c, 0, 73, 0
2, 6048, Note_on_c, 0, 83, 80
2, 6048, Note_on_c, 0, 71, 80
2, 6068, Note_on_c, 0, 83, 0
2, 6068, Note_on_c, 0, 71, 0
2, 6096, Note_on_c, 0, 75, 64
2, 6119, Note_on_c, 0, 75, 0
2, 6120, Note_on_c, 0, 81, 64
2, 6143, Note_on_c, 0, 81, 0
2, 6144, Note_on_c, 0, 76, 64
2, 6167, Note_on_c, 0, 76, 0
2, 6192, Note_on_c, 0, 72, 64
2, 6215, Note_on_c, 0, 72, 0
2, 6240, Note_on_c, 0, 73, 64
2, 6263, Note_on_c, 0, 73, 0
2, 6288, Note_on_c, 0, 63, 64
2, 6311, Note_on_c, 0, 63, 0
2, 6336, Note_on_c, 0, 64, 64
2, 6359, Note_on_c, 0, 64, 0
2, 6384, Note_on_c, 0, 68, 64
2, 6407, Note_on_c, 0, 68, 0
2, 6432, Note_on_c, 0, 66, 64
2, 6455, Note_on_c, 0, 66, 0
2, 6480, Note_on_c, 0, 64, 64
2, 6503, Note_on_c, 0, 64, 0
2, 6528, Note_on_c, 0, 66, 80
2, 6584, Note_on_c, 0, 66, 0
2, 6584, Note_on_c, 0, 70, 80
2, 6592, Note_on_c, 0, 70, 0
2, 6592, Note_on_c, 0, 73, 80
2, 6600, Note_on_c, 0, 73, 0
2, 6600, Note_on_c, 0, 76, 80
2, 6608, Note_on_c, 0, 76, 0
2, 6608, Note_on_c, 0, 73, 80
2, 6616, Note_on_c, 0, 73, 0
2, 6616, Note_on_c, 0, 70, 80
2, 6624, Note_on_c, 0, 70, 0
2, 6624, Note_on_c, 0, 66, 80
2, 6669, Note_on_c, 0, 66, 0
2, 6672, Note_on_c, 0, 82, 80
2, 6672, Note_on_c, 0, 73, 80
2, 6692, Note_on_c, 0, 82, 0
2, 6692, Note_on_c, 0, 73, 0
2, 6720, Note_on_c, 0, 82, 96
2, 6720, Note_on_c, 0, 73, 96
2, 6816, Note_on_c, 0, 82, 0
2, 6816, Note_on_c, 0, 73, 0
2, 6816, Note_on_c, 0, 83, 80
2, 6816, Note_on_c, 0, 71, 80
2, 6836, Note_on_c, 0, 83, 0
2, 6836, Note_on_c, 0, 71, 0
2, 6864, Note_on_c, 0, 63, 86
2, 6866, Note_on_c, 0, 66, 86
2, 6868, Note_on_c, 0, 71, 86
2, 6870, Note_on_c, 0, 78, 86
2, 6872, Note_on_c, 0, 81, 86
2, 6884, Note_on_c, 0, 81, 0
2, 6884, Note_on_c, 0, 78, 0
2, 6884, Note_on_c, 0, 71, 0
2, 6884, Note_on_c, 0, 66, 0
2, 6884, Note_on_c, 0, 63, 0
2, 6912, Note_on_c, 0, 64, 80
2, 6914, Note_on_c, 0, 68, 80
2, 6916, Note_on_c, 0, 71, 80
2, 6918, Note_on_c, 0, 76, 80
2, 6920, Note_on_c, 0, 80, 80
2, 6932, Note_on_c, 0, 80, 0
2, 6932, Note_on_c, 0, 76, 0
2, 6932, Note_on_c, 0, 71, 0
2, 6932, Note_on_c, 0, 68, 0
2, 6932, Note_on_c, 0, 64, 0
2, 6960, Note_on_c, 0, 66, 75
2, 6962, Note_on_c, 0, 69, 75
2, 6964, Note_on_c, 0, 71, 75
2, 6966, Note_on_c, 0, 75, 75
2, 6968, Note_on_c, 0, 78, 75
2, 6980, Note_on_c, 0, 78, 0
2, 6980, Note_on_c, 0, 75, 0
2, 6980, Note_on_c, 0, 71, 0
2, 6980, Note_on_c, 0, 69, 0
2, 6980, Note_on_c, 0, 66, 0
2, 7008, Note_on_c, 0, 75, 75
2, 7020, Note_on_c, 0, 75, 0
2, 7020, Note_on_c, 0, 76, 75
2, 7053, Note_on_c, 0, 76, 0
2, 7056, Note_on_c, 0, 80, 75
2, 7071, Note_on_c, 0, 80, 0
2, 7072, Note_on_c, 0, 76, 75
2, 7087, Note_on_c, 0, 76, 0
2, 7088, Note_on_c, 0, 73, 75
2, 7103, Note_on_c, 0, 73, 0
2, 7104, Note_on_c, 0, 75, 91
2, 7104, Note_on_c, 0, 71, 91
2, 7200, Note_on_c, 0, 71, 0
2, 7200, Note_on_c, 0, 78, 75
2, 7245, Note_on_c, 0, 78, 0
2, 7245, Note_on_c, 0, 75, 0
2, 7248, Note_on_c, 0, 70, 75
2, 7248, Note_on_c, 0, 64, 75
2, 7293, Note_on_c, 0, 70, 0
2, 7293, Note_on_c, 0, 64, 0
2, 7296, Note_on_c, 0, 71, 75
2, 7296, Note_on_c, 0, 63, 75
2, 7385, Note_on_c, 0, 71, 0
2, 7385, Note_on_c, 0, 63, 0
2, 7392, Note_on_c, 0, 59, 64
2, 7416, Note_on_c, 0, 59, 0
2, 7416, Note_on_c, 0, 58, 64
2, 7439, Note_on_c, 0, 58, 0
2, 7440, Note_on_c, 0, 59, 64
2, 7464, Note_on_c, 0, 59, 0
2, 7464, Note_on_c, 0, 63, 64
2, 7487, Note_on_c, 0, 63, 0
2, 7488, Note_on_c, 0, 63, 64
2, 7512, Note_on_c, 0, 63, 0
2, 7512, Note_on_c, 0, 56, 64
2, 7535, Note_on_c, 0, 56, 0
2, 7536, Note_on_c, 0, 56, 64
2, 7560, Note_on_c, 0, 56, 0
2, 7560, Note_on_c, 0, 64, 64
2, 7583, Note_on_c, 0, 64, 0
2, 7584, Note_on_c, 0, 64, 64
2, 7608, Note_on_c, 0, 64, 0
2, 7608, Note_on_c, 0, 58, 64
2, 7631, Note_on_c, 0, 58, 0
2, 7632, Note_on_c, 0, 58, 64
2, 7656, Note_on_c, 0, 58, 0
2, 7656, Note_on_c, 0, 66, 64
2, 7679, Note_on_c, 0, 66, 0
2, 7680, Note_on_c, 0, 64, 64
2, 7704, Note_on_c, 0, 64, 0
2, 7704, Note_on_c, 0, 63, 64
2, 7727, Note_on_c, 0, 63, 0
2, 7728, Note_on_c, 0, 71, 64
2, 7752, Note_on_c, 0, 71, 0
2, 7752, Note_on_c, 0, 70, 64
2, 7775, Note_on_c, 0, 70, 0
2, 7776, Note_on_c, 0, 70, 64
2, 7800, Note_on_c, 0, 70, 0
2, 7800, Note_on_c, 0, 68, 64
2, 7823, Note_on_c, 0, 68, 0
2, 7824, Note_on_c, 0, 68, 64
2, 7848, Note_on_c, 0, 68, 0
2, 7848, Note_on_c, 0, 66, 64
2, 7871, Note_on_c, 0, 66, 0
2, 7872, Note_on_c, 0, 66, 64
2, 7896, Note_on_c, 0, 66, 0
2, 7896, Note_on_c, 0, 64, 64
2, 7919, Note_on_c, 0, 64, 0
2, 7920, Note_on_c, 0, 64, 64
2, 7944, Note_on_c, 0, 64, 0
2, 7944, Note_on_c, 0, 63, 64
2, 7967, Note_on_c, 0, 63, 0
2, 7968, Note_on_c, 0, 63, 64
2, 7992, Note_on_c, 0, 63, 0
2, 7992, Note_on_c, 0, 61, 64
2, 8015, Note_on_c, 0, 61, 0
2, 8016, Note_on_c, 0, 61, 64
2, 8040, Note_on_c, 0, 61, 0
2, 8040, Note_on_c, 0, 59, 64
2, 8063, Note_on_c, 0, 59, 0
2, 8064, Note_on_c, 0, 59, 64
2, 8197, Note_on_c, 0, 59, 0
2, 8208, Note_on_c, 0, 63, 64
2, 8214, Note_on_c, 0, 63, 0
2, 8214, Note_on_c, 0, 61, 64
2, 8231, Note_on_c, 0, 61, 0
2, 8232, Note_on_c, 0, 59, 64
2, 8255, Note_on_c, 0, 59, 0
2, 8256, Note_on_c, 0, 59, 64
2, 8323, Note_on_c, 0, 59, 0
2, 8328, Note_on_c, 0, 64, 64
2, 8340, Note_on_c, 0, 64, 0
2, 8340, Note_on_c, 0, 68, 64
2, 8352, Note_on_c, 0, 68, 0
2, 8352, Note_on_c, 0, 71, 75
2, 8372, Note_on_c, 0, 71, 0
2, 8400, Note_on_c, 0, 71, 75
2, 8420, Note_on_c, 0, 71, 0
2, 8448, Note_on_c, 0, 71, 75
2, 8487, Note_on_c, 0, 71, 0
2, 8592, Note_on_c, 0, 68, 64
2, 8604, Note_on_c, 0, 68, 0
2, 8604, Note_on_c, 0, 64, 64
2, 8638, Note_on_c, 0, 64, 0
2, 8640, Note_on_c, 0, 66, 64
2, 8652, Note_on_c, 0, 66, 0
2, 8652, Note_on_c, 0, 63, 64
2, 8686, Note_on_c, 0, 63, 0
2, 8688, Note_on_c, 0, 64, 64
2, 8700, Note_on_c, 0, 64, 0
2, 8700, Note_on_c, 0, 61, 64
2, 8734, Note_on_c, 0, 61, 0
2, 8736, Note_on_c, 0, 63, 64
2, 8748, Note_on_c, 0, 63, 0
2, 8748, Note_on_c, 0, 59, 64
2, 8782, Note_on_c, 0, 59, 0
2, 8784, Note_on_c, 0, 58, 64
2, 8796, Note_on_c, 0, 58, 0
2, 8796, Note_on_c, 0, 52, 64
2, 8830, Note_on_c, 0, 52, 0
2, 9216, Note_on_c, 0, 68, 80
2, 9224, Note_on_c, 0, 71, 80
2, 9232, Note_on_c, 0, 76, 80
2, 9309, Note_on_c, 0, 76, 0
2, 9309, Note_on_c, 0, 71, 0
2, 9309, Note_on_c, 0, 68, 0
2, 9312, Note_on_c, 0, 71, 75
2, 9335, Note_on_c, 0, 71, 0
2, 9336, Note_on_c, 0, 73, 75
2, 9344, Note_on_c, 0, 73, 0
2, 9344, Note_on_c, 0, 71, 75
2, 9352, Note_on_c, 0, 71, 0
2, 9352, Note_on_c, 0, 69, 75
2, 9360, Note_on_c, 0, 69, 0
2, 9360, Note_on_c, 0, 71, 75
2, 9383, Note_on_c, 0, 71, 0
2, 9384, Note_on_c, 0, 73, 75
2, 9407, Note_on_c, 0, 73, 0
2, 9408, Note_on_c, 0, 71, 75
2, 9431, Note_on_c, 0, 71, 0
2, 9432, Note_on_c, 0, 69, 75
2, 9455, Note_on_c, 0, 69, 0
2, 9456, Note_on_c, 0, 68, 75
2, 9479, Note_on_c, 0, 68, 0
2, 9480, Note_on_c, 0, 69, 75
2, 9503, Note_on_c, 0, 69, 0
2, 9504, Note_on_c, 0, 69, 75
2, 9527, Note_on_c, 0, 69, 0
2, 9528, Note_on_c, 0, 68, 75
2, 9551, Note_on_c, 0, 68, 0
2, 9552, Note_on_c, 0, 66, 75
2, 9575, Note_on_c, 0, 66, 0
2, 9576, Note_on_c, 0, 68, 75
2, 9599, Note_on_c, 0, 68, 0
2, 9600, Note_on_c, 0, 68, 75
2, 9623, Note_on_c, 0, 68, 0
2, 9624, Note_on_c, 0, 66, 75
2, 9647, Note_on_c, 0, 66, 0
2, 9648, Note_on_c, 0, 64, 75
2, 9671, Note_on_c, 0, 64, 0
2, 9672, Note_on_c, 0, 63, 75
2, 9695, Note_on_c, 0, 63, 0
2, 9696, Note_on_c, 0, 64, 75
2, 9741, Note_on_c, 0, 64, 0
2, 9744, Note_on_c, 0, 69, 75
2, 9764, Note_on_c, 0, 69, 0
2, 9792, Note_on_c, 0, 68, 75
2, 9812, Note_on_c, 0, 68, 0
2, 9888, Note_on_c, 0, 71, 75
2, 9908, Note_on_c, 0, 71, 0
2, 9984, Note_on_c, 0, 69, 80
2, 9990, Note_on_c, 0, 75, 80
2, 9996, Note_on_c, 0, 78, 80
2, 10002, Note_on_c, 0, 81, 80
2, 10077, Note_on_c, 0, 81, 0
2, 10077, Note_on_c, 0, 78, 0
2, 10077, Note_on_c, 0, 75, 0
2, 10077, Note_on_c, 0, 69, 0
2, 10080, Note_on_c, 0, 69, 75
2, 10103, Note_on_c, 0, 69, 0
2, 10104, Note_on_c, 0, 71, 75
2, 10112, Note_on_c, 0, 71, 0
2, 10112, Note_on_c, 0, 69, 75
2, 10120, Note_on_c, 0, 69, 0
2, 10120, Note_on_c, 0, 68, 75
2, 10128, Note_on_c, 0, 68, 0
2, 10128, Note_on_c, 0, 69, 75
2, 10151, Note_on_c, 0, 69, 0
2, 10152, Note_on_c, 0, 73, 75
2, 10175, Note_on_c, 0, 73, 0
2, 10176, Note_on_c, 0, 71, 75
2, 10199, Note_on_c, 0, 71, 0
2, 10200, Note_on_c, 0, 69, 75
2, 10223, Note_on_c, 0, 69, 0
2, 10224, Note_on_c, 0, 68, 75
2, 10247, Note_on_c, 0, 68, 0
2, 10248, Note_on_c, 0, 69, 75
2, 10271, Note_on_c, 0, 69, 0
2, 10272, Note_on_c, 0, 69, 75
2, 10295, Note_on_c, 0, 69, 0
2, 10296, Note_on_c, 0, 68, 75
2, 10319, Note_on_c, 0, 68, 0
2, 10320, Note_on_c, 0, 66, 75
2, 10343, Note_on_c, 0, 66, 0
2, 10344, Note_on_c, 0, 68, 75
2, 10367, Note_on_c, 0, 68, 0
2, 10368, Note_on_c, 0, 68, 75
2, 10391, Note_on_c, 0, 68, 0
2, 10392, Note_on_c, 0, 66, 75
2, 10415, Note_on_c, 0, 66, 0
2, 10416, Note_on_c, 0, 69, 75
2, 10439, Note_on_c, 0, 69, 0
2, 10440, Note_on_c, 0, 73, 75
2, 10463, Note_on_c, 0, 73, 0
2, 10464, Note_on_c, 0, 61, 75
2, 10509, Note_on_c, 0, 61, 0
2, 10512, Note_on_c, 0, 63, 75
2, 10512, Note_on_c, 0, 57, 75
2, 10532, Note_on_c, 0, 63, 0
2, 10532, Note_on_c, 0, 57, 0
2, 10560, Note_on_c, 0, 64, 75
2, 10560, Note_on_c, 0, 56, 75
2, 10599, Note_on_c, 0, 64, 0
2, 10599, Note_on_c, 0, 56, 0
2, 10752, Note_on_c, 0, 68, 80
2, 10760, Note_on_c, 0, 71, 80
2, 10768, Note_on_c, 0, 76, 80
2, 10820, Note_on_c, 0, 76, 0
2, 10820, Note_on_c, 0, 71, 0
2, 10820, Note_on_c, 0, 68, 0
2, 10944, Note_on_c, 0, 68, 75
2, 10967, Note_on_c, 0, 68, 0
2, 10968, Note_on_c, 0, 69, 75
2, 10991, Note_on_c, 0, 69, 0
2, 10992, Note_on_c, 0, 71, 75
2, 11015, Note_on_c, 0, 71, 0
2, 11016, Note_on_c, 0, 69, 75
2, 11039, Note_on_c, 0, 69, 0
2, 11040, Note_on_c, 0, 66, 75
2, 11063, Note_on_c, 0, 66, 0
2, 11064, Note_on_c, 0, 68, 75
2, 11087, Note_on_c, 0, 68, 0
2, 11088, Note_on_c, 0, 69, 75
2, 11111, Note_on_c, 0, 69, 0
2, 11112, Note_on_c, 0, 68, 75
2, 11135, Note_on_c, 0, 68, 0
2, 12288, Note_on_c, 0, 73, 64
2, 12294, Note_on_c, 0, 73, 0
2, 12294, Note_on_c, 0, 71, 64
2, 12300, Note_on_c, 0, 71, 0
2, 12300, Note_on_c, 0, 69, 64
2, 12306, Note_on_c, 0, 69, 0
2, 12306, Note_on_c, 0, 71, 64
2, 12377, Note_on_c, 0, 71, 0
2, 12384, Note_on_c, 0, 70, 64
2, 12407, Note_on_c, 0, 70, 0
2, 12408, Note_on_c, 0, 71, 64
2, 12431, Note_on_c, 0, 71, 0
2, 12432, Note_on_c, 0, 73, 64
2, 12455, Note_on_c, 0, 73, 0
2, 12456, Note_on_c, 0, 71, 64
2, 12479, Note_on_c, 0, 71, 0
2, 12480, Note_on_c, 0, 71, 65
2, 12613, Note_on_c, 0, 71, 0
2, 12624, Note_on_c, 0, 72, 67
2, 12669, Note_on_c, 0, 72, 0
2, 12672, Note_on_c, 0, 75, 67
2, 12678, Note_on_c, 0, 75, 0
2, 12678, Note_on_c, 0, 73, 67
2, 12684, Note_on_c, 0, 73, 0
2, 12684, Note_on_c, 0, 71, 67
2, 12690, Note_on_c, 0, 71, 0
2, 12690, Note_on_c, 0, 73, 67
2, 12761, Note_on_c, 0, 73, 0
2, 12768, Note_on_c, 0, 72, 68
2, 12791, Note_on_c, 0, 72, 0
2, 12792, Note_on_c, 0, 73, 69
2, 12815, Note_on_c, 0, 73, 0
2, 12816, Note_on_c, 0, 75, 69
2, 12839, Note_on_c, 0, 75, 0
2, 12840, Note_on_c, 0, 73, 69
2, 12863, Note_on_c, 0, 73, 0
2, 12864, Note_on_c, 0, 73, 70
2, 12997, Note_on_c, 0, 73, 0
2, 13008, Note_on_c, 0, 74, 71
2, 13053, Note_on_c, 0, 74, 0
2, 13056, Note_on_c, 0, 76, 72
2, 13062, Note_on_c, 0, 76, 0
2, 13062, Note_on_c, 0, 75, 72
2, 13068, Note_on_c, 0, 75, 0
2, 13068, Note_on_c, 0, 73, 72
2, 13074, Note_on_c, 0, 73, 0
2, 13074, Note_on_c, 0, 75, 72
2, 13145, Note_on_c, 0, 75, 0
2, 13152, Note_on_c, 0, 74, 73
2, 13175, Note_on_c, 0, 74, 0
2, 13176, Note_on_c, 0, 75, 73
2, 13199, Note_on_c, 0, 75, 0
2, 13200, Note_on_c, 0, 76, 74
2, 13223, Note_on_c, 0, 76, 0
2, 13224, Note_on_c, 0, 75, 74
2, 13247, Note_on_c, 0, 75, 0
2, 13248, Note_on_c, 0, 75, 74
2, 13411, Note_on_c, 0, 75, 0
2, 13416, Note_on_c, 0, 78, 76
2, 13426, Note_on_c, 0, 78, 0
2, 13440, Note_on_c, 0, 78, 77
2, 13464, Note_on_c, 0, 78, 0
2, 13464, Note_on_c, 0, 76, 77
2, 13487, Note_on_c, 0, 76, 0
2, 13488, Note_on_c, 0, 76, 77
2, 13512, Note_on_c, 0, 76, 0
2, 13512, Note_on_c, 0, 75, 78
2, 13535, Note_on_c, 0, 75, 0
2, 13536, Note_on_c, 0, 75, 78
2, 13560, Note_on_c, 0, 75, 0
2, 13560, Note_on_c, 0, 73, 78
2, 13583, Note_on_c, 0, 73, 0
2, 13584, Note_on_c, 0, 73, 79
2, 13608, Note_on_c, 0, 73, 0
2, 13608, Note_on_c, 0, 75, 79
2, 13631, Note_on_c, 0, 75, 0
2, 13632, Note_on_c, 0, 78, 79
2, 13656, Note_on_c, 0, 78, 0
2, 13656, Note_on_c, 0, 76, 80
2, 13679, Note_on_c, 0, 76, 0
2, 13680, Note_on_c, 0, 76, 80
2, 13704, Note_on_c, 0, 76, 0
2, 13704, Note_on_c, 0, 75, 80
2, 13727, Note_on_c, 0, 75, 0
2, 13728, Note_on_c, 0, 75, 80
2, 13752, Note_on_c, 0, 75, 0
2, 13752, Note_on_c, 0, 73, 80
2, 13775, Note_on_c, 0, 73, 0
2, 13776, Note_on_c, 0, 73, 80
2, 13800, Note_on_c, 0, 73, 0
2, 13800, Note_on_c, 0, 75, 80
2, 13823, Note_on_c, 0, 75, 0
2, 13824, Note_on_c, 0, 78, 80
2, 13848, Note_on_c, 0, 78, 0
2, 13848, Note_on_c, 0, 76, 80
2, 13871, Note_on_c, 0, 76, 0
2, 13872, Note_on_c, 0, 76, 80
2, 13896, Note_on_c, 0, 76, 0
2, 13896, Note_on_c, 0, 75, 80
2, 13919, Note_on_c, 0, 75, 0
2, 13920, Note_on_c, 0, 75, 80
2, 13944, Note_on_c, 0, 75, 0
2, 13944, Note_on_c, 0, 73, 80
2, 13967, Note_on_c, 0, 73, 0
2, 13968, Note_on_c, 0, 73, 80
2, 13978, Note_on_c, 0, 73, 0
2, 13992, Note_on_c, 0, 80, 80
2, 14002, Note_on_c, 0, 80, 0
2, 14016, Note_on_c, 0, 75, 80
2, 14040, Note_on_c, 0, 75, 0
2, 14040, Note_on_c, 0, 73, 80
2, 14063, Note_on_c, 0, 73, 0
2, 14064, Note_on_c, 0, 73, 80
2, 14074, Note_on_c, 0, 73, 0
2, 14088, Note_on_c, 0, 80, 80
2, 14098, Note_on_c, 0, 80, 0
2, 14112, Note_on_c, 0, 75, 80
2, 14136, Note_on_c, 0, 75, 0
2, 14136, Note_on_c, 0, 73, 80
2, 14159, Note_on_c, 0, 73, 0
2, 14160, Note_on_c, 0, 73, 80
2, 14170, Note_on_c, 0, 73, 0
2, 14184, Note_on_c, 0, 80, 80
2, 14194, Note_on_c, 0, 80, 0
2, 14208, Note_on_c, 0, 73, 80
2, 14327, Note_on_c, 0, 73, 0
2, 14328, Note_on_c, 0, 75, 80
2, 14351, Note_on_c, 0, 75, 0
2, 14352, Note_on_c, 0, 76, 80
2, 14375, Note_on_c, 0, 76, 0
2, 14376, Note_on_c, 0, 75, 80
2, 14399, Note_on_c, 0, 75, 0
2, 14400, Note_on_c, 0, 78, 80
2, 14423, Note_on_c, 0, 78, 0
2, 14424, Note_on_c, 0, 76, 80
2, 14447, Note_on_c, 0, 76, 0
2, 14448, Note_on_c, 0, 75, 80
2, 14471, Note_on_c, 0, 75, 0
2, 14472, Note_on_c, 0, 73, 80
2, 14495, Note_on_c, 0, 73, 0
2, 14496, Note_on_c, 0, 71, 80
2, 14519, Note_on_c, 0, 71, 0
2, 14520, Note_on_c, 0, 70, 80
2, 14543, Note_on_c, 0, 70, 0
2, 14544, Control_c, 0, 64, 127
2, 14544, Note_on_c, 0, 76, 80
2, 14567, Note_on_c, 0, 76, 0
2, 14568, Note_on_c, 0, 73, 80
2, 14591, Note_on_c, 0, 73, 0
2, 14592, Note_on_c, 0, 70, 80
2, 14615, Note_on_c, 0, 70, 0
2, 14616, Note_on_c, 0, 67, 80
2, 14639, Note_on_c, 0, 67, 0
2, 14640, Note_on_c, 0, 76, 80
2, 14663, Note_on_c, 0, 76, 0
2, 14664, Note_on_c, 0, 73, 80
2, 14687, Note_on_c, 0, 73, 0
2, 14688, Note_on_c, 0, 70, 80
2, 14711, Note_on_c, 0, 70, 0
2, 14712, Note_on_c, 0, 67, 80
2, 14735, Note_on_c, 0, 67, 0
2, 14736, Note_on_c, 0, 76, 80
2, 14759, Note_on_c, 0, 76, 0
2, 14760, Note_on_c, 0, 73, 80
2, 14783, Note_on_c, 0, 73, 0
2, 14784, Note_on_c, 0, 70, 80
2, 14807, Note_on_c, 0, 70, 0
2, 14808, Note_on_c, 0, 67, 80
2, 14831, Note_on_c, 0, 67, 0
2, 14832, Note_on_c, 0, 76, 80
2, 14855, Note_on_c, 0, 76, 0
2, 14856, Note_on_c, 0, 73, 80
2, 14879, Note_on_c, 0, 73, 0
2, 14880, Note_on_c, 0, 70, 80
2, 14903, Note_on_c, 0, 70, 0
2, 14904, Note_on_c, 0, 67, 80
2, 14927, Note_on_c, 0, 67, 0
2, 14928, Note_on_c, 0, 76, 80
2, 14943, Note_on_c, 0, 76, 0
2, 14944, Note_on_c, 0, 73, 80
2, 14959, Note_on_c, 0, 73, 0
2, 14960, Note_on_c, 0, 70, 80
2, 14975, Note_on_c, 0, 70, 0
2, 14976, Control_c, 0, 64, 0
2, 14976, Note_on_c, 0, 66, 80
2, 15032, Note_on_c, 0, 66, 0
2, 15032, Note_on_c, 0, 70, 80
2, 15040, Note_on_c, 0, 70, 0
2, 15040, Note_on_c, 0, 73, 80
2, 15048, Note_on_c, 0, 73, 0
2, 15048, Note_on_c, 0, 76, 80
2, 15056, Note_on_c, 0, 76, 0
2, 15056, Note_on_c, 0, 73, 80
2, 15064, Note_on_c, 0, 73, 0
2, 15064, Note_on_c, 0, 70, 80
2, 15072, Note_on_c, 0, 70, 0
2, 15072, Control_c, 0, 64, 0
2, 15072, Note_on_c, 0, 66, 80
2, 15117, Note_on_c, 0, 66, 0
2, 15120, Note_on_c, 0, 82, 80
2, 15120, Note_on_c, 0, 73, 80
2, 15140, Note_on_c, 0, 82, 0
2, 15140, Note_on_c, 0, 73, 0
2, 15168, Note_on_c, 0, 82, 96
2, 15168, Note_on_c, 0, 73, 96
2, 15264, Note_on_c, 0, 82, 0
2, 15264, Note_on_c, 0, 73, 0
2, 15264, Note_on_c, 0, 83, 80
2, 15264, Note_on_c, 0, 71, 80
2, 15284, Note_on_c, 0, 83, 0
2, 15284, Note_on_c, 0, 71, 0
2, 15312, Note_on_c, 0, 75, 64
2, 15335, Note_on_c, 0, 75, 0
2, 15336, Note_on_c, 0, 81, 64
2, 15359, Note_on_c, 0, 81, 0
2, 15360, Note_on_c, 0, 76, 64
2, 15383, Note_on_c, 0, 76, 0
2, 15408, Note_on_c, 0, 72, 64
2, 15431, Note_on_c, 0, 72, 0
2, 15456, Note_on_c, 0, 73, 64
2, 15479, Note_on_c, 0, 73, 0
2, 15504, Note_on_c, 0, 63, 64
2, 15527, Note_on_c, 0, 63, 0
2, 15552, Note_on_c, 0, 64, 64
2, 15575, Note_on_c, 0, 64, 0
2, 15600, Note_on_c, 0, 68, 64
2, 15623, Note_on_c, 0, 68, 0
2, 15648, Note_on_c, 0, 66, 64
2, 15671, Note_on_c, 0, 66, 0
2, 15696, Note_on_c, 0, 64, 64
2, 15719, Note_on_c, 0, 64, 0
2, 15744, Note_on_c, 0, 66, 80
2, 15800, Note_on_c, 0, 66, 0
2, 15800, Note_on_c, 0, 70, 80
2, 15808, Note_on_c, 0, 70, 0
2, 15808, Note_on_c, 0, 73, 80
2, 15816, Note_on_c, 0, 73, 0
2, 15816, Note_on_c, 0, 76, 80
2, 15824, Note_on_c, 0, 76, 0
2, 15824, Note_on_c, 0, 73, 80
2, 15832, Note_on_c, 0, 73, 0
2, 15832, Note_on_c, 0, 70, 80
2, 15840, Note_on_c, 0, 70, 0
2, 15840, Note_on_c, 0, 66, 80
2, 15885, Note_on_c, 0, 66, 0
2, 15888, Note_on_c, 0, 82, 80
2, 15888, Note_on_c, 0, 73, 80
2, 15908, Note_on_c, 0, 82, 0
2, 15908, Note_on_c, 0, 73, 0
2, 15936, Note_on_c, 0, 82, 96
2, 15936, Note_on_c, 0, 73, 96
2, 16032, Note_on_c, 0, 82, 0
2, 16032, Note_on_c, 0, 73, 0
2, 16032, Note_on_c, 0, 83, 80
2, 16032, Note_on_c, 0, 71, 80
2, 16052, Note_on_c, 0, 83, 0
2, 16052, Note_on_c, 0, 71, 0
2, 16080, Note_on_c, 0, 63, 86
2, 16082, Note_on_c, 0, 66, 86
2, 16084, Note_on_c, 0, 71, 86
2, 16086, Note_on_c, 0, 78, 86
2, 16088, Note_on_c, 0, 81, 86
2, 16100, Note_on_c, 0, 81, 0
2, 16100, Note_on_c, 0, 78, 0
2, 16100, Note_on_c, 0, 71, 0
2, 16100, Note_on_c, 0, 66, 0
2, 16100, Note_on_c, 0, 63, 0
2, 16128, Note_on_c, 0, 64, 80
2, 16130, Note_on_c, 0, 68, 80
2, 16132, Note_on_c, 0, 71, 80
2, 16134, Note_on_c, 0, 76, 80
2, 16136, Note_on_c, 0, 80, 80
2, 16148, Note_on_c, 0, 80, 0
2, 16148, Note_on_c, 0, 76, 0
2, 16148, Note_on_c, 0, 71, 0
2, 16148, Note_on_c, 0, 68, 0
2, 16148, Note_on_c, 0, 64, 0
2, 16176, Note_on_c, 0, 66, 75
2, 16178, Note_on_c, 0, 69, 75
2, 16180, Note_on_c, 0, 71, 75
2, 16182, Note_on_c, 0, 75, 75
2, 16184, Note_on_c, 0, 78, 75
2, 16196, Note_on_c, 0, 78, 0
2, 16196, Note_on_c, 0, 75, 0
2, 16196, Note_on_c, 0, 71, 0
2, 16196, Note_on_c, 0, 69, 0
2, 16196, Note_on_c, 0, 66, 0
2, 16224, Note_on_c, 0, 75, 75
2, 16236, Note_on_c, 0, 75, 0
2, 16236, Note_on_c, 0, 76, 75
2, 16269, Note_on_c, 0, 76, 0
2, 16272, Note_on_c, 0, 80, 75
2, 16287, Note_on_c, 0, 80, 0
2, 16288, Note_on_c, 0, 76, 75
2, 16303, Note_on_c, 0, 76, 0
2, 16304, Note_on_c, 0, 73, 75
2, 16319, Note_on_c, 0, 73, 0
2, 16320, Note_on_c, 0, 75, 91
2, 16320, Note_on_c, 0, 71, 91
2, 16416, Note_on_c, 0, 71, 0
2, 16416, Note_on_c, 0, 78, 75
2, 16461, Note_on_c, 0, 78, 0
2, 16461, Note_on_c, 0, 75, 0
2, 16464, Note_on_c, 0, 70, 75
2, 16464, Note_on_c, 0, 64, 75
2, 16509, Note_on_c, 0, 70, 0
2, 16509, Note_on_c, 0, 64, 0
2, 16512, Note_on_c, 0, 71, 75
2, 16512, Note_on_c, 0, 63, 75
2, 16601, Note_on_c, 0, 71, 0
2, 16601, Note_on_c, 0, 63, 0
2, 16608, Note_on_c, 0, 59, 64
2, 16632, Note_on_c, 0, 59, 0
2, 16632, Note_on_c, 0, 58, 64
2, 16655, Note_on_c, 0, 58, 0
2, 16656, Note_on_c, 0, 59, 64
2, 16680, Note_on_c, 0, 59, 0
2, 16680, Note_on_c, 0, 63, 64
2, 16703, Note_on_c, 0, 63, 0
2, 16704, Note_on_c, 0, 63, 64
2, 16728, Note_on_c, 0, 63, 0
2, 16728, Note_on_c, 0, 56, 64
2, 16751, Note_on_c, 0, 56, 0
2, 16752, Note_on_c, 0, 56, 64
2, 16776, Note_on_c, 0, 56, 0
2, 16776, Note_on_c, 0, 64, 64
2, 16799, Note_on_c, 0, 64, 0
2, 16800, Note_on_c, 0, 64, 64
2, 16824, Note_on_c, 0, 64, 0
2, 16824, Note_on_c, 0, 58, 64
2, 16847, Note_on_c, 0, 58, 0
2, 16848, Note_on_c, 0, 58, 64
2, 16872, Note_on_c, 0, 58, 0
2, 16872, Note_on_c, 0, 66, 64
2, 16895, Note_on_c, 0, 66, 0
2, 16896, Note_on_c, 0, 64, 64
2, 16920, Note_on_c, 0, 64, 0
2, 16920, Note_on_c, 0, 63, 64
2, 16943, Note_on_c, 0, 63, 0
2, 16944, Note_on_c, 0, 71, 64
2, 16968, Note_on_c, 0, 71, 0
2, 16968, Note_on_c, 0, 70, 64
2, 16991, Note_on_c, 0, 70, 0
2, 16992, Note_on_c, 0, 70, 64
2, 17016, Note_on_c, 0, 70, 0
2, 17016, Note_on_c, 0, 68, 64
2, 17039, Note_on_c, 0, 68, 0
2, 17040, Note_on_c, 0, 68, 64
2, 17064, Note_on_c, 0, 68, 0
2, 17064, Note_on_c, 0, 66, 64
2, 17087, Note_on_c, 0, 66, 0
2, 17088, Note_on_c, 0, 66, 64
2, 17112, Note_on_c, 0, 66, 0
2, 17112, Note_on_c, 0, 64, 64
2, 17135, Note_on_c, 0, 64, 0
2, 17136, Note_on_c, 0, 64, 64
2, 17160, Note_on_c, 0, 64, 0
2, 17160, Note_on_c, 0, 63, 64
2, 17183, Note_on_c, 0, 63, 0
2, 17184, Note_on_c, 0, 63, 64
2, 17208, Note_on_c, 0, 63, 0
2, 17208, Note_on_c, 0, 61, 64
2, 17231, Note_on_c, 0, 61, 0
2, 17232, Note_on_c, 0, 61, 64
2, 17256, Note_on_c, 0, 61, 0
2, 17256, Note_on_c, 0, 59, 64
2, 17279, Note_on_c, 0, 59, 0
2, 17280, Note_on_c, 0, 59, 64
2, 17413, Note_on_c, 0, 59, 0
2, 17424, Note_on_c, 0, 63, 64
2, 17430, Note_on_c, 0, 63, 0
2, 17430, Note_on_c, 0, 61, 64
2, 17447, Note_on_c, 0, 61, 0
2, 17448, Note_on_c, 0, 59, 64
2, 17471, Note_on_c, 0, 59, 0
2, 17472, Note_on_c, 0, 59, 64
2, 17539, Note_on_c, 0, 59, 0
2, 17544, Note_on_c, 0, 64, 64
2, 17556, Note_on_c, 0, 64, 0
2, 17556, Note_on_c, 0, 68, 64
2, 17568, Note_on_c, 0, 68, 0
2, 17568, Note_on_c, 0, 71, 75
2, 17588, Note_on_c, 0, 71, 0
2, 17616, Note_on_c, 0, 71, 75
2, 17636, Note_on_c, 0, 71, 0
2, 17664, Note_on_c, 0, 71, 75
2, 17703, Note_on_c, 0, 71, 0
2, 17808, Note_on_c, 0, 68, 64
2, 17820, Note_on_c, 0, 68, 0
2, 17820, Note_on_c, 0, 64, 64
2, 17854, Note_on_c, 0, 64, 0
2, 17856, Note_on_c, 0, 66, 64
2, 17868, Note_on_c, 0, 66, 0
2, 17868, Note_on_c, 0, 63, 64
2, 17902, Note_on_c, 0, 63, 0
2, 17904, Note_on_c, 0, 64, 64
2, 17916, Note_on_c, 0, 64, 0
2, 17916, Note_on_c, 0, 61, 64
2, 17950, Note_on_c, 0, 61, 0
2, 17952, Note_on_c, 0, 63, 64
2, 17964, Note_on_c, 0, 63, 0
2, 17964, Note_on_c, 0, 59, 64
2, 17998, Note_on_c, 0, 59, 0
2, 18000, Note_on_c, 0, 58, 64
2, 18012, Note_on_c, 0, 58, 0
2, 18012, Note_on_c, 0, 52, 64
2, 18046, Note_on_c, 0, 52, 0
2, 18432, Note_on_c, 0, 68, 80
2, 18440, Note_on_c, 0, 75, 80
2, 18448, Note_on_c, 0, 80, 80
2, 18525, Note_on_c, 0, 80, 0
2, 18525, Note_on_c, 0, 75, 0
2, 18525, Note_on_c, 0, 68, 0
2, 18528, Note_on_c, 0, 75, 75
2, 18551, Note_on_c, 0, 75, 0
2, 18552, Note_on_c, 0, 76, 75
2, 18560, Note_on_c, 0, 76, 0
2, 18560, Note_on_c, 0, 75, 75
2, 18568, Note_on_c, 0, 75, 0
2, 18568, Note_on_c, 0, 73, 75
2, 18576, Note_on_c, 0, 73, 0
2, 18576, Note_on_c, 0, 75, 75
2, 18599, Note_on_c, 0, 75, 0
2, 18600, Note_on_c, 0, 78, 75
2, 18623, Note_on_c, 0, 78, 0
2, 18624, Note_on_c, 0, 78, 75
2, 18648, Note_on_c, 0, 78, 0
2, 18648, Note_on_c, 0, 76, 75
2, 18671, Note_on_c, 0, 76, 0
2, 18672, Note_on_c, 0, 76, 75
2, 18696, Note_on_c, 0, 76, 0
2, 18696, Note_on_c, 0, 75, 75
2, 18719, Note_on_c, 0, 75, 0
2, 18720, Note_on_c, 0, 75, 75
2, 18744, Note_on_c, 0, 75, 0
2, 18744, Note_on_c, 0, 73, 75
2, 18767, Note_on_c, 0, 73, 0
2, 18768, Note_on_c, 0, 73, 75
2, 18792, Note_on_c, 0, 73, 0
2, 18792, Note_on_c, 0, 75, 75
2, 18815, Note_on_c, 0, 75, 0
2, 18816, Note_on_c, 0, 78, 75
2, 18840, Note_on_c, 0, 78, 0
2, 18840, Note_on_c, 0, 76, 75
2, 18863, Note_on_c, 0, 76, 0
2, 18864, Note_on_c, 0, 76, 75
2, 18888, Note_on_c, 0, 76, 0
2, 18888, Note_on_c, 0, 75, 75
2, 18911, Note_on_c, 0, 75, 0
2, 18912, Note_on_c, 0, 75, 75
2, 18936, Note_on_c, 0, 75, 0
2, 18936, Note_on_c, 0, 73, 75
2, 18959, Note_on_c, 0, 73, 0
2, 18960, Note_on_c, 0, 73, 75
2, 18984, Note_on_c, 0, 73, 0
2, 18984, Note_on_c, 0, 75, 75
2, 19007, Note_on_c, 0, 75, 0
2, 19008, Note_on_c, 0, 78, 75
2, 19032, Note_on_c, 0, 78, 0
2, 19032, Note_on_c, 0, 76, 75
2, 19055, Note_on_c, 0, 76, 0
2, 19056, Note_on_c, 0, 76, 75
2, 19080, Note_on_c, 0, 76, 0
2, 19080, Note_on_c, 0, 75, 75
2, 19103, Note_on_c, 0, 75, 0
2, 19104, Note_on_c, 0, 75, 75
2, 19128, Note_on_c, 0, 75, 0
2, 19128, Note_on_c, 0, 73, 75
2, 19151, Note_on_c, 0, 73, 0
2, 19152, Note_on_c, 0, 73, 75
2, 19176, Note_on_c, 0, 73, 0
2, 19176, Note_on_c, 0, 71, 75
2, 19199, Note_on_c, 0, 71, 0
2, 19200, Note_on_c, 0, 71, 75
2, 19224, Note_on_c, 0, 71, 0
2, 19224, Note_on_c, 0, 70, 75
2, 19247, Note_on_c, 0, 70, 0
2, 19248, Note_on_c, 0, 70, 75
2, 19272, Note_on_c, 0, 70, 0
2, 19272, Note_on_c, 0, 80, 75
2, 19295, Note_on_c, 0, 80, 0
2, 19296, Note_on_c, 0, 80, 75
2, 19320, Note_on_c, 0, 80, 0
2, 19320, Note_on_c, 0, 78, 75
2, 19343, Note_on_c, 0, 78, 0
2, 19344, Note_on_c, 0, 78, 75
2, 19368, Note_on_c, 0, 78, 0
2, 19368, Note_on_c, 0, 76, 75
2, 19391, Note_on_c, 0, 76, 0
2, 19392, Note_on_c, 0, 76, 75
2, 19416, Note_on_c, 0, 76, 0
2, 19416, Note_on_c, 0, 75, 75
2, 19439, Note_on_c, 0, 75, 0
2, 19440, Note_on_c, 0, 75, 75
2, 19464, Note_on_c, 0, 75, 0
2, 19464, Note_on_c, 0, 73, 75
2, 19487, Note_on_c, 0, 73, 0
2, 19488, Note_on_c, 0, 73, 75
2, 19512, Note_on_c, 0, 73, 0
2, 19512, Note_on_c, 0, 71, 75
2, 19535, Note_on_c, 0, 71, 0
2, 19536, Note_on_c, 0, 71, 75
2, 19560, Note_on_c, 0, 71, 0
2, 19560, Note_on_c, 0, 69, 75
2, 19583, Note_on_c, 0, 69, 0
2, 19584, Note_on_c, 0, 69, 75
2, 19608, Note_on_c, 0, 69, 0
2, 19608, Note_on_c, 0, 68, 75
2, 19631, Note_on_c, 0, 68, 0
2, 19632, Note_on_c, 0, 68, 75
2, 19656, Note_on_c, 0, 68, 0
2, 19656, Note_on_c, 0, 78, 75
2, 19679, Note_on_c, 0, 78, 0
2, 19680, Note_on_c, 0, 78, 75
2, 19704, Note_on_c, 0, 78, 0
2, 19704, Note_on_c, 0, 76, 75
2, 19727, Note_on_c, 0, 76, 0
2, 19728, Note_on_c, 0, 76, 75
2, 19752, Note_on_c, 0, 76, 0
2, 19752, Note_on_c, 0, 75, 75
2, 19775, Note_on_c, 0, 75, 0
2, 19776, Note_on_c, 0, 75, 75
2, 19800, Note_on_c, 0, 75, 0
2, 19800, Note_on_c, 0, 73, 75
2, 19823, Note_on_c, 0, 73, 0
2, 19824, Note_on_c, 0, 73, 75
2, 19848, Note_on_c, 0, 73, 0
2, 19848, Note_on_c, 0, 80, 75
2, 19871, Note_on_c, 0, 80, 0
2, 19872, Note_on_c, 0, 80, 75
2, 19896, Note_on_c, 0, 80, 0
2, 19896, Note_on_c, 0, 78, 75
2, 19919, Note_on_c, 0, 78, 0
2, 19920, Note_on_c, 0, 78, 75
2, 19944, Note_on_c, 0, 78, 0
2, 19944, Note_on_c, 0, 76, 75
2, 19967, Note_on_c, 0, 76, 0
2, 19968, Note_on_c, 0, 76, 75
2, 19992, Note_on_c, 0, 76, 0
2, 19992, Note_on_c, 0, 75, 75
2, 20015, Note_on_c, 0, 75, 0
2, 20016, Note_on_c, 0, 75, 75
2, 20040, Note_on_c, 0, 75, 0
2, 20040, Note_on_c, 0, 81, 75
2, 20063, Note_on_c, 0, 81, 0
2, 20064, Note_on_c, 0, 81, 75
2, 20088, Note_on_c, 0, 81, 0
2, 20088, Note_on_c, 0, 80, 75
2, 20111, Note_on_c, 0, 80, 0
2, 20112, Note_on_c, 0, 80, 75
2, 20136, Note_on_c, 0, 80, 0
2, 20136, Note_on_c, 0, 78, 75
2, 20159, Note_on_c, 0, 78, 0
2, 20160, Note_on_c, 0, 76, 75
2, 20293, Note_on_c, 0, 76, 0
2, 20304, Note_on_c, 0, 80, 75
2, 20310, Note_on_c, 0, 80, 0
2, 20310, Note_on_c, 0, 78, 75
2, 20349, Note_on_c, 0, 78, 0
2, 20352, Note_on_c, 0, 76, 75
2, 20375, Note_on_c, 0, 76, 0
2, 20376, Note_on_c, 0, 74, 75
2, 20399, Note_on_c, 0, 74, 0
2, 20400, Note_on_c, 0, 73, 75
2, 20423, Note_on_c, 0, 73, 0
2, 20424, Note_on_c, 0, 74, 75
2, 20447, Note_on_c, 0, 74, 0
2, 20448, Note_on_c, 0, 86, 91
2, 20567, Note_on_c, 0, 86, 0
2, 20568, Note_on_c, 0, 85, 75
2, 20591, Note_on_c, 0, 85, 0
2, 20592, Note_on_c, 0, 83, 75
2, 20615, Note_on_c, 0, 83, 0
2, 20616, Note_on_c, 0, 81, 75
2, 20639, Note_on_c, 0, 81, 0
2, 20640, Note_on_c, 0, 80, 75
2, 20663, Note_on_c, 0, 80, 0
2, 20664, Note_on_c, 0, 78, 75
2, 20687, Note_on_c, 0, 78, 0
2, 20688, Note_on_c, 0, 76, 75
2, 20711, Note_on_c, 0, 76, 0
2, 20712, Note_on_c, 0, 74, 75
2, 20735, Note_on_c, 0, 74, 0
2, 20736, Note_on_c, 0, 73, 80
2, 20744, Note_on_c, 0, 76, 80
2, 20752, Note_on_c, 0, 81, 80
2, 20829, Note_on_c, 0, 81, 0
2, 20829, Note_on_c, 0, 76, 0
2, 20829, Note_on_c, 0, 73, 0
2, 20832, Note_on_c, 0, 76, 75
2, 20855, Note_on_c, 0, 76, 0
2, 20856, Note_on_c, 0, 78, 75
2, 20864, Note_on_c, 0, 78, 0
2, 20864, Note_on_c, 0, 76, 75
2, 20872, Note_on_c, 0, 76, 0
2, 20872, Note_on_c, 0, 75, 75
2, 20880, Note_on_c, 0, 75, 0
2, 20880, Note_on_c, 0, 76, 75
2, 20903, Note_on_c, 0, 76, 0
2, 20904, Note_on_c, 0, 78, 75
2, 20927, Note_on_c, 0, 78, 0
2, 20928, Note_on_c, 0, 76, 75
2, 20951, Note_on_c, 0, 76, 0
2, 20952, Note_on_c, 0, 74, 75
2, 20975, Note_on_c, 0, 74, 0
2, 20976, Note_on_c, 0, 73, 75
2, 20999, Note_on_c, 0, 73, 0
2, 21000, Note_on_c, 0, 74, 75
2, 21023, Note_on_c, 0, 74, 0
2, 21024, Note_on_c, 0, 74, 75
2, 21047, Note_on_c, 0, 74, 0
2, 21048, Note_on_c, 0, 73, 75
2, 21071, Note_on_c, 0, 73, 0
2, 21072, Note_on_c, 0, 71, 75
2, 21095, Note_on_c, 0, 71, 0
2, 21096, Note_on_c, 0, 73, 75
2, 21119, Note_on_c, 0, 73, 0
2, 21120, Note_on_c, 0, 73, 75
2, 21143, Note_on_c, 0, 73, 0
2, 21144, Note_on_c, 0, 71, 75
2, 21167, Note_on_c, 0, 71, 0
2, 21168, Note_on_c, 0, 69, 75
2, 21191, Note_on_c, 0, 69, 0
2, 21192, Note_on_c, 0, 68, 75
2, 21215, Note_on_c, 0, 68, 0
2, 21216, Note_on_c, 0, 69, 75
2, 21261, Note_on_c, 0, 69, 0
2, 21264, Note_on_c, 0, 74, 75
2, 21264, Note_on_c, 0, 66, 75
2, 21284, Note_on_c, 0, 74, 0
2, 21284, Note_on_c, 0, 66, 0
2, 21312, Note_on_c, 0, 74, 91
2, 21312, Note_on_c, 0, 66, 91
2, 21408, Note_on_c, 0, 74, 0
2, 21408, Note_on_c, 0, 66, 0
2, 21408, Note_on_c, 0, 73, 75
2, 21408, Note_on_c, 0, 64, 75
2, 21428, Note_on_c, 0, 73, 0
2, 21428, Note_on_c, 0, 64, 0
2, 21456, Note_on_c, 0, 69, 75
2, 21471, Note_on_c, 0, 69, 0
2, 21472, Note_on_c, 0, 74, 75
2, 21487, Note_on_c, 0, 74, 0
2, 21488, Note_on_c, 0, 78, 75
2, 21503, Note_on_c, 0, 78, 0
2, 21504, Note_on_c, 0, 78, 75
2, 21504, Note_on_c, 0, 74, 75
2, 21600, Note_on_c, 0, 78, 0
2, 21600, Note_on_c, 0, 74, 0
2, 21600, Note_on_c, 0, 76, 75
2, 21600, Note_on_c, 0, 73, 75
2, 21645, Note_on_c, 0, 76, 0
2, 21645, Note_on_c, 0, 73, 0
2, 21648, Note_on_c, 0, 69, 64
2, 21671, Note_on_c, 0, 69, 0
2, 21672, Note_on_c, 0, 81, 64
2, 21682, Note_on_c, 0, 81, 0
2, 21696, Note_on_c, 0, 81, 80
2, 21840, Note_on_c, 0, 81, 0
2, 21840, Note_on_c, 0, 70, 66
2, 21863, Note_on_c, 0, 70, 0
2, 21864, Note_on_c, 0, 79, 66
2, 21874, Note_on_c, 0, 79, 0
2, 21888, Note_on_c, 0, 79, 82
2, 22032, Note_on_c, 0, 79, 0
2, 22032, Note_on_c, 0, 71, 68
2, 22055, Note_on_c, 0, 71, 0
2, 22056, Note_on_c, 0, 83, 68
2, 22066, Note_on_c, 0, 83, 0
2, 22080, Note_on_c, 0, 83, 84
2, 22224, Note_on_c, 0, 83, 0
2, 22224, Note_on_c, 0, 72, 70
2, 22247, Note_on_c, 0, 72, 0
2, 22248, Note_on_c, 0, 81, 70
2, 22258, Note_on_c, 0, 81, 0
2, 22272, Note_on_c, 0, 81, 87
2, 22416, Note_on_c, 0, 81, 0
2, 22416, Note_on_c, 0, 73, 72
2, 22439, Note_on_c, 0, 73, 0
2, 22440, Note_on_c, 0, 85, 73
2, 22450, Note_on_c, 0, 85, 0
2, 22464, Note_on_c, 0, 85, 89
2, 22608, Note_on_c, 0, 85, 0
2, 22608, Note_on_c, 0, 74, 75
2, 22631, Note_on_c, 0, 74, 0
2, 22632, Note_on_c, 0, 86, 75
2, 22642, Note_on_c, 0, 86, 0
2, 22656, Note_on_c, 0, 86, 91
2, 22800, Note_on_c, 0, 86, 0
2, 22800, Note_on_c, 0, 75, 77
2, 22823, Note_on_c, 0, 75, 0
2, 22824, Note_on_c, 0, 87, 77
2, 22834, Note_on_c, 0, 87, 0
2, 22848, Note_on_c, 0, 87, 93
2, 23394, Note_on_c, 0, 87, 0
2, 23424, Note_on_c, 0, 63, 80
2, 23480, Note_on_c, 0, 63, 0
2, 23480, Note_on_c, 0, 67, 80
2, 23488, Note_on_c, 0, 67, 0
2, 23488, Note_on_c, 0, 70, 80
2, 23496, Note_on_c, 0, 70, 0
2, 23496, Note_on_c, 0, 73, 80
2, 23504, Note_on_c, 0, 73, 0
2, 23504, Note_on_c, 0, 70, 80
2, 23512, Note_on_c, 0, 70, 0
2, 23512, Note_on_c, 0, 67, 80
2, 23520, Note_on_c, 0, 67, 0
2, 23520, Note_on_c, 0, 63, 80
2, 23565, Note_on_c, 0, 63, 0
2, 23568, Note_on_c, 0, 79, 64
2, 23568, Note_on_c, 0, 75, 64
2, 23588, Note_on_c, 0, 79, 0
2, 23588, Note_on_c, 0, 75, 0
2, 23616, Note_on_c, 0, 79, 80
2, 23616, Note_on_c, 0, 75, 80
2, 23712, Note_on_c, 0, 79, 0
2, 23712, Note_on_c, 0, 80, 64
2, 23732, Note_on_c, 0, 80, 0
2, 23732, Note_on_c, 0, 75, 0
2, 23808, Note_on_c, 0, 63, 80
2, 23864, Note_on_c, 0, 63, 0
2, 23864, Note_on_c, 0, 67, 80
2, 23872, Note_on_c, 0, 67, 0
2, 23872, Note_on_c, 0, 70, 80
2, 23880, Note_on_c, 0, 70, 0
2, 23880, Note_on_c, 0, 73, 80
2, 23888, Note_on_c, 0, 73, 0
2, 23888, Note_on_c, 0, 70, 80
2, 23896, Note_on_c, 0, 70, 0
2, 23896, Note_on_c, 0, 67, 80
2, 23904, Note_on_c, 0, 67, 0
2, 23904, Note_on_c, 0, 63, 80
2, 23949, Note_on_c, 0, 63, 0
2, 23952, Note_on_c, 0, 76, 64
2, 23972, Note_on_c, 0, 76, 0
2, 24000, Note_on_c, 0, 76, 80
2, 24000, Note_on_c, 0, 73, 80
2, 24096, Note_on_c, 0, 76, 0
2, 24096, Note_on_c, 0, 73, 0
2, 24096, Note_on_c, 0, 75, 64
2, 24096, Note_on_c, 0, 71, 64
2, 24116, Note_on_c, 0, 75, 0
2, 24116, Note_on_c, 0, 71, 0
2, 24144, Note_on_c, 0, 88, 64
2, 24144, Note_on_c, 0, 85, 64
2, 24164, Note_on_c, 0, 88, 0
2, 24164, Note_on_c, 0, 85, 0
2, 24192, Note_on_c, 0, 88, 80
2, 24192, Note_on_c, 0, 85, 80
2, 24288, Note_on_c, 0, 88, 0
2, 24288, Note_on_c, 0, 85, 0
2, 24288, Note_on_c, 0, 87, 64
2, 24288, Note_on_c, 0, 83, 64
2, 24308, Note_on_c, 0, 87, 0
2, 24308, Note_on_c, 0, 83, 0
2, 24408, Note_on_c, 0, 69, 64
2, 24431, Note_on_c, 0, 69, 0
2, 24456, Note_on_c, 0, 73, 64
2, 24479, Note_on_c, 0, 73, 0
2, 24504, Note_on_c, 0, 71, 64
2, 24527, Note_on_c, 0, 71, 0
2, 24552, Note_on_c, 0, 67, 64
2, 24575, Note_on_c, 0, 67, 0
2, 24576, Control_c, 0, 64, 127
2, 24600, Note_on_c, 0, 68, 64
2, 24623, Note_on_c, 0, 68, 0
2, 24648, Note_on_c, 0, 68, 64
2, 24671, Note_on_c, 0, 68, 0
2, 24696, Note_on_c, 0, 68, 64
2, 24719, Note_on_c, 0, 68, 0
2, 24744, Note_on_c, 0, 68, 64
2, 24767, Note_on_c, 0, 68, 0
2, 24792, Note_on_c, 0, 68, 64
2, 24815, Note_on_c, 0, 68, 0
2, 24816, Note_on_c, 0, 80, 64
2, 24839, Note_on_c, 0, 80, 0
2, 24840, Note_on_c, 0, 68, 64
2, 24863, Note_on_c, 0, 68, 0
2, 24888, Note_on_c, 0, 68, 64
2, 24911, Note_on_c, 0, 68, 0
2, 24936, Note_on_c, 0, 68, 64
2, 24959, Note_on_c, 0, 68, 0
2, 24960, Control_c, 0, 64, 0
2, 24960, Control_c, 0, 64, 127
2, 24984, Note_on_c, 0, 69, 64
2, 25007, Note_on_c, 0, 69, 0
2, 25032, Note_on_c, 0, 69, 64
2, 25055, Note_on_c, 0, 69, 0
2, 25080, Note_on_c, 0, 69, 64
2, 25103, Note_on_c, 0, 69, 0
2, 25128, Note_on_c, 0, 69, 64
2, 25151, Note_on_c, 0, 69, 0
2, 25176, Note_on_c, 0, 69, 64
2, 25199, Note_on_c, 0, 69, 0
2, 25200, Note_on_c, 0, 81, 64
2, 25223, Note_on_c, 0, 81, 0
2, 25224, Note_on_c, 0, 69, 64
2, 25247, Note_on_c, 0, 69, 0
2, 25272, Note_on_c, 0, 69, 64
2, 25295, Note_on_c, 0, 69, 0
2, 25320, Note_on_c, 0, 69, 64
2, 25343, Note_on_c, 0, 69, 0
2, 25344, Control_c, 0, 64, 0
2, 25344, Note_on_c, 0, 68, 80
2, 25352, Note_on_c, 0, 71, 80
2, 25360, Note_on_c, 0, 76, 80
2, 25437, Note_on_c, 0, 76, 0
2, 25437, Note_on_c, 0, 71, 0
2, 25437, Note_on_c, 0, 68, 0
2, 25440, Note_on_c, 0, 71, 75
2, 25463, Note_on_c, 0, 71, 0
2, 25464, Note_on_c, 0, 73, 75
2, 25472, Note_on_c, 0, 73, 0
2, 25472, Note_on_c, 0, 71, 75
2, 25480, Note_on_c, 0, 71, 0
2, 25480, Note_on_c, 0, 69, 75
2, 25488, Note_on_c, 0, 69, 0
2, 25488, Note_on_c, 0, 71, 75
2, 25511, Note_on_c, 0, 71, 0
2, 25512, Note_on_c, 0, 73, 75
2, 25535, Note_on_c, 0, 73, 0
2, 25536, Note_on_c, 0, 71, 75
2, 25559, Note_on_c, 0, 71, 0
2, 25560, Note_on_c, 0, 69, 75
2, 25583, Note_on_c, 0, 69, 0
2, 25584, Note_on_c, 0, 68, 75
2, 25607, Note_on_c, 0, 68, 0
2, 25608, Note_on_c, 0, 69, 75
2, 25631, Note_on_c, 0, 69, 0
2, 25632, Note_on_c, 0, 69, 75
2, 25655, Note_on_c, 0, 69, 0
2, 25656, Note_on_c, 0, 68, 75
2, 25679, Note_on_c, 0, 68, 0
2, 25680, Note_on_c, 0, 66, 75
2, 25703, Note_on_c, 0, 66, 0
2, 25704, Note_on_c, 0, 68, 75
2, 25727, Note_on_c, 0, 68, 0
2, 25728, Note_on_c, 0, 68, 75
2, 25751, Note_on_c, 0, 68, 0
2, 25752, Note_on_c, 0, 66, 75
2, 25775, Note_on_c, 0, 66, 0
2, 25776, Note_on_c, 0, 64, 75
2, 25799, Note_on_c, 0, 64, 0
2, 25800, Note_on_c, 0, 63, 75
2, 25823, Note_on_c, 0, 63, 0
2, 25824, Note_on_c, 0, 64, 75
2, 25869, Note_on_c, 0, 64, 0
2, 25872, Note_on_c, 0, 69, 75
2, 25892, Note_on_c, 0, 69, 0
2, 25920, Note_on_c, 0, 68, 75
2, 25940, Note_on_c, 0, 68, 0
2, 26016, Note_on_c, 0, 71, 75
2, 26036, Note_on_c, 0, 71, 0
2, 26112, Note_on_c, 0, 69, 80
2, 26118, Note_on_c, 0, 75, 80
2, 26124, Note_on_c, 0, 78, 80
2, 26130, Note_on_c, 0, 81, 80
2, 26205, Note_on_c, 0, 81, 0
2, 26205, Note_on_c, 0, 78, 0
2, 26205, Note_on_c, 0, 75, 0
2, 26205, Note_on_c, 0, 69, 0
2, 26208, Note_on_c, 0, 69, 75
2, 26231, Note_on_c, 0, 69, 0
2, 26232, Note_on_c, 0, 71, 75
2, 26240, Note_on_c, 0, 71, 0
2, 26240, Note_on_c, 0, 69, 75
2, 26248, Note_on_c, 0, 69, 0
2, 26248, Note_on_c, 0, 68, 75
2, 26256, Note_on_c, 0, 68, 0
2, 26256, Note_on_c, 0, 69, 75
2, 26279, Note_on_c, 0, 69, 0
2, 26280, Note_on_c, 0, 73, 75
2, 26303, Note_on_c, 0, 73, 0
2, 26304, Note_on_c, 0, 71, 75
2, 26327, Note_on_c, 0, 71, 0
2, 26328, Note_on_c, 0, 69, 75
2, 26351, Note_on_c, 0, 69, 0
2, 26352, Note_on_c, 0, 68, 75
2, 26375, Note_on_c, 0, 68, 0
2, 26376, Note_on_c, 0, 69, 75
2, 26399, Note_on_c, 0, 69, 0
2, 26400, Note_on_c, 0, 69, 75
2, 26423, Note_on_c, 0, 69, 0
2, 26424, Note_on_c, 0, 68, 75
2, 26447, Note_on_c, 0, 68, 0
2, 26448, Note_on_c, 0, 66, 75
2, 26471, Note_on_c, 0, 66, 0
2, 26472, Note_on_c, 0, 68, 75
2, 26495, Note_on_c, 0, 68, 0
2, 26496, Note_on_c, 0, 68, 75
2, 26519, Note_on_c, 0, 68, 0
2, 26520, Note_on_c, 0, 66, 75
2, 26543, Note_on_c, 0, 66, 0
2, 26544, Note_on_c, 0, 69, 75
2, 26567, Note_on_c, 0, 69, 0
2, 26568, Note_on_c, 0, 73, 75
2, 26591, Note_on_c, 0, 73, 0
2, 26592, Note_on_c, 0, 61, 75
2, 26637, Note_on_c, 0, 61, 0
2, 26640, Note_on_c, 0, 63, 75
2, 26640, Note_on_c, 0, 57, 75
2, 26660, Note_on_c, 0, 63, 0
2, 26660, Note_on_c, 0, 57, 0
2, 26688, Note_on_c, 0, 64, 75
2, 26688, Note_on_c, 0, 56, 75
2, 26727, Note_on_c, 0, 64, 0
2, 26727, Note_on_c, 0, 56, 0
2, 26880, Note_on_c, 0, 68, 80
2, 26888, Note_on_c, 0, 71, 80
2, 26896, Note_on_c, 0, 76, 80
2, 26973, Note_on_c, 0, 76, 0
2, 26973, Note_on_c, 0, 71, 0
2, 26973, Note_on_c, 0, 68, 0
2, 27072, Note_on_c, 0, 71, 75
2, 27096, Note_on_c, 0, 71, 0
2, 27096, Note_on_c, 0, 69, 75
2, 27119, Note_on_c, 0, 69, 0
2, 27144, Note_on_c, 0, 69, 75
2, 27167, Note_on_c, 0, 69, 0
2, 27168, Note_on_c, 0, 69, 75
2, 27192, Note_on_c, 0, 69, 0
2, 27192, Note_on_c, 0, 68, 75
2, 27215, Note_on_c, 0, 68, 0
2, 27240, Note_on_c, 0, 68, 75
2, 27263, Note_on_c, 0, 68, 0
2, 27264, Note_on_c, 0, 68, 75
2, 27287, Note_on_c, 0, 68, 0
2, 27288, Note_on_c, 0, 66, 75
2, 27311, Note_on_c, 0, 66, 0
2, 27312, Note_on_c, 0, 64, 75
2, 27335, Note_on_c, 0, 64, 0
2, 27336, Note_on_c, 0, 63, 75
2, 27359, Note_on_c, 0, 63, 0
2, 27360, Note_on_c, 0, 64, 75
2, 27405, Note_on_c, 0, 64, 0
2, 27408, Note_on_c, 0, 69, 75
2, 27408, Note_on_c, 0, 61, 75
2, 27428, Note_on_c, 0, 69, 0
2, 27428, Note_on_c, 0, 61, 0
2, 27456, Note_on_c, 0, 69, 91
2, 27456, Note_on_c, 0, 61, 91
2, 27552, Note_on_c, 0, 69, 0
2, 27552, Note_on_c, 0, 61, 0
2, 27552, Note_on_c, 0, 68, 75
2, 27552, Note_on_c, 0, 59, 75
2, 27572, Note_on_c, 0, 68, 0
2, 27572, Note_on_c, 0, 59, 0
2, 27600, Note_on_c, 0, 64, 75
2, 27615, Note_on_c, 0, 64, 0
2, 27616, Note_on_c, 0, 69, 75
2, 27631, Note_on_c, 0, 69, 0
2, 27632, Note_on_c, 0, 73, 75
2, 27647, Note_on_c, 0, 73, 0
2, 27648, Note_on_c, 0, 73, 75
2, 27744, Note_on_c, 0, 73, 0
2, 27744, Note_on_c, 0, 71, 75
2, 27764, Note_on_c, 0, 71, 0
2, 27792, Note_on_c, 0, 76, 75
2, 27812, Note_on_c, 0, 76, 0
2, 27840, Note_on_c, 0, 76, 91
2, 27936, Note_on_c, 0, 76, 0
2, 27936, Note_on_c, 0, 75, 75
2, 27956, Note_on_c, 0, 75, 0
2, 28032, Note_on_c, 0, 80, 75
2, 28128, Note_on_c, 0, 80, 0
2, 28128, Note_on_c, 0, 78, 75
2, 28148, Note_on_c, 0, 78, 0
2, 28224, Note_on_c, 0, 81, 75
2, 28291, Note_on_c, 0, 81, 0
2, 28296, Note_on_c, 0, 80, 75
2, 28319, Note_on_c, 0, 80, 0
2, 28320, Note_on_c, 0, 81, 75
2, 28387, Note_on_c, 0, 81, 0
2, 28392, Note_on_c, 0, 80, 75
2, 28415, Note_on_c, 0, 80, 0
2, 28416, Note_on_c, 0, 78, 75
2, 28483, Note_on_c, 0, 78, 0
2, 28488, Note_on_c, 0, 80, 75
2, 28511, Note_on_c, 0, 80, 0
2, 28512, Note_on_c, 0, 83, 75
2, 28535, Note_on_c, 0, 83, 0
2, 28536, Note_on_c, 0, 81, 75
2, 28559, Note_on_c, 0, 81, 0
2, 28560, Note_on_c, 0, 85, 75
2, 28583, Note_on_c, 0, 85, 0
2, 28584, Note_on_c, 0, 83, 75
2, 28607, Note_on_c, 0, 83, 0
2, 28608, Note_on_c, 0, 81, 75
2, 28631, Note_on_c, 0, 81, 0
2, 28632, Note_on_c, 0, 80, 75
2, 28655, Note_on_c, 0, 80, 0
2, 28656, Note_on_c, 0, 78, 75
2, 28679, Note_on_c, 0, 78, 0
2, 28680, Note_on_c, 0, 77, 75
2, 28703, Note_on_c, 0, 77, 0
2, 28704, Note_on_c, 0, 80, 75
2, 28727, Note_on_c, 0, 80, 0
2, 28728, Note_on_c, 0, 78, 75
2, 28751, Note_on_c, 0, 78, 0
2, 28752, Note_on_c, 0, 81, 75
2, 28775, Note_on_c, 0, 81, 0
2, 28776, Note_on_c, 0, 80, 75
2, 28799, Note_on_c, 0, 80, 0
2, 28800, Note_on_c, 0, 78, 75
2, 28823, Note_on_c, 0, 78, 0
2, 28824, Note_on_c, 0, 76, 75
2, 28847, Note_on_c, 0, 76, 0
2, 28848, Note_on_c, 0, 75, 75
2, 28871, Note_on_c, 0, 75, 0
2, 28872, Note_on_c, 0, 73, 75
2, 28895, Note_on_c, 0, 73, 0
2, 28896, Note_on_c, 0, 76, 75
2, 28919, Note_on_c, 0, 76, 0
2, 28920, Note_on_c, 0, 75, 75
2, 28943, Note_on_c, 0, 75, 0
2, 28944, Note_on_c, 0, 78, 75
2, 28967, Note_on_c, 0, 78, 0
2, 28968, Note_on_c, 0, 76, 75
2, 28991, Note_on_c, 0, 76, 0
2, 28992, Note_on_c, 0, 75, 75
2, 29015, Note_on_c, 0, 75, 0
2, 29016, Note_on_c, 0, 73, 75
2, 29039, Note_on_c, 0, 73, 0
2, 29040, Note_on_c, 0, 71, 75
2, 29063, Note_on_c, 0, 71, 0
2, 29064, Note_on_c, 0, 70, 75
2, 29087, Note_on_c, 0, 70, 0
2, 29088, Note_on_c, 0, 71, 75
2, 29111, Note_on_c, 0, 71, 0
2, 29112, Note_on_c, 0, 69, 75
2, 29135, Note_on_c, 0, 69, 0
2, 29136, Note_on_c, 0, 73, 75
2, 29159, Note_on_c, 0, 73, 0
2, 29160, Note_on_c, 0, 71, 75
2, 29183, Note_on_c, 0, 71, 0
2, 29184, Note_on_c, 0, 69, 75
2, 29207, Note_on_c, 0, 69, 0
2, 29208, Note_on_c, 0, 68, 75
2, 29231, Note_on_c, 0, 68, 0
2, 29232, Note_on_c, 0, 66, 75
2, 29255, Note_on_c, 0, 66, 0
2, 29256, Note_on_c, 0, 65, 75
2, 29279, Note_on_c, 0, 65, 0
2, 29280, Note_on_c, 0, 66, 75
2, 29303, Note_on_c, 0, 66, 0
2, 29304, Note_on_c, 0, 67, 75
2, 29327, Note_on_c, 0, 67, 0
2, 29328, Note_on_c, 0, 68, 75
2, 29351, Note_on_c, 0, 68, 0
2, 29352, Note_on_c, 0, 69, 75
2, 29375, Note_on_c, 0, 69, 0
2, 29376, Note_on_c, 0, 70, 75
2, 29399, Note_on_c, 0, 70, 0
2, 29400, Note_on_c, 0, 71, 75
2, 29423, Note_on_c, 0, 71, 0
2, 29424, Note_on_c, 0, 72, 75
2, 29447, Note_on_c, 0, 72, 0
2, 29448, Note_on_c, 0, 73, 75
2, 29471, Note_on_c, 0, 73, 0
2, 29472, Note_on_c, 0, 73, 75
2, 29517, Note_on_c, 0, 73, 0
2, 29520, Note_on_c, 0, 73, 75
2, 29565, Note_on_c, 0, 73, 0
2, 29568, Note_on_c, 0, 71, 75
2, 29574, Note_on_c, 0, 71, 0
2, 29574, Note_on_c, 0, 73, 75
2, 29580, Note_on_c, 0, 73, 0
2, 29580, Note_on_c, 0, 75, 75
2, 29586, Note_on_c, 0, 75, 0
2, 29586, Note_on_c, 0, 73, 75
2, 29745, Note_on_c, 0, 73, 0
2, 29760, Note_on_c, 0, 73, 75
2, 29827, Note_on_c, 0, 73, 0
2, 29832, Note_on_c, 0, 72, 75
2, 29855, Note_on_c, 0, 72, 0
2, 29856, Note_on_c, 0, 73, 75
2, 29923, Note_on_c, 0, 73, 0
2, 29928, Note_on_c, 0, 72, 75
2, 29951, Note_on_c, 0, 72, 0
2, 29952, Note_on_c, 0, 73, 75
2, 30129, Note_on_c, 0, 73, 0
2, 30144, Note_on_c, 0, 72, 75
2, 30189, Note_on_c, 0, 72, 0
2, 30192, Note_on_c, 0, 73, 75
2, 30237, Note_on_c, 0, 73, 0
2, 30240, Note_on_c, 0, 75, 75
2, 30285, Note_on_c, 0, 75, 0
2, 30288, Note_on_c, 0, 73, 75
2, 30333, Note_on_c, 0, 73, 0
2, 30336, Note_on_c, 0, 73, 75
2, 30601, Note_on_c, 0, 73, 0
2, 30624, Note_on_c, 0, 71, 75
2, 30647, Note_on_c, 0, 71, 0
2, 30648, Note_on_c, 0, 69, 75
2, 30671, Note_on_c, 0, 69, 0
2, 30672, Note_on_c, 0, 68, 75
2, 30695, Note_on_c, 0, 68, 0
2, 30696, Note_on_c, 0, 66, 75
2, 30719, Note_on_c, 0, 66, 0
2, 30720, Note_on_c, 0, 64, 64
2, 30809, Note_on_c, 0, 64, 0
2, 30816, Note_on_c, 0, 63, 65
2, 30839, Note_on_c, 0, 63, 0
2, 30840, Note_on_c, 0, 64, 65
2, 30863, Note_on_c, 0, 64, 0
2, 30864, Note_on_c, 0, 66, 65
2, 30887, Note_on_c, 0, 66, 0
2, 30888, Note_on_c, 0, 64, 65
2, 30911, Note_on_c, 0, 64, 0
2, 30912, Note_on_c, 0, 64, 66
2, 31045, Note_on_c, 0, 64, 0
2, 31056, Note_on_c, 0, 65, 67
2, 31101, Note_on_c, 0, 65, 0
2, 31104, Note_on_c, 0, 68, 68
2, 31110, Note_on_c, 0, 68, 0
2, 31110, Note_on_c, 0, 66, 68
2, 31116, Note_on_c, 0, 66, 0
2, 31116, Note_on_c, 0, 65, 68
2, 31122, Note_on_c, 0, 65, 0
2, 31122, Note_on_c, 0, 66, 68
2, 31193, Note_on_c, 0, 66, 0
2, 31200, Note_on_c, 0, 65, 69
2, 31223, Note_on_c, 0, 65, 0
2, 31224, Note_on_c, 0, 66, 69
2, 31247, Note_on_c, 0, 66, 0
2, 31248, Note_on_c, 0, 68, 70
2, 31271, Note_on_c, 0, 68, 0
2, 31272, Note_on_c, 0, 66, 70
2, 31295, Note_on_c, 0, 66, 0
2, 31296, Note_on_c, 0, 66, 70
2, 31429, Note_on_c, 0, 66, 0
2, 31440, Note_on_c, 0, 67, 72
2, 31485, Note_on_c, 0, 67, 0
2, 31488, Note_on_c, 0, 69, 72
2, 31494, Note_on_c, 0, 69, 0
2, 31494, Note_on_c, 0, 68, 72
2, 31500, Note_on_c, 0, 68, 0
2, 31500, Note_on_c, 0, 67, 72
2, 31506, Note_on_c, 0, 67, 0
2, 31506, Note_on_c, 0, 68, 72
2, 31577, Note_on_c, 0, 68, 0
2, 31584, Note_on_c, 0, 67, 74
2, 31607, Note_on_c, 0, 67, 0
2, 31608, Note_on_c, 0, 68, 74
2, 31631, Note_on_c, 0, 68, 0
2, 31632, Note_on_c, 0, 69, 74
2, 31655, Note_on_c, 0, 69, 0
2, 31656, Note_on_c, 0, 68, 74
2, 31679, Note_on_c, 0, 68, 0
2, 31680, Note_on_c, 0, 68, 75
2, 31848, Note_on_c, 0, 68, 0
2, 31848, Note_on_c, 0, 71, 77
2, 31871, Note_on_c, 0, 71, 0
2, 31872, Note_on_c, 0, 71, 77
2, 31896, Note_on_c, 0, 71, 0
2, 31896, Note_on_c, 0, 69, 77
2, 31919, Note_on_c, 0, 69, 0
2, 31920, Note_on_c, 0, 69, 78
2, 31944, Note_on_c, 0, 69, 0
2, 31944, Note_on_c, 0, 68, 78
2, 31967, Note_on_c, 0, 68, 0
2, 31968, Note_on_c, 0, 68, 78
2, 31992, Note_on_c, 0, 68, 0
2, 31992, Note_on_c, 0, 66, 78
2, 32015, Note_on_c, 0, 66, 0
2, 32016, Note_on_c, 0, 66, 79
2, 32040, Note_on_c, 0, 66, 0
2, 32040, Note_on_c, 0, 68, 79
2, 32063, Note_on_c, 0, 68, 0
2, 32064, Note_on_c, 0, 71, 79
2, 32088, Note_on_c, 0, 71, 0
2, 32088, Note_on_c, 0, 69, 80
2, 32111, Note_on_c, 0, 69, 0
2, 32112, Note_on_c, 0, 69, 80
2, 32136, Note_on_c, 0, 69, 0
2, 32136, Note_on_c, 0, 68, 80
2, 32159, Note_on_c, 0, 68, 0
2, 32160, Note_on_c, 0, 68, 80
2, 32184, Note_on_c, 0, 68, 0
2, 32184, Note_on_c, 0, 66, 80
2, 32207, Note_on_c, 0, 66, 0
2, 32208, Note_on_c, 0, 66, 80
2, 32232, Note_on_c, 0, 66, 0
2, 32232, Note_on_c, 0, 68, 80
2, 32255, Note_on_c, 0, 68, 0
2, 32256, Note_on_c, 0, 71, 80
2, 32280, Note_on_c, 0, 71, 0
2, 32280, Note_on_c, 0, 69, 80
2, 32303, Note_on_c, 0, 69, 0
2, 32304, Note_on_c, 0, 69, 80
2, 32328, Note_on_c, 0, 69, 0
2, 32328, Note_on_c, 0, 68, 80
2, 32351, Note_on_c, 0, 68, 0
2, 32352, Note_on_c, 0, 68, 80
2, 32376, Note_on_c, 0, 68, 0
2, 32376, Note_on_c, 0, 66, 80
2, 32399, Note_on_c, 0, 66, 0
2, 32400, Note_on_c, 0, 66, 80
2, 32410, Note_on_c, 0, 66, 0
2, 32424, Note_on_c, 0, 73, 80
2, 32434, Note_on_c, 0, 73, 0
2, 32448, Note_on_c, 0, 68, 80
2, 32472, Note_on_c, 0, 68, 0
2, 32472, Note_on_c, 0, 66, 80
2, 32495, Note_on_c, 0, 66, 0
2, 32496, Note_on_c, 0, 66, 80
2, 32506, Note_on_c, 0, 66, 0
2, 32520, Note_on_c, 0, 73, 80
2, 32530, Note_on_c, 0, 73, 0
2, 32544, Note_on_c, 0, 68, 80
2, 32568, Note_on_c, 0, 68, 0
2, 32568, Note_on_c, 0, 66, 80
2, 32591, Note_on_c, 0, 66, 0
2, 32592, Note_on_c, 0, 66, 80
2, 32602, Note_on_c, 0, 66, 0
2, 32616, Note_on_c, 0, 73, 80
2, 32626, Note_on_c, 0, 73, 0
2, 32640, Note_on_c, 0, 66, 80
2, 32759, Note_on_c, 0, 66, 0
2, 32760, Note_on_c, 0, 68, 80
2, 32783, Note_on_c, 0, 68, 0
2, 32784, Note_on_c, 0, 69, 78
2, 32807, Note_on_c, 0, 69, 0
2, 32808, Note_on_c, 0, 68, 76
2, 32831, Note_on_c, 0, 68, 0
2, 32832, Note_on_c, 0, 71, 74
2, 32855, Note_on_c, 0, 71, 0
2, 32856, Note_on_c, 0, 69, 72
2, 32879, Note_on_c, 0, 69, 0
2, 32880, Note_on_c, 0, 68, 70
2, 32903, Note_on_c, 0, 68, 0
2, 32904, Note_on_c, 0, 66, 68
2, 32927, Note_on_c, 0, 66, 0
2, 32928, Note_on_c, 0, 64, 66
2, 32951, Note_on_c, 0, 64, 0
2, 32952, Note_on_c, 0, 63, 64
2, 32975, Note_on_c, 0, 63, 0
2, 32976, Control_c, 0, 64, 127
2, 32976, Note_on_c, 0, 69, 64
2, 32999, Note_on_c, 0, 69, 0
2, 33000, Note_on_c, 0, 66, 64
2, 33023, Note_on_c, 0, 66, 0
2, 33024, Note_on_c, 0, 63, 64
2, 33047, Note_on_c, 0, 63, 0
2, 33048, Note_on_c, 0, 60, 64
2, 33071, Note_on_c, 0, 60, 0
2, 33072, Note_on_c, 0, 69, 65
2, 33095, Note_on_c, 0, 69, 0
2, 33096, Note_on_c, 0, 66, 66
2, 33119, Note_on_c, 0, 66, 0
2, 33120, Note_on_c, 0, 63, 67
2, 33143, Note_on_c, 0, 63, 0
2, 33144, Note_on_c, 0, 60, 68
2, 33167, Note_on_c, 0, 60, 0
2, 33168, Note_on_c, 0, 69, 69
2, 33191, Note_on_c, 0, 69, 0
2, 33192, Note_on_c, 0, 66, 70
2, 33215, Note_on_c, 0, 66, 0
2, 33216, Note_on_c, 0, 63, 71
2, 33239, Note_on_c, 0, 63, 0
2, 33240, Note_on_c, 0, 60, 72
2, 33263, Note_on_c, 0, 60, 0
2, 33264, Note_on_c, 0, 69, 73
2, 33287, Note_on_c, 0, 69, 0
2, 33288, Note_on_c, 0, 66, 74
2, 33311, Note_on_c, 0, 66, 0
2, 33312, Note_on_c, 0, 63, 75
2, 33335, Note_on_c, 0, 63, 0
2, 33336, Control_c, 0, 64, 0
2, 33336, Note_on_c, 0, 60, 76
2, 33359, Note_on_c, 0, 60, 0
2, 33360, Control_c, 0, 64, 127
2, 33360, Note_on_c, 0, 71, 77
2, 33383, Note_on_c, 0, 71, 0
2, 33384, Note_on_c, 0, 68, 78
2, 33407, Note_on_c, 0, 68, 0
2, 33408, Note_on_c, 0, 65, 79
2, 33431, Note_on_c, 0, 65, 0
2, 33432, Note_on_c, 0, 62, 80
2, 33455, Note_on_c, 0, 62, 0
2, 33456, Note_on_c, 0, 71, 80
2, 33479, Note_on_c, 0, 71, 0
2, 33480, Note_on_c, 0, 68, 80
2, 33503, Note_on_c, 0, 68, 0
2, 33504, Note_on_c, 0, 65, 80
2, 33527, Note_on_c, 0, 65, 0
2, 33528, Note_on_c, 0, 62, 80
2, 33551, Note_on_c, 0, 62, 0
2, 33552, Note_on_c, 0, 71, 80
2, 33575, Note_on_c, 0, 71, 0
2, 33576, Note_on_c, 0, 68, 80
2, 33599, Note_on_c, 0, 68, 0
2, 33600, Note_on_c, 0, 65, 80
2, 33623, Note_on_c, 0, 65, 0
2, 33624, Note_on_c, 0, 62, 80
2, 33647, Note_on_c, 0, 62, 0
2, 33648, Note_on_c, 0, 71, 80
2, 33671, Note_on_c, 0, 71, 0
2, 33672, Note_on_c, 0, 68, 80
2, 33695, Note_on_c, 0, 68, 0
2, 33696, Note_on_c, 0, 65, 80
2, 33719, Note_on_c, 0, 65, 0
2, 33720, Control_c, 0, 64, 0
2, 33720, Note_on_c, 0, 62, 80
2, 33743, Note_on_c, 0, 62, 0
2, 33744, Control_c, 0, 64, 127
2, 33744, Note_on_c, 0, 73, 80
2, 33767, Note_on_c, 0, 73, 0
2, 33768, Note_on_c, 0, 70, 80
2, 33791, Note_on_c, 0, 70, 0
2, 33792, Note_on_c, 0, 67, 86
2, 33815, Note_on_c, 0, 67, 0
2, 33816, Note_on_c, 0, 64, 86
2, 33839, Note_on_c, 0, 64, 0
2, 33840, Note_on_c, 0, 73, 86
2, 33863, Note_on_c, 0, 73, 0
2, 33864, Note_on_c, 0, 70, 86
2, 33887, Note_on_c, 0, 70, 0
2, 33888, Note_on_c, 0, 67, 86
2, 33911, Note_on_c, 0, 67, 0
2, 33912, Note_on_c, 0, 64, 86
2, 33935, Note_on_c, 0, 64, 0
2, 33936, Note_on_c, 0, 73, 86
2, 33959, Note_on_c, 0, 73, 0
2, 33960, Note_on_c, 0, 70, 86
2, 33983, Note_on_c, 0, 70, 0
2, 33984, Note_on_c, 0, 67, 86
2, 34007, Note_on_c, 0, 67, 0
2, 34008, Note_on_c, 0, 64, 86
2, 34031, Note_on_c, 0, 64, 0
2, 34032, Note_on_c, 0, 73, 86
2, 34055, Note_on_c, 0, 73, 0
2, 34056, Note_on_c, 0, 70, 86
2, 34079, Note_on_c, 0, 70, 0
2, 34080, Note_on_c, 0, 67, 86
2, 34103, Note_on_c, 0, 67, 0
2, 34104, Control_c, 0, 64, 0
2, 34104, Note_on_c, 0, 64, 86
2, 34127, Note_on_c, 0, 64, 0
2, 34128, Control_c, 0, 64, 127
2, 34128, Note_on_c, 0, 76, 86
2, 34151, Note_on_c, 0, 76, 0
2, 34152, Note_on_c, 0, 73, 86
2, 34175, Note_on_c, 0, 73, 0
2, 34176, Note_on_c, 0, 70, 86
2, 34199, Note_on_c, 0, 70, 0
2, 34200, Note_on_c, 0, 67, 86
2, 34223, Note_on_c, 0, 67, 0
2, 34224, Note_on_c, 0, 76, 86
2, 34247, Note_on_c, 0, 76, 0
2, 34248, Note_on_c, 0, 73, 86
2, 34271, Note_on_c, 0, 73, 0
2, 34272, Note_on_c, 0, 70, 86
2, 34295, Note_on_c, 0, 70, 0
2, 34296, Note_on_c, 0, 67, 86
2, 34319, Note_on_c, 0, 67, 0
2, 34320, Note_on_c, 0, 76, 86
2, 34343, Note_on_c, 0, 76, 0
2, 34344, Note_on_c, 0, 73, 86
2, 34367, Note_on_c, 0, 73, 0
2, 34368, Note_on_c, 0, 70, 86
2, 34391, Note_on_c, 0, 70, 0
2, 34392, Note_on_c, 0, 67, 86
2, 34415, Note_on_c, 0, 67, 0
2, 34416, Note_on_c, 0, 76, 86
2, 34439, Note_on_c, 0, 76, 0
2, 34440, Note_on_c, 0, 73, 86
2, 34463, Note_on_c, 0, 73, 0
2, 34464, Note_on_c, 0, 70, 86
2, 34487, Note_on_c, 0, 70, 0
2, 34488, Control_c, 0, 64, 0
2, 34488, Note_on_c, 0, 67, 86
2, 34511, Note_on_c, 0, 67, 0
2, 34512, Control_c, 0, 64, 127
2, 34512, Note_on_c, 0, 71, 86
2, 34535, Note_on_c, 0, 71, 0
2, 34536, Note_on_c, 0, 69, 86
2, 34559, Note_on_c, 0, 69, 0
2, 34560, Note_on_c, 0, 66, 86
2, 34583, Note_on_c, 0, 66, 0
2, 34584, Note_on_c, 0, 59, 86
2, 34607, Note_on_c, 0, 59, 0
2, 34608, Note_on_c, 0, 71, 86
2, 34631, Note_on_c, 0, 71, 0
2, 34632, Note_on_c, 0, 69, 86
2, 34655, Note_on_c, 0, 69, 0
2, 34656, Note_on_c, 0, 66, 86
2, 34679, Note_on_c, 0, 66, 0
2, 34680, Note_on_c, 0, 59, 86
2, 34703, Note_on_c, 0, 59, 0
2, 34704, Note_on_c, 0, 71, 86
2, 34727, Note_on_c, 0, 71, 0
2, 34728, Note_on_c, 0, 69, 86
2, 34751, Note_on_c, 0, 69, 0
2, 34752, Note_on_c, 0, 66, 86
2, 34775, Note_on_c, 0, 66, 0
2, 34776, Note_on_c, 0, 59, 86
2, 34799, Note_on_c, 0, 59, 0
2, 34800, Note_on_c, 0, 71, 86
2, 34823, Note_on_c, 0, 71, 0
2, 34824, Note_on_c, 0, 69, 86
2, 34847, Note_on_c, 0, 69, 0
2, 34848, Note_on_c, 0, 66, 86
2, 34871, Note_on_c, 0, 66, 0
2, 34872, Control_c, 0, 64, 0
2, 34872, Note_on_c, 0, 59, 86
2, 34895, Note_on_c, 0, 59, 0
2, 34896, Control_c, 0, 64, 127
2, 34896, Note_on_c, 0, 69, 86
2, 34919, Note_on_c, 0, 69, 0
2, 34920, Note_on_c, 0, 66, 86
2, 34943, Note_on_c, 0, 66, 0
2, 34944, Note_on_c, 0, 63, 86
2, 34967, Note_on_c, 0, 63, 0
2, 34968, Note_on_c, 0, 60, 86
2, 34991, Note_on_c, 0, 60, 0
2, 34992, Note_on_c, 0, 69, 86
2, 35015, Note_on_c, 0, 69, 0
2, 35016, Note_on_c, 0, 66, 86
2, 35039, Note_on_c, 0, 66, 0
2, 35040, Note_on_c, 0, 63, 86
2, 35063, Note_on_c, 0, 63, 0
2, 35064, Note_on_c, 0, 60, 86
2, 35087, Note_on_c, 0, 60, 0
2, 35088, Note_on_c, 0, 69, 86
2, 35111, Note_on_c, 0, 69, 0
2, 35112, Note_on_c, 0, 66, 86
2, 35135, Note_on_c, 0, 66, 0
2, 35136, Note_on_c, 0, 63, 86
2, 35159, Note_on_c, 0, 63, 0
2, 35160, Note_on_c, 0, 60, 86
2, 35183, Note_on_c, 0, 60, 0
2, 35184, Note_on_c, 0, 69, 86
2, 35207, Note_on_c, 0, 69, 0
2, 35208, Note_on_c, 0, 66, 86
2, 35231, Note_on_c, 0, 66, 0
2, 35232, Note_on_c, 0, 63, 86
2, 35255, Note_on_c, 0, 63, 0
2, 35256, Note_on_c, 0, 60, 86
2, 35279, Note_on_c, 0, 60, 0
2, 35280, Note_on_c, 0, 69, 86
2, 35295, Note_on_c, 0, 69, 0
2, 35296, Note_on_c, 0, 66, 86
2, 35311, Note_on_c, 0, 66, 0
2, 35312, Note_on_c, 0, 63, 86
2, 35327, Note_on_c, 0, 63, 0
2, 35328, Control_c, 0, 64, 0
2, 35328, Note_on_c, 0, 59, 86
2, 35384, Note_on_c, 0, 59, 0
2, 35384, Note_on_c, 0, 63, 86
2, 35392, Note_on_c, 0, 63, 0
2, 35392, Note_on_c, 0, 66, 86
2, 35400, Note_on_c, 0, 66, 0
2, 35400, Note_on_c, 0, 69, 86
2, 35408, Note_on_c, 0, 69, 0
2, 35408, Note_on_c, 0, 66, 86
2, 35416, Note_on_c, 0, 66, 0
2, 35416, Note_on_c, 0, 63, 86
2, 35424, Note_on_c, 0, 63, 0
2, 35424, Control_c, 0, 64, 0
2, 35424, Note_on_c, 0, 59, 86
2, 35469, Note_on_c, 0, 59, 0
2, 35472, Note_on_c, 0, 75, 86
2, 35472, Note_on_c, 0, 66, 86
2, 35492, Note_on_c, 0, 75, 0
2, 35492, Note_on_c, 0, 66, 0
2, 35520, Note_on_c, 0, 75, 102
2, 35520, Note_on_c, 0, 66, 102
2, 35616, Note_on_c, 0, 75, 0
2, 35616, Note_on_c, 0, 66, 0
2, 35616, Note_on_c, 0, 76, 86
2, 35616, Note_on_c, 0, 64, 86
2, 35636, Note_on_c, 0, 76, 0
2, 35636, Note_on_c, 0, 64, 0
2, 35664, Note_on_c, 0, 68, 64
2, 35687, Note_on_c, 0, 68, 0
2, 35688, Note_on_c, 0, 74, 64
2, 35711, Note_on_c, 0, 74, 0
2, 35712, Note_on_c, 0, 69, 64
2, 35735, Note_on_c, 0, 69, 0
2, 35760, Note_on_c, 0, 65, 64
2, 35783, Note_on_c, 0, 65, 0
2, 35808, Note_on_c, 0, 66, 64
2, 35831, Note_on_c, 0, 66, 0
2, 35856, Note_on_c, 0, 56, 64
2, 35879, Note_on_c, 0, 56, 0
2, 35904, Note_on_c, 0, 57, 64
2, 35927, Note_on_c, 0, 57, 0
2, 35952, Note_on_c, 0, 61, 64
2, 35975, Note_on_c, 0, 61, 0
2, 36000, Note_on_c, 0, 59, 64
2, 36023, Note_on_c, 0, 59, 0
2, 36048, Note_on_c, 0, 57, 64
2, 36071, Note_on_c, 0, 57, 0
2, 36096, Note_on_c, 0, 59, 80
2, 36152, Note_on_c, 0, 59, 0
2, 36152, Note_on_c, 0, 63, 80
2, 36160, Note_on_c, 0, 63, 0
2, 36160, Note_on_c, 0, 66, 80
2, 36168, Note_on_c, 0, 66, 0
2, 36168, Note_on_c, 0, 69, 80
2, 36176, Note_on_c, 0, 69, 0
2, 36176, Note_on_c, 0, 66, 80
2, 36184, Note_on_c, 0, 66, 0
2, 36184, Note_on_c, 0, 63, 80
2, 36192, Note_on_c, 0, 63, 0
2, 36192, Note_on_c, 0, 59, 80
2, 36237, Note_on_c, 0, 59, 0
2, 36240, Note_on_c, 0, 75, 80
2, 36240, Note_on_c, 0, 66, 80
2, 36260, Note_on_c, 0, 75, 0
2, 36260, Note_on_c, 0, 66, 0
2, 36288, Note_on_c, 0, 75, 96
2, 36288, Note_on_c, 0, 66, 96
2, 36384, Note_on_c, 0, 75, 0
2, 36384, Note_on_c, 0, 66, 0
2, 36384, Note_on_c, 0, 76, 80
2, 36384, Note_on_c, 0, 64, 80
2, 36404, Note_on_c, 0, 76, 0
2, 36404, Note_on_c, 0, 64, 0
2, 36432, Note_on_c, 0, 56, 86
2, 36434, Note_on_c, 0, 59, 86
2, 36436, Note_on_c, 0, 64, 86
2, 36438, Note_on_c, 0, 71, 86
2, 36440, Note_on_c, 0, 74, 86
2, 36452, Note_on_c, 0, 74, 0
2, 36452, Note_on_c, 0, 71, 0
2, 36452, Note_on_c, 0, 64, 0
2, 36452, Note_on_c, 0, 59, 0
2, 36452, Note_on_c, 0, 56, 0
2, 36480, Note_on_c, 0, 57, 80
2, 36482, Note_on_c, 0, 61, 80
2, 36484, Note_on_c, 0, 64, 80
2, 36486, Note_on_c, 0, 69, 80
2, 36488, Note_on_c, 0, 73, 80
2, 36500, Note_on_c, 0, 73, 0
2, 36500, Note_on_c, 0, 69, 0
2, 36500, Note_on_c, 0, 64, 0
2, 36500, Note_on_c, 0, 61, 0
2, 36500, Note_on_c, 0, 57, 0
2, 36528, Note_on_c, 0, 59, 75
2, 36530, Note_on_c, 0, 62, 75
2, 36532, Note_on_c, 0, 64, 75
2, 36534, Note_on_c, 0, 68, 75
2, 36536, Note_on_c, 0, 71, 75
2, 36548, Note_on_c, 0, 71, 0
2, 36548, Note_on_c, 0, 68, 0
2, 36548, Note_on_c, 0, 64, 0
2, 36548, Note_on_c, 0, 62, 0
2, 36548, Note_on_c, 0, 59, 0
2, 36576, Note_on_c, 0, 68, 75
2, 36588, Note_on_c, 0, 68, 0
2, 36588, Note_on_c, 0, 69, 75
2, 36621, Note_on_c, 0, 69, 0
2, 36624, Note_on_c, 0, 73, 75
2, 36639, Note_on_c, 0, 73, 0
2, 36640, Note_on_c, 0, 69, 75
2, 36655, Note_on_c, 0, 69, 0
2, 36656, Note_on_c, 0, 66, 75
2, 36671, Note_on_c, 0, 66, 0
2, 36672, Note_on_c, 0, 68, 75
2, 36672, Note_on_c, 0, 64, 75
2, 36768, Note_on_c, 0, 64, 0
2, 36768, Note_on_c, 0, 71, 75
2, 36813, Note_on_c, 0, 71, 0
2, 36813, Note_on_c, 0, 68, 0
2, 36816, Note_on_c, 0, 63, 75
2, 36816, Note_on_c, 0, 57, 75
2, 36861, Note_on_c, 0, 63, 0
2, 36861, Note_on_c, 0, 57, 0
2, 36864, Note_on_c, 0, 64, 75
2, 36864, Note_on_c, 0, 56, 75
2, 36953, Note_on_c, 0, 64, 0
2, 36953, Note_on_c, 0, 56, 0
2, 36960, Note_on_c, 0, 64, 64
2, 36984, Note_on_c, 0, 64, 0
2, 36984, Note_on_c, 0, 63, 64
2, 37007, Note_on_c, 0, 63, 0
2, 37008, Note_on_c, 0, 64, 64
2, 37032, Note_on_c, 0, 64, 0
2, 37032, Note_on_c, 0, 68, 64
2, 37055, Note_on_c, 0, 68, 0
2, 37056, Note_on_c, 0, 68, 64
2, 37080, Note_on_c, 0, 68, 0
2, 37080, Note_on_c, 0, 61, 65
2, 37103, Note_on_c, 0, 61, 0
2, 37104, Note_on_c, 0, 61, 66
2, 37128, Note_on_c, 0, 61, 0
2, 37128, Note_on_c, 0, 69, 67
2, 37151, Note_on_c, 0, 69, 0
2, 37152, Note_on_c, 0, 69, 68
2, 37176, Note_on_c, 0, 69, 0
2, 37176, Note_on_c, 0, 63, 69
2, 37199, Note_on_c, 0, 63, 0
2, 37200, Note_on_c, 0, 63, 70
2, 37224, Note_on_c, 0, 63, 0
2, 37224, Note_on_c, 0, 71, 71
2, 37247, Note_on_c, 0, 71, 0
2, 37248, Note_on_c, 0, 69, 72
2, 37272, Note_on_c, 0, 69, 0
2, 37272, Note_on_c, 0, 68, 73
2, 37295, Note_on_c, 0, 68, 0
2, 37296, Note_on_c, 0, 76, 74
2, 37320, Note_on_c, 0, 76, 0
2, 37320, Note_on_c, 0, 75, 75
2, 37343, Note_on_c, 0, 75, 0
2, 37344, Note_on_c, 0, 75, 76
2, 37368, Note_on_c, 0, 75, 0
2, 37368, Note_on_c, 0, 73, 77
2, 37391, Note_on_c, 0, 73, 0
2, 37392, Note_on_c, 0, 73, 78
2, 37416, Note_on_c, 0, 73, 0
2, 37416, Note_on_c, 0, 71, 80
2, 37439, Note_on_c, 0, 71, 0
2, 37440, Note_on_c, 0, 71, 79
2, 37464, Note_on_c, 0, 71, 0
2, 37464, Note_on_c, 0, 69, 78
2, 37487, Note_on_c, 0, 69, 0
2, 37488, Note_on_c, 0, 69, 77
2, 37512, Note_on_c, 0, 69, 0
2, 37512, Note_on_c, 0, 68, 76
2, 37535, Note_on_c, 0, 68, 0
2, 37536, Note_on_c, 0, 68, 76
2, 37560, Note_on_c, 0, 68, 0
2, 37560, Note_on_c, 0, 66, 75
2, 37583, Note_on_c, 0, 66, 0
2, 37584, Note_on_c, 0, 66, 74
2, 37608, Note_on_c, 0, 66, 0
2, 37608, Note_on_c, 0, 64, 73
2, 37631, Note_on_c, 0, 64, 0
2, 37632, Note_on_c, 0, 64, 72
2, 37765, Note_on_c, 0, 64, 0
2, 37776, Note_on_c, 0, 68, 68
2, 37782, Note_on_c, 0, 68, 0
2, 37782, Note_on_c, 0, 66, 68
2, 37799, Note_on_c, 0, 66, 0
2, 37800, Note_on_c, 0, 64, 67
2, 37823, Note_on_c, 0, 64, 0
2, 37824, Note_on_c, 0, 64, 66
2, 37891, Note_on_c, 0, 64, 0
2, 37896, Note_on_c, 0, 69, 64
2, 37908, Note_on_c, 0, 69, 0
2, 37908, Note_on_c, 0, 73, 64
2, 37920, Note_on_c, 0, 73, 0
2, 37920, Note_on_c, 0, 76, 75
2, 37940, Note_on_c, 0, 76, 0
2, 37968, Note_on_c, 0, 76, 75
2, 37988, Note_on_c, 0, 76, 0
2, 38016, Note_on_c, 0, 76, 75
2, 38055, Note_on_c, 0, 76, 0
2, 38160, Note_on_c, 0, 73, 64
2, 38172, Note_on_c, 0, 73, 0
2, 38172, Note_on_c, 0, 69, 64
2, 38206, Note_on_c, 0, 69, 0
2, 38208, Note_on_c, 0, 71, 64
2, 38220, Note_on_c, 0, 71, 0
2, 38220, Note_on_c, 0, 68, 64
2, 38254, Note_on_c, 0, 68, 0
2, 38256, Note_on_c, 0, 69, 64
2, 38268, Note_on_c, 0, 69, 0
2, 38268, Note_on_c, 0, 66, 64
2, 38302, Note_on_c, 0, 66, 0
2, 38304, Note_on_c, 0, 68, 64
2, 38316, Note_on_c, 0, 68, 0
2, 38316, Note_on_c, 0, 64, 64
2, 38350, Note_on_c, 0, 64, 0
2, 38352, Note_on_c, 0, 63, 64
2, 38364, Note_on_c, 0, 63, 0
2, 38364, Note_on_c, 0, 57, 64
2, 38398, Note_on_c, 0, 57, 0
2, 38400, Note_on_c, 0, 64, 64
2, 38400, Note_on_c, 0, 56, 64
2, 38445, Note_on_c, 0, 64, 0
2, 38445, Note_on_c, 0, 56, 0
2, 38448, Note_on_c, 0, 63, 64
2, 38460, Note_on_c, 0, 63, 0
2, 38460, Note_on_c, 0, 57, 64
2, 38494, Note_on_c, 0, 57, 0
2, 38496, Note_on_c, 0, 64, 64
2, 38496, Note_on_c, 0, 56, 64
2, 38541, Note_on_c, 0, 64, 0
2, 38541, Note_on_c, 0, 56, 0
2, 38544, Note_on_c, 0, 63, 64
2, 38556, Note_on_c, 0, 63, 0
2, 38556, Note_on_c, 0, 57, 64
2, 38590, Note_on_c, 0, 57, 0
2, 38592, Note_on_c, 0, 64, 64
2, 38592, Note_on_c, 0, 56, 64
2, 38681, Note_on_c, 0, 64, 0
2, 38681, Note_on_c, 0, 56, 0
2, 38784, Note_on_c, 0, 68, 80
2, 38792, Note_on_c, 0, 75, 80
2, 38800, Note_on_c, 0, 80, 80
2, 38877, Note_on_c, 0, 80, 0
2, 38877, Note_on_c, 0, 75, 0
2, 38877, Note_on_c, 0, 68, 0
2, 38880, Note_on_c, 0, 75, 75
2, 38903, Note_on_c, 0, 75, 0
2, 38904, Note_on_c, 0, 76, 75
2, 38912, Note_on_c, 0, 76, 0
2, 38912, Note_on_c, 0, 75, 75
2, 38920, Note_on_c, 0, 75, 0
2, 38920, Note_on_c, 0, 73, 75
2, 38928, Note_on_c, 0, 73, 0
2, 38928, Note_on_c, 0, 75, 75
2, 38951, Note_on_c, 0, 75, 0
2, 38952, Note_on_c, 0, 78, 75
2, 38975, Note_on_c, 0, 78, 0
2, 38976, Note_on_c, 0, 78, 75
2, 39000, Note_on_c, 0, 78, 0
2, 39000, Note_on_c, 0, 76, 75
2, 39023, Note_on_c, 0, 76, 0
2, 39024, Note_on_c, 0, 76, 75
2, 39048, Note_on_c, 0, 76, 0
2, 39048, Note_on_c, 0, 75, 75
2, 39071, Note_on_c, 0, 75, 0
2, 39072, Note_on_c, 0, 75, 75
2, 39096, Note_on_c, 0, 75, 0
2, 39096, Note_on_c, 0, 73, 75
2, 39119, Note_on_c, 0, 73, 0
2, 39120, Note_on_c, 0, 73, 75
2, 39144, Note_on_c, 0, 73, 0
2, 39144, Note_on_c, 0, 75, 75
2, 39167, Note_on_c, 0, 75, 0
2, 39168, Note_on_c, 0, 78, 75
2, 39192, Note_on_c, 0, 78, 0
2, 39192, Note_on_c, 0, 76, 75
2, 39215, Note_on_c, 0, 76, 0
2, 39216, Note_on_c, 0, 76, 75
2, 39240, Note_on_c, 0, 76, 0
2, 39240, Note_on_c, 0, 75, 75
2, 39263, Note_on_c, 0, 75, 0
2, 39264, Note_on_c, 0, 75, 75
2, 39288, Note_on_c, 0, 75, 0
2, 39288, Note_on_c, 0, 73, 75
2, 39311, Note_on_c, 0, 73, 0
2, 39312, Note_on_c, 0, 73, 75
2, 39336, Note_on_c, 0, 73, 0
2, 39336, Note_on_c, 0, 75, 75
2, 39359, Note_on_c, 0, 75, 0
2, 39360, Note_on_c, 0, 78, 75
2, 39384, Note_on_c, 0, 78, 0
2, 39384, Note_on_c, 0, 76, 75
2, 39407, Note_on_c, 0, 76, 0
2, 39408, Note_on_c, 0, 76, 75
2, 39432, Note_on_c, 0, 76, 0
2, 39432, Note_on_c, 0, 75, 75
2, 39455, Note_on_c, 0, 75, 0
2, 39456, Note_on_c, 0, 75, 75
2, 39480, Note_on_c, 0, 75, 0
2, 39480, Note_on_c, 0, 73, 75
2, 39503, Note_on_c, 0, 73, 0
2, 39504, Note_on_c, 0, 73, 75
2, 39528, Note_on_c, 0, 73, 0
2, 39528, Note_on_c, 0, 71, 75
2, 39551, Note_on_c, 0, 71, 0
2, 39552, Note_on_c, 0, 71, 75
2, 39576, Note_on_c, 0, 71, 0
2, 39576, Note_on_c, 0, 70, 75
2, 39599, Note_on_c, 0, 70, 0
2, 39600, Note_on_c, 0, 70, 75
2, 39624, Note_on_c, 0, 70, 0
2, 39624, Note_on_c, 0, 80, 75
2, 39647, Note_on_c, 0, 80, 0
2, 39648, Note_on_c, 0, 80, 75
2, 39672, Note_on_c, 0, 80, 0
2, 39672, Note_on_c, 0, 78, 75
2, 39695, Note_on_c, 0, 78, 0
2, 39696, Note_on_c, 0, 78, 75
2, 39720, Note_on_c, 0, 78, 0
2, 39720, Note_on_c, 0, 76, 75
2, 39743, Note_on_c, 0, 76, 0
2, 39744, Note_on_c, 0, 76, 75
2, 39768, Note_on_c, 0, 76, 0
2, 39768, Note_on_c, 0, 75, 75
2, 39791, Note_on_c, 0, 75, 0
2, 39792, Note_on_c, 0, 75, 75
2, 39816, Note_on_c, 0, 75, 0
2, 39816, Note_on_c, 0, 73, 75
2, 39839, Note_on_c, 0, 73, 0
2, 39840, Note_on_c, 0, 73, 75
2, 39864, Note_on_c, 0, 73, 0
2, 39864, Note_on_c, 0, 71, 75
2, 39887, Note_on_c, 0, 71, 0
2, 39888, Note_on_c, 0, 71, 75
2, 39912, Note_on_c, 0, 71, 0
2, 39912, Note_on_c, 0, 69, 75
2, 39935, Note_on_c, 0, 69, 0
2, 39936, Note_on_c, 0, 69, 75
2, 39960, Note_on_c, 0, 69, 0
2, 39960, Note_on_c, 0, 68, 75
2, 39983, Note_on_c, 0, 68, 0
2, 39984, Note_on_c, 0, 68, 75
2, 40008, Note_on_c, 0, 68, 0
2, 40008, Note_on_c, 0, 78, 75
2, 40031, Note_on_c, 0, 78, 0
2, 40032, Note_on_c, 0, 78, 75
2, 40056, Note_on_c, 0, 78, 0
2, 40056, Note_on_c, 0, 76, 75
2, 40079, Note_on_c, 0, 76, 0
2, 40080, Note_on_c, 0, 76, 75
2, 40104, Note_on_c, 0, 76, 0
2, 40104, Note_on_c, 0, 75, 75
2, 40127, Note_on_c, 0, 75, 0
2, 40128, Note_on_c, 0, 75, 75
2, 40152, Note_on_c, 0, 75, 0
2, 40152, Note_on_c, 0, 73, 75
2, 40175, Note_on_c, 0, 73, 0
2, 40176, Note_on_c, 0, 73, 75
2, 40200, Note_on_c, 0, 73, 0
2, 40200, Note_on_c, 0, 80, 75
2, 40223, Note_on_c, 0, 80, 0
2, 40224, Note_on_c, 0, 80, 75
2, 40248, Note_on_c, 0, 80, 0
2, 40248, Note_on_c, 0, 78, 75
2, 40271, Note_on_c, 0, 78, 0
2, 40272, Note_on_c, 0, 78, 75
2, 40296, Note_on_c, 0, 78, 0
2, 40296, Note_on_c, 0, 76, 75
2, 40319, Note_on_c, 0, 76, 0
2, 40320, Note_on_c, 0, 76, 75
2, 40344, Note_on_c, 0, 76, 0
2, 40344, Note_on_c, 0, 75, 75
2, 40367, Note_on_c, 0, 75, 0
2, 40368, Note_on_c, 0, 75, 75
2, 40392, Note_on_c, 0, 75, 0
2, 40392, Note_on_c, 0, 81, 75
2, 40415, Note_on_c, 0, 81, 0
2, 40416, Note_on_c, 0, 81, 75
2, 40440, Note_on_c, 0, 81, 0
2, 40440, Note_on_c, 0, 80, 75
2, 40463, Note_on_c, 0, 80, 0
2, 40464, Note_on_c, 0, 80, 75
2, 40488, Note_on_c, 0, 80, 0
2, 40488, Note_on_c, 0, 78, 75
2, 40511, Note_on_c, 0, 78, 0
2, 40512, Note_on_c, 0, 76, 75
2, 40645, Note_on_c, 0, 76, 0
2, 40656, Note_on_c, 0, 80, 75
2, 40662, Note_on_c, 0, 80, 0
2, 40662, Note_on_c, 0, 78, 75
2, 40701, Note_on_c, 0, 78, 0
2, 40704, Note_on_c, 0, 76, 75
2, 40727, Note_on_c, 0, 76, 0
2, 40728, Note_on_c, 0, 74, 75
2, 40751, Note_on_c, 0, 74, 0
2, 40752, Note_on_c, 0, 73, 75
2, 40775, Note_on_c, 0, 73, 0
2, 40776, Note_on_c, 0, 74, 75
2, 40799, Note_on_c, 0, 74, 0
2, 40800, Note_on_c, 0, 86, 91
2, 40919, Note_on_c, 0, 86, 0
2, 40920, Note_on_c, 0, 85, 75
2, 40943, Note_on_c, 0, 85, 0
2, 40944, Note_on_c, 0, 83, 75
2, 40967, Note_on_c, 0, 83, 0
2, 40968, Note_on_c, 0, 81, 75
2, 40991, Note_on_c, 0, 81, 0
2, 40992, Note_on_c, 0, 80, 75
2, 41015, Note_on_c, 0, 80, 0
2, 41016, Note_on_c, 0, 78, 75
2, 41039, Note_on_c, 0, 78, 0
2, 41040, Note_on_c, 0, 76, 75
2, 41063, Note_on_c, 0, 76, 0
2, 41064, Note_on_c, 0, 74, 75
2, 41087, Note_on_c, 0, 74, 0
2, 41088, Note_on_c, 0, 73, 80
2, 41096, Note_on_c, 0, 76, 80
2, 41104, Note_on_c, 0, 81, 80
2, 41181, Note_on_c, 0, 81, 0
2, 41181, Note_on_c, 0, 76, 0
2, 41181, Note_on_c, 0, 73, 0
2, 41184, Note_on_c, 0, 76, 75
2, 41207, Note_on_c, 0, 76, 0
2, 41208, Note_on_c, 0, 78, 75
2, 41216, Note_on_c, 0, 78, 0
2, 41216, Note_on_c, 0, 76, 75
2, 41224, Note_on_c, 0, 76, 0
2, 41224, Note_on_c, 0, 75, 75
2, 41232, Note_on_c, 0, 75, 0
2, 41232, Note_on_c, 0, 76, 75
2, 41255, Note_on_c, 0, 76, 0
2, 41256, Note_on_c, 0, 78, 75
2, 41279, Note_on_c, 0, 78, 0
2, 41280, Note_on_c, 0, 76, 75
2, 41303, Note_on_c, 0, 76, 0
2, 41304, Note_on_c, 0, 74, 75
2, 41327, Note_on_c, 0, 74, 0
2, 41328, Note_on_c, 0, 73, 75
2, 41351, Note_on_c, 0, 73, 0
2, 41352, Note_on_c, 0, 74, 75
2, 41375, Note_on_c, 0, 74, 0
2, 41376, Note_on_c, 0, 74, 75
2, 41399, Note_on_c, 0, 74, 0
2, 41400, Note_on_c, 0, 73, 75
2, 41423, Note_on_c, 0, 73, 0
2, 41424, Note_on_c, 0, 71, 75
2, 41447, Note_on_c, 0, 71, 0
2, 41448, Note_on_c, 0, 73, 75
2, 41471, Note_on_c, 0, 73, 0
2, 41472, Note_on_c, 0, 73, 75
2, 41495, Note_on_c, 0, 73, 0
2, 41496, Note_on_c, 0, 71, 75
2, 41519, Note_on_c, 0, 71, 0
2, 41520, Note_on_c, 0, 69, 75
2, 41543, Note_on_c, 0, 69, 0
2, 41544, Note_on_c, 0, 68, 75
2, 41567, Note_on_c, 0, 68, 0
2, 41568, Note_on_c, 0, 69, 75
2, 41613, Note_on_c, 0, 69, 0
2, 41616, Note_on_c, 0, 74, 75
2, 41616, Note_on_c, 0, 66, 75
2, 41636, Note_on_c, 0, 74, 0
2, 41636, Note_on_c, 0, 66, 0
2, 41664, Note_on_c, 0, 74, 91
2, 41664, Note_on_c, 0, 66, 91
2, 41760, Note_on_c, 0, 74, 0
2, 41760, Note_on_c, 0, 66, 0
2, 41760, Note_on_c, 0, 73, 75
2, 41760, Note_on_c, 0, 64, 75
2, 41780, Note_on_c, 0, 73, 0
2, 41780, Note_on_c, 0, 64, 0
2, 41808, Note_on_c, 0, 69, 75
2, 41823, Note_on_c, 0, 69, 0
2, 41824, Note_on_c, 0, 74, 75
2, 41839, Note_on_c, 0, 74, 0
2, 41840, Note_on_c, 0, 78, 75
2, 41855, Note_on_c, 0, 78, 0
2, 41856, Note_on_c, 0, 78, 75
2, 41856, Note_on_c, 0, 74, 75
2, 41952, Note_on_c, 0, 78, 0
2, 41952, Note_on_c, 0, 74, 0
2, 41952, Note_on_c, 0, 76, 75
2, 41952, Note_on_c, 0, 73, 75
2, 41997, Note_on_c, 0, 76, 0
2, 41997, Note_on_c, 0, 73, 0
2, 42000, Note_on_c, 0, 69, 64
2, 42023, Note_on_c, 0, 69, 0
2, 42024, Note_on_c, 0, 81, 64
2, 42034, Note_on_c, 0, 81, 0
2, 42048, Note_on_c, 0, 81, 80
2, 42192, Note_on_c, 0, 81, 0
2, 42192, Note_on_c, 0, 70, 66
2, 42215, Note_on_c, 0, 70, 0
2, 42216, Note_on_c, 0, 79, 66
2, 42226, Note_on_c, 0, 79, 0
2, 42240, Note_on_c, 0, 79, 82
2, 42384, Note_on_c, 0, 79, 0
2, 42384, Note_on_c, 0, 71, 68
2, 42407, Note_on_c, 0, 71, 0
2, 42408, Note_on_c, 0, 83, 68
2, 42418, Note_on_c, 0, 83, 0
2, 42432, Note_on_c, 0, 83, 84
2, 42576, Note_on_c, 0, 83, 0
2, 42576, Note_on_c, 0, 72, 70
2, 42599, Note_on_c, 0, 72, 0
2, 42600, Note_on_c, 0, 81, 70
2, 42610, Note_on_c, 0, 81, 0
2, 42624, Note_on_c, 0, 81, 87
2, 42768, Note_on_c, 0, 81, 0
2, 42768, Note_on_c, 0, 73, 72
2, 42791, Note_on_c, 0, 73, 0
2, 42792, Note_on_c, 0, 85, 73
2, 42802, Note_on_c, 0, 85, 0
2, 42816, Note_on_c, 0, 85, 89
2, 42960, Note_on_c, 0, 85, 0
2, 42960, Note_on_c, 0, 74, 75
2, 42983, Note_on_c, 0, 74, 0
2, 42984, Note_on_c, 0, 86, 75
2, 42994, Note_on_c, 0, 86, 0
2, 43008, Note_on_c, 0, 86, 91
2, 43152, Note_on_c, 0, 86, 0
2, 43152, Note_on_c, 0, 75, 77
2, 43175, Note_on_c, 0, 75, 0
2, 43176, Note_on_c, 0, 87, 77
2, 43186, Note_on_c, 0, 87, 0
2, 43200, Note_on_c, 0, 87, 93
2, 43746, Note_on_c, 0, 87, 0
2, 43776, Note_on_c, 0, 63, 80
2, 43832, Note_on_c, 0, 63, 0
2, 43832, Note_on_c, 0, 67, 80
2, 43840, Note_on_c, 0, 67, 0
2, 43840, Note_on_c, 0, 70, 80
2, 43848, Note_on_c, 0, 70, 0
2, 43848, Note_on_c, 0, 73, 80
2, 43856, Note_on_c, 0, 73, 0
2, 43856, Note_on_c, 0, 70, 80
2, 43864, Note_on_c, 0, 70, 0
2, 43864, Note_on_c, 0, 67, 80
2, 43872, Note_on_c, 0, 67, 0
2, 43872, Note_on_c, 0, 63, 80
2, 43917, Note_on_c, 0, 63, 0
2, 43920, Note_on_c, 0, 79, 64
2, 43920, Note_on_c, 0, 75, 64
2, 43940, Note_on_c, 0, 79, 0
2, 43940, Note_on_c, 0, 75, 0
2, 43968, Note_on_c, 0, 79, 80
2, 43968, Note_on_c, 0, 75, 80
2, 44064, Note_on_c, 0, 79, 0
2, 44064, Note_on_c, 0, 80, 64
2, 44084, Note_on_c, 0, 80, 0
2, 44084, Note_on_c, 0, 75, 0
2, 44160, Note_on_c, 0, 63, 80
2, 44216, Note_on_c, 0, 63, 0
2, 44216, Note_on_c, 0, 67, 80
2, 44224, Note_on_c, 0, 67, 0
2, 44224, Note_on_c, 0, 70, 80
2, 44232, Note_on_c, 0, 70, 0
2, 44232, Note_on_c, 0, 73, 80
2, 44240, Note_on_c, 0, 73, 0
2, 44240, Note_on_c, 0, 70, 80
2, 44248, Note_on_c, 0, 70, 0
2, 44248, Note_on_c, 0, 67, 80
2, 44256, Note_on_c, 0, 67, 0
2, 44256, Note_on_c, 0, 63, 80
2, 44301, Note_on_c, 0, 63, 0
2, 44304, Note_on_c, 0, 76, 64
2, 44324, Note_on_c, 0, 76, 0
2, 44352, Note_on_c, 0, 76, 80
2, 44352, Note_on_c, 0, 73, 80
2, 44448, Note_on_c, 0, 76, 0
2, 44448, Note_on_c, 0, 73, 0
2, 44448, Note_on_c, 0, 75, 64
2, 44448, Note_on_c, 0, 71, 64
2, 44468, Note_on_c, 0, 75, 0
2, 44468, Note_on_c, 0, 71, 0
2, 44496, Note_on_c, 0, 88, 64
2, 44496, Note_on_c, 0, 85, 64
2, 44516, Note_on_c, 0, 88, 0
2, 44516, Note_on_c, 0, 85, 0
2, 44544, Note_on_c, 0, 88, 80
2, 44544, Note_on_c, 0, 85, 80
2, 44640, Note_on_c, 0, 88, 0
2, 44640, Note_on_c, 0, 85, 0
2, 44640, Note_on_c, 0, 87, 64
2, 44640, Note_on_c, 0, 83, 64
2, 44660, Note_on_c, 0, 87, 0
2, 44660, Note_on_c, 0, 83, 0
2, 44760, Note_on_c, 0, 69, 64
2, 44783, Note_on_c, 0, 69, 0
2, 44808, Note_on_c, 0, 73, 64
2, 44831, Note_on_c, 0, 73, 0
2, 44856, Note_on_c, 0, 71, 64
2, 44879, Note_on_c, 0, 71, 0
2, 44904, Note_on_c, 0, 67, 64
2, 44927, Note_on_c, 0, 67, 0
2, 44928, Control_c, 0, 64, 127
2, 44952, Note_on_c, 0, 68, 64
2, 44975, Note_on_c, 0, 68, 0
2, 45000, Note_on_c, 0, 68, 64
2, 45023, Note_on_c, 0, 68, 0
2, 45048, Note_on_c, 0, 68, 64
2, 45071, Note_on_c, 0, 68, 0
2, 45096, Note_on_c, 0, 68, 64
2, 45119, Note_on_c, 0, 68, 0
2, 45144, Note_on_c, 0, 68, 64
2, 45167, Note_on_c, 0, 68, 0
2, 45168, Note_on_c, 0, 80, 64
2, 45191, Note_on_c, 0, 80, 0
2, 45192, Note_on_c, 0, 68, 64
2, 45215, Note_on_c, 0, 68, 0
2, 45240, Note_on_c, 0, 68, 64
2, 45263, Note_on_c, 0, 68, 0
2, 45288, Note_on_c, 0, 68, 64
2, 45311, Note_on_c, 0, 68, 0
2, 45312, Control_c, 0, 64, 0
2, 45312, Control_c, 0, 64, 127
2, 45336, Note_on_c, 0, 69, 64
2, 45359, Note_on_c, 0, 69, 0
2, 45384, Note_on_c, 0, 69, 64
2, 45407, Note_on_c, 0, 69, 0
2, 45432, Note_on_c, 0, 69, 64
2, 45455, Note_on_c, 0, 69, 0
2, 45480, Note_on_c, 0, 69, 64
2, 45503, Note_on_c, 0, 69, 0
2, 45528, Note_on_c, 0, 69, 64
2, 45551, Note_on_c, 0, 69, 0
2, 45552, Note_on_c, 0, 81, 64
2, 45575, Note_on_c, 0, 81, 0
2, 45576, Note_on_c, 0, 69, 64
2, 45599, Note_on_c, 0, 69, 0
2, 45624, Note_on_c, 0, 69, 64
2, 45647, Note_on_c, 0, 69, 0
2, 45672, Note_on_c, 0, 69, 64
2, 45695, Note_on_c, 0, 69, 0
2, 45696, Control_c, 0, 64, 0
2, 45696, Note_on_c, 0, 68, 80
2, 45704, Note_on_c, 0, 71, 80
2, 45712, Note_on_c, 0, 76, 80
2, 45789, Note_on_c, 0, 76, 0
2, 45789, Note_on_c, 0, 71, 0
2, 45789, Note_on_c, 0, 68, 0
2, 45792, Note_on_c, 0, 71, 75
2, 45815, Note_on_c, 0, 71, 0
2, 45816, Note_on_c, 0, 73, 75
2, 45824, Note_on_c, 0, 73, 0
2, 45824, Note_on_c, 0, 71, 75
2, 45832, Note_on_c, 0, 71, 0
2, 45832, Note_on_c, 0, 69, 75
2, 45840, Note_on_c, 0, 69, 0
2, 45840, Note_on_c, 0, 71, 75
2, 45863, Note_on_c, 0, 71, 0
2, 45864, Note_on_c, 0, 73, 75
2, 45887, Note_on_c, 0, 73, 0
2, 45888, Note_on_c, 0, 71, 75
2, 45911, Note_on_c, 0, 71, 0
2, 45912, Note_on_c, 0, 69, 75
2, 45935, Note_on_c, 0, 69, 0
2, 45936, Note_on_c, 0, 68, 75
2, 45959, Note_on_c, 0, 68, 0
2, 45960, Note_on_c, 0, 69, 75
2, 45983, Note_on_c, 0, 69, 0
2, 45984, Note_on_c, 0, 69, 75
2, 46007, Note_on_c, 0, 69, 0
2, 46008, Note_on_c, 0, 68, 75
2, 46031, Note_on_c, 0, 68, 0
2, 46032, Note_on_c, 0, 66, 75
2, 46055, Note_on_c, 0, 66, 0
2, 46056, Note_on_c, 0, 68, 75
2, 46079, Note_on_c, 0, 68, 0
2, 46080, Note_on_c, 0, 68, 75
2, 46103, Note_on_c, 0, 68, 0
2, 46104, Note_on_c, 0, 66, 75
2, 46127, Note_on_c, 0, 66, 0
2, 46128, Note_on_c, 0, 64, 75
2, 46151, Note_on_c, 0, 64, 0
2, 46152, Note_on_c, 0, 63, 75
2, 46175, Note_on_c, 0, 63, 0
2, 46176, Note_on_c, 0, 64, 75
2, 46221, Note_on_c, 0, 64, 0
2, 46224, Note_on_c, 0, 69, 75
2, 46244, Note_on_c, 0, 69, 0
2, 46272, Note_on_c, 0, 68, 75
2, 46292, Note_on_c, 0, 68, 0
2, 46368, Note_on_c, 0, 71, 75
2, 46388, Note_on_c, 0, 71, 0
2, 46464, Note_on_c, 0, 69, 80
2, 46470, Note_on_c, 0, 75, 80
2, 46476, Note_on_c, 0, 78, 80
2, 46482, Note_on_c, 0, 81, 80
2, 46557, Note_on_c, 0, 81, 0
2, 46557, Note_on_c, 0, 78, 0
2, 46557, Note_on_c, 0, 75, 0
2, 46557, Note_on_c, 0, 69, 0
2, 46560, Note_on_c, 0, 69, 75
2, 46583, Note_on_c, 0, 69, 0
2, 46584, Note_on_c, 0, 71, 75
2, 46592, Note_on_c, 0, 71, 0
2, 46592, Note_on_c, 0, 69, 75
2, 46600, Note_on_c, 0, 69, 0
2, 46600, Note_on_c, 0, 68, 75
2, 46608, Note_on_c, 0, 68, 0
2, 46608, Note_on_c, 0, 69, 75
2, 46631, Note_on_c, 0, 69, 0
2, 46632, Note_on_c, 0, 73, 75
2, 46655, Note_on_c, 0, 73, 0
2, 46656, Note_on_c, 0, 71, 75
2, 46679, Note_on_c, 0, 71, 0
2, 46680, Note_on_c, 0, 69, 75
2, 46703, Note_on_c, 0, 69, 0
2, 46704, Note_on_c, 0, 68, 75
2, 46727, Note_on_c, 0, 68, 0
2, 46728, Note_on_c, 0, 69, 75
2, 46751, Note_on_c, 0, 69, 0
2, 46752, Note_on_c, 0, 69, 75
2, 46775, Note_on_c, 0, 69, 0
2, 46776, Note_on_c, 0, 68, 75
2, 46799, Note_on_c, 0, 68, 0
2, 46800, Note_on_c, 0, 66, 75
2, 46823, Note_on_c, 0, 66, 0
2, 46824, Note_on_c, 0, 68, 75
2, 46847, Note_on_c, 0, 68, 0
2, 46848, Note_on_c, 0, 68, 75
2, 46871, Note_on_c, 0, 68, 0
2, 46872, Note_on_c, 0, 66, 75
2, 46895, Note_on_c, 0, 66, 0
2, 46896, Note_on_c, 0, 69, 75
2, 46919, Note_on_c, 0, 69, 0
2, 46920, Note_on_c, 0, 73, 75
2, 46943, Note_on_c, 0, 73, 0
2, 46944, Note_on_c, 0, 61, 75
2, 46989, Note_on_c, 0, 61, 0
2, 46992, Note_on_c, 0, 63, 75
2, 46992, Note_on_c, 0, 57, 75
2, 47012, Note_on_c, 0, 63, 0
2, 47012, Note_on_c, 0, 57, 0
2, 47040, Note_on_c, 0, 64, 75
2, 47040, Note_on_c, 0, 56, 75
2, 47079, Note_on_c, 0, 64, 0
2, 47079, Note_on_c, 0, 56, 0
2, 47232, Note_on_c, 0, 68, 80
2, 47240, Note_on_c, 0, 71, 80
2, 47248, Note_on_c, 0, 76, 80
2, 47325, Note_on_c, 0, 76, 0
2, 47325, Note_on_c, 0, 71, 0
2, 47325, Note_on_c, 0, 68, 0
2, 47424, Note_on_c, 0, 71, 75
2, 47448, Note_on_c, 0, 71, 0
2, 47448, Note_on_c, 0, 69, 75
2, 47471, Note_on_c, 0, 69, 0
2, 47496, Note_on_c, 0, 69, 75
2, 47519, Note_on_c, 0, 69, 0
2, 47520, Note_on_c, 0, 69, 75
2, 47544, Note_on_c, 0, 69, 0
2, 47544, Note_on_c, 0, 68, 75
2, 47567, Note_on_c, 0, 68, 0
2, 47592, Note_on_c, 0, 68, 75
2, 47615, Note_on_c, 0, 68, 0
2, 47616, Note_on_c, 0, 68, 75
2, 47639, Note_on_c, 0, 68, 0
2, 47640, Note_on_c, 0, 66, 75
2, 47663, Note_on_c, 0, 66, 0
2, 47664, Note_on_c, 0, 64, 75
2, 47687, Note_on_c, 0, 64, 0
2, 47688, Note_on_c, 0, 63, 75
2, 47711, Note_on_c, 0, 63, 0
2, 47712, Note_on_c, 0, 64, 75
2, 47757, Note_on_c, 0, 64, 0
2, 47760, Note_on_c, 0, 69, 75
2, 47760, Note_on_c, 0, 61, 75
2, 47780, Note_on_c, 0, 69, 0
2, 47780, Note_on_c, 0, 61, 0
2, 47808, Note_on_c, 0, 69, 91
2, 47808, Note_on_c, 0, 61, 91
2, 47904, Note_on_c, 0, 69, 0
2, 47904, Note_on_c, 0, 61, 0
2, 47904, Note_on_c, 0, 68, 75
2, 47904, Note_on_c, 0, 59, 75
2, 47924, Note_on_c, 0, 68, 0
2, 47924, Note_on_c, 0, 59, 0
2, 47952, Note_on_c, 0, 64, 75
2, 47967, Note_on_c, 0, 64, 0
2, 47968, Note_on_c, 0, 69, 75
2, 47983, Note_on_c, 0, 69, 0
2, 47984, Note_on_c, 0, 73, 75
2, 47999, Note_on_c, 0, 73, 0
2, 48000, Note_on_c, 0, 73, 75
2, 48096, Note_on_c, 0, 73, 0
2, 48096, Note_on_c, 0, 71, 75
2, 48116, Note_on_c, 0, 71, 0
2, 48144, Note_on_c, 0, 76, 75
2, 48164, Note_on_c, 0, 76, 0
2, 48192, Note_on_c, 0, 76, 91
2, 48288, Note_on_c, 0, 76, 0
2, 48288, Note_on_c, 0, 75, 75
2, 48308, Note_on_c, 0, 75, 0
2, 48384, Note_on_c, 0, 80, 75
2, 48480, Note_on_c, 0, 80, 0
2, 48480, Note_on_c, 0, 78, 75
2, 48500, Note_on_c, 0, 78, 0
2, 48576, Note_on_c, 0, 81, 75
2, 48643, Note_on_c, 0, 81, 0
2, 48648, Note_on_c, 0, 80, 75
2, 48671, Note_on_c, 0, 80, 0
2, 48672, Note_on_c, 0, 81, 75
2, 48739, Note_on_c, 0, 81, 0
2, 48744, Note_on_c, 0, 80, 75
2, 48767, Note_on_c, 0, 80, 0
2, 48768, Note_on_c, 0, 78, 75
2, 48835, Note_on_c, 0, 78, 0
2, 48840, Note_on_c, 0, 80, 75
2, 48863, Note_on_c, 0, 80, 0
2, 48864, Note_on_c, 0, 83, 75
2, 48887, Note_on_c, 0, 83, 0
2, 48888, Note_on_c, 0, 81, 75
2, 48911, Note_on_c, 0, 81, 0
2, 48912, Note_on_c, 0, 85, 75
2, 48935, Note_on_c, 0, 85, 0
2, 48936, Note_on_c, 0, 83, 75
2, 48959, Note_on_c, 0, 83, 0
2, 48960, Note_on_c, 0, 81, 75
2, 48983, Note_on_c, 0, 81, 0
2, 48984, Note_on_c, 0, 80, 75
2, 49007, Note_on_c, 0, 80, 0
2, 49008, Note_on_c, 0, 78, 75
2, 49031, Note_on_c, 0, 78, 0
2, 49032, Note_on_c, 0, 77, 75
2, 49055, Note_on_c, 0, 77, 0
2, 49056, Note_on_c, 0, 80, 75
2, 49079, Note_on_c, 0, 80, 0
2, 49080, Note_on_c, 0, 78, 75
2, 49103, Note_on_c, 0, 78, 0
2, 49104, Note_on_c, 0, 81, 75
2, 49127, Note_on_c, 0, 81, 0
2, 49128, Note_on_c, 0, 80, 75
2, 49151, Note_on_c, 0, 80, 0
2, 49152, Note_on_c, 0, 78, 75
2, 49175, Note_on_c, 0, 78, 0
2, 49176, Note_on_c, 0, 76, 75
2, 49199, Note_on_c, 0, 76, 0
2, 49200, Note_on_c, 0, 75, 75
2, 49223, Note_on_c, 0, 75, 0
2, 49224, Note_on_c, 0, 73, 75
2, 49247, Note_on_c, 0, 73, 0
2, 49248, Note_on_c, 0, 76, 75
2, 49271, Note_on_c, 0, 76, 0
2, 49272, Note_on_c, 0, 75, 75
2, 49295, Note_on_c, 0, 75, 0
2, 49296, Note_on_c, 0, 78, 75
2, 49319, Note_on_c, 0, 78, 0
2, 49320, Note_on_c, 0, 76, 75
2, 49343, Note_on_c, 0, 76, 0
2, 49344, Note_on_c, 0, 75, 75
2, 49367, Note_on_c, 0, 75, 0
2, 49368, Note_on_c, 0, 73, 75
2, 49391, Note_on_c, 0, 73, 0
2, 49392, Note_on_c, 0, 71, 75
2, 49415, Note_on_c, 0, 71, 0
2, 49416, Note_on_c, 0, 70, 75
2, 49439, Note_on_c, 0, 70, 0
2, 49440, Note_on_c, 0, 71, 75
2, 49463, Note_on_c, 0, 71, 0
2, 49464, Note_on_c, 0, 69, 75
2, 49487, Note_on_c, 0, 69, 0
2, 49488, Note_on_c, 0, 73, 75
2, 49511, Note_on_c, 0, 73, 0
2, 49512, Note_on_c, 0, 71, 75
2, 49535, Note_on_c, 0, 71, 0
2, 49536, Note_on_c, 0, 69, 75
2, 49559, Note_on_c, 0, 69, 0
2, 49560, Note_on_c, 0, 68, 75
2, 49583, Note_on_c, 0, 68, 0
2, 49584, Note_on_c, 0, 66, 75
2, 49607, Note_on_c, 0, 66, 0
2, 49608, Note_on_c, 0, 65, 75
2, 49631, Note_on_c, 0, 65, 0
2, 49632, Note_on_c, 0, 66, 75
2, 49655, Note_on_c, 0, 66, 0
2, 49656, Note_on_c, 0, 67, 75
2, 49679, Note_on_c, 0, 67, 0
2, 49680, Note_on_c, 0, 68, 75
2, 49703, Note_on_c, 0, 68, 0
2, 49704, Note_on_c, 0, 69, 75
2, 49727, Note_on_c, 0, 69, 0
2, 49728, Note_on_c, 0, 70, 75
2, 49751, Note_on_c, 0, 70, 0
2, 49752, Note_on_c, 0, 71, 75
2, 49775, Note_on_c, 0, 71, 0
2, 49776, Note_on_c, 0, 72, 75
2, 49799, Note_on_c, 0, 72, 0
2, 49800, Note_on_c, 0, 73, 75
2, 49823, Note_on_c, 0, 73, 0
2, 49824, Note_on_c, 0, 73, 75
2, 49869, Note_on_c, 0, 73, 0
2, 49872, Note_on_c, 0, 73, 75
2, 49917, Note_on_c, 0, 73, 0
2, 49920, Note_on_c, 0, 71, 75
2, 49926, Note_on_c, 0, 71, 0
2, 49926, Note_on_c, 0, 73, 75
2, 49932, Note_on_c, 0, 73, 0
2, 49932, Note_on_c, 0, 75, 75
2, 49938, Note_on_c, 0, 75, 0
2, 49938, Note_on_c, 0, 73, 75
2, 50097, Note_on_c, 0, 73, 0
2, 50112, Note_on_c, 0, 73, 75
2, 50179, Note_on_c, 0, 73, 0
2, 50184, Note_on_c, 0, 72, 75
2, 50207, Note_on_c, 0, 72, 0
2, 50208, Note_on_c, 0, 73, 75
2, 50275, Note_on_c, 0, 73, 0
2, 50280, Note_on_c, 0, 72, 75
2, 50303, Note_on_c, 0, 72, 0
2, 50304, Note_on_c, 0, 73, 75
2, 50481, Note_on_c, 0, 73, 0
2, 50496, Note_on_c, 0, 72, 75
2, 50541, Note_on_c, 0, 72, 0
2, 50544, Note_on_c, 0, 73, 75
2, 50589, Note_on_c, 0, 73, 0
2, 50592, Note_on_c, 0, 75, 75
2, 50637, Note_on_c, 0, 75, 0
2, 50640, Note_on_c, 0, 73, 75
2, 50685, Note_on_c, 0, 73, 0
2, 50688, Note_on_c, 0, 73, 75
2, 50953, Note_on_c, 0, 73, 0
2, 50976, Note_on_c, 0, 71, 75
2, 50999, Note_on_c, 0, 71, 0
2, 51000, Note_on_c, 0, 69, 75
2, 51023, Note_on_c, 0, 69, 0
2, 51024, Note_on_c, 0, 68, 75
2, 51047, Note_on_c, 0, 68, 0
2, 51048, Note_on_c, 0, 66, 75
2, 51071, Note_on_c, 0, 66, 0
2, 51072, Note_on_c, 0, 64, 64
2, 51161, Note_on_c, 0, 64, 0
2, 51168, Note_on_c, 0, 63, 65
2, 51191, Note_on_c, 0, 63, 0
2, 51192, Note_on_c, 0, 64, 65
2, 51215, Note_on_c, 0, 64, 0
2, 51216, Note_on_c, 0, 66, 65
2, 51239, Note_on_c, 0, 66, 0
2, 51240, Note_on_c, 0, 64, 65
2, 51263, Note_on_c, 0, 64, 0
2, 51264, Note_on_c, 0, 64, 66
2, 51397, Note_on_c, 0, 64, 0
2, 51408, Note_on_c, 0, 65, 67
2, 51453, Note_on_c, 0, 65, 0
2, 51456, Note_on_c, 0, 68, 68
2, 51462, Note_on_c, 0, 68, 0
2, 51462, Note_on_c, 0, 66, 68
2, 51468, Note_on_c, 0, 66, 0
2, 51468, Note_on_c, 0, 65, 68
2, 51474, Note_on_c, 0, 65, 0
2, 51474, Note_on_c, 0, 66, 68
2, 51545, Note_on_c, 0, 66, 0
2, 51552, Note_on_c, 0, 65, 69
2, 51575, Note_on_c, 0, 65, 0
2, 51576, Note_on_c, 0, 66, 69
2, 51599, Note_on_c, 0, 66, 0
2, 51600, Note_on_c, 0, 68, 70
2, 51623, Note_on_c, 0, 68, 0
2, 51624, Note_on_c, 0, 66, 70
2, 51647, Note_on_c, 0, 66, 0
2, 51648, Note_on_c, 0, 66, 70
2, 51781, Note_on_c, 0, 66, 0
2, 51792, Note_on_c, 0, 67, 72
2, 51837, Note_on_c, 0, 67, 0
2, 51840, Note_on_c, 0, 69, 72
2, 51846, Note_on_c, 0, 69, 0
2, 51846, Note_on_c, 0, 68, 72
2, 51852, Note_on_c, 0, 68, 0
2, 51852, Note_on_c, 0, 67, 72
2, 51858, Note_on_c, 0, 67, 0
2, 51858, Note_on_c, 0, 68, 72
2, 51929, Note_on_c, 0, 68, 0
2, 51936, Note_on_c, 0, 67, 74
2, 51959, Note_on_c, 0, 67, 0
2, 51960, Note_on_c, 0, 68, 74
2, 51983, Note_on_c, 0, 68, 0
2, 51984, Note_on_c, 0, 69, 74
2, 52007, Note_on_c, 0, 69, 0
2, 52008, Note_on_c, 0, 68, 74
2, 52031, Note_on_c, 0, 68, 0
2, 52032, Note_on_c, 0, 68, 75
2, 52200, Note_on_c, 0, 68, 0
2, 52200, Note_on_c, 0, 71, 77
2, 52223, Note_on_c, 0, 71, 0
2, 52224, Note_on_c, 0, 71, 77
2, 52248, Note_on_c, 0, 71, 0
2, 52248, Note_on_c, 0, 69, 77
2, 52271, Note_on_c, 0, 69, 0
2, 52272, Note_on_c, 0, 69, 78
2, 52296, Note_on_c, 0, 69, 0
2, 52296, Note_on_c, 0, 68, 78
2, 52319, Note_on_c, 0, 68, 0
2, 52320, Note_on_c, 0, 68, 78
2, 52344, Note_on_c, 0, 68, 0
2, 52344, Note_on_c, 0, 66, 78
2, 52367, Note_on_c, 0, 66, 0
2, 52368, Note_on_c, 0, 66, 79
2, 52392, Note_on_c, 0, 66, 0
2, 52392, Note_on_c, 0, 68, 79
2, 52415, Note_on_c, 0, 68, 0
2, 52416, Note_on_c, 0, 71, 79
2, 52440, Note_on_c, 0, 71, 0
2, 52440, Note_on_c, 0, 69, 80
2, 52463, Note_on_c, 0, 69, 0
2, 52464, Note_on_c, 0, 69, 80
2, 52488, Note_on_c, 0, 69, 0
2, 52488, Note_on_c, 0, 68, 80
2, 52511, Note_on_c, 0, 68, 0
2, 52512, Note_on_c, 0, 68, 80
2, 52536, Note_on_c, 0, 68, 0
2, 52536, Note_on_c, 0, 66, 80
2, 52559, Note_on_c, 0, 66, 0
2, 52560, Note_on_c, 0, 66, 80
2, 52584, Note_on_c, 0, 66, 0
2, 52584, Note_on_c, 0, 68, 80
2, 52607, Note_on_c, 0, 68, 0
2, 52608, Note_on_c, 0, 71, 80
2, 52632, Note_on_c, 0, 71, 0
2, 52632, Note_on_c, 0, 69, 80
2, 52655, Note_on_c, 0, 69, 0
2, 52656, Note_on_c, 0, 69, 80
2, 52680, Note_on_c, 0, 69, 0
2, 52680, Note_on_c, 0, 68, 80
2, 52703, Note_on_c, 0, 68, 0
2, 52704, Note_on_c, 0, 68, 80
2, 52728, Note_on_c, 0, 68, 0
2, 52728, Note_on_c, 0, 66, 80
2, 52751, Note_on_c, 0, 66, 0
2, 52752, Note_on_c, 0, 66, 80
2, 52762, Note_on_c, 0, 66, 0
2, 52776, Note_on_c, 0, 73, 80
2, 52786, Note_on_c, 0, 73, 0
2, 52800, Note_on_c, 0, 68, 80
2, 52824, Note_on_c, 0, 68, 0
2, 52824, Note_on_c, 0, 66, 80
2, 52847, Note_on_c, 0, 66, 0
2, 52848, Note_on_c, 0, 66, 80
2, 52858, Note_on_c, 0, 66, 0
2, 52872, Note_on_c, 0, 73, 80
2, 52882, Note_on_c, 0, 73, 0
2, 52896, Note_on_c, 0, 68, 80
2, 52920, Note_on_c, 0, 68, 0
2, 52920, Note_on_c, 0, 66, 80
2, 52943, Note_on_c, 0, 66, 0
2, 52944, Note_on_c, 0, 66, 80
2, 52954, Note_on_c, 0, 66, 0
2, 52968, Note_on_c, 0, 73, 80
2, 52978, Note_on_c, 0, 73, 0
2, 52992, Note_on_c, 0, 66, 80
2, 53111, Note_on_c, 0, 66, 0
2, 53112, Note_on_c, 0, 68, 80
2, 53135, Note_on_c, 0, 68, 0
2, 53136, Note_on_c, 0, 69, 78
2, 53159, Note_on_c, 0, 69, 0
2, 53160, Note_on_c, 0, 68, 76
2, 53183, Note_on_c, 0, 68, 0
2, 53184, Note_on_c, 0, 71, 74
2, 53207, Note_on_c, 0, 71, 0
2, 53208, Note_on_c, 0, 69, 72
2, 53231, Note_on_c, 0, 69, 0
2, 53232, Note_on_c, 0, 68, 70
2, 53255, Note_on_c, 0, 68, 0
2, 53256, Note_on_c, 0, 66, 68
2, 53279, Note_on_c, 0, 66, 0
2, 53280, Note_on_c, 0, 64, 66
2, 53303, Note_on_c, 0, 64, 0
2, 53304, Note_on_c, 0, 63, 64
2, 53327, Note_on_c, 0, 63, 0
2, 53328, Control_c, 0, 64, 127
2, 53328, Note_on_c, 0, 69, 64
2, 53351, Note_on_c, 0, 69, 0
2, 53352, Note_on_c, 0, 66, 64
2, 53375, Note_on_c, 0, 66, 0
2, 53376, Note_on_c, 0, 63, 64
2, 53399, Note_on_c, 0, 63, 0
2, 53400, Note_on_c, 0, 60, 64
2, 53423, Note_on_c, 0, 60, 0
2, 53424, Note_on_c, 0, 69, 65
2, 53447, Note_on_c, 0, 69, 0
2, 53448, Note_on_c, 0, 66, 66
2, 53471, Note_on_c, 0, 66, 0
2, 53472, Note_on_c, 0, 63, 67
2, 53495, Note_on_c, 0, 63, 0
2, 53496, Note_on_c, 0, 60, 68
2, 53519, Note_on_c, 0, 60, 0
2, 53520, Note_on_c, 0, 69, 69
2, 53543, Note_on_c, 0, 69, 0
2, 53544, Note_on_c, 0, 66, 70
2, 53567, Note_on_c, 0, 66, 0
2, 53568, Note_on_c, 0, 63, 71
2, 53591, Note_on_c, 0, 63, 0
2, 53592, Note_on_c, 0, 60, 72
2, 53615, Note_on_c, 0, 60, 0
2, 53616, Note_on_c, 0, 69, 73
2, 53639, Note_on_c, 0, 69, 0
2, 53640, Note_on_c, 0, 66, 74
2, 53663, Note_on_c, 0, 66, 0
2, 53664, Note_on_c, 0, 63, 75
2, 53687, Note_on_c, 0, 63, 0
2, 53688, Control_c, 0, 64, 0
2, 53688, Note_on_c, 0, 60, 76
2, 53711, Note_on_c, 0, 60, 0
2, 53712, Control_c, 0, 64, 127
2, 53712, Note_on_c, 0, 71, 77
2, 53735, Note_on_c, 0, 71, 0
2, 53736, Note_on_c, 0, 68, 78
2, 53759, Note_on_c, 0, 68, 0
2, 53760, Note_on_c, 0, 65, 79
2, 53783, Note_on_c, 0, 65, 0
2, 53784, Note_on_c, 0, 62, 80
2, 53807, Note_on_c, 0, 62, 0
2, 53808, Note_on_c, 0, 71, 80
2, 53831, Note_on_c, 0, 71, 0
2, 53832, Note_on_c, 0, 68, 80
2, 53855, Note_on_c, 0, 68, 0
2, 53856, Note_on_c, 0, 65, 80
2, 53879, Note_on_c, 0, 65, 0
2, 53880, Note_on_c, 0, 62, 80
2, 53903, Note_on_c, 0, 62, 0
2, 53904, Note_on_c, 0, 71, 80
2, 53927, Note_on_c, 0, 71, 0
2, 53928, Note_on_c, 0, 68, 80
2, 53951, Note_on_c, 0, 68, 0
2, 53952, Note_on_c, 0, 65, 80
2, 53975, Note_on_c, 0, 65, 0
2, 53976, Note_on_c, 0, 62, 80
2, 53999, Note_on_c, 0, 62, 0
2, 54000, Note_on_c, 0, 71, 80
2, 54023, Note_on_c, 0, 71, 0
2, 54024, Note_on_c, 0, 68, 80
2, 54047, Note_on_c, 0, 68, 0
2, 54048, Note_on_c, 0, 65, 80
2, 54071, Note_on_c, 0, 65, 0
2, 54072, Control_c, 0, 64, 0
2, 54072, Note_on_c, 0, 62, 80
2, 54095, Note_on_c, 0, 62, 0
2, 54096, Control_c, 0, 64, 127
2, 54096, Note_on_c, 0, 73, 80
2, 54119, Note_on_c, 0, 73, 0
2, 54120, Note_on_c, 0, 70, 80
2, 54143, Note_on_c, 0, 70, 0
2, 54144, Note_on_c, 0, 67, 86
2, 54167, Note_on_c, 0, 67, 0
2, 54168, Note_on_c, 0, 64, 86
2, 54191, Note_on_c, 0, 64, 0
2, 54192, Note_on_c, 0, 73, 86
2, 54215, Note_on_c, 0, 73, 0
2, 54216, Note_on_c, 0, 70, 86
2, 54239, Note_on_c, 0, 70, 0
2, 54240, Note_on_c, 0, 67, 86
2, 54263, Note_on_c, 0, 67, 0
2, 54264, Note_on_c, 0, 64, 86
2, 54287, Note_on_c, 0, 64, 0
2, 54288, Note_on_c, 0, 73, 86
2, 54311, Note_on_c, 0, 73, 0
2, 54312, Note_on_c, 0, 70, 86
2, 54335, Note_on_c, 0, 70, 0
2, 54336, Note_on_c, 0, 67, 86
2, 54359, Note_on_c, 0, 67, 0
2, 54360, Note_on_c, 0, 64, 86
2, 54383, Note_on_c, 0, 64, 0
2, 54384, Note_on_c, 0, 73, 86
2, 54407, Note_on_c, 0, 73, 0
2, 54408, Note_on_c, 0, 70, 86
2, 54431, Note_on_c, 0, 70, 0
2, 54432, Note_on_c, 0, 67, 86
2, 54455, Note_on_c, 0, 67, 0
2, 54456, Control_c, 0, 64, 0
2, 54456, Note_on_c, 0, 64, 86
2, 54479, Note_on_c, 0, 64, 0
2, 54480, Control_c, 0, 64, 127
2, 54480, Note_on_c, 0, 76, 86
2, 54503, Note_on_c, 0, 76, 0
2, 54504, Note_on_c, 0, 73, 86
2, 54527, Note_on_c, 0, 73, 0
2, 54528, Note_on_c, 0, 70, 86
2, 54551, Note_on_c, 0, 70, 0
2, 54552, Note_on_c, 0, 67, 86
2, 54575, Note_on_c, 0, 67, 0
2, 54576, Note_on_c, 0, 76, 86
2, 54599, Note_on_c, 0, 76, 0
2, 54600, Note_on_c, 0, 73, 86
2, 54623, Note_on_c, 0, 73, 0
2, 54624, Note_on_c, 0, 70, 86
2, 54647, Note_on_c, 0, 70, 0
2, 54648, Note_on_c, 0, 67, 86
2, 54671, Note_on_c, 0, 67, 0
2, 54672, Note_on_c, 0, 76, 86
2, 54695, Note_on_c, 0, 76, 0
2, 54696, Note_on_c, 0, 73, 86
2, 54719, Note_on_c, 0, 73, 0
2, 54720, Note_on_c, 0, 70, 86
2, 54743, Note_on_c, 0, 70, 0
2, 54744, Note_on_c, 0, 67, 86
2, 54767, Note_on_c, 0, 67, 0
2, 54768, Note_on_c, 0, 76, 86
2, 54791, Note_on_c, 0, 76, 0
2, 54792, Note_on_c, 0, 73, 86
2, 54815, Note_on_c, 0, 73, 0
2, 54816, Note_on_c, 0, 70, 86
2, 54839, Note_on_c, 0, 70, 0
2, 54840, Control_c, 0, 64, 0
2, 54840, Note_on_c, 0, 67, 86
2, 54863, Note_on_c, 0, 67, 0
2, 54864, Control_c, 0, 64, 127
2, 54864, Note_on_c, 0, 71, 86
2, 54887, Note_on_c, 0, 71, 0
2, 54888, Note_on_c, 0, 69, 86
2, 54911, Note_on_c, 0, 69, 0
2, 54912, Note_on_c, 0, 66, 86
2, 54935, Note_on_c, 0, 66, 0
2, 54936, Note_on_c, 0, 59, 86
2, 54959, Note_on_c, 0, 59, 0
2, 54960, Note_on_c, 0, 71, 86
2, 54983, Note_on_c, 0, 71, 0
2, 54984, Note_on_c, 0, 69, 86
2, 55007, Note_on_c, 0, 69, 0
2, 55008, Note_on_c, 0, 66, 86
2, 55031, Note_on_c, 0, 66, 0
2, 55032, Note_on_c, 0, 59, 86
2, 55055, Note_on_c, 0, 59, 0
2, 55056, Note_on_c, 0, 71, 86
2, 55079, Note_on_c, 0, 71, 0
2, 55080, Note_on_c, 0, 69, 86
2, 55103, Note_on_c, 0, 69, 0
2, 55104, Note_on_c, 0, 66, 86
2, 55127, Note_on_c, 0, 66, 0
2, 55128, Note_on_c, 0, 59, 86
2, 55151, Note_on_c, 0, 59, 0
2, 55152, Note_on_c, 0, 71, 86
2, 55175, Note_on_c, 0, 71, 0
2, 55176, Note_on_c, 0, 69, 86
2, 55199, Note_on_c, 0, 69, 0
2, 55200, Note_on_c, 0, 66, 86
2, 55223, Note_on_c, 0, 66, 0
2, 55224, Control_c, 0, 64, 0
2, 55224, Note_on_c, 0, 59, 86
2, 55247, Note_on_c, 0, 59, 0
2, 55248, Control_c, 0, 64, 127
2, 55248, Note_on_c, 0, 69, 86
2, 55271, Note_on_c, 0, 69, 0
2, 55272, Note_on_c, 0, 66, 86
2, 55295, Note_on_c, 0, 66, 0
2, 55296, Note_on_c, 0, 63, 86
2, 55319, Note_on_c, 0, 63, 0
2, 55320, Note_on_c, 0, 60, 86
2, 55343, Note_on_c, 0, 60, 0
2, 55344, Note_on_c, 0, 69, 86
2, 55367, Note_on_c, 0, 69, 0
2, 55368, Note_on_c, 0, 66, 86
2, 55391, Note_on_c, 0, 66, 0
2, 55392, Note_on_c, 0, 63, 86
2, 55415, Note_on_c, 0, 63, 0
2, 55416, Note_on_c, 0, 60, 86
2, 55439, Note_on_c, 0, 60, 0
2, 55440, Note_on_c, 0, 69, 86
2, 55463, Note_on_c, 0, 69, 0
2, 55464, Note_on_c, 0, 66, 86
2, 55487, Note_on_c, 0, 66, 0
2, 55488, Note_on_c, 0, 63, 86
2, 55511, Note_on_c, 0, 63, 0
2, 55512, Note_on_c, 0, 60, 86
2, 55535, Note_on_c, 0, 60, 0
2, 55536, Note_on_c, 0, 69, 86
2, 55559, Note_on_c, 0, 69, 0
2, 55560, Note_on_c, 0, 66, 86
2, 55583, Note_on_c, 0, 66, 0
2, 55584, Note_on_c, 0, 63, 86
2, 55607, Note_on_c, 0, 63, 0
2, 55608, Note_on_c, 0, 60, 86
2, 55631, Note_on_c, 0, 60, 0
2, 55632, Note_on_c, 0, 69, 86
2, 55647, Note_on_c, 0, 69, 0
2, 55648, Note_on_c, 0, 66, 86
2, 55663, Note_on_c, 0, 66, 0
2, 55664, Note_on_c, 0, 63, 86
2, 55679, Note_on_c, 0, 63, 0
2, 55680, Control_c, 0, 64, 0
2, 55680, Note_on_c, 0, 59, 86
2, 55736, Note_on_c, 0, 59, 0
2, 55736, Note_on_c, 0, 63, 86
2, 55744, Note_on_c, 0, 63, 0
2, 55744, Note_on_c, 0, 66, 86
2, 55752, Note_on_c, 0, 66, 0
2, 55752, Note_on_c, 0, 69, 86
2, 55760, Note_on_c, 0, 69, 0
2, 55760, Note_on_c, 0, 66, 86
2, 55768, Note_on_c, 0, 66, 0
2, 55768, Note_on_c, 0, 63, 86
2, 55776, Note_on_c, 0, 63, 0
2, 55776, Control_c, 0, 64, 0
2, 55776, Note_on_c, 0, 59, 86
2, 55821, Note_on_c, 0, 59, 0
2, 55824, Note_on_c, 0, 75, 86
2, 55824, Note_on_c, 0, 66, 86
2, 55844, Note_on_c, 0, 75, 0
2, 55844, Note_on_c, 0, 66, 0
2, 55872, Note_on_c, 0, 75, 102
2, 55872, Note_on_c, 0, 66, 102
2, 55968, Note_on_c, 0, 75, 0
2, 55968, Note_on_c, 0, 66, 0
2, 55968, Note_on_c, 0, 76, 86
2, 55968, Note_on_c, 0, 64, 86
2, 55988, Note_on_c, 0, 76, 0
2, 55988, Note_on_c, 0, 64, 0
2, 56016, Note_on_c, 0, 68, 64
2, 56039, Note_on_c, 0, 68, 0
2, 56040, Note_on_c, 0, 74, 64
2, 56063, Note_on_c, 0, 74, 0
2, 56064, Note_on_c, 0, 69, 64
2, 56087, Note_on_c, 0, 69, 0
2, 56112, Note_on_c, 0, 65, 64
2, 56135, Note_on_c, 0, 65, 0
2, 56160, Note_on_c, 0, 66, 64
2, 56183, Note_on_c, 0, 66, 0
2, 56208, Note_on_c, 0, 56, 64
2, 56231, Note_on_c, 0, 56, 0
2, 56256, Note_on_c, 0, 57, 64
2, 56279, Note_on_c, 0, 57, 0
2, 56304, Note_on_c, 0, 61, 64
2, 56327, Note_on_c, 0, 61, 0
2, 56352, Note_on_c, 0, 59, 64
2, 56375, Note_on_c, 0, 59, 0
2, 56400, Note_on_c, 0, 57, 64
2, 56423, Note_on_c, 0, 57, 0
2, 56448, Note_on_c, 0, 59, 80
2, 56504, Note_on_c, 0, 59, 0
2, 56504, Note_on_c, 0, 63, 80
2, 56512, Note_on_c, 0, 63, 0
2, 56512, Note_on_c, 0, 66, 80
2, 56520, Note_on_c, 0, 66, 0
2, 56520, Note_on_c, 0, 69, 80
2, 56528, Note_on_c, 0, 69, 0
2, 56528, Note_on_c, 0, 66, 80
2, 56536, Note_on_c, 0, 66, 0
2, 56536, Note_on_c, 0, 63, 80
2, 56544, Note_on_c, 0, 63, 0
2, 56544, Note_on_c, 0, 59, 80
2, 56589, Note_on_c, 0, 59, 0
2, 56592, Note_on_c, 0, 75, 80
2, 56592, Note_on_c, 0, 66, 80
2, 56612, Note_on_c, 0, 75, 0
2, 56612, Note_on_c, 0, 66, 0
2, 56640, Note_on_c, 0, 75, 96
2, 56640, Note_on_c, 0, 66, 96
2, 56736, Note_on_c, 0, 75, 0
2, 56736, Note_on_c, 0, 66, 0
2, 56736, Note_on_c, 0, 76, 80
2, 56736, Note_on_c, 0, 64, 80
2, 56756, Note_on_c, 0, 76, 0
2, 56756, Note_on_c, 0, 64, 0
2, 56784, Note_on_c, 0, 56, 86
2, 56786, Note_on_c, 0, 59, 86
2, 56788, Note_on_c, 0, 64, 86
2, 56790, Note_on_c, 0, 71, 86
2, 56792, Note_on_c, 0, 74, 86
2, 56804, Note_on_c, 0, 74, 0
2, 56804, Note_on_c, 0, 71, 0
2, 56804, Note_on_c, 0, 64, 0
2, 56804, Note_on_c, 0, 59, 0
2, 56804, Note_on_c, 0, 56, 0
2, 56832, Note_on_c, 0, 57, 80
2, 56834, Note_on_c, 0, 61, 80
2, 56836, Note_on_c, 0, 64, 80
2, 56838, Note_on_c, 0, 69, 80
2, 56840, Note_on_c, 0, 73, 80
2, 56852, Note_on_c, 0, 73, 0
2, 56852, Note_on_c, 0, 69, 0
2, 56852, Note_on_c, 0, 64, 0
2, 56852, Note_on_c, 0, 61, 0
2, 56852, Note_on_c, 0, 57, 0
2, 56880, Note_on_c, 0, 59, 75
2, 56882, Note_on_c, 0, 62, 75
2, 56884, Note_on_c, 0, 64, 75
2, 56886, Note_on_c, 0, 68, 75
2, 56888, Note_on_c, 0, 71, 75
2, 56900, Note_on_c, 0, 71, 0
2, 56900, Note_on_c, 0, 68, 0
2, 56900, Note_on_c, 0, 64, 0
2, 56900, Note_on_c, 0, 62, 0
2, 56900, Note_on_c, 0, 59, 0
2, 56928, Note_on_c, 0, 68, 75
2, 56940, Note_on_c, 0, 68, 0
2, 56940, Note_on_c, 0, 69, 75
2, 56973, Note_on_c, 0, 69, 0
2, 56976, Note_on_c, 0, 73, 75
2, 56991, Note_on_c, 0, 73, 0
2, 56992, Note_on_c, 0, 69, 75
2, 57007, Note_on_c, 0, 69, 0
2, 57008, Note_on_c, 0, 66, 75
2, 57023, Note_on_c, 0, 66, 0
2, 57024, Note_on_c, 0, 68, 75
2, 57024, Note_on_c, 0, 64, 75
2, 57120, Note_on_c, 0, 64, 0
2, 57120, Note_on_c, 0, 71, 75
2, 57165, Note_on_c, 0, 71, 0
2, 57165, Note_on_c, 0, 68, 0
2, 57168, Note_on_c, 0, 63, 75
2, 57168, Note_on_c, 0, 57, 75
2, 57213, Note_on_c, 0, 63, 0
2, 57213, Note_on_c, 0, 57, 0
2, 57216, Note_on_c, 0, 64, 75
2, 57216, Note_on_c, 0, 56, 75
2, 57305, Note_on_c, 0, 64, 0
2, 57305, Note_on_c, 0, 56, 0
2, 57312, Note_on_c, 0, 64, 64
2, 57336, Note_on_c, 0, 64, 0
2, 57336, Note_on_c, 0, 63, 64
2, 57359, Note_on_c, 0, 63, 0
2, 57360, Note_on_c, 0, 64, 64
2, 57384, Note_on_c, 0, 64, 0
2, 57384, Note_on_c, 0, 68, 64
2, 57407, Note_on_c, 0, 68, 0
2, 57408, Note_on_c, 0, 68, 64
2, 57432, Note_on_c, 0, 68, 0
2, 57432, Note_on_c, 0, 61, 65
2, 57455, Note_on_c, 0, 61, 0
2, 57456, Note_on_c, 0, 61, 66
2, 57480, Note_on_c, 0, 61, 0
2, 57480, Note_on_c, 0, 69, 67
2, 57503, Note_on_c, 0, 69, 0
2, 57504, Note_on_c, 0, 69, 68
2, 57528, Note_on_c, 0, 69, 0
2, 57528, Note_on_c, 0, 63, 69
2, 57551, Note_on_c, 0, 63, 0
2, 57552, Note_on_c, 0, 63, 70
2, 57576, Note_on_c, 0, 63, 0
2, 57576, Note_on_c, 0, 71, 71
2, 57599, Note_on_c, 0, 71, 0
2, 57600, Note_on_c, 0, 69, 72
2, 57624, Note_on_c, 0, 69, 0
2, 57624, Note_on_c, 0, 68, 73
2, 57647, Note_on_c, 0, 68, 0
2, 57648, Note_on_c, 0, 76, 74
2, 57672, Note_on_c, 0, 76, 0
2, 57672, Note_on_c, 0, 75, 75
2, 57695, Note_on_c, 0, 75, 0
2, 57696, Note_on_c, 0, 75, 76
2, 57720, Note_on_c, 0, 75, 0
2, 57720, Note_on_c, 0, 73, 77
2, 57743, Note_on_c, 0, 73, 0
2, 57744, Note_on_c, 0, 73, 78
2, 57768, Note_on_c, 0, 73, 0
2, 57768, Note_on_c, 0, 71, 80
2, 57791, Note_on_c, 0, 71, 0
2, 57792, Note_on_c, 0, 71, 79
2, 57816, Note_on_c, 0, 71, 0
2, 57816, Note_on_c, 0, 69, 78
2, 57839, Note_on_c, 0, 69, 0
2, 57840, Note_on_c, 0, 69, 77
2, 57864, Note_on_c, 0, 69, 0
2, 57864, Note_on_c, 0, 68, 76
2, 57887, Note_on_c, 0, 68, 0
2, 57888, Note_on_c, 0, 68, 76
2, 57912, Note_on_c, 0, 68, 0
2, 57912, Note_on_c, 0, 66, 75
2, 57935, Note_on_c, 0, 66, 0
2, 57936, Note_on_c, 0, 66, 74
2, 57960, Note_on_c, 0, 66, 0
2, 57960, Note_on_c, 0, 64, 73
2, 57983, Note_on_c, 0, 64, 0
2, 57984, Note_on_c, 0, 64, 72
2, 58117, Note_on_c, 0, 64, 0
2, 58128, Note_on_c, 0, 68, 68
2, 58134, Note_on_c, 0, 68, 0
2, 58134, Note_on_c, 0, 66, 68
2, 58151, Note_on_c, 0, 66, 0
2, 58152, Note_on_c, 0, 64, 67
2, 58175, Note_on_c, 0, 64, 0
2, 58176, Note_on_c, 0, 64, 66
2, 58243, Note_on_c, 0, 64, 0
2, 58248, Note_on_c, 0, 69, 64
2, 58260, Note_on_c, 0, 69, 0
2, 58260, Note_on_c, 0, 73, 64
2, 58272, Note_on_c, 0, 73, 0
2, 58272, Note_on_c, 0, 76, 75
2, 58292, Note_on_c, 0, 76, 0
2, 58320, Note_on_c, 0, 76, 75
2, 58340, Note_on_c, 0, 76, 0
2, 58368, Note_on_c, 0, 76, 75
2, 58407, Note_on_c, 0, 76, 0
2, 58512, Note_on_c, 0, 73, 64
2, 58524, Note_on_c, 0, 73, 0
2, 58524, Note_on_c, 0, 69, 64
2, 58558, Note_on_c, 0, 69, 0
2, 58560, Note_on_c, 0, 71, 64
2, 58572, Note_on_c, 0, 71, 0
2, 58572, Note_on_c, 0, 68, 64
2, 58606, Note_on_c, 0, 68, 0
2, 58608, Note_on_c, 0, 69, 64
2, 58620, Note_on_c, 0, 69, 0
2, 58620, Note_on_c, 0, 66, 64
2, 58654, Note_on_c, 0, 66, 0
2, 58656, Note_on_c, 0, 68, 64
2, 58668, Note_on_c, 0, 68, 0
2, 58668, Note_on_c, 0, 64, 64
2, 58702, Note_on_c, 0, 64, 0
2, 58704, Note_on_c, 0, 63, 64
2, 58716, Note_on_c, 0, 63, 0
2, 58716, Note_on_c, 0, 57, 64
2, 58750, Note_on_c, 0, 57, 0
2, 58752, Note_on_c, 0, 64, 64
2, 58752, Note_on_c, 0, 56, 64
2, 58797, Note_on_c, 0, 64, 0
2, 58797, Note_on_c, 0, 56, 0
2, 58800, Note_on_c, 0, 63, 64
2, 58812, Note_on_c, 0, 63, 0
2, 58812, Note_on_c, 0, 57, 64
2, 58846, Note_on_c, 0, 57, 0
2, 58848, Note_on_c, 0, 64, 64
2, 58848, Note_on_c, 0, 56, 64
2, 58893, Note_on_c, 0, 64, 0
2, 58893, Note_on_c, 0, 56, 0
2, 58896, Note_on_c, 0, 63, 64
2, 58908, Note_on_c, 0, 63, 0
2, 58908, Note_on_c, 0, 57, 64
2, 58942, Note_on_c, 0, 57, 0
2, 58944, Note_on_c, 0, 64, 64
2, 58944, Note_on_c, 0, 56, 64
2, 59033, Note_on_c, 0, 64, 0
2, 59033, Note_on_c, 0, 56, 0
2, 59136, End_track
3, 0, Start_track
3, 0, Program_c, 0, 0
3, 0, Control_c, 0, 7, 127
3, 0, Control_c, 0, 10, 64
3, 528, Note_on_c, 0, 61, 64
3, 573, Note_on_c, 0, 61, 0
3, 576, Note_on_c, 0, 59, 64
3, 621, Note_on_c, 0, 59, 0
3, 624, Note_on_c, 0, 64, 64
3, 639, Note_on_c, 0, 64, 0
3, 640, Note_on_c, 0, 69, 64
3, 655, Note_on_c, 0, 69, 0
3, 656, Note_on_c, 0, 73, 64
3, 671, Note_on_c, 0, 73, 0
3, 672, Note_on_c, 0, 68, 64
3, 717, Note_on_c, 0, 68, 0
3, 1608, Note_on_c, 0, 71, 75
3, 1631, Note_on_c, 0, 71, 0
3, 1632, Note_on_c, 0, 70, 75
3, 1655, Note_on_c, 0, 70, 0
3, 1656, Note_on_c, 0, 71, 75
3, 1679, Note_on_c, 0, 71, 0
3, 1680, Note_on_c, 0, 73, 75
3, 1703, Note_on_c, 0, 73, 0
3, 1704, Note_on_c, 0, 71, 75
3, 1727, Note_on_c, 0, 71, 0
3, 1920, Note_on_c, 0, 68, 75
3, 1943, Note_on_c, 0, 68, 0
3, 1944, Note_on_c, 0, 66, 75
3, 1967, Note_on_c, 0, 66, 0
3, 1968, Note_on_c, 0, 64, 75
3, 1991, Note_on_c, 0, 64, 0
3, 1992, Note_on_c, 0, 63, 75
3, 2015, Note_on_c, 0, 63, 0
3, 2016, Note_on_c, 0, 64, 75
3, 2061, Note_on_c, 0, 64, 0
3, 2064, Note_on_c, 0, 69, 75
3, 2064, Note_on_c, 0, 61, 75
3, 2109, Note_on_c, 0, 69, 0
3, 2109, Note_on_c, 0, 61, 0
3, 2112, Note_on_c, 0, 69, 75
3, 2112, Note_on_c, 0, 61, 75
3, 2208, Note_on_c, 0, 69, 0
3, 2208, Note_on_c, 0, 61, 0
3, 2208, Note_on_c, 0, 68, 75
3, 2208, Note_on_c, 0, 59, 75
3, 2228, Note_on_c, 0, 68, 0
3, 2228, Note_on_c, 0, 59, 0
3, 2256, Note_on_c, 0, 64, 75
3, 2271, Note_on_c, 0, 64, 0
3, 2272, Note_on_c, 0, 69, 75
3, 2287, Note_on_c, 0, 69, 0
3, 2288, Note_on_c, 0, 73, 75
3, 2303, Note_on_c, 0, 73, 0
3, 2304, Note_on_c, 0, 73, 75
3, 2304, Note_on_c, 0, 69, 75
3, 2400, Note_on_c, 0, 73, 0
3, 2400, Note_on_c, 0, 69, 0
3, 2400, Note_on_c, 0, 71, 75
3, 2400, Note_on_c, 0, 68, 75
3, 2420, Note_on_c, 0, 71, 0
3, 2420, Note_on_c, 0, 68, 0
3, 2448, Note_on_c, 0, 71, 70
3, 2471, Note_on_c, 0, 71, 0
3, 2472, Note_on_c, 0, 83, 70
3, 2482, Note_on_c, 0, 83, 0
3, 2496, Note_on_c, 0, 83, 86
3, 2640, Note_on_c, 0, 83, 0
3, 2640, Note_on_c, 0, 73, 70
3, 2663, Note_on_c, 0, 73, 0
3, 2664, Note_on_c, 0, 85, 70
3, 2674, Note_on_c, 0, 85, 0
3, 2688, Note_on_c, 0, 85, 70
3, 2818, Note_on_c, 0, 85, 0
3, 2820, Note_on_c, 0, 83, 70
3, 2832, Note_on_c, 0, 83, 0
3, 2832, Note_on_c, 0, 81, 70
3, 2844, Note_on_c, 0, 81, 0
3, 2844, Note_on_c, 0, 80, 70
3, 2856, Note_on_c, 0, 80, 0
3, 2856, Note_on_c, 0, 78, 70
3, 2868, Note_on_c, 0, 78, 0
3, 2868, Note_on_c, 0, 76, 70
3, 2880, Note_on_c, 0, 76, 0
3, 2880, Note_on_c, 0, 75, 70
3, 2914, Note_on_c, 0, 75, 0
3, 2916, Note_on_c, 0, 76, 70
3, 2922, Note_on_c, 0, 76, 0
3, 2922, Note_on_c, 0, 78, 70
3, 2928, Note_on_c, 0, 78, 0
3, 2928, Note_on_c, 0, 76, 70
3, 2948, Note_on_c, 0, 76, 0
3, 6168, Note_on_c, 0, 80, 64
3, 6191, Note_on_c, 0, 80, 0
3, 6216, Note_on_c, 0, 78, 64
3, 6239, Note_on_c, 0, 78, 0
3, 6264, Note_on_c, 0, 76, 64
3, 6287, Note_on_c, 0, 76, 0
3, 6312, Note_on_c, 0, 72, 64
3, 6335, Note_on_c, 0, 72, 0
3, 6360, Note_on_c, 0, 73, 64
3, 6383, Note_on_c, 0, 73, 0
3, 6408, Note_on_c, 0, 76, 64
3, 6431, Note_on_c, 0, 76, 0
3, 6456, Note_on_c, 0, 71, 64
3, 6479, Note_on_c, 0, 71, 0
3, 6504, Note_on_c, 0, 70, 64
3, 6527, Note_on_c, 0, 70, 0
3, 9744, Note_on_c, 0, 61, 64
3, 9789, Note_on_c, 0, 61, 0
3, 9792, Note_on_c, 0, 59, 64
3, 9837, Note_on_c, 0, 59, 0
3, 9840, Note_on_c, 0, 64, 64
3, 9855, Note_on_c, 0, 64, 0
3, 9856, Note_on_c, 0, 69, 64
3, 9871, Note_on_c, 0, 69, 0
3, 9872, Note_on_c, 0, 73, 64
3, 9887, Note_on_c, 0, 73, 0
3, 9888, Note_on_c, 0, 68, 64
3, 9933, Note_on_c, 0, 68, 0
3, 10824, Note_on_c, 0, 71, 75
3, 10847, Note_on_c, 0, 71, 0
3, 10848, Note_on_c, 0, 70, 75
3, 10871, Note_on_c, 0, 70, 0
3, 10872, Note_on_c, 0, 71, 75
3, 10895, Note_on_c, 0, 71, 0
3, 10896, Note_on_c, 0, 73, 75
3, 10919, Note_on_c, 0, 73, 0
3, 10920, Note_on_c, 0, 71, 75
3, 10943, Note_on_c, 0, 71, 0
3, 11136, Note_on_c, 0, 68, 75
3, 11159, Note_on_c, 0, 68, 0
3, 11160, Note_on_c, 0, 66, 75
3, 11183, Note_on_c, 0, 66, 0
3, 11184, Note_on_c, 0, 64, 75
3, 11207, Note_on_c, 0, 64, 0
3, 11208, Note_on_c, 0, 63, 75
3, 11231, Note_on_c, 0, 63, 0
3, 11232, Note_on_c, 0, 64, 75
3, 11277, Note_on_c, 0, 64, 0
3, 11280, Note_on_c, 0, 69, 75
3, 11280, Note_on_c, 0, 61, 75
3, 11325, Note_on_c, 0, 69, 0
3, 11325, Note_on_c, 0, 61, 0
3, 11328, Note_on_c, 0, 69, 75
3, 11328, Note_on_c, 0, 61, 75
3, 11424, Note_on_c, 0, 69, 0
3, 11424, Note_on_c, 0, 61, 0
3, 11424, Note_on_c, 0, 68, 75
3, 11424, Note_on_c, 0, 59, 75
3, 11444, Note_on_c, 0, 68, 0
3, 11444, Note_on_c, 0, 59, 0
3, 11472, Note_on_c, 0, 64, 75
3, 11487, Note_on_c, 0, 64, 0
3, 11488, Note_on_c, 0, 69, 75
3, 11503, Note_on_c, 0, 69, 0
3, 11504, Note_on_c, 0, 73, 75
3, 11519, Note_on_c, 0, 73, 0
3, 11520, Note_on_c, 0, 73, 75
3, 11520, Note_on_c, 0, 69, 75
3, 11616, Note_on_c, 0, 73, 0
3, 11616, Note_on_c, 0, 69, 0
3, 11616, Note_on_c, 0, 71, 75
3, 11616, Note_on_c, 0, 68, 75
3, 11636, Note_on_c, 0, 71, 0
3, 11636, Note_on_c, 0, 68, 0
3, 11664, Note_on_c, 0, 71, 70
3, 11687, Note_on_c, 0, 71, 0
3, 11688, Note_on_c, 0, 83, 70
3, 11698, Note_on_c, 0, 83, 0
3, 11712, Note_on_c, 0, 83, 86
3, 11856, Note_on_c, 0, 83, 0
3, 11856, Note_on_c, 0, 73, 70
3, 11879, Note_on_c, 0, 73, 0
3, 11880, Note_on_c, 0, 85, 70
3, 11890, Note_on_c, 0, 85, 0
3, 11904, Note_on_c, 0, 85, 70
3, 12034, Note_on_c, 0, 85, 0
3, 12036, Note_on_c, 0, 83, 70
3, 12048, Note_on_c, 0, 83, 0
3, 12048, Note_on_c, 0, 81, 70
3, 12060, Note_on_c, 0, 81, 0
3, 12060, Note_on_c, 0, 80, 70
3, 12072, Note_on_c, 0, 80, 0
3, 12072, Note_on_c, 0, 78, 70
3, 12084, Note_on_c, 0, 78, 0
3, 12084, Note_on_c, 0, 76, 70
3, 12096, Note_on_c, 0, 76, 0
3, 12096, Note_on_c, 0, 75, 70
3, 12130, Note_on_c, 0, 75, 0
3, 12132, Note_on_c, 0, 76, 70
3, 12138, Note_on_c, 0, 76, 0
3, 12138, Note_on_c, 0, 78, 70
3, 12144, Note_on_c, 0, 78, 0
3, 12144, Note_on_c, 0, 76, 70
3, 12164, Note_on_c, 0, 76, 0
3, 15384, Note_on_c, 0, 80, 64
3, 15407, Note_on_c, 0, 80, 0
3, 15432, Note_on_c, 0, 78, 64
3, 15455, Note_on_c, 0, 78, 0
3, 15480, Note_on_c, 0, 76, 64
3, 15503, Note_on_c, 0, 76, 0
3, 15528, Note_on_c, 0, 72, 64
3, 15551, Note_on_c, 0, 72, 0
3, 15576, Note_on_c, 0, 73, 64
3, 15599, Note_on_c, 0, 73, 0
3, 15624, Note_on_c, 0, 76, 64
3, 15647, Note_on_c, 0, 76, 0
3, 15672, Note_on_c, 0, 71, 64
3, 15695, Note_on_c, 0, 71, 0
3, 15720, Note_on_c, 0, 70, 64
3, 15743, Note_on_c, 0, 70, 0
3, 25872, Note_on_c, 0, 61, 64
3, 25917, Note_on_c, 0, 61, 0
3, 25920, Note_on_c, 0, 59, 64
3, 25965, Note_on_c, 0, 59, 0
3, 25968, Note_on_c, 0, 64, 64
3, 25983, Note_on_c, 0, 64, 0
3, 25984, Note_on_c, 0, 69, 64
3, 25999, Note_on_c, 0, 69, 0
3, 26000, Note_on_c, 0, 73, 64
3, 26015, Note_on_c, 0, 73, 0
3, 26016, Note_on_c, 0, 68, 64
3, 26061, Note_on_c, 0, 68, 0
3, 26952, Note_on_c, 0, 71, 64
3, 26975, Note_on_c, 0, 71, 0
3, 26976, Note_on_c, 0, 73, 64
3, 27000, Note_on_c, 0, 73, 0
3, 27000, Note_on_c, 0, 71, 64
3, 27023, Note_on_c, 0, 71, 0
3, 27048, Note_on_c, 0, 71, 64
3, 27071, Note_on_c, 0, 71, 0
3, 27648, Note_on_c, 0, 69, 64
3, 27744, Note_on_c, 0, 69, 0
3, 27744, Note_on_c, 0, 68, 64
3, 27791, Note_on_c, 0, 68, 0
3, 27792, Note_on_c, 0, 68, 64
3, 27812, Note_on_c, 0, 68, 0
3, 27840, Note_on_c, 0, 68, 64
3, 27936, Note_on_c, 0, 68, 0
3, 27936, Note_on_c, 0, 66, 64
3, 27956, Note_on_c, 0, 66, 0
3, 27984, Note_on_c, 0, 71, 64
3, 27999, Note_on_c, 0, 71, 0
3, 28000, Note_on_c, 0, 76, 64
3, 28015, Note_on_c, 0, 76, 0
3, 28016, Note_on_c, 0, 80, 64
3, 28031, Note_on_c, 0, 80, 0
3, 28032, Note_on_c, 0, 76, 64
3, 28121, Note_on_c, 0, 76, 0
3, 28128, Note_on_c, 0, 75, 64
3, 28148, Note_on_c, 0, 75, 0
3, 28176, Note_on_c, 0, 71, 64
3, 28191, Note_on_c, 0, 71, 0
3, 28192, Note_on_c, 0, 75, 64
3, 28207, Note_on_c, 0, 75, 0
3, 28208, Note_on_c, 0, 78, 64
3, 28223, Note_on_c, 0, 78, 0
3, 28224, Note_on_c, 0, 78, 64
3, 28291, Note_on_c, 0, 78, 0
3, 28296, Note_on_c, 0, 77, 64
3, 28319, Note_on_c, 0, 77, 0
3, 28320, Note_on_c, 0, 78, 64
3, 28387, Note_on_c, 0, 78, 0
3, 28392, Note_on_c, 0, 77, 64
3, 28415, Note_on_c, 0, 77, 0
3, 35736, Note_on_c, 0, 73, 64
3, 35759, Note_on_c, 0, 73, 0
3, 35784, Note_on_c, 0, 71, 64
3, 35807, Note_on_c, 0, 71, 0
3, 35832, Note_on_c, 0, 69, 64
3, 35855, Note_on_c, 0, 69, 0
3, 35880, Note_on_c, 0, 65, 64
3, 35903, Note_on_c, 0, 65, 0
3, 35928, Note_on_c, 0, 66, 64
3, 35951, Note_on_c, 0, 66, 0
3, 35976, Note_on_c, 0, 69, 64
3, 35999, Note_on_c, 0, 69, 0
3, 36024, Note_on_c, 0, 64, 64
3, 36047, Note_on_c, 0, 64, 0
3, 36072, Note_on_c, 0, 63, 64
3, 36095, Note_on_c, 0, 63, 0
3, 46224, Note_on_c, 0, 61, 64
3, 46269, Note_on_c, 0, 61, 0
3, 46272, Note_on_c, 0, 59, 64
3, 46317, Note_on_c, 0, 59, 0
3, 46320, Note_on_c, 0, 64, 64
3, 46335, Note_on_c, 0, 64, 0
3, 46336, Note_on_c, 0, 69, 64
3, 46351, Note_on_c, 0, 69, 0
3, 46352, Note_on_c, 0, 73, 64
3, 46367, Note_on_c, 0, 73, 0
3, 46368, Note_on_c, 0, 68, 64
3, 46413, Note_on_c, 0, 68, 0
3, 47304, Note_on_c, 0, 71, 64
3, 47327, Note_on_c, 0, 71, 0
3, 47328, Note_on_c, 0, 73, 64
3, 47352, Note_on_c, 0, 73, 0
3, 47352, Note_on_c, 0, 71, 64
3, 47375, Note_on_c, 0, 71, 0
3, 47400, Note_on_c, 0, 71, 64
3, 47423, Note_on_c, 0, 71, 0
3, 48000, Note_on_c, 0, 69, 64
3, 48096, Note_on_c, 0, 69, 0
3, 48096, Note_on_c, 0, 68, 64
3, 48143, Note_on_c, 0, 68, 0
3, 48144, Note_on_c, 0, 68, 64
3, 48164, Note_on_c, 0, 68, 0
3, 48192, Note_on_c, 0, 68, 64
3, 48288, Note_on_c, 0, 68, 0
3, 48288, Note_on_c, 0, 66, 64
3, 48308, Note_on_c, 0, 66, 0
3, 48336, Note_on_c, 0, 71, 64
3, 48351, Note_on_c, 0, 71, 0
3, 48352, Note_on_c, 0, 76, 64
3, 48367, Note_on_c, 0, 76, 0
3, 48368, Note_on_c, 0, 80, 64
3, 48383, Note_on_c, 0, 80, 0
3, 48384, Note_on_c, 0, 76, 64
3, 48473, Note_on_c, 0, 76, 0
3, 48480, Note_on_c, 0, 75, 64
3, 48500, Note_on_c, 0, 75, 0
3, 48528, Note_on_c, 0, 71, 64
3, 48543, Note_on_c, 0, 71, 0
3, 48544, Note_on_c, 0, 75, 64
3, 48559, Note_on_c, 0, 75, 0
3, 48560, Note_on_c, 0, 78, 64
3, 48575, Note_on_c, 0, 78, 0
3, 48576, Note_on_c, 0, 78, 64
3, 48643, Note_on_c, 0, 78, 0
3, 48648, Note_on_c, 0, 77, 64
3, 48671, Note_on_c, 0, 77, 0
3, 48672, Note_on_c, 0, 78, 64
3, 48739, Note_on_c, 0, 78, 0
3, 48744, Note_on_c, 0, 77, 64
3, 48767, Note_on_c, 0, 77, 0
3, 56088, Note_on_c, 0, 73, 64
3, 56111, Note_on_c, 0, 73, 0
3, 56136, Note_on_c, 0, 71, 64
3, 56159, Note_on_c, 0, 71, 0
3, 56184, Note_on_c, 0, 69, 64
3, 56207, Note_on_c, 0, 69, 0
3, 56232, Note_on_c, 0, 65, 64
3, 56255, Note_on_c, 0, 65, 0
3, 56280, Note_on_c, 0, 66, 64
3, 56303, Note_on_c, 0, 66, 0
3, 56328, Note_on_c, 0, 69, 64
3, 56351, Note_on_c, 0, 69, 0
3, 56376, Note_on_c, 0, 64, 64
3, 56399, Note_on_c, 0, 64, 0
3, 56424, Note_on_c, 0, 63, 64
3, 56447, Note_on_c, 0, 63, 0
3, 59136, End_track
4, 0, Start_track
4, 0, Program_c, 1, 0
4, 0, Control_c, 1, 7, 127
4, 0, Control_c, 1, 10, 64
4, 0, Note_on_c, 1, 52, 80
4, 6, Note_on_c, 1, 56, 80
4, 12, Note_on_c, 1, 59, 80
4, 18, Note_on_c, 1, 64, 80
4, 93, Note_on_c, 1, 64, 0
4, 93, Note_on_c, 1, 59, 0
4, 93, Note_on_c, 1, 56, 0
4, 93, Note_on_c, 1, 52, 0
4, 144, Note_on_c, 1, 68, 75
4, 189, Note_on_c, 1, 68, 0
4, 192, Note_on_c, 1, 66, 75
4, 240, Note_on_c, 1, 66, 0
4, 240, Note_on_c, 1, 63, 75
4, 285, Note_on_c, 1, 63, 0
4, 288, Note_on_c, 1, 64, 75
4, 333, Note_on_c, 1, 64, 0
4, 336, Note_on_c, 1, 56, 75
4, 381, Note_on_c, 1, 56, 0
4, 384, Note_on_c, 1, 57, 75
4, 429, Note_on_c, 1, 57, 0
4, 432, Note_on_c, 1, 59, 75
4, 477, Note_on_c, 1, 59, 0
4, 480, Note_on_c, 1, 52, 75
4, 525, Note_on_c, 1, 52, 0
4, 768, Note_on_c, 1, 47, 80
4, 774, Note_on_c, 1, 51, 80
4, 780, Note_on_c, 1, 54, 80
4, 786, Note_on_c, 1, 59, 80
4, 861, Note_on_c, 1, 59, 0
4, 861, Note_on_c, 1, 54, 0
4, 861, Note_on_c, 1, 51, 0
4, 861, Note_on_c, 1, 47, 0
4, 912, Note_on_c, 1, 61, 75
4, 957, Note_on_c, 1, 61, 0
4, 960, Note_on_c, 1, 63, 75
4, 1005, Note_on_c, 1, 63, 0
4, 1008, Note_on_c, 1, 59, 75
4, 1053, Note_on_c, 1, 59, 0
4, 1056, Note_on_c, 1, 64, 75
4, 1101, Note_on_c, 1, 64, 0
4, 1104, Note_on_c, 1, 56, 75
4, 1149, Note_on_c, 1, 56, 0
4, 1152, Note_on_c, 1, 57, 75
4, 1241, Note_on_c, 1, 57, 0
4, 1296, Note_on_c, 1, 54, 75
4, 1296, Note_on_c, 1, 42, 75
4, 1316, Note_on_c, 1, 54, 0
4, 1316, Note_on_c, 1, 42, 0
4, 1344, Note_on_c, 1, 52, 75
4, 1344, Note_on_c, 1, 40, 75
4, 1383, Note_on_c, 1, 52, 0
4, 1383, Note_on_c, 1, 40, 0
4, 1536, Note_on_c, 1, 52, 80
4, 1542, Note_on_c, 1, 56, 80
4, 1548, Note_on_c, 1, 59, 80
4, 1554, Note_on_c, 1, 64, 80
4, 1629, Note_on_c, 1, 64, 0
4, 1629, Note_on_c, 1, 59, 0
4, 1629, Note_on_c, 1, 56, 0
4, 1629, Note_on_c, 1, 52, 0
4, 1680, Note_on_c, 1, 68, 75
4, 1725, Note_on_c, 1, 68, 0
4, 1728, Note_on_c, 1, 66, 75
4, 1776, Note_on_c, 1, 66, 0
4, 1776, Note_on_c, 1, 63, 75
4, 1821, Note_on_c, 1, 63, 0
4, 1824, Note_on_c, 1, 64, 75
4, 1869, Note_on_c, 1, 64, 0
4, 1872, Note_on_c, 1, 56, 75
4, 1917, Note_on_c, 1, 56, 0
4, 1920, Note_on_c, 1, 57, 75
4, 1965, Note_on_c, 1, 57, 0
4, 1968, Note_on_c, 1, 59, 75
4, 2013, Note_on_c, 1, 59, 0
4, 2016, Note_on_c, 1, 52, 75
4, 2061, Note_on_c, 1, 52, 0
4, 2160, Note_on_c, 1, 40, 75
4, 2205, Note_on_c, 1, 40, 0
4, 2208, Note_on_c, 1, 52, 75
4, 2253, Note_on_c, 1, 52, 0
4, 2352, Note_on_c, 1, 40, 75
4, 2397, Note_on_c, 1, 40, 0
4, 2400, Note_on_c, 1, 52, 75
4, 2445, Note_on_c, 1, 52, 0
4, 2544, Note_on_c, 1, 64, 64
4, 2544, Note_on_c, 1, 56, 64
4, 2564, Note_on_c, 1, 64, 0
4, 2564, Note_on_c, 1, 56, 0
4, 2592, Note_on_c, 1, 64, 64
4, 2592, Note_on_c, 1, 56, 64
4, 2639, Note_on_c, 1, 64, 0
4, 2639, Note_on_c, 1, 56, 0
4, 2736, Note_on_c, 1, 64, 64
4, 2736, Note_on_c, 1, 57, 64
4, 2756, Note_on_c, 1, 64, 0
4, 2756, Note_on_c, 1, 57, 0
4, 2784, Note_on_c, 1, 64, 64
4, 2784, Note_on_c, 1, 57, 64
4, 2831, Note_on_c, 1, 64, 0
4, 2831, Note_on_c, 1, 57, 0
4, 2880, Note_on_c, 1, 69, 64
4, 2880, Note_on_c, 1, 66, 64
4, 2880, Note_on_c, 1, 59, 64
4, 2925, Note_on_c, 1, 69, 0
4, 2925, Note_on_c, 1, 66, 0
4, 2925, Note_on_c, 1, 59, 0
4, 2928, Note_on_c, 1, 68, 64
4, 2928, Note_on_c, 1, 64, 64
4, 2973, Note_on_c, 1, 68, 0
4, 2973, Note_on_c, 1, 64, 0
4, 3120, Note_on_c, 1, 66, 64
4, 3120, Note_on_c, 1, 63, 64
4, 3165, Note_on_c, 1, 66, 0
4, 3165, Note_on_c, 1, 63, 0
4, 3216, Note_on_c, 1, 66, 64
4, 3216, Note_on_c, 1, 63, 64
4, 3261, Note_on_c, 1, 66, 0
4, 3261, Note_on_c, 1, 63, 0
4, 3312, Note_on_c, 1, 66, 64
4, 3312, Note_on_c, 1, 63, 64
4, 3357, Note_on_c, 1, 66, 0
4, 3357, Note_on_c, 1, 63, 0
4, 3360, Note_on_c, 1, 66, 64
4, 3360, Note_on_c, 1, 63, 64
4, 3405, Note_on_c, 1, 66, 0
4, 3405, Note_on_c, 1, 63, 0
4, 3408, Note_on_c, 1, 66, 64
4, 3408, Note_on_c, 1, 63, 64
4, 3453, Note_on_c, 1, 66, 0
4, 3453, Note_on_c, 1, 63, 0
4, 3504, Note_on_c, 1, 68, 64
4, 3504, Note_on_c, 1, 64, 64
4, 3549, Note_on_c, 1, 68, 0
4, 3549, Note_on_c, 1, 64, 0
4, 3600, Note_on_c, 1, 68, 64
4, 3600, Note_on_c, 1, 64, 64
4, 3645, Note_on_c, 1, 68, 0
4, 3645, Note_on_c, 1, 64, 0
4, 3696, Note_on_c, 1, 68, 64
4, 3696, Note_on_c, 1, 65, 64
4, 3741, Note_on_c, 1, 68, 0
4, 3741, Note_on_c, 1, 65, 0
4, 3744, Note_on_c, 1, 68, 64
4, 3744, Note_on_c, 1, 65, 64
4, 3789, Note_on_c, 1, 68, 0
4, 3789, Note_on_c, 1, 65, 0
4, 3792, Note_on_c, 1, 68, 64
4, 3792, Note_on_c, 1, 65, 64
4, 3837, Note_on_c, 1, 68, 0
4, 3837, Note_on_c, 1, 65, 0
4, 3888, Note_on_c, 1, 70, 64
4, 3888, Note_on_c, 1, 66, 64
4, 3933, Note_on_c, 1, 70, 0
4, 3933, Note_on_c, 1, 66, 0
4, 3984, Note_on_c, 1, 70, 64
4, 3984, Note_on_c, 1, 66, 64
4, 4029, Note_on_c, 1, 70, 0
4, 4029, Note_on_c, 1, 66, 0
4, 4080, Note_on_c, 1, 70, 64
4, 4080, Note_on_c, 1, 66, 64
4, 4125, Note_on_c, 1, 70, 0
4, 4125, Note_on_c, 1, 66, 0
4, 4128, Note_on_c, 1, 70, 64
4, 4128, Note_on_c, 1, 66, 64
4, 4173, Note_on_c, 1, 70, 0
4, 4173, Note_on_c, 1, 66, 0
4, 4176, Note_on_c, 1, 70, 64
4, 4176, Note_on_c, 1, 66, 64
4, 4221, Note_on_c, 1, 70, 0
4, 4221, Note_on_c, 1, 66, 0
4, 4224, Note_on_c, 1, 68, 64
4, 4247, Note_on_c, 1, 68, 0
4, 4248, Note_on_c, 1, 71, 64
4, 4271, Note_on_c, 1, 71, 0
4, 4272, Note_on_c, 1, 66, 64
4, 4295, Note_on_c, 1, 66, 0
4, 4296, Note_on_c, 1, 71, 64
4, 4319, Note_on_c, 1, 71, 0
4, 4320, Note_on_c, 1, 64, 64
4, 4343, Note_on_c, 1, 64, 0
4, 4344, Note_on_c, 1, 71, 64
4, 4367, Note_on_c, 1, 71, 0
4, 4368, Note_on_c, 1, 66, 64
4, 4391, Note_on_c, 1, 66, 0
4, 4392, Note_on_c, 1, 71, 64
4, 4415, Note_on_c, 1, 71, 0
4, 4416, Note_on_c, 1, 68, 64
4, 4439, Note_on_c, 1, 68, 0
4, 4440, Note_on_c, 1, 71, 64
4, 4463, Note_on_c, 1, 71, 0
4, 4464, Note_on_c, 1, 66, 64
4, 4487, Note_on_c, 1, 66, 0
4, 4488, Note_on_c, 1, 71, 64
4, 4511, Note_on_c, 1, 71, 0
4, 4512, Note_on_c, 1, 64, 64
4, 4535, Note_on_c, 1, 64, 0
4, 4536, Note_on_c, 1, 71, 64
4, 4559, Note_on_c, 1, 71, 0
4, 4560, Note_on_c, 1, 66, 64
4, 4583, Note_on_c, 1, 66, 0
4, 4584, Note_on_c, 1, 71, 64
4, 4607, Note_on_c, 1, 71, 0
4, 4608, Note_on_c, 1, 68, 64
4, 4631, Note_on_c, 1, 68, 0
4, 4632, Note_on_c, 1, 71, 64
4, 4655, Note_on_c, 1, 71, 0
4, 4656, Note_on_c, 1, 66, 64
4, 4679, Note_on_c, 1, 66, 0
4, 4680, Note_on_c, 1, 71, 64
4, 4703, Note_on_c, 1, 71, 0
4, 4704, Note_on_c, 1, 65, 64
4, 4727, Note_on_c, 1, 65, 0
4, 4728, Note_on_c, 1, 71, 64
4, 4751, Note_on_c, 1, 71, 0
4, 4752, Note_on_c, 1, 65, 64
4, 4775, Note_on_c, 1, 65, 0
4, 4776, Note_on_c, 1, 71, 64
4, 4799, Note_on_c, 1, 71, 0
4, 4800, Note_on_c, 1, 65, 64
4, 4823, Note_on_c, 1, 65, 0
4, 4824, Note_on_c, 1, 71, 64
4, 4847, Note_on_c, 1, 71, 0
4, 4848, Note_on_c, 1, 65, 64
4, 4871, Note_on_c, 1, 65, 0
4, 4872, Note_on_c, 1, 71, 64
4, 4895, Note_on_c, 1, 71, 0
4, 4896, Note_on_c, 1, 65, 64
4, 4919, Note_on_c, 1, 65, 0
4, 4920, Note_on_c, 1, 71, 64
4, 4943, Note_on_c, 1, 71, 0
4, 4944, Note_on_c, 1, 65, 64
4, 4967, Note_on_c, 1, 65, 0
4, 4968, Note_on_c, 1, 71, 64
4, 5081, Note_on_c, 1, 71, 0
4, 5088, Note_on_c, 1, 70, 64
4, 5177, Note_on_c, 1, 70, 0
4, 5472, Control_c, 1, 64, 127
4, 5472, Note_on_c, 1, 64, 64
4, 5561, Note_on_c, 1, 64, 0
4, 5568, Note_on_c, 1, 61, 64
4, 5657, Note_on_c, 1, 61, 0
4, 5664, Note_on_c, 1, 58, 64
4, 5753, Note_on_c, 1, 58, 0
4, 5760, Note_on_c, 1, 54, 64
4, 5808, Control_c, 1, 64, 0
4, 5816, Note_on_c, 1, 54, 0
4, 5816, Note_on_c, 1, 58, 64
4, 5824, Note_on_c, 1, 58, 0
4, 5824, Note_on_c, 1, 61, 64
4, 5832, Note_on_c, 1, 61, 0
4, 5832, Note_on_c, 1, 64, 64
4, 5840, Note_on_c, 1, 64, 0
4, 5840, Note_on_c, 1, 61, 64
4, 5848, Note_on_c, 1, 61, 0
4, 5848, Note_on_c, 1, 58, 64
4, 5856, Note_on_c, 1, 58, 0
4, 5856, Control_c, 1, 64, 0
4, 5856, Note_on_c, 1, 54, 64
4, 5901, Note_on_c, 1, 54, 0
4, 5904, Note_on_c, 1, 64, 64
4, 5924, Note_on_c, 1, 64, 0
4, 5952, Note_on_c, 1, 64, 64
4, 6048, Note_on_c, 1, 64, 0
4, 6048, Note_on_c, 1, 63, 64
4, 6068, Note_on_c, 1, 63, 0
4, 6528, Note_on_c, 1, 54, 80
4, 6584, Note_on_c, 1, 54, 0
4, 6584, Note_on_c, 1, 58, 80
4, 6592, Note_on_c, 1, 58, 0
4, 6592, Note_on_c, 1, 61, 80
4, 6600, Note_on_c, 1, 61, 0
4, 6600, Note_on_c, 1, 64, 80
4, 6608, Note_on_c, 1, 64, 0
4, 6608, Note_on_c, 1, 61, 80
4, 6616, Note_on_c, 1, 61, 0
4, 6616, Note_on_c, 1, 58, 80
4, 6624, Note_on_c, 1, 58, 0
4, 6624, Note_on_c, 1, 54, 80
4, 6669, Note_on_c, 1, 54, 0
4, 6672, Note_on_c, 1, 67, 80
4, 6672, Note_on_c, 1, 64, 80
4, 6692, Note_on_c, 1, 67, 0
4, 6692, Note_on_c, 1, 64, 0
4, 6720, Note_on_c, 1, 67, 80
4, 6720, Note_on_c, 1, 64, 80
4, 6816, Note_on_c, 1, 67, 0
4, 6816, Note_on_c, 1, 64, 0
4, 6816, Note_on_c, 1, 66, 80
4, 6816, Note_on_c, 1, 63, 80
4, 6836, Note_on_c, 1, 66, 0
4, 6836, Note_on_c, 1, 63, 0
4, 7008, Note_on_c, 1, 71, 80
4, 7008, Note_on_c, 1, 68, 80
4, 7097, Note_on_c, 1, 71, 0
4, 7097, Note_on_c, 1, 68, 0
4, 7200, Note_on_c, 1, 54, 80
4, 7289, Note_on_c, 1, 54, 0
4, 7296, Note_on_c, 1, 47, 80
4, 7385, Note_on_c, 1, 47, 0
4, 7440, Note_on_c, 1, 51, 64
4, 7485, Note_on_c, 1, 51, 0
4, 7488, Note_on_c, 1, 52, 64
4, 7584, Note_on_c, 1, 52, 0
4, 7584, Note_on_c, 1, 54, 64
4, 7673, Note_on_c, 1, 54, 0
4, 7680, Note_on_c, 1, 56, 64
4, 7725, Note_on_c, 1, 56, 0
4, 7728, Note_on_c, 1, 63, 64
4, 7773, Note_on_c, 1, 63, 0
4, 7776, Note_on_c, 1, 61, 64
4, 7821, Note_on_c, 1, 61, 0
4, 7824, Note_on_c, 1, 59, 64
4, 7869, Note_on_c, 1, 59, 0
4, 7872, Note_on_c, 1, 58, 64
4, 7917, Note_on_c, 1, 58, 0
4, 7920, Note_on_c, 1, 56, 64
4, 7965, Note_on_c, 1, 56, 0
4, 7968, Note_on_c, 1, 54, 64
4, 8013, Note_on_c, 1, 54, 0
4, 8016, Note_on_c, 1, 52, 64
4, 8061, Note_on_c, 1, 52, 0
4, 8064, Note_on_c, 1, 51, 64
4, 8109, Note_on_c, 1, 51, 0
4, 8112, Note_on_c, 1, 53, 64
4, 8157, Note_on_c, 1, 53, 0
4, 8160, Note_on_c, 1, 54, 64
4, 8205, Note_on_c, 1, 54, 0
4, 8208, Note_on_c, 1, 42, 64
4, 8253, Note_on_c, 1, 42, 0
4, 8256, Note_on_c, 1, 44, 64
4, 8345, Note_on_c, 1, 44, 0
4, 8832, Note_on_c, 1, 59, 64
4, 8832, Note_on_c, 1, 51, 64
4, 8877, Note_on_c, 1, 59, 0
4, 8877, Note_on_c, 1, 51, 0
4, 8880, Note_on_c, 1, 58, 64
4, 8892, Note_on_c, 1, 58, 0
4, 8892, Note_on_c, 1, 52, 64
4, 8926, Note_on_c, 1, 52, 0
4, 8928, Note_on_c, 1, 59, 64
4, 8928, Note_on_c, 1, 51, 64
4, 8973, Note_on_c, 1, 59, 0
4, 8973, Note_on_c, 1, 51, 0
4, 8976, Note_on_c, 1, 58, 64
4, 8988, Note_on_c, 1, 58, 0
4, 8988, Note_on_c, 1, 52, 64
4, 9022, Note_on_c, 1, 52, 0
4, 9024, Note_on_c, 1, 59, 64
4, 9024, Note_on_c, 1, 51, 64
4, 9113, Note_on_c, 1, 59, 0
4, 9113, Note_on_c, 1, 51, 0
4, 9216, Note_on_c, 1, 52, 80
4, 9222, Note_on_c, 1, 56, 80
4, 9228, Note_on_c, 1, 59, 80
4, 9234, Note_on_c, 1, 64, 80
4, 9309, Note_on_c, 1, 64, 0
4, 9309, Note_on_c, 1, 59, 0
4, 9309, Note_on_c, 1, 56, 0
4, 9309, Note_on_c, 1, 52, 0
4, 9360, Note_on_c, 1, 68, 75
4, 9405, Note_on_c, 1, 68, 0
4, 9408, Note_on_c, 1, 66, 75
4, 9456, Note_on_c, 1, 66, 0
4, 9456, Note_on_c, 1, 63, 75
4, 9501, Note_on_c, 1, 63, 0
4, 9504, Note_on_c, 1, 64, 75
4, 9549, Note_on_c, 1, 64, 0
4, 9552, Note_on_c, 1, 56, 75
4, 9597, Note_on_c, 1, 56, 0
4, 9600, Note_on_c, 1, 57, 75
4, 9645, Note_on_c, 1, 57, 0
4, 9648, Note_on_c, 1, 59, 75
4, 9693, Note_on_c, 1, 59, 0
4, 9696, Note_on_c, 1, 52, 75
4, 9741, Note_on_c, 1, 52, 0
4, 9984, Note_on_c, 1, 47, 80
4, 9990, Note_on_c, 1, 51, 80
4, 9996, Note_on_c, 1, 54, 80
4, 10002, Note_on_c, 1, 59, 80
4, 10077, Note_on_c, 1, 59, 0
4, 10077, Note_on_c, 1, 54, 0
4, 10077, Note_on_c, 1, 51, 0
4, 10077, Note_on_c, 1, 47, 0
4, 10128, Note_on_c, 1, 61, 75
4, 10173, Note_on_c, 1, 61, 0
4, 10176, Note_on_c, 1, 63, 75
4, 10221, Note_on_c, 1, 63, 0
4, 10224, Note_on_c, 1, 59, 75
4, 10269, Note_on_c, 1, 59, 0
4, 10272, Note_on_c, 1, 64, 75
4, 10317, Note_on_c, 1, 64, 0
4, 10320, Note_on_c, 1, 56, 75
4, 10365, Note_on_c, 1, 56, 0
4, 10368, Note_on_c, 1, 57, 75
4, 10457, Note_on_c, 1, 57, 0
4, 10512, Note_on_c, 1, 54, 75
4, 10512, Note_on_c, 1, 42, 75
4, 10532, Note_on_c, 1, 54, 0
4, 10532, Note_on_c, 1, 42, 0
4, 10560, Note_on_c, 1, 52, 75
4, 10560, Note_on_c, 1, 40, 75
4, 10599, Note_on_c, 1, 52, 0
4, 10599, Note_on_c, 1, 40, 0
4, 10752, Note_on_c, 1, 52, 80
4, 10758, Note_on_c, 1, 56, 80
4, 10764, Note_on_c, 1, 59, 80
4, 10770, Note_on_c, 1, 64, 80
4, 10845, Note_on_c, 1, 64, 0
4, 10845, Note_on_c, 1, 59, 0
4, 10845, Note_on_c, 1, 56, 0
4, 10845, Note_on_c, 1, 52, 0
4, 10896, Note_on_c, 1, 68, 75
4, 10941, Note_on_c, 1, 68, 0
4, 10944, Note_on_c, 1, 66, 75
4, 10992, Note_on_c, 1, 66, 0
4, 10992, Note_on_c, 1, 63, 75
4, 11037, Note_on_c, 1, 63, 0
4, 11040, Note_on_c, 1, 64, 75
4, 11085, Note_on_c, 1, 64, 0
4, 11088, Note_on_c, 1, 56, 75
4, 11133, Note_on_c, 1, 56, 0
4, 11136, Note_on_c, 1, 57, 75
4, 11181, Note_on_c, 1, 57, 0
4, 11184, Note_on_c, 1, 59, 75
4, 11229, Note_on_c, 1, 59, 0
4, 11232, Note_on_c, 1, 52, 75
4, 11277, Note_on_c, 1, 52, 0
4, 11376, Note_on_c, 1, 40, 75
4, 11421, Note_on_c, 1, 40, 0
4, 11424, Note_on_c, 1, 52, 75
4, 11469, Note_on_c, 1, 52, 0
4, 11568, Note_on_c, 1, 40, 75
4, 11613, Note_on_c, 1, 40, 0
4, 11616, Note_on_c, 1, 52, 75
4, 11661, Note_on_c, 1, 52, 0
4, 11760, Note_on_c, 1, 64, 64
4, 11760, Note_on_c, 1, 56, 64
4, 11780, Note_on_c, 1, 64, 0
4, 11780, Note_on_c, 1, 56, 0
4, 11808, Note_on_c, 1, 64, 64
4, 11808, Note_on_c, 1, 56, 64
4, 11855, Note_on_c, 1, 64, 0
4, 11855, Note_on_c, 1, 56, 0
4, 11952, Note_on_c, 1, 64, 64
4, 11952, Note_on_c, 1, 57, 64
4, 11972, Note_on_c, 1, 64, 0
4, 11972, Note_on_c, 1, 57, 0
4, 12000, Note_on_c, 1, 64, 64
4, 12000, Note_on_c, 1, 57, 64
4, 12047, Note_on_c, 1, 64, 0
4, 12047, Note_on_c, 1, 57, 0
4, 12096, Note_on_c, 1, 69, 64
4, 12096, Note_on_c, 1, 66, 64
4, 12096, Note_on_c, 1, 59, 64
4, 12141, Note_on_c, 1, 69, 0
4, 12141, Note_on_c, 1, 66, 0
4, 12141, Note_on_c, 1, 59, 0
4, 12144, Note_on_c, 1, 68, 64
4, 12144, Note_on_c, 1, 64, 64
4, 12189, Note_on_c, 1, 68, 0
4, 12189, Note_on_c, 1, 64, 0
4, 12336, Note_on_c, 1, 66, 64
4, 12336, Note_on_c, 1, 63, 64
4, 12381, Note_on_c, 1, 66, 0
4, 12381, Note_on_c, 1, 63, 0
4, 12432, Note_on_c, 1, 66, 64
4, 12432, Note_on_c, 1, 63, 64
4, 12477, Note_on_c, 1, 66, 0
4, 12477, Note_on_c, 1, 63, 0
4, 12528, Note_on_c, 1, 66, 64
4, 12528, Note_on_c, 1, 63, 64
4, 12573, Note_on_c, 1, 66, 0
4, 12573, Note_on_c, 1, 63, 0
4, 12576, Note_on_c, 1, 66, 64
4, 12576, Note_on_c, 1, 63, 64
4, 12621, Note_on_c, 1, 66, 0
4, 12621, Note_on_c, 1, 63, 0
4, 12624, Note_on_c, 1, 66, 64
4, 12624, Note_on_c, 1, 63, 64
4, 12669, Note_on_c, 1, 66, 0
4, 12669, Note_on_c, 1, 63, 0
4, 12720, Note_on_c, 1, 68, 64
4, 12720, Note_on_c, 1, 64, 64
4, 12765, Note_on_c, 1, 68, 0
4, 12765, Note_on_c, 1, 64, 0
4, 12816, Note_on_c, 1, 68, 64
4, 12816, Note_on_c, 1, 64, 64
4, 12861, Note_on_c, 1, 68, 0
4, 12861, Note_on_c, 1, 64, 0
4, 12912, Note_on_c, 1, 68, 64
4, 12912, Note_on_c, 1, 65, 64
4, 12957, Note_on_c, 1, 68, 0
4, 12957, Note_on_c, 1, 65, 0
4, 12960, Note_on_c, 1, 68, 64
4, 12960, Note_on_c, 1, 65, 64
4, 13005, Note_on_c, 1, 68, 0
4, 13005, Note_on_c, 1, 65, 0
4, 13008, Note_on_c, 1, 68, 64
4, 13008, Note_on_c, 1, 65, 64
4, 13053, Note_on_c, 1, 68, 0
4, 13053, Note_on_c, 1, 65, 0
4, 13104, Note_on_c, 1, 70, 64
4, 13104, Note_on_c, 1, 66, 64
4, 13149, Note_on_c, 1, 70, 0
4, 13149, Note_on_c, 1, 66, 0
4, 13200, Note_on_c, 1, 70, 64
4, 13200, Note_on_c, 1, 66, 64
4, 13245, Note_on_c, 1, 70, 0
4, 13245, Note_on_c, 1, 66, 0
4, 13296, Note_on_c, 1, 70, 64
4, 13296, Note_on_c, 1, 66, 64
4, 13341, Note_on_c, 1, 70, 0
4, 13341, Note_on_c, 1, 66, 0
4, 13344, Note_on_c, 1, 70, 64
4, 13344, Note_on_c, 1, 66, 64
4, 13389, Note_on_c, 1, 70, 0
4, 13389, Note_on_c, 1, 66, 0
4, 13392, Note_on_c, 1, 70, 64
4, 13392, Note_on_c, 1, 66, 64
4, 13437, Note_on_c, 1, 70, 0
4, 13437, Note_on_c, 1, 66, 0
4, 13440, Note_on_c, 1, 68, 64
4, 13463, Note_on_c, 1, 68, 0
4, 13464, Note_on_c, 1, 71, 64
4, 13487, Note_on_c, 1, 71, 0
4, 13488, Note_on_c, 1, 66, 64
4, 13511, Note_on_c, 1, 66, 0
4, 13512, Note_on_c, 1, 71, 64
4, 13535, Note_on_c, 1, 71, 0
4, 13536, Note_on_c, 1, 64, 64
4, 13559, Note_on_c, 1, 64, 0
4, 13560, Note_on_c, 1, 71, 64
4, 13583, Note_on_c, 1, 71, 0
4, 13584, Note_on_c, 1, 66, 64
4, 13607, Note_on_c, 1, 66, 0
4, 13608, Note_on_c, 1, 71, 64
4, 13631, Note_on_c, 1, 71, 0
4, 13632, Note_on_c, 1, 68, 64
4, 13655, Note_on_c, 1, 68, 0
4, 13656, Note_on_c, 1, 71, 64
4, 13679, Note_on_c, 1, 71, 0
4, 13680, Note_on_c, 1, 66, 64
4, 13703, Note_on_c, 1, 66, 0
4, 13704, Note_on_c, 1, 71, 64
4, 13727, Note_on_c, 1, 71, 0
4, 13728, Note_on_c, 1, 64, 64
4, 13751, Note_on_c, 1, 64, 0
4, 13752, Note_on_c, 1, 71, 64
4, 13775, Note_on_c, 1, 71, 0
4, 13776, Note_on_c, 1, 66, 64
4, 13799, Note_on_c, 1, 66, 0
4, 13800, Note_on_c, 1, 71, 64
4, 13823, Note_on_c, 1, 71, 0
4, 13824, Note_on_c, 1, 68, 64
4, 13847, Note_on_c, 1, 68, 0
4, 13848, Note_on_c, 1, 71, 64
4, 13871, Note_on_c, 1, 71, 0
4, 13872, Note_on_c, 1, 66, 64
4, 13895, Note_on_c, 1, 66, 0
4, 13896, Note_on_c, 1, 71, 64
4, 13919, Note_on_c, 1, 71, 0
4, 13920, Note_on_c, 1, 65, 64
4, 13943, Note_on_c, 1, 65, 0
4, 13944, Note_on_c, 1, 71, 64
4, 13967, Note_on_c, 1, 71, 0
4, 13968, Note_on_c, 1, 65, 64
4, 13991, Note_on_c, 1, 65, 0
4, 13992, Note_on_c, 1, 71, 64
4, 14015, Note_on_c, 1, 71, 0
4, 14016, Note_on_c, 1, 65, 64
4, 14039, Note_on_c, 1, 65, 0
4, 14040, Note_on_c, 1, 71, 64
4, 14063, Note_on_c, 1, 71, 0
4, 14064, Note_on_c, 1, 65, 64
4, 14087, Note_on_c, 1, 65, 0
4, 14088, Note_on_c, 1, 71, 64
4, 14111, Note_on_c, 1, 71, 0
4, 14112, Note_on_c, 1, 65, 64
4, 14135, Note_on_c, 1, 65, 0
4, 14136, Note_on_c, 1, 71, 64
4, 14159, Note_on_c, 1, 71, 0
4, 14160, Note_on_c, 1, 65, 64
4, 14183, Note_on_c, 1, 65, 0
4, 14184, Note_on_c, 1, 71, 64
4, 14297, Note_on_c, 1, 71, 0
4, 14304, Note_on_c, 1, 70, 64
4, 14393, Note_on_c, 1, 70, 0
4, 14688, Control_c, 1, 64, 127
4, 14688, Note_on_c, 1, 64, 64
4, 14777, Note_on_c, 1, 64, 0
4, 14784, Note_on_c, 1, 61, 64
4, 14873, Note_on_c, 1, 61, 0
4, 14880, Note_on_c, 1, 58, 64
4, 14969, Note_on_c, 1, 58, 0
4, 14976, Note_on_c, 1, 54, 64
4, 15024, Control_c, 1, 64, 0
4, 15032, Note_on_c, 1, 54, 0
4, 15032, Note_on_c, 1, 58, 64
4, 15040, Note_on_c, 1, 58, 0
4, 15040, Note_on_c, 1, 61, 64
4, 15048, Note_on_c, 1, 61, 0
4, 15048, Note_on_c, 1, 64, 64
4, 15056, Note_on_c, 1, 64, 0
4, 15056, Note_on_c, 1, 61, 64
4, 15064, Note_on_c, 1, 61, 0
4, 15064, Note_on_c, 1, 58, 64
4, 15072, Note_on_c, 1, 58, 0
4, 15072, Control_c, 1, 64, 0
4, 15072, Note_on_c, 1, 54, 64
4, 15117, Note_on_c, 1, 54, 0
4, 15120, Note_on_c, 1, 64, 64
4, 15140, Note_on_c, 1, 64, 0
4, 15168, Note_on_c, 1, 64, 64
4, 15264, Note_on_c, 1, 64, 0
4, 15264, Note_on_c, 1, 63, 64
4, 15284, Note_on_c, 1, 63, 0
4, 15744, Note_on_c, 1, 54, 80
4, 15800, Note_on_c, 1, 54, 0
4, 15800, Note_on_c, 1, 58, 80
4, 15808, Note_on_c, 1, 58, 0
4, 15808, Note_on_c, 1, 61, 80
4, 15816, Note_on_c, 1, 61, 0
4, 15816, Note_on_c, 1, 64, 80
4, 15824, Note_on_c, 1, 64, 0
4, 15824, Note_on_c, 1, 61, 80
4, 15832, Note_on_c, 1, 61, 0
4, 15832, Note_on_c, 1, 58, 80
4, 15840, Note_on_c, 1, 58, 0
4, 15840, Note_on_c, 1, 54, 80
4, 15885, Note_on_c, 1, 54, 0
4, 15888, Note_on_c, 1, 67, 80
4, 15888, Note_on_c, 1, 64, 80
4, 15908, Note_on_c, 1, 67, 0
4, 15908, Note_on_c, 1, 64, 0
4, 15936, Note_on_c, 1, 67, 80
4, 15936, Note_on_c, 1, 64, 80
4, 16032, Note_on_c, 1, 67, 0
4, 16032, Note_on_c, 1, 64, 0
4, 16032, Note_on_c, 1, 66, 80
4, 16032, Note_on_c, 1, 63, 80
4, 16052, Note_on_c, 1, 66, 0
4, 16052, Note_on_c, 1, 63, 0
4, 16224, Note_on_c, 1, 71, 80
4, 16224, Note_on_c, 1, 68, 80
4, 16313, Note_on_c, 1, 71, 0
4, 16313, Note_on_c, 1, 68, 0
4, 16416, Note_on_c, 1, 54, 80
4, 16505, Note_on_c, 1, 54, 0
4, 16512, Note_on_c, 1, 47, 80
4, 16601, Note_on_c, 1, 47, 0
4, 16656, Note_on_c, 1, 51, 64
4, 16701, Note_on_c, 1, 51, 0
4, 16704, Note_on_c, 1, 52, 64
4, 16800, Note_on_c, 1, 52, 0
4, 16800, Note_on_c, 1, 54, 64
4, 16889, Note_on_c, 1, 54, 0
4, 16896, Note_on_c, 1, 56, 64
4, 16941, Note_on_c, 1, 56, 0
4, 16944, Note_on_c, 1, 63, 64
4, 16989, Note_on_c, 1, 63, 0
4, 16992, Note_on_c, 1, 61, 64
4, 17037, Note_on_c, 1, 61, 0
4, 17040, Note_on_c, 1, 59, 64
4, 17085, Note_on_c, 1, 59, 0
4, 17088, Note_on_c, 1, 58, 64
4, 17133, Note_on_c, 1, 58, 0
4, 17136, Note_on_c, 1, 56, 64
4, 17181, Note_on_c, 1, 56, 0
4, 17184, Note_on_c, 1, 54, 64
4, 17229, Note_on_c, 1, 54, 0
4, 17232, Note_on_c, 1, 52, 64
4, 17277, Note_on_c, 1, 52, 0
4, 17280, Note_on_c, 1, 51, 64
4, 17325, Note_on_c, 1, 51, 0
4, 17328, Note_on_c, 1, 53, 64
4, 17373, Note_on_c, 1, 53, 0
4, 17376, Note_on_c, 1, 54, 64
4, 17421, Note_on_c, 1, 54, 0
4, 17424, Note_on_c, 1, 42, 64
4, 17469, Note_on_c, 1, 42, 0
4, 17472, Note_on_c, 1, 44, 64
4, 17561, Note_on_c, 1, 44, 0
4, 18048, Note_on_c, 1, 59, 64
4, 18048, Note_on_c, 1, 51, 64
4, 18093, Note_on_c, 1, 59, 0
4, 18093, Note_on_c, 1, 51, 0
4, 18096, Note_on_c, 1, 58, 64
4, 18108, Note_on_c, 1, 58, 0
4, 18108, Note_on_c, 1, 52, 64
4, 18142, Note_on_c, 1, 52, 0
4, 18144, Note_on_c, 1, 59, 64
4, 18144, Note_on_c, 1, 51, 64
4, 18189, Note_on_c, 1, 59, 0
4, 18189, Note_on_c, 1, 51, 0
4, 18192, Note_on_c, 1, 58, 64
4, 18204, Note_on_c, 1, 58, 0
4, 18204, Note_on_c, 1, 52, 64
4, 18238, Note_on_c, 1, 52, 0
4, 18240, Note_on_c, 1, 59, 64
4, 18240, Note_on_c, 1, 51, 64
4, 18329, Note_on_c, 1, 59, 0
4, 18329, Note_on_c, 1, 51, 0
4, 18432, Note_on_c, 1, 48, 80
4, 18438, Note_on_c, 1, 51, 80
4, 18444, Note_on_c, 1, 56, 80
4, 18450, Note_on_c, 1, 60, 80
4, 18525, Note_on_c, 1, 60, 0
4, 18525, Note_on_c, 1, 56, 0
4, 18525, Note_on_c, 1, 51, 0
4, 18525, Note_on_c, 1, 48, 0
4, 18576, Note_on_c, 1, 68, 75
4, 18576, Note_on_c, 1, 60, 75
4, 18621, Note_on_c, 1, 68, 0
4, 18621, Note_on_c, 1, 60, 0
4, 18624, Note_on_c, 1, 61, 75
4, 18647, Note_on_c, 1, 61, 0
4, 18648, Note_on_c, 1, 68, 75
4, 18671, Note_on_c, 1, 68, 0
4, 18672, Note_on_c, 1, 63, 75
4, 18695, Note_on_c, 1, 63, 0
4, 18696, Note_on_c, 1, 68, 75
4, 18719, Note_on_c, 1, 68, 0
4, 18720, Note_on_c, 1, 64, 75
4, 18743, Note_on_c, 1, 64, 0
4, 18744, Note_on_c, 1, 68, 75
4, 18767, Note_on_c, 1, 68, 0
4, 18768, Note_on_c, 1, 63, 75
4, 18791, Note_on_c, 1, 63, 0
4, 18792, Note_on_c, 1, 68, 75
4, 18815, Note_on_c, 1, 68, 0
4, 18816, Note_on_c, 1, 61, 75
4, 18839, Note_on_c, 1, 61, 0
4, 18840, Note_on_c, 1, 68, 75
4, 18863, Note_on_c, 1, 68, 0
4, 18864, Note_on_c, 1, 63, 75
4, 18887, Note_on_c, 1, 63, 0
4, 18888, Note_on_c, 1, 68, 75
4, 18911, Note_on_c, 1, 68, 0
4, 18912, Note_on_c, 1, 64, 75
4, 18935, Note_on_c, 1, 64, 0
4, 18936, Note_on_c, 1, 68, 75
4, 18959, Note_on_c, 1, 68, 0
4, 18960, Note_on_c, 1, 63, 75
4, 18983, Note_on_c, 1, 63, 0
4, 18984, Note_on_c, 1, 68, 75
4, 19007, Note_on_c, 1, 68, 0
4, 19008, Note_on_c, 1, 61, 75
4, 19031, Note_on_c, 1, 61, 0
4, 19032, Note_on_c, 1, 68, 75
4, 19055, Note_on_c, 1, 68, 0
4, 19056, Note_on_c, 1, 63, 75
4, 19079, Note_on_c, 1, 63, 0
4, 19080, Note_on_c, 1, 68, 75
4, 19103, Note_on_c, 1, 68, 0
4, 19104, Note_on_c, 1, 64, 75
4, 19127, Note_on_c, 1, 64, 0
4, 19128, Note_on_c, 1, 68, 75
4, 19151, Note_on_c, 1, 68, 0
4, 19152, Note_on_c, 1, 65, 75
4, 19175, Note_on_c, 1, 65, 0
4, 19176, Note_on_c, 1, 68, 75
4, 19199, Note_on_c, 1, 68, 0
4, 19200, Note_on_c, 1, 66, 75
4, 19289, Note_on_c, 1, 66, 0
4, 19344, Note_on_c, 1, 58, 75
4, 19389, Note_on_c, 1, 58, 0
4, 19392, Note_on_c, 1, 59, 75
4, 19437, Note_on_c, 1, 59, 0
4, 19440, Note_on_c, 1, 61, 75
4, 19485, Note_on_c, 1, 61, 0
4, 19488, Note_on_c, 1, 63, 75
4, 19533, Note_on_c, 1, 63, 0
4, 19536, Note_on_c, 1, 59, 75
4, 19581, Note_on_c, 1, 59, 0
4, 19584, Note_on_c, 1, 64, 75
4, 19673, Note_on_c, 1, 64, 0
4, 19728, Note_on_c, 1, 68, 75
4, 19773, Note_on_c, 1, 68, 0
4, 19776, Note_on_c, 1, 69, 75
4, 19821, Note_on_c, 1, 69, 0
4, 19824, Note_on_c, 1, 57, 75
4, 19869, Note_on_c, 1, 57, 0
4, 19920, Note_on_c, 1, 70, 75
4, 19965, Note_on_c, 1, 70, 0
4, 19968, Note_on_c, 1, 71, 75
4, 20013, Note_on_c, 1, 71, 0
4, 20016, Note_on_c, 1, 59, 75
4, 20061, Note_on_c, 1, 59, 0
4, 20112, Note_on_c, 1, 60, 75
4, 20157, Note_on_c, 1, 60, 0
4, 20160, Note_on_c, 1, 61, 75
4, 20183, Note_on_c, 1, 61, 0
4, 20184, Note_on_c, 1, 68, 75
4, 20207, Note_on_c, 1, 68, 0
4, 20208, Note_on_c, 1, 61, 75
4, 20231, Note_on_c, 1, 61, 0
4, 20232, Note_on_c, 1, 68, 75
4, 20255, Note_on_c, 1, 68, 0
4, 20256, Note_on_c, 1, 61, 75
4, 20279, Note_on_c, 1, 61, 0
4, 20280, Note_on_c, 1, 68, 75
4, 20303, Note_on_c, 1, 68, 0
4, 20304, Note_on_c, 1, 61, 75
4, 20327, Note_on_c, 1, 61, 0
4, 20328, Note_on_c, 1, 68, 75
4, 20351, Note_on_c, 1, 68, 0
4, 20352, Note_on_c, 1, 59, 75
4, 20375, Note_on_c, 1, 59, 0
4, 20376, Note_on_c, 1, 68, 75
4, 20399, Note_on_c, 1, 68, 0
4, 20400, Note_on_c, 1, 59, 75
4, 20423, Note_on_c, 1, 59, 0
4, 20424, Note_on_c, 1, 68, 75
4, 20447, Note_on_c, 1, 68, 0
4, 20448, Note_on_c, 1, 59, 75
4, 20471, Note_on_c, 1, 59, 0
4, 20472, Note_on_c, 1, 68, 75
4, 20495, Note_on_c, 1, 68, 0
4, 20496, Note_on_c, 1, 59, 75
4, 20519, Note_on_c, 1, 59, 0
4, 20520, Note_on_c, 1, 68, 75
4, 20543, Note_on_c, 1, 68, 0
4, 20544, Note_on_c, 1, 56, 75
4, 20567, Note_on_c, 1, 56, 0
4, 20568, Note_on_c, 1, 64, 75
4, 20591, Note_on_c, 1, 64, 0
4, 20592, Note_on_c, 1, 56, 75
4, 20615, Note_on_c, 1, 56, 0
4, 20616, Note_on_c, 1, 64, 75
4, 20639, Note_on_c, 1, 64, 0
4, 20640, Note_on_c, 1, 56, 75
4, 20663, Note_on_c, 1, 56, 0
4, 20664, Note_on_c, 1, 64, 75
4, 20687, Note_on_c, 1, 64, 0
4, 20688, Note_on_c, 1, 56, 75
4, 20711, Note_on_c, 1, 56, 0
4, 20712, Note_on_c, 1, 64, 75
4, 20735, Note_on_c, 1, 64, 0
4, 20736, Note_on_c, 1, 57, 80
4, 20742, Note_on_c, 1, 61, 80
4, 20748, Note_on_c, 1, 64, 80
4, 20754, Note_on_c, 1, 69, 80
4, 20829, Note_on_c, 1, 69, 0
4, 20829, Note_on_c, 1, 64, 0
4, 20829, Note_on_c, 1, 61, 0
4, 20829, Note_on_c, 1, 57, 0
4, 20880, Note_on_c, 1, 73, 75
4, 20925, Note_on_c, 1, 73, 0
4, 20928, Note_on_c, 1, 71, 75
4, 20973, Note_on_c, 1, 71, 0
4, 20976, Note_on_c, 1, 68, 75
4, 21021, Note_on_c, 1, 68, 0
4, 21024, Note_on_c, 1, 69, 75
4, 21069, Note_on_c, 1, 69, 0
4, 21072, Note_on_c, 1, 61, 75
4, 21117, Note_on_c, 1, 61, 0
4, 21120, Note_on_c, 1, 62, 75
4, 21165, Note_on_c, 1, 62, 0
4, 21168, Note_on_c, 1, 64, 75
4, 21213, Note_on_c, 1, 64, 0
4, 21216, Note_on_c, 1, 57, 75
4, 21305, Note_on_c, 1, 57, 0
4, 21360, Note_on_c, 1, 45, 75
4, 21405, Note_on_c, 1, 45, 0
4, 21408, Note_on_c, 1, 57, 75
4, 21453, Note_on_c, 1, 57, 0
4, 21552, Note_on_c, 1, 45, 75
4, 21597, Note_on_c, 1, 45, 0
4, 21600, Note_on_c, 1, 57, 75
4, 21645, Note_on_c, 1, 57, 0
4, 21744, Note_on_c, 1, 64, 65
4, 21744, Note_on_c, 1, 61, 65
4, 21764, Note_on_c, 1, 64, 0
4, 21764, Note_on_c, 1, 61, 0
4, 21792, Note_on_c, 1, 64, 65
4, 21792, Note_on_c, 1, 61, 65
4, 21839, Note_on_c, 1, 64, 0
4, 21839, Note_on_c, 1, 61, 0
4, 21936, Note_on_c, 1, 70, 67
4, 21936, Note_on_c, 1, 64, 67
4, 21956, Note_on_c, 1, 70, 0
4, 21956, Note_on_c, 1, 64, 0
4, 21984, Note_on_c, 1, 70, 68
4, 21984, Note_on_c, 1, 64, 68
4, 22031, Note_on_c, 1, 70, 0
4, 22031, Note_on_c, 1, 64, 0
4, 22128, Note_on_c, 1, 66, 70
4, 22128, Note_on_c, 1, 63, 70
4, 22148, Note_on_c, 1, 66, 0
4, 22148, Note_on_c, 1, 63, 0
4, 22176, Note_on_c, 1, 66, 70
4, 22176, Note_on_c, 1, 63, 70
4, 22223, Note_on_c, 1, 66, 0
4, 22223, Note_on_c, 1, 63, 0
4, 22320, Note_on_c, 1, 72, 72
4, 22320, Note_on_c, 1, 66, 72
4, 22340, Note_on_c, 1, 72, 0
4, 22340, Note_on_c, 1, 66, 0
4, 22368, Note_on_c, 1, 72, 73
4, 22368, Note_on_c, 1, 66, 73
4, 22415, Note_on_c, 1, 72, 0
4, 22415, Note_on_c, 1, 66, 0
4, 22512, Note_on_c, 1, 68, 75
4, 22512, Note_on_c, 1, 65, 75
4, 22532, Note_on_c, 1, 68, 0
4, 22532, Note_on_c, 1, 65, 0
4, 22560, Note_on_c, 1, 68, 75
4, 22560, Note_on_c, 1, 65, 75
4, 22607, Note_on_c, 1, 68, 0
4, 22607, Note_on_c, 1, 65, 0
4, 22704, Note_on_c, 1, 68, 77
4, 22704, Note_on_c, 1, 64, 77
4, 22724, Note_on_c, 1, 68, 0
4, 22724, Note_on_c, 1, 64, 0
4, 22752, Note_on_c, 1, 68, 78
4, 22752, Note_on_c, 1, 64, 78
4, 22799, Note_on_c, 1, 68, 0
4, 22799, Note_on_c, 1, 64, 0
4, 22896, Note_on_c, 1, 67, 80
4, 22896, Note_on_c, 1, 63, 80
4, 22916, Note_on_c, 1, 67, 0
4, 22916, Note_on_c, 1, 63, 0
4, 22944, Note_on_c, 1, 67, 80
4, 22944, Note_on_c, 1, 63, 80
4, 23394, Note_on_c, 1, 67, 0
4, 23394, Note_on_c, 1, 63, 0
4, 23424, Note_on_c, 1, 51, 80
4, 23480, Note_on_c, 1, 51, 0
4, 23480, Note_on_c, 1, 55, 80
4, 23488, Note_on_c, 1, 55, 0
4, 23488, Note_on_c, 1, 58, 80
4, 23496, Note_on_c, 1, 58, 0
4, 23496, Note_on_c, 1, 61, 80
4, 23504, Note_on_c, 1, 61, 0
4, 23504, Note_on_c, 1, 58, 80
4, 23512, Note_on_c, 1, 58, 0
4, 23512, Note_on_c, 1, 55, 80
4, 23520, Note_on_c, 1, 55, 0
4, 23520, Note_on_c, 1, 51, 80
4, 23565, Note_on_c, 1, 51, 0
4, 23568, Note_on_c, 1, 73, 64
4, 23588, Note_on_c, 1, 73, 0
4, 23616, Note_on_c, 1, 73, 64
4, 23712, Note_on_c, 1, 73, 0
4, 23712, Note_on_c, 1, 71, 64
4, 23732, Note_on_c, 1, 71, 0
4, 23808, Note_on_c, 1, 51, 80
4, 23864, Note_on_c, 1, 51, 0
4, 23864, Note_on_c, 1, 55, 80
4, 23872, Note_on_c, 1, 55, 0
4, 23872, Note_on_c, 1, 58, 80
4, 23880, Note_on_c, 1, 58, 0
4, 23880, Note_on_c, 1, 61, 80
4, 23888, Note_on_c, 1, 61, 0
4, 23888, Note_on_c, 1, 58, 80
4, 23896, Note_on_c, 1, 58, 0
4, 23896, Note_on_c, 1, 55, 80
4, 23904, Note_on_c, 1, 55, 0
4, 23904, Note_on_c, 1, 51, 80
4, 23949, Note_on_c, 1, 51, 0
4, 23952, Note_on_c, 1, 67, 64
4, 23972, Note_on_c, 1, 67, 0
4, 24000, Note_on_c, 1, 67, 64
4, 24096, Note_on_c, 1, 67, 0
4, 24096, Note_on_c, 1, 68, 64
4, 24116, Note_on_c, 1, 68, 0
4, 24144, Note_on_c, 1, 79, 64
4, 24164, Note_on_c, 1, 79, 0
4, 24192, Note_on_c, 1, 79, 64
4, 24288, Note_on_c, 1, 79, 0
4, 24288, Note_on_c, 1, 80, 64
4, 24308, Note_on_c, 1, 80, 0
4, 24384, Note_on_c, 1, 61, 64
4, 24404, Note_on_c, 1, 61, 0
4, 24432, Note_on_c, 1, 64, 64
4, 24452, Note_on_c, 1, 64, 0
4, 24480, Note_on_c, 1, 63, 64
4, 24500, Note_on_c, 1, 63, 0
4, 24528, Note_on_c, 1, 51, 64
4, 24548, Note_on_c, 1, 51, 0
4, 24576, Control_c, 1, 64, 127
4, 24624, Note_on_c, 1, 59, 64
4, 24669, Note_on_c, 1, 59, 0
4, 24672, Note_on_c, 1, 63, 64
4, 24717, Note_on_c, 1, 63, 0
4, 24720, Note_on_c, 1, 59, 64
4, 24765, Note_on_c, 1, 59, 0
4, 24816, Note_on_c, 1, 59, 64
4, 24861, Note_on_c, 1, 59, 0
4, 24864, Note_on_c, 1, 63, 64
4, 24909, Note_on_c, 1, 63, 0
4, 24912, Note_on_c, 1, 59, 64
4, 24957, Note_on_c, 1, 59, 0
4, 24960, Control_c, 1, 64, 0
4, 24960, Control_c, 1, 64, 127
4, 25008, Note_on_c, 1, 59, 64
4, 25053, Note_on_c, 1, 59, 0
4, 25056, Note_on_c, 1, 63, 64
4, 25101, Note_on_c, 1, 63, 0
4, 25104, Note_on_c, 1, 59, 64
4, 25149, Note_on_c, 1, 59, 0
4, 25200, Note_on_c, 1, 59, 64
4, 25245, Note_on_c, 1, 59, 0
4, 25248, Note_on_c, 1, 63, 64
4, 25293, Note_on_c, 1, 63, 0
4, 25296, Note_on_c, 1, 59, 64
4, 25341, Note_on_c, 1, 59, 0
4, 25344, Control_c, 1, 64, 0
4, 25344, Note_on_c, 1, 52, 80
4, 25350, Note_on_c, 1, 56, 80
4, 25356, Note_on_c, 1, 59, 80
4, 25362, Note_on_c, 1, 64, 80
4, 25437, Note_on_c, 1, 64, 0
4, 25437, Note_on_c, 1, 59, 0
4, 25437, Note_on_c, 1, 56, 0
4, 25437, Note_on_c, 1, 52, 0
4, 25488, Note_on_c, 1, 68, 75
4, 25533, Note_on_c, 1, 68, 0
4, 25536, Note_on_c, 1, 66, 75
4, 25584, Note_on_c, 1, 66, 0
4, 25584, Note_on_c, 1, 63, 75
4, 25629, Note_on_c, 1, 63, 0
4, 25632, Note_on_c, 1, 64, 75
4, 25677, Note_on_c, 1, 64, 0
4, 25680, Note_on_c, 1, 56, 75
4, 25725, Note_on_c, 1, 56, 0
4, 25728, Note_on_c, 1, 57, 75
4, 25773, Note_on_c, 1, 57, 0
4, 25776, Note_on_c, 1, 59, 75
4, 25821, Note_on_c, 1, 59, 0
4, 25824, Note_on_c, 1, 52, 75
4, 25869, Note_on_c, 1, 52, 0
4, 26112, Note_on_c, 1, 47, 80
4, 26118, Note_on_c, 1, 51, 80
4, 26124, Note_on_c, 1, 54, 80
4, 26130, Note_on_c, 1, 59, 80
4, 26205, Note_on_c, 1, 59, 0
4, 26205, Note_on_c, 1, 54, 0
4, 26205, Note_on_c, 1, 51, 0
4, 26205, Note_on_c, 1, 47, 0
4, 26256, Note_on_c, 1, 61, 75
4, 26301, Note_on_c, 1, 61, 0
4, 26304, Note_on_c, 1, 63, 75
4, 26349, Note_on_c, 1, 63, 0
4, 26352, Note_on_c, 1, 59, 75
4, 26397, Note_on_c, 1, 59, 0
4, 26400, Note_on_c, 1, 64, 75
4, 26445, Note_on_c, 1, 64, 0
4, 26448, Note_on_c, 1, 56, 75
4, 26493, Note_on_c, 1, 56, 0
4, 26496, Note_on_c, 1, 57, 75
4, 26585, Note_on_c, 1, 57, 0
4, 26640, Note_on_c, 1, 54, 75
4, 26640, Note_on_c, 1, 42, 75
4, 26660, Note_on_c, 1, 54, 0
4, 26660, Note_on_c, 1, 42, 0
4, 26688, Note_on_c, 1, 52, 75
4, 26688, Note_on_c, 1, 40, 75
4, 26727, Note_on_c, 1, 52, 0
4, 26727, Note_on_c, 1, 40, 0
4, 26880, Note_on_c, 1, 52, 80
4, 26886, Note_on_c, 1, 56, 80
4, 26892, Note_on_c, 1, 59, 80
4, 26898, Note_on_c, 1, 64, 80
4, 26973, Note_on_c, 1, 64, 0
4, 26973, Note_on_c, 1, 59, 0
4, 26973, Note_on_c, 1, 56, 0
4, 26973, Note_on_c, 1, 52, 0
4, 27024, Note_on_c, 1, 68, 75
4, 27069, Note_on_c, 1, 68, 0
4, 27072, Note_on_c, 1, 66, 75
4, 27120, Note_on_c, 1, 66, 0
4, 27120, Note_on_c, 1, 63, 75
4, 27165, Note_on_c, 1, 63, 0
4, 27168, Note_on_c, 1, 64, 75
4, 27213, Note_on_c, 1, 64, 0
4, 27216, Note_on_c, 1, 56, 75
4, 27261, Note_on_c, 1, 56, 0
4, 27264, Note_on_c, 1, 57, 75
4, 27309, Note_on_c, 1, 57, 0
4, 27312, Note_on_c, 1, 59, 75
4, 27357, Note_on_c, 1, 59, 0
4, 27360, Note_on_c, 1, 52, 75
4, 27405, Note_on_c, 1, 52, 0
4, 27504, Note_on_c, 1, 40, 75
4, 27549, Note_on_c, 1, 40, 0
4, 27552, Note_on_c, 1, 52, 75
4, 27597, Note_on_c, 1, 52, 0
4, 27696, Note_on_c, 1, 40, 75
4, 27741, Note_on_c, 1, 40, 0
4, 27744, Note_on_c, 1, 52, 75
4, 27789, Note_on_c, 1, 52, 0
4, 27888, Note_on_c, 1, 47, 75
4, 27933, Note_on_c, 1, 47, 0
4, 27936, Note_on_c, 1, 59, 75
4, 27981, Note_on_c, 1, 59, 0
4, 28080, Note_on_c, 1, 47, 75
4, 28125, Note_on_c, 1, 47, 0
4, 28128, Note_on_c, 1, 59, 75
4, 28173, Note_on_c, 1, 59, 0
4, 28416, Control_c, 1, 64, 127
4, 28416, Note_on_c, 1, 57, 75
4, 28416, Note_on_c, 1, 54, 75
4, 28416, Note_on_c, 1, 51, 75
4, 28416, Note_on_c, 1, 47, 75
4, 29361, Note_on_c, 1, 57, 0
4, 29361, Note_on_c, 1, 54, 0
4, 29361, Note_on_c, 1, 51, 0
4, 29361, Note_on_c, 1, 47, 0
4, 29376, Control_c, 1, 64, 0
4, 29568, Note_on_c, 1, 63, 64
4, 29591, Note_on_c, 1, 63, 0
4, 29592, Note_on_c, 1, 64, 64
4, 29615, Note_on_c, 1, 64, 0
4, 29616, Note_on_c, 1, 65, 64
4, 29639, Note_on_c, 1, 65, 0
4, 29640, Note_on_c, 1, 66, 64
4, 29663, Note_on_c, 1, 66, 0
4, 29664, Note_on_c, 1, 67, 64
4, 29687, Note_on_c, 1, 67, 0
4, 29688, Note_on_c, 1, 68, 64
4, 29711, Note_on_c, 1, 68, 0
4, 29712, Note_on_c, 1, 69, 64
4, 29735, Note_on_c, 1, 69, 0
4, 29736, Note_on_c, 1, 68, 64
4, 29759, Note_on_c, 1, 68, 0
4, 29760, Note_on_c, 1, 69, 64
4, 29827, Note_on_c, 1, 69, 0
4, 29832, Note_on_c, 1, 68, 64
4, 29855, Note_on_c, 1, 68, 0
4, 29856, Note_on_c, 1, 69, 64
4, 29923, Note_on_c, 1, 69, 0
4, 29928, Note_on_c, 1, 68, 64
4, 29951, Note_on_c, 1, 68, 0
4, 29952, Note_on_c, 1, 69, 64
4, 29952, Note_on_c, 1, 63, 64
4, 30513, Note_on_c, 1, 69, 0
4, 30513, Note_on_c, 1, 63, 0
4, 30768, Note_on_c, 1, 59, 64
4, 30768, Note_on_c, 1, 56, 64
4, 30813, Note_on_c, 1, 59, 0
4, 30813, Note_on_c, 1, 56, 0
4, 30864, Note_on_c, 1, 59, 64
4, 30864, Note_on_c, 1, 56, 64
4, 30909, Note_on_c, 1, 59, 0
4, 30909, Note_on_c, 1, 56, 0
4, 30960, Note_on_c, 1, 59, 64
4, 30960, Note_on_c, 1, 56, 64
4, 31005, Note_on_c, 1, 59, 0
4, 31005, Note_on_c, 1, 56, 0
4, 31008, Note_on_c, 1, 59, 64
4, 31008, Note_on_c, 1, 56, 64
4, 31053, Note_on_c, 1, 59, 0
4, 31053, Note_on_c, 1, 56, 0
4, 31056, Note_on_c, 1, 59, 64
4, 31056, Note_on_c, 1, 56, 64
4, 31101, Note_on_c, 1, 59, 0
4, 31101, Note_on_c, 1, 56, 0
4, 31152, Note_on_c, 1, 61, 64
4, 31152, Note_on_c, 1, 57, 64
4, 31197, Note_on_c, 1, 61, 0
4, 31197, Note_on_c, 1, 57, 0
4, 31248, Note_on_c, 1, 61, 64
4, 31248, Note_on_c, 1, 57, 64
4, 31293, Note_on_c, 1, 61, 0
4, 31293, Note_on_c, 1, 57, 0
4, 31344, Note_on_c, 1, 61, 64
4, 31344, Note_on_c, 1, 58, 64
4, 31389, Note_on_c, 1, 61, 0
4, 31389, Note_on_c, 1, 58, 0
4, 31392, Note_on_c, 1, 61, 64
4, 31392, Note_on_c, 1, 58, 64
4, 31437, Note_on_c, 1, 61, 0
4, 31437, Note_on_c, 1, 58, 0
4, 31440, Note_on_c, 1, 61, 64
4, 31440, Note_on_c, 1, 58, 64
4, 31485, Note_on_c, 1, 61, 0
4, 31485, Note_on_c, 1, 58, 0
4, 31872, Note_on_c, 1, 61, 64
4, 31895, Note_on_c, 1, 61, 0
4, 31896, Note_on_c, 1, 64, 64
4, 31919, Note_on_c, 1, 64, 0
4, 31920, Note_on_c, 1, 59, 64
4, 31943, Note_on_c, 1, 59, 0
4, 31944, Note_on_c, 1, 64, 64
4, 31967, Note_on_c, 1, 64, 0
4, 31968, Note_on_c, 1, 57, 64
4, 31991, Note_on_c, 1, 57, 0
4, 31992, Note_on_c, 1, 64, 64
4, 32015, Note_on_c, 1, 64, 0
4, 32016, Note_on_c, 1, 59, 64
4, 32039, Note_on_c, 1, 59, 0
4, 32040, Note_on_c, 1, 64, 64
4, 32063, Note_on_c, 1, 64, 0
4, 32064, Note_on_c, 1, 61, 64
4, 32087, Note_on_c, 1, 61, 0
4, 32088, Note_on_c, 1, 64, 64
4, 32111, Note_on_c, 1, 64, 0
4, 32112, Note_on_c, 1, 59, 64
4, 32135, Note_on_c, 1, 59, 0
4, 32136, Note_on_c, 1, 64, 64
4, 32159, Note_on_c, 1, 64, 0
4, 32160, Note_on_c, 1, 57, 64
4, 32183, Note_on_c, 1, 57, 0
4, 32184, Note_on_c, 1, 64, 64
4, 32207, Note_on_c, 1, 64, 0
4, 32208, Note_on_c, 1, 59, 64
4, 32231, Note_on_c, 1, 59, 0
4, 32232, Note_on_c, 1, 64, 64
4, 32255, Note_on_c, 1, 64, 0
4, 32256, Note_on_c, 1, 61, 64
4, 32279, Note_on_c, 1, 61, 0
4, 32280, Note_on_c, 1, 64, 64
4, 32303, Note_on_c, 1, 64, 0
4, 32304, Note_on_c, 1, 59, 64
4, 32327, Note_on_c, 1, 59, 0
4, 32328, Note_on_c, 1, 64, 64
4, 32351, Note_on_c, 1, 64, 0
4, 32352, Note_on_c, 1, 58, 64
4, 32375, Note_on_c, 1, 58, 0
4, 32376, Note_on_c, 1, 64, 64
4, 32399, Note_on_c, 1, 64, 0
4, 32400, Note_on_c, 1, 58, 64
4, 32423, Note_on_c, 1, 58, 0
4, 32424, Note_on_c, 1, 64, 64
4, 32447, Note_on_c, 1, 64, 0
4, 32448, Note_on_c, 1, 58, 64
4, 32471, Note_on_c, 1, 58, 0
4, 32472, Note_on_c, 1, 64, 64
4, 32495, Note_on_c, 1, 64, 0
4, 32496, Note_on_c, 1, 58, 64
4, 32519, Note_on_c, 1, 58, 0
4, 32520, Note_on_c, 1, 64, 64
4, 32543, Note_on_c, 1, 64, 0
4, 32544, Note_on_c, 1, 58, 64
4, 32567, Note_on_c, 1, 58, 0
4, 32568, Note_on_c, 1, 64, 64
4, 32591, Note_on_c, 1, 64, 0
4, 32592, Note_on_c, 1, 58, 64
4, 32615, Note_on_c, 1, 58, 0
4, 32616, Note_on_c, 1, 64, 64
4, 32729, Note_on_c, 1, 64, 0
4, 32736, Note_on_c, 1, 63, 64
4, 32825, Note_on_c, 1, 63, 0
4, 33024, Control_c, 1, 64, 127
4, 33408, Control_c, 1, 64, 0
4, 33408, Control_c, 1, 64, 127
4, 33792, Control_c, 1, 64, 0
4, 33792, Control_c, 1, 64, 127
4, 34176, Control_c, 1, 64, 0
4, 34176, Control_c, 1, 64, 127
4, 34560, Control_c, 1, 64, 0
4, 34560, Control_c, 1, 64, 127
4, 34944, Control_c, 1, 64, 0
4, 34944, Control_c, 1, 64, 127
4, 35328, Control_c, 1, 64, 0
4, 35328, Note_on_c, 1, 47, 80
4, 35384, Note_on_c, 1, 47, 0
4, 35384, Note_on_c, 1, 51, 80
4, 35392, Note_on_c, 1, 51, 0
4, 35392, Note_on_c, 1, 54, 80
4, 35400, Note_on_c, 1, 54, 0
4, 35400, Note_on_c, 1, 57, 80
4, 35408, Note_on_c, 1, 57, 0
4, 35408, Note_on_c, 1, 54, 80
4, 35416, Note_on_c, 1, 54, 0
4, 35416, Note_on_c, 1, 51, 80
4, 35424, Note_on_c, 1, 51, 0
4, 35424, Control_c, 1, 64, 0
4, 35424, Note_on_c, 1, 47, 80
4, 35469, Note_on_c, 1, 47, 0
4, 35472, Note_on_c, 1, 57, 80
4, 35492, Note_on_c, 1, 57, 0
4, 35520, Note_on_c, 1, 57, 80
4, 35616, Note_on_c, 1, 57, 0
4, 35616, Note_on_c, 1, 56, 80
4, 35636, Note_on_c, 1, 56, 0
4, 36096, Note_on_c, 1, 47, 80
4, 36152, Note_on_c, 1, 47, 0
4, 36152, Note_on_c, 1, 51, 80
4, 36160, Note_on_c, 1, 51, 0
4, 36160, Note_on_c, 1, 54, 80
4, 36168, Note_on_c, 1, 54, 0
4, 36168, Note_on_c, 1, 57, 80
4, 36176, Note_on_c, 1, 57, 0
4, 36176, Note_on_c, 1, 54, 80
4, 36184, Note_on_c, 1, 54, 0
4, 36184, Note_on_c, 1, 51, 80
4, 36192, Note_on_c, 1, 51, 0
4, 36192, Note_on_c, 1, 47, 80
4, 36237, Note_on_c, 1, 47, 0
4, 36240, Note_on_c, 1, 60, 80
4, 36240, Note_on_c, 1, 57, 80
4, 36260, Note_on_c, 1, 60, 0
4, 36260, Note_on_c, 1, 57, 0
4, 36288, Note_on_c, 1, 60, 80
4, 36288, Note_on_c, 1, 57, 80
4, 36384, Note_on_c, 1, 60, 0
4, 36384, Note_on_c, 1, 57, 0
4, 36384, Note_on_c, 1, 59, 80
4, 36384, Note_on_c, 1, 56, 80
4, 36404, Note_on_c, 1, 59, 0
4, 36404, Note_on_c, 1, 56, 0
4, 36576, Note_on_c, 1, 64, 80
4, 36576, Note_on_c, 1, 61, 80
4, 36621, Note_on_c, 1, 64, 0
4, 36621, Note_on_c, 1, 61, 0
4, 36768, Note_on_c, 1, 47, 80
4, 36857, Note_on_c, 1, 47, 0
4, 36864, Note_on_c, 1, 52, 80
4, 36864, Note_on_c, 1, 40, 80
4, 36953, Note_on_c, 1, 52, 0
4, 36953, Note_on_c, 1, 40, 0
4, 37008, Note_on_c, 1, 56, 64
4, 37053, Note_on_c, 1, 56, 0
4, 37056, Note_on_c, 1, 57, 64
4, 37152, Note_on_c, 1, 57, 0
4, 37152, Note_on_c, 1, 59, 68
4, 37241, Note_on_c, 1, 59, 0
4, 37248, Note_on_c, 1, 61, 72
4, 37293, Note_on_c, 1, 61, 0
4, 37296, Note_on_c, 1, 68, 74
4, 37341, Note_on_c, 1, 68, 0
4, 37344, Note_on_c, 1, 66, 76
4, 37389, Note_on_c, 1, 66, 0
4, 37392, Note_on_c, 1, 64, 78
4, 37437, Note_on_c, 1, 64, 0
4, 37440, Note_on_c, 1, 63, 80
4, 37485, Note_on_c, 1, 63, 0
4, 37488, Note_on_c, 1, 61, 78
4, 37533, Note_on_c, 1, 61, 0
4, 37536, Note_on_c, 1, 59, 76
4, 37581, Note_on_c, 1, 59, 0
4, 37584, Note_on_c, 1, 57, 75
4, 37629, Note_on_c, 1, 57, 0
4, 37632, Note_on_c, 1, 56, 73
4, 37677, Note_on_c, 1, 56, 0
4, 37680, Note_on_c, 1, 58, 72
4, 37725, Note_on_c, 1, 58, 0
4, 37728, Note_on_c, 1, 59, 70
4, 37773, Note_on_c, 1, 59, 0
4, 37776, Note_on_c, 1, 47, 68
4, 37821, Note_on_c, 1, 47, 0
4, 37824, Note_on_c, 1, 49, 67
4, 37913, Note_on_c, 1, 49, 0
4, 38352, Note_on_c, 1, 47, 64
4, 38397, Note_on_c, 1, 47, 0
4, 38400, Note_on_c, 1, 52, 64
4, 38400, Note_on_c, 1, 40, 64
4, 38445, Note_on_c, 1, 52, 0
4, 38445, Note_on_c, 1, 40, 0
4, 38448, Note_on_c, 1, 47, 64
4, 38493, Note_on_c, 1, 47, 0
4, 38496, Note_on_c, 1, 52, 64
4, 38496, Note_on_c, 1, 40, 64
4, 38541, Note_on_c, 1, 52, 0
4, 38541, Note_on_c, 1, 40, 0
4, 38544, Note_on_c, 1, 47, 64
4, 38589, Note_on_c, 1, 47, 0
4, 38592, Note_on_c, 1, 52, 64
4, 38592, Note_on_c, 1, 40, 64
4, 38681, Note_on_c, 1, 52, 0
4, 38681, Note_on_c, 1, 40, 0
4, 38784, Note_on_c, 1, 48, 80
4, 38790, Note_on_c, 1, 51, 80
4, 38796, Note_on_c, 1, 56, 80
4, 38802, Note_on_c, 1, 60, 80
4, 38877, Note_on_c, 1, 60, 0
4, 38877, Note_on_c, 1, 56, 0
4, 38877, Note_on_c, 1, 51, 0
4, 38877, Note_on_c, 1, 48, 0
4, 38928, Note_on_c, 1, 68, 75
4, 38928, Note_on_c, 1, 60, 75
4, 38973, Note_on_c, 1, 68, 0
4, 38973, Note_on_c, 1, 60, 0
4, 38976, Note_on_c, 1, 61, 75
4, 38999, Note_on_c, 1, 61, 0
4, 39000, Note_on_c, 1, 68, 75
4, 39023, Note_on_c, 1, 68, 0
4, 39024, Note_on_c, 1, 63, 75
4, 39047, Note_on_c, 1, 63, 0
4, 39048, Note_on_c, 1, 68, 75
4, 39071, Note_on_c, 1, 68, 0
4, 39072, Note_on_c, 1, 64, 75
4, 39095, Note_on_c, 1, 64, 0
4, 39096, Note_on_c, 1, 68, 75
4, 39119, Note_on_c, 1, 68, 0
4, 39120, Note_on_c, 1, 63, 75
4, 39143, Note_on_c, 1, 63, 0
4, 39144, Note_on_c, 1, 68, 75
4, 39167, Note_on_c, 1, 68, 0
4, 39168, Note_on_c, 1, 61, 75
4, 39191, Note_on_c, 1, 61, 0
4, 39192, Note_on_c, 1, 68, 75
4, 39215, Note_on_c, 1, 68, 0
4, 39216, Note_on_c, 1, 63, 75
4, 39239, Note_on_c, 1, 63, 0
4, 39240, Note_on_c, 1, 68, 75
4, 39263, Note_on_c, 1, 68, 0
4, 39264, Note_on_c, 1, 64, 75
4, 39287, Note_on_c, 1, 64, 0
4, 39288, Note_on_c, 1, 68, 75
4, 39311, Note_on_c, 1, 68, 0
4, 39312, Note_on_c, 1, 63, 75
4, 39335, Note_on_c, 1, 63, 0
4, 39336, Note_on_c, 1, 68, 75
4, 39359, Note_on_c, 1, 68, 0
4, 39360, Note_on_c, 1, 61, 75
4, 39383, Note_on_c, 1, 61, 0
4, 39384, Note_on_c, 1, 68, 75
4, 39407, Note_on_c, 1, 68, 0
4, 39408, Note_on_c, 1, 63, 75
4, 39431, Note_on_c, 1, 63, 0
4, 39432, Note_on_c, 1, 68, 75
4, 39455, Note_on_c, 1, 68, 0
4, 39456, Note_on_c, 1, 64, 75
4, 39479, Note_on_c, 1, 64, 0
4, 39480, Note_on_c, 1, 68, 75
4, 39503, Note_on_c, 1, 68, 0
4, 39504, Note_on_c, 1, 65, 75
4, 39527, Note_on_c, 1, 65, 0
4, 39528, Note_on_c, 1, 68, 75
4, 39551, Note_on_c, 1, 68, 0
4, 39552, Note_on_c, 1, 66, 75
4, 39641, Note_on_c, 1, 66, 0
4, 39696, Note_on_c, 1, 58, 75
4, 39741, Note_on_c, 1, 58, 0
4, 39744, Note_on_c, 1, 59, 75
4, 39789, Note_on_c, 1, 59, 0
4, 39792, Note_on_c, 1, 61, 75
4, 39837, Note_on_c, 1, 61, 0
4, 39840, Note_on_c, 1, 63, 75
4, 39885, Note_on_c, 1, 63, 0
4, 39888, Note_on_c, 1, 59, 75
4, 39933, Note_on_c, 1, 59, 0
4, 39936, Note_on_c, 1, 64, 75
4, 40025, Note_on_c, 1, 64, 0
4, 40080, Note_on_c, 1, 68, 75
4, 40125, Note_on_c, 1, 68, 0
4, 40128, Note_on_c, 1, 69, 75
4, 40173, Note_on_c, 1, 69, 0
4, 40176, Note_on_c, 1, 57, 75
4, 40221, Note_on_c, 1, 57, 0
4, 40272, Note_on_c, 1, 70, 75
4, 40317, Note_on_c, 1, 70, 0
4, 40320, Note_on_c, 1, 71, 75
4, 40365, Note_on_c, 1, 71, 0
4, 40368, Note_on_c, 1, 59, 75
4, 40413, Note_on_c, 1, 59, 0
4, 40464, Note_on_c, 1, 60, 75
4, 40509, Note_on_c, 1, 60, 0
4, 40512, Note_on_c, 1, 61, 75
4, 40535, Note_on_c, 1, 61, 0
4, 40536, Note_on_c, 1, 68, 75
4, 40559, Note_on_c, 1, 68, 0
4, 40560, Note_on_c, 1, 61, 75
4, 40583, Note_on_c, 1, 61, 0
4, 40584, Note_on_c, 1, 68, 75
4, 40607, Note_on_c, 1, 68, 0
4, 40608, Note_on_c, 1, 61, 75
4, 40631, Note_on_c, 1, 61, 0
4, 40632, Note_on_c, 1, 68, 75
4, 40655, Note_on_c, 1, 68, 0
4, 40656, Note_on_c, 1, 61, 75
4, 40679, Note_on_c, 1, 61, 0
4, 40680, Note_on_c, 1, 68, 75
4, 40703, Note_on_c, 1, 68, 0
4, 40704, Note_on_c, 1, 59, 75
4, 40727, Note_on_c, 1, 59, 0
4, 40728, Note_on_c, 1, 68, 75
4, 40751, Note_on_c, 1, 68, 0
4, 40752, Note_on_c, 1, 59, 75
4, 40775, Note_on_c, 1, 59, 0
4, 40776, Note_on_c, 1, 68, 75
4, 40799, Note_on_c, 1, 68, 0
4, 40800, Note_on_c, 1, 59, 75
4, 40823, Note_on_c, 1, 59, 0
4, 40824, Note_on_c, 1, 68, 75
4, 40847, Note_on_c, 1, 68, 0
4, 40848, Note_on_c, 1, 59, 75
4, 40871, Note_on_c, 1, 59, 0
4, 40872, Note_on_c, 1, 68, 75
4, 40895, Note_on_c, 1, 68, 0
4, 40896, Note_on_c, 1, 56, 75
4, 40919, Note_on_c, 1, 56, 0
4, 40920, Note_on_c, 1, 64, 75
4, 40943, Note_on_c, 1, 64, 0
4, 40944, Note_on_c, 1, 56, 75
4, 40967, Note_on_c, 1, 56, 0
4, 40968, Note_on_c, 1, 64, 75
4, 40991, Note_on_c, 1, 64, 0
4, 40992, Note_on_c, 1, 56, 75
4, 41015, Note_on_c, 1, 56, 0
4, 41016, Note_on_c, 1, 64, 75
4, 41039, Note_on_c, 1, 64, 0
4, 41040, Note_on_c, 1, 56, 75
4, 41063, Note_on_c, 1, 56, 0
4, 41064, Note_on_c, 1, 64, 75
4, 41087, Note_on_c, 1, 64, 0
4, 41088, Note_on_c, 1, 57, 80
4, 41094, Note_on_c, 1, 61, 80
4, 41100, Note_on_c, 1, 64, 80
4, 41106, Note_on_c, 1, 69, 80
4, 41181, Note_on_c, 1, 69, 0
4, 41181, Note_on_c, 1, 64, 0
4, 41181, Note_on_c, 1, 61, 0
4, 41181, Note_on_c, 1, 57, 0
4, 41232, Note_on_c, 1, 73, 75
4, 41277, Note_on_c, 1, 73, 0
4, 41280, Note_on_c, 1, 71, 75
4, 41325, Note_on_c, 1, 71, 0
4, 41328, Note_on_c, 1, 68, 75
4, 41373, Note_on_c, 1, 68, 0
4, 41376, Note_on_c, 1, 69, 75
4, 41421, Note_on_c, 1, 69, 0
4, 41424, Note_on_c, 1, 61, 75
4, 41469, Note_on_c, 1, 61, 0
4, 41472, Note_on_c, 1, 62, 75
4, 41517, Note_on_c, 1, 62, 0
4, 41520, Note_on_c, 1, 64, 75
4, 41565, Note_on_c, 1, 64, 0
4, 41568, Note_on_c, 1, 57, 75
4, 41657, Note_on_c, 1, 57, 0
4, 41712, Note_on_c, 1, 45, 75
4, 41757, Note_on_c, 1, 45, 0
4, 41760, Note_on_c, 1, 57, 75
4, 41805, Note_on_c, 1, 57, 0
4, 41904, Note_on_c, 1, 45, 75
4, 41949, Note_on_c, 1, 45, 0
4, 41952, Note_on_c, 1, 57, 75
4, 41997, Note_on_c, 1, 57, 0
4, 42096, Note_on_c, 1, 64, 65
4, 42096, Note_on_c, 1, 61, 65
4, 42116, Note_on_c, 1, 64, 0
4, 42116, Note_on_c, 1, 61, 0
4, 42144, Note_on_c, 1, 64, 65
4, 42144, Note_on_c, 1, 61, 65
4, 42191, Note_on_c, 1, 64, 0
4, 42191, Note_on_c, 1, 61, 0
4, 42288, Note_on_c, 1, 70, 67
4, 42288, Note_on_c, 1, 64, 67
4, 42308, Note_on_c, 1, 70, 0
4, 42308, Note_on_c, 1, 64, 0
4, 42336, Note_on_c, 1, 70, 68
4, 42336, Note_on_c, 1, 64, 68
4, 42383, Note_on_c, 1, 70, 0
4, 42383, Note_on_c, 1, 64, 0
4, 42480, Note_on_c, 1, 66, 70
4, 42480, Note_on_c, 1, 63, 70
4, 42500, Note_on_c, 1, 66, 0
4, 42500, Note_on_c, 1, 63, 0
4, 42528, Note_on_c, 1, 66, 70
4, 42528, Note_on_c, 1, 63, 70
4, 42575, Note_on_c, 1, 66, 0
4, 42575, Note_on_c, 1, 63, 0
4, 42672, Note_on_c, 1, 72, 72
4, 42672, Note_on_c, 1, 66, 72
4, 42692, Note_on_c, 1, 72, 0
4, 42692, Note_on_c, 1, 66, 0
4, 42720, Note_on_c, 1, 72, 73
4, 42720, Note_on_c, 1, 66, 73
4, 42767, Note_on_c, 1, 72, 0
4, 42767, Note_on_c, 1, 66, 0
4, 42864, Note_on_c, 1, 68, 75
4, 42864, Note_on_c, 1, 65, 75
4, 42884, Note_on_c, 1, 68, 0
4, 42884, Note_on_c, 1, 65, 0
4, 42912, Note_on_c, 1, 68, 75
4, 42912, Note_on_c, 1, 65, 75
4, 42959, Note_on_c, 1, 68, 0
4, 42959, Note_on_c, 1, 65, 0
4, 43056, Note_on_c, 1, 68, 77
4, 43056, Note_on_c, 1, 64, 77
4, 43076, Note_on_c, 1, 68, 0
4, 43076, Note_on_c, 1, 64, 0
4, 43104, Note_on_c, 1, 68, 78
4, 43104, Note_on_c, 1, 64, 78
4, 43151, Note_on_c, 1, 68, 0
4, 43151, Note_on_c, 1, 64, 0
4, 43248, Note_on_c, 1, 67, 80
4, 43248, Note_on_c, 1, 63, 80
4, 43268, Note_on_c, 1, 67, 0
4, 43268, Note_on_c, 1, 63, 0
4, 43296, Note_on_c, 1, 67, 80
4, 43296, Note_on_c, 1, 63, 80
4, 43746, Note_on_c, 1, 67, 0
4, 43746, Note_on_c, 1, 63, 0
4, 43776, Note_on_c, 1, 51, 80
4, 43832, Note_on_c, 1, 51, 0
4, 43832, Note_on_c, 1, 55, 80
4, 43840, Note_on_c, 1, 55, 0
4, 43840, Note_on_c, 1, 58, 80
4, 43848, Note_on_c, 1, 58, 0
4, 43848, Note_on_c, 1, 61, 80
4, 43856, Note_on_c, 1, 61, 0
4, 43856, Note_on_c, 1, 58, 80
4, 43864, Note_on_c, 1, 58, 0
4, 43864, Note_on_c, 1, 55, 80
4, 43872, Note_on_c, 1, 55, 0
4, 43872, Note_on_c, 1, 51, 80
4, 43917, Note_on_c, 1, 51, 0
4, 43920, Note_on_c, 1, 73, 64
4, 43940, Note_on_c, 1, 73, 0
4, 43968, Note_on_c, 1, 73, 64
4, 44064, Note_on_c, 1, 73, 0
4, 44064, Note_on_c, 1, 71, 64
4, 44084, Note_on_c, 1, 71, 0
4, 44160, Note_on_c, 1, 51, 80
4, 44216, Note_on_c, 1, 51, 0
4, 44216, Note_on_c, 1, 55, 80
4, 44224, Note_on_c, 1, 55, 0
4, 44224, Note_on_c, 1, 58, 80
4, 44232, Note_on_c, 1, 58, 0
4, 44232, Note_on_c, 1, 61, 80
4, 44240, Note_on_c, 1, 61, 0
4, 44240, Note_on_c, 1, 58, 80
4, 44248, Note_on_c, 1, 58, 0
4, 44248, Note_on_c, 1, 55, 80
4, 44256, Note_on_c, 1, 55, 0
4, 44256, Note_on_c, 1, 51, 80
4, 44301, Note_on_c, 1, 51, 0
4, 44304, Note_on_c, 1, 67, 64
4, 44324, Note_on_c, 1, 67, 0
4, 44352, Note_on_c, 1, 67, 64
4, 44448, Note_on_c, 1, 67, 0
4, 44448, Note_on_c, 1, 68, 64
4, 44468, Note_on_c, 1, 68, 0
4, 44496, Note_on_c, 1, 79, 64
4, 44516, Note_on_c, 1, 79, 0
4, 44544, Note_on_c, 1, 79, 64
4, 44640, Note_on_c, 1, 79, 0
4, 44640, Note_on_c, 1, 80, 64
4, 44660, Note_on_c, 1, 80, 0
4, 44736, Note_on_c, 1, 61, 64
4, 44756, Note_on_c, 1, 61, 0
4, 44784, Note_on_c, 1, 64, 64
4, 44804, Note_on_c, 1, 64, 0
4, 44832, Note_on_c, 1, 63, 64
4, 44852, Note_on_c, 1, 63, 0
4, 44880, Note_on_c, 1, 51, 64
4, 44900, Note_on_c, 1, 51, 0
4, 44928, Control_c, 1, 64, 127
4, 44976, Note_on_c, 1, 59, 64
4, 45021, Note_on_c, 1, 59, 0
4, 45024, Note_on_c, 1, 63, 64
4, 45069, Note_on_c, 1, 63, 0
4, 45072, Note_on_c, 1, 59, 64
4, 45117, Note_on_c, 1, 59, 0
4, 45168, Note_on_c, 1, 59, 64
4, 45213, Note_on_c, 1, 59, 0
4, 45216, Note_on_c, 1, 63, 64
4, 45261, Note_on_c, 1, 63, 0
4, 45264, Note_on_c, 1, 59, 64
4, 45309, Note_on_c, 1, 59, 0
4, 45312, Control_c, 1, 64, 0
4, 45312, Control_c, 1, 64, 127
4, 45360, Note_on_c, 1, 59, 64
4, 45405, Note_on_c, 1, 59, 0
4, 45408, Note_on_c, 1, 63, 64
4, 45453, Note_on_c, 1, 63, 0
4, 45456, Note_on_c, 1, 59, 64
4, 45501, Note_on_c, 1, 59, 0
4, 45552, Note_on_c, 1, 59, 64
4, 45597, Note_on_c, 1, 59, 0
4, 45600, Note_on_c, 1, 63, 64
4, 45645, Note_on_c, 1, 63, 0
4, 45648, Note_on_c, 1, 59, 64
4, 45693, Note_on_c, 1, 59, 0
4, 45696, Control_c, 1, 64, 0
4, 45696, Note_on_c, 1, 52, 80
4, 45702, Note_on_c, 1, 56, 80
4, 45708, Note_on_c, 1, 59, 80
4, 45714, Note_on_c, 1, 64, 80
4, 45789, Note_on_c, 1, 64, 0
4, 45789, Note_on_c, 1, 59, 0
4, 45789, Note_on_c, 1, 56, 0
4, 45789, Note_on_c, 1, 52, 0
4, 45840, Note_on_c, 1, 68, 75
4, 45885, Note_on_c, 1, 68, 0
4, 45888, Note_on_c, 1, 66, 75
4, 45936, Note_on_c, 1, 66, 0
4, 45936, Note_on_c, 1, 63, 75
4, 45981, Note_on_c, 1, 63, 0
4, 45984, Note_on_c, 1, 64, 75
4, 46029, Note_on_c, 1, 64, 0
4, 46032, Note_on_c, 1, 56, 75
4, 46077, Note_on_c, 1, 56, 0
4, 46080, Note_on_c, 1, 57, 75
4, 46125, Note_on_c, 1, 57, 0
4, 46128, Note_on_c, 1, 59, 75
4, 46173, Note_on_c, 1, 59, 0
4, 46176, Note_on_c, 1, 52, 75
4, 46221, Note_on_c, 1, 52, 0
4, 46464, Note_on_c, 1, 47, 80
4, 46470, Note_on_c, 1, 51, 80
4, 46476, Note_on_c, 1, 54, 80
4, 46482, Note_on_c, 1, 59, 80
4, 46557, Note_on_c, 1, 59, 0
4, 46557, Note_on_c, 1, 54, 0
4, 46557, Note_on_c, 1, 51, 0
4, 46557, Note_on_c, 1, 47, 0
4, 46608, Note_on_c, 1, 61, 75
4, 46653, Note_on_c, 1, 61, 0
4, 46656, Note_on_c, 1, 63, 75
4, 46701, Note_on_c, 1, 63, 0
4, 46704, Note_on_c, 1, 59, 75
4, 46749, Note_on_c, 1, 59, 0
4, 46752, Note_on_c, 1, 64, 75
4, 46797, Note_on_c, 1, 64, 0
4, 46800, Note_on_c, 1, 56, 75
4, 46845, Note_on_c, 1, 56, 0
4, 46848, Note_on_c, 1, 57, 75
4, 46937, Note_on_c, 1, 57, 0
4, 46992, Note_on_c, 1, 54, 75
4, 46992, Note_on_c, 1, 42, 75
4, 47012, Note_on_c, 1, 54, 0
4, 47012, Note_on_c, 1, 42, 0
4, 47040, Note_on_c, 1, 52, 75
4, 47040, Note_on_c, 1, 40, 75
4, 47079, Note_on_c, 1, 52, 0
4, 47079, Note_on_c, 1, 40, 0
4, 47232, Note_on_c, 1, 52, 80
4, 47238, Note_on_c, 1, 56, 80
4, 47244, Note_on_c, 1, 59, 80
4, 47250, Note_on_c, 1, 64, 80
4, 47325, Note_on_c, 1, 64, 0
4, 47325, Note_on_c, 1, 59, 0
4, 47325, Note_on_c, 1, 56, 0
4, 47325, Note_on_c, 1, 52, 0
4, 47376, Note_on_c, 1, 68, 75
4, 47421, Note_on_c, 1, 68, 0
4, 47424, Note_on_c, 1, 66, 75
4, 47472, Note_on_c, 1, 66, 0
4, 47472, Note_on_c, 1, 63, 75
4, 47517, Note_on_c, 1, 63, 0
4, 47520, Note_on_c, 1, 64, 75
4, 47565, Note_on_c, 1, 64, 0
4, 47568, Note_on_c, 1, 56, 75
4, 47613, Note_on_c, 1, 56, 0
4, 47616, Note_on_c, 1, 57, 75
4, 47661, Note_on_c, 1, 57, 0
4, 47664, Note_on_c, 1, 59, 75
4, 47709, Note_on_c, 1, 59, 0
4, 47712, Note_on_c, 1, 52, 75
4, 47757, Note_on_c, 1, 52, 0
4, 47856, Note_on_c, 1, 40, 75
4, 47901, Note_on_c, 1, 40, 0
4, 47904, Note_on_c, 1, 52, 75
4, 47949, Note_on_c, 1, 52, 0
4, 48048, Note_on_c, 1, 40, 75
4, 48093, Note_on_c, 1, 40, 0
4, 48096, Note_on_c, 1, 52, 75
4, 48141, Note_on_c, 1, 52, 0
4, 48240, Note_on_c, 1, 47, 75
4, 48285, Note_on_c, 1, 47, 0
4, 48288, Note_on_c, 1, 59, 75
4, 48333, Note_on_c, 1, 59, 0
4, 48432, Note_on_c, 1, 47, 75
4, 48477, Note_on_c, 1, 47, 0
4, 48480, Note_on_c, 1, 59, 75
4, 48525, Note_on_c, 1, 59, 0
4, 48768, Control_c, 1, 64, 127
4, 48768, Note_on_c, 1, 57, 75
4, 48768, Note_on_c, 1, 54, 75
4, 48768, Note_on_c, 1, 51, 75
4, 48768, Note_on_c, 1, 47, 75
4, 49713, Note_on_c, 1, 57, 0
4, 49713, Note_on_c, 1, 54, 0
4, 49713, Note_on_c, 1, 51, 0
4, 49713, Note_on_c, 1, 47, 0
4, 49728, Control_c, 1, 64, 0
4, 49920, Note_on_c, 1, 63, 64
4, 49943, Note_on_c, 1, 63, 0
4, 49944, Note_on_c, 1, 64, 64
4, 49967, Note_on_c, 1, 64, 0
4, 49968, Note_on_c, 1, 65, 64
4, 49991, Note_on_c, 1, 65, 0
4, 49992, Note_on_c, 1, 66, 64
4, 50015, Note_on_c, 1, 66, 0
4, 50016, Note_on_c, 1, 67, 64
4, 50039, Note_on_c, 1, 67, 0
4, 50040, Note_on_c, 1, 68, 64
4, 50063, Note_on_c, 1, 68, 0
4, 50064, Note_on_c, 1, 69, 64
4, 50087, Note_on_c, 1, 69, 0
4, 50088, Note_on_c, 1, 68, 64
4, 50111, Note_on_c, 1, 68, 0
4, 50112, Note_on_c, 1, 69, 64
4, 50179, Note_on_c, 1, 69, 0
4, 50184, Note_on_c, 1, 68, 64
4, 50207, Note_on_c, 1, 68, 0
4, 50208, Note_on_c, 1, 69, 64
4, 50275, Note_on_c, 1, 69, 0
4, 50280, Note_on_c, 1, 68, 64
4, 50303, Note_on_c, 1, 68, 0
4, 50304, Note_on_c, 1, 69, 64
4, 50304, Note_on_c, 1, 63, 64
4, 50865, Note_on_c, 1, 69, 0
4, 50865, Note_on_c, 1, 63, 0
4, 51120, Note_on_c, 1, 59, 64
4, 51120, Note_on_c, 1, 56, 64
4, 51165, Note_on_c, 1, 59, 0
4, 51165, Note_on_c, 1, 56, 0
4, 51216, Note_on_c, 1, 59, 64
4, 51216, Note_on_c, 1, 56, 64
4, 51261, Note_on_c, 1, 59, 0
4, 51261, Note_on_c, 1, 56, 0
4, 51312, Note_on_c, 1, 59, 64
4, 51312, Note_on_c, 1, 56, 64
4, 51357, Note_on_c, 1, 59, 0
4, 51357, Note_on_c, 1, 56, 0
4, 51360, Note_on_c, 1, 59, 64
4, 51360, Note_on_c, 1, 56, 64
4, 51405, Note_on_c, 1, 59, 0
4, 51405, Note_on_c, 1, 56, 0
4, 51408, Note_on_c, 1, 59, 64
4, 51408, Note_on_c, 1, 56, 64
4, 51453, Note_on_c, 1, 59, 0
4, 51453, Note_on_c, 1, 56, 0
4, 51504, Note_on_c, 1, 61, 64
4, 51504, Note_on_c, 1, 57, 64
4, 51549, Note_on_c, 1, 61, 0
4, 51549, Note_on_c, 1, 57, 0
4, 51600, Note_on_c, 1, 61, 64
4, 51600, Note_on_c, 1, 57, 64
4, 51645, Note_on_c, 1, 61, 0
4, 51645, Note_on_c, 1, 57, 0
4, 51696, Note_on_c, 1, 61, 64
4, 51696, Note_on_c, 1, 58, 64
4, 51741, Note_on_c, 1, 61, 0
4, 51741, Note_on_c, 1, 58, 0
4, 51744, Note_on_c, 1, 61, 64
4, 51744, Note_on_c, 1, 58, 64
4, 51789, Note_on_c, 1, 61, 0
4, 51789, Note_on_c, 1, 58, 0
4, 51792, Note_on_c, 1, 61, 64
4, 51792, Note_on_c, 1, 58, 64
4, 51837, Note_on_c, 1, 61, 0
4, 51837, Note_on_c, 1, 58, 0
4, 52224, Note_on_c, 1, 61, 64
4, 52247, Note_on_c, 1, 61, 0
4, 52248, Note_on_c, 1, 64, 64
4, 52271, Note_on_c, 1, 64, 0
4, 52272, Note_on_c, 1, 59, 64
4, 52295, Note_on_c, 1, 59, 0
4, 52296, Note_on_c, 1, 64, 64
4, 52319, Note_on_c, 1, 64, 0
4, 52320, Note_on_c, 1, 57, 64
4, 52343, Note_on_c, 1, 57, 0
4, 52344, Note_on_c, 1, 64, 64
4, 52367, Note_on_c, 1, 64, 0
4, 52368, Note_on_c, 1, 59, 64
4, 52391, Note_on_c, 1, 59, 0
4, 52392, Note_on_c, 1, 64, 64
4, 52415, Note_on_c, 1, 64, 0
4, 52416, Note_on_c, 1, 61, 64
4, 52439, Note_on_c, 1, 61, 0
4, 52440, Note_on_c, 1, 64, 64
4, 52463, Note_on_c, 1, 64, 0
4, 52464, Note_on_c, 1, 59, 64
4, 52487, Note_on_c, 1, 59, 0
4, 52488, Note_on_c, 1, 64, 64
4, 52511, Note_on_c, 1, 64, 0
4, 52512, Note_on_c, 1, 57, 64
4, 52535, Note_on_c, 1, 57, 0
4, 52536, Note_on_c, 1, 64, 64
4, 52559, Note_on_c, 1, 64, 0
4, 52560, Note_on_c, 1, 59, 64
4, 52583, Note_on_c, 1, 59, 0
4, 52584, Note_on_c, 1, 64, 64
4, 52607, Note_on_c, 1, 64, 0
4, 52608, Note_on_c, 1, 61, 64
4, 52631, Note_on_c, 1, 61, 0
4, 52632, Note_on_c, 1, 64, 64
4, 52655, Note_on_c, 1, 64, 0
4, 52656, Note_on_c, 1, 59, 64
4, 52679, Note_on_c, 1, 59, 0
4, 52680, Note_on_c, 1, 64, 64
4, 52703, Note_on_c, 1, 64, 0
4, 52704, Note_on_c, 1, 58, 64
4, 52727, Note_on_c, 1, 58, 0
4, 52728, Note_on_c, 1, 64, 64
4, 52751, Note_on_c, 1, 64, 0
4, 52752, Note_on_c, 1, 58, 64
4, 52775, Note_on_c, 1, 58, 0
4, 52776, Note_on_c, 1, 64, 64
4, 52799, Note_on_c, 1, 64, 0
4, 52800, Note_on_c, 1, 58, 64
4, 52823, Note_on_c, 1, 58, 0
4, 52824, Note_on_c, 1, 64, 64
4, 52847, Note_on_c, 1, 64, 0
4, 52848, Note_on_c, 1, 58, 64
4, 52871, Note_on_c, 1, 58, 0
4, 52872, Note_on_c, 1, 64, 64
4, 52895, Note_on_c, 1, 64, 0
4, 52896, Note_on_c, 1, 58, 64
4, 52919, Note_on_c, 1, 58, 0
4, 52920, Note_on_c, 1, 64, 64
4, 52943, Note_on_c, 1, 64, 0
4, 52944, Note_on_c, 1, 58, 64
4, 52967, Note_on_c, 1, 58, 0
4, 52968, Note_on_c, 1, 64, 64
4, 53081, Note_on_c, 1, 64, 0
4, 53088, Note_on_c, 1, 63, 64
4, 53177, Note_on_c, 1, 63, 0
4, 53376, Control_c, 1, 64, 127
4, 53760, Control_c, 1, 64, 0
4, 53760, Control_c, 1, 64, 127
4, 54144, Control_c, 1, 64, 0
4, 54144, Control_c, 1, 64, 127
4, 54528, Control_c, 1, 64, 0
4, 54528, Control_c, 1, 64, 127
4, 54912, Control_c, 1, 64, 0
4, 54912, Control_c, 1, 64, 127
4, 55296, Control_c, 1, 64, 0
4, 55296, Control_c, 1, 64, 127
4, 55680, Control_c, 1, 64, 0
4, 55680, Note_on_c, 1, 47, 80
4, 55736, Note_on_c, 1, 47, 0
4, 55736, Note_on_c, 1, 51, 80
4, 55744, Note_on_c, 1, 51, 0
4, 55744, Note_on_c, 1, 54, 80
4, 55752, Note_on_c, 1, 54, 0
4, 55752, Note_on_c, 1, 57, 80
4, 55760, Note_on_c, 1, 57, 0
4, 55760, Note_on_c, 1, 54, 80
4, 55768, Note_on_c, 1, 54, 0
4, 55768, Note_on_c, 1, 51, 80
4, 55776, Note_on_c, 1, 51, 0
4, 55776, Control_c, 1, 64, 0
4, 55776, Note_on_c, 1, 47, 80
4, 55821, Note_on_c, 1, 47, 0
4, 55824, Note_on_c, 1, 57, 80
4, 55844, Note_on_c, 1, 57, 0
4, 55872, Note_on_c, 1, 57, 80
4, 55968, Note_on_c, 1, 57, 0
4, 55968, Note_on_c, 1, 56, 80
4, 55988, Note_on_c, 1, 56, 0
4, 56448, Note_on_c, 1, 47, 80
4, 56504, Note_on_c, 1, 47, 0
4, 56504, Note_on_c, 1, 51, 80
4, 56512, Note_on_c, 1, 51, 0
4, 56512, Note_on_c, 1, 54, 80
4, 56520, Note_on_c, 1, 54, 0
4, 56520, Note_on_c, 1, 57, 80
4, 56528, Note_on_c, 1, 57, 0
4, 56528, Note_on_c, 1, 54, 80
4, 56536, Note_on_c, 1, 54, 0
4, 56536, Note_on_c, 1, 51, 80
4, 56544, Note_on_c, 1, 51, 0
4, 56544, Note_on_c, 1, 47, 80
4, 56589, Note_on_c, 1, 47, 0
4, 56592, Note_on_c, 1, 60, 80
4, 56592, Note_on_c, 1, 57, 80
4, 56612, Note_on_c, 1, 60, 0
4, 56612, Note_on_c, 1, 57, 0
4, 56640, Note_on_c, 1, 60, 80
4, 56640, Note_on_c, 1, 57, 80
4, 56736, Note_on_c, 1, 60, 0
4, 56736, Note_on_c, 1, 57, 0
4, 56736, Note_on_c, 1, 59, 80
4, 56736, Note_on_c, 1, 56, 80
4, 56756, Note_on_c, 1, 59, 0
4, 56756, Note_on_c, 1, 56, 0
4, 56928, Note_on_c, 1, 64, 80
4, 56928, Note_on_c, 1, 61, 80
4, 56973, Note_on_c, 1, 64, 0
4, 56973, Note_on_c, 1, 61, 0
4, 57120, Note_on_c, 1, 47, 80
4, 57209, Note_on_c, 1, 47, 0
4, 57216, Note_on_c, 1, 52, 80
4, 57216, Note_on_c, 1, 40, 80
4, 57305, Note_on_c, 1, 52, 0
4, 57305, Note_on_c, 1, 40, 0
4, 57360, Note_on_c, 1, 56, 64
4, 57405, Note_on_c, 1, 56, 0
4, 57408, Note_on_c, 1, 57, 64
4, 57504, Note_on_c, 1, 57, 0
4, 57504, Note_on_c, 1, 59, 68
4, 57593, Note_on_c, 1, 59, 0
4, 57600, Note_on_c, 1, 61, 72
4, 57645, Note_on_c, 1, 61, 0
4, 57648, Note_on_c, 1, 68, 74
4, 57693, Note_on_c, 1, 68, 0
4, 57696, Note_on_c, 1, 66, 76
4, 57741, Note_on_c, 1, 66, 0
4, 57744, Note_on_c, 1, 64, 78
4, 57789, Note_on_c, 1, 64, 0
4, 57792, Note_on_c, 1, 63, 80
4, 57837, Note_on_c, 1, 63, 0
4, 57840, Note_on_c, 1, 61, 78
4, 57885, Note_on_c, 1, 61, 0
4, 57888, Note_on_c, 1, 59, 76
4, 57933, Note_on_c, 1, 59, 0
4, 57936, Note_on_c, 1, 57, 75
4, 57981, Note_on_c, 1, 57, 0
4, 57984, Note_on_c, 1, 56, 73
4, 58029, Note_on_c, 1, 56, 0
4, 58032, Note_on_c, 1, 58, 72
4, 58077, Note_on_c, 1, 58, 0
4, 58080, Note_on_c, 1, 59, 70
4, 58125, Note_on_c, 1, 59, 0
4, 58128, Note_on_c, 1, 47, 68
4, 58173, Note_on_c, 1, 47, 0
4, 58176, Note_on_c, 1, 49, 67
4, 58265, Note_on_c, 1, 49, 0
4, 58704, Note_on_c, 1, 47, 64
4, 58749, Note_on_c, 1, 47, 0
4, 58752, Note_on_c, 1, 52, 64
4, 58752, Note_on_c, 1, 40, 64
4, 58797, Note_on_c, 1, 52, 0
4, 58797, Note_on_c, 1, 40, 0
4, 58800, Note_on_c, 1, 47, 64
4, 58845, Note_on_c, 1, 47, 0
4, 58848, Note_on_c, 1, 52, 64
4, 58848, Note_on_c, 1, 40, 64
4, 58893, Note_on_c, 1, 52, 0
4, 58893, Note_on_c, 1, 40, 0
4, 58896, Note_on_c, 1, 47, 64
4, 58941, Note_on_c, 1, 47, 0
4, 58944, Note_on_c, 1, 52, 64
4, 58944, Note_on_c, 1, 40, 64
4, 59033, Note_on_c, 1, 52, 0
4, 59033, Note_on_c, 1, 40, 0
4, 59136, Note_on_c, 1, 40, 0
4, 59225, Note_on_c, 1, 40, 0
4, 59232, End_track
5, 0, Start_track
5, 0, Program_c, 1, 0
5, 0, Control_c, 1, 7, 127
5, 0, Control_c, 1, 10, 64
5, 4992, Note_on_c, 1, 66, 64
5, 5169, Note_on_c, 1, 66, 0
5, 8784, Note_on_c, 1, 42, 64
5, 8829, Note_on_c, 1, 42, 0
5, 8832, Note_on_c, 1, 47, 64
5, 8832, Note_on_c, 1, 35, 64
5, 8877, Note_on_c, 1, 47, 0
5, 8877, Note_on_c, 1, 35, 0
5, 8880, Note_on_c, 1, 42, 64
5, 8925, Note_on_c, 1, 42, 0
5, 8928, Note_on_c, 1, 47, 64
5, 8928, Note_on_c, 1, 35, 64
5, 8973, Note_on_c, 1, 47, 0
5, 8973, Note_on_c, 1, 35, 0
5, 8976, Note_on_c, 1, 42, 64
5, 9021, Note_on_c, 1, 42, 0
5, 9024, Note_on_c, 1, 47, 64
5, 9024, Note_on_c, 1, 35, 64
5, 9113, Note_on_c, 1, 47, 0
5, 9113, Note_on_c, 1, 35, 0
5, 14208, Note_on_c, 1, 66, 64
5, 14385, Note_on_c, 1, 66, 0
5, 18000, Note_on_c, 1, 42, 64
5, 18045, Note_on_c, 1, 42, 0
5, 18048, Note_on_c, 1, 47, 64
5, 18048, Note_on_c, 1, 35, 64
5, 18093, Note_on_c, 1, 47, 0
5, 18093, Note_on_c, 1, 35, 0
5, 18096, Note_on_c, 1, 42, 64
5, 18141, Note_on_c, 1, 42, 0
5, 18144, Note_on_c, 1, 47, 64
5, 18144, Note_on_c, 1, 35, 64
5, 18189, Note_on_c, 1, 47, 0
5, 18189, Note_on_c, 1, 35, 0
5, 18192, Note_on_c, 1, 42, 64
5, 18237, Note_on_c, 1, 42, 0
5, 18240, Note_on_c, 1, 47, 64
5, 18240, Note_on_c, 1, 35, 64
5, 18329, Note_on_c, 1, 47, 0
5, 18329, Note_on_c, 1, 35, 0
5, 24576, Control_c, 1, 64, 127
5, 24576, Note_on_c, 1, 56, 64
5, 24753, Note_on_c, 1, 56, 0
5, 24768, Note_on_c, 1, 56, 69
5, 24945, Note_on_c, 1, 56, 0
5, 24960, Control_c, 1, 64, 0
5, 24960, Control_c, 1, 64, 127
5, 24960, Note_on_c, 1, 54, 74
5, 25137, Note_on_c, 1, 54, 0
5, 25152, Note_on_c, 1, 54, 80
5, 25329, Note_on_c, 1, 54, 0
5, 25344, Control_c, 1, 64, 0
5, 31536, Note_on_c, 1, 63, 80
5, 31536, Note_on_c, 1, 59, 80
5, 31581, Note_on_c, 1, 63, 0
5, 31581, Note_on_c, 1, 59, 0
5, 31632, Note_on_c, 1, 63, 80
5, 31632, Note_on_c, 1, 59, 80
5, 31677, Note_on_c, 1, 63, 0
5, 31677, Note_on_c, 1, 59, 0
5, 31728, Note_on_c, 1, 63, 80
5, 31728, Note_on_c, 1, 59, 80
5, 31773, Note_on_c, 1, 63, 0
5, 31773, Note_on_c, 1, 59, 0
5, 31776, Note_on_c, 1, 63, 80
5, 31776, Note_on_c, 1, 59, 80
5, 31821, Note_on_c, 1, 63, 0
5, 31821, Note_on_c, 1, 59, 0
5, 31824, Note_on_c, 1, 63, 80
5, 31824, Note_on_c, 1, 59, 80
5, 31869, Note_on_c, 1, 63, 0
5, 31869, Note_on_c, 1, 59, 0
5, 32640, Note_on_c, 1, 59, 80
5, 32817, Note_on_c, 1, 59, 0
5, 33120, Note_on_c, 1, 57, 80
5, 33209, Note_on_c, 1, 57, 0
5, 33216, Note_on_c, 1, 54, 80
5, 33305, Note_on_c, 1, 54, 0
5, 33312, Note_on_c, 1, 51, 80
5, 33401, Note_on_c, 1, 51, 0
5, 33504, Note_on_c, 1, 59, 80
5, 33504, Note_on_c, 1, 47, 80
5, 33593, Note_on_c, 1, 59, 0
5, 33593, Note_on_c, 1, 47, 0
5, 33600, Note_on_c, 1, 56, 80
5, 33600, Note_on_c, 1, 44, 80
5, 33689, Note_on_c, 1, 56, 0
5, 33689, Note_on_c, 1, 44, 0
5, 33696, Note_on_c, 1, 53, 80
5, 33696, Note_on_c, 1, 41, 80
5, 33785, Note_on_c, 1, 53, 0
5, 33785, Note_on_c, 1, 41, 0
5, 33888, Note_on_c, 1, 61, 86
5, 33888, Note_on_c, 1, 49, 86
5, 33977, Note_on_c, 1, 61, 0
5, 33977, Note_on_c, 1, 49, 0
5, 33984, Note_on_c, 1, 58, 86
5, 33984, Note_on_c, 1, 46, 86
5, 34073, Note_on_c, 1, 58, 0
5, 34073, Note_on_c, 1, 46, 0
5, 34080, Note_on_c, 1, 55, 86
5, 34080, Note_on_c, 1, 43, 86
5, 34169, Note_on_c, 1, 55, 0
5, 34169, Note_on_c, 1, 43, 0
5, 34272, Note_on_c, 1, 42, 86
5, 34272, Note_on_c, 1, 30, 86
5, 34361, Note_on_c, 1, 42, 0
5, 34361, Note_on_c, 1, 30, 0
5, 34368, Note_on_c, 1, 49, 86
5, 34368, Note_on_c, 1, 37, 86
5, 34457, Note_on_c, 1, 49, 0
5, 34457, Note_on_c, 1, 37, 0
5, 34464, Note_on_c, 1, 52, 86
5, 34464, Note_on_c, 1, 40, 86
5, 34553, Note_on_c, 1, 52, 0
5, 34553, Note_on_c, 1, 40, 0
5, 34656, Note_on_c, 1, 51, 86
5, 34656, Note_on_c, 1, 39, 86
5, 34745, Note_on_c, 1, 51, 0
5, 34745, Note_on_c, 1, 39, 0
5, 34752, Note_on_c, 1, 54, 86
5, 34752, Note_on_c, 1, 42, 86
5, 34841, Note_on_c, 1, 54, 0
5, 34841, Note_on_c, 1, 42, 0
5, 34848, Note_on_c, 1, 57, 86
5, 34848, Note_on_c, 1, 45, 86
5, 34937, Note_on_c, 1, 57, 0
5, 34937, Note_on_c, 1, 45, 0
5, 35040, Note_on_c, 1, 57, 86
5, 35129, Note_on_c, 1, 57, 0
5, 35136, Note_on_c, 1, 54, 86
5, 35225, Note_on_c, 1, 54, 0
5, 35232, Note_on_c, 1, 51, 86
5, 35321, Note_on_c, 1, 51, 0
5, 44928, Control_c, 1, 64, 127
5, 44928, Note_on_c, 1, 56, 64
5, 45105, Note_on_c, 1, 56, 0
5, 45120, Note_on_c, 1, 56, 69
5, 45297, Note_on_c, 1, 56, 0
5, 45312, Control_c, 1, 64, 0
5, 45312, Control_c, 1, 64, 127
5, 45312, Note_on_c, 1, 54, 74
5, 45489, Note_on_c, 1, 54, 0
5, 45504, Note_on_c, 1, 54, 80
5, 45681, Note_on_c, 1, 54, 0
5, 45696, Control_c, 1, 64, 0
5, 51888, Note_on_c, 1, 63, 80
5, 51888, Note_on_c, 1, 59, 80
5, 51933, Note_on_c, 1, 63, 0
5, 51933, Note_on_c, 1, 59, 0
5, 51984, Note_on_c, 1, 63, 80
5, 51984, Note_on_c, 1, 59, 80
5, 52029, Note_on_c, 1, 63, 0
5, 52029, Note_on_c, 1, 59, 0
5, 52080, Note_on_c, 1, 63, 80
5, 52080, Note_on_c, 1, 59, 80
5, 52125, Note_on_c, 1, 63, 0
5, 52125, Note_on_c, 1, 59, 0
5, 52128, Note_on_c, 1, 63, 80
5, 52128, Note_on_c, 1, 59, 80
5, 52173, Note_on_c, 1, 63, 0
5, 52173, Note_on_c, 1, 59, 0
5, 52176, Note_on_c, 1, 63, 80
5, 52176, Note_on_c, 1, 59, 80
5, 52221, Note_on_c, 1, 63, 0
5, 52221, Note_on_c, 1, 59, 0
5, 52992, Note_on_c, 1, 59, 80
5, 53169, Note_on_c, 1, 59, 0
5, 53472, Note_on_c, 1, 57, 80
5, 53561, Note_on_c, 1, 57, 0
5, 53568, Note_on_c, 1, 54, 80
5, 53657, Note_on_c, 1, 54, 0
5, 53664, Note_on_c, 1, 51, 80
5, 53753, Note_on_c, 1, 51, 0
5, 53856, Note_on_c, 1, 59, 80
5, 53856, Note_on_c, 1, 47, 80
5, 53945, Note_on_c, 1, 59, 0
5, 53945, Note_on_c, 1, 47, 0
5, 53952, Note_on_c, 1, 56, 80
5, 53952, Note_on_c, 1, 44, 80
5, 54041, Note_on_c, 1, 56, 0
5, 54041, Note_on_c, 1, 44, 0
5, 54048, Note_on_c, 1, 53, 80
5, 54048, Note_on_c, 1, 41, 80
5, 54137, Note_on_c, 1, 53, 0
5, 54137, Note_on_c, 1, 41, 0
5, 54240, Note_on_c, 1, 61, 86
5, 54240, Note_on_c, 1, 49, 86
5, 54329, Note_on_c, 1, 61, 0
5, 54329, Note_on_c, 1, 49, 0
5, 54336, Note_on_c, 1, 58, 86
5, 54336, Note_on_c, 1, 46, 86
5, 54425, Note_on_c, 1, 58, 0
5, 54425, Note_on_c, 1, 46, 0
5, 54432, Note_on_c, 1, 55, 86
5, 54432, Note_on_c, 1, 43, 86
5, 54521, Note_on_c, 1, 55, 0
5, 54521, Note_on_c, 1, 43, 0
5, 54624, Note_on_c, 1, 42, 86
5, 54624, Note_on_c, 1, 30, 86
5, 54713, Note_on_c, 1, 42, 0
5, 54713, Note_on_c, 1, 30, 0
5, 54720, Note_on_c, 1, 49, 86
5, 54720, Note_on_c, 1, 37, 86
5, 54809, Note_on_c, 1, 49, 0
5, 54809, Note_on_c, 1, 37, 0
5, 54816, Note_on_c, 1, 52, 86
5, 54816, Note_on_c, 1, 40, 86
5, 54905, Note_on_c, 1, 52, 0
5, 54905, Note_on_c, 1, 40, 0
5, 55008, Note_on_c, 1, 51, 86
5, 55008, Note_on_c, 1, 39, 86
5, 55097, Note_on_c, 1, 51, 0
5, 55097, Note_on_c, 1, 39, 0
5, 55104, Note_on_c, 1, 54, 86
5, 55104, Note_on_c, 1, 42, 86
5, 55193, Note_on_c, 1, 54, 0
5, 55193, Note_on_c, 1, 42, 0
5, 55200, Note_on_c, 1, 57, 86
5, 55200, Note_on_c, 1, 45, 86
5, 55289, Note_on_c, 1, 57, 0
5, 55289, Note_on_c, 1, 45, 0
5, 55392, Note_on_c, 1, 57, 86
5, 55481, Note_on_c, 1, 57, 0
5, 55488, Note_on_c, 1, 54, 86
5, 55577, Note_on_c, 1, 54, 0
5, 55584, Note_on_c, 1, 51, 86
5, 55673, Note_on_c, 1, 51, 0
5, 59136, End_track
6, 0, Start_track
6, 0, Title_t, "Sonata I   Haydn  "
6, 0, End_track
0, 0, End_of_file
