0, 0, Header, 1, 6, 96
1, 0, Start_track
1, 0, Copyright_t, "Copyright  2000 <copyright holder>"
1, 0, Text_t, "Sonata I\015\012"
1, 0, Text_t, "Haydn\015\012"
1, 0, Sequencer_specific, 16, 68, 87, 77, 90, 86, 82, 83, 78, 32, 55, 46, 48, 46, 56, 46, 48
1, 0, Time_signature, 3, 2, 24, 8
1, 0, Tempo, 895522
1, 0, Key_signature, -1, "major"
1, 36872, End_track
2, 0, Start_track
2, 0, Program_c, 0, 0
2, 0, Control_c, 0, 7, 127
2, 0, Control_c, 0, 10, 64
2, 0, Note_on_c, 0, 60, 64
2, 6, Note_on_c, 0, 65, 64
2, 12, Note_on_c, 0, 69, 64
2, 18, Note_on_c, 0, 72, 64
2, 96, Note_on_c, 0, 65, 0
2, 96, Note_on_c, 0, 60, 0
2, 163, Note_on_c, 0, 72, 0
2, 163, Note_on_c, 0, 69, 0
2, 168, Note_on_c, 0, 70, 64
2, 168, Note_on_c, 0, 67, 64
2, 191, Note_on_c, 0, 70, 0
2, 191, Note_on_c, 0, 67, 0
2, 192, Note_on_c, 0, 69, 64
2, 192, Note_on_c, 0, 65, 64
2, 281, Note_on_c, 0, 69, 0
2, 281, Note_on_c, 0, 65, 0
2, 288, Note_on_c, 0, 67, 64
2, 297, Note_on_c, 0, 67, 0
2, 297, Note_on_c, 0, 69, 64
2, 306, Note_on_c, 0, 69, 0
2, 306, Note_on_c, 0, 67, 64
2, 315, Note_on_c, 0, 67, 0
2, 315, Note_on_c, 0, 69, 64
2, 324, Note_on_c, 0, 69, 0
2, 324, Note_on_c, 0, 67, 64
2, 333, Note_on_c, 0, 67, 0
2, 333, Note_on_c, 0, 69, 64
2, 342, Note_on_c, 0, 69, 0
2, 342, Note_on_c, 0, 67, 64
2, 351, Note_on_c, 0, 67, 0
2, 351, Note_on_c, 0, 69, 64
2, 360, Note_on_c, 0, 69, 0
2, 360, Note_on_c, 0, 67, 64
2, 368, Note_on_c, 0, 67, 0
2, 368, Note_on_c, 0, 65, 64
2, 376, Note_on_c, 0, 65, 0
2, 376, Note_on_c, 0, 67, 64
2, 384, Note_on_c, 0, 67, 0
2, 384, Note_on_c, 0, 65, 64
2, 451, Note_on_c, 0, 65, 0
2, 480, Note_on_c, 0, 65, 64
2, 488, Note_on_c, 0, 65, 0
2, 488, Note_on_c, 0, 67, 64
2, 496, Note_on_c, 0, 67, 0
2, 496, Note_on_c, 0, 69, 64
2, 504, Note_on_c, 0, 69, 0
2, 504, Note_on_c, 0, 67, 64
2, 512, Note_on_c, 0, 67, 0
2, 512, Note_on_c, 0, 65, 64
2, 520, Note_on_c, 0, 65, 0
2, 520, Note_on_c, 0, 67, 64
2, 527, Note_on_c, 0, 67, 0
2, 527, Note_on_c, 0, 69, 64
2, 534, Note_on_c, 0, 69, 0
2, 534, Note_on_c, 0, 70, 64
2, 541, Note_on_c, 0, 70, 0
2, 541, Note_on_c, 0, 72, 64
2, 548, Note_on_c, 0, 72, 0
2, 548, Note_on_c, 0, 74, 64
2, 555, Note_on_c, 0, 74, 0
2, 555, Note_on_c, 0, 76, 64
2, 562, Note_on_c, 0, 76, 0
2, 562, Note_on_c, 0, 77, 64
2, 569, Note_on_c, 0, 77, 0
2, 569, Note_on_c, 0, 79, 64
2, 576, Note_on_c, 0, 79, 0
2, 576, Note_on_c, 0, 81, 64
2, 596, Note_on_c, 0, 81, 0
2, 648, Note_on_c, 0, 79, 64
2, 672, Note_on_c, 0, 79, 0
2, 672, Note_on_c, 0, 77, 64
2, 692, Note_on_c, 0, 77, 0
2, 744, Note_on_c, 0, 76, 64
2, 768, Note_on_c, 0, 76, 0
2, 768, Note_on_c, 0, 74, 64
2, 788, Note_on_c, 0, 74, 0
2, 840, Note_on_c, 0, 72, 64
2, 863, Note_on_c, 0, 72, 0
2, 864, Note_on_c, 0, 72, 75
2, 897, Note_on_c, 0, 72, 0
2, 899, Note_on_c, 0, 70, 71
2, 908, Note_on_c, 0, 70, 0
2, 908, Note_on_c, 0, 72, 70
2, 917, Note_on_c, 0, 72, 0
2, 917, Note_on_c, 0, 70, 70
2, 926, Note_on_c, 0, 70, 0
2, 926, Note_on_c, 0, 72, 69
2, 935, Note_on_c, 0, 72, 0
2, 935, Note_on_c, 0, 70, 68
2, 944, Note_on_c, 0, 70, 0
2, 944, Note_on_c, 0, 69, 68
2, 953, Note_on_c, 0, 69, 0
2, 953, Note_on_c, 0, 70, 67
2, 962, Note_on_c, 0, 70, 0
2, 962, Note_on_c, 0, 69, 64
2, 1029, Note_on_c, 0, 69, 0
2, 1154, Note_on_c, 0, 67, 75
2, 1177, Note_on_c, 0, 67, 0
2, 1178, Note_on_c, 0, 69, 75
2, 1186, Note_on_c, 0, 69, 0
2, 1186, Note_on_c, 0, 67, 75
2, 1194, Note_on_c, 0, 67, 0
2, 1194, Note_on_c, 0, 65, 75
2, 1202, Note_on_c, 0, 65, 0
2, 1202, Note_on_c, 0, 67, 75
2, 1212, Note_on_c, 0, 67, 0
2, 1226, Note_on_c, 0, 69, 75
2, 1249, Note_on_c, 0, 69, 0
2, 1250, Note_on_c, 0, 70, 75
2, 1273, Note_on_c, 0, 70, 0
2, 1274, Note_on_c, 0, 72, 75
2, 1282, Note_on_c, 0, 72, 0
2, 1282, Note_on_c, 0, 70, 75
2, 1290, Note_on_c, 0, 70, 0
2, 1290, Note_on_c, 0, 69, 75
2, 1298, Note_on_c, 0, 69, 0
2, 1298, Note_on_c, 0, 70, 75
2, 1308, Note_on_c, 0, 70, 0
2, 1322, Note_on_c, 0, 72, 75
2, 1345, Note_on_c, 0, 72, 0
2, 1346, Note_on_c, 0, 73, 75
2, 1361, Note_on_c, 0, 73, 0
2, 1362, Note_on_c, 0, 76, 75
2, 1377, Note_on_c, 0, 76, 0
2, 1378, Note_on_c, 0, 74, 75
2, 1393, Note_on_c, 0, 74, 0
2, 1394, Note_on_c, 0, 62, 75
2, 1409, Note_on_c, 0, 62, 0
2, 1410, Note_on_c, 0, 70, 75
2, 1425, Note_on_c, 0, 70, 0
2, 1426, Note_on_c, 0, 67, 75
2, 1441, Note_on_c, 0, 67, 0
2, 1442, Note_on_c, 0, 65, 75
2, 1502, Note_on_c, 0, 65, 0
2, 1502, Note_on_c, 0, 64, 75
2, 1514, Note_on_c, 0, 64, 0
2, 1514, Note_on_c, 0, 67, 75
2, 1526, Note_on_c, 0, 67, 0
2, 1526, Note_on_c, 0, 64, 75
2, 1538, Note_on_c, 0, 64, 0
2, 1538, Note_on_c, 0, 65, 75
2, 1605, Note_on_c, 0, 65, 0
2, 1730, Note_on_c, 0, 69, 75
2, 1742, Note_on_c, 0, 69, 0
2, 1742, Note_on_c, 0, 81, 75
2, 1907, Note_on_c, 0, 81, 0
2, 1922, Note_on_c, 0, 79, 75
2, 1945, Note_on_c, 0, 79, 0
2, 1946, Note_on_c, 0, 77, 75
2, 1969, Note_on_c, 0, 77, 0
2, 1970, Note_on_c, 0, 76, 75
2, 1993, Note_on_c, 0, 76, 0
2, 1994, Note_on_c, 0, 74, 75
2, 2017, Note_on_c, 0, 74, 0
2, 2018, Note_on_c, 0, 74, 75
2, 2085, Note_on_c, 0, 74, 0
2, 2090, Note_on_c, 0, 76, 75
2, 2102, Note_on_c, 0, 76, 0
2, 2102, Note_on_c, 0, 74, 75
2, 2114, Note_on_c, 0, 74, 0
2, 2114, Note_on_c, 0, 73, 75
2, 2291, Note_on_c, 0, 73, 0
2, 2330, Note_on_c, 0, 69, 75
2, 2353, Note_on_c, 0, 69, 0
2, 2354, Note_on_c, 0, 74, 75
2, 2377, Note_on_c, 0, 74, 0
2, 2378, Note_on_c, 0, 73, 76
2, 2401, Note_on_c, 0, 73, 0
2, 2402, Note_on_c, 0, 76, 77
2, 2425, Note_on_c, 0, 76, 0
2, 2426, Note_on_c, 0, 74, 78
2, 2449, Note_on_c, 0, 74, 0
2, 2450, Note_on_c, 0, 77, 79
2, 2465, Note_on_c, 0, 77, 0
2, 2466, Note_on_c, 0, 76, 79
2, 2481, Note_on_c, 0, 76, 0
2, 2482, Note_on_c, 0, 79, 79
2, 2497, Note_on_c, 0, 79, 0
2, 2498, Note_on_c, 0, 77, 79
2, 2513, Note_on_c, 0, 77, 0
2, 2514, Note_on_c, 0, 81, 79
2, 2529, Note_on_c, 0, 81, 0
2, 2530, Note_on_c, 0, 79, 78
2, 2545, Note_on_c, 0, 79, 0
2, 2546, Note_on_c, 0, 77, 78
2, 2561, Note_on_c, 0, 77, 0
2, 2562, Note_on_c, 0, 76, 77
2, 2577, Note_on_c, 0, 76, 0
2, 2578, Note_on_c, 0, 74, 77
2, 2593, Note_on_c, 0, 74, 0
2, 2594, Note_on_c, 0, 72, 75
2, 2683, Note_on_c, 0, 72, 0
2, 2690, Note_on_c, 0, 71, 75
2, 2699, Note_on_c, 0, 71, 0
2, 2699, Note_on_c, 0, 72, 75
2, 2708, Note_on_c, 0, 72, 0
2, 2708, Note_on_c, 0, 71, 75
2, 2717, Note_on_c, 0, 71, 0
2, 2717, Note_on_c, 0, 72, 75
2, 2726, Note_on_c, 0, 72, 0
2, 2726, Note_on_c, 0, 71, 75
2, 2735, Note_on_c, 0, 71, 0
2, 2735, Note_on_c, 0, 72, 75
2, 2744, Note_on_c, 0, 72, 0
2, 2744, Note_on_c, 0, 71, 75
2, 2753, Note_on_c, 0, 71, 0
2, 2753, Note_on_c, 0, 72, 75
2, 2762, Note_on_c, 0, 72, 0
2, 2762, Note_on_c, 0, 71, 75
2, 2770, Note_on_c, 0, 71, 0
2, 2770, Note_on_c, 0, 69, 75
2, 2778, Note_on_c, 0, 69, 0
2, 2778, Note_on_c, 0, 71, 75
2, 2786, Note_on_c, 0, 71, 0
2, 2786, Note_on_c, 0, 72, 75
2, 2810, Note_on_c, 0, 72, 75
2, 2816, Note_on_c, 0, 72, 0
2, 2816, Note_on_c, 0, 71, 75
2, 2822, Note_on_c, 0, 71, 0
2, 2822, Note_on_c, 0, 72, 75
2, 2833, Note_on_c, 0, 72, 0
2, 2834, Note_on_c, 0, 74, 75
2, 2857, Note_on_c, 0, 74, 0
2, 2858, Note_on_c, 0, 76, 75
2, 2881, Note_on_c, 0, 76, 0
2, 2882, Note_on_c, 0, 67, 75
2, 3015, Note_on_c, 0, 67, 0
2, 3026, Note_on_c, 0, 65, 75
2, 3032, Note_on_c, 0, 65, 0
2, 3032, Note_on_c, 0, 67, 75
2, 3038, Note_on_c, 0, 67, 0
2, 3038, Note_on_c, 0, 65, 75
2, 3073, Note_on_c, 0, 65, 0
2, 3074, Note_on_c, 0, 64, 75
2, 3097, Note_on_c, 0, 64, 0
2, 3098, Note_on_c, 0, 65, 75
2, 3121, Note_on_c, 0, 65, 0
2, 3122, Note_on_c, 0, 66, 75
2, 3145, Note_on_c, 0, 66, 0
2, 3146, Note_on_c, 0, 67, 75
2, 3169, Note_on_c, 0, 67, 0
2, 3170, Note_on_c, 0, 66, 75
2, 3176, Note_on_c, 0, 66, 0
2, 3176, Note_on_c, 0, 67, 75
2, 3182, Note_on_c, 0, 67, 0
2, 3182, Note_on_c, 0, 69, 75
2, 3188, Note_on_c, 0, 69, 0
2, 3188, Note_on_c, 0, 67, 75
2, 3215, Note_on_c, 0, 67, 0
2, 3218, Note_on_c, 0, 65, 75
2, 3230, Note_on_c, 0, 65, 0
2, 3230, Note_on_c, 0, 64, 75
2, 3242, Note_on_c, 0, 64, 0
2, 3242, Note_on_c, 0, 62, 75
2, 3254, Note_on_c, 0, 62, 0
2, 3254, Note_on_c, 0, 64, 75
2, 3266, Note_on_c, 0, 64, 0
2, 3266, Note_on_c, 0, 62, 75
2, 3333, Note_on_c, 0, 62, 0
2, 3458, Note_on_c, 0, 67, 75
2, 3464, Note_on_c, 0, 71, 75
2, 3470, Note_on_c, 0, 74, 75
2, 3731, Note_on_c, 0, 74, 0
2, 3731, Note_on_c, 0, 71, 0
2, 3731, Note_on_c, 0, 67, 0
2, 3770, Note_on_c, 0, 67, 75
2, 3793, Note_on_c, 0, 67, 0
2, 3794, Note_on_c, 0, 66, 76
2, 3817, Note_on_c, 0, 66, 0
2, 3818, Note_on_c, 0, 67, 77
2, 3841, Note_on_c, 0, 67, 0
2, 3842, Note_on_c, 0, 72, 78
2, 3865, Note_on_c, 0, 72, 0
2, 3866, Note_on_c, 0, 67, 79
2, 3889, Note_on_c, 0, 67, 0
2, 3890, Note_on_c, 0, 76, 80
2, 3913, Note_on_c, 0, 76, 0
2, 3914, Note_on_c, 0, 72, 79
2, 3937, Note_on_c, 0, 72, 0
2, 3938, Note_on_c, 0, 79, 78
2, 3961, Note_on_c, 0, 79, 0
2, 3962, Note_on_c, 0, 76, 77
2, 3985, Note_on_c, 0, 76, 0
2, 3986, Note_on_c, 0, 74, 76
2, 3992, Note_on_c, 0, 74, 0
2, 3992, Note_on_c, 0, 76, 76
2, 3998, Note_on_c, 0, 76, 0
2, 3998, Note_on_c, 0, 74, 76
2, 4009, Note_on_c, 0, 74, 0
2, 4010, Note_on_c, 0, 72, 75
2, 4033, Note_on_c, 0, 72, 0
2, 4034, Note_on_c, 0, 67, 75
2, 4040, Note_on_c, 0, 71, 75
2, 4046, Note_on_c, 0, 74, 75
2, 4307, Note_on_c, 0, 74, 0
2, 4307, Note_on_c, 0, 71, 0
2, 4307, Note_on_c, 0, 67, 0
2, 4346, Note_on_c, 0, 67, 75
2, 4369, Note_on_c, 0, 67, 0
2, 4370, Note_on_c, 0, 66, 76
2, 4393, Note_on_c, 0, 66, 0
2, 4394, Note_on_c, 0, 67, 77
2, 4417, Note_on_c, 0, 67, 0
2, 4418, Note_on_c, 0, 72, 78
2, 4441, Note_on_c, 0, 72, 0
2, 4442, Note_on_c, 0, 67, 79
2, 4465, Note_on_c, 0, 67, 0
2, 4466, Note_on_c, 0, 76, 80
2, 4489, Note_on_c, 0, 76, 0
2, 4490, Note_on_c, 0, 72, 79
2, 4513, Note_on_c, 0, 72, 0
2, 4514, Note_on_c, 0, 79, 78
2, 4537, Note_on_c, 0, 79, 0
2, 4538, Note_on_c, 0, 76, 77
2, 4561, Note_on_c, 0, 76, 0
2, 4562, Note_on_c, 0, 74, 76
2, 4568, Note_on_c, 0, 74, 0
2, 4568, Note_on_c, 0, 76, 76
2, 4574, Note_on_c, 0, 76, 0
2, 4574, Note_on_c, 0, 74, 76
2, 4585, Note_on_c, 0, 74, 0
2, 4586, Note_on_c, 0, 72, 75
2, 4609, Note_on_c, 0, 72, 0
2, 4610, Note_on_c, 0, 81, 75
2, 4787, Note_on_c, 0, 81, 0
2, 4802, Note_on_c, 0, 77, 75
2, 4921, Note_on_c, 0, 77, 0
2, 4922, Note_on_c, 0, 76, 75
2, 4945, Note_on_c, 0, 76, 0
2, 4946, Note_on_c, 0, 75, 76
2, 4969, Note_on_c, 0, 75, 0
2, 4970, Note_on_c, 0, 76, 76
2, 4993, Note_on_c, 0, 76, 0
2, 4994, Note_on_c, 0, 81, 77
2, 5017, Note_on_c, 0, 81, 0
2, 5018, Note_on_c, 0, 79, 77
2, 5041, Note_on_c, 0, 79, 0
2, 5042, Note_on_c, 0, 78, 78
2, 5065, Note_on_c, 0, 78, 0
2, 5066, Note_on_c, 0, 79, 78
2, 5089, Note_on_c, 0, 79, 0
2, 5090, Note_on_c, 0, 86, 79
2, 5113, Note_on_c, 0, 86, 0
2, 5114, Note_on_c, 0, 84, 79
2, 5137, Note_on_c, 0, 84, 0
2, 5138, Note_on_c, 0, 83, 80
2, 5161, Note_on_c, 0, 83, 0
2, 5162, Note_on_c, 0, 82, 79
2, 5185, Note_on_c, 0, 82, 0
2, 5186, Note_on_c, 0, 81, 79
2, 5209, Note_on_c, 0, 81, 0
2, 5210, Note_on_c, 0, 80, 78
2, 5233, Note_on_c, 0, 80, 0
2, 5234, Note_on_c, 0, 79, 78
2, 5257, Note_on_c, 0, 79, 0
2, 5258, Note_on_c, 0, 77, 78
2, 5258, Note_on_c, 0, 74, 78
2, 5281, Note_on_c, 0, 77, 0
2, 5281, Note_on_c, 0, 74, 0
2, 5282, Note_on_c, 0, 76, 77
2, 5282, Note_on_c, 0, 72, 77
2, 5371, Note_on_c, 0, 76, 0
2, 5371, Note_on_c, 0, 72, 0
2, 5378, Note_on_c, 0, 79, 76
2, 5378, Note_on_c, 0, 76, 76
2, 5401, Note_on_c, 0, 79, 0
2, 5401, Note_on_c, 0, 76, 0
2, 5402, Note_on_c, 0, 77, 75
2, 5402, Note_on_c, 0, 74, 75
2, 5425, Note_on_c, 0, 77, 0
2, 5425, Note_on_c, 0, 74, 0
2, 5426, Note_on_c, 0, 76, 75
2, 5426, Note_on_c, 0, 72, 75
2, 5460, Note_on_c, 0, 76, 0
2, 5460, Note_on_c, 0, 72, 0
2, 5462, Note_on_c, 0, 74, 75
2, 5462, Note_on_c, 0, 71, 75
2, 5474, Note_on_c, 0, 74, 0
2, 5474, Note_on_c, 0, 71, 0
2, 5474, Note_on_c, 0, 74, 75
2, 5474, Note_on_c, 0, 71, 75
2, 5563, Note_on_c, 0, 74, 0
2, 5563, Note_on_c, 0, 71, 0
2, 5570, Note_on_c, 0, 69, 75
2, 5594, Note_on_c, 0, 72, 75
2, 5689, Note_on_c, 0, 72, 0
2, 5689, Note_on_c, 0, 69, 0
2, 5690, Note_on_c, 0, 72, 75
2, 5696, Note_on_c, 0, 72, 0
2, 5696, Note_on_c, 0, 71, 75
2, 5702, Note_on_c, 0, 71, 0
2, 5702, Note_on_c, 0, 72, 75
2, 5713, Note_on_c, 0, 72, 0
2, 5714, Note_on_c, 0, 74, 75
2, 5737, Note_on_c, 0, 74, 0
2, 5738, Note_on_c, 0, 75, 75
2, 5761, Note_on_c, 0, 75, 0
2, 5762, Note_on_c, 0, 75, 75
2, 5807, Note_on_c, 0, 75, 0
2, 5810, Note_on_c, 0, 66, 75
2, 5855, Note_on_c, 0, 66, 0
2, 5858, Note_on_c, 0, 74, 75
2, 5969, Note_on_c, 0, 74, 0
2, 5970, Note_on_c, 0, 72, 75
2, 5985, Note_on_c, 0, 72, 0
2, 5986, Note_on_c, 0, 71, 75
2, 6001, Note_on_c, 0, 71, 0
2, 6002, Note_on_c, 0, 69, 75
2, 6017, Note_on_c, 0, 69, 0
2, 6018, Note_on_c, 0, 67, 75
2, 6033, Note_on_c, 0, 67, 0
2, 6034, Note_on_c, 0, 65, 75
2, 6049, Note_on_c, 0, 65, 0
2, 6050, Note_on_c, 0, 64, 75
2, 6065, Note_on_c, 0, 64, 0
2, 6066, Note_on_c, 0, 67, 75
2, 6081, Note_on_c, 0, 67, 0
2, 6082, Note_on_c, 0, 71, 76
2, 6097, Note_on_c, 0, 71, 0
2, 6098, Note_on_c, 0, 72, 76
2, 6113, Note_on_c, 0, 72, 0
2, 6114, Note_on_c, 0, 76, 77
2, 6129, Note_on_c, 0, 76, 0
2, 6130, Note_on_c, 0, 79, 78
2, 6145, Note_on_c, 0, 79, 0
2, 6146, Note_on_c, 0, 84, 94
2, 6146, Note_on_c, 0, 72, 94
2, 6257, Note_on_c, 0, 84, 0
2, 6257, Note_on_c, 0, 72, 0
2, 6258, Note_on_c, 0, 83, 77
2, 6258, Note_on_c, 0, 71, 77
2, 6273, Note_on_c, 0, 83, 0
2, 6273, Note_on_c, 0, 71, 0
2, 6274, Note_on_c, 0, 81, 77
2, 6274, Note_on_c, 0, 69, 77
2, 6289, Note_on_c, 0, 81, 0
2, 6289, Note_on_c, 0, 69, 0
2, 6290, Note_on_c, 0, 79, 77
2, 6290, Note_on_c, 0, 67, 77
2, 6305, Note_on_c, 0, 79, 0
2, 6305, Note_on_c, 0, 67, 0
2, 6306, Note_on_c, 0, 77, 76
2, 6306, Note_on_c, 0, 65, 76
2, 6321, Note_on_c, 0, 77, 0
2, 6321, Note_on_c, 0, 65, 0
2, 6322, Note_on_c, 0, 76, 76
2, 6322, Note_on_c, 0, 64, 76
2, 6337, Note_on_c, 0, 76, 0
2, 6337, Note_on_c, 0, 64, 0
2, 6338, Note_on_c, 0, 74, 75
2, 6338, Note_on_c, 0, 62, 75
2, 6383, Note_on_c, 0, 74, 0
2, 6383, Note_on_c, 0, 62, 0
2, 6386, Note_on_c, 0, 81, 75
2, 6386, Note_on_c, 0, 77, 75
2, 6406, Note_on_c, 0, 81, 0
2, 6406, Note_on_c, 0, 77, 0
2, 6482, Note_on_c, 0, 79, 75
2, 6482, Note_on_c, 0, 76, 75
2, 6527, Note_on_c, 0, 79, 0
2, 6527, Note_on_c, 0, 76, 0
2, 6578, Note_on_c, 0, 71, 75
2, 6578, Note_on_c, 0, 65, 75
2, 6623, Note_on_c, 0, 71, 0
2, 6623, Note_on_c, 0, 65, 0
2, 6626, Note_on_c, 0, 88, 96
2, 6626, Note_on_c, 0, 84, 96
2, 6737, Note_on_c, 0, 88, 0
2, 6737, Note_on_c, 0, 84, 0
2, 6738, Note_on_c, 0, 86, 80
2, 6738, Note_on_c, 0, 83, 80
2, 6745, Note_on_c, 0, 86, 0
2, 6745, Note_on_c, 0, 83, 0
2, 6754, Note_on_c, 0, 84, 80
2, 6754, Note_on_c, 0, 81, 80
2, 6761, Note_on_c, 0, 84, 0
2, 6761, Note_on_c, 0, 81, 0
2, 6770, Note_on_c, 0, 83, 80
2, 6770, Note_on_c, 0, 79, 80
2, 6777, Note_on_c, 0, 83, 0
2, 6777, Note_on_c, 0, 79, 0
2, 6786, Note_on_c, 0, 81, 80
2, 6786, Note_on_c, 0, 77, 80
2, 6793, Note_on_c, 0, 81, 0
2, 6793, Note_on_c, 0, 77, 0
2, 6802, Note_on_c, 0, 79, 80
2, 6802, Note_on_c, 0, 76, 80
2, 6809, Note_on_c, 0, 79, 0
2, 6809, Note_on_c, 0, 76, 0
2, 6818, Note_on_c, 0, 77, 80
2, 6818, Note_on_c, 0, 74, 80
2, 6825, Note_on_c, 0, 77, 0
2, 6825, Note_on_c, 0, 74, 0
2, 6834, Note_on_c, 0, 76, 80
2, 6834, Note_on_c, 0, 72, 80
2, 6841, Note_on_c, 0, 76, 0
2, 6841, Note_on_c, 0, 72, 0
2, 6850, Note_on_c, 0, 74, 80
2, 6850, Note_on_c, 0, 71, 80
2, 6857, Note_on_c, 0, 74, 0
2, 6857, Note_on_c, 0, 71, 0
2, 6866, Note_on_c, 0, 72, 80
2, 6866, Note_on_c, 0, 69, 80
2, 6873, Note_on_c, 0, 72, 0
2, 6873, Note_on_c, 0, 69, 0
2, 6882, Note_on_c, 0, 71, 80
2, 6882, Note_on_c, 0, 67, 80
2, 6889, Note_on_c, 0, 71, 0
2, 6889, Note_on_c, 0, 67, 0
2, 6898, Note_on_c, 0, 69, 80
2, 6898, Note_on_c, 0, 65, 80
2, 6905, Note_on_c, 0, 69, 0
2, 6905, Note_on_c, 0, 65, 0
2, 6914, Note_on_c, 0, 67, 80
2, 6914, Note_on_c, 0, 64, 80
2, 6934, Note_on_c, 0, 67, 0
2, 6934, Note_on_c, 0, 64, 0
2, 6986, Note_on_c, 0, 65, 80
2, 6986, Note_on_c, 0, 62, 80
2, 6996, Note_on_c, 0, 65, 0
2, 6996, Note_on_c, 0, 62, 0
2, 7010, Note_on_c, 0, 64, 80
2, 7010, Note_on_c, 0, 60, 80
2, 7030, Note_on_c, 0, 64, 0
2, 7030, Note_on_c, 0, 60, 0
2, 7106, Note_on_c, 0, 62, 80
2, 7106, Note_on_c, 0, 59, 80
2, 7151, Note_on_c, 0, 62, 0
2, 7151, Note_on_c, 0, 59, 0
2, 7202, Note_on_c, 0, 60, 75
2, 7202, Note_on_c, 0, 55, 75
2, 7202, Note_on_c, 0, 52, 75
2, 7335, Note_on_c, 0, 60, 0
2, 7335, Note_on_c, 0, 55, 0
2, 7335, Note_on_c, 0, 52, 0
2, 7346, Note_on_c, 0, 57, 75
2, 7394, Note_on_c, 0, 57, 0
2, 7394, Note_on_c, 0, 55, 75
2, 7414, Note_on_c, 0, 55, 0
2, 7442, Note_on_c, 0, 65, 75
2, 7442, Note_on_c, 0, 59, 75
2, 7462, Note_on_c, 0, 65, 0
2, 7462, Note_on_c, 0, 59, 0
2, 7490, Note_on_c, 0, 65, 75
2, 7490, Note_on_c, 0, 59, 75
2, 7586, Note_on_c, 0, 65, 0
2, 7586, Note_on_c, 0, 59, 0
2, 7586, Note_on_c, 0, 64, 75
2, 7586, Note_on_c, 0, 60, 75
2, 7631, Note_on_c, 0, 64, 0
2, 7631, Note_on_c, 0, 60, 0
2, 7634, Note_on_c, 0, 57, 75
2, 7682, Note_on_c, 0, 57, 0
2, 7682, Note_on_c, 0, 55, 75
2, 7702, Note_on_c, 0, 55, 0
2, 7730, Note_on_c, 0, 59, 75
2, 7730, Note_on_c, 0, 53, 75
2, 7750, Note_on_c, 0, 59, 0
2, 7750, Note_on_c, 0, 53, 0
2, 8066, Note_on_c, 0, 60, 64
2, 8072, Note_on_c, 0, 65, 64
2, 8078, Note_on_c, 0, 69, 64
2, 8084, Note_on_c, 0, 72, 64
2, 8162, Note_on_c, 0, 65, 0
2, 8162, Note_on_c, 0, 60, 0
2, 8229, Note_on_c, 0, 72, 0
2, 8229, Note_on_c, 0, 69, 0
2, 8234, Note_on_c, 0, 70, 64
2, 8234, Note_on_c, 0, 67, 64
2, 8257, Note_on_c, 0, 70, 0
2, 8257, Note_on_c, 0, 67, 0
2, 8258, Note_on_c, 0, 69, 64
2, 8258, Note_on_c, 0, 65, 64
2, 8347, Note_on_c, 0, 69, 0
2, 8347, Note_on_c, 0, 65, 0
2, 8354, Note_on_c, 0, 67, 64
2, 8363, Note_on_c, 0, 67, 0
2, 8363, Note_on_c, 0, 69, 64
2, 8372, Note_on_c, 0, 69, 0
2, 8372, Note_on_c, 0, 67, 64
2, 8381, Note_on_c, 0, 67, 0
2, 8381, Note_on_c, 0, 69, 64
2, 8390, Note_on_c, 0, 69, 0
2, 8390, Note_on_c, 0, 67, 64
2, 8399, Note_on_c, 0, 67, 0
2, 8399, Note_on_c, 0, 69, 64
2, 8408, Note_on_c, 0, 69, 0
2, 8408, Note_on_c, 0, 67, 64
2, 8417, Note_on_c, 0, 67, 0
2, 8417, Note_on_c, 0, 69, 64
2, 8426, Note_on_c, 0, 69, 0
2, 8426, Note_on_c, 0, 67, 64
2, 8434, Note_on_c, 0, 67, 0
2, 8434, Note_on_c, 0, 65, 64
2, 8442, Note_on_c, 0, 65, 0
2, 8442, Note_on_c, 0, 67, 64
2, 8450, Note_on_c, 0, 67, 0
2, 8450, Note_on_c, 0, 65, 64
2, 8517, Note_on_c, 0, 65, 0
2, 8546, Note_on_c, 0, 65, 64
2, 8554, Note_on_c, 0, 65, 0
2, 8554, Note_on_c, 0, 67, 64
2, 8562, Note_on_c, 0, 67, 0
2, 8562, Note_on_c, 0, 69, 64
2, 8570, Note_on_c, 0, 69, 0
2, 8570, Note_on_c, 0, 67, 64
2, 8578, Note_on_c, 0, 67, 0
2, 8578, Note_on_c, 0, 65, 64
2, 8586, Note_on_c, 0, 65, 0
2, 8586, Note_on_c, 0, 67, 64
2, 8593, Note_on_c, 0, 67, 0
2, 8593, Note_on_c, 0, 69, 64
2, 8600, Note_on_c, 0, 69, 0
2, 8600, Note_on_c, 0, 70, 64
2, 8607, Note_on_c, 0, 70, 0
2, 8607, Note_on_c, 0, 72, 64
2, 8614, Note_on_c, 0, 72, 0
2, 8614, Note_on_c, 0, 74, 64
2, 8621, Note_on_c, 0, 74, 0
2, 8621, Note_on_c, 0, 76, 64
2, 8628, Note_on_c, 0, 76, 0
2, 8628, Note_on_c, 0, 77, 64
2, 8635, Note_on_c, 0, 77, 0
2, 8635, Note_on_c, 0, 79, 64
2, 8642, Note_on_c, 0, 79, 0
2, 8642, Note_on_c, 0, 81, 64
2, 8662, Note_on_c, 0, 81, 0
2, 8714, Note_on_c, 0, 79, 64
2, 8738, Note_on_c, 0, 79, 0
2, 8738, Note_on_c, 0, 77, 64
2, 8758, Note_on_c, 0, 77, 0
2, 8810, Note_on_c, 0, 76, 64
2, 8834, Note_on_c, 0, 76, 0
2, 8834, Note_on_c, 0, 74, 64
2, 8854, Note_on_c, 0, 74, 0
2, 8906, Note_on_c, 0, 72, 64
2, 8929, Note_on_c, 0, 72, 0
2, 8930, Note_on_c, 0, 72, 75
2, 8963, Note_on_c, 0, 72, 0
2, 8965, Note_on_c, 0, 70, 71
2, 8974, Note_on_c, 0, 70, 0
2, 8974, Note_on_c, 0, 72, 70
2, 8983, Note_on_c, 0, 72, 0
2, 8983, Note_on_c, 0, 70, 70
2, 8992, Note_on_c, 0, 70, 0
2, 8992, Note_on_c, 0, 72, 69
2, 9001, Note_on_c, 0, 72, 0
2, 9001, Note_on_c, 0, 70, 68
2, 9010, Note_on_c, 0, 70, 0
2, 9010, Note_on_c, 0, 69, 68
2, 9019, Note_on_c, 0, 69, 0
2, 9019, Note_on_c, 0, 70, 67
2, 9028, Note_on_c, 0, 70, 0
2, 9028, Note_on_c, 0, 69, 64
2, 9095, Note_on_c, 0, 69, 0
2, 9220, Note_on_c, 0, 67, 75
2, 9243, Note_on_c, 0, 67, 0
2, 9244, Note_on_c, 0, 69, 75
2, 9252, Note_on_c, 0, 69, 0
2, 9252, Note_on_c, 0, 67, 75
2, 9260, Note_on_c, 0, 67, 0
2, 9260, Note_on_c, 0, 65, 75
2, 9268, Note_on_c, 0, 65, 0
2, 9268, Note_on_c, 0, 67, 75
2, 9278, Note_on_c, 0, 67, 0
2, 9292, Note_on_c, 0, 69, 75
2, 9315, Note_on_c, 0, 69, 0
2, 9316, Note_on_c, 0, 70, 75
2, 9339, Note_on_c, 0, 70, 0
2, 9340, Note_on_c, 0, 72, 75
2, 9348, Note_on_c, 0, 72, 0
2, 9348, Note_on_c, 0, 70, 75
2, 9356, Note_on_c, 0, 70, 0
2, 9356, Note_on_c, 0, 69, 75
2, 9364, Note_on_c, 0, 69, 0
2, 9364, Note_on_c, 0, 70, 75
2, 9374, Note_on_c, 0, 70, 0
2, 9388, Note_on_c, 0, 72, 75
2, 9411, Note_on_c, 0, 72, 0
2, 9412, Note_on_c, 0, 73, 75
2, 9427, Note_on_c, 0, 73, 0
2, 9428, Note_on_c, 0, 76, 75
2, 9443, Note_on_c, 0, 76, 0
2, 9444, Note_on_c, 0, 74, 75
2, 9459, Note_on_c, 0, 74, 0
2, 9460, Note_on_c, 0, 62, 75
2, 9475, Note_on_c, 0, 62, 0
2, 9476, Note_on_c, 0, 70, 75
2, 9491, Note_on_c, 0, 70, 0
2, 9492, Note_on_c, 0, 67, 75
2, 9507, Note_on_c, 0, 67, 0
2, 9508, Note_on_c, 0, 65, 75
2, 9568, Note_on_c, 0, 65, 0
2, 9568, Note_on_c, 0, 64, 75
2, 9580, Note_on_c, 0, 64, 0
2, 9580, Note_on_c, 0, 67, 75
2, 9592, Note_on_c, 0, 67, 0
2, 9592, Note_on_c, 0, 64, 75
2, 9604, Note_on_c, 0, 64, 0
2, 9604, Note_on_c, 0, 65, 75
2, 9671, Note_on_c, 0, 65, 0
2, 9796, Note_on_c, 0, 69, 75
2, 9808, Note_on_c, 0, 69, 0
2, 9808, Note_on_c, 0, 81, 75
2, 9973, Note_on_c, 0, 81, 0
2, 9988, Note_on_c, 0, 79, 75
2, 10011, Note_on_c, 0, 79, 0
2, 10012, Note_on_c, 0, 77, 75
2, 10035, Note_on_c, 0, 77, 0
2, 10036, Note_on_c, 0, 76, 75
2, 10059, Note_on_c, 0, 76, 0
2, 10060, Note_on_c, 0, 74, 75
2, 10083, Note_on_c, 0, 74, 0
2, 10084, Note_on_c, 0, 74, 75
2, 10151, Note_on_c, 0, 74, 0
2, 10156, Note_on_c, 0, 76, 75
2, 10168, Note_on_c, 0, 76, 0
2, 10168, Note_on_c, 0, 74, 75
2, 10180, Note_on_c, 0, 74, 0
2, 10180, Note_on_c, 0, 73, 75
2, 10357, Note_on_c, 0, 73, 0
2, 10396, Note_on_c, 0, 69, 75
2, 10419, Note_on_c, 0, 69, 0
2, 10420, Note_on_c, 0, 74, 75
2, 10443, Note_on_c, 0, 74, 0
2, 10444, Note_on_c, 0, 73, 76
2, 10467, Note_on_c, 0, 73, 0
2, 10468, Note_on_c, 0, 76, 77
2, 10491, Note_on_c, 0, 76, 0
2, 10492, Note_on_c, 0, 74, 78
2, 10515, Note_on_c, 0, 74, 0
2, 10516, Note_on_c, 0, 77, 79
2, 10531, Note_on_c, 0, 77, 0
2, 10532, Note_on_c, 0, 76, 79
2, 10547, Note_on_c, 0, 76, 0
2, 10548, Note_on_c, 0, 79, 79
2, 10563, Note_on_c, 0, 79, 0
2, 10564, Note_on_c, 0, 77, 79
2, 10579, Note_on_c, 0, 77, 0
2, 10580, Note_on_c, 0, 81, 79
2, 10595, Note_on_c, 0, 81, 0
2, 10596, Note_on_c, 0, 79, 78
2, 10611, Note_on_c, 0, 79, 0
2, 10612, Note_on_c, 0, 77, 78
2, 10627, Note_on_c, 0, 77, 0
2, 10628, Note_on_c, 0, 76, 77
2, 10643, Note_on_c, 0, 76, 0
2, 10644, Note_on_c, 0, 74, 77
2, 10659, Note_on_c, 0, 74, 0
2, 10660, Note_on_c, 0, 72, 75
2, 10749, Note_on_c, 0, 72, 0
2, 10756, Note_on_c, 0, 71, 75
2, 10765, Note_on_c, 0, 71, 0
2, 10765, Note_on_c, 0, 72, 75
2, 10774, Note_on_c, 0, 72, 0
2, 10774, Note_on_c, 0, 71, 75
2, 10783, Note_on_c, 0, 71, 0
2, 10783, Note_on_c, 0, 72, 75
2, 10792, Note_on_c, 0, 72, 0
2, 10792, Note_on_c, 0, 71, 75
2, 10801, Note_on_c, 0, 71, 0
2, 10801, Note_on_c, 0, 72, 75
2, 10810, Note_on_c, 0, 72, 0
2, 10810, Note_on_c, 0, 71, 75
2, 10819, Note_on_c, 0, 71, 0
2, 10819, Note_on_c, 0, 72, 75
2, 10828, Note_on_c, 0, 72, 0
2, 10828, Note_on_c, 0, 71, 75
2, 10836, Note_on_c, 0, 71, 0
2, 10836, Note_on_c, 0, 69, 75
2, 10844, Note_on_c, 0, 69, 0
2, 10844, Note_on_c, 0, 71, 75
2, 10852, Note_on_c, 0, 71, 0
2, 10852, Note_on_c, 0, 72, 75
2, 10876, Note_on_c, 0, 72, 75
2, 10882, Note_on_c, 0, 72, 0
2, 10882, Note_on_c, 0, 71, 75
2, 10888, Note_on_c, 0, 71, 0
2, 10888, Note_on_c, 0, 72, 75
2, 10899, Note_on_c, 0, 72, 0
2, 10900, Note_on_c, 0, 74, 75
2, 10923, Note_on_c, 0, 74, 0
2, 10924, Note_on_c, 0, 76, 75
2, 10947, Note_on_c, 0, 76, 0
2, 10948, Note_on_c, 0, 67, 75
2, 11081, Note_on_c, 0, 67, 0
2, 11092, Note_on_c, 0, 65, 75
2, 11098, Note_on_c, 0, 65, 0
2, 11098, Note_on_c, 0, 67, 75
2, 11104, Note_on_c, 0, 67, 0
2, 11104, Note_on_c, 0, 65, 75
2, 11139, Note_on_c, 0, 65, 0
2, 11140, Note_on_c, 0, 64, 75
2, 11163, Note_on_c, 0, 64, 0
2, 11164, Note_on_c, 0, 65, 75
2, 11187, Note_on_c, 0, 65, 0
2, 11188, Note_on_c, 0, 66, 75
2, 11211, Note_on_c, 0, 66, 0
2, 11212, Note_on_c, 0, 67, 75
2, 11235, Note_on_c, 0, 67, 0
2, 11236, Note_on_c, 0, 66, 75
2, 11242, Note_on_c, 0, 66, 0
2, 11242, Note_on_c, 0, 67, 75
2, 11248, Note_on_c, 0, 67, 0
2, 11248, Note_on_c, 0, 69, 75
2, 11254, Note_on_c, 0, 69, 0
2, 11254, Note_on_c, 0, 67, 75
2, 11281, Note_on_c, 0, 67, 0
2, 11284, Note_on_c, 0, 65, 75
2, 11296, Note_on_c, 0, 65, 0
2, 11296, Note_on_c, 0, 64, 75
2, 11308, Note_on_c, 0, 64, 0
2, 11308, Note_on_c, 0, 62, 75
2, 11320, Note_on_c, 0, 62, 0
2, 11320, Note_on_c, 0, 64, 75
2, 11332, Note_on_c, 0, 64, 0
2, 11332, Note_on_c, 0, 62, 75
2, 11399, Note_on_c, 0, 62, 0
2, 11524, Note_on_c, 0, 67, 75
2, 11530, Note_on_c, 0, 71, 75
2, 11536, Note_on_c, 0, 74, 75
2, 11797, Note_on_c, 0, 74, 0
2, 11797, Note_on_c, 0, 71, 0
2, 11797, Note_on_c, 0, 67, 0
2, 11836, Note_on_c, 0, 67, 75
2, 11859, Note_on_c, 0, 67, 0
2, 11860, Note_on_c, 0, 66, 76
2, 11883, Note_on_c, 0, 66, 0
2, 11884, Note_on_c, 0, 67, 77
2, 11907, Note_on_c, 0, 67, 0
2, 11908, Note_on_c, 0, 72, 78
2, 11931, Note_on_c, 0, 72, 0
2, 11932, Note_on_c, 0, 67, 79
2, 11955, Note_on_c, 0, 67, 0
2, 11956, Note_on_c, 0, 76, 80
2, 11979, Note_on_c, 0, 76, 0
2, 11980, Note_on_c, 0, 72, 79
2, 12003, Note_on_c, 0, 72, 0
2, 12004, Note_on_c, 0, 79, 78
2, 12027, Note_on_c, 0, 79, 0
2, 12028, Note_on_c, 0, 76, 77
2, 12051, Note_on_c, 0, 76, 0
2, 12052, Note_on_c, 0, 74, 76
2, 12058, Note_on_c, 0, 74, 0
2, 12058, Note_on_c, 0, 76, 76
2, 12064, Note_on_c, 0, 76, 0
2, 12064, Note_on_c, 0, 74, 76
2, 12075, Note_on_c, 0, 74, 0
2, 12076, Note_on_c, 0, 72, 75
2, 12099, Note_on_c, 0, 72, 0
2, 12100, Note_on_c, 0, 67, 75
2, 12106, Note_on_c, 0, 71, 75
2, 12112, Note_on_c, 0, 74, 75
2, 12373, Note_on_c, 0, 74, 0
2, 12373, Note_on_c, 0, 71, 0
2, 12373, Note_on_c, 0, 67, 0
2, 12412, Note_on_c, 0, 67, 75
2, 12435, Note_on_c, 0, 67, 0
2, 12436, Note_on_c, 0, 66, 76
2, 12459, Note_on_c, 0, 66, 0
2, 12460, Note_on_c, 0, 67, 77
2, 12483, Note_on_c, 0, 67, 0
2, 12484, Note_on_c, 0, 72, 78
2, 12507, Note_on_c, 0, 72, 0
2, 12508, Note_on_c, 0, 67, 79
2, 12531, Note_on_c, 0, 67, 0
2, 12532, Note_on_c, 0, 76, 80
2, 12555, Note_on_c, 0, 76, 0
2, 12556, Note_on_c, 0, 72, 79
2, 12579, Note_on_c, 0, 72, 0
2, 12580, Note_on_c, 0, 79, 78
2, 12603, Note_on_c, 0, 79, 0
2, 12604, Note_on_c, 0, 76, 77
2, 12627, Note_on_c, 0, 76, 0
2, 12628, Note_on_c, 0, 74, 76
2, 12634, Note_on_c, 0, 74, 0
2, 12634, Note_on_c, 0, 76, 76
2, 12640, Note_on_c, 0, 76, 0
2, 12640, Note_on_c, 0, 74, 76
2, 12651, Note_on_c, 0, 74, 0
2, 12652, Note_on_c, 0, 72, 75
2, 12675, Note_on_c, 0, 72, 0
2, 12676, Note_on_c, 0, 81, 75
2, 12853, Note_on_c, 0, 81, 0
2, 12868, Note_on_c, 0, 77, 75
2, 12987, Note_on_c, 0, 77, 0
2, 12988, Note_on_c, 0, 76, 75
2, 13011, Note_on_c, 0, 76, 0
2, 13012, Note_on_c, 0, 75, 76
2, 13035, Note_on_c, 0, 75, 0
2, 13036, Note_on_c, 0, 76, 76
2, 13059, Note_on_c, 0, 76, 0
2, 13060, Note_on_c, 0, 81, 77
2, 13083, Note_on_c, 0, 81, 0
2, 13084, Note_on_c, 0, 79, 77
2, 13107, Note_on_c, 0, 79, 0
2, 13108, Note_on_c, 0, 78, 78
2, 13131, Note_on_c, 0, 78, 0
2, 13132, Note_on_c, 0, 79, 78
2, 13155, Note_on_c, 0, 79, 0
2, 13156, Note_on_c, 0, 86, 79
2, 13179, Note_on_c, 0, 86, 0
2, 13180, Note_on_c, 0, 84, 79
2, 13203, Note_on_c, 0, 84, 0
2, 13204, Note_on_c, 0, 83, 80
2, 13227, Note_on_c, 0, 83, 0
2, 13228, Note_on_c, 0, 82, 79
2, 13251, Note_on_c, 0, 82, 0
2, 13252, Note_on_c, 0, 81, 79
2, 13275, Note_on_c, 0, 81, 0
2, 13276, Note_on_c, 0, 80, 78
2, 13299, Note_on_c, 0, 80, 0
2, 13300, Note_on_c, 0, 79, 78
2, 13323, Note_on_c, 0, 79, 0
2, 13324, Note_on_c, 0, 77, 78
2, 13324, Note_on_c, 0, 74, 78
2, 13347, Note_on_c, 0, 77, 0
2, 13347, Note_on_c, 0, 74, 0
2, 13348, Note_on_c, 0, 76, 77
2, 13348, Note_on_c, 0, 72, 77
2, 13437, Note_on_c, 0, 76, 0
2, 13437, Note_on_c, 0, 72, 0
2, 13444, Note_on_c, 0, 79, 76
2, 13444, Note_on_c, 0, 76, 76
2, 13467, Note_on_c, 0, 79, 0
2, 13467, Note_on_c, 0, 76, 0
2, 13468, Note_on_c, 0, 77, 75
2, 13468, Note_on_c, 0, 74, 75
2, 13491, Note_on_c, 0, 77, 0
2, 13491, Note_on_c, 0, 74, 0
2, 13492, Note_on_c, 0, 76, 75
2, 13492, Note_on_c, 0, 72, 75
2, 13526, Note_on_c, 0, 76, 0
2, 13526, Note_on_c, 0, 72, 0
2, 13528, Note_on_c, 0, 74, 75
2, 13528, Note_on_c, 0, 71, 75
2, 13540, Note_on_c, 0, 74, 0
2, 13540, Note_on_c, 0, 71, 0
2, 13540, Note_on_c, 0, 74, 75
2, 13540, Note_on_c, 0, 71, 75
2, 13629, Note_on_c, 0, 74, 0
2, 13629, Note_on_c, 0, 71, 0
2, 13636, Note_on_c, 0, 69, 75
2, 13660, Note_on_c, 0, 72, 75
2, 13755, Note_on_c, 0, 72, 0
2, 13755, Note_on_c, 0, 69, 0
2, 13756, Note_on_c, 0, 72, 75
2, 13762, Note_on_c, 0, 72, 0
2, 13762, Note_on_c, 0, 71, 75
2, 13768, Note_on_c, 0, 71, 0
2, 13768, Note_on_c, 0, 72, 75
2, 13779, Note_on_c, 0, 72, 0
2, 13780, Note_on_c, 0, 74, 75
2, 13803, Note_on_c, 0, 74, 0
2, 13804, Note_on_c, 0, 75, 75
2, 13827, Note_on_c, 0, 75, 0
2, 13828, Note_on_c, 0, 75, 75
2, 13873, Note_on_c, 0, 75, 0
2, 13876, Note_on_c, 0, 66, 75
2, 13921, Note_on_c, 0, 66, 0
2, 13924, Note_on_c, 0, 74, 75
2, 14035, Note_on_c, 0, 74, 0
2, 14036, Note_on_c, 0, 72, 75
2, 14051, Note_on_c, 0, 72, 0
2, 14052, Note_on_c, 0, 71, 75
2, 14067, Note_on_c, 0, 71, 0
2, 14068, Note_on_c, 0, 69, 75
2, 14083, Note_on_c, 0, 69, 0
2, 14084, Note_on_c, 0, 67, 75
2, 14099, Note_on_c, 0, 67, 0
2, 14100, Note_on_c, 0, 65, 75
2, 14115, Note_on_c, 0, 65, 0
2, 14116, Note_on_c, 0, 64, 75
2, 14131, Note_on_c, 0, 64, 0
2, 14132, Note_on_c, 0, 67, 75
2, 14147, Note_on_c, 0, 67, 0
2, 14148, Note_on_c, 0, 71, 76
2, 14163, Note_on_c, 0, 71, 0
2, 14164, Note_on_c, 0, 72, 76
2, 14179, Note_on_c, 0, 72, 0
2, 14180, Note_on_c, 0, 76, 77
2, 14195, Note_on_c, 0, 76, 0
2, 14196, Note_on_c, 0, 79, 78
2, 14211, Note_on_c, 0, 79, 0
2, 14212, Note_on_c, 0, 84, 94
2, 14212, Note_on_c, 0, 72, 94
2, 14323, Note_on_c, 0, 84, 0
2, 14323, Note_on_c, 0, 72, 0
2, 14324, Note_on_c, 0, 83, 77
2, 14324, Note_on_c, 0, 71, 77
2, 14339, Note_on_c, 0, 83, 0
2, 14339, Note_on_c, 0, 71, 0
2, 14340, Note_on_c, 0, 81, 77
2, 14340, Note_on_c, 0, 69, 77
2, 14355, Note_on_c, 0, 81, 0
2, 14355, Note_on_c, 0, 69, 0
2, 14356, Note_on_c, 0, 79, 77
2, 14356, Note_on_c, 0, 67, 77
2, 14371, Note_on_c, 0, 79, 0
2, 14371, Note_on_c, 0, 67, 0
2, 14372, Note_on_c, 0, 77, 76
2, 14372, Note_on_c, 0, 65, 76
2, 14387, Note_on_c, 0, 77, 0
2, 14387, Note_on_c, 0, 65, 0
2, 14388, Note_on_c, 0, 76, 76
2, 14388, Note_on_c, 0, 64, 76
2, 14403, Note_on_c, 0, 76, 0
2, 14403, Note_on_c, 0, 64, 0
2, 14404, Note_on_c, 0, 74, 75
2, 14404, Note_on_c, 0, 62, 75
2, 14449, Note_on_c, 0, 74, 0
2, 14449, Note_on_c, 0, 62, 0
2, 14452, Note_on_c, 0, 81, 75
2, 14452, Note_on_c, 0, 77, 75
2, 14472, Note_on_c, 0, 81, 0
2, 14472, Note_on_c, 0, 77, 0
2, 14548, Note_on_c, 0, 79, 75
2, 14548, Note_on_c, 0, 76, 75
2, 14593, Note_on_c, 0, 79, 0
2, 14593, Note_on_c, 0, 76, 0
2, 14644, Note_on_c, 0, 71, 75
2, 14644, Note_on_c, 0, 65, 75
2, 14689, Note_on_c, 0, 71, 0
2, 14689, Note_on_c, 0, 65, 0
2, 14692, Note_on_c, 0, 88, 96
2, 14692, Note_on_c, 0, 84, 96
2, 14803, Note_on_c, 0, 88, 0
2, 14803, Note_on_c, 0, 84, 0
2, 14804, Note_on_c, 0, 86, 80
2, 14804, Note_on_c, 0, 83, 80
2, 14811, Note_on_c, 0, 86, 0
2, 14811, Note_on_c, 0, 83, 0
2, 14820, Note_on_c, 0, 84, 80
2, 14820, Note_on_c, 0, 81, 80
2, 14827, Note_on_c, 0, 84, 0
2, 14827, Note_on_c, 0, 81, 0
2, 14836, Note_on_c, 0, 83, 80
2, 14836, Note_on_c, 0, 79, 80
2, 14843, Note_on_c, 0, 83, 0
2, 14843, Note_on_c, 0, 79, 0
2, 14852, Note_on_c, 0, 81, 80
2, 14852, Note_on_c, 0, 77, 80
2, 14859, Note_on_c, 0, 81, 0
2, 14859, Note_on_c, 0, 77, 0
2, 14868, Note_on_c, 0, 79, 80
2, 14868, Note_on_c, 0, 76, 80
2, 14875, Note_on_c, 0, 79, 0
2, 14875, Note_on_c, 0, 76, 0
2, 14884, Note_on_c, 0, 77, 80
2, 14884, Note_on_c, 0, 74, 80
2, 14891, Note_on_c, 0, 77, 0
2, 14891, Note_on_c, 0, 74, 0
2, 14900, Note_on_c, 0, 76, 80
2, 14900, Note_on_c, 0, 72, 80
2, 14907, Note_on_c, 0, 76, 0
2, 14907, Note_on_c, 0, 72, 0
2, 14916, Note_on_c, 0, 74, 80
2, 14916, Note_on_c, 0, 71, 80
2, 14923, Note_on_c, 0, 74, 0
2, 14923, Note_on_c, 0, 71, 0
2, 14932, Note_on_c, 0, 72, 80
2, 14932, Note_on_c, 0, 69, 80
2, 14939, Note_on_c, 0, 72, 0
2, 14939, Note_on_c, 0, 69, 0
2, 14948, Note_on_c, 0, 71, 80
2, 14948, Note_on_c, 0, 67, 80
2, 14955, Note_on_c, 0, 71, 0
2, 14955, Note_on_c, 0, 67, 0
2, 14964, Note_on_c, 0, 69, 80
2, 14964, Note_on_c, 0, 65, 80
2, 14971, Note_on_c, 0, 69, 0
2, 14971, Note_on_c, 0, 65, 0
2, 14980, Note_on_c, 0, 67, 80
2, 14980, Note_on_c, 0, 64, 80
2, 15000, Note_on_c, 0, 67, 0
2, 15000, Note_on_c, 0, 64, 0
2, 15052, Note_on_c, 0, 65, 80
2, 15052, Note_on_c, 0, 62, 80
2, 15062, Note_on_c, 0, 65, 0
2, 15062, Note_on_c, 0, 62, 0
2, 15076, Note_on_c, 0, 64, 80
2, 15076, Note_on_c, 0, 60, 80
2, 15096, Note_on_c, 0, 64, 0
2, 15096, Note_on_c, 0, 60, 0
2, 15172, Note_on_c, 0, 62, 80
2, 15172, Note_on_c, 0, 59, 80
2, 15217, Note_on_c, 0, 62, 0
2, 15217, Note_on_c, 0, 59, 0
2, 15268, Note_on_c, 0, 60, 75
2, 15268, Note_on_c, 0, 55, 75
2, 15268, Note_on_c, 0, 52, 75
2, 15401, Note_on_c, 0, 60, 0
2, 15401, Note_on_c, 0, 55, 0
2, 15401, Note_on_c, 0, 52, 0
2, 15412, Note_on_c, 0, 57, 75
2, 15460, Note_on_c, 0, 57, 0
2, 15460, Note_on_c, 0, 55, 75
2, 15480, Note_on_c, 0, 55, 0
2, 15508, Note_on_c, 0, 65, 75
2, 15508, Note_on_c, 0, 59, 75
2, 15528, Note_on_c, 0, 65, 0
2, 15528, Note_on_c, 0, 59, 0
2, 15556, Note_on_c, 0, 65, 75
2, 15556, Note_on_c, 0, 59, 75
2, 15652, Note_on_c, 0, 65, 0
2, 15652, Note_on_c, 0, 59, 0
2, 15652, Note_on_c, 0, 64, 75
2, 15652, Note_on_c, 0, 60, 75
2, 15697, Note_on_c, 0, 64, 0
2, 15697, Note_on_c, 0, 60, 0
2, 15700, Note_on_c, 0, 57, 75
2, 15748, Note_on_c, 0, 57, 0
2, 15748, Note_on_c, 0, 55, 75
2, 15768, Note_on_c, 0, 55, 0
2, 15796, Note_on_c, 0, 59, 75
2, 15796, Note_on_c, 0, 53, 75
2, 15816, Note_on_c, 0, 59, 0
2, 15816, Note_on_c, 0, 53, 0
2, 16372, Note_on_c, 0, 75, 75
2, 16417, Note_on_c, 0, 75, 0
2, 16420, Note_on_c, 0, 74, 75
2, 16465, Note_on_c, 0, 74, 0
2, 16468, Note_on_c, 0, 77, 75
2, 16474, Note_on_c, 0, 77, 0
2, 16474, Note_on_c, 0, 75, 75
2, 16513, Note_on_c, 0, 75, 0
2, 16516, Note_on_c, 0, 74, 75
2, 16561, Note_on_c, 0, 74, 0
2, 16564, Note_on_c, 0, 77, 75
2, 16570, Note_on_c, 0, 77, 0
2, 16570, Note_on_c, 0, 75, 75
2, 16609, Note_on_c, 0, 75, 0
2, 16612, Note_on_c, 0, 74, 75
2, 16657, Note_on_c, 0, 74, 0
2, 16660, Note_on_c, 0, 77, 75
2, 16666, Note_on_c, 0, 77, 0
2, 16666, Note_on_c, 0, 75, 75
2, 16705, Note_on_c, 0, 75, 0
2, 16708, Note_on_c, 0, 74, 75
2, 16753, Note_on_c, 0, 74, 0
2, 16756, Note_on_c, 0, 81, 75
2, 16803, Note_on_c, 0, 81, 0
2, 16804, Note_on_c, 0, 81, 91
2, 16945, Note_on_c, 0, 81, 0
2, 16948, Note_on_c, 0, 79, 75
2, 16960, Note_on_c, 0, 79, 0
2, 16960, Note_on_c, 0, 78, 75
2, 16972, Note_on_c, 0, 78, 0
2, 16972, Note_on_c, 0, 76, 75
2, 16984, Note_on_c, 0, 76, 0
2, 16984, Note_on_c, 0, 74, 75
2, 16996, Note_on_c, 0, 74, 0
2, 16996, Note_on_c, 0, 74, 75
2, 17019, Note_on_c, 0, 74, 0
2, 17020, Note_on_c, 0, 82, 76
2, 17043, Note_on_c, 0, 82, 0
2, 17044, Note_on_c, 0, 81, 77
2, 17067, Note_on_c, 0, 81, 0
2, 17068, Note_on_c, 0, 84, 78
2, 17091, Note_on_c, 0, 84, 0
2, 17092, Note_on_c, 0, 82, 79
2, 17115, Note_on_c, 0, 82, 0
2, 17116, Note_on_c, 0, 86, 80
2, 17139, Note_on_c, 0, 86, 0
2, 17140, Note_on_c, 0, 84, 79
2, 17163, Note_on_c, 0, 84, 0
2, 17164, Note_on_c, 0, 82, 78
2, 17187, Note_on_c, 0, 82, 0
2, 17188, Note_on_c, 0, 81, 77
2, 17211, Note_on_c, 0, 81, 0
2, 17212, Note_on_c, 0, 79, 76
2, 17235, Note_on_c, 0, 79, 0
2, 17236, Note_on_c, 0, 78, 75
2, 17259, Note_on_c, 0, 78, 0
2, 17260, Note_on_c, 0, 81, 75
2, 17272, Note_on_c, 0, 81, 0
2, 17272, Note_on_c, 0, 79, 75
2, 17283, Note_on_c, 0, 79, 0
2, 17284, Note_on_c, 0, 77, 75
2, 17380, Note_on_c, 0, 77, 0
2, 17380, Note_on_c, 0, 76, 75
2, 17425, Note_on_c, 0, 76, 0
2, 17428, Note_on_c, 0, 73, 75
2, 17473, Note_on_c, 0, 73, 0
2, 17476, Note_on_c, 0, 72, 75
2, 17521, Note_on_c, 0, 72, 0
2, 17524, Note_on_c, 0, 75, 75
2, 17530, Note_on_c, 0, 75, 0
2, 17530, Note_on_c, 0, 73, 75
2, 17569, Note_on_c, 0, 73, 0
2, 17572, Note_on_c, 0, 72, 75
2, 17617, Note_on_c, 0, 72, 0
2, 17620, Note_on_c, 0, 73, 75
2, 17630, Note_on_c, 0, 73, 0
2, 17644, Note_on_c, 0, 73, 75
2, 17668, Note_on_c, 0, 73, 0
2, 17668, Note_on_c, 0, 72, 75
2, 17678, Note_on_c, 0, 72, 0
2, 17692, Note_on_c, 0, 72, 75
2, 17716, Note_on_c, 0, 72, 0
2, 17716, Note_on_c, 0, 73, 75
2, 17726, Note_on_c, 0, 73, 0
2, 17740, Note_on_c, 0, 73, 75
2, 17764, Note_on_c, 0, 73, 0
2, 17764, Note_on_c, 0, 72, 75
2, 17774, Note_on_c, 0, 72, 0
2, 17788, Note_on_c, 0, 72, 75
2, 17812, Note_on_c, 0, 72, 0
2, 17812, Note_on_c, 0, 73, 75
2, 17822, Note_on_c, 0, 73, 0
2, 17836, Note_on_c, 0, 73, 75
2, 17859, Note_on_c, 0, 73, 0
2, 17860, Note_on_c, 0, 72, 75
2, 17905, Note_on_c, 0, 72, 0
2, 17908, Note_on_c, 0, 79, 75
2, 17955, Note_on_c, 0, 79, 0
2, 17956, Note_on_c, 0, 79, 91
2, 18097, Note_on_c, 0, 79, 0
2, 18100, Note_on_c, 0, 77, 75
2, 18112, Note_on_c, 0, 77, 0
2, 18112, Note_on_c, 0, 76, 75
2, 18124, Note_on_c, 0, 76, 0
2, 18124, Note_on_c, 0, 74, 75
2, 18136, Note_on_c, 0, 74, 0
2, 18136, Note_on_c, 0, 72, 75
2, 18148, Note_on_c, 0, 72, 0
2, 18148, Note_on_c, 0, 72, 75
2, 18171, Note_on_c, 0, 72, 0
2, 18172, Note_on_c, 0, 84, 75
2, 18217, Note_on_c, 0, 84, 0
2, 18220, Note_on_c, 0, 82, 75
2, 18265, Note_on_c, 0, 82, 0
2, 18268, Note_on_c, 0, 81, 75
2, 18313, Note_on_c, 0, 81, 0
2, 18316, Note_on_c, 0, 79, 75
2, 18361, Note_on_c, 0, 79, 0
2, 18364, Note_on_c, 0, 77, 75
2, 18409, Note_on_c, 0, 77, 0
2, 18412, Note_on_c, 0, 84, 75
2, 18435, Note_on_c, 0, 84, 0
2, 18436, Note_on_c, 0, 82, 75
2, 18459, Note_on_c, 0, 82, 0
2, 18460, Note_on_c, 0, 86, 75
2, 18505, Note_on_c, 0, 86, 0
2, 18508, Note_on_c, 0, 84, 75
2, 18553, Note_on_c, 0, 84, 0
2, 18556, Note_on_c, 0, 82, 75
2, 18601, Note_on_c, 0, 82, 0
2, 18604, Note_on_c, 0, 81, 75
2, 18649, Note_on_c, 0, 81, 0
2, 18652, Note_on_c, 0, 79, 75
2, 18697, Note_on_c, 0, 79, 0
2, 18700, Note_on_c, 0, 77, 75
2, 18723, Note_on_c, 0, 77, 0
2, 18724, Note_on_c, 0, 76, 75
2, 18769, Note_on_c, 0, 76, 0
2, 18772, Note_on_c, 0, 79, 75
2, 18778, Note_on_c, 0, 79, 0
2, 18778, Note_on_c, 0, 77, 75
2, 18817, Note_on_c, 0, 77, 0
2, 18820, Note_on_c, 0, 76, 75
2, 18865, Note_on_c, 0, 76, 0
2, 18868, Note_on_c, 0, 79, 75
2, 18874, Note_on_c, 0, 79, 0
2, 18874, Note_on_c, 0, 77, 75
2, 18913, Note_on_c, 0, 77, 0
2, 18916, Note_on_c, 0, 76, 75
2, 18961, Note_on_c, 0, 76, 0
2, 18964, Note_on_c, 0, 79, 75
2, 18970, Note_on_c, 0, 79, 0
2, 18970, Note_on_c, 0, 77, 75
2, 19009, Note_on_c, 0, 77, 0
2, 19012, Note_on_c, 0, 76, 75
2, 19018, Note_on_c, 0, 76, 0
2, 19018, Note_on_c, 0, 79, 75
2, 19024, Note_on_c, 0, 79, 0
2, 19024, Note_on_c, 0, 82, 75
2, 19123, Note_on_c, 0, 82, 0
2, 19124, Note_on_c, 0, 81, 75
2, 19139, Note_on_c, 0, 81, 0
2, 19140, Note_on_c, 0, 79, 75
2, 19155, Note_on_c, 0, 79, 0
2, 19156, Note_on_c, 0, 77, 75
2, 19171, Note_on_c, 0, 77, 0
2, 19172, Note_on_c, 0, 76, 75
2, 19187, Note_on_c, 0, 76, 0
2, 19188, Note_on_c, 0, 74, 75
2, 19203, Note_on_c, 0, 74, 0
2, 19204, Note_on_c, 0, 72, 75
2, 19219, Note_on_c, 0, 72, 0
2, 19220, Note_on_c, 0, 70, 75
2, 19235, Note_on_c, 0, 70, 0
2, 19236, Note_on_c, 0, 69, 75
2, 19251, Note_on_c, 0, 69, 0
2, 19252, Note_on_c, 0, 67, 75
2, 19267, Note_on_c, 0, 67, 0
2, 19268, Note_on_c, 0, 65, 75
2, 19283, Note_on_c, 0, 65, 0
2, 19284, Note_on_c, 0, 64, 75
2, 19299, Note_on_c, 0, 64, 0
2, 19300, Note_on_c, 0, 60, 75
2, 19309, Note_on_c, 0, 65, 75
2, 19318, Note_on_c, 0, 69, 75
2, 19327, Note_on_c, 0, 72, 75
2, 19396, Note_on_c, 0, 65, 0
2, 19396, Note_on_c, 0, 60, 0
2, 19463, Note_on_c, 0, 72, 0
2, 19463, Note_on_c, 0, 69, 0
2, 19468, Note_on_c, 0, 70, 75
2, 19468, Note_on_c, 0, 67, 75
2, 19491, Note_on_c, 0, 70, 0
2, 19491, Note_on_c, 0, 67, 0
2, 19492, Note_on_c, 0, 69, 75
2, 19492, Note_on_c, 0, 65, 75
2, 19581, Note_on_c, 0, 69, 0
2, 19581, Note_on_c, 0, 65, 0
2, 19588, Note_on_c, 0, 67, 75
2, 19597, Note_on_c, 0, 67, 0
2, 19597, Note_on_c, 0, 69, 75
2, 19606, Note_on_c, 0, 69, 0
2, 19606, Note_on_c, 0, 67, 75
2, 19615, Note_on_c, 0, 67, 0
2, 19615, Note_on_c, 0, 69, 75
2, 19624, Note_on_c, 0, 69, 0
2, 19624, Note_on_c, 0, 67, 75
2, 19633, Note_on_c, 0, 67, 0
2, 19633, Note_on_c, 0, 69, 75
2, 19642, Note_on_c, 0, 69, 0
2, 19642, Note_on_c, 0, 67, 75
2, 19651, Note_on_c, 0, 67, 0
2, 19651, Note_on_c, 0, 69, 75
2, 19660, Note_on_c, 0, 69, 0
2, 19660, Note_on_c, 0, 67, 75
2, 19668, Note_on_c, 0, 67, 0
2, 19668, Note_on_c, 0, 65, 75
2, 19676, Note_on_c, 0, 65, 0
2, 19676, Note_on_c, 0, 67, 75
2, 19684, Note_on_c, 0, 67, 0
2, 19684, Note_on_c, 0, 65, 75
2, 19751, Note_on_c, 0, 65, 0
2, 19780, Note_on_c, 0, 65, 75
2, 19788, Note_on_c, 0, 65, 0
2, 19788, Note_on_c, 0, 67, 75
2, 19796, Note_on_c, 0, 67, 0
2, 19796, Note_on_c, 0, 69, 75
2, 19804, Note_on_c, 0, 69, 0
2, 19804, Note_on_c, 0, 67, 75
2, 19812, Note_on_c, 0, 67, 0
2, 19812, Note_on_c, 0, 65, 75
2, 19820, Note_on_c, 0, 65, 0
2, 19820, Note_on_c, 0, 67, 75
2, 19827, Note_on_c, 0, 67, 0
2, 19827, Note_on_c, 0, 69, 75
2, 19834, Note_on_c, 0, 69, 0
2, 19834, Note_on_c, 0, 70, 75
2, 19841, Note_on_c, 0, 70, 0
2, 19841, Note_on_c, 0, 72, 75
2, 19848, Note_on_c, 0, 72, 0
2, 19848, Note_on_c, 0, 74, 75
2, 19855, Note_on_c, 0, 74, 0
2, 19855, Note_on_c, 0, 76, 75
2, 19862, Note_on_c, 0, 76, 0
2, 19862, Note_on_c, 0, 77, 75
2, 19869, Note_on_c, 0, 77, 0
2, 19869, Note_on_c, 0, 79, 75
2, 19876, Note_on_c, 0, 79, 0
2, 19876, Note_on_c, 0, 81, 75
2, 19896, Note_on_c, 0, 81, 0
2, 19948, Note_on_c, 0, 79, 75
2, 19972, Note_on_c, 0, 79, 0
2, 19972, Note_on_c, 0, 77, 75
2, 19992, Note_on_c, 0, 77, 0
2, 20044, Note_on_c, 0, 76, 75
2, 20068, Note_on_c, 0, 76, 0
2, 20068, Note_on_c, 0, 74, 75
2, 20088, Note_on_c, 0, 74, 0
2, 20140, Note_on_c, 0, 72, 75
2, 20163, Note_on_c, 0, 72, 0
2, 20164, Note_on_c, 0, 72, 75
2, 20197, Note_on_c, 0, 72, 0
2, 20199, Note_on_c, 0, 70, 71
2, 20208, Note_on_c, 0, 70, 0
2, 20208, Note_on_c, 0, 72, 70
2, 20217, Note_on_c, 0, 72, 0
2, 20217, Note_on_c, 0, 70, 70
2, 20226, Note_on_c, 0, 70, 0
2, 20226, Note_on_c, 0, 72, 69
2, 20235, Note_on_c, 0, 72, 0
2, 20235, Note_on_c, 0, 70, 68
2, 20244, Note_on_c, 0, 70, 0
2, 20244, Note_on_c, 0, 69, 68
2, 20253, Note_on_c, 0, 69, 0
2, 20253, Note_on_c, 0, 70, 67
2, 20262, Note_on_c, 0, 70, 0
2, 20262, Note_on_c, 0, 69, 64
2, 20329, Note_on_c, 0, 69, 0
2, 20454, Note_on_c, 0, 67, 75
2, 20477, Note_on_c, 0, 67, 0
2, 20478, Note_on_c, 0, 69, 75
2, 20486, Note_on_c, 0, 69, 0
2, 20486, Note_on_c, 0, 67, 75
2, 20494, Note_on_c, 0, 67, 0
2, 20494, Note_on_c, 0, 65, 75
2, 20502, Note_on_c, 0, 65, 0
2, 20502, Note_on_c, 0, 67, 75
2, 20512, Note_on_c, 0, 67, 0
2, 20526, Note_on_c, 0, 69, 75
2, 20549, Note_on_c, 0, 69, 0
2, 20550, Note_on_c, 0, 70, 75
2, 20573, Note_on_c, 0, 70, 0
2, 20574, Note_on_c, 0, 72, 75
2, 20582, Note_on_c, 0, 72, 0
2, 20582, Note_on_c, 0, 70, 75
2, 20590, Note_on_c, 0, 70, 0
2, 20590, Note_on_c, 0, 69, 75
2, 20598, Note_on_c, 0, 69, 0
2, 20598, Note_on_c, 0, 70, 75
2, 20608, Note_on_c, 0, 70, 0
2, 20622, Note_on_c, 0, 72, 75
2, 20645, Note_on_c, 0, 72, 0
2, 20646, Note_on_c, 0, 73, 75
2, 20661, Note_on_c, 0, 73, 0
2, 20662, Note_on_c, 0, 76, 75
2, 20677, Note_on_c, 0, 76, 0
2, 20678, Note_on_c, 0, 74, 75
2, 20693, Note_on_c, 0, 74, 0
2, 20694, Note_on_c, 0, 62, 75
2, 20709, Note_on_c, 0, 62, 0
2, 20710, Note_on_c, 0, 70, 75
2, 20725, Note_on_c, 0, 70, 0
2, 20726, Note_on_c, 0, 67, 75
2, 20741, Note_on_c, 0, 67, 0
2, 20742, Note_on_c, 0, 65, 75
2, 20802, Note_on_c, 0, 65, 0
2, 20802, Note_on_c, 0, 64, 75
2, 20814, Note_on_c, 0, 64, 0
2, 20814, Note_on_c, 0, 67, 75
2, 20826, Note_on_c, 0, 67, 0
2, 20826, Note_on_c, 0, 64, 75
2, 20838, Note_on_c, 0, 64, 0
2, 20838, Note_on_c, 0, 65, 75
2, 20905, Note_on_c, 0, 65, 0
2, 21054, Note_on_c, 0, 63, 75
2, 21077, Note_on_c, 0, 63, 0
2, 21078, Note_on_c, 0, 62, 75
2, 21101, Note_on_c, 0, 62, 0
2, 21102, Note_on_c, 0, 63, 75
2, 21125, Note_on_c, 0, 63, 0
2, 21126, Note_on_c, 0, 60, 75
2, 21149, Note_on_c, 0, 60, 0
2, 21150, Note_on_c, 0, 63, 75
2, 21173, Note_on_c, 0, 63, 0
2, 21174, Note_on_c, 0, 58, 75
2, 21197, Note_on_c, 0, 58, 0
2, 21198, Note_on_c, 0, 63, 75
2, 21221, Note_on_c, 0, 63, 0
2, 21222, Note_on_c, 0, 57, 75
2, 21245, Note_on_c, 0, 57, 0
2, 21246, Note_on_c, 0, 67, 75
2, 21269, Note_on_c, 0, 67, 0
2, 21270, Note_on_c, 0, 65, 75
2, 21293, Note_on_c, 0, 65, 0
2, 21294, Note_on_c, 0, 63, 75
2, 21317, Note_on_c, 0, 63, 0
2, 21318, Note_on_c, 0, 63, 75
2, 21341, Note_on_c, 0, 63, 0
2, 21342, Note_on_c, 0, 62, 75
2, 21365, Note_on_c, 0, 62, 0
2, 21366, Note_on_c, 0, 61, 75
2, 21389, Note_on_c, 0, 61, 0
2, 21390, Note_on_c, 0, 62, 75
2, 21413, Note_on_c, 0, 62, 0
2, 21414, Note_on_c, 0, 62, 75
2, 21533, Note_on_c, 0, 62, 0
2, 21534, Note_on_c, 0, 69, 75
2, 21557, Note_on_c, 0, 69, 0
2, 21558, Note_on_c, 0, 67, 75
2, 21581, Note_on_c, 0, 67, 0
2, 21582, Note_on_c, 0, 65, 75
2, 21605, Note_on_c, 0, 65, 0
2, 21606, Note_on_c, 0, 65, 75
2, 21629, Note_on_c, 0, 65, 0
2, 21630, Note_on_c, 0, 64, 75
2, 21653, Note_on_c, 0, 64, 0
2, 21654, Note_on_c, 0, 63, 75
2, 21677, Note_on_c, 0, 63, 0
2, 21678, Note_on_c, 0, 64, 75
2, 21701, Note_on_c, 0, 64, 0
2, 21702, Note_on_c, 0, 64, 75
2, 21791, Note_on_c, 0, 64, 0
2, 21894, Note_on_c, 0, 60, 75
2, 21898, Note_on_c, 0, 64, 75
2, 21902, Note_on_c, 0, 67, 75
2, 22167, Note_on_c, 0, 67, 0
2, 22167, Note_on_c, 0, 64, 0
2, 22167, Note_on_c, 0, 60, 0
2, 22206, Note_on_c, 0, 60, 75
2, 22229, Note_on_c, 0, 60, 0
2, 22230, Note_on_c, 0, 59, 75
2, 22253, Note_on_c, 0, 59, 0
2, 22254, Note_on_c, 0, 60, 75
2, 22277, Note_on_c, 0, 60, 0
2, 22278, Note_on_c, 0, 65, 75
2, 22301, Note_on_c, 0, 65, 0
2, 22302, Note_on_c, 0, 60, 75
2, 22325, Note_on_c, 0, 60, 0
2, 22326, Note_on_c, 0, 69, 75
2, 22349, Note_on_c, 0, 69, 0
2, 22350, Note_on_c, 0, 65, 75
2, 22373, Note_on_c, 0, 65, 0
2, 22374, Note_on_c, 0, 72, 75
2, 22397, Note_on_c, 0, 72, 0
2, 22398, Note_on_c, 0, 69, 75
2, 22421, Note_on_c, 0, 69, 0
2, 22422, Note_on_c, 0, 67, 75
2, 22428, Note_on_c, 0, 67, 0
2, 22428, Note_on_c, 0, 69, 75
2, 22434, Note_on_c, 0, 69, 0
2, 22434, Note_on_c, 0, 67, 75
2, 22445, Note_on_c, 0, 67, 0
2, 22446, Note_on_c, 0, 65, 75
2, 22469, Note_on_c, 0, 65, 0
2, 22470, Note_on_c, 0, 60, 75
2, 22474, Note_on_c, 0, 64, 75
2, 22478, Note_on_c, 0, 67, 75
2, 22743, Note_on_c, 0, 67, 0
2, 22743, Note_on_c, 0, 64, 0
2, 22743, Note_on_c, 0, 60, 0
2, 22782, Note_on_c, 0, 60, 75
2, 22805, Note_on_c, 0, 60, 0
2, 22806, Note_on_c, 0, 59, 75
2, 22829, Note_on_c, 0, 59, 0
2, 22830, Note_on_c, 0, 60, 75
2, 22853, Note_on_c, 0, 60, 0
2, 22854, Note_on_c, 0, 65, 75
2, 22869, Note_on_c, 0, 65, 0
2, 22870, Note_on_c, 0, 60, 75
2, 22885, Note_on_c, 0, 60, 0
2, 22886, Note_on_c, 0, 60, 75
2, 22901, Note_on_c, 0, 60, 0
2, 22902, Note_on_c, 0, 69, 75
2, 22917, Note_on_c, 0, 69, 0
2, 22918, Note_on_c, 0, 65, 75
2, 22933, Note_on_c, 0, 65, 0
2, 22934, Note_on_c, 0, 65, 75
2, 22949, Note_on_c, 0, 65, 0
2, 22950, Note_on_c, 0, 72, 75
2, 23135, Note_on_c, 0, 72, 0
2, 23142, Note_on_c, 0, 70, 75
2, 23231, Note_on_c, 0, 70, 0
2, 23238, Note_on_c, 0, 70, 75
2, 23357, Note_on_c, 0, 70, 0
2, 23358, Note_on_c, 0, 69, 75
2, 23381, Note_on_c, 0, 69, 0
2, 23382, Note_on_c, 0, 68, 75
2, 23405, Note_on_c, 0, 68, 0
2, 23406, Note_on_c, 0, 69, 76
2, 23429, Note_on_c, 0, 69, 0
2, 23430, Note_on_c, 0, 74, 76
2, 23453, Note_on_c, 0, 74, 0
2, 23454, Note_on_c, 0, 72, 77
2, 23477, Note_on_c, 0, 72, 0
2, 23478, Note_on_c, 0, 71, 77
2, 23501, Note_on_c, 0, 71, 0
2, 23502, Note_on_c, 0, 72, 77
2, 23525, Note_on_c, 0, 72, 0
2, 23526, Note_on_c, 0, 79, 78
2, 23549, Note_on_c, 0, 79, 0
2, 23550, Note_on_c, 0, 77, 78
2, 23573, Note_on_c, 0, 77, 0
2, 23574, Note_on_c, 0, 76, 79
2, 23597, Note_on_c, 0, 76, 0
2, 23598, Note_on_c, 0, 75, 79
2, 23621, Note_on_c, 0, 75, 0
2, 23622, Note_on_c, 0, 74, 80
2, 23645, Note_on_c, 0, 74, 0
2, 23646, Note_on_c, 0, 73, 79
2, 23669, Note_on_c, 0, 73, 0
2, 23670, Note_on_c, 0, 72, 79
2, 23693, Note_on_c, 0, 72, 0
2, 23694, Note_on_c, 0, 70, 78
2, 23694, Note_on_c, 0, 67, 78
2, 23717, Note_on_c, 0, 70, 0
2, 23717, Note_on_c, 0, 67, 0
2, 23718, Note_on_c, 0, 69, 78
2, 23718, Note_on_c, 0, 65, 78
2, 23807, Note_on_c, 0, 69, 0
2, 23807, Note_on_c, 0, 65, 0
2, 23814, Note_on_c, 0, 72, 76
2, 23814, Note_on_c, 0, 69, 76
2, 23837, Note_on_c, 0, 72, 0
2, 23837, Note_on_c, 0, 69, 0
2, 23838, Note_on_c, 0, 70, 76
2, 23838, Note_on_c, 0, 67, 76
2, 23861, Note_on_c, 0, 70, 0
2, 23861, Note_on_c, 0, 67, 0
2, 23862, Note_on_c, 0, 69, 75
2, 23862, Note_on_c, 0, 65, 75
2, 23896, Note_on_c, 0, 69, 0
2, 23896, Note_on_c, 0, 65, 0
2, 23898, Note_on_c, 0, 67, 75
2, 23898, Note_on_c, 0, 64, 75
2, 23910, Note_on_c, 0, 67, 0
2, 23910, Note_on_c, 0, 64, 0
2, 23910, Note_on_c, 0, 67, 75
2, 23910, Note_on_c, 0, 64, 75
2, 23999, Note_on_c, 0, 67, 0
2, 23999, Note_on_c, 0, 64, 0
2, 24006, Note_on_c, 0, 59, 75
2, 24022, Note_on_c, 0, 62, 75
2, 24038, Note_on_c, 0, 65, 75
2, 24102, Note_on_c, 0, 62, 0
2, 24102, Note_on_c, 0, 59, 0
2, 24125, Note_on_c, 0, 65, 0
2, 24126, Note_on_c, 0, 65, 75
2, 24132, Note_on_c, 0, 65, 0
2, 24132, Note_on_c, 0, 64, 75
2, 24138, Note_on_c, 0, 64, 0
2, 24138, Note_on_c, 0, 65, 75
2, 24149, Note_on_c, 0, 65, 0
2, 24150, Note_on_c, 0, 67, 75
2, 24173, Note_on_c, 0, 67, 0
2, 24174, Note_on_c, 0, 68, 75
2, 24197, Note_on_c, 0, 68, 0
2, 24198, Note_on_c, 0, 68, 75
2, 24243, Note_on_c, 0, 68, 0
2, 24246, Note_on_c, 0, 59, 75
2, 24291, Note_on_c, 0, 59, 0
2, 24294, Note_on_c, 0, 67, 75
2, 24405, Note_on_c, 0, 67, 0
2, 24406, Note_on_c, 0, 65, 75
2, 24421, Note_on_c, 0, 65, 0
2, 24422, Note_on_c, 0, 64, 75
2, 24437, Note_on_c, 0, 64, 0
2, 24438, Note_on_c, 0, 62, 75
2, 24453, Note_on_c, 0, 62, 0
2, 24454, Note_on_c, 0, 60, 75
2, 24469, Note_on_c, 0, 60, 0
2, 24470, Note_on_c, 0, 58, 75
2, 24485, Note_on_c, 0, 58, 0
2, 24486, Note_on_c, 0, 57, 75
2, 24501, Note_on_c, 0, 57, 0
2, 24502, Note_on_c, 0, 60, 75
2, 24517, Note_on_c, 0, 60, 0
2, 24518, Note_on_c, 0, 65, 76
2, 24533, Note_on_c, 0, 65, 0
2, 24534, Note_on_c, 0, 69, 76
2, 24549, Note_on_c, 0, 69, 0
2, 24550, Note_on_c, 0, 72, 77
2, 24565, Note_on_c, 0, 72, 0
2, 24566, Note_on_c, 0, 77, 78
2, 24581, Note_on_c, 0, 77, 0
2, 24582, Note_on_c, 0, 81, 94
2, 24582, Note_on_c, 0, 69, 94
2, 24693, Note_on_c, 0, 81, 0
2, 24693, Note_on_c, 0, 69, 0
2, 24694, Note_on_c, 0, 79, 77
2, 24694, Note_on_c, 0, 67, 77
2, 24709, Note_on_c, 0, 79, 0
2, 24709, Note_on_c, 0, 67, 0
2, 24710, Note_on_c, 0, 77, 77
2, 24710, Note_on_c, 0, 65, 77
2, 24725, Note_on_c, 0, 77, 0
2, 24725, Note_on_c, 0, 65, 0
2, 24726, Note_on_c, 0, 76, 77
2, 24726, Note_on_c, 0, 64, 77
2, 24741, Note_on_c, 0, 76, 0
2, 24741, Note_on_c, 0, 64, 0
2, 24742, Note_on_c, 0, 74, 76
2, 24742, Note_on_c, 0, 62, 76
2, 24757, Note_on_c, 0, 74, 0
2, 24757, Note_on_c, 0, 62, 0
2, 24758, Note_on_c, 0, 72, 76
2, 24758, Note_on_c, 0, 60, 76
2, 24773, Note_on_c, 0, 72, 0
2, 24773, Note_on_c, 0, 60, 0
2, 24822, Note_on_c, 0, 74, 75
2, 24822, Note_on_c, 0, 70, 75
2, 24867, Note_on_c, 0, 74, 0
2, 24867, Note_on_c, 0, 70, 0
2, 24918, Note_on_c, 0, 72, 75
2, 24918, Note_on_c, 0, 69, 75
2, 24963, Note_on_c, 0, 72, 0
2, 24963, Note_on_c, 0, 69, 0
2, 25014, Note_on_c, 0, 64, 75
2, 25014, Note_on_c, 0, 58, 75
2, 25059, Note_on_c, 0, 64, 0
2, 25059, Note_on_c, 0, 58, 0
2, 25062, Note_on_c, 0, 84, 96
2, 25062, Note_on_c, 0, 72, 96
2, 25173, Note_on_c, 0, 84, 0
2, 25173, Note_on_c, 0, 72, 0
2, 25174, Note_on_c, 0, 81, 80
2, 25174, Note_on_c, 0, 69, 80
2, 25189, Note_on_c, 0, 81, 0
2, 25189, Note_on_c, 0, 69, 0
2, 25190, Note_on_c, 0, 79, 80
2, 25190, Note_on_c, 0, 67, 80
2, 25205, Note_on_c, 0, 79, 0
2, 25205, Note_on_c, 0, 67, 0
2, 25206, Note_on_c, 0, 77, 80
2, 25206, Note_on_c, 0, 65, 80
2, 25221, Note_on_c, 0, 77, 0
2, 25221, Note_on_c, 0, 65, 0
2, 25222, Note_on_c, 0, 76, 80
2, 25222, Note_on_c, 0, 64, 80
2, 25237, Note_on_c, 0, 76, 0
2, 25237, Note_on_c, 0, 64, 0
2, 25238, Note_on_c, 0, 74, 80
2, 25238, Note_on_c, 0, 62, 80
2, 25253, Note_on_c, 0, 74, 0
2, 25253, Note_on_c, 0, 62, 0
2, 25254, Note_on_c, 0, 72, 80
2, 25254, Note_on_c, 0, 60, 80
2, 25299, Note_on_c, 0, 72, 0
2, 25299, Note_on_c, 0, 60, 0
2, 25302, Note_on_c, 0, 73, 80
2, 25302, Note_on_c, 0, 61, 80
2, 25395, Note_on_c, 0, 73, 0
2, 25395, Note_on_c, 0, 61, 0
2, 25398, Note_on_c, 0, 74, 80
2, 25398, Note_on_c, 0, 62, 80
2, 25443, Note_on_c, 0, 74, 0
2, 25443, Note_on_c, 0, 62, 0
2, 25494, Note_on_c, 0, 86, 80
2, 25494, Note_on_c, 0, 82, 80
2, 25539, Note_on_c, 0, 86, 0
2, 25539, Note_on_c, 0, 82, 0
2, 25590, Note_on_c, 0, 64, 80
2, 25590, Note_on_c, 0, 58, 80
2, 25635, Note_on_c, 0, 64, 0
2, 25635, Note_on_c, 0, 58, 0
2, 25638, Note_on_c, 0, 65, 75
2, 25638, Note_on_c, 0, 57, 75
2, 25727, Note_on_c, 0, 65, 0
2, 25727, Note_on_c, 0, 57, 0
2, 25782, Note_on_c, 0, 62, 75
2, 25830, Note_on_c, 0, 62, 0
2, 25830, Note_on_c, 0, 60, 75
2, 25850, Note_on_c, 0, 60, 0
2, 25878, Note_on_c, 0, 70, 75
2, 25878, Note_on_c, 0, 64, 75
2, 25898, Note_on_c, 0, 70, 0
2, 25898, Note_on_c, 0, 64, 0
2, 25926, Note_on_c, 0, 70, 75
2, 25926, Note_on_c, 0, 64, 75
2, 26022, Note_on_c, 0, 70, 0
2, 26022, Note_on_c, 0, 64, 0
2, 26022, Note_on_c, 0, 69, 75
2, 26022, Note_on_c, 0, 65, 75
2, 26042, Note_on_c, 0, 69, 0
2, 26042, Note_on_c, 0, 65, 0
2, 26070, Note_on_c, 0, 62, 75
2, 26118, Note_on_c, 0, 62, 0
2, 26118, Note_on_c, 0, 60, 75
2, 26138, Note_on_c, 0, 60, 0
2, 26166, Note_on_c, 0, 64, 75
2, 26166, Note_on_c, 0, 58, 75
2, 26186, Note_on_c, 0, 64, 0
2, 26186, Note_on_c, 0, 58, 0
2, 26742, Note_on_c, 0, 75, 75
2, 26787, Note_on_c, 0, 75, 0
2, 26790, Note_on_c, 0, 74, 75
2, 26835, Note_on_c, 0, 74, 0
2, 26838, Note_on_c, 0, 77, 75
2, 26844, Note_on_c, 0, 77, 0
2, 26844, Note_on_c, 0, 75, 75
2, 26883, Note_on_c, 0, 75, 0
2, 26886, Note_on_c, 0, 74, 75
2, 26931, Note_on_c, 0, 74, 0
2, 26934, Note_on_c, 0, 77, 75
2, 26940, Note_on_c, 0, 77, 0
2, 26940, Note_on_c, 0, 75, 75
2, 26979, Note_on_c, 0, 75, 0
2, 26982, Note_on_c, 0, 74, 75
2, 27027, Note_on_c, 0, 74, 0
2, 27030, Note_on_c, 0, 77, 75
2, 27036, Note_on_c, 0, 77, 0
2, 27036, Note_on_c, 0, 75, 75
2, 27075, Note_on_c, 0, 75, 0
2, 27078, Note_on_c, 0, 74, 75
2, 27123, Note_on_c, 0, 74, 0
2, 27126, Note_on_c, 0, 81, 75
2, 27173, Note_on_c, 0, 81, 0
2, 27174, Note_on_c, 0, 81, 91
2, 27315, Note_on_c, 0, 81, 0
2, 27318, Note_on_c, 0, 79, 75
2, 27330, Note_on_c, 0, 79, 0
2, 27330, Note_on_c, 0, 78, 75
2, 27342, Note_on_c, 0, 78, 0
2, 27342, Note_on_c, 0, 76, 75
2, 27354, Note_on_c, 0, 76, 0
2, 27354, Note_on_c, 0, 74, 75
2, 27366, Note_on_c, 0, 74, 0
2, 27366, Note_on_c, 0, 74, 75
2, 27389, Note_on_c, 0, 74, 0
2, 27390, Note_on_c, 0, 82, 76
2, 27413, Note_on_c, 0, 82, 0
2, 27414, Note_on_c, 0, 81, 77
2, 27437, Note_on_c, 0, 81, 0
2, 27438, Note_on_c, 0, 84, 78
2, 27461, Note_on_c, 0, 84, 0
2, 27462, Note_on_c, 0, 82, 79
2, 27485, Note_on_c, 0, 82, 0
2, 27486, Note_on_c, 0, 86, 80
2, 27509, Note_on_c, 0, 86, 0
2, 27510, Note_on_c, 0, 84, 79
2, 27533, Note_on_c, 0, 84, 0
2, 27534, Note_on_c, 0, 82, 78
2, 27557, Note_on_c, 0, 82, 0
2, 27558, Note_on_c, 0, 81, 77
2, 27581, Note_on_c, 0, 81, 0
2, 27582, Note_on_c, 0, 79, 76
2, 27605, Note_on_c, 0, 79, 0
2, 27606, Note_on_c, 0, 78, 75
2, 27629, Note_on_c, 0, 78, 0
2, 27630, Note_on_c, 0, 81, 75
2, 27642, Note_on_c, 0, 81, 0
2, 27642, Note_on_c, 0, 79, 75
2, 27653, Note_on_c, 0, 79, 0
2, 27654, Note_on_c, 0, 77, 75
2, 27750, Note_on_c, 0, 77, 0
2, 27750, Note_on_c, 0, 76, 75
2, 27795, Note_on_c, 0, 76, 0
2, 27798, Note_on_c, 0, 73, 75
2, 27843, Note_on_c, 0, 73, 0
2, 27846, Note_on_c, 0, 72, 75
2, 27891, Note_on_c, 0, 72, 0
2, 27894, Note_on_c, 0, 75, 75
2, 27900, Note_on_c, 0, 75, 0
2, 27900, Note_on_c, 0, 73, 75
2, 27939, Note_on_c, 0, 73, 0
2, 27942, Note_on_c, 0, 72, 75
2, 27987, Note_on_c, 0, 72, 0
2, 27990, Note_on_c, 0, 73, 75
2, 28000, Note_on_c, 0, 73, 0
2, 28014, Note_on_c, 0, 73, 75
2, 28038, Note_on_c, 0, 73, 0
2, 28038, Note_on_c, 0, 72, 75
2, 28048, Note_on_c, 0, 72, 0
2, 28062, Note_on_c, 0, 72, 75
2, 28086, Note_on_c, 0, 72, 0
2, 28086, Note_on_c, 0, 73, 75
2, 28096, Note_on_c, 0, 73, 0
2, 28110, Note_on_c, 0, 73, 75
2, 28134, Note_on_c, 0, 73, 0
2, 28134, Note_on_c, 0, 72, 75
2, 28144, Note_on_c, 0, 72, 0
2, 28158, Note_on_c, 0, 72, 75
2, 28182, Note_on_c, 0, 72, 0
2, 28182, Note_on_c, 0, 73, 75
2, 28192, Note_on_c, 0, 73, 0
2, 28206, Note_on_c, 0, 73, 75
2, 28229, Note_on_c, 0, 73, 0
2, 28230, Note_on_c, 0, 72, 75
2, 28275, Note_on_c, 0, 72, 0
2, 28278, Note_on_c, 0, 79, 75
2, 28325, Note_on_c, 0, 79, 0
2, 28326, Note_on_c, 0, 79, 91
2, 28467, Note_on_c, 0, 79, 0
2, 28470, Note_on_c, 0, 77, 75
2, 28482, Note_on_c, 0, 77, 0
2, 28482, Note_on_c, 0, 76, 75
2, 28494, Note_on_c, 0, 76, 0
2, 28494, Note_on_c, 0, 74, 75
2, 28506, Note_on_c, 0, 74, 0
2, 28506, Note_on_c, 0, 72, 75
2, 28518, Note_on_c, 0, 72, 0
2, 28518, Note_on_c, 0, 72, 75
2, 28541, Note_on_c, 0, 72, 0
2, 28542, Note_on_c, 0, 84, 75
2, 28587, Note_on_c, 0, 84, 0
2, 28590, Note_on_c, 0, 82, 75
2, 28635, Note_on_c, 0, 82, 0
2, 28638, Note_on_c, 0, 81, 75
2, 28683, Note_on_c, 0, 81, 0
2, 28686, Note_on_c, 0, 79, 75
2, 28731, Note_on_c, 0, 79, 0
2, 28734, Note_on_c, 0, 77, 75
2, 28779, Note_on_c, 0, 77, 0
2, 28782, Note_on_c, 0, 84, 75
2, 28805, Note_on_c, 0, 84, 0
2, 28806, Note_on_c, 0, 82, 75
2, 28829, Note_on_c, 0, 82, 0
2, 28830, Note_on_c, 0, 86, 75
2, 28875, Note_on_c, 0, 86, 0
2, 28878, Note_on_c, 0, 84, 75
2, 28923, Note_on_c, 0, 84, 0
2, 28926, Note_on_c, 0, 82, 75
2, 28971, Note_on_c, 0, 82, 0
2, 28974, Note_on_c, 0, 81, 75
2, 29019, Note_on_c, 0, 81, 0
2, 29022, Note_on_c, 0, 79, 75
2, 29067, Note_on_c, 0, 79, 0
2, 29070, Note_on_c, 0, 77, 75
2, 29093, Note_on_c, 0, 77, 0
2, 29094, Note_on_c, 0, 76, 75
2, 29139, Note_on_c, 0, 76, 0
2, 29142, Note_on_c, 0, 79, 75
2, 29148, Note_on_c, 0, 79, 0
2, 29148, Note_on_c, 0, 77, 75
2, 29187, Note_on_c, 0, 77, 0
2, 29190, Note_on_c, 0, 76, 75
2, 29235, Note_on_c, 0, 76, 0
2, 29238, Note_on_c, 0, 79, 75
2, 29244, Note_on_c, 0, 79, 0
2, 29244, Note_on_c, 0, 77, 75
2, 29283, Note_on_c, 0, 77, 0
2, 29286, Note_on_c, 0, 76, 75
2, 29331, Note_on_c, 0, 76, 0
2, 29334, Note_on_c, 0, 79, 75
2, 29340, Note_on_c, 0, 79, 0
2, 29340, Note_on_c, 0, 77, 75
2, 29379, Note_on_c, 0, 77, 0
2, 29382, Note_on_c, 0, 76, 75
2, 29388, Note_on_c, 0, 76, 0
2, 29388, Note_on_c, 0, 79, 75
2, 29394, Note_on_c, 0, 79, 0
2, 29394, Note_on_c, 0, 82, 75
2, 29493, Note_on_c, 0, 82, 0
2, 29494, Note_on_c, 0, 81, 75
2, 29509, Note_on_c, 0, 81, 0
2, 29510, Note_on_c, 0, 79, 75
2, 29525, Note_on_c, 0, 79, 0
2, 29526, Note_on_c, 0, 77, 75
2, 29541, Note_on_c, 0, 77, 0
2, 29542, Note_on_c, 0, 76, 75
2, 29557, Note_on_c, 0, 76, 0
2, 29558, Note_on_c, 0, 74, 75
2, 29573, Note_on_c, 0, 74, 0
2, 29574, Note_on_c, 0, 72, 75
2, 29589, Note_on_c, 0, 72, 0
2, 29590, Note_on_c, 0, 70, 75
2, 29605, Note_on_c, 0, 70, 0
2, 29606, Note_on_c, 0, 69, 75
2, 29621, Note_on_c, 0, 69, 0
2, 29622, Note_on_c, 0, 67, 75
2, 29637, Note_on_c, 0, 67, 0
2, 29638, Note_on_c, 0, 65, 75
2, 29653, Note_on_c, 0, 65, 0
2, 29654, Note_on_c, 0, 64, 75
2, 29669, Note_on_c, 0, 64, 0
2, 29670, Note_on_c, 0, 60, 75
2, 29679, Note_on_c, 0, 65, 75
2, 29688, Note_on_c, 0, 69, 75
2, 29697, Note_on_c, 0, 72, 75
2, 29766, Note_on_c, 0, 65, 0
2, 29766, Note_on_c, 0, 60, 0
2, 29833, Note_on_c, 0, 72, 0
2, 29833, Note_on_c, 0, 69, 0
2, 29838, Note_on_c, 0, 70, 75
2, 29838, Note_on_c, 0, 67, 75
2, 29861, Note_on_c, 0, 70, 0
2, 29861, Note_on_c, 0, 67, 0
2, 29862, Note_on_c, 0, 69, 75
2, 29862, Note_on_c, 0, 65, 75
2, 29951, Note_on_c, 0, 69, 0
2, 29951, Note_on_c, 0, 65, 0
2, 29958, Note_on_c, 0, 67, 75
2, 29967, Note_on_c, 0, 67, 0
2, 29967, Note_on_c, 0, 69, 75
2, 29976, Note_on_c, 0, 69, 0
2, 29976, Note_on_c, 0, 67, 75
2, 29985, Note_on_c, 0, 67, 0
2, 29985, Note_on_c, 0, 69, 75
2, 29994, Note_on_c, 0, 69, 0
2, 29994, Note_on_c, 0, 67, 75
2, 30003, Note_on_c, 0, 67, 0
2, 30003, Note_on_c, 0, 69, 75
2, 30012, Note_on_c, 0, 69, 0
2, 30012, Note_on_c, 0, 67, 75
2, 30021, Note_on_c, 0, 67, 0
2, 30021, Note_on_c, 0, 69, 75
2, 30030, Note_on_c, 0, 69, 0
2, 30030, Note_on_c, 0, 67, 75
2, 30038, Note_on_c, 0, 67, 0
2, 30038, Note_on_c, 0, 65, 75
2, 30046, Note_on_c, 0, 65, 0
2, 30046, Note_on_c, 0, 67, 75
2, 30054, Note_on_c, 0, 67, 0
2, 30054, Note_on_c, 0, 65, 75
2, 30121, Note_on_c, 0, 65, 0
2, 30150, Note_on_c, 0, 65, 75
2, 30158, Note_on_c, 0, 65, 0
2, 30158, Note_on_c, 0, 67, 75
2, 30166, Note_on_c, 0, 67, 0
2, 30166, Note_on_c, 0, 69, 75
2, 30174, Note_on_c, 0, 69, 0
2, 30174, Note_on_c, 0, 67, 75
2, 30182, Note_on_c, 0, 67, 0
2, 30182, Note_on_c, 0, 65, 75
2, 30190, Note_on_c, 0, 65, 0
2, 30190, Note_on_c, 0, 67, 75
2, 30197, Note_on_c, 0, 67, 0
2, 30197, Note_on_c, 0, 69, 75
2, 30204, Note_on_c, 0, 69, 0
2, 30204, Note_on_c, 0, 70, 75
2, 30211, Note_on_c, 0, 70, 0
2, 30211, Note_on_c, 0, 72, 75
2, 30218, Note_on_c, 0, 72, 0
2, 30218, Note_on_c, 0, 74, 75
2, 30225, Note_on_c, 0, 74, 0
2, 30225, Note_on_c, 0, 76, 75
2, 30232, Note_on_c, 0, 76, 0
2, 30232, Note_on_c, 0, 77, 75
2, 30239, Note_on_c, 0, 77, 0
2, 30239, Note_on_c, 0, 79, 75
2, 30246, Note_on_c, 0, 79, 0
2, 30246, Note_on_c, 0, 81, 75
2, 30266, Note_on_c, 0, 81, 0
2, 30318, Note_on_c, 0, 79, 75
2, 30342, Note_on_c, 0, 79, 0
2, 30342, Note_on_c, 0, 77, 75
2, 30362, Note_on_c, 0, 77, 0
2, 30414, Note_on_c, 0, 76, 75
2, 30438, Note_on_c, 0, 76, 0
2, 30438, Note_on_c, 0, 74, 75
2, 30458, Note_on_c, 0, 74, 0
2, 30510, Note_on_c, 0, 72, 75
2, 30533, Note_on_c, 0, 72, 0
2, 30534, Note_on_c, 0, 72, 75
2, 30567, Note_on_c, 0, 72, 0
2, 30569, Note_on_c, 0, 70, 71
2, 30578, Note_on_c, 0, 70, 0
2, 30578, Note_on_c, 0, 72, 70
2, 30587, Note_on_c, 0, 72, 0
2, 30587, Note_on_c, 0, 70, 70
2, 30596, Note_on_c, 0, 70, 0
2, 30596, Note_on_c, 0, 72, 69
2, 30605, Note_on_c, 0, 72, 0
2, 30605, Note_on_c, 0, 70, 68
2, 30614, Note_on_c, 0, 70, 0
2, 30614, Note_on_c, 0, 69, 68
2, 30623, Note_on_c, 0, 69, 0
2, 30623, Note_on_c, 0, 70, 67
2, 30632, Note_on_c, 0, 70, 0
2, 30632, Note_on_c, 0, 69, 64
2, 30699, Note_on_c, 0, 69, 0
2, 30824, Note_on_c, 0, 67, 75
2, 30847, Note_on_c, 0, 67, 0
2, 30848, Note_on_c, 0, 69, 75
2, 30856, Note_on_c, 0, 69, 0
2, 30856, Note_on_c, 0, 67, 75
2, 30864, Note_on_c, 0, 67, 0
2, 30864, Note_on_c, 0, 65, 75
2, 30872, Note_on_c, 0, 65, 0
2, 30872, Note_on_c, 0, 67, 75
2, 30882, Note_on_c, 0, 67, 0
2, 30896, Note_on_c, 0, 69, 75
2, 30919, Note_on_c, 0, 69, 0
2, 30920, Note_on_c, 0, 70, 75
2, 30943, Note_on_c, 0, 70, 0
2, 30944, Note_on_c, 0, 72, 75
2, 30952, Note_on_c, 0, 72, 0
2, 30952, Note_on_c, 0, 70, 75
2, 30960, Note_on_c, 0, 70, 0
2, 30960, Note_on_c, 0, 69, 75
2, 30968, Note_on_c, 0, 69, 0
2, 30968, Note_on_c, 0, 70, 75
2, 30978, Note_on_c, 0, 70, 0
2, 30992, Note_on_c, 0, 72, 75
2, 31015, Note_on_c, 0, 72, 0
2, 31016, Note_on_c, 0, 73, 75
2, 31031, Note_on_c, 0, 73, 0
2, 31032, Note_on_c, 0, 76, 75
2, 31047, Note_on_c, 0, 76, 0
2, 31048, Note_on_c, 0, 74, 75
2, 31063, Note_on_c, 0, 74, 0
2, 31064, Note_on_c, 0, 62, 75
2, 31079, Note_on_c, 0, 62, 0
2, 31080, Note_on_c, 0, 70, 75
2, 31095, Note_on_c, 0, 70, 0
2, 31096, Note_on_c, 0, 67, 75
2, 31111, Note_on_c, 0, 67, 0
2, 31112, Note_on_c, 0, 65, 75
2, 31172, Note_on_c, 0, 65, 0
2, 31172, Note_on_c, 0, 64, 75
2, 31184, Note_on_c, 0, 64, 0
2, 31184, Note_on_c, 0, 67, 75
2, 31196, Note_on_c, 0, 67, 0
2, 31196, Note_on_c, 0, 64, 75
2, 31208, Note_on_c, 0, 64, 0
2, 31208, Note_on_c, 0, 65, 75
2, 31275, Note_on_c, 0, 65, 0
2, 31424, Note_on_c, 0, 63, 75
2, 31447, Note_on_c, 0, 63, 0
2, 31448, Note_on_c, 0, 62, 75
2, 31471, Note_on_c, 0, 62, 0
2, 31472, Note_on_c, 0, 63, 75
2, 31495, Note_on_c, 0, 63, 0
2, 31496, Note_on_c, 0, 60, 75
2, 31519, Note_on_c, 0, 60, 0
2, 31520, Note_on_c, 0, 63, 75
2, 31543, Note_on_c, 0, 63, 0
2, 31544, Note_on_c, 0, 58, 75
2, 31567, Note_on_c, 0, 58, 0
2, 31568, Note_on_c, 0, 63, 75
2, 31591, Note_on_c, 0, 63, 0
2, 31592, Note_on_c, 0, 57, 75
2, 31615, Note_on_c, 0, 57, 0
2, 31616, Note_on_c, 0, 67, 75
2, 31639, Note_on_c, 0, 67, 0
2, 31640, Note_on_c, 0, 65, 75
2, 31663, Note_on_c, 0, 65, 0
2, 31664, Note_on_c, 0, 63, 75
2, 31687, Note_on_c, 0, 63, 0
2, 31688, Note_on_c, 0, 63, 75
2, 31711, Note_on_c, 0, 63, 0
2, 31712, Note_on_c, 0, 62, 75
2, 31735, Note_on_c, 0, 62, 0
2, 31736, Note_on_c, 0, 61, 75
2, 31759, Note_on_c, 0, 61, 0
2, 31760, Note_on_c, 0, 62, 75
2, 31783, Note_on_c, 0, 62, 0
2, 31784, Note_on_c, 0, 62, 75
2, 31903, Note_on_c, 0, 62, 0
2, 31904, Note_on_c, 0, 69, 75
2, 31927, Note_on_c, 0, 69, 0
2, 31928, Note_on_c, 0, 67, 75
2, 31951, Note_on_c, 0, 67, 0
2, 31952, Note_on_c, 0, 65, 75
2, 31975, Note_on_c, 0, 65, 0
2, 31976, Note_on_c, 0, 65, 75
2, 31999, Note_on_c, 0, 65, 0
2, 32000, Note_on_c, 0, 64, 75
2, 32023, Note_on_c, 0, 64, 0
2, 32024, Note_on_c, 0, 63, 75
2, 32047, Note_on_c, 0, 63, 0
2, 32048, Note_on_c, 0, 64, 75
2, 32071, Note_on_c, 0, 64, 0
2, 32072, Note_on_c, 0, 64, 75
2, 32161, Note_on_c, 0, 64, 0
2, 32264, Note_on_c, 0, 60, 75
2, 32268, Note_on_c, 0, 64, 75
2, 32272, Note_on_c, 0, 67, 75
2, 32537, Note_on_c, 0, 67, 0
2, 32537, Note_on_c, 0, 64, 0
2, 32537, Note_on_c, 0, 60, 0
2, 32576, Note_on_c, 0, 60, 75
2, 32599, Note_on_c, 0, 60, 0
2, 32600, Note_on_c, 0, 59, 75
2, 32623, Note_on_c, 0, 59, 0
2, 32624, Note_on_c, 0, 60, 75
2, 32647, Note_on_c, 0, 60, 0
2, 32648, Note_on_c, 0, 65, 75
2, 32671, Note_on_c, 0, 65, 0
2, 32672, Note_on_c, 0, 60, 75
2, 32695, Note_on_c, 0, 60, 0
2, 32696, Note_on_c, 0, 69, 75
2, 32719, Note_on_c, 0, 69, 0
2, 32720, Note_on_c, 0, 65, 75
2, 32743, Note_on_c, 0, 65, 0
2, 32744, Note_on_c, 0, 72, 75
2, 32767, Note_on_c, 0, 72, 0
2, 32768, Note_on_c, 0, 69, 75
2, 32791, Note_on_c, 0, 69, 0
2, 32792, Note_on_c, 0, 67, 75
2, 32798, Note_on_c, 0, 67, 0
2, 32798, Note_on_c, 0, 69, 75
2, 32804, Note_on_c, 0, 69, 0
2, 32804, Note_on_c, 0, 67, 75
2, 32815, Note_on_c, 0, 67, 0
2, 32816, Note_on_c, 0, 65, 75
2, 32839, Note_on_c, 0, 65, 0
2, 32840, Note_on_c, 0, 60, 75
2, 32844, Note_on_c, 0, 64, 75
2, 32848, Note_on_c, 0, 67, 75
2, 33113, Note_on_c, 0, 67, 0
2, 33113, Note_on_c, 0, 64, 0
2, 33113, Note_on_c, 0, 60, 0
2, 33152, Note_on_c, 0, 60, 75
2, 33175, Note_on_c, 0, 60, 0
2, 33176, Note_on_c, 0, 59, 75
2, 33199, Note_on_c, 0, 59, 0
2, 33200, Note_on_c, 0, 60, 75
2, 33223, Note_on_c, 0, 60, 0
2, 33224, Note_on_c, 0, 65, 75
2, 33239, Note_on_c, 0, 65, 0
2, 33240, Note_on_c, 0, 60, 75
2, 33255, Note_on_c, 0, 60, 0
2, 33256, Note_on_c, 0, 60, 75
2, 33271, Note_on_c, 0, 60, 0
2, 33272, Note_on_c, 0, 69, 75
2, 33287, Note_on_c, 0, 69, 0
2, 33288, Note_on_c, 0, 65, 75
2, 33303, Note_on_c, 0, 65, 0
2, 33304, Note_on_c, 0, 65, 75
2, 33319, Note_on_c, 0, 65, 0
2, 33320, Note_on_c, 0, 72, 75
2, 33505, Note_on_c, 0, 72, 0
2, 33512, Note_on_c, 0, 70, 75
2, 33601, Note_on_c, 0, 70, 0
2, 33608, Note_on_c, 0, 70, 75
2, 33727, Note_on_c, 0, 70, 0
2, 33728, Note_on_c, 0, 69, 75
2, 33751, Note_on_c, 0, 69, 0
2, 33752, Note_on_c, 0, 68, 75
2, 33775, Note_on_c, 0, 68, 0
2, 33776, Note_on_c, 0, 69, 76
2, 33799, Note_on_c, 0, 69, 0
2, 33800, Note_on_c, 0, 74, 76
2, 33823, Note_on_c, 0, 74, 0
2, 33824, Note_on_c, 0, 72, 77
2, 33847, Note_on_c, 0, 72, 0
2, 33848, Note_on_c, 0, 71, 77
2, 33871, Note_on_c, 0, 71, 0
2, 33872, Note_on_c, 0, 72, 77
2, 33895, Note_on_c, 0, 72, 0
2, 33896, Note_on_c, 0, 79, 78
2, 33919, Note_on_c, 0, 79, 0
2, 33920, Note_on_c, 0, 77, 78
2, 33943, Note_on_c, 0, 77, 0
2, 33944, Note_on_c, 0, 76, 79
2, 33967, Note_on_c, 0, 76, 0
2, 33968, Note_on_c, 0, 75, 79
2, 33991, Note_on_c, 0, 75, 0
2, 33992, Note_on_c, 0, 74, 80
2, 34015, Note_on_c, 0, 74, 0
2, 34016, Note_on_c, 0, 73, 79
2, 34039, Note_on_c, 0, 73, 0
2, 34040, Note_on_c, 0, 72, 79
2, 34063, Note_on_c, 0, 72, 0
2, 34064, Note_on_c, 0, 70, 78
2, 34064, Note_on_c, 0, 67, 78
2, 34087, Note_on_c, 0, 70, 0
2, 34087, Note_on_c, 0, 67, 0
2, 34088, Note_on_c, 0, 69, 78
2, 34088, Note_on_c, 0, 65, 78
2, 34177, Note_on_c, 0, 69, 0
2, 34177, Note_on_c, 0, 65, 0
2, 34184, Note_on_c, 0, 72, 76
2, 34184, Note_on_c, 0, 69, 76
2, 34207, Note_on_c, 0, 72, 0
2, 34207, Note_on_c, 0, 69, 0
2, 34208, Note_on_c, 0, 70, 76
2, 34208, Note_on_c, 0, 67, 76
2, 34231, Note_on_c, 0, 70, 0
2, 34231, Note_on_c, 0, 67, 0
2, 34232, Note_on_c, 0, 69, 75
2, 34232, Note_on_c, 0, 65, 75
2, 34266, Note_on_c, 0, 69, 0
2, 34266, Note_on_c, 0, 65, 0
2, 34268, Note_on_c, 0, 67, 75
2, 34268, Note_on_c, 0, 64, 75
2, 34280, Note_on_c, 0, 67, 0
2, 34280, Note_on_c, 0, 64, 0
2, 34280, Note_on_c, 0, 67, 75
2, 34280, Note_on_c, 0, 64, 75
2, 34369, Note_on_c, 0, 67, 0
2, 34369, Note_on_c, 0, 64, 0
2, 34376, Note_on_c, 0, 59, 75
2, 34392, Note_on_c, 0, 62, 75
2, 34408, Note_on_c, 0, 65, 75
2, 34472, Note_on_c, 0, 62, 0
2, 34472, Note_on_c, 0, 59, 0
2, 34495, Note_on_c, 0, 65, 0
2, 34496, Note_on_c, 0, 65, 75
2, 34502, Note_on_c, 0, 65, 0
2, 34502, Note_on_c, 0, 64, 75
2, 34508, Note_on_c, 0, 64, 0
2, 34508, Note_on_c, 0, 65, 75
2, 34519, Note_on_c, 0, 65, 0
2, 34520, Note_on_c, 0, 67, 75
2, 34543, Note_on_c, 0, 67, 0
2, 34544, Note_on_c, 0, 68, 75
2, 34567, Note_on_c, 0, 68, 0
2, 34568, Note_on_c, 0, 68, 75
2, 34613, Note_on_c, 0, 68, 0
2, 34616, Note_on_c, 0, 59, 75
2, 34661, Note_on_c, 0, 59, 0
2, 34664, Note_on_c, 0, 67, 75
2, 34775, Note_on_c, 0, 67, 0
2, 34776, Note_on_c, 0, 65, 75
2, 34791, Note_on_c, 0, 65, 0
2, 34792, Note_on_c, 0, 64, 75
2, 34807, Note_on_c, 0, 64, 0
2, 34808, Note_on_c, 0, 62, 75
2, 34823, Note_on_c, 0, 62, 0
2, 34824, Note_on_c, 0, 60, 75
2, 34839, Note_on_c, 0, 60, 0
2, 34840, Note_on_c, 0, 58, 75
2, 34855, Note_on_c, 0, 58, 0
2, 34856, Note_on_c, 0, 57, 75
2, 34871, Note_on_c, 0, 57, 0
2, 34872, Note_on_c, 0, 60, 75
2, 34887, Note_on_c, 0, 60, 0
2, 34888, Note_on_c, 0, 65, 76
2, 34903, Note_on_c, 0, 65, 0
2, 34904, Note_on_c, 0, 69, 76
2, 34919, Note_on_c, 0, 69, 0
2, 34920, Note_on_c, 0, 72, 77
2, 34935, Note_on_c, 0, 72, 0
2, 34936, Note_on_c, 0, 77, 78
2, 34951, Note_on_c, 0, 77, 0
2, 34952, Note_on_c, 0, 81, 94
2, 34952, Note_on_c, 0, 69, 94
2, 35063, Note_on_c, 0, 81, 0
2, 35063, Note_on_c, 0, 69, 0
2, 35064, Note_on_c, 0, 79, 77
2, 35064, Note_on_c, 0, 67, 77
2, 35079, Note_on_c, 0, 79, 0
2, 35079, Note_on_c, 0, 67, 0
2, 35080, Note_on_c, 0, 77, 77
2, 35080, Note_on_c, 0, 65, 77
2, 35095, Note_on_c, 0, 77, 0
2, 35095, Note_on_c, 0, 65, 0
2, 35096, Note_on_c, 0, 76, 77
2, 35096, Note_on_c, 0, 64, 77
2, 35111, Note_on_c, 0, 76, 0
2, 35111, Note_on_c, 0, 64, 0
2, 35112, Note_on_c, 0, 74, 76
2, 35112, Note_on_c, 0, 62, 76
2, 35127, Note_on_c, 0, 74, 0
2, 35127, Note_on_c, 0, 62, 0
2, 35128, Note_on_c, 0, 72, 76
2, 35128, Note_on_c, 0, 60, 76
2, 35143, Note_on_c, 0, 72, 0
2, 35143, Note_on_c, 0, 60, 0
2, 35192, Note_on_c, 0, 74, 75
2, 35192, Note_on_c, 0, 70, 75
2, 35237, Note_on_c, 0, 74, 0
2, 35237, Note_on_c, 0, 70, 0
2, 35288, Note_on_c, 0, 72, 75
2, 35288, Note_on_c, 0, 69, 75
2, 35333, Note_on_c, 0, 72, 0
2, 35333, Note_on_c, 0, 69, 0
2, 35384, Note_on_c, 0, 64, 75
2, 35384, Note_on_c, 0, 58, 75
2, 35429, Note_on_c, 0, 64, 0
2, 35429, Note_on_c, 0, 58, 0
2, 35432, Note_on_c, 0, 84, 96
2, 35432, Note_on_c, 0, 72, 96
2, 35543, Note_on_c, 0, 84, 0
2, 35543, Note_on_c, 0, 72, 0
2, 35544, Note_on_c, 0, 81, 80
2, 35544, Note_on_c, 0, 69, 80
2, 35559, Note_on_c, 0, 81, 0
2, 35559, Note_on_c, 0, 69, 0
2, 35560, Note_on_c, 0, 79, 80
2, 35560, Note_on_c, 0, 67, 80
2, 35575, Note_on_c, 0, 79, 0
2, 35575, Note_on_c, 0, 67, 0
2, 35576, Note_on_c, 0, 77, 80
2, 35576, Note_on_c, 0, 65, 80
2, 35591, Note_on_c, 0, 77, 0
2, 35591, Note_on_c, 0, 65, 0
2, 35592, Note_on_c, 0, 76, 80
2, 35592, Note_on_c, 0, 64, 80
2, 35607, Note_on_c, 0, 76, 0
2, 35607, Note_on_c, 0, 64, 0
2, 35608, Note_on_c, 0, 74, 80
2, 35608, Note_on_c, 0, 62, 80
2, 35623, Note_on_c, 0, 74, 0
2, 35623, Note_on_c, 0, 62, 0
2, 35624, Note_on_c, 0, 72, 80
2, 35624, Note_on_c, 0, 60, 80
2, 35669, Note_on_c, 0, 72, 0
2, 35669, Note_on_c, 0, 60, 0
2, 35672, Note_on_c, 0, 73, 80
2, 35672, Note_on_c, 0, 61, 80
2, 35765, Note_on_c, 0, 73, 0
2, 35765, Note_on_c, 0, 61, 0
2, 35768, Note_on_c, 0, 74, 80
2, 35768, Note_on_c, 0, 62, 80
2, 35813, Note_on_c, 0, 74, 0
2, 35813, Note_on_c, 0, 62, 0
2, 35864, Note_on_c, 0, 86, 80
2, 35864, Note_on_c, 0, 82, 80
2, 35909, Note_on_c, 0, 86, 0
2, 35909, Note_on_c, 0, 82, 0
2, 35960, Note_on_c, 0, 64, 80
2, 35960, Note_on_c, 0, 58, 80
2, 36005, Note_on_c, 0, 64, 0
2, 36005, Note_on_c, 0, 58, 0
2, 36008, Note_on_c, 0, 65, 75
2, 36008, Note_on_c, 0, 57, 75
2, 36097, Note_on_c, 0, 65, 0
2, 36097, Note_on_c, 0, 57, 0
2, 36152, Note_on_c, 0, 62, 75
2, 36200, Note_on_c, 0, 62, 0
2, 36200, Note_on_c, 0, 60, 75
2, 36220, Note_on_c, 0, 60, 0
2, 36248, Note_on_c, 0, 70, 75
2, 36248, Note_on_c, 0, 64, 75
2, 36268, Note_on_c, 0, 70, 0
2, 36268, Note_on_c, 0, 64, 0
2, 36296, Note_on_c, 0, 70, 75
2, 36296, Note_on_c, 0, 64, 75
2, 36392, Note_on_c, 0, 70, 0
2, 36392, Note_on_c, 0, 64, 0
2, 36392, Note_on_c, 0, 69, 75
2, 36392, Note_on_c, 0, 65, 75
2, 36412, Note_on_c, 0, 69, 0
2, 36412, Note_on_c, 0, 65, 0
2, 36440, Note_on_c, 0, 62, 75
2, 36488, Note_on_c, 0, 62, 0
2, 36488, Note_on_c, 0, 60, 75
2, 36508, Note_on_c, 0, 60, 0
2, 36536, Note_on_c, 0, 64, 75
2, 36536, Note_on_c, 0, 58, 75
2, 36556, Note_on_c, 0, 64, 0
2, 36556, Note_on_c, 0, 58, 0
2, 36872, End_track
3, 0, Start_track
3, 0, Program_c, 0, 0
3, 0, Control_c, 0, 7, 127
3, 0, Control_c, 0, 10, 64
3, 4512, Note_on_c, 0, 79, 64
3, 4697, Note_on_c, 0, 79, 0
3, 4704, Note_on_c, 0, 77, 64
3, 4793, Note_on_c, 0, 77, 0
3, 4800, Note_on_c, 0, 79, 64
3, 4985, Note_on_c, 0, 79, 0
3, 12576, Note_on_c, 0, 79, 64
3, 12761, Note_on_c, 0, 79, 0
3, 12768, Note_on_c, 0, 77, 64
3, 12857, Note_on_c, 0, 77, 0
3, 12864, Note_on_c, 0, 79, 64
3, 13049, Note_on_c, 0, 79, 0
3, 22944, Note_on_c, 0, 72, 64
3, 22967, Note_on_c, 0, 72, 0
3, 22968, Note_on_c, 0, 69, 64
3, 22991, Note_on_c, 0, 69, 0
3, 22992, Note_on_c, 0, 67, 64
3, 22998, Note_on_c, 0, 67, 0
3, 22998, Note_on_c, 0, 69, 64
3, 23004, Note_on_c, 0, 69, 0
3, 23004, Note_on_c, 0, 67, 64
3, 23015, Note_on_c, 0, 67, 0
3, 23016, Note_on_c, 0, 65, 64
3, 23039, Note_on_c, 0, 65, 0
3, 23040, Note_on_c, 0, 74, 64
3, 23217, Note_on_c, 0, 74, 0
3, 23232, Note_on_c, 0, 72, 64
3, 23321, Note_on_c, 0, 72, 0
3, 33312, Note_on_c, 0, 72, 64
3, 33335, Note_on_c, 0, 72, 0
3, 33336, Note_on_c, 0, 69, 64
3, 33359, Note_on_c, 0, 69, 0
3, 33360, Note_on_c, 0, 67, 64
3, 33366, Note_on_c, 0, 67, 0
3, 33366, Note_on_c, 0, 69, 64
3, 33372, Note_on_c, 0, 69, 0
3, 33372, Note_on_c, 0, 67, 64
3, 33383, Note_on_c, 0, 67, 0
3, 33384, Note_on_c, 0, 65, 64
3, 33407, Note_on_c, 0, 65, 0
3, 33408, Note_on_c, 0, 74, 64
3, 33585, Note_on_c, 0, 74, 0
3, 33600, Note_on_c, 0, 72, 64
3, 33689, Note_on_c, 0, 72, 0
3, 36864, End_track
4, 0, Start_track
4, 0, Program_c, 1, 0
4, 0, Control_c, 1, 7, 127
4, 0, Control_c, 1, 10, 64
4, 0, Note_on_c, 1, 41, 64
4, 6, Note_on_c, 1, 45, 64
4, 12, Note_on_c, 1, 48, 64
4, 18, Note_on_c, 1, 53, 64
4, 185, Note_on_c, 1, 53, 0
4, 185, Note_on_c, 1, 48, 0
4, 185, Note_on_c, 1, 45, 0
4, 185, Note_on_c, 1, 41, 0
4, 288, Note_on_c, 1, 62, 64
4, 288, Note_on_c, 1, 58, 64
4, 384, Note_on_c, 1, 62, 0
4, 384, Note_on_c, 1, 58, 0
4, 384, Note_on_c, 1, 60, 64
4, 384, Note_on_c, 1, 57, 64
4, 451, Note_on_c, 1, 60, 0
4, 451, Note_on_c, 1, 57, 0
4, 864, Note_on_c, 1, 64, 75
4, 864, Note_on_c, 1, 60, 75
4, 960, Note_on_c, 1, 64, 0
4, 960, Note_on_c, 1, 60, 0
4, 960, Note_on_c, 1, 65, 64
4, 960, Note_on_c, 1, 62, 64
4, 1027, Note_on_c, 1, 65, 0
4, 1027, Note_on_c, 1, 62, 0
4, 1152, Note_on_c, 1, 62, 75
4, 1152, Note_on_c, 1, 58, 75
4, 1329, Note_on_c, 1, 62, 0
4, 1329, Note_on_c, 1, 58, 0
4, 1440, Note_on_c, 1, 58, 75
4, 1440, Note_on_c, 1, 48, 75
4, 1536, Note_on_c, 1, 58, 0
4, 1536, Note_on_c, 1, 48, 0
4, 1536, Note_on_c, 1, 57, 75
4, 1536, Note_on_c, 1, 53, 75
4, 1603, Note_on_c, 1, 57, 0
4, 1603, Note_on_c, 1, 53, 0
4, 1824, Note_on_c, 1, 57, 75
4, 1824, Note_on_c, 1, 53, 75
4, 1918, Note_on_c, 1, 57, 0
4, 1918, Note_on_c, 1, 53, 0
4, 1920, Note_on_c, 1, 69, 75
4, 1920, Note_on_c, 1, 65, 75
4, 2014, Note_on_c, 1, 69, 0
4, 2014, Note_on_c, 1, 65, 0
4, 2016, Note_on_c, 1, 67, 75
4, 2016, Note_on_c, 1, 64, 75
4, 2281, Note_on_c, 1, 67, 0
4, 2281, Note_on_c, 1, 64, 0
4, 2304, Note_on_c, 1, 65, 75
4, 2481, Note_on_c, 1, 65, 0
4, 2688, Note_on_c, 1, 65, 75
4, 2688, Note_on_c, 1, 62, 75
4, 2777, Note_on_c, 1, 65, 0
4, 2777, Note_on_c, 1, 62, 0
4, 2784, Note_on_c, 1, 64, 75
4, 2969, Note_on_c, 1, 64, 0
4, 2976, Note_on_c, 1, 59, 75
4, 3065, Note_on_c, 1, 59, 0
4, 3072, Note_on_c, 1, 60, 75
4, 3257, Note_on_c, 1, 60, 0
4, 3264, Note_on_c, 1, 59, 75
4, 3331, Note_on_c, 1, 59, 0
4, 3480, Note_on_c, 1, 65, 75
4, 3503, Note_on_c, 1, 65, 0
4, 3504, Note_on_c, 1, 64, 75
4, 3527, Note_on_c, 1, 64, 0
4, 3528, Note_on_c, 1, 65, 75
4, 3551, Note_on_c, 1, 65, 0
4, 3552, Note_on_c, 1, 62, 75
4, 3575, Note_on_c, 1, 62, 0
4, 3576, Note_on_c, 1, 65, 75
4, 3599, Note_on_c, 1, 65, 0
4, 3600, Note_on_c, 1, 59, 75
4, 3623, Note_on_c, 1, 59, 0
4, 3624, Note_on_c, 1, 65, 75
4, 3647, Note_on_c, 1, 65, 0
4, 3648, Note_on_c, 1, 55, 75
4, 3671, Note_on_c, 1, 55, 0
4, 3672, Note_on_c, 1, 65, 75
4, 3695, Note_on_c, 1, 65, 0
4, 3696, Note_on_c, 1, 59, 75
4, 3719, Note_on_c, 1, 59, 0
4, 3720, Note_on_c, 1, 65, 75
4, 3833, Note_on_c, 1, 65, 0
4, 3840, Note_on_c, 1, 64, 75
4, 4017, Note_on_c, 1, 64, 0
4, 4056, Note_on_c, 1, 65, 75
4, 4079, Note_on_c, 1, 65, 0
4, 4080, Note_on_c, 1, 64, 75
4, 4103, Note_on_c, 1, 64, 0
4, 4104, Note_on_c, 1, 65, 75
4, 4127, Note_on_c, 1, 65, 0
4, 4128, Note_on_c, 1, 62, 75
4, 4151, Note_on_c, 1, 62, 0
4, 4152, Note_on_c, 1, 65, 75
4, 4175, Note_on_c, 1, 65, 0
4, 4176, Note_on_c, 1, 59, 75
4, 4199, Note_on_c, 1, 59, 0
4, 4200, Note_on_c, 1, 65, 75
4, 4223, Note_on_c, 1, 65, 0
4, 4224, Note_on_c, 1, 55, 75
4, 4247, Note_on_c, 1, 55, 0
4, 4248, Note_on_c, 1, 65, 75
4, 4271, Note_on_c, 1, 65, 0
4, 4272, Note_on_c, 1, 59, 75
4, 4295, Note_on_c, 1, 59, 0
4, 4296, Note_on_c, 1, 65, 75
4, 4409, Note_on_c, 1, 65, 0
4, 4416, Note_on_c, 1, 64, 75
4, 4505, Note_on_c, 1, 64, 0
4, 4512, Note_on_c, 1, 64, 75
4, 4601, Note_on_c, 1, 64, 0
4, 4608, Note_on_c, 1, 65, 75
4, 4618, Note_on_c, 1, 65, 0
4, 4632, Note_on_c, 1, 65, 75
4, 4655, Note_on_c, 1, 65, 0
4, 4656, Note_on_c, 1, 64, 75
4, 4679, Note_on_c, 1, 64, 0
4, 4680, Note_on_c, 1, 65, 75
4, 4703, Note_on_c, 1, 65, 0
4, 4704, Note_on_c, 1, 74, 75
4, 4714, Note_on_c, 1, 74, 0
4, 4728, Note_on_c, 1, 74, 75
4, 4751, Note_on_c, 1, 74, 0
4, 4752, Note_on_c, 1, 73, 75
4, 4775, Note_on_c, 1, 73, 0
4, 4776, Note_on_c, 1, 74, 75
4, 4799, Note_on_c, 1, 74, 0
4, 4800, Note_on_c, 1, 71, 75
4, 4810, Note_on_c, 1, 71, 0
4, 4824, Note_on_c, 1, 71, 75
4, 4847, Note_on_c, 1, 71, 0
4, 4848, Note_on_c, 1, 69, 75
4, 4871, Note_on_c, 1, 69, 0
4, 4872, Note_on_c, 1, 71, 75
4, 4895, Note_on_c, 1, 71, 0
4, 4896, Note_on_c, 1, 72, 75
4, 5073, Note_on_c, 1, 72, 0
4, 5160, Note_on_c, 1, 60, 75
4, 5160, Note_on_c, 1, 52, 75
4, 5184, Note_on_c, 1, 52, 0
4, 5184, Note_on_c, 1, 53, 75
4, 5273, Note_on_c, 1, 60, 0
4, 5273, Note_on_c, 1, 53, 0
4, 5280, Note_on_c, 1, 55, 75
4, 5369, Note_on_c, 1, 55, 0
4, 5376, Note_on_c, 1, 43, 75
4, 5465, Note_on_c, 1, 43, 0
4, 5568, Note_on_c, 1, 57, 75
4, 5580, Note_on_c, 1, 60, 75
4, 5592, Note_on_c, 1, 63, 75
4, 5604, Note_on_c, 1, 66, 75
4, 5753, Note_on_c, 1, 66, 0
4, 5753, Note_on_c, 1, 63, 0
4, 5753, Note_on_c, 1, 60, 0
4, 5753, Note_on_c, 1, 57, 0
4, 5952, Note_on_c, 1, 62, 75
4, 5952, Note_on_c, 1, 59, 75
4, 6041, Note_on_c, 1, 62, 0
4, 6041, Note_on_c, 1, 59, 0
4, 6048, Note_on_c, 1, 60, 75
4, 6137, Note_on_c, 1, 60, 0
4, 6240, Note_on_c, 1, 55, 75
4, 6240, Note_on_c, 1, 52, 75
4, 6329, Note_on_c, 1, 55, 0
4, 6329, Note_on_c, 1, 52, 0
4, 6336, Note_on_c, 1, 57, 75
4, 6336, Note_on_c, 1, 53, 75
4, 6425, Note_on_c, 1, 57, 0
4, 6425, Note_on_c, 1, 53, 0
4, 6432, Note_on_c, 1, 55, 75
4, 6521, Note_on_c, 1, 55, 0
4, 6528, Note_on_c, 1, 43, 75
4, 6617, Note_on_c, 1, 43, 0
4, 6720, Note_on_c, 1, 36, 75
4, 6726, Note_on_c, 1, 40, 75
4, 6732, Note_on_c, 1, 43, 75
4, 6738, Note_on_c, 1, 48, 75
4, 6813, Note_on_c, 1, 48, 0
4, 6813, Note_on_c, 1, 43, 0
4, 6813, Note_on_c, 1, 40, 0
4, 6813, Note_on_c, 1, 36, 0
4, 7008, Note_on_c, 1, 55, 75
4, 7053, Note_on_c, 1, 55, 0
4, 7104, Note_on_c, 1, 43, 75
4, 7149, Note_on_c, 1, 43, 0
4, 7200, Note_on_c, 1, 36, 75
4, 7223, Note_on_c, 1, 36, 0
4, 7224, Note_on_c, 1, 48, 75
4, 7247, Note_on_c, 1, 48, 0
4, 7248, Note_on_c, 1, 47, 75
4, 7271, Note_on_c, 1, 47, 0
4, 7272, Note_on_c, 1, 48, 75
4, 7295, Note_on_c, 1, 48, 0
4, 7296, Note_on_c, 1, 36, 75
4, 7319, Note_on_c, 1, 36, 0
4, 7320, Note_on_c, 1, 48, 75
4, 7343, Note_on_c, 1, 48, 0
4, 7344, Note_on_c, 1, 41, 75
4, 7367, Note_on_c, 1, 41, 0
4, 7368, Note_on_c, 1, 48, 75
4, 7391, Note_on_c, 1, 48, 0
4, 7392, Note_on_c, 1, 40, 75
4, 7415, Note_on_c, 1, 40, 0
4, 7416, Note_on_c, 1, 48, 75
4, 7439, Note_on_c, 1, 48, 0
4, 7440, Note_on_c, 1, 38, 75
4, 7463, Note_on_c, 1, 38, 0
4, 7464, Note_on_c, 1, 48, 75
4, 7487, Note_on_c, 1, 48, 0
4, 7488, Note_on_c, 1, 36, 75
4, 7511, Note_on_c, 1, 36, 0
4, 7512, Note_on_c, 1, 48, 75
4, 7535, Note_on_c, 1, 48, 0
4, 7536, Note_on_c, 1, 47, 75
4, 7559, Note_on_c, 1, 47, 0
4, 7560, Note_on_c, 1, 48, 75
4, 7583, Note_on_c, 1, 48, 0
4, 7584, Note_on_c, 1, 36, 75
4, 7607, Note_on_c, 1, 36, 0
4, 7608, Note_on_c, 1, 48, 75
4, 7631, Note_on_c, 1, 48, 0
4, 7632, Note_on_c, 1, 41, 75
4, 7655, Note_on_c, 1, 41, 0
4, 7656, Note_on_c, 1, 48, 75
4, 7679, Note_on_c, 1, 48, 0
4, 7680, Note_on_c, 1, 40, 75
4, 7703, Note_on_c, 1, 40, 0
4, 7704, Note_on_c, 1, 48, 75
4, 7727, Note_on_c, 1, 48, 0
4, 7728, Note_on_c, 1, 38, 75
4, 7751, Note_on_c, 1, 38, 0
4, 7752, Note_on_c, 1, 48, 75
4, 7775, Note_on_c, 1, 48, 0
4, 7776, Note_on_c, 1, 59, 75
4, 7776, Note_on_c, 1, 53, 75
4, 7776, Note_on_c, 1, 36, 75
4, 7872, Note_on_c, 1, 59, 0
4, 7872, Note_on_c, 1, 53, 0
4, 7872, Note_on_c, 1, 40, 75
4, 7878, Note_on_c, 1, 43, 75
4, 7884, Note_on_c, 1, 48, 75
4, 7890, Note_on_c, 1, 52, 75
4, 7896, Note_on_c, 1, 55, 75
4, 7902, Note_on_c, 1, 60, 75
4, 7961, Note_on_c, 1, 60, 0
4, 7961, Note_on_c, 1, 55, 0
4, 7961, Note_on_c, 1, 52, 0
4, 7961, Note_on_c, 1, 48, 0
4, 7961, Note_on_c, 1, 43, 0
4, 7961, Note_on_c, 1, 40, 0
4, 7961, Note_on_c, 1, 36, 0
4, 8064, Note_on_c, 1, 41, 64
4, 8070, Note_on_c, 1, 45, 64
4, 8076, Note_on_c, 1, 48, 64
4, 8082, Note_on_c, 1, 53, 64
4, 8249, Note_on_c, 1, 53, 0
4, 8249, Note_on_c, 1, 48, 0
4, 8249, Note_on_c, 1, 45, 0
4, 8249, Note_on_c, 1, 41, 0
4, 8352, Note_on_c, 1, 62, 64
4, 8352, Note_on_c, 1, 58, 64
4, 8448, Note_on_c, 1, 62, 0
4, 8448, Note_on_c, 1, 58, 0
4, 8448, Note_on_c, 1, 60, 64
4, 8448, Note_on_c, 1, 57, 64
4, 8515, Note_on_c, 1, 60, 0
4, 8515, Note_on_c, 1, 57, 0
4, 8928, Note_on_c, 1, 64, 75
4, 8928, Note_on_c, 1, 60, 75
4, 9024, Note_on_c, 1, 64, 0
4, 9024, Note_on_c, 1, 60, 0
4, 9024, Note_on_c, 1, 65, 64
4, 9024, Note_on_c, 1, 62, 64
4, 9091, Note_on_c, 1, 65, 0
4, 9091, Note_on_c, 1, 62, 0
4, 9216, Note_on_c, 1, 62, 75
4, 9216, Note_on_c, 1, 58, 75
4, 9393, Note_on_c, 1, 62, 0
4, 9393, Note_on_c, 1, 58, 0
4, 9504, Note_on_c, 1, 58, 75
4, 9504, Note_on_c, 1, 48, 75
4, 9600, Note_on_c, 1, 58, 0
4, 9600, Note_on_c, 1, 48, 0
4, 9600, Note_on_c, 1, 57, 75
4, 9600, Note_on_c, 1, 53, 75
4, 9667, Note_on_c, 1, 57, 0
4, 9667, Note_on_c, 1, 53, 0
4, 9888, Note_on_c, 1, 57, 75
4, 9888, Note_on_c, 1, 53, 75
4, 9982, Note_on_c, 1, 57, 0
4, 9982, Note_on_c, 1, 53, 0
4, 9984, Note_on_c, 1, 69, 75
4, 9984, Note_on_c, 1, 65, 75
4, 10078, Note_on_c, 1, 69, 0
4, 10078, Note_on_c, 1, 65, 0
4, 10080, Note_on_c, 1, 67, 75
4, 10080, Note_on_c, 1, 64, 75
4, 10345, Note_on_c, 1, 67, 0
4, 10345, Note_on_c, 1, 64, 0
4, 10368, Note_on_c, 1, 65, 75
4, 10545, Note_on_c, 1, 65, 0
4, 10752, Note_on_c, 1, 65, 75
4, 10752, Note_on_c, 1, 62, 75
4, 10841, Note_on_c, 1, 65, 0
4, 10841, Note_on_c, 1, 62, 0
4, 10848, Note_on_c, 1, 64, 75
4, 11033, Note_on_c, 1, 64, 0
4, 11040, Note_on_c, 1, 59, 75
4, 11129, Note_on_c, 1, 59, 0
4, 11136, Note_on_c, 1, 60, 75
4, 11321, Note_on_c, 1, 60, 0
4, 11328, Note_on_c, 1, 59, 75
4, 11395, Note_on_c, 1, 59, 0
4, 11544, Note_on_c, 1, 65, 75
4, 11567, Note_on_c, 1, 65, 0
4, 11568, Note_on_c, 1, 64, 75
4, 11591, Note_on_c, 1, 64, 0
4, 11592, Note_on_c, 1, 65, 75
4, 11615, Note_on_c, 1, 65, 0
4, 11616, Note_on_c, 1, 62, 75
4, 11639, Note_on_c, 1, 62, 0
4, 11640, Note_on_c, 1, 65, 75
4, 11663, Note_on_c, 1, 65, 0
4, 11664, Note_on_c, 1, 59, 75
4, 11687, Note_on_c, 1, 59, 0
4, 11688, Note_on_c, 1, 65, 75
4, 11711, Note_on_c, 1, 65, 0
4, 11712, Note_on_c, 1, 55, 75
4, 11735, Note_on_c, 1, 55, 0
4, 11736, Note_on_c, 1, 65, 75
4, 11759, Note_on_c, 1, 65, 0
4, 11760, Note_on_c, 1, 59, 75
4, 11783, Note_on_c, 1, 59, 0
4, 11784, Note_on_c, 1, 65, 75
4, 11897, Note_on_c, 1, 65, 0
4, 11904, Note_on_c, 1, 64, 75
4, 12081, Note_on_c, 1, 64, 0
4, 12120, Note_on_c, 1, 65, 75
4, 12143, Note_on_c, 1, 65, 0
4, 12144, Note_on_c, 1, 64, 75
4, 12167, Note_on_c, 1, 64, 0
4, 12168, Note_on_c, 1, 65, 75
4, 12191, Note_on_c, 1, 65, 0
4, 12192, Note_on_c, 1, 62, 75
4, 12215, Note_on_c, 1, 62, 0
4, 12216, Note_on_c, 1, 65, 75
4, 12239, Note_on_c, 1, 65, 0
4, 12240, Note_on_c, 1, 59, 75
4, 12263, Note_on_c, 1, 59, 0
4, 12264, Note_on_c, 1, 65, 75
4, 12287, Note_on_c, 1, 65, 0
4, 12288, Note_on_c, 1, 55, 75
4, 12311, Note_on_c, 1, 55, 0
4, 12312, Note_on_c, 1, 65, 75
4, 12335, Note_on_c, 1, 65, 0
4, 12336, Note_on_c, 1, 59, 75
4, 12359, Note_on_c, 1, 59, 0
4, 12360, Note_on_c, 1, 65, 75
4, 12473, Note_on_c, 1, 65, 0
4, 12480, Note_on_c, 1, 64, 75
4, 12569, Note_on_c, 1, 64, 0
4, 12576, Note_on_c, 1, 64, 75
4, 12665, Note_on_c, 1, 64, 0
4, 12672, Note_on_c, 1, 65, 75
4, 12682, Note_on_c, 1, 65, 0
4, 12696, Note_on_c, 1, 65, 75
4, 12719, Note_on_c, 1, 65, 0
4, 12720, Note_on_c, 1, 64, 75
4, 12743, Note_on_c, 1, 64, 0
4, 12744, Note_on_c, 1, 65, 75
4, 12767, Note_on_c, 1, 65, 0
4, 12768, Note_on_c, 1, 74, 75
4, 12778, Note_on_c, 1, 74, 0
4, 12792, Note_on_c, 1, 74, 75
4, 12815, Note_on_c, 1, 74, 0
4, 12816, Note_on_c, 1, 73, 75
4, 12839, Note_on_c, 1, 73, 0
4, 12840, Note_on_c, 1, 74, 75
4, 12863, Note_on_c, 1, 74, 0
4, 12864, Note_on_c, 1, 71, 75
4, 12874, Note_on_c, 1, 71, 0
4, 12888, Note_on_c, 1, 71, 75
4, 12911, Note_on_c, 1, 71, 0
4, 12912, Note_on_c, 1, 69, 75
4, 12935, Note_on_c, 1, 69, 0
4, 12936, Note_on_c, 1, 71, 75
4, 12959, Note_on_c, 1, 71, 0
4, 12960, Note_on_c, 1, 72, 75
4, 13137, Note_on_c, 1, 72, 0
4, 13224, Note_on_c, 1, 60, 75
4, 13224, Note_on_c, 1, 52, 75
4, 13248, Note_on_c, 1, 52, 0
4, 13248, Note_on_c, 1, 53, 75
4, 13337, Note_on_c, 1, 60, 0
4, 13337, Note_on_c, 1, 53, 0
4, 13344, Note_on_c, 1, 55, 75
4, 13433, Note_on_c, 1, 55, 0
4, 13440, Note_on_c, 1, 43, 75
4, 13529, Note_on_c, 1, 43, 0
4, 13632, Note_on_c, 1, 57, 75
4, 13644, Note_on_c, 1, 60, 75
4, 13656, Note_on_c, 1, 63, 75
4, 13668, Note_on_c, 1, 66, 75
4, 13817, Note_on_c, 1, 66, 0
4, 13817, Note_on_c, 1, 63, 0
4, 13817, Note_on_c, 1, 60, 0
4, 13817, Note_on_c, 1, 57, 0
4, 14016, Note_on_c, 1, 62, 75
4, 14016, Note_on_c, 1, 59, 75
4, 14105, Note_on_c, 1, 62, 0
4, 14105, Note_on_c, 1, 59, 0
4, 14112, Note_on_c, 1, 60, 75
4, 14201, Note_on_c, 1, 60, 0
4, 14304, Note_on_c, 1, 55, 75
4, 14304, Note_on_c, 1, 52, 75
4, 14393, Note_on_c, 1, 55, 0
4, 14393, Note_on_c, 1, 52, 0
4, 14400, Note_on_c, 1, 57, 75
4, 14400, Note_on_c, 1, 53, 75
4, 14489, Note_on_c, 1, 57, 0
4, 14489, Note_on_c, 1, 53, 0
4, 14496, Note_on_c, 1, 55, 75
4, 14585, Note_on_c, 1, 55, 0
4, 14592, Note_on_c, 1, 43, 75
4, 14681, Note_on_c, 1, 43, 0
4, 14784, Note_on_c, 1, 36, 75
4, 14790, Note_on_c, 1, 40, 75
4, 14796, Note_on_c, 1, 43, 75
4, 14802, Note_on_c, 1, 48, 75
4, 14877, Note_on_c, 1, 48, 0
4, 14877, Note_on_c, 1, 43, 0
4, 14877, Note_on_c, 1, 40, 0
4, 14877, Note_on_c, 1, 36, 0
4, 15072, Note_on_c, 1, 55, 75
4, 15117, Note_on_c, 1, 55, 0
4, 15168, Note_on_c, 1, 43, 75
4, 15213, Note_on_c, 1, 43, 0
4, 15264, Note_on_c, 1, 36, 75
4, 15287, Note_on_c, 1, 36, 0
4, 15288, Note_on_c, 1, 48, 75
4, 15311, Note_on_c, 1, 48, 0
4, 15312, Note_on_c, 1, 47, 75
4, 15335, Note_on_c, 1, 47, 0
4, 15336, Note_on_c, 1, 48, 75
4, 15359, Note_on_c, 1, 48, 0
4, 15360, Note_on_c, 1, 36, 75
4, 15383, Note_on_c, 1, 36, 0
4, 15384, Note_on_c, 1, 48, 75
4, 15407, Note_on_c, 1, 48, 0
4, 15408, Note_on_c, 1, 41, 75
4, 15431, Note_on_c, 1, 41, 0
4, 15432, Note_on_c, 1, 48, 75
4, 15455, Note_on_c, 1, 48, 0
4, 15456, Note_on_c, 1, 40, 75
4, 15479, Note_on_c, 1, 40, 0
4, 15480, Note_on_c, 1, 48, 75
4, 15503, Note_on_c, 1, 48, 0
4, 15504, Note_on_c, 1, 38, 75
4, 15527, Note_on_c, 1, 38, 0
4, 15528, Note_on_c, 1, 48, 75
4, 15551, Note_on_c, 1, 48, 0
4, 15552, Note_on_c, 1, 36, 75
4, 15575, Note_on_c, 1, 36, 0
4, 15576, Note_on_c, 1, 48, 75
4, 15599, Note_on_c, 1, 48, 0
4, 15600, Note_on_c, 1, 47, 75
4, 15623, Note_on_c, 1, 47, 0
4, 15624, Note_on_c, 1, 48, 75
4, 15647, Note_on_c, 1, 48, 0
4, 15648, Note_on_c, 1, 36, 75
4, 15671, Note_on_c, 1, 36, 0
4, 15672, Note_on_c, 1, 48, 75
4, 15695, Note_on_c, 1, 48, 0
4, 15696, Note_on_c, 1, 41, 75
4, 15719, Note_on_c, 1, 41, 0
4, 15720, Note_on_c, 1, 48, 75
4, 15743, Note_on_c, 1, 48, 0
4, 15744, Note_on_c, 1, 40, 75
4, 15767, Note_on_c, 1, 40, 0
4, 15768, Note_on_c, 1, 48, 75
4, 15791, Note_on_c, 1, 48, 0
4, 15792, Note_on_c, 1, 38, 75
4, 15815, Note_on_c, 1, 38, 0
4, 15816, Note_on_c, 1, 48, 75
4, 15839, Note_on_c, 1, 48, 0
4, 15840, Note_on_c, 1, 59, 75
4, 15840, Note_on_c, 1, 53, 75
4, 15840, Note_on_c, 1, 36, 75
4, 15936, Note_on_c, 1, 59, 0
4, 15936, Note_on_c, 1, 53, 0
4, 15936, Note_on_c, 1, 40, 75
4, 15942, Note_on_c, 1, 43, 75
4, 15948, Note_on_c, 1, 48, 75
4, 15954, Note_on_c, 1, 52, 75
4, 15960, Note_on_c, 1, 55, 75
4, 15966, Note_on_c, 1, 60, 75
4, 16025, Note_on_c, 1, 60, 0
4, 16025, Note_on_c, 1, 55, 0
4, 16025, Note_on_c, 1, 52, 0
4, 16025, Note_on_c, 1, 48, 0
4, 16025, Note_on_c, 1, 43, 0
4, 16025, Note_on_c, 1, 40, 0
4, 16025, Note_on_c, 1, 36, 0
4, 16128, Note_on_c, 1, 64, 75
4, 16151, Note_on_c, 1, 64, 0
4, 16152, Note_on_c, 1, 72, 75
4, 16175, Note_on_c, 1, 72, 0
4, 16176, Note_on_c, 1, 71, 75
4, 16199, Note_on_c, 1, 71, 0
4, 16200, Note_on_c, 1, 72, 75
4, 16223, Note_on_c, 1, 72, 0
4, 16224, Note_on_c, 1, 75, 75
4, 16247, Note_on_c, 1, 75, 0
4, 16248, Note_on_c, 1, 72, 75
4, 16271, Note_on_c, 1, 72, 0
4, 16272, Note_on_c, 1, 71, 75
4, 16295, Note_on_c, 1, 71, 0
4, 16296, Note_on_c, 1, 72, 75
4, 16319, Note_on_c, 1, 72, 0
4, 16320, Note_on_c, 1, 69, 75
4, 16343, Note_on_c, 1, 69, 0
4, 16344, Note_on_c, 1, 72, 75
4, 16367, Note_on_c, 1, 72, 0
4, 16368, Note_on_c, 1, 67, 75
4, 16391, Note_on_c, 1, 67, 0
4, 16392, Note_on_c, 1, 72, 75
4, 16415, Note_on_c, 1, 72, 0
4, 16416, Note_on_c, 1, 66, 75
4, 16439, Note_on_c, 1, 66, 0
4, 16440, Note_on_c, 1, 72, 75
4, 16463, Note_on_c, 1, 72, 0
4, 16464, Note_on_c, 1, 67, 75
4, 16487, Note_on_c, 1, 67, 0
4, 16488, Note_on_c, 1, 72, 75
4, 16511, Note_on_c, 1, 72, 0
4, 16512, Note_on_c, 1, 66, 75
4, 16535, Note_on_c, 1, 66, 0
4, 16536, Note_on_c, 1, 72, 75
4, 16559, Note_on_c, 1, 72, 0
4, 16560, Note_on_c, 1, 67, 75
4, 16583, Note_on_c, 1, 67, 0
4, 16584, Note_on_c, 1, 72, 75
4, 16607, Note_on_c, 1, 72, 0
4, 16608, Note_on_c, 1, 66, 75
4, 16631, Note_on_c, 1, 66, 0
4, 16632, Note_on_c, 1, 72, 75
4, 16655, Note_on_c, 1, 72, 0
4, 16656, Note_on_c, 1, 67, 75
4, 16679, Note_on_c, 1, 67, 0
4, 16680, Note_on_c, 1, 72, 75
4, 16703, Note_on_c, 1, 72, 0
4, 16704, Note_on_c, 1, 66, 75
4, 16727, Note_on_c, 1, 66, 0
4, 16728, Note_on_c, 1, 72, 75
4, 16751, Note_on_c, 1, 72, 0
4, 16752, Note_on_c, 1, 69, 75
4, 16775, Note_on_c, 1, 69, 0
4, 16776, Note_on_c, 1, 72, 75
4, 16799, Note_on_c, 1, 72, 0
4, 16800, Note_on_c, 1, 66, 75
4, 16823, Note_on_c, 1, 66, 0
4, 16824, Note_on_c, 1, 72, 75
4, 16847, Note_on_c, 1, 72, 0
4, 16848, Note_on_c, 1, 69, 75
4, 16871, Note_on_c, 1, 69, 0
4, 16872, Note_on_c, 1, 72, 75
4, 16895, Note_on_c, 1, 72, 0
4, 16896, Note_on_c, 1, 66, 75
4, 16919, Note_on_c, 1, 66, 0
4, 16920, Note_on_c, 1, 72, 75
4, 16943, Note_on_c, 1, 72, 0
4, 16944, Note_on_c, 1, 69, 75
4, 16967, Note_on_c, 1, 69, 0
4, 16968, Note_on_c, 1, 72, 75
4, 16991, Note_on_c, 1, 72, 0
4, 16992, Note_on_c, 1, 70, 75
4, 16992, Note_on_c, 1, 67, 75
4, 17081, Note_on_c, 1, 70, 0
4, 17081, Note_on_c, 1, 67, 0
4, 17280, Note_on_c, 1, 60, 75
4, 17303, Note_on_c, 1, 60, 0
4, 17304, Note_on_c, 1, 70, 75
4, 17327, Note_on_c, 1, 70, 0
4, 17328, Note_on_c, 1, 69, 75
4, 17351, Note_on_c, 1, 69, 0
4, 17352, Note_on_c, 1, 70, 75
4, 17375, Note_on_c, 1, 70, 0
4, 17376, Note_on_c, 1, 67, 75
4, 17399, Note_on_c, 1, 67, 0
4, 17400, Note_on_c, 1, 70, 75
4, 17423, Note_on_c, 1, 70, 0
4, 17424, Note_on_c, 1, 65, 75
4, 17447, Note_on_c, 1, 65, 0
4, 17448, Note_on_c, 1, 70, 75
4, 17471, Note_on_c, 1, 70, 0
4, 17472, Note_on_c, 1, 64, 75
4, 17495, Note_on_c, 1, 64, 0
4, 17496, Note_on_c, 1, 70, 75
4, 17519, Note_on_c, 1, 70, 0
4, 17520, Note_on_c, 1, 65, 75
4, 17543, Note_on_c, 1, 65, 0
4, 17544, Note_on_c, 1, 70, 75
4, 17567, Note_on_c, 1, 70, 0
4, 17568, Note_on_c, 1, 64, 75
4, 17591, Note_on_c, 1, 64, 0
4, 17592, Note_on_c, 1, 70, 75
4, 17615, Note_on_c, 1, 70, 0
4, 17616, Note_on_c, 1, 65, 75
4, 17639, Note_on_c, 1, 65, 0
4, 17640, Note_on_c, 1, 70, 75
4, 17663, Note_on_c, 1, 70, 0
4, 17664, Note_on_c, 1, 64, 75
4, 17687, Note_on_c, 1, 64, 0
4, 17688, Note_on_c, 1, 70, 75
4, 17711, Note_on_c, 1, 70, 0
4, 17712, Note_on_c, 1, 65, 75
4, 17735, Note_on_c, 1, 65, 0
4, 17736, Note_on_c, 1, 70, 75
4, 17759, Note_on_c, 1, 70, 0
4, 17760, Note_on_c, 1, 64, 75
4, 17783, Note_on_c, 1, 64, 0
4, 17784, Note_on_c, 1, 70, 75
4, 17807, Note_on_c, 1, 70, 0
4, 17808, Note_on_c, 1, 65, 75
4, 17831, Note_on_c, 1, 65, 0
4, 17832, Note_on_c, 1, 70, 75
4, 17855, Note_on_c, 1, 70, 0
4, 17856, Note_on_c, 1, 64, 75
4, 17879, Note_on_c, 1, 64, 0
4, 17880, Note_on_c, 1, 70, 75
4, 17903, Note_on_c, 1, 70, 0
4, 17904, Note_on_c, 1, 67, 75
4, 17927, Note_on_c, 1, 67, 0
4, 17928, Note_on_c, 1, 70, 75
4, 17951, Note_on_c, 1, 70, 0
4, 17952, Note_on_c, 1, 64, 75
4, 17975, Note_on_c, 1, 64, 0
4, 17976, Note_on_c, 1, 70, 75
4, 17999, Note_on_c, 1, 70, 0
4, 18000, Note_on_c, 1, 67, 75
4, 18023, Note_on_c, 1, 67, 0
4, 18024, Note_on_c, 1, 70, 75
4, 18047, Note_on_c, 1, 70, 0
4, 18048, Note_on_c, 1, 64, 75
4, 18071, Note_on_c, 1, 64, 0
4, 18072, Note_on_c, 1, 70, 75
4, 18095, Note_on_c, 1, 70, 0
4, 18096, Note_on_c, 1, 67, 75
4, 18119, Note_on_c, 1, 67, 0
4, 18120, Note_on_c, 1, 70, 75
4, 18143, Note_on_c, 1, 70, 0
4, 18144, Note_on_c, 1, 63, 75
4, 18167, Note_on_c, 1, 63, 0
4, 18168, Note_on_c, 1, 69, 75
4, 18191, Note_on_c, 1, 69, 0
4, 18192, Note_on_c, 1, 65, 75
4, 18215, Note_on_c, 1, 65, 0
4, 18216, Note_on_c, 1, 69, 75
4, 18239, Note_on_c, 1, 69, 0
4, 18240, Note_on_c, 1, 63, 75
4, 18263, Note_on_c, 1, 63, 0
4, 18264, Note_on_c, 1, 69, 75
4, 18287, Note_on_c, 1, 69, 0
4, 18288, Note_on_c, 1, 65, 75
4, 18311, Note_on_c, 1, 65, 0
4, 18312, Note_on_c, 1, 69, 75
4, 18335, Note_on_c, 1, 69, 0
4, 18336, Note_on_c, 1, 63, 75
4, 18359, Note_on_c, 1, 63, 0
4, 18360, Note_on_c, 1, 69, 75
4, 18383, Note_on_c, 1, 69, 0
4, 18384, Note_on_c, 1, 65, 75
4, 18407, Note_on_c, 1, 65, 0
4, 18408, Note_on_c, 1, 69, 75
4, 18431, Note_on_c, 1, 69, 0
4, 18432, Note_on_c, 1, 62, 75
4, 18455, Note_on_c, 1, 62, 0
4, 18456, Note_on_c, 1, 70, 75
4, 18479, Note_on_c, 1, 70, 0
4, 18480, Note_on_c, 1, 65, 75
4, 18503, Note_on_c, 1, 65, 0
4, 18504, Note_on_c, 1, 70, 75
4, 18527, Note_on_c, 1, 70, 0
4, 18528, Note_on_c, 1, 62, 75
4, 18551, Note_on_c, 1, 62, 0
4, 18552, Note_on_c, 1, 70, 75
4, 18575, Note_on_c, 1, 70, 0
4, 18576, Note_on_c, 1, 65, 75
4, 18599, Note_on_c, 1, 65, 0
4, 18600, Note_on_c, 1, 70, 75
4, 18623, Note_on_c, 1, 70, 0
4, 18624, Note_on_c, 1, 62, 75
4, 18647, Note_on_c, 1, 62, 0
4, 18648, Note_on_c, 1, 70, 75
4, 18671, Note_on_c, 1, 70, 0
4, 18672, Note_on_c, 1, 65, 75
4, 18695, Note_on_c, 1, 65, 0
4, 18696, Note_on_c, 1, 70, 75
4, 18719, Note_on_c, 1, 70, 0
4, 18720, Note_on_c, 1, 60, 75
4, 18743, Note_on_c, 1, 60, 0
4, 18744, Note_on_c, 1, 70, 75
4, 18767, Note_on_c, 1, 70, 0
4, 18768, Note_on_c, 1, 61, 75
4, 18791, Note_on_c, 1, 61, 0
4, 18792, Note_on_c, 1, 70, 75
4, 18815, Note_on_c, 1, 70, 0
4, 18816, Note_on_c, 1, 60, 75
4, 18839, Note_on_c, 1, 60, 0
4, 18840, Note_on_c, 1, 70, 75
4, 18863, Note_on_c, 1, 70, 0
4, 18864, Note_on_c, 1, 61, 75
4, 18887, Note_on_c, 1, 61, 0
4, 18888, Note_on_c, 1, 70, 75
4, 18911, Note_on_c, 1, 70, 0
4, 18912, Note_on_c, 1, 60, 75
4, 18935, Note_on_c, 1, 60, 0
4, 18936, Note_on_c, 1, 70, 75
4, 18959, Note_on_c, 1, 70, 0
4, 18960, Note_on_c, 1, 61, 75
4, 18983, Note_on_c, 1, 61, 0
4, 18984, Note_on_c, 1, 70, 75
4, 19007, Note_on_c, 1, 70, 0
4, 19008, Note_on_c, 1, 60, 75
4, 19104, Note_on_c, 1, 60, 0
4, 19104, Note_on_c, 1, 64, 75
4, 19124, Note_on_c, 1, 64, 0
4, 19296, Note_on_c, 1, 41, 75
4, 19305, Note_on_c, 1, 45, 75
4, 19314, Note_on_c, 1, 48, 75
4, 19323, Note_on_c, 1, 53, 75
4, 19481, Note_on_c, 1, 53, 0
4, 19481, Note_on_c, 1, 48, 0
4, 19481, Note_on_c, 1, 45, 0
4, 19481, Note_on_c, 1, 41, 0
4, 19584, Note_on_c, 1, 62, 75
4, 19584, Note_on_c, 1, 58, 75
4, 19680, Note_on_c, 1, 62, 0
4, 19680, Note_on_c, 1, 58, 0
4, 19680, Note_on_c, 1, 60, 75
4, 19680, Note_on_c, 1, 57, 75
4, 19747, Note_on_c, 1, 60, 0
4, 19747, Note_on_c, 1, 57, 0
4, 20160, Note_on_c, 1, 64, 75
4, 20160, Note_on_c, 1, 60, 75
4, 20256, Note_on_c, 1, 64, 0
4, 20256, Note_on_c, 1, 60, 0
4, 20256, Note_on_c, 1, 65, 64
4, 20256, Note_on_c, 1, 62, 64
4, 20323, Note_on_c, 1, 65, 0
4, 20323, Note_on_c, 1, 62, 0
4, 20448, Note_on_c, 1, 62, 75
4, 20448, Note_on_c, 1, 58, 75
4, 20625, Note_on_c, 1, 62, 0
4, 20625, Note_on_c, 1, 58, 0
4, 20736, Note_on_c, 1, 58, 75
4, 20736, Note_on_c, 1, 48, 75
4, 20832, Note_on_c, 1, 58, 0
4, 20832, Note_on_c, 1, 48, 0
4, 20832, Note_on_c, 1, 57, 75
4, 20832, Note_on_c, 1, 53, 75
4, 20899, Note_on_c, 1, 57, 0
4, 20899, Note_on_c, 1, 53, 0
4, 21024, Note_on_c, 1, 53, 75
4, 21335, Note_on_c, 1, 53, 0
4, 21336, Note_on_c, 1, 53, 75
4, 21359, Note_on_c, 1, 53, 0
4, 21360, Note_on_c, 1, 52, 75
4, 21383, Note_on_c, 1, 52, 0
4, 21384, Note_on_c, 1, 53, 75
4, 21407, Note_on_c, 1, 53, 0
4, 21408, Note_on_c, 1, 53, 75
4, 21431, Note_on_c, 1, 53, 0
4, 21432, Note_on_c, 1, 54, 75
4, 21455, Note_on_c, 1, 54, 0
4, 21456, Note_on_c, 1, 55, 75
4, 21479, Note_on_c, 1, 55, 0
4, 21480, Note_on_c, 1, 54, 75
4, 21503, Note_on_c, 1, 54, 0
4, 21504, Note_on_c, 1, 55, 75
4, 21623, Note_on_c, 1, 55, 0
4, 21624, Note_on_c, 1, 55, 75
4, 21647, Note_on_c, 1, 55, 0
4, 21648, Note_on_c, 1, 54, 75
4, 21671, Note_on_c, 1, 54, 0
4, 21672, Note_on_c, 1, 55, 75
4, 21695, Note_on_c, 1, 55, 0
4, 21696, Note_on_c, 1, 55, 75
4, 21785, Note_on_c, 1, 55, 0
4, 21888, Note_on_c, 1, 58, 75
4, 21898, Note_on_c, 1, 58, 0
4, 21912, Note_on_c, 1, 58, 75
4, 21935, Note_on_c, 1, 58, 0
4, 21936, Note_on_c, 1, 57, 75
4, 21959, Note_on_c, 1, 57, 0
4, 21960, Note_on_c, 1, 58, 75
4, 21983, Note_on_c, 1, 58, 0
4, 21984, Note_on_c, 1, 55, 75
4, 22007, Note_on_c, 1, 55, 0
4, 22008, Note_on_c, 1, 58, 75
4, 22031, Note_on_c, 1, 58, 0
4, 22032, Note_on_c, 1, 52, 75
4, 22055, Note_on_c, 1, 52, 0
4, 22056, Note_on_c, 1, 58, 75
4, 22079, Note_on_c, 1, 58, 0
4, 22080, Note_on_c, 1, 48, 75
4, 22103, Note_on_c, 1, 48, 0
4, 22104, Note_on_c, 1, 58, 75
4, 22127, Note_on_c, 1, 58, 0
4, 22128, Note_on_c, 1, 52, 75
4, 22151, Note_on_c, 1, 52, 0
4, 22152, Note_on_c, 1, 58, 75
4, 22265, Note_on_c, 1, 58, 0
4, 22272, Note_on_c, 1, 57, 75
4, 22449, Note_on_c, 1, 57, 0
4, 22488, Note_on_c, 1, 58, 75
4, 22511, Note_on_c, 1, 58, 0
4, 22512, Note_on_c, 1, 57, 75
4, 22535, Note_on_c, 1, 57, 0
4, 22536, Note_on_c, 1, 58, 75
4, 22559, Note_on_c, 1, 58, 0
4, 22560, Note_on_c, 1, 55, 75
4, 22575, Note_on_c, 1, 55, 0
4, 22576, Note_on_c, 1, 58, 75
4, 22591, Note_on_c, 1, 58, 0
4, 22592, Note_on_c, 1, 58, 75
4, 22607, Note_on_c, 1, 58, 0
4, 22608, Note_on_c, 1, 52, 75
4, 22623, Note_on_c, 1, 52, 0
4, 22624, Note_on_c, 1, 58, 75
4, 22639, Note_on_c, 1, 58, 0
4, 22640, Note_on_c, 1, 58, 75
4, 22655, Note_on_c, 1, 58, 0
4, 22656, Note_on_c, 1, 48, 75
4, 22671, Note_on_c, 1, 48, 0
4, 22672, Note_on_c, 1, 58, 75
4, 22687, Note_on_c, 1, 58, 0
4, 22688, Note_on_c, 1, 58, 75
4, 22703, Note_on_c, 1, 58, 0
4, 22704, Note_on_c, 1, 52, 75
4, 22719, Note_on_c, 1, 52, 0
4, 22720, Note_on_c, 1, 58, 75
4, 22735, Note_on_c, 1, 58, 0
4, 22736, Note_on_c, 1, 58, 75
4, 22841, Note_on_c, 1, 58, 0
4, 22848, Note_on_c, 1, 57, 75
4, 22937, Note_on_c, 1, 57, 0
4, 22944, Note_on_c, 1, 57, 75
4, 23033, Note_on_c, 1, 57, 0
4, 23040, Note_on_c, 1, 58, 75
4, 23050, Note_on_c, 1, 58, 0
4, 23064, Note_on_c, 1, 58, 75
4, 23087, Note_on_c, 1, 58, 0
4, 23088, Note_on_c, 1, 57, 75
4, 23111, Note_on_c, 1, 57, 0
4, 23112, Note_on_c, 1, 58, 75
4, 23135, Note_on_c, 1, 58, 0
4, 23136, Note_on_c, 1, 67, 75
4, 23146, Note_on_c, 1, 67, 0
4, 23160, Note_on_c, 1, 67, 75
4, 23183, Note_on_c, 1, 67, 0
4, 23184, Note_on_c, 1, 66, 75
4, 23207, Note_on_c, 1, 66, 0
4, 23208, Note_on_c, 1, 67, 75
4, 23231, Note_on_c, 1, 67, 0
4, 23232, Note_on_c, 1, 64, 75
4, 23242, Note_on_c, 1, 64, 0
4, 23256, Note_on_c, 1, 64, 75
4, 23279, Note_on_c, 1, 64, 0
4, 23280, Note_on_c, 1, 62, 75
4, 23303, Note_on_c, 1, 62, 0
4, 23304, Note_on_c, 1, 64, 75
4, 23327, Note_on_c, 1, 64, 0
4, 23328, Note_on_c, 1, 65, 75
4, 23417, Note_on_c, 1, 65, 0
4, 23592, Note_on_c, 1, 53, 75
4, 23592, Note_on_c, 1, 45, 75
4, 23616, Note_on_c, 1, 45, 0
4, 23616, Note_on_c, 1, 46, 75
4, 23705, Note_on_c, 1, 53, 0
4, 23705, Note_on_c, 1, 46, 0
4, 23712, Note_on_c, 1, 48, 75
4, 23801, Note_on_c, 1, 48, 0
4, 23808, Note_on_c, 1, 36, 75
4, 23897, Note_on_c, 1, 36, 0
4, 24000, Note_on_c, 1, 50, 75
4, 24016, Note_on_c, 1, 53, 75
4, 24032, Note_on_c, 1, 56, 75
4, 24185, Note_on_c, 1, 56, 0
4, 24185, Note_on_c, 1, 53, 0
4, 24185, Note_on_c, 1, 50, 0
4, 24384, Note_on_c, 1, 55, 75
4, 24384, Note_on_c, 1, 52, 75
4, 24473, Note_on_c, 1, 55, 0
4, 24473, Note_on_c, 1, 52, 0
4, 24480, Note_on_c, 1, 53, 75
4, 24569, Note_on_c, 1, 53, 0
4, 24672, Note_on_c, 1, 53, 75
4, 24672, Note_on_c, 1, 48, 75
4, 24672, Note_on_c, 1, 45, 75
4, 24761, Note_on_c, 1, 53, 0
4, 24761, Note_on_c, 1, 48, 0
4, 24761, Note_on_c, 1, 45, 0
4, 24768, Note_on_c, 1, 46, 75
4, 24807, Note_on_c, 1, 46, 0
4, 24864, Note_on_c, 1, 48, 75
4, 24903, Note_on_c, 1, 48, 0
4, 24960, Note_on_c, 1, 36, 75
4, 24999, Note_on_c, 1, 36, 0
4, 25152, Note_on_c, 1, 57, 80
4, 25152, Note_on_c, 1, 53, 80
4, 25152, Note_on_c, 1, 48, 80
4, 25152, Note_on_c, 1, 45, 80
4, 25329, Note_on_c, 1, 57, 0
4, 25329, Note_on_c, 1, 53, 0
4, 25329, Note_on_c, 1, 48, 0
4, 25329, Note_on_c, 1, 45, 0
4, 25344, Note_on_c, 1, 58, 80
4, 25344, Note_on_c, 1, 46, 80
4, 25383, Note_on_c, 1, 58, 0
4, 25383, Note_on_c, 1, 46, 0
4, 25440, Note_on_c, 1, 34, 80
4, 25479, Note_on_c, 1, 34, 0
4, 25536, Note_on_c, 1, 48, 80
4, 25536, Note_on_c, 1, 36, 80
4, 25575, Note_on_c, 1, 48, 0
4, 25575, Note_on_c, 1, 36, 0
4, 25632, Note_on_c, 1, 41, 75
4, 25655, Note_on_c, 1, 41, 0
4, 25656, Note_on_c, 1, 53, 75
4, 25679, Note_on_c, 1, 53, 0
4, 25680, Note_on_c, 1, 52, 75
4, 25703, Note_on_c, 1, 52, 0
4, 25704, Note_on_c, 1, 53, 75
4, 25727, Note_on_c, 1, 53, 0
4, 25728, Note_on_c, 1, 41, 75
4, 25751, Note_on_c, 1, 41, 0
4, 25752, Note_on_c, 1, 53, 75
4, 25775, Note_on_c, 1, 53, 0
4, 25776, Note_on_c, 1, 46, 75
4, 25799, Note_on_c, 1, 46, 0
4, 25800, Note_on_c, 1, 53, 75
4, 25823, Note_on_c, 1, 53, 0
4, 25824, Note_on_c, 1, 45, 75
4, 25847, Note_on_c, 1, 45, 0
4, 25848, Note_on_c, 1, 53, 75
4, 25871, Note_on_c, 1, 53, 0
4, 25872, Note_on_c, 1, 43, 75
4, 25895, Note_on_c, 1, 43, 0
4, 25896, Note_on_c, 1, 53, 75
4, 25919, Note_on_c, 1, 53, 0
4, 25920, Note_on_c, 1, 41, 75
4, 25943, Note_on_c, 1, 41, 0
4, 25944, Note_on_c, 1, 53, 75
4, 25967, Note_on_c, 1, 53, 0
4, 25968, Note_on_c, 1, 52, 75
4, 25991, Note_on_c, 1, 52, 0
4, 25992, Note_on_c, 1, 53, 75
4, 26015, Note_on_c, 1, 53, 0
4, 26016, Note_on_c, 1, 41, 75
4, 26039, Note_on_c, 1, 41, 0
4, 26040, Note_on_c, 1, 53, 75
4, 26063, Note_on_c, 1, 53, 0
4, 26064, Note_on_c, 1, 46, 75
4, 26087, Note_on_c, 1, 46, 0
4, 26088, Note_on_c, 1, 53, 75
4, 26111, Note_on_c, 1, 53, 0
4, 26112, Note_on_c, 1, 45, 75
4, 26135, Note_on_c, 1, 45, 0
4, 26136, Note_on_c, 1, 53, 75
4, 26159, Note_on_c, 1, 53, 0
4, 26160, Note_on_c, 1, 43, 75
4, 26183, Note_on_c, 1, 43, 0
4, 26184, Note_on_c, 1, 53, 75
4, 26207, Note_on_c, 1, 53, 0
4, 26208, Note_on_c, 1, 64, 75
4, 26208, Note_on_c, 1, 58, 75
4, 26208, Note_on_c, 1, 41, 75
4, 26304, Note_on_c, 1, 64, 0
4, 26304, Note_on_c, 1, 58, 0
4, 26304, Note_on_c, 1, 45, 75
4, 26314, Note_on_c, 1, 48, 75
4, 26324, Note_on_c, 1, 53, 75
4, 26334, Note_on_c, 1, 57, 75
4, 26344, Note_on_c, 1, 60, 75
4, 26354, Note_on_c, 1, 65, 75
4, 26437, Note_on_c, 1, 65, 0
4, 26437, Note_on_c, 1, 60, 0
4, 26437, Note_on_c, 1, 57, 0
4, 26437, Note_on_c, 1, 53, 0
4, 26437, Note_on_c, 1, 48, 0
4, 26437, Note_on_c, 1, 45, 0
4, 26437, Note_on_c, 1, 41, 0
4, 26496, Note_on_c, 1, 64, 75
4, 26519, Note_on_c, 1, 64, 0
4, 26520, Note_on_c, 1, 72, 75
4, 26543, Note_on_c, 1, 72, 0
4, 26544, Note_on_c, 1, 71, 75
4, 26567, Note_on_c, 1, 71, 0
4, 26568, Note_on_c, 1, 72, 75
4, 26591, Note_on_c, 1, 72, 0
4, 26592, Note_on_c, 1, 75, 75
4, 26615, Note_on_c, 1, 75, 0
4, 26616, Note_on_c, 1, 72, 75
4, 26639, Note_on_c, 1, 72, 0
4, 26640, Note_on_c, 1, 71, 75
4, 26663, Note_on_c, 1, 71, 0
4, 26664, Note_on_c, 1, 72, 75
4, 26687, Note_on_c, 1, 72, 0
4, 26688, Note_on_c, 1, 69, 75
4, 26711, Note_on_c, 1, 69, 0
4, 26712, Note_on_c, 1, 72, 75
4, 26735, Note_on_c, 1, 72, 0
4, 26736, Note_on_c, 1, 67, 75
4, 26759, Note_on_c, 1, 67, 0
4, 26760, Note_on_c, 1, 72, 75
4, 26783, Note_on_c, 1, 72, 0
4, 26784, Note_on_c, 1, 66, 75
4, 26807, Note_on_c, 1, 66, 0
4, 26808, Note_on_c, 1, 72, 75
4, 26831, Note_on_c, 1, 72, 0
4, 26832, Note_on_c, 1, 67, 75
4, 26855, Note_on_c, 1, 67, 0
4, 26856, Note_on_c, 1, 72, 75
4, 26879, Note_on_c, 1, 72, 0
4, 26880, Note_on_c, 1, 66, 75
4, 26903, Note_on_c, 1, 66, 0
4, 26904, Note_on_c, 1, 72, 75
4, 26927, Note_on_c, 1, 72, 0
4, 26928, Note_on_c, 1, 67, 75
4, 26951, Note_on_c, 1, 67, 0
4, 26952, Note_on_c, 1, 72, 75
4, 26975, Note_on_c, 1, 72, 0
4, 26976, Note_on_c, 1, 66, 75
4, 26999, Note_on_c, 1, 66, 0
4, 27000, Note_on_c, 1, 72, 75
4, 27023, Note_on_c, 1, 72, 0
4, 27024, Note_on_c, 1, 67, 75
4, 27047, Note_on_c, 1, 67, 0
4, 27048, Note_on_c, 1, 72, 75
4, 27071, Note_on_c, 1, 72, 0
4, 27072, Note_on_c, 1, 66, 75
4, 27095, Note_on_c, 1, 66, 0
4, 27096, Note_on_c, 1, 72, 75
4, 27119, Note_on_c, 1, 72, 0
4, 27120, Note_on_c, 1, 69, 75
4, 27143, Note_on_c, 1, 69, 0
4, 27144, Note_on_c, 1, 72, 75
4, 27167, Note_on_c, 1, 72, 0
4, 27168, Note_on_c, 1, 66, 75
4, 27191, Note_on_c, 1, 66, 0
4, 27192, Note_on_c, 1, 72, 75
4, 27215, Note_on_c, 1, 72, 0
4, 27216, Note_on_c, 1, 69, 75
4, 27239, Note_on_c, 1, 69, 0
4, 27240, Note_on_c, 1, 72, 75
4, 27263, Note_on_c, 1, 72, 0
4, 27264, Note_on_c, 1, 66, 75
4, 27287, Note_on_c, 1, 66, 0
4, 27288, Note_on_c, 1, 72, 75
4, 27311, Note_on_c, 1, 72, 0
4, 27312, Note_on_c, 1, 69, 75
4, 27335, Note_on_c, 1, 69, 0
4, 27336, Note_on_c, 1, 72, 75
4, 27359, Note_on_c, 1, 72, 0
4, 27360, Note_on_c, 1, 70, 75
4, 27360, Note_on_c, 1, 67, 75
4, 27449, Note_on_c, 1, 70, 0
4, 27449, Note_on_c, 1, 67, 0
4, 27648, Note_on_c, 1, 60, 75
4, 27671, Note_on_c, 1, 60, 0
4, 27672, Note_on_c, 1, 70, 75
4, 27695, Note_on_c, 1, 70, 0
4, 27696, Note_on_c, 1, 69, 75
4, 27719, Note_on_c, 1, 69, 0
4, 27720, Note_on_c, 1, 70, 75
4, 27743, Note_on_c, 1, 70, 0
4, 27744, Note_on_c, 1, 67, 75
4, 27767, Note_on_c, 1, 67, 0
4, 27768, Note_on_c, 1, 70, 75
4, 27791, Note_on_c, 1, 70, 0
4, 27792, Note_on_c, 1, 65, 75
4, 27815, Note_on_c, 1, 65, 0
4, 27816, Note_on_c, 1, 70, 75
4, 27839, Note_on_c, 1, 70, 0
4, 27840, Note_on_c, 1, 64, 75
4, 27863, Note_on_c, 1, 64, 0
4, 27864, Note_on_c, 1, 70, 75
4, 27887, Note_on_c, 1, 70, 0
4, 27888, Note_on_c, 1, 65, 75
4, 27911, Note_on_c, 1, 65, 0
4, 27912, Note_on_c, 1, 70, 75
4, 27935, Note_on_c, 1, 70, 0
4, 27936, Note_on_c, 1, 64, 75
4, 27959, Note_on_c, 1, 64, 0
4, 27960, Note_on_c, 1, 70, 75
4, 27983, Note_on_c, 1, 70, 0
4, 27984, Note_on_c, 1, 65, 75
4, 28007, Note_on_c, 1, 65, 0
4, 28008, Note_on_c, 1, 70, 75
4, 28031, Note_on_c, 1, 70, 0
4, 28032, Note_on_c, 1, 64, 75
4, 28055, Note_on_c, 1, 64, 0
4, 28056, Note_on_c, 1, 70, 75
4, 28079, Note_on_c, 1, 70, 0
4, 28080, Note_on_c, 1, 65, 75
4, 28103, Note_on_c, 1, 65, 0
4, 28104, Note_on_c, 1, 70, 75
4, 28127, Note_on_c, 1, 70, 0
4, 28128, Note_on_c, 1, 64, 75
4, 28151, Note_on_c, 1, 64, 0
4, 28152, Note_on_c, 1, 70, 75
4, 28175, Note_on_c, 1, 70, 0
4, 28176, Note_on_c, 1, 65, 75
4, 28199, Note_on_c, 1, 65, 0
4, 28200, Note_on_c, 1, 70, 75
4, 28223, Note_on_c, 1, 70, 0
4, 28224, Note_on_c, 1, 64, 75
4, 28247, Note_on_c, 1, 64, 0
4, 28248, Note_on_c, 1, 70, 75
4, 28271, Note_on_c, 1, 70, 0
4, 28272, Note_on_c, 1, 67, 75
4, 28295, Note_on_c, 1, 67, 0
4, 28296, Note_on_c, 1, 70, 75
4, 28319, Note_on_c, 1, 70, 0
4, 28320, Note_on_c, 1, 64, 75
4, 28343, Note_on_c, 1, 64, 0
4, 28344, Note_on_c, 1, 70, 75
4, 28367, Note_on_c, 1, 70, 0
4, 28368, Note_on_c, 1, 67, 75
4, 28391, Note_on_c, 1, 67, 0
4, 28392, Note_on_c, 1, 70, 75
4, 28415, Note_on_c, 1, 70, 0
4, 28416, Note_on_c, 1, 64, 75
4, 28439, Note_on_c, 1, 64, 0
4, 28440, Note_on_c, 1, 70, 75
4, 28463, Note_on_c, 1, 70, 0
4, 28464, Note_on_c, 1, 67, 75
4, 28487, Note_on_c, 1, 67, 0
4, 28488, Note_on_c, 1, 70, 75
4, 28511, Note_on_c, 1, 70, 0
4, 28512, Note_on_c, 1, 63, 75
4, 28535, Note_on_c, 1, 63, 0
4, 28536, Note_on_c, 1, 69, 75
4, 28559, Note_on_c, 1, 69, 0
4, 28560, Note_on_c, 1, 65, 75
4, 28583, Note_on_c, 1, 65, 0
4, 28584, Note_on_c, 1, 69, 75
4, 28607, Note_on_c, 1, 69, 0
4, 28608, Note_on_c, 1, 63, 75
4, 28631, Note_on_c, 1, 63, 0
4, 28632, Note_on_c, 1, 69, 75
4, 28655, Note_on_c, 1, 69, 0
4, 28656, Note_on_c, 1, 65, 75
4, 28679, Note_on_c, 1, 65, 0
4, 28680, Note_on_c, 1, 69, 75
4, 28703, Note_on_c, 1, 69, 0
4, 28704, Note_on_c, 1, 63, 75
4, 28727, Note_on_c, 1, 63, 0
4, 28728, Note_on_c, 1, 69, 75
4, 28751, Note_on_c, 1, 69, 0
4, 28752, Note_on_c, 1, 65, 75
4, 28775, Note_on_c, 1, 65, 0
4, 28776, Note_on_c, 1, 69, 75
4, 28799, Note_on_c, 1, 69, 0
4, 28800, Note_on_c, 1, 62, 75
4, 28823, Note_on_c, 1, 62, 0
4, 28824, Note_on_c, 1, 70, 75
4, 28847, Note_on_c, 1, 70, 0
4, 28848, Note_on_c, 1, 65, 75
4, 28871, Note_on_c, 1, 65, 0
4, 28872, Note_on_c, 1, 70, 75
4, 28895, Note_on_c, 1, 70, 0
4, 28896, Note_on_c, 1, 62, 75
4, 28919, Note_on_c, 1, 62, 0
4, 28920, Note_on_c, 1, 70, 75
4, 28943, Note_on_c, 1, 70, 0
4, 28944, Note_on_c, 1, 65, 75
4, 28967, Note_on_c, 1, 65, 0
4, 28968, Note_on_c, 1, 70, 75
4, 28991, Note_on_c, 1, 70, 0
4, 28992, Note_on_c, 1, 62, 75
4, 29015, Note_on_c, 1, 62, 0
4, 29016, Note_on_c, 1, 70, 75
4, 29039, Note_on_c, 1, 70, 0
4, 29040, Note_on_c, 1, 65, 75
4, 29063, Note_on_c, 1, 65, 0
4, 29064, Note_on_c, 1, 70, 75
4, 29087, Note_on_c, 1, 70, 0
4, 29088, Note_on_c, 1, 60, 75
4, 29111, Note_on_c, 1, 60, 0
4, 29112, Note_on_c, 1, 70, 75
4, 29135, Note_on_c, 1, 70, 0
4, 29136, Note_on_c, 1, 61, 75
4, 29159, Note_on_c, 1, 61, 0
4, 29160, Note_on_c, 1, 70, 75
4, 29183, Note_on_c, 1, 70, 0
4, 29184, Note_on_c, 1, 60, 75
4, 29207, Note_on_c, 1, 60, 0
4, 29208, Note_on_c, 1, 70, 75
4, 29231, Note_on_c, 1, 70, 0
4, 29232, Note_on_c, 1, 61, 75
4, 29255, Note_on_c, 1, 61, 0
4, 29256, Note_on_c, 1, 70, 75
4, 29279, Note_on_c, 1, 70, 0
4, 29280, Note_on_c, 1, 60, 75
4, 29303, Note_on_c, 1, 60, 0
4, 29304, Note_on_c, 1, 70, 75
4, 29327, Note_on_c, 1, 70, 0
4, 29328, Note_on_c, 1, 61, 75
4, 29351, Note_on_c, 1, 61, 0
4, 29352, Note_on_c, 1, 70, 75
4, 29375, Note_on_c, 1, 70, 0
4, 29376, Note_on_c, 1, 60, 75
4, 29472, Note_on_c, 1, 60, 0
4, 29472, Note_on_c, 1, 64, 75
4, 29492, Note_on_c, 1, 64, 0
4, 29664, Note_on_c, 1, 41, 75
4, 29673, Note_on_c, 1, 45, 75
4, 29682, Note_on_c, 1, 48, 75
4, 29691, Note_on_c, 1, 53, 75
4, 29849, Note_on_c, 1, 53, 0
4, 29849, Note_on_c, 1, 48, 0
4, 29849, Note_on_c, 1, 45, 0
4, 29849, Note_on_c, 1, 41, 0
4, 29952, Note_on_c, 1, 62, 75
4, 29952, Note_on_c, 1, 58, 75
4, 30048, Note_on_c, 1, 62, 0
4, 30048, Note_on_c, 1, 58, 0
4, 30048, Note_on_c, 1, 60, 75
4, 30048, Note_on_c, 1, 57, 75
4, 30115, Note_on_c, 1, 60, 0
4, 30115, Note_on_c, 1, 57, 0
4, 30528, Note_on_c, 1, 64, 75
4, 30528, Note_on_c, 1, 60, 75
4, 30624, Note_on_c, 1, 64, 0
4, 30624, Note_on_c, 1, 60, 0
4, 30624, Note_on_c, 1, 65, 64
4, 30624, Note_on_c, 1, 62, 64
4, 30691, Note_on_c, 1, 65, 0
4, 30691, Note_on_c, 1, 62, 0
4, 30816, Note_on_c, 1, 62, 75
4, 30816, Note_on_c, 1, 58, 75
4, 30993, Note_on_c, 1, 62, 0
4, 30993, Note_on_c, 1, 58, 0
4, 31104, Note_on_c, 1, 58, 75
4, 31104, Note_on_c, 1, 48, 75
4, 31200, Note_on_c, 1, 58, 0
4, 31200, Note_on_c, 1, 48, 0
4, 31200, Note_on_c, 1, 57, 75
4, 31200, Note_on_c, 1, 53, 75
4, 31267, Note_on_c, 1, 57, 0
4, 31267, Note_on_c, 1, 53, 0
4, 31392, Note_on_c, 1, 53, 75
4, 31703, Note_on_c, 1, 53, 0
4, 31704, Note_on_c, 1, 53, 75
4, 31727, Note_on_c, 1, 53, 0
4, 31728, Note_on_c, 1, 52, 75
4, 31751, Note_on_c, 1, 52, 0
4, 31752, Note_on_c, 1, 53, 75
4, 31775, Note_on_c, 1, 53, 0
4, 31776, Note_on_c, 1, 53, 75
4, 31799, Note_on_c, 1, 53, 0
4, 31800, Note_on_c, 1, 54, 75
4, 31823, Note_on_c, 1, 54, 0
4, 31824, Note_on_c, 1, 55, 75
4, 31847, Note_on_c, 1, 55, 0
4, 31848, Note_on_c, 1, 54, 75
4, 31871, Note_on_c, 1, 54, 0
4, 31872, Note_on_c, 1, 55, 75
4, 31991, Note_on_c, 1, 55, 0
4, 31992, Note_on_c, 1, 55, 75
4, 32015, Note_on_c, 1, 55, 0
4, 32016, Note_on_c, 1, 54, 75
4, 32039, Note_on_c, 1, 54, 0
4, 32040, Note_on_c, 1, 55, 75
4, 32063, Note_on_c, 1, 55, 0
4, 32064, Note_on_c, 1, 55, 75
4, 32153, Note_on_c, 1, 55, 0
4, 32256, Note_on_c, 1, 58, 75
4, 32266, Note_on_c, 1, 58, 0
4, 32280, Note_on_c, 1, 58, 75
4, 32303, Note_on_c, 1, 58, 0
4, 32304, Note_on_c, 1, 57, 75
4, 32327, Note_on_c, 1, 57, 0
4, 32328, Note_on_c, 1, 58, 75
4, 32351, Note_on_c, 1, 58, 0
4, 32352, Note_on_c, 1, 55, 75
4, 32375, Note_on_c, 1, 55, 0
4, 32376, Note_on_c, 1, 58, 75
4, 32399, Note_on_c, 1, 58, 0
4, 32400, Note_on_c, 1, 52, 75
4, 32423, Note_on_c, 1, 52, 0
4, 32424, Note_on_c, 1, 58, 75
4, 32447, Note_on_c, 1, 58, 0
4, 32448, Note_on_c, 1, 48, 75
4, 32471, Note_on_c, 1, 48, 0
4, 32472, Note_on_c, 1, 58, 75
4, 32495, Note_on_c, 1, 58, 0
4, 32496, Note_on_c, 1, 52, 75
4, 32519, Note_on_c, 1, 52, 0
4, 32520, Note_on_c, 1, 58, 75
4, 32633, Note_on_c, 1, 58, 0
4, 32640, Note_on_c, 1, 57, 75
4, 32817, Note_on_c, 1, 57, 0
4, 32856, Note_on_c, 1, 58, 75
4, 32879, Note_on_c, 1, 58, 0
4, 32880, Note_on_c, 1, 57, 75
4, 32903, Note_on_c, 1, 57, 0
4, 32904, Note_on_c, 1, 58, 75
4, 32927, Note_on_c, 1, 58, 0
4, 32928, Note_on_c, 1, 55, 75
4, 32943, Note_on_c, 1, 55, 0
4, 32944, Note_on_c, 1, 58, 75
4, 32959, Note_on_c, 1, 58, 0
4, 32960, Note_on_c, 1, 58, 75
4, 32975, Note_on_c, 1, 58, 0
4, 32976, Note_on_c, 1, 52, 75
4, 32991, Note_on_c, 1, 52, 0
4, 32992, Note_on_c, 1, 58, 75
4, 33007, Note_on_c, 1, 58, 0
4, 33008, Note_on_c, 1, 58, 75
4, 33023, Note_on_c, 1, 58, 0
4, 33024, Note_on_c, 1, 48, 75
4, 33039, Note_on_c, 1, 48, 0
4, 33040, Note_on_c, 1, 58, 75
4, 33055, Note_on_c, 1, 58, 0
4, 33056, Note_on_c, 1, 58, 75
4, 33071, Note_on_c, 1, 58, 0
4, 33072, Note_on_c, 1, 52, 75
4, 33087, Note_on_c, 1, 52, 0
4, 33088, Note_on_c, 1, 58, 75
4, 33103, Note_on_c, 1, 58, 0
4, 33104, Note_on_c, 1, 58, 75
4, 33209, Note_on_c, 1, 58, 0
4, 33216, Note_on_c, 1, 57, 75
4, 33305, Note_on_c, 1, 57, 0
4, 33312, Note_on_c, 1, 57, 75
4, 33401, Note_on_c, 1, 57, 0
4, 33408, Note_on_c, 1, 58, 75
4, 33418, Note_on_c, 1, 58, 0
4, 33432, Note_on_c, 1, 58, 75
4, 33455, Note_on_c, 1, 58, 0
4, 33456, Note_on_c, 1, 57, 75
4, 33479, Note_on_c, 1, 57, 0
4, 33480, Note_on_c, 1, 58, 75
4, 33503, Note_on_c, 1, 58, 0
4, 33504, Note_on_c, 1, 67, 75
4, 33514, Note_on_c, 1, 67, 0
4, 33528, Note_on_c, 1, 67, 75
4, 33551, Note_on_c, 1, 67, 0
4, 33552, Note_on_c, 1, 66, 75
4, 33575, Note_on_c, 1, 66, 0
4, 33576, Note_on_c, 1, 67, 75
4, 33599, Note_on_c, 1, 67, 0
4, 33600, Note_on_c, 1, 64, 75
4, 33610, Note_on_c, 1, 64, 0
4, 33624, Note_on_c, 1, 64, 75
4, 33647, Note_on_c, 1, 64, 0
4, 33648, Note_on_c, 1, 62, 75
4, 33671, Note_on_c, 1, 62, 0
4, 33672, Note_on_c, 1, 64, 75
4, 33695, Note_on_c, 1, 64, 0
4, 33696, Note_on_c, 1, 65, 75
4, 33785, Note_on_c, 1, 65, 0
4, 33960, Note_on_c, 1, 53, 75
4, 33960, Note_on_c, 1, 45, 75
4, 33984, Note_on_c, 1, 45, 0
4, 33984, Note_on_c, 1, 46, 75
4, 34073, Note_on_c, 1, 53, 0
4, 34073, Note_on_c, 1, 46, 0
4, 34080, Note_on_c, 1, 48, 75
4, 34169, Note_on_c, 1, 48, 0
4, 34176, Note_on_c, 1, 36, 75
4, 34265, Note_on_c, 1, 36, 0
4, 34368, Note_on_c, 1, 50, 75
4, 34384, Note_on_c, 1, 53, 75
4, 34400, Note_on_c, 1, 56, 75
4, 34553, Note_on_c, 1, 56, 0
4, 34553, Note_on_c, 1, 53, 0
4, 34553, Note_on_c, 1, 50, 0
4, 34752, Note_on_c, 1, 55, 75
4, 34752, Note_on_c, 1, 52, 75
4, 34841, Note_on_c, 1, 55, 0
4, 34841, Note_on_c, 1, 52, 0
4, 34848, Note_on_c, 1, 53, 75
4, 34937, Note_on_c, 1, 53, 0
4, 35040, Note_on_c, 1, 53, 75
4, 35040, Note_on_c, 1, 48, 75
4, 35040, Note_on_c, 1, 45, 75
4, 35129, Note_on_c, 1, 53, 0
4, 35129, Note_on_c, 1, 48, 0
4, 35129, Note_on_c, 1, 45, 0
4, 35136, Note_on_c, 1, 46, 75
4, 35175, Note_on_c, 1, 46, 0
4, 35232, Note_on_c, 1, 48, 75
4, 35271, Note_on_c, 1, 48, 0
4, 35328, Note_on_c, 1, 36, 75
4, 35367, Note_on_c, 1, 36, 0
4, 35520, Note_on_c, 1, 57, 80
4, 35520, Note_on_c, 1, 53, 80
4, 35520, Note_on_c, 1, 48, 80
4, 35520, Note_on_c, 1, 45, 80
4, 35697, Note_on_c, 1, 57, 0
4, 35697, Note_on_c, 1, 53, 0
4, 35697, Note_on_c, 1, 48, 0
4, 35697, Note_on_c, 1, 45, 0
4, 35712, Note_on_c, 1, 58, 80
4, 35712, Note_on_c, 1, 46, 80
4, 35751, Note_on_c, 1, 58, 0
4, 35751, Note_on_c, 1, 46, 0
4, 35808, Note_on_c, 1, 34, 80
4, 35847, Note_on_c, 1, 34, 0
4, 35904, Note_on_c, 1, 48, 80
4, 35904, Note_on_c, 1, 36, 80
4, 35943, Note_on_c, 1, 48, 0
4, 35943, Note_on_c, 1, 36, 0
4, 36000, Note_on_c, 1, 41, 75
4, 36023, Note_on_c, 1, 41, 0
4, 36024, Note_on_c, 1, 53, 75
4, 36047, Note_on_c, 1, 53, 0
4, 36048, Note_on_c, 1, 52, 75
4, 36071, Note_on_c, 1, 52, 0
4, 36072, Note_on_c, 1, 53, 75
4, 36095, Note_on_c, 1, 53, 0
4, 36096, Note_on_c, 1, 41, 75
4, 36119, Note_on_c, 1, 41, 0
4, 36120, Note_on_c, 1, 53, 75
4, 36143, Note_on_c, 1, 53, 0
4, 36144, Note_on_c, 1, 46, 75
4, 36167, Note_on_c, 1, 46, 0
4, 36168, Note_on_c, 1, 53, 75
4, 36191, Note_on_c, 1, 53, 0
4, 36192, Note_on_c, 1, 45, 75
4, 36215, Note_on_c, 1, 45, 0
4, 36216, Note_on_c, 1, 53, 75
4, 36239, Note_on_c, 1, 53, 0
4, 36240, Note_on_c, 1, 43, 75
4, 36263, Note_on_c, 1, 43, 0
4, 36264, Note_on_c, 1, 53, 75
4, 36287, Note_on_c, 1, 53, 0
4, 36288, Note_on_c, 1, 41, 75
4, 36311, Note_on_c, 1, 41, 0
4, 36312, Note_on_c, 1, 53, 75
4, 36335, Note_on_c, 1, 53, 0
4, 36336, Note_on_c, 1, 52, 75
4, 36359, Note_on_c, 1, 52, 0
4, 36360, Note_on_c, 1, 53, 75
4, 36383, Note_on_c, 1, 53, 0
4, 36384, Note_on_c, 1, 41, 75
4, 36407, Note_on_c, 1, 41, 0
4, 36408, Note_on_c, 1, 53, 75
4, 36431, Note_on_c, 1, 53, 0
4, 36432, Note_on_c, 1, 46, 75
4, 36455, Note_on_c, 1, 46, 0
4, 36456, Note_on_c, 1, 53, 75
4, 36479, Note_on_c, 1, 53, 0
4, 36480, Note_on_c, 1, 45, 75
4, 36503, Note_on_c, 1, 45, 0
4, 36504, Note_on_c, 1, 53, 75
4, 36527, Note_on_c, 1, 53, 0
4, 36528, Note_on_c, 1, 43, 75
4, 36551, Note_on_c, 1, 43, 0
4, 36552, Note_on_c, 1, 53, 75
4, 36575, Note_on_c, 1, 53, 0
4, 36576, Note_on_c, 1, 64, 75
4, 36576, Note_on_c, 1, 58, 75
4, 36576, Note_on_c, 1, 41, 75
4, 36672, Note_on_c, 1, 64, 0
4, 36672, Note_on_c, 1, 58, 0
4, 36672, Note_on_c, 1, 45, 75
4, 36682, Note_on_c, 1, 48, 75
4, 36692, Note_on_c, 1, 53, 75
4, 36702, Note_on_c, 1, 57, 75
4, 36712, Note_on_c, 1, 60, 75
4, 36722, Note_on_c, 1, 65, 75
4, 36805, Note_on_c, 1, 65, 0
4, 36805, Note_on_c, 1, 60, 0
4, 36805, Note_on_c, 1, 57, 0
4, 36805, Note_on_c, 1, 53, 0
4, 36805, Note_on_c, 1, 48, 0
4, 36805, Note_on_c, 1, 45, 0
4, 36805, Note_on_c, 1, 41, 0
4, 36864, Note_on_c, 1, 41, 0
4, 36953, Note_on_c, 1, 41, 0
4, 36960, End_track
5, 0, Start_track
5, 0, Program_c, 1, 0
5, 0, Control_c, 1, 7, 127
5, 0, Control_c, 1, 10, 64
5, 2112, Note_on_c, 1, 70, 64
5, 2289, Note_on_c, 1, 70, 0
5, 2688, Note_on_c, 1, 55, 64
5, 2777, Note_on_c, 1, 55, 0
5, 2784, Note_on_c, 1, 55, 64
5, 3145, Note_on_c, 1, 55, 0
5, 3168, Note_on_c, 1, 55, 64
5, 3257, Note_on_c, 1, 55, 0
5, 3264, Note_on_c, 1, 55, 64
5, 3331, Note_on_c, 1, 55, 0
5, 3744, Note_on_c, 1, 60, 64
5, 4009, Note_on_c, 1, 60, 0
5, 4320, Note_on_c, 1, 60, 64
5, 4585, Note_on_c, 1, 60, 0
5, 10176, Note_on_c, 1, 70, 64
5, 10353, Note_on_c, 1, 70, 0
5, 10752, Note_on_c, 1, 55, 64
5, 10841, Note_on_c, 1, 55, 0
5, 10848, Note_on_c, 1, 55, 64
5, 11209, Note_on_c, 1, 55, 0
5, 11232, Note_on_c, 1, 55, 64
5, 11321, Note_on_c, 1, 55, 0
5, 11328, Note_on_c, 1, 55, 64
5, 11395, Note_on_c, 1, 55, 0
5, 11808, Note_on_c, 1, 60, 64
5, 12073, Note_on_c, 1, 60, 0
5, 12384, Note_on_c, 1, 60, 64
5, 12649, Note_on_c, 1, 60, 0
5, 21024, Note_on_c, 1, 45, 64
5, 21157, Note_on_c, 1, 45, 0
5, 21168, Note_on_c, 1, 46, 64
5, 21213, Note_on_c, 1, 46, 0
5, 21216, Note_on_c, 1, 48, 64
5, 21261, Note_on_c, 1, 48, 0
5, 21264, Note_on_c, 1, 45, 64
5, 21309, Note_on_c, 1, 45, 0
5, 21312, Note_on_c, 1, 46, 64
5, 21489, Note_on_c, 1, 46, 0
5, 21504, Note_on_c, 1, 47, 64
5, 21593, Note_on_c, 1, 47, 0
5, 21600, Note_on_c, 1, 48, 64
5, 21689, Note_on_c, 1, 48, 0
5, 21696, Note_on_c, 1, 48, 64
5, 21719, Note_on_c, 1, 48, 0
5, 21720, Note_on_c, 1, 48, 64
5, 21743, Note_on_c, 1, 48, 0
5, 21744, Note_on_c, 1, 47, 64
5, 21767, Note_on_c, 1, 47, 0
5, 21768, Note_on_c, 1, 48, 64
5, 21791, Note_on_c, 1, 48, 0
5, 21792, Note_on_c, 1, 52, 64
5, 21815, Note_on_c, 1, 52, 0
5, 21816, Note_on_c, 1, 48, 64
5, 21839, Note_on_c, 1, 48, 0
5, 21840, Note_on_c, 1, 55, 64
5, 21863, Note_on_c, 1, 55, 0
5, 21864, Note_on_c, 1, 52, 64
5, 21887, Note_on_c, 1, 52, 0
5, 22176, Note_on_c, 1, 53, 64
5, 22441, Note_on_c, 1, 53, 0
5, 22752, Note_on_c, 1, 53, 64
5, 23017, Note_on_c, 1, 53, 0
5, 31392, Note_on_c, 1, 45, 64
5, 31525, Note_on_c, 1, 45, 0
5, 31536, Note_on_c, 1, 46, 64
5, 31581, Note_on_c, 1, 46, 0
5, 31584, Note_on_c, 1, 48, 64
5, 31629, Note_on_c, 1, 48, 0
5, 31632, Note_on_c, 1, 45, 64
5, 31677, Note_on_c, 1, 45, 0
5, 31680, Note_on_c, 1, 46, 64
5, 31857, Note_on_c, 1, 46, 0
5, 31872, Note_on_c, 1, 47, 64
5, 31961, Note_on_c, 1, 47, 0
5, 31968, Note_on_c, 1, 48, 64
5, 32057, Note_on_c, 1, 48, 0
5, 32064, Note_on_c, 1, 48, 64
5, 32087, Note_on_c, 1, 48, 0
5, 32088, Note_on_c, 1, 48, 64
5, 32111, Note_on_c, 1, 48, 0
5, 32112, Note_on_c, 1, 47, 64
5, 32135, Note_on_c, 1, 47, 0
5, 32136, Note_on_c, 1, 48, 64
5, 32159, Note_on_c, 1, 48, 0
5, 32160, Note_on_c, 1, 52, 64
5, 32183, Note_on_c, 1, 52, 0
5, 32184, Note_on_c, 1, 48, 64
5, 32207, Note_on_c, 1, 48, 0
5, 32208, Note_on_c, 1, 55, 64
5, 32231, Note_on_c, 1, 55, 0
5, 32232, Note_on_c, 1, 52, 64
5, 32255, Note_on_c, 1, 52, 0
5, 32544, Note_on_c, 1, 53, 64
5, 32809, Note_on_c, 1, 53, 0
5, 33120, Note_on_c, 1, 53, 64
5, 33385, Note_on_c, 1, 53, 0
5, 36864, End_track
6, 0, Start_track
6, 0, Title_t, "Sonata I   Haydn  "
6, 0, End_track
0, 0, End_of_file
