0, 0, Header, 1, 6, 96
1, 0, Start_track
1, 0, Copyright_t, "Copyright  1994-2002 Mozart Music Software"
1, 0, Text_t, "Piano Sonata No 17 in Eb \015\012"
1, 0, Text_t, "FJ Haydn\015\012"
1, 0, Sequencer_specific, 16, 68, 87, 77, 90, 86, 82, 83, 78, 32, 55, 46, 48, 46, 55, 46, 48
1, 0, Time_signature, 2, 2, 24, 8
1, 0, Tempo, 428571
1, 0, Key_signature, -3, "major"
1, 144, Tempo, 444444
1, 8976, Tempo, 444444
1, 42432, End_track
2, 0, Start_track
2, 0, Program_c, 0, 0
2, 0, Control_c, 0, 7, 127
2, 0, Control_c, 0, 10, 64
2, 144, Note_on_c, 0, 70, 75
2, 159, Note_on_c, 0, 70, 0
2, 160, Note_on_c, 0, 72, 75
2, 175, Note_on_c, 0, 72, 0
2, 176, Note_on_c, 0, 70, 75
2, 191, Note_on_c, 0, 70, 0
2, 192, Note_on_c, 0, 75, 75
2, 237, Note_on_c, 0, 75, 0
2, 240, Note_on_c, 0, 75, 75
2, 255, Note_on_c, 0, 75, 0
2, 256, Note_on_c, 0, 77, 75
2, 271, Note_on_c, 0, 77, 0
2, 272, Note_on_c, 0, 75, 75
2, 287, Note_on_c, 0, 75, 0
2, 288, Note_on_c, 0, 79, 75
2, 333, Note_on_c, 0, 79, 0
2, 336, Note_on_c, 0, 79, 75
2, 351, Note_on_c, 0, 79, 0
2, 352, Note_on_c, 0, 80, 75
2, 367, Note_on_c, 0, 80, 0
2, 368, Note_on_c, 0, 79, 75
2, 383, Note_on_c, 0, 79, 0
2, 384, Note_on_c, 0, 82, 75
2, 517, Note_on_c, 0, 82, 0
2, 528, Note_on_c, 0, 79, 75
2, 543, Note_on_c, 0, 79, 0
2, 544, Note_on_c, 0, 80, 75
2, 559, Note_on_c, 0, 80, 0
2, 560, Note_on_c, 0, 79, 75
2, 575, Note_on_c, 0, 79, 0
2, 576, Note_on_c, 0, 82, 75
2, 709, Note_on_c, 0, 82, 0
2, 720, Note_on_c, 0, 79, 75
2, 743, Note_on_c, 0, 79, 0
2, 744, Note_on_c, 0, 82, 75
2, 767, Note_on_c, 0, 82, 0
2, 768, Note_on_c, 0, 80, 75
2, 813, Note_on_c, 0, 80, 0
2, 816, Note_on_c, 0, 80, 75
2, 861, Note_on_c, 0, 80, 0
2, 864, Note_on_c, 0, 80, 75
2, 876, Note_on_c, 0, 80, 0
2, 876, Note_on_c, 0, 82, 75
2, 888, Note_on_c, 0, 82, 0
2, 888, Note_on_c, 0, 80, 75
2, 900, Note_on_c, 0, 80, 0
2, 900, Note_on_c, 0, 82, 75
2, 909, Note_on_c, 0, 82, 0
2, 912, Note_on_c, 0, 79, 75
2, 935, Note_on_c, 0, 79, 0
2, 936, Note_on_c, 0, 77, 75
2, 959, Note_on_c, 0, 77, 0
2, 960, Note_on_c, 0, 79, 75
2, 1005, Note_on_c, 0, 79, 0
2, 1008, Note_on_c, 0, 75, 75
2, 1053, Note_on_c, 0, 75, 0
2, 1056, Note_on_c, 0, 75, 75
2, 1101, Note_on_c, 0, 75, 0
2, 1104, Note_on_c, 0, 79, 75
2, 1119, Note_on_c, 0, 79, 0
2, 1120, Note_on_c, 0, 80, 75
2, 1135, Note_on_c, 0, 80, 0
2, 1136, Note_on_c, 0, 82, 75
2, 1151, Note_on_c, 0, 82, 0
2, 1152, Note_on_c, 0, 80, 75
2, 1197, Note_on_c, 0, 80, 0
2, 1200, Note_on_c, 0, 80, 75
2, 1245, Note_on_c, 0, 80, 0
2, 1248, Note_on_c, 0, 80, 75
2, 1260, Note_on_c, 0, 80, 0
2, 1260, Note_on_c, 0, 82, 75
2, 1272, Note_on_c, 0, 82, 0
2, 1272, Note_on_c, 0, 80, 75
2, 1284, Note_on_c, 0, 80, 0
2, 1284, Note_on_c, 0, 82, 75
2, 1293, Note_on_c, 0, 82, 0
2, 1296, Note_on_c, 0, 79, 75
2, 1319, Note_on_c, 0, 79, 0
2, 1320, Note_on_c, 0, 77, 75
2, 1343, Note_on_c, 0, 77, 0
2, 1344, Note_on_c, 0, 79, 75
2, 1367, Note_on_c, 0, 79, 0
2, 1368, Note_on_c, 0, 75, 75
2, 1391, Note_on_c, 0, 75, 0
2, 1392, Note_on_c, 0, 74, 75
2, 1415, Note_on_c, 0, 74, 0
2, 1416, Note_on_c, 0, 75, 75
2, 1439, Note_on_c, 0, 75, 0
2, 1440, Note_on_c, 0, 77, 75
2, 1463, Note_on_c, 0, 77, 0
2, 1464, Note_on_c, 0, 75, 75
2, 1487, Note_on_c, 0, 75, 0
2, 1488, Note_on_c, 0, 74, 75
2, 1511, Note_on_c, 0, 74, 0
2, 1512, Note_on_c, 0, 75, 75
2, 1535, Note_on_c, 0, 75, 0
2, 1536, Note_on_c, 0, 72, 75
2, 1559, Note_on_c, 0, 72, 0
2, 1560, Note_on_c, 0, 75, 75
2, 1583, Note_on_c, 0, 75, 0
2, 1584, Note_on_c, 0, 74, 75
2, 1607, Note_on_c, 0, 74, 0
2, 1608, Note_on_c, 0, 72, 75
2, 1631, Note_on_c, 0, 72, 0
2, 1632, Note_on_c, 0, 70, 75
2, 1677, Note_on_c, 0, 70, 0
2, 1680, Note_on_c, 0, 75, 75
2, 1725, Note_on_c, 0, 75, 0
2, 1728, Note_on_c, 0, 68, 75
2, 1751, Note_on_c, 0, 68, 0
2, 1752, Note_on_c, 0, 72, 75
2, 1775, Note_on_c, 0, 72, 0
2, 1776, Note_on_c, 0, 70, 75
2, 1799, Note_on_c, 0, 70, 0
2, 1800, Note_on_c, 0, 68, 75
2, 1823, Note_on_c, 0, 68, 0
2, 1824, Note_on_c, 0, 67, 75
2, 1847, Note_on_c, 0, 67, 0
2, 1848, Note_on_c, 0, 70, 75
2, 1871, Note_on_c, 0, 70, 0
2, 1872, Note_on_c, 0, 68, 75
2, 1895, Note_on_c, 0, 68, 0
2, 1896, Note_on_c, 0, 67, 75
2, 1919, Note_on_c, 0, 67, 0
2, 1920, Note_on_c, 0, 65, 75
2, 1943, Note_on_c, 0, 65, 0
2, 1944, Note_on_c, 0, 68, 75
2, 1967, Note_on_c, 0, 68, 0
2, 1968, Note_on_c, 0, 67, 75
2, 1991, Note_on_c, 0, 67, 0
2, 1992, Note_on_c, 0, 65, 75
2, 2015, Note_on_c, 0, 65, 0
2, 2016, Note_on_c, 0, 72, 75
2, 2061, Note_on_c, 0, 72, 0
2, 2064, Note_on_c, 0, 63, 75
2, 2109, Note_on_c, 0, 63, 0
2, 2112, Note_on_c, 0, 63, 75
2, 2124, Note_on_c, 0, 63, 0
2, 2124, Note_on_c, 0, 65, 75
2, 2136, Note_on_c, 0, 65, 0
2, 2136, Note_on_c, 0, 63, 75
2, 2148, Note_on_c, 0, 63, 0
2, 2148, Note_on_c, 0, 65, 75
2, 2157, Note_on_c, 0, 65, 0
2, 2160, Note_on_c, 0, 62, 75
2, 2205, Note_on_c, 0, 62, 0
2, 2256, Note_on_c, 0, 77, 70
2, 2271, Note_on_c, 0, 77, 0
2, 2272, Note_on_c, 0, 79, 70
2, 2287, Note_on_c, 0, 79, 0
2, 2288, Note_on_c, 0, 77, 70
2, 2303, Note_on_c, 0, 77, 0
2, 2304, Note_on_c, 0, 82, 70
2, 2393, Note_on_c, 0, 82, 0
2, 2448, Note_on_c, 0, 78, 70
2, 2496, Note_on_c, 0, 78, 0
2, 2496, Note_on_c, 0, 79, 70
2, 2585, Note_on_c, 0, 79, 0
2, 2640, Note_on_c, 0, 79, 70
2, 2655, Note_on_c, 0, 79, 0
2, 2656, Note_on_c, 0, 81, 70
2, 2671, Note_on_c, 0, 81, 0
2, 2672, Note_on_c, 0, 79, 70
2, 2687, Note_on_c, 0, 79, 0
2, 2688, Note_on_c, 0, 84, 70
2, 2777, Note_on_c, 0, 84, 0
2, 2832, Note_on_c, 0, 79, 70
2, 2880, Note_on_c, 0, 79, 0
2, 2880, Note_on_c, 0, 81, 70
2, 2969, Note_on_c, 0, 81, 0
2, 3024, Note_on_c, 0, 84, 70
2, 3047, Note_on_c, 0, 84, 0
2, 3048, Note_on_c, 0, 81, 70
2, 3071, Note_on_c, 0, 81, 0
2, 3072, Note_on_c, 0, 75, 75
2, 3205, Note_on_c, 0, 75, 0
2, 3216, Note_on_c, 0, 79, 75
2, 3231, Note_on_c, 0, 79, 0
2, 3232, Note_on_c, 0, 77, 75
2, 3247, Note_on_c, 0, 77, 0
2, 3248, Note_on_c, 0, 75, 75
2, 3263, Note_on_c, 0, 75, 0
2, 3264, Note_on_c, 0, 74, 75
2, 3309, Note_on_c, 0, 74, 0
2, 3312, Note_on_c, 0, 77, 75
2, 3357, Note_on_c, 0, 77, 0
2, 3408, Note_on_c, 0, 82, 75
2, 3423, Note_on_c, 0, 82, 0
2, 3424, Note_on_c, 0, 84, 75
2, 3439, Note_on_c, 0, 84, 0
2, 3440, Note_on_c, 0, 86, 75
2, 3455, Note_on_c, 0, 86, 0
2, 3456, Note_on_c, 0, 84, 75
2, 3501, Note_on_c, 0, 84, 0
2, 3504, Note_on_c, 0, 81, 75
2, 3549, Note_on_c, 0, 81, 0
2, 3552, Note_on_c, 0, 77, 75
2, 3597, Note_on_c, 0, 77, 0
2, 3600, Note_on_c, 0, 75, 75
2, 3645, Note_on_c, 0, 75, 0
2, 3648, Note_on_c, 0, 74, 75
2, 3671, Note_on_c, 0, 74, 0
2, 3672, Note_on_c, 0, 82, 75
2, 3695, Note_on_c, 0, 82, 0
2, 3696, Note_on_c, 0, 81, 75
2, 3719, Note_on_c, 0, 81, 0
2, 3720, Note_on_c, 0, 79, 75
2, 3743, Note_on_c, 0, 79, 0
2, 3744, Note_on_c, 0, 77, 75
2, 3764, Note_on_c, 0, 77, 0
2, 3792, Note_on_c, 0, 77, 75
2, 3837, Note_on_c, 0, 77, 0
2, 3840, Note_on_c, 0, 79, 75
2, 3853, Note_on_c, 0, 79, 0
2, 3854, Note_on_c, 0, 77, 75
2, 3867, Note_on_c, 0, 77, 0
2, 3868, Note_on_c, 0, 79, 75
2, 3881, Note_on_c, 0, 79, 0
2, 3882, Note_on_c, 0, 77, 75
2, 3895, Note_on_c, 0, 77, 0
2, 3896, Note_on_c, 0, 79, 75
2, 3909, Note_on_c, 0, 79, 0
2, 3910, Note_on_c, 0, 77, 75
2, 3923, Note_on_c, 0, 77, 0
2, 3924, Note_on_c, 0, 79, 75
2, 3937, Note_on_c, 0, 79, 0
2, 3938, Note_on_c, 0, 77, 75
2, 3951, Note_on_c, 0, 77, 0
2, 3952, Note_on_c, 0, 79, 75
2, 3965, Note_on_c, 0, 79, 0
2, 3966, Note_on_c, 0, 77, 75
2, 3979, Note_on_c, 0, 77, 0
2, 3980, Note_on_c, 0, 75, 75
2, 4031, Note_on_c, 0, 75, 0
2, 4032, Note_on_c, 0, 74, 75
2, 4055, Note_on_c, 0, 74, 0
2, 4056, Note_on_c, 0, 77, 75
2, 4079, Note_on_c, 0, 77, 0
2, 4080, Note_on_c, 0, 75, 75
2, 4103, Note_on_c, 0, 75, 0
2, 4104, Note_on_c, 0, 74, 75
2, 4127, Note_on_c, 0, 74, 0
2, 4128, Note_on_c, 0, 79, 75
2, 4151, Note_on_c, 0, 79, 0
2, 4152, Note_on_c, 0, 75, 75
2, 4175, Note_on_c, 0, 75, 0
2, 4176, Note_on_c, 0, 74, 75
2, 4199, Note_on_c, 0, 74, 0
2, 4200, Note_on_c, 0, 72, 75
2, 4223, Note_on_c, 0, 72, 0
2, 4224, Note_on_c, 0, 77, 75
2, 4247, Note_on_c, 0, 77, 0
2, 4248, Note_on_c, 0, 74, 75
2, 4271, Note_on_c, 0, 74, 0
2, 4272, Note_on_c, 0, 72, 75
2, 4295, Note_on_c, 0, 72, 0
2, 4296, Note_on_c, 0, 70, 75
2, 4319, Note_on_c, 0, 70, 0
2, 4320, Note_on_c, 0, 75, 75
2, 4343, Note_on_c, 0, 75, 0
2, 4344, Note_on_c, 0, 72, 75
2, 4367, Note_on_c, 0, 72, 0
2, 4368, Note_on_c, 0, 70, 75
2, 4391, Note_on_c, 0, 70, 0
2, 4392, Note_on_c, 0, 69, 75
2, 4415, Note_on_c, 0, 69, 0
2, 4416, Note_on_c, 0, 70, 75
2, 4439, Note_on_c, 0, 70, 0
2, 4440, Note_on_c, 0, 65, 75
2, 4463, Note_on_c, 0, 65, 0
2, 4464, Note_on_c, 0, 63, 75
2, 4487, Note_on_c, 0, 63, 0
2, 4488, Note_on_c, 0, 62, 75
2, 4511, Note_on_c, 0, 62, 0
2, 4512, Note_on_c, 0, 67, 75
2, 4535, Note_on_c, 0, 67, 0
2, 4536, Note_on_c, 0, 63, 75
2, 4559, Note_on_c, 0, 63, 0
2, 4560, Note_on_c, 0, 62, 75
2, 4583, Note_on_c, 0, 62, 0
2, 4584, Note_on_c, 0, 60, 75
2, 4607, Note_on_c, 0, 60, 0
2, 4608, Note_on_c, 0, 65, 75
2, 4631, Note_on_c, 0, 65, 0
2, 4632, Note_on_c, 0, 62, 75
2, 4655, Note_on_c, 0, 62, 0
2, 4656, Note_on_c, 0, 60, 75
2, 4679, Note_on_c, 0, 60, 0
2, 4680, Note_on_c, 0, 58, 75
2, 4703, Note_on_c, 0, 58, 0
2, 4704, Note_on_c, 0, 63, 75
2, 4727, Note_on_c, 0, 63, 0
2, 4728, Note_on_c, 0, 60, 75
2, 4751, Note_on_c, 0, 60, 0
2, 4752, Note_on_c, 0, 58, 75
2, 4775, Note_on_c, 0, 58, 0
2, 4776, Note_on_c, 0, 57, 75
2, 4799, Note_on_c, 0, 57, 0
2, 4824, Note_on_c, 0, 58, 75
2, 4847, Note_on_c, 0, 58, 0
2, 4848, Note_on_c, 0, 60, 75
2, 4871, Note_on_c, 0, 60, 0
2, 4872, Note_on_c, 0, 62, 75
2, 4895, Note_on_c, 0, 62, 0
2, 4896, Note_on_c, 0, 63, 75
2, 4919, Note_on_c, 0, 63, 0
2, 4920, Note_on_c, 0, 65, 75
2, 4943, Note_on_c, 0, 65, 0
2, 4944, Note_on_c, 0, 67, 75
2, 4967, Note_on_c, 0, 67, 0
2, 4968, Note_on_c, 0, 69, 75
2, 4991, Note_on_c, 0, 69, 0
2, 4992, Note_on_c, 0, 70, 75
2, 5081, Note_on_c, 0, 70, 0
2, 5208, Note_on_c, 0, 70, 75
2, 5231, Note_on_c, 0, 70, 0
2, 5232, Note_on_c, 0, 72, 75
2, 5255, Note_on_c, 0, 72, 0
2, 5256, Note_on_c, 0, 74, 75
2, 5279, Note_on_c, 0, 74, 0
2, 5280, Note_on_c, 0, 75, 75
2, 5303, Note_on_c, 0, 75, 0
2, 5304, Note_on_c, 0, 77, 75
2, 5327, Note_on_c, 0, 77, 0
2, 5328, Note_on_c, 0, 79, 75
2, 5351, Note_on_c, 0, 79, 0
2, 5352, Note_on_c, 0, 81, 75
2, 5375, Note_on_c, 0, 81, 0
2, 5376, Note_on_c, 0, 82, 75
2, 5509, Note_on_c, 0, 82, 0
2, 5520, Note_on_c, 0, 86, 75
2, 5535, Note_on_c, 0, 86, 0
2, 5536, Note_on_c, 0, 84, 75
2, 5551, Note_on_c, 0, 84, 0
2, 5552, Note_on_c, 0, 82, 75
2, 5567, Note_on_c, 0, 82, 0
2, 5568, Note_on_c, 0, 81, 75
2, 5657, Note_on_c, 0, 81, 0
2, 5664, Note_on_c, 0, 84, 75
2, 5753, Note_on_c, 0, 84, 0
2, 5760, Note_on_c, 0, 75, 75
2, 5893, Note_on_c, 0, 75, 0
2, 5904, Note_on_c, 0, 79, 75
2, 5919, Note_on_c, 0, 79, 0
2, 5920, Note_on_c, 0, 77, 75
2, 5935, Note_on_c, 0, 77, 0
2, 5936, Note_on_c, 0, 75, 75
2, 5951, Note_on_c, 0, 75, 0
2, 5952, Note_on_c, 0, 74, 75
2, 6041, Note_on_c, 0, 74, 0
2, 6048, Note_on_c, 0, 77, 75
2, 6137, Note_on_c, 0, 77, 0
2, 6144, Note_on_c, 0, 75, 75
2, 6277, Note_on_c, 0, 75, 0
2, 6288, Note_on_c, 0, 79, 75
2, 6303, Note_on_c, 0, 79, 0
2, 6304, Note_on_c, 0, 77, 75
2, 6319, Note_on_c, 0, 77, 0
2, 6320, Note_on_c, 0, 75, 75
2, 6335, Note_on_c, 0, 75, 0
2, 6336, Note_on_c, 0, 74, 75
2, 6469, Note_on_c, 0, 74, 0
2, 6480, Note_on_c, 0, 77, 75
2, 6495, Note_on_c, 0, 77, 0
2, 6496, Note_on_c, 0, 75, 75
2, 6511, Note_on_c, 0, 75, 0
2, 6512, Note_on_c, 0, 74, 75
2, 6527, Note_on_c, 0, 74, 0
2, 6528, Note_on_c, 0, 72, 75
2, 6573, Note_on_c, 0, 72, 0
2, 6576, Note_on_c, 0, 78, 75
2, 6600, Note_on_c, 0, 78, 0
2, 6600, Note_on_c, 0, 79, 75
2, 6623, Note_on_c, 0, 79, 0
2, 6624, Note_on_c, 0, 77, 75
2, 6647, Note_on_c, 0, 77, 0
2, 6648, Note_on_c, 0, 75, 75
2, 6671, Note_on_c, 0, 75, 0
2, 6672, Note_on_c, 0, 74, 75
2, 6695, Note_on_c, 0, 74, 0
2, 6696, Note_on_c, 0, 72, 75
2, 6719, Note_on_c, 0, 72, 0
2, 6720, Note_on_c, 0, 70, 75
2, 6809, Note_on_c, 0, 70, 0
2, 6816, Note_on_c, 0, 74, 75
2, 6839, Note_on_c, 0, 74, 0
2, 6840, Note_on_c, 0, 72, 75
2, 6863, Note_on_c, 0, 72, 0
2, 6864, Note_on_c, 0, 70, 75
2, 6887, Note_on_c, 0, 70, 0
2, 6888, Note_on_c, 0, 69, 75
2, 6911, Note_on_c, 0, 69, 0
2, 6912, Note_on_c, 0, 70, 75
2, 6957, Note_on_c, 0, 70, 0
2, 6960, Note_on_c, 0, 81, 73
2, 6984, Note_on_c, 0, 81, 0
2, 6984, Note_on_c, 0, 82, 72
2, 7007, Note_on_c, 0, 82, 0
2, 7008, Note_on_c, 0, 81, 71
2, 7031, Note_on_c, 0, 81, 0
2, 7032, Note_on_c, 0, 79, 71
2, 7055, Note_on_c, 0, 79, 0
2, 7056, Note_on_c, 0, 77, 70
2, 7079, Note_on_c, 0, 77, 0
2, 7080, Note_on_c, 0, 76, 69
2, 7103, Note_on_c, 0, 76, 0
2, 7104, Note_on_c, 0, 77, 68
2, 7149, Note_on_c, 0, 77, 0
2, 7152, Note_on_c, 0, 81, 67
2, 7176, Note_on_c, 0, 81, 0
2, 7176, Note_on_c, 0, 82, 66
2, 7199, Note_on_c, 0, 82, 0
2, 7200, Note_on_c, 0, 81, 65
2, 7223, Note_on_c, 0, 81, 0
2, 7224, Note_on_c, 0, 79, 64
2, 7247, Note_on_c, 0, 79, 0
2, 7248, Note_on_c, 0, 77, 63
2, 7271, Note_on_c, 0, 77, 0
2, 7272, Note_on_c, 0, 76, 63
2, 7295, Note_on_c, 0, 76, 0
2, 7296, Note_on_c, 0, 77, 62
2, 7385, Note_on_c, 0, 77, 0
2, 7440, Note_on_c, 0, 77, 80
2, 7455, Note_on_c, 0, 77, 0
2, 7456, Note_on_c, 0, 79, 80
2, 7471, Note_on_c, 0, 79, 0
2, 7472, Note_on_c, 0, 77, 80
2, 7487, Note_on_c, 0, 77, 0
2, 7488, Note_on_c, 0, 82, 80
2, 7533, Note_on_c, 0, 82, 0
2, 7536, Note_on_c, 0, 74, 80
2, 7551, Note_on_c, 0, 74, 0
2, 7552, Note_on_c, 0, 75, 80
2, 7567, Note_on_c, 0, 75, 0
2, 7568, Note_on_c, 0, 74, 80
2, 7583, Note_on_c, 0, 74, 0
2, 7584, Note_on_c, 0, 77, 80
2, 7629, Note_on_c, 0, 77, 0
2, 7632, Note_on_c, 0, 70, 80
2, 7647, Note_on_c, 0, 70, 0
2, 7648, Note_on_c, 0, 72, 80
2, 7663, Note_on_c, 0, 72, 0
2, 7664, Note_on_c, 0, 70, 80
2, 7679, Note_on_c, 0, 70, 0
2, 7680, Note_on_c, 0, 74, 80
2, 7725, Note_on_c, 0, 74, 0
2, 7728, Note_on_c, 0, 65, 80
2, 7743, Note_on_c, 0, 65, 0
2, 7744, Note_on_c, 0, 67, 80
2, 7759, Note_on_c, 0, 67, 0
2, 7760, Note_on_c, 0, 65, 80
2, 7775, Note_on_c, 0, 65, 0
2, 7776, Note_on_c, 0, 70, 80
2, 7821, Note_on_c, 0, 70, 0
2, 7824, Note_on_c, 0, 62, 80
2, 7869, Note_on_c, 0, 62, 0
2, 7872, Note_on_c, 0, 63, 80
2, 7884, Note_on_c, 0, 63, 0
2, 7884, Note_on_c, 0, 65, 80
2, 7896, Note_on_c, 0, 65, 0
2, 7896, Note_on_c, 0, 63, 80
2, 7908, Note_on_c, 0, 63, 0
2, 7908, Note_on_c, 0, 65, 80
2, 7917, Note_on_c, 0, 65, 0
2, 7920, Note_on_c, 0, 62, 80
2, 7943, Note_on_c, 0, 62, 0
2, 7944, Note_on_c, 0, 63, 80
2, 7967, Note_on_c, 0, 63, 0
2, 7968, Note_on_c, 0, 65, 80
2, 7988, Note_on_c, 0, 65, 0
2, 8016, Note_on_c, 0, 65, 80
2, 8061, Note_on_c, 0, 65, 0
2, 8064, Note_on_c, 0, 67, 80
2, 8153, Note_on_c, 0, 67, 0
2, 8208, Note_on_c, 0, 77, 80
2, 8223, Note_on_c, 0, 77, 0
2, 8224, Note_on_c, 0, 79, 80
2, 8239, Note_on_c, 0, 79, 0
2, 8240, Note_on_c, 0, 77, 80
2, 8255, Note_on_c, 0, 77, 0
2, 8256, Note_on_c, 0, 82, 80
2, 8301, Note_on_c, 0, 82, 0
2, 8304, Note_on_c, 0, 74, 80
2, 8319, Note_on_c, 0, 74, 0
2, 8320, Note_on_c, 0, 75, 80
2, 8335, Note_on_c, 0, 75, 0
2, 8336, Note_on_c, 0, 74, 80
2, 8351, Note_on_c, 0, 74, 0
2, 8352, Note_on_c, 0, 77, 80
2, 8397, Note_on_c, 0, 77, 0
2, 8400, Note_on_c, 0, 70, 80
2, 8415, Note_on_c, 0, 70, 0
2, 8416, Note_on_c, 0, 72, 80
2, 8431, Note_on_c, 0, 72, 0
2, 8432, Note_on_c, 0, 70, 80
2, 8447, Note_on_c, 0, 70, 0
2, 8448, Note_on_c, 0, 74, 80
2, 8493, Note_on_c, 0, 74, 0
2, 8496, Note_on_c, 0, 65, 80
2, 8511, Note_on_c, 0, 65, 0
2, 8512, Note_on_c, 0, 67, 80
2, 8527, Note_on_c, 0, 67, 0
2, 8528, Note_on_c, 0, 65, 80
2, 8543, Note_on_c, 0, 65, 0
2, 8544, Note_on_c, 0, 70, 80
2, 8589, Note_on_c, 0, 70, 0
2, 8592, Note_on_c, 0, 62, 80
2, 8637, Note_on_c, 0, 62, 0
2, 8640, Note_on_c, 0, 63, 80
2, 8652, Note_on_c, 0, 63, 0
2, 8652, Note_on_c, 0, 65, 80
2, 8664, Note_on_c, 0, 65, 0
2, 8664, Note_on_c, 0, 63, 80
2, 8676, Note_on_c, 0, 63, 0
2, 8676, Note_on_c, 0, 65, 80
2, 8685, Note_on_c, 0, 65, 0
2, 8688, Note_on_c, 0, 62, 80
2, 8711, Note_on_c, 0, 62, 0
2, 8712, Note_on_c, 0, 63, 80
2, 8735, Note_on_c, 0, 63, 0
2, 8736, Note_on_c, 0, 65, 80
2, 8756, Note_on_c, 0, 65, 0
2, 8784, Note_on_c, 0, 65, 80
2, 8829, Note_on_c, 0, 65, 0
2, 8832, Note_on_c, 0, 58, 80
2, 8921, Note_on_c, 0, 58, 0
2, 8976, Note_on_c, 0, 70, 75
2, 8991, Note_on_c, 0, 70, 0
2, 8992, Note_on_c, 0, 72, 75
2, 9007, Note_on_c, 0, 72, 0
2, 9008, Note_on_c, 0, 70, 75
2, 9023, Note_on_c, 0, 70, 0
2, 9024, Note_on_c, 0, 75, 75
2, 9069, Note_on_c, 0, 75, 0
2, 9072, Note_on_c, 0, 75, 75
2, 9087, Note_on_c, 0, 75, 0
2, 9088, Note_on_c, 0, 77, 75
2, 9103, Note_on_c, 0, 77, 0
2, 9104, Note_on_c, 0, 75, 75
2, 9119, Note_on_c, 0, 75, 0
2, 9120, Note_on_c, 0, 79, 75
2, 9165, Note_on_c, 0, 79, 0
2, 9168, Note_on_c, 0, 79, 75
2, 9183, Note_on_c, 0, 79, 0
2, 9184, Note_on_c, 0, 80, 75
2, 9199, Note_on_c, 0, 80, 0
2, 9200, Note_on_c, 0, 79, 75
2, 9215, Note_on_c, 0, 79, 0
2, 9216, Note_on_c, 0, 82, 75
2, 9349, Note_on_c, 0, 82, 0
2, 9360, Note_on_c, 0, 79, 75
2, 9375, Note_on_c, 0, 79, 0
2, 9376, Note_on_c, 0, 80, 75
2, 9391, Note_on_c, 0, 80, 0
2, 9392, Note_on_c, 0, 79, 75
2, 9407, Note_on_c, 0, 79, 0
2, 9408, Note_on_c, 0, 82, 75
2, 9541, Note_on_c, 0, 82, 0
2, 9552, Note_on_c, 0, 79, 75
2, 9575, Note_on_c, 0, 79, 0
2, 9576, Note_on_c, 0, 82, 75
2, 9599, Note_on_c, 0, 82, 0
2, 9600, Note_on_c, 0, 80, 75
2, 9645, Note_on_c, 0, 80, 0
2, 9648, Note_on_c, 0, 80, 75
2, 9693, Note_on_c, 0, 80, 0
2, 9696, Note_on_c, 0, 80, 75
2, 9708, Note_on_c, 0, 80, 0
2, 9708, Note_on_c, 0, 82, 75
2, 9720, Note_on_c, 0, 82, 0
2, 9720, Note_on_c, 0, 80, 75
2, 9732, Note_on_c, 0, 80, 0
2, 9732, Note_on_c, 0, 82, 75
2, 9741, Note_on_c, 0, 82, 0
2, 9744, Note_on_c, 0, 79, 75
2, 9767, Note_on_c, 0, 79, 0
2, 9768, Note_on_c, 0, 77, 75
2, 9791, Note_on_c, 0, 77, 0
2, 9792, Note_on_c, 0, 79, 75
2, 9837, Note_on_c, 0, 79, 0
2, 9840, Note_on_c, 0, 75, 75
2, 9885, Note_on_c, 0, 75, 0
2, 9888, Note_on_c, 0, 75, 75
2, 9933, Note_on_c, 0, 75, 0
2, 9936, Note_on_c, 0, 79, 75
2, 9951, Note_on_c, 0, 79, 0
2, 9952, Note_on_c, 0, 80, 75
2, 9967, Note_on_c, 0, 80, 0
2, 9968, Note_on_c, 0, 82, 75
2, 9983, Note_on_c, 0, 82, 0
2, 9984, Note_on_c, 0, 80, 75
2, 10029, Note_on_c, 0, 80, 0
2, 10032, Note_on_c, 0, 80, 75
2, 10077, Note_on_c, 0, 80, 0
2, 10080, Note_on_c, 0, 80, 75
2, 10092, Note_on_c, 0, 80, 0
2, 10092, Note_on_c, 0, 82, 75
2, 10104, Note_on_c, 0, 82, 0
2, 10104, Note_on_c, 0, 80, 75
2, 10116, Note_on_c, 0, 80, 0
2, 10116, Note_on_c, 0, 82, 75
2, 10125, Note_on_c, 0, 82, 0
2, 10128, Note_on_c, 0, 79, 75
2, 10151, Note_on_c, 0, 79, 0
2, 10152, Note_on_c, 0, 77, 75
2, 10175, Note_on_c, 0, 77, 0
2, 10176, Note_on_c, 0, 79, 75
2, 10199, Note_on_c, 0, 79, 0
2, 10200, Note_on_c, 0, 75, 75
2, 10223, Note_on_c, 0, 75, 0
2, 10224, Note_on_c, 0, 74, 75
2, 10247, Note_on_c, 0, 74, 0
2, 10248, Note_on_c, 0, 75, 75
2, 10271, Note_on_c, 0, 75, 0
2, 10272, Note_on_c, 0, 77, 75
2, 10295, Note_on_c, 0, 77, 0
2, 10296, Note_on_c, 0, 75, 75
2, 10319, Note_on_c, 0, 75, 0
2, 10320, Note_on_c, 0, 74, 75
2, 10343, Note_on_c, 0, 74, 0
2, 10344, Note_on_c, 0, 75, 75
2, 10367, Note_on_c, 0, 75, 0
2, 10368, Note_on_c, 0, 72, 75
2, 10391, Note_on_c, 0, 72, 0
2, 10392, Note_on_c, 0, 75, 75
2, 10415, Note_on_c, 0, 75, 0
2, 10416, Note_on_c, 0, 74, 75
2, 10439, Note_on_c, 0, 74, 0
2, 10440, Note_on_c, 0, 72, 75
2, 10463, Note_on_c, 0, 72, 0
2, 10464, Note_on_c, 0, 70, 75
2, 10509, Note_on_c, 0, 70, 0
2, 10512, Note_on_c, 0, 75, 75
2, 10557, Note_on_c, 0, 75, 0
2, 10560, Note_on_c, 0, 68, 75
2, 10583, Note_on_c, 0, 68, 0
2, 10584, Note_on_c, 0, 72, 75
2, 10607, Note_on_c, 0, 72, 0
2, 10608, Note_on_c, 0, 70, 75
2, 10631, Note_on_c, 0, 70, 0
2, 10632, Note_on_c, 0, 68, 75
2, 10655, Note_on_c, 0, 68, 0
2, 10656, Note_on_c, 0, 67, 75
2, 10679, Note_on_c, 0, 67, 0
2, 10680, Note_on_c, 0, 70, 75
2, 10703, Note_on_c, 0, 70, 0
2, 10704, Note_on_c, 0, 68, 75
2, 10727, Note_on_c, 0, 68, 0
2, 10728, Note_on_c, 0, 67, 75
2, 10751, Note_on_c, 0, 67, 0
2, 10752, Note_on_c, 0, 65, 75
2, 10775, Note_on_c, 0, 65, 0
2, 10776, Note_on_c, 0, 68, 75
2, 10799, Note_on_c, 0, 68, 0
2, 10800, Note_on_c, 0, 67, 75
2, 10823, Note_on_c, 0, 67, 0
2, 10824, Note_on_c, 0, 65, 75
2, 10847, Note_on_c, 0, 65, 0
2, 10848, Note_on_c, 0, 72, 75
2, 10893, Note_on_c, 0, 72, 0
2, 10896, Note_on_c, 0, 63, 75
2, 10941, Note_on_c, 0, 63, 0
2, 10944, Note_on_c, 0, 63, 75
2, 10956, Note_on_c, 0, 63, 0
2, 10956, Note_on_c, 0, 65, 75
2, 10968, Note_on_c, 0, 65, 0
2, 10968, Note_on_c, 0, 63, 75
2, 10980, Note_on_c, 0, 63, 0
2, 10980, Note_on_c, 0, 65, 75
2, 10989, Note_on_c, 0, 65, 0
2, 10992, Note_on_c, 0, 62, 75
2, 11037, Note_on_c, 0, 62, 0
2, 11088, Note_on_c, 0, 77, 70
2, 11103, Note_on_c, 0, 77, 0
2, 11104, Note_on_c, 0, 79, 70
2, 11119, Note_on_c, 0, 79, 0
2, 11120, Note_on_c, 0, 77, 70
2, 11135, Note_on_c, 0, 77, 0
2, 11136, Note_on_c, 0, 82, 70
2, 11225, Note_on_c, 0, 82, 0
2, 11280, Note_on_c, 0, 78, 70
2, 11328, Note_on_c, 0, 78, 0
2, 11328, Note_on_c, 0, 79, 70
2, 11417, Note_on_c, 0, 79, 0
2, 11472, Note_on_c, 0, 79, 70
2, 11487, Note_on_c, 0, 79, 0
2, 11488, Note_on_c, 0, 81, 70
2, 11503, Note_on_c, 0, 81, 0
2, 11504, Note_on_c, 0, 79, 70
2, 11519, Note_on_c, 0, 79, 0
2, 11520, Note_on_c, 0, 84, 70
2, 11609, Note_on_c, 0, 84, 0
2, 11664, Note_on_c, 0, 79, 70
2, 11712, Note_on_c, 0, 79, 0
2, 11712, Note_on_c, 0, 81, 70
2, 11801, Note_on_c, 0, 81, 0
2, 11856, Note_on_c, 0, 84, 70
2, 11879, Note_on_c, 0, 84, 0
2, 11880, Note_on_c, 0, 81, 70
2, 11903, Note_on_c, 0, 81, 0
2, 11904, Note_on_c, 0, 75, 75
2, 12037, Note_on_c, 0, 75, 0
2, 12048, Note_on_c, 0, 79, 75
2, 12063, Note_on_c, 0, 79, 0
2, 12064, Note_on_c, 0, 77, 75
2, 12079, Note_on_c, 0, 77, 0
2, 12080, Note_on_c, 0, 75, 75
2, 12095, Note_on_c, 0, 75, 0
2, 12096, Note_on_c, 0, 74, 75
2, 12141, Note_on_c, 0, 74, 0
2, 12144, Note_on_c, 0, 77, 75
2, 12189, Note_on_c, 0, 77, 0
2, 12240, Note_on_c, 0, 82, 75
2, 12255, Note_on_c, 0, 82, 0
2, 12256, Note_on_c, 0, 84, 75
2, 12271, Note_on_c, 0, 84, 0
2, 12272, Note_on_c, 0, 86, 75
2, 12287, Note_on_c, 0, 86, 0
2, 12288, Note_on_c, 0, 84, 75
2, 12333, Note_on_c, 0, 84, 0
2, 12336, Note_on_c, 0, 81, 75
2, 12381, Note_on_c, 0, 81, 0
2, 12384, Note_on_c, 0, 77, 75
2, 12429, Note_on_c, 0, 77, 0
2, 12432, Note_on_c, 0, 75, 75
2, 12477, Note_on_c, 0, 75, 0
2, 12480, Note_on_c, 0, 74, 75
2, 12503, Note_on_c, 0, 74, 0
2, 12504, Note_on_c, 0, 82, 75
2, 12527, Note_on_c, 0, 82, 0
2, 12528, Note_on_c, 0, 81, 75
2, 12551, Note_on_c, 0, 81, 0
2, 12552, Note_on_c, 0, 79, 75
2, 12575, Note_on_c, 0, 79, 0
2, 12576, Note_on_c, 0, 77, 75
2, 12596, Note_on_c, 0, 77, 0
2, 12624, Note_on_c, 0, 77, 75
2, 12669, Note_on_c, 0, 77, 0
2, 12672, Note_on_c, 0, 79, 75
2, 12685, Note_on_c, 0, 79, 0
2, 12686, Note_on_c, 0, 77, 75
2, 12699, Note_on_c, 0, 77, 0
2, 12700, Note_on_c, 0, 79, 75
2, 12713, Note_on_c, 0, 79, 0
2, 12714, Note_on_c, 0, 77, 75
2, 12727, Note_on_c, 0, 77, 0
2, 12728, Note_on_c, 0, 79, 75
2, 12741, Note_on_c, 0, 79, 0
2, 12742, Note_on_c, 0, 77, 75
2, 12755, Note_on_c, 0, 77, 0
2, 12756, Note_on_c, 0, 79, 75
2, 12769, Note_on_c, 0, 79, 0
2, 12770, Note_on_c, 0, 77, 75
2, 12783, Note_on_c, 0, 77, 0
2, 12784, Note_on_c, 0, 79, 75
2, 12797, Note_on_c, 0, 79, 0
2, 12798, Note_on_c, 0, 77, 75
2, 12811, Note_on_c, 0, 77, 0
2, 12812, Note_on_c, 0, 75, 75
2, 12863, Note_on_c, 0, 75, 0
2, 12864, Note_on_c, 0, 74, 75
2, 12887, Note_on_c, 0, 74, 0
2, 12888, Note_on_c, 0, 77, 75
2, 12911, Note_on_c, 0, 77, 0
2, 12912, Note_on_c, 0, 75, 75
2, 12935, Note_on_c, 0, 75, 0
2, 12936, Note_on_c, 0, 74, 75
2, 12959, Note_on_c, 0, 74, 0
2, 12960, Note_on_c, 0, 79, 75
2, 12983, Note_on_c, 0, 79, 0
2, 12984, Note_on_c, 0, 75, 75
2, 13007, Note_on_c, 0, 75, 0
2, 13008, Note_on_c, 0, 74, 75
2, 13031, Note_on_c, 0, 74, 0
2, 13032, Note_on_c, 0, 72, 75
2, 13055, Note_on_c, 0, 72, 0
2, 13056, Note_on_c, 0, 77, 75
2, 13079, Note_on_c, 0, 77, 0
2, 13080, Note_on_c, 0, 74, 75
2, 13103, Note_on_c, 0, 74, 0
2, 13104, Note_on_c, 0, 72, 75
2, 13127, Note_on_c, 0, 72, 0
2, 13128, Note_on_c, 0, 70, 75
2, 13151, Note_on_c, 0, 70, 0
2, 13152, Note_on_c, 0, 75, 75
2, 13175, Note_on_c, 0, 75, 0
2, 13176, Note_on_c, 0, 72, 75
2, 13199, Note_on_c, 0, 72, 0
2, 13200, Note_on_c, 0, 70, 75
2, 13223, Note_on_c, 0, 70, 0
2, 13224, Note_on_c, 0, 69, 75
2, 13247, Note_on_c, 0, 69, 0
2, 13248, Note_on_c, 0, 70, 75
2, 13271, Note_on_c, 0, 70, 0
2, 13272, Note_on_c, 0, 65, 75
2, 13295, Note_on_c, 0, 65, 0
2, 13296, Note_on_c, 0, 63, 75
2, 13319, Note_on_c, 0, 63, 0
2, 13320, Note_on_c, 0, 62, 75
2, 13343, Note_on_c, 0, 62, 0
2, 13344, Note_on_c, 0, 67, 75
2, 13367, Note_on_c, 0, 67, 0
2, 13368, Note_on_c, 0, 63, 75
2, 13391, Note_on_c, 0, 63, 0
2, 13392, Note_on_c, 0, 62, 75
2, 13415, Note_on_c, 0, 62, 0
2, 13416, Note_on_c, 0, 60, 75
2, 13439, Note_on_c, 0, 60, 0
2, 13440, Note_on_c, 0, 65, 75
2, 13463, Note_on_c, 0, 65, 0
2, 13464, Note_on_c, 0, 62, 75
2, 13487, Note_on_c, 0, 62, 0
2, 13488, Note_on_c, 0, 60, 75
2, 13511, Note_on_c, 0, 60, 0
2, 13512, Note_on_c, 0, 58, 75
2, 13535, Note_on_c, 0, 58, 0
2, 13536, Note_on_c, 0, 63, 75
2, 13559, Note_on_c, 0, 63, 0
2, 13560, Note_on_c, 0, 60, 75
2, 13583, Note_on_c, 0, 60, 0
2, 13584, Note_on_c, 0, 58, 75
2, 13607, Note_on_c, 0, 58, 0
2, 13608, Note_on_c, 0, 57, 75
2, 13631, Note_on_c, 0, 57, 0
2, 13656, Note_on_c, 0, 58, 75
2, 13679, Note_on_c, 0, 58, 0
2, 13680, Note_on_c, 0, 60, 75
2, 13703, Note_on_c, 0, 60, 0
2, 13704, Note_on_c, 0, 62, 75
2, 13727, Note_on_c, 0, 62, 0
2, 13728, Note_on_c, 0, 63, 75
2, 13751, Note_on_c, 0, 63, 0
2, 13752, Note_on_c, 0, 65, 75
2, 13775, Note_on_c, 0, 65, 0
2, 13776, Note_on_c, 0, 67, 75
2, 13799, Note_on_c, 0, 67, 0
2, 13800, Note_on_c, 0, 69, 75
2, 13823, Note_on_c, 0, 69, 0
2, 13824, Note_on_c, 0, 70, 75
2, 13913, Note_on_c, 0, 70, 0
2, 14040, Note_on_c, 0, 70, 75
2, 14063, Note_on_c, 0, 70, 0
2, 14064, Note_on_c, 0, 72, 75
2, 14087, Note_on_c, 0, 72, 0
2, 14088, Note_on_c, 0, 74, 75
2, 14111, Note_on_c, 0, 74, 0
2, 14112, Note_on_c, 0, 75, 75
2, 14135, Note_on_c, 0, 75, 0
2, 14136, Note_on_c, 0, 77, 75
2, 14159, Note_on_c, 0, 77, 0
2, 14160, Note_on_c, 0, 79, 75
2, 14183, Note_on_c, 0, 79, 0
2, 14184, Note_on_c, 0, 81, 75
2, 14207, Note_on_c, 0, 81, 0
2, 14208, Note_on_c, 0, 82, 75
2, 14341, Note_on_c, 0, 82, 0
2, 14352, Note_on_c, 0, 86, 75
2, 14367, Note_on_c, 0, 86, 0
2, 14368, Note_on_c, 0, 84, 75
2, 14383, Note_on_c, 0, 84, 0
2, 14384, Note_on_c, 0, 82, 75
2, 14399, Note_on_c, 0, 82, 0
2, 14400, Note_on_c, 0, 81, 75
2, 14489, Note_on_c, 0, 81, 0
2, 14496, Note_on_c, 0, 84, 75
2, 14585, Note_on_c, 0, 84, 0
2, 14592, Note_on_c, 0, 75, 75
2, 14725, Note_on_c, 0, 75, 0
2, 14736, Note_on_c, 0, 79, 75
2, 14751, Note_on_c, 0, 79, 0
2, 14752, Note_on_c, 0, 77, 75
2, 14767, Note_on_c, 0, 77, 0
2, 14768, Note_on_c, 0, 75, 75
2, 14783, Note_on_c, 0, 75, 0
2, 14784, Note_on_c, 0, 74, 75
2, 14873, Note_on_c, 0, 74, 0
2, 14880, Note_on_c, 0, 77, 75
2, 14969, Note_on_c, 0, 77, 0
2, 14976, Note_on_c, 0, 75, 75
2, 15109, Note_on_c, 0, 75, 0
2, 15120, Note_on_c, 0, 79, 75
2, 15135, Note_on_c, 0, 79, 0
2, 15136, Note_on_c, 0, 77, 75
2, 15151, Note_on_c, 0, 77, 0
2, 15152, Note_on_c, 0, 75, 75
2, 15167, Note_on_c, 0, 75, 0
2, 15168, Note_on_c, 0, 74, 75
2, 15301, Note_on_c, 0, 74, 0
2, 15312, Note_on_c, 0, 77, 75
2, 15327, Note_on_c, 0, 77, 0
2, 15328, Note_on_c, 0, 75, 75
2, 15343, Note_on_c, 0, 75, 0
2, 15344, Note_on_c, 0, 74, 75
2, 15359, Note_on_c, 0, 74, 0
2, 15360, Note_on_c, 0, 72, 75
2, 15405, Note_on_c, 0, 72, 0
2, 15408, Note_on_c, 0, 78, 75
2, 15432, Note_on_c, 0, 78, 0
2, 15432, Note_on_c, 0, 79, 75
2, 15455, Note_on_c, 0, 79, 0
2, 15456, Note_on_c, 0, 77, 75
2, 15479, Note_on_c, 0, 77, 0
2, 15480, Note_on_c, 0, 75, 75
2, 15503, Note_on_c, 0, 75, 0
2, 15504, Note_on_c, 0, 74, 75
2, 15527, Note_on_c, 0, 74, 0
2, 15528, Note_on_c, 0, 72, 75
2, 15551, Note_on_c, 0, 72, 0
2, 15552, Note_on_c, 0, 70, 75
2, 15641, Note_on_c, 0, 70, 0
2, 15648, Note_on_c, 0, 74, 75
2, 15671, Note_on_c, 0, 74, 0
2, 15672, Note_on_c, 0, 72, 75
2, 15695, Note_on_c, 0, 72, 0
2, 15696, Note_on_c, 0, 70, 75
2, 15719, Note_on_c, 0, 70, 0
2, 15720, Note_on_c, 0, 69, 75
2, 15743, Note_on_c, 0, 69, 0
2, 15744, Note_on_c, 0, 70, 75
2, 15789, Note_on_c, 0, 70, 0
2, 15792, Note_on_c, 0, 81, 73
2, 15816, Note_on_c, 0, 81, 0
2, 15816, Note_on_c, 0, 82, 72
2, 15839, Note_on_c, 0, 82, 0
2, 15840, Note_on_c, 0, 81, 71
2, 15863, Note_on_c, 0, 81, 0
2, 15864, Note_on_c, 0, 79, 71
2, 15887, Note_on_c, 0, 79, 0
2, 15888, Note_on_c, 0, 77, 70
2, 15911, Note_on_c, 0, 77, 0
2, 15912, Note_on_c, 0, 76, 69
2, 15935, Note_on_c, 0, 76, 0
2, 15936, Note_on_c, 0, 77, 68
2, 15981, Note_on_c, 0, 77, 0
2, 15984, Note_on_c, 0, 81, 67
2, 16008, Note_on_c, 0, 81, 0
2, 16008, Note_on_c, 0, 82, 66
2, 16031, Note_on_c, 0, 82, 0
2, 16032, Note_on_c, 0, 81, 65
2, 16055, Note_on_c, 0, 81, 0
2, 16056, Note_on_c, 0, 79, 64
2, 16079, Note_on_c, 0, 79, 0
2, 16080, Note_on_c, 0, 77, 63
2, 16103, Note_on_c, 0, 77, 0
2, 16104, Note_on_c, 0, 76, 63
2, 16127, Note_on_c, 0, 76, 0
2, 16128, Note_on_c, 0, 77, 62
2, 16217, Note_on_c, 0, 77, 0
2, 16272, Note_on_c, 0, 77, 80
2, 16287, Note_on_c, 0, 77, 0
2, 16288, Note_on_c, 0, 79, 80
2, 16303, Note_on_c, 0, 79, 0
2, 16304, Note_on_c, 0, 77, 80
2, 16319, Note_on_c, 0, 77, 0
2, 16320, Note_on_c, 0, 82, 80
2, 16365, Note_on_c, 0, 82, 0
2, 16368, Note_on_c, 0, 74, 80
2, 16383, Note_on_c, 0, 74, 0
2, 16384, Note_on_c, 0, 75, 80
2, 16399, Note_on_c, 0, 75, 0
2, 16400, Note_on_c, 0, 74, 80
2, 16415, Note_on_c, 0, 74, 0
2, 16416, Note_on_c, 0, 77, 80
2, 16461, Note_on_c, 0, 77, 0
2, 16464, Note_on_c, 0, 70, 80
2, 16479, Note_on_c, 0, 70, 0
2, 16480, Note_on_c, 0, 72, 80
2, 16495, Note_on_c, 0, 72, 0
2, 16496, Note_on_c, 0, 70, 80
2, 16511, Note_on_c, 0, 70, 0
2, 16512, Note_on_c, 0, 74, 80
2, 16557, Note_on_c, 0, 74, 0
2, 16560, Note_on_c, 0, 65, 80
2, 16575, Note_on_c, 0, 65, 0
2, 16576, Note_on_c, 0, 67, 80
2, 16591, Note_on_c, 0, 67, 0
2, 16592, Note_on_c, 0, 65, 80
2, 16607, Note_on_c, 0, 65, 0
2, 16608, Note_on_c, 0, 70, 80
2, 16653, Note_on_c, 0, 70, 0
2, 16656, Note_on_c, 0, 62, 80
2, 16701, Note_on_c, 0, 62, 0
2, 16704, Note_on_c, 0, 63, 80
2, 16716, Note_on_c, 0, 63, 0
2, 16716, Note_on_c, 0, 65, 80
2, 16728, Note_on_c, 0, 65, 0
2, 16728, Note_on_c, 0, 63, 80
2, 16740, Note_on_c, 0, 63, 0
2, 16740, Note_on_c, 0, 65, 80
2, 16749, Note_on_c, 0, 65, 0
2, 16752, Note_on_c, 0, 62, 80
2, 16775, Note_on_c, 0, 62, 0
2, 16776, Note_on_c, 0, 63, 80
2, 16799, Note_on_c, 0, 63, 0
2, 16800, Note_on_c, 0, 65, 80
2, 16820, Note_on_c, 0, 65, 0
2, 16848, Note_on_c, 0, 65, 80
2, 16893, Note_on_c, 0, 65, 0
2, 16896, Note_on_c, 0, 67, 80
2, 16985, Note_on_c, 0, 67, 0
2, 17040, Note_on_c, 0, 77, 80
2, 17055, Note_on_c, 0, 77, 0
2, 17056, Note_on_c, 0, 79, 80
2, 17071, Note_on_c, 0, 79, 0
2, 17072, Note_on_c, 0, 77, 80
2, 17087, Note_on_c, 0, 77, 0
2, 17088, Note_on_c, 0, 82, 80
2, 17133, Note_on_c, 0, 82, 0
2, 17136, Note_on_c, 0, 74, 80
2, 17151, Note_on_c, 0, 74, 0
2, 17152, Note_on_c, 0, 75, 80
2, 17167, Note_on_c, 0, 75, 0
2, 17168, Note_on_c, 0, 74, 80
2, 17183, Note_on_c, 0, 74, 0
2, 17184, Note_on_c, 0, 77, 80
2, 17229, Note_on_c, 0, 77, 0
2, 17232, Note_on_c, 0, 70, 80
2, 17247, Note_on_c, 0, 70, 0
2, 17248, Note_on_c, 0, 72, 80
2, 17263, Note_on_c, 0, 72, 0
2, 17264, Note_on_c, 0, 70, 80
2, 17279, Note_on_c, 0, 70, 0
2, 17280, Note_on_c, 0, 74, 80
2, 17325, Note_on_c, 0, 74, 0
2, 17328, Note_on_c, 0, 65, 80
2, 17343, Note_on_c, 0, 65, 0
2, 17344, Note_on_c, 0, 67, 80
2, 17359, Note_on_c, 0, 67, 0
2, 17360, Note_on_c, 0, 65, 80
2, 17375, Note_on_c, 0, 65, 0
2, 17376, Note_on_c, 0, 70, 80
2, 17421, Note_on_c, 0, 70, 0
2, 17424, Note_on_c, 0, 62, 80
2, 17469, Note_on_c, 0, 62, 0
2, 17472, Note_on_c, 0, 63, 80
2, 17484, Note_on_c, 0, 63, 0
2, 17484, Note_on_c, 0, 65, 80
2, 17496, Note_on_c, 0, 65, 0
2, 17496, Note_on_c, 0, 63, 80
2, 17508, Note_on_c, 0, 63, 0
2, 17508, Note_on_c, 0, 65, 80
2, 17517, Note_on_c, 0, 65, 0
2, 17520, Note_on_c, 0, 62, 80
2, 17543, Note_on_c, 0, 62, 0
2, 17544, Note_on_c, 0, 63, 80
2, 17567, Note_on_c, 0, 63, 0
2, 17568, Note_on_c, 0, 65, 80
2, 17588, Note_on_c, 0, 65, 0
2, 17616, Note_on_c, 0, 65, 80
2, 17661, Note_on_c, 0, 65, 0
2, 17664, Note_on_c, 0, 58, 80
2, 17753, Note_on_c, 0, 58, 0
2, 17808, Note_on_c, 0, 65, 75
2, 17823, Note_on_c, 0, 65, 0
2, 17824, Note_on_c, 0, 67, 75
2, 17839, Note_on_c, 0, 67, 0
2, 17840, Note_on_c, 0, 65, 75
2, 17855, Note_on_c, 0, 65, 0
2, 17856, Note_on_c, 0, 70, 75
2, 17901, Note_on_c, 0, 70, 0
2, 17904, Note_on_c, 0, 70, 75
2, 17919, Note_on_c, 0, 70, 0
2, 17920, Note_on_c, 0, 72, 75
2, 17935, Note_on_c, 0, 72, 0
2, 17936, Note_on_c, 0, 70, 75
2, 17951, Note_on_c, 0, 70, 0
2, 17952, Note_on_c, 0, 74, 75
2, 17997, Note_on_c, 0, 74, 0
2, 18000, Note_on_c, 0, 74, 75
2, 18015, Note_on_c, 0, 74, 0
2, 18016, Note_on_c, 0, 75, 75
2, 18031, Note_on_c, 0, 75, 0
2, 18032, Note_on_c, 0, 74, 75
2, 18047, Note_on_c, 0, 74, 0
2, 18048, Note_on_c, 0, 77, 75
2, 18181, Note_on_c, 0, 77, 0
2, 18192, Note_on_c, 0, 74, 75
2, 18207, Note_on_c, 0, 74, 0
2, 18208, Note_on_c, 0, 75, 75
2, 18223, Note_on_c, 0, 75, 0
2, 18224, Note_on_c, 0, 74, 75
2, 18239, Note_on_c, 0, 74, 0
2, 18240, Note_on_c, 0, 77, 75
2, 18373, Note_on_c, 0, 77, 0
2, 18384, Note_on_c, 0, 74, 75
2, 18407, Note_on_c, 0, 74, 0
2, 18408, Note_on_c, 0, 77, 75
2, 18431, Note_on_c, 0, 77, 0
2, 18432, Note_on_c, 0, 75, 75
2, 18452, Note_on_c, 0, 75, 0
2, 18480, Note_on_c, 0, 75, 75
2, 18525, Note_on_c, 0, 75, 0
2, 18528, Note_on_c, 0, 75, 75
2, 18540, Note_on_c, 0, 75, 0
2, 18540, Note_on_c, 0, 77, 75
2, 18552, Note_on_c, 0, 77, 0
2, 18552, Note_on_c, 0, 75, 75
2, 18564, Note_on_c, 0, 75, 0
2, 18564, Note_on_c, 0, 77, 75
2, 18573, Note_on_c, 0, 77, 0
2, 18576, Note_on_c, 0, 74, 75
2, 18599, Note_on_c, 0, 74, 0
2, 18600, Note_on_c, 0, 72, 75
2, 18623, Note_on_c, 0, 72, 0
2, 18624, Note_on_c, 0, 74, 75
2, 18669, Note_on_c, 0, 74, 0
2, 18672, Note_on_c, 0, 70, 75
2, 18717, Note_on_c, 0, 70, 0
2, 18720, Note_on_c, 0, 70, 75
2, 18765, Note_on_c, 0, 70, 0
2, 18768, Note_on_c, 0, 74, 75
2, 18783, Note_on_c, 0, 74, 0
2, 18784, Note_on_c, 0, 75, 75
2, 18799, Note_on_c, 0, 75, 0
2, 18800, Note_on_c, 0, 77, 75
2, 18815, Note_on_c, 0, 77, 0
2, 18816, Note_on_c, 0, 75, 75
2, 18836, Note_on_c, 0, 75, 0
2, 18864, Note_on_c, 0, 75, 75
2, 18909, Note_on_c, 0, 75, 0
2, 18912, Note_on_c, 0, 75, 75
2, 18924, Note_on_c, 0, 75, 0
2, 18924, Note_on_c, 0, 77, 75
2, 18936, Note_on_c, 0, 77, 0
2, 18936, Note_on_c, 0, 75, 75
2, 18948, Note_on_c, 0, 75, 0
2, 18948, Note_on_c, 0, 77, 75
2, 18957, Note_on_c, 0, 77, 0
2, 18960, Note_on_c, 0, 74, 75
2, 18983, Note_on_c, 0, 74, 0
2, 18984, Note_on_c, 0, 72, 75
2, 19007, Note_on_c, 0, 72, 0
2, 19008, Note_on_c, 0, 74, 80
2, 19031, Note_on_c, 0, 74, 0
2, 19032, Note_on_c, 0, 70, 80
2, 19055, Note_on_c, 0, 70, 0
2, 19056, Note_on_c, 0, 69, 80
2, 19079, Note_on_c, 0, 69, 0
2, 19080, Note_on_c, 0, 70, 80
2, 19103, Note_on_c, 0, 70, 0
2, 19104, Note_on_c, 0, 72, 80
2, 19127, Note_on_c, 0, 72, 0
2, 19128, Note_on_c, 0, 70, 80
2, 19151, Note_on_c, 0, 70, 0
2, 19152, Note_on_c, 0, 69, 80
2, 19175, Note_on_c, 0, 69, 0
2, 19176, Note_on_c, 0, 70, 80
2, 19199, Note_on_c, 0, 70, 0
2, 19200, Note_on_c, 0, 77, 80
2, 19223, Note_on_c, 0, 77, 0
2, 19224, Note_on_c, 0, 74, 80
2, 19247, Note_on_c, 0, 74, 0
2, 19248, Note_on_c, 0, 72, 80
2, 19271, Note_on_c, 0, 72, 0
2, 19272, Note_on_c, 0, 70, 80
2, 19295, Note_on_c, 0, 70, 0
2, 19296, Note_on_c, 0, 77, 80
2, 19319, Note_on_c, 0, 77, 0
2, 19320, Note_on_c, 0, 74, 80
2, 19343, Note_on_c, 0, 74, 0
2, 19344, Note_on_c, 0, 72, 80
2, 19367, Note_on_c, 0, 72, 0
2, 19368, Note_on_c, 0, 70, 80
2, 19391, Note_on_c, 0, 70, 0
2, 19392, Note_on_c, 0, 75, 80
2, 19415, Note_on_c, 0, 75, 0
2, 19416, Note_on_c, 0, 70, 80
2, 19439, Note_on_c, 0, 70, 0
2, 19440, Note_on_c, 0, 69, 80
2, 19463, Note_on_c, 0, 69, 0
2, 19464, Note_on_c, 0, 70, 80
2, 19487, Note_on_c, 0, 70, 0
2, 19488, Note_on_c, 0, 72, 80
2, 19511, Note_on_c, 0, 72, 0
2, 19512, Note_on_c, 0, 70, 80
2, 19535, Note_on_c, 0, 70, 0
2, 19536, Note_on_c, 0, 69, 80
2, 19559, Note_on_c, 0, 69, 0
2, 19560, Note_on_c, 0, 70, 80
2, 19583, Note_on_c, 0, 70, 0
2, 19584, Note_on_c, 0, 75, 80
2, 19607, Note_on_c, 0, 75, 0
2, 19608, Note_on_c, 0, 74, 80
2, 19631, Note_on_c, 0, 74, 0
2, 19632, Note_on_c, 0, 75, 80
2, 19655, Note_on_c, 0, 75, 0
2, 19656, Note_on_c, 0, 77, 80
2, 19679, Note_on_c, 0, 77, 0
2, 19680, Note_on_c, 0, 79, 80
2, 19703, Note_on_c, 0, 79, 0
2, 19704, Note_on_c, 0, 75, 80
2, 19727, Note_on_c, 0, 75, 0
2, 19728, Note_on_c, 0, 74, 80
2, 19751, Note_on_c, 0, 74, 0
2, 19752, Note_on_c, 0, 75, 80
2, 19775, Note_on_c, 0, 75, 0
2, 19776, Note_on_c, 0, 77, 80
2, 19799, Note_on_c, 0, 77, 0
2, 19800, Note_on_c, 0, 74, 80
2, 19823, Note_on_c, 0, 74, 0
2, 19824, Note_on_c, 0, 72, 80
2, 19847, Note_on_c, 0, 72, 0
2, 19848, Note_on_c, 0, 70, 80
2, 19871, Note_on_c, 0, 70, 0
2, 19872, Note_on_c, 0, 69, 80
2, 19895, Note_on_c, 0, 69, 0
2, 19896, Note_on_c, 0, 70, 80
2, 19919, Note_on_c, 0, 70, 0
2, 19920, Note_on_c, 0, 69, 80
2, 19943, Note_on_c, 0, 69, 0
2, 19944, Note_on_c, 0, 70, 80
2, 19967, Note_on_c, 0, 70, 0
2, 19968, Note_on_c, 0, 80, 80
2, 19991, Note_on_c, 0, 80, 0
2, 19992, Note_on_c, 0, 79, 80
2, 20015, Note_on_c, 0, 79, 0
2, 20016, Note_on_c, 0, 80, 80
2, 20039, Note_on_c, 0, 80, 0
2, 20040, Note_on_c, 0, 82, 80
2, 20063, Note_on_c, 0, 82, 0
2, 20064, Note_on_c, 0, 84, 80
2, 20087, Note_on_c, 0, 84, 0
2, 20088, Note_on_c, 0, 80, 80
2, 20111, Note_on_c, 0, 80, 0
2, 20112, Note_on_c, 0, 79, 80
2, 20135, Note_on_c, 0, 79, 0
2, 20136, Note_on_c, 0, 77, 80
2, 20159, Note_on_c, 0, 77, 0
2, 20160, Note_on_c, 0, 79, 80
2, 20183, Note_on_c, 0, 79, 0
2, 20184, Note_on_c, 0, 75, 80
2, 20207, Note_on_c, 0, 75, 0
2, 20208, Note_on_c, 0, 74, 80
2, 20231, Note_on_c, 0, 74, 0
2, 20232, Note_on_c, 0, 75, 80
2, 20255, Note_on_c, 0, 75, 0
2, 20256, Note_on_c, 0, 77, 80
2, 20279, Note_on_c, 0, 77, 0
2, 20280, Note_on_c, 0, 75, 80
2, 20303, Note_on_c, 0, 75, 0
2, 20304, Note_on_c, 0, 74, 80
2, 20327, Note_on_c, 0, 74, 0
2, 20328, Note_on_c, 0, 75, 80
2, 20351, Note_on_c, 0, 75, 0
2, 20352, Note_on_c, 0, 79, 80
2, 20375, Note_on_c, 0, 79, 0
2, 20376, Note_on_c, 0, 77, 80
2, 20399, Note_on_c, 0, 77, 0
2, 20400, Note_on_c, 0, 79, 80
2, 20423, Note_on_c, 0, 79, 0
2, 20424, Note_on_c, 0, 80, 80
2, 20447, Note_on_c, 0, 80, 0
2, 20448, Note_on_c, 0, 82, 80
2, 20471, Note_on_c, 0, 82, 0
2, 20472, Note_on_c, 0, 80, 80
2, 20495, Note_on_c, 0, 80, 0
2, 20496, Note_on_c, 0, 79, 80
2, 20519, Note_on_c, 0, 79, 0
2, 20520, Note_on_c, 0, 77, 80
2, 20543, Note_on_c, 0, 77, 0
2, 20544, Note_on_c, 0, 76, 80
2, 20567, Note_on_c, 0, 76, 0
2, 20568, Note_on_c, 0, 72, 80
2, 20591, Note_on_c, 0, 72, 0
2, 20592, Note_on_c, 0, 71, 80
2, 20615, Note_on_c, 0, 71, 0
2, 20616, Note_on_c, 0, 72, 80
2, 20639, Note_on_c, 0, 72, 0
2, 20640, Note_on_c, 0, 74, 80
2, 20663, Note_on_c, 0, 74, 0
2, 20664, Note_on_c, 0, 72, 80
2, 20687, Note_on_c, 0, 72, 0
2, 20688, Note_on_c, 0, 71, 80
2, 20711, Note_on_c, 0, 71, 0
2, 20712, Note_on_c, 0, 72, 80
2, 20735, Note_on_c, 0, 72, 0
2, 20736, Note_on_c, 0, 79, 80
2, 20759, Note_on_c, 0, 79, 0
2, 20760, Note_on_c, 0, 76, 80
2, 20783, Note_on_c, 0, 76, 0
2, 20784, Note_on_c, 0, 74, 80
2, 20807, Note_on_c, 0, 74, 0
2, 20808, Note_on_c, 0, 72, 80
2, 20831, Note_on_c, 0, 72, 0
2, 20832, Note_on_c, 0, 84, 80
2, 20855, Note_on_c, 0, 84, 0
2, 20856, Note_on_c, 0, 82, 78
2, 20879, Note_on_c, 0, 82, 0
2, 20880, Note_on_c, 0, 80, 77
2, 20903, Note_on_c, 0, 80, 0
2, 20904, Note_on_c, 0, 79, 76
2, 20927, Note_on_c, 0, 79, 0
2, 20928, Note_on_c, 0, 80, 75
2, 20973, Note_on_c, 0, 80, 0
2, 20976, Note_on_c, 0, 80, 75
2, 20991, Note_on_c, 0, 80, 0
2, 20992, Note_on_c, 0, 82, 75
2, 21007, Note_on_c, 0, 82, 0
2, 21008, Note_on_c, 0, 80, 75
2, 21023, Note_on_c, 0, 80, 0
2, 21024, Note_on_c, 0, 84, 75
2, 21113, Note_on_c, 0, 84, 0
2, 21168, Note_on_c, 0, 77, 75
2, 21183, Note_on_c, 0, 77, 0
2, 21184, Note_on_c, 0, 79, 75
2, 21199, Note_on_c, 0, 79, 0
2, 21200, Note_on_c, 0, 77, 75
2, 21215, Note_on_c, 0, 77, 0
2, 21216, Note_on_c, 0, 82, 75
2, 21261, Note_on_c, 0, 82, 0
2, 21264, Note_on_c, 0, 80, 75
2, 21309, Note_on_c, 0, 80, 0
2, 21360, Note_on_c, 0, 79, 75
2, 21375, Note_on_c, 0, 79, 0
2, 21376, Note_on_c, 0, 80, 75
2, 21391, Note_on_c, 0, 80, 0
2, 21392, Note_on_c, 0, 79, 75
2, 21407, Note_on_c, 0, 79, 0
2, 21408, Note_on_c, 0, 82, 75
2, 21497, Note_on_c, 0, 82, 0
2, 21552, Note_on_c, 0, 75, 75
2, 21567, Note_on_c, 0, 75, 0
2, 21568, Note_on_c, 0, 77, 75
2, 21583, Note_on_c, 0, 77, 0
2, 21584, Note_on_c, 0, 75, 75
2, 21599, Note_on_c, 0, 75, 0
2, 21600, Note_on_c, 0, 80, 75
2, 21645, Note_on_c, 0, 80, 0
2, 21648, Note_on_c, 0, 79, 75
2, 21693, Note_on_c, 0, 79, 0
2, 21744, Note_on_c, 0, 77, 75
2, 21759, Note_on_c, 0, 77, 0
2, 21760, Note_on_c, 0, 79, 75
2, 21775, Note_on_c, 0, 79, 0
2, 21776, Note_on_c, 0, 77, 75
2, 21791, Note_on_c, 0, 77, 0
2, 21792, Note_on_c, 0, 80, 75
2, 21881, Note_on_c, 0, 80, 0
2, 21936, Note_on_c, 0, 74, 75
2, 21951, Note_on_c, 0, 74, 0
2, 21952, Note_on_c, 0, 75, 75
2, 21967, Note_on_c, 0, 75, 0
2, 21968, Note_on_c, 0, 74, 75
2, 21983, Note_on_c, 0, 74, 0
2, 21984, Note_on_c, 0, 79, 75
2, 22029, Note_on_c, 0, 79, 0
2, 22032, Note_on_c, 0, 77, 75
2, 22077, Note_on_c, 0, 77, 0
2, 22128, Note_on_c, 0, 75, 75
2, 22143, Note_on_c, 0, 75, 0
2, 22144, Note_on_c, 0, 77, 75
2, 22159, Note_on_c, 0, 77, 0
2, 22160, Note_on_c, 0, 75, 75
2, 22175, Note_on_c, 0, 75, 0
2, 22176, Note_on_c, 0, 79, 75
2, 22265, Note_on_c, 0, 79, 0
2, 22320, Note_on_c, 0, 72, 75
2, 22335, Note_on_c, 0, 72, 0
2, 22336, Note_on_c, 0, 74, 75
2, 22351, Note_on_c, 0, 74, 0
2, 22352, Note_on_c, 0, 72, 75
2, 22367, Note_on_c, 0, 72, 0
2, 22368, Note_on_c, 0, 77, 75
2, 22413, Note_on_c, 0, 77, 0
2, 22416, Note_on_c, 0, 75, 75
2, 22461, Note_on_c, 0, 75, 0
2, 22464, Note_on_c, 0, 74, 91
2, 22560, Note_on_c, 0, 74, 0
2, 22560, Note_on_c, 0, 77, 75
2, 22649, Note_on_c, 0, 77, 0
2, 22704, Note_on_c, 0, 79, 75
2, 22727, Note_on_c, 0, 79, 0
2, 22728, Note_on_c, 0, 80, 75
2, 22751, Note_on_c, 0, 80, 0
2, 22752, Note_on_c, 0, 79, 75
2, 22775, Note_on_c, 0, 79, 0
2, 22776, Note_on_c, 0, 77, 75
2, 22799, Note_on_c, 0, 77, 0
2, 22800, Note_on_c, 0, 75, 75
2, 22823, Note_on_c, 0, 75, 0
2, 22824, Note_on_c, 0, 74, 75
2, 22847, Note_on_c, 0, 74, 0
2, 22848, Note_on_c, 0, 74, 91
2, 22944, Note_on_c, 0, 74, 0
2, 22944, Note_on_c, 0, 75, 75
2, 23033, Note_on_c, 0, 75, 0
2, 23088, Note_on_c, 0, 81, 75
2, 23111, Note_on_c, 0, 81, 0
2, 23112, Note_on_c, 0, 82, 75
2, 23135, Note_on_c, 0, 82, 0
2, 23136, Note_on_c, 0, 80, 75
2, 23159, Note_on_c, 0, 80, 0
2, 23160, Note_on_c, 0, 79, 75
2, 23183, Note_on_c, 0, 79, 0
2, 23184, Note_on_c, 0, 77, 75
2, 23207, Note_on_c, 0, 77, 0
2, 23208, Note_on_c, 0, 75, 75
2, 23231, Note_on_c, 0, 75, 0
2, 23232, Note_on_c, 0, 76, 91
2, 23328, Note_on_c, 0, 76, 0
2, 23328, Note_on_c, 0, 77, 75
2, 23417, Note_on_c, 0, 77, 0
2, 23472, Note_on_c, 0, 79, 75
2, 23495, Note_on_c, 0, 79, 0
2, 23496, Note_on_c, 0, 80, 75
2, 23519, Note_on_c, 0, 80, 0
2, 23520, Note_on_c, 0, 79, 75
2, 23543, Note_on_c, 0, 79, 0
2, 23544, Note_on_c, 0, 77, 75
2, 23567, Note_on_c, 0, 77, 0
2, 23568, Note_on_c, 0, 75, 75
2, 23591, Note_on_c, 0, 75, 0
2, 23592, Note_on_c, 0, 74, 75
2, 23615, Note_on_c, 0, 74, 0
2, 23616, Note_on_c, 0, 75, 75
2, 23661, Note_on_c, 0, 75, 0
2, 23664, Note_on_c, 0, 67, 75
2, 23679, Note_on_c, 0, 67, 0
2, 23680, Note_on_c, 0, 68, 75
2, 23695, Note_on_c, 0, 68, 0
2, 23696, Note_on_c, 0, 67, 75
2, 23711, Note_on_c, 0, 67, 0
2, 23712, Note_on_c, 0, 70, 75
2, 23757, Note_on_c, 0, 70, 0
2, 23760, Note_on_c, 0, 70, 75
2, 23775, Note_on_c, 0, 70, 0
2, 23776, Note_on_c, 0, 72, 75
2, 23791, Note_on_c, 0, 72, 0
2, 23792, Note_on_c, 0, 70, 75
2, 23807, Note_on_c, 0, 70, 0
2, 23808, Note_on_c, 0, 75, 75
2, 23853, Note_on_c, 0, 75, 0
2, 23856, Note_on_c, 0, 75, 75
2, 23871, Note_on_c, 0, 75, 0
2, 23872, Note_on_c, 0, 77, 75
2, 23887, Note_on_c, 0, 77, 0
2, 23888, Note_on_c, 0, 75, 75
2, 23903, Note_on_c, 0, 75, 0
2, 23904, Note_on_c, 0, 79, 75
2, 23949, Note_on_c, 0, 79, 0
2, 23952, Note_on_c, 0, 79, 75
2, 23967, Note_on_c, 0, 79, 0
2, 23968, Note_on_c, 0, 80, 75
2, 23983, Note_on_c, 0, 80, 0
2, 23984, Note_on_c, 0, 79, 75
2, 23999, Note_on_c, 0, 79, 0
2, 24000, Note_on_c, 0, 82, 75
2, 24133, Note_on_c, 0, 82, 0
2, 24144, Note_on_c, 0, 79, 75
2, 24159, Note_on_c, 0, 79, 0
2, 24160, Note_on_c, 0, 80, 75
2, 24175, Note_on_c, 0, 80, 0
2, 24176, Note_on_c, 0, 79, 75
2, 24191, Note_on_c, 0, 79, 0
2, 24192, Note_on_c, 0, 82, 75
2, 24325, Note_on_c, 0, 82, 0
2, 24336, Note_on_c, 0, 79, 75
2, 24359, Note_on_c, 0, 79, 0
2, 24360, Note_on_c, 0, 82, 75
2, 24383, Note_on_c, 0, 82, 0
2, 24384, Note_on_c, 0, 80, 75
2, 24429, Note_on_c, 0, 80, 0
2, 24432, Note_on_c, 0, 80, 75
2, 24477, Note_on_c, 0, 80, 0
2, 24480, Note_on_c, 0, 80, 75
2, 24492, Note_on_c, 0, 80, 0
2, 24492, Note_on_c, 0, 82, 75
2, 24504, Note_on_c, 0, 82, 0
2, 24504, Note_on_c, 0, 80, 75
2, 24516, Note_on_c, 0, 80, 0
2, 24516, Note_on_c, 0, 82, 75
2, 24525, Note_on_c, 0, 82, 0
2, 24528, Note_on_c, 0, 79, 75
2, 24551, Note_on_c, 0, 79, 0
2, 24552, Note_on_c, 0, 77, 75
2, 24575, Note_on_c, 0, 77, 0
2, 24576, Note_on_c, 0, 79, 75
2, 24621, Note_on_c, 0, 79, 0
2, 24624, Note_on_c, 0, 75, 75
2, 24669, Note_on_c, 0, 75, 0
2, 24672, Note_on_c, 0, 75, 75
2, 24717, Note_on_c, 0, 75, 0
2, 24720, Note_on_c, 0, 79, 75
2, 24735, Note_on_c, 0, 79, 0
2, 24736, Note_on_c, 0, 80, 75
2, 24751, Note_on_c, 0, 80, 0
2, 24752, Note_on_c, 0, 82, 75
2, 24767, Note_on_c, 0, 82, 0
2, 24768, Note_on_c, 0, 80, 75
2, 24813, Note_on_c, 0, 80, 0
2, 24816, Note_on_c, 0, 80, 75
2, 24861, Note_on_c, 0, 80, 0
2, 24864, Note_on_c, 0, 80, 75
2, 24876, Note_on_c, 0, 80, 0
2, 24876, Note_on_c, 0, 82, 75
2, 24888, Note_on_c, 0, 82, 0
2, 24888, Note_on_c, 0, 80, 75
2, 24900, Note_on_c, 0, 80, 0
2, 24900, Note_on_c, 0, 82, 75
2, 24909, Note_on_c, 0, 82, 0
2, 24912, Note_on_c, 0, 79, 75
2, 24935, Note_on_c, 0, 79, 0
2, 24936, Note_on_c, 0, 77, 75
2, 24959, Note_on_c, 0, 77, 0
2, 24960, Note_on_c, 0, 79, 75
2, 24983, Note_on_c, 0, 79, 0
2, 24984, Note_on_c, 0, 75, 75
2, 25007, Note_on_c, 0, 75, 0
2, 25008, Note_on_c, 0, 74, 75
2, 25031, Note_on_c, 0, 74, 0
2, 25032, Note_on_c, 0, 75, 75
2, 25055, Note_on_c, 0, 75, 0
2, 25056, Note_on_c, 0, 77, 75
2, 25079, Note_on_c, 0, 77, 0
2, 25080, Note_on_c, 0, 75, 75
2, 25103, Note_on_c, 0, 75, 0
2, 25104, Note_on_c, 0, 74, 75
2, 25127, Note_on_c, 0, 74, 0
2, 25128, Note_on_c, 0, 75, 75
2, 25151, Note_on_c, 0, 75, 0
2, 25152, Note_on_c, 0, 72, 75
2, 25175, Note_on_c, 0, 72, 0
2, 25176, Note_on_c, 0, 75, 75
2, 25199, Note_on_c, 0, 75, 0
2, 25200, Note_on_c, 0, 74, 75
2, 25223, Note_on_c, 0, 74, 0
2, 25224, Note_on_c, 0, 72, 75
2, 25247, Note_on_c, 0, 72, 0
2, 25248, Note_on_c, 0, 70, 75
2, 25293, Note_on_c, 0, 70, 0
2, 25296, Note_on_c, 0, 75, 75
2, 25341, Note_on_c, 0, 75, 0
2, 25344, Note_on_c, 0, 68, 75
2, 25367, Note_on_c, 0, 68, 0
2, 25368, Note_on_c, 0, 72, 75
2, 25391, Note_on_c, 0, 72, 0
2, 25392, Note_on_c, 0, 70, 75
2, 25415, Note_on_c, 0, 70, 0
2, 25416, Note_on_c, 0, 68, 75
2, 25439, Note_on_c, 0, 68, 0
2, 25440, Note_on_c, 0, 67, 75
2, 25463, Note_on_c, 0, 67, 0
2, 25464, Note_on_c, 0, 70, 75
2, 25487, Note_on_c, 0, 70, 0
2, 25488, Note_on_c, 0, 68, 75
2, 25511, Note_on_c, 0, 68, 0
2, 25512, Note_on_c, 0, 67, 75
2, 25535, Note_on_c, 0, 67, 0
2, 25536, Note_on_c, 0, 65, 75
2, 25559, Note_on_c, 0, 65, 0
2, 25560, Note_on_c, 0, 68, 75
2, 25583, Note_on_c, 0, 68, 0
2, 25584, Note_on_c, 0, 67, 75
2, 25607, Note_on_c, 0, 67, 0
2, 25608, Note_on_c, 0, 65, 75
2, 25631, Note_on_c, 0, 65, 0
2, 25632, Note_on_c, 0, 72, 75
2, 25677, Note_on_c, 0, 72, 0
2, 25680, Note_on_c, 0, 63, 75
2, 25725, Note_on_c, 0, 63, 0
2, 25728, Note_on_c, 0, 63, 75
2, 25740, Note_on_c, 0, 63, 0
2, 25740, Note_on_c, 0, 65, 75
2, 25752, Note_on_c, 0, 65, 0
2, 25752, Note_on_c, 0, 63, 75
2, 25764, Note_on_c, 0, 63, 0
2, 25764, Note_on_c, 0, 65, 75
2, 25773, Note_on_c, 0, 65, 0
2, 25776, Note_on_c, 0, 62, 75
2, 25821, Note_on_c, 0, 62, 0
2, 25872, Note_on_c, 0, 58, 70
2, 25887, Note_on_c, 0, 58, 0
2, 25888, Note_on_c, 0, 60, 70
2, 25903, Note_on_c, 0, 60, 0
2, 25904, Note_on_c, 0, 58, 70
2, 25919, Note_on_c, 0, 58, 0
2, 25920, Note_on_c, 0, 63, 70
2, 26009, Note_on_c, 0, 63, 0
2, 26064, Note_on_c, 0, 59, 70
2, 26112, Note_on_c, 0, 59, 0
2, 26112, Note_on_c, 0, 60, 70
2, 26201, Note_on_c, 0, 60, 0
2, 26256, Note_on_c, 0, 60, 70
2, 26271, Note_on_c, 0, 60, 0
2, 26272, Note_on_c, 0, 62, 70
2, 26287, Note_on_c, 0, 62, 0
2, 26288, Note_on_c, 0, 60, 70
2, 26303, Note_on_c, 0, 60, 0
2, 26304, Note_on_c, 0, 65, 70
2, 26393, Note_on_c, 0, 65, 0
2, 26448, Note_on_c, 0, 61, 70
2, 26496, Note_on_c, 0, 61, 0
2, 26496, Note_on_c, 0, 62, 70
2, 26585, Note_on_c, 0, 62, 0
2, 26640, Note_on_c, 0, 77, 70
2, 26663, Note_on_c, 0, 77, 0
2, 26664, Note_on_c, 0, 74, 70
2, 26687, Note_on_c, 0, 74, 0
2, 26688, Note_on_c, 0, 68, 75
2, 26821, Note_on_c, 0, 68, 0
2, 26832, Note_on_c, 0, 72, 75
2, 26847, Note_on_c, 0, 72, 0
2, 26848, Note_on_c, 0, 70, 75
2, 26863, Note_on_c, 0, 70, 0
2, 26864, Note_on_c, 0, 68, 75
2, 26879, Note_on_c, 0, 68, 0
2, 26880, Note_on_c, 0, 67, 75
2, 26925, Note_on_c, 0, 67, 0
2, 26928, Note_on_c, 0, 70, 75
2, 26973, Note_on_c, 0, 70, 0
2, 27024, Note_on_c, 0, 75, 75
2, 27039, Note_on_c, 0, 75, 0
2, 27040, Note_on_c, 0, 77, 75
2, 27055, Note_on_c, 0, 77, 0
2, 27056, Note_on_c, 0, 79, 75
2, 27071, Note_on_c, 0, 79, 0
2, 27072, Note_on_c, 0, 77, 75
2, 27117, Note_on_c, 0, 77, 0
2, 27120, Note_on_c, 0, 74, 75
2, 27165, Note_on_c, 0, 74, 0
2, 27168, Note_on_c, 0, 70, 75
2, 27213, Note_on_c, 0, 70, 0
2, 27216, Note_on_c, 0, 68, 75
2, 27261, Note_on_c, 0, 68, 0
2, 27264, Note_on_c, 0, 67, 75
2, 27287, Note_on_c, 0, 67, 0
2, 27288, Note_on_c, 0, 75, 75
2, 27311, Note_on_c, 0, 75, 0
2, 27312, Note_on_c, 0, 74, 75
2, 27335, Note_on_c, 0, 74, 0
2, 27336, Note_on_c, 0, 72, 75
2, 27359, Note_on_c, 0, 72, 0
2, 27360, Note_on_c, 0, 70, 75
2, 27380, Note_on_c, 0, 70, 0
2, 27408, Note_on_c, 0, 70, 75
2, 27453, Note_on_c, 0, 70, 0
2, 27456, Note_on_c, 0, 72, 75
2, 27469, Note_on_c, 0, 72, 0
2, 27470, Note_on_c, 0, 70, 75
2, 27483, Note_on_c, 0, 70, 0
2, 27484, Note_on_c, 0, 72, 75
2, 27497, Note_on_c, 0, 72, 0
2, 27498, Note_on_c, 0, 70, 75
2, 27511, Note_on_c, 0, 70, 0
2, 27512, Note_on_c, 0, 72, 75
2, 27525, Note_on_c, 0, 72, 0
2, 27526, Note_on_c, 0, 70, 75
2, 27539, Note_on_c, 0, 70, 0
2, 27540, Note_on_c, 0, 72, 75
2, 27553, Note_on_c, 0, 72, 0
2, 27554, Note_on_c, 0, 70, 75
2, 27567, Note_on_c, 0, 70, 0
2, 27568, Note_on_c, 0, 72, 75
2, 27581, Note_on_c, 0, 72, 0
2, 27582, Note_on_c, 0, 70, 75
2, 27595, Note_on_c, 0, 70, 0
2, 27596, Note_on_c, 0, 68, 75
2, 27647, Note_on_c, 0, 68, 0
2, 27648, Note_on_c, 0, 67, 75
2, 27671, Note_on_c, 0, 67, 0
2, 27672, Note_on_c, 0, 70, 75
2, 27695, Note_on_c, 0, 70, 0
2, 27696, Note_on_c, 0, 68, 75
2, 27719, Note_on_c, 0, 68, 0
2, 27720, Note_on_c, 0, 67, 75
2, 27743, Note_on_c, 0, 67, 0
2, 27744, Note_on_c, 0, 72, 75
2, 27767, Note_on_c, 0, 72, 0
2, 27768, Note_on_c, 0, 68, 75
2, 27791, Note_on_c, 0, 68, 0
2, 27792, Note_on_c, 0, 67, 75
2, 27815, Note_on_c, 0, 67, 0
2, 27816, Note_on_c, 0, 65, 75
2, 27839, Note_on_c, 0, 65, 0
2, 27840, Note_on_c, 0, 63, 75
2, 27929, Note_on_c, 0, 63, 0
2, 27936, Note_on_c, 0, 67, 75
2, 27959, Note_on_c, 0, 67, 0
2, 27960, Note_on_c, 0, 65, 75
2, 27983, Note_on_c, 0, 65, 0
2, 27984, Note_on_c, 0, 63, 75
2, 28007, Note_on_c, 0, 63, 0
2, 28008, Note_on_c, 0, 62, 75
2, 28031, Note_on_c, 0, 62, 0
2, 28032, Note_on_c, 0, 63, 75
2, 28077, Note_on_c, 0, 63, 0
2, 28080, Note_on_c, 0, 74, 73
2, 28104, Note_on_c, 0, 74, 0
2, 28104, Note_on_c, 0, 75, 72
2, 28127, Note_on_c, 0, 75, 0
2, 28128, Note_on_c, 0, 74, 71
2, 28151, Note_on_c, 0, 74, 0
2, 28152, Note_on_c, 0, 72, 71
2, 28175, Note_on_c, 0, 72, 0
2, 28176, Note_on_c, 0, 70, 70
2, 28199, Note_on_c, 0, 70, 0
2, 28200, Note_on_c, 0, 69, 69
2, 28223, Note_on_c, 0, 69, 0
2, 28224, Note_on_c, 0, 70, 68
2, 28269, Note_on_c, 0, 70, 0
2, 28272, Note_on_c, 0, 74, 67
2, 28296, Note_on_c, 0, 74, 0
2, 28296, Note_on_c, 0, 75, 66
2, 28319, Note_on_c, 0, 75, 0
2, 28320, Note_on_c, 0, 74, 65
2, 28343, Note_on_c, 0, 74, 0
2, 28344, Note_on_c, 0, 72, 64
2, 28367, Note_on_c, 0, 72, 0
2, 28368, Note_on_c, 0, 70, 63
2, 28391, Note_on_c, 0, 70, 0
2, 28392, Note_on_c, 0, 69, 63
2, 28415, Note_on_c, 0, 69, 0
2, 28416, Note_on_c, 0, 70, 62
2, 28505, Note_on_c, 0, 70, 0
2, 28560, Note_on_c, 0, 82, 80
2, 28575, Note_on_c, 0, 82, 0
2, 28576, Note_on_c, 0, 84, 80
2, 28591, Note_on_c, 0, 84, 0
2, 28592, Note_on_c, 0, 82, 80
2, 28607, Note_on_c, 0, 82, 0
2, 28608, Note_on_c, 0, 87, 80
2, 28653, Note_on_c, 0, 87, 0
2, 28656, Note_on_c, 0, 79, 80
2, 28671, Note_on_c, 0, 79, 0
2, 28672, Note_on_c, 0, 80, 80
2, 28687, Note_on_c, 0, 80, 0
2, 28688, Note_on_c, 0, 79, 80
2, 28703, Note_on_c, 0, 79, 0
2, 28704, Note_on_c, 0, 82, 80
2, 28749, Note_on_c, 0, 82, 0
2, 28752, Note_on_c, 0, 75, 80
2, 28767, Note_on_c, 0, 75, 0
2, 28768, Note_on_c, 0, 77, 80
2, 28783, Note_on_c, 0, 77, 0
2, 28784, Note_on_c, 0, 75, 80
2, 28799, Note_on_c, 0, 75, 0
2, 28800, Note_on_c, 0, 79, 80
2, 28845, Note_on_c, 0, 79, 0
2, 28848, Note_on_c, 0, 70, 80
2, 28863, Note_on_c, 0, 70, 0
2, 28864, Note_on_c, 0, 72, 80
2, 28879, Note_on_c, 0, 72, 0
2, 28880, Note_on_c, 0, 70, 80
2, 28895, Note_on_c, 0, 70, 0
2, 28896, Note_on_c, 0, 75, 80
2, 28941, Note_on_c, 0, 75, 0
2, 28944, Note_on_c, 0, 67, 80
2, 28989, Note_on_c, 0, 67, 0
2, 28992, Note_on_c, 0, 68, 80
2, 29004, Note_on_c, 0, 68, 0
2, 29004, Note_on_c, 0, 70, 80
2, 29016, Note_on_c, 0, 70, 0
2, 29016, Note_on_c, 0, 68, 80
2, 29028, Note_on_c, 0, 68, 0
2, 29028, Note_on_c, 0, 70, 80
2, 29040, Note_on_c, 0, 70, 0
2, 29040, Note_on_c, 0, 68, 80
2, 29052, Note_on_c, 0, 68, 0
2, 29052, Note_on_c, 0, 70, 80
2, 29059, Note_on_c, 0, 70, 0
2, 29064, Note_on_c, 0, 67, 80
2, 29076, Note_on_c, 0, 67, 0
2, 29076, Note_on_c, 0, 68, 80
2, 29088, Note_on_c, 0, 68, 0
2, 29088, Note_on_c, 0, 70, 80
2, 29108, Note_on_c, 0, 70, 0
2, 29136, Note_on_c, 0, 70, 80
2, 29181, Note_on_c, 0, 70, 0
2, 29184, Note_on_c, 0, 72, 80
2, 29273, Note_on_c, 0, 72, 0
2, 29328, Note_on_c, 0, 82, 80
2, 29343, Note_on_c, 0, 82, 0
2, 29344, Note_on_c, 0, 84, 80
2, 29359, Note_on_c, 0, 84, 0
2, 29360, Note_on_c, 0, 82, 80
2, 29375, Note_on_c, 0, 82, 0
2, 29376, Note_on_c, 0, 87, 80
2, 29421, Note_on_c, 0, 87, 0
2, 29424, Note_on_c, 0, 79, 80
2, 29439, Note_on_c, 0, 79, 0
2, 29440, Note_on_c, 0, 80, 80
2, 29455, Note_on_c, 0, 80, 0
2, 29456, Note_on_c, 0, 79, 80
2, 29471, Note_on_c, 0, 79, 0
2, 29472, Note_on_c, 0, 82, 80
2, 29517, Note_on_c, 0, 82, 0
2, 29520, Note_on_c, 0, 75, 80
2, 29535, Note_on_c, 0, 75, 0
2, 29536, Note_on_c, 0, 77, 80
2, 29551, Note_on_c, 0, 77, 0
2, 29552, Note_on_c, 0, 75, 80
2, 29567, Note_on_c, 0, 75, 0
2, 29568, Note_on_c, 0, 79, 80
2, 29613, Note_on_c, 0, 79, 0
2, 29616, Note_on_c, 0, 70, 80
2, 29631, Note_on_c, 0, 70, 0
2, 29632, Note_on_c, 0, 72, 80
2, 29647, Note_on_c, 0, 72, 0
2, 29648, Note_on_c, 0, 70, 80
2, 29663, Note_on_c, 0, 70, 0
2, 29664, Note_on_c, 0, 75, 80
2, 29709, Note_on_c, 0, 75, 0
2, 29712, Note_on_c, 0, 67, 80
2, 29757, Note_on_c, 0, 67, 0
2, 29760, Note_on_c, 0, 68, 80
2, 29772, Note_on_c, 0, 68, 0
2, 29772, Note_on_c, 0, 70, 80
2, 29784, Note_on_c, 0, 70, 0
2, 29784, Note_on_c, 0, 68, 80
2, 29796, Note_on_c, 0, 68, 0
2, 29796, Note_on_c, 0, 70, 80
2, 29808, Note_on_c, 0, 70, 0
2, 29808, Note_on_c, 0, 68, 80
2, 29820, Note_on_c, 0, 68, 0
2, 29820, Note_on_c, 0, 70, 80
2, 29827, Note_on_c, 0, 70, 0
2, 29832, Note_on_c, 0, 67, 80
2, 29844, Note_on_c, 0, 67, 0
2, 29844, Note_on_c, 0, 68, 80
2, 29856, Note_on_c, 0, 68, 0
2, 29856, Note_on_c, 0, 70, 80
2, 29876, Note_on_c, 0, 70, 0
2, 29904, Note_on_c, 0, 70, 80
2, 29949, Note_on_c, 0, 70, 0
2, 29952, Note_on_c, 0, 63, 80
2, 30041, Note_on_c, 0, 63, 0
2, 30096, Note_on_c, 0, 65, 75
2, 30111, Note_on_c, 0, 65, 0
2, 30112, Note_on_c, 0, 67, 75
2, 30127, Note_on_c, 0, 67, 0
2, 30128, Note_on_c, 0, 65, 75
2, 30143, Note_on_c, 0, 65, 0
2, 30144, Note_on_c, 0, 70, 75
2, 30189, Note_on_c, 0, 70, 0
2, 30192, Note_on_c, 0, 70, 75
2, 30207, Note_on_c, 0, 70, 0
2, 30208, Note_on_c, 0, 72, 75
2, 30223, Note_on_c, 0, 72, 0
2, 30224, Note_on_c, 0, 70, 75
2, 30239, Note_on_c, 0, 70, 0
2, 30240, Note_on_c, 0, 74, 75
2, 30285, Note_on_c, 0, 74, 0
2, 30288, Note_on_c, 0, 74, 75
2, 30303, Note_on_c, 0, 74, 0
2, 30304, Note_on_c, 0, 75, 75
2, 30319, Note_on_c, 0, 75, 0
2, 30320, Note_on_c, 0, 74, 75
2, 30335, Note_on_c, 0, 74, 0
2, 30336, Note_on_c, 0, 77, 75
2, 30469, Note_on_c, 0, 77, 0
2, 30480, Note_on_c, 0, 74, 75
2, 30495, Note_on_c, 0, 74, 0
2, 30496, Note_on_c, 0, 75, 75
2, 30511, Note_on_c, 0, 75, 0
2, 30512, Note_on_c, 0, 74, 75
2, 30527, Note_on_c, 0, 74, 0
2, 30528, Note_on_c, 0, 77, 75
2, 30661, Note_on_c, 0, 77, 0
2, 30672, Note_on_c, 0, 74, 75
2, 30695, Note_on_c, 0, 74, 0
2, 30696, Note_on_c, 0, 77, 75
2, 30719, Note_on_c, 0, 77, 0
2, 30720, Note_on_c, 0, 75, 75
2, 30740, Note_on_c, 0, 75, 0
2, 30768, Note_on_c, 0, 75, 75
2, 30813, Note_on_c, 0, 75, 0
2, 30816, Note_on_c, 0, 75, 75
2, 30828, Note_on_c, 0, 75, 0
2, 30828, Note_on_c, 0, 77, 75
2, 30840, Note_on_c, 0, 77, 0
2, 30840, Note_on_c, 0, 75, 75
2, 30852, Note_on_c, 0, 75, 0
2, 30852, Note_on_c, 0, 77, 75
2, 30861, Note_on_c, 0, 77, 0
2, 30864, Note_on_c, 0, 74, 75
2, 30887, Note_on_c, 0, 74, 0
2, 30888, Note_on_c, 0, 72, 75
2, 30911, Note_on_c, 0, 72, 0
2, 30912, Note_on_c, 0, 74, 75
2, 30957, Note_on_c, 0, 74, 0
2, 30960, Note_on_c, 0, 70, 75
2, 31005, Note_on_c, 0, 70, 0
2, 31008, Note_on_c, 0, 70, 75
2, 31053, Note_on_c, 0, 70, 0
2, 31056, Note_on_c, 0, 74, 75
2, 31071, Note_on_c, 0, 74, 0
2, 31072, Note_on_c, 0, 75, 75
2, 31087, Note_on_c, 0, 75, 0
2, 31088, Note_on_c, 0, 77, 75
2, 31103, Note_on_c, 0, 77, 0
2, 31104, Note_on_c, 0, 75, 75
2, 31124, Note_on_c, 0, 75, 0
2, 31152, Note_on_c, 0, 75, 75
2, 31197, Note_on_c, 0, 75, 0
2, 31200, Note_on_c, 0, 75, 75
2, 31212, Note_on_c, 0, 75, 0
2, 31212, Note_on_c, 0, 77, 75
2, 31224, Note_on_c, 0, 77, 0
2, 31224, Note_on_c, 0, 75, 75
2, 31236, Note_on_c, 0, 75, 0
2, 31236, Note_on_c, 0, 77, 75
2, 31245, Note_on_c, 0, 77, 0
2, 31248, Note_on_c, 0, 74, 75
2, 31271, Note_on_c, 0, 74, 0
2, 31272, Note_on_c, 0, 72, 75
2, 31295, Note_on_c, 0, 72, 0
2, 31296, Note_on_c, 0, 74, 80
2, 31319, Note_on_c, 0, 74, 0
2, 31320, Note_on_c, 0, 70, 80
2, 31343, Note_on_c, 0, 70, 0
2, 31344, Note_on_c, 0, 69, 80
2, 31367, Note_on_c, 0, 69, 0
2, 31368, Note_on_c, 0, 70, 80
2, 31391, Note_on_c, 0, 70, 0
2, 31392, Note_on_c, 0, 72, 80
2, 31415, Note_on_c, 0, 72, 0
2, 31416, Note_on_c, 0, 70, 80
2, 31439, Note_on_c, 0, 70, 0
2, 31440, Note_on_c, 0, 69, 80
2, 31463, Note_on_c, 0, 69, 0
2, 31464, Note_on_c, 0, 70, 80
2, 31487, Note_on_c, 0, 70, 0
2, 31488, Note_on_c, 0, 77, 80
2, 31511, Note_on_c, 0, 77, 0
2, 31512, Note_on_c, 0, 74, 80
2, 31535, Note_on_c, 0, 74, 0
2, 31536, Note_on_c, 0, 72, 80
2, 31559, Note_on_c, 0, 72, 0
2, 31560, Note_on_c, 0, 70, 80
2, 31583, Note_on_c, 0, 70, 0
2, 31584, Note_on_c, 0, 77, 80
2, 31607, Note_on_c, 0, 77, 0
2, 31608, Note_on_c, 0, 74, 80
2, 31631, Note_on_c, 0, 74, 0
2, 31632, Note_on_c, 0, 72, 80
2, 31655, Note_on_c, 0, 72, 0
2, 31656, Note_on_c, 0, 70, 80
2, 31679, Note_on_c, 0, 70, 0
2, 31680, Note_on_c, 0, 75, 80
2, 31703, Note_on_c, 0, 75, 0
2, 31704, Note_on_c, 0, 70, 80
2, 31727, Note_on_c, 0, 70, 0
2, 31728, Note_on_c, 0, 69, 80
2, 31751, Note_on_c, 0, 69, 0
2, 31752, Note_on_c, 0, 70, 80
2, 31775, Note_on_c, 0, 70, 0
2, 31776, Note_on_c, 0, 72, 80
2, 31799, Note_on_c, 0, 72, 0
2, 31800, Note_on_c, 0, 70, 80
2, 31823, Note_on_c, 0, 70, 0
2, 31824, Note_on_c, 0, 69, 80
2, 31847, Note_on_c, 0, 69, 0
2, 31848, Note_on_c, 0, 70, 80
2, 31871, Note_on_c, 0, 70, 0
2, 31872, Note_on_c, 0, 75, 80
2, 31895, Note_on_c, 0, 75, 0
2, 31896, Note_on_c, 0, 74, 80
2, 31919, Note_on_c, 0, 74, 0
2, 31920, Note_on_c, 0, 75, 80
2, 31943, Note_on_c, 0, 75, 0
2, 31944, Note_on_c, 0, 77, 80
2, 31967, Note_on_c, 0, 77, 0
2, 31968, Note_on_c, 0, 79, 80
2, 31991, Note_on_c, 0, 79, 0
2, 31992, Note_on_c, 0, 75, 80
2, 32015, Note_on_c, 0, 75, 0
2, 32016, Note_on_c, 0, 74, 80
2, 32039, Note_on_c, 0, 74, 0
2, 32040, Note_on_c, 0, 75, 80
2, 32063, Note_on_c, 0, 75, 0
2, 32064, Note_on_c, 0, 77, 80
2, 32087, Note_on_c, 0, 77, 0
2, 32088, Note_on_c, 0, 74, 80
2, 32111, Note_on_c, 0, 74, 0
2, 32112, Note_on_c, 0, 72, 80
2, 32135, Note_on_c, 0, 72, 0
2, 32136, Note_on_c, 0, 70, 80
2, 32159, Note_on_c, 0, 70, 0
2, 32160, Note_on_c, 0, 69, 80
2, 32183, Note_on_c, 0, 69, 0
2, 32184, Note_on_c, 0, 70, 80
2, 32207, Note_on_c, 0, 70, 0
2, 32208, Note_on_c, 0, 69, 80
2, 32231, Note_on_c, 0, 69, 0
2, 32232, Note_on_c, 0, 70, 80
2, 32255, Note_on_c, 0, 70, 0
2, 32256, Note_on_c, 0, 80, 80
2, 32279, Note_on_c, 0, 80, 0
2, 32280, Note_on_c, 0, 79, 80
2, 32303, Note_on_c, 0, 79, 0
2, 32304, Note_on_c, 0, 80, 80
2, 32327, Note_on_c, 0, 80, 0
2, 32328, Note_on_c, 0, 82, 80
2, 32351, Note_on_c, 0, 82, 0
2, 32352, Note_on_c, 0, 84, 80
2, 32375, Note_on_c, 0, 84, 0
2, 32376, Note_on_c, 0, 80, 80
2, 32399, Note_on_c, 0, 80, 0
2, 32400, Note_on_c, 0, 79, 80
2, 32423, Note_on_c, 0, 79, 0
2, 32424, Note_on_c, 0, 77, 80
2, 32447, Note_on_c, 0, 77, 0
2, 32448, Note_on_c, 0, 79, 80
2, 32471, Note_on_c, 0, 79, 0
2, 32472, Note_on_c, 0, 75, 80
2, 32495, Note_on_c, 0, 75, 0
2, 32496, Note_on_c, 0, 74, 80
2, 32519, Note_on_c, 0, 74, 0
2, 32520, Note_on_c, 0, 75, 80
2, 32543, Note_on_c, 0, 75, 0
2, 32544, Note_on_c, 0, 77, 80
2, 32567, Note_on_c, 0, 77, 0
2, 32568, Note_on_c, 0, 75, 80
2, 32591, Note_on_c, 0, 75, 0
2, 32592, Note_on_c, 0, 74, 80
2, 32615, Note_on_c, 0, 74, 0
2, 32616, Note_on_c, 0, 75, 80
2, 32639, Note_on_c, 0, 75, 0
2, 32640, Note_on_c, 0, 79, 80
2, 32663, Note_on_c, 0, 79, 0
2, 32664, Note_on_c, 0, 77, 80
2, 32687, Note_on_c, 0, 77, 0
2, 32688, Note_on_c, 0, 79, 80
2, 32711, Note_on_c, 0, 79, 0
2, 32712, Note_on_c, 0, 80, 80
2, 32735, Note_on_c, 0, 80, 0
2, 32736, Note_on_c, 0, 82, 80
2, 32759, Note_on_c, 0, 82, 0
2, 32760, Note_on_c, 0, 80, 80
2, 32783, Note_on_c, 0, 80, 0
2, 32784, Note_on_c, 0, 79, 80
2, 32807, Note_on_c, 0, 79, 0
2, 32808, Note_on_c, 0, 77, 80
2, 32831, Note_on_c, 0, 77, 0
2, 32832, Note_on_c, 0, 76, 80
2, 32855, Note_on_c, 0, 76, 0
2, 32856, Note_on_c, 0, 72, 80
2, 32879, Note_on_c, 0, 72, 0
2, 32880, Note_on_c, 0, 71, 80
2, 32903, Note_on_c, 0, 71, 0
2, 32904, Note_on_c, 0, 72, 80
2, 32927, Note_on_c, 0, 72, 0
2, 32928, Note_on_c, 0, 74, 80
2, 32951, Note_on_c, 0, 74, 0
2, 32952, Note_on_c, 0, 72, 80
2, 32975, Note_on_c, 0, 72, 0
2, 32976, Note_on_c, 0, 71, 80
2, 32999, Note_on_c, 0, 71, 0
2, 33000, Note_on_c, 0, 72, 80
2, 33023, Note_on_c, 0, 72, 0
2, 33024, Note_on_c, 0, 79, 80
2, 33047, Note_on_c, 0, 79, 0
2, 33048, Note_on_c, 0, 76, 80
2, 33071, Note_on_c, 0, 76, 0
2, 33072, Note_on_c, 0, 74, 80
2, 33095, Note_on_c, 0, 74, 0
2, 33096, Note_on_c, 0, 72, 80
2, 33119, Note_on_c, 0, 72, 0
2, 33120, Note_on_c, 0, 84, 80
2, 33143, Note_on_c, 0, 84, 0
2, 33144, Note_on_c, 0, 82, 78
2, 33167, Note_on_c, 0, 82, 0
2, 33168, Note_on_c, 0, 80, 77
2, 33191, Note_on_c, 0, 80, 0
2, 33192, Note_on_c, 0, 79, 76
2, 33215, Note_on_c, 0, 79, 0
2, 33216, Note_on_c, 0, 80, 75
2, 33261, Note_on_c, 0, 80, 0
2, 33264, Note_on_c, 0, 80, 75
2, 33279, Note_on_c, 0, 80, 0
2, 33280, Note_on_c, 0, 82, 75
2, 33295, Note_on_c, 0, 82, 0
2, 33296, Note_on_c, 0, 80, 75
2, 33311, Note_on_c, 0, 80, 0
2, 33312, Note_on_c, 0, 84, 75
2, 33401, Note_on_c, 0, 84, 0
2, 33456, Note_on_c, 0, 77, 75
2, 33471, Note_on_c, 0, 77, 0
2, 33472, Note_on_c, 0, 79, 75
2, 33487, Note_on_c, 0, 79, 0
2, 33488, Note_on_c, 0, 77, 75
2, 33503, Note_on_c, 0, 77, 0
2, 33504, Note_on_c, 0, 82, 75
2, 33549, Note_on_c, 0, 82, 0
2, 33552, Note_on_c, 0, 80, 75
2, 33597, Note_on_c, 0, 80, 0
2, 33648, Note_on_c, 0, 79, 75
2, 33663, Note_on_c, 0, 79, 0
2, 33664, Note_on_c, 0, 80, 75
2, 33679, Note_on_c, 0, 80, 0
2, 33680, Note_on_c, 0, 79, 75
2, 33695, Note_on_c, 0, 79, 0
2, 33696, Note_on_c, 0, 82, 75
2, 33785, Note_on_c, 0, 82, 0
2, 33840, Note_on_c, 0, 75, 75
2, 33855, Note_on_c, 0, 75, 0
2, 33856, Note_on_c, 0, 77, 75
2, 33871, Note_on_c, 0, 77, 0
2, 33872, Note_on_c, 0, 75, 75
2, 33887, Note_on_c, 0, 75, 0
2, 33888, Note_on_c, 0, 80, 75
2, 33933, Note_on_c, 0, 80, 0
2, 33936, Note_on_c, 0, 79, 75
2, 33981, Note_on_c, 0, 79, 0
2, 34032, Note_on_c, 0, 77, 75
2, 34047, Note_on_c, 0, 77, 0
2, 34048, Note_on_c, 0, 79, 75
2, 34063, Note_on_c, 0, 79, 0
2, 34064, Note_on_c, 0, 77, 75
2, 34079, Note_on_c, 0, 77, 0
2, 34080, Note_on_c, 0, 80, 75
2, 34169, Note_on_c, 0, 80, 0
2, 34224, Note_on_c, 0, 74, 75
2, 34239, Note_on_c, 0, 74, 0
2, 34240, Note_on_c, 0, 75, 75
2, 34255, Note_on_c, 0, 75, 0
2, 34256, Note_on_c, 0, 74, 75
2, 34271, Note_on_c, 0, 74, 0
2, 34272, Note_on_c, 0, 79, 75
2, 34317, Note_on_c, 0, 79, 0
2, 34320, Note_on_c, 0, 77, 75
2, 34365, Note_on_c, 0, 77, 0
2, 34416, Note_on_c, 0, 75, 75
2, 34431, Note_on_c, 0, 75, 0
2, 34432, Note_on_c, 0, 77, 75
2, 34447, Note_on_c, 0, 77, 0
2, 34448, Note_on_c, 0, 75, 75
2, 34463, Note_on_c, 0, 75, 0
2, 34464, Note_on_c, 0, 79, 75
2, 34553, Note_on_c, 0, 79, 0
2, 34608, Note_on_c, 0, 72, 75
2, 34623, Note_on_c, 0, 72, 0
2, 34624, Note_on_c, 0, 74, 75
2, 34639, Note_on_c, 0, 74, 0
2, 34640, Note_on_c, 0, 72, 75
2, 34655, Note_on_c, 0, 72, 0
2, 34656, Note_on_c, 0, 77, 75
2, 34701, Note_on_c, 0, 77, 0
2, 34704, Note_on_c, 0, 75, 75
2, 34749, Note_on_c, 0, 75, 0
2, 34752, Note_on_c, 0, 74, 91
2, 34848, Note_on_c, 0, 74, 0
2, 34848, Note_on_c, 0, 77, 75
2, 34937, Note_on_c, 0, 77, 0
2, 34992, Note_on_c, 0, 79, 75
2, 35015, Note_on_c, 0, 79, 0
2, 35016, Note_on_c, 0, 80, 75
2, 35039, Note_on_c, 0, 80, 0
2, 35040, Note_on_c, 0, 79, 75
2, 35063, Note_on_c, 0, 79, 0
2, 35064, Note_on_c, 0, 77, 75
2, 35087, Note_on_c, 0, 77, 0
2, 35088, Note_on_c, 0, 75, 75
2, 35111, Note_on_c, 0, 75, 0
2, 35112, Note_on_c, 0, 74, 75
2, 35135, Note_on_c, 0, 74, 0
2, 35136, Note_on_c, 0, 74, 91
2, 35232, Note_on_c, 0, 74, 0
2, 35232, Note_on_c, 0, 75, 75
2, 35321, Note_on_c, 0, 75, 0
2, 35376, Note_on_c, 0, 81, 75
2, 35399, Note_on_c, 0, 81, 0
2, 35400, Note_on_c, 0, 82, 75
2, 35423, Note_on_c, 0, 82, 0
2, 35424, Note_on_c, 0, 80, 75
2, 35447, Note_on_c, 0, 80, 0
2, 35448, Note_on_c, 0, 79, 75
2, 35471, Note_on_c, 0, 79, 0
2, 35472, Note_on_c, 0, 77, 75
2, 35495, Note_on_c, 0, 77, 0
2, 35496, Note_on_c, 0, 75, 75
2, 35519, Note_on_c, 0, 75, 0
2, 35520, Note_on_c, 0, 76, 91
2, 35616, Note_on_c, 0, 76, 0
2, 35616, Note_on_c, 0, 77, 75
2, 35705, Note_on_c, 0, 77, 0
2, 35760, Note_on_c, 0, 79, 75
2, 35783, Note_on_c, 0, 79, 0
2, 35784, Note_on_c, 0, 80, 75
2, 35807, Note_on_c, 0, 80, 0
2, 35808, Note_on_c, 0, 79, 75
2, 35831, Note_on_c, 0, 79, 0
2, 35832, Note_on_c, 0, 77, 75
2, 35855, Note_on_c, 0, 77, 0
2, 35856, Note_on_c, 0, 75, 75
2, 35879, Note_on_c, 0, 75, 0
2, 35880, Note_on_c, 0, 74, 75
2, 35903, Note_on_c, 0, 74, 0
2, 35904, Note_on_c, 0, 75, 75
2, 35949, Note_on_c, 0, 75, 0
2, 35952, Note_on_c, 0, 67, 75
2, 35967, Note_on_c, 0, 67, 0
2, 35968, Note_on_c, 0, 68, 75
2, 35983, Note_on_c, 0, 68, 0
2, 35984, Note_on_c, 0, 67, 75
2, 35999, Note_on_c, 0, 67, 0
2, 36000, Note_on_c, 0, 70, 75
2, 36045, Note_on_c, 0, 70, 0
2, 36048, Note_on_c, 0, 70, 75
2, 36063, Note_on_c, 0, 70, 0
2, 36064, Note_on_c, 0, 72, 75
2, 36079, Note_on_c, 0, 72, 0
2, 36080, Note_on_c, 0, 70, 75
2, 36095, Note_on_c, 0, 70, 0
2, 36096, Note_on_c, 0, 75, 75
2, 36141, Note_on_c, 0, 75, 0
2, 36144, Note_on_c, 0, 75, 75
2, 36159, Note_on_c, 0, 75, 0
2, 36160, Note_on_c, 0, 77, 75
2, 36175, Note_on_c, 0, 77, 0
2, 36176, Note_on_c, 0, 75, 75
2, 36191, Note_on_c, 0, 75, 0
2, 36192, Note_on_c, 0, 79, 75
2, 36237, Note_on_c, 0, 79, 0
2, 36240, Note_on_c, 0, 79, 75
2, 36255, Note_on_c, 0, 79, 0
2, 36256, Note_on_c, 0, 80, 75
2, 36271, Note_on_c, 0, 80, 0
2, 36272, Note_on_c, 0, 79, 75
2, 36287, Note_on_c, 0, 79, 0
2, 36288, Note_on_c, 0, 82, 75
2, 36421, Note_on_c, 0, 82, 0
2, 36432, Note_on_c, 0, 79, 75
2, 36447, Note_on_c, 0, 79, 0
2, 36448, Note_on_c, 0, 80, 75
2, 36463, Note_on_c, 0, 80, 0
2, 36464, Note_on_c, 0, 79, 75
2, 36479, Note_on_c, 0, 79, 0
2, 36480, Note_on_c, 0, 82, 75
2, 36613, Note_on_c, 0, 82, 0
2, 36624, Note_on_c, 0, 79, 75
2, 36647, Note_on_c, 0, 79, 0
2, 36648, Note_on_c, 0, 82, 75
2, 36671, Note_on_c, 0, 82, 0
2, 36672, Note_on_c, 0, 80, 75
2, 36717, Note_on_c, 0, 80, 0
2, 36720, Note_on_c, 0, 80, 75
2, 36765, Note_on_c, 0, 80, 0
2, 36768, Note_on_c, 0, 80, 75
2, 36780, Note_on_c, 0, 80, 0
2, 36780, Note_on_c, 0, 82, 75
2, 36792, Note_on_c, 0, 82, 0
2, 36792, Note_on_c, 0, 80, 75
2, 36804, Note_on_c, 0, 80, 0
2, 36804, Note_on_c, 0, 82, 75
2, 36813, Note_on_c, 0, 82, 0
2, 36816, Note_on_c, 0, 79, 75
2, 36839, Note_on_c, 0, 79, 0
2, 36840, Note_on_c, 0, 77, 75
2, 36863, Note_on_c, 0, 77, 0
2, 36864, Note_on_c, 0, 79, 75
2, 36909, Note_on_c, 0, 79, 0
2, 36912, Note_on_c, 0, 75, 75
2, 36957, Note_on_c, 0, 75, 0
2, 36960, Note_on_c, 0, 75, 75
2, 37005, Note_on_c, 0, 75, 0
2, 37008, Note_on_c, 0, 79, 75
2, 37023, Note_on_c, 0, 79, 0
2, 37024, Note_on_c, 0, 80, 75
2, 37039, Note_on_c, 0, 80, 0
2, 37040, Note_on_c, 0, 82, 75
2, 37055, Note_on_c, 0, 82, 0
2, 37056, Note_on_c, 0, 80, 75
2, 37101, Note_on_c, 0, 80, 0
2, 37104, Note_on_c, 0, 80, 75
2, 37149, Note_on_c, 0, 80, 0
2, 37152, Note_on_c, 0, 80, 75
2, 37164, Note_on_c, 0, 80, 0
2, 37164, Note_on_c, 0, 82, 75
2, 37176, Note_on_c, 0, 82, 0
2, 37176, Note_on_c, 0, 80, 75
2, 37188, Note_on_c, 0, 80, 0
2, 37188, Note_on_c, 0, 82, 75
2, 37197, Note_on_c, 0, 82, 0
2, 37200, Note_on_c, 0, 79, 75
2, 37223, Note_on_c, 0, 79, 0
2, 37224, Note_on_c, 0, 77, 75
2, 37247, Note_on_c, 0, 77, 0
2, 37248, Note_on_c, 0, 79, 75
2, 37271, Note_on_c, 0, 79, 0
2, 37272, Note_on_c, 0, 75, 75
2, 37295, Note_on_c, 0, 75, 0
2, 37296, Note_on_c, 0, 74, 75
2, 37319, Note_on_c, 0, 74, 0
2, 37320, Note_on_c, 0, 75, 75
2, 37343, Note_on_c, 0, 75, 0
2, 37344, Note_on_c, 0, 77, 75
2, 37367, Note_on_c, 0, 77, 0
2, 37368, Note_on_c, 0, 75, 75
2, 37391, Note_on_c, 0, 75, 0
2, 37392, Note_on_c, 0, 74, 75
2, 37415, Note_on_c, 0, 74, 0
2, 37416, Note_on_c, 0, 75, 75
2, 37439, Note_on_c, 0, 75, 0
2, 37440, Note_on_c, 0, 72, 75
2, 37463, Note_on_c, 0, 72, 0
2, 37464, Note_on_c, 0, 75, 75
2, 37487, Note_on_c, 0, 75, 0
2, 37488, Note_on_c, 0, 74, 75
2, 37511, Note_on_c, 0, 74, 0
2, 37512, Note_on_c, 0, 72, 75
2, 37535, Note_on_c, 0, 72, 0
2, 37536, Note_on_c, 0, 70, 75
2, 37581, Note_on_c, 0, 70, 0
2, 37584, Note_on_c, 0, 75, 75
2, 37629, Note_on_c, 0, 75, 0
2, 37632, Note_on_c, 0, 68, 75
2, 37655, Note_on_c, 0, 68, 0
2, 37656, Note_on_c, 0, 72, 75
2, 37679, Note_on_c, 0, 72, 0
2, 37680, Note_on_c, 0, 70, 75
2, 37703, Note_on_c, 0, 70, 0
2, 37704, Note_on_c, 0, 68, 75
2, 37727, Note_on_c, 0, 68, 0
2, 37728, Note_on_c, 0, 67, 75
2, 37751, Note_on_c, 0, 67, 0
2, 37752, Note_on_c, 0, 70, 75
2, 37775, Note_on_c, 0, 70, 0
2, 37776, Note_on_c, 0, 68, 75
2, 37799, Note_on_c, 0, 68, 0
2, 37800, Note_on_c, 0, 67, 75
2, 37823, Note_on_c, 0, 67, 0
2, 37824, Note_on_c, 0, 65, 75
2, 37847, Note_on_c, 0, 65, 0
2, 37848, Note_on_c, 0, 68, 75
2, 37871, Note_on_c, 0, 68, 0
2, 37872, Note_on_c, 0, 67, 75
2, 37895, Note_on_c, 0, 67, 0
2, 37896, Note_on_c, 0, 65, 75
2, 37919, Note_on_c, 0, 65, 0
2, 37920, Note_on_c, 0, 72, 75
2, 37965, Note_on_c, 0, 72, 0
2, 37968, Note_on_c, 0, 63, 75
2, 38013, Note_on_c, 0, 63, 0
2, 38016, Note_on_c, 0, 63, 75
2, 38028, Note_on_c, 0, 63, 0
2, 38028, Note_on_c, 0, 65, 75
2, 38040, Note_on_c, 0, 65, 0
2, 38040, Note_on_c, 0, 63, 75
2, 38052, Note_on_c, 0, 63, 0
2, 38052, Note_on_c, 0, 65, 75
2, 38061, Note_on_c, 0, 65, 0
2, 38064, Note_on_c, 0, 62, 75
2, 38109, Note_on_c, 0, 62, 0
2, 38160, Note_on_c, 0, 58, 70
2, 38175, Note_on_c, 0, 58, 0
2, 38176, Note_on_c, 0, 60, 70
2, 38191, Note_on_c, 0, 60, 0
2, 38192, Note_on_c, 0, 58, 70
2, 38207, Note_on_c, 0, 58, 0
2, 38208, Note_on_c, 0, 63, 70
2, 38297, Note_on_c, 0, 63, 0
2, 38352, Note_on_c, 0, 59, 70
2, 38400, Note_on_c, 0, 59, 0
2, 38400, Note_on_c, 0, 60, 70
2, 38489, Note_on_c, 0, 60, 0
2, 38544, Note_on_c, 0, 60, 70
2, 38559, Note_on_c, 0, 60, 0
2, 38560, Note_on_c, 0, 62, 70
2, 38575, Note_on_c, 0, 62, 0
2, 38576, Note_on_c, 0, 60, 70
2, 38591, Note_on_c, 0, 60, 0
2, 38592, Note_on_c, 0, 65, 70
2, 38681, Note_on_c, 0, 65, 0
2, 38736, Note_on_c, 0, 61, 70
2, 38784, Note_on_c, 0, 61, 0
2, 38784, Note_on_c, 0, 62, 70
2, 38873, Note_on_c, 0, 62, 0
2, 38928, Note_on_c, 0, 77, 70
2, 38951, Note_on_c, 0, 77, 0
2, 38952, Note_on_c, 0, 74, 70
2, 38975, Note_on_c, 0, 74, 0
2, 38976, Note_on_c, 0, 68, 75
2, 39109, Note_on_c, 0, 68, 0
2, 39120, Note_on_c, 0, 72, 75
2, 39135, Note_on_c, 0, 72, 0
2, 39136, Note_on_c, 0, 70, 75
2, 39151, Note_on_c, 0, 70, 0
2, 39152, Note_on_c, 0, 68, 75
2, 39167, Note_on_c, 0, 68, 0
2, 39168, Note_on_c, 0, 67, 75
2, 39213, Note_on_c, 0, 67, 0
2, 39216, Note_on_c, 0, 70, 75
2, 39261, Note_on_c, 0, 70, 0
2, 39312, Note_on_c, 0, 75, 75
2, 39327, Note_on_c, 0, 75, 0
2, 39328, Note_on_c, 0, 77, 75
2, 39343, Note_on_c, 0, 77, 0
2, 39344, Note_on_c, 0, 79, 75
2, 39359, Note_on_c, 0, 79, 0
2, 39360, Note_on_c, 0, 77, 75
2, 39405, Note_on_c, 0, 77, 0
2, 39408, Note_on_c, 0, 74, 75
2, 39453, Note_on_c, 0, 74, 0
2, 39456, Note_on_c, 0, 70, 75
2, 39501, Note_on_c, 0, 70, 0
2, 39504, Note_on_c, 0, 68, 75
2, 39549, Note_on_c, 0, 68, 0
2, 39552, Note_on_c, 0, 67, 75
2, 39575, Note_on_c, 0, 67, 0
2, 39576, Note_on_c, 0, 75, 75
2, 39599, Note_on_c, 0, 75, 0
2, 39600, Note_on_c, 0, 74, 75
2, 39623, Note_on_c, 0, 74, 0
2, 39624, Note_on_c, 0, 72, 75
2, 39647, Note_on_c, 0, 72, 0
2, 39648, Note_on_c, 0, 70, 75
2, 39668, Note_on_c, 0, 70, 0
2, 39696, Note_on_c, 0, 70, 75
2, 39741, Note_on_c, 0, 70, 0
2, 39744, Note_on_c, 0, 72, 75
2, 39757, Note_on_c, 0, 72, 0
2, 39758, Note_on_c, 0, 70, 75
2, 39771, Note_on_c, 0, 70, 0
2, 39772, Note_on_c, 0, 72, 75
2, 39785, Note_on_c, 0, 72, 0
2, 39786, Note_on_c, 0, 70, 75
2, 39799, Note_on_c, 0, 70, 0
2, 39800, Note_on_c, 0, 72, 75
2, 39813, Note_on_c, 0, 72, 0
2, 39814, Note_on_c, 0, 70, 75
2, 39827, Note_on_c, 0, 70, 0
2, 39828, Note_on_c, 0, 72, 75
2, 39841, Note_on_c, 0, 72, 0
2, 39842, Note_on_c, 0, 70, 75
2, 39855, Note_on_c, 0, 70, 0
2, 39856, Note_on_c, 0, 72, 75
2, 39869, Note_on_c, 0, 72, 0
2, 39870, Note_on_c, 0, 70, 75
2, 39883, Note_on_c, 0, 70, 0
2, 39884, Note_on_c, 0, 68, 75
2, 39935, Note_on_c, 0, 68, 0
2, 39936, Note_on_c, 0, 67, 75
2, 39959, Note_on_c, 0, 67, 0
2, 39960, Note_on_c, 0, 70, 75
2, 39983, Note_on_c, 0, 70, 0
2, 39984, Note_on_c, 0, 68, 75
2, 40007, Note_on_c, 0, 68, 0
2, 40008, Note_on_c, 0, 67, 75
2, 40031, Note_on_c, 0, 67, 0
2, 40032, Note_on_c, 0, 72, 75
2, 40055, Note_on_c, 0, 72, 0
2, 40056, Note_on_c, 0, 68, 75
2, 40079, Note_on_c, 0, 68, 0
2, 40080, Note_on_c, 0, 67, 75
2, 40103, Note_on_c, 0, 67, 0
2, 40104, Note_on_c, 0, 65, 75
2, 40127, Note_on_c, 0, 65, 0
2, 40128, Note_on_c, 0, 63, 75
2, 40217, Note_on_c, 0, 63, 0
2, 40224, Note_on_c, 0, 67, 75
2, 40247, Note_on_c, 0, 67, 0
2, 40248, Note_on_c, 0, 65, 75
2, 40271, Note_on_c, 0, 65, 0
2, 40272, Note_on_c, 0, 63, 75
2, 40295, Note_on_c, 0, 63, 0
2, 40296, Note_on_c, 0, 62, 75
2, 40319, Note_on_c, 0, 62, 0
2, 40320, Note_on_c, 0, 63, 75
2, 40365, Note_on_c, 0, 63, 0
2, 40368, Note_on_c, 0, 74, 73
2, 40392, Note_on_c, 0, 74, 0
2, 40392, Note_on_c, 0, 75, 72
2, 40415, Note_on_c, 0, 75, 0
2, 40416, Note_on_c, 0, 74, 71
2, 40439, Note_on_c, 0, 74, 0
2, 40440, Note_on_c, 0, 72, 71
2, 40463, Note_on_c, 0, 72, 0
2, 40464, Note_on_c, 0, 70, 70
2, 40487, Note_on_c, 0, 70, 0
2, 40488, Note_on_c, 0, 69, 69
2, 40511, Note_on_c, 0, 69, 0
2, 40512, Note_on_c, 0, 70, 68
2, 40557, Note_on_c, 0, 70, 0
2, 40560, Note_on_c, 0, 74, 67
2, 40584, Note_on_c, 0, 74, 0
2, 40584, Note_on_c, 0, 75, 66
2, 40607, Note_on_c, 0, 75, 0
2, 40608, Note_on_c, 0, 74, 65
2, 40631, Note_on_c, 0, 74, 0
2, 40632, Note_on_c, 0, 72, 64
2, 40655, Note_on_c, 0, 72, 0
2, 40656, Note_on_c, 0, 70, 63
2, 40679, Note_on_c, 0, 70, 0
2, 40680, Note_on_c, 0, 69, 63
2, 40703, Note_on_c, 0, 69, 0
2, 40704, Note_on_c, 0, 70, 62
2, 40793, Note_on_c, 0, 70, 0
2, 40848, Note_on_c, 0, 82, 80
2, 40863, Note_on_c, 0, 82, 0
2, 40864, Note_on_c, 0, 84, 80
2, 40879, Note_on_c, 0, 84, 0
2, 40880, Note_on_c, 0, 82, 80
2, 40895, Note_on_c, 0, 82, 0
2, 40896, Note_on_c, 0, 87, 80
2, 40941, Note_on_c, 0, 87, 0
2, 40944, Note_on_c, 0, 79, 80
2, 40959, Note_on_c, 0, 79, 0
2, 40960, Note_on_c, 0, 80, 80
2, 40975, Note_on_c, 0, 80, 0
2, 40976, Note_on_c, 0, 79, 80
2, 40991, Note_on_c, 0, 79, 0
2, 40992, Note_on_c, 0, 82, 80
2, 41037, Note_on_c, 0, 82, 0
2, 41040, Note_on_c, 0, 75, 80
2, 41055, Note_on_c, 0, 75, 0
2, 41056, Note_on_c, 0, 77, 80
2, 41071, Note_on_c, 0, 77, 0
2, 41072, Note_on_c, 0, 75, 80
2, 41087, Note_on_c, 0, 75, 0
2, 41088, Note_on_c, 0, 79, 80
2, 41133, Note_on_c, 0, 79, 0
2, 41136, Note_on_c, 0, 70, 80
2, 41151, Note_on_c, 0, 70, 0
2, 41152, Note_on_c, 0, 72, 80
2, 41167, Note_on_c, 0, 72, 0
2, 41168, Note_on_c, 0, 70, 80
2, 41183, Note_on_c, 0, 70, 0
2, 41184, Note_on_c, 0, 75, 80
2, 41229, Note_on_c, 0, 75, 0
2, 41232, Note_on_c, 0, 67, 80
2, 41277, Note_on_c, 0, 67, 0
2, 41280, Note_on_c, 0, 68, 80
2, 41292, Note_on_c, 0, 68, 0
2, 41292, Note_on_c, 0, 70, 80
2, 41304, Note_on_c, 0, 70, 0
2, 41304, Note_on_c, 0, 68, 80
2, 41316, Note_on_c, 0, 68, 0
2, 41316, Note_on_c, 0, 70, 80
2, 41328, Note_on_c, 0, 70, 0
2, 41328, Note_on_c, 0, 68, 80
2, 41340, Note_on_c, 0, 68, 0
2, 41340, Note_on_c, 0, 70, 80
2, 41347, Note_on_c, 0, 70, 0
2, 41352, Note_on_c, 0, 67, 80
2, 41364, Note_on_c, 0, 67, 0
2, 41364, Note_on_c, 0, 68, 80
2, 41376, Note_on_c, 0, 68, 0
2, 41376, Note_on_c, 0, 70, 80
2, 41396, Note_on_c, 0, 70, 0
2, 41424, Note_on_c, 0, 70, 80
2, 41469, Note_on_c, 0, 70, 0
2, 41472, Note_on_c, 0, 72, 80
2, 41561, Note_on_c, 0, 72, 0
2, 41616, Note_on_c, 0, 82, 80
2, 41631, Note_on_c, 0, 82, 0
2, 41632, Note_on_c, 0, 84, 80
2, 41647, Note_on_c, 0, 84, 0
2, 41648, Note_on_c, 0, 82, 80
2, 41663, Note_on_c, 0, 82, 0
2, 41664, Note_on_c, 0, 87, 80
2, 41709, Note_on_c, 0, 87, 0
2, 41712, Note_on_c, 0, 79, 80
2, 41727, Note_on_c, 0, 79, 0
2, 41728, Note_on_c, 0, 80, 80
2, 41743, Note_on_c, 0, 80, 0
2, 41744, Note_on_c, 0, 79, 80
2, 41759, Note_on_c, 0, 79, 0
2, 41760, Note_on_c, 0, 82, 80
2, 41805, Note_on_c, 0, 82, 0
2, 41808, Note_on_c, 0, 75, 80
2, 41823, Note_on_c, 0, 75, 0
2, 41824, Note_on_c, 0, 77, 80
2, 41839, Note_on_c, 0, 77, 0
2, 41840, Note_on_c, 0, 75, 80
2, 41855, Note_on_c, 0, 75, 0
2, 41856, Note_on_c, 0, 79, 80
2, 41901, Note_on_c, 0, 79, 0
2, 41904, Note_on_c, 0, 70, 80
2, 41919, Note_on_c, 0, 70, 0
2, 41920, Note_on_c, 0, 72, 80
2, 41935, Note_on_c, 0, 72, 0
2, 41936, Note_on_c, 0, 70, 80
2, 41951, Note_on_c, 0, 70, 0
2, 41952, Note_on_c, 0, 75, 80
2, 41997, Note_on_c, 0, 75, 0
2, 42000, Note_on_c, 0, 67, 80
2, 42045, Note_on_c, 0, 67, 0
2, 42048, Note_on_c, 0, 68, 80
2, 42060, Note_on_c, 0, 68, 0
2, 42060, Note_on_c, 0, 70, 80
2, 42072, Note_on_c, 0, 70, 0
2, 42072, Note_on_c, 0, 68, 80
2, 42084, Note_on_c, 0, 68, 0
2, 42084, Note_on_c, 0, 70, 80
2, 42096, Note_on_c, 0, 70, 0
2, 42096, Note_on_c, 0, 68, 80
2, 42108, Note_on_c, 0, 68, 0
2, 42108, Note_on_c, 0, 70, 80
2, 42115, Note_on_c, 0, 70, 0
2, 42120, Note_on_c, 0, 67, 80
2, 42132, Note_on_c, 0, 67, 0
2, 42132, Note_on_c, 0, 68, 80
2, 42144, Note_on_c, 0, 68, 0
2, 42144, Note_on_c, 0, 70, 80
2, 42164, Note_on_c, 0, 70, 0
2, 42192, Note_on_c, 0, 70, 80
2, 42237, Note_on_c, 0, 70, 0
2, 42240, Note_on_c, 0, 63, 80
2, 42329, Note_on_c, 0, 63, 0
2, 42432, End_track
3, 0, Start_track
3, 0, Program_c, 0, 0
3, 0, Control_c, 0, 7, 127
3, 0, Control_c, 0, 10, 64
3, 42432, End_track
4, 0, Start_track
4, 0, Program_c, 1, 0
4, 0, Control_c, 1, 7, 127
4, 0, Control_c, 1, 10, 64
4, 192, Note_on_c, 1, 67, 75
4, 192, Note_on_c, 1, 63, 75
4, 281, Note_on_c, 1, 67, 0
4, 281, Note_on_c, 1, 63, 0
4, 432, Note_on_c, 1, 63, 75
4, 477, Note_on_c, 1, 63, 0
4, 480, Note_on_c, 1, 67, 75
4, 569, Note_on_c, 1, 67, 0
4, 624, Note_on_c, 1, 63, 75
4, 669, Note_on_c, 1, 63, 0
4, 672, Note_on_c, 1, 67, 75
4, 761, Note_on_c, 1, 67, 0
4, 768, Note_on_c, 1, 65, 75
4, 768, Note_on_c, 1, 58, 75
4, 857, Note_on_c, 1, 65, 0
4, 857, Note_on_c, 1, 58, 0
4, 864, Note_on_c, 1, 62, 75
4, 864, Note_on_c, 1, 58, 75
4, 953, Note_on_c, 1, 62, 0
4, 953, Note_on_c, 1, 58, 0
4, 960, Note_on_c, 1, 63, 75
4, 960, Note_on_c, 1, 58, 75
4, 1049, Note_on_c, 1, 63, 0
4, 1049, Note_on_c, 1, 58, 0
4, 1056, Note_on_c, 1, 67, 75
4, 1056, Note_on_c, 1, 58, 75
4, 1145, Note_on_c, 1, 67, 0
4, 1145, Note_on_c, 1, 58, 0
4, 1152, Note_on_c, 1, 65, 75
4, 1152, Note_on_c, 1, 58, 75
4, 1241, Note_on_c, 1, 65, 0
4, 1241, Note_on_c, 1, 58, 0
4, 1248, Note_on_c, 1, 62, 75
4, 1248, Note_on_c, 1, 58, 75
4, 1337, Note_on_c, 1, 62, 0
4, 1337, Note_on_c, 1, 58, 0
4, 1344, Note_on_c, 1, 63, 75
4, 1433, Note_on_c, 1, 63, 0
4, 1488, Note_on_c, 1, 55, 75
4, 1533, Note_on_c, 1, 55, 0
4, 1536, Note_on_c, 1, 63, 75
4, 1536, Note_on_c, 1, 56, 75
4, 1625, Note_on_c, 1, 63, 0
4, 1625, Note_on_c, 1, 56, 0
4, 1632, Note_on_c, 1, 63, 75
4, 1632, Note_on_c, 1, 55, 75
4, 1721, Note_on_c, 1, 63, 0
4, 1721, Note_on_c, 1, 55, 0
4, 1728, Note_on_c, 1, 62, 75
4, 1728, Note_on_c, 1, 53, 75
4, 1817, Note_on_c, 1, 62, 0
4, 1817, Note_on_c, 1, 53, 0
4, 1824, Note_on_c, 1, 63, 75
4, 1824, Note_on_c, 1, 51, 75
4, 1913, Note_on_c, 1, 63, 0
4, 1913, Note_on_c, 1, 51, 0
4, 1920, Note_on_c, 1, 56, 75
4, 2053, Note_on_c, 1, 56, 0
4, 2064, Note_on_c, 1, 57, 75
4, 2109, Note_on_c, 1, 57, 0
4, 2112, Note_on_c, 1, 58, 75
4, 2157, Note_on_c, 1, 58, 0
4, 2160, Note_on_c, 1, 53, 75
4, 2205, Note_on_c, 1, 53, 0
4, 2208, Note_on_c, 1, 46, 75
4, 2297, Note_on_c, 1, 46, 0
4, 2352, Note_on_c, 1, 70, 70
4, 2397, Note_on_c, 1, 70, 0
4, 2400, Note_on_c, 1, 74, 70
4, 2489, Note_on_c, 1, 74, 0
4, 2544, Note_on_c, 1, 63, 70
4, 2589, Note_on_c, 1, 63, 0
4, 2592, Note_on_c, 1, 51, 70
4, 2681, Note_on_c, 1, 51, 0
4, 2736, Note_on_c, 1, 72, 70
4, 2781, Note_on_c, 1, 72, 0
4, 2784, Note_on_c, 1, 76, 70
4, 2873, Note_on_c, 1, 76, 0
4, 2928, Note_on_c, 1, 65, 70
4, 2973, Note_on_c, 1, 65, 0
4, 2976, Note_on_c, 1, 53, 70
4, 3065, Note_on_c, 1, 53, 0
4, 3072, Note_on_c, 1, 69, 66
4, 3072, Note_on_c, 1, 65, 66
4, 3119, Note_on_c, 1, 69, 0
4, 3119, Note_on_c, 1, 65, 0
4, 3120, Note_on_c, 1, 69, 66
4, 3120, Note_on_c, 1, 65, 66
4, 3167, Note_on_c, 1, 69, 0
4, 3167, Note_on_c, 1, 65, 0
4, 3168, Note_on_c, 1, 69, 66
4, 3168, Note_on_c, 1, 65, 66
4, 3215, Note_on_c, 1, 69, 0
4, 3215, Note_on_c, 1, 65, 0
4, 3216, Note_on_c, 1, 69, 66
4, 3216, Note_on_c, 1, 65, 66
4, 3263, Note_on_c, 1, 69, 0
4, 3263, Note_on_c, 1, 65, 0
4, 3264, Note_on_c, 1, 70, 66
4, 3264, Note_on_c, 1, 65, 66
4, 3311, Note_on_c, 1, 70, 0
4, 3311, Note_on_c, 1, 65, 0
4, 3312, Note_on_c, 1, 70, 66
4, 3312, Note_on_c, 1, 65, 66
4, 3359, Note_on_c, 1, 70, 0
4, 3359, Note_on_c, 1, 65, 0
4, 3360, Note_on_c, 1, 70, 66
4, 3360, Note_on_c, 1, 65, 66
4, 3407, Note_on_c, 1, 70, 0
4, 3407, Note_on_c, 1, 65, 0
4, 3408, Note_on_c, 1, 70, 66
4, 3408, Note_on_c, 1, 65, 66
4, 3455, Note_on_c, 1, 70, 0
4, 3455, Note_on_c, 1, 65, 0
4, 3456, Note_on_c, 1, 69, 66
4, 3456, Note_on_c, 1, 65, 66
4, 3503, Note_on_c, 1, 69, 0
4, 3503, Note_on_c, 1, 65, 0
4, 3504, Note_on_c, 1, 69, 66
4, 3504, Note_on_c, 1, 65, 66
4, 3551, Note_on_c, 1, 69, 0
4, 3551, Note_on_c, 1, 65, 0
4, 3552, Note_on_c, 1, 69, 66
4, 3552, Note_on_c, 1, 65, 66
4, 3599, Note_on_c, 1, 69, 0
4, 3599, Note_on_c, 1, 65, 0
4, 3600, Note_on_c, 1, 69, 66
4, 3600, Note_on_c, 1, 65, 66
4, 3647, Note_on_c, 1, 69, 0
4, 3647, Note_on_c, 1, 65, 0
4, 3648, Note_on_c, 1, 70, 75
4, 3737, Note_on_c, 1, 70, 0
4, 3888, Note_on_c, 1, 69, 75
4, 3888, Note_on_c, 1, 65, 75
4, 3933, Note_on_c, 1, 69, 0
4, 3933, Note_on_c, 1, 65, 0
4, 3936, Note_on_c, 1, 70, 75
4, 3936, Note_on_c, 1, 67, 75
4, 3981, Note_on_c, 1, 70, 0
4, 3981, Note_on_c, 1, 67, 0
4, 3984, Note_on_c, 1, 72, 75
4, 3984, Note_on_c, 1, 69, 75
4, 4029, Note_on_c, 1, 72, 0
4, 4029, Note_on_c, 1, 69, 0
4, 4032, Note_on_c, 1, 70, 75
4, 4077, Note_on_c, 1, 70, 0
4, 4128, Note_on_c, 1, 63, 75
4, 4128, Note_on_c, 1, 51, 75
4, 4217, Note_on_c, 1, 63, 0
4, 4217, Note_on_c, 1, 51, 0
4, 4224, Note_on_c, 1, 62, 75
4, 4224, Note_on_c, 1, 50, 75
4, 4313, Note_on_c, 1, 62, 0
4, 4313, Note_on_c, 1, 50, 0
4, 4320, Note_on_c, 1, 60, 75
4, 4320, Note_on_c, 1, 48, 75
4, 4409, Note_on_c, 1, 60, 0
4, 4409, Note_on_c, 1, 48, 0
4, 4416, Note_on_c, 1, 58, 75
4, 4416, Note_on_c, 1, 46, 75
4, 4505, Note_on_c, 1, 58, 0
4, 4505, Note_on_c, 1, 46, 0
4, 4512, Note_on_c, 1, 51, 75
4, 4512, Note_on_c, 1, 39, 75
4, 4601, Note_on_c, 1, 51, 0
4, 4601, Note_on_c, 1, 39, 0
4, 4608, Note_on_c, 1, 50, 75
4, 4608, Note_on_c, 1, 38, 75
4, 4697, Note_on_c, 1, 50, 0
4, 4697, Note_on_c, 1, 38, 0
4, 4704, Note_on_c, 1, 48, 75
4, 4704, Note_on_c, 1, 36, 75
4, 4793, Note_on_c, 1, 48, 0
4, 4793, Note_on_c, 1, 36, 0
4, 4800, Note_on_c, 1, 46, 75
4, 4800, Note_on_c, 1, 34, 75
4, 4889, Note_on_c, 1, 46, 0
4, 4889, Note_on_c, 1, 34, 0
4, 5016, Note_on_c, 1, 46, 75
4, 5039, Note_on_c, 1, 46, 0
4, 5040, Note_on_c, 1, 48, 75
4, 5063, Note_on_c, 1, 48, 0
4, 5064, Note_on_c, 1, 50, 75
4, 5087, Note_on_c, 1, 50, 0
4, 5088, Note_on_c, 1, 51, 75
4, 5111, Note_on_c, 1, 51, 0
4, 5112, Note_on_c, 1, 53, 75
4, 5135, Note_on_c, 1, 53, 0
4, 5136, Note_on_c, 1, 55, 75
4, 5159, Note_on_c, 1, 55, 0
4, 5160, Note_on_c, 1, 57, 75
4, 5183, Note_on_c, 1, 57, 0
4, 5184, Note_on_c, 1, 58, 75
4, 5273, Note_on_c, 1, 58, 0
4, 5376, Note_on_c, 1, 55, 70
4, 5399, Note_on_c, 1, 55, 0
4, 5400, Note_on_c, 1, 64, 70
4, 5423, Note_on_c, 1, 64, 0
4, 5424, Note_on_c, 1, 58, 70
4, 5447, Note_on_c, 1, 58, 0
4, 5448, Note_on_c, 1, 64, 70
4, 5471, Note_on_c, 1, 64, 0
4, 5472, Note_on_c, 1, 55, 70
4, 5495, Note_on_c, 1, 55, 0
4, 5496, Note_on_c, 1, 64, 70
4, 5519, Note_on_c, 1, 64, 0
4, 5520, Note_on_c, 1, 58, 70
4, 5543, Note_on_c, 1, 58, 0
4, 5544, Note_on_c, 1, 64, 70
4, 5567, Note_on_c, 1, 64, 0
4, 5568, Note_on_c, 1, 53, 70
4, 5591, Note_on_c, 1, 53, 0
4, 5592, Note_on_c, 1, 65, 70
4, 5615, Note_on_c, 1, 65, 0
4, 5616, Note_on_c, 1, 57, 70
4, 5639, Note_on_c, 1, 57, 0
4, 5640, Note_on_c, 1, 65, 70
4, 5663, Note_on_c, 1, 65, 0
4, 5664, Note_on_c, 1, 53, 70
4, 5687, Note_on_c, 1, 53, 0
4, 5688, Note_on_c, 1, 65, 70
4, 5711, Note_on_c, 1, 65, 0
4, 5712, Note_on_c, 1, 57, 70
4, 5735, Note_on_c, 1, 57, 0
4, 5736, Note_on_c, 1, 65, 70
4, 5759, Note_on_c, 1, 65, 0
4, 5760, Note_on_c, 1, 57, 70
4, 5783, Note_on_c, 1, 57, 0
4, 5784, Note_on_c, 1, 65, 70
4, 5807, Note_on_c, 1, 65, 0
4, 5808, Note_on_c, 1, 60, 70
4, 5831, Note_on_c, 1, 60, 0
4, 5832, Note_on_c, 1, 65, 70
4, 5855, Note_on_c, 1, 65, 0
4, 5856, Note_on_c, 1, 57, 70
4, 5879, Note_on_c, 1, 57, 0
4, 5880, Note_on_c, 1, 65, 70
4, 5903, Note_on_c, 1, 65, 0
4, 5904, Note_on_c, 1, 60, 70
4, 5927, Note_on_c, 1, 60, 0
4, 5928, Note_on_c, 1, 65, 70
4, 5951, Note_on_c, 1, 65, 0
4, 5952, Note_on_c, 1, 58, 70
4, 5975, Note_on_c, 1, 58, 0
4, 5976, Note_on_c, 1, 65, 70
4, 5999, Note_on_c, 1, 65, 0
4, 6000, Note_on_c, 1, 62, 70
4, 6023, Note_on_c, 1, 62, 0
4, 6024, Note_on_c, 1, 65, 70
4, 6047, Note_on_c, 1, 65, 0
4, 6048, Note_on_c, 1, 58, 70
4, 6071, Note_on_c, 1, 58, 0
4, 6072, Note_on_c, 1, 65, 70
4, 6095, Note_on_c, 1, 65, 0
4, 6096, Note_on_c, 1, 62, 70
4, 6119, Note_on_c, 1, 62, 0
4, 6120, Note_on_c, 1, 65, 70
4, 6143, Note_on_c, 1, 65, 0
4, 6144, Note_on_c, 1, 57, 70
4, 6167, Note_on_c, 1, 57, 0
4, 6168, Note_on_c, 1, 65, 70
4, 6191, Note_on_c, 1, 65, 0
4, 6192, Note_on_c, 1, 60, 70
4, 6215, Note_on_c, 1, 60, 0
4, 6216, Note_on_c, 1, 65, 70
4, 6239, Note_on_c, 1, 65, 0
4, 6240, Note_on_c, 1, 57, 70
4, 6263, Note_on_c, 1, 57, 0
4, 6264, Note_on_c, 1, 65, 70
4, 6287, Note_on_c, 1, 65, 0
4, 6288, Note_on_c, 1, 60, 70
4, 6311, Note_on_c, 1, 60, 0
4, 6312, Note_on_c, 1, 65, 70
4, 6335, Note_on_c, 1, 65, 0
4, 6336, Note_on_c, 1, 58, 70
4, 6359, Note_on_c, 1, 58, 0
4, 6360, Note_on_c, 1, 65, 70
4, 6383, Note_on_c, 1, 65, 0
4, 6384, Note_on_c, 1, 62, 70
4, 6407, Note_on_c, 1, 62, 0
4, 6408, Note_on_c, 1, 65, 70
4, 6431, Note_on_c, 1, 65, 0
4, 6432, Note_on_c, 1, 58, 70
4, 6455, Note_on_c, 1, 58, 0
4, 6456, Note_on_c, 1, 65, 70
4, 6479, Note_on_c, 1, 65, 0
4, 6480, Note_on_c, 1, 62, 70
4, 6503, Note_on_c, 1, 62, 0
4, 6504, Note_on_c, 1, 65, 70
4, 6527, Note_on_c, 1, 65, 0
4, 6528, Note_on_c, 1, 63, 70
4, 6617, Note_on_c, 1, 63, 0
4, 6768, Note_on_c, 1, 62, 70
4, 6813, Note_on_c, 1, 62, 0
4, 6816, Note_on_c, 1, 63, 70
4, 6861, Note_on_c, 1, 63, 0
4, 6864, Note_on_c, 1, 65, 70
4, 6909, Note_on_c, 1, 65, 0
4, 6912, Note_on_c, 1, 67, 75
4, 7001, Note_on_c, 1, 67, 0
4, 7056, Note_on_c, 1, 70, 70
4, 7056, Note_on_c, 1, 67, 70
4, 7101, Note_on_c, 1, 70, 0
4, 7101, Note_on_c, 1, 67, 0
4, 7104, Note_on_c, 1, 69, 68
4, 7104, Note_on_c, 1, 65, 68
4, 7193, Note_on_c, 1, 69, 0
4, 7193, Note_on_c, 1, 65, 0
4, 7248, Note_on_c, 1, 70, 63
4, 7248, Note_on_c, 1, 67, 63
4, 7293, Note_on_c, 1, 70, 0
4, 7293, Note_on_c, 1, 67, 0
4, 7296, Note_on_c, 1, 69, 62
4, 7296, Note_on_c, 1, 65, 62
4, 7385, Note_on_c, 1, 69, 0
4, 7385, Note_on_c, 1, 65, 0
4, 7488, Note_on_c, 1, 58, 80
4, 7488, Note_on_c, 1, 53, 80
4, 7488, Note_on_c, 1, 50, 80
4, 7488, Note_on_c, 1, 46, 80
4, 7577, Note_on_c, 1, 58, 0
4, 7577, Note_on_c, 1, 53, 0
4, 7577, Note_on_c, 1, 50, 0
4, 7577, Note_on_c, 1, 46, 0
4, 7824, Note_on_c, 1, 50, 80
4, 7824, Note_on_c, 1, 38, 80
4, 7869, Note_on_c, 1, 50, 0
4, 7869, Note_on_c, 1, 38, 0
4, 7872, Note_on_c, 1, 51, 80
4, 7872, Note_on_c, 1, 39, 80
4, 7961, Note_on_c, 1, 51, 0
4, 7961, Note_on_c, 1, 39, 0
4, 7968, Note_on_c, 1, 53, 80
4, 7968, Note_on_c, 1, 41, 80
4, 8057, Note_on_c, 1, 53, 0
4, 8057, Note_on_c, 1, 41, 0
4, 8064, Note_on_c, 1, 55, 80
4, 8064, Note_on_c, 1, 43, 80
4, 8153, Note_on_c, 1, 55, 0
4, 8153, Note_on_c, 1, 43, 0
4, 8256, Note_on_c, 1, 58, 80
4, 8256, Note_on_c, 1, 53, 80
4, 8256, Note_on_c, 1, 50, 80
4, 8256, Note_on_c, 1, 46, 80
4, 8345, Note_on_c, 1, 58, 0
4, 8345, Note_on_c, 1, 53, 0
4, 8345, Note_on_c, 1, 50, 0
4, 8345, Note_on_c, 1, 46, 0
4, 8592, Note_on_c, 1, 50, 80
4, 8592, Note_on_c, 1, 38, 80
4, 8637, Note_on_c, 1, 50, 0
4, 8637, Note_on_c, 1, 38, 0
4, 8640, Note_on_c, 1, 51, 80
4, 8640, Note_on_c, 1, 39, 80
4, 8729, Note_on_c, 1, 51, 0
4, 8729, Note_on_c, 1, 39, 0
4, 8736, Note_on_c, 1, 53, 80
4, 8736, Note_on_c, 1, 41, 80
4, 8825, Note_on_c, 1, 53, 0
4, 8825, Note_on_c, 1, 41, 0
4, 8832, Note_on_c, 1, 46, 80
4, 8921, Note_on_c, 1, 46, 0
4, 9024, Note_on_c, 1, 67, 75
4, 9024, Note_on_c, 1, 63, 75
4, 9113, Note_on_c, 1, 67, 0
4, 9113, Note_on_c, 1, 63, 0
4, 9264, Note_on_c, 1, 63, 75
4, 9309, Note_on_c, 1, 63, 0
4, 9312, Note_on_c, 1, 67, 75
4, 9401, Note_on_c, 1, 67, 0
4, 9456, Note_on_c, 1, 63, 75
4, 9501, Note_on_c, 1, 63, 0
4, 9504, Note_on_c, 1, 67, 75
4, 9593, Note_on_c, 1, 67, 0
4, 9600, Note_on_c, 1, 65, 75
4, 9600, Note_on_c, 1, 58, 75
4, 9689, Note_on_c, 1, 65, 0
4, 9689, Note_on_c, 1, 58, 0
4, 9696, Note_on_c, 1, 62, 75
4, 9696, Note_on_c, 1, 58, 75
4, 9785, Note_on_c, 1, 62, 0
4, 9785, Note_on_c, 1, 58, 0
4, 9792, Note_on_c, 1, 63, 75
4, 9792, Note_on_c, 1, 58, 75
4, 9881, Note_on_c, 1, 63, 0
4, 9881, Note_on_c, 1, 58, 0
4, 9888, Note_on_c, 1, 67, 75
4, 9888, Note_on_c, 1, 58, 75
4, 9977, Note_on_c, 1, 67, 0
4, 9977, Note_on_c, 1, 58, 0
4, 9984, Note_on_c, 1, 65, 75
4, 9984, Note_on_c, 1, 58, 75
4, 10073, Note_on_c, 1, 65, 0
4, 10073, Note_on_c, 1, 58, 0
4, 10080, Note_on_c, 1, 62, 75
4, 10080, Note_on_c, 1, 58, 75
4, 10169, Note_on_c, 1, 62, 0
4, 10169, Note_on_c, 1, 58, 0
4, 10176, Note_on_c, 1, 63, 75
4, 10265, Note_on_c, 1, 63, 0
4, 10320, Note_on_c, 1, 55, 75
4, 10365, Note_on_c, 1, 55, 0
4, 10368, Note_on_c, 1, 63, 75
4, 10368, Note_on_c, 1, 56, 75
4, 10457, Note_on_c, 1, 63, 0
4, 10457, Note_on_c, 1, 56, 0
4, 10464, Note_on_c, 1, 63, 75
4, 10464, Note_on_c, 1, 55, 75
4, 10553, Note_on_c, 1, 63, 0
4, 10553, Note_on_c, 1, 55, 0
4, 10560, Note_on_c, 1, 62, 75
4, 10560, Note_on_c, 1, 53, 75
4, 10649, Note_on_c, 1, 62, 0
4, 10649, Note_on_c, 1, 53, 0
4, 10656, Note_on_c, 1, 63, 75
4, 10656, Note_on_c, 1, 51, 75
4, 10745, Note_on_c, 1, 63, 0
4, 10745, Note_on_c, 1, 51, 0
4, 10752, Note_on_c, 1, 56, 75
4, 10885, Note_on_c, 1, 56, 0
4, 10896, Note_on_c, 1, 57, 75
4, 10941, Note_on_c, 1, 57, 0
4, 10944, Note_on_c, 1, 58, 75
4, 10989, Note_on_c, 1, 58, 0
4, 10992, Note_on_c, 1, 53, 75
4, 11037, Note_on_c, 1, 53, 0
4, 11040, Note_on_c, 1, 46, 75
4, 11129, Note_on_c, 1, 46, 0
4, 11184, Note_on_c, 1, 70, 70
4, 11229, Note_on_c, 1, 70, 0
4, 11232, Note_on_c, 1, 74, 70
4, 11321, Note_on_c, 1, 74, 0
4, 11376, Note_on_c, 1, 63, 70
4, 11421, Note_on_c, 1, 63, 0
4, 11424, Note_on_c, 1, 51, 70
4, 11513, Note_on_c, 1, 51, 0
4, 11568, Note_on_c, 1, 72, 70
4, 11613, Note_on_c, 1, 72, 0
4, 11616, Note_on_c, 1, 76, 70
4, 11705, Note_on_c, 1, 76, 0
4, 11760, Note_on_c, 1, 65, 70
4, 11805, Note_on_c, 1, 65, 0
4, 11808, Note_on_c, 1, 53, 70
4, 11897, Note_on_c, 1, 53, 0
4, 11904, Note_on_c, 1, 69, 66
4, 11904, Note_on_c, 1, 65, 66
4, 11951, Note_on_c, 1, 69, 0
4, 11951, Note_on_c, 1, 65, 0
4, 11952, Note_on_c, 1, 69, 66
4, 11952, Note_on_c, 1, 65, 66
4, 11999, Note_on_c, 1, 69, 0
4, 11999, Note_on_c, 1, 65, 0
4, 12000, Note_on_c, 1, 69, 66
4, 12000, Note_on_c, 1, 65, 66
4, 12047, Note_on_c, 1, 69, 0
4, 12047, Note_on_c, 1, 65, 0
4, 12048, Note_on_c, 1, 69, 66
4, 12048, Note_on_c, 1, 65, 66
4, 12095, Note_on_c, 1, 69, 0
4, 12095, Note_on_c, 1, 65, 0
4, 12096, Note_on_c, 1, 70, 66
4, 12096, Note_on_c, 1, 65, 66
4, 12143, Note_on_c, 1, 70, 0
4, 12143, Note_on_c, 1, 65, 0
4, 12144, Note_on_c, 1, 70, 66
4, 12144, Note_on_c, 1, 65, 66
4, 12191, Note_on_c, 1, 70, 0
4, 12191, Note_on_c, 1, 65, 0
4, 12192, Note_on_c, 1, 70, 66
4, 12192, Note_on_c, 1, 65, 66
4, 12239, Note_on_c, 1, 70, 0
4, 12239, Note_on_c, 1, 65, 0
4, 12240, Note_on_c, 1, 70, 66
4, 12240, Note_on_c, 1, 65, 66
4, 12287, Note_on_c, 1, 70, 0
4, 12287, Note_on_c, 1, 65, 0
4, 12288, Note_on_c, 1, 69, 66
4, 12288, Note_on_c, 1, 65, 66
4, 12335, Note_on_c, 1, 69, 0
4, 12335, Note_on_c, 1, 65, 0
4, 12336, Note_on_c, 1, 69, 66
4, 12336, Note_on_c, 1, 65, 66
4, 12383, Note_on_c, 1, 69, 0
4, 12383, Note_on_c, 1, 65, 0
4, 12384, Note_on_c, 1, 69, 66
4, 12384, Note_on_c, 1, 65, 66
4, 12431, Note_on_c, 1, 69, 0
4, 12431, Note_on_c, 1, 65, 0
4, 12432, Note_on_c, 1, 69, 66
4, 12432, Note_on_c, 1, 65, 66
4, 12479, Note_on_c, 1, 69, 0
4, 12479, Note_on_c, 1, 65, 0
4, 12480, Note_on_c, 1, 70, 75
4, 12569, Note_on_c, 1, 70, 0
4, 12720, Note_on_c, 1, 69, 75
4, 12720, Note_on_c, 1, 65, 75
4, 12765, Note_on_c, 1, 69, 0
4, 12765, Note_on_c, 1, 65, 0
4, 12768, Note_on_c, 1, 70, 75
4, 12768, Note_on_c, 1, 67, 75
4, 12813, Note_on_c, 1, 70, 0
4, 12813, Note_on_c, 1, 67, 0
4, 12816, Note_on_c, 1, 72, 75
4, 12816, Note_on_c, 1, 69, 75
4, 12861, Note_on_c, 1, 72, 0
4, 12861, Note_on_c, 1, 69, 0
4, 12864, Note_on_c, 1, 70, 75
4, 12909, Note_on_c, 1, 70, 0
4, 12960, Note_on_c, 1, 63, 75
4, 12960, Note_on_c, 1, 51, 75
4, 13049, Note_on_c, 1, 63, 0
4, 13049, Note_on_c, 1, 51, 0
4, 13056, Note_on_c, 1, 62, 75
4, 13056, Note_on_c, 1, 50, 75
4, 13145, Note_on_c, 1, 62, 0
4, 13145, Note_on_c, 1, 50, 0
4, 13152, Note_on_c, 1, 60, 75
4, 13152, Note_on_c, 1, 48, 75
4, 13241, Note_on_c, 1, 60, 0
4, 13241, Note_on_c, 1, 48, 0
4, 13248, Note_on_c, 1, 58, 75
4, 13248, Note_on_c, 1, 46, 75
4, 13337, Note_on_c, 1, 58, 0
4, 13337, Note_on_c, 1, 46, 0
4, 13344, Note_on_c, 1, 51, 75
4, 13344, Note_on_c, 1, 39, 75
4, 13433, Note_on_c, 1, 51, 0
4, 13433, Note_on_c, 1, 39, 0
4, 13440, Note_on_c, 1, 50, 75
4, 13440, Note_on_c, 1, 38, 75
4, 13529, Note_on_c, 1, 50, 0
4, 13529, Note_on_c, 1, 38, 0
4, 13536, Note_on_c, 1, 48, 75
4, 13536, Note_on_c, 1, 36, 75
4, 13625, Note_on_c, 1, 48, 0
4, 13625, Note_on_c, 1, 36, 0
4, 13632, Note_on_c, 1, 46, 75
4, 13632, Note_on_c, 1, 34, 75
4, 13721, Note_on_c, 1, 46, 0
4, 13721, Note_on_c, 1, 34, 0
4, 13848, Note_on_c, 1, 46, 75
4, 13871, Note_on_c, 1, 46, 0
4, 13872, Note_on_c, 1, 48, 75
4, 13895, Note_on_c, 1, 48, 0
4, 13896, Note_on_c, 1, 50, 75
4, 13919, Note_on_c, 1, 50, 0
4, 13920, Note_on_c, 1, 51, 75
4, 13943, Note_on_c, 1, 51, 0
4, 13944, Note_on_c, 1, 53, 75
4, 13967, Note_on_c, 1, 53, 0
4, 13968, Note_on_c, 1, 55, 75
4, 13991, Note_on_c, 1, 55, 0
4, 13992, Note_on_c, 1, 57, 75
4, 14015, Note_on_c, 1, 57, 0
4, 14016, Note_on_c, 1, 58, 75
4, 14105, Note_on_c, 1, 58, 0
4, 14208, Note_on_c, 1, 55, 70
4, 14231, Note_on_c, 1, 55, 0
4, 14232, Note_on_c, 1, 64, 70
4, 14255, Note_on_c, 1, 64, 0
4, 14256, Note_on_c, 1, 58, 70
4, 14279, Note_on_c, 1, 58, 0
4, 14280, Note_on_c, 1, 64, 70
4, 14303, Note_on_c, 1, 64, 0
4, 14304, Note_on_c, 1, 55, 70
4, 14327, Note_on_c, 1, 55, 0
4, 14328, Note_on_c, 1, 64, 70
4, 14351, Note_on_c, 1, 64, 0
4, 14352, Note_on_c, 1, 58, 70
4, 14375, Note_on_c, 1, 58, 0
4, 14376, Note_on_c, 1, 64, 70
4, 14399, Note_on_c, 1, 64, 0
4, 14400, Note_on_c, 1, 53, 70
4, 14423, Note_on_c, 1, 53, 0
4, 14424, Note_on_c, 1, 65, 70
4, 14447, Note_on_c, 1, 65, 0
4, 14448, Note_on_c, 1, 57, 70
4, 14471, Note_on_c, 1, 57, 0
4, 14472, Note_on_c, 1, 65, 70
4, 14495, Note_on_c, 1, 65, 0
4, 14496, Note_on_c, 1, 53, 70
4, 14519, Note_on_c, 1, 53, 0
4, 14520, Note_on_c, 1, 65, 70
4, 14543, Note_on_c, 1, 65, 0
4, 14544, Note_on_c, 1, 57, 70
4, 14567, Note_on_c, 1, 57, 0
4, 14568, Note_on_c, 1, 65, 70
4, 14591, Note_on_c, 1, 65, 0
4, 14592, Note_on_c, 1, 57, 70
4, 14615, Note_on_c, 1, 57, 0
4, 14616, Note_on_c, 1, 65, 70
4, 14639, Note_on_c, 1, 65, 0
4, 14640, Note_on_c, 1, 60, 70
4, 14663, Note_on_c, 1, 60, 0
4, 14664, Note_on_c, 1, 65, 70
4, 14687, Note_on_c, 1, 65, 0
4, 14688, Note_on_c, 1, 57, 70
4, 14711, Note_on_c, 1, 57, 0
4, 14712, Note_on_c, 1, 65, 70
4, 14735, Note_on_c, 1, 65, 0
4, 14736, Note_on_c, 1, 60, 70
4, 14759, Note_on_c, 1, 60, 0
4, 14760, Note_on_c, 1, 65, 70
4, 14783, Note_on_c, 1, 65, 0
4, 14784, Note_on_c, 1, 58, 70
4, 14807, Note_on_c, 1, 58, 0
4, 14808, Note_on_c, 1, 65, 70
4, 14831, Note_on_c, 1, 65, 0
4, 14832, Note_on_c, 1, 62, 70
4, 14855, Note_on_c, 1, 62, 0
4, 14856, Note_on_c, 1, 65, 70
4, 14879, Note_on_c, 1, 65, 0
4, 14880, Note_on_c, 1, 58, 70
4, 14903, Note_on_c, 1, 58, 0
4, 14904, Note_on_c, 1, 65, 70
4, 14927, Note_on_c, 1, 65, 0
4, 14928, Note_on_c, 1, 62, 70
4, 14951, Note_on_c, 1, 62, 0
4, 14952, Note_on_c, 1, 65, 70
4, 14975, Note_on_c, 1, 65, 0
4, 14976, Note_on_c, 1, 57, 70
4, 14999, Note_on_c, 1, 57, 0
4, 15000, Note_on_c, 1, 65, 70
4, 15023, Note_on_c, 1, 65, 0
4, 15024, Note_on_c, 1, 60, 70
4, 15047, Note_on_c, 1, 60, 0
4, 15048, Note_on_c, 1, 65, 70
4, 15071, Note_on_c, 1, 65, 0
4, 15072, Note_on_c, 1, 57, 70
4, 15095, Note_on_c, 1, 57, 0
4, 15096, Note_on_c, 1, 65, 70
4, 15119, Note_on_c, 1, 65, 0
4, 15120, Note_on_c, 1, 60, 70
4, 15143, Note_on_c, 1, 60, 0
4, 15144, Note_on_c, 1, 65, 70
4, 15167, Note_on_c, 1, 65, 0
4, 15168, Note_on_c, 1, 58, 70
4, 15191, Note_on_c, 1, 58, 0
4, 15192, Note_on_c, 1, 65, 70
4, 15215, Note_on_c, 1, 65, 0
4, 15216, Note_on_c, 1, 62, 70
4, 15239, Note_on_c, 1, 62, 0
4, 15240, Note_on_c, 1, 65, 70
4, 15263, Note_on_c, 1, 65, 0
4, 15264, Note_on_c, 1, 58, 70
4, 15287, Note_on_c, 1, 58, 0
4, 15288, Note_on_c, 1, 65, 70
4, 15311, Note_on_c, 1, 65, 0
4, 15312, Note_on_c, 1, 62, 70
4, 15335, Note_on_c, 1, 62, 0
4, 15336, Note_on_c, 1, 65, 70
4, 15359, Note_on_c, 1, 65, 0
4, 15360, Note_on_c, 1, 63, 70
4, 15449, Note_on_c, 1, 63, 0
4, 15600, Note_on_c, 1, 62, 70
4, 15645, Note_on_c, 1, 62, 0
4, 15648, Note_on_c, 1, 63, 70
4, 15693, Note_on_c, 1, 63, 0
4, 15696, Note_on_c, 1, 65, 70
4, 15741, Note_on_c, 1, 65, 0
4, 15744, Note_on_c, 1, 67, 75
4, 15833, Note_on_c, 1, 67, 0
4, 15888, Note_on_c, 1, 70, 70
4, 15888, Note_on_c, 1, 67, 70
4, 15933, Note_on_c, 1, 70, 0
4, 15933, Note_on_c, 1, 67, 0
4, 15936, Note_on_c, 1, 69, 68
4, 15936, Note_on_c, 1, 65, 68
4, 16025, Note_on_c, 1, 69, 0
4, 16025, Note_on_c, 1, 65, 0
4, 16080, Note_on_c, 1, 70, 63
4, 16080, Note_on_c, 1, 67, 63
4, 16125, Note_on_c, 1, 70, 0
4, 16125, Note_on_c, 1, 67, 0
4, 16128, Note_on_c, 1, 69, 62
4, 16128, Note_on_c, 1, 65, 62
4, 16217, Note_on_c, 1, 69, 0
4, 16217, Note_on_c, 1, 65, 0
4, 16320, Note_on_c, 1, 58, 80
4, 16320, Note_on_c, 1, 53, 80
4, 16320, Note_on_c, 1, 50, 80
4, 16320, Note_on_c, 1, 46, 80
4, 16409, Note_on_c, 1, 58, 0
4, 16409, Note_on_c, 1, 53, 0
4, 16409, Note_on_c, 1, 50, 0
4, 16409, Note_on_c, 1, 46, 0
4, 16656, Note_on_c, 1, 50, 80
4, 16656, Note_on_c, 1, 38, 80
4, 16701, Note_on_c, 1, 50, 0
4, 16701, Note_on_c, 1, 38, 0
4, 16704, Note_on_c, 1, 51, 80
4, 16704, Note_on_c, 1, 39, 80
4, 16793, Note_on_c, 1, 51, 0
4, 16793, Note_on_c, 1, 39, 0
4, 16800, Note_on_c, 1, 53, 80
4, 16800, Note_on_c, 1, 41, 80
4, 16889, Note_on_c, 1, 53, 0
4, 16889, Note_on_c, 1, 41, 0
4, 16896, Note_on_c, 1, 55, 80
4, 16896, Note_on_c, 1, 43, 80
4, 16985, Note_on_c, 1, 55, 0
4, 16985, Note_on_c, 1, 43, 0
4, 17088, Note_on_c, 1, 58, 80
4, 17088, Note_on_c, 1, 53, 80
4, 17088, Note_on_c, 1, 50, 80
4, 17088, Note_on_c, 1, 46, 80
4, 17177, Note_on_c, 1, 58, 0
4, 17177, Note_on_c, 1, 53, 0
4, 17177, Note_on_c, 1, 50, 0
4, 17177, Note_on_c, 1, 46, 0
4, 17424, Note_on_c, 1, 50, 80
4, 17424, Note_on_c, 1, 38, 80
4, 17469, Note_on_c, 1, 50, 0
4, 17469, Note_on_c, 1, 38, 0
4, 17472, Note_on_c, 1, 51, 80
4, 17472, Note_on_c, 1, 39, 80
4, 17561, Note_on_c, 1, 51, 0
4, 17561, Note_on_c, 1, 39, 0
4, 17568, Note_on_c, 1, 53, 80
4, 17568, Note_on_c, 1, 41, 80
4, 17657, Note_on_c, 1, 53, 0
4, 17657, Note_on_c, 1, 41, 0
4, 17664, Note_on_c, 1, 46, 80
4, 17753, Note_on_c, 1, 46, 0
4, 17856, Note_on_c, 1, 62, 75
4, 17856, Note_on_c, 1, 58, 75
4, 17945, Note_on_c, 1, 62, 0
4, 17945, Note_on_c, 1, 58, 0
4, 18096, Note_on_c, 1, 58, 75
4, 18141, Note_on_c, 1, 58, 0
4, 18144, Note_on_c, 1, 62, 75
4, 18233, Note_on_c, 1, 62, 0
4, 18288, Note_on_c, 1, 58, 75
4, 18333, Note_on_c, 1, 58, 0
4, 18336, Note_on_c, 1, 62, 75
4, 18425, Note_on_c, 1, 62, 0
4, 18432, Note_on_c, 1, 60, 75
4, 18432, Note_on_c, 1, 53, 75
4, 18521, Note_on_c, 1, 60, 0
4, 18521, Note_on_c, 1, 53, 0
4, 18528, Note_on_c, 1, 57, 75
4, 18528, Note_on_c, 1, 53, 75
4, 18617, Note_on_c, 1, 57, 0
4, 18617, Note_on_c, 1, 53, 0
4, 18624, Note_on_c, 1, 58, 75
4, 18624, Note_on_c, 1, 53, 75
4, 18713, Note_on_c, 1, 58, 0
4, 18713, Note_on_c, 1, 53, 0
4, 18720, Note_on_c, 1, 62, 75
4, 18720, Note_on_c, 1, 53, 75
4, 18809, Note_on_c, 1, 62, 0
4, 18809, Note_on_c, 1, 53, 0
4, 18816, Note_on_c, 1, 60, 75
4, 18816, Note_on_c, 1, 53, 75
4, 18905, Note_on_c, 1, 60, 0
4, 18905, Note_on_c, 1, 53, 0
4, 18912, Note_on_c, 1, 57, 75
4, 18912, Note_on_c, 1, 53, 75
4, 19001, Note_on_c, 1, 57, 0
4, 19001, Note_on_c, 1, 53, 0
4, 19008, Note_on_c, 1, 58, 80
4, 19008, Note_on_c, 1, 46, 80
4, 19185, Note_on_c, 1, 58, 0
4, 19185, Note_on_c, 1, 46, 0
4, 19200, Note_on_c, 1, 56, 80
4, 19200, Note_on_c, 1, 44, 80
4, 19289, Note_on_c, 1, 56, 0
4, 19289, Note_on_c, 1, 44, 0
4, 19296, Note_on_c, 1, 56, 80
4, 19296, Note_on_c, 1, 44, 80
4, 19385, Note_on_c, 1, 56, 0
4, 19385, Note_on_c, 1, 44, 0
4, 19392, Note_on_c, 1, 55, 80
4, 19392, Note_on_c, 1, 43, 80
4, 19569, Note_on_c, 1, 55, 0
4, 19569, Note_on_c, 1, 43, 0
4, 19584, Note_on_c, 1, 67, 80
4, 19584, Note_on_c, 1, 55, 80
4, 19761, Note_on_c, 1, 67, 0
4, 19761, Note_on_c, 1, 55, 0
4, 19776, Note_on_c, 1, 62, 80
4, 19776, Note_on_c, 1, 50, 80
4, 19953, Note_on_c, 1, 62, 0
4, 19953, Note_on_c, 1, 50, 0
4, 19968, Note_on_c, 1, 58, 80
4, 19968, Note_on_c, 1, 46, 80
4, 20145, Note_on_c, 1, 58, 0
4, 20145, Note_on_c, 1, 46, 0
4, 20160, Note_on_c, 1, 63, 80
4, 20160, Note_on_c, 1, 51, 80
4, 20337, Note_on_c, 1, 63, 0
4, 20337, Note_on_c, 1, 51, 0
4, 20352, Note_on_c, 1, 61, 80
4, 20352, Note_on_c, 1, 49, 80
4, 20529, Note_on_c, 1, 61, 0
4, 20529, Note_on_c, 1, 49, 0
4, 20544, Note_on_c, 1, 60, 80
4, 20544, Note_on_c, 1, 48, 80
4, 20721, Note_on_c, 1, 60, 0
4, 20721, Note_on_c, 1, 48, 0
4, 20736, Note_on_c, 1, 52, 80
4, 20736, Note_on_c, 1, 40, 80
4, 20913, Note_on_c, 1, 52, 0
4, 20913, Note_on_c, 1, 40, 0
4, 20928, Note_on_c, 1, 53, 75
4, 20928, Note_on_c, 1, 41, 75
4, 21061, Note_on_c, 1, 53, 0
4, 21061, Note_on_c, 1, 41, 0
4, 21072, Note_on_c, 1, 63, 75
4, 21072, Note_on_c, 1, 51, 75
4, 21117, Note_on_c, 1, 63, 0
4, 21117, Note_on_c, 1, 51, 0
4, 21120, Note_on_c, 1, 62, 75
4, 21120, Note_on_c, 1, 50, 75
4, 21253, Note_on_c, 1, 62, 0
4, 21253, Note_on_c, 1, 50, 0
4, 21264, Note_on_c, 1, 58, 75
4, 21264, Note_on_c, 1, 46, 75
4, 21309, Note_on_c, 1, 58, 0
4, 21309, Note_on_c, 1, 46, 0
4, 21312, Note_on_c, 1, 63, 75
4, 21312, Note_on_c, 1, 51, 75
4, 21445, Note_on_c, 1, 63, 0
4, 21445, Note_on_c, 1, 51, 0
4, 21456, Note_on_c, 1, 62, 75
4, 21456, Note_on_c, 1, 50, 75
4, 21501, Note_on_c, 1, 62, 0
4, 21501, Note_on_c, 1, 50, 0
4, 21504, Note_on_c, 1, 60, 75
4, 21504, Note_on_c, 1, 48, 75
4, 21637, Note_on_c, 1, 60, 0
4, 21637, Note_on_c, 1, 48, 0
4, 21648, Note_on_c, 1, 56, 75
4, 21648, Note_on_c, 1, 44, 75
4, 21693, Note_on_c, 1, 56, 0
4, 21693, Note_on_c, 1, 44, 0
4, 21696, Note_on_c, 1, 62, 75
4, 21696, Note_on_c, 1, 50, 75
4, 21829, Note_on_c, 1, 62, 0
4, 21829, Note_on_c, 1, 50, 0
4, 21840, Note_on_c, 1, 60, 75
4, 21840, Note_on_c, 1, 48, 75
4, 21885, Note_on_c, 1, 60, 0
4, 21885, Note_on_c, 1, 48, 0
4, 21888, Note_on_c, 1, 59, 75
4, 21888, Note_on_c, 1, 47, 75
4, 22021, Note_on_c, 1, 59, 0
4, 22021, Note_on_c, 1, 47, 0
4, 22032, Note_on_c, 1, 55, 75
4, 22032, Note_on_c, 1, 43, 75
4, 22077, Note_on_c, 1, 55, 0
4, 22077, Note_on_c, 1, 43, 0
4, 22080, Note_on_c, 1, 60, 75
4, 22080, Note_on_c, 1, 48, 75
4, 22213, Note_on_c, 1, 60, 0
4, 22213, Note_on_c, 1, 48, 0
4, 22224, Note_on_c, 1, 58, 75
4, 22224, Note_on_c, 1, 46, 75
4, 22269, Note_on_c, 1, 58, 0
4, 22269, Note_on_c, 1, 46, 0
4, 22272, Note_on_c, 1, 57, 75
4, 22272, Note_on_c, 1, 45, 75
4, 22361, Note_on_c, 1, 57, 0
4, 22361, Note_on_c, 1, 45, 0
4, 22368, Note_on_c, 1, 57, 75
4, 22368, Note_on_c, 1, 45, 75
4, 22457, Note_on_c, 1, 57, 0
4, 22457, Note_on_c, 1, 45, 0
4, 22464, Note_on_c, 1, 65, 66
4, 22464, Note_on_c, 1, 62, 66
4, 22464, Note_on_c, 1, 58, 66
4, 22511, Note_on_c, 1, 65, 0
4, 22511, Note_on_c, 1, 62, 0
4, 22511, Note_on_c, 1, 58, 0
4, 22512, Note_on_c, 1, 65, 66
4, 22512, Note_on_c, 1, 62, 66
4, 22512, Note_on_c, 1, 58, 66
4, 22559, Note_on_c, 1, 65, 0
4, 22559, Note_on_c, 1, 62, 0
4, 22559, Note_on_c, 1, 58, 0
4, 22560, Note_on_c, 1, 65, 66
4, 22560, Note_on_c, 1, 62, 66
4, 22560, Note_on_c, 1, 58, 66
4, 22607, Note_on_c, 1, 65, 0
4, 22607, Note_on_c, 1, 62, 0
4, 22607, Note_on_c, 1, 58, 0
4, 22608, Note_on_c, 1, 65, 66
4, 22608, Note_on_c, 1, 62, 66
4, 22608, Note_on_c, 1, 58, 66
4, 22655, Note_on_c, 1, 65, 0
4, 22655, Note_on_c, 1, 62, 0
4, 22655, Note_on_c, 1, 58, 0
4, 22656, Note_on_c, 1, 65, 66
4, 22656, Note_on_c, 1, 62, 66
4, 22656, Note_on_c, 1, 58, 66
4, 22703, Note_on_c, 1, 65, 0
4, 22703, Note_on_c, 1, 62, 0
4, 22703, Note_on_c, 1, 58, 0
4, 22704, Note_on_c, 1, 65, 66
4, 22704, Note_on_c, 1, 62, 66
4, 22704, Note_on_c, 1, 58, 66
4, 22751, Note_on_c, 1, 65, 0
4, 22751, Note_on_c, 1, 62, 0
4, 22751, Note_on_c, 1, 58, 0
4, 22752, Note_on_c, 1, 65, 66
4, 22752, Note_on_c, 1, 62, 66
4, 22752, Note_on_c, 1, 58, 66
4, 22799, Note_on_c, 1, 65, 0
4, 22799, Note_on_c, 1, 62, 0
4, 22799, Note_on_c, 1, 58, 0
4, 22800, Note_on_c, 1, 65, 66
4, 22800, Note_on_c, 1, 62, 66
4, 22800, Note_on_c, 1, 58, 66
4, 22847, Note_on_c, 1, 65, 0
4, 22847, Note_on_c, 1, 62, 0
4, 22847, Note_on_c, 1, 58, 0
4, 22848, Note_on_c, 1, 67, 66
4, 22848, Note_on_c, 1, 63, 66
4, 22848, Note_on_c, 1, 58, 66
4, 22895, Note_on_c, 1, 67, 0
4, 22895, Note_on_c, 1, 63, 0
4, 22895, Note_on_c, 1, 58, 0
4, 22896, Note_on_c, 1, 67, 66
4, 22896, Note_on_c, 1, 63, 66
4, 22896, Note_on_c, 1, 58, 66
4, 22943, Note_on_c, 1, 67, 0
4, 22943, Note_on_c, 1, 63, 0
4, 22943, Note_on_c, 1, 58, 0
4, 22944, Note_on_c, 1, 67, 66
4, 22944, Note_on_c, 1, 63, 66
4, 22944, Note_on_c, 1, 58, 66
4, 22991, Note_on_c, 1, 67, 0
4, 22991, Note_on_c, 1, 63, 0
4, 22991, Note_on_c, 1, 58, 0
4, 22992, Note_on_c, 1, 67, 66
4, 22992, Note_on_c, 1, 63, 66
4, 22992, Note_on_c, 1, 58, 66
4, 23039, Note_on_c, 1, 67, 0
4, 23039, Note_on_c, 1, 63, 0
4, 23039, Note_on_c, 1, 58, 0
4, 23040, Note_on_c, 1, 67, 66
4, 23040, Note_on_c, 1, 58, 66
4, 23087, Note_on_c, 1, 67, 0
4, 23087, Note_on_c, 1, 58, 0
4, 23088, Note_on_c, 1, 67, 66
4, 23088, Note_on_c, 1, 58, 66
4, 23135, Note_on_c, 1, 67, 0
4, 23135, Note_on_c, 1, 58, 0
4, 23136, Note_on_c, 1, 67, 66
4, 23136, Note_on_c, 1, 58, 66
4, 23183, Note_on_c, 1, 67, 0
4, 23183, Note_on_c, 1, 58, 0
4, 23184, Note_on_c, 1, 67, 66
4, 23184, Note_on_c, 1, 58, 66
4, 23231, Note_on_c, 1, 67, 0
4, 23231, Note_on_c, 1, 58, 0
4, 23232, Note_on_c, 1, 65, 66
4, 23232, Note_on_c, 1, 62, 66
4, 23232, Note_on_c, 1, 58, 66
4, 23279, Note_on_c, 1, 65, 0
4, 23279, Note_on_c, 1, 62, 0
4, 23279, Note_on_c, 1, 58, 0
4, 23280, Note_on_c, 1, 65, 66
4, 23280, Note_on_c, 1, 62, 66
4, 23280, Note_on_c, 1, 58, 66
4, 23327, Note_on_c, 1, 65, 0
4, 23327, Note_on_c, 1, 62, 0
4, 23327, Note_on_c, 1, 58, 0
4, 23328, Note_on_c, 1, 65, 66
4, 23328, Note_on_c, 1, 62, 66
4, 23328, Note_on_c, 1, 58, 66
4, 23375, Note_on_c, 1, 65, 0
4, 23375, Note_on_c, 1, 62, 0
4, 23375, Note_on_c, 1, 58, 0
4, 23376, Note_on_c, 1, 65, 66
4, 23376, Note_on_c, 1, 62, 66
4, 23376, Note_on_c, 1, 58, 66
4, 23423, Note_on_c, 1, 65, 0
4, 23423, Note_on_c, 1, 62, 0
4, 23423, Note_on_c, 1, 58, 0
4, 23424, Note_on_c, 1, 65, 66
4, 23424, Note_on_c, 1, 62, 66
4, 23424, Note_on_c, 1, 58, 66
4, 23471, Note_on_c, 1, 65, 0
4, 23471, Note_on_c, 1, 62, 0
4, 23471, Note_on_c, 1, 58, 0
4, 23472, Note_on_c, 1, 65, 66
4, 23472, Note_on_c, 1, 62, 66
4, 23472, Note_on_c, 1, 58, 66
4, 23519, Note_on_c, 1, 65, 0
4, 23519, Note_on_c, 1, 62, 0
4, 23519, Note_on_c, 1, 58, 0
4, 23520, Note_on_c, 1, 65, 66
4, 23520, Note_on_c, 1, 62, 66
4, 23520, Note_on_c, 1, 58, 66
4, 23567, Note_on_c, 1, 65, 0
4, 23567, Note_on_c, 1, 62, 0
4, 23567, Note_on_c, 1, 58, 0
4, 23568, Note_on_c, 1, 65, 66
4, 23568, Note_on_c, 1, 62, 66
4, 23568, Note_on_c, 1, 58, 66
4, 23615, Note_on_c, 1, 65, 0
4, 23615, Note_on_c, 1, 62, 0
4, 23615, Note_on_c, 1, 58, 0
4, 23616, Note_on_c, 1, 63, 75
4, 23705, Note_on_c, 1, 63, 0
4, 24048, Note_on_c, 1, 63, 75
4, 24093, Note_on_c, 1, 63, 0
4, 24096, Note_on_c, 1, 67, 75
4, 24185, Note_on_c, 1, 67, 0
4, 24240, Note_on_c, 1, 63, 75
4, 24285, Note_on_c, 1, 63, 0
4, 24288, Note_on_c, 1, 67, 75
4, 24377, Note_on_c, 1, 67, 0
4, 24384, Note_on_c, 1, 65, 75
4, 24384, Note_on_c, 1, 58, 75
4, 24473, Note_on_c, 1, 65, 0
4, 24473, Note_on_c, 1, 58, 0
4, 24480, Note_on_c, 1, 62, 75
4, 24480, Note_on_c, 1, 58, 75
4, 24569, Note_on_c, 1, 62, 0
4, 24569, Note_on_c, 1, 58, 0
4, 24576, Note_on_c, 1, 63, 75
4, 24576, Note_on_c, 1, 58, 75
4, 24665, Note_on_c, 1, 63, 0
4, 24665, Note_on_c, 1, 58, 0
4, 24672, Note_on_c, 1, 67, 75
4, 24672, Note_on_c, 1, 58, 75
4, 24761, Note_on_c, 1, 67, 0
4, 24761, Note_on_c, 1, 58, 0
4, 24768, Note_on_c, 1, 65, 75
4, 24768, Note_on_c, 1, 58, 75
4, 24857, Note_on_c, 1, 65, 0
4, 24857, Note_on_c, 1, 58, 0
4, 24864, Note_on_c, 1, 62, 75
4, 24864, Note_on_c, 1, 58, 75
4, 24953, Note_on_c, 1, 62, 0
4, 24953, Note_on_c, 1, 58, 0
4, 24960, Note_on_c, 1, 39, 75
4, 25049, Note_on_c, 1, 39, 0
4, 25104, Note_on_c, 1, 63, 75
4, 25104, Note_on_c, 1, 55, 75
4, 25149, Note_on_c, 1, 63, 0
4, 25149, Note_on_c, 1, 55, 0
4, 25152, Note_on_c, 1, 63, 75
4, 25152, Note_on_c, 1, 56, 75
4, 25241, Note_on_c, 1, 63, 0
4, 25241, Note_on_c, 1, 56, 0
4, 25248, Note_on_c, 1, 63, 75
4, 25248, Note_on_c, 1, 55, 75
4, 25337, Note_on_c, 1, 63, 0
4, 25337, Note_on_c, 1, 55, 0
4, 25344, Note_on_c, 1, 62, 75
4, 25344, Note_on_c, 1, 53, 75
4, 25433, Note_on_c, 1, 62, 0
4, 25433, Note_on_c, 1, 53, 0
4, 25440, Note_on_c, 1, 63, 75
4, 25440, Note_on_c, 1, 51, 75
4, 25529, Note_on_c, 1, 63, 0
4, 25529, Note_on_c, 1, 51, 0
4, 25536, Note_on_c, 1, 56, 75
4, 25669, Note_on_c, 1, 56, 0
4, 25680, Note_on_c, 1, 57, 75
4, 25725, Note_on_c, 1, 57, 0
4, 25728, Note_on_c, 1, 58, 75
4, 25773, Note_on_c, 1, 58, 0
4, 25776, Note_on_c, 1, 53, 75
4, 25821, Note_on_c, 1, 53, 0
4, 25824, Note_on_c, 1, 46, 75
4, 25913, Note_on_c, 1, 46, 0
4, 25968, Note_on_c, 1, 51, 70
4, 26013, Note_on_c, 1, 51, 0
4, 26016, Note_on_c, 1, 55, 70
4, 26105, Note_on_c, 1, 55, 0
4, 26160, Note_on_c, 1, 56, 70
4, 26205, Note_on_c, 1, 56, 0
4, 26208, Note_on_c, 1, 44, 70
4, 26297, Note_on_c, 1, 44, 0
4, 26352, Note_on_c, 1, 53, 70
4, 26397, Note_on_c, 1, 53, 0
4, 26400, Note_on_c, 1, 57, 70
4, 26489, Note_on_c, 1, 57, 0
4, 26544, Note_on_c, 1, 58, 70
4, 26589, Note_on_c, 1, 58, 0
4, 26592, Note_on_c, 1, 46, 70
4, 26681, Note_on_c, 1, 46, 0
4, 26688, Note_on_c, 1, 62, 66
4, 26688, Note_on_c, 1, 58, 66
4, 26733, Note_on_c, 1, 62, 0
4, 26733, Note_on_c, 1, 58, 0
4, 26736, Note_on_c, 1, 62, 66
4, 26736, Note_on_c, 1, 58, 66
4, 26781, Note_on_c, 1, 62, 0
4, 26781, Note_on_c, 1, 58, 0
4, 26784, Note_on_c, 1, 62, 66
4, 26784, Note_on_c, 1, 58, 66
4, 26829, Note_on_c, 1, 62, 0
4, 26829, Note_on_c, 1, 58, 0
4, 26832, Note_on_c, 1, 62, 66
4, 26832, Note_on_c, 1, 58, 66
4, 26877, Note_on_c, 1, 62, 0
4, 26877, Note_on_c, 1, 58, 0
4, 26880, Note_on_c, 1, 63, 66
4, 26880, Note_on_c, 1, 58, 66
4, 26925, Note_on_c, 1, 63, 0
4, 26925, Note_on_c, 1, 58, 0
4, 26928, Note_on_c, 1, 63, 66
4, 26928, Note_on_c, 1, 58, 66
4, 26973, Note_on_c, 1, 63, 0
4, 26973, Note_on_c, 1, 58, 0
4, 26976, Note_on_c, 1, 63, 66
4, 26976, Note_on_c, 1, 58, 66
4, 27021, Note_on_c, 1, 63, 0
4, 27021, Note_on_c, 1, 58, 0
4, 27024, Note_on_c, 1, 63, 66
4, 27024, Note_on_c, 1, 58, 66
4, 27069, Note_on_c, 1, 63, 0
4, 27069, Note_on_c, 1, 58, 0
4, 27072, Note_on_c, 1, 62, 66
4, 27072, Note_on_c, 1, 58, 66
4, 27117, Note_on_c, 1, 62, 0
4, 27117, Note_on_c, 1, 58, 0
4, 27120, Note_on_c, 1, 62, 66
4, 27120, Note_on_c, 1, 58, 66
4, 27165, Note_on_c, 1, 62, 0
4, 27165, Note_on_c, 1, 58, 0
4, 27168, Note_on_c, 1, 62, 66
4, 27168, Note_on_c, 1, 58, 66
4, 27213, Note_on_c, 1, 62, 0
4, 27213, Note_on_c, 1, 58, 0
4, 27216, Note_on_c, 1, 62, 66
4, 27216, Note_on_c, 1, 58, 66
4, 27261, Note_on_c, 1, 62, 0
4, 27261, Note_on_c, 1, 58, 0
4, 27264, Note_on_c, 1, 63, 75
4, 27353, Note_on_c, 1, 63, 0
4, 27504, Note_on_c, 1, 62, 75
4, 27504, Note_on_c, 1, 58, 75
4, 27549, Note_on_c, 1, 62, 0
4, 27549, Note_on_c, 1, 58, 0
4, 27552, Note_on_c, 1, 63, 75
4, 27552, Note_on_c, 1, 60, 75
4, 27597, Note_on_c, 1, 63, 0
4, 27597, Note_on_c, 1, 60, 0
4, 27600, Note_on_c, 1, 65, 75
4, 27600, Note_on_c, 1, 62, 75
4, 27645, Note_on_c, 1, 65, 0
4, 27645, Note_on_c, 1, 62, 0
4, 27648, Note_on_c, 1, 63, 75
4, 27737, Note_on_c, 1, 63, 0
4, 27744, Note_on_c, 1, 56, 75
4, 27833, Note_on_c, 1, 56, 0
4, 27888, Note_on_c, 1, 55, 75
4, 27933, Note_on_c, 1, 55, 0
4, 27936, Note_on_c, 1, 56, 75
4, 27981, Note_on_c, 1, 56, 0
4, 27984, Note_on_c, 1, 58, 75
4, 28029, Note_on_c, 1, 58, 0
4, 28032, Note_on_c, 1, 60, 75
4, 28121, Note_on_c, 1, 60, 0
4, 28176, Note_on_c, 1, 63, 70
4, 28176, Note_on_c, 1, 60, 70
4, 28221, Note_on_c, 1, 63, 0
4, 28221, Note_on_c, 1, 60, 0
4, 28224, Note_on_c, 1, 62, 68
4, 28224, Note_on_c, 1, 58, 68
4, 28313, Note_on_c, 1, 62, 0
4, 28313, Note_on_c, 1, 58, 0
4, 28368, Note_on_c, 1, 63, 63
4, 28368, Note_on_c, 1, 60, 63
4, 28413, Note_on_c, 1, 63, 0
4, 28413, Note_on_c, 1, 60, 0
4, 28416, Note_on_c, 1, 62, 62
4, 28416, Note_on_c, 1, 58, 62
4, 28505, Note_on_c, 1, 62, 0
4, 28505, Note_on_c, 1, 58, 0
4, 28608, Note_on_c, 1, 63, 80
4, 28608, Note_on_c, 1, 58, 80
4, 28608, Note_on_c, 1, 55, 80
4, 28608, Note_on_c, 1, 51, 80
4, 28697, Note_on_c, 1, 63, 0
4, 28697, Note_on_c, 1, 58, 0
4, 28697, Note_on_c, 1, 55, 0
4, 28697, Note_on_c, 1, 51, 0
4, 28944, Note_on_c, 1, 55, 80
4, 28944, Note_on_c, 1, 43, 80
4, 28989, Note_on_c, 1, 55, 0
4, 28989, Note_on_c, 1, 43, 0
4, 28992, Note_on_c, 1, 56, 80
4, 28992, Note_on_c, 1, 44, 80
4, 29081, Note_on_c, 1, 56, 0
4, 29081, Note_on_c, 1, 44, 0
4, 29088, Note_on_c, 1, 58, 80
4, 29088, Note_on_c, 1, 46, 80
4, 29177, Note_on_c, 1, 58, 0
4, 29177, Note_on_c, 1, 46, 0
4, 29184, Note_on_c, 1, 60, 80
4, 29184, Note_on_c, 1, 48, 80
4, 29273, Note_on_c, 1, 60, 0
4, 29273, Note_on_c, 1, 48, 0
4, 29376, Note_on_c, 1, 63, 80
4, 29376, Note_on_c, 1, 58, 80
4, 29376, Note_on_c, 1, 55, 80
4, 29376, Note_on_c, 1, 51, 80
4, 29465, Note_on_c, 1, 63, 0
4, 29465, Note_on_c, 1, 58, 0
4, 29465, Note_on_c, 1, 55, 0
4, 29465, Note_on_c, 1, 51, 0
4, 29712, Note_on_c, 1, 55, 80
4, 29712, Note_on_c, 1, 43, 80
4, 29757, Note_on_c, 1, 55, 0
4, 29757, Note_on_c, 1, 43, 0
4, 29760, Note_on_c, 1, 56, 80
4, 29760, Note_on_c, 1, 44, 80
4, 29849, Note_on_c, 1, 56, 0
4, 29849, Note_on_c, 1, 44, 0
4, 29856, Note_on_c, 1, 58, 80
4, 29856, Note_on_c, 1, 46, 80
4, 29945, Note_on_c, 1, 58, 0
4, 29945, Note_on_c, 1, 46, 0
4, 29952, Note_on_c, 1, 51, 80
4, 29952, Note_on_c, 1, 39, 80
4, 30041, Note_on_c, 1, 51, 0
4, 30041, Note_on_c, 1, 39, 0
4, 30144, Note_on_c, 1, 62, 75
4, 30144, Note_on_c, 1, 58, 75
4, 30233, Note_on_c, 1, 62, 0
4, 30233, Note_on_c, 1, 58, 0
4, 30384, Note_on_c, 1, 58, 75
4, 30429, Note_on_c, 1, 58, 0
4, 30432, Note_on_c, 1, 62, 75
4, 30521, Note_on_c, 1, 62, 0
4, 30576, Note_on_c, 1, 58, 75
4, 30621, Note_on_c, 1, 58, 0
4, 30624, Note_on_c, 1, 62, 75
4, 30713, Note_on_c, 1, 62, 0
4, 30720, Note_on_c, 1, 60, 75
4, 30720, Note_on_c, 1, 53, 75
4, 30809, Note_on_c, 1, 60, 0
4, 30809, Note_on_c, 1, 53, 0
4, 30816, Note_on_c, 1, 57, 75
4, 30816, Note_on_c, 1, 53, 75
4, 30905, Note_on_c, 1, 57, 0
4, 30905, Note_on_c, 1, 53, 0
4, 30912, Note_on_c, 1, 58, 75
4, 30912, Note_on_c, 1, 53, 75
4, 31001, Note_on_c, 1, 58, 0
4, 31001, Note_on_c, 1, 53, 0
4, 31008, Note_on_c, 1, 62, 75
4, 31008, Note_on_c, 1, 53, 75
4, 31097, Note_on_c, 1, 62, 0
4, 31097, Note_on_c, 1, 53, 0
4, 31104, Note_on_c, 1, 60, 75
4, 31104, Note_on_c, 1, 53, 75
4, 31193, Note_on_c, 1, 60, 0
4, 31193, Note_on_c, 1, 53, 0
4, 31200, Note_on_c, 1, 57, 75
4, 31200, Note_on_c, 1, 53, 75
4, 31289, Note_on_c, 1, 57, 0
4, 31289, Note_on_c, 1, 53, 0
4, 31296, Note_on_c, 1, 58, 80
4, 31296, Note_on_c, 1, 46, 80
4, 31473, Note_on_c, 1, 58, 0
4, 31473, Note_on_c, 1, 46, 0
4, 31488, Note_on_c, 1, 56, 80
4, 31488, Note_on_c, 1, 44, 80
4, 31577, Note_on_c, 1, 56, 0
4, 31577, Note_on_c, 1, 44, 0
4, 31584, Note_on_c, 1, 56, 80
4, 31584, Note_on_c, 1, 44, 80
4, 31673, Note_on_c, 1, 56, 0
4, 31673, Note_on_c, 1, 44, 0
4, 31680, Note_on_c, 1, 55, 80
4, 31680, Note_on_c, 1, 43, 80
4, 31857, Note_on_c, 1, 55, 0
4, 31857, Note_on_c, 1, 43, 0
4, 31872, Note_on_c, 1, 67, 80
4, 31872, Note_on_c, 1, 55, 80
4, 32049, Note_on_c, 1, 67, 0
4, 32049, Note_on_c, 1, 55, 0
4, 32064, Note_on_c, 1, 62, 80
4, 32064, Note_on_c, 1, 50, 80
4, 32241, Note_on_c, 1, 62, 0
4, 32241, Note_on_c, 1, 50, 0
4, 32256, Note_on_c, 1, 58, 80
4, 32256, Note_on_c, 1, 46, 80
4, 32433, Note_on_c, 1, 58, 0
4, 32433, Note_on_c, 1, 46, 0
4, 32448, Note_on_c, 1, 63, 80
4, 32448, Note_on_c, 1, 51, 80
4, 32625, Note_on_c, 1, 63, 0
4, 32625, Note_on_c, 1, 51, 0
4, 32640, Note_on_c, 1, 61, 80
4, 32640, Note_on_c, 1, 49, 80
4, 32817, Note_on_c, 1, 61, 0
4, 32817, Note_on_c, 1, 49, 0
4, 32832, Note_on_c, 1, 60, 80
4, 32832, Note_on_c, 1, 48, 80
4, 33009, Note_on_c, 1, 60, 0
4, 33009, Note_on_c, 1, 48, 0
4, 33024, Note_on_c, 1, 52, 80
4, 33024, Note_on_c, 1, 40, 80
4, 33201, Note_on_c, 1, 52, 0
4, 33201, Note_on_c, 1, 40, 0
4, 33216, Note_on_c, 1, 53, 75
4, 33216, Note_on_c, 1, 41, 75
4, 33349, Note_on_c, 1, 53, 0
4, 33349, Note_on_c, 1, 41, 0
4, 33360, Note_on_c, 1, 63, 75
4, 33360, Note_on_c, 1, 51, 75
4, 33405, Note_on_c, 1, 63, 0
4, 33405, Note_on_c, 1, 51, 0
4, 33408, Note_on_c, 1, 62, 75
4, 33408, Note_on_c, 1, 50, 75
4, 33541, Note_on_c, 1, 62, 0
4, 33541, Note_on_c, 1, 50, 0
4, 33552, Note_on_c, 1, 58, 75
4, 33552, Note_on_c, 1, 46, 75
4, 33597, Note_on_c, 1, 58, 0
4, 33597, Note_on_c, 1, 46, 0
4, 33600, Note_on_c, 1, 63, 75
4, 33600, Note_on_c, 1, 51, 75
4, 33733, Note_on_c, 1, 63, 0
4, 33733, Note_on_c, 1, 51, 0
4, 33744, Note_on_c, 1, 62, 75
4, 33744, Note_on_c, 1, 50, 75
4, 33789, Note_on_c, 1, 62, 0
4, 33789, Note_on_c, 1, 50, 0
4, 33792, Note_on_c, 1, 60, 75
4, 33792, Note_on_c, 1, 48, 75
4, 33925, Note_on_c, 1, 60, 0
4, 33925, Note_on_c, 1, 48, 0
4, 33936, Note_on_c, 1, 56, 75
4, 33936, Note_on_c, 1, 44, 75
4, 33981, Note_on_c, 1, 56, 0
4, 33981, Note_on_c, 1, 44, 0
4, 33984, Note_on_c, 1, 62, 75
4, 33984, Note_on_c, 1, 50, 75
4, 34117, Note_on_c, 1, 62, 0
4, 34117, Note_on_c, 1, 50, 0
4, 34128, Note_on_c, 1, 60, 75
4, 34128, Note_on_c, 1, 48, 75
4, 34173, Note_on_c, 1, 60, 0
4, 34173, Note_on_c, 1, 48, 0
4, 34176, Note_on_c, 1, 59, 75
4, 34176, Note_on_c, 1, 47, 75
4, 34309, Note_on_c, 1, 59, 0
4, 34309, Note_on_c, 1, 47, 0
4, 34320, Note_on_c, 1, 55, 75
4, 34320, Note_on_c, 1, 43, 75
4, 34365, Note_on_c, 1, 55, 0
4, 34365, Note_on_c, 1, 43, 0
4, 34368, Note_on_c, 1, 60, 75
4, 34368, Note_on_c, 1, 48, 75
4, 34501, Note_on_c, 1, 60, 0
4, 34501, Note_on_c, 1, 48, 0
4, 34512, Note_on_c, 1, 58, 75
4, 34512, Note_on_c, 1, 46, 75
4, 34557, Note_on_c, 1, 58, 0
4, 34557, Note_on_c, 1, 46, 0
4, 34560, Note_on_c, 1, 57, 75
4, 34560, Note_on_c, 1, 45, 75
4, 34649, Note_on_c, 1, 57, 0
4, 34649, Note_on_c, 1, 45, 0
4, 34656, Note_on_c, 1, 57, 75
4, 34656, Note_on_c, 1, 45, 75
4, 34745, Note_on_c, 1, 57, 0
4, 34745, Note_on_c, 1, 45, 0
4, 34752, Note_on_c, 1, 65, 66
4, 34752, Note_on_c, 1, 62, 66
4, 34752, Note_on_c, 1, 58, 66
4, 34799, Note_on_c, 1, 65, 0
4, 34799, Note_on_c, 1, 62, 0
4, 34799, Note_on_c, 1, 58, 0
4, 34800, Note_on_c, 1, 65, 66
4, 34800, Note_on_c, 1, 62, 66
4, 34800, Note_on_c, 1, 58, 66
4, 34847, Note_on_c, 1, 65, 0
4, 34847, Note_on_c, 1, 62, 0
4, 34847, Note_on_c, 1, 58, 0
4, 34848, Note_on_c, 1, 65, 66
4, 34848, Note_on_c, 1, 62, 66
4, 34848, Note_on_c, 1, 58, 66
4, 34895, Note_on_c, 1, 65, 0
4, 34895, Note_on_c, 1, 62, 0
4, 34895, Note_on_c, 1, 58, 0
4, 34896, Note_on_c, 1, 65, 66
4, 34896, Note_on_c, 1, 62, 66
4, 34896, Note_on_c, 1, 58, 66
4, 34943, Note_on_c, 1, 65, 0
4, 34943, Note_on_c, 1, 62, 0
4, 34943, Note_on_c, 1, 58, 0
4, 34944, Note_on_c, 1, 65, 66
4, 34944, Note_on_c, 1, 62, 66
4, 34944, Note_on_c, 1, 58, 66
4, 34991, Note_on_c, 1, 65, 0
4, 34991, Note_on_c, 1, 62, 0
4, 34991, Note_on_c, 1, 58, 0
4, 34992, Note_on_c, 1, 65, 66
4, 34992, Note_on_c, 1, 62, 66
4, 34992, Note_on_c, 1, 58, 66
4, 35039, Note_on_c, 1, 65, 0
4, 35039, Note_on_c, 1, 62, 0
4, 35039, Note_on_c, 1, 58, 0
4, 35040, Note_on_c, 1, 65, 66
4, 35040, Note_on_c, 1, 62, 66
4, 35040, Note_on_c, 1, 58, 66
4, 35087, Note_on_c, 1, 65, 0
4, 35087, Note_on_c, 1, 62, 0
4, 35087, Note_on_c, 1, 58, 0
4, 35088, Note_on_c, 1, 65, 66
4, 35088, Note_on_c, 1, 62, 66
4, 35088, Note_on_c, 1, 58, 66
4, 35135, Note_on_c, 1, 65, 0
4, 35135, Note_on_c, 1, 62, 0
4, 35135, Note_on_c, 1, 58, 0
4, 35136, Note_on_c, 1, 67, 66
4, 35136, Note_on_c, 1, 63, 66
4, 35136, Note_on_c, 1, 58, 66
4, 35183, Note_on_c, 1, 67, 0
4, 35183, Note_on_c, 1, 63, 0
4, 35183, Note_on_c, 1, 58, 0
4, 35184, Note_on_c, 1, 67, 66
4, 35184, Note_on_c, 1, 63, 66
4, 35184, Note_on_c, 1, 58, 66
4, 35231, Note_on_c, 1, 67, 0
4, 35231, Note_on_c, 1, 63, 0
4, 35231, Note_on_c, 1, 58, 0
4, 35232, Note_on_c, 1, 67, 66
4, 35232, Note_on_c, 1, 63, 66
4, 35232, Note_on_c, 1, 58, 66
4, 35279, Note_on_c, 1, 67, 0
4, 35279, Note_on_c, 1, 63, 0
4, 35279, Note_on_c, 1, 58, 0
4, 35280, Note_on_c, 1, 67, 66
4, 35280, Note_on_c, 1, 63, 66
4, 35280, Note_on_c, 1, 58, 66
4, 35327, Note_on_c, 1, 67, 0
4, 35327, Note_on_c, 1, 63, 0
4, 35327, Note_on_c, 1, 58, 0
4, 35328, Note_on_c, 1, 67, 66
4, 35328, Note_on_c, 1, 58, 66
4, 35375, Note_on_c, 1, 67, 0
4, 35375, Note_on_c, 1, 58, 0
4, 35376, Note_on_c, 1, 67, 66
4, 35376, Note_on_c, 1, 58, 66
4, 35423, Note_on_c, 1, 67, 0
4, 35423, Note_on_c, 1, 58, 0
4, 35424, Note_on_c, 1, 67, 66
4, 35424, Note_on_c, 1, 58, 66
4, 35471, Note_on_c, 1, 67, 0
4, 35471, Note_on_c, 1, 58, 0
4, 35472, Note_on_c, 1, 67, 66
4, 35472, Note_on_c, 1, 58, 66
4, 35519, Note_on_c, 1, 67, 0
4, 35519, Note_on_c, 1, 58, 0
4, 35520, Note_on_c, 1, 65, 66
4, 35520, Note_on_c, 1, 62, 66
4, 35520, Note_on_c, 1, 58, 66
4, 35567, Note_on_c, 1, 65, 0
4, 35567, Note_on_c, 1, 62, 0
4, 35567, Note_on_c, 1, 58, 0
4, 35568, Note_on_c, 1, 65, 66
4, 35568, Note_on_c, 1, 62, 66
4, 35568, Note_on_c, 1, 58, 66
4, 35615, Note_on_c, 1, 65, 0
4, 35615, Note_on_c, 1, 62, 0
4, 35615, Note_on_c, 1, 58, 0
4, 35616, Note_on_c, 1, 65, 66
4, 35616, Note_on_c, 1, 62, 66
4, 35616, Note_on_c, 1, 58, 66
4, 35663, Note_on_c, 1, 65, 0
4, 35663, Note_on_c, 1, 62, 0
4, 35663, Note_on_c, 1, 58, 0
4, 35664, Note_on_c, 1, 65, 66
4, 35664, Note_on_c, 1, 62, 66
4, 35664, Note_on_c, 1, 58, 66
4, 35711, Note_on_c, 1, 65, 0
4, 35711, Note_on_c, 1, 62, 0
4, 35711, Note_on_c, 1, 58, 0
4, 35712, Note_on_c, 1, 65, 66
4, 35712, Note_on_c, 1, 62, 66
4, 35712, Note_on_c, 1, 58, 66
4, 35759, Note_on_c, 1, 65, 0
4, 35759, Note_on_c, 1, 62, 0
4, 35759, Note_on_c, 1, 58, 0
4, 35760, Note_on_c, 1, 65, 66
4, 35760, Note_on_c, 1, 62, 66
4, 35760, Note_on_c, 1, 58, 66
4, 35807, Note_on_c, 1, 65, 0
4, 35807, Note_on_c, 1, 62, 0
4, 35807, Note_on_c, 1, 58, 0
4, 35808, Note_on_c, 1, 65, 66
4, 35808, Note_on_c, 1, 62, 66
4, 35808, Note_on_c, 1, 58, 66
4, 35855, Note_on_c, 1, 65, 0
4, 35855, Note_on_c, 1, 62, 0
4, 35855, Note_on_c, 1, 58, 0
4, 35856, Note_on_c, 1, 65, 66
4, 35856, Note_on_c, 1, 62, 66
4, 35856, Note_on_c, 1, 58, 66
4, 35903, Note_on_c, 1, 65, 0
4, 35903, Note_on_c, 1, 62, 0
4, 35903, Note_on_c, 1, 58, 0
4, 35904, Note_on_c, 1, 63, 75
4, 35993, Note_on_c, 1, 63, 0
4, 36336, Note_on_c, 1, 63, 75
4, 36381, Note_on_c, 1, 63, 0
4, 36384, Note_on_c, 1, 67, 75
4, 36473, Note_on_c, 1, 67, 0
4, 36528, Note_on_c, 1, 63, 75
4, 36573, Note_on_c, 1, 63, 0
4, 36576, Note_on_c, 1, 67, 75
4, 36665, Note_on_c, 1, 67, 0
4, 36672, Note_on_c, 1, 65, 75
4, 36672, Note_on_c, 1, 58, 75
4, 36761, Note_on_c, 1, 65, 0
4, 36761, Note_on_c, 1, 58, 0
4, 36768, Note_on_c, 1, 62, 75
4, 36768, Note_on_c, 1, 58, 75
4, 36857, Note_on_c, 1, 62, 0
4, 36857, Note_on_c, 1, 58, 0
4, 36864, Note_on_c, 1, 63, 75
4, 36864, Note_on_c, 1, 58, 75
4, 36953, Note_on_c, 1, 63, 0
4, 36953, Note_on_c, 1, 58, 0
4, 36960, Note_on_c, 1, 67, 75
4, 36960, Note_on_c, 1, 58, 75
4, 37049, Note_on_c, 1, 67, 0
4, 37049, Note_on_c, 1, 58, 0
4, 37056, Note_on_c, 1, 65, 75
4, 37056, Note_on_c, 1, 58, 75
4, 37145, Note_on_c, 1, 65, 0
4, 37145, Note_on_c, 1, 58, 0
4, 37152, Note_on_c, 1, 62, 75
4, 37152, Note_on_c, 1, 58, 75
4, 37241, Note_on_c, 1, 62, 0
4, 37241, Note_on_c, 1, 58, 0
4, 37248, Note_on_c, 1, 39, 75
4, 37337, Note_on_c, 1, 39, 0
4, 37392, Note_on_c, 1, 63, 75
4, 37392, Note_on_c, 1, 55, 75
4, 37437, Note_on_c, 1, 63, 0
4, 37437, Note_on_c, 1, 55, 0
4, 37440, Note_on_c, 1, 63, 75
4, 37440, Note_on_c, 1, 56, 75
4, 37529, Note_on_c, 1, 63, 0
4, 37529, Note_on_c, 1, 56, 0
4, 37536, Note_on_c, 1, 63, 75
4, 37536, Note_on_c, 1, 55, 75
4, 37625, Note_on_c, 1, 63, 0
4, 37625, Note_on_c, 1, 55, 0
4, 37632, Note_on_c, 1, 62, 75
4, 37632, Note_on_c, 1, 53, 75
4, 37721, Note_on_c, 1, 62, 0
4, 37721, Note_on_c, 1, 53, 0
4, 37728, Note_on_c, 1, 63, 75
4, 37728, Note_on_c, 1, 51, 75
4, 37817, Note_on_c, 1, 63, 0
4, 37817, Note_on_c, 1, 51, 0
4, 37824, Note_on_c, 1, 56, 75
4, 37957, Note_on_c, 1, 56, 0
4, 37968, Note_on_c, 1, 57, 75
4, 38013, Note_on_c, 1, 57, 0
4, 38016, Note_on_c, 1, 58, 75
4, 38061, Note_on_c, 1, 58, 0
4, 38064, Note_on_c, 1, 53, 75
4, 38109, Note_on_c, 1, 53, 0
4, 38112, Note_on_c, 1, 46, 75
4, 38201, Note_on_c, 1, 46, 0
4, 38256, Note_on_c, 1, 51, 70
4, 38301, Note_on_c, 1, 51, 0
4, 38304, Note_on_c, 1, 55, 70
4, 38393, Note_on_c, 1, 55, 0
4, 38448, Note_on_c, 1, 56, 70
4, 38493, Note_on_c, 1, 56, 0
4, 38496, Note_on_c, 1, 44, 70
4, 38585, Note_on_c, 1, 44, 0
4, 38640, Note_on_c, 1, 53, 70
4, 38685, Note_on_c, 1, 53, 0
4, 38688, Note_on_c, 1, 57, 70
4, 38777, Note_on_c, 1, 57, 0
4, 38832, Note_on_c, 1, 58, 70
4, 38877, Note_on_c, 1, 58, 0
4, 38880, Note_on_c, 1, 46, 70
4, 38969, Note_on_c, 1, 46, 0
4, 38976, Note_on_c, 1, 62, 66
4, 38976, Note_on_c, 1, 58, 66
4, 39021, Note_on_c, 1, 62, 0
4, 39021, Note_on_c, 1, 58, 0
4, 39024, Note_on_c, 1, 62, 66
4, 39024, Note_on_c, 1, 58, 66
4, 39069, Note_on_c, 1, 62, 0
4, 39069, Note_on_c, 1, 58, 0
4, 39072, Note_on_c, 1, 62, 66
4, 39072, Note_on_c, 1, 58, 66
4, 39117, Note_on_c, 1, 62, 0
4, 39117, Note_on_c, 1, 58, 0
4, 39120, Note_on_c, 1, 62, 66
4, 39120, Note_on_c, 1, 58, 66
4, 39165, Note_on_c, 1, 62, 0
4, 39165, Note_on_c, 1, 58, 0
4, 39168, Note_on_c, 1, 63, 66
4, 39168, Note_on_c, 1, 58, 66
4, 39213, Note_on_c, 1, 63, 0
4, 39213, Note_on_c, 1, 58, 0
4, 39216, Note_on_c, 1, 63, 66
4, 39216, Note_on_c, 1, 58, 66
4, 39261, Note_on_c, 1, 63, 0
4, 39261, Note_on_c, 1, 58, 0
4, 39264, Note_on_c, 1, 63, 66
4, 39264, Note_on_c, 1, 58, 66
4, 39309, Note_on_c, 1, 63, 0
4, 39309, Note_on_c, 1, 58, 0
4, 39312, Note_on_c, 1, 63, 66
4, 39312, Note_on_c, 1, 58, 66
4, 39357, Note_on_c, 1, 63, 0
4, 39357, Note_on_c, 1, 58, 0
4, 39360, Note_on_c, 1, 62, 66
4, 39360, Note_on_c, 1, 58, 66
4, 39405, Note_on_c, 1, 62, 0
4, 39405, Note_on_c, 1, 58, 0
4, 39408, Note_on_c, 1, 62, 66
4, 39408, Note_on_c, 1, 58, 66
4, 39453, Note_on_c, 1, 62, 0
4, 39453, Note_on_c, 1, 58, 0
4, 39456, Note_on_c, 1, 62, 66
4, 39456, Note_on_c, 1, 58, 66
4, 39501, Note_on_c, 1, 62, 0
4, 39501, Note_on_c, 1, 58, 0
4, 39504, Note_on_c, 1, 62, 66
4, 39504, Note_on_c, 1, 58, 66
4, 39549, Note_on_c, 1, 62, 0
4, 39549, Note_on_c, 1, 58, 0
4, 39552, Note_on_c, 1, 63, 75
4, 39641, Note_on_c, 1, 63, 0
4, 39792, Note_on_c, 1, 62, 75
4, 39792, Note_on_c, 1, 58, 75
4, 39837, Note_on_c, 1, 62, 0
4, 39837, Note_on_c, 1, 58, 0
4, 39840, Note_on_c, 1, 63, 75
4, 39840, Note_on_c, 1, 60, 75
4, 39885, Note_on_c, 1, 63, 0
4, 39885, Note_on_c, 1, 60, 0
4, 39888, Note_on_c, 1, 65, 75
4, 39888, Note_on_c, 1, 62, 75
4, 39933, Note_on_c, 1, 65, 0
4, 39933, Note_on_c, 1, 62, 0
4, 39936, Note_on_c, 1, 63, 75
4, 40025, Note_on_c, 1, 63, 0
4, 40032, Note_on_c, 1, 56, 75
4, 40121, Note_on_c, 1, 56, 0
4, 40176, Note_on_c, 1, 55, 75
4, 40221, Note_on_c, 1, 55, 0
4, 40224, Note_on_c, 1, 56, 75
4, 40269, Note_on_c, 1, 56, 0
4, 40272, Note_on_c, 1, 58, 75
4, 40317, Note_on_c, 1, 58, 0
4, 40320, Note_on_c, 1, 60, 75
4, 40409, Note_on_c, 1, 60, 0
4, 40464, Note_on_c, 1, 63, 70
4, 40464, Note_on_c, 1, 60, 70
4, 40509, Note_on_c, 1, 63, 0
4, 40509, Note_on_c, 1, 60, 0
4, 40512, Note_on_c, 1, 62, 68
4, 40512, Note_on_c, 1, 58, 68
4, 40601, Note_on_c, 1, 62, 0
4, 40601, Note_on_c, 1, 58, 0
4, 40656, Note_on_c, 1, 63, 63
4, 40656, Note_on_c, 1, 60, 63
4, 40701, Note_on_c, 1, 63, 0
4, 40701, Note_on_c, 1, 60, 0
4, 40704, Note_on_c, 1, 62, 62
4, 40704, Note_on_c, 1, 58, 62
4, 40793, Note_on_c, 1, 62, 0
4, 40793, Note_on_c, 1, 58, 0
4, 40896, Note_on_c, 1, 63, 80
4, 40896, Note_on_c, 1, 58, 80
4, 40896, Note_on_c, 1, 55, 80
4, 40896, Note_on_c, 1, 51, 80
4, 40985, Note_on_c, 1, 63, 0
4, 40985, Note_on_c, 1, 58, 0
4, 40985, Note_on_c, 1, 55, 0
4, 40985, Note_on_c, 1, 51, 0
4, 41232, Note_on_c, 1, 55, 80
4, 41232, Note_on_c, 1, 43, 80
4, 41277, Note_on_c, 1, 55, 0
4, 41277, Note_on_c, 1, 43, 0
4, 41280, Note_on_c, 1, 56, 80
4, 41280, Note_on_c, 1, 44, 80
4, 41369, Note_on_c, 1, 56, 0
4, 41369, Note_on_c, 1, 44, 0
4, 41376, Note_on_c, 1, 58, 80
4, 41376, Note_on_c, 1, 46, 80
4, 41465, Note_on_c, 1, 58, 0
4, 41465, Note_on_c, 1, 46, 0
4, 41472, Note_on_c, 1, 60, 80
4, 41472, Note_on_c, 1, 48, 80
4, 41561, Note_on_c, 1, 60, 0
4, 41561, Note_on_c, 1, 48, 0
4, 41664, Note_on_c, 1, 63, 80
4, 41664, Note_on_c, 1, 58, 80
4, 41664, Note_on_c, 1, 55, 80
4, 41664, Note_on_c, 1, 51, 80
4, 41753, Note_on_c, 1, 63, 0
4, 41753, Note_on_c, 1, 58, 0
4, 41753, Note_on_c, 1, 55, 0
4, 41753, Note_on_c, 1, 51, 0
4, 42000, Note_on_c, 1, 55, 80
4, 42000, Note_on_c, 1, 43, 80
4, 42045, Note_on_c, 1, 55, 0
4, 42045, Note_on_c, 1, 43, 0
4, 42048, Note_on_c, 1, 56, 80
4, 42048, Note_on_c, 1, 44, 80
4, 42137, Note_on_c, 1, 56, 0
4, 42137, Note_on_c, 1, 44, 0
4, 42144, Note_on_c, 1, 58, 80
4, 42144, Note_on_c, 1, 46, 80
4, 42233, Note_on_c, 1, 58, 0
4, 42233, Note_on_c, 1, 46, 0
4, 42240, Note_on_c, 1, 51, 80
4, 42240, Note_on_c, 1, 39, 80
4, 42329, Note_on_c, 1, 51, 0
4, 42329, Note_on_c, 1, 39, 0
4, 42384, Note_on_c, 1, 39, 0
4, 42429, Note_on_c, 1, 39, 0
4, 42432, End_track
5, 0, Start_track
5, 0, Program_c, 1, 0
5, 0, Control_c, 1, 7, 127
5, 0, Control_c, 1, 10, 64
5, 6912, Note_on_c, 1, 70, 64
5, 7001, Note_on_c, 1, 70, 0
5, 15744, Note_on_c, 1, 70, 64
5, 15833, Note_on_c, 1, 70, 0
5, 42432, End_track
6, 0, Start_track
6, 0, Title_t, "Piano Sonata No 17 in Eb    FJ Haydn  "
6, 0, End_track
0, 0, End_of_file
