0, 0, Header, 1, 6, 96
1, 0, Start_track
1, 0, Copyright_t, "Copyright  1994-2002 Mozart Music Software"
1, 0, Text_t, "Sonata I\015\012"
1, 0, Text_t, "Haydn\015\012"
1, 0, Sequencer_specific, 16, 68, 87, 77, 90, 86, 82, 83, 78, 32, 55, 46, 48, 46, 55, 46, 48
1, 0, Time_signature, 3, 2, 24, 8
1, 0, Tempo, 120000
1, 0, Key_signature, 0, "major"
1, 192, Tempo, 387096
1, 10560, Tempo, 387096
1, 48672, End_track
2, 0, Start_track
2, 0, Program_c, 0, 0
2, 0, Control_c, 0, 7, 127
2, 0, Control_c, 0, 10, 64
2, 192, Note_on_c, 0, 79, 75
2, 281, Note_on_c, 0, 79, 0
2, 288, Note_on_c, 0, 81, 75
2, 306, Note_on_c, 0, 81, 0
2, 306, Note_on_c, 0, 79, 75
2, 324, Note_on_c, 0, 79, 0
2, 324, Note_on_c, 0, 78, 75
2, 342, Note_on_c, 0, 78, 0
2, 342, Note_on_c, 0, 79, 75
2, 377, Note_on_c, 0, 79, 0
2, 384, Note_on_c, 0, 76, 75
2, 473, Note_on_c, 0, 76, 0
2, 480, Note_on_c, 0, 79, 75
2, 569, Note_on_c, 0, 79, 0
2, 576, Note_on_c, 0, 81, 75
2, 594, Note_on_c, 0, 81, 0
2, 594, Note_on_c, 0, 79, 75
2, 612, Note_on_c, 0, 79, 0
2, 612, Note_on_c, 0, 78, 75
2, 630, Note_on_c, 0, 78, 0
2, 630, Note_on_c, 0, 79, 75
2, 665, Note_on_c, 0, 79, 0
2, 672, Note_on_c, 0, 84, 75
2, 761, Note_on_c, 0, 84, 0
2, 768, Note_on_c, 0, 79, 75
2, 857, Note_on_c, 0, 79, 0
2, 864, Note_on_c, 0, 79, 75
2, 1041, Note_on_c, 0, 79, 0
2, 1056, Note_on_c, 0, 79, 75
2, 1071, Note_on_c, 0, 79, 0
2, 1072, Note_on_c, 0, 77, 75
2, 1087, Note_on_c, 0, 77, 0
2, 1088, Note_on_c, 0, 79, 75
2, 1103, Note_on_c, 0, 79, 0
2, 1104, Note_on_c, 0, 77, 75
2, 1119, Note_on_c, 0, 77, 0
2, 1120, Note_on_c, 0, 79, 75
2, 1135, Note_on_c, 0, 79, 0
2, 1136, Note_on_c, 0, 77, 75
2, 1151, Note_on_c, 0, 77, 0
2, 1152, Note_on_c, 0, 76, 75
2, 1241, Note_on_c, 0, 76, 0
2, 1344, Note_on_c, 0, 72, 75
2, 1433, Note_on_c, 0, 72, 0
2, 1440, Note_on_c, 0, 72, 75
2, 1464, Note_on_c, 0, 72, 0
2, 1464, Note_on_c, 0, 71, 75
2, 1529, Note_on_c, 0, 71, 0
2, 1536, Note_on_c, 0, 71, 75
2, 1575, Note_on_c, 0, 71, 0
2, 1632, Note_on_c, 0, 71, 75
2, 1671, Note_on_c, 0, 71, 0
2, 1728, Note_on_c, 0, 74, 75
2, 1746, Note_on_c, 0, 74, 0
2, 1746, Note_on_c, 0, 72, 75
2, 1764, Note_on_c, 0, 72, 0
2, 1764, Note_on_c, 0, 71, 75
2, 1782, Note_on_c, 0, 71, 0
2, 1782, Note_on_c, 0, 72, 75
2, 1817, Note_on_c, 0, 72, 0
2, 1824, Note_on_c, 0, 76, 75
2, 1863, Note_on_c, 0, 76, 0
2, 1920, Note_on_c, 0, 76, 75
2, 1959, Note_on_c, 0, 76, 0
2, 2016, Note_on_c, 0, 76, 75
2, 2031, Note_on_c, 0, 76, 0
2, 2032, Note_on_c, 0, 74, 75
2, 2047, Note_on_c, 0, 74, 0
2, 2048, Note_on_c, 0, 76, 75
2, 2063, Note_on_c, 0, 76, 0
2, 2064, Note_on_c, 0, 74, 75
2, 2079, Note_on_c, 0, 74, 0
2, 2080, Note_on_c, 0, 72, 75
2, 2095, Note_on_c, 0, 72, 0
2, 2096, Note_on_c, 0, 74, 75
2, 2111, Note_on_c, 0, 74, 0
2, 2112, Note_on_c, 0, 77, 75
2, 2151, Note_on_c, 0, 77, 0
2, 2208, Note_on_c, 0, 77, 75
2, 2247, Note_on_c, 0, 77, 0
2, 2304, Note_on_c, 0, 77, 75
2, 2400, Note_on_c, 0, 77, 0
2, 2400, Note_on_c, 0, 76, 75
2, 2489, Note_on_c, 0, 76, 0
2, 2496, Note_on_c, 0, 72, 75
2, 2585, Note_on_c, 0, 72, 0
2, 2592, Note_on_c, 0, 72, 75
2, 2610, Note_on_c, 0, 72, 0
2, 2610, Note_on_c, 0, 71, 75
2, 2681, Note_on_c, 0, 71, 0
2, 2688, Note_on_c, 0, 71, 75
2, 2727, Note_on_c, 0, 71, 0
2, 2784, Note_on_c, 0, 71, 75
2, 2823, Note_on_c, 0, 71, 0
2, 2880, Note_on_c, 0, 72, 75
2, 2910, Note_on_c, 0, 72, 0
2, 2912, Note_on_c, 0, 76, 75
2, 2942, Note_on_c, 0, 76, 0
2, 2944, Note_on_c, 0, 74, 75
2, 2974, Note_on_c, 0, 74, 0
2, 2976, Note_on_c, 0, 72, 75
2, 3006, Note_on_c, 0, 72, 0
2, 3008, Note_on_c, 0, 71, 75
2, 3038, Note_on_c, 0, 71, 0
2, 3040, Note_on_c, 0, 69, 75
2, 3070, Note_on_c, 0, 69, 0
2, 3072, Note_on_c, 0, 67, 75
2, 3102, Note_on_c, 0, 67, 0
2, 3104, Note_on_c, 0, 65, 75
2, 3134, Note_on_c, 0, 65, 0
2, 3136, Note_on_c, 0, 64, 75
2, 3166, Note_on_c, 0, 64, 0
2, 3168, Note_on_c, 0, 65, 75
2, 3187, Note_on_c, 0, 65, 0
2, 3188, Note_on_c, 0, 67, 75
2, 3207, Note_on_c, 0, 67, 0
2, 3208, Note_on_c, 0, 65, 75
2, 3227, Note_on_c, 0, 65, 0
2, 3228, Note_on_c, 0, 67, 75
2, 3246, Note_on_c, 0, 67, 0
2, 3247, Note_on_c, 0, 65, 75
2, 3265, Note_on_c, 0, 65, 0
2, 3266, Note_on_c, 0, 67, 75
2, 3284, Note_on_c, 0, 67, 0
2, 3285, Note_on_c, 0, 65, 75
2, 3303, Note_on_c, 0, 65, 0
2, 3304, Note_on_c, 0, 67, 75
2, 3322, Note_on_c, 0, 67, 0
2, 3323, Note_on_c, 0, 65, 75
2, 3341, Note_on_c, 0, 65, 0
2, 3342, Note_on_c, 0, 67, 75
2, 3360, Note_on_c, 0, 67, 0
2, 3361, Note_on_c, 0, 65, 75
2, 3379, Note_on_c, 0, 65, 0
2, 3380, Note_on_c, 0, 67, 75
2, 3398, Note_on_c, 0, 67, 0
2, 3399, Note_on_c, 0, 65, 75
2, 3417, Note_on_c, 0, 65, 0
2, 3418, Note_on_c, 0, 64, 75
2, 3436, Note_on_c, 0, 64, 0
2, 3437, Note_on_c, 0, 65, 75
2, 3455, Note_on_c, 0, 65, 0
2, 3456, Note_on_c, 0, 64, 75
2, 3545, Note_on_c, 0, 64, 0
2, 3648, Note_on_c, 0, 79, 75
2, 3737, Note_on_c, 0, 79, 0
2, 3744, Note_on_c, 0, 81, 75
2, 3762, Note_on_c, 0, 81, 0
2, 3762, Note_on_c, 0, 79, 75
2, 3780, Note_on_c, 0, 79, 0
2, 3780, Note_on_c, 0, 78, 75
2, 3798, Note_on_c, 0, 78, 0
2, 3798, Note_on_c, 0, 79, 75
2, 3833, Note_on_c, 0, 79, 0
2, 3840, Note_on_c, 0, 76, 75
2, 3929, Note_on_c, 0, 76, 0
2, 3936, Note_on_c, 0, 79, 75
2, 4025, Note_on_c, 0, 79, 0
2, 4032, Note_on_c, 0, 81, 75
2, 4050, Note_on_c, 0, 81, 0
2, 4050, Note_on_c, 0, 79, 75
2, 4068, Note_on_c, 0, 79, 0
2, 4068, Note_on_c, 0, 78, 75
2, 4086, Note_on_c, 0, 78, 0
2, 4086, Note_on_c, 0, 79, 75
2, 4121, Note_on_c, 0, 79, 0
2, 4128, Note_on_c, 0, 84, 75
2, 4217, Note_on_c, 0, 84, 0
2, 4224, Note_on_c, 0, 79, 75
2, 4313, Note_on_c, 0, 79, 0
2, 4320, Note_on_c, 0, 79, 75
2, 4497, Note_on_c, 0, 79, 0
2, 4512, Note_on_c, 0, 79, 75
2, 4527, Note_on_c, 0, 79, 0
2, 4528, Note_on_c, 0, 77, 75
2, 4543, Note_on_c, 0, 77, 0
2, 4544, Note_on_c, 0, 79, 75
2, 4559, Note_on_c, 0, 79, 0
2, 4560, Note_on_c, 0, 77, 75
2, 4575, Note_on_c, 0, 77, 0
2, 4576, Note_on_c, 0, 79, 75
2, 4591, Note_on_c, 0, 79, 0
2, 4592, Note_on_c, 0, 77, 75
2, 4607, Note_on_c, 0, 77, 0
2, 4608, Note_on_c, 0, 76, 75
2, 4697, Note_on_c, 0, 76, 0
2, 4800, Note_on_c, 0, 72, 75
2, 4889, Note_on_c, 0, 72, 0
2, 4896, Note_on_c, 0, 72, 75
2, 4914, Note_on_c, 0, 72, 0
2, 4914, Note_on_c, 0, 71, 75
2, 4985, Note_on_c, 0, 71, 0
2, 4992, Note_on_c, 0, 71, 75
2, 5031, Note_on_c, 0, 71, 0
2, 5088, Note_on_c, 0, 71, 75
2, 5127, Note_on_c, 0, 71, 0
2, 5184, Note_on_c, 0, 74, 75
2, 5202, Note_on_c, 0, 74, 0
2, 5202, Note_on_c, 0, 72, 75
2, 5220, Note_on_c, 0, 72, 0
2, 5220, Note_on_c, 0, 71, 75
2, 5238, Note_on_c, 0, 71, 0
2, 5238, Note_on_c, 0, 72, 75
2, 5273, Note_on_c, 0, 72, 0
2, 5280, Note_on_c, 0, 76, 75
2, 5319, Note_on_c, 0, 76, 0
2, 5376, Note_on_c, 0, 76, 75
2, 5415, Note_on_c, 0, 76, 0
2, 5472, Note_on_c, 0, 76, 75
2, 5487, Note_on_c, 0, 76, 0
2, 5488, Note_on_c, 0, 74, 75
2, 5503, Note_on_c, 0, 74, 0
2, 5504, Note_on_c, 0, 76, 75
2, 5519, Note_on_c, 0, 76, 0
2, 5520, Note_on_c, 0, 74, 75
2, 5535, Note_on_c, 0, 74, 0
2, 5536, Note_on_c, 0, 72, 75
2, 5551, Note_on_c, 0, 72, 0
2, 5552, Note_on_c, 0, 74, 75
2, 5567, Note_on_c, 0, 74, 0
2, 5568, Note_on_c, 0, 77, 75
2, 5607, Note_on_c, 0, 77, 0
2, 5664, Note_on_c, 0, 77, 75
2, 5703, Note_on_c, 0, 77, 0
2, 5760, Note_on_c, 0, 77, 75
2, 5849, Note_on_c, 0, 77, 0
2, 5856, Note_on_c, 0, 76, 76
2, 5945, Note_on_c, 0, 76, 0
2, 5952, Note_on_c, 0, 76, 77
2, 6041, Note_on_c, 0, 76, 0
2, 6048, Note_on_c, 0, 77, 78
2, 6063, Note_on_c, 0, 77, 0
2, 6064, Note_on_c, 0, 76, 79
2, 6079, Note_on_c, 0, 76, 0
2, 6080, Note_on_c, 0, 77, 78
2, 6095, Note_on_c, 0, 77, 0
2, 6096, Note_on_c, 0, 76, 78
2, 6111, Note_on_c, 0, 76, 0
2, 6112, Note_on_c, 0, 74, 78
2, 6127, Note_on_c, 0, 74, 0
2, 6128, Note_on_c, 0, 76, 78
2, 6143, Note_on_c, 0, 76, 0
2, 6144, Note_on_c, 0, 84, 78
2, 6174, Note_on_c, 0, 84, 0
2, 6176, Note_on_c, 0, 83, 77
2, 6206, Note_on_c, 0, 83, 0
2, 6208, Note_on_c, 0, 81, 77
2, 6238, Note_on_c, 0, 81, 0
2, 6240, Note_on_c, 0, 79, 76
2, 6270, Note_on_c, 0, 79, 0
2, 6272, Note_on_c, 0, 78, 76
2, 6302, Note_on_c, 0, 78, 0
2, 6304, Note_on_c, 0, 76, 75
2, 6334, Note_on_c, 0, 76, 0
2, 6336, Note_on_c, 0, 74, 75
2, 6366, Note_on_c, 0, 74, 0
2, 6368, Note_on_c, 0, 79, 75
2, 6398, Note_on_c, 0, 79, 0
2, 6400, Note_on_c, 0, 78, 75
2, 6430, Note_on_c, 0, 78, 0
2, 6432, Note_on_c, 0, 79, 76
2, 6462, Note_on_c, 0, 79, 0
2, 6464, Note_on_c, 0, 83, 76
2, 6494, Note_on_c, 0, 83, 0
2, 6496, Note_on_c, 0, 81, 77
2, 6526, Note_on_c, 0, 81, 0
2, 6528, Note_on_c, 0, 79, 77
2, 6558, Note_on_c, 0, 79, 0
2, 6560, Note_on_c, 0, 78, 77
2, 6590, Note_on_c, 0, 78, 0
2, 6592, Note_on_c, 0, 76, 78
2, 6622, Note_on_c, 0, 76, 0
2, 6624, Note_on_c, 0, 74, 79
2, 6713, Note_on_c, 0, 74, 0
2, 6720, Note_on_c, 0, 74, 79
2, 6735, Note_on_c, 0, 74, 0
2, 6736, Note_on_c, 0, 72, 79
2, 6751, Note_on_c, 0, 72, 0
2, 6752, Note_on_c, 0, 74, 79
2, 6767, Note_on_c, 0, 74, 0
2, 6768, Note_on_c, 0, 72, 79
2, 6783, Note_on_c, 0, 72, 0
2, 6784, Note_on_c, 0, 71, 79
2, 6799, Note_on_c, 0, 71, 0
2, 6800, Note_on_c, 0, 72, 79
2, 6815, Note_on_c, 0, 72, 0
2, 6816, Note_on_c, 0, 71, 79
2, 6883, Note_on_c, 0, 71, 0
2, 6888, Note_on_c, 0, 79, 79
2, 6911, Note_on_c, 0, 79, 0
2, 6912, Note_on_c, 0, 74, 70
2, 7001, Note_on_c, 0, 74, 0
2, 7008, Note_on_c, 0, 74, 70
2, 7023, Note_on_c, 0, 74, 0
2, 7024, Note_on_c, 0, 72, 70
2, 7039, Note_on_c, 0, 72, 0
2, 7040, Note_on_c, 0, 74, 70
2, 7055, Note_on_c, 0, 74, 0
2, 7056, Note_on_c, 0, 72, 70
2, 7071, Note_on_c, 0, 72, 0
2, 7072, Note_on_c, 0, 71, 70
2, 7087, Note_on_c, 0, 71, 0
2, 7088, Note_on_c, 0, 72, 70
2, 7103, Note_on_c, 0, 72, 0
2, 7104, Note_on_c, 0, 71, 70
2, 7193, Note_on_c, 0, 71, 0
2, 7200, Note_on_c, 0, 69, 79
2, 7230, Note_on_c, 0, 69, 0
2, 7232, Note_on_c, 0, 72, 78
2, 7262, Note_on_c, 0, 72, 0
2, 7264, Note_on_c, 0, 76, 78
2, 7294, Note_on_c, 0, 76, 0
2, 7296, Note_on_c, 0, 67, 77
2, 7385, Note_on_c, 0, 67, 0
2, 7392, Note_on_c, 0, 67, 76
2, 7407, Note_on_c, 0, 67, 0
2, 7408, Note_on_c, 0, 66, 76
2, 7423, Note_on_c, 0, 66, 0
2, 7424, Note_on_c, 0, 67, 76
2, 7439, Note_on_c, 0, 67, 0
2, 7440, Note_on_c, 0, 66, 75
2, 7455, Note_on_c, 0, 66, 0
2, 7456, Note_on_c, 0, 64, 75
2, 7471, Note_on_c, 0, 64, 0
2, 7472, Note_on_c, 0, 66, 75
2, 7487, Note_on_c, 0, 66, 0
2, 7488, Note_on_c, 0, 67, 75
2, 7665, Note_on_c, 0, 67, 0
2, 7680, Note_on_c, 0, 74, 75
2, 7769, Note_on_c, 0, 74, 0
2, 7776, Note_on_c, 0, 74, 75
2, 7865, Note_on_c, 0, 74, 0
2, 7872, Note_on_c, 0, 84, 75
2, 7961, Note_on_c, 0, 84, 0
2, 7968, Note_on_c, 0, 84, 75
2, 8057, Note_on_c, 0, 84, 0
2, 8064, Note_on_c, 0, 84, 75
2, 8160, Note_on_c, 0, 84, 0
2, 8160, Note_on_c, 0, 83, 75
2, 8249, Note_on_c, 0, 83, 0
2, 8256, Note_on_c, 0, 81, 75
2, 8279, Note_on_c, 0, 81, 0
2, 8280, Note_on_c, 0, 79, 75
2, 8303, Note_on_c, 0, 79, 0
2, 8304, Note_on_c, 0, 78, 75
2, 8327, Note_on_c, 0, 78, 0
2, 8328, Note_on_c, 0, 76, 75
2, 8351, Note_on_c, 0, 76, 0
2, 8352, Note_on_c, 0, 74, 75
2, 8441, Note_on_c, 0, 74, 0
2, 8448, Note_on_c, 0, 84, 75
2, 8537, Note_on_c, 0, 84, 0
2, 8544, Note_on_c, 0, 84, 75
2, 8633, Note_on_c, 0, 84, 0
2, 8640, Note_on_c, 0, 83, 75
2, 8670, Note_on_c, 0, 83, 0
2, 8672, Note_on_c, 0, 81, 75
2, 8702, Note_on_c, 0, 81, 0
2, 8704, Note_on_c, 0, 79, 75
2, 8734, Note_on_c, 0, 79, 0
2, 8736, Note_on_c, 0, 78, 76
2, 8766, Note_on_c, 0, 78, 0
2, 8768, Note_on_c, 0, 79, 76
2, 8798, Note_on_c, 0, 79, 0
2, 8800, Note_on_c, 0, 81, 77
2, 8830, Note_on_c, 0, 81, 0
2, 8832, Note_on_c, 0, 79, 77
2, 8899, Note_on_c, 0, 79, 0
2, 8904, Note_on_c, 0, 74, 78
2, 8927, Note_on_c, 0, 74, 0
2, 8928, Note_on_c, 0, 78, 78
2, 8951, Note_on_c, 0, 78, 0
2, 8952, Note_on_c, 0, 76, 78
2, 8975, Note_on_c, 0, 76, 0
2, 8976, Note_on_c, 0, 74, 78
2, 8999, Note_on_c, 0, 74, 0
2, 9000, Note_on_c, 0, 72, 78
2, 9023, Note_on_c, 0, 72, 0
2, 9024, Note_on_c, 0, 71, 77
2, 9113, Note_on_c, 0, 71, 0
2, 9120, Note_on_c, 0, 71, 76
2, 9135, Note_on_c, 0, 71, 0
2, 9136, Note_on_c, 0, 69, 76
2, 9151, Note_on_c, 0, 69, 0
2, 9152, Note_on_c, 0, 71, 76
2, 9167, Note_on_c, 0, 71, 0
2, 9168, Note_on_c, 0, 69, 76
2, 9183, Note_on_c, 0, 69, 0
2, 9184, Note_on_c, 0, 67, 75
2, 9199, Note_on_c, 0, 67, 0
2, 9200, Note_on_c, 0, 69, 75
2, 9215, Note_on_c, 0, 69, 0
2, 9216, Note_on_c, 0, 83, 75
2, 9246, Note_on_c, 0, 83, 0
2, 9248, Note_on_c, 0, 81, 75
2, 9278, Note_on_c, 0, 81, 0
2, 9280, Note_on_c, 0, 79, 75
2, 9310, Note_on_c, 0, 79, 0
2, 9312, Note_on_c, 0, 78, 76
2, 9342, Note_on_c, 0, 78, 0
2, 9344, Note_on_c, 0, 79, 76
2, 9374, Note_on_c, 0, 79, 0
2, 9376, Note_on_c, 0, 81, 77
2, 9406, Note_on_c, 0, 81, 0
2, 9408, Note_on_c, 0, 79, 77
2, 9475, Note_on_c, 0, 79, 0
2, 9480, Note_on_c, 0, 74, 78
2, 9503, Note_on_c, 0, 74, 0
2, 9504, Note_on_c, 0, 78, 78
2, 9527, Note_on_c, 0, 78, 0
2, 9528, Note_on_c, 0, 76, 78
2, 9551, Note_on_c, 0, 76, 0
2, 9552, Note_on_c, 0, 74, 78
2, 9575, Note_on_c, 0, 74, 0
2, 9576, Note_on_c, 0, 72, 78
2, 9599, Note_on_c, 0, 72, 0
2, 9600, Note_on_c, 0, 71, 77
2, 9689, Note_on_c, 0, 71, 0
2, 9696, Note_on_c, 0, 71, 76
2, 9711, Note_on_c, 0, 71, 0
2, 9712, Note_on_c, 0, 69, 76
2, 9727, Note_on_c, 0, 69, 0
2, 9728, Note_on_c, 0, 71, 76
2, 9743, Note_on_c, 0, 71, 0
2, 9744, Note_on_c, 0, 69, 76
2, 9759, Note_on_c, 0, 69, 0
2, 9760, Note_on_c, 0, 67, 75
2, 9775, Note_on_c, 0, 67, 0
2, 9776, Note_on_c, 0, 69, 75
2, 9791, Note_on_c, 0, 69, 0
2, 9792, Note_on_c, 0, 67, 64
2, 9881, Note_on_c, 0, 67, 0
2, 9888, Note_on_c, 0, 74, 67
2, 9918, Note_on_c, 0, 74, 0
2, 9920, Note_on_c, 0, 71, 68
2, 9950, Note_on_c, 0, 71, 0
2, 9952, Note_on_c, 0, 67, 69
2, 9982, Note_on_c, 0, 67, 0
2, 9984, Note_on_c, 0, 72, 71
2, 10014, Note_on_c, 0, 72, 0
2, 10016, Note_on_c, 0, 69, 72
2, 10046, Note_on_c, 0, 69, 0
2, 10048, Note_on_c, 0, 66, 73
2, 10078, Note_on_c, 0, 66, 0
2, 10080, Note_on_c, 0, 67, 74
2, 10169, Note_on_c, 0, 67, 0
2, 10176, Note_on_c, 0, 74, 70
2, 10206, Note_on_c, 0, 74, 0
2, 10208, Note_on_c, 0, 71, 68
2, 10238, Note_on_c, 0, 71, 0
2, 10240, Note_on_c, 0, 67, 66
2, 10270, Note_on_c, 0, 67, 0
2, 10272, Note_on_c, 0, 72, 64
2, 10302, Note_on_c, 0, 72, 0
2, 10304, Note_on_c, 0, 69, 62
2, 10334, Note_on_c, 0, 69, 0
2, 10336, Note_on_c, 0, 66, 61
2, 10366, Note_on_c, 0, 66, 0
2, 10368, Note_on_c, 0, 67, 58
2, 10457, Note_on_c, 0, 67, 0
2, 10560, Note_on_c, 0, 79, 75
2, 10649, Note_on_c, 0, 79, 0
2, 10656, Note_on_c, 0, 81, 75
2, 10674, Note_on_c, 0, 81, 0
2, 10674, Note_on_c, 0, 79, 75
2, 10692, Note_on_c, 0, 79, 0
2, 10692, Note_on_c, 0, 78, 75
2, 10710, Note_on_c, 0, 78, 0
2, 10710, Note_on_c, 0, 79, 75
2, 10745, Note_on_c, 0, 79, 0
2, 10752, Note_on_c, 0, 76, 75
2, 10841, Note_on_c, 0, 76, 0
2, 10848, Note_on_c, 0, 79, 75
2, 10937, Note_on_c, 0, 79, 0
2, 10944, Note_on_c, 0, 81, 75
2, 10962, Note_on_c, 0, 81, 0
2, 10962, Note_on_c, 0, 79, 75
2, 10980, Note_on_c, 0, 79, 0
2, 10980, Note_on_c, 0, 78, 75
2, 10998, Note_on_c, 0, 78, 0
2, 10998, Note_on_c, 0, 79, 75
2, 11033, Note_on_c, 0, 79, 0
2, 11040, Note_on_c, 0, 84, 75
2, 11129, Note_on_c, 0, 84, 0
2, 11136, Note_on_c, 0, 79, 75
2, 11225, Note_on_c, 0, 79, 0
2, 11232, Note_on_c, 0, 79, 75
2, 11409, Note_on_c, 0, 79, 0
2, 11424, Note_on_c, 0, 79, 75
2, 11439, Note_on_c, 0, 79, 0
2, 11440, Note_on_c, 0, 77, 75
2, 11455, Note_on_c, 0, 77, 0
2, 11456, Note_on_c, 0, 79, 75
2, 11471, Note_on_c, 0, 79, 0
2, 11472, Note_on_c, 0, 77, 75
2, 11487, Note_on_c, 0, 77, 0
2, 11488, Note_on_c, 0, 79, 75
2, 11503, Note_on_c, 0, 79, 0
2, 11504, Note_on_c, 0, 77, 75
2, 11519, Note_on_c, 0, 77, 0
2, 11520, Note_on_c, 0, 76, 75
2, 11609, Note_on_c, 0, 76, 0
2, 11712, Note_on_c, 0, 72, 75
2, 11801, Note_on_c, 0, 72, 0
2, 11808, Note_on_c, 0, 72, 75
2, 11832, Note_on_c, 0, 72, 0
2, 11832, Note_on_c, 0, 71, 75
2, 11897, Note_on_c, 0, 71, 0
2, 11904, Note_on_c, 0, 71, 75
2, 11943, Note_on_c, 0, 71, 0
2, 12000, Note_on_c, 0, 71, 75
2, 12039, Note_on_c, 0, 71, 0
2, 12096, Note_on_c, 0, 74, 75
2, 12114, Note_on_c, 0, 74, 0
2, 12114, Note_on_c, 0, 72, 75
2, 12132, Note_on_c, 0, 72, 0
2, 12132, Note_on_c, 0, 71, 75
2, 12150, Note_on_c, 0, 71, 0
2, 12150, Note_on_c, 0, 72, 75
2, 12185, Note_on_c, 0, 72, 0
2, 12192, Note_on_c, 0, 76, 75
2, 12231, Note_on_c, 0, 76, 0
2, 12288, Note_on_c, 0, 76, 75
2, 12327, Note_on_c, 0, 76, 0
2, 12384, Note_on_c, 0, 76, 75
2, 12399, Note_on_c, 0, 76, 0
2, 12400, Note_on_c, 0, 74, 75
2, 12415, Note_on_c, 0, 74, 0
2, 12416, Note_on_c, 0, 76, 75
2, 12431, Note_on_c, 0, 76, 0
2, 12432, Note_on_c, 0, 74, 75
2, 12447, Note_on_c, 0, 74, 0
2, 12448, Note_on_c, 0, 72, 75
2, 12463, Note_on_c, 0, 72, 0
2, 12464, Note_on_c, 0, 74, 75
2, 12479, Note_on_c, 0, 74, 0
2, 12480, Note_on_c, 0, 77, 75
2, 12519, Note_on_c, 0, 77, 0
2, 12576, Note_on_c, 0, 77, 75
2, 12615, Note_on_c, 0, 77, 0
2, 12672, Note_on_c, 0, 77, 75
2, 12768, Note_on_c, 0, 77, 0
2, 12768, Note_on_c, 0, 76, 75
2, 12857, Note_on_c, 0, 76, 0
2, 12864, Note_on_c, 0, 72, 75
2, 12953, Note_on_c, 0, 72, 0
2, 12960, Note_on_c, 0, 72, 75
2, 12978, Note_on_c, 0, 72, 0
2, 12978, Note_on_c, 0, 71, 75
2, 13049, Note_on_c, 0, 71, 0
2, 13056, Note_on_c, 0, 71, 75
2, 13095, Note_on_c, 0, 71, 0
2, 13152, Note_on_c, 0, 71, 75
2, 13191, Note_on_c, 0, 71, 0
2, 13248, Note_on_c, 0, 72, 75
2, 13278, Note_on_c, 0, 72, 0
2, 13280, Note_on_c, 0, 76, 75
2, 13310, Note_on_c, 0, 76, 0
2, 13312, Note_on_c, 0, 74, 75
2, 13342, Note_on_c, 0, 74, 0
2, 13344, Note_on_c, 0, 72, 75
2, 13374, Note_on_c, 0, 72, 0
2, 13376, Note_on_c, 0, 71, 75
2, 13406, Note_on_c, 0, 71, 0
2, 13408, Note_on_c, 0, 69, 75
2, 13438, Note_on_c, 0, 69, 0
2, 13440, Note_on_c, 0, 67, 75
2, 13470, Note_on_c, 0, 67, 0
2, 13472, Note_on_c, 0, 65, 75
2, 13502, Note_on_c, 0, 65, 0
2, 13504, Note_on_c, 0, 64, 75
2, 13534, Note_on_c, 0, 64, 0
2, 13536, Note_on_c, 0, 65, 75
2, 13555, Note_on_c, 0, 65, 0
2, 13556, Note_on_c, 0, 67, 75
2, 13575, Note_on_c, 0, 67, 0
2, 13576, Note_on_c, 0, 65, 75
2, 13595, Note_on_c, 0, 65, 0
2, 13596, Note_on_c, 0, 67, 75
2, 13614, Note_on_c, 0, 67, 0
2, 13615, Note_on_c, 0, 65, 75
2, 13633, Note_on_c, 0, 65, 0
2, 13634, Note_on_c, 0, 67, 75
2, 13652, Note_on_c, 0, 67, 0
2, 13653, Note_on_c, 0, 65, 75
2, 13671, Note_on_c, 0, 65, 0
2, 13672, Note_on_c, 0, 67, 75
2, 13690, Note_on_c, 0, 67, 0
2, 13691, Note_on_c, 0, 65, 75
2, 13709, Note_on_c, 0, 65, 0
2, 13710, Note_on_c, 0, 67, 75
2, 13728, Note_on_c, 0, 67, 0
2, 13729, Note_on_c, 0, 65, 75
2, 13747, Note_on_c, 0, 65, 0
2, 13748, Note_on_c, 0, 67, 75
2, 13766, Note_on_c, 0, 67, 0
2, 13767, Note_on_c, 0, 65, 75
2, 13785, Note_on_c, 0, 65, 0
2, 13786, Note_on_c, 0, 64, 75
2, 13804, Note_on_c, 0, 64, 0
2, 13805, Note_on_c, 0, 65, 75
2, 13823, Note_on_c, 0, 65, 0
2, 13824, Note_on_c, 0, 64, 75
2, 13913, Note_on_c, 0, 64, 0
2, 14016, Note_on_c, 0, 79, 75
2, 14105, Note_on_c, 0, 79, 0
2, 14112, Note_on_c, 0, 81, 75
2, 14130, Note_on_c, 0, 81, 0
2, 14130, Note_on_c, 0, 79, 75
2, 14148, Note_on_c, 0, 79, 0
2, 14148, Note_on_c, 0, 78, 75
2, 14166, Note_on_c, 0, 78, 0
2, 14166, Note_on_c, 0, 79, 75
2, 14201, Note_on_c, 0, 79, 0
2, 14208, Note_on_c, 0, 76, 75
2, 14297, Note_on_c, 0, 76, 0
2, 14304, Note_on_c, 0, 79, 75
2, 14393, Note_on_c, 0, 79, 0
2, 14400, Note_on_c, 0, 81, 75
2, 14418, Note_on_c, 0, 81, 0
2, 14418, Note_on_c, 0, 79, 75
2, 14436, Note_on_c, 0, 79, 0
2, 14436, Note_on_c, 0, 78, 75
2, 14454, Note_on_c, 0, 78, 0
2, 14454, Note_on_c, 0, 79, 75
2, 14489, Note_on_c, 0, 79, 0
2, 14496, Note_on_c, 0, 84, 75
2, 14585, Note_on_c, 0, 84, 0
2, 14592, Note_on_c, 0, 79, 75
2, 14681, Note_on_c, 0, 79, 0
2, 14688, Note_on_c, 0, 79, 75
2, 14865, Note_on_c, 0, 79, 0
2, 14880, Note_on_c, 0, 79, 75
2, 14895, Note_on_c, 0, 79, 0
2, 14896, Note_on_c, 0, 77, 75
2, 14911, Note_on_c, 0, 77, 0
2, 14912, Note_on_c, 0, 79, 75
2, 14927, Note_on_c, 0, 79, 0
2, 14928, Note_on_c, 0, 77, 75
2, 14943, Note_on_c, 0, 77, 0
2, 14944, Note_on_c, 0, 79, 75
2, 14959, Note_on_c, 0, 79, 0
2, 14960, Note_on_c, 0, 77, 75
2, 14975, Note_on_c, 0, 77, 0
2, 14976, Note_on_c, 0, 76, 75
2, 15065, Note_on_c, 0, 76, 0
2, 15168, Note_on_c, 0, 72, 75
2, 15257, Note_on_c, 0, 72, 0
2, 15264, Note_on_c, 0, 72, 75
2, 15282, Note_on_c, 0, 72, 0
2, 15282, Note_on_c, 0, 71, 75
2, 15353, Note_on_c, 0, 71, 0
2, 15360, Note_on_c, 0, 71, 75
2, 15399, Note_on_c, 0, 71, 0
2, 15456, Note_on_c, 0, 71, 75
2, 15495, Note_on_c, 0, 71, 0
2, 15552, Note_on_c, 0, 74, 75
2, 15570, Note_on_c, 0, 74, 0
2, 15570, Note_on_c, 0, 72, 75
2, 15588, Note_on_c, 0, 72, 0
2, 15588, Note_on_c, 0, 71, 75
2, 15606, Note_on_c, 0, 71, 0
2, 15606, Note_on_c, 0, 72, 75
2, 15641, Note_on_c, 0, 72, 0
2, 15648, Note_on_c, 0, 76, 75
2, 15687, Note_on_c, 0, 76, 0
2, 15744, Note_on_c, 0, 76, 75
2, 15783, Note_on_c, 0, 76, 0
2, 15840, Note_on_c, 0, 76, 75
2, 15855, Note_on_c, 0, 76, 0
2, 15856, Note_on_c, 0, 74, 75
2, 15871, Note_on_c, 0, 74, 0
2, 15872, Note_on_c, 0, 76, 75
2, 15887, Note_on_c, 0, 76, 0
2, 15888, Note_on_c, 0, 74, 75
2, 15903, Note_on_c, 0, 74, 0
2, 15904, Note_on_c, 0, 72, 75
2, 15919, Note_on_c, 0, 72, 0
2, 15920, Note_on_c, 0, 74, 75
2, 15935, Note_on_c, 0, 74, 0
2, 15936, Note_on_c, 0, 77, 75
2, 15975, Note_on_c, 0, 77, 0
2, 16032, Note_on_c, 0, 77, 75
2, 16071, Note_on_c, 0, 77, 0
2, 16128, Note_on_c, 0, 77, 75
2, 16217, Note_on_c, 0, 77, 0
2, 16224, Note_on_c, 0, 76, 76
2, 16313, Note_on_c, 0, 76, 0
2, 16320, Note_on_c, 0, 76, 77
2, 16409, Note_on_c, 0, 76, 0
2, 16416, Note_on_c, 0, 77, 78
2, 16431, Note_on_c, 0, 77, 0
2, 16432, Note_on_c, 0, 76, 79
2, 16447, Note_on_c, 0, 76, 0
2, 16448, Note_on_c, 0, 77, 78
2, 16463, Note_on_c, 0, 77, 0
2, 16464, Note_on_c, 0, 76, 78
2, 16479, Note_on_c, 0, 76, 0
2, 16480, Note_on_c, 0, 74, 78
2, 16495, Note_on_c, 0, 74, 0
2, 16496, Note_on_c, 0, 76, 78
2, 16511, Note_on_c, 0, 76, 0
2, 16512, Note_on_c, 0, 84, 78
2, 16542, Note_on_c, 0, 84, 0
2, 16544, Note_on_c, 0, 83, 77
2, 16574, Note_on_c, 0, 83, 0
2, 16576, Note_on_c, 0, 81, 77
2, 16606, Note_on_c, 0, 81, 0
2, 16608, Note_on_c, 0, 79, 76
2, 16638, Note_on_c, 0, 79, 0
2, 16640, Note_on_c, 0, 78, 76
2, 16670, Note_on_c, 0, 78, 0
2, 16672, Note_on_c, 0, 76, 75
2, 16702, Note_on_c, 0, 76, 0
2, 16704, Note_on_c, 0, 74, 75
2, 16734, Note_on_c, 0, 74, 0
2, 16736, Note_on_c, 0, 79, 75
2, 16766, Note_on_c, 0, 79, 0
2, 16768, Note_on_c, 0, 78, 75
2, 16798, Note_on_c, 0, 78, 0
2, 16800, Note_on_c, 0, 79, 76
2, 16830, Note_on_c, 0, 79, 0
2, 16832, Note_on_c, 0, 83, 76
2, 16862, Note_on_c, 0, 83, 0
2, 16864, Note_on_c, 0, 81, 77
2, 16894, Note_on_c, 0, 81, 0
2, 16896, Note_on_c, 0, 79, 77
2, 16926, Note_on_c, 0, 79, 0
2, 16928, Note_on_c, 0, 78, 77
2, 16958, Note_on_c, 0, 78, 0
2, 16960, Note_on_c, 0, 76, 78
2, 16990, Note_on_c, 0, 76, 0
2, 16992, Note_on_c, 0, 74, 79
2, 17081, Note_on_c, 0, 74, 0
2, 17088, Note_on_c, 0, 74, 79
2, 17103, Note_on_c, 0, 74, 0
2, 17104, Note_on_c, 0, 72, 79
2, 17119, Note_on_c, 0, 72, 0
2, 17120, Note_on_c, 0, 74, 79
2, 17135, Note_on_c, 0, 74, 0
2, 17136, Note_on_c, 0, 72, 79
2, 17151, Note_on_c, 0, 72, 0
2, 17152, Note_on_c, 0, 71, 79
2, 17167, Note_on_c, 0, 71, 0
2, 17168, Note_on_c, 0, 72, 79
2, 17183, Note_on_c, 0, 72, 0
2, 17184, Note_on_c, 0, 71, 79
2, 17251, Note_on_c, 0, 71, 0
2, 17256, Note_on_c, 0, 79, 79
2, 17279, Note_on_c, 0, 79, 0
2, 17280, Note_on_c, 0, 74, 70
2, 17369, Note_on_c, 0, 74, 0
2, 17376, Note_on_c, 0, 74, 70
2, 17391, Note_on_c, 0, 74, 0
2, 17392, Note_on_c, 0, 72, 70
2, 17407, Note_on_c, 0, 72, 0
2, 17408, Note_on_c, 0, 74, 70
2, 17423, Note_on_c, 0, 74, 0
2, 17424, Note_on_c, 0, 72, 70
2, 17439, Note_on_c, 0, 72, 0
2, 17440, Note_on_c, 0, 71, 70
2, 17455, Note_on_c, 0, 71, 0
2, 17456, Note_on_c, 0, 72, 70
2, 17471, Note_on_c, 0, 72, 0
2, 17472, Note_on_c, 0, 71, 70
2, 17561, Note_on_c, 0, 71, 0
2, 17568, Note_on_c, 0, 69, 79
2, 17598, Note_on_c, 0, 69, 0
2, 17600, Note_on_c, 0, 72, 78
2, 17630, Note_on_c, 0, 72, 0
2, 17632, Note_on_c, 0, 76, 78
2, 17662, Note_on_c, 0, 76, 0
2, 17664, Note_on_c, 0, 67, 77
2, 17753, Note_on_c, 0, 67, 0
2, 17760, Note_on_c, 0, 67, 76
2, 17775, Note_on_c, 0, 67, 0
2, 17776, Note_on_c, 0, 66, 76
2, 17791, Note_on_c, 0, 66, 0
2, 17792, Note_on_c, 0, 67, 76
2, 17807, Note_on_c, 0, 67, 0
2, 17808, Note_on_c, 0, 66, 75
2, 17823, Note_on_c, 0, 66, 0
2, 17824, Note_on_c, 0, 64, 75
2, 17839, Note_on_c, 0, 64, 0
2, 17840, Note_on_c, 0, 66, 75
2, 17855, Note_on_c, 0, 66, 0
2, 17856, Note_on_c, 0, 67, 75
2, 18033, Note_on_c, 0, 67, 0
2, 18048, Note_on_c, 0, 74, 75
2, 18137, Note_on_c, 0, 74, 0
2, 18144, Note_on_c, 0, 74, 75
2, 18233, Note_on_c, 0, 74, 0
2, 18240, Note_on_c, 0, 84, 75
2, 18329, Note_on_c, 0, 84, 0
2, 18336, Note_on_c, 0, 84, 75
2, 18425, Note_on_c, 0, 84, 0
2, 18432, Note_on_c, 0, 84, 75
2, 18528, Note_on_c, 0, 84, 0
2, 18528, Note_on_c, 0, 83, 75
2, 18617, Note_on_c, 0, 83, 0
2, 18624, Note_on_c, 0, 81, 75
2, 18647, Note_on_c, 0, 81, 0
2, 18648, Note_on_c, 0, 79, 75
2, 18671, Note_on_c, 0, 79, 0
2, 18672, Note_on_c, 0, 78, 75
2, 18695, Note_on_c, 0, 78, 0
2, 18696, Note_on_c, 0, 76, 75
2, 18719, Note_on_c, 0, 76, 0
2, 18720, Note_on_c, 0, 74, 75
2, 18809, Note_on_c, 0, 74, 0
2, 18816, Note_on_c, 0, 84, 75
2, 18905, Note_on_c, 0, 84, 0
2, 18912, Note_on_c, 0, 84, 75
2, 19001, Note_on_c, 0, 84, 0
2, 19008, Note_on_c, 0, 83, 75
2, 19038, Note_on_c, 0, 83, 0
2, 19040, Note_on_c, 0, 81, 75
2, 19070, Note_on_c, 0, 81, 0
2, 19072, Note_on_c, 0, 79, 75
2, 19102, Note_on_c, 0, 79, 0
2, 19104, Note_on_c, 0, 78, 76
2, 19134, Note_on_c, 0, 78, 0
2, 19136, Note_on_c, 0, 79, 76
2, 19166, Note_on_c, 0, 79, 0
2, 19168, Note_on_c, 0, 81, 77
2, 19198, Note_on_c, 0, 81, 0
2, 19200, Note_on_c, 0, 79, 77
2, 19267, Note_on_c, 0, 79, 0
2, 19272, Note_on_c, 0, 74, 78
2, 19295, Note_on_c, 0, 74, 0
2, 19296, Note_on_c, 0, 78, 78
2, 19319, Note_on_c, 0, 78, 0
2, 19320, Note_on_c, 0, 76, 78
2, 19343, Note_on_c, 0, 76, 0
2, 19344, Note_on_c, 0, 74, 78
2, 19367, Note_on_c, 0, 74, 0
2, 19368, Note_on_c, 0, 72, 78
2, 19391, Note_on_c, 0, 72, 0
2, 19392, Note_on_c, 0, 71, 77
2, 19481, Note_on_c, 0, 71, 0
2, 19488, Note_on_c, 0, 71, 76
2, 19503, Note_on_c, 0, 71, 0
2, 19504, Note_on_c, 0, 69, 76
2, 19519, Note_on_c, 0, 69, 0
2, 19520, Note_on_c, 0, 71, 76
2, 19535, Note_on_c, 0, 71, 0
2, 19536, Note_on_c, 0, 69, 76
2, 19551, Note_on_c, 0, 69, 0
2, 19552, Note_on_c, 0, 67, 75
2, 19567, Note_on_c, 0, 67, 0
2, 19568, Note_on_c, 0, 69, 75
2, 19583, Note_on_c, 0, 69, 0
2, 19584, Note_on_c, 0, 83, 75
2, 19614, Note_on_c, 0, 83, 0
2, 19616, Note_on_c, 0, 81, 75
2, 19646, Note_on_c, 0, 81, 0
2, 19648, Note_on_c, 0, 79, 75
2, 19678, Note_on_c, 0, 79, 0
2, 19680, Note_on_c, 0, 78, 76
2, 19710, Note_on_c, 0, 78, 0
2, 19712, Note_on_c, 0, 79, 76
2, 19742, Note_on_c, 0, 79, 0
2, 19744, Note_on_c, 0, 81, 77
2, 19774, Note_on_c, 0, 81, 0
2, 19776, Note_on_c, 0, 79, 77
2, 19843, Note_on_c, 0, 79, 0
2, 19848, Note_on_c, 0, 74, 78
2, 19871, Note_on_c, 0, 74, 0
2, 19872, Note_on_c, 0, 78, 78
2, 19895, Note_on_c, 0, 78, 0
2, 19896, Note_on_c, 0, 76, 78
2, 19919, Note_on_c, 0, 76, 0
2, 19920, Note_on_c, 0, 74, 78
2, 19943, Note_on_c, 0, 74, 0
2, 19944, Note_on_c, 0, 72, 78
2, 19967, Note_on_c, 0, 72, 0
2, 19968, Note_on_c, 0, 71, 77
2, 20057, Note_on_c, 0, 71, 0
2, 20064, Note_on_c, 0, 71, 76
2, 20079, Note_on_c, 0, 71, 0
2, 20080, Note_on_c, 0, 69, 76
2, 20095, Note_on_c, 0, 69, 0
2, 20096, Note_on_c, 0, 71, 76
2, 20111, Note_on_c, 0, 71, 0
2, 20112, Note_on_c, 0, 69, 76
2, 20127, Note_on_c, 0, 69, 0
2, 20128, Note_on_c, 0, 67, 75
2, 20143, Note_on_c, 0, 67, 0
2, 20144, Note_on_c, 0, 69, 75
2, 20159, Note_on_c, 0, 69, 0
2, 20160, Note_on_c, 0, 67, 64
2, 20249, Note_on_c, 0, 67, 0
2, 20256, Note_on_c, 0, 74, 67
2, 20286, Note_on_c, 0, 74, 0
2, 20288, Note_on_c, 0, 71, 68
2, 20318, Note_on_c, 0, 71, 0
2, 20320, Note_on_c, 0, 67, 69
2, 20350, Note_on_c, 0, 67, 0
2, 20352, Note_on_c, 0, 72, 71
2, 20382, Note_on_c, 0, 72, 0
2, 20384, Note_on_c, 0, 69, 72
2, 20414, Note_on_c, 0, 69, 0
2, 20416, Note_on_c, 0, 66, 73
2, 20446, Note_on_c, 0, 66, 0
2, 20448, Note_on_c, 0, 67, 74
2, 20537, Note_on_c, 0, 67, 0
2, 20544, Note_on_c, 0, 74, 70
2, 20574, Note_on_c, 0, 74, 0
2, 20576, Note_on_c, 0, 71, 68
2, 20606, Note_on_c, 0, 71, 0
2, 20608, Note_on_c, 0, 67, 66
2, 20638, Note_on_c, 0, 67, 0
2, 20640, Note_on_c, 0, 72, 64
2, 20670, Note_on_c, 0, 72, 0
2, 20672, Note_on_c, 0, 69, 62
2, 20702, Note_on_c, 0, 69, 0
2, 20704, Note_on_c, 0, 66, 61
2, 20734, Note_on_c, 0, 66, 0
2, 20736, Note_on_c, 0, 67, 58
2, 20825, Note_on_c, 0, 67, 0
2, 20928, Note_on_c, 0, 74, 75
2, 21017, Note_on_c, 0, 74, 0
2, 21024, Note_on_c, 0, 76, 75
2, 21042, Note_on_c, 0, 76, 0
2, 21042, Note_on_c, 0, 74, 75
2, 21060, Note_on_c, 0, 74, 0
2, 21060, Note_on_c, 0, 73, 75
2, 21078, Note_on_c, 0, 73, 0
2, 21078, Note_on_c, 0, 74, 75
2, 21113, Note_on_c, 0, 74, 0
2, 21120, Note_on_c, 0, 71, 75
2, 21209, Note_on_c, 0, 71, 0
2, 21216, Note_on_c, 0, 74, 75
2, 21305, Note_on_c, 0, 74, 0
2, 21312, Note_on_c, 0, 76, 75
2, 21330, Note_on_c, 0, 76, 0
2, 21330, Note_on_c, 0, 74, 75
2, 21348, Note_on_c, 0, 74, 0
2, 21348, Note_on_c, 0, 73, 75
2, 21366, Note_on_c, 0, 73, 0
2, 21366, Note_on_c, 0, 74, 75
2, 21401, Note_on_c, 0, 74, 0
2, 21408, Note_on_c, 0, 79, 75
2, 21497, Note_on_c, 0, 79, 0
2, 21504, Note_on_c, 0, 74, 75
2, 21593, Note_on_c, 0, 74, 0
2, 21600, Note_on_c, 0, 74, 75
2, 21777, Note_on_c, 0, 74, 0
2, 21792, Note_on_c, 0, 74, 75
2, 21807, Note_on_c, 0, 74, 0
2, 21808, Note_on_c, 0, 72, 75
2, 21823, Note_on_c, 0, 72, 0
2, 21824, Note_on_c, 0, 74, 75
2, 21839, Note_on_c, 0, 74, 0
2, 21840, Note_on_c, 0, 72, 75
2, 21855, Note_on_c, 0, 72, 0
2, 21856, Note_on_c, 0, 74, 75
2, 21871, Note_on_c, 0, 74, 0
2, 21872, Note_on_c, 0, 72, 75
2, 21887, Note_on_c, 0, 72, 0
2, 21888, Note_on_c, 0, 71, 75
2, 21977, Note_on_c, 0, 71, 0
2, 22080, Note_on_c, 0, 67, 75
2, 22169, Note_on_c, 0, 67, 0
2, 22176, Note_on_c, 0, 67, 75
2, 22194, Note_on_c, 0, 67, 0
2, 22194, Note_on_c, 0, 66, 75
2, 22265, Note_on_c, 0, 66, 0
2, 22272, Note_on_c, 0, 66, 75
2, 22311, Note_on_c, 0, 66, 0
2, 22368, Note_on_c, 0, 66, 75
2, 22407, Note_on_c, 0, 66, 0
2, 22464, Note_on_c, 0, 67, 75
2, 22553, Note_on_c, 0, 67, 0
2, 22560, Note_on_c, 0, 71, 75
2, 22599, Note_on_c, 0, 71, 0
2, 22656, Note_on_c, 0, 71, 75
2, 22695, Note_on_c, 0, 71, 0
2, 22752, Note_on_c, 0, 71, 75
2, 22767, Note_on_c, 0, 71, 0
2, 22768, Note_on_c, 0, 69, 75
2, 22783, Note_on_c, 0, 69, 0
2, 22784, Note_on_c, 0, 71, 75
2, 22799, Note_on_c, 0, 71, 0
2, 22800, Note_on_c, 0, 69, 75
2, 22815, Note_on_c, 0, 69, 0
2, 22816, Note_on_c, 0, 67, 75
2, 22831, Note_on_c, 0, 67, 0
2, 22832, Note_on_c, 0, 69, 75
2, 22847, Note_on_c, 0, 69, 0
2, 22848, Note_on_c, 0, 72, 75
2, 22887, Note_on_c, 0, 72, 0
2, 22944, Note_on_c, 0, 72, 75
2, 22983, Note_on_c, 0, 72, 0
2, 23040, Note_on_c, 0, 72, 75
2, 23136, Note_on_c, 0, 72, 0
2, 23136, Note_on_c, 0, 71, 75
2, 23225, Note_on_c, 0, 71, 0
2, 23232, Note_on_c, 0, 72, 75
2, 23321, Note_on_c, 0, 72, 0
2, 23328, Note_on_c, 0, 72, 75
2, 23346, Note_on_c, 0, 72, 0
2, 23346, Note_on_c, 0, 71, 75
2, 23417, Note_on_c, 0, 71, 0
2, 23424, Note_on_c, 0, 71, 75
2, 23463, Note_on_c, 0, 71, 0
2, 23520, Note_on_c, 0, 71, 75
2, 23559, Note_on_c, 0, 71, 0
2, 23616, Note_on_c, 0, 74, 75
2, 23634, Note_on_c, 0, 74, 0
2, 23634, Note_on_c, 0, 72, 75
2, 23652, Note_on_c, 0, 72, 0
2, 23652, Note_on_c, 0, 71, 75
2, 23670, Note_on_c, 0, 71, 0
2, 23670, Note_on_c, 0, 72, 75
2, 23705, Note_on_c, 0, 72, 0
2, 23712, Note_on_c, 0, 76, 75
2, 23751, Note_on_c, 0, 76, 0
2, 23808, Note_on_c, 0, 76, 75
2, 23847, Note_on_c, 0, 76, 0
2, 23904, Note_on_c, 0, 76, 75
2, 23919, Note_on_c, 0, 76, 0
2, 23920, Note_on_c, 0, 74, 75
2, 23935, Note_on_c, 0, 74, 0
2, 23936, Note_on_c, 0, 76, 75
2, 23951, Note_on_c, 0, 76, 0
2, 23952, Note_on_c, 0, 74, 75
2, 23967, Note_on_c, 0, 74, 0
2, 23968, Note_on_c, 0, 72, 75
2, 23983, Note_on_c, 0, 72, 0
2, 23984, Note_on_c, 0, 74, 75
2, 23999, Note_on_c, 0, 74, 0
2, 24000, Note_on_c, 0, 77, 75
2, 24039, Note_on_c, 0, 77, 0
2, 24096, Note_on_c, 0, 77, 75
2, 24135, Note_on_c, 0, 77, 0
2, 24192, Note_on_c, 0, 77, 75
2, 24288, Note_on_c, 0, 77, 0
2, 24288, Note_on_c, 0, 76, 75
2, 24377, Note_on_c, 0, 76, 0
2, 24384, Note_on_c, 0, 76, 75
2, 24473, Note_on_c, 0, 76, 0
2, 24480, Note_on_c, 0, 77, 75
2, 24495, Note_on_c, 0, 77, 0
2, 24496, Note_on_c, 0, 76, 75
2, 24511, Note_on_c, 0, 76, 0
2, 24512, Note_on_c, 0, 77, 75
2, 24527, Note_on_c, 0, 77, 0
2, 24528, Note_on_c, 0, 76, 75
2, 24543, Note_on_c, 0, 76, 0
2, 24544, Note_on_c, 0, 74, 75
2, 24559, Note_on_c, 0, 74, 0
2, 24560, Note_on_c, 0, 76, 75
2, 24575, Note_on_c, 0, 76, 0
2, 24576, Note_on_c, 0, 79, 75
2, 24665, Note_on_c, 0, 79, 0
2, 24672, Note_on_c, 0, 79, 75
2, 24761, Note_on_c, 0, 79, 0
2, 24768, Note_on_c, 0, 79, 75
2, 24783, Note_on_c, 0, 79, 0
2, 24784, Note_on_c, 0, 77, 75
2, 24799, Note_on_c, 0, 77, 0
2, 24800, Note_on_c, 0, 79, 75
2, 24815, Note_on_c, 0, 79, 0
2, 24816, Note_on_c, 0, 77, 75
2, 24831, Note_on_c, 0, 77, 0
2, 24832, Note_on_c, 0, 76, 75
2, 24847, Note_on_c, 0, 76, 0
2, 24848, Note_on_c, 0, 77, 75
2, 24863, Note_on_c, 0, 77, 0
2, 24864, Note_on_c, 0, 81, 75
2, 24953, Note_on_c, 0, 81, 0
2, 24960, Note_on_c, 0, 81, 75
2, 25049, Note_on_c, 0, 81, 0
2, 25056, Note_on_c, 0, 81, 75
2, 25071, Note_on_c, 0, 81, 0
2, 25072, Note_on_c, 0, 79, 75
2, 25087, Note_on_c, 0, 79, 0
2, 25088, Note_on_c, 0, 81, 75
2, 25103, Note_on_c, 0, 81, 0
2, 25104, Note_on_c, 0, 79, 75
2, 25119, Note_on_c, 0, 79, 0
2, 25120, Note_on_c, 0, 77, 75
2, 25135, Note_on_c, 0, 77, 0
2, 25136, Note_on_c, 0, 79, 75
2, 25151, Note_on_c, 0, 79, 0
2, 25152, Note_on_c, 0, 82, 75
2, 25241, Note_on_c, 0, 82, 0
2, 25248, Note_on_c, 0, 82, 75
2, 25337, Note_on_c, 0, 82, 0
2, 25344, Note_on_c, 0, 82, 75
2, 25440, Note_on_c, 0, 82, 0
2, 25440, Note_on_c, 0, 81, 75
2, 25529, Note_on_c, 0, 81, 0
2, 25536, Note_on_c, 0, 69, 75
2, 25625, Note_on_c, 0, 69, 0
2, 25632, Note_on_c, 0, 70, 75
2, 25650, Note_on_c, 0, 70, 0
2, 25650, Note_on_c, 0, 69, 75
2, 25668, Note_on_c, 0, 69, 0
2, 25668, Note_on_c, 0, 68, 75
2, 25686, Note_on_c, 0, 68, 0
2, 25686, Note_on_c, 0, 69, 75
2, 25721, Note_on_c, 0, 69, 0
2, 25728, Note_on_c, 0, 79, 75
2, 25817, Note_on_c, 0, 79, 0
2, 25824, Note_on_c, 0, 79, 75
2, 25913, Note_on_c, 0, 79, 0
2, 25920, Note_on_c, 0, 79, 75
2, 26009, Note_on_c, 0, 79, 0
2, 26016, Note_on_c, 0, 77, 75
2, 26105, Note_on_c, 0, 77, 0
2, 26112, Note_on_c, 0, 69, 75
2, 26201, Note_on_c, 0, 69, 0
2, 26208, Note_on_c, 0, 69, 75
2, 26226, Note_on_c, 0, 69, 0
2, 26226, Note_on_c, 0, 67, 75
2, 26244, Note_on_c, 0, 67, 0
2, 26244, Note_on_c, 0, 66, 75
2, 26262, Note_on_c, 0, 66, 0
2, 26262, Note_on_c, 0, 67, 75
2, 26297, Note_on_c, 0, 67, 0
2, 26304, Note_on_c, 0, 77, 75
2, 26393, Note_on_c, 0, 77, 0
2, 26400, Note_on_c, 0, 77, 75
2, 26489, Note_on_c, 0, 77, 0
2, 26496, Note_on_c, 0, 76, 75
2, 26526, Note_on_c, 0, 76, 0
2, 26528, Note_on_c, 0, 74, 75
2, 26558, Note_on_c, 0, 74, 0
2, 26560, Note_on_c, 0, 72, 75
2, 26590, Note_on_c, 0, 72, 0
2, 26592, Note_on_c, 0, 79, 75
2, 26622, Note_on_c, 0, 79, 0
2, 26624, Note_on_c, 0, 77, 75
2, 26654, Note_on_c, 0, 77, 0
2, 26656, Note_on_c, 0, 76, 75
2, 26686, Note_on_c, 0, 76, 0
2, 26688, Note_on_c, 0, 74, 75
2, 26718, Note_on_c, 0, 74, 0
2, 26720, Note_on_c, 0, 72, 75
2, 26750, Note_on_c, 0, 72, 0
2, 26752, Note_on_c, 0, 71, 75
2, 26782, Note_on_c, 0, 71, 0
2, 26784, Note_on_c, 0, 69, 75
2, 26814, Note_on_c, 0, 69, 0
2, 26816, Note_on_c, 0, 77, 75
2, 26846, Note_on_c, 0, 77, 0
2, 26848, Note_on_c, 0, 79, 75
2, 26878, Note_on_c, 0, 79, 0
2, 26880, Note_on_c, 0, 81, 75
2, 26910, Note_on_c, 0, 81, 0
2, 26912, Note_on_c, 0, 79, 75
2, 26942, Note_on_c, 0, 79, 0
2, 26944, Note_on_c, 0, 77, 75
2, 26974, Note_on_c, 0, 77, 0
2, 26976, Note_on_c, 0, 76, 75
2, 27006, Note_on_c, 0, 76, 0
2, 27008, Note_on_c, 0, 74, 75
2, 27038, Note_on_c, 0, 74, 0
2, 27040, Note_on_c, 0, 72, 75
2, 27070, Note_on_c, 0, 72, 0
2, 27072, Note_on_c, 0, 72, 75
2, 27168, Note_on_c, 0, 72, 0
2, 27168, Note_on_c, 0, 71, 75
2, 27257, Note_on_c, 0, 71, 0
2, 27264, Note_on_c, 0, 79, 75
2, 27353, Note_on_c, 0, 79, 0
2, 27360, Note_on_c, 0, 80, 75
2, 27378, Note_on_c, 0, 80, 0
2, 27378, Note_on_c, 0, 79, 75
2, 27396, Note_on_c, 0, 79, 0
2, 27396, Note_on_c, 0, 78, 75
2, 27414, Note_on_c, 0, 78, 0
2, 27414, Note_on_c, 0, 79, 75
2, 27449, Note_on_c, 0, 79, 0
2, 27456, Note_on_c, 0, 75, 75
2, 27545, Note_on_c, 0, 75, 0
2, 27552, Note_on_c, 0, 79, 75
2, 27641, Note_on_c, 0, 79, 0
2, 27648, Note_on_c, 0, 80, 75
2, 27666, Note_on_c, 0, 80, 0
2, 27666, Note_on_c, 0, 79, 75
2, 27684, Note_on_c, 0, 79, 0
2, 27684, Note_on_c, 0, 78, 75
2, 27702, Note_on_c, 0, 78, 0
2, 27702, Note_on_c, 0, 79, 75
2, 27737, Note_on_c, 0, 79, 0
2, 27744, Note_on_c, 0, 74, 75
2, 27833, Note_on_c, 0, 74, 0
2, 27840, Note_on_c, 0, 77, 75
2, 27929, Note_on_c, 0, 77, 0
2, 27936, Note_on_c, 0, 75, 75
2, 27966, Note_on_c, 0, 75, 0
2, 27968, Note_on_c, 0, 74, 75
2, 27998, Note_on_c, 0, 74, 0
2, 28000, Note_on_c, 0, 72, 75
2, 28030, Note_on_c, 0, 72, 0
2, 28032, Note_on_c, 0, 84, 75
2, 28062, Note_on_c, 0, 84, 0
2, 28064, Note_on_c, 0, 82, 75
2, 28094, Note_on_c, 0, 82, 0
2, 28096, Note_on_c, 0, 80, 75
2, 28126, Note_on_c, 0, 80, 0
2, 28128, Note_on_c, 0, 80, 75
2, 28158, Note_on_c, 0, 80, 0
2, 28160, Note_on_c, 0, 79, 75
2, 28190, Note_on_c, 0, 79, 0
2, 28192, Note_on_c, 0, 78, 75
2, 28222, Note_on_c, 0, 78, 0
2, 28224, Note_on_c, 0, 78, 75
2, 28320, Note_on_c, 0, 78, 0
2, 28320, Note_on_c, 0, 79, 75
2, 28409, Note_on_c, 0, 79, 0
2, 28416, Note_on_c, 0, 67, 75
2, 28505, Note_on_c, 0, 67, 0
2, 28512, Note_on_c, 0, 68, 75
2, 28530, Note_on_c, 0, 68, 0
2, 28530, Note_on_c, 0, 67, 75
2, 28548, Note_on_c, 0, 67, 0
2, 28548, Note_on_c, 0, 66, 75
2, 28566, Note_on_c, 0, 66, 0
2, 28566, Note_on_c, 0, 67, 75
2, 28601, Note_on_c, 0, 67, 0
2, 28608, Note_on_c, 0, 63, 75
2, 28697, Note_on_c, 0, 63, 0
2, 28704, Note_on_c, 0, 67, 75
2, 28793, Note_on_c, 0, 67, 0
2, 28800, Note_on_c, 0, 68, 75
2, 28818, Note_on_c, 0, 68, 0
2, 28818, Note_on_c, 0, 67, 75
2, 28836, Note_on_c, 0, 67, 0
2, 28836, Note_on_c, 0, 66, 75
2, 28854, Note_on_c, 0, 66, 0
2, 28854, Note_on_c, 0, 67, 75
2, 28889, Note_on_c, 0, 67, 0
2, 28896, Note_on_c, 0, 62, 75
2, 28985, Note_on_c, 0, 62, 0
2, 28992, Note_on_c, 0, 65, 75
2, 29081, Note_on_c, 0, 65, 0
2, 29088, Note_on_c, 0, 63, 75
2, 29118, Note_on_c, 0, 63, 0
2, 29120, Note_on_c, 0, 62, 75
2, 29150, Note_on_c, 0, 62, 0
2, 29152, Note_on_c, 0, 60, 75
2, 29182, Note_on_c, 0, 60, 0
2, 29184, Note_on_c, 0, 72, 75
2, 29214, Note_on_c, 0, 72, 0
2, 29216, Note_on_c, 0, 70, 75
2, 29246, Note_on_c, 0, 70, 0
2, 29248, Note_on_c, 0, 68, 75
2, 29278, Note_on_c, 0, 68, 0
2, 29280, Note_on_c, 0, 68, 75
2, 29310, Note_on_c, 0, 68, 0
2, 29312, Note_on_c, 0, 67, 75
2, 29342, Note_on_c, 0, 67, 0
2, 29344, Note_on_c, 0, 66, 75
2, 29374, Note_on_c, 0, 66, 0
2, 29376, Note_on_c, 0, 66, 75
2, 29472, Note_on_c, 0, 66, 0
2, 29472, Note_on_c, 0, 67, 75
2, 29561, Note_on_c, 0, 67, 0
2, 29568, Note_on_c, 0, 67, 75
2, 29657, Note_on_c, 0, 67, 0
2, 29664, Note_on_c, 0, 69, 75
2, 29682, Note_on_c, 0, 69, 0
2, 29682, Note_on_c, 0, 67, 75
2, 29700, Note_on_c, 0, 67, 0
2, 29700, Note_on_c, 0, 66, 75
2, 29718, Note_on_c, 0, 66, 0
2, 29718, Note_on_c, 0, 67, 75
2, 29753, Note_on_c, 0, 67, 0
2, 29760, Note_on_c, 0, 77, 75
2, 29849, Note_on_c, 0, 77, 0
2, 29856, Note_on_c, 0, 77, 75
2, 29945, Note_on_c, 0, 77, 0
2, 29952, Note_on_c, 0, 77, 75
2, 30048, Note_on_c, 0, 77, 0
2, 30048, Note_on_c, 0, 76, 75
2, 30137, Note_on_c, 0, 76, 0
2, 30144, Note_on_c, 0, 67, 58
2, 30233, Note_on_c, 0, 67, 0
2, 30240, Note_on_c, 0, 69, 58
2, 30258, Note_on_c, 0, 69, 0
2, 30258, Note_on_c, 0, 67, 58
2, 30276, Note_on_c, 0, 67, 0
2, 30276, Note_on_c, 0, 66, 58
2, 30294, Note_on_c, 0, 66, 0
2, 30294, Note_on_c, 0, 67, 58
2, 30329, Note_on_c, 0, 67, 0
2, 30336, Note_on_c, 0, 77, 58
2, 30425, Note_on_c, 0, 77, 0
2, 30432, Note_on_c, 0, 77, 58
2, 30521, Note_on_c, 0, 77, 0
2, 30528, Note_on_c, 0, 77, 58
2, 30624, Note_on_c, 0, 77, 0
2, 30624, Note_on_c, 0, 76, 58
2, 30713, Note_on_c, 0, 76, 0
2, 30720, Note_on_c, 0, 72, 75
2, 30809, Note_on_c, 0, 72, 0
2, 30816, Note_on_c, 0, 74, 75
2, 30834, Note_on_c, 0, 74, 0
2, 30834, Note_on_c, 0, 72, 75
2, 30852, Note_on_c, 0, 72, 0
2, 30852, Note_on_c, 0, 71, 75
2, 30870, Note_on_c, 0, 71, 0
2, 30870, Note_on_c, 0, 72, 75
2, 30905, Note_on_c, 0, 72, 0
2, 30912, Note_on_c, 0, 84, 76
2, 31001, Note_on_c, 0, 84, 0
2, 31008, Note_on_c, 0, 84, 77
2, 31097, Note_on_c, 0, 84, 0
2, 31104, Note_on_c, 0, 83, 79
2, 31152, Note_on_c, 0, 83, 0
2, 31152, Note_on_c, 0, 81, 79
2, 31197, Note_on_c, 0, 81, 0
2, 31200, Note_on_c, 0, 79, 79
2, 31248, Note_on_c, 0, 79, 0
2, 31248, Note_on_c, 0, 77, 79
2, 31293, Note_on_c, 0, 77, 0
2, 31296, Note_on_c, 0, 76, 79
2, 31344, Note_on_c, 0, 76, 0
2, 31344, Note_on_c, 0, 74, 79
2, 31389, Note_on_c, 0, 74, 0
2, 31392, Note_on_c, 0, 72, 79
2, 31569, Note_on_c, 0, 72, 0
2, 31584, Note_on_c, 0, 74, 76
2, 31651, Note_on_c, 0, 74, 0
2, 31656, Note_on_c, 0, 71, 75
2, 31679, Note_on_c, 0, 71, 0
2, 31680, Note_on_c, 0, 72, 75
2, 31769, Note_on_c, 0, 72, 0
2, 31872, Note_on_c, 0, 79, 75
2, 31961, Note_on_c, 0, 79, 0
2, 31968, Note_on_c, 0, 81, 75
2, 31986, Note_on_c, 0, 81, 0
2, 31986, Note_on_c, 0, 79, 75
2, 32004, Note_on_c, 0, 79, 0
2, 32004, Note_on_c, 0, 78, 75
2, 32022, Note_on_c, 0, 78, 0
2, 32022, Note_on_c, 0, 79, 75
2, 32057, Note_on_c, 0, 79, 0
2, 32064, Note_on_c, 0, 74, 75
2, 32153, Note_on_c, 0, 74, 0
2, 32160, Note_on_c, 0, 79, 75
2, 32249, Note_on_c, 0, 79, 0
2, 32256, Note_on_c, 0, 77, 75
2, 32352, Note_on_c, 0, 77, 0
2, 32352, Note_on_c, 0, 76, 75
2, 32441, Note_on_c, 0, 76, 0
2, 32448, Note_on_c, 0, 86, 75
2, 32471, Note_on_c, 0, 86, 0
2, 32472, Note_on_c, 0, 84, 75
2, 32495, Note_on_c, 0, 84, 0
2, 32496, Note_on_c, 0, 83, 75
2, 32519, Note_on_c, 0, 83, 0
2, 32520, Note_on_c, 0, 81, 75
2, 32543, Note_on_c, 0, 81, 0
2, 32544, Note_on_c, 0, 79, 75
2, 32633, Note_on_c, 0, 79, 0
2, 32640, Note_on_c, 0, 74, 75
2, 32729, Note_on_c, 0, 74, 0
2, 32736, Note_on_c, 0, 77, 75
2, 32825, Note_on_c, 0, 77, 0
2, 32832, Note_on_c, 0, 76, 75
2, 32862, Note_on_c, 0, 76, 0
2, 32864, Note_on_c, 0, 77, 75
2, 32894, Note_on_c, 0, 77, 0
2, 32896, Note_on_c, 0, 79, 75
2, 32926, Note_on_c, 0, 79, 0
2, 32928, Note_on_c, 0, 71, 75
2, 32958, Note_on_c, 0, 71, 0
2, 32960, Note_on_c, 0, 72, 75
2, 32990, Note_on_c, 0, 72, 0
2, 32992, Note_on_c, 0, 74, 75
2, 33022, Note_on_c, 0, 74, 0
2, 33024, Note_on_c, 0, 72, 75
2, 33091, Note_on_c, 0, 72, 0
2, 33096, Note_on_c, 0, 84, 75
2, 33119, Note_on_c, 0, 84, 0
2, 33120, Note_on_c, 0, 83, 75
2, 33143, Note_on_c, 0, 83, 0
2, 33144, Note_on_c, 0, 81, 75
2, 33167, Note_on_c, 0, 81, 0
2, 33168, Note_on_c, 0, 79, 75
2, 33191, Note_on_c, 0, 79, 0
2, 33192, Note_on_c, 0, 77, 75
2, 33215, Note_on_c, 0, 77, 0
2, 33216, Note_on_c, 0, 76, 75
2, 33305, Note_on_c, 0, 76, 0
2, 33312, Note_on_c, 0, 76, 75
2, 33327, Note_on_c, 0, 76, 0
2, 33328, Note_on_c, 0, 74, 75
2, 33343, Note_on_c, 0, 74, 0
2, 33344, Note_on_c, 0, 76, 75
2, 33359, Note_on_c, 0, 76, 0
2, 33360, Note_on_c, 0, 74, 75
2, 33375, Note_on_c, 0, 74, 0
2, 33376, Note_on_c, 0, 72, 75
2, 33391, Note_on_c, 0, 72, 0
2, 33392, Note_on_c, 0, 74, 75
2, 33407, Note_on_c, 0, 74, 0
2, 33408, Note_on_c, 0, 76, 75
2, 33438, Note_on_c, 0, 76, 0
2, 33440, Note_on_c, 0, 77, 75
2, 33470, Note_on_c, 0, 77, 0
2, 33472, Note_on_c, 0, 79, 75
2, 33502, Note_on_c, 0, 79, 0
2, 33504, Note_on_c, 0, 71, 76
2, 33534, Note_on_c, 0, 71, 0
2, 33536, Note_on_c, 0, 72, 76
2, 33566, Note_on_c, 0, 72, 0
2, 33568, Note_on_c, 0, 74, 76
2, 33598, Note_on_c, 0, 74, 0
2, 33600, Note_on_c, 0, 72, 77
2, 33667, Note_on_c, 0, 72, 0
2, 33672, Note_on_c, 0, 84, 78
2, 33695, Note_on_c, 0, 84, 0
2, 33696, Note_on_c, 0, 83, 78
2, 33719, Note_on_c, 0, 83, 0
2, 33720, Note_on_c, 0, 81, 78
2, 33743, Note_on_c, 0, 81, 0
2, 33744, Note_on_c, 0, 79, 78
2, 33767, Note_on_c, 0, 79, 0
2, 33768, Note_on_c, 0, 77, 78
2, 33791, Note_on_c, 0, 77, 0
2, 33792, Note_on_c, 0, 76, 78
2, 33881, Note_on_c, 0, 76, 0
2, 33888, Note_on_c, 0, 76, 76
2, 33903, Note_on_c, 0, 76, 0
2, 33904, Note_on_c, 0, 74, 76
2, 33919, Note_on_c, 0, 74, 0
2, 33920, Note_on_c, 0, 76, 76
2, 33935, Note_on_c, 0, 76, 0
2, 33936, Note_on_c, 0, 74, 76
2, 33951, Note_on_c, 0, 74, 0
2, 33952, Note_on_c, 0, 72, 75
2, 33967, Note_on_c, 0, 72, 0
2, 33968, Note_on_c, 0, 74, 75
2, 33983, Note_on_c, 0, 74, 0
2, 33984, Note_on_c, 0, 72, 64
2, 34073, Note_on_c, 0, 72, 0
2, 34080, Note_on_c, 0, 79, 67
2, 34110, Note_on_c, 0, 79, 0
2, 34112, Note_on_c, 0, 76, 68
2, 34142, Note_on_c, 0, 76, 0
2, 34144, Note_on_c, 0, 72, 69
2, 34174, Note_on_c, 0, 72, 0
2, 34176, Note_on_c, 0, 77, 71
2, 34206, Note_on_c, 0, 77, 0
2, 34208, Note_on_c, 0, 74, 72
2, 34238, Note_on_c, 0, 74, 0
2, 34240, Note_on_c, 0, 71, 73
2, 34270, Note_on_c, 0, 71, 0
2, 34272, Note_on_c, 0, 72, 74
2, 34361, Note_on_c, 0, 72, 0
2, 34368, Note_on_c, 0, 79, 70
2, 34398, Note_on_c, 0, 79, 0
2, 34400, Note_on_c, 0, 76, 68
2, 34430, Note_on_c, 0, 76, 0
2, 34432, Note_on_c, 0, 72, 66
2, 34462, Note_on_c, 0, 72, 0
2, 34464, Note_on_c, 0, 77, 64
2, 34494, Note_on_c, 0, 77, 0
2, 34496, Note_on_c, 0, 74, 62
2, 34526, Note_on_c, 0, 74, 0
2, 34528, Note_on_c, 0, 71, 61
2, 34558, Note_on_c, 0, 71, 0
2, 34560, Note_on_c, 0, 72, 58
2, 34649, Note_on_c, 0, 72, 0
2, 34752, Note_on_c, 0, 74, 75
2, 34841, Note_on_c, 0, 74, 0
2, 34848, Note_on_c, 0, 76, 75
2, 34866, Note_on_c, 0, 76, 0
2, 34866, Note_on_c, 0, 74, 75
2, 34884, Note_on_c, 0, 74, 0
2, 34884, Note_on_c, 0, 73, 75
2, 34902, Note_on_c, 0, 73, 0
2, 34902, Note_on_c, 0, 74, 75
2, 34937, Note_on_c, 0, 74, 0
2, 34944, Note_on_c, 0, 71, 75
2, 35033, Note_on_c, 0, 71, 0
2, 35040, Note_on_c, 0, 74, 75
2, 35129, Note_on_c, 0, 74, 0
2, 35136, Note_on_c, 0, 76, 75
2, 35154, Note_on_c, 0, 76, 0
2, 35154, Note_on_c, 0, 74, 75
2, 35172, Note_on_c, 0, 74, 0
2, 35172, Note_on_c, 0, 73, 75
2, 35190, Note_on_c, 0, 73, 0
2, 35190, Note_on_c, 0, 74, 75
2, 35225, Note_on_c, 0, 74, 0
2, 35232, Note_on_c, 0, 79, 75
2, 35321, Note_on_c, 0, 79, 0
2, 35328, Note_on_c, 0, 74, 75
2, 35417, Note_on_c, 0, 74, 0
2, 35424, Note_on_c, 0, 74, 75
2, 35601, Note_on_c, 0, 74, 0
2, 35616, Note_on_c, 0, 74, 75
2, 35631, Note_on_c, 0, 74, 0
2, 35632, Note_on_c, 0, 72, 75
2, 35647, Note_on_c, 0, 72, 0
2, 35648, Note_on_c, 0, 74, 75
2, 35663, Note_on_c, 0, 74, 0
2, 35664, Note_on_c, 0, 72, 75
2, 35679, Note_on_c, 0, 72, 0
2, 35680, Note_on_c, 0, 74, 75
2, 35695, Note_on_c, 0, 74, 0
2, 35696, Note_on_c, 0, 72, 75
2, 35711, Note_on_c, 0, 72, 0
2, 35712, Note_on_c, 0, 71, 75
2, 35801, Note_on_c, 0, 71, 0
2, 35904, Note_on_c, 0, 67, 75
2, 35993, Note_on_c, 0, 67, 0
2, 36000, Note_on_c, 0, 67, 75
2, 36018, Note_on_c, 0, 67, 0
2, 36018, Note_on_c, 0, 66, 75
2, 36089, Note_on_c, 0, 66, 0
2, 36096, Note_on_c, 0, 66, 75
2, 36135, Note_on_c, 0, 66, 0
2, 36192, Note_on_c, 0, 66, 75
2, 36231, Note_on_c, 0, 66, 0
2, 36288, Note_on_c, 0, 67, 75
2, 36377, Note_on_c, 0, 67, 0
2, 36384, Note_on_c, 0, 71, 75
2, 36423, Note_on_c, 0, 71, 0
2, 36480, Note_on_c, 0, 71, 75
2, 36519, Note_on_c, 0, 71, 0
2, 36576, Note_on_c, 0, 71, 75
2, 36591, Note_on_c, 0, 71, 0
2, 36592, Note_on_c, 0, 69, 75
2, 36607, Note_on_c, 0, 69, 0
2, 36608, Note_on_c, 0, 71, 75
2, 36623, Note_on_c, 0, 71, 0
2, 36624, Note_on_c, 0, 69, 75
2, 36639, Note_on_c, 0, 69, 0
2, 36640, Note_on_c, 0, 67, 75
2, 36655, Note_on_c, 0, 67, 0
2, 36656, Note_on_c, 0, 69, 75
2, 36671, Note_on_c, 0, 69, 0
2, 36672, Note_on_c, 0, 72, 75
2, 36711, Note_on_c, 0, 72, 0
2, 36768, Note_on_c, 0, 72, 75
2, 36807, Note_on_c, 0, 72, 0
2, 36864, Note_on_c, 0, 72, 75
2, 36960, Note_on_c, 0, 72, 0
2, 36960, Note_on_c, 0, 71, 75
2, 37049, Note_on_c, 0, 71, 0
2, 37056, Note_on_c, 0, 72, 75
2, 37145, Note_on_c, 0, 72, 0
2, 37152, Note_on_c, 0, 72, 75
2, 37170, Note_on_c, 0, 72, 0
2, 37170, Note_on_c, 0, 71, 75
2, 37241, Note_on_c, 0, 71, 0
2, 37248, Note_on_c, 0, 71, 75
2, 37287, Note_on_c, 0, 71, 0
2, 37344, Note_on_c, 0, 71, 75
2, 37383, Note_on_c, 0, 71, 0
2, 37440, Note_on_c, 0, 74, 75
2, 37458, Note_on_c, 0, 74, 0
2, 37458, Note_on_c, 0, 72, 75
2, 37476, Note_on_c, 0, 72, 0
2, 37476, Note_on_c, 0, 71, 75
2, 37494, Note_on_c, 0, 71, 0
2, 37494, Note_on_c, 0, 72, 75
2, 37529, Note_on_c, 0, 72, 0
2, 37536, Note_on_c, 0, 76, 75
2, 37575, Note_on_c, 0, 76, 0
2, 37632, Note_on_c, 0, 76, 75
2, 37671, Note_on_c, 0, 76, 0
2, 37728, Note_on_c, 0, 76, 75
2, 37743, Note_on_c, 0, 76, 0
2, 37744, Note_on_c, 0, 74, 75
2, 37759, Note_on_c, 0, 74, 0
2, 37760, Note_on_c, 0, 76, 75
2, 37775, Note_on_c, 0, 76, 0
2, 37776, Note_on_c, 0, 74, 75
2, 37791, Note_on_c, 0, 74, 0
2, 37792, Note_on_c, 0, 72, 75
2, 37807, Note_on_c, 0, 72, 0
2, 37808, Note_on_c, 0, 74, 75
2, 37823, Note_on_c, 0, 74, 0
2, 37824, Note_on_c, 0, 77, 75
2, 37863, Note_on_c, 0, 77, 0
2, 37920, Note_on_c, 0, 77, 75
2, 37959, Note_on_c, 0, 77, 0
2, 38016, Note_on_c, 0, 77, 75
2, 38112, Note_on_c, 0, 77, 0
2, 38112, Note_on_c, 0, 76, 75
2, 38201, Note_on_c, 0, 76, 0
2, 38208, Note_on_c, 0, 76, 75
2, 38297, Note_on_c, 0, 76, 0
2, 38304, Note_on_c, 0, 77, 75
2, 38319, Note_on_c, 0, 77, 0
2, 38320, Note_on_c, 0, 76, 75
2, 38335, Note_on_c, 0, 76, 0
2, 38336, Note_on_c, 0, 77, 75
2, 38351, Note_on_c, 0, 77, 0
2, 38352, Note_on_c, 0, 76, 75
2, 38367, Note_on_c, 0, 76, 0
2, 38368, Note_on_c, 0, 74, 75
2, 38383, Note_on_c, 0, 74, 0
2, 38384, Note_on_c, 0, 76, 75
2, 38399, Note_on_c, 0, 76, 0
2, 38400, Note_on_c, 0, 79, 75
2, 38489, Note_on_c, 0, 79, 0
2, 38496, Note_on_c, 0, 79, 75
2, 38585, Note_on_c, 0, 79, 0
2, 38592, Note_on_c, 0, 79, 75
2, 38607, Note_on_c, 0, 79, 0
2, 38608, Note_on_c, 0, 77, 75
2, 38623, Note_on_c, 0, 77, 0
2, 38624, Note_on_c, 0, 79, 75
2, 38639, Note_on_c, 0, 79, 0
2, 38640, Note_on_c, 0, 77, 75
2, 38655, Note_on_c, 0, 77, 0
2, 38656, Note_on_c, 0, 76, 75
2, 38671, Note_on_c, 0, 76, 0
2, 38672, Note_on_c, 0, 77, 75
2, 38687, Note_on_c, 0, 77, 0
2, 38688, Note_on_c, 0, 81, 75
2, 38777, Note_on_c, 0, 81, 0
2, 38784, Note_on_c, 0, 81, 75
2, 38873, Note_on_c, 0, 81, 0
2, 38880, Note_on_c, 0, 81, 75
2, 38895, Note_on_c, 0, 81, 0
2, 38896, Note_on_c, 0, 79, 75
2, 38911, Note_on_c, 0, 79, 0
2, 38912, Note_on_c, 0, 81, 75
2, 38927, Note_on_c, 0, 81, 0
2, 38928, Note_on_c, 0, 79, 75
2, 38943, Note_on_c, 0, 79, 0
2, 38944, Note_on_c, 0, 77, 75
2, 38959, Note_on_c, 0, 77, 0
2, 38960, Note_on_c, 0, 79, 75
2, 38975, Note_on_c, 0, 79, 0
2, 38976, Note_on_c, 0, 82, 75
2, 39065, Note_on_c, 0, 82, 0
2, 39072, Note_on_c, 0, 82, 75
2, 39161, Note_on_c, 0, 82, 0
2, 39168, Note_on_c, 0, 82, 75
2, 39264, Note_on_c, 0, 82, 0
2, 39264, Note_on_c, 0, 81, 75
2, 39353, Note_on_c, 0, 81, 0
2, 39360, Note_on_c, 0, 69, 75
2, 39449, Note_on_c, 0, 69, 0
2, 39456, Note_on_c, 0, 70, 75
2, 39474, Note_on_c, 0, 70, 0
2, 39474, Note_on_c, 0, 69, 75
2, 39492, Note_on_c, 0, 69, 0
2, 39492, Note_on_c, 0, 68, 75
2, 39510, Note_on_c, 0, 68, 0
2, 39510, Note_on_c, 0, 69, 75
2, 39545, Note_on_c, 0, 69, 0
2, 39552, Note_on_c, 0, 79, 75
2, 39641, Note_on_c, 0, 79, 0
2, 39648, Note_on_c, 0, 79, 75
2, 39737, Note_on_c, 0, 79, 0
2, 39744, Note_on_c, 0, 79, 75
2, 39833, Note_on_c, 0, 79, 0
2, 39840, Note_on_c, 0, 77, 75
2, 39929, Note_on_c, 0, 77, 0
2, 39936, Note_on_c, 0, 69, 75
2, 40025, Note_on_c, 0, 69, 0
2, 40032, Note_on_c, 0, 69, 75
2, 40050, Note_on_c, 0, 69, 0
2, 40050, Note_on_c, 0, 67, 75
2, 40068, Note_on_c, 0, 67, 0
2, 40068, Note_on_c, 0, 66, 75
2, 40086, Note_on_c, 0, 66, 0
2, 40086, Note_on_c, 0, 67, 75
2, 40121, Note_on_c, 0, 67, 0
2, 40128, Note_on_c, 0, 77, 75
2, 40217, Note_on_c, 0, 77, 0
2, 40224, Note_on_c, 0, 77, 75
2, 40313, Note_on_c, 0, 77, 0
2, 40320, Note_on_c, 0, 76, 75
2, 40350, Note_on_c, 0, 76, 0
2, 40352, Note_on_c, 0, 74, 75
2, 40382, Note_on_c, 0, 74, 0
2, 40384, Note_on_c, 0, 72, 75
2, 40414, Note_on_c, 0, 72, 0
2, 40416, Note_on_c, 0, 79, 75
2, 40446, Note_on_c, 0, 79, 0
2, 40448, Note_on_c, 0, 77, 75
2, 40478, Note_on_c, 0, 77, 0
2, 40480, Note_on_c, 0, 76, 75
2, 40510, Note_on_c, 0, 76, 0
2, 40512, Note_on_c, 0, 74, 75
2, 40542, Note_on_c, 0, 74, 0
2, 40544, Note_on_c, 0, 72, 75
2, 40574, Note_on_c, 0, 72, 0
2, 40576, Note_on_c, 0, 71, 75
2, 40606, Note_on_c, 0, 71, 0
2, 40608, Note_on_c, 0, 69, 75
2, 40638, Note_on_c, 0, 69, 0
2, 40640, Note_on_c, 0, 77, 75
2, 40670, Note_on_c, 0, 77, 0
2, 40672, Note_on_c, 0, 79, 75
2, 40702, Note_on_c, 0, 79, 0
2, 40704, Note_on_c, 0, 81, 75
2, 40734, Note_on_c, 0, 81, 0
2, 40736, Note_on_c, 0, 79, 75
2, 40766, Note_on_c, 0, 79, 0
2, 40768, Note_on_c, 0, 77, 75
2, 40798, Note_on_c, 0, 77, 0
2, 40800, Note_on_c, 0, 76, 75
2, 40830, Note_on_c, 0, 76, 0
2, 40832, Note_on_c, 0, 74, 75
2, 40862, Note_on_c, 0, 74, 0
2, 40864, Note_on_c, 0, 72, 75
2, 40894, Note_on_c, 0, 72, 0
2, 40896, Note_on_c, 0, 72, 75
2, 40992, Note_on_c, 0, 72, 0
2, 40992, Note_on_c, 0, 71, 75
2, 41081, Note_on_c, 0, 71, 0
2, 41088, Note_on_c, 0, 79, 75
2, 41177, Note_on_c, 0, 79, 0
2, 41184, Note_on_c, 0, 80, 75
2, 41202, Note_on_c, 0, 80, 0
2, 41202, Note_on_c, 0, 79, 75
2, 41220, Note_on_c, 0, 79, 0
2, 41220, Note_on_c, 0, 78, 75
2, 41238, Note_on_c, 0, 78, 0
2, 41238, Note_on_c, 0, 79, 75
2, 41273, Note_on_c, 0, 79, 0
2, 41280, Note_on_c, 0, 75, 75
2, 41369, Note_on_c, 0, 75, 0
2, 41376, Note_on_c, 0, 79, 75
2, 41465, Note_on_c, 0, 79, 0
2, 41472, Note_on_c, 0, 80, 75
2, 41490, Note_on_c, 0, 80, 0
2, 41490, Note_on_c, 0, 79, 75
2, 41508, Note_on_c, 0, 79, 0
2, 41508, Note_on_c, 0, 78, 75
2, 41526, Note_on_c, 0, 78, 0
2, 41526, Note_on_c, 0, 79, 75
2, 41561, Note_on_c, 0, 79, 0
2, 41568, Note_on_c, 0, 74, 75
2, 41657, Note_on_c, 0, 74, 0
2, 41664, Note_on_c, 0, 77, 75
2, 41753, Note_on_c, 0, 77, 0
2, 41760, Note_on_c, 0, 75, 75
2, 41790, Note_on_c, 0, 75, 0
2, 41792, Note_on_c, 0, 74, 75
2, 41822, Note_on_c, 0, 74, 0
2, 41824, Note_on_c, 0, 72, 75
2, 41854, Note_on_c, 0, 72, 0
2, 41856, Note_on_c, 0, 84, 75
2, 41886, Note_on_c, 0, 84, 0
2, 41888, Note_on_c, 0, 82, 75
2, 41918, Note_on_c, 0, 82, 0
2, 41920, Note_on_c, 0, 80, 75
2, 41950, Note_on_c, 0, 80, 0
2, 41952, Note_on_c, 0, 80, 75
2, 41982, Note_on_c, 0, 80, 0
2, 41984, Note_on_c, 0, 79, 75
2, 42014, Note_on_c, 0, 79, 0
2, 42016, Note_on_c, 0, 78, 75
2, 42046, Note_on_c, 0, 78, 0
2, 42048, Note_on_c, 0, 78, 75
2, 42144, Note_on_c, 0, 78, 0
2, 42144, Note_on_c, 0, 79, 75
2, 42233, Note_on_c, 0, 79, 0
2, 42240, Note_on_c, 0, 67, 75
2, 42329, Note_on_c, 0, 67, 0
2, 42336, Note_on_c, 0, 68, 75
2, 42354, Note_on_c, 0, 68, 0
2, 42354, Note_on_c, 0, 67, 75
2, 42372, Note_on_c, 0, 67, 0
2, 42372, Note_on_c, 0, 66, 75
2, 42390, Note_on_c, 0, 66, 0
2, 42390, Note_on_c, 0, 67, 75
2, 42425, Note_on_c, 0, 67, 0
2, 42432, Note_on_c, 0, 63, 75
2, 42521, Note_on_c, 0, 63, 0
2, 42528, Note_on_c, 0, 67, 75
2, 42617, Note_on_c, 0, 67, 0
2, 42624, Note_on_c, 0, 68, 75
2, 42642, Note_on_c, 0, 68, 0
2, 42642, Note_on_c, 0, 67, 75
2, 42660, Note_on_c, 0, 67, 0
2, 42660, Note_on_c, 0, 66, 75
2, 42678, Note_on_c, 0, 66, 0
2, 42678, Note_on_c, 0, 67, 75
2, 42713, Note_on_c, 0, 67, 0
2, 42720, Note_on_c, 0, 62, 75
2, 42809, Note_on_c, 0, 62, 0
2, 42816, Note_on_c, 0, 65, 75
2, 42905, Note_on_c, 0, 65, 0
2, 42912, Note_on_c, 0, 63, 75
2, 42942, Note_on_c, 0, 63, 0
2, 42944, Note_on_c, 0, 62, 75
2, 42974, Note_on_c, 0, 62, 0
2, 42976, Note_on_c, 0, 60, 75
2, 43006, Note_on_c, 0, 60, 0
2, 43008, Note_on_c, 0, 72, 75
2, 43038, Note_on_c, 0, 72, 0
2, 43040, Note_on_c, 0, 70, 75
2, 43070, Note_on_c, 0, 70, 0
2, 43072, Note_on_c, 0, 68, 75
2, 43102, Note_on_c, 0, 68, 0
2, 43104, Note_on_c, 0, 68, 75
2, 43134, Note_on_c, 0, 68, 0
2, 43136, Note_on_c, 0, 67, 75
2, 43166, Note_on_c, 0, 67, 0
2, 43168, Note_on_c, 0, 66, 75
2, 43198, Note_on_c, 0, 66, 0
2, 43200, Note_on_c, 0, 66, 75
2, 43296, Note_on_c, 0, 66, 0
2, 43296, Note_on_c, 0, 67, 75
2, 43385, Note_on_c, 0, 67, 0
2, 43392, Note_on_c, 0, 67, 75
2, 43481, Note_on_c, 0, 67, 0
2, 43488, Note_on_c, 0, 69, 75
2, 43506, Note_on_c, 0, 69, 0
2, 43506, Note_on_c, 0, 67, 75
2, 43524, Note_on_c, 0, 67, 0
2, 43524, Note_on_c, 0, 66, 75
2, 43542, Note_on_c, 0, 66, 0
2, 43542, Note_on_c, 0, 67, 75
2, 43577, Note_on_c, 0, 67, 0
2, 43584, Note_on_c, 0, 77, 75
2, 43673, Note_on_c, 0, 77, 0
2, 43680, Note_on_c, 0, 77, 75
2, 43769, Note_on_c, 0, 77, 0
2, 43776, Note_on_c, 0, 77, 75
2, 43872, Note_on_c, 0, 77, 0
2, 43872, Note_on_c, 0, 76, 75
2, 43961, Note_on_c, 0, 76, 0
2, 43968, Note_on_c, 0, 67, 58
2, 44057, Note_on_c, 0, 67, 0
2, 44064, Note_on_c, 0, 69, 58
2, 44082, Note_on_c, 0, 69, 0
2, 44082, Note_on_c, 0, 67, 58
2, 44100, Note_on_c, 0, 67, 0
2, 44100, Note_on_c, 0, 66, 58
2, 44118, Note_on_c, 0, 66, 0
2, 44118, Note_on_c, 0, 67, 58
2, 44153, Note_on_c, 0, 67, 0
2, 44160, Note_on_c, 0, 77, 58
2, 44249, Note_on_c, 0, 77, 0
2, 44256, Note_on_c, 0, 77, 58
2, 44345, Note_on_c, 0, 77, 0
2, 44352, Note_on_c, 0, 77, 58
2, 44448, Note_on_c, 0, 77, 0
2, 44448, Note_on_c, 0, 76, 58
2, 44537, Note_on_c, 0, 76, 0
2, 44544, Note_on_c, 0, 72, 75
2, 44633, Note_on_c, 0, 72, 0
2, 44640, Note_on_c, 0, 74, 75
2, 44658, Note_on_c, 0, 74, 0
2, 44658, Note_on_c, 0, 72, 75
2, 44676, Note_on_c, 0, 72, 0
2, 44676, Note_on_c, 0, 71, 75
2, 44694, Note_on_c, 0, 71, 0
2, 44694, Note_on_c, 0, 72, 75
2, 44729, Note_on_c, 0, 72, 0
2, 44736, Note_on_c, 0, 84, 76
2, 44825, Note_on_c, 0, 84, 0
2, 44832, Note_on_c, 0, 84, 77
2, 44921, Note_on_c, 0, 84, 0
2, 44928, Note_on_c, 0, 83, 79
2, 44976, Note_on_c, 0, 83, 0
2, 44976, Note_on_c, 0, 81, 79
2, 45021, Note_on_c, 0, 81, 0
2, 45024, Note_on_c, 0, 79, 79
2, 45072, Note_on_c, 0, 79, 0
2, 45072, Note_on_c, 0, 77, 79
2, 45117, Note_on_c, 0, 77, 0
2, 45120, Note_on_c, 0, 76, 79
2, 45168, Note_on_c, 0, 76, 0
2, 45168, Note_on_c, 0, 74, 79
2, 45213, Note_on_c, 0, 74, 0
2, 45216, Note_on_c, 0, 72, 79
2, 45393, Note_on_c, 0, 72, 0
2, 45408, Note_on_c, 0, 74, 76
2, 45475, Note_on_c, 0, 74, 0
2, 45480, Note_on_c, 0, 71, 75
2, 45503, Note_on_c, 0, 71, 0
2, 45504, Note_on_c, 0, 72, 75
2, 45593, Note_on_c, 0, 72, 0
2, 45696, Note_on_c, 0, 79, 75
2, 45785, Note_on_c, 0, 79, 0
2, 45792, Note_on_c, 0, 81, 75
2, 45810, Note_on_c, 0, 81, 0
2, 45810, Note_on_c, 0, 79, 75
2, 45828, Note_on_c, 0, 79, 0
2, 45828, Note_on_c, 0, 78, 75
2, 45846, Note_on_c, 0, 78, 0
2, 45846, Note_on_c, 0, 79, 75
2, 45881, Note_on_c, 0, 79, 0
2, 45888, Note_on_c, 0, 74, 75
2, 45977, Note_on_c, 0, 74, 0
2, 45984, Note_on_c, 0, 79, 75
2, 46073, Note_on_c, 0, 79, 0
2, 46080, Note_on_c, 0, 77, 75
2, 46176, Note_on_c, 0, 77, 0
2, 46176, Note_on_c, 0, 76, 75
2, 46265, Note_on_c, 0, 76, 0
2, 46272, Note_on_c, 0, 86, 75
2, 46295, Note_on_c, 0, 86, 0
2, 46296, Note_on_c, 0, 84, 75
2, 46319, Note_on_c, 0, 84, 0
2, 46320, Note_on_c, 0, 83, 75
2, 46343, Note_on_c, 0, 83, 0
2, 46344, Note_on_c, 0, 81, 75
2, 46367, Note_on_c, 0, 81, 0
2, 46368, Note_on_c, 0, 79, 75
2, 46457, Note_on_c, 0, 79, 0
2, 46464, Note_on_c, 0, 74, 75
2, 46553, Note_on_c, 0, 74, 0
2, 46560, Note_on_c, 0, 77, 75
2, 46649, Note_on_c, 0, 77, 0
2, 46656, Note_on_c, 0, 76, 75
2, 46686, Note_on_c, 0, 76, 0
2, 46688, Note_on_c, 0, 77, 75
2, 46718, Note_on_c, 0, 77, 0
2, 46720, Note_on_c, 0, 79, 75
2, 46750, Note_on_c, 0, 79, 0
2, 46752, Note_on_c, 0, 71, 75
2, 46782, Note_on_c, 0, 71, 0
2, 46784, Note_on_c, 0, 72, 75
2, 46814, Note_on_c, 0, 72, 0
2, 46816, Note_on_c, 0, 74, 75
2, 46846, Note_on_c, 0, 74, 0
2, 46848, Note_on_c, 0, 72, 75
2, 46915, Note_on_c, 0, 72, 0
2, 46920, Note_on_c, 0, 84, 75
2, 46943, Note_on_c, 0, 84, 0
2, 46944, Note_on_c, 0, 83, 75
2, 46967, Note_on_c, 0, 83, 0
2, 46968, Note_on_c, 0, 81, 75
2, 46991, Note_on_c, 0, 81, 0
2, 46992, Note_on_c, 0, 79, 75
2, 47015, Note_on_c, 0, 79, 0
2, 47016, Note_on_c, 0, 77, 75
2, 47039, Note_on_c, 0, 77, 0
2, 47040, Note_on_c, 0, 76, 75
2, 47129, Note_on_c, 0, 76, 0
2, 47136, Note_on_c, 0, 76, 75
2, 47151, Note_on_c, 0, 76, 0
2, 47152, Note_on_c, 0, 74, 75
2, 47167, Note_on_c, 0, 74, 0
2, 47168, Note_on_c, 0, 76, 75
2, 47183, Note_on_c, 0, 76, 0
2, 47184, Note_on_c, 0, 74, 75
2, 47199, Note_on_c, 0, 74, 0
2, 47200, Note_on_c, 0, 72, 75
2, 47215, Note_on_c, 0, 72, 0
2, 47216, Note_on_c, 0, 74, 75
2, 47231, Note_on_c, 0, 74, 0
2, 47232, Note_on_c, 0, 76, 75
2, 47262, Note_on_c, 0, 76, 0
2, 47264, Note_on_c, 0, 77, 75
2, 47294, Note_on_c, 0, 77, 0
2, 47296, Note_on_c, 0, 79, 75
2, 47326, Note_on_c, 0, 79, 0
2, 47328, Note_on_c, 0, 71, 76
2, 47358, Note_on_c, 0, 71, 0
2, 47360, Note_on_c, 0, 72, 76
2, 47390, Note_on_c, 0, 72, 0
2, 47392, Note_on_c, 0, 74, 76
2, 47422, Note_on_c, 0, 74, 0
2, 47424, Note_on_c, 0, 72, 77
2, 47491, Note_on_c, 0, 72, 0
2, 47496, Note_on_c, 0, 84, 78
2, 47519, Note_on_c, 0, 84, 0
2, 47520, Note_on_c, 0, 83, 78
2, 47543, Note_on_c, 0, 83, 0
2, 47544, Note_on_c, 0, 81, 78
2, 47567, Note_on_c, 0, 81, 0
2, 47568, Note_on_c, 0, 79, 78
2, 47591, Note_on_c, 0, 79, 0
2, 47592, Note_on_c, 0, 77, 78
2, 47615, Note_on_c, 0, 77, 0
2, 47616, Note_on_c, 0, 76, 78
2, 47705, Note_on_c, 0, 76, 0
2, 47712, Note_on_c, 0, 76, 76
2, 47727, Note_on_c, 0, 76, 0
2, 47728, Note_on_c, 0, 74, 76
2, 47743, Note_on_c, 0, 74, 0
2, 47744, Note_on_c, 0, 76, 76
2, 47759, Note_on_c, 0, 76, 0
2, 47760, Note_on_c, 0, 74, 76
2, 47775, Note_on_c, 0, 74, 0
2, 47776, Note_on_c, 0, 72, 75
2, 47791, Note_on_c, 0, 72, 0
2, 47792, Note_on_c, 0, 74, 75
2, 47807, Note_on_c, 0, 74, 0
2, 47808, Note_on_c, 0, 72, 64
2, 47897, Note_on_c, 0, 72, 0
2, 47904, Note_on_c, 0, 79, 67
2, 47934, Note_on_c, 0, 79, 0
2, 47936, Note_on_c, 0, 76, 68
2, 47966, Note_on_c, 0, 76, 0
2, 47968, Note_on_c, 0, 72, 69
2, 47998, Note_on_c, 0, 72, 0
2, 48000, Note_on_c, 0, 77, 71
2, 48030, Note_on_c, 0, 77, 0
2, 48032, Note_on_c, 0, 74, 72
2, 48062, Note_on_c, 0, 74, 0
2, 48064, Note_on_c, 0, 71, 73
2, 48094, Note_on_c, 0, 71, 0
2, 48096, Note_on_c, 0, 72, 74
2, 48185, Note_on_c, 0, 72, 0
2, 48192, Note_on_c, 0, 79, 70
2, 48222, Note_on_c, 0, 79, 0
2, 48224, Note_on_c, 0, 76, 68
2, 48254, Note_on_c, 0, 76, 0
2, 48256, Note_on_c, 0, 72, 66
2, 48286, Note_on_c, 0, 72, 0
2, 48288, Note_on_c, 0, 77, 64
2, 48318, Note_on_c, 0, 77, 0
2, 48320, Note_on_c, 0, 74, 62
2, 48350, Note_on_c, 0, 74, 0
2, 48352, Note_on_c, 0, 71, 61
2, 48382, Note_on_c, 0, 71, 0
2, 48384, Note_on_c, 0, 72, 58
2, 48473, Note_on_c, 0, 72, 0
2, 48672, End_track
3, 0, Start_track
3, 0, Program_c, 0, 0
3, 0, Control_c, 0, 7, 127
3, 0, Control_c, 0, 10, 64
3, 48672, End_track
4, 0, Start_track
4, 0, Program_c, 1, 0
4, 0, Control_c, 1, 7, 127
4, 0, Control_c, 1, 10, 64
4, 288, Note_on_c, 1, 60, 64
4, 318, Note_on_c, 1, 60, 0
4, 320, Note_on_c, 1, 64, 64
4, 350, Note_on_c, 1, 64, 0
4, 352, Note_on_c, 1, 67, 64
4, 382, Note_on_c, 1, 67, 0
4, 384, Note_on_c, 1, 60, 64
4, 414, Note_on_c, 1, 60, 0
4, 416, Note_on_c, 1, 64, 64
4, 446, Note_on_c, 1, 64, 0
4, 448, Note_on_c, 1, 67, 64
4, 478, Note_on_c, 1, 67, 0
4, 480, Note_on_c, 1, 60, 64
4, 510, Note_on_c, 1, 60, 0
4, 512, Note_on_c, 1, 64, 64
4, 542, Note_on_c, 1, 64, 0
4, 544, Note_on_c, 1, 67, 64
4, 574, Note_on_c, 1, 67, 0
4, 576, Note_on_c, 1, 60, 64
4, 606, Note_on_c, 1, 60, 0
4, 608, Note_on_c, 1, 64, 64
4, 638, Note_on_c, 1, 64, 0
4, 640, Note_on_c, 1, 67, 64
4, 670, Note_on_c, 1, 67, 0
4, 672, Note_on_c, 1, 60, 64
4, 702, Note_on_c, 1, 60, 0
4, 704, Note_on_c, 1, 64, 64
4, 734, Note_on_c, 1, 64, 0
4, 736, Note_on_c, 1, 67, 64
4, 766, Note_on_c, 1, 67, 0
4, 768, Note_on_c, 1, 60, 64
4, 798, Note_on_c, 1, 60, 0
4, 800, Note_on_c, 1, 64, 64
4, 830, Note_on_c, 1, 64, 0
4, 832, Note_on_c, 1, 67, 64
4, 862, Note_on_c, 1, 67, 0
4, 864, Note_on_c, 1, 59, 64
4, 894, Note_on_c, 1, 59, 0
4, 896, Note_on_c, 1, 62, 64
4, 926, Note_on_c, 1, 62, 0
4, 928, Note_on_c, 1, 67, 64
4, 958, Note_on_c, 1, 67, 0
4, 960, Note_on_c, 1, 59, 64
4, 990, Note_on_c, 1, 59, 0
4, 992, Note_on_c, 1, 62, 64
4, 1022, Note_on_c, 1, 62, 0
4, 1024, Note_on_c, 1, 67, 64
4, 1054, Note_on_c, 1, 67, 0
4, 1056, Note_on_c, 1, 59, 64
4, 1086, Note_on_c, 1, 59, 0
4, 1088, Note_on_c, 1, 62, 64
4, 1118, Note_on_c, 1, 62, 0
4, 1120, Note_on_c, 1, 67, 64
4, 1150, Note_on_c, 1, 67, 0
4, 1152, Note_on_c, 1, 60, 64
4, 1182, Note_on_c, 1, 60, 0
4, 1184, Note_on_c, 1, 64, 64
4, 1214, Note_on_c, 1, 64, 0
4, 1216, Note_on_c, 1, 67, 64
4, 1246, Note_on_c, 1, 67, 0
4, 1248, Note_on_c, 1, 60, 64
4, 1278, Note_on_c, 1, 60, 0
4, 1280, Note_on_c, 1, 64, 64
4, 1310, Note_on_c, 1, 64, 0
4, 1312, Note_on_c, 1, 67, 64
4, 1342, Note_on_c, 1, 67, 0
4, 1344, Note_on_c, 1, 60, 64
4, 1374, Note_on_c, 1, 60, 0
4, 1376, Note_on_c, 1, 64, 64
4, 1406, Note_on_c, 1, 64, 0
4, 1408, Note_on_c, 1, 67, 64
4, 1438, Note_on_c, 1, 67, 0
4, 1440, Note_on_c, 1, 62, 64
4, 1470, Note_on_c, 1, 62, 0
4, 1472, Note_on_c, 1, 65, 64
4, 1502, Note_on_c, 1, 65, 0
4, 1504, Note_on_c, 1, 67, 64
4, 1534, Note_on_c, 1, 67, 0
4, 1536, Note_on_c, 1, 62, 64
4, 1566, Note_on_c, 1, 62, 0
4, 1568, Note_on_c, 1, 65, 64
4, 1598, Note_on_c, 1, 65, 0
4, 1600, Note_on_c, 1, 67, 64
4, 1630, Note_on_c, 1, 67, 0
4, 1632, Note_on_c, 1, 62, 64
4, 1662, Note_on_c, 1, 62, 0
4, 1664, Note_on_c, 1, 65, 64
4, 1694, Note_on_c, 1, 65, 0
4, 1696, Note_on_c, 1, 67, 64
4, 1726, Note_on_c, 1, 67, 0
4, 1728, Note_on_c, 1, 60, 64
4, 1758, Note_on_c, 1, 60, 0
4, 1760, Note_on_c, 1, 64, 64
4, 1790, Note_on_c, 1, 64, 0
4, 1792, Note_on_c, 1, 67, 64
4, 1822, Note_on_c, 1, 67, 0
4, 1824, Note_on_c, 1, 60, 64
4, 1854, Note_on_c, 1, 60, 0
4, 1856, Note_on_c, 1, 64, 64
4, 1886, Note_on_c, 1, 64, 0
4, 1888, Note_on_c, 1, 67, 64
4, 1918, Note_on_c, 1, 67, 0
4, 1920, Note_on_c, 1, 60, 64
4, 1950, Note_on_c, 1, 60, 0
4, 1952, Note_on_c, 1, 64, 64
4, 1982, Note_on_c, 1, 64, 0
4, 1984, Note_on_c, 1, 67, 64
4, 2014, Note_on_c, 1, 67, 0
4, 2016, Note_on_c, 1, 59, 64
4, 2046, Note_on_c, 1, 59, 0
4, 2048, Note_on_c, 1, 62, 64
4, 2078, Note_on_c, 1, 62, 0
4, 2080, Note_on_c, 1, 67, 64
4, 2110, Note_on_c, 1, 67, 0
4, 2112, Note_on_c, 1, 59, 64
4, 2142, Note_on_c, 1, 59, 0
4, 2144, Note_on_c, 1, 62, 64
4, 2174, Note_on_c, 1, 62, 0
4, 2176, Note_on_c, 1, 67, 64
4, 2206, Note_on_c, 1, 67, 0
4, 2208, Note_on_c, 1, 59, 64
4, 2238, Note_on_c, 1, 59, 0
4, 2240, Note_on_c, 1, 62, 64
4, 2270, Note_on_c, 1, 62, 0
4, 2272, Note_on_c, 1, 67, 64
4, 2302, Note_on_c, 1, 67, 0
4, 2304, Note_on_c, 1, 60, 64
4, 2334, Note_on_c, 1, 60, 0
4, 2336, Note_on_c, 1, 64, 64
4, 2366, Note_on_c, 1, 64, 0
4, 2368, Note_on_c, 1, 67, 64
4, 2398, Note_on_c, 1, 67, 0
4, 2400, Note_on_c, 1, 60, 64
4, 2430, Note_on_c, 1, 60, 0
4, 2432, Note_on_c, 1, 64, 64
4, 2462, Note_on_c, 1, 64, 0
4, 2464, Note_on_c, 1, 67, 64
4, 2494, Note_on_c, 1, 67, 0
4, 2496, Note_on_c, 1, 60, 64
4, 2526, Note_on_c, 1, 60, 0
4, 2528, Note_on_c, 1, 64, 64
4, 2558, Note_on_c, 1, 64, 0
4, 2560, Note_on_c, 1, 67, 64
4, 2590, Note_on_c, 1, 67, 0
4, 2592, Note_on_c, 1, 62, 64
4, 2622, Note_on_c, 1, 62, 0
4, 2624, Note_on_c, 1, 65, 64
4, 2654, Note_on_c, 1, 65, 0
4, 2656, Note_on_c, 1, 67, 64
4, 2686, Note_on_c, 1, 67, 0
4, 2688, Note_on_c, 1, 62, 64
4, 2718, Note_on_c, 1, 62, 0
4, 2720, Note_on_c, 1, 65, 64
4, 2750, Note_on_c, 1, 65, 0
4, 2752, Note_on_c, 1, 67, 64
4, 2782, Note_on_c, 1, 67, 0
4, 2784, Note_on_c, 1, 62, 64
4, 2814, Note_on_c, 1, 62, 0
4, 2816, Note_on_c, 1, 65, 64
4, 2846, Note_on_c, 1, 65, 0
4, 2848, Note_on_c, 1, 67, 64
4, 2878, Note_on_c, 1, 67, 0
4, 2880, Note_on_c, 1, 64, 64
4, 2969, Note_on_c, 1, 64, 0
4, 3168, Note_on_c, 1, 62, 64
4, 3257, Note_on_c, 1, 62, 0
4, 3264, Note_on_c, 1, 59, 64
4, 3353, Note_on_c, 1, 59, 0
4, 3360, Note_on_c, 1, 55, 64
4, 3449, Note_on_c, 1, 55, 0
4, 3456, Note_on_c, 1, 60, 64
4, 3545, Note_on_c, 1, 60, 0
4, 3552, Note_on_c, 1, 48, 64
4, 3641, Note_on_c, 1, 48, 0
4, 3744, Note_on_c, 1, 60, 64
4, 3774, Note_on_c, 1, 60, 0
4, 3776, Note_on_c, 1, 64, 64
4, 3806, Note_on_c, 1, 64, 0
4, 3808, Note_on_c, 1, 67, 64
4, 3838, Note_on_c, 1, 67, 0
4, 3840, Note_on_c, 1, 60, 64
4, 3870, Note_on_c, 1, 60, 0
4, 3872, Note_on_c, 1, 64, 64
4, 3902, Note_on_c, 1, 64, 0
4, 3904, Note_on_c, 1, 67, 64
4, 3934, Note_on_c, 1, 67, 0
4, 3936, Note_on_c, 1, 60, 64
4, 3966, Note_on_c, 1, 60, 0
4, 3968, Note_on_c, 1, 64, 64
4, 3998, Note_on_c, 1, 64, 0
4, 4000, Note_on_c, 1, 67, 64
4, 4030, Note_on_c, 1, 67, 0
4, 4032, Note_on_c, 1, 60, 64
4, 4062, Note_on_c, 1, 60, 0
4, 4064, Note_on_c, 1, 64, 64
4, 4094, Note_on_c, 1, 64, 0
4, 4096, Note_on_c, 1, 67, 64
4, 4126, Note_on_c, 1, 67, 0
4, 4128, Note_on_c, 1, 60, 64
4, 4158, Note_on_c, 1, 60, 0
4, 4160, Note_on_c, 1, 64, 64
4, 4190, Note_on_c, 1, 64, 0
4, 4192, Note_on_c, 1, 67, 64
4, 4222, Note_on_c, 1, 67, 0
4, 4224, Note_on_c, 1, 60, 64
4, 4254, Note_on_c, 1, 60, 0
4, 4256, Note_on_c, 1, 64, 64
4, 4286, Note_on_c, 1, 64, 0
4, 4288, Note_on_c, 1, 67, 64
4, 4318, Note_on_c, 1, 67, 0
4, 4320, Note_on_c, 1, 59, 64
4, 4350, Note_on_c, 1, 59, 0
4, 4352, Note_on_c, 1, 62, 64
4, 4382, Note_on_c, 1, 62, 0
4, 4384, Note_on_c, 1, 67, 64
4, 4414, Note_on_c, 1, 67, 0
4, 4416, Note_on_c, 1, 59, 64
4, 4446, Note_on_c, 1, 59, 0
4, 4448, Note_on_c, 1, 62, 64
4, 4478, Note_on_c, 1, 62, 0
4, 4480, Note_on_c, 1, 67, 64
4, 4510, Note_on_c, 1, 67, 0
4, 4512, Note_on_c, 1, 59, 64
4, 4542, Note_on_c, 1, 59, 0
4, 4544, Note_on_c, 1, 62, 64
4, 4574, Note_on_c, 1, 62, 0
4, 4576, Note_on_c, 1, 67, 64
4, 4606, Note_on_c, 1, 67, 0
4, 4608, Note_on_c, 1, 60, 64
4, 4638, Note_on_c, 1, 60, 0
4, 4640, Note_on_c, 1, 64, 64
4, 4670, Note_on_c, 1, 64, 0
4, 4672, Note_on_c, 1, 67, 64
4, 4702, Note_on_c, 1, 67, 0
4, 4704, Note_on_c, 1, 60, 64
4, 4734, Note_on_c, 1, 60, 0
4, 4736, Note_on_c, 1, 64, 64
4, 4766, Note_on_c, 1, 64, 0
4, 4768, Note_on_c, 1, 67, 64
4, 4798, Note_on_c, 1, 67, 0
4, 4800, Note_on_c, 1, 60, 64
4, 4830, Note_on_c, 1, 60, 0
4, 4832, Note_on_c, 1, 64, 64
4, 4862, Note_on_c, 1, 64, 0
4, 4864, Note_on_c, 1, 67, 64
4, 4894, Note_on_c, 1, 67, 0
4, 4896, Note_on_c, 1, 62, 64
4, 4926, Note_on_c, 1, 62, 0
4, 4928, Note_on_c, 1, 65, 64
4, 4958, Note_on_c, 1, 65, 0
4, 4960, Note_on_c, 1, 67, 64
4, 4990, Note_on_c, 1, 67, 0
4, 4992, Note_on_c, 1, 62, 64
4, 5022, Note_on_c, 1, 62, 0
4, 5024, Note_on_c, 1, 65, 64
4, 5054, Note_on_c, 1, 65, 0
4, 5056, Note_on_c, 1, 67, 64
4, 5086, Note_on_c, 1, 67, 0
4, 5088, Note_on_c, 1, 62, 64
4, 5118, Note_on_c, 1, 62, 0
4, 5120, Note_on_c, 1, 65, 64
4, 5150, Note_on_c, 1, 65, 0
4, 5152, Note_on_c, 1, 67, 64
4, 5182, Note_on_c, 1, 67, 0
4, 5184, Note_on_c, 1, 60, 64
4, 5214, Note_on_c, 1, 60, 0
4, 5216, Note_on_c, 1, 64, 64
4, 5246, Note_on_c, 1, 64, 0
4, 5248, Note_on_c, 1, 67, 64
4, 5278, Note_on_c, 1, 67, 0
4, 5280, Note_on_c, 1, 60, 64
4, 5310, Note_on_c, 1, 60, 0
4, 5312, Note_on_c, 1, 64, 64
4, 5342, Note_on_c, 1, 64, 0
4, 5344, Note_on_c, 1, 67, 64
4, 5374, Note_on_c, 1, 67, 0
4, 5376, Note_on_c, 1, 60, 64
4, 5406, Note_on_c, 1, 60, 0
4, 5408, Note_on_c, 1, 64, 64
4, 5438, Note_on_c, 1, 64, 0
4, 5440, Note_on_c, 1, 67, 64
4, 5470, Note_on_c, 1, 67, 0
4, 5472, Note_on_c, 1, 59, 64
4, 5502, Note_on_c, 1, 59, 0
4, 5504, Note_on_c, 1, 62, 64
4, 5534, Note_on_c, 1, 62, 0
4, 5536, Note_on_c, 1, 67, 64
4, 5566, Note_on_c, 1, 67, 0
4, 5568, Note_on_c, 1, 59, 64
4, 5598, Note_on_c, 1, 59, 0
4, 5600, Note_on_c, 1, 62, 64
4, 5630, Note_on_c, 1, 62, 0
4, 5632, Note_on_c, 1, 67, 64
4, 5662, Note_on_c, 1, 67, 0
4, 5664, Note_on_c, 1, 59, 64
4, 5694, Note_on_c, 1, 59, 0
4, 5696, Note_on_c, 1, 62, 64
4, 5726, Note_on_c, 1, 62, 0
4, 5728, Note_on_c, 1, 67, 64
4, 5758, Note_on_c, 1, 67, 0
4, 5760, Note_on_c, 1, 60, 64
4, 5790, Note_on_c, 1, 60, 0
4, 5792, Note_on_c, 1, 64, 65
4, 5822, Note_on_c, 1, 64, 0
4, 5824, Note_on_c, 1, 67, 66
4, 5854, Note_on_c, 1, 67, 0
4, 5856, Note_on_c, 1, 60, 67
4, 5886, Note_on_c, 1, 60, 0
4, 5888, Note_on_c, 1, 64, 68
4, 5918, Note_on_c, 1, 64, 0
4, 5920, Note_on_c, 1, 67, 69
4, 5950, Note_on_c, 1, 67, 0
4, 5952, Note_on_c, 1, 60, 70
4, 5982, Note_on_c, 1, 60, 0
4, 5984, Note_on_c, 1, 64, 71
4, 6014, Note_on_c, 1, 64, 0
4, 6016, Note_on_c, 1, 67, 72
4, 6046, Note_on_c, 1, 67, 0
4, 6048, Note_on_c, 1, 60, 73
4, 6078, Note_on_c, 1, 60, 0
4, 6080, Note_on_c, 1, 64, 74
4, 6110, Note_on_c, 1, 64, 0
4, 6112, Note_on_c, 1, 69, 74
4, 6142, Note_on_c, 1, 69, 0
4, 6144, Note_on_c, 1, 60, 73
4, 6174, Note_on_c, 1, 60, 0
4, 6176, Note_on_c, 1, 64, 71
4, 6206, Note_on_c, 1, 64, 0
4, 6208, Note_on_c, 1, 69, 70
4, 6238, Note_on_c, 1, 69, 0
4, 6240, Note_on_c, 1, 60, 69
4, 6270, Note_on_c, 1, 60, 0
4, 6272, Note_on_c, 1, 64, 68
4, 6302, Note_on_c, 1, 64, 0
4, 6304, Note_on_c, 1, 69, 66
4, 6334, Note_on_c, 1, 69, 0
4, 6336, Note_on_c, 1, 59, 64
4, 6425, Note_on_c, 1, 59, 0
4, 6624, Note_on_c, 1, 54, 70
4, 6654, Note_on_c, 1, 54, 0
4, 6656, Note_on_c, 1, 57, 70
4, 6686, Note_on_c, 1, 57, 0
4, 6688, Note_on_c, 1, 62, 70
4, 6718, Note_on_c, 1, 62, 0
4, 6720, Note_on_c, 1, 54, 70
4, 6750, Note_on_c, 1, 54, 0
4, 6752, Note_on_c, 1, 57, 70
4, 6782, Note_on_c, 1, 57, 0
4, 6784, Note_on_c, 1, 62, 70
4, 6814, Note_on_c, 1, 62, 0
4, 6816, Note_on_c, 1, 55, 70
4, 6846, Note_on_c, 1, 55, 0
4, 6848, Note_on_c, 1, 59, 70
4, 6878, Note_on_c, 1, 59, 0
4, 6880, Note_on_c, 1, 62, 70
4, 6910, Note_on_c, 1, 62, 0
4, 6912, Note_on_c, 1, 54, 58
4, 6942, Note_on_c, 1, 54, 0
4, 6944, Note_on_c, 1, 57, 58
4, 6974, Note_on_c, 1, 57, 0
4, 6976, Note_on_c, 1, 62, 58
4, 7006, Note_on_c, 1, 62, 0
4, 7008, Note_on_c, 1, 54, 58
4, 7038, Note_on_c, 1, 54, 0
4, 7040, Note_on_c, 1, 57, 58
4, 7070, Note_on_c, 1, 57, 0
4, 7072, Note_on_c, 1, 62, 58
4, 7102, Note_on_c, 1, 62, 0
4, 7104, Note_on_c, 1, 55, 58
4, 7134, Note_on_c, 1, 55, 0
4, 7136, Note_on_c, 1, 59, 58
4, 7166, Note_on_c, 1, 59, 0
4, 7168, Note_on_c, 1, 62, 58
4, 7198, Note_on_c, 1, 62, 0
4, 7200, Note_on_c, 1, 60, 58
4, 7289, Note_on_c, 1, 60, 0
4, 7296, Note_on_c, 1, 62, 58
4, 7385, Note_on_c, 1, 62, 0
4, 7392, Note_on_c, 1, 50, 58
4, 7481, Note_on_c, 1, 50, 0
4, 7488, Note_on_c, 1, 55, 58
4, 7577, Note_on_c, 1, 55, 0
4, 7584, Note_on_c, 1, 43, 58
4, 7673, Note_on_c, 1, 43, 0
4, 7776, Note_on_c, 1, 54, 64
4, 7806, Note_on_c, 1, 54, 0
4, 7808, Note_on_c, 1, 57, 64
4, 7838, Note_on_c, 1, 57, 0
4, 7840, Note_on_c, 1, 62, 64
4, 7870, Note_on_c, 1, 62, 0
4, 7872, Note_on_c, 1, 54, 64
4, 7902, Note_on_c, 1, 54, 0
4, 7904, Note_on_c, 1, 57, 64
4, 7934, Note_on_c, 1, 57, 0
4, 7936, Note_on_c, 1, 62, 64
4, 7966, Note_on_c, 1, 62, 0
4, 7968, Note_on_c, 1, 54, 64
4, 7998, Note_on_c, 1, 54, 0
4, 8000, Note_on_c, 1, 57, 64
4, 8030, Note_on_c, 1, 57, 0
4, 8032, Note_on_c, 1, 62, 64
4, 8062, Note_on_c, 1, 62, 0
4, 8064, Note_on_c, 1, 55, 64
4, 8094, Note_on_c, 1, 55, 0
4, 8096, Note_on_c, 1, 59, 64
4, 8126, Note_on_c, 1, 59, 0
4, 8128, Note_on_c, 1, 62, 64
4, 8158, Note_on_c, 1, 62, 0
4, 8160, Note_on_c, 1, 55, 64
4, 8190, Note_on_c, 1, 55, 0
4, 8192, Note_on_c, 1, 59, 64
4, 8222, Note_on_c, 1, 59, 0
4, 8224, Note_on_c, 1, 62, 64
4, 8254, Note_on_c, 1, 62, 0
4, 8256, Note_on_c, 1, 55, 64
4, 8286, Note_on_c, 1, 55, 0
4, 8288, Note_on_c, 1, 59, 64
4, 8318, Note_on_c, 1, 59, 0
4, 8320, Note_on_c, 1, 62, 64
4, 8350, Note_on_c, 1, 62, 0
4, 8352, Note_on_c, 1, 54, 64
4, 8382, Note_on_c, 1, 54, 0
4, 8384, Note_on_c, 1, 57, 64
4, 8414, Note_on_c, 1, 57, 0
4, 8416, Note_on_c, 1, 62, 64
4, 8446, Note_on_c, 1, 62, 0
4, 8448, Note_on_c, 1, 54, 64
4, 8478, Note_on_c, 1, 54, 0
4, 8480, Note_on_c, 1, 57, 64
4, 8510, Note_on_c, 1, 57, 0
4, 8512, Note_on_c, 1, 62, 64
4, 8542, Note_on_c, 1, 62, 0
4, 8544, Note_on_c, 1, 54, 64
4, 8574, Note_on_c, 1, 54, 0
4, 8576, Note_on_c, 1, 57, 64
4, 8606, Note_on_c, 1, 57, 0
4, 8608, Note_on_c, 1, 62, 64
4, 8638, Note_on_c, 1, 62, 0
4, 8640, Note_on_c, 1, 55, 75
4, 8729, Note_on_c, 1, 55, 0
4, 8736, Note_on_c, 1, 57, 76
4, 8825, Note_on_c, 1, 57, 0
4, 8832, Note_on_c, 1, 59, 77
4, 8921, Note_on_c, 1, 59, 0
4, 8928, Note_on_c, 1, 60, 79
4, 9017, Note_on_c, 1, 60, 0
4, 9024, Note_on_c, 1, 62, 77
4, 9113, Note_on_c, 1, 62, 0
4, 9120, Note_on_c, 1, 50, 76
4, 9209, Note_on_c, 1, 50, 0
4, 9216, Note_on_c, 1, 55, 75
4, 9305, Note_on_c, 1, 55, 0
4, 9312, Note_on_c, 1, 57, 76
4, 9401, Note_on_c, 1, 57, 0
4, 9408, Note_on_c, 1, 59, 77
4, 9497, Note_on_c, 1, 59, 0
4, 9504, Note_on_c, 1, 60, 79
4, 9593, Note_on_c, 1, 60, 0
4, 9600, Note_on_c, 1, 62, 77
4, 9689, Note_on_c, 1, 62, 0
4, 9696, Note_on_c, 1, 50, 76
4, 9785, Note_on_c, 1, 50, 0
4, 9792, Note_on_c, 1, 55, 64
4, 9881, Note_on_c, 1, 55, 0
4, 9984, Note_on_c, 1, 57, 71
4, 9984, Note_on_c, 1, 50, 71
4, 10073, Note_on_c, 1, 57, 0
4, 10073, Note_on_c, 1, 50, 0
4, 10080, Note_on_c, 1, 59, 75
4, 10080, Note_on_c, 1, 55, 75
4, 10169, Note_on_c, 1, 59, 0
4, 10169, Note_on_c, 1, 55, 0
4, 10272, Note_on_c, 1, 57, 63
4, 10272, Note_on_c, 1, 50, 63
4, 10361, Note_on_c, 1, 57, 0
4, 10361, Note_on_c, 1, 50, 0
4, 10368, Note_on_c, 1, 59, 58
4, 10368, Note_on_c, 1, 55, 58
4, 10457, Note_on_c, 1, 59, 0
4, 10457, Note_on_c, 1, 55, 0
4, 10656, Note_on_c, 1, 60, 64
4, 10686, Note_on_c, 1, 60, 0
4, 10688, Note_on_c, 1, 64, 64
4, 10718, Note_on_c, 1, 64, 0
4, 10720, Note_on_c, 1, 67, 64
4, 10750, Note_on_c, 1, 67, 0
4, 10752, Note_on_c, 1, 60, 64
4, 10782, Note_on_c, 1, 60, 0
4, 10784, Note_on_c, 1, 64, 64
4, 10814, Note_on_c, 1, 64, 0
4, 10816, Note_on_c, 1, 67, 64
4, 10846, Note_on_c, 1, 67, 0
4, 10848, Note_on_c, 1, 60, 64
4, 10878, Note_on_c, 1, 60, 0
4, 10880, Note_on_c, 1, 64, 64
4, 10910, Note_on_c, 1, 64, 0
4, 10912, Note_on_c, 1, 67, 64
4, 10942, Note_on_c, 1, 67, 0
4, 10944, Note_on_c, 1, 60, 64
4, 10974, Note_on_c, 1, 60, 0
4, 10976, Note_on_c, 1, 64, 64
4, 11006, Note_on_c, 1, 64, 0
4, 11008, Note_on_c, 1, 67, 64
4, 11038, Note_on_c, 1, 67, 0
4, 11040, Note_on_c, 1, 60, 64
4, 11070, Note_on_c, 1, 60, 0
4, 11072, Note_on_c, 1, 64, 64
4, 11102, Note_on_c, 1, 64, 0
4, 11104, Note_on_c, 1, 67, 64
4, 11134, Note_on_c, 1, 67, 0
4, 11136, Note_on_c, 1, 60, 64
4, 11166, Note_on_c, 1, 60, 0
4, 11168, Note_on_c, 1, 64, 64
4, 11198, Note_on_c, 1, 64, 0
4, 11200, Note_on_c, 1, 67, 64
4, 11230, Note_on_c, 1, 67, 0
4, 11232, Note_on_c, 1, 59, 64
4, 11262, Note_on_c, 1, 59, 0
4, 11264, Note_on_c, 1, 62, 64
4, 11294, Note_on_c, 1, 62, 0
4, 11296, Note_on_c, 1, 67, 64
4, 11326, Note_on_c, 1, 67, 0
4, 11328, Note_on_c, 1, 59, 64
4, 11358, Note_on_c, 1, 59, 0
4, 11360, Note_on_c, 1, 62, 64
4, 11390, Note_on_c, 1, 62, 0
4, 11392, Note_on_c, 1, 67, 64
4, 11422, Note_on_c, 1, 67, 0
4, 11424, Note_on_c, 1, 59, 64
4, 11454, Note_on_c, 1, 59, 0
4, 11456, Note_on_c, 1, 62, 64
4, 11486, Note_on_c, 1, 62, 0
4, 11488, Note_on_c, 1, 67, 64
4, 11518, Note_on_c, 1, 67, 0
4, 11520, Note_on_c, 1, 60, 64
4, 11550, Note_on_c, 1, 60, 0
4, 11552, Note_on_c, 1, 64, 64
4, 11582, Note_on_c, 1, 64, 0
4, 11584, Note_on_c, 1, 67, 64
4, 11614, Note_on_c, 1, 67, 0
4, 11616, Note_on_c, 1, 60, 64
4, 11646, Note_on_c, 1, 60, 0
4, 11648, Note_on_c, 1, 64, 64
4, 11678, Note_on_c, 1, 64, 0
4, 11680, Note_on_c, 1, 67, 64
4, 11710, Note_on_c, 1, 67, 0
4, 11712, Note_on_c, 1, 60, 64
4, 11742, Note_on_c, 1, 60, 0
4, 11744, Note_on_c, 1, 64, 64
4, 11774, Note_on_c, 1, 64, 0
4, 11776, Note_on_c, 1, 67, 64
4, 11806, Note_on_c, 1, 67, 0
4, 11808, Note_on_c, 1, 62, 64
4, 11838, Note_on_c, 1, 62, 0
4, 11840, Note_on_c, 1, 65, 64
4, 11870, Note_on_c, 1, 65, 0
4, 11872, Note_on_c, 1, 67, 64
4, 11902, Note_on_c, 1, 67, 0
4, 11904, Note_on_c, 1, 62, 64
4, 11934, Note_on_c, 1, 62, 0
4, 11936, Note_on_c, 1, 65, 64
4, 11966, Note_on_c, 1, 65, 0
4, 11968, Note_on_c, 1, 67, 64
4, 11998, Note_on_c, 1, 67, 0
4, 12000, Note_on_c, 1, 62, 64
4, 12030, Note_on_c, 1, 62, 0
4, 12032, Note_on_c, 1, 65, 64
4, 12062, Note_on_c, 1, 65, 0
4, 12064, Note_on_c, 1, 67, 64
4, 12094, Note_on_c, 1, 67, 0
4, 12096, Note_on_c, 1, 60, 64
4, 12126, Note_on_c, 1, 60, 0
4, 12128, Note_on_c, 1, 64, 64
4, 12158, Note_on_c, 1, 64, 0
4, 12160, Note_on_c, 1, 67, 64
4, 12190, Note_on_c, 1, 67, 0
4, 12192, Note_on_c, 1, 60, 64
4, 12222, Note_on_c, 1, 60, 0
4, 12224, Note_on_c, 1, 64, 64
4, 12254, Note_on_c, 1, 64, 0
4, 12256, Note_on_c, 1, 67, 64
4, 12286, Note_on_c, 1, 67, 0
4, 12288, Note_on_c, 1, 60, 64
4, 12318, Note_on_c, 1, 60, 0
4, 12320, Note_on_c, 1, 64, 64
4, 12350, Note_on_c, 1, 64, 0
4, 12352, Note_on_c, 1, 67, 64
4, 12382, Note_on_c, 1, 67, 0
4, 12384, Note_on_c, 1, 59, 64
4, 12414, Note_on_c, 1, 59, 0
4, 12416, Note_on_c, 1, 62, 64
4, 12446, Note_on_c, 1, 62, 0
4, 12448, Note_on_c, 1, 67, 64
4, 12478, Note_on_c, 1, 67, 0
4, 12480, Note_on_c, 1, 59, 64
4, 12510, Note_on_c, 1, 59, 0
4, 12512, Note_on_c, 1, 62, 64
4, 12542, Note_on_c, 1, 62, 0
4, 12544, Note_on_c, 1, 67, 64
4, 12574, Note_on_c, 1, 67, 0
4, 12576, Note_on_c, 1, 59, 64
4, 12606, Note_on_c, 1, 59, 0
4, 12608, Note_on_c, 1, 62, 64
4, 12638, Note_on_c, 1, 62, 0
4, 12640, Note_on_c, 1, 67, 64
4, 12670, Note_on_c, 1, 67, 0
4, 12672, Note_on_c, 1, 60, 64
4, 12702, Note_on_c, 1, 60, 0
4, 12704, Note_on_c, 1, 64, 64
4, 12734, Note_on_c, 1, 64, 0
4, 12736, Note_on_c, 1, 67, 64
4, 12766, Note_on_c, 1, 67, 0
4, 12768, Note_on_c, 1, 60, 64
4, 12798, Note_on_c, 1, 60, 0
4, 12800, Note_on_c, 1, 64, 64
4, 12830, Note_on_c, 1, 64, 0
4, 12832, Note_on_c, 1, 67, 64
4, 12862, Note_on_c, 1, 67, 0
4, 12864, Note_on_c, 1, 60, 64
4, 12894, Note_on_c, 1, 60, 0
4, 12896, Note_on_c, 1, 64, 64
4, 12926, Note_on_c, 1, 64, 0
4, 12928, Note_on_c, 1, 67, 64
4, 12958, Note_on_c, 1, 67, 0
4, 12960, Note_on_c, 1, 62, 64
4, 12990, Note_on_c, 1, 62, 0
4, 12992, Note_on_c, 1, 65, 64
4, 13022, Note_on_c, 1, 65, 0
4, 13024, Note_on_c, 1, 67, 64
4, 13054, Note_on_c, 1, 67, 0
4, 13056, Note_on_c, 1, 62, 64
4, 13086, Note_on_c, 1, 62, 0
4, 13088, Note_on_c, 1, 65, 64
4, 13118, Note_on_c, 1, 65, 0
4, 13120, Note_on_c, 1, 67, 64
4, 13150, Note_on_c, 1, 67, 0
4, 13152, Note_on_c, 1, 62, 64
4, 13182, Note_on_c, 1, 62, 0
4, 13184, Note_on_c, 1, 65, 64
4, 13214, Note_on_c, 1, 65, 0
4, 13216, Note_on_c, 1, 67, 64
4, 13246, Note_on_c, 1, 67, 0
4, 13248, Note_on_c, 1, 64, 64
4, 13337, Note_on_c, 1, 64, 0
4, 13536, Note_on_c, 1, 62, 64
4, 13625, Note_on_c, 1, 62, 0
4, 13632, Note_on_c, 1, 59, 64
4, 13721, Note_on_c, 1, 59, 0
4, 13728, Note_on_c, 1, 55, 64
4, 13817, Note_on_c, 1, 55, 0
4, 13824, Note_on_c, 1, 60, 64
4, 13913, Note_on_c, 1, 60, 0
4, 13920, Note_on_c, 1, 48, 64
4, 14009, Note_on_c, 1, 48, 0
4, 14112, Note_on_c, 1, 60, 64
4, 14142, Note_on_c, 1, 60, 0
4, 14144, Note_on_c, 1, 64, 64
4, 14174, Note_on_c, 1, 64, 0
4, 14176, Note_on_c, 1, 67, 64
4, 14206, Note_on_c, 1, 67, 0
4, 14208, Note_on_c, 1, 60, 64
4, 14238, Note_on_c, 1, 60, 0
4, 14240, Note_on_c, 1, 64, 64
4, 14270, Note_on_c, 1, 64, 0
4, 14272, Note_on_c, 1, 67, 64
4, 14302, Note_on_c, 1, 67, 0
4, 14304, Note_on_c, 1, 60, 64
4, 14334, Note_on_c, 1, 60, 0
4, 14336, Note_on_c, 1, 64, 64
4, 14366, Note_on_c, 1, 64, 0
4, 14368, Note_on_c, 1, 67, 64
4, 14398, Note_on_c, 1, 67, 0
4, 14400, Note_on_c, 1, 60, 64
4, 14430, Note_on_c, 1, 60, 0
4, 14432, Note_on_c, 1, 64, 64
4, 14462, Note_on_c, 1, 64, 0
4, 14464, Note_on_c, 1, 67, 64
4, 14494, Note_on_c, 1, 67, 0
4, 14496, Note_on_c, 1, 60, 64
4, 14526, Note_on_c, 1, 60, 0
4, 14528, Note_on_c, 1, 64, 64
4, 14558, Note_on_c, 1, 64, 0
4, 14560, Note_on_c, 1, 67, 64
4, 14590, Note_on_c, 1, 67, 0
4, 14592, Note_on_c, 1, 60, 64
4, 14622, Note_on_c, 1, 60, 0
4, 14624, Note_on_c, 1, 64, 64
4, 14654, Note_on_c, 1, 64, 0
4, 14656, Note_on_c, 1, 67, 64
4, 14686, Note_on_c, 1, 67, 0
4, 14688, Note_on_c, 1, 59, 64
4, 14718, Note_on_c, 1, 59, 0
4, 14720, Note_on_c, 1, 62, 64
4, 14750, Note_on_c, 1, 62, 0
4, 14752, Note_on_c, 1, 67, 64
4, 14782, Note_on_c, 1, 67, 0
4, 14784, Note_on_c, 1, 59, 64
4, 14814, Note_on_c, 1, 59, 0
4, 14816, Note_on_c, 1, 62, 64
4, 14846, Note_on_c, 1, 62, 0
4, 14848, Note_on_c, 1, 67, 64
4, 14878, Note_on_c, 1, 67, 0
4, 14880, Note_on_c, 1, 59, 64
4, 14910, Note_on_c, 1, 59, 0
4, 14912, Note_on_c, 1, 62, 64
4, 14942, Note_on_c, 1, 62, 0
4, 14944, Note_on_c, 1, 67, 64
4, 14974, Note_on_c, 1, 67, 0
4, 14976, Note_on_c, 1, 60, 64
4, 15006, Note_on_c, 1, 60, 0
4, 15008, Note_on_c, 1, 64, 64
4, 15038, Note_on_c, 1, 64, 0
4, 15040, Note_on_c, 1, 67, 64
4, 15070, Note_on_c, 1, 67, 0
4, 15072, Note_on_c, 1, 60, 64
4, 15102, Note_on_c, 1, 60, 0
4, 15104, Note_on_c, 1, 64, 64
4, 15134, Note_on_c, 1, 64, 0
4, 15136, Note_on_c, 1, 67, 64
4, 15166, Note_on_c, 1, 67, 0
4, 15168, Note_on_c, 1, 60, 64
4, 15198, Note_on_c, 1, 60, 0
4, 15200, Note_on_c, 1, 64, 64
4, 15230, Note_on_c, 1, 64, 0
4, 15232, Note_on_c, 1, 67, 64
4, 15262, Note_on_c, 1, 67, 0
4, 15264, Note_on_c, 1, 62, 64
4, 15294, Note_on_c, 1, 62, 0
4, 15296, Note_on_c, 1, 65, 64
4, 15326, Note_on_c, 1, 65, 0
4, 15328, Note_on_c, 1, 67, 64
4, 15358, Note_on_c, 1, 67, 0
4, 15360, Note_on_c, 1, 62, 64
4, 15390, Note_on_c, 1, 62, 0
4, 15392, Note_on_c, 1, 65, 64
4, 15422, Note_on_c, 1, 65, 0
4, 15424, Note_on_c, 1, 67, 64
4, 15454, Note_on_c, 1, 67, 0
4, 15456, Note_on_c, 1, 62, 64
4, 15486, Note_on_c, 1, 62, 0
4, 15488, Note_on_c, 1, 65, 64
4, 15518, Note_on_c, 1, 65, 0
4, 15520, Note_on_c, 1, 67, 64
4, 15550, Note_on_c, 1, 67, 0
4, 15552, Note_on_c, 1, 60, 64
4, 15582, Note_on_c, 1, 60, 0
4, 15584, Note_on_c, 1, 64, 64
4, 15614, Note_on_c, 1, 64, 0
4, 15616, Note_on_c, 1, 67, 64
4, 15646, Note_on_c, 1, 67, 0
4, 15648, Note_on_c, 1, 60, 64
4, 15678, Note_on_c, 1, 60, 0
4, 15680, Note_on_c, 1, 64, 64
4, 15710, Note_on_c, 1, 64, 0
4, 15712, Note_on_c, 1, 67, 64
4, 15742, Note_on_c, 1, 67, 0
4, 15744, Note_on_c, 1, 60, 64
4, 15774, Note_on_c, 1, 60, 0
4, 15776, Note_on_c, 1, 64, 64
4, 15806, Note_on_c, 1, 64, 0
4, 15808, Note_on_c, 1, 67, 64
4, 15838, Note_on_c, 1, 67, 0
4, 15840, Note_on_c, 1, 59, 64
4, 15870, Note_on_c, 1, 59, 0
4, 15872, Note_on_c, 1, 62, 64
4, 15902, Note_on_c, 1, 62, 0
4, 15904, Note_on_c, 1, 67, 64
4, 15934, Note_on_c, 1, 67, 0
4, 15936, Note_on_c, 1, 59, 64
4, 15966, Note_on_c, 1, 59, 0
4, 15968, Note_on_c, 1, 62, 64
4, 15998, Note_on_c, 1, 62, 0
4, 16000, Note_on_c, 1, 67, 64
4, 16030, Note_on_c, 1, 67, 0
4, 16032, Note_on_c, 1, 59, 64
4, 16062, Note_on_c, 1, 59, 0
4, 16064, Note_on_c, 1, 62, 64
4, 16094, Note_on_c, 1, 62, 0
4, 16096, Note_on_c, 1, 67, 64
4, 16126, Note_on_c, 1, 67, 0
4, 16128, Note_on_c, 1, 60, 64
4, 16158, Note_on_c, 1, 60, 0
4, 16160, Note_on_c, 1, 64, 65
4, 16190, Note_on_c, 1, 64, 0
4, 16192, Note_on_c, 1, 67, 66
4, 16222, Note_on_c, 1, 67, 0
4, 16224, Note_on_c, 1, 60, 67
4, 16254, Note_on_c, 1, 60, 0
4, 16256, Note_on_c, 1, 64, 68
4, 16286, Note_on_c, 1, 64, 0
4, 16288, Note_on_c, 1, 67, 69
4, 16318, Note_on_c, 1, 67, 0
4, 16320, Note_on_c, 1, 60, 70
4, 16350, Note_on_c, 1, 60, 0
4, 16352, Note_on_c, 1, 64, 71
4, 16382, Note_on_c, 1, 64, 0
4, 16384, Note_on_c, 1, 67, 72
4, 16414, Note_on_c, 1, 67, 0
4, 16416, Note_on_c, 1, 60, 73
4, 16446, Note_on_c, 1, 60, 0
4, 16448, Note_on_c, 1, 64, 74
4, 16478, Note_on_c, 1, 64, 0
4, 16480, Note_on_c, 1, 69, 74
4, 16510, Note_on_c, 1, 69, 0
4, 16512, Note_on_c, 1, 60, 73
4, 16542, Note_on_c, 1, 60, 0
4, 16544, Note_on_c, 1, 64, 71
4, 16574, Note_on_c, 1, 64, 0
4, 16576, Note_on_c, 1, 69, 70
4, 16606, Note_on_c, 1, 69, 0
4, 16608, Note_on_c, 1, 60, 69
4, 16638, Note_on_c, 1, 60, 0
4, 16640, Note_on_c, 1, 64, 68
4, 16670, Note_on_c, 1, 64, 0
4, 16672, Note_on_c, 1, 69, 66
4, 16702, Note_on_c, 1, 69, 0
4, 16704, Note_on_c, 1, 59, 64
4, 16793, Note_on_c, 1, 59, 0
4, 16992, Note_on_c, 1, 54, 70
4, 17022, Note_on_c, 1, 54, 0
4, 17024, Note_on_c, 1, 57, 70
4, 17054, Note_on_c, 1, 57, 0
4, 17056, Note_on_c, 1, 62, 70
4, 17086, Note_on_c, 1, 62, 0
4, 17088, Note_on_c, 1, 54, 70
4, 17118, Note_on_c, 1, 54, 0
4, 17120, Note_on_c, 1, 57, 70
4, 17150, Note_on_c, 1, 57, 0
4, 17152, Note_on_c, 1, 62, 70
4, 17182, Note_on_c, 1, 62, 0
4, 17184, Note_on_c, 1, 55, 70
4, 17214, Note_on_c, 1, 55, 0
4, 17216, Note_on_c, 1, 59, 70
4, 17246, Note_on_c, 1, 59, 0
4, 17248, Note_on_c, 1, 62, 70
4, 17278, Note_on_c, 1, 62, 0
4, 17280, Note_on_c, 1, 54, 58
4, 17310, Note_on_c, 1, 54, 0
4, 17312, Note_on_c, 1, 57, 58
4, 17342, Note_on_c, 1, 57, 0
4, 17344, Note_on_c, 1, 62, 58
4, 17374, Note_on_c, 1, 62, 0
4, 17376, Note_on_c, 1, 54, 58
4, 17406, Note_on_c, 1, 54, 0
4, 17408, Note_on_c, 1, 57, 58
4, 17438, Note_on_c, 1, 57, 0
4, 17440, Note_on_c, 1, 62, 58
4, 17470, Note_on_c, 1, 62, 0
4, 17472, Note_on_c, 1, 55, 58
4, 17502, Note_on_c, 1, 55, 0
4, 17504, Note_on_c, 1, 59, 58
4, 17534, Note_on_c, 1, 59, 0
4, 17536, Note_on_c, 1, 62, 58
4, 17566, Note_on_c, 1, 62, 0
4, 17568, Note_on_c, 1, 60, 58
4, 17657, Note_on_c, 1, 60, 0
4, 17664, Note_on_c, 1, 62, 58
4, 17753, Note_on_c, 1, 62, 0
4, 17760, Note_on_c, 1, 50, 58
4, 17849, Note_on_c, 1, 50, 0
4, 17856, Note_on_c, 1, 55, 58
4, 17945, Note_on_c, 1, 55, 0
4, 17952, Note_on_c, 1, 43, 58
4, 18041, Note_on_c, 1, 43, 0
4, 18144, Note_on_c, 1, 54, 64
4, 18174, Note_on_c, 1, 54, 0
4, 18176, Note_on_c, 1, 57, 64
4, 18206, Note_on_c, 1, 57, 0
4, 18208, Note_on_c, 1, 62, 64
4, 18238, Note_on_c, 1, 62, 0
4, 18240, Note_on_c, 1, 54, 64
4, 18270, Note_on_c, 1, 54, 0
4, 18272, Note_on_c, 1, 57, 64
4, 18302, Note_on_c, 1, 57, 0
4, 18304, Note_on_c, 1, 62, 64
4, 18334, Note_on_c, 1, 62, 0
4, 18336, Note_on_c, 1, 54, 64
4, 18366, Note_on_c, 1, 54, 0
4, 18368, Note_on_c, 1, 57, 64
4, 18398, Note_on_c, 1, 57, 0
4, 18400, Note_on_c, 1, 62, 64
4, 18430, Note_on_c, 1, 62, 0
4, 18432, Note_on_c, 1, 55, 64
4, 18462, Note_on_c, 1, 55, 0
4, 18464, Note_on_c, 1, 59, 64
4, 18494, Note_on_c, 1, 59, 0
4, 18496, Note_on_c, 1, 62, 64
4, 18526, Note_on_c, 1, 62, 0
4, 18528, Note_on_c, 1, 55, 64
4, 18558, Note_on_c, 1, 55, 0
4, 18560, Note_on_c, 1, 59, 64
4, 18590, Note_on_c, 1, 59, 0
4, 18592, Note_on_c, 1, 62, 64
4, 18622, Note_on_c, 1, 62, 0
4, 18624, Note_on_c, 1, 55, 64
4, 18654, Note_on_c, 1, 55, 0
4, 18656, Note_on_c, 1, 59, 64
4, 18686, Note_on_c, 1, 59, 0
4, 18688, Note_on_c, 1, 62, 64
4, 18718, Note_on_c, 1, 62, 0
4, 18720, Note_on_c, 1, 54, 64
4, 18750, Note_on_c, 1, 54, 0
4, 18752, Note_on_c, 1, 57, 64
4, 18782, Note_on_c, 1, 57, 0
4, 18784, Note_on_c, 1, 62, 64
4, 18814, Note_on_c, 1, 62, 0
4, 18816, Note_on_c, 1, 54, 64
4, 18846, Note_on_c, 1, 54, 0
4, 18848, Note_on_c, 1, 57, 64
4, 18878, Note_on_c, 1, 57, 0
4, 18880, Note_on_c, 1, 62, 64
4, 18910, Note_on_c, 1, 62, 0
4, 18912, Note_on_c, 1, 54, 64
4, 18942, Note_on_c, 1, 54, 0
4, 18944, Note_on_c, 1, 57, 64
4, 18974, Note_on_c, 1, 57, 0
4, 18976, Note_on_c, 1, 62, 64
4, 19006, Note_on_c, 1, 62, 0
4, 19008, Note_on_c, 1, 55, 75
4, 19097, Note_on_c, 1, 55, 0
4, 19104, Note_on_c, 1, 57, 76
4, 19193, Note_on_c, 1, 57, 0
4, 19200, Note_on_c, 1, 59, 77
4, 19289, Note_on_c, 1, 59, 0
4, 19296, Note_on_c, 1, 60, 79
4, 19385, Note_on_c, 1, 60, 0
4, 19392, Note_on_c, 1, 62, 77
4, 19481, Note_on_c, 1, 62, 0
4, 19488, Note_on_c, 1, 50, 76
4, 19577, Note_on_c, 1, 50, 0
4, 19584, Note_on_c, 1, 55, 75
4, 19673, Note_on_c, 1, 55, 0
4, 19680, Note_on_c, 1, 57, 76
4, 19769, Note_on_c, 1, 57, 0
4, 19776, Note_on_c, 1, 59, 77
4, 19865, Note_on_c, 1, 59, 0
4, 19872, Note_on_c, 1, 60, 79
4, 19961, Note_on_c, 1, 60, 0
4, 19968, Note_on_c, 1, 62, 77
4, 20057, Note_on_c, 1, 62, 0
4, 20064, Note_on_c, 1, 50, 76
4, 20153, Note_on_c, 1, 50, 0
4, 20160, Note_on_c, 1, 55, 64
4, 20249, Note_on_c, 1, 55, 0
4, 20352, Note_on_c, 1, 57, 71
4, 20352, Note_on_c, 1, 50, 71
4, 20441, Note_on_c, 1, 57, 0
4, 20441, Note_on_c, 1, 50, 0
4, 20448, Note_on_c, 1, 59, 75
4, 20448, Note_on_c, 1, 55, 75
4, 20537, Note_on_c, 1, 59, 0
4, 20537, Note_on_c, 1, 55, 0
4, 20640, Note_on_c, 1, 57, 63
4, 20640, Note_on_c, 1, 50, 63
4, 20729, Note_on_c, 1, 57, 0
4, 20729, Note_on_c, 1, 50, 0
4, 20736, Note_on_c, 1, 59, 58
4, 20736, Note_on_c, 1, 55, 58
4, 20825, Note_on_c, 1, 59, 0
4, 20825, Note_on_c, 1, 55, 0
4, 21024, Note_on_c, 1, 55, 64
4, 21054, Note_on_c, 1, 55, 0
4, 21056, Note_on_c, 1, 59, 64
4, 21086, Note_on_c, 1, 59, 0
4, 21088, Note_on_c, 1, 62, 64
4, 21118, Note_on_c, 1, 62, 0
4, 21120, Note_on_c, 1, 55, 64
4, 21150, Note_on_c, 1, 55, 0
4, 21152, Note_on_c, 1, 59, 64
4, 21182, Note_on_c, 1, 59, 0
4, 21184, Note_on_c, 1, 62, 64
4, 21214, Note_on_c, 1, 62, 0
4, 21216, Note_on_c, 1, 55, 64
4, 21246, Note_on_c, 1, 55, 0
4, 21248, Note_on_c, 1, 59, 64
4, 21278, Note_on_c, 1, 59, 0
4, 21280, Note_on_c, 1, 62, 64
4, 21310, Note_on_c, 1, 62, 0
4, 21312, Note_on_c, 1, 55, 64
4, 21342, Note_on_c, 1, 55, 0
4, 21344, Note_on_c, 1, 59, 64
4, 21374, Note_on_c, 1, 59, 0
4, 21376, Note_on_c, 1, 62, 64
4, 21406, Note_on_c, 1, 62, 0
4, 21408, Note_on_c, 1, 55, 64
4, 21438, Note_on_c, 1, 55, 0
4, 21440, Note_on_c, 1, 59, 64
4, 21470, Note_on_c, 1, 59, 0
4, 21472, Note_on_c, 1, 62, 64
4, 21502, Note_on_c, 1, 62, 0
4, 21504, Note_on_c, 1, 55, 64
4, 21534, Note_on_c, 1, 55, 0
4, 21536, Note_on_c, 1, 59, 64
4, 21566, Note_on_c, 1, 59, 0
4, 21568, Note_on_c, 1, 62, 64
4, 21598, Note_on_c, 1, 62, 0
4, 21600, Note_on_c, 1, 54, 64
4, 21630, Note_on_c, 1, 54, 0
4, 21632, Note_on_c, 1, 57, 64
4, 21662, Note_on_c, 1, 57, 0
4, 21664, Note_on_c, 1, 62, 64
4, 21694, Note_on_c, 1, 62, 0
4, 21696, Note_on_c, 1, 54, 64
4, 21726, Note_on_c, 1, 54, 0
4, 21728, Note_on_c, 1, 57, 64
4, 21758, Note_on_c, 1, 57, 0
4, 21760, Note_on_c, 1, 62, 64
4, 21790, Note_on_c, 1, 62, 0
4, 21792, Note_on_c, 1, 54, 64
4, 21822, Note_on_c, 1, 54, 0
4, 21824, Note_on_c, 1, 57, 64
4, 21854, Note_on_c, 1, 57, 0
4, 21856, Note_on_c, 1, 62, 64
4, 21886, Note_on_c, 1, 62, 0
4, 21888, Note_on_c, 1, 55, 64
4, 21918, Note_on_c, 1, 55, 0
4, 21920, Note_on_c, 1, 59, 64
4, 21950, Note_on_c, 1, 59, 0
4, 21952, Note_on_c, 1, 62, 64
4, 21982, Note_on_c, 1, 62, 0
4, 21984, Note_on_c, 1, 55, 64
4, 22014, Note_on_c, 1, 55, 0
4, 22016, Note_on_c, 1, 59, 64
4, 22046, Note_on_c, 1, 59, 0
4, 22048, Note_on_c, 1, 62, 64
4, 22078, Note_on_c, 1, 62, 0
4, 22080, Note_on_c, 1, 55, 64
4, 22110, Note_on_c, 1, 55, 0
4, 22112, Note_on_c, 1, 59, 64
4, 22142, Note_on_c, 1, 59, 0
4, 22144, Note_on_c, 1, 62, 64
4, 22174, Note_on_c, 1, 62, 0
4, 22176, Note_on_c, 1, 57, 64
4, 22206, Note_on_c, 1, 57, 0
4, 22208, Note_on_c, 1, 60, 64
4, 22238, Note_on_c, 1, 60, 0
4, 22240, Note_on_c, 1, 62, 64
4, 22270, Note_on_c, 1, 62, 0
4, 22272, Note_on_c, 1, 57, 64
4, 22302, Note_on_c, 1, 57, 0
4, 22304, Note_on_c, 1, 60, 64
4, 22334, Note_on_c, 1, 60, 0
4, 22336, Note_on_c, 1, 62, 64
4, 22366, Note_on_c, 1, 62, 0
4, 22368, Note_on_c, 1, 57, 64
4, 22398, Note_on_c, 1, 57, 0
4, 22400, Note_on_c, 1, 60, 64
4, 22430, Note_on_c, 1, 60, 0
4, 22432, Note_on_c, 1, 62, 64
4, 22462, Note_on_c, 1, 62, 0
4, 22464, Note_on_c, 1, 55, 64
4, 22494, Note_on_c, 1, 55, 0
4, 22496, Note_on_c, 1, 59, 64
4, 22526, Note_on_c, 1, 59, 0
4, 22528, Note_on_c, 1, 62, 64
4, 22558, Note_on_c, 1, 62, 0
4, 22560, Note_on_c, 1, 55, 64
4, 22590, Note_on_c, 1, 55, 0
4, 22592, Note_on_c, 1, 59, 64
4, 22622, Note_on_c, 1, 59, 0
4, 22624, Note_on_c, 1, 62, 64
4, 22654, Note_on_c, 1, 62, 0
4, 22656, Note_on_c, 1, 55, 64
4, 22686, Note_on_c, 1, 55, 0
4, 22688, Note_on_c, 1, 59, 64
4, 22718, Note_on_c, 1, 59, 0
4, 22720, Note_on_c, 1, 62, 64
4, 22750, Note_on_c, 1, 62, 0
4, 22752, Note_on_c, 1, 54, 64
4, 22782, Note_on_c, 1, 54, 0
4, 22784, Note_on_c, 1, 57, 64
4, 22814, Note_on_c, 1, 57, 0
4, 22816, Note_on_c, 1, 62, 64
4, 22846, Note_on_c, 1, 62, 0
4, 22848, Note_on_c, 1, 54, 64
4, 22878, Note_on_c, 1, 54, 0
4, 22880, Note_on_c, 1, 57, 64
4, 22910, Note_on_c, 1, 57, 0
4, 22912, Note_on_c, 1, 62, 64
4, 22942, Note_on_c, 1, 62, 0
4, 22944, Note_on_c, 1, 54, 64
4, 22974, Note_on_c, 1, 54, 0
4, 22976, Note_on_c, 1, 57, 64
4, 23006, Note_on_c, 1, 57, 0
4, 23008, Note_on_c, 1, 62, 64
4, 23038, Note_on_c, 1, 62, 0
4, 23040, Note_on_c, 1, 55, 64
4, 23070, Note_on_c, 1, 55, 0
4, 23072, Note_on_c, 1, 59, 64
4, 23102, Note_on_c, 1, 59, 0
4, 23104, Note_on_c, 1, 62, 64
4, 23134, Note_on_c, 1, 62, 0
4, 23136, Note_on_c, 1, 55, 64
4, 23166, Note_on_c, 1, 55, 0
4, 23168, Note_on_c, 1, 59, 64
4, 23198, Note_on_c, 1, 59, 0
4, 23200, Note_on_c, 1, 62, 64
4, 23230, Note_on_c, 1, 62, 0
4, 23232, Note_on_c, 1, 60, 64
4, 23262, Note_on_c, 1, 60, 0
4, 23264, Note_on_c, 1, 64, 64
4, 23294, Note_on_c, 1, 64, 0
4, 23296, Note_on_c, 1, 67, 64
4, 23326, Note_on_c, 1, 67, 0
4, 23328, Note_on_c, 1, 62, 64
4, 23358, Note_on_c, 1, 62, 0
4, 23360, Note_on_c, 1, 65, 64
4, 23390, Note_on_c, 1, 65, 0
4, 23392, Note_on_c, 1, 67, 64
4, 23422, Note_on_c, 1, 67, 0
4, 23424, Note_on_c, 1, 62, 64
4, 23454, Note_on_c, 1, 62, 0
4, 23456, Note_on_c, 1, 65, 64
4, 23486, Note_on_c, 1, 65, 0
4, 23488, Note_on_c, 1, 67, 64
4, 23518, Note_on_c, 1, 67, 0
4, 23520, Note_on_c, 1, 62, 64
4, 23550, Note_on_c, 1, 62, 0
4, 23552, Note_on_c, 1, 65, 64
4, 23582, Note_on_c, 1, 65, 0
4, 23584, Note_on_c, 1, 67, 64
4, 23614, Note_on_c, 1, 67, 0
4, 23616, Note_on_c, 1, 60, 64
4, 23646, Note_on_c, 1, 60, 0
4, 23648, Note_on_c, 1, 64, 64
4, 23678, Note_on_c, 1, 64, 0
4, 23680, Note_on_c, 1, 67, 64
4, 23710, Note_on_c, 1, 67, 0
4, 23712, Note_on_c, 1, 60, 64
4, 23742, Note_on_c, 1, 60, 0
4, 23744, Note_on_c, 1, 64, 64
4, 23774, Note_on_c, 1, 64, 0
4, 23776, Note_on_c, 1, 67, 64
4, 23806, Note_on_c, 1, 67, 0
4, 23808, Note_on_c, 1, 60, 64
4, 23838, Note_on_c, 1, 60, 0
4, 23840, Note_on_c, 1, 64, 64
4, 23870, Note_on_c, 1, 64, 0
4, 23872, Note_on_c, 1, 67, 64
4, 23902, Note_on_c, 1, 67, 0
4, 23904, Note_on_c, 1, 59, 64
4, 23934, Note_on_c, 1, 59, 0
4, 23936, Note_on_c, 1, 62, 64
4, 23966, Note_on_c, 1, 62, 0
4, 23968, Note_on_c, 1, 67, 64
4, 23998, Note_on_c, 1, 67, 0
4, 24000, Note_on_c, 1, 59, 64
4, 24030, Note_on_c, 1, 59, 0
4, 24032, Note_on_c, 1, 62, 64
4, 24062, Note_on_c, 1, 62, 0
4, 24064, Note_on_c, 1, 67, 64
4, 24094, Note_on_c, 1, 67, 0
4, 24096, Note_on_c, 1, 59, 64
4, 24126, Note_on_c, 1, 59, 0
4, 24128, Note_on_c, 1, 62, 64
4, 24158, Note_on_c, 1, 62, 0
4, 24160, Note_on_c, 1, 67, 64
4, 24190, Note_on_c, 1, 67, 0
4, 24192, Note_on_c, 1, 60, 64
4, 24222, Note_on_c, 1, 60, 0
4, 24224, Note_on_c, 1, 64, 64
4, 24254, Note_on_c, 1, 64, 0
4, 24256, Note_on_c, 1, 67, 64
4, 24286, Note_on_c, 1, 67, 0
4, 24288, Note_on_c, 1, 60, 64
4, 24318, Note_on_c, 1, 60, 0
4, 24320, Note_on_c, 1, 64, 64
4, 24350, Note_on_c, 1, 64, 0
4, 24352, Note_on_c, 1, 67, 64
4, 24382, Note_on_c, 1, 67, 0
4, 24384, Note_on_c, 1, 60, 64
4, 24414, Note_on_c, 1, 60, 0
4, 24416, Note_on_c, 1, 64, 64
4, 24446, Note_on_c, 1, 64, 0
4, 24448, Note_on_c, 1, 67, 64
4, 24478, Note_on_c, 1, 67, 0
4, 24480, Note_on_c, 1, 58, 64
4, 24510, Note_on_c, 1, 58, 0
4, 24512, Note_on_c, 1, 64, 64
4, 24542, Note_on_c, 1, 64, 0
4, 24544, Note_on_c, 1, 67, 64
4, 24574, Note_on_c, 1, 67, 0
4, 24576, Note_on_c, 1, 58, 64
4, 24606, Note_on_c, 1, 58, 0
4, 24608, Note_on_c, 1, 64, 64
4, 24638, Note_on_c, 1, 64, 0
4, 24640, Note_on_c, 1, 67, 64
4, 24670, Note_on_c, 1, 67, 0
4, 24672, Note_on_c, 1, 58, 64
4, 24702, Note_on_c, 1, 58, 0
4, 24704, Note_on_c, 1, 64, 64
4, 24734, Note_on_c, 1, 64, 0
4, 24736, Note_on_c, 1, 67, 64
4, 24766, Note_on_c, 1, 67, 0
4, 24768, Note_on_c, 1, 57, 64
4, 24798, Note_on_c, 1, 57, 0
4, 24800, Note_on_c, 1, 60, 64
4, 24830, Note_on_c, 1, 60, 0
4, 24832, Note_on_c, 1, 65, 64
4, 24862, Note_on_c, 1, 65, 0
4, 24864, Note_on_c, 1, 57, 64
4, 24894, Note_on_c, 1, 57, 0
4, 24896, Note_on_c, 1, 60, 64
4, 24926, Note_on_c, 1, 60, 0
4, 24928, Note_on_c, 1, 65, 64
4, 24958, Note_on_c, 1, 65, 0
4, 24960, Note_on_c, 1, 57, 64
4, 24990, Note_on_c, 1, 57, 0
4, 24992, Note_on_c, 1, 60, 64
4, 25022, Note_on_c, 1, 60, 0
4, 25024, Note_on_c, 1, 65, 64
4, 25054, Note_on_c, 1, 65, 0
4, 25056, Note_on_c, 1, 52, 64
4, 25086, Note_on_c, 1, 52, 0
4, 25088, Note_on_c, 1, 55, 64
4, 25118, Note_on_c, 1, 55, 0
4, 25120, Note_on_c, 1, 60, 64
4, 25150, Note_on_c, 1, 60, 0
4, 25152, Note_on_c, 1, 52, 64
4, 25182, Note_on_c, 1, 52, 0
4, 25184, Note_on_c, 1, 55, 64
4, 25214, Note_on_c, 1, 55, 0
4, 25216, Note_on_c, 1, 60, 64
4, 25246, Note_on_c, 1, 60, 0
4, 25248, Note_on_c, 1, 52, 64
4, 25278, Note_on_c, 1, 52, 0
4, 25280, Note_on_c, 1, 55, 64
4, 25310, Note_on_c, 1, 55, 0
4, 25312, Note_on_c, 1, 60, 64
4, 25342, Note_on_c, 1, 60, 0
4, 25344, Note_on_c, 1, 53, 64
4, 25374, Note_on_c, 1, 53, 0
4, 25376, Note_on_c, 1, 57, 64
4, 25406, Note_on_c, 1, 57, 0
4, 25408, Note_on_c, 1, 60, 64
4, 25438, Note_on_c, 1, 60, 0
4, 25440, Note_on_c, 1, 53, 64
4, 25470, Note_on_c, 1, 53, 0
4, 25472, Note_on_c, 1, 57, 64
4, 25502, Note_on_c, 1, 57, 0
4, 25504, Note_on_c, 1, 60, 64
4, 25534, Note_on_c, 1, 60, 0
4, 25536, Note_on_c, 1, 53, 64
4, 25566, Note_on_c, 1, 53, 0
4, 25568, Note_on_c, 1, 57, 64
4, 25598, Note_on_c, 1, 57, 0
4, 25600, Note_on_c, 1, 60, 64
4, 25630, Note_on_c, 1, 60, 0
4, 25632, Note_on_c, 1, 49, 64
4, 25662, Note_on_c, 1, 49, 0
4, 25664, Note_on_c, 1, 52, 64
4, 25694, Note_on_c, 1, 52, 0
4, 25696, Note_on_c, 1, 55, 64
4, 25726, Note_on_c, 1, 55, 0
4, 25728, Note_on_c, 1, 49, 64
4, 25758, Note_on_c, 1, 49, 0
4, 25760, Note_on_c, 1, 52, 64
4, 25790, Note_on_c, 1, 52, 0
4, 25792, Note_on_c, 1, 55, 64
4, 25822, Note_on_c, 1, 55, 0
4, 25824, Note_on_c, 1, 49, 64
4, 25854, Note_on_c, 1, 49, 0
4, 25856, Note_on_c, 1, 52, 64
4, 25886, Note_on_c, 1, 52, 0
4, 25888, Note_on_c, 1, 55, 64
4, 25918, Note_on_c, 1, 55, 0
4, 25920, Note_on_c, 1, 50, 64
4, 25950, Note_on_c, 1, 50, 0
4, 25952, Note_on_c, 1, 53, 64
4, 25982, Note_on_c, 1, 53, 0
4, 25984, Note_on_c, 1, 57, 64
4, 26014, Note_on_c, 1, 57, 0
4, 26016, Note_on_c, 1, 50, 64
4, 26046, Note_on_c, 1, 50, 0
4, 26048, Note_on_c, 1, 53, 64
4, 26078, Note_on_c, 1, 53, 0
4, 26080, Note_on_c, 1, 57, 64
4, 26110, Note_on_c, 1, 57, 0
4, 26112, Note_on_c, 1, 50, 64
4, 26142, Note_on_c, 1, 50, 0
4, 26144, Note_on_c, 1, 53, 64
4, 26174, Note_on_c, 1, 53, 0
4, 26176, Note_on_c, 1, 57, 64
4, 26206, Note_on_c, 1, 57, 0
4, 26208, Note_on_c, 1, 47, 64
4, 26238, Note_on_c, 1, 47, 0
4, 26240, Note_on_c, 1, 50, 64
4, 26270, Note_on_c, 1, 50, 0
4, 26272, Note_on_c, 1, 55, 64
4, 26302, Note_on_c, 1, 55, 0
4, 26304, Note_on_c, 1, 47, 64
4, 26334, Note_on_c, 1, 47, 0
4, 26336, Note_on_c, 1, 50, 64
4, 26366, Note_on_c, 1, 50, 0
4, 26368, Note_on_c, 1, 55, 64
4, 26398, Note_on_c, 1, 55, 0
4, 26400, Note_on_c, 1, 47, 64
4, 26430, Note_on_c, 1, 47, 0
4, 26432, Note_on_c, 1, 50, 64
4, 26462, Note_on_c, 1, 50, 0
4, 26464, Note_on_c, 1, 55, 64
4, 26494, Note_on_c, 1, 55, 0
4, 26496, Note_on_c, 1, 48, 64
4, 26585, Note_on_c, 1, 48, 0
4, 26688, Note_on_c, 1, 52, 64
4, 26777, Note_on_c, 1, 52, 0
4, 26784, Note_on_c, 1, 53, 64
4, 26873, Note_on_c, 1, 53, 0
4, 26976, Note_on_c, 1, 54, 64
4, 27065, Note_on_c, 1, 54, 0
4, 27072, Note_on_c, 1, 55, 64
4, 27161, Note_on_c, 1, 55, 0
4, 27168, Note_on_c, 1, 43, 64
4, 27257, Note_on_c, 1, 43, 0
4, 27360, Note_on_c, 1, 60, 64
4, 27390, Note_on_c, 1, 60, 0
4, 27392, Note_on_c, 1, 63, 64
4, 27422, Note_on_c, 1, 63, 0
4, 27424, Note_on_c, 1, 67, 64
4, 27454, Note_on_c, 1, 67, 0
4, 27456, Note_on_c, 1, 60, 64
4, 27486, Note_on_c, 1, 60, 0
4, 27488, Note_on_c, 1, 63, 64
4, 27518, Note_on_c, 1, 63, 0
4, 27520, Note_on_c, 1, 67, 64
4, 27550, Note_on_c, 1, 67, 0
4, 27552, Note_on_c, 1, 60, 64
4, 27582, Note_on_c, 1, 60, 0
4, 27584, Note_on_c, 1, 63, 64
4, 27614, Note_on_c, 1, 63, 0
4, 27616, Note_on_c, 1, 67, 64
4, 27646, Note_on_c, 1, 67, 0
4, 27648, Note_on_c, 1, 59, 64
4, 27678, Note_on_c, 1, 59, 0
4, 27680, Note_on_c, 1, 62, 64
4, 27710, Note_on_c, 1, 62, 0
4, 27712, Note_on_c, 1, 67, 64
4, 27742, Note_on_c, 1, 67, 0
4, 27744, Note_on_c, 1, 59, 64
4, 27774, Note_on_c, 1, 59, 0
4, 27776, Note_on_c, 1, 62, 64
4, 27806, Note_on_c, 1, 62, 0
4, 27808, Note_on_c, 1, 67, 64
4, 27838, Note_on_c, 1, 67, 0
4, 27840, Note_on_c, 1, 59, 64
4, 27870, Note_on_c, 1, 59, 0
4, 27872, Note_on_c, 1, 62, 64
4, 27902, Note_on_c, 1, 62, 0
4, 27904, Note_on_c, 1, 67, 64
4, 27934, Note_on_c, 1, 67, 0
4, 27936, Note_on_c, 1, 60, 64
4, 28025, Note_on_c, 1, 60, 0
4, 28128, Note_on_c, 1, 72, 64
4, 28128, Note_on_c, 1, 68, 64
4, 28217, Note_on_c, 1, 72, 0
4, 28217, Note_on_c, 1, 68, 0
4, 28224, Note_on_c, 1, 72, 64
4, 28320, Note_on_c, 1, 72, 0
4, 28320, Note_on_c, 1, 71, 64
4, 28320, Note_on_c, 1, 67, 64
4, 28401, Note_on_c, 1, 71, 0
4, 28401, Note_on_c, 1, 67, 0
4, 28512, Note_on_c, 1, 48, 64
4, 28542, Note_on_c, 1, 48, 0
4, 28544, Note_on_c, 1, 51, 64
4, 28574, Note_on_c, 1, 51, 0
4, 28576, Note_on_c, 1, 55, 64
4, 28606, Note_on_c, 1, 55, 0
4, 28608, Note_on_c, 1, 48, 64
4, 28638, Note_on_c, 1, 48, 0
4, 28640, Note_on_c, 1, 51, 64
4, 28670, Note_on_c, 1, 51, 0
4, 28672, Note_on_c, 1, 55, 64
4, 28702, Note_on_c, 1, 55, 0
4, 28704, Note_on_c, 1, 48, 64
4, 28734, Note_on_c, 1, 48, 0
4, 28736, Note_on_c, 1, 51, 64
4, 28766, Note_on_c, 1, 51, 0
4, 28768, Note_on_c, 1, 55, 64
4, 28798, Note_on_c, 1, 55, 0
4, 28800, Note_on_c, 1, 47, 64
4, 28830, Note_on_c, 1, 47, 0
4, 28832, Note_on_c, 1, 50, 64
4, 28862, Note_on_c, 1, 50, 0
4, 28864, Note_on_c, 1, 55, 64
4, 28894, Note_on_c, 1, 55, 0
4, 28896, Note_on_c, 1, 47, 64
4, 28926, Note_on_c, 1, 47, 0
4, 28928, Note_on_c, 1, 50, 64
4, 28958, Note_on_c, 1, 50, 0
4, 28960, Note_on_c, 1, 55, 64
4, 28990, Note_on_c, 1, 55, 0
4, 28992, Note_on_c, 1, 47, 64
4, 29022, Note_on_c, 1, 47, 0
4, 29024, Note_on_c, 1, 50, 64
4, 29054, Note_on_c, 1, 50, 0
4, 29056, Note_on_c, 1, 55, 64
4, 29086, Note_on_c, 1, 55, 0
4, 29088, Note_on_c, 1, 48, 64
4, 29177, Note_on_c, 1, 48, 0
4, 29280, Note_on_c, 1, 60, 64
4, 29280, Note_on_c, 1, 56, 64
4, 29369, Note_on_c, 1, 60, 0
4, 29369, Note_on_c, 1, 56, 0
4, 29376, Note_on_c, 1, 60, 64
4, 29472, Note_on_c, 1, 60, 0
4, 29472, Note_on_c, 1, 59, 64
4, 29472, Note_on_c, 1, 55, 64
4, 29553, Note_on_c, 1, 59, 0
4, 29553, Note_on_c, 1, 55, 0
4, 29664, Note_on_c, 1, 47, 64
4, 29694, Note_on_c, 1, 47, 0
4, 29696, Note_on_c, 1, 50, 64
4, 29726, Note_on_c, 1, 50, 0
4, 29728, Note_on_c, 1, 55, 64
4, 29758, Note_on_c, 1, 55, 0
4, 29760, Note_on_c, 1, 47, 64
4, 29790, Note_on_c, 1, 47, 0
4, 29792, Note_on_c, 1, 50, 64
4, 29822, Note_on_c, 1, 50, 0
4, 29824, Note_on_c, 1, 55, 64
4, 29854, Note_on_c, 1, 55, 0
4, 29856, Note_on_c, 1, 47, 64
4, 29886, Note_on_c, 1, 47, 0
4, 29888, Note_on_c, 1, 50, 64
4, 29918, Note_on_c, 1, 50, 0
4, 29920, Note_on_c, 1, 55, 64
4, 29950, Note_on_c, 1, 55, 0
4, 29952, Note_on_c, 1, 48, 64
4, 29982, Note_on_c, 1, 48, 0
4, 29984, Note_on_c, 1, 52, 64
4, 30014, Note_on_c, 1, 52, 0
4, 30016, Note_on_c, 1, 55, 64
4, 30046, Note_on_c, 1, 55, 0
4, 30048, Note_on_c, 1, 48, 64
4, 30078, Note_on_c, 1, 48, 0
4, 30080, Note_on_c, 1, 52, 64
4, 30110, Note_on_c, 1, 52, 0
4, 30112, Note_on_c, 1, 55, 64
4, 30142, Note_on_c, 1, 55, 0
4, 30144, Note_on_c, 1, 48, 58
4, 30174, Note_on_c, 1, 48, 0
4, 30176, Note_on_c, 1, 52, 58
4, 30206, Note_on_c, 1, 52, 0
4, 30208, Note_on_c, 1, 55, 58
4, 30238, Note_on_c, 1, 55, 0
4, 30240, Note_on_c, 1, 47, 58
4, 30270, Note_on_c, 1, 47, 0
4, 30272, Note_on_c, 1, 50, 58
4, 30302, Note_on_c, 1, 50, 0
4, 30304, Note_on_c, 1, 55, 58
4, 30334, Note_on_c, 1, 55, 0
4, 30336, Note_on_c, 1, 47, 58
4, 30366, Note_on_c, 1, 47, 0
4, 30368, Note_on_c, 1, 50, 58
4, 30398, Note_on_c, 1, 50, 0
4, 30400, Note_on_c, 1, 55, 58
4, 30430, Note_on_c, 1, 55, 0
4, 30432, Note_on_c, 1, 47, 58
4, 30462, Note_on_c, 1, 47, 0
4, 30464, Note_on_c, 1, 50, 58
4, 30494, Note_on_c, 1, 50, 0
4, 30496, Note_on_c, 1, 55, 58
4, 30526, Note_on_c, 1, 55, 0
4, 30528, Note_on_c, 1, 48, 58
4, 30558, Note_on_c, 1, 48, 0
4, 30560, Note_on_c, 1, 52, 58
4, 30590, Note_on_c, 1, 52, 0
4, 30592, Note_on_c, 1, 55, 58
4, 30622, Note_on_c, 1, 55, 0
4, 30624, Note_on_c, 1, 48, 58
4, 30654, Note_on_c, 1, 48, 0
4, 30656, Note_on_c, 1, 52, 58
4, 30686, Note_on_c, 1, 52, 0
4, 30688, Note_on_c, 1, 55, 58
4, 30718, Note_on_c, 1, 55, 0
4, 30720, Note_on_c, 1, 48, 64
4, 30750, Note_on_c, 1, 48, 0
4, 30752, Note_on_c, 1, 52, 64
4, 30782, Note_on_c, 1, 52, 0
4, 30784, Note_on_c, 1, 55, 64
4, 30814, Note_on_c, 1, 55, 0
4, 30816, Note_on_c, 1, 52, 64
4, 30846, Note_on_c, 1, 52, 0
4, 30848, Note_on_c, 1, 55, 64
4, 30878, Note_on_c, 1, 55, 0
4, 30880, Note_on_c, 1, 60, 65
4, 30910, Note_on_c, 1, 60, 0
4, 30912, Note_on_c, 1, 52, 66
4, 30942, Note_on_c, 1, 52, 0
4, 30944, Note_on_c, 1, 55, 67
4, 30974, Note_on_c, 1, 55, 0
4, 30976, Note_on_c, 1, 60, 68
4, 31006, Note_on_c, 1, 60, 0
4, 31008, Note_on_c, 1, 52, 68
4, 31038, Note_on_c, 1, 52, 0
4, 31040, Note_on_c, 1, 55, 70
4, 31070, Note_on_c, 1, 55, 0
4, 31072, Note_on_c, 1, 60, 70
4, 31102, Note_on_c, 1, 60, 0
4, 31104, Note_on_c, 1, 53, 70
4, 31134, Note_on_c, 1, 53, 0
4, 31136, Note_on_c, 1, 57, 70
4, 31166, Note_on_c, 1, 57, 0
4, 31168, Note_on_c, 1, 62, 70
4, 31198, Note_on_c, 1, 62, 0
4, 31200, Note_on_c, 1, 53, 70
4, 31230, Note_on_c, 1, 53, 0
4, 31232, Note_on_c, 1, 57, 70
4, 31262, Note_on_c, 1, 57, 0
4, 31264, Note_on_c, 1, 62, 70
4, 31294, Note_on_c, 1, 62, 0
4, 31296, Note_on_c, 1, 53, 70
4, 31326, Note_on_c, 1, 53, 0
4, 31328, Note_on_c, 1, 57, 70
4, 31358, Note_on_c, 1, 57, 0
4, 31360, Note_on_c, 1, 62, 70
4, 31390, Note_on_c, 1, 62, 0
4, 31392, Note_on_c, 1, 55, 70
4, 31422, Note_on_c, 1, 55, 0
4, 31424, Note_on_c, 1, 60, 69
4, 31454, Note_on_c, 1, 60, 0
4, 31456, Note_on_c, 1, 64, 68
4, 31486, Note_on_c, 1, 64, 0
4, 31488, Note_on_c, 1, 55, 68
4, 31518, Note_on_c, 1, 55, 0
4, 31520, Note_on_c, 1, 60, 67
4, 31550, Note_on_c, 1, 60, 0
4, 31552, Note_on_c, 1, 64, 66
4, 31582, Note_on_c, 1, 64, 0
4, 31584, Note_on_c, 1, 55, 66
4, 31614, Note_on_c, 1, 55, 0
4, 31616, Note_on_c, 1, 62, 65
4, 31646, Note_on_c, 1, 62, 0
4, 31648, Note_on_c, 1, 65, 65
4, 31678, Note_on_c, 1, 65, 0
4, 31680, Note_on_c, 1, 60, 64
4, 31710, Note_on_c, 1, 60, 0
4, 31712, Note_on_c, 1, 64, 64
4, 31742, Note_on_c, 1, 64, 0
4, 31744, Note_on_c, 1, 67, 64
4, 31774, Note_on_c, 1, 67, 0
4, 31776, Note_on_c, 1, 60, 64
4, 31806, Note_on_c, 1, 60, 0
4, 31808, Note_on_c, 1, 64, 64
4, 31838, Note_on_c, 1, 64, 0
4, 31840, Note_on_c, 1, 67, 64
4, 31870, Note_on_c, 1, 67, 0
4, 31872, Note_on_c, 1, 60, 64
4, 31902, Note_on_c, 1, 60, 0
4, 31904, Note_on_c, 1, 64, 64
4, 31934, Note_on_c, 1, 64, 0
4, 31936, Note_on_c, 1, 67, 64
4, 31966, Note_on_c, 1, 67, 0
4, 31968, Note_on_c, 1, 59, 64
4, 31998, Note_on_c, 1, 59, 0
4, 32000, Note_on_c, 1, 62, 64
4, 32030, Note_on_c, 1, 62, 0
4, 32032, Note_on_c, 1, 67, 64
4, 32062, Note_on_c, 1, 67, 0
4, 32064, Note_on_c, 1, 59, 64
4, 32094, Note_on_c, 1, 59, 0
4, 32096, Note_on_c, 1, 62, 64
4, 32126, Note_on_c, 1, 62, 0
4, 32128, Note_on_c, 1, 67, 64
4, 32158, Note_on_c, 1, 67, 0
4, 32160, Note_on_c, 1, 59, 64
4, 32190, Note_on_c, 1, 59, 0
4, 32192, Note_on_c, 1, 62, 64
4, 32222, Note_on_c, 1, 62, 0
4, 32224, Note_on_c, 1, 67, 64
4, 32254, Note_on_c, 1, 67, 0
4, 32256, Note_on_c, 1, 60, 64
4, 32286, Note_on_c, 1, 60, 0
4, 32288, Note_on_c, 1, 64, 64
4, 32318, Note_on_c, 1, 64, 0
4, 32320, Note_on_c, 1, 67, 64
4, 32350, Note_on_c, 1, 67, 0
4, 32352, Note_on_c, 1, 60, 64
4, 32382, Note_on_c, 1, 60, 0
4, 32384, Note_on_c, 1, 64, 64
4, 32414, Note_on_c, 1, 64, 0
4, 32416, Note_on_c, 1, 67, 64
4, 32446, Note_on_c, 1, 67, 0
4, 32448, Note_on_c, 1, 60, 64
4, 32478, Note_on_c, 1, 60, 0
4, 32480, Note_on_c, 1, 64, 64
4, 32510, Note_on_c, 1, 64, 0
4, 32512, Note_on_c, 1, 67, 64
4, 32542, Note_on_c, 1, 67, 0
4, 32544, Note_on_c, 1, 59, 64
4, 32574, Note_on_c, 1, 59, 0
4, 32576, Note_on_c, 1, 62, 64
4, 32606, Note_on_c, 1, 62, 0
4, 32608, Note_on_c, 1, 67, 64
4, 32638, Note_on_c, 1, 67, 0
4, 32640, Note_on_c, 1, 59, 64
4, 32670, Note_on_c, 1, 59, 0
4, 32672, Note_on_c, 1, 62, 64
4, 32702, Note_on_c, 1, 62, 0
4, 32704, Note_on_c, 1, 67, 64
4, 32734, Note_on_c, 1, 67, 0
4, 32736, Note_on_c, 1, 59, 64
4, 32766, Note_on_c, 1, 59, 0
4, 32768, Note_on_c, 1, 62, 64
4, 32798, Note_on_c, 1, 62, 0
4, 32800, Note_on_c, 1, 67, 64
4, 32830, Note_on_c, 1, 67, 0
4, 32832, Note_on_c, 1, 60, 64
4, 32921, Note_on_c, 1, 60, 0
4, 32928, Note_on_c, 1, 62, 64
4, 33017, Note_on_c, 1, 62, 0
4, 33024, Note_on_c, 1, 64, 64
4, 33113, Note_on_c, 1, 64, 0
4, 33120, Note_on_c, 1, 65, 64
4, 33209, Note_on_c, 1, 65, 0
4, 33216, Note_on_c, 1, 67, 64
4, 33305, Note_on_c, 1, 67, 0
4, 33312, Note_on_c, 1, 55, 64
4, 33401, Note_on_c, 1, 55, 0
4, 33408, Note_on_c, 1, 60, 64
4, 33497, Note_on_c, 1, 60, 0
4, 33504, Note_on_c, 1, 62, 66
4, 33593, Note_on_c, 1, 62, 0
4, 33600, Note_on_c, 1, 64, 69
4, 33689, Note_on_c, 1, 64, 0
4, 33696, Note_on_c, 1, 65, 72
4, 33785, Note_on_c, 1, 65, 0
4, 33792, Note_on_c, 1, 67, 75
4, 33881, Note_on_c, 1, 67, 0
4, 33888, Note_on_c, 1, 55, 69
4, 33977, Note_on_c, 1, 55, 0
4, 33984, Note_on_c, 1, 60, 64
4, 34073, Note_on_c, 1, 60, 0
4, 34176, Note_on_c, 1, 62, 71
4, 34176, Note_on_c, 1, 55, 71
4, 34265, Note_on_c, 1, 62, 0
4, 34265, Note_on_c, 1, 55, 0
4, 34272, Note_on_c, 1, 64, 75
4, 34272, Note_on_c, 1, 60, 75
4, 34361, Note_on_c, 1, 64, 0
4, 34361, Note_on_c, 1, 60, 0
4, 34464, Note_on_c, 1, 62, 63
4, 34464, Note_on_c, 1, 55, 63
4, 34553, Note_on_c, 1, 62, 0
4, 34553, Note_on_c, 1, 55, 0
4, 34560, Note_on_c, 1, 64, 58
4, 34560, Note_on_c, 1, 60, 58
4, 34649, Note_on_c, 1, 64, 0
4, 34649, Note_on_c, 1, 60, 0
4, 34848, Note_on_c, 1, 55, 64
4, 34878, Note_on_c, 1, 55, 0
4, 34880, Note_on_c, 1, 59, 64
4, 34910, Note_on_c, 1, 59, 0
4, 34912, Note_on_c, 1, 62, 64
4, 34942, Note_on_c, 1, 62, 0
4, 34944, Note_on_c, 1, 55, 64
4, 34974, Note_on_c, 1, 55, 0
4, 34976, Note_on_c, 1, 59, 64
4, 35006, Note_on_c, 1, 59, 0
4, 35008, Note_on_c, 1, 62, 64
4, 35038, Note_on_c, 1, 62, 0
4, 35040, Note_on_c, 1, 55, 64
4, 35070, Note_on_c, 1, 55, 0
4, 35072, Note_on_c, 1, 59, 64
4, 35102, Note_on_c, 1, 59, 0
4, 35104, Note_on_c, 1, 62, 64
4, 35134, Note_on_c, 1, 62, 0
4, 35136, Note_on_c, 1, 55, 64
4, 35166, Note_on_c, 1, 55, 0
4, 35168, Note_on_c, 1, 59, 64
4, 35198, Note_on_c, 1, 59, 0
4, 35200, Note_on_c, 1, 62, 64
4, 35230, Note_on_c, 1, 62, 0
4, 35232, Note_on_c, 1, 55, 64
4, 35262, Note_on_c, 1, 55, 0
4, 35264, Note_on_c, 1, 59, 64
4, 35294, Note_on_c, 1, 59, 0
4, 35296, Note_on_c, 1, 62, 64
4, 35326, Note_on_c, 1, 62, 0
4, 35328, Note_on_c, 1, 55, 64
4, 35358, Note_on_c, 1, 55, 0
4, 35360, Note_on_c, 1, 59, 64
4, 35390, Note_on_c, 1, 59, 0
4, 35392, Note_on_c, 1, 62, 64
4, 35422, Note_on_c, 1, 62, 0
4, 35424, Note_on_c, 1, 54, 64
4, 35454, Note_on_c, 1, 54, 0
4, 35456, Note_on_c, 1, 57, 64
4, 35486, Note_on_c, 1, 57, 0
4, 35488, Note_on_c, 1, 62, 64
4, 35518, Note_on_c, 1, 62, 0
4, 35520, Note_on_c, 1, 54, 64
4, 35550, Note_on_c, 1, 54, 0
4, 35552, Note_on_c, 1, 57, 64
4, 35582, Note_on_c, 1, 57, 0
4, 35584, Note_on_c, 1, 62, 64
4, 35614, Note_on_c, 1, 62, 0
4, 35616, Note_on_c, 1, 54, 64
4, 35646, Note_on_c, 1, 54, 0
4, 35648, Note_on_c, 1, 57, 64
4, 35678, Note_on_c, 1, 57, 0
4, 35680, Note_on_c, 1, 62, 64
4, 35710, Note_on_c, 1, 62, 0
4, 35712, Note_on_c, 1, 55, 64
4, 35742, Note_on_c, 1, 55, 0
4, 35744, Note_on_c, 1, 59, 64
4, 35774, Note_on_c, 1, 59, 0
4, 35776, Note_on_c, 1, 62, 64
4, 35806, Note_on_c, 1, 62, 0
4, 35808, Note_on_c, 1, 55, 64
4, 35838, Note_on_c, 1, 55, 0
4, 35840, Note_on_c, 1, 59, 64
4, 35870, Note_on_c, 1, 59, 0
4, 35872, Note_on_c, 1, 62, 64
4, 35902, Note_on_c, 1, 62, 0
4, 35904, Note_on_c, 1, 55, 64
4, 35934, Note_on_c, 1, 55, 0
4, 35936, Note_on_c, 1, 59, 64
4, 35966, Note_on_c, 1, 59, 0
4, 35968, Note_on_c, 1, 62, 64
4, 35998, Note_on_c, 1, 62, 0
4, 36000, Note_on_c, 1, 57, 64
4, 36030, Note_on_c, 1, 57, 0
4, 36032, Note_on_c, 1, 60, 64
4, 36062, Note_on_c, 1, 60, 0
4, 36064, Note_on_c, 1, 62, 64
4, 36094, Note_on_c, 1, 62, 0
4, 36096, Note_on_c, 1, 57, 64
4, 36126, Note_on_c, 1, 57, 0
4, 36128, Note_on_c, 1, 60, 64
4, 36158, Note_on_c, 1, 60, 0
4, 36160, Note_on_c, 1, 62, 64
4, 36190, Note_on_c, 1, 62, 0
4, 36192, Note_on_c, 1, 57, 64
4, 36222, Note_on_c, 1, 57, 0
4, 36224, Note_on_c, 1, 60, 64
4, 36254, Note_on_c, 1, 60, 0
4, 36256, Note_on_c, 1, 62, 64
4, 36286, Note_on_c, 1, 62, 0
4, 36288, Note_on_c, 1, 55, 64
4, 36318, Note_on_c, 1, 55, 0
4, 36320, Note_on_c, 1, 59, 64
4, 36350, Note_on_c, 1, 59, 0
4, 36352, Note_on_c, 1, 62, 64
4, 36382, Note_on_c, 1, 62, 0
4, 36384, Note_on_c, 1, 55, 64
4, 36414, Note_on_c, 1, 55, 0
4, 36416, Note_on_c, 1, 59, 64
4, 36446, Note_on_c, 1, 59, 0
4, 36448, Note_on_c, 1, 62, 64
4, 36478, Note_on_c, 1, 62, 0
4, 36480, Note_on_c, 1, 55, 64
4, 36510, Note_on_c, 1, 55, 0
4, 36512, Note_on_c, 1, 59, 64
4, 36542, Note_on_c, 1, 59, 0
4, 36544, Note_on_c, 1, 62, 64
4, 36574, Note_on_c, 1, 62, 0
4, 36576, Note_on_c, 1, 54, 64
4, 36606, Note_on_c, 1, 54, 0
4, 36608, Note_on_c, 1, 57, 64
4, 36638, Note_on_c, 1, 57, 0
4, 36640, Note_on_c, 1, 62, 64
4, 36670, Note_on_c, 1, 62, 0
4, 36672, Note_on_c, 1, 54, 64
4, 36702, Note_on_c, 1, 54, 0
4, 36704, Note_on_c, 1, 57, 64
4, 36734, Note_on_c, 1, 57, 0
4, 36736, Note_on_c, 1, 62, 64
4, 36766, Note_on_c, 1, 62, 0
4, 36768, Note_on_c, 1, 54, 64
4, 36798, Note_on_c, 1, 54, 0
4, 36800, Note_on_c, 1, 57, 64
4, 36830, Note_on_c, 1, 57, 0
4, 36832, Note_on_c, 1, 62, 64
4, 36862, Note_on_c, 1, 62, 0
4, 36864, Note_on_c, 1, 55, 64
4, 36894, Note_on_c, 1, 55, 0
4, 36896, Note_on_c, 1, 59, 64
4, 36926, Note_on_c, 1, 59, 0
4, 36928, Note_on_c, 1, 62, 64
4, 36958, Note_on_c, 1, 62, 0
4, 36960, Note_on_c, 1, 55, 64
4, 36990, Note_on_c, 1, 55, 0
4, 36992, Note_on_c, 1, 59, 64
4, 37022, Note_on_c, 1, 59, 0
4, 37024, Note_on_c, 1, 62, 64
4, 37054, Note_on_c, 1, 62, 0
4, 37056, Note_on_c, 1, 60, 64
4, 37086, Note_on_c, 1, 60, 0
4, 37088, Note_on_c, 1, 64, 64
4, 37118, Note_on_c, 1, 64, 0
4, 37120, Note_on_c, 1, 67, 64
4, 37150, Note_on_c, 1, 67, 0
4, 37152, Note_on_c, 1, 62, 64
4, 37182, Note_on_c, 1, 62, 0
4, 37184, Note_on_c, 1, 65, 64
4, 37214, Note_on_c, 1, 65, 0
4, 37216, Note_on_c, 1, 67, 64
4, 37246, Note_on_c, 1, 67, 0
4, 37248, Note_on_c, 1, 62, 64
4, 37278, Note_on_c, 1, 62, 0
4, 37280, Note_on_c, 1, 65, 64
4, 37310, Note_on_c, 1, 65, 0
4, 37312, Note_on_c, 1, 67, 64
4, 37342, Note_on_c, 1, 67, 0
4, 37344, Note_on_c, 1, 62, 64
4, 37374, Note_on_c, 1, 62, 0
4, 37376, Note_on_c, 1, 65, 64
4, 37406, Note_on_c, 1, 65, 0
4, 37408, Note_on_c, 1, 67, 64
4, 37438, Note_on_c, 1, 67, 0
4, 37440, Note_on_c, 1, 60, 64
4, 37470, Note_on_c, 1, 60, 0
4, 37472, Note_on_c, 1, 64, 64
4, 37502, Note_on_c, 1, 64, 0
4, 37504, Note_on_c, 1, 67, 64
4, 37534, Note_on_c, 1, 67, 0
4, 37536, Note_on_c, 1, 60, 64
4, 37566, Note_on_c, 1, 60, 0
4, 37568, Note_on_c, 1, 64, 64
4, 37598, Note_on_c, 1, 64, 0
4, 37600, Note_on_c, 1, 67, 64
4, 37630, Note_on_c, 1, 67, 0
4, 37632, Note_on_c, 1, 60, 64
4, 37662, Note_on_c, 1, 60, 0
4, 37664, Note_on_c, 1, 64, 64
4, 37694, Note_on_c, 1, 64, 0
4, 37696, Note_on_c, 1, 67, 64
4, 37726, Note_on_c, 1, 67, 0
4, 37728, Note_on_c, 1, 59, 64
4, 37758, Note_on_c, 1, 59, 0
4, 37760, Note_on_c, 1, 62, 64
4, 37790, Note_on_c, 1, 62, 0
4, 37792, Note_on_c, 1, 67, 64
4, 37822, Note_on_c, 1, 67, 0
4, 37824, Note_on_c, 1, 59, 64
4, 37854, Note_on_c, 1, 59, 0
4, 37856, Note_on_c, 1, 62, 64
4, 37886, Note_on_c, 1, 62, 0
4, 37888, Note_on_c, 1, 67, 64
4, 37918, Note_on_c, 1, 67, 0
4, 37920, Note_on_c, 1, 59, 64
4, 37950, Note_on_c, 1, 59, 0
4, 37952, Note_on_c, 1, 62, 64
4, 37982, Note_on_c, 1, 62, 0
4, 37984, Note_on_c, 1, 67, 64
4, 38014, Note_on_c, 1, 67, 0
4, 38016, Note_on_c, 1, 60, 64
4, 38046, Note_on_c, 1, 60, 0
4, 38048, Note_on_c, 1, 64, 64
4, 38078, Note_on_c, 1, 64, 0
4, 38080, Note_on_c, 1, 67, 64
4, 38110, Note_on_c, 1, 67, 0
4, 38112, Note_on_c, 1, 60, 64
4, 38142, Note_on_c, 1, 60, 0
4, 38144, Note_on_c, 1, 64, 64
4, 38174, Note_on_c, 1, 64, 0
4, 38176, Note_on_c, 1, 67, 64
4, 38206, Note_on_c, 1, 67, 0
4, 38208, Note_on_c, 1, 60, 64
4, 38238, Note_on_c, 1, 60, 0
4, 38240, Note_on_c, 1, 64, 64
4, 38270, Note_on_c, 1, 64, 0
4, 38272, Note_on_c, 1, 67, 64
4, 38302, Note_on_c, 1, 67, 0
4, 38304, Note_on_c, 1, 58, 64
4, 38334, Note_on_c, 1, 58, 0
4, 38336, Note_on_c, 1, 64, 64
4, 38366, Note_on_c, 1, 64, 0
4, 38368, Note_on_c, 1, 67, 64
4, 38398, Note_on_c, 1, 67, 0
4, 38400, Note_on_c, 1, 58, 64
4, 38430, Note_on_c, 1, 58, 0
4, 38432, Note_on_c, 1, 64, 64
4, 38462, Note_on_c, 1, 64, 0
4, 38464, Note_on_c, 1, 67, 64
4, 38494, Note_on_c, 1, 67, 0
4, 38496, Note_on_c, 1, 58, 64
4, 38526, Note_on_c, 1, 58, 0
4, 38528, Note_on_c, 1, 64, 64
4, 38558, Note_on_c, 1, 64, 0
4, 38560, Note_on_c, 1, 67, 64
4, 38590, Note_on_c, 1, 67, 0
4, 38592, Note_on_c, 1, 57, 64
4, 38622, Note_on_c, 1, 57, 0
4, 38624, Note_on_c, 1, 60, 64
4, 38654, Note_on_c, 1, 60, 0
4, 38656, Note_on_c, 1, 65, 64
4, 38686, Note_on_c, 1, 65, 0
4, 38688, Note_on_c, 1, 57, 64
4, 38718, Note_on_c, 1, 57, 0
4, 38720, Note_on_c, 1, 60, 64
4, 38750, Note_on_c, 1, 60, 0
4, 38752, Note_on_c, 1, 65, 64
4, 38782, Note_on_c, 1, 65, 0
4, 38784, Note_on_c, 1, 57, 64
4, 38814, Note_on_c, 1, 57, 0
4, 38816, Note_on_c, 1, 60, 64
4, 38846, Note_on_c, 1, 60, 0
4, 38848, Note_on_c, 1, 65, 64
4, 38878, Note_on_c, 1, 65, 0
4, 38880, Note_on_c, 1, 52, 64
4, 38910, Note_on_c, 1, 52, 0
4, 38912, Note_on_c, 1, 55, 64
4, 38942, Note_on_c, 1, 55, 0
4, 38944, Note_on_c, 1, 60, 64
4, 38974, Note_on_c, 1, 60, 0
4, 38976, Note_on_c, 1, 52, 64
4, 39006, Note_on_c, 1, 52, 0
4, 39008, Note_on_c, 1, 55, 64
4, 39038, Note_on_c, 1, 55, 0
4, 39040, Note_on_c, 1, 60, 64
4, 39070, Note_on_c, 1, 60, 0
4, 39072, Note_on_c, 1, 52, 64
4, 39102, Note_on_c, 1, 52, 0
4, 39104, Note_on_c, 1, 55, 64
4, 39134, Note_on_c, 1, 55, 0
4, 39136, Note_on_c, 1, 60, 64
4, 39166, Note_on_c, 1, 60, 0
4, 39168, Note_on_c, 1, 53, 64
4, 39198, Note_on_c, 1, 53, 0
4, 39200, Note_on_c, 1, 57, 64
4, 39230, Note_on_c, 1, 57, 0
4, 39232, Note_on_c, 1, 60, 64
4, 39262, Note_on_c, 1, 60, 0
4, 39264, Note_on_c, 1, 53, 64
4, 39294, Note_on_c, 1, 53, 0
4, 39296, Note_on_c, 1, 57, 64
4, 39326, Note_on_c, 1, 57, 0
4, 39328, Note_on_c, 1, 60, 64
4, 39358, Note_on_c, 1, 60, 0
4, 39360, Note_on_c, 1, 53, 64
4, 39390, Note_on_c, 1, 53, 0
4, 39392, Note_on_c, 1, 57, 64
4, 39422, Note_on_c, 1, 57, 0
4, 39424, Note_on_c, 1, 60, 64
4, 39454, Note_on_c, 1, 60, 0
4, 39456, Note_on_c, 1, 49, 64
4, 39486, Note_on_c, 1, 49, 0
4, 39488, Note_on_c, 1, 52, 64
4, 39518, Note_on_c, 1, 52, 0
4, 39520, Note_on_c, 1, 55, 64
4, 39550, Note_on_c, 1, 55, 0
4, 39552, Note_on_c, 1, 49, 64
4, 39582, Note_on_c, 1, 49, 0
4, 39584, Note_on_c, 1, 52, 64
4, 39614, Note_on_c, 1, 52, 0
4, 39616, Note_on_c, 1, 55, 64
4, 39646, Note_on_c, 1, 55, 0
4, 39648, Note_on_c, 1, 49, 64
4, 39678, Note_on_c, 1, 49, 0
4, 39680, Note_on_c, 1, 52, 64
4, 39710, Note_on_c, 1, 52, 0
4, 39712, Note_on_c, 1, 55, 64
4, 39742, Note_on_c, 1, 55, 0
4, 39744, Note_on_c, 1, 50, 64
4, 39774, Note_on_c, 1, 50, 0
4, 39776, Note_on_c, 1, 53, 64
4, 39806, Note_on_c, 1, 53, 0
4, 39808, Note_on_c, 1, 57, 64
4, 39838, Note_on_c, 1, 57, 0
4, 39840, Note_on_c, 1, 50, 64
4, 39870, Note_on_c, 1, 50, 0
4, 39872, Note_on_c, 1, 53, 64
4, 39902, Note_on_c, 1, 53, 0
4, 39904, Note_on_c, 1, 57, 64
4, 39934, Note_on_c, 1, 57, 0
4, 39936, Note_on_c, 1, 50, 64
4, 39966, Note_on_c, 1, 50, 0
4, 39968, Note_on_c, 1, 53, 64
4, 39998, Note_on_c, 1, 53, 0
4, 40000, Note_on_c, 1, 57, 64
4, 40030, Note_on_c, 1, 57, 0
4, 40032, Note_on_c, 1, 47, 64
4, 40062, Note_on_c, 1, 47, 0
4, 40064, Note_on_c, 1, 50, 64
4, 40094, Note_on_c, 1, 50, 0
4, 40096, Note_on_c, 1, 55, 64
4, 40126, Note_on_c, 1, 55, 0
4, 40128, Note_on_c, 1, 47, 64
4, 40158, Note_on_c, 1, 47, 0
4, 40160, Note_on_c, 1, 50, 64
4, 40190, Note_on_c, 1, 50, 0
4, 40192, Note_on_c, 1, 55, 64
4, 40222, Note_on_c, 1, 55, 0
4, 40224, Note_on_c, 1, 47, 64
4, 40254, Note_on_c, 1, 47, 0
4, 40256, Note_on_c, 1, 50, 64
4, 40286, Note_on_c, 1, 50, 0
4, 40288, Note_on_c, 1, 55, 64
4, 40318, Note_on_c, 1, 55, 0
4, 40320, Note_on_c, 1, 48, 64
4, 40409, Note_on_c, 1, 48, 0
4, 40512, Note_on_c, 1, 52, 64
4, 40601, Note_on_c, 1, 52, 0
4, 40608, Note_on_c, 1, 53, 64
4, 40697, Note_on_c, 1, 53, 0
4, 40800, Note_on_c, 1, 54, 64
4, 40889, Note_on_c, 1, 54, 0
4, 40896, Note_on_c, 1, 55, 64
4, 40985, Note_on_c, 1, 55, 0
4, 40992, Note_on_c, 1, 43, 64
4, 41081, Note_on_c, 1, 43, 0
4, 41184, Note_on_c, 1, 60, 64
4, 41214, Note_on_c, 1, 60, 0
4, 41216, Note_on_c, 1, 63, 64
4, 41246, Note_on_c, 1, 63, 0
4, 41248, Note_on_c, 1, 67, 64
4, 41278, Note_on_c, 1, 67, 0
4, 41280, Note_on_c, 1, 60, 64
4, 41310, Note_on_c, 1, 60, 0
4, 41312, Note_on_c, 1, 63, 64
4, 41342, Note_on_c, 1, 63, 0
4, 41344, Note_on_c, 1, 67, 64
4, 41374, Note_on_c, 1, 67, 0
4, 41376, Note_on_c, 1, 60, 64
4, 41406, Note_on_c, 1, 60, 0
4, 41408, Note_on_c, 1, 63, 64
4, 41438, Note_on_c, 1, 63, 0
4, 41440, Note_on_c, 1, 67, 64
4, 41470, Note_on_c, 1, 67, 0
4, 41472, Note_on_c, 1, 59, 64
4, 41502, Note_on_c, 1, 59, 0
4, 41504, Note_on_c, 1, 62, 64
4, 41534, Note_on_c, 1, 62, 0
4, 41536, Note_on_c, 1, 67, 64
4, 41566, Note_on_c, 1, 67, 0
4, 41568, Note_on_c, 1, 59, 64
4, 41598, Note_on_c, 1, 59, 0
4, 41600, Note_on_c, 1, 62, 64
4, 41630, Note_on_c, 1, 62, 0
4, 41632, Note_on_c, 1, 67, 64
4, 41662, Note_on_c, 1, 67, 0
4, 41664, Note_on_c, 1, 59, 64
4, 41694, Note_on_c, 1, 59, 0
4, 41696, Note_on_c, 1, 62, 64
4, 41726, Note_on_c, 1, 62, 0
4, 41728, Note_on_c, 1, 67, 64
4, 41758, Note_on_c, 1, 67, 0
4, 41760, Note_on_c, 1, 60, 64
4, 41849, Note_on_c, 1, 60, 0
4, 41952, Note_on_c, 1, 72, 64
4, 41952, Note_on_c, 1, 68, 64
4, 42041, Note_on_c, 1, 72, 0
4, 42041, Note_on_c, 1, 68, 0
4, 42048, Note_on_c, 1, 72, 64
4, 42144, Note_on_c, 1, 72, 0
4, 42144, Note_on_c, 1, 71, 64
4, 42144, Note_on_c, 1, 67, 64
4, 42225, Note_on_c, 1, 71, 0
4, 42225, Note_on_c, 1, 67, 0
4, 42336, Note_on_c, 1, 48, 64
4, 42366, Note_on_c, 1, 48, 0
4, 42368, Note_on_c, 1, 51, 64
4, 42398, Note_on_c, 1, 51, 0
4, 42400, Note_on_c, 1, 55, 64
4, 42430, Note_on_c, 1, 55, 0
4, 42432, Note_on_c, 1, 48, 64
4, 42462, Note_on_c, 1, 48, 0
4, 42464, Note_on_c, 1, 51, 64
4, 42494, Note_on_c, 1, 51, 0
4, 42496, Note_on_c, 1, 55, 64
4, 42526, Note_on_c, 1, 55, 0
4, 42528, Note_on_c, 1, 48, 64
4, 42558, Note_on_c, 1, 48, 0
4, 42560, Note_on_c, 1, 51, 64
4, 42590, Note_on_c, 1, 51, 0
4, 42592, Note_on_c, 1, 55, 64
4, 42622, Note_on_c, 1, 55, 0
4, 42624, Note_on_c, 1, 47, 64
4, 42654, Note_on_c, 1, 47, 0
4, 42656, Note_on_c, 1, 50, 64
4, 42686, Note_on_c, 1, 50, 0
4, 42688, Note_on_c, 1, 55, 64
4, 42718, Note_on_c, 1, 55, 0
4, 42720, Note_on_c, 1, 47, 64
4, 42750, Note_on_c, 1, 47, 0
4, 42752, Note_on_c, 1, 50, 64
4, 42782, Note_on_c, 1, 50, 0
4, 42784, Note_on_c, 1, 55, 64
4, 42814, Note_on_c, 1, 55, 0
4, 42816, Note_on_c, 1, 47, 64
4, 42846, Note_on_c, 1, 47, 0
4, 42848, Note_on_c, 1, 50, 64
4, 42878, Note_on_c, 1, 50, 0
4, 42880, Note_on_c, 1, 55, 64
4, 42910, Note_on_c, 1, 55, 0
4, 42912, Note_on_c, 1, 48, 64
4, 43001, Note_on_c, 1, 48, 0
4, 43104, Note_on_c, 1, 60, 64
4, 43104, Note_on_c, 1, 56, 64
4, 43193, Note_on_c, 1, 60, 0
4, 43193, Note_on_c, 1, 56, 0
4, 43200, Note_on_c, 1, 60, 64
4, 43296, Note_on_c, 1, 60, 0
4, 43296, Note_on_c, 1, 59, 64
4, 43296, Note_on_c, 1, 55, 64
4, 43377, Note_on_c, 1, 59, 0
4, 43377, Note_on_c, 1, 55, 0
4, 43488, Note_on_c, 1, 47, 64
4, 43518, Note_on_c, 1, 47, 0
4, 43520, Note_on_c, 1, 50, 64
4, 43550, Note_on_c, 1, 50, 0
4, 43552, Note_on_c, 1, 55, 64
4, 43582, Note_on_c, 1, 55, 0
4, 43584, Note_on_c, 1, 47, 64
4, 43614, Note_on_c, 1, 47, 0
4, 43616, Note_on_c, 1, 50, 64
4, 43646, Note_on_c, 1, 50, 0
4, 43648, Note_on_c, 1, 55, 64
4, 43678, Note_on_c, 1, 55, 0
4, 43680, Note_on_c, 1, 47, 64
4, 43710, Note_on_c, 1, 47, 0
4, 43712, Note_on_c, 1, 50, 64
4, 43742, Note_on_c, 1, 50, 0
4, 43744, Note_on_c, 1, 55, 64
4, 43774, Note_on_c, 1, 55, 0
4, 43776, Note_on_c, 1, 48, 64
4, 43806, Note_on_c, 1, 48, 0
4, 43808, Note_on_c, 1, 52, 64
4, 43838, Note_on_c, 1, 52, 0
4, 43840, Note_on_c, 1, 55, 64
4, 43870, Note_on_c, 1, 55, 0
4, 43872, Note_on_c, 1, 48, 64
4, 43902, Note_on_c, 1, 48, 0
4, 43904, Note_on_c, 1, 52, 64
4, 43934, Note_on_c, 1, 52, 0
4, 43936, Note_on_c, 1, 55, 64
4, 43966, Note_on_c, 1, 55, 0
4, 43968, Note_on_c, 1, 48, 58
4, 43998, Note_on_c, 1, 48, 0
4, 44000, Note_on_c, 1, 52, 58
4, 44030, Note_on_c, 1, 52, 0
4, 44032, Note_on_c, 1, 55, 58
4, 44062, Note_on_c, 1, 55, 0
4, 44064, Note_on_c, 1, 47, 58
4, 44094, Note_on_c, 1, 47, 0
4, 44096, Note_on_c, 1, 50, 58
4, 44126, Note_on_c, 1, 50, 0
4, 44128, Note_on_c, 1, 55, 58
4, 44158, Note_on_c, 1, 55, 0
4, 44160, Note_on_c, 1, 47, 58
4, 44190, Note_on_c, 1, 47, 0
4, 44192, Note_on_c, 1, 50, 58
4, 44222, Note_on_c, 1, 50, 0
4, 44224, Note_on_c, 1, 55, 58
4, 44254, Note_on_c, 1, 55, 0
4, 44256, Note_on_c, 1, 47, 58
4, 44286, Note_on_c, 1, 47, 0
4, 44288, Note_on_c, 1, 50, 58
4, 44318, Note_on_c, 1, 50, 0
4, 44320, Note_on_c, 1, 55, 58
4, 44350, Note_on_c, 1, 55, 0
4, 44352, Note_on_c, 1, 48, 58
4, 44382, Note_on_c, 1, 48, 0
4, 44384, Note_on_c, 1, 52, 58
4, 44414, Note_on_c, 1, 52, 0
4, 44416, Note_on_c, 1, 55, 58
4, 44446, Note_on_c, 1, 55, 0
4, 44448, Note_on_c, 1, 48, 58
4, 44478, Note_on_c, 1, 48, 0
4, 44480, Note_on_c, 1, 52, 58
4, 44510, Note_on_c, 1, 52, 0
4, 44512, Note_on_c, 1, 55, 58
4, 44542, Note_on_c, 1, 55, 0
4, 44544, Note_on_c, 1, 48, 64
4, 44574, Note_on_c, 1, 48, 0
4, 44576, Note_on_c, 1, 52, 64
4, 44606, Note_on_c, 1, 52, 0
4, 44608, Note_on_c, 1, 55, 64
4, 44638, Note_on_c, 1, 55, 0
4, 44640, Note_on_c, 1, 52, 64
4, 44670, Note_on_c, 1, 52, 0
4, 44672, Note_on_c, 1, 55, 64
4, 44702, Note_on_c, 1, 55, 0
4, 44704, Note_on_c, 1, 60, 65
4, 44734, Note_on_c, 1, 60, 0
4, 44736, Note_on_c, 1, 52, 66
4, 44766, Note_on_c, 1, 52, 0
4, 44768, Note_on_c, 1, 55, 67
4, 44798, Note_on_c, 1, 55, 0
4, 44800, Note_on_c, 1, 60, 68
4, 44830, Note_on_c, 1, 60, 0
4, 44832, Note_on_c, 1, 52, 68
4, 44862, Note_on_c, 1, 52, 0
4, 44864, Note_on_c, 1, 55, 70
4, 44894, Note_on_c, 1, 55, 0
4, 44896, Note_on_c, 1, 60, 70
4, 44926, Note_on_c, 1, 60, 0
4, 44928, Note_on_c, 1, 53, 70
4, 44958, Note_on_c, 1, 53, 0
4, 44960, Note_on_c, 1, 57, 70
4, 44990, Note_on_c, 1, 57, 0
4, 44992, Note_on_c, 1, 62, 70
4, 45022, Note_on_c, 1, 62, 0
4, 45024, Note_on_c, 1, 53, 70
4, 45054, Note_on_c, 1, 53, 0
4, 45056, Note_on_c, 1, 57, 70
4, 45086, Note_on_c, 1, 57, 0
4, 45088, Note_on_c, 1, 62, 70
4, 45118, Note_on_c, 1, 62, 0
4, 45120, Note_on_c, 1, 53, 70
4, 45150, Note_on_c, 1, 53, 0
4, 45152, Note_on_c, 1, 57, 70
4, 45182, Note_on_c, 1, 57, 0
4, 45184, Note_on_c, 1, 62, 70
4, 45214, Note_on_c, 1, 62, 0
4, 45216, Note_on_c, 1, 55, 70
4, 45246, Note_on_c, 1, 55, 0
4, 45248, Note_on_c, 1, 60, 69
4, 45278, Note_on_c, 1, 60, 0
4, 45280, Note_on_c, 1, 64, 68
4, 45310, Note_on_c, 1, 64, 0
4, 45312, Note_on_c, 1, 55, 68
4, 45342, Note_on_c, 1, 55, 0
4, 45344, Note_on_c, 1, 60, 67
4, 45374, Note_on_c, 1, 60, 0
4, 45376, Note_on_c, 1, 64, 66
4, 45406, Note_on_c, 1, 64, 0
4, 45408, Note_on_c, 1, 55, 66
4, 45438, Note_on_c, 1, 55, 0
4, 45440, Note_on_c, 1, 62, 65
4, 45470, Note_on_c, 1, 62, 0
4, 45472, Note_on_c, 1, 65, 65
4, 45502, Note_on_c, 1, 65, 0
4, 45504, Note_on_c, 1, 60, 64
4, 45534, Note_on_c, 1, 60, 0
4, 45536, Note_on_c, 1, 64, 64
4, 45566, Note_on_c, 1, 64, 0
4, 45568, Note_on_c, 1, 67, 64
4, 45598, Note_on_c, 1, 67, 0
4, 45600, Note_on_c, 1, 60, 64
4, 45630, Note_on_c, 1, 60, 0
4, 45632, Note_on_c, 1, 64, 64
4, 45662, Note_on_c, 1, 64, 0
4, 45664, Note_on_c, 1, 67, 64
4, 45694, Note_on_c, 1, 67, 0
4, 45696, Note_on_c, 1, 60, 64
4, 45726, Note_on_c, 1, 60, 0
4, 45728, Note_on_c, 1, 64, 64
4, 45758, Note_on_c, 1, 64, 0
4, 45760, Note_on_c, 1, 67, 64
4, 45790, Note_on_c, 1, 67, 0
4, 45792, Note_on_c, 1, 59, 64
4, 45822, Note_on_c, 1, 59, 0
4, 45824, Note_on_c, 1, 62, 64
4, 45854, Note_on_c, 1, 62, 0
4, 45856, Note_on_c, 1, 67, 64
4, 45886, Note_on_c, 1, 67, 0
4, 45888, Note_on_c, 1, 59, 64
4, 45918, Note_on_c, 1, 59, 0
4, 45920, Note_on_c, 1, 62, 64
4, 45950, Note_on_c, 1, 62, 0
4, 45952, Note_on_c, 1, 67, 64
4, 45982, Note_on_c, 1, 67, 0
4, 45984, Note_on_c, 1, 59, 64
4, 46014, Note_on_c, 1, 59, 0
4, 46016, Note_on_c, 1, 62, 64
4, 46046, Note_on_c, 1, 62, 0
4, 46048, Note_on_c, 1, 67, 64
4, 46078, Note_on_c, 1, 67, 0
4, 46080, Note_on_c, 1, 60, 64
4, 46110, Note_on_c, 1, 60, 0
4, 46112, Note_on_c, 1, 64, 64
4, 46142, Note_on_c, 1, 64, 0
4, 46144, Note_on_c, 1, 67, 64
4, 46174, Note_on_c, 1, 67, 0
4, 46176, Note_on_c, 1, 60, 64
4, 46206, Note_on_c, 1, 60, 0
4, 46208, Note_on_c, 1, 64, 64
4, 46238, Note_on_c, 1, 64, 0
4, 46240, Note_on_c, 1, 67, 64
4, 46270, Note_on_c, 1, 67, 0
4, 46272, Note_on_c, 1, 60, 64
4, 46302, Note_on_c, 1, 60, 0
4, 46304, Note_on_c, 1, 64, 64
4, 46334, Note_on_c, 1, 64, 0
4, 46336, Note_on_c, 1, 67, 64
4, 46366, Note_on_c, 1, 67, 0
4, 46368, Note_on_c, 1, 59, 64
4, 46398, Note_on_c, 1, 59, 0
4, 46400, Note_on_c, 1, 62, 64
4, 46430, Note_on_c, 1, 62, 0
4, 46432, Note_on_c, 1, 67, 64
4, 46462, Note_on_c, 1, 67, 0
4, 46464, Note_on_c, 1, 59, 64
4, 46494, Note_on_c, 1, 59, 0
4, 46496, Note_on_c, 1, 62, 64
4, 46526, Note_on_c, 1, 62, 0
4, 46528, Note_on_c, 1, 67, 64
4, 46558, Note_on_c, 1, 67, 0
4, 46560, Note_on_c, 1, 59, 64
4, 46590, Note_on_c, 1, 59, 0
4, 46592, Note_on_c, 1, 62, 64
4, 46622, Note_on_c, 1, 62, 0
4, 46624, Note_on_c, 1, 67, 64
4, 46654, Note_on_c, 1, 67, 0
4, 46656, Note_on_c, 1, 60, 64
4, 46745, Note_on_c, 1, 60, 0
4, 46752, Note_on_c, 1, 62, 64
4, 46841, Note_on_c, 1, 62, 0
4, 46848, Note_on_c, 1, 64, 64
4, 46937, Note_on_c, 1, 64, 0
4, 46944, Note_on_c, 1, 65, 64
4, 47033, Note_on_c, 1, 65, 0
4, 47040, Note_on_c, 1, 67, 64
4, 47129, Note_on_c, 1, 67, 0
4, 47136, Note_on_c, 1, 55, 64
4, 47225, Note_on_c, 1, 55, 0
4, 47232, Note_on_c, 1, 60, 64
4, 47321, Note_on_c, 1, 60, 0
4, 47328, Note_on_c, 1, 62, 66
4, 47417, Note_on_c, 1, 62, 0
4, 47424, Note_on_c, 1, 64, 69
4, 47513, Note_on_c, 1, 64, 0
4, 47520, Note_on_c, 1, 65, 72
4, 47609, Note_on_c, 1, 65, 0
4, 47616, Note_on_c, 1, 67, 75
4, 47705, Note_on_c, 1, 67, 0
4, 47712, Note_on_c, 1, 55, 69
4, 47801, Note_on_c, 1, 55, 0
4, 47808, Note_on_c, 1, 60, 64
4, 47897, Note_on_c, 1, 60, 0
4, 48000, Note_on_c, 1, 62, 71
4, 48000, Note_on_c, 1, 55, 71
4, 48089, Note_on_c, 1, 62, 0
4, 48089, Note_on_c, 1, 55, 0
4, 48096, Note_on_c, 1, 64, 75
4, 48096, Note_on_c, 1, 60, 75
4, 48185, Note_on_c, 1, 64, 0
4, 48185, Note_on_c, 1, 60, 0
4, 48288, Note_on_c, 1, 62, 63
4, 48288, Note_on_c, 1, 55, 63
4, 48377, Note_on_c, 1, 62, 0
4, 48377, Note_on_c, 1, 55, 0
4, 48384, Note_on_c, 1, 64, 58
4, 48384, Note_on_c, 1, 60, 58
4, 48473, Note_on_c, 1, 64, 0
4, 48473, Note_on_c, 1, 60, 0
4, 48576, Note_on_c, 1, 60, 0
4, 48665, Note_on_c, 1, 60, 0
4, 48672, End_track
5, 0, Start_track
5, 0, Program_c, 1, 0
5, 0, Control_c, 1, 7, 127
5, 0, Control_c, 1, 10, 64
5, 48672, End_track
6, 0, Start_track
6, 0, Title_t, "Sonata I   Haydn  "
6, 0, End_track
0, 0, End_of_file
