0, 0, Header, 1, 6, 96
1, 0, Start_track
1, 0, Copyright_t, "Copyright  1994-2002 Mozart Music Software"
1, 0, Text_t, "Sonata I\015\012"
1, 0, Text_t, "Haydn\015\012"
1, 0, Sequencer_specific, 16, 68, 87, 77, 90, 86, 82, 83, 78, 32, 55, 46, 48, 46, 55, 46, 48
1, 0, Time_signature, 3, 2, 24, 8
1, 0, Tempo, 461538
1, 0, Key_signature, 0, "major"
1, 14976, Key_signature, -2, "major"
1, 17280, Key_signature, -2, "major"
1, 25344, Key_signature, 0, "major"
1, 27648, Key_signature, 0, "major"
1, 40320, End_track
2, 0, Start_track
2, 0, Program_c, 0, 0
2, 0, Control_c, 0, 7, 127
2, 0, Control_c, 0, 10, 64
2, 0, Note_on_c, 0, 74, 75
2, 18, Note_on_c, 0, 74, 0
2, 18, Note_on_c, 0, 72, 75
2, 36, Note_on_c, 0, 72, 0
2, 36, Note_on_c, 0, 71, 75
2, 54, Note_on_c, 0, 71, 0
2, 54, Note_on_c, 0, 72, 75
2, 89, Note_on_c, 0, 72, 0
2, 96, Note_on_c, 0, 76, 75
2, 126, Note_on_c, 0, 76, 0
2, 128, Note_on_c, 0, 74, 75
2, 158, Note_on_c, 0, 74, 0
2, 160, Note_on_c, 0, 72, 75
2, 190, Note_on_c, 0, 72, 0
2, 192, Note_on_c, 0, 77, 75
2, 222, Note_on_c, 0, 77, 0
2, 224, Note_on_c, 0, 76, 75
2, 254, Note_on_c, 0, 76, 0
2, 256, Note_on_c, 0, 74, 75
2, 286, Note_on_c, 0, 74, 0
2, 288, Note_on_c, 0, 79, 75
2, 377, Note_on_c, 0, 79, 0
2, 384, Note_on_c, 0, 76, 75
2, 473, Note_on_c, 0, 76, 0
2, 480, Note_on_c, 0, 79, 75
2, 503, Note_on_c, 0, 79, 0
2, 504, Note_on_c, 0, 77, 75
2, 527, Note_on_c, 0, 77, 0
2, 528, Note_on_c, 0, 76, 75
2, 551, Note_on_c, 0, 76, 0
2, 552, Note_on_c, 0, 74, 75
2, 575, Note_on_c, 0, 74, 0
2, 576, Note_on_c, 0, 72, 75
2, 665, Note_on_c, 0, 72, 0
2, 672, Note_on_c, 0, 84, 75
2, 761, Note_on_c, 0, 84, 0
2, 768, Note_on_c, 0, 81, 75
2, 857, Note_on_c, 0, 81, 0
2, 864, Note_on_c, 0, 83, 75
2, 879, Note_on_c, 0, 83, 0
2, 880, Note_on_c, 0, 81, 75
2, 895, Note_on_c, 0, 81, 0
2, 896, Note_on_c, 0, 83, 75
2, 911, Note_on_c, 0, 83, 0
2, 912, Note_on_c, 0, 81, 75
2, 927, Note_on_c, 0, 81, 0
2, 928, Note_on_c, 0, 79, 75
2, 943, Note_on_c, 0, 79, 0
2, 944, Note_on_c, 0, 81, 75
2, 959, Note_on_c, 0, 81, 0
2, 960, Note_on_c, 0, 79, 75
2, 1049, Note_on_c, 0, 79, 0
2, 1280, Note_on_c, 0, 74, 75
2, 1310, Note_on_c, 0, 74, 0
2, 1312, Note_on_c, 0, 76, 75
2, 1342, Note_on_c, 0, 76, 0
2, 1344, Note_on_c, 0, 77, 75
2, 1374, Note_on_c, 0, 77, 0
2, 1376, Note_on_c, 0, 76, 75
2, 1406, Note_on_c, 0, 76, 0
2, 1408, Note_on_c, 0, 74, 75
2, 1438, Note_on_c, 0, 74, 0
2, 1440, Note_on_c, 0, 76, 75
2, 1529, Note_on_c, 0, 76, 0
2, 1568, Note_on_c, 0, 76, 75
2, 1598, Note_on_c, 0, 76, 0
2, 1600, Note_on_c, 0, 77, 75
2, 1630, Note_on_c, 0, 77, 0
2, 1632, Note_on_c, 0, 79, 75
2, 1662, Note_on_c, 0, 79, 0
2, 1664, Note_on_c, 0, 77, 75
2, 1694, Note_on_c, 0, 77, 0
2, 1696, Note_on_c, 0, 76, 75
2, 1726, Note_on_c, 0, 76, 0
2, 1728, Note_on_c, 0, 74, 75
2, 1758, Note_on_c, 0, 74, 0
2, 1760, Note_on_c, 0, 76, 75
2, 1790, Note_on_c, 0, 76, 0
2, 1792, Note_on_c, 0, 77, 75
2, 1822, Note_on_c, 0, 77, 0
2, 1824, Note_on_c, 0, 72, 75
2, 1913, Note_on_c, 0, 72, 0
2, 1920, Note_on_c, 0, 72, 75
2, 1935, Note_on_c, 0, 72, 0
2, 1936, Note_on_c, 0, 71, 75
2, 1951, Note_on_c, 0, 71, 0
2, 1952, Note_on_c, 0, 72, 75
2, 1967, Note_on_c, 0, 72, 0
2, 1968, Note_on_c, 0, 71, 75
2, 1983, Note_on_c, 0, 71, 0
2, 1984, Note_on_c, 0, 69, 75
2, 1999, Note_on_c, 0, 69, 0
2, 2000, Note_on_c, 0, 71, 75
2, 2015, Note_on_c, 0, 71, 0
2, 2016, Note_on_c, 0, 72, 75
2, 2193, Note_on_c, 0, 72, 0
2, 2304, Note_on_c, 0, 74, 75
2, 2322, Note_on_c, 0, 74, 0
2, 2322, Note_on_c, 0, 72, 75
2, 2340, Note_on_c, 0, 72, 0
2, 2340, Note_on_c, 0, 71, 75
2, 2358, Note_on_c, 0, 71, 0
2, 2358, Note_on_c, 0, 72, 75
2, 2393, Note_on_c, 0, 72, 0
2, 2400, Note_on_c, 0, 76, 75
2, 2430, Note_on_c, 0, 76, 0
2, 2432, Note_on_c, 0, 74, 75
2, 2462, Note_on_c, 0, 74, 0
2, 2464, Note_on_c, 0, 72, 75
2, 2494, Note_on_c, 0, 72, 0
2, 2496, Note_on_c, 0, 77, 75
2, 2526, Note_on_c, 0, 77, 0
2, 2528, Note_on_c, 0, 76, 75
2, 2558, Note_on_c, 0, 76, 0
2, 2560, Note_on_c, 0, 74, 75
2, 2590, Note_on_c, 0, 74, 0
2, 2592, Note_on_c, 0, 79, 75
2, 2681, Note_on_c, 0, 79, 0
2, 2688, Note_on_c, 0, 76, 75
2, 2777, Note_on_c, 0, 76, 0
2, 2784, Note_on_c, 0, 79, 75
2, 2807, Note_on_c, 0, 79, 0
2, 2808, Note_on_c, 0, 77, 75
2, 2831, Note_on_c, 0, 77, 0
2, 2832, Note_on_c, 0, 76, 75
2, 2855, Note_on_c, 0, 76, 0
2, 2856, Note_on_c, 0, 74, 75
2, 2879, Note_on_c, 0, 74, 0
2, 2880, Note_on_c, 0, 72, 75
2, 2969, Note_on_c, 0, 72, 0
2, 2976, Note_on_c, 0, 84, 75
2, 3065, Note_on_c, 0, 84, 0
2, 3072, Note_on_c, 0, 81, 75
2, 3161, Note_on_c, 0, 81, 0
2, 3168, Note_on_c, 0, 83, 75
2, 3183, Note_on_c, 0, 83, 0
2, 3184, Note_on_c, 0, 81, 75
2, 3199, Note_on_c, 0, 81, 0
2, 3200, Note_on_c, 0, 83, 75
2, 3215, Note_on_c, 0, 83, 0
2, 3216, Note_on_c, 0, 81, 75
2, 3231, Note_on_c, 0, 81, 0
2, 3232, Note_on_c, 0, 79, 75
2, 3247, Note_on_c, 0, 79, 0
2, 3248, Note_on_c, 0, 81, 75
2, 3263, Note_on_c, 0, 81, 0
2, 3264, Note_on_c, 0, 79, 75
2, 3353, Note_on_c, 0, 79, 0
2, 3584, Note_on_c, 0, 74, 75
2, 3614, Note_on_c, 0, 74, 0
2, 3616, Note_on_c, 0, 76, 75
2, 3646, Note_on_c, 0, 76, 0
2, 3648, Note_on_c, 0, 77, 75
2, 3678, Note_on_c, 0, 77, 0
2, 3680, Note_on_c, 0, 76, 75
2, 3710, Note_on_c, 0, 76, 0
2, 3712, Note_on_c, 0, 74, 75
2, 3742, Note_on_c, 0, 74, 0
2, 3744, Note_on_c, 0, 76, 75
2, 3833, Note_on_c, 0, 76, 0
2, 3872, Note_on_c, 0, 76, 75
2, 3902, Note_on_c, 0, 76, 0
2, 3904, Note_on_c, 0, 77, 75
2, 3934, Note_on_c, 0, 77, 0
2, 3936, Note_on_c, 0, 79, 75
2, 3966, Note_on_c, 0, 79, 0
2, 3968, Note_on_c, 0, 77, 75
2, 3998, Note_on_c, 0, 77, 0
2, 4000, Note_on_c, 0, 76, 75
2, 4030, Note_on_c, 0, 76, 0
2, 4032, Note_on_c, 0, 74, 75
2, 4062, Note_on_c, 0, 74, 0
2, 4064, Note_on_c, 0, 76, 75
2, 4094, Note_on_c, 0, 76, 0
2, 4096, Note_on_c, 0, 77, 75
2, 4126, Note_on_c, 0, 77, 0
2, 4128, Note_on_c, 0, 72, 75
2, 4217, Note_on_c, 0, 72, 0
2, 4224, Note_on_c, 0, 72, 75
2, 4239, Note_on_c, 0, 72, 0
2, 4240, Note_on_c, 0, 71, 75
2, 4255, Note_on_c, 0, 71, 0
2, 4256, Note_on_c, 0, 72, 75
2, 4271, Note_on_c, 0, 72, 0
2, 4272, Note_on_c, 0, 71, 75
2, 4287, Note_on_c, 0, 71, 0
2, 4288, Note_on_c, 0, 69, 75
2, 4303, Note_on_c, 0, 69, 0
2, 4304, Note_on_c, 0, 71, 75
2, 4319, Note_on_c, 0, 71, 0
2, 4320, Note_on_c, 0, 72, 75
2, 4497, Note_on_c, 0, 72, 0
2, 4608, Note_on_c, 0, 76, 75
2, 4653, Note_on_c, 0, 76, 0
2, 4656, Note_on_c, 0, 84, 75
2, 4701, Note_on_c, 0, 84, 0
2, 4704, Note_on_c, 0, 76, 75
2, 4734, Note_on_c, 0, 76, 0
2, 4736, Note_on_c, 0, 78, 75
2, 4766, Note_on_c, 0, 78, 0
2, 4768, Note_on_c, 0, 79, 75
2, 4798, Note_on_c, 0, 79, 0
2, 4800, Note_on_c, 0, 78, 75
2, 4830, Note_on_c, 0, 78, 0
2, 4832, Note_on_c, 0, 79, 75
2, 4862, Note_on_c, 0, 79, 0
2, 4864, Note_on_c, 0, 81, 75
2, 4894, Note_on_c, 0, 81, 0
2, 4896, Note_on_c, 0, 79, 75
2, 4941, Note_on_c, 0, 79, 0
2, 4944, Note_on_c, 0, 83, 75
2, 4989, Note_on_c, 0, 83, 0
2, 4992, Note_on_c, 0, 74, 75
2, 5081, Note_on_c, 0, 74, 0
2, 5184, Note_on_c, 0, 72, 75
2, 5229, Note_on_c, 0, 72, 0
2, 5232, Note_on_c, 0, 81, 75
2, 5277, Note_on_c, 0, 81, 0
2, 5280, Note_on_c, 0, 69, 75
2, 5310, Note_on_c, 0, 69, 0
2, 5312, Note_on_c, 0, 71, 75
2, 5342, Note_on_c, 0, 71, 0
2, 5344, Note_on_c, 0, 72, 75
2, 5374, Note_on_c, 0, 72, 0
2, 5376, Note_on_c, 0, 71, 75
2, 5406, Note_on_c, 0, 71, 0
2, 5408, Note_on_c, 0, 72, 75
2, 5438, Note_on_c, 0, 72, 0
2, 5440, Note_on_c, 0, 74, 75
2, 5470, Note_on_c, 0, 74, 0
2, 5472, Note_on_c, 0, 74, 75
2, 5561, Note_on_c, 0, 74, 0
2, 5568, Note_on_c, 0, 74, 75
2, 5583, Note_on_c, 0, 74, 0
2, 5584, Note_on_c, 0, 72, 75
2, 5599, Note_on_c, 0, 72, 0
2, 5600, Note_on_c, 0, 74, 75
2, 5615, Note_on_c, 0, 74, 0
2, 5616, Note_on_c, 0, 72, 75
2, 5631, Note_on_c, 0, 72, 0
2, 5632, Note_on_c, 0, 71, 75
2, 5647, Note_on_c, 0, 71, 0
2, 5648, Note_on_c, 0, 72, 75
2, 5663, Note_on_c, 0, 72, 0
2, 5664, Note_on_c, 0, 71, 75
2, 5753, Note_on_c, 0, 71, 0
2, 5888, Note_on_c, 0, 76, 75
2, 5918, Note_on_c, 0, 76, 0
2, 5920, Note_on_c, 0, 78, 75
2, 5950, Note_on_c, 0, 78, 0
2, 5952, Note_on_c, 0, 79, 75
2, 5982, Note_on_c, 0, 79, 0
2, 5984, Note_on_c, 0, 78, 75
2, 6014, Note_on_c, 0, 78, 0
2, 6016, Note_on_c, 0, 76, 75
2, 6046, Note_on_c, 0, 76, 0
2, 6048, Note_on_c, 0, 74, 75
2, 6137, Note_on_c, 0, 74, 0
2, 6176, Note_on_c, 0, 78, 75
2, 6206, Note_on_c, 0, 78, 0
2, 6208, Note_on_c, 0, 79, 75
2, 6238, Note_on_c, 0, 79, 0
2, 6240, Note_on_c, 0, 81, 75
2, 6270, Note_on_c, 0, 81, 0
2, 6272, Note_on_c, 0, 78, 75
2, 6302, Note_on_c, 0, 78, 0
2, 6304, Note_on_c, 0, 79, 75
2, 6334, Note_on_c, 0, 79, 0
2, 6336, Note_on_c, 0, 76, 75
2, 6366, Note_on_c, 0, 76, 0
2, 6368, Note_on_c, 0, 74, 75
2, 6398, Note_on_c, 0, 74, 0
2, 6400, Note_on_c, 0, 72, 75
2, 6430, Note_on_c, 0, 72, 0
2, 6432, Note_on_c, 0, 71, 75
2, 6521, Note_on_c, 0, 71, 0
2, 6528, Note_on_c, 0, 71, 75
2, 6543, Note_on_c, 0, 71, 0
2, 6544, Note_on_c, 0, 69, 75
2, 6559, Note_on_c, 0, 69, 0
2, 6560, Note_on_c, 0, 71, 75
2, 6575, Note_on_c, 0, 71, 0
2, 6576, Note_on_c, 0, 69, 75
2, 6591, Note_on_c, 0, 69, 0
2, 6592, Note_on_c, 0, 67, 75
2, 6607, Note_on_c, 0, 67, 0
2, 6608, Note_on_c, 0, 69, 75
2, 6623, Note_on_c, 0, 69, 0
2, 6624, Note_on_c, 0, 67, 75
2, 6801, Note_on_c, 0, 67, 0
2, 6912, Note_on_c, 0, 74, 75
2, 6930, Note_on_c, 0, 74, 0
2, 6930, Note_on_c, 0, 72, 75
2, 6948, Note_on_c, 0, 72, 0
2, 6948, Note_on_c, 0, 71, 75
2, 6966, Note_on_c, 0, 71, 0
2, 6966, Note_on_c, 0, 72, 75
2, 7001, Note_on_c, 0, 72, 0
2, 7008, Note_on_c, 0, 76, 75
2, 7038, Note_on_c, 0, 76, 0
2, 7040, Note_on_c, 0, 74, 75
2, 7070, Note_on_c, 0, 74, 0
2, 7072, Note_on_c, 0, 72, 75
2, 7102, Note_on_c, 0, 72, 0
2, 7104, Note_on_c, 0, 77, 75
2, 7134, Note_on_c, 0, 77, 0
2, 7136, Note_on_c, 0, 76, 75
2, 7166, Note_on_c, 0, 76, 0
2, 7168, Note_on_c, 0, 74, 75
2, 7198, Note_on_c, 0, 74, 0
2, 7200, Note_on_c, 0, 79, 75
2, 7289, Note_on_c, 0, 79, 0
2, 7296, Note_on_c, 0, 76, 75
2, 7385, Note_on_c, 0, 76, 0
2, 7392, Note_on_c, 0, 79, 75
2, 7415, Note_on_c, 0, 79, 0
2, 7416, Note_on_c, 0, 77, 75
2, 7439, Note_on_c, 0, 77, 0
2, 7440, Note_on_c, 0, 76, 75
2, 7463, Note_on_c, 0, 76, 0
2, 7464, Note_on_c, 0, 74, 75
2, 7487, Note_on_c, 0, 74, 0
2, 7488, Note_on_c, 0, 72, 75
2, 7577, Note_on_c, 0, 72, 0
2, 7584, Note_on_c, 0, 84, 75
2, 7673, Note_on_c, 0, 84, 0
2, 7680, Note_on_c, 0, 81, 75
2, 7769, Note_on_c, 0, 81, 0
2, 7776, Note_on_c, 0, 83, 75
2, 7791, Note_on_c, 0, 83, 0
2, 7792, Note_on_c, 0, 81, 75
2, 7807, Note_on_c, 0, 81, 0
2, 7808, Note_on_c, 0, 83, 75
2, 7823, Note_on_c, 0, 83, 0
2, 7824, Note_on_c, 0, 81, 75
2, 7839, Note_on_c, 0, 81, 0
2, 7840, Note_on_c, 0, 79, 75
2, 7855, Note_on_c, 0, 79, 0
2, 7856, Note_on_c, 0, 81, 75
2, 7871, Note_on_c, 0, 81, 0
2, 7872, Note_on_c, 0, 79, 75
2, 7961, Note_on_c, 0, 79, 0
2, 8192, Note_on_c, 0, 74, 75
2, 8222, Note_on_c, 0, 74, 0
2, 8224, Note_on_c, 0, 76, 75
2, 8254, Note_on_c, 0, 76, 0
2, 8256, Note_on_c, 0, 77, 75
2, 8286, Note_on_c, 0, 77, 0
2, 8288, Note_on_c, 0, 76, 75
2, 8318, Note_on_c, 0, 76, 0
2, 8320, Note_on_c, 0, 74, 75
2, 8350, Note_on_c, 0, 74, 0
2, 8352, Note_on_c, 0, 76, 75
2, 8441, Note_on_c, 0, 76, 0
2, 8480, Note_on_c, 0, 76, 75
2, 8510, Note_on_c, 0, 76, 0
2, 8512, Note_on_c, 0, 77, 75
2, 8542, Note_on_c, 0, 77, 0
2, 8544, Note_on_c, 0, 79, 75
2, 8574, Note_on_c, 0, 79, 0
2, 8576, Note_on_c, 0, 77, 75
2, 8606, Note_on_c, 0, 77, 0
2, 8608, Note_on_c, 0, 76, 75
2, 8638, Note_on_c, 0, 76, 0
2, 8640, Note_on_c, 0, 81, 75
2, 8729, Note_on_c, 0, 81, 0
2, 8768, Note_on_c, 0, 81, 75
2, 8798, Note_on_c, 0, 81, 0
2, 8800, Note_on_c, 0, 83, 75
2, 8830, Note_on_c, 0, 83, 0
2, 8832, Note_on_c, 0, 84, 75
2, 8862, Note_on_c, 0, 84, 0
2, 8864, Note_on_c, 0, 83, 75
2, 8894, Note_on_c, 0, 83, 0
2, 8896, Note_on_c, 0, 81, 75
2, 8926, Note_on_c, 0, 81, 0
2, 8928, Note_on_c, 0, 79, 75
2, 9017, Note_on_c, 0, 79, 0
2, 9024, Note_on_c, 0, 84, 75
2, 9054, Note_on_c, 0, 84, 0
2, 9056, Note_on_c, 0, 83, 75
2, 9086, Note_on_c, 0, 83, 0
2, 9088, Note_on_c, 0, 81, 75
2, 9118, Note_on_c, 0, 81, 0
2, 9120, Note_on_c, 0, 79, 75
2, 9150, Note_on_c, 0, 79, 0
2, 9152, Note_on_c, 0, 77, 75
2, 9182, Note_on_c, 0, 77, 0
2, 9184, Note_on_c, 0, 76, 75
2, 9214, Note_on_c, 0, 76, 0
2, 9216, Note_on_c, 0, 74, 75
2, 9246, Note_on_c, 0, 74, 0
2, 9248, Note_on_c, 0, 77, 75
2, 9278, Note_on_c, 0, 77, 0
2, 9280, Note_on_c, 0, 81, 75
2, 9310, Note_on_c, 0, 81, 0
2, 9312, Note_on_c, 0, 72, 75
2, 9401, Note_on_c, 0, 72, 0
2, 9408, Note_on_c, 0, 72, 75
2, 9423, Note_on_c, 0, 72, 0
2, 9424, Note_on_c, 0, 71, 75
2, 9439, Note_on_c, 0, 71, 0
2, 9440, Note_on_c, 0, 72, 75
2, 9455, Note_on_c, 0, 72, 0
2, 9456, Note_on_c, 0, 71, 75
2, 9471, Note_on_c, 0, 71, 0
2, 9472, Note_on_c, 0, 69, 75
2, 9487, Note_on_c, 0, 69, 0
2, 9488, Note_on_c, 0, 71, 75
2, 9503, Note_on_c, 0, 71, 0
2, 9504, Note_on_c, 0, 72, 75
2, 9681, Note_on_c, 0, 72, 0
2, 9792, Note_on_c, 0, 76, 75
2, 9837, Note_on_c, 0, 76, 0
2, 9840, Note_on_c, 0, 84, 75
2, 9885, Note_on_c, 0, 84, 0
2, 9888, Note_on_c, 0, 76, 75
2, 9918, Note_on_c, 0, 76, 0
2, 9920, Note_on_c, 0, 78, 75
2, 9950, Note_on_c, 0, 78, 0
2, 9952, Note_on_c, 0, 79, 75
2, 9982, Note_on_c, 0, 79, 0
2, 9984, Note_on_c, 0, 78, 75
2, 10014, Note_on_c, 0, 78, 0
2, 10016, Note_on_c, 0, 79, 75
2, 10046, Note_on_c, 0, 79, 0
2, 10048, Note_on_c, 0, 81, 75
2, 10078, Note_on_c, 0, 81, 0
2, 10080, Note_on_c, 0, 79, 75
2, 10125, Note_on_c, 0, 79, 0
2, 10128, Note_on_c, 0, 83, 75
2, 10173, Note_on_c, 0, 83, 0
2, 10176, Note_on_c, 0, 74, 75
2, 10265, Note_on_c, 0, 74, 0
2, 10368, Note_on_c, 0, 72, 75
2, 10413, Note_on_c, 0, 72, 0
2, 10416, Note_on_c, 0, 81, 75
2, 10461, Note_on_c, 0, 81, 0
2, 10464, Note_on_c, 0, 69, 75
2, 10494, Note_on_c, 0, 69, 0
2, 10496, Note_on_c, 0, 71, 75
2, 10526, Note_on_c, 0, 71, 0
2, 10528, Note_on_c, 0, 72, 75
2, 10558, Note_on_c, 0, 72, 0
2, 10560, Note_on_c, 0, 71, 75
2, 10590, Note_on_c, 0, 71, 0
2, 10592, Note_on_c, 0, 72, 75
2, 10622, Note_on_c, 0, 72, 0
2, 10624, Note_on_c, 0, 74, 75
2, 10654, Note_on_c, 0, 74, 0
2, 10656, Note_on_c, 0, 74, 75
2, 10745, Note_on_c, 0, 74, 0
2, 10752, Note_on_c, 0, 74, 75
2, 10767, Note_on_c, 0, 74, 0
2, 10768, Note_on_c, 0, 72, 75
2, 10783, Note_on_c, 0, 72, 0
2, 10784, Note_on_c, 0, 74, 75
2, 10799, Note_on_c, 0, 74, 0
2, 10800, Note_on_c, 0, 72, 75
2, 10815, Note_on_c, 0, 72, 0
2, 10816, Note_on_c, 0, 71, 75
2, 10831, Note_on_c, 0, 71, 0
2, 10832, Note_on_c, 0, 72, 75
2, 10847, Note_on_c, 0, 72, 0
2, 10848, Note_on_c, 0, 71, 75
2, 10937, Note_on_c, 0, 71, 0
2, 11072, Note_on_c, 0, 76, 75
2, 11102, Note_on_c, 0, 76, 0
2, 11104, Note_on_c, 0, 78, 75
2, 11134, Note_on_c, 0, 78, 0
2, 11136, Note_on_c, 0, 79, 75
2, 11166, Note_on_c, 0, 79, 0
2, 11168, Note_on_c, 0, 78, 75
2, 11198, Note_on_c, 0, 78, 0
2, 11200, Note_on_c, 0, 76, 75
2, 11230, Note_on_c, 0, 76, 0
2, 11232, Note_on_c, 0, 74, 75
2, 11321, Note_on_c, 0, 74, 0
2, 11360, Note_on_c, 0, 78, 75
2, 11390, Note_on_c, 0, 78, 0
2, 11392, Note_on_c, 0, 79, 75
2, 11422, Note_on_c, 0, 79, 0
2, 11424, Note_on_c, 0, 81, 75
2, 11454, Note_on_c, 0, 81, 0
2, 11456, Note_on_c, 0, 78, 75
2, 11486, Note_on_c, 0, 78, 0
2, 11488, Note_on_c, 0, 79, 75
2, 11518, Note_on_c, 0, 79, 0
2, 11520, Note_on_c, 0, 76, 75
2, 11550, Note_on_c, 0, 76, 0
2, 11552, Note_on_c, 0, 74, 75
2, 11582, Note_on_c, 0, 74, 0
2, 11584, Note_on_c, 0, 72, 75
2, 11614, Note_on_c, 0, 72, 0
2, 11616, Note_on_c, 0, 71, 75
2, 11705, Note_on_c, 0, 71, 0
2, 11712, Note_on_c, 0, 71, 75
2, 11727, Note_on_c, 0, 71, 0
2, 11728, Note_on_c, 0, 69, 75
2, 11743, Note_on_c, 0, 69, 0
2, 11744, Note_on_c, 0, 71, 75
2, 11759, Note_on_c, 0, 71, 0
2, 11760, Note_on_c, 0, 69, 75
2, 11775, Note_on_c, 0, 69, 0
2, 11776, Note_on_c, 0, 67, 75
2, 11791, Note_on_c, 0, 67, 0
2, 11792, Note_on_c, 0, 69, 75
2, 11807, Note_on_c, 0, 69, 0
2, 11808, Note_on_c, 0, 67, 75
2, 11985, Note_on_c, 0, 67, 0
2, 12096, Note_on_c, 0, 74, 75
2, 12114, Note_on_c, 0, 74, 0
2, 12114, Note_on_c, 0, 72, 75
2, 12132, Note_on_c, 0, 72, 0
2, 12132, Note_on_c, 0, 71, 75
2, 12150, Note_on_c, 0, 71, 0
2, 12150, Note_on_c, 0, 72, 75
2, 12185, Note_on_c, 0, 72, 0
2, 12192, Note_on_c, 0, 76, 75
2, 12222, Note_on_c, 0, 76, 0
2, 12224, Note_on_c, 0, 74, 75
2, 12254, Note_on_c, 0, 74, 0
2, 12256, Note_on_c, 0, 72, 75
2, 12286, Note_on_c, 0, 72, 0
2, 12288, Note_on_c, 0, 77, 75
2, 12318, Note_on_c, 0, 77, 0
2, 12320, Note_on_c, 0, 76, 75
2, 12350, Note_on_c, 0, 76, 0
2, 12352, Note_on_c, 0, 74, 75
2, 12382, Note_on_c, 0, 74, 0
2, 12384, Note_on_c, 0, 79, 75
2, 12473, Note_on_c, 0, 79, 0
2, 12480, Note_on_c, 0, 76, 75
2, 12569, Note_on_c, 0, 76, 0
2, 12576, Note_on_c, 0, 79, 75
2, 12599, Note_on_c, 0, 79, 0
2, 12600, Note_on_c, 0, 77, 75
2, 12623, Note_on_c, 0, 77, 0
2, 12624, Note_on_c, 0, 76, 75
2, 12647, Note_on_c, 0, 76, 0
2, 12648, Note_on_c, 0, 74, 75
2, 12671, Note_on_c, 0, 74, 0
2, 12672, Note_on_c, 0, 72, 75
2, 12761, Note_on_c, 0, 72, 0
2, 12768, Note_on_c, 0, 84, 75
2, 12857, Note_on_c, 0, 84, 0
2, 12864, Note_on_c, 0, 81, 75
2, 12953, Note_on_c, 0, 81, 0
2, 12960, Note_on_c, 0, 83, 75
2, 12975, Note_on_c, 0, 83, 0
2, 12976, Note_on_c, 0, 81, 75
2, 12991, Note_on_c, 0, 81, 0
2, 12992, Note_on_c, 0, 83, 75
2, 13007, Note_on_c, 0, 83, 0
2, 13008, Note_on_c, 0, 81, 75
2, 13023, Note_on_c, 0, 81, 0
2, 13024, Note_on_c, 0, 79, 75
2, 13039, Note_on_c, 0, 79, 0
2, 13040, Note_on_c, 0, 81, 75
2, 13055, Note_on_c, 0, 81, 0
2, 13056, Note_on_c, 0, 79, 75
2, 13145, Note_on_c, 0, 79, 0
2, 13376, Note_on_c, 0, 74, 75
2, 13406, Note_on_c, 0, 74, 0
2, 13408, Note_on_c, 0, 76, 75
2, 13438, Note_on_c, 0, 76, 0
2, 13440, Note_on_c, 0, 77, 75
2, 13470, Note_on_c, 0, 77, 0
2, 13472, Note_on_c, 0, 76, 75
2, 13502, Note_on_c, 0, 76, 0
2, 13504, Note_on_c, 0, 74, 75
2, 13534, Note_on_c, 0, 74, 0
2, 13536, Note_on_c, 0, 76, 75
2, 13625, Note_on_c, 0, 76, 0
2, 13664, Note_on_c, 0, 76, 75
2, 13694, Note_on_c, 0, 76, 0
2, 13696, Note_on_c, 0, 77, 75
2, 13726, Note_on_c, 0, 77, 0
2, 13728, Note_on_c, 0, 79, 75
2, 13758, Note_on_c, 0, 79, 0
2, 13760, Note_on_c, 0, 77, 75
2, 13790, Note_on_c, 0, 77, 0
2, 13792, Note_on_c, 0, 76, 75
2, 13822, Note_on_c, 0, 76, 0
2, 13824, Note_on_c, 0, 81, 75
2, 13913, Note_on_c, 0, 81, 0
2, 13952, Note_on_c, 0, 81, 75
2, 13982, Note_on_c, 0, 81, 0
2, 13984, Note_on_c, 0, 83, 75
2, 14014, Note_on_c, 0, 83, 0
2, 14016, Note_on_c, 0, 84, 75
2, 14046, Note_on_c, 0, 84, 0
2, 14048, Note_on_c, 0, 83, 75
2, 14078, Note_on_c, 0, 83, 0
2, 14080, Note_on_c, 0, 81, 75
2, 14110, Note_on_c, 0, 81, 0
2, 14112, Note_on_c, 0, 79, 75
2, 14201, Note_on_c, 0, 79, 0
2, 14208, Note_on_c, 0, 84, 75
2, 14238, Note_on_c, 0, 84, 0
2, 14240, Note_on_c, 0, 83, 75
2, 14270, Note_on_c, 0, 83, 0
2, 14272, Note_on_c, 0, 81, 75
2, 14302, Note_on_c, 0, 81, 0
2, 14304, Note_on_c, 0, 79, 75
2, 14334, Note_on_c, 0, 79, 0
2, 14336, Note_on_c, 0, 77, 75
2, 14366, Note_on_c, 0, 77, 0
2, 14368, Note_on_c, 0, 76, 75
2, 14398, Note_on_c, 0, 76, 0
2, 14400, Note_on_c, 0, 74, 75
2, 14430, Note_on_c, 0, 74, 0
2, 14432, Note_on_c, 0, 77, 75
2, 14462, Note_on_c, 0, 77, 0
2, 14464, Note_on_c, 0, 81, 75
2, 14494, Note_on_c, 0, 81, 0
2, 14496, Note_on_c, 0, 72, 75
2, 14585, Note_on_c, 0, 72, 0
2, 14592, Note_on_c, 0, 72, 75
2, 14607, Note_on_c, 0, 72, 0
2, 14608, Note_on_c, 0, 71, 75
2, 14623, Note_on_c, 0, 71, 0
2, 14624, Note_on_c, 0, 72, 75
2, 14639, Note_on_c, 0, 72, 0
2, 14640, Note_on_c, 0, 71, 75
2, 14655, Note_on_c, 0, 71, 0
2, 14656, Note_on_c, 0, 69, 75
2, 14671, Note_on_c, 0, 69, 0
2, 14672, Note_on_c, 0, 71, 75
2, 14687, Note_on_c, 0, 71, 0
2, 14688, Note_on_c, 0, 72, 75
2, 14865, Note_on_c, 0, 72, 0
2, 15024, Note_on_c, 0, 67, 67
2, 15069, Note_on_c, 0, 67, 0
2, 15072, Note_on_c, 0, 63, 67
2, 15117, Note_on_c, 0, 63, 0
2, 15120, Note_on_c, 0, 68, 67
2, 15165, Note_on_c, 0, 68, 0
2, 15168, Note_on_c, 0, 65, 67
2, 15213, Note_on_c, 0, 65, 0
2, 15216, Note_on_c, 0, 63, 67
2, 15261, Note_on_c, 0, 63, 0
2, 15264, Note_on_c, 0, 62, 67
2, 15309, Note_on_c, 0, 62, 0
2, 15312, Note_on_c, 0, 65, 67
2, 15357, Note_on_c, 0, 65, 0
2, 15360, Note_on_c, 0, 62, 67
2, 15405, Note_on_c, 0, 62, 0
2, 15408, Note_on_c, 0, 67, 67
2, 15453, Note_on_c, 0, 67, 0
2, 15456, Note_on_c, 0, 63, 67
2, 15501, Note_on_c, 0, 63, 0
2, 15504, Note_on_c, 0, 62, 67
2, 15549, Note_on_c, 0, 62, 0
2, 15552, Note_on_c, 0, 60, 67
2, 15597, Note_on_c, 0, 60, 0
2, 15600, Note_on_c, 0, 63, 67
2, 15645, Note_on_c, 0, 63, 0
2, 15648, Note_on_c, 0, 60, 67
2, 15693, Note_on_c, 0, 60, 0
2, 15696, Note_on_c, 0, 65, 67
2, 15741, Note_on_c, 0, 65, 0
2, 15744, Note_on_c, 0, 62, 67
2, 15789, Note_on_c, 0, 62, 0
2, 15792, Note_on_c, 0, 60, 67
2, 15837, Note_on_c, 0, 60, 0
2, 15840, Note_on_c, 0, 62, 67
2, 15855, Note_on_c, 0, 62, 0
2, 15856, Note_on_c, 0, 60, 67
2, 15871, Note_on_c, 0, 60, 0
2, 15872, Note_on_c, 0, 62, 67
2, 15887, Note_on_c, 0, 62, 0
2, 15888, Note_on_c, 0, 60, 67
2, 15903, Note_on_c, 0, 60, 0
2, 15904, Note_on_c, 0, 59, 67
2, 15919, Note_on_c, 0, 59, 0
2, 15920, Note_on_c, 0, 60, 67
2, 15935, Note_on_c, 0, 60, 0
2, 15936, Note_on_c, 0, 59, 67
2, 16025, Note_on_c, 0, 59, 0
2, 16176, Note_on_c, 0, 67, 67
2, 16221, Note_on_c, 0, 67, 0
2, 16224, Note_on_c, 0, 63, 67
2, 16269, Note_on_c, 0, 63, 0
2, 16272, Note_on_c, 0, 68, 67
2, 16317, Note_on_c, 0, 68, 0
2, 16320, Note_on_c, 0, 65, 67
2, 16365, Note_on_c, 0, 65, 0
2, 16368, Note_on_c, 0, 63, 67
2, 16413, Note_on_c, 0, 63, 0
2, 16416, Note_on_c, 0, 62, 67
2, 16461, Note_on_c, 0, 62, 0
2, 16464, Note_on_c, 0, 65, 67
2, 16509, Note_on_c, 0, 65, 0
2, 16512, Note_on_c, 0, 62, 68
2, 16557, Note_on_c, 0, 62, 0
2, 16560, Note_on_c, 0, 72, 69
2, 16605, Note_on_c, 0, 72, 0
2, 16608, Note_on_c, 0, 70, 70
2, 16653, Note_on_c, 0, 70, 0
2, 16656, Note_on_c, 0, 68, 71
2, 16701, Note_on_c, 0, 68, 0
2, 16704, Note_on_c, 0, 67, 72
2, 16749, Note_on_c, 0, 67, 0
2, 16752, Note_on_c, 0, 75, 73
2, 16797, Note_on_c, 0, 75, 0
2, 16848, Note_on_c, 0, 63, 75
2, 16893, Note_on_c, 0, 63, 0
2, 16896, Note_on_c, 0, 65, 75
2, 16941, Note_on_c, 0, 65, 0
2, 16944, Note_on_c, 0, 62, 75
2, 16989, Note_on_c, 0, 62, 0
2, 16992, Note_on_c, 0, 65, 75
2, 17007, Note_on_c, 0, 65, 0
2, 17008, Note_on_c, 0, 63, 75
2, 17023, Note_on_c, 0, 63, 0
2, 17024, Note_on_c, 0, 65, 75
2, 17039, Note_on_c, 0, 65, 0
2, 17040, Note_on_c, 0, 63, 75
2, 17087, Note_on_c, 0, 63, 0
2, 17328, Note_on_c, 0, 67, 67
2, 17373, Note_on_c, 0, 67, 0
2, 17376, Note_on_c, 0, 63, 67
2, 17421, Note_on_c, 0, 63, 0
2, 17424, Note_on_c, 0, 68, 67
2, 17469, Note_on_c, 0, 68, 0
2, 17472, Note_on_c, 0, 65, 67
2, 17517, Note_on_c, 0, 65, 0
2, 17520, Note_on_c, 0, 63, 67
2, 17565, Note_on_c, 0, 63, 0
2, 17568, Note_on_c, 0, 62, 67
2, 17613, Note_on_c, 0, 62, 0
2, 17616, Note_on_c, 0, 65, 67
2, 17661, Note_on_c, 0, 65, 0
2, 17664, Note_on_c, 0, 62, 67
2, 17709, Note_on_c, 0, 62, 0
2, 17712, Note_on_c, 0, 67, 67
2, 17757, Note_on_c, 0, 67, 0
2, 17760, Note_on_c, 0, 63, 67
2, 17805, Note_on_c, 0, 63, 0
2, 17808, Note_on_c, 0, 62, 67
2, 17853, Note_on_c, 0, 62, 0
2, 17856, Note_on_c, 0, 60, 67
2, 17901, Note_on_c, 0, 60, 0
2, 17904, Note_on_c, 0, 63, 67
2, 17949, Note_on_c, 0, 63, 0
2, 17952, Note_on_c, 0, 60, 67
2, 17997, Note_on_c, 0, 60, 0
2, 18000, Note_on_c, 0, 65, 67
2, 18045, Note_on_c, 0, 65, 0
2, 18048, Note_on_c, 0, 62, 67
2, 18093, Note_on_c, 0, 62, 0
2, 18096, Note_on_c, 0, 60, 67
2, 18141, Note_on_c, 0, 60, 0
2, 18144, Note_on_c, 0, 62, 67
2, 18159, Note_on_c, 0, 62, 0
2, 18160, Note_on_c, 0, 60, 67
2, 18175, Note_on_c, 0, 60, 0
2, 18176, Note_on_c, 0, 62, 67
2, 18191, Note_on_c, 0, 62, 0
2, 18192, Note_on_c, 0, 60, 67
2, 18207, Note_on_c, 0, 60, 0
2, 18208, Note_on_c, 0, 59, 67
2, 18223, Note_on_c, 0, 59, 0
2, 18224, Note_on_c, 0, 60, 67
2, 18239, Note_on_c, 0, 60, 0
2, 18240, Note_on_c, 0, 59, 67
2, 18329, Note_on_c, 0, 59, 0
2, 18480, Note_on_c, 0, 67, 67
2, 18525, Note_on_c, 0, 67, 0
2, 18528, Note_on_c, 0, 63, 67
2, 18573, Note_on_c, 0, 63, 0
2, 18576, Note_on_c, 0, 68, 67
2, 18621, Note_on_c, 0, 68, 0
2, 18624, Note_on_c, 0, 65, 67
2, 18669, Note_on_c, 0, 65, 0
2, 18672, Note_on_c, 0, 63, 67
2, 18717, Note_on_c, 0, 63, 0
2, 18720, Note_on_c, 0, 62, 67
2, 18765, Note_on_c, 0, 62, 0
2, 18768, Note_on_c, 0, 65, 67
2, 18813, Note_on_c, 0, 65, 0
2, 18816, Note_on_c, 0, 62, 68
2, 18861, Note_on_c, 0, 62, 0
2, 18864, Note_on_c, 0, 72, 69
2, 18909, Note_on_c, 0, 72, 0
2, 18912, Note_on_c, 0, 70, 70
2, 18957, Note_on_c, 0, 70, 0
2, 18960, Note_on_c, 0, 68, 71
2, 19005, Note_on_c, 0, 68, 0
2, 19008, Note_on_c, 0, 67, 72
2, 19053, Note_on_c, 0, 67, 0
2, 19056, Note_on_c, 0, 75, 73
2, 19101, Note_on_c, 0, 75, 0
2, 19152, Note_on_c, 0, 63, 75
2, 19197, Note_on_c, 0, 63, 0
2, 19200, Note_on_c, 0, 65, 75
2, 19245, Note_on_c, 0, 65, 0
2, 19248, Note_on_c, 0, 62, 75
2, 19293, Note_on_c, 0, 62, 0
2, 19296, Note_on_c, 0, 65, 75
2, 19311, Note_on_c, 0, 65, 0
2, 19312, Note_on_c, 0, 63, 75
2, 19327, Note_on_c, 0, 63, 0
2, 19328, Note_on_c, 0, 65, 75
2, 19343, Note_on_c, 0, 65, 0
2, 19344, Note_on_c, 0, 63, 75
2, 19391, Note_on_c, 0, 63, 0
2, 19632, Note_on_c, 0, 70, 80
2, 19677, Note_on_c, 0, 70, 0
2, 19680, Note_on_c, 0, 67, 80
2, 19725, Note_on_c, 0, 67, 0
2, 19728, Note_on_c, 0, 72, 80
2, 19817, Note_on_c, 0, 72, 0
2, 19824, Note_on_c, 0, 70, 80
2, 19869, Note_on_c, 0, 70, 0
2, 19920, Note_on_c, 0, 68, 80
2, 19965, Note_on_c, 0, 68, 0
2, 19968, Note_on_c, 0, 65, 80
2, 20013, Note_on_c, 0, 65, 0
2, 20016, Note_on_c, 0, 70, 78
2, 20105, Note_on_c, 0, 70, 0
2, 20112, Note_on_c, 0, 68, 76
2, 20157, Note_on_c, 0, 68, 0
2, 20208, Note_on_c, 0, 67, 73
2, 20253, Note_on_c, 0, 67, 0
2, 20256, Note_on_c, 0, 65, 72
2, 20301, Note_on_c, 0, 65, 0
2, 20304, Note_on_c, 0, 63, 70
2, 20349, Note_on_c, 0, 63, 0
2, 20352, Note_on_c, 0, 62, 69
2, 20397, Note_on_c, 0, 62, 0
2, 20400, Note_on_c, 0, 60, 68
2, 20445, Note_on_c, 0, 60, 0
2, 20448, Note_on_c, 0, 59, 67
2, 20625, Note_on_c, 0, 59, 0
2, 20784, Note_on_c, 0, 72, 68
2, 20829, Note_on_c, 0, 72, 0
2, 20832, Note_on_c, 0, 60, 69
2, 20877, Note_on_c, 0, 60, 0
2, 20880, Note_on_c, 0, 68, 70
2, 20925, Note_on_c, 0, 68, 0
2, 20928, Note_on_c, 0, 67, 71
2, 20973, Note_on_c, 0, 67, 0
2, 20976, Note_on_c, 0, 65, 72
2, 21021, Note_on_c, 0, 65, 0
2, 21024, Note_on_c, 0, 63, 73
2, 21069, Note_on_c, 0, 63, 0
2, 21072, Note_on_c, 0, 72, 75
2, 21117, Note_on_c, 0, 72, 0
2, 21120, Note_on_c, 0, 60, 75
2, 21165, Note_on_c, 0, 60, 0
2, 21168, Note_on_c, 0, 65, 75
2, 21213, Note_on_c, 0, 65, 0
2, 21216, Note_on_c, 0, 63, 75
2, 21261, Note_on_c, 0, 63, 0
2, 21264, Note_on_c, 0, 62, 75
2, 21309, Note_on_c, 0, 62, 0
2, 21312, Note_on_c, 0, 60, 75
2, 21357, Note_on_c, 0, 60, 0
2, 21360, Note_on_c, 0, 72, 75
2, 21405, Note_on_c, 0, 72, 0
2, 21408, Note_on_c, 0, 60, 76
2, 21453, Note_on_c, 0, 60, 0
2, 21456, Note_on_c, 0, 70, 77
2, 21501, Note_on_c, 0, 70, 0
2, 21504, Note_on_c, 0, 68, 77
2, 21549, Note_on_c, 0, 68, 0
2, 21552, Note_on_c, 0, 67, 78
2, 21597, Note_on_c, 0, 67, 0
2, 21600, Note_on_c, 0, 68, 79
2, 21645, Note_on_c, 0, 68, 0
2, 21648, Note_on_c, 0, 72, 80
2, 21693, Note_on_c, 0, 72, 0
2, 21696, Note_on_c, 0, 65, 80
2, 21741, Note_on_c, 0, 65, 0
2, 21744, Note_on_c, 0, 68, 80
2, 21789, Note_on_c, 0, 68, 0
2, 21792, Note_on_c, 0, 67, 80
2, 21837, Note_on_c, 0, 67, 0
2, 21840, Note_on_c, 0, 65, 80
2, 21885, Note_on_c, 0, 65, 0
2, 21888, Note_on_c, 0, 67, 80
2, 21933, Note_on_c, 0, 67, 0
2, 21936, Note_on_c, 0, 72, 77
2, 21981, Note_on_c, 0, 72, 0
2, 22032, Note_on_c, 0, 68, 72
2, 22077, Note_on_c, 0, 68, 0
2, 22080, Note_on_c, 0, 67, 69
2, 22125, Note_on_c, 0, 67, 0
2, 22128, Note_on_c, 0, 59, 66
2, 22173, Note_on_c, 0, 59, 0
2, 22176, Note_on_c, 0, 59, 64
2, 22224, Note_on_c, 0, 59, 0
2, 22224, Note_on_c, 0, 60, 64
2, 22265, Note_on_c, 0, 60, 0
2, 22512, Note_on_c, 0, 70, 80
2, 22557, Note_on_c, 0, 70, 0
2, 22560, Note_on_c, 0, 67, 80
2, 22605, Note_on_c, 0, 67, 0
2, 22608, Note_on_c, 0, 72, 80
2, 22697, Note_on_c, 0, 72, 0
2, 22704, Note_on_c, 0, 70, 80
2, 22749, Note_on_c, 0, 70, 0
2, 22800, Note_on_c, 0, 68, 80
2, 22845, Note_on_c, 0, 68, 0
2, 22848, Note_on_c, 0, 65, 80
2, 22893, Note_on_c, 0, 65, 0
2, 22896, Note_on_c, 0, 70, 78
2, 22985, Note_on_c, 0, 70, 0
2, 22992, Note_on_c, 0, 68, 76
2, 23037, Note_on_c, 0, 68, 0
2, 23088, Note_on_c, 0, 67, 73
2, 23133, Note_on_c, 0, 67, 0
2, 23136, Note_on_c, 0, 65, 72
2, 23181, Note_on_c, 0, 65, 0
2, 23184, Note_on_c, 0, 63, 70
2, 23229, Note_on_c, 0, 63, 0
2, 23232, Note_on_c, 0, 62, 69
2, 23277, Note_on_c, 0, 62, 0
2, 23280, Note_on_c, 0, 60, 68
2, 23325, Note_on_c, 0, 60, 0
2, 23328, Note_on_c, 0, 59, 67
2, 23505, Note_on_c, 0, 59, 0
2, 23664, Note_on_c, 0, 72, 68
2, 23709, Note_on_c, 0, 72, 0
2, 23712, Note_on_c, 0, 60, 69
2, 23757, Note_on_c, 0, 60, 0
2, 23760, Note_on_c, 0, 68, 70
2, 23805, Note_on_c, 0, 68, 0
2, 23808, Note_on_c, 0, 67, 71
2, 23853, Note_on_c, 0, 67, 0
2, 23856, Note_on_c, 0, 65, 72
2, 23901, Note_on_c, 0, 65, 0
2, 23904, Note_on_c, 0, 63, 73
2, 23949, Note_on_c, 0, 63, 0
2, 23952, Note_on_c, 0, 72, 75
2, 23997, Note_on_c, 0, 72, 0
2, 24000, Note_on_c, 0, 60, 75
2, 24045, Note_on_c, 0, 60, 0
2, 24048, Note_on_c, 0, 65, 75
2, 24093, Note_on_c, 0, 65, 0
2, 24096, Note_on_c, 0, 63, 75
2, 24141, Note_on_c, 0, 63, 0
2, 24144, Note_on_c, 0, 62, 75
2, 24189, Note_on_c, 0, 62, 0
2, 24192, Note_on_c, 0, 60, 75
2, 24237, Note_on_c, 0, 60, 0
2, 24240, Note_on_c, 0, 72, 75
2, 24285, Note_on_c, 0, 72, 0
2, 24288, Note_on_c, 0, 60, 76
2, 24333, Note_on_c, 0, 60, 0
2, 24336, Note_on_c, 0, 70, 77
2, 24381, Note_on_c, 0, 70, 0
2, 24384, Note_on_c, 0, 68, 77
2, 24429, Note_on_c, 0, 68, 0
2, 24432, Note_on_c, 0, 67, 78
2, 24477, Note_on_c, 0, 67, 0
2, 24480, Note_on_c, 0, 68, 79
2, 24525, Note_on_c, 0, 68, 0
2, 24528, Note_on_c, 0, 72, 80
2, 24573, Note_on_c, 0, 72, 0
2, 24576, Note_on_c, 0, 65, 80
2, 24621, Note_on_c, 0, 65, 0
2, 24624, Note_on_c, 0, 68, 80
2, 24669, Note_on_c, 0, 68, 0
2, 24672, Note_on_c, 0, 67, 80
2, 24717, Note_on_c, 0, 67, 0
2, 24720, Note_on_c, 0, 65, 80
2, 24765, Note_on_c, 0, 65, 0
2, 24768, Note_on_c, 0, 67, 80
2, 24813, Note_on_c, 0, 67, 0
2, 24816, Note_on_c, 0, 72, 77
2, 24861, Note_on_c, 0, 72, 0
2, 24912, Note_on_c, 0, 68, 72
2, 24957, Note_on_c, 0, 68, 0
2, 24960, Note_on_c, 0, 67, 69
2, 25005, Note_on_c, 0, 67, 0
2, 25008, Note_on_c, 0, 59, 66
2, 25053, Note_on_c, 0, 59, 0
2, 25056, Note_on_c, 0, 59, 64
2, 25104, Note_on_c, 0, 59, 0
2, 25104, Note_on_c, 0, 60, 64
2, 25145, Note_on_c, 0, 60, 0
2, 25344, Note_on_c, 0, 74, 75
2, 25362, Note_on_c, 0, 74, 0
2, 25362, Note_on_c, 0, 72, 75
2, 25380, Note_on_c, 0, 72, 0
2, 25380, Note_on_c, 0, 71, 75
2, 25398, Note_on_c, 0, 71, 0
2, 25398, Note_on_c, 0, 72, 75
2, 25433, Note_on_c, 0, 72, 0
2, 25440, Note_on_c, 0, 76, 75
2, 25470, Note_on_c, 0, 76, 0
2, 25472, Note_on_c, 0, 74, 75
2, 25502, Note_on_c, 0, 74, 0
2, 25504, Note_on_c, 0, 72, 75
2, 25534, Note_on_c, 0, 72, 0
2, 25536, Note_on_c, 0, 77, 75
2, 25566, Note_on_c, 0, 77, 0
2, 25568, Note_on_c, 0, 76, 75
2, 25598, Note_on_c, 0, 76, 0
2, 25600, Note_on_c, 0, 74, 75
2, 25630, Note_on_c, 0, 74, 0
2, 25632, Note_on_c, 0, 79, 75
2, 25721, Note_on_c, 0, 79, 0
2, 25728, Note_on_c, 0, 76, 75
2, 25817, Note_on_c, 0, 76, 0
2, 25824, Note_on_c, 0, 79, 75
2, 25847, Note_on_c, 0, 79, 0
2, 25848, Note_on_c, 0, 77, 75
2, 25871, Note_on_c, 0, 77, 0
2, 25872, Note_on_c, 0, 76, 75
2, 25895, Note_on_c, 0, 76, 0
2, 25896, Note_on_c, 0, 74, 75
2, 25919, Note_on_c, 0, 74, 0
2, 25920, Note_on_c, 0, 72, 75
2, 26009, Note_on_c, 0, 72, 0
2, 26016, Note_on_c, 0, 84, 75
2, 26105, Note_on_c, 0, 84, 0
2, 26112, Note_on_c, 0, 81, 75
2, 26201, Note_on_c, 0, 81, 0
2, 26208, Note_on_c, 0, 83, 75
2, 26223, Note_on_c, 0, 83, 0
2, 26224, Note_on_c, 0, 81, 75
2, 26239, Note_on_c, 0, 81, 0
2, 26240, Note_on_c, 0, 83, 75
2, 26255, Note_on_c, 0, 83, 0
2, 26256, Note_on_c, 0, 81, 75
2, 26271, Note_on_c, 0, 81, 0
2, 26272, Note_on_c, 0, 79, 75
2, 26287, Note_on_c, 0, 79, 0
2, 26288, Note_on_c, 0, 81, 75
2, 26303, Note_on_c, 0, 81, 0
2, 26304, Note_on_c, 0, 79, 75
2, 26393, Note_on_c, 0, 79, 0
2, 26624, Note_on_c, 0, 74, 75
2, 26654, Note_on_c, 0, 74, 0
2, 26656, Note_on_c, 0, 76, 75
2, 26686, Note_on_c, 0, 76, 0
2, 26688, Note_on_c, 0, 77, 75
2, 26718, Note_on_c, 0, 77, 0
2, 26720, Note_on_c, 0, 76, 75
2, 26750, Note_on_c, 0, 76, 0
2, 26752, Note_on_c, 0, 74, 75
2, 26782, Note_on_c, 0, 74, 0
2, 26784, Note_on_c, 0, 76, 75
2, 26873, Note_on_c, 0, 76, 0
2, 26912, Note_on_c, 0, 76, 75
2, 26942, Note_on_c, 0, 76, 0
2, 26944, Note_on_c, 0, 77, 75
2, 26974, Note_on_c, 0, 77, 0
2, 26976, Note_on_c, 0, 79, 75
2, 27006, Note_on_c, 0, 79, 0
2, 27008, Note_on_c, 0, 77, 75
2, 27038, Note_on_c, 0, 77, 0
2, 27040, Note_on_c, 0, 76, 75
2, 27070, Note_on_c, 0, 76, 0
2, 27072, Note_on_c, 0, 74, 75
2, 27102, Note_on_c, 0, 74, 0
2, 27104, Note_on_c, 0, 76, 75
2, 27134, Note_on_c, 0, 76, 0
2, 27136, Note_on_c, 0, 77, 75
2, 27166, Note_on_c, 0, 77, 0
2, 27168, Note_on_c, 0, 72, 75
2, 27257, Note_on_c, 0, 72, 0
2, 27264, Note_on_c, 0, 72, 75
2, 27279, Note_on_c, 0, 72, 0
2, 27280, Note_on_c, 0, 71, 75
2, 27295, Note_on_c, 0, 71, 0
2, 27296, Note_on_c, 0, 72, 75
2, 27311, Note_on_c, 0, 72, 0
2, 27312, Note_on_c, 0, 71, 75
2, 27327, Note_on_c, 0, 71, 0
2, 27328, Note_on_c, 0, 69, 75
2, 27343, Note_on_c, 0, 69, 0
2, 27344, Note_on_c, 0, 71, 75
2, 27359, Note_on_c, 0, 71, 0
2, 27360, Note_on_c, 0, 72, 75
2, 27537, Note_on_c, 0, 72, 0
2, 27648, Note_on_c, 0, 74, 75
2, 27666, Note_on_c, 0, 74, 0
2, 27666, Note_on_c, 0, 72, 75
2, 27684, Note_on_c, 0, 72, 0
2, 27684, Note_on_c, 0, 71, 75
2, 27702, Note_on_c, 0, 71, 0
2, 27702, Note_on_c, 0, 72, 75
2, 27737, Note_on_c, 0, 72, 0
2, 27744, Note_on_c, 0, 76, 75
2, 27774, Note_on_c, 0, 76, 0
2, 27776, Note_on_c, 0, 74, 75
2, 27806, Note_on_c, 0, 74, 0
2, 27808, Note_on_c, 0, 72, 75
2, 27838, Note_on_c, 0, 72, 0
2, 27840, Note_on_c, 0, 77, 75
2, 27870, Note_on_c, 0, 77, 0
2, 27872, Note_on_c, 0, 76, 75
2, 27902, Note_on_c, 0, 76, 0
2, 27904, Note_on_c, 0, 74, 75
2, 27934, Note_on_c, 0, 74, 0
2, 27936, Note_on_c, 0, 79, 75
2, 28025, Note_on_c, 0, 79, 0
2, 28032, Note_on_c, 0, 76, 75
2, 28121, Note_on_c, 0, 76, 0
2, 28128, Note_on_c, 0, 79, 75
2, 28151, Note_on_c, 0, 79, 0
2, 28152, Note_on_c, 0, 77, 75
2, 28175, Note_on_c, 0, 77, 0
2, 28176, Note_on_c, 0, 76, 75
2, 28199, Note_on_c, 0, 76, 0
2, 28200, Note_on_c, 0, 74, 75
2, 28223, Note_on_c, 0, 74, 0
2, 28224, Note_on_c, 0, 72, 75
2, 28313, Note_on_c, 0, 72, 0
2, 28320, Note_on_c, 0, 84, 75
2, 28409, Note_on_c, 0, 84, 0
2, 28416, Note_on_c, 0, 81, 75
2, 28505, Note_on_c, 0, 81, 0
2, 28512, Note_on_c, 0, 83, 75
2, 28527, Note_on_c, 0, 83, 0
2, 28528, Note_on_c, 0, 81, 75
2, 28543, Note_on_c, 0, 81, 0
2, 28544, Note_on_c, 0, 83, 75
2, 28559, Note_on_c, 0, 83, 0
2, 28560, Note_on_c, 0, 81, 75
2, 28575, Note_on_c, 0, 81, 0
2, 28576, Note_on_c, 0, 79, 75
2, 28591, Note_on_c, 0, 79, 0
2, 28592, Note_on_c, 0, 81, 75
2, 28607, Note_on_c, 0, 81, 0
2, 28608, Note_on_c, 0, 79, 75
2, 28697, Note_on_c, 0, 79, 0
2, 28928, Note_on_c, 0, 74, 75
2, 28958, Note_on_c, 0, 74, 0
2, 28960, Note_on_c, 0, 76, 75
2, 28990, Note_on_c, 0, 76, 0
2, 28992, Note_on_c, 0, 77, 75
2, 29022, Note_on_c, 0, 77, 0
2, 29024, Note_on_c, 0, 76, 75
2, 29054, Note_on_c, 0, 76, 0
2, 29056, Note_on_c, 0, 74, 75
2, 29086, Note_on_c, 0, 74, 0
2, 29088, Note_on_c, 0, 76, 75
2, 29177, Note_on_c, 0, 76, 0
2, 29216, Note_on_c, 0, 76, 75
2, 29246, Note_on_c, 0, 76, 0
2, 29248, Note_on_c, 0, 77, 75
2, 29278, Note_on_c, 0, 77, 0
2, 29280, Note_on_c, 0, 79, 75
2, 29310, Note_on_c, 0, 79, 0
2, 29312, Note_on_c, 0, 77, 75
2, 29342, Note_on_c, 0, 77, 0
2, 29344, Note_on_c, 0, 76, 75
2, 29374, Note_on_c, 0, 76, 0
2, 29376, Note_on_c, 0, 74, 75
2, 29406, Note_on_c, 0, 74, 0
2, 29408, Note_on_c, 0, 76, 75
2, 29438, Note_on_c, 0, 76, 0
2, 29440, Note_on_c, 0, 77, 75
2, 29470, Note_on_c, 0, 77, 0
2, 29472, Note_on_c, 0, 72, 75
2, 29561, Note_on_c, 0, 72, 0
2, 29568, Note_on_c, 0, 72, 75
2, 29583, Note_on_c, 0, 72, 0
2, 29584, Note_on_c, 0, 71, 75
2, 29599, Note_on_c, 0, 71, 0
2, 29600, Note_on_c, 0, 72, 75
2, 29615, Note_on_c, 0, 72, 0
2, 29616, Note_on_c, 0, 71, 75
2, 29631, Note_on_c, 0, 71, 0
2, 29632, Note_on_c, 0, 69, 75
2, 29647, Note_on_c, 0, 69, 0
2, 29648, Note_on_c, 0, 71, 75
2, 29663, Note_on_c, 0, 71, 0
2, 29664, Note_on_c, 0, 72, 75
2, 29841, Note_on_c, 0, 72, 0
2, 29952, Note_on_c, 0, 76, 75
2, 29997, Note_on_c, 0, 76, 0
2, 30000, Note_on_c, 0, 84, 75
2, 30045, Note_on_c, 0, 84, 0
2, 30048, Note_on_c, 0, 76, 75
2, 30078, Note_on_c, 0, 76, 0
2, 30080, Note_on_c, 0, 78, 75
2, 30110, Note_on_c, 0, 78, 0
2, 30112, Note_on_c, 0, 79, 75
2, 30142, Note_on_c, 0, 79, 0
2, 30144, Note_on_c, 0, 78, 75
2, 30174, Note_on_c, 0, 78, 0
2, 30176, Note_on_c, 0, 79, 75
2, 30206, Note_on_c, 0, 79, 0
2, 30208, Note_on_c, 0, 81, 75
2, 30238, Note_on_c, 0, 81, 0
2, 30240, Note_on_c, 0, 79, 75
2, 30285, Note_on_c, 0, 79, 0
2, 30288, Note_on_c, 0, 83, 75
2, 30333, Note_on_c, 0, 83, 0
2, 30336, Note_on_c, 0, 74, 75
2, 30425, Note_on_c, 0, 74, 0
2, 30528, Note_on_c, 0, 72, 75
2, 30573, Note_on_c, 0, 72, 0
2, 30576, Note_on_c, 0, 81, 75
2, 30621, Note_on_c, 0, 81, 0
2, 30624, Note_on_c, 0, 69, 75
2, 30654, Note_on_c, 0, 69, 0
2, 30656, Note_on_c, 0, 71, 75
2, 30686, Note_on_c, 0, 71, 0
2, 30688, Note_on_c, 0, 72, 75
2, 30718, Note_on_c, 0, 72, 0
2, 30720, Note_on_c, 0, 71, 75
2, 30750, Note_on_c, 0, 71, 0
2, 30752, Note_on_c, 0, 72, 75
2, 30782, Note_on_c, 0, 72, 0
2, 30784, Note_on_c, 0, 74, 75
2, 30814, Note_on_c, 0, 74, 0
2, 30816, Note_on_c, 0, 74, 75
2, 30905, Note_on_c, 0, 74, 0
2, 30912, Note_on_c, 0, 74, 75
2, 30927, Note_on_c, 0, 74, 0
2, 30928, Note_on_c, 0, 72, 75
2, 30943, Note_on_c, 0, 72, 0
2, 30944, Note_on_c, 0, 74, 75
2, 30959, Note_on_c, 0, 74, 0
2, 30960, Note_on_c, 0, 72, 75
2, 30975, Note_on_c, 0, 72, 0
2, 30976, Note_on_c, 0, 71, 75
2, 30991, Note_on_c, 0, 71, 0
2, 30992, Note_on_c, 0, 72, 75
2, 31007, Note_on_c, 0, 72, 0
2, 31008, Note_on_c, 0, 71, 75
2, 31097, Note_on_c, 0, 71, 0
2, 31232, Note_on_c, 0, 76, 75
2, 31262, Note_on_c, 0, 76, 0
2, 31264, Note_on_c, 0, 78, 75
2, 31294, Note_on_c, 0, 78, 0
2, 31296, Note_on_c, 0, 79, 75
2, 31326, Note_on_c, 0, 79, 0
2, 31328, Note_on_c, 0, 78, 75
2, 31358, Note_on_c, 0, 78, 0
2, 31360, Note_on_c, 0, 76, 75
2, 31390, Note_on_c, 0, 76, 0
2, 31392, Note_on_c, 0, 74, 75
2, 31481, Note_on_c, 0, 74, 0
2, 31520, Note_on_c, 0, 78, 75
2, 31550, Note_on_c, 0, 78, 0
2, 31552, Note_on_c, 0, 79, 75
2, 31582, Note_on_c, 0, 79, 0
2, 31584, Note_on_c, 0, 81, 75
2, 31614, Note_on_c, 0, 81, 0
2, 31616, Note_on_c, 0, 78, 75
2, 31646, Note_on_c, 0, 78, 0
2, 31648, Note_on_c, 0, 79, 75
2, 31678, Note_on_c, 0, 79, 0
2, 31680, Note_on_c, 0, 76, 75
2, 31710, Note_on_c, 0, 76, 0
2, 31712, Note_on_c, 0, 74, 75
2, 31742, Note_on_c, 0, 74, 0
2, 31744, Note_on_c, 0, 72, 75
2, 31774, Note_on_c, 0, 72, 0
2, 31776, Note_on_c, 0, 71, 75
2, 31865, Note_on_c, 0, 71, 0
2, 31872, Note_on_c, 0, 71, 75
2, 31887, Note_on_c, 0, 71, 0
2, 31888, Note_on_c, 0, 69, 75
2, 31903, Note_on_c, 0, 69, 0
2, 31904, Note_on_c, 0, 71, 75
2, 31919, Note_on_c, 0, 71, 0
2, 31920, Note_on_c, 0, 69, 75
2, 31935, Note_on_c, 0, 69, 0
2, 31936, Note_on_c, 0, 67, 75
2, 31951, Note_on_c, 0, 67, 0
2, 31952, Note_on_c, 0, 69, 75
2, 31967, Note_on_c, 0, 69, 0
2, 31968, Note_on_c, 0, 67, 75
2, 32145, Note_on_c, 0, 67, 0
2, 32256, Note_on_c, 0, 74, 75
2, 32274, Note_on_c, 0, 74, 0
2, 32274, Note_on_c, 0, 72, 75
2, 32292, Note_on_c, 0, 72, 0
2, 32292, Note_on_c, 0, 71, 75
2, 32310, Note_on_c, 0, 71, 0
2, 32310, Note_on_c, 0, 72, 75
2, 32345, Note_on_c, 0, 72, 0
2, 32352, Note_on_c, 0, 76, 75
2, 32382, Note_on_c, 0, 76, 0
2, 32384, Note_on_c, 0, 74, 75
2, 32414, Note_on_c, 0, 74, 0
2, 32416, Note_on_c, 0, 72, 75
2, 32446, Note_on_c, 0, 72, 0
2, 32448, Note_on_c, 0, 77, 75
2, 32478, Note_on_c, 0, 77, 0
2, 32480, Note_on_c, 0, 76, 75
2, 32510, Note_on_c, 0, 76, 0
2, 32512, Note_on_c, 0, 74, 75
2, 32542, Note_on_c, 0, 74, 0
2, 32544, Note_on_c, 0, 79, 75
2, 32633, Note_on_c, 0, 79, 0
2, 32640, Note_on_c, 0, 76, 75
2, 32729, Note_on_c, 0, 76, 0
2, 32736, Note_on_c, 0, 79, 75
2, 32759, Note_on_c, 0, 79, 0
2, 32760, Note_on_c, 0, 77, 75
2, 32783, Note_on_c, 0, 77, 0
2, 32784, Note_on_c, 0, 76, 75
2, 32807, Note_on_c, 0, 76, 0
2, 32808, Note_on_c, 0, 74, 75
2, 32831, Note_on_c, 0, 74, 0
2, 32832, Note_on_c, 0, 72, 75
2, 32921, Note_on_c, 0, 72, 0
2, 32928, Note_on_c, 0, 84, 75
2, 33017, Note_on_c, 0, 84, 0
2, 33024, Note_on_c, 0, 81, 75
2, 33113, Note_on_c, 0, 81, 0
2, 33120, Note_on_c, 0, 83, 75
2, 33135, Note_on_c, 0, 83, 0
2, 33136, Note_on_c, 0, 81, 75
2, 33151, Note_on_c, 0, 81, 0
2, 33152, Note_on_c, 0, 83, 75
2, 33167, Note_on_c, 0, 83, 0
2, 33168, Note_on_c, 0, 81, 75
2, 33183, Note_on_c, 0, 81, 0
2, 33184, Note_on_c, 0, 79, 75
2, 33199, Note_on_c, 0, 79, 0
2, 33200, Note_on_c, 0, 81, 75
2, 33215, Note_on_c, 0, 81, 0
2, 33216, Note_on_c, 0, 79, 75
2, 33305, Note_on_c, 0, 79, 0
2, 33536, Note_on_c, 0, 74, 75
2, 33566, Note_on_c, 0, 74, 0
2, 33568, Note_on_c, 0, 76, 75
2, 33598, Note_on_c, 0, 76, 0
2, 33600, Note_on_c, 0, 77, 75
2, 33630, Note_on_c, 0, 77, 0
2, 33632, Note_on_c, 0, 76, 75
2, 33662, Note_on_c, 0, 76, 0
2, 33664, Note_on_c, 0, 74, 75
2, 33694, Note_on_c, 0, 74, 0
2, 33696, Note_on_c, 0, 76, 75
2, 33785, Note_on_c, 0, 76, 0
2, 33824, Note_on_c, 0, 76, 75
2, 33854, Note_on_c, 0, 76, 0
2, 33856, Note_on_c, 0, 77, 75
2, 33886, Note_on_c, 0, 77, 0
2, 33888, Note_on_c, 0, 79, 75
2, 33918, Note_on_c, 0, 79, 0
2, 33920, Note_on_c, 0, 77, 75
2, 33950, Note_on_c, 0, 77, 0
2, 33952, Note_on_c, 0, 76, 75
2, 33982, Note_on_c, 0, 76, 0
2, 33984, Note_on_c, 0, 81, 75
2, 34073, Note_on_c, 0, 81, 0
2, 34112, Note_on_c, 0, 81, 75
2, 34142, Note_on_c, 0, 81, 0
2, 34144, Note_on_c, 0, 83, 75
2, 34174, Note_on_c, 0, 83, 0
2, 34176, Note_on_c, 0, 84, 75
2, 34206, Note_on_c, 0, 84, 0
2, 34208, Note_on_c, 0, 83, 75
2, 34238, Note_on_c, 0, 83, 0
2, 34240, Note_on_c, 0, 81, 75
2, 34270, Note_on_c, 0, 81, 0
2, 34272, Note_on_c, 0, 79, 75
2, 34361, Note_on_c, 0, 79, 0
2, 34368, Note_on_c, 0, 84, 75
2, 34398, Note_on_c, 0, 84, 0
2, 34400, Note_on_c, 0, 83, 75
2, 34430, Note_on_c, 0, 83, 0
2, 34432, Note_on_c, 0, 81, 75
2, 34462, Note_on_c, 0, 81, 0
2, 34464, Note_on_c, 0, 79, 75
2, 34494, Note_on_c, 0, 79, 0
2, 34496, Note_on_c, 0, 77, 75
2, 34526, Note_on_c, 0, 77, 0
2, 34528, Note_on_c, 0, 76, 75
2, 34558, Note_on_c, 0, 76, 0
2, 34560, Note_on_c, 0, 74, 75
2, 34590, Note_on_c, 0, 74, 0
2, 34592, Note_on_c, 0, 77, 75
2, 34622, Note_on_c, 0, 77, 0
2, 34624, Note_on_c, 0, 81, 75
2, 34654, Note_on_c, 0, 81, 0
2, 34656, Note_on_c, 0, 72, 75
2, 34745, Note_on_c, 0, 72, 0
2, 34752, Note_on_c, 0, 72, 75
2, 34767, Note_on_c, 0, 72, 0
2, 34768, Note_on_c, 0, 71, 75
2, 34783, Note_on_c, 0, 71, 0
2, 34784, Note_on_c, 0, 72, 75
2, 34799, Note_on_c, 0, 72, 0
2, 34800, Note_on_c, 0, 71, 75
2, 34815, Note_on_c, 0, 71, 0
2, 34816, Note_on_c, 0, 69, 75
2, 34831, Note_on_c, 0, 69, 0
2, 34832, Note_on_c, 0, 71, 75
2, 34847, Note_on_c, 0, 71, 0
2, 34848, Note_on_c, 0, 72, 75
2, 35025, Note_on_c, 0, 72, 0
2, 35136, Note_on_c, 0, 76, 75
2, 35181, Note_on_c, 0, 76, 0
2, 35184, Note_on_c, 0, 84, 75
2, 35229, Note_on_c, 0, 84, 0
2, 35232, Note_on_c, 0, 76, 75
2, 35262, Note_on_c, 0, 76, 0
2, 35264, Note_on_c, 0, 78, 75
2, 35294, Note_on_c, 0, 78, 0
2, 35296, Note_on_c, 0, 79, 75
2, 35326, Note_on_c, 0, 79, 0
2, 35328, Note_on_c, 0, 78, 75
2, 35358, Note_on_c, 0, 78, 0
2, 35360, Note_on_c, 0, 79, 75
2, 35390, Note_on_c, 0, 79, 0
2, 35392, Note_on_c, 0, 81, 75
2, 35422, Note_on_c, 0, 81, 0
2, 35424, Note_on_c, 0, 79, 75
2, 35469, Note_on_c, 0, 79, 0
2, 35472, Note_on_c, 0, 83, 75
2, 35517, Note_on_c, 0, 83, 0
2, 35520, Note_on_c, 0, 74, 75
2, 35609, Note_on_c, 0, 74, 0
2, 35712, Note_on_c, 0, 72, 75
2, 35757, Note_on_c, 0, 72, 0
2, 35760, Note_on_c, 0, 81, 75
2, 35805, Note_on_c, 0, 81, 0
2, 35808, Note_on_c, 0, 69, 75
2, 35838, Note_on_c, 0, 69, 0
2, 35840, Note_on_c, 0, 71, 75
2, 35870, Note_on_c, 0, 71, 0
2, 35872, Note_on_c, 0, 72, 75
2, 35902, Note_on_c, 0, 72, 0
2, 35904, Note_on_c, 0, 71, 75
2, 35934, Note_on_c, 0, 71, 0
2, 35936, Note_on_c, 0, 72, 75
2, 35966, Note_on_c, 0, 72, 0
2, 35968, Note_on_c, 0, 74, 75
2, 35998, Note_on_c, 0, 74, 0
2, 36000, Note_on_c, 0, 74, 75
2, 36089, Note_on_c, 0, 74, 0
2, 36096, Note_on_c, 0, 74, 75
2, 36111, Note_on_c, 0, 74, 0
2, 36112, Note_on_c, 0, 72, 75
2, 36127, Note_on_c, 0, 72, 0
2, 36128, Note_on_c, 0, 74, 75
2, 36143, Note_on_c, 0, 74, 0
2, 36144, Note_on_c, 0, 72, 75
2, 36159, Note_on_c, 0, 72, 0
2, 36160, Note_on_c, 0, 71, 75
2, 36175, Note_on_c, 0, 71, 0
2, 36176, Note_on_c, 0, 72, 75
2, 36191, Note_on_c, 0, 72, 0
2, 36192, Note_on_c, 0, 71, 75
2, 36281, Note_on_c, 0, 71, 0
2, 36416, Note_on_c, 0, 76, 75
2, 36446, Note_on_c, 0, 76, 0
2, 36448, Note_on_c, 0, 78, 75
2, 36478, Note_on_c, 0, 78, 0
2, 36480, Note_on_c, 0, 79, 75
2, 36510, Note_on_c, 0, 79, 0
2, 36512, Note_on_c, 0, 78, 75
2, 36542, Note_on_c, 0, 78, 0
2, 36544, Note_on_c, 0, 76, 75
2, 36574, Note_on_c, 0, 76, 0
2, 36576, Note_on_c, 0, 74, 75
2, 36665, Note_on_c, 0, 74, 0
2, 36704, Note_on_c, 0, 78, 75
2, 36734, Note_on_c, 0, 78, 0
2, 36736, Note_on_c, 0, 79, 75
2, 36766, Note_on_c, 0, 79, 0
2, 36768, Note_on_c, 0, 81, 75
2, 36798, Note_on_c, 0, 81, 0
2, 36800, Note_on_c, 0, 78, 75
2, 36830, Note_on_c, 0, 78, 0
2, 36832, Note_on_c, 0, 79, 75
2, 36862, Note_on_c, 0, 79, 0
2, 36864, Note_on_c, 0, 76, 75
2, 36894, Note_on_c, 0, 76, 0
2, 36896, Note_on_c, 0, 74, 75
2, 36926, Note_on_c, 0, 74, 0
2, 36928, Note_on_c, 0, 72, 75
2, 36958, Note_on_c, 0, 72, 0
2, 36960, Note_on_c, 0, 71, 75
2, 37049, Note_on_c, 0, 71, 0
2, 37056, Note_on_c, 0, 71, 75
2, 37071, Note_on_c, 0, 71, 0
2, 37072, Note_on_c, 0, 69, 75
2, 37087, Note_on_c, 0, 69, 0
2, 37088, Note_on_c, 0, 71, 75
2, 37103, Note_on_c, 0, 71, 0
2, 37104, Note_on_c, 0, 69, 75
2, 37119, Note_on_c, 0, 69, 0
2, 37120, Note_on_c, 0, 67, 75
2, 37135, Note_on_c, 0, 67, 0
2, 37136, Note_on_c, 0, 69, 75
2, 37151, Note_on_c, 0, 69, 0
2, 37152, Note_on_c, 0, 67, 75
2, 37329, Note_on_c, 0, 67, 0
2, 37440, Note_on_c, 0, 74, 75
2, 37458, Note_on_c, 0, 74, 0
2, 37458, Note_on_c, 0, 72, 75
2, 37476, Note_on_c, 0, 72, 0
2, 37476, Note_on_c, 0, 71, 75
2, 37494, Note_on_c, 0, 71, 0
2, 37494, Note_on_c, 0, 72, 75
2, 37529, Note_on_c, 0, 72, 0
2, 37536, Note_on_c, 0, 76, 75
2, 37566, Note_on_c, 0, 76, 0
2, 37568, Note_on_c, 0, 74, 75
2, 37598, Note_on_c, 0, 74, 0
2, 37600, Note_on_c, 0, 72, 75
2, 37630, Note_on_c, 0, 72, 0
2, 37632, Note_on_c, 0, 77, 75
2, 37662, Note_on_c, 0, 77, 0
2, 37664, Note_on_c, 0, 76, 75
2, 37694, Note_on_c, 0, 76, 0
2, 37696, Note_on_c, 0, 74, 75
2, 37726, Note_on_c, 0, 74, 0
2, 37728, Note_on_c, 0, 79, 75
2, 37817, Note_on_c, 0, 79, 0
2, 37824, Note_on_c, 0, 76, 75
2, 37913, Note_on_c, 0, 76, 0
2, 37920, Note_on_c, 0, 79, 75
2, 37943, Note_on_c, 0, 79, 0
2, 37944, Note_on_c, 0, 77, 75
2, 37967, Note_on_c, 0, 77, 0
2, 37968, Note_on_c, 0, 76, 75
2, 37991, Note_on_c, 0, 76, 0
2, 37992, Note_on_c, 0, 74, 75
2, 38015, Note_on_c, 0, 74, 0
2, 38016, Note_on_c, 0, 72, 75
2, 38105, Note_on_c, 0, 72, 0
2, 38112, Note_on_c, 0, 84, 75
2, 38201, Note_on_c, 0, 84, 0
2, 38208, Note_on_c, 0, 81, 75
2, 38297, Note_on_c, 0, 81, 0
2, 38304, Note_on_c, 0, 83, 75
2, 38319, Note_on_c, 0, 83, 0
2, 38320, Note_on_c, 0, 81, 75
2, 38335, Note_on_c, 0, 81, 0
2, 38336, Note_on_c, 0, 83, 75
2, 38351, Note_on_c, 0, 83, 0
2, 38352, Note_on_c, 0, 81, 75
2, 38367, Note_on_c, 0, 81, 0
2, 38368, Note_on_c, 0, 79, 75
2, 38383, Note_on_c, 0, 79, 0
2, 38384, Note_on_c, 0, 81, 75
2, 38399, Note_on_c, 0, 81, 0
2, 38400, Note_on_c, 0, 79, 75
2, 38489, Note_on_c, 0, 79, 0
2, 38720, Note_on_c, 0, 74, 75
2, 38750, Note_on_c, 0, 74, 0
2, 38752, Note_on_c, 0, 76, 75
2, 38782, Note_on_c, 0, 76, 0
2, 38784, Note_on_c, 0, 77, 75
2, 38814, Note_on_c, 0, 77, 0
2, 38816, Note_on_c, 0, 76, 75
2, 38846, Note_on_c, 0, 76, 0
2, 38848, Note_on_c, 0, 74, 75
2, 38878, Note_on_c, 0, 74, 0
2, 38880, Note_on_c, 0, 76, 75
2, 38969, Note_on_c, 0, 76, 0
2, 39008, Note_on_c, 0, 76, 75
2, 39038, Note_on_c, 0, 76, 0
2, 39040, Note_on_c, 0, 77, 75
2, 39070, Note_on_c, 0, 77, 0
2, 39072, Note_on_c, 0, 79, 75
2, 39102, Note_on_c, 0, 79, 0
2, 39104, Note_on_c, 0, 77, 75
2, 39134, Note_on_c, 0, 77, 0
2, 39136, Note_on_c, 0, 76, 75
2, 39166, Note_on_c, 0, 76, 0
2, 39168, Note_on_c, 0, 81, 75
2, 39257, Note_on_c, 0, 81, 0
2, 39296, Note_on_c, 0, 81, 75
2, 39326, Note_on_c, 0, 81, 0
2, 39328, Note_on_c, 0, 83, 75
2, 39358, Note_on_c, 0, 83, 0
2, 39360, Note_on_c, 0, 84, 75
2, 39390, Note_on_c, 0, 84, 0
2, 39392, Note_on_c, 0, 83, 75
2, 39422, Note_on_c, 0, 83, 0
2, 39424, Note_on_c, 0, 81, 75
2, 39454, Note_on_c, 0, 81, 0
2, 39456, Note_on_c, 0, 79, 75
2, 39545, Note_on_c, 0, 79, 0
2, 39552, Note_on_c, 0, 84, 75
2, 39582, Note_on_c, 0, 84, 0
2, 39584, Note_on_c, 0, 83, 75
2, 39614, Note_on_c, 0, 83, 0
2, 39616, Note_on_c, 0, 81, 75
2, 39646, Note_on_c, 0, 81, 0
2, 39648, Note_on_c, 0, 79, 75
2, 39678, Note_on_c, 0, 79, 0
2, 39680, Note_on_c, 0, 77, 75
2, 39710, Note_on_c, 0, 77, 0
2, 39712, Note_on_c, 0, 76, 75
2, 39742, Note_on_c, 0, 76, 0
2, 39744, Note_on_c, 0, 74, 75
2, 39774, Note_on_c, 0, 74, 0
2, 39776, Note_on_c, 0, 77, 75
2, 39806, Note_on_c, 0, 77, 0
2, 39808, Note_on_c, 0, 81, 75
2, 39838, Note_on_c, 0, 81, 0
2, 39840, Note_on_c, 0, 72, 75
2, 39929, Note_on_c, 0, 72, 0
2, 39936, Note_on_c, 0, 72, 75
2, 39951, Note_on_c, 0, 72, 0
2, 39952, Note_on_c, 0, 71, 75
2, 39967, Note_on_c, 0, 71, 0
2, 39968, Note_on_c, 0, 72, 75
2, 39983, Note_on_c, 0, 72, 0
2, 39984, Note_on_c, 0, 71, 75
2, 39999, Note_on_c, 0, 71, 0
2, 40000, Note_on_c, 0, 69, 75
2, 40015, Note_on_c, 0, 69, 0
2, 40016, Note_on_c, 0, 71, 75
2, 40031, Note_on_c, 0, 71, 0
2, 40032, Note_on_c, 0, 72, 75
2, 40209, Note_on_c, 0, 72, 0
2, 40320, End_track
3, 0, Start_track
3, 0, Program_c, 0, 0
3, 0, Control_c, 0, 7, 127
3, 0, Control_c, 0, 10, 64
3, 40320, End_track
4, 0, Start_track
4, 0, Program_c, 1, 0
4, 0, Control_c, 1, 7, 127
4, 0, Control_c, 1, 10, 64
4, 0, Note_on_c, 1, 60, 91
4, 0, Note_on_c, 1, 48, 91
4, 96, Note_on_c, 1, 60, 0
4, 96, Note_on_c, 1, 48, 0
4, 288, Note_on_c, 1, 64, 75
4, 377, Note_on_c, 1, 64, 0
4, 384, Note_on_c, 1, 60, 75
4, 473, Note_on_c, 1, 60, 0
4, 480, Note_on_c, 1, 62, 75
4, 480, Note_on_c, 1, 55, 75
4, 569, Note_on_c, 1, 62, 0
4, 569, Note_on_c, 1, 55, 0
4, 576, Note_on_c, 1, 60, 75
4, 665, Note_on_c, 1, 60, 0
4, 672, Note_on_c, 1, 64, 75
4, 761, Note_on_c, 1, 64, 0
4, 768, Note_on_c, 1, 65, 75
4, 857, Note_on_c, 1, 65, 0
4, 864, Note_on_c, 1, 65, 75
4, 953, Note_on_c, 1, 65, 0
4, 960, Note_on_c, 1, 64, 75
4, 1049, Note_on_c, 1, 64, 0
4, 1152, Note_on_c, 1, 59, 75
4, 1182, Note_on_c, 1, 59, 0
4, 1184, Note_on_c, 1, 62, 75
4, 1214, Note_on_c, 1, 62, 0
4, 1216, Note_on_c, 1, 67, 75
4, 1246, Note_on_c, 1, 67, 0
4, 1248, Note_on_c, 1, 59, 75
4, 1337, Note_on_c, 1, 59, 0
4, 1440, Note_on_c, 1, 60, 75
4, 1470, Note_on_c, 1, 60, 0
4, 1472, Note_on_c, 1, 64, 75
4, 1502, Note_on_c, 1, 64, 0
4, 1504, Note_on_c, 1, 67, 75
4, 1534, Note_on_c, 1, 67, 0
4, 1536, Note_on_c, 1, 60, 75
4, 1625, Note_on_c, 1, 60, 0
4, 1728, Note_on_c, 1, 65, 75
4, 1728, Note_on_c, 1, 53, 75
4, 1817, Note_on_c, 1, 65, 0
4, 1817, Note_on_c, 1, 53, 0
4, 1824, Note_on_c, 1, 64, 75
4, 1824, Note_on_c, 1, 55, 75
4, 1913, Note_on_c, 1, 64, 0
4, 1913, Note_on_c, 1, 55, 0
4, 1920, Note_on_c, 1, 62, 75
4, 1920, Note_on_c, 1, 55, 75
4, 2009, Note_on_c, 1, 62, 0
4, 2009, Note_on_c, 1, 55, 0
4, 2016, Note_on_c, 1, 60, 75
4, 2105, Note_on_c, 1, 60, 0
4, 2112, Note_on_c, 1, 55, 75
4, 2201, Note_on_c, 1, 55, 0
4, 2208, Note_on_c, 1, 48, 75
4, 2297, Note_on_c, 1, 48, 0
4, 2304, Note_on_c, 1, 60, 91
4, 2304, Note_on_c, 1, 48, 91
4, 2400, Note_on_c, 1, 60, 0
4, 2400, Note_on_c, 1, 48, 0
4, 2592, Note_on_c, 1, 64, 75
4, 2681, Note_on_c, 1, 64, 0
4, 2688, Note_on_c, 1, 60, 75
4, 2777, Note_on_c, 1, 60, 0
4, 2784, Note_on_c, 1, 62, 75
4, 2784, Note_on_c, 1, 55, 75
4, 2873, Note_on_c, 1, 62, 0
4, 2873, Note_on_c, 1, 55, 0
4, 2880, Note_on_c, 1, 60, 75
4, 2969, Note_on_c, 1, 60, 0
4, 2976, Note_on_c, 1, 64, 75
4, 3065, Note_on_c, 1, 64, 0
4, 3072, Note_on_c, 1, 65, 75
4, 3161, Note_on_c, 1, 65, 0
4, 3168, Note_on_c, 1, 65, 75
4, 3257, Note_on_c, 1, 65, 0
4, 3264, Note_on_c, 1, 64, 75
4, 3353, Note_on_c, 1, 64, 0
4, 3456, Note_on_c, 1, 59, 75
4, 3486, Note_on_c, 1, 59, 0
4, 3488, Note_on_c, 1, 62, 75
4, 3518, Note_on_c, 1, 62, 0
4, 3520, Note_on_c, 1, 67, 75
4, 3550, Note_on_c, 1, 67, 0
4, 3552, Note_on_c, 1, 59, 75
4, 3641, Note_on_c, 1, 59, 0
4, 3744, Note_on_c, 1, 60, 75
4, 3774, Note_on_c, 1, 60, 0
4, 3776, Note_on_c, 1, 64, 75
4, 3806, Note_on_c, 1, 64, 0
4, 3808, Note_on_c, 1, 67, 75
4, 3838, Note_on_c, 1, 67, 0
4, 3840, Note_on_c, 1, 60, 75
4, 3929, Note_on_c, 1, 60, 0
4, 4032, Note_on_c, 1, 65, 75
4, 4032, Note_on_c, 1, 53, 75
4, 4121, Note_on_c, 1, 65, 0
4, 4121, Note_on_c, 1, 53, 0
4, 4128, Note_on_c, 1, 64, 75
4, 4128, Note_on_c, 1, 55, 75
4, 4217, Note_on_c, 1, 64, 0
4, 4217, Note_on_c, 1, 55, 0
4, 4224, Note_on_c, 1, 62, 75
4, 4224, Note_on_c, 1, 55, 75
4, 4313, Note_on_c, 1, 62, 0
4, 4313, Note_on_c, 1, 55, 0
4, 4320, Note_on_c, 1, 60, 75
4, 4409, Note_on_c, 1, 60, 0
4, 4416, Note_on_c, 1, 55, 75
4, 4505, Note_on_c, 1, 55, 0
4, 4512, Note_on_c, 1, 48, 75
4, 4601, Note_on_c, 1, 48, 0
4, 4608, Note_on_c, 1, 48, 75
4, 4697, Note_on_c, 1, 48, 0
4, 4800, Note_on_c, 1, 48, 75
4, 4889, Note_on_c, 1, 48, 0
4, 4896, Note_on_c, 1, 47, 75
4, 5029, Note_on_c, 1, 47, 0
4, 5040, Note_on_c, 1, 59, 75
4, 5085, Note_on_c, 1, 59, 0
4, 5088, Note_on_c, 1, 57, 75
4, 5133, Note_on_c, 1, 57, 0
4, 5136, Note_on_c, 1, 55, 75
4, 5181, Note_on_c, 1, 55, 0
4, 5184, Note_on_c, 1, 57, 75
4, 5273, Note_on_c, 1, 57, 0
4, 5280, Note_on_c, 1, 54, 75
4, 5369, Note_on_c, 1, 54, 0
4, 5376, Note_on_c, 1, 55, 75
4, 5465, Note_on_c, 1, 55, 0
4, 5472, Note_on_c, 1, 57, 75
4, 5561, Note_on_c, 1, 57, 0
4, 5568, Note_on_c, 1, 50, 75
4, 5657, Note_on_c, 1, 50, 0
4, 5664, Note_on_c, 1, 55, 75
4, 5753, Note_on_c, 1, 55, 0
4, 5760, Note_on_c, 1, 48, 75
4, 5790, Note_on_c, 1, 48, 0
4, 5792, Note_on_c, 1, 52, 75
4, 5822, Note_on_c, 1, 52, 0
4, 5824, Note_on_c, 1, 55, 75
4, 5854, Note_on_c, 1, 55, 0
4, 5856, Note_on_c, 1, 48, 75
4, 5945, Note_on_c, 1, 48, 0
4, 6048, Note_on_c, 1, 47, 75
4, 6078, Note_on_c, 1, 47, 0
4, 6080, Note_on_c, 1, 50, 75
4, 6110, Note_on_c, 1, 50, 0
4, 6112, Note_on_c, 1, 55, 75
4, 6142, Note_on_c, 1, 55, 0
4, 6144, Note_on_c, 1, 47, 75
4, 6233, Note_on_c, 1, 47, 0
4, 6336, Note_on_c, 1, 55, 75
4, 6425, Note_on_c, 1, 55, 0
4, 6432, Note_on_c, 1, 55, 75
4, 6521, Note_on_c, 1, 55, 0
4, 6528, Note_on_c, 1, 54, 75
4, 6617, Note_on_c, 1, 54, 0
4, 6624, Note_on_c, 1, 55, 75
4, 6713, Note_on_c, 1, 55, 0
4, 6720, Note_on_c, 1, 50, 75
4, 6809, Note_on_c, 1, 50, 0
4, 6816, Note_on_c, 1, 43, 75
4, 6905, Note_on_c, 1, 43, 0
4, 6912, Note_on_c, 1, 60, 91
4, 6912, Note_on_c, 1, 48, 91
4, 7008, Note_on_c, 1, 60, 0
4, 7008, Note_on_c, 1, 48, 0
4, 7200, Note_on_c, 1, 64, 75
4, 7289, Note_on_c, 1, 64, 0
4, 7296, Note_on_c, 1, 60, 75
4, 7385, Note_on_c, 1, 60, 0
4, 7392, Note_on_c, 1, 62, 75
4, 7392, Note_on_c, 1, 55, 75
4, 7481, Note_on_c, 1, 62, 0
4, 7481, Note_on_c, 1, 55, 0
4, 7488, Note_on_c, 1, 60, 75
4, 7577, Note_on_c, 1, 60, 0
4, 7584, Note_on_c, 1, 64, 75
4, 7673, Note_on_c, 1, 64, 0
4, 7680, Note_on_c, 1, 65, 75
4, 7769, Note_on_c, 1, 65, 0
4, 7776, Note_on_c, 1, 65, 75
4, 7865, Note_on_c, 1, 65, 0
4, 7872, Note_on_c, 1, 64, 75
4, 7961, Note_on_c, 1, 64, 0
4, 8064, Note_on_c, 1, 59, 75
4, 8094, Note_on_c, 1, 59, 0
4, 8096, Note_on_c, 1, 62, 75
4, 8126, Note_on_c, 1, 62, 0
4, 8128, Note_on_c, 1, 67, 75
4, 8158, Note_on_c, 1, 67, 0
4, 8160, Note_on_c, 1, 59, 75
4, 8249, Note_on_c, 1, 59, 0
4, 8352, Note_on_c, 1, 60, 75
4, 8382, Note_on_c, 1, 60, 0
4, 8384, Note_on_c, 1, 64, 75
4, 8414, Note_on_c, 1, 64, 0
4, 8416, Note_on_c, 1, 67, 75
4, 8446, Note_on_c, 1, 67, 0
4, 8448, Note_on_c, 1, 60, 75
4, 8537, Note_on_c, 1, 60, 0
4, 8640, Note_on_c, 1, 53, 75
4, 8670, Note_on_c, 1, 53, 0
4, 8672, Note_on_c, 1, 57, 75
4, 8702, Note_on_c, 1, 57, 0
4, 8704, Note_on_c, 1, 60, 75
4, 8734, Note_on_c, 1, 60, 0
4, 8736, Note_on_c, 1, 53, 75
4, 8825, Note_on_c, 1, 53, 0
4, 8928, Note_on_c, 1, 52, 75
4, 8958, Note_on_c, 1, 52, 0
4, 8960, Note_on_c, 1, 55, 75
4, 8990, Note_on_c, 1, 55, 0
4, 8992, Note_on_c, 1, 60, 75
4, 9022, Note_on_c, 1, 60, 0
4, 9024, Note_on_c, 1, 52, 75
4, 9113, Note_on_c, 1, 52, 0
4, 9216, Note_on_c, 1, 65, 75
4, 9305, Note_on_c, 1, 65, 0
4, 9312, Note_on_c, 1, 64, 75
4, 9401, Note_on_c, 1, 64, 0
4, 9408, Note_on_c, 1, 62, 75
4, 9497, Note_on_c, 1, 62, 0
4, 9504, Note_on_c, 1, 60, 75
4, 9593, Note_on_c, 1, 60, 0
4, 9600, Note_on_c, 1, 55, 75
4, 9689, Note_on_c, 1, 55, 0
4, 9696, Note_on_c, 1, 48, 75
4, 9785, Note_on_c, 1, 48, 0
4, 9792, Note_on_c, 1, 48, 75
4, 9881, Note_on_c, 1, 48, 0
4, 9984, Note_on_c, 1, 48, 75
4, 10073, Note_on_c, 1, 48, 0
4, 10080, Note_on_c, 1, 47, 75
4, 10213, Note_on_c, 1, 47, 0
4, 10224, Note_on_c, 1, 59, 75
4, 10269, Note_on_c, 1, 59, 0
4, 10272, Note_on_c, 1, 57, 75
4, 10317, Note_on_c, 1, 57, 0
4, 10320, Note_on_c, 1, 55, 75
4, 10365, Note_on_c, 1, 55, 0
4, 10368, Note_on_c, 1, 57, 75
4, 10457, Note_on_c, 1, 57, 0
4, 10464, Note_on_c, 1, 54, 75
4, 10553, Note_on_c, 1, 54, 0
4, 10560, Note_on_c, 1, 55, 75
4, 10649, Note_on_c, 1, 55, 0
4, 10656, Note_on_c, 1, 57, 75
4, 10745, Note_on_c, 1, 57, 0
4, 10752, Note_on_c, 1, 50, 75
4, 10841, Note_on_c, 1, 50, 0
4, 10848, Note_on_c, 1, 55, 75
4, 10937, Note_on_c, 1, 55, 0
4, 10944, Note_on_c, 1, 48, 75
4, 10974, Note_on_c, 1, 48, 0
4, 10976, Note_on_c, 1, 52, 75
4, 11006, Note_on_c, 1, 52, 0
4, 11008, Note_on_c, 1, 55, 75
4, 11038, Note_on_c, 1, 55, 0
4, 11040, Note_on_c, 1, 48, 75
4, 11129, Note_on_c, 1, 48, 0
4, 11232, Note_on_c, 1, 47, 75
4, 11262, Note_on_c, 1, 47, 0
4, 11264, Note_on_c, 1, 50, 75
4, 11294, Note_on_c, 1, 50, 0
4, 11296, Note_on_c, 1, 55, 75
4, 11326, Note_on_c, 1, 55, 0
4, 11328, Note_on_c, 1, 47, 75
4, 11417, Note_on_c, 1, 47, 0
4, 11520, Note_on_c, 1, 55, 75
4, 11609, Note_on_c, 1, 55, 0
4, 11616, Note_on_c, 1, 55, 75
4, 11705, Note_on_c, 1, 55, 0
4, 11712, Note_on_c, 1, 54, 75
4, 11801, Note_on_c, 1, 54, 0
4, 11808, Note_on_c, 1, 55, 75
4, 11897, Note_on_c, 1, 55, 0
4, 11904, Note_on_c, 1, 50, 75
4, 11993, Note_on_c, 1, 50, 0
4, 12000, Note_on_c, 1, 43, 75
4, 12089, Note_on_c, 1, 43, 0
4, 12096, Note_on_c, 1, 60, 91
4, 12096, Note_on_c, 1, 48, 91
4, 12192, Note_on_c, 1, 60, 0
4, 12192, Note_on_c, 1, 48, 0
4, 12384, Note_on_c, 1, 64, 75
4, 12473, Note_on_c, 1, 64, 0
4, 12480, Note_on_c, 1, 60, 75
4, 12569, Note_on_c, 1, 60, 0
4, 12576, Note_on_c, 1, 62, 75
4, 12576, Note_on_c, 1, 55, 75
4, 12665, Note_on_c, 1, 62, 0
4, 12665, Note_on_c, 1, 55, 0
4, 12672, Note_on_c, 1, 60, 75
4, 12761, Note_on_c, 1, 60, 0
4, 12768, Note_on_c, 1, 64, 75
4, 12857, Note_on_c, 1, 64, 0
4, 12864, Note_on_c, 1, 65, 75
4, 12953, Note_on_c, 1, 65, 0
4, 12960, Note_on_c, 1, 65, 75
4, 13049, Note_on_c, 1, 65, 0
4, 13056, Note_on_c, 1, 64, 75
4, 13145, Note_on_c, 1, 64, 0
4, 13248, Note_on_c, 1, 59, 75
4, 13278, Note_on_c, 1, 59, 0
4, 13280, Note_on_c, 1, 62, 75
4, 13310, Note_on_c, 1, 62, 0
4, 13312, Note_on_c, 1, 67, 75
4, 13342, Note_on_c, 1, 67, 0
4, 13344, Note_on_c, 1, 59, 75
4, 13433, Note_on_c, 1, 59, 0
4, 13536, Note_on_c, 1, 60, 75
4, 13566, Note_on_c, 1, 60, 0
4, 13568, Note_on_c, 1, 64, 75
4, 13598, Note_on_c, 1, 64, 0
4, 13600, Note_on_c, 1, 67, 75
4, 13630, Note_on_c, 1, 67, 0
4, 13632, Note_on_c, 1, 60, 75
4, 13721, Note_on_c, 1, 60, 0
4, 13824, Note_on_c, 1, 53, 75
4, 13854, Note_on_c, 1, 53, 0
4, 13856, Note_on_c, 1, 57, 75
4, 13886, Note_on_c, 1, 57, 0
4, 13888, Note_on_c, 1, 60, 75
4, 13918, Note_on_c, 1, 60, 0
4, 13920, Note_on_c, 1, 53, 75
4, 14009, Note_on_c, 1, 53, 0
4, 14112, Note_on_c, 1, 52, 75
4, 14142, Note_on_c, 1, 52, 0
4, 14144, Note_on_c, 1, 55, 75
4, 14174, Note_on_c, 1, 55, 0
4, 14176, Note_on_c, 1, 60, 75
4, 14206, Note_on_c, 1, 60, 0
4, 14208, Note_on_c, 1, 52, 75
4, 14297, Note_on_c, 1, 52, 0
4, 14400, Note_on_c, 1, 65, 75
4, 14489, Note_on_c, 1, 65, 0
4, 14496, Note_on_c, 1, 64, 75
4, 14585, Note_on_c, 1, 64, 0
4, 14592, Note_on_c, 1, 62, 75
4, 14681, Note_on_c, 1, 62, 0
4, 14688, Note_on_c, 1, 60, 75
4, 14777, Note_on_c, 1, 60, 0
4, 14784, Note_on_c, 1, 55, 75
4, 14873, Note_on_c, 1, 55, 0
4, 14880, Note_on_c, 1, 48, 75
4, 14969, Note_on_c, 1, 48, 0
4, 15168, Note_on_c, 1, 56, 67
4, 15353, Note_on_c, 1, 56, 0
4, 15360, Note_on_c, 1, 55, 67
4, 15641, Note_on_c, 1, 55, 0
4, 15648, Note_on_c, 1, 53, 67
4, 15737, Note_on_c, 1, 53, 0
4, 15744, Note_on_c, 1, 54, 67
4, 15833, Note_on_c, 1, 54, 0
4, 15840, Note_on_c, 1, 55, 67
4, 15973, Note_on_c, 1, 55, 0
4, 15984, Note_on_c, 1, 53, 67
4, 16029, Note_on_c, 1, 53, 0
4, 16032, Note_on_c, 1, 51, 67
4, 16077, Note_on_c, 1, 51, 0
4, 16080, Note_on_c, 1, 50, 67
4, 16125, Note_on_c, 1, 50, 0
4, 16320, Note_on_c, 1, 56, 67
4, 16505, Note_on_c, 1, 56, 0
4, 16512, Note_on_c, 1, 53, 67
4, 16601, Note_on_c, 1, 53, 0
4, 16608, Note_on_c, 1, 50, 69
4, 16697, Note_on_c, 1, 50, 0
4, 16704, Note_on_c, 1, 51, 72
4, 16793, Note_on_c, 1, 51, 0
4, 16800, Note_on_c, 1, 55, 75
4, 16889, Note_on_c, 1, 55, 0
4, 16896, Note_on_c, 1, 58, 75
4, 16985, Note_on_c, 1, 58, 0
4, 16992, Note_on_c, 1, 51, 75
4, 17081, Note_on_c, 1, 51, 0
4, 17088, Note_on_c, 1, 55, 75
4, 17133, Note_on_c, 1, 55, 0
4, 17136, Note_on_c, 1, 53, 73
4, 17181, Note_on_c, 1, 53, 0
4, 17184, Note_on_c, 1, 51, 71
4, 17229, Note_on_c, 1, 51, 0
4, 17232, Note_on_c, 1, 50, 69
4, 17277, Note_on_c, 1, 50, 0
4, 17472, Note_on_c, 1, 56, 67
4, 17657, Note_on_c, 1, 56, 0
4, 17664, Note_on_c, 1, 55, 67
4, 17945, Note_on_c, 1, 55, 0
4, 17952, Note_on_c, 1, 53, 67
4, 18041, Note_on_c, 1, 53, 0
4, 18048, Note_on_c, 1, 54, 67
4, 18137, Note_on_c, 1, 54, 0
4, 18144, Note_on_c, 1, 55, 67
4, 18277, Note_on_c, 1, 55, 0
4, 18288, Note_on_c, 1, 53, 67
4, 18333, Note_on_c, 1, 53, 0
4, 18336, Note_on_c, 1, 51, 67
4, 18381, Note_on_c, 1, 51, 0
4, 18384, Note_on_c, 1, 50, 67
4, 18429, Note_on_c, 1, 50, 0
4, 18624, Note_on_c, 1, 56, 67
4, 18809, Note_on_c, 1, 56, 0
4, 18816, Note_on_c, 1, 53, 67
4, 18905, Note_on_c, 1, 53, 0
4, 18912, Note_on_c, 1, 50, 69
4, 19001, Note_on_c, 1, 50, 0
4, 19008, Note_on_c, 1, 51, 72
4, 19097, Note_on_c, 1, 51, 0
4, 19104, Note_on_c, 1, 55, 75
4, 19193, Note_on_c, 1, 55, 0
4, 19200, Note_on_c, 1, 58, 75
4, 19289, Note_on_c, 1, 58, 0
4, 19296, Note_on_c, 1, 51, 75
4, 19385, Note_on_c, 1, 51, 0
4, 19392, Note_on_c, 1, 55, 75
4, 19437, Note_on_c, 1, 55, 0
4, 19440, Note_on_c, 1, 53, 73
4, 19485, Note_on_c, 1, 53, 0
4, 19488, Note_on_c, 1, 51, 71
4, 19533, Note_on_c, 1, 51, 0
4, 19536, Note_on_c, 1, 50, 69
4, 19581, Note_on_c, 1, 50, 0
4, 19584, Note_on_c, 1, 51, 80
4, 19584, Note_on_c, 1, 39, 80
4, 19761, Note_on_c, 1, 51, 0
4, 19761, Note_on_c, 1, 39, 0
4, 19776, Note_on_c, 1, 52, 80
4, 19776, Note_on_c, 1, 40, 80
4, 19865, Note_on_c, 1, 52, 0
4, 19865, Note_on_c, 1, 40, 0
4, 19872, Note_on_c, 1, 53, 80
4, 19872, Note_on_c, 1, 41, 80
4, 19961, Note_on_c, 1, 53, 0
4, 19961, Note_on_c, 1, 41, 0
4, 19968, Note_on_c, 1, 50, 80
4, 20057, Note_on_c, 1, 50, 0
4, 20064, Note_on_c, 1, 46, 77
4, 20153, Note_on_c, 1, 46, 0
4, 20160, Note_on_c, 1, 51, 74
4, 20337, Note_on_c, 1, 51, 0
4, 20352, Note_on_c, 1, 53, 69
4, 20441, Note_on_c, 1, 53, 0
4, 20448, Note_on_c, 1, 55, 67
4, 20592, Note_on_c, 1, 55, 0
4, 20592, Note_on_c, 1, 56, 67
4, 20637, Note_on_c, 1, 56, 0
4, 20640, Note_on_c, 1, 55, 67
4, 20685, Note_on_c, 1, 55, 0
4, 20688, Note_on_c, 1, 53, 67
4, 20733, Note_on_c, 1, 53, 0
4, 20736, Note_on_c, 1, 51, 67
4, 20869, Note_on_c, 1, 51, 0
4, 20880, Note_on_c, 1, 53, 70
4, 20925, Note_on_c, 1, 53, 0
4, 20928, Note_on_c, 1, 51, 71
4, 20973, Note_on_c, 1, 51, 0
4, 20976, Note_on_c, 1, 50, 72
4, 21021, Note_on_c, 1, 50, 0
4, 21024, Note_on_c, 1, 48, 73
4, 21113, Note_on_c, 1, 48, 0
4, 21168, Note_on_c, 1, 56, 75
4, 21213, Note_on_c, 1, 56, 0
4, 21216, Note_on_c, 1, 55, 75
4, 21261, Note_on_c, 1, 55, 0
4, 21264, Note_on_c, 1, 53, 75
4, 21309, Note_on_c, 1, 53, 0
4, 21312, Note_on_c, 1, 51, 75
4, 21401, Note_on_c, 1, 51, 0
4, 21456, Note_on_c, 1, 55, 76
4, 21501, Note_on_c, 1, 55, 0
4, 21504, Note_on_c, 1, 53, 77
4, 21549, Note_on_c, 1, 53, 0
4, 21552, Note_on_c, 1, 52, 78
4, 21597, Note_on_c, 1, 52, 0
4, 21600, Note_on_c, 1, 53, 78
4, 21689, Note_on_c, 1, 53, 0
4, 21744, Note_on_c, 1, 53, 80
4, 21789, Note_on_c, 1, 53, 0
4, 21792, Note_on_c, 1, 51, 80
4, 21837, Note_on_c, 1, 51, 0
4, 21840, Note_on_c, 1, 50, 80
4, 21885, Note_on_c, 1, 50, 0
4, 21888, Note_on_c, 1, 51, 80
4, 21977, Note_on_c, 1, 51, 0
4, 21984, Note_on_c, 1, 53, 74
4, 22073, Note_on_c, 1, 53, 0
4, 22080, Note_on_c, 1, 55, 69
4, 22169, Note_on_c, 1, 55, 0
4, 22176, Note_on_c, 1, 48, 64
4, 22265, Note_on_c, 1, 48, 0
4, 22272, Note_on_c, 1, 43, 64
4, 22361, Note_on_c, 1, 43, 0
4, 22368, Note_on_c, 1, 36, 64
4, 22457, Note_on_c, 1, 36, 0
4, 22464, Note_on_c, 1, 51, 80
4, 22464, Note_on_c, 1, 39, 80
4, 22641, Note_on_c, 1, 51, 0
4, 22641, Note_on_c, 1, 39, 0
4, 22656, Note_on_c, 1, 52, 80
4, 22656, Note_on_c, 1, 40, 80
4, 22745, Note_on_c, 1, 52, 0
4, 22745, Note_on_c, 1, 40, 0
4, 22752, Note_on_c, 1, 53, 80
4, 22752, Note_on_c, 1, 41, 80
4, 22841, Note_on_c, 1, 53, 0
4, 22841, Note_on_c, 1, 41, 0
4, 22848, Note_on_c, 1, 50, 80
4, 22937, Note_on_c, 1, 50, 0
4, 22944, Note_on_c, 1, 46, 77
4, 23033, Note_on_c, 1, 46, 0
4, 23040, Note_on_c, 1, 51, 74
4, 23217, Note_on_c, 1, 51, 0
4, 23232, Note_on_c, 1, 53, 69
4, 23321, Note_on_c, 1, 53, 0
4, 23328, Note_on_c, 1, 55, 67
4, 23472, Note_on_c, 1, 55, 0
4, 23472, Note_on_c, 1, 56, 67
4, 23517, Note_on_c, 1, 56, 0
4, 23520, Note_on_c, 1, 55, 67
4, 23565, Note_on_c, 1, 55, 0
4, 23568, Note_on_c, 1, 53, 67
4, 23613, Note_on_c, 1, 53, 0
4, 23616, Note_on_c, 1, 51, 67
4, 23749, Note_on_c, 1, 51, 0
4, 23760, Note_on_c, 1, 53, 70
4, 23805, Note_on_c, 1, 53, 0
4, 23808, Note_on_c, 1, 51, 71
4, 23853, Note_on_c, 1, 51, 0
4, 23856, Note_on_c, 1, 50, 72
4, 23901, Note_on_c, 1, 50, 0
4, 23904, Note_on_c, 1, 48, 73
4, 23993, Note_on_c, 1, 48, 0
4, 24048, Note_on_c, 1, 56, 75
4, 24093, Note_on_c, 1, 56, 0
4, 24096, Note_on_c, 1, 55, 75
4, 24141, Note_on_c, 1, 55, 0
4, 24144, Note_on_c, 1, 53, 75
4, 24189, Note_on_c, 1, 53, 0
4, 24192, Note_on_c, 1, 51, 75
4, 24281, Note_on_c, 1, 51, 0
4, 24336, Note_on_c, 1, 55, 76
4, 24381, Note_on_c, 1, 55, 0
4, 24384, Note_on_c, 1, 53, 77
4, 24429, Note_on_c, 1, 53, 0
4, 24432, Note_on_c, 1, 52, 78
4, 24477, Note_on_c, 1, 52, 0
4, 24480, Note_on_c, 1, 53, 78
4, 24569, Note_on_c, 1, 53, 0
4, 24624, Note_on_c, 1, 53, 80
4, 24669, Note_on_c, 1, 53, 0
4, 24672, Note_on_c, 1, 51, 80
4, 24717, Note_on_c, 1, 51, 0
4, 24720, Note_on_c, 1, 50, 80
4, 24765, Note_on_c, 1, 50, 0
4, 24768, Note_on_c, 1, 51, 80
4, 24857, Note_on_c, 1, 51, 0
4, 24864, Note_on_c, 1, 53, 74
4, 24953, Note_on_c, 1, 53, 0
4, 24960, Note_on_c, 1, 55, 69
4, 25049, Note_on_c, 1, 55, 0
4, 25056, Note_on_c, 1, 48, 64
4, 25145, Note_on_c, 1, 48, 0
4, 25152, Note_on_c, 1, 43, 64
4, 25241, Note_on_c, 1, 43, 0
4, 25248, Note_on_c, 1, 36, 64
4, 25337, Note_on_c, 1, 36, 0
4, 25344, Note_on_c, 1, 60, 91
4, 25344, Note_on_c, 1, 48, 91
4, 25440, Note_on_c, 1, 60, 0
4, 25440, Note_on_c, 1, 48, 0
4, 25632, Note_on_c, 1, 64, 75
4, 25721, Note_on_c, 1, 64, 0
4, 25728, Note_on_c, 1, 60, 75
4, 25817, Note_on_c, 1, 60, 0
4, 25824, Note_on_c, 1, 62, 75
4, 25824, Note_on_c, 1, 55, 75
4, 25913, Note_on_c, 1, 62, 0
4, 25913, Note_on_c, 1, 55, 0
4, 25920, Note_on_c, 1, 60, 75
4, 26009, Note_on_c, 1, 60, 0
4, 26016, Note_on_c, 1, 64, 75
4, 26105, Note_on_c, 1, 64, 0
4, 26112, Note_on_c, 1, 65, 75
4, 26201, Note_on_c, 1, 65, 0
4, 26208, Note_on_c, 1, 65, 75
4, 26297, Note_on_c, 1, 65, 0
4, 26304, Note_on_c, 1, 64, 75
4, 26393, Note_on_c, 1, 64, 0
4, 26496, Note_on_c, 1, 59, 75
4, 26526, Note_on_c, 1, 59, 0
4, 26528, Note_on_c, 1, 62, 75
4, 26558, Note_on_c, 1, 62, 0
4, 26560, Note_on_c, 1, 67, 75
4, 26590, Note_on_c, 1, 67, 0
4, 26592, Note_on_c, 1, 59, 75
4, 26681, Note_on_c, 1, 59, 0
4, 26784, Note_on_c, 1, 60, 75
4, 26814, Note_on_c, 1, 60, 0
4, 26816, Note_on_c, 1, 64, 75
4, 26846, Note_on_c, 1, 64, 0
4, 26848, Note_on_c, 1, 67, 75
4, 26878, Note_on_c, 1, 67, 0
4, 26880, Note_on_c, 1, 60, 75
4, 26969, Note_on_c, 1, 60, 0
4, 27072, Note_on_c, 1, 65, 75
4, 27072, Note_on_c, 1, 53, 75
4, 27161, Note_on_c, 1, 65, 0
4, 27161, Note_on_c, 1, 53, 0
4, 27168, Note_on_c, 1, 64, 75
4, 27168, Note_on_c, 1, 55, 75
4, 27257, Note_on_c, 1, 64, 0
4, 27257, Note_on_c, 1, 55, 0
4, 27264, Note_on_c, 1, 62, 75
4, 27264, Note_on_c, 1, 55, 75
4, 27353, Note_on_c, 1, 62, 0
4, 27353, Note_on_c, 1, 55, 0
4, 27360, Note_on_c, 1, 60, 75
4, 27449, Note_on_c, 1, 60, 0
4, 27456, Note_on_c, 1, 55, 75
4, 27545, Note_on_c, 1, 55, 0
4, 27552, Note_on_c, 1, 48, 75
4, 27641, Note_on_c, 1, 48, 0
4, 27648, Note_on_c, 1, 60, 91
4, 27648, Note_on_c, 1, 48, 91
4, 27744, Note_on_c, 1, 60, 0
4, 27744, Note_on_c, 1, 48, 0
4, 27936, Note_on_c, 1, 64, 75
4, 28025, Note_on_c, 1, 64, 0
4, 28032, Note_on_c, 1, 60, 75
4, 28121, Note_on_c, 1, 60, 0
4, 28128, Note_on_c, 1, 62, 75
4, 28128, Note_on_c, 1, 55, 75
4, 28217, Note_on_c, 1, 62, 0
4, 28217, Note_on_c, 1, 55, 0
4, 28224, Note_on_c, 1, 60, 75
4, 28313, Note_on_c, 1, 60, 0
4, 28320, Note_on_c, 1, 64, 75
4, 28409, Note_on_c, 1, 64, 0
4, 28416, Note_on_c, 1, 65, 75
4, 28505, Note_on_c, 1, 65, 0
4, 28512, Note_on_c, 1, 65, 75
4, 28601, Note_on_c, 1, 65, 0
4, 28608, Note_on_c, 1, 64, 75
4, 28697, Note_on_c, 1, 64, 0
4, 28800, Note_on_c, 1, 59, 75
4, 28830, Note_on_c, 1, 59, 0
4, 28832, Note_on_c, 1, 62, 75
4, 28862, Note_on_c, 1, 62, 0
4, 28864, Note_on_c, 1, 67, 75
4, 28894, Note_on_c, 1, 67, 0
4, 28896, Note_on_c, 1, 59, 75
4, 28985, Note_on_c, 1, 59, 0
4, 29088, Note_on_c, 1, 60, 75
4, 29118, Note_on_c, 1, 60, 0
4, 29120, Note_on_c, 1, 64, 75
4, 29150, Note_on_c, 1, 64, 0
4, 29152, Note_on_c, 1, 67, 75
4, 29182, Note_on_c, 1, 67, 0
4, 29184, Note_on_c, 1, 60, 75
4, 29273, Note_on_c, 1, 60, 0
4, 29376, Note_on_c, 1, 65, 75
4, 29376, Note_on_c, 1, 53, 75
4, 29465, Note_on_c, 1, 65, 0
4, 29465, Note_on_c, 1, 53, 0
4, 29472, Note_on_c, 1, 64, 75
4, 29472, Note_on_c, 1, 55, 75
4, 29561, Note_on_c, 1, 64, 0
4, 29561, Note_on_c, 1, 55, 0
4, 29568, Note_on_c, 1, 62, 75
4, 29568, Note_on_c, 1, 55, 75
4, 29657, Note_on_c, 1, 62, 0
4, 29657, Note_on_c, 1, 55, 0
4, 29664, Note_on_c, 1, 60, 75
4, 29753, Note_on_c, 1, 60, 0
4, 29760, Note_on_c, 1, 55, 75
4, 29849, Note_on_c, 1, 55, 0
4, 29856, Note_on_c, 1, 48, 75
4, 29945, Note_on_c, 1, 48, 0
4, 29952, Note_on_c, 1, 48, 75
4, 30041, Note_on_c, 1, 48, 0
4, 30144, Note_on_c, 1, 48, 75
4, 30233, Note_on_c, 1, 48, 0
4, 30240, Note_on_c, 1, 47, 75
4, 30373, Note_on_c, 1, 47, 0
4, 30384, Note_on_c, 1, 59, 75
4, 30429, Note_on_c, 1, 59, 0
4, 30432, Note_on_c, 1, 57, 75
4, 30477, Note_on_c, 1, 57, 0
4, 30480, Note_on_c, 1, 55, 75
4, 30525, Note_on_c, 1, 55, 0
4, 30528, Note_on_c, 1, 57, 75
4, 30617, Note_on_c, 1, 57, 0
4, 30624, Note_on_c, 1, 54, 75
4, 30713, Note_on_c, 1, 54, 0
4, 30720, Note_on_c, 1, 55, 75
4, 30809, Note_on_c, 1, 55, 0
4, 30816, Note_on_c, 1, 57, 75
4, 30905, Note_on_c, 1, 57, 0
4, 30912, Note_on_c, 1, 50, 75
4, 31001, Note_on_c, 1, 50, 0
4, 31008, Note_on_c, 1, 55, 75
4, 31097, Note_on_c, 1, 55, 0
4, 31104, Note_on_c, 1, 48, 75
4, 31134, Note_on_c, 1, 48, 0
4, 31136, Note_on_c, 1, 52, 75
4, 31166, Note_on_c, 1, 52, 0
4, 31168, Note_on_c, 1, 55, 75
4, 31198, Note_on_c, 1, 55, 0
4, 31200, Note_on_c, 1, 48, 75
4, 31289, Note_on_c, 1, 48, 0
4, 31392, Note_on_c, 1, 47, 75
4, 31422, Note_on_c, 1, 47, 0
4, 31424, Note_on_c, 1, 50, 75
4, 31454, Note_on_c, 1, 50, 0
4, 31456, Note_on_c, 1, 55, 75
4, 31486, Note_on_c, 1, 55, 0
4, 31488, Note_on_c, 1, 47, 75
4, 31577, Note_on_c, 1, 47, 0
4, 31680, Note_on_c, 1, 55, 75
4, 31769, Note_on_c, 1, 55, 0
4, 31776, Note_on_c, 1, 55, 75
4, 31865, Note_on_c, 1, 55, 0
4, 31872, Note_on_c, 1, 54, 75
4, 31961, Note_on_c, 1, 54, 0
4, 31968, Note_on_c, 1, 55, 75
4, 32057, Note_on_c, 1, 55, 0
4, 32064, Note_on_c, 1, 50, 75
4, 32153, Note_on_c, 1, 50, 0
4, 32160, Note_on_c, 1, 43, 75
4, 32249, Note_on_c, 1, 43, 0
4, 32256, Note_on_c, 1, 60, 91
4, 32256, Note_on_c, 1, 48, 91
4, 32352, Note_on_c, 1, 60, 0
4, 32352, Note_on_c, 1, 48, 0
4, 32544, Note_on_c, 1, 64, 75
4, 32633, Note_on_c, 1, 64, 0
4, 32640, Note_on_c, 1, 60, 75
4, 32729, Note_on_c, 1, 60, 0
4, 32736, Note_on_c, 1, 62, 75
4, 32736, Note_on_c, 1, 55, 75
4, 32825, Note_on_c, 1, 62, 0
4, 32825, Note_on_c, 1, 55, 0
4, 32832, Note_on_c, 1, 60, 75
4, 32921, Note_on_c, 1, 60, 0
4, 32928, Note_on_c, 1, 64, 75
4, 33017, Note_on_c, 1, 64, 0
4, 33024, Note_on_c, 1, 65, 75
4, 33113, Note_on_c, 1, 65, 0
4, 33120, Note_on_c, 1, 65, 75
4, 33209, Note_on_c, 1, 65, 0
4, 33216, Note_on_c, 1, 64, 75
4, 33305, Note_on_c, 1, 64, 0
4, 33408, Note_on_c, 1, 59, 75
4, 33438, Note_on_c, 1, 59, 0
4, 33440, Note_on_c, 1, 62, 75
4, 33470, Note_on_c, 1, 62, 0
4, 33472, Note_on_c, 1, 67, 75
4, 33502, Note_on_c, 1, 67, 0
4, 33504, Note_on_c, 1, 59, 75
4, 33593, Note_on_c, 1, 59, 0
4, 33696, Note_on_c, 1, 60, 75
4, 33726, Note_on_c, 1, 60, 0
4, 33728, Note_on_c, 1, 64, 75
4, 33758, Note_on_c, 1, 64, 0
4, 33760, Note_on_c, 1, 67, 75
4, 33790, Note_on_c, 1, 67, 0
4, 33792, Note_on_c, 1, 60, 75
4, 33881, Note_on_c, 1, 60, 0
4, 33984, Note_on_c, 1, 53, 75
4, 34014, Note_on_c, 1, 53, 0
4, 34016, Note_on_c, 1, 57, 75
4, 34046, Note_on_c, 1, 57, 0
4, 34048, Note_on_c, 1, 60, 75
4, 34078, Note_on_c, 1, 60, 0
4, 34080, Note_on_c, 1, 53, 75
4, 34169, Note_on_c, 1, 53, 0
4, 34272, Note_on_c, 1, 52, 75
4, 34302, Note_on_c, 1, 52, 0
4, 34304, Note_on_c, 1, 55, 75
4, 34334, Note_on_c, 1, 55, 0
4, 34336, Note_on_c, 1, 60, 75
4, 34366, Note_on_c, 1, 60, 0
4, 34368, Note_on_c, 1, 52, 75
4, 34457, Note_on_c, 1, 52, 0
4, 34560, Note_on_c, 1, 65, 75
4, 34649, Note_on_c, 1, 65, 0
4, 34656, Note_on_c, 1, 64, 75
4, 34745, Note_on_c, 1, 64, 0
4, 34752, Note_on_c, 1, 62, 75
4, 34841, Note_on_c, 1, 62, 0
4, 34848, Note_on_c, 1, 60, 75
4, 34937, Note_on_c, 1, 60, 0
4, 34944, Note_on_c, 1, 55, 75
4, 35033, Note_on_c, 1, 55, 0
4, 35040, Note_on_c, 1, 48, 75
4, 35129, Note_on_c, 1, 48, 0
4, 35136, Note_on_c, 1, 48, 75
4, 35225, Note_on_c, 1, 48, 0
4, 35328, Note_on_c, 1, 48, 75
4, 35417, Note_on_c, 1, 48, 0
4, 35424, Note_on_c, 1, 47, 75
4, 35557, Note_on_c, 1, 47, 0
4, 35568, Note_on_c, 1, 59, 75
4, 35613, Note_on_c, 1, 59, 0
4, 35616, Note_on_c, 1, 57, 75
4, 35661, Note_on_c, 1, 57, 0
4, 35664, Note_on_c, 1, 55, 75
4, 35709, Note_on_c, 1, 55, 0
4, 35712, Note_on_c, 1, 57, 75
4, 35801, Note_on_c, 1, 57, 0
4, 35808, Note_on_c, 1, 54, 75
4, 35897, Note_on_c, 1, 54, 0
4, 35904, Note_on_c, 1, 55, 75
4, 35993, Note_on_c, 1, 55, 0
4, 36000, Note_on_c, 1, 57, 75
4, 36089, Note_on_c, 1, 57, 0
4, 36096, Note_on_c, 1, 50, 75
4, 36185, Note_on_c, 1, 50, 0
4, 36192, Note_on_c, 1, 55, 75
4, 36281, Note_on_c, 1, 55, 0
4, 36288, Note_on_c, 1, 48, 75
4, 36318, Note_on_c, 1, 48, 0
4, 36320, Note_on_c, 1, 52, 75
4, 36350, Note_on_c, 1, 52, 0
4, 36352, Note_on_c, 1, 55, 75
4, 36382, Note_on_c, 1, 55, 0
4, 36384, Note_on_c, 1, 48, 75
4, 36473, Note_on_c, 1, 48, 0
4, 36576, Note_on_c, 1, 47, 75
4, 36606, Note_on_c, 1, 47, 0
4, 36608, Note_on_c, 1, 50, 75
4, 36638, Note_on_c, 1, 50, 0
4, 36640, Note_on_c, 1, 55, 75
4, 36670, Note_on_c, 1, 55, 0
4, 36672, Note_on_c, 1, 47, 75
4, 36761, Note_on_c, 1, 47, 0
4, 36864, Note_on_c, 1, 55, 75
4, 36953, Note_on_c, 1, 55, 0
4, 36960, Note_on_c, 1, 55, 75
4, 37049, Note_on_c, 1, 55, 0
4, 37056, Note_on_c, 1, 54, 75
4, 37145, Note_on_c, 1, 54, 0
4, 37152, Note_on_c, 1, 55, 75
4, 37241, Note_on_c, 1, 55, 0
4, 37248, Note_on_c, 1, 50, 75
4, 37337, Note_on_c, 1, 50, 0
4, 37344, Note_on_c, 1, 43, 75
4, 37433, Note_on_c, 1, 43, 0
4, 37440, Note_on_c, 1, 60, 91
4, 37440, Note_on_c, 1, 48, 91
4, 37536, Note_on_c, 1, 60, 0
4, 37536, Note_on_c, 1, 48, 0
4, 37728, Note_on_c, 1, 64, 75
4, 37817, Note_on_c, 1, 64, 0
4, 37824, Note_on_c, 1, 60, 75
4, 37913, Note_on_c, 1, 60, 0
4, 37920, Note_on_c, 1, 62, 75
4, 37920, Note_on_c, 1, 55, 75
4, 38009, Note_on_c, 1, 62, 0
4, 38009, Note_on_c, 1, 55, 0
4, 38016, Note_on_c, 1, 60, 75
4, 38105, Note_on_c, 1, 60, 0
4, 38112, Note_on_c, 1, 64, 75
4, 38201, Note_on_c, 1, 64, 0
4, 38208, Note_on_c, 1, 65, 75
4, 38297, Note_on_c, 1, 65, 0
4, 38304, Note_on_c, 1, 65, 75
4, 38393, Note_on_c, 1, 65, 0
4, 38400, Note_on_c, 1, 64, 75
4, 38489, Note_on_c, 1, 64, 0
4, 38592, Note_on_c, 1, 59, 75
4, 38622, Note_on_c, 1, 59, 0
4, 38624, Note_on_c, 1, 62, 75
4, 38654, Note_on_c, 1, 62, 0
4, 38656, Note_on_c, 1, 67, 75
4, 38686, Note_on_c, 1, 67, 0
4, 38688, Note_on_c, 1, 59, 75
4, 38777, Note_on_c, 1, 59, 0
4, 38880, Note_on_c, 1, 60, 75
4, 38910, Note_on_c, 1, 60, 0
4, 38912, Note_on_c, 1, 64, 75
4, 38942, Note_on_c, 1, 64, 0
4, 38944, Note_on_c, 1, 67, 75
4, 38974, Note_on_c, 1, 67, 0
4, 38976, Note_on_c, 1, 60, 75
4, 39065, Note_on_c, 1, 60, 0
4, 39168, Note_on_c, 1, 53, 75
4, 39198, Note_on_c, 1, 53, 0
4, 39200, Note_on_c, 1, 57, 75
4, 39230, Note_on_c, 1, 57, 0
4, 39232, Note_on_c, 1, 60, 75
4, 39262, Note_on_c, 1, 60, 0
4, 39264, Note_on_c, 1, 53, 75
4, 39353, Note_on_c, 1, 53, 0
4, 39456, Note_on_c, 1, 52, 75
4, 39486, Note_on_c, 1, 52, 0
4, 39488, Note_on_c, 1, 55, 75
4, 39518, Note_on_c, 1, 55, 0
4, 39520, Note_on_c, 1, 60, 75
4, 39550, Note_on_c, 1, 60, 0
4, 39552, Note_on_c, 1, 52, 75
4, 39641, Note_on_c, 1, 52, 0
4, 39744, Note_on_c, 1, 65, 75
4, 39833, Note_on_c, 1, 65, 0
4, 39840, Note_on_c, 1, 64, 75
4, 39929, Note_on_c, 1, 64, 0
4, 39936, Note_on_c, 1, 62, 75
4, 40025, Note_on_c, 1, 62, 0
4, 40032, Note_on_c, 1, 60, 75
4, 40121, Note_on_c, 1, 60, 0
4, 40128, Note_on_c, 1, 55, 75
4, 40217, Note_on_c, 1, 55, 0
4, 40224, Note_on_c, 1, 48, 75
4, 40313, Note_on_c, 1, 48, 0
4, 40320, Note_on_c, 1, 48, 0
4, 40497, Note_on_c, 1, 48, 0
4, 40512, End_track
5, 0, Start_track
5, 0, Program_c, 1, 0
5, 0, Control_c, 1, 7, 127
5, 0, Control_c, 1, 10, 64
5, 864, Note_on_c, 1, 60, 64
5, 1041, Note_on_c, 1, 60, 0
5, 3168, Note_on_c, 1, 60, 64
5, 3345, Note_on_c, 1, 60, 0
5, 6336, Note_on_c, 1, 48, 64
5, 6425, Note_on_c, 1, 48, 0
5, 6432, Note_on_c, 1, 50, 64
5, 6609, Note_on_c, 1, 50, 0
5, 7776, Note_on_c, 1, 60, 64
5, 7953, Note_on_c, 1, 60, 0
5, 9216, Note_on_c, 1, 53, 64
5, 9305, Note_on_c, 1, 53, 0
5, 9312, Note_on_c, 1, 55, 64
5, 9489, Note_on_c, 1, 55, 0
5, 11520, Note_on_c, 1, 48, 64
5, 11609, Note_on_c, 1, 48, 0
5, 11616, Note_on_c, 1, 50, 64
5, 11793, Note_on_c, 1, 50, 0
5, 12960, Note_on_c, 1, 60, 64
5, 13137, Note_on_c, 1, 60, 0
5, 14400, Note_on_c, 1, 53, 64
5, 14489, Note_on_c, 1, 53, 0
5, 14496, Note_on_c, 1, 55, 64
5, 14673, Note_on_c, 1, 55, 0
5, 14976, Note_on_c, 1, 48, 64
5, 15241, Note_on_c, 1, 48, 0
5, 15264, Note_on_c, 1, 46, 64
5, 15441, Note_on_c, 1, 46, 0
5, 15456, Note_on_c, 1, 43, 64
5, 15545, Note_on_c, 1, 43, 0
5, 15552, Note_on_c, 1, 44, 64
5, 15817, Note_on_c, 1, 44, 0
5, 15840, Note_on_c, 1, 43, 64
5, 15973, Note_on_c, 1, 43, 0
5, 16128, Note_on_c, 1, 48, 64
5, 16393, Note_on_c, 1, 48, 0
5, 16416, Note_on_c, 1, 46, 64
5, 16681, Note_on_c, 1, 46, 0
5, 17280, Note_on_c, 1, 48, 64
5, 17545, Note_on_c, 1, 48, 0
5, 17568, Note_on_c, 1, 46, 64
5, 17745, Note_on_c, 1, 46, 0
5, 17760, Note_on_c, 1, 43, 64
5, 17849, Note_on_c, 1, 43, 0
5, 17856, Note_on_c, 1, 44, 64
5, 18121, Note_on_c, 1, 44, 0
5, 18144, Note_on_c, 1, 43, 64
5, 18277, Note_on_c, 1, 43, 0
5, 18432, Note_on_c, 1, 48, 64
5, 18697, Note_on_c, 1, 48, 0
5, 18720, Note_on_c, 1, 46, 64
5, 18985, Note_on_c, 1, 46, 0
5, 26208, Note_on_c, 1, 60, 64
5, 26385, Note_on_c, 1, 60, 0
5, 28512, Note_on_c, 1, 60, 64
5, 28689, Note_on_c, 1, 60, 0
5, 31680, Note_on_c, 1, 48, 64
5, 31769, Note_on_c, 1, 48, 0
5, 31776, Note_on_c, 1, 50, 64
5, 31953, Note_on_c, 1, 50, 0
5, 33120, Note_on_c, 1, 60, 64
5, 33297, Note_on_c, 1, 60, 0
5, 34560, Note_on_c, 1, 53, 64
5, 34649, Note_on_c, 1, 53, 0
5, 34656, Note_on_c, 1, 55, 64
5, 34833, Note_on_c, 1, 55, 0
5, 36864, Note_on_c, 1, 48, 64
5, 36953, Note_on_c, 1, 48, 0
5, 36960, Note_on_c, 1, 50, 64
5, 37137, Note_on_c, 1, 50, 0
5, 38304, Note_on_c, 1, 60, 64
5, 38481, Note_on_c, 1, 60, 0
5, 39744, Note_on_c, 1, 53, 64
5, 39833, Note_on_c, 1, 53, 0
5, 39840, Note_on_c, 1, 55, 64
5, 40017, Note_on_c, 1, 55, 0
5, 40320, End_track
6, 0, Start_track
6, 0, Title_t, "Sonata I   Haydn  "
6, 0, End_track
0, 0, End_of_file
